<svg xmlns="http://www.w3.org/2000/svg" viewBox="-11.680000305175781 -1.2700004577636719 198.44000244140625 282.1499938964844"><title>Depositphotos_7282940_03</title><g data-name="Layer 2"><g data-name="Layer 5"><path d="M143.27 95c1.19-1.74 3.26-2.37 4.79-.71a5.42 5.42 0 0 1 1.14 2.13c1.53 5.11-1.11 10.45-3.41 14.89-2.12-4.43-5.6-11.78-2.52-16.31zm2.08 1.42c-.9 2.85 0 7.51.51 10.2a18 18 0 0 0 .69-9.48c-.22-1.14-.9-1.65-1.2-.72z" fill="#804c82"/><path d="M135.76 182.85c.35 3-3.22 8.37-7.63 8.54l-80.46-71.91s-17.9-18.42-31.11-2.74S25.78 144 25.78 144c.36 3.12-4.22 9.71-7.76 10-7.42-6.63-29.7-23.31-10.24-45.53s39.24-4.55 47.75 2.66 80.23 71.72 80.23 71.72z" fill="#f287b7" fill-rule="evenodd"/><path d="M126.4 189.85a19.53 19.53 0 0 1 8.48-3.43c-1.29 2.47-3.84 4.85-6.76 5l-1.72-1.54zM4.1 139.32a28.56 28.56 0 0 0 9.1.16 26.43 26.43 0 0 0 4.91-1.18 35.4 35.4 0 0 0 7.67 5.7 4.07 4.07 0 0 1-.06 1.17 35 35 0 0 1-11.2 3.54q-1.12.16-2.22.25a50.5 50.5 0 0 1-8.2-9.6zM2.59 116a18.35 18.35 0 0 0 10.51 6.59 12.53 12.53 0 0 0 .49 9.46A25.5 25.5 0 0 1 0 126.4 22.7 22.7 0 0 1 2.59 116zm13.34 1.51c.2-.26.41-.52.63-.78a18.06 18.06 0 0 1 6.63-5.13c-1.5-2.81-2.8-7.53.35-13.43A26.38 26.38 0 0 0 12.3 104a22.64 22.64 0 0 0 3.64 13.51zm11.47-7a24.08 24.08 0 0 1 12.77-10 53.84 53.84 0 0 1 10.3 6.5 16.1 16.1 0 0 0-12.84 5.51 19.71 19.71 0 0 0-10.24-2zm18.42 7.28a30 30 0 0 1 11.95-4.71c2.19 1.92 5.45 4.8 9.42 8.33a18.64 18.64 0 0 0-14.37 2.67l-5.14-4.6s-.67-.69-1.85-1.69zm15.75 14.11a26 26 0 0 1 13-4l8.43 7.58a18.63 18.63 0 0 0-14.41 2.66l-7-6.23zm17 15.23a25 25 0 0 1 12.8-4.13l8.67 7.77a18.64 18.64 0 0 0-14.36 2.67l-7.06-6.31zm15.7 14a23.63 23.63 0 0 1 12.95-3.92l8.42 7.56a18.65 18.65 0 0 0-14.28 2.69l-7.09-6.33zM110.93 176a28.23 28.23 0 0 1 12.25-4.47l8.92 8a18.68 18.68 0 0 0-14.16 2.72z" fill="#00a651"/><path d="M1.91 128a21.63 21.63 0 0 1 .75-7.1C6 109.38 20.89 93 40.85 102.57a73.83 73.83 0 0 1 12.21 8.16c2.39 1.91-.19 1.36-3.27-.48A64.57 64.57 0 0 0 37.1 104c-8.14-2.73-16.36-1.84-24.38 6.35-5.78 5.9-8.1 10.5-9 14.19-1.07 4.57-1.72 6.31-1.81 3.46z" fill="#fff" fill-rule="evenodd"/><path d="M93 169.44s19.14 10.95 19.25 37.22-34.79 26.3-18 56.11c10.17 18.11 37.39 6.42 45.24-9.9s15.23-22.06 28-27.76 15.9-25.66-1.2-35.56-14.1-39.31-13.2-51.31c-16.57 21.32-37.23 29.96-60.09 31.2z" fill="#ed1c24" fill-rule="evenodd"/><path d="M106.72 184.38c12.63 3.68 38.84-3.2 46.1-20.31a46.74 46.74 0 0 0 4.11 15.15c-7.25 13.65-33.09 22.23-46.12 15.57a44 44 0 0 0-4.09-10.41zm-16.5 59.8c3.19 5.34 12.79 17.73 35.32 23.12-11 6.43-24.73 7.2-31.31-4.53-4.47-8-5.26-13.81-4-18.59zm8.29-12.34a51.66 51.66 0 0 0-5 5.73c8.43 16.44 33.54 19.35 43.21 19.85a28.39 28.39 0 0 0 2.77-4.56c1.08-2.26 2.16-4.31 3.24-6.19-30.74-2.08-41.3-11.37-44.2-14.83zm10-11.52c5.75 3 29.33 12.91 66.84-2.2a17.6 17.6 0 0 1-7.86 7c-6.81 3-12.1 6.1-16.74 10.78-15.49 1.49-38.44.13-47.16-9.22a41 41 0 0 0 4.91-6.34zm3.74-16.09q.06 1.19.07 2.43a26.33 26.33 0 0 1-.65 6c15.95 8.41 51.91 3 63.79-14.28a24.41 24.41 0 0 0-9.16-8.87c-.6-.35-1.17-.72-1.73-1.12-9.57 17.17-34.22 24.03-52.36 15.84z" fill="#0095da" fill-rule="evenodd"/><path d="M93.33 261.1c.28.55.58 1.1.9 1.67 10.17 18.11 37.39 6.42 45.24-9.9s15.23-22.06 28-27.76 15.9-25.66-1.2-35.56-14.1-39.31-13.2-51.31q-2 2.53-4 4.82c-.14 3.79-.31 8.58-.52 14.66-1 28.66 6.19 30.61 13.35 38.27s10.1 21.66-3.42 24.91-18.74 9.43-21.48 17.9-6.35 21.49-21.82 25.73a26.13 26.13 0 0 1-21.85-3.43z" fill="#b11116" fill-rule="evenodd"/><path d="M148.74 170.65a26.21 26.21 0 0 0 4.08-6.59 46.74 46.74 0 0 0 4.11 15.15 24 24 0 0 1-4.56 5.91c-1.76-3.28-3.07-7.7-3.63-14.47zm-32.84 93.66a74.48 74.48 0 0 0 9.64 3c-11 6.43-24.73 7.2-31.31-4.53q-.48-.86-.9-1.68a26.13 26.13 0 0 0 21.83 3.44l.75-.22zm18.62-18.41q3.83.47 8.18.77a92.247 92.247 0 0 0-3.24 6.19 28.39 28.39 0 0 1-2.77 4.56c-2.16-.11-5.09-.35-8.43-.82a35 35 0 0 0 6.26-10.7zm12-20.2a111.11 111.11 0 0 0 28.77-7.58 17.6 17.6 0 0 1-7.86 7c-6.81 3-12.1 6.1-16.74 10.78a116.88 116.88 0 0 1-12.85.5 22.37 22.37 0 0 1 8.68-10.68zm13.75-31.35a32.82 32.82 0 0 0 4.23-5.92c.55.39 1.13.77 1.73 1.12a24.41 24.41 0 0 1 9.16 8.87 31.38 31.38 0 0 1-7.93 7.77 23.3 23.3 0 0 0-5.57-10.19 42.37 42.37 0 0 0-1.6-1.65z" fill="#007dc5" fill-rule="evenodd"/><path d="M93 169.44A39.06 39.06 0 0 1 104 180c15.19-.49 41.6-11.19 48.28-26.56 0-6 .5-11.47.78-15.22-16.54 21.34-37.2 29.98-60.06 31.22z" fill="#b11116" fill-rule="evenodd"/><path d="M135 146.38c2.12 2.16 8.55 2.73 11.44-.6L140.79 38s-3.14-25.49 17.37-26 15.46 24.24 15.46 24.24c2.2 2.23 10.21 2.8 12.69.24-.52-9.93.45-37.75-29.08-36.51s-28.14 27.73-27.86 38.88S135 146.38 135 146.38z" fill="#ffcb05" fill-rule="evenodd"/><path d="M146.29 143.47a19.53 19.53 0 0 0-8 4.46c2.74.54 6.19 0 8.11-2.16l-.12-2.31zm37.29-127A28.57 28.57 0 0 1 178 23.7a26.44 26.44 0 0 1-4 3.09 35.37 35.37 0 0 1-.39 9.52 4.07 4.07 0 0 0 .95.69 35 35 0 0 0 9.78-6.51q.83-.78 1.59-1.58a50.49 50.49 0 0 0-2.35-12.41zM166.35.72a22.71 22.71 0 0 1 9.72 4.49A25.49 25.49 0 0 1 172 19.35a12.54 12.54 0 0 0-7.1-6.35A18.35 18.35 0 0 0 166.35.72zm-7.19 11.34a22.63 22.63 0 0 0-8.24-11.3 26.39 26.39 0 0 0-11.6 5.11c6.57 1.25 9.44 5.21 10.69 8.15a18.07 18.07 0 0 1 8.15-2zM146.5 16.6a24.1 24.1 0 0 0-15.83 3.66 53.82 53.82 0 0 0-1.39 12.1 16.1 16.1 0 0 1 12.35-6.55 19.71 19.71 0 0 1 4.88-9.21zm-5.87 18.92a30 30 0 0 0-11.16 6.36c.12 2.91.32 7.26.59 12.56a18.64 18.64 0 0 1 11.09-9.53l-.36-6.91s-.12-1-.16-2.5zm1.13 21.12a26.05 26.05 0 0 0-11.21 7.62c.18 3.57.38 7.36.59 11.29A18.63 18.63 0 0 1 142.25 66l-.49-9.34zM143 79.47a25 25 0 0 0-11.22 7.35l.62 11.63a18.65 18.65 0 0 1 11.09-9.52l-.49-9.46zm1.1 21a23.64 23.64 0 0 0-11.17 7.64l.61 11.3a18.66 18.66 0 0 1 11-9.41l-.54-9.5zm1.16 22.25a28.25 28.25 0 0 0-11.26 6.77l.66 12a18.69 18.69 0 0 1 11-9.33z" fill="#9aca3c"/><path d="M179.95 34.7c3.51 0 6.36.87 6.36 1.86s-2.85 1.77-6.36 1.73-6.36-.87-6.36-1.86 2.85-1.76 6.36-1.73z" fill="#e49f15" fill-rule="evenodd"/><path d="M180.55 13.08A19.65 19.65 0 0 0 170 3.49C158.86-1 136.78.68 132 22.31a46.29 46.29 0 0 0-.77 5.59c-.57 6.71 1.24 4.72 2.25-.17C135.94 16 140.77 6.56 155.46 4.9c8.47-1 18.76 1 23.63 9 3.47 5.72 3.08 2.49 1.46-.82z" fill="#fff" fill-rule="evenodd"/><path d="M79.07 155.18c-.65 3.89-.75 6.45 2.25 11.7s9.21 11.55 21.91 10.65 36.85-7.72 49-27.45c6.27-10.2 7.43-18.1 5.62-26.64-1.7-8-6-13.63-10.32-14.78-22.43-5.91-64.94 25.4-68.46 46.52z" fill="#c7a0cb" fill-rule="evenodd"/><path d="M88.06 152.93c0 .06-2 18.78 17.74 24.37-.9.11-1.76.19-2.57.25h-.57c-17.77-6.77-15.85-24.71-15.85-24.77z" fill="#a36fa5"/><path d="M101.07 148c0 .05 2.65 18.07 18.68 26.12l-1.68.53c-15.63-8.6-18.23-26.4-18.24-26.46z" fill="#a36fa5"/><path d="M115.65 138.95c0 .05 3.41 18.38 18.34 28.71l-1.19.7c-15-10.68-18.38-29.11-18.39-29.16z" fill="#a36fa5"/><path d="M129.48 130.66c0 .05 11.2 17.12 15.17 28.83l-1 1c-3.72-11.53-15.18-29.05-15.22-29.11z" fill="#a36fa5"/><path d="M139.24 120.57s13.5 4.36 15.56 24.85q-.51 1-1.09 2.09c-1.28-21.37-14.82-25.74-14.86-25.75z" fill="#a36fa5"/><path d="M143.81 113.84s5.24-2.76 10.34.38a23.28 23.28 0 0 1 1.66 3 9.61 9.61 0 0 0-11.43-2.3z" fill="#a36fa5"/><path d="M84.7 152.12s-5.07 1.63-5.19 11a12.17 12.17 0 0 1-.81-4.2c1.39-6.63 5.58-8 5.59-8z" fill="#a36fa5"/><path d="M89 144.23s-2-1.4-5.31-.1c.34-.54.7-1.08 1.07-1.62a6.55 6.55 0 0 1 4.94.68z" fill="#a36fa5"/><path d="M96.36 136.65a18.08 18.08 0 0 0-4.87-2.27l1-1a20.09 20.09 0 0 1 4.61 2.25z" fill="#a36fa5"/><path d="M102.05 131.12a23.71 23.71 0 0 0-4.2-2.81l1-.88a27.67 27.67 0 0 1 4 2.72z" fill="#a36fa5"/><path d="M107.91 126.34s-1.42-2.28-2.39-4.06l1-.71c.9 1.65 2.43 4.09 2.44 4.1z" fill="#a36fa5"/><path d="M114.82 122.09a11.54 11.54 0 0 1-.8-5.27l1.39-.78a9.94 9.94 0 0 0 .56 5.57z" fill="#a36fa5"/><path d="M123.58 118.33a10.42 10.42 0 0 1 .77-6.55q1-.41 2-.78a8.64 8.64 0 0 0-1.56 7z" fill="#a36fa5"/><path d="M131.63 114.65a14.07 14.07 0 0 1 3-6q1.11-.21 2.19-.37a12.26 12.26 0 0 0-4 6.61z" fill="#a36fa5"/><path d="M140.22 112.7a10.42 10.42 0 0 1 4.05-4.61 22.6 22.6 0 0 1 2.25.36 8.78 8.78 0 0 0-5.14 4.72z" fill="#a36fa5"/><path d="M79.07 155.18a14.09 14.09 0 0 0 .21 7.28c1.41-3.15 3.67-6.35 7.21-7.2 7.49-1.79 19.54-3.91 33.06-12.38 12.88-8.07 16.89-15.85 37.68-21.77-2-6.78-5.83-11.42-9.74-12.45-22.39-5.91-64.9 25.4-68.42 46.52z" fill="#aa7cb1" fill-rule="evenodd"/><path d="M88.06 152.93a17.22 17.22 0 0 0-.05 2l-1.24.29a19 19 0 0 1 0-2.4z" fill="#804c82"/><path d="M101.07 148a28.5 28.5 0 0 0 .74 3.23l-1.19.39a29.54 29.54 0 0 1-.79-3.43z" fill="#804c82"/><path d="M115.65 138.95a41.42 41.42 0 0 0 1.51 5.38l-1.11.63a43.09 43.09 0 0 1-1.64-5.78z" fill="#804c82"/><path d="M129.48 130.66s.85 1.29 2.14 3.38l-1 .78c-1.32-2.14-2.19-3.46-2.2-3.47z" fill="#804c82"/><path d="M139.24 120.57a19.37 19.37 0 0 1 6.82 4.54l-1.21.56a17.72 17.72 0 0 0-6-3.91z" fill="#804c82"/><path d="M143.81 113.84s5.24-2.76 10.34.38a23.28 23.28 0 0 1 1.66 3 9.61 9.61 0 0 0-11.43-2.3z" fill="#804c82"/><path d="M84.7 152.12s-4.62 1.49-5.15 9.76l-.27.58a11.83 11.83 0 0 1-.59-3.55c1.39-6.63 5.58-8 5.59-8z" fill="#804c82"/><path d="M89 144.23s-2-1.4-5.31-.1c.34-.54.7-1.08 1.07-1.62a6.55 6.55 0 0 1 4.94.68z" fill="#804c82"/><path d="M96.36 136.65a18.08 18.08 0 0 0-4.87-2.27l1-1a20.09 20.09 0 0 1 4.61 2.25z" fill="#804c82"/><path d="M102.05 131.12a23.71 23.71 0 0 0-4.2-2.81l1-.88a27.67 27.67 0 0 1 4 2.72z" fill="#804c82"/><path d="M107.91 126.34s-1.42-2.28-2.39-4.06l1-.71c.9 1.65 2.43 4.09 2.44 4.1z" fill="#804c82"/><path d="M114.82 122.09a11.54 11.54 0 0 1-.8-5.27l1.39-.78a9.94 9.94 0 0 0 .56 5.57z" fill="#804c82"/><path d="M123.58 118.33a10.42 10.42 0 0 1 .77-6.55q1-.41 2-.78a8.64 8.64 0 0 0-1.56 7z" fill="#804c82"/><path d="M131.63 114.65a14.07 14.07 0 0 1 3-6q1.11-.21 2.19-.37a12.26 12.26 0 0 0-4 6.61z" fill="#804c82"/><path d="M140.22 112.7a10.42 10.42 0 0 1 4.05-4.61 22.6 22.6 0 0 1 2.25.36 8.78 8.78 0 0 0-5.14 4.72z" fill="#804c82"/><path d="M85.07 154.58c9.57-1.33 41.06-12 59.72-37.51 7.39-10.13-15.6-4.75-34.21 6.31-18.26 10.87-33.06 32.25-25.51 31.2z" fill="#804c82" fill-rule="evenodd"/><path d="M92.41 75.24l-.66.24C60.31 87.14 55.35 59.12 77.84 64c-8.47-10.36-1.65-32.09 9.82-16.77 3.83-12 14.39-11.49 15.08 2.33 9.65-12.07 14.13 1.76 7.23 12-3.41 5-8.4 9.49-12.09 11.41a38.19 38.19 0 0 1-5.43 2.29zm3.09-5s-.82-7.4 4.25-16.24c.63-6.35-7-14.66-10-3.39 2.29 4.46 4 10.74 4.13 18.81 0 .68.07.84.06 1.55.82-.22.89-.11 1.56-.73zm-6.58 3.18a47.3 47.3 0 0 1-6.55-4.79C68.3 65 60.92 82 88.92 73.43zm-4.66-8c2.32 1.2 4.26 3.58 6.41 5.58-1.2-2.78-4.25-10.52-4.19-16.9a20.85 20.85 0 0 1 .27-3.06c-2.08-3.66-5.1-6.11-6.83-1.39-.71 1.93-1.94 10.19 4.34 15.75zm18.3-10.55a55.8 55.8 0 0 1-3.49 13.88c7-6.94 10.3-18.2 9.92-19.51-.32-1.06-3.1.09-6.43 5.65z" fill="#d3691b"/><path d="M131.78 60.4l-22.92-1.6-2.13 4.89L128.31 134a87.8 87.8 0 0 0 16.48-17 11.4 11.4 0 0 0 .78-1.21z" fill="#006dad" fill-rule="evenodd"/><path d="M58.61 85.13l50.25-26.33 21.87 73.2c-15.45 13.11-33.25 19.81-42.39 22z" fill="#0095da" fill-rule="evenodd"/><path d="M112 59a8.06 8.06 0 0 1-2.67 13.3l-2.65-8.63 2.13-4.89L112 59zm24.28 55.11c2.32-.53 4.94 2 6.26 5.82a85.22 85.22 0 0 1-7.35 8 14.1 14.1 0 0 1-1.72-4.27c-1.08-4.69.18-9 2.81-9.58zm.81-30.45a2.83 2.83 0 0 1 .41-.06l4.17 16.79a2.82 2.82 0 0 1-.69.26c-2.63.6-5.63-2.71-6.71-7.4s.18-9 2.81-9.58zm-14-14.17c2.63-.6 5.63 2.71 6.71 7.4s-.18 9-2.81 9.58-5.63-2.71-6.71-7.4.18-9 2.81-9.58zm10.21-2.81l-.29.08c-2.51.58-5.36-2.41-6.55-6.76l5.27.37 1.57 6.31zm-10.09 25.25c8.62 0 8.62 16.12 0 16.12a8 8 0 0 1-3.06-.6l-3.65-11.92a8.05 8.05 0 0 1 6.71-3.6z" fill="#0095da" fill-rule="evenodd"/><path fill="#d3691b" fill-rule="evenodd" d="M120.07 99.69l7.21 22.57 17.47-9.71-4.06-16.32-20.62 3.46z"/><path d="M112.31 70.34a8.06 8.06 0 0 1-13.93-5.53v-.53l10.46-5.48 3.45 11.54zM123.57 108h-.35a8.06 8.06 0 0 1-4.12-15l4.47 15zm-4.42 11.73a8.06 8.06 0 1 1-8.06 8.06 8.06 8.06 0 0 1 8.06-8.06zM91 136.22a8.06 8.06 0 1 1-3.72 15.21l-4-9.34a8.07 8.07 0 0 1 7.72-5.87zm-3.61-27.52a8.06 8.06 0 1 1-8.06 8.06 8.06 8.06 0 0 1 8.06-8.06zm-17.1-12.87a8.06 8.06 0 1 1 0 16.12h-.09l-5.84-13.51a8 8 0 0 1 5.93-2.61zm32.89-15.31a8.06 8.06 0 1 1-8.06 8.06 8.06 8.06 0 0 1 8.06-8.06zM77 75.48a8.06 8.06 0 1 1-13.28 7z" fill="#8ed8f8" fill-rule="evenodd"/><path d="M74 77.06l18.67-9.78 26.24 73.37a115.56 115.56 0 0 1-17.13 8.84z" fill="#f7941d" fill-rule="evenodd"/><path fill="#f7941d" fill-rule="evenodd" d="M121.02 99.53l6.71 22.47-45.12 18.68-8.4-19.43 46.81-21.72z"/><ellipse cx="97.7" cy="122.19" rx="4.63" ry="4.34" transform="rotate(-21.62 97.715 122.2)" fill="#e6be91"/><ellipse cx="71.02" cy="161.74" rx="4.63" ry="4.34" transform="rotate(-21.62 71.029 161.751)" fill="#e6be91"/><path d="M83.56 139.95l9.15-20.14 8.42 6.32-9.94 14.22 21.3 4c-11.74 6.34-22.41 9.48-27.36 10.18l-1.51-1.88L74 166.16l-5.68-8z" fill="#d3e173" fill-rule="evenodd"/><ellipse cx="70.63" cy="134.45" rx="14.17" ry="16.05" transform="rotate(-21.6 70.597 133.843)" fill="#e6be91"/><path d="M77 120.94c-3.73-2.36-8.36-3.37-12.46-1.75-7.27 2.88-10.74 12.39-7.47 20.63a17.6 17.6 0 0 0 7.16 8.18c1.84-5 2.78-11.14-.24-16.59 5.71-1.79 10.83-5.75 13.01-10.47z" fill="#a25641" fill-rule="evenodd"/><path d="M73 120.23s1.2-12.32 7-16.23a21.46 21.46 0 0 0-11.59-5c-1.27 6.75.17 14.29 3.08 21.51z" fill="#a25641" fill-rule="evenodd"/><path d="M62.56 144.16s-5.17 11.25-2.11 17.55c-6 1.88-8.73.79-12.54-1.51 2.3-6.47 7.34-12.26 13.5-17z" fill="#a25641" fill-rule="evenodd"/><path d="M76.88 143.15s4.57-1.22 2.53-7.15l1.19-.41c2.48 7.21-3.37 8.77-3.38 8.77z" fill="#231f20"/><circle cx="70.23" cy="141.46" r="2.91" transform="rotate(-23.32 70.256 141.485)" fill="#485e88"/><circle cx="74.3" cy="132.1" r="2.91" transform="rotate(-23.32 74.31 132.117)" fill="#485e88"/></g></g></svg>