<svg xmlns="http://www.w3.org/2000/svg" viewBox="0 0 288 288"><title>Depositphotos_65000121_08</title><g data-name="Layer 2"><g data-name="Layer 1"><g data-name="Layer 2"><g data-name="Layer 1-2"><path fill="#6d6e71" d="M178.5 178.5H128v-5h45.5v-59h-59V160h-5v-50.5h69v69z"/><path fill="#6d6e71" d="M194.5 194.5h-101V112h5v77.5h91v-91H112v-5h82.5v101z"/><path fill="#6d6e71" d="M210.5 210.5h-133v-133H192v5H82.5v123h123V96h5v114.5z"/><path fill="#6d6e71" d="M208 226.5H61.5v-165h165V208h-5V66.5h-155v155H208v5z"/><path fill="#6d6e71" d="M242.5 242.5H64v-5h173.5v-187h-187V224h-5V45.5h197v197z"/><path fill="#fdeb65" d="M256 256h16v16h-16z"/><path d="M274.5 274.5h-21v-21h21zm-16-5h11v-11h-11z" fill="#6d6e71"/><path fill="#fdeb65" d="M256 16h16v16h-16z"/><path d="M274.5 34.5h-21v-21h21zm-16-5h11v-11h-11z" fill="#6d6e71"/><path fill="#fdeb65" d="M16 16h16v16H16z"/><path d="M34.5 34.5h-21v-21h21zm-16-5h11v-11h-11z" fill="#6d6e71"/><path fill="#fdeb65" d="M16 256h16v16H16z"/><path d="M34.5 274.5h-21v-21h21zm-16-5h11v-11h-11z" fill="#6d6e71"/><path fill="#6d6e71" d="M256 141.5h32v5h-32z"/><path fill="#6d6e71" d="M0 141.5h32v5H0z"/><path fill="#6d6e71" d="M141.5 0h5v32h-5z"/><path fill="#6d6e71" d="M141.5 256h5v32h-5z"/><path fill="#fff4e9" d="M128 128h32v32h-32z"/><path d="M162.5 162.5h-37v-37h37zm-32-5h27v-27h-27z" fill="#6d6e71"/></g></g></g></g></svg>