<svg xmlns="http://www.w3.org/2000/svg" viewBox="0 0 58 64"><title>Depositphotos_72038433_04</title><g data-name="Layer 2"><g data-name="Layer 1"><g data-name="Layer 2"><g data-name="Layer 1-2"><path fill="#fff" d="M1 19h56v30H1z"/><path d="M58 50H0V18h58zM2 48h54V20H2z" fill="#808285"/><path fill="#fff" d="M45 1h8v8h-8z"/><path fill="#808285" d="M44 9h2v44h-2z"/><path fill="#808285" d="M52 9h2v44h-2z"/><path d="M54 10H44V0h10zm-8-2h6V2h-6z" fill="#808285"/><path fill="#89d4f0" d="M53 54v4l-4 4-4-4v-4h8z"/><path d="M49 63.41l-5-5V52h10v6.41zm-3-5.83l3 3 3-3V54h-6z" fill="#808285"/><path fill="#808285" d="M48 62h2v2h-2z"/><path fill="#89d4f0" d="M46 10h6v30h-6z"/><path fill="#fed9b5" d="M46 42h6v10h-6z"/><path fill="#808285" d="M46 40h6v2h-6z"/><path fill="#808285" d="M48 44h2v2h-2z"/><path fill="#808285" d="M48 48h2v2h-2z"/><path fill="#808285" d="M42 24h-2V8h4v2h-2v14z"/><path fill="#fed9b5" d="M4 22h14v24H4z"/><path d="M11 41a4 4 0 0 1-4-4h2a2 2 0 0 0 4 0c0-.65-1.42-1.65-2.41-2.09C10 34.64 7 33.19 7 31a4 4 0 0 1 8 0h-2a2 2 0 0 0-4 0c0 .65 1.42 1.65 2.41 2.09C12 33.36 15 34.81 15 37a4 4 0 0 1-4 4z" fill="#808285"/><path fill="#808285" d="M10 25h2v2h-2z"/><path fill="#808285" d="M10 41h2v2h-2z"/><path fill="#808285" d="M20 22h10v2H20z"/><path fill="#808285" d="M20 28h22v2H20z"/><path fill="#808285" d="M20 32h22v2H20z"/><path fill="#808285" d="M20 36h22v2H20z"/><path fill="#808285" d="M20 44h4v2h-4z"/><path fill="#808285" d="M26 44h8v2h-8z"/></g></g></g></g></svg>