<svg xmlns="http://www.w3.org/2000/svg" viewBox="-0.384122371673584 -4.76837158203125e-7 67.98412322998047 125.83554077148438"><title>Depositphotos_108106520_47</title><g data-name="Layer 2"><g data-name="Layer 1"><g data-name="Layer 2"><g data-name="Icon Set"><path d="M7.69 41.68V80.4h26.64a12.45 12.45 0 0 0-10.82-7.55s-9.69-6-6.63-9.85c0 0 3.65-3.38 10.07-2.38l10.68 3.94 13.18 13.26V41.68z" fill="#faab64" data-name="Group"/><path d="M35.49 91.25H11.05a4.87 4.87 0 0 1-4.86-4.86V4.86A4.87 4.87 0 0 1 11.05 0h36.4a4.87 4.87 0 0 1 4.86 4.86v70.9a1.5 1.5 0 0 1-3 0V4.86A1.86 1.86 0 0 0 47.45 3h-36.4a1.86 1.86 0 0 0-1.86 1.86v81.53a1.86 1.86 0 0 0 1.86 1.86h24.44a1.5 1.5 0 0 1 0 3z" fill="#fff" data-name="Group 2"/><path d="M50.81 12.36H7.69a1.5 1.5 0 0 1 0-3h43.12a1.5 1.5 0 0 1 0 3z" fill="#fff" data-name="Group 3"/><path d="M34.33 81.9H7.69a1.5 1.5 0 1 1 0-3h26.64a1.5 1.5 0 0 1 0 3z" fill="#fff" data-name="Group 4"/><path d="M34.9 7.72H23.59a1.5 1.5 0 0 1 0-3H34.9a1.5 1.5 0 0 1 0 3z" fill="#fff" data-name="Group 5"/><path d="M34.11 125.83a1.5 1.5 0 0 1-1.5-1.5v-.28a79.45 79.45 0 0 0-5.32-29c-.68-1.74-1.36-3.3-2-4.62A1.5 1.5 0 0 1 28 89.08c.71 1.41 1.44 3.06 2.15 4.89a82.44 82.44 0 0 1 5.53 30.09v.28a1.5 1.5 0 0 1-1.51 1.49z" fill="#fff" data-name="Group 6"/><path d="M64.73 125.83a1.5 1.5 0 0 1-1.5-1.5v-4.06c0-4.5.12-9 .37-13.27.59-10.41 1-23 1-25-.27-23.33-14.52-33.86-14.66-34a1.5 1.5 0 0 1 1.75-2.44C52.32 46 67.31 57 67.6 81.93c0 2.07-.42 14.78-1 25.24-.24 4.25-.36 8.65-.36 13.1v4.06a1.5 1.5 0 0 1-1.5 1.5z" fill="#fff" data-name="Group 7"/><path d="M48.84 111.9a1.48 1.48 0 0 1-.47-.08c-9.87-3.28-13-11.59-13.93-16.25a21.89 21.89 0 0 1-.21-7.25 12 12 0 0 0-3.16-10 11.74 11.74 0 0 0-5.71-3.23c-2.92-.75-8.09-2.75-9.9-7.76A6.11 6.11 0 0 1 16.7 61c1.12-1.17 3.24-2.43 7-1.83a30.32 30.32 0 0 0 4.79.42 15.64 15.64 0 0 1 10.15 3.72l22.13 18.9a1.5 1.5 0 1 1-1.94 2.29L36.66 65.7a12.61 12.61 0 0 0-8.16-3 33.44 33.44 0 0 1-5.31-.46c-2-.31-3.42 0-4.33 1a3.09 3.09 0 0 0-.58 3.18c1.34 3.71 5.47 5.27 7.82 5.87a14.72 14.72 0 0 1 7.16 4.08 15 15 0 0 1 3.94 12.39 19 19 0 0 0 .17 6.24c1 4.92 3.92 11.34 11.94 14a1.5 1.5 0 0 1-.47 2.92z" fill="#fff" data-name="Group 8"/><path d="M19.46 69.39a5.76 5.76 0 0 1-3.55-1.33 1.5 1.5 0 0 1 1.94-2.29 2.45 2.45 0 0 0 2.24.48 1.62 1.62 0 0 0 .8-.9 10.37 10.37 0 0 1 5-5.57 1.5 1.5 0 0 1 1.31 2.7 7.37 7.37 0 0 0-3.57 4A4.58 4.58 0 0 1 21.34 69a4.48 4.48 0 0 1-1.88.39z" fill="#fff" data-name="Group 9"/><path d="M6.17 56.43a9 9 0 0 1-1.51-.12 5.53 5.53 0 0 1-4.47-4.18 5.64 5.64 0 0 1 2-5.89l4.58-3.54a1.5 1.5 0 0 1 1.84 2.37l-4.55 3.54a2.68 2.68 0 0 0-1 2.8 2.54 2.54 0 0 0 2.07 1.94 7.26 7.26 0 0 0 2.29 0 1.52 1.52 0 0 1 .45 3 11.49 11.49 0 0 1-1.7.08z" fill="#fff" data-name="Group 10"/><path d="M6.17 68.15a8.51 8.51 0 0 1-2-.22 5.43 5.43 0 0 1-4-4.19A5.71 5.71 0 0 1 2.2 58l4.57-3.55a1.5 1.5 0 0 1 1.84 2.37L4 60.34a2.74 2.74 0 0 0-1 2.76A2.42 2.42 0 0 0 4.88 65a6.81 6.81 0 0 0 2.57 0 1.52 1.52 0 0 1 .45 3 11.44 11.44 0 0 1-1.73.15z" fill="#fff" data-name="Group 11"/><path d="M6.17 79.86a8.81 8.81 0 0 1-1.52-.13 5.53 5.53 0 0 1-4.46-4.16 5.64 5.64 0 0 1 2-5.89l4.55-3.53a1.5 1.5 0 1 1 1.84 2.37L4.06 72a2.68 2.68 0 0 0-1 2.8 2.53 2.53 0 0 0 2.07 1.94 7.28 7.28 0 0 0 2.29 0 1.52 1.52 0 0 1 .45 3 11.58 11.58 0 0 1-1.7.12z" fill="#fff" data-name="Group 12"/><path d="M58.46 125.83a1.5 1.5 0 0 1-1.5-1.5v-27a1.5 1.5 0 0 1 3 0v27a1.5 1.5 0 0 1-1.5 1.5z" fill="#fff" data-name="Group 13"/></g></g></g></g></svg>