<svg xmlns="http://www.w3.org/2000/svg" viewBox="-0.6010026931762695 -0.29114532470703125 271.7320251464844 168.12673950195312"><title>Depositphotos_107773518_08</title><g data-name="Layer 2" style="isolation:isolate"><path d="M112.67 93.54s-17.24-1-22.05 10.63c-4.39 10.61-4.44 37.57 2.13 55.76a4.62 4.62 0 0 1-3.38 6.12 4.61 4.61 0 0 1-5.39-3.3c-2.56-9.48-7.87-33.81-3.18-59 6-32.28 28.07-30.27 28.07-30.27z" fill="#fff"/><path d="M108.11 73.47h.76l3.81 20h-1c-3.78 0-16.92.73-21 10.65-4.39 10.61-4.44 37.57 2.13 55.76a4.62 4.62 0 0 1-3.38 6.12 4.61 4.61 0 0 1-5.39-3.3c-2.56-9.48-7.87-33.81-3.18-59 5.35-28.71 23.39-30.3 27.31-30.3m0-1.19c-3.78 0-22.93 1.51-28.48 31.27-4.74 25.46.66 50.1 3.2 59.51a5.8 5.8 0 0 0 10.65 1.32 5.86 5.86 0 0 0 .39-4.85c-6.42-17.78-6.42-44.57-2.15-54.9 3.81-9.2 16.22-9.91 19.93-9.91h1l1.52.09-.28-1.49-3.81-20-.17-.88-.89-.09h-.86z" fill="#b4bcd9"/><path d="M112.67 93.54s-17.24-1-22.05 10.63c-4.39 10.61-4.44 37.57 2.13 55.76a4.62 4.62 0 0 1-3.38 6.12 4.61 4.61 0 0 1-5.39-3.3c-2.56-9.48-7.87-33.81-3.18-59 6-32.28 28.07-30.27 28.07-30.27z" fill="#fff"/><path d="M108.11 73.47h.76l3.81 20h-1c-3.78 0-16.92.73-21 10.65-4.39 10.61-4.44 37.57 2.13 55.76a4.62 4.62 0 0 1-3.38 6.12 4.61 4.61 0 0 1-5.39-3.3c-2.56-9.48-7.87-33.81-3.18-59 5.35-28.71 23.39-30.3 27.31-30.3m0-1.19c-3.78 0-22.93 1.51-28.48 31.27-4.74 25.46.66 50.1 3.2 59.51a5.8 5.8 0 0 0 10.65 1.32 5.86 5.86 0 0 0 .39-4.85c-6.42-17.78-6.42-44.57-2.15-54.9 3.81-9.2 16.22-9.91 19.93-9.91h1l1.52.09-.28-1.49-3.81-20-.17-.88-.89-.09h-.86z" fill="#b4bcd9"/><path d="M84.41 113.19c-.57 19 3.39 41.24 5.74 52.61a4.62 4.62 0 0 0 2.6-5.87c-6.57-18.2-6.52-45.15-2.13-55.76 4.81-11.63 22.05-10.63 22.05-10.63l-2.17-11.42-6.05-.41s-19.24 4.61-20.04 31.48z" fill="#f1f2f2"/><g style="mix-blend-mode:multiply" fill="#f24c58"><path d="M79.22 116.41q-.22 3.16-.27 6.25l8.6 5.24c0-1.87 0-3.7.05-5.48z"/><path d="M87.71 132.62l-8.77-6.28c0 2.21.1 4.36.22 6.47l9 5.48c-.16-1.9-.35-3.79-.45-5.67z"/></g><path d="M156.24 93.54s17.24-1 22.05 10.63c4.39 10.61 4.44 37.57-2.13 55.76a4.62 4.62 0 0 0 3.38 6.12 4.61 4.61 0 0 0 5.39-3.3c2.56-9.48 7.87-33.81 3.18-59-6-32.28-28.07-30.27-28.07-30.27z" fill="#fff"/><path d="M160.81 73.47c3.92 0 22 1.59 27.31 30.3 4.69 25.18-.62 49.5-3.18 59a4.61 4.61 0 1 1-8.77-2.82c6.57-18.2 6.52-45.15 2.13-55.76-4.1-9.92-17.25-10.65-21-10.65h-1l3.81-20h.76m0-1.19h-.86l-.89.08-.17.88-3.81 20-.28 1.49 1.52-.09h1c3.71 0 16.12.71 19.93 9.91 4.28 10.33 4.27 37.13-2.15 54.9a5.86 5.86 0 0 0 .39 4.85 5.77 5.77 0 0 0 3.87 2.84 5.8 5.8 0 0 0 6.78-4.16c2.54-9.41 7.95-34 3.2-59.51-5.55-29.76-24.7-31.27-28.48-31.27z" fill="#b4bcd9"/><path d="M156.24 93.54s17.24-1 22.05 10.63c4.39 10.61 4.44 37.57-2.13 55.76a4.62 4.62 0 0 0 3.38 6.12 4.61 4.61 0 0 0 5.39-3.3c2.56-9.48 7.87-33.81 3.18-59-6-32.28-28.07-30.27-28.07-30.27z" fill="#fff"/><path d="M160.81 73.47c3.92 0 22 1.59 27.31 30.3 4.69 25.18-.62 49.5-3.18 59a4.61 4.61 0 1 1-8.77-2.82c6.57-18.2 6.52-45.15 2.13-55.76-4.1-9.92-17.25-10.65-21-10.65h-1l3.81-20h.76m0-1.19h-.86l-.89.08-.17.88-3.81 20-.28 1.49 1.52-.09h1c3.71 0 16.12.71 19.93 9.91 4.28 10.33 4.27 37.13-2.15 54.9a5.86 5.86 0 0 0 .39 4.85 5.77 5.77 0 0 0 3.87 2.84 5.8 5.8 0 0 0 6.78-4.16c2.54-9.41 7.95-34 3.2-59.51-5.55-29.76-24.7-31.27-28.48-31.27z" fill="#b4bcd9"/><path d="M184.51 113.19c.57 19-3.39 41.24-5.74 52.61a4.62 4.62 0 0 1-2.6-5.87c6.57-18.2 6.52-45.15 2.13-55.76-4.81-11.63-22.05-10.63-22.05-10.63l2.17-11.42 6.05-.41s19.24 4.61 20.04 31.48z" fill="#f1f2f2"/><g style="mix-blend-mode:multiply" fill="#f24c58"><path d="M189.7 116.41q.22 3.16.27 6.25l-8.6 5.24c0-1.87 0-3.7-.05-5.48z"/><path d="M181.2 132.62l8.77-6.28c0 2.21-.1 4.36-.22 6.47l-9 5.48c.25-1.9.35-3.79.45-5.67z"/></g><path d="M227.12 45.36a14.2 14.2 0 0 0-6.06-.19c-12.67 2.08-59.84-.43-72.5-27.41 0 0-2.06-6.35-15.89-6.35h-1.19a20.53 20.53 0 0 0-16.16 9.82C100.61 45 59.48 47.15 47.4 45.17a14.2 14.2 0 0 0-6.08.19 13.23 13.23 0 0 0-6.89 21l.52.65a13.21 13.21 0 0 0 10.19 5c10.19.1 31 .8 47.69 4.61 16.24 3.71 23 29.39 25.54 44.15a12.57 12.57 0 0 0 12.4 10.4h6.93a12.57 12.57 0 0 0 12.4-10.4c2.56-14.77 9.3-40.44 25.54-44.15 16.65-3.81 37.44-4.51 47.65-4.61a13.26 13.26 0 0 0 10.23-5l.52-.65a13.23 13.23 0 0 0-6.92-21z" fill="#fff"/><path d="M132.67 11.41c13.83 0 15.89 6.35 15.89 6.35 10.56 22.49 45.09 28 63.63 28a58.22 58.22 0 0 0 8.88-.56 17.12 17.12 0 0 1 2.76-.24 12.42 12.42 0 0 1 3.3.42 13.23 13.23 0 0 1 6.91 21l-.52.65a13.26 13.26 0 0 1-10.23 5c-10.21.1-31 .81-47.65 4.61-16.24 3.71-23 29.39-25.54 44.15a12.57 12.57 0 0 1-12.4 10.4h-6.93a12.57 12.57 0 0 1-12.4-10.4c-2.56-14.77-9.3-40.44-25.54-44.15-16.68-3.82-37.51-4.52-47.7-4.64a13.21 13.21 0 0 1-10.19-5l-.52-.65a13.23 13.23 0 0 1 6.89-21 12.43 12.43 0 0 1 3.31-.43 17.1 17.1 0 0 1 2.76.24 56.37 56.37 0 0 0 8.67.56c16.95 0 47.11-4.91 59.26-24.47a20.53 20.53 0 0 1 16.16-9.82h1.19m0-1.19h-1.25a21.68 21.68 0 0 0-17.11 10.38c-11 17.64-38.23 23.9-58.25 23.9a55.82 55.82 0 0 1-8.46-.52 18.34 18.34 0 0 0-3-.25 13.66 13.66 0 0 0-3.63.47 14.42 14.42 0 0 0-7.46 22.92l.52.65a14.35 14.35 0 0 0 11.1 5.41c10.68.1 31 .84 47.44 4.58 15.54 3.55 22.11 28.59 24.64 43.2a13.73 13.73 0 0 0 13.57 11.38h6.93A13.73 13.73 0 0 0 151.26 121c2.53-14.61 9.1-39.65 24.64-43.2 16.38-3.74 36.73-4.48 47.4-4.58a14.39 14.39 0 0 0 11.14-5.41l.52-.65a14.42 14.42 0 0 0-7.52-22.93 13.65 13.65 0 0 0-3.61-.47 18.37 18.37 0 0 0-3 .25 57.6 57.6 0 0 1-8.68.55c-5.09 0-50-.77-62.53-27.24-.33-.88-3.19-7.08-17-7.08z" fill="#b4bcd9"/><path d="M233.51 67.05l.52-.65a13.12 13.12 0 0 0 2.58-5.4c-3.87 1.55-10.8 3.54-20.94 3.54-16.64 0-49.93-2.38-58.25 9.21s-11.29 46.36-11.29 46.36-2.43 6.84-12.36 5.65v.24h-.42v-.24c-9.93 1.19-12.36-5.65-12.36-5.65s-3-34.77-11.29-46.36-41.61-9.21-58.25-9.21a58.43 58.43 0 0 1-19.45-3 13.14 13.14 0 0 0 2.44 4.86l.52.65a13.21 13.21 0 0 0 10.19 5c10.19.1 31 .8 47.69 4.61 16.24 3.71 23 29.39 25.54 44.15a12.57 12.57 0 0 0 12.4 10.4h6.93a12.57 12.57 0 0 0 12.4-10.4c2.56-14.77 9.3-40.44 25.54-44.15 16.65-3.81 37.44-4.51 47.65-4.61a13.26 13.26 0 0 0 10.21-5z" fill="#f1f2f2"/><ellipse cx="134.76" cy="52.27" rx="13.95" ry="8.27" fill="#f1f2f2"/><ellipse cx="134.76" cy="50.54" rx="11.86" ry="7.03" fill="#fff"/><path d="M134.76 44.7c5.79 0 10.68 2.68 10.68 5.85s-4.89 5.85-10.68 5.85-10.68-2.68-10.68-5.85 4.92-5.85 10.68-5.85m0-1.19c-6.55 0-11.86 3.15-11.86 7s5.31 7 11.86 7 11.86-3.15 11.86-7-5.31-7-11.86-7z" fill="#b4bcd9"/><ellipse cx="48.69" cy="54.53" rx="10.88" ry="6.45" fill="#f1f2f2"/><ellipse cx="48.69" cy="53.18" rx="9.26" ry="5.49" fill="#fff"/><path d="M48.69 48.88c4.83 0 8.07 2.22 8.07 4.3s-3.24 4.3-8.07 4.3-8.07-2.22-8.07-4.3 3.24-4.3 8.07-4.3m0-1.19c-5.11 0-9.26 2.46-9.26 5.49s4.15 5.49 9.26 5.49 9.26-2.46 9.26-5.49-4.15-5.49-9.26-5.49z" fill="#b4bcd9"/><ellipse cx="220.5" cy="54.53" rx="10.88" ry="6.45" fill="#f1f2f2"/><ellipse cx="220.5" cy="53.18" rx="9.26" ry="5.49" fill="#fff"/><path d="M220.5 48.88c4.83 0 8.07 2.22 8.07 4.3s-3.24 4.3-8.07 4.3-8.07-2.22-8.07-4.3 3.24-4.3 8.07-4.3m0-1.19c-5.11 0-9.26 2.46-9.26 5.49s4.15 5.49 9.26 5.49 9.26-2.46 9.26-5.49-4.15-5.49-9.26-5.49z" fill="#b4bcd9"/><ellipse cx="133.4" cy="20.17" rx="10.88" ry="6.45" fill="#f1f2f2"/><ellipse cx="133.4" cy="18.82" rx="9.26" ry="5.49" fill="#fff"/><path d="M133.4 14.52c4.83 0 8.07 2.22 8.07 4.3s-3.24 4.3-8.07 4.3-8.07-2.22-8.07-4.3 3.24-4.3 8.07-4.3m0-1.19c-5.11 0-9.26 2.46-9.26 5.49s4.15 5.49 9.26 5.49 9.26-2.46 9.26-5.49-4.15-5.49-9.26-5.49z" fill="#b4bcd9"/><ellipse cx="133.4" cy="117.47" rx="10.88" ry="6.45" fill="#f1f2f2"/><ellipse cx="133.4" cy="116.12" rx="9.26" ry="5.49" fill="#fff"/><path d="M133.4 111.82c4.83 0 8.07 2.22 8.07 4.3s-3.24 4.3-8.07 4.3-8.07-2.22-8.07-4.3 3.24-4.3 8.07-4.3m0-1.19c-5.11 0-9.26 2.46-9.26 5.49s4.15 5.49 9.26 5.49 9.26-2.46 9.26-5.49-4.15-5.49-9.26-5.49z" fill="#b4bcd9"/><path d="M43.79 40.49a4.76 4.76 0 0 0 4.76 4.76 4.76 4.76 0 0 0 4.76-4.76v10.2a4.76 4.76 0 0 1-4.76 4.76 4.76 4.76 0 0 1-4.76-4.76z" fill="#b4bcd9"/><path d="M49.38 45.17v10.2a4.76 4.76 0 0 0 3.93-4.68v-10.2a4.76 4.76 0 0 1-3.93 4.68z" fill="#7884b3"/><path d="M44.84 53.64a4.74 4.74 0 0 0 2.41 1.61V45a4.74 4.74 0 0 1-2.41-1.61z" fill="#dce1f2"/><circle cx="48.41" cy="40.93" r="4.96" fill="#fff"/><path d="M48.41 37.16a3.77 3.77 0 1 1-3.77 3.77 3.78 3.78 0 0 1 3.77-3.77m0-1.19a5 5 0 1 0 5 5 5 5 0 0 0-5-5z" fill="#b4bcd9"/><path d="M17.13 36l-9.54-1.79A6.39 6.39 0 0 0 1.87 36a6.39 6.39 0 0 0 0 9 6.39 6.39 0 0 0 5.72 1.76L17.13 45a114.88 114.88 0 0 1 14-1.78L49.63 42v-3l-18.52-1.19A114.86 114.86 0 0 1 17.13 36z" fill="#fff"/><path d="M6.39 35.29a5.22 5.22 0 0 1 1 .09l9.54 1.82A116.49 116.49 0 0 0 31 39l17.41 1.14v.7L31 42a116.51 116.51 0 0 0-14.12 1.8l-9.51 1.8a5.2 5.2 0 1 1-1-10.31m0-1.19A6.39 6.39 0 0 0 1.87 45a6.39 6.39 0 0 0 5.72 1.76L17.13 45a114.88 114.88 0 0 1 14-1.78L49.63 42v-3l-18.52-1.19a114.86 114.86 0 0 1-14-1.78l-9.52-1.82a6.39 6.39 0 0 0-1.2-.11z" fill="#b4bcd9"/><path d="M81 36l9.54-1.82A6.39 6.39 0 0 1 96.3 36a6.39 6.39 0 0 1 0 9 6.39 6.39 0 0 1-5.72 1.76L81 45a114.88 114.88 0 0 0-14-1.78L48.55 42v-3l18.52-1.21A114.86 114.86 0 0 0 81 36z" fill="#fff"/><path d="M91.79 35.29a5.2 5.2 0 0 1 3.68 8.88 5.2 5.2 0 0 1-4.65 1.43l-9.54-1.82A116.51 116.51 0 0 0 67.15 42l-17.41-1.16v-.7L67.15 39a116.49 116.49 0 0 0 14.12-1.8l9.54-1.82a5.22 5.22 0 0 1 1-.09m0-1.19a6.39 6.39 0 0 0-1.2.11L81 36a114.86 114.86 0 0 1-14 1.78L48.55 39v3l18.52 1.21A114.88 114.88 0 0 1 81 45l9.54 1.82A6.39 6.39 0 0 0 96.3 45a6.39 6.39 0 0 0-4.51-10.9z" fill="#b4bcd9"/><path d="M46.13 38a2.5 2.5 0 0 0 2.5 2.5 2.5 2.5 0 0 0 2.5-2.5v2.23a2.5 2.5 0 0 1-2.5 2.5 2.5 2.5 0 0 1-2.5-2.5z" fill="#b4bcd9"/><path d="M49.06 40.44v2.23a2.5 2.5 0 0 0 2.06-2.46V38a2.5 2.5 0 0 1-2.06 2.44z" fill="#7884b3"/><path d="M46.68 41.77a2.49 2.49 0 0 0 1.27.85v-2.24a2.48 2.48 0 0 1-1.27-.85z" fill="#dce1f2"/><circle cx="48.55" cy="38.22" r="2.6" fill="#fff"/><path d="M48.55 36.24a2 2 0 1 1-2 2 2 2 0 0 1 2-2m0-.62a2.6 2.6 0 1 0 2.6 2.6 2.6 2.6 0 0 0-2.6-2.6z" fill="#b4bcd9"/><path d="M216.14 40.49a4.76 4.76 0 0 0 4.76 4.76 4.76 4.76 0 0 0 4.76-4.76v10.2a4.76 4.76 0 0 1-4.76 4.76 4.76 4.76 0 0 1-4.76-4.76z" fill="#b4bcd9"/><path d="M221.73 45.17v10.2a4.76 4.76 0 0 0 3.93-4.68v-10.2a4.76 4.76 0 0 1-3.93 4.68z" fill="#7884b3"/><path d="M217.19 53.64a4.74 4.74 0 0 0 2.41 1.61V45a4.74 4.74 0 0 1-2.41-1.61z" fill="#dce1f2"/><circle cx="220.76" cy="40.93" r="4.96" fill="#fff"/><path d="M220.76 37.16a3.77 3.77 0 1 1-3.76 3.77 3.78 3.78 0 0 1 3.77-3.77m0-1.19a5 5 0 1 0 5 5 5 5 0 0 0-5-5z" fill="#b4bcd9"/><path d="M189.49 36l-9.54-1.82a6.39 6.39 0 0 0-5.72 1.82 6.39 6.39 0 0 0 0 9 6.39 6.39 0 0 0 5.72 1.76l9.54-1.76a114.88 114.88 0 0 1 14-1.78L222 42v-3l-18.52-1.21A114.86 114.86 0 0 1 189.49 36z" fill="#fff"/><path d="M178.75 35.29a5.22 5.22 0 0 1 1 .09l9.54 1.82a116.49 116.49 0 0 0 14.09 1.8l17.41 1.14v.7L203.38 42a116.51 116.51 0 0 0-14.12 1.8l-9.54 1.82a5.2 5.2 0 0 1-4.65-8.79 5.17 5.17 0 0 1 3.68-1.52m0-1.19A6.39 6.39 0 0 0 174.23 45a6.39 6.39 0 0 0 5.72 1.76l9.54-1.76a114.88 114.88 0 0 1 14-1.78L222 42v-3l-18.52-1.21a114.86 114.86 0 0 1-14-1.78l-9.54-1.82a6.39 6.39 0 0 0-1.2-.11z" fill="#b4bcd9"/><path d="M253.4 36l9.54-1.82a6.39 6.39 0 0 1 5.72 1.82 6.39 6.39 0 0 1 0 9 6.39 6.39 0 0 1-5.72 1.76L253.4 45a114.88 114.88 0 0 0-14-1.78L220.9 42v-3l18.52-1.21A114.86 114.86 0 0 0 253.4 36z" fill="#fff"/><path d="M264.14 35.29a5.2 5.2 0 0 1 3.68 8.88 5.2 5.2 0 0 1-4.65 1.43l-9.54-1.82A116.51 116.51 0 0 0 239.5 42l-17.41-1.14v-.7L239.5 39a116.5 116.5 0 0 0 14.12-1.8l9.54-1.82a5.22 5.22 0 0 1 1-.09m0-1.19a6.39 6.39 0 0 0-1.2.11L253.4 36a114.86 114.86 0 0 1-14 1.78L220.9 39v3l18.52 1.21a114.88 114.88 0 0 1 14 1.78l9.54 1.82a6.39 6.39 0 0 0 5.7-1.81 6.39 6.39 0 0 0-4.52-10.91z" fill="#b4bcd9"/><path d="M218.48 38a2.5 2.5 0 0 0 2.5 2.5 2.5 2.5 0 0 0 2.5-2.5v2.23a2.5 2.5 0 0 1-2.5 2.5 2.5 2.5 0 0 1-2.5-2.5z" fill="#b4bcd9"/><path d="M221.42 40.44v2.23a2.5 2.5 0 0 0 2.06-2.46V38a2.5 2.5 0 0 1-2.06 2.44z" fill="#7884b3"/><path d="M219 41.77a2.49 2.49 0 0 0 1.27.85v-2.24a2.48 2.48 0 0 1-1.27-.85z" fill="#dce1f2"/><circle cx="220.9" cy="38.22" r="2.6" fill="#fff"/><path d="M220.9 36.24a2 2 0 1 1-2 2 2 2 0 0 1 2-2m0-.62a2.6 2.6 0 1 0 2.6 2.6 2.6 2.6 0 0 0-2.6-2.6z" fill="#b4bcd9"/><path d="M128.93 6.39a4.76 4.76 0 0 0 4.76 4.76 4.76 4.76 0 0 0 4.76-4.76V16.6a4.76 4.76 0 0 1-4.76 4.76 4.76 4.76 0 0 1-4.76-4.76z" fill="#b4bcd9"/><path d="M134.52 11.07v10.2a4.76 4.76 0 0 0 3.93-4.68V6.39a4.76 4.76 0 0 1-3.93 4.68z" fill="#7884b3"/><path d="M130 19.54a4.74 4.74 0 0 0 2.41 1.61V11A4.74 4.74 0 0 1 130 9.34z" fill="#dce1f2"/><circle cx="133.55" cy="6.83" r="4.96" fill="#fff"/><path d="M133.55 3.06a3.77 3.77 0 1 1-3.77 3.77 3.78 3.78 0 0 1 3.77-3.77m0-1.19a5 5 0 1 0 5 5 5 5 0 0 0-5-5z" fill="#b4bcd9"/><path d="M102.27 1.93L92.73.11A6.39 6.39 0 0 0 87 1.87a6.39 6.39 0 0 0 0 9 6.39 6.39 0 0 0 5.72 1.76l9.54-1.82a114.86 114.86 0 0 1 14-1.78l18.52-1.21V4.93l-18.53-1.22a114.86 114.86 0 0 1-13.98-1.78z" fill="#fff"/><path d="M91.53 1.19a5.21 5.21 0 0 1 1 .09L102 3.1a116.49 116.49 0 0 0 14.12 1.8L133.58 6v.7l-17.41 1.19A116.49 116.49 0 0 0 102 9.69l-9.49 1.81a5.2 5.2 0 0 1-4.65-8.79 5.17 5.17 0 0 1 3.68-1.52m0-1.19A6.39 6.39 0 0 0 87 10.91a6.39 6.39 0 0 0 5.72 1.76l9.54-1.82a114.86 114.86 0 0 1 14-1.78l18.52-1.21V4.93l-18.53-1.22a114.86 114.86 0 0 1-14-1.78L92.73.11a6.39 6.39 0 0 0-1.2-.11z" fill="#b4bcd9"/><path d="M166.19 1.93l9.54-1.82a6.39 6.39 0 0 1 5.72 1.76 6.39 6.39 0 0 1 0 9 6.39 6.39 0 0 1-5.72 1.76l-9.54-1.82a114.86 114.86 0 0 0-14-1.78l-18.5-1.17V4.93l18.52-1.21a114.86 114.86 0 0 0 13.98-1.79z" fill="#fff"/><path d="M176.93 1.19a5.2 5.2 0 0 1 3.68 8.88A5.2 5.2 0 0 1 176 11.5l-9.54-1.82a116.5 116.5 0 0 0-14.12-1.8l-17.46-1.14V6l17.41-1.1a116.5 116.5 0 0 0 14.12-1.8L176 1.28a5.21 5.21 0 0 1 1-.09M177 0a6.39 6.39 0 0 0-1.2.11l-9.54 1.82a114.86 114.86 0 0 1-14 1.78l-18.57 1.22v2.93l18.52 1.21a114.86 114.86 0 0 1 14 1.78l9.54 1.82a6.39 6.39 0 0 0 5.72-1.76A6.39 6.39 0 0 0 176.93 0z" fill="#b4bcd9"/><path d="M131.27 3.89a2.5 2.5 0 0 0 2.5 2.5 2.5 2.5 0 0 0 2.5-2.5v2.23a2.5 2.5 0 0 1-2.5 2.5 2.5 2.5 0 0 1-2.5-2.5z" fill="#b4bcd9"/><path d="M134.2 6.35v2.23a2.5 2.5 0 0 0 2.06-2.46V3.89a2.5 2.5 0 0 1-2.06 2.46z" fill="#7884b3"/><path d="M131.82 7.67a2.49 2.49 0 0 0 1.27.85V6.28a2.49 2.49 0 0 1-1.27-.85z" fill="#dce1f2"/><circle cx="133.69" cy="4.12" r="2.6" fill="#fff"/><path d="M133.69 2.14a2 2 0 1 1-2 2 2 2 0 0 1 2-2m0-.62a2.6 2.6 0 1 0 2.6 2.6 2.6 2.6 0 0 0-2.6-2.6z" fill="#b4bcd9"/><path d="M128.93 103.87a4.76 4.76 0 0 0 4.76 4.76 4.76 4.76 0 0 0 4.76-4.76v10.2a4.76 4.76 0 0 1-4.76 4.76 4.76 4.76 0 0 1-4.76-4.76z" fill="#b4bcd9"/><path d="M134.52 108.54v10.2a4.76 4.76 0 0 0 3.93-4.68v-10.2a4.76 4.76 0 0 1-3.93 4.68z" fill="#7884b3"/><path d="M130 117a4.74 4.74 0 0 0 2.41 1.61v-10.2a4.74 4.74 0 0 1-2.41-1.61z" fill="#dce1f2"/><circle cx="133.55" cy="104.31" r="4.96" fill="#fff"/><path d="M133.55 100.53a3.77 3.77 0 1 1-3.77 3.77 3.78 3.78 0 0 1 3.77-3.77m0-1.19a5 5 0 1 0 5 5 5 5 0 0 0-5-5z" fill="#b4bcd9"/><path d="M102.27 99.4l-9.54-1.82A6.39 6.39 0 0 0 87 99.35a6.39 6.39 0 0 0 0 9 6.39 6.39 0 0 0 5.72 1.76l9.54-1.82a114.88 114.88 0 0 1 14-1.78l18.52-1.21v-2.9l-18.52-1.21a114.88 114.88 0 0 1-13.99-1.79z" fill="#fff"/><path d="M91.53 98.66a5.21 5.21 0 0 1 1 .09l9.54 1.82a116.49 116.49 0 0 0 14.12 1.8l17.41 1.14v.7l-17.41 1.14a116.49 116.49 0 0 0-14.12 1.8L92.51 109a5.2 5.2 0 0 1-4.65-8.79 5.17 5.17 0 0 1 3.68-1.52m0-1.19A6.39 6.39 0 0 0 87 108.38a6.39 6.39 0 0 0 5.72 1.76l9.54-1.82a114.88 114.88 0 0 1 14-1.78l18.52-1.21v-2.93l-18.52-1.21a114.88 114.88 0 0 1-14-1.78l-9.54-1.82a6.39 6.39 0 0 0-1.2-.11z" fill="#b4bcd9"/><path d="M166.19 99.4l9.54-1.82a6.39 6.39 0 0 1 5.72 1.76 6.39 6.39 0 0 1 0 9 6.39 6.39 0 0 1-5.72 1.76l-9.54-1.82a114.88 114.88 0 0 0-14-1.78l-18.52-1.21v-2.89l18.52-1.21a114.88 114.88 0 0 0 14-1.79z" fill="#fff"/><path d="M176.93 98.66a5.2 5.2 0 0 1 3.68 8.88A5.2 5.2 0 0 1 176 109l-9.54-1.82a116.5 116.5 0 0 0-14.12-1.8l-17.41-1.14v-.7l17.41-1.14a116.5 116.5 0 0 0 14.12-1.8l9.54-1.85a5.21 5.21 0 0 1 1-.09m0-1.19a6.39 6.39 0 0 0-1.2.11l-9.54 1.82a114.88 114.88 0 0 1-14 1.78l-18.52 1.21v2.93l18.52 1.21a114.88 114.88 0 0 1 14 1.78l9.54 1.82a6.39 6.39 0 0 0 5.72-1.76A6.39 6.39 0 0 0 177 97.46z" fill="#b4bcd9"/><path d="M131.27 101.36a2.5 2.5 0 0 0 2.5 2.5 2.5 2.5 0 0 0 2.5-2.5v2.23a2.5 2.5 0 0 1-2.5 2.5 2.5 2.5 0 0 1-2.5-2.5z" fill="#b4bcd9"/><path d="M134.2 103.82v2.23a2.5 2.5 0 0 0 2.06-2.46v-2.23a2.5 2.5 0 0 1-2.06 2.46z" fill="#7884b3"/><path d="M131.82 105.14a2.49 2.49 0 0 0 1.27.85v-2.23a2.49 2.49 0 0 1-1.27-.85z" fill="#dce1f2"/><circle cx="133.69" cy="101.6" r="2.6" fill="#fff"/><path d="M133.69 99.62a2 2 0 1 1-2 2 2 2 0 0 1 2-2m0-.62a2.6 2.6 0 1 0 2.6 2.6 2.6 2.6 0 0 0-2.6-2.6z" fill="#b4bcd9"/><path d="M77 46c-1.73.37-4.11.87-6.55 1.34 2 1 7.34 4.62 8.93 14.16h6.93S83.94 51 77 46z" fill="#f24c58"/><path d="M68.26 47.76c-2.37.43-4.63.78-6.19.92h-.17l.3.12c1.34.59 6.75 3.52 8.28 12.68h6.11s-2.13-9.38-8.33-13.72z" fill="#f24c58"/><path d="M192.23 46c1.73.37 4.11.87 6.55 1.34-2 1-7.34 4.62-8.93 14.16h-6.93s2.39-10.5 9.31-15.5z" fill="#f24c58"/><path d="M201 47.76c2.37.43 4.63.78 6.19.92h.17l-.3.12c-1.34.59-6.75 3.52-8.28 12.68h-6.11s2.13-9.38 8.33-13.72z" fill="#f24c58"/></g></svg>