<svg xmlns="http://www.w3.org/2000/svg" viewBox="0 0 175.27999877929688 126.08999633789062"><title>Depositphotos_95781546_04</title><g data-name="Layer 2"><g data-name="—ÎÓÈ_1"><path fill="#b6defa" d="M11.93 16.55h150.38v98.5H11.93z"/><path d="M30.59 72.68l.59 1.63c.21.61.42 1.2.61 1.81a31.9 31.9 0 0 1 .83 3.71 27.47 27.47 0 0 1 .26 7.33 24.17 24.17 0 0 1-1.56 6.51 20.24 20.24 0 0 1-2.84 4.94 15.57 15.57 0 0 1-6 4.76 11.08 11.08 0 0 1-1.84.67l-.64.18.33-.62c.21-.41.55-.95.88-1.72a20.52 20.52 0 0 0 1.83-6.16 24 24 0 0 0-.4-8.34 37 37 0 0 0-1.29-4.61c-.23-.79-.6-1.59-.87-2.41L20 79.13l-.56-1.45a41 41 0 0 1-2.9-13.61 32 32 0 0 1 .58-6.34c.21-1 .37-1.91.65-2.77s.61-1.68.91-2.44a22.06 22.06 0 0 1 2-3.85 16.47 16.47 0 0 1 1.85-2.58c1.1-1.33 1.76-2 1.76-2v2.71a25.75 25.75 0 0 0 .05 3 33 33 0 0 0 .3 3.78l.27 2.08c.11.71.33 1.44.48 2.17.22 1.46.86 3 1.23 4.55 1.14 3.16 2.45 6.53 3.97 10.3z" fill="#64dd17"/><path d="M38.64 71.61c-.74 2.26-1.26 4.39-1.8 6.39a48.62 48.62 0 0 0-1 5.86 33.18 33.18 0 0 0 .48 10.34 32.14 32.14 0 0 0 1.19 4.19 26 26 0 0 0 1.24 3.23c.8 1.76 1.24 2.83 1.24 2.83S39 104 37.35 103a17.59 17.59 0 0 1-2.93-2.17 23.16 23.16 0 0 1-3.48-3.63 27.86 27.86 0 0 1-5.3-12.8 34.59 34.59 0 0 1-.22-8.4 43.39 43.39 0 0 1 1.72-8.42A62.21 62.21 0 0 1 30 60.19l1.19-2.64a22.36 22.36 0 0 0 .81-2.43 37 37 0 0 0 .71-10.47 67.39 67.39 0 0 0-1-8c-.17-1-.32-1.73-.43-2.25l-.16-.8.6.51a22.66 22.66 0 0 1 1.65 1.58 32.3 32.3 0 0 1 5.05 7A29.75 29.75 0 0 1 42.14 56a25.83 25.83 0 0 1-.3 4.44c-.13.77-.33 1.55-.51 2.34l-.54 1.9z" fill="#57bf14"/><path d="M53.66 75.26c-1.15 4.31-2.5 7.92-3.21 10.86a15.85 15.85 0 0 0-.37 7.79 22.44 22.44 0 0 0 2.48 5.94l1.39 2.25a25.66 25.66 0 0 1-2.54-.65 16.32 16.32 0 0 1-6.41-4.1 15.89 15.89 0 0 1-3.24-5 21.41 21.41 0 0 1-1.47-6.83A43.57 43.57 0 0 1 42 71.75c1.15-4.27 2.42-7.86 3.31-11.13a46.13 46.13 0 0 0 1.73-8.94 42.29 42.29 0 0 0 0-6.77c-.21-1.66-.3-2.68-.3-2.68s.73.57 2 1.79A23.27 23.27 0 0 1 53 50.31a28.92 28.92 0 0 1 2.51 11.52 47.73 47.73 0 0 1-1.85 13.43z" fill="#64dd17"/><path d="M64.13 76.26l.52 1.44c.19.54.38 1.08.54 1.62a27.88 27.88 0 0 1 .73 3.33 24.19 24.19 0 0 1 .16 6.59 21.34 21.34 0 0 1-1.5 5.84 17.77 17.77 0 0 1-2.65 4.39 13.51 13.51 0 0 1-5.48 4.08 9.62 9.62 0 0 1-1.67.53l-.58.13.27-.57c.17-.37.45-.87.71-1.57a18 18 0 0 0 1.35-5.48 21.37 21.37 0 0 0-.65-7.12 35.63 35.63 0 0 0-1.2-3.87c-.21-.67-.53-1.34-.76-2l-.44-1-.48-1.34a34.91 34.91 0 0 1-2.48-12.13 27.7 27.7 0 0 1 .62-5.67c.21-.87.37-1.7.64-2.47s.58-1.49.87-2.16a19 19 0 0 1 1.88-3.38 14.29 14.29 0 0 1 1.74-2.24c1-1.15 1.65-1.7 1.65-1.7s.07.91.12 2.42a23.47 23.47 0 0 0 .16 2.68 29.38 29.38 0 0 0 .41 3.31l.31 1.8c.12.61.34 1.24.49 1.87.24 1.25.83 2.56 1.19 3.87z" fill="#57bf14"/><path d="M70.85 69.1c-.74 2.43-1.28 4.72-1.85 6.9a58.26 58.26 0 0 0-1 6.37 38.63 38.63 0 0 0 .44 11.15A37.81 37.81 0 0 0 69.63 98a29.29 29.29 0 0 0 1.26 3.44c.82 1.87 1.27 3 1.27 3s-1-.54-2.71-1.71a19.7 19.7 0 0 1-3-2.45 26.35 26.35 0 0 1-3.49-4 31.08 31.08 0 0 1-5.19-13.51 38.93 38.93 0 0 1-.21-8.68 48.76 48.76 0 0 1 1.7-8.82 70.11 70.11 0 0 1 2.87-7.89l.7-1.64c.15-.42.35-.82.5-1.25a25.86 25.86 0 0 0 .78-2.71 43.22 43.22 0 0 0 .71-11.29 74.94 74.94 0 0 0-.95-8.46c-.17-1-.32-1.83-.43-2.38l-.16-.85.61.57c.4.38 1 1 1.67 1.74a35.84 35.84 0 0 1 5.06 7.54 33.2 33.2 0 0 1 3.68 14 28.22 28.22 0 0 1-.3 4.59c-.11.79-.31 1.6-.48 2.42l-.53 2z" fill="#64dd17"/><path d="M69.26 72.57a43.56 43.56 0 0 1-1.76-13.71A21.41 21.41 0 0 1 69 52a15.89 15.89 0 0 1 3.24-5 16.31 16.31 0 0 1 6.44-4.09 25.59 25.59 0 0 1 2.54-.65l-1.42 2.22a22.44 22.44 0 0 0-2.48 5.94 15.85 15.85 0 0 0 .37 7.79c.71 2.94 2.06 6.55 3.21 10.86a47.73 47.73 0 0 1 1.82 13.43A28.93 28.93 0 0 1 80.21 94a23.27 23.27 0 0 1-4.26 6.29c-1.27 1.22-2 1.79-2 1.79s.09-1 .3-2.68a42.31 42.31 0 0 0 0-6.77 46.12 46.12 0 0 0-1.73-8.94c-.84-3.25-2.11-6.85-3.26-11.12z" fill="#57bf14"/><path d="M81.42 69.07c1.36-4.94 3-8.81 3.92-12.19a29 29 0 0 0 1.2-9.39 45.16 45.16 0 0 0-1-7.27c-.45-1.76-.68-2.83-.68-2.83s.82.57 2.27 1.75a25.28 25.28 0 0 1 5.18 6.3 25.54 25.54 0 0 1 3.2 12.76A56.24 56.24 0 0 1 93 72.61a95.73 95.73 0 0 0-2.72 11.64 48.68 48.68 0 0 0-.29 10c.21 3 .61 5.65.89 7.48s.46 2.89.46 2.89-.78-.64-2.12-1.93a32.64 32.64 0 0 1-4.93-6.3 31.46 31.46 0 0 1-4.21-11.94 39.18 39.18 0 0 1 1.34-15.38z" fill="#64dd17"/><path d="M106.17 72.38l.52 1.44c.19.54.38 1.08.54 1.62a27.82 27.82 0 0 1 .73 3.33 24.2 24.2 0 0 1 .16 6.59 21.34 21.34 0 0 1-1.5 5.84 17.78 17.78 0 0 1-2.62 4.39 13.51 13.51 0 0 1-5.48 4.08 9.61 9.61 0 0 1-1.67.53l-.58.13.27-.57c.17-.37.45-.87.71-1.57a18 18 0 0 0 1.35-5.48 21.38 21.38 0 0 0-.65-7.12 35.72 35.72 0 0 0-1.2-3.87c-.21-.67-.53-1.34-.76-2l-.44-1-.55-1.34a34.91 34.91 0 0 1-2.48-12.13 27.7 27.7 0 0 1 .62-5.67c.21-.87.37-1.7.64-2.47s.58-1.49.87-2.16a19 19 0 0 1 1.88-3.38 14.31 14.31 0 0 1 1.74-2.24c1-1.15 1.65-1.7 1.65-1.7s.07.91.12 2.42a23.43 23.43 0 0 0 .16 2.68 29.46 29.46 0 0 0 .41 3.31l.31 1.8c.12.61.34 1.24.49 1.87.24 1.25.83 2.56 1.19 3.87z" fill="#57bf14"/><path d="M124 71.11l-.83 2.25-.8 1.82c-.53 1.17-1.09 2.31-1.6 3.37-1.05 2.14-2.06 4.05-2.85 5.78a35.82 35.82 0 0 0-1.92 4.91 27 27 0 0 0-.88 4.79 56.4 56.4 0 0 0 0 8.1c.18 2 .23 3.21.23 3.21s-.82-.76-2.21-2.28a29.57 29.57 0 0 1-4.82-7.6 25.37 25.37 0 0 1-1.78-6.57 30.1 30.1 0 0 1 .13-8 49.66 49.66 0 0 1 1.87-7.82c.39-1.27.81-2.46 1.25-3.68l.66-1.79.5-1.47a43 43 0 0 0 2.25-11.7c.27-4.05.17-8.28.32-11.9a65.56 65.56 0 0 1 .83-8.74c.38-2.07.69-3.18.69-3.18s.55 1 1.44 2.84 2.23 4.33 3.78 7.51a56.35 56.35 0 0 1 4.52 12.22 33.92 33.92 0 0 1 .84 8.54 31.65 31.65 0 0 1-1.62 9.39z" fill="#64dd17"/><path d="M132.68 72.68l.59 1.63c.21.61.42 1.2.61 1.81a32 32 0 0 1 .83 3.71 27.45 27.45 0 0 1 .26 7.33 24.16 24.16 0 0 1-1.56 6.51 20.24 20.24 0 0 1-2.84 4.94 15.57 15.57 0 0 1-6 4.76 11.09 11.09 0 0 1-1.84.67l-.64.18.33-.62a19.25 19.25 0 0 0 .88-1.72 20.52 20.52 0 0 0 1.83-6.16 24 24 0 0 0-.4-8.34 37 37 0 0 0-1.29-4.61c-.23-.79-.6-1.59-.87-2.41l-.51-1.23-.56-1.45a40.94 40.94 0 0 1-2.9-13.61 32 32 0 0 1 .58-6.34c.21-1 .37-1.91.65-2.77s.61-1.68.91-2.44a22 22 0 0 1 2-3.85 16.44 16.44 0 0 1 1.85-2.58c1.1-1.33 1.76-2 1.76-2v2.71a25.79 25.79 0 0 0 .05 3 33 33 0 0 0 .3 3.78l.27 2.08c.11.71.33 1.44.48 2.17.22 1.46.86 3 1.23 4.55 1.17 3.16 2.48 6.53 4 10.3z" fill="#57bf14"/><path d="M143.81 74.16c-.68 2.08-1.16 4-1.66 5.92a44.85 44.85 0 0 0-.93 5.4 30.6 30.6 0 0 0 .44 9.53 29.68 29.68 0 0 0 1.1 3.86 24 24 0 0 0 1.15 3c.74 1.62 1.15 2.61 1.15 2.61s-.87-.43-2.44-1.37a16.23 16.23 0 0 1-2.7-2 21.37 21.37 0 0 1-3.21-3.35 25.7 25.7 0 0 1-4.89-11.81 31.91 31.91 0 0 1-.2-7.7 40 40 0 0 1 1.59-7.76 57.41 57.41 0 0 1 2.65-6.85l1.09-2.43a20.63 20.63 0 0 0 .71-2.25 34.12 34.12 0 0 0 .66-9.66 62.1 62.1 0 0 0-.88-7.35c-.16-.89-.3-1.6-.4-2.08l-.14-.74.55.47a20.91 20.91 0 0 1 1.55 1.45 29.8 29.8 0 0 1 4.66 6.44A27.44 27.44 0 0 1 147 59.77a23.84 23.84 0 0 1-.28 4.1c-.12.71-.3 1.43-.47 2.16l-.5 1.76z" fill="#64dd17"/><path d="M144.33 77.69c.27-3.27.61-5.38.59-7.32a19 19 0 0 0-.28-3c-.34-1-.53-2.09-.92-3.06s-.76-1.91-1.08-2.77-.74-1.54-1-2.15c-.56-1.23-.86-2-.86-2s.73.09 2 .41c.65.16 1.44.37 2.36.66s1.88.85 3 1.45a21.18 21.18 0 0 1 3.41 2.62 17.62 17.62 0 0 1 3.08 4.47 13.29 13.29 0 0 1 1.07 2.89c.14.5.29 1 .39 1.54l.21 1.57c.06.5.13 1 .16 1.54v1.45a26.35 26.35 0 0 1-.1 2.8 74.79 74.79 0 0 1-1.36 8.88c-.44 2.55-.91 5-1.15 7.17l-.37 3c-.05.91-.12 1.72-.18 2.4-.12 1.36-.24 2.18-.24 2.18s-.57-.48-1.53-1.46c-.48-.49-1.05-1.11-1.7-1.86s-1.2-1.71-1.87-2.79a27.31 27.31 0 0 1-3.2-8.31 38.81 38.81 0 0 1-.43-10.31z" fill="#57bf14"/><path d="M158.34 103.57a9.28 9.28 0 0 0-5.14-5.15c-3.31-1.48-6.77-1.19-8.64.49a7.63 7.63 0 0 0-5.79-.08 6.14 6.14 0 0 0-5.16-2.33c-3.14 0-5.68 1.78-5.68 4a3.53 3.53 0 0 0 1.76 2.86 6.57 6.57 0 0 0-1.09 1.17 9.79 9.79 0 0 0-4.7-1.57c-.76-2.57-4-4.5-7.91-4.5a9.91 9.91 0 0 0-5.89 1.8 6.42 6.42 0 0 0-4.86-1.94 7.55 7.55 0 0 0-2.8.53 6.14 6.14 0 0 0-5.16-2.33 7.83 7.83 0 0 0-1.86.23 9.12 9.12 0 0 0-3.83-.81 8 8 0 0 0-5.75 2.15c-1.47-2.37-5.33-3.2-9.15-1.79a10.34 10.34 0 0 0-4.26 2.89 7.26 7.26 0 0 0-3.51-.87 7.55 7.55 0 0 0-2.8.53A6.14 6.14 0 0 0 61 96.51c-3.14 0-5.68 1.78-5.68 4a2.88 2.88 0 0 0 .29 1.19 7.66 7.66 0 0 0-1.77 1.79 10.5 10.5 0 0 0-2-.48 4 4 0 0 0 .16-1.11c0-3.12-3.62-5.65-8.08-5.65-3.2 0-5.95 1.31-7.26 3.2a7.07 7.07 0 0 0-4-1.15 7.55 7.55 0 0 0-2.8.53 6.14 6.14 0 0 0-5.16-2.33c-3.14 0-5.68 1.78-5.68 4 0 1.69 1.52 3.12 3.64 3.69a5.78 5.78 0 0 0-1.54 1.72 8.94 8.94 0 0 0-7.11-3c-4.46 0-8.08 2.53-8.08 5.65s3.62 5.65 8.08 5.65c3.43 0 6.34-1.49 7.51-3.6a8.94 8.94 0 0 0 7.11 3c4.46 0 8.08-2.53 8.08-5.65a4.27 4.27 0 0 0-.81-2.43 5.38 5.38 0 0 0 1.09-.72 8.58 8.58 0 0 0 5.4 2.65 4 4 0 0 0-.15 1.07c0 3.12 3.62 5.65 8.08 5.65a9.62 9.62 0 0 0 6.26-2.18 13 13 0 0 0 6.32 1.56c5.55 0 10.06-3.13 10.1-7a8.27 8.27 0 0 0 5.68.81 4 4 0 0 0-.16 1.13c0 3.12 3.62 5.65 8.08 5.65a9.47 9.47 0 0 0 6.56-2.37 12.11 12.11 0 0 0 6.53 1.79c5.13 0 9.31-2.8 9.6-6.34a9.06 9.06 0 0 0 5.71 2.42c.76 2.57 4 4.5 7.91 4.5a9.13 9.13 0 0 0 6.92-2.77 10.86 10.86 0 0 0 6.78 2.2c5 0 9-2.81 9-6.29a4.39 4.39 0 0 0-.09-.61 10.87 10.87 0 0 0 3 2 11.42 11.42 0 0 0 1.68.59c.08 3.07 3.65 5.55 8.07 5.55s8.08-2.53 8.08-5.65-3.55-5.6-8.01-5.6z" fill="#997545"/><ellipse cx="19.82" cy="102.53" rx="5.9" ry="4.12" transform="rotate(-15.86 19.824 102.51)" fill="#f4d1a1"/><ellipse cx="54.76" cy="101.35" rx="3.3" ry="4.72" transform="rotate(-74.67 54.756 101.346)" fill="#f4d1a1"/><ellipse cx="92.33" cy="101.3" rx="3.36" ry="4.81" transform="rotate(-73.62 92.325 101.3)" fill="#f4d1a1"/><ellipse cx="126.6" cy="101.85" rx="5.19" ry="3.63" transform="matrix(.96 -.3 .3 .96 -24.42 41.9)" fill="#f4d1a1"/><ellipse cx="143.38" cy="109.14" rx="7.56" ry="5.28" fill="#f4d1a1"/><ellipse cx="37.2" cy="108.37" rx="7.56" ry="5.28" fill="#f4d1a1"/><ellipse cx="75.24" cy="107.21" rx="7.56" ry="5.28" transform="rotate(-10.73 75.276 107.24)" fill="#f4d1a1"/><ellipse cx="109.44" cy="108.56" rx="5.28" ry="7.56" transform="rotate(-78.98 109.428 108.562)" fill="#f4d1a1"/><ellipse cx="156.23" cy="101.56" rx="3.36" ry="4.81" transform="rotate(-73.62 156.234 101.557)" fill="#f4d1a1"/><path fill="#78909c" d="M0 7.7h175.28v11.93H0z"/><path fill="#78909c" d="M0 110.05h175.28v16.04H0z"/><path fill="#78909c" d="M169.12 12.7H6.16L11.29 0h152.7l5.13 12.7z"/><path fill="#78909c" d="M4.75 16.55h7.19v98.5H4.75z"/><path fill="#78909c" d="M162.32 16.55h7.19v98.5h-7.19z"/></g></g></svg>