<svg xmlns="http://www.w3.org/2000/svg" viewBox="-0.020221233367919922 -8.121832847595215 178.754150390625 373.5218200683594"><title>Depositphotos_31435739_10</title><g data-name="Layer 2"><g data-name="Layer 1"><path fill="#89d4f0" d="M130.2 76.1l-.6 7.8 7.3 2.9-7.6 1.9-.6 7.8-4.1-6.7-7.6 1.9 5.1-6-4.2-6.6 7.3 2.9 5-5.9z"/><path d="M73.1 255.8l-27.3-12.2c-3 15.8-14.1 67.6-13.8 79.8l30 9.6 5.4-24.7c11.8-9.2 12.2-32.5 10.4-58.3z" fill="#fff"/><path d="M36.4 329.6c12.5-7.8 4-12.9-5.4-2.1.3-.4.7-4.5-2.9-4.6l.5 4-2.9 11.9 3.5 1.2 2.7-4.9a57.65 57.65 0 0 0 8.1 6.7h30c-10.2-2.4-23-4.3-33.6-12.2" fill="#2a7cc0"/><path d="M51.3 348.1c13 1.9 27.2.7 42.5-1.4-4.8-18.1-22.4-9-42.5-8.5l-11.2 3.6z" fill="#2a7cc0"/><path d="M69.1 194.5l-3.1.6-14.3-4.2c5.8-5.7 31.7-11.8 33.3-15.2 5-10.6 2.9-21.9 1.7-32.7-.1-1-.6-1.9-.7-2.9a4.08 4.08 0 0 1 .1-1.9c.3-1.1.2-1.2.7-1.8a2.65 2.65 0 0 1 .5-.6c1.3-1.8 2.8-3.7 3-6v-.1h.1s1.1.2.9 1.7c-.1.4-.3.8-.4 1.2a1.88 1.88 0 0 0-.2 1.6.37.37 0 0 0 .3.1c1 0 1.7-2 1.9-2.8a30.62 30.62 0 0 0 .5-3.2 5 5 0 0 1 .2-1.2 1.17 1.17 0 0 1 .9-1h.1v.1s-.1 1-.3 2.8c.3-1.3.7-2 .8-2.5s.3-1.3 1.1-.9l.1.1-.1.1a7.49 7.49 0 0 0-.5 1.6c-.1.4-.2 1.1-.4 1.9l.3-.6a5.56 5.56 0 0 1 .4-.8c.3-.5.8-1.4 1.6-1.1h.1l-.1.1a31.06 31.06 0 0 0-2 4.1l-.1.2v.2l.8-1.1c.7-1.1 1.2-1.6 1.7-1.2l-.2.2a12.27 12.27 0 0 0-1.2 2.6c-.4.8-1.7 2.8-1.7 2.8-.1.1-.1.2-.2.3a2.19 2.19 0 0 0-.3.5 6.42 6.42 0 0 1-1 1.3c-.2.2-.4.3-.6.5-3.7 2.4-4.1 4.2-3.5 7.8.3 1.9.8 3.9 1.2 5.8 3.1 15.4 4.8 26.6 3.8 27.2-8.7 5.6-10.1 11.2-23.8 15.9l-.7.2-.7.3" fill="#fff"/><path d="M86.1 150.2l6.7-.9.1 4.3c32.1 26.5 26.1 66.5-39 47.1-2.4-.8-7.9-4.3-7.6-10.1l38.9-14.9z" fill="#fff"/><path d="M49.4 271.3l-27.3-12.2C19 274.9 8 326.7 8.3 338.9l30 9.6 5.4-24.7c11.8-9.2 12.2-32.5 10.4-58.3z" fill="#fff"/><path d="M8.9 245l8.4 37.3a372.09 372.09 0 0 1 38.4-12.2c.5-.1 1.3-.1 1.3-.3l.9-6.7 4.2 5.4c.1.1.5-.1.7-.2 7.2-1.7 14.7-3.3 22.5-4.7l-13.1-35c3.3-8.2-5-29.1-19.3-41.3-8.4-7.1-20.7-6.9-30.3-5-5 1-12.4.9-15.4 8.6C0 209.1 2.9 240.5 8.9 245" fill="#2a7cc0"/><path d="M28.3 123.7A28.35 28.35 0 1 1 0 152a28.27 28.27 0 0 1 28.3-28.3" fill="#2a7cc0"/><path d="M12.7 345c12.5-7.8 4-12.9-5.4-2.1.3-.4.7-4.5-2.8-4.6l.5 4-3 11.9 3.5 1.2 2.7-4.9a57.65 57.65 0 0 0 8.1 6.7h29.9c-10.1-2.4-23-4.2-33.5-12.2" fill="#2a7cc0"/><path d="M53.7 133.2a15.29 15.29 0 0 1-.7 2.9l-29.2-12.3a13.25 13.25 0 0 1 1.6-2.5z" fill="#fff"/><path d="M45.1 113.9a12.82 12.82 0 0 1 6.8 16.8 13.85 13.85 0 0 1-2 3.3l-22.6-9.5a12.88 12.88 0 0 1 14-11.6 12.56 12.56 0 0 1 3.8 1" fill="#fff"/><path d="M44.5 115.8a10.76 10.76 0 0 1 6.4 7.5 12.8 12.8 0 0 0-17.4-5 8.6 8.6 0 0 0-2.6 2 10.84 10.84 0 0 1 13.6-4.5" fill="#89d4f0"/><path d="M25.9 168.6c2.2 2.5 9.9 5.7 13.8 5.4-5.3.8-5.5 4.8-4.5 9.5l12.3 1.8-35.1 4.9c-1.7-2.4 11.1-7.3 10.2-7.9z" fill="#fff"/><path d="M27.6 154.6c1.8-.9 5.4-6.6 7.8-7.1 2.7-.5 4.2 4.3 5.7 6 1.2 1.4.4 3.3.7 4.3.3 1.4 2.6 4.4 2.6 4.4 0 .2-1.6 1.1-1.6 1.5v1c0 .2-.1-.2-.1 0s.7.3.8.7a2 2 0 0 0-.1.9 2.92 2.92 0 0 1 .2.9c0 .6-.8 1.1-.8 1.2l.1.5c.2.9.8 2.3.6 2.6-2.2 3.5-15.5 1-17.7-2.9-1.7-3-7.6-8.8-7.1-11.5.5-2.1 6.8-1.4 8.9-2.5" fill="#fff"/><path d="M14.8 145.3c0 .8.7-.5 0 0-8.2 4.8-9.7 11.9-4.4 19 3.6 4.9 14.2 10.5 18 9.8l-1-8.2c-4.2-3.2-7.4-5.6-2.9-9.1l5.4 6.5.4-1.4-.6-6.8 10.7-5.2c3.3-3.2-.3-8.2.7-9.8-.2-.2-26-5.9-26.3 5.2" fill="#2a7cc0"/><path d="M16.7 220.4l-1.7-2.7-1.2-14.7c7.4 3.4 22.5 25.3 26.3 25.5 11.7.8 21.4-5.3 31.1-10.4a20.71 20.71 0 0 0 2.4-1.7 6.36 6.36 0 0 1 1.8-.6c1.1-.1 1.2-.3 1.9 0l.8.2c2.1.6 4.5 1.2 6.7.6h.1v.1s.2 1.1-1.3 1.4h-1.3a2.18 2.18 0 0 0-1.5.4v.3c.3.9 2.5.9 3.3.7 1.1-.2 2.1-.4 3.2-.7a5 5 0 0 1 1.2-.2 1.48 1.48 0 0 1 1.3.4v.1h-.1a22.07 22.07 0 0 0-2.7.8c1.3-.2 2.1-.1 2.6-.2s1.3-.2 1.2.6v.1h-.1a9.7 9.7 0 0 0-1.7.1c-.4.1-1.1.2-1.9.3l.7.1.9.1c.6.1 1.6.2 1.6 1v.1h-.2a34.21 34.21 0 0 0-4.6-.4h-.4l1.3.4c1.3.3 1.9.5 1.7 1.1l-.3-.1a13.83 13.83 0 0 0-2.9-.1c-.9-.1-3.2-.6-3.2-.6l-.4-.1c-.2 0-.3-.1-.6-.1a4.28 4.28 0 0 1-1.6-.5 2.51 2.51 0 0 1-.7-.4c-3.6-2.6-5.5-2.3-8.5-.4-1.7 1-3.3 2.1-5 3.2-13.2 8.5-23 14.1-24 13.4-8.4-6.1-14.2-5.4-23.5-16.4l-.5-.6-.2-.1" fill="#fff"/><path d="M64.2 220.1l3.3 5.9-4 1.6c-13 39.6-52.4 48.5-58.1-19.2-.1-2.5 1.1-8.9 6.6-10.7l28 30.7z" fill="#fff"/><path d="M27.5 363.5c13 1.9 27.2.7 42.5-1.4-4.8-18.1-22.4-9-42.5-8.5l-11.2 3.6z" fill="#2a7cc0"/><path d="M128.7 3.8a63.49 63.49 0 1 1-81.3 38.1 63.5 63.5 0 0 1 81.3-38.1" fill="#fff"/><path d="M60.6 20.2c28.5 29.3 63 51.1 107.8 59.8-3.2 10.9-7 19.9-16 28.2-42.1-5.9-78.8-24.8-107-59.3 2.9-11.8 7.7-21.6 15.2-28.7" fill="#2a7cc0"/><path d="M126.9 16.9a54.31 54.31 0 0 1 27.8 22.6 63.12 63.12 0 0 0-99.1 27.4c-.5 1.3-.9 2.6-1.3 3.9a54.34 54.34 0 0 1 72.6-53.9" fill="#89d4f0"/><path d="M138.8 103.4a52.15 52.15 0 0 0 11-11c-1.7 1.5-3.4 3-5.2 4.3a69.2 69.2 0 0 1-68.4 8.2 53.94 53.94 0 0 0 62.6-1.5" fill="#89d4f0"/><path fill="#89d4f0" d="M106.1 64l-1.9 7.6 6.6 4.2-7.8.5-1.9 7.6-2.9-7.3-7.8.6 6-5-2.9-7.3 6.6 4.2 6-5.1z"/><path fill="#89d4f0" d="M136.1 76.8l-2.6 7.4 6.2 4.7-7.8-.2-2.6 7.4-2.3-7.5-7.8-.2 6.5-4.4-2.3-7.5 6.2 4.7 6.5-4.4z"/><path fill="#89d4f0" d="M85.2 49.8l-2.6 7.4 6.2 4.7-7.8-.2-2.6 7.4-2.2-7.5-7.9-.2 6.5-4.4-2.2-7.5 6.2 4.7 6.4-4.4z"/></g></g></svg>