<svg xmlns="http://www.w3.org/2000/svg" viewBox="0 0 30.701339721679688 61.05999755859375"><title>Depositphotos_119988176_04</title><g data-name="Layer 2"><g data-name="Layer 1"><g data-name="Layer 2"><g data-name="Layer 1-2"><path d="M1.13 2.64v53.75c.1 2 6.51 3.7 14.34 3.7s14.24-1.66 14.24-3.73V2.63a64.18 64.18 0 0 0-28.58.01z" fill="#eef8fa"/><path d="M28.08 24V3.34c-15.15 2.78-25.41 0-25.41 0v20.6c2.41 1 7.25 1.6 12.81 1.6s10.19-.64 12.6-1.54z" fill="#fed9b5"/><path d="M2.59 25v29.76c.09 1.94 5.81 3.51 12.8 3.51s12.7-1.58 12.7-3.53V25a41.57 41.57 0 0 1-25.5 0z" fill="#fed9b5"/><path d="M30.54 2.26C30 1.39 25.4 0 15.4 0 .27 0 .1 1.63 0 2.71v53.64c.18 3.72 9.77 4.71 15.4 4.71s15.3-1 15.3-4.79V2.83a1.07 1.07 0 0 0-.16-.57zM2.12 3.73c3.48 1 12.09 1.06 13.29 1.06 1.92 0 9.85-.06 13.18-1v20.9c-1.65.91-6.36 1.85-13.18 1.85s-11.62-1-13.29-1.91zm25.44-.53A72.88 72.88 0 0 1 15.4 4a64.9 64.9 0 0 1-13-1c1-.32 4.17-.91 13-.91 6.72.03 10.37.65 12.16 1.11zM15.4 58.94c-8.18 0-13.07-1.78-13.28-2.64V25.49c2.75 1.3 8.85 1.8 13.29 1.8s10.44-.5 13.18-1.78v30.75c-.17.74-4.46 2.68-13.19 2.68z" fill="#939598"/><path d="M24.72 37.07a.4.4 0 0 0-.4.4v16.09a.4.4 0 0 0 .8 0V37.47a.4.4 0 0 0-.4-.4z" fill="#939598"/><path d="M24.72 30.49a.4.4 0 0 0-.4.4v3.49a.4.4 0 0 0 .8 0v-3.49a.4.4 0 0 0-.4-.4z" fill="#939598"/></g></g></g></g></svg>