<svg xmlns="http://www.w3.org/2000/svg" viewBox="9.5367431640625e-7 -0.028536319732666016 48.619998931884766 49.785743713378906"><title>Depositphotos_78438930_17</title><g data-name="Layer 2"><g data-name="Layer 1"><g data-name="Layer 2"><g data-name="ëÎÓÈ 2"><path d="M10.74 11.83l-4.6 3.52-.25-.61a6.89 6.89 0 0 1 2.2-8 6.8 6.8 0 0 1 4.16-1.41 6.93 6.93 0 0 1 4.17 1.4l.52.4-4.55 3.48 4.26 5.22L15 17.1z" fill="#d6b1d3"/><path d="M31.93 15.78l4.26-5.22-4.55-3.47.52-.4a6.93 6.93 0 0 1 4.17-1.4 6.8 6.8 0 0 1 4.16 1.41 6.89 6.89 0 0 1 2.2 8l-.25.61-4.6-3.52-4.3 5.27z" fill="#d6b1d3"/><path d="M17.77 7.08l-1-.79a7.44 7.44 0 0 0-4.47-1.5A7.3 7.3 0 0 0 7.78 6.3a7.39 7.39 0 0 0-2.36 8.62l.49 1.22 1-.8 3.69-2.82L14.33 17l.63.78.77-.63.84-.68.77-.63-.63-.77-3.62-4.43 3.62-2.76zm-6.09 3.39L16 15.7l-.84.68-4.29-5.26-4.52 3.43a6.37 6.37 0 0 1 9.76-7.46z" fill="#6d6e71"/><path d="M40.8 6.3a7.29 7.29 0 0 0-4.47-1.51 7.44 7.44 0 0 0-4.47 1.5l-1 .79 1 .8 3.62 2.77-3.62 4.43-.63.77.77.63.84.68.77.63.63-.78 3.68-4.51 3.69 2.82 1 .8.49-1.22a7.39 7.39 0 0 0-2.3-8.6zm1.43 8.25l-4.46-3.41-4.3 5.26-.84-.68 4.27-5.23-4.44-3.4a6.37 6.37 0 0 1 9.76 7.46z" fill="#6d6e71"/><path d="M37.37 43.08a19.28 19.28 0 0 0-24.88-29.41l-.15.11-.12.1L12 14l-.14.12-.15.13a19.27 19.27 0 0 0-1.95 27.18q.46.53.95 1L9.1 45.21A1.84 1.84 0 0 0 12.29 47l1.21-2.11a19.2 19.2 0 0 0 20.92.4l1 1.71a1.84 1.84 0 0 0 3.19-1.83z" fill="#fdf196"/><path d="M7.64 30.66a16.29 16.29 0 0 1-.09-1.73 16.7 16.7 0 1 1 .09 1.73z" fill="#fff"/><path d="M38.15 45.44l-1.21-2.11-.2-.35.29-.27A18.78 18.78 0 0 0 12.86 14h-.06l-.15.12-.11.09-.17.14-.13.11-.13.11a18.75 18.75 0 0 0-6.5 14.2A18.73 18.73 0 0 0 11 42.2l.27.27-1.72 3a1.34 1.34 0 0 0 2.32 1.34l1.48-2.58.45.3a18.7 18.7 0 0 0 20.37.39l.44-.27 1.24 2.16a1.34 1.34 0 0 0 1.16.67 1.32 1.32 0 0 0 .66-.18 1.33 1.33 0 0 0 .67-1.16 1.35 1.35 0 0 0-.18-.67zm-13.86.72A17.24 17.24 0 0 1 7.14 30.71 16.74 16.74 0 0 1 7 28.92a17.24 17.24 0 0 1 17.28-17.23 17.24 17.24 0 0 1 0 34.48z" fill="none"/><path fill="none" d="M7.14 30.71v.01-.01z"/><path d="M37.09 18.93a16.22 16.22 0 0 0-12.8-6.24A16.24 16.24 0 0 0 8.05 28.93a15.85 15.85 0 0 0 .08 1.68 16.24 16.24 0 1 0 29-11.69z" fill="none"/><path fill="#6d6e71" d="M8.66 44.97l.01-.01-.01.01z"/><path d="M38 43.17a19.78 19.78 0 0 0-25.82-29.9l-.19.15-.12.09-.14.12-.15.13-.16.14a19.75 19.75 0 0 0-6.84 15A19.71 19.71 0 0 0 10 42.61L8.67 45a2.34 2.34 0 0 0 4.06 2.33l1-1.66a19.62 19.62 0 0 0 20.51.33l.76 1.29A2.34 2.34 0 0 0 39 45zm-.33 4.11a1.32 1.32 0 0 1-.66.18 1.34 1.34 0 0 1-1.16-.67l-1.25-2.16-.44.27a18.7 18.7 0 0 1-20.37-.39l-.45-.3-1.48 2.58a1.34 1.34 0 0 1-2.32-1.34l1.72-3-.26-.25a18.73 18.73 0 0 1-5.51-13.27A18.75 18.75 0 0 1 12 14.72l.13-.11.13-.11.17-.14.11-.09.15-.12h.06A18.78 18.78 0 0 1 37 42.71l-.29.27.2.35 1.21 2.11a1.35 1.35 0 0 1 .18.67 1.33 1.33 0 0 1-.64 1.17z" fill="#6d6e71"/><path d="M37.87 18.31a17.22 17.22 0 0 0-13.58-6.62A17.24 17.24 0 0 0 7.05 28.93a16.74 16.74 0 0 0 .09 1.79 17.24 17.24 0 1 0 30.73-12.4zm-2.1 22.1a16.24 16.24 0 0 1-27.64-9.8 15.85 15.85 0 0 1-.08-1.68 16.24 16.24 0 0 1 16.24-16.24 16.24 16.24 0 0 1 11.48 27.72z" fill="#6d6e71"/><path d="M10.38 28.06a.87.87 0 1 0 .86.88.87.87 0 0 0-.86-.88z" fill="#6d6e71"/><circle cx="38.45" cy="28.93" r=".87" fill="#6d6e71"/><circle cx="24.29" cy="15.01" r=".87" fill="#6d6e71"/><circle cx="24.29" cy="42.84" r=".87" fill="#6d6e71"/><path d="M24.49 28.89a.2.2 0 0 0-.23-.16.2.2 0 0 0-.16.23L26 39.74a.2.2 0 1 0 .39-.07z" fill="#fdf196"/><path d="M34.46 21.45a.4.4 0 0 0-.56-.09l-8.19 6a2.08 2.08 0 0 0-1.41-.57 2.11 2.11 0 0 0-.88.21l-3.67-3.36a.8.8 0 0 0-1.08 1.18l3.67 3.36a2 2 0 0 0-.14.71 2.1 2.1 0 1 0 4.21 0 2 2 0 0 0-.22-.89l8.19-6a.4.4 0 0 0 .08-.55z" fill="#6d6e71"/><path d="M36.5 1a11.52 11.52 0 0 1 11.12 8.49l1-.26A12.49 12.49 0 0 0 36.5 0z" fill="#6d6e71"/><path d="M36.5 3.83a8.69 8.69 0 0 1 8.38 6.41l1-.26a9.67 9.67 0 0 0-9.38-7.15z" fill="#6d6e71"/><path d="M12.08 0A12.52 12.52 0 0 0 0 9.23l1 .26A11.49 11.49 0 0 1 12.08 1z" fill="#6d6e71"/><path d="M12.08 2.83A9.69 9.69 0 0 0 2.73 10l1 .26a8.67 8.67 0 0 1 8.38-6.41z" fill="#6d6e71"/></g></g></g></g></svg>