<svg xmlns="http://www.w3.org/2000/svg" viewBox="0 -2.8000001907348633 59.27000427246094 84.80000305175781"><title>Depositphotos_57249409_04</title><g data-name="Layer 2"><g data-name="Layer 1" fill-rule="evenodd"><path d="M56.77 39.28C56.69 61 56.81 59.6 56 81.4c-32.29-.76-19.7.6-52-.2-1.35-21.24-2.64-20-1.9-41 28.77-.93 22.29-2.13 54.62-.87z" fill="#adcfa1"/><path d="M12.8 57.51a.21.21 0 1 1-.21.21.21.21 0 0 1 .21-.21z" fill="#bd86bb"/><path d="M12.69 56.71a.09.09 0 0 1 .19 0v.66a.09.09 0 0 1-.19 0v-.66z" fill="#bd86bb"/><path d="M12.69 58.08a.09.09 0 1 1 .19 0v.66a.09.09 0 0 1-.19 0v-.66z" fill="#bd86bb"/><path d="M11.77 57.82a.09.09 0 1 1 0-.19h.66a.09.09 0 0 1 0 .19z" fill="#bd86bb"/><path d="M13.14 57.82a.09.09 0 0 1 0-.19h.66a.09.09 0 0 1 0 .19z" fill="#bd86bb"/><path d="M13.44 56.94a.09.09 0 0 1 .13 0 .09.09 0 0 1 0 .13l-.47.47a.09.09 0 0 1-.13-.13l.47-.47z" fill="#bd86bb"/><path d="M12.47 57.91a.09.09 0 1 1 .13.13l-.47.47a.09.09 0 1 1-.13-.13l.47-.47z" fill="#bd86bb"/><path d="M12 57.07a.09.09 0 0 1 0-.13.09.09 0 0 1 .13 0l.47.47a.09.09 0 1 1-.13.13l-.47-.47z" fill="#bd86bb"/><path d="M13 58a.09.09 0 1 1 .13-.13l.47.47a.09.09 0 1 1-.13.13L13 58z" fill="#bd86bb"/><path d="M12.43 56.36a.09.09 0 0 1 0-.13.09.09 0 0 1 .13 0l.2.28.19-.29a.09.09 0 0 1 .15.1l-.26.39a.09.09 0 0 1-.13 0l-.28-.39z" fill="#bd86bb"/><path d="M12.43 59a.09.09 0 0 0 .15.11l.2-.28.19.29a.09.09 0 0 0 .15-.1l-.26-.39a.09.09 0 0 0-.13 0l-.28.39z" fill="#bd86bb"/><path d="M14.18 58.08a.09.09 0 1 0 .11-.15l-.28-.2.28-.19a.09.09 0 1 0-.1-.15l-.39.26a.09.09 0 0 0 0 .13l.39.28z" fill="#bd86bb"/><path d="M11.42 58.07a.09.09 0 0 1-.11-.15l.28-.2-.29-.19a.09.09 0 0 1 0-.13.09.09 0 0 1 .13 0l.39.26a.09.09 0 0 1 0 .13l-.39.28z" fill="#bd86bb"/><path d="M13.46 56.53a.09.09 0 1 1 .18 0l-.06.34.34-.07a.09.09 0 0 1 .08.2l-.46.09a.09.09 0 0 1-.08-.11l.08-.47z" fill="#bd86bb"/><path d="M12.08 56.53a.09.09 0 1 0-.18 0l.06.34-.34-.07a.09.09 0 0 0 0 .18l.46.09a.09.09 0 0 0 .08-.11l-.08-.47z" fill="#bd86bb"/><path d="M13.47 58.92a.09.09 0 0 0 .18 0l-.06-.34.34.06a.09.09 0 0 0 0-.18l-.46-.09a.09.09 0 0 0-.08.11l.08.47z" fill="#bd86bb"/><path d="M12.09 58.92a.09.09 0 1 1-.18 0l.06-.34-.34.06a.09.09 0 0 1 0-.18l.46-.09a.09.09 0 0 1 .08.11l-.08.47z" fill="#bd86bb"/><path d="M13.89 56.42a.15.15 0 1 1-.15.15.15.15 0 0 1 .15-.15z" fill="#bd86bb"/><path d="M12.79 55.85a.15.15 0 1 1 0 .3.15.15 0 1 1 0-.3z" fill="#bd86bb"/><path d="M11.64 56.37a.15.15 0 1 1-.15.15.15.15 0 0 1 .15-.15z" fill="#bd86bb"/><path d="M11.12 57.52a.15.15 0 1 1-.15.15.15.15 0 0 1 .15-.15z" fill="#bd86bb"/><path d="M14.47 57.56a.15.15 0 1 1-.15.15.15.15 0 0 1 .15-.15z" fill="#bd86bb"/><path d="M13.93 58.68a.15.15 0 1 1-.15.15.15.15 0 0 1 .15-.15z" fill="#bd86bb"/><path d="M12.81 59.16a.15.15 0 1 1-.15.15.15.15 0 0 1 .15-.15z" fill="#bd86bb"/><path d="M11.69 58.68a.15.15 0 1 1-.15.15.15.15 0 0 1 .15-.15z" fill="#bd86bb"/><path d="M56.05 79.09a123.13 123.13 0 0 0-16.14-1.28c-8.12 0-17.06 2.26-25.85 3.09l-4.41.41 4.52.07A159.27 159.27 0 0 1 56 79.65v-.56z" fill="#ed1c24"/><path d="M2.27 60.1c5.91.72 12.06 2 18.15 2.55 8.72.82 17.44 1.64 25.55 1.64l10.61-.21c0 .7 0 1.42-.06 2.18-9.62.46-19.26.51-29-1.67A155.43 155.43 0 0 0 2.34 61c0-.31-.05-.62-.07-.93z" fill="#315746"/><path d="M2.06 42.73c16.7 1.26 34.36 4.33 48.12 4.33 2.18 0 4.37-.11 6.56-.27v5.78a56 56 0 0 0-7.19-.69c-14-.41-28 3.81-47.34 5h-.14c-.17-3.54-.19-7.69 0-14.11z" fill="#315746"/><path d="M2.14 40.56c5.94.29 12.11.87 18.28 1.46 8.72.82 17.44 1.64 25.55 1.64l10.79-.21v1.05c-9.69.23-19.38.45-29.19-.54-8.56-.86-17-1.47-25.48-1.74q0-.81.06-1.66z" fill="#315746"/><path d="M9 50.64a.21.21 0 1 1-.21.21.21.21 0 0 1 .21-.21z" fill="#fff"/><path d="M8.86 49.84a.09.09 0 1 1 .19 0v.66a.09.09 0 1 1-.19 0v-.66z" fill="#fff"/><path d="M8.86 51.21a.09.09 0 1 1 .19 0v.66a.09.09 0 1 1-.19 0v-.66z" fill="#fff"/><path d="M7.94 51a.09.09 0 1 1 0-.19h.66a.09.09 0 0 1 0 .19z" fill="#fff"/><path d="M9.31 51a.09.09 0 0 1 0-.19H10a.09.09 0 1 1 0 .19z" fill="#fff"/><path d="M9.6 50.07a.09.09 0 0 1 .13.13l-.47.47a.09.09 0 0 1-.13-.13l.47-.47z" fill="#fff"/><path d="M8.63 51a.09.09 0 1 1 .13.13l-.47.47a.09.09 0 1 1-.13-.13l.47-.47z" fill="#fff"/><path d="M8.17 50.21a.09.09 0 1 1 .13-.13l.47.47a.09.09 0 1 1-.13.13l-.47-.47z" fill="#fff"/><path d="M9.14 51.18a.09.09 0 1 1 .13-.18l.47.47a.09.09 0 0 1-.13.13l-.47-.47z" fill="#fff"/><path d="M8.6 49.49a.09.09 0 0 1 0-.13.09.09 0 0 1 .13 0l.2.28.19-.28a.09.09 0 1 1 .15.1l-.27.41a.09.09 0 0 1-.13 0l-.28-.39z" fill="#fff"/><path d="M8.6 52.18a.09.09 0 0 0 .15.11L9 52l.19.29a.09.09 0 1 0 .15-.1L9 51.8a.09.09 0 0 0-.13 0l-.28.39z" fill="#fff"/><path d="M10.35 51.21a.09.09 0 0 0 .11-.15l-.28-.2.28-.19a.09.09 0 1 0-.1-.15l-.39.26a.09.09 0 0 0 0 .13l.39.28z" fill="#fff"/><path d="M7.58 51.2a.09.09 0 0 1-.11-.15l.28-.2-.29-.19a.09.09 0 1 1 .1-.15l.39.26a.09.09 0 0 1 0 .13l-.39.28z" fill="#fff"/><path d="M9.62 49.67a.09.09 0 0 1 .18 0l-.05.33.34-.06a.09.09 0 1 1 0 .18l-.46.09a.09.09 0 0 1-.08-.11l.08-.47z" fill="#fff"/><path d="M8.25 49.67a.09.09 0 0 0-.18 0l.06.34-.35-.01a.09.09 0 1 0 0 .18l.46.09a.09.09 0 0 0 .08-.11l-.08-.47z" fill="#fff"/><path d="M9.63 52.05a.09.09 0 0 0 .18 0l-.06-.34.34.07a.09.09 0 0 0 0-.18l-.46-.09a.09.09 0 0 0-.08.11l.08.47z" fill="#fff"/><path d="M8.26 52.05a.09.09 0 0 1-.11.08.09.09 0 0 1-.07-.13l.05-.34-.34.07a.09.09 0 0 1 0-.18l.46-.09a.09.09 0 0 1 .08.11l-.08.47z" fill="#fff"/><path d="M10.05 49.55a.15.15 0 1 1-.15.15.15.15 0 0 1 .15-.15z" fill="#fff"/><path d="M9 49a.15.15 0 1 1-.15.15A.15.15 0 0 1 9 49z" fill="#fff"/><path d="M7.81 49.51a.15.15 0 1 1-.15.15.15.15 0 0 1 .15-.15z" fill="#fff"/><path d="M7.29 50.65a.15.15 0 1 1-.15.15.15.15 0 0 1 .15-.15z" fill="#fff"/><path d="M10.64 50.69a.15.15 0 1 1-.15.15.15.15 0 0 1 .15-.15z" fill="#fff"/><path d="M10.1 51.82a.15.15 0 1 1-.15.15.15.15 0 0 1 .15-.15z" fill="#fff"/><path d="M9 52.29a.15.15 0 1 1-.15.15.15.15 0 0 1 .15-.15z" fill="#fff"/><path d="M7.85 51.82a.15.15 0 1 1-.15.18.15.15 0 0 1 .15-.15z" fill="#fff"/><path d="M40.24 46.62a.16.16 0 1 1-.16.16.16.16 0 0 1 .16-.16z" fill="#fff"/><path d="M40.17 46a.07.07 0 1 1 .14 0v.5a.07.07 0 1 1-.14 0V46z" fill="#fff"/><path d="M39.83 45.5a.07.07 0 1 1 .11-.08l.31.44.29-.43a.07.07 0 1 1 .12.08l-.34.51a.07.07 0 0 1-.1 0l-.37-.52z" fill="#fff"/><path d="M40 45.28a.07.07 0 0 1 .11-.08l.15.21.15-.22a.07.07 0 0 1 .12.08l-.2.3a.07.07 0 0 1-.1 0l-.21-.3z" fill="#fff"/><path d="M40.17 47.56a.07.07 0 0 0 .14 0v-.5a.07.07 0 1 0-.14 0v.5z" fill="#fff"/><path d="M39.83 48.07a.07.07 0 0 0 .11.08l.31-.44.29.43a.07.07 0 0 0 .12-.08l-.34-.51a.07.07 0 0 0-.1 0l-.37.52z" fill="#fff"/><path d="M40 48.29a.07.07 0 0 0 .11.08l.15-.21.15.22a.07.07 0 0 0 .1 0 .07.07 0 0 0 0-.1l-.2-.3a.07.07 0 0 0-.1 0l-.21.3z" fill="#fff"/><path d="M41 46.71a.07.07 0 0 1 0 .14h-.5a.07.07 0 0 1 0-.14z" fill="#fff"/><path d="M41.53 46.37a.07.07 0 1 1 .08.11l-.44.31.43.29a.07.07 0 0 1-.08.12l-.52-.34a.07.07 0 0 1 0-.1l.52-.37z" fill="#fff"/><path d="M41.75 46.52a.07.07 0 0 1 .08.11l-.21.15.22.15a.07.07 0 0 1-.08.12l-.3-.2a.07.07 0 0 1 0-.1l.3-.21z" fill="#fff"/><path d="M39.47 46.71a.07.07 0 0 0 0 .14H40a.07.07 0 0 0 0-.14z" fill="#fff"/><path d="M39 46.37a.07.07 0 0 0-.1 0 .07.07 0 0 0 0 .1l.44.31-.43.29a.07.07 0 1 0 .08.12l.51-.34a.07.07 0 0 0 0-.1l-.5-.38z" fill="#fff"/><path d="M38.74 46.52a.07.07 0 0 0-.1 0 .07.07 0 0 0 0 .1l.21.15-.22.15a.07.07 0 1 0 .08.12l.3-.2a.07.07 0 0 0 0-.1l-.3-.21z" fill="#fff"/><path d="M40.84 47.28a.07.07 0 0 1-.1.1l-.35-.38a.07.07 0 0 1 .1-.1l.35.35z" fill="#fff"/><path d="M41.44 47.4a.07.07 0 0 1 0 .14l-.53-.09.1.5a.07.07 0 1 1-.14 0l-.12-.6a.07.07 0 0 1 .08-.06l.63.11z" fill="#fff"/><path d="M41.5 47.66a.07.07 0 0 1 .06.08.07.07 0 0 1-.08.06h-.26l.05.26a.07.07 0 0 1-.06.08.07.07 0 0 1-.08-.06l-.07-.35a.07.07 0 0 1 .08-.06l.36.06z" fill="#fff"/><path d="M39.75 46.19a.07.07 0 0 0-.1.1l.35.35a.07.07 0 0 0 .1 0 .07.07 0 0 0 0-.1l-.35-.35z" fill="#fff"/><path d="M39.63 45.58a.07.07 0 0 0-.08-.06.07.07 0 0 0-.06.08l.09.53-.51-.1a.07.07 0 1 0 0 .14l.6.12a.07.07 0 0 0 .06-.08l-.1-.63z" fill="#fff"/><path d="M39.36 45.53a.07.07 0 0 0-.08-.06.07.07 0 0 0-.06.08v.26h-.26a.07.07 0 1 0 0 .14l.35.07a.07.07 0 0 0 .06-.08l-.06-.36z" fill="#fff"/><path d="M39.75 47.38a.07.07 0 1 1-.1-.1l.35-.35a.07.07 0 0 1 .1 0 .07.07 0 0 1 0 .1l-.35.35z" fill="#fff"/><path d="M39.63 48a.07.07 0 0 1-.08.06.07.07 0 0 1-.06-.08l.09-.53-.51.1a.07.07 0 1 1 0-.14l.6-.12a.07.07 0 0 1 .06.08l-.1.63z" fill="#fff"/><path d="M39.36 48a.07.07 0 0 1-.08.06.07.07 0 0 1-.06-.08v-.26h-.26a.07.07 0 1 1 0-.14l.35-.07a.07.07 0 0 1 .06.08l-.06.36z" fill="#fff"/><path d="M40.84 46.29a.07.07 0 1 0-.1-.1l-.35.35a.07.07 0 1 0 .1.1l.35-.35z" fill="#fff"/><path d="M41.44 46.17a.07.07 0 0 0 0-.14l-.53.09.1-.51a.07.07 0 0 0-.14 0l-.12.6a.07.07 0 0 0 .08.06l.63-.11z" fill="#fff"/><path d="M41.5 45.91a.07.07 0 1 0 0-.14h-.26l.05-.26a.07.07 0 0 0-.06-.08.07.07 0 0 0-.08.06l-.07.35a.07.07 0 0 0 .08.06l.36-.06z" fill="#fff"/><path d="M40.24 44.47a2.31 2.31 0 1 1-2.31 2.31 2.32 2.32 0 0 1 2.31-2.31zm0 .18a2.13 2.13 0 1 1-2.13 2.13 2.13 2.13 0 0 1 2.13-2.13z" fill="#fff"/><path d="M40.33 44.7a.14.14 0 1 1-.14.14.14.14 0 0 1 .14-.14z" fill="#fff"/><path d="M40.86 44.82a.14.14 0 0 1 0 .28.14.14 0 0 1 0-.28z" fill="#fff"/><path d="M41.36 45.1a.14.14 0 1 1-.14.14.14.14 0 0 1 .14-.14z" fill="#fff"/><path d="M41.73 45.44a.14.14 0 1 1-.14.14.14.14 0 0 1 .14-.14z" fill="#fff"/><path d="M42 45.89a.14.14 0 1 1-.14.14.14.14 0 0 1 .14-.14z" fill="#fff"/><path d="M42.13 46.35a.14.14 0 1 1-.14.14.14.14 0 0 1 .14-.14z" fill="#fff"/><path d="M42.13 46.88A.14.14 0 1 1 42 47a.14.14 0 0 1 .14-.14z" fill="#fff"/><path d="M42 47.35a.14.14 0 1 1-.14.14.14.14 0 0 1 .14-.14z" fill="#fff"/><path d="M41.77 47.75a.14.14 0 1 1-.14.14.14.14 0 0 1 .14-.14z" fill="#fff"/><path d="M41.41 48.12a.14.14 0 1 1-.14.14.14.14 0 0 1 .14-.14z" fill="#fff"/><path d="M41 48.38a.14.14 0 1 1-.14.14.14.14 0 0 1 .14-.14z" fill="#fff"/><path d="M40.38 48.52a.14.14 0 1 1-.14.14.14.14 0 0 1 .14-.14z" fill="#fff"/><path d="M39.81 48.48a.14.14 0 1 1-.14.14.14.14 0 0 1 .14-.14z" fill="#fff"/><path d="M39.28 48.27a.14.14 0 1 1-.14.14.14.14 0 0 1 .14-.14z" fill="#fff"/><path d="M38.84 47.93a.14.14 0 1 1-.14.14.14.14 0 0 1 .14-.14z" fill="#fff"/><path d="M38.55 47.51a.14.14 0 1 1-.14.14.14.14 0 0 1 .14-.14z" fill="#fff"/><path d="M38.33 46.94a.14.14 0 1 1-.14.14.14.14 0 0 1 .14-.14z" fill="#fff"/><path d="M38.33 46.33a.14.14 0 1 1-.14.14.14.14 0 0 1 .14-.14z" fill="#fff"/><path d="M38.84 45.32a.14.14 0 1 1-.14.14.14.14 0 0 1 .14-.14z" fill="#fff"/><path d="M38.51 45.77a.14.14 0 1 1-.14.14.14.14 0 0 1 .14-.14z" fill="#fff"/><path d="M39.27 45a.14.14 0 1 1-.14.14.14.14 0 0 1 .14-.14z" fill="#fff"/><path d="M39.78 44.76a.14.14 0 1 1-.14.14.14.14 0 0 1 .14-.14z" fill="#fff"/><path d="M14.65 46.59a.28.28 0 1 1-.28.28.28.28 0 0 1 .28-.28z" fill="#fff"/><path d="M14.51 45.54a.12.12 0 1 1 .24 0v.87a.12.12 0 0 1-.24 0v-.87z" fill="#fff"/><path d="M14.51 47.35a.12.12 0 0 1 .24 0v.87a.12.12 0 0 1-.24 0v-.87z" fill="#fff"/><path d="M13.3 47a.12.12 0 0 1 0-.24h.87a.12.12 0 0 1 0 .24z" fill="#fff"/><path d="M15.1 47a.12.12 0 0 1 0-.24h.9a.12.12 0 1 1 0 .24z" fill="#fff"/><path d="M15.49 45.85a.12.12 0 0 1 .17.17l-.61.61a.12.12 0 0 1-.17-.17l.61-.61z" fill="#fff"/><path d="M14.22 47.12a.12.12 0 1 1 .17.17l-.61.61a.12.12 0 1 1-.17-.17l.61-.61z" fill="#fff"/><path d="M13.6 46a.12.12 0 1 1 .17-.17l.61.61a.12.12 0 1 1-.17.17L13.6 46z" fill="#fff"/><path d="M14.88 47.29a.12.12 0 1 1 .17-.17l.61.61a.12.12 0 0 1-.17.17l-.61-.61z" fill="#fff"/><path d="M14.63 44.8a.36.36 0 1 1-.36.36.36.36 0 0 1 .36-.36z" fill="#fff"/><path d="M14.63 48.15a.36.36 0 1 1-.36.36.36.36 0 0 1 .36-.36z" fill="#fff"/><path d="M16.26 46.51a.36.36 0 1 1-.36.36.36.36 0 0 1 .36-.36z" fill="#fff"/><path d="M13 46.51a.36.36 0 1 1-.36.36.36.36 0 0 1 .36-.36z" fill="#fff"/><path d="M15.8 47.67a.36.36 0 1 1-.36.36.36.36 0 0 1 .36-.36z" fill="#fff"/><path d="M13.46 45.32a.36.36 0 1 1-.36.36.36.36 0 0 1 .36-.36z" fill="#fff"/><path d="M15.82 45.33a.36.36 0 1 1-.36.36.36.36 0 0 1 .36-.36z" fill="#fff"/><path d="M13.46 47.64a.36.36 0 1 1-.36.36.36.36 0 0 1 .36-.36z" fill="#fff"/><path d="M47.86 39.57a.28.28 0 1 1-.28.28.28.28 0 0 1 .28-.28z" fill="#fff"/><path d="M48 39v.42a.12.12 0 1 1-.24 0V39z" fill="#fff"/><path d="M47.71 40.32a.12.12 0 0 1 .24 0v.87a.12.12 0 0 1-.24 0v-.87z" fill="#fff"/><path d="M46.5 40a.12.12 0 0 1 0-.24h.87a.12.12 0 0 1 0 .24z" fill="#fff"/><path d="M48.3 40a.12.12 0 0 1 0-.24h.87a.12.12 0 0 1 0 .24z" fill="#fff"/><path d="M48.87 39l-.61.61a.12.12 0 0 1-.17-.17l.45-.45z" fill="#fff"/><path d="M47.42 40.1a.12.12 0 1 1 .17.17l-.61.61a.12.12 0 0 1-.17-.17l.61-.61z" fill="#fff"/><path d="M46.81 39a.12.12 0 0 1 0-.07h.32l.5.5a.12.12 0 1 1-.17.17l-.65-.6z" fill="#fff"/><path d="M48.08 40.27a.12.12 0 1 1 .17-.17l.61.61a.12.12 0 0 1 0 .17.12.12 0 0 1-.17 0l-.61-.61z" fill="#fff"/><path d="M47.84 41.12a.36.36 0 1 1-.36.36.36.36 0 0 1 .36-.36z" fill="#fff"/><path d="M49.46 39.48a.36.36 0 1 1-.36.36.36.36 0 0 1 .36-.36z" fill="#fff"/><path d="M46.22 39.48a.36.36 0 1 1-.36.36.36.36 0 0 1 .36-.36z" fill="#fff"/><path d="M49 40.65a.36.36 0 1 1-.36.36.36.36 0 0 1 .36-.36z" fill="#fff"/><path d="M46.9 38.93a.36.36 0 0 1-.49 0z" fill="#fff"/><path d="M49.16 39H49a.37.37 0 0 1-.16 0z" fill="#fff"/><path d="M46.66 40.62a.36.36 0 1 1-.36.36.36.36 0 0 1 .36-.36z" fill="#fff"/><path d="M55.17 64.63a.19.19 0 1 1-.19.19.2.2 0 0 1 .19-.19z" fill="#fff"/><path d="M55.07 63.89a.09.09 0 0 1 .17 0v.61a.09.09 0 1 1-.17 0v-.61z" fill="#fff"/><path d="M55.07 65.16a.09.09 0 0 1 .17 0v.61a.09.09 0 1 1-.17 0v-.61z" fill="#fff"/><path d="M54.22 64.92a.09.09 0 1 1 0-.17h.61a.09.09 0 1 1 0 .17z" fill="#fff"/><path d="M55.49 64.92a.09.09 0 1 1 0-.17h.61a.09.09 0 1 1 0 .17z" fill="#fff"/><path d="M55.76 64.11a.09.09 0 0 1 .12.12l-.43.43a.09.09 0 0 1-.12-.12l.43-.43z" fill="#fff"/><path d="M54.87 65a.09.09 0 0 1 .13 0 .08.08 0 0 1 0 .12l-.43.43a.09.09 0 0 1-.12 0 .09.09 0 0 1 0-.12l.43-.43z" fill="#fff"/><path d="M54.43 64.23a.09.09 0 0 1 0-.12.09.09 0 0 1 .12 0l.43.43a.09.09 0 0 1-.12.12l-.43-.43z" fill="#fff"/><path d="M55.33 65.13a.09.09 0 0 1 .12-.12l.43.43a.09.09 0 0 1 0 .12.09.09 0 0 1-.12 0l-.43-.43z" fill="#fff"/><path d="M54.83 63.57a.09.09 0 0 1 .14-.1l.19.26.18-.26a.09.09 0 0 1 .12 0 .09.09 0 0 1 0 .12l-.24.36a.09.09 0 0 1-.12 0l-.26-.36z" fill="#fff"/><path d="M54.83 66.06a.09.09 0 0 0 .14.1l.19-.26.18.26a.09.09 0 1 0 .14-.1l-.24-.36a.09.09 0 0 0-.12 0l-.26.36z" fill="#fff"/><path d="M56.45 65.16a.09.09 0 0 0 .09 0V65l-.26-.19.26-.18v-.13a.09.09 0 0 0-.11 0l-.36.24a.08.08 0 0 0 0 .12l.36.26z" fill="#fff"/><path d="M53.89 65.15a.09.09 0 1 1-.1-.14l.26-.19-.26-.18a.09.09 0 1 1 .1-.14l.36.24a.09.09 0 0 1 0 .12l-.36.26z" fill="#fff"/><path d="M55.78 63.73a.08.08 0 0 1 .1-.07.09.09 0 0 1 .07.1l-.05.32.31-.06a.09.09 0 0 1 .1.07.08.08 0 0 1-.07.1l-.43.08a.08.08 0 0 1-.07-.1l.07-.44z" fill="#fff"/><path d="M54.51 63.73a.09.09 0 0 0-.1-.07.09.09 0 0 0-.07.1l.05.32-.31-.08a.09.09 0 0 0 0 .17l.43.08a.08.08 0 0 0 .07-.1l-.07-.44z" fill="#fff"/><path d="M55.79 65.94a.09.09 0 0 0 .17 0l-.05-.32.31.06a.09.09 0 0 0 0-.17l-.43-.08a.09.09 0 0 0-.07.1l.07.44z" fill="#fff"/><path d="M54.52 65.94a.09.09 0 0 1-.1.07.09.09 0 0 1-.07-.1l.05-.32-.31.06a.09.09 0 0 1-.1-.07.08.08 0 0 1 .07-.1l.43-.08a.09.09 0 0 1 .07.1l-.07.44z" fill="#fff"/><path d="M40.81 80.55a1.21 1.21 0 0 1 1.05.61h.19a1.38 1.38 0 0 0-1.24-.78 1.38 1.38 0 0 0-1.24.77h.19a1.21 1.21 0 0 1 1-.61z" fill="#fff"/><path d="M40.72 80.74a.09.09 0 1 1 .18 0v.41h-.18v-.41z" fill="#fff"/><path d="M41.46 81a.09.09 0 0 1 .13 0 .09.09 0 0 1 0 .13l-.05.05h-.26l.18-.18z" fill="#fff"/><path d="M40 81.11a.09.09 0 0 1 .13-.13l.18.18h-.26z" fill="#fff"/><path d="M3.26 46.86a.55.55 0 1 1 .23.74.55.55 0 0 1-.23-.74z" fill="#fff"/><path d="M4.68 42.65a.31.31 0 1 1 .13.42.31.31 0 0 1-.13-.42z" fill="#fff"/><path d="M8.3 42.12a.31.31 0 1 1 .13.42.31.31 0 0 1-.13-.42z" fill="#fff"/><path d="M18.7 40.16a.2.2 0 1 0 .2.2.2.2 0 0 0-.2-.2z" fill="#fff"/><path d="M12.79 57.23a.18.18 0 1 1-.18.18.18.18 0 0 1 .18-.18z" fill="#fff"/><path d="M6.44 57.4a.36.36 0 1 1-.36.36.36.36 0 0 1 .36-.36z" fill="#fff"/><path d="M10.49 57.41a.2.2 0 1 1-.2.2.2.2 0 0 1 .2-.2z" fill="#fff"/><path d="M9.32 55.11a.36.36 0 1 1-.36.36.36.36 0 0 1 .36-.36z" fill="#fff"/><path d="M11.91 59.35a.2.2 0 1 1-.2.2.2.2 0 0 1 .2-.2z" fill="#fff"/><path d="M18.94 63.75a1.38 1.38 0 1 1-1.38 1.38 1.38 1.38 0 0 1 1.38-1.38zm0 .17a1.21 1.21 0 1 1-1.21 1.21 1.21 1.21 0 0 1 1.21-1.21z" fill="#fff"/><path d="M18.95 64.65a.47.47 0 1 1-.47.47.47.47 0 0 1 .47-.47zm0 .27a.21.21 0 1 1-.21.21.21.21 0 0 1 .21-.21z" fill="#fff"/><path d="M18.84 64.12a.09.09 0 1 1 .18 0v.66a.09.09 0 1 1-.18 0v-.66z" fill="#fff"/><path d="M18.84 65.49a.09.09 0 0 1 .18 0v.66a.09.09 0 1 1-.18 0v-.66z" fill="#fff"/><path d="M17.92 65.22a.09.09 0 1 1 0-.18h.66a.09.09 0 1 1 0 .18z" fill="#fff"/><path d="M19.29 65.22a.09.09 0 1 1 0-.18h.66a.09.09 0 0 1 0 .18z" fill="#fff"/><path d="M19.59 64.35a.09.09 0 0 1 .13.13l-.47.46a.09.09 0 1 1-.13-.13l.47-.46z" fill="#fff"/><path d="M18.62 65.32a.09.09 0 0 1 .13.13l-.47.46a.09.09 0 1 1-.13-.13l.47-.47z" fill="#fff"/><path d="M18.15 64.48a.09.09 0 0 1 0-.13.09.09 0 0 1 .13 0l.47.46a.09.09 0 0 1 0 .13.09.09 0 0 1-.13 0l-.47-.46z" fill="#fff"/><path d="M19.12 65.45a.09.09 0 0 1 0-.13.09.09 0 0 1 .13 0l.47.47a.09.09 0 0 1 0 .13.09.09 0 0 1-.13 0l-.47-.46z" fill="#fff"/><path d="M32.46 38.76a1.21 1.21 0 0 1-1.38 0h-.26a1.38 1.38 0 0 0 1.91 0z" fill="#fff"/><path d="M31.84 38.77a.09.09 0 0 1-.19 0z" fill="#fff"/><path d="M2.94 66a.27.27 0 0 0-.14 0v.5h.09a.27.27 0 1 0 0-.55z" fill="#fff"/><path d="M49 51.34a.55.55 0 1 1-.55.55.55.55 0 0 1 .55-.55z" fill="#fff"/><path d="M34.72 55.35a.31.31 0 1 1-.31.31.31.31 0 0 1 .31-.31z" fill="#fff"/><path d="M46.38 54.61a.27.27 0 1 0 .28.27.27.27 0 0 0-.28-.27z" fill="#fff"/><path d="M51.33 48.73a.27.27 0 1 0 .27.27.28.28 0 0 0-.27-.27z" fill="#fff"/><path d="M42.23 49.88a.27.27 0 1 1-.27.27.27.27 0 0 1 .27-.27z" fill="#fff"/><path d="M34.16 50.79a.27.27 0 1 1-.27.27.27.27 0 0 1 .27-.27z" fill="#fff"/><path d="M42.8 53.48a.45.45 0 1 0 .45.45.45.45 0 0 0-.45-.45z" fill="#fff"/><path d="M42.23 40.87a.55.55 0 1 0-.55-.55.55.55 0 0 0 .55.55z" fill="#fff"/><path d="M44.57 43.48a.27.27 0 1 1 .27-.27.27.27 0 0 1-.27.27z" fill="#fff"/><path d="M35.47 42.33a.27.27 0 1 0-.27-.27.27.27 0 0 0 .27.27z" fill="#fff"/><path d="M27.4 41.42a.27.27 0 1 0-.27-.27.27.27 0 0 0 .27.27z" fill="#fff"/><path d="M55.36 47.65a.27.27 0 1 0-.27-.27.27.27 0 0 0 .27.27z" fill="#fff"/><path d="M51.92 41.26a.27.27 0 1 0-.27-.27.28.28 0 0 0 .27.27z" fill="#fff"/><path d="M51.95 62.36a.55.55 0 1 1 .55-.55.55.55 0 0 1-.55.55z" fill="#fff"/><path d="M54.56 59.09a.27.27 0 1 0-.28-.27.27.27 0 0 0 .28.27z" fill="#fff"/><path d="M49.61 65a.27.27 0 1 0-.27-.27.27.27 0 0 0 .27.27z" fill="#fff"/><path d="M44.58 72.66a.55.55 0 1 1 .55-.55.55.55 0 0 1-.55.55z" fill="#fff"/><path d="M47.19 69.38a.27.27 0 1 0-.27-.27.27.27 0 0 0 .27.27z" fill="#fff"/><path d="M42.24 75.26A.27.27 0 1 0 42 75a.28.28 0 0 0 .27.27z" fill="#fff"/><path d="M51.34 74.12a.27.27 0 1 1 .27-.27.27.27 0 0 1-.27.27z" fill="#fff"/><path d="M50.77 70.51a.45.45 0 1 0-.45-.45.45.45 0 0 0 .45.45z" fill="#fff"/><path d="M52 80.55a.27.27 0 1 0-.37-.12.28.28 0 0 0 .37.12z" fill="#fff"/><path d="M55.68 79.91a.45.45 0 1 0-.61-.19.45.45 0 0 0 .61.19z" fill="#fff"/><path d="M13.87 77.66a.31.31 0 1 1 .13-.42.31.31 0 0 1-.13.42z" fill="#fff"/><path d="M16.14 81.42l-.05-.07a.27.27 0 1 1 .43.08z" fill="#fff"/><path d="M56.31 72.2c-.93-.14-1.78-.28-2.53-.42-16.06-4.64-33.16-1-50.33 1.27.17 2.09.35 4.46.54 7.23 12.83-.2 29.31-1.71 39.06-2.55 4.81-.41 9.05-.79 13.09-1 .06-1.64.12-3.13.17-4.49z" fill="#fff"/><path d="M25.8 63.28c-.27-.13-.52-.24-.77-.34l-.25.12-.31.12a6.39 6.39 0 0 1-1.6.29.2.2 0 0 1 0-.4 5.89 5.89 0 0 0 1.5-.28h.13a14.75 14.75 0 0 0-1.58-.36L22 62.2a9 9 0 0 0-.91.22 3.77 3.77 0 0 0-.85.36.2.2 0 1 1-.21-.34 4.12 4.12 0 0 1 .94-.4l.23-.07-.75-.24h-.46a3.31 3.31 0 0 0-1 .05.2.2 0 1 1-.1-.39 2.47 2.47 0 0 1 .46-.07c-.42-.19-.88-.42-1.38-.7a.2.2 0 1 1 .19-.35 17.49 17.49 0 0 0 1.81.88l-.18-.26a3.19 3.19 0 0 1-.39-.81.2.2 0 1 1 .38-.12 2.8 2.8 0 0 0 .35.71 6.66 6.66 0 0 0 .51.66.21.21 0 0 1 0 .09A15.44 15.44 0 0 0 23 62l.28.05a6.18 6.18 0 0 1-1.37-1.22.2.2 0 1 1 .32-.23 6.43 6.43 0 0 0 1.49 1.27l.34.21.31.17.06.06a8.73 8.73 0 0 1 1.4.52v-.63a18.69 18.69 0 0 1-3.72-2.2c-.47-.09-.93-.19-1.4-.3h-.44a3.36 3.36 0 0 0-.84.08.2.2 0 0 1-.09-.39h.07a13.8 13.8 0 0 1-1.9-.74.2.2 0 1 1 .17-.36 13.84 13.84 0 0 0 2.25.84l.85.22.5.08a.2.2 0 0 1 .11.06q-.69-.56-1.34-1.19h-.06a5.35 5.35 0 0 0-1.29-.42 10.61 10.61 0 0 0-1.31-.16.2.2 0 0 1 0-.4 10.77 10.77 0 0 1 1.36.17l.58.14q-.9-.93-1.72-2a.2.2 0 0 1 .31-.25 24.39 24.39 0 0 0 3.69 3.8l.64.5a18.28 18.28 0 0 0 3.48 2.05v-.13l-.07-.05a16.42 16.42 0 0 0-2-2.2 5.75 5.75 0 0 0-2.6-1.32.2.2 0 0 1 .08-.39 5.81 5.81 0 0 1 2 .84l-.32-.32-.3-.27-.32-.25a.2.2 0 0 1 .25-.31l.33.27.32.28a7.41 7.41 0 0 1 1.35 1.65A19 19 0 0 1 25.81 61v-.87A18.54 18.54 0 0 0 23 57.38l-.43-.38a4 4 0 0 0-1.39-.2 5 5 0 0 0-1.37.25.2.2 0 0 1-.12-.38 5.45 5.45 0 0 1 1.48-.27h.43a7.44 7.44 0 0 0-2-.69.2.2 0 0 1 .08-.39 8.55 8.55 0 0 1 3.57 1.7l.3.24v-.08l-.1-.18c0-.09 0-.17-.06-.26a.2.2 0 0 1 .16-.24h.08a12.77 12.77 0 0 0-1.1-.69A7.88 7.88 0 0 0 19 54.67a.2.2 0 1 1 0-.4 7.57 7.57 0 0 1 1.81.3 3.1 3.1 0 0 1-.71-1.34.2.2 0 1 1 .39-.1 2.71 2.71 0 0 0 .64 1.19 3.57 3.57 0 0 0 1.09.79c-.16-.22-.32-.44-.47-.67a7.65 7.65 0 0 1-.82-1.6.2.2 0 0 1 .38-.13 7.21 7.21 0 0 0 .78 1.52l.18.27a3.32 3.32 0 0 1-.06-.92.2.2 0 1 1 .4 0 3.92 3.92 0 0 0 .39 1.94v.06a19.8 19.8 0 0 1 2.74 2.08v-1l-2.82-2a.2.2 0 0 1 .24-.33l.78.57a5.23 5.23 0 0 1-.4-.73A.2.2 0 1 1 24 54a5.09 5.09 0 0 0 .52.9 9.78 9.78 0 0 0 .69.84l.61.45v-1.84a14.74 14.74 0 0 1-1.95-1.18 5.78 5.78 0 0 0-.68-.06 2.28 2.28 0 0 0-.67.08.2.2 0 1 1-.11-.38 2.67 2.67 0 0 1 .79-.1h.06L23 52.5a8 8 0 0 0-1.25 0 9.87 9.87 0 0 0-1.3.14.2.2 0 1 1-.07-.4 10.3 10.3 0 0 1 1.35-.15h.74l-.54-.48a1.91 1.91 0 0 0-.44-.07h-.09a3.94 3.94 0 0 0-.58 0 .2.2 0 0 1 0-.4 4.32 4.32 0 0 1 .65 0l-.47-.47a.2.2 0 0 1 .29-.28 22.79 22.79 0 0 0 2.31 2.07v-.24a.2.2 0 1 1 .4 0v.19a2.07 2.07 0 0 0 .14.47 14.49 14.49 0 0 0 1.73 1.06v-1a5.75 5.75 0 0 1-1.41-.84h-.09a3.81 3.81 0 0 0-.83-.46 9 9 0 0 0-1.09-.36.2.2 0 0 1 .1-.39c.32.09.63.18.92.29l-.24-.28a.2.2 0 1 1 .3-.26 8.89 8.89 0 0 0 1.17 1.16 5.49 5.49 0 0 0 1.2.75v-.85h-.08l-1.46-1.2q-.74 0-1.46-.06c-.5 0-1-.1-1.52-.18a.2.2 0 0 1 .06-.39l.86.12-.14-.2a7.18 7.18 0 0 1-.35-.66.2.2 0 1 1 .36-.17 6.47 6.47 0 0 0 .33.62 2.45 2.45 0 0 0 .37.47h.05c.37 0 .73 0 1.09.05a11.08 11.08 0 0 1-.65-1c-.34-.07-.68-.14-1-.24a5.17 5.17 0 0 1-1.05-.43.2.2 0 0 1 .19-.35 4.8 4.8 0 0 0 1 .39l.65.16c-.22-.41-.42-.84-.62-1.27a.2.2 0 1 1 .37-.16c.24.53.49 1 .77 1.55v.06a10.2 10.2 0 0 0 .9 1.34l1.33 1.1v-1.51a.2.2 0 0 1-.16 0c-.3-.22-.61-.43-.92-.67h-.86a.2.2 0 1 1 0-.4h.33a11.75 11.75 0 0 1-1-1 .2.2 0 0 1 .3-.27c.24.26.48.5.72.71l-.54-1a.2.2 0 1 1 .35-.19l1 1.87c.27.21.54.4.81.59v-1.17a4 4 0 0 0-.75-1l-.17-.15-.16-.12a.2.2 0 0 1 .15-.34l.19.14.19.17a4.61 4.61 0 0 1 .51.58V47a.2.2 0 0 1-.13 0 4.6 4.6 0 0 1-.65-.66h-.31a2.6 2.6 0 0 0-1.13 0 .2.2 0 0 1-.09-.39 2.93 2.93 0 0 1 1.19 0 6.3 6.3 0 0 1-.61-1.37.2.2 0 1 1 .38-.12 5.86 5.86 0 0 0 .62 1.36 4.39 4.39 0 0 0 .75.89v-1.42a.2.2 0 0 1-.08-.08 3.54 3.54 0 0 0-.66-.89l-.17-.14-.15-.11a.2.2 0 0 1 .21-.34l.18.14-.08-.37a.2.2 0 1 1 .39-.08l.21 1 .11.14c0-.22 0-2.1.26-2.1s.26 1.57.26 2l.21-1a.2.2 0 1 1 .39.08l-.08.37.18-.13a.2.2 0 0 1 .21.34l-.15.11-.15.13a3.63 3.63 0 0 0-.66.89v1.22a4.34 4.34 0 0 0 .68-.83 6 6 0 0 0 .62-1.36.2.2 0 1 1 .38.12 6.49 6.49 0 0 1-.62 1.37 2.89 2.89 0 0 1 1.19 0 .2.2 0 1 1-.09.39 2.58 2.58 0 0 0-1.12 0h-.31a4.59 4.59 0 0 1-.65.66h-.05v.45a4.63 4.63 0 0 1 .45-.49l.19-.17.19-.14a.2.2 0 0 1 .21.34l-.16.12-.17.15a4 4 0 0 0-.72.91v1.16l.74-.54 1-1.87a.2.2 0 1 1 .35.19L28 48c.24-.22.48-.45.72-.71a.2.2 0 0 1 .29.27 11.8 11.8 0 0 1-1.05 1h.33a.2.2 0 1 1 0 .4h-.87c-.31.23-.61.45-.92.67h-.09v1.43l1.27-1a10.37 10.37 0 0 0 .95-1.41c.28-.5.53-1 .77-1.55a.2.2 0 1 1 .36.16c-.19.43-.39.86-.62 1.27l.65-.16a4.79 4.79 0 0 0 1-.39.2.2 0 0 1 .19.35 5.24 5.24 0 0 1-1.05.43c-.33.1-.68.17-1 .24a11.21 11.21 0 0 1-.65 1c.36 0 .73 0 1.1-.05h.06a2.46 2.46 0 0 0 .36-.47 6.53 6.53 0 0 0 .33-.62.2.2 0 1 1 .36.17 7.34 7.34 0 0 1-.35.66l-.13.2.86-.12a.2.2 0 0 1 .06.39q-.77.12-1.52.18t-1.46.06l-1.46 1.2v.79a5.56 5.56 0 0 0 1.14-.72 9.08 9.08 0 0 0 1.18-1.16.2.2 0 0 1 .3.26l-.24.27c.29-.11.59-.2.91-.29a.2.2 0 0 1 .1.39 8.93 8.93 0 0 0-1.09.36 3.86 3.86 0 0 0-.84.46h-.09a5.79 5.79 0 0 1-1.36.82v1a14.67 14.67 0 0 0 1.67-1 2 2 0 0 0 .11-.32 1.85 1.85 0 0 0 .05-.35.2.2 0 1 1 .4 0 2.35 2.35 0 0 1 0 .26A22.42 22.42 0 0 0 31 50.35a.2.2 0 0 1 .29.28l-.47.47a4.27 4.27 0 0 1 .65 0 .2.2 0 0 1 0 .4 4 4 0 0 0-.58 0h-.1a2 2 0 0 0-.43.07l-.54.48h.74a10.32 10.32 0 0 1 1.35.15.2.2 0 1 1-.07.4 9.89 9.89 0 0 0-1.3-.14 8 8 0 0 0-1.25 0l-.25.2H29a2.65 2.65 0 0 1 .79.1.2.2 0 1 1-.11.38 2.27 2.27 0 0 0-.68-.04 5.63 5.63 0 0 0-.68.06 15.08 15.08 0 0 1-1.93 1.17v1.8l.56-.4a9.86 9.86 0 0 0 .69-.84 4.92 4.92 0 0 0 .52-.9.2.2 0 0 1 .37.16 5.11 5.11 0 0 1-.4.73l.78-.57a.2.2 0 0 1 .24.33l-2.77 2v1a19.71 19.71 0 0 1 2.68-2l.05-.06a7.08 7.08 0 0 0 .34-.91 3 3 0 0 0 .11-1 .2.2 0 1 1 .4 0 3.33 3.33 0 0 1-.06.92l.18-.27a7.09 7.09 0 0 0 .77-1.52.2.2 0 1 1 .38.13 7.58 7.58 0 0 1-.81 1.6c-.15.23-.31.45-.47.67a3.61 3.61 0 0 0 1.08-.79 2.75 2.75 0 0 0 .64-1.19.2.2 0 0 1 .39.1 3.16 3.16 0 0 1-.72 1.34 7.59 7.59 0 0 1 1.82-.31.2.2 0 1 1 0 .4 7.89 7.89 0 0 0-3.55 1.07 12.78 12.78 0 0 0-1.1.7h.09a.2.2 0 0 1 .16.24c0 .08 0 .17-.06.25s-.06.18-.09.27v.08l.29-.23a8.54 8.54 0 0 1 3.57-1.7.2.2 0 0 1 .08.39 7.43 7.43 0 0 0-2 .69h.43a5.46 5.46 0 0 1 1.48.27.2.2 0 1 1-.12.38 5 5 0 0 0-1.37-.25 4 4 0 0 0-1.39.2l-.46.33a18.3 18.3 0 0 0-2.74 2.74V61c.4-.48.81-1 1.24-1.39a7.32 7.32 0 0 1 1.35-1.65l.32-.28.33-.27a.2.2 0 0 1 .25.31l-.32.25-.3.27-.33.32a5.82 5.82 0 0 1 2-.85.2.2 0 0 1 .08.39 5.77 5.77 0 0 0-2.6 1.32 16.52 16.52 0 0 0-2 2.2v.14a18.28 18.28 0 0 0 3.43-2h.05l.63-.49a24.46 24.46 0 0 0 3.69-3.8.2.2 0 1 1 .31.25q-.82 1-1.72 2l.58-.14a10.71 10.71 0 0 1 1.36-.17.2.2 0 0 1 0 .4 10.48 10.48 0 0 0-1.31.16 5.36 5.36 0 0 0-1.29.42h-.06q-.65.62-1.34 1.19a.2.2 0 0 1 .11-.06l.49-.08.85-.22a13.84 13.84 0 0 0 2.25-.84.2.2 0 1 1 .17.36 13.76 13.76 0 0 1-1.9.74h.07a.2.2 0 1 1-.09.39 3.43 3.43 0 0 0-.85-.08h-.44c-.46.11-.93.21-1.4.3a18.63 18.63 0 0 1-3.66 2.14v.63a8.81 8.81 0 0 1 1.37-.51l.06-.05.3-.17.33-.21A6.39 6.39 0 0 0 30 60.6a.2.2 0 1 1 .32.23A6.15 6.15 0 0 1 29 62l.28-.05a15.41 15.41 0 0 0 2.33-.58.21.21 0 0 1 0-.09 6.4 6.4 0 0 0 .51-.66 2.76 2.76 0 0 0 .34-.71.2.2 0 0 1 .38.12 3.15 3.15 0 0 1-.39.81l-.18.26a17.52 17.52 0 0 0 1.81-.88.2.2 0 0 1 .19.35c-.5.28-1 .5-1.38.7a2.5 2.5 0 0 1 .46.07.2.2 0 0 1-.1.39 3.29 3.29 0 0 0-1-.05h-.46l-.69.32.23.07a4 4 0 0 1 .94.4.2.2 0 1 1-.21.34 3.69 3.69 0 0 0-.85-.36 9 9 0 0 0-.92-.22l-.92.18a14.87 14.87 0 0 0-1.58.36h.13a5.88 5.88 0 0 0 1.49.28.2.2 0 0 1 0 .4 6.39 6.39 0 0 1-1.6-.29l-.31-.11-.26-.12a7.4 7.4 0 0 0-.73.32l.05 11.34a.4.4 0 1 1-.8 0l.09-11.32zm.64-5.1v1.32c.36-.42.74-.83 1.12-1.21a.2.2 0 0 1 .05-.1 3.16 3.16 0 0 0 .69-1.12l.08-.24q0-.11.06-.22a.22.22 0 0 1 0-.07 24.8 24.8 0 0 0-2 1.64zm-.63 1.37v-1.34h-.06a24.67 24.67 0 0 0-2-1.64.22.22 0 0 1 0 .07c0 .07 0 .15.06.23l.08.23a3.23 3.23 0 0 0 .68 1.12.19.19 0 0 1 .05.09c.4.4.79.83 1.17 1.27z" fill="#fff"/><path d="M39.25 67.44a14.06 14.06 0 0 1-1.86-1.12 3.13 3.13 0 0 0-1.29 0A.19.19 0 0 1 36 66a2.62 2.62 0 0 1 .81-.09l-.24-.19a8.53 8.53 0 0 0-2.43.1.19.19 0 0 1-.07-.38 9.27 9.27 0 0 1 2-.14l-.51-.46a2.68 2.68 0 0 0-1.07 0 .19.19 0 0 1 0-.38 3.57 3.57 0 0 1 .63 0l-.45-.45a.19.19 0 0 1 .27-.27 22.31 22.31 0 0 0 2.25 2V65.51a.19.19 0 1 1 .38 0v.09a1.5 1.5 0 0 0 .15.54 13.84 13.84 0 0 0 1.65 1v-.94c-.82-.32-1.43-1-2.25-1.29a8.69 8.69 0 0 0-1-.35.19.19 0 0 1 .1-.37c.31.08.6.18.87.28l-.23-.27a.19.19 0 0 1 .29-.25 6.63 6.63 0 0 0 2.26 1.83v-.75h-.08l-1.4-1.15a18.72 18.72 0 0 1-2.84-.22.19.19 0 0 1 .06-.38l.82.11a5.29 5.29 0 0 1-.46-.83.19.19 0 0 1 .34-.17 3.54 3.54 0 0 0 .67 1c.36 0 .73 0 1.09.06a10.42 10.42 0 0 1-.62-1 6.73 6.73 0 0 1-2-.64.19.19 0 0 1 .18-.34 5.62 5.62 0 0 0 1.55.53c-.21-.39-.4-.8-.59-1.22a.19.19 0 0 1 .35-.16A12.81 12.81 0 0 0 38 63.4l1.27 1V63a.19.19 0 0 1-.15 0c-.29-.2-.58-.41-.87-.64-.21 0-1 .08-1-.23s.35-.18.51-.17a11.06 11.06 0 0 1-1-1 .19.19 0 0 1 .28-.26c.23.25.46.47.69.68l-.51-.94a.19.19 0 0 1 .34-.18l1 1.78.77.56v-1.02a3.34 3.34 0 0 0-1-1.18c0-.08-.15-.1-.06-.26s.27-.06.27-.06a3.58 3.58 0 0 1 .85.84v-.49c-.23 0-.61-.51-.74-.68a2.67 2.67 0 0 0-1.39-.13.19.19 0 0 1-.09-.37 2.81 2.81 0 0 1 1.13 0 6 6 0 0 1-.58-1.31.19.19 0 0 1 .28-.14 4.88 4.88 0 0 0 1.3 2.15v-1.16a.2.2 0 0 1-.08-.08 2.94 2.94 0 0 0-.92-1.08c0-.08-.15-.11-.06-.26s.27-.06.27-.06l.19.14c0-.16-.18-.53.07-.58A.19.19 0 0 1 39 57a3.06 3.06 0 0 0 .3 1.1c0-.32 0-2 .25-2s.25 1.5.25 1.93c.16-.21.08-1.22.46-1.15s.11.42.07.58c.11-.09.33-.29.46-.08s-.23.38-.35.49a4.47 4.47 0 0 0-.64.86v1.16A4.94 4.94 0 0 0 41 57.8a.19.19 0 0 1 .36.12 6.15 6.15 0 0 1-.59 1.31 2.8 2.8 0 0 1 1.13 0 .19.19 0 0 1-.09.37 2.74 2.74 0 0 0-1.39.13 2.42 2.42 0 0 1-.67.66v.43a3.49 3.49 0 0 1 .85-.82.19.19 0 0 1 .21.32 3.32 3.32 0 0 0-1 1.12v1.16l.7-.51 1-1.78a.19.19 0 0 1 .34.18l-.51.94c.23-.21.46-.43.69-.68a.19.19 0 0 1 .28.26 11.33 11.33 0 0 1-1 1c.16 0 .5-.08.51.17s-.8.22-1 .23c-.29.22-.58.43-.88.64h-.09v1.35l1.21-1a12.77 12.77 0 0 0 1.64-2.83.19.19 0 0 1 .35.16c-.18.41-.38.82-.59 1.22a5.62 5.62 0 0 0 1.54-.54.19.19 0 0 1 .18.33 6.67 6.67 0 0 1-2 .64 10.6 10.6 0 0 1-.62 1q.55 0 1.1-.06a3.62 3.62 0 0 0 .66-1 .19.19 0 0 1 .34.17 5.43 5.43 0 0 1-.46.83l.82-.11a.19.19 0 0 1 .06.38 18.78 18.78 0 0 1-2.85.23l-1.4 1.15v.75A6.75 6.75 0 0 0 42 63.84a.19.19 0 0 1 .29.25l-.23.26c.27-.1.56-.19.87-.28a.19.19 0 0 1 .1.37 5.41 5.41 0 0 0-1.85.79 6.75 6.75 0 0 1-1.38.82V67a13.92 13.92 0 0 0 1.59-1 1.77 1.77 0 0 0 .15-.64.19.19 0 0 1 .38 0 2.41 2.41 0 0 1 0 .25 21.54 21.54 0 0 0 2.25-2 .19.19 0 0 1 .27.27l-.45.45a4.11 4.11 0 0 1 .63 0 .19.19 0 1 1-.05.38 2.67 2.67 0 0 0-1.06 0l-.51.46a9.28 9.28 0 0 1 2 .14.19.19 0 0 1-.07.38 8.52 8.52 0 0 0-2.44-.1l-.24.19a2.62 2.62 0 0 1 .81.09.19.19 0 0 1-.11.37 3.14 3.14 0 0 0-1.29 0 14.22 14.22 0 0 1-1.84 1.11v3.72a1 1 0 0 0-.59.07v-3.77zm5-1.69z" fill="#fff"/><path d="M34.25 64.57h-.09c-.21 0-.3.31-.39.41s-.31 0-.31.49v.15c0 .27.2.33.2.6v.45a2.24 2.24 0 0 1-.91 1.4 2.28 2.28 0 0 1-.38.22c-.44.21-.87.32-1 .53.08.2-.35.88-.14.87h.07l.27.16c.12.07.2.16.16.16h-1.2v-.25l-.49-.8s-.67.48-.73.53.07.53-.18.52h-1.6c-.22 0-.33-.27-.33-.47l-.11-.34c0-.25 1.14-.93 1.31-1.17h-.1c.06-.24.36-.39.51-.54s.3-.48.42-.63a6 6 0 0 1 1.16-1 16 16 0 0 1 1.61-.59c.46-.26.43-.94.89-1.25v-.33c0-.06 0-.07.06-.07H33v-.06c0-.08 0-.07.05 0a3.25 3.25 0 0 1 .73.38 3.29 3.29 0 0 1 .48.6c.05.1 0 .08 0 .1zM30.6 69l.2-.06a3.51 3.51 0 0 1 .07.68c0 .07 0 .09-.11 0a2 2 0 0 1-.16-.62z" fill="#fff"/><path d="M25.73 39a.07.07 0 0 1-.13 0z" fill="#bd86bb"/><path d="M26.07 39.5a.07.07 0 1 1-.11.08l-.31-.44-.29.43a.07.07 0 0 1-.1 0 .07.07 0 0 1 0-.1l.32-.47h.16l.35.49z" fill="#bd86bb"/><path d="M25.92 39.72a.07.07 0 0 1 0 .1.07.07 0 0 1-.1 0l-.15-.21-.15.22a.07.07 0 0 1-.12-.08l.2-.3a.07.07 0 0 1 .1 0l.21.3z" fill="#bd86bb"/><path d="M25 39.05l-.07.33a.07.07 0 0 0 .06.08.07.07 0 0 0 .08-.06l.07-.37z" fill="#bd86bb"/><path d="M24.41 39.09a.07.07 0 0 0 0 .14h.26v.26a.07.07 0 1 0 .14 0l.07-.35h-.42z" fill="#bd86bb"/><path d="M26.77 39h.06a.07.07 0 0 0 .06 0zm-.5.46a.07.07 0 1 0 .14 0l-.07-.46h-.14l.07.44z" fill="#bd86bb"/><path d="M26.54 39.47a.07.07 0 0 0 .14 0v-.26h.26a.07.07 0 0 0 .08-.06.07.07 0 0 0-.06-.08l-.39-.07a.07.07 0 0 0-.06.08l.06.36z" fill="#bd86bb"/><path d="M23.73 39.12a2.13 2.13 0 0 0 3.94-.21h.2a2.32 2.32 0 0 1-4.34.23z" fill="#bd86bb"/><path d="M24.14 39.18a.14.14 0 1 0 .14.14.14.14 0 0 0-.14-.14z" fill="#bd86bb"/><path d="M24.49 39.55a.14.14 0 1 0 .14.14.14.14 0 0 0-.14-.14z" fill="#bd86bb"/><path d="M24.93 39.81a.14.14 0 1 0 .14.14.14.14 0 0 0-.14-.14z" fill="#bd86bb"/><path d="M25.52 40a.14.14 0 1 0 .14.14.14.14 0 0 0-.14-.14z" fill="#bd86bb"/><path d="M26.1 39.92a.14.14 0 1 0 .14.14.14.14 0 0 0-.14-.14z" fill="#bd86bb"/><path d="M26.62 39.71a.14.14 0 1 0 .14.14.14.14 0 0 0-.14-.14z" fill="#bd86bb"/><path d="M27.06 39.36a.14.14 0 1 0 .14.14.14.14 0 0 0-.14-.14z" fill="#bd86bb"/><path d="M27.35 38.94a.14.14 0 1 0 .14.14.14.14 0 0 0-.14-.14z" fill="#bd86bb"/><path d="M9.08 42.65a.28.28 0 1 0 .28.28.28.28 0 0 0-.28-.28z" fill="#bd86bb"/><path d="M9.22 41.6a.12.12 0 0 0-.24 0v.87a.12.12 0 1 0 .24 0v-.87z" fill="#bd86bb"/><path d="M9.22 43.41a.12.12 0 1 0-.24 0v.87a.12.12 0 0 0 .24 0v-.87z" fill="#bd86bb"/><path d="M10.43 43.06a.12.12 0 1 0 0-.24h-.86a.12.12 0 1 0 0 .24z" fill="#bd86bb"/><path d="M8.63 43.06a.12.12 0 0 0 0-.24h-.87a.12.12 0 1 0 0 .24z" fill="#bd86bb"/><path d="M8.24 41.91a.12.12 0 0 0-.17 0 .12.12 0 0 0 0 .17l.61.61a.12.12 0 1 0 .17-.17l-.61-.61z" fill="#bd86bb"/><path d="M9.51 43.18a.12.12 0 0 0-.17.17L10 44a.12.12 0 0 0 .17-.17l-.61-.61z" fill="#bd86bb"/><path d="M10.13 42.08a.12.12 0 0 0-.17-.17l-.61.61a.12.12 0 1 0 .17.17l.61-.61z" fill="#bd86bb"/><path d="M8.85 43.36a.12.12 0 0 0-.17-.17l-.61.61a.12.12 0 0 0 0 .17.12.12 0 0 0 .17 0l.61-.61z" fill="#bd86bb"/><path d="M9.1 40.86a.36.36 0 1 0 .36.36.36.36 0 0 0-.36-.36z" fill="#bd86bb"/><path d="M9.1 44.21a.36.36 0 1 0 .36.36.36.36 0 0 0-.36-.36z" fill="#bd86bb"/><path d="M7.47 42.57a.36.36 0 1 0 .36.36.36.36 0 0 0-.36-.36z" fill="#bd86bb"/><path d="M10.71 42.57a.36.36 0 1 0 .36.36.36.36 0 0 0-.36-.36z" fill="#bd86bb"/><path d="M7.93 43.73a.36.36 0 1 0 .36.36.36.36 0 0 0-.36-.36z" fill="#bd86bb"/><path d="M10.27 41.38a.36.36 0 1 0 .36.36.36.36 0 0 0-.36-.36z" fill="#bd86bb"/><path d="M7.91 41.39a.36.36 0 1 0 .36.36.36.36 0 0 0-.36-.36z" fill="#bd86bb"/><path d="M10.27 43.7a.36.36 0 1 0 .36.36.36.36 0 0 0-.36-.36z" fill="#bd86bb"/><path d="M5.62 50.94a.19.19 0 1 0 .19.19.19.19 0 0 0-.19-.19z" fill="#bd86bb"/><path d="M5.72 50.2a.09.09 0 1 0-.17 0v.61a.09.09 0 1 0 .17 0v-.61z" fill="#bd86bb"/><path d="M5.72 51.47a.09.09 0 1 0-.17 0v.61a.09.09 0 1 0 .17 0v-.61z" fill="#bd86bb"/><path d="M6.58 51.23a.09.09 0 1 0 0-.17H6a.09.09 0 1 0 0 .17z" fill="#bd86bb"/><path d="M5.31 51.23a.09.09 0 0 0 0-.17H4.7a.09.09 0 1 0 0 .17z" fill="#bd86bb"/><path d="M5 50.42a.09.09 0 0 0-.12.12l.43.43a.09.09 0 0 0 .12 0 .09.09 0 0 0 0-.12L5 50.42z" fill="#bd86bb"/><path d="M5.93 51.32a.09.09 0 0 0-.12 0 .09.09 0 0 0 0 .12l.43.43a.09.09 0 1 0 .12-.12l-.43-.43z" fill="#bd86bb"/><path d="M6.36 50.54a.09.09 0 0 0-.12-.12l-.43.43a.09.09 0 0 0 .12.12l.43-.43z" fill="#bd86bb"/><path d="M5.46 51.44a.08.08 0 0 0 0-.12.09.09 0 0 0-.12 0l-.43.43a.09.09 0 1 0 .12.12l.43-.43z" fill="#bd86bb"/><path d="M6 49.88a.08.08 0 0 0 0-.12.09.09 0 0 0-.12 0l-.24.24-.18-.26a.09.09 0 0 0-.14.1l.24.36a.08.08 0 0 0 .12 0l.32-.32z" fill="#bd86bb"/><path d="M6 52.37a.09.09 0 0 1-.14.1l-.19-.26-.18.26a.09.09 0 1 1-.14-.1l.21-.37a.08.08 0 0 1 .12 0l.26.36z" fill="#bd86bb"/><path d="M4.35 51.47a.09.09 0 0 1-.12 0 .09.09 0 0 1 0-.12l.26-.19-.25-.16a.09.09 0 0 1 .1-.14l.36.24a.08.08 0 0 1 0 .12l-.36.26z" fill="#bd86bb"/><path d="M6.9 51.46a.09.09 0 1 0 .1-.14l-.26-.19L7 51a.09.09 0 0 0-.1-.14l-.36.24a.09.09 0 0 0 0 .12l.36.26z" fill="#bd86bb"/><path d="M5 50a.09.09 0 0 0-.17 0l.05.32-.31-.06a.09.09 0 1 0 0 .17l.43.08a.08.08 0 0 0 .07-.1L5 50z" fill="#bd86bb"/><path d="M6.29 50a.09.09 0 1 1 .17 0l-.05.32.31-.06a.08.08 0 0 1 .1.07.09.09 0 0 1-.07.1l-.43.08a.09.09 0 0 1-.07-.1l.04-.41z" fill="#bd86bb"/><path d="M5 52.25a.09.09 0 0 1-.1.07.08.08 0 0 1-.07-.1l.05-.32-.3.1a.09.09 0 0 1 0-.17l.42-.12a.09.09 0 0 1 .07.1l-.07.44z" fill="#bd86bb"/><path d="M6.28 52.25a.09.09 0 0 0 .17 0l-.05-.35.31.06a.09.09 0 1 0 0-.17l-.43-.08a.08.08 0 0 0-.07.1l.07.44z" fill="#bd86bb"/><path d="M23.18 67.5a.16.16 0 1 0 .16.16.16.16 0 0 0-.16-.16z" fill="#bd86bb"/><path d="M23.25 66.89a.07.07 0 0 0-.14 0v.5a.07.07 0 0 0 .14 0v-.5z" fill="#bd86bb"/><path d="M23.59 66.38a.07.07 0 0 0 0-.1.07.07 0 0 0-.1 0l-.31.44-.29-.43a.07.07 0 0 0-.12.08l.34.51a.07.07 0 0 0 .1 0l.37-.52z" fill="#bd86bb"/><path d="M23.44 66.16a.07.07 0 0 0 0-.1.07.07 0 0 0-.1 0l-.15.21-.19-.2a.07.07 0 0 0-.1 0 .07.07 0 0 0 0 .1l.2.3a.07.07 0 0 0 .1 0l.21-.3z" fill="#bd86bb"/><path d="M23.25 68.44a.07.07 0 1 1-.14 0v-.5a.07.07 0 1 1 .14 0v.5z" fill="#bd86bb"/><path d="M23.59 68.95a.07.07 0 0 1 0 .1.07.07 0 0 1-.1 0l-.31-.44-.29.43a.07.07 0 0 1-.1 0 .07.07 0 0 1 0-.1l.34-.51a.07.07 0 0 1 .1 0l.37.52z" fill="#bd86bb"/><path d="M23.44 69.17a.07.07 0 0 1-.11.08l-.16-.25-.15.22a.07.07 0 0 1-.1 0 .07.07 0 0 1 0-.1l.2-.3a.07.07 0 0 1 .1 0l.21.3z" fill="#bd86bb"/><path d="M22.4 67.59a.07.07 0 0 0 0 .14h.5a.07.07 0 0 0 0-.14z" fill="#bd86bb"/><path d="M21.9 67.25a.07.07 0 0 0-.08.11l.44.31-.43.29a.07.07 0 1 0 .08.12l.51-.34a.07.07 0 0 0 0-.1l-.52-.37z" fill="#bd86bb"/><path d="M21.67 67.4a.07.07 0 0 0-.1 0 .07.07 0 0 0 0 .1l.21.15-.22.15a.07.07 0 1 0 .08.12l.3-.2a.07.07 0 0 0 0-.1l-.3-.21z" fill="#bd86bb"/><path d="M24 67.59a.07.07 0 0 1 0 .14h-.5a.07.07 0 0 1 0-.14z" fill="#bd86bb"/><path d="M24.46 67.25a.07.07 0 0 1 .08.11l-.44.31.43.29a.07.07 0 0 1-.08.12l-.51-.34a.07.07 0 0 1 0-.1l.52-.37z" fill="#bd86bb"/><path d="M24.69 67.4a.07.07 0 0 1 .1 0 .07.07 0 0 1 0 .1l-.21.15.22.15a.07.07 0 0 1 0 .1.07.07 0 0 1-.1 0l-.3-.2a.07.07 0 0 1 0-.1l.3-.21z" fill="#bd86bb"/><path d="M22.58 68.16a.07.07 0 1 0 .1.1l.35-.35a.07.07 0 1 0-.1-.1l-.35.35z" fill="#bd86bb"/><path d="M22 68.28a.07.07 0 0 0 0 .14l.53-.09-.1.51a.07.07 0 0 0 .14 0l.12-.6a.07.07 0 0 0-.08-.06l-.63.1z" fill="#bd86bb"/><path d="M21.93 68.54a.07.07 0 0 0 0 .14h.26v.26a.07.07 0 0 0 .14 0l.07-.35a.07.07 0 0 0-.08-.06l-.36.06z" fill="#bd86bb"/><path d="M23.68 67.07a.07.07 0 0 1 .1 0 .07.07 0 0 1 0 .1l-.35.35a.07.07 0 0 1-.1-.1l.35-.35z" fill="#bd86bb"/><path d="M23.79 66.46a.07.07 0 0 1 .14 0l-.09.53.5-.1a.07.07 0 1 1 0 .14l-.6.12a.07.07 0 0 1-.06-.08l.11-.63z" fill="#bd86bb"/><path d="M24.06 66.41a.07.07 0 0 1 .14 0v.26h.26a.07.07 0 1 1 0 .14l-.35.07a.07.07 0 0 1-.06-.08l.06-.36z" fill="#bd86bb"/><path d="M23.68 68.27a.07.07 0 1 0 .1-.1l-.35-.35a.07.07 0 0 0-.1 0 .07.07 0 0 0 0 .1l.35.35z" fill="#bd86bb"/><path d="M23.79 68.87a.07.07 0 1 0 .14 0l-.09-.53.5.1a.07.07 0 1 0 0-.14l-.6-.12a.07.07 0 0 0-.06.08l.11.63z" fill="#bd86bb"/><path d="M24.06 68.92a.07.07 0 0 0 .14 0v-.26l.26.05a.07.07 0 0 0 .08-.06.07.07 0 0 0-.06-.08l-.35-.07a.07.07 0 0 0-.06.08l.06.36z" fill="#bd86bb"/><path d="M22.58 67.17a.07.07 0 0 1 .1-.1l.35.35a.07.07 0 0 1 0 .1.07.07 0 0 1-.1 0l-.35-.35z" fill="#bd86bb"/><path d="M22 67.05a.07.07 0 0 1 0-.14l.53.09-.1-.5a.07.07 0 0 1 .06-.08.07.07 0 0 1 .08.06l.12.6a.07.07 0 0 1-.08.06l-.63-.1z" fill="#bd86bb"/><path d="M21.93 66.79a.07.07 0 0 1-.06-.08.07.07 0 0 1 .08-.06h.26l-.05-.26a.07.07 0 0 1 .14 0l.07.35a.07.07 0 0 1-.08.06l-.36-.06z" fill="#bd86bb"/><path d="M23.18 65.35a2.31 2.31 0 1 0 2.31 2.31 2.32 2.32 0 0 0-2.31-2.31zm0 .18a2.13 2.13 0 1 0 2.13 2.13 2.13 2.13 0 0 0-2.13-2.13z" fill="#bd86bb"/><path d="M23.09 65.58a.14.14 0 1 0 .14.14.14.14 0 0 0-.14-.14z" fill="#bd86bb"/><path d="M22.56 65.7a.14.14 0 1 0 .14.14.14.14 0 0 0-.14-.14z" fill="#bd86bb"/><path d="M22.06 66a.14.14 0 1 0 .14.14.14.14 0 0 0-.14-.14z" fill="#bd86bb"/><path d="M21.7 66.32a.14.14 0 1 0 .14.14.14.14 0 0 0-.14-.14z" fill="#bd86bb"/><path d="M21.43 66.77a.14.14 0 1 0 .14.14.14.14 0 0 0-.14-.14z" fill="#bd86bb"/><path d="M21.29 67.23a.14.14 0 1 0 .14.14.14.14 0 0 0-.14-.14z" fill="#bd86bb"/><path d="M21.29 67.76a.14.14 0 1 0 .14.14.14.14 0 0 0-.14-.14z" fill="#bd86bb"/><path d="M21.41 68.23a.14.14 0 1 0 .14.14.14.14 0 0 0-.14-.14z" fill="#bd86bb"/><path d="M21.66 68.63a.14.14 0 1 0 .14.14.14.14 0 0 0-.14-.14z" fill="#bd86bb"/><path d="M22 69a.14.14 0 1 0 .14.14A.14.14 0 0 0 22 69z" fill="#bd86bb"/><path d="M22.45 69.26a.14.14 0 1 0 .14.14.14.14 0 0 0-.14-.14z" fill="#bd86bb"/><path d="M23 69.4a.14.14 0 1 0 .14.14.14.14 0 0 0-.14-.14z" fill="#bd86bb"/><path d="M23.62 69.36a.14.14 0 1 0 .14.14.14.14 0 0 0-.14-.14z" fill="#bd86bb"/><path d="M24.14 69.15a.14.14 0 0 0-.14.14.14.14 0 0 0 .28 0 .14.14 0 0 0-.14-.14z" fill="#bd86bb"/><path d="M24.58 68.81a.14.14 0 1 0 .14.14.14.14 0 0 0-.14-.14z" fill="#bd86bb"/><path d="M24.87 68.39a.14.14 0 1 0 .14.14.14.14 0 0 0-.14-.14z" fill="#bd86bb"/><path d="M25.09 67.82a.14.14 0 1 0 .14.14.14.14 0 0 0-.14-.14z" fill="#bd86bb"/><path d="M25.09 67.21a.14.14 0 1 0 .14.14.14.14 0 0 0-.14-.14z" fill="#bd86bb"/><path d="M24.58 66.2a.14.14 0 1 0 .14.14.14.14 0 0 0-.14-.14z" fill="#bd86bb"/><path d="M24.91 66.66a.14.14 0 1 0 .14.14.14.14 0 0 0-.14-.14z" fill="#bd86bb"/><path d="M24.15 65.86a.14.14 0 1 0 .14.14.14.14 0 0 0-.14-.14z" fill="#bd86bb"/><path d="M23.64 65.64a.14.14 0 1 0 .14.14.14.14 0 0 0-.14-.14z" fill="#bd86bb"/><path d="M11.22 68.48a14.15 14.15 0 0 1-1.86-1.12 3.14 3.14 0 0 0-1.29 0 .19.19 0 0 1-.15-.36 2.6 2.6 0 0 1 .81-.09l-.24-.19a8.54 8.54 0 0 0-2.44.1.19.19 0 0 1-.05-.38 9.3 9.3 0 0 1 2-.14l-.51-.46a2.67 2.67 0 0 0-1.07 0 .19.19 0 1 1 0-.38 3.58 3.58 0 0 1 .63 0l-.45-.45a.19.19 0 0 1 .27-.27 22.25 22.25 0 0 0 2.25 2v-.12H9v-.12a.19.19 0 1 1 .38 0 .84.84 0 0 0 0 .09 1.53 1.53 0 0 0 .14.54 13.91 13.91 0 0 0 1.65 1v-.94c-.82-.32-1.43-1-2.25-1.29a8.66 8.66 0 0 0-1-.34.19.19 0 0 1 .1-.37c.31.08.6.17.87.28l-.23-.27a.19.19 0 0 1 .34-.32 6.62 6.62 0 0 0 2.26 1.82V66h-.08l-1.4-1.15a18.66 18.66 0 0 1-2.84-.23.19.19 0 0 1 .06-.45l.82.11a5.32 5.32 0 0 1-.46-.83.19.19 0 0 1 .34-.16 3.51 3.51 0 0 0 .66 1l1.09.05a10.43 10.43 0 0 1-.62-1 6.68 6.68 0 0 1-2-.64.19.19 0 0 1 .17-.24 5.64 5.64 0 0 0 1.56.54c-.21-.39-.4-.8-.59-1.22a.19.19 0 0 1 .35-.16A12.83 12.83 0 0 0 10 64.44l1.27 1v-1.36a.19.19 0 0 1-.15 0c-.29-.2-.58-.41-.87-.64-.21 0-1 .08-1-.23s.35-.18.51-.17a11.14 11.14 0 0 1-1-1 .19.19 0 0 1 .24-.25c.23.25.46.47.69.68l-.51-.94a.19.19 0 0 1 .34-.18l1 1.78c.25.2.51.38.77.56v-1.06a3.33 3.33 0 0 0-1-1.18c0-.08-.15-.1-.06-.26s.27-.06.27-.06a3.59 3.59 0 0 1 .85.84v-.49c-.23 0-.61-.51-.74-.68a2.67 2.67 0 0 0-1.39-.13.19.19 0 0 1-.22-.41 2.78 2.78 0 0 1 1.13 0A6 6 0 0 1 9.58 59a.19.19 0 0 1 .36-.12A4.88 4.88 0 0 0 11.25 61v-1.16a.19.19 0 0 1-.08-.08 3 3 0 0 0-.92-1.08c0-.08-.15-.1-.06-.26s.27-.06.27-.06l.19.14c0-.16-.18-.53.07-.58a.19.19 0 0 1 .23.15 3 3 0 0 0 .3 1.1c0-.32 0-2 .25-2s.25 1.5.25 1.93c.16-.21.08-1.23.46-1.15s.11.42.07.58c.11-.09.33-.29.46-.08s-.23.38-.35.49a4.46 4.46 0 0 0-.64.86v1.16A4.94 4.94 0 0 0 13 58.84a.19.19 0 0 1 .36.12 6.19 6.19 0 0 1-.59 1.31 2.78 2.78 0 0 1 1.13 0 .19.19 0 0 1-.09.37 2.76 2.76 0 0 0-1.39.13 2.44 2.44 0 0 1-.67.66v.43a3.5 3.5 0 0 1 .79-.76.19.19 0 0 1 .21.32 3.32 3.32 0 0 0-1 1.12v1.11l.7-.51 1-1.78a.19.19 0 0 1 .34.18l-.51.94c.23-.21.46-.43.69-.68a.19.19 0 0 1 .28.26 11.27 11.27 0 0 1-1 1c.16 0 .5-.08.51.17s-.8.22-1 .23c-.29.22-.58.43-.88.64h-.09v1.36l1.21-1a12.77 12.77 0 0 0 1.64-2.83.19.19 0 0 1 .35.16c-.18.41-.38.82-.59 1.22a5.63 5.63 0 0 0 1.55-.53.19.19 0 0 1 .18.33 6.64 6.64 0 0 1-2 .64 10.77 10.77 0 0 1-.62 1l1.1-.05a3.6 3.6 0 0 0 .66-1 .19.19 0 0 1 .34.16 5.41 5.41 0 0 1-.46.83l.82-.11a.19.19 0 0 1 .06.38 18.72 18.72 0 0 1-2.85.23l-1.4 1.15v.75A6.76 6.76 0 0 0 14 64.88a.19.19 0 0 1 .29.25l-.23.26c.27-.1.56-.19.87-.27a.19.19 0 0 1 .1.37 5.41 5.41 0 0 0-1.85.79 6.67 6.67 0 0 1-1.39.82v.9a13.92 13.92 0 0 0 1.6-1 1.79 1.79 0 0 0 .15-.64.19.19 0 0 1 .38 0 2 2 0 0 1 0 .25 21.44 21.44 0 0 0 2.25-2 .19.19 0 0 1 .27.27l-.45.45a3.94 3.94 0 0 1 .63 0 .19.19 0 1 1-.05.38 2.67 2.67 0 0 0-1.07 0l-.5.59a9.29 9.29 0 0 1 2 .14.19.19 0 0 1-.07.38 8.53 8.53 0 0 0-2.43-.1l-.24.19A2.58 2.58 0 0 1 15 67a.19.19 0 0 1-.11.37 3.14 3.14 0 0 0-1.29 0 14.11 14.11 0 0 1-1.84 1.11v3.72a1 1 0 0 0-.59.07V68.5zm5-1.69z" fill="#fff"/><path d="M49.7 62.65a15 15 0 0 1-2-1.19 3.32 3.32 0 0 0-1.37 0 .2.2 0 0 1-.11-.39 2.76 2.76 0 0 1 .86-.1l-.26-.2a9 9 0 0 0-2.58.1.2.2 0 0 1-.07-.4 9.88 9.88 0 0 1 2.11-.15l-.54-.48a2.87 2.87 0 0 0-1.14-.05.2.2 0 1 1 0-.4 3.77 3.77 0 0 1 .66 0l-.48-.47a.2.2 0 0 1 .22-.32 23.5 23.5 0 0 0 2.38 2.13v-.25a.2.2 0 1 1 .4 0v.1a1.59 1.59 0 0 0 .15.57 14.68 14.68 0 0 0 1.77 1.05v-1c-.87-.34-1.52-1-2.38-1.36a9.05 9.05 0 0 0-1.11-.37.2.2 0 0 1 .11-.39c.33.09.64.19.93.29l-.25-.28a.2.2 0 0 1 .31-.26 7 7 0 0 0 2.4 1.93V60h-.08l-1.48-1.22a19.83 19.83 0 0 1-3-.24.2.2 0 0 1 .06-.4l.87.12a5.58 5.58 0 0 1-.49-.87.2.2 0 0 1 .36-.17 3.75 3.75 0 0 0 .7 1.1c.39 0 .77 0 1.16.06a11.14 11.14 0 0 1-.66-1 7.14 7.14 0 0 1-2.09-.67.2.2 0 0 1 .2-.35 6 6 0 0 0 1.64.56c-.22-.42-.43-.85-.62-1.29a.2.2 0 0 1 .37-.16 13.54 13.54 0 0 0 1.73 3l1.35 1.11V58a.2.2 0 0 1-.16 0c-.31-.22-.62-.44-.93-.68-.23 0-1.08.08-1.07-.25s.37-.19.54-.18a11.52 11.52 0 0 1-1.06-1 .2.2 0 0 1 .3-.27c.24.26.48.5.73.72l-.54-1a.2.2 0 0 1 .36-.19l1 1.89.82.6v-1.2a3.52 3.52 0 0 0-1.09-1.25c0-.09-.16-.11-.06-.27s.29-.06.29-.06a3.82 3.82 0 0 1 .91.9v-.52c-.24 0-.64-.54-.78-.72a2.83 2.83 0 0 0-1.47-.14.2.2 0 0 1-.09-.39 3 3 0 0 1 1.2 0 6.43 6.43 0 0 1-.63-1.43.2.2 0 0 1 .38-.12 5.16 5.16 0 0 0 1.38 2.28v-1.24a.2.2 0 0 1-.08-.08 3.14 3.14 0 0 0-1-1.15c0-.09-.16-.11-.06-.27s.28-.06.29-.07l.2.15c0-.17-.19-.56.08-.61a.2.2 0 0 1 .24.16 3.21 3.21 0 0 0 .32 1.16c0-.33 0-2.15.27-2.15s.27 1.59.27 2c.16-.22.08-1.3.49-1.21s.11.44.08.61c.12-.1.35-.31.49-.08s-.24.4-.37.52a4.76 4.76 0 0 0-.68.91v1.23a5.24 5.24 0 0 0 1.31-2.21.2.2 0 0 1 .39.12 6.46 6.46 0 0 1-.62 1.38 3 3 0 0 1 1.2 0 .2.2 0 0 1-.09.39 2.92 2.92 0 0 0-1.47.14 2.57 2.57 0 0 1-.71.7v.45a3.72 3.72 0 0 1 .84-.81.2.2 0 0 1 .22.34 3.5 3.5 0 0 0-1.06 1.19v1.18L51 57l1-1.89a.2.2 0 0 1 .36.19l-.54 1c.24-.22.48-.46.73-.72a.2.2 0 0 1 .3.27 12.14 12.14 0 0 1-1.06 1c.17 0 .53-.09.54.18s-.84.24-1.07.25c-.31.24-.62.46-.93.68h-.09v1.44l1.29-1.06a13.49 13.49 0 0 0 1.73-3 .2.2 0 0 1 .37.16c-.19.44-.4.87-.62 1.29a6 6 0 0 0 1.64-.56.2.2 0 0 1 .2.35 7.1 7.1 0 0 1-2.09.68 11.64 11.64 0 0 1-.66 1q.58 0 1.16-.06a3.8 3.8 0 0 0 .7-1.1.2.2 0 0 1 .36.17 5.76 5.76 0 0 1-.49.88l.87-.12a.2.2 0 0 1 .06.4 20 20 0 0 1-3 .24l-1.48 1.22v.79a7.16 7.16 0 0 0 2.34-1.91.2.2 0 0 1 .31.26l-.25.28c.29-.11.6-.2.92-.29a.2.2 0 0 1 .1.39 5.71 5.71 0 0 0-2 .83 7.22 7.22 0 0 1-1.47.87v1a14.78 14.78 0 0 0 1.69-1 1.87 1.87 0 0 0 .16-.68.2.2 0 0 1 .4 0 2 2 0 0 1 0 .26 22.88 22.88 0 0 0 2.38-2.13.2.2 0 0 1 .29.28l-.48.47a4.36 4.36 0 0 1 .67 0 .2.2 0 1 1-.05.4 2.83 2.83 0 0 0-1.13.05l-.54.48a9.83 9.83 0 0 1 2.11.15.2.2 0 0 1-.07.4 9 9 0 0 0-2.58-.1l-.26.2a2.74 2.74 0 0 1 .86.1.2.2 0 0 1-.11.39 3.32 3.32 0 0 0-1.37 0 15 15 0 0 1-1.95 1.18v9.12a1.11 1.11 0 0 0-.63.08v-9.17zm5.3-1.79z" fill="#fff"/><path d="M56.6 52.29a.27.27 0 0 1 .13 0v.49a.28.28 0 1 1-.13-.52z" fill="#fff"/><path d="M56.45 51.24a.12.12 0 1 1 .24 0v.87a.12.12 0 0 1-.24 0v-.87z" fill="#fff"/><path d="M56.45 53a.12.12 0 1 1 .24 0v.87a.12.12 0 1 1-.24 0V53z" fill="#fff"/><path d="M55.24 52.7a.12.12 0 0 1 0-.24h.87a.12.12 0 0 1 0 .24z" fill="#fff"/><path d="M56.16 52.82a.12.12 0 0 1 .17.17l-.61.61a.12.12 0 0 1-.17-.17l.61-.61z" fill="#fff"/><path d="M55.54 51.72a.12.12 0 0 1 .17-.17l.61.61a.12.12 0 0 1 0 .17.12.12 0 0 1-.17 0l-.61-.61z" fill="#fff"/><path d="M56.57 50.49a.36.36 0 0 1 .16 0v.65a.36.36 0 0 1-.16 0 .36.36 0 0 1 0-.72z" fill="#fff"/><path d="M56.57 53.84a.36.36 0 0 1 .15 0v.66a.36.36 0 1 1-.14-.69z" fill="#fff"/><path d="M55 52.21a.36.36 0 1 1-.36.36.36.36 0 0 1 .36-.36z" fill="#fff"/><path d="M55.4 51a.36.36 0 1 1-.36.36.36.36 0 0 1 .36-.36z" fill="#fff"/><path d="M55.4 53.34a.36.36 0 1 1-.36.36.36.36 0 0 1 .36-.36z" fill="#fff"/><path d="M0 18.07l1 19.8c20.48 0 48.63-.11 56.83.14 1.27-4.37 1.44-11.07 0-21.15-18.77-.47-37.27-1.49-57.83 1.21z" fill="#adcfa1"/><path d="M.12 20.3c2.32.53 4.63 1 6.91 1.46 23.5 3.39 37.4 1 51.34-1a57.07 57.07 0 0 1 .11 14.3c-6.61-.69-13.24-1.64-18.91-1.64-12.92 0-25.83.18-38.75.32L.12 20.3z" fill="#315746"/><path d="M57.92 17.22Q56 17 54 16.75c-5.57-.15-11.12-.33-16.72-.42-6.62.63-13.61 2.16-20.51 2.81-5.6.53-11.21 1.05-16.65 1.36l.11 2.06a75.59 75.59 0 0 0 9.4-1.48A158 158 0 0 1 58 17.83l-.08-.61z" fill="#315746"/><path d="M58.86 30.22c-17.27-2.13-39.35 1.78-58 3.5L1 37.86c20.48 0 48.63-.11 56.83.14a30.43 30.43 0 0 0 1-7.78z" fill="#ed1c24"/><path d="M36.89 33.14a.21.21 0 1 1-.21.21.21.21 0 0 1 .21-.21z" fill="#fff"/><path d="M36.79 32.34a.09.09 0 0 1 .19 0V33a.09.09 0 1 1-.19 0v-.66z" fill="#fff"/><path d="M36.79 33.71a.09.09 0 0 1 .19 0v.66a.09.09 0 1 1-.19 0v-.66z" fill="#fff"/><path d="M35.86 33.45a.09.09 0 0 1 0-.19h.66a.09.09 0 1 1 0 .19z" fill="#fff"/><path d="M37.23 33.45a.09.09 0 1 1 0-.19h.66a.09.09 0 0 1 0 .19z" fill="#fff"/><path d="M37.53 32.57a.09.09 0 0 1 .13.13l-.47.47a.09.09 0 1 1-.13-.13l.47-.47z" fill="#fff"/><path d="M36.56 33.54a.09.09 0 1 1 .13.13l-.47.47a.09.09 0 1 1-.13-.13l.47-.47z" fill="#fff"/><path d="M36.09 32.71a.09.09 0 0 1 .13-.13l.47.47a.09.09 0 0 1 0 .13.09.09 0 0 1-.13 0l-.47-.47z" fill="#fff"/><path d="M37.06 33.68a.09.09 0 1 1 .13-.13l.47.47a.09.09 0 1 1-.13.13l-.47-.47z" fill="#fff"/><path d="M36.52 32a.09.09 0 1 1 .15-.11l.2.28.19-.28a.09.09 0 1 1 .15.1l-.26.39a.09.09 0 0 1-.13 0l-.3-.38z" fill="#fff"/><path d="M36.52 34.68a.09.09 0 1 0 .15.11l.2-.28.19.28a.09.09 0 1 0 .15-.1L37 34.3a.09.09 0 0 0-.13 0l-.28.39z" fill="#fff"/><path d="M38.27 33.71a.09.09 0 0 0 .11-.15l-.28-.2.29-.19a.09.09 0 0 0 0-.13.09.09 0 0 0-.13 0l-.39.26a.09.09 0 0 0 0 .13l.39.28z" fill="#fff"/><path d="M35.51 33.7a.09.09 0 0 1-.11-.15l.28-.2-.29-.19a.09.09 0 0 1 .1-.15l.39.26a.09.09 0 0 1 0 .13l-.39.28z" fill="#fff"/><path d="M37.55 32.17a.09.09 0 0 1 .18 0l-.06.34.34-.07a.09.09 0 0 1 0 .18l-.46.09a.09.09 0 0 1-.08-.1l.08-.47z" fill="#fff"/><path d="M36.17 32.17a.09.09 0 0 0-.18 0l.06.34-.34-.07a.09.09 0 0 0 0 .18l.46.09a.09.09 0 0 0 .08-.1l-.08-.47z" fill="#fff"/><path d="M37.56 34.55a.09.09 0 0 0 .18 0l-.06-.34.34.07a.09.09 0 0 0 .11-.07.09.09 0 0 0-.07-.11l-.46-.1a.09.09 0 0 0-.08.11l.08.47z" fill="#fff"/><path d="M36.18 34.55a.09.09 0 0 1-.18 0l.06-.34-.34.07a.09.09 0 1 1 0-.18l.46-.09a.09.09 0 0 1 .08.11l-.08.47z" fill="#fff"/><path d="M38 32a.15.15 0 1 1-.15.15A.15.15 0 0 1 38 32z" fill="#fff"/><path d="M36.88 31.49a.15.15 0 1 1-.15.15.15.15 0 0 1 .15-.15z" fill="#fff"/><path d="M35.73 32a.15.15 0 1 1-.15.15.15.15 0 0 1 .15-.15z" fill="#fff"/><path d="M35.22 33.15a.15.15 0 1 1-.15.15.15.15 0 0 1 .15-.15z" fill="#fff"/><path d="M38.56 33.19a.15.15 0 1 1-.15.15.15.15 0 0 1 .15-.15z" fill="#fff"/><path d="M38 34.32a.15.15 0 1 1-.15.15.15.15 0 0 1 .15-.15z" fill="#fff"/><path d="M36.9 34.79a.15.15 0 1 1-.15.15.15.15 0 0 1 .15-.15z" fill="#fff"/><path d="M35.78 34.32a.15.15 0 1 1-.15.15.15.15 0 0 1 .15-.15z" fill="#fff"/><path d="M33 28.48a.16.16 0 1 1-.16.16.16.16 0 0 1 .16-.16z" fill="#fff"/><path d="M32.91 27.87a.07.07 0 1 1 .14 0v.5a.07.07 0 1 1-.14 0v-.5z" fill="#fff"/><path d="M32.56 27.36a.07.07 0 0 1 0-.1.07.07 0 0 1 .1 0l.31.44.29-.43a.07.07 0 0 1 .1 0 .07.07 0 0 1 0 .1l-.34.51a.07.07 0 0 1-.1 0l-.37-.52z" fill="#fff"/><path d="M32.71 27.14a.07.07 0 1 1 .11-.08l.15.21.15-.22a.07.07 0 0 1 .1 0 .07.07 0 0 1 0 .1l-.2.3a.07.07 0 0 1-.1 0l-.21-.3z" fill="#fff"/><path d="M32.91 29.42a.07.07 0 1 0 .14 0v-.5a.07.07 0 1 0-.14 0v.5z" fill="#fff"/><path d="M32.56 29.93a.07.07 0 1 0 .11.08l.31-.44.29.43a.07.07 0 0 0 .12-.08l-.34-.51a.07.07 0 0 0-.1 0l-.37.52z" fill="#fff"/><path d="M32.71 30.15a.07.07 0 0 0 .11.08L33 30l.15.22a.07.07 0 0 0 .1 0 .07.07 0 0 0 0-.1l-.2-.3a.07.07 0 0 0-.1 0l-.21.3z" fill="#fff"/><path d="M33.75 28.58a.07.07 0 1 1 0 .14h-.5a.07.07 0 0 1 0-.14z" fill="#fff"/><path d="M34.26 28.23a.07.07 0 0 1 .1 0 .07.07 0 0 1 0 .1l-.44.31.43.29a.07.07 0 0 1-.08.12l-.51-.34a.07.07 0 0 1 0-.1l.52-.37z" fill="#fff"/><path d="M34.48 28.38a.07.07 0 0 1 .08.11l-.21.15.22.15a.07.07 0 0 1 0 .1.07.07 0 0 1-.1 0l-.3-.2a.07.07 0 0 1 0-.1l.3-.21z" fill="#fff"/><path d="M32.2 28.58a.07.07 0 0 0 0 .14h.5a.07.07 0 1 0 0-.14z" fill="#fff"/><path d="M31.69 28.23a.07.07 0 0 0-.08.11l.44.31-.43.29a.07.07 0 0 0 0 .1.07.07 0 0 0 .1 0l.51-.34a.07.07 0 0 0 0-.1l-.52-.37z" fill="#fff"/><path d="M31.47 28.38a.07.07 0 0 0-.08.11l.21.15-.22.15a.07.07 0 1 0 .08.12l.3-.2a.07.07 0 0 0 0-.1l-.3-.21z" fill="#fff"/><path d="M33.57 29.14a.07.07 0 1 1-.1.1l-.35-.35a.07.07 0 0 1 0-.1.07.07 0 0 1 .1 0l.35.35z" fill="#fff"/><path d="M34.18 29.26a.07.07 0 0 1 0 .14l-.53-.09.1.5a.07.07 0 0 1-.06.08.07.07 0 0 1-.08-.06l-.12-.6a.07.07 0 0 1 .08-.06l.63.11z" fill="#fff"/><path d="M34.23 29.53a.07.07 0 1 1 0 .14h-.26v.26a.07.07 0 1 1-.14 0l-.07-.35a.07.07 0 0 1 .08-.06l.36.06z" fill="#fff"/><path d="M32.48 28a.07.07 0 0 0-.1 0 .07.07 0 0 0 0 .1l.35.35a.07.07 0 0 0 .1-.1l-.35-.35z" fill="#fff"/><path d="M32.36 27.45a.07.07 0 0 0-.08-.06.07.07 0 0 0-.06.08l.09.53-.51-.1a.07.07 0 1 0 0 .14l.6.12a.07.07 0 0 0 .06-.08l-.1-.63z" fill="#fff"/><path d="M32.1 27.39a.07.07 0 0 0-.14 0v.26h-.26a.07.07 0 0 0-.08.06.07.07 0 0 0 .06.08l.35.07a.07.07 0 0 0 .06-.08l-.06-.36z" fill="#fff"/><path d="M32.48 29.25a.07.07 0 0 1-.1-.1l.35-.35a.07.07 0 0 1 .1.1l-.35.35z" fill="#fff"/><path d="M32.36 29.85a.07.07 0 0 1-.08.06.07.07 0 0 1-.06-.08l.09-.53-.51.1a.07.07 0 0 1 0-.14l.6-.12a.07.07 0 0 1 .06.08l-.1.63z" fill="#fff"/><path d="M32.1 29.9a.07.07 0 0 1-.14 0v-.26h-.26a.07.07 0 0 1-.08-.06.07.07 0 0 1 .06-.08l.35-.07a.07.07 0 0 1 .06.08l-.06.36z" fill="#fff"/><path d="M33.57 28.15a.07.07 0 0 0 0-.1.07.07 0 0 0-.1 0l-.35.35a.07.07 0 1 0 .1.1l.35-.35z" fill="#fff"/><path d="M34.18 28a.07.07 0 1 0 0-.14l-.53.09.1-.51a.07.07 0 0 0-.14 0l-.12.6a.07.07 0 0 0 .08.06l.63-.11z" fill="#fff"/><path d="M34.23 27.77a.07.07 0 0 0 0-.14h-.26v-.26a.07.07 0 0 0-.14 0l-.07.35a.07.07 0 0 0 .08.06l.36-.06z" fill="#fff"/><path d="M33 26.33a2.31 2.31 0 1 1-2.31 2.32A2.32 2.32 0 0 1 33 26.33zm0 .18a2.13 2.13 0 1 1-2.13 2.13A2.13 2.13 0 0 1 33 26.52z" fill="#fff"/><path d="M33.06 26.56a.14.14 0 1 1-.14.14.14.14 0 0 1 .14-.14z" fill="#fff"/><path d="M33.59 26.68a.14.14 0 1 1-.14.14.14.14 0 0 1 .14-.14z" fill="#fff"/><path d="M34.09 27a.14.14 0 1 1-.14.14.14.14 0 0 1 .14-.14z" fill="#fff"/><path d="M34.46 27.3a.14.14 0 1 1-.14.14.14.14 0 0 1 .14-.14z" fill="#fff"/><path d="M34.72 27.75a.14.14 0 1 1-.14.14.14.14 0 0 1 .14-.14z" fill="#fff"/><path d="M34.87 28.21a.14.14 0 1 1-.14.14.14.14 0 0 1 .14-.14z" fill="#fff"/><path d="M34.87 28.74a.14.14 0 1 1-.14.14.14.14 0 0 1 .14-.14z" fill="#fff"/><path d="M34.75 29.21a.14.14 0 1 1-.14.14.14.14 0 0 1 .14-.14z" fill="#fff"/><path d="M34.5 29.61a.14.14 0 1 1-.14.14.14.14 0 0 1 .14-.14z" fill="#fff"/><path d="M34.14 30a.14.14 0 1 1-.14.14.14.14 0 0 1 .14-.14z" fill="#fff"/><path d="M33.71 30.24a.14.14 0 1 1-.14.14.14.14 0 0 1 .14-.14z" fill="#fff"/><path d="M33.12 30.39a.14.14 0 1 1-.14.14.14.14 0 0 1 .14-.14z" fill="#fff"/><path d="M32.54 30.35a.14.14 0 1 1-.14.14.14.14 0 0 1 .14-.14z" fill="#fff"/><path d="M32 30.14a.14.14 0 1 1-.14.14.14.14 0 0 1 .14-.14z" fill="#fff"/><path d="M31.58 29.79a.14.14 0 1 1-.14.14.14.14 0 0 1 .14-.14z" fill="#fff"/><path d="M31.29 29.37a.14.14 0 0 1 0 .28.14.14 0 1 1 0-.28z" fill="#fff"/><path d="M31.06 28.81a.14.14 0 1 1-.14.14.14.14 0 0 1 .14-.14z" fill="#fff"/><path d="M31.06 28.2a.14.14 0 1 1-.14.14.14.14 0 0 1 .14-.14z" fill="#fff"/><path d="M31.57 27.18a.14.14 0 1 1-.14.14.14.14 0 0 1 .14-.14z" fill="#fff"/><path d="M31.25 27.64a.14.14 0 1 1-.14.14.14.14 0 0 1 .14-.14z" fill="#fff"/><path d="M32 26.84a.14.14 0 1 1-.14.14.14.14 0 0 1 .14-.14z" fill="#fff"/><path d="M32.52 26.62a.14.14 0 1 1-.14.14.14.14 0 0 1 .14-.14z" fill="#fff"/><path d="M50.58 22.76a.28.28 0 1 1-.28.28.28.28 0 0 1 .28-.28z" fill="#fff"/><path d="M50.44 21.71a.12.12 0 0 1 .24 0v.87a.12.12 0 1 1-.24 0v-.87z" fill="#fff"/><path d="M50.44 23.51a.12.12 0 0 1 .24 0v.87a.12.12 0 1 1-.24 0v-.87z" fill="#fff"/><path d="M49.22 23.17a.12.12 0 0 1 0-.24h.87a.12.12 0 1 1 0 .24z" fill="#fff"/><path d="M51 23.17a.12.12 0 0 1-.12-.12.12.12 0 0 1 .12-.12h.87a.12.12 0 1 1 0 .24z" fill="#fff"/><path d="M51.42 22a.12.12 0 1 1 .17.17l-.59.63a.12.12 0 1 1-.17-.17l.61-.61z" fill="#fff"/><path d="M50.14 23.29a.12.12 0 0 1 .17.17l-.61.61a.12.12 0 0 1-.17-.17l.61-.61z" fill="#fff"/><path d="M49.53 22.19a.12.12 0 0 1 .17-.19l.61.61a.12.12 0 0 1-.17.17l-.61-.61z" fill="#fff"/><path d="M50.81 23.46a.12.12 0 1 1 .17-.17l.61.61a.12.12 0 1 1-.17.17l-.61-.61z" fill="#fff"/><path d="M50.56 21a.36.36 0 1 1-.36.36.36.36 0 0 1 .36-.36z" fill="#fff"/><path d="M50.56 24.31a.36.36 0 1 1-.36.36.36.36 0 0 1 .36-.36z" fill="#fff"/><path d="M52.19 22.68a.36.36 0 1 1-.36.36.36.36 0 0 1 .36-.36z" fill="#fff"/><path d="M48.94 22.68a.36.36 0 1 1-.36.36.36.36 0 0 1 .36-.36z" fill="#fff"/><path d="M51.73 23.84a.36.36 0 1 1-.36.36.36.36 0 0 1 .36-.36z" fill="#fff"/><path d="M49.38 21.49a.36.36 0 1 1-.36.36.36.36 0 0 1 .36-.36z" fill="#fff"/><path d="M51.75 21.5a.36.36 0 1 1-.36.36.36.36 0 0 1 .36-.36z" fill="#fff"/><path d="M49.38 23.81a.36.36 0 1 1-.36.36.36.36 0 0 1 .36-.36z" fill="#fff"/><path d="M28.67 37.25a.12.12 0 0 1 .24 0v.59h-.24v-.59z" fill="#fff"/><path d="M29.65 37.56a.12.12 0 0 1 .17.17l-.12.12h-.34l.29-.29z" fill="#fff"/><path d="M27.76 37.73a.12.12 0 0 1 .17-.17l.29.29h-.34l-.12-.12z" fill="#fff"/><path d="M28.79 36.51a.36.36 0 1 1-.36.36.36.36 0 0 1 .36-.36z" fill="#fff"/><path d="M27.62 37a.36.36 0 1 1-.36.36.36.36 0 0 1 .36-.36z" fill="#fff"/><path d="M30 37a.36.36 0 1 1-.36.36A.36.36 0 0 1 30 37z" fill="#fff"/><path d="M26.15 22.92a.19.19 0 1 1-.19.19.19.19 0 0 1 .19-.19z" fill="#fff"/><path d="M26 22.18a.09.09 0 0 1 .17 0v.61a.09.09 0 0 1-.17 0v-.61z" fill="#fff"/><path d="M26 23.45a.09.09 0 1 1 .17 0v.61a.09.09 0 0 1-.17 0v-.61z" fill="#fff"/><path d="M25.19 23.2a.09.09 0 0 1 0-.17h.61a.09.09 0 0 1 0 .17z" fill="#fff"/><path d="M26.46 23.2a.09.09 0 0 1 0-.17h.61a.09.09 0 0 1 0 .17z" fill="#fff"/><path d="M26.74 22.39a.09.09 0 0 1 .12.12l-.43.43a.09.09 0 1 1-.12-.12l.43-.43z" fill="#fff"/><path d="M25.84 23.29a.09.09 0 1 1 .12.12l-.43.43a.09.09 0 1 1-.12-.12l.43-.43z" fill="#fff"/><path d="M25.41 22.51a.09.09 0 1 1 .12-.12l.43.43a.09.09 0 0 1-.12.12l-.43-.43z" fill="#fff"/><path d="M26.31 23.41a.09.09 0 0 1 0-.12.09.09 0 0 1 .12 0l.43.43a.09.09 0 0 1-.12.12l-.43-.43z" fill="#fff"/><path d="M25.81 21.85a.09.09 0 0 1 .14-.1l.19.26.18-.26a.09.09 0 1 1 .14.1l-.24.36a.09.09 0 0 1-.12 0l-.26-.36z" fill="#fff"/><path d="M25.81 24.34a.09.09 0 0 0 0 .12.09.09 0 0 0 .12 0l.19-.26.18.26a.09.09 0 0 0 .14-.1l-.23-.36a.08.08 0 0 0-.12 0l-.26.36z" fill="#fff"/><path d="M27.42 23.45a.08.08 0 0 0 .12 0 .08.08 0 0 0 0-.12l-.26-.19.26-.18a.09.09 0 1 0-.1-.14l-.36.24a.09.09 0 0 0 0 .12l.36.26z" fill="#fff"/><path d="M24.87 23.44a.09.09 0 0 1-.12 0 .09.09 0 0 1 0-.12l.26-.19-.26-.18a.09.09 0 0 1 .1-.14l.36.24a.09.09 0 0 1 0 .12l-.36.26z" fill="#fff"/><path d="M26.75 22a.09.09 0 0 1 .1-.07.09.09 0 0 1 .07.1l-.05.32.31-.06a.08.08 0 0 1 .1.07.09.09 0 0 1-.07.1l-.43.08a.09.09 0 0 1-.07-.1l.07-.44z" fill="#fff"/><path d="M25.48 22a.09.09 0 0 0-.1-.07.08.08 0 0 0-.07.1l.05.32-.31-.06a.09.09 0 1 0 0 .17l.43.08a.09.09 0 0 0 .07-.1l-.07-.44z" fill="#fff"/><path d="M26.76 24.22a.09.09 0 1 0 .17 0l-.05-.32.31.06a.09.09 0 0 0 0-.17l-.43-.08a.09.09 0 0 0-.07.1l.07.44z" fill="#fff"/><path d="M25.49 24.22a.09.09 0 0 1-.17 0l.05-.32-.31.06a.09.09 0 1 1 0-.17l.43-.08a.09.09 0 0 1 .07.1l-.07.44z" fill="#fff"/><path d="M43.53 18.62A1.38 1.38 0 1 1 42.15 20a1.38 1.38 0 0 1 1.38-1.38zm0 .17A1.21 1.21 0 1 1 42.31 20a1.21 1.21 0 0 1 1.21-1.21z" fill="#fff"/><path d="M43.54 19.51a.47.47 0 1 1-.47.47.47.47 0 0 1 .47-.47zm0 .27a.21.21 0 1 1-.21.21.21.21 0 0 1 .21-.21z" fill="#fff"/><path d="M43.43 19a.09.09 0 1 1 .18 0v.66a.09.09 0 1 1-.18 0V19z" fill="#fff"/><path d="M43.43 20.35a.09.09 0 0 1 .18 0V21a.09.09 0 1 1-.18 0v-.66z" fill="#fff"/><path d="M42.51 20.09a.09.09 0 1 1 0-.19h.66a.09.09 0 0 1 0 .19z" fill="#fff"/><path d="M43.88 20.09a.09.09 0 1 1 0-.19h.66a.09.09 0 1 1 0 .19z" fill="#fff"/><path d="M44.18 19.22a.09.09 0 0 1 .13.13l-.47.46a.09.09 0 0 1-.13-.13l.46-.47z" fill="#fff"/><path d="M43.21 20.18a.09.09 0 0 1 .13.13l-.46.47a.09.09 0 0 1-.13 0 .09.09 0 0 1 0-.13l.46-.47z" fill="#fff"/><path d="M42.74 19.35a.09.09 0 0 1 .13-.13l.46.47a.09.09 0 0 1-.13.13l-.46-.46z" fill="#fff"/><path d="M43.71 20.31a.09.09 0 0 1 .13-.13l.47.47a.09.09 0 0 1-.13.13l-.46-.47z" fill="#fff"/><path d="M13.16 21.38a1.38 1.38 0 1 1-1.38 1.38 1.38 1.38 0 0 1 1.38-1.38zm0 .17a1.21 1.21 0 1 1-1.21 1.21 1.21 1.21 0 0 1 1.21-1.21z" fill="#fff"/><path d="M13.17 22.27a.47.47 0 1 1-.47.47.47.47 0 0 1 .47-.47zm0 .27a.21.21 0 1 1-.21.21.21.21 0 0 1 .21-.21z" fill="#fff"/><path d="M13.06 21.74a.09.09 0 0 1 .19 0v.66a.09.09 0 1 1-.19 0v-.66z" fill="#fff"/><path d="M13.06 23.11a.09.09 0 0 1 .19 0v.66a.09.09 0 0 1-.19 0v-.66z" fill="#fff"/><path d="M12.14 22.85a.09.09 0 0 1 0-.19h.66a.09.09 0 0 1 0 .19z" fill="#fff"/><path d="M13.51 22.85a.09.09 0 1 1 0-.19h.66a.09.09 0 1 1 0 .19z" fill="#fff"/><path d="M13.81 22a.09.09 0 0 1 .13 0 .09.09 0 0 1 0 .13l-.47.47a.09.09 0 0 1-.13 0 .09.09 0 0 1 0-.13l.46-.47z" fill="#fff"/><path d="M12.84 22.94a.09.09 0 0 1 .13 0 .09.09 0 0 1 0 .13l-.47.46a.09.09 0 0 1-.13-.13l.47-.47z" fill="#fff"/><path d="M12.37 22.11a.09.09 0 1 1 .13-.11l.47.47a.09.09 0 0 1 0 .13.09.09 0 0 1-.13 0l-.46-.47z" fill="#fff"/><path d="M13.34 23.07a.09.09 0 0 1 0-.13.09.09 0 0 1 .13 0l.47.47a.09.09 0 0 1-.13.13l-.46-.46z" fill="#fff"/><path d="M30 25.89a.55.55 0 1 1 .55-.55.55.55 0 0 1-.55.55z" fill="#fff"/><path d="M44.29 21.88a.31.31 0 1 1 .31-.31.31.31 0 0 1-.31.31z" fill="#fff"/><path d="M32.63 22.62a.27.27 0 1 0-.27-.28.28.28 0 0 0 .27.28z" fill="#fff"/><path d="M27.67 28.5a.27.27 0 1 0-.27-.27.27.27 0 0 0 .27.27z" fill="#fff"/><path d="M36.77 27.35a.27.27 0 1 1 .27-.27.27.27 0 0 1-.27.27z" fill="#fff"/><path d="M44.84 26.44a.27.27 0 1 1 .27-.27.27.27 0 0 1-.27.27z" fill="#fff"/><path d="M36.21 23.75a.45.45 0 1 0-.45-.45.45.45 0 0 0 .45.45z" fill="#fff"/><path d="M41.58 26.63a.55.55 0 1 1 .77.06.55.55 0 0 1-.77-.06z" fill="#fff"/><path d="M53.87 34.92a.31.31 0 1 1 .44 0 .31.31 0 0 1-.44 0z" fill="#fff"/><path d="M45.77 26.51a.27.27 0 1 0 0-.39.27.27 0 0 0 0 .39z" fill="#fff"/><path d="M38.08 26.53a.27.27 0 1 0 0-.39.27.27 0 0 0 0 .39z" fill="#fff"/><path d="M44.84 32.73a.27.27 0 1 1 .39 0 .27.27 0 0 1-.39 0z" fill="#fff"/><path d="M50.8 37.9a.27.27 0 0 1 .32 0z" fill="#fff"/><path d="M47.22 30a.45.45 0 1 0 .05-.64.45.45 0 0 0-.05.64z" fill="#fff"/><path d="M46.3 33.72a.31.31 0 1 1 .13-.42.31.31 0 0 1-.13.42z" fill="#fff"/><path d="M48.89 37.52a.27.27 0 1 1 .12-.37.27.27 0 0 1-.12.37z" fill="#fff"/><path d="M26.12 37.85a.55.55 0 1 1 1.1 0z" fill="#fff"/><path d="M37.75 28.2a.31.31 0 1 1 .13-.42.31.31 0 0 1-.13.42z" fill="#fff"/><path d="M27.74 34.22a.27.27 0 1 0-.37-.12.27.27 0 0 0 .37.12z" fill="#fff"/><path d="M33.6 36.52a.27.27 0 1 1 .12-.37.27.27 0 0 1-.12.37z" fill="#fff"/><path d="M40.34 32a.27.27 0 1 1 .12-.37.27.27 0 0 1-.12.37z" fill="#fff"/><path d="M31.44 33.58a.45.45 0 1 0-.61-.19.45.45 0 0 0 .61.19z" fill="#fff"/><path d="M53.88 22.9a.55.55 0 1 1 .23-.74.55.55 0 0 1-.23.74z" fill="#fff"/><path d="M54.7 18.79a.27.27 0 1 0-.37-.12.27.27 0 0 0 .37.12z" fill="#fff"/><path d="M53 26.29a.27.27 0 1 0-.37-.12.27.27 0 0 0 .37.12z" fill="#fff"/><path d="M57.94 17.37a.45.45 0 0 0 .11.81l-.11-.81z" fill="#fff"/><path d="M5.4 21a.27.27 0 1 1 .12-.37.27.27 0 0 1-.12.37z" fill="#fff"/><path d="M5.76 26a.55.55 0 1 1 .24-.71.55.55 0 0 1-.23.74z" fill="#fff"/><path d="M6.58 21.92a.27.27 0 1 0-.37-.12.27.27 0 0 0 .37.12z" fill="#fff"/><path d="M4.88 29.42a.27.27 0 1 0-.37-.12.27.27 0 0 0 .37.12z" fill="#fff"/><path d="M12.43 24.22a.27.27 0 1 1 .12-.37.27.27 0 0 1-.12.37z" fill="#fff"/><path d="M19.18 19.7a.27.27 0 1 1 .12-.37.27.27 0 0 1-.12.37z" fill="#fff"/><path d="M10.27 21.28a.45.45 0 1 0-.61-.19.45.45 0 0 0 .61.19z" fill="#fff"/><path d="M0 18.5c1.34 0 2.68.06 4 .06 11.28 0 26.28-1.24 36.91-2.16-13.16-.29-26.53-.22-40.91 1.67v.43z" fill="#fff"/><path d="M42.42 29.26a.21.21 0 1 0 .21.21.21.21 0 0 0-.21-.21z" fill="#bd86bb"/><path d="M42.53 28.46a.09.09 0 1 0-.19 0v.66a.09.09 0 1 0 .19 0v-.66z" fill="#bd86bb"/><path d="M42.53 29.83a.09.09 0 1 0-.19 0v.66a.09.09 0 0 0 .19 0v-.66z" fill="#bd86bb"/><path d="M43.45 29.56a.09.09 0 1 0 0-.19h-.66a.09.09 0 0 0 0 .19z" fill="#bd86bb"/><path d="M42.08 29.56a.09.09 0 0 0 0-.19h-.66a.09.09 0 0 0 0 .19z" fill="#bd86bb"/><path d="M41.78 28.69a.09.09 0 0 0-.13 0 .09.09 0 0 0 0 .13l.47.47a.09.09 0 1 0 .13-.13l-.47-.47z" fill="#bd86bb"/><path d="M42.75 29.66a.09.09 0 0 0-.13 0 .09.09 0 0 0 0 .13l.47.47a.09.09 0 0 0 .13-.13l-.47-.47z" fill="#bd86bb"/><path d="M43.22 28.82a.09.09 0 0 0 0-.13.09.09 0 0 0-.13 0l-.47.47a.09.09 0 0 0 0 .13.09.09 0 0 0 .13 0l.47-.47z" fill="#bd86bb"/><path d="M42.25 29.79a.09.09 0 1 0-.13-.13l-.47.47a.09.09 0 0 0 0 .13.09.09 0 0 0 .13 0l.47-.47z" fill="#bd86bb"/><path d="M42.79 28.1a.09.09 0 0 0-.15-.11l-.2.28-.2-.27a.09.09 0 0 0-.15.1l.26.39a.09.09 0 0 0 .13 0l.28-.39z" fill="#bd86bb"/><path d="M42.79 30.79a.09.09 0 1 1-.15.11l-.2-.28-.19.29a.09.09 0 0 1-.15-.1l.26-.39a.09.09 0 0 1 .13 0l.28.39z" fill="#bd86bb"/><path d="M41 29.83a.09.09 0 1 1-.11-.15l.28-.2-.28-.19a.09.09 0 0 1 0-.13.09.09 0 0 1 .13 0l.39.26a.09.09 0 0 1 0 .13l-.39.28z" fill="#bd86bb"/><path d="M43.8 29.82a.09.09 0 0 0 .11-.15l-.28-.2.29-.19a.09.09 0 0 0 0-.13.09.09 0 0 0-.13 0l-.39.26a.09.09 0 0 0 0 .13l.39.28z" fill="#bd86bb"/><path d="M41.76 28.28a.09.09 0 0 0-.11-.08.09.09 0 0 0-.08.11l.06.34-.34-.06a.09.09 0 0 0-.11.07.09.09 0 0 0 .07.11l.46.09a.09.09 0 0 0 .08-.11l-.08-.47z" fill="#bd86bb"/><path d="M43.14 28.28a.09.09 0 1 1 .18 0l-.06.34.34-.06a.09.09 0 0 1 0 .18l-.46.09a.09.09 0 0 1-.08-.11l.08-.47z" fill="#bd86bb"/><path d="M41.75 30.66a.09.09 0 0 1-.11.08.09.09 0 0 1-.08-.11l.06-.34-.34.06a.09.09 0 0 1-.11-.07.09.09 0 0 1 .07-.11l.46-.09a.09.09 0 0 1 .08.11l-.08.47z" fill="#bd86bb"/><path d="M43.13 30.66a.09.09 0 1 0 .18 0l-.06-.34.34.06a.09.09 0 0 0 .11-.07.09.09 0 0 0-.07-.11l-.46-.09a.09.09 0 0 0-.08.11l.08.47z" fill="#bd86bb"/><path d="M41.33 28.16a.15.15 0 1 0 0 .3.15.15 0 0 0 0-.3z" fill="#bd86bb"/><path d="M42.43 27.6a.15.15 0 1 0 0 .3.15.15 0 0 0 0-.3z" fill="#bd86bb"/><path d="M43.58 28.12a.15.15 0 1 0 .15.15.15.15 0 0 0-.15-.15z" fill="#bd86bb"/><path d="M44.09 29.26a.15.15 0 1 0 .15.15.15.15 0 0 0-.15-.15z" fill="#bd86bb"/><path d="M40.75 29.31a.15.15 0 1 0 .15.15.15.15 0 0 0-.15-.15z" fill="#bd86bb"/><path d="M41.29 30.43a.15.15 0 1 0 .15.15.15.15 0 0 0-.15-.15z" fill="#bd86bb"/><path d="M42.41 30.91a.15.15 0 1 0 .15.15.15.15 0 0 0-.15-.15z" fill="#bd86bb"/><path d="M43.53 30.43a.15.15 0 1 0 .15.15.15.15 0 0 0-.15-.15z" fill="#bd86bb"/><path d="M51.41 31.37a.16.16 0 1 0 .16.16.16.16 0 0 0-.16-.16z" fill="#bd86bb"/><path d="M51.48 30.76a.07.07 0 0 0-.07-.07.07.07 0 0 0-.07.07v.5a.07.07 0 0 0 .07.07.07.07 0 0 0 .07-.07v-.5z" fill="#bd86bb"/><path d="M51.82 30.25a.07.07 0 0 0 0-.1.07.07 0 0 0-.1 0l-.31.44-.29-.43a.07.07 0 1 0-.12.08l.34.51a.07.07 0 0 0 .1 0l.37-.52z" fill="#bd86bb"/><path d="M51.67 30a.07.07 0 0 0-.11-.08l-.15.21-.15-.22a.07.07 0 0 0-.1 0 .07.07 0 0 0 0 .1l.2.3a.07.07 0 0 0 .1 0l.21-.3z" fill="#bd86bb"/><path d="M51.48 32.31a.07.07 0 0 1-.07.07.07.07 0 0 1-.07-.07v-.5a.07.07 0 0 1 .07-.07.07.07 0 0 1 .07.07v.5z" fill="#bd86bb"/><path d="M51.82 32.82a.07.07 0 0 1-.11.08l-.31-.44-.29.43a.07.07 0 1 1-.12-.08l.34-.51a.07.07 0 0 1 .1 0l.37.52z" fill="#bd86bb"/><path d="M51.67 33a.07.07 0 0 1 0 .1.07.07 0 0 1-.1 0l-.15-.21-.15.22a.07.07 0 0 1-.1 0 .07.07 0 0 1 0-.1l.2-.3a.07.07 0 0 1 .1 0l.21.29z" fill="#bd86bb"/><path d="M50.63 31.47a.07.07 0 0 0 0 .14h.5a.07.07 0 0 0 0-.14z" fill="#bd86bb"/><path d="M50.12 31.12a.07.07 0 0 0-.1 0 .07.07 0 0 0 0 .1l.44.31-.43.29a.07.07 0 1 0 .08.12l.51-.34a.07.07 0 0 0 0-.1l-.52-.37z" fill="#bd86bb"/><path d="M49.9 31.27a.07.07 0 0 0-.08.11l.21.15-.22.15a.07.07 0 0 0 0 .1.07.07 0 0 0 .1 0l.3-.2a.07.07 0 0 0 0-.1l-.29-.21z" fill="#bd86bb"/><path d="M52.18 31.47a.07.07 0 0 1 0 .14h-.5a.07.07 0 0 1 0-.14z" fill="#bd86bb"/><path d="M52.69 31.12a.07.07 0 0 1 .1 0 .07.07 0 0 1 0 .1l-.44.31.43.29a.07.07 0 0 1 0 .1.07.07 0 0 1-.1 0l-.51-.34a.07.07 0 0 1 0-.1l.52-.37z" fill="#bd86bb"/><path d="M52.91 31.27a.07.07 0 0 1 .1 0 .07.07 0 0 1 0 .1l-.21.15.22.15a.07.07 0 0 1-.08.12l-.3-.2a.07.07 0 0 1 0-.1l.3-.21z" fill="#bd86bb"/><path d="M50.81 32a.07.07 0 0 0 0 .1.07.07 0 0 0 .1 0l.36-.35a.07.07 0 0 0 0-.1.07.07 0 0 0-.1 0l-.35.35z" fill="#bd86bb"/><path d="M50.21 32.15a.07.07 0 0 0-.06.08.07.07 0 0 0 .08.06l.53-.09-.1.5a.07.07 0 0 0 .06.08.07.07 0 0 0 .08-.06l.12-.6a.07.07 0 0 0-.08-.06l-.63.1z" fill="#bd86bb"/><path d="M50.15 32.42a.07.07 0 0 0-.06.08.07.07 0 0 0 .08.06h.26v.26a.07.07 0 0 0 .14 0l.07-.35a.07.07 0 0 0-.08-.06l-.36.06z" fill="#bd86bb"/><path d="M51.9 30.94a.07.07 0 0 1 .1.1l-.35.35a.07.07 0 1 1-.1-.1l.35-.35z" fill="#bd86bb"/><path d="M52 30.34a.07.07 0 0 1 .08-.06.07.07 0 0 1 .06.08l-.09.53.5-.1a.07.07 0 1 1 0 .14L52 31a.07.07 0 0 1-.06-.08l.11-.63z" fill="#bd86bb"/><path d="M52.29 30.29a.07.07 0 0 1 .08-.06.07.07 0 0 1 .06.08v.26h.26a.07.07 0 0 1 .08.06.07.07 0 0 1-.06.08l-.35.07a.07.07 0 0 1-.06-.08l.06-.36z" fill="#bd86bb"/><path d="M51.9 32.14a.07.07 0 0 0 .1 0 .07.07 0 0 0 0-.1l-.35-.35a.07.07 0 0 0-.1 0 .07.07 0 0 0 0 .1l.35.35z" fill="#bd86bb"/><path d="M52 32.74a.07.07 0 0 0 .08.06.07.07 0 0 0 .06-.08l-.09-.53.5.1a.07.07 0 1 0 0-.14L52 32a.07.07 0 0 0-.06.08l.11.63z" fill="#bd86bb"/><path d="M52.29 32.79a.07.07 0 0 0 .08.06.07.07 0 0 0 .06-.08v-.26h.26a.07.07 0 0 0 .08-.06.07.07 0 0 0-.06-.08l-.35-.07a.07.07 0 0 0-.06.08l.06.36z" fill="#bd86bb"/><path d="M50.81 31a.07.07 0 0 1 0-.1.07.07 0 0 1 .1 0l.35.35a.07.07 0 0 1 0 .1.07.07 0 0 1-.1 0l-.35-.35z" fill="#bd86bb"/><path d="M50.21 30.93a.07.07 0 1 1 0-.14l.53.09-.1-.5a.07.07 0 0 1 .14 0l.12.6a.07.07 0 0 1-.08.06l-.63-.11z" fill="#bd86bb"/><path d="M50.15 30.66a.07.07 0 0 1-.06-.08.07.07 0 0 1 .08-.06h.26v-.26a.07.07 0 0 1 .05-.08.07.07 0 0 1 .08.06l.07.35a.07.07 0 0 1-.08.06l-.36-.06z" fill="#bd86bb"/><path d="M51.41 29.22a2.32 2.32 0 1 0 2.31 2.32 2.32 2.32 0 0 0-2.31-2.32zm0 .19a2.13 2.13 0 1 0 2.13 2.13 2.13 2.13 0 0 0-2.13-2.13z" fill="#bd86bb"/><path d="M51.32 29.46a.14.14 0 1 0 .14.14.14.14 0 0 0-.14-.14z" fill="#bd86bb"/><path d="M50.79 29.57a.14.14 0 1 0 .14.14.14.14 0 0 0-.14-.14z" fill="#bd86bb"/><path d="M50.29 29.85a.14.14 0 1 0 .14.14.14.14 0 0 0-.14-.14z" fill="#bd86bb"/><path d="M49.92 30.19a.14.14 0 1 0 .14.14.14.14 0 0 0-.14-.14z" fill="#bd86bb"/><path d="M49.66 30.64a.14.14 0 1 0 .14.14.14.14 0 0 0-.14-.14z" fill="#bd86bb"/><path d="M49.52 31.1a.14.14 0 1 0 .14.14.14.14 0 0 0-.14-.14z" fill="#bd86bb"/><path d="M49.52 31.63a.14.14 0 1 0 .14.14.14.14 0 0 0-.14-.14z" fill="#bd86bb"/><path d="M49.64 32.1a.14.14 0 1 0 .14.14.14.14 0 0 0-.14-.14z" fill="#bd86bb"/><path d="M49.89 32.5a.14.14 0 1 0 .14.14.14.14 0 0 0-.14-.14z" fill="#bd86bb"/><path d="M50.24 32.87a.14.14 0 1 0 .14.14.14.14 0 0 0-.14-.14z" fill="#bd86bb"/><path d="M50.67 33.13a.14.14 0 0 0-.14.14.14.14 0 0 0 .28 0 .14.14 0 0 0-.14-.14z" fill="#bd86bb"/><path d="M51.27 33.28a.14.14 0 1 0 .14.14.14.14 0 0 0-.14-.14z" fill="#bd86bb"/><path d="M51.85 33.24a.14.14 0 1 0 .14.14.14.14 0 0 0-.14-.14z" fill="#bd86bb"/><path d="M52.37 33a.14.14 0 1 0 .14.14.14.14 0 0 0-.14-.14z" fill="#bd86bb"/><path d="M52.81 32.68a.14.14 0 1 0 .14.14.14.14 0 0 0-.14-.14z" fill="#bd86bb"/><path d="M53.1 32.26a.14.14 0 1 0 .14.14.14.14 0 0 0-.14-.14z" fill="#bd86bb"/><path d="M53.32 31.7a.14.14 0 1 0 .14.14.14.14 0 0 0-.14-.14z" fill="#bd86bb"/><path d="M53.32 31.09a.14.14 0 1 0 .14.14.14.14 0 0 0-.14-.14z" fill="#bd86bb"/><path d="M52.81 30.08a.14.14 0 1 0 .14.14.14.14 0 0 0-.14-.14z" fill="#bd86bb"/><path d="M53.14 30.53a.14.14 0 1 0 .14.14.14.14 0 0 0-.14-.14z" fill="#bd86bb"/><path d="M52.38 29.73a.14.14 0 1 0 .14.14.14.14 0 0 0-.14-.14z" fill="#bd86bb"/><path d="M51.87 29.51a.14.14 0 1 0 .14.14.14.14 0 0 0-.14-.14z" fill="#bd86bb"/><path d="M19.63 23.11a.16.16 0 1 0 .16.16.16.16 0 0 0-.16-.16z" fill="#bd86bb"/><path d="M19.7 22.5a.07.07 0 1 0-.14 0v.5a.07.07 0 1 0 .14 0v-.5z" fill="#bd86bb"/><path d="M20 22a.07.07 0 0 0 0-.1.07.07 0 0 0-.1 0l-.31.44-.29-.43a.07.07 0 1 0-.12.08l.34.51a.07.07 0 0 0 .1 0L20 22z" fill="#bd86bb"/><path d="M19.9 21.77a.07.07 0 1 0-.11-.08l-.15.21-.15-.22a.07.07 0 0 0-.12.08l.2.3a.07.07 0 0 0 .1 0l.21-.3z" fill="#bd86bb"/><path d="M19.7 24a.07.07 0 1 1-.14 0v-.5a.07.07 0 1 1 .14 0v.5z" fill="#bd86bb"/><path d="M20 24.56a.07.07 0 0 1-.11.08l-.31-.44-.29.43a.07.07 0 0 1-.1 0 .07.07 0 0 1 0-.1l.34-.51a.07.07 0 0 1 .1 0l.37.52z" fill="#bd86bb"/><path d="M19.9 24.78a.07.07 0 0 1-.11.08l-.15-.21-.15.22a.07.07 0 0 1-.1 0 .07.07 0 0 1 0-.1l.2-.3a.07.07 0 0 1 .1 0l.21.3z" fill="#bd86bb"/><path d="M18.86 23.2a.07.07 0 0 0-.07.07.07.07 0 0 0 .07.07h.5a.07.07 0 0 0 0-.14z" fill="#bd86bb"/><path d="M18.35 22.86a.07.07 0 0 0-.08.11l.44.31-.43.29a.07.07 0 0 0 .08.12l.51-.34a.07.07 0 0 0 0-.1l-.52-.37z" fill="#bd86bb"/><path d="M18.13 23a.07.07 0 1 0-.08.11l.21.15-.22.15a.07.07 0 0 0 .08.12l.3-.2a.07.07 0 0 0 0-.1l-.3-.21z" fill="#bd86bb"/><path d="M20.41 23.2a.07.07 0 0 1 .07.07.07.07 0 0 1-.07.07h-.5a.07.07 0 1 1 0-.14z" fill="#bd86bb"/><path d="M20.92 22.86A.07.07 0 1 1 21 23l-.44.31.43.29a.07.07 0 0 1-.08.12l-.51-.34a.07.07 0 0 1 0-.1l.52-.37z" fill="#bd86bb"/><path d="M21.14 23a.07.07 0 0 1 .1 0 .07.07 0 0 1 0 .1l-.21.15.22.15a.07.07 0 0 1-.08.12l-.3-.2a.07.07 0 0 1 0-.1l.3-.21z" fill="#bd86bb"/><path d="M19 23.77a.07.07 0 0 0 0 .1.07.07 0 0 0 .1 0l.35-.35a.07.07 0 0 0 0-.1.07.07 0 0 0-.1 0l-.35.35z" fill="#bd86bb"/><path d="M18.43 23.89a.07.07 0 0 0-.06.08.07.07 0 0 0 .08.06l.53-.09-.1.51a.07.07 0 0 0 .06.08.07.07 0 0 0 .08-.06l.12-.6a.07.07 0 0 0-.08-.06l-.63.1z" fill="#bd86bb"/><path d="M18.38 24.15a.07.07 0 0 0 0 .14h.26v.26a.07.07 0 0 0 .06.08.07.07 0 0 0 .08-.06l.07-.35a.07.07 0 0 0-.08-.06l-.36.06z" fill="#bd86bb"/><path d="M20.13 22.68a.07.07 0 0 1 .1.1l-.35.35a.07.07 0 0 1-.1-.1l.35-.35z" fill="#bd86bb"/><path d="M20.25 22.07a.07.07 0 0 1 .14 0l-.09.53.51-.1a.07.07 0 0 1 .08.06.07.07 0 0 1-.06.08l-.6.12a.07.07 0 0 1-.06-.08l.11-.63z" fill="#bd86bb"/><path d="M20.51 22a.07.07 0 0 1 .08-.06.07.07 0 0 1 .06.08v.26h.26a.07.07 0 0 1 0 .14l-.35.07a.07.07 0 0 1-.06-.08l.06-.36z" fill="#bd86bb"/><path d="M20.13 23.88a.07.07 0 1 0 .1-.1l-.35-.35a.07.07 0 0 0-.1.1l.35.35z" fill="#bd86bb"/><path d="M20.25 24.48a.07.07 0 1 0 .14 0l-.09-.53.51.1a.07.07 0 0 0 .08-.06.07.07 0 0 0-.06-.08l-.6-.12a.07.07 0 0 0-.06.08l.11.63z" fill="#bd86bb"/><path d="M20.51 24.53a.07.07 0 0 0 .14 0v-.26h.26a.07.07 0 0 0 .08-.06.07.07 0 0 0-.06-.08l-.35-.07a.07.07 0 0 0-.06.08l.06.36z" fill="#bd86bb"/><path d="M19 22.78a.07.07 0 0 1 0-.1.07.07 0 0 1 .1 0l.35.35a.07.07 0 0 1-.1.1l-.35-.35z" fill="#bd86bb"/><path d="M18.43 22.66a.07.07 0 0 1-.06-.08.07.07 0 0 1 .08-.06l.53.09-.1-.51a.07.07 0 0 1 .14 0l.12.6a.07.07 0 0 1-.08.06l-.63-.11z" fill="#bd86bb"/><path d="M18.38 22.4a.07.07 0 0 1 0-.14h.26V22a.07.07 0 1 1 .14 0l.07.35a.07.07 0 0 1-.08.06l-.36-.06z" fill="#bd86bb"/><path d="M19.63 21a2.31 2.31 0 1 0 2.31 2.32A2.32 2.32 0 0 0 19.63 21zm0 .18a2.13 2.13 0 1 0 2.13 2.13 2.13 2.13 0 0 0-2.13-2.13z" fill="#bd86bb"/><path d="M19.55 21.19a.14.14 0 1 0 .14.14.14.14 0 0 0-.14-.14z" fill="#bd86bb"/><path d="M19 21.31a.14.14 0 1 0 .14.14.14.14 0 0 0-.14-.14z" fill="#bd86bb"/><path d="M18.52 21.59a.14.14 0 1 0 .14.14.14.14 0 0 0-.14-.14z" fill="#bd86bb"/><path d="M18.15 21.93a.14.14 0 1 0 .14.14.14.14 0 0 0-.14-.14z" fill="#bd86bb"/><path d="M17.89 22.38a.14.14 0 1 0 .14.14.14.14 0 0 0-.14-.14z" fill="#bd86bb"/><path d="M17.74 22.84a.14.14 0 1 0 .14.14.14.14 0 0 0-.14-.14z" fill="#bd86bb"/><path d="M17.74 23.37a.14.14 0 1 0 .14.14.14.14 0 0 0-.14-.14z" fill="#bd86bb"/><path d="M17.86 23.84A.14.14 0 1 0 18 24a.14.14 0 0 0-.14-.14z" fill="#bd86bb"/><path d="M18.11 24.24a.14.14 0 1 0 .14.14.14.14 0 0 0-.14-.14z" fill="#bd86bb"/><path d="M18.47 24.61a.14.14 0 1 0 .14.14.14.14 0 0 0-.14-.14z" fill="#bd86bb"/><path d="M18.9 24.87a.14.14 0 1 0 .1.13.14.14 0 0 0-.14-.14z" fill="#bd86bb"/><path d="M19.49 25a.14.14 0 1 0 .14.14.14.14 0 0 0-.14-.14z" fill="#bd86bb"/><path d="M20.07 25a.14.14 0 1 0 .14.14.14.14 0 0 0-.14-.14z" fill="#bd86bb"/><path d="M20.6 24.76a.14.14 0 1 0 .14.14.14.14 0 0 0-.14-.14z" fill="#bd86bb"/><path d="M21 24.42a.14.14 0 1 0 .14.14.14.14 0 0 0-.14-.14z" fill="#bd86bb"/><path d="M21.33 24a.14.14 0 1 0 .14.14.14.14 0 0 0-.14-.14z" fill="#bd86bb"/><path d="M21.55 23.43a.14.14 0 1 0 .14.14.14.14 0 0 0-.14-.14z" fill="#bd86bb"/><path d="M21.55 22.82a.14.14 0 1 0 .14.14.14.14 0 0 0-.14-.14z" fill="#bd86bb"/><path d="M21 21.81a.14.14 0 1 0 .14.14.14.14 0 0 0-.14-.14z" fill="#bd86bb"/><path d="M21.36 22.27a.14.14 0 1 0 .14.14.14.14 0 0 0-.14-.14z" fill="#bd86bb"/><path d="M20.6 21.47a.14.14 0 1 0 .14.14.14.14 0 0 0-.14-.14z" fill="#bd86bb"/><path d="M20.1 21.25a.14.14 0 0 0 0 .28.14.14 0 0 0 0-.28z" fill="#bd86bb"/><path d="M57.6 31.43a.2.2 0 1 0 .19.19.19.19 0 0 0-.19-.19z" fill="#bd86bb"/><path d="M57.7 30.69a.09.09 0 0 0-.17 0v.61a.09.09 0 1 0 .17 0v-.61z" fill="#bd86bb"/><path d="M57.7 32a.09.09 0 0 0-.17 0v.61a.09.09 0 1 0 .17 0V32z" fill="#bd86bb"/><path d="M58.56 31.71a.09.09 0 1 0 0-.17h-.61a.09.09 0 1 0 0 .17z" fill="#bd86bb"/><path d="M57.29 31.71a.09.09 0 0 0 .09-.09.09.09 0 0 0-.09-.09h-.61a.09.09 0 0 0 0 .17z" fill="#bd86bb"/><path d="M57 30.9a.09.09 0 1 0-.12.12l.43.43a.08.08 0 0 0 .12 0 .09.09 0 0 0 0-.12L57 30.9z" fill="#bd86bb"/><path d="M57.91 31.8a.08.08 0 0 0-.12 0 .09.09 0 0 0 0 .12l.43.43a.09.09 0 0 0 .12 0 .08.08 0 0 0 0-.12l-.43-.43z" fill="#bd86bb"/><path d="M58.34 31a.08.08 0 0 0 0-.12.09.09 0 0 0-.12 0l-.43.43a.09.09 0 0 0 0 .12.08.08 0 0 0 .12 0l.43-.43z" fill="#bd86bb"/><path d="M57.45 31.92a.09.09 0 0 0 0-.12.08.08 0 0 0-.12 0l-.43.43a.09.09 0 0 0 0 .12.09.09 0 0 0 .12 0l.43-.43z" fill="#bd86bb"/><path d="M57.94 30.36a.08.08 0 0 0 0-.12.09.09 0 0 0-.12 0l-.19.26-.18-.26a.09.09 0 1 0-.14.1l.24.36a.09.09 0 0 0 .12 0l.26-.36z" fill="#bd86bb"/><path d="M57.94 32.85a.08.08 0 0 1 0 .12.08.08 0 0 1-.12 0l-.19-.26-.18.26a.09.09 0 0 1-.12 0 .08.08 0 0 1 0-.12l.24-.36a.09.09 0 0 1 .12 0l.26.36z" fill="#bd86bb"/><path d="M56.33 32a.09.09 0 0 1-.1-.14l.26-.19-.26-.18a.09.09 0 0 1 .1-.14l.36.24a.08.08 0 0 1 0 .12l-.36.26z" fill="#bd86bb"/><path d="M58.81 31.68l-.08-.06.09-.06v-.21l-.29.2a.09.09 0 0 0 0 .12l.27.2v-.2z" fill="#bd86bb"/><path d="M57 30.53a.09.09 0 1 0-.17 0l.05.32-.31-.06a.09.09 0 0 0-.1.07.09.09 0 0 0 .07.1l.43.08a.08.08 0 0 0 .07-.1l-.04-.41z" fill="#bd86bb"/><path d="M58.27 30.53a.09.09 0 0 1 .1-.07.09.09 0 0 1 .07.1l-.05.32.31-.06a.09.09 0 1 1 0 .17l-.43.08a.09.09 0 0 1-.07-.1l.07-.44z" fill="#bd86bb"/><path d="M57 32.73a.09.09 0 1 1-.17 0l.05-.32-.31.06a.08.08 0 0 1-.1-.07.09.09 0 0 1 .07-.1l.46-.1a.09.09 0 0 1 .07.1l-.07.44z" fill="#bd86bb"/><path d="M58.26 32.73a.09.09 0 1 0 .17 0l-.05-.32.31.06a.09.09 0 0 0 .07 0v-.17l-.43-.08a.09.09 0 0 0-.07.1l.07.44z" fill="#bd86bb"/><path d="M35.3 19.74a1.38 1.38 0 1 0 1.38 1.38 1.38 1.38 0 0 0-1.38-1.38zm0 .17a1.21 1.21 0 1 0 1.21 1.21 1.21 1.21 0 0 0-1.21-1.21z" fill="#bd86bb"/><path d="M35.29 20.64a.47.47 0 1 0 .47.47.47.47 0 0 0-.47-.47zm0 .27a.21.21 0 1 0 .21.21.21.21 0 0 0-.21-.21z" fill="#bd86bb"/><path d="M35.39 20.11a.09.09 0 1 0-.18 0v.66a.09.09 0 1 0 .18 0v-.66z" fill="#bd86bb"/><path d="M35.39 21.47a.09.09 0 1 0-.18 0v.66a.09.09 0 1 0 .18 0v-.66z" fill="#bd86bb"/><path d="M36.31 21.21a.09.09 0 1 0 0-.19h-.66a.09.09 0 0 0 0 .19z" fill="#bd86bb"/><path d="M34.95 21.21a.09.09 0 0 0 0-.19h-.66a.09.09 0 0 0 0 .19z" fill="#bd86bb"/><path d="M34.65 20.34a.09.09 0 0 0-.13.13l.47.47a.09.09 0 0 0 .13-.13l-.46-.46z" fill="#bd86bb"/><path d="M35.62 21.31a.09.09 0 0 0-.13.13l.47.46a.09.09 0 1 0 .13-.13l-.47-.46z" fill="#bd86bb"/><path d="M36.08 20.47a.09.09 0 1 0-.13-.13l-.46.46a.09.09 0 1 0 .13.13l.47-.47z" fill="#bd86bb"/><path d="M35.12 21.44a.09.09 0 0 0-.13-.13l-.47.46a.09.09 0 0 0 .13.13l.46-.46z" fill="#bd86bb"/><path d="M10.54 31.2a.21.21 0 1 0 .21.21.21.21 0 0 0-.21-.21z" fill="#fff"/><path d="M10.65 30.4a.09.09 0 1 0-.19 0v.66a.09.09 0 1 0 .19 0v-.66z" fill="#fff"/><path d="M10.65 31.78a.09.09 0 0 0-.19 0v.66a.09.09 0 1 0 .19 0v-.66z" fill="#fff"/><path d="M11.57 31.51a.09.09 0 1 0 0-.19h-.66a.09.09 0 0 0 0 .19z" fill="#fff"/><path d="M10.2 31.51a.09.09 0 1 0 0-.19h-.66a.09.09 0 0 0 0 .19z" fill="#fff"/><path d="M9.9 30.64a.09.09 0 0 0-.13 0 .09.09 0 0 0 0 .13l.47.47a.09.09 0 0 0 .13-.13l-.47-.47z" fill="#fff"/><path d="M10.87 31.61a.09.09 0 0 0-.13.13l.47.46a.09.09 0 0 0 .13 0 .09.09 0 0 0 0-.13l-.47-.47z" fill="#fff"/><path d="M11.34 30.77a.09.09 0 0 0-.13-.13l-.47.47a.09.09 0 0 0 .13.13l.47-.47z" fill="#fff"/><path d="M10.37 31.74a.09.09 0 0 0-.13-.13l-.47.47a.09.09 0 0 0 0 .13.09.09 0 0 0 .13 0l.47-.47z" fill="#fff"/><path d="M10.91 30a.09.09 0 0 0-.15-.11l-.2.28-.19-.28a.09.09 0 0 0-.15.1l.26.39a.09.09 0 0 0 .13 0l.28-.39z" fill="#fff"/><path d="M10.91 32.74a.09.09 0 1 1-.15.11l-.2-.28-.19.28a.09.09 0 0 1-.15-.1l.26-.39a.09.09 0 0 1 .13 0l.28.39z" fill="#fff"/><path d="M9.16 31.77a.09.09 0 0 1-.11-.15l.28-.2-.33-.19a.09.09 0 0 1 0-.13.09.09 0 0 1 .13 0l.39.26a.09.09 0 0 1 0 .13l-.39.28z" fill="#fff"/><path d="M11.93 31.76a.09.09 0 0 0 .11-.15l-.28-.2.29-.19a.09.09 0 0 0-.1-.15l-.39.26a.09.09 0 0 0 0 .13l.39.28z" fill="#fff"/><path d="M9.89 30.23a.09.09 0 0 0-.18 0l.06.34-.34-.06a.09.09 0 0 0-.11.07.09.09 0 0 0 .07.11l.46.09a.09.09 0 0 0 .15-.08l-.08-.47z" fill="#fff"/><path d="M11.26 30.23a.09.09 0 0 1 .18 0l-.06.34.34-.06a.09.09 0 0 1 .11.07.09.09 0 0 1-.07.11l-.46.09a.09.09 0 0 1-.08-.11l.08-.47z" fill="#fff"/><path d="M9.87 32.61a.09.09 0 1 1-.18 0l.06-.34-.34.07a.09.09 0 0 1-.11-.07.09.09 0 0 1 .07-.11l.47-.16a.09.09 0 0 1 .08.11l-.08.47z" fill="#fff"/><path d="M11.25 32.61a.09.09 0 1 0 .18 0l-.06-.34.34.07a.09.09 0 0 0 0-.18l-.42-.16a.09.09 0 0 0-.08.11l.08.47z" fill="#fff"/><path d="M9.45 30.11a.15.15 0 1 0 .15.15.15.15 0 0 0-.15-.15z" fill="#fff"/><path d="M10.55 29.55a.15.15 0 1 0 .15.15.15.15 0 0 0-.15-.15z" fill="#fff"/><path d="M11.7 30.07a.15.15 0 1 0 .15.15.15.15 0 0 0-.15-.15z" fill="#fff"/><path d="M12.22 31.21a.15.15 0 1 0 .15.15.15.15 0 0 0-.15-.15z" fill="#fff"/><path d="M8.87 31.25a.15.15 0 1 0 .15.15.15.15 0 0 0-.15-.15z" fill="#fff"/><path d="M9.41 32.38a.15.15 0 1 0 .15.15.15.15 0 0 0-.15-.15z" fill="#fff"/><path d="M10.53 32.85a.15.15 0 1 0 .15.15.15.15 0 0 0-.15-.15z" fill="#fff"/><path d="M11.66 32.38a.15.15 0 1 0 .15.15.15.15 0 0 0-.15-.15z" fill="#fff"/><path d="M18.62 36.37a.28.28 0 1 0 .28.28.28.28 0 0 0-.28-.28z" fill="#fff"/><path d="M18.76 35.32a.12.12 0 1 0-.24 0v.87a.12.12 0 1 0 .24 0v-.87z" fill="#fff"/><path d="M18.76 37.12a.12.12 0 0 0-.24 0v.74h.24v-.74z" fill="#fff"/><path d="M20 36.77a.12.12 0 0 0 0-.24h-.87a.12.12 0 1 0 0 .24z" fill="#fff"/><path d="M18.17 36.77a.12.12 0 0 0 0-.24h-.87a.12.12 0 0 0 0 .24z" fill="#fff"/><path d="M17.78 35.62a.12.12 0 1 0-.17.17l.61.61a.12.12 0 0 0 .17-.17l-.61-.61z" fill="#fff"/><path d="M19.06 36.9a.12.12 0 1 0-.17.17l.61.61a.12.12 0 0 0 .17-.17l-.61-.61z" fill="#fff"/><path d="M19.67 35.79a.12.12 0 1 0-.17-.17l-.61.61a.12.12 0 0 0 .17.17l.61-.61z" fill="#fff"/><path d="M18.39 37.07a.12.12 0 1 0-.17-.17l-.61.61a.12.12 0 0 0 .17.17l.61-.61z" fill="#fff"/><path d="M18.64 34.57a.36.36 0 1 0 .36.36.36.36 0 0 0-.36-.36z" fill="#fff"/><path d="M17 36.28a.36.36 0 1 0 .36.36.36.36 0 0 0-.36-.36z" fill="#fff"/><path d="M20.25 36.28a.36.36 0 1 0 .36.36.36.36 0 0 0-.36-.36z" fill="#fff"/><path d="M17.47 37.45a.36.36 0 0 0-.36.36h.72a.36.36 0 0 0-.36-.36z" fill="#fff"/><path d="M19.82 35.09a.36.36 0 1 0 .36.36.36.36 0 0 0-.36-.36z" fill="#fff"/><path d="M17.45 35.1a.36.36 0 1 0 .36.36.36.36 0 0 0-.36-.36z" fill="#fff"/><path d="M19.82 37.41a.36.36 0 0 0-.36.36.38.38 0 0 0 0 .08h.71a.37.37 0 0 0 0-.08.36.36 0 0 0-.36-.36z" fill="#fff"/><path d="M11.15 37.8a.27.27 0 1 1 .37-.12.27.27 0 0 1-.37.12z" fill="#fff"/><path d="M7.45 37.15a.45.45 0 1 1 .61-.15.45.45 0 0 1-.61.19z" fill="#fff"/><path d="M20.51 36.39a.55.55 0 1 0-.23-.74.55.55 0 0 0 .23.74z" fill="#fff"/><path d="M19.69 32.28a.27.27 0 1 1 .37-.12.28.28 0 0 1-.37.12z" fill="#fff"/><path d="M13.83 34.58a.27.27 0 1 0-.12-.37.27.27 0 0 0 .12.37z" fill="#fff"/><path d="M7.09 30.06a.27.27 0 1 0-.09-.37.27.27 0 0 0 .12.37z" fill="#fff"/><path d="M16 31.64a.45.45 0 1 1 .61-.19.45.45 0 0 1-.61.19z" fill="#fff"/><path d="M5 29a.15.15 0 1 1-.15.15A.15.15 0 0 1 5 29z" fill="#bd86bb"/><path d="M32 12.51c1.38-6.81 3.35-10.18 5.18-11.39a2.9 2.9 0 0 1 4.08.54 6.38 6.38 0 0 1 1.29 4.69c-.25 2.66-1.94 5.53-6 6.86l-2.28.79-.27-.55c3.18-1.67 6.91-3 7.31-7.21.53-5.58-2.2-5.21-4-3.88-2.71 2-4.62 8-5.06 10.21l-.25-.06z" fill="#ed1c24"/><path d="M28.18 17.4L10.91 11l-.33-1.22c2.1-3.14 3.61-6.59 5.88-9.64C17.77-1.4 26.18 12.32 30 17.18l-1.8.22z" fill="#ed1c24"/><path d="M28 17.32l2.47-.6C24.83 12.46 15.75 3 16.32.3c-2.72 3.25-5.77 7.07-5.79 9.94.87 4.28 9 5.84 17.48 7.08z" fill="#f1a18b"/><path d="M10.9 10.09a56.87 56.87 0 0 0 15.28 3.51c.31.3.53.32.63.81-1.69.36-4.14 1.14-5.83 1.5-5.66-1.16-9-3.31-10.08-5.82z" fill="#ed1c24"/><path d="M32.47 16.73c6.73-3.28 11.34-5.9 19.6-5.58-2-3.51-3-7.47-5-11C46-1.38 35.31 11.81 30.69 16.44l1.78.3z" fill="#ed1c24"/><path d="M34 17.79l-3.06-1.27C37.5 12.91 47.46 3.33 47.1.26c1.7 3.68 3.49 6.9 5 10.89A50.58 50.58 0 0 1 34 17.79z" fill="#f1a18b"/><path d="M35.76 16l2.08.82c4.88-.61 10.85-3.38 12.59-5.1-2.8 1.87-4.16 2-7.73 2.06-1 .83-5.77 2-6.94 2.22z" fill="#ed1c24"/><path d="M34 15.88c5.48 2.08 11.2 4.38 14.94 7.91l-6.62 8.71A70.92 70.92 0 0 0 32.2 17.93l1.8-2z" fill="#f1a18b"/><path d="M33.14 17.49c2 .86 5.42 4.62 7.5 11.54-3.32-5.27-4.28-7.76-7.76-11.3.12-.09.15-.15.27-.24z" fill="#ed1c24"/><path d="M34.06 16.11c2.12.51 7.58 3.21 8.35 5.15-4.31-3.15-4.45-2.85-8.49-4.83.06-.13.07-.19.14-.32z" fill="#e04060"/><path d="M27.62 13.95C27.39 2.69 17.17-2.8 18 7c.76 2.19 3.75 5.31 9.6 7zm.22.05c-.18-1-.25.06-.38.52-6.33-1.8-9.27-4.65-10.14-7.16a4.27 4.27 0 0 1 .93-4.63 3.94 3.94 0 0 1 4.62-.45c2.35 1.2 4.85 4.6 6.12 11.51l-1.16.21z" fill="#ed1c24"/><path d="M28.34 15.53c-2.14.49-6.87-1.72-8.78.41-1.38 1.54 1.18 6.53 2.09 7.71.54.7 1.3 1.73.72 2.64-1 1.51-3.06 1-4.53 1.36l-.37.14-.41.17-.13.05c-2.15 1-1.4 4-.81 5.46.48 1.23.85 1.92-.09 3a7.57 7.57 0 0 0-1.51 1.92 5.29 5.29 0 0 0 .16 3.67l1.89 5.86 2-.49-2.57-6.8a2.68 2.68 0 0 1 .72-2.81c.75-.95 1.48-1.94 1.1-3.19-.88-2.91-2.78-3.58-.88-6.62l.06-.13c1.25-1.12 3.87-.68 4.49-2.09.54-1.24-3.93-6.7-3.71-8.82a3.92 3.92 0 0 1 1.65-2.55c2-1.42 6 .7 8.34 0l.59 1.07z" fill="#fff"/><path d="M34.31 15.59a17 17 0 0 0 4.88 1.51c.88.08 2.15.22 2.43 1.26.5 1.86-1.59 3.11-2.22 4.62-1.72 4.64 5 3.8 5.42 7 .31 2.55.69 3.57 3.2 4.78l5.6 2.58 1-1.78-6.75-2.75c-2.37-1.18-.9-4.3-3.19-5.4-3.06-1.48-4-.39-5.53-4 0-1.68 2.12-3.31 1.5-4.72-.41-.93-4.44-1.39-7-2.23a1.58 1.58 0 0 0 .72-.85z" fill="#fff"/><path d="M27.37 14.88C21.61 16 15.58 17.23 11.27 20l5 9.73c3.81-5 8.27-8.6 12.76-12.17l-1.65-2.73z" fill="#f1a18b"/><path d="M27.26 15.73c-2.42.31-9.94 3.14-11 5a53.39 53.39 0 0 1 11.1-4.67c-.06-.14-.07-.2-.13-.34z" fill="#ed1c24"/><path d="M28.06 17.72c-1.45 2-10.22 8.83-11.68 11.6a35.55 35.55 0 0 0-2.26-4.77 9.59 9.59 0 0 0 3.37 1.14c3.26-1.4 8.23-6.34 10.34-8.25.09.12.14.16.23.28z" fill="#ed1c24"/><path d="M28.08 17.19c-1.07 1.32-1.9 2-2 3.85 0 .71 1.32 1.78 1.74 2.06 1.11.74 2.41 1.88 1.87 3.15-.39.92-1.49 1.27-2.31 1.73l-.31.09-.88.42-.77.54a2 2 0 0 0-.1 3.21c1.1.83 3.71.82 4 2.4s-.56 3.41-.74 4.87h2c.15-2.31 1-5.91-1.74-7.12-1.54-.68-2.67-.34-3.2-1.11-1-1.43.64-2.14 1.7-3.29l1.11-1c1.63-2.38-1.73-3.08-2.88-4.69-1.46-2 .6-4.62 1.82-6.36l.66 1.29z" fill="#fff"/><path d="M28 17.56l.28.2a3.5 3.5 0 0 0 4.31.2c1.81-1 3.27-3.31 1.06-5.06-.53-.42-1.33-.1-2.32-.24a7.69 7.69 0 0 0-1.27-.3c-1.45 0-2.94.69-2.92 2.24 0 1.19.82 2.22.85 3z" fill="#f1a18b"/><path d="M28.2 13.73a3.35 3.35 0 0 0 5.9.62c0 2.35-1.85 4-3.83 3.48s-3.1-3.06-2.07-4.1z" fill="#ed1c24"/></g></g></svg>