<svg xmlns="http://www.w3.org/2000/svg" viewBox="0 0 338.3899841308594 335.46002197265625"><title>Depositphotos_107229352_05</title><g data-name="Layer 2"><g data-name="Layer 1"><g data-name="Layer 2"><g data-name="Business Office"><path d="M192 181.13a17.28 17.28 0 0 1 0-26.84c26.36-21.43 41.48-42.56 41.48-58V41.57H104.87v54.77c0 15.39 15.12 36.52 41.48 58a17.28 17.28 0 0 1 0 26.84c-26.36 21.44-41.48 42.57-41.48 58v54.76h128.65v-54.85c0-15.39-15.11-36.51-41.52-57.96zm30.25 65.32v40.1H116.1v-40.1a16.46 16.46 0 0 1 12.9-16.17c19.34-4.31 29.68-8.83 33.1-11.49v-76.2a57.35 57.35 0 0 1-50.23-56.83V73.14h114.61v12.62a57.35 57.35 0 0 1-50.23 56.83v76.2c3.42 2.65 13.76 7.18 33.1 11.49a16.47 16.47 0 0 1 12.94 16.17z" fill="#a3ddf2"/><path d="M200.94 165.23c17.44-14.18 46.68-42 46.68-68.89V41.57H251A20.79 20.79 0 0 0 251 0H87.34a20.79 20.79 0 0 0 0 41.57h3.43v54.77c0 26.92 29.25 54.72 46.68 68.89a3.18 3.18 0 0 1 0 5c-17.43 14.18-46.68 42-46.68 68.9v54.76h-3.43a20.79 20.79 0 0 0 0 41.57h163.71a20.79 20.79 0 0 0 0-41.57h-3.43v-54.8c0-26.91-29.25-54.72-46.68-68.9a3.18 3.18 0 0 1 0-5zm56.67 149.54a6.57 6.57 0 0 1-6.56 6.56H87.34a6.69 6.69 0 0 1 0-13.37h163.71a6.63 6.63 0 0 1 6.56 6.7v.11zm-24.09-20.91H104.87v-54.77c0-15.39 15.12-36.52 41.48-58a17.28 17.28 0 0 0 0-26.84c-26.36-21.43-41.48-42.56-41.48-58V41.57h128.65v54.77c0 15.39-15.12 36.52-41.48 58a17.28 17.28 0 0 0 0 26.84c26.36 21.44 41.48 42.57 41.48 58zM80.78 20.66a6.57 6.57 0 0 1 6.56-6.56h163.71a6.69 6.69 0 0 1 0 13.37H87.34a6.63 6.63 0 0 1-6.56-6.7v-.11z" fill="#fff"/><path d="M247.62 27.47H251a6.69 6.69 0 0 0 0-13.37H87.34a6.69 6.69 0 0 0 0 13.37z" fill="#fcdf18"/><path d="M90.77 308h-3.43a6.69 6.69 0 0 0 0 13.37h163.71a6.69 6.69 0 0 0 0-13.37z" fill="#fcdf18"/><path d="M176.25 142.59a57.35 57.35 0 0 0 50.23-56.83V73.14H111.92v12.62a57.35 57.35 0 0 0 50.23 56.83v76.2c-3.42 2.65-13.76 7.18-33.1 11.49a16.46 16.46 0 0 0-12.95 16.17v40.1h106.19v-40.1a16.47 16.47 0 0 0-12.95-16.17c-19.34-4.31-29.68-8.83-33.1-11.49zm-7 81.78zm0-88.38z" fill="#06b1a2"/><path d="M15.88 191.27L1.94 193.4a169.23 169.23 0 0 0 4.74 21.53L20.22 211a154.9 154.9 0 0 1-4.34-19.73z" fill="#fff"/><path d="M25.78 226.89l-13 5.38a168.93 168.93 0 0 0 9.74 19.79l12.22-7a155.26 155.26 0 0 1-8.96-18.17z" fill="#fff"/><path d="M37 62.16L48 71a156 156 0 0 1 13.59-15L51.8 45.87A171 171 0 0 0 37 62.16z" fill="#fff"/><path d="M14.1 167.72c0-4.47.19-9 .57-13.45l-14-1.2c-.46 4.85-.67 9.77-.67 14.64q0 3.72.16 7.39l14.09-.61q-.15-3.36-.15-6.77z" fill="#fff"/><path d="M32.52 267.47a171.6 171.6 0 0 0 14.13 16.91l10.21-9.72a157.67 157.67 0 0 1-13-15.52z" fill="#fff"/><path d="M38.18 84.69l-11.9-7.57a168.72 168.72 0 0 0-10.59 19.35l12.78 5.94a154.89 154.89 0 0 1 9.71-17.72z" fill="#fff"/><path d="M22.22 118.05l-13.36-4.51a168.42 168.42 0 0 0-5.67 21.32L17 137.59a154.48 154.48 0 0 1 5.22-19.54z" fill="#fff"/><path d="M322 141.11l13.89-2.4a168.24 168.24 0 0 0-5.17-21.44l-13.46 4.2a154.61 154.61 0 0 1 4.74 19.64z" fill="#fff"/><path d="M311.4 105.7l12.92-5.64a169.56 169.56 0 0 0-10.13-19.58l-12.08 7.28a155.6 155.6 0 0 1 9.29 17.94z" fill="#fff"/><path d="M303.86 65.27a170.57 170.57 0 0 0-14.47-16.63l-10 9.92a156.29 156.29 0 0 1 13.27 15.26z" fill="#fff"/><path d="M281.54 274.65l10.21 9.72a170.13 170.13 0 0 0 11.76-13.74L292.32 262a156.2 156.2 0 0 1-10.78 12.65z" fill="#fff"/><path d="M338.06 157l-14.07.88c.2 3.26.31 6.59.31 9.87 0 3.45-.12 6.94-.34 10.37l14 .88c.25-3.74.37-7.55.37-11.3.06-3.56-.05-7.18-.27-10.7z" fill="#fff"/><path d="M317.13 214.46l13.45 4.24a169 169 0 0 0 5.25-21.43l-13.89-2.45a154.64 154.64 0 0 1-4.81 19.64z" fill="#fff"/><path d="M301.84 248.13l12 7.33A169.28 169.28 0 0 0 324 235.9l-12.9-5.69a155.05 155.05 0 0 1-9.26 17.92z" fill="#fff"/></g></g></g></g></svg>