<svg xmlns="http://www.w3.org/2000/svg" viewBox="-0.6399998664855957 -0.000003814697265625 486.4700012207031 616.4299926757812"><title>Depositphotos_85783506_10</title><g data-name="Layer 2"><g data-name="Layer 1"><g data-name="Layer 2"><g data-name="Layer 1-2"><path d="M139.21 1.76s32.19 61.73 103.32 57.42c0 0 49.23 1.5 102.9-59.18 0 0-92.78 25.53-105.22 25.86s-89.61-24.29-101-24.1z" fill="#03776d"/><path d="M111.83 440.87c1.27-12.52 2.74-28.9 4.16-45.56h-9.7l-15.52 109h19.12c-.17-34.37 1.94-63.44 1.94-63.44z" fill="none"/><path d="M119.15 305l-12.86 90.3H116c3.18-37.3 6.13-76 6.13-76-1.02-4.12-2.01-8.93-2.98-14.3z" fill="none"/><path d="M372.58 395.3c1.42 16.66 2.89 33 4.16 45.56 0 0 2.11 29.07 1.93 63.4h15.72l-15.52-109z" fill="none"/><path d="M372.58 395.3h6.3L367.44 315c-.33 1.5-.66 2.94-1 4.29.01 0 2.96 38.71 6.14 76.01z" fill="none"/><path d="M376.74 440.87c-1.27-12.52-2.74-28.9-4.16-45.56H116c-1.42 16.66-2.89 33-4.16 45.56 0 0-2.11 29.07-1.94 63.4h268.77c.18-34.33-1.93-63.4-1.93-63.4z" fill="#fdf7c6"/><path d="M128.3 609.72c2.66 2.68 4.8 4.89 6.52 6.71l109.46-1 109.46 1c1.72-1.82 3.86-4 6.52-6.71 14.65-14.79 18.2-64 18.41-105.45H109.89c.21 41.49 3.76 90.66 18.41 105.45z" fill="#03776d"/><path d="M8.34 547.2l-2.06 36L59.81 599 68 563s10.29 0 18.53-29.27l4.19-29.43H.15c-.79 24.22 1.44 40.3 8.19 42.9z" fill="#03776d"/><path d="M106.19 177.37h-50.8c-5 22.77-13.8 63.08-22.87 109h83.71c-4.23-30.3-7.78-70.62-10.04-109z" fill="#03776d"/><path d="M119.15 305c-1-5.62-2-11.88-2.93-18.63h-83.7c-6.89 34.86-14 72.93-19.76 109h93.53z" fill="#06b1a2"/><path d="M12.76 395.3C6 437.12 1.07 476.18.15 504.27h90.62l15.52-109z" fill="#fdf7c6"/><path d="M105.33 62.67l-2.28-22S66 54.16 59.81 157.72c0 0-1.66 7.21-4.42 19.65h50.8c-3.04-51.32-3.79-99.13-.86-114.7z" fill="#03776d"/><path d="M398.58 533.7c8.24 29.3 18.54 29.3 18.54 29.3l8.24 36 53.53-15.76-2.06-36c6.75-2.6 9-18.69 8.18-42.94h-90.62z" fill="#03776d"/><path d="M394.39 504.27H485c-.92-28.09-5.89-67.15-12.6-109h-93.53z" fill="#fdf7c6"/><path d="M372.22 286.34c-1.49 11.11-3.09 20.86-4.78 28.66l11.44 80.3h93.53c-5.79-36-12.87-74.1-19.76-109z" fill="#06b1a2"/><path d="M381.4 177.37h48.37c-2.76-12.44-4.42-19.65-4.42-19.65-6.18-103.56-43.24-117.07-43.24-117.07l-1.81 17.5c4.01 10.59 3.93 62.85 1.1 119.22z" fill="#03776d"/><path d="M372.22 286.34h80.42c-9.08-45.89-17.82-86.2-22.87-109H381.4c-1.93 38.46-5.13 78.77-9.18 109z" fill="#03776d"/><path d="M367.93 177.37H106.19c2.27 38.37 5.81 78.69 10 109h256c4-30.23 7.25-70.54 9.18-109z" fill="#03776d"/><path d="M380.3 58.15c-.44-1.15-.92-1.82-1.46-1.93-30.94 16-85.94 27.69-131.12 25.46v-.38l-3.43.2-3.43-.2v.37c-45.18 2.23-102.27-8.26-133.22-24.29-.93.21-1.7 2-2.31 5.28-2.93 15.57-2.18 63.38.86 114.71H381.4c2.83-56.37 2.91-108.63-1.1-119.22z" fill="#fdf7c6"/><path d="M372.58 395.3c-3.18-37.3-6.13-76-6.13-76 .33-1.35.66-2.79 1-4.29 1.69-7.8 3.29-17.55 4.78-28.66h-256c.94 6.75 1.92 13 2.93 18.63 1 5.4 2 10.21 3 14.32 0 0-3 38.72-6.13 76z" fill="#06b1a2"/><path d="M79.28 4.83l-4.12 51.78s111.18 36 172.95 36c0 0 84.42-15.76 154.42-36l4.12-54L344.88.32S279 49.85 235.76 47.6c0 0-72.06-6.76-96.77-47.28z" fill="#06b1a2"/><path fill="#06b1a2" d="M128.82 168.82l6.48-15.14 7.05 14.83 6.3.86 8.88-9.86-15.18-2.07-7.05-14.83-6.48 15.14-15.09 2.75 9.19 9.4 5.9-1.08z"/><path fill="#06b1a2" d="M171.84 168.82l6.48-15.14 7.05 14.83 6.3.86 8.87-9.86-15.17-2.07-7.05-14.83-6.48 15.14-15.09 2.75 9.19 9.4 5.9-1.08z"/><path fill="#06b1a2" d="M214.86 168.82l6.48-15.14 7.05 14.83 6.3.86 8.87-9.86-15.17-2.07-7.05-14.83-6.48 15.14-15.09 2.75 9.19 9.4 5.9-1.08z"/><path fill="#06b1a2" d="M257.88 168.82l6.48-15.14 7.05 14.83 6.3.86 8.87-9.86-15.17-2.07-7.05-14.83-6.48 15.14-15.09 2.75 9.19 9.4 5.9-1.08z"/><path fill="#06b1a2" d="M300.9 168.82l6.48-15.14 7.05 14.83 6.3.86 8.87-9.86-15.17-2.07-7.05-14.83-6.48 15.14-15.09 2.75 9.19 9.4 5.9-1.08z"/><path fill="#06b1a2" d="M343.92 168.82l6.48-15.14 7.05 14.83 6.3.86 8.87-9.86-15.17-2.07-7.05-14.83-6.48 15.14-15.09 2.75 9.19 9.4 5.9-1.08z"/><path fill="#06b1a2" d="M128.82 141.84l6.48-15.14 7.05 14.83 6.3.86 8.88-9.86-15.18-2.06-7.05-14.84-6.48 15.14-15.09 2.75 9.19 9.39 5.9-1.07z"/><path fill="#06b1a2" d="M171.84 141.84l6.48-15.14 7.05 14.83 6.3.86 8.87-9.86-15.17-2.06-7.05-14.84-6.48 15.14-15.09 2.75 9.19 9.39 5.9-1.07z"/><path fill="#06b1a2" d="M214.86 141.84l6.48-15.14 7.05 14.83 6.3.86 8.87-9.86-15.17-2.06-7.05-14.84-6.48 15.14-15.09 2.75 9.19 9.39 5.9-1.07z"/><path fill="#06b1a2" d="M257.88 141.84l6.48-15.14 7.05 14.83 6.3.86 8.87-9.86-15.17-2.06-7.05-14.84-6.48 15.14-15.09 2.75 9.19 9.39 5.9-1.07z"/><path fill="#06b1a2" d="M300.9 141.84l6.48-15.14 7.05 14.83 6.3.86 8.87-9.86-15.17-2.06-7.05-14.84-6.48 15.14-15.09 2.75 9.19 9.39 5.9-1.07z"/><path fill="#06b1a2" d="M343.92 141.84l6.48-15.14 7.05 14.83 6.3.86 8.87-9.86-15.17-2.06-7.05-14.84-6.48 15.14-15.09 2.75 9.19 9.39 5.9-1.07z"/><path fill="#06b1a2" d="M128.82 114.86l6.48-15.14 7.05 14.84 6.3.85 8.88-9.86-15.18-2.06-7.05-14.84-6.48 15.15-15.09 2.74 9.19 9.4 5.9-1.08z"/><path fill="#06b1a2" d="M171.84 114.86l6.48-15.14 7.05 14.84 6.3.85 8.87-9.86-15.17-2.06-7.05-14.84-6.48 15.15-15.09 2.74 9.19 9.4 5.9-1.08z"/><path fill="#06b1a2" d="M214.86 114.86l6.48-15.14 7.05 14.84 6.3.85 8.87-9.86-15.17-2.06-7.05-14.84-6.48 15.15-15.09 2.74 9.19 9.4 5.9-1.08z"/><path fill="#06b1a2" d="M257.88 114.86l6.48-15.14 7.05 14.84 6.3.85 8.87-9.86-15.17-2.06-7.05-14.84-6.48 15.15-15.09 2.74 9.19 9.4 5.9-1.08z"/><path fill="#06b1a2" d="M300.9 114.86l6.48-15.14 7.05 14.84 6.3.85 8.87-9.86-15.17-2.06-7.05-14.84-6.48 15.15-15.09 2.74 9.19 9.4 5.9-1.08z"/><path fill="#06b1a2" d="M343.92 114.86l6.48-15.14 7.05 14.84 6.3.85 8.87-9.86-15.17-2.06-7.05-14.84-6.48 15.15-15.09 2.74 9.19 9.4 5.9-1.08z"/><path fill="#fdf7c6" d="M130.47 270.47l6.48-15.14 7.05 14.83 6.3.86 8.88-9.86L144 259.1l-7.05-14.84-6.48 15.14-15.09 2.75 9.19 9.39 5.9-1.07z"/><path fill="#fdf7c6" d="M173.49 270.47l6.48-15.14 7.05 14.83 6.3.86 8.87-9.86-15.17-2.06-7.05-14.84-6.48 15.14-15.09 2.75 9.19 9.39 5.9-1.07z"/><path fill="#fdf7c6" d="M216.51 270.47l6.48-15.14 7.05 14.83 6.3.86 8.88-9.86-15.18-2.06-7.05-14.84-6.48 15.14-15.09 2.75 9.19 9.39 5.9-1.07z"/><path fill="#fdf7c6" d="M259.53 270.47l6.48-15.14 7.05 14.83 6.3.86 8.88-9.86-15.18-2.06-7.05-14.84-6.48 15.14-15.09 2.75 9.19 9.39 5.9-1.07z"/><path fill="#fdf7c6" d="M302.55 270.47l6.48-15.14 7.05 14.83 6.3.86 8.87-9.86-15.17-2.06-7.05-14.84-6.48 15.14-15.09 2.75 9.19 9.39 5.9-1.07z"/><path fill="#fdf7c6" d="M345.56 270.47l6.49-15.14 7.05 14.83 6.3.86 8.87-9.86-15.17-2.06-7.05-14.84-6.49 15.14-15.08 2.75 9.19 9.39 5.89-1.07z"/><path fill="#fdf7c6" d="M130.47 243.49l6.48-15.14 7.05 14.84 6.3.85 8.88-9.86-15.18-2.06-7.05-14.84-6.48 15.14-15.09 2.75 9.19 9.39 5.9-1.07z"/><path fill="#fdf7c6" d="M173.49 243.49l6.48-15.14 7.05 14.84 6.3.85 8.87-9.86-15.17-2.06-7.05-14.84-6.48 15.14-15.09 2.75 9.19 9.39 5.9-1.07z"/><path fill="#fdf7c6" d="M216.51 243.49l6.48-15.14 7.05 14.84 6.3.85 8.88-9.86-15.18-2.06-7.05-14.84-6.48 15.14-15.09 2.75 9.19 9.39 5.9-1.07z"/><path fill="#fdf7c6" d="M259.53 243.49l6.48-15.14 7.05 14.84 6.3.85 8.88-9.86-15.18-2.06-7.05-14.84-6.48 15.14-15.09 2.75 9.19 9.39 5.9-1.07z"/><path fill="#fdf7c6" d="M302.55 243.49l6.48-15.14 7.05 14.84 6.3.85 8.87-9.86-15.17-2.06-7.05-14.84-6.48 15.14-15.09 2.75 9.19 9.39 5.9-1.07z"/><path fill="#fdf7c6" d="M345.56 243.49l6.49-15.14 7.05 14.84 6.3.85 8.87-9.86-15.17-2.06-7.05-14.84-6.49 15.14-15.08 2.75 9.19 9.39 5.89-1.07z"/><path fill="#fdf7c6" d="M130.47 216.51l6.48-15.14 7.05 14.84 6.3.85 8.88-9.86-15.18-2.06-7.05-14.84-6.48 15.14-15.09 2.75 9.19 9.4 5.9-1.08z"/><path fill="#fdf7c6" d="M173.49 216.51l6.48-15.14 7.05 14.84 6.3.85 8.87-9.86-15.17-2.06-7.05-14.84-6.48 15.14-15.09 2.75 9.19 9.4 5.9-1.08z"/><path fill="#fdf7c6" d="M216.51 216.51l6.48-15.14 7.05 14.84 6.3.85 8.88-9.86-15.18-2.06-7.05-14.84-6.48 15.14-15.09 2.75 9.19 9.4 5.9-1.08z"/><path fill="#fdf7c6" d="M259.53 216.51l6.48-15.14 7.05 14.84 6.3.85 8.88-9.86-15.18-2.06-7.05-14.84-6.48 15.14-15.09 2.75 9.19 9.4 5.9-1.08z"/><path fill="#fdf7c6" d="M302.55 216.51l6.48-15.14 7.05 14.84 6.3.85 8.87-9.86-15.17-2.06-7.05-14.84-6.48 15.14-15.09 2.75 9.19 9.4 5.9-1.08z"/><path fill="#fdf7c6" d="M345.56 216.51l6.49-15.14 7.05 14.84 6.3.85 8.87-9.86-15.17-2.06-7.05-14.84-6.49 15.14-15.08 2.75 9.19 9.4 5.89-1.08z"/><path fill="#03776d" d="M130.47 381.15l6.48-15.14 7.05 14.83 6.3.86 8.88-9.86-15.18-2.06-7.05-14.84-6.48 15.14-15.09 2.75 9.19 9.4 5.9-1.08z"/><path fill="#03776d" d="M173.49 381.15l6.48-15.14 7.05 14.83 6.3.86 8.87-9.86-15.17-2.06-7.05-14.84-6.48 15.14-15.09 2.75 9.19 9.4 5.9-1.08z"/><path fill="#03776d" d="M216.51 381.15l6.48-15.14 7.05 14.83 6.3.86 8.88-9.86-15.18-2.06-7.05-14.84-6.48 15.14-15.09 2.75 9.19 9.4 5.9-1.08z"/><path fill="#03776d" d="M259.53 381.15l6.48-15.14 7.05 14.83 6.3.86 8.88-9.86-15.18-2.06-7.05-14.84-6.48 15.14-15.09 2.75 9.19 9.4 5.9-1.08z"/><path fill="#03776d" d="M302.55 381.15l6.48-15.14 7.05 14.83 6.3.86 8.87-9.86-15.17-2.06-7.05-14.84-6.48 15.14-15.09 2.75 9.19 9.4 5.9-1.08z"/><path fill="#03776d" d="M345.56 381.15l6.49-15.14 7.05 14.83 6.3.86 8.87-9.86-15.17-2.06-7.05-14.84-6.49 15.14-15.08 2.75 9.19 9.4 5.89-1.08z"/><path fill="#03776d" d="M130.47 354.17l6.48-15.14 7.05 14.84 6.3.85 8.88-9.86L144 342.8l-7.05-14.84-6.48 15.15-15.09 2.74 9.19 9.4 5.9-1.08z"/><path fill="#03776d" d="M173.49 354.17l6.48-15.14 7.05 14.84 6.3.85 8.87-9.86-15.17-2.06-7.05-14.84-6.48 15.15-15.09 2.74 9.19 9.4 5.9-1.08z"/><path fill="#03776d" d="M216.51 354.17l6.48-15.14 7.05 14.84 6.3.85 8.88-9.86-15.18-2.06-7.05-14.84-6.48 15.15-15.09 2.74 9.19 9.4 5.9-1.08z"/><path fill="#03776d" d="M259.53 354.17l6.48-15.14 7.05 14.84 6.3.85 8.88-9.86-15.18-2.06-7.05-14.84-6.48 15.15-15.09 2.74 9.19 9.4 5.9-1.08z"/><path fill="#03776d" d="M302.55 354.17l6.48-15.14 7.05 14.84 6.3.85 8.87-9.86-15.17-2.06-7.05-14.84-6.48 15.15-15.09 2.74 9.19 9.4 5.9-1.08z"/><path fill="#03776d" d="M345.56 354.17l6.49-15.14 7.05 14.84 6.3.85 8.87-9.86-15.17-2.06-7.05-14.84-6.49 15.15-15.08 2.74 9.19 9.4 5.89-1.08z"/><path fill="#03776d" d="M130.47 327.19l6.48-15.14 7.05 14.84 6.3.85 8.88-9.86-15.18-2.06-7.05-14.84-6.48 15.15-15.09 2.74 9.19 9.4 5.9-1.08z"/><path fill="#03776d" d="M173.49 327.19l6.48-15.14 7.05 14.84 6.3.85 8.87-9.86-15.17-2.06-7.05-14.84-6.48 15.15-15.09 2.74 9.19 9.4 5.9-1.08z"/><path fill="#03776d" d="M216.51 327.19l6.48-15.14 7.05 14.84 6.3.85 8.88-9.86-15.18-2.06-7.05-14.84-6.48 15.15-15.09 2.74 9.19 9.4 5.9-1.08z"/><path fill="#03776d" d="M259.53 327.19l6.48-15.14 7.05 14.84 6.3.85 8.88-9.86-15.18-2.06-7.05-14.84-6.48 15.15-15.09 2.74 9.19 9.4 5.9-1.08z"/><path fill="#03776d" d="M302.55 327.19l6.48-15.14 7.05 14.84 6.3.85 8.87-9.86-15.17-2.06-7.05-14.84-6.48 15.15-15.09 2.74 9.19 9.4 5.9-1.08z"/><path fill="#03776d" d="M345.56 327.19l6.49-15.14 7.05 14.84 6.3.85 8.87-9.86-15.17-2.06-7.05-14.84-6.49 15.15-15.08 2.74 9.19 9.4 5.89-1.08z"/><path fill="#06b1a2" d="M130.47 488.38l6.48-15.15 7.05 14.84 6.3.86 8.88-9.87L144 477l-7.05-14.84-6.48 15.15-15.09 2.74 9.19 9.4 5.9-1.07z"/><path fill="#06b1a2" d="M173.49 488.38l6.48-15.15 7.05 14.84 6.3.86 8.87-9.87-15.17-2.06-7.05-14.84-6.48 15.15-15.09 2.74 9.19 9.4 5.9-1.07z"/><path fill="#06b1a2" d="M216.51 488.38l6.48-15.15 7.05 14.84 6.3.86 8.88-9.87-15.18-2.06-7.05-14.84-6.48 15.15-15.09 2.74 9.19 9.4 5.9-1.07z"/><path fill="#06b1a2" d="M259.53 488.38l6.48-15.15 7.05 14.84 6.3.86 8.88-9.87-15.18-2.06-7.05-14.84-6.48 15.15-15.09 2.74 9.19 9.4 5.9-1.07z"/><path fill="#06b1a2" d="M302.55 488.38l6.48-15.15 7.05 14.84 6.3.86 8.87-9.87-15.17-2.06-7.05-14.84-6.48 15.15-15.09 2.74 9.19 9.4 5.9-1.07z"/><path fill="#06b1a2" d="M345.56 488.38l6.49-15.15 7.05 14.84 6.3.86 8.87-9.87L359.1 477l-7.05-14.84-6.49 15.15-15.08 2.74 9.19 9.4 5.89-1.07z"/><path fill="#06b1a2" d="M130.47 461.39l6.48-15.14 7.05 14.84 6.3.85 8.88-9.86-15.18-2.06-7.05-14.83-6.48 15.14-15.09 2.74 9.19 9.4 5.9-1.08z"/><path fill="#06b1a2" d="M173.49 461.39l6.48-15.14 7.05 14.84 6.3.85 8.87-9.86-15.17-2.06-7.05-14.83-6.48 15.14-15.09 2.74 9.19 9.4 5.9-1.08z"/><path fill="#06b1a2" d="M216.51 461.39l6.48-15.14 7.05 14.84 6.3.85 8.88-9.86-15.18-2.06-7.05-14.83-6.48 15.14-15.09 2.74 9.19 9.4 5.9-1.08z"/><path fill="#06b1a2" d="M259.53 461.39l6.48-15.14 7.05 14.84 6.3.85 8.88-9.86-15.18-2.06-7.05-14.83-6.48 15.14-15.09 2.74 9.19 9.4 5.9-1.08z"/><path fill="#06b1a2" d="M302.55 461.39l6.48-15.14 7.05 14.84 6.3.85 8.87-9.86-15.17-2.06-7.05-14.83-6.48 15.14-15.09 2.74 9.19 9.4 5.9-1.08z"/><path fill="#06b1a2" d="M345.56 461.39l6.49-15.14 7.05 14.84 6.3.85 8.87-9.86-15.17-2.06-7.05-14.83-6.49 15.14-15.08 2.74 9.19 9.4 5.89-1.08z"/><path fill="#06b1a2" d="M130.47 434.42l6.48-15.15 7.05 14.84 6.3.86 8.88-9.87-15.18-2.06-7.05-14.83-6.48 15.14-15.09 2.75 9.19 9.39 5.9-1.07z"/><path fill="#06b1a2" d="M173.49 434.42l6.48-15.15 7.05 14.84 6.3.86 8.87-9.87-15.17-2.06-7.05-14.83-6.48 15.14-15.09 2.75 9.19 9.39 5.9-1.07z"/><path fill="#06b1a2" d="M216.51 434.42l6.48-15.15 7.05 14.84 6.3.86 8.88-9.87-15.18-2.06-7.05-14.83-6.48 15.14-15.09 2.75 9.19 9.39 5.9-1.07z"/><path fill="#06b1a2" d="M259.53 434.42l6.48-15.15 7.05 14.84 6.3.86 8.88-9.87-15.18-2.06-7.05-14.83-6.48 15.14-15.09 2.75 9.19 9.39 5.9-1.07z"/><path fill="#06b1a2" d="M302.55 434.42l6.48-15.15 7.05 14.84 6.3.86 8.87-9.87-15.17-2.06-7.05-14.83-6.48 15.14-15.09 2.75 9.19 9.39 5.9-1.07z"/><path fill="#06b1a2" d="M345.56 434.42l6.49-15.15 7.05 14.84 6.3.86 8.87-9.87-15.17-2.06-7.05-14.83-6.49 15.14-15.08 2.75 9.19 9.39 5.89-1.07z"/><path fill="#fdf7c6" d="M130.47 590.76l6.48-15.15 7.05 14.84 6.3.86 8.88-9.87-15.18-2.06-7.05-14.84-6.48 15.15-15.09 2.74 9.19 9.4 5.9-1.07z"/><path fill="#fdf7c6" d="M173.49 590.76l6.48-15.15 7.05 14.84 6.3.86 8.87-9.87-15.17-2.06-7.05-14.84-6.48 15.15-15.09 2.74 9.19 9.4 5.9-1.07z"/><path fill="#fdf7c6" d="M216.51 590.76l6.48-15.15 7.05 14.84 6.3.86 8.88-9.87-15.18-2.06-7.05-14.84-6.48 15.15-15.09 2.74 9.19 9.4 5.9-1.07z"/><path fill="#fdf7c6" d="M259.53 590.76l6.48-15.15 7.05 14.84 6.3.86 8.88-9.87-15.18-2.06-7.05-14.84-6.48 15.15-15.09 2.74 9.19 9.4 5.9-1.07z"/><path fill="#fdf7c6" d="M302.55 590.76l6.48-15.15 7.05 14.84 6.3.86 8.87-9.87-15.17-2.06-7.05-14.84-6.48 15.15-15.09 2.74 9.19 9.4 5.9-1.07z"/><path fill="#fdf7c6" d="M345.56 590.76l6.49-15.15 7.05 14.84 6.3.86 8.87-9.87-15.17-2.06-7.05-14.84-6.49 15.15-15.08 2.74 9.19 9.4 5.89-1.07z"/><path fill="#fdf7c6" d="M130.47 563.78l6.48-15.15 7.05 14.84 6.3.86 8.88-9.86L144 552.4l-7.05-14.84-6.48 15.15-15.09 2.75 9.19 9.39 5.9-1.07z"/><path fill="#fdf7c6" d="M173.49 563.78l6.48-15.15 7.05 14.84 6.3.86 8.87-9.86-15.17-2.07-7.05-14.84-6.48 15.15-15.09 2.75 9.19 9.39 5.9-1.07z"/><path fill="#fdf7c6" d="M216.51 563.78l6.48-15.15 7.05 14.84 6.3.86 8.88-9.86-15.18-2.07-7.05-14.84-6.48 15.15-15.09 2.75 9.19 9.39 5.9-1.07z"/><path fill="#fdf7c6" d="M259.53 563.78l6.48-15.15 7.05 14.84 6.3.86 8.88-9.86-15.18-2.07-7.05-14.84-6.48 15.15-15.09 2.75 9.19 9.39 5.9-1.07z"/><path fill="#fdf7c6" d="M302.55 563.78l6.48-15.15 7.05 14.84 6.3.86 8.87-9.86-15.17-2.07-7.05-14.84-6.48 15.15-15.09 2.75 9.19 9.39 5.9-1.07z"/><path fill="#fdf7c6" d="M345.56 563.78l6.49-15.15 7.05 14.84 6.3.86 8.87-9.86-15.17-2.07-7.05-14.84-6.49 15.15-15.08 2.75 9.19 9.39 5.89-1.07z"/><path fill="#fdf7c6" d="M130.47 536.8l6.48-15.15 7.05 14.84 6.3.86 8.88-9.86-15.18-2.07-7.05-14.84-6.48 15.15-15.09 2.75 9.19 9.39 5.9-1.07z"/><path fill="#fdf7c6" d="M173.49 536.8l6.48-15.15 7.05 14.84 6.3.86 8.87-9.86-15.17-2.07-7.05-14.84-6.48 15.15-15.09 2.75 9.19 9.39 5.9-1.07z"/><path fill="#fdf7c6" d="M216.51 536.8l6.48-15.15 7.05 14.84 6.3.86 8.88-9.86-15.18-2.07-7.05-14.84-6.48 15.15-15.09 2.75 9.19 9.39 5.9-1.07z"/><path fill="#fdf7c6" d="M259.53 536.8l6.48-15.15 7.05 14.84 6.3.86 8.88-9.86-15.18-2.07-7.05-14.84-6.48 15.15-15.09 2.75 9.19 9.39 5.9-1.07z"/><path fill="#fdf7c6" d="M302.55 536.8l6.48-15.15 7.05 14.84 6.3.86 8.87-9.86-15.17-2.07-7.05-14.84-6.48 15.15-15.09 2.75 9.19 9.39 5.9-1.07z"/><path fill="#fdf7c6" d="M345.56 536.8l6.49-15.15 7.05 14.84 6.3.86 8.87-9.86-15.17-2.07-7.05-14.84-6.49 15.15-15.08 2.75 9.19 9.39 5.89-1.07z"/></g></g></g></g></svg>