<svg xmlns="http://www.w3.org/2000/svg" viewBox="-5.849998474121094 0 590.449951171875 494.6099853515625"><title>Depositphotos_85783506_09</title><g data-name="Layer 2"><g data-name="Layer 1"><g data-name="Layer 2"><g data-name="Layer 1-2"><path d="M426.22 308.85a485.73 485.73 0 0 0-10.12-49.12c3.29 17.77 6.68 34.1 10.12 49.12z" fill="#f8b0b5"/><path d="M152.88 308.85q5.12-22.5 10.12-49.12a485.63 485.63 0 0 0-10.12 49.12z" fill="#f8b0b5"/><path d="M298.85 52.92s58-2.27 76.79-49.7L365.11 0C342.56 36.82 295 37.8 291.35 38.19 287.7 37.8 239.63 32.12 214 0l-11.48 3.51c10.75 13.15 46.57 51.57 96.33 49.41z" fill="#f8b0b5"/><path d="M144.85 152.18s17.8-42.51-5.41-90.7C133 72.9 125.59 86 117.76 100.39c1.46 15.67 8.62 33.61 27.09 51.79z" fill="#f8b0b5"/><path d="M119.34 202.06s18.3-43.71-6.41-92.74c-6.71 12.46-13.7 25.73-20.78 39.57 1.15 16 8.17 34.45 27.19 53.17z" fill="#f8b0b5"/><path d="M91.1 257.3s18.41-44-6.64-93.2c-6.84 13.68-13.69 27.79-20.37 42.12 1.6 15.5 8.81 33.16 27.01 51.08z" fill="#f8b0b5"/><path d="M62 314.31s17.9-42.77-5.62-91.14c-7.11 15.79-13.92 31.72-20.2 47.5 2.88 13.6 10.42 28.53 25.82 43.64z" fill="#f8b0b5"/><path d="M437.11 152.18c16.81-16.56 24.25-32.89 26.55-47.51-8.07-14.9-15.69-28.52-22.43-40.43-21.23 47.04-4.12 87.94-4.12 87.94z" fill="#f8b0b5"/><path d="M462.62 202.06c17.2-16.94 24.59-33.66 26.7-48.53-7.36-14.48-14.65-28.38-21.65-41.42-22.67 47.89-5.05 89.95-5.05 89.95z" fill="#f8b0b5"/><path d="M490.87 257.3c16.36-16.11 23.84-32 26.35-46.34-6.9-14.94-14-29.69-21.13-44-22.92 48.04-5.22 90.34-5.22 90.34z" fill="#f8b0b5"/><path d="M520 314.31c13.7-13.49 21.17-26.83 24.71-39.22-6.35-16.19-13.29-32.57-20.55-48.82-21.28 47.09-4.16 88.04-4.16 88.04z" fill="#f8b0b5"/><path d="M544.62 362.42c9.75-9.6 16.34-19.13 20.61-28.29-5.16-17.52-11.53-35.83-18.71-54.42-17.76 44.8-1.9 82.71-1.9 82.71z" fill="#f8b0b5"/><path d="M266.56 53s-13.3 67.65 55.84 81.49c.01-.03-3.98-55.38-55.84-81.49z" fill="#f8b0b5"/><path d="M266.56 110.93s-13.3 67.65 55.84 81.49c.01 0-3.98-55.36-55.84-81.49z" fill="#f8b0b5"/><path d="M266.56 175.09s-13.3 67.65 55.84 81.49c.01 0-3.98-55.35-55.84-81.49z" fill="#f8b0b5"/><path d="M266.56 241.33s-13.29 67.67 55.85 81.49c0 0-3.99-55.35-55.85-81.49z" fill="#f8b0b5"/><path d="M266.56 297.21s-13.3 67.65 55.84 81.49c.01.01-3.98-55.35-55.84-81.49z" fill="#f8b0b5"/><path d="M266.56 297.21s-13.3 67.65 55.84 81.49c.01.01-3.98-55.35-55.84-81.49z" fill="#f8b0b5"/><path d="M266.56 241.33s-13.29 67.67 55.85 81.49c0 0-3.99-55.35-55.85-81.49z" fill="#f8b0b5"/><path d="M152.88 308.85q5.12-22.5 10.12-49.12a485.63 485.63 0 0 0-10.12 49.12z" fill="#f8b0b5"/><path d="M266.56 175.09s-13.3 67.65 55.84 81.49c.01 0-3.98-55.35-55.84-81.49z" fill="#f8b0b5"/><path d="M426.22 308.85a485.73 485.73 0 0 0-10.12-49.12c3.29 17.77 6.68 34.1 10.12 49.12z" fill="#f8b0b5"/><path d="M266.56 110.93s-13.3 67.65 55.84 81.49c.01 0-3.98-55.36-55.84-81.49z" fill="#f8b0b5"/><path d="M266.56 53s-13.3 67.65 55.84 81.49c.01-.03-3.98-55.38-55.84-81.49z" fill="#f8b0b5"/><path d="M8.68 454.13L7.3 470.06 41.75 494l17.91-14.34a11.32 11.32 0 0 0 3.13.29c-17.5-13.29-41.93-23-55.14-27.73.35.62.67 1.28 1.03 1.91z" fill="#f8b0b5"/><path d="M266.56 297.21s-13.3 67.65 55.84 81.49c.01.01-3.98-55.35-55.84-81.49z" fill="#f8b0b5"/><path d="M266.56 241.33s-13.29 67.67 55.85 81.49c0 0-3.99-55.35-55.85-81.49z" fill="#f8b0b5"/><path d="M266.56 175.09s-13.3 67.65 55.84 81.49c.01 0-3.98-55.35-55.84-81.49z" fill="#f8b0b5"/><path d="M426.22 308.85a485.73 485.73 0 0 0-10.12-49.12c3.29 17.77 6.68 34.1 10.12 49.12z" fill="#f8b0b5"/><path d="M152.88 308.85q5.12-22.5 10.12-49.12a485.63 485.63 0 0 0-10.12 49.12z" fill="#f8b0b5"/><path d="M266.56 110.93s-13.3 67.65 55.84 81.49c.01 0-3.98-55.36-55.84-81.49z" fill="#f8b0b5"/><path d="M266.56 53s-13.3 67.65 55.84 81.49c.01-.03-3.98-55.38-55.84-81.49z" fill="#f8b0b5"/><path d="M571.74 451.63c-21 5.79-39.48 19.62-50.58 29.37l16.2 13 34.45-23.9-1.38-15.93q.68-1.26 1.31-2.54z" fill="#f8b0b5"/><path d="M565.23 334.12c-4.27 9.16-10.86 18.69-20.61 28.29 0 0-15.86-37.91 1.91-82.71l-1.79-4.61c-3.54 12.39-11 25.73-24.71 39.22 0 0-17.14-41 4.16-88q-3.44-7.68-7-15.32c-2.51 14.32-10 30.22-26.35 46.34 0 0-17.7-42.28 5.22-90.32q-3.39-6.8-6.77-13.45c-2.11 14.88-9.5 31.59-26.7 48.53 0 0-17.6-42.07 5-90q-2-3.77-4-7.45c-2.3 14.62-9.73 31-26.55 47.51 0 0-17.12-40.9 4.12-87.94C423.83 33.59 412 14.34 412 14.34L375.63 3.22c-18.76 47.43-76.79 49.7-76.79 49.7-49.76 2.16-85.57-36.26-96.33-49.41l-35.37 10.83s-11.14 18.1-27.7 47.13c23.2 48.19 5.41 90.7 5.41 90.7-18.47-18.19-25.63-36.12-27.08-51.79q-2.39 4.39-4.84 8.94c24.71 49 6.41 92.74 6.41 92.74-19-18.73-26-37.17-27.2-53.17q-3.83 7.49-7.69 15.2c25.06 49.21 6.64 93.2 6.64 93.2-18.19-17.92-25.41-35.58-27-51.08q-3.93 8.43-7.76 16.95C79.84 271.54 62 314.31 62 314.31c-15.34-15.11-22.88-30-25.82-43.64q-1.09 2.74-2.16 5.47c20.1 46.34 3.38 86.27 3.38 86.27-11.14-11-18.17-21.85-22.31-32.2-15.35 50.72-20.94 95.26-7.38 122 13.21 4.69 37.63 14.44 55.14 27.73 11.67-.24 53.86-12.73 90.09-171.06A485.63 485.63 0 0 1 163 259.73c-3.3 17.77-6.68 34.1-10.12 49.12-7.81 50.86-10.2 123 39.06 123 1.38 0 7.56-4.61 7.56-4.61S239 407.6 289.52 403c50.49 4.58 90 24.23 90 24.23s6.18 4.61 7.56 4.61c49.26 0 46.87-72.11 39.06-123q-5.16-22.5-10.12-49.12a485.72 485.72 0 0 1 10.12 49.12c42.51 185.77 93.22 170.77 93.22 170.77l1.72 1.37c11.1-9.74 29.61-23.58 50.58-29.37 12.94-26.05 7.93-68.74-6.43-117.49zm-298.67-36.91c51.85 26.14 55.84 81.49 55.84 81.49-69.13-13.83-55.84-81.49-55.84-81.49zm0-55.89c51.85 26.14 55.84 81.49 55.84 81.49-69.13-13.81-55.84-81.48-55.84-81.48zm0-66.24c51.85 26.14 55.84 81.49 55.84 81.49-69.13-13.83-55.84-81.48-55.84-81.48zm0-64.17C318.41 137 322.4 192.4 322.4 192.4c-69.13-13.82-55.84-81.47-55.84-81.47zm0-58C318.41 79 322.4 134.4 322.4 134.4 253.27 120.62 266.56 53 266.56 53z" fill="#b11f5a"/><path d="M197.38 360.76c-.05 0-1.64 21.55 21.14 25.94-.04 0-3.64-17.6-21.14-25.94z" fill="#f8b0b5"/><path d="M233.59 360.76c-.05 0 6.86 21.55-14.58 25.94-.01 0-1.01-17.6 14.58-25.94z" fill="#f8b0b5"/><path d="M195 338.29c-.05 0-2 21.59 20.67 26-.05-.01-3.34-17.66-20.67-26z" fill="#f8b0b5"/><path d="M231.2 338.29c-.05 0 6.47 21.59-15.05 26-.04-.01-.77-17.66 15.05-26z" fill="#f8b0b5"/><path d="M193 315.77c-.05 0-2.42 21.63 20.2 26-.04.04-3.01-17.64-20.2-26z" fill="#f8b0b5"/><path d="M229.2 315.77c-.05 0 6.08 21.63-15.52 26-.02.04-.44-17.64 15.52-26z" fill="#f8b0b5"/><path d="M191.4 293.21c-.05 0-2.81 21.66 19.73 26.08-.03 0-2.68-17.7-19.73-26.08z" fill="#f8b0b5"/><path d="M227.62 293.21c-.05 0 5.7 21.66-16 26.08-.02 0-.12-17.7 16-26.08z" fill="#f8b0b5"/><path d="M190.22 270.64c-.05 0-3.2 21.68 19.26 26.1-.03.01-2.36-17.74-19.26-26.1z" fill="#f8b0b5"/><path d="M226.43 270.64c-.05 0 5.31 21.68-16.45 26.1.02.01.19-17.74 16.45-26.1z" fill="#f8b0b5"/><path d="M189.44 248c-.05 0-3.59 21.69 18.79 26.13-.02.04-2.04-17.7-18.79-26.13z" fill="#f8b0b5"/><path d="M225.66 248c-.05 0 4.92 21.69-16.92 26.13-.04.04.5-17.7 16.92-26.13z" fill="#f8b0b5"/><path d="M189.07 225.44c-.05 0-4 21.7 18.33 26.14-.03 0-1.73-17.75-18.33-26.14z" fill="#f8b0b5"/><path d="M225.28 225.44c-.05 0 4.53 21.7-17.39 26.14-.03 0 .83-17.75 17.39-26.14z" fill="#f8b0b5"/><path d="M189.1 202.83c-.05 0-4.36 21.7 17.86 26.14.04.03-1.41-17.75-17.86-26.14z" fill="#f8b0b5"/><path d="M225.31 202.83c-.05 0 4.14 21.7-17.86 26.14-.02.03 1.15-17.75 17.86-26.14z" fill="#f8b0b5"/><path d="M189.54 180.23c-.05 0-4.75 21.7 17.39 26.14-.03 0-1.09-17.76-17.39-26.14z" fill="#f8b0b5"/><path d="M225.75 180.23c-.05 0 3.75 21.7-18.33 26.14-.03 0 1.46-17.76 18.33-26.14z" fill="#f8b0b5"/><path d="M190.38 157.64c-.05 0-5.14 21.68 16.92 26.12-.03.01-.77-17.76-16.92-26.12z" fill="#f8b0b5"/><path d="M226.59 157.64c-.05 0 3.36 21.68-18.8 26.12-.02.01 1.78-17.76 18.8-26.12z" fill="#f8b0b5"/><path d="M191.62 135.07c-.05 0-5.53 21.67 16.46 26.11-.03-.01-.46-17.74-16.46-26.11z" fill="#f8b0b5"/><path d="M227.84 135.07c-.05 0 3 21.67-19.26 26.11-.04-.01 2.09-17.74 19.26-26.11z" fill="#f8b0b5"/><path d="M193.27 112.52c-.05 0-5.92 21.64 16 26.07-.04.01-.15-17.71-16-26.07z" fill="#f8b0b5"/><path d="M229.49 112.52c-.05 0 2.59 21.64-19.73 26.07-.03.01 2.41-17.71 19.73-26.07z" fill="#f8b0b5"/><path d="M195.33 90c-.05 0-6.31 21.61 15.52 26-.03 0 .15-17.65-15.52-26z" fill="#f8b0b5"/><path d="M231.54 90c-.05 0 2.2 21.61-20.2 26-.03 0 2.74-17.65 20.2-26z" fill="#f8b0b5"/><path d="M197.79 67.54c-.05 0-6.7 21.57 15.05 26-.03-.01.5-17.68-15.05-26z" fill="#f8b0b5"/><path d="M234 67.54c-.05 0 1.81 21.57-20.67 26a38.12 38.12 0 0 1 20.67-26z" fill="#f8b0b5"/><path d="M200.65 45.12c-.05 0-7.08 21.52 14.58 25.94-.02-.06.83-17.64-14.58-25.94z" fill="#f8b0b5"/><path d="M236.87 45.12c-.05 0 1.42 21.52-21.14 25.94a39 39 0 0 1 21.14-25.94z" fill="#f8b0b5"/><path d="M381.14 360.76s1.64 21.55-21.14 25.94c0 0 3.63-17.6 21.14-25.94z" fill="#f8b0b5"/><path d="M345 360.76s-6.86 21.55 14.58 25.94c-.05 0 1.01-17.6-14.58-25.94z" fill="#f8b0b5"/><path d="M383.53 338.29s2 21.59-20.67 26c.03-.01 3.32-17.66 20.67-26z" fill="#f8b0b5"/><path d="M347.32 338.29s-6.47 21.59 15 26c.08-.01.81-17.66-15-26z" fill="#f8b0b5"/><path d="M385.53 315.77s2.42 21.63-20.2 26c.02.04 2.99-17.64 20.2-26z" fill="#f8b0b5"/><path d="M349.31 315.77s-6.08 21.63 15.52 26c.03.04.45-17.64-15.52-26z" fill="#f8b0b5"/><path d="M387.11 293.21s2.81 21.66-19.73 26.08c.03 0 2.68-17.7 19.73-26.08z" fill="#f8b0b5"/><path d="M350.9 293.21s-5.7 21.66 16 26.08c.02 0 .1-17.7-16-26.08z" fill="#f8b0b5"/><path d="M388.3 270.64s3.2 21.68-19.26 26.1c.02.01 2.35-17.74 19.26-26.1z" fill="#f8b0b5"/><path d="M352.08 270.64s-5.31 21.68 16.46 26.1c.02.01-.19-17.74-16.46-26.1z" fill="#f8b0b5"/><path d="M389.07 248s3.58 21.69-18.8 26.13c.04.04 2.05-17.7 18.8-26.13z" fill="#f8b0b5"/><path d="M352.86 248s-4.92 21.69 16.92 26.13c.03.04-.5-17.7-16.92-26.13z" fill="#f8b0b5"/><path d="M389.45 225.44s4 21.7-18.33 26.14c.03 0 1.73-17.75 18.33-26.14z" fill="#f8b0b5"/><path d="M353.23 225.44s-4.53 21.7 17.39 26.14c.03 0-.82-17.75-17.39-26.14z" fill="#f8b0b5"/><path d="M389.42 202.83s4.36 21.7-17.86 26.14c.02.03 1.44-17.75 17.86-26.14z" fill="#f8b0b5"/><path d="M353.2 202.83s-4.14 21.7 17.86 26.14c.03.03-1.14-17.75-17.86-26.14z" fill="#f8b0b5"/><path d="M389 180.23s4.75 21.7-17.39 26.14c.01 0 1.07-17.76 17.39-26.14z" fill="#f8b0b5"/><path d="M352.76 180.23s-3.75 21.7 18.33 26.14c.03 0-1.46-17.76-18.33-26.14z" fill="#f8b0b5"/><path d="M388.14 157.64s5.14 21.68-16.92 26.12c.02.01.78-17.76 16.92-26.12z" fill="#f8b0b5"/><path d="M352 157.64s-3.36 21.68 18.79 26.12c-.04.01-1.79-17.76-18.79-26.12z" fill="#f8b0b5"/><path d="M386.89 135.07s5.53 21.67-16.46 26.11c.03-.01.46-17.74 16.46-26.11z" fill="#f8b0b5"/><path d="M350.68 135.07s-3 21.67 19.26 26.11c.06-.01-2.1-17.74-19.26-26.11z" fill="#f8b0b5"/><path d="M385.24 112.52s5.92 21.64-16 26.07c.04.01.15-17.71 16-26.07z" fill="#f8b0b5"/><path d="M349 112.52s-2.59 21.64 19.73 26.07c.06.01-2.39-17.71-19.73-26.07z" fill="#f8b0b5"/><path d="M383.19 90s6.31 21.61-15.52 26c.03 0-.19-17.65 15.52-26z" fill="#f8b0b5"/><path d="M347 90s-2.2 21.61 20.2 26c0 0-2.76-17.65-20.2-26z" fill="#f8b0b5"/><path d="M380.72 67.54s6.7 21.57-15 26c-.02-.01-.55-17.68 15-26z" fill="#f8b0b5"/><path d="M344.51 67.54s-1.81 21.57 20.67 26a38.12 38.12 0 0 0-20.67-26z" fill="#f8b0b5"/><path d="M377.86 45.12s7.08 21.52-14.58 25.94c.03-.06-.82-17.64 14.58-25.94z" fill="#f8b0b5"/><path d="M341.64 45.12s-1.42 21.52 21.14 25.94a39 39 0 0 0-21.14-25.94z" fill="#f8b0b5"/></g></g><path d="M33.94 276.2c-7.18 18.59-13.55 36.9-18.71 54.42 4.07 9.73 12.15 22.63 22 31.85.92-.01 16.22-41.47-3.29-86.27z" fill="#f8b0b5"/></g></g></svg>