<svg xmlns="http://www.w3.org/2000/svg" viewBox="-38.18001174926758 -0.6999998092651367 301.3800354003906 432.42999267578125"><title>Depositphotos_94191498_09</title><g data-name="Layer 2"><g data-name="Layer 1" style="isolation:isolate"><path d="M221.09 193.36c-7.38-20.42-23.09-37.65-38.09-53.08-14.17-14.63-32.31-26.54-45.57-49.62-5.84-10.15-7.72-18-12.69-27.69-2 0-22.82 4.47-22.75 3.55-.73 9.73-8.43 14.64-12.44 23.57-15 33.46-59.13 56.27-77.49 94-50.24 103.25 70.67 247.64 103.28 247.64S263.2 309.89 221.09 193.36z" fill="#79972e"/><path d="M97.82 89.74s5.07 23 16 22.62 13.65-22.23 13.65-22.23 8.43 12 18.53 13.23a109.65 109.65 0 0 1-8.54-12.7c-5.84-10.15-7.72-18-12.69-27.69-2 0-22.82 4.47-22.75 3.55-.73 9.73-8.43 14.64-12.44 23.57a77.61 77.61 0 0 1-7.24 12.61c3.15-.14 8.76-2.26 15.48-12.96z" style="mix-blend-mode:multiply" fill="#ad9262" opacity=".5"/><path d="M110.91 134.7C76 134 9.14 161.66 9.14 237.34s65.72 147.75 98.78 147.75 94.47-76.26 95.72-145.73c1.05-59.14-50.1-103.79-92.73-104.66z" fill="#a0d39f" opacity=".43"/><path d="M165.14 166.13c-39.32-2.15-79.71-10.4-114.69-29.08q-3.15 3-6.29 6.11A234.84 234.84 0 0 0 85.1 159.8c39.57 12.11 82 15.74 123.15 12.88l2.06-.16q-2.12-3.18-4.43-6.25a376.65 376.65 0 0 1-40.74-.14z" fill="#d01b2e"/><path d="M195 254.55q17.88-6.48 35.09-14.73-.11-2.72-.31-5.45-10.53 5.1-21.2 9.6c-45.46 19.19-95.76 30.26-145.2 24.93a212 212 0 0 1-37-7.43C17.41 258.81 9 255 .52 251.27q.34 4.14.88 8.29c4.06 1.79 8.15 3.5 12.36 4.91A212.12 212.12 0 0 0 50 273c48.85 7.33 99-1.76 145-18.45z" fill="#d01b2e"/><path d="M44.82 335.05a177.08 177.08 0 0 1-24.21-11.72q2.48 5.4 5.18 10.67c52.92 24.75 116.64 25.37 174.8 14.88q1.31-2.3 2.59-4.65-13.29 2.46-26.71 4.11c-44.04 5.34-90.01 3.08-131.65-13.29z" fill="#d01b2e"/><path d="M228.39 222a152.37 152.37 0 0 0-6.49-26.32c-5 2.23-10 4.39-15 6.37-48.76 19.11-110.31 22.67-161.54 12.05A227.75 227.75 0 0 1 7.62 203c-.82-.33-1.67-.63-2.52-.92a124.3 124.3 0 0 0-4.39 22.5 175.48 175.48 0 0 0 32.89 12.16 268.59 268.59 0 0 0 49 7.36c43.08 2.74 88.86-.85 129.67-15.75q8.12-2.97 16.12-6.35z" fill="#79972e"/><path d="M210 330.71a233.48 233.48 0 0 0 10-24.9c-16.4 2.51-32.55 4.26-49.76 5.34a443.55 443.55 0 0 1-71.21-1c-22.19-2.19-43.66-7.45-64.81-14.68A172.8 172.8 0 0 1 9 284.44q-1.55-.82-3.07-1.68a231 231 0 0 0 7.66 23.91 174.3 174.3 0 0 0 19.16 8.9c21.7 8.5 44.61 13.14 67.67 16.05 36.32 4.58 73.22 3.38 109.58-.91z" fill="#79972e"/><path d="M82.41 211.63a234.12 234.12 0 0 1-34.25-4.73c-13.77-3-27.41-7.65-39.72-14.54q-1.69 4.29-3 8.66c52.3 30.3 127.55 23.86 182.28 11.49 12.17-2.75 24.39-6 36.38-10q-1.34-4.6-3-9.19c-.14-.4-.31-.79-.46-1.18-10.56 3.63-21.25 6.92-32.17 9.65-34.47 8.64-70.68 12.31-106.06 9.84z" fill="#f0f0e1"/><path d="M212.29 297.72a438.38 438.38 0 0 1-57.89 4.12c-39.49.5-80.1-2.57-118.16-13.64a142.72 142.72 0 0 1-24.53-9.4c-2.57-1.3-5.13-2.55-7.62-3.89q1.57 7.19 3.66 14.32a125.34 125.34 0 0 0 14.85 6.7c17.14 6.57 35.25 10.37 53.38 13a496.89 496.89 0 0 0 122.57 2.3c6.87-.72 13.72-1.6 20.54-2.7q2.19-6.26 4-12.69c-3.58.71-7.18 1.35-10.8 1.88z" fill="#f0f0e1"/><path d="M221.09 193.36c-7.38-20.42-23.09-37.65-38.09-53.08-14.17-14.63-32.31-26.54-45.57-49.62-5.84-10.15-7.72-18-12.69-27.69-2 0-22.82 4.47-22.75 3.55-.73 9.73-8.43 14.64-12.44 23.57-5.31 11.85-14.27 22.35-24.45 32.66 75.44-18.41 136 22.65 147.34 103.77 12.92 92.84-72.65 176.79-100.91 176.79-23.51 0-52.59-22.35-61.7-29.85 24.85 34.79 52.36 58.27 65.51 58.27 32.66 0 147.86-121.84 105.75-238.37z" style="mix-blend-mode:multiply" fill="#ad9262" opacity=".5"/><path d="M93 51.43S76.21 92.2 81.25 95.15c7.83 4.56 17.61-14.35 17.61-14.35s3.91 28.05 15 24.79 9.79-27.4 9.79-27.4 10.44 19.57 18.92 15.66c4.31-2-13-42.41-13-42.41z" fill="#d8bfa0"/><path d="M95.17 55.51S85 80.43 88.87 80.87s11.73-13.68 11.73-13.68 3.74 18.79 8.79 17.34c6.85-2 4-29 4-29z" style="mix-blend-mode:overlay" fill="#fcfbf9" opacity=".3"/><path d="M110.82 53.71c-5.27-12.62-16.34-48.19.36-48.39 18.79-.23 6.13 38.83 1.31 48.39.91.1 3.11-.27 3.9-.11C130.05 35.27 132.55-.7 112.14 0 85.3.95 100 45 107.5 53.58c.73-.2 2.59.22 3.32.13z" fill="#d8bfa0" opacity=".3"/><path d="M121.29 70.32s-.7 29.27-8.08 30.74c-6.51 1.3-10.8-8.25-12.51-11.5 2.12 7.92 6.25 18.06 13.16 16 11.09-3.26 9.79-27.4 9.79-27.4s10.44 19.57 18.92 15.66c4.31-2-13-42.41-13-42.41h-24.99c7.26 1.52 23.74 3 23.74 3s8.34 20.32 5 24c-2.8 2.95-12.03-8.09-12.03-8.09z" style="mix-blend-mode:multiply" fill="#78572c" opacity=".3"/><path d="M138.88 210.63c-.89-47.1-24.12-64.7-46.26-63-93 7-94 156.71-9 143 30.99-5.03 55.99-41.03 55.26-80z" style="mix-blend-mode:overlay" fill="#fff" opacity=".3"/><path d="M63.4 268.89a211.5 211.5 0 0 1-35.59-7 59 59 0 0 0 4.27 7.79Q41 271.71 50 273a250.93 250.93 0 0 0 64.34.9 74.7 74.7 0 0 0 5-5.58 248.41 248.41 0 0 1-55.94.57z" style="mix-blend-mode:overlay" fill="#fff" opacity=".5"/><path d="M67.43 153.69c5.84 2.26 11.75 4.3 17.67 6.11a307.8 307.8 0 0 0 44.73 10 50.08 50.08 0 0 0-5.53-8.28 271 271 0 0 1-45.15-11.81 73.53 73.53 0 0 0-11.72 3.98z" style="mix-blend-mode:overlay" fill="#fff" opacity=".5"/></g></g></svg>