<svg xmlns="http://www.w3.org/2000/svg" viewBox="-14.931681632995605 -1 432.6016845703125 346.239990234375"><title>Depositphotos_94191498_10</title><g data-name="Layer 2"><g data-name="Layer 1" style="isolation:isolate"><path d="M185.47 78.82c-7.73-18.52-24-70.72.52-71 27.58-.34 9 57 1.92 71 1.33.15 4.57-.41 5.72-.16C213.7 51.75 217.36-1 187.41 0 148 1.39 169.64 66 180.6 78.63c1.07-.3 3.8.37 4.87.19z" fill="#d8bfa0" opacity=".5"/><path d="M118 146.1s4.61-26.63 17.6-26.63c12.4 0 19.8 28.83 19.8 28.83z" fill="#d8bfa0"/><path d="M166.44 150.51s2.74-79.64 19.6-81.42c20.9-2.2 22.21 88 22.21 88z" fill="#d8bfa0"/><path d="M85.47 154.9s4.36-52.8 16.4-53.9 18.37 49.5 18.37 49.5z" fill="#d8bfa0"/><path d="M90.91 147.42s1.87-24.1 5.32-24.1c3.65 0 3.72 24.37 3.72 24.37z" style="mix-blend-mode:overlay" fill="#d8bfa0"/><path d="M123.8 147.18s2.4-14.79 6.54-15.77c4.62-1.09 6 15.5 6 15.5z" style="mix-blend-mode:overlay" fill="#d8bfa0"/><path d="M172.15 149.1s1.72-44.89 7.18-46.81 6.16 47.58 6.16 47.58z" style="mix-blend-mode:overlay" fill="#d8bfa0"/><path fill="#79972e" d="M67.11 144.54l204.95 1.56-3.3 149.63H20.12l46.99-151.19z"/><path d="M20.12 295.73h248.64l3.3-149.63-24.41-.19c-5.87 16.34-26.11 59.49-76 59.49-57.47 0-89-53.64-92.94-60.77l-11.59-.09z" style="mix-blend-mode:multiply" fill="#2d602e" opacity=".3"/><path d="M37.2 271.79s23.41-18.1 37.91-59C89.93 171 80.95 144.63 65.57 145c-14.76.3-28.37 126.79-28.37 126.79z" style="mix-blend-mode:overlay" fill="#fff" opacity=".5"/><path d="M11.32 308.94c-2.12-6.35 9.9-25.31 15.4-27.51s357.09-3.71 362 4.4c3.3 5.5-1.1 20.9-5.5 23.11-.04 0-370.8 3.29-371.9 0z" fill="#b6cb45"/><path fill="#79972e" d="M253.36 65.79v174.93l136.42 12.1-2.2-187.03H253.36z"/><path d="M253.36 200.27l7.16-1.74s-1.8-97-7.16-99.82z" style="mix-blend-mode:overlay" fill="#fff" opacity=".5"/><path d="M387.58 65.79H253.36v30.76c25.75-.22 110.77.18 114.25 15 4.1 17.44 2.57 53.35 2.57 53.35s-63.1-17.44-98 22.57c-25 28.62 65.05 43.6 117.39 48.49z" style="mix-blend-mode:multiply" fill="#2d602e" opacity=".3"/><ellipse cx="38.2" cy="216.12" rx="77.2" ry="26.92" transform="rotate(-68.3 37.608 215.261)" fill="#c00e12"/><ellipse cx="38.62" cy="202.62" rx="43.39" ry="14.37" transform="rotate(-66.67 38.622 202.634)" fill="#e80e12"/><circle cx="319.92" cy="255.57" r="89.67" fill="#a90e12"/><circle cx="319.92" cy="255.57" r="81.2" fill="#c00e12"/><path d="M244.11 262.5a81.18 81.18 0 0 1 142.56-53.15 81.19 81.19 0 1 0-128.11 99.38 80.81 80.81 0 0 1-14.45-46.23z" fill="#ffc088"/><circle cx="172.49" cy="303.98" r="41.26" fill="#a90e12"/><circle cx="172.49" cy="303.98" r="34.59" fill="#c00e12"/><path d="M141 308.08a34.58 34.58 0 0 1 60.65-22.73 34.58 34.58 0 1 0-55.2 41.35 34.42 34.42 0 0 1-5.45-18.62z" fill="#ffc088"/><circle cx="90.53" cy="303.98" r="41.26" fill="#a90e12"/><circle cx="90.53" cy="303.98" r="35.1" fill="#c00e12"/><path d="M60 308.08a35.1 35.1 0 0 1 56-28.21 35.1 35.1 0 1 0-46.35 52.33A35 35 0 0 1 60 308.08z" fill="#ffc088"/><path d="M220.35 79c-6.68-2.23 5.5-44 33-53.91 4.63-1.67 115.36-1.43 124.32 0 27.5 4.4 40 52.74 29.71 54.46-6.6 1.09-183.73.54-187.03-.55z" fill="#c00e12"/><path d="M76 161.18c-2.6 44.59-46.45 108.35-61.07 111.43C3.59 275 4.26 255.85 1.94 244.17-2.14 266.82.18 284 9.28 287.7c13.78 5.57 37.9-22 53.87-61.5C73.4 200.83 77.79 176.7 76 161.18z" style="mix-blend-mode:multiply" fill="#c76032"/><path d="M88.79 233.37c3.47-11.81 119.28-12.31 117 .77s-120.85 12.31-117-.77z" fill="#d8bfa0"/><path d="M236.79 57.66c-.51-5.64 8.75-21.21 20.52-25.13 12.31-4.11 90.8-2.57 92.34 2 2.12 6.39-112.06 31.92-112.86 23.13z" style="mix-blend-mode:overlay" fill="#fff" opacity=".5"/><path d="M379.71 25.51c14.41 11.41 18.39 34.9 15.09 41.89-3.68 7.81-127.3 11.51-152.87 12.19 48.11.65 160.23.82 165.46-.06 10.03-1.66-1.6-47.64-27.68-54.02z" style="mix-blend-mode:multiply" fill="#c76032"/><circle cx="90.53" cy="303.98" r="9.06" fill="#ff0e12"/><circle cx="172.1" cy="303.98" r="9.06" fill="#ff0e12"/><circle cx="321.95" cy="252.6" r="15.98" fill="#ff0e12"/><path d="M296.73 146.86c-1.25-2.49-3.32-32-.42-32.8 4.28-1.22 48.95-2.12 51.06 0 1.66 1.66 1.53 31.7-.83 33.63s-48.13 2.53-49.81-.83z" style="mix-blend-mode:multiply" fill="#5d8395" opacity=".5"/></g></g></svg>