<svg xmlns="http://www.w3.org/2000/svg" viewBox="-0.48999977111816406 -0.09468889236450195 63.271461486816406 101.26666259765625"><title>Depositphotos_74833975_03</title><g data-name="Layer 2"><g data-name="forest animals"><path d="M10.71 96.83h2.56s.08-.43.16-1.35c.52-3.8.4-15.38.37-17.31 0-1.05.45-2.92-.77-3.36-.89-.32-2.8-.47-2.87.85-.09 1.63.32 19 .5 20.08.05.76.05 1.09.05 1.09z" fill="#e54e03"/><path d="M16.91 97.41c0 .1.06.25 0 0 0-.06 0 0 0 0a2 2 0 0 0-.84-1.09 6 6 0 0 0-2.62-.82c-.25.62-2.13.62-2.77.26-1.33 0-3.65.6-3.74 2.26a1.92 1.92 0 0 0 1.23 1.75 4.41 4.41 0 0 0 2.25-.11 2.09 2.09 0 0 0 2.07 1.48c.9 0 1.38-.76 1.6-1.55 1.19.32 3.14-.71 2.82-2.18z" fill="#e8dfda"/><path d="M32.15 96.83h-2.56s-.08-.43-.16-1.35c-.52-3.8-.4-15.38-.37-17.31 0-1.05-.45-2.92.77-3.36.89-.32 2.8-.47 2.87.85.09 1.63-.32 19-.5 20.08-.05.76-.05 1.09-.05 1.09z" fill="#e54e03"/><path d="M26 97.41c0 .1-.06.25 0 0 0-.06 0 0 0 0a2 2 0 0 1 .84-1.09 6 6 0 0 1 2.62-.82c.25.62 2.13.62 2.77.26 1.33 0 3.65.6 3.74 2.26a1.92 1.92 0 0 1-1.23 1.75 4.41 4.41 0 0 1-2.25-.11 2.09 2.09 0 0 1-2.07 1.48c-.9 0-1.38-.76-1.6-1.55-1.24.32-3.18-.71-2.82-2.18z" fill="#e8dfda"/><path d="M31.51 6.85A10.08 10.08 0 0 1 34 1.44 5.68 5.68 0 0 1 37.29 0a2.4 2.4 0 0 1 2 .68 2.88 2.88 0 0 1 .12 2.8 12.31 12.31 0 0 1-4.46 5.86c-1.03-1.16-2.48-1.62-3.44-2.49z" fill="#e54e03"/><path d="M37.6 3a2 2 0 0 1-.39 1.46 12.61 12.61 0 0 1-3.29 3.6A2.39 2.39 0 0 1 32.84 7 2.11 2.11 0 0 1 33 5.55a9 9 0 0 1 1.26-2.14 3.14 3.14 0 0 1 1.66-1.21 1.4 1.4 0 0 1 1.68.8z" fill="#eac39b"/><path d="M10.34 9.47A10.08 10.08 0 0 1 5 6.93a5.68 5.68 0 0 1-1.42-3.35 2.4 2.4 0 0 1 .71-2 2.88 2.88 0 0 1 2.8-.07 12.31 12.31 0 0 1 5.79 4.55c-1.17 1.02-1.66 2.46-2.54 3.41z" fill="#e54e03"/><path d="M6.62 3.32a2 2 0 0 1 1.46.41 12.61 12.61 0 0 1 3.55 3.34 2.39 2.39 0 0 1-1.14 1.07 2.11 2.11 0 0 1-1.43-.21 9 9 0 0 1-2.12-1.29A3.14 3.14 0 0 1 5.75 5a1.4 1.4 0 0 1 .87-1.68z" fill="#eac39b"/><path d="M62.58 40.29a44.76 44.76 0 0 1-5 16.48c-2.71 5.27-6.49 10.53-12 13.08a15.53 15.53 0 0 1-7.62 1.44 11 11 0 0 1-5.07-1.58c-1.07-.69-1.5-1.29-1.4-1.43s1.64.25 1.87.3a12.83 12.83 0 0 0 2.89.25A13.28 13.28 0 0 0 42.52 67a19.06 19.06 0 0 0 7-8.27 45 45 0 0 0 3.85-12.47c.3-1.85.49-3.7.63-5.57a14.19 14.19 0 0 1 1.2-5.25 4.28 4.28 0 0 1 1.21-1.5 3.62 3.62 0 0 1 2-.69 3.35 3.35 0 0 1 2.07.5 3.89 3.89 0 0 1 1.36 1.59 9.66 9.66 0 0 1 .74 5c-.03.39.15-1.81 0-.05z" fill="#e54e03"/><path d="M38.48 68.56a12.56 12.56 0 0 1-2.29.28h-.48a9.9 9.9 0 0 0 1.39 2.36l.8.09a14 14 0 0 0 1.74 0l-.1-.13a6.67 6.67 0 0 1-1.06-2.6z"/><path d="M51.64 65.38q.58-.61 1.13-1.26c-.9-.39-1.67-.73-1.82-.82a13.47 13.47 0 0 1-2.61-2.4 22.2 22.2 0 0 1-1.62 2.34 15.87 15.87 0 0 0 4.92 2.14z"/><path d="M46.17 69.13c-.22-.21-1.28-1.72-2.24-3.1a13.68 13.68 0 0 1-1.19.82c.4 1.08.83 2.07.93 2.24a12.66 12.66 0 0 0 .72 1.23c.38-.14.76-.3 1.14-.47s.63-.31.94-.47z"/><path d="M51 55.36q-.25.65-.52 1.3c1 1 1.94 1.86 2.18 2.05a16 16 0 0 0 2.77 1.79c.46-.73.9-1.47 1.32-2.22a9.29 9.29 0 0 1-2.08-.61c-.33-.15-2.12-1.29-3.67-2.31z"/><path d="M62.62 39.88c0-.27 0-.47 0 0z"/><path d="M56 50.15a20.68 20.68 0 0 1-3.2-1q-.29 1.28-.64 2.55a29 29 0 0 0 7.58.19q.25-.65.49-1.3c-1.71-.19-3.91-.38-4.23-.44z"/><path d="M54.55 37.17a26.41 26.41 0 0 0 3 1.7 12.7 12.7 0 0 0 5 1A11.35 11.35 0 0 0 62.4 37c-1 .08-2.15.33-3 .3-.4 0-2.85-.71-4.54-1.14a10.29 10.29 0 0 0-.31 1.01z"/><path d="M58 43.57a29.93 29.93 0 0 1-4.07-2.06c-.08 1-.18 1.94-.3 2.9a26.15 26.15 0 0 0 8.07 1.33q.15-.62.28-1.24c-1.63-.38-3.69-.83-3.98-.93z"/><path d="M5.92 13.31c-4.8 9-6.41 19.45-5.79 29.62S3 71.16 8.23 75.27s24.35 3.49 27.37.31 9.62-35.45 6.34-50.87c-1.3-6.11-3.5-12.24-7.77-16.79S23.19.68 17.22 2.53c-5.1 1.58-8.78 6.06-11.3 10.78z" fill="#ff6d24"/><path d="M35.91 58.13c0 .36 2.35 1.15 4.34 1.72q.24-1.29.47-2.63c-2.09.18-4.72.53-4.81.91z"/><path d="M39.8 62.18c-1.93 0-5.3.3-5.37.73s2.88 1.58 4.73 2.23c.21-.94.43-1.93.64-2.96z"/><path d="M37 48.06c-.06.45 3.09 1.62 4.8 2.19q.2-1.54.36-3.09c-1.83.1-5.16.45-5.16.9z"/><path d="M36.57 53.3c0 .38 2.53 1.22 4.51 1.79q.21-1.36.41-2.75c-2.07.19-4.88.57-4.92.96z"/><path d="M37.25 43.17c0 .45 3.29 1.38 5.1 1.82q.14-1.56.25-3.11c-1.83.21-5.32.83-5.35 1.29z"/><path d="M36.45 37.38c0 .42 3.84 1.07 6.31 1.42 0-1 .07-2 .07-3-2.45.39-6.38 1.15-6.38 1.58z"/><path d="M33.65 14.29c.16.34 2.62-.18 4.52-.66q-.62-1.19-1.35-2.31c-1.54 1.15-3.33 2.68-3.17 2.97z"/><path d="M35.11 31.4c0 .52 5.88 1.73 7.7 2 0-1.15-.07-2.26-.15-3.33-2.12.16-7.52.83-7.55 1.33z"/><path d="M37.66 27c0 .45 3.12 1 4.84 1.21-.12-1.06-.27-2.07-.45-3-1.71.48-4.42 1.39-4.39 1.79z"/><path d="M35.92 18.17c.13.37 2.52.23 4.23 0q-.47-1.32-1-2.6c-1.48.94-3.35 2.24-3.23 2.6z"/><path d="M37.26 22.49c.05.39 2.55.67 4.36.8q-.32-1.34-.7-2.67c-1.66.61-3.71 1.5-3.66 1.87z"/><path d="M6.38 37.37c0-.42-3.86-1.13-6.32-1.51Q0 37.35 0 38.84c2.46-.34 6.38-1.04 6.38-1.47z"/><path d="M6.26 53.3c0-.41-3.18-.78-5.27-.95.12 1 .25 1.92.39 2.88 2.02-.56 4.92-1.52 4.88-1.93z"/><path d="M.07 41.88q0 .52.05 1c0 .68.09 1.4.15 2.14 1.74-.39 5.34-1.43 5.31-1.9S1.83 42.09.07 41.88z"/><path d="M6.92 58.12c0-.4-3.08-.74-5.23-.91.15.93.31 1.86.49 2.78 2.06-.58 4.82-1.48 4.74-1.87z"/><path d="M8.41 62.92c-.07-.47-4-.68-5.78-.71.23 1.06.47 2.09.74 3.08 1.8-.61 5.11-1.93 5.04-2.37z"/><path d="M5.86 48.06c-.06-.47-3.69-.79-5.42-.88.09 1 .2 2.1.32 3.19 1.61-.49 5.17-1.84 5.1-2.31z"/><path d="M6.92 18.17c.1-.3-1.14-1.2-2.39-2q-.53 1.07-.91 2.16c1.54.12 3.19.15 3.3-.16z"/><path d="M5.58 22.48c0-.31-1.42-1-2.89-1.55q-.37 1.16-.69 2.32c1.67-.15 3.53-.43 3.58-.77z"/><path d="M7.72 31.39c0-.47-4.79-1-7.13-1.24q-.23 1.62-.36 3.26c2.02-.32 7.51-1.51 7.49-2.02z"/><path d="M5.18 27c0-.37-2.06-1.09-3.73-1.58Q1.14 26.8.9 28.19c1.76-.26 4.25-.77 4.28-1.19z"/><path d="M9.19 14.29c.13-.29-1.19-1.37-2.47-2.4q-.42.7-.8 1.42l-.3.58c1.68.38 3.44.68 3.57.4z"/><path d="M27.91 29.91c2-.25 4.2-.75 5.54-2.3A8 8 0 0 0 35 23.35a13.24 13.24 0 0 0 0-4.4c-.29-1.45-3-4.59-13.89-4.59S7.65 18 7.09 19.75c-.79 2.41-.87 5.25.63 7.3a7.44 7.44 0 0 0 4.19 2.62 22 22 0 0 0 5 .51 74.51 74.51 0 0 0 11-.27z" fill="#e8dfda"/><path d="M31.07 11.71a1.28 1.28 0 0 0 .59-.33 1.21 1.21 0 0 0 .24-.69 4 4 0 0 0 0-1.12 1.26 1.26 0 0 0-.42-.83 1.32 1.32 0 0 0-.69-.2 2.08 2.08 0 0 0-1.05.14 1.44 1.44 0 0 0-.68.74 2 2 0 0 0-.14 1 1.94 1.94 0 0 0 .24.79 1.32 1.32 0 0 0 .6.55 1.94 1.94 0 0 0 1.31-.05z" fill="#fff"/><path d="M29.46 10.73a.8.8 0 0 0 1.3.11.76.76 0 0 0 .18-.56.68.68 0 0 0-.3-.5.73.73 0 0 0-.51-.1 1 1 0 0 0-.48.23.71.71 0 0 0-.28.5.61.61 0 0 0 .09.32z"/><path d="M12.61 12a1.28 1.28 0 0 0 .59-.33 1.21 1.21 0 0 0 .24-.69 4 4 0 0 0 0-1.12 1.26 1.26 0 0 0-.44-.81 1.32 1.32 0 0 0-.69-.2 2.08 2.08 0 0 0-1.07.15 1.44 1.44 0 0 0-.68.74 2 2 0 0 0-.14 1 1.94 1.94 0 0 0 .24.79 1.32 1.32 0 0 0 .6.55 1.94 1.94 0 0 0 1.35-.08z" fill="#fff"/><path d="M11.88 11.09a.68.68 0 0 0 1.11.1.65.65 0 0 0 .15-.48.58.58 0 0 0-.26-.43.63.63 0 0 0-.44-.08.86.86 0 0 0-.41.2.61.61 0 0 0-.24.43.52.52 0 0 0 .09.26z"/><path d="M26.82 23.81L27.3 27a7.24 7.24 0 0 0 1.19-3.78 8.83 8.83 0 0 1-1.67.59z" fill="#fff"/><path d="M13.51 23a4.22 4.22 0 0 0 .33 2 12.6 12.6 0 0 0 1 1.81l.37-3.24z" fill="#fff"/><path d="M31.92 20c-2.33 3.37-6.49 4.17-10.34 4.13v-8.39c0-.13-.8 0-.8.21v8.16c-3.93-.13-8.21-.85-10.92-4-.19-.22-1 .07-.74.32 3.07 3.51 8.07 4.09 12.46 4.13 4.1 0 8.62-1 11.08-4.58.22-.22-.59-.16-.74.02z" fill="#a57c58"/><path d="M20.18 13.05a9.62 9.62 0 0 1 3.63.23c.76.26 1.38.76 1.42 1.33a1.83 1.83 0 0 1-.8 1.34 8.68 8.68 0 0 1-1.84 1.21 3.44 3.44 0 0 1-1.64.43 3.2 3.2 0 0 1-1.7-.59 8.11 8.11 0 0 1-1.43-1.25c-.48-.54-.86-1.22-.45-1.78a2.16 2.16 0 0 1 1.22-.68 9.2 9.2 0 0 1 1.59-.24z"/><path d="M18.29 14.27a2.42 2.42 0 0 1 1.94.07 1.08 1.08 0 0 1 .28.9c0 .45 0 .9.07 1.35s.54.66 1.12.44a.89.89 0 0 0 .47-.45 3.16 3.16 0 0 0 .15-1.28c0-.51.19-1.28 1.24-1.08.73.13 1.22.72.65 1.15a1.67 1.67 0 0 1-1.61-.1v.44c0 .4.05 1-.4 1.26a1.6 1.6 0 0 1-1.24.2.8.8 0 0 1-.69-.63 4.92 4.92 0 0 1-.08-1.16 2 2 0 0 1-1.45.11c-.74-.21-1.19-.82-.45-1.22z" fill="#353535"/><path d="M18.23 22.61a.23.23 0 0 0 .37 0 .22.22 0 0 0 .05-.16.19.19 0 0 0-.09-.14.21.21 0 0 0-.15 0 .29.29 0 0 0-.14.07.2.2 0 0 0-.08.14.17.17 0 0 0 .04.09z"/><path d="M14.42 19.12a.23.23 0 0 0 .37 0 .22.22 0 0 0 .05-.16.2.2 0 0 0-.09-.14.21.21 0 0 0-.15 0 .29.29 0 0 0-.14.07.2.2 0 0 0-.08.14.17.17 0 0 0 .04.09z"/><path d="M25 18.91a.23.23 0 0 0 .37 0 .22.22 0 0 0 .05-.16.2.2 0 0 0-.09-.14.21.21 0 0 0-.15 0 .29.29 0 0 0-.14.07.2.2 0 0 0-.08.14.17.17 0 0 0 .04.09z"/><path d="M22.8 20.55a.23.23 0 0 0 .37 0 .22.22 0 0 0 .05-.16.2.2 0 0 0-.09-.14.21.21 0 0 0-.15 0 .29.29 0 0 0-.14.07.2.2 0 0 0-.08.14.17.17 0 0 0 .04.09z"/><path d="M27.85 20.76a.23.23 0 0 0 .37 0 .22.22 0 0 0 .05-.16.2.2 0 0 0-.09-.14.21.21 0 0 0-.15 0 .29.29 0 0 0-.14.07.2.2 0 0 0-.08.14.17.17 0 0 0 .04.09z"/><path d="M15.1 21.16a.23.23 0 0 0 .37 0 .22.22 0 0 0 .05-.16.2.2 0 0 0-.09-.14.21.21 0 0 0-.15 0 .29.29 0 0 0-.14.07.2.2 0 0 0-.08.14.17.17 0 0 0 .04.09z"/><path d="M18.58 19.33a.23.23 0 0 0 .37 0 .22.22 0 0 0 .05-.13.2.2 0 0 0-.09-.14.21.21 0 0 0-.15 0 .29.29 0 0 0-.14.07.2.2 0 0 0-.08.14.17.17 0 0 0 .04.06z"/><path d="M24.5 22.61a.23.23 0 0 0 .37 0 .22.22 0 0 0 .05-.16.2.2 0 0 0-.09-.14.21.21 0 0 0-.15 0 .29.29 0 0 0-.14.07.2.2 0 0 0-.08.14.17.17 0 0 0 .04.09z"/><path d="M8.54 54.72c.94 3.73 2.78 7.56 6.24 9.35a15.4 15.4 0 0 0 7.61 1.22c2.62-.09 5.35-.4 7.57-1.78a10.7 10.7 0 0 0 4.06-5 21.33 21.33 0 0 0 1.4-6.32 44.52 44.52 0 0 0-.2-10c-.29-2.18-.8-4.46-2.3-6.09s-4-2.44-6.29-2.83a32.27 32.27 0 0 0-9.74-.15 11.22 11.22 0 0 0-6.1 2.36c-1.9 1.72-2.62 4.35-3 6.86a32.93 32.93 0 0 0 .75 12.38z" fill="#ff925a"/><path d="M24.38 7.75c.36.13 1.95-2.48 3.09-4.5a17.57 17.57 0 0 0-2.6-.86c-.42 2.28-.87 5.23-.49 5.36z"/><path d="M17.23 7.51c.42-.12.25-3.19.08-5h-.08a14 14 0 0 0-2.67 1.15c.86 1.63 2.28 3.96 2.67 3.85z"/><path d="M19.29 2.07c.51 2.67 1.56 7.26 2 7.23s.86-4.6 1-7.32a14.13 14.13 0 0 0-3 .09z"/><path d="M24.68 33.87a6.84 6.84 0 0 1 7 3.84c1.22 2.62 1 5.68.39 8.5-1.54 6.93-7.92 13.87-11.53 14.32S9.77 50.79 9 42.39a9.9 9.9 0 0 1 .31-4.19 4.31 4.31 0 0 1 2.89-2.84c4.44-1.06 7.26 4.34 7.26 4.34s1.43-5.33 5.22-5.83z" fill="#44a5b7"/><path d="M40.12 30.39c.29-2-2-1.06-2.21.14-1.25 8.82-9.26 12.92-11.21 13.09a23.14 23.14 0 0 0-2.68.15c-.88.18-2 .76-1.91 1.65a1.57 1.57 0 0 0 1.64 1.37s-1.78.71-1.33 2 2.61.36 2.61.36-1.24.66-.87 1.63a1.81 1.81 0 0 0 1.79 1 4.69 4.69 0 0 0 2-.7c3.83-2.08 10.31-8.19 12.17-20.69z" fill="#e54e03"/><path d="M24 43.77c-.88.18-2 .76-1.91 1.65a1.57 1.57 0 0 0 1.64 1.37s-1.78.71-1.33 2 2.61.36 2.61.36-1.24.66-.87 1.63a1.81 1.81 0 0 0 1.79 1 4.69 4.69 0 0 0 2-.7l.55-.32c-.57-2.59-1.23-5.3-3.08-7.1a7.28 7.28 0 0 0-1.4.11z" fill="#e8dfda"/><path d="M2.71 30.39c-.29-2 2-1.06 2.21.14 1.25 8.82 9.26 12.92 11.21 13.09a23.14 23.14 0 0 1 2.68.15c.88.18 2 .76 1.91 1.65a1.57 1.57 0 0 1-1.64 1.37s1.78.71 1.33 2-2.61.36-2.61.36 1.24.66.87 1.63a1.81 1.81 0 0 1-1.79 1 4.69 4.69 0 0 1-2-.7C11.06 49 4.58 42.89 2.71 30.39z" fill="#e54e03"/><path d="M18.82 43.77c.88.18 2 .76 1.91 1.65a1.57 1.57 0 0 1-1.64 1.37s1.78.71 1.33 2-2.61.36-2.61.36 1.24.66.87 1.63a1.81 1.81 0 0 1-1.79 1 4.69 4.69 0 0 1-2-.7l-.55-.32c.57-2.59 1.23-5.3 3.08-7.1a7.28 7.28 0 0 1 1.4.11z" fill="#e8dfda"/></g></g></svg>