<svg xmlns="http://www.w3.org/2000/svg" viewBox="-0.1900005340576172 -0.006115913391113281 79.19000244140625 107.12612915039062"><title>Depositphotos_74833975_11</title><g data-name="Layer 2"><g data-name="forest animals"><path d="M31.07 106.73c1.3 0 2.75 0 3.66-1a3.08 3.08 0 0 0 .23-3.67 5.6 5.6 0 0 0-3.16-2.24 10.43 10.43 0 0 1-3.25-1.23 6.48 6.48 0 0 1-2-3.83 64.3 64.3 0 0 1-1.75-15.84l-4.88-3.14 2.89 23.65c.25 2.08.6 4.35 2.16 5.76s3.96 1.53 6.1 1.54z"/><path d="M44.21 100.94c1.46-1.24 3.87-.3 5.5-1.31s1.65-3.07 1.57-4.86a103.6 103.6 0 0 0-1.69-14.27l4.69-1.34 1.13 23.15a5.3 5.3 0 0 1-.54 3.26c-1 1.5-3.17 1.55-5 1.43s-3.69-.29-5.1-1.39-1.92-3.5-.56-4.67z"/><path d="M52.56 18.61c-.24.08-.1-.12-.31-.21l-2.1-1a7.39 7.39 0 0 1-.08-1.84 3 3 0 0 1 .79-1.75 2.55 2.55 0 0 1 2-.7 3.31 3.31 0 0 1 1.84.89 1.64 1.64 0 0 1 .64 1 2.13 2.13 0 0 1-.61 1.5 14.82 14.82 0 0 1-2.17 2.11z"/><path d="M53.76 14.49a1.21 1.21 0 0 1 .47.67 1.05 1.05 0 0 1-.11.69 2.8 2.8 0 0 1-.41.57 24.83 24.83 0 0 1-1.88 1.94.25.25 0 0 1-.14.08.28.28 0 0 1-.18-.08L51 18a.79.79 0 0 1-.26-.26.7.7 0 0 1 0-.38 5.28 5.28 0 0 1 .92-2.49 1.77 1.77 0 0 1 .59-.58 1.48 1.48 0 0 1 1.51.2z" fill="#3a3a3a"/><path d="M30.79 17.31c0 .25-.15.05-.31.21l-1.66 1.6a7.39 7.39 0 0 1-1.74-.6 3 3 0 0 1-1.33-1.38 2.55 2.55 0 0 1 .1-2.14 3.31 3.31 0 0 1 1.45-1.37 1.64 1.64 0 0 1 1.17-.22 2.13 2.13 0 0 1 1.17 1.11 14.82 14.82 0 0 1 1.15 2.79z"/><path d="M27.4 14.68a1.21 1.21 0 0 1 .79-.19 1.05 1.05 0 0 1 .6.35 2.8 2.8 0 0 1 .38.59 24.8 24.8 0 0 1 1.12 2.46.25.25 0 0 1 0 .16.28.28 0 0 1-.14.14l-.54.34a.79.79 0 0 1-.34.14.7.7 0 0 1-.37-.1 5.28 5.28 0 0 1-2-1.77 1.77 1.77 0 0 1-.32-.76 1.48 1.48 0 0 1 .82-1.36z" fill="#3a3a3a"/><path d="M56.81 42.36c-.63-2.07 2-1.47 2.4-.21 2.77 9.26 12 12.37 14.15 12.24a25.11 25.11 0 0 1 2.9-.27c1 .05 2.31.49 2.32 1.46A1.7 1.7 0 0 1 77 57.32s2 .48 1.76 1.95-2.74.8-2.74.8 1.44.51 1.2 1.61A2 2 0 0 1 75.49 63a5.09 5.09 0 0 1-2.3-.42c-4.42-1.58-12.36-7.1-16.38-20.22z"/><path d="M77.37 55.35a.77.77 0 0 1 .08.66.87.87 0 0 1-.22.39.73.73 0 0 1-.69.16.83.83 0 0 1-.53-.49.77.77 0 0 1 .26-.92.86.86 0 0 1 .66-.08.77.77 0 0 1 .44.28z" fill="#ea888a"/><path d="M77.54 59.31a.82.82 0 0 1-.54.18.94.94 0 0 1-.64-.21.6.6 0 0 1-.19-.62.64.64 0 0 1 .54-.39 1.51 1.51 0 0 1 .68.13.57.57 0 0 1 .15.91z" fill="#ea888a"/><path d="M75.42 62.27a.75.75 0 0 1-.15-1.49.93.93 0 0 1 .48.05.56.56 0 0 1 .36.31.67.67 0 0 1 0 .31 1 1 0 0 1-.33.7.65.65 0 0 1-.36.12z" fill="#ea888a"/><path d="M73.77 59.72a1.34 1.34 0 0 1-.88.45 1.1 1.1 0 0 1-1-.67 2.34 2.34 0 0 1-.15-1.21 3.1 3.1 0 0 1 .83-2 1.29 1.29 0 0 1 1.29-.37 1.43 1.43 0 0 1 .77 1.24 3.15 3.15 0 0 1-.86 2.56z" fill="#ea888a"/><path d="M22.25 42.52c.66-2.06-2-1.5-2.39-.24C17 51.5 7.66 54.47 5.53 54.31a25.12 25.12 0 0 0-2.9-.31c-1 0-2.31.46-2.34 1.43a1.7 1.7 0 0 0 1.52 1.76s-2 .45-1.79 1.92 2.73.89 2.73.89-1.44.49-1.22 1.59a2 2 0 0 0 1.75 1.37 5.09 5.09 0 0 0 2.3-.39C10 60.95 18 55.58 22.25 42.52z"/><path d="M1.51 55.21a.77.77 0 0 0-.09.66.86.86 0 0 0 .22.39.73.73 0 0 0 .69.17.83.83 0 0 0 .53-.43.77.77 0 0 0-.24-1 .86.86 0 0 0-.62-.05.77.77 0 0 0-.49.26z" fill="#ea888a"/><path d="M1.28 59.16a.82.82 0 0 0 .54.19.94.94 0 0 0 .64-.2.6.6 0 0 0 .2-.62.64.64 0 0 0-.53-.4 1.51 1.51 0 0 0-.68.12.57.57 0 0 0-.17.91z" fill="#ea888a"/><path d="M3.36 62.15a.75.75 0 0 0 .17-1.49.93.93 0 0 0-.48 0 .56.56 0 0 0-.36.31.67.67 0 0 0 0 .31A1 1 0 0 0 3 62a.65.65 0 0 0 .36.15z" fill="#ea888a"/><path d="M5 59.63a1.34 1.34 0 0 0 .87.46 1.1 1.1 0 0 0 1-.65A2.34 2.34 0 0 0 7 58.23a3.1 3.1 0 0 0-.8-2 1.29 1.29 0 0 0-1.29-.39 1.43 1.43 0 0 0-.78 1.23A3.15 3.15 0 0 0 5 59.63z" fill="#ea888a"/><path d="M23.15 83.71c3.47 3.23 8.53 3.92 13.25 4.37a43.2 43.2 0 0 0 9.13.19 15.6 15.6 0 0 0 8.37-3.35 17.61 17.61 0 0 0 4.77-7.59c3.29-9.17 2.57-19.24 1.49-28.92a121.85 121.85 0 0 0-3.44-19.66c-.93-3.3-2.17-6.64-4.59-9.07C48.52 16 42.87 15.13 37.81 16a16.21 16.21 0 0 0-7.57 3.12c-2.54 2.05-4.12 5-5.44 8-5.93 13.44-7.92 28.47-6.65 43.1.43 4.89 1.41 10.14 5 13.49z"/><path d="M57.76 29.9a35 35 0 0 0-1.92-7.18 12.84 12.84 0 0 0-4-6c-2-1.45-4.52-1.87-7-2.15a25.07 25.07 0 0 0-9.68.34c-5.85 1.66-10.22 7-11.62 13a13.84 13.84 0 0 0-.23 6 8.3 8.3 0 0 0 3.08 5c1.91 1.39 4.39 1.7 6.75 1.85a79 79 0 0 0 11.36-.08 23.57 23.57 0 0 0 9.17-2.19 7.83 7.83 0 0 0 4-4.15 9.37 9.37 0 0 0 .09-4.44z" fill="#ededed"/><path d="M39.3 36.88a53.43 53.43 0 0 0 6.4-.49 13.88 13.88 0 0 0 5.44-1.64 8.15 8.15 0 0 0 3.62-8.34 4.7 4.7 0 0 0-1.1-2.33 6.24 6.24 0 0 0-3.31-1.5 75.23 75.23 0 0 0-14.16-1.44 13.6 13.6 0 0 0-6.42.92 7 7 0 0 0-3.48 8.71 9.11 9.11 0 0 0 5.44 5.09 20.23 20.23 0 0 0 7.57 1.02z" fill="#fff"/><path d="M36.69 26a4.89 4.89 0 0 0 1.7 2.5 3.35 3.35 0 0 0 2.91.5 5.25 5.25 0 0 0 2.37-2 3.7 3.7 0 0 0 1-2 2.65 2.65 0 0 0-1.81-2.41 7.53 7.53 0 0 0-3.18-.28 3.62 3.62 0 0 0-2.72 1 2.86 2.86 0 0 0-.27 2.69z"/><path d="M39.24 26.7a3.13 3.13 0 0 0-.92-2.56c-.12-.12-.3-.23-.45-.15a.42.42 0 0 0-.17.29 3.74 3.74 0 0 0 .22 2.37 1.31 1.31 0 0 0 .42.57.58.58 0 0 0 .67 0 .78.78 0 0 0 .23-.52z" fill="#424241"/><path d="M41.41 26.13a2 2 0 0 0-.27.9.45.45 0 0 0 .17.41.48.48 0 0 0 .38 0A2.26 2.26 0 0 0 43 26.28c.26-.54.74-1.76.08-1.74s-1.3.9-1.67 1.59z" fill="#424241"/><path d="M38.67 30.13a.22.22 0 0 0 0-.44.22.22 0 0 0 0 .44z"/><path d="M34.45 29.91a.22.22 0 0 0 0-.44.22.22 0 0 0 0 .44z"/><path d="M37.23 30.85a.22.22 0 0 0 0-.44.22.22 0 0 0 0 .44z"/><path d="M36.6 28.93a.22.22 0 0 0 0-.44.22.22 0 0 0 0 .44z"/><path d="M43.43 29.91a.22.22 0 0 0 0-.44.22.22 0 0 0 0 .44z"/><path d="M41.83 30.85a.22.22 0 0 0 0-.44.22.22 0 0 0 0 .44z"/><path d="M45.17 30.85a.22.22 0 0 0 0-.44.22.22 0 0 0 0 .44z"/><path d="M51.07 22.58A4.93 4.93 0 0 0 49 18.09a6.86 6.86 0 0 0-2.41-.94c-2.45-.55-3.2.28-3.41 1a4.2 4.2 0 0 0 .68 3.33A6.21 6.21 0 0 0 46.18 24a4.29 4.29 0 0 0 3.36.46 2.18 2.18 0 0 0 1.15-.74 2.34 2.34 0 0 0 .38-1.14z"/><path d="M36.53 16.8a2.48 2.48 0 0 0-1.48 0 7 7 0 0 0-3.38 1.78A4.82 4.82 0 0 0 30.19 22a2.56 2.56 0 0 0 .81 2 2.35 2.35 0 0 0 1.87.44 5.09 5.09 0 0 0 1.82-.75 7.13 7.13 0 0 0 2.5-2.37 3.87 3.87 0 0 0 .37-3.34 2 2 0 0 0-1.03-1.18z"/><path d="M47.38 22.86a1.57 1.57 0 0 0 2-2 1.59 1.59 0 0 0-1.25-1.06 1.33 1.33 0 0 0-1.26.48 2 2 0 0 0-.27 1.3 1.58 1.58 0 0 0 .23.87 1.12 1.12 0 0 0 .55.41z" fill="#fff"/><path d="M46.83 20.63a.55.55 0 0 0 .09.4.67.67 0 0 0 .59.22.71.71 0 0 0 .37-.11.55.55 0 0 0 .21-.31.63.63 0 0 0-.2-.62.65.65 0 0 0-.65-.1.68.68 0 0 0-.41.52z"/><path d="M32.71 22.57a1.57 1.57 0 0 0 2-2 1.59 1.59 0 0 0-1.25-1.06 1.33 1.33 0 0 0-1.26.48 2 2 0 0 0-.27 1.3 1.58 1.58 0 0 0 .23.87 1.12 1.12 0 0 0 .55.41z" fill="#fff"/><path d="M33 20.52a.64.64 0 0 0 .1.47.79.79 0 0 0 .69.26.84.84 0 0 0 .43-.13.64.64 0 0 0 .25-.37.73.73 0 0 0-.24-.73.76.76 0 0 0-.76-.11.79.79 0 0 0-.47.61z"/><path d="M21.1 60.18a39.38 39.38 0 0 0 1 10 17 17 0 0 0 5.06 8.6 18.44 18.44 0 0 0 9.44 3.87 18 18 0 0 0 9-.69 16.11 16.11 0 0 0 7.7-6.83 28.79 28.79 0 0 0 3.78-11.73A79.17 79.17 0 0 0 57.2 51c-.1-2.16-.27-4.49-1.69-6.12-1.78-2-4.83-2.25-7.54-2.31l-18.91-.38a8 8 0 0 0-4.46.77c-1.81 1.12-2.41 3.44-2.74 5.55a75.27 75.27 0 0 0-.76 11.67z" fill="#e0e0e0"/><path d="M31.8 45.13c.1-.19.49 0 .44.14a3.9 3.9 0 0 0-.28.79l-.06.24v1.62c0 .11 0 .38-.07.39s-.17-.12-.27-.34a3.33 3.33 0 0 1-.12-.41 2.24 2.24 0 0 1 0-.24v-1.09l.06-.26a3.74 3.74 0 0 1 .3-.84z" fill="#fff"/><path d="M36.46 46.33c0-.17.46-.16.46 0v.35a3.14 3.14 0 0 1 0 .44v.97c0 .16-.05.31-.09.45s-.09.26-.13.36-.17.32-.25.31-.1-.15-.09-.36 0-.23 0-.36v-1.36a3.53 3.53 0 0 0 0-.42z" fill="#fff"/><path d="M40.66 44.24c-.06-.13.37-.26.42-.16a4.44 4.44 0 0 1 .3.64l.07.2.06.21a3.38 3.38 0 0 1 .08.42 3.46 3.46 0 0 1 0 .39 2.26 2.26 0 0 1 0 .32c0 .18-.11.29-.18.29s-.13-.12-.16-.29 0-.19-.05-.3l-.06-.36c0-.12-.05-.25-.09-.38L41 45l-.06-.18a5.49 5.49 0 0 0-.28-.58z" fill="#fff"/><path d="M40.26 50c0-.12.47-.09.47 0 0 .55.08 2-.23 2s-.29-1.48-.24-2z" fill="#fff"/><path d="M44.48 46.44c0-.19.45-.16.47 0 .09.84.4 3.12.09 3.14s-.52-2.3-.56-3.14z" fill="#fff"/><path d="M48.61 47.75c-.05-.13.38-.25.43-.15a2.8 2.8 0 0 1 .26.65v.84a2.74 2.74 0 0 1-.08.38 2.09 2.09 0 0 1-.13.3c-.1.17-.2.26-.27.23s-.09-.14-.06-.31 0-.18 0-.29v-1.08a3 3 0 0 0-.15-.57z" fill="#fff"/><path d="M46.56 52c0-.15.47-.09.47 0 0 .65 0 2.43-.35 2.42s-.2-1.78-.12-2.42z" fill="#fff"/><path d="M35.84 51.6c0-.15.48-.07.47 0-.07.66-.17 2.49-.48 2.47s-.11-1.81.01-2.47z" fill="#fff"/><path d="M33 50.29c0-.13.48 0 .46.06-.12.59-.39 2.22-.7 2.18s.08-1.66.24-2.24z" fill="#fff"/><path d="M28 46.16c.13-.11.43.17.36.25a3.39 3.39 0 0 0-.44.51l-.11.16-.1.17c-.07.11-.12.24-.18.35l-.14.34c0 .11-.08.2-.11.29s-.13.27-.2.27-.12-.12-.14-.31a2.06 2.06 0 0 1 0-.32 3 3 0 0 1 .1-.38 2.91 2.91 0 0 1 .18-.4l.11-.19.13-.18a3.29 3.29 0 0 1 .54-.56z" fill="#fff"/><path d="M29 48.86c.05-.18.49-.06.46.07-.18.81-.6 3-.9 3s.22-2.27.44-3.07z" fill="#fff"/><path d="M25.52 51.56c0-.19.48-.09.46 0-.13.85-.39 3.19-.7 3.16s.07-2.31.24-3.16z" fill="#fff"/><path d="M29.13 54.54c0-.18.47-.11.47 0-.05.81-.12 3-.43 3s-.17-2.2-.04-3z" fill="#fff"/><path d="M32 54.82c0-.16.46-.12.47 0 0 .71.2 2.64-.12 2.65S32 55.52 32 54.82z" fill="#fff"/><path d="M39.28 54.82c0-.16.46-.12.47 0 0 .69.21 2.58-.1 2.6s-.38-1.91-.37-2.6z" fill="#fff"/><path d="M43.53 53.14c0-.12.44-.16.46-.08.14.53.6 2 .29 2s-.66-1.38-.75-1.92z" fill="#fff"/><path d="M36.29 56.9c0-.11.47-.06.47 0 0 .5 0 1.89-.36 1.88s-.19-1.38-.11-1.88z" fill="#fff"/><path d="M51.78 51.49c-.08-.19.37-.28.43-.14a9.49 9.49 0 0 1 .39.89l.1.27.09.28c.06.19.1.39.14.57s.06.37.08.53a4.43 4.43 0 0 1 0 .45c0 .26-.05.42-.13.42s-.15-.15-.21-.39-.07-.27-.11-.42l-.13-.51c-.05-.18-.1-.36-.16-.55l-.08-.27-.09-.26c-.1-.36-.23-.66-.32-.87z" fill="#fff"/><path d="M49.35 54.67c0-.16.44-.17.46-.05.13.72.55 2.69.24 2.72s-.62-1.95-.7-2.67z" fill="#fff"/><path d="M52.8 57.55c0-.14.46-.11.47 0 0 .62.15 2.32-.17 2.32s-.33-1.7-.3-2.32z" fill="#fff"/><path d="M45.62 56.72c0-.16.46-.13.47 0 .05.71.27 2.64 0 2.65s-.46-1.94-.47-2.65z" fill="#fff"/><path d="M42.66 58.69c0-.18.46-.13.47 0 0 .81.14 3-.18 3s-.32-2.19-.29-3z" fill="#fff"/><path d="M49.12 60.17c0-.14.46-.1.47 0 0 .61.12 2.26-.19 2.27s-.31-1.66-.28-2.27z" fill="#fff"/><path d="M38 60.1c0-.14.48-.06.46 0-.07.6-.19 2.27-.5 2.25s-.1-1.65.04-2.25z" fill="#fff"/><path d="M31.82 59.28c0-.13.46-.11.47 0 0 .56.21 2.1-.1 2.11s-.38-1.55-.37-2.11z" fill="#fff"/><path d="M26.06 56.85c0-.13.47-.07.47 0 0 .59-.11 2.22-.42 2.2s-.11-1.61-.05-2.2z" fill="#fff"/><path d="M23.54 61.78c0-.16.44-.16.46-.05.12.69.53 2.58.22 2.62s-.6-1.87-.68-2.57z" fill="#fff"/><path d="M27.63 61.21c0-.12.47-.06.47 0 0 .52-.05 1.94-.36 1.93s-.2-1.41-.11-1.93z" fill="#fff"/><path d="M34 62.84c0-.12.47-.07.47 0 0 .52 0 1.94-.27 1.94s-.2-1.42-.2-1.94z" fill="#fff"/><path d="M29.65 63.07c0-.18.46-.15.47 0 .05.81.28 3 0 3s-.46-2.2-.47-3z" fill="#fff"/><path d="M25.69 66.18c0-.16.42-.2.45-.1.22.69.91 2.56.61 2.63s-.88-1.84-1.06-2.53z" fill="#fff"/><path d="M25.07 70.61c-.06-.2.4-.23.45-.1a6.53 6.53 0 0 0 .35.82l.12.24.14.24c.09.17.2.32.3.48l.3.43.25.36c.15.21.22.35.16.39s-.22-.05-.43-.23-.22-.2-.34-.33-.24-.28-.36-.43-.23-.32-.33-.49l-.15-.26-.13-.26a5.53 5.53 0 0 1-.33-.86z" fill="#fff"/><path d="M29.67 69.59c0-.15.42-.19.45-.09.2.63.81 2.35.51 2.42s-.81-1.69-.96-2.33z" fill="#fff"/><path d="M32 67.45c0-.12.46-.11.47 0 .05.5.27 1.88 0 1.9s-.42-1.35-.47-1.9z" fill="#fff"/><path d="M36.81 64.62c0-.09.47-.06.47 0 0 .39.08 1.46-.23 1.46s-.29-1.08-.24-1.46z" fill="#fff"/><path d="M41.18 62.58c0-.22.46-.16.47 0 0 1 .13 3.66-.18 3.67s-.32-2.69-.29-3.67z" fill="#fff"/><path d="M45.67 63c0-.15.46-.11.47 0 0 .65.12 2.42-.19 2.43s-.31-1.75-.28-2.43z" fill="#fff"/><path d="M52.8 62.44c0-.16.45-.15.46 0 .1.69.47 2.58.16 2.61s-.56-1.91-.62-2.61z" fill="#fff"/><path d="M49.42 65c0-.16.46-.13.47 0 0 .72.26 2.69 0 2.71s-.47-2.03-.47-2.71z" fill="#fff"/><path d="M52.61 67.48c0-.16.46-.14.47 0a3.26 3.26 0 0 1-.06.8l-.05.24-.08.24v.12l-.05.12-.11.23c0 .07-.09.14-.13.21a2.12 2.12 0 0 1-.14.19 3.37 3.37 0 0 1-.28.3c-.19.15-.33.23-.39.19s0-.17.11-.35.11-.2.19-.32.06-.12.1-.19l.1-.2.09-.21v-.22l.07-.22.05-.22a3.52 3.52 0 0 0 .11-.71z" fill="#fff"/><path d="M46.7 67.58c0-.12.48 0 .46.07-.13.52-.4 2-.7 1.9s.07-1.46.24-1.97z" fill="#fff"/><path d="M43.05 67c0-.13.48 0 .46 0-.09.59-.25 2.22-.56 2.19s-.03-1.56.1-2.19z" fill="#fff"/><path d="M38 67.38c0-.13.47-.07.47 0 0 .59-.05 2.21-.37 2.2S38 68 38 67.38z" fill="#fff"/><path d="M34.79 67.57c0-.16.47-.1.47 0 0 .69 0 2.59-.3 2.58s-.23-1.89-.17-2.58z" fill="#fff"/><path d="M33.34 72.55c0-.13.42-.19.45-.11.2.57.84 2.13.54 2.2s-.83-1.51-.99-2.09z" fill="#fff"/><path d="M29.42 75c-.07-.15.39-.22.43-.14a2 2 0 0 0 .36.5l.13.14.16.13.08.07.08.06.17.12.17.1.16.09.29.15c.17.08.28.15.27.21s-.16.07-.39 0a3.07 3.07 0 0 1-.37-.09l-.21-.08-.21-.1-.2-.12-.1-.07-.09-.07-.15-.18-.15-.16a2.1 2.1 0 0 1-.43-.56z" fill="#fff"/><path d="M38.67 72.25c0-.11.47-.08.47 0 0 .5.08 1.89-.23 1.89s-.29-1.39-.24-1.89z" fill="#fff"/><path d="M44.14 72.5c0-.19.48-.08.46.05-.14.85-.46 3.19-.76 3.15s.11-2.35.3-3.2z" fill="#fff"/><path d="M40.15 76.14c0-.09.47 0 .46 0-.05.42-.11 1.57-.42 1.55s-.14-1.13-.04-1.55z" fill="#fff"/><path d="M36.38 76c0-.14.44-.15.46-.06.11.59.49 2.2.18 2.24s-.58-1.59-.64-2.18z" fill="#fff"/><path d="M33.67 78.11c-.08-.06.22-.34.28-.31.36.21 1.39.74 1.2.95s-1.15-.4-1.48-.64z" fill="#fff"/><path d="M48.26 71.53c0-.17.48-.05.46.06-.14.73-.46 2.76-.77 2.72s.12-2.05.31-2.78z" fill="#fff"/><path d="M51.89 73.13c.05-.14.49 0 .46.07l-.08.3a2.74 2.74 0 0 1-.11.37l-.16.4v.1l-.05.1-.11.19c-.07.13-.14.25-.21.35l-.23.27c-.14.15-.25.23-.32.2s0-.16 0-.33a3 3 0 0 1 .14-.29l.16-.35.09-.19v-.19l.15-.38a3.17 3.17 0 0 0 .12-.35z" fill="#fff"/><path d="M46.72 76c.1-.1.44.15.38.22-.4.46-1.42 1.75-1.67 1.6s.86-1.4 1.29-1.82z" fill="#fff"/><path d="M41.23 70.89c0-.1.47-.05.47 0 0 .43 0 1.62-.3 1.61s-.23-1.18-.17-1.61z" fill="#fff"/><path d="M52.9 27a.9.9 0 0 1 1-.09.87.87 0 0 1 .34.7 2.06 2.06 0 0 1-.18.78c-.32.82-.87 2.22-1.4 2.22s-1.66-1.13-1.92-2.06a1.7 1.7 0 0 1-.05-1.06.87.87 0 0 1 .8-.62.92.92 0 0 1 .71.48 3.81 3.81 0 0 1 .28.84s.06-.91.42-1.19z" fill="#ea888a"/><path d="M29.55 26a.89.89 0 0 1 1 .58 1.87 1.87 0 0 1 0 1.19c-.26 1-1.15 2.35-1.65 2.39s-1.48-1.89-1.53-3.06a1.38 1.38 0 0 1 .07-.58.59.59 0 0 1 .42-.38.72.72 0 0 1 .7.45c.14.26.37.81.37.81a2.94 2.94 0 0 1 .08-.84.88.88 0 0 1 .54-.56z" fill="#ea888a"/><path d="M47.71 9.75a1 1 0 0 0-.31 0h-.3a1.17 1.17 0 0 0 .24-.12.72.72 0 0 0 .26-.31.32.32 0 0 0 0-.35.26.26 0 0 0-.26 0 1 1 0 0 0-.27.16 3.67 3.67 0 0 0-.52.49l.16-.25a1.43 1.43 0 0 0 .12-.37.72.72 0 0 0 0-.41c0-.13-.15-.24-.25-.24a.26.26 0 0 0-.21.15 1 1 0 0 0-.1.3 3.28 3.28 0 0 0-.06 1.2 6.2 6.2 0 0 0 .7.26 1.43 1.43 0 0 0 .38.07.72.72 0 0 0 .4-.1.32.32 0 0 0 .17-.31.26.26 0 0 0-.15-.17z" fill="#544e48" fill-rule="evenodd"/><path d="M43.32 15.53h-.69a.9.9 0 0 0 0-.15v-2.97c0-.48.05-1 0-1.49 0-.09-.08-.36-.08-.46s-.19-.13-.18.22 0 .45 0 .76v1c0 .33.06.91.07 1.33s0 1.08.06 1.46a.8.8 0 0 0-.14-.2.49.49 0 0 0-.16-.08h-.16a.67.67 0 0 0-.26 0h-.17v.08c0 .08 0 .09.07.09H42a1.08 1.08 0 0 1 .22.14v.06a.62.62 0 0 0-.16-.05h-.93s0 .17.1.16a3.44 3.44 0 0 1 .45-.08h.53-.22l-.23.06-.23.09-.19.08h-.11s0 .19.14.14a5.53 5.53 0 0 1 .67-.21h1.42c.04 0 .01.04-.14.02z" fill="#3f3933" fill-rule="evenodd"/><path d="M40.42 15.5l-.14-.06-.18-.06h-.21a1.3 1.3 0 0 0 0-.15c0-.47-.07-1.39-.09-1.86s0-1-.06-1.55 0-1.15 0-1.71c0-.11-.09-.41-.1-.52s-.19-.14-.18.25v2.04c0 .4.09 1 .11 1.52s.08 1.31.11 1.73h-.1a.48.48 0 0 0-.12-.08h-.84s0 .17.06.18a2.44 2.44 0 0 1 .38 0h.15l.15.06a.48.48 0 0 1 .14.11h-.69l-.24.07-.19.07h-.11s0 .19.13.15h.64l-.09.07-.12.09-.11.11-.08.1v.05s.07.16.16.1.23-.21.32-.26l.15-.08.16-.07a.59.59 0 0 1 .19 0h.34l.15.06h.36c.04 0 .09-.3-.05-.36z" fill="#3f3933" fill-rule="evenodd"/><path d="M37.89 4.26a15.26 15.26 0 0 0-.41 3.47 5 5 0 0 0 1 3.57A4.81 4.81 0 0 0 41 12.63a5.64 5.64 0 0 0 3.45-.3 2.85 2.85 0 0 0 1.8-2.41 7.09 7.09 0 0 1-1.4-.06 2.13 2.13 0 0 1-1.19-.57 2.13 2.13 0 0 1-.44-1.44A23.47 23.47 0 0 0 43 3.49a2.55 2.55 0 0 0-1.39-2 2.63 2.63 0 0 0-2.6.54 3.24 3.24 0 0 0-.72.94c-.06.11.33.37.28.49s-.53.1-.57.22-.07.4-.11.58z" fill="#00aece"/><path d="M41.11 7.41a1.35 1.35 0 0 0-.5 1 2.17 2.17 0 0 0 4.21.84 1.57 1.57 0 0 1-.93-.78 3.55 3.55 0 0 0-.75-1A1.92 1.92 0 0 0 42 7.19a1.5 1.5 0 0 0-.89.22z" fill="#ffc152"/><path d="M38.29 4.38v.39h.13v-.39h-.13z" fill="#c6e058"/><path d="M38.75 4.76v.39h.13v-.39h-.13z" fill="#c6e058"/><path d="M38.12 5.22v.34h.13V5.2h-.13z" fill="#c6e058"/><path d="M37.74 6.36v.34h.13v-.37h-.13z" fill="#c6e058"/><path d="M38.67 5.72V6h.13v-.3h-.13z" fill="#c6e058"/><path d="M38.18 6.13l.09.52h.13l-.09-.52h-.13z" fill="#c6e058"/><path d="M39.37 5.36v.25c0 .05.13 0 .13 0v-.26c0-.05-.13 0-.13 0z" fill="#c6e058"/><path d="M39 6.27v.47c0 .05.13 0 .13 0v-.48c0-.05-.13 0-.13 0z" fill="#c6e058"/><path d="M38.55 7.19v.37h.13v-.4h-.13z" fill="#c6e058"/><path d="M38 7.17v.3h.13v-.3H38z" fill="#c6e058"/><path d="M37.79 8.08v.39h.13v-.39h-.13z" fill="#c6e058"/><path d="M38.49 7.91v.34h.13v-.37h-.13z" fill="#c6e058"/><path d="M39.16 7.34v.49h.13v-.52h-.13z" fill="#c6e058"/><path d="M38.84 8.61v.32c0 .06.13 0 .13 0v-.32c0-.06-.13 0-.13 0z" fill="#c6e058"/><path d="M38.22 8.79l.06.42h.13l-.06-.42h-.13z" fill="#c6e058"/><path d="M37.71 9.11l.12.3h.13l-.12-.3h-.13z" fill="#c6e058"/><path d="M38 9.83l.17.47h.13l-.17-.47H38z" fill="#c6e058"/><path d="M38.43 9.58l.09.32h.13l-.09-.32h-.13z" fill="#c6e058"/><path d="M39.11 9.52v.37c0 .05.13 0 .13 0v-.38c0-.05-.13 0-.13 0z" fill="#c6e058"/><path d="M38.58 10.56l.2.39h.13l-.2-.39h-.13z" fill="#c6e058"/><path d="M42.5.48a.16.16 0 0 0-.18.17.24.24 0 0 0 0 .14 1.93 1.93 0 0 0-.49.32 2.09 2.09 0 0 1 0-.63q.17.03.17-.17a.23.23 0 0 0-.18-.22.16.16 0 0 0-.18.17.23.23 0 0 0 .08.18c-.11.14-.24.3-.37.46a3.09 3.09 0 0 0-.14-.38l-.02-.15a.2.2 0 0 0 .05-.15.23.23 0 0 0-.17-.22.16.16 0 0 0-.18.17.22.22 0 0 0 .18.23v.98a1.8 1.8 0 0 0 1 .33l.42-.87a.19.19 0 0 0 .1 0q.16 0 .17-.18a.23.23 0 0 0-.26-.18z" fill="#ffc152"/><path d="M38.65 3A4.81 4.81 0 0 1 36.88.35a3.27 3.27 0 0 0 1.55 3.13A3.11 3.11 0 0 0 36 4.81a6 6 0 0 1 2.51-1c.12 0 .55-.07.6-.31s-.34-.4-.46-.5z" fill="#f93e48"/><path d="M39.51 3.18a.75.75 0 0 1 .49-.73 1.34 1.34 0 0 1 .85 0 .72.72 0 0 1 .46.27.66.66 0 0 1 .09.43c-.1.92-.91.76-1.2.67a1.3 1.3 0 0 1-.43-.21.64.64 0 0 1-.26-.43z" fill="#f7ece4"/><path d="M39.82 3.29a.85.85 0 0 0 .18-.23.7.7 0 0 1-.12-.18c0-.09.13-.1.16 0a.5.5 0 0 0 .92 0c0-.07.19 0 .15.08a.66.66 0 0 1-.17.22l.14.22v.06a.1.1 0 0 1-.1 0l-.1-.17h-.06a1 1 0 0 1 0 .3c0 .07-.16 0-.15 0a.84.84 0 0 0 0-.22.7.7 0 0 1-.21 0 .92.92 0 0 1-.06.25c0 .07-.17 0-.15 0a.87.87 0 0 0 .06-.25l-.16-.08a.91.91 0 0 1-.13.19c-.11-.07-.25-.13-.2-.19z" fill="#544e48"/><path d="M37.34 3.15a.56.56 0 0 1-.21-.3c0-.12-.06-.24-.1-.35a.52.52 0 0 0-.22-.29.27.27 0 0 0-.34.05.33.33 0 0 0 0 .31.37.37 0 0 0-.2 0 .2.2 0 0 0-.15.12.21.21 0 0 0 .05.21.51.51 0 0 0 .19.12 2.05 2.05 0 0 0 .98.13z" fill="#ae83b7"/><path d="M35 1.26a.39.39 0 0 1 0-.25c0-.09 0-.17.05-.25a.37.37 0 0 0 0-.25.19.19 0 0 0-.22-.08.23.23 0 0 0-.12.19.26.26 0 0 0-.11-.08.14.14 0 0 0-.13 0 .15.15 0 0 0 0 .14.36.36 0 0 0 .08.14 1.44 1.44 0 0 0 .45.44z" fill="#ae83b7"/><path d="M35.79.86a.2.2 0 0 0-.1.22.49.49 0 0 0 .15.28 1 1 0 0 0 .27.17 1.81 1.81 0 0 0 .36.12 1.45 1.45 0 0 1-.1-.65.67.67 0 0 0 0-.21.17.17 0 0 0-.14-.14.17.17 0 0 0-.16.1A.5.5 0 0 0 36 1c0-.1-.12-.17-.21-.14z" fill="#ae83b7"/><path d="M35.1 2.43h.08a.41.41 0 0 1-.09-.17.39.39 0 0 0-.09-.21.17.17 0 0 0-.19 0 .18.18 0 0 0 0 .17h-.15a.1.1 0 0 0 0 .16.32.32 0 0 0 .18.09 1.07 1.07 0 0 0 .26-.04z" fill="#ae83b7"/><path d="M49.95 30.21c-.08-.12-.55.08-.51.14a1.94 1.94 0 0 1 .24.5 32.91 32.91 0 0 1-9.28 1l.16-2.85c0-.27-.5-.19-.52 0l-.17 2.81a32.59 32.59 0 0 1-4.29-.5 12.27 12.27 0 0 1-4.31-1.43.72.72 0 0 1 .36-.28c.31-.11.21-.49-.1-.38-.89.31-1 1.19-1 2 0 .28.53.21.52 0a3.9 3.9 0 0 1 .06-1 13 13 0 0 0 4 1.29 33.11 33.11 0 0 0 5 .56 33.32 33.32 0 0 0 9.63-1.06 1.83 1.83 0 0 1-.07.81c0 .09.47 0 .5-.09a1.88 1.88 0 0 0-.22-1.52z"/><path d="M36.68 33.67a17.21 17.21 0 0 0 7.23.14c.13 0 .38-.08.45-.22s-.27-.1-.31-.09a16 16 0 0 1-6.74-.15.86.86 0 0 0-.54.09c-.06 0-.27.17-.09.21z"/></g></g></svg>