<svg xmlns="http://www.w3.org/2000/svg" viewBox="-0.00820016860961914 0 65.0082015991211 52.88999938964844"><title>Depositphotos_101223040_01</title><g data-name="Layer 2"><g data-name="Layer 1"><g data-name="Layer 2"><path fill="#fdf7c6" d="M64.5 31.54H.51V.5h63.78l.21 31.04z"/><path d="M64.5 32H.51a.5.5 0 0 1-.5-.5V.5a.5.5 0 0 1 .5-.5h63.78a.5.5 0 0 1 .5.5l.21 31a.5.5 0 0 1-.5.5zM1 31h63l-.21-30H1z" fill="#6d6e71"/><path fill="#fdf7c6" d="M64.49 31.53H.5v20.86h63.78l.21-20.86z"/><path d="M64.28 52.89H.5a.5.5 0 0 1-.5-.5V31.53A.5.5 0 0 1 .47 31h64a.5.5 0 0 1 .5.5l-.21 20.86a.5.5 0 0 1-.47.53zM1 51.89h62.78L64 32H1z" fill="#6d6e71"/><path d="M64.2 37.08H.5a.5.5 0 0 1 0-1h63.7a.5.5 0 0 1 0 1z" fill="#6d6e71"/><path d="M64.2 42.46H.5a.5.5 0 0 1 0-1h63.7a.5.5 0 0 1 0 1z" fill="#6d6e71"/><path d="M64.2 47.85H.5a.5.5 0 0 1 0-1h63.7a.5.5 0 0 1 0 1z" fill="#6d6e71"/><path d="M22.44 11H8.54a.5.5 0 0 1 0-1h13.9a.5.5 0 0 1 0 1z" fill="#6d6e71"/><path d="M56.47 11h-13.9a.5.5 0 0 1 0-1h13.9a.5.5 0 1 1 0 1z" fill="#6d6e71"/><circle cx="31.7" cy="10.46" r="4.7" fill="#a3ddf2"/><path d="M31.7 15.66a5.2 5.2 0 1 1 5.2-5.2 5.2 5.2 0 0 1-5.2 5.2zm0-9.4a4.2 4.2 0 1 0 4.2 4.2 4.2 4.2 0 0 0-4.2-4.2z" fill="#6d6e71"/><path d="M49.76 21.12H15.25a.5.5 0 1 1 0-1h34.5a.5.5 0 0 1 0 1z" fill="#a3ddf2"/><path d="M42.31 26.09H22.7a.5.5 0 0 1 0-1h19.61a.5.5 0 0 1 0 1z" fill="#f58e93"/></g></g></g></svg>