<svg xmlns="http://www.w3.org/2000/svg" viewBox="-1.0500001907348633 -0.3000001907348633 77.66765594482422 161.9384765625"><title>Depositphotos_74833975_31</title><g data-name="Layer 2"><g data-name="forest animals"><path d="M34.83 53.44a2.34 2.34 0 0 1 .17-.64 1.22 1.22 0 0 1 .31-.39.87.87 0 0 1 .79-.16 1.18 1.18 0 0 1 .68.55 1.45 1.45 0 0 1 .11.23 1.54 1.54 0 0 1 .07.26 1.57 1.57 0 0 1 0 .57 23.37 23.37 0 0 1-1.36 4.44c-.34.81-.73 1.64-1.16 2.49s-.88 1.71-1.44 2.55l-.79 1.29c-.13.22-.27.43-.41.64l-.42.64-1.68 2.58c-.57.86-1.09 1.72-1.62 2.58a21.63 21.63 0 0 0-1.39 2.54 8.91 8.91 0 0 0-.69 2.46 5.65 5.65 0 0 0 .15 2.25 4.72 4.72 0 0 0 1 1.75 7.46 7.46 0 0 0 1.48 1.24 28.36 28.36 0 0 0 2.7 1.43c.68.34 1 .61 1 .78s-.5.22-1.27.12a10.86 10.86 0 0 1-1.4-.27 10.62 10.62 0 0 1-1.81-.65 8 8 0 0 1-2-1.34l-.25-.23c-.08-.08-.16-.17-.24-.26l-.23-.27-.21-.3a5.58 5.58 0 0 1-.4-.64 3 3 0 0 1-.17-.35l-.16-.33a7.44 7.44 0 0 1-.39-3.15 10.64 10.64 0 0 1 .82-3.14c.2-.5.44-1 .69-1.45s.5-.93.77-1.37c.54-.89 1.07-1.81 1.64-2.67l1.68-2.58.41-.63c.14-.21.28-.42.4-.63l.79-1.27c.52-.81 1-1.62 1.4-2.4s.79-1.55 1.12-2.29a21.72 21.72 0 0 0 1.31-3.98z" fill="#42291c"/><path d="M13.88 24.16a4.85 4.85 0 0 0 3.07 2.52 7.4 7.4 0 0 0 4-.08 16 16 0 0 0 3.72-1.69 2.44 2.44 0 0 0 .89-.74 2.54 2.54 0 0 0 .14-1.74 6.93 6.93 0 0 0-4.65-.83 14.19 14.19 0 0 0-3 1.48 4 4 0 0 1-3.23.48 2.44 2.44 0 0 0-.53-.18.5.5 0 0 0-.5.18.65.65 0 0 0 .09.6z" fill="#42291c"/><path d="M57.17 155.33a2.52 2.52 0 0 0 2.12-1.42 7.18 7.18 0 0 0 .65-2.59c1-8.28 0-16.65-.4-25h2.23a113.28 113.28 0 0 1 .06 28.76 8.8 8.8 0 0 1-2.18 4.58 5.34 5.34 0 0 1-4.65 1.68 3.87 3.87 0 0 1-3.19-3.52 3 3 0 0 1 3.34-3 12.76 12.76 0 0 0 2.02.51z" fill="#42291c"/><path d="M36.39 154.85a12.42 12.42 0 0 1-1.12 4 4.69 4.69 0 0 1-3.14 2.52 3.52 3.52 0 0 1-1.31-6.91 4.55 4.55 0 0 0 1.88-.46 2.75 2.75 0 0 0 .85-1.65c1.6-6.61 2.32-28.29 2.32-28.29l1.15-.16s.98 20.72-.63 30.95z" fill="#42291c"/><path d="M17 13c1.38 0 1.25-10.16 3.6-9.62s.15 6.34-.16 8.36c-.4 2.54.61 6.62 5.75 7.79.86.2.64 1.92-.36 2-2.39-.38-10-.86-16.2-2.19-2.5-.54-5.19-1.07-7-2.83C-1.05 13-.52-.3 2.13 0S2.86 11 5 11.18 5 .29 7.65.59 9.29 12.34 11.1 12.2s1.4-9.74 4.15-9.47S15.6 13.08 17 13z" fill="#ea888a"/><path d="M71.71 127.84a9.14 9.14 0 0 0 2.09-2.64 32.72 32.72 0 0 0 1.65-5.76c.14-1.16.22-2.33.26-3.47a174.42 174.42 0 0 0-10.35-66.56c-2.82-7.74-6.38-15.55-12.58-21-6.84-6-16.69-12.51-27-8.89-3.63 1.28-6.62 8.94-10 10.69S4.88 37 6.26 43.48s11.08 9.29 19.49 5.61 8-16.6 10.57-13.89S25.33 89 22.41 116.35c-.34 3.22-.64 6.66.9 9.5 2.41 4.43 8.18 5.55 13.21 5.9a129 129 0 0 0 27-1c2.9-.41 5.96-.99 8.19-2.91z" fill="#604330"/><path d="M33.25 26.84a1.24 1.24 0 0 0-.34-.89 1.73 1.73 0 0 0-1.14-.35 1.52 1.52 0 0 0-.79.12 1.35 1.35 0 0 0-.53 1.3 1.81 1.81 0 0 0 .28 1 1.35 1.35 0 0 0 1.65.37 1.68 1.68 0 0 0 .87-1.55z" fill="#fff"/><path d="M21 25.51a1.1 1.1 0 0 1 .3-.79 1.54 1.54 0 0 1 1-.31 1.35 1.35 0 0 1 .71.1 1.2 1.2 0 0 1 .47 1.15 1.61 1.61 0 0 1-.25.86 1.2 1.2 0 0 1-1.46.33 1.49 1.49 0 0 1-.77-1.34z" fill="#fff"/><path d="M31.32 26.86c-.87.62.56 1.94 1.22.91.46-.77-.64-1.32-1.22-.91z"/><path d="M22.24 26c.09.61.83.55 1 0 .33-.86-1.12-.78-1 0z"/><path d="M47.93 25.57a4.85 4.85 0 0 1-3.07 2.52 7.4 7.4 0 0 1-4-.08 16 16 0 0 1-3.72-1.69 2.44 2.44 0 0 1-.89-.74 2.54 2.54 0 0 1-.14-1.74A6.93 6.93 0 0 1 40.7 23a14.19 14.19 0 0 1 3 1.48A4 4 0 0 0 47 25a2.45 2.45 0 0 1 .53-.18.5.5 0 0 1 .47.18.65.65 0 0 1-.07.57z" fill="#42291c"/><path d="M45 13.28c-1.5-.17-.54-11.28-3.16-10.89s-.69 7-.5 9.2c.23 2.82-1.21 7.23-7 8.1-1 .15-.86 2.06.23 2.18 2.66-.22 11-.13 18-1.09 2.79-.39 5.79-.75 8-2.54 4.28-3.51 4.77-18.17 1.84-18s-1.7 12-4 12.05S59.24.27 56.3.38s-2.76 12.79-4.74 12.49S50.81 2 47.77 2.13 46.55 13.46 45 13.28z" fill="#ea888a"/><path d="M46.3 26.89a6.59 6.59 0 0 1-4.88.77 8.22 8.22 0 0 1-4.84-2.43 7.11 7.11 0 0 1 4.59-.06c.65.21 1.27.52 1.93.69a9.45 9.45 0 0 0 4.32-.36c.44-.24-.22.79-1.12 1.39z" fill="#72543f"/><path d="M30.68 23.86c.72-1.13 2.13-.54 2.38.6.05.24.71.07.66-.18a2 2 0 0 0-3.65-.46c-.17.27.49.22.61 0z"/><path d="M22.49 22.25c.88-1.09 2.25 0 2.2 1.11 0 .27.65.13.65-.08.08-2-2.37-2.38-3.46-1-.18.22.48.17.61 0z"/><path d="M26.49 45.45a3.87 3.87 0 0 0-.1-2.08 12 12 0 0 0-5.39-6.9 19.72 19.72 0 0 0-8.52-2.62 13.8 13.8 0 0 0-1.93-.06c-2.75 2.44-5.09 5.79-4.26 9.69 1 4.77 6.48 7.53 12.64 7.23a21.93 21.93 0 0 0 5.8-3.14 4.41 4.41 0 0 0 1.76-2.12z" fill="#e5c8a5"/><path d="M28.89 42.61c.23-.51 2.21-5.82 1.39-6-.19 0-2.25 5.37-2.63 6a16.22 16.22 0 0 1-5.45 5.78 14.75 14.75 0 0 1-4.42 1.83 18.45 18.45 0 0 1-2.74.18 18.27 18.27 0 0 0 5.94 0 15.72 15.72 0 0 0 7.91-7.89z"/><path d="M47.52 46.2c-2.85-3.24-7-5.79-11.15-5.91-1.48 12-8.79 42.16-12.43 64.93a19.51 19.51 0 0 0 1.53 2.13 14.34 14.34 0 0 0 8.43 5.17c5.16.88 10.36-1.84 14-5.61a33 33 0 0 0 8.19-17 66.52 66.52 0 0 0 .27-19c-.95-8.85-2.96-18.04-8.84-24.71z" fill="#72543f"/><path d="M19 40.77a1 1 0 0 0-.86.36A9.1 9.1 0 0 0 15.29 46c-.07.31-.09.71.18.88s.65 0 .92-.26a12.94 12.94 0 0 0 2.19-2.08 4.35 4.35 0 0 0 1-2.8c-.02-.41-.19-.88-.58-.97z" fill="#ceaa84"/><path d="M51.55 36.22c-.1-.15.26-.39.34-.29l.23.29a4.43 4.43 0 0 1 .28.36 7.2 7.2 0 0 1 .54.86c.08.15.16.29.21.42s.1.26.13.37.08.36 0 .39-.18-.07-.3-.25-.13-.2-.2-.32l-.25-.38c-.16-.28-.36-.55-.53-.82s-.18-.25-.26-.36z" fill="#9b613a"/><path d="M54.55 41c-.06-.18.35-.3.41-.17s.21.5.31.83l.08.26.07.27c0 .18.08.36.11.54s0 .35.06.5 0 .3 0 .42-.06.39-.13.4-.14-.14-.19-.37-.06-.25-.09-.39l-.1-.47c0-.16-.07-.34-.12-.51l-.07-.31-.07-.24c-.1-.32-.2-.6-.27-.76z" fill="#9b613a"/><path d="M56.45 37.5c-.05-.14.35-.29.4-.19a6.22 6.22 0 0 1 .27.66l.07.2.06.21c0 .14.06.29.09.43s0 .28 0 .4a2.74 2.74 0 0 1 0 .34c0 .19-.07.31-.15.31s-.13-.11-.18-.29-.05-.19-.07-.31l-.08-.37c0-.13-.06-.26-.1-.39l-.05-.2-.06-.19c-.06-.24-.14-.46-.2-.61z" fill="#9b613a"/><path d="M49.77 42.11c-.11-.2.3-.36.38-.22.51.88 2 3.24 1.72 3.39s-1.62-2.28-2.1-3.17z" fill="#9b613a"/><path d="M58.59 42.89c-.06-.14.33-.32.39-.21a5.06 5.06 0 0 1 .31.67l.08.21.06.22a4.13 4.13 0 0 1 .09.45v.42a2.76 2.76 0 0 1 0 .35c0 .2-.09.32-.16.31s-.13-.12-.16-.31 0-.2-.07-.32l-.08-.38c0-.13-.06-.27-.1-.4l-.06-.2-.07-.19a6.43 6.43 0 0 0-.23-.62z" fill="#9b613a"/><path d="M55 47.13c0-.12.4-.21.42-.13.15.51.64 1.9.36 2s-.65-1.34-.78-1.87z" fill="#9b613a"/><path d="M51.54 48.64c-.07-.16.35-.3.4-.19.33.68 1.31 2.52 1 2.65s-1.1-1.76-1.4-2.46z" fill="#9b613a"/><path d="M59.36 48.5c0-.13.39-.23.42-.14.19.58.79 2.14.51 2.24s-.78-1.51-.93-2.1z" fill="#9b613a"/><path d="M62.26 45.42c-.09-.14.29-.36.36-.26a7.63 7.63 0 0 1 .43.64l.12.2.11.21c.08.14.14.29.2.44s.1.29.14.42a3.32 3.32 0 0 1 .08.36c0 .21 0 .35-.06.37s-.32-.44-.58-1c-.07-.13-.13-.27-.2-.4l-.1-.2-.12-.2c-.14-.21-.28-.43-.38-.58z" fill="#9b613a"/><path d="M57.45 51.61c0-.18.39-.25.43-.12.23.8.92 3 .63 3s-.88-2.07-1.06-2.88z" fill="#9b613a"/><path d="M54.55 53.3c0-.16.38-.26.42-.15.24.67 1 2.49.7 2.59s-.91-1.74-1.12-2.44z" fill="#9b613a"/><path d="M58 57.73c0-.15.41-.2.43-.09.14.66.6 2.44.31 2.5s-.69-1.75-.74-2.41z" fill="#9b613a"/><path d="M63.19 51.06c0-.14.43-.15.44-.05.07.6.34 2.25 0 2.29s-.41-1.63-.44-2.24z" fill="#9b613a"/><path d="M61 53.75c-.07-.17.34-.32.4-.2a8 8 0 0 1 .35.78l.09.24.08.25c.06.17.09.34.13.51s.06.33.07.48a3.84 3.84 0 0 1 0 .4c0 .23 0 .38-.12.38s-.14-.13-.2-.34-.07-.23-.1-.37l-.12-.44c0-.15-.08-.32-.14-.47l-.07-.24-.08-.23c-.12-.3-.23-.57-.29-.75z" fill="#9b613a"/><path d="M65.44 55.61c-.05-.16.36-.28.41-.17.28.68 1.12 2.52.85 2.63s-1.02-1.76-1.26-2.46z" fill="#9b613a"/><path d="M63.47 58.69c0-.16.4-.23.43-.12.19.68.79 2.53.5 2.61s-.78-1.8-.93-2.49z" fill="#9b613a"/><path d="M60.95 60.49c0-.17.39-.23.43-.12.21.72.85 2.67.56 2.75s-.83-1.9-.99-2.63z" fill="#9b613a"/><path d="M56.95 61.53c0-.12.44-.11.44 0 0 .54.2 2-.1 2s-.36-1.46-.34-2z" fill="#9b613a"/><path d="M60.29 64.25c0-.12.42-.16.43-.08.1.51.44 1.9.15 2s-.53-1.4-.58-1.92z" fill="#9b613a"/><path d="M64.53 63.27c0-.16.42-.18.44-.07.11.68.5 2.54.21 2.59s-.58-1.79-.65-2.52z" fill="#9b613a"/><path d="M67.47 60.31c0-.14.36-.28.41-.18a5.81 5.81 0 0 1 .25.68l.06.21v.22c0 .15.05.3.07.44s0 .28 0 .41a2.77 2.77 0 0 1 0 .34c0 .19-.09.31-.16.31s-.13-.12-.16-.31 0-.2-.06-.32l-.06-.38c0-.13 0-.27-.08-.4v-.2l-.05-.19c-.08-.25-.16-.47-.22-.63z" fill="#9b613a"/><path d="M66.82 65.21c0-.17.38-.27.42-.14a7 7 0 0 1 .23.81l.05.25v1.26a3.69 3.69 0 0 1-.05.4c-.05.22-.12.36-.19.35s-.11-.15-.13-.37 0-.24 0-.38v-.45c0-.16 0-.32-.06-.48v-.24L67 66c0-.33-.12-.6-.18-.79z" fill="#9b613a"/><path d="M63 67.43c0-.1.42-.15.43-.08.08.42.38 1.57.09 1.63S63 67.86 63 67.43z" fill="#9b613a"/><path d="M58.17 67.09c0-.18.4-.24.43-.11l.09.36c0 .14.08.29.1.45a8.07 8.07 0 0 1 .13 1v.86c0 .11-.07.36-.15.36s-.13-.14-.18-.35 0-.24-.06-.38 0-.29-.07-.45c0-.32-.1-.66-.14-1 0-.16-.06-.3-.08-.43z" fill="#9b613a"/><path d="M61.16 70.85c0-.22.4-.25.43-.1.22.94.89 3.49.6 3.56s-.86-2.51-1.03-3.46z" fill="#9b613a"/><path d="M65.48 71.63c0-.13.43-.13.44 0 0 .59.24 2.21 0 2.23s-.44-1.64-.44-2.23z" fill="#9b613a"/><path d="M68.79 67.7c0-.16.39-.25.42-.14l.1.33a3.49 3.49 0 0 1 .11.41l.09.46v1.28c0 .1-.09.33-.16.33s-.13-.13-.16-.33 0-.22 0-.35 0-.27-.06-.41v-.44c0-.15-.06-.3-.08-.44a3.9 3.9 0 0 0-.09-.39z" fill="#9b613a"/><path d="M69.16 72.69c0-.15.43-.15.44 0 .07.67.35 2.49.05 2.53s-.46-1.85-.49-2.53z" fill="#9b613a"/><path d="M59 74.32c0-.19.42-.19.44-.06.11.84.49 3.12.2 3.16s-.57-2.26-.64-3.1z" fill="#9b613a"/><path d="M63.86 75.88c0-.14.43-.13.44 0 0 .6.25 2.26 0 2.28s-.44-1.67-.44-2.28z" fill="#9b613a"/><path d="M67.71 76.61c0-.16.42-.17.44-.06.1.69.45 2.59.16 2.63s-.54-1.87-.6-2.57z" fill="#9b613a"/><path d="M71.6 77c0-.2.43-.16.44 0 .05.86.27 3.22 0 3.24s-.43-2.41-.44-3.24z" fill="#9b613a"/><path d="M69.87 80c0-.15.42-.16.44-.06.09.67.41 2.49.12 2.53s-.51-1.75-.56-2.47z" fill="#9b613a"/><path d="M65.79 80c0-.15.44-.12.44 0 0 .66.16 2.45-.13 2.46s-.33-1.78-.31-2.46z" fill="#9b613a"/><path d="M62.11 79.26c0-.14.45-.08.44 0 0 .63 0 2.36-.33 2.35s-.22-1.73-.11-2.35z" fill="#9b613a"/><path d="M58.85 82c0-.2.45-.11.44 0 0 .87-.11 3.27-.4 3.26s-.13-2.35-.04-3.26z" fill="#9b613a"/><path d="M63.65 82.83c0-.15.44-.13.44 0 0 .64.22 2.4-.07 2.42s-.38-1.78-.37-2.42z" fill="#9b613a"/><path d="M68 82.76c0-.13.44-.1.44 0 0 .58.14 2.16-.16 2.17s-.35-1.59-.28-2.17z" fill="#9b613a"/><path d="M72.09 84.61c0-.14.44-.1.44 0 0 .6.12 2.26-.18 2.26s-.29-1.66-.26-2.26z" fill="#9b613a"/><path d="M61.59 86.14c0-.13.45-.06.44 0 0 .57 0 2.12-.34 2.1s-.18-1.54-.1-2.1z" fill="#9b613a"/><path d="M65.68 87.07c0-.16.45-.11.44 0v.74a6.63 6.63 0 0 1-.12.9c0 .15-.06.29-.1.41s-.08.24-.12.33-.16.29-.23.27-.09-.15-.08-.35 0-.21 0-.33v-.4c0-.14.07-.58.1-.86s0-.27 0-.39.1-.24.11-.32z" fill="#9b613a"/><path d="M69.42 86.9c0-.12.44-.1.44 0 0 .53.17 2-.13 2s-.33-1.47-.31-2z" fill="#9b613a"/><path d="M73.33 90.68c0-.19.44-.12.44 0 0 .82 0 3.08-.26 3.08s-.23-2.26-.18-3.08z" fill="#9b613a"/><path d="M69.93 91c0-.1.45 0 .44 0 0 .45-.1 1.69-.4 1.66s-.13-1.21-.04-1.66z" fill="#9b613a"/><path d="M64.16 91.6c0-.18.46 0 .44.08-.15.81-.49 3-.78 3s.18-2.28.34-3.08z" fill="#9b613a"/><path d="M59.21 91.05c0-.14.44-.1.44 0 0 .63.07 2.36-.22 2.36s-.26-1.73-.22-2.36z" fill="#9b613a"/><path d="M68.46 95.17c0-.1.44-.06.44 0 0 .46 0 1.73-.26 1.73s-.24-1.27-.18-1.73z" fill="#9b613a"/><path d="M72 97c0-.16.44-.11.44 0 0 .71.1 2.64-.19 2.65S72 97.67 72 97z" fill="#9b613a"/><path d="M67.06 92.06c0-.13.45 0 .44.07-.09.58-.27 2.17-.56 2.13s-.01-1.63.12-2.2z" fill="#9b613a"/><path d="M61.08 96.54c.08-.17.46 0 .41.16-.3.78-1.05 3-1.33 2.85s.58-2.24.92-3.01z" fill="#9b613a"/><path d="M57.51 97.15c0-.13.45 0 .43.09-.12.59-.39 2.23-.68 2.17s.08-1.68.25-2.26z" fill="#9b613a"/><path d="M66.71 100c0-.14.45 0 .44 0-.06.62-.17 2.32-.46 2.29s-.09-1.71.02-2.29z" fill="#9b613a"/><path d="M73.95 102.9c0-.15.44-.1.44 0 0 .67.07 2.5-.22 2.5s-.27-1.84-.22-2.5z" fill="#9b613a"/><path d="M71.26 103.21c0-.21.46-.1.44 0-.1.93-.31 3.47-.61 3.44s.02-2.52.17-3.44z" fill="#9b613a"/><path d="M63.83 99c0-.19.46 0 .43.08-.16.84-.51 3.14-.8 3.08s.17-2.3.37-3.16z" fill="#9b613a"/><path d="M65.79 95.56c0-.12.45 0 .44.05-.06.53-.17 2-.46 1.95s-.09-1.48.02-2z" fill="#9b613a"/><path d="M68 105.23c.06-.14.45.05.42.15-.23.63-.78 2.37-1.06 2.27s.4-1.81.64-2.42z" fill="#9b613a"/><path d="M63.62 105.16c.06-.16.46 0 .43.11l-.1.34a4.29 4.29 0 0 1-.13.43 7 7 0 0 1-.39.91c-.08.14-.14.28-.22.4l-.23.31c-.14.17-.25.26-.31.22s0-.18 0-.38.09-.22.14-.34l.17-.41c.13-.28.24-.59.36-.88s.1-.28.14-.4z" fill="#9b613a"/><path d="M60.29 102.62c.06-.19.47 0 .43.12a7.35 7.35 0 0 1-.29.88l-.11.26-.13.26c-.08.18-.19.34-.28.5s-.21.3-.31.43a4.33 4.33 0 0 1-.29.32c-.19.17-.33.25-.38.2s0-.2.13-.41.13-.23.21-.36l.25-.43c.08-.16.18-.31.25-.48l.12-.24.1-.24c.13-.31.23-.6.3-.81z" fill="#9b613a"/><path d="M55.63 102.1c.07-.16.46 0 .41.15a6 6 0 0 1-.34.77l-.12.22-.14.22a5 5 0 0 1-.31.42c-.11.13-.22.25-.33.35a3.56 3.56 0 0 1-.31.25c-.19.13-.33.18-.38.12s0-.19.16-.36l.23-.3.27-.36c.09-.13.19-.26.27-.4l.13-.2.12-.21a7.36 7.36 0 0 0 .34-.67z" fill="#9b613a"/><path d="M56.16 106.95c.11-.2.46.06.39.2-.45.89-1.62 3.35-1.88 3.22s1-2.56 1.49-3.42z" fill="#9b613a"/><path d="M61 109.56c.08-.19.46 0 .41.15-.32.86-1.13 3.25-1.41 3.15s.61-2.45 1-3.3z" fill="#9b613a"/><path d="M66.31 110.63c.06-.15.46 0 .42.14-.23.69-.79 2.62-1.07 2.53s.34-1.99.65-2.67z" fill="#9b613a"/><path d="M73.56 107.93c0-.16.45-.07.44 0-.06.71-.15 2.65-.44 2.63s-.1-1.93 0-2.63z" fill="#9b613a"/><path d="M70.57 112.26c.05-.18.46 0 .43.1-.19.82-.62 3.1-.91 3s.25-2.28.48-3.1z" fill="#9b613a"/><path d="M73.25 115.95c.06-.16.46 0 .43.11l-.1.34c0 .13-.07.28-.13.42a7.28 7.28 0 0 1-.37.91c-.07.14-.14.28-.21.41l-.22.31c-.13.17-.24.26-.3.23s0-.18 0-.38.08-.22.13-.34.1-.27.16-.41.23-.6.34-.88.09-.28.14-.4z" fill="#9b613a"/><path d="M66.83 117.18c.07-.16.46 0 .42.14a6.94 6.94 0 0 1-.31.79l-.11.23-.13.23c-.08.16-.19.3-.28.44s-.2.27-.3.38a3.71 3.71 0 0 1-.29.28c-.18.14-.31.21-.37.16s0-.19.12-.37.12-.2.21-.32l.25-.38c.08-.14.17-.28.25-.42l.12-.21.11-.21c.13-.29.24-.55.31-.74z" fill="#9b613a"/><path d="M62.48 114.09c.12-.16.45.12.37.24-.48.74-1.73 2.82-2 2.66s1.15-2.18 1.63-2.9z" fill="#9b613a"/><path d="M56.74 113.48c.06-.21.47-.07.43.09a6.58 6.58 0 0 1-.28 1l-.11.29-.14.29-.07.14-.08.14-.16.27c-.11.17-.23.33-.34.47a4.75 4.75 0 0 1-.33.35c-.21.18-.36.27-.41.22s0-.21.17-.43.15-.24.24-.38l.28-.47.14-.26.07-.13.06-.13.13-.27.11-.27a7.56 7.56 0 0 0 .29-.92z" fill="#9b613a"/><path d="M50.52 109.92c.05-.18.46 0 .43.1a7.3 7.3 0 0 1-.25.87l-.09.26-.11.26c-.07.17-.17.34-.25.5s-.19.3-.28.43a4.13 4.13 0 0 1-.27.33c-.18.17-.31.26-.36.22s0-.2.1-.41.11-.23.19-.36l.22-.43c.07-.16.16-.31.22-.48l.1-.24.09-.24c.12-.31.2-.6.26-.81z" fill="#9b613a"/><path d="M61.59 119.5c.15-.17.46.14.35.27l-.29.37c-.11.14-.23.3-.37.45l-.44.48-.11.12-.12.11-.24.22c-.16.14-.31.28-.45.4l-.41.29c-.24.15-.41.23-.45.17s.06-.21.25-.42l.34-.34.41-.42.22-.22.11-.11.11-.12.42-.46c.14-.14.26-.3.37-.43z" fill="#9b613a"/><path d="M69.78 121.68c0-.24.46-.16.44 0a5.24 5.24 0 0 1-.19 1.14l-.1.34-.14.33-.07.17-.08.16-.17.31c-.06.1-.13.19-.19.28a3 3 0 0 1-.19.25 5 5 0 0 1-.38.39c-.25.19-.42.29-.47.23s.05-.23.23-.45.18-.26.29-.41.1-.16.16-.25.11-.17.16-.27l.15-.29.07-.15.06-.15.13-.3.09-.31a5.44 5.44 0 0 0 .2-1.02z" fill="#9b613a"/><path d="M65.13 124.11c.12-.15.44.14.36.25a8.12 8.12 0 0 1-.55.7l-.18.2-.2.2c-.13.13-.27.25-.41.37l-.41.3a4.19 4.19 0 0 1-.36.21c-.22.1-.37.14-.41.08s.06-.19.23-.34l.3-.27.36-.32c.12-.12.25-.23.37-.36l.18-.19.17-.19c.23-.24.42-.47.55-.64z" fill="#9b613a"/><path d="M56.47 120.84c.12-.13.43.17.35.27a6 6 0 0 1-.57.64l-.19.18-.2.17a5 5 0 0 1-.43.31l-.43.24a3.6 3.6 0 0 1-.37.15c-.22.06-.37.07-.4 0s.08-.17.26-.3l.31-.22.37-.26c.12-.1.26-.19.38-.3l.19-.16.17-.16a7.3 7.3 0 0 0 .56-.56z" fill="#9b613a"/><path d="M51.55 115.87c.12-.14.44.15.36.26a6.83 6.83 0 0 1-.54.66l-.18.19-.19.18c-.13.12-.27.23-.41.34l-.41.27a3.71 3.71 0 0 1-.36.18c-.22.08-.37.11-.4 0s.06-.18.23-.32l.3-.24.35-.29c.12-.11.25-.21.37-.33l.18-.17.17-.17c.23-.19.41-.43.53-.56z" fill="#9b613a"/><path d="M44.79 113.31c.21-.09.33.34.18.4-.93.42-3.43 1.65-3.56 1.39s2.43-1.41 3.38-1.79z" fill="#9b613a"/><path d="M50.3 120.62c.16-.1.37.28.25.36a6.66 6.66 0 0 1-.78.48l-.25.12-.26.11c-.17.08-.36.13-.53.19l-.51.12h-.43c-.25 0-.4 0-.41-.1s.13-.15.36-.22l.39-.13.46-.15c.16-.07.33-.12.49-.19l.24-.1.23-.11a8.12 8.12 0 0 0 .75-.38z" fill="#9b613a"/><path d="M44.83 119c.29-.1.36.34.16.41s-.8.29-1.33.44l-.41.11-.42.09c-.28.07-.57.11-.85.15l-.8.08h-.66c-.38 0-.62-.06-.62-.13s.23-.14.6-.19l.64-.1.77-.13c.27-.06.55-.1.82-.17l.41-.09.4-.1c.46-.16.96-.31 1.29-.37z" fill="#9b613a"/><path d="M32.27 115.3c-.25 0-.11-.46.06-.44 1.09.15 4.09.5 4.05.79s-3.02-.16-4.11-.35z" fill="#9b613a"/><path d="M25.28 110.75c-.07-.18.36-.28.4-.18a3.86 3.86 0 0 0 .38.66l.13.19.15.18.08.09.08.09.16.17.32.3.28.24c.16.13.26.25.22.31s-.18 0-.39 0a3.17 3.17 0 0 1-.35-.19 4.4 4.4 0 0 1-.39-.29l-.19-.18-.09-.09-.09-.1-.17-.2-.15-.21a3.69 3.69 0 0 1-.38-.79z" fill="#9b613a"/><path d="M24.31 116.48c-.12-.2.28-.37.37-.24a8.87 8.87 0 0 0 .6.8l.2.23.21.23c.14.16.29.3.43.45l.42.4.35.33c.2.19.32.33.27.39s-.21 0-.47-.13-.26-.17-.42-.27-.31-.24-.47-.38-.32-.29-.47-.46l-.22-.24-.2-.25a7.53 7.53 0 0 1-.6-.86z" fill="#9b613a"/><path d="M27.77 116.51c-.11-.12.25-.38.32-.31a3.88 3.88 0 0 0 .49.42l.16.11.17.11c.11.08.23.13.35.2l.33.17.28.14c.16.08.26.16.24.23s-.14.09-.34.08l-.33-.07-.39-.14a3.66 3.66 0 0 1-.39-.21l-.19-.12-.17-.13a3.52 3.52 0 0 1-.53-.48z" fill="#9b613a"/><path d="M34.21 119c-.17 0-.12-.44 0-.44.76 0 2.84-.07 2.84.22s-2.05.31-2.84.22z" fill="#9b613a"/><path d="M30.76 122.23c-.23-.16.09-.47.25-.37a7.55 7.55 0 0 0 1 .58l.33.15.35.13.17.07.18.06.35.11.34.09.32.08.55.12c.32.06.52.13.52.2s-.21.11-.55.12h-.59l-.34-.06-.36-.07-.37-.1-.19-.06-.18-.07-.37-.14-.35-.16a7 7 0 0 1-1.06-.68z" fill="#9b613a"/><path d="M25.12 121.89c-.11-.28.33-.34.41-.17a7 7 0 0 0 .59 1.1l.21.32.24.31.12.16.13.15.25.29.26.26c.09.08.16.17.25.24l.44.4c.26.22.42.38.38.45s-.25 0-.57-.18c-.16-.09-.33-.21-.52-.35s-.18-.15-.28-.24-.2-.17-.29-.26l-.28-.3-.14-.15-.13-.16-.25-.33-.22-.34a6.62 6.62 0 0 1-.6-1.2z" fill="#9b613a"/><path d="M40.09 123.77c-.21 0-.18-.43 0-.44.9-.09 3.36-.4 3.39-.11s-2.48.5-3.39.55z" fill="#9b613a"/><path d="M34.06 127.07c-.2 0-.12-.45 0-.44.86 0 3.23 0 3.22.34s-2.36.18-3.22.1z" fill="#9b613a"/><path d="M45 126.36c-.23.05-.27-.38-.12-.43 1-.27 3.73-1.09 3.81-.81S46 126.13 45 126.36z" fill="#9b613a"/><path d="M54.07 127.62c-.22.06-.26-.38-.12-.43l.42-.13c.16-.05.34-.1.52-.17l.56-.21.14-.05.14-.06.28-.12.52-.22.43-.19c.25-.1.43-.13.46-.07s-.09.19-.31.35l-.4.27c-.15.09-.33.18-.52.27l-.28.14-.14.07-.15.06-.58.22a5.42 5.42 0 0 1-.54.16z" fill="#9b613a"/><path d="M41.27 129.52c-.15 0-.16-.42-.06-.44.67-.09 2.49-.42 2.53-.12s-1.79.51-2.47.56z" fill="#9b613a"/><path d="M49.78 130.58c-.2 0-.26-.39-.12-.43.87-.25 3.25-1 3.33-.71s-2.33.94-3.21 1.14z" fill="#9b613a"/><path d="M29.2 128c-.25-.12 0-.48.18-.4l.49.2c.19.07.39.17.62.24l.69.25c.23.09.47.15.7.23l.65.21.54.17c.31.11.5.21.48.28s-.23.08-.56 0l-.57-.09-.68-.17c-.24-.07-.49-.13-.72-.22l-.7-.25c-.23-.08-.43-.18-.62-.26z" fill="#9b613a"/><path d="M58.59 129.84c-.22 0-.21-.41-.07-.44a7.57 7.57 0 0 0 .89-.2l.27-.08.27-.09c.18-.06.36-.13.53-.2l.48-.2.4-.17c.23-.1.39-.14.43-.08s-.07.19-.27.36-.23.16-.38.26l-.49.26c-.18.08-.36.16-.55.22l-.28.1-.28.08a6.47 6.47 0 0 1-.95.18z" fill="#9b613a"/><path d="M44 72.37c1.22-.4 2.76-1 4-.42a1 1 0 0 1 .39 1.68.51.51 0 0 1-.8-.22c-.11-.3.33-.76.61-.5.12.12.42 0 .25-.12a.69.69 0 0 0-1.12.77.93.93 0 0 0 1.67-.36c.17-1.07-1-1.62-1.86-1.71a8.35 8.35 0 0 0-3.35.61c-.21.07 0 .31.16.26z" fill="#ffc152"/><path d="M39.54 66.1A12.45 12.45 0 0 0 41 62.31a1.49 1.49 0 0 0-.19-1.31 1.16 1.16 0 0 0-1.17-.27 1.09 1.09 0 0 0-.79 1 .89.89 0 0 0 .82.82.71.71 0 0 0 .85-.59c0-.4-.39-.63-.73-.64s-.08.14.07.14c.38 0 .34.58.18.77-.4.49-.83-.13-.84-.53a1 1 0 0 1 .63-.85c.52-.24.82.22.85.66a3.37 3.37 0 0 1-.11.89 12.1 12.1 0 0 1-1.36 3.6c-.05.09.29.17.33.09z" fill="#ffc152"/><path d="M40.76 66.69A9.5 9.5 0 0 1 41.6 65a4.54 4.54 0 0 1 1.22-1.42.7.7 0 0 1 1 .07.87.87 0 0 1 .17.71c0 .26-.37.63-.66.51a.47.47 0 0 1-.26-.39c0-.15.17-.47.36-.38s.41 0 .2-.11a.67.67 0 0 0-.85.2c-.22.31.08.66.34.8a.88.88 0 0 0 1-.13.89.89 0 0 0 .16-1.08 1 1 0 0 0-.86-.53 1.59 1.59 0 0 0-1.15.47 6.3 6.3 0 0 0-1 1.38 9.2 9.2 0 0 0-.74 1.52c0 .1.3.18.35.06z" fill="#ffc152"/><path d="M42.82 68.78a23.15 23.15 0 0 0 2.1-2.06 6.3 6.3 0 0 0 1.45-2.48c.14-.59-.32-1.35-1-1.12s-.34 1 .27.92c.23 0 0-.21-.15-.19s-.16-.25-.15-.32c0-.27.4-.27.55-.1a.94.94 0 0 1 .11.86 5.21 5.21 0 0 1-.87 1.66 16.79 16.79 0 0 1-2.63 2.74c-.09.08.24.19.33.11z" fill="#ffc152"/><path d="M42.92 69.51a15.76 15.76 0 0 0 4.77-4.37c.06-.08-.27-.17-.33-.09a15.66 15.66 0 0 1-4.73 4.35c-.11.07.21.16.29.12z" fill="#ffc152"/><path d="M40.05 66.73a13 13 0 0 1 3.25-4.91s-.26-.15-.33-.09a13.06 13.06 0 0 0-3.27 4.93c0 .06.32.15.35.06z" fill="#ffc152"/><path d="M43.78 70.91a14.7 14.7 0 0 1 3.42-1.45c.21-.06.15-.27-.06-.21a15.09 15.09 0 0 0-3.51 1.49c-.2.12 0 .27.15.17z" fill="#ffc152"/><path d="M46.37 74.54c0-.63-.64-.74-1.69-.77 1.12 0 1.84-.15 1.79-.79s-.55-.62-1.34-.55c.66-.16 1-.4.93-.88a.57.57 0 0 0-.61-.47c.4-.17.59-.4.5-.76-.14-.58-.77-.52-1.7-.26.81-.31 1.28-.62 1.07-1.14s-.48-.43-1-.3c.31-.3.42-.58.21-.89s-.8-.26-1.48.21c.58-.6.85-1.07.46-1.44s-1 0-1.67.82c.68-.89 1.06-1.52.52-1.89s-.83 0-1.28.68c.29-.62.35-1.06-.08-1.28a.57.57 0 0 0-.75.17c.12-.41.07-.71-.27-.88-.54-.26-.89.26-1.28 1.15.28-.83.33-1.39-.2-1.56-.39-.12-.64.1-.84.54 0-.43-.18-.7-.56-.73-1-.1-.71 1.85-.93 4.2-.08.84-.12 1.63-.13 2.3a8 8 0 0 0-.22 1.47v.16l.06.06c0 .07 0 .12.08.13l1.83 2.08c0 .05.05.1.15.16a14.93 14.93 0 0 0 4.06.67c2.42.2 4.3.84 4.37-.21z" fill="#0d8fbc"/><path d="M36.76 74a1.5 1.5 0 0 0 .53.13 5.59 5.59 0 0 0 1.57.49 10.26 10.26 0 0 1 3.45.79 3.63 3.63 0 0 0-3-3.41 7.59 7.59 0 0 0 1.28-3.61 17.29 17.29 0 0 0-2.91 1.87 3.37 3.37 0 0 0-2.14-2.49 3 3 0 0 1 .46 2.49 5.94 5.94 0 0 0-.09 2.26 1.46 1.46 0 0 0 0 .23 1.49 1.49 0 0 0 .37.87q-.73 1-1.41 2a1.71 1.71 0 0 0-.93-1.59c-.53-.25-.71.27-.63.74a8 8 0 0 0 .51 1.23 2.32 2.32 0 0 1 .08 1.17q-.42.72-.81 1.45a4.54 4.54 0 0 0-.41-1.86 1.93 1.93 0 0 0-2.2-1.16 1.06 1.06 0 0 0-.25 2 1 1 0 0 0 1.45-.49.46.46 0 1 0-.38 0 .92.92 0 0 1-.24.34c-.35.33-.79.08-1-.28-.44-.82.55-1.74 1.35-1.4a2.53 2.53 0 0 1 1.19 1.83 4.88 4.88 0 0 1 .06 1.83q-.58 1.14-1.1 2.32a3.71 3.71 0 0 0-.42-1.21c-.31-.56-.87-1.15-1.57-1-.38.09-.45.55-.37.87a2.67 2.67 0 0 0 .7 1.07 3.14 3.14 0 0 1 .69 1 3.28 3.28 0 0 1 .22 1.12 42.75 42.75 0 0 0-2 6.83c0 .19.48.29.52.09q.42-2.07 1-4.09a3.64 3.64 0 0 1 2.45-1.16 2.74 2.74 0 0 0 1.33-.07.66.66 0 0 0 .34-1c-.22-.36-.75-.41-1.13-.41a3.24 3.24 0 0 0-1.18.27 4.73 4.73 0 0 0-1.32.83q.61-1.75 1.37-3.44a3.58 3.58 0 0 1 3.12.19 1.52 1.52 0 0 0 1.13.17.56.56 0 0 0 .33-.84 1.36 1.36 0 0 0-1-.53 5.42 5.42 0 0 0-3.37.53q.83-1.78 1.82-3.49a7.07 7.07 0 0 1 1.87-.87 6.68 6.68 0 0 1 1.07-.22 1.39 1.39 0 0 1 1.36.31c.58.75-.32 1.66-1 1.88a.78.78 0 0 1-1-.54c-.09-.39.36-.89.65-.56a.46.46 0 1 0 .19-.21.91.91 0 0 0-.76-.08.74.74 0 0 0-.31 1.07c.64 1 2.1.44 2.62-.38a1.15 1.15 0 0 0-.12-1.39 1.86 1.86 0 0 0-1.53-.35 7 7 0 0 0-2.66.86q.94-1.57 2-3.06z" fill="#839b1e"/><path d="M44.09 61.66a.8.8 0 0 0-.65.13.81.81 0 0 0-.18-.9.51.51 0 0 0-.68 0 .87.87 0 0 0-.18.53 3.29 3.29 0 0 1-.11.49c-.07.26-.15.52-.24.77 0 0 .06.05.11.05a4.23 4.23 0 0 0 1.26 0c.32 0 .82-.12 1-.45a.44.44 0 0 0-.33-.62z" fill="#f93e48"/><path d="M48.69 65.15c.07-.28-.19-.44-.42-.49a.71.71 0 0 0-.56.16c.1-.31.18-.74-.06-.91a.55.55 0 0 0-.78.22 3.23 3.23 0 0 0-.33 1.35 8.62 8.62 0 0 0 0 .91c0 .05.12.08.16.05a4.07 4.07 0 0 0 1.11-.44c.34-.18.78-.46.88-.85z" fill="#f93e48"/><path d="M49 69.59a1 1 0 0 0-.77-.3c.25-.21.65-.65.31-.95a.71.71 0 0 0-.76-.09 2.39 2.39 0 0 0-.64.58l-.49.52a6.58 6.58 0 0 0 1.27.69 1.73 1.73 0 0 0 .92.2c.32-.04.28-.45.16-.65z" fill="#f93e48"/><path d="M24.9 52.26a.23.23 0 0 0-.16.16.24.24 0 0 0 0 .16.23.23 0 0 0 .19.13v.38a3.13 3.13 0 0 0 .15.36 3.51 3.51 0 0 0 .37.6l.14.16.08.08.09.08.18.15.09.07.08.06.19.12v-.07l-.08-.08c-.07-.07-.16-.17-.27-.27a3.3 3.3 0 0 1-.25-.35 3.8 3.8 0 0 1-.35-.61c-.07-.14-.18-.34-.25-.52l-.1-.12v-.05a.23.23 0 0 0 .15-.19.27.27 0 0 0-.08-.19.22.22 0 0 0-.17-.06z"/><path d="M25.79 51.4a.44.44 0 0 0 .19.45.48.48 0 0 0 .17 0v.08l.08.14.07.13.13.24.06.12.06.13c0 .09.12.19.18.3s.13.22.17.31l.09.15v-.18c0-.13-.05-.18-.11-.29a1.11 1.11 0 0 0-.09-.16l-.1-.18-.06-.13-.06-.14-.13-.25-.12-.19-.1-.13a.23.23 0 0 0 .07-.11.3.3 0 0 0 0-.19.35.35 0 0 0-.25-.24.24.24 0 0 0-.25.14z"/><path d="M27.92 51.37a.72.72 0 0 0-.27.11.22.22 0 0 0 .12.4h.11l.07.15.12.27.11.25.11.25c0 .09.1.2.15.31s.11.22.15.31l.07.16s.05 0 0-.18a2.79 2.79 0 0 0-.08-.3 1.42 1.42 0 0 0-.08-.17l-.09-.18c0-.09-.07-.18-.11-.27s-.07-.18-.11-.26l-.13-.22-.13-.19a.28.28 0 0 0 .07-.11.25.25 0 0 0-.08-.33z"/><path d="M38.68 54a.23.23 0 0 1 .16.16.24.24 0 0 1 0 .16.23.23 0 0 1-.19.13v.38a3.11 3.11 0 0 1-.15.36 3.51 3.51 0 0 1-.37.6l-.14.16-.08.08-.09.08-.18.15-.09.07-.08.06-.19.12v-.07l.08-.08c.07-.07.16-.17.27-.27a3.32 3.32 0 0 0 .33-.35 3.81 3.81 0 0 0 .35-.61c.07-.14.18-.34.25-.52l.05-.13v-.05a.23.23 0 0 1-.15-.19.27.27 0 0 1 .08-.19.22.22 0 0 1 .14-.05z"/><path d="M37.79 53.1a.45.45 0 0 1-.19.45.48.48 0 0 1-.17 0v.08l-.08.14-.07.13-.13.24-.06.12-.06.13c0 .09-.12.19-.18.3s-.13.22-.17.31l-.09.15v-.18c0-.13.05-.18.11-.29a1.12 1.12 0 0 1 .09-.16l.1-.18.06-.13L37 54l.13-.25.12-.19.1-.13a.24.24 0 0 1-.07-.11.31.31 0 0 1 0-.19.35.35 0 0 1 .25-.24.24.24 0 0 1 .26.21z"/><path d="M35.66 53.07a.72.72 0 0 1 .27.11.22.22 0 0 1-.12.4h-.11l-.07.15-.12.27-.11.25-.11.25c0 .09-.1.2-.15.31s-.11.22-.15.31l-.07.16s-.05 0 0-.18a2.81 2.81 0 0 1 .08-.3 1.41 1.41 0 0 1 .08-.17l.09-.18c0-.09.07-.18.11-.27s.07-.18.11-.26l.11-.19.13-.19a.28.28 0 0 1-.11-.12.25.25 0 0 1 .14-.35z"/><path d="M19 60.7a.23.23 0 0 1 .18-.14.24.24 0 0 1 .16 0 .23.23 0 0 1 .11.21l.17.07h.18a3.12 3.12 0 0 1 .34.19 3.5 3.5 0 0 1 .55.44l.14.16.07.09.07.1.13.2.06.09.05.09.1.2c.02.04 0 0 0 0l-.06-.05-.07-.09c-.06-.08-.14-.18-.24-.3a3.3 3.3 0 0 0-.3-.37 3.81 3.81 0 0 0-.56-.43c-.13-.09-.32-.22-.48-.31l-.12-.07h-.05a.23.23 0 0 1-.21.13.27.27 0 0 1-.18-.1.22.22 0 0 1-.04-.11z"/><path d="M18.07 61.47a.44.44 0 0 1 .43.25.48.48 0 0 1-.06.17l.07.05.13.09.12.08.22.16.11.08.12.08.27.22.28.21.14.11h-.18c-.12 0-.17-.08-.28-.14l-.15-.11-.16-.12-.13-.12-.13-.08-.23-.16-.18-.14-.1-.1a.24.24 0 0 1-.11.05.31.31 0 0 1-.18 0 .35.35 0 0 1-.21-.28.24.24 0 0 1 .21-.3z"/><path d="M17.77 63.58a.72.72 0 0 1 .15-.26.22.22 0 0 1 .39.17.33.33 0 0 1 0 .1l.14.09.25.16.23.14.23.14.29.19c.1.07.2.14.29.18l.15.09h-.18a2.81 2.81 0 0 1-.28-.12l-.16-.1-.17-.11-.25-.14-.24-.14-.18-.13-.17-.15a.28.28 0 0 1-.14.09.25.25 0 0 1-.35-.2z"/><path d="M29.41 57.78s1.48-3.62 1.36-4.95a1.24 1.24 0 0 0-.31-.83.92.92 0 0 0-.75-.19 1.44 1.44 0 0 0-1.19 1.51 1.82 1.82 0 0 0-1.32-1.18 1.31 1.31 0 0 0-1.47.85 2.29 2.29 0 0 0 .37 1.48 1.29 1.29 0 0 0-1.41-.11 1.08 1.08 0 0 0-.44 1.25 1.93 1.93 0 0 0 1.29 1c.91.29 3.87 1.17 3.87 1.17z" fill="#f93e48"/><path d="M34.17 59.48s-1.48-3.62-1.36-4.95a1.24 1.24 0 0 1 .31-.83.92.92 0 0 1 .75-.19A1.44 1.44 0 0 1 35.06 55a1.82 1.82 0 0 1 1.32-1.18 1.31 1.31 0 0 1 1.47.85 2.29 2.29 0 0 1-.37 1.48 1.29 1.29 0 0 1 1.41-.11 1.08 1.08 0 0 1 .44 1.25 1.93 1.93 0 0 1-1.29 1c-.9.31-3.87 1.19-3.87 1.19z" fill="#f93e48"/><path d="M23.94 65.87s-3.78 1-5.08.72a1.24 1.24 0 0 1-.79-.41.92.92 0 0 1-.09-.77 1.44 1.44 0 0 1 1.65-1 1.82 1.82 0 0 1-1-1.46 1.31 1.31 0 0 1 1-1.35 2.29 2.29 0 0 1 1.42.55 1.29 1.29 0 0 1 .07-1.42 1.08 1.08 0 0 1 1.3-.28 1.93 1.93 0 0 1 .8 1.4c.22.97.72 4.02.72 4.02z" fill="#f93e48"/><path d="M35.17 77.27a5 5 0 0 0-2.78 2.35c0-.48.06-1 .06-1.43v-3.57a4.94 4.94 0 0 1 1.5-.73 5.49 5.49 0 0 0 1.76-.82 1.71 1.71 0 0 0 .67-1.72 4.16 4.16 0 0 1-1.62.76 4.3 4.3 0 0 0-2.33 2.19c-.05-1.07-.13-2.13-.22-3.16a17.39 17.39 0 0 0 1.94-.83 1.76 1.76 0 0 0 .84-.69 1.24 1.24 0 0 0 .05-.88 3.68 3.68 0 0 0-.37-.81 6.62 6.62 0 0 1-1.55 1.47 3.06 3.06 0 0 0-1 1.25c0-.42-.08-.84-.13-1.25l-.1-.82v-.29a2.54 2.54 0 0 1 1-1.27 4.5 4.5 0 0 0 1-.62 1.6 1.6 0 0 0 .39-1.13 4.75 4.75 0 0 0-.22-1.2 14.08 14.08 0 0 0-1.53 2 5 5 0 0 0-.7 1.95v-.29l-.2-1.29a1.27 1.27 0 0 0 .08-.25c0-.17.09-.36.15-.58s.14-.45.21-.71.08-.27.12-.41 0-.14.08-.21l.08-.21.17-.44c.06-.15.11-.3.17-.44l.14-.38a8.75 8.75 0 0 1 1.8.12 4.26 4.26 0 0 0 1.93-.09 1.71 1.71 0 0 0 1.2-1.39 15.53 15.53 0 0 0-2.66.25 5.38 5.38 0 0 0-2.2 1c.07-.19.13-.38.21-.56l.22-.54a5.53 5.53 0 0 1 .24-.52l.42-.83.18-.32a.78.78 0 0 0 .43-.16l.25-.17a3.91 3.91 0 0 0 2.61-.8 2.88 2.88 0 0 0-1.77-.15l-.3.09.14-.25a6.65 6.65 0 0 0 .47-1.84 3.23 3.23 0 0 0-1.37 1.19 3.17 3.17 0 0 0-.23.42 2.82 2.82 0 0 0-.05-.46 2.86 2.86 0 0 0-.78-1.46 1.29 1.29 0 0 0-.43 1 2.37 2.37 0 0 0 .37 1.1c.09.15.19.29.29.44a.69.69 0 0 1 0 .19 1.35 1.35 0 0 0-.05.33.43.43 0 0 0 .09.25l-.14.24-.18.35-.31.59-.08.14-.07.14-.13.28-.23.61c0 .09-.08.18-.12.27l-.11.28-.23.58-.06.16-.06.16-.12.32-.12.32-.06.16v.16l-.21.64c0 .15-.09.29-.12.44l-.07-.39-.17-.89c-.1-.59-.24-1.16-.37-1.71l-.18-.8a2 2 0 0 0 1.43-1.41 5.24 5.24 0 0 0 .08-2.12 8.06 8.06 0 0 1-1 1.69 2.92 2.92 0 0 0-.56 1.69v-.19l-.1-.37-.35-1.32c0-.1 0-.19-.08-.29L30 59l-.14-.46-.15-.53a.43.43 0 0 0 .16-.32 1.35 1.35 0 0 0-.05-.33.69.69 0 0 1 0-.19c.1-.14.2-.29.29-.44a2.37 2.37 0 0 0 .37-1.1 1.29 1.29 0 0 0-.43-1 2.86 2.86 0 0 0-.78 1.46 2.82 2.82 0 0 0-.05.46 3.18 3.18 0 0 0-.23-.42 3.23 3.23 0 0 0-1.37-1.19 6.65 6.65 0 0 0 .54 1.75l.14.25-.3-.09a2.88 2.88 0 0 0-1.77.15 3.92 3.92 0 0 0 2.61.8l.16.2a.8.8 0 0 0 .41.16c.06.25.14.55.24.94s.18.69.28 1.09v.2c-1.09-1-2.55-.55-3.89-1.17A2.88 2.88 0 0 0 27.87 61a3.31 3.31 0 0 0 2.28 0l.12.48c.11.45.2.92.31 1.39l.16.72v.24a2.93 2.93 0 0 0-1.74-.54 6.64 6.64 0 0 1-2.25-.18 1.46 1.46 0 0 0 .9 1.35 3 3 0 0 0 1.7.13 6.3 6.3 0 0 0 1.48-.44v.12l.27 1.46.22 1.41.1.66c0 .22.05.43.08.63l.13 1.12c0 .2 0 .39.06.59v.58l.09 1.12c0 .37 0 .73.06 1.09v.21l.04-.14-.12-.17-.26-.37-.3-.4c-.1-.13-.21-.27-.32-.41l-.33-.4-.33-.37c-.2-.24-.4-.44-.56-.61a4.1 4.1 0 0 0-.33-4.85 11 11 0 0 1-.21 2.58 3.92 3.92 0 0 0 .17 1.92c-.24-.25-.48-.49-.72-.71l-.27-.25-.3-.28-.61-.51-.6-.48a2.73 2.73 0 0 0 .26-2 3.85 3.85 0 0 0-1.15-1.86 2 2 0 0 1 0 1.28 3.3 3.3 0 0 0 .49 2.27 16 16 0 0 0-1.75-1.23l-.35-.15a.76.76 0 0 0-.1-.45c0-.09-.1-.18-.14-.27a3.92 3.92 0 0 0-.46-2.69 2.88 2.88 0 0 0-.37 1.74 2.82 2.82 0 0 0 .05.31l-.27-.21a6.65 6.65 0 0 0-1.67-.75 3.23 3.23 0 0 0 1 1.51 3.18 3.18 0 0 0 .39.28 2.82 2.82 0 0 0-.46 0 2.86 2.86 0 0 0-1.55.59 1.29 1.29 0 0 0 1 .56 2.37 2.37 0 0 0 1.14-.23l.47-.23a.69.69 0 0 1 .19 0 1.35 1.35 0 0 0 .32.1.43.43 0 0 0 .21 0l.56.36.37.25.41.27c.47.31 1 .73 1.49 1.15a2 2 0 0 0-1.19-.2 2.77 2.77 0 0 0-1 .49l-2.19 1.49a3.2 3.2 0 0 0 2.33-.2c.46-.23.86-.57 1.3-.83a2.34 2.34 0 0 1 1.19-.38 20.5 20.5 0 0 1 2.11 1.88l.39.42.4.46.06.07a5 5 0 0 0-2.66 0 7.39 7.39 0 0 1-2.79.24 3 3 0 0 0 2.75 1 7.16 7.16 0 0 0 2.75-1.13l.28.34.1.12.09.12.18.23.17.22.16.21.28.38.32.48.1.3v2.97a4 4 0 0 0-2.14-1.38c-.87-.27-1.79-.38-2.66-.66a2.37 2.37 0 0 0 .8 1.81 2.47 2.47 0 0 0 1.39.3h2.65v2.58l-.07 1.22-.12 1.23-.06.61v.5A7.28 7.28 0 0 0 30 81c-.82-.67-1.93-1-2.55-1.87a7.35 7.35 0 0 0-.14 1.52 2.47 2.47 0 0 0 .51 1.35 3 3 0 0 0 1.85.92 16.46 16.46 0 0 1 2 .35l-.16 1.22-.08.61-.1.61-.19 1.29v.3c0 .1 0 .2-.05.3l-.11.6c0 .15-.06.38-.1.64l-.06.41v.44c-.1.59-.2 1.17-.26 1.48-.14.66.09.91.58-1.31.08-.32.13-.66.21-1l.23-1.17c0-.1 0-.21.06-.31l.05-.32.11-.67.11-.7.05-.36v-.37c.06-.5.12-1 .19-1.56 0-.27.06-.55.09-.83l.08-.85c0-.29.06-.57.08-.87l.05-.88a4.33 4.33 0 0 1 1.55-.63 13.2 13.2 0 0 0 1.86-.46 2.74 2.74 0 0 0 1.14-.97 1.63 1.63 0 0 0 .23-1.51 5.15 5.15 0 0 1-2.06.87z" fill="#a4c441" fill-rule="evenodd"/><path d="M35.38 84.37a2.72 2.72 0 0 0-1.13-.18 9.13 9.13 0 0 0-2.69.31v-2.89a7.89 7.89 0 0 0 2 .71c.62.13 1.5.23 1.87-.43a.57.57 0 0 0-.21-.75 2.72 2.72 0 0 0-1.08-.14 9.08 9.08 0 0 0-2.57.28q0-1.2-.06-2.4a7.91 7.91 0 0 0 2.37.5c.54 0 1.62 0 1.7-.75s-1-.71-1.59-.66a9.14 9.14 0 0 0-2.5.63q-.06-1.38-.15-2.77a7.91 7.91 0 0 0 2.46.53c.54 0 1.62 0 1.7-.75s-1-.71-1.59-.66a9.18 9.18 0 0 0-2.59.67q-.2-2.77-.55-5.54c0-.1-.57 0-.55.12q.34 2.67.54 5.36a7.83 7.83 0 0 0-2.41-.65c-.59-.06-1.43 0-1.65.65-.28.87 1.06.78 1.52.76a9.16 9.16 0 0 0 2.57-.48q.1 1.37.15 2.74a7.83 7.83 0 0 0-2.32-.61c-.59-.06-1.43 0-1.65.65-.28.87 1.06.78 1.52.76a9.12 9.12 0 0 0 2.51-.47q0 1.3.06 2.6a7.91 7.91 0 0 0-2.45-.36c-.54 0-1.62.1-1.65.85s1.08.65 1.63.55a9.49 9.49 0 0 0 2.48-.8v2.76a7.91 7.91 0 0 0-2.31-.32c-.54 0-1.62.1-1.65.85s1.08.65 1.63.55a9.49 9.49 0 0 0 2.26-.71q-.07 2.76-.29 5.51c0 .07.54 0 .55-.12q.22-2.74.29-5.5a7.89 7.89 0 0 0 2.17.78c.62.13 1.5.23 1.87-.43a.57.57 0 0 0-.21-.75z" fill="#62700b"/><path d="M30.06 65.74c1.89-4.39 4.63-3.48 5.27-3.34A2.09 2.09 0 0 1 36 66a6.41 6.41 0 0 1-2.84 1.9 2.92 2.92 0 0 1 2.85 1 3.05 3.05 0 0 1 .42 3 2.57 2.57 0 0 1-1.14 1.3 2.85 2.85 0 0 1-2.13.13 3.48 3.48 0 0 1-2.66-2.69 4.76 4.76 0 0 1-.73 2.36 3 3 0 0 1-2.2 1.27A2.4 2.4 0 0 1 25.29 73a2.25 2.25 0 0 1 .17-2A6 6 0 0 1 27 69.66s-2.16.94-3.24.58a2.36 2.36 0 0 1-1.62-2.64 2.6 2.6 0 0 1 2.38-1.74 7.64 7.64 0 0 1 3.07.61 3.44 3.44 0 0 1-1.28-1.93 8.33 8.33 0 0 1-.23-2.34 2.72 2.72 0 0 1 .52-1.89 1.91 1.91 0 0 1 1.75-.45 2.86 2.86 0 0 1 2.06 1.71 8.3 8.3 0 0 1-.35 4.17z" fill="#ffc152"/><path d="M30.9 71a2.77 2.77 0 0 0 2.1-2.64 3.61 3.61 0 0 0-1.73-3 2.79 2.79 0 0 0-3-.15A4.08 4.08 0 0 0 27 67.73a2.54 2.54 0 0 0-.05 1.43 2.41 2.41 0 0 0 1.27 1.16 4.34 4.34 0 0 0 2.68.68z" fill="#362b00"/><path d="M29.17 65.82a.55.55 0 0 0-.41.05.41.41 0 0 0 .36.67.38.38 0 0 0 .05-.72z" fill="#fff"/><path d="M28.42 67.72c.25 0 .49-.12.35-.39a.67.67 0 0 0-.66-.31c-.07 0-.25.19-.24.27.02.26.23.39.55.43z" fill="#fff"/><path d="M30.48 66.9c-.55-.62-1.45.27-1 .87s1.57-.21 1-.87z" fill="#fff"/><path d="M30.42 66.27a.62.62 0 0 0 .41-.29c0-.25-.45-.36-.67-.32a.39.39 0 0 0 .26.61z" fill="#fff"/><path d="M31.33 66.11a.61.61 0 0 0-.4.57c0 .19.07.73.39.51s.52-1.35.01-1.08z" fill="#fff"/><path d="M31.84 67.48c-.24.07-.86.11-1 .38s.34.54.62.57.71-.09.77-.45c.07-.17-.23-.56-.39-.5z" fill="#fff"/><path d="M30.36 68.23c-.26 0-.71.17-.64.53s.44.33.68.33a.44.44 0 1 0-.04-.86z" fill="#fff"/><path d="M31.44 68.82c-.33 0-.38.49-.35.73s.6.31.8.16a.61.61 0 0 0 .18-.81c-.16-.2-.42-.09-.63-.08z" fill="#fff"/><path d="M30.23 69.36c-.27 0-.63 0-.57.39s.64.43 1 .42c.17-.09.18-.34.16-.5s-.34-.3-.59-.31z" fill="#fff"/><path d="M28.4 68.44c0-.22-.11-.77-.44-.52-.17.22-.4.63-.12.87s.51-.12.56-.35z" fill="#fff"/><path d="M29.18 68.41c0-.17-.09-.54-.33-.37s-.22.39-.07.56.37-.01.4-.19z" fill="#fff"/><path d="M28.43 69.68a.79.79 0 0 0 .87.12.58.58 0 0 0-.25-.74c-.77-.29-.83.4-.62.62z" fill="#fff"/><path d="M59.24 67.87a81.44 81.44 0 0 0-1.38-9.09q-.42-2-.92-3.93c-.21-.81-.77-2.43-1.94-2.11-1 .27-.59 1.77-.43 2.43q.5 2 .9 4.11a77.25 77.25 0 0 1 1.27 9.2c.19 2.64 0 5.41-1.58 7.61a8.16 8.16 0 0 1-4.9 2.74 28.94 28.94 0 0 1-9 .17 41.78 41.78 0 0 1-4.39-.72q-1-.22-2-.48l-.87-.24c-.53-.15-.6-.19-.77-.72-.24-.73-.36-3.3-1.29-3.37-1.09-.09-.86 2.16-.72 2.8-1-.43-2.8-1.41-4-1.05-1.4.43 1.94 2.14 2.21 2.26-.57.09-3.13.54-1.57 1.46a3.86 3.86 0 0 0 2.85.1c-.35.34-.85.95-.51 1.45.51.73 1.65-.1 2.09-.49a5.77 5.77 0 0 0 .75-.81c.29-.39.32-.26.77-.07 1 .41 2 .75 3 1.07a33.52 33.52 0 0 0 11.29 1.4c3.38-.16 6.76-1.17 9-3.81s2.46-6.49 2.15-9.88c-.25-2.76.05.66-.01-.03z" fill="#42291c"/><path d="M36.41 83.56c.07-1-2.69-1.05-3.24-1.1a3.42 3.42 0 0 0 1-1.32c.22-.67-.23-1.15-.91-.81-1.06.51-1.9 1.39-3 1.88-2.5-1.23-4.61-3-4.27-6.06h-1.1c-.51 0-1.11-.23-1.11.37a6.43 6.43 0 0 0 3.51 5.91 9.83 9.83 0 0 0 2.11.87c.6.17.42.87.59 1.46a2.29 2.29 0 0 0 1 1.52c.82.34.94-.68.87-1.2a3.87 3.87 0 0 0 2.31 1.25c1.79.05-.1-1.69-.57-2.08.52 0 2.72.18 2.79-.69z" fill="#42291c"/></g></g></svg>