<svg xmlns="http://www.w3.org/2000/svg" viewBox="0 0 156.08999633789062 138.66000366210938"><title>Depositphotos_88675426_08</title><g data-name="Layer 2"><g data-name="Layer 1"><g data-name="Layer 2"><g data-name="Layer 1-2"><path d="M79.88 49.88H4a2.76 2.76 0 0 0-2.77 2.75v75.87A2.75 2.75 0 0 0 4 131.26h75.9a2.75 2.75 0 0 0 2.76-2.74V52.64a2.76 2.76 0 0 0-2.76-2.76zm-18.37 8.8A3.52 3.52 0 1 1 58 62.21a3.53 3.53 0 0 1 3.51-3.53zm-12.15 0a3.52 3.52 0 1 1-3.53 3.52 3.52 3.52 0 0 1 3.53-3.52zm-12.16 0a3.52 3.52 0 1 1-3.52 3.52 3.52 3.52 0 0 1 3.52-3.52zm-12.2 0a3.52 3.52 0 1 1-3.52 3.52A3.52 3.52 0 0 1 25 58.68zm46.69 59.62a.85.85 0 0 1-.84.84H13a.85.85 0 0 1-.84-.84V76.54a.85.85 0 0 1 .84-.84h57.8a.85.85 0 0 1 .84.84z" fill="#b6e1e1"/><rect x="12.2" y="75.7" width="59.48" height="43.44" rx=".84" ry=".84" fill="#fff"/><path d="M65 62.2a3.53 3.53 0 1 1-3.54-3.52A3.52 3.52 0 0 1 65 62.19z" fill="#fffefa"/><path d="M52.88 62.2a3.53 3.53 0 1 1-3.54-3.52 3.52 3.52 0 0 1 3.52 3.52z" fill="#fffefa"/><path d="M40.72 62.2a3.52 3.52 0 1 1-3.52-3.52 3.52 3.52 0 0 1 3.52 3.52z" fill="#fffefa"/><path d="M28.56 62.2a3.51 3.51 0 1 1 0-.06v.06z" fill="#fffefa"/><path d="M79.88 132.51H4a4 4 0 0 1-4-4V52.64a4 4 0 0 1 4-4h75.88a4 4 0 0 1 4 4v75.88a4 4 0 0 1-4 3.99zM4 51.13a1.51 1.51 0 0 0-1.5 1.51v75.88A1.51 1.51 0 0 0 4 130h75.88a1.51 1.51 0 0 0 1.51-1.5V52.64a1.51 1.51 0 0 0-1.51-1.51H4z" fill="#6d6e71"/><path d="M70.84 120.39H13a2.09 2.09 0 0 1-2-2.09V76.54a2.09 2.09 0 0 1 2-2.09h57.8a2.09 2.09 0 0 1 2.09 2.09v41.76a2.09 2.09 0 0 1-2.05 2.09zm-57.39-2.5h57V77h-57z" fill="#6d6e71"/><path d="M61.51 84.78H23.94a1.25 1.25 0 1 1 0-2.5h37.57a1.25 1.25 0 0 1 0 2.5z" fill="#6d6e71"/><path d="M61.51 66.72A4.52 4.52 0 1 1 66 62.17a4.53 4.53 0 0 1-4.49 4.55zm0-7A2.52 2.52 0 1 0 64 62.27v-.07a2.52 2.52 0 0 0-2.49-2.52z" fill="#6d6e71"/><path d="M49.35 66.72a4.52 4.52 0 1 1 4.52-4.52 4.52 4.52 0 0 1-4.52 4.52zm0-7a2.52 2.52 0 1 0 2.52 2.52 2.52 2.52 0 0 0-2.52-2.52z" fill="#6d6e71"/><path d="M37.19 66.72a4.52 4.52 0 1 1 4.52-4.52 4.52 4.52 0 0 1-4.52 4.52zm0-7a2.52 2.52 0 1 0 2.52 2.52 2.52 2.52 0 0 0-2.52-2.52z" fill="#6d6e71"/><path d="M25 66.72a4.52 4.52 0 1 1 4.52-4.52A4.52 4.52 0 0 1 25 66.72zm0-7a2.52 2.52 0 1 0 2.52 2.52A2.52 2.52 0 0 0 25 59.72z" fill="#6d6e71"/><path d="M14.33 63.2h-3a1 1 0 1 1 0-2h3a1 1 0 0 1 0 2z" fill="#6d6e71"/><path d="M85 61.88V129a2.3 2.3 0 0 0 2.3 2.3h65.21a2.31 2.31 0 0 0 2.3-2.3V61.88zm54 33.27c0 2.78-.19 5.25 1.26 6.84a2.46 2.46 0 0 1 .38 2.74 21.88 21.88 0 1 1 0-19.16 2.45 2.45 0 0 1-.38 2.73c-1.38 1.59-1.19 4.06-1.19 6.85z" fill="#fffefa"/><path d="M139.07 95.15c0-2.79-.19-5.26 1.26-6.85a2.45 2.45 0 0 0 .38-2.73 21.87 21.87 0 1 0 0 19.16 2.46 2.46 0 0 0-.38-2.74c-1.45-1.59-1.26-4.06-1.26-6.84zm-18 11.23a11.24 11.24 0 1 1 11.24-11.24 11.23 11.23 0 0 1-11.23 11.23z" fill="#d6b1d3"/><path d="M132.31 95.15a11.24 11.24 0 1 1-11.24-11.24 11.24 11.24 0 0 1 11.24 11.24z" fill="#b6e1e1"/><path d="M152.54 44.87h-65.2A2.3 2.3 0 0 0 85 47.13v14.75h69.81V47.17a2.3 2.3 0 0 0-2.27-2.3zm-47.16 10.59a.94.94 0 0 1-.94.94H91.15a.94.94 0 0 1-.93-.94v-4.18a.94.94 0 0 1 .93-.94h13.3a.94.94 0 0 1 .94.94zm39.43 2a3.66 3.66 0 1 1 3.66-3.66 3.66 3.66 0 0 1-3.66 3.66z" fill="#fffefa"/><circle cx="144.82" cy="53.75" r="3.66" fill="#fffefa"/><rect x="90.22" y="50.34" width="15.17" height="6.06" rx=".94" ry=".94" fill="#fffefa"/><path d="M152.53 132.51h-65.2a3.56 3.56 0 0 1-3.55-3.51V47.17a3.56 3.56 0 0 1 3.55-3.55h65.2a3.56 3.56 0 0 1 3.55 3.55V129a3.56 3.56 0 0 1-3.55 3.51zm-65.2-86.4a1 1 0 0 0-1.05 1V129a1.06 1.06 0 0 0 1.05 1h65.2a1.06 1.06 0 0 0 1.05-1.05V47.17a1.06 1.06 0 0 0-1.05-1z" fill="#6d6e71"/><path d="M121.06 107.88a12.74 12.74 0 1 1 12.74-12.74 12.75 12.75 0 0 1-12.74 12.74zm0-22.48a9.74 9.74 0 1 0 9.74 9.74 9.74 9.74 0 0 0-9.74-9.74z" fill="#6d6e71"/><path d="M121.06 118.52a23.37 23.37 0 1 1 21-33.6 3.93 3.93 0 0 1-.62 4.4c-.9 1-.89 2.84-.87 5V96c0 2.14 0 4 .87 5a3.94 3.94 0 0 1 .62 4.41 23.21 23.21 0 0 1-21 13.11zm0-43.75a15 15 0 0 0-2 .09 20.37 20.37 0 1 0 20.28 29.2 1 1 0 0 0-.14-1.07c-1.69-1.86-1.67-4.36-1.66-7v-1.68c0-2.66 0-5.16 1.66-7a1 1 0 0 0 .14-1.06 20.23 20.23 0 0 0-18.27-11.48z" fill="#6d6e71"/><path d="M156.09 63.13H83.78v-16a3.56 3.56 0 0 1 3.55-3.55h65.2a3.56 3.56 0 0 1 3.55 3.55zm-69.81-2.5h67.31V47.17a1.06 1.06 0 0 0-1.05-1H87.33a1 1 0 0 0-1.05 1z" fill="#6d6e71"/><path d="M144.81 58.41a4.66 4.66 0 1 1 4.66-4.66 4.66 4.66 0 0 1-4.66 4.66zm0-7.32a2.66 2.66 0 1 0 2.66 2.66 2.66 2.66 0 0 0-2.66-2.66z" fill="#6d6e71"/><path d="M104.45 57.4h-13.3a1.94 1.94 0 0 1-1.94-1.94v-4.18a1.94 1.94 0 0 1 1.94-1.94h13.3a1.94 1.94 0 0 1 1.94 1.94v4.18a1.94 1.94 0 0 1-1.94 1.94zm-.06-6.12l-13.24.06.06 4.12 13.18-.06zm.06 4.12z" fill="#6d6e71"/><path fill="#6d6e71" d="M111.84 52.25h3.04v3h-3.04z"/><path fill="#6d6e71" d="M117.91 52.25h3.04v3h-3.04z"/><path fill="#6d6e71" d="M123.98 52.25h3.04v3h-3.04z"/><path fill="#6d6e71" d="M130.05 52.25h3.04v3h-3.04z"/><path d="M115.17 41.89v91.77a3.5 3.5 0 0 1-3.5 3.5H42.06a3.5 3.5 0 0 1-3.5-3.5V41.89z" fill="#fffefa"/><path d="M115.17 5v36.89H38.56V5a3.5 3.5 0 0 1 3.5-3.5h69.61a3.5 3.5 0 0 1 3.5 3.5z" fill="#fffefa"/><path d="M111.66 138.66h-69.6a5 5 0 0 1-5-5V5a5 5 0 0 1 5-5h69.6a5 5 0 0 1 5 5v128.66a5 5 0 0 1-5 5zM42.06 3a2 2 0 0 0-2 2v128.66a2 2 0 0 0 2 2h69.6a2 2 0 0 0 2-2V5a2 2 0 0 0-2-2z" fill="#6d6e71"/><path fill="#6d6e71" d="M38.55 40.64h76.61v2.5H38.55z"/><path d="M46.42 89.9a1.25 1.25 0 0 1-1.25-1.25V50.93a1.25 1.25 0 0 1 2.5 0v37.72a1.25 1.25 0 0 1-1.25 1.25z" fill="#6d6e71"/><path d="M46.42 33.28A1.25 1.25 0 0 1 45.17 32v-8.1a1.25 1.25 0 0 1 2.5 0V32a1.25 1.25 0 0 1-1.22 1.28z" fill="#6d6e71"/></g></g></g></g></svg>