<svg xmlns="http://www.w3.org/2000/svg" viewBox="-0.006000041961669922 0 107.17999267578125 85.77999877929688"><title>Depositphotos_80468470_11</title><g data-name="Layer 2"><g data-name="Layer 1"><g data-name="Layer 2"><g data-name="ëÎÓÈ 2"><path d="M39.09 28.28a17.77 17.77 0 1 0-27.33 15l.89.53a16.08 16.08 0 0 1 1.77 1.38C16.69 47.55 17 50.9 17 53.78h8.41c0-3.35.56-7.36 4.06-9.68a17.76 17.76 0 0 0 9.62-15.82z" fill="#fdeb65"/><path d="M27.41 55.68c0 1-.61 1.9-1.36 1.9h-9.48c-.75 0-1.36-.85-1.36-1.9s.61-1.91 1.36-1.91H26c.8.01 1.41.86 1.41 1.91z" fill="#fff"/><path d="M27.41 59.49c0 1-.61 1.91-1.36 1.91h-9.48c-.75 0-1.36-.86-1.36-1.91s.61-1.91 1.36-1.91H26c.8.01 1.41.86 1.41 1.91z" fill="#fff"/><path d="M26.06 61.4h-9.49c-.75 0-1.36.85-1.36 1.9s.61 1.9 1.36 1.9h2.57a2.18 2.18 0 1 0 4.35 0h2.57c.75 0 1.36-.85 1.36-1.9s-.62-1.9-1.36-1.9z" fill="#fff"/><path d="M26.06 61.4v-.68h-9.49a1.88 1.88 0 0 0-1.51.84 3.16 3.16 0 0 0 0 3.48 1.87 1.87 0 0 0 1.51.84h2.57v-.68h-.68a2.86 2.86 0 0 0 5.71 0h-.68v.68h2.57a1.87 1.87 0 0 0 1.51-.88 3.16 3.16 0 0 0 0-3.48 1.87 1.87 0 0 0-1.51-.84V62a.53.53 0 0 1 .4.27 1.8 1.8 0 0 1 0 1.9c-.16.22-.3.27-.4.27h-3.25v.68a1.5 1.5 0 0 1-3 0v-.68h-3.24a.53.53 0 0 1-.4-.27 1.81 1.81 0 0 1 0-1.9c.16-.22.3-.27.4-.27H26z" fill="#939598"/><path d="M85.87 10.51a17.77 17.77 0 0 0-9.55 32.76l.89.53A16.09 16.09 0 0 1 79 45.18c2.27 2.37 2.54 5.72 2.54 8.59h8.41c0-3.35.56-7.36 4.06-9.68a17.77 17.77 0 0 0-8.12-33.59z" fill="#d6b1d3"/><path d="M21.32 11.19a17.09 17.09 0 0 0-9.19 31.51c.28.18.57.35.86.52l.72.52a9.94 9.94 0 0 1 1.15 1c2.29 2.4 2.67 5.62 2.72 8.38h7.07a16.12 16.12 0 0 1 .74-4.76A9.1 9.1 0 0 1 29 43.55a17.09 17.09 0 0 0-7.8-32.3z" fill="#fdeb65"/><path d="M98 16.19a17.09 17.09 0 1 0-21.27 26.5c.28.18.57.35.86.52l.72.52a10 10 0 0 1 1.15 1c2.29 2.4 2.67 5.62 2.72 8.38h7.07a16.09 16.09 0 0 1 .75-4.78 9.1 9.1 0 0 1 3.61-4.81A17.09 17.09 0 0 0 98 16.19z" fill="#d6b1d3"/><path d="M21.32 9.82a18.45 18.45 0 0 0-9.92 34l.88.52s.31.21.67.48a9.64 9.64 0 0 1 1 .81c2.06 2.13 2.36 5.28 2.35 8.12v.68h9.77v-.68a15.76 15.76 0 0 1 .68-5 7.71 7.71 0 0 1 3.07-4.1 18.45 18.45 0 0 0-8.5-34.83zm7.8 33.66a9.1 9.1 0 0 0-3.61 4.81 16.12 16.12 0 0 0-.74 4.76h-7.14c0-2.76-.43-6-2.72-8.38a9.94 9.94 0 0 0-1.15-1l-.76-.43c-.29-.16-.58-.34-.86-.52a17.09 17.09 0 1 1 17 .79z" fill="#939598"/><path d="M85.87 9.82a18.46 18.46 0 0 0-9.92 34c.28.18.58.36.88.52 0 0 .31.21.67.48a9.62 9.62 0 0 1 1 .81c2.06 2.13 2.36 5.28 2.35 8.12v.68h9.77v-.68a15.76 15.76 0 0 1 .68-5 7.71 7.71 0 0 1 3.06-4.1 18.45 18.45 0 0 0-8.49-34.83zm7.8 33.66A9.1 9.1 0 0 0 90 48.33a16.09 16.09 0 0 0-.74 4.76h-7.07c-.05-2.76-.43-6-2.72-8.38a10 10 0 0 0-1.15-1l-.72-.52c-.29-.16-.58-.34-.86-.52a17.09 17.09 0 1 1 17 .79z" fill="#939598"/><path d="M82.62 26.36a2.7 2.7 0 0 1 2.44-2.77V22h1.66v1.59a5.51 5.51 0 0 1 2.08.69L88.15 26a3.63 3.63 0 0 0-1.95-.58c-.95 0-1.39.34-1.39.88s.39.94 1.81 1.59c1.84.84 2.71 1.77 2.71 3.35a3 3 0 0 1-2.61 3.06v1.6h-1.66v-1.56a6.17 6.17 0 0 1-2.67-.83l.61-1.74a4.41 4.41 0 0 0 2.4.74c1 0 1.69-.42 1.69-1.15s-.55-1.21-1.84-1.77c-2.02-.91-2.63-1.88-2.63-3.23z" fill="#939598"/><path d="M92 55.68c0 1-.61 1.9-1.36 1.9h-9.52c-.75 0-1.36-.85-1.36-1.9s.61-1.91 1.36-1.91h9.48c.76.01 1.4.86 1.4 1.91z" fill="#fff"/><path d="M90.61 54.46h-9.48a.56.56 0 0 0-.41.27 1.82 1.82 0 0 0 0 1.9c.16.22.3.27.41.27h9.48a.53.53 0 0 0 .4-.27 1.81 1.81 0 0 0 0-1.9c-.16-.22-.3-.27-.4-.27z" fill="#fff"/><path d="M26.06 54.46h-9.49a.5.5 0 0 0-.4.27 1.82 1.82 0 0 0 0 1.9c.16.22.3.27.4.27H26a.53.53 0 0 0 .4-.27 1.81 1.81 0 0 0 0-1.9c-.1-.22-.24-.27-.34-.27z" fill="#fff"/><path d="M26.06 53.09h-9.49a1.88 1.88 0 0 0-1.51.84 3.16 3.16 0 0 0 0 3.49 1.88 1.88 0 0 0 1.51.84H26a1.88 1.88 0 0 0 1.51-.84 3.16 3.16 0 0 0 0-3.49 1.87 1.87 0 0 0-1.45-.84zm.4 3.54c-.16.22-.3.27-.4.27h-9.49a.53.53 0 0 1-.4-.27 1.82 1.82 0 0 1 0-1.9c.16-.22.3-.27.4-.27H26a.53.53 0 0 1 .4.27 1.81 1.81 0 0 1 0 1.9z" fill="#939598"/><path d="M92.12 53.94a1.87 1.87 0 0 0-1.51-.84h-9.48a1.88 1.88 0 0 0-1.52.84 3.16 3.16 0 0 0 0 3.49 1.88 1.88 0 0 0 1.52.84h9.48a1.88 1.88 0 0 0 1.51-.84 3.16 3.16 0 0 0 0-3.49zM91 56.63c-.16.22-.3.27-.4.27h-9.47a.56.56 0 0 1-.41-.27 1.82 1.82 0 0 1 0-1.9c.16-.22.3-.27.41-.27h9.48a.53.53 0 0 1 .4.27 1.81 1.81 0 0 1 0 1.9z" fill="#939598"/><path d="M92 59.49c0 1-.61 1.91-1.36 1.91h-9.52c-.75 0-1.36-.86-1.36-1.91s.61-1.91 1.36-1.91h9.48c.76.01 1.4.86 1.4 1.91z" fill="#fff"/><path d="M26.06 58.27h-9.49a.5.5 0 0 0-.4.27 1.81 1.81 0 0 0 0 1.91c.16.22.3.27.4.27H26a.53.53 0 0 0 .4-.27 1.81 1.81 0 0 0 0-1.91c-.1-.22-.24-.27-.34-.27z" fill="#fff"/><path d="M90.61 58.27h-9.48a.56.56 0 0 0-.41.27 1.81 1.81 0 0 0 0 1.91c.16.22.3.27.4.27h9.48a.53.53 0 0 0 .4-.27 1.81 1.81 0 0 0 0-1.91c-.15-.22-.29-.27-.39-.27z" fill="#fff"/><path d="M26.06 56.9h-9.49a1.88 1.88 0 0 0-1.51.84 3.17 3.17 0 0 0 0 3.49 1.88 1.88 0 0 0 1.51.85H26a1.88 1.88 0 0 0 1.51-.85 3.16 3.16 0 0 0 0-3.49 1.87 1.87 0 0 0-1.45-.84zm.4 3.54c-.16.22-.3.27-.4.27h-9.49c-.1 0-.24-.06-.4-.27a1.81 1.81 0 0 1 0-1.91c.16-.22.3-.27.4-.27H26a.53.53 0 0 1 .4.27 1.81 1.81 0 0 1 0 1.91z" fill="#939598"/><path d="M92.12 57.75a1.87 1.87 0 0 0-1.51-.84h-9.48a1.88 1.88 0 0 0-1.52.84 3.17 3.17 0 0 0 0 3.49 1.88 1.88 0 0 0 1.52.85h9.48a1.88 1.88 0 0 0 1.51-.85 3.16 3.16 0 0 0 0-3.49zM91 60.45c-.16.22-.3.27-.4.27h-9.47a.53.53 0 0 1-.4-.27 1.81 1.81 0 0 1 0-1.91c.16-.22.3-.27.41-.27h9.48a.53.53 0 0 1 .4.27 1.81 1.81 0 0 1 0 1.91z" fill="#939598"/><path d="M90.61 61.4h-9.49c-.75 0-1.36.85-1.36 1.9s.61 1.9 1.36 1.9h2.57a2.17 2.17 0 0 0 4.35 0h2.57c.75 0 1.36-.85 1.36-1.9s-.61-1.9-1.36-1.9z" fill="#fff"/><path d="M90.61 61.4v-.68h-9.49a1.88 1.88 0 0 0-1.52.84 3.16 3.16 0 0 0 0 3.48 1.88 1.88 0 0 0 1.52.84h2.57v-.68H83a2.86 2.86 0 0 0 5.71 0H88v.68h2.57a1.87 1.87 0 0 0 1.55-.88 3.16 3.16 0 0 0 0-3.48 1.87 1.87 0 0 0-1.51-.84V62a.53.53 0 0 1 .4.27 1.8 1.8 0 0 1 0 1.9c-.16.22-.3.27-.4.27h-3.25v.68a1.5 1.5 0 0 1-3 0v-.68h-3.24a.56.56 0 0 1-.41-.27 1.81 1.81 0 0 1 0-1.9c.16-.21.3-.27.41-.27h9.48z" fill="#939598"/><path fill="#939598" d="M85.19 67.38v5.71H22v-5.71h-1.37v7.07h65.92v-7.07h-1.36z"/><path fill="#939598" d="M20.79 53.28l-1.21-8.72-1.2-8.72-1.09-7.95h8.05l-1.09 7.95-1.2 8.72-1.21 8.72 1.35.19 1.2-8.72 1.21-8.73 1.31-9.5H15.72l1.31 9.5 1.2 8.73 1.21 8.72 1.35-.19z"/><circle cx="53.59" cy="72.48" r="12.61" fill="#fff"/><path d="M53.59 60.54A11.93 11.93 0 1 0 62 64a11.93 11.93 0 0 0-8.41-3.46z" fill="#fff"/><path d="M53.59 59.18a13.3 13.3 0 1 0 13.3 13.3 13.29 13.29 0 0 0-13.29-13.3zM62 80.91a11.93 11.93 0 1 1 3.5-8.44 11.93 11.93 0 0 1-3.5 8.44z" fill="#939598"/><path fill="#939598" d="M20.63 0h1.36v8.03h-1.36z"/><path fill="#939598" d="M35.992 13.95l5.671-5.67.962.961-5.67 5.671z"/><path fill="#939598" d="M-.006 9.25l.961-.961 5.678 5.678-.961.961z"/><path fill="#939598" d="M75.2 28.25h1.48v1.36H75.2z"/><path fill="#939598" d="M95.05 28.25h1.47v1.36h-1.47z"/><path fill="#939598" d="M85.18 0h1.36v8.03h-1.36z"/><path fill="#939598" d="M100.54 13.958l5.672-5.67.962.962-5.672 5.67z"/><path fill="#939598" d="M64.552 9.253l.962-.962 5.677 5.68-.962.96z"/><path fill="#939598" d="M17.71 17.19h7.22v1.36h-7.22z"/><path fill="#939598" d="M14.25 20.8h14.13v1.36H14.25z"/><path fill="#939598" d="M49.45 70.33h8.28v1.36h-8.28z"/><path fill="#939598" d="M45.48 74.47h16.21v1.36H45.48z"/></g></g></g></g></svg>