<svg xmlns="http://www.w3.org/2000/svg" viewBox="-0.21789169311523438 0 138.92788696289062 167.91000366210938"><title>Depositphotos_113825554_09</title><g data-name="Layer 2"><g data-name="Layer 1"><g data-name="Layer 2"><g data-name="ÎÓÈ 1"><path d="M79.26 49.48C76.47 32 65.63 11.69 62.59 6.23c-3 5.45-13.88 25.79-16.68 43.25-3 18.88 5.45 28.07 16.68 28.49 11.23-.41 19.7-9.61 16.67-28.49z" fill="#ef4247"/><path d="M53.55 37.19h-.18a.56.56 0 0 1-.35-.71c2.4-7.11 7.21-17.3 7.26-17.4a.56.56 0 1 1 1 .48c0 .1-4.82 10.24-7.21 17.28a.56.56 0 0 1-.52.35z" fill="#ef4247"/><path d="M52.1 41.5h-.18a.56.56 0 0 1-.35-.71l.64-1.89a.56.56 0 1 1 1.07.33l-.64 1.89a.56.56 0 0 1-.54.38z" fill="#ef4247"/><path d="M61.28 75.82h-.12a.5.5 0 0 1 0-1h.11C75 74.82 76.63 60.1 76.64 60a.5.5 0 0 1 1 .1c-.01.11-1.71 15.72-16.36 15.72z" fill="#f8b0b5"/><path d="M58.57 75.53a5.38 5.38 0 0 1-2.68-1 .5.5 0 1 1 .59-.81 4.42 4.42 0 0 0 2.09.79.5.5 0 1 1 0 1z" fill="#f8b0b5"/><path d="M84.91 84.07c-.7-4.37-3.42-9.47-4.18-10.84-.73 1.37-3.48 6.47-4.18 10.84-.76 4.73 1.37 7 4.18 7.14 2.81-.1 4.94-2.41 4.18-7.14z" fill="#ef4247"/><path d="M47 15.85C46 9.45 42 2 40.87 0c-1.11 2-5.09 9.45-6.11 15.85-1.11 6.92 2 10.29 6.11 10.44 4.13-.15 7.22-3.52 6.13-10.44z" fill="#ef4247"/><path d="M136 167.88a1.91 1.91 0 0 1-2-1.82v-23.23c.81-18.34-14.27-27.24-27.06-31.48a63.17 63.17 0 0 0-9.68-2.44 1.91 1.91 0 0 1-.54-.16l-1.11-.52c-4.5-2.06-8.62-3.8-12.29-5.19-1.81-.69-3.45-1.28-5-1.8h-.12c-6.53-2.2-12-3.4-16.34-3.57-3.85-.15-8.67.5-9.76 4.4a6.55 6.55 0 0 0-.23 1.8l54.52 17.89a1.91 1.91 0 1 1-1.19 3.63l-55.7-18.28a1.91 1.91 0 0 1-1.27-1.39 10.21 10.21 0 0 1 .19-4.68C49.21 98.2 52 93.49 62 93.85c4.66.18 10.48 1.44 17.32 3.73h.1c1.63.54 3.35 1.16 5.24 1.88 3.74 1.42 7.95 3.2 12.5 5.28l.92.42a67.88 67.88 0 0 1 10 2.55c11.49 3.81 30.63 13.46 29.67 35.18V166a1.91 1.91 0 0 1-1.91 1.91h.16z" fill="#fff"/><path d="M93.62 167.88a1.91 1.91 0 0 1-1.91-1.88c0-19.85-8.69-21.38-8.77-21.4l-53.55-6.4a1.91 1.91 0 0 1-1.45-1L.23 86.68a1.91 1.91 0 0 1 .5-2.42 12.52 12.52 0 0 1 11.46-2.59c12.37 3.38 22.18 25.33 24.36 30.54l58.25 6.17a1.91 1.91 0 0 1-.4 3.8l-59.4-6.3a1.91 1.91 0 0 1-1.58-1.2c-.1-.26-10.33-26.07-22.26-29.33a8.35 8.35 0 0 0-6.77 1l26.41 48.18 52.59 6.26c.48.05 12.12 1.63 12.12 25.19a1.91 1.91 0 0 1-1.89 1.9z" fill="#fff"/><path d="M74.78 115.3h-.23l-33.9-3.69a1.91 1.91 0 0 1-1.57-1.2s-.89-2.25-2.4-5.44l-.08-.16a96.82 96.82 0 0 0-5.77-10.45l-.08-.13c-5.14-8-10.27-12.6-14.84-13.37A8.38 8.38 0 0 0 10 82.09a1.91 1.91 0 0 1-3.44 1.66l-.71-1.44A1.91 1.91 0 0 1 6.38 80a12.65 12.65 0 0 1 10.19-2.86c5.76 1 11.64 6.09 17.48 15.19l.08.13A100.67 100.67 0 0 1 40 103l.09.17c1 2.07 1.71 3.75 2.14 4.77L75 111.49a1.91 1.91 0 0 1-.16 3.81z" fill="#fff"/></g></g></g></g></svg>