<svg xmlns="http://www.w3.org/2000/svg" xmlns:xlink="http://www.w3.org/1999/xlink" viewBox="-0.5900001525878906 -0.26999998092651367 85.96000671386719 138.07000732421875"><defs><radialGradient id="a" cx="-286.65" cy="948.89" r="2.13" gradientTransform="matrix(.72 -.7 .7 .72 -415.97 -866.24)" gradientUnits="userSpaceOnUse"><stop offset=".57" stop-color="#161412"/><stop offset=".8" stop-color="#161412"/><stop offset="1" stop-color="#161412"/></radialGradient><radialGradient id="b" cx="2778.59" cy="-810.13" r="2.13" gradientTransform="matrix(.24 .97 .97 -.24 133.1 -2768.92)" xlink:href="#a"/></defs><title>Depositphotos_102901012_03</title><g data-name="Layer 2"><g data-name="—ÎÓÈ_1"><path d="M63.62 37a4.53 4.53 0 0 0-1.68.29 4.13 4.13 0 0 1-1.1.4c-.46 0-.8-.31-1.24-.41a4.05 4.05 0 0 0-1.4-.1 6.19 6.19 0 0 0-2.74 1.39c-.87.63-1.77 1.23-2.59 1.92a19.74 19.74 0 0 0-1.6 1.51c-3.16 2.74-5.66 8.44-7.62 14.45-1.8 5.5-3.21 11.22-3.21 16a5.39 5.39 0 0 1 3.09 2.86 42.18 42.18 0 0 0 8.08 1.37A38.93 38.93 0 0 0 58 77c3.78 0 7.37-1.36 10.82-2.84 1.83-.78 3.6-1.66 5.36-2.59A20.05 20.05 0 0 0 79.36 68a30.2 30.2 0 0 0 2.15-2.45 2.22 2.22 0 0 0 .57-1.25 4.47 4.47 0 0 1 .29-1.3c.83-1.87 3-2.85 2-5.21-.33-.83-1.25-1.49-1.72-2.27a3.4 3.4 0 0 1-.49-2.68c.23-1 .84-2.19 0-2.77-.65-.43-1.73-.73-2.19-1.4s1.41-3.18.94-3.79-4.32.21-5.47-.38c-.69-.35-.34-1.53-1-2.12s-3.12-.23-4-.83-.77-1.54-1.6-2c-.54-.29-1.21-.25-1.72-.63s-.67-.77-1.07-1.09a4.28 4.28 0 0 0-2.43-.83z"/><path d="M57 39.61a37.93 37.93 0 0 0-6 8A28.25 28.25 0 0 1 52.5 45a38.78 38.78 0 0 1 3.24-4.3c.33-.37 1.31-1 1-1.59a.81.81 0 0 0-1-.32A23 23 0 0 0 48 46.27c-.19.34-.37.69-.53 1-1.48 3.28-2.6 6.75-3.84 10.12A52.74 52.74 0 0 0 41 68a22.4 22.4 0 0 0-.29 2.53v1.9a6.56 6.56 0 0 1 .91.42c.27-.31.52-.69.62-.81a32.84 32.84 0 0 0 5.07-7.93C48.58 61 48.84 57.54 50 54.4a28.16 28.16 0 0 1 2.37-4.67c.91-1.48 1.75-3 2.79-4.37s2.05-2.72 3.08-4.09c.3-.4 1.45-1.54.87-2.07s-1.63-.02-2.11.41z" fill="#c12208"/><path d="M60.61 38.94a12 12 0 0 0-2.24 2.41c-.7.87-1.38 1.76-2 2.65a63.34 63.34 0 0 0-3.9 5.84 25.44 25.44 0 0 0-2.87 6.42c-.26 1-.46 2.09-.72 3.13-.12.47-.9 2.19-.05 2.31.68.09 1.54-1 2-1.39a10.16 10.16 0 0 0 1.17-.84 6.85 6.85 0 0 0 1-1.36c1.26-2.1 2.55-4.15 3.92-6.18a55.33 55.33 0 0 1 4.64-6.48c.86-.95 1.83-1.79 2.75-2.67s2.18-1.75 1.72-3c-.73-2-2.93.34-3.67 1.12A60.82 60.82 0 0 0 58 46.06a61.56 61.56 0 0 1 4.25-5.11c.46-.52 1.81-1.76 1.19-2.56s-2.25.14-2.83.55z" fill="#c12208"/><path d="M65.82 41.81c-.7.47-1.28 1.14-2 1.66A16.16 16.16 0 0 0 62 45.16a37.22 37.22 0 0 0-3.81 5q-1.74 2.61-3.44 5.25c-.61.95-1.2 1.89-1.72 2.9-.1.19-.65 1-.61 1.18.07.42.73.21 1 .12a7.23 7.23 0 0 0 2-1 10.47 10.47 0 0 0 2-2.25c1.12-1.36 2.36-2.63 3.56-3.92a41.17 41.17 0 0 1 5.09-4.6c.89-.68 1.83-1.3 2.75-1.93s2.14-1.25 2.6-2.43c.22-.64-.58-1.24-1.15-1.19a5.1 5.1 0 0 0-2.11 1.06 52.63 52.63 0 0 0-4.12 3.49c.69-.69 1.39-1.38 2.12-2s1.84-1.34 2.71-2.05.68-1.3-.37-1.46a3.77 3.77 0 0 0-2.68.48z" fill="#c12208"/><path d="M74.75 45.58c.29-.64-.55-1.21-1-1.38-1.47-.49-4.22 1.57-5.38 2.31a35.58 35.58 0 0 0-3.9 2.9c-1.11.94-2.17 2-3.22 3s-1.9 2.22-2.85 3.33-2 2.61-3.41 3.36-3.2 1-4.62 1.93c-.52.36-1 .77-1.52 1.17a5.39 5.39 0 0 0-1.41 2.16A36.23 36.23 0 0 1 44.8 69a25 25 0 0 1-3.12 3.86 5.53 5.53 0 0 1 .9.67c2.66-2.12 5.21-4.36 7.93-6.41a20 20 0 0 1 2.24-1.55c.64-.36 1.3-.33 1.9-.78 1.21-.91 2.38-1.88 3.57-2.82a9.7 9.7 0 0 0 2.45-2.19 10 10 0 0 0 .46-1.17 10.94 10.94 0 0 1 .75-1.33 13.48 13.48 0 0 1 4.07-3.69 55.82 55.82 0 0 1 5.71-3c.93-.47 1.88-.91 2.81-1.37.57-.28 3.79-1.53 4.11-2.37.23-.61-.87-1.75-1.74-1.49a18 18 0 0 0-4.52 2.11c-1.44.92-2.85 1.87-4.3 2.77 1.25-.89 2.5-1.83 3.83-2.61.49-.3 2.65-1.5 2.9-2.05z" fill="#c12208"/><path d="M73 50.21q-2.11.94-4.2 1.94c-3 1.47-6 3.47-7.48 6.59-.24.5-.52 1.25.26 1.1A18.37 18.37 0 0 0 64 59c1.78-.6 3.57-1.16 5.37-1.7s3.85-1.11 5.76-1.7c1-.32 2-.68 3-1.08.78-.31 2.93-.85 3.19-1.78.13-.46-.08-1.32-.54-1.49a3.79 3.79 0 0 0-2.21.33c-1.45.68-3 1.23-4.45 1.82a41.33 41.33 0 0 0 5.49-2.5c1.65-1.08-.68-2.83-1.51-2.82-1.6.07-3.7 1.51-5.1 2.13z" fill="#c12208"/><path d="M76.69 55.22L73 56.46c-2.29.77-4.62 1.43-6.91 2.2a27.33 27.33 0 0 0-6.45 2.7c-1 .66-2 1.45-2.93 2.19-.27.21-2.4 1.61-2 1.91s2-.22 2.58-.32l3.69-.68c2.5-.45 5-1 7.48-1.47 2.85-.56 5.73-1 8.57-1.68 1-.23 2.08-.46 3.12-.71s2.55-.4 2.91-1.67c.26-.91-.55-1.57-1.42-1.56a9.3 9.3 0 0 0-2.49.68c-1.71.52-3.45 1-5.21 1.36 2-.61 4-1.21 6-1.75.81-.22 2.12-.36 2.26-1.37s-1-1.66-1.94-1.75a8.2 8.2 0 0 0-3.57.68z" fill="#c12208"/><path d="M77 61.48c-1.73.33-3.46.69-5.18 1.07-3.42.76-6.91 1.27-10.36 1.9-1.93.35-3.87.69-5.8 1.08a23 23 0 0 0-3.08.6c-1.94.68-3.54 2.41-5.14 3.69l-3.56 2.85a13 13 0 0 0-1.22.92 4.37 4.37 0 0 1 .51.57 9.82 9.82 0 0 0 .94-.41c1.33-.59 2.64-1.22 4-1.82a48.9 48.9 0 0 1 4.84-2 18.57 18.57 0 0 1 5.05-.68c2.15-.1 4.31-.37 6.45-.64 1.92-.24 3.88-.44 5.77-.84 3.61-.77 7.94-.65 10.78-3.27a.75.75 0 0 0 0-1.23c-.47-.28-1.3 0-1.8.12-1.42.24-2.84.51-4.27.73 1.87-.37 3.76-.67 5.61-1.1a3 3 0 0 0 1.95-1.15c.44-.58.76-1.25-.23-1.47a6.68 6.68 0 0 0-2.55.47c-.92.22-1.83.43-2.71.61z" fill="#c12208"/><path d="M73 67.4c-5 .82-10 1.57-15.12 1.94a19.4 19.4 0 0 0-4 .37 42.15 42.15 0 0 0-4.49 1.69c-1.28.53-2.54 1.14-3.79 1.73-.6.28-1.17.6-1.75.92a5.36 5.36 0 0 0-.59.38 3 3 0 0 1 .3.63l.26.1c1 .2 2.1.47 3.25.78s2.49.28 3.74.45a43.09 43.09 0 0 0 7.41.46 12.13 12.13 0 0 0 3.56-.49l4.39-1.56A51.32 51.32 0 0 0 73 72c2.18-1.15 4.93-2.28 6.26-4.49.9-1.49-1.22-1.14-2-.95-1.4.33-2.82.61-4.26.84z" fill="#c12208"/><path d="M47.39 69.82l-3.56 2.85a13 13 0 0 0-1.22.92 4.39 4.39 0 0 1 .51.57 9.77 9.77 0 0 0 .94-.42c1.33-.59 2.64-1.22 4-1.82a48.92 48.92 0 0 1 4.84-2 18.58 18.58 0 0 1 5.1-.67c.66 0 1.32-.08 2-.14-3-.11-6.54-2.93-5.65-3.38a10 10 0 0 0-1.82.39c-1.93.68-3.53 2.41-5.14 3.7z" fill="#b65920"/><path d="M60 69.14c-.72.07-1.44.14-2.16.19a19.39 19.39 0 0 0-4 .37 42.18 42.18 0 0 0-4.49 1.69c-1.28.53-2.54 1.14-3.79 1.73-.6.28-1.17.6-1.75.92a5.36 5.36 0 0 0-.59.38 3.05 3.05 0 0 1 .3.63l.26.1c1 .2 2.1.47 3.25.78s2.49.28 3.74.45a43.09 43.09 0 0 0 7.41.46 12.13 12.13 0 0 0 3.56-.49l4.39-1.56A51.35 51.35 0 0 0 73 72l.77-.4C68.6 72.36 61 71 60 69.14z" fill="#b65920"/><path d="M57 39.61a37.93 37.93 0 0 0-6 8A28.25 28.25 0 0 1 52.5 45a38.78 38.78 0 0 1 3.24-4.3c.33-.37 1.31-1 1-1.59a.81.81 0 0 0-1-.32A23 23 0 0 0 48 46.27c-.19.34-.37.69-.53 1-1.48 3.28-2.6 6.75-3.84 10.12A52.74 52.74 0 0 0 41 68a22.4 22.4 0 0 0-.29 2.53v1.9a6.56 6.56 0 0 1 .91.42c.27-.31.52-.69.62-.81a32.84 32.84 0 0 0 5.07-7.93C48.58 61 48.84 57.54 50 54.4a28.16 28.16 0 0 1 2.37-4.67c.91-1.48 1.75-3 2.79-4.37s2.05-2.72 3.08-4.09c.3-.4 1.45-1.54.87-2.07s-1.63-.02-2.11.41z" fill="#9e7b47"/><path d="M60.61 38.94a12 12 0 0 0-2.24 2.41c-.7.87-1.38 1.76-2 2.65a63.34 63.34 0 0 0-3.9 5.84 25.44 25.44 0 0 0-2.87 6.42c-.26 1-.46 2.09-.72 3.13-.12.47-.9 2.19-.05 2.31.68.09 1.54-1 2-1.39a10.16 10.16 0 0 0 1.17-.84 6.85 6.85 0 0 0 1-1.36c1.26-2.1 2.55-4.15 3.92-6.18a55.33 55.33 0 0 1 4.64-6.48c.86-.95 1.83-1.79 2.75-2.67s2.18-1.75 1.72-3c-.73-2-2.93.34-3.67 1.12A60.82 60.82 0 0 0 58 46.06a61.56 61.56 0 0 1 4.25-5.11c.46-.52 1.81-1.76 1.19-2.56s-2.25.14-2.83.55z" fill="#9e7b47"/><path d="M65.82 41.81c-.7.47-1.28 1.14-2 1.66A16.16 16.16 0 0 0 62 45.16a37.22 37.22 0 0 0-3.81 5q-1.74 2.61-3.44 5.25c-.61.95-1.2 1.89-1.72 2.9-.1.19-.65 1-.61 1.18.07.42.73.21 1 .12a7.23 7.23 0 0 0 2-1 10.47 10.47 0 0 0 2-2.25c1.12-1.36 2.36-2.63 3.56-3.92a41.17 41.17 0 0 1 5.09-4.6c.89-.68 1.83-1.3 2.75-1.93s2.14-1.25 2.6-2.43c.22-.64-.58-1.24-1.15-1.19a5.1 5.1 0 0 0-2.11 1.06 52.63 52.63 0 0 0-4.12 3.49c.69-.69 1.39-1.38 2.12-2s1.84-1.34 2.71-2.05.68-1.3-.37-1.46a3.77 3.77 0 0 0-2.68.48z" fill="#9e7b47"/><path d="M74.75 45.58c.29-.64-.55-1.21-1-1.38-1.47-.49-4.22 1.57-5.38 2.31a35.59 35.59 0 0 0-3.9 2.9c-1.11.94-2.17 2-3.22 3s-1.9 2.22-2.85 3.33-2 2.61-3.41 3.36-3.2 1-4.62 1.93c-.52.36-1 .77-1.52 1.17a5.39 5.39 0 0 0-1.41 2.16A36.23 36.23 0 0 1 44.8 69a25 25 0 0 1-3.12 3.86 6.1 6.1 0 0 1 .9.67c.55-.44 2.08-1.66 3-2.42 1.64-1.35 3.27-2.71 5-4a20 20 0 0 1 2.24-1.55c.64-.36 1.3-.33 1.9-.78 1.21-.91 2.38-1.88 3.57-2.82a9.69 9.69 0 0 0 2.45-2.19 10 10 0 0 0 .46-1.17 10.94 10.94 0 0 1 .75-1.33 13.48 13.48 0 0 1 4.07-3.69 55.82 55.82 0 0 1 5.71-3c.93-.47 1.88-.91 2.81-1.37.57-.28 3.79-1.53 4.11-2.37.23-.61-.87-1.75-1.74-1.49a18 18 0 0 0-4.52 2.11c-1.44.92-2.85 1.87-4.3 2.77 1.25-.89 2.5-1.83 3.83-2.61.42-.29 2.58-1.49 2.83-2.04z" fill="#9e7b47"/><path d="M50.42 53.48c.36-.84.78-1.65 1.22-2.44a8.46 8.46 0 0 1-2-6.64 3.09 3.09 0 0 0-.4.52 7.91 7.91 0 0 0 1.18 8.56z" fill="#f1e7d2"/><path d="M54.17 56.19q.79-1.28 1.61-2.54c-1.22.09-3.79-1.69-4.06-2.53-.43.8-.85 1.61-1.22 2.45a7.15 7.15 0 0 0 3.67 2.62z" fill="#f1e7d2"/><path d="M55.87 53.69l-1.14 1.74-.5.78a11.8 11.8 0 0 0 2.87.63l.34-.43c.53-.65 1.09-1.27 1.66-1.89a17.74 17.74 0 0 1-3.23-.83z" fill="#f1e7d2"/><path d="M58.36 55.72c-.32.37-.63.77-1 1.15a7.27 7.27 0 0 0 6.42-2.19 19 19 0 0 1-4.51-.13c-.27.4-.59.79-.91 1.17z" fill="#f1e7d2"/><path d="M43.8 57.17a18.63 18.63 0 0 0 4.84 2.29A42.23 42.23 0 0 1 50 54.55c-1.52-1.79-2.15-4-2.91-6.33-1.24 2.91-2.25 5.94-3.34 8.91z"/><path d="M49.56 56.27c-.26 1-.46 2.09-.72 3.13v.11a22.75 22.75 0 0 0 2.34.59 4.9 4.9 0 0 0 .86-.63 6.85 6.85 0 0 0 1-1.36l.57-.93a13 13 0 0 1-1.9-1.11 8.91 8.91 0 0 1-1.58-1.42 15.1 15.1 0 0 0-.57 1.62z"/><path d="M53 58.33c-.1.19-.65 1-.61 1.18.07.42.73.21 1 .12a7.23 7.23 0 0 0 2-1 4.37 4.37 0 0 0 .66-.57 13.24 13.24 0 0 1-2.48-.87c-.15.39-.36.81-.57 1.14z"/><path d="M54.94 59.08a27.28 27.28 0 0 1-3.06 1.15 15.49 15.49 0 0 0 9-.87c.08-.23.15-.47.25-.7 0-.07.07-.13.1-.2a15.83 15.83 0 0 1-5-.31 5.92 5.92 0 0 1-1.29.93z"/><path d="M51.65 42.51a7.29 7.29 0 0 0-.52 4.91A26.75 26.75 0 0 1 52.5 45a38.79 38.79 0 0 1 3.24-4.3 11.39 11.39 0 0 0 .85-.87 7.06 7.06 0 0 0-4.94 2.68z"/><path d="M51.14 47.44a7.2 7.2 0 0 0 1.2 2.39l.06-.11c.91-1.48 1.75-3 2.79-4.37s2.05-2.72 3.08-4.09a11 11 0 0 0 .79-1 13.74 13.74 0 0 0-2.28-.39 38.43 38.43 0 0 0-5.64 7.57z"/><path d="M56.33 44a63.33 63.33 0 0 0-3.89 5.84v.06a9.68 9.68 0 0 0 3.91 2.94l.6-.91a55.33 55.33 0 0 1 4.64-6.48c.86-.95 1.83-1.79 2.75-2.67l.08-.08a13.42 13.42 0 0 0-1.14-.77 12.88 12.88 0 0 0-1.28-.65 60 60 0 0 0-4 4.78 57.16 57.16 0 0 1 4-4.8 18 18 0 0 0-2.71-1c-.29.35-.57.71-.85 1.06q-1.12 1.34-2.11 2.68z"/><path d="M62 45.16a37.21 37.21 0 0 0-3.81 5c-.6.9-1.18 1.8-1.77 2.7a9.33 9.33 0 0 0 .95.33 12.48 12.48 0 0 0 2.59.41L61 52.49a41.16 41.16 0 0 1 5.09-4.6c.46-.35.93-.69 1.41-1a7.61 7.61 0 0 0-1-2.11c-.81.7-1.6 1.44-2.4 2.13.69-.69 1.39-1.38 2.12-2l.21-.18a9.28 9.28 0 0 0-1.8-1.83c-.23.21-.47.43-.72.62A16.16 16.16 0 0 0 62 45.16z"/><path d="M61.2 52.4a15.65 15.65 0 0 0-1.14 1.24c3.47 1.2 7.11-2 7.5-3.5a5.49 5.49 0 0 0 0-3.06v-.06a36.93 36.93 0 0 0-3.13 2.38c-1.11.94-2.18 1.99-3.23 3z"/><path d="M53.85 44c-.92 1.37-1.23 3.35-.48 4.15.57-.94 1.15-1.87 1.82-2.77 1-1.3 1.94-2.58 2.92-3.87A6.2 6.2 0 0 0 53.85 44z" fill="#adbcef"/><path d="M58.27 41.49c-.66.83-1.31 1.67-1.94 2.52-1 1.37-2 2.77-2.9 4.21.14 1.13 3.43 2.6 4.78 1.75a36.23 36.23 0 0 1 3.35-4.52c.64-.7 1.34-1.35 2-2a8.78 8.78 0 0 0-2.39-1.31A59.635 59.635 0 0 0 58 46.06a47.61 47.61 0 0 1 3.2-3.93 12.48 12.48 0 0 0-2.27-.59 4.85 4.85 0 0 0-.66-.05z" fill="#adbcef"/><path d="M58.32 50c1.76 0 3.74-1.83 4.56-2.94.55-.74 1.4-3 .85-3.44A16 16 0 0 0 62 45.16 36 36 0 0 0 58.32 50z" fill="#adbcef"/><path d="M65 51.38A4.14 4.14 0 0 0 66.59 48a62.32 62.32 0 0 0-5.4 4.56A4.4 4.4 0 0 0 65 51.38z" fill="#adbcef"/><path d="M73 50.21c-1.26.56-2.52 1.15-3.77 1.74 1.77-.6 4.19.57 4 1.77 1.57-.09 2.14 1.39 1.45 2.06l.46-.14c1-.32 2-.68 3-1.08.78-.31 2.93-.85 3.19-1.78.13-.46-.08-1.32-.54-1.49a3.79 3.79 0 0 0-2.21.33c-1.45.68-3 1.23-4.45 1.82a41.31 41.31 0 0 0 5.49-2.5c1.65-1.08-.68-2.83-1.51-2.82-1.61.03-3.71 1.47-5.11 2.09z" fill="#9e7b47"/><path d="M76.69 55.22l-1.87.62c1.91-.29 3.05 1.87 2.61 2.5.82-.24 1.63-.47 2.46-.69s2.12-.36 2.26-1.37-1-1.66-1.94-1.75a8.2 8.2 0 0 0-3.52.69z" fill="#9e7b47"/><path d="M79.08 58l-1.6.46a1.61 1.61 0 0 1 .29 2.61l2.3-.52c1.09-.26 2.55-.4 2.91-1.67.26-.91-.55-1.57-1.42-1.56a9.3 9.3 0 0 0-2.48.68z" fill="#9e7b47"/><path d="M77.75 61.31c.84.26.24 2-.44 2.36 1.08-.2 2.16-.4 3.22-.65a3 3 0 0 0 1.95-1.15c.44-.58.76-1.25-.23-1.47a6.68 6.68 0 0 0-2.55.47z" fill="#9e7b47"/><path d="M77.3 63.72c.55.2 0 2.3-1 3A10.09 10.09 0 0 0 81 64.5a.75.75 0 0 0 0-1.23c-.47-.28-1.3 0-1.8.12z" fill="#9e7b47"/><path d="M49.24 73.37c-1.76.49-3.71.63-5.39 1.28a1.48 1.48 0 0 1-.36.09 2.81 2.81 0 0 1 .13.31l.26.1c1 .2 2.1.47 3.25.78s2.49.28 3.74.45a43.09 43.09 0 0 0 7.41.46 12.13 12.13 0 0 0 3.56-.49l4.39-1.56c.95-.34 1.89-.68 2.83-1a71.7 71.7 0 0 0-13.48-1.31 27.14 27.14 0 0 0-6.34.89z" fill="#9e7b47"/><path d="M76.26 66.77c.26.8-.57 3.39-2.38 4.77 2-1 4.23-2.12 5.39-4 .9-1.49-1.22-1.14-2-.95z" fill="#9e7b47"/><path d="M74.4 55.87a44.65 44.65 0 0 0-12.67 3.8q6.36-2.23 12.67-3.8z" fill="#8e0d00"/><path d="M72.83 62a110.26 110.26 0 0 0-15.19 3q7.84-1.39 15.19-3z" fill="#8e0d00"/><path d="M76 66.64a38.31 38.31 0 0 0-7.75 1.29c2.92-.39 5.59-.81 7.75-1.29z" fill="#8e0d00"/><path d="M45 73.23a64 64 0 0 1 8.88-3.75c-2.35.25-5.45 1.75-8.88 3.75z" fill="#9e4412"/><path d="M47.88 61.72a44.4 44.4 0 0 1-6.2 10.66c3.65-4.38 5.44-7.75 6.2-10.66z" fill="#846134"/><path d="M47.74 69.15c2.43-2 4.79-3.93 5.89-4-1.48-.15-3.63 1.85-5.89 4z" fill="#846134"/><path d="M60.57 59.64a76.72 76.72 0 0 0-6 5.06c2.72-2.01 5.24-3.92 6-5.06z" fill="#846134"/><path d="M77.46 61.53l-13.6 2.69a72.81 72.81 0 0 0 13.6-2.69z" fill="#b65920"/><path d="M71.47 67.79c-3.8.66-7.51 1.19-11.1 1.53a41.32 41.32 0 0 0 11.1-1.53z" fill="#b65920"/><path d="M74.67 56l-7.27 2.36A30.34 30.34 0 0 0 74.67 56z" fill="#b65920"/><path d="M62.51 57a31.87 31.87 0 0 1 6.09-4.62A16.06 16.06 0 0 0 62.51 57z" fill="#b65920"/><path d="M51.9 66.52c-2.61 1.81-5.74 4.31-9.09 7.11a94.52 94.52 0 0 0 9.09-7.11z" fill="#e27030"/><path d="M58.83 69.46a14.94 14.94 0 0 0-7.64 1.36 28.35 28.35 0 0 1 7.64-1.36z" fill="#e27030"/><path d="M50.23 61.24c-2.4 1.57-2.75 3.65-4.7 6.75 2.06-2.6 2.69-5.19 4.7-6.75z" fill="#e2ac64"/><path d="M41.28 66.46c.66-2.88 1.51-6 2.49-9.2a47.44 47.44 0 0 0-2.49 9.2z" fill="#e2ac64"/><path d="M68.25 46.89a5.29 5.29 0 0 1 .29 2.66c1.03-1.05.69-2.44-.29-2.66z" fill="#f1e7d2"/><path d="M68.05 46.36a1.17 1.17 0 0 0-.94-1.86 5.33 5.33 0 0 1 .94 1.86z" fill="#f1e7d2"/><path d="M66.81 44.1c.39-.86-.45-1.78-1.59-1.62a4.87 4.87 0 0 1 1.59 1.62z" fill="#f1e7d2"/><path d="M64.86 42.05c.17-1.07-1-1.65-2.09-1.29a5.24 5.24 0 0 1 2.09 1.29z" fill="#f1e7d2"/><path d="M62.23 40.62c.11-.88-1.24-1.42-2.33-.87a5.65 5.65 0 0 1 2.33.87z" fill="#f1e7d2"/><path d="M56.92 39.43c.23-.76-.42-1.12-1.08-.84.66-.02 1.08.2 1.08.84z" fill="#9e7b47"/><path d="M57.2 39.32c1.26-.86 2.49-.49 2.19.45.68-1.18-.9-1.53-2.19-.45z" fill="#9e7b47"/><path d="M61.25 38.43c1.47-.86 2.82-.54 2.29.92.92-1.63-.77-1.94-2.29-.92z" fill="#9e7b47"/><path d="M64 39.21c1.66-1 2.59.23 2.12 1.75.94-1.88-.53-2.96-2.12-1.75z" fill="#9e7b47"/><path d="M69.62 42c.21-1.13-1.14-1.14-3.15-.69 2.1-.37 3.1-.11 3.15.69z" fill="#9e7b47"/><path d="M71.38 43.92c1-1.12.07-2.07-1.43-1.63 1.23-.29 2.18.59 1.43 1.63z" fill="#9e7b47"/><path d="M75 45.42c.31-1.19-.93-1.87-2.68-1.28 1.37-.39 2.6.1 2.68 1.28z" fill="#9e7b47"/><path d="M78.71 47c.64-1.34-.51-2-1.71-1.73 1-.09 1.94.55 1.71 1.73z" fill="#9e7b47"/><path d="M80.21 50.52c.56-1.31 0-2-1.85-2.48 1.31.43 2.29 1.29 1.85 2.48z" fill="#9e7b47"/><path d="M81.25 53.3c1-1 .42-2.17-.79-2.21 1 .12 1.35 1.1.79 2.21z" fill="#9e7b47"/><path d="M81.79 57.16c1.5-1.34.73-2.75-1.61-2.75 2.06.17 2.82 1.51 1.61 2.75z" fill="#9e7b47"/><path d="M82.22 60.08c1.85-1 1.44-2.63-.27-2.81 1.45.32 1.86 1.73.27 2.81z" fill="#9e7b47"/><path d="M81.31 62.94c2.21-1 2.76-2.38 1.08-2.68 1.34.4.72 1.74-1.08 2.68z" fill="#9e7b47"/><path d="M79.54 65.77c1.9-.93 2.9-1.83 1.58-2.67.88.9.09 1.77-1.58 2.67z" fill="#9e7b47"/><path d="M79 68.06c1.47-1.62 1-2.09-.57-1.84 1.49-.06 1.64.58.57 1.84z" fill="#9e7b47"/><path d="M67.58 52.43c3.54-1.88 6.92-3.54 10-4.9a41.94 41.94 0 0 0-10 4.9z" fill="#846134"/><path d="M69.3 49.14c1.59-1 3.27-2.12 5-3.34a16.41 16.41 0 0 0-5 3.34z" fill="#846134"/><path d="M75.06 55.56c1.59-.5 3.45-1.21 5.42-2a15.1 15.1 0 0 0-5.42 2z" fill="#846134"/><path d="M81 57.27a7.88 7.88 0 0 0-3.34.93z" fill="#846134"/><path d="M68 73.82a54 54 0 0 0-16.58-.66 140.36 140.36 0 0 1 16.58.66z" fill="#b65920"/><path d="M64.35 75.17c-4 1.11-8.91 1.27-14.32.89 6.07.94 10.88.66 14.32-.89z" fill="#846134"/><path d="M74.67 71c1.58-1.35 2.23-2.71 1.76-4.1a5.48 5.48 0 0 1-1.76 4.1z" fill="#c12208"/><path d="M76.57 66.58c1.16-1.21 1.48-2.17.9-2.86q.53 1.08-.9 2.86z" fill="#c12208"/><path d="M77.58 63.52c1-.87 1.19-1.81.35-2.19.6.46.41 1.22-.35 2.19z" fill="#c12208"/><path d="M78 60.94c.93-1.06.64-2-.36-2.42a1.6 1.6 0 0 1 .36 2.42z" fill="#c12208"/><path d="M77.65 58c-.15-1.61-1-2.29-2.26-2.28A2.63 2.63 0 0 1 77.65 58z" fill="#c12208"/><path d="M75 55.43c.33-1.21-.24-1.77-1.53-1.81 1.14.11 1.72.65 1.53 1.81z" fill="#c12208"/><path d="M73.35 53.4c-.25-1.46-1.45-1.88-3.19-1.71 1.66.04 2.77.56 3.19 1.71z" fill="#c12208"/><path d="M59.88 69.51c1.88 2.63 6.74 2.89 12.32 2.55-5.3-.06-9.98-.48-12.32-2.55z" fill="#c12208"/><path d="M58.67 69.06c-2.32-.62-3.92-1.6-4.68-3 .14 1.69 1.94 2.58 4.68 3z" fill="#c12208"/><path d="M67.45 50.65a3.25 3.25 0 0 0 .23-3.59 4.72 4.72 0 0 1-.23 3.59z"/><path d="M67.53 46.77a3 3 0 0 0-1-2 9.93 9.93 0 0 1 1 2z"/><path d="M64.67 42.83a9.46 9.46 0 0 1 1.73 1.72 3.54 3.54 0 0 0-1.73-1.72z"/><path d="M64.37 42.6a3.21 3.21 0 0 0-2.28-1.34 8 8 0 0 1 2.28 1.34z"/><path d="M61.91 41.15a3.59 3.59 0 0 0-2.56-.92 11.08 11.08 0 0 1 2.56.92z"/><path d="M59 40.15a2.77 2.77 0 0 0-2.11-.34 8.84 8.84 0 0 1 2.11.34z"/><path d="M51.67 42.21a6.76 6.76 0 0 1 4.82-2.47 5 5 0 0 0-4.82 2.47z"/><path d="M52.09 49.85c-1.55-1.85-1.64-4.2-.93-6.83-.99 2.5-1.16 4.86.93 6.83z"/><path d="M56.17 52.87a6.83 6.83 0 0 1-3.77-2.78 4.45 4.45 0 0 0 3.77 2.78z"/><path d="M60.11 53.79a4.66 4.66 0 0 0 6-1.52 6 6 0 0 1-6 1.52z"/><path d="M51.65 50.73a12.16 12.16 0 0 1-1.88-6.33 7.92 7.92 0 0 0 1.88 6.33z" fill="#f1e7d2"/><path d="M55.73 53.52A9 9 0 0 1 51.82 51a5.46 5.46 0 0 0 3.91 2.52z" fill="#f1e7d2"/><path d="M59.09 54.36C58 54.13 57 53.87 56 53.57a8.3 8.3 0 0 0 3.09.79z" fill="#f1e7d2"/><path d="M63.92 54.52a30.38 30.38 0 0 1-4.38-.16 10.4 10.4 0 0 0 4.38.16z" fill="#f1e7d2"/><path d="M57.41 57.06a4.91 4.91 0 0 0 5.13-1.12 7.17 7.17 0 0 1-5.13 1.12z" fill="#f1e7d2"/><path d="M54.25 56.37a3.2 3.2 0 0 0 2.61.57 7 7 0 0 1-2.61-.57z" fill="#f1e7d2"/><path d="M53.88 56.29a8.23 8.23 0 0 1-3.4-2.48 4.63 4.63 0 0 0 3.4 2.48z" fill="#f1e7d2"/><path d="M50.22 53.5a8 8 0 0 1-1.59-7.44c-.94 2.88-.55 5.4 1.59 7.44z" fill="#f1e7d2"/><path d="M49.76 54.6a14.25 14.25 0 0 1-2.69-5.91 8.06 8.06 0 0 0 2.69 5.91z" fill="#9e7b47"/><path d="M53.32 57.25A8.55 8.55 0 0 1 50.16 55a3.92 3.92 0 0 0 3.16 2.25z" fill="#9e7b47"/><path d="M55.8 58.18a8.16 8.16 0 0 1-2.14-.72 2.82 2.82 0 0 0 2.14.72z" fill="#9e7b47"/><path d="M60.92 58.6a13.69 13.69 0 0 1-4.53-.26 6.21 6.21 0 0 0 4.53.26z" fill="#9e7b47"/><path d="M48.45 59.54a15.26 15.26 0 0 1-4.61-2.12 6.5 6.5 0 0 0 4.61 2.12z"/><path d="M48.88 59.64a2.65 2.65 0 0 0 2.06.5 8.74 8.74 0 0 1-2.06-.5z"/><path d="M59.47 60.08a14.63 14.63 0 0 1-7.55.31 9.64 9.64 0 0 0 7.55-.31z"/><path d="M53.07 48.11c-.89-2.1.34-4.44 2.41-5.91-2.34 1.4-3.71 4.02-2.41 5.91z" fill="#adbcef"/><path d="M57.78 50.29a4.74 4.74 0 0 1-4.39-1.69 3.87 3.87 0 0 0 4.39 1.69z" fill="#adbcef"/><path d="M61.14 42a3.71 3.71 0 0 0-2.67-.63 8.43 8.43 0 0 1 2.67.63z" fill="#adbcef"/><path d="M61 49.1c2.31-1.45 3.83-4.06 2.94-5.51.51 1.62-.71 3.91-2.94 5.51z" fill="#adbcef"/><path d="M62.34 52.71a4.3 4.3 0 0 0 4.44-4.66 4.75 4.75 0 0 1-4.44 4.66z" fill="#adbcef"/><path d="M51.44 8.68A5.28 5.28 0 0 1 48 4.89a2.26 2.26 0 0 0-.82-1.57c-.91-.65-2.07-.22-2.87-.89C43.84 2 43 .09 42 0c-3.32-.27-7.5 7.38-8.9 9.94-2.09 3.81-3 7.68-3.93 11.58-3.32 13.78-2.82 33 4.63 46.64a23.55 23.55 0 0 0 2.07 3.29c1.56-.36 3.82 1.62 4.3 2.07 3.62-6.36 9.74-11.28 12.5-13.7s6.75-4.91 10.45-9.43c1.35-1.65 3.85-5.82 4.34-8 .27-1.21-1-.44-1.37-1.65s-.08-2.42-.89-3.39c-.47-.56-1.67-.83-2.07-1.44a4.65 4.65 0 0 1-.68-1.6c-.09-.44.82-1.58.37-2.18-.65-.88-2-.37-2.59-1.21s-.07-2.37-.55-3.28-2-.8-2.58-1.5c-1.9-2.33-1.46-3.31-1.42-5.31 0-2.21-1.07-3.4-1.4-5.4-.17-1 1.56-4.63 1-5.51S53 9 51.44 8.68z"/><path d="M32.87 31.21c-.4-.31-.84-1.09-1.38-1.15s-.65 1-.74 1.49a42.87 42.87 0 0 0-.56 9.45c.1 3.23.25 6.44.67 9.65A78.61 78.61 0 0 0 32.8 60c.43 1.7.76 3.41 1.23 5.1.33 1.19.69 2.39 1.1 3.56a2.61 2.61 0 0 1 .66 1.81 4 4 0 0 0 .3.65 4.1 4.1 0 0 1 1.53.31c.3-1.28.31-2.65.52-3.95a45 45 0 0 0 1-8.2c-.07-3.08-.22-6.15-.28-9.23s.07-6 .22-9a12.92 12.92 0 0 0-.08-4.12 6.64 6.64 0 0 0-1-1.66 9.3 9.3 0 0 0-1.27-2c-1.07-.94-2.73-1.16-3.86-2.06z" fill="#c12208"/><path d="M42.6 8.62c-.21.22-.41.44-.58.64z" fill="#c12208"/><path d="M45.91 11.91a32.29 32.29 0 0 0-2.16 2.91 33.79 33.79 0 0 1 2-2.9c.49-.64 2-2.23 2-3.07a2.4 2.4 0 0 0-2.26-2.05c-.91 0-2 .94-2.85 1.82l-.64.64-.14.17-.19.22.19-.22.14-.17c.17-.2.37-.42.58-.64a3.59 3.59 0 0 0 1.15-2.16 3.13 3.13 0 0 0-2.29-2.7C38.63 3 36.68 4.78 35.26 7a80.48 80.48 0 0 0-4 7.54 28.89 28.89 0 0 0-1.92 6.9c-1 5.49-5.88 28 5 46.69a2.6 2.6 0 0 1 .66.48c-8-21.35-5.06-35.37-4-39.27a42.06 42.06 0 0 1 4.5-10.55 38.51 38.51 0 0 0-2.49 5.14c-.37 1-.7 2-1 2.93a3.39 3.39 0 0 0-.27 2.6 4.64 4.64 0 0 0 2 2.19c.61.35 1.86 1.11 2.55.68.4-.25.64-.89.87-1.28s.62-1.07.95-1.6c.48-.76 1-1.46 1.58-2.19a39.7 39.7 0 0 0-2.17 3.41c-.6 1.05-.92 1.78-.34 2.89.32.6.66 1.2 1 1.78s.76 1.26 1.48.66a18.52 18.52 0 0 0 2-2.45A77.15 77.15 0 0 1 48.19 27c1-.89 1.89-1.8 2.79-2.75s3.13-3 3.29-4.26c.11-.86-.25-3.19-1.43-3.14-.7 0-2.33 2-2.75 2.46s-1 1.05-1.4 1.61c.56-.76 1.17-1.47 1.76-2.22s3.1-4 2.81-4.91a1.34 1.34 0 0 0-2-.75c-.77.44-3.55 3.93-4.14 4.59-2.36 2.64-4.29 5.65-6.45 8.45 1.3-1.79 2.6-3.58 3.91-5.35.7-.95 1.5-1.83 2.19-2.8s1.36-1.87 2.06-2.81 2.53-3 2.75-4c.27-1.2-1-1.87-1.82-1.94-1.21-.09-3.2 2.02-3.85 2.73z" fill="#c12208"/><path d="M41.88 9.42l-.19.22z" fill="#c12208"/><path d="M32.87 31.21c-.4-.31-.84-1.09-1.38-1.15s-.65 1-.74 1.49a42.87 42.87 0 0 0-.56 9.45c.1 3.23.25 6.44.67 9.65A78.61 78.61 0 0 0 32.8 60c.43 1.7.76 3.41 1.23 5.1.33 1.19.69 2.39 1.1 3.56a2.61 2.61 0 0 1 .66 1.81 4 4 0 0 0 .3.65 4.1 4.1 0 0 1 1.53.31c.3-1.28.31-2.65.52-3.95a45 45 0 0 0 1-8.2c-.07-3.08-.22-6.15-.28-9.23s.07-6 .22-9a12.92 12.92 0 0 0-.08-4.12 6.64 6.64 0 0 0-1-1.66 9.3 9.3 0 0 0-1.27-2c-1.07-.94-2.73-1.16-3.86-2.06z" fill="#c12208"/><path d="M55.51 30.1c-1.05 1-2 2-3.07 3a69.2 69.2 0 0 0-5.71 6c-.92 1.13-1.78 2.29-2.72 3.4s-1.94 2.29-2.86 3.5c-.75 1-2 2.32-2.08 3.58a33.65 33.65 0 0 0 .1 4.16c.07 1.54.17 3.07.26 4.61 0 .23-.12 1.62 0 1.75.35.29 1-.92 1.2-1.14 3.18-4.46 6.62-8.69 10-13 2-2.61 4.05-5.16 6.2-7.65 1-1.13 2-2.21 3-3.32a2.35 2.35 0 0 0 .33-3c-.63-.77-1.44-.18-2 .3-1 .87-1.89 1.82-2.81 2.75l2.35-2.68c.65-.73 1.79-1.88.89-2.85s-2.29-.15-3.08.59z" fill="#c12208"/><path d="M57.18 38c-1.83 2.18-3.67 4.38-5.41 6.63-1.08 1.41-2.11 2.87-3.2 4.26s-2.08 2.46-3.06 3.74A73.59 73.59 0 0 0 40.26 60a14.18 14.18 0 0 0-1.37 5.15c-.25 1.69-.47 3.39-.72 5.08-.06.42-.16.89-.22 1.36a6 6 0 0 1 .82.47 27.88 27.88 0 0 1 1.54-3.26c3.07-5.48 7.78-9.73 12.29-14a85.58 85.58 0 0 0 7.84-8.47 34.87 34.87 0 0 0 2.64-4.07c.92-1.54 1.84-2.88.87-4.64A12.31 12.31 0 0 0 62.72 36c-.42-.52-1-1.21-1.7-1.23C59.5 34.76 58 37 57.18 38z" fill="#c12208"/><path d="M63.82 41.7a86.58 86.58 0 0 1-5.75 7.79c-2.24 2.51-4.53 4.92-6.95 7.27-4.13 4-8.26 7.89-11.09 13a15.35 15.35 0 0 0-1.18 2.42 6.82 6.82 0 0 1 .95.81l.27.3a36.05 36.05 0 0 1 4.71-6.35 71.16 71.16 0 0 1 7.5-6.94c2.71-2.31 5.65-4.4 8.16-6.94-.19.19-.58.59 0 0a22.66 22.66 0 0 0 2.85-3.35 27.29 27.29 0 0 0 2-3.84 7.2 7.2 0 0 0 .79-4c-.07-.36-.23-1.24-.6-1.44-.69-.43-1.37.85-1.66 1.27z" fill="#c12208"/><path d="M32.89 60.41c.39 1.57.7 3.15 1.14 4.72.33 1.19.69 2.39 1.1 3.56a2.62 2.62 0 0 1 .66 1.81 4 4 0 0 0 .3.65 4.1 4.1 0 0 1 1.53.31c.3-1.28.31-2.65.52-3.95a48.75 48.75 0 0 0 1-7.79 6.94 6.94 0 0 1-6.25.69z" fill="#b65920"/><path d="M39.83 60.91a18.38 18.38 0 0 0-.94 4.26c-.25 1.69-.47 3.39-.72 5.08-.06.42-.16.89-.22 1.36a6 6 0 0 1 .82.47 27.88 27.88 0 0 1 1.54-3.26 36.12 36.12 0 0 1 4.36-6.06c-1.32 1.13-4.61-.25-4.84-1.85z" fill="#b65920"/><path d="M40 69.72a15.35 15.35 0 0 0-1.18 2.42 6.81 6.81 0 0 1 .95.81l.27.3a36 36 0 0 1 4.71-6.35c.6-.68 1.23-1.33 1.87-2a2.16 2.16 0 0 1-1.49-2.18 37.68 37.68 0 0 0-5.13 7z" fill="#b65920"/><path d="M34.06 65.23c.32 1.16.67 2.32 1.07 3.47.27.63.39 1.13.66 1.81a4 4 0 0 0 .3.65 4.1 4.1 0 0 1 1.53.31c.3-1.28.31-2.65.52-3.95.09-.58.19-1.15.29-1.73-1 .6-3.76.29-4.37-.56z" fill="#6b4a06"/><path d="M38.78 65.89c-.21 1.45-.4 2.91-.62 4.36-.06.42-.16.89-.22 1.36a6 6 0 0 1 .82.47 27.88 27.88 0 0 1 1.54-3.26c.34-.61.72-1.2 1.1-1.79-.63.46-2.4-.27-2.62-1.14z" fill="#6b4a06"/><path d="M41.64 67.17c-.57.82-1.12 1.67-1.61 2.56a15.35 15.35 0 0 0-1.18 2.42 6.81 6.81 0 0 1 .95.81l.27.3a31.12 31.12 0 0 1 3.57-5 1.63 1.63 0 0 1-2-1.09z" fill="#6b4a06"/><path d="M27.46 41a58.88 58.88 0 0 0 8.42 30.2h.13c-4.18-10.48-6.45-23.83-6.37-30.67-.51.14-1 .21-1.58.33z" fill="#9e7b47"/><path d="M31.49 30.06c-.63-.07-.65 1-.74 1.49a42.87 42.87 0 0 0-.56 9.45c.09 2.78.22 5.56.52 8.32a20 20 0 0 0 4.16-7c.42-1.35 2.58-7.7 2.73-7.82a4.35 4.35 0 0 0-.84-1.21c-1.09-1-2.73-1.18-3.88-2.09-.4-.31-.88-1.08-1.39-1.14z" fill="#fcffb6"/><path d="M30.85 50.66c.07.55.16 1.09.25 1.64a19.17 19.17 0 0 0 7.77-.45v-1.54c-1.64-1.7-6.4-3.15-8.35-3.41.06 1.25.17 2.5.33 3.76z"/><path d="M32.87 31.21c-.4-.31-.84-1.09-1.38-1.15s-.65 1-.74 1.49a42.87 42.87 0 0 0-.56 9.45c2.84-.12 8.53-3.11 8.82-4v-.15A6.64 6.64 0 0 0 38 35.27a9.31 9.31 0 0 0-1.27-2c-1.07-.94-2.73-1.16-3.86-2.06z"/><path d="M45.91 11.91a32.3 32.3 0 0 0-2.16 2.91 33.8 33.8 0 0 1 2-2.9c.49-.64 2-2.23 2-3.07a2.4 2.4 0 0 0-2.26-2.05c-.91 0-2 .94-2.85 1.82a3.59 3.59 0 0 0 1.15-2.16 3.13 3.13 0 0 0-2.29-2.7C38.63 3 36.68 4.78 35.26 7a80.46 80.46 0 0 0-4 7.54 28.88 28.88 0 0 0-1.92 6.9 94.15 94.15 0 0 0-1.93 19.92 5.14 5.14 0 0 0 2.18-.24A45 45 0 0 1 31 29.35a42.05 42.05 0 0 1 4.5-10.55 38.5 38.5 0 0 0-2.49 5.14c-.37 1-.7 2-1 2.93a3.39 3.39 0 0 0-.27 2.6 4.64 4.64 0 0 0 2 2.19c.61.35 1.86 1.11 2.55.68.4-.25.64-.89.87-1.28s.62-1.07.95-1.6c.48-.76 1-1.46 1.58-2.19a39.7 39.7 0 0 0-2.17 3.41c-.6 1.05-.92 1.78-.34 2.89.32.6.66 1.2 1 1.78s.76 1.26 1.48.66a18.52 18.52 0 0 0 2-2.45A77.15 77.15 0 0 1 48.19 27c1-.89 1.89-1.8 2.79-2.75s3.13-3 3.29-4.26c.11-.86-.25-3.19-1.43-3.14-.7 0-2.33 2-2.75 2.46s-1 1.05-1.4 1.61c.56-.76 1.17-1.47 1.75-2.22s3.1-4 2.81-4.91a1.34 1.34 0 0 0-2-.75c-.77.44-3.55 3.93-4.14 4.59-2.36 2.64-4.29 5.65-6.45 8.45 1.3-1.79 2.6-3.58 3.91-5.35.7-.95 1.5-1.83 2.19-2.8s1.36-1.87 2.06-2.81 2.53-3 2.75-4c.27-1.2-1-1.87-1.82-1.94-1.2-.09-3.19 2.02-3.84 2.73zM42 9.26l-.14.17z"/><path d="M46.73 17.88c.65-.91 1.31-1.8 2-2.69.18-1.83-2.11-3.46-2.8-3.28a32.3 32.3 0 0 0-2.16 2.91 33.8 33.8 0 0 1 2-2.9c.16-.58-2.86-3.29-4.78-1.24.21-1-1.63-2.68-3.62-1.73-2.55 1.22-6.28 6.47-7 8.46-.22.77-.4 1.54-.57 2.32-.36 1.87.32 5.8 2 7.34a41.26 41.26 0 0 1 3.8-8.28 38.5 38.5 0 0 0-2.49 5.14c-.37 1-.7 2-1 2.93l-.14.39c.8 1.45 3.87 3.61 5.45 3.6.27-.47.54-.94.83-1.39.48-.76 1-1.46 1.58-2.19a39.7 39.7 0 0 0-2.17 3.41l-.11.2c1.08 1 5.08 1.37 6.1.69C45 30 46.61 28.43 48.19 27q.63-.58 1.24-1.18c1-1.4 2.29-5.87 1-6.94l-.38.43c-.48.53-1 1.05-1.4 1.61.55-.75 1.15-1.45 1.73-2.18.31-1.06-.76-3.24-1.56-3.23-.78.92-1.51 1.81-1.78 2.11-2.36 2.64-4.29 5.65-6.45 8.45 1.3-1.79 2.6-3.58 3.91-5.35.75-.99 1.5-1.88 2.23-2.84z" fill="#fcffb6"/><path d="M33 23.89a39.73 39.73 0 0 1 2.6-5.11 38.5 38.5 0 0 0-2.49 5.14L33 24c1.13 1.5 2.74 2.66 4.15 2.63a5.37 5.37 0 0 0 2.77-.63c2-1.21 4.15-3.68 4.27-5.79.18-3.37-4-6.21-5.36-6.64C34.48 12.5 29.78 19 33 23.89z" fill="#c12208"/><path d="M33.67 15.66a7.4 7.4 0 0 0-1.73 5.24 18.64 18.64 0 0 0 1.76 1.32 38.35 38.35 0 0 1 1.85-3.45c-.63 1.12-1.25 2.29-1.79 3.49a2.19 2.19 0 0 0 1.33.34c2.63-.49 3.72-3.62 2.65-5.22-1.29-1.93-3.15-2.27-4.07-1.72z"/><path d="M45.91 11.91a32.3 32.3 0 0 0-2.16 2.91 33.8 33.8 0 0 1 2-2.9c.16-.58-2.86-3.29-4.78-1.24l-2.12 2.87a20 20 0 0 1 3.71 3 7.56 7.56 0 0 1 1.63 4.61l.37-.5c.7-.95 1.5-1.83 2.19-2.8s1.31-1.8 2-2.69c.13-1.82-2.15-3.44-2.84-3.26z" fill="#e5a6d7"/><path d="M47.08 17.58c-1 1.15-2 2.38-2.9 3.63v.65a13.37 13.37 0 0 1-4.72 9.81c1.55.32 3.42.31 4.08-.12A83.17 83.17 0 0 1 48.19 27q.63-.58 1.24-1.18c1-1.4 2.29-5.87 1-6.94l-.38.43c-.48.53-1 1.05-1.4 1.61.55-.75 1.15-1.45 1.73-2.18.31-1.06-.76-3.24-1.56-3.23-.75.88-1.48 1.77-1.74 2.07z" fill="#e5a6d7"/><path d="M41 10.68c.21-1-1.63-2.68-3.62-1.73-1.41.67-3.18 2.58-4.61 4.48 2.35-2.36 5.54-2.86 6.94-1 1.33-.44 3.6.78 4.15 2.32.59-1 1.23-1.89 1.92-2.79.12-.63-2.9-3.33-4.78-1.28z" fill="#adbcef"/><path d="M45.91 11.91a29.52 29.52 0 0 0-2.08 2.8c1.28-.11 3.13 2.07 2.3 4 .21-.26.41-.53.61-.8.65-.91 1.31-1.8 2-2.69.14-1.87-2.14-3.49-2.83-3.31z" fill="#adbcef"/><path d="M47.08 17.58c-.32.36-.64.74-1 1.11 1.06-.82 3 1.05 2.24 2.72 1.69-.27 1.52 1.62 0 4.09a75.67 75.67 0 0 1-4.83 6c1.51-1.5 3.12-3.07 4.7-4.5q.63-.58 1.24-1.18c1-1.4 2.29-5.87 1-6.94l-.38.43c-.48.53-1 1.05-1.4 1.61.55-.75 1.15-1.45 1.73-2.18.31-1.06-.76-3.24-1.56-3.23-.75.88-1.48 1.77-1.74 2.07z" fill="#adbcef"/><path d="M52.74 22.88c-.94.34-1.59 1.41-2.29 2.07a94.56 94.56 0 0 0-10 10.39 4.67 4.67 0 0 0-.94 1.55 8.16 8.16 0 0 0-.2 1.89v3c0 1-.07 2-.1 3 0 .54-.41 3.23.74 2.55a3.51 3.51 0 0 0 .74-.89q.61-.8 1.26-1.57c.88-1.06 1.78-2.11 2.63-3.19a69.27 69.27 0 0 1 4.76-5.47c1.66-1.71 3.31-3.44 5-5.13a13.56 13.56 0 0 0 2.26-2.22 2.66 2.66 0 0 0-.84-3.16l.24.3-.28-.23c-.93-.76-2.24 1-2.83 1.51-.81.76-1.52 1.61-2.27 2.43.8-1 1.66-1.89 2.53-2.8s1.95-1.59 1.76-2.8a1.5 1.5 0 0 0-2.17-1.23z" fill="#c12208"/><path d="M42.6 8.62a3.59 3.59 0 0 0 1.15-2.16 3.13 3.13 0 0 0-2.29-2.7C38.63 3 36.68 4.78 35.26 7a80.46 80.46 0 0 0-4 7.54 25.89 25.89 0 0 0-1.71 5.79 22.41 22.41 0 0 1 5.08-10C37.23 7.58 40.47 6 42 9.24c1.13-.85 4.13.64 4.13 2.15.64-.76 1.56-1.88 1.54-2.54a2.4 2.4 0 0 0-2.26-2.05c-.87-.01-1.97.93-2.81 1.82z" fill="#9e7b47"/><path d="M50.79 18.48c1.35.38.92 4.7-1 6.92.4-.39.79-.79 1.18-1.2.81-.86 3.13-3 3.29-4.26.11-.86-.25-3.19-1.43-3.14-.47.03-1.38.95-2.04 1.68z" fill="#9e7b47"/><path d="M46.29 11.5A2.73 2.73 0 0 1 49 14.79c.83-1.05 2.33-2.78 2.53-3.67.27-1.2-1-1.87-1.82-1.94-.98-.08-2.57 1.43-3.42 2.32z" fill="#9e7b47"/><path d="M51.21 13a13.5 13.5 0 0 0-2 2.07c.79-.2 2.13 2.11 1.54 3.21.85-1.11 2.77-3.73 2.51-4.54a1.34 1.34 0 0 0-2.05-.74z" fill="#9e7b47"/><path d="M52.74 22.88c-.94.34-1.59 1.41-2.29 2.07l-.56.54c.85-.22 2.66 1.11 2.47 2.17l.76-.81c.75-.79 1.95-1.59 1.76-2.8a1.5 1.5 0 0 0-2.14-1.17z" fill="#9e7b47"/><path d="M55.7 25.72c-.93-.76-2.24 1-2.83 1.51l-.47.46c1.17-.47 3.2 1.74 2.59 2.77a6.93 6.93 0 0 0 1.54-1.58 2.66 2.66 0 0 0-.84-3.16L56 26z" fill="#9e7b47"/><path d="M55.51 30.1l-.48.46c.47 0 2.07 1.91 1.61 2.9l1.07-1.22c.65-.73 1.79-1.88.89-2.85s-2.3-.03-3.09.71z" fill="#9e7b47"/><path d="M58.17 32.17c-.5.45-1 .92-1.46 1.39.92-.06 2.48 1.69 1.93 2.64l1.18-1.29a2.35 2.35 0 0 0 .33-3c-.63-.82-1.44-.23-1.98.26z" fill="#9e7b47"/><path d="M58.65 36.21c1.65.4 4.36 4.17 4.47 6 .9-1.51 1.78-2.83.82-4.56A12.33 12.33 0 0 0 62.72 36c-.42-.52-1-1.21-1.7-1.23a3.51 3.51 0 0 0-2.37 1.44z" fill="#9e7b47"/><path d="M63.82 41.7l-.6.85c.49 2-.38 7.67-1.81 9.46a18.29 18.29 0 0 0 1.9-2.36 27.29 27.29 0 0 0 2-3.84 7.2 7.2 0 0 0 .79-4c-.07-.36-.23-1.24-.6-1.44-.71-.37-1.39.91-1.68 1.33z" fill="#9e7b47"/><path d="M36.39 17.42c1.08-1.69 2.19-3.36 3.28-5-.91 1.26-1.8 2.52-2.6 3.85-.24.36-.47.73-.68 1.15z" fill="url(#a)"/><ellipse cx="45.4" cy="26.4" rx="3.16" ry="1.24" transform="rotate(-48.21 45.403 26.403)" fill="#fff"/><ellipse cx="48.84" cy="31.65" rx="2.63" ry="1.24" transform="rotate(-45.36 48.836 31.652)" fill="#e5a6d7"/><ellipse cx="53.42" cy="37.34" rx="2.17" ry="1.02" transform="rotate(-46.83 53.416 37.337)" fill="#e5a6d7"/><path d="M32.7 23.76c-2.38-3.89-.56-8.29 3.45-10.18-4.36 1.52-6.58 6.26-3.45 10.18z" fill="#c12208"/><path d="M33.1 24.31C35 27.51 37.41 28 40.24 26c-2.52 1.51-4.92 1.17-7.14-1.69z" fill="#c12208"/><path d="M33.09 24.87c1.19 3.1 4.46 4.14 6.69 1.81-2.32 1.27-4.56.91-6.69-1.81z" fill="#ffde3e"/><path d="M41.68 24.85c3.13-2.27 3.72-4.57 2.1-6.91 1.22 2.21.68 4.5-2.1 6.91z" fill="#c12208"/><path d="M43.55 17.5a7.69 7.69 0 0 0-4.41-3.92 13.06 13.06 0 0 1 4.41 3.92z" fill="#c12208"/><path d="M44.08 22.79a21.72 21.72 0 0 1-4.59 8.67 15.21 15.21 0 0 0 4.59-8.67z" fill="#e5a6d7"/><path d="M32.84 13.55c2.44-1.74 4.69-2.22 6.71-1.15-1.86-1.4-4.06-1.18-6.71 1.15z" fill="#adbcef"/><path d="M39.81 12.53a5.29 5.29 0 0 1 3.84 2.36 3.7 3.7 0 0 0-3.84-2.36z" fill="#adbcef"/><path d="M46 18.64a3 3 0 0 0-2.07-3.72A3.85 3.85 0 0 1 46 18.64z" fill="#adbcef"/><ellipse cx="42.38" cy="13.1" rx="1.57" ry=".77" transform="rotate(-53.9 42.378 13.093)" fill="#fff"/><ellipse cx="45.67" cy="16.26" rx="2.05" ry="1.01" transform="rotate(-53.9 45.668 16.263)" fill="#fff"/><path d="M46.22 18.78a2.39 2.39 0 0 1 1.89 2.89c.61-1.37-.42-3.13-1.89-2.89z" fill="#adbcef"/><path d="M48.35 21.66c1.23.27.64 2.19-.57 4.51 1.7-2.46 2.22-4.86.57-4.51z" fill="#adbcef"/><path d="M49.37 25.62c1.59-3.73 1.79-5.74 1.12-6.7.31 1.46-.17 3.81-1.12 6.7z"/><path d="M50.25 18.75a3.29 3.29 0 0 0-1.31-3.18 5.15 5.15 0 0 1 1.31 3.18z"/><path d="M48.6 15.19a3.57 3.57 0 0 0-2.68-3.12 4.71 4.71 0 0 1 2.68 3.12z"/><path d="M41.08 10.72c1.57-.79 3.22-.22 4.56 1.16-.87-1.44-3.09-2.5-4.56-1.16z"/><path d="M36.53 9.52c2-1 3.6-.32 4.28 1.17-.27-1.69-2.34-2.54-4.28-1.17z"/><path d="M50.45 24.65c2.16-2.87 1.9-6 .52-6.2.91.3 1.46 2.68-.52 6.2z"/><path d="M51 17.81A2.13 2.13 0 0 0 49.4 15a2.62 2.62 0 0 1 1.6 2.81z"/><path d="M46.53 11.37a2.63 2.63 0 0 1 2.62 3.12c.47-1.96-.79-3.49-2.62-3.12z"/><path d="M42.53 8.88a3.37 3.37 0 0 1 3.74 2.17c-.05-1.87-2.18-2.68-3.74-2.17z"/><path d="M35.18 9.54c3.49-3.39 5.54-2.92 6.94-.74-1.31-2.9-3.53-2.94-6.94.74z"/><path d="M32.67 12.06C34.79 8.14 37 4.9 39.29 3.81c-2.18.43-4.39 3.44-6.62 8.25z"/><path d="M32.13 21.27c1.52 2.18 3 2.65 4.57.82-1.54 1.41-3.06.76-4.57-.82z"/><path d="M37.56 21.27c1.72-2.06 1.36-3.6-.17-4.86 1.25 1.33 1.41 2.93.17 4.86z"/><path d="M34.16 15.3a3.5 3.5 0 0 1 2.81.82 2.32 2.32 0 0 0-2.81-.82z"/><path d="M31.49 27.24a8.64 8.64 0 0 1-2-5.72c-.28 2.48.3 4.48 2 5.72z" fill="#fcffb6"/><path d="M31.87 27.73a5.72 5.72 0 0 0 5 3.28 8.3 8.3 0 0 1-5-3.28z" fill="#fcffb6"/><path d="M39.26 31.83a3.37 3.37 0 0 1-1.86-.72 1.66 1.66 0 0 0 1.86.72z" fill="#fcffb6"/><path d="M39.44 31.94a3.29 3.29 0 0 0 3.78-.09 5.59 5.59 0 0 1-3.78.09z" fill="#e5a6d7"/><path d="M45.47 24.48c1.63-1.21 2.43-1 2.44.42.19-1.9-.81-1.73-2.44-.42z" fill="#fff"/><path d="M43.16 28.86c1.21 1 2.52-.09 3.89-2.39-1.49 2.06-2.81 3.03-3.89 2.39z" fill="#fff"/><path d="M44.69 15.68c.89-1.2 1.68-1.63 2.36-1.11-.78-.8-1.56-.22-2.36 1.11z" fill="#fff"/><path d="M44 17.14c-.2 1.23.68 1.69 2 .43-1.35 1.01-1.9.7-2-.43z" fill="#fff"/><path d="M41.53 12.84c.61-1 1.25-1.51 2-1.05-.82-.73-1.44-.14-2 1.05z" fill="#fff"/><path d="M41.31 14.39c.81.84 1.76 0 2.2-1.51-.58 1.35-1.51 2.12-2.2 1.51z" fill="#fff"/><path d="M38.8 3.41c2.84-.79 5.64.71 5.19 3.44C45 4.85 42.51 2 38.8 3.41z" fill="#9e7b47"/><path d="M44.35 6.87c2.12-1.19 4.38.8 3.44 2.72C49 8.08 47 4.93 44.35 6.87z" fill="#9e7b47"/><path d="M48.05 9.69c2.08-1.95 5.1.13 3 2.82 2.69-3.19-1.24-5.15-3-2.82z" fill="#9e7b47"/><path d="M51.23 12.72c1.91-1 3.12.94 1.47 3.11 2.36-2.83.3-4.51-1.47-3.11z" fill="#9e7b47"/><path d="M52.71 16.65c1.43-.48 2.63 2.63 1.41 4.34 1.61-2.07 0-5.21-1.41-4.34z" fill="#9e7b47"/><path d="M52.88 22.56A1.8 1.8 0 0 1 55 25.2c1.21-1.81-.52-3.56-2.12-2.64z" fill="#9e7b47"/><path d="M55.17 25.31a2.53 2.53 0 0 1 1.74 3.3c1-1.4-.24-3.61-1.74-3.3z" fill="#9e7b47"/><path d="M57.12 28.76a1.51 1.51 0 0 1 1.77 2.37c1.48-1.57-.19-3.21-1.77-2.37z" fill="#9e7b47"/><path d="M59.13 31.38c1.35-.34 2.47 1.41 1.26 3 1.55-1.66.36-3.72-1.26-3z" fill="#9e7b47"/><path d="M64.56 38.78a5.54 5.54 0 0 0-3.27-4.07c1.05.4 3.22 3.04 3.27 4.07z" fill="#9e7b47"/><path d="M61.29 34.7a.75.75 0 0 0-.21-.05z" fill="#9e7b47"/><path d="M64.89 47.14c1.4-2.08 1.86-3.93 1.37-5.53a10.61 10.61 0 0 1-1.37 5.53z" fill="#9e7b47"/><path d="M47.16 31.53c-1.29 1.37-1 2.93.77 2.31-1.59.16-1.62-.76-.77-2.31z" fill="#e5a6d7"/><path d="M49.74 32.69c1.9-1.72 2.09-2.77.73-3.23 1 .54.91 1.54-.73 3.23z" fill="#e5a6d7"/><path d="M52.56 36.58c-1.4 1.19-1.68 3.13 0 2.65-1.28.21-1.4-1.12 0-2.65z" fill="#e5a6d7"/><path d="M54.55 37.75c1.18-1.23 1.14-2.26 0-2.28.99.22.88 1.04 0 2.28z" fill="#e5a6d7"/><path d="M36 39.23a21.23 21.23 0 0 1-3.48 8 11.72 11.72 0 0 0 3.48-8z" fill="#fcffb6"/><path d="M36.25 39.24a12.59 12.59 0 0 1-3.29 8c2.94-2.43 3.86-5.1 3.29-8z" fill="#fb2"/><path d="M38.74 37.71a20.07 20.07 0 0 1-8.32 3.58 12.43 12.43 0 0 0 8.32-3.58z"/><path d="M30.62 46.75a16 16 0 0 1 8 3.11 11 11 0 0 0-8-3.11z"/><path d="M31.27 52.57a9 9 0 0 0 7.36-.4 15.44 15.44 0 0 1-7.36.4z"/><path d="M38.92 59.47l-.19-7.13a20.57 20.57 0 0 0 .19 7.13z" fill="#8e0d00"/><path d="M38.66 49.53q0-5.75.27-11.57a39.16 39.16 0 0 0-.27 11.57z" fill="#8e0d00"/><path d="M41.52 45.06a128 128 0 0 1 9.93-11.33c-3.45 2.62-6.72 6.67-9.93 11.33z" fill="#8e0d00"/><path d="M54.05 41.23a124.64 124.64 0 0 0-13.68 17.7c4.72-6.35 9.31-12.33 13.68-17.7z" fill="#8e0d00"/><path d="M62.32 43.26a95.83 95.83 0 0 1-10 11.62 54.05 54.05 0 0 0 10-11.62z" fill="#8e0d00"/><path d="M58.56 36.63a92.78 92.78 0 0 0-8.7 10.94q4.41-5.34 8.7-10.94z" fill="#b65920"/><path d="M46.34 39.78c2.56-2.56 5.12-5.26 7.68-8.09a68.13 68.13 0 0 0-7.68 8.09z" fill="#b65920"/><path d="M40.29 35.7c2.93-3.33 6.07-6.63 9.39-9.89a72.53 72.53 0 0 0-9.39 9.89z" fill="#b65920"/><path d="M49.82 58.16C56 52.83 60.65 48.07 62 44.55c-2.1 3.52-6.52 8.25-12.18 13.61z" fill="#b65920"/><path d="M52.5 27.39c-.12-1.33-.93-2-2.37-2a2.67 2.67 0 0 1 2.37 2z" fill="#c12208"/><path d="M52.67 27.51a2.76 2.76 0 0 1 2.53 2.59 2.19 2.19 0 0 0-2.53-2.59z" fill="#c12208"/><path d="M56.83 33.08a2.43 2.43 0 0 0-1.6-2.56 3.32 3.32 0 0 1 1.6 2.56z" fill="#c12208"/><path d="M58.87 35.77c.18-1.13-.46-1.9-1.85-2.35a2.83 2.83 0 0 1 1.85 2.35z" fill="#c12208"/><path d="M63.22 41.54a7 7 0 0 0-4-5.44 10.76 10.76 0 0 1 4 5.44z" fill="#c12208"/><path d="M62.52 50.22a9.62 9.62 0 0 0 1-7.69 15.22 15.22 0 0 1-1 7.69z" fill="#c12208"/><path d="M33 60.21a7.37 7.37 0 0 0 5.89-.64 13.34 13.34 0 0 1-5.89.64z" fill="#b65920"/><path d="M39.95 60.86a3.77 3.77 0 0 0 4.72 1.63 5 5 0 0 1-4.72-1.63z" fill="#b65920"/><path d="M46.75 64.64a3 3 0 0 1-1.43-1.94 2 2 0 0 0 1.43 1.94z" fill="#b65920"/><path d="M34.15 65.15a4.66 4.66 0 0 0 4.19.48 9.71 9.71 0 0 1-4.19-.48z" fill="#6b4a06"/><path d="M38.88 65.72a2 2 0 0 0 2.5 1.12 3 3 0 0 1-2.5-1.12z" fill="#6b4a06"/><path d="M41.75 67.06a1.52 1.52 0 0 0 1.92 1 2.09 2.09 0 0 1-1.92-1z" fill="#6b4a06"/><path d="M36.64 7.23c2.43-2.09 4.45-1.46 6 .7-1.43-3.33-4.13-3.13-6-.7z" fill="#f1e7d2"/><path d="M43.27 8.29a3.52 3.52 0 0 1 3.4 1.87 2.48 2.48 0 0 0-3.4-1.87z" fill="#f1e7d2"/><path d="M29.31 41.68c-.15 8.19.79 15.91 4 22.64a90.58 90.58 0 0 1-4-22.64z" fill="#846134"/><path d="M40.37 117.55a4.53 4.53 0 0 1-1.27-1.14 4.14 4.14 0 0 0-.72-.93c-.38-.27-.84-.17-1.27-.31a4.05 4.05 0 0 1-1.24-.66 6.19 6.19 0 0 1-1.58-2.63c-.4-1-.84-2-1.16-3a19.72 19.72 0 0 1-.53-2.16c-1.22-4-.29-10.16 1.24-16.29 1.41-5.62 3.26-11.21 5.78-15.21a5.39 5.39 0 0 0 4.14-.77 42.18 42.18 0 0 1 7.57 3.14 38.93 38.93 0 0 1 5.59 3.12c3.19 2 5.51 5.08 7.65 8.16 1.13 1.64 2.16 3.33 3.16 5.05a20.05 20.05 0 0 1 2.49 5.75 30.17 30.17 0 0 1 .51 3.22 2.22 2.22 0 0 1-.19 1.36 4.47 4.47 0 0 0-.44 1.25c-.29 2 1 4-1.06 5.49a18.82 18.82 0 0 1-2.66 1 3.4 3.4 0 0 0-1.84 2c-.33.95-.46 2.3-1.5 2.33-.78 0-1.86-.31-2.6 0s-.44 3.45-1.21 3.68-3.54-2.47-4.83-2.59c-.77-.07-1.1 1.12-1.94 1.29-1 .21-2.77-1.47-3.79-1.41s-1.47.89-2.4.82c-.61 0-1.16-.43-1.79-.38s-1 .3-1.49.36a4.28 4.28 0 0 1-2.62-.54z"/><path d="M36.21 111.79a37.93 37.93 0 0 1-.81-10 28.22 28.22 0 0 0-.14 3 38.76 38.76 0 0 0 .45 5.37c.08.49.55 1.58 0 1.87a.81.81 0 0 1-1-.28 23 23 0 0 1-2.53-10.41c0-.39.05-.78.11-1.17.5-3.56 1.39-7.1 2.14-10.61a52.74 52.74 0 0 1 3.35-10.31A22.39 22.39 0 0 1 38.82 77c.22-.37.45-.74.67-1.11.07-.12.17-.33.28-.53a6.58 6.58 0 0 0 1 .13c.06.41.07.85.09 1a32.83 32.83 0 0 1 .07 9.42c-.5 3.33-2.1 6.38-2.77 9.68a28.15 28.15 0 0 0-.48 5.22c0 1.74-.1 3.44 0 5.18s.29 3.4.43 5.1c0 .5.41 2.08-.37 2.22s-1.38-.91-1.53-1.52z" fill="#c12208"/><path d="M38.88 114.26a12 12 0 0 1-.61-3.23c-.13-1.11-.23-2.22-.32-3.33a63.35 63.35 0 0 1-.19-7 25.44 25.44 0 0 1 1-7c.34-1 .73-2 1.06-3 .15-.46.4-2.33 1.18-2 .63.28.77 1.67 1 2.27a10.17 10.17 0 0 1 .55 1.35 6.85 6.85 0 0 1 .1 1.67c-.05 2.45 0 4.87 0 7.32a55.34 55.34 0 0 0 .48 8c.22 1.26.6 2.49.91 3.73.27 1.08.91 2.64-.15 3.48-1.7 1.34-2.3-1.85-2.51-2.91a60.82 60.82 0 0 1-1-6.73 61.56 61.56 0 0 0 .87 6.59c.11.68.59 2.45-.35 2.8s-1.74-1.34-2.02-2.01z" fill="#c12208"/><path d="M44.82 114.61c-.34-.77-.48-1.65-.77-2.44a16.16 16.16 0 0 1-.69-2.44 37.23 37.23 0 0 1-.55-6.28q-.08-3.13-.11-6.27c0-1.13 0-2.24.09-3.37 0-.21 0-1.16.11-1.32s.73.21.94.45A7.24 7.24 0 0 1 45 94.82a10.47 10.47 0 0 1 .49 3c.22 1.75.6 3.49.92 5.22a41.17 41.17 0 0 0 1.86 6.6c.39 1 .86 2.07 1.3 3.1s1.15 2.2.9 3.44c-.16.66-1.15.74-1.6.4a5.1 5.1 0 0 1-1.22-2 52.63 52.63 0 0 1-1.65-5.21c.22 1 .44 1.91.71 2.85.31 1.1.8 2.11 1.18 3.18s-.12 1.46-1.09 1a3.77 3.77 0 0 1-1.98-1.79z" fill="#c12208"/><path d="M54.39 116.18c-.09.69-1.11.73-1.62.61-1.51-.37-2.73-3.58-3.32-4.82a35.57 35.57 0 0 1-1.76-4.53c-.44-1.38-.78-2.84-1.13-4.24s-.42-2.89-.64-4.33-.28-3.26-1.1-4.66-2.2-2.51-2.88-4.1c-.25-.58-.46-1.2-.66-1.8a5.39 5.39 0 0 1 0-2.58 36.22 36.22 0 0 0 .31-5.35 25 25 0 0 0-.59-4.93 5.54 5.54 0 0 0 1.12-.09c1.12 3.21 2.09 6.47 3.3 9.65a20 20 0 0 0 1.07 2.51c.35.64.92 1 1.2 1.67.54 1.41 1 2.86 1.52 4.29a9.69 9.69 0 0 1 .91 3.15 10 10 0 0 1-.24 1.23 10.93 10.93 0 0 0-.07 1.52 13.48 13.48 0 0 0 1.48 5.29 55.81 55.81 0 0 0 3.22 5.61c.54.89 1.11 1.77 1.65 2.66.33.54 2.39 3.31 2.21 4.2-.13.64-1.66 1-2.27.34a18 18 0 0 1-2.7-4.2c-.72-1.55-1.42-3.1-2.17-4.64.58 1.42 1.14 2.89 1.85 4.25.2.52 1.39 2.69 1.31 3.29z" fill="#c12208"/><path d="M55.38 111.32q-1.29-1.92-2.52-3.88c-1.8-2.87-3.2-6.12-2.82-9.56.06-.55.23-1.33.81-.79a18.38 18.38 0 0 1 1.62 2c1.18 1.46 2.4 2.88 3.64 4.3s2.67 3 4 4.51c.7.81 1.35 1.66 2 2.52.49.68 2 2.28 1.76 3.2-.13.46-.77 1.07-1.25 1a3.79 3.79 0 0 1-1.69-1.46c-.86-1.35-1.85-2.62-2.79-3.91a41.33 41.33 0 0 1 3.31 5c.82 1.79-2.08 2-2.78 1.58-1.43-.89-2.44-3.24-3.29-4.51z" fill="#c12208"/><path d="M61.17 109l-2.5-3c-1.53-1.87-3.14-3.67-4.68-5.54a27.32 27.32 0 0 1-4-5.72c-.51-1.1-.9-2.27-1.31-3.42-.12-.32-1.17-2.64-.7-2.69s1.59 1.25 2 1.65l2.76 2.54c1.87 1.72 3.7 3.48 5.55 5.23 2.11 2 4.3 3.93 6.36 6 .76.75 1.51 1.5 2.26 2.26s1.94 1.69 1.58 3a1.29 1.29 0 0 1-2 .57 9.3 9.3 0 0 1-1.74-1.9c-1.17-1.35-2.39-2.68-3.68-3.92 1.36 1.58 2.74 3.15 4.15 4.68.57.62 1.6 1.43 1.18 2.37s-1.76.85-2.57.45a8.2 8.2 0 0 1-2.66-2.56z" fill="#c12208"/><path d="M64.72 103.89c-1.29-1.2-2.56-2.42-3.82-3.66-2.49-2.46-5.17-4.75-7.76-7.12-1.45-1.33-2.91-2.65-4.34-4A23 23 0 0 1 46.53 87c-1.28-1.61-1.72-3.93-2.39-5.86l-1.49-4.31a13 13 0 0 1-.54-1.43 4.37 4.37 0 0 0 .74-.21 9.83 9.83 0 0 1 .57.85c.81 1.21 1.58 2.44 2.38 3.65a48.88 48.88 0 0 0 3 4.29 18.57 18.57 0 0 0 4 3.28c1.77 1.23 3.45 2.61 5.12 4 1.5 1.23 3 2.44 4.43 3.78 2.65 2.57 6.38 4.77 7.41 8.52a.75.75 0 0 1-.69 1c-.55 0-1.08-.72-1.46-1.06-1.08-1-2.13-1.95-3.22-2.89 1.38 1.31 2.82 2.57 4.17 3.92a3 3 0 0 1 1 2c.06.72 0 1.47-1 1.12-.73-.26-1.38-1.21-1.91-1.75s-1.24-1.37-1.93-2.01z" fill="#c12208"/><path d="M64.53 96.78c-3.82-3.37-7.66-6.67-11.77-9.69a19.39 19.39 0 0 1-3.15-2.42 42.13 42.13 0 0 1-2.9-3.82c-.81-1.13-1.54-2.32-2.29-3.48-.36-.56-.67-1.13-1-1.71a5.36 5.36 0 0 1-.3-.63 3 3 0 0 0 .59-.37h.27c1 .36 2 .72 3.16 1.07 1.14.51 2.25 1.09 3.41 1.61a43.08 43.08 0 0 1 6.51 3.56 12.13 12.13 0 0 1 2.75 2.31l2.88 3.66a51.33 51.33 0 0 1 4.27 6c1.23 2.13 3 4.56 2.91 7.13 0 1.75-1.64.31-2.2-.26-1-1.01-2.05-2-3.14-2.96z" fill="#c12208"/><path d="M44.14 81.09l-1.49-4.31a13 13 0 0 1-.54-1.43 4.38 4.38 0 0 0 .74-.21 9.82 9.82 0 0 1 .57.85c.81 1.21 1.58 2.44 2.38 3.65a48.9 48.9 0 0 0 3 4.29 18.58 18.58 0 0 0 4 3.28c.54.38 1.07.77 1.6 1.17-2.54-1.46-7.07-1-6.56-.13A10 10 0 0 1 46.53 87c-1.28-1.65-1.72-4-2.39-5.91z" fill="#b65920"/><path d="M54.49 88.4c-.57-.44-1.14-.89-1.73-1.32a19.39 19.39 0 0 1-3.15-2.42 42.19 42.19 0 0 1-2.9-3.82c-.81-1.13-1.54-2.32-2.29-3.48-.36-.56-.67-1.13-1-1.71a5.35 5.35 0 0 1-.3-.63 3.05 3.05 0 0 0 .59-.37h.27c1 .36 2 .72 3.16 1.07 1.14.51 2.25 1.09 3.41 1.61a43.09 43.09 0 0 1 6.51 3.56 12.13 12.13 0 0 1 2.75 2.31l2.88 3.66a51.34 51.34 0 0 1 4.27 6l.44.74c-3.96-3.36-11.13-6.26-12.91-5.2z" fill="#b65920"/><path d="M36.21 111.79a37.93 37.93 0 0 1-.81-10 28.22 28.22 0 0 0-.14 3 38.76 38.76 0 0 0 .45 5.37c.08.49.55 1.58 0 1.87a.81.81 0 0 1-1-.28 23 23 0 0 1-2.53-10.41c0-.39.05-.78.11-1.17.5-3.56 1.39-7.1 2.14-10.61a52.74 52.74 0 0 1 3.35-10.31A22.39 22.39 0 0 1 38.82 77c.22-.37.45-.74.67-1.11.07-.12.17-.33.28-.53a6.58 6.58 0 0 0 1 .13c.06.41.07.85.09 1a32.83 32.83 0 0 1 .07 9.42c-.5 3.33-2.1 6.38-2.77 9.68a28.15 28.15 0 0 0-.48 5.22c0 1.74-.1 3.44 0 5.18s.29 3.4.43 5.1c0 .5.41 2.08-.37 2.22s-1.38-.91-1.53-1.52z" fill="#9e7b47"/><path d="M38.88 114.26a12 12 0 0 1-.61-3.23c-.13-1.11-.23-2.22-.32-3.33a63.35 63.35 0 0 1-.19-7 25.44 25.44 0 0 1 1-7c.34-1 .73-2 1.06-3 .15-.46.4-2.33 1.18-2 .63.28.77 1.67 1 2.27a10.17 10.17 0 0 1 .55 1.35 6.85 6.85 0 0 1 .1 1.67c-.05 2.45 0 4.87 0 7.32a55.34 55.34 0 0 0 .48 8c.22 1.26.6 2.49.91 3.73.27 1.08.91 2.64-.15 3.48-1.7 1.34-2.3-1.85-2.51-2.91a60.82 60.82 0 0 1-1-6.73 61.56 61.56 0 0 0 .87 6.59c.11.68.59 2.45-.35 2.8s-1.74-1.34-2.02-2.01z" fill="#9e7b47"/><path d="M44.82 114.61c-.34-.77-.48-1.65-.77-2.44a16.16 16.16 0 0 1-.69-2.44 37.23 37.23 0 0 1-.55-6.28q-.08-3.13-.11-6.27c0-1.13 0-2.24.09-3.37 0-.21 0-1.16.11-1.32s.73.21.94.45A7.24 7.24 0 0 1 45 94.82a10.47 10.47 0 0 1 .49 3c.22 1.75.6 3.49.92 5.22a41.17 41.17 0 0 0 1.86 6.6c.39 1 .86 2.07 1.3 3.1s1.15 2.2.9 3.44c-.16.66-1.15.74-1.6.4a5.1 5.1 0 0 1-1.22-2 52.63 52.63 0 0 1-1.65-5.21c.22 1 .44 1.91.71 2.85.31 1.1.8 2.11 1.18 3.18s-.12 1.46-1.09 1a3.77 3.77 0 0 1-1.98-1.79z" fill="#9e7b47"/><path d="M54.39 116.18c-.09.69-1.11.73-1.62.61-1.51-.37-2.73-3.58-3.32-4.82a35.59 35.59 0 0 1-1.76-4.53c-.44-1.38-.78-2.84-1.13-4.24s-.42-2.89-.64-4.33-.28-3.26-1.1-4.66-2.2-2.51-2.88-4.1c-.25-.58-.46-1.2-.66-1.8a5.39 5.39 0 0 1 0-2.58 36.22 36.22 0 0 0 .31-5.35 25 25 0 0 0-.59-4.93 6.1 6.1 0 0 0 1.12-.09c.23.66.88 2.51 1.22 3.63.66 2 1.32 4 2.08 6a20 20 0 0 0 1.07 2.51c.35.64.92 1 1.2 1.67.54 1.41 1 2.86 1.52 4.29a9.69 9.69 0 0 1 .91 3.16 10 10 0 0 1-.24 1.23 10.93 10.93 0 0 0-.07 1.52 13.48 13.48 0 0 0 1.48 5.29 55.81 55.81 0 0 0 3.22 5.61c.54.89 1.11 1.77 1.65 2.66.33.54 2.39 3.31 2.21 4.2-.13.64-1.66 1-2.27.34a18 18 0 0 1-2.7-4.2c-.72-1.55-1.42-3.1-2.17-4.64.58 1.42 1.14 2.89 1.85 4.25.2.53 1.39 2.7 1.31 3.3z" fill="#9e7b47"/><path d="M38 96.53c-.14.9-.22 1.81-.26 2.72a8.46 8.46 0 0 0-5.25 4.54 3.09 3.09 0 0 1-.06-.65A7.91 7.91 0 0 1 38 96.53z" fill="#f1e7d2"/><path d="M42.62 96.23v3c-1-.72-4.11-.59-4.78 0 .06-.91.14-1.82.27-2.72a7.15 7.15 0 0 1 4.51-.28z" fill="#f1e7d2"/><path d="M42.73 99.26V96.25a11.8 11.8 0 0 1 2.77 1c0 .18 0 .36.06.55.11.83.25 1.66.4 2.48a17.72 17.72 0 0 0-3.23-1.02z" fill="#f1e7d2"/><path d="M45.91 98.86c-.07-.49-.13-1-.19-1.48a7.27 7.27 0 0 1 4.28 5.27 19.05 19.05 0 0 0-3.89-2.29c-.11-.5-.11-1-.2-1.5z" fill="#f1e7d2"/><path d="M34.37 89.88a18.63 18.63 0 0 1 5.31.64 42.26 42.26 0 0 0-1.48 4.87c-2.25.71-3.95 2.23-5.83 3.8.5-3.13 1.26-6.23 1.92-9.32z"/><path d="M38.76 93.71c.34-1 .73-2 1.06-3v-.11a22.74 22.74 0 0 1 2.3.75 4.9 4.9 0 0 1 .4 1 6.86 6.86 0 0 1 .1 1.67v1.09a13 13 0 0 0-2.2-.07 8.91 8.91 0 0 0-2.1.36 15.08 15.08 0 0 1 .44-1.69z"/><path d="M42.78 93.81c0-.21 0-1.16.11-1.32s.73.21.94.45A7.24 7.24 0 0 1 45 94.82a4.38 4.38 0 0 1 .25.84 13.23 13.23 0 0 0-2.56-.58c.03-.43.05-.85.09-1.27z"/><path d="M44.82 94.2a27.32 27.32 0 0 0-2-2.61A15.49 15.49 0 0 1 50 97.1c-.06.24-.13.48-.16.73v.23a15.83 15.83 0 0 0-4.38-2.39 5.92 5.92 0 0 0-.64-1.47z"/><path d="M33.2 106.47a7.29 7.29 0 0 1 2.18-4.47 26.74 26.74 0 0 0-.12 2.76 38.76 38.76 0 0 0 .45 5.37 11.37 11.37 0 0 1 .25 1.19 7.06 7.06 0 0 1-2.76-4.85z"/><path d="M35.39 102a7.2 7.2 0 0 1 2.29-1.38v.13c0 1.74-.1 3.44 0 5.18s.29 3.4.43 5.1a11 11 0 0 1 .12 1.28 13.72 13.72 0 0 1-2.14-.88 38.42 38.42 0 0 1-.7-9.43z"/><path d="M38 107.7a63.35 63.35 0 0 1-.19-7v-.07a9.68 9.68 0 0 1 4.88-.41v1.09a55.34 55.34 0 0 0 .48 8c.22 1.26.59 2.49.91 3.73v.11a13.4 13.4 0 0 1-1.37 0 12.87 12.87 0 0 1-1.42-.12 60 60 0 0 1-.86-6.19 57.17 57.17 0 0 0 .81 6.18 18 18 0 0 1-2.8-.63c-.06-.45-.11-.9-.16-1.35-.13-1.12-.28-2.23-.28-3.34z"/><path d="M43.36 109.73a37.21 37.21 0 0 1-.55-6.28c0-1.08 0-2.15-.06-3.23a9.33 9.33 0 0 1 1 .22 12.47 12.47 0 0 1 2.41 1c.1.51.2 1 .29 1.53a41.16 41.16 0 0 0 1.86 6.6c.2.54.42 1.08.65 1.61a7.61 7.61 0 0 1-2 1.23c-.31-1-.59-2.06-.9-3.07.22 1 .44 1.91.71 2.85 0 .09.06.17.08.26a9.28 9.28 0 0 1-2.5.59c-.08-.31-.17-.61-.28-.9a16.16 16.16 0 0 1-.71-2.41z"/><path d="M46.55 103.19a15.65 15.65 0 0 1-.3-1.65c3.57.83 4.95 5.49 4.48 7a5.49 5.49 0 0 1-1.62 2.59 37 37 0 0 1-1.38-3.68c-.48-1.4-.83-2.85-1.18-4.26z"/><path d="M35.84 106.41c0-1.65.74-3.49 1.81-3.77 0 1.1 0 2.2.06 3.31.13 1.61.27 3.22.41 4.83a6.2 6.2 0 0 1-2.28-4.37z" fill="#adbcef"/><path d="M38.26 110.86c-.12-1.05-.22-2.11-.3-3.17-.12-1.7-.21-3.4-.22-5.11.73-.88 4.28-.37 5 1.06a36.22 36.22 0 0 0 .43 5.61c.17.93.41 1.85.66 2.77a8.78 8.78 0 0 1-2.72-.16c-.29-1.67-.52-3.34-.66-5a47.6 47.6 0 0 0 .62 5 12.48 12.48 0 0 1-2.24-.71 4.84 4.84 0 0 1-.57-.29z" fill="#adbcef"/><path d="M42.82 103.71c1.5.91 2.19 3.54 2.29 4.91.07.92-.4 3.27-1.11 3.37a16 16 0 0 1-.64-2.27 36 36 0 0 1-.54-6.01z" fill="#adbcef"/><path d="M49.24 106.09a4.14 4.14 0 0 1-.5 3.73 62.31 62.31 0 0 1-2.14-6.73 4.4 4.4 0 0 1 2.64 3z" fill="#adbcef"/><path d="M55.38 111.32c-.77-1.15-1.52-2.31-2.26-3.48 1.18 1.45 3.85 1.75 4.32.63 1.28.92 2.55 0 2.32-1l.31.36c.7.81 1.35 1.66 2 2.53.49.68 2 2.28 1.76 3.2-.13.46-.77 1.07-1.25 1a3.79 3.79 0 0 1-1.69-1.46c-.86-1.35-1.85-2.62-2.79-3.91a41.32 41.32 0 0 1 3.31 5c.82 1.79-2.08 2-2.78 1.58-1.39-.83-2.4-3.18-3.25-4.45z" fill="#9e7b47"/><path d="M61.17 109l-1.26-1.52c1.46 1.26 3.58 0 3.54-.73.57.63 1.13 1.27 1.71 1.89s1.6 1.43 1.18 2.37-1.76.85-2.57.45a8.2 8.2 0 0 1-2.6-2.46z" fill="#9e7b47"/><path d="M64.69 107.93l-1.11-1.25a1.62 1.62 0 0 0 1.64-2.05c.56.55 1.12 1.11 1.67 1.67.78.8 1.94 1.69 1.58 3a1.29 1.29 0 0 1-2 .57 9.3 9.3 0 0 1-1.78-1.94z" fill="#9e7b47"/><path d="M65.31 104.46c.84.23 1.26-1.54.88-2.23.81.74 1.61 1.49 2.38 2.27a3 3 0 0 1 1 2c.06.72 0 1.47-1 1.12-.73-.26-1.38-1.21-1.91-1.75s-.87-.94-1.35-1.41z" fill="#9e7b47"/><path d="M66.21 102.18c.57.13 1.23-1.94.74-3.11a10.09 10.09 0 0 1 2.82 4.43.75.75 0 0 1-.69 1c-.55 0-1.08-.73-1.46-1.06z" fill="#9e7b47"/><path d="M47.59 79.07c-1.23-1.35-2.81-2.5-3.88-4a1.48 1.48 0 0 0-.26-.27l.27-.2h.27c1 .36 2 .72 3.16 1.07 1.14.51 2.25 1.09 3.41 1.61a43.09 43.09 0 0 1 6.51 3.56 12.13 12.13 0 0 1 2.75 2.31l2.88 3.66c.62.79 1.24 1.59 1.84 2.39a71.69 71.69 0 0 1-12.11-6.07 27.13 27.13 0 0 1-4.84-4.06z" fill="#9e7b47"/><path d="M67 99c.65-.54 1.32-3.17.52-5.3 1.15 1.92 2.45 4 2.41 6.29 0 1.75-1.64.31-2.2-.26z" fill="#9e7b47"/><path d="M59.57 107.28a44.64 44.64 0 0 1-8.7-10q4.19 5.31 8.7 10z" fill="#8e0d00"/><path d="M61.48 101.3A110.27 110.27 0 0 1 50.2 90.71Q56.14 96 61.48 101.3z" fill="#8e0d00"/><path d="M66.7 99a38.32 38.32 0 0 1-5.88-5.22c2.18 1.9 4.27 3.68 5.88 5.22z" fill="#8e0d00"/><path d="M43.93 76.93a64.05 64.05 0 0 0 5.52 7.91c-1.85-1.47-3.68-4.39-5.52-7.91z" fill="#9e4412"/><path d="M40.24 88.2a44.4 44.4 0 0 0 .43-12.32c.78 5.61.48 9.46-.43 12.32z" fill="#846134"/><path d="M44.08 81.84c1 3 2 5.88 2.83 6.55-1.32-.66-2.08-3.56-2.83-6.55z" fill="#846134"/><path d="M49.87 96.72a76.73 76.73 0 0 1-2.39-7.48c1.24 3.15 2.36 6.12 2.39 7.48z" fill="#846134"/><path d="M65.18 104.12L55.1 94.6a72.8 72.8 0 0 1 10.08 9.52z" fill="#b65920"/><path d="M63.44 95.63c-2.86-2.58-5.73-5-8.58-7.2a41.32 41.32 0 0 1 8.58 7.2z" fill="#b65920"/><path d="M59.86 107.32L55 101.45a30.34 30.34 0 0 1 4.86 5.87z" fill="#b65920"/><path d="M50.13 100a31.87 31.87 0 0 0 2.69 7.15 16.06 16.06 0 0 1-2.69-7.15z" fill="#b65920"/><path d="M46.2 86.29c-1.25-2.92-2.56-6.71-3.91-10.86a94.51 94.51 0 0 1 3.91 10.86z" fill="#e27030"/><path d="M53.63 87.49a14.94 14.94 0 0 1-5.75-5.22 28.36 28.36 0 0 0 5.75 5.22z" fill="#e27030"/><path d="M42 89.86c-1.19-2.6-.38-4.55-.38-8.22.33 3.3-.52 5.83.38 8.22z" fill="#e2ac64"/><path d="M37.18 80.67c-1 2.79-1.9 5.86-2.79 9.12a47.45 47.45 0 0 1 2.79-9.12z" fill="#e2ac64"/><path d="M49.58 111.6a5.29 5.29 0 0 0 1.66-2.1c.32 1.44-.71 2.44-1.66 2.1z" fill="#f1e7d2"/><path d="M49.13 111.95a1.17 1.17 0 0 1-1.78 1.05 5.33 5.33 0 0 0 1.78-1.05z" fill="#f1e7d2"/><path d="M46.88 113.21c-.13.93-1.33 1.27-2.2.52a4.87 4.87 0 0 0 2.2-.52z" fill="#f1e7d2"/><path d="M44.14 113.89c-.43 1-1.7.89-2.46 0a5.24 5.24 0 0 0 2.46 0z" fill="#f1e7d2"/><path d="M41.15 113.71c-.37.81-1.8.54-2.43-.5a5.65 5.65 0 0 0 2.43.5z" fill="#f1e7d2"/><path d="M36 111.89c-.21.77-1 .72-1.36.13.57.37 1.04.41 1.36-.13z" fill="#9e7b47"/><path d="M36.2 112.12c.6 1.4 1.85 1.74 2.09.78-.05 1.38-1.57.83-2.09-.78z" fill="#9e7b47"/><path d="M39.15 115c.78 1.51 2.1 2 2.42.44-.07 1.91-1.68 1.27-2.42-.44z" fill="#9e7b47"/><path d="M41.9 115.85c.85 1.76 2.32 1.19 2.73-.36-.21 2.09-2.01 2.18-2.73.36z" fill="#9e7b47"/><path d="M48.15 116.47c-.43 1.07-1.58.36-3-1.09 1.54 1.43 2.52 1.74 3 1.09z" fill="#9e7b47"/><path d="M50.65 115.79c.29 1.51-1 1.79-2.08.62.89.89 2.16.66 2.08-.62z" fill="#9e7b47"/><path d="M54.49 116.43c-.37 1.17-1.79 1.09-3-.34 1.03 1.07 2.33 1.31 3 .34z" fill="#9e7b47"/><path d="M58.47 117.11c-.17 1.48-1.49 1.41-2.37.56a1.46 1.46 0 0 0 2.37-.56z" fill="#9e7b47"/><path d="M61.64 114.9c-.22 1.41-1.09 1.66-2.89 1.12 1.34.33 2.63.13 2.89-1.12z" fill="#9e7b47"/><path d="M64 113.11c.29 1.38-.8 2.06-1.85 1.45.91.44 1.73-.22 1.85-1.45z" fill="#9e7b47"/><path d="M66.51 110.12c.55 1.93-.85 2.71-2.83 1.47 1.84.96 3.16.21 2.83-1.47z" fill="#9e7b47"/><path d="M68.44 107.88c1.05 1.8-.18 3-1.73 2.23 1.39.5 2.5-.48 1.73-2.23z" fill="#9e7b47"/><path d="M69.18 105c1.32 2.06 1.07 3.48-.52 2.84 1.34.35 1.55-1.11.52-2.84z" fill="#9e7b47"/><path d="M69.2 101.64c1.12 1.8 1.48 3.09-.08 3.1 1.23-.26 1.01-1.45.08-3.1z" fill="#9e7b47"/><path d="M70 99.43c.38 2.15-.23 2.32-1.46 1.25 1.19.83 1.65.32 1.46-1.25z" fill="#9e7b47"/><path d="M52 106.56c2 3.48 4 6.68 5.89 9.49a41.94 41.94 0 0 1-5.89-9.49z" fill="#846134"/><path d="M51.67 110.26c.82 1.69 1.64 3.53 2.46 5.49a16.41 16.41 0 0 1-2.46-5.49z" fill="#846134"/><path d="M60 107.89c1.08 1.27 2.27 2.86 3.52 4.59a15.1 15.1 0 0 1-3.52-4.59z" fill="#846134"/><path d="M65.86 109.58a7.88 7.88 0 0 1-2.33-2.58z" fill="#846134"/><path d="M63.72 88.69a54 54 0 0 1-14.39-8.27 140.36 140.36 0 0 0 14.39 8.27z" fill="#b65920"/><path d="M61.34 85.59c-2.8-3.07-6.87-5.82-11.64-8.38 5.62 2.46 9.56 5.24 11.64 8.38z" fill="#846134"/><path d="M67.84 94.65c.62 2 .44 3.49-.69 4.41a5.48 5.48 0 0 0 .69-4.41z" fill="#c12208"/><path d="M67.11 99.37c.34 1.64.1 2.62-.76 2.9q1.04-.62.76-2.9z" fill="#c12208"/><path d="M66.34 102.5c.36 1.25 0 2.17-.88 2 .76-.03 1-.77.88-2z" fill="#c12208"/><path d="M65.36 104.93c.22 1.39-.54 2.05-1.59 1.86a1.6 1.6 0 0 0 1.59-1.86z" fill="#c12208"/><path d="M63.47 107.2c-1 1.29-2 1.42-3.13.73a2.63 2.63 0 0 0 3.13-.73z" fill="#c12208"/><path d="M59.88 108c-.36 1.21-1.15 1.37-2.26.71a1.46 1.46 0 0 0 2.26-.71z" fill="#c12208"/><path d="M57.37 108.81c-1 1.1-2.23.82-3.61-.25 1.42.85 2.64 1.01 3.61.25z" fill="#c12208"/><path d="M54.55 88c3-1.23 7.24 1.14 11.79 4.4-4.51-2.8-8.71-4.9-11.79-4.4z" fill="#c12208"/><path d="M53.28 87.73C51 87 49.11 87 47.71 87.8c1.04-1.37 3.03-1.16 5.57-.07z" fill="#c12208"/><path d="M50.91 108a3.25 3.25 0 0 1-1.71 3.16 4.72 4.72 0 0 0 1.71-3.16z"/><path d="M48.91 111.32A3 3 0 0 1 47 112.5a9.93 9.93 0 0 0 1.91-1.18z"/><path d="M44.39 113.14a9.46 9.46 0 0 0 2.38-.53 3.54 3.54 0 0 1-2.38.53z"/><path d="M44 113.17a3.21 3.21 0 0 1-2.64-.08 8 8 0 0 0 2.64.08z"/><path d="M41.16 113.08a3.59 3.59 0 0 1-2.66-.58 11.08 11.08 0 0 0 2.66.58z"/><path d="M38.18 112.39a2.77 2.77 0 0 1-2-.84 8.84 8.84 0 0 0 2 .84z"/><path d="M33.06 106.73a6.76 6.76 0 0 0 2.76 4.66 5 5 0 0 1-2.76-4.66z"/><path d="M37.49 100.49c-2.3.74-3.63 2.69-4.43 5.29.49-2.65 1.62-4.72 4.43-5.29z"/><path d="M42.54 100.11a6.83 6.83 0 0 0-4.68.35 4.45 4.45 0 0 1 4.68-.35z"/><path d="M46.37 101.43a4.66 4.66 0 0 1 4.25 4.46 6 6 0 0 0-4.25-4.46z"/><path d="M37.58 99.51a12.16 12.16 0 0 0-5 4.36 7.92 7.92 0 0 1 5-4.36z" fill="#f1e7d2"/><path d="M42.52 99.33a9 9 0 0 0-4.64 0 5.46 5.46 0 0 1 4.64 0z" fill="#f1e7d2"/><path d="M45.81 100.4c-1-.38-2.05-.71-3-1a8.3 8.3 0 0 1 3 1z" fill="#f1e7d2"/><path d="M50 102.84a30.37 30.37 0 0 0-3.79-2.2 10.4 10.4 0 0 1 3.79 2.2z" fill="#f1e7d2"/><path d="M45.82 97.22a4.91 4.91 0 0 1 3.75 3.68 7.17 7.17 0 0 0-3.75-3.68z" fill="#f1e7d2"/><path d="M42.78 96.13a3.2 3.2 0 0 1 2.52.87 7 7 0 0 0-2.52-.87z" fill="#f1e7d2"/><path d="M42.43 96a8.23 8.23 0 0 0-4.2.28 4.63 4.63 0 0 1 4.2-.28z" fill="#f1e7d2"/><path d="M37.85 96.41a8 8 0 0 0-5.31 5.45c.73-2.94 2.4-4.86 5.31-5.45z" fill="#f1e7d2"/><path d="M38 95.23a14.25 14.25 0 0 0-5.42 3.57A8.06 8.06 0 0 1 38 95.23z" fill="#9e7b47"/><path d="M42.47 94.89a8.55 8.55 0 0 0-3.86.18 3.92 3.92 0 0 1 3.86-.18z" fill="#9e7b47"/><path d="M45.06 95.42a8.16 8.16 0 0 0-2.19-.53 2.82 2.82 0 0 1 2.19.53z" fill="#9e7b47"/><path d="M49.62 97.79a13.69 13.69 0 0 0-4-2.19 6.21 6.21 0 0 1 4 2.19z" fill="#9e7b47"/><path d="M39.56 90.35a15.26 15.26 0 0 0-5-.66 6.51 6.51 0 0 1 5 .66z"/><path d="M40 90.5a2.65 2.65 0 0 1 2 .67 8.75 8.75 0 0 0-2-.67z"/><path d="M49.18 95.77A14.63 14.63 0 0 0 43 91.49a9.64 9.64 0 0 1 6.18 4.28z"/><path d="M37.38 102.48c-1.87 1.31-2.07 3.94-1.11 6.29-1.27-2.42-.99-5.37 1.11-6.29z" fill="#adbcef"/><path d="M42.53 103.15a4.74 4.74 0 0 0-4.62-.91 3.87 3.87 0 0 1 4.62.91z" fill="#adbcef"/><path d="M41 112a3.71 3.71 0 0 1-2.6-.89 8.44 8.44 0 0 0 2.6.89z" fill="#adbcef"/><path d="M44.6 105.86c1.18 2.46 1.08 5.47-.44 6.23 1.31-1.09 1.5-3.68.44-6.23z" fill="#adbcef"/><path d="M47.68 103.53a4.3 4.3 0 0 1 1.32 6.31 4.75 4.75 0 0 0-1.32-6.31z" fill="#adbcef"/><path d="M15 135a5.28 5.28 0 0 0-4.93 1.38 2.26 2.26 0 0 1-1.53.89c-1.11.07-1.87-.91-2.9-.77-.61.09-2.32 1.3-3.23.82-3-1.54-2.44-10.25-2.26-13.16.26-4.34 1.55-8.09 2.84-11.9 4.53-13.43 15.21-29.47 28.76-37a23.57 23.57 0 0 1 3.51-1.68c1.13 1.13 4.1.67 4.74.53-.32 7.31 2.24 14.74 3.28 18.25s3.1 7.75 3.82 13.54c.27 2.11.16 7-.59 9.09-.41 1.17-1.11-.18-2 .67s-1.36 2-2.55 2.39c-.69.23-1.85-.19-2.52.12a4.65 4.65 0 0 0-1.42 1c-.31.32-.15 1.78-.85 2-1 .4-1.9-.76-2.83-.35s-1.32 2-2.21 2.48-2.12-.39-3-.1c-2.85 1-3 2-4 3.74-1.14 1.89-2.71 2.3-4.06 3.82-.7.79-1.15 4.75-2.12 5.18s-2.45-.42-3.95-.94z"/><path d="M11.29 106c-.5.05-1.29.48-1.78.24s0-1.21.17-1.65a42.88 42.88 0 0 1 4.56-8.31c1.8-2.68 3.64-5.32 5.7-7.81a78.61 78.61 0 0 1 6.64-6.9c1.27-1.21 2.46-2.48 3.76-3.66.92-.83 1.86-1.65 2.83-2.43a2.61 2.61 0 0 0 1.52-1.19 4 4 0 0 1 .6-.39 4.11 4.11 0 0 0 1.46.55c-.43 1.25-1.15 2.41-1.66 3.62a45 45 0 0 1-3.55 7.46c-1.7 2.57-3.46 5.09-5.15 7.66s-3.13 5.11-4.61 7.73a12.91 12.91 0 0 1-2.28 3.49 6.65 6.65 0 0 1-1.68.9 9.31 9.31 0 0 1-2.13 1c-1.44.27-2.95-.43-4.4-.31z" fill="#c12208"/><path d="M7.49 130.34c-.06-.3-.11-.59-.15-.85.04.27.1.51.15.85z" fill="#c12208"/><path d="M12 129.31a32.32 32.32 0 0 1-.28-3.61 33.81 33.81 0 0 0 .14 3.52c.07.8.51 2.95 0 3.65a2.4 2.4 0 0 1-3 .53c-.77-.48-1.2-1.86-1.44-3.06 0-.29-.1-.58-.15-.85v-.51.51c0 .26.09.55.15.85a3.59 3.59 0 0 1-.18 2.45 3.13 3.13 0 0 1-3.38 1.07c-2.8-.86-3.5-3.42-3.52-6a80.47 80.47 0 0 1 .67-8.48 28.89 28.89 0 0 1 2-6.86c2.09-5.17 9.93-26.82 29.1-36.86a2.6 2.6 0 0 0 .81-.06c-18 13.77-23 27.19-24.16 31.06A42.06 42.06 0 0 0 6.94 118a38.5 38.5 0 0 1 .63-5.68c.2-1 .45-2 .67-3a3.39 3.39 0 0 1 1.16-2.34 4.64 4.64 0 0 1 2.89-.77c.7 0 2.17.05 2.52.79a3.55 3.55 0 0 1 .05 1.55c0 .62-.05 1.24 0 1.86 0 .9.11 1.8.17 2.7a39.74 39.74 0 0 1 0-4c0-1.21.17-2 1.26-2.63.59-.34 1.2-.67 1.81-1s1.31-.66 1.61.23a18.52 18.52 0 0 1 .42 3.16 77.14 77.14 0 0 0 1.92 9c.34 1.26.64 2.53.9 3.81s1 4.22.52 5.36c-.36.79-1.91 2.57-2.89 1.89-.58-.4-.91-2.93-1-3.55s-.24-1.4-.33-2.11c.07.94.21 1.87.3 2.81s.49 5-.24 5.65a1.34 1.34 0 0 1-2.12-.45c-.42-.78-.91-5.21-1.06-6.09-.59-3.49-.62-7.07-1-10.58.15 2.21.29 4.41.46 6.62.09 1.18.29 2.35.36 3.53s.16 2.31.25 3.47.56 3.87.22 4.81c-.41 1.16-1.88 1-2.57.67-1.07-.6-1.63-3.45-1.85-4.4z" fill="#c12208"/><path d="M7.31 129.27v-.29c-.03.1-.01.2 0 .29z" fill="#c12208"/><path d="M11.29 106c-.5.05-1.29.48-1.78.24s0-1.21.17-1.65a42.88 42.88 0 0 1 4.56-8.31c1.8-2.68 3.64-5.32 5.7-7.81a78.61 78.61 0 0 1 6.64-6.9c1.27-1.21 2.46-2.48 3.76-3.66.92-.83 1.86-1.65 2.83-2.43a2.61 2.61 0 0 0 1.52-1.19 4 4 0 0 1 .6-.39 4.11 4.11 0 0 0 1.46.55c-.43 1.25-1.15 2.41-1.66 3.62a45 45 0 0 1-3.55 7.46c-1.7 2.57-3.46 5.09-5.15 7.66s-3.13 5.11-4.61 7.73a12.91 12.91 0 0 1-2.28 3.49 6.65 6.65 0 0 1-1.68.9 9.31 9.31 0 0 1-2.13 1c-1.44.27-2.95-.43-4.4-.31z" fill="#c12208"/><path d="M29.86 119c-.37-1.39-.66-2.79-1-4.18a69.24 69.24 0 0 1-1.62-8.13c-.18-1.44-.29-2.89-.49-4.33s-.43-3-.58-4.43c-.12-1.22-.44-3 .15-4.14a33.63 33.63 0 0 1 2.3-3.47c.87-1.27 1.78-2.51 2.67-3.76.13-.19.76-1.43 1-1.46.45-.06.39 1.34.41 1.61.31 5.47 1 10.89 1.48 16.33.3 3.27.69 6.52 1.17 9.77.22 1.48.53 2.94.78 4.41a2.35 2.35 0 0 1-1.4 2.78c-.94.32-1.31-.61-1.51-1.31-.36-1.26-.62-2.55-.91-3.82l.56 3.52c.16 1 .51 2.54-.76 2.89-1.46.41-1.98-1.2-2.25-2.28z" fill="#c12208"/><path d="M35.48 113.23c-.38-2.82-.78-5.66-1-8.49-.17-1.77-.26-3.55-.44-5.31-.17-1.6-.45-3.19-.6-4.8a73.58 73.58 0 0 1-.51-9 14.18 14.18 0 0 1 1.58-5.09c.69-1.57 1.41-3.12 2.09-4.68.17-.39.34-.84.54-1.27a6 6 0 0 0 .95 0 27.88 27.88 0 0 0-.43 3.58c-.32 6.27 1.41 12.38 3 18.38a85.57 85.57 0 0 1 2.12 11.34 34.85 34.85 0 0 1 .07 4.85c0 1.79 0 3.42-1.74 4.39a12.33 12.33 0 0 1-1.89.73A2.58 2.58 0 0 1 37 118c-1.28-.79-1.34-3.44-1.52-4.77z" fill="#c12208"/><path d="M43.07 113.64a86.59 86.59 0 0 0-.72-9.66c-.56-3.32-1.22-6.58-2-9.85-1.35-5.59-2.81-11.08-2.5-16.88a15.34 15.34 0 0 1 .29-2.68 6.82 6.82 0 0 0 1.24-.18l.39-.11a36 36 0 0 0 .61 7.89A71.15 71.15 0 0 0 43 92c1.07 3.4 2.44 6.73 3.21 10.22-.06-.26-.18-.81 0 0a22.66 22.66 0 0 1 .62 4.35 27.31 27.31 0 0 1-.39 4.29 7.2 7.2 0 0 1-1.44 3.89c-.25.27-.85.92-1.28.9-.72-.05-.63-1.5-.65-2.01z" fill="#c12208"/><path d="M26.86 81.33C28 80.2 29.13 79 30.34 77.94c.92-.83 1.86-1.65 2.83-2.43a2.61 2.61 0 0 0 1.52-1.19 4.05 4.05 0 0 1 .6-.39 4.11 4.11 0 0 0 1.46.55c-.43 1.25-1.15 2.41-1.66 3.62a48.74 48.74 0 0 1-3.33 7.11 6.94 6.94 0 0 0-4.9-3.88z" fill="#b65920"/><path d="M33 84.61a18.37 18.37 0 0 1 1.47-4.11c.69-1.57 1.41-3.12 2.09-4.68.17-.39.34-.84.54-1.27a6 6 0 0 0 .95 0 27.86 27.86 0 0 0-.43 3.58 36.13 36.13 0 0 0 .46 7.45C37.56 84 34 83.37 33 84.61z" fill="#b65920"/><path d="M37.85 77.25a15.34 15.34 0 0 1 .29-2.68 6.81 6.81 0 0 0 1.24-.18l.39-.11a36 36 0 0 0 .61 7.89c.15.89.33 1.78.54 2.65a2.16 2.16 0 0 0-2.42 1 37.67 37.67 0 0 1-.65-8.57z" fill="#b65920"/><path d="M30.41 77.87c.89-.81 1.81-1.61 2.75-2.37.57-.38.93-.75 1.52-1.19a4.05 4.05 0 0 1 .6-.39 4.11 4.11 0 0 0 1.46.55c-.43 1.25-1.15 2.41-1.66 3.62l-.67 1.62c-.53-1.02-3.03-2.23-4-1.84z" fill="#6b4a06"/><path d="M34.76 79.83c.6-1.34 1.21-2.68 1.8-4 .17-.39.34-.84.54-1.27a6 6 0 0 0 .95 0 27.86 27.86 0 0 0-.43 3.58v2.1c-.32-.71-2.19-1.01-2.86-.41z" fill="#6b4a06"/><path d="M37.86 80.27c0-1-.06-2 0-3a15.34 15.34 0 0 1 .29-2.68 6.81 6.81 0 0 0 1.24-.18l.39-.11a31.12 31.12 0 0 0 .34 6.16 1.63 1.63 0 0 0-2.26-.19z" fill="#6b4a06"/><path d="M11.91 94.88a58.88 58.88 0 0 1 23.23-21.09 1.39 1.39 0 0 1 .09.11c-9.12 6.64-18.15 16.73-21.72 22.57-.36-.39-.77-.74-1.16-1.13-.16-.15-.3-.34-.44-.46z" fill="#9e7b47"/><path d="M9.51 106.28c-.57-.28 0-1.21.17-1.65a42.88 42.88 0 0 1 4.56-8.31c1.56-2.31 3.15-4.58 4.87-6.77a20 20 0 0 1-.21 8.15c-.36 1.37-1.92 7.89-1.85 8.07a4.35 4.35 0 0 1-1.36.57c-1.44.24-2.94-.46-4.4-.3-.5.06-1.29.48-1.78.24z" fill="#fcffb6"/><path d="M19.94 88.5c.35-.43.72-.84 1.09-1.25a19.17 19.17 0 0 1 6.34 4.52l-.86 1.28c-2.3.56-7.1-.75-8.88-1.56.74-1.01 1.5-2.01 2.31-2.99z"/><path d="M11.29 106c-.5.05-1.29.48-1.78.24s0-1.21.17-1.65a42.88 42.88 0 0 1 4.56-8.31c2.34 1.61 5.57 7.17 5.35 8.06l-.11.11a6.65 6.65 0 0 1-1.68.9 9.31 9.31 0 0 1-2.13 1c-1.42.23-2.93-.47-4.38-.35z"/><path d="M13.82 133.65c.7.36 2.16.49 2.57-.67.34-.94-.12-3.57-.22-4.81s-.18-2.31-.25-3.47-.27-2.35-.36-3.53c-.17-2.2-.31-4.41-.46-6.62.34 3.51.37 7.09 1 10.58.15.87.64 5.31 1.06 6.09a1.34 1.34 0 0 0 2.12.45c.74-.63.33-4.76.24-5.65s-.23-1.87-.3-2.81c.08.71.2 1.41.33 2.11s.44 3.15 1 3.55c1 .67 2.53-1.11 2.89-1.89.52-1.14-.29-4.2-.52-5.36s-.56-2.55-.9-3.81a77.16 77.16 0 0 1-1.92-9 18.52 18.52 0 0 0-.42-3.16c-.29-.89-.93-.55-1.61-.23s-1.22.62-1.81 1C15.14 107 15 107.79 15 109a39.71 39.71 0 0 0 0 4c-.06-.9-.17-1.8-.17-2.7v-1.86a3.55 3.55 0 0 0-.05-1.55c-.36-.74-1.82-.76-2.52-.79a4.64 4.64 0 0 0-2.89.77 3.39 3.39 0 0 0-1.16 2.35c-.22 1-.47 2-.67 3a38.5 38.5 0 0 0-.6 5.78 42.05 42.05 0 0 1 1.81-11.32 45 45 0 0 1 5.07-10.71 5.14 5.14 0 0 0-1.72-1.37 94.15 94.15 0 0 0-9 17.89 28.88 28.88 0 0 0-2 6.86 80.43 80.43 0 0 0-.67 8.48c0 2.62.72 5.18 3.52 6a3.13 3.13 0 0 0 3.38-1.07 3.59 3.59 0 0 0 .18-2.45c.24 1.2.68 2.58 1.44 3.06a2.4 2.4 0 0 0 3-.53c.47-.7 0-2.85 0-3.65a33.81 33.81 0 0 1-.14-3.52 32.31 32.31 0 0 0 .28 3.61c.13.98.69 3.83 1.73 4.37zm-6.51-4.38v.22z"/><path d="M15.92 124.7c.06 1.11.15 2.22.24 3.33-.83 1.65-3.63 1.81-4.12 1.28a32.31 32.31 0 0 1-.28-3.61 33.81 33.81 0 0 0 .14 3.52c-.17.58-4.17 1.26-4.71-1.5-.33.93-2.81 1.4-4-.46-1.51-2.39-1.87-8.82-1.46-10.91.23-.76.48-1.52.76-2.27.69-1.77 3.36-4.74 5.63-5.13a41.26 41.26 0 0 0-1.2 9 38.5 38.5 0 0 1 .63-5.68c.2-1 .45-2 .67-3l.09-.4c1.45-.8 5.19-1 6.53-.14v1.62c0 .9.11 1.8.17 2.7a39.71 39.71 0 0 1 0-4v-.23c1.45-.27 5 1.55 5.53 2.67.41 2.14.92 4.27 1.47 6.36.15.55.28 1.11.42 1.66.1 1.72-1.19 6.19-2.81 6.43 0-.25-.07-.45-.09-.57-.13-.7-.24-1.4-.33-2.11.07.93.2 1.84.3 2.77-.3 1.06-2.37 2.34-3 1.9-.17-1.2-.31-2.34-.38-2.74-.59-3.49-.62-7.07-1-10.58.15 2.21.29 4.41.46 6.62.07 1.11.27 2.29.34 3.47z" fill="#fcffb6"/><path d="M7.46 112.28a39.72 39.72 0 0 0-.52 5.72 38.5 38.5 0 0 1 .63-5.68v-.09c1.75-.66 3.74-.79 4.92 0a5.37 5.37 0 0 1 2 2c1.07 2.1 1.56 5.33.53 7.17-1.64 2.95-6.71 3.11-8.07 2.77-4.27-1.44-4.79-9.42.51-11.89z" fill="#c12208"/><path d="M3.69 119.62A7.4 7.4 0 0 1 5 114.26a18.63 18.63 0 0 1 2.2-.18 38.36 38.36 0 0 0-.27 3.9c.06-1.29.17-2.61.34-3.9a2.19 2.19 0 0 1 1.31.42c2 1.81 1.22 5-.54 5.83-2.12.95-3.87.25-4.35-.71z"/><path d="M12 129.31a32.31 32.31 0 0 1-.28-3.61 33.81 33.81 0 0 0 .14 3.52c-.17.58-4.17 1.26-4.71-1.5-.14-2-.23-3-.26-3.55a20 20 0 0 0 4.75-.59 7.56 7.56 0 0 0 3.83-3v.62c.09 1.18.29 2.35.36 3.53s.15 2.22.24 3.33c-.74 1.62-3.54 1.78-4.07 1.25z" fill="#e5a6d7"/><path d="M16.06 125.13c-.26-1.53-.41-3.07-.52-4.62.13-.17.25-.35.37-.54a13.37 13.37 0 0 0 1.23-10.82c1.48.56 3.06 1.56 3.38 2.28.41 2.14.92 4.27 1.47 6.36.15.55.28 1.11.42 1.66.1 1.72-1.19 6.19-2.81 6.43 0-.25-.07-.45-.09-.57-.13-.7-.24-1.4-.33-2.11.07.93.2 1.84.3 2.77-.3 1.06-2.37 2.34-3 1.9-.22-1.2-.36-2.34-.42-2.74z" fill="#e5a6d7"/><path d="M7.2 127.72c-.33.93-2.81 1.4-4-.46-.83-1.32-1.32-3.87-1.51-6.24.73 3.24 3.16 5.37 5.33 4.58.89 1.08 3.46 1.25 4.75.25 0 1.13 0 2.26.14 3.38-.18.57-4.17 1.25-4.71-1.51z" fill="#adbcef"/><path d="M12 129.31a29.54 29.54 0 0 1-.27-3.47c1 .77 3.75-.08 4.06-2.14 0 .33.07.67.09 1 .06 1.11.15 2.22.24 3.33-.79 1.65-3.59 1.81-4.12 1.28z" fill="#adbcef"/><path d="M16.06 125.13c-.08-.48-.15-1-.21-1.45.46 1.26 3.08.7 3.35-1.11 1.29 1.13 2.15-.56 2.2-3.45a75.62 75.62 0 0 0-.87-7.69c.41 2.14.92 4.27 1.47 6.36.15.55.28 1.11.42 1.66.1 1.72-1.19 6.19-2.81 6.43 0-.25-.07-.45-.09-.57-.13-.7-.24-1.4-.33-2.11.07.93.2 1.84.3 2.77-.3 1.06-2.37 2.34-3 1.9-.23-1.2-.37-2.34-.43-2.74z" fill="#adbcef"/><path d="M23.67 123.67c-.62-.79-.6-2-.83-3a94.58 94.58 0 0 1-2.95-14.13 4.67 4.67 0 0 1 0-1.81 8.16 8.16 0 0 1 .84-1.7c.52-.87 1.07-1.71 1.58-2.58l1.51-2.58c.27-.47 1.37-3 2-1.76a3.51 3.51 0 0 1 .18 1.15q.09 1 .23 2c.18 1.37.38 2.73.53 4.1a69.27 69.27 0 0 0 1.11 7.16l1.5 7a13.57 13.57 0 0 1 .73 3.08 2.66 2.66 0 0 1-2.39 2.23h.36-.36c-1.19.14-1.39-2-1.59-2.79-.28-1.07-.43-2.17-.62-3.26.15 1.25.4 2.48.65 3.72.21 1.07.8 2.39 0 3.31a1.5 1.5 0 0 1-2.48-.14z" fill="#c12208"/><path d="M7.49 130.34a3.59 3.59 0 0 1-.18 2.45 3.13 3.13 0 0 1-3.38 1.07c-2.8-.86-3.5-3.42-3.52-6a80.43 80.43 0 0 1 .67-8.48 25.89 25.89 0 0 1 1.63-5.81 22.41 22.41 0 0 0-1 11.17c.7 3.68 2.58 6.77 5.65 4.83.51 1.32 3.83 1.66 4.64.38.13 1 .32 2.43 0 3a2.4 2.4 0 0 1-3 .53c-.84-.56-1.27-1.94-1.51-3.14z" fill="#9e7b47"/><path d="M19.68 126.35c1.35.39 3.28-3.48 2.85-6.38.13.55.25 1.09.36 1.64.23 1.16 1 4.22.52 5.36-.36.79-1.91 2.57-2.89 1.89a5.33 5.33 0 0 1-.84-2.51z" fill="#9e7b47"/><path d="M12.15 129.86a2.73 2.73 0 0 0 4.05-1.33c.14 1.33.49 3.59.19 4.45-.41 1.16-1.88 1-2.57.67-.88-.46-1.42-2.58-1.67-3.79z" fill="#9e7b47"/><path d="M17.12 131.22a13.5 13.5 0 0 1-.61-2.83c.56.59 2.92-.65 3-1.9.13 1.4.36 4.63-.29 5.18a1.34 1.34 0 0 1-2.1-.45z" fill="#9e7b47"/><path d="M23.67 123.67c-.62-.79-.6-2-.83-3l-.19-.75c.6.64 2.84.48 3.25-.52l.21 1.09c.21 1.07.8 2.39 0 3.31a1.5 1.5 0 0 1-2.44-.13z" fill="#9e7b47"/><path d="M27.68 122.84c-1.19.14-1.39-2-1.59-2.79-.06-.21-.1-.43-.15-.64.74 1 3.64.23 3.67-1a6.93 6.93 0 0 1 .46 2.16 2.66 2.66 0 0 1-2.39 2.23h.36z" fill="#9e7b47"/><path d="M29.86 119c-.06-.21-.1-.43-.16-.64.41.22 2.77-.51 2.91-1.6l.26 1.61c.16 1 .51 2.54-.76 2.89-1.46.43-1.98-1.18-2.25-2.26z" fill="#9e7b47"/><path d="M33.21 118.7c-.18-.65-.34-1.3-.49-2 .75.54 3-.11 3-1.21.11.57.21 1.15.31 1.72a2.35 2.35 0 0 1-1.3 2.79c-.94.33-1.32-.6-1.52-1.3z" fill="#9e7b47"/><path d="M35.77 115.53c1.61.54 5.91-1.21 7-2.7 0 1.76 0 3.34-1.73 4.3a12.34 12.34 0 0 1-1.89.73A2.58 2.58 0 0 1 37 118a3.5 3.5 0 0 1-1.23-2.47z" fill="#9e7b47"/><path d="M43.07 113.64c0-.35 0-.7-.05-1 1.48-1.43 3.76-6.7 3.51-9a18.3 18.3 0 0 1 .35 3 27.32 27.32 0 0 1-.39 4.29 7.2 7.2 0 0 1-1.49 3.82c-.25.27-.85.92-1.28.9-.72-.05-.63-1.5-.65-2.01z" fill="#9e7b47"/><path d="M6.92 119.58c0 2 .06 4 .1 6-.11-1.55-.18-3.09-.15-4.64 0-.45.02-.94.05-1.36z" fill="url(#b)"/><ellipse cx="19.33" cy="116.78" rx="1.24" ry="3.16" transform="rotate(-9.61 19.298 116.753)" fill="#fff"/><ellipse cx="25.04" cy="114.16" rx="1.24" ry="2.63" transform="rotate(-12.46 25.03 114.2)" fill="#e5a6d7"/><ellipse cx="31.94" cy="111.79" rx="1.02" ry="2.17" transform="rotate(-10.99 31.942 111.813)" fill="#e5a6d7"/><path d="M7.18 112.25c-4.09 2-4.89 6.72-2.51 10.46-2.88-3.62-2.23-8.81 2.51-10.46z" fill="#c12208"/><path d="M7.8 112c3.33-1.68 5.63-.85 7 2.36-1.38-2.61-3.59-3.6-7-2.36z" fill="#c12208"/><path d="M8.1 111.51c2.66-2 6-1.13 6.63 2-1.29-2.27-3.38-3.16-6.63-2z" fill="#ffde3e"/><path d="M15.35 116.11c1.44 3.59.71 5.85-1.9 7 2.21-1.25 2.98-3.48 1.9-7z" fill="#c12208"/><path d="M13 123.32a7.69 7.69 0 0 1-5.82 1 13.06 13.06 0 0 0 5.82-1z" fill="#c12208"/><path d="M16.29 119.13a21.72 21.72 0 0 0 .73-9.78 15.21 15.21 0 0 1-.73 9.78z" fill="#e5a6d7"/><path d="M1.86 121c1.14 2.77 2.79 4.38 5.06 4.55-2.31.16-4.06-1.2-5.06-4.55z" fill="#adbcef"/><path d="M7.21 125.54a5.29 5.29 0 0 0 4.5 0 3.7 3.7 0 0 1-4.5 0z" fill="#adbcef"/><path d="M15.69 123.65a3 3 0 0 1-3.74 2 3.85 3.85 0 0 0 3.74-2z" fill="#adbcef"/><ellipse cx="9.69" cy="126.43" rx=".77" ry="1.57" transform="rotate(-3.93 9.675 126.248)" fill="#fff"/><ellipse cx="14.15" cy="125.51" rx="1.01" ry="2.05" transform="rotate(-3.92 14.134 125.55)" fill="#fff"/><path d="M16 123.66a2.39 2.39 0 0 0 3.13-1.44c-.24 1.49-2.04 2.43-3.13 1.44z" fill="#adbcef"/><path d="M19.3 122.36c1.18.43 1.71-1.52 1.92-4.12.13 2.99-.72 5.29-1.92 4.12z" fill="#adbcef"/><path d="M22.27 119.55c-.64 4-1.54 5.81-2.61 6.27 1.04-1.07 1.88-3.32 2.61-6.27z"/><path d="M19.37 125.84a3.29 3.29 0 0 1-2.8 2 5.15 5.15 0 0 0 2.8-2z"/><path d="M16.07 128a3.57 3.57 0 0 1-3.92 1.21 4.71 4.71 0 0 0 3.92-1.21z"/><path d="M7.32 127.75c.91 1.51 2.61 1.9 4.48 1.45-1.5.75-3.94.47-4.48-1.45z"/><path d="M2.84 126.34c1.21 1.91 2.87 2.19 4.25 1.29-1.09 1.25-3.35.9-4.25-1.29z"/><path d="M22.67 120.95c.3 3.58-1.61 6.13-2.87 5.53.94.22 2.67-1.48 2.87-5.53z"/><path d="M19.46 127a2.13 2.13 0 0 1-2.84 1.58 2.62 2.62 0 0 0 2.84-1.58z"/><path d="M12.28 130.1a2.63 2.63 0 0 0 3.88-1.25c-.65 1.92-2.54 2.56-3.88 1.25z"/><path d="M7.57 130.07a3.37 3.37 0 0 0 4.32.15c-1.04 1.58-3.27 1.13-4.32-.15z"/><path d="M1.7 125.61c1.15 4.73 3.13 5.42 5.48 4.32-2.65 1.75-4.55.61-5.48-4.32z"/><path d="M.92 122.14c-.3 4.44-.19 8.34 1.21 10.51-1.61-1.53-1.88-5.26-1.21-10.51z"/><path d="M5.37 114.06c2.45-1 4-.62 4.3 1.74-.55-2.02-2.18-2.28-4.3-1.74z"/><path d="M10 116.94c.36 2.66-.77 3.77-2.73 4 1.73-.44 2.73-1.7 2.73-4z"/><path d="M3.91 120.19a3.5 3.5 0 0 0 2.82.8 2.32 2.32 0 0 1-2.82-.8z"/><path d="M8 108.66a8.64 8.64 0 0 0-4.77 3.76c1.13-2.24 2.66-3.6 4.77-3.76z" fill="#fcffb6"/><path d="M8.59 108.45a5.72 5.72 0 0 1 6-.09 8.3 8.3 0 0 0-6 .09z" fill="#fcffb6"/><path d="M17 108.91a3.37 3.37 0 0 0-2-.38 1.66 1.66 0 0 1 2 .38z" fill="#fcffb6"/><path d="M17.24 108.91a3.29 3.29 0 0 1 3.15 2.09 5.59 5.59 0 0 0-3.15-2.09z" fill="#e5a6d7"/><path d="M18.37 118.44c.74 1.9 1.5 2.17 2.29.95-.87 1.72-1.61 1.02-2.29-.95z" fill="#fff"/><path d="M18.74 113.5c1.54-.17 2.09 1.42 2 4.1-.13-2.54-.74-4.06-2-4.1z" fill="#fff"/><path d="M13 125.48c.11 1.49.56 2.27 1.41 2.19-1.06.26-1.41-.67-1.41-2.19z" fill="#fff"/><path d="M13.25 123.89c.49-1.15 1.47-1.07 1.9.69-.61-1.58-1.25-1.58-1.9-.69z" fill="#fff"/><path d="M8.83 126.2c0 1.15.25 1.94 1.1 1.93-1.04.2-1.26-.63-1.1-1.93z" fill="#fff"/><path d="M9.48 124.76c1.13-.28 1.49.93 1.06 2.45.22-1.44-.13-2.57-1.06-2.45z" fill="#fff"/><path d="M1.5 132.73c2 2.18 5.15 2.41 6.22-.15-.18 2.24-3.85 3.35-6.22.15z" fill="#9e7b47"/><path d="M8 132.74c1.16 2.14 4.13 1.65 4.36-.47.27 1.94-3.13 3.52-4.36.47z" fill="#9e7b47"/><path d="M12.67 132.34c.72 2.75 4.39 2.6 4-.79.62 4.13-3.75 3.69-4 .79z" fill="#9e7b47"/><path d="M17 131.46c1.09 1.86 3.14.87 2.9-1.85.48 3.63-2.21 3.96-2.9 1.85z" fill="#9e7b47"/><path d="M20.32 128.93c1 1.17 3.62-.82 3.51-2.92.26 2.6-2.77 4.4-3.51 2.92z" fill="#9e7b47"/><path d="M23.62 124a1.8 1.8 0 0 0 3.19-1.12c.07 2.2-2.33 2.77-3.19 1.12z" fill="#9e7b47"/><path d="M27 122.9a2.53 2.53 0 0 0 3.25-1.9c.1 1.76-2.11 2.93-3.25 1.9z" fill="#9e7b47"/><path d="M30.51 121a1.51 1.51 0 0 0 2.75-1c.42 2.08-1.87 2.58-2.75 1z" fill="#9e7b47"/><path d="M33.6 119.88c1 1 2.84.13 2.69-1.9.41 2.26-1.69 3.37-2.69 1.9z" fill="#9e7b47"/><path d="M42.14 116.51a5.54 5.54 0 0 1-4.94 1.71c1.11.21 4.36-.87 4.94-1.71z" fill="#9e7b47"/><path d="M37.21 118.21a.74.74 0 0 1-.2-.07z" fill="#9e7b47"/><path d="M46.88 109.6c.07 2.51-.52 4.32-1.79 5.41a10.61 10.61 0 0 0 1.79-5.41z" fill="#9e7b47"/><path d="M23.55 113.37c-.36-1.84.73-3 1.88-1.54-1.25-.99-1.77-.22-1.88 1.54z" fill="#e5a6d7"/><path d="M26.35 113.76c.69 2.47.29 3.46-1.1 3.12 1.11.12 1.57-.77 1.1-3.12z" fill="#e5a6d7"/><path d="M30.82 112c-.55-1.75.25-3.55 1.45-2.22-1.02-.91-1.82.15-1.45 2.22z" fill="#e5a6d7"/><path d="M33.12 112c.35 1.67-.24 2.52-1.2 1.94.95.38 1.29-.38 1.2-1.94z" fill="#e5a6d7"/><path d="M18.24 100.94a21.23 21.23 0 0 0 1.31-8.63 11.72 11.72 0 0 1-1.31 8.63z" fill="#fcffb6"/><path d="M18.42 101a12.59 12.59 0 0 0 1.45-8.49c1.23 3.63.58 6.38-1.45 8.49z" fill="#fb2"/><path d="M19.72 103.66a20.07 20.07 0 0 0-5.14-7.46 12.43 12.43 0 0 1 5.14 7.46z"/><path d="M17.66 91.69a16 16 0 0 0 8.42 1.63 11 11 0 0 1-8.42-1.63z"/><path d="M21.31 87.1a9 9 0 0 1 6 4.26 15.44 15.44 0 0 0-6-4.26z"/><path d="M31.46 85.34l-4 5.94a20.56 20.56 0 0 1 4-5.94z" fill="#8e0d00"/><path d="M25.94 93.61q-3.07 4.86-5.94 9.94a39.17 39.17 0 0 1 5.94-9.94z" fill="#8e0d00"/><path d="M26 98.92a128 128 0 0 0 2.38 14.88c-1.54-4.05-2.16-9.23-2.38-14.88z" fill="#8e0d00"/><path d="M34.55 108.84a124.64 124.64 0 0 1-2.15-22.28c.6 7.9 1.31 15.44 2.15 22.28z" fill="#8e0d00"/><path d="M42.63 111.52a95.82 95.82 0 0 0-2.28-15.16 54.06 54.06 0 0 1 2.28 15.16z" fill="#8e0d00"/><path d="M35.92 115.14a92.79 92.79 0 0 1-1.54-13.89q.89 6.85 1.54 13.89z" fill="#b65920"/><path d="M27.25 106c.81 3.53 1.53 7.18 2.19 10.94A68.13 68.13 0 0 1 27.25 106z" fill="#b65920"/><path d="M20 106.19c.7 4.38 1.61 8.84 2.68 13.37A72.53 72.53 0 0 1 20 106.19z" fill="#b65920"/><path d="M40 92.25c2.39 7.81 3.79 14.31 3 18 .15-4.09-1.08-10.45-3-18z" fill="#b65920"/><path d="M25.87 119.72a2.09 2.09 0 0 1-3.08.44 2.67 2.67 0 0 0 3.08-.44z" fill="#c12208"/><path d="M26.08 119.71a2.76 2.76 0 0 0 3.52-.84 2.19 2.19 0 0 1-3.52.84z" fill="#c12208"/><path d="M32.56 117.21a2.43 2.43 0 0 1-2.72 1.31 3.32 3.32 0 0 0 2.72-1.31z" fill="#c12208"/><path d="M35.73 116c-.45 1.05-1.41 1.36-2.82 1a2.83 2.83 0 0 0 2.82-1z" fill="#c12208"/><path d="M42.47 113.46a7 7 0 0 1-6.29 2.47 10.76 10.76 0 0 0 6.29-2.47z" fill="#c12208"/><path d="M46.51 105.74a9.62 9.62 0 0 1-3.27 7 15.23 15.23 0 0 0 3.27-7z" fill="#c12208"/><path d="M26.84 81.55a7.37 7.37 0 0 1 4.64 3.68 13.34 13.34 0 0 0-4.64-3.68z" fill="#b65920"/><path d="M33.07 84.71a3.77 3.77 0 0 1 4.86 1.13 5 5 0 0 0-4.86-1.13z" fill="#b65920"/><path d="M40.84 85.13a3 3 0 0 0-2.24.87 2 2 0 0 1 2.24-.87z" fill="#b65920"/><path d="M30.45 78a4.66 4.66 0 0 1 3.81 1.82A9.71 9.71 0 0 0 30.45 78z" fill="#6b4a06"/><path d="M34.76 80a2 2 0 0 1 2.71.38 3 3 0 0 0-2.71-.38z" fill="#6b4a06"/><path d="M37.9 80.42a1.52 1.52 0 0 1 2.13.22 2.09 2.09 0 0 0-2.13-.22z" fill="#6b4a06"/><path d="M1.71 128.33c.94 3.07 3 3.61 5.44 2.6-2.98 2.07-5.15.46-5.44-2.6z" fill="#f1e7d2"/><path d="M7.89 131a3.52 3.52 0 0 0 3.87.23 2.48 2.48 0 0 1-3.87-.23z" fill="#f1e7d2"/><path d="M13.85 95.28c4.23-7 9.15-13 15.47-17a90.58 90.58 0 0 0-15.47 17z" fill="#846134"/><path d="M33.24 68.71a3 3 0 1 0 1.27 5 6.75 6.75 0 0 0 3.9 2.59c2.36.68 4.58.35 5.46-.71 2.71.88 6 1.9 9.66 2.95 9.21 2.66 16.78 4.46 16.91 4S63.2 79.63 54 77c-3.62-1-7-2-9.75-2.65-.19-1.35-1.89-2.86-4.25-3.54a6.76 6.76 0 0 0-4.68.11 3 3 0 0 0-2.08-2.21z"/><path d="M14.75 74c-.11-.16-.78-.06-1.53.24s-1.35.72-1.28.9.77.08 1.55-.23 1.25-.65 1.27-.85c6.49-2.35 11.38-.93 15.15-2.78-4.11 1.63-9.25.22-15.16 2.72z"/><path d="M16.9 57.69c-.16.12.11.76.6 1.44s1 1.13 1.18 1c3.67 5.31 8.88 6.6 11.51 10.19C28 66.75 23 65.6 18.72 60.1c.08-.19-.18-.78-.63-1.39s-1.03-1.14-1.19-1.02z"/><circle cx="32.31" cy="71.57" r="2.46" transform="rotate(-73.91 32.311 71.57)" fill="#846134"/><ellipse cx="39.04" cy="73.51" rx="2.27" ry="4.85" transform="rotate(-73.91 39.042 73.511)" fill="#846134"/><ellipse cx="55.2" cy="78.18" rx=".49" ry="12.59" transform="rotate(-73.91 55.203 78.176)" fill="#846134"/><path d="M30.81 69.85a2.31 2.31 0 0 1 3.76 1.95 2.49 2.49 0 0 0-3.76-1.95z"/><path d="M34.95 71.75c2.23-1.28 7.84.29 8.49 2.55-1.16-1.89-5.33-3.3-8.49-2.55z"/><path d="M34.7 72.75c1 1.94 3.2 2.95 6.43 3.16a15.22 15.22 0 0 1-6.43-3.16z" fill="#9e7b47"/></g></g></svg>