<svg xmlns="http://www.w3.org/2000/svg" viewBox="-0.030001163482666016 -2.380000114440918 86.75999450683594 99.68999481201172"><defs><radialGradient id="a" cx="19.58" cy="275.59" r="2.69" gradientTransform="rotate(24.66 628.922 188.341)" gradientUnits="userSpaceOnUse"><stop offset=".57" stop-color="#161412"/><stop offset=".8" stop-color="#161412"/><stop offset="1" stop-color="#161412"/></radialGradient></defs><title>Depositphotos_102901012_09</title><g data-name="Layer 2"><g data-name="—ÎÓÈ_1"><path d="M25.11 4.88c.45-.51 1.12-.82 1.6-1.31.74-.75 1.41-1.6 2.23-2.29 4.32-3.66 10.31 1.34 13.59 4.1 3.94 3.31 6.7 8 9.57 12.18s4.54 9.35 6.37 14.11c1 2.71 1.76 5.63 2.52 8.43.7 2.58 1.26 5.21 1.84 7.83A103.33 103.33 0 0 1 65.11 64c.22 3.61.83 7.46.56 11.15-.18 1.58-.56 4.07-.67 4.83a13.44 13.44 0 0 0-4.11 4.44c-5.89-5.09-14.67-8.71-16.12-9.17-1.63-.52-17.12-5.91-21.07-8.9-3.57-2.7-7.31-5.83-7.62-10.28a9.9 9.9 0 0 1 .58-4.39 22.55 22.55 0 0 0 .92-2.62 5.89 5.89 0 0 0 .13-2.19 11.3 11.3 0 0 1-.29-1.66c0-1.39 1.17-2.07 1.5-3.32s-.21-2.62 0-3.91 1.17-2.12 1.74-3.11a7 7 0 0 0 .34-6.61c-1-2.62 1.88-4.83 2-7.37a18.59 18.59 0 0 0-.73-3.9c-.26-1.45.42-2.25 1.24-3.34 1.3-1.71 1.51-4.48 1.3-6.55-.11-.81-.31-1.54.3-2.22z"/><path d="M51.73 30.7c-1 1.57-2.86 2.51-3.76 4.13a11.79 11.79 0 0 0-.69 2.89 8.42 8.42 0 0 0-.42 2.38c.08 1.69 1 3.46 1.67 5 1.44 3.53 2.84 7 4 10.66s2.34 7.43 3.55 11.13a56.94 56.94 0 0 0 4.61 9.39c.79 1.45 1.38 3.09 2.28 4.49a5.2 5.2 0 0 1 1.7-1 5.12 5.12 0 0 0 .09-.9 3.31 3.31 0 0 1 0-2.44c0-1.57-.09-3.16-.19-4.72-.15-2.22-.48-4.4-.68-6.61a99.47 99.47 0 0 0-1.62-12c-.85-4-2-7.9-3.26-11.8a54.29 54.29 0 0 0-4.66-11.07c-.31-.52-.78-1.81-1.51-1.46s-.76 1.39-1.11 1.93z" fill="#2254d3"/><path d="M23.4 27.28c.72 1.41 2.43 2 3.76 2.67s3 1.45 4.49 2.11a97.68 97.68 0 0 1 10.43 5.17 23.46 23.46 0 0 0 3.47 2.07c1.12.41 1.28-.49 1.49-1.42s.35-1.7.47-2.56c.23-1.58-.45-2.31-1.62-3.31a50.36 50.36 0 0 0-4-3.16c.94.64 1.91 1.24 2.81 2 .62.49 1.21 1 1.8 1.51.44.38 1 1 1.57 1.17 1 .23 2.19-1.2 2.77-1.88a5.87 5.87 0 0 0 1.51-3.47c.05-1.29-.65-2.06-1.41-3s-1.64-2.05-2.48-3.05A48.74 48.74 0 0 0 43.3 17a53.25 53.25 0 0 1 9.81 10.7c2.92 4.2 4.58 9.11 6.26 13.91a64.87 64.87 0 0 1 2.15 7.21c.59 2.61 1.18 5.2 1.6 7.84.55 3.47.89 7 1.21 10.49a85.71 85.71 0 0 1 .53 9.13 3.29 3.29 0 0 1 .59-.85c.06-.87.1-1.74.1-2.61a44.58 44.58 0 0 0-.25-4.68c-.38-3.75-.55-7.54-1.06-11.28a147.45 147.45 0 0 0-4.31-20 86.39 86.39 0 0 0-8.16-19.3 60.32 60.32 0 0 0-5.19-7.43C46 9.37 45.29 8.7 44.69 8A8.82 8.82 0 0 0 43 6.13c-.7-.49-1.23-1.15-1.92-1.67s-1.63-1.08-2.4-1.68C36.07.73 33-.59 29.93 1.51a4 4 0 0 0-1.6 4.2c.54 1.48 2.58 2.15 3.8 3-1.3-.8-3.07-1.6-4.62-1.06A3 3 0 0 0 25.67 11c.32 1 1.74 1.5 2.59 2.06a42.84 42.84 0 0 1 3.6 2.63 40.87 40.87 0 0 0-3.8-2.56c-1.07-.57-2.29-1.21-3.2 0a3.23 3.23 0 0 0-.67 2.46 3.92 3.92 0 0 0 1.75 2.58c1.13.95 2.44 1.64 3.64 2.49s2.55 1.58 3.79 2.42c2.32 1.56 4.62 3.16 6.93 4.75-3.76-2.48-7.3-5.27-11.3-7.43a12.55 12.55 0 0 0-3.34-1.59 1.69 1.69 0 0 0-2.12 1.75 3.25 3.25 0 0 0 1.89 2.54c1 .64 2 1.24 3 1.91-.77-.47-1.55-.91-2.35-1.33s-1.51-1-2.36-.75c-1.37.44-.82 3.38-.32 4.35z" fill="#2254d3"/><path d="M22.5 37.87c1 .81 2.51 1.17 3.63 1.7 2.73 1.3 5.41 2.68 8.12 4a87.75 87.75 0 0 1 8 4.53c1.48.93 3 1.81 4.48 2.7q1.1.65 2.16 1.35a4.44 4.44 0 0 0 1.26.74c1.66.33.06-2.72-.19-3.36L48.58 46c-.47-1.19-.88-2.4-1.32-3.6a10.33 10.33 0 0 0-1-2.17 5.91 5.91 0 0 0-1.78-1.45c-5.1-3.32-10.81-5.7-16.34-8.2-1.12-.5-2.34-1.5-3.61-1.51a1.9 1.9 0 0 0-2.07 2.3c.29 1.52 2.05 2 3.28 2.6 1.42.73 2.84 1.45 4.2 2.28-1.23-.66-2.45-1.38-3.73-1.95-.94-.42-3.22-1.9-4-.61-.55.9-.11.18 0 0-.76 1.24-.88 3.21.29 4.18z" fill="#2254d3"/><path d="M21.11 46.46c1.66.91 3.35 1.76 5 2.7 3.61 2.07 7.14 4.25 10.62 6.53 5.8 3.79 11.7 7.39 17.37 11.38.28.2 1.62 1.35 1.92.86.13-.22-.61-1.82-.7-2.1-.54-1.87-1.06-3.75-1.63-5.61a42.64 42.64 0 0 0-1.63-5c-.66-1.46-2.69-2.57-4-3.4-1.59-1-3.23-2-4.86-2.91s-3.11-2-4.68-2.92a87.7 87.7 0 0 0-9.35-4.79c-1.65-.75-3.27-1.57-4.93-2.3-1.25-.55-3.26-1.3-4 .45-.65 1.54 1.19 2.43 2.27 3l3.94 2.21c-1.49-.72-3-1.47-4.51-2.1-.85-.35-2.07-.71-2.49.47a3 3 0 0 0 1.66 3.53z" fill="#2254d3"/><path d="M20.34 56.65a44.16 44.16 0 0 0 4.86 3.75 108.36 108.36 0 0 0 12.92 6.82c7.17 3.2 14.59 6.29 20.56 11.54A35.3 35.3 0 0 1 61.9 82a7.58 7.58 0 0 1 .78-.91c-.27-.54-.58-1.06-.84-1.54-1-1.91-2-3.84-3-5.76s-2.08-4.11-3.8-5.58a93.2 93.2 0 0 0-9.38-6.61c-1.71-1.12-3.51-2.09-5.23-3.19-1.89-1.2-3.73-2.52-5.62-3.74-3-2-6.15-3.81-9.25-5.64-1.45-.86-4.13-2.89-5.93-2.2-.87.34-1.24 1.38-1.52 2.18a15.61 15.61 0 0 0-.77 2.45c-.42 2.54 1.25 3.74 3 5.19z" fill="#2254d3"/><path d="M28 68.36c4.06 2 8.45 3.24 12.66 4.86a90.12 90.12 0 0 1 11.84 5.1 45.65 45.65 0 0 1 8.3 5.6c.06-.16.13-.32.2-.47a8.62 8.62 0 0 1 .79-1.37 19.45 19.45 0 0 0-2.43-2.4c-5.51-4.88-12.08-7.77-18.7-10.82-3.87-1.78-7.62-3.7-11.36-5.76a109.59 109.59 0 0 1-10.15-6.89c-.53-.37-1.88-1.62-2.51-.92-.36.4-.18 1.51-.11 2a9.12 9.12 0 0 0 2.63 4.46 34.59 34.59 0 0 0 3.95 3.77A28.69 28.69 0 0 0 28 68.34c.94.48.3.17 0 .02z" fill="#2254d3"/><path d="M36.86 56.05c1.18.8 2.36 1.61 3.56 2.37 1 .63 2 1.21 3 1.81.55 1-1.69 7.38-3.32 7.86l-2-.88c-1.45-.64-2.87-1.33-4.28-2-1.27-1.3 1.63-8.56 3.04-9.16z" fill="#f7e2cc"/><path d="M33.73 65.47c2.07 1.07 4.15 2.1 6.26 3.09.25.8-.67 3.53-.93 4.07-2.55-.93-5.14-1.79-7.66-2.79l-.12-.16c-.22-.56 1.51-3.33 2.45-4.21z" fill="#f7e2cc"/><path d="M28.16 13c-.69-.87-.95-3 .44-3 1.19 0 15 7.91 21 22.85a10.7 10.7 0 0 0 1.25-1.3 5.87 5.87 0 0 0 1.51-3.47c.05-1.29-.65-2.06-1.41-3s-1.64-2.05-2.48-3.05A48.74 48.74 0 0 0 43.3 17a53.25 53.25 0 0 1 9.81 10.7c2.92 4.2 4.58 9.11 6.26 13.91a64.87 64.87 0 0 1 2.15 7.21c.59 2.61 1.18 5.2 1.6 7.84.55 3.47.89 7 1.21 10.49a85.71 85.71 0 0 1 .53 9.13 3.29 3.29 0 0 1 .59-.85c.06-.87.1-1.74.1-2.61a44.58 44.58 0 0 0-.25-4.68c-.38-3.75-.55-7.54-1.06-11.28a147.45 147.45 0 0 0-4.31-20 86.39 86.39 0 0 0-8.16-19.3 60.32 60.32 0 0 0-5.19-7.43C46 9.37 45.29 8.7 44.69 8A8.82 8.82 0 0 0 43 6.13c-.7-.49-1.23-1.15-1.92-1.67-.38-.29-.78-.55-1.18-.82l-.2-.14-.42-.29-.6-.44C36.07.73 33-.59 29.93 1.51a4 4 0 0 0-1.6 4.2 2.35 2.35 0 0 0 .24.47l.08.12a3.09 3.09 0 0 0 .28.33l.07.07a4.51 4.51 0 0 0 .41.35l.13.09.35.24.16.1.42.24.44.24c.44.23.86.46 1.22.69a9.78 9.78 0 0 0-2-1h-.07l-.29-.08-.26-.06h-.24a4.29 4.29 0 0 0-.5-.05h-.74a3.07 3.07 0 0 0-.53.13 2.28 2.28 0 0 0-.4.2l-.1.08-.27.2-.11.1a3.28 3.28 0 0 0-.31.33l-.1.14-.21.25-.11.21-.1.21c0 .08-.07.15-.09.23a2.92 2.92 0 0 0-.1.39 2.2 2.2 0 0 0 0 1.08c.4.99 1.71 1.46 2.56 1.99z" fill="#1436b2"/><path d="M27.93 19.76a7.49 7.49 0 0 0-2.23-1 1.69 1.69 0 0 0-2.12 1.75A2.86 2.86 0 0 0 25 22.8c-1-1.28.61-3.85 2.93-3.04z" fill="#1436b2"/><path d="M25.12 23.11a1.82 1.82 0 0 0-1.33-.18c-1.44.44-.89 3.38-.39 4.35a5.37 5.37 0 0 0 2.69 2.15c-1.99-1.57-2.21-5.89-.97-6.32z" fill="#1436b2"/><path d="M28.23 19.73c-2.71-2.24-3-6.68-.21-6.61-1.07-.57-2.27-1.19-3.17 0a3.23 3.23 0 0 0-.67 2.46 3.92 3.92 0 0 0 1.75 2.58 21.3 21.3 0 0 0 2.3 1.57z" fill="#1436b2"/><path d="M24.93 33.66a5.09 5.09 0 0 1-.53-.88 2.37 2.37 0 0 1 1.1-3.14 2.53 2.53 0 0 1 .41-.16 3.57 3.57 0 0 0-1.41-.36 1.9 1.9 0 0 0-2.07 2.3c.23 1.22 1.41 1.75 2.5 2.24z" fill="#1436b2"/><path d="M22.5 37.87a11 11 0 0 0 3 1.42 3.6 3.6 0 0 1-1.83-3.55 2.56 2.56 0 0 1 1.22-2c-1-.46-2.17-.81-2.69 0-.75 1.19-.87 3.16.3 4.13z" fill="#1436b2"/><path d="M22.75 42.52a2.62 2.62 0 0 1-.16-.6 2.33 2.33 0 0 1 2-2.51 4.69 4.69 0 0 1 .6-.1l-.92-.42c-1.25-.55-3.26-1.3-4 .45-.65 1.54 1.19 2.43 2.27 3z" fill="#1436b2"/><path d="M22.78 47.35c-1.9-1.18-1.81-4.49.16-4.42l-1-.44c-.85-.35-2.07-.71-2.49.47a3 3 0 0 0 1.67 3.5z" fill="#1436b2"/><path d="M22.82 47.4a4.16 4.16 0 0 0-3.18-.56c-.87.34-1.24 1.38-1.52 2.18a15.61 15.61 0 0 0-.77 2.45c-.41 2.46 1.18 3.68 2.89 5.09-2.3-2.4.02-9.68 2.58-9.16z" fill="#1436b2"/><path d="M40.69 68.89c6.62 3.05 13.19 5.95 18.7 10.82a19.45 19.45 0 0 1 2.43 2.4 8.63 8.63 0 0 0-.82 1.37c-.07.16-.14.32-.2.47a45.64 45.64 0 0 0-8.3-5.6 90.1 90.1 0 0 0-11.84-5.1 6.21 6.21 0 0 0 .03-4.36z" fill="#1436b2"/><path d="M16.68 55.33c.63-.7 2 .54 2.51.92l1 .73c-3 1 2.6 8.21 5 9.94a19.91 19.91 0 0 1-2.1-1.38A22.66 22.66 0 0 1 21 63.59c-.61-.6-1.19-1.22-1.77-1.83l-.4-.43-.13-.16-.27-.31-.16-.2-.23-.3-.16-.23-.2-.3-.16-.24-.18-.3-.18-.29-.16-.28-.11-.24c-.06-.14-.1-.27-.15-.41l-.06-.17a4.43 4.43 0 0 1-.13-.6c-.05-.46-.23-1.57.13-1.97z" fill="#1436b2"/><path d="M64.62 71.71c-.15-2.22-.48-4.4-.68-6.61a99.47 99.47 0 0 0-1.62-12c-.85-4-2-7.9-3.26-11.8a54.29 54.29 0 0 0-4.66-11.07c-.31-.52-.78-1.81-1.51-1.46s-.82 1.41-1.17 2A11.71 11.71 0 0 1 49.6 33c9.07 11.65 9 28.09 5.78 31.59.25.78.49 1.57.75 2.35a56.94 56.94 0 0 0 4.61 9.39c.79 1.45 1.38 3.09 2.28 4.49a5.2 5.2 0 0 1 1.7-1 5.12 5.12 0 0 0 .09-.9 3.31 3.31 0 0 1 0-2.44c-.01-1.63-.08-3.21-.19-4.77z" fill="#1436b2"/><path d="M53.05 66.35l1 .72c.28.2 1.62 1.35 1.92.86.13-.22-.61-1.82-.7-2.1l-.27-.95a2.1 2.1 0 0 1-1.95 1.47z" fill="#1436b2"/><path d="M52.84 66.47c.75.56 1.49 1.14 2.2 1.75 1.73 1.47 2.76 3.6 3.8 5.58s2 3.85 3 5.76c.25.48.56 1 .83 1.54a7.59 7.59 0 0 0-.78.91 35.3 35.3 0 0 0-3.21-3.25C53.41 74.1 47 71.15 40.6 68.31c4.81 1.57 11.51.14 12.24-1.84z" fill="#1436b2"/><path d="M64.79 78.87a3.31 3.31 0 0 1 0-2.44c0-1.57-.09-3.16-.19-4.72-.15-2.22-.48-4.4-.68-6.61a99.47 99.47 0 0 0-1.62-12c-.85-4-2-7.9-3.26-11.8a54.29 54.29 0 0 0-4.66-11.07c-.31-.52-.78-1.81-1.51-1.46a.88.88 0 0 0-.17.12c5.7 8.46 9.58 29 10.26 34.67.65 5.34-3.34 7.69-5 7.69.87 1.71 1.83 3.38 2.75 5.06.79 1.45 1.38 3.09 2.28 4.49a5.2 5.2 0 0 1 1.7-1 5.12 5.12 0 0 0 .1-.93z" fill="#002b8c"/><path d="M65.55 72.81a44.58 44.58 0 0 0-.25-4.68c-.38-3.75-.55-7.54-1.06-11.28a147.45 147.45 0 0 0-4.31-20 86.39 86.39 0 0 0-8.16-19.3 60.32 60.32 0 0 0-5.19-7.43C46 9.37 45.29 8.7 44.69 8A8.82 8.82 0 0 0 43 6.13c-.7-.49-1.23-1.15-1.92-1.67s-1.63-1.08-2.4-1.68C36.07.73 33-.59 29.93 1.51a4 4 0 0 0-1.6 4.2c.54 1.48 2.57 2.22 3.8 3 1.57.88 9.38 6.83 11.17 8.33a55.24 55.24 0 0 1 9.81 10.66c2.92 4.2 4.58 9.11 6.26 13.91a64.87 64.87 0 0 1 2.15 7.21c.59 2.61 1.18 5.2 1.6 7.84.55 3.47.89 7 1.21 10.49a85.71 85.71 0 0 1 .53 9.13 3.29 3.29 0 0 1 .59-.85c.06-.88.1-1.75.1-2.62z"/><path d="M61.84 79.55c-1-1.91-2-3.84-3-5.76-.39-.75-.8-1.51-1.23-2.26-.61 2.42-3.61 3.16-5.67 2.39a44.29 44.29 0 0 1 6.75 4.83A35.3 35.3 0 0 1 61.9 82a7.58 7.58 0 0 1 .78-.91c-.28-.54-.59-1.09-.84-1.54z" fill="#002b8c"/><path d="M61.82 82.11a19.45 19.45 0 0 0-2.43-2.4A46.25 46.25 0 0 0 51.21 74a31.74 31.74 0 0 1-11.8-1.28l1.25.47a90.12 90.12 0 0 1 11.84 5.1 45.65 45.65 0 0 1 8.3 5.6c.06-.16.13-.32.2-.47a8.62 8.62 0 0 1 .82-1.31z" fill="#002b8c"/><path d="M64.81 76.42c0-1.57-.09-3.16-.19-4.72 0-.22 0-.43-.05-.65-.39 1.82-2.44 4.59-4.37 4.26l.53 1c.79 1.45 1.38 3.09 2.28 4.49a5.2 5.2 0 0 1 1.7-1 13.84 13.84 0 0 0 .1-3.38z" fill="#00184f"/><path d="M65.55 72.81c0-1 0-2.08-.12-3.11q-.36.63-.77 1.23a74.46 74.46 0 0 1 .18 8.64 21.84 21.84 0 0 0 .62-4.15c.05-.87.09-1.74.09-2.61z" fill="#00184f"/><path d="M61.84 79.55c-.7-1.32-1.38-2.64-2.06-4-.16 1.35-2.15 1.88-3.13 1.5.69.53 1.38 1.08 2 1.66A35.3 35.3 0 0 1 61.9 82a7.58 7.58 0 0 1 .78-.91c-.28-.54-.59-1.09-.84-1.54z" fill="#00184f"/><path d="M54.24 79.31a39.9 39.9 0 0 1 6.56 4.6c.06-.16.13-.32.2-.47a8.62 8.62 0 0 1 .79-1.37 19.45 19.45 0 0 0-2.43-2.4 39.66 39.66 0 0 0-3.12-2.48c.33 1.42-1.12 2.51-2 2.12z" fill="#00184f"/><path d="M35.7 11.08c2 1.54 4 3.07 6 4.63-.43-.39-.87-.76-1.31-1.13-1.48-1.25-3.07-2.38-4.69-3.5z" fill="url(#a)"/><path d="M30 6.59c9.08 2.62 16.58 9.87 18.73 14.62C44.66 16.76 39.6 11.22 30 6.59z" fill="#002b8c"/><path d="M33.75 43.54C39.4 46.42 51.4 53.69 51.83 55.4c-2.43-2.34-12.76-8.64-18.08-11.86z" fill="#1436b2"/><path d="M20.09 57.1a44.6 44.6 0 0 0 11.24 7.45c-4.1-2.55-7.9-5.02-11.24-7.45z" fill="#1436b2"/><path d="M52.39 67.06a15.29 15.29 0 0 1-10.9 1 35.69 35.69 0 0 0 10.9-1z" fill="#1436b2"/><path d="M22.83 47.62c-2.93 1.16-4 6.29-2.45 8.86-.61-3.56-.05-6.63 2.45-8.86z" fill="#1436b2"/><path d="M18.53 55.79c-3.64-2.45-1.54 4.65 1.58 6.35-3.01-3.19-3.89-6.67-1.58-6.35z" fill="#002b8c"/><path d="M20.91 46.83c-2.43-.75-4.39 5.68-3 7.28-.44-2.28 1.09-6.8 3-7.28z" fill="#002b8c"/><path d="M21.69 42.49c-2.37-.89-3.26 1.63-1.23 3.37-1.24-1.49-.78-3.49 1.23-3.37z" fill="#002b8c"/><path d="M23.13 38.65c-2.5-1.07-4.31 1.43-1.52 3.17-1.72-1.7-.75-3.69 1.52-3.17z" fill="#002b8c"/><path d="M23.54 33.42c-1.84-.49-2.77 3.7-.31 4.82-1.64-1.61-1.23-4.45.31-4.82z" fill="#002b8c"/><path d="M47.12 41.08c4.22 6.66 6.69 14.84 8.57 23.53a187.53 187.53 0 0 0-8.57-23.53z" fill="#1436b2"/><path d="M23 43.07c-1.75.29-1.59 3.21 0 4.25-1.18-1.32-1-3.62 0-4.25z" fill="#1436b2"/><path d="M25.21 39.45A2.27 2.27 0 0 0 23 42.52c-.12-1.52.8-2.46 2.21-3.07z" fill="#1436b2"/><path d="M24.71 29.17c-2.12-.17-3.22 2.11-1.2 3.58a2.09 2.09 0 0 1 1.2-3.58z" fill="#002b8c"/><path d="M24.95 33.8c-1.61 1.74-1.2 3.56.6 5.46-1.2-2.02-1.55-3.87-.6-5.46z" fill="#1436b2"/><path d="M26 29.63c-1.73.61-2 2.48-.86 4a3.46 3.46 0 0 1 .86-4z" fill="#1436b2"/><path d="M36.29 71.37a32 32 0 0 0 14.44 2.55 66.32 66.32 0 0 1-14.44-2.55z" fill="#002b8c"/><path d="M52.86 66a2 2 0 0 0 2-1.23 4.38 4.38 0 0 1-2 1.23z" fill="#1436b2"/><path d="M24.35 23c-2.24 0-1.44 4.39.42 5.59-1.69-1.95-1.95-4.96-.42-5.59z" fill="#002b8c"/><path d="M26.42 19c-2.16-.67-3.56.94-2.12 3-.71-2 .38-3.26 2.12-3z" fill="#002b8c"/><path d="M26.85 12.65c-2.49-.67-3.67 3-1.19 5.08-1.57-2.18-.85-4.86 1.19-5.08z" fill="#002b8c"/><path d="M27 12.23c-3.2-2.37.53-6.39 4.49-3.82-3.42-1.52-6.66.95-4.49 3.82z" fill="#002b8c"/><path d="M38.61 13.65c6 4.06 12 10.14 13.44 14a74.92 74.92 0 0 0-13.44-14z" fill="#002b8c"/><path d="M25.15 23.21c-1 1.23-.64 4.3 1 6.1a8.39 8.39 0 0 1-1-6.1z" fill="#1436b2"/><path d="M25.2 22.79a2.27 2.27 0 0 1 2.7-3c-1.67.39-2.68 1.28-2.7 3z" fill="#1436b2"/><path d="M28 13.2c-2.35.87-2 3.17.13 6.38-1.45-3.04-1.77-5.35-.13-6.38z" fill="#1436b2"/><path d="M28.29 13c-1.2-3.69.43-3.15 5-.13-4.84-2.82-5.43-2.68-5 .13z" fill="#1436b2"/><path d="M30.88 21.59c3.66 2.22 8.69 5.77 13.87 9.46-4.39-2.78-9.05-5.99-13.87-9.46z" fill="#1436b2"/><path d="M28 30.74a92.37 92.37 0 0 1 16.93 8.53C39.71 36.51 34 33.65 28 30.74z" fill="#1436b2"/><path d="M55.7 63.75c1.65-3.27 2-8.62.23-17.29.84 6.9.95 12.88-.23 17.29z" fill="#1436b2"/><path d="M41.54 57.42a64.12 64.12 0 0 1 11.36 8.53z" fill="#1436b2"/><path d="M58.45 70.86c5.62-2 4.69-8 2.45-17.58 1.67 8.97 2.1 14.66-2.45 17.58z" fill="#7c4b3e"/><path d="M49.82 33c1.42-.46 2.45-1.68 3.05-3.72A11 11 0 0 1 49.82 33z" fill="#2254d3"/><path d="M50.18 33.37a20.37 20.37 0 0 1 6.52 13.87 35.23 35.23 0 0 0-6.52-13.87z" fill="#2254d3"/><path d="M57.37 31.74A59.24 59.24 0 0 0 42 6.24a77.81 77.81 0 0 1 15.37 25.5z" fill="#d2ab90"/><path d="M51.74 73.63c2.94.94 4.69-.06 5.75-2.15a5.3 5.3 0 0 1-5.75 2.15z" fill="#002b8c"/><path d="M52.14 73.87a27 27 0 0 1 9 7.09 42.26 42.26 0 0 0-9-7.09z" fill="#1436b2"/><path d="M57.62 70.18a86.76 86.76 0 0 1 5.25 10.08z" fill="#1436b2"/><path d="M39.13 72.64C47.7 75.1 55 78.44 60.22 83.17c-5.52-4.49-12.8-7.84-21.09-10.53z" fill="#1436b2"/><path d="M57.37 77.08a2.52 2.52 0 0 0 2.36-1.51 4.5 4.5 0 0 1-2.36 1.51z" fill="#00184f"/><path d="M56.23 77.24a2 2 0 0 1-1.2 2 3.23 3.23 0 0 0 1.2-2z" fill="#00184f"/><path d="M51.14 74a52.59 52.59 0 0 1 5 3.18 57 57 0 0 1-5-3.18z" fill="#3a6c77"/><path d="M60.63 75.06c1.82-.43 3-2.06 3.76-4.43a11.48 11.48 0 0 1-3.76 4.43z" fill="#00184f"/><path d="M20.61 62.86c2.21 3.16 7.69 6.17 15 8.28-6.17-2.36-11.54-4.98-15-8.28z" fill="#002b8c"/><path d="M52.29 66.52a11.7 11.7 0 0 1 5.15 4.93 33.09 33.09 0 0 0-5.15-4.93z" fill="#002b8c"/><path d="M33.36 65.46a11.69 11.69 0 0 0-2.19 3.66 5.84 5.84 0 0 1 2.19-3.66z" fill="#f7e2cc"/><path d="M39.58 72.08a10.46 10.46 0 0 0 .65-3.28 4.61 4.61 0 0 1-.65 3.28z" fill="#f7e2cc"/><path d="M40.73 68.06a14 14 0 0 0 3.15-7.33c-.06 3.08-.88 5.65-3.15 7.33z" fill="#f7e2cc"/><path d="M36.46 56.05a13.54 13.54 0 0 0-3.22 8.55 8.84 8.84 0 0 1 3.22-8.55z" fill="#f7e2cc"/><path d="M39.84 68.64a67.08 67.08 0 0 1-6-3 21.59 21.59 0 0 0 6 3z" fill="#ecd9c0"/><path d="M43.25 60.31a63.12 63.12 0 0 1-6.37-4.1 19.6 19.6 0 0 0 6.37 4.1z" fill="#ecd9c0"/><path d="M36.29 55.82c-3.76-2.47-8-5.1-12.66-7.83a112.07 112.07 0 0 0 12.66 7.83z" fill="#1436b2"/><path d="M43.71 50.4a12.75 12.75 0 0 1 2.56 2.6 2.6 2.6 0 0 1 .12 2.88 3.71 3.71 0 0 1-1.91 2.3A5.69 5.69 0 0 1 41 58c-1.72-.64-4.14-3.34-3-5.21 1-1.58 3.93-3 5.76-2.42" fill="#f7e2cc"/><path d="M46 42.52a9.54 9.54 0 0 1 1.45 2.32 2 2 0 0 1-.36 2.16 2.78 2.78 0 0 1-1.77 1.36 4.26 4.26 0 0 1-2.54-.67c-1.15-.75-1.3-2-.26-3.85a2.73 2.73 0 0 1 3.54-1.26" fill="#f7e2cc"/><path d="M47.25 53.9c-.44 3-1.55 4.4-3.15 4.73 2.44-.42 3.47-2.01 3.15-4.73z" fill="#f7e2cc"/><path d="M42.23 50c-4.2 1.21-6 3-4.23 5.75-2.33-2.38-.79-5.33 4.23-5.75z" fill="#f7e2cc"/><path d="M44 42.16c-2 1.41-2.89 3.08-2 5.13-1.47-2.12-.32-4.02 2-5.13z" fill="#f7e2cc"/><path d="M48 45.81c-.69 1.83-1.72 2.88-3.23 2.83 1.77.53 2.73-.64 3.23-2.83z" fill="#f7e2cc"/><path d="M50.7 30.79c.45-.38-1.37-5.39-2-5.79s-2.29-.72-2.53-.21 4.08 6.38 4.53 6z" fill="#f7e2cc"/><path d="M53.09 26.55c-.41.14-2.87-2.9-2.89-3.43s.42-1.71.83-1.66 2.47 4.96 2.06 5.09z" fill="#f7e2cc"/><path d="M48.65 31.14a52.86 52.86 0 0 0-8.81-12.44C43 22.88 46 27 48.65 31.14z" fill="#1436b2"/><path d="M48.95 24.77q-2.33-1.1-3.19-.05c.24-1.17 1.39-1.05 3.19.05z" fill="#f7e2cc"/><path d="M51.28 21.19c-.82-.24-1.26.6-1.51 2 .01-1.57.35-2.52 1.51-2z" fill="#f7e2cc"/><path d="M25.2 63.19a2.71 2.71 0 0 1-.39.9.8.8 0 0 1-.19.21.72.72 0 0 1-.33.11 1.23 1.23 0 0 1-.94-.17 1.31 1.31 0 0 1-.35-1.47 1.2 1.2 0 0 1 1.19-.77.93.93 0 0 1 .5.17l.16.14a1.1 1.1 0 0 1 .34.87z" fill="#f7e2cc"/><path d="M27.76 55.05a3.81 3.81 0 0 1-.55 1.27 1.13 1.13 0 0 1-.26.29 1 1 0 0 1-.47.15 1.74 1.74 0 0 1-1.33-.24 1.85 1.85 0 0 1-.44-2.07 1.69 1.69 0 0 1 1.62-1 1.3 1.3 0 0 1 .7.23 1.66 1.66 0 0 1 .22.2 1.55 1.55 0 0 1 .48 1.23z" fill="#f7e2cc"/><path d="M32 46.43a3.2 3.2 0 0 1-.46 1.06 1 1 0 0 1-.22.25.85.85 0 0 1-.39.13 1.46 1.46 0 0 1-1.11-.21 1.55 1.55 0 0 1-.37-1.73 1.42 1.42 0 0 1 1.36-.87 1.09 1.09 0 0 1 .59.2 1.38 1.38 0 0 1 .19.17 1.3 1.3 0 0 1 .41 1z" fill="#f7e2cc"/><path d="M35.47 38.4a2.4 2.4 0 0 1-.34.8.71.71 0 0 1-.17.19.64.64 0 0 1-.29.1 1.09 1.09 0 0 1-.83-.15 1.16 1.16 0 0 1-.27-1.3 1.06 1.06 0 0 1 1-.65.82.82 0 0 1 .44.15l.14.13a1 1 0 0 1 .3.77z" fill="#f7e2cc"/><path d="M37.27 30.08a2.4 2.4 0 0 1-.34.8.71.71 0 0 1-.17.19.64.64 0 0 1-.29.1 1.09 1.09 0 0 1-.83-.15 1.16 1.16 0 0 1-.27-1.3 1.06 1.06 0 0 1 1-.65.82.82 0 0 1 .44.15l.14.13a1 1 0 0 1 .3.77z" fill="#f7e2cc"/><path d="M37.63 21.61a2.4 2.4 0 0 1-.34.8.71.71 0 0 1-.17.19.64.64 0 0 1-.29.1 1.09 1.09 0 0 1-.83-.15 1.16 1.16 0 0 1-.27-1.3 1.06 1.06 0 0 1 1-.65.82.82 0 0 1 .44.15l.14.13a1 1 0 0 1 .3.77z" fill="#f7e2cc"/><path d="M37.56 17.29a1.68 1.68 0 0 1-.24.56.5.5 0 0 1-.12.13.45.45 0 0 1-.2.07.76.76 0 0 1-.58-.11.81.81 0 0 1-.19-.91.74.74 0 0 1 .71-.46.57.57 0 0 1 .31.1l.1.09a.68.68 0 0 1 .21.54z" fill="#f7e2cc"/><path d="M46.52 36a2.4 2.4 0 0 1-.34.8.71.71 0 0 1-.18.2.64.64 0 0 1-.29.1 1.09 1.09 0 0 1-.83-.15 1.16 1.16 0 0 1-.27-1.3 1.06 1.06 0 0 1 1-.65.82.82 0 0 1 .44.15l.14.13a1 1 0 0 1 .3.77z" fill="#f7e2cc"/><path d="M46.64 29.49a1.94 1.94 0 0 1-.28.65.58.58 0 0 1-.13.15.52.52 0 0 1-.24.08.88.88 0 0 1-.68-.12.94.94 0 0 1-.22-1.05.86.86 0 0 1 .83-.53.66.66 0 0 1 .36.12l.11.1a.79.79 0 0 1 .25.62z" fill="#f7e2cc"/><path d="M28 53.92c.28 1.94-.38 3-1.91 3.32 1.99-.11 2.51-1.3 1.91-3.32z" fill="#f7e2cc"/><path d="M26 53.11a2.16 2.16 0 0 0-1.23 3.38c-1.59-1.41-.72-3.16 1.23-3.38z" fill="#f7e2cc"/><path d="M30.67 44.83c-1.43.32-1.83 1.21-1.39 2.56a1.52 1.52 0 0 1 1.39-2.56z" fill="#f7e2cc"/><path d="M18.11 48a5.74 5.74 0 0 1 2.13-.32 5.23 5.23 0 0 0 1.49 0c.56-.15.84-.68 1.33-1a5.13 5.13 0 0 1 1.65-.67 7.84 7.84 0 0 1 3.84.58c1.29.41 2.61.78 3.87 1.29A24.85 24.85 0 0 1 35 49.07c6.09 2.64 8.49 6.63 13.07 12.35 5.64 7 9.56 13.66 11 17.52a32.84 32.84 0 0 1 1 3.43 8.87 8.87 0 0 0-2.32 3.72A57.35 57.35 0 0 1 48.28 91a49.29 49.29 0 0 1-7.55 2.94c-4.56 1.46-9.41 1.28-14.13.88-2.52-.21-5-.57-7.48-1a25.39 25.39 0 0 1-7.63-2.21 39.18 39.18 0 0 1-3.66-2c-.59-.4-2.29-1.27-2.32-1.39-.06-.28 1.3-.46.39-1.41a29.05 29.05 0 0 0-3.76-3.71c-1-.64-2.09-.19-2.13-.48s1.5-.62 1.87-1.44a12.6 12.6 0 0 0 .67-3.25 5 5 0 0 0-.47-3.42c-.51-1.1-1.31-1.57-1.27-1.88s.75-.18 1.52-1.24 1.52-1.52 1.8-2.52S3.77 67 4.09 66c.38-1.09 1.57-1.43 2.48-1.93S8.73 62.91 9 61.92s-.66-1.84-.15-2.79c.63-1.18 2-1.76 2.81-2.81s.32-2.15 1.14-3c.54-.56 1.35-.78 1.82-1.43s.5-1.19.85-1.74A5.42 5.42 0 0 1 18.11 48z"/><path d="M59.12 78.94c.13.33.24.67.34 1a38.69 38.69 0 0 0-1.82-4.12 27.54 27.54 0 0 1 1.48 3.12z" fill="#2254d3"/><path d="M24.38 49c-.49.87 1.35 1.79 1.87 2.15 1.78 1.23 3.56 2.45 5.32 3.69S35 57.53 36.66 59a35.66 35.66 0 0 1 4.7 4.68C44 66.94 45.72 71 48.58 74.14a41.58 41.58 0 0 0 9.25 7.53c.17.11.62.46 1.07.73a8.33 8.33 0 0 1 .92-.87c-.11-.27-.23-.54-.29-.71-.18-.52-.35-1-.54-1.55a28.36 28.36 0 0 0-1.35-2.93 66.77 66.77 0 0 0-7.36-11.58c-2.83-3.57-5.55-7.29-8.63-10.65a9.83 9.83 0 0 0-1.05-1 29.11 29.11 0 0 0-12.21-5.93 1 1 0 0 0-1.12.79c-.17.79 1.27 1.21 1.81 1.52a49.1 49.1 0 0 1 5.6 3.89 35.76 35.76 0 0 1 2.8 2.54 48 48 0 0 0-10.39-7.26c-.72-.38-2.22-.57-2.71.34z" fill="#2254d3"/><path d="M19.59 55.32c1.46.69 3 1.32 4.37 2.12a70.06 70.06 0 0 1 8.15 6c2.45 1.9 4.82 3.85 7.17 5.88a8.68 8.68 0 0 0 1.72 1.2 12.88 12.88 0 0 0 1.76.55c.76.26 2.23 1.25 3 .86 1-.48-.65-2.23-1-2.75-.72-1.15-1.39-2.33-2.11-3.48a32.21 32.21 0 0 0-6-6.59 80.21 80.21 0 0 0-7-5.48c-1.15-.82-2.32-1.61-3.51-2.38a15.25 15.25 0 0 0-3.65-2c-.87-.27-3.16-.75-3.58.44s1.7 2.16 2.45 2.61a77.93 77.93 0 0 1 7.14 4.47 77 77 0 0 0-7.35-4.49c-1.2-.65-4.8-2.63-4.86.11-.01 1.69 2.03 2.33 3.3 2.93z" fill="#2254d3"/><path d="M15.4 60.94c1.36.4 2.73.76 4.07 1.23a52.14 52.14 0 0 1 7.94 3.51c1.95 1.08 3.95 2.12 5.83 3.31a13.26 13.26 0 0 0 3.3 1.91 9.16 9.16 0 0 0 2.8.36c.4 0 1.27 0 1.19-.55 0-.28-1-1-1.2-1.18-1-1-2.11-1.9-3.22-2.8q-3.08-2.5-6.21-4.95a47.12 47.12 0 0 0-6.57-4.53A20.44 20.44 0 0 0 20.39 56c-1-.36-2-.92-3-1.22a4.78 4.78 0 0 0-3.4.48c-1.2.61-1.19 1.41.13 1.9s2.73.83 4.06 1.42c1.13.5 2.25 1.06 3.35 1.61a66.63 66.63 0 0 0-6.34-2.57 6.46 6.46 0 0 0-3-.44c-.7.17-1.42 1.2-.91 1.88 1.05 1.23 2.66 1.46 4.12 1.88z" fill="#2254d3"/><path d="M9.92 67.1c1.31.19 2.62.34 3.93.53A70.66 70.66 0 0 1 21.91 69a17.07 17.07 0 0 1 6.35 2.82 13.82 13.82 0 0 1 1.43 1.3 12.68 12.68 0 0 0 1 1.23A12.28 12.28 0 0 0 34.52 76c1.8.66 3.59 1.37 5.41 2 .91.3 1.69 0 2.6.18a25.32 25.32 0 0 1 3.31 1c4.08 1.38 8 3.07 12.08 4.57a7 7 0 0 1 .82-1.16 31.63 31.63 0 0 1-5.28-3.4 45.84 45.84 0 0 1-5-4.62 6.83 6.83 0 0 0-2.56-2c-.75-.29-1.52-.58-2.29-.81-2.1-.61-4.21-.14-6.32-.49s-3.71-1.65-5.44-2.69-3.08-2.07-4.74-2.87-3.33-1.71-5.04-2.38a45.06 45.06 0 0 0-5.84-1.93c-1.69-.4-4.16-1.4-5.73-.24-.52.39-1.31 1.42-.71 2.07s1.94.75 2.66.91c1.9.41 3.78 1 5.63 1.62-2.1-.51-4.18-1.08-6.27-1.62-1.61-.41-4.44-.7-4.4 1.66.02 1.13 1.71 1.2 2.51 1.3z" fill="#2254d3"/><path d="M7.6 75c1.35.09 2.71.13 4.06.11 2.54 0 5.07-.17 7.6-.24 2.38-.07 4.75-.11 7.13-.09a23.28 23.28 0 0 0 3.23 0c1-.14.37-.93-.12-1.43-3.06-3.15-7.36-4.4-11.61-5Q15 68 12.08 67.71c-1.93-.19-4.11-1-5.93 0-1.33.71-3.24 3-.83 3.65A40.15 40.15 0 0 0 12 72c-2-.12-4.06-.18-6.07-.42-.64-.08-1.59-.36-2 .31a2.43 2.43 0 0 0 .21 2.15c.67 1.05 2.41.87 3.46.96z" fill="#2254d3"/><path d="M7.69 83c1.34-.11 2.69-.25 4-.38 3.66-.36 7.31-.93 11-1.38 3.19-.39 6.4-.75 9.58-1.2l4.7-.65c.73-.1 2.86-.05 3.24-.64s-2.78-1.34-3.21-1.49c-1.45-.51-2.91-1.08-4.4-1.47a34.6 34.6 0 0 0-8.83-.69c-3.06 0-6.12.11-9.18.1h-5a10.38 10.38 0 0 0-4.5.56c-1 .47-2.26 1.6-1.64 2.87s2.2.82 3.26.76c2.64-.15 5.27-.23 7.91-.28-2.25.26-4.53.38-6.8.43a11.78 11.78 0 0 0-3.26.17 1.64 1.64 0 0 0-1.09 2.44c1 1.38 2.81.96 4.22.85z" fill="#2254d3"/><path d="M22.39 87.71c2.44-.27 4.87-.81 7.27-1.28 2.68-.52 5.38-1 8-1.78a23.52 23.52 0 0 1 6.43-1.26 61.92 61.92 0 0 1 6.62.52c1.83.2 3.66.44 5.49.62a12.39 12.39 0 0 0 1.29.13 5.54 5.54 0 0 1 .39-.89 16.43 16.43 0 0 0-1.84-.63l-5.41-2c-2.43-.91-5-2.36-7.65-2.4a29.15 29.15 0 0 0-3.94.5c-2.47.3-4.93.67-7.4 1-4.4.61-8.8 1.38-13.21 1.82-2.23.22-4.44.48-6.65.77-1.18.15-2.36.25-3.55.36-1 .08-2.41-.05-3.25.45-1.11.65-.44 1.34.31 1.86a3.85 3.85 0 0 0 2.8.61c2.4-.22 4.79-.61 7.19-.9-1.8.3-3.62.53-5.42.81-.63.1-1.76 0-2.21.57a1 1 0 0 0 .45 1.5c4.49 2 9.64.13 14.29-.38z" fill="#2254d3"/><path d="M53.41 88.37c1.26-.83 2.48-1.58 3.6-2.22l.27-.23a3.86 3.86 0 0 1 .11-.88 6.8 6.8 0 0 0-.86-.22c-.82-.16-1.64-.32-2.47-.42-1.74-.21-3.5-.45-5.25-.57a53.36 53.36 0 0 0-6.07-.25 24.56 24.56 0 0 0-4.9 1.12c-6.26 1.58-12.58 2.66-19 3.67-1.82.29-3.63.51-5.47.66-1 .08-3.71.5-2 1.94 2.48 2.12 6.23 2.39 9.31 2.91a65 65 0 0 0 9.3.67l5.89.14a15.36 15.36 0 0 0 4.48-.82 54.56 54.56 0 0 0 8.75-3.47c1.43-.71 2.9-1.33 4.31-2.03z" fill="#2254d3"/><path d="M47.07 60.64c.15.49-2.24 4.52-4.17 5.11-.48-.73-1-1.44-1.54-2.12a33.65 33.65 0 0 0-4.05-4.11c0-1.48 3.56-4.74 4.68-5 1.77 1.93 3.44 4.02 5.08 6.12z" fill="#f7e2cc"/><path d="M32.94 64a11.24 11.24 0 0 1 4.27-4.45 30.24 30.24 0 0 1 5.46 6.1l.12.2a11 11 0 0 1-2.35 4.29 12.66 12.66 0 0 1-1.16-.92c-2.07-1.75-4.18-3.48-6.34-5.22z" fill="#f7e2cc"/><path d="M36.54 70.9a13.26 13.26 0 0 1-3.29-1.9 59.22 59.22 0 0 0-2.65-1.56 5.63 5.63 0 0 1 2.27-3.29c1.09.86 2.18 1.72 3.26 2.6s2.2 1.8 3.22 2.8c.14.14.69.55 1 .88.06.44-.07.7-.34.8a4.14 4.14 0 0 1-.65.05 9.16 9.16 0 0 1-2.82-.38z" fill="#f7e2cc"/><path d="M30.71 74.36a12.68 12.68 0 0 1-1-1.23 12.41 12.41 0 0 0-1.3-1.13c-.24-.35.64-3.51 2.06-4.32.47.3.93.6 1.4.89 1.72 1 3.41 2.36 5.44 2.69a16 16 0 0 0 2.62.14 11.15 11.15 0 0 1-1.9 6L34.52 76a12.28 12.28 0 0 1-3.81-1.64z" fill="#f7e2cc"/><path d="M27.56 74.8a2.69 2.69 0 0 1 .74-2.56 13.2 13.2 0 0 1 1.21 1.1c.49.5 1.12 1.3.12 1.43a11.63 11.63 0 0 1-2.07.03z" fill="#f7e2cc"/><path d="M32.27 80c-1.76.25-3.53.47-5.3.68a5.75 5.75 0 0 1 .52-5.58 22.73 22.73 0 0 1 5.13.65c1.49.39 2.94 1 4.4 1.47l1 .3a1.63 1.63 0 0 1-.34 1.77l-.66.05z" fill="#f7e2cc"/><path d="M27.39 86.88a7.21 7.21 0 0 1-.42-6c1.56-.24 3.13-.47 4.69-.69 2-.28 4-.56 6-.82a5.11 5.11 0 0 1-.47 5.37c-2.47.66-5 1.16-7.49 1.65z" fill="#f7e2cc"/><path d="M59.12 78.94c.13.33.24.67.34 1a38.67 38.67 0 0 0-1.82-4.11 27.53 27.53 0 0 1 1.48 3.11z" fill="#1436b2"/><path d="M28.53 49.17c-.66-.62.29-1.85 1.63-1.59-.59-.17-1.18-.32-1.78-.45a1 1 0 0 0-1.12.79c-.12.59.65.97 1.27 1.25z" fill="#1436b2"/><path d="M24.38 49c-.34.61.46 1.24 1.14 1.69-.44-.78 1.6-1.85 2.74-1.44-.39-.21-.78-.41-1.18-.6-.71-.37-2.21-.56-2.7.35z" fill="#1436b2"/><path d="M21.21 52.18c-.14-.88 2.79-2 3.73-1.72a9.94 9.94 0 0 0-2.42-1.22c-.87-.27-3.16-.75-3.58.44s1.4 2.02 2.27 2.5z" fill="#1436b2"/><path d="M19.59 55.32l.42.19a1.88 1.88 0 0 1-.66-2.32 1.78 1.78 0 0 1 1.66-1c-1.34-.72-4.63-2.43-4.69.2-.04 1.69 2 2.33 3.27 2.93z" fill="#1436b2"/><path d="M15.59 61c-2.38-1-1.09-3.37 1.17-2.84-.52-.2-1-.39-1.58-.55a6.46 6.46 0 0 0-3-.44c-.7.17-1.42 1.2-.91 1.88 1 1.24 2.63 1.47 4.09 1.9z" fill="#1436b2"/><path d="M14.11 57.14c1 .36 2 .64 2.93 1a1.83 1.83 0 0 1-.47-1.56 1.89 1.89 0 0 1 1.67-1.5 8.36 8.36 0 0 0-.86-.31 4.78 4.78 0 0 0-3.4.48c-1.2.59-1.18 1.39.13 1.89z" fill="#1436b2"/><path d="M12.45 64.14l.27.07c-1.61-1 .3-3.46 1.93-3.23-1.43-.38-3-.65-4.16.19-.52.39-1.31 1.42-.71 2.07s1.95.76 2.67.9z" fill="#1436b2"/><path d="M9.92 67.1l2.31.31a2 2 0 0 1-.74-1.84 1.69 1.69 0 0 1 1-1.27l-.65-.17c-1.61-.41-4.44-.7-4.4 1.66-.01 1.14 1.68 1.21 2.48 1.31z" fill="#1436b2"/><path d="M9.23 71.87c-1.86-1.43 1.27-4.26 2.64-4.19-1.87-.22-4-.92-5.72 0-1.33.71-3.24 3-.83 3.65a19.9 19.9 0 0 0 3.91.54z" fill="#1436b2"/><path d="M8.81 75c-1.37-.48-1.08-3 .37-3.14-1.1-.06-2.19-.14-3.28-.27-.64-.08-1.59-.36-2 .31a2.43 2.43 0 0 0 .21 2.15c.69 1 2.42.82 3.48.89z" fill="#1436b2"/><path d="M7.7 79.34c-1.2-.37-1.68-3.7.66-4.15a7.76 7.76 0 0 0-3.24.56c-1 .47-2.26 1.6-1.64 2.87s2.2.82 3.26.76z" fill="#1436b2"/><path d="M7.57 79.53a9.61 9.61 0 0 0-3 .17 1.64 1.64 0 0 0-1.09 2.44c.93 1.35 2.68 1 4.08.86-1.24-.29-1.22-3.32.01-3.47z" fill="#1436b2"/><path d="M8.19 83.18c-1 .07-2.36 0-3.19.45-1.11.65-.44 1.34.31 1.86a3.85 3.85 0 0 0 2.8.61L9 86c-1.21 0-2-2.5-.81-2.82z" fill="#1436b2"/><path d="M9.12 86.08a2.24 2.24 0 0 0-1.47.49 1 1 0 0 0 .45 1.5 10.09 10.09 0 0 0 2.51.75c-1.03-.47-2.02-2.26-1.49-2.74z" fill="#1436b2"/><path d="M45.94 59.2c1.46 1.85 2.89 3.72 4.34 5.55a66.77 66.77 0 0 1 7.36 11.58A28.36 28.36 0 0 1 59 79.27c.19.51.36 1 .54 1.55.06.17.18.43.29.71a8.33 8.33 0 0 0-.92.87c-.45-.27-.89-.62-1.07-.73a41.57 41.57 0 0 1-9.25-7.53A34.29 34.29 0 0 1 45 69c3.07 0 3.83-5.79.94-9.8z" fill="#1436b2"/><path d="M43.4 78.38c2.69-.29 2.44-5.56 1-6.44.52.18 1 .37 1.56.57a6.83 6.83 0 0 1 2.56 2 45.84 45.84 0 0 0 5 4.62 31.62 31.62 0 0 0 5.28 3.4 7 7 0 0 0-.82 1.16c-4-1.49-8-3.18-12.08-4.57-.9-.24-1.67-.52-2.5-.74z" fill="#1436b2"/><path d="M43.1 83.43c1.82-.42 1.5-4.11.26-4.68 2.48.16 5 1.51 7.29 2.37l5.41 2a16.43 16.43 0 0 1 1.84.63 5.54 5.54 0 0 0-.39.89 12.43 12.43 0 0 1-1.29-.13c-1.83-.18-3.66-.43-5.49-.62a61.91 61.91 0 0 0-6.62-.52l-1.01.06z" fill="#1436b2"/><path d="M59.12 78.94c.13.33.24.67.34 1a38.69 38.69 0 0 0-1.82-4.12 27.54 27.54 0 0 1 1.48 3.12z" fill="#002b8c"/><path d="M50.21 75.82a43.86 43.86 0 0 0 7.61 5.84c.17.11.62.46 1.07.73a8.33 8.33 0 0 1 .92-.87c-.11-.27-.23-.54-.29-.71-.18-.52-.35-1-.54-1.55a28.36 28.36 0 0 0-1.35-2.93 66.77 66.77 0 0 0-7.36-11.58c-1.4-1.77-2.77-3.57-4.18-5.35a49.3 49.3 0 0 0-4.45-5.3 9.83 9.83 0 0 0-1.05-1 29.85 29.85 0 0 0-6.12-3.85C43.78 55 54.42 71.69 50.21 75.82z" fill="#002b8c"/><path d="M50 80.66c2.65 1 5.28 2.07 7.94 3.06a7 7 0 0 1 .82-1.16 31.63 31.63 0 0 1-5.28-3.4c-1.12-.91-2.2-1.85-3.23-2.85C52 78 51.48 80.62 50 80.66z" fill="#002b8c"/><path d="M49.36 83.76l1.36.15c1.83.2 3.66.44 5.49.62a12.39 12.39 0 0 0 1.29.13 5.54 5.54 0 0 1 .39-.89 16.43 16.43 0 0 0-1.84-.63l-5.41-2-.7-.28c1.18.82.98 2.92-.58 2.9z" fill="#002b8c"/><path d="M59.12 78.94c.16.4.29.81.41 1.23a38 38 0 0 0-1.88-4.33 27.54 27.54 0 0 1 1.47 3.1z" fill="#00184f"/><path d="M55.82 80.35c.65.45 1.32.9 2 1.32.17.11.62.46 1.07.73a8.33 8.33 0 0 1 .92-.87c-.11-.27-.23-.54-.29-.71-.18-.52-.35-1-.54-1.55a28.36 28.36 0 0 0-1.35-2.93c-.31-.63-.64-1.24-1-1.85 1.13 2.23.48 5.2-.81 5.86z" fill="#00184f"/><path d="M55 82.62c1 .37 1.91.74 2.87 1.1a7 7 0 0 1 .82-1.16c-1.07-.57-2.07-1.15-3-1.78a1.16 1.16 0 0 1-.69 1.84z" fill="#00184f"/><path d="M54.27 84.31l1.95.22a12.39 12.39 0 0 0 1.29.13 5.54 5.54 0 0 1 .39-.89 16.43 16.43 0 0 0-1.84-.63L55 82.75c.49.42 0 1.57-.73 1.56z" fill="#00184f"/><path d="M53.41 88.37c1.26-.83 2.48-1.58 3.6-2.22l.27-.23a3.86 3.86 0 0 1 .11-.88 6.8 6.8 0 0 0-.86-.22c-.82-.16-1.64-.32-2.47-.42-1.74-.21-3.5-.45-5.25-.57a53.36 53.36 0 0 0-6.07-.25 24.56 24.56 0 0 0-4.9 1.12c-6.26 1.58-12.58 2.66-19 3.67-1.82.29-3.63.51-5.47.66-1 .08-3.71.5-2 1.94 2.48 2.12 6.23 2.39 9.31 2.91a65 65 0 0 0 9.3.67l5.89.14a15.36 15.36 0 0 0 4.48-.82 54.56 54.56 0 0 0 8.75-3.47c1.43-.71 2.9-1.33 4.31-2.03z" fill="#d2ab90"/><path d="M18.45 88.44c-1.67.25-3.34.46-5 .6-1 .08-3.71.5-2 1.94 2.48 2.12 6.23 2.39 9.31 2.91a49.15 49.15 0 0 0 6.38.58c-5.36-.83-9.26-5.25-8.69-6.03z" fill="#9e6b55"/><path d="M13.37 89c-1 .09-3.64.51-2 1.93 2.27 1.95 5.61 2.33 8.53 2.79-1.44-.18-7.21-3.58-6.53-4.72z" fill="#7c4b3e"/><path d="M57.28 85.92a3.86 3.86 0 0 1 .11-.88 6.8 6.8 0 0 0-.86-.22c-.82-.16-1.64-.32-2.47-.42-1.74-.21-3.5-.45-5.25-.57a53.36 53.36 0 0 0-6.07-.25 24.56 24.56 0 0 0-4.9 1.12l-1.55.36c2.51 1.75 1 8.4-2.43 9.59h2a15.36 15.36 0 0 0 4.48-.82 54.56 54.56 0 0 0 8.76-3.43c1.44-.71 2.9-1.33 4.32-2s2.48-1.58 3.6-2.22z" fill="#9e6b55"/><path d="M57.28 85.92a3.86 3.86 0 0 1 .11-.88 6.8 6.8 0 0 0-.86-.22c-.82-.16-1.64-.32-2.47-.42-1.56-.19-3.13-.39-4.7-.52 1 4.08-9.93 10.77-15.49 10.76h2a15.36 15.36 0 0 0 4.48-.82 54.56 54.56 0 0 0 8.75-3.42c1.44-.71 2.9-1.33 4.32-2s2.48-1.58 3.6-2.22z" fill="#7c4b3e"/><path d="M35.4 50c7.68 6.32 12.74 13.52 15.4 21.47A71.48 71.48 0 0 0 35.4 50z" fill="#002b8c"/><path d="M50 76.21c1.5 1.8 1.56 3.75-.1 4.37 1.17-1.01 1.28-2.48.1-4.37z" fill="#002b8c"/><path d="M49.81 80.9c1.06.94 1 2.36-.46 2.73.95-.63 1.11-1.54.46-2.73z" fill="#002b8c"/><path d="M56.48 74.4c.89 2.45.55 4.32-.72 5.77a7.93 7.93 0 0 0 .72-5.77z" fill="#00184f"/><path d="M50.57 68.93c1.59 3.06 1.9 5.5-.14 6.83 1.51-1.4 1.34-3.81.14-6.83z" fill="#1436b2"/><path d="M30.23 47.67c-1-.17-2.12.78-1.57 1.41a1.71 1.71 0 0 1 1.57-1.41z" fill="#1436b2"/><path d="M41.1 63c4 5 4.47 8.14 8.81 12.42C46.14 71 45.32 67.37 41.1 63z" fill="#2254d3"/><path d="M24.31 50.4a81 81 0 0 1 13.49 10z" fill="#1436b2"/><path d="M49.13 83.65a13.42 13.42 0 0 0-11.84 1.06 17.5 17.5 0 0 1 11.84-1.06z" fill="#9e6b55"/><path d="M28.38 49.37c-1.06-.27-2.67.25-2.74 1.26a4 4 0 0 1 2.74-1.26z" fill="#1436b2"/><path d="M24.34 50.54q-2.77.65-3 1.63a13.58 13.58 0 0 1 3-1.63z" fill="#1436b2"/><path d="M21.06 52.23a1.79 1.79 0 0 0-.81 3.3c-.74-1.53-.49-2.59.81-3.3z" fill="#1436b2"/><path d="M18.32 55.18A1.69 1.69 0 0 0 17.18 58a2.59 2.59 0 0 1 1.14-2.82z" fill="#1436b2"/><path d="M41.75 71.74a9.32 9.32 0 0 1 5.6 1.88c.73.56 1.05 1.28 2 2a24.61 24.61 0 0 1-2.17-1.79 12.19 12.19 0 0 0-5.43-2.09z" fill="#002b8c"/><path d="M10.34 88.4c2.07.75 4.93.37 7.91-.17-3.03-.02-5.85 0-7.91.17z" fill="#9e6b55"/><path d="M35.93 85.47A38.37 38.37 0 0 1 20.8 88.6a125.88 125.88 0 0 0 15.13-3.13z" fill="#2254d3"/><path d="M37.25 76.88c3.9 1.27 5.83-.13 12.39 3.49-7.37-3.37-9.25-1.87-12.39-3.49z" fill="#2254d3"/><path d="M50.54 75.93a44.07 44.07 0 0 0 8.34 6.27 100.34 100.34 0 0 1-8.34-6.27z" fill="#1436b2"/><path d="M50.5 80.74c2.46 1.06 4.9 2 7.33 2.76a66.57 66.57 0 0 0-7.33-2.76z" fill="#1436b2"/><path d="M17 58.35c-2.32-.35-3.41 1.49-1.34 2.51-1.28-1.28-.54-2.42 1.34-2.51z" fill="#1436b2"/><path d="M14.73 61.08c-1.89.2-3 2.1-1.88 3-.49-1.22.33-2.19 1.88-3z" fill="#1436b2"/><path d="M12.54 64.41a1.74 1.74 0 0 0-.2 2.92 2.48 2.48 0 0 1 .2-2.92z" fill="#1436b2"/><path d="M12.1 67.79c-2.07.55-4 2.7-2.68 4-.42-1.33.42-2.67 2.68-4z" fill="#1436b2"/><path d="M9.28 72a1.61 1.61 0 0 0-.35 3c-.87-1.25-.76-2.24.35-3z" fill="#1436b2"/><path d="M8.44 75.29c-1.84.53-1.89 3.3-.6 4a2.84 2.84 0 0 1 .6-4z" fill="#1436b2"/><path d="M7.65 79.6c-1.16.57-1 2.95.1 3.33a2.51 2.51 0 0 1-.1-3.33z" fill="#1436b2"/><path d="M8.24 83.26a1.58 1.58 0 0 0 .88 2.64 2 2 0 0 1-.88-2.64z" fill="#1436b2"/><path d="M9.2 86.14c-.45.69.67 2.17 1.5 2.62a3.65 3.65 0 0 1-1.5-2.62z" fill="#1436b2"/><path d="M54.39 84.2a11.32 11.32 0 0 0-4.26-.46z" fill="#00184f"/><path d="M49.59 84.1a42.18 42.18 0 0 1 7.65 1.12c-2.37-.28-4.94-.67-7.65-1.12z" fill="#00184f"/><path d="M36.89 85.18a20.85 20.85 0 0 1 12.29-1 39.39 39.39 0 0 0-12.29 1z" fill="#7c4b3e"/><path d="M8.68 75.35a58.18 58.18 0 0 0 10.83-.1z" fill="#1436b2"/><path d="M55.65 80.75c.32.85.17 1.36-.31 1.62a1.67 1.67 0 0 0 .31-1.62z" fill="#00184f"/><path d="M55 82.8a1 1 0 0 1-.57 1.42A1.89 1.89 0 0 0 55 82.8z" fill="#00184f"/><path d="M37.06 85.44c2.54 2.83 1.68 6.54-2 8.76 2.94-2.58 3.45-5.77 2-8.76z" fill="#d2ab90"/><path d="M18.2 88.67c0 2.92 2.89 4.43 6.64 5.54-3.47-1.55-6.21-3.28-6.64-5.54z" fill="#d2ab90"/><ellipse cx="34.89" cy="88.01" rx="2.01" ry="1.11" transform="rotate(-18.16 34.897 88.004)" fill="#ecd9c0"/><path d="M49.83 84.32c0 3.46-2.85 6.61-9.51 8.92 5.19-2.45 8.88-5.41 9.51-8.92z" fill="#9e6b55"/><path d="M13.52 89.2c1.28 2.1 4 3.39 6.9 4.52a24.27 24.27 0 0 1-6.9-4.52z" fill="#7c4b3e"/><path d="M40.91 53.53a109.66 109.66 0 0 1 12.47 15.71 196.14 196.14 0 0 1-12.47-15.71z" fill="#9e6b55"/><path d="M23.15 49.49c-2.89-.85-4.93-.36-3.79 1.31-.36-1.43 1.44-1.54 3.79-1.31z" fill="#002b8c"/><path d="M18.9 51.25c-2.91-.7-3.18 1.54-1 3.12-1.76-2.03-1.31-3.02 1-3.12z" fill="#002b8c"/><path d="M16 54.72c-2.13.69-2.93 1.59-1.59 2.34-2.41-.8-.57-2.06 1.59-2.34z" fill="#002b8c"/><path d="M14.16 57.36c-3.13-.6-3.91 1.42-1.34 2.7-1.93-1.49-1.1-2.73 1.34-2.7z" fill="#002b8c"/><path d="M12.76 60.69c-2.81-.06-4.13 2.31-2.12 3-1.09-1.31-.11-2.45 2.12-3z" fill="#002b8c"/><path d="M10.19 63.95C7.12 64 7 66.21 8.45 66.82c-1.11-1.02-.22-2.48 1.74-2.87z" fill="#002b8c"/><path d="M8.47 67.34c-3.75.05-5.47 3.42-3.2 3.89-1.27-1.18.5-3.23 3.2-3.89z" fill="#002b8c"/><path d="M5.58 71.58c-2.44-.46-2.2 2.6 0 3.08-1.48-.8-1.77-2.79 0-3.08z" fill="#002b8c"/><path d="M5.13 75.72c-2.49 1.3-2.2 3.54.12 3.58-1.75-.78-1.7-1.99-.12-3.58z" fill="#002b8c"/><path d="M5.29 79.67c-3.12.73-2.12 3.44.78 3.45-2.63-.66-2.71-2.53-.78-3.45z" fill="#002b8c"/><path d="M6 83.36c-3.15.72-.59 2.73 1.65 2.63-2.59-.61-3.74-1.66-1.65-2.63z" fill="#002b8c"/><path d="M8.16 86.31c-1.4.83-.33 1.94 1.82 2.33-1.78-.64-2.9-1.38-1.82-2.33z" fill="#002b8c"/><path d="M43.85 82.57a3.18 3.18 0 0 0-.7-3.75 4.37 4.37 0 0 1 .7 3.75z" fill="#1436b2"/><path d="M44.17 77.83c1.22-1.07 1.31-3.48.69-5.1a8.15 8.15 0 0 1-.69 5.1z" fill="#1436b2"/><path d="M45.47 68.67c1.21-.2 1.92-1.7 2.1-3.19a5.69 5.69 0 0 1-2.1 3.19z" fill="#1436b2"/><path d="M37.82 84.17A5.06 5.06 0 0 0 38 79.6a3.48 3.48 0 0 1-.18 4.57z" fill="#f7e2cc"/><path d="M38 79.19a1.66 1.66 0 0 0 .24-1.35 1 1 0 0 1-.24 1.35z" fill="#f7e2cc"/><path d="M38.41 77.05a9 9 0 0 0 1.7-5.49c.27 2.25-.17 4.14-1.7 5.49z" fill="#f7e2cc"/><path d="M40.65 70.19a10.38 10.38 0 0 0 2.2-3.94 5.43 5.43 0 0 1-2.2 3.94z" fill="#f7e2cc"/><path d="M43.57 65.68a9.2 9.2 0 0 0 2.52-2.59 4.11 4.11 0 0 1-2.52 2.59z" fill="#f7e2cc"/><path d="M27.16 86.86c-1.16-1.63-1.16-3.62-.6-5.76-.89 2.03-1.01 3.98.6 5.76z" fill="#f7e2cc"/><path d="M26.58 80.56a6.15 6.15 0 0 1 .34-5.21c-1.25 1.82-1.46 3.56-.34 5.21z" fill="#f7e2cc"/><path d="M27.22 74.62a3.89 3.89 0 0 1 .78-2.49 2.18 2.18 0 0 0-.78 2.49z" fill="#f7e2cc"/><path d="M28.22 71.61a5.89 5.89 0 0 1 1.93-4c-1.45 1.06-2.23 2.34-1.93 4z" fill="#f7e2cc"/><path d="M30.44 67.19A7.24 7.24 0 0 1 32.5 64a3.67 3.67 0 0 0-2.06 3.19z" fill="#f7e2cc"/><path d="M32.84 63.68a12.32 12.32 0 0 1 3.71-4.07 6.24 6.24 0 0 0-3.71 4.07z" fill="#f7e2cc"/><path d="M37.15 59.18a8.12 8.12 0 0 1 3.06-3.79c-1.88 1.07-3.1 2.29-3.06 3.79z" fill="#f7e2cc"/><path d="M37.51 79.43A37.51 37.51 0 0 1 27.16 81z" fill="#ecd9c0"/><path d="M36.66 77.22a23.09 23.09 0 0 0-8-1.93 68.66 68.66 0 0 1 8 1.93z" fill="#ecd9c0"/><path d="M39.45 71.45A8.65 8.65 0 0 1 34 70a6 6 0 0 0 5.45 1.45z" fill="#ecd9c0"/><path d="M39.3 69.61C38 68.35 36 66.71 33.92 65a69.71 69.71 0 0 0 5.38 4.61z" fill="#ecd9c0"/><path d="M42.48 65.59a24.65 24.65 0 0 0-4.38-5z" fill="#ecd9c0"/><path d="M15.87 82.92c.59.47.71 3.09.64 3.8s-.37 1.27-.64 1.13a1.31 1.31 0 0 1-.56-1c-.07-.51-.37-2.73-.35-3.17s.33-1.23.91-.76z" fill="#f7e2cc"/><path d="M16.44 76.45c.45.6-.08 3.17-.32 3.84s-.67 1.13-.9.94a1.31 1.31 0 0 1-.29-1.14c.06-.51.32-2.74.45-3.16s.62-1.08 1.06-.48z" fill="#f7e2cc"/><path d="M17.92 71.49a2.53 2.53 0 0 1-.35.85.75.75 0 0 1-.17.2.68.68 0 0 1-.31.11 1.15 1.15 0 0 1-.88-.14 1.23 1.23 0 0 1-.32-1.37 1.12 1.12 0 0 1 1.11-.72.87.87 0 0 1 .47.15l.15.13a1 1 0 0 1 .34.81z" fill="#f7e2cc"/><path d="M20 66a2.53 2.53 0 0 1-.75.54.75.75 0 0 1-.25.08.68.68 0 0 1-.32-.07 1.15 1.15 0 0 1-.67-.59 1.23 1.23 0 0 1 .46-1.33 1.12 1.12 0 0 1 1.28 0 .87.87 0 0 1 .32.37 1.1 1.1 0 0 1 .06.19A1 1 0 0 1 20 66z" fill="#f7e2cc"/><path d="M23.53 60.48a2.54 2.54 0 0 1-.75.54.75.75 0 0 1-.25.08.68.68 0 0 1-.32-.07 1.15 1.15 0 0 1-.67-.59A1.23 1.23 0 0 1 22 59.1a1.12 1.12 0 0 1 1.28 0 .87.87 0 0 1 .32.37 1.09 1.09 0 0 1 .06.19 1 1 0 0 1-.14.86z" fill="#f7e2cc"/><path d="M27.7 56.09a2 2 0 0 1-.6.43.61.61 0 0 1-.2.06.54.54 0 0 1-.26-.06.93.93 0 0 1-.54-.48 1 1 0 0 1 .36-1.04.9.9 0 0 1 1 0 .7.7 0 0 1 .26.3.89.89 0 0 1 0 .15.83.83 0 0 1-.12.7z" fill="#f7e2cc"/><path d="M32 53a2 2 0 0 1-.6.43.61.61 0 0 1-.2.06.55.55 0 0 1-.26-.06.93.93 0 0 1-.54-.48 1 1 0 0 1 .37-1.07.9.9 0 0 1 1 0 .7.7 0 0 1 .26.3.89.89 0 0 1 0 .15.83.83 0 0 1-.03.67z" fill="#f7e2cc"/><path d="M16.51 87.69a7 7 0 0 0-.39-4.69 4.55 4.55 0 0 1 .39 4.69z" fill="#f7e2cc"/><path d="M15.43 87.67a10 10 0 0 1-.6-4.53 5.67 5.67 0 0 0 .6 4.53z" fill="#f7e2cc"/><path d="M15.83 81.24a7.17 7.17 0 0 0 .88-4.85c.5 1.88.37 3.55-.88 4.85z" fill="#f7e2cc"/><path d="M14.83 81.13a13.86 13.86 0 0 1 .59-4.84 7.82 7.82 0 0 0-.59 4.84z" fill="#f7e2cc"/><path d="M17.3 72.85a1.51 1.51 0 0 0 .4-2.25c.77.82.74 1.57-.4 2.25z" fill="#f7e2cc"/><path d="M16 72.59c-.82-1.21-.34-1.87.57-2.36-1.08.29-1.57 1.25-.57 2.36z" fill="#f7e2cc"/><ellipse cx="49.21" cy="89.61" rx="11.23" ry="1.47" transform="rotate(-24.21 49.188 89.582)"/><path d="M53.22 88.68a.26.26 0 0 0 .14.19 8.41 8.41 0 0 1 .84.45c.27.17.54.35.79.55a14.66 14.66 0 0 1 1.45 1.29 18.4 18.4 0 0 1 1.3 1.46 13.71 13.71 0 0 1 1.12 1.59l.27 1.37-.93 1.07 1-1-.17-1.44A13.9 13.9 0 0 0 58 92.45a18.74 18.74 0 0 0-1.27-1.53 15.07 15.07 0 0 0-1.44-1.38c-.26-.22-.53-.41-.8-.61l-.21-.13a12.83 12.83 0 0 0 3.65-1 9.15 9.15 0 0 0 2-1.23l.21-.18A8.93 8.93 0 0 0 61.3 86q.33.86.63 1.72l.89 2.55c-.2 1.44-.57 2.89-.69 4.38L61.76 96l-.85 1.31.95-1.26.48-1.37c.22-1.48.69-2.9 1-4.39a.22.22 0 0 0 0-.1l-.73-2.66q-.26-.93-.54-1.87l.52-.28.13-.08c.67.65 1.36 1.27 2.05 1.87l2.1 1.83h.09c.86.22 1.72.38 2.57.56a7.86 7.86 0 0 0-1.17 2.6l.24 1.43 1.27.69-1.19-.76-.13-1.39a7.82 7.82 0 0 1 1.33-2.56c.49.11 1 .23 1.45.38l1.44.17 1.55-.3-1.55.2-1.4-.27c-.43-.17-.87-.31-1.32-.44a15.52 15.52 0 0 1 2.18-2.27.25.25 0 0 0-.11-.44 25.61 25.61 0 0 1-4.25-1.34q-1-.42-2-.92c-.43-.22-.85-.44-1.27-.67a5.59 5.59 0 0 0 1.11-1.51 4.57 4.57 0 0 0 4.11-1.14c.15-.2-.16-.13-.48-.22A2.69 2.69 0 0 0 70 80c3.5 2 7.71 1.06 13.24 3.76a12.18 12.18 0 0 0 1.63 1.4c1 .59 1.78.87 1.82.62s-.7-.94-1.66-1.53a5.49 5.49 0 0 0-1.79-.66C78.08 80.89 73.73 81.8 70 80a1.7 1.7 0 0 0 .07-1c3.31-.26 6.77-2.68 11.91-3.27a8.41 8.41 0 0 0 1.65.23c.93 0 1.68-.19 1.68-.38s-.76-.33-1.69-.31a5.87 5.87 0 0 0-1.66.34C77.12 76 73.54 78.5 70 79v-.11c-.39-1.1-2-1.55-3.55-1A3.22 3.22 0 0 0 64.29 80a8 8 0 0 0-4.13 1.24c-2.46 1.43-3.91 3.52-3.25 4.66a1.83 1.83 0 0 0 1.64.72 8.11 8.11 0 0 1-1 .59 13.7 13.7 0 0 1-4.16 1.18.25.25 0 0 0-.17.29zm10.23-3.88l.49-.38c.53.27 1.07.53 1.6.78q1 .47 2.11.86a26.47 26.47 0 0 0 3.93 1.1 15.42 15.42 0 0 0-1.82 2.13v.07c-.86-.25-1.72-.47-2.56-.74l-1.91-1.91c-.64-.64-1.29-1.27-1.84-1.91z"/></g></g></svg>