<svg xmlns="http://www.w3.org/2000/svg" viewBox="0 0 64 46"><title>Depositphotos_70289991_01</title><g data-name="Layer 2"><g data-name="Layer 1"><g data-name="Layer 2"><g data-name="Layer 1-2"><path fill="#f99e4f" d="M0 0h20v46H0z"/><circle cx="10" cy="13" r="6" fill="#fff"/><circle cx="10" cy="33" r="6" fill="#fff"/><path d="M10 20a7 7 0 1 1 7-7 7 7 0 0 1-7 7zm0-12a5 5 0 1 0 5 5 5 5 0 0 0-5-5z" fill="#6d6e71"/><path d="M10 40a7 7 0 1 1 7-7 7 7 0 0 1-7 7zm0-12a5 5 0 1 0 5 5 5 5 0 0 0-5-5z" fill="#6d6e71"/><path fill="#6d6e71" d="M9 22h2v2H9z"/><path fill="#f99e4f" d="M44 0h20v46H44z"/><circle cx="54" cy="13" r="6" fill="#fff"/><circle cx="54" cy="33" r="6" fill="#fff"/><path d="M54 20a7 7 0 1 1 7-7 7 7 0 0 1-7 7zm0-12a5 5 0 1 0 5 5 5 5 0 0 0-5-5z" fill="#6d6e71"/><path d="M54 40a7 7 0 1 1 7-7 7 7 0 0 1-7 7zm0-12a5 5 0 1 0 5 5 5 5 0 0 0-5-5z" fill="#6d6e71"/><path fill="#6d6e71" d="M53 22h2v2h-2z"/><path fill="#fff" d="M21 12h22v33H21z"/><path d="M43 46H21a1 1 0 0 1-1-1V12a1 1 0 0 1 1-1h22a1 1 0 0 1 1 1v33a1 1 0 0 1-1 1zm-21-2h20V13H22z" fill="#6d6e71"/><circle cx="10" cy="33" r="2" fill="#f99e4f"/><circle cx="54" cy="33" r="2" fill="#f99e4f"/><circle cx="10" cy="13" r="2" fill="#f99e4f"/><circle cx="54" cy="13" r="2" fill="#f99e4f"/><path fill="#84cfcc" d="M24 15h16v6H24z"/><path fill="#6d6e71" d="M24 23h16v2H24z"/><circle cx="32" cy="31" r="4" fill="#84cfcc"/><path fill="#6d6e71" d="M24 40h4v2h-4z"/><path fill="#6d6e71" d="M30 40h4v2h-4z"/><path fill="#6d6e71" d="M36 40h4v2h-4z"/><path fill="#6d6e71" d="M24 33h2v2h-2z"/><path fill="#6d6e71" d="M38 33h2v2h-2z"/></g></g></g></g></svg>