<svg xmlns="http://www.w3.org/2000/svg" viewBox="-0.26999998092651367 -0.6762433052062988 37.83000183105469 47.67624282836914"><title>Depositphotos_78991610_14</title><g data-name="Layer 2"><g data-name="Layer 1"><g data-name="Layer 2"><path d="M23.71 31.34C21.1 25.68 29.78 17.63 27.28 6c-.63-2.93-2.63-5-5.62-5H16.9a6.89 6.89 0 0 0-6.62 5c-2 8.38 7.18 19.68 4.57 25.34-1.08 2.35-3.57 5.88-3.57 8.66 0 4.42 3.58 6 8 6s8-1.58 8-6c0-2.78-2.48-6.31-3.57-8.66z" fill="#83c882"/><path d="M22.43 33a3.19 3.19 0 0 1-2.5-.86 15.32 15.32 0 0 0-2.13-1.7 4.07 4.07 0 0 0-.91-.36c-1.76 1.92-4.86 4.5-5.57 7-1.25 4.24 1.74 6.77 6 8s8.12.74 9.37-3.5c.78-2.67-.6-6.76-1-9.31v-.38a2.33 2.33 0 0 0-.9 0c-.87.29-1.52.98-2.36 1.11z" fill="#c6e3c2"/><path d="M36.26 9c.22-3-1.11-5.54-4-6.38l-4.55-1.35a6.89 6.89 0 0 0-7.76 2.93c-4.28 7.47 1.34 20.91-2.77 25.6l-.29.32a4.07 4.07 0 0 1 .91.36 15.32 15.32 0 0 1 2.13 1.7 3.19 3.19 0 0 0 2.5.86c.84-.16 1.49-.85 2.32-1.07a2.33 2.33 0 0 1 .9 0C25.21 25.91 35.39 20.61 36.26 9z" fill="#83c882"/><path d="M22.21 32.46a.5.5 0 0 1-.46-.7L31.4 9.59a.5.5 0 0 1 .92.4l-9.65 22.17a.5.5 0 0 1-.46.3z" fill="#c6e3c2"/><path d="M21.25 32.18h-.12a.5.5 0 0 1-.36-.61l5.8-23.32a.51.51 0 0 1 1 .24L21.73 31.8a.5.5 0 0 1-.48.38z" fill="#c6e3c2"/><path d="M20.29 31.9h-.06a.5.5 0 0 1-.44-.55l2.94-24.16a.5.5 0 0 1 1 .12l-3 24.15a.5.5 0 0 1-.44.44z" fill="#c6e3c2"/><path d="M22.18 44.46c-4.5-1.32-5.31-12.06-1.81-24 2.57-8.75 6.75-15.7 10.58-18.26l-3.24-1a6.89 6.89 0 0 0-7.76 3c-4.28 7.47 1.34 20.91-2.77 25.6-1.7 2-5.08 4.63-5.87 7.3-1.25 4.24 1.74 6.77 6 8 3.27 1 6.32.87 8.12-1.16a4.26 4.26 0 0 1-3.25.52z" fill="#c6e3c2"/><path d="M21 46.71a14.26 14.26 0 0 1-4-.64c-5.49-1.61-7.91-5-6.66-9.25.65-2.2 2.69-4.23 4.48-6 .6-.59 1.16-1.16 1.59-1.65 1.73-2 1.42-6.23 1.09-10.73-.37-5-.78-10.64 1.56-14.71A7.94 7.94 0 0 1 28 .31l4.56 1.34c3.17.93 5 3.77 4.7 7.42-.5 6.77-4 11.49-6.88 15.28-2.27 3-4.06 5.42-3.7 7.8.1.65.27 1.42.44 2.25.54 2.48 1.15 5.3.51 7.5A6.43 6.43 0 0 1 21 46.71zM25.8 2a5.75 5.75 0 0 0-5 2.7c-2 3.55-1.66 8.64-1.3 13.57s.7 9.58-1.58 12.19c-.48.54-1.06 1.13-1.68 1.75-1.55 1.54-3.48 3.47-4 5.18a4.21 4.21 0 0 0 .74 4.2 9.48 9.48 0 0 0 4.57 2.57 12.27 12.27 0 0 0 3.41.55 4.39 4.39 0 0 0 4.71-3.38c.5-1.71-.08-4.37-.54-6.51-.19-.86-.36-1.66-.47-2.38-.48-3.21 1.64-6 4.08-9.29 2.82-3.77 6-8 6.49-14.23.2-2.69-1-4.69-3.27-5.35l-4.53-1.34A5.75 5.75 0 0 0 25.8 2z" fill="#eef6ea"/><path d="M14.88 33a3.19 3.19 0 0 0 2.5-.86 15.33 15.33 0 0 1 2.13-1.7 4.07 4.07 0 0 1 .91-.36c1.77 1.91 4.84 4.46 5.58 7 1.25 4.24-1.74 6.77-6 8s-8.12.74-9.37-3.5c-.78-2.67.6-6.76 1-9.31v-.38a2.33 2.33 0 0 1 .9 0c.86.29 1.47.98 2.35 1.11z" fill="#c6e3c2"/><path d="M1 9C.83 6 2.17 3.46 5 2.61l4.6-1.34a6.89 6.89 0 0 1 7.76 2.93c4.28 7.47-1.33 20.91 2.77 25.6l.29.32a4.07 4.07 0 0 0-.91.36 15.33 15.33 0 0 0-2.13 1.7 3.19 3.19 0 0 1-2.5.86c-.84-.16-1.49-.85-2.32-1.07a2.33 2.33 0 0 0-.9 0C12.1 25.91 1.92 20.61 1 9z" fill="#83c882"/><path d="M15.11 32.46a.5.5 0 0 1-.46-.3L5 10a.5.5 0 0 1 .92-.4l9.68 22.18a.5.5 0 0 1-.46.7z" fill="#c6e3c2"/><path d="M16 32.18a.5.5 0 0 1-.48-.38L9.77 8.5a.51.51 0 1 1 1-.24l5.81 23.31a.5.5 0 0 1-.36.61H16z" fill="#c6e3c2"/><path d="M17 31.9a.5.5 0 0 1-.5-.44L13.59 7.31a.5.5 0 1 1 1-.12l2.93 24.15a.5.5 0 0 1-.43.56H17z" fill="#c6e3c2"/><path d="M15.13 44.46c4.5-1.32 5.31-12.06 1.81-24-2.57-8.73-6.76-15.68-10.58-18.24l3.24-1a6.89 6.89 0 0 1 7.76 3c4.28 7.47-1.33 20.91 2.77 25.6 1.7 2 5.08 4.63 5.87 7.3 1.25 4.24-1.74 6.77-6 8-3.27 1-6.32.87-8.12-1.16a4.26 4.26 0 0 0 3.25.5z" fill="#c6e3c2"/><path d="M16.32 46.71c-3.41 0-5.7-1.66-6.63-4.81-.65-2.2 0-5 .51-7.5.18-.82.35-1.6.44-2.24.35-2.39-1.44-4.78-3.7-7.8C4.1 20.56.56 15.84 0 9.07c-.27-3.64 1.53-6.49 4.7-7.42L9.32.31a7.94 7.94 0 0 1 8.91 3.39c2.34 4.08 1.92 9.73 1.56 14.71-.33 4.5-.64 8.74 1.09 10.72.43.49 1 1 1.59 1.65 1.8 1.79 3.84 3.83 4.49 6a6.23 6.23 0 0 1-1.13 6.06A11.26 11.26 0 0 1 20.3 46a14.26 14.26 0 0 1-3.98.71zM11.51 2a5.75 5.75 0 0 0-1.63.23L5.32 3.57C3 4.23 1.85 6.23 2 8.92c.46 6.18 3.66 10.46 6.49 14.23 2.44 3.26 4.55 6.08 4.08 9.29-.11.71-.28 1.52-.47 2.38-.47 2.14-1 4.8-.54 6.51a4.39 4.39 0 0 0 4.71 3.38 12.27 12.27 0 0 0 3.42-.55 9.48 9.48 0 0 0 4.57-2.57 4.21 4.21 0 0 0 .74-4.2c-.5-1.71-2.43-3.63-4-5.18-.62-.62-1.21-1.2-1.68-1.75-2.29-2.61-1.94-7.26-1.58-12.19s.73-10-1.3-13.57A5.75 5.75 0 0 0 11.51 2z" fill="#eef6ea"/><path d="M20.8 33a3.19 3.19 0 0 1-2.64-.12 15.33 15.33 0 0 0-2.52-1 4.07 4.07 0 0 0-1-.08c-1.16 2.34-3.38 5.64-3.38 8.27 0 4.42 3.58 6 8 6s8-1.58 8-6c0-2.78-2.48-6.31-3.57-8.66 0-.12-.1-.24-.14-.35a2.33 2.33 0 0 0-.85.3c-.7.37-1.14 1.21-1.9 1.64z" fill="#c6e3c2"/><path d="M27.28 6c-.63-2.93-2.63-5-5.62-5H16.9a6.89 6.89 0 0 0-6.62 5c-2 8.38 7.18 19.68 4.57 25.34l-.19.39a4.07 4.07 0 0 1 1 .08 15.33 15.33 0 0 1 2.52 1 3.19 3.19 0 0 0 2.64.12c.76-.39 1.19-1.24 1.92-1.68a2.33 2.33 0 0 1 .85-.3c-2.13-5.6 6.14-13.56 3.69-24.95z" fill="#83c882"/><path d="M20.28 32.5h-.06a.5.5 0 0 1-.43-.56l3-24a.5.5 0 0 1 1 .12l-3 24a.5.5 0 0 1-.51.44z" fill="#c6e3c2"/><path d="M19.28 32.5a.5.5 0 0 1-.5-.48l-1-24a.5.5 0 1 1 1 0l1 24a.5.5 0 0 1-.48.52z" fill="#c6e3c2"/><path d="M18.28 32.5a.5.5 0 0 1-.49-.42l-4-24a.51.51 0 0 1 1-.16l4 24a.5.5 0 0 1-.41.58h-.1z" fill="#c6e3c2"/><path d="M23.78 44c-4.69 0-8.5-10.07-8.5-22.5 0-9.12 2-17 5-20.5H16.9a6.89 6.89 0 0 0-6.62 5c-2 8.38 7.18 19.68 4.57 25.34-1.08 2.35-3.57 5.88-3.57 8.66 0 4.42 3.58 6 8 6 3.41 0 6.31-1 7.46-3.41A4.26 4.26 0 0 1 23.78 44z" fill="#c6e3c2"/><path d="M19.28 47c-5.72 0-9-2.55-9-7 0-2.3 1.38-4.82 2.6-7 .4-.74.79-1.43 1.06-2 1.1-2.39-.39-6.38-2-10.6-1.76-4.68-3.75-10-2.66-14.56A7.87 7.87 0 0 1 16.9 0h4.75c3.3 0 5.83 2.22 6.6 5.79 1.43 6.63-.63 12.21-2.25 16.6-1.32 3.54-2.36 6.34-1.35 8.53.27.59.66 1.29 1.06 2 1.22 2.23 2.6 4.75 2.6 7C28.28 44.45 25 47 19.28 47zM16.9 2a5.91 5.91 0 0 0-5.65 4.23c-.95 4 .85 8.76 2.58 13.39s3.38 9 1.92 12.14c-.3.66-.7 1.38-1.12 2.15-1 1.92-2.36 4.31-2.36 6.09 0 3.32 2.35 5 7 5s7-1.68 7-5c0-1.78-1.31-4.17-2.36-6.09-.42-.77-.82-1.49-1.12-2.15-1.36-3-.13-6.25 1.29-10.07 1.65-4.42 3.51-9.42 2.21-15.48C25.74 3.57 24 2 21.66 2z" fill="#eef6ea"/></g></g></g></svg>