<svg xmlns="http://www.w3.org/2000/svg" viewBox="0 0 293.6817321777344 202.82925415039062"><title>Depositphotos_66254275_03</title><g data-name="Layer 2"><path d="M273 65.5l-8 30.65-9.71 39-6.78 27.19c-.7 2.82-4.27 6.51-6.43 9l-.6.72a54.63 54.63 0 0 1-8.36 8.33c-16.58 13.1-40.88 18.33-61.32 20.89a207.37 207.37 0 0 1-21.23 1.53 194.88 194.88 0 0 0 20.43-1.57c19.85-2.55 43.43-7.79 59.52-20.89a53.85 53.85 0 0 0 8.11-8.33l.59-.72c2.1-2.49 5.56-6.19 6.24-9l6.58-27.19 9.42-39 7.77-30.65z" fill="#04a6b8"/><path d="M269.24 65.5l-7.77 30.65-9.42 39-6.58 27.19c-.68 2.82-4.14 6.51-6.24 9l-.59.72a53.85 53.85 0 0 1-8.11 8.33c-16.09 13.1-39.68 18.33-59.52 20.89a194.88 194.88 0 0 1-20.47 1.53h-9.22a194.81 194.81 0 0 1-20-1.45c-13.15-1.65-27.68-4-40.59-9.27a63.1 63.1 0 0 1-22-14.44c-4.58-4.79-9.75-10.74-12.82-16.7L40 136.54l-9.75-40.39-8.36-33c14.5 6.61 35.41 12 60.27 15.41a467.78 467.78 0 0 0 58.06 4.16h13.92a445 445 0 0 0 69.78-6.18c17.56-3.09 32.65-7.2 44.21-12v1z" fill="#0abfce"/><path d="M249.18 137.26a84.64 84.64 0 0 1-7.12 34l-.6.72a54.63 54.63 0 0 1-8.36 8.33c-7.1 5.69-15.7 9.86-24.76 12.99-12 4.16-24.91 6.48-36.56 7.94a209.58 209.58 0 0 1-25.91 1.58q-9.56 0-18.75-.82-3.3-.29-6.55-.68c-13.55-1.65-28.51-4-41.82-9.27a85.47 85.47 0 0 1 3.42-113.48c13.07 1.81 27.22 3.08 42.12 3.72 7.26.31 14.7.48 22.27.48a488.69 488.69 0 0 0 53.59-2.86c8.33-.92 16.29-2.06 23.79-3.38 15.67 15.96 25.24 37.29 25.24 60.73z" fill="#12d5df"/><path d="M226.1 140.85c0 20.4-6.77 38.9-17.76 52.44-12 4.16-24.91 6.48-36.56 7.94a209.58 209.58 0 0 1-25.91 1.58q-9.56 0-18.75-.82c-15.86-13.63-26.19-35.94-26.19-61.14 0-23.67 9.12-44.79 23.36-58.56 7.26.31 14.7.48 22.27.48a488.69 488.69 0 0 0 53.59-2.86c15.71 13.65 25.95 35.86 25.95 60.94z" fill="#1de9eb"/><path d="M141.31 202.77a207.26 207.26 0 0 1-20.74-1.45c-13.55-1.65-28.51-4-41.82-9.27-8.49-3.39-16.3-8-22.64-14.44-4.72-4.79-10-10.74-13.21-16.7l-6.07-24.36-10.07-40.4-9.16-35.08q2 1.06 4.29 2.09l8.36 33L40 136.54l5.89 24.36c3.08 6 8.24 11.91 12.82 16.7a63.1 63.1 0 0 0 22 14.44c12.91 5.31 27.44 7.63 40.59 9.27a194.81 194.81 0 0 0 20.01 1.46z" fill="#04a6b8"/><path d="M277.26 41.38a9.72 9.72 0 0 1-1 4.18c-2.12-4.72-7.7-9.27-16-13.42C236.59 23.08 196.66 17 151 16.56h-9.32c-48.21.35-90.19 7-113.6 16.79-7.06 3.82-11.81 8-13.74 12.22a9.77 9.77 0 0 1-1-4.18c0-5.76 5.3-11.4 14.7-16.48 23.47-9.8 65.35-16.43 113.44-16.8h9.79c45.54.46 85.36 6.54 109 15.58 10.81 5.4 16.99 11.48 16.99 17.69z" fill="#31e0dd"/><path d="M293.1 41.38c0 6.72-5.67 13.06-15.73 18.67q-1.65.92-3.45 1.81l-1.73.84q2.79-1.4 5.18-2.87c8.42-5.15 13.11-10.88 13.11-16.92 0-5.18-3.45-10.13-9.75-14.68q-1.57-1.13-3.36-2.23C254.59 12.07 204.53 2.39 146.44 2.39 84.17 2.39 31.12 13.51 11 29.07c-5.58 4.32-8.62 9-8.62 13.85 0 6.51 5.46 12.67 15.17 18.12C6.36 55.19 0 48.5 0 41.38c0-5 3.09-9.73 8.77-14.14C29.23 11.35 83.19 0 146.55 0c58 0 108.2 9.52 131.93 23.35a54.31 54.31 0 0 1 4.7 3 27.09 27.09 0 0 1 8.28 8.8 13.57 13.57 0 0 1 1.54 4.52 11.74 11.74 0 0 1 .1 1.71z" fill="#01899c"/><path d="M280.74 29.84C259.82 14.71 207.58 4 146.44 4 84.17 4 31.12 15.11 11 30.67c-5.27 4.08-8.28 8.47-8.59 13.05a9.78 9.78 0 0 0 .18 1.35c1.06 5.72 6.33 11.12 15 16 24.69 12.86 72.81 21.62 128.2 21.69h.76c2.89 0 5.78 0 8.63-.07 47-.77 88.14-7.81 113-18.2q2.06-.86 4-1.76h.08c2-1 3.77-2 5.44-3 7.26-4.5 11.69-9.42 12.63-14.61a9.65 9.65 0 0 0 .18-1.35c-.39-4.94-3.8-9.62-9.77-13.93zm2.18 13.83c0 .19 0 .37-.07.56-2.69 17.76-58 32.11-127.5 33.34-3.18.05-6.4.08-9.64.08h-.07c-74 0-134.25-14.84-137.08-33.41 0-.19-.05-.38-.07-.56s0-.53 0-.8c0-19.2 61.45-34.77 137.26-34.77S283 23.66 283 42.86a6.84 6.84 0 0 1-.08.8z" fill="#24d5d7"/><path d="M290.45 46.47c-.38 5.68-4.93 11.08-12.82 16-1.67 1-3.49 2-5.44 3h-.08q-1.92.89-4 1.76c-24.81 10.39-65.91 17.43-113 18.2-2.85 0-5.74.07-8.63.07h-.76C90.4 85.43 42.28 76.68 17.61 63.81 8.26 58.56 2.86 52.68 2.42 46.47a10.64 10.64 0 0 1 .18-1.4c1.06 5.72 6.33 11.12 15 16 24.68 12.86 72.8 21.62 128.19 21.69h.76c2.89 0 5.78 0 8.63-.07 47-.77 88.14-7.81 113-18.2q2.06-.86 4-1.76h.08c2-1 3.77-2 5.44-3 7.26-4.5 11.69-9.42 12.63-14.61a11.74 11.74 0 0 1 .12 1.35z" fill="#09becd"/><path d="M290.48 42.92v.8c-.33-4.89-3.74-9.57-9.72-13.89C259.83 14.71 207.58 4 146.44 4 84.17 4 31.12 15.11 11 30.67c-5.27 4.09-8.28 8.48-8.6 13.06v-.8c0-4.86 3-9.53 8.62-13.85C31.12 13.51 84.17 2.39 146.44 2.39c61.14 0 113.39 10.72 134.29 25.85 6.27 4.55 9.75 9.5 9.75 14.68z" fill="#18c1c8"/><path d="M283 42.86c0 19.2-61.45 34.77-137.26 34.77S8.44 62.07 8.44 42.86c0-6.57 7.2-12.72 19.71-18-9.4 5.08-14.7 10.73-14.7 16.48 0 19.2 59.06 32.38 131.9 32.38s131.9-13.17 131.9-32.38c0-6.21-6.18-12.3-17-17.68C274.6 29.2 283 35.78 283 42.86z" fill="#0995a5"/><path d="M276.29 45.56a11.71 11.71 0 0 1-.66 1.23c-2.5-4.26-7.8-8.37-15.38-12.14-23.67-9.06-63.63-15.15-109.31-15.59h-9.11c-48.24.34-90.26 7-113.67 16.79-6.37 3.43-10.85 7.15-13.08 10.94a12 12 0 0 1-.66-1.23c1.93-4.26 6.68-8.4 13.74-12.22 23.4-9.81 65.39-16.45 113.6-16.79h9.32c45.64.44 85.58 6.52 109.23 15.58 8.28 4.16 13.86 8.72 15.98 13.43z" fill="#0790a1"/><path d="M263 36.11c-6.93-.34-14-.56-21.29-.63h-9.11c-31.48.22-60.32 3.13-83.06 7.85l-2.68.57a192.07 192.07 0 0 0-20.22 5.48q-1.33.45-2.61.91-2.63.94-5 1.94h-.11c-.83.45-1.64.9-2.4 1.36-5.09 3-8.73 6.27-10.67 9.58 2.21 3.61 6.63 6.95 12.88 9.95a420.44 420.44 0 0 1-51.93-5.37l-2.89-.52a202.1 202.1 0 0 1-22.35-5.33q-1.52-.47-3-1-3.07-1-5.8-2.11-1.58-.63-3-1.29c-7.21-3.22-12.27-6.84-14.69-10.79 1.94-3.31 5.58-6.54 10.67-9.58.77-.46 1.57-.91 2.4-1.36h.11q2.38-1 5-1.94 1.27-.46 2.61-.91a192.15 192.15 0 0 1 20.22-5.48l2.68-.57c22.74-4.72 51.58-7.63 83.06-7.85h9.11c30.6.29 58.63 3.12 80.92 7.68l2.68.56a195.74 195.74 0 0 1 20.24 5.4c.89.29 1.76.59 2.61.9s1.93.69 2.86 1c.72.36 1.42.72 2.1 1.09z" fill="#16b7c1"/><path d="M275.63 46.79c-2.43 4-7.53 7.61-14.81 10.84q-1.46.65-3 1.28Q255 60 252 61q-1.45.48-3 1a202.17 202.17 0 0 1-22.35 5.32l-2.89.52c-20.95 3.65-46.65 5.76-74.53 5.94h-5.71c-8.48 0-16.75-.23-24.77-.6-6.26-3-10.67-6.34-12.88-9.95 1.94-3.31 5.58-6.54 10.67-9.58.77-.46 1.57-.91 2.4-1.36h.11q2.37-1 5-1.94 1.27-.46 2.61-.91a192.07 192.07 0 0 1 20.22-5.48l2.68-.57c22.74-4.72 51.58-7.63 83.06-7.85h9.11c7.26.07 14.37.28 21.29.63.63.35 1.24.7 1.83 1 5.15 3.04 8.83 6.28 10.78 9.62z" fill="#1fd0d4"/><path d="M151.27 8.12l-.21 7c-1.87-.07-3.81-.11-5.79-.11h-3.57l-.22-7h4.21z" fill="#63ffeb"/><path d="M155.34 78.66l-.16 3h-9.39l-.16-2.94h.07q4.86-.01 9.64-.06z" fill="#63ffeb"/><path d="M151 17.18l-.08 1.25h-9.11l-.08-1.25H151z" fill="#63ffeb"/><path d="M150.91 20.11l-.17 5.45-.15 5-1.35 43.23h-5.71l-1.34-43.18-.15-5-.18-5.61h3.41c1.93 0 3.81 0 5.64.11z" fill="#42fdec"/><path d="M234.54 27.3l-7.89 40-2.89.52 8.1-41.06z" fill="#42fdec"/><path d="M257.39 33.6L252 61c-1 .32-2 .64-3 1l5.77-29.27q1.34.41 2.62.87z" fill="#42fdec"/><path d="M264.86 37.15l-4 20.48q-1.46.65-3 1.28l4.57-23.17q1.23.69 2.43 1.41z" fill="#25d9da"/><path d="M66.83 67.79l-2.89-.52-7.85-39.8 2.68-.57z" fill="#42fdec"/><path d="M41.59 61.94q-1.52-.47-3-1l-5.33-27.08c.85-.31 1.72-.61 2.61-.91z" fill="#42fdec"/><path d="M32.81 58.87q-1.58-.63-3-1.29l-4-20.37c.77-.46 1.57-.91 2.4-1.36h.11z" fill="#25d9da"/><path d="M293.68 45.72c0 9.87-5.38 18.29-12.94 21.56a24.09 24.09 0 0 0 7.14-14.9c3.41-3.5 5.23-7.19 5.23-11a11.74 11.74 0 0 0-.13-1.72 26.39 26.39 0 0 1 .7 6.06z" fill="#00697b"/><path d="M287.87 52.38a24.09 24.09 0 0 1-7.14 14.9 17.92 17.92 0 0 1-3.36 1.07v-8.3l.66-.38.54-.31a43.84 43.84 0 0 0 9.3-6.98z" fill="#01899c"/><path d="M278 59.68l-.66.38v5.44h-9.23v-1l.72-.3.75-.32.64-.28.81-.36 1-.46h.14q2.9-1.46 5.38-3z" fill="#63ffeb"/></g></svg>