<svg xmlns="http://www.w3.org/2000/svg" viewBox="0 0 334.4700012207031 229.08999633789062"><title>Depositphotos_102668502_06</title><g data-name="Layer 2"><g data-name="Layer 1"><path fill="#242639" d="M42.51 190.48l6.99 2.04-1.9.56-46.59-13.63 3.79-1.11 13.02 3.8 8.54 2.5.49.15 7.84 2.29 7.82 2.29v1.11z"/><path fill="#212435" d="M49.5 192.52l-6.99-2.04v-9.01l6.99 2.05v9z"/><path fill="#1f2131" d="M49.39 205.96l-.06.48-4.34.28.4-3.37 1.7-.1.51.15 2.03.59-.24 1.97z"/><path fill="#1f2131" d="M47.09 203.25l-1.7.1-3.3-1.57 5 1.47z"/><path fill="#1f2131" d="M42.09 201.78l3.3 1.57-1.17 3.15-.03.07-3.83-1.82 1.17-3.13.56.16z"/><path fill="#1f2131" d="M52.62 204.87l-2.45 1.32-.3-2.13 2.75.81z"/><path fill="#202233" d="M49.87 204.06l.3 2.13-.78-.23.24-1.97.24.07z"/><path fill="#232537" d="M45.39 203.35l-.4 3.37-.77-.22 1.17-3.15z"/><path fill="#25273a" d="M41.53 201.62l-1.17 3.13-8.54-2.5.08-.21.04-.1 7.77 2.27 1.8-2.6.02.01z"/><path fill="#1f2131" d="M31.94 201.94l-.04.1-.22-.18.26.08z"/><path fill="#1b1d2c" d="M31.82 202.25l8.54 2.5 3.83 1.82-8.54-2.5-.82-.39-.84-.4-.69-.33-.75-.35-.73-.35z"/><path fill="#1f2131" d="M33.99 203.28l.84.4-.9-.18.06-.22z"/><path fill="#1f2131" d="M32.55 202.6l.75.35-.1.19-.65-.54z"/><path fill="#242639" d="M33.3 202.95l.69.33-.06.22-8.54-2.5.04-.13 7.77 2.27.1-.19z"/><path fill="#1f2131" d="M41.51 201.61l-1.8 2.6-2.85-3.7.14-.21 4.51 1.31z"/><path fill="#26283c" d="M37 200.3l-.14.21-8.54-2.5.11-.17.03-.04 8.54 2.5z"/><path fill="#1f2131" d="M28.46 197.8l-.03.04-.02-.06.05.02z"/><path fill="#1b1d2c" d="M28.32 198.01l8.54 2.5 2.85 3.7-7.77-2.27-.26-.08-.51-.15-.62-.8-.62-.81-.51-.66-.56-.72-.54-.71z"/><path fill="#1f2131" d="M29.93 200.1l.62.81-.72-.61.1-.2z"/><path fill="#1f2131" d="M28.86 198.72l.56.72-.13.15-.43-.87z"/><path fill="#1b1d2c" d="M30.55 200.91l.62.8.51.15.22.18-.08.21.73.35.65.54-7.77-2.27-.77-.23-3.37-2.84 8.54 2.5.72.61z"/><path fill="#1b1d2c" d="M22.45 172.25l-1.16-1.53 8.54 2.5.1.13-.51.97-.13-.07-6.84-2z"/><path fill="#25273a" d="M22.45 172.25l6.84 2-.48 1.25-.6 1.17.12.1-.4 1.04-.14-.03-.29 1.16-.42 1.11-8.54-2.5 2.21-5.8 1.7.5z"/><path fill="#25283b" d="M28.21 176.67l.6-1.17.61-1.18.51-.97.53-1.03 4.23 1.24v5l-6.48-1.89z"/><path fill="#1f2131" d="M30.46 172.32l-.53 1.03-.1-.13.63-.9z"/><path fill="#1f2131" d="M29.42 174.32l-.61 1.18.48-1.25.13.07z"/><path fill="#1b1d2c" d="M28.21 176.67l6.48 1.89v1l-4.61-1.34-1.75-1.45-.12-.1z"/><path fill="#212335" d="M30.08 178.22l4.61 1.34v.24l-6.9-2.02.14.03 2.15.41z"/><path fill="#1f2131" d="M30.08 178.22l-2.15-.41.4-1.04 1.75 1.45z"/><path fill="#242639" d="M27.79 177.78l6.9 2.02v6.48l-6.49-1.9-1.74-.51-.15-.05.32-1.3.32-1.32.18-.72.09-.36.28-1.18.29-1.16z"/><path fill="#1f2131" d="M27.5 178.94l-.28 1.18-.14-.07.42-1.11z"/><path fill="#1f2131" d="M26.95 181.2l-.32 1.32.17-1.31.15-.01z"/><path fill="#232537" d="M26.63 182.52l-.32 1.3.15.05-.1.77-8.54-2.5.43-3.43 8.55 2.5-.17 1.31z"/><path fill="#242639" d="M28.2 184.38l6.49 1.9v.8l-7.84-2.29 1.35-.41z"/><path fill="#1f2131" d="M28.2 184.38l-1.35.41-.49-.15.1-.77 1.74.51z"/><path fill="#1b1d2c" d="M27.08 180.05l.14.07-.09.36-6.48-1.9-2.11-1.03 8.54 2.5z"/><path fill="#26283c" d="M30.46 172.32l-.63.9-8.54-2.5.63-.9 8.54 2.5z"/><path fill="#25283b" d="M29.93 200.1l-.1.2-8.54-2.5.25-.48 7.75 2.27.13-.15.51.66z"/><path fill="#1d1e2d" d="M21.54 197.32l-.79-.23-.89-1.81 8.55 2.5.02.06-.11.17.54.71.43.87-7.75-2.27z"/><path fill="#222537" d="M18.25 178.71l2.4-.13 6.48 1.9-.18.72-.15.01-8.55-2.5z"/><path fill="#bad5e7" d="M252.3 51.96l31.63 2.3-35.35 10.34-1.4-4.26-5.85-5.17 10.97-3.21z"/><path fill="#c0dbee" d="M248.58 64.6l35.35-10.34 27.4 14.97-35.6 10.41v-11.4l-5.82-2.95-2.42.41v14.03l-9.04 1.41-6.34-5.78-3.53-10.76z"/><path fill="#1b1d2c" d="M280.75 168.69l-.77-.23-2.86-3.7 8.54 2.5.55.71.42.86.32.1.33.42-.1.2.72.61.62.8-7.77-2.27z"/><path fill="#1f2131" d="M293.02 173.26l-.02.06-.38-.18.4.12z"/><path fill="#25273a" d="M280.63 169l.12-.31 7.77 2.27.12-.18.61.51-.08.21-8.54-2.5z"/><path fill="#1f2131" d="M289.17 171.5l.08-.21.65.56-.73-.35z"/><path fill="#1b1d2c" d="M289.9 171.85l-.65-.56-.61-.51-.74-.62-.72-.61 8.53 2.5 3.38 2.84-7.78-2.28-.76-.22-.65-.54z"/><path fill="#1f2131" d="M287.9 170.16l.74.62-.12.18-.62-.8z"/><path fill="#1b1d2c" d="M280.63 169l8.54 2.5.73.35.65.54.76.22-.03.14 1.34.39.38.18-8.54-2.5-3.83-1.82z"/><path fill="#26283c" d="M277.12 164.76l.43-.61 7.69 2.25.15-.12.39.81-.12.17-8.54-2.5z"/><path fill="#1f2131" d="M285.66 167.26l.12-.17.43.88-.55-.71z"/><path fill="#1d1e2d" d="M286.21 167.97l-.43-.88-.39-.81-.49-.99-.47-.97 8.54 2.5 2.2 4.51-7.74-2.26-.48-.14-.32-.1-.42-.86z"/><path fill="#1f2131" d="M284.9 165.29l.49.99-.15.12-.34-1.11z"/><path fill="#1f2131" d="M287.28 169.35l-.33-.42.48.14-.15.28z"/><path fill="#1e2030" d="M277.55 164.15l-.56-.16 1.77-.52 5.15-1.51.09.29.14 1.08.19.06.24.78-.14.15.47.97.34 1.11-7.69-2.25z"/><path fill="#1f2131" d="M284.57 164.17l-.24-.78.76.22-.52.56z"/><path fill="#1f2131" d="M284 162.25l-.09-.29.04-.01.05.3z"/><path fill="#202233" d="M284 162.25l-.05-.3 5.45-1.6.14-.86 2.38.7.76 5.64-7.59-2.22-.76-.22-.19-.06-.14-1.08z"/><path fill="#1f2131" d="M321.94 149.29l.13.93-1.39.74-1.01.54-.76-5.64 2.39-1.28.64 4.71z"/><path d="M318.91 145.86l.76 5.64-.76 6.09-2.2 5.8-3.37 4.81-4.14 3.25-4.4 1.29-4.14-.83-3.37-2.84-2.2-4.51-.76-5.64.76-6.09 2.2-5.8 3.37-4.81 4.14-3.25 4.4-1.29 4.14.83 3.37 2.84zm-16.73 19.74l.56.47.1.08 2.71.54 2.89-.84 2.71-2.13 2.21-3.16 1.44-3.8.5-4-.5-3.7-1.44-3-2.21-1.86-.58-.12h-.14l-2-.4-.89.26-2 .59-.84.66-1.87 1.47-.56.8-1.65 2.36-.19.5-1.22 3.2v.1l-.41 3.28-.09.71.36 2.66.14 1 1 2 .45.93z" fill="#1f2131"/><path fill="#1f2131" d="M297.28 147.03l-2.2 5.8-2.11-1.03 2.2-5.8 2.11 1.03z"/><path fill="#1f2131" d="M300.65 142.21l-3.37 4.82-1.57-2.07 3.38-4.81 1.56 2.06z"/><path fill="#1f2131" d="M304.79 138.96l-4.14 3.25-.83-2.85 4.14-3.24.83 2.84z"/><path fill="#1f2131" d="M309.19 137.68l-4.4 1.28v-3.29l4.4-1.29v3.3z"/><path fill="#242639" d="M309.19 134.38l-4.4 1.29-3.34-.98 1.63-1.53.96-.28 5.15 1.5z"/><path fill="#212435" d="M301.45 134.69l3.34.98v3.29l-.83-2.84-3.07-.9.56-.53z"/><path fill="#242639" d="M309.19 137.68v-3.3l-5.15-1.5.49-.15 5.5 1.61-.84 3.34z"/><path fill="#1f2131" d="M309.19 137.68l.84-3.34 4.14.83-.04.13-.8 3.2-4.14-.82z"/><path fill="#25283b" d="M313.33 138.5l.8-3.2.77.22-1.57 2.98z"/><path fill="#1f2131" d="M313.33 138.5l1.57-2.98 3.37 2.84-.25.48-1.31 2.5-3.38-2.84z"/><path fill="#26283c" d="M316.71 141.34l1.31-2.49.79.23-2.1 2.26z"/><path fill="#1b1d2c" d="M314.9 135.52l-.77-.22.04-.13-8.54-2.5-.52-.11 5-1.46 7.85 2.3 4.88 6.85-4.82-1.41.25-.48-3.37-2.84z"/><path fill="#212335" d="M305.11 132.56l.52.11 8.54 2.5-4.14-.83-5.5-1.61.58-.17z"/><path fill="#1f2131" d="M316.71 141.34l2.1-2.26 2.2 4.51-.66.72-1.44 1.55-2.2-4.52z"/><path fill="#25273a" d="M318.91 145.86l1.44-1.55.95.27-2.39 1.28z"/><path fill="#1f2131" d="M318.91 157.59l.76-6.09 2.4-.13-.77 6.09-2.39.13z"/><path fill="#1f2131" d="M316.71 163.39l2.2-5.8 2.1 1.02-2.2 5.8-2.1-1.02z"/><path fill="#1f2131" d="M313.33 168.2l3.38-4.81.4.53 1.16 1.53-3.37 4.81-1.57-2.06z"/><path fill="#1f2131" d="M309.19 171.45l4.14-3.25.52 1.76.32 1.09-4.14 3.25-.84-2.85z"/><path fill="#1f2131" d="M304.79 172.74l4.4-1.29v3.29l-4.4 1.29v-3.29z"/><path fill="#1f2131" d="M300.65 171.91l4.14.83-.76 3.06-.07.27-4.14-.82.83-3.34z"/><path fill="#1f2131" d="M297.28 169.07l3.37 2.84-1.56 2.98-3.38-2.84 1.57-2.98z"/><path fill="#1f2131" d="M295.08 164.56l2.2 4.51-2.11 2.26-2.2-4.51 2.11-2.26z"/><path fill="#1f2131" d="M294.31 158.91l.77 5.65-2.4 1.27-.76-5.64 2.39-1.28z"/><path fill="#1f2131" d="M295.08 152.83l-.77 6.08-2.39.13.76-6.08 2.4-.13z"/><path fill="#1b1d2c" d="M295.71 144.96l1.57 2.07-2.11-1.03-1.97-.58.53-1.04 1.98.58z"/><path fill="#1e2030" d="M300.65 142.21l-1.56-2.06-2.61-.77.81-.76 2.53.74.83 2.85z"/><path fill="#26283c" d="M296.48 139.38l2.61.77-3.38 4.81-1.98-.58 2.29-4.57.46-.43z"/><path fill="#1b1d2c" d="M292.97 151.8l2.11 1.03-4.27-1.25.07-.39 2.09.61z"/><path fill="#25273a" d="M292.97 151.8l-2.09-.61.26-1.67 2.06-4.1 1.97.58-2.2 5.8z"/><path fill="#25283b" d="M300.89 135.22l3.07.9-4.14 3.24-2.53-.74 3.6-3.4z"/><path fill="#222537" d="M320.68 150.96l1.39.41-2.4.13 1.01-.54z"/><path fill="#1e2030" d="M309.19 171.45l.84 2.85-.84-.25v-2.6z"/><path fill="#202232" d="M318.81 139.08l-.79-.23 4.82 1.4 1.74 9.81-2.64-.77-.64-4.71-.95-.27.66-.72-2.2-4.51z"/><path fill="#212435" d="M304.79 172.74v3.29l-.76-.23.76-3.06z"/><path fill="#242639" d="M291.28 172.75l.03-.14 7.78 2.28 1.56-2.98-.83 3.34-6.8-1.99-.4-.12-1.34-.39z"/><path fill="#1b1d2c" d="M314.9 170.26l-1.05-.3-.52-1.76 1.57 2.06z"/><path fill="#1b1d2c" d="M316.71 163.39l2.1 1.02-1.7-.49-.4-.53z"/><path fill="#25283b" d="M287.28 169.35l.15-.28 7.74 2.26 2.11-2.26-1.57 2.98-8.53-2.5.1-.2z"/><path fill="#26283c" d="M284.57 164.17l.52-.56 7.59 2.22 2.4-1.27-2.11 2.26-8.54-2.5.14-.15z"/><path fill="#222537" d="M295.08 152.83l-2.4.13-2-.59.13-.79 4.27 1.25z"/><path d="M290.81 151.58l-.13.79-1 6-.18 1.09-.14.86-5.36 1.63-5.15 1.51.48-3 5.38-33.66 3-4.11 40.8-11.94v26.35l-1.91.56v11.84l-1.91.56-1.74-9.81-4.95-6.85-7.05-2.53-.8.23-5 1.46-.57.17-.49.14-1 .28-1.63 1.54-.55.52-3.61 3.4-.81.76-.46.43-2.3 4.57-.52 1-2.06 4.1-.27 1.66zm-2.13-17.46l10-2.92v-5.9l-10 2.92z" fill="#bacad9"/><path fill="#b0c8dc" d="M326.5 137.67l1.91-.56v-2.81l6.06 1.78-6.71 1.96-1.26-.37z"/><path fill="#a5bccf" d="M326.5 149.5v-11.83l1.26.37v11.83l-1.26-.37z"/><path fill="#25273a" d="M291.92 159.04l2.39-.13-2.39 1.28-2.38-.7.17-1.09 2.21.64z"/><path fill="#232537" d="M292.68 152.96l-.76 6.08-2.21-.64.97-6.03 2 .59z"/><path fill="#3b3d50" d="M276.99 163.99l-47.09 13.77v-2.86l49.34-14.43-.48 3-1.77.52z"/><path fill="#1b1d2c" d="M317.96 133.4l-7.85-2.3.8-.23 7.05 2.53z"/><path fill="#d6e9f9" d="M311.33 105.77l17.08 4.99-40.8 11.94-17.08-5 40.8-11.93z"/><path fill="#bacad9" d="M311.33 105.77l-40.8 11.93-2.99 4.11-.82 5.11-40.04 11.72v-5.25l28.29-8.28V85.72l6.43-1.89 1.65 5.24-4.1 4.21v1.65l.99-.01 3.77-3.86 5.23-1.53 4.38 2.22 2.41-.41v-3.8l35.6-10.41v28.64z"/><path fill="#3d3e51" d="M259.94 94.92l-.99.01 8.54-8.75v1l-3.78 3.88-3.77 3.86z"/><path fill="#484a60" d="M258.95 94.93v-1.65l4.1-4.21 4.44-4.55v1.66l-8.54 8.75z"/><path fill="#404256" d="M229.9 174.9v2.86l-3.38-.99v-2.86l3.38.99z"/><path fill="#4f516a" d="M279.24 160.47L229.9 174.9l-3.38-.99v-.34l.86-.25v-2.12l3.48 1.02 37.09-10.85v-4.21l11.29 3.31z"/><path fill="#d3e6f6" d="M279.24 160.47l-11.29-3.31v-4.36l-5.13-1.5 3.9-24.38.82-5.11 17.08 5-5.38 33.66z"/><path fill="#e2f6ff" d="M284.62 126.81l-17.08-5 2.99-4.11 17.08 5-2.99 4.11z"/><path fill="#99aebf" d="M334.47 147.91l-6.71 1.96v-11.83l6.71-1.96v11.83z"/><path fill="#404256" d="M174.71 194.48l-1.41-.41 1.35-.72-.77-5.64-.95-.28.66-.71-2.2-4.51-.79-.24.25-.48-3.37-2.84-.77-.22.03-.14-8.54-2.5-.57-.11V173l10-2.93 7.08 2.08v22.33z"/><path fill="#212435" d="M174.71 172.15l-7.08-2.08 7.08-2.07v4.15z"/><path fill="#212435" d="M174.71 172.15V168l.85-.25v32.12l-.85-.25v-27.47z"/><path fill="#1f2131" d="M157.63 173v2.68l-.32-.06-.82-.4-3.23-.94 4.37-1.28z"/><path d="M52.62 204.86l-2.75-.8-.25-.07-2-.59v-10.32l46.6 13.63V217zm33.51 8.82l4.68 1.37 1.72-.5v-6.33l-4.68-1.37-4.68-1.37-4.68-1.37-1.72.5v6.33l4.68 1.37z" fill="#212435"/><path fill="#1f2131" d="M94.2 217.03v-10.32l3.8-1.11v10.32l-2.61.76-1.19.35z"/><path fill="#1e2030" d="M98 215.92v-2.94l4.47 1.3.29.99.15 1.08.19.06.23.78-.14.15.48.97.33 1.11-7.69-2.25-.85-.25-.07-.24 2.61-.76z"/><path fill="#242639" d="M98 205.6l-3.8 1.11-46.6-13.63 1.9-.56 6.99 2.05 1.9-.56 12.81 3.75 22.52 6.59.7.2L98 205.6z"/><path fill="#212435" d="M56.49 194.57l-6.99-2.05v-9l6.99 2.04v9.01z"/><path fill="#1f2131" d="M58.39 194.01l-1.9.56v-9.01l9.62-2.81 5.09 1.49v13.52l-12.81-3.75z"/><path fill="#242639" d="M66.11 182.75l-9.62 2.81-6.99-2.04 9.62-2.82 6.99 2.05z"/><path fill="#212435" d="M71.2 197.76v-13.52l22.52 6.59v13.52l-22.52-6.59z"/><path fill="#1f2131" d="M93.72 204.35v-13.52l1.49.43 4.03-1.18.64 1.32-1.3-.37-2.8 5.4 1.87 1.55-2.29-.43-1.48 6.04 1.9.56-1.36.4-.7-.2z"/><path fill="#1f2131" d="M156.49 175.22l.82.4-.9-.18.08-.22z"/><path fill="#212335" d="M156.41 175.44l.9.18.32.06.57.11 8.54 2.5-4.13-.82-8.54-2.5.79.16.81.16.74.15z"/><path fill="#1f2131" d="M155.67 175.29l-.81-.16.83-.06-.02.22z"/><path fill="#232537" d="M155.69 175.07l-.83.06-.79-.16-.06.21-.17.01-.61-.18-.95.28-.93.06-.88-.26 2.65-.77 2.57.75z"/><path fill="#1f2131" d="M151.35 175.35l.93-.06-.96.28.03-.22z"/><path fill="#242639" d="M151.32 175.57l.96-.28.95-.28.61.18.16.05 7.77 2.27-4.4 1.29-8.54-2.5.84-.25.86-.25.79-.23z"/><path fill="#1f2131" d="M150.53 175.8l-.86.25.83-.45.03.2z"/><path fill="#1f2131" d="M153.84 175.19l.17-.01-.01.06-.16-.05z"/><path fill="#232537" d="M150.47 175.09l.88.26-.03.22-.79.23-.03-.2-.88-.26.85-.25z"/><path fill="#25273a" d="M156.49 175.22l-.08.22-.74-.15.02-.22-2.57-.75.14-.04 3.23.94z"/><path fill="#25273a" d="M149.62 175.34l.88.26-.83.45-.84.25v.21l-.57.31-.26-.08-.89.7-.94.51-.54-.16v-1.28l3.99-1.17z"/><path fill="#1f2131" d="M146.17 177.95l.94-.51-.91.71-.03-.2z"/><path fill="#202233" d="M146.17 177.95l.03.2-.57.45v-.81l.54.16z"/><path fill="#1f2131" d="M148.26 176.82l.57-.31v.48l-.57-.17z"/><path fill="#1f2131" d="M145.6 216.38l-.02.06-.38-.17.4.11z"/><path fill="#1b1d2c" d="M145.2 216.27l.38.17-6.86-2 .24-.63 2.79.81.73.35.65.55.76.22-.03.13 1.34.4z"/><path fill="#25273a" d="M141.75 214.62l-2.79-.81.11-.32 2.03.6.12-.18.6.51-.07.2z"/><path fill="#1f2131" d="M141.75 214.62l.07-.2.66.55-.73-.35z"/><path fill="#1b1d2c" d="M142.48 214.97l-.66-.55-.6-.51-.74-.62-.73-.61 8.54 2.49 3.38 2.84-7.78-2.27-.76-.22-.65-.55z"/><path fill="#1f2131" d="M140.48 213.29l.74.62-.12.18-.62-.8z"/><path fill="#1b1d2c" d="M140.48 213.29l.62.8-2.03-.6.52-1.36.27.35-.11.2.73.61z"/><path fill="#1f2131" d="M139.86 212.48l-.27-.35.02-.05.4.11-.15.29z"/><path fill="#212435" d="M148.83 176.3l8.54 2.5v3.29l-.83-2.85-7.71-2.25v-.69z"/><path fill="#1f2131" d="M157.37 178.8l4.4-1.29v3.29l-4.4 1.29v-3.29z"/><path fill="#25283b" d="M166.71 178.43l.77.22-1.57 2.98.8-3.2z"/><path fill="#1f2131" d="M165.91 181.63l1.57-2.98 3.37 2.84-.25.48-1.32 2.5-3.37-2.84z"/><path fill="#26283c" d="M169.28 184.47l1.32-2.5.79.24-2.11 2.26z"/><path fill="#242639" d="M154 175.24l.01-.06.06-.21 8.54 2.5-.84 3.33v-3.29l-7.77-2.27z"/><path fill="#1f2131" d="M166.71 178.43l-.8 3.2-4.14-.83.84-3.33 4.13.82-.03.14z"/><path fill="#1f2131" d="M169.28 184.47l2.11-2.26 2.2 4.51-.66.71-1.44 1.55-2.21-4.51z"/><path fill="#25273a" d="M171.49 188.98l1.44-1.55.95.28-2.39 1.27z"/><path d="M157.37 182.09l4.4-1.29 4.14.83 3.37 2.84 2.2 4.51.76 5.64-.76 6.09-2.2 5.8-3.37 4.81-4.14 3.25-4.4 1.29-4.14-.83-3.37-2.84-2.2-4.51-.76-5.64.76-6.09 2.2-5.8 3.37-4.81zm-2.61 26.64l.56.47.1.08 2.71.54L161 209l2.71-2.13 2.21-3.16 1.44-3.8.5-4-.5-3.7-1.44-3-2.21-1.86-.58-.12h-.14l-2-.4-.89.26-2 .59-.84.66-1.87 1.47-.56.8-1.62 2.39-.19.5-1.22 3.2v.1l-.41 3.28-.09.71.36 2.66.14 1 1 2 .45.93z" fill="#1f2131"/><path fill="#1f2131" d="M149.86 190.15l-2.2 5.8-2.11-1.03 2.2-5.8 2.11 1.03z"/><path fill="#1f2131" d="M153.23 185.34l-3.37 4.81-1.57-2.06 3.38-4.82 1.56 2.07z"/><path fill="#1f2131" d="M157.37 182.09l-4.14 3.25-.83-2.85 4.14-3.25.83 2.85z"/><path fill="#1f2131" d="M172.25 194.62l-.76-5.64 2.39-1.27.77 5.64-1.35.72-.04.02-1.01.53z"/><path fill="#1f2131" d="M171.49 200.71l.76-6.09 2.4-.13-.77 6.09-2.39.13z"/><path fill="#1f2131" d="M169.28 206.51l2.21-5.8 2.1 1.03-2.2 5.8-2.11-1.03z"/><path fill="#1f2131" d="M165.91 211.33l3.37-4.82.41.53 1.16 1.54-3.37 4.81-1.57-2.06z"/><path fill="#1f2131" d="M161.77 214.57l4.14-3.24.52 1.75.31 1.1-4.13 3.24-.84-2.85z"/><path fill="#1f2131" d="M157.37 215.86l4.4-1.29v3.3l-4.4 1.28v-3.29z"/><path fill="#1f2131" d="M153.23 215.04l4.14.82-.77 3.07-.06.27-4.14-.83.83-3.33z"/><path fill="#1f2131" d="M149.86 212.2l3.37 2.84-1.56 2.97-3.38-2.84 1.57-2.97z"/><path fill="#1f2131" d="M147.66 207.68l2.2 4.52-2.11 2.26-2.2-4.52 2.11-2.26z"/><path fill="#1f2131" d="M146.89 202.04l.77 5.64-2.4 1.28-.76-5.65 2.39-1.27z"/><path fill="#1f2131" d="M147.66 195.95l-.77 6.09-2.39.13.76-6.09 2.4-.13z"/><path fill="#1b1d2c" d="M148.29 188.09l1.57 2.06-2.11-1.03-6.83-2-1.07-1.4-.1-.13 8.54 2.5z"/><path fill="#1f2131" d="M139.85 185.72l1.07 1.4-1.56-.45.49-.95z"/><path fill="#25283b" d="M139.85 185.72l-.49.95-.15-.04-.47 1.25-.61 1.16-8.54-2.5 2.81-5.41 1.29.38 7.25 2.12-.54 1.04-.65.92.1.13z"/><path fill="#1c1e2d" d="M140.94 183.63l-7.25-2.12-.57-1.15 6.76 1.98.23-.07 1.47.43.08.17-.6.86-.12-.1z"/><path fill="#1f2131" d="M141.66 182.87l-.08-.17.82-.89-.74 1.06z"/><path fill="#26283c" d="M141.66 182.87l.74-1.06.19-.27 1.58-.46 7.5 2.19-3.38 4.82-8.54-2.5.65-.92.66-.94.6-.86z"/><path fill="#1f2131" d="M133.12 180.36l.57 1.15-1.29-.38-2.81 5.41 1.25 1.03-6.45-1.88-.89-.18-.83-.39-3.23-.95 13.36-3.91.32.1z"/><path fill="#1f2131" d="M140.94 183.63l.12.1-.66.94.54-1.04z"/><path fill="#1b1d2c" d="M129.59 186.54l8.54 2.5.13.1-.32.84-3.93-1.14-.35-.3-.76-.22.03-.13-2.09-.62-1.25-1.03z"/><path fill="#1f2131" d="M138.26 189.14l-.13-.1.61-1.16-.48 1.26z"/><path fill="#25273a" d="M138.26 189.14l.48-1.26.47-1.25.15.04 1.56.45 6.83 2-2.2 5.8-7.69-2.25-.28-.57-.4-.12.25-.67.43-1.13.08-.2.32-.84z"/><path fill="#26283c" d="M142.4 181.81l-.82.89-1.47-.43 2.48-.73-.19.27z"/><path fill="#212335" d="M134.01 188.84l3.93 1.14-.08.2-.14-.02-3.28-.96-.43-.36z"/><path fill="#242639" d="M134.44 189.2l3.28.96-.29 1.15-.25.67-.4-.11.25-.49-2.59-2.18z"/><path fill="#1f2131" d="M137.43 191.31l.29-1.15.14.02-.43 1.13z"/><path fill="#1e2030" d="M153.23 185.34l-1.56-2.07-7.49-2.19 1.45-.43v-.14l6.77 1.98.83 2.85z"/><path fill="#1b1d2c" d="M137.86 192.67l7.69 2.25 2.11 1.03-8.54-2.49-1.15-.57-.11-.22z"/><path fill="#1f2131" d="M137.97 192.89l1.15.57-.86.04-.29-.61z"/><path fill="#25283b" d="M148 176.74l.26.08.57.17 7.71 2.25-4.14 3.25-6.77-1.98v-1.91l.57-.45.91-.71.89-.7z"/><path fill="#242639" d="M145.2 216.27l-1.34-.4.03-.13 7.78 2.27 1.56-2.97-.83 3.33-6.8-1.99-.4-.11z"/><path fill="#222537" d="M173.26 194.09l1.39.4-2.4.13 1.01-.53z"/><path fill="#1e2030" d="M161.77 214.57l.84 2.85-.84-.24v-2.61z"/><path fill="#212435" d="M157.37 215.86v3.29l-.77-.22.77-3.07z"/><path fill="#1b1d2c" d="M167.48 213.39l-1.05-.31-.52-1.75 1.57 2.06z"/><path fill="#1b1d2c" d="M169.28 206.51l2.11 1.03-1.7-.5-.41-.53z"/><path fill="#25283b" d="M139.86 212.48l.15-.29 7.74 2.27 2.11-2.26-1.57 2.97-8.54-2.49.11-.2z"/><path fill="#26283c" d="M147.66 207.68l-2.11 2.26-5.22-1.52.11-.88 4.82 1.42 2.4-1.28z"/><path fill="#1d1e2d" d="M140.33 208.42l5.22 1.52 2.2 4.52-7.74-2.27-.4-.11.17-.45-.96-.46-.03-.08-.26-.53 1.54-.09.26-2.05z"/><path fill="#1f2131" d="M138.53 210.56l.26.53-.41-.53h.15z"/><path fill="#1b1d2c" d="M138.38 210.56l.41.53.03.08-1.15-.57.71-.04z"/><path fill="#222537" d="M147.66 195.95l-2.4.13-6.69-1.96-.31-.62.86-.04 8.54 2.49z"/><path fill="#25273a" d="M144.5 202.17l2.39-.13-2.39 1.27-3.81-1.11-.16-1.19 3.97 1.16z"/><path fill="#232537" d="M145.26 196.08l-.76 6.09-3.97-1.16-.46-3.41-.95-.28.66-.71-1.21-2.49 6.69 1.96z"/><path fill="#202233" d="M140.69 202.2l3.81 1.11.76 5.65-4.82-1.42.39-3.15-1.38-.41 1.38-.74-.14-1.04z"/><path fill="#1f2131" d="M122.67 185.12l.83.39-.91-.18.08-.21z"/><path fill="#212335" d="M122.59 185.33l.91.18.89.18 6.45 1.88 2.09.62-4.14-.83-8.54-2.5.8.16.8.16.74.15z"/><path fill="#1f2131" d="M121.85 185.18l-.8-.16.83-.05-.03.21z"/><path fill="#232537" d="M121.88 184.97l-.83.05-.8-.16-.05.21-.17.01-.61-.17-.95.27-.94.06-.87-.25 2.64-.78 2.58.76z"/><path fill="#1f2131" d="M117.53 185.24l.94-.06-.96.28.02-.22z"/><path fill="#242639" d="M117.51 185.46l.96-.28.95-.27.61.17.16.05 7.77 2.27-4.4 1.29-8.54-2.5.84-.24.86-.26.79-.23z"/><path fill="#1f2131" d="M116.72 185.69l-.86.26.83-.45.03.19z"/><path fill="#232537" d="M117.51 185.46l-.79.23-.03-.19-.89-.26.86-.25.87.25-.02.22z"/><path fill="#1f2131" d="M120.03 185.08l.17-.01-.01.06-.16-.05z"/><path fill="#25273a" d="M122.67 185.12l-.08.21-.74-.15.03-.21-2.58-.76.14-.04 3.23.95z"/><path fill="#1c1e2d" d="M99.88 191.4l-.65-1.3 8.54 2.49.08.17-.61.86-.11-.1-7.25-2.12z"/><path fill="#25283b" d="M99.88 191.4l7.25 2.12-.54 1.04-.65.92.1.13-.49.95-.15-.04-.48 1.25-.6 1.16-8.54-2.5 2.8-5.4 1.3.37z"/><path fill="#1f2131" d="M107.85 192.76l-.08-.17.82-.88-.74 1.05z"/><path fill="#26283c" d="M107.85 192.76l.74-1.05.72-1.04.18.05.87.26 7.49 2.19-3.37 4.81-8.54-2.5.65-.92.65-.94.61-.86z"/><path fill="#1f2131" d="M107.13 193.52l.11.1-.65.94.54-1.04z"/><path fill="#1b1d2c" d="M95.78 196.43l8.54 2.5.12.1-.32.85-6.47-1.9-1.87-1.55z"/><path fill="#1f2131" d="M104.44 199.03l-.12-.1.6-1.16-.48 1.26z"/><path fill="#25273a" d="M104.44 199.03l.48-1.26.48-1.25.15.04 1.55.46 6.84 2-2.21 5.8-8.54-2.5.43-1.11.43-1.13.07-.2.32-.85z"/><path fill="#1f2131" d="M104.05 200.08l-.43 1.13.28-1.16.15.03z"/><path fill="#26283c" d="M108.59 191.71l-.82.88-8.54-2.49 8.93-2.63 3.41 1-.73.79-.79.62.05.18-.61.66-.18-.05-.72 1.04z"/><path fill="#202233" d="M111.57 188.47l-3.41-1 1.47-.43 2.73.8.03.2-.75.59-.07-.16z"/><path fill="#1f2131" d="M109.49 190.72l.61-.66.26.92-.87-.26z"/><path fill="#1f2131" d="M110.84 189.26l.73-.79.07.16-.8.63z"/><path fill="#25283b" d="M110.84 189.26l.8-.63.75-.59.9-.7.89-.71.26.08.58.17 7.7 2.25-4.14 3.25-8.53-2.5.79-.62z"/><path fill="#1f2131" d="M112.39 188.04l-.03-.2.93-.5-.9.7z"/><path fill="#1f2131" d="M105.55 196.56l.49-.95 1.06 1.41-1.55-.46z"/><path fill="#25273a" d="M115.8 185.24l.89.26-.83.45-.84.24v.21l-.58.31-.26-.08-.89.71-.93.5-2.73-.8 6.17-1.8z"/><path fill="#1f2131" d="M114.44 186.71l.58-.31v.48l-.58-.17z"/><path fill="#1b1d2c" d="M99.51 221.7l-.77-.22-2.85-3.7 8.54 2.5.54.71.43.86.31.09.33.43-.1.2.73.61.61.8-7.77-2.28z"/><path fill="#1f2131" d="M111.78 226.28l-.02.06-.37-.18.39.12z"/><path fill="#25273a" d="M99.39 222.02l.12-.32 7.77 2.28.12-.18.61.51-.08.21-8.54-2.5z"/><path fill="#1f2131" d="M107.93 224.52l.08-.21.66.56-.74-.35z"/><path fill="#1b1d2c" d="M108.67 224.87l-.66-.56-.61-.51-.73-.62-.73-.61 8.54 2.5 3.37 2.84-7.77-2.28-.77-.22-.64-.54z"/><path fill="#1f2131" d="M106.67 223.18l.73.62-.12.18-.61-.8z"/><path fill="#1b1d2c" d="M99.39 222.02l8.54 2.5.74.35.64.54.77.22-.03.14 1.34.39.37.18-8.54-2.5-3.83-1.82z"/><path fill="#26283c" d="M95.89 217.78l.42-.61 7.69 2.25.15-.12.4.81-.12.17-8.54-2.5z"/><path fill="#1f2131" d="M104.43 220.28l.12-.17.42.88-.54-.71z"/><path fill="#1d1e2d" d="M104.97 220.99l-.42-.88-.4-.81-.48-.99-.48-.97 8.54 2.5 2.21 4.51-7.75-2.26-.48-.15-.31-.09-.43-.86z"/><path fill="#1f2131" d="M103.67 218.31l.48.99-.15.12-.33-1.11z"/><path fill="#1f2131" d="M106.04 222.37l-.33-.43.48.15-.15.28z"/><path fill="#25283b" d="M102.47 214.28l-4.47-1.3v-1.04l4.31 1.27.16-.05.14 1.01-.14.11z"/><path fill="#1f2131" d="M102.47 214.28l.14-.11.15 1.1-.29-.99z"/><path fill="#202233" d="M102.76 215.27l-.15-1.1-.14-1.01-.16-1.24-.17-1.21 8.54 2.5.77 5.64-7.59-2.22-.76-.22-.19-.06-.15-1.08z"/><path fill="#1f2131" d="M102.31 211.92l.16 1.24-.16.05v-1.29z"/><path fill="#1f2131" d="M103.33 217.19l-.23-.78.76.22-.53.56z"/><path fill="#242639" d="M95.78 204.15l-1.9-.56 1.48-6.04 8.54 2.5-.28 1.16-.43 1.11.14.06-.27 1.09-.15.01-.17 1.31-.32 1.3-6.64-1.94z"/><path fill="#212335" d="M95.36 197.55l2.29.43 6.47 1.9-.07.2-.15-.03-8.54-2.5z"/><path fill="#242639" d="M94.42 204.55l1.36-.4 6.64 1.94.15.03-.13 1.09-.16.05L98 206v-.4l-3.58-1.05z"/><path fill="#1f2131" d="M102.28 207.26l.16-.05-.15 1.19-.01-1.14z"/><path fill="#212435" d="M98 206l4.28 1.26.01 1.14-.15 1.16.15.05.01 1.01-.16.09.17 1.21v1.29L98 211.94V206z"/><path fill="#1f2131" d="M102.42 206.09l.32-1.3-.17 1.33-.15-.03z"/><path fill="#232537" d="M102.57 206.12l.17-1.33.17-1.31 8.54 2.49-.77 6.09-7.15-2.09-1.24-.36-.15-.05.15-1.16.15-1.19.13-1.09z"/><path fill="#1f2131" d="M103.06 203.47l.27-1.09 1.97.97-2.24.12z"/><path fill="#1f2131" d="M102.3 210.62l-.01-1.01 1.24.36-1.23.65z"/><path fill="#1f2131" d="M134.44 189.2l2.59 2.18-.25.49-1.31 2.49-3.37-2.84 1.56-2.98.35.3.43.36z"/><path fill="#25283b" d="M133.66 188.54l-1.56 2.98.8-3.2.76.22z"/><path fill="#26283c" d="M135.47 194.36l1.31-2.49.4.11.4.12-2.11 2.26z"/><path fill="#212435" d="M115.02 186.19l8.54 2.5v3.29l-.84-2.85-7.7-2.25v-.69z"/><path fill="#1f2131" d="M123.56 188.69l4.4-1.29v3.29l-4.4 1.29v-3.29z"/><path fill="#242639" d="M120.19 185.13l.01-.06.05-.21 8.54 2.5-.83 3.33v-3.29l-7.77-2.27z"/><path fill="#1f2131" d="M132.9 188.32l-.8 3.2-4.14-.83.83-3.33 4.14.83-.03.13z"/><path fill="#1f2131" d="M135.47 194.36l2.11-2.26.28.57.11.22.29.61.31.62 1.21 2.49-.66.71-1.45 1.56-2.2-4.52z"/><path fill="#25273a" d="M137.67 198.88l1.45-1.56.95.28-2.4 1.28z"/><path fill="#c9dbea" d="M34.69 173.56l-4.23-1.24-8.54-2.5L0 163.41V45.23L40.24 57l-1.23.36v3.43L3.07 50.27v17.08l-1.54-.45-1.22.36v1.66l2.76.81v48.11l-1.54-.45-1.22.36v1.66l2.76.81v34.13l-1.54-.45-1.22.36v1.66l2.76.81v3.43l35.94 10.51v1.9l1.23.36 1.23-.36v-1.18l6.13 1.8 4.91 1.43v1.9l1.23.36 1.23-.36v-1.18l37.17 10.88v-3.44l.31.09 1.22-.36v-1.65l-1.53-.45v-34.13l.31.09 1.22-.36v-1.66l-1.53-.45V95.79l.31.09 1.22-.36v-1.66l-1.53-.45V76.33L54.97 65.45V61.3l40.24 11.78v118.18l-1.49-.43-22.52-6.59-5.09-1.49-6.99-2.05-6.99-2.04-17.44-5.1z"/><path fill="#212435" d="M41.53 201.62l-.02-.01L37 200.3l-8.54-2.5-.05-.02-8.55-2.5-18.85-5.51v-.99l4.62 1.35 4.68 1.37 4.68 1.37 1.72-.5v-6.33l-4.67-1.37-4.68-1.37-4.68-1.37-1.67.49v-2.97l46.59 13.63v10.32l-.51-.15-5-1.47-.56-.16z"/><path fill="#44475c" d="M7.36 183.3l4.68 1.37-1.73.5-4.68-1.37 1.73-.5z"/><path fill="#44475c" d="M10.31 185.17l1.73-.5 4.67 1.37-1.72.5-4.68-1.37z"/><path d="M10.31 185.17l4.69 1.37v6.33l-4.68-1.37zm.57.95v4.77l3.53 1v-4.77z" fill="#404256"/><path d="M10.31 185.17v6.33l-4.68-1.37v-6.33zm-4.1-.42v4.77l3.53 1v-4.77z" fill="#404256"/><path fill="#3b3d50" d="M14.99 192.87v-6.33l1.72-.5v6.33l-1.72.5z"/><path fill="#1f2131" d="M139.61 212.08l-.02.05-.52 1.36-.11.32-.24.63-1.14 2.99-2.11-1.02 2.2-5.81 1.15.57.96.46-.17.45z"/><path fill="#1f2131" d="M144.18 181.08l-1.59.46-2.48.73-.23.07v-4.15l5.75-1.68v4.14l-1.45.43z"/><path fill="#242639" d="M52.13 178.66l6.99 2.04-9.62 2.82-6.99-2.05 9.62-2.81z"/><path d="M115.8 185.24l-6.17 1.8-1.47.43-8.92 2.61-4 1.18V73.08l131.44-38.46V152.8h-.15l-5.75 1.68-.85.25-7.08 2.07-31.52 9.22-5.75 1.68-.85.25-7.08 2.07-10 2.92-4.37 1.28h-.14l-2.64.77-.86.25-4 1.17-5.75 1.68-7.08 2.07-13.36 3.91h-.14l-2.64.77zm108-146L98 76.08V186.6l.7.2 7.86-2.3 7.86-2.3 7.86-2.3 7.86-2.3 7.86-2.3 7.86-2.3 7.86-2.3 7.86-2.3 7.86-2.3 7.86-2.3 7.86-2.3 7.86-2.3 7.86-2.3 7.86-2.3 7.86-2.3 7.86-2.3v-2.8l-.7-.2z" fill="#bacad9"/><path fill="#c0dbee" d="M226.68 93.99v-1.81l25.97-7.6 2.32 1.14-28.29 8.27z"/><path fill="#212435" d="M34.69 173.56l17.44 5.1-9.62 2.81v7.9l-7.82-2.29v-13.52z"/><path fill="#53a2c7" d="M267.49 79.73V65.7l5.83 2.95v23.1l-4.38-2.22-1.45-.73v-9.07z"/><path fill="#484a60" d="M267.49 79.75v1.37l-7.75 1.2-3.06.48-1.47-1.14 12.28-1.91z"/><path fill="#d9ebfc" d="M255.21 81.66l1.47 1.14 3.06-.48 1.66 1.51-6.43 1.89-2.32-1.14 2.26-.66-2.8-8.56 6.34 5.78-2.13.33-1.11.19z"/><path fill="#4a4c63" d="M255.21 81.66l1.11-.19 2.13-.33 9.04-1.41-12.28 1.93z"/><path fill="#c0dbee" d="M267.49 81.12v.93l-6.09 1.78-1.66-1.51 7.75-1.2z"/><path fill="#404256" d="M226.68 89.34V78.68l18.21 5.33-18.21 5.33z"/><path fill="#a5bccc" d="M226.68 92.18v-2.84l18.21-5.33 3.59-1.05 1.04-.31-5.17-15.79-.85.25-.33.1-4.1 1.2-.31.09-2.45.71-.94.28-.72.21-7.97 2.33v-2.84l19.08-5.59 6.89 20.98-25.97 7.6z"/><path fill="#c0dbee" d="M243.17 67.21l.33-.1.18.56-.51-.46z"/><path fill="#2e2e3f" d="M235.37 69.49l.94-.28 10.81 9.41.52 1.66-12.14-10.52-.06-.06-.07-.21z"/><path fill="#484a60" d="M235.44 69.7l.06.06-8.82 7.63v-.24l8.62-7.45h.14z"/><path fill="#313145" d="M235.44 69.7h-.79l.72-.21.07.21z"/><path fill="#484a60" d="M234.65 69.7h.65l-8.62 7.45v-5.12l7.97-2.33z"/><path fill="#484a60" d="M226.68 77.39l8.82-7.63 12.14 10.52.84 2.68-3.59 1.05-18.21-5.33v-1.29z"/><path fill="#d9ebfc" d="M239.07 68.41l4.1-1.2.51.46 2.06 6.54-6.67-5.8z"/><path fill="#1e2030" d="M243.68 67.67l-.18-.56.85-.25 4.15 16.09-.86-2.67-.52-1.66-.43-1.35-.95-3.06-2.06-6.54z"/><path fill="#3a3a50" d="M236.31 69.21l2.45-.71 7.93 8.77.43 1.35-10.81-9.41z"/><path fill="#212435" d="M39.01 60.79v-3.43l1.23.36v115.21l-1.23-.36V60.79z"/><path fill="#b2cbdd" d="M39.01 60.79v4.15L6.13 55.32v101.59l32.88 9.62v4.14L3.07 160.16v-3.43l.3.09 1.23-.36v-1.66l-1.53-.45v-34.13l.3.09 1.23-.36v-1.66l-1.53-.45V69.73l.3.09 1.23-.36V67.8l-1.53-.45V50.27l35.94 10.52z"/><path d="M123.56 192l4.4-1.29 4.14.83 3.37 2.84 2.2 4.51.76 5.64-.76 6.09-2.2 5.8-3.37 4.81-4.1 3.24-4.4 1.29-4.14-.83-3.46-2.84-2.2-4.51-.76-5.64.76-6.09L116 200l3.37-4.81zm-2.61 26.64l.56.47.1.08 2.71.54 2.89-.84 2.71-2.13 2.21-3.16 1.44-3.8.5-4-.5-3.7-1.44-3-2.21-1.86-.58-.12h-.14l-2-.4-.89.26-2 .59-.84.66-1.87 1.47-.56.8-1.65 2.36-.19.5-1.22 3.2v.1l-.41 3.28-.09.71.36 2.66.14 1 1 2 .45.93z" fill="#1f2131"/><path fill="#1f2131" d="M116.05 200.04l-2.21 5.81-2.11-1.03 2.21-5.8 2.11 1.02z"/><path fill="#1f2131" d="M119.42 195.23l-3.37 4.81-1.57-2.06 3.37-4.81 1.57 2.06z"/><path fill="#1f2131" d="M123.56 191.98l-4.14 3.25-.84-2.85 4.14-3.25.84 2.85z"/><path fill="#1f2131" d="M138.44 204.52l-.77-5.64 2.4-1.28.46 3.41.16 1.19.14 1.04-1.38.74-1.01.54z"/><path fill="#1f2131" d="M137.67 210.6l.77-6.08 2.39-.13-.39 3.15-.11.88-.26 2.05-1.54.09h-.15l-.71.04z"/><path fill="#1f2131" d="M132.1 221.22l3.37-4.81.4.53 1.16 1.53-3.37 4.81-1.56-2.06z"/><path fill="#1f2131" d="M127.96 224.47l4.14-3.25.51 1.75.32 1.1-4.14 3.25-.83-2.85z"/><path fill="#1f2131" d="M123.56 225.75l4.4-1.28v3.29l-4.4 1.29v-3.3z"/><path fill="#1f2131" d="M119.42 224.93l4.14.82-.77 3.07-.07.27-4.14-.83.84-3.33z"/><path fill="#1f2131" d="M116.05 222.09l3.37 2.84-1.57 2.98-3.37-2.84 1.57-2.98z"/><path fill="#1f2131" d="M113.84 217.57l2.21 4.52-2.11 2.26-2.21-4.51 2.11-2.27z"/><path fill="#1f2131" d="M113.08 211.93l.76 5.64-2.39 1.28-.77-5.64 2.4-1.28z"/><path fill="#1f2131" d="M113.84 205.85l-.76 6.08-2.4.13.77-6.09 2.39-.12z"/><path fill="#1b1d2c" d="M107.1 197.02l-1.06-1.41-.1-.13 8.54 2.5 1.57 2.06-2.11-1.02-6.84-2z"/><path fill="#1b1d2c" d="M105.3 203.35l-1.97-.97-.14-.06 8.54 2.5 2.11 1.03-8.54-2.5z"/><path fill="#1e2030" d="M119.42 195.23l-1.57-2.06-7.49-2.19-.26-.92-.05-.18 8.53 2.5.84 2.85z"/><path fill="#222537" d="M139.45 203.98l1.38.41-2.39.13 1.01-.54z"/><path fill="#1e2030" d="M127.96 224.47l.83 2.85-.83-.25v-2.6z"/><path fill="#212435" d="M123.56 225.75v3.3l-.77-.23.77-3.07z"/><path fill="#242639" d="M110.05 225.77l.03-.14 7.77 2.28 1.57-2.98-.84 3.33-6.8-1.98-.39-.12-1.34-.39z"/><path fill="#1b1d2c" d="M133.66 223.28l-1.05-.31-.51-1.75 1.56 2.06z"/><path fill="#1b1d2c" d="M135.47 216.41l2.11 1.02-1.71-.49-.4-.53z"/><path fill="#25283b" d="M106.04 222.37l.15-.28 7.75 2.26 2.11-2.26-1.57 2.98-8.54-2.5.1-.2z"/><path fill="#26283c" d="M103.33 217.19l.53-.56 7.59 2.22 2.39-1.28-2.11 2.27-8.54-2.5.14-.15z"/><path fill="#25273a" d="M102.3 210.62l1.23-.65 7.15 2.09 2.4-.13-2.4 1.28-8.54-2.5.16-.09z"/><path fill="#222537" d="M113.84 205.85l-2.39.12-8.54-2.49.15-.01 2.24-.12 8.54 2.5z"/><path fill="#a5bccc" d="M267.49 82.05v2.47l-4.44 4.55-1.65-5.24 6.09-1.78z"/><path fill="#212435" d="M139.88 182.34l-6.76-1.98-.32-.1 7.08-2.07v4.15z"/><path fill="#b12a00" d="M218.88 187.7l-8.49 2.48 4.25-4.65 8.49-2.49-4.25 4.66z"/><path fill="#dedeeb" d="M227.38 185.21l-8.5 2.49 4.25-4.66 4.25-1.24v3.41z"/><path fill="#fff" d="M227.38 181.8l-4.25 1.24-8.49 2.49-4.25 1.24-.85-.25 10.38-3.04.85-.25 5.75-1.68.86.25z"/><path fill="#fff" d="M209.54 186.52l.85.25-4.25 1.24-8.49 2.49-4.24 1.24-.86-.25 16.99-4.97z"/><path fill="#dedeeb" d="M210.39 186.77l4.25-1.24-4.25 4.65v-3.41z"/><path fill="#dedeeb" d="M210.39 186.77v3.41l-8.49 2.49 4.24-4.66 4.25-1.24z"/><path fill="#3b3d50" d="M209.54 186.52l-16.99 4.97-11.24 3.29v-7.98l3.6-1.05 8.5-2.49 8.49-2.48 8.49-2.49 8.49-2.48 1.04-.31v7.98l-10.38 3.04z"/><path fill="#fff" d="M181.31 194.78l11.24-3.29.86.25-4.25 1.24-8.5 2.49-4.24 1.24-.86-.25 5.75-1.68z"/><path fill="#b12a00" d="M201.9 192.67l-8.49 2.48 4.24-4.65 8.49-2.49-4.24 4.66z"/><path fill="#dedeeb" d="M193.41 191.74l4.24-1.24-4.24 4.65v-3.41z"/><path fill="#dedeeb" d="M193.41 191.74v3.41l-8.5 2.48 4.25-4.65 4.25-1.24z"/><path fill="#f0f0fe" d="M175.56 199.87v-3.41l.86.25v3.41l-.86-.25z"/><path fill="#b12a00" d="M184.91 197.63l-8.49 2.49 4.24-4.65 8.5-2.49-4.25 4.65z"/><path fill="#dedeeb" d="M176.42 200.12v-3.41l4.24-1.24-4.24 4.65z"/><path fill="#dedeeb" d="M219.92 175.5l-1.04.31 4.25-4.65 4.25-1.25v3.41l-.86.25-5.75 1.68-.85.25z"/><path fill="#212435" d="M219.92 175.5l.85-.25v7.98l-.85.25v-7.98z"/><path fill="#b12a00" d="M218.88 175.81l-8.49 2.48 4.25-4.65 8.49-2.48-4.25 4.65z"/><path fill="#fff" d="M227.38 169.91l-4.25 1.25-8.49 2.48-4.25 1.24-.85-.25 10.38-3.04.85-.25 5.75-1.68.86.25z"/><path fill="#1f2131" d="M226.52 169.66l-5.75 1.68v-16.81l5.75-1.68v16.81z"/><path fill="#fff" d="M209.54 174.63l.85.25-4.25 1.24-8.49 2.49-4.24 1.24-.86-.25 16.99-4.97z"/><path fill="#404256" d="M227.38 169.91l-.86-.25v-7.28l4.34 1.27v8.57l-3.48-1.02v-1.29z"/><path fill="#dedeeb" d="M210.39 174.88l4.25-1.24-4.25 4.65v-3.41z"/><path fill="#dedeeb" d="M210.39 174.88v3.41l-8.49 2.49 4.24-4.66 4.25-1.24z"/><path fill="#3b3d50" d="M209.54 174.63l-16.99 4.97-11.24 3.29v-4.73l38.61-11.3v4.73l-10.38 3.04z"/><path d="M219.92 166.86l-38.61 11.29v-11l33.39-9.77 2.92.85.26.65 2 5.21zM183.1 171l.85 2.17 1.86.67.75-.39 1.19.42.59-.31 1.41-2.1-1.2-3-2.61-.93-.59.31-1.08 1.61-.16.09z" fill="#424559"/><path fill="#3b3d50" d="M217.88 158.9l-.26-.65.26.07v.58z"/><path fill="#44475c" d="M214.7 157.39l-33.39 9.77v-1.09l31.53-9.22 1.86.54z"/><path fill="#212435" d="M217.62 158.25l-2.92-.86-1.86-.54 7.08-2.07v4.14l-2.04-.6-.26-.07z"/><path fill="#212435" d="M219.92 158.92v-4.14l.85-.25v16.81l-.85.25v-12.67z"/><path fill="#fff" d="M181.31 182.89l11.24-3.29.86.25-4.25 1.24-8.5 2.49-4.24 1.24-.86-.25 5.75-1.68z"/><path fill="#b12a00" d="M201.9 180.78l-8.49 2.48 4.24-4.65 8.49-2.49-4.24 4.66z"/><path fill="#dedeeb" d="M193.41 179.85l4.24-1.24-4.24 4.65v-3.41z"/><path fill="#dedeeb" d="M193.41 179.85v3.41l-8.5 2.49 4.25-4.66 4.25-1.24z"/><path fill="#f0f0fe" d="M175.56 187.98v-3.41l.86.25v3.41l-.86-.25z"/><path fill="#1f2131" d="M175.56 187.98l.86.25 4.89-1.43v7.98l-5.75 1.68v-8.48z"/><path fill="#b12a00" d="M181.31 186.8l-4.89 1.43 4.24-4.65 8.5-2.49-4.25 4.66-3.6 1.05z"/><path fill="#dedeeb" d="M176.42 188.23v-3.41l4.24-1.24-4.24 4.65z"/><path fill="#1f2131" d="M181.31 178.16v4.73l-5.75 1.68v-16.82l5.75-1.68v12.09z"/><path fill="#1f2131" d="M220.77 183.23v-7.98l5.75-1.68v7.98l-5.75 1.68z"/><path fill="#3b3d50" d="M267.95 157.16v4.21l-37.09 10.85v-8.57l37.09-10.85v4.36z"/><path fill="#404256" d="M217.88 158.9v-.58l2.04.6v5.19l-2.04-5.21z"/><path fill="#4f516a" d="M230.86 163.65l-4.34-1.27v-1.26l34.94-10.22 1.36.4 5.13 1.5-37.09 10.85z"/><path fill="#3b3d50" d="M262.82 151.3l-1.36-.4v-8.57l-6.49-1.9-28.29 8.28v-10.07l40.04-11.72-3.9 24.38z"/><path fill="#3b3d50" d="M261.46 142.33v8.57l-34.94 10.22v-8.27l.16-.05v-.3l34.78-10.17z"/><path fill="#4f516a" d="M226.68 148.71l28.29-8.28 6.49 1.9-34.78 10.17v-3.79z"/><path fill="#a5bccc" d="M267.49 87.18v1.62l1.45.73-5.23 1.53 3.78-3.88z"/><path fill="#3e4053" d="M275.73 91.34l-2.41.41v-23.1l2.41-.41v23.1z"/><path fill="#44475c" d="M273.32 68.65l-5.83-2.95 2.42-.41 5.82 2.95-2.41.41z"/><path fill="#bacad9" d="M247.18 60.34l1.4 4.26 3.53 10.76 2.8 8.56-2.26.66-6.89-20.98-19.08 5.59v-2.85l20.5-6z"/><path fill="#d9ecfc" d="M240.8 54.71l.53.46 5.85 5.17-20.5 6v-7.5l14.12-4.13z"/><path fill="#a5bccc" d="M275.73 79.64l35.6-10.41v7.9l-35.6 10.41v-7.9z"/><path d="M40.24 57L0 45.22 131.47 6.76l13.31 3.89 68.59 20.07 6.63 1.94 6.68 2L95.21 73.08 55 61.3l-1.23-.36-12.3-3.58zM5.67 45.22l89.54 26.2L221 34.62l-89.53-26.2z" fill="#d6e9f9"/><path fill="#3a3a50" d="M239.07 68.41l6.67 5.8.95 3.06-7.93-8.77.31-.09z"/><path fill="#b2cbdd" d="M92.14 182.78v3.44l-37.17-10.88v-4.15l34.1 9.98V79.58l-34.1-9.98v-4.15l37.17 10.88v17.08l-1.53-.45-1.23.36v1.66l2.76.81v48.11l-1.53-.45-1.23.36v1.66l2.76.81v34.13l-1.53-.45-1.23.36v1.66l2.76.8z"/><path fill="#1f2131" d="M54.97 171.19v5.33l-1.23.36v-9.9l1.23.36v3.85z"/><path d="M55 171.19v-3.86l9.91 2.9 1.23-.36v-1.66L55 165V69.6l34.11 10v101.57zm24.8-83.11l4.68 1.37 1.72-.5v-6.33l-4.68-1.37-1.72.5z" fill="#f2f2f7"/><path fill="#1f2131" d="M54.97 69.6v95.36l-1.23.36V61.66l1.23-.36v8.3z"/><path fill="#212435" d="M53.74 61.66v115.22l-1.23-.36V61.3l1.23.36z"/><path fill="#c9dbea" d="M52.51 61.3v3.44L47.6 63.3l-6.13-1.79v-4.15l12.27 3.59-1.23.35z"/><path fill="#e0e0e5" d="M226.68 34.62L220 32.66l26.93-7.87v24.24l-20.25 5.93V34.62z"/><path fill="#242639" d="M90.61 92.96l1.53.45 1.53.45-1.22.36-3.07-.9 1.23-.36z"/><path fill="#212435" d="M92.14 95.79l-2.76-.81v-1.66l3.07.9v1.66l-.31-.09z"/><path fill="#1f2131" d="M92.45 94.22l1.22-.36v1.66l-1.22.36v-1.66z"/><path fill="#242639" d="M90.61 179.96l1.53.45 1.53.45-1.22.36-3.07-.9 1.23-.36z"/><path fill="#212435" d="M92.14 182.78l-2.76-.8v-1.66l3.07.9v1.65l-.31-.09z"/><path fill="#1f2131" d="M92.45 181.22l1.22-.36v1.65l-1.22.36v-1.65z"/><path fill="#242639" d="M90.61 143.45l1.53.45 1.53.45-1.22.36-3.07-.9 1.23-.36z"/><path fill="#212435" d="M92.14 146.28l-2.76-.81v-1.66l3.07.9v1.66l-.31-.09z"/><path fill="#1f2131" d="M92.45 144.71l1.22-.36v1.66l-1.22.36v-1.66z"/><path fill="#242639" d="M3.07 67.35l1.53.45-1.23.36-3.06-.9 1.22-.36 1.54.45z"/><path fill="#212435" d="M3.37 69.82l-.3-.09-2.76-.81v-1.66l3.06.9v1.66z"/><path fill="#1f2131" d="M3.37 68.16l1.23-.36v1.66l-1.23.36v-1.66z"/><path fill="#242639" d="M3.07 154.35l1.53.45-1.23.36-3.06-.9 1.22-.36 1.54.45z"/><path fill="#212435" d="M3.37 156.82l-.3-.09-2.76-.81v-1.66l3.06.9v1.66z"/><path fill="#1f2131" d="M3.37 155.16l1.23-.36v1.66l-1.23.36v-1.66z"/><path fill="#242639" d="M3.07 117.84l1.53.45-1.23.36-3.06-.9 1.22-.36 1.54.45z"/><path fill="#212435" d="M3.37 120.31l-.3-.09-2.76-.81v-1.66l3.06.9v1.66z"/><path fill="#1f2131" d="M3.37 118.65l1.23-.36v1.66l-1.23.36v-1.66z"/><path fill="#212435" d="M54.97 167.34l-1.23-.36v-1.66l11.14 3.25v1.67l-9.91-2.9z"/><path fill="#242639" d="M53.74 165.32l1.23-.36 11.14 3.26-1.23.35-11.14-3.25z"/><path fill="#1f2131" d="M66.11 168.22v1.66l-1.23.36v-1.67l1.23-.35z"/><path fill="#f2f2f7" d="M52.51 68.88v101.59l-1.84-.53V68.35l1.84.53z"/><path fill="#242639" d="M53.74 60.95l1.23.35-1.23.36-1.23-.36 1.23-.35z"/><path fill="#b2cbdd" d="M47.6 63.3l4.91 1.44v4.14l-1.84-.53v101.59l1.84.53v4.15l-4.91-1.43V63.3z"/><path fill="#b2cbdd" d="M47.6 63.3v109.89l-6.13-1.8v-4.15l3.07.9V66.55l-3.07-.9v-4.14l6.13 1.79z"/><path fill="#1f2131" d="M41.47 167.24v5.33l-1.23.36V57.72l1.23-.36v109.88z"/><path fill="#f2f2f7" d="M41.47 167.24V65.65l3.07.9v101.59l-3.07-.9z"/><path fill="#212435" d="M39.01 161.01v1.66l-11.13-3.26v-1.66l11.13 3.26z"/><path fill="#242639" d="M39.01 161.01l-11.13-3.26 1.22-.36 9.91 2.9v.72z"/><path d="M39 160.29l-9.91-2.9-1.23.36v1.66L39 162.67v3.86l-32.86-9.62V55.32L39 64.94zM7.28 60.54v6.33L12 68.24l1.72-.5v-6.33L9 60z" fill="#f2f2f7"/><path fill="#242639" d="M40.24 57l1.23.36-1.23.36-1.23-.36 1.23-.36z"/><path fill="#a5bccc" d="M226.68 133.39v-39.4l28.29-8.27v39.39l-28.29 8.28z"/><path fill="#bacad9" d="M249.8 52.07l-9 2.64-14.12 4.13v-3.88l20.25-5.93V24.79L220 32.66l-6.63-1.93 36.43-10.66v32z"/><path d="M1 188.78H.94v-6.33l4.68 1.37v6.33zm.52-5.4v4.77l3.53 1v-4.77z" fill="#404256"/><path fill="#44475c" d="M.95 182.44l.06-.02 1.67-.49 4.68 1.37-1.73.5-4.68-1.36z"/><path fill="#1f2131" d="M244.35 66.86l5.17 15.79-1.02.3-4.15-16.09z"/><path d="M181.21 0l68.59 20.07-36.43 10.66-68.6-20.07zm0 1.68l-30.69 9L213.37 29l30.69-9z" fill="#d6e9f9"/><path fill="#c9dbea" d="M183.94 173.12l-.85-2.17 1.06-.55.86 2.16-1.07.56z"/><path fill="#d2e4f4" d="M183.09 170.95l1.01-1.5.17-.09-.33.49.21.55-1.06.55z"/><path fill="#a5b3c0" d="M185.8 173.78l-1.86-.66 1.07-.56.12.33 1.42.5-.75.39z"/><path fill="#c9dbea" d="M185.01 172.56l-.86-2.16-.21-.55.59-.3 1.19 3.03-.59.31-.12-.33z"/><path fill="#d0e3f2" d="M188.54 168.37l1.2 3.04-1.41 2.1-2.61-.93-1.19-3.03 1.4-2.11 2.61.93z"/><path fill="#a5b3c0" d="M185.72 172.58l2.61.93-.59.31-1.19-.43-1.42-.5.59-.31z"/><path fill="#d2e4f4" d="M185.93 167.44l-1.4 2.11-.59.3.33-.49 1.07-1.61.59-.31z"/><path fill="#fff" d="M150.51 10.66l30.7-8.98 62.85 18.39-30.69 8.98-62.86-18.39z"/><path fill="#ff4500" d="M1.53 188.15v-4.77l3.53 1.03v4.78l-3.53-1.04z"/><path fill="#ff4500" d="M6.21 184.75l3.52 1.03v4.78l-3.52-1.04v-4.77z"/><path fill="#ffa735" d="M10.88 190.89v-4.77l3.53 1.03v4.77l-3.53-1.03z"/><path fill="#becfde" d="M300.17 163.36l1.31-4.17 1.13.95-.43 5.46-1.55-1.31-.46-.93z"/><path fill="#b2c1cf" d="M301.48 159.19l-1.31 4.17-.99-2.02-.14-1.04 1.7-2.62.74 1.51z"/><path fill="#3b3d50" d="M302.61 160.14l-1.13-.95-.74-1.51-.26-1.89.26-2.04.74-1.95 1.13-1.61 1.38-1.09 1.48-.43 1.39.28 1.13.95.73 1.51.26 1.89-.26 2.04-.73 1.94-1.13 1.62-1.39 1.09-1.48.43-1.38-.28z"/><path fill="#cadceb" d="M302.18 165.6l.43-5.46 1.38.28.88 6.08-2.13-.43-.56-.47z"/><path fill="#212335" d="M302.74 166.07l2.13.43.68.2-2.71-.54-.1-.09z"/><path fill="#d3e6f6" d="M304.87 166.5l-.88-6.08 1.48-.43 2.28 5.66-2.88.85z"/><path fill="#242639" d="M304.87 166.5l2.88-.85.69.2-2.89.85-.68-.2z"/><path fill="#d9ecfc" d="M307.75 165.65l-2.28-5.66 1.39-1.09 3.61 4.62-2.72 2.13z"/><path fill="#a6b4c1" d="M300.48 155.79l.26 1.89-1.7 2.62-.36-2.66.09-.71 1.71-1.14z"/><path fill="#a5b3c0" d="M300.48 155.79l-1.71 1.14.41-3.28.04-.11 1.52.21-.26 2.04z"/><path fill="#25283b" d="M307.75 165.65l2.72-2.13.68.2-2.71 2.13-.69-.2z"/><path fill="#daedfe" d="M310.47 163.52l-3.61-4.62 1.13-1.62 4.69 3.09-2.21 3.15z"/><path fill="#25273a" d="M314.8 156.76l-1.44 3.81-.68-.2 1.44-3.8.68.19z"/><path fill="#26283c" d="M312.68 160.37l.68.2-2.21 3.15-.68-.2 2.21-3.15z"/><path fill="#d7eafb" d="M314.12 156.57l-1.44 3.8-4.69-3.09.73-1.94 5.4 1.23z"/><path fill="#232537" d="M314.8 156.76l-.68-.19.5-4 .68.21-.5 3.98z"/><path fill="#1b1d2c" d="M311.15 144.26l2.21 1.86-.68-.2-2.12-1.78.59.12z"/><path fill="#1d1e2d" d="M312.68 145.92l.68.2 1.44 2.96-.68-.2-1.44-2.96z"/><path fill="#adbdca" d="M310.56 144.14l2.12 1.78-4.69 3.98-1.13-.95 3.57-4.84.13.03z"/><path fill="#202233" d="M314.8 149.08l.5 3.7-.68-.21-.5-3.69.68.2z"/><path fill="#c6d8e7" d="M314.12 148.88l.5 3.69-5.64.73-.26-1.89 5.4-2.53z"/><path fill="#d0e3f2" d="M314.62 152.57l-.5 4-5.4-1.23.26-2.04 5.64-.73z"/><path fill="#bacad9" d="M312.68 145.92l1.44 2.96-5.4 2.53-.73-1.51 4.69-3.98z"/><path fill="#a5b3c0" d="M305.55 144.56l2-.59-2.08 4.7-1.48.43.72-3.88.84-.66z"/><path fill="#a5b3c0" d="M302.84 146.69l1.87-1.47-.72 3.88-1.38 1.09-.33-2.7.56-.8z"/><path fill="#a5b3c0" d="M300.63 149.84l1.65-2.35.33 2.7-1.13 1.61-1.04-1.46.19-.5z"/><path fill="#a5b3c0" d="M306.86 148.95l-1.39-.28 2.08-4.7.89-.25 1.99.39-3.57 4.84z"/><path fill="#a5b3c0" d="M301.48 151.8l-.74 1.95-1.52-.21 1.22-3.2 1.04 1.46z"/><path d="M298.67 131.2l-10 2.92v-5.9l10-2.92zm-1.27-3.82l-7.4 2.18V132l7.45-2.18z" fill="#44475c"/><path fill="#ff7d31" d="M289.95 129.56l7.45-2.18v2.47l-7.45 2.18v-2.47z"/><path fill="#44475c" d="M90.81 208.72l-4.68-1.37 1.72-.5 4.68 1.37-1.72.5z"/><path d="M86.13 207.35l4.68 1.37v6.33l-4.68-1.37zm4.1 6.75v-4.77l-3.53-1v4.77z" fill="#404256"/><path fill="#3b3d50" d="M90.81 215.05v-6.33l1.72-.5v6.32l-1.72.51z"/><path d="M86.13 207.35v6.33l-4.68-1.37V206zm-.57 5.38V208l-3.53-1v4.77z" fill="#404256"/><path fill="#44475c" d="M87.85 206.85l-1.72.5-4.68-1.37 1.72-.5 4.68 1.37z"/><path d="M81.45 206v6.33l-4.68-1.37v-6.33zm-.57 5.38v-4.77l-3.53-1v4.77z" fill="#404256"/><path fill="#44475c" d="M83.17 205.48l-1.72.5-4.68-1.36 1.72-.51 4.68 1.37z"/><path fill="#ff4500" d="M90.23 209.33v4.77l-3.53-1.03v-4.77l3.53 1.03z"/><path fill="#ff4500" d="M85.55 207.96v4.78l-3.53-1.04v-4.77l3.53 1.03z"/><path fill="#ffa735" d="M80.87 206.59v4.78l-3.53-1.04v-4.77l3.53 1.03z"/><path fill="#becfde" d="M152.75 206.49l1.31-4.18 1.13.96-.43 5.46-1.55-1.31-.46-.93z"/><path fill="#b2c1cf" d="M154.06 202.31l-1.31 4.18-.99-2.03-.14-1.03 1.7-2.63.74 1.51z"/><path fill="#3b3d50" d="M155.19 203.27l-1.13-.96-.74-1.51-.26-1.89.26-2.04.74-1.94 1.13-1.61 1.38-1.09 1.48-.43 1.39.28 1.12.95.74 1.51.26 1.89-.26 2.04-.74 1.94-1.12 1.61-1.39 1.09-1.48.43-1.38-.27z"/><path fill="#cadceb" d="M154.76 208.73l.43-5.46 1.38.27.88 6.08-2.13-.42-.56-.47z"/><path fill="#a5b3c0" d="M161.02 186.84l1.98.4-3.56 4.84-1.39-.28 2.08-4.7.89-.26z"/><path fill="#212335" d="M155.32 209.2l2.13.42.68.2-2.71-.54-.1-.08z"/><path fill="#d3e6f6" d="M157.45 209.62l-.88-6.08 1.48-.43 2.28 5.67-2.88.84z"/><path fill="#242639" d="M157.45 209.62l2.88-.84.69.2-2.89.84-.68-.2z"/><path fill="#d9ecfc" d="M160.33 208.78l-2.28-5.67 1.39-1.09 3.61 4.63-2.72 2.13z"/><path fill="#a6b4c1" d="M153.06 198.91l.26 1.89-1.7 2.63-.36-2.67.09-.71 1.71-1.14z"/><path fill="#a5b3c0" d="M153.06 198.91l-1.71 1.14.41-3.28.04-.1 1.52.2-.26 2.04z"/><path fill="#25283b" d="M160.33 208.78l2.72-2.13.68.2-2.71 2.13-.69-.2z"/><path fill="#daedfe" d="M163.05 206.65l-3.61-4.63 1.12-1.61 4.7 3.09-2.21 3.15z"/><path fill="#25273a" d="M167.38 199.89l-1.44 3.8-.68-.19 1.44-3.81.68.2z"/><path fill="#26283c" d="M165.26 203.5l.68.19-2.21 3.16-.68-.2 2.21-3.15z"/><path fill="#d7eafb" d="M166.7 199.69l-1.44 3.81-4.7-3.09.74-1.94 5.4 1.22z"/><path fill="#232537" d="M167.38 199.89l-.68-.2.5-3.99.68.2-.5 3.99z"/><path fill="#1b1d2c" d="M163.73 187.38l2.21 1.87-.68-.21-2.12-1.77.59.11z"/><path fill="#1d1e2d" d="M165.26 189.04l.68.21 1.44 2.95-.68-.2-1.44-2.96z"/><path fill="#adbdca" d="M163.14 187.27l2.12 1.77-4.7 3.99-1.12-.95 3.56-4.84.14.03z"/><path fill="#202233" d="M167.38 192.2l.5 3.7-.68-.2-.5-3.7.68.2z"/><path fill="#c6d8e7" d="M166.7 192l.5 3.7-5.64.73-.26-1.89 5.4-2.54z"/><path fill="#d0e3f2" d="M167.2 195.7l-.5 3.99-5.4-1.22.26-2.04 5.64-.73z"/><path fill="#bacad9" d="M165.26 189.04l1.44 2.96-5.4 2.54-.74-1.51 4.7-3.99z"/><path fill="#a5b3c0" d="M158.13 187.69l2-.59-2.08 4.7-1.48.43.72-3.88.84-.66z"/><path fill="#a5b3c0" d="M155.42 189.81l1.87-1.46-.72 3.88-1.38 1.09-.33-2.71.56-.8z"/><path fill="#a5b3c0" d="M153.21 192.97l1.65-2.36.33 2.71-1.13 1.61-1.04-1.46.19-.5z"/><path fill="#a5b3c0" d="M154.06 194.93l-.74 1.94-1.52-.2 1.22-3.2 1.04 1.46z"/><path fill="#becfde" d="M118.94 216.38l1.3-4.17 1.13.95-.42 5.46-1.56-1.31-.45-.93z"/><path fill="#b2c1cf" d="M120.24 212.21l-1.3 4.17-.99-2.03-.14-1.03 1.69-2.63.74 1.52z"/><path fill="#3b3d50" d="M121.37 213.16l-1.13-.95-.74-1.52-.25-1.88.25-2.04.74-1.95 1.13-1.61 1.39-1.09 1.47-.43 1.39.28 1.13.95.74 1.51.25 1.89-.25 2.04-.74 1.94-1.13 1.62-1.39 1.08-1.47.44-1.39-.28z"/><path fill="#cadceb" d="M120.95 218.62l.42-5.46 1.39.28.87 6.08-2.13-.43-.55-.47z"/><path fill="#212335" d="M121.5 219.09l2.13.43.68.2-2.71-.55-.1-.08z"/><path fill="#d3e6f6" d="M123.63 219.52l-.87-6.08 1.47-.44 2.29 5.67-2.89.85z"/><path fill="#242639" d="M123.63 219.52l2.89-.85.68.2-2.89.85-.68-.2z"/><path fill="#d9ecfc" d="M126.52 218.67l-2.29-5.67 1.39-1.08 3.61 4.62-2.71 2.13z"/><path fill="#a6b4c1" d="M119.25 208.81l.25 1.88-1.69 2.63-.36-2.66.09-.72 1.71-1.13z"/><path fill="#a5b3c0" d="M119.25 208.81l-1.71 1.13.41-3.28.04-.1 1.51.21-.25 2.04z"/><path fill="#25283b" d="M126.52 218.67l2.71-2.13.68.2-2.71 2.13-.68-.2z"/><path fill="#daedfe" d="M129.23 216.54l-3.61-4.62 1.13-1.62 4.69 3.09-2.21 3.15z"/><path fill="#25273a" d="M133.57 209.78l-1.44 3.81-.69-.2 1.44-3.81.69.2z"/><path fill="#26283c" d="M131.44 213.39l.69.2-2.22 3.15-.68-.2 2.21-3.15z"/><path fill="#d7eafb" d="M132.88 209.58l-1.44 3.81-4.69-3.09.74-1.94 5.39 1.22z"/><path fill="#232537" d="M133.57 209.78l-.69-.2.51-3.99.68.2-.5 3.99z"/><path fill="#1b1d2c" d="M129.91 197.28l2.22 1.86-.69-.2-2.11-1.78.58.12z"/><path fill="#1d1e2d" d="M131.44 198.94l.69.2 1.44 2.96-.69-.2-1.44-2.96z"/><path fill="#adbdca" d="M129.33 197.16l2.11 1.78-4.69 3.98-1.13-.95 3.57-4.84.14.03z"/><path fill="#202233" d="M133.57 202.1l.5 3.69-.68-.2-.51-3.69.69.2z"/><path fill="#c6d8e7" d="M132.88 201.9l.51 3.69-5.65.73-.25-1.89 5.39-2.53z"/><path fill="#d0e3f2" d="M133.39 205.59l-.51 3.99-5.39-1.22.25-2.04 5.65-.73z"/><path fill="#bacad9" d="M131.44 198.94l1.44 2.96-5.39 2.53-.74-1.51 4.69-3.98z"/><path fill="#a5b3c0" d="M124.31 197.58l2-.59-2.08 4.7-1.47.43.71-3.88.84-.66z"/><path fill="#a5b3c0" d="M121.6 199.71l1.87-1.47-.71 3.88-1.39 1.09-.33-2.7.56-.8z"/><path fill="#a5b3c0" d="M119.39 202.86l1.65-2.35.33 2.7-1.13 1.61-1.04-1.46.19-.5z"/><path fill="#a5b3c0" d="M125.62 201.97l-1.39-.28 2.08-4.7.89-.26 1.99.4-3.57 4.84z"/><path fill="#a5b3c0" d="M120.24 204.82l-.74 1.95-1.51-.21 1.21-3.2 1.04 1.46z"/><path fill="#e0e0e5" d="M98.04 183.8V76.08l125.8-36.8V147l-15.72 4.6-15.73 4.6-15.72 4.6-15.73 4.6-15.72 4.6-15.73 4.6-15.72 4.6-15.73 4.6z"/><path fill="#fff" d="M176.67 160.8l15.72-4.6.7.21-3.93 1.15-7.86 2.3-3.93 1.15-.7-.21z"/><path fill="#b12a00" d="M185.23 161.5l-7.86 2.31 3.93-3.95 7.86-2.3-3.93 3.94z"/><path fill="#dedeeb" d="M193.09 159.2l-7.86 2.3 3.93-3.94 3.93-1.15v2.79z"/><path fill="#fff" d="M176.67 160.8l.7.21-3.93 1.15-7.87 2.3-3.93 1.15-.7-.21 15.73-4.6z"/><path fill="#fff" d="M193.09 156.41l-.7-.21 15.73-4.6.7.21-3.93 1.15-7.87 2.3-3.93 1.15z"/><path fill="#dedeeb" d="M177.37 161.01l3.93-1.15-3.93 3.95v-2.8z"/><path fill="#dedeeb" d="M177.37 161.01v2.8l-7.87 2.29 3.94-3.94 3.93-1.15z"/><path fill="#dedeeb" d="M193.09 159.2v-2.79l3.93-1.15-3.93 3.94z"/><path fill="#b12a00" d="M169.5 166.1l-7.86 2.31 3.93-3.95 7.87-2.3-3.94 3.94z"/><path fill="#fff" d="M160.94 165.4l.7.21-3.93 1.15-7.86 2.3-3.93 1.15-.7-.21 15.72-4.6z"/><path fill="#dedeeb" d="M161.64 165.61l3.93-1.15-3.93 3.95v-2.8z"/><path fill="#dedeeb" d="M161.64 165.61v2.8l-7.86 2.3 3.93-3.95 3.93-1.15z"/><path fill="#fff" d="M113.77 179.2l15.72-4.6.7.21-3.93 1.15-7.86 2.3-3.93 1.15-.7-.21z"/><path fill="#b12a00" d="M122.33 179.91l-7.86 2.3 3.93-3.95 7.86-2.3-3.93 3.95z"/><path fill="#dedeeb" d="M130.19 177.6l-7.86 2.31 3.93-3.95 3.93-1.15v2.79z"/><path fill="#fff" d="M113.77 179.2l.7.21-3.94 1.15-7.86 2.3-3.93 1.15-.7-.21 15.73-4.6z"/><path fill="#fff" d="M130.19 174.81l-.7-.21 15.73-4.6.7.21-3.93 1.15-7.87 2.3-3.93 1.15z"/><path fill="#dedeeb" d="M114.47 179.41l3.93-1.15-3.93 3.95v-2.8z"/><path fill="#dedeeb" d="M114.47 179.41v2.8l-7.87 2.29 3.93-3.94 3.94-1.15z"/><path fill="#dedeeb" d="M130.19 177.6v-2.79l3.93-1.15-3.93 3.94z"/><path fill="#b12a00" d="M138.06 175.31l-7.87 2.29 3.93-3.94 7.87-2.3-3.93 3.95z"/><path fill="#dedeeb" d="M145.92 173l-7.86 2.31 3.93-3.95 3.93-1.15V173z"/><path fill="#dedeeb" d="M145.92 173v-2.79l3.93-1.15-3.93 3.94z"/><path fill="#b12a00" d="M153.78 170.71l-7.86 2.29 3.93-3.94 7.86-2.3-3.93 3.95z"/><path fill="#b12a00" d="M200.96 156.9l-7.87 2.3 3.93-3.94 7.87-2.3-3.93 3.94z"/><path fill="#dedeeb" d="M208.82 154.6l-7.86 2.3 3.93-3.94 3.93-1.15v2.79z"/><path fill="#fff" d="M208.82 151.81l-.7-.21 15.72-4.6.7.21-3.93 1.15-7.86 2.3-3.93 1.15z"/><path fill="#dedeeb" d="M208.82 154.6v-2.79l3.93-1.15-3.93 3.94z"/><path fill="#b12a00" d="M216.68 152.3l-7.86 2.3 3.93-3.94 7.86-2.3-3.93 3.94z"/><path fill="#dedeeb" d="M224.54 150l-7.86 2.3 3.93-3.94 3.93-1.15V150z"/><path fill="#f0f0fe" d="M98.04 186.6v-2.8l.7.21v2.8l-.7-.21z"/><path fill="#b12a00" d="M106.6 184.5l-7.86 2.31 3.93-3.95 7.86-2.3-3.93 3.94z"/><path fill="#dedeeb" d="M98.74 186.81v-2.8l3.93-1.15-3.93 3.95z"/><path fill="#fff" d="M95.21 71.42L5.67 45.23l125.8-36.81 89.54 26.2-125.8 36.8z"/><path fill="#44475c" d="M84.48 83.13l-4.68-1.37 1.72-.51 4.68 1.37-1.72.51z"/><path d="M79.8 81.76l4.68 1.37v6.33l-4.68-1.38zm4.1 6.75v-4.78l-3.53-1v4.77z" fill="#404256"/><path fill="#3b3d50" d="M84.48 89.45v-6.32l1.72-.51v6.33l-1.72.5z"/><path fill="#ff4500" d="M83.9 83.73v4.78l-3.53-1.04V82.7l3.53 1.03z"/><path d="M7.28 60.54L12 61.91v6.33l-4.72-1.37zm.57.95v4.77l3.53 1v-4.74z" fill="#404256"/><path fill="#44475c" d="M11.96 61.91l-4.68-1.37 1.73-.5 4.68 1.37-1.73.5z"/><path fill="#3b3d50" d="M11.96 68.24v-6.33l1.73-.5v6.32l-1.73.51z"/><path fill="#ff4500" d="M7.86 66.26v-4.77l3.53 1.03v4.77l-3.53-1.03z"/></g></g></svg>