<svg xmlns="http://www.w3.org/2000/svg" viewBox="0 0 67.07499694824219 94.79499816894531"><title>Asset 1</title><g data-name="Layer 2"><g data-name="Layer 1" style="isolation:isolate"><path d="M66.68 86.49V38.83a33.14 33.14 0 0 0-66.27 0V86.5a1.81 1.81 0 0 0 0 .25c0 4.23 14.85 7.67 33.16 7.67S66.7 91 66.7 86.75a1.87 1.87 0 0 0-.02-.26z" fill="#4f9fa1"/><circle cx="33.54" cy="2.92" r="2.92" fill="#cfe1ed"/><ellipse cx="33.54" cy="2.92" rx="1.2" ry="1.91" fill="#4f9fa1"/><ellipse cx="33.54" cy="86.75" rx="33.16" ry="7.67" fill="none" stroke="#cfe1ed" stroke-miterlimit="10" stroke-width=".75"/><ellipse cx="36.04" cy="89.58" rx="12.98" ry="3" fill="#468a8c"/><path d="M67.05 86.58h-.75V38.83a32.76 32.76 0 0 0-65.52 0v47.75H0V38.83a33.51 33.51 0 0 1 67 0z" fill="#cfe1ed"/><path d="M56.7 32.26a2.22 2.22 0 0 1-1.6 2.68l-16 4a2.22 2.22 0 0 1-2.68-1.6l-2.3-9.13a2.22 2.22 0 0 1 1.6-2.68l16-4a2.22 2.22 0 0 1 2.68 1.6z" fill="#ed4524"/><path d="M37.41 30.295l3.626-.915a1.1 1.1 0 0 1 1.336.798l.296 1.173a1.1 1.1 0 0 1-.797 1.336l-3.627.915a1.11 1.11 0 0 1-1.348-.805l-.293-1.164a1.1 1.1 0 0 1 .807-1.338z" fill="#f5b731"/><path fill="#c2c2cc" d="M37.334 34.517l5.313-1.34.176.698-5.313 1.34z"/><path fill="#a5a5ad" d="M37.739 36.099l5.314-1.34.12.474-5.314 1.34z"/><path fill="#a5a5ad" d="M38.005 37.135l9.6-2.422.12.475-9.6 2.422z"/><path fill="#c2c2cc" d="M43.203 33.036l5.314-1.34.176.698-5.313 1.34z"/><path fill="#c2c2cc" d="M49.06 31.567l5.314-1.34.176.699-5.314 1.34z"/><circle cx="48.91" cy="25.15" r="1.88" transform="rotate(-14.15 48.913 25.133)" fill="#ff7054"/><circle cx="51.56" cy="24.48" r="1.88" transform="rotate(-14.16 51.533 24.469)" fill="#c4c4cf"/><circle cx="23.98" cy="49.68" r="20.57" fill="#f5cb00"/><path d="M24 29.11a20.57 20.57 0 0 1 0 41.13z" fill="#d9b300"/><circle cx="23.98" cy="49.75" r="16.75" fill="#fff"/><path d="M24 33a16.75 16.75 0 0 1 0 33.5z" fill="#ebebeb"/><path d="M24 67.31a17.56 17.56 0 1 1 17.53-17.56A17.58 17.58 0 0 1 24 67.31zm0-33.5a15.94 15.94 0 1 0 15.91 15.94A16 16 0 0 0 24 33.81z" fill="#b09309"/><circle cx="24" cy="49.67" r="1.68" transform="rotate(-54.99 24 49.668)" fill="#57533d"/><circle cx="23.98" cy="36.35" r="1.09" fill="#d6543b"/><circle cx="23.98" cy="63.01" r="1.09" fill="#d6543b"/><circle cx="10.64" cy="49.68" r="1.09" fill="#d6543b"/><circle cx="37.31" cy="49.68" r="1.09" fill="#d6543b"/><circle cx="17.31" cy="38.14" r=".56" transform="rotate(-29.99 17.315 38.128)" fill="#a1a1aa"/><circle cx="30.64" cy="61.22" r=".56" transform="rotate(-29.94 30.653 61.232)" fill="#a1a1aa"/><circle cx="12.43" cy="43.01" r=".56" transform="rotate(-60.06 12.431 43.018)" fill="#a1a1aa"/><circle cx="35.52" cy="56.34" r=".56" transform="rotate(-60.03 35.524 56.342)" fill="#a1a1aa"/><circle cx="30.64" cy="38.14" r=".56" transform="rotate(-60.01 30.65 38.136)" fill="#a1a1aa"/><circle cx="17.31" cy="61.22" r=".56" transform="rotate(-60.06 17.314 61.223)" fill="#a1a1aa"/><circle cx="35.52" cy="43.01" r=".56" transform="rotate(-29.94 35.523 43.02)" fill="#a1a1aa"/><circle cx="12.43" cy="56.34" r=".56" transform="rotate(-29.97 12.426 56.334)" fill="#a1a1aa"/><path fill="#57533d" d="M23.844 49.062l7.303-10.414.77.54-7.303 10.414z"/><path fill="#57533d" d="M15.379 47.854l.322-1.203 8.672 2.325-.322 1.203z"/><path d="M23.7 50.59a1 1 0 0 0 .35.06l2.67 10 .48-.13-2.67-10a1 1 0 0 0 .38-1.24 1 1 0 0 0-.86-.56l-.28-1-.48.13.28 1a1 1 0 0 0 .13 1.76zm-.19-1.1a.57.57 0 0 1 .71-.33.55.55 0 0 1 .33.71.55.55 0 1 1-1-.38z" fill="#d6543b"/><path d="M48.42 37.85l2.14 9.81c-7.08-2.32-11.94 5.53-19 3.21l-1.75-8c6.92 1.7 11.66-6.74 18.61-5.02z" fill="#a0b514"/><path d="M49.22 46.3c-6.12-1.11-10.66 5.07-16.79 4l-1.38-6.32c6 .69 10.48-5.9 16.51-5.2z" fill="#819800"/><path d="M43 43.37c.48 2.2-.49 4.51-2.13 5.29s-3.37-.36-3.81-2.42A5.13 5.13 0 0 1 39.23 41c1.61-1 3.33.15 3.77 2.37z" fill="#a0b514"/><path d="M40.35 44.18l-.22-1a3.75 3.75 0 0 1 1 0l.3-1.16a4.37 4.37 0 0 0-1.58.13l-.11-.49-.66.37.09.4a2.32 2.32 0 0 0-.55.42 2 2 0 0 0-.57 1.3c0 .58.16 1.51 1.77 1.28l.22 1a4 4 0 0 1-1.12 0l-.32 1.11a4.73 4.73 0 0 0 1.67-.08l.1.47.67-.32-.04-.4a2.05 2.05 0 0 0 .51-.37 2 2 0 0 0 .56-1.41c.02-1.43-1.15-1.36-1.72-1.25zm-1.25-.26a.49.49 0 0 1 .13-.34 1 1 0 0 1 .21-.16l.19.87c-.56.02-.54-.29-.53-.37zm2 1.72a.54.54 0 0 1-.14.42.74.74 0 0 1-.15.12l-.19-.9c.38-.02.46.11.45.36z" fill="#dfe09b"/><path d="M48.42 37.85L49 40.7h-.12a4.26 4.26 0 0 1-3.29-2.94v-.06a7.88 7.88 0 0 1 2.83.15z" fill="#a0b514"/><path d="M49.94 44.82l.62 2.84a8.52 8.52 0 0 0-2.86-.43v-.06c-.32-1.48.57-2.83 2.13-2.39z" fill="#a0b514"/><path d="M32.59 43v.05a1.72 1.72 0 0 1-2.19 2.13h-.12l-.51-2.33a7.86 7.86 0 0 0 2.82.15z" fill="#a0b514"/><path d="M34.38 51.26a8.55 8.55 0 0 1-2.86-.43L31 48.55h.12c1.59.45 2.98 1.39 3.26 2.71z" fill="#a0b514"/><path d="M54.27 43.74v10C47.85 50 41.43 56.64 35 52.87v-8.22c6.43 3.17 12.85-4.08 19.27-.91z" fill="#a5cc3b"/><path d="M53.26 52.17c-5.75-2.39-11.5 2.68-17.24.29V46c5.75 2 11.5-3.53 17.24-1.56z" fill="#86af00"/><path d="M47.85 48c0 2.25-1.44 4.3-3.21 4.72s-3.21-1.07-3.21-3.17a5.13 5.13 0 0 1 3.21-4.71c1.77-.61 3.21.88 3.21 3.16z" fill="#a5cc3b"/><path d="M45 48.21v-1a3.75 3.75 0 0 1 1 .18l.54-1.07a4.36 4.36 0 0 0-1.54-.23v-.5l-.72.22v.41a2.31 2.31 0 0 0-.62.29 2 2 0 0 0-.83 1.15c-.16.56-.17 1.51 1.46 1.63v1a4.07 4.07 0 0 1-1.1-.21l-.55 1a4.69 4.69 0 0 0 1.65.28v.48l.72-.17v-.37a2 2 0 0 0 .58-.25 2 2 0 0 0 .85-1.26c.34-1.38-.82-1.57-1.44-1.58zm-1.16-.52a.49.49 0 0 1 .21-.31 1 1 0 0 1 .24-.11v.89c-.52-.1-.45-.36-.42-.48zm1.56 2.1a.54.54 0 0 1-.23.38l-.17.08v-.92c.44.07.49.21.44.45z" fill="#eef7c2"/><path d="M54.27 43.74v2.91l-.11-.05a4.26 4.26 0 0 1-2.59-3.6 7.85 7.85 0 0 1 2.7.74z" fill="#a5cc3b"/><path d="M54.27 50.87v2.91a8.49 8.49 0 0 0-2.7-1v-.06c0-1.51 1.16-2.65 2.59-1.88z" fill="#a5cc3b"/><path d="M37.71 45.43v.05a1.72 1.72 0 0 1-2.59 1.61L35 47v-2.35a7.82 7.82 0 0 0 2.71.78z" fill="#a5cc3b"/><path d="M37.71 53.85v.05a8.55 8.55 0 0 1-2.71-1v-2.41l.11.06c1.44.76 2.6 1.95 2.6 3.3z" fill="#a5cc3b"/><path d="M52.77 51.12l-1 10c-6-4.38-13.07 1.6-19.09-2.78l.8-8.18c6.11 3.77 13.21-2.81 19.29.96z" fill="#c1d14a"/><path d="M50.95 59.41C45.46 56.48 39.24 61 33.76 58l.63-6.44c5.53 2.51 11.78-2.39 17.31.12z" fill="#a2b400"/><path d="M46 54.73c-.22 2.24-1.85 4.14-3.66 4.38s-3.09-1.38-2.89-3.47a5.13 5.13 0 0 1 3.66-4.38c1.79-.41 3.08 1.2 2.89 3.47z" fill="#c1d14a"/><path d="M43.15 54.67l.1-1a3.83 3.83 0 0 1 1 .28l.64-1a4.37 4.37 0 0 0-1.54-.36v-.5l-.74.15v.41a2.34 2.34 0 0 0-.65.23 2 2 0 0 0-.96 1.03c-.21.54-.32 1.49 1.29 1.76l-.1 1a4 4 0 0 1-1.07-.32l-.65 1a4.7 4.7 0 0 0 1.62.44v.48l.73-.1v-.41a2.08 2.08 0 0 0 .6-.2 2 2 0 0 0 1-1.17c.44-1.39-.69-1.65-1.27-1.72zM42 54a.49.49 0 0 1 .23-.29.91.91 0 0 1 .25-.09l-.09.89c-.49-.11-.39-.36-.39-.51zm1.35 2.25a.54.54 0 0 1-.26.36.74.74 0 0 1-.18.07l.09-.91c.43.12.47.23.39.51z" fill="#e8fcd1"/><path d="M52.77 51.12L52.49 54h-.11a4.27 4.27 0 0 1-2.23-3.81v-.06a7.84 7.84 0 0 1 2.62.99z" fill="#c1d14a"/><path d="M52.08 58.22l-.28 2.89a8.54 8.54 0 0 0-2.59-1.29v-.06c.15-1.51 1.41-2.53 2.76-1.62z" fill="#c1d14a"/><path d="M36.12 51.19v.05a1.71 1.71 0 0 1-2.74 1.35l-.11-.07.23-2.37a7.86 7.86 0 0 0 2.62 1.04z" fill="#c1d14a"/><path d="M35.3 59.58v.05a8.59 8.59 0 0 1-2.59-1.29l.23-2.34H33c1.39.94 2.43 2.23 2.3 3.58z" fill="#c1d14a"/><path d="M63 47.39l.36 1.15-8.1 2.56-.31-1a2.57 2.57 0 0 1 0-.79 2.77 2.77 0 0 1 .05-.41l7.4-2.33a2.64 2.64 0 0 1 .6.82z" fill="#fdbe00"/><path d="M63.66 49.94c.16-1.9-1.58-3.34-3.9-3.21s-4.33 1.78-4.49 3.68 1.59 3.34 3.9 3.2 4.32-1.77 4.49-3.67z" fill="#d49f00"/><path d="M63.56 49.64c.16-1.9-1.58-3.34-3.9-3.21s-4.33 1.78-4.49 3.68 1.58 3.34 3.9 3.21 4.33-1.78 4.49-3.68z" fill="#fdbe00"/><path d="M63.28 48.14a2.27 2.27 0 0 1 0 .43v.18c-.19 1.82-2.22 3.43-4.54 3.59a3.8 3.8 0 0 1-3.37-1.28 2.44 2.44 0 0 1-.3-.52 2.21 2.21 0 0 1-.13-.42 2.57 2.57 0 0 1 0-.79 2.77 2.77 0 0 1 .06-.43 4.92 4.92 0 0 1 4.45-3.16 4.12 4.12 0 0 1 2.95.83 2.64 2.64 0 0 1 .66.82 2.34 2.34 0 0 1 .22.75z" fill="#d49f00"/><path d="M63 49c.47-1.81-.92-3.36-3.11-3.47s-4.35 1.27-4.82 3.07.93 3.4 3.13 3.5 4.35-1.27 4.8-3.1z" fill="#ffffcd"/><path d="M63.19 49.22c.47-1.8-.92-3.36-3.12-3.47s-4.34 1.25-4.81 3.07.92 3.36 3.11 3.47 4.35-1.29 4.82-3.07z" fill="#ffda21"/><path d="M63 49.11c.46-1.77-.91-3.29-3.05-3.4a4.66 4.66 0 0 0-4.73 3c-.46 1.77.9 3.29 3.05 3.4a4.66 4.66 0 0 0 4.73-3z" fill="#ffff52"/><path d="M62.21 49.07c.36-1.4-.71-2.6-2.41-2.69a3.68 3.68 0 0 0-3.73 2.38c-.37 1.4.71 2.6 2.41 2.68a3.68 3.68 0 0 0 3.73-2.37z" fill="#ffb621"/><path d="M62.19 49.14c.36-1.36-.68-2.53-2.32-2.62a3.57 3.57 0 0 0-3.61 2.32c-.36 1.36.68 2.53 2.32 2.62a3.57 3.57 0 0 0 3.61-2.32z" fill="#ffe741"/><path d="M59.51 48.83l.17-.66a3.82 3.82 0 0 1 .74.34l.58-.57a4.52 4.52 0 0 0-1.13-.47l.08-.33h-.57l-.07.27a1.74 1.74 0 0 0-.51 0 1.33 1.33 0 0 0-.8.59c-.21.34-.39 1 .81 1.38l-.18.68a3.61 3.61 0 0 1-.79-.36l-.59.57a4.4 4.4 0 0 0 1.19.51l-.08.31h.57l.07-.27a1.82 1.82 0 0 0 .48-.05 1.35 1.35 0 0 0 .85-.65c.44-.8-.4-1.12-.82-1.29zm-.78-.6a.32.32 0 0 1 .21-.16h.2l-.15.58c-.4-.2-.31-.35-.26-.42zm.81 1.71a.36.36 0 0 1-.24.2h-.14l.15-.59c.29.13.31.24.23.38z" fill="#ffb621"/><path d="M59.41 48.72l.17-.66a3.7 3.7 0 0 1 .74.34l.58-.57a4.53 4.53 0 0 0-1.13-.48l.08-.32h-.57l-.07.27a1.8 1.8 0 0 0-.51 0 1.34 1.34 0 0 0-.82.58c-.22.34-.39 1 .81 1.39l-.18.68a3.61 3.61 0 0 1-.79-.36l-.59.57a4.3 4.3 0 0 0 1.19.51l-.08.32h.57l.07-.27a1.64 1.64 0 0 0 .48-.05 1.36 1.36 0 0 0 .85-.65c.47-.81-.37-1.16-.8-1.3zm-.77-.6a.31.31 0 0 1 .21-.16h.2l-.15.58c-.41-.19-.31-.35-.26-.42zm.81 1.71a.36.36 0 0 1-.24.2h-.15l.16-.6c.29.15.31.25.22.4z" fill="#ffffcd"/><path d="M59.45 48.76l.17-.66a3.8 3.8 0 0 1 .74.34l.58-.57a4.49 4.49 0 0 0-1.13-.47l.08-.33h-.57l-.07.27a1.73 1.73 0 0 0-.51 0 1.34 1.34 0 0 0-.82.57c-.22.34-.39 1 .81 1.39l-.18.68a3.63 3.63 0 0 1-.79-.36l-.59.57a4.21 4.21 0 0 0 1.19.51l-.08.32h.57l.07-.27a1.68 1.68 0 0 0 .48-.05 1.35 1.35 0 0 0 .85-.65c.47-.8-.38-1.15-.8-1.29zm-.78-.6a.33.33 0 0 1 .21-.16h.2l-.15.58c-.4-.19-.31-.35-.26-.42zm.81 1.71a.36.36 0 0 1-.23.2h-.14l.16-.59c.27.14.29.24.21.39z" fill="#ffff52"/><path fill="#d49f00" d="M56.53 52.77l-.14.05-.37-1.19.14-.04.37 1.18z"/><path fill="#d49f00" d="M56 52.32l-.14.04-.37-1.19.14-.04.37 1.19z"/><path fill="#d49f00" d="M57.06 53.08l-.14.04-.37-1.18.14-.04.37 1.18z"/><path fill="#d49f00" d="M57.817 52.269l.134-.04.36 1.186-.134.04z"/><path fill="#d49f00" d="M59.17 53.46l-.13.04-.38-1.18.14-.05.37 1.19z"/><path fill="#d49f00" d="M60.86 53l-.14.05-.37-1.19.14-.04.37 1.18z"/><path fill="#d49f00" d="M61.65 52.61l-.14.04-.37-1.18.14-.05.37 1.19z"/><path fill="#d49f00" d="M62.281 50.489l.134-.042.372 1.183-.134.042z"/><path fill="#d49f00" d="M63.17 51.11l-.14.04-.37-1.19.14-.04.37 1.19z"/><path fill="#d49f00" d="M57.73 53.31l-.14.05-.37-1.19.13-.04.38 1.18z"/><path fill="#d49f00" d="M59.452 52.16l.134-.042.372 1.183-.134.042z"/><path fill="#d49f00" d="M62.37 52.24l-.14.04-.38-1.18.14-.04.38 1.18z"/><path fill="#d49f00" d="M63.45 50.59l-.14.04-.37-1.18.14-.05.37 1.19z"/><path fill="#d49f00" d="M63.11 48.801l.134-.042.372 1.183-.133.042z"/><path d="M54.2 45.46l-.66.86-6.08-4.69.54-.73a2.29 2.29 0 0 1 .56-.44 2.41 2.41 0 0 1 .36-.17l5.51 4.26a2.36 2.36 0 0 1-.23.91z" fill="#fdbe00"/><path d="M52.63 47.22c1.48-.86 1.64-2.88.36-4.52s-3.54-2.28-5-1.42-1.64 2.88-.36 4.52 3.52 2.28 5 1.42z" fill="#d49f00"/><path d="M52.81 47c1.48-.86 1.64-2.88.36-4.52s-3.54-2.28-5-1.42-1.64 2.88-.36 4.52 3.51 2.28 5 1.42z" fill="#fdbe00"/><path d="M53.28 46c1.4-.78 1.52-2.69.26-4.26s-3.41-2.21-4.81-1.42-1.52 2.69-.26 4.26 3.41 2.16 4.81 1.42z" fill="#fdfbac"/><path d="M53.77 46a2.34 2.34 0 0 1-.31.24l-.14.09c-1.44.8-3.67.13-5-1.5a3.42 3.42 0 0 1-.79-3.14 2.2 2.2 0 0 1 .23-.49 2 2 0 0 1 .24-.3 2.29 2.29 0 0 1 .56-.44 2.41 2.41 0 0 1 .36-.17A4.42 4.42 0 0 1 53.56 42a3.7 3.7 0 0 1 .9 2.6 2.36 2.36 0 0 1-.26.9 2.15 2.15 0 0 1-.43.5z" fill="#d49f00"/><path d="M53.23 46c1.37-.77 1.49-2.64.26-4.18s-3.34-2.16-4.71-1.4-1.49 2.64-.26 4.18 3.34 2.18 4.71 1.4z" fill="#fdee31"/><path d="M52.76 45.43c1.08-.61 1.18-2.08.2-3.3A3.15 3.15 0 0 0 49.24 41c-1.08.61-1.17 2.08-.2 3.3a3.14 3.14 0 0 0 3.72 1.13z" fill="#ed9a00"/><path d="M52.71 45.45c1.06-.59 1.15-2 .21-3.19a3 3 0 0 0-3.61-1.05c-1.06.59-1.15 2-.21 3.2a3 3 0 0 0 3.61 1.04z" fill="#fecb20"/><path d="M51.28 43.42l.51-.29a3.72 3.72 0 0 1 .24.71h.7a4.49 4.49 0 0 0-.39-1.07l.25-.14-.33-.41-.21.12a1.76 1.76 0 0 0-.34-.32 1.13 1.13 0 0 0-.85-.21c-.34.06-.83.33-.37 1.4l-.53.3a3.71 3.71 0 0 1-.25-.76l-.71-.01a4.37 4.37 0 0 0 .41 1.13l-.24.14.33.41.21-.12a1.67 1.67 0 0 0 .32.29 1.14 1.14 0 0 0 .91.19c.81-.19.52-.98.34-1.36zm-.1-.9a.27.27 0 0 1 .22 0 .6.6 0 0 1 .13.12l-.45.25c-.08-.32.03-.35.1-.37zm-.57 1.6a.3.3 0 0 1-.26 0l-.1-.09.46-.26c.1.23.05.32-.09.36z" fill="#ed9a00"/><path d="M51.29 43.29l.51-.29a3.85 3.85 0 0 1 .24.71h.7a4.53 4.53 0 0 0-.39-1.07l.25-.14-.33-.41-.21.12a1.65 1.65 0 0 0-.34-.32 1.13 1.13 0 0 0-.85-.21c-.34.06-.83.33-.37 1.4l-.53.3a3.59 3.59 0 0 1-.25-.76l-.72-.01a4.26 4.26 0 0 0 .4 1.13l-.24.14.33.41.21-.12a1.67 1.67 0 0 0 .32.29 1.14 1.14 0 0 0 .92.19c.82-.19.52-.98.35-1.36zm-.1-.9a.27.27 0 0 1 .22 0 .76.76 0 0 1 .13.13l-.45.25c-.09-.33.03-.36.1-.37zM50.63 44a.3.3 0 0 1-.27 0l-.1-.09.46-.26c.1.24.05.35-.09.35z" fill="#fdfbac"/><path d="M51.29 43.34l.51-.29a3.79 3.79 0 0 1 .24.71h.7a4.53 4.53 0 0 0-.39-1.07l.25-.14-.33-.41-.21.12a1.62 1.62 0 0 0-.34-.32 1.12 1.12 0 0 0-.85-.21c-.34.06-.83.32-.37 1.4l-.53.29a3.58 3.58 0 0 1-.25-.76H49a4.33 4.33 0 0 0 .41 1.13l-.25.14.33.41.21-.12a1.6 1.6 0 0 0 .32.29 1.15 1.15 0 0 0 .91.19c.82-.19.53-.98.36-1.36zm-.1-.9a.26.26 0 0 1 .22 0 .66.66 0 0 1 .13.12l-.45.25c-.09-.33.03-.35.1-.37zM50.62 44a.29.29 0 0 1-.26 0l-.1-.09.46-.26c.1.29.04.35-.1.35z" fill="#fdee31"/><path fill="#d49f00" d="M46.88 43.42l-.1-.08.68-.88.1.08-.68.88z"/><path fill="#d49f00" d="M46.95 42.8l-.11-.08.69-.88.1.08-.68.88z"/><path fill="#d49f00" d="M46.93 43.98l-.1-.08.68-.89.1.08-.68.89z"/><path fill="#d49f00" d="M47.225 44.991l.693-.88.102.081-.693.88z"/><path fill="#d49f00" d="M47.74 45.73l-.11-.08.69-.89.1.08-.68.89z"/><path fill="#d49f00" d="M48.837 46.657l.684-.887.103.079-.684.887z"/><path fill="#d49f00" d="M49.63 47.11l-.1-.08.68-.88.11.08-.69.88z"/><path fill="#d49f00" d="M50.94 47.45l-.1-.08.68-.89.1.08-.68.89z"/><path fill="#d49f00" d="M51.418 47.393l.69-.882.102.08-.69.882z"/><path fill="#d49f00" d="M46.996 44.514l.685-.886.102.08-.684.886z"/><path fill="#d49f00" d="M48.15 46.138l.684-.887.103.079-.684.887z"/><path fill="#d49f00" d="M50.181 47.37l.684-.886.103.08-.684.886z"/><path fill="#d49f00" d="M51.952 47.319l.684-.888.103.08-.684.887z"/><path fill="#d49f00" d="M52.521 47.13l.68-.89.104.08-.68.89z"/><path fill="#cc5c69" d="M43.15 89.87H41.4l.04-7.98L45.73 83l-2.58 6.87z"/><path fill="#cc5c69" d="M31.39 89.87h-1.75L27.06 83l4.29-1.11.04 7.98z"/><path d="M20.94 66.84v-6.5s4.11 2.54 4.79 5.18z" fill="#ffa8b2"/><path d="M17.75 73.26a13 13 0 0 0 2.36 7.41 15.26 15.26 0 0 0 1 1.35 20 20 0 0 0 15.12 6.41c10.22 0 18.51-6.79 18.51-15.17S46.49 58.1 36.27 58.1s-18.52 6.79-18.52 15.16z" fill="#ff94a0"/><path d="M20.21 77.24a14.7 14.7 0 0 0 1.13 1.31c3.63 3.77 9.59 6.23 16.35 6.23 6.29 0 11.89-2.14 15.56-5.48-2.85 5.37-9.38 9.13-17 9.13A20 20 0 0 1 21.15 82a15.26 15.26 0 0 1-1-1.35 13 13 0 0 1-2.36-7.41 12.9 12.9 0 0 1 .08-1.33 12.26 12.26 0 0 0 2.34 5.33z" fill="#ff7081"/><path fill="#ff6375" d="M16.94 69.46h2.27v8.44h-2.27z"/><path fill="#ff7081" d="M47.18 90.12h-1.76l.04-5.53 4.3-1.34-2.58 6.87z"/><path fill="#ff7081" d="M27.73 90.12h-1.76l-2.58-6.87 4.3 1.34.04 5.53z"/><path d="M53.28 69.07a5.73 5.73 0 0 0 4.1-3.66s.58 5.28-4.1 6.1z" fill="#ff94a0"/><ellipse cx="26.71" cy="70.81" rx="1.19" ry="1.78"/><ellipse cx="27.06" cy="69.86" rx=".42" ry=".44" fill="#fff"/><ellipse cx="19.38" cy="73.68" rx="1.6" ry="4.24" fill="#ff7081"/><ellipse cx="16.78" cy="73.68" rx="1.6" ry="4.24" fill="#ffa8b2"/><ellipse cx="17.4" cy="72.87" rx=".33" ry=".86" fill="#ff6375"/><ellipse cx="15.92" cy="72.87" rx=".33" ry=".86" fill="#ff6375"/><ellipse cx="45.22" cy="63.17" rx="1.06" ry="1.11" fill="#ffd9dd"/><ellipse cx="47.94" cy="65.01" rx=".71" ry=".74" fill="#ffd9dd"/><path d="M42.69 60.71A17 17 0 0 0 32.44 60l.56 4a14.33 14.33 0 0 1 8.63.59z" fill="#8c4049"/><path d="M42.78 62a16.52 16.52 0 0 0-10.61-.73l.59 3.92a13.86 13.86 0 0 1 8.89.61z" fill="#ff94a0"/><path d="M30.2 67.28l-2.4-6.82s4.1 2.54 4.79 5.18z" fill="#ffa8b2"/><path d="M30.2 67.28l-.41-1.08-2.7.07.71-5.82a13.72 13.72 0 0 1 1.93 3.28 7.85 7.85 0 0 1 .47 3.55z" fill="#ff6375"/><path d="M56.79 57.62l-.26 1.23-8.7-1.85.17-1a2.64 2.64 0 0 1 .37-.74 2.85 2.85 0 0 1 .3-.35l7.9 1.68a2.78 2.78 0 0 1 .22 1.03z" fill="#fdbe00"/><path d="M56 60.25c1.12-1.64.27-3.84-1.9-4.9s-4.84-.6-6 1-.27 3.84 1.89 4.9 4.92.64 6.01-1z" fill="#d49f00"/><path d="M56.1 59.93c1.12-1.64.27-3.84-1.9-4.91s-4.84-.6-6 1S48 59.9 50.14 61s4.86.57 5.96-1.07z" fill="#fdbe00"/><path d="M56.61 58.43a2.56 2.56 0 0 1-.2.4l-.1.16c-1.11 1.55-3.77 2-5.95.93A4 4 0 0 1 48 57a2.51 2.51 0 0 1 0-.63 2.34 2.34 0 0 1 0-.37 2.64 2.64 0 0 1 .37-.74 2.85 2.85 0 0 1 .3-.35 5.12 5.12 0 0 1 5.65-.58 4.28 4.28 0 0 1 2.25 2.26 2.78 2.78 0 0 1 .18 1.08 2.43 2.43 0 0 1-.14.76z" fill="#d49f00"/><path d="M54.31 60c2.12-.63 3-2.56 2-4.3a5.19 5.19 0 0 0-5.71-2c-2.12.63-3 2.56-2 4.3a5.19 5.19 0 0 0 5.71 2z" fill="#fff6c8"/><path d="M54.2 60.21c2.12-.63 3-2.56 2-4.3a5.18 5.18 0 0 0-5.71-2c-2.12.63-3 2.56-2 4.3a5.19 5.19 0 0 0 5.71 2z" fill="#ffb91c"/><path d="M54.22 60c2.08-.62 2.93-2.51 1.92-4.21a5.08 5.08 0 0 0-5.6-2c-2.08.62-2.93 2.51-1.92 4.22a5.08 5.08 0 0 0 5.6 1.99z" fill="#ffe94d"/><path d="M53.84 59.38A2.21 2.21 0 0 0 55.35 56a4 4 0 0 0-4.42-1.56 2.21 2.21 0 0 0-1.51 3.33 4 4 0 0 0 4.42 1.61z" fill="#ff951c"/><path d="M53.76 59.4a2.15 2.15 0 0 0 1.49-3.22 3.9 3.9 0 0 0-4.25-1.5 2.15 2.15 0 0 0-1.49 3.22 3.89 3.89 0 0 0 4.25 1.5z" fill="#ffc63c"/><path d="M52.67 57.16l.78-.23a2.75 2.75 0 0 1 0 .75l.9.13a3.27 3.27 0 0 0-.1-1.13l.38-.11-.27-.45-.31.09a1.42 1.42 0 0 0-.32-.37 1.5 1.5 0 0 0-1-.31c-.47 0-1.2.23-1 1.38l-.8.24a2.62 2.62 0 0 1 0-.8l-.9-.14a3.28 3.28 0 0 0 .1 1.19l-.37.11.24.49.32-.09a1.39 1.39 0 0 0 .31.34 1.53 1.53 0 0 0 1.12.3c1.08-.14 1-.98.92-1.39zm.21-.92a.36.36 0 0 1 .27.07.54.54 0 0 1 .12.14l-.69.2c0-.4.21-.41.31-.41zm-1.34 1.56a.43.43 0 0 1-.33-.07.47.47 0 0 1-.09-.1l.7-.21c.02.29-.08.36-.28.38z" fill="#ff951c"/><path d="M52.73 57l.78-.23a2.82 2.82 0 0 1 0 .75l.9.13a3.31 3.31 0 0 0-.1-1.13l.38-.11-.23-.41-.32.09a1.43 1.43 0 0 0-.32-.37 1.52 1.52 0 0 0-1-.31c-.47 0-1.2.23-1 1.38L51 57a2.68 2.68 0 0 1 0-.8l-.9-.14a3.17 3.17 0 0 0 .1 1.19l-.37.11.27.45.32-.09a1.44 1.44 0 0 0 .31.34 1.57 1.57 0 0 0 1.12.3c1.04-.08.96-.92.88-1.36zm.21-.92a.35.35 0 0 1 .27.07.56.56 0 0 1 .12.14l-.68.2c-.01-.37.2-.38.3-.38zm-1.34 1.59a.42.42 0 0 1-.33-.07l-.1-.1.7-.21c.03.29-.07.36-.27.38z" fill="#fff6c8"/><path d="M52.71 57.08l.78-.23a2.75 2.75 0 0 1 0 .75l.9.13a3.33 3.33 0 0 0-.1-1.13l.38-.11-.24-.49-.31.09a1.4 1.4 0 0 0-.32-.37 1.51 1.51 0 0 0-1-.31c-.47 0-1.2.23-1 1.38l-.8.24a2.71 2.71 0 0 1 0-.8l-.9-.14a3.22 3.22 0 0 0 .1 1.19l-.37.11.27.45.32-.09a1.36 1.36 0 0 0 .31.34 1.56 1.56 0 0 0 1.12.3c1.02-.06.94-.9.86-1.31zm.21-.93a.37.37 0 0 1 .27.07.59.59 0 0 1 .12.14l-.68.2c-.01-.39.2-.4.29-.4zm-1.34 1.56a.43.43 0 0 1-.33-.07l-.09-.1.7-.21c.01.3-.09.37-.28.39z" fill="#ffe94d"/><path fill="#d49f00" d="M47.97 59.13l.27-1.262.147.031-.27 1.262z"/><path fill="#d49f00" d="M47.896 58.405l.27-1.264.148.032-.271 1.264z"/><path fill="#d49f00" d="M48.3 59.688l.26-1.263.147.03-.26 1.263z"/><path fill="#d49f00" d="M49.27 60.631l.269-1.261.147.031-.27 1.262z"/><path fill="#d49f00" d="M50.017 61.112l.269-1.262.146.031-.269 1.262z"/><path fill="#d49f00" d="M51.92 61.59l-.14-.03.27-1.27.15.04-.28 1.26z"/><path fill="#d49f00" d="M52.84 61.64l-.14-.03.27-1.27.14.03-.27 1.27z"/><path fill="#d49f00" d="M54.227 61.293l.267-1.262.147.031-.267 1.262z"/><path fill="#d49f00" d="M54.847 61.016l.27-1.262.146.032-.27 1.261z"/><path fill="#d49f00" d="M48.786 60.239l.27-1.262.146.032-.27 1.261z"/><path fill="#d49f00" d="M50.815 61.37l.27-1.262.146.032-.27 1.261z"/><path fill="#d49f00" d="M53.68 61.67l-.15-.03.27-1.26.15.03-.27 1.26z"/><path fill="#d49f00" d="M55.372 60.695l.268-1.262.147.031-.268 1.262z"/><path fill="#d49f00" d="M55.856 60.21l.27-1.261.146.03-.269 1.263z"/><path d="M8.42 41.87a31.9 31.9 0 0 1 23.64-30.8A29.14 29.14 0 0 0 4 40.18V88.7c0 .62 1.56 1.22 4.4 1.9z" style="mix-blend-mode:screen" fill="#fff" opacity=".4"/><path d="M63 40.18a29.14 29.14 0 0 0-23.71-28.64 29.14 29.14 0 0 1 21.58 28.14V90c1.41-.44 2.17-.86 2.17-1.3.02-.06-.04-48.52-.04-48.52z" style="mix-blend-mode:screen" fill="#fff" opacity=".4"/><path d="M5.66 40.15A33.12 33.12 0 0 1 23 12.87 29.13 29.13 0 0 0 4 40.18v28.28z" style="mix-blend-mode:screen" fill="#fff" opacity=".4"/><path d="M7.77 90.44l.65.16V79.14z" style="mix-blend-mode:screen" fill="#fff" opacity=".4"/></g></g></svg>