<svg xmlns="http://www.w3.org/2000/svg" viewBox="-0.5500001907348633 -0.14195489883422852 107.55000305175781 144.98196411132812"><title>Asset 1</title><g data-name="Layer 2"><path d="M104.32 71.24a95.35 95.35 0 0 1-6.41 15.22c-3.54 6.19-14.15 13-14.15 13h4c4 0 3.54 1.14 3.54 1.14s0 1.55-3.32 4.42-6 5.75-16.36 8.4-11.75-2.42-12.85-6.32-1.11-12-1.11-26.83S61.2 47.1 61.2 47.1l18.15-1.32a2.63 2.63 0 0 0 5 0 6.76 6.76 0 1 0 0-9.76 3.11 3.11 0 0 0-2.52-1.88c-1.24 0-2.34 1.15-3 2.91-2.22 0-5.22 0-9.05.09-9.51.22-10-1.11-10.39-4.42a3.59 3.59 0 0 1 .61-2.57 15.89 15.89 0 1 0-13.46.25 3.61 3.61 0 0 1 .46 2.33c-.44 3.32-.88 4.64-10.39 4.42-3.84-.09-6.83-.1-9.05-.09-.66-1.76-1.75-2.91-3-2.91A3.11 3.11 0 0 0 22 36a6.76 6.76 0 1 0 0 9.76 3.11 3.11 0 0 0 2.52 1.88 3.12 3.12 0 0 0 2.53-1.89l18.17 1.35s3.54 18.35 3.54 33.17 0 22.92-1.11 26.83-2.43 9-12.83 6.34-13-5.53-16.36-8.4-3.32-4.42-3.32-4.42-.44-1.17 3.54-1.14h4S12 92.65 8.51 86.46A95.29 95.29 0 0 1 2.1 71.24s-2.65 5-2 17.88A82.68 82.68 0 0 0 5 112.56l2.21-5.46s5.75 12.31 13.93 17.18 17.69 8.63 22.11 11.94c3.75 2.78 8.43 7.05 9.75 8.27v.35l.19-.18.19.18v-.35c1.34-1.22 6-5.46 9.79-8.27 4.42-3.32 13.93-7.07 22.11-11.94s13.95-17.18 13.95-17.18l2.21 5.46a82.7 82.7 0 0 0 4.87-23.44c.69-12.83-1.99-17.88-1.99-17.88zM53 5.68a10.2 10.2 0 1 1-10.2 10.2A10.2 10.2 0 0 1 53 5.68z" fill="#f48729" data-name="Layer 1"/></g></svg>