<svg xmlns="http://www.w3.org/2000/svg" viewBox="-0.07888936996459961 0.1044759750366211 50.16131591796875 49.871063232421875"><title>25968439_2_ic</title><g data-name="Layer 2"><g data-name="Layer 1"><g data-name="Layer 2"><path d="M48.72 23.85c-1.14 0-4.18.59-4.58.5s-.55-.5-.76-.4-.2.19-.2.19a.29.29 0 0 0-.4 0V24h-1v-.14h-.18a16.63 16.63 0 0 0-4.12-9.76V14l.7-.71-.11-.11a.29.29 0 0 0 .31-.34s.06.06.29 0 0-.49.26-.82 2.83-2 3.6-2.87a1.25 1.25 0 0 0 .11-1.74 1.25 1.25 0 0 0-1.74.1c-.85.76-2.5 3.37-2.87 3.6s-.74 0-.81.26 0 .27 0 .27a.27.27 0 0 0-.32.3l-.12-.12-.71.71-.16-.16v.06a16.62 16.62 0 0 0-9.75-4v-1h-.27a.29.29 0 0 0 0-.4s.1 0 .2-.21-.34-.36-.41-.76.59-3.38.5-4.63a1.16 1.16 0 1 0-2.31 0c0 1.14.59 4.17.51 4.57s-.49.55-.4.76.19.21.19.21a.27.27 0 0 0-.07.38l.07.07H24v1h-.22a7.81 7.81 0 0 0-1.34.15A16.62 16.62 0 0 0 14 12.52l-.72-.74-.12.12a.29.29 0 0 0-.27-.3h-.07s.06-.06 0-.27-.49 0-.82-.26-2-2.86-2.87-3.62a1.25 1.25 0 0 0-1.75-.1 1.25 1.25 0 0 0 .11 1.74c.76.85 3.37 2.5 3.6 2.87s0 .75.25.82.29 0 .29 0a.29.29 0 0 0 .23.33h.07l-.11.11.71.72a16.58 16.58 0 0 0-4.09 10h-1.1v.17a.29.29 0 0 0-.4 0s0-.1-.21-.19-.36.32-.76.4-3.38-.57-4.63-.47A1.16 1.16 0 1 0 1 26.16h.24c1.14 0 4.18-.59 4.58-.51s.55.49.76.4.21-.2.21-.2a.27.27 0 0 0 .38.07l.07-.07V26h1a16.55 16.55 0 0 0 4.14 10l-.72.71.11.11a.29.29 0 0 0-.3.34s-.06-.07-.29 0 0 .49-.25.82-2.83 2-3.6 2.87a1.25 1.25 0 0 0-.11 1.74A1.25 1.25 0 0 0 9 42.5c.84-.76 2.5-3.37 2.86-3.6s.75 0 .82-.25 0-.27 0-.27a.3.3 0 0 0 .34-.31l.12.12.71-.71a16.62 16.62 0 0 0 10 4.14v1h.17a.29.29 0 0 0 0 .4s-.1 0-.19.21.32.36.4.76-.51 3.41-.41 4.66a1.16 1.16 0 1 0 2.31 0c0-1.14-.59-4.18-.51-4.58s.5-.55.41-.76-.2-.21-.2-.21a.29.29 0 0 0 0-.4H26v-1a16.65 16.65 0 0 0 9.75-4l.17-.16.71.71.12-.12a.29.29 0 0 0 .26.31h.07s-.06.06 0 .27.47 0 .81.25 2 2.83 2.87 3.6A1.16 1.16 0 0 0 42.59 41l-.15-.15c-.76-.85-3.37-2.5-3.6-2.87s0-.74-.26-.82-.29 0-.29 0a.29.29 0 0 0-.23-.33H38l.11-.11-.61-.7V36a16.6 16.6 0 0 0 4.06-9.74h.12v-.16h1v-.22a.29.29 0 0 0 .4 0s0 .1.2.2.36-.32.76-.4 3.4.57 4.64.47a1.16 1.16 0 0 0 .32-2.31h-.24zM37 23.6a2.61 2.61 0 0 0-1.39.32 3.4 3.4 0 0 1-3.13-.17 7.4 7.4 0 0 0-1.37-3.22 3.42 3.42 0 0 1 2-2.36 2.56 2.56 0 0 0 1.25-.84 12.08 12.08 0 0 1 2.53 6.25zm-21.4 9.14a12.07 12.07 0 0 1-2.76-6.34 2.63 2.63 0 0 0 1.6-.32 3.42 3.42 0 0 1 3.06.17 7.9 7.9 0 0 0 1.37 3.23 3.38 3.38 0 0 1-2 2.35 2.5 2.5 0 0 0-1.26.91zm-.2-15.4a2.5 2.5 0 0 0 1.36 1 3.42 3.42 0 0 1 2.07 2.33 6.24 6.24 0 0 0-.35.55 7.49 7.49 0 0 0-1 2.68 3.41 3.41 0 0 1-3.11.22 2.63 2.63 0 0 0-1.59-.34 12.08 12.08 0 0 1 2.63-6.44zm12.23 3.15a5.24 5.24 0 1 1-7.18 1.87 5.24 5.24 0 0 1 7.18-1.87zm4.91-5a2.5 2.5 0 0 0-.84 1.25 3.41 3.41 0 0 1-2.35 2.07l-.54-.36a7.64 7.64 0 0 0-2.7-.94 3.42 3.42 0 0 1-.24-3.11 2.66 2.66 0 0 0 .35-1.55 12.06 12.06 0 0 1 6.24 2.65zm-9-2.65a2.65 2.65 0 0 0 .34 1.57 3.4 3.4 0 0 1-.19 3.1 7.59 7.59 0 0 0-3.22 1.36 3.41 3.41 0 0 1-2.36-2 2.5 2.5 0 0 0-1-1.35 12.07 12.07 0 0 1 6.4-2.65zm-6.09 21.67a2.5 2.5 0 0 0 .86-1.25 3.41 3.41 0 0 1 2.32-2.07l.55.35a7.4 7.4 0 0 0 2.7.95 3.38 3.38 0 0 1 .24 3.11 2.66 2.66 0 0 0-.36 1.4 12.06 12.06 0 0 1-6.31-2.49zm9 2.5a2.6 2.6 0 0 0-.32-1.39 3.41 3.41 0 0 1 .16-3.13 7.57 7.57 0 0 0 3.22-1.37 3.42 3.42 0 0 1 2.35 2 2.5 2.5 0 0 0 .76 1.16A12.07 12.07 0 0 1 26.41 37zm8-4.52a2.5 2.5 0 0 0-1.16-.74 3.41 3.41 0 0 1-2.07-2.35 5.89 5.89 0 0 0 .35-.54 7.78 7.78 0 0 0 1-2.75 3.4 3.4 0 0 1 3.1-.22 2.63 2.63 0 0 0 1.37.3 12.06 12.06 0 0 1-2.63 6.3z" fill="#fff" data-name="Layer 1-2"/></g></g></g></svg>