<svg xmlns="http://www.w3.org/2000/svg" viewBox="-0.07910013198852539 -1 80.49820709228516 76.10182189941406"><title>Depositphotos_111479236_09</title><g data-name="Layer 2"><g data-name="Layer 1"><g data-name="Layer 2"><g data-name="πœ h 1"><path d="M70.55 12.73c-2 0-3.89-1.94-6-4.18C61.15 5.05 57 .7 50.78 2.29c-3.71 1-6.51 5-7.77 8.1a.79.79 0 0 1-1.46-.59c1.4-3.48 4.56-7.94 8.84-9C57.48-1 62.2 3.9 65.65 7.5c1.94 2 3.62 3.77 5 3.69a.79.79 0 0 1 .09 1.57z" fill="#fff"/><path d="M9.83 12.73h-.19a.79.79 0 0 1 .09-1.57c1.38.08 3.05-1.67 5-3.69C18.18 3.87 22.9-1 30 .76c4.28 1.1 7.44 5.56 8.84 9a.79.79 0 0 1-1.46.59c-1.27-3.14-4.06-7.15-7.77-8.1C23.4.7 19.22 5.05 15.87 8.55c-2.15 2.24-4.01 4.18-6.04 4.18z" fill="#fff"/><path fill="#f1686c" d="M42.76 9.73h-5.14L40.19.79l2.57 8.94z"/><path d="M42.76 10.52h-5.14a.79.79 0 0 1-.76-1l2.57-9a.79.79 0 0 1 .76-.52.79.79 0 0 1 .76.57l2.55 8.87a.79.79 0 0 1-.73 1.07zm-4.1-1.58h3l-1.52-5.3z" fill="#fff"/><ellipse cx="40.19" cy="38.76" rx="5.33" ry="19.48" fill="#f1686c"/><path d="M40.19 59c-1.84 0-3.4-2.17-4.53-6.28a55.35 55.35 0 0 1-1.59-14 55.33 55.33 0 0 1 1.59-14c1.12-4.11 2.69-6.29 4.53-6.29s3.4 2.17 4.53 6.29a55.36 55.36 0 0 1 1.59 14 55.37 55.37 0 0 1-1.59 14C43.59 56.86 42 59 40.19 59zm0-39c-.74 0-2 1.34-3 5.12a53.76 53.76 0 0 0-1.53 13.57 53.76 53.76 0 0 0 1.53 13.57c1 3.78 2.27 5.13 3 5.13s2-1.34 3-5.12a53.76 53.76 0 0 0 1.53-13.57 53.76 53.76 0 0 0-1.52-13.5c-1-3.78-2.27-5.13-3-5.13z" fill="#fff"/><circle cx="40.19" cy="16.53" r="7.53" fill="#00a396"/><path d="M40.19 24.85a8.32 8.32 0 1 1 8.32-8.32 8.33 8.33 0 0 1-8.32 8.32zm0-15.07a6.75 6.75 0 1 0 6.75 6.75 6.75 6.75 0 0 0-6.75-6.75z" fill="#fff"/><path d="M42.47 23a.46.46 0 0 0-.5.62c3 7.38 9.11 12.84 16.8 14.22S74 36.16 79.46 30.33a.45.45 0 0 0-.25-.76z" fill="#b6e1e1"/><path d="M37.9 23a.46.46 0 0 1 .5.62c-3 7.38-9.1 12.84-16.79 14.22S6.33 36.16.92 30.33a.45.45 0 0 1 .25-.76z" fill="#b6e1e1"/><path d="M62.45 39a21.73 21.73 0 0 1-3.82-.34 22.1 22.1 0 0 1-10.51-5A25.83 25.83 0 0 1 41.25 24a1.24 1.24 0 0 1 1.15-1.72h.22l36.72 6.52a1.24 1.24 0 0 1 .66 2.07A24 24 0 0 1 62.45 39zM42.94 23.88c3.12 7 9 11.94 16 13.18a20.16 20.16 0 0 0 3.54.31 22.32 22.32 0 0 0 16-7.13z" fill="#fff"/><path d="M17.93 39A24 24 0 0 1 .34 30.87 1.24 1.24 0 0 1 1 28.8l36.73-6.58H38a1.24 1.24 0 0 1 1.15 1.72 25.84 25.84 0 0 1-6.87 9.64 22.1 22.1 0 0 1-10.51 5 21.73 21.73 0 0 1-3.84.42zm-16-8.71a22.32 22.32 0 0 0 16 7.13 20.17 20.17 0 0 0 3.54-.31c6.92-1.24 12.85-6.15 16-13.18z" fill="#fff"/><path d="M69.47 64.05h-.07c-9.35-.79-13.29-17-14.27-22a.91.91 0 0 0-.51-.65L45.18 37a.79.79 0 0 1 .66-1.43L55.29 40a2.49 2.49 0 0 1 1.39 1.77c.66 3.33 4.39 20 12.86 20.7a.79.79 0 0 1-.07 1.53z" fill="#fff"/><path d="M51.9 75.08a.79.79 0 0 1-.43-.13l-3.73-2.45a2.48 2.48 0 0 1-1.12-2c-.19-6.62 3.15-13.71 4.6-16.45a.9.9 0 0 0-.22-1.13l-6.5-5.16a.79.79 0 1 1 1-1.23l6.5 5.16a2.48 2.48 0 0 1 .65 3.1c-1.39 2.63-4.6 9.42-4.42 15.67a.91.91 0 0 0 .41.73l3.73 2.45a.79.79 0 0 1-.43 1.45z" fill="#fff"/><path d="M10.91 64.05a.79.79 0 0 1-.07-1.57c8.47-.71 12.2-17.37 12.86-20.7A2.49 2.49 0 0 1 25.09 40l9.44-4.38a.79.79 0 0 1 .66 1.43l-9.44 4.38a.91.91 0 0 0-.51.64c-1 5-4.92 21.18-14.27 22z" fill="#fff"/><path d="M28.48 75.08a.79.79 0 0 1-.48-1.45l3.73-2.45a.91.91 0 0 0 .41-.73c.18-6.25-3-13-4.42-15.67a2.48 2.48 0 0 1 .65-3.1l6.48-5.16a.79.79 0 1 1 1 1.23l-6.48 5.16a.9.9 0 0 0-.21 1.09c1.45 2.74 4.79 9.83 4.6 16.45a2.48 2.48 0 0 1-1.12 2l-3.73 2.5a.79.79 0 0 1-.43.13z" fill="#fff"/></g></g></g></g></svg>