<svg xmlns="http://www.w3.org/2000/svg" viewBox="-0.000003814697265625 -0.0003437995910644531 179.17343139648438 112.79034423828125"><title>Depositphotos_81117944_03</title><g data-name="Layer 2"><path fill="#1b1c20" d="M90.67 86.53V84h7.21v2.53z"/><path d="M94.29 86.34l-10.44 4.6a.89.89 0 0 0-.46.51 1.26 1.26 0 0 1-.88.77 1.27 1.27 0 0 1-.81-2.4 1.26 1.26 0 0 1 1.06 0 .8.8 0 0 0 .67 0l10.4-4.58a.56.56 0 0 1 .74.29.56.56 0 0 1-.28.81z" fill="#d8dadc"/><path d="M149.48 89.29h7.62a6.26 6.26 0 0 0 6.11-5l3.57-17.38-2-.4-3.52 17.39a4.26 4.26 0 0 1-4.16 3.39h-7.62a4.26 4.26 0 0 1-4.16-3.39l-3.57-17.38-2 .4 3.57 17.38a6.26 6.26 0 0 0 6.16 4.99z" fill="#7d471b"/><path fill="#7d471b" d="M109 84.08h14.04v3.84H109z"/><path fill="#945a2f" d="M90.102 54.733l2.424-1.362 20.72 36.878-2.423 1.362z"/><path fill="#663205" d="M75.32 89.39h77.96v2.94H75.32z"/><path fill="#663205" d="M133.21 76.5h43.39v3.84h-43.39z"/><path d="M136.09 60.31h33.82v7.55h-33.82a2.2 2.2 0 0 1-2.2-2.2v-3.15a2.2 2.2 0 0 1 2.2-2.2z" fill="#604538"/><path d="M130 49.37a3 3 0 0 1 2.25-1h18.78v1.5H132.3a1.5 1.5 0 0 0-1.49 1.69l.29 2.22h18.7v1.5h-18.5l.7 5.47a2.07 2.07 0 0 0 2 1.8h17V64h-17a3.57 3.57 0 0 1-3.54-3.11l-1.18-9.2a3 3 0 0 1 .72-2.32z" fill="#7d471b"/><path d="M140.79 62.31h35.8V76.5h-40.44v-9.56a4.64 4.64 0 0 1 4.64-4.63z" fill="#47ae64"/><path d="M145.48 62.3h30.74L163.6 1.17s-34.79.37-39.73.08a1.58 1.58 0 0 0-1.58 2.15z" fill="#1395ce"/><path d="M161 62.3h15.6l2.49-60a1.89 1.89 0 0 0-1.93-2.17c-4.9.29-11.63 1-16.15 1z" fill="#1395ce"/><path d="M160.72 62.3h2l.49-61.25a1 1 0 0 0-1-1.05h-1a1 1 0 0 0-1 1.05z" fill="#45aae1"/><path d="M156.35 62.42h2L144.82 1.31c-.13-.58-.44-1-1-1h-1c-.55 0-1.12.47-1 1z" fill="#45aae1"/><path fill="#7d471b" d="M133.21 80.33l-10.17 7.59v-3.84l10.17-7.58v3.83z"/><path fill="#945a2f" d="M37.54 52.41h55v2.26h-55z"/><path fill="#945a2f" d="M42.83 57.47h47.53v2.26H42.83z"/><path fill="#945a2f" d="M37.77 52.79l45.98 37.54-1.6 1.83-45.97-37.54 1.59-1.83z"/><path fill="#945a2f" d="M37.03 57.98l39.85 32.54-1.6 1.83L35.43 59.8l1.6-1.82z"/><path fill="#d8dadc" d="M85.493 74.592l7.539-29.791 1.997.505-7.539 29.791z"/><path fill="#d8dadc" d="M33.09 61.984l5.06-19.608 2.265.585-5.06 19.607z"/><path fill="#945a2f" d="M32.588 61.15l2.878-11.155 3.631.937-2.878 11.155z"/><path fill="#7d471b" d="M80.671 91.384l10.683-42.22 2.821.714-10.683 42.22z"/><path d="M75.79 91.84c0 .28-.68.69-.61 1s.89.31 1 .57-.49.83-.36 1.08.93.09 1.09.31-.28.92-.09 1.13.93-.14 1.13 0 0 1 .18 1.12.87-.36 1.11-.23.18.95.44 1 .75-.56 1-.49.4.87.68.91.6-.72.88-.72.61.75.88.72.41-.84.68-.91.77.59 1 .49.2-.92.44-1 .88.39 1.11.23 0-.94.18-1.12 1 .16 1.13 0-.25-.9-.09-1.13 1-.07 1.09-.31-.46-.82-.36-1.08.92-.29 1-.57-.64-.68-.61-1 .82-.5.82-.79-.79-.51-.82-.79.68-.69.61-1-.89-.31-1-.57.49-.83.36-1.08-.93-.09-1.09-.31.28-.92.09-1.13-.93.14-1.13 0 0-1-.18-1.12-.87.36-1.11.23-.18-.95-.44-1-.75.56-1 .49-.4-.87-.68-.91-.6.72-.88.72-.61-.75-.88-.72-.41.84-.68.91-.77-.59-1-.49-.2.92-.44 1-.88-.39-1.11-.23 0 .94-.18 1.12-1-.16-1.13 0 .25.9.09 1.13-1 .07-1.09.31.46.82.36 1.08-.92.29-1 .57.64.68.61 1-.82.5-.82.79.79.52.82.79zm.55-.79A5.92 5.92 0 1 1 82.25 97a5.92 5.92 0 0 1-5.92-5.94z" fill="#aeafb2"/><path d="M76 91.06a6.22 6.22 0 1 0 6.22-6.22A6.22 6.22 0 0 0 76 91.06zm10.17.58a1.8 1.8 0 1 1 1.15-2.26 1.8 1.8 0 0 1-1.12 2.26zm-2.91.83A1.8 1.8 0 1 1 82.9 95a1.8 1.8 0 0 1 .4-2.54zm-1-3.2a1.8 1.8 0 1 1 1.8-1.8 1.8 1.8 0 0 1-1.81 1.79zm-3.55 3.6a1.8 1.8 0 1 1 .4 2.51 1.8 1.8 0 0 1-.4-2.52zm-1.55-3.49a1.8 1.8 0 1 1 1.15 2.26 1.8 1.8 0 0 1-1.15-2.27z" fill="#c3c5c8"/><path d="M74.91 91.06a7.36 7.36 0 0 1 7.35-7.35c3.07 0 58.13 3.5 71.45 5.16a2.11 2.11 0 0 1 2.11 2.19 2.23 2.23 0 0 1-2 2.16c-13.3 3.12-67.38 5.19-71.55 5.19a7.36 7.36 0 0 1-7.36-7.35zm.78 0a6.58 6.58 0 0 0 6.57 6.57c4.16 0 58.13-2.05 71.38-5.16 1.4-.33 1.4-1.11 1.4-1.41s0-1.25-1.43-1.42c-13.3-1.65-68.29-5.15-71.35-5.15a6.58 6.58 0 0 0-6.58 6.57z" fill="#504f53"/><path d="M69.67 96l10.93-4.93a.89.89 0 0 0 .46-.52 1.26 1.26 0 0 1 .88-.78 1.27 1.27 0 0 1 .82 2.4 1.26 1.26 0 0 1-1.1 0 .78.78 0 0 0-.67 0L70.13 97z" fill="#d8dadc"/><path fill="#1b1c20" d="M65.747 95.581l7.21-.023.008 2.53-7.21.023z"/><rect x="147.37" y="86.64" width="11.85" height="3.52" rx=".81" ry=".81" fill="#39373a"/><path d="M132.84 91.06a20.41 20.41 0 1 0 20.41-20.41 20.41 20.41 0 0 0-20.41 20.41zm1.57 0a18.84 18.84 0 1 1 18.84 18.84 18.84 18.84 0 0 1-18.84-18.84z" fill="#c3c5c8"/><circle cx="153.25" cy="91.06" r="3.39" fill="#aeafb2"/><path d="M176.23 85l1.91-.61a26.11 26.11 0 0 0-49.42-1l1.88.68a24.11 24.11 0 0 1 45.64.92z" fill="#d8dadc"/><circle cx="153.25" cy="91.06" r="2.17" fill="#c3c5c8"/><path d="M131.52 91.06a21.73 21.73 0 1 0 21.73-21.73 21.73 21.73 0 0 0-21.73 21.73zm2.14 0a19.59 19.59 0 1 1 19.59 19.59 19.59 19.59 0 0 1-19.59-19.59z" fill="#1b1c20"/><path d="M1.32 91.06a20.41 20.41 0 1 0 20.41-20.42A20.41 20.41 0 0 0 1.32 91.06zm1.57 0a18.84 18.84 0 1 1 18.84 18.84A18.84 18.84 0 0 1 2.89 91.06z" fill="#c3c5c8"/><circle cx="21.73" cy="91.06" r="2.69" fill="#c3c5c8"/><path d="M44.85 91.34h1.36A24.54 24.54 0 0 0 10 69.77l.65 1.2a23.18 23.18 0 0 1 34.2 20.37z" fill="#d8dadc"/><path d="M0 91.06a21.73 21.73 0 1 0 21.73-21.73A21.73 21.73 0 0 0 0 91.06zm2.14 0a19.59 19.59 0 1 1 19.59 19.59A19.59 19.59 0 0 1 2.14 91.06z" fill="#1b1c20"/><path d="M20.94 66.82V90.3h1.65V66.82a.82.82 0 0 0-.82-.82.82.82 0 0 0-.83.82z" fill="#2573c1"/><path d="M21.22 92.67h.09c6.5-.43 7.91-5.94 8.58-8.59l5-19.25a1.36 1.36 0 1 0-2.64-.68l-5 19.26c-.84 3.29-1.94 6.27-6.12 6.55a1.36 1.36 0 0 0 .09 2.72z" fill="#945a2f"/><path d="M36.5 62.78l-.76 3-4.5-1.16.76-3a.6.6 0 0 1 .73-.43l3.34.86a.6.6 0 0 1 .43.73z" fill="#c3c5c8"/><path d="M21.75 78.73h7.56a.62.62 0 0 0 .62-.62v-2.85a.62.62 0 0 0-.62-.62h-7.56z" fill="#c3c5c8"/><path d="M21.75 79.28h-.08a1.91 1.91 0 0 1-1.91-1.91V76a1.91 1.91 0 0 1 1.91-1.91h.08z" fill="#d8dadc"/><path d="M21.75 84.16h7.56a.62.62 0 0 0 .62-.62v-2.85a.62.62 0 0 0-.62-.62h-7.56z" fill="#c3c5c8"/><path d="M21.75 84.71h-.08a1.91 1.91 0 0 1-1.91-1.91v-1.36a1.91 1.91 0 0 1 1.91-1.91h.08z" fill="#d8dadc"/><path d="M37.31 43H40a7.81 7.81 0 0 0 4.08-1.5 6.19 6.19 0 0 1 3.11-1.22h7a1.14 1.14 0 1 0 0-2.27h-7a8.12 8.12 0 0 0-4.29 1.56 5.84 5.84 0 0 1-2.9 1.11h-2.69a1.14 1.14 0 0 0 0 2.27z" fill="#d8dadc"/><path d="M49.89 40.45h7a1.36 1.36 0 1 0 0-2.73h-7c-.75 0-1.06.61-1.06 1.36s.31 1.37 1.06 1.37z" fill="#39373a"/><path d="M37.77 44.69h3.79a9.63 9.63 0 0 0 2.85-.57 14.16 14.16 0 0 1 4.5-.79 27.23 27.23 0 0 1 5.38.51.68.68 0 0 0 .3-1.33A28.21 28.21 0 0 0 48.9 42a15.53 15.53 0 0 0-4.9.85 8.51 8.51 0 0 1-2.45.51h-3.78a.68.68 0 0 0 0 1.36z" fill="#edeeef"/><rect x="39.28" y="40.38" width="1.14" height="4.62" rx=".22" ry=".22" fill="#c3c5c8"/><path d="M21.76 86.38c1.7 0 3.37-1.09 3.37-2.2h-.45c0 .77-1.37 1.74-2.92 1.74-2.76 0-4.2-2.32-4.2-4.62s.41-7.89 4.22-9.17c3.56-1.2 7.42-5.45 8.61-9.46C30.91 60.88 32 57 33 53.53s2.24-8 2.35-8.27a1.44 1.44 0 0 1 1.09-1h.4v-.45h-.4a1.87 1.87 0 0 0-1.52 1.29c-.12.33-1.35 4.66-2.36 8.3-1 3.44-2 7.35-2.57 9.13-1.14 3.89-4.88 8-8.32 9.16-4.09 1.38-4.53 7.18-4.53 9.6s1.57 5.09 4.62 5.09z" fill="#aeafb2"/><path d="M36.44 44.66h1.11v-1.14h-1.11A.44.44 0 0 0 36 44v.26a.44.44 0 0 0 .44.4z" fill="#68676c"/><path d="M83 41.91h16.83a1.32 1.32 0 0 1 1.25 1.39v.53a2.33 2.33 0 0 1-2.2 2.44h-6.59c-.8 0-4.93-1.18-6.85-1.18H83a1.35 1.35 0 0 1-1.27-1.41v-.35A1.35 1.35 0 0 1 83 41.91z" fill="#604538"/></g></svg>