<svg xmlns="http://www.w3.org/2000/svg" viewBox="0 0 85.44477844238281 102.0609130859375"><title>Depositphotos_94341268_01</title><g data-name="Layer 2"><rect width="85.44" height="102.05" rx="9.26" ry="9.26" fill="#04a82f"/><path d="M82.06 2.1L3.34 99.92a9.22 9.22 0 0 0 5.91 2.14h66.93a9.26 9.26 0 0 0 9.26-9.26V9.26a9.24 9.24 0 0 0-3.38-7.16z" fill="#047e38"/><path fill="#66c9ff" d="M9.26 9.26h66.93V92.8H9.26z"/><path d="M67.8 65.42C67.8 72.94 58.86 79 51.34 79H36.79c-7.52 0-19.3-15.19-19.3-15.19H67.8z" fill="#58595b"/><path fill="#ef4136" d="M21.28 59.33h21.44v-35.6l-21.44 35.6z"/><path fill="#ef4136" d="M64.08 59.33H47.36V31.57l16.72 27.76z"/><path fill="#2093fa" d="M9.26 73.33h66.93v19.46H9.26z"/><path d="M23.42 20.23h-5.94a3.56 3.56 0 1 1 0-7.12h5.93a3.56 3.56 0 1 1 0 7.12z" fill="#fff"/><path d="M30.54 23.08h-9.26a3.56 3.56 0 1 1 0-7.12h9.26a3.56 3.56 0 1 1 0 7.12z" fill="#fff"/><path d="M54.57 19.16h-8.73a3.56 3.56 0 1 1 0-7.12h8.72a3.56 3.56 0 1 1 0 7.12z" fill="#fff"/><path d="M67.2 24H49.84a3.56 3.56 0 0 1 0-7.12H67.2a3.56 3.56 0 0 1 0 7.12z" fill="#fff"/><path d="M67.8 34.89h-7.48a2.14 2.14 0 1 1 0-4.27h7.48a2.14 2.14 0 1 1 0 4.27z" fill="#fff"/><path d="M28.64 38.92H14.52a2.85 2.85 0 1 1 0-5.7h14.12a2.85 2.85 0 1 1 0 5.7z" fill="#fff"/><path d="M27.45 42.6h-6.64a2.85 2.85 0 0 1 0-5.7h6.65a2.85 2.85 0 1 1 0 5.7z" fill="#fff"/></g></svg>