<svg xmlns="http://www.w3.org/2000/svg" viewBox="0 0 52.65999984741211 85.83000183105469"><title>Depositphotos_75087729_08</title><g data-name="Layer 2"><g data-name="Layer 1"><path fill="#deebb9" d="M3.3 3.17h46.06v79.28H3.3z"/><path fill="#bcc79d" d="M3.3 43.41h31.89v6.29H3.3z"/><path fill="#bcc79d" d="M49.36 82.45H3.3L49.36 3.17v79.28z"/><path fill="#bcc79d" d="M3.3 3.17h9.94v79.79H3.3z"/><path fill="#634321" d="M1.77 37.45h50.87v6.47H1.77z"/><path fill="#bcc79d" d="M4.72 4.33h43.56v7.84H4.72z"/><path fill="#963" d="M0 0h6.6v85.83H0z"/><path fill="#963" d="M46.06 0h6.6v85.83h-6.6z"/><path fill="#c98643" d="M0 0h52.66v6.33H0z"/><path fill="#c98643" d="M0 79.28h52.66v6.33H0z"/><circle cx="3.17" cy="3.31" r="1.4" fill="#433649"/><circle cx="49.36" cy="3.31" r="1.4" fill="#433649"/><path fill="#754e27" d="M0 6.52h6.6v4.41H0z"/><path fill="#754e27" d="M46.06 6.52h6.6v4.41h-6.6z"/><path fill="#52371c" d="M6.61 37.45h6.65v6.47H6.61z"/></g></g></svg>