<svg xmlns="http://www.w3.org/2000/svg" xmlns:xlink="http://www.w3.org/1999/xlink" viewBox="-0.19999933242797852 0 95 131.29998779296875"><path d="M94.8 80.8c0 26.1-19.8 47.5-47.6 47.5S0 107.7 0 81.5C0 55.4 19.4 0 47.2 0 75 0 94.8 54.6 94.8 80.8z" fill="#fff"/><defs><path id="a" d="M91 79.5c0 24.1-18.2 43.7-43.8 43.7-25.6 0-43.5-19-43.5-43.1s17.9-75 43.5-75S91 55.4 91 79.5z"/></defs><use xlink:href="#a" overflow="visible" fill="#a1ecfc"/><clipPath id="b"><use xlink:href="#a" overflow="visible"/></clipPath><g clip-path="url(#b)"><path d="M67.9 21.8c1.1-1.5.9-3.5-.5-4.8-1.4-1.3-3.6-1.2-4.9.1-.7-1.7-2.6-2.6-4.3-2-1.9.6-2.9 2.6-2.4 4.5v.1c-.1.1-.1.1-.1.2-2-.2-3.7 1.3-3.9 3.2-.2 1.9 1.1 3.6 3 3.9l-.1.1c-1.2 1.6-.9 3.8.7 5 1.5 1.1 3.6.9 4.9-.5.8 1.6 2.8 2.4 4.5 1.7 1.8-.7 2.7-2.6 2.1-4.4 1.8.1 3.5-1.1 3.8-2.9.2-2-1-3.8-2.8-4.2z" fill="#fff"/><ellipse transform="rotate(-16.911 61.598 24.224)" cx="61.6" cy="24.2" rx="4.4" ry="4.4" fill="#78ecfc"/></g><g clip-path="url(#b)"><path d="M39.3 14.4c1.1-1.5.9-3.5-.5-4.8-1.4-1.3-3.6-1.2-4.9.1-.7-1.7-2.6-2.6-4.3-2-1.9.6-2.9 2.6-2.4 4.5v.1l-.2.2c-2-.2-3.7 1.3-3.9 3.2-.2 1.9 1.1 3.6 3 3.9l-.1.1c-1.2 1.6-.9 3.8.7 5 1.5 1.1 3.7.9 4.9-.5.8 1.6 2.8 2.4 4.5 1.7 1.8-.7 2.7-2.6 2.1-4.4 1.8.1 3.5-1.1 3.8-2.9.3-2-.9-3.7-2.7-4.2z" fill="#fff"/><ellipse transform="rotate(-16.911 33.016 16.872)" cx="33" cy="16.9" rx="4.4" ry="4.4" fill="#78ecfc"/></g><g clip-path="url(#b)"><path d="M16.2 48.3c1.1-1.5.9-3.5-.5-4.8-1.4-1.3-3.6-1.2-4.9.1-.7-1.7-2.6-2.6-4.3-2-1.9.6-2.9 2.6-2.4 4.5v.1c-.1.1-.1.2-.2.2-2-.2-3.7 1.3-3.9 3.2-.2 1.9 1.1 3.6 3 3.9l-.1.1c-1.2 1.6-.9 3.8.7 5 1.5 1.1 3.7.9 4.9-.5.8 1.6 2.8 2.4 4.5 1.7 1.8-.7 2.7-2.6 2.1-4.4 1.8.1 3.5-1.1 3.8-2.9.3-2-.9-3.7-2.7-4.2z" fill="#fff"/><ellipse transform="rotate(-16.922 9.868 50.758)" cx="9.9" cy="50.8" rx="4.4" ry="4.4" fill="#78ecfc"/></g><g clip-path="url(#b)"><path d="M54.1 76.5c1.1-1.5.9-3.5-.5-4.8-1.4-1.3-3.6-1.2-4.9.1-.7-1.7-2.6-2.6-4.3-2-1.9.6-2.9 2.6-2.4 4.5v.1c0 .1-.1.1-.1.2-2-.2-3.7 1.3-3.9 3.2-.2 1.9 1.1 3.6 3 3.9l-.1.1c-1.2 1.6-.9 3.8.7 5 1.5 1.1 3.7.9 4.9-.5.8 1.6 2.8 2.4 4.5 1.7 1.8-.7 2.7-2.6 2.1-4.4 1.8.1 3.5-1.1 3.8-2.9.2-2-1-3.8-2.8-4.2z" fill="#fff"/><ellipse transform="rotate(-16.922 47.777 78.906)" cx="47.8" cy="78.9" rx="4.4" ry="4.4" fill="#78ecfc"/></g><g clip-path="url(#b)"><path d="M26.7 119.1c1.1-1.5.9-3.5-.5-4.8-1.4-1.3-3.6-1.2-4.9.1-.7-1.7-2.6-2.6-4.3-2-1.9.6-2.9 2.6-2.4 4.5v.1c-.1.1-.1.1-.1.2-2-.2-3.7 1.3-3.9 3.2-.2 1.9 1.1 3.6 3 3.9l-.1.1c-1.2 1.6-.9 3.8.7 5 1.5 1.1 3.6.9 4.9-.5.8 1.6 2.8 2.4 4.5 1.7 1.8-.7 2.7-2.6 2.1-4.4 1.8.1 3.5-1.1 3.8-2.9.2-2-1-3.8-2.8-4.2z" fill="#fff"/><ellipse transform="rotate(-16.922 20.344 121.508)" cx="20.4" cy="121.5" rx="4.4" ry="4.4" fill="#78ecfc"/></g><g clip-path="url(#b)"><path d="M86 114c1.1-1.5.9-3.5-.5-4.8-1.4-1.3-3.6-1.2-4.9.1-.7-1.7-2.6-2.6-4.3-2-1.9.6-2.9 2.6-2.4 4.5v.1l-.2.2c-2-.2-3.7 1.3-3.9 3.2-.2 1.9 1.1 3.6 3 3.9l-.1.1c-1.2 1.6-.9 3.8.7 5 1.5 1.1 3.6.9 4.9-.5.8 1.6 2.8 2.4 4.5 1.7 1.8-.7 2.7-2.6 2.1-4.4 1.8.1 3.5-1.1 3.8-2.9.3-1.9-.9-3.7-2.7-4.2z" fill="#fff"/><ellipse transform="rotate(-16.913 79.705 116.499)" cx="79.7" cy="116.5" rx="4.4" ry="4.4" fill="#78ecfc"/></g><g clip-path="url(#b)"><path d="M77.7 52.7c1.1-1.5.9-3.5-.5-4.8-1.4-1.3-3.6-1.2-4.9.1-.7-1.7-2.6-2.6-4.3-2-1.9.6-2.9 2.6-2.4 4.5v.1l-.2.2c-2-.2-3.7 1.3-3.9 3.2-.2 1.9 1.1 3.6 3 3.9l-.1.1c-1.2 1.6-.9 3.8.7 5 1.5 1.1 3.6.9 4.9-.5.8 1.6 2.8 2.4 4.5 1.7 1.8-.7 2.7-2.6 2.1-4.4 1.8.1 3.5-1.1 3.8-2.9.3-2-.9-3.7-2.7-4.2z" fill="#fff"/><ellipse transform="rotate(-16.922 71.38 55.16)" cx="71.4" cy="55.2" rx="4.4" ry="4.4" fill="#78ecfc"/></g><g clip-path="url(#b)"><path d="M47.7 47.2c1.5-2.1 1.2-5.1-.8-6.9-2.1-1.8-5.2-1.7-7.1.2-1-2.4-3.7-3.7-6.3-3-2.7.8-4.3 3.7-3.4 6.4 0 .1 0 .1.1.2-.1.1-.1.2-.2.3-2.8-.2-5.3 1.8-5.6 4.7-.3 2.7 1.6 5.1 4.3 5.6l-.2.2c-1.7 2.3-1.3 5.5 1 7.2 2.2 1.6 5.3 1.3 7-.8 1.2 2.3 4 3.4 6.5 2.4 2.6-1 3.9-3.8 3-6.4 2.6.2 5-1.6 5.5-4.2.6-2.7-1.2-5.2-3.8-5.9z" fill="#fff"/><ellipse transform="rotate(-16.913 38.596 50.771)" cx="38.6" cy="50.8" rx="6.4" ry="6.4" fill="#78ecfc"/></g><g clip-path="url(#b)"><path d="M89.6 78.3c1.5-2.1 1.2-5.1-.8-6.9-2.1-1.8-5.2-1.7-7.1.2-1-2.4-3.7-3.7-6.3-3-2.7.8-4.3 3.7-3.4 6.4 0 .1 0 .1.1.2-.1.1-.1.2-.2.3-2.8-.2-5.3 1.8-5.6 4.7-.3 2.7 1.6 5.1 4.3 5.6l-.2.2c-1.7 2.3-1.3 5.5 1 7.2 2.2 1.6 5.3 1.3 7-.8 1.2 2.3 4 3.4 6.5 2.4 2.6-1 3.9-3.8 3-6.4 2.6.2 5-1.6 5.5-4.3.6-2.5-1.2-5.1-3.8-5.8z" fill="#fff"/><ellipse transform="rotate(-16.911 80.489 81.875)" cx="80.5" cy="81.9" rx="6.4" ry="6.4" fill="#78ecfc"/></g><g clip-path="url(#b)"><path d="M57.1 110.1c1.5-2.1 1.2-5.1-.8-6.9-2.1-1.8-5.2-1.7-7.1.2-1-2.4-3.7-3.7-6.3-3-2.7.8-4.3 3.7-3.4 6.4 0 .1 0 .1.1.2-.1.1-.1.2-.2.3-2.8-.2-5.3 1.8-5.6 4.7-.3 2.7 1.6 5.1 4.3 5.6l-.2.2c-1.7 2.3-1.3 5.5 1 7.2 2.2 1.6 5.3 1.3 7-.8 1.2 2.3 4 3.4 6.5 2.4 2.6-1 3.9-3.8 3-6.4 2.6.2 5-1.6 5.5-4.3.5-2.6-1.2-5.2-3.8-5.8z" fill="#fff"/><ellipse transform="rotate(-16.913 47.976 113.601)" cx="48" cy="113.6" rx="6.4" ry="6.4" fill="#78ecfc"/></g><g clip-path="url(#b)"><path d="M25.6 84.6c1.5-2.1 1.2-5.1-.8-6.9-2.1-1.8-5.2-1.7-7.1.2-1-2.4-3.7-3.7-6.3-3-2.7.8-4.3 3.7-3.4 6.4 0 .1 0 .1.1.2-.1.1-.1.2-.2.3-2.8-.2-5.3 1.8-5.6 4.7-.3 2.7 1.6 5.1 4.3 5.6l-.2.2c-1.7 2.3-1.3 5.5 1 7.2 2.2 1.6 5.3 1.3 7-.8 1.2 2.3 4 3.4 6.5 2.4 2.6-1 3.9-3.8 3-6.4 2.6.2 5-1.6 5.5-4.3.6-2.5-1.1-5.1-3.8-5.8z" fill="#fff"/><ellipse transform="rotate(-16.911 16.531 88.171)" cx="16.5" cy="88.2" rx="6.4" ry="6.4" fill="#78ecfc"/></g></svg>