<svg xmlns="http://www.w3.org/2000/svg" viewBox="-0.027650833129882812 0 1137.4600830078125 874"><title>Depositphotos_67278179_09</title><g data-name="Layer 2"><g data-name="Layer 1"><g data-name="Layer 2"><path fill="#83c882" d="M391.96 168.9h351.62v86.94H391.96z"/><path fill="#83c882" d="M391.96 325.3h351.62v86.94H391.96z"/><path fill="#83c882" d="M393.23 12.5h351.62v86.94H393.23z"/><path d="M1117.89 655.55a134.1 134.1 0 0 0-7.28-27.7c-7.85-20.56-19.31-34.53-34.05-41.54-2.46-10.75-6.8-22.7-14.45-31-15.13-16.33-27.25-21.88-48-22h-.29c-20.22 0-41.75 6-56.38 11.06L840.5 578.64a52.11 52.11 0 0 0 5-37c-3.5-14.64-12.89-27.2-26.5-35.31a64.15 64.15 0 0 0-45.49-7.63l-157.59 27.45c-22.63-1.7-43.84-4.08-63.06-7.07-12.32-1.92-25-4.27-37.22-6.54-54.74-10.15-111.35-20.65-172-1.53-88.36 28.6-144.25 45.27-157.24 49.11l-31.86-5.57A13 13 0 0 0 144.4 557a11.07 11.07 0 0 0-4.46 8.71l-1.13 193.59a11 11 0 0 0 4.08 8.53 12.83 12.83 0 0 0 8.16 2.9 13.29 13.29 0 0 0 1.43-.07c1-.11 100.73-10.76 134.57-13.49l394 47.18a11.86 11.86 0 0 0 1.29.09h.66c9.61 0 40.08-3.54 49.18-6.52l.18-.06L1110 667.56a11.32 11.32 0 0 0 7.89-12.01z" fill="#fff4e9"/><path fill="#83c882" d="M12.5 454.55h136.37v406.94H12.5z"/><path d="M226.27 539.55c-20.29 6.75-33.62 11.06-39.2 12.85l-32.48-6.06a12.5 12.5 0 0 0-14.79 12.24l-.8 212.84a12.5 12.5 0 0 0 14 12.46c.62-.07 36.81-4.31 73.3-8.39z" fill="#84cfcc"/><path d="M567.77 261.3a12.5 12.5 0 0 1-12.5-12.5V175a12.5 12.5 0 0 1 25 0v73.8a12.5 12.5 0 0 1-12.5 12.5z" fill="#443e40"/><path d="M508 261.3a12.5 12.5 0 0 1-12.5-12.5V175a12.5 12.5 0 0 1 25 0v73.8a12.5 12.5 0 0 1-12.5 12.5z" fill="#443e40"/><path d="M627.52 261.3A12.5 12.5 0 0 1 615 248.82V175a12.5 12.5 0 0 1 25 0v73.8a12.5 12.5 0 0 1-12.48 12.5z" fill="#443e40"/><path d="M448.28 261.3a12.5 12.5 0 0 1-12.5-12.5V175a12.5 12.5 0 0 1 25 0v73.8a12.5 12.5 0 0 1-12.5 12.5z" fill="#443e40"/><path d="M687.27 261.3a12.5 12.5 0 0 1-12.5-12.5V175a12.5 12.5 0 0 1 25 0v73.8a12.5 12.5 0 0 1-12.5 12.5z" fill="#443e40"/><path d="M567.77 418a12.5 12.5 0 0 1-12.5-12.5v-73.86a12.5 12.5 0 0 1 25 0v73.84A12.5 12.5 0 0 1 567.79 418z" fill="#443e40"/><path d="M508 418a12.5 12.5 0 0 1-12.5-12.5v-73.86a12.5 12.5 0 0 1 25 0v73.84A12.5 12.5 0 0 1 508 418z" fill="#443e40"/><path d="M627.52 418A12.5 12.5 0 0 1 615 405.5v-73.86a12.5 12.5 0 0 1 25 0v73.84A12.5 12.5 0 0 1 627.54 418z" fill="#443e40"/><path d="M448.28 418a12.5 12.5 0 0 1-12.5-12.5v-73.86a12.5 12.5 0 0 1 25 0v73.84A12.5 12.5 0 0 1 448.3 418z" fill="#443e40"/><path d="M687.27 418a12.5 12.5 0 0 1-12.5-12.5v-73.86a12.5 12.5 0 0 1 25 0v73.84A12.5 12.5 0 0 1 687.29 418z" fill="#443e40"/><path d="M743.58 268.33H392a12.5 12.5 0 0 1-12.5-12.5V168.9a12.5 12.5 0 0 1 12.5-12.5h351.58a12.5 12.5 0 0 1 12.5 12.5v86.94a12.5 12.5 0 0 1-12.5 12.49zm-339.12-25h326.62V181.4H404.46z" fill="#443e40"/><path d="M743.58 424.73H392a12.5 12.5 0 0 1-12.5-12.5V325.3a12.5 12.5 0 0 1 12.5-12.5h351.58a12.5 12.5 0 0 1 12.5 12.5v86.94a12.5 12.5 0 0 1-12.5 12.49zm-339.12-25h326.62V337.8H404.46z" fill="#443e40"/><path d="M744.85 111.94H393.23a12.5 12.5 0 0 1-12.5-12.5V12.5A12.5 12.5 0 0 1 393.23 0h351.62a12.5 12.5 0 0 1 12.5 12.5v86.94a12.5 12.5 0 0 1-12.5 12.5zm-339.13-25h326.63V25H405.73z" fill="#443e40"/><path d="M569 105.18a12.5 12.5 0 0 1-12.5-12.5V18.84a12.5 12.5 0 0 1 25 0v73.84a12.5 12.5 0 0 1-12.5 12.5z" fill="#443e40"/><path d="M509.29 105.18a12.5 12.5 0 0 1-12.5-12.5V18.84a12.5 12.5 0 1 1 25 0v73.84a12.5 12.5 0 0 1-12.5 12.5z" fill="#443e40"/><path d="M628.79 105.18a12.5 12.5 0 0 1-12.5-12.5V18.84a12.5 12.5 0 0 1 25 0v73.84a12.5 12.5 0 0 1-12.5 12.5z" fill="#443e40"/><path d="M449.55 105.18A12.5 12.5 0 0 1 437 92.73V18.84a12.5 12.5 0 0 1 25 0v73.84a12.5 12.5 0 0 1-12.45 12.5z" fill="#443e40"/><path d="M688.53 105.18A12.5 12.5 0 0 1 676 92.71V18.84a12.5 12.5 0 0 1 25 0v73.84a12.5 12.5 0 0 1-12.47 12.5z" fill="#443e40"/><path d="M693.74 820h-.64a12.36 12.36 0 0 1-1.32-.1l-403-51.25a12.5 12.5 0 1 1 3-24.82h.19L694.21 795c8.21 0 35.66-3.89 41.18-5.8l374.8-140.31c-3.5-15.63-11.87-39.63-27.3-47.34a12.5 12.5 0 0 1 11.18-22.36c15.23 7.62 27.07 23 35.18 45.82a157 157 0 0 1 7.48 30.43 12.5 12.5 0 0 1-8 13.22L744 812.62l-.19.07c-9.23 3.31-40.28 7.31-50.07 7.31z" fill="#443e40"/><path d="M151.49 784a12.5 12.5 0 0 1-1.44-24.92c4.3-.5 105.7-12.39 139.21-15.3a12.5 12.5 0 1 1 2.17 24.91C258.3 771.54 154 783.76 153 783.88a12.71 12.71 0 0 1-1.51.12z" fill="#443e40"/><path d="M187.88 577.76a12.5 12.5 0 0 1-2.29-.21L150 570.91a12.5 12.5 0 1 1 4.59-24.58l32.48 6.06c13.24-4.25 70.17-22.69 160.18-54.31a12.5 12.5 0 1 1 8.29 23.59C252.23 558 192.24 577 191.65 577.18a12.49 12.49 0 0 1-3.77.58z" fill="#443e40"/><path d="M675.13 766.33a12.5 12.5 0 0 1 0-25c7.6 0 37.1-4.73 42.66-6.84l346.08-131.59c3.26-1.24 6.09-2.46 8.4-3.53-1.26-12.83-4.86-30-11.54-37.71-11.4-13.22-17.23-15.35-30.13-15.39h-.21c-13.26 0-30.61 3.82-48.9 10.77l-.65.23-126.67 40.27a12.72 12.72 0 0 1-1.29.33l-139.49 28.45a12.5 12.5 0 1 1-5-24.5l138.84-28.31 125.71-40c14.9-5.64 36.83-12.28 57.44-12.28h.29c21.17.06 33.54 6.14 49 24.06 16.62 19.27 18 56.91 18.1 61.14a12.5 12.5 0 0 1-6.15 11.07 134.17 134.17 0 0 1-18.86 8.72L726.67 757.86c-9.58 3.64-42.36 8.47-51.54 8.47z" fill="#443e40"/><path d="M413.43 699.54a12.5 12.5 0 0 1-2.78-24.69c22.41-5.14 64.79-17.3 126-36.15q.5-.16 1-.27l268.8-58.54a36.78 36.78 0 0 0-15.87-71.83l-.36.08L627.89 539a12.55 12.55 0 0 1-3.3.18c-24.4-1.89-47.32-4.59-68.11-8-12.94-2.15-26-4.74-38.71-7.25-55-10.89-106.94-21.17-162.34-2.2a12.5 12.5 0 1 1-8.35-23.57l.25-.08c61.75-21.14 119.47-9.72 175.29 1.33 12.48 2.47 25.39 5 38 7.11 19.61 3.25 41.23 5.83 64.29 7.65l160.5-30.54a61.78 61.78 0 0 1 26.39 120.68l-268.32 58.44C482 681.69 439.18 694 416.24 699.22a12.52 12.52 0 0 1-2.81.32z" fill="#443e40"/><path d="M148.87 874H12.5A12.5 12.5 0 0 1 0 861.5V454.55A12.5 12.5 0 0 1 12.45 442h136.42a12.5 12.5 0 0 1 12.5 12.5v407a12.5 12.5 0 0 1-12.49 12.5zM25 849h111.37V467H25z" fill="#443e40"/></g></g></g></svg>