<svg xmlns="http://www.w3.org/2000/svg" viewBox="-1.059999942779541 -0.5 397.9899926185608 852.2501220703125"><title>Depositphotos_109451868_04</title><g data-name="Layer 2"><g data-name="Layer 1"><path d="M169.29 834.28c-3.37-.3-7.12-.42-9.84-2.29a2.3 2.3 0 0 1-.05.7c-.86 1.36-15.86 6.55-21.12 7.27s-5.62 4.57-5.42 8.16 11.23 3.55 25.57 3.59 42.8-2.38 47.22-2.84 8.53.74 8.65-4.78c0-2-.13-7.64-.37-14.68a103.5 103.5 0 0 1-44.64 4.87z" fill="#663b1f"/><path d="M288.11 683.22c.49-35.57-2.15-168.56-2.93-183.47S284 478.21 284 478.21s-2.83-22.13-3.93-22.42-150 8.82-150 8.82a669.68 669.68 0 0 0 2.17 72c3.32 37.72 14.21 127.31 16.41 159.62 2.11 31 10.81 126.56 10.78 135.73 2.72 1.87 6.47 2 9.84 2.29a103.5 103.5 0 0 0 44.65-4.88c-.43-12.3-1.09-28.91-1.25-38-.24-14.35-4.79-148.76-6-168.37s-5.09-96.37-5.09-96.37l21-.93S232 586 233.29 641.77s3.29 115.91 2.35 146.78c-.49 16.16-.81 31-.6 41.67 14.34 3.42 29.44 2.31 43.86-1.29a16.31 16.31 0 0 0 5.08-2.19 1.8 1.8 0 0 1-.59-1c-.23-2.74 4.23-106.95 4.72-142.52z" fill="#527d81"/><path d="M308 837c-8-2.38-21.06-7.27-24-10.27a16.31 16.31 0 0 1-5.08 2.19c-14.41 3.6-29.51 4.72-43.86 1.29.19 9.69.8 15.86 2.11 16.28 2.74.89 25.59 2.76 39.11 2.5s35.3.21 35.89-1.43S317 839.68 308 837z" fill="#663b1f"/><path d="M270.21 519.07c-4.21.88-8.48 1-12.74 1.36s-8.78 1-13.16 1.5c-9 1.08-18.11 2.33-27.21 2.88-4.47.27-9 .24-13.44.2s-9 .07-13.52.05c-9 0-17.93-.62-26.9-.66a31.22 31.22 0 0 0-3.92.32.44.44 0 0 0 0 .85 124.62 124.62 0 0 0 13.05 1.13c4.47.28 8.94.52 13.42.66 4.25.13 8.49 0 12.73 0a64.71 64.71 0 0 1-13.54 6c-3 1-6 1.81-9 2.67-2.78.79-6.21 1.36-8.58 3.08-.44.32-.37 1.12.28 1.11 2.93 0 6-1.33 8.82-2.13 3.16-.9 6.3-1.82 9.41-2.88 4.51-1.53 9.29-3.39 13.2-6.28-.27.42-.55.82-.85 1.21a45 45 0 0 1-4.46 4.83 61.18 61.18 0 0 1-4.85 4.14c-1.35 1-3.14 2-4.15 3.37-.31.43.17.9.6.82 1.76-.3 3.41-1.82 4.79-2.89a56.41 56.41 0 0 0 5.12-4.48 38.59 38.59 0 0 0 4.29-5 15.5 15.5 0 0 0 2.12-3.59c3.68 0 7.35.1 11 0 3.18-.06 6.37-.26 9.55-.53 1 .15 1.95.28 2.92.41a.59.59 0 0 0 0 .7c2 2.56 4.45 4.84 6.71 7.19s4.25 5 6.93 6.62a.42.42 0 0 0 .59-.56c-1.5-2.75-4.19-5-6.35-7.18a81.76 81.76 0 0 0-6.31-6.12c3.42 1.56 6.73 3.33 10.22 4.75 2.31.94 4.63 1.86 7 2.73s4.81 2 7.34 2.27c.44 0 .49-.52.22-.74-1.88-1.48-4.31-2.27-6.51-3.14-2.48-1-5-1.92-7.46-2.92-2.24-.9-4.4-1.91-6.57-2.95 3.44.35 6.88.63 10.32.9s6.81.51 10.22.7 7.1.79 10.32-.08a.52.52 0 0 0 0-1c-3-1-6.6-.71-9.76-.87-3.41-.18-6.81-.41-10.22-.66-3.8-.28-7.61-.63-11.42-.9 3.06-.36 6.11-.74 9.15-1.11 4.46-.54 8.92-1.11 13.38-1.64 4.25-.5 8.55-.75 12.77-1.5a42.22 42.22 0 0 0 4.89-1.23.79.79 0 0 0-.44-1.41z" fill="#3b5e62"/><path d="M202 674a120.27 120.27 0 0 1-9.31 13.54 61.83 61.83 0 0 1-5.46 5.87c-2 1.87-4.51 3.28-6.32 5.3a.5.5 0 0 0 .47.85c2.44-.66 4.54-2.66 6.38-4.31a52.33 52.33 0 0 0 5.91-6.33 96.08 96.08 0 0 0 9.33-14.37.56.56 0 0 0-1-.55z" fill="#3b5e62"/><path d="M198 690c-.93 2.07-2 4.09-3.1 6.06a51.65 51.65 0 0 0-3.28 5.56c-.17.42.42.71.71.43a22.13 22.13 0 0 0 3.66-5.33 53.56 53.56 0 0 0 3-6.26c.23-.59-.77-1.04-.99-.46z" fill="#3b5e62"/><path d="M261.29 698.53c-.69-1.91-2.61-3.34-4.11-4.61-1.94-1.63-4-3.16-5.91-4.77-3.66-3-7.61-6.6-9-11.29a.53.53 0 0 0-1 .26c.79 4.86 4.18 8.52 7.73 11.68 1.9 1.69 3.89 3.27 5.86 4.87.94.76 1.88 1.54 2.79 2.33a13.47 13.47 0 0 0 2.82 2.17c.35.19 1.01-.1.82-.64z" fill="#3b5e62"/><path d="M258 701.69a35 35 0 0 0-5.54-4.89 70.54 70.54 0 0 0-6.13-4.43.72.72 0 0 0-.75 1.22 73.82 73.82 0 0 1 6.32 4.72 24.06 24.06 0 0 0 5.76 3.94c.34.14.54-.33.34-.56z" fill="#3b5e62"/><path d="M167.29 504.29l.67-31a334.87 334.87 0 0 0 35.93 2.84 156.35 156.35 0 0 0 36.11-3.77l1.88 27.76s18.49 2.88 29.68 3.12a61.29 61.29 0 0 0 20.53-3.24s-5.26-52.65-5.29-89.47 6.27-110.25 6.27-110.25 43.21 68.23 44.26 70.46 42.4 3.4 42.4 3.4l8.5-10.3s-13.55-36.42-25.16-60.95-34.1-68.31-39.91-80.57-12.25-20.12-27.64-22.94-44.3-4.82-44.3-4.82l-84.91-1.83s-22.68 3.1-32.68 6.46-17.25 7.07-19.25 10.34-2.28 3.54-5.07 4.86-8.64 4.23-9.79 6.41a7.47 7.47 0 0 1-4.78 4.31c-2.78 1-2.72-1.71-5.05 4s-5 13.68-10.35 19.63-29.62 43.21-42.39 60-26.26 40.8-30.55 48.16-6 9.8-6.11 14.76S6.89 384.8 8 385.37 73.47 366.93 74.07 365 113 313.45 113 313.45s6.37 88.12 7.3 108.83.88 74.21 3.61 75.65 41.09 7.61 43.38 6.36z" fill="#b84c30"/><path d="M115.53 269.48c-.26-7.15.18-14.29-.07-21.43-.23-6.82-.47-13.53.48-20.31 0-.35-.49-.41-.59-.09-2 6.15-1.56 13-1.4 19.41.18 7.12-.3 14.22-.16 21.34.08 4.13.19 8.25.28 12.38-.32-1.53-.69-3.05-1.07-4.57q-1.65-6.55-3.39-13.09c-1.13-4.29-2.33-8.56-3.38-12.87s-1.52-8.42-2.3-12.65c-.08-.43-.68-.31-.72.08-.42 4.12.51 8.47 1.29 12.49.85 4.36 2 8.66 3.11 13s2.22 8.71 3.32 13.07c.55 2.19 1.06 4.39 1.5 6.61.24 1.21.36 2.45.5 3.7l-.36-.52c-1-1.57-2-3.2-2.91-4.84a108.4 108.4 0 0 1-5.18-10.55c-3.12-7.19-5.83-14.67-8.31-22.1a.27.27 0 0 0-.52.13 163.87 163.87 0 0 0 7.25 22.85q1.74 4.22 3.79 8.3c-.82-.69-1.65-1.35-2.38-2-2-1.9-4-3.9-5.91-6s-3.45-4-5.06-6c-.87-1.13-1.71-2.28-2.55-3.43a26.59 26.59 0 0 0-2.56-3.43.4.4 0 0 0-.67.37c.77 2.54 2.66 5 4.16 7.14a77.57 77.57 0 0 0 5 6.4c1.83 2.11 3.78 4.12 5.8 6s4 4.2 6.5 5.29a82.16 82.16 0 0 0 2 3.22 16.66 16.66 0 0 0 3.19 4.07 124.69 124.69 0 0 1-1.44 22.14c-.17 1 1.3 1.42 1.48.44 2.57-14.69 1.8-29.79 1.28-44.55z" fill="#913b21"/><path d="M97.83 277.69a25.73 25.73 0 0 0-4.33-3c-3.69-2.2-6.61-6.06-10.88-7.18a.34.34 0 0 0-.28.61c3.46 2.17 6.23 5.14 9.51 7.54 1.3 1 2.74 1.69 4 2.66a10.94 10.94 0 0 1 1.91 1.9c.45.56.66 1.24 1.25 1.68a.54.54 0 0 0 .8-.3c.56-1.43-1.04-3.05-1.98-3.91z" fill="#913b21"/><path d="M84 280.34a6.48 6.48 0 0 0-2.5-2.12 20.11 20.11 0 0 0-3.17-1.54c-.47-.19-.8.57-.36.81 1 .53 2 1.11 2.92 1.73a13.18 13.18 0 0 0 2.64 1.71.42.42 0 0 0 .47-.59z" fill="#913b21"/><path d="M66.45 353.67c-1.81-2.43-5.16-3.9-7.84-5.18a57.67 57.67 0 0 0-9.22-3.42 67.88 67.88 0 0 0-9.62-1.92 37.31 37.31 0 0 0-9.15-.28.25.25 0 0 0 0 .48c3 .5 6 .76 8.93 1.25a78.83 78.83 0 0 1 9.34 2.17 60.28 60.28 0 0 1 9.14 3.5c2.68 1.29 5.08 3.29 7.83 4.37.62.25.91-.55.59-.97z" fill="#913b21"/><path d="M58.86 352.68c-1.93-1.35-4.54-1.65-6.81-2a56 56 0 0 0-7.53-.5c-5.12 0-10.24.32-15.36.11-.64 0-.64.92 0 1 4.94.51 9.89.43 14.85.55 2.35.06 4.69.2 7 .47 2.52.3 5.06 1.24 7.59 1.26a.49.49 0 0 0 .26-.89z" fill="#913b21"/><path d="M69.67 349.45c-1.28-1.84-3.8-3-5.65-4.25q-3.29-2.17-6.72-4.11a62.8 62.8 0 0 0-14.44-6 .54.54 0 0 0-.31 1 72.88 72.88 0 0 1 13.89 6.33c2.14 1.24 4.21 2.58 6.28 3.94 1.06.7 2.11 1.41 3.16 2.12a10.06 10.06 0 0 0 3.12 1.83c.44.11 1-.4.67-.86z" fill="#913b21"/><path d="M68.82 346c-.45-1.47-1.71-2.61-2.75-3.69-1.26-1.32-2.57-2.6-3.93-3.82a60.83 60.83 0 0 0-8.9-6.66.5.5 0 0 0-.52.85 74.7 74.7 0 0 1 8.28 6.89q1.81 1.72 3.53 3.52c1.1 1.16 2.14 2.7 3.6 3.41.36.15.81-.08.69-.5z" fill="#913b21"/><path d="M66.72 335.81a10 10 0 0 0-1.49-2.27l-1.5-2.26a.27.27 0 0 0-.48.27c.43.91.81 1.83 1.31 2.69a4.22 4.22 0 0 0 1.78 1.94.31.31 0 0 0 .38-.37z" fill="#913b21"/><path d="M314 269.13a101.18 101.18 0 0 0-8.28 11.78c-1.28 2-2.57 4-4 5.89q-1.1 1.49-2.32 2.9c-.45.52-.93 1-1.36 1.55.11-.5.21-1 .31-1.5a20.43 20.43 0 0 0 3-5.34c1.31-3 2.26-6.18 3.39-9.26 1.32-3.58 2.83-7.08 4.13-10.67a101.32 101.32 0 0 0 3.42-11.73c.1-.41-.53-.6-.63-.19-1.85 7.37-5.25 14.32-8.22 21.28-1.18 2.78-2.09 5.67-3.21 8.47-.23.56-.47 1.12-.73 1.66.81-4 1.62-8.08 2.29-12.14a212.63 212.63 0 0 0 2.66-38.1.33.33 0 0 0-.67 0c-.76 12.41-1.6 24.82-3.62 37.1-.87 5.29-2.05 10.53-3.09 15.79-.19 1-.39 2-.6 2.93l-.65 1.11a.55.55 0 0 0 .22.73q-.35 1.43-.79 2.83v-1c0-3.79 0-7.58.13-11.37.32-9.67 1.34-19.29 1.46-29a.32.32 0 0 0-.64 0c-.32 9.32-1.63 18.58-2.33 27.87-.28 3.74-.47 7.43-.5 11.18 0 1.76-.05 3.51-.17 5.26-.06.92-.35 2-.45 2.94l-.26.47a.87.87 0 0 0 .56 1.33.76.76 0 0 0 1 0 3 3 0 0 0 .76-1.51 25.65 25.65 0 0 0 2.7-7 .48.48 0 0 0 .19 0c1.93-.76 3.26-2.65 4.51-4.23a61.7 61.7 0 0 0 4.18-6.25c2.68-4.4 5.06-9 8.34-13 .54-.52-.22-1.34-.73-.78z" fill="#913b21"/><path d="M317.79 286.83a18.53 18.53 0 0 0-4.56 1.87c-1.61.75-3.2 1.52-4.8 2.27-3.21 1.5-6.37 3.08-9.48 4.78a.56.56 0 0 0 .54 1c3.19-1.54 6.46-2.94 9.68-4.42 1.61-.74 3.22-1.48 4.82-2.24a14.5 14.5 0 0 0 4.21-2.49.45.45 0 0 0-.41-.77z" fill="#913b21"/><path d="M313.55 297.11a36.92 36.92 0 0 0-8.43 1.26.49.49 0 0 0 .24 1c2.74-.67 5.55-.88 8.25-1.69.27-.13.25-.59-.06-.57z" fill="#913b21"/><path d="M371 351.26c-2.38-.93-5.47-.32-7.93 0a56.57 56.57 0 0 0-9.17 2.16 65.34 65.34 0 0 0-7.75 3c1-.9 2-1.79 3-2.64 3.63-3 7.88-5.61 12.64-6.14.59-.06.64-1 0-.95-4.83.25-9.13 2.41-13 5.24a62.89 62.89 0 0 0-5.69 4.78c-1 .89-2.09 1.83-3.06 2.86a12.41 12.41 0 0 0-2 1.68c-.26.27 0 .83.38.69a.48.48 0 0 0 .68.59 10.52 10.52 0 0 0 3.14-2.36c1-.54 2-1.09 3-1.55a81.69 81.69 0 0 1 8.62-3.27 63.87 63.87 0 0 1 8.76-2.08c1.47-.24 3-.39 4.44-.51a18.58 18.58 0 0 0 3.85-.42.61.61 0 0 0 .09-1.08z" fill="#913b21"/><path d="M352.68 342.64c-3.27 1.39-6 4-8.52 6.48a34 34 0 0 0-6.6 9c-.21.42.39.81.63.39a41 41 0 0 1 6.86-8.44c2.52-2.47 5.49-4.44 8-6.93a.3.3 0 0 0-.37-.5z" fill="#913b21"/><path d="M351.13 340.88c-3 1.1-6 2.32-9 3.56-1.56.65-3.14 1.26-4.75 1.79a20.93 20.93 0 0 0-4.69 1.7c-.25.16-.28.64.08.7 3 .53 6.51-1.32 9.18-2.54 3.18-1.45 6.23-3.23 9.45-4.57.34-.16.09-.78-.27-.64z" fill="#913b21"/><path d="M344 337.47c-3.66 1.12-7 2.67-10.86 3.24-.46.07-.36.79.09.79a19.08 19.08 0 0 0 11-3.54c.32-.18.08-.57-.23-.49z" fill="#913b21"/><path d="M181.62 263.08c-.26-.83-6.59-14.21-16.24-14.14s-15.28 4.91-16.07 3.51 2.38-33.6 4.4-50.65 12.41-25.66 23.23-28.46 65.94-1.06 73.58 2.69 18.8 10.61 19.28 14.21-.16 71.43-6.8 72.11-17-5.88-22-3-14.31 11.21-14.31 11.21z" fill="#c64d2d"/><path d="M193.1 230c6.81 4 13.9 7.47 21.66 5.71 17.83-4.15 23-21.07 25.88-37.72l-1.8-17.47-57.62-1.25c0 .83-.36 16.82-.36 16.82a9.65 9.65 0 0 0-.59.91c-1.27 12.4 1.2 25.79 12.83 33z" fill="#fac1a3"/><path d="M232.17 323.47c.25-57.75 9.72-105.42 10.72-113.12s-2.22-12.18-2.22-12.18v-.22c-2.91 16.66-8.06 33.57-25.88 37.72C207 237.43 199.9 234 193.1 230c-11.63-7.17-14.08-20.56-12.82-33-1.14 1.94-3.58 7.08-4.2 16.09-.81 11.84-5.15 123.72-7.06 160.92S168 473.28 168 473.28s14.53 4.94 37.43 4.61 34.57-5.53 34.57-5.53-8.08-91.14-7.83-148.89z" fill="#c7ad85"/><path d="M110.3 347.46s-38.61 4-56.43 5.4-43.34 4.14-46.79 6.48S1.66 363.08.3 371s2 21 8.91 25.93 27.55 10.16 56 5.62S126.87 389 126.87 389z" fill="#b84c30"/><path d="M83.95 350.25c-2.72-.38-5.62.11-8.35.33s-5.42.66-8.14 1c-6 .71-12 1.42-18 2.06s-11.91 1.21-17.87 1.69c-2.88.23-5.76.57-8.64.78s-5.93.08-8.71.8c-.36.09-.42.69 0 .77 2.63.52 5.49.19 8.15.1 2.84-.1 5.69-.14 8.52-.31-.52.17-1 .34-1.52.52-3.71 1.36-8.12 3.38-10.68 6.49a.38.38 0 0 0 .44.6 41.71 41.71 0 0 0 4.83-2.75A47.94 47.94 0 0 1 29 359.7a34.91 34.91 0 0 1 5.64-1.94A40.57 40.57 0 0 1 41 357a.44.44 0 0 0 .36-.32q4-.36 8-.78 8.79-.92 17.56-2c2.8-.35 5.58-.78 8.39-1.11s6-.35 8.77-1.23a.63.63 0 0 0-.13-1.31z" fill="#913b21"/><path d="M279.1 355.65s51.07 2.68 66.22 3a136.36 136.36 0 0 0 22.68-1.08c1.47 0 17.31-1.28 20.18 6.23s8.75 16.09 4.15 24.82-10.21 21.48-25.71 24.08-49.18-4.37-58-6.4-34.34-10.5-34.34-10.5-4.76-26.56-4.75-27.12 9.57-13.03 9.57-13.03z" fill="#b84c30"/><path d="M293.42 356.38c-2.66-.18-5.32-.3-8-.54s-5.57-.75-8.36-.72a.31.31 0 0 0-.09.6 28.76 28.76 0 0 0 7.9 1.61 69 69 0 0 0 8.51.42.69.69 0 0 0 .04-1.37z" fill="#913b21"/><path d="M377.19 358.54c-1-1.21-3.07-1.57-4.57-1.82a25.4 25.4 0 0 0-5.81-.08c-4.24.3-8.42.93-12.67 1.11-4.59.2-9.15.21-13.74.06-2.29-.07-4.59-.05-6.88-.17a32.78 32.78 0 0 0-6.9.14.2.2 0 0 0 0 .38c4.15.85 8.48 1 12.69 1.47a94.43 94.43 0 0 0 13.2.2c1.19 0 2.38-.1 3.57-.17a.38.38 0 0 0 .34.26c2.21.25 4.43.44 6.63.81a21.38 21.38 0 0 1 3.36.87 20.37 20.37 0 0 0 3.08 1.18c.31.05.69-.25.47-.58-1.18-1.82-4.12-2.33-6.09-2.71-.73-.14-1.47-.23-2.21-.3l3.05-.34a36 36 0 0 1 12 .48.48.48 0 0 0 .48-.79z" fill="#913b21"/><path d="M288.06 400.13c-.38-.6-.77-.66-1.45-.87a21.29 21.29 0 0 1-2.74-1.19c-1.37-.66-3.09-1.76-4.66-1.39a.36.36 0 0 0-.17.6c1.24 1 3 1.5 4.49 2.22 1.13.57 3.14 2 4.36 1.21a.42.42 0 0 0 .17-.58z" fill="#913b21"/><path d="M134.84 428.47S100.54 311.16 101 310.62s159.16-25 159.16-25L282.37 400z" fill="#fff0ce"/><path d="M122.66 386.67l-2.09-7.2s10.47-2.47 9.61-7.31-3.79-41.73-12-40.39-16.73 2.12-16.49 9.85 10.12 43.5 12.28 44.87 8.69.18 8.69.18z" fill="#fac1a3"/><path d="M276.42 369.3l-2.17-11.19s-8.53 1.75-10.21-3.3-7.94-28.35-8-32.35 3.76-7.92 10.86-8 10.84 1.75 13.59 10.36 5 34.45 4.93 37.62-8.88 7.48-9 6.86z" fill="#fac1a3"/><path d="M161.62 116.47c-.55-.2-3.8-2.66-4.95-9.3s-1.8-10.33-1.8-10.33-3.25-1-2.31-3 4.81-5.23 4.81-5.23-5.34-3.24-4.58-5.25 4-5.61 3.79-6.17 1.68-29.93 1.68-29.93.19-5.51 2.06-7.13 4.16-5.61 4.16-5.61S167.74 20.44 180 17a81.05 81.05 0 0 1 24.87-2.4s-16-7.15-9.53-10.13 22.62 8.21 22.27 7.65S214.71.5 217.84 0s7.58 14.7 8.16 14.16 2.45-12.26 5-12.58 2.76 16.79 4.42 16.64 10.78-5.47 12.94-3.4-6.05 7.78-5.33 8.16 15.59 1.62 15 5.47-8 4.06-7.45 4.62 11 3.73 10.16 6.1-4.45 1.74-4.09 2.3a34.73 34.73 0 0 1 5.15 16.84 102 102 0 0 1-.36 16.54c0 .55 7.81 4.4 6.46 7.13s-6.49 2.43-6.49 2.43 7.67 2.74 5.4 5.26-6.13 2.81-6.15 3.91-.94 26.46-.94 26.46l-7.56.94z" fill="#944b36"/><path d="M255.64 113.91s5-7.61 9.85-6.77 7.86 17.27 1.56 21.55S253.9 126 253.9 126z" fill="#f7a78d"/><path d="M161.14 113.15s-5.71-8-10.87-7.22-7.74 17.67-1.2 21.67 12.83 1.75 12.68.27-.61-14.72-.61-14.72z" fill="#f7a78d"/><path d="M171 73.43c-.33-.33-.54-.53-.54-.53s.21.22.54.53z" fill="none" stroke="#231f20" stroke-miterlimit="10" stroke-width="2"/><path d="M251.35 99.66c-1-3.52 1.3-9.17.57-9.18s-6.82.77-6.73-3.45a14.8 14.8 0 0 1 2.18-7.31s-10.9 2.34-15-1.8-5-17.58-5-17.58-4.49 11.86-10.73 11.36-7.84-19.7-8.4-19.49-6 12.74-9.81 11.74-1.79-19.53-1.79-19.53-1.6 14.31-8.06 15.82a18 18 0 0 1-11.38-1s6.21 10.26 2.08 14.58c-3.3 3.44-6.93.81-8.27-.4 1.39 1.42 4.84 5.37 2.42 7.26-3 2.33-6.62.22-6.45.78s6.73 11.54 2.82 14.23c-3.15 2.15-6.8.49-7.46.15l.1.06c1.27.76 4.1 5.79 2 8a3.69 3.69 0 0 1-4.43.82s-1.36 20.69-.08 37.25a32.54 32.54 0 0 1 4.2-2.5 2.35 2.35 0 0 1 1.93 0c2.17 2 4.89 3.69 7.39 2.64 8.07-3.14 15.33-7.39 24.17-8.3 14.66-1.89 28.39.89 42.07 6.15 3.56 1.18 4.58 4.79 7.29 7.05 2.3 2 5.19 2.22 8.15 2 1.9-19.44 3.5-47.73 3.5-47.73s-6.26 1.89-7.28-1.62z" fill="#fac1a3"/><path d="M247 147c-2.71-2.27-3.74-5.87-7.29-7.05-13.68-5.26-27.41-8-42.07-6.15-8.85.91-16.11 5.17-24.17 8.3-2.5 1-5.22-.66-7.39-2.64a2.35 2.35 0 0 0-1.93 0 32.54 32.54 0 0 0-4.2 2.5v.04c1.3 16.58 9.89 35.7 22.78 43.52a50.26 50.26 0 0 0 41.08 4.75c12.78-4.14 27.69-13.38 30.07-30.24.43-3 .85-6.8 1.26-11-2.94.19-5.83-.03-8.14-2.03z" fill="#d0b4a3"/><path d="M208.74 125.21c-7.62 1.31-15.74 2.42-20.28 8.57s-5 9.82-5 9.82l3.2-3.24s-1.92 4-.11 5.15 17 .92 21.74.47 23.16-2.26 23.16-2.26l-1.57-3.9 3.61 3.2 4.62-1-2.87-3.37 2.93.43s-5.51-8.58-14.82-11.72-14.61-2.15-14.61-2.15z" fill="#944b36"/><path d="M218.43 159.09c-.84-.2-1.89.27-2.74.38-1.4.18-2.8.28-4.2.44a37.13 37.13 0 0 0-4.77 1.06l-3.53.89a3.29 3.29 0 0 0-2.09 1.06.38.38 0 0 0 .12.52 3.15 3.15 0 0 0 2.41.2c1.2-.19 2.38-.46 3.57-.72a40.79 40.79 0 0 1 5.06-1c1.41-.13 2.82-.24 4.23-.4 1-.12 2.16-.07 2.63-1.15a1 1 0 0 0-.69-1.28z" fill="#423123"/><path d="M218.12 122.54a51.16 51.16 0 0 0-2.26-10.79c-.79-2.58-1.67-5.32-3.49-7.38a4.61 4.61 0 0 0-2.55-1.46 2.84 2.84 0 0 0-1.54 0 3.44 3.44 0 0 0-2.58 2 .86.86 0 0 0 .3 1.09c-.13.47-.23 1-.33 1.42-.39 1.75-.85 3.48-1.33 5.21a117.87 117.87 0 0 0-2.62 11.75c-.48 2.81-1 5.68.23 8.38s4.75 4.16 7.51 4.37a7.55 7.55 0 0 0 6.77-3.82c1.97-3.11 2.18-7.21 1.89-10.77z" fill="#f7a78d"/><path d="M242.37 106.53c-.19-1.35-.94-3-2.41-3.28a3.11 3.11 0 0 0-3.34 1.93c-.67 1.35-.88 4.4.41 5.51a3 3 0 0 0 .88 1.23 2.73 2.73 0 0 0 3.56-.55c1.12-1.29 1.13-3.24.9-4.84z" fill="#423123"/><path d="M179.81 102.34c-3.82.85-3.22 6.25-2.15 8.9.54 1.35 1.59 2.52 3.15 2.34a2.28 2.28 0 0 0 1.56-1.11 5.21 5.21 0 0 0 1.08-3.09v-.1c1.03-2.89.55-7.88-3.64-6.94z" fill="#423123"/><path d="M184.44 85.85c-1.43.93-2.48 2.35-3.94 3.28s-3 1-4.62 1.37a.38.38 0 0 0-.18.63c2.45 3.14 9-1.1 10.36-3.59.54-1-.55-2.39-1.62-1.69z" fill="#231f20"/><path d="M242.91 90.69a10 10 0 0 0-3.36.14c-1.46.13-2.84-.11-4.28-.09a1.15 1.15 0 0 0-1 .55 1.23 1.23 0 0 0-.17.58 1.13 1.13 0 0 0 .55 1 8.22 8.22 0 0 0 4.37.46c1.4-.14 3.15-.39 4.19-1.43a.73.73 0 0 0-.3-1.21z" fill="#231f20"/><path d="M185.22 151.11a4.82 4.82 0 0 0-2.37-.24c-.82 0-2-.24-2.63.44a.74.74 0 0 0-.13.87l.08.16a1 1 0 0 0 .83.5 9.79 9.79 0 0 0 4.2-.84.52.52 0 0 0 .02-.89z" fill="#a48f82"/><path d="M190.18 158.31a.82.82 0 0 0-1.12.27 3.92 3.92 0 0 1-.66.82 3.77 3.77 0 0 0-1 1.16c-.17.41.22.78.59.81 1.05.1 2.08-1.08 2.47-1.94a.83.83 0 0 0-.28-1.12z" fill="#a48f82"/><path d="M174.84 160.84c-.86 1.28-2.1 2.21-3 3.45a.81.81 0 0 0 1.08 1.13 11.59 11.59 0 0 0 3.34-3.71.83.83 0 0 0-1.42-.87z" fill="#a48f82"/><path d="M169.65 153.28c-1.36 0-3.3-.25-4.46.59a.45.45 0 0 0 0 .75c1.24.95 3.25.29 4.63 0a.7.7 0 0 0-.17-1.34z" fill="#a48f82"/><path d="M162.18 149.17c-1.16-.36-3.43-.2-3.73 1.32a.43.43 0 0 0 .4.55 3.5 3.5 0 0 0 1.51-.38 4.46 4.46 0 0 1 1.63-.28.62.62 0 0 0 .19-1.21z" fill="#a48f82"/><path d="M167.35 165c-1.42-.44-3.2 1.22-3.85 2.33-.46.79.51 1.43 1.17.94s.95-.87 1.45-1.28a10.47 10.47 0 0 0 1.46-1 .58.58 0 0 0-.23-.99z" fill="#a48f82"/><path d="M173.07 176.3c-1.22.49-2.94 1.2-3 2.72a.62.62 0 0 0 .77.61c1.15-.39 1.8-1.63 2.86-2.23.7-.4.1-1.4-.63-1.1z" fill="#a48f82"/><path d="M179.19 180.81a8.22 8.22 0 0 0-2.15 3 .88.88 0 0 0 1.58.71 25.38 25.38 0 0 1 1.73-2.77c.52-.68-.59-1.57-1.16-.94z" fill="#a48f82"/><path d="M183.6 169.94a2.8 2.8 0 0 0-1.62 2.93.74.74 0 0 0 1.21.35c.48-.53.56-1.48 1.19-1.87a.81.81 0 0 0-.78-1.41z" fill="#a48f82"/><path d="M192.33 177.4c-.66 1-1.55 2.14-1.25 3.44a.42.42 0 0 0 .61.26 9.08 9.08 0 0 0 2-2.85.81.81 0 0 0-1.36-.85z" fill="#a48f82"/><path d="M189.72 189.13c-.43.91-1.06 1.69-1.46 2.6-.33.74.71 1.17 1.22.75a6.76 6.76 0 0 0 1.66-2.71c.32-.83-1.04-1.44-1.42-.64z" fill="#a48f82"/><path d="M207.55 188.84c-.29-.83-.78-1.58-1.05-2.43-.2-.63-1.27-.6-1.22.14a4.54 4.54 0 0 0 1 3c.52.45 1.52.02 1.27-.71z" fill="#a48f82"/><path d="M219.56 178.63c-.18-.32-.47-.56-.67-.87a4 4 0 0 1-.5-1.05c-.23-.76-1.52-.7-1.44.16.1 1.15.43 2.5 1.63 3 .72.26 1.31-.63.98-1.24z" fill="#a48f82"/><path d="M225.26 170.2a2.41 2.41 0 0 0-1.5-1.27.77.77 0 0 0-.77 1.26 4.71 4.71 0 0 1 .91 1.35c.21.5.74 1.27 1.33.7s.33-1.47.03-2.04z" fill="#a48f82"/><path d="M227.31 187.49a19.19 19.19 0 0 1-1.42-1.8.78.78 0 0 0-1.36.75 15.42 15.42 0 0 0 1.23 1.91c.45.62.89 1.45 1.63 1.71a.69.69 0 0 0 .88-.64c.1-.74-.53-1.42-.96-1.93z" fill="#a48f82"/><path d="M221.08 191.41a.89.89 0 0 0-1.21-.34.91.91 0 0 0-.34 1.21c0 .09.05.17.08.26s0 .12 0 .19v.27a.88.88 0 0 0 1.58.24 2 2 0 0 0-.11-1.83z" fill="#a48f82"/><path d="M208.22 171.31a.83.83 0 0 0-1.12-.32.84.84 0 0 0-.32 1.12 3 3 0 0 1 .14.42c.07.24.08.5.16.73a.8.8 0 0 0 .74.59.78.78 0 0 0 .76-.55 3 3 0 0 0-.36-1.99z" fill="#a48f82"/><path d="M213.93 151.25a.66.66 0 0 0-1.31 0 2.12 2.12 0 0 0 .62 1.94.65.65 0 0 0 1-.37c.14-.57-.24-1.04-.31-1.57z" fill="#a48f82"/><path d="M230.81 150.78a1.08 1.08 0 0 0-.22-.36 1.47 1.47 0 0 0-.17-.24c-.34-.29-.69-.52-1.05-.78a.83.83 0 1 0-.87 1.42 6.1 6.1 0 0 0 1 .55c.33.15 1 .36 1.32-.08a.66.66 0 0 0-.01-.51z" fill="#a48f82"/><path d="M241.19 165.67a3.32 3.32 0 0 0-1.4-.67c-.49-.16-1-.36-1.45-.57-.64-.29-1.51.52-.85 1.06.82.66 2.25 1.7 3.37 1.31a.69.69 0 0 0 .33-1.13z" fill="#a48f82"/><path d="M246.12 154c-.71-.85-2.42-.85-3.44-1s-1.43 1.26-.44 1.48c.67.15 1.34.3 2 .41a2.62 2.62 0 0 0 1.74-.09.52.52 0 0 0 .14-.8z" fill="#a48f82"/><path d="M255.13 156.26c-.41-1.32-2.7-1.35-3.8-1.1a.41.41 0 0 0 0 .78c.6.18 1.21.33 1.81.51s1.12.52 1.7.32a.42.42 0 0 0 .29-.51z" fill="#a48f82"/><path d="M252 169.77c-.38-.51-1-1.42-1.76-1.36a.57.57 0 0 0-.53.38c-.28.67.38 1.4.74 1.91s1 1.71 1.81 1.26.14-1.65-.26-2.19z" fill="#a48f82"/><path d="M243.71 176.26a.65.65 0 0 0-1.09.6 3.9 3.9 0 0 0 .91 1.69 12.39 12.39 0 0 0 1.32 1.62.68.68 0 0 0 1.15-.45c.16-1.36-1.42-2.6-2.29-3.46z" fill="#a48f82"/><path d="M234.46 186.28c-.1-.58-.39-1.13-.51-1.72-.2-1.06-1.82-.65-1.62.41a6.86 6.86 0 0 0 .58 1.75c.19.38.71.95 1.19.83s.42-.91.36-1.27z" fill="#a48f82"/></g></g></svg>