<svg xmlns="http://www.w3.org/2000/svg" viewBox="0 -7.476006984710693 484.25 473.0760130882263"><defs><clipPath id="a" transform="translate(-15.75 -54.4)"><path fill="none" d="M0 0h500v500H0z"/></clipPath><clipPath id="b" transform="translate(-15.75 -54.4)"><path d="M342.57 204a102.5 102.5 0 1 0-182.25 0c26.69 71.81 91.12 177 91.12 177s64.44-105.22 91.13-177z" fill="none"/></clipPath><clipPath id="c" transform="translate(-15.75 -54.4)"><path d="M439.19 156.69h-3.38a40.64 40.64 0 0 0-40.37-45.79 40.51 40.51 0 0 0-23.82 7.71A55.27 55.27 0 0 0 291 167.76c0 1.34.06 2.66.16 4a26.64 26.64 0 0 0-3.16 12.6v10.51c0 15.28 12.91 27.67 28.83 27.67H339a54.1 54.1 0 0 0 14.63 0h85.55c15.92 0 28.83-12.39 28.83-27.67v-10.51c-.01-15.28-12.89-27.67-28.82-27.67z" fill="none"/></clipPath></defs><title>Depositphotos_43676233_03</title><g data-name="Layer 2"><g data-name="flat tourism" style="isolation:isolate"><circle cx="410.3" cy="429.42" r="10.3" fill="#876708"/><path d="M410.46 434.02l3.22-3.22z" fill="none" stroke="#fff" stroke-miterlimit="10" stroke-width=".564"/><path d="M410.3 436.2l-4.62-4.6z" fill="none" stroke="#fff" stroke-miterlimit="10" stroke-width=".294"/><circle cx="448.5" cy="424.03" r="12.64" fill="#876708"/><path d="M448.7 429.68l3.95-3.95z" fill="none" stroke="#fff" stroke-miterlimit="10" stroke-width=".692"/><path d="M448.5 432.36l-5.67-5.67z" fill="none" stroke="#fff" stroke-miterlimit="10" stroke-width=".361"/><circle cx="428.6" cy="434.24" r="6.6" fill="#fc611f"/><path d="M428.71 437.19l2.06-2.06z" fill="none" stroke="#fff" stroke-miterlimit="10" stroke-width=".361"/><path d="M428.6 438.6l-3-3z" fill="none" stroke="#fff" stroke-miterlimit="10" stroke-width=".189"/><circle cx="10.3" cy="429.42" r="10.3" fill="#876708"/><path d="M10.46 434.02l3.22-3.22z" fill="none" stroke="#fff" stroke-miterlimit="10" stroke-width=".564"/><path d="M10.3 436.2l-4.62-4.6z" fill="none" stroke="#fff" stroke-miterlimit="10" stroke-width=".294"/><circle cx="48.5" cy="424.03" r="12.64" fill="#fc611f"/><path d="M48.7 429.68l3.95-3.95z" fill="none" stroke="#fff" stroke-miterlimit="10" stroke-width=".692"/><path d="M48.5 432.36l-5.67-5.67z" fill="none" stroke="#fff" stroke-miterlimit="10" stroke-width=".361"/><circle cx="28.6" cy="434.24" r="6.6" fill="#876708"/><path d="M28.71 437.19l2.06-2.06z" fill="none" stroke="#fff" stroke-miterlimit="10" stroke-width=".361"/><path d="M28.6 438.6l-3-3z" fill="none" stroke="#fff" stroke-miterlimit="10" stroke-width=".189"/><g clip-path="url(#a)"><path fill="#1c1c1c" d="M51.84 451l37.98-41.86L123.51 451H51.84z"/><path fill="#4d4d4d" d="M121.33 451.63l44.16-48.68 39.18 48.67-83.34.01z"/><path fill="#36362a" d="M133.95 455.6l74.64-82.29 66.23 82.28-140.87.01z"/><path fill="#1a1a14" d="M133.95 455.6l74.64-82.29.23 82.28-74.87.01z"/><path fill="#61614b" d="M71.04 451.54l53.17-58.61 47.17 58.61H71.04z"/><path fill="#a1a17d" d="M125.04 451.54l-.83-58.61 47.17 58.61h-46.34z"/><path fill="#fdfdc3" d="M106.09 413.94l18.18-20.05 16.14 20.04h-5.57l-7.63-3.56-6.72 3.57-5.67-4.59-8.73 4.59z"/><path fill="#fdfdc3" d="M157.03 412.63l8.42-9.29 7.47 9.28h-2.57l-3.54-1.64-3.11 1.65-2.63-2.13-4.04 2.13z"/><path fill="#fdfdc3" d="M81.21 418.22l8.42-9.28 7.47 9.28h-2.58l-3.53-1.65-3.11 1.65-2.63-2.12-4.04 2.12z"/><path fill="#fdfdc3" d="M192.05 392.5l17.15-18.9 15.22 18.9h-5.25l-7.2-3.36-6.34 3.36-5.35-4.32-8.23 4.32z"/><path fill="#919191" d="M414.82 461l-37.97-41.86-33.7 41.86h71.67z"/><path fill="#292929" d="M345.33 461.63l-44.15-48.68L262 461.62l83.33.01z"/><path fill="#8a8a6a" d="M332.72 465.6l-74.65-82.29-66.23 82.28 140.88.01z"/><path fill="#6e6e54" d="M262.72 465.6l-4.65-82.29-66.23 82.28 70.88.01z"/><path fill="#a8a882" d="M395.62 461.54l-53.17-58.61-47.17 58.61h100.34z"/><path fill="#545441" d="M341.62 461.54l.83-58.61-47.17 58.61h46.34z"/><path fill="#fdfdc3" d="M360.57 423.94l-18.18-20.05-16.13 20.04h5.56l7.63-3.56 6.72 3.57 5.67-4.59 8.73 4.59z"/><path fill="#fdfdc3" d="M309.63 422.63l-8.42-9.29-7.47 9.28h2.58l3.53-1.64 3.11 1.65 2.63-2.13 4.04 2.13z"/><path fill="#fdfdc3" d="M385.46 428.22l-8.42-9.28-7.47 9.28h2.57l3.54-1.65 3.11 1.65 2.63-2.12 4.04 2.12z"/><path fill="#fdfdc3" d="M274.62 402.5l-17.16-18.9-15.21 18.9h5.25l7.19-3.36 6.34 3.36 5.35-4.32 8.24 4.32z"/></g><path d="M326.82 149.6a102.5 102.5 0 1 0-182.25 0c26.69 71.81 91.12 177 91.12 177s64.44-105.22 91.13-177z" fill="#fc611f"/><path d="M305.69 149.6a127.59 127.59 0 0 0 8.74-47C314.43 45.99 279.18.1 235.69.1s-78.73 45.89-78.73 102.5a127.59 127.59 0 0 0 8.74 47c20.51 71.81 70 177 70 177s49.49-105.22 69.99-177z" fill="#fdc00f"/><path d="M274.15 149.6a222.65 222.65 0 0 0 4.8-47C278.95 45.99 259.58.1 235.69.1s-43.25 45.89-43.25 102.5a222.65 222.65 0 0 0 4.8 47c11.27 71.81 38.46 177 38.46 177s27.19-105.22 38.45-177z" fill="#fc611f"/><path d="M249.51 149.6c1.1-14.07 1.73-30 1.73-47 0-56.61-7-102.5-15.54-102.5s-15.54 45.89-15.54 102.5c0 16.93.63 32.9 1.73 47 4 71.81 13.81 177 13.81 177s9.76-105.22 13.81-177z" fill="#fdc00f"/><path d="M235.7 326.6l.05 9.5z" fill="none" stroke="#fff" stroke-miterlimit="10"/><path d="M235.7 326.6l-9.5 9.5z" fill="none" stroke="#fff" stroke-miterlimit="10"/><path d="M235.7 326.6l9.5 9.5z" fill="none" stroke="#fff" stroke-miterlimit="10"/><path d="M228.2 361.1a5 5 0 0 1-5-5v-17a3 3 0 0 1 3-3h19a3 3 0 0 1 3 3v17a5 5 0 0 1-5 5z" fill="#e61c1c"/><path d="M251.25 337.94a2.83 2.83 0 0 1-3.05 2.54h-24.88a2.83 2.83 0 0 1-3.05-2.54 2.83 2.83 0 0 1 3.05-2.54h24.86a2.83 2.83 0 0 1 3.05 2.54z" fill="#e61c1c"/><g clip-path="url(#b)"><ellipse cx="235.7" cy="10.64" rx="63.22" ry="9.86" style="mix-blend-mode:multiply" fill="#fdc00f"/><ellipse cx="235.7" cy="4.64" rx="29.76" ry="4.64" style="mix-blend-mode:multiply" fill="#fd9e0f"/></g><circle cx="84.33" cy="117.3" r="23.1" fill="#2bacb2"/><circle cx="56.46" cy="126.47" r="31.37" fill="#2bacb2"/><path d="M109.16 157.6H39.73c-9 0-16.36-7-16.36-15.7v-6c0-8.67 7.33-15.7 16.36-15.7h69.43c9 0 16.37 7 16.37 15.7v6c0 8.63-7.28 15.7-16.37 15.7z" fill="#2bacb2"/><circle cx="45.37" cy="120.32" r="15.1" fill="#fdc00f"/><circle cx="27.15" cy="126.31" r="20.51" fill="#fdc00f"/><path d="M61.6 146.6H16.25a10.49 10.49 0 0 1-10.7-10.26v-3.9a10.49 10.49 0 0 1 10.7-10.23H61.6a10.49 10.49 0 0 1 10.7 10.26v3.9a10.49 10.49 0 0 1-10.7 10.23z" fill="#fdc00f"/><g opacity=".3" fill="#fff"><circle cx="144.04" cy="276.47" r="11.56"/><circle cx="130.09" cy="281.05" r="15.7"/><path d="M156.47 296.6h-34.74a8 8 0 0 1-8.19-7.86v-3a8 8 0 0 1 8.19-7.86h34.74a8 8 0 0 1 8.19 7.86v3a8 8 0 0 1-8.19 7.86z"/></g><g opacity=".1" fill="#fff"><circle cx="332.47" cy="262.79" r="6.78"/><circle cx="324.28" cy="265.49" r="9.21"/><path d="M339.76 274.6h-20.39a4.71 4.71 0 0 1-4.81-4.61v-1.75a4.71 4.71 0 0 1 4.81-4.61h20.39a4.71 4.71 0 0 1 4.81 4.61v1.75a4.71 4.71 0 0 1-4.81 4.61z"/></g><g opacity=".1" fill="#fff"><path d="M27.45 195.6h107.3a8.08 8.08 0 0 1 8.08 8.08v6.19a8.08 8.08 0 0 1-8.08 8.08H27.45a8.07 8.07 0 0 1-8.07-8.07v-6.19a8.08 8.08 0 0 1 8.08-8.08z"/><g opacity=".4"><rect x="343.36" y="202.46" width="98.04" height="17.74" rx="6.41" ry="6.41"/><rect x="351.51" y="219.36" width="34.1" height="6.17" rx="2.23" ry="2.23"/><rect x="271.4" y="224.98" width="121.87" height="17.74" rx="6.41" ry="6.41"/></g><path d="M197.45 295.6h137.3a8.08 8.08 0 0 1 8.08 8.08v6.19a8.08 8.08 0 0 1-8.08 8.08h-137.3a8.07 8.07 0 0 1-8.07-8.07v-6.19a8.08 8.08 0 0 1 8.07-8.09z" opacity=".4"/><rect x="49.27" y="224.82" width="123.45" height="22.34" rx="8.08" ry="8.08"/><rect x="76.11" y="216.59" width="45.45" height="8.22" rx="2.97" ry="2.97"/></g><circle cx="379.69" cy="97.21" r="40.7" fill="#fff"/><circle cx="330.57" cy="113.36" r="55.28" fill="#fff"/><path d="M423.44 168.14H301.11c-15.92 0-28.83-12.39-28.83-27.67v-10.51c0-15.28 12.91-27.67 28.83-27.67h122.33c15.92 0 28.83 12.39 28.83 27.67v10.51c-.02 15.28-12.9 27.67-28.83 27.67z" fill="#fff"/><g clip-path="url(#c)"><path fill="#fde9af" d="M251.23 120.19h233.02v75.41H251.23z"/></g></g></g></svg>