<svg xmlns="http://www.w3.org/2000/svg" viewBox="0 0 49.20000076293945 49.19000244140625"><title>Depositphotos_108274962_10_ic</title><g data-name="Layer 2"><g data-name="Business &amp; Office"><path d="M36.67 8.66v39.47h9.11V8.66zM42.25 36h-2v-2.9h2zm0-12.3h-2v-2.9h2z" fill="#f1d312"/><path d="M2.39 7.67v41.52h11.16V7.67zM9 42.15H7v-2.9h2zm0-12.3H7v-2.9h2zm0-12.3H7v-2.9h2z" fill="#faab64"/><path d="M49.19 0H33.26v9.72h2.39v14.89L24.6 12.82l-13.1 14v22.37h35.31V9.72h2.39zM21.48 47.14V36.25h6.23v10.89zm-2-12.94v12.94h-5.93V27.61L24.6 15.82l11.05 11.79v19.53h-5.89V34.2zm25.33 12.9H37.7V9.72h7.06zm2.33-39.43H35.31V2h11.83z" fill="#fff"/><path d="M15.93 0H0v9.72h15.93zm-2 7.67H2V2h11.88z" fill="#fff"/><path fill="#fff" d="M40.2 14.65h2.05v2.9H40.2z"/><path fill="#fff" d="M40.2 26.95h2.05v2.9H40.2z"/><path fill="#fff" d="M40.2 39.24h2.05v2.9H40.2z"/><path fill="#fff" d="M6.94 20.8h2.05v2.9H6.94z"/><path fill="#fff" d="M6.94 33.09h2.05v2.9H6.94z"/><circle cx="24.6" cy="25.69" r="3.68" fill="#faab64"/></g></g></svg>