<svg xmlns="http://www.w3.org/2000/svg" viewBox="-2.7599992752075195 -4.6100006103515625 51.21999740600586 48.51000213623047"><title>Depositphotos_35267601_3_tx</title><g data-name="Layer 2"><g data-name="Layer 1" fill="#fff" fill-rule="evenodd"><path d="M17.23 5.86c-.89 3.73 1.07 8.1 3.06 8.28s4.32-1.15 6.3-5.21c4.06-8.39-6.85-13.54-9.36-3.07z"/><path d="M36.82 16.42c-2.55 2.87-7.26 3.75-8.55 2.23s-1.53-4.2.67-8.15c4.55-8.13 15-2.13 7.87 5.92z"/><path d="M39.89 28.8c-3.05 1.84-7.48 1.34-8.2-.37s-.2-4.16 2.84-7c6.28-6 13.93 2.24 5.36 7.42z"/><path d="M1.57 31.73c3.05 3.62 6.85 2.38 12.1 5 5 2.54 4.46 5.74 10.6 6.47 4.24.7 6.32-3.52 6.35-6.88a14.74 14.74 0 0 0-2.44-7.7c-.64-1.47-.54-3.4-1-5.26-1.13-4.23-7.79-7.71-11.67-5.83-1.65.8-3 2.12-5.54 2.17-7.31.14-12.73 7.71-8.35 12z"/><path d="M4.6 10.26c.28 3.55 3.27 6.86 5.08 6.45s3.5-2.26 4.07-6.42c1.19-8.58-9.94-10-9.16 0z"/></g></g></svg>