<svg xmlns="http://www.w3.org/2000/svg" viewBox="0 -2.8999996185302734 298.2130432128906 231.80999755859375"><title>Depositphotos_117005002_02</title><g data-name="Layer 2"><g data-name="Layer 20"><path d="M249.67 133.06c-4.9-1.78-16 10.76-16 10.76L232.45 157s12.31 13.63 17.88 10.48 6.67-29.69-.66-34.42z" fill="#ec7493"/><path d="M233.21 157.66l3.53-12.83s10.06-8 15.62-8.42a8.09 8.09 0 0 0-2.69-3.35c-4.9-1.78-16 10.76-16 10.76L232.45 157s.41.45 1.1 1.16z" fill="#fff"/><path d="M248.48 170c-6.68 0-15.61-9.45-17.55-11.61a2.05 2.05 0 0 1-.52-1.56l1.17-13.21a2 2 0 0 1 .51-1.18c2.83-3.19 12.52-13.41 18.27-11.32a2 2 0 0 1 .41.2c4.84 3.11 6.33 12.75 6.1 20.72-.1 3.36-.77 14.54-5.53 17.23a5.73 5.73 0 0 1-2.86.73zm-13.9-13.7c4.75 5.06 12.16 10.87 14.75 9.41 1.25-.71 3.22-5.58 3.45-13.77s-1.41-15-4-17c-2.23-.38-8.5 4.63-13.16 9.74z" fill="#7d2681"/><path d="M192.1 90.9H37.94v108.23H192.1c24.06-.84 45.9-24.23 45.9-54.13s-24.07-54.1-45.9-54.1z" fill="#ec7493"/><path d="M216.75 183.9H37.94v15.23H192.1c11.93-.42 23.32-6.39 31.76-15.94a52.36 52.36 0 0 1-7.11.71z" fill="#cd5b83"/><ellipse cx="37.94" cy="145.02" rx="21.74" ry="54.12" fill="#cd5b83"/><path d="M68.11 91l14.18-.14H38.54a61.49 61.49 0 0 0 12.16 4.57h17.52c-.14-2.78-.11-4.43-.11-4.43z" fill="#fff"/><path d="M209.07 95.47a36.34 36.34 0 0 0-17-4.57h-91.79c.26.49 1.12 2.09 2.44 4.57z" fill="#fff"/><path d="M68.22 95.47c.9 17.72 8.42 83.55 70.39 103.66 17.81 0-24.84-82.77-35.89-103.66z" fill="#cd5b83"/><path d="M100.18 90.72l-17.9.18h18z" fill="#cd5b83"/><path d="M100.28 90.9h-18l-14.17.1s0 1.61.12 4.43h34.5c-1.33-2.43-2.19-4.04-2.45-4.53z" fill="#e4c9d1"/><path d="M37.94 201.18c-13.34 0-23.79-24.67-23.79-56.17S24.6 88.85 37.94 88.85 61.73 113.52 61.73 145s-10.44 56.18-23.79 56.18zm0-108.18c-9.5 0-19.68 20.87-19.68 52s10.18 52.06 19.69 52.06 19.68-20.9 19.68-52.06-10.18-52-19.69-52z" fill="#7d2681"/><path d="M192.1 201.18H37.94a2.05 2.05 0 0 1 0-4.1H192.1c16.95 0 43.84-14.14 43.84-52.06 0-35.91-25.64-52.02-43.84-52.02H37.94a2.05 2.05 0 0 1 0-4.1H192.1C212 88.85 240 106.28 240 145c0 40.94-29.36 56.18-47.9 56.18z" fill="#7d2681"/><ellipse cx="33.4" cy="109.59" rx="4.23" ry="9.17" fill="#ffe9e9"/><ellipse cx="43.43" cy="180.08" rx="3.6" ry="8.83" fill="#ffe9e9"/><ellipse cx="49.15" cy="145.85" rx="2.83" ry="6.14" fill="#ffe9e9"/><ellipse cx="24.42" cy="158.78" rx="2.83" ry="6.14" fill="#ffe9e9"/><ellipse cx="33.4" cy="136.4" rx="1.96" ry="4.25" fill="#ffe9e9"/><ellipse cx="48.28" cy="115.06" rx="1.96" ry="4.25" fill="#ffe9e9"/><ellipse cx="29.41" cy="180.08" rx="2.85" ry="4.25" fill="#ffe9e9"/><ellipse cx="38.46" cy="158.78" rx="1.36" ry="2.96" fill="#ffe9e9"/><ellipse cx="22.95" cy="129.78" rx="1.36" ry="2.96" fill="#ffe9e9"/><ellipse cx="44.05" cy="130.57" rx="1.36" ry="2.96" fill="#ffe9e9"/><path d="M178.11 78.38c-8.29.33-16.7 3.68-21.85 10.49l15.56 13.05c1.92-7.46 9.86-12.78 17.38-11.64 1.86.28 3.69.91 5.56.78s3.88-1.32 4.13-3.2c1.11-8.15-15.72-9.68-20.78-9.48z" fill="#e4c9d1"/><path d="M237.53 142.68a35.9 35.9 0 0 0-18-.15l1.63 24.47c4.65-7.83 16.87-10.91 25-7.06 2 1 3.89 2.28 6.07 2.78s4.84-.18 5.75-2.24c3.94-8.86-14.63-16.31-20.45-17.8z" fill="#e4c9d1"/><path d="M239.72 142c-7.92-2.49-13.23-1.65-20.33 3 .67-.44 2.57-.24 3.37-.27q1.74-.07 3.47 0c2.29.11 5-1.46 7.29-1a47.58 47.58 0 0 1 15.24 6.44c3.44 2.12 8 7.1 6.09 11.82a3.38 3.38 0 0 0 2.41-1.7C261 153 244.55 143.5 239.72 142z" fill="#fff"/><path d="M177.58 78.38c-8.29.33-16.7 3.68-21.85 10.49l.46.38c5.16-5.13 12.45-7.69 19.64-8 5-.2 21.17 1.27 20.82 9a3.43 3.43 0 0 0 1.72-2.42c1.06-8.12-15.73-9.65-20.79-9.45z" fill="#fff"/><path d="M159.69 9.21c-5.1-2.67-20.88 9.3-20.88 9.3l18.43 15s7.55-21.63 2.45-24.3z" fill="#7d2681"/><path d="M86.63 2.32c-5.84 2.82-1.12 36.94-1.12 36.94l27.12-21.88S94.07-.67 86.63 2.32z" fill="#fff"/><path d="M171.83 104a2.06 2.06 0 0 1-2-2.56C172 93 181 87 189.51 88.26c.62.09 1.24.22 1.86.35a12.55 12.55 0 0 0 3.26.4c1.1-.08 2.14-.74 2.23-1.42A3.09 3.09 0 0 0 196 85c-3.22-3.52-13.35-4.7-17.78-4.52-8.5.34-15.9 3.87-20.29 9.68a2.05 2.05 0 1 1-3.27-2.47c5.13-6.8 13.66-10.92 23.4-11.31 3.9-.14 16.17.59 21 5.86a7.21 7.21 0 0 1 1.92 5.94c-.4 3-3.33 4.8-6 5a15.8 15.8 0 0 1-4.38-.48c-.54-.11-1.08-.23-1.63-.31-6.52-1-13.42 3.65-15.08 10.12a2.05 2.05 0 0 1-2.06 1.49z" fill="#7d2681"/><path d="M221.16 169.09a2.05 2.05 0 0 1-1.76-3.1c5.08-8.55 18.27-12.31 27.67-7.87.67.31 1.32.67 2 1a15.17 15.17 0 0 0 3.68 1.61c1.29.29 3 0 3.41-1.06a5 5 0 0 0-.31-4.51c-3-6-14.21-11.51-20.75-13-4-1-7.08-.08-10.94 1.12-1.29.4-2.63.82-4.08 1.19a2.05 2.05 0 1 1-1-4c1.38-.35 2.65-.75 3.88-1.13 4.12-1.29 8-2.5 13.12-1.19 7.16 1.61 19.63 7.55 23.46 15.12a9.15 9.15 0 0 1 .4 8c-1.38 3.13-5.1 4.08-8.08 3.41a18.38 18.38 0 0 1-4.73-2c-.58-.32-1.17-.63-1.76-.92-7.5-3.54-18.38-.5-22.39 6.25a2.06 2.06 0 0 1-1.82 1.08z" fill="#7d2681"/><path d="M88.54 33.76a32 32 0 0 1 3.23-4.25c8.85-9.78 22.65-14.45 35.58-13.2 12 1.15 29.11 8.34 31.31 21.8 1.77 10.82-.63 21.39.54 32.22 1.7 15.64 10.86 24.1 23.84 30.31 19.54 9.34 43.68 17.54 52.49 39.56 7.32 18.29 3.12 41-11.57 54.35-19 17.18-48.79 17.19-71.62 9.2-20.1-7-42.32-20.21-54.83-37.82a127.56 127.56 0 0 1-22.31-59.34 135.79 135.79 0 0 1 9.34-65.11 50.6 50.6 0 0 1 4-7.72z" fill="#fff"/><path d="M138.93 50.85a14.88 14.88 0 0 0 4.59 4.76c4.55 2.91 10.43 2.75 15.5 1.58.27-6.35.69-12.68-.36-19.1-1.4-8.55-12.48-16-20.79-19.5-.49-.21-2.6 11.31-2.69 12.36-.5 6.05.19 14.19 3.75 19.9z" fill="#7d2681"/><path d="M235.52 140.2c-8.81-22-33-30.22-52.49-39.56-13-6.2-22.14-14.67-23.84-30.31-1.18-10.83 1.22-21.4-.54-32.22-2.2-13.45-19.35-20.64-31.31-21.8a43.91 43.91 0 0 0-30.49 8.53c8-4.75 20.89-7.95 30-7.06 12 1.15 26 8.28 28.23 21.73 1.77 10.82-.92 22.56.26 33.39 1.7 15.64 10.86 24.1 23.84 30.31 19.54 9.34 43.68 17.54 52.49 39.56 7.32 18.29 3.12 41-11.57 54.35q-1.77 1.6-3.66 3a50 50 0 0 0 7.47-5.58c14.74-13.31 18.93-36.05 11.61-54.34z" fill="#fff"/><path d="M166.62 200.25c-20.4-6.1-43.19-18.22-56.48-35.23a127.39 127.39 0 0 1-25-58.24 135.85 135.85 0 0 1 6.38-65.47 50.67 50.67 0 0 1 3.66-7.9 32.06 32.06 0 0 1 3-4.4 40.88 40.88 0 0 1 18-12.34 41.8 41.8 0 0 0-24.42 12.84 32 32 0 0 0-3.23 4.25 50.61 50.61 0 0 0-4 7.72 135.79 135.79 0 0 0-9.34 65.11 127.56 127.56 0 0 0 22.31 59.33c12.51 17.61 34.72 30.78 54.83 37.82 19.52 6.84 44.16 7.81 62.75-2.79-15.63 4.78-33.44 3.8-48.46-.7z" fill="#e4c9d1"/><path d="M113.4 46.94c5.88-8.39 4.84-20.08 4.21-30.48a42 42 0 0 0-25.85 13 32 32 0 0 0-3.23 4.25 50.6 50.6 0 0 0-4 7.72c-1.46 3.48-2.74 7.07-3.88 10.71C92 56 106.19 57.23 113.4 46.94z" fill="#7d2681"/><path d="M91.87 10.8c-3 1.42-.57 18.68-.57 18.68L105 18.42s-9.37-9.13-13.13-7.62z" fill="#7d2681"/><path d="M182.46 210.92a95.16 95.16 0 0 1-30.82-5.24c-26.75-9.37-46.95-24.36-60-44.56-21.9-33.83-25.43-81.1-9-120.43a52.62 52.62 0 0 1 4.18-8 33.82 33.82 0 0 1 3.43-4.52c9-9.91 23.26-15.22 37.3-13.87 12 1.16 30.66 8.37 33.13 23.51 1 5.89.71 11.89.46 17.69s-.5 11.81.51 17.51c2.42 13.69 13.45 21.59 22.28 25.81 2.62 1.25 5.33 2.49 8.08 3.74 17.58 8 37.51 17.09 45.44 36.91s2.92 43-12.1 56.64c-12.03 10.89-27.73 14.81-42.89 14.81zm-59.3-192.76c-11.44 0-22.61 4.69-29.88 12.73a29.69 29.69 0 0 0-3 4 48.87 48.87 0 0 0-3.85 7.41c-15.94 38.12-12.54 83.89 8.65 116.61 12.75 19.69 31.7 33.73 57.94 42.92 19.92 7 50.1 8.87 69.57-8.78 13.56-12.29 18.2-34.19 11-52.07-7.32-18.29-25.62-26.63-43.33-34.7-2.77-1.26-5.5-2.5-8.14-3.77-13.9-6.65-22.39-16.61-24.55-28.8-1.09-6.14-.82-12.37-.56-18.4.25-5.86.49-11.39-.41-16.86-2.09-12.76-19.19-19.09-29.48-20.08-1.3-.15-2.63-.21-3.96-.21zm-34.62 15.6z" fill="#7d2681"/><path d="M120 95.28c-8.29.33-16.7 3.68-21.85 10.49l.46.38c5.16-5.13 12.45-7.69 19.64-8 5-.2 21.17 1.27 20.82 9a3.43 3.43 0 0 0 1.72-2.42c1.08-8.12-15.71-9.65-20.79-9.45z" fill="#fff"/><path d="M114.25 120.32a2.06 2.06 0 0 1-2-2.56c2.16-8.42 11.16-14.44 19.67-13.16.62.09 1.24.22 1.86.35a12.37 12.37 0 0 0 3.26.4c1.1-.08 2.14-.74 2.23-1.42a3.09 3.09 0 0 0-.88-2.64c-3.22-3.52-13.31-4.72-17.78-4.52-8.5.34-15.9 3.86-20.29 9.68A2.05 2.05 0 1 1 97 104c5.13-6.8 13.67-10.92 23.4-11.31 3.22-.1 16.08.5 21 5.85a7.21 7.21 0 0 1 1.93 5.94c-.4 3-3.33 4.8-6 5a15.38 15.38 0 0 1-4.38-.48c-.54-.11-1.08-.23-1.63-.31-6.52-1-13.42 3.65-15.08 10.12a2.05 2.05 0 0 1-1.99 1.51z" fill="#7d2681"/><path d="M155.74 193.07A2.05 2.05 0 0 1 154 190c5.08-8.56 18.27-12.31 27.67-7.87.67.31 1.32.67 2 1a15 15 0 0 0 3.67 1.61c1.29.29 3 0 3.42-1.06a4 4 0 0 0-.13-3.62c-2.57-5.28-13.63-10-19-11.41a33.81 33.81 0 0 0-17-.15 2.05 2.05 0 1 1-1-4 37.84 37.84 0 0 1 19 .15c3.63.93 17.94 6 21.65 13.59a8.18 8.18 0 0 1 .2 7.06c-1.38 3.13-5.1 4.09-8.08 3.41a18.29 18.29 0 0 1-4.72-2c-.58-.32-1.17-.64-1.76-.92-7.5-3.54-18.38-.5-22.39 6.25a2.06 2.06 0 0 1-1.79 1.03z" fill="#7d2681"/><path d="M120.2 40c-.19 2.12 2.5 5.66 6.2 6s7-2.63 7.19-4.75-13.2-3.35-13.39-1.25z" fill="#7d2681"/><path d="M126.13 51.11h-.19a2.05 2.05 0 0 1-1.86-2.23l.41-4.54a2.05 2.05 0 0 1 4.09.37l-.41 4.54a2.05 2.05 0 0 1-2.04 1.86z" fill="#7d2681"/><path d="M139.28 42.15a6.5 6.5 0 1 0 7.07-5.95 6.56 6.56 0 0 0-7.07 5.95z" fill="#fff"/><path d="M141.28 42.34a4.49 4.49 0 1 0 4.89-4.11 4.54 4.54 0 0 0-4.89 4.11z" fill="#7d2681"/><path d="M139.22 42.14a2.19 2.19 0 1 0 2.38-2 2.21 2.21 0 0 0-2.38 2z" fill="#fff"/><path d="M101.05 38.84a6.5 6.5 0 1 0 7.07-5.95 6.56 6.56 0 0 0-7.07 5.95z" fill="#fff"/><path d="M103 39a4.49 4.49 0 1 0 4.89-4.11A4.54 4.54 0 0 0 103 39z" fill="#7d2681"/><path d="M101 38.84a2.19 2.19 0 1 0 2.38-2 2.21 2.21 0 0 0-2.38 2z" fill="#fff"/><path d="M85.51 41.31a2.05 2.05 0 0 1-2-1.77C82 28.84 79.25 3.6 85.74.47c8.4-3.37 25.06 12.27 28.32 15.44a2.05 2.05 0 1 1-2.86 2.94c-7.31-7.1-19.53-16.32-23.8-14.63-2.23 1.36-2.22 17.63.15 34.76a2.05 2.05 0 0 1-1.75 2.31z" fill="#7d2681"/><path d="M91.3 31.54a2.05 2.05 0 0 1-2-1.77C87.55 17.33 88.12 10.32 91 8.95c4.63-1.87 12.36 5 15.47 8a2.05 2.05 0 1 1-2.86 2.94c-4.42-4.3-9.09-7.23-10.66-7.23-.77 1.81-.6 9.27.41 16.55a2.05 2.05 0 0 1-1.75 2.32z" fill="#7d2681"/><path d="M157.24 35.59a2.06 2.06 0 0 1-1.94-2.73c3.92-11.26 5.06-21 3.43-21.84-2.35-1.23-11.57 3.72-18.69 9.12a2.05 2.05 0 1 1-2.48-3.27c3.94-3 17.26-12.53 23.08-9.48 6 3.16 1 19.81-1.46 26.82a2.05 2.05 0 0 1-1.94 1.38z" fill="#7d2681"/><path d="M207.71 148.12c-5.38 9.44-23 9.35-39.31-.21s-25.21-25-19.84-34.41 23-9.35 39.31.21 25.22 24.97 19.84 34.41z" fill="#e4c9d1"/><path d="M289.37 132.61a10.52 10.52 0 0 0-9.11-9.17 9.65 9.65 0 0 0-7.09 2.28c-7.25 6.25-6.54 19.7-2.25 27.29 3.61 6.38 10.21 11.7 10.28 19.06.09 9.13-8.4 15.54-16.12 17.85-12.31 3.68-29.12 4.06-39.25-4.44-6.58-3-10 4.62-6.34 7.75 8.94 7.62 19.82 9.82 31.26 9.64 10.8-.17 24.08-2.27 33.18-8.55 4.09-2.83 7.67-6.35 9.57-11.08a29.15 29.15 0 0 0 .21-20.45c-2.08-5.75-5.77-11.16-5.74-17.28.03-4.35 1.96-8.6 1.4-12.9z" fill="#fff"/><path d="M281.21 172.07c.05 5.23-2.72 9.56-6.54 12.75 6.55-3 12.63-8.76 12.55-16.49-.07-7.36-6.67-12.67-10.28-19.06-4-7-4.86-19 .71-25.69a9.66 9.66 0 0 0-4.47 2.14c-7.25 6.25-6.54 19.7-2.25 27.29 3.61 6.39 10.2 11.7 10.28 19.06z" fill="#e4c9d1"/><path d="M220.85 192c-1.36-1.16-2 1.22-1.35 1.22 8.94 7.62 19.82 9.82 31.26 9.64 10.8-.17 24.08-2.27 33.18-8.55.55-.38 5.69-7.57 6.22-8-13.53 10.84-44.97 19.96-69.31 5.69z" fill="#e4c9d1"/><path d="M249.54 204.93c-13.1 0-23.37-3.32-31.37-10.14a2.05 2.05 0 1 1 2.66-3.13c7.56 6.44 17.11 9.32 29.9 9.15 7.72-.12 22.14-1.35 32-8.19 4.42-3.06 7.31-6.38 8.83-10.15a27 27 0 0 0 .18-19c-.61-1.67-1.35-3.3-2.13-5-1.85-4.05-3.75-8.25-3.73-13a31.59 31.59 0 0 1 .79-6 20.74 20.74 0 0 0 .62-6.61 8.46 8.46 0 0 0-7.26-7.39 7.73 7.73 0 0 0-5.56 1.8c-6.58 5.67-5.48 18.22-1.8 24.73a52.86 52.86 0 0 0 3.92 5.67c3.23 4.27 6.57 8.69 6.63 14.38.1 10-8.76 17.19-17.58 19.83-12 3.6-30 4.49-41.16-4.83a2.05 2.05 0 1 1 2.64-3.15c9.87 8.28 26.28 7.35 37.35 4 7.11-2.13 14.73-8 14.65-15.86 0-4.33-2.84-8-5.8-11.94a56.7 56.7 0 0 1-4.22-6.12c-5-8.76-5.06-23.17 2.69-29.86a11.6 11.6 0 0 1 8.61-2.77 12.63 12.63 0 0 1 11 10.95 24.21 24.21 0 0 1-.67 7.94 28.11 28.11 0 0 0-.71 5.24c0 3.81 1.62 7.42 3.36 11.24.78 1.72 1.59 3.51 2.25 5.33a31.1 31.1 0 0 1-.24 21.92c-1.83 4.55-5.2 8.47-10.31 12-10.79 7.45-26.13 8.78-34.31 8.91z" fill="#7d2681"/><path d="M209.84 188.39h-.26a5.88 5.88 0 0 1-4.22-2.09 6.4 6.4 0 0 1-1.54-4.36 2.05 2.05 0 0 1 2-2h.06a2.05 2.05 0 0 1 2 2.11 2.31 2.31 0 0 0 .55 1.57 1.82 1.82 0 0 0 1.29.67 1.44 1.44 0 0 0 1.16-.45 2.23 2.23 0 0 0 0-3 2.05 2.05 0 1 1 3.11-2.68 6.37 6.37 0 0 1-.29 8.6 5.62 5.62 0 0 1-3.86 1.63z" fill="#7d2681"/><path d="M215.43 183h-.26a6 6 0 0 1-4.22-2.09 2.05 2.05 0 1 1 3.11-2.68 1.82 1.82 0 0 0 1.29.67 1.6 1.6 0 0 0 1.16-.45 2.23 2.23 0 0 0 0-3 1.83 1.83 0 0 0-1.26-.67 2.05 2.05 0 0 1-1.91-2.18 2 2 0 0 1 2.18-1.91 5.89 5.89 0 0 1 4.1 2.08 6.36 6.36 0 0 1-.29 8.6 5.61 5.61 0 0 1-3.9 1.63z" fill="#7d2681"/><path d="M2.05 213.3c0 7.49 24.23 13.57 54.12 13.57s54.12-6.07 54.12-13.57v-6H2.05z" fill="#cd5b83"/><path d="M105.17 206.43v11.72c3.28-1.75 5.12-3.7 5.12-5.76v-6z" fill="#fff"/><path d="M21.59 206.43H2.05v6c0 4.2 7.6 7.95 19.54 10.43z" fill="#b74b75"/><path d="M56.17 228.91C28.25 228.91 0 223.55 0 213.3v-7.85a2.05 2.05 0 0 1 4.1 0v7.85c0 4.69 20.28 11.51 52.06 11.51s52.07-6.82 52.07-11.51v-8.71a2.05 2.05 0 0 1 4.1 0v8.71c.01 10.25-28.25 15.61-56.16 15.61z" fill="#7d2681"/><ellipse cx="56.17" cy="204.59" rx="54.12" ry="13.57" fill="#ec7493"/><path d="M56.17 220.21C28.25 220.21 0 214.85 0 204.59S28.25 189 56.17 189s56.17 5.36 56.17 15.62-28.26 15.59-56.17 15.59zm0-27.13c-31.78 0-52.06 6.82-52.06 11.52s20.28 11.51 52.06 11.51 52.07-6.82 52.07-11.51-20.29-11.52-52.07-11.52z" fill="#7d2681"/><ellipse cx="91.6" cy="201.76" rx="9.17" ry="2.64" fill="#fff"/><ellipse cx="21.11" cy="208.01" rx="8.83" ry="2.25" fill="#fff"/><ellipse cx="55.34" cy="211.58" rx="6.14" ry="1.77" fill="#fff"/><ellipse cx="42.41" cy="196.15" rx="6.14" ry="1.77" fill="#fff"/><ellipse cx="64.79" cy="201.76" rx="4.25" ry="1.22" fill="#fff"/><ellipse cx="86.12" cy="211.04" rx="4.25" ry="1.22" fill="#fff"/><ellipse cx="21.11" cy="199.26" rx="4.25" ry="1.09" fill="#fff"/><ellipse cx="42.41" cy="204.91" rx="2.96" ry=".85" fill="#fff"/><ellipse cx="71.4" cy="195.24" rx="2.96" ry=".85" fill="#fff"/><ellipse cx="70.61" cy="208.4" rx="2.96" ry=".85" fill="#fff"/></g></g></svg>