<svg xmlns="http://www.w3.org/2000/svg" viewBox="-7.260000228881836 -12.249998092651367 232.54998779296875 422.7099914550781"><title>Depositphotos_121444850_09</title><g data-name="Layer 2"><g data-name="—ÎÓÈ_1"><path d="M107.91 288.08s20.61 35.8 3.41 71.42c0 0-3.08 20.68 20.6-24.3 22.68-43.09-24.01-47.12-24.01-47.12z" fill="#e57368"/><path d="M107.91 288.08s20.61 35.8 3.41 71.42c0 0-3.08 20.68 20.6-24.3 22.68-43.09-24.01-47.12-24.01-47.12z" fill="#e57368"/><path d="M107.91 288.08s20.61 35.8 3.41 71.42c0 0-3.08 20.68 20.6-24.3 22.68-43.09-24.01-47.12-24.01-47.12z" fill="#fff" opacity=".4"/><path d="M52.35 50.8s36.07 21.29 65.54-2.18c0 0 13.87-10.89-1.18 8.8-17.94 23.47-63.86 13.89-63.86 13.89z" fill="#ed9c98"/><path d="M52.35 50.8s36.07 21.29 65.54-2.18c0 0 13.87-10.89-1.18 8.8-17.94 23.47-63.86 13.89-63.86 13.89z" fill="#ed9c98"/><path d="M78.07 67s28.54 5.39 44.36-19.2c0 .03-13.34 20.13-44.36 19.2z" fill="#e57368"/><path d="M54.56 43.34s46.72 1.37 62.87-37.46c0 0 7.69-18.13 3.59 9.24-4.87 32.59-54.92 48-54.92 48z" fill="#ed9c98"/><path d="M54.56 43.34s46.72 1.37 62.87-37.46c0 0 7.69-18.13 3.59 9.24-4.87 32.59-54.92 48-54.92 48z" fill="#fff" opacity=".6"/><path d="M61.12 47.33s41 8.38 61.25-23.41c0 0 9.57-14.82 1.75 8.71-9.31 28-55.84 33.93-55.84 33.93z" fill="#ed9c98"/><path d="M61.12 47.33s41 8.38 61.25-23.41c0 0 9.57-14.82 1.75 8.71-9.31 28-55.84 33.93-55.84 33.93z" fill="#f9b39a" opacity=".2"/><path d="M61.12 47.33s41 8.38 61.25-23.41c0 0 9.57-14.82 1.75 8.71-9.31 28-55.84 33.93-55.84 33.93z" fill="#fff" opacity=".4"/><path d="M88.44 44s30.8-10.12 33-42.68c0 .01-2.2 26.85-33 42.68z" fill="#e57368"/><path d="M90.72 54.29s28.74-4.21 35.68-32.61c0 0-6.06 23.32-35.68 32.61z" fill="#e57368"/><path d="M197.42 360.83s-37.38-34-42.8-85.55-24.08-135-46.11-141A132.39 132.39 0 0 1 101 93.54c-.43-29.58-19-46.79-44.76-50.18s-36.05 9.46-36.05 9.46-12.1 16.31-4 42.76c0 0 20.34-1.36 14.92 28.48C25.92 153.09 1.38 251.44 68.13 268q2.78.69 5.78 1.19s54-.44 48.5 94c-2 10.05-6.38 23.89-15.94 33.7 0 0-7 13.54 50.87-11.18 22.5-4.64 45.66-12.55 40.08-24.88z" fill="#e57368"/><path d="M139.91 262.27C61.33 290.4 31.28 205 23.23 174.62 20 212.76 25.15 257.34 68.13 268q2.78.69 5.78 1.19s22.68-.17 37.14 25.44c7.65-.57 13.58-1.05 14.19-1.25 1.76-.61 14.67-31.11 14.67-31.11z" fill="#dc4437" opacity=".5"/><path d="M197.42 360.83s-37.38-34-42.8-85.55c-1-9.38-1.84-20-2.81-31.09-17.27-25-28.85-37.48-21.12-12.28 13.94 45.46-11.16 51.68-28.13 51.14 11.9 12.38 22.43 35.81 19.86 80.17-2 10.05-6.38 23.89-15.94 33.7 0 0-7 13.54 50.87-11.18 22.49-4.67 45.65-12.58 40.07-24.91z" fill="#fff" opacity=".4"/><path d="M123.2 282.51S150.92 331.35 125 385c0 0 19.32-39.13-1.8-102.49z" fill="#e57368" opacity=".5"/><path d="M119.9 279.33s42.59 36.6 36.3 95.9c0 0 4.99-43.4-36.3-95.9z" fill="#e57368" opacity=".5"/><path d="M135.52 253l-.81.47c.79 25.26-17.35 29.75-31 29.57l.17 1.37c9.27 10.38 15 17 14.52 50 6.6 8.8 16.28-4 16.28-4 1.32 16.72 17.6 4.84 17.6 4.84C176 313.31 135.52 253 135.52 253z" fill="#f5815a" opacity=".6"/><path d="M9.09 262.85s115.58 2.93 176.59 42.24c0 0 11.15 14.08-4.69 23.47 0 0-82.72-42.24-176.59-43.41-.01-.01-7.05-14.09 4.69-22.3z" fill="#795547"/><path d="M74.43 268.55a9.89 9.89 0 0 0-12.88.94s-9.29 19.41 9.34 29.79c0 0 1.9-.58-1.62-3.43s-6.73-16.78 5.16-27.3z" fill="#34495e"/><path d="M69.64 274.09a21.67 21.67 0 0 0-3.18 16 6.95 6.95 0 0 1-4.79.3c-3.94-7.19-2.22-15-1-18.71a7.16 7.16 0 0 1 3-.66 7.72 7.72 0 0 1 5.97 3.07z" fill="#fff" opacity=".2"/><path d="M85.57 268.55a9.89 9.89 0 0 0-12.88.94S63.4 288.9 82 299.28c0 0 1.89-.58-1.62-3.43s-6.69-16.78 5.19-27.3z" fill="#34495e"/><path d="M80.78 274.09a21.68 21.68 0 0 0-3.17 16 6.95 6.95 0 0 1-4.79.3c-3.94-7.19-2.22-15-1-18.71a7.14 7.14 0 0 1 3-.66 7.72 7.72 0 0 1 5.96 3.07z" fill="#fff" opacity=".2"/><path d="M40.18 78.63s14.08 31.68 54 19.95c-.03 0-35.18 7.04-54-19.95z" fill="#dc4437" opacity=".5"/><path d="M44.11 73.89s14.93 19.69 40.4 5c0 0-23.03 10.66-40.4-5z" fill="#dc4437" opacity=".5"/><path d="M62.18 69.22s19.26 13.61 29-4.72c-.01 0-10.06 14.32-29 4.72z" fill="#dc4437" opacity=".5"/><path d="M21.7 54s19.26 13.61 29-4.72c-.01-.04-10.06 14.28-29 4.72z" fill="#dc4437" opacity=".5"/><path d="M46.48 45.91s10.84 13.16 21.12 2.23c0 0-9.74 8.07-21.12-2.23z" fill="#dc4437" opacity=".5"/><path d="M50.44 57.49s19.27 13.61 29-4.72c-.01 0-10.05 14.31-29 4.72z" fill="#dc4437" opacity=".5"/><path d="M67.46 87.41s19.26 13.61 29-4.72c-.01 0-10.06 14.31-29 4.72z" fill="#dc4437" opacity=".5"/><path d="M29.62 143.17s-8.8 39.31 14.08 29.33c0 0-18.19 5.28-14.08-29.33z" fill="#dc4437" opacity=".5"/><path d="M33.53 119.22s-2 40.23 18.86 26.51c0 0-17.02 8.27-18.86-26.51z" fill="#dc4437" opacity=".5"/><path d="M24.92 172.5s-8.8 39.31 14.08 29.34c0 0-18.18 5.28-14.08-29.34z" fill="#dc4437" opacity=".5"/><path d="M24.81 209.45s6.74 39.71 24.14 21.82c0 0-14.84 11.73-24.14-21.82z" fill="#dc4437" opacity=".5"/><path d="M43.4 112s19.27 13.61 29-4.72c-.01.05-10.05 14.37-29 4.72z" fill="#dc4437" opacity=".5"/><path d="M69.22 116.74s19.26 13.61 29-4.72c-.01-.02-10.06 14.32-29 4.72z" fill="#dc4437" opacity=".5"/><path d="M46.58 126.62s14 19 29 4.57c.02 0-14 10.46-29-4.57z" fill="#dc4437" opacity=".5"/><path d="M47.17 153s14 19 29 4.57c.01.02-14 10.49-29-4.57z" fill="#dc4437" opacity=".5"/><path d="M39 178.25s11 14.75 23 3.43c0 0-11.19 8.32-23-3.43z" fill="#dc4437" opacity=".5"/><path d="M54.21 192.33s11.08 14.78 23.07 3.44c0-.01-11.21 8.23-23.07-3.44z" fill="#dc4437" opacity=".5"/><path d="M33.75 207.33s17.63 23.52 36.7 5.47c0 0-17.83 13.2-36.7-5.47z" fill="#dc4437" opacity=".5"/><path d="M52.52 223.17s17.63 23.52 36.7 5.47c.01 0-17.83 13.16-36.7-5.47z" fill="#dc4437" opacity=".5"/><path d="M47.83 240.19s17.63 23.52 36.7 5.47c0 0-17.83 13.16-36.7-5.47z" fill="#dc4437" opacity=".5"/><circle cx="53.24" cy="64.29" r="7.48" fill="#fff"/><circle cx="53.24" cy="64.29" r="5.15" fill="#2c3e50"/><circle cx="51.74" cy="62.14" r="2.16" fill="#fff"/><path d="M96.71 71.77c-7-16.31-21.82-26-40.42-28.41-25.77-3.36-36.05 9.46-36.05 9.46a37.31 37.31 0 0 0-5.09 11.71c5.48.93 10.37 1.79 10.37 1.79s33.96-30.56 71.19 5.45z" fill="#fff" opacity=".2"/><path d="M23.32 93.74s-.48 1.06-1.25 2.85c5.54 2.09 12.59 8.41 9.13 27.47-.41 2.23-.93 4.88-1.51 7.87 15-13.16 4.12-33.61 3.58-35.8z" fill="#dc4437"/><path d="M12 72.18s-4.54-11.91 9.1-11.44c12.76.44 23.68 10.49 11.69 19.18S12 72.18 12 72.18z" fill="#dc4437"/><path d="M16.13 103.56c-.19-.86 10.85 3.23 17-8.21 0 0 0 7.91-2.35 11.15-3.78 5.28-12.89 4.98-14.65-2.94z" fill="#7f8c8d"/><path d="M32.81 79.92S16.6 64.16 5.34 75.87c0 0-12.6 20.26.9 33.31 0 0 9.3 10.21 16.51 9.31 0 0 1.5-.75-4.8-6.6s-3.15-10.81-1.35-11.25 16.66 1.8 16.66-4.5-.45-16.22-.45-16.22z" fill="#95a5a6"/><path d="M30.21 77.73c-9.7 2.35-27.37 10.27-17.66 36.4.1.27.18.51.27.78a45.38 45.38 0 0 1-6.58-5.73c-13.5-13.05-.9-33.31-.9-33.31 8.51-8.87 19.85-2.01 24.87 1.86z" fill="#fff" opacity=".3"/><ellipse cx="9.4" cy="81.72" rx="6.67" ry="4.73" transform="rotate(-65.42 9.393 81.721)" fill="#fff" opacity=".5"/><path d="M80.37 116.69s-51.43 29.2 17 129c0 0 20.9 29.89 42.6 11.05 0 0 29 77.07 77.12 81.92 0 0 8.2 1.87-2.41-14s-40-49.57-76.74-152.23c-.05.01-23.01-66.43-57.57-55.74z" fill="#ed9c98"/><path d="M80.37 116.69s-51.43 29.2 17 129c0 0 20.9 29.89 42.6 11.05 0 0 29 77.07 77.12 81.92 0 0 8.2 1.87-2.41-14s-40-49.57-76.74-152.23c-.05.01-23.01-66.43-57.57-55.74z" fill="#fff" opacity=".6"/><path d="M213.93 338.27c-65.51-36.91-86.15-125.35-86.15-125.35a280.28 280.28 0 0 0 11.44 44.45l.7-.58s27.77 73.73 74.01 81.48z" fill="#ed9c98"/><path d="M220 337.22a5.2 5.2 0 0 0-.14-2.51C196 312.78 158.8 268 136.69 188.4c0 0 17.7 96.6 83.31 148.82z" fill="#ed9c98"/><path d="M111.07 211.19c-.47-1.88 11.72 64.29 28.85 45.59 0 0-14.29 12.31-28.85-45.59z" fill="#ed9c98"/><path d="M91.53 221.62c-.93-1.7 27.91 58.82 41.59 37.46 0 0-12.12 16.55-41.59-37.46z" fill="#ed9c98"/><path d="M113.52 210.12s20.51 16.17 20.87-16.06c-.01 0-3.27 26.82-20.87 16.06z" fill="#ed9c98"/><path d="M114.58 189.59s20.51 16.17 20.87-16.06c0 0-3.27 26.82-20.87 16.06z" fill="#ed9c98"/><path d="M77.55 207.12s17.64 16.66 17-15.41c.04 0-1.94 26.61-17 15.41z" fill="#ed9c98"/><path d="M95.76 190.86s17.64 16.66 17-15.41c.04 0-1.95 26.6-17 15.41z" fill="#ed9c98"/><path d="M87.12 186.44S76.06 208 65.91 177.61c0 0 10.76 24.39 21.21 8.83z" fill="#ed9c98"/><path d="M95.13 166.18s-8.64 33.66-32.42-5.64c.01-.01 22.74 30.7 32.42 5.64z" fill="#ed9c98"/><path d="M93.59 149.84s-5.83 33.16-29.14-7.43c0 0 21.9 31.96 29.14 7.43z" fill="#ed9c98"/><path d="M112.25 172.26s17.64 16.66 17-15.4c.05 0-1.94 26.6-17 15.4z" fill="#ed9c98"/><path d="M97.86 164.89s21 16.09 21.51-16.17c-.01 0-3.48 26.86-21.51 16.17z" fill="#ed9c98"/><path d="M75.92 140.44s21 16.09 21.51-16.17c0 0-3.43 26.85-21.51 16.17z" fill="#ed9c98"/><path d="M93.42 150.56s21 16.09 21.51-16.17c0 0-3.48 26.85-21.51 16.17z" fill="#ed9c98"/><path d="M87.5 219.19s20.51 16.17 20.87-16.06c0 0-3.26 26.87-20.87 16.06z" fill="#ed9c98"/><path d="M128.94 170c10 25.82 11.38 73-.45 77.54s-42-32.19-52-58-4.07-57.15 7.76-61.73 34.69 16.42 44.69 42.19z" fill="#fff" opacity=".4"/></g></g></svg>