<svg xmlns="http://www.w3.org/2000/svg" viewBox="0 0 14.510000228881836 86.2300033569336"><title>Depositphotos_87521474_17_ic</title><g data-name="Layer 2"><path d="M7.23 0C3 0 0 9 0 15.07c0 3.09.81 4.91 2 6v9.84a.5.5 0 0 0 0 .2V81a5.23 5.23 0 0 0 10.46 0V31.12a.49.49 0 0 0 .05-.22V21c1.18-1.09 2-2.9 2-5.92C14.46 9 11.43 0 7.23 0zm4.28 30.41H3v-8.64a8.49 8.49 0 0 0 4.16.93 9.05 9.05 0 0 0 3.84-.76 5.49 5.49 0 0 0 .49-.24zM12.09 20c-1-1.36-2.28-1.86-4.88-1.86s-3.6.45-4.82 1.86C1.49 19 1 17.46 1 15.07 1 9.06 4.08 1 7.23 1s6.23 8.06 6.23 14.07c0 2.39-.46 3.93-1.37 4.93z" fill="#fff" data-name="Ñëîé 2"/></g></svg>