<svg xmlns="http://www.w3.org/2000/svg" viewBox="0 0 148.89999389648438 129.85000610351562"><title>Depositphotos_66062865_01</title><g data-name="Layer 2"><g data-name="Layer 1" fill-rule="evenodd"><path fill="#e5e5e5" d="M37.45 80.1l12.05-3.2-5.45 9.5-6.6-6.3z"/><path fill="#fff" d="M44.05 86.4l5.45-9.5-12.05 3.2-12.1 3.25L0 26.15 86.55 0l-.65 67.15-36.4 9.75 5.25 19.8-10.7-10.3z"/><path fill-opacity=".102" d="M27.5 82.75L45.55 51.5 76.9 69.55 49.5 76.9l5.25 19.8-17.3-16.6-9.95 2.65z"/><path d="M135.2 103.7l-13.65 3.7-37.25 10-38.8-65.7 96-22.25 7.4 70.65zm-2.9 9.9l-4.75 16.25-6-22.45z" fill="#00a4fc"/><path fill="#0083ca" d="M132.3 113.6l-10.75-6.2 13.65-3.7-2.9 9.9z"/><path d="M127.8 88.15a3 3 0 0 1-1.6-2 3.38 3.38 0 0 1 2.35-4.1 3 3 0 0 1 2.55.35 3.23 3.23 0 0 1 1.6 2.05 3 3 0 0 1-.4 2.5 3.06 3.06 0 0 1-2 1.55 3 3 0 0 1-2.5-.35z" fill="#fff"/><path d="M108.75 89.15a4.81 4.81 0 0 1 .45-3.75 5.06 5.06 0 0 1 3-2.2 4.83 4.83 0 0 1 3.7.4 5.15 5.15 0 0 1 2.3 3 4.9 4.9 0 0 1-.5 3.75 5.14 5.14 0 0 1-3 2.3 4.62 4.62 0 0 1-3.75-.5 4.74 4.74 0 0 1-2.2-3z" fill="#fff"/><path d="M89.3 87.7a6.51 6.51 0 0 1 4.05-3 7 7 0 0 1 5 .6 6.51 6.51 0 0 1 3 4 6.31 6.31 0 0 1-.6 5 6.41 6.41 0 0 1-4 3.05 6.54 6.54 0 0 1-8-4.65 6.81 6.81 0 0 1 .55-5z" fill="#fff"/></g></g></svg>