<svg xmlns="http://www.w3.org/2000/svg" viewBox="0 -0.09230184555053711 22.65999984741211 88.41230010986328"><title>Depositphotos_87521474_16_ic</title><g data-name="Layer 2"><g data-name="Ñëîé 2" fill="#fff"><path d="M21.22 60.16v-2.52A2.73 2.73 0 0 0 19.27 55V28a.5.5 0 0 0-.5-.5h-1V5.79a5.14 5.14 0 0 0-1.1-3.3c-.23 4-2.49 7.08-5.28 7.08s-5-3.16-5.25-7.13a5.12 5.12 0 0 0-1.22 3.35V27.5h-1a.5.5 0 0 0-.5.5v27a2.78 2.78 0 0 0-1.95 2.66v2.45H0v28.21h22.66V60.16zM4.39 28.5h13.88v26.44H4.39zm15.83 31.22H2.45v-2a1.79 1.79 0 0 1 1.5-1.77h14.8a1.73 1.73 0 0 1 1.46 1.7z"/><path d="M11.35 8.4c2.25 0 4.08-2.83 4.26-6.42a5.13 5.13 0 0 0-4.29-2 5.14 5.14 0 0 0-4.23 1.96c.17 3.61 2 6.46 4.26 6.46z"/></g></g></svg>