<svg xmlns="http://www.w3.org/2000/svg" viewBox="-1.3600001335144043 -0.0619502067565918 76.95000457763672 89.00194549560547"><title>Depositphotos_87521474_12_ic</title><g data-name="Layer 2"><g data-name="Ñëîé 2" fill="#fff"><path d="M53.42 20.09l-6.78-1.89a1.36 1.36 0 0 0-1.53.68L42.1 25a1.31 1.31 0 0 0 0 1.11l8.25 19.09a1.32 1.32 0 0 0 1.21.79 1.3 1.3 0 0 0 .52-.11l9.77-4.22a1.31 1.31 0 0 0 .69-1.73l-8.23-19a1.3 1.3 0 0 0-.89-.84zm8.17 20.43a.3.3 0 0 1-.17.17l-9.77 4.22h-.12a.32.32 0 0 1-.29-.19L43 25.66a.31.31 0 0 1 0-.26l3-6.07a.31.31 0 0 1 .18-.14.32.32 0 0 1 .13 0h.07l6.78 1.89a.31.31 0 0 1 .2.18l8.23 19a.3.3 0 0 1 0 .26z"/><circle cx="54.11" cy="56.82" r="2.16"/><circle cx="33.09" cy="46.51" r="2.16"/><circle cx="48.67" cy="74.78" r="2.61"/><circle cx="12.89" cy="76.61" r="2.16"/><circle cx="26.39" cy="58.74" r="2.55" transform="rotate(-12.35 26.375 58.725)"/><path d="M65.4 41.68a4.27 4.27 0 0 0-.14-3l-6.47-15a21.8 21.8 0 0 0 10.35-.24l.15-.06a.66.66 0 0 0-.51-1.21 20.58 20.58 0 0 1-10.65 0L57 19.65s-.06-.09-.08-.14a11.58 11.58 0 0 0 2.08-.39 7.83 7.83 0 0 0 1.67-.69 5 5 0 0 0 .92-.67 3.53 3.53 0 0 0 1.2-2.91 4 4 0 0 0-2-2.84 7.11 7.11 0 0 0-2.12-.84l.25-.24a7.4 7.4 0 0 0 1.6-2.28 3.71 3.71 0 0 0 0-3c-.88-1.65-2.99-2.17-4.71-1.9a10.07 10.07 0 0 0-6.43 4.37l1.46-4.75a2.16 2.16 0 0 0-.36-2A4 4 0 0 0 47.26 0h-19.7a4 4 0 0 0-3.23 1.41 2.16 2.16 0 0 0-.36 2l3.82 12.4C7.68 38.44-1.36 60.14.16 82.09a7.38 7.38 0 0 0 7.34 6.85h59.82a7.38 7.38 0 0 0 7.33-6.86c.94-13.46-2.12-26.84-9.25-40.4zm-1.06-2.59a3.32 3.32 0 0 1-1.73 4.36l-9.77 4.22a3.3 3.3 0 0 1-1.31.27 3.32 3.32 0 0 1-3-2l-8.3-19.09a3.31 3.31 0 0 1 .07-2.79l3-6.07a3.3 3.3 0 0 1 1.78-1.61 3.37 3.37 0 0 1 1.21-.23 3.22 3.22 0 0 1 .87.12l6.84 1.9A3.3 3.3 0 0 1 56.11 20zM60 60.51A2.66 2.66 0 0 1 55.1 62a2.66 2.66 0 1 1-5-1.75 2.66 2.66 0 1 1-1-5.2 2.66 2.66 0 1 1 4-3.45 2.66 2.66 0 1 1 5 1.75 2.66 2.66 0 1 1 1 5.2 2.65 2.65 0 0 1 .9 1.96zm-4.27 18.73a3.22 3.22 0 0 1-5.87 1.82 3.21 3.21 0 1 1-6-2.11 3.21 3.21 0 1 1-1.19-6.28 3.21 3.21 0 1 1 4.85-4.17 3.21 3.21 0 1 1 6 2.11 3.21 3.21 0 1 1 1.19 6.28 3.2 3.2 0 0 1 1.02 2.35zM34.06 61.52a3.14 3.14 0 0 1-2.4 3.74 3.13 3.13 0 0 1-.74.07h-.19a3.12 3.12 0 0 1-.5-.08l-.23-.08a3.15 3.15 0 0 1-.44-.19l-.19-.1a3.17 3.17 0 0 1-.55-.4 3.13 3.13 0 0 1-1 2.28 3.16 3.16 0 0 1-.5.37l-.18.09a3.15 3.15 0 0 1-.36.17l-.23.06-.34.09h-1.2a3.15 3.15 0 0 1-.36-.11l-.24-.08a3.16 3.16 0 0 1-.37-.21l-.17-.14a3.13 3.13 0 0 1-1.23-3.27A3.21 3.21 0 0 1 22 64h-.22a3.1 3.1 0 0 1-.52.07h-.49a3.1 3.1 0 0 1-.58-.12 3.14 3.14 0 0 1 0-6 3.13 3.13 0 0 1-1.47-2 3.15 3.15 0 0 1 .8-2.84 3.13 3.13 0 0 1 1-.7 3.17 3.17 0 0 1 .61-.2 3.13 3.13 0 0 1 .74-.07h.19a3.11 3.11 0 0 1 .5.08l.22.07a3.13 3.13 0 0 1 .44.19l.19.1a3.18 3.18 0 0 1 .55.4 3.19 3.19 0 0 1 .26-1.23 3 3 0 0 1 1.29-1.45l.13-.06a3.09 3.09 0 0 1 .48-.21h.1a3.16 3.16 0 0 1 .58-.11 3.25 3.25 0 0 1 .63 0 3.13 3.13 0 0 1 .6.13l.38.14.27.15.2.11a3.15 3.15 0 0 1 .5.44 3.67 3.67 0 0 1 .74 2.83 3.16 3.16 0 0 1 1.55-.41 3.14 3.14 0 0 1 2.45 1.19 3.14 3.14 0 0 1-1.56 5 3.13 3.13 0 0 1 1.5 2.02zM31.44 75a2.25 2.25 0 1 1-2.25-2.25A2.25 2.25 0 0 1 31.44 75zm-12.71 5.3a2.66 2.66 0 0 1-4.86 1.51 2.66 2.66 0 1 1-5-1.75 2.66 2.66 0 1 1-1-5.2 2.66 2.66 0 1 1 4-3.45 2.66 2.66 0 1 1 5 1.75 2.66 2.66 0 1 1 1 5.2 2.65 2.65 0 0 1 .86 1.94zm-8.41-21.07A1.81 1.81 0 1 1 12.13 61a1.81 1.81 0 0 1-1.81-1.77zm8.25-17.31a2.25 2.25 0 1 1 2.25 2.25 2.25 2.25 0 0 1-2.25-2.26zm15.5 9.8a2.69 2.69 0 0 1-.54 1.09 4.16 4.16 0 0 0-.6-.26 4.09 4.09 0 0 0-1.76-.16 4.09 4.09 0 0 0-5-3.37 2.66 2.66 0 0 1 1.93-4.24 2.7 2.7 0 0 1-.62-.87 2.58 2.58 0 0 1-.16-1.68v-.16a2.63 2.63 0 0 1 .16-.41l.08-.14a2.67 2.67 0 0 1 .26-.38l.08-.09a2.72 2.72 0 0 1 .43-.39 2.65 2.65 0 0 1 3.74.66 2.65 2.65 0 0 1 5.22.91 3.41 3.41 0 0 1-.07.38 2.68 2.68 0 0 1-.16.46 2.74 2.74 0 0 1 .47-.09H38a2.65 2.65 0 0 1 .43.06h.19a2.62 2.62 0 0 1 .59.24 2.66 2.66 0 0 1-1.12 5A2.66 2.66 0 0 1 35 52.55a2.68 2.68 0 0 1-.93-.84zm6.62 6.83a2 2 0 1 1-2 2 2 2 0 0 1 2-2.01zm19.37-45.4A2.83 2.83 0 0 1 61.47 15a2.23 2.23 0 0 1-.78 1.79 5.11 5.11 0 0 1-2.07 1.06 10.61 10.61 0 0 1-2.58.41 4.28 4.28 0 0 0-1.82-1.06L49.74 16a17.93 17.93 0 0 0 5.21-2 17.76 17.76 0 0 0 2.43-1.68 6.16 6.16 0 0 1 2.68.83zm-9.3 1.2a14.45 14.45 0 0 1 3-1.54 9.39 9.39 0 0 1 1.12-.32 17 17 0 0 1-4.13 1.85zM50.38 9A8.79 8.79 0 0 1 56 5.06c1.2-.19 2.73.09 3.25 1.16a2.42 2.42 0 0 1 0 1.94A6.2 6.2 0 0 1 57.92 10c-.32.33-.65.64-1 .94a10.13 10.13 0 0 0-3.66.6 20.13 20.13 0 0 0-5.26 3.2A19.34 19.34 0 0 1 50.38 9zM24.92 3.07A1.17 1.17 0 0 1 25.13 2a3 3 0 0 1 2.42-1h19.7a3 3 0 0 1 2.42 1 1.17 1.17 0 0 1 .21 1.06l-3.73 12.1a4.36 4.36 0 0 0-1.22.22H28.72zM73.65 82a6.38 6.38 0 0 1-6.34 5.93H7.5A6.38 6.38 0 0 1 1.16 82c-1.5-21.66 7.47-43.13 27.41-65.61h14.71a4.23 4.23 0 0 0-.86 1.16l-3 6.07a4.31 4.31 0 0 0-.1 3.63l3.14 7.27a2.5 2.5 0 0 0-.79-.13A2.66 2.66 0 0 0 39.85 39a2.65 2.65 0 0 0-2 1.13 3.68 3.68 0 0 0-3.18-1.83 3.66 3.66 0 0 0-1.83.49 3.63 3.63 0 0 0-1.07.94 3.6 3.6 0 0 0-3.72 0 2.62 2.62 0 0 0-1-1.11 2.65 2.65 0 0 0-2.11-.23 2.66 2.66 0 1 0-5-1.75 2.66 2.66 0 1 0-4 3.45 2.63 2.63 0 0 0-2.41 2.2h-.1a82.63 82.63 0 0 0-9.9 38.13 5 5 0 0 0 4.94 5.1h58.07a5.06 5.06 0 0 0 4.92-5.32A84.18 84.18 0 0 0 63 44.36a4.28 4.28 0 0 0 1.85-1.54C71.66 56 74.56 69 73.65 82zm-11-13.1a2.25 2.25 0 1 1 2.25 2.25 2.25 2.25 0 0 1-2.21-2.24z"/></g></g></svg>