<svg xmlns="http://www.w3.org/2000/svg" viewBox="0 -1.286778450012207 668.3900146484375 474.8467712402344"><title>Depositphotos_80664810</title><g data-name="Layer 2"><g data-name="Layer 1"><path d="M578.58 350.16H562.5v93.35h32.2v-93.35zm0 81.21a3.76 3.76 0 1 1 3.76-3.76 3.76 3.76 0 0 1-3.76 3.76z" fill="#dc262a"/><path fill="#dc262a" d="M528.45 350.16h4.44v120.45h-4.44z"/><path fill="#dc262a" d="M540.38 332.9h3.54v137.71h-3.54z"/><path fill="#dc262a" d="M551.42 332.9h3.54v137.71h-3.54z"/><path fill="#dc262a" d="M594.7 470.62h-32.24v-17.23h32.24v17.23z"/><path fill="#dc262a" d="M602.19 332.9h3.54v137.71h-3.54z"/><path fill="#dc262a" d="M613.23 332.9h3.54v137.71h-3.54z"/><path fill="#dc262a" d="M618.27 329.9h-90.78v-8.86h102.18v8.86h-11.4z"/><path fill="#dc262a" d="M624.26 350.16h4.44v120.45h-4.44z"/><path d="M396.5 470.62h-23.42V338.09c0-44.32 17.16-61.83 23.37-66.71z" fill="#d6b1d3"/><path fill="#d6b1d3" d="M437.97 470.62h-17.2v-200.6h17.2v200.6z"/><path d="M485.66 470.62h-23.37V271.36c6.21 4.84 23.37 22.25 23.37 66.73z" fill="#d6b1d3"/><path d="M149.58 348.69v6.68a1.5 1.5 0 0 1-1.5 1.5h-8.18a1.5 1.5 0 0 1-1.5-1.5v-6.68h-5.18v6.68a1.5 1.5 0 0 1-1.5 1.5h-8.22a1.5 1.5 0 0 1-1.5-1.5v-6.68h-5.18v6.68a1.5 1.5 0 0 1-1.5 1.5h-8.18a1.5 1.5 0 0 1-1.5-1.5v-6.68h-5.14v6.68a1.5 1.5 0 0 1-1.5 1.5h-8.16a1.5 1.5 0 0 1-1.5-1.5v-6.68h-5.18v6.68a1.5 1.5 0 0 1-1.5 1.5H74.5a1.5 1.5 0 0 1-1.5-1.5v-6.68h-5.2v33h6.7a1.5 1.5 0 0 1 1.5 1.5v6.68h5.18v-6.68a1.5 1.5 0 0 1 1.5-1.5h8.18a1.5 1.5 0 0 1 1.5 1.5v6.68h5.14v-6.68a1.5 1.5 0 0 1 1.5-1.5h8.18a1.5 1.5 0 0 1 1.5 1.5v6.68h5.18v-6.68a1.5 1.5 0 0 1 1.5-1.5h8.14a1.5 1.5 0 0 1 1.5 1.5v6.68h5.18v-6.68a1.5 1.5 0 0 1 1.5-1.5h8.18a1.5 1.5 0 0 1 1.5 1.5v6.68h5.18v-6.68a1.5 1.5 0 0 1 1.5-1.5h6.68v-33zm-60.24 26.76h-5.18v-11.83h5.18zm24.53 0h-5.18v-11.83h5.18zm24.53 0h-5.18v-11.83h5.18z" fill="#faab64"/><path d="M165.94 384.69v6.68a1.5 1.5 0 0 1-1.5 1.5h-8.18a1.5 1.5 0 0 1-1.5-1.5v-6.68h-5.18v6.68a1.5 1.5 0 0 1-1.5 1.5h-8.18a1.5 1.5 0 0 1-1.5-1.5v-6.68h-5.18v6.68a1.5 1.5 0 0 1-1.5 1.5h-8.22a1.5 1.5 0 0 1-1.5-1.5v-6.68h-5.18v6.68a1.5 1.5 0 0 1-1.5 1.5h-8.18a1.5 1.5 0 0 1-1.5-1.5v-6.68h-5.14v6.68a1.5 1.5 0 0 1-1.5 1.5h-8.16a1.5 1.5 0 0 1-1.5-1.5v-6.68h-5.18v6.68a1.5 1.5 0 0 1-1.5 1.5H74.5a1.5 1.5 0 0 1-1.5-1.5v-6.68h-5.2v6.68a1.5 1.5 0 0 1-1.5 1.5h-8.17a1.5 1.5 0 0 1-1.5-1.5v-6.68h-5.18v36.18h6.68a1.5 1.5 0 0 1 1.5 1.5v6.68h5.17v-6.68a1.5 1.5 0 0 1 1.5-1.5h8.2a1.5 1.5 0 0 1 1.5 1.5v6.68h5.18v-6.68a1.5 1.5 0 0 1 1.5-1.5h8.18a1.5 1.5 0 0 1 1.5 1.5v6.68h5.14v-6.68a1.5 1.5 0 0 1 1.5-1.5h8.18a1.5 1.5 0 0 1 1.5 1.5v6.68h5.18v-6.68a1.5 1.5 0 0 1 1.5-1.5h8.14a1.5 1.5 0 0 1 1.5 1.5v6.68h5.18v-6.68a1.5 1.5 0 0 1 1.5-1.5h8.18a1.5 1.5 0 0 1 1.5 1.5v6.68h5.18v-6.68a1.5 1.5 0 0 1 1.5-1.5h8.18a1.5 1.5 0 0 1 1.5 1.5v6.68h5.18v-6.68a1.5 1.5 0 0 1 1.5-1.5h6.68v-36.18zm-101.13 29h-5.18v-11.82h5.17zm24.53 0h-5.18v-11.82h5.18zm24.53 0h-5.18v-11.82h5.18zm24.53 0h-5.18v-11.82h5.18zm24.53 0h-5.18v-11.82h5.18z" fill="#faab64"/><path d="M182.29 423.87v6.68a1.5 1.5 0 0 1-1.5 1.5h-8.18a1.5 1.5 0 0 1-1.5-1.5v-6.68h-5.18v6.68a1.5 1.5 0 0 1-1.5 1.5h-8.18a1.5 1.5 0 0 1-1.5-1.5v-6.68h-5.18v6.68a1.5 1.5 0 0 1-1.5 1.5h-8.17a1.5 1.5 0 0 1-1.5-1.5v-6.68h-5.18v6.68a1.5 1.5 0 0 1-1.5 1.5h-8.22a1.5 1.5 0 0 1-1.5-1.5v-6.68h-5.18v6.68a1.5 1.5 0 0 1-1.5 1.5h-8.18a1.5 1.5 0 0 1-1.5-1.5v-6.68h-5.14v6.68a1.5 1.5 0 0 1-1.5 1.5h-8.16a1.5 1.5 0 0 1-1.5-1.5v-6.68h-5.18v6.68a1.5 1.5 0 0 1-1.5 1.5H74.5a1.5 1.5 0 0 1-1.5-1.5v-6.68h-5.2v6.68a1.5 1.5 0 0 1-1.5 1.5h-8.17a1.5 1.5 0 0 1-1.5-1.5v-6.68h-5.18v6.68a1.5 1.5 0 0 1-1.5 1.5h-8.18a1.5 1.5 0 0 1-1.5-1.5v-6.68h-5.18v46.6H187.5v-46.6zM64.8 457.12h-5.17v-11.83h5.17zm24.53 0h-5.17v-11.83h5.18zm24.53 0h-5.18v-11.83h5.18zm24.53 0h-5.18v-11.83h5.18zm24.53 0h-5.18v-11.83h5.18z" fill="#faab64"/><path d="M103.43 316.58c3.17-.91 6-1.74 7.85-3.29 1.87 1.56 4.68 2.38 7.85 3.29 6.79 2 14.43 4.17 15.11 14.45H88.31c.69-10.28 8.33-12.5 15.12-14.45z" fill="#faab64"/><path d="M666.89 470.62h-15.83v-4.42h1.77a9.08 9.08 0 0 0 3.92-17 7.12 7.12 0 0 0-13.85 2.33 6.89 6.89 0 0 0 0 .71 7.12 7.12 0 0 0 1.85 14H648v4.42h-16.3v-120.5h5.94a1.5 1.5 0 0 0 1.5-1.5v-8.09a1.5 1.5 0 0 0-1.5-1.5h-13.38v-6.2h13.38a1.5 1.5 0 0 0 1.5-1.5v-11.83a1.5 1.5 0 0 0-1.5-1.5H519.5a1.5 1.5 0 0 0-1.5 1.5v11.87a1.5 1.5 0 0 0 1.5 1.46h13.38V339H519.5a1.5 1.5 0 0 0-1.5 1.5v8.09a1.5 1.5 0 0 0 1.5 1.5h6v120.53h-15.27v-6.35h5.1a6.91 6.91 0 0 0 2.76-13.27 9.9 9.9 0 0 0 .39-2.77 10.07 10.07 0 0 0-20.13-.63v1.15a8.76 8.76 0 0 0 5.6 15.49h3.26v6.34h-18.55V338.09c0-55.81-26.06-70.31-27.17-70.9l-.23-.09h-.09a1.5 1.5 0 0 0-.34 0H398a1.51 1.51 0 0 0-.34 0h-.09l-.23.09c-1.11.59-27.17 15.09-27.17 70.9v132.53H353V224.28a1.5 1.5 0 0 0-1.5-1.5h-44.2v-33.34a1.5 1.5 0 0 0-1.5-1.5h-33.7a1.5 1.5 0 0 0-1.5 1.5v55.05h-47.1A1.5 1.5 0 0 0 222 246v224.62h-14.74v-4.5h1.46a8.25 8.25 0 0 0 5.8-14.15 9.51 9.51 0 1 0-17.73 2.37 6.6 6.6 0 0 0-2.37 5.08 6.68 6.68 0 0 0 6.67 6.67h3.16v4.5H190.5v-48.23a1.5 1.5 0 0 0-1.5-1.5h-8.18a1.5 1.5 0 0 0-1.5 1.5V429h-5.18v-45.81a1.5 1.5 0 0 0-1.5-1.5h-8.18a1.5 1.5 0 0 0-1.5 1.5v6.68h-5.18v-42.68a1.5 1.5 0 0 0-1.5-1.5h-8.18a1.5 1.5 0 0 0-1.5 1.5v6.68h-5.2v-6.68a1.5 1.5 0 0 0-1.5-1.5h-2.59v-13.15c0-13.86-10-16.73-17.35-18.84-3.27-.94-6.37-1.83-7.44-3.42l-.06-.07-.12-.15-.15-.13-.07-.06-.21-.11h-.72a1.51 1.51 0 0 0-.32.06h-.2l-.2.11-.07.06-.15.12-.12.15-.06.07c-1.07 1.59-4.16 2.48-7.43 3.42-7.32 2.1-17.35 5-17.35 18.84v13.11h-2.63a1.5 1.5 0 0 0-1.5 1.5v6.67H76v-6.68a1.5 1.5 0 0 0-1.5-1.5h-8.2a1.5 1.5 0 0 0-1.5 1.5v42.68h-5.17v-6.68a1.5 1.5 0 0 0-1.5-1.5H50a1.5 1.5 0 0 0-1.5 1.5V429h-5.23v-6.68a1.5 1.5 0 0 0-1.5-1.5h-8.18a1.5 1.5 0 0 0-1.5 1.5v48.26H18.72v-2.69h1A7.3 7.3 0 0 0 23 454.3a5.8 5.8 0 0 0-11.24 2v.29a5.8 5.8 0 0 0 1.82 11.28h2.15v2.69H1.5a1.5 1.5 0 0 0 0 3h665.39a1.5 1.5 0 1 0 0-3zm-20.53-7.43h-1.57a4.12 4.12 0 0 1 0-8.25 1.5 1.5 0 0 0 1.4-2 4.12 4.12 0 1 1 7.87-2.38 1.5 1.5 0 0 0 .84 1 6.08 6.08 0 0 1-2.2 11.62h-6.34zM632.67 321h3.47v8.83h-3.47zm-108.17 8.87H521V321h3.47zM504 461.27a5.76 5.76 0 0 1-3.19-10.55 1.5 1.5 0 0 0 .65-1.46 7.08 7.08 0 1 1 14-1.53v.53a7 7 0 0 1-.72 3.09 1.5 1.5 0 0 0 1.13 2.14 3.91 3.91 0 0 1-.57 7.79zm-302.9 1.85a3.66 3.66 0 0 1-1.59-7 1.5 1.5 0 0 0 .54-2.25 6.43 6.43 0 0 1-1.32-3.91 6.5 6.5 0 1 1 12.68 2 1.5 1.5 0 0 0 .52 1.66 5.27 5.27 0 0 1-3.2 9.46zm-97.67-146.54c3.17-.91 6-1.74 7.85-3.29 1.87 1.56 4.68 2.38 7.85 3.29 6.79 2 14.43 4.17 15.11 14.45H88.31c.69-10.28 8.33-12.5 15.12-14.45zM88.25 334h46.07v11.7h-2.59a1.5 1.5 0 0 0-1.5 1.5v6.67h-5.18v-6.68a1.5 1.5 0 0 0-1.5-1.5h-8.18a1.5 1.5 0 0 0-1.5 1.5v6.68h-5.18v-6.68a1.5 1.5 0 0 0-1.5-1.5H99a1.5 1.5 0 0 0-1.5 1.5v6.68h-5.16v-6.68a1.5 1.5 0 0 0-1.5-1.5h-2.59zM67.8 348.69H73v6.68a1.5 1.5 0 0 0 1.5 1.5h8.2a1.5 1.5 0 0 0 1.5-1.5v-6.68h5.18v6.68a1.5 1.5 0 0 0 1.5 1.5H99a1.5 1.5 0 0 0 1.5-1.5v-6.68h5.18v6.68a1.5 1.5 0 0 0 1.5 1.5h8.18a1.5 1.5 0 0 0 1.5-1.5v-6.68h5.18v6.68a1.5 1.5 0 0 0 1.42 1.5h8.18a1.5 1.5 0 0 0 1.5-1.5v-6.68h5.18v6.68a1.5 1.5 0 0 0 1.5 1.5H148a1.5 1.5 0 0 0 1.5-1.5v-6.68h5.18v33H148a1.5 1.5 0 0 0-1.5 1.5v6.68h-5.1v-6.68a1.5 1.5 0 0 0-1.5-1.5h-8.18a1.5 1.5 0 0 0-1.5 1.5v6.68H125v-6.68a1.5 1.5 0 0 0-1.5-1.5h-8.18a1.5 1.5 0 0 0-1.5 1.5v6.68h-5.18v-6.68a1.5 1.5 0 0 0-1.5-1.5H99a1.5 1.5 0 0 0-1.5 1.5v6.68h-5.16v-6.68a1.5 1.5 0 0 0-1.5-1.5h-8.18a1.5 1.5 0 0 0-1.5 1.5v6.68H76v-6.68a1.5 1.5 0 0 0-1.5-1.5h-6.7zm-16.36 36h5.18v6.68a1.5 1.5 0 0 0 1.5 1.5h8.18a1.5 1.5 0 0 0 1.5-1.5v-6.68H73v6.68a1.5 1.5 0 0 0 1.5 1.5h8.2a1.5 1.5 0 0 0 1.5-1.5v-6.68h5.18v6.68a1.5 1.5 0 0 0 1.5 1.5H99a1.5 1.5 0 0 0 1.5-1.5v-6.68h5.18v6.68a1.5 1.5 0 0 0 1.5 1.5h8.18a1.5 1.5 0 0 0 1.5-1.5v-6.68h5.18v6.68a1.5 1.5 0 0 0 1.42 1.5h8.18a1.5 1.5 0 0 0 1.5-1.5v-6.68h5.18v6.68a1.5 1.5 0 0 0 1.5 1.5H148a1.5 1.5 0 0 0 1.5-1.5v-6.68h5.18v6.68a1.5 1.5 0 0 0 1.5 1.5h8.18a1.5 1.5 0 0 0 1.5-1.5v-6.68h5.18v36.18h-6.64a1.5 1.5 0 0 0-1.5 1.5v6.68h-5.18v-6.68a1.5 1.5 0 0 0-1.5-1.5H148a1.5 1.5 0 0 0-1.5 1.5v6.68h-5.1v-6.68a1.5 1.5 0 0 0-1.5-1.5h-8.18a1.5 1.5 0 0 0-1.5 1.5v6.68H125v-6.68a1.5 1.5 0 0 0-1.5-1.5h-8.22a1.5 1.5 0 0 0-1.5 1.5v6.68h-5.18v-6.68a1.5 1.5 0 0 0-1.5-1.5H99a1.5 1.5 0 0 0-1.5 1.5v6.68h-5.16v-6.68a1.5 1.5 0 0 0-1.5-1.5h-8.18a1.5 1.5 0 0 0-1.5 1.5v6.68H76v-6.68a1.5 1.5 0 0 0-1.48-1.5H66.3a1.5 1.5 0 0 0-1.5 1.5v6.68h-5.17v-6.68a1.5 1.5 0 0 0-1.5-1.5h-6.68zm-16.35 45.85v-6.67h5.18v6.68a1.5 1.5 0 0 0 1.5 1.5H50a1.5 1.5 0 0 0 1.5-1.5v-6.68h5.18v6.68a1.5 1.5 0 0 0 1.5 1.5h8.12a1.5 1.5 0 0 0 1.5-1.5v-6.68H73v6.68a1.5 1.5 0 0 0 1.5 1.5h8.18a1.5 1.5 0 0 0 1.5-1.5v-6.68h5.18v6.68a1.5 1.5 0 0 0 1.5 1.5H99a1.5 1.5 0 0 0 1.5-1.5v-6.68h5.18v6.68a1.5 1.5 0 0 0 1.5 1.5h8.18a1.5 1.5 0 0 0 1.5-1.5v-6.68h5.18v6.68a1.5 1.5 0 0 0 1.5 1.5h8.18a1.5 1.5 0 0 0 1.5-1.5v-6.68h5.18v6.68a1.5 1.5 0 0 0 1.5 1.5h8.18a1.5 1.5 0 0 0 1.5-1.5v-6.68h5.18v6.68a1.5 1.5 0 0 0 1.5 1.5h8.18a1.5 1.5 0 0 0 1.5-1.5v-6.68h5.18v6.68a1.5 1.5 0 0 0 1.5 1.5h8.18a1.5 1.5 0 0 0 1.5-1.5v-6.68h5.18v46.6H35.09zm-20.31 34.33h-1.21a2.8 2.8 0 1 1 0-5.6 1.5 1.5 0 0 0 1.4-2 2.76 2.76 0 0 1-.18-1 2.8 2.8 0 0 1 5.53-.64 1.5 1.5 0 0 0 .84 1 4.3 4.3 0 0 1-1.57 8.24c-.93.13-3.28.06-4.81 0zm621.36-122.8v5.09h-11.88v-5.09zm-108.64-12.2V321h102.17v8.87zM578.59 342h16.11v5.09h-32.2v-5.06zm-16.12-3v-6.17h32.23V339h-32.23zm16.12 11.09h16.11v93.35h-32.2v-93.28zm0 96.35h16.11v3.88h-32.2v-3.88zM521 347.13v-5.06h11.88v5.09zM307.28 225.78h5l-5 4.91zm0 9.11l9.3-9.11H325l-17.74 17.39zm0 12.47l22-21.59h8.44l-30.46 29.86zm0 12.47L342 225.77h8v.48l-42.7 41.85zm0 12.47L350 230.45v8.27l-42.7 41.85zm0 12.47L350 242.92v8.27L307.28 293zm0 12.47L350 255.39v8.27l-42.7 41.85zm0 12.47L350 267.87v8.27L307.28 318zm0 12.47L350 280.33v8.27l-42.7 41.85zm0 12.47L350 292.87v8.27L307.28 343zm0 12.47L350 305.27v8.27l-42.7 41.85zm0 12.48L350 317.75V326l-42.7 41.85zm0 12.47L350 330.22v8.27l-42.7 41.85zm0 12.47L350 342.69V351l-42.7 41.91zm0 12.47L350 355.16v8.27l-42.7 41.85zm0 12.48L350 367.64v8.27l-42.7 41.85zm0 12.47L350 380.11v8.27l-42.7 41.85zm0 12.47L350 392.58v8.29l-42.7 41.85zm0 12.47L350 405.05v8.27l-42.7 41.85zm0 12.47L350 417.52v8.35l-42.7 41.85zM225 247.49h4.31l-4.31 4.22zm0 8.42l8.59-8.42h8.44l-17 16.69zm0 12.47l21.32-20.9h8.44L225 276.65zm0 12.47l34-33.37h8.47L225 289.12zm0 12.47l45.55-44.65v8.27L225 301.59zm0 12.47l45.55-44.65v8.27L225 314.06zm0 12.47l45.55-44.65v8.26L225 326.52zm0 12.47l45.55-44.65v8.27L225 339zm0 12.47l45.55-44.65v8.32L225 351.52zm0 12.47L270.58 311v8.27L225 364zm0 12.47l45.55-44.65v8.27L225 376.41zm0 12.47L270.58 336v8.27L225 388.88zm0 12.47l45.55-44.65v8.27L225 401.35zm0 12.47l45.55-44.65v8.27L225 413.87zm0 12.45l45.55-44.65v8.27L225 426.29zm0 12.47l45.55-44.62v8.27L225 438.79zm0 12.53l45.55-44.65v8.27L225 451.23zm0 12.47l45.55-44.56v8.27L225 463.77zm0 15.12V468l45.55-44.65v8.28l-39.81 39zm10 0l35.53-34.82V444l-27.03 26.62zm12.73 0l22.8-22.35v8.27l-14.33 14.04zm12.73 0l10.07-9.87V469l-1.63 1.6zm13.07 0v-4.38h15.35a1.5 1.5 0 0 0 0-3h-15.3v-5.61h15.35a1.5 1.5 0 0 0 0-3h-15.35V449h15.35a1.5 1.5 0 0 0 0-3h-15.35v-5.57h15.35a1.5 1.5 0 1 0 0-3h-15.35v-5.59h15.35a1.5 1.5 0 0 0 0-3h-15.35v-5.54h15.35a1.5 1.5 0 0 0 0-3h-15.35v-5.57h15.35a1.5 1.5 0 0 0 0-3h-15.35v-5.57h15.35a1.5 1.5 0 0 0 0-3h-15.35v-5.57h15.35a1.5 1.5 0 0 0 0-3h-15.35V389h15.35a1.5 1.5 0 0 0 0-3h-15.35v-5.57h15.35a1.5 1.5 0 0 0 0-3h-15.35v-5.58h15.35a1.5 1.5 0 0 0 0-3h-15.35v-5.55h15.35a1.5 1.5 0 0 0 0-3h-15.35v-5.57h15.35a1.5 1.5 0 0 0 0-3h-15.35v-5.57h15.35a1.5 1.5 0 0 0 0-3h-15.35v-5.57h15.35a1.5 1.5 0 0 0 0-3h-15.35v-5.52h15.35a1.5 1.5 0 0 0 0-3h-15.35v-5.57h15.35a1.5 1.5 0 0 0 0-3h-15.35v-5.57h15.35a1.5 1.5 0 1 0 0-3h-15.35v-5.56h15.35a1.5 1.5 0 0 0 0-3h-15.35v-5.57h15.35a1.5 1.5 0 0 0 0-3h-15.35v-5.57h15.35a1.5 1.5 0 0 0 0-3h-15.35v-5.57h15.35a1.5 1.5 0 0 0 0-3h-15.35v-5.57h15.35a1.5 1.5 0 0 0 0-3h-15.35v-5.57h15.35a1.5 1.5 0 0 0 0-3h-15.35V252h15.35a1.5 1.5 0 0 0 0-3h-15.35v-5.57h15.35a1.5 1.5 0 0 0 0-3h-15.35v-5.51h15.35a1.5 1.5 0 0 0 0-3h-15.35v-5.62h15.35a1.5 1.5 0 0 0 0-3h-15.35v-5.57h15.35a1.5 1.5 0 0 0 0-3h-15.35v-5.57h15.35a1.5 1.5 0 0 0 0-3h-15.35v-5.57h15.35a1.5 1.5 0 0 0 0-3h-15.35V191h23.85v279.62zm26.85 0V190.94h3.85v279.64zm8.17 0L350 430v8.27l-33 32.28zm12.73 0L350 442.46v8.27l-20.22 19.82zm12.73 0L350 454.93v8.27l-7.47 7.42zm12.73 0l3.21-3.14v3.14zm26.3 0v-132.5c0-44.32 17.16-61.83 23.37-66.71v199.24zm26.37 0V270h18.32v200.6zm29.92 0h-8.6V270H438v200.6zm11.6 0V270h18.32v200.6zm21.32 0V271.36c6.21 4.84 23.37 22.25 23.37 66.73v132.53zm66.16 0V350.16h4.44v120.46zm7.44 0V332.87h1.49v137.75zm4.49 0V332.87h3.54v137.75zm6.54 0V332.87h1.49v137.75zm4.49 0V332.87h3.54v137.75zm6.54 0V332.87h1.56v137.75zm20.61 0h-16v-17.2h32.2v17.22zm19.12 0V332.87h1.49v137.75zm4.49 0V332.87h3.54v137.75zm6.54 0V332.87h1.49v137.75zm4.49 0V332.87h3.54v137.75zm6.54 0V332.87h1.49v137.75zm4.49 0V350.16h4.44v120.46z" fill="#fff"/><circle cx="340.93" cy="189.44" r="1.97" fill="#fff"/><circle cx="298.93" cy="101.87" r="1.62" fill="#fff"/><circle cx="651.25" cy="391.39" r="1.62" fill="#fff"/><circle cx="58.13" cy="311.66" r="1.62" fill="#fff"/><circle cx="526.95" cy="141.08" r="1.79" fill="#fff"/><circle cx="534.39" cy="274.85" r="2.38" fill="#fff"/><path d="M50.81 221.34a1.5 1.5 0 0 0 1.91 0l8.78-7.21 8.73 7.21a1.5 1.5 0 0 0 1.91 0l8.74-7.21 8.74 7.21A1.5 1.5 0 1 0 91.5 219l-9.69-8a1.5 1.5 0 0 0-1.91 0l-8.74 7.21-8.73-7.21a1.5 1.5 0 0 0-1.91 0l-8.73 7.21-8.73-7.21a1.5 1.5 0 0 0-2 2.23l.1.08z" fill="#fff"/><path d="M428.19 133a1.5 1.5 0 0 0 1.91 0l8.73-7.21 8.73 7.21a1.5 1.5 0 0 0 1.91 0l8.74-7.21L467 133a1.5 1.5 0 0 0 2-2.23l-.1-.08-9.69-8a1.5 1.5 0 0 0-1.91 0l-8.76 7.2-8.73-7.21a1.5 1.5 0 0 0-1.91 0l-8.73 7.21-8.73-7.21a1.5 1.5 0 0 0-2 2.23l.1.08z" fill="#fff"/><path d="M189.1 135.87h3.26a8.26 8.26 0 0 0 6.52 13.36h21a8.27 8.27 0 0 0 1.5-16.41 11 11 0 0 0-21.44-.07 8.13 8.13 0 0 0-1.1-.07 8.27 8.27 0 0 0-1.76.19h-8a1.5 1.5 0 0 0 0 3zm9.78-.19a5.25 5.25 0 0 1 1.85.34 1.5 1.5 0 0 0 2-1.34 7.95 7.95 0 0 1 15.86-.36 1.5 1.5 0 0 0 1.45 1.37 5.27 5.27 0 0 1-.15 10.54h-21a5.28 5.28 0 0 1 0-10.55z" fill="#fff"/><path d="M176.7 142.11h11a1.5 1.5 0 0 0 0-3h-11a1.5 1.5 0 0 0 0 3z" fill="#fff"/><path d="M187.74 145.64h-5.52a1.5 1.5 0 0 0 0 3h5.52a1.5 1.5 0 0 0 0-3z" fill="#fff"/><path d="M196.27 130.11h2.07a1.5 1.5 0 1 0 0-3h-2.07a1.5 1.5 0 1 0 0 3z" fill="#fff"/><path d="M561.69 211.74h6.54a10.73 10.73 0 0 0-1.45 12h-5.09a1.5 1.5 0 0 0 0 3h5.52a1.5 1.5 0 0 0 1.23-.64 11 11 0 0 0 8.09 3.56h20.72a9.8 9.8 0 1 0-3-19.15 9.91 9.91 0 0 0-18.46-2.58 11 11 0 0 0-3.38.77h-10.72a1.5 1.5 0 0 0 0 3zm14.88-.79h.18a1.51 1.51 0 0 0 1.44-.95 6.89 6.89 0 0 1 13.31 2.55v.15a1.5 1.5 0 0 0 2.26 1.35 6.83 6.83 0 1 1 3.52 12.64H576.5a7.87 7.87 0 0 1 0-15.75z" fill="#fff"/><path d="M551.5 217.69h11a1.5 1.5 0 0 0 0-3h-11a1.5 1.5 0 0 0 0 3z" fill="#fff"/><path d="M554.93 223.78a1.5 1.5 0 0 0 0 3h1.16a1.5 1.5 0 0 0 0-3z" fill="#fff"/><path d="M572.15 205.68h1.16a1.5 1.5 0 0 0 0-3h-1.16a1.5 1.5 0 0 0 0 3z" fill="#fff"/><path d="M196.27 203.47a1.5 1.5 0 0 0 1.5-1.5v-1.42h1.42a1.5 1.5 0 0 0 0-3h-1.42v-1.42a1.5 1.5 0 0 0-3 0v1.42h-1.42a1.5 1.5 0 0 0 0 3h1.42V202a1.5 1.5 0 0 0 1.5 1.47z" fill="#fff"/><path d="M467.2 208.74v-1.42a1.5 1.5 0 0 0-3 0v1.42h-1.42a1.5 1.5 0 0 0 0 3h1.42v1.42a1.5 1.5 0 0 0 3 0v-1.42h1.42a1.5 1.5 0 1 0 0-3z" fill="#fff"/><path d="M209.4 408.22a1.5 1.5 0 0 0 1.5-1.5v-1.42h1.42a1.5 1.5 0 1 0 0-3h-1.42v-1.43a1.5 1.5 0 0 0-3 0v1.42h-1.4a1.5 1.5 0 0 0 0 3h1.42v1.42a1.5 1.5 0 0 0 1.48 1.51z" fill="#fff"/><path d="M170.81 303.37h.3v.3a1.5 1.5 0 0 0 3 0v-.3h.3a1.5 1.5 0 0 0 0-3h-.3v-.3a1.5 1.5 0 0 0-3 0v.3h-.3a1.5 1.5 0 1 0 0 3z" fill="#fff"/><path d="M23.37 400.48h.3v.3a1.5 1.5 0 0 0 3 0v-.3H27a1.5 1.5 0 1 0 0-3h-.3v-.3a1.5 1.5 0 0 0-3 0v.3h-.3a1.5 1.5 0 1 0 0 3z" fill="#fff"/><path d="M506.93 371.63h.3v.3a1.5 1.5 0 0 0 3 0v-.3h.3a1.5 1.5 0 0 0 0-3h-.3v-.3a1.5 1.5 0 0 0-3 0v.3h-.3a1.5 1.5 0 0 0 0 3z" fill="#fff"/><path d="M629.37 243.25h.3v.3a1.5 1.5 0 0 0 3 0v-.3h.3a1.5 1.5 0 0 0 0-3h-.3V240a1.5 1.5 0 0 0-3 0v.3h-.3a1.5 1.5 0 0 0 0 3z" fill="#fff"/><path d="M415.06 287.78h-13.18a1.5 1.5 0 0 0 0 3h13.18a1.5 1.5 0 0 0 0-3z" fill="#fff"/><path d="M415.06 295.07h-13.18a1.5 1.5 0 0 0 0 3h13.18a1.5 1.5 0 0 0 0-3z" fill="#fff"/><path d="M415.06 302.36h-13.18a1.5 1.5 0 0 0 0 3h13.18a1.5 1.5 0 0 0 0-3z" fill="#fff"/><path d="M415.06 309.66h-13.18a1.5 1.5 0 0 0 0 3h13.18a1.5 1.5 0 0 0 0-3z" fill="#fff"/><path d="M415.06 317h-13.18a1.5 1.5 0 0 0 0 3h13.18a1.5 1.5 0 0 0 0-3z" fill="#fff"/><path d="M415.06 324.25h-13.18a1.5 1.5 0 0 0 0 3h13.18a1.5 1.5 0 0 0 0-3z" fill="#fff"/><path d="M415.06 331.54h-13.18a1.5 1.5 0 0 0 0 3h13.18a1.5 1.5 0 0 0 0-3z" fill="#fff"/><path d="M415.06 338.87h-13.18a1.5 1.5 0 0 0 0 3h13.18a1.5 1.5 0 0 0 0-3z" fill="#fff"/><path d="M415.06 346.13h-13.18a1.5 1.5 0 0 0 0 3h13.18a1.5 1.5 0 0 0 0-3z" fill="#fff"/><path d="M415.06 353.42h-13.18a1.5 1.5 0 0 0 0 3h13.18a1.5 1.5 0 0 0 0-3z" fill="#fff"/><path d="M415.06 360.71h-13.18a1.5 1.5 0 0 0 0 3h13.18a1.5 1.5 0 0 0 0-3z" fill="#fff"/><path d="M415.06 368h-13.18a1.5 1.5 0 0 0 0 3h13.18a1.5 1.5 0 0 0 0-3z" fill="#fff"/><path d="M415.06 375.3h-13.18a1.5 1.5 0 0 0 0 3h13.18a1.5 1.5 0 0 0 0-3z" fill="#fff"/><path d="M415.06 382.59h-13.18a1.5 1.5 0 0 0 0 3h13.18a1.5 1.5 0 0 0 0-3z" fill="#fff"/><path d="M415.06 389.87h-13.18a1.5 1.5 0 0 0 0 3h13.18a1.5 1.5 0 0 0 0-3z" fill="#fff"/><path d="M415.06 397.18h-13.18a1.5 1.5 0 0 0 0 3h13.18a1.5 1.5 0 0 0 0-3z" fill="#fff"/><path d="M415.06 404.47h-13.18a1.5 1.5 0 0 0 0 3h13.18a1.5 1.5 0 0 0 0-3z" fill="#fff"/><path d="M415.06 411.77h-13.18a1.5 1.5 0 0 0 0 3h13.18a1.5 1.5 0 0 0 0-3z" fill="#fff"/><path d="M415.06 419.06h-13.18a1.5 1.5 0 0 0 0 3h13.18a1.5 1.5 0 0 0 0-3z" fill="#fff"/><path d="M415.06 426.36h-13.18a1.5 1.5 0 0 0 0 3h13.18a1.5 1.5 0 0 0 0-3z" fill="#fff"/><path d="M415.06 433.65h-13.18a1.5 1.5 0 0 0 0 3h13.18a1.5 1.5 0 0 0 0-3z" fill="#fff"/><path d="M415.06 440.94h-13.18a1.5 1.5 0 0 0 0 3h13.18a1.5 1.5 0 0 0 0-3z" fill="#fff"/><path d="M415.06 448.24h-13.18a1.5 1.5 0 0 0 0 3h13.18a1.5 1.5 0 0 0 0-3z" fill="#fff"/><path d="M415.06 455.53h-13.18a1.5 1.5 0 0 0 0 3h13.18a1.5 1.5 0 0 0 0-3z" fill="#fff"/><path d="M415.06 462.87h-13.18a1.5 1.5 0 0 0 0 3h13.18a1.5 1.5 0 0 0 0-3z" fill="#fff"/><path d="M393 287.78h-5.75a1.5 1.5 0 0 0 0 3H393a1.5 1.5 0 0 0 0-3z" fill="#fff"/><path d="M393 295.07h-9.12a1.5 1.5 0 0 0 0 3H393a1.5 1.5 0 0 0 0-3z" fill="#fff"/><path d="M393 302.36h-11.6a1.5 1.5 0 0 0 0 3H393a1.5 1.5 0 0 0 0-3z" fill="#fff"/><path d="M393 309.66h-14.12a1.5 1.5 0 0 0 0 3h14.17a1.5 1.5 0 0 0 0-3z" fill="#fff"/><path d="M393 317h-15.81a1.5 1.5 0 0 0 0 3H393a1.5 1.5 0 0 0 0-3z" fill="#fff"/><path d="M393 324.25h-16.65a1.5 1.5 0 0 0 0 3H393a1.5 1.5 0 0 0 0-3z" fill="#fff"/><path d="M393 331.54h-16.65a1.5 1.5 0 0 0 0 3H393a1.5 1.5 0 0 0 0-3z" fill="#fff"/><path d="M393 338.87h-16.65a1.5 1.5 0 0 0 0 3H393a1.5 1.5 0 0 0 0-3z" fill="#fff"/><path d="M393 346.13h-16.65a1.5 1.5 0 0 0 0 3H393a1.5 1.5 0 0 0 0-3z" fill="#fff"/><path d="M393 353.42h-16.65a1.5 1.5 0 0 0 0 3H393a1.5 1.5 0 0 0 0-3z" fill="#fff"/><path d="M393 360.71h-16.65a1.5 1.5 0 0 0 0 3H393a1.5 1.5 0 0 0 0-3z" fill="#fff"/><path d="M393 368h-16.65a1.5 1.5 0 0 0 0 3H393a1.5 1.5 0 0 0 0-3z" fill="#fff"/><path d="M393 375.3h-16.65a1.5 1.5 0 0 0 0 3H393a1.5 1.5 0 0 0 0-3z" fill="#fff"/><path d="M393 382.59h-16.65a1.5 1.5 0 0 0 0 3H393a1.5 1.5 0 0 0 0-3z" fill="#fff"/><path d="M393 389.87h-16.65a1.5 1.5 0 0 0 0 3H393a1.5 1.5 0 0 0 0-3z" fill="#fff"/><path d="M393 397.18h-16.65a1.5 1.5 0 0 0 0 3H393a1.5 1.5 0 0 0 0-3z" fill="#fff"/><path d="M393 404.47h-16.65a1.5 1.5 0 0 0 0 3H393a1.5 1.5 0 0 0 0-3z" fill="#fff"/><path d="M393 411.77h-16.65a1.5 1.5 0 0 0 0 3H393a1.5 1.5 0 0 0 0-3z" fill="#fff"/><path d="M393 419.06h-16.65a1.5 1.5 0 0 0 0 3H393a1.5 1.5 0 0 0 0-3z" fill="#fff"/><path d="M393 426.36h-16.65a1.5 1.5 0 0 0 0 3H393a1.5 1.5 0 0 0 0-3z" fill="#fff"/><path d="M393 433.65h-16.65a1.5 1.5 0 0 0 0 3H393a1.5 1.5 0 0 0 0-3z" fill="#fff"/><path d="M393 440.94h-16.65a1.5 1.5 0 0 0 0 3H393a1.5 1.5 0 0 0 0-3z" fill="#fff"/><path d="M393 448.24h-16.65a1.5 1.5 0 0 0 0 3H393a1.5 1.5 0 0 0 0-3z" fill="#fff"/><path d="M393 455.53h-16.65a1.5 1.5 0 0 0 0 3H393a1.5 1.5 0 0 0 0-3z" fill="#fff"/><path d="M393 462.87h-16.65a1.5 1.5 0 0 0 0 3H393a1.5 1.5 0 0 0 0-3z" fill="#fff"/><path d="M435.12 287.78h-11.5a1.5 1.5 0 0 0 0 3h11.5a1.5 1.5 0 0 0 0-3z" fill="#fff"/><path d="M456.86 287.78h-13.18a1.5 1.5 0 0 0 0 3h13.18a1.5 1.5 0 0 0 0-3z" fill="#fff"/><path d="M456.86 295.07h-13.18a1.5 1.5 0 1 0 0 3h13.18a1.5 1.5 0 0 0 0-3z" fill="#fff"/><path d="M456.86 302.36h-13.18a1.5 1.5 0 0 0 0 3h13.18a1.5 1.5 0 0 0 0-3z" fill="#fff"/><path d="M456.86 309.66h-13.18a1.5 1.5 0 1 0 0 3h13.18a1.5 1.5 0 0 0 0-3z" fill="#fff"/><path d="M456.86 317h-13.18a1.5 1.5 0 1 0 0 3h13.18a1.5 1.5 0 0 0 0-3z" fill="#fff"/><path d="M456.86 324.25h-13.18a1.5 1.5 0 0 0 0 3h13.18a1.5 1.5 0 0 0 0-3z" fill="#fff"/><path d="M456.86 331.54h-13.18a1.5 1.5 0 0 0 0 3h13.18a1.5 1.5 0 0 0 0-3z" fill="#fff"/><path d="M456.86 338.87h-13.18a1.5 1.5 0 1 0 0 3h13.18a1.5 1.5 0 0 0 0-3z" fill="#fff"/><path d="M456.86 346.13h-13.18a1.5 1.5 0 0 0 0 3h13.18a1.5 1.5 0 0 0 0-3z" fill="#fff"/><path d="M456.86 353.42h-13.18a1.5 1.5 0 0 0 0 3h13.18a1.5 1.5 0 0 0 0-3z" fill="#fff"/><path d="M456.86 360.71h-13.18a1.5 1.5 0 0 0 0 3h13.18a1.5 1.5 0 0 0 0-3z" fill="#fff"/><path d="M456.86 368h-13.18a1.5 1.5 0 0 0 0 3h13.18a1.5 1.5 0 0 0 0-3z" fill="#fff"/><path d="M456.86 375.3h-13.18a1.5 1.5 0 1 0 0 3h13.18a1.5 1.5 0 0 0 0-3z" fill="#fff"/><path d="M456.86 382.59h-13.18a1.5 1.5 0 0 0 0 3h13.18a1.5 1.5 0 0 0 0-3z" fill="#fff"/><path d="M456.86 389.87h-13.18a1.5 1.5 0 1 0 0 3h13.18a1.5 1.5 0 0 0 0-3z" fill="#fff"/><path d="M456.86 397.18h-13.18a1.5 1.5 0 0 0 0 3h13.18a1.5 1.5 0 0 0 0-3z" fill="#fff"/><path d="M456.86 404.47h-13.18a1.5 1.5 0 1 0 0 3h13.18a1.5 1.5 0 0 0 0-3z" fill="#fff"/><path d="M456.86 411.77h-13.18a1.5 1.5 0 0 0 0 3h13.18a1.5 1.5 0 0 0 0-3z" fill="#fff"/><path d="M456.86 419.06h-13.18a1.5 1.5 0 1 0 0 3h13.18a1.5 1.5 0 0 0 0-3z" fill="#fff"/><path d="M456.86 426.36h-13.18a1.5 1.5 0 0 0 0 3h13.18a1.5 1.5 0 0 0 0-3z" fill="#fff"/><path d="M456.86 433.65h-13.18a1.5 1.5 0 0 0 0 3h13.18a1.5 1.5 0 0 0 0-3z" fill="#fff"/><path d="M456.86 440.94h-13.18a1.5 1.5 0 0 0 0 3h13.18a1.5 1.5 0 0 0 0-3z" fill="#fff"/><path d="M456.86 448.24h-13.18a1.5 1.5 0 0 0 0 3h13.18a1.5 1.5 0 0 0 0-3z" fill="#fff"/><path d="M456.86 455.53h-13.18a1.5 1.5 0 0 0 0 3h13.18a1.5 1.5 0 0 0 0-3z" fill="#fff"/><path d="M456.86 462.87h-13.18a1.5 1.5 0 1 0 0 3h13.18a1.5 1.5 0 0 0 0-3z" fill="#fff"/><path d="M465.7 290.78h5.8a1.5 1.5 0 0 0 0-3h-5.8a1.5 1.5 0 0 0 0 3z" fill="#fff"/><path d="M465.7 298.07h9.12a1.5 1.5 0 1 0 0-3h-9.12a1.5 1.5 0 1 0 0 3z" fill="#fff"/><path d="M465.7 305.36h11.64a1.5 1.5 0 0 0 0-3H465.7a1.5 1.5 0 0 0 0 3z" fill="#fff"/><path d="M465.7 312.66h14.17a1.5 1.5 0 0 0 0-3H465.7a1.5 1.5 0 1 0 0 3z" fill="#fff"/><path d="M465.7 320h15.85a1.5 1.5 0 0 0 0-3H465.7a1.5 1.5 0 1 0 0 3z" fill="#fff"/><path d="M482.39 324.25H465.7a1.5 1.5 0 0 0 0 3h16.69a1.5 1.5 0 0 0 0-3z" fill="#fff"/><path d="M482.39 331.54H465.7a1.5 1.5 0 0 0 0 3h16.69a1.5 1.5 0 0 0 0-3z" fill="#fff"/><path d="M482.39 338.87H465.7a1.5 1.5 0 1 0 0 3h16.69a1.5 1.5 0 0 0 0-3z" fill="#fff"/><path d="M482.39 346.13H465.7a1.5 1.5 0 0 0 0 3h16.69a1.5 1.5 0 0 0 0-3z" fill="#fff"/><path d="M482.39 353.42H465.7a1.5 1.5 0 0 0 0 3h16.69a1.5 1.5 0 0 0 0-3z" fill="#fff"/><path d="M482.39 360.71H465.7a1.5 1.5 0 0 0 0 3h16.69a1.5 1.5 0 0 0 0-3z" fill="#fff"/><path d="M482.39 368H465.7a1.5 1.5 0 0 0 0 3h16.69a1.5 1.5 0 0 0 0-3z" fill="#fff"/><path d="M482.39 375.3H465.7a1.5 1.5 0 1 0 0 3h16.69a1.5 1.5 0 0 0 0-3z" fill="#fff"/><path d="M482.39 382.59H465.7a1.5 1.5 0 0 0 0 3h16.69a1.5 1.5 0 0 0 0-3z" fill="#fff"/><path d="M482.39 389.87H465.7a1.5 1.5 0 1 0 0 3h16.69a1.5 1.5 0 0 0 0-3z" fill="#fff"/><path d="M482.39 397.18H465.7a1.5 1.5 0 0 0 0 3h16.69a1.5 1.5 0 0 0 0-3z" fill="#fff"/><path d="M482.39 404.47H465.7a1.5 1.5 0 1 0 0 3h16.69a1.5 1.5 0 0 0 0-3z" fill="#fff"/><path d="M482.39 411.77H465.7a1.5 1.5 0 0 0 0 3h16.69a1.5 1.5 0 0 0 0-3z" fill="#fff"/><path d="M482.39 419.06H465.7a1.5 1.5 0 1 0 0 3h16.69a1.5 1.5 0 0 0 0-3z" fill="#fff"/><path d="M482.39 426.36H465.7a1.5 1.5 0 0 0 0 3h16.69a1.5 1.5 0 0 0 0-3z" fill="#fff"/><path d="M482.39 433.65H465.7a1.5 1.5 0 0 0 0 3h16.69a1.5 1.5 0 0 0 0-3z" fill="#fff"/><path d="M482.39 440.94H465.7a1.5 1.5 0 0 0 0 3h16.69a1.5 1.5 0 0 0 0-3z" fill="#fff"/><path d="M482.39 448.24H465.7a1.5 1.5 0 0 0 0 3h16.69a1.5 1.5 0 0 0 0-3z" fill="#fff"/><path d="M482.39 455.53H465.7a1.5 1.5 0 0 0 0 3h16.69a1.5 1.5 0 0 0 0-3z" fill="#fff"/><path d="M482.39 462.87H465.7a1.5 1.5 0 1 0 0 3h16.69a1.5 1.5 0 0 0 0-3z" fill="#fff"/><path d="M435.12 295.07h-11.5a1.5 1.5 0 0 0 0 3h11.5a1.5 1.5 0 0 0 0-3z" fill="#fff"/><path d="M435.12 302.36h-11.5a1.5 1.5 0 0 0 0 3h11.5a1.5 1.5 0 0 0 0-3z" fill="#fff"/><path d="M435.12 309.66h-11.5a1.5 1.5 0 0 0 0 3h11.5a1.5 1.5 0 0 0 0-3z" fill="#fff"/><path d="M435.12 317h-11.5a1.5 1.5 0 0 0 0 3h11.5a1.5 1.5 0 0 0 0-3z" fill="#fff"/><path d="M435.12 324.25h-11.5a1.5 1.5 0 0 0 0 3h11.5a1.5 1.5 0 0 0 0-3z" fill="#fff"/><path d="M435.12 331.54h-11.5a1.5 1.5 0 0 0 0 3h11.5a1.5 1.5 0 0 0 0-3z" fill="#fff"/><path d="M435.12 338.87h-11.5a1.5 1.5 0 0 0 0 3h11.5a1.5 1.5 0 0 0 0-3z" fill="#fff"/><path d="M435.12 346.13h-11.5a1.5 1.5 0 0 0 0 3h11.5a1.5 1.5 0 0 0 0-3z" fill="#fff"/><path d="M435.12 353.42h-11.5a1.5 1.5 0 0 0 0 3h11.5a1.5 1.5 0 0 0 0-3z" fill="#fff"/><path d="M435.12 360.71h-11.5a1.5 1.5 0 0 0 0 3h11.5a1.5 1.5 0 0 0 0-3z" fill="#fff"/><path d="M435.12 368h-11.5a1.5 1.5 0 0 0 0 3h11.5a1.5 1.5 0 0 0 0-3z" fill="#fff"/><path d="M435.12 375.3h-11.5a1.5 1.5 0 0 0 0 3h11.5a1.5 1.5 0 0 0 0-3z" fill="#fff"/><path d="M435.12 382.59h-11.5a1.5 1.5 0 0 0 0 3h11.5a1.5 1.5 0 0 0 0-3z" fill="#fff"/><path d="M435.12 389.87h-11.5a1.5 1.5 0 0 0 0 3h11.5a1.5 1.5 0 0 0 0-3z" fill="#fff"/><path d="M435.12 397.18h-11.5a1.5 1.5 0 0 0 0 3h11.5a1.5 1.5 0 0 0 0-3z" fill="#fff"/><path d="M435.12 404.47h-11.5a1.5 1.5 0 0 0 0 3h11.5a1.5 1.5 0 0 0 0-3z" fill="#fff"/><path d="M435.12 411.77h-11.5a1.5 1.5 0 0 0 0 3h11.5a1.5 1.5 0 0 0 0-3z" fill="#fff"/><path d="M435.12 419.06h-11.5a1.5 1.5 0 0 0 0 3h11.5a1.5 1.5 0 0 0 0-3z" fill="#fff"/><path d="M435.12 426.36h-11.5a1.5 1.5 0 0 0 0 3h11.5a1.5 1.5 0 0 0 0-3z" fill="#fff"/><path d="M435.12 433.65h-11.5a1.5 1.5 0 0 0 0 3h11.5a1.5 1.5 0 0 0 0-3z" fill="#fff"/><path d="M435.12 440.94h-11.5a1.5 1.5 0 0 0 0 3h11.5a1.5 1.5 0 0 0 0-3z" fill="#fff"/><path d="M435.12 448.24h-11.5a1.5 1.5 0 0 0 0 3h11.5a1.5 1.5 0 0 0 0-3z" fill="#fff"/><path d="M435.12 455.53h-11.5a1.5 1.5 0 0 0 0 3h11.5a1.5 1.5 0 0 0 0-3z" fill="#fff"/><path d="M435.12 462.87h-11.5a1.5 1.5 0 0 0 0 3h11.5a1.5 1.5 0 0 0 0-3z" fill="#fff"/><path d="M578.58 434.38a6.76 6.76 0 1 0-6.76-6.76 6.76 6.76 0 0 0 6.76 6.76zm0-10.52a3.76 3.76 0 1 1-3.76 3.76 3.76 3.76 0 0 1 3.76-3.76z" fill="#fff"/><path d="M107.19 378.45h8.18a1.5 1.5 0 0 0 1.5-1.5v-14.83a1.5 1.5 0 0 0-1.5-1.5h-8.18a1.5 1.5 0 0 0-1.5 1.5V377a1.5 1.5 0 0 0 1.5 1.45zm1.5-14.83h5.18v11.83h-5.18z" fill="#fff"/><path d="M107.19 416.7h8.18a1.5 1.5 0 0 0 1.5-1.5v-14.83a1.5 1.5 0 0 0-1.5-1.5h-8.18a1.5 1.5 0 0 0-1.5 1.5v14.83a1.5 1.5 0 0 0 1.5 1.5zm1.5-14.83h5.18v11.83h-5.18z" fill="#fff"/><path d="M82.66 416.7h8.18a1.5 1.5 0 0 0 1.5-1.5v-14.83a1.5 1.5 0 0 0-1.5-1.5h-8.18a1.5 1.5 0 0 0-1.5 1.5v14.83a1.5 1.5 0 0 0 1.5 1.5zm1.5-14.83h5.18v11.83h-5.18z" fill="#fff"/><path d="M66.3 416.7a1.5 1.5 0 0 0 1.5-1.5v-14.83a1.5 1.5 0 0 0-1.5-1.5h-8.17a1.5 1.5 0 0 0-1.5 1.5v14.83a1.5 1.5 0 0 0 1.5 1.5zm-6.67-14.83h5.17v11.83h-5.17z" fill="#fff"/><path d="M156.26 416.7h8.18a1.5 1.5 0 0 0 1.5-1.5v-14.83a1.5 1.5 0 0 0-1.5-1.5h-8.18a1.5 1.5 0 0 0-1.5 1.5v14.83a1.5 1.5 0 0 0 1.5 1.5zm1.5-14.83h5.18v11.83h-5.18z" fill="#fff"/><path d="M131.73 416.7h8.18a1.5 1.5 0 0 0 1.5-1.5v-14.83a1.5 1.5 0 0 0-1.5-1.5h-8.18a1.5 1.5 0 0 0-1.5 1.5v14.83a1.5 1.5 0 0 0 1.5 1.5zm1.5-14.83h5.18v11.83h-5.18z" fill="#fff"/><path d="M116.87 458.62v-14.83a1.5 1.5 0 0 0-1.5-1.5h-8.18a1.5 1.5 0 0 0-1.5 1.5v14.83a1.5 1.5 0 0 0 1.5 1.5h8.18a1.5 1.5 0 0 0 1.5-1.5zm-3-1.5h-5.18v-11.83h5.18z" fill="#fff"/><path d="M90.84 442.29h-8.18a1.5 1.5 0 0 0-1.5 1.5v14.83a1.5 1.5 0 0 0 1.5 1.5h8.18a1.5 1.5 0 0 0 1.5-1.5v-14.83a1.5 1.5 0 0 0-1.5-1.5zm-1.5 14.83h-5.18v-11.83h5.18z" fill="#fff"/><path d="M66.3 442.29h-8.17a1.5 1.5 0 0 0-1.5 1.5v14.83a1.5 1.5 0 0 0 1.5 1.5h8.17a1.5 1.5 0 0 0 1.5-1.5v-14.83a1.5 1.5 0 0 0-1.5-1.5zm-1.5 14.83h-5.17v-11.83h5.17z" fill="#fff"/><path d="M156.26 460.12h8.18a1.5 1.5 0 0 0 1.5-1.5v-14.83a1.5 1.5 0 0 0-1.5-1.5h-8.18a1.5 1.5 0 0 0-1.5 1.5v14.83a1.5 1.5 0 0 0 1.5 1.5zm1.5-14.83h5.18v11.83h-5.18z" fill="#fff"/><path d="M131.73 460.12h8.18a1.5 1.5 0 0 0 1.5-1.5v-14.83a1.5 1.5 0 0 0-1.5-1.5h-8.18a1.5 1.5 0 0 0-1.5 1.5v14.83a1.5 1.5 0 0 0 1.5 1.5zm1.5-14.83h5.18v11.83h-5.18z" fill="#fff"/><path d="M131.73 378.45h8.18a1.5 1.5 0 0 0 1.5-1.5v-14.83a1.5 1.5 0 0 0-1.5-1.5h-8.18a1.5 1.5 0 0 0-1.5 1.5V377a1.5 1.5 0 0 0 1.5 1.45zm1.5-14.83h5.18v11.83h-5.18z" fill="#fff"/><path d="M82.66 378.45h8.18a1.5 1.5 0 0 0 1.5-1.5v-14.83a1.5 1.5 0 0 0-1.5-1.5h-8.18a1.5 1.5 0 0 0-1.5 1.5V377a1.5 1.5 0 0 0 1.5 1.45zm1.5-14.83h5.18v11.83h-5.18z" fill="#fff"/><path d="M93.76 290.87h16v14.41a1.5 1.5 0 0 0 3 0v-26.21a1.5 1.5 0 0 0-1.5-1.5h-17.5a1.5 1.5 0 0 0-1.5 1.5v10.3a1.5 1.5 0 0 0 1.5 1.5zm1.5-10.3h14.52v7.3H95.26z" fill="#fff"/><path d="M212.87 39.43h-1.37a1.5 1.5 0 0 1-1.5-1.5V2.16a1.5 1.5 0 0 1 1.5-1.5h17.24a12.18 12.18 0 0 1 4.81 1 12.84 12.84 0 0 1 3.95 2.55 12 12 0 0 1 0 17.16 12.84 12.84 0 0 1-3.92 2.63 12.21 12.21 0 0 1-4.81 1h-14.4v13a1.5 1.5 0 0 1-1.5 1.43zm1.5-18.76h14.13a8 8 0 0 0 3.13-.62 8.49 8.49 0 0 0 2.61-1.71 8 8 0 0 0 1.75-2.5 7.4 7.4 0 0 0 .63-3 7.52 7.52 0 0 0-.61-3 7.88 7.88 0 0 0-1.71-2.5 8.54 8.54 0 0 0-2.59-1.73A7.75 7.75 0 0 0 228.6 5h-14.23z" fill="#fff"/><path d="M275.71 39.39h-1.34a1.5 1.5 0 0 1-1.5-1.5V22.46h-22.5v15.41a1.5 1.5 0 0 1-1.5 1.5h-1.37a1.5 1.5 0 0 1-1.5-1.5V2.16a1.5 1.5 0 0 1 1.5-1.5h1.34a1.5 1.5 0 0 1 1.5 1.5v16.05h22.5V2.16a1.5 1.5 0 0 1 1.5-1.5h1.34a1.5 1.5 0 0 1 1.5 1.5v35.71a1.5 1.5 0 0 1-1.47 1.52z" fill="#fff"/><path d="M304.56 40.06a19.43 19.43 0 0 1-7.82-1.6 20.62 20.62 0 0 1-6.36-4.31 20.27 20.27 0 0 1-4.3-6.36 20 20 0 1 1 36.92 0 20.27 20.27 0 0 1-4.3 6.36 20.62 20.62 0 0 1-6.36 4.31 19.31 19.31 0 0 1-7.78 1.6zm0-35.82a14.76 14.76 0 0 0-6.06 1.26 16.11 16.11 0 0 0-5 3.43 16.37 16.37 0 0 0-3.35 5 15.56 15.56 0 0 0 0 12.06 16.52 16.52 0 0 0 3.35 5.11 15.9 15.9 0 0 0 5 3.45 15.15 15.15 0 0 0 12.07 0 15.89 15.89 0 0 0 5-3.45 16.51 16.51 0 0 0 3.35-5.1 15.37 15.37 0 0 0 1.22-6 15.21 15.21 0 0 0-1.22-6 16.35 16.35 0 0 0-3.35-5 16.1 16.1 0 0 0-5-3.43 14.65 14.65 0 0 0-6.01-1.33z" fill="#fff"/><path d="M359.12 39.43h-26.84a1.5 1.5 0 0 1-1.5-1.5V2.16a1.5 1.5 0 0 1 1.5-1.5h26.84a1.5 1.5 0 0 1 1.5 1.5v1.25a1.5 1.5 0 0 1-1.5 1.5h-24v12.77h21.28a1.5 1.5 0 0 1 1.5 1.5v1.25a1.5 1.5 0 0 1-1.5 1.5h-21.28v13.25h24a1.5 1.5 0 0 1 1.5 1.5v1.25a1.5 1.5 0 0 1-1.5 1.5z" fill="#fff"/><path d="M398.57 39.43H397a1.5 1.5 0 0 1-1.17-.56L371.5 8.37v29.56a1.5 1.5 0 0 1-1.5 1.5h-1.5a1.5 1.5 0 0 1-1.5-1.5V2.16a1.5 1.5 0 0 1 1.5-1.5h1.56a1.5 1.5 0 0 1 1.17.56l24.37 30.39V2.16a1.5 1.5 0 0 1 1.5-1.5h1.47a1.5 1.5 0 0 1 1.5 1.5v35.77a1.5 1.5 0 0 1-1.5 1.5z" fill="#fff"/><path d="M415.5 39.39H410a1.5 1.5 0 0 1-1.5-1.5v-1.25a1.5 1.5 0 0 1 1.5-1.5h.6V4.87h-.6a1.5 1.5 0 0 1-1.5-1.5V2.16a1.5 1.5 0 0 1 1.5-1.5h5.54a1.5 1.5 0 0 1 1.5 1.5v1.25a1.5 1.5 0 0 1-1.5 1.46H415v30.27h.55a1.5 1.5 0 0 1 1.5 1.5v1.23a1.5 1.5 0 0 1-1.48 1.52z" fill="#fff"/><path d="M455.5 39.39h-1.76a1.5 1.5 0 0 1-1.24-.52L440 23.13l-12.67 15.74a1.5 1.5 0 0 1-1.17.56h-1.83a1.5 1.5 0 0 1-1.17-2.43l14-17.32L423.83 3.1A1.5 1.5 0 0 1 425 .66h1.7a1.5 1.5 0 0 1 1.17.56l12 15 12-15A1.5 1.5 0 0 1 453 .66h1.74A1.5 1.5 0 0 1 456 3.1l-13.27 16.61 13.77 17.08a1.5 1.5 0 0 1-1 2.6z" fill="#fff"/><path d="M219.92 146.24h-21a5.28 5.28 0 1 1 1.85-10.24 1.5 1.5 0 0 0 2-1.34 7.95 7.95 0 0 1 15.86-.36 1.5 1.5 0 0 0 1.45 1.37 5.27 5.27 0 0 1-.15 10.54z" fill="#d6b1d3"/><path d="M576.57 211h.18a1.51 1.51 0 0 0 1.44-.95 6.89 6.89 0 0 1 13.31 2.55v.15a1.5 1.5 0 0 0 2.26 1.35 6.83 6.83 0 1 1 3.52 12.64H576.5a7.87 7.87 0 0 1 0-15.75z" fill="#faab64"/><path d="M22.56 463.5a4.27 4.27 0 0 1-3 1.41h-6a2.8 2.8 0 1 1 0-5.6 1.5 1.5 0 0 0 1.4-2 2.76 2.76 0 0 1-.18-1 2.8 2.8 0 0 1 5.53-.64 1.5 1.5 0 0 0 .84 1 4.3 4.3 0 0 1 1.42 6.8z" fill="#dc262a"/><path d="M208.73 463.12h-7.63a3.66 3.66 0 0 1-1.59-7 1.5 1.5 0 0 0 .54-2.25 6.43 6.43 0 0 1-1.32-3.91 6.5 6.5 0 1 1 12.68 2 1.5 1.5 0 0 0 .52 1.66 5.27 5.27 0 0 1-3.2 9.46z" fill="#d6b1d3"/><path d="M515.33 461.27H504a5.76 5.76 0 0 1-3.19-10.55 1.5 1.5 0 0 0 .65-1.46 7.08 7.08 0 1 1 14-1.53v.53a7 7 0 0 1-.72 3.09 1.5 1.5 0 0 0 1.13 2.14 3.91 3.91 0 0 1-.57 7.79z" fill="#dc262a"/><path d="M656.89 461.17a6 6 0 0 1-4.21 2h-7.88a4.12 4.12 0 0 1 0-8.25 1.5 1.5 0 0 0 1.4-2 4.12 4.12 0 1 1 7.87-2.38 1.5 1.5 0 0 0 .84 1 6.08 6.08 0 0 1 2 9.62z" fill="#d6b1d3"/><path fill="#faab64" d="M95.26 280.57h14.52v7.3H95.26z"/><path fill="#dc262a" d="M225.03 247.49h4.31l-4.31 4.22v-4.22z"/><path fill="#dc262a" d="M225.03 268.38l21.32-20.89h8.44l-29.76 29.17v-8.28z"/><path fill="#dc262a" d="M270.58 456.54l-14.36 14.08h-8.44l22.8-22.35v8.27z"/><path fill="#dc262a" d="M270.58 431.59l-39.81 39.03h-5.74v-2.65l45.55-44.65v8.27z"/><path fill="#dc262a" d="M270.58 406.64l-45.55 44.65v-8.27l45.55-44.65v8.27z"/><path fill="#dc262a" d="M270.58 381.7l-45.55 44.65v-8.28l45.55-44.65v8.28z"/><path fill="#dc262a" d="M270.58 356.75l-45.55 44.65v-8.28l45.55-44.65v8.28z"/><path fill="#dc262a" d="M270.58 331.8l-45.55 44.65v-8.27l45.55-44.66v8.28z"/><path fill="#dc262a" d="M270.58 306.85l-45.55 44.65v-8.27l45.55-44.65v8.27z"/><path fill="#dc262a" d="M270.58 281.9l-45.55 44.65v-8.27l45.55-44.65v8.27z"/><path fill="#dc262a" d="M270.58 256.96l-45.55 44.64v-8.27l45.55-44.65v8.28z"/><path d="M297.43 470.62h-23.85v-4.45h15.35a1.5 1.5 0 0 0 0-3h-15.35v-5.57h15.35a1.5 1.5 0 0 0 0-3h-15.35V449h15.35a1.5 1.5 0 0 0 0-3h-15.35v-5.57h15.35a1.5 1.5 0 1 0 0-3h-15.35v-5.59h15.35a1.5 1.5 0 0 0 0-3h-15.35v-5.54h15.35a1.5 1.5 0 0 0 0-3h-15.35v-5.57h15.35a1.5 1.5 0 0 0 0-3h-15.35v-5.57h15.35a1.5 1.5 0 0 0 0-3h-15.35v-5.57h15.35a1.5 1.5 0 0 0 0-3h-15.35V389h15.35a1.5 1.5 0 0 0 0-3h-15.35v-5.57h15.35a1.5 1.5 0 0 0 0-3h-15.35v-5.58h15.35a1.5 1.5 0 0 0 0-3h-15.35v-5.55h15.35a1.5 1.5 0 0 0 0-3h-15.35v-5.57h15.35a1.5 1.5 0 0 0 0-3h-15.35v-5.57h15.35a1.5 1.5 0 0 0 0-3h-15.35v-5.57h15.35a1.5 1.5 0 0 0 0-3h-15.35v-5.52h15.35a1.5 1.5 0 0 0 0-3h-15.35v-5.57h15.35a1.5 1.5 0 0 0 0-3h-15.35v-5.57h15.35a1.5 1.5 0 1 0 0-3h-15.35v-5.56h15.35a1.5 1.5 0 0 0 0-3h-15.35v-5.57h15.35a1.5 1.5 0 0 0 0-3h-15.35v-5.57h15.35a1.5 1.5 0 0 0 0-3h-15.35v-5.57h15.35a1.5 1.5 0 0 0 0-3h-15.35v-5.57h15.35a1.5 1.5 0 0 0 0-3h-15.35v-5.57h15.35a1.5 1.5 0 0 0 0-3h-15.35V252h15.35a1.5 1.5 0 0 0 0-3h-15.35v-5.57h15.35a1.5 1.5 0 0 0 0-3h-15.35v-5.51h15.35a1.5 1.5 0 0 0 0-3h-15.35v-5.62h15.35a1.5 1.5 0 0 0 0-3h-15.35v-5.57h15.35a1.5 1.5 0 0 0 0-3h-15.35v-5.57h15.35a1.5 1.5 0 0 0 0-3h-15.35v-5.57h15.35a1.5 1.5 0 0 0 0-3h-15.35V191h23.85z" fill="#dc262a"/><path fill="#dc262a" d="M307.29 225.78h5.01l-5.01 4.91v-4.91z"/><path fill="#dc262a" d="M307.29 247.37l22.02-21.59h8.44l-30.46 29.86v-8.27z"/><path fill="#dc262a" d="M349.98 463.27l-7.49 7.35h-8.44L349.98 455v8.27z"/><path fill="#dc262a" d="M349.98 438.33l-32.94 32.29h-8.44l41.38-40.57v8.28z"/><path fill="#dc262a" d="M349.98 413.38l-42.69 41.85v-8.28l42.69-41.85v8.28z"/><path fill="#dc262a" d="M349.98 388.43l-42.69 41.85V422l42.69-41.84v8.27z"/><path fill="#dc262a" d="M349.98 363.48l-42.69 41.85v-8.27l42.69-41.85v8.27z"/><path fill="#dc262a" d="M349.98 338.53l-42.69 41.85v-8.27l42.69-41.85v8.27z"/><path fill="#dc262a" d="M349.98 313.58l-42.69 41.85v-8.27l42.69-41.85v8.27z"/><path fill="#dc262a" d="M349.98 288.64l-42.69 41.85v-8.28l42.69-41.85v8.28z"/><path fill="#dc262a" d="M349.98 263.69l-42.69 41.85v-8.28l42.69-41.85v8.28z"/><path fill="#dc262a" d="M349.98 238.74l-42.69 41.85v-8.28l42.69-41.84v8.27z"/></g></g></svg>