<svg xmlns="http://www.w3.org/2000/svg" viewBox="0 -0.8314132690429688 117.79000091552734 129.71142578125"><title>Depositphotos_112871588_30_ic</title><g data-name="Layer 2"><g data-name="Layer 1"><path d="M78 94.59c31.67 0 38.3-15.21 38.33-27.88A38.1 38.1 0 0 0 108.61 44L93.28 23.36H62.72L47.39 44a38.1 38.1 0 0 0-7.72 22.72C39.7 79.38 46.33 94.59 78 94.59z" fill="#89d4f0"/><path d="M74.9 59.38l2.55 1.19a19.47 19.47 0 0 1 3.48 1.91 4.35 4.35 0 0 1 1.21 1.67 6 6 0 0 1 .44 2.37A4.53 4.53 0 0 1 81.05 70 5.83 5.83 0 0 1 77 71.42a14.34 14.34 0 0 1-3.38-.42 19.32 19.32 0 0 1-3-.91v4a12 12 0 0 0 2.16.72 13.16 13.16 0 0 0 2.58.45v3.38h4.16V75a8.59 8.59 0 0 0 5.33-2.71 7.27 7.27 0 0 0 2.05-5.19 10.15 10.15 0 0 0-1.55-5.84 11.85 11.85 0 0 0-4.92-3.85l-2-.93a18.15 18.15 0 0 1-3.28-1.86 4.64 4.64 0 0 1-1.29-1.68 5.24 5.24 0 0 1-.45-2.2 4.33 4.33 0 0 1 1.26-3.22 4.7 4.7 0 0 1 3.46-1.25 10.52 10.52 0 0 1 3.28.58 9.9 9.9 0 0 1 2.63 1.21V44a9.71 9.71 0 0 0-4.63-1.32v-3.39h-4.09v3.62A8.07 8.07 0 0 0 71 45.59a7.81 7.81 0 0 0-1.89 5.22 9.28 9.28 0 0 0 1.28 5 10.17 10.17 0 0 0 4.51 3.57z" fill="#fff"/><path d="M111 85.51c4.49-4.79 6.77-11.09 6.79-18.8a39.82 39.82 0 0 0-8-23.62L95.92 24.41A3.86 3.86 0 0 0 98 21v-1.43A3.87 3.87 0 0 0 95.49 16l9-8.69-4.79-4.8a8.58 8.58 0 0 0-12.12 0l-1.92 1.91-.25-.25a10.24 10.24 0 0 0-14.48 0l-.25.25-1.9-1.91a8.58 8.58 0 0 0-12.12 0l-4.77 4.76 8.88 8.61A3.87 3.87 0 0 0 58 19.57V21a3.86 3.86 0 0 0 2.09 3.42L46.18 43.09a39.82 39.82 0 0 0-8 23.62c0 8.69 3.06 15.75 8.83 20.72a30 30 0 0 0-12.93 4.21v-3.12H20.67v3h10.4v27.71h-10.4v3h13.4v-7.93c3.14-.49 14.48-2 32-1a32.3 32.3 0 0 0 16.88-3.71l32.17-17a2.77 2.77 0 0 0 .88-4.16 8.16 8.16 0 0 0-5-2.92zM58.77 4.63a5.58 5.58 0 0 1 7.88 0l4 4 2.37-2.37a7.24 7.24 0 0 1 10.23 0l2.37 2.37 4-4a5.58 5.58 0 0 1 7.88 0l2.61 2.61-8.66 8.46H64.9l-8.73-8.47zm3.08 17.23A.88.88 0 0 1 61 21v-1.43a.88.88 0 0 1 .87-.87h32.27a.88.88 0 0 1 .87.87V21a.88.88 0 0 1-.87.87H61.86zM41.17 66.7a36.79 36.79 0 0 1 7.42-21.82l14.88-20h29l14.88 20a36.8 36.8 0 0 1 7.42 21.82c0 8.11-2.81 14.45-8.28 18.87-.37.07-.74.16-1.13.26a14.48 14.48 0 0 0-1.94.69l-15.29 6.55a8.78 8.78 0 0 0-.78-.51 8.11 8.11 0 0 0-7.66-.1 15.71 15.71 0 0 1-12.34.54 45.83 45.83 0 0 0-6.85-3.54 29 29 0 0 0-8.39-2C44.88 83 41.19 76.05 41.17 66.7zM81.54 107a29.18 29.18 0 0 1-15.31 3.37c-17.18-1-28.34.35-32.17.93V95.2a26.91 26.91 0 0 1 25.3-2.94 43 43 0 0 1 6.49 3.37l.17.09a18.42 18.42 0 0 0 15-.57 5.13 5.13 0 0 1 4.83 0 5.26 5.26 0 0 1 1.69 1.54l-3.88 2.63a23.92 23.92 0 0 1-13.48 4.14h-5.37v3h5.35a26.9 26.9 0 0 0 15.17-4.66l3.91-2.65a2.94 2.94 0 0 0 1-3.72l14.4-6.14a11.7 11.7 0 0 1 1.53-.55 13.32 13.32 0 0 1 1.37-.29l.07.1.16-.12c3-.4 4.73.62 5.68 1.71z" fill="#fff"/><path fill="#89d4f0" d="M0 81.05h20.67v47.83H0z"/></g></g></svg>