<svg xmlns="http://www.w3.org/2000/svg" viewBox="-4.76837158203125e-7 0 119.48999786376953 108.51000213623047"><title>Depositphotos_63431289_12_tx</title><g data-name="Layer 2"><g data-name="Layer 1" fill="#fff"><path d="M103.56 62.4a1.31 1.31 0 0 0 1.84-.18 18.92 18.92 0 0 0 3.22-6 18.92 18.92 0 0 0-5.24 4.29 1.31 1.31 0 0 0 .18 1.89z"/><path d="M117.85 96.05H81.08V59.26h-12.7a2.19 2.19 0 0 1-2.06-1.45h15a2.87 2.87 0 0 0 2.87-2.87v-2.18a2.87 2.87 0 0 0-2.87-2.87h-.25a36.39 36.39 0 0 0-31.38-34.82v-2.8a.87.87 0 0 0-.87-.87h-1.29V11a5.37 5.37 0 0 1 5.37-5.36h29.74A5.37 5.37 0 0 1 88 11v63.94A11 11 0 0 0 99 86h7.58v1.27a.27.27 0 0 0 .27.27h3.3a.27.27 0 0 0 .27-.27V79a.27.27 0 0 0-.27-.27h-3.3a.27.27 0 0 0-.27.27v1.3H99a5.37 5.37 0 0 1-5.37-5.37V64.56H95a9.87 9.87 0 1 0 0-6.34h-1.33V11a11 11 0 0 0-11-11H52.89a11 11 0 0 0-11 11v.37h-1.32a.87.87 0 0 0-.87.87v2.81A36.39 36.39 0 0 0 8.33 49.9h-.25a2.87 2.87 0 0 0-2.87 2.87v2.18a2.87 2.87 0 0 0 2.87 2.87h.23v38.23H1.64A1.64 1.64 0 0 0 0 97.69v9.18a1.64 1.64 0 0 0 1.64 1.64h116.21a1.64 1.64 0 0 0 1.64-1.64v-9.18a1.64 1.64 0 0 0-1.64-1.64zM98.21 60.94h-.84a7 7 0 0 1 1.74-4.2l.59.59a.34.34 0 0 0 .48 0l.15-.15a.34.34 0 0 0 0-.48l-.59-.59a7 7 0 0 1 4.2-1.74v.84a.34.34 0 0 0 .34.34h.22a.34.34 0 0 0 .34-.34v-.84a7.05 7.05 0 0 1 6.58 6.58h-.84a.34.34 0 0 0-.34.34v.22a.34.34 0 0 0 .34.34h.84a7 7 0 0 1-1.74 4.2l-.59-.59a.34.34 0 0 0-.48 0l-.15.15a.34.34 0 0 0 0 .48l.59.59a7 7 0 0 1-4.2 1.74v-.84a.34.34 0 0 0-.34-.34h-.22a.34.34 0 0 0-.34.34v.84a7 7 0 0 1-4.2-1.74l.59-.59a.34.34 0 0 0 0-.48l-.15-.15a.34.34 0 0 0-.48 0l-.59.59a7 7 0 0 1-1.74-4.2h.84a.34.34 0 0 0 .34-.34v-.22a.34.34 0 0 0-.35-.35zm-46.9 16.54v9.42a36.35 36.35 0 0 0 21-12.12l-.95 21.27H49.6V75.41a2.11 2.11 0 0 1 1.71 2.07zm-34.25-2.7a36.33 36.33 0 0 0 22.74 12.4v8.88H18z"/></g></g></svg>