<svg xmlns="http://www.w3.org/2000/svg" viewBox="-0.1100001335144043 -0.23999977111816406 151.3541259765625 173.5211639404297"><title>34052277_9_il</title><g data-name="Layer 2"><g data-name="Layer 1"><path d="M147.56 66.93l-.57.67a39.17 39.17 0 0 1-3.76 1.89 6.25 6.25 0 0 0-1.5 1.33 2.21 2.21 0 0 0-.58-.13 1.16 1.16 0 0 0-1.5-.12 8.45 8.45 0 0 0-1.55 1.25l-.15.13a1.11 1.11 0 0 0-.65.2 1.93 1.93 0 0 0-1-.4 3.06 3.06 0 0 0-2.13.64 5.13 5.13 0 0 0-.91.53 1.23 1.23 0 0 0-1.59-.68 3 3 0 0 0-.34-.16 2.4 2.4 0 0 0-2.69.3 6.09 6.09 0 0 0-.73 1.1s0-.07-.09-.09l-1.71-1.31a.83.83 0 0 0-.23-.5 13.77 13.77 0 0 0-6.66-3.32c-2.81-1.56-7-2.82-10.07-2.57h-.65v-1.21a5.3 5.3 0 0 0 .43-1.66c.2-2-2.51-5.58-3.44-7.29a3.76 3.76 0 0 0-3.66-1.59 22.17 22.17 0 0 0-3.25-1.27 2.69 2.69 0 0 0 0-1.64 12.2 12.2 0 0 0-2.2-4.26 9.45 9.45 0 0 1-1.48-2.24 18.05 18.05 0 0 0-.9-2.7 2.28 2.28 0 0 0-.12-.43 40.8 40.8 0 0 0-1.2-4c-1.31-3.5-3.19-6.71-4.32-10.28a54.11 54.11 0 0 0-4-8.6c-.79-1.51-1.59-2.28-2.8-2.55a2.13 2.13 0 0 0-1.73-1.13c-.12-.23-.24-.46-.37-.68a2.15 2.15 0 0 0 .71-1.25c0-.17.06-.33.09-.48a2 2 0 0 0 1.25-2.12v-.39a2.1 2.1 0 0 0-.11-.49 2.16 2.16 0 0 0 .79-.65 30.07 30.07 0 0 0 7.98.22 24 24 0 0 0 5.41-1.4c2.19-.13 4.38-.32 6.58-.51a2 2 0 0 0 1.9-2 2.33 2.33 0 0 0-2.54-2.48c-2 .16-3.91.13-5.87.27a7.46 7.46 0 0 0-1.77.39 29.44 29.44 0 0 1-3 0c-1.88-.09-3.77 0-5.66-.11-1.72-.06-3.93-1-5.64-1.44a5.16 5.16 0 0 0-3.27.48A11.83 11.83 0 0 0 72 1.76c-3 .45-4.59 3.81-2.43 5.56.45 2.44-2 2-4 2.38A2.08 2.08 0 0 0 64 11c-3.51 1.7-4.27 6-5.83 9.21-.74 1.54-1.88 4.52-1.5 6.73l-.37.69c-1 2.06-1.53 4.43-2.69 6.45-1.9 3.34-2.46 6.86-3.74 10.34a10.21 10.21 0 0 0-.61 3.9c.1 2.36-.68 3.12-1.32 5.19a2.23 2.23 0 0 0 2.33 3c2-.17 3.85-.54 5.82-.91 1.44-.26 3.75.09 5.43-.4-.31.73-.59 1.45-.83 2.12a.93.93 0 0 0-.24.09c.44-.92-.86-1.83-1.62-1.24a1.11 1.11 0 0 0-1 .13c-.3.2-.62.42-.94.66h-3.34c-3.58-.69-7-.27-10.65.05a11.31 11.31 0 0 0-3.69.82 4 4 0 0 0-1.36-.11l-.08-.05a1.08 1.08 0 0 0-1 .15c-1.56 1.22-2.28 4.47-1 6.23a2.87 2.87 0 0 0 .37 1.39 3.44 3.44 0 0 0 1.36 2.67 1 1 0 0 0 .12.6 61.52 61.52 0 0 0-5.61 2.55 51.47 51.47 0 0 0-4.8 3.11c-.18.12-.36.26-.54.4l-.41.22a12.29 12.29 0 0 0-3.79 2.68 15.92 15.92 0 0 0-2-.14 27.85 27.85 0 0 0-4.56-.76c-.46-.07-.91-.12-1.37-.16a17.37 17.37 0 0 0-5.92-1.79 1 1 0 0 0-.67.19l-1.48-.85a.71.71 0 0 0-.53-.69 3.26 3.26 0 0 0-.74-.17l-.06-.05a.9.9 0 0 0-1.42.84v.19A.81.81 0 0 0 4 75a.83.83 0 0 0 .22.43c.38.39.78.78 1.18 1.15a.82.82 0 0 0 .2.67A20.05 20.05 0 0 0 10.13 81c1.6 1.54 3.56 2.89 5.26 3.15h.22c1 .08 1.94.13 2.88.12a4.43 4.43 0 0 0 .93 0c.72 0 1.43-.09 2.18-.2a1.23 1.23 0 0 0 .47-.17c2.93.32 5.87.78 8.4-.67a13.41 13.41 0 0 0 3.55.59c2.15 0 4.29-.38 6.44-.57a25.08 25.08 0 0 0 4.08-.92 8 8 0 0 0 3.28-.63 2.89 2.89 0 0 0 .42-.23 23.43 23.43 0 0 0 3.44-.37 30 30 0 0 1 8.71-.41 40.36 40.36 0 0 0 5.06 0c.18.2.37.4.55.58a2.32 2.32 0 0 0 3.42.07 2.21 2.21 0 0 0 2.75-.92h.7c1.21 1.1 2.62 1.92 4 1.32a2.77 2.77 0 0 0 1.62-1.56c.74 0 1.48 0 2.22.09 3.07.27 6.08-.48 9.16-.18a33.91 33.91 0 0 0 6.55.35c1.55-.14 3.06-.49 4.61-.62h.56a28.2 28.2 0 0 0 4.44.48 2.19 2.19 0 0 0 1.39-.37c.88.1 1.8.13 2.54.17a2.29 2.29 0 0 0 1.74-.66 23.62 23.62 0 0 0 8.81-.52 1.48 1.48 0 0 0 .29.15 17.14 17.14 0 0 0 8.11.6c1.61-.2 3.13-.66 4.74-.81 2-.18 3.91.54 5.93.38 1.82-.14 3.4-.4 4.26-2.23a37.4 37.4 0 0 1 5.16-8.4l.11-.14.19-.24a2.69 2.69 0 0 0 .16-.23c.59-1.14-1.15-2-1.9-1.07zM24.91 80.25h-.86l.29-.16 1.55-.65zm5.43-4.87a1 1 0 0 0-.86 0l-1.77.81c1.32-.89 2.73-1.68 4-2.52.51-.32 1-.62 1.55-.9-.99.81-1.97 1.69-2.92 2.61zm39.25-13h-.09a18.32 18.32 0 0 0 .5-1.88l.49 1.09a2.24 2.24 0 0 0-.9.84zm.81-48.27a2.08 2.08 0 0 0-.15-.37 2.09 2.09 0 0 0 .11-.7l.31-.09c-.09.43-.18.81-.27 1.2z" fill="#b38bbf"/><path d="M78.14 55.31c-2.28-2.73-6.64-1.73-9.86-.84a.84.84 0 0 0-.26-.05c-5.9.11-6.15 7.44-4 11.48a4.72 4.72 0 0 0 .77 1.1 1 1 0 0 0 .21 1.43 5 5 0 0 0 3.91.45 11.47 11.47 0 0 0 1.26.13c2.28.11 6.4.3 8.29-1.27 1.7-1.41 1.65-3.18 1.47-5.23-.19-2.51-.11-5.19-1.79-7.2zm-11.67 1.82a1 1 0 0 0 .72.06 29.78 29.78 0 0 1 4-.82c3.51-.39 4.4 2.81 4.63 5.49.08 1 .55 2.91-1.09 3.22-.87.17-1.75.18-2.62.34-1.21.23-2.29.86-3.43 1.17l-.5-.1c-2.51-.67-2.95-3.16-3.13-5.34-.15-1.96.3-3.15 1.42-4.02z" fill="#fdeb65"/><path d="M66.28 55a1 1 0 0 0-.38-.49.84.84 0 0 0-1 0 2.12 2.12 0 0 0-.21.25c-.44.36-.78.84-1.23 1.23A4.23 4.23 0 0 0 62 57.73a4.77 4.77 0 0 0-.16 2.07c.06.87-.15 1.44.37 2.19a.77.77 0 0 0 1.22 0c.64-1 .39-2 .43-3.1 0-.77.62-1.08 1.15-1.54s.62-.89 1-1.21a1 1 0 0 0 .27-1.14z" fill="#fdf196"/><path d="M79.7 60.76c-.17-1.82-.3-4.13-1.57-5.55s-2.64-1.52-4.38-1.36c-2.56.24-5.17-.31-7.71.13a.76.76 0 0 0 0 1.49.8.8 0 0 0 .34 0 11.76 11.76 0 0 1 2.3.32c1.11.09 2.26.13 3.38.15s3.18-.56 4.23.3 1 2.61 1.17 4c.31 2.09.55 4.23.78 6.33-.09-.81.08.48.25.73.67 1 2 .17 2-.84-.16-1.93-.61-3.82-.79-5.7z" fill="#fdf7c6"/><path d="M75.25 62.73a7.7 7.7 0 0 0-1-2.67c0-.08 0-.16-.06-.24s0-.1 0-.14c0-.08 0-.16-.06-.25-.29-.93-1.62-.61-1.79.21a1.1 1.1 0 0 0-.31-.19h-.23a.75.75 0 0 0-.19 0 .76.76 0 0 0-.44.2v.05l-.17.12a.71.71 0 0 0-.14.13 6.64 6.64 0 0 0-1.21 1.39 2 2 0 0 0-.5.82c-.11.21-.22.41-.32.61a.86.86 0 0 0 .61 1.21v.06a1.14 1.14 0 0 0-1.68 1.07v.19a1.08 1.08 0 0 0 .93.93 3.12 3.12 0 0 0 1.19-.1 6.26 6.26 0 0 1 1.61 0c.89 0 2.35 0 3.09-.55s.47-1.27.39-2a.9.9 0 0 0 .28-.85z" fill="#fdf7c6"/><path d="M68 8.5c-3.52.26-5.06 3.35-6 6.32-.59 1.82-2.24 3.27-3 5-.9 2.2-2.07 4.31-2.79 6.59-1.49 4.71-2.09 9.56-3.54 14.26s-4 8.79-5.2 13.6C47 56.41 49.21 58 51 57.83c3.78-.34 8.63 0 11.7-2.54s3.52-8.2 3.95-11.9c.57-4.89 1.47-9.79 2.43-14.61 1-5 1.17-10.17 2-15.2A3.38 3.38 0 0 0 68 8.5z" fill="#7153a2"/><path d="M88.69 40.5l-.57-.37a4.15 4.15 0 0 0-.31-.7 5.37 5.37 0 0 0 .67-2.24c.08-2-1.49-4.22-3.76-3.72a6.26 6.26 0 0 0-1.68.55 3 3 0 0 0-2.49 1.89l-.05.17a3.43 3.43 0 0 0 .34 3 3.22 3.22 0 0 0-.06.33 1.42 1.42 0 0 1 .12-.26 8.61 8.61 0 0 1-.24.85 3.85 3.85 0 0 0 1.19 3.56 3.79 3.79 0 0 0 1.29 2 3.25 3.25 0 0 0 2.53.71 3.17 3.17 0 0 0 .65.1 3.34 3.34 0 0 0 3.42-2 3.26 3.26 0 0 0-1.05-3.87z" fill="#7153a2"/><path d="M98.51 70c-1.41-1.73-3.06-1.63-5.05-1.74a49.15 49.15 0 0 0-6.8.55c-3.25.26-3.14 4.48-.72 5.76 1.82 1 4 .47 5.92.33h2.21a3.17 3.17 0 0 0 4.8-1.31l.09-.24a3.37 3.37 0 0 0-.45-3.35z" fill="#7153a2"/><path d="M49 69.46c-3.14.27-6.46-.82-9.68-.53a9.22 9.22 0 0 0-5.35 2.26 1.59 1.59 0 0 0-.27 0 7.4 7.4 0 0 0-5.08 2A3.32 3.32 0 0 0 31.09 79a12.24 12.24 0 0 0 4.73-1.47c.2-.13.81-.23 1.27-.41 3.95 1.55 8.79-.44 12.8-1.16 4.16-.77 3.28-6.86-.89-6.5z" fill="#7153a2"/><path d="M65 12.22h-.16a.69.69 0 0 0-.8.22c-.33.52-.63 1.07-.91 1.63v-.36c.19-.87-1.13-1-1.35-.17-1.25 4.77-3 9.37-4.56 14a37.22 37.22 0 0 0-2.91 8.26.54.54 0 0 0 .3.64 49.89 49.89 0 0 0-.93 5.31.65.65 0 0 0 .61.69c0 .34-.06.69-.08 1a.64.64 0 0 0 1.26.16 132.43 132.43 0 0 1 4.88-15.85A85.7 85.7 0 0 0 63 19.41c.28-.67.57-1.33.82-2 .45-1.18.92-2.34 1.37-3.51.12-.31.06-.38-.07-.38a.48.48 0 0 0 .29-.45v-.17a.65.65 0 0 0-.41-.68z" fill="#f5a2c6"/><path d="M83.54 21.32c-.39-.64-1.3-.2-1.42.39a20 20 0 0 0 .22 5.76c.11 1.11.19 2.22.28 3.33a7.31 7.31 0 0 0 .31 2.26c-.19-.54-.36-1.07-.49-1.62-1.3-4.68-.74-10.25-2.77-14.63a.57.57 0 0 0-1 .45c1.25 3.78.91 8.23 1.61 12.16.29 1.63.55 5.51 2.53 6.13a.85.85 0 0 0 1.09-.45 6.9 6.9 0 0 0 .41-2.79.71.71 0 0 0 1-.7c-.09-3.14-.1-7.53-1.77-10.29z" fill="#f5a2c6"/><path d="M56.83 62.2l-.35-.09a13.28 13.28 0 0 0 2.26-.17.67.67 0 0 0 .16-1.28c-1.29-.66-3.13-.52-4.53-.61a42.64 42.64 0 0 0-7 .2c-.71.07-.72 1.26 0 1.27h.5a.54.54 0 0 0 .52.75 35 35 0 0 1 6 .54c.12 0 2.6.63 4 1a11.73 11.73 0 0 1-1.68.08c-1.61-1-5.26-.85-6.47-.62a.65.65 0 0 0-.24 1.31c.28.11.57.19.85.27h-.17a.65.65 0 0 0-.16 1.24 7.51 7.51 0 0 0 3.81.36 28.69 28.69 0 0 0 2.9.58.74.74 0 0 0 .37-1.41l-.42-.14a.68.68 0 0 0 .11-.16 5.81 5.81 0 0 0 3-.65.68.68 0 0 0 .31-.67c-.33-1.42-2.6-1.46-3.77-1.8zM52 61.33q1.08 0 2.18.05h.11a.46.46 0 0 0 0 .22c-.76-.12-1.51-.21-2.29-.27z" fill="#f5a2c6"/><path d="M101.19 53.82c-3.29.12-6.19 1.54-9.43 1.84-2.87.26-5.75.5-8.62.84a.88.88 0 0 0-.4 1.56 6.69 6.69 0 0 0 1 .52l-.25.08a.82.82 0 0 0-.52.74.88.88 0 0 0 0 1.4c.42.25.87.48 1.33.7-1.27.23-2.24.71-2.34 1.65a.76.76 0 0 0 .3.71c.15.09.32.16.48.24h-.29c-.67 0-.64 1.09 0 1.16a68.43 68.43 0 0 0 8.08.63.79.79 0 0 0 .65-.32l.5.06a.79.79 0 0 0 .2-1.57c-1.64-.25-3.33-.74-5-.93a19.33 19.33 0 0 1 2.58 0c.35.05.69.09 1 .11 1.08.07 1.32-1.59.22-1.69a17.24 17.24 0 0 1-3.3-.74l1.71-.15a.77.77 0 0 0 .69-.56.89.89 0 0 0-.13-1.56c-.19-.08-.39-.14-.6-.21a1 1 0 0 0-.05-.53l3-.25c3.21-.26 6.25-1.46 9.38-2.16a.79.79 0 0 0-.19-1.57z" fill="#f5a2c6"/><path d="M138.29 93.09c-1.51-.32-3-.61-4.56-.83a5 5 0 0 1-.57-.12A11.48 11.48 0 0 0 132 89.8a10.88 10.88 0 0 0-3.21-3.09 21.43 21.43 0 0 0-4.36-5.41 2.31 2.31 0 0 0-2-.37 5.28 5.28 0 0 0-2.34-1c-2-.17-3.48.9-5.43.7-4.95-.49-9.76.36-14.73.13a95.39 95.39 0 0 0-12 .61 132.43 132.43 0 0 1-16.56 0 45.17 45.17 0 0 0-5.73.19c-2.39.21-4.63-.58-7-.37-1.85.16-3.65.68-5.49 1-2.38.35-4.34 1.87-6.87 1.32-3.72-.8-7.85.65-11.61 1.11a8.3 8.3 0 0 0-3 .91c-2.8-.14-4 3.22-4.25 5.8a3.6 3.6 0 0 1-1 1 19.19 19.19 0 0 0-6.27 2.9c-.6.41-1.19.82-1.74 1.23a2.22 2.22 0 0 0-1.73.83 5.82 5.82 0 0 0-1.28 2.5 5.82 5.82 0 0 0-.4 3.31c-.37 2.58-.08 5.13 2 6.89 1.1.94 2.61-.07 3.61-.31a6.4 6.4 0 0 0 5.09.81 6 6 0 0 0 .86.29c2.44.59 5.24.13 7.93-.49l2.72.51c3.13.56 6.43.07 9.57-.26 3.37-.36 6.64.07 10-.06 3-.12 6.08-.76 9-.43 5.44.6 11-.61 16.47-1.31.77 0 1.54.08 2.31.09a166 166 0 0 0 18.86-.27c1.38-.13 2.76-.28 4.14-.45 2.66 1.16 6.5.3 9-.22 3.5-.72 7.85-1.13 12-1.67 2.12-.1 4.24-.39 6.35-.62 2.35-.26 5.87.39 7.49-2 3.11-4.33 1.01-9.39-4.11-10.51z" fill="#fdc48e"/><path d="M128.17 90.52a10.79 10.79 0 0 0-10.72-3.3c-1.17.24-2.41.4-3.65.61a9.3 9.3 0 0 0-2.92-2c-2.48-1.19-3.59-3.28-6.63-3.52a5.67 5.67 0 0 0-2.33.28c-4-1-8.42-.17-10.85 3.35l-.23-.08c-2.26-.69-4.64-1-6.65.62a4.81 4.81 0 0 0-.61.59 12.11 12.11 0 0 0-3.42-1.35 11.86 11.86 0 0 0-6.64.18 13 13 0 0 0-2.65.78A10.43 10.43 0 0 0 66.34 91a16.84 16.84 0 0 0-1.52 2.29c-.25-3.38-1.86-6.57-5.06-8.09-2.66-1.26-5.91-2.06-8.36.28-1.46 1.4-2.82 2.86-4.23 4.27a4.68 4.68 0 0 0-1.55-4 4.86 4.86 0 0 0-4.23-1.55 4.92 4.92 0 0 0-3.24 1.93A7.11 7.11 0 0 0 36.93 89v.22a10.51 10.51 0 0 0-4.77 1 7.53 7.53 0 0 0-2.88 2c.76-.4.91-.46.46-.19a4.93 4.93 0 0 0-3 5.3 4.54 4.54 0 0 0-.88 0 7 7 0 0 0-3 1.31 6.47 6.47 0 0 0-2.09 2.55 3.74 3.74 0 0 0-.41 1.47 5.17 5.17 0 0 0 1.08 3.81 6.54 6.54 0 0 0 1 .92 5.65 5.65 0 0 0 2.41 1 3.86 3.86 0 0 0 2-.16h.68a4.09 4.09 0 0 0 2.84-1.61 4.62 4.62 0 0 0 4.41-2.75l.86-.84c.07-.05 2.22 1.59 2.46 1.77a13.7 13.7 0 0 0 3 1.68 7.15 7.15 0 0 0 1.68 1.25c1.8 1 3.93.21 5.74-.31.36-.09.72-.19 1.08-.31a10.07 10.07 0 0 0 5.29-2.91c1-1 1.94-.67 3.34-.74h.19a6.91 6.91 0 0 0 3.38 2.75 14.23 14.23 0 0 0 10.2-.08 10.92 10.92 0 0 0 5-3.22 13.9 13.9 0 0 0 1.23-1.63l-.76-.25c.69.2 1.39.37 2.1.51a6.24 6.24 0 0 0 6.69-3.1A6.42 6.42 0 0 0 88 98a4.27 4.27 0 0 0 .48 1 8.61 8.61 0 0 0 .71 3.79 5.19 5.19 0 0 0 5.35 3 11.94 11.94 0 0 0 6.59-2.37 5 5 0 0 0 1.68-2.55 38.77 38.77 0 0 0 8 .08 4.49 4.49 0 0 0 2.83-.34 10.07 10.07 0 0 0 1.38-.87 9 9 0 0 0 2.75 1.79c3.39 1.09 7.14.91 9.82-1.73 2.31-2.29 3.13-6.59.58-9.28z" fill="#fed9b5"/><path d="M143.37 107.44a1.57 1.57 0 0 0-1.22-.83 2.53 2.53 0 0 0-2.19-.79 40.17 40.17 0 0 0-4.54 1c-1.72.51-3.54.44-5.19 1.06-2.21-1-5-.55-7.6-.24-7.84 1-15.76 1.09-23.64 1.64-4.77-1-10.26-.31-14.73.08a106.85 106.85 0 0 1-11 .3 34.35 34.35 0 0 0-10.39 1.45 35.23 35.23 0 0 0-4.82.15c-4.26.37-8.25-1.59-12.53-1.11a67.62 67.62 0 0 1-11.94 0 13.59 13.59 0 0 0-5.88.5c-.37.15-2.1.61-2.48.81l-.21.12a3.84 3.84 0 0 0-2.89-.08.89.89 0 0 0-.66.07l-.23-.05c-.86-.23-1.7-.48-2.57-.66-1.35-.28-3.16-.85-3.89.76-.62 1.36 1.43 2.06 2.36 2.16s1.88-.08 2.83 0a4.42 4.42 0 0 0 .1 3.4 3.71 3.71 0 0 0 .07.76 7.71 7.71 0 0 0 2.83 5 14.45 14.45 0 0 0 .47 3.69c.66 2.58 2.19 4.52 3.1 7a14.4 14.4 0 0 0 1.35 2.74v.32c.33 2.94 1.77 5.31 2.93 7.94.82 1.88 1.39 3.71 2 5.62a8.44 8.44 0 0 0 .84 5c1.68 3.37 3.64 7.38 4 11.2.48 4.74 5.77 6.18 9.22 4.37a32.54 32.54 0 0 0 7.69.94c8.42.1 16.88.06 25.32.14a68.24 68.24 0 0 0 9.42-.87c4.87 1.68 10.34 1.55 15.46 1.93a32.57 32.57 0 0 0 9.85-.54 5.93 5.93 0 0 0 3 .35 6 6 0 0 0 5.14-6.13v-.05c1.33-2.59 1.22-5.24 1.94-8 1-3.58 1.63-7.22 2.67-10.77 1.91-6.51 3.56-12.44 2.79-19.07a13.54 13.54 0 0 0 1.2-4.75 6.81 6.81 0 0 0 1-1.57 13.72 13.72 0 0 0 1.32-7.18 8 8 0 0 0-.47-4.14c-.09-.2-.19-.38-.28-.57h1.14c1.38.05 2.75.07 4.11 0a8.88 8.88 0 0 0 3.11-.46.83.83 0 0 0 1.09.32 2.3 2.3 0 0 0 1-2.96z" fill="#d16828"/><path d="M129.18 133.26a1.08 1.08 0 0 0-1.09-1c-1.65 0-3.25.09-4.89.24h-.12c-1.89.08-3.78.15-5.67.28-2.79-.67-6.46-.32-9.2-.29-5.31.05-10.54-.28-15.85.14a.82.82 0 0 0-.69.5l-4.57-.19a.94.94 0 0 0-.8-.77c-5.92-.74-12.57.1-18.49.61a.85.85 0 0 0-.8.67l-2.71.24c-1-.07-1.9-.15-2.86-.25a52.57 52.57 0 0 0-13.22 0 .89.89 0 0 0-.68.56c-1 .08-2.08.18-3.12.31-.86 0-1.73 0-2.6.06-1.15-.05-2.3-.12-3.46-.2a.82.82 0 0 0-.73-.35c-2.33.11-4.62 0-6.94.07L29 133.8a.88.88 0 0 0-.9 1.13 1.25 1.25 0 0 0 0 .17.82.82 0 0 0 .7 1 21.64 21.64 0 0 0 4.7-.18h2.56a.65.65 0 0 0 .62.45h6.96a20.34 20.34 0 0 0 4.05.06q1.68 0 3.36-.08h.09l1.9.07a1 1 0 0 0 1.06 1c6.14-.28 12.28-.33 18.4-.81a1 1 0 0 0 .28-.06 1 1 0 0 0 1 1.3c3.31-.28 6.62-.58 9.94-.85 7.13-.2 14.25.24 21.42-.12.72 0 .93-.89.67-1.42l2-.08a1 1 0 0 0 1 .66c3.5-.25 7-.1 10.53-.5 3.09-.17 6.13-.21 9.23-.47a1 1 0 0 0 .61-1.81z" fill="#ba9364"/><path d="M124.32 153.42c-3.6-.54-7.47.34-11.22.6a1 1 0 0 0-.6-.15c-1.76.11-3.53.12-5.29.17-.77 0-1.55 0-2.35.1a.88.88 0 0 0-.57.24 33.73 33.73 0 0 0-5.75-.59c-2.24-.23-5.32-.91-7.13 0a1 1 0 0 0-.46.52c-1.28 0-2.57-.11-3.86-.11l-2.15-.2a.8.8 0 0 0-.7-.43c-1.49 0-3-.09-4.43-.08s-3-.18-4.54-.25a19.7 19.7 0 0 0-2.53-.05.81.81 0 0 0-.76.52h-.69l-1.71.1a21.4 21.4 0 0 0-7.9-.47c-2.12 0-4.25 0-6.37.1a1 1 0 0 0-.44-.08c-5 .32-9.94 0-14.9.37a.79.79 0 0 0-.54.25c-1.57.13-3.13.29-4.71.44-1.13.11-.88 1.84.24 1.74l1.33-.12a3.92 3.92 0 0 0 2 .38.69.69 0 0 0 .71-.42c1-.1 2-.21 3-.32h2.49a.72.72 0 0 0 .39-.14h1.95a.76.76 0 0 0 .57.27c1.27 0 2.52 0 3.77-.09 1.83-.09 3.66 0 5.49 0a1.05 1.05 0 0 0 .41.06h1.99a.85.85 0 0 0 .74.59c.53.05 1.06.07 1.6.09a1 1 0 0 0 .64.16c3.56-.3 7.1-.54 10.66-.76 2.51 0 5 .07 7.55 0a.84.84 0 0 0 .47-.16l.64.05a1 1 0 0 0 .89.47c1.23 0 2.44 0 3.65.09a36.39 36.39 0 0 1 4.2.6.83.83 0 0 0 1-.51 38.3 38.3 0 0 0 5.13 0 .93.93 0 0 0 .37-.11 1 1 0 0 0 .83.39c1.78-.07 3.55 0 5.33-.12H104a.87.87 0 0 0 .64 1.52c3.36-.24 6.6-.84 9.92-1.26s6.53-.47 9.71-1.3a1 1 0 0 0 .05-2.1z" fill="#ba9364"/><path d="M122.08 167.43a1 1 0 0 0-1.05-1.35c-1.76.17-3.76 0-5.07 1.38a.88.88 0 0 0-.47-.25c-.23 0-.47-.06-.71-.1a.94.94 0 0 0-1-.74c-1.65.11-3.3.14-4.95.16a32.87 32.87 0 0 0-7.21.12 1 1 0 0 0-.56-.32 34.55 34.55 0 0 0-6-.66.94.94 0 0 0-1 1.1 19.27 19.27 0 0 0-2.3-.07.84.84 0 0 0-.38.12l-.34-.05a.84.84 0 0 0-1 .51.93.93 0 0 0-.4-.64 1.06 1.06 0 0 0-1.15-.93c-2.53.21-5.07.39-7.6.57a22 22 0 0 0-4.44.33l-2.21.18a1 1 0 0 0-.55.22h-.41a1 1 0 0 0-.62.27 21.3 21.3 0 0 0-8.06-.64 24.85 24.85 0 0 0-6.47.2 1 1 0 0 0-.59.39.73.73 0 0 0-.52-.23c-3.86-.07-7.61-.52-11.47-.2a.94.94 0 0 0-.15 0c-1.72-.08-3.44-.14-5.16-.1a.83.83 0 0 0-.69 1.07.89.89 0 0 0-.64.54.81.81 0 0 0 .36 1.19.76.76 0 0 0 .54.43l.48.11c1.1.25 2.18.42 3.31.57a.73.73 0 0 0 .46-.08.87.87 0 0 0 .77.31c2.45-.21 4.91-.37 7.36-.6h.08a.92.92 0 0 0 .79.3l1.57-.11a.84.84 0 0 0 .57 1 14.63 14.63 0 0 0 4.22.44 1.12 1.12 0 0 0 .19.06 31.5 31.5 0 0 0 4.35-.36.82.82 0 0 0 .69-.41 26.09 26.09 0 0 0 7.07-.07h1.09a1 1 0 0 0 .77.26c4-.35 8.21-.19 12.11-.86a1 1 0 0 0 .35-.12h1a1 1 0 0 0 .6.16h.81a52.33 52.33 0 0 0 6.49.11 1 1 0 0 0 1 .76c2-.14 3.91.1 5.86 0a.87.87 0 0 0 .57.23 139.61 139.61 0 0 0 18.68-.85 1 1 0 0 0 .87-1.15 13.85 13.85 0 0 0 .06-2.25z" fill="#ba9364"/><path d="M30.59 130.53c-.34-1.31-.38-2.63-.66-3.95s-.9-2.46-1.17-3.76-.74-2.76-1.1-4.18c-.25-1-.53-2-.68-3a3.13 3.13 0 0 0-.46-1 .61.61 0 0 0-.63-.35l-.64-.16a.23.23 0 0 0-.26.07c-.18.26-.17.23-.08.55 0 .08.16.13.19 0l.13.18a.71.71 0 0 0 .22.37c.44 2.53 1.66 5.1 2 7.69.25 1.93 1.27 3.61 1.45 5.58.06.65.71 2.92-.7 2.9-.8 0-1.18-.47-2-.32a.56.56 0 0 0-.13 1.07c1.12.5 2.87 1.07 3.88 0a2 2 0 0 0 .64-1.69z" fill="#763919"/><path d="M50.47 122.21c-.34-1.36-.57-2.74-.91-4.1a17.52 17.52 0 0 1-.3-2c0-.26-.53-1.06-.46-1.2a.21.21 0 0 0 0-.22l-.07-.09a.39.39 0 0 0-.69.19 8 8 0 0 0 .19 2.1 25.81 25.81 0 0 0 .61 3.47 35.05 35.05 0 0 0 1.61 6.21 10 10 0 0 1 .62 3.61c0 1.72-1.45 1.21-2.57.9a7.76 7.76 0 0 0-4 0 4.3 4.3 0 0 0-.14-1.37c-.69-2.66-1.13-5.39-2-8a28.67 28.67 0 0 0-1.05-3.48c-.18-.39-1.37-2.79-1.2-3a.17.17 0 0 0 0-.23l-.23-.18a.44.44 0 0 0-.69.4 11.54 11.54 0 0 0 1.39 4.06 40.45 40.45 0 0 1 1.58 6c.44 1.7.74 3.43 1.17 5.13.71 2.76-5.5.53-6.4.37a.35.35 0 0 0-.22 0 6.3 6.3 0 0 0-.23-3.59c-.82-3-1.58-6-2.49-9a5.84 5.84 0 0 0-5.55-3.93c-.7 0-.57.85-.11.9 2.5.41 4.11 1.53 4.85 4 .54 1.82 1 3.68 1.51 5.52.42 1.55 1.17 3.31 1.15 4.94 0 2.08-3.5 1.92-4.89 1.88-.41 0-.77.55-.34.83a5 5 0 0 0 5-.19 2.86 2.86 0 0 0 1-1 .35.35 0 0 0 .13.22c1.86 1.41 6.18 2.6 7.47.77a6.94 6.94 0 0 0 2.45 0c1.18-.13 2.23.52 3.38.49 1.78 0 2.34-1.16 2.33-2.8-.1-2.54-1.27-5.09-1.9-7.61z" fill="#763919"/><path d="M60.32 130a55.48 55.48 0 0 0-.82-6.55c-.51-2.86-.59-5.85-.85-8.74a.65.65 0 0 0-.66-.54 2.84 2.84 0 0 0-.49-1.8c-.3-.31-1-.26-1 .28a16 16 0 0 0 .09 2.1.4.4 0 0 0-.41.55 9.75 9.75 0 0 1 .31 2.11c.17.94.27 1.88.45 2.82.44 2.17.73 4.33 1.29 6.49.23.87.47 1.73.68 2.6 0 .18 0 .36.07.54a1.31 1.31 0 0 1-.58 1.53 8.55 8.55 0 0 0-4.47-.75.67.67 0 0 0-.31 1.18 8.38 8.38 0 0 0 4.83 1.18 2.32 2.32 0 0 0 1-.21 1.33 1.33 0 0 0 .35-.09c.98-.42.77-1.7.52-2.7z" fill="#763919"/><path d="M68.24 115.65a.52.52 0 0 0-.57-.44 1 1 0 0 0-.73.51c-.07-.67-.14-1.33-.24-2v-.09a.4.4 0 0 0-.06-.41.65.65 0 0 0-.59-.22.5.5 0 0 0-.42.56c.05 2.14.28 4.29.47 6.43a27.68 27.68 0 0 0 .74 5.36c.26.84.1 1.76.37 2.58a5.65 5.65 0 0 1 .31 1.59c.12 1.18.65 1.87-.51 2-1.63.18-3.36.08-5 .23a.58.58 0 0 0-.14 1.11 9.56 9.56 0 0 0 5.22.34c.81-.14 2.18-1 2.14-2-.1-2.49-.62-5-.5-7.46.07-1.44-.18-3-.19-4.4a23.29 23.29 0 0 0-.3-3.69z" fill="#763919"/><path d="M84.59 131.27a12.06 12.06 0 0 1-2.75 0 6.32 6.32 0 0 1-2.43-.8 15.23 15.23 0 0 1-.27-1.81c-.26-2-.59-3.95-.82-5.92-.21-1.8-.79-4.68-.16-6.37.31-.84 1.18-1.35.55-2.23a.35.35 0 0 0-.59.08c-.36.75-.9 1.37-1.2 2.16a3.43 3.43 0 0 0-.18 1.22 24.31 24.31 0 0 0-.5-3.86c-.08-.42-.78-.47-.8 0-.19 4.15.43 8.47.71 12.61a13.75 13.75 0 0 1-.12 3c-.15 1 .17 2.27-1.28 2.26a16.14 16.14 0 0 0-1.93-.3c-.53.06-1 .26-1.55.31-.82.07-.63 1.33.18 1.26a12.35 12.35 0 0 1 1.78-.29 7.25 7.25 0 0 0 2.41.14c1.74-.33 1.29-2 1.56-3.22.54-2.39-.16-5-.27-7.41-.05-1.16-.08-2.32-.13-3.48 0 .19 0 .39.06.56.26 2.53.61 5 .87 7.54.19 1.85 0 4.58 1.56 6 1.76 1.57 3.75.64 5.67-.2.64-.28.36-1.43-.37-1.25z" fill="#763919"/><path d="M93.62 131.24c-.85 0-2.19.22-3.43.28-.64-.17-1.27-.51-1.87-.68a.49.49 0 0 0-.55.24 1.72 1.72 0 0 1-.21-.18c-.59-.61-.53-2.11-.6-2.9a31.25 31.25 0 0 1-.13-4.13c.08-1.75.23-3.51.14-5.26a20.11 20.11 0 0 1-.08-2.71c.11-1.36 1.12-1.7 2-2.4a.28.28 0 0 0-.07-.47c-1.51-.62-2.89.79-3.15 2.26a12.1 12.1 0 0 0-.05 3 43.57 43.57 0 0 1-.11 5.38 31.61 31.61 0 0 0 .13 4.48 7.09 7.09 0 0 0 .61 3.11c.81 1.32 2.18 1.55 3.63 1.5a12.38 12.38 0 0 0 3.72-.16.7.7 0 0 0 .02-1.36z" fill="#763919"/><path d="M103.88 131.67c-1.63.31-3.33-.41-5-.29s-2.85-.2-3.32-2a33.45 33.45 0 0 1-.65-3.34 36.42 36.42 0 0 1 0-6.94c.05-.92 0-1.85.09-2.77 0-.42 0-2.23.3-2.49a.14.14 0 0 0 0-.24l-.15-.08a.24.24 0 0 0-.3.08c-1.23 1.56-.89 4.21-1 6.07a31.56 31.56 0 0 0 .27 8.62c.39 1.91.68 3.84 2.83 4.47a17.65 17.65 0 0 0 3.43.15 12.89 12.89 0 0 0 3.7.24c.92-.21.73-1.66-.2-1.48z" fill="#763919"/><path d="M113.82 130.63a8.59 8.59 0 0 1-3.64 0A12.3 12.3 0 0 0 108 130c-.48-.06-.8.61-.37.89.24.16.48.29.71.42a2.1 2.1 0 0 1-1.63-.93c-.47-.79-.25-2.25-.33-3.12a25.07 25.07 0 0 1 0-3.88c.12-2.16.3-4.3.58-6.43.22-1.7.8-3.53.31-5.2-.16-.28-.62-.46-.74.07a69.57 69.57 0 0 0-1.09 7.76c-.15 1.44-.23 2.9-.32 4.34-.1 1.6.09 3.07.1 4.66 0 4.77 4 4 7.46 3.57.43 0 .87-.08 1.37-.15a.71.71 0 0 0-.23-1.37z" fill="#763919"/><path d="M122.86 130.88a9.1 9.1 0 0 0-4.92-.43 8 8 0 0 1-1 .21c-1.39.27-1.17-.82-1.2-1.5 0-1.29-.14-2.52-.07-3.82.13-2.29.15-4.58.28-6.88.07-1.18.09-2.35.15-3.52 0-.24.15-2.7-.05-2.6a.28.28 0 0 0-.07-.52h-.19a.34.34 0 0 0-.37.29c-.41 2.78-.63 5.57-.81 8.38a52.17 52.17 0 0 0-.29 7.56c.13 1.53-.21 3.42 1.58 4a4.31 4.31 0 0 0 2.22-.16 5.15 5.15 0 0 1 1.15-.14.34.34 0 0 0 .05.39 3 3 0 0 0 3.7.06c.35-.41.43-1.2-.16-1.32z" fill="#763919"/><path d="M129.8 129.18a7.2 7.2 0 0 0-2.06.34c-.36.11-.7.22-1 .31l-.73.09c-.46 0-.78-.4-.89-1.43-.24-2.18.55-4.34.48-6.48a30.75 30.75 0 0 1 .72-5.83c.23-1.44.2-3.25 1.5-4a.14.14 0 0 0 0-.23l-.1-.11a.39.39 0 0 0-.33-.33c-1.59-.34-2.12 2.41-2.27 3.56-.36 2.76-.72 5.56-1.13 8.32-.27 1.81-1 5.75.22 7.36.75 1 1.81.88 2.91.59a7.75 7.75 0 0 0 3.1-.69.76.76 0 0 0-.42-1.47z" fill="#763919"/><path d="M52.32 145.67a3.7 3.7 0 0 0-.88-.54.57.57 0 0 0-.5-.63c-1.18-.23-2.39-.42-3.62-.59.71 0 1.42-.07 2.13-.06s.93-1.12.15-1.18h-.15a.89.89 0 0 0 0-.12h.42a.55.55 0 0 0 .44-.27c.42-.13.28-.76-.11-.81a.68.68 0 0 0-.19-.14 6.64 6.64 0 0 0-3.11-.38c-1.37.13-3.09 0-4.39.55h-1.26c-.42 0-.59.73-.27 1a2.07 2.07 0 0 0 1 .45 21.93 21.93 0 0 0-4.3.41.67.67 0 0 0-.44.41h-.31a.6.6 0 0 0 0 1.18c2.22.24 4.45.21 6.67.46h-.15c-1.42 0-2.83.24-4.25.3a2.38 2.38 0 0 0-1.79.65c-.38.4.18.86.58.75a13.81 13.81 0 0 1 1.42-.16.23.23 0 0 0 .15-.1h1.19a36.22 36.22 0 0 1 4.78-.13c2 .11 4.46.56 6.46.16a.65.65 0 0 0 .33-1.21z" fill="#763919"/><path d="M93.44 140.75a4.63 4.63 0 0 0-2.15-.27 38.11 38.11 0 0 1-4.51.08c-1.79 0-4.84-.44-6.34.64a.62.62 0 0 0 .15 1.05 5.09 5.09 0 0 0 .51.17c-1.51.16-3 .35-4.52.57a.65.65 0 0 0-.21 1.2.57.57 0 0 0 .46 1c2.44-.16 4.9-.19 7.34-.37a18.08 18.08 0 0 1 4.6-.11 5.56 5.56 0 0 0 2.37-.09c.47-.13.86-.83.3-1.16a3.68 3.68 0 0 0-.7-.33h2c.66 0 .64-.6.39-1h.11a.7.7 0 0 0 .2-1.38z" fill="#763919"/><path d="M34.82 68.48a47.78 47.78 0 0 0-.74-5.28 21.06 21.06 0 0 1-.2-4.61A1.59 1.59 0 0 1 35.42 57a43.55 43.55 0 0 1 8.42-.21h.82c1 0 1.49-.41 1.85-1.45q2.81-8 5.1-16.1c.64-2.27 1.18-4.57 1.63-6.9a25.62 25.62 0 0 1 1.69-4.88c.8-1.93 1.68-3.82 2.29-5.82a24.36 24.36 0 0 1 3.15-6.34A7.76 7.76 0 0 0 62 10.51a1.54 1.54 0 0 1 1.25-1.58c1.29-.44 2.59-.87 3.87-1.33a.79.79 0 0 0 .51-1.09c-.14-.52-.38-1-.49-1.55a2.28 2.28 0 0 1 1.64-3A9.8 9.8 0 0 0 71.39.5c.66-.46 1.26-.74 2-.24a4.5 4.5 0 0 0 2.38.47c4.9.36 9.79.78 14.7 1 3 .14 6 0 9 0 1.55 0 3.09.07 4.63.15a1.54 1.54 0 0 1 1.16.65c.89 1.14.4 4-.95 4.62a10.6 10.6 0 0 1-2.86.83c-2.43.34-4.85.76-7.27 1.18A15 15 0 0 0 92 9.7a20.45 20.45 0 0 1-7 1 1.42 1.42 0 0 0-1.09.18c.1.32.22.66.3 1 .19.85 0 1.27-.61 1.59s-1.31.59-2 .87c.26.68.89.56 1.35.78a4.27 4.27 0 0 1 2.38 2.48 19.85 19.85 0 0 1 1 2.82 22.77 22.77 0 0 0 2 5.33c1.71 3.62 3.41 7.24 5.32 10.76a71.3 71.3 0 0 1 3 7c1 2.52 2 5.08 3 7.6a2.14 2.14 0 0 0 1.73 1.46 22.68 22.68 0 0 0 3.88 1c.58 0 .94.53 1.17 1 1 2.15 1.94 4.3 2.88 6.46a4.43 4.43 0 0 1 .56 1.8c-.06 1.24.45 1.66 1.62 2 3.2 1 6.41 1.93 9.64 2.83a17.39 17.39 0 0 1 5.52 2.9 2.49 2.49 0 0 0 2.52.32c.84-.28 1.58-1.19 2.5-.82a8.08 8.08 0 0 1 1.88 1.53 1.81 1.81 0 0 0 2 .14l6.72-3a51.25 51.25 0 0 0 5-2.66c.94-.55 1.93-1 2.91-1.48a.9.9 0 0 1 .75.07.69.69 0 0 1 .14 1c-.9 1.23-1.24 2.77-2.34 3.9a4.3 4.3 0 0 0-1.27 2.66 4.36 4.36 0 0 1-1.07 2.45 11.21 11.21 0 0 0-2.31 4.25 1.48 1.48 0 0 1-1.44 1.08 2.37 2.37 0 0 1-.54-.05 26.05 26.05 0 0 0-8.15-.21 24.23 24.23 0 0 1-4.9.14 12.66 12.66 0 0 0-3 .29.64.64 0 0 0-.36.88 6.17 6.17 0 0 0 .64.87 14.89 14.89 0 0 0 2 1.9 3.79 3.79 0 0 1 1.42 2.25c.15.52.28 1.06.46 1.57a4.56 4.56 0 0 0 3.44 3.17 25.06 25.06 0 0 0 3.23.49 9.4 9.4 0 0 1 5.71 2.94 5.78 5.78 0 0 1 1.77 3.31 16.25 16.25 0 0 1-.15 7.56 1.47 1.47 0 0 0 0 1.3 2 2 0 0 1 .27.76c.36 3.14-.75 4.15-3.48 4.26-1.52.08-3.08 0-4.62.07-1.09 0-1 .05-1.29 1.37-.89 3.71-1.3 7.52-2.11 11.25a50.24 50.24 0 0 0-1.53 8.56 8.13 8.13 0 0 1-.33 1.6c-.85 3.43-1.68 6.87-2.21 10.38a5.69 5.69 0 0 1-.24 1.06c-1.42 4.06-2 8.29-2.88 12.47-.33 1.61-.67 3.2-1.09 4.78a9 9 0 0 1-.94 2.26 4.77 4.77 0 0 0-1 3.79v.28a2.82 2.82 0 0 1-2.79 3.31c-1.54.09-3.08.33-4.62.33q-4.09 0-8.18-.2c-3.62-.17-7.24-.46-10.86-.65a71.5 71.5 0 0 0-4.63-.07c-3.73.05-7.46.15-11.19.21l-9.26.15a19 19 0 0 0-1.91 0 76.22 76.22 0 0 1-11.72.09c-2.54-.08-5.07-.43-7.6-.66a29.94 29.94 0 0 0-7.08-.12 23.7 23.7 0 0 1-3.52-.25 1.58 1.58 0 0 1-1.57-1.28 17.69 17.69 0 0 1-1.08-4.16 7.74 7.74 0 0 0-.61-2.63c-.89-2.29-1.76-4.58-2.55-6.91-.43-1.27-.62-2.63-1.06-3.9a43.58 43.58 0 0 0-1.82-4.56c-1.51-3.22-2.35-6.67-3.59-10-1.47-3.91-3-7.82-4.42-11.73-.6-1.61-1.1-3.28-1.72-4.88-.79-2-1.69-4-2.52-6a1.37 1.37 0 0 0-1.21-.94c-.45 0-.91 0-1.36-.06-2.59-.33-3-2.57-2.32-4.25 0-.08.07-.21.13-.24 1.21-.55.94-1.59.81-2.55-.1-.71-.27-1.42-.42-2.13a4.28 4.28 0 0 0-.2-.51c-1.85-5.21 1.88-9.33 5.52-10.62 1.63-.56 3.21-1.25 4.84-1.81a2.32 2.32 0 0 0 1.7-1.59c.11-.35.3-.67.38-1a6.38 6.38 0 0 1 2.52-4.07.51.51 0 0 0 .09-.47.55.55 0 0 0-.37-.31c-.91 0-1.82 0-2.73.06a50.65 50.65 0 0 1-6.27.19 13 13 0 0 0-3.25.37 3.31 3.31 0 0 1-3.41-1.08 24.08 24.08 0 0 0-5.42-4.55 12.14 12.14 0 0 1-2.11-1.72C3.69 76.42 2 74.72.4 73a2.27 2.27 0 0 1-.4-.67c-.11-.26.27-.8.54-.84a3.37 3.37 0 0 1 1.56.34c2.84 1 5.66 2 8.55 2.79s5.66 1.31 8.52 1.81a5.23 5.23 0 0 0 4.61-1.07 24.61 24.61 0 0 1 3-1.93c.92-.58 1.91-1.08 2.76-1.74a31.06 31.06 0 0 1 5.28-3.21zm74.32 39.38v-.09c4.18-.2 8.37-.33 12.54-.63 6.18-.43 12.35-1 18.52-1.47.36 0 .73-.06 1.09-.13a2.14 2.14 0 0 0 1.95-2c0-.26 0-.54.06-.82.16-1.62-.24-3.24-.06-4.89a3.51 3.51 0 0 0-1.2-2.67 9 9 0 0 0-5.43-2.9l-3-.39a4.78 4.78 0 0 1-3.41-2 8.29 8.29 0 0 1-1.58-2.84 5.8 5.8 0 0 0-2.21-3.31 16.53 16.53 0 0 1-1.53-1.55 5.81 5.81 0 0 0-4.13-1.75 31.21 31.21 0 0 0-6.81.1 23.71 23.71 0 0 1-2.73.12l-6.82.17c-1 0-2 .12-3 .12-3.18 0-6.36-.11-9.55-.08-7.55.09-15.1.25-22.66.36-4.28.07-8.54.48-12.8.89-4.62.45-9.19 1.35-13.83 1.66-2.63.17-5.26.48-7.88.75-3.7.36-6.3 2.12-7.34 5.84a12.37 12.37 0 0 1-.52 1.55 2.34 2.34 0 0 1-1.8 1.5c-.89.17-1.77.41-2.65.63a11.46 11.46 0 0 0-6.16 3.79 5 5 0 0 0-1.43 3.18 31 31 0 0 0 .89 7.57 2 2 0 0 0 1.48 1.47 7.15 7.15 0 0 0 1.34.23 52.78 52.78 0 0 0 5.44.23 121.43 121.43 0 0 0 12.27-.23 29.37 29.37 0 0 1 3.27 0 64.56 64.56 0 0 0 6.54.23c2.45-.12 4.91 0 7.37 0a86.77 86.77 0 0 0 10.36-.29c3.6-.49 7.26-.5 10.85-1.14a1.8 1.8 0 0 1 .81 0c2.06.68 4.14.22 6.2.14 6.64-.26 13.25-1 19.9-1.06 2.56-.02 5.11-.15 7.65-.29zm9.23 45.33a40.93 40.93 0 0 1 6.11-.47 1 1 0 0 0 1-.72c1.06-3.85 2.18-7.69 2.9-11.62.23-1.26.44-2.51.64-3.76.09-.58-.16-.8-.77-.78l-1.36.07c-6 .47-12 .92-18 .91-5.55 0-11.1.24-16.64.48-4.45.19-8.91 0-13.35.47-2.07.21-4.17.07-6.26.08a4.33 4.33 0 0 1-1.08-.1 7.49 7.49 0 0 0-2.44 0 89.47 89.47 0 0 1-11.72 0c-1.18-.05-2.35-.27-3.53-.31-4.18-.14-8.36-.19-12.53-.37a95.93 95.93 0 0 0-11.43.11 7 7 0 0 0-1.08.15.48.48 0 0 0-.42.57 10.89 10.89 0 0 0 .48 1.55 15.09 15.09 0 0 1 .86 2 101.66 101.66 0 0 0 3.67 10 2.62 2.62 0 0 0 .36.74 1.08 1.08 0 0 0 .61.43c1.63.09 3.26.21 4.89.16 3.26-.11 6.53.39 9.79 0 6.8.45 13.6.56 20.41.47l7.86-.08c3.36 0 6.72.18 10.08 0a9.69 9.69 0 0 1 1.09 0c1.8.12 3.6.2 5.42.18 2.81 0 5.62-.14 8.44 0 4.54.16 9.09 0 13.64 0zM81.74 12.24c.15-.57-.18-.93-.36-1.33a3.88 3.88 0 0 1-.16-2.42 1.14 1.14 0 0 1 1.68-.8 11.67 11.67 0 0 1 1.16.72 4.65 4.65 0 0 0 3.63.79 22.6 22.6 0 0 0 2.39-.47 21.87 21.87 0 0 1 5.28-1.25c2.29-.05 4.45-.9 6.72-1.17a3.6 3.6 0 0 0 1.45-.7 1.57 1.57 0 0 0 .25-1.78 1 1 0 0 0-1.07-.69c-2.54.14-5.09-.38-7.63 0a6.41 6.41 0 0 1-1.36.05L85 2.71c-3-.17-5.95-.79-9-.74-2.38-.87-4.39.11-6.39 1.24A1.38 1.38 0 0 0 68.88 5c.15.52.4 1 .51 1.54.35 1.59 0 2.2-1.57 2.58-.89.21-1.79.34-2.67.56a1.75 1.75 0 0 0-1.5 1.68 7.45 7.45 0 0 1-1.68 4A24.37 24.37 0 0 0 58.4 22a53.05 53.05 0 0 1-2.08 5 29.12 29.12 0 0 0-2 5.94c-.49 2.12-1.06 4.23-1.53 6.36a5.67 5.67 0 0 0-.37 2.46c.54 0 1.08 0 1.61-.07a32.68 32.68 0 0 1 7.35 0 18.76 18.76 0 0 0 3.52.22 4.07 4.07 0 0 1 1.33.21c.2.06.33.33.49.5-.16.08-.33.22-.48.21-2.62-.26-5.25-.29-7.88-.4a48.83 48.83 0 0 0-5.44.1 1.53 1.53 0 0 0-1.54 1.23c-.89 2.86-1.82 5.7-2.7 8.57-.12.39-.35.83-.08 1.28a2.8 2.8 0 0 0 2.1-.2c0-1.36 1.08-.87 1.78-1s1.45-.09 2.18-.17a55.54 55.54 0 0 1 10.08.22 17.42 17.42 0 0 0 2.42.28c3.8-.28 7.63-.1 11.42-.62 1-.12 1.35.18 1.52 1.11.09.44.11.9.21 1.34a.8.8 0 0 0 .79.63 16.66 16.66 0 0 0 4.33-.4c2.58-.6 5.2-.91 7.81-1.31 1.86-.28 3.71-.66 5.61-1a7.33 7.33 0 0 0-.24-.92c-1.16-2.77-2.41-5.49-3.48-8.3a44.56 44.56 0 0 0-2.91-6.44C90.58 34 89 31 87.64 28a45.26 45.26 0 0 1-2.87-7.34 16.29 16.29 0 0 0-1.5-3.2 1.86 1.86 0 0 0-1.24-1c-.79-.21-1.58-.41-2.36-.67a1.14 1.14 0 0 1-.61-1.57 2.15 2.15 0 0 1 1-1.23c.57-.29 1.16-.52 1.68-.75zM3.23 73.91a30.2 30.2 0 0 0 4.53 4.42c1.72 1.35 3.44 2.67 5.14 4.06 2.63 2.1 2 2 5.14 1.57a9.65 9.65 0 0 1 1.37 0c1.64 0 3.28.1 4.91 0a237.48 237.48 0 0 0 23.94-1.86c4.5-.66 9-1 13.57-1.45 3-.27 6-.44 9-.55 2.63-.09 5.27 0 7.9 0 2 0 4-.18 6 0a31.32 31.32 0 0 0 4.08 0 29.79 29.79 0 0 1 4.08-.18 30.52 30.52 0 0 0 4.63 0 15 15 0 0 1 1.91-.05 57.14 57.14 0 0 0 10.61 0 10.08 10.08 0 0 1 1.64-.08 83.3 83.3 0 0 0 10.32-.48c4.71-.33 9.42-.48 14.13-.77a23 23 0 0 1 4.35 0 12.28 12.28 0 0 0 1.9 0 1.05 1.05 0 0 0 .85-.59.71.71 0 0 0 .12-.48.53.53 0 0 0-.35-.34 6.22 6.22 0 0 0-1.35 0c-2.45.19-4.9.41-7.35.61a42.49 42.49 0 0 1-6.81.17c-2.36-.18-4.72-.36-7.08-.48-2.09-.1-4.19-.24-6.27-.15-5.82.24-11.63.6-17.45.88-4.45.21-8.91.41-13.36.52-3.72.09-7.46-.07-11.18.07-3.55.13-7.09.09-10.64 0a74.61 74.61 0 0 0-9.81.14c-5.43.56-10.89.65-16.31 1.39-3.6.49-7.24.71-10.82 1.43-2.85.58-5.8.49-8.63 1.28a.34.34 0 0 1-.26 0 1.06 1.06 0 0 1-.32-.35.28.28 0 0 1 .21-.42c.88-.21 1.76-.41 2.65-.58 4.38-.84 8.75-1.68 13.2-2.11 1.63-.16 3.27-.29 4.87-.6a27.06 27.06 0 0 1 5.71-.7c3.47.07 6.9-.31 10.35-.52a45.45 45.45 0 0 1 5.45-.16c3.08.18 6.17.39 9.24.28s6.36-.11 9.54-.19c1.37 0 2.73-.13 4.09-.11 5.37.12 10.74-.14 16.1-.41 5.09-.25 10.17-.63 15.27-.87a67 67 0 0 1 7.09-.05c3.45.19 6.89.39 10.35.43 4.84.06 9.62-.64 14.44-.87a1.48 1.48 0 0 0 1.38-1.12 41.08 41.08 0 0 1 3.12-6.05 15.57 15.57 0 0 0 .74-1.45.51.51 0 0 0-.1-.46.55.55 0 0 0-.49-.08c-1.53.76-3 1.58-4.6 2.3s-2.59 2-4.18 2.52a36.79 36.79 0 0 0-5 2.13c-1 .49-1.28.46-2-.58a2.21 2.21 0 0 0-2.34-1 4.86 4.86 0 0 0-2 .8c-1.12.71-1.34.66-2.18-.5a4.24 4.24 0 0 0-1.36-1.3 17 17 0 0 0-2.17-1.15c-3.14-1.19-6.25-2.5-9.48-3.42-2.3-.65-4.69-1.38-7.18-.21a10.71 10.71 0 0 1-3.75.6c-2.27.17-4.54.3-6.82.3-3.82 0-7.64.18-11.45.39a3.15 3.15 0 0 0-2.25.81 2.78 2.78 0 0 1-1.69.81 38.19 38.19 0 0 1-8.95.64 18.43 18.43 0 0 0-3 .18c-.81.07-1.62.22-2.44.25a1.65 1.65 0 0 1-1.64-.77c-.14-.23-.3-.45-.46-.68a1.57 1.57 0 0 0-1.3-.72 65.81 65.81 0 0 0-7.59.18 82.53 82.53 0 0 1-8.72.49c-2.56 0-5.09.27-7.63.33a6.45 6.45 0 0 0-2.29.79c-.24.09-.32.14-.21.32.75 1.26-.53 1.56-1.07 2.11-1.4 1.42-2.9 2.76-4.36 4.12a1.72 1.72 0 0 1-.47.27.27.27 0 0 1-.22-.09.23.23 0 0 1 0-.21 8.82 8.82 0 0 1 .88-1.31c1.27-1.3 2.6-2.54 3.88-3.84.15-.15.16-.44.24-.68a2 2 0 0 0-.53-.07 7.84 7.84 0 0 0-3.39 1.65c-1.37.89-2.66 1.91-4 2.77a12.9 12.9 0 0 0-2.42 1.76 4.24 4.24 0 0 1-3 1.2 10.24 10.24 0 0 1-3-.24c-1.84-.48-3.7-.93-5.57-1.24A24.91 24.91 0 0 1 8.15 75a13.15 13.15 0 0 0-4.92-1.09zm40.34 83.32v.11h-1.91c-1.64 0-3.27.07-4.91.13a.78.78 0 0 0-.78 1.11c.63 1.9 1.28 3.78 1.93 5.67a2 2 0 0 0 1.54 1.39 19.61 19.61 0 0 0 5.41.48 47.61 47.61 0 0 1 6-.23c2.36.08 4.7.28 7.07.28 3.89 0 7.78.14 11.67 0a15.21 15.21 0 0 1 2.72-.17 38 38 0 0 0 6.74.19c3.18-.14 6.36-.1 9.54-.16.73 0 1.45-.12 2.18-.17 2.8-.2 5.6-.63 8.42-.18a8.48 8.48 0 0 0 2.45 0 69.83 69.83 0 0 1 10.34-.31 42.56 42.56 0 0 0 9.24-.48 2.25 2.25 0 0 0 1.8-1.46 25.26 25.26 0 0 0 1.37-5c.08-.5-.23-.84-.8-.81-2.18.13-4.35.1-6.53 0-4-.11-8 0-12 0-3 0-6 .17-9 .23H91.7c-3.54-.13-7.09-.23-10.63-.47-2.18-.14-4.36-.1-6.53-.18s-4.17 0-6.26 0c-2.73 0-5.44.21-8.17.35a5.41 5.41 0 0 1-1.35-.15 16.51 16.51 0 0 0-5.42-.29 18.92 18.92 0 0 1-1.91 0zM120 131.52c.63-.06 1.27-.09 1.9-.17a.79.79 0 0 0 .72-.69c.1-.54.22-1.07.27-1.61.24-2.26.45-4.53.69-6.78.33-3.07.7-6.13 1-9.21.13-1.37-.22-1.51-1.3-1.47-3.54.12-7.09-.11-10.63.21a5.87 5.87 0 0 1-1.9 0 10.56 10.56 0 0 0-3 0c-.82 0-1.13.42-1 1.2-1.08 1.82-.9 3.85-1 5.83-.08 2.63 0 5.27-.05 7.9 0 1.27 0 2.54.05 3.81a1.09 1.09 0 0 0 1.19 1.2q2.73 0 5.46-.11a1.08 1.08 0 0 0 1.08-1.29 27.3 27.3 0 0 1 .11-3.54c.2-3.54.29-7.08.44-10.62 0-1.08.07-2.17.17-3.25a.64.64 0 0 1 .79-.56.86.86 0 0 1 .8.64 3 3 0 0 1-.08 1.06 14.51 14.51 0 0 0-.57 2.37c-.15 3.62-.42 7.25-.55 10.86a8.16 8.16 0 0 0 .48 4 15.36 15.36 0 0 0 3.78.26 8.17 8.17 0 0 0 1.15-.04zm-2.9 39.93l2.18-.19a3.93 3.93 0 0 0 .81-.13 3.28 3.28 0 0 0 1-.4 9.54 9.54 0 0 0 1.56-3.4.65.65 0 0 0-.61-.73c-.72 0-1.44.14-2.17.17-4.64.19-9.26-.27-13.9-.22-3.82 0-7.63.23-11.45.25-4.45 0-8.9.49-13.36.52H68.89c-2 0-4 .07-6 .05a59.06 59.06 0 0 0-6 .05 17.74 17.74 0 0 1-2.45-.06 51.25 51.25 0 0 0-6.53-.4 45.29 45.29 0 0 1-8.71.22c-.4-.05-.63.27-.56.71v.27c.35 1.8.5 2 2.23 2.17 2.08.19 4.16.29 6.25.35a49 49 0 0 1 4.89.33 38.15 38.15 0 0 0 6.78.47c3.82-.21 7.64 0 11.46-.18a79.88 79.88 0 0 0 9.23-.38 8.55 8.55 0 0 1 1.36 0c4.54 0 9.08.08 13.62.08a74.42 74.42 0 0 1 9.26.43c4.51.57 8.96.09 13.41.02zm17.8-61.09v.12c1.46-.06 2.91-.09 4.36-.19a17.52 17.52 0 0 0 2.41-.38 1.7 1.7 0 0 0 1.38-1.78v-.54c0-.68-.17-1-1-1-3.54.21-7.09.27-10.6.8-.81.12-1.63.17-2.44.21l-12.79.76c-3.18.19-6.36.42-9.53.56-4.81.22-9.63.34-14.43.57-3.18.16-6.35.45-9.53.65-2.09.13-4.18.31-6.27.3a124.53 124.53 0 0 0-13.34.79 36 36 0 0 1-6.54.23c-2.08-.15-4.18-.14-6.25-.12-3.63 0-7.26.13-10.88-.14a64.32 64.32 0 0 0-10.08.3 13.11 13.11 0 0 1-3 .13c-2.44-.38-4.9 0-7.35-.21-1.34-.13-2.69-.24-4-.37a.63.63 0 0 0-.58.75 1.13 1.13 0 0 0 .52.9 4.89 4.89 0 0 0 2.35.63 56.2 56.2 0 0 0 5.72.13 48.57 48.57 0 0 1 6.26.18c1.72.13 3.45.14 5.17.24a29.4 29.4 0 0 0 6.26-.13 2.45 2.45 0 0 1 .81 0 21.4 21.4 0 0 0 6-.05c3.45-.21 6.9-.51 10.35-.65 4.34-.17 8.69-.16 13-.35 4.72-.2 9.45-.16 14.16-.65a7.33 7.33 0 0 1 1.64 0 26.93 26.93 0 0 0 5.71-.15c2.18-.17 4.35-.4 6.53-.57a64.51 64.51 0 0 1 7.08-.4q3.28.1 6.54 0c2.45 0 4.91-.12 7.37-.18 2.09-.06 4.18-.15 6.27-.17 1.27 0 2.54.16 3.81.11 1.68.02 3.31-.18 4.94-.33zm-5.13 21.52l-5.68.5c-2.9.26-5.8.5-8.72.49-4.27 0-8.55 0-12.82.07-3.46.07-6.9.34-10.36.45-2.18.07-4.37 0-6.55 0h-7.91c-4.18 0-8.36 0-12.54.19a35.68 35.68 0 0 1-6-.26 5.48 5.48 0 0 0-1.08-.14c-2.9.21-5.81-.14-8.73.17a75.6 75.6 0 0 1-8.45.46c-4.38 0-8.73.38-13.09.45-.08 0-.16.07-.24.09a.31.31 0 0 0-.23.43 2.82 2.82 0 0 0 .21.49.34.34 0 0 0 .22.13 34.23 34.23 0 0 0 8.95.57 18.52 18.52 0 0 1 5.44-.11 9 9 0 0 0 1.64 0c2.34 0 4.67.7 7 .23.25 0 .53.12.8.15a7.89 7.89 0 0 0 1.62.1 14.28 14.28 0 0 1 4.61.25 27.22 27.22 0 0 0 7.59.3 30.52 30.52 0 0 1 6-.08 36.48 36.48 0 0 0 6.78-.1 17.34 17.34 0 0 1 5.14 0 3.61 3.61 0 0 0 1.36 0c2.16-.35 4.37 0 6.53-.42a6.64 6.64 0 0 1 1.63.07 16.75 16.75 0 0 0 1.91.07c1.45-.09 2.9-.29 4.35-.36s2.85 0 4.3-.12c3.43-.37 6.89-.42 10.33-.59a9.34 9.34 0 0 1 2.45 0 9.55 9.55 0 0 0 4.33-.18 19.81 19.81 0 0 1 3.52-.38c1.72-.09 3.44-.28 5.16-.43a.58.58 0 0 0 .51-.55 3.66 3.66 0 0 0 .05-1.94zM81 62.28c.22 1.1.41 2.17.64 3.24a.78.78 0 0 0 .8.6h1.09q7.21-.28 14.43-.54a16.62 16.62 0 0 1 1.9.09 13.81 13.81 0 0 0 8.6-1.79.82.82 0 0 0 .44-.9 9.21 9.21 0 0 0-.31-1.6 33 33 0 0 0-3-6.07 1.65 1.65 0 0 0-1.64-.78 31.92 31.92 0 0 0-4.89.33c-1.24.24-2.51.38-3.78.51l-12.79 1.19a4.83 4.83 0 0 0-2.11.48.57.57 0 0 0-.3.66c0 .22.12.34.35.33h7.88c2.15 0 4.3-.19 6.55-.29-.74.63-1.51.19-2.2.35-3.11.72-6.31.72-9.46 1.08l-1.08.12c-.27 0-.53.12-.79.18s-.87.6-.74.7a1.32 1.32 0 0 0 .7.3c1.36 0 2.72 0 4.09-.07l6-.13c.35 0 .74 0 .87.59-1.88.16-3.74.29-5.6.5s-3.83 0-5.65.92zm-31.46 3.4a15.34 15.34 0 0 1 4.11-1.33c2.52-.38 5-.85 7.52-1.29.12 0 .3-.22.28-.31s-.17-.34-.29-.36a3.94 3.94 0 0 0-1.07-.09c-2 .16-4 .34-6 .51-1.18.1-2.35.21-3.53.3a3 3 0 0 1-.79-.12c-.08 0-.21-.14-.2-.15s.15-.38.26-.4q5-.64 10-1.26c.36 0 .71-.1 1.07-.17a.81.81 0 0 0 .23-.13c-.09-.13-.19-.37-.29-.36-1.09-.05-2.17-.1-3.26-.07-1.45 0-2.9.16-4.35.22-.24 0-.7-.16-.7-.25 0-.46.45-.35.73-.45a2 2 0 0 1 .54-.08c1.08-.12 2.17-.21 3.25-.37s2.33-.39 3.48-.63c.33-.06.74-.18.61-.69s-.56-.39-.88-.39c-1.27 0-2.54.07-3.82.11-3 .09-6 .15-9 .3a25.63 25.63 0 0 1-3.53 0 19 19 0 0 0-4.07 0 9.93 9.93 0 0 1-2.68.1c-1.36-.2-2 .45-1.92 1.91s.27 3.07.43 4.61c.28 2.76.69 2.52 3.3 2.95a13.19 13.19 0 0 0 2.72-.13 46.14 46.14 0 0 1 4.63-.19 25.94 25.94 0 0 0 6-.42 19.49 19.49 0 0 1 4.05-.34c1.9.06 3.8-.3 5.71 0 .08 0 .29-.25.29-.38 0-1.25-.59-1.92-1.7-1.82-2.53.25-5.07.4-7.58.89-1.09.16-2.19.16-3.58.28zm55.34 46.47l-7.83.29c-.36 0-.72.12-1.08.16a1.12 1.12 0 0 0-1.11 1 19.09 19.09 0 0 0-.54 5.13c.18 3.09.24 6.18.41 9.26.07 1.17.29 2.34.47 3.5a.84.84 0 0 0 .93.8c2.54-.14 5.08-.28 7.63-.44a.71.71 0 0 0 .69-.69 24.18 24.18 0 0 0 .34-2.43q.09-3 0-6a81.07 81.07 0 0 1 .22-8.44 13.4 13.4 0 0 0-.16-2.14zm15 44.5l4.41-.94c.08 0 .2-.07.22-.13a3.59 3.59 0 0 0 .36-1c0-.29-.3-.38-.57-.4a14.31 14.31 0 0 0-2.72 0 26 26 0 0 1-3.8.23c-6.44-.14-12.88.08-19.33-.06-3-.06-6-.1-9-.15l-11.12-.2a83 83 0 0 0-10.35.25 15.85 15.85 0 0 1-1.63 0c-4.45-.07-8.9-.13-13.35-.22a40.72 40.72 0 0 1-7.33-.48 4.78 4.78 0 0 0-1.09 0c-3.18.08-6.33.66-9.52.52-.24 0-.41.29-.41.6 0 .72.24 1 .85 1.15a36.05 36.05 0 0 0 5.14.27 91.72 91.72 0 0 0 12.77-.09 12 12 0 0 1 3.52 0 21.57 21.57 0 0 0 4.06.29c3.09 0 6.17-.15 9.26-.22a6.82 6.82 0 0 1 1.09 0 62.63 62.63 0 0 0 7.32.31l7.63.19c3 .06 6 .24 9 .13 3.81-.13 7.62 0 11.43-.13a19.76 19.76 0 0 1 3.27 0c3.34.49 6.69-.4 9.88.08zM77 124c-.33-3.74-.56-6.36-.79-9a4.09 4.09 0 0 0-.07-.54.9.9 0 0 0-.93-.82q-2.18.06-4.35.16c-2.05.1-2.38 0-2.41 2.6a16 16 0 0 0 .13 1.9c.27 2.44.5 4.88.84 7.31.25 1.8.59 3.59 1 5.35.28 1.25.7 1.54 1.91 1.41a11.74 11.74 0 0 1 4.06.05c.7.16 1-.16 1-.85-.03-2.86-.22-5.76-.39-7.57zm-16.74 4.34c0-.27 0-.55-.07-.81q-.77-5.67-1.55-11.35a5.8 5.8 0 0 0-.14-.81 1.71 1.71 0 0 0-1.61-1.22q-2.72.17-5.44.41a1 1 0 0 0-.88.91 8.24 8.24 0 0 0 .3 3.23c.63 3.21 1.27 6.42 1.91 9.63a6.23 6.23 0 0 0 .3 1.32c1.19 2.69.66 2.78 3.37 2.53a6 6 0 0 1 .81.13c3.92.25 3.32.45 3.12-2.9-.08-.3-.12-.67-.15-1.03zm26-4.78c.07 1.81.16 4 .25 6.15a8.51 8.51 0 0 0 .09 1.34c.19 1 .76 1.5 1.69 1.4a28.58 28.58 0 0 1 4.33-.07.8.8 0 0 0 .88-.82v-7.33q0-2.58-.09-5.16c-.05-1.81-.12-3.62-.21-5.43 0-.69-.37-1-1-1-1.36.05-2.72.13-4.07.26-1.51.13-1.92.49-2.17 1.88a12.85 12.85 0 0 0-.12 1.62 52.89 52.89 0 0 0 .36 7.21zm38.09 7.29a14.3 14.3 0 0 0 4.81-.53 1.51 1.51 0 0 0 1.4-1.36c.66-3.56 1.69-7 2-10.68a22.29 22.29 0 0 1 .73-3.18 7.84 7.84 0 0 0 .37-2.41c0-.8-.15-1-.87-1.08-1.27-.08-2.54-.16-3.81-.16-2.27 0-2.25 0-3 2.16a6.07 6.07 0 0 0-.36 1.58c-.47 4.78-.95 9.56-1.42 14.34a1.92 1.92 0 0 0 .08 1.37zm-55.77-4.27l-1.4-11.69a1.18 1.18 0 0 0 0-.26c-.14-.35-.38-.68-.77-.66-1.81.06-3.63.15-5.43.26a.94.94 0 0 0-.9.87 6.62 6.62 0 0 0-.11 1.62c.17 1.9.34 3.8.6 5.69.3 2.24.68 4.48 1.07 6.72.16.9.41 1.77.65 2.64a.93.93 0 0 0 1 .74c1.71 0 3.43-.07 5.14-.16a.85.85 0 0 0 .74-.71 3.27 3.27 0 0 0 0-1.07c-.3-1.48-.52-3.01-.65-3.95zM85 120.85c-.09-1.06-.15-1.6-.18-2.15-.07-1.27-.06-2.55-.21-3.81-.17-1.5-.59-1.6-1.71-1.52s-2.36.11-3.54.13a1.77 1.77 0 0 0-1.61 1.21 4.17 4.17 0 0 0-.24 2.4c.37 4.17.76 8.33 1.15 12.5 0 .45.09.91.18 1.35a1.71 1.71 0 0 0 1.85 1.63c1.18 0 2.35-.14 3.53-.24a1 1 0 0 0 .92-.86 8 8 0 0 0 .19-1.62c-.15-3.18-.04-6.37-.33-9.02zm-42.48-1.67l1.33 6.34c.24 1.16.48 2.31.74 3.47s1.16 2.07 1.23 3.29a9.23 9.23 0 0 0 3.48.26c.72-.07 1.45 0 2.18-.08s.92-.3.88-1a55.28 55.28 0 0 0-1.43-7.76c-.45-2.22-1-4.43-1.6-6.61-.76-2.69-.31-2.35-3-2.27h-.82c-3.68 0-3.51-.09-3.04 4.36zm-7.13-.59a63.84 63.84 0 0 0 2.13 10.35c.31 1.18.26 2.7 1.33 3.47.88.63 2.12.05 3.2.17a13.26 13.26 0 0 0 1.62 0 .59.59 0 0 0 .5-.78c-.21-.79-.48-1.56-.64-2.36-.78-3.81-1.52-7.63-2.3-11.44-.16-.79-.4-1.57-.62-2.36a.78.78 0 0 0-.79-.6c-.36 0-.73-.07-1.09-.05-3.96.22-3.82-.87-3.38 3.6zm-12.8-3.89c-.22 0-.95-.06-1.67-.09a.79.79 0 0 0-.82 1.06c.14.52.32 1 .51 1.55q2.75 7.38 5.52 14.74a1.07 1.07 0 0 0 1 .8c3.72.3 3.45.68 3.06-3.07 0-.35-.12-.71-.19-1.06-.87-4.44-2.16-8.78-3.22-13.17a1.08 1.08 0 0 0-1.2-.87c-.85 0-1.67.06-2.99.11zM79.5 61.91a27 27 0 0 0-1.09-6 2.56 2.56 0 0 0-1.8-1.82 3.46 3.46 0 0 0-2.4-.09 5.92 5.92 0 0 1-3.42.31 4.58 4.58 0 0 0-1.62.17c-1.15.23-2.3.51-3.45.75-.9.19-1.46.59-1.3 1.66a1.13 1.13 0 0 1-.7 1.09c-.82.37-.72 1.02-.72 1.81s.69 1.32.46 2.08c-.34 1.11.14 2.15.23 3.22a1.69 1.69 0 0 0 .75 1.37 1.91 1.91 0 0 1 .6.85c.33.83 1 1 1.75.94 2.27 0 4.54-.1 6.81 0a14.32 14.32 0 0 0 4.55-.67c2-.59 2.06-.65 1.75-2.88-.1-.7-.21-1.45-.4-2.79zm-44.68 71c2.35-.18 2.37-.18 2-2.6-.12-.71-.3-1.41-.45-2.12-.75-3.45-1.54-6.89-2.25-10.34-.52-2.55-.48-2.56-3-2.85-.72-.08-1.44-.19-2.16-.23s-.92.32-.86 1a8 8 0 0 0 .68 2.61 28.65 28.65 0 0 1 1.59 6.28c.4 2 .81 4.1 1.38 6.09.68 2.62.31 2.41 3.08 2.19zM50.21 54.4c-.79.1-1.24.13-1.68.23a1.14 1.14 0 0 0-.89.92.91.91 0 0 0 .13.72 1 1 0 0 0 .74.14c.63-.11.8-.92 1.55-1 1.53-.09 3-.53 4.59-.25a7.4 7.4 0 0 0 2.16 0 7.27 7.27 0 0 1 4.24.53c.08 0 .27-.13.4-.21-.08-.14-.13-.37-.24-.41-1.31-.44-2.7-.21-4-.43-2.46-.35-4.91.21-7-.24zm5.26-.91a61.39 61.39 0 0 1 7.46.56c.12 0 .27-.18.4-.28-.1-.13-.19-.36-.3-.36-.72-.06-1.46 0-2.16-.1a15.51 15.51 0 0 0-5.4.18z" fill-rule="evenodd"/><path d="M33.44 93.36c3 0 5.87.57 8 3.1a.5.5 0 0 1 0 .47.44.44 0 0 1-.44.07c-.37-.24-.71-.55-1.07-.83a8.35 8.35 0 0 0-7.69-1.4c-.87.22-1.27 1-1.76 1.61a.63.63 0 0 1-.94.05.77.77 0 0 1-.12-1 3.87 3.87 0 0 1 2.33-1.74 14.59 14.59 0 0 1 1.69-.33z" fill-rule="evenodd"/><path d="M67.2 106.36c-.29 0-.65-.09-1-.16a1.08 1.08 0 0 1-.84-1.43 5.87 5.87 0 0 1 3.64-3.34.62.62 0 0 1 .51.08 6.49 6.49 0 0 1 1.68 1.74 1.44 1.44 0 0 1-.28 1.51 7.56 7.56 0 0 1-3.71 1.6zm.29-1.36a3.37 3.37 0 0 0 2.41-1 .57.57 0 0 0 .09-.48.59.59 0 0 0-.33-.36 2.46 2.46 0 0 0-2.88 1.37c-.11.21 0 .36.19.41z" fill-rule="evenodd"/><path d="M22.51 105.34a15.26 15.26 0 0 1 .78-4.44c.21-.47.81-.63 1.07-.21a2.36 2.36 0 0 0 1 .9c.47.25 1 .48 1.15 1.09a3.13 3.13 0 0 1-.15 2.38 6 6 0 0 1-1.67 2.13 1.14 1.14 0 0 1-1.79-.44c-.2-.43-.27-.88-.39-1.41zm1-.83a7.1 7.1 0 0 0 .15.9c0 .16.15.37.28.41a.62.62 0 0 0 .49-.12 2.36 2.36 0 0 0 .86-2.59c-.08-.33-.68-.85-1-.78a.85.85 0 0 0-.67.72c-.02.52-.04 1.05-.08 1.46z" fill-rule="evenodd"/><path d="M47.76 106.27c-.48 0-.66.07-.84.07a2 2 0 0 1-1.11-3.69 6 6 0 0 1 2.49-1c.84-.09 1.23.16 1.55 1 .24.66.69 1.28.27 2a3.11 3.11 0 0 1-2.12 1.58c-.18.05-.36.06-.24.04zm.93-3.44a3.34 3.34 0 0 0-2.29.88.9.9 0 0 0-.27.71.81.81 0 0 0 .46.56 2.09 2.09 0 0 0 2.67-1.09.9.9 0 0 0 0-.75c-.13-.14-.45-.24-.57-.31z" fill-rule="evenodd"/><path d="M90.55 93.21h-.7a2 2 0 0 1-2-1.07 2.45 2.45 0 0 1 1.07-2.81 1.31 1.31 0 0 1 1.52 0 3.06 3.06 0 0 0 1.41.71 1.15 1.15 0 0 1 .93 1.16 1.48 1.48 0 0 1-.83 1.56 8.59 8.59 0 0 1-1.4.45zM90.13 92l.79-.16c.63-.14.76-.63.33-1.18a1.33 1.33 0 0 0-2.29.4.64.64 0 0 0 .39.84z" fill-rule="evenodd"/><path d="M44.1 88.8a2.66 2.66 0 0 1-.32.92 2.77 2.77 0 0 1-3.67.25 2.17 2.17 0 0 1 0-3.33.69.69 0 0 1 1 0 .57.57 0 0 1 .19.71c-.12.33-.34.63-.44 1a.89.89 0 0 0 .7 1 1.05 1.05 0 0 0 1.34-.55c0-.13-.09-.31-.13-.47s0-.56.33-.57a1 1 0 0 1 .68.3 3 3 0 0 1 .32.74z" fill-rule="evenodd"/><path d="M92.51 100.92a4.38 4.38 0 0 1 2.85-4.17 1 1 0 0 1 1 .06c.11.09.22.34.17.43-.2.45-.67.57-1.08.74a2.61 2.61 0 0 0-1.56 1.75 2.71 2.71 0 0 0-.18 1.84c.22.56.76.71 1.26.91.14.05.23.24.32.38a.33.33 0 0 1 0 .26c0 .08-.12.17-.19.18a2.39 2.39 0 0 1-2.59-2.38z" fill-rule="evenodd"/><path d="M122 95.78c-.08-.87.51-1.44 1.31-1.24a14.28 14.28 0 0 1 1.55.48 1.8 1.8 0 0 1 1.23 1.62 1.61 1.61 0 0 1-1 1.49 1.82 1.82 0 0 1-2-.22 2.69 2.69 0 0 1-1.09-2.13zm2.87.55c-.07-.28-.62-.64-.82-.47a1 1 0 0 0-.31.67c0 .33.49.59.8.46a.59.59 0 0 0 .35-.66z" fill-rule="evenodd"/><path d="M101.31 83.61c.36 0 .9.06 1.44.14.15 0 .28.2.4.31s-.19.58-.41.61c-.63.06-1.27.08-1.89.19a7.55 7.55 0 0 0-1.54.48c-.73.32-.95.84-.82 1.77 0 .17.17.34.15.51a.48.48 0 0 1-.29.35.61.61 0 0 1-.47-.15 1.74 1.74 0 0 1 .07-2.82 6.17 6.17 0 0 1 3.36-1.39z" fill-rule="evenodd"/><path d="M57.61 86.07a11.33 11.33 0 0 1 1.7.25 2.6 2.6 0 0 1 2 2.54.54.54 0 0 1-.22.43.65.65 0 0 1-.46-.18 1.16 1.16 0 0 1-.3-.44 1.91 1.91 0 0 0-1.25-1.31 3.59 3.59 0 0 0-2.37-.07c-.49.21-1 .44-1.47.67a.51.51 0 0 1-.69-.13.92.92 0 0 1 .15-1 4.87 4.87 0 0 1 .44-.3 4.69 4.69 0 0 1 2.47-.46z" fill-rule="evenodd"/><path d="M113.81 94.53c0-1.9-.48-3.37-2.23-4.14-.08 0-.2-.09-.22-.15a2 2 0 0 1-.13-.76c.06-.35.54-.48.88-.3a4.85 4.85 0 0 1 2.55 3.34 5.33 5.33 0 0 1-.32 3.2s-.15.07-.23.06a.35.35 0 0 1-.23-.1c-.32-.42 0-.87-.07-1.15z" fill-rule="evenodd"/><path d="M80.83 88.92a.78.78 0 0 1-.15.21.25.25 0 0 1-.22.05 9.76 9.76 0 0 1-1.17-.65 2.09 2.09 0 0 0-2.94.11 1.41 1.41 0 0 1-.49.21c-.17.06-.47-.36-.43-.58a1.32 1.32 0 0 1 .73-1.07 3.3 3.3 0 0 1 4.63 1.46.87.87 0 0 1 .04.26z" fill-rule="evenodd"/><path d="M80.48 96.67L79 97.3c-.34.14-.72.3-.9-.15s.17-.69.43-.92a2.53 2.53 0 0 1 2.47-.65 7.21 7.21 0 0 1 2.49 1.06 1.68 1.68 0 0 1 .3.45c-.23.09-.49.28-.69.24-.62-.12-1.22-.35-1.83-.52-.27-.07-.53-.1-.79-.14z" fill-rule="evenodd"/><path d="M62.12 98.48c-.12.32-.18.63-.24.62-.24 0-.66 0-.7-.17a3.25 3.25 0 0 0-2.1-1.93.52.52 0 0 1-.19-.45.54.54 0 0 1 .34-.33 1.83 1.83 0 0 1 2.15.66 7.22 7.22 0 0 1 .74 1.6z" fill-rule="evenodd"/><path d="M100.67 141.94c-2.45 0-4.9-.1-7.35-.12-2.91 0-5.82.05-8.72 0-1.9-.06-3.8-.07-5.7-.06-.13 0-.26-.2-.38-.32s.11-.62.31-.67a8.38 8.38 0 0 1 3-.21c2.52.3 5.07.17 7.58.66a7 7 0 0 0 1.9-.1 8.94 8.94 0 0 1 3.25.11 3 3 0 0 0 1.34.09 9.32 9.32 0 0 1 4.77.62z" fill-rule="evenodd"/><path d="M37 141.77a5 5 0 0 1 3-.34 9.55 9.55 0 0 0 3.25 0c2.33-.26 4.64-.59 7-.86 1.26-.15 2.53-.23 3.8-.31a2 2 0 0 1 .8.12c.25.08.5.25.4.58 0 .15-.18.36-.31.38a5.34 5.34 0 0 1-1.34.12 39.62 39.62 0 0 1-5.43-.37c-1.82-.35-3.57 0-5.36 0a7 7 0 0 0-2.67.47 5.51 5.51 0 0 1-3.14.21z" fill-rule="evenodd"/><path d="M90 144.85c-.2.33-.56.2-.83.19a101.09 101.09 0 0 0-10.84.47 4.56 4.56 0 0 1-1.32-.14c-.11 0-.18-.27-.24-.42a.2.2 0 0 1 .09-.19 4.72 4.72 0 0 1 1-.32 41.66 41.66 0 0 1 7-.14c1.79.11 3.52-.2 5.14.55z" fill-rule="evenodd"/><path d="M39.09 146.46a1 1 0 0 1 .94-.67c2.52-.08 5-.71 7.53-.52a7.17 7.17 0 0 1 1.32.22c.11 0 .24.26.25.41s-.11.39-.22.42a4.06 4.06 0 0 1-1.31.19 60.13 60.13 0 0 0-8.51-.05z" fill-rule="evenodd"/><path d="M42.71 143.63a13.18 13.18 0 0 0 3.13-.49 20.23 20.23 0 0 1 5.12-.51 2.54 2.54 0 0 1 1 .28c.12.05.16.3.21.47s-.11.12-.18.16a1.32 1.32 0 0 1-.49.18c-1.9 0-3.79-.06-5.68-.13-.53 0-1.06-.28-1.59-.28a7.87 7.87 0 0 0-1.52.32z" fill-rule="evenodd"/><path d="M36.79 143.87l3.19-.28c-1.18.96-1.18.96-3.19.28z" fill-rule="evenodd"/><path d="M60.86 31.8a79.65 79.65 0 0 1 11.29.51 3.94 3.94 0 0 1 2 .67.48.48 0 0 1 .14.44.54.54 0 0 1-.41.26 5.62 5.62 0 0 1-1.35-.13 34 34 0 0 0-7.82-.82 21.07 21.07 0 0 0-5.68.07c-.11 0-.36-.16-.4-.29s.11-.41.22-.43c.85-.13 1.65-.23 2.01-.28z" fill-rule="evenodd"/><path d="M62.54 27.63a76.7 76.7 0 0 1 10.58.46 10.36 10.36 0 0 1 1.55.45c.06 0 .11.14.15.21s0 .27-.26.32a1.75 1.75 0 0 1-.54.06 62.58 62.58 0 0 0-13.3-.42 1 1 0 0 1-.46-.2c-.13-.08.19-.57.41-.63s.35-.1.53-.13z" fill-rule="evenodd"/><path d="M55.53 43.38a39.49 39.49 0 0 1 6.87 0 25.45 25.45 0 0 0 3 .15A7 7 0 0 1 68 44a.46.46 0 0 1 .2.41.5.5 0 0 1-.33.35 3.37 3.37 0 0 1-1.07 0 38.67 38.67 0 0 0-6.73-.48 48.44 48.44 0 0 0-6.23.34c-.27 0-.54.07-.81.09-.43 0-.78-.3-.7-.59a.63.63 0 0 1 .56-.46c.93-.15 1.84-.21 2.64-.28z" fill-rule="evenodd"/><path d="M67.43 18.85h4.67a7.87 7.87 0 0 1 3.45.65.68.68 0 0 1 .3.4c0 .07-.19.21-.31.29a.44.44 0 0 1-.27 0c-3.78-.76-7.58-.47-11.39-.33a1.83 1.83 0 0 1-.74-.22.25.25 0 0 1-.07-.25c.17-.32-.28-.09.07-.19a27.25 27.25 0 0 1 4.29-.35z" fill-rule="evenodd"/><path d="M56.31 46.51a50.47 50.47 0 0 1 6.25-.08 42 42 0 0 1 4.86.27 5.91 5.91 0 0 1 1.28.42c.13.05.19.27.28.41a1.73 1.73 0 0 1-.47.24 2.74 2.74 0 0 1-.81 0 64.83 64.83 0 0 0-14.7-.22 5.2 5.2 0 0 1-1.05-.1c-.07 0-.2-.13-.19-.17s.1-.36.2-.39a6.71 6.71 0 0 1 1.31-.26c1.04-.06 2.04-.08 3.04-.12z" fill-rule="evenodd"/><path d="M54.69 48.49a74.24 74.24 0 0 1 9.51.15 1.39 1.39 0 0 1 .94.45.49.49 0 0 1 .11.25.21.21 0 0 1-.09.17 4 4 0 0 1-1.06.17c-.81-.05-1.62-.14-2.43-.27-2.63-.4-5.26 0-7.89 0h-1.35c-.13 0-.27-.18-.37-.31s-.08-.33.19-.36z" fill-rule="evenodd"/><path d="M68.6 22.07h-5.74c-.13 0-.28-.17-.39-.27s.1-.49.44-.49a62.23 62.23 0 0 1 8.17-.06 6.79 6.79 0 0 1 3.14.68.41.41 0 0 1 .13.24.18.18 0 0 1-.07.16 1.08 1.08 0 0 1-.52.1 28.76 28.76 0 0 0-5.16-.36z" fill-rule="evenodd"/><path d="M58.54 37.57c2.89.11 5.81-.16 8.69.34a3.58 3.58 0 0 1 .76.25c.06 0 .07.15.11.23s0 .38-.22.39a6.76 6.76 0 0 1-1.34 0 45.86 45.86 0 0 0-10.6.12 3.91 3.91 0 0 1-.81 0s-.05-.13-.05-.19 0-.22.06-.26a2.25 2.25 0 0 1 .7-.4c.89-.22 1.79-.34 2.7-.48z" fill-rule="evenodd"/><path d="M69.79 34.52a1.71 1.71 0 0 1 .07.23c-.16.07-.34.2-.5.18a45.68 45.68 0 0 0-10.85-.16c-.26 0-.59-.35-.47-.51s.2-.31.34-.36a2.71 2.71 0 0 1 .8-.15c1.36-.08 2.72-.17 4.08-.19s2.54.09 3.81.07a7.38 7.38 0 0 1 2.38.5c.14.04.23.25.34.39z" fill-rule="evenodd"/><path d="M58.33 36.62l-1.33.12c-.61 0-.84-.11-.76-.41s.48-.51.8-.58a16.91 16.91 0 0 1 4.05-.06 68.4 68.4 0 0 1 7.55.49 2.37 2.37 0 0 1 .76.25.66.66 0 0 1 .3.41c0 .09-.21.3-.32.3-1.16-.08-2.32-.22-3.49-.29a41 41 0 0 0-7.56-.23z" fill-rule="evenodd"/><path d="M70.06 31.07a44.32 44.32 0 0 0-9.85-.16c-.15 0-.45-.11-.46-.2 0-.3.24-.36.48-.42a1.52 1.52 0 0 1 .27-.06 44.76 44.76 0 0 1 7.06-.17c1.6.18 3.26-.07 4.88.22 1 .17 2 .38 2.92.61a.5.5 0 0 1 .31.39c0 .33-.32.36-.56.33a24.85 24.85 0 0 0-5.05-.54z" fill-rule="evenodd"/><path d="M66.67 40.94c-2.8-.47-5.63-.11-8.44-.27a7 7 0 0 0-3.22.42 1 1 0 0 1-.26 0 .47.47 0 0 1-.54-.45.51.51 0 0 1 .23-.42 4.71 4.71 0 0 1 1-.26 45.15 45.15 0 0 1 11.43.12 5.59 5.59 0 0 1 1 .31.25.25 0 0 1 .12.23c-.07.14-.18.34-.28.34a9.75 9.75 0 0 1-1.04-.02z" fill-rule="evenodd"/><path d="M63.32 23.44a9.6 9.6 0 0 1 2 0 15.74 15.74 0 0 0 3 .12c1.26 0 2.51.15 3.76.29a.94.94 0 0 1 .83.61c.1.28-.4.49-1.07.35a30.38 30.38 0 0 0-6.72-.44c-1.08 0-2.15.15-3.23.19-.19 0-.59.11-.51-.37a.63.63 0 0 1 .49-.55c.45-.07.9-.11 1.45-.2z" fill-rule="evenodd"/><path d="M54 50.53a33.23 33.23 0 0 1 6.54-.05 4 4 0 0 1 2.08.51c.06 0 .07.17.06.25s-.06.17-.1.17a5.43 5.43 0 0 1-1.34.16 48.73 48.73 0 0 0-10.61-.13.47.47 0 0 1-.27 0 2.25 2.25 0 0 1-.33-.3c.07-.05.13-.15.21-.17a15.62 15.62 0 0 1 3.76-.44z" fill-rule="evenodd"/><path d="M56.23 44.84a50.53 50.53 0 0 1 9.77.36 1.63 1.63 0 0 1 1.2.5c.16.2.15.36-.05.43s-.73.34-1 .25a19.06 19.06 0 0 0-5.63-.62 37.82 37.82 0 0 0-7.3.22c-.15 0-.37-.28-.55-.42.12-.12.22-.31.37-.37a3.34 3.34 0 0 1 .8-.14z" fill-rule="evenodd"/><path d="M74.22 7.56l-.52-.11c-1-.2-1.93-.39-2.89-.62a.46.46 0 0 1-.18-.4 9 9 0 0 0 .62-.85c.08-.16-.2-.49-.12-.65a.83.83 0 0 1 .63-.32 8.1 8.1 0 0 1 3.63.8c.28.13.39.47.2.64-.39.36-.86.62-1 1.22.02.13-.23.21-.37.29zm-1.36-1.8l-.4.24c.26 0 .52.07.77.08.07 0 .14-.09.21-.13z" fill-rule="evenodd"/><path d="M89.3 40.16c-.07.16-.09.38-.21.47a8.38 8.38 0 0 1-1.37.88A14.94 14.94 0 0 0 82.61 45a.24.24 0 0 1-.44-.06c-.07-.16-.17-.36-.12-.49a1.61 1.61 0 0 1 .42-.69 22.87 22.87 0 0 1 6.19-3.87.5.5 0 0 1 .64.27z" fill-rule="evenodd"/><path d="M79.92 42c.05-.17.05-.39.16-.49a24.1 24.1 0 0 1 5.7-4 2 2 0 0 1 .78-.09c.08 0 .23.06.23.1a.91.91 0 0 1-.06.49 1 1 0 0 1-.4.34 27 27 0 0 0-5.77 3.9c-.07.06-.33 0-.5-.09s-.06-.11-.14-.16z" fill-rule="evenodd"/><path d="M61.28 26.35c.42-.35.48-.45.56-.46a28.17 28.17 0 0 1 9.47-.38 1.38 1.38 0 0 1 1.31.87c-1.27.48-2.5-.13-3.75-.1s-2.35-.18-3.53-.17-2.47.24-4.06.24z" fill-rule="evenodd"/><path d="M84.14 46.31v-.24a2 2 0 0 1 .47-.64q2.49-1.64 5-3.25a.64.64 0 0 1 .9.25.5.5 0 0 1-.28.67 49.08 49.08 0 0 0-5.34 3.18 1.17 1.17 0 0 1-.51.17c-.07.01-.16-.09-.24-.14z" fill-rule="evenodd"/><path d="M66.49 14.73a21.55 21.55 0 0 1 4.34.3 5.63 5.63 0 0 1 1.23.49c.09 0 .12.27.13.42s-.14.15-.21.15a20.41 20.41 0 0 1-2.66-.2 18.09 18.09 0 0 0-4.54-.09c-.14 0-.29-.16-.42-.26s0-.5.33-.57a3 3 0 0 1 .52-.13l1.28-.11z" fill-rule="evenodd"/><path d="M63.59 17a20.36 20.36 0 0 1 5.41-.3 10.26 10.26 0 0 1 3.7.5c.1 0 .15.25.19.4s-.13.11-.21.14a.58.58 0 0 1-.25.07c-2.78-.12-5.55-.25-8.32-.39-.11 0-.28-.2-.52-.42z" fill-rule="evenodd"/><path d="M91 6.79c-.28 0-.55 0-.67-.3-.68-1.61-.8-2.17 1.33-2.51a.76.76 0 0 1 .81.57 2.2 2.2 0 0 1-.09 1.58c-.22.59-.95.38-1.38.66z" fill-rule="evenodd"/><path d="M65 14.06c.1-.34.11-.49.16-.5a13.63 13.63 0 0 1 7.64-.23c.07 0 .12.14.17.2s0 .24-.22.32a.73.73 0 0 1-.26.06 34.18 34.18 0 0 0-7.49.15z" fill-rule="evenodd"/><path d="M72.53 8.72a6 6 0 0 1 2.47.45.56.56 0 0 1 .25.41c0 .11-.2.33-.29.33-1.06-.07-2.11-.17-3.16-.29-.09 0-.23-.26-.2-.36a.72.72 0 0 1 .4-.38 2.38 2.38 0 0 1 .53-.16z" fill-rule="evenodd"/><path d="M81.68 37.36c0-.08-.07-.2 0-.24a10.41 10.41 0 0 1 3-2.7.23.23 0 0 1 .22.05c.07.14.19.38.13.45a9.26 9.26 0 0 1-3.06 2.59s-.22-.1-.29-.15z" fill-rule="evenodd"/><path d="M73.08 3.46a5.85 5.85 0 0 1 3.38.54c.11 0 .14.29.17.45s-.13.18-.19.18A11 11 0 0 1 73 4c-.11 0-.15-.26-.19-.4s.19-.07.27-.14z" fill-rule="evenodd"/><path d="M93.95 4.66v-.43A1 1 0 0 1 94.3 4a.27.27 0 0 1 .25 0 1.7 1.7 0 0 1 .53 1.64.44.44 0 0 1-.35.27.51.51 0 0 1-.42-.19 10.91 10.91 0 0 1-.36-1.06z" fill-rule="evenodd"/><path d="M89 5.71c.06.35-.27.76-.58.7a.51.51 0 0 1-.42-.53 1.16 1.16 0 0 1 .27-.68c.14-.2.73.21.73.51z" fill-rule="evenodd"/><path d="M32.32 77.18s-.14-.1-.13-.14a1.57 1.57 0 0 1 .22-.73 30.18 30.18 0 0 1 7.05-5.36 1 1 0 0 1 .51-.15.55.55 0 0 1 .41.23.48.48 0 0 1-.07.45c-1.24.88-2.51 1.72-3.76 2.6a22.12 22.12 0 0 0-3.5 2.92.55.55 0 0 1-.73.18z" fill-rule="evenodd"/><path d="M43.79 71.66c0 .17 0 .39-.12.49a3.1 3.1 0 0 1-.66.43A23.05 23.05 0 0 0 37 77.09c-.05.06-.35 0-.47-.1s-.27-.37-.23-.43A8.74 8.74 0 0 1 37.69 75c1.6-1.18 3.26-2.27 4.91-3.36a1.51 1.51 0 0 1 .77-.18c.14-.04.28.12.42.2z" fill-rule="evenodd"/><path d="M47 71.92c0 .1 0 .23-.07.27a10.43 10.43 0 0 1-.86.62c-1.84 1.19-3.9 2.19-5.44 3.88-.07.08-.33 0-.49 0s-.29-.51-.12-.69a9.26 9.26 0 0 1 .74-.78 34.55 34.55 0 0 1 5.16-3.41 1.53 1.53 0 0 1 .78-.16c.12-.02.23.17.3.27z" fill-rule="evenodd"/><path d="M44.27 75.25c1.55-1.84 3.71-2.84 5.73-4a1 1 0 0 1 1 0 .48.48 0 0 1 .17.18c0 .07.08.2.05.24a1.52 1.52 0 0 1-.42.34 37.23 37.23 0 0 0-6 3.74z" fill-rule="evenodd"/><path d="M85.2 71.45a4.91 4.91 0 0 1 0-1.09 1.14 1.14 0 0 1 .47-.57c.22-.14.7.25.73.56a5.92 5.92 0 0 1-.13 2.65c0 .13-.24.32-.34.31a.55.55 0 0 1-.37-.33c-.16-.54-.25-1.06-.36-1.53z" fill-rule="evenodd"/><path d="M50.41 73.26c.59-1.26 1.92-1.53 3-2.2.4-.25 1.19-.13 1.2.11 0 .45-.34.59-.64.77l-3 1.77z" fill-rule="evenodd"/><path d="M87.54 72a1.77 1.77 0 0 1 .46-1.47.59.59 0 0 1 .48-.12c.14 0 .33.24.32.35a11.73 11.73 0 0 1-.21 1.54c-.17.84-.38 1.07-.67.85s-.42-.52-.38-1.15z" fill-rule="evenodd"/><path d="M109.28 69.49a4.47 4.47 0 0 1 1.79 1.81.3.3 0 0 1 0 .24c0 .07-.14.16-.18.15a2.62 2.62 0 0 1-2-1.56c0-.13.06-.34.13-.49s.09-.07.26-.15z" fill-rule="evenodd"/><path d="M91.35 72.06c0-.23.09-.58.18-.92a.64.64 0 0 1 .61-.44.56.56 0 0 1 .56.71 14.1 14.1 0 0 1-.45 1.51.28.28 0 0 1-.45.14 1 1 0 0 1-.35-.35 2.6 2.6 0 0 1-.1-.65z" fill-rule="evenodd"/><path d="M50.92 73.71a5.72 5.72 0 0 1-.52.62c-.78.68-1.27.83-1.3.45a1.47 1.47 0 0 1 .81-1.31 2.64 2.64 0 0 1 .49-.22z" fill-rule="evenodd"/><path d="M95.47 71c.16-.06.39.15.46.37a1.07 1.07 0 0 1-.54 1.3.53.53 0 0 1-.23.09 1.84 1.84 0 0 1-.35-.66.87.87 0 0 1 .66-1.1z" fill-rule="evenodd"/><path d="M44.87 75.68a4.17 4.17 0 0 1-.34.71.46.46 0 0 1-.68.13.5.5 0 0 1-.13-.7 4.16 4.16 0 0 1 .56-.56z" fill-rule="evenodd"/><path d="M76.41 61.2c.06.72.12 1.44.19 2.16a3.38 3.38 0 0 1-.42 1.83 1.94 1.94 0 0 1-1.63 1.23 36.44 36.44 0 0 1-7 .06 3 3 0 0 1-2.77-2.24 16.5 16.5 0 0 1-.62-4.29 5.45 5.45 0 0 1 1.15-3 1.82 1.82 0 0 1 1.4-.74 35.76 35.76 0 0 1 6.74-.21 2.68 2.68 0 0 1 2.73 2.52 27 27 0 0 1 .25 2.71zm-6 .64c-.11-.65.44-.92.75-1.34s.84-.6.69-1.37c-1 1-2 1.87-3 2.79a1.68 1.68 0 0 0-.39.69c0 .13.08.31.14.45a.52.52 0 0 0 .22-.05c.39-.18.61-.69 1.14-.62.21.15.41.28.3.62-.21.68-1 1.07-.91 2l3.42.23h.27a1.83 1.83 0 0 0 1.9-2.24c0-.43-.13-.85-.2-1.3-.94.12-1.18.88-1.63 1.4s-.76 1.24-1.6 1.29c-.55-1 .5-1.38.76-2.06.18-.49.71-.83 1-1.3s.86-.64.71-1.42c-.37.34-.67.65-1 .92-.62.52-1.24 1-1.88 1.53-.33.2-.53-.06-.71-.22z" fill-rule="evenodd"/><path d="M69.9 62.42c-.11-.45.09-.64.52-.63 0 .2.33.32.09.6s-.41.04-.61.03z" fill-rule="evenodd"/></g></g></svg>