<svg xmlns="http://www.w3.org/2000/svg" viewBox="0 -0.02695465087890625 10.510772705078125 6.323110580444336"><title>Depositphotos_68062423_41</title><g data-name="Layer 2"><g data-name="Layer 1" style="isolation:isolate"><path d="M8.91 2.17c-.26-.48-.51-1-.75-1.47a1.34 1.34 0 0 0-.43-.55L7.61.08A2.13 2.13 0 0 0 6.79 0H.67A.67.67 0 0 0 0 .67V5.6a.67.67 0 0 0 .67.67h6.12a2.11 2.11 0 0 0 .81-.08l.12-.06a1.33 1.33 0 0 0 .43-.55c.23-.49.49-1 .75-1.47a3.09 3.09 0 0 0 .42-1 3.09 3.09 0 0 0-.41-.94z" fill="#954e28"/><path d="M1 6.12H.83a.69.69 0 0 1-.7-.68V.83A.69.69 0 0 1 .82.14h6.11a1.32 1.32 0 0 1 .51.08l.12.06A1.27 1.27 0 0 1 8 .83c.23.48.49 1 .71 1.37l.07.13a2.26 2.26 0 0 1 .34.8 2.24 2.24 0 0 1-.34.8l-.07.13c-.22.42-.48.94-.71 1.37a1.26 1.26 0 0 1-.43.57h-.13a1.31 1.31 0 0 1-.51.08H1zM1 .26H.83a.57.57 0 0 0-.58.57v4.61A.57.57 0 0 0 .82 6h6.11a1.19 1.19 0 0 0 .46-.07l.1-.05a1.17 1.17 0 0 0 .39-.49c.23-.48.49-1 .71-1.37l.07-.13A2.29 2.29 0 0 0 9 3.13a2.29 2.29 0 0 0-.32-.75l-.07-.13c-.22-.41-.48-.89-.71-1.37a1.18 1.18 0 0 0-.4-.49L7.4.33a1.44 1.44 0 0 0-.6-.07H1z" fill="#623415"/><path d="M1.76 6h-.35.35zm-.59 0H.81h.36zM2 6h.36zm2.73 0h-.36.36zM3.19 6h.36zm-.24 0h-.36.36zM5.8 6h-.24.35zm-2 0h.36zM5 6h.36zm1.15 0h.35zm.71 0h-.12.35zm.47-.07l.1-.05a.92.92 0 0 0 .17-.15.88.88 0 0 1-.18.16l-.11.06zM.6 5.86a.63.63 0 0 1-.23-.29.55.55 0 0 0 .21.26zm7.16-.37l.08-.15.08-.16-.08.16-.08.15zM.33 5.36V5h.03v.36H.33zM8 5l.16-.32h.05L8 5zM.33 4.77v-.39.39zm8-.32l.17-.32-.17.31zm-8-.27v-.39h.06v.36l-.06.02zm8.25-.25l.16-.29-.16.3zM.33 3.58v-.39.39zm8.52-.19a.65.65 0 0 0 .05-.22.41.41 0 0 0 0-.11.46.46 0 0 1 0 .12.7.7 0 0 1-.06.24zM.33 3v-.4.4zm8.47-.18c0-.11-.11-.22-.16-.32l.17.32zM.33 2.39V2v.39zm8.19-.09L8.33 2l.17.31zM.33 1.8v-.38.38zm7.91 0L8 1.44h.05l.17.31zM8 1.25L7.81 1V.95 1l.19.21zm-7.64 0V.92a.5.5 0 0 1 0-.1.53.53 0 0 0 0 .1v.25l-.03.04zM7.68.73a.94.94 0 0 0-.26-.25 1 1 0 0 1 .25.25zM.43.63A.64.64 0 0 1 .68.35a.59.59 0 0 0-.23.27zM7.21.39a1.45 1.45 0 0 0-.35 0 1.59 1.59 0 0 1 .36 0zM6.6.36h-.34.36zm-.6 0h-.33H6zm-.59 0h-.33.35zM.93.36V.3h.36v.06H.93zm3.17 0h-.2V.3h.36v.06zm.75 0h-.37V.3h.35l.01.06zm-1.2 0H3.3V.3h.36l-.01.06zm-.95 0V.3h.36v.06zm-.24 0h-.35V.3h.36v.06zm-.88 0h-.06V.3h.36v.06z" fill="#bb6034"/><path d="M1.42.74h5.29a.67.67 0 0 1 .67.67v3.47a.67.67 0 0 1-.67.67H1.42a.66.66 0 0 1-.66-.66V1.4a.67.67 0 0 1 .66-.66z" fill="#f9ecf3"/><path d="M6.71.74H1.42a.67.67 0 0 0-.67.67v3.47a.67.67 0 0 0 .67.67h5.29a.67.67 0 0 0 .66-.67V1.4a.67.67 0 0 0-.66-.66zm.39 4a.62.62 0 0 1-.62.62H1.59a.62.62 0 0 1-.59-.6V1.54a.62.62 0 0 1 .59-.62h4.89a.62.62 0 0 1 .62.62z" style="mix-blend-mode:multiply" fill="#d6ccd2"/><path d="M6.71 5.61H1.42a.72.72 0 0 1-.72-.72V1.4a.72.72 0 0 1 .72-.72h5.29a.72.72 0 0 1 .72.72v3.48a.72.72 0 0 1-.72.73zM1.42.8a.61.61 0 0 0-.61.61v3.47a.61.61 0 0 0 .61.61h5.29a.61.61 0 0 0 .61-.61V1.4a.61.61 0 0 0-.61-.6z" fill="#623415"/><path d="M7.08 1.41H1.23v-.06h5.85v.06z" fill="#c8c8c8"/><path d="M7.08 2.14H1.23h5.85z" fill="#c8c8c8"/><path d="M7.08 2.86H1.23h5.85z" fill="#c8c8c8"/><path d="M7.08 3.59H1.23h5.85z" fill="#c8c8c8"/><path d="M7.08 4.31H1.23h5.85z" fill="#c8c8c8"/><path d="M7.08 5H1.23v-.06h5.85V5z" fill="#c8c8c8"/><path d="M3.77.74H2.42L2.1 1c-.46.4-.9.82-1.34 1.24v1.09c.99-.88 1.99-1.75 3.01-2.59z" fill="#fff" opacity=".5"/><path d="M4.68 5.55h2a.67.67 0 0 0 .66-.67V3.26C6.47 4 5.56 4.77 4.68 5.55z" fill="#fff" opacity=".5"/><path d="M1.42 5.55h.86l1.13-1c1-.91 2-1.82 3-2.71.28-.24.56-.47.84-.7a.67.67 0 0 0-.54-.4h-.65c-1.26 1-2.48 2.08-3.69 3.16L.87 5.26a.66.66 0 0 0 .55.29z" fill="#fff" opacity=".5"/><circle cx="8.39" cy="3.13" r=".29" fill="#623415"/><circle cx="8.37" cy="3.17" r=".23" fill="#412105"/><path d="M8.91 2.17c-.26-.48-.51-1-.75-1.47a1.34 1.34 0 0 0-.43-.55L7.61.08A2.13 2.13 0 0 0 6.79 0H.67A.67.67 0 0 0 0 .67V5.6a.67.67 0 0 0 .67.67h6.12a2.11 2.11 0 0 0 .81-.08l.12-.06a1.33 1.33 0 0 0 .43-.55c.23-.49.49-1 .75-1.47a3.09 3.09 0 0 0 .42-1 3.09 3.09 0 0 0-.41-.94zM8.66 4c-.24.45-.49.91-.71 1.37a1.26 1.26 0 0 1-.41.52L7.42 6a2 2 0 0 1-.77.07H.82a.63.63 0 0 1-.63-.62V.83A.63.63 0 0 1 .82.2h5.83a2 2 0 0 1 .77.07l.11.06a1.24 1.24 0 0 1 .41.52c.22.46.47.92.71 1.37a2.91 2.91 0 0 1 .4.91 2.89 2.89 0 0 1-.39.87z" style="mix-blend-mode:multiply" fill="#954e28" opacity=".5"/><path d="M9.26 1.62a1.15 1.15 0 0 0-.56.15l.16.31a.8.8 0 1 1-.33 1 .18.18 0 1 0-.32.15 1.16 1.16 0 1 0 1.05-1.61z" fill="#878787"/><path d="M9.87 2a1 1 0 0 0-1-.19.53.53 0 0 0-.14.05l.1.19A.91.91 0 0 1 9.46 2a.8.8 0 0 1 .43.29.76.76 0 0 1 .15.35 2.11 2.11 0 0 1 0 .22.81.81 0 0 1-1.53.26.18.18 0 1 0-.32.15.17.17 0 0 1 .08-.08.18.18 0 0 1 .23.08.81.81 0 0 0 .73.47.84.84 0 0 0 .25 0 1 1 0 0 0 .67-.9A1 1 0 0 0 9.87 2z" style="mix-blend-mode:multiply" fill="#878787"/></g></g></svg>