<svg xmlns="http://www.w3.org/2000/svg" viewBox="0 0 93.94001770019531 123.41000366210938"><title>Depositphotos_117541712_24</title><g data-name="Layer 2"><g data-name="Layer 1"><g data-name="Layer 2"><g data-name="Group"><g data-name="Group 2"><g data-name="Group 3"><path data-name="Path" d="M18.66 90.44V95c0 .78-4.18 1.42-9.33 1.42S0 95.76 0 95v-4.56c0 .78 4.2 1.41 9.33 1.41s9.29-.63 9.33-1.41z" fill="#faab64"/></g><g data-name="Group 4"><ellipse data-name="Path 2" cx="9.33" cy="89.88" rx="8.85" ry="1.13" fill="#faab64"/></g></g><g data-name="Group 5" fill="#faab64"><path data-name="Path 3" d="M75.73 1.81L60.12 38c-.71 0-1.42 0-2.14.07-1 0-1.9.12-2.81.24L71.71 0z"/><g data-name="Group 6"><path data-name="Path 4" d="M34.42 93.1a20.64 20.64 0 0 1-2-2.19l-.35.82c-1.81 4.2-5.63 6.65-9.76 8.14q-.71.26-1.42.47c.48-.15 1-.3 1.43-.47l4.3 5.06c.57-.31 1.77-1 2.29-1.35 2.17-1.49 4.06-2.9 4.86-4.61l2-4.58z"/><path data-name="Compound Path" d="M20.78 100.39c-1.2.36-2.39.65-3.56.89-.59.12-1.16.24-1.73.33-1.39.25-2.71.43-3.85.57l-1.82.24-1.23.2c-4.74.86-3 4.86-3 4.86s1.19 3.57 5.49 2.66c1-.22 2.58-.56 4.43-1l1.62-.45c1.1-.31 2.25-.67 3.41-1.08l-5.09-6q.85-.14 1.73-.33L22.1 107c1.07-.4 2.13-.86 3.15-1.36zm-3.61 8.25l-1.62.44-5.72-6.66 1.81-.24z"/></g></g><g data-name="Group 7" fill="#00a396"><g data-name="Group 8"><g data-name="Group 9"><path data-name="Path 5" d="M55 83h-3.18l-.29-1.12a3 3 0 0 0-.14-.57 2.71 2.71 0 0 1 0-1.94 1.17 1.17 0 0 1 .47-.38 4 4 0 0 1 1.08-.3C53.4 79.72 54.1 81.24 55 83z"/><path data-name="Path 6" d="M55.51 84.11c.47 1 1 2 1.54 3-.37.1-.73.22-1.06.34a10.06 10.06 0 0 0-2 .93 14 14 0 0 1-1.54-3.23q-.19-.54-.35-1.11z"/><path data-name="Path 7" d="M56.19 83c-.88-1.79-1.6-3.35-2.14-4.52h1.21c.81 0 1.73.08 2.8.19.75.07 1.69.13 2.77.14h1.29c.66 1.15 1.53 2.59 2.57 4.12-3.08.07-6 .07-8.5.07z"/><path data-name="Path 8" d="M67 103.24c-.9 0-1.77-.1-2.59-.16a2.58 2.58 0 0 1-.49-.86.48.48 0 0 0-.07-.29c-.12-.45-.3-1.06-.54-1.78h.1l1.89.76q.87 1.27 1.7 2.33z"/><path data-name="Path 9" d="M65.38 85.75a54.47 54.47 0 0 0-6.11.86l-1.12.25c-.5-.95-1-1.86-1.4-2.74h.53c2.48 0 5.29 0 8.2-.1.39.54.8 1.09 1.22 1.63z"/><path data-name="Path 10" d="M71.45 108a18.49 18.49 0 0 1-3.3-1.7c-.44-.28-.84-.57-1.22-.86a17.67 17.67 0 0 1-1.42-1.19l2.44.13a31.71 31.71 0 0 0 3.5 3.62z"/><path data-name="Path 11" d="M72.62 104.51a65.31 65.31 0 0 0 7.45-.38c-.3 1.26-.64 2.54-1 3.84a5.27 5.27 0 0 1-1.35.61 4.58 4.58 0 0 1-.79.19 7.27 7.27 0 0 1-1.29.11 9.09 9.09 0 0 1-1.26-.09 23 23 0 0 1-4.86-4.34c1.08.04 2.1.06 3.1.06z"/><path data-name="Path 12" d="M81.4 97.26c-.27 1.84-.61 3.75-1.06 5.72a76.93 76.93 0 0 1-11.84.33c-.42-.51-.84-1-1.27-1.62a16.19 16.19 0 0 0 2.76.84 5 5 0 0 0 3.08-.25c.86-.49 1.49-1.57 1.43-3.81v-1.11q3.85-.19 6.87-.53a2 2 0 0 0 .03.43z"/><path data-name="Path 13" d="M66 82.9c-1-1.49-1.94-2.91-2.63-4.1h1.27c5.17-.16 11.45-.67 15.77-1.08l1.09-.1c.18 1.27.34 2.71.45 4.3-3.17.39-7.34.72-12.8.92z"/><path data-name="Path 14" d="M81.87 93.27c-.07.79-.16 1.59-.26 2.4-2.07.25-4.46.44-7.15.56v-3.86a9.76 9.76 0 0 0 3.76 1h1.36a19.21 19.21 0 0 0 2.29-.1z"/><path data-name="Path 15" d="M81.5 102.82c.07-.28.13-.56.18-.85a4 4 0 0 0 .15.8z"/><path data-name="Path 16" d="M82 92.15a23.67 23.67 0 0 1-3.75.1 8.89 8.89 0 0 1-3.84-1.14v-.56c2.92-.16 5.49-.37 7.74-.63a18.15 18.15 0 0 0-.15 2.23z"/><path data-name="Path 17" d="M82.09 104v.08l-.81 1.4a8 8 0 0 1-.75 1.09c.24-.87.46-1.74.67-2.61l.84-.13a.72.72 0 0 0 .05.17z"/><path data-name="Path 18" d="M82.06 83c.1 1.79.13 3.73.07 5.83-2.14.26-4.72.47-7.83.64a10.86 10.86 0 0 0-.08-1.11 7.42 7.42 0 0 0-.12-.74c-.35-1.43-.57-1.89-3.32-2.06H68c-.43-.52-.84-1.06-1.23-1.58l2.11-.07c5.21-.17 9.61-.49 13.18-.91z"/><path data-name="Path 19" d="M85.15 77.22a20.3 20.3 0 0 1-1.06 3.11l-.56 1.35-.44.06c-.13-1.74-.3-3.17-.44-4.26l1.09-.11z"/></g><path data-name="Compound Path 2" d="M90.26 65.28c-3.4-13-14.11-23-32-22a41.81 41.81 0 0 0-6.36.81C29.16 48.86 31.54 71 31.54 71S31.48 83.08 38 89.35 52.35 104 55.42 109.41s10.07 14 19.07 12.87a5.52 5.52 0 0 0 1.76-.24c1.73-.51 4.15-2 4.47-6.69v-1.44a6 6 0 0 1-2.34 1.22h-.09a5.14 5.14 0 0 1-1.55.23c-3.23 0-7.65-2.51-11.34-5.09h-.05a77.45 77.45 0 0 1-4.24-3.19c-5-4-9.88-9-10.71-10.79-1.59-3.45-2.82-16.1-2.88-16.72a3.62 3.62 0 0 1 .66-2.5 3.18 3.18 0 0 1 2.24-1.15c1.06-.13 4.94-.23 9.85-.36 7.9-.21 18.71-.5 22.48-1a58 58 0 0 0 8-1.62q.06-.33.09-.69v-.5a19.31 19.31 0 0 0-.58-6.47zm-6.7-4.11v.25a2.42 2.42 0 0 1-.42-.64c-.16-.33-2.23-3.4-3.59-5.54a3.4 3.4 0 0 1-.78-2.44 27 27 0 0 1 2.94 3.45 12.41 12.41 0 0 1 1.86 4.92zm-6.2-11.92a14.8 14.8 0 0 1 2.07 2.45.86.86 0 0 1 .12.27 2.11 2.11 0 0 1-.34-.34 26.92 26.92 0 0 0-2.95-3c-.24-.18-.41-.34-.56-.47a6.24 6.24 0 0 1 1.67 1.09zm-11.77 14.6a2 2 0 0 1 .55.5 1.76 1.76 0 0 1-1.14.41c-.45 0-5.94-.14-9.11 0a7.93 7.93 0 0 1-3.11-.24A17.32 17.32 0 0 1 58 61.3c2.87-1.12 7.59 2.55 7.59 2.55zm-25.15-6c1.17-1.62 5.12-1.28 5.12-1.28h.31a1.45 1.45 0 0 1-.44.49c-.24.17-3.36 2.06-5.08 3.27a7.18 7.18 0 0 1-1.62.94 11.78 11.78 0 0 1 1.71-3.47zM45 86.55a5.58 5.58 0 0 1-3.33.07c-1.83-.4-3.28-2.41-3.28-3.22a14.1 14.1 0 0 1 3.45 1c1.89.64 3.36 1.33 3.2 2a.31.31 0 0 1-.04.15zm.32-5.15v.07c-.86.48-2.82.35-4.9-.38-2.54-.9-4.21-4.08-4-5.14.84-.15 2.8 1 4.84 2 2.51 1.26 4.42 2.48 4.08 3.45zm-2.11-17.9a16 16 0 0 1 3.61-4.13c2.13-1.71 7.2.17 7.2.17a1.89 1.89 0 0 1 .58.27 1.71 1.71 0 0 1-.83.59c-.38.14-5.15 1.49-7.85 2.46a7.45 7.45 0 0 1-2.71.64zm46.44 11.34a1.94 1.94 0 0 0 .58-.37 1.18 1.18 0 0 0 .21-.33l-.79.2zm-7.28.85a3.42 3.42 0 0 0 .08.48l2.91-.3s1.31-.18 2.6-.49l.58-.16v-.62c-1.42.32-3.28.67-5.6 1zM79.86 109l-.27.88a5.68 5.68 0 0 0 2.3-1.51c.14-.33.27-.62.38-.92a3.74 3.74 0 0 0 .17-1.26 1.61 1.61 0 0 1-.13.21 8 8 0 0 1-2.45 2.6zm-17.7-32.38l.48.87c5.78-.07 13.89-.76 18.69-1.22a1.08 1.08 0 0 0-.07-.47c-4.26.4-12.15.63-19.1.82zm15.93 37.48l.42-.16a4.72 4.72 0 0 0 2.42-1.86q.08-.65.18-1.18c-.58.1-1.23.18-1.94.24-.34 1-.71 2-1.08 2.95zm.41-4.41a7.64 7.64 0 0 1-1.13.33 5.18 5.18 0 0 0 1 .06c0-.14.09-.27.12-.4zm-1.66 4.62c.41-1 .8-2.07 1.15-3.1h-1.61c-.9 0-1.87 0-2.9-.07-2.19-.11-4.17-.3-5.45-.45 3.64 2.32 6.7 3.59 8.76 3.59zm-10.89-5a77.15 77.15 0 0 0 7.84.75h.35a15.41 15.41 0 0 1-4.5-1.42 20 20 0 0 1-4.92-3.33 11.71 11.71 0 0 1-1.12-1.19c-1.94-.15-3.58-.31-4.72-.44l3 2.54c1.38 1.15 2.75 2.19 4.06 3.11zm-8.49-6.91c.56.07 2.58.32 5.37.54a1.84 1.84 0 0 1-.16-.42c-.06-.24-.12-.47-.19-.72a24.16 24.16 0 0 0-1.16-3.2q-.25-.56-.54-1.11c-3.71-.06-6.75-.18-8.33-.25a53.58 53.58 0 0 0 5 5.18zm.76-25c.87.09 2 .13 3.18.14l-.18-.34-.29-.52h-.58c-2.7.07-5.18.14-7 .21l.15.34a26.36 26.36 0 0 1 4.71.14zm-6.63 18.71c1 .05 4.24.2 8.55.27-.23-.38-.47-.75-.73-1.12A11.21 11.21 0 0 0 55.88 92a8.11 8.11 0 0 1-1.54-1.12c-1.91 0-3.37-.07-4.16-.1a25.2 25.2 0 0 0 1.29 5.11l.12.22zm1.7-6.42a9.68 9.68 0 0 1-.76-1.12 16.83 16.83 0 0 1-1.47-3.4q-.18-.55-.33-1.11L49.16 84c.21 1.72.48 3.71.79 5.6zM49 82.9h1.39l-.28-1.12-.11-.27c-.39-1.6-.25-2.72.57-3.42a3.63 3.63 0 0 1 1.7-.76l-.2-.45a13.6 13.6 0 0 0-1.56.1 2.13 2.13 0 0 0-1.49.73 2.59 2.59 0 0 0-.44 1.7s.22 1.5.42 3.49z"/></g><path data-name="Compound Path 3" d="M52.9 78.61l-.55-1.23-.2-.45a13.6 13.6 0 0 0-1.56.1 2.13 2.13 0 0 0-1.49.73 2.59 2.59 0 0 0-.44 1.7s.15 1.45.38 3.44h2.75L55 83c-.9-1.76-1.6-3.28-2.1-4.39zm-1.4 3.24H50c-.16-1.37-.24-2.31-.27-2.49a1.47 1.47 0 0 1 .21-.89 1 1 0 0 1 .67-.3h.07l.73-.05.38.84c.35.79.82 1.8 1.38 3zm5.5 5.3c-.55-1.06-1.06-2.08-1.54-3h-4.79L49.16 84c.21 1.72.48 3.71.79 5.6l3.33.08c1.42 0 3.17.06 5.14.07-.42-.87-.94-1.75-1.42-2.6zm-4.52 1.42h-1.62c-.16-1-.33-2.17-.48-3.38h4.39c.38.77.76 1.52 1.16 2.27l.59 1.15zm8.34 5.52c-.58-1.09-1.19-2.15-1.82-3.22-1.76 0-3.36 0-4.72-.05-1.91 0-3.37-.07-4.16-.1a25.2 25.2 0 0 0 1.29 5.11c0 .09.1.18.16.28 1 .05 4.24.2 8.55.27h2.15c-.46-.71-.92-1.48-1.4-2.29zm-1.42 1.18c-3.22-.07-5.77-.17-7.1-.23a22.17 22.17 0 0 1-.81-3.16l4.38.08h2.51c.51.92 1 1.81 1.53 2.68l.38.63zm2.73-16.45l-.75-1.31-.18-.34-.29-.52h-.58c-2.7.07-5.18.14-7 .21l.15.34.58 1.27c.53 1.18 1.26 2.74 2.14 4.52 2.49 0 5.42 0 8.51-.07a50.426 50.426 0 0 1-2.58-4.1zm-4.76 3.08h-.48c-.64-1.31-1.18-2.47-1.62-3.42l-.27-.55 5.25-.15.58 1c.47.84 1.09 1.89 1.83 3.05-1.66.06-3.49.07-5.29.07zM65.3 101q-1.14-1.59-2.3-3.42h-2.24c-3.71-.06-6.75-.18-8.33-.25a53.58 53.58 0 0 0 5 5.16c.56.07 2.58.32 5.37.54l1.6.13 2.59.16zm-1.45 1l-1.39-.11c-2.14-.18-3.77-.37-4.53-.46-1.08-1-2.08-2-2.94-2.89 1.71.06 3.87.12 6.31.15h1.08c.35.54.7 1.06 1 1.56s.84 1.23 1.26 1.8zm3.38-15.62c-.18-.21-.36-.44-.54-.66-.42-.54-.83-1.09-1.22-1.63-2.91.07-5.72.1-8.2.1h-.53c.44.87.9 1.79 1.4 2.74s1 1.92 1.55 2.91c2.73 0 5.79 0 8.92-.1l1.77-.05a31.12 31.12 0 0 1-3.15-3.38zm-6.59 2.35h-.3c-.36-.67-.73-1.36-1.09-2.06q-.36-.67-.72-1.38c2.14 0 4.28 0 6.37-.08.16.21.3.41.46.6.33.44.66.86 1 1.27s.92 1.07 1.38 1.57h-7.09zM71.45 108a31.71 31.71 0 0 1-3.45-3.6l-2.44-.13-1.94-.13c-1.94-.15-3.58-.31-4.72-.44l3 2.54c1.41 1.14 2.78 2.17 4.09 3.09a77.15 77.15 0 0 0 7.84.75h.56a15.94 15.94 0 0 1-2.94-2.08zm-1.83.64c-1.55-.15-2.73-.3-3.25-.38-1.26-.89-2.54-1.86-3.82-2.9l-.28-.23 2.43.18 2.23.13h.49c.24.29.49.57.73.84a31.49 31.49 0 0 0 2.45 2.43zm6.75 2.58c-.9 0-1.87 0-2.9-.07-2.19-.11-4.17-.3-5.45-.45 3.64 2.32 6.7 3.59 8.76 3.59h.06c.41-1 .8-2.07 1.15-3.1h-1.62zm-.28 1.91a11.72 11.72 0 0 1-2.91-.89h.24c1 .05 2 .08 3 .08zm-3.47-8.64c-1 0-2 0-3.11-.05a23 23 0 0 0 4.86 4.34 8.16 8.16 0 0 0 3 1.22 5.18 5.18 0 0 0 1 .06 1.38 1.38 0 0 1 .13-.39c.19-.58.37-1.15.53-1.72.4-1.3.74-2.58 1-3.84a65.31 65.31 0 0 1-7.41.4zm5 4.42a4.15 4.15 0 0 1-.69-.16 12.67 12.67 0 0 1-4.78-3.16h.52c2.16 0 4.16-.07 6-.23-.28 1.07-.59 2.14-.92 3.19a1.12 1.12 0 0 0-.17.38zm3.53 2c-.58.1-1.23.18-1.94.24q-.51 1.5-1.08 3l.42-.16a4.72 4.72 0 0 0 2.45-1.86 5.78 5.78 0 0 0 .66-1.26zm.43-33.32c-.06-.46-.13-.89-.19-1.3a1.08 1.08 0 0 0-.07-.47c-4.28.39-12.15.63-19.1.81l.48.87c.21.38.47.82.75 1.3.64 1.2 1.55 2.62 2.55 4.1l3.16-.1c5.46-.21 9.63-.53 12.8-.92-.09-1.58-.24-3-.43-4.29zM69.15 81.7l-2.55.08c-.72-1.06-1.38-2.1-1.93-3-.23-.39-.45-.75-.64-1.09 6-.16 12.29-.37 16.31-.68a5.21 5.21 0 0 0 .1.69c.14 1 .27 2.12.35 3.22-3.23.34-7.14.61-11.64.78zm12.2 15.11q-3 .34-6.87.53-2.69.12-5.81.18h-4.36c1 1.52 2 2.91 2.92 4.15.43.57.85 1.11 1.27 1.62a76.93 76.93 0 0 0 11.84-.29c.44-2 .79-3.87 1.06-5.72-.02-.18-.04-.28-.05-.47zM79.42 102a62.78 62.78 0 0 1-6.36.31h-.49c-1.13 0-2.32 0-3.54-.06-.86-1.08-1.75-2.28-2.65-3.57h2.3q3.09 0 5.81-.18 3.09-.15 5.66-.4c-.2 1.25-.44 2.57-.73 3.9zm.1-8.57h-1.36a9.76 9.76 0 0 1-3.76-1 15.4 15.4 0 0 1-2.74-1.69l-3 .1c-2.77.07-5.49.1-8 .1h-.35c.49.88 1 1.77 1.52 2.66s1.19 2 1.77 2.89h5.06c2.07 0 4-.09 5.8-.18 2.69-.13 5.08-.31 7.15-.56.1-.81.18-1.61.26-2.4h-2.35zm1.09 1.27c-1.83.2-3.9.35-6.17.46-1.8.09-3.74.15-5.8.18h-4.43c-.53-.84-1-1.6-1.43-2.35l-.58-1c2.25 0 4.42 0 6.45-.1l2.65-.08a15.27 15.27 0 0 0 3.11 1.79 10.6 10.6 0 0 0 3.68.87h2.53zm-6.26-4.11h-.88a10.36 10.36 0 0 0 .9.52 8.89 8.89 0 0 0 3.84 1.14 23.67 23.67 0 0 0 3.75-.1c.06-.76.1-1.5.13-2.23-2.24.26-4.82.48-7.74.63zm7.54 10.31c-.07.37-.14.74-.22 1.11s-.11.57-.18.85l.33-.05.29-.05c-.11-.67-.11-1.29-.22-1.9zm.17-17.9c-3.56.44-8 .75-13.13.94l-2.11.06c.4.52.81 1.06 1.23 1.58a27.17 27.17 0 0 0 3.95 4l2.28-.1c3.11-.17 5.69-.38 7.83-.64.08-2.12.04-4.07-.05-5.84zm-7.84 5.36l-1.83.09a26.79 26.79 0 0 1-2.91-2.9L69 85c4.59-.17 8.61-.44 12-.81 0 1.18.06 2.39 0 3.59-2 .22-4.24.43-6.78.56zm8 15.48h-.16l-.84.13c-.21.87-.43 1.74-.67 2.61s-.45 1.6-.69 2.39l-.27.88a5.68 5.68 0 0 0 2.3-1.51l.33-.36v-1.62a13.37 13.37 0 0 0 0-2.53zm1.09-.21c.07.89.11 1.8.1 2.68a20.54 20.54 0 0 0 1.43-3.05c-.48.12-1 .25-1.53.36zm-.72-7a4.63 4.63 0 0 1-.07.52c.07.55.16 1.15.24 1.78.16 1.1.33 2.31.45 3.55q1.06-.19 2.09-.48a48.74 48.74 0 0 0 1.52-6.06 40.82 40.82 0 0 1-4.24.72zm1.83 4.37l-.25.07c-.1-.84-.22-1.64-.32-2.33-.06-.41-.11-.81-.16-1.18l1.71-.28c-.3 1.37-.63 2.62-1 3.75zM83 93.13c-.07.8-.14 1.6-.24 2.4a36.17 36.17 0 0 0 4.3-.81c.16-.95.3-1.9.44-2.82v-.28a13 13 0 0 1-4.5 1.51zm3.08.68c-.63.15-1.32.28-2.07.41a1 1 0 0 0 0-.15 14.61 14.61 0 0 0 2.11-.6c0 .12 0 .23-.06.34zm-2.87-4c0 .74-.07 1.48-.12 2.21a10.89 10.89 0 0 0 4.61-1.83l.13-1.2a45.08 45.08 0 0 1-4.64.8zm.55-7l-.58.08c.1 1.71.14 3.66.08 5.83a44.35 44.35 0 0 0 4.74-.86c.2-2.11.33-4.13.43-6a40.54 40.54 0 0 1-4.64.9zM86.92 87c-.75.17-1.6.33-2.53.47 0-1.21 0-2.41-.05-3.59 1-.16 2-.33 2.85-.51-.09 1.19-.19 2.41-.29 3.58zm-4-11.3l-.58.07a3.42 3.42 0 0 0 .08.48c.06.35.13.79.2 1.3.15 1.09.32 2.52.44 4.26l.44-.06a40.1 40.1 0 0 0 4.89-1c.1-2.36.13-4.28.13-5.47v-.62c-1.4.3-3.25.66-5.58 1zm4.39 4.22c-.93.22-2 .43-3.23.62v-.13c-.11-1.17-.23-2.16-.35-3a4.81 4.81 0 0 0-.1-.72c1.32-.2 2.6-.42 3.79-.66 0 1 0 2.3-.08 3.84zM89 88.66v.39c.16-.16.3-.33.44-.5zm.52-7.12c-.09 1.81-.21 3.84-.41 6a12.76 12.76 0 0 0 1.21-.54 15.28 15.28 0 0 0 1.4-6.46 10.14 10.14 0 0 1-2.23 1zm1.88-7.66l-.92.27-.79.2v.5c0 1.09 0 3.06-.11 5.52a5.38 5.38 0 0 0 2.28-1.26 51.36 51.36 0 0 0-.49-5.23zm.47 6.62zm0 0zm-1.4-6.36l-.79.2v.5c0 1.09 0 3.06-.11 5.52a5.38 5.38 0 0 0 2.28-1.26 51.36 51.36 0 0 0-.45-5.22zm-1.4 13.35a12.76 12.76 0 0 0 1.25-.49 15.28 15.28 0 0 0 1.4-6.46 10.14 10.14 0 0 1-2.23 1c-.09 1.81-.22 3.84-.42 5.95zM88.91 89c.16-.16.3-.33.44-.5l-.39.11zm-6.54-13.31a3.42 3.42 0 0 0 .08.48c.06.35.13.79.2 1.3.15 1.09.32 2.52.44 4.26l.44-.06a40.1 40.1 0 0 0 4.89-1c.1-2.36.13-4.28.13-5.47v-.62c-1.42.32-3.28.67-5.6 1zm5.06.29c0 1 0 2.32-.1 3.86-.93.22-2 .43-3.23.62v-.13c-.11-1.17-.23-2.16-.35-3a4.81 4.81 0 0 0-.1-.72c1.35-.17 2.58-.39 3.78-.61zm-4.27 6.86c.1 1.71.14 3.66.08 5.83a44.35 44.35 0 0 0 4.69-.86c.2-2.11.33-4.13.43-6a40.54 40.54 0 0 1-4.62.89zm4 .44c-.07 1.24-.16 2.46-.27 3.63-.75.17-1.6.33-2.53.47 0-1.21 0-2.41-.05-3.59 1-.15 2-.32 2.86-.5zM83.07 92a10.89 10.89 0 0 0 4.61-1.83l.13-1.2a45.08 45.08 0 0 1-4.63.82c-.02.73-.06 1.47-.11 2.21zm-.33 3.53a36.17 36.17 0 0 0 4.3-.81c.16-.95.3-1.9.44-2.82v-.28A13 13 0 0 1 83 93.13c-.09.8-.17 1.6-.26 2.39zM84 94.07a14.61 14.61 0 0 0 2.11-.6.78.78 0 0 1-.05.34c-.63.15-1.32.28-2.07.41a1 1 0 0 0 .01-.15zm-1.49 3.11c.07.55.16 1.15.24 1.78.16 1.1.33 2.31.45 3.55a21.48 21.48 0 0 0 2.1-.51 48.74 48.74 0 0 0 1.52-6.06 40.82 40.82 0 0 1-4.24.76c-.02.13-.05.3-.07.48zm2.88.16a37.74 37.74 0 0 1-1 3.73l-.25.07c-.1-.84-.22-1.64-.32-2.33-.06-.41-.11-.81-.16-1.18zm-2 9a20.54 20.54 0 0 0 1.43-3.05c-.49.13-1 .26-1.54.37a20.94 20.94 0 0 1 .13 2.64zM82 103.89l-.84.13c-.21.87-.43 1.74-.67 2.61s-.45 1.6-.69 2.39l-.27.88a5.68 5.68 0 0 0 2.3-1.51l.33-.36v-1.62a24.05 24.05 0 0 0-.09-2.54zM66.82 84c.4.52.81 1.06 1.23 1.58a27.17 27.17 0 0 0 3.95 4l2.28-.1c3.11-.17 5.69-.38 7.83-.64.06-2.09 0-4-.07-5.83-3.56.44-8 .75-13.13.94zm14.18.23c0 1.18.06 2.39 0 3.59-2 .21-4.29.39-6.82.52l-1.83.09a26.79 26.79 0 0 1-2.91-2.9L69 85c4.64-.14 8.65-.41 12-.77zm1.11 18.49q-.09-.94-.21-1.86c-.07.37-.14.74-.22 1.11s-.11.57-.18.85l.33-.05zM82 92.15c.06-.76.1-1.5.13-2.23-2.25.26-4.82.47-7.74.63h-.88a10.36 10.36 0 0 0 .9.52 8.89 8.89 0 0 0 3.84 1.14 23.67 23.67 0 0 0 3.75-.06zm-.09 1.12c-.75.07-1.52.13-2.35.13H78.2a9.76 9.76 0 0 1-3.76-1 15.4 15.4 0 0 1-2.74-1.69l-3 .1c-2.77.07-5.49.1-8 .1h-.35c.49.88 1 1.77 1.52 2.66s1.19 2 1.77 2.89h5.06c2.07 0 4-.09 5.8-.18 2.69-.13 5.08-.31 7.15-.56.07-.86.15-1.66.22-2.45zm-1.26 1.4c-1.83.2-3.9.35-6.17.46-1.8.09-3.74.15-5.8.18h-4.43c-.53-.84-1-1.6-1.43-2.35l-.58-1c2.25 0 4.42 0 6.45-.1l2.65-.08a15.27 15.27 0 0 0 3.11 1.79 10.6 10.6 0 0 0 3.68.87h2.53zm-1.45 16.48q-.51 1.5-1.08 3l.42-.16a4.72 4.72 0 0 0 2.46-1.86 5.78 5.78 0 0 0 .66-1.26l-.48.08c-.62 0-1.26.14-2 .19zM62.65 77.51c.21.38.47.82.75 1.3.69 1.19 1.6 2.61 2.6 4.09l3.16-.1c5.46-.21 9.63-.53 12.8-.92-.11-1.58-.27-3-.45-4.3-.06-.46-.13-.89-.19-1.3a1.08 1.08 0 0 0-.07-.47c-4.28.39-12.15.63-19.1.81zM80.33 77a5.21 5.21 0 0 0 .1.69c.14 1 .27 2.12.35 3.22-3.23.35-7.14.62-11.64.79l-2.55.08c-.72-1.06-1.38-2.1-1.93-3-.23-.39-.45-.75-.64-1.09 5.98-.18 12.29-.38 16.31-.69zm1.07 20.26a1.35 1.35 0 0 0-.05-.45q-3 .34-6.87.53-2.69.12-5.81.18h-4.36c1 1.52 2 2.91 2.92 4.15.43.57.85 1.11 1.27 1.62a76.93 76.93 0 0 0 11.84-.29c.45-2 .79-3.9 1.06-5.74zm-2 4.7a62.78 62.78 0 0 1-6.36.31h-.49c-1.13 0-2.32 0-3.54-.06-.86-1.08-1.75-2.28-2.65-3.57h2.3q3.09 0 5.81-.18 3.09-.15 5.66-.4c-.18 1.29-.42 2.61-.71 3.94zm-9.91 2.49a23 23 0 0 0 4.86 4.34 8.16 8.16 0 0 0 3 1.22 5.18 5.18 0 0 0 1 .06 1.38 1.38 0 0 1 .13-.39c.19-.58.37-1.15.53-1.72.4-1.3.74-2.58 1-3.84a65.31 65.31 0 0 1-7.45.38h-3zm8.16 4.13a1.54 1.54 0 0 1-.1.35 4.15 4.15 0 0 1-.69-.16 12.67 12.67 0 0 1-4.78-3.16h.52c2.16 0 4.16-.07 6-.23-.28 1.08-.6 2.14-.92 3.2zm-4.21 2.59c-2.19-.11-4.17-.3-5.45-.45 3.64 2.32 6.7 3.59 8.76 3.59h.06c.41-1 .8-2.07 1.15-3.1h-4.49zm2.62 2a11.72 11.72 0 0 1-2.91-.89h.24c1 .05 2 .08 3 .08zm-2-3.07h.21a15.94 15.94 0 0 1-2.82-2.1 31.71 31.71 0 0 1-3.45-3.6l-2.44-.13-1.94-.13c-1.94-.15-3.58-.31-4.72-.44l3 2.54c1.41 1.14 2.78 2.17 4.09 3.09a77.15 77.15 0 0 0 7.84.75zm-4.5-1.42c-1.55-.15-2.73-.3-3.25-.38-1.26-.89-2.54-1.86-3.82-2.9l-.28-.23 2.43.18 2.23.13h.49c.24.29.49.57.73.84a31.49 31.49 0 0 0 2.45 2.43zm.76-19a31.12 31.12 0 0 1-3.15-3.31c-.18-.21-.36-.44-.54-.66-.42-.54-.83-1.09-1.22-1.63-2.91.07-5.72.1-8.2.1h-.53c.44.87.9 1.79 1.4 2.74s1 1.92 1.55 2.91c2.73 0 5.79 0 8.92-.1zm-9.74-1h-.3c-.36-.67-.73-1.36-1.09-2.06q-.36-.67-.72-1.38c2.14 0 4.28 0 6.37-.08.16.21.3.41.46.6.33.44.66.86 1 1.27s.92 1.07 1.38 1.57c-2.16 0-4.55.06-7 .06zm3.77 14.42l2.59.16q-.84-1.06-1.71-2.28-1.14-1.59-2.31-3.42h-2.23c-3.71-.06-6.75-.18-8.33-.25a53.58 53.58 0 0 0 5 5.16c.56.07 2.58.32 5.37.54zm-6.48-1.72c-1.08-1-2.08-2-2.94-2.89 1.71.06 3.87.12 6.31.15h1.08c.35.54.7 1.06 1 1.56s.84 1.23 1.26 1.8l-.82-.06-1.39-.11c-2-.19-3.68-.38-4.44-.47zm-3.81-22.89c.53 1.18 1.26 2.74 2.14 4.52 2.49 0 5.42 0 8.51-.07-1-1.53-1.91-3-2.57-4.12l-.75-1.31-.18-.34-.29-.52h-.58c-2.7.07-5.18.14-7 .21l.15.34zm6.21-.71l.58 1c.47.84 1.09 1.89 1.83 3.05H56.9c-.64-1.31-1.18-2.47-1.62-3.42l-.28-.48zm2 18.64c-.47-.75-.94-1.52-1.42-2.33-.61-1.09-1.22-2.15-1.85-3.22-1.76 0-3.36 0-4.72-.05-1.91 0-3.37-.07-4.16-.1a25.2 25.2 0 0 0 1.29 5.11c0 .09.1.18.16.28 1 .05 4.24.2 8.55.27zM52.31 95a22.17 22.17 0 0 1-.81-3.16l4.38.08h2.51c.51.92 1 1.81 1.53 2.68l.38.63h-.9c-3.21-.03-5.77-.13-7.09-.23zm6.12-5.28c-.48-.89-1-1.76-1.38-2.61-.55-1.06-1.06-2.08-1.54-3h-4.79L49.16 84c.21 1.72.48 3.71.79 5.6l3.33.08c1.43.05 3.18.08 5.15.08zm-7.52-1.23c-.16-1-.33-2.17-.48-3.38h4.39c.38.77.76 1.52 1.16 2.27l.59 1.15-4-.07zm.87-5.49H55c-.86-1.77-1.56-3.28-2.06-4.4l-.55-1.23-.2-.45a13.6 13.6 0 0 0-1.56.1 2.13 2.13 0 0 0-1.49.73 2.59 2.59 0 0 0-.44 1.7s.15 1.45.38 3.44h1.39zM50 81.82c-.16-1.37-.24-2.31-.27-2.49a1.47 1.47 0 0 1 .21-.89 1 1 0 0 1 .67-.3h.07l.73-.05.38.84c.35.79.82 1.8 1.38 3h-3zm43.92-1.29a70.32 70.32 0 0 0-.39-7.06 1.89 1.89 0 0 0-.36-1 2.08 2.08 0 0 0-1.71-.89 2 2 0 0 0-.6.09 53.78 53.78 0 0 1-8.22 1.7c-3.7.53-14.47.81-22.34 1h-.08c-5.1.14-8.78.24-9.89.37a4.28 4.28 0 0 0-3 1.57 4.8 4.8 0 0 0-.89 3.29c.22 2.25 1.39 13.63 3 17.07 1 2.23 6.52 7.55 11 11.2 1.15.93 2.31 1.82 3.45 2.64l.95.63c5 3.5 9 5.26 11.94 5.26a6.14 6.14 0 0 0 .64 0h.17a6.39 6.39 0 0 0 1-.21h.07l.13-.05a7.11 7.11 0 0 0 5-4.84 5.51 5.51 0 0 0 1.16-.61 1.11 1.11 0 0 0 .27-1.55l-.53-.75a21 21 0 0 0 2.31-4.7 13.48 13.48 0 0 0 1.63-.77 1.11 1.11 0 0 0 .43-1.51l-.88-1.55c.27-1.06.52-2.2.75-3.41a10.08 10.08 0 0 0 2.77-1.35 1.11 1.11 0 0 0 .3-1.55l-.68-.91a1.08 1.08 0 0 0-1.51-.22l-.13.09c0-.11.13-.91.16-1.19l.21-.18A10.86 10.86 0 0 0 92 88.71a6.33 6.33 0 0 0 1.05-.71 1.12 1.12 0 0 0 .12-1.57l-.17-.19a19.7 19.7 0 0 0 .94-5.71zm-1.6 6.59a5.5 5.5 0 0 1-1.22.76 9.81 9.81 0 0 1-1.89 2.45c-.16.15-.33.27-.5.41-.05.43-.1.85-.16 1.28-.11.81-.23 1.58-.35 2.34a9.18 9.18 0 0 0 1.8-.77.54.54 0 0 1 .71.15.56.56 0 0 1-.12.78 11.75 11.75 0 0 1-2.56 1 53.42 53.42 0 0 1-1.38 5.88 10.71 10.71 0 0 0 1-.47l.28.51a.51.51 0 0 1-.19.7 13 13 0 0 1-1.48.62 19 19 0 0 1-2.87 5.59 3.77 3.77 0 0 1-.13.76 3.59 3.59 0 0 0 .48-.27l.33.47a.49.49 0 0 1-.11.68h-.06a6.38 6.38 0 0 1-.94.38 7 7 0 0 1-2.08 3.42 6 6 0 0 1-2.34 1.22h-.09a5.14 5.14 0 0 1-1.55.23c-3.23 0-7.65-2.51-11.34-5.09h-.05a77.45 77.45 0 0 1-4.24-3.19c-5-4-9.88-9-10.71-10.79-1.59-3.45-2.82-16.1-2.88-16.72a3.62 3.62 0 0 1 .66-2.5 3.18 3.18 0 0 1 2.24-1.15c1.06-.13 4.94-.23 9.85-.36 7.9-.21 18.71-.5 22.48-1a58 58 0 0 0 8-1.62l.44-.13a1 1 0 0 1 1.1.39.76.76 0 0 1 .15.38s.39 3.45.39 7a17.86 17.86 0 0 1-1.06 5.94zm-.44-6.61zm-1.45-6.36l-.79.2v.5c0 1.09 0 3.06-.11 5.52a5.38 5.38 0 0 0 2.28-1.26 51.36 51.36 0 0 0-.45-5.22zm-1.36 13.34a12.76 12.76 0 0 0 1.25-.49 15.28 15.28 0 0 0 1.4-6.46 10.14 10.14 0 0 1-2.23 1c-.09 1.81-.22 3.84-.42 5.95zM88.91 89c.16-.16.3-.33.44-.5l-.39.11zm-6.54-13.31a3.42 3.42 0 0 0 .08.48c.06.35.13.79.2 1.3.15 1.09.32 2.52.44 4.26l.44-.06a40.1 40.1 0 0 0 4.89-1c.1-2.36.13-4.28.13-5.47v-.62c-1.42.32-3.28.67-5.6 1zm5.06.29c0 1 0 2.32-.1 3.86-.93.22-2 .43-3.23.62v-.13c-.11-1.17-.23-2.16-.35-3a4.81 4.81 0 0 0-.1-.72c1.35-.17 2.58-.39 3.78-.61zm-4.27 6.86c.1 1.71.14 3.66.08 5.83a44.35 44.35 0 0 0 4.69-.86c.2-2.11.33-4.13.43-6a40.54 40.54 0 0 1-4.62.89zm4 .44c-.07 1.24-.16 2.46-.27 3.63-.75.17-1.6.33-2.53.47 0-1.21 0-2.41-.05-3.59 1-.15 2-.32 2.86-.5zM83.07 92a10.89 10.89 0 0 0 4.61-1.83l.13-1.2a45.08 45.08 0 0 1-4.63.82c-.02.73-.06 1.47-.11 2.21zm-.33 3.53a36.17 36.17 0 0 0 4.3-.81c.16-.95.3-1.9.44-2.82v-.28A13 13 0 0 1 83 93.13c-.09.8-.17 1.6-.26 2.39zM84 94.07a14.61 14.61 0 0 0 2.11-.6.78.78 0 0 1-.05.34c-.63.15-1.32.28-2.07.41a1 1 0 0 0 .01-.15zm-1.49 3.11c.07.55.16 1.15.24 1.78.16 1.1.33 2.31.45 3.55a21.48 21.48 0 0 0 2.1-.51 48.74 48.74 0 0 0 1.52-6.06 40.82 40.82 0 0 1-4.24.76c-.02.13-.05.3-.07.48zm2.88.16a37.74 37.74 0 0 1-1 3.73l-.25.07c-.1-.84-.22-1.64-.32-2.33-.06-.41-.11-.81-.16-1.18zm-2 9a20.54 20.54 0 0 0 1.43-3.05c-.49.13-1 .26-1.54.37a20.94 20.94 0 0 1 .13 2.64zM82 103.89l-.84.13c-.21.87-.43 1.74-.67 2.61s-.45 1.6-.69 2.39l-.27.88a5.68 5.68 0 0 0 2.3-1.51l.33-.36v-1.62a24.05 24.05 0 0 0-.09-2.54zM66.82 84c.4.52.81 1.06 1.23 1.58a27.17 27.17 0 0 0 3.95 4l2.28-.1c3.11-.17 5.69-.38 7.83-.64.06-2.09 0-4-.07-5.83-3.56.44-8 .75-13.13.94zm14.18.23c0 1.18.06 2.39 0 3.59-2 .21-4.29.39-6.82.52l-1.83.09a26.79 26.79 0 0 1-2.91-2.9L69 85c4.64-.14 8.65-.41 12-.77zm1.11 18.49q-.09-.94-.21-1.86c-.07.37-.14.74-.22 1.11s-.11.57-.18.85l.33-.05zM82 92.15c.06-.76.1-1.5.13-2.23-2.25.26-4.82.47-7.74.63h-.88a10.36 10.36 0 0 0 .9.52 8.89 8.89 0 0 0 3.84 1.14 23.67 23.67 0 0 0 3.75-.06zm-.09 1.12c-.75.07-1.52.13-2.35.13H78.2a9.76 9.76 0 0 1-3.76-1 15.4 15.4 0 0 1-2.74-1.69l-3 .1c-2.77.07-5.49.1-8 .1h-.35c.49.88 1 1.77 1.52 2.66s1.19 2 1.77 2.89h5.06c2.07 0 4-.09 5.8-.18 2.69-.13 5.08-.31 7.15-.56.07-.86.15-1.66.22-2.45zm-1.26 1.4c-1.83.2-3.9.35-6.17.46-1.8.09-3.74.15-5.8.18h-4.43c-.53-.84-1-1.6-1.43-2.35l-.58-1c2.25 0 4.42 0 6.45-.1l2.65-.08a15.27 15.27 0 0 0 3.11 1.79 10.6 10.6 0 0 0 3.68.87h2.53zm-1.45 16.48q-.51 1.5-1.08 3l.42-.16a4.72 4.72 0 0 0 2.46-1.86 5.78 5.78 0 0 0 .66-1.26l-.48.08c-.62 0-1.26.14-2 .19zM62.65 77.51c.21.38.47.82.75 1.3.69 1.19 1.6 2.61 2.6 4.09l3.16-.1c5.46-.21 9.63-.53 12.8-.92-.11-1.58-.27-3-.45-4.3-.06-.46-.13-.89-.19-1.3a1.08 1.08 0 0 0-.07-.47c-4.28.39-12.15.63-19.1.81zM80.33 77a5.21 5.21 0 0 0 .1.69c.14 1 .27 2.12.35 3.22-3.23.35-7.14.62-11.64.79l-2.55.08c-.72-1.06-1.38-2.1-1.93-3-.23-.39-.45-.75-.64-1.09 5.98-.18 12.29-.38 16.31-.69zm1.07 20.26a1.35 1.35 0 0 0-.05-.45q-3 .34-6.87.53-2.69.12-5.81.18h-4.36c1 1.52 2 2.91 2.92 4.15.43.57.85 1.11 1.27 1.62a76.93 76.93 0 0 0 11.84-.29c.45-2 .79-3.9 1.06-5.74zm-2 4.7a62.78 62.78 0 0 1-6.36.31h-.49c-1.13 0-2.32 0-3.54-.06-.86-1.08-1.75-2.28-2.65-3.57h2.3q3.09 0 5.81-.18 3.09-.15 5.66-.4c-.18 1.29-.42 2.61-.71 3.94zm-9.91 2.49a23 23 0 0 0 4.86 4.34 8.16 8.16 0 0 0 3 1.22 5.18 5.18 0 0 0 1 .06 1.38 1.38 0 0 1 .13-.39c.19-.58.37-1.15.53-1.72.4-1.3.74-2.58 1-3.84a65.31 65.31 0 0 1-7.45.38h-3zm8.16 4.13a1.54 1.54 0 0 1-.1.35 4.15 4.15 0 0 1-.69-.16 12.67 12.67 0 0 1-4.78-3.16h.52c2.16 0 4.16-.07 6-.23-.28 1.08-.6 2.14-.92 3.2zm-4.21 2.59c-2.19-.11-4.17-.3-5.45-.45 3.64 2.32 6.7 3.59 8.76 3.59h.06c.41-1 .8-2.07 1.15-3.1h-4.49zm2.62 2a11.72 11.72 0 0 1-2.91-.89h.24c1 .05 2 .08 3 .08zm-2-3.07h.21a15.94 15.94 0 0 1-2.82-2.1 31.71 31.71 0 0 1-3.45-3.6l-2.44-.13-1.94-.13c-1.94-.15-3.58-.31-4.72-.44l3 2.54c1.41 1.14 2.78 2.17 4.09 3.09a77.15 77.15 0 0 0 7.84.75zm-4.5-1.42c-1.55-.15-2.73-.3-3.25-.38-1.26-.89-2.54-1.86-3.82-2.9l-.28-.23 2.43.18 2.23.13h.49c.24.29.49.57.73.84a31.49 31.49 0 0 0 2.45 2.43zm.76-19a31.12 31.12 0 0 1-3.15-3.31c-.18-.21-.36-.44-.54-.66-.42-.54-.83-1.09-1.22-1.63-2.91.07-5.72.1-8.2.1h-.53c.44.87.9 1.79 1.4 2.74s1 1.92 1.55 2.91c2.73 0 5.79 0 8.92-.1zm-9.74-1h-.3c-.36-.67-.73-1.36-1.09-2.06q-.36-.67-.72-1.38c2.14 0 4.28 0 6.37-.08.16.21.3.41.46.6.33.44.66.86 1 1.27s.92 1.07 1.38 1.57c-2.16 0-4.55.06-7 .06zm3.77 14.42l2.59.16q-.84-1.06-1.71-2.28-1.14-1.59-2.31-3.42h-2.23c-3.71-.06-6.75-.18-8.33-.25a53.58 53.58 0 0 0 5 5.16c.56.07 2.58.32 5.37.54zm-6.48-1.72c-1.08-1-2.08-2-2.94-2.89 1.71.06 3.87.12 6.31.15h1.08c.35.54.7 1.06 1 1.56s.84 1.23 1.26 1.8l-.82-.06-1.39-.11c-2-.19-3.68-.38-4.44-.47zm-3.81-22.89c.53 1.18 1.26 2.74 2.14 4.52 2.49 0 5.42 0 8.51-.07-1-1.53-1.91-3-2.57-4.12l-.75-1.31-.18-.34-.29-.52h-.58c-2.7.07-5.18.14-7 .21l.15.34zm6.21-.71l.58 1c.47.84 1.09 1.89 1.83 3.05H56.9c-.64-1.31-1.18-2.47-1.62-3.42l-.28-.48zm2 18.64c-.47-.75-.94-1.52-1.42-2.33-.61-1.09-1.22-2.15-1.85-3.22-1.76 0-3.36 0-4.72-.05-1.91 0-3.37-.07-4.16-.1a25.2 25.2 0 0 0 1.29 5.11c0 .09.1.18.16.28 1 .05 4.24.2 8.55.27zM52.31 95a22.17 22.17 0 0 1-.81-3.16l4.38.08h2.51c.51.92 1 1.81 1.53 2.68l.38.63h-.9c-3.21-.03-5.77-.13-7.09-.23zm6.12-5.28c-.48-.89-1-1.76-1.38-2.61-.55-1.06-1.06-2.08-1.54-3h-4.79L49.16 84c.21 1.72.48 3.71.79 5.6l3.33.08c1.43.05 3.18.08 5.15.08zm-7.52-1.23c-.16-1-.33-2.17-.48-3.38h4.39c.38.77.76 1.52 1.16 2.27l.59 1.15-4-.07zm.87-5.49H55c-.86-1.77-1.56-3.28-2.06-4.4l-.55-1.23-.2-.45a13.6 13.6 0 0 0-1.56.1 2.13 2.13 0 0 0-1.49.73 2.59 2.59 0 0 0-.44 1.7s.15 1.45.38 3.44h1.39zM50 81.82c-.16-1.37-.24-2.31-.27-2.49a1.47 1.47 0 0 1 .21-.89 1 1 0 0 1 .67-.3h.07l.73-.05.38.84c.35.79.82 1.8 1.38 3h-3zm2.88-3.22l-.55-1.23-.2-.45a13.6 13.6 0 0 0-1.56.1 2.13 2.13 0 0 0-1.49.73 2.59 2.59 0 0 0-.44 1.7s.15 1.45.38 3.44h2.75L55 83c-.9-1.76-1.6-3.28-2.1-4.39zm-1.4 3.24H50c-.16-1.37-.24-2.31-.27-2.49a1.47 1.47 0 0 1 .21-.89 1 1 0 0 1 .67-.3h.07l.73-.05.38.84c.35.79.82 1.8 1.38 3zM57 87.15c-.55-1.06-1.06-2.08-1.54-3h-4.79L49.16 84c.21 1.72.48 3.71.79 5.6l3.33.08c1.42 0 3.17.06 5.14.07-.42-.87-.94-1.75-1.42-2.6zm-4.52 1.42h-1.62c-.16-1-.33-2.17-.48-3.38h4.39c.38.77.76 1.52 1.16 2.27l.59 1.15zm8.34 5.52c-.58-1.09-1.19-2.15-1.82-3.22-1.76 0-3.36 0-4.72-.05-1.91 0-3.37-.07-4.16-.1a25.2 25.2 0 0 0 1.29 5.11c0 .09.1.18.16.28 1 .05 4.24.2 8.55.27h2.15c-.46-.71-.92-1.48-1.4-2.29zm-1.42 1.18c-3.22-.07-5.77-.17-7.1-.23a22.17 22.17 0 0 1-.81-3.16l4.38.08h2.51c.51.92 1 1.81 1.53 2.68l.38.63zm2.73-16.45l-.75-1.31-.18-.34-.29-.52h-.58c-2.7.07-5.18.14-7 .21l.15.34.58 1.27c.53 1.18 1.26 2.74 2.14 4.52 2.49 0 5.42 0 8.51-.07a50.426 50.426 0 0 1-2.58-4.1zm-4.76 3.08h-.48c-.64-1.31-1.18-2.47-1.62-3.42l-.27-.55 5.25-.15.58 1c.47.84 1.09 1.89 1.83 3.05-1.66.06-3.49.07-5.29.07zM65.3 101q-1.14-1.59-2.3-3.42h-2.24c-3.71-.06-6.75-.18-8.33-.25a53.58 53.58 0 0 0 5 5.16c.56.07 2.58.32 5.37.54l1.6.13 2.59.16zm-1.45 1l-1.39-.11c-2.14-.18-3.77-.37-4.53-.46-1.08-1-2.08-2-2.94-2.89 1.71.06 3.87.12 6.31.15h1.08c.35.54.7 1.06 1 1.56s.84 1.23 1.26 1.8zm3.38-15.62c-.18-.21-.36-.44-.54-.66-.42-.54-.83-1.09-1.22-1.63-2.91.07-5.72.1-8.2.1h-.53c.44.87.9 1.79 1.4 2.74s1 1.92 1.55 2.91c2.73 0 5.79 0 8.92-.1l1.77-.05a31.12 31.12 0 0 1-3.15-3.38zm-6.59 2.35h-.3c-.36-.67-.73-1.36-1.09-2.06q-.36-.67-.72-1.38c2.14 0 4.28 0 6.37-.08.16.21.3.41.46.6.33.44.66.86 1 1.27s.92 1.07 1.38 1.57h-7.09zM71.45 108a31.71 31.71 0 0 1-3.45-3.6l-2.44-.13-1.94-.13c-1.94-.15-3.58-.31-4.72-.44l3 2.54c1.41 1.14 2.78 2.17 4.09 3.09a77.15 77.15 0 0 0 7.84.75h.56a15.94 15.94 0 0 1-2.94-2.08zm-1.83.64c-1.55-.15-2.73-.3-3.25-.38-1.26-.89-2.54-1.86-3.82-2.9l-.28-.23 2.43.18 2.23.13h.49c.24.29.49.57.73.84a31.49 31.49 0 0 0 2.45 2.43zm6.75 2.58c-.9 0-1.87 0-2.9-.07-2.19-.11-4.17-.3-5.45-.45 3.64 2.32 6.7 3.59 8.76 3.59h.06c.41-1 .8-2.07 1.15-3.1h-1.62zm-.28 1.91a11.72 11.72 0 0 1-2.91-.89h.24c1 .05 2 .08 3 .08zm-3.47-8.64c-1 0-2 0-3.11-.05a23 23 0 0 0 4.86 4.34 8.16 8.16 0 0 0 3 1.22 5.18 5.18 0 0 0 1 .06 1.38 1.38 0 0 1 .13-.39c.19-.58.37-1.15.53-1.72.4-1.3.74-2.58 1-3.84a65.31 65.31 0 0 1-7.41.4zm5 4.42a4.15 4.15 0 0 1-.69-.16 12.67 12.67 0 0 1-4.78-3.16h.52c2.16 0 4.16-.07 6-.23-.28 1.07-.59 2.14-.92 3.19a1.12 1.12 0 0 0-.17.38zm3.53 2c-.58.1-1.23.18-1.94.24q-.51 1.5-1.08 3l.42-.16a4.72 4.72 0 0 0 2.45-1.86 5.78 5.78 0 0 0 .66-1.26zm.43-33.32c-.06-.46-.13-.89-.19-1.3a1.08 1.08 0 0 0-.07-.47c-4.28.39-12.15.63-19.1.81l.48.87c.21.38.47.82.75 1.3.64 1.2 1.55 2.62 2.55 4.1l3.16-.1c5.46-.21 9.63-.53 12.8-.92-.09-1.58-.24-3-.43-4.29zM69.15 81.7l-2.55.08c-.72-1.06-1.38-2.1-1.93-3-.23-.39-.45-.75-.64-1.09 6-.16 12.29-.37 16.31-.68a5.21 5.21 0 0 0 .1.69c.14 1 .27 2.12.35 3.22-3.23.34-7.14.61-11.64.78zm12.2 15.11q-3 .34-6.87.53-2.69.12-5.81.18h-4.36c1 1.52 2 2.91 2.92 4.15.43.57.85 1.11 1.27 1.62a76.93 76.93 0 0 0 11.84-.29c.44-2 .79-3.87 1.06-5.72-.02-.18-.04-.28-.05-.47zM79.42 102a62.78 62.78 0 0 1-6.36.31h-.49c-1.13 0-2.32 0-3.54-.06-.86-1.08-1.75-2.28-2.65-3.57h2.3q3.09 0 5.81-.18 3.09-.15 5.66-.4c-.2 1.25-.44 2.57-.73 3.9zm.1-8.57h-1.36a9.76 9.76 0 0 1-3.76-1 15.4 15.4 0 0 1-2.74-1.69l-3 .1c-2.77.07-5.49.1-8 .1h-.35c.49.88 1 1.77 1.52 2.66s1.19 2 1.77 2.89h5.06c2.07 0 4-.09 5.8-.18 2.69-.13 5.08-.31 7.15-.56.1-.81.18-1.61.26-2.4h-2.35zm1.09 1.27c-1.83.2-3.9.35-6.17.46-1.8.09-3.74.15-5.8.18h-4.43c-.53-.84-1-1.6-1.43-2.35l-.58-1c2.25 0 4.42 0 6.45-.1l2.65-.08a15.27 15.27 0 0 0 3.11 1.79 10.6 10.6 0 0 0 3.68.87h2.53zm-6.26-4.11h-.88a10.36 10.36 0 0 0 .9.52 8.89 8.89 0 0 0 3.84 1.14 23.67 23.67 0 0 0 3.75-.1c.06-.76.1-1.5.13-2.23-2.24.26-4.82.48-7.74.63zm7.54 10.31c-.07.37-.14.74-.22 1.11s-.11.57-.18.85l.33-.05.29-.05c-.11-.67-.11-1.29-.22-1.9zm.17-17.9c-3.56.44-8 .75-13.13.94l-2.11.06c.4.52.81 1.06 1.23 1.58a27.17 27.17 0 0 0 3.95 4l2.28-.1c3.11-.17 5.69-.38 7.83-.64.08-2.12.04-4.07-.05-5.84zm-7.84 5.36l-1.83.09a26.79 26.79 0 0 1-2.91-2.9L69 85c4.59-.17 8.61-.44 12-.81 0 1.18.06 2.39 0 3.59-2 .22-4.24.43-6.78.56zm8 15.48h-.16l-.84.13c-.21.87-.43 1.74-.67 2.61s-.45 1.6-.69 2.39l-.27.88a5.68 5.68 0 0 0 2.3-1.51l.33-.36v-1.62a13.37 13.37 0 0 0 0-2.53zm1.09-.21c.07.89.11 1.8.1 2.68a20.54 20.54 0 0 0 1.43-3.05c-.48.12-1 .25-1.53.36zm-.72-7a4.63 4.63 0 0 1-.07.52c.07.55.16 1.15.24 1.78.16 1.1.33 2.31.45 3.55q1.06-.19 2.09-.48a48.74 48.74 0 0 0 1.52-6.06 40.82 40.82 0 0 1-4.24.72zm1.83 4.37l-.25.07c-.1-.84-.22-1.64-.32-2.33-.06-.41-.11-.81-.16-1.18l1.71-.28c-.3 1.37-.63 2.62-1 3.75zM83 93.13c-.07.8-.14 1.6-.24 2.4a36.17 36.17 0 0 0 4.3-.81c.16-.95.3-1.9.44-2.82v-.28a13 13 0 0 1-4.5 1.51zm3.08.68c-.63.15-1.32.28-2.07.41a1 1 0 0 0 0-.15 14.61 14.61 0 0 0 2.11-.6c0 .12 0 .23-.06.34zm-2.87-4c0 .74-.07 1.48-.12 2.21a10.89 10.89 0 0 0 4.61-1.83l.13-1.2a45.08 45.08 0 0 1-4.64.8zm.55-7l-.58.08c.1 1.71.14 3.66.08 5.83a44.35 44.35 0 0 0 4.74-.86c.2-2.11.33-4.13.43-6a40.54 40.54 0 0 1-4.64.9zM86.92 87c-.75.17-1.6.33-2.53.47 0-1.21 0-2.41-.05-3.59 1-.16 2-.33 2.85-.51-.09 1.19-.19 2.41-.29 3.58zm-4-11.3l-.58.07a3.42 3.42 0 0 0 .08.48c.06.35.13.79.2 1.3.15 1.09.32 2.52.44 4.26l.44-.06a40.1 40.1 0 0 0 4.89-1c.1-2.36.13-4.28.13-5.47v-.62c-1.4.3-3.25.66-5.58 1zm4.39 4.22c-.93.22-2 .43-3.23.62v-.13c-.11-1.17-.23-2.16-.35-3a4.81 4.81 0 0 0-.1-.72c1.32-.2 2.6-.42 3.79-.66 0 1 0 2.3-.08 3.84zM89 88.66v.39c.16-.16.3-.33.44-.5zm.52-7.12c-.09 1.81-.21 3.84-.41 6a12.76 12.76 0 0 0 1.21-.54 15.28 15.28 0 0 0 1.4-6.46 10.14 10.14 0 0 1-2.23 1zm1.88-7.66l-.92.27-.79.2v.5c0 1.09 0 3.06-.11 5.52a5.38 5.38 0 0 0 2.28-1.26 51.36 51.36 0 0 0-.49-5.23zm.47 6.62zm0 0zm-.47-6.62l-.92.27-.79.2v.5c0 1.09 0 3.06-.11 5.52a5.38 5.38 0 0 0 2.28-1.26 51.36 51.36 0 0 0-.49-5.23zm-1.88 7.66c-.09 1.81-.21 3.84-.41 6a12.76 12.76 0 0 0 1.21-.54 15.28 15.28 0 0 0 1.4-6.46 10.14 10.14 0 0 1-2.23 1zM89 88.66v.39c.16-.16.3-.33.44-.5zm-6-13l-.58.07a3.42 3.42 0 0 0 .08.48c.06.35.13.79.2 1.3.15 1.09.32 2.52.44 4.26l.44-.06a40.1 40.1 0 0 0 4.89-1c.1-2.36.13-4.28.13-5.47v-.62c-1.48.31-3.33.67-5.66 1zm4.39 4.22c-.93.22-2 .43-3.23.62v-.13c-.11-1.17-.23-2.16-.35-3a4.81 4.81 0 0 0-.1-.72c1.32-.2 2.6-.42 3.79-.66-.08 1-.11 2.31-.16 3.85zM83.8 82.8l-.58.08c.1 1.71.14 3.66.08 5.83a44.35 44.35 0 0 0 4.7-.86c.2-2.11.33-4.13.43-6a40.54 40.54 0 0 1-4.68.91zM87 87c-.75.17-1.6.33-2.53.47 0-1.21 0-2.41-.05-3.59 1-.16 2-.33 2.85-.51-.13 1.2-.23 2.42-.33 3.59zm-3.71 2.87c0 .74-.07 1.48-.12 2.21a10.89 10.89 0 0 0 4.61-1.83l.13-1.2a45.08 45.08 0 0 1-4.68.78zM83 93.13c-.07.8-.14 1.6-.24 2.4a36.17 36.17 0 0 0 4.3-.81c.16-.95.3-1.9.44-2.82v-.28a13 13 0 0 1-4.5 1.51zm3.08.68c-.63.15-1.32.28-2.07.41a1 1 0 0 0 0-.15 14.61 14.61 0 0 0 2.11-.6c0 .12 0 .23-.06.34zm-3.47 2.85a4.63 4.63 0 0 1-.07.52c.07.55.16 1.15.24 1.78.16 1.1.33 2.31.45 3.55q1-.2 2.07-.51a48.74 48.74 0 0 0 1.52-6.06 40.82 40.82 0 0 1-4.24.72zm1.83 4.41l-.25.07c-.1-.84-.22-1.64-.32-2.33-.06-.41-.11-.81-.16-1.18l1.71-.28c-.32 1.34-.65 2.59-1 3.72zm-1.11 2.55c.07.89.11 1.8.1 2.68a20.54 20.54 0 0 0 1.43-3.05c-.5.13-1 .26-1.55.37zm-1.09.21h-.16l-.84.13c-.21.87-.43 1.74-.67 2.61s-.45 1.6-.69 2.39l-.27.88a5.68 5.68 0 0 0 2.3-1.51l.33-.36v-1.62a15.19 15.19 0 0 0 0-2.52zM82.06 83c-3.56.44-8 .75-13.13.94l-2.11.06c.4.52.81 1.06 1.23 1.58a27.17 27.17 0 0 0 3.95 4l2.28-.1c3.11-.17 5.69-.38 7.83-.64.08-2.12.04-4.07-.05-5.84zm-7.84 5.36l-1.83.09a26.79 26.79 0 0 1-2.91-2.9L69 85c4.59-.17 8.61-.44 12-.81 0 1.18.06 2.39 0 3.59-2 .22-4.24.43-6.78.56zm7.67 12.52c-.07.37-.14.74-.22 1.11s-.11.57-.18.85l.33-.05.29-.05c-.11-.65-.11-1.27-.22-1.88zm-7.54-10.33h-.88a10.36 10.36 0 0 0 .9.52 8.89 8.89 0 0 0 3.84 1.14 23.67 23.67 0 0 0 3.75-.1c.06-.76.1-1.5.13-2.23q-3.36.45-7.74.67zm5.17 2.84h-1.36a9.76 9.76 0 0 1-3.76-1 15.4 15.4 0 0 1-2.74-1.69l-3 .1c-2.77.07-5.49.1-8 .1h-.35c.49.88 1 1.77 1.52 2.66s1.19 2 1.77 2.89h5.06c2.07 0 4-.09 5.8-.18 2.69-.13 5.08-.31 7.15-.56.1-.81.18-1.61.26-2.4-.74.03-1.52.08-2.35.08zm1.09 1.27c-1.83.2-3.9.35-6.17.46-1.8.09-3.74.15-5.8.18h-4.43c-.53-.84-1-1.6-1.43-2.35l-.58-1c2.25 0 4.42 0 6.45-.1l2.65-.08a15.27 15.27 0 0 0 3.11 1.79 10.6 10.6 0 0 0 3.68.87h2.53zm.73 2.14q-3 .34-6.87.53-2.69.12-5.81.18H64.3c1 1.52 2 2.91 2.92 4.15.43.57.85 1.11 1.27 1.62a76.93 76.93 0 0 0 11.85-.28c.44-2 .79-3.87 1.06-5.72v-.47zm-1.92 5.2a62.78 62.78 0 0 1-6.36.31h-.49c-1.13 0-2.32 0-3.54-.06-.86-1.08-1.75-2.28-2.65-3.57h2.3q3.09 0 5.81-.18 3.09-.15 5.66-.4c-.2 1.25-.44 2.57-.73 3.9zm2.11-24.38c-.06-.46-.13-.89-.19-1.3a1.08 1.08 0 0 0-.07-.47c-4.28.39-12.15.63-19.1.81l.48.87c.21.38.47.82.75 1.3.69 1.17 1.6 2.59 2.6 4.07l3.16-.1c5.46-.21 9.63-.53 12.8-.92-.09-1.58-.24-3-.43-4.29zM69.15 81.7l-2.55.08c-.72-1.06-1.38-2.1-1.93-3-.23-.39-.45-.75-.64-1.09 6-.16 12.29-.37 16.31-.68a5.21 5.21 0 0 0 .1.69c.14 1 .27 2.12.35 3.22-3.23.34-7.14.61-11.64.78zm12 29.21c-.58.1-1.23.18-1.94.24q-.51 1.5-1.08 3l.42-.16a4.72 4.72 0 0 0 2.45-1.86 5.78 5.78 0 0 0 .66-1.26zm-8.48-6.4c-1 0-2 0-3.11-.05a23 23 0 0 0 4.86 4.34 8.16 8.16 0 0 0 3 1.22 5.18 5.18 0 0 0 1 .06 1.38 1.38 0 0 1 .13-.39c.19-.58.37-1.15.53-1.72.4-1.3.74-2.58 1-3.84a65.31 65.31 0 0 1-7.46.38zm5 4.42a4.15 4.15 0 0 1-.69-.16 12.67 12.67 0 0 1-4.78-3.16h.52c2.16 0 4.16-.07 6-.23-.28 1.07-.59 2.14-.92 3.19a.62.62 0 0 0-.22.36zm-1.21 2.31c-.9 0-1.87 0-2.9-.07-2.19-.11-4.17-.3-5.45-.45 3.64 2.32 6.7 3.59 8.76 3.59h.06c.41-1 .8-2.07 1.15-3.1h-1.71zm-.28 1.91a11.72 11.72 0 0 1-2.91-.89h.24c1 .05 2 .08 3 .08zM71.45 108a31.71 31.71 0 0 1-3.45-3.6l-2.44-.13-1.94-.13c-1.94-.15-3.58-.31-4.72-.44l3 2.54c1.41 1.14 2.78 2.17 4.09 3.09a77.15 77.15 0 0 0 7.84.75h.56a15.94 15.94 0 0 1-2.94-2.08zm-1.83.64c-1.55-.15-2.73-.3-3.25-.38-1.26-.89-2.54-1.86-3.82-2.9l-.28-.23 2.43.18 2.23.13h.49c.24.29.49.57.73.84a31.49 31.49 0 0 0 2.45 2.43zm-2.39-22.33c-.18-.21-.36-.44-.54-.66-.42-.54-.83-1.09-1.22-1.63-2.91.07-5.72.1-8.2.1h-.53c.44.87.9 1.79 1.4 2.74s1 1.92 1.55 2.91c2.73 0 5.79 0 8.92-.1l1.77-.05a31.12 31.12 0 0 1-3.15-3.31zm-6.59 2.35h-.3c-.34-.66-.73-1.36-1.09-2.06q-.36-.67-.72-1.38c2.14 0 4.28 0 6.37-.08.16.21.3.41.46.6.33.44.66.86 1 1.27s.92 1.07 1.38 1.57c-2.22.06-4.61.08-7.09.08zM65.3 101q-1.14-1.59-2.3-3.42h-2.24c-3.71-.06-6.75-.18-8.33-.25a53.58 53.58 0 0 0 5 5.16c.56.07 2.58.32 5.37.54l1.6.13 2.59.16zm-1.45 1l-1.39-.11c-2.14-.18-3.77-.37-4.53-.46-1.08-1-2.08-2-2.94-2.89 1.71.06 3.87.12 6.31.15h1.08c.35.54.7 1.06 1 1.56s.84 1.23 1.26 1.8zm-1.72-23.18l-.75-1.31-.18-.34-.29-.52h-.58c-2.7.07-5.18.14-7 .21l.15.34.58 1.27c.53 1.18 1.26 2.74 2.14 4.52 2.49 0 5.42 0 8.51-.07a50.426 50.426 0 0 1-2.58-4.1zm-4.76 3.08h-.48c-.64-1.31-1.18-2.47-1.62-3.42l-.27-.55 5.25-.15.58 1c.47.84 1.09 1.89 1.83 3.05-1.66.06-3.49.07-5.29.07zm3.5 12.18c-.63-1.08-1.24-2.14-1.87-3.21-1.76 0-3.36 0-4.72-.05-1.91 0-3.37-.07-4.16-.1a25.2 25.2 0 0 0 1.29 5.11c0 .09.1.18.16.28 1 .05 4.24.2 8.55.27h2.15c-.46-.71-.92-1.48-1.4-2.29zm-1.47 1.19c-3.22-.07-5.77-.17-7.1-.23a22.17 22.17 0 0 1-.81-3.16l4.38.08h2.51c.51.92 1 1.81 1.53 2.68l.38.63zM57 87.15c-.55-1.06-1.06-2.08-1.54-3h-4.79L49.16 84c.21 1.72.48 3.71.79 5.6l3.33.08c1.42 0 3.17.06 5.14.07-.42-.87-.94-1.75-1.42-2.6zm-4.52 1.42h-1.62c-.16-1-.33-2.17-.48-3.38h4.39c.38.77.76 1.52 1.16 2.27l.59 1.15zm.37-10l-.55-1.23-.2-.45a13.6 13.6 0 0 0-1.56.1 2.13 2.13 0 0 0-1.49.73 2.59 2.59 0 0 0-.44 1.7s.15 1.45.38 3.44h2.75L55 83c-.9-1.76-1.6-3.28-2.1-4.39zm-1.4 3.24H50c-.16-1.37-.24-2.31-.27-2.49a1.47 1.47 0 0 1 .21-.89 1 1 0 0 1 .67-.3h.07l.73-.05.38.84c.35.79.82 1.8 1.38 3z"/></g></g></g></g></g></svg>