<svg xmlns="http://www.w3.org/2000/svg" viewBox="-1.3178868293762207 -0.0908193588256836 245.4163360595703 284.64276123046875"><title>Depositphotos_54179167_09</title><g data-name="Layer 2"><g data-name="Layer 1"><path d="M68.78 192.6a11.54 11.54 0 0 1-7.3-2.5l-57.6-46a11.49 11.49 0 0 1-1.1-16.1 11.32 11.32 0 0 1 15.3-1.7l48 38.3 31.7-46.2a11.44 11.44 0 0 1 18.9 12.9l-38.6 56.3a11.45 11.45 0 0 1-9.3 5z" fill="#fed9b5"/><path d="M183.68 235.9l-85.5 1.2-1.6-112a12.72 12.72 0 0 1 12.5-12.9l60.2-.9a12.72 12.72 0 0 1 12.9 12.5z" fill="#00a396"/><path d="M80 54.8a47.91 47.91 0 1 0 49.4-48.6h-2.2a50.76 50.76 0 0 0-11.7 1.6 48.12 48.12 0 0 0-35.5 47z" fill="#fed9b5"/><path d="M184 235.9l-21.2.3-21.8.3-20.8.3-22.2.3L85.28 280a163.07 163.07 0 0 0 38.7 4.5h2.8l4.9-16.5a10.17 10.17 0 0 1 9.7-7.3h.1a10.24 10.24 0 0 1 9.9 7l4.5 13.7a162.11 162.11 0 0 0 39-12.8z" fill="#d16828"/><path d="M169.48 110.9l-17.7.2.22 15.9a24.88 24.88 0 0 0 25.2 24.5l5.6-.1-.4-28a12.72 12.72 0 0 0-12.92-12.5z" fill="#fed9b5"/><path d="M213.18 233.3a11.4 11.4 0 0 1-11.6-11.2 10.32 10.32 0 0 1 .4-3l16.1-63.3-53.6-20.4a11.39 11.39 0 1 1 8.1-21.3l63.1 24a11.46 11.46 0 0 1 7 13.5L224 224.8a11.34 11.34 0 0 1-10.82 8.5z" fill="#fed9b5"/><path d="M104 112.9l.3 22.3a17.71 17.71 0 0 0 17.9 17.4h1.2a17.65 17.65 0 0 0 17.4-17.9l-.3-23.3-31.5.4a11.81 11.81 0 0 0-5 1.1z" fill="#fed9b5"/><path d="M153.68 0a21.36 21.36 0 0 1 21.7 21.1l.5 35.9-9.7.1-.1-9.4a8.73 8.73 0 0 0-8.7-8.5l-58.9.8a30.27 30.27 0 0 1-31-29.8l-.1-8.9z" fill="#d16828"/><path fill="#84cfcc" d="M183.18 178.8h-26.1v14h26.3l-.2-14z"/><path fill="#84cfcc" d="M96.91 161.141l60.694-.868.747 52.194-60.694.869z"/><path d="M123.88 175.3l-3 3.1-3.1-3a7.85 7.85 0 0 0-11 .1l-.1.1a7.85 7.85 0 0 0 .1 11l3.1 3 11.3 10.9 10.9-11.3 3-3.1a7.85 7.85 0 0 0-.1-11l-.1-.1a8 8 0 0 0-11 .3z" fill="#00a396"/></g></g></svg>