<svg xmlns="http://www.w3.org/2000/svg" viewBox="0 0 153 102.12999725341797"><title>Depositphotos_67558171_05</title><g data-name="Layer 2"><g data-name="Layer 1"><g data-name="Layer 2"><g data-name="ÎÓÈ 1"><path fill="#84cfcc" d="M96.13 36.09L1.81 88.61l6.52 11.72 94.33-52.53 24.01 4.44.08-.04 6.16-3.43 14.37-8 3.03-4.23-5.19.35-14.37 8.01-2.72-4.89 14.37-8 3.03-4.23-5.18.35-14.38 8.01-2.72-4.89 14.38-8 3.03-4.22-5.19.35-14.37 8-2.72-4.88 14.38-8 3.02-4.23-5.19.35-14.37 8-2.72-4.88 14.38-8 3.03-4.23-5.19.35-14.37 8.01-6.17 3.43-.08.04-8.87 22.75z"/><path d="M7.81 102.13L0 88.09l95.07-52.93 8.87-22.74 6.66-3.71L125.23.56l8.3-.56-4.86 6.78-.3.15-13.16 7.33 1.43 2.56 13.48-7.5 8.29-.55-4.84 6.75L120.08 23l1.43 2.56L135 18.07l8.29-.56-4.84 6.75L125 31.77l1.43 2.56 13.48-7.5 8.29-.56-4.89 6.73-13.48 7.5 1.43 2.57 13.48-7.5L153 35l-5 6.91-.31.08L127 53.59h-.55l-23.57-4.39zm-4.2-13l5.23 9.4 93.58-52.11 24 4.44 19.94-11.1 1.21-1.69-2.08.14-15.27 8.5-4-7.2L141.5 31l1.22-1.7-2.08.14-15.28 8.51-4-7.2 15.28-8.5 1.21-1.69-2.08.14-15.28 8.5-4-7.2 15.28-8.5 1.23-1.7-2.09.14-15.3 8.49-4-7.2 15.28-8.51 1.2-1.72-2.09.17-19.94 11.1L97.2 37z" fill="#414042"/><path d="M7.81 102.13L0 88.09l95.07-52.93 8.87-22.74 6.66-3.71L125.23.56l8.3-.56-4.86 6.78-.3.15-13.16 7.33 1.43 2.56 13.48-7.5 8.29-.55-4.84 6.75L120.08 23l1.43 2.56L135 18.07l8.29-.56-4.84 6.75L125 31.77l1.43 2.56 13.48-7.5 8.29-.56-4.89 6.73-13.48 7.5 1.43 2.57 13.48-7.5L153 35l-4.95 6.9-.3.08L127 53.59h-.55l-23.57-4.39zm-4.2-13l5.23 9.4 93.58-52.11 24 4.44 19.94-11.1 1.21-1.69-2.08.14-15.27 8.5-4-7.2L141.5 31l1.22-1.7-2.08.14-15.28 8.51-4-7.2 15.28-8.5 1.21-1.69-2.08.14-15.28 8.5-4-7.2 15.28-8.5 1.23-1.7-2.09.14-15.3 8.49-4-7.2 15.28-8.51 1.2-1.72-2.09.17-19.94 11.1L97.2 37z" fill="#fff"/></g></g></g></g></svg>