<svg xmlns="http://www.w3.org/2000/svg" viewBox="0 0 1683.780029296875 689.989990234375"><title>Depositphotos_89071528_01</title><g data-name="Layer 2"><g data-name="Layer 1"><path fill="#231f20" d="M52.85 297.67L0 390.33V544.6h26.43l12.3-141.25L126.62 305l-73.77-7.33z"/><path fill="#58595b" d="M63.31 309.97l-49.17 81.84v94.56l13.34-90.18 68.62-81.51-32.79-4.71z"/><path fill="#6d6e71" d="M945.17 24.91l-48.64 11.03 3.33 15.63 31.51-9.25 17.79 22.27-17.48 66.97 22.08 52.48 31.69-5.94 17.75-97.42-58.03-55.77z"/><path fill="#bcbec0" d="M990.83 85.44l-41.08-39.49 11.91 14.92-17.84 68.35 17.99 42.77 13.72-2.57 15.3-83.98z"/><path fill="#231f20" d="M164.03 206.78l-30.61 85.53 97.31 12.95-66.7-98.48z"/><path fill="#f04c23" d="M176.78 194.02l-30.61 85.54 97.31 12.95-66.7-98.49z"/><path fill="#231f20" d="M1326.99 114.3l21.58 9.17v80.75l-21.58 8.23V114.3z"/><path fill="#f9ed32" d="M1325.56 117.51l20.52 8.23V203l-20.52 7.31v-92.8z"/><path d="M559 565.94a18.83 18.83 0 0 0-19-18.69l-16 .12a18.82 18.82 0 0 0-16.35 9.76l-37.22-20.53 6.57-11.91-98.52-54.25-16.64 30.21 98.53 54.25 6.55-11.9 38.56 21.23a18.78 18.78 0 0 0-.11 2.12l.28 37.33a18.84 18.84 0 0 0 19 18.69l16-.12a18.83 18.83 0 0 0 18.69-19z" fill="#939598"/><path fill="#231f20" d="M201.977 574.295l13.929-11.946 16.868 19.667-13.928 11.946z"/><path fill="#231f20" d="M247.794 535.002l64.122-55.018 16.872 19.664-64.122 55.018z"/><path fill="#231f20" d="M217.446 574.429l53.53-45.848 3.558 4.155-53.53 45.847z"/><path fill="#231f20" d="M428.668 578.275l18.536-15.899 22.454 26.18-18.536 15.898z"/><path fill="#231f20" d="M489.647 525.939l85.357-73.237 22.46 26.175-85.358 73.237z"/><path fill="#231f20" d="M449.212 578.579l71.243-61.062 4.744 5.535-71.243 61.062z"/><path d="M558.26 433.41c0 11.71-6.92 21.2-15.46 21.2H409.58c-8.54 0-15.47-9.49-15.47-21.2v-6.9c0-11.71 6.92-21.2 15.47-21.2h133.21c8.54 0 15.46 9.49 15.46 21.2z" fill="#231f20"/><path d="M208.2 558.6h16a18.83 18.83 0 0 1 18.8 18.83v37.33a18.83 18.83 0 0 1-18.83 18.83h-16a18.84 18.84 0 0 1-18.84-18.84v-37.32a18.83 18.83 0 0 1 18.87-18.83z" fill="#231f20"/><rect x="420.91" y="558.6" width="53.67" height="75" rx="18.83" ry="18.83" fill="#231f20"/><path fill="#231f20" d="M576.096 578.279l18.536-15.899 22.454 26.18-18.536 15.898z"/><path fill="#231f20" d="M637.069 525.933l85.357-73.237 22.459 26.175-85.357 73.238z"/><path fill="#231f20" d="M596.655 578.482l71.222-61.087 4.746 5.533-71.221 61.087z"/><rect x="568.33" y="558.6" width="53.67" height="75" rx="18.83" ry="18.83" fill="#231f20"/><path d="M169.82 619.56l-23 46.6H561.1l140.61-43.21s-.93-21.81-24.48-22.22-298 0-298 0H169.82z" fill="#939598"/><path d="M172.07 650.46l13.45-27.24v-6.8h193.72c1.24 0 123-.18 210.28-.18 40.51 0 67.4 0 80.24.11l-111 34.11z" fill="#bcbec0"/><path d="M145.82 562.37A54.92 54.92 0 1 0 177 633.48a54.92 54.92 0 0 0-31.18-71.11zm-43.12 25.81a34.44 34.44 0 0 1 3.49-2.79 3.13 3.13 0 0 1 2.44 1.28l5.65 7 .3.37 3.64 4.55c1 1.24 1.07 2.83.18 3.54l-2 1.58c-.9.72-2.43.29-3.42-.95l-3.64-4.54-.31-.39-5.64-7a3.12 3.12 0 0 1-.69-2.65zm17.61 47.63l-3 7.57c-.58 1.48-1.91 2.34-3 1.93l-2.35-.92c-1.07-.42-1.47-2-.89-3.43l3-7.69.27-.69 2.3-5.92c.58-1.48 1.91-2.34 3-1.92l2.35.91c1.07.42 1.47 2 .89 3.43l-2.34 6zm7.87-38.73l2.35-6 3.21-8.24a2.86 2.86 0 0 1 2.44-2c.72.23 1.44.47 2.16.75l1.08.45a2.8 2.8 0 0 1 .54 3.24l-3.16 8.11-2.41 6.18c-.58 1.48-1.91 2.34-3 1.92l-2.35-.91c-1.04-.47-1.44-2.01-.86-3.5zm20.66 15.79l-.78.12-6.32 1c-1.57.24-3-.49-3.16-1.62l-.38-2.49c-.17-1.13 1-2.25 2.53-2.49l6.21-1 .74-.11 8.21-1.26c1.57-.24 3 .48 3.16 1.62l.38 2.5c.17 1.13-1 2.25-2.53 2.49zm6.86-12.35l-9.94 1.48a22.87 22.87 0 0 0-5.14-6.12l3.72-9.54a4.85 4.85 0 0 0 .33-1.61 34.28 34.28 0 0 1 13 15.86 4.87 4.87 0 0 0-1.97-.07zm-23 23.47l2-1.58c.89-.72 2.43-.3 3.42.94l4.63 5.78 5 6.19c1 1.24 1.07 2.83.18 3.54l-2 1.58c-.9.72-2.43.29-3.42-.94l-5-6.19-4.64-5.78c-.98-1.23-1.06-2.81-.16-3.53zm19.81 11.22a4.86 4.86 0 0 0-1-2.3l-6-7.48a22.85 22.85 0 0 0 3-8l9.56-1.46a4.93 4.93 0 0 0 2.11-.87 34.4 34.4 0 0 1-7.67 20.07zm-22.09-55.73a4.85 4.85 0 0 0-.69 1.21l-3.85 9.86a22.92 22.92 0 0 0-7.41 1.22l-6.67-8.32a4.91 4.91 0 0 0-.89-.85 34.31 34.31 0 0 1 19.52-3.11zm-21.06 32.72c1.57-.24 3 .49 3.16 1.62l.38 2.49c.17 1.13-1 2.26-2.53 2.49l-6.59 1-8.57 1.31c-1.57.24-3-.48-3.16-1.62l-.3-2c0-.28-.06-.55-.08-.83a2.73 2.73 0 0 1 2.53-2.19l8.7-1.33zm-15.64 13.4a4.78 4.78 0 0 0 1.68 0l10.09-1.55a22.92 22.92 0 0 0 4.89 6.39l-3.62 9.3a4.8 4.8 0 0 0-.32 2.06 34.32 34.32 0 0 1-12.71-16.18zm27.63 19.87l3.51-9a23 23 0 0 0 8.45-1.22l6 7.45a4.83 4.83 0 0 0 2 1.49 34.29 34.29 0 0 1-21.31 3.19 4.86 4.86 0 0 0 1.36-1.9zM99 592.19a5 5 0 0 0 .65 1.07l6.67 8.32a22.85 22.85 0 0 0-1.79 3.61 23.32 23.32 0 0 0-1 3.39L93 610.17a4.84 4.84 0 0 0-1.38.43A34.43 34.43 0 0 1 99 592.19zm40.75 72.44a52 52 0 0 1-58-22.62 1.81 1.81 0 0 1 .38-2.48 1.64 1.64 0 0 1 2.26.62A49 49 0 0 0 139 661.47a1.64 1.64 0 0 1 2.08 1.08 1.81 1.81 0 0 1-1.38 2.08zM170 588.32a1.64 1.64 0 0 1-2.26-.62 49 49 0 0 0-54.68-21.32 1.65 1.65 0 0 1-2.09-1.08 1.82 1.82 0 0 1 1.4-2.09 52 52 0 0 1 58 22.62 1.81 1.81 0 0 1-.37 2.49z" fill="#231f20"/><path d="M356.19 432.36a43.46 43.46 0 1 0 24.71 56.28 43.46 43.46 0 0 0-24.71-56.28zm-34.13 20.44a26.93 26.93 0 0 1 2.76-2.21 2.48 2.48 0 0 1 1.93 1l4.47 5.58.24.3 2.88 3.6c.79 1 .85 2.23.14 2.8l-1.56 1.25c-.71.57-1.92.24-2.71-.75l-2.88-3.59-.25-.31-4.46-5.57a2.48 2.48 0 0 1-.56-2.1zM336 490.49l-2.33 6c-.46 1.17-1.51 1.85-2.36 1.52l-1.86-.73c-.85-.33-1.16-1.55-.71-2.72l2.37-6.08.21-.54 1.82-4.68c.46-1.17 1.52-1.85 2.36-1.52l1.86.72c.85.33 1.16 1.55.71 2.72l-1.85 4.74zm6.23-30.65l1.87-4.78 2.54-6.53a2.26 2.26 0 0 1 1.93-1.6c.57.18 1.14.37 1.71.6l.86.36a2.21 2.21 0 0 1 .43 2.56l-2.5 6.42-1.91 4.89c-.46 1.17-1.51 1.85-2.36 1.52l-1.86-.72c-.85-.33-1.17-1.56-.71-2.72zm16.35 12.5l-.62.09-5 .77c-1.24.19-2.36-.38-2.5-1.28l-.3-2c-.14-.9.76-1.78 2-2l4.92-.75.58-.09 6.5-1c1.24-.19 2.36.38 2.5 1.28l.3 2c.14.9-.76 1.78-2 2zm5.43-9.78l-7.87 1.2a18.12 18.12 0 0 0-4.07-4.85l2.94-7.55a3.86 3.86 0 0 0 .26-1.28 27.14 27.14 0 0 1 10.31 12.55 3.89 3.89 0 0 0-1.58-.07zm-18.2 18.58l1.56-1.25c.71-.57 1.92-.24 2.71.74l3.66 4.57 3.93 4.9c.78 1 .85 2.24.14 2.81l-1.56 1.25c-.71.57-1.92.23-2.71-.75l-3.92-4.9L346 484c-.83-1-.9-2.29-.19-2.86zm15.68 8.86a3.86 3.86 0 0 0-.8-1.82l-4.74-5.92a18.13 18.13 0 0 0 2.37-6.3l7.57-1.16a3.87 3.87 0 0 0 1.67-.69 27.22 27.22 0 0 1-6.07 15.89zM344 445.92a3.83 3.83 0 0 0-.54 1l-3 7.81a18.23 18.23 0 0 0-5.87 1l-5.28-6.58a3.78 3.78 0 0 0-.71-.67 27.16 27.16 0 0 1 15.4-2.56zm-16.67 25.9c1.24-.19 2.36.39 2.5 1.28l.3 2c.14.9-.76 1.78-2 2l-5.22.8-6.78 1c-1.24.19-2.36-.38-2.5-1.28l-.23-1.62c0-.22 0-.44-.07-.66a2.15 2.15 0 0 1 2-1.73l6.88-1.06zM315 482.42a3.81 3.81 0 0 0 1.33 0l8-1.22a18.13 18.13 0 0 0 3.88 5.05l-2.87 7.36a3.83 3.83 0 0 0-.25 1.63A27.13 27.13 0 0 1 315 482.42zm21.87 15.72l2.78-7.12a18.07 18.07 0 0 0 6.68-1L351 496a3.87 3.87 0 0 0 1.62 1.18 27.15 27.15 0 0 1-16.86 2.52 3.87 3.87 0 0 0 1.07-1.55zM319.09 456a4 4 0 0 0 .51.84l5.28 6.58a18.34 18.34 0 0 0-1.42 2.86 18.85 18.85 0 0 0-.82 2.68l-8.24 1.26a3.85 3.85 0 0 0-1.09.34 27.21 27.21 0 0 1 5.78-14.56zm32.25 57.32a41.17 41.17 0 0 1-45.91-17.9 1.43 1.43 0 0 1 .3-2 1.3 1.3 0 0 1 1.79.49 38.81 38.81 0 0 0 43.28 16.89 1.29 1.29 0 0 1 1.65.85 1.43 1.43 0 0 1-1.11 1.65zm24-60.39a1.3 1.3 0 0 1-1.79-.49 38.8 38.8 0 0 0-43.28-16.87 1.31 1.31 0 0 1-1.65-.85 1.43 1.43 0 0 1 1.11-1.65 41.17 41.17 0 0 1 45.91 17.9 1.43 1.43 0 0 1-.29 1.94z" fill="#231f20"/><path d="M853.7 434.11a69 69 0 1 0 39.21 89.31 69 69 0 0 0-39.21-89.31zm-54.16 32.42a43.74 43.74 0 0 1 4.38-3.51 3.94 3.94 0 0 1 3.07 1.61l7.09 8.85.38.47 4.58 5.71c1.24 1.56 1.34 3.55.22 4.46l-2.48 2c-1.12.9-3 .37-4.3-1.19l-4.57-5.7-.39-.48-7.09-8.85a3.94 3.94 0 0 1-.89-3.36zm22.12 59.82l-3.66 9.52c-.72 1.86-2.4 2.94-3.74 2.42l-3-1.15c-1.34-.52-1.85-2.45-1.13-4.31l3.77-9.66.34-.86 2.89-7.43c.73-1.86 2.4-2.94 3.75-2.41l3 1.15c1.34.52 1.85 2.45 1.12 4.32l-3 7.5zm9.89-48.64l3-7.59 4-10.35a3.61 3.61 0 0 1 3.07-2.54c.91.29 1.81.6 2.72.94.46.18.91.38 1.36.57 1 .74 1.31 2.43.68 4.07l-4 10.19-3 7.75c-.73 1.86-2.4 2.94-3.75 2.41l-3-1.15c-1.3-.5-1.81-2.43-1.08-4.29zm25.95 19.83l-1 .15-7.94 1.22c-2 .3-3.75-.61-4-2l-.48-3.13c-.22-1.43 1.2-2.83 3.18-3.13l7.8-1.2.92-.14 10.31-1.58c2-.31 3.75.61 4 2l.48 3.13c.22 1.42-1.2 2.83-3.18 3.13zm8.61-15.54l-12.48 1.91a28.88 28.88 0 0 0-6.45-7.69l4.67-12a6.24 6.24 0 0 0 .41-2 43.06 43.06 0 0 1 16.36 19.92 6.15 6.15 0 0 0-2.51-.14zm-28.87 29.49l2.48-2c1.12-.91 3-.37 4.29 1.18l5.81 7.26 6.24 7.78c1.25 1.56 1.34 3.55.22 4.45l-2.47 2c-1.12.9-3 .37-4.3-1.19l-6.22-7.77-5.83-7.2c-1.25-1.58-1.35-3.58-.22-4.48zm24.88 14.08a6.09 6.09 0 0 0-1.27-2.89l-7.53-9.39a28.73 28.73 0 0 0 3.76-10l12-1.84a6.09 6.09 0 0 0 2.65-1.09 43.13 43.13 0 0 1-9.63 25.21zm-27.74-70a5.93 5.93 0 0 0-.86 1.52l-4.83 12.39a28.85 28.85 0 0 0-9.31 1.54L811 460.61a6 6 0 0 0-1.11-1.07 43.06 43.06 0 0 1 24.49-3.92zm-26.45 41.1c2-.3 3.75.61 4 2l.48 3.13c.22 1.42-1.2 2.83-3.17 3.13l-8.29 1.26-10.76 1.65c-2 .3-3.75-.61-4-2l-.38-2.47c0-.35-.07-.7-.11-1 .06-1.29 1.38-2.47 3.17-2.75L799.8 498zm-19.64 16.83a6.1 6.1 0 0 0 2.1 0l12.67-1.94a28.84 28.84 0 0 0 6.14 8l-4.55 11.67a6.09 6.09 0 0 0-.4 2.59 43.07 43.07 0 0 1-15.97-20.27zm34.7 25l4.41-11.31a28.74 28.74 0 0 0 10.6-1.53l7.5 9.36a6.09 6.09 0 0 0 2.57 1.88 43.12 43.12 0 0 1-26.76 4 6.06 6.06 0 0 0 1.69-2.4zm-28.14-66.93a6.27 6.27 0 0 0 .81 1.34l8.34 10.46a28.71 28.71 0 0 0-2.24 4.53 29.09 29.09 0 0 0-1.3 4.25l-13.08 2a6 6 0 0 0-1.73.54 43.22 43.22 0 0 1 9.17-23.12zm51.18 91a65.35 65.35 0 0 1-72.86-28.4 2.28 2.28 0 0 1 .48-3.11 2.06 2.06 0 0 1 2.84.77 61.59 61.59 0 0 0 68.68 26.77 2.06 2.06 0 0 1 2.62 1.35 2.27 2.27 0 0 1-1.79 2.6zm38.09-95.83a2.06 2.06 0 0 1-2.84-.78 61.59 61.59 0 0 0-68.68-26.77 2.07 2.07 0 0 1-2.62-1.35 2.28 2.28 0 0 1 1.76-2.62 65.33 65.33 0 0 1 72.86 28.4 2.27 2.27 0 0 1-.49 3.09z" fill="#231f20"/><path d="M518.57 588.77A41.25 41.25 0 1 0 542 642.18a41.25 41.25 0 0 0-23.43-53.41zm-32.39 19.39a25.79 25.79 0 0 1 2.62-2.1 2.36 2.36 0 0 1 1.84 1l4.24 5.3.22.28 2.74 3.42a1.94 1.94 0 0 1 .13 2.66l-1.48 1.18a1.93 1.93 0 0 1-2.57-.71l-2.73-3.41-.23-.29-4.24-5.29a2.35 2.35 0 0 1-.54-2.04zm13.23 35.78l-2.22 5.69c-.43 1.11-1.43 1.76-2.24 1.45l-1.77-.69a1.94 1.94 0 0 1-.67-2.58l2.25-5.78.2-.51 1.73-4.44c.44-1.11 1.44-1.76 2.24-1.45l1.77.69a1.94 1.94 0 0 1 .67 2.58l-1.75 4.5zm5.91-29.09l1.77-4.54 2.41-6.19a2.15 2.15 0 0 1 1.83-1.52c.54.17 1.09.35 1.62.56l.81.34a2.1 2.1 0 0 1 .41 2.43l-2.38 6.1-1.79 4.64c-.43 1.11-1.44 1.76-2.24 1.45l-1.77-.69a1.94 1.94 0 0 1-.67-2.58zm15.52 11.86l-.58.09-4.75.73c-1.18.18-2.24-.37-2.37-1.22l-.29-1.87c-.13-.85.72-1.69 1.9-1.87l4.67-.71.55-.08 6.17-.94c1.18-.18 2.24.36 2.37 1.21l.29 1.87c.13.85-.72 1.69-1.9 1.87zm5.15-9.28l-7.47 1.14a17.21 17.21 0 0 0-3.86-4.6l2.79-7.16a3.59 3.59 0 0 0 .25-1.21 25.74 25.74 0 0 1 9.79 11.91 3.66 3.66 0 0 0-1.49-.08zm-17.27 17.63l1.48-1.18a1.94 1.94 0 0 1 2.57.71l3.47 4.34 3.73 4.65a1.94 1.94 0 0 1 .13 2.66l-1.48 1.19a1.93 1.93 0 0 1-2.57-.71l-3.73-4.65-3.48-4.34a1.93 1.93 0 0 1-.11-2.67zm14.88 8.43a3.65 3.65 0 0 0-.76-1.73l-4.5-5.62a17.17 17.17 0 0 0 1.32-2.68 17.53 17.53 0 0 0 .93-3.31l7.18-1.1a3.67 3.67 0 0 0 1.59-.65 25.84 25.84 0 0 1-5.76 15.08zM507 601.63a3.63 3.63 0 0 0-.52.91l-2.89 7.41a17.16 17.16 0 0 0-5.57.92l-5-6.25a3.82 3.82 0 0 0-.67-.64 25.77 25.77 0 0 1 14.65-2.35zm-15.82 24.58c1.18-.18 2.24.36 2.37 1.22l.29 1.87c.13.85-.72 1.69-1.9 1.87l-4.95.76-6.44 1c-1.18.18-2.24-.37-2.37-1.22l-.22-1.48c0-.21 0-.42-.07-.63a2 2 0 0 1 1.9-1.64l6.53-1zm-11.75 10.07a3.61 3.61 0 0 0 1.26 0l7.58-1.16a17.27 17.27 0 0 0 3.68 4.8l-2.72 7a3.67 3.67 0 0 0-.24 1.55 25.81 25.81 0 0 1-9.55-12.19zm20.77 14.92l2.64-6.76a17.22 17.22 0 0 0 6.34-.92l4.48 5.6a3.58 3.58 0 0 0 1.54 1.12 25.77 25.77 0 0 1-16 2.39 3.68 3.68 0 0 0 1-1.43zm-16.83-40a3.61 3.61 0 0 0 .49.81l5 6.25a17.12 17.12 0 0 0-1.34 2.71 17.46 17.46 0 0 0-.78 2.54l-7.82 1.2a3.71 3.71 0 0 0-1 .32 25.74 25.74 0 0 1 1.67-7.17 26 26 0 0 1 3.78-6.69zM514 665.58a39.07 39.07 0 0 1-43.57-17 1.35 1.35 0 0 1 .28-1.86 1.23 1.23 0 0 1 1.7.46 36.84 36.84 0 0 0 41.08 16 1.23 1.23 0 0 1 1.51.82 1.36 1.36 0 0 1-1 1.58zm22.79-57.32a1.24 1.24 0 0 1-1.7-.46 36.84 36.84 0 0 0-41.08-16 1.24 1.24 0 0 1-1.57-.81 1.36 1.36 0 0 1 1.06-1.56 39.07 39.07 0 0 1 43.58 17 1.36 1.36 0 0 1-.32 1.83z" fill="#231f20"/><path d="M608.82 588.77a41.25 41.25 0 1 0 23.45 53.42 41.25 41.25 0 0 0-23.45-53.42zm-32.39 19.39a25.82 25.82 0 0 1 2.62-2.1 2.36 2.36 0 0 1 1.84 1l4.24 5.3.22.28 2.74 3.42a1.94 1.94 0 0 1 .13 2.66l-1.48 1.18a1.94 1.94 0 0 1-2.57-.71l-2.73-3.41-.23-.29-4.21-5.33a2.35 2.35 0 0 1-.57-2zm13.23 35.78l-2.22 5.69c-.43 1.11-1.44 1.76-2.24 1.45l-1.77-.69a1.94 1.94 0 0 1-.67-2.58L585 642l.2-.51 1.74-4.44c.43-1.11 1.43-1.76 2.24-1.45l1.76.69a1.94 1.94 0 0 1 .67 2.58l-1.75 4.5zm5.91-29.09l1.77-4.54 2.42-6.19a2.15 2.15 0 0 1 1.83-1.52c.54.17 1.08.35 1.62.56l.81.34a2.1 2.1 0 0 1 .41 2.43L602 612l-1.81 4.64c-.43 1.11-1.44 1.76-2.24 1.45l-1.77-.69a1.94 1.94 0 0 1-.62-2.55zm15.52 11.86l-.58.09-4.75.73c-1.18.18-2.24-.37-2.37-1.22l-.29-1.87c-.13-.85.72-1.69 1.9-1.87l4.67-.71.55-.08 6.17-.94c1.18-.18 2.24.36 2.38 1.21l.28 1.87c.13.85-.72 1.69-1.9 1.87zm5.15-9.28l-7.47 1.14a17.21 17.21 0 0 0-3.86-4.6l2.79-7.16a3.63 3.63 0 0 0 .25-1.21 25.77 25.77 0 0 1 9.79 11.91 3.68 3.68 0 0 0-1.5-.08zM599 635.06l1.48-1.18a1.93 1.93 0 0 1 2.57.71l3.47 4.34 3.73 4.65a1.94 1.94 0 0 1 .13 2.66l-1.48 1.19a1.93 1.93 0 0 1-2.57-.71l-3.72-4.65-3.48-4.34a1.94 1.94 0 0 1-.13-2.67zm14.88 8.43a3.65 3.65 0 0 0-.76-1.73l-4.5-5.62a17.3 17.3 0 0 0 2.25-6l7.18-1.1a3.67 3.67 0 0 0 1.59-.65 25.79 25.79 0 0 1-5.76 15.08zm-16.59-41.86a3.58 3.58 0 0 0-.51.91l-2.89 7.41a17.16 17.16 0 0 0-5.57.92l-5-6.25a3.77 3.77 0 0 0-.67-.64 25.77 25.77 0 0 1 14.61-2.35zm-15.82 24.58c1.18-.18 2.24.36 2.37 1.22l.29 1.87c.13.85-.72 1.69-1.9 1.87l-5 .76-6.44 1c-1.18.18-2.24-.37-2.37-1.22l-.22-1.48c0-.21 0-.42-.06-.63A2 2 0 0 1 570 628l6.53-1zm-11.75 10.07a3.6 3.6 0 0 0 1.26 0l7.58-1.16a17.2 17.2 0 0 0 3.68 4.8l-2.72 7a3.7 3.7 0 0 0-.24 1.55 25.8 25.8 0 0 1-9.59-12.19zm20.76 14.92l2.64-6.76a17.21 17.21 0 0 0 6.34-.92l4.48 5.6a3.58 3.58 0 0 0 1.54 1.12 25.76 25.76 0 0 1-16 2.39 3.69 3.69 0 0 0 .97-1.43zm-16.83-40a3.73 3.73 0 0 0 .48.81l5 6.25a17.27 17.27 0 0 0-1.34 2.71 17.45 17.45 0 0 0-.77 2.54l-7.82 1.2a3.7 3.7 0 0 0-1 .32 25.85 25.85 0 0 1 5.48-13.83zm30.61 54.41a39.07 39.07 0 0 1-43.58-17 1.35 1.35 0 0 1 .29-1.86 1.23 1.23 0 0 1 1.7.46 36.84 36.84 0 0 0 41.08 16 1.23 1.23 0 0 1 1.56.81 1.36 1.36 0 0 1-1.09 1.56zM627 608.26a1.24 1.24 0 0 1-1.7-.46 36.83 36.83 0 0 0-41.07-16 1.24 1.24 0 0 1-1.57-.81 1.36 1.36 0 0 1 1.05-1.56 39.08 39.08 0 0 1 43.58 17 1.36 1.36 0 0 1-.29 1.83z" fill="#231f20"/><path d="M548.13 432.21a41.25 41.25 0 1 0 23.45 53.42 41.25 41.25 0 0 0-23.45-53.42zm-32.39 19.39a25.84 25.84 0 0 1 2.62-2.1 2.34 2.34 0 0 1 1.84 1l4.24 5.29.23.28 2.74 3.42a1.93 1.93 0 0 1 .13 2.66l-1.48 1.18a1.94 1.94 0 0 1-2.57-.71l-2.73-3.41-.23-.29-4.24-5.29a2.35 2.35 0 0 1-.55-2.03zM529 487.39l-2.22 5.68c-.43 1.11-1.43 1.76-2.24 1.45l-1.76-.69a1.94 1.94 0 0 1-.67-2.58l2.25-5.78.2-.52 1.73-4.44c.43-1.11 1.44-1.76 2.24-1.44l1.77.69a1.94 1.94 0 0 1 .67 2.58l-1.75 4.5zm5.91-29.09l1.77-4.54 2.42-6.19a2.15 2.15 0 0 1 1.8-1.57c.54.17 1.08.35 1.62.56l.81.34a2.1 2.1 0 0 1 .41 2.44l-2.37 6.09-1.81 4.64c-.43 1.11-1.44 1.76-2.24 1.44l-1.77-.69a1.94 1.94 0 0 1-.67-2.53zm15.52 11.86l-.58.09-4.75.73c-1.18.18-2.24-.37-2.37-1.22l-.28-1.87c-.13-.85.72-1.69 1.9-1.87l4.67-.72.55-.08 6.17-.94c1.18-.18 2.24.37 2.38 1.22l.28 1.87c.13.85-.72 1.69-1.9 1.87zm5.15-9.28l-7.49 1.12a17.16 17.16 0 0 0-3.86-4.6l2.79-7.16a3.54 3.54 0 0 0 .25-1.21 25.75 25.75 0 0 1 9.79 11.97 3.64 3.64 0 0 0-1.51-.12zm-17.27 17.64l1.48-1.19a1.93 1.93 0 0 1 2.57.71l3.47 4.34 3.73 4.65a1.93 1.93 0 0 1 .13 2.66l-1.48 1.19a1.93 1.93 0 0 1-2.57-.71l-3.72-4.65-3.48-4.34a1.93 1.93 0 0 1-.16-2.67zm14.88 8.42a3.64 3.64 0 0 0-.76-1.73l-4.5-5.62a17.35 17.35 0 0 0 2.25-6l7.18-1.1a3.63 3.63 0 0 0 1.59-.65 25.78 25.78 0 0 1-5.75 15.08zm-16.59-41.86a3.63 3.63 0 0 0-.51.91l-2.89 7.41a17.23 17.23 0 0 0-5.57.92l-5-6.25a3.57 3.57 0 0 0-.67-.64 25.76 25.76 0 0 1 14.61-2.36zm-15.82 24.58c1.18-.18 2.24.36 2.37 1.22l.29 1.87c.13.85-.72 1.69-1.9 1.87l-4.95.76-6.44 1c-1.18.18-2.24-.36-2.37-1.22l-.22-1.48c0-.21 0-.42-.07-.63a2 2 0 0 1 1.9-1.64l6.53-1zM509 479.73a3.73 3.73 0 0 0 1.26 0l7.58-1.16a17.23 17.23 0 0 0 3.68 4.8l-2.72 7a3.69 3.69 0 0 0-.24 1.55 25.81 25.81 0 0 1-9.56-12.19zm20.76 14.92l2.64-6.76a17.17 17.17 0 0 0 6.34-.92l4.49 5.6a3.6 3.6 0 0 0 1.53 1.12 25.76 25.76 0 0 1-16 2.39 3.64 3.64 0 0 0 1-1.43zm-16.83-40a3.63 3.63 0 0 0 .48.8l5 6.25a17.4 17.4 0 0 0-2.12 5.25l-7.82 1.2a3.55 3.55 0 0 0-1 .32 25.85 25.85 0 0 1 5.48-13.83zM543.54 509A39.07 39.07 0 0 1 500 492a1.36 1.36 0 0 1 .28-1.86 1.23 1.23 0 0 1 1.7.47 36.85 36.85 0 0 0 41.08 16 1.23 1.23 0 0 1 1.56.81 1.36 1.36 0 0 1-1.08 1.58zm22.78-57.32a1.23 1.23 0 0 1-1.7-.46 36.84 36.84 0 0 0-41.08-16 1.24 1.24 0 0 1-1.57-.81 1.37 1.37 0 0 1 1.05-1.57 39.08 39.08 0 0 1 43.58 17 1.36 1.36 0 0 1-.28 1.87z" fill="#231f20"/><path d="M638.38 432.21a41.25 41.25 0 1 0 23.45 53.42 41.25 41.25 0 0 0-23.45-53.42zM606 451.6a25.47 25.47 0 0 1 2.62-2.1 2.35 2.35 0 0 1 1.84 1l4.24 5.29.22.28 2.74 3.42a1.94 1.94 0 0 1 .13 2.66l-1.48 1.18a1.93 1.93 0 0 1-2.57-.71l-2.74-3.44-.23-.29-4.24-5.29a2.34 2.34 0 0 1-.53-2zm13.23 35.78l-2.23 5.69c-.43 1.11-1.43 1.76-2.24 1.45l-1.77-.69a1.94 1.94 0 0 1-.67-2.58l2.25-5.78.2-.52 1.73-4.44c.43-1.11 1.44-1.76 2.24-1.44l1.77.69a1.94 1.94 0 0 1 .67 2.58l-1.75 4.5zm5.91-29.09l1.77-4.54 2.42-6.19a2.15 2.15 0 0 1 1.83-1.52c.54.17 1.09.35 1.62.56l.81.34a2.1 2.1 0 0 1 .41 2.44l-2.37 6.09-1.81 4.64c-.43 1.11-1.44 1.76-2.24 1.44l-1.77-.69a1.93 1.93 0 0 1-.68-2.57zm15.52 11.86l-.58.09-4.75.73c-1.18.18-2.24-.37-2.37-1.22l-.29-1.87c-.13-.85.72-1.69 1.9-1.87l4.67-.72.55-.08 6.17-.94c1.18-.18 2.24.37 2.37 1.22l.29 1.87c.13.85-.72 1.69-1.9 1.87zm5.15-9.28l-7.48 1.13a17.16 17.16 0 0 0-3.86-4.6l2.79-7.16a3.58 3.58 0 0 0 .25-1.21A25.74 25.74 0 0 1 647.3 461a3.63 3.63 0 0 0-1.5-.12zm-17.27 17.64l1.48-1.19a1.94 1.94 0 0 1 2.57.71l3.47 4.34 3.73 4.65a1.94 1.94 0 0 1 .13 2.66l-1.48 1.19a1.93 1.93 0 0 1-2.57-.71l-3.73-4.65-3.48-4.34a1.93 1.93 0 0 1-.13-2.66zm14.88 8.42a3.66 3.66 0 0 0-.76-1.73l-4.5-5.62a17 17 0 0 0 1.32-2.68 17.46 17.46 0 0 0 .93-3.31l7.18-1.1a3.63 3.63 0 0 0 1.59-.65 25.82 25.82 0 0 1-5.76 15.08zm-16.59-41.86a3.64 3.64 0 0 0-.52.91l-2.89 7.41a17.25 17.25 0 0 0-5.57.92l-5-6.25a3.67 3.67 0 0 0-.67-.64 25.76 25.76 0 0 1 14.64-2.35zM611 469.66c1.18-.18 2.24.36 2.37 1.22l.29 1.87c.13.85-.72 1.69-1.9 1.87l-4.95.76-6.44 1c-1.18.18-2.24-.36-2.37-1.22l-.22-1.48c0-.21 0-.42-.07-.63a2 2 0 0 1 1.9-1.64l6.53-1zm-11.75 10.07a3.73 3.73 0 0 0 1.26 0l7.58-1.16a17.26 17.26 0 0 0 3.68 4.8l-2.72 7a3.67 3.67 0 0 0-.24 1.55 25.8 25.8 0 0 1-9.57-12.19zM620 494.65l2.64-6.76A17.2 17.2 0 0 0 629 487l4.48 5.6a3.62 3.62 0 0 0 1.54 1.12 25.76 25.76 0 0 1-16 2.39 3.63 3.63 0 0 0 .98-1.46zm-16.83-40a3.52 3.52 0 0 0 .49.8l5 6.25a17.13 17.13 0 0 0-1.34 2.71 17.33 17.33 0 0 0-.77 2.54l-7.82 1.2a3.56 3.56 0 0 0-1 .32 25.85 25.85 0 0 1 5.48-13.83zM633.78 509a39.07 39.07 0 0 1-43.57-17 1.36 1.36 0 0 1 .28-1.86 1.23 1.23 0 0 1 1.7.47 36.85 36.85 0 0 0 41.08 16 1.23 1.23 0 0 1 1.56.81 1.36 1.36 0 0 1-1.05 1.58zm22.79-57.32a1.24 1.24 0 0 1-1.7-.46 36.83 36.83 0 0 0-41.08-16 1.24 1.24 0 0 1-1.57-.81 1.37 1.37 0 0 1 1.06-1.57 39.07 39.07 0 0 1 43.57 17 1.36 1.36 0 0 1-.29 1.87z" fill="#231f20"/><path d="M501.94 678.2c-5.74 0-11.71 0-17.72-.13-30.29-.46-76.88-.69-138.5-.69-105 0-218.64.69-219.78.7-20.19-.11-59.61-12.74-65.13-59.75v-.48c-1.31-18.73-.28-34.73 25.19-55.77a10.46 10.46 0 0 1 1.28-.9l225.58-134.37c4.78-3.75 18.17-10.25 53.87-10.77 11.78-.17 58-.26 137.54-.26 135.26 0 322.52.26 324.4.26h.78a103.85 103.85 0 0 1 40.27 13.24c18.63 10.93 40.55 32.84 39.16 75.15-1.23 33.39-29.17 57.26-41.75 63-10.68 5-215.12 87.87-239.69 97.84-4.38 2.06-32.78 12.93-125.5 12.93zM345.72 657c61.72 0 108.42.23 138.8.7 5.91.08 11.78.13 17.42.13 88.72 0 115.48-10.37 117.09-11a4.26 4.26 0 0 1 .53-.23C712 609 851.94 552.16 858.39 549.09l.21-.1c8.45-3.88 29.05-22.4 29.89-45.23 2-59.58-54.74-66.75-60.31-67.31-10.46 0-191.93-.26-323.91-.26-79.39 0-125.56.09-137.24.26-29 .42-39.21 5.13-41.29 6.28-.57.73-.66.55-1.73 1.19L98.37 578.3c-17.86 14.92-18.26 23.35-17.26 37.89 4.93 40.8 43.2 41.48 44.83 41.49 1.06-.01 114.74-.68 219.78-.68z" fill="#231f20"/><rect x="234.36" y="666.16" width="17.36" height="23.02" rx="4.53" ry="4.53" fill="#231f20"/><rect x="189.37" y="666.16" width="17.36" height="23.02" rx="4.53" ry="4.53" fill="#231f20"/><rect x="142.29" y="666.16" width="17.36" height="23.02" rx="4.53" ry="4.53" fill="#231f20"/><path d="M108.21 682.83a4.53 4.53 0 0 1-5.84 2.62l-7.77-2.95a4.53 4.53 0 0 1-2.6-5.84l5-13.05a4.53 4.53 0 0 1 5.84-2.62l7.76 2.95a4.53 4.53 0 0 1 2.62 5.84z" fill="#231f20"/><path d="M66.49 657.22a4.52 4.52 0 0 1-6.13-1.87l-3.9-7.35a4.53 4.53 0 0 1 1.87-6.13l12.32-6.56a4.52 4.52 0 0 1 6.12 1.87l3.9 7.33a4.53 4.53 0 0 1-1.87 6.12z" fill="#231f20"/><path d="M53 611.21a4.53 4.53 0 0 1-4.32-4.73l.37-8.29a4.53 4.53 0 0 1 4.73-4.32l13.95.63a4.53 4.53 0 0 1 4.32 4.73l-.37 8.29a4.53 4.53 0 0 1-4.68 4.32z" fill="#231f20"/><path d="M72.68 564.1a4.53 4.53 0 0 1 .26-6.4l6.1-5.62a4.53 4.53 0 0 1 6.4.26l9.46 10.27a4.53 4.53 0 0 1-.26 6.4l-6.11 5.62a4.53 4.53 0 0 1-6.4-.26z" fill="#231f20"/><path d="M114.77 536.07a4.53 4.53 0 0 1 1.19-6.3l6.85-4.68a4.53 4.53 0 0 1 6.29 1.19l7.9 11.53a4.53 4.53 0 0 1-1.19 6.29l-6.86 4.68a4.53 4.53 0 0 1-6.29-1.19z" fill="#231f20"/><path d="M158.82 510a4.53 4.53 0 0 1 1.67-6.19l7.19-4.14a4.53 4.53 0 0 1 6.19 1.67l7 12.1a4.53 4.53 0 0 1-1.66 6.18l-7.21 4.09a4.53 4.53 0 0 1-6.18-1.66z" fill="#231f20"/><path d="M199.36 484.65a4.53 4.53 0 0 1 1.67-6.19l7.19-4.14a4.53 4.53 0 0 1 6.18 1.68l7 12.1a4.53 4.53 0 0 1-1.66 6.18l-7.2 4.14a4.53 4.53 0 0 1-6.18-1.66z" fill="#231f20"/><path d="M240.17 461.37a4.53 4.53 0 0 1 1.67-6.18L249 451a4.54 4.54 0 0 1 6.19 1.66l7 12.1a4.53 4.53 0 0 1-1.66 6.18l-7.19 4.14a4.53 4.53 0 0 1-6.18-1.66z" fill="#231f20"/><path d="M282.28 436.07a4.52 4.52 0 0 1 1.67-6.18l7.19-4.15a4.53 4.53 0 0 1 6.19 1.66l7 12.1a4.53 4.53 0 0 1-1.66 6.18l-7.19 4.14a4.52 4.52 0 0 1-6.18-1.67z" fill="#231f20"/><path d="M328.89 411.64a4.52 4.52 0 0 1 3.53-5.35l8.13-1.67a4.53 4.53 0 0 1 5.35 3.53l2.81 13.68a4.53 4.53 0 0 1-3.53 5.34l-8.18 1.67a4.52 4.52 0 0 1-5.34-3.53z" fill="#231f20"/><rect x="276.74" y="666.16" width="17.36" height="23.02" rx="4.53" ry="4.53" fill="#231f20"/><rect x="317.54" y="666.16" width="17.36" height="23.02" rx="4.53" ry="4.53" fill="#231f20"/><rect x="361.88" y="666.16" width="17.36" height="23.02" rx="4.53" ry="4.53" fill="#231f20"/><rect x="407.79" y="666.16" width="17.36" height="23.02" rx="4.53" ry="4.53" fill="#231f20"/><rect x="456.05" y="666.16" width="17.36" height="23.02" rx="4.53" ry="4.53" fill="#231f20"/><rect x="505.87" y="666.16" width="17.36" height="23.02" rx="4.53" ry="4.53" fill="#231f20"/><path d="M574.55 683a4.53 4.53 0 0 1-3.66 5.26l-8.17 1.47a4.52 4.52 0 0 1-5.26-3.65L555 672.33a4.53 4.53 0 0 1 3.66-5.26l8.17-1.47a4.53 4.53 0 0 1 5.26 3.66z" fill="#231f20"/><path d="M624.18 674.14a4.53 4.53 0 0 1-3 5.66l-7.93 2.45a4.52 4.52 0 0 1-5.66-3l-4.13-13.34a4.53 4.53 0 0 1 3-5.67l7.93-2.46a4.53 4.53 0 0 1 5.67 3z" fill="#231f20"/><path d="M673.51 653a4.52 4.52 0 0 1-2.27 6l-7.57 3.41a4.53 4.53 0 0 1-6-2.27L652 647.35a4.53 4.53 0 0 1 2.27-6l7.57-3.41a4.52 4.52 0 0 1 6 2.27z" fill="#231f20"/><path d="M720.46 635.38a4.53 4.53 0 0 1-2.54 5.88l-7.71 3.07a4.53 4.53 0 0 1-5.88-2.54l-5.16-13a4.53 4.53 0 0 1 2.54-5.88l7.71-3.07a4.53 4.53 0 0 1 5.88 2.54z" fill="#231f20"/><path d="M766.5 616.55a4.53 4.53 0 0 1-2.53 5.88l-7.71 3.07a4.53 4.53 0 0 1-5.88-2.54l-5.16-13a4.53 4.53 0 0 1 2.53-5.88l7.71-3.07a4.52 4.52 0 0 1 5.88 2.53z" fill="#231f20"/><path d="M815.15 596.41a4.52 4.52 0 0 1-2.54 5.88l-7.71 3.07a4.53 4.53 0 0 1-5.88-2.54l-5.16-13a4.52 4.52 0 0 1 2.54-5.82l7.71-3.07a4.53 4.53 0 0 1 5.88 2.54z" fill="#231f20"/><path d="M864.59 576.53a4.53 4.53 0 0 1-2.53 5.88l-7.71 3.07a4.53 4.53 0 0 1-5.89-2.54l-5.16-13a4.53 4.53 0 0 1 2.54-5.88l7.71-3.07a4.53 4.53 0 0 1 5.89 2.54z" fill="#231f20"/><path d="M1072 32.91V0l257.39 115.36v96c0 .91-85.55 32.72-85.55 32.72z" fill="#231f20"/><path fill="#8dc63f" d="M943.26 152.24l78.47-36.88 55.71 6.27 43.17-58.85 145.96 151.45-48.31 19.15-279.71-64.66 4.71-16.48z"/><path fill="#58595b" d="M313.91 195.14l18.83-9.95 55.44 4.98 39.51 26.42 176.57 18.83 159.29-12.56 27.47.79-136.54 104.36-272.3-47.08-68.27-82.4v-3.39z"/><path d="M1404.72 341.25s-1.57-17.26 0-17.26C1177.15 120 943.3 149.77 943.3 149.77l-11.09 16.88-96.94 21.42-185 121.11-255.43-40-77-72.12L168 181.47l-14.9 18.85 67.61 119.21-25.56 26.27 553.08 100.75-45.3 68.91 289 38.36 18.88-.7s63.29-1.73 91.77-3.88l186.68-42.63c102.41-37.67 146.87-82.18 146.87-82.18v-56.5z" fill="#231f20"/><path fill="#bcbec0" d="M14.14 299.76l8.37-33.48 773.72 121.7-87.49 129.35-694.6-217.57z"/><path fill="#e6e7e8" d="M32.96 289.21l1.3-5.19 735.13 115.62-30.56 45.19L32.96 289.21z"/><path fill="#fff" d="M453.32 365.82l289.24 45.49-10.76 15.9-278.48-61.39z"/><path fill="#bcbec0" d="M1167.68 328.21l53.73-4.12 38.88 101.23 28.95 71.35-186.68 42.63 65.12-211.09z"/><path fill="#6d6e71" d="M1179.54 343.04l31.4-2.41 34.81 90.59 22.01 54.25-142.19 32.48 53.97-174.91z"/><path d="M722 328l138.11-94.17L937 216.59s205.6-22.11 392.37 124.7c0-2.29-183.95-91.94-284.39 46.72z" fill="#8dc63f"/><path fill="#939598" d="M1305.8 114.99l-195.17-87.47 21.07 25.89 174.1 78.03v-16.45z"/><path d="M384.06 308.65l271.54 42.57 21.19-13.88-15.27-2.84 189-128.87 82.6-18.54 1.34-.14c.5-.06 12.49-1.32 32.75-1.32 62.89 0 225.19 12.65 375.11 129.71a24.17 24.17 0 0 1 9.3 12.2q14.47 11.34 28.95 23.9c.15 2.83.39 5.91.7 9.31l.88 9.57 30.42 25.86v-23.6l-30.42-25.86-.88-9.58c-.31-3.4-.56-6.49-.7-9.32-168.15-146.29-338.12-162.27-404.16-162.27-8.12 0-14.78.24-19.76.52l-10 15.27-102.09 22.57-189 123.71L384.06 285l-76.48-71.65-123.75-12.79 14.22 25.07L307.58 237z" fill="#939598"/><path fill="#d7df23" d="M1088.37 145.29l34.68-47.3 89.61 92.98 3.75.87 8.83-3.51-102.19-106.04-34.68 47.31-62.66-7.06-35.95 16.9 22.38 5.17 13.57-6.37 62.66 7.05z"/><path d="M967.24 222c-14.08 0-23.44.68-26.58.94l-71 15.95-87.22 59.47 18.09 3.36 69.13-47.13 71-15.95c3.14-.27 12.49-.94 26.58-.94 36.74 0 110.27 4.71 194.4 35.59a242.56 242.56 0 0 1 31.74-3C1096.31 227.91 1008.53 222 967.24 222z" fill="#d7df23"/><path d="M1221 345.41c1.32 3.77-2.44 8.54-8.42 10.64l-17.53 6.16c-6 2.1-11.89.74-13.22-3l-.9-2.56c-1.32-3.77 2.44-8.54 8.42-10.64l17.53-6.16c6-2.1 11.89-.75 13.22 3z" fill="#231f20"/><path fill="#231f20" d="M1220.171 446.686l24.352-8.552 25.493 72.594-24.352 8.552z"/><path fill="#231f20" d="M1283.63 523.57l-39.17 13.76-6.82-19.38 39.18-13.77 6.81 19.39z"/><path d="M1239.83 515.33a6.63 6.63 0 0 1-3.36-12.78l10.42-3.67-16.37-4-.31-.09A6.62 6.62 0 0 1 1225 487v-.23l.09-.24a6.62 6.62 0 0 1 4.2-4.49l10.86-3.81-16.91-4.12-.28-.08a6.62 6.62 0 0 1-5.25-7.92v-.27l.06-.15a6.63 6.63 0 0 1 4.17-4.42l10.51-3.69-16.48-4-.3-.08a6.61 6.61 0 0 1-5.23-7.89l.05-.36.08-.16a6.62 6.62 0 0 1 4.15-4.34l10.47-3.68-16.42-4-.3-.08a6.62 6.62 0 0 1-5.27-7.75v-.29l.06-.42.12-.18a6.64 6.64 0 0 1 4.08-4.14l10.86-3.81-16.9-4.12-.3-.08a6.63 6.63 0 0 1-5-4.31 6.54 6.54 0 0 1-.25-3.45v-.1l.11-.35a6.53 6.53 0 0 1 4.2-4.54l11.21-3.94-17.34-4.23-.29-.08a6.63 6.63 0 0 1-5-4.31 6.56 6.56 0 0 1-.26-3.43v-.78l.29-.31a6.57 6.57 0 0 1 4-3.94l10.5-3.69-16.48-4-.29-.08a6.61 6.61 0 0 1-5-4.32 6.5 6.5 0 0 1-.23-3.57v-.22l.07-.28a6.63 6.63 0 0 1 4.14-4.35l31.53-11.08a6.49 6.49 0 0 1 1-.27 6.63 6.63 0 0 1 3.36 12.78l-10.45 3.67 16.76 3.98a7.61 7.61 0 0 1 .84.26 6.61 6.61 0 0 1 3 2 6.47 6.47 0 0 1 1.62 5.9 6.25 6.25 0 0 1-3.13 4 6.53 6.53 0 0 1-1.32.64l-10.45 3.67 16.64 4.05a7.1 7.1 0 0 1 5.61 7.51 6.62 6.62 0 0 1-4.41 5.78l-10.46 3.67 16.64 4.05a7.66 7.66 0 0 1 4.43 2.94 6.38 6.38 0 0 1 1.06 5.22 6.08 6.08 0 0 1-.62 1.57 6.57 6.57 0 0 1-3.75 3.33l-10.4 3.69 16.64 4.05.39.11a6.55 6.55 0 0 1 3.63 2.32 6.27 6.27 0 0 1-2.12 10 6.65 6.65 0 0 1-.87.38l-10.46 3.67 16.64 4.05a8.48 8.48 0 0 1 .85.27 6.62 6.62 0 0 1 3 2 6.5 6.5 0 0 1 1.62 5.9 6.29 6.29 0 0 1-3.14 4 6.6 6.6 0 0 1-1.31.64l-10.45 3.67 16.62 4.05a7.62 7.62 0 0 1 4.72 3.38 6.3 6.3 0 0 1 .79 4.79 6.07 6.07 0 0 1-.63 1.56 6.56 6.56 0 0 1-3.75 3.33l-10.45 3.67 16.58 4a6.67 6.67 0 0 1 4.24 2.63 6.39 6.39 0 0 1 1.32 5.55 6.5 6.5 0 0 1-4.33 4.55l-31.68 11.13a6.18 6.18 0 0 1-1 .27z" fill="#231f20"/><path d="M1237.92 394.78a4.42 4.42 0 0 0-3.62-4.68l-25.25-6.16 18.82-6.62a4.73 4.73 0 0 0 2.77-2.8 3.83 3.83 0 0 0-1-3.53 4 4 0 0 0-1.91-1.26 4.48 4.48 0 0 0-.61-.2l-25.26-6.16 18.82-6.62a4 4 0 1 0-2.65-7.54l-31.52 11.08a4 4 0 0 0-2.54 2.81 3.91 3.91 0 0 0 .12 2.22 4 4 0 0 0 3.14 2.62l.31.09 25.09 6.12-18.88 6.63a4 4 0 0 0-2.54 2.81 3.88 3.88 0 0 0 .11 2.22 4 4 0 0 0 3.15 2.62l.3.09 26 6.32-19.58 6.88a4 4 0 0 0-2.55 2.81 4 4 0 0 0 3.27 4.84l.3.09 25.53 6.22-19.23 6.76a4 4 0 0 0-2.55 2.81 4 4 0 0 0 3.27 4.84l.3.09 25 6.11-18.84 6.62a4 4 0 0 0-2.55 2.81 4 4 0 0 0 3.26 4.84l.31.09 25.09 6.12-18.88 6.64a4 4 0 0 0-2.55 2.81 4 4 0 0 0 3.28 4.84l.3.09 25.54 6.22-19.23 6.76a4 4 0 0 0-2.55 2.81 4 4 0 0 0 3.27 4.85l.3.09 25 6.09-18.8 6.61a4 4 0 0 0 2.65 7.54l31.52-11.08h.1a3.89 3.89 0 0 0 2.69-2.71 3.78 3.78 0 0 0-.86-3.32 4 4 0 0 0-2.69-1.65l-25.26-6.15 18.83-6.62a4 4 0 0 0 2.29-2.07 3.28 3.28 0 0 0 .4-1c.52-2.14-1.07-4.37-3.56-5l-25.26-6.15 18.83-6.62a3.79 3.79 0 0 0 .85-.42 3.7 3.7 0 0 0 1.92-2.38 3.84 3.84 0 0 0-1-3.53 4 4 0 0 0-1.9-1.25 5.8 5.8 0 0 0-.62-.2l-25.41-5.7 18.83-6.62a4.17 4.17 0 0 0 .58-.26 3.65 3.65 0 0 0 1.26-5.94 4 4 0 0 0-2.29-1.46l-.33-.09-25.25-6.16 18.82-6.62a4 4 0 0 0 2.3-2.07 3.77 3.77 0 0 0 .4-1c.52-2.14-1.08-4.37-3.56-5l-25.33-6.05 18.82-6.61a4 4 0 0 0 2.67-3.61z" fill="#8dc63f"/><path fill="#231f20" d="M1100.3 492.272l12.873-22.752 156.324 88.445-12.872 22.75z"/><path fill="#231f20" d="M1249.75 575.817l74.088-102.46 10.591 7.658-74.087 102.46z"/><path fill="#6d6e71" d="M1246.56 526.93l36.87-14.13 3.93 14.13-24.72 7.45-3.13 26.29 38.05 45.51 5.88 52.58-23.54 10.2-50.22-69.84 16.88-72.19z"/><path fill="#bcbec0" d="M1239.83 597.1l11.94-51.13-2.1 17.62 38.85 46.46 4.8 42.84-10.2 4.42-43.29-60.21z"/><path d="M1025.65 642.91s40.81 39.76 125.56 47.08c-2.09-1 330.63 0 330.63 0s166.36-1 201.94-147.53h-10.46s-32.44 113-199.85 116.14c0-1-76.38 0-76.38 0s-43.95-24.07-80.56-24.07-77.43 26.16-94.17 30.34-137.07 9.42-186.24-26.16c0-2.07-10.47 4.2-10.47 4.2z" fill="#231f20"/><path d="M1540.82 673.31a6.28 6.28 0 0 1-6.28-6.28v-72.25c0-15.27 4.79-27.61 14.23-36.67 16.8-16.11 42.3-15.71 44.74-15.63h80.71a6.28 6.28 0 0 1 0 12.56h-81.09c-.22 0-22.36-.68-35.71 12.19-6.85 6.6-10.33 15.87-10.33 27.56v72.25a6.28 6.28 0 0 1-6.27 6.27z" fill="#231f20"/><path d="M1335.62 660.59a17.12 17.12 0 1 1-17.12-17.12 17.11 17.11 0 0 1 17.12 17.12z" fill="#bcbec0"/><path d="M1175 383.73a7.59 7.59 0 1 1-7.58-7.59 7.58 7.58 0 0 1 7.58 7.59z" fill="#fff"/><circle cx="1156.97" cy="421.7" r="7.59" fill="#fff"/><circle cx="1147.28" cy="453.57" r="7.59" fill="#fff"/><circle cx="720.79" cy="461.16" r="7.59" fill="#fff"/><circle cx="701.71" cy="494.83" r="7.59" fill="#fff"/><path d="M1373.29 377.84h-43.95l35.31 26.68h42z" fill="#fbb040"/><path fill="#fbb040" d="M216.21 269.16l11.77 21.58 55.71 8.63-67.48-30.21z"/><path d="M950.15 41.59V32.7h3.4V22.23h-4.19L941.78 6.8h-8.9L913 18.31l-20.14 2.61-28.24 14.84a14.12 14.12 0 0 0 5.75 27h87.11l4.19-16.22z" fill="#231f20"/><path fill="#fff" d="M828.65 396.19l203.02 33.32-224.43 2.19 21.41-35.51z"/></g></g></svg>