<svg xmlns="http://www.w3.org/2000/svg" viewBox="-1.3200006484985352 -1.239999771118164 174.33001708984375 282.7699890136719"><title>Depositphotos_69162097_10</title><g data-name="Layer 2"><g data-name="Layer 4"><path d="M131.59 134.67A195.11 195.11 0 0 0 97.43 156c-4.65 3.67-10.24 8-14.05 13.22 0-.22 0-.43-.08-.65.32-3.72.78-7.42 1.43-11.11a169.73 169.73 0 0 1 6.82-25.7c3.41-7.61 6.22-15.89 11.16-22.58 7.49-8.5 19.08-13.59 29.23-17.67a.24.24 0 0 0 0-.46c-4.4-1.16-9.08.23-13.42 2.38a39.41 39.41 0 0 0-13.88 7.93c7.75-15.16 18.69-29.61 20.34-47 0-.32-.47-.37-.55-.07-4.88 18.71-17.93 34.22-26.26 51.47q-1.41 2.91-2.75 5.87c-1.25-11.36-5.19-22.5-10.49-32.63-1.54-5.86-4.57-11.28-6.57-17a131.2 131.2 0 0 1-4.5-15.58 103.58 103.58 0 0 1-.74-15.28.23.23 0 0 0-.46-.06 50.57 50.57 0 0 0-.88 25.29c.29 1.31.63 2.57 1 3.81-1.31-1.68-2.65-3.34-4-4.94-2.68-3.11-5.54-6.08-8.5-8.91a45.16 45.16 0 0 0-2.72-2.36A20.51 20.51 0 0 1 56 41.33c-.68-1.46-1.51-5.14-3.62-5-.08-.07-.16-.15-.25-.21-.77-.55-1.66.4-1.38 1.18a.88.88 0 0 0-.14.42 15.46 15.46 0 0 1-1-1.3.25.25 0 0 0-.43.25c.22.47.47.93.73 1.39a1 1 0 0 0-.78 1.61 11.42 11.42 0 0 0 1.68 1.73 11 11 0 0 0 2.25 1c2.82 3.29 6.24 6.25 9 9.33a145.86 145.86 0 0 1 15.21 20.22 103.63 103.63 0 0 1 7.15 13.8 49.11 49.11 0 0 0-8.95-7.8c-7.94-5.52-18.07-8.37-27.35-10.61-.14 0-.24.17-.1.24l2.5 1.14a.22.22 0 0 0 .08.08c.76.32 1.52.66 2.27 1l3 1.41a73.47 73.47 0 0 1 21 14.67 66.6 66.6 0 0 1 9.49 11.67 93.35 93.35 0 0 1 4.86 9.9q1 4.84 1.75 9.82c-2.26 5.31-4.31 10.74-6.12 16.23-1.09-6.26-4.44-12-8.54-17.12a44.89 44.89 0 0 0-7.57-8.93c-.2-.18-.53 0-.38.29a96.65 96.65 0 0 1 10.11 22.51c2.13 7 1.48 14.47 1.35 21.78-.56 2.7-1.07 5.41-1.47 8.13-3.48-6.37-9.23-11.79-14.79-15.83-6-4.34-13-7.38-18.46-12.36-5.31-4.82-9.79-10.75-14.47-16.17-.1-.12-.31 0-.22.17 7 9.66 13 18.5 23.07 25.12 5.67 3.72 11.25 7.57 15.86 12.59A36.27 36.27 0 0 1 74 157a33.2 33.2 0 0 0-22-8.06.38.38 0 0 0 0 .76c7.28.78 15 5.78 20.18 10.93a20.73 20.73 0 0 1 4.63 7.52c1.35 4.08 1.53 8.52 2 13.09-.08 12.8 1.1 25.63 2.16 38.37 1.66 19.94 3 40.22 7.5 59.77.36 1.57 3.09 1.27 2.88-.39-2.71-20.54-5.06-41-6.72-61.67-1-12.67-2.13-25.5-1.89-38.26 2.82-10.32 11.91-16.88 20.23-23.43a275.92 275.92 0 0 1 29.08-20.15.46.46 0 0 0-.46-.81z" fill="#85a352"/><path d="M127.41 134.18v.2a.08.08 0 0 0 .17 0v-.2a.08.08 0 0 0-.17 0z" fill="#85a352"/><path d="M82.47 88.11a78.65 78.65 0 0 0-25.13-17.35c-.33-.14-.62.31-.29.5 7.84 4.49 14.59 10.79 21.05 17.06 7.66 7.43 12.08 16 14.91 26.29.1.35.69.3.66-.09-.81-9.6-4.35-19.52-11.2-26.41z" fill="#668234"/><path d="M81.77 66c-4.21-10.21-6.21-20.54-8.9-31.2a.2.2 0 0 0-.38.05c.66 10.06 1.2 19.94 5.17 29.31 4.82 11.36 9.62 22.8 14 34.34a.33.33 0 0 0 .64-.18A239.26 239.26 0 0 0 81.77 66z" fill="#668234"/><path d="M128.84 92.33c-11.08 1.95-23.41 8.35-29.71 18-3.08 4.71-4.7 10.32-6.76 15.51-.35.88-.71 1.77-1.07 2.67a52.86 52.86 0 0 0-6.17 13.2c-.21-10.75-4.67-22.58-11.67-29-.11-.1-.28 0-.2.16a53 53 0 0 1 6.58 17.93c1.42 7.18 3.66 15.22 2.22 22.47a.69.69 0 0 0 0 .33c-.27 1.31-.52 2.61-.76 3.89a89.06 89.06 0 0 0-1.45 13c-.81-3.81-2.15-7.35-4.2-9.8-5-6-14.05-8.62-21.11-11.06-.25-.09-.4.29-.18.42 6.24 3.73 14 7 18.71 12.63 5.43 6.54 5.25 14.68 6.7 22.61.07.39.46.42.72.24.47 3.88 1.15 7.79 2 11.78a.3.3 0 0 0 .58-.08c-.55-12.95-.81-26 1.75-38.73 2.3-11.48 6.24-21.39 11.52-31.78a1.59 1.59 0 0 0-.59-2c1.47-3.49 3-7 4.84-10.35 5.71-10.74 17.85-16.53 28.4-21.47.34-.23.12-.62-.15-.57z" fill="#668234"/><path d="M73.88 155.31c-4.93-9.48-16-13.56-23.43-20.71a1.34 1.34 0 0 0-1.89 1.89c7.39 7.68 17.81 11.13 25.14 19 .09.05.23-.07.18-.18z" fill="#668234"/><path d="M102.26 155.31c-7.25 3.88-12.34 10-17.19 16.42-.2.27.24.61.47.36 5.26-5.8 11.94-10.24 18.09-15 1.05-.81-.29-2.36-1.37-1.78z" fill="#668234"/><path d="M119.51 70.24c-4.83 9.3-9.57 18.61-14.16 28a.27.27 0 0 0 .46.27c5.56-8.65 12.63-17.53 15.86-27.39a1.19 1.19 0 0 0-2.16-.88z" fill="#668234"/><path d="M70.36 60.83c-3.34-4.55-6.63-9.15-10.1-13.6-1.25-1.6-2.46-3.29-3.86-4.76A10 10 0 0 0 54.47 41c-.54-.8-1.1-1.56-1.71-2.32-.73-.92-1.28-1.9-1.93-2.87a.32.32 0 0 0-.58.24v.06a.21.21 0 0 0 0 .18 19.17 19.17 0 0 0 .65 2c-.86-.41-1.88.7-1.41 1.65.72 1.47 1.46 1.67 2.85 2.57 2.46 1.59 4.12 4 6 6.16C62.14 52.92 66.07 57 70 61.13c.15.2.53-.07.36-.3z" fill="#668234"/><path d="M88.24 240.19C87 228 87 215.41 84.12 203.46c-.08-.32-.53-.18-.48.13.95 6.76.06 13.8.28 20.62.22 6.48.66 12.94 1.23 19.4 1.07 12.1 2 24.93 5.44 36.62.38 1.3 2.52 1.11 2.44-.33-.72-13.25-3.45-26.49-4.79-39.71z" fill="#668234"/><path d="M119.24 73.26C116.57 79 114 85 110.39 90.21c-.14.2.19.47.35.27 4.09-5.09 7.89-10.3 9.88-16.63.24-.85-1.01-1.37-1.38-.59z" fill="#506924"/><path d="M119.29 96.87c-11.07 4.27-17.8 12-22.59 22.64-.49 1.09 1 2 1.63 1 2.93-5 5-9.56 8.92-13.92 3.66-4.08 7.68-6.4 12.16-9.37.16-.15.07-.43-.12-.35z" fill="#506924"/><path d="M85.82 76.81C82.4 64.94 76.43 54.28 74.57 41.9c0-.25-.45-.19-.44.06.8 12.54 6.65 23.46 10.56 35.16a.58.58 0 0 0 1.13-.31z" fill="#506924"/><path d="M92.94 108.53c-4.35-14.64-15.47-24-27.82-32.35-.12-.08-.26.1-.16.2 5.11 4.9 10.42 9.6 15.48 14.54 5.42 5.29 8.75 11 11.77 17.91.19.42.86.17.73-.3z" fill="#506924"/><path d="M83.08 137.79c-1.35-6-2.92-11.9-5.94-17.32-.15-.27-.51 0-.4.23 2.16 5 3 10.13 4 15.45 1 5.72 2.25 10.83 1.42 16.69a.66.66 0 0 0 1.27.35c1.69-5.49.9-9.85-.35-15.4z" fill="#506924"/><path d="M91.92 131.83c-4.27 7.07-6.41 15.75-8.12 23.76-1.54 7.2-4.14 15.35-2 22.62.05.18.37.16.35 0-1.06-7.93 2.18-16.43 4.23-24 2-7.41 4.78-14.34 7.36-21.55.38-1.14-1.25-1.76-1.82-.83z" fill="#506924"/><path d="M68.12 150c-4.49-4.47-10-7.57-15.11-11.28-.72-.52-1.46.58-.91 1.18 4.3 4.74 10.86 6.41 15.73 10.39.17.15.48-.11.29-.29z" fill="#506924"/><path d="M75.46 163.17c-3.28-5.62-9.58-7.67-15.16-10.35a.08.08 0 0 0-.08.14c4.87 3.66 10.37 5.67 13.51 11.22a48 48 0 0 1 5.9 19.54.67.67 0 0 0 1.33 0c.62-7.01-1.96-14.52-5.5-20.55z" fill="#506924"/><path d="M80.35 186.76a.22.22 0 0 0 0 .44.22.22 0 0 0 0-.44z" fill="#506924"/><path d="M60.94 50c-1.58-2-3.16-3.92-4.84-5.81a44.82 44.82 0 0 0-5.1-5.47c-.65-.52-1.87.17-1.28 1A43 43 0 0 0 54.78 45c1.91 1.85 3.86 3.63 5.86 5.38a.21.21 0 0 0 .3-.38z" fill="#506924"/><path d="M88.33 234.73c-.17-1.24-2-.85-2.09.28-.74 13.93 2.64 28.31 5.41 41.85a.25.25 0 0 0 .49-.07c-1.08-13.92-1.9-28.25-3.81-42.06z" fill="#506924"/><path d="M73 33.49a13.19 13.19 0 0 0 .24-4.87.11.11 0 0 0-.21 0 17.46 17.46 0 0 1-.5 2c-4 8.49-3.8 21.75 1.35 29.7.18.28.67.11.56-.24C71.72 52 72.89 42.17 73 33.49z" fill="#a5c274"/><path d="M82.07 84.07c-3-3.58-6-7.06-9.78-9.91a23 23 0 0 0-7.08-3.43c-6.37-2.86-13.82-2.62-20.46-4.73a.18.18 0 0 0-.14.32c5.71 3.19 12.13 5.09 18.5 6.63a54.83 54.83 0 0 1 7.12 3.27c4 2.51 7.91 5.3 11.66 8.1.11.07.27-.14.18-.25z" fill="#a5c274"/><path d="M138.07 91.75c-6.33-3-12.6-2-18.91.61s-13.5 6.11-17.23 12c-.11.17.14.35.28.21a48.21 48.21 0 0 1 17.56-10.49c6.19-2.08 11.82-1.6 18.19-1.87.22-.01.35-.35.11-.46z" fill="#a5c274"/><path d="M84.06 125.76A38.85 38.85 0 0 0 77.43 113c-3.51-4.23-8.23-7.28-11.76-11.53-.15-.18-.44.05-.32.25a53.47 53.47 0 0 0 8.57 10.56c4.13 4.16 6.44 8.87 9.46 13.77.22.34.81.12.68-.29z" fill="#a5c274"/><path d="M70.19 154.1c-3.15-2.46-6.61-5-10.57-5.9-4.16-.94-8.31-.3-12.52-.39a.19.19 0 0 0 0 .36c3.73 1.19 7.53 1.15 11.34 1.94 4 .83 7.62 3.15 11.52 4.46.21.1.45-.29.23-.47z" fill="#a5c274"/><path d="M137.12 134.26c11.74-.75 24.9-4.81 33.58-12 .26-.22 0-.68-.34-.5-5.27 3.2-13.51 3.52-19.49 4.58-6.6 1.17-13.34 1.8-19.88 3.24l-.26.08a1.9 1.9 0 0 0-.72-1.88c-3.89-3.34-8.32-3.92-13-5.86-7-2.94-12.43-8.62-17.84-13.78-.35-.34-1 0-.76.52 3 5 6.17 10 10.68 13.75 5.27 4.42 11.84 5.78 17.76 9.06a2.47 2.47 0 0 0 2.29 0 2.32 2.32 0 0 0 1.84 2.8c-9.9 9.92-17.4 23.79-18.37 37.76a.47.47 0 0 0 .85.27c7-13.22 13.72-25.34 23.15-37a2 2 0 0 0 .51-1.04z" fill="#85a352"/><path d="M163.67 125.94a59.73 59.73 0 0 1-10.09 3.18c1.57-.55 3.11-1.15 4.64-1.78.42-.18.17-.86-.26-.75-9.18 2.15-18.24.27-27.47.75-2.07.11-3 3.2-.69 3.83a29.3 29.3 0 0 0 3.61.74c-2.06.2-4.11.39-6.13.61s-1.67 3.39.27 3.42c13.19.19 24.86-3.3 36.45-9.35a.37.37 0 0 0-.33-.65z" fill="#506924"/><path d="M114.57 170.29c3.9-8.64 12-14.42 12.16-24.44 0-2.36-3.16-2.37-3.55-.17-.89 5-2.91 9.15-5.37 13.52-2 3.49-2.85 7.05-4.05 10.84-.18.53.59.74.81.25z" fill="#506924"/><path d="M124.36 127.93a1.35 1.35 0 0 0 0-2.33 28.35 28.35 0 0 0-5.58-2.43c-2.45-.84-5.41-1.19-7.41-3-.31-.27-.78.13-.49.44l.38.38a21.93 21.93 0 0 1-7.55-6.26c-.26-.36-.84.06-.64.44 3.89 7.32 10.57 13.91 19.27 14.83a1.93 1.93 0 0 0 2.02-2.07z" fill="#506924"/><path d="M170.21 151.91c2.8-7-7.84-14.06-12.71-16.33a40.86 40.86 0 0 0-20-3.62 54.49 54.49 0 0 0 11.65-10c4.64-5.18 10.68-12.06 4.72-18.71-4.19-4.68-12.17-.63-16.12 2.73a34 34 0 0 0-7.17 9.06 27.72 27.72 0 0 0 .16-6c-.44-4.46-3.09-12.21-8.7-11-5.78 1.22-10.32 7.28-8.07 12.85 1.87 4.64 2.47 8.6 3.45 13.45a46.6 46.6 0 0 0 1.39 5.16 68.45 68.45 0 0 0-13.44-8.26c-6.16-3.06-14.22-4.43-18.51 2.45-7.14 11.43 7.79 15.41 21.7 16.78a27 27 0 0 0-10.35 6.28c-5.12 5.32-9.23 9.89-2.61 15.47 10.63 9 20.11-2.28 25.83-13.56l2.06-2.38c0 .45-.08.9-.1 1.35-2.95 12.92-4.7 29.53 6.23 28 6.65-1 9.94-9.45 9.7-15.3a46.2 46.2 0 0 0-2.76-12.45 27 27 0 0 0-1.06-2.58c.16.12.31.25.48.37a31.83 31.83 0 0 0 3.62 2.19 43.61 43.61 0 0 0 9.59 4.74 37.49 37.49 0 0 0 10.51 2.22c4.47.96 8.97.97 10.51-2.91z" fill="#ffa3ab"/><path d="M135.41 169.64c4.84-9.35 3.13-20.77-3-29.26l.78-2.08a1.62 1.62 0 0 0-.26-1.62 11.47 11.47 0 0 0 .64-1.81l.35-.52a2.29 2.29 0 0 0 .51-.16c9.87-4.4 21.11-14.76 21.54-26.26a.22.22 0 0 0-.43-.08 27.17 27.17 0 0 1-2.06 3.86.37.37 0 0 0-.27.12 53 53 0 0 1-11.26 9.32 1.9 1.9 0 0 0-1.56.11q-1.66 1-3.19 2.09c1.57-2.35 3.28-4.62 5-6.84.29-.37-.24-1-.63-.7a41.07 41.07 0 0 0-5.78 4.75 2.32 2.32 0 0 0-.53-.26c2-5.81 4.89-10.95 10.28-15 .5-.37-.08-1-.57-.84a27.86 27.86 0 0 0-8 4.76c.18-.27.33-.54.52-.81s-.14-.59-.39-.44a21.25 21.25 0 0 0-7.48 7.93 37.73 37.73 0 0 0 .5-6.79.6.6 0 0 0-1.19-.06A22.41 22.41 0 0 1 127 115a2 2 0 0 0-.44-.16 28.26 28.26 0 0 1-.85-3.88c-.12-.68-1.09-.55-1.16.09s-.11 1.56-.14 2.36v-.09c-.89-3.55-2.1-7-3-10.55a.46.46 0 0 0-.92.07 96.66 96.66 0 0 0-.07 11.43c.12 1.4.2 2.87.37 4.33a2.65 2.65 0 0 0-1 .35c-.37-1-.69-2-1-2.8-1-2.56-2.09-5.16-3-7.78-.09-.27-.57-.3-.55 0a61.22 61.22 0 0 0 1.21 11.38 15.77 15.77 0 0 0 .7 6.4 10.52 10.52 0 0 0-2-.77 13.26 13.26 0 0 0-9.58-2 .23.23 0 0 0-.16.33c.61 1.34 1.51 1.59 2.83 2.21a23.17 23.17 0 0 1 2.19 1.18 2.16 2.16 0 0 0-.11 2.21 8 8 0 0 0 1.36 1.56l-1.41-.13a6.42 6.42 0 0 1-1.88-.21c-.77-.34-1.36.77-.85 1.33a4.62 4.62 0 0 0 1.39 1h-.51c-3 0-6-.46-9-.45a.57.57 0 0 0-.33 1 15 15 0 0 0 2.67 1.76h-2.88a25.44 25.44 0 0 1-10.82-3.35c-.41-.22-1 .2-.73.66a14.42 14.42 0 0 0 9.22 6.66c.76.15 1.58.27 2.41.38a10.11 10.11 0 0 0 1.34.54 23 23 0 0 0 8 .67c2.49-.12 5.14-.17 7.72-.49-.53.66-1.14 1.28-1.67 1.88-.9 1-1.77 2.09-2.65 3.13-.61.72.07 2.16 1.05 1.53s2.12-1.37 3.17-2.07l-.72.95a46.16 46.16 0 0 1-4.28 5.61c-.83.81.36 2.13 1.21 1.34 1.72-1.6 3.68-2.87 5.49-4.35a93.52 93.52 0 0 1-6.62 12.4c-.23.35.11 1 .56.81 5.34-1.87 9-7.09 11.67-12.68a18.93 18.93 0 0 0 1.82 13 .58.58 0 0 0 1 0 23.85 23.85 0 0 0 1.06 2.58.5.5 0 0 0 .94-.2 35.69 35.69 0 0 0 .14-3.62 3.51 3.51 0 0 0 .93.53 1.92 1.92 0 0 0 1.1.06c.09.64.16 1.28.21 1.93a.72.72 0 0 0 1.44.07c.07-1.2.21-2.38.31-3.57v-.23a10 10 0 0 0 .29-3.87 1.92 1.92 0 0 0-1.81-1.95c0-.08 0-.16-.05-.24a2.24 2.24 0 0 0-1.9-1.67c0-.1 0-.19.06-.29.32-1.29.69-2.58 1.09-3.85 1.07 2.56 2.19 5.11 3 7.77 1.41 4.52 1 9.34 1.32 14 .07.6.9 1.04 1.23.4z" fill="#e05c72"/><path d="M169.13 147.72c-5.79-.93-10.68-4-15.61-7 .82.17 1.64.34 2.47.44a.58.58 0 0 0 .45-1 17.6 17.6 0 0 0-4.14-2.88 35.38 35.38 0 0 1 9 3.22c.62.33 1.38-.43.84-1a23.38 23.38 0 0 0-17.52-7.39 21.64 21.64 0 0 0-5.06-.18 1.68 1.68 0 0 0-1.63 1.49 1.84 1.84 0 0 0-.46.74 2.26 2.26 0 0 0 .29 4.46c11.24 1.85 19.38 12.35 31.44 9.87a.4.4 0 0 0-.07-.77z" fill="#e05c72"/><path d="M99 157.36a60.05 60.05 0 0 1 5.11-6c1.75-1.73 3.78-3.12 5.55-4.83 1.23-1.19.23-3.82-1.65-3.23-5.76 1.82-9.9 7.75-10.36 13.66a.74.74 0 0 0 1.35.4z" fill="#e05c72"/><path d="M160.39 154.19c-3.82-1.48-7.29-3.74-11-5.54-3.12-1.53-6.44-2.44-9.62-3.78h-.08c-1.9-1.15-3.81-2.27-5.71-3.35a.22.22 0 0 0-.31.28 19.26 19.26 0 0 0 10.8 9.31 1.27 1.27 0 0 0 1-.06 40.78 40.78 0 0 0 14.78 3.77c.4.02.46-.5.14-.63z" fill="#ffd5bf"/><path d="M131 157.42a8.48 8.48 0 0 0-.61-2.23.43.43 0 0 0-.5-.2 2 2 0 0 0-1-.75 1.31 1.31 0 0 0-1.25.27c-.09-.83 0-1.73-.06-2.48-.13-1.47-.73-3.31-.44-4.76.1-.48-.63-.73-.74-.23a28.32 28.32 0 0 1-1 2.75 14.55 14.55 0 0 0-.66 3 5.35 5.35 0 0 0 .3 2.81.93.93 0 0 0 .15.6c.61.91 1.36 2.06 2.58 2.12a1.71 1.71 0 0 0 1-.34 4.63 4.63 0 0 0 .34.44 1.08 1.08 0 0 0 1.89-1z" fill="#bd2f53"/><path d="M154.53 110.35a2.06 2.06 0 0 0-.72-2.9c.26-.59.5-1.21.74-1.84a.38.38 0 0 0-.53-.45l-.28.15.14-.34a.25.25 0 0 0 .28-.34 6.85 6.85 0 0 0-1.35-2.4 6.18 6.18 0 0 0-2.69-1.45 7.11 7.11 0 0 0-5.12.64 11.5 11.5 0 0 0-7.62 5.82.22.22 0 0 0 .28.31 27.56 27.56 0 0 1 5.3-1.89c1.75-.42 3.57-.46 5.29-1a1.61 1.61 0 0 0 .31-.15h1.11c.72 0 1.45.11 2.17.2h.06c-1.81.75-3.84 1-5.63 1.91a18.19 18.19 0 0 0-2.09 1.27c-4.3 1.66-7 6-8.05 10.26-.13.52.51 1 .93.6 2.12-2.14 4.55-4 6.81-5.94l.66-.43a1.34 1.34 0 0 0 1.83 1c.4-.14.8-.29 1.2-.46a62.09 62.09 0 0 1-5 5.73.39.39 0 0 0 .44.64 25.47 25.47 0 0 0 11.53-8.94z" fill="#ffd6d6"/><path d="M170.45 149.22c0-.3-.44-.51-.61-.19a5.23 5.23 0 0 1-.38.57.44.44 0 0 0-.47 0c-3.82 2-13.67-3.14-17.57-4.44-5.36-1.79-9.87-4.43-14.71-7.23a2.08 2.08 0 0 0-2.64 3.14c.21.23.43.46.65.68a2 2 0 0 0-.33 3.22c4.71 4.31 36.61 19.61 36.06 4.25z" fill="#ffd6d6"/><path d="M111.49 158c.15-.41-.44-.66-.68-.32a9.17 9.17 0 0 1-4.38 3.37c1.61-1.59 1.79-3.93 2.54-6.13.21-.62-.62-.93-1-.46-.83 1.08-2.71 3.15-4.08 3.61l-.6.07a1.36 1.36 0 0 0-.62 0c.81-1.59 1.43-3.28 2.39-4.81a30.69 30.69 0 0 1 5.33-6.22c.37-.33 0-.83-.47-.68-3.16 1.18-6 2-8.29 4.71a15.19 15.19 0 0 0-3.27 7.07 1.82 1.82 0 0 0-1.53-.48 6.91 6.91 0 0 1-.16-1.4A2.26 2.26 0 0 0 97 156a3 3 0 0 0 .63-1.89 2 2 0 0 0 0-.38c1-3.65 4.68-7.41 7.49-9.47.37-.27-.07-.92-.47-.68-4.12 2.57-8.79 4.39-10.84 8.92-2.58 2.18-1.91 5.78.25 8.31a1.64 1.64 0 0 0 1.14.6c.79 2.63 4.73 4.38 7.32 4.52 5.04.29 7.43-3.81 8.97-7.93z" fill="#ffd6d6"/><path d="M164.58 147.93c-6.82-2.06-12.47-6.44-18.62-9.8a1.57 1.57 0 0 0 .17-2.67 22.14 22.14 0 0 1 5 .18c.5.08.63-.63.28-.88a14.07 14.07 0 0 0-13.9-1.45h-.1c2.92-1.2 6.32-4.51 8.08-6.13a32.89 32.89 0 0 0 7.92-11.39c.13-.3-.31-.57-.53-.34a78.06 78.06 0 0 1-9.88 8.45.8.8 0 0 0-1.29-.54 28.45 28.45 0 0 1-4.58 3.3 1.9 1.9 0 0 0-1.76-.28 36.72 36.72 0 0 0 1.06-3.54.79.79 0 0 0-1.27-.81 25 25 0 0 0-2.48 2.7 15.14 15.14 0 0 1 .09-2.32 32.53 32.53 0 0 1 1.65-7.09c.27-.72-.72-1.05-1.14-.53-.94 1.18-2 2.47-2.93 3.84-.17-1.79-.59-3.54-.86-5.4-.08-.53-.83-.41-.89.07a23.58 23.58 0 0 1-2.69 8.73c-.44.74-.94 1.44-1.43 2.13v-.12a14.3 14.3 0 0 1-1.38-4.56c0-.48-.77-.46-.89 0a13.84 13.84 0 0 0-.28 5.88 21.15 21.15 0 0 1-4.67-10.36c-.07-.48-.74-.37-.8.06-.53 4.35-.9 8.32 1.33 12.3.15.26.32.54.48.81a21.69 21.69 0 0 0-5.15-1.49c-.4-.07-.57.47-.35.73 1.28 1.54 3 2.47 4.47 3.82a10.19 10.19 0 0 1 2.06 3 7 7 0 0 1-1.74-.37 2.09 2.09 0 0 0-2.54 1l-.61-.05c-.65-.06-1.3-.11-2-.14s-2.4.19-3-.32-1.29.19-.81.74c1.06 1.21 2.76 1.76 4.26 2.3a55.24 55.24 0 0 1-6.73 0c-4.17-.19-8.35-1.43-12.52-1-.35 0-.29.51 0 .61 5 2 8.91 4.19 14.36 4.89 4.23.54 9.38.69 13.39-1.24a11.31 11.31 0 0 1-1.05 1.68c-1.26 1.61-2.48 3.15-3.58 4.88a.49.49 0 0 0 .63.7 33.41 33.41 0 0 0 3.22-1.63c-1.51 3.51-2.89 7.42-4.84 10.59a.32.32 0 0 0 .41.45c4.11-1.9 7-7 9.19-10.82a34.18 34.18 0 0 0 1.58-3.08c.13 1 .28 1.93.41 2.9.06.41.6.35.73 0 .37-.87.71-1.75 1-2.64a43.12 43.12 0 0 1 3.33 7.22 58.92 58.92 0 0 0 3.88 8.56.34.34 0 0 0 .65-.14c.71-6.45-.2-15.25-5.08-20.14 1.09.14 2.2.21 3.28.3a42.72 42.72 0 0 0 4.27.19c8.37 3 15.89 9 25.06 8.77a.24.24 0 0 0 .13-.51z" fill="#bd2f53"/><path d="M133.26 174.89a15.29 15.29 0 0 0 5.39-11.31.39.39 0 0 0-.78 0c-.4 2.65-2.35 4.28-4.29 5.87-.12-1.86-.32-3.72-.36-5.59a.44.44 0 0 0-.88 0 44.23 44.23 0 0 1-.95 5.24c-.14.6-.37 1.23-.57 1.86-.09-.27-.17-.57-.23-.76a1.87 1.87 0 0 0-1.41-1.32v-.08c-.08-.38-.61-1.74-.37-2s-.3-.87-.65-.54a5 5 0 0 0-1.18 2.65c-.11.46-.22.93-.31 1.39a7 7 0 0 1-2.42-4.56c-.45-2.51-.66-5.12-1-7.65-.07-.58-.94-.46-1 .08-.38 4.12-2.4 7.84-1.14 12 .61 2 2.22 4.21 4.22 4.79 1.98 2.13 5.67 1.9 7.93-.07z" fill="#ffd6d6"/><path d="M121.57 120.69c-.09-3.82-1.52-7.29-2.31-11-.17-.81-1.51-1-1.7-.08a12.69 12.69 0 0 0 3.22 11.39.46.46 0 0 0 .79-.31z" fill="#ffd6d6"/><path d="M130.37 111.06c.39-3.53.59-6.48-1.18-9.76-1.41-2.62-3.95-4.57-6.87-3a1.78 1.78 0 0 0-.87 1.9c-.06 0-.12.07-.18.12a1.73 1.73 0 0 0 1.07 3c.21 0 .87.07.79 0s.23 1.07.23 1.06a2 2 0 0 0 2.08 1.41 16.27 16.27 0 0 1 1.41 3 .44.44 0 0 0 .86-.18c-.17-1.08-.17-2.19-.34-3.27 0-.12-.05-.23-.07-.35a20.28 20.28 0 0 1 2.57 6.1.26.26 0 0 0 .5-.03z" fill="#ffd6d6"/><path d="M115.66 113.71a32 32 0 0 1-.28-5.79 24.42 24.42 0 0 1 .33-2.78c.17.49.36 1 .55 1.43.52 1.3 2.26.43 2.14-.75a13.45 13.45 0 0 1 0-1.93 4.46 4.46 0 0 1 .15-1.64 7.23 7.23 0 0 0 .66-1.21 10.43 10.43 0 0 0 .26-1.38.17.17 0 0 0-.25-.16c-.77.43-1.58.09-2.38.41a2.63 2.63 0 0 0-1.55 1.76v.11c-1.09.91-1.51 2.68-1.7 4.06a12.27 12.27 0 0 0 1.44 8.09.33.33 0 0 0 .63-.22z" fill="#ffd6d6"/><path d="M98.42 122.39c2.24.37 4.4.61 6.64.88.59.07.68-.78.17-1-1.57-.61-2.83-1.94-4.29-2.78a14 14 0 0 0-4.16-1.67 7 7 0 0 0-7.56 3.22 1.68 1.68 0 0 0 .59 2.32 2 2 0 0 0 1.19 2.07 7.51 7.51 0 0 0 3.43.29 2.05 2.05 0 0 0 1.83-1.17 6.13 6.13 0 0 1 2.65.6c.49.3 1-.46.48-.76-.83-.51-1.48-1.24-2.35-1.7a8.64 8.64 0 0 0-1-.41 10.68 10.68 0 0 1 2.38.11z" fill="#ffd6d6"/><path d="M107 134.77c-2.25-.39-4.41-1.44-6.66-1.93-1-.21-2-.37-3-.54a2.11 2.11 0 0 0-1.16-2.42c-3.05-1.25-6.5-2.13-8.65-4.87a.39.39 0 0 0-.66.14 5.12 5.12 0 0 0 .2 3.45 6.1 6.1 0 0 1-1-1c-.26-.33-.79 0-.71.36 1 4.94 6.36 7 11.14 7.69 3.37 1.11 6.88.81 10.55 0a.45.45 0 0 0-.05-.88z" fill="#ffd6d6"/><path d="M107.73 129.26c-1.37.15-3.26-.62-4.56-1s-2.7-.91-4.1-1.26-2.58 1.7-1.13 2.43a14.67 14.67 0 0 0 5 1.54 9.46 9.46 0 0 0 2.49 0 21.73 21.73 0 0 0 2.51-.83.44.44 0 0 0-.21-.88z" fill="#ffd6d6"/><path d="M168.58 149.51a44.54 44.54 0 0 1-14-4.18 54.18 54.18 0 0 0-6.88-2.9c-.87-.38-1.75-.74-2.63-1.09-3.14-1.24-6.42-2.59-9.82-2.82a.17.17 0 0 0-.13.28c2.2 2 4.9 3.26 7.56 4.59 1.36.68 2.69 1.42 4 2.18a39.58 39.58 0 0 0 8.61 4.94 20.22 20.22 0 0 0 13.37.17.6.6 0 0 0-.08-1.17z" fill="#fff7e8"/><path d="M155 108.29a1.85 1.85 0 0 0-1.27-1.32c.49-1.14.54-2.34-.78-3a.22.22 0 0 0-.34.17 6 6 0 0 1-.06.8 2.4 2.4 0 0 1-.56.82c-.16.18-.35.34-.52.52h-.08a15.46 15.46 0 0 0-1.62.58 2.22 2.22 0 0 0-.43-.24c-1.61-.6-3.45.86-4.7 1.71a23 23 0 0 0-5.33 5.36c-.47.61.47 1.36 1 .86a18.15 18.15 0 0 1 4-2.69 17.47 17.47 0 0 1 1.68-.78l.27-.09a2.47 2.47 0 0 0 2.69.8c.32-.11.62-.24.93-.37a31.41 31.41 0 0 1-2.26 3.1c-.35.41 0 1.18.59.86a22.41 22.41 0 0 0 4.59-3.31c.99-.92 2.56-2.23 2.2-3.78z" fill="#fff7e8"/><path d="M129.72 104.83c-.22-1.3-.76-4.47-2.32-4.9a1.57 1.57 0 0 0-.45-.05 3.84 3.84 0 0 0-2.75-1.09 1.13 1.13 0 0 0-.39 2.19 4.68 4.68 0 0 1 2.25 1.38 1.07 1.07 0 0 0 1.36.22l.35.48a15.19 15.19 0 0 1 1.25 2 .38.38 0 0 0 .7-.23z" fill="#fff7e8"/><path d="M120.1 113.67c-.08-1.31-.3-2.62-.45-3.93a42.48 42.48 0 0 0-.55-4.28 1.17 1.17 0 0 0-.11-.28c.07-.29.18-.71.25-1h.25a1.35 1.35 0 0 0 1-1.2v-.22a1.12 1.12 0 0 0-.18-.73 8.9 8.9 0 0 1 .84-2.47.42.42 0 0 0-.63-.53 6.87 6.87 0 0 0-2 2.19c-1.57.2-1.78 3.2-1.72 5.19a11.46 11.46 0 0 0 2.45 7.57.44.44 0 0 0 .85-.31z" fill="#fff7e8"/><path d="M107.54 130.28c.29-.1.17-.58-.12-.58a22.33 22.33 0 0 1-9.35-2.39 1.35 1.35 0 0 0-1.87.83 1.31 1.31 0 0 0-.67-.38 3.17 3.17 0 0 0-1.88-.21 8.75 8.75 0 0 1-4.23-1.68c-.42-.39-1.24 0-.9.62a7.87 7.87 0 0 0 3.32 2.82 1.72 1.72 0 0 0 .64 1.43 16.55 16.55 0 0 1-5.48-2.67c-.14-.11-.35.09-.26.24 2.26 4 6.16 5.4 10.51 6 1 .15 1.38-1.1.87-1.78a1.58 1.58 0 0 0 1.44-1.89 12.94 12.94 0 0 0 7.98-.36z" fill="#fff7e8"/><path d="M98.71 120.72a15.2 15.2 0 0 0-5-1.45 3.56 3.56 0 0 0-3.5 2.28c-.17.34.17.89.57.63a4.53 4.53 0 0 1 1.89-.92 4.2 4.2 0 0 1 1.61.32c1.26.4 2.51.87 3.76 1.3 1.4.49 1.96-1.59.67-2.16z" fill="#fff7e8"/><path d="M100.49 163.41c-.7-.26-1.44-2-1.9-2.67A13.19 13.19 0 0 1 97 158a1.11 1.11 0 0 0-.24-.37 6.49 6.49 0 0 1-.06-1.26A1.6 1.6 0 0 0 96 155c.12-2.82 2.15-5.9 4.05-7.61a.4.4 0 0 0-.45-.66c-3.91 2-7.41 5.9-6.85 10.62a1.4 1.4 0 0 0 .47.91 6.06 6.06 0 0 0 1.61 3.31 1.41 1.41 0 0 0 .82.41 6.6 6.6 0 0 0 1 1.06c1 .81 2.5 1.62 3.81 1.15.45-.19.32-.67.03-.78z" fill="#fff7e8"/><path d="M109.3 161c1.14-1.24 1.68-2.8 2.61-4.16a.59.59 0 0 0-.91-.84c-1 .92-1.72 2-2.75 2.89-.18.15-.36.29-.55.43a20 20 0 0 0 4.08-7.06c.22-.62-.78-1.12-1.07-.5a20.08 20.08 0 0 1-5.05 6.4 1 1 0 0 0-1 .23 6.08 6.08 0 0 0-1.06 1.51c-.23.23-.47.44-.7.69-.61.66-1.22 1.74-2.06 2.08-.67.27-.22 1.15.38 1.09a6.64 6.64 0 0 0 2.42-.73l.31-.12.19.06a.85.85 0 0 0 1.13.51 8.92 8.92 0 0 0 4.03-2.48z" fill="#fff7e8"/><path d="M168.49 146c-.88-2-2.69-3.28-4.54-4.41a.72.72 0 0 0-.77 1.21 33.78 33.78 0 0 1 4.85 3.51.28.28 0 0 0 .46-.31z" fill="#fff7e8"/><path d="M163.47 154.06c-6 .11-11.07-2-16.37-4.59a.32.32 0 0 0-.34.54c5 3.4 10.51 7 16.87 6.08a1 1 0 0 0-.16-2.03z" fill="#fff7e8"/><path d="M128.16 173.92a7 7 0 0 1-.07-5.18c.19-.5-.55-.82-.83-.39a14 14 0 0 0-1.44 2.72 5.55 5.55 0 0 0-.82-1.64c-.44-.52-1.13-.31-1.47-.6-1.83-1.52-.63-7.07-.27-9 .11-.59-.77-.89-.91-.29-.69 3-2.17 7.09-1 10.15.5 1.29 1.06.78 1.81 1.51-.75-.73.22 1.48.26 1.56a3.06 3.06 0 0 0 1.59 1.43 1.28 1.28 0 0 0 .47.12 3.55 3.55 0 0 0 .53 1.09c.89 1.22 2.81-.19 2.15-1.48z" fill="#fff7e8"/><path d="M138.37 166.55c.12-.38-.46-.68-.66-.31-1.13 2.12-3.47 6.67-6.29 6.45-1.27-.1-1.42 1.62-.37 2.07 3.95 1.71 6.46-5.53 7.32-8.21z" fill="#fff7e8"/><path d="M133.39 167.36c1.31-3.66.37-7.32-1.13-10.77-.19-.43-.83-.17-.75.26a24.71 24.71 0 0 1-.07 9.89 1 1 0 0 0 1.95.62z" fill="#fff7e8"/><path d="M150.81 143.06c-5.2-2.48-9.62-6.28-14.87-8.37 3.18-1.31 6.14-4.24 8.17-6.23a.67.67 0 0 0-.9-1 18.35 18.35 0 0 1-7.06 3.57c-2.05.49-4 0-6 .28.49-.9 1-1.81 1.41-2.75.35-.78-.89-1.31-1.34-.62a12.77 12.77 0 0 1-1 1.42c1-3.41.65-7.33.22-10.74-.08-.63-1.1-.54-1.11.09 0 4-1.43 7.44-2.36 11.26l-.26-.12a10.56 10.56 0 0 1-1.56-2.28.72.72 0 0 0-1.35.47 19.68 19.68 0 0 0 .61 2 1.53 1.53 0 0 0-.6 1.64 7.14 7.14 0 0 0 .58 1.48 4.57 4.57 0 0 0-.67 0 5.27 5.27 0 0 1-1.55 0c-.77-.16-1.45.92-.63 1.36a9.39 9.39 0 0 0 1.79.82 3.09 3.09 0 0 0 .71.12 22.9 22.9 0 0 1-2.91 1.79 22.48 22.48 0 0 1-7.89 2.21c-.79.08-.58 1.2.1 1.3 4.62.65 10.2-.16 14-3.19a3.49 3.49 0 0 1 0 1.15 15 15 0 0 1-1.77 4.44.84.84 0 0 0 1.42.9 21.06 21.06 0 0 0 3.31-4.88 8.69 8.69 0 0 0 1.2 2.63c.56.86 1.94.23 1.46-.74s0-2.82 0-4.1c6.7.77 12.12 5.49 18.77 6.67a.32.32 0 0 0 .08-.58z" fill="#96244a"/><path d="M129.48 136.2a1.62 1.62 0 0 0 .56-3 21.35 21.35 0 0 0 1.79-2.56c.24-.34-.26-.75-.55-.47a24.44 24.44 0 0 1-2.26 1.64.71.71 0 0 0-.14-.08 1.5 1.5 0 0 0-.32-.06 7.41 7.41 0 0 0-.23-2.75.4.4 0 0 0-.79.06 7.75 7.75 0 0 1-.23 1.61 1.11 1.11 0 0 0-1.2-.2 1.47 1.47 0 0 0-.75.67 1.09 1.09 0 0 0 .1 1.37c-.79-.22-1.62-.35-2.43-.58a.39.39 0 0 0-.23.74 6.18 6.18 0 0 1 1.16.71 1.56 1.56 0 0 0-1.47 1.17 1.81 1.81 0 0 0 1.16 2.23l.21.06a1.73 1.73 0 0 0 1 0 14.93 14.93 0 0 0-1 1.84c-.11.26.18.52.42.47a3.6 3.6 0 0 0 2.14-1.37 1.29 1.29 0 0 0 .57.67l.36.22a1.61 1.61 0 0 0 2.11-2.39z" fill="#e3be2b"/><path d="M126.93 133.52a.52.52 0 0 0-.78.7.52.52 0 0 0 .78-.7z" fill="#ffe26e"/><path d="M127.39 137.29a.77.77 0 0 0-.13-.1.5.5 0 0 0 .2-.13 3.61 3.61 0 0 0 .45-.52.38.38 0 0 0-.49-.54 1.79 1.79 0 0 1-.52.25c-.37.14-.32.54-.11.78a.83.83 0 0 0-.61 1.36.82.82 0 0 0 1.21-1.1z" fill="#ffe26e"/><path d="M125.53 131.42l-.1-.16a.44.44 0 0 0-.53-.29c-.2 0-.4 0-.49.38v.16a.42.42 0 0 0 .32.53c.27.47 1.39.06.8-.62z" fill="#ffe26e"/><path d="M129.54 131.79a.7.7 0 0 0-.77-.15.47.47 0 0 0-.15.84l.13.06a.36.36 0 0 0 .28.18h.2a.52.52 0 0 0 .31-.93z" fill="#ffe26e"/><path d="M128.62 132.94c.28-.36-.2-.79-.57-.63a2.14 2.14 0 0 0-.75.51c-.36.39 0 1.12.56.82a2.46 2.46 0 0 0 .76-.7z" fill="#ffe26e"/><path d="M125.55 136v-.16a.63.63 0 0 0-.2-.32.5.5 0 0 0-.16-.29 3.42 3.42 0 0 0-.4-.28 1.63 1.63 0 0 0 .4-.7.35.35 0 0 0 .27-.5 1.36 1.36 0 0 0-.2-.34.43.43 0 0 0-.21-.14 1.49 1.49 0 0 0-.2-.34 1.42 1.42 0 0 0-1.12-.5c0-.08-.09-.16-.13-.25-.22-.5-1-.11-.76.38 0 .06 0 .12.06.18a1.6 1.6 0 0 0-.7 1.35 1.17 1.17 0 0 0-1.06.92 4.46 4.46 0 0 0 .39 2.27.89.89 0 0 0 1.59-.8c-.15-.34-.49-.64-.52-1a.8.8 0 0 1 .06-.36 1.37 1.37 0 0 0 1.17.39 4 4 0 0 0 .45.6l.08.06a.72.72 0 0 0 .14.27l.16.2a.45.45 0 0 0 .52.1h.1a.58.58 0 0 0 .27-.74z" fill="#ffe26e"/><path d="M126.89 139.47a.4.4 0 0 0-.6.54.4.4 0 0 0 .6-.54z" fill="#ffe26e"/><path d="M129.58 136.57l-.35.27c-.54.42.08 1.16.64.94l.42-.17c.81-.33.07-1.61-.71-1.04z" fill="#ffe26e"/><path d="M132.21 136.31c.36-.83-1.23-1.22-1.26-.23v.49a.4.4 0 0 0 .37.41c.46.02.68-.26.89-.67z" fill="#ffe26e"/><path d="M131.33 134.21c.62-.93-1.33-1.22-1-.19a1.15 1.15 0 0 0 .15.37.41.41 0 0 0 .63.12 1.14 1.14 0 0 0 .22-.3z" fill="#ffe26e"/><path d="M132.15 131.23a.46.46 0 0 0-.69.62.46.46 0 0 0 .69-.62z" fill="#ffe26e"/><path d="M130.87 129.11l-.12-.32c-.26-.71-1.41.06-.84.57l.26.23a.43.43 0 0 0 .7-.48z" fill="#ffe26e"/><path d="M127.75 127.49l-.41-.05a.54.54 0 1 0-.05 1.06h.41a.5.5 0 0 0 .05-1.01z" fill="#ffe26e"/><path d="M125.33 129.12l.08-.26c.44-.23.05-.94-.34-.67a1.65 1.65 0 0 0-.69.77c-.29.64 1 .88.95.16z" fill="#ffe26e"/><path d="M124 138.38a1 1 0 0 0-1.14-.05.23.23 0 0 0 0 .4 1.8 1.8 0 0 0 1 .28.34.34 0 0 0 .14-.63z" fill="#ffe26e"/><path d="M126.14 132.25a.4.4 0 0 0-.6.54.4.4 0 0 0 .6-.54z" fill="#ffe26e"/><path d="M130 135.37a.65.65 0 0 0-.31-.59.69.69 0 1 0 .32.62z" fill="#ffe26e"/><path d="M127.31 135.44a.52.52 0 0 0 .07-.61c-.32-.64-1.37-.18-1.07.47a.59.59 0 0 0 .8.3.43.43 0 0 0 0 .13.26.26 0 0 0 .24.27c.65.1.24-.49-.04-.56z" fill="#695040"/><path d="M129.89 133.46a.46.46 0 0 0-.69.62.46.46 0 0 0 .69-.62z" fill="#695040"/><path d="M127.87 131.15a.44.44 0 0 0-.53-.1c-.18-.37-1.06-.32-.87.28v.06a.42.42 0 0 0 .59.28.36.36 0 0 0 .32.28h.1a.48.48 0 0 0 .39-.8z" fill="#695040"/><path d="M125.28 136.43v-.09a.5.5 0 0 0 .67-.72.5.5 0 0 0-.86.43.66.66 0 0 0-.63-.19.33.33 0 0 0-.18.54v.11c-.2.78 1.25.68 1-.08z" fill="#695040"/><path d="M129 137.36l-.16-.1a.39.39 0 0 0-.56.5l.09.17c.32.64 1.22-.17.63-.57z" fill="#695040"/><path d="M123.48 136.15a.27.27 0 1 0-.27-.15.4.4 0 1 0 .27.15z" fill="#695040"/><path d="M126.13 133.85a.34.34 0 0 0-.43-.06c0-.09 0-.18.07-.27a.45.45 0 0 0-.06-.61.39.39 0 0 0-.4 0 .78.78 0 0 0-.21.22.48.48 0 0 0-.47-.11h-.13a.52.52 0 0 0 0 1h.13a.49.49 0 0 0 .38 0 .45.45 0 0 0 .55.11.34.34 0 0 0 .09.25.39.39 0 0 0 .48-.53z" fill="#695040"/><path d="M129 131.38l-.14.09a.43.43 0 0 0 .06.79h.15c1 .33.66-1.35-.07-.88z" fill="#695040"/><path d="M126.31 137.58a4.29 4.29 0 0 0-.75-.34.32.32 0 0 0-.33.52 1.13 1.13 0 0 0 .9.4.32.32 0 0 0 .18-.58z" fill="#695040"/><path d="M123.11 134.26l-.06.11a.44.44 0 0 0 0 .51.38.38 0 0 0 .24.13.65.65 0 0 0 .27 0c1.01-.31-.09-1.47-.45-.75z" fill="#695040"/><path d="M127.71 133.85a1 1 0 0 1-.15-.45c-.09-.5-.91-.31-.76.16a2.21 2.21 0 0 0 .28.61c.25.37.84.1.63-.32z" fill="#695040"/><path d="M128.65 135.17a.44.44 0 0 0-.65.59.44.44 0 0 0 .65-.59z" fill="#695040"/><path d="M130 135.38a1.3 1.3 0 0 0-.36-1 .57.57 0 1 0-.73.87.22.22 0 0 1 .18.24.46.46 0 0 0 .91-.11z" fill="#695040"/><path d="M36.9 76c-.1-.34-.69-.29-.64.09 1.47 12-.07 24.29-2.18 36.09-.49 2.73 3.41 3.91 4.21 1.16C42 100.54 40.69 88.45 36.9 76z" fill="#85a352"/><path d="M36.11 118.37a2.13 2.13 0 0 0-.42-3.37c-.38-.19-.77-.34-1.16-.51-.32-.65-.64-1.3-1-1.93a2 2 0 0 0-3.67.34c-3.06-.83-6.19-1.4-9.29-2.32-6.75-2-12.78-6-18.2-10.46-.47-.39-1.12.23-.68.68 4.45 4.59 8.47 9.4 14.28 12.34 4.77 2.41 10.17 3.39 15.31 4.93 3.72 10.7 2.72 22.6 3.81 33.78 0 .51.84.71 1 .13 2.35-10.65 3.63-22.98.02-33.61z" fill="#85a352"/><path d="M38.82 85.34a.46.46 0 0 0-.88.24 33.2 33.2 0 0 1 0 13.26q-.11-1.85-.39-3.71c-.06-.4-.73-.31-.71.1a36.24 36.24 0 0 1-1.69 12.82.85.85 0 0 0 .31 1l-.46 1.74c-.59 2.12 2.67 3.64 3.65 1.54 4.23-9.06 2.61-17.76.17-26.99z" fill="#506924"/><path d="M36.42 116a1.47 1.47 0 0 0-1.29-1.36 1.83 1.83 0 0 0-1-.45c-9.32-1.39-19.65-4.19-27-10.39a.42.42 0 0 0-.59.59c7.31 7.85 15.13 13.27 26 14.18-.15 8.59 3.12 17.06 3.53 25.61 0 .5.82.67.92.12 1.84-9.36.76-18.85-.57-28.3z" fill="#506924"/><path d="M39 107.41c-2.65-12.79-12.26-31.79-24.61-23-13.45 9.55-.85 21.7 11 28.56 1.64 1.17 3.27 2.27 4.8 3.25-.79-.12-1.59-.21-2.39-.31a50.93 50.93 0 0 0-16.9-6.64c-4.16-.8-10.14 1-10.85 6-1.37 9.59 16.92 9 27 7.6h1.45a31.64 31.64 0 0 0-3.19 3.93 22.33 22.33 0 0 0-5.57 6.61c-2.44 4.45-4.83 12.63.43 16 5.06 3.26 9-2.2 11-6.28 1.82-3.75 2.6-7.76 3.9-11.68a15.65 15.65 0 0 0 .39 1.95c1.21 4.51 4.32 9 8.58 11.12 2.68 1.34 7.79 2.56 10-.29 2.81-3.56-1.5-10.52-3-13.67-.41-.87-.84-1.77-1.31-2.66 6.34 3.46 13.38 4.7 16.93-2.53 3.72-7.58-9.22-9.27-18.93-9.2a52.17 52.17 0 0 0 7.55-8.59c3.91-5.44 8.66-14.41 3-20.44C48.26 76.2 41.68 94.15 39 107.41z" fill="#ffa3ab"/><path d="M53.58 137.1c-.42-3-2.22-4.85-3.67-7.32-.18-.31-.73-.11-.6.25a17.14 17.14 0 0 1 .8 4.2 1.23 1.23 0 0 0-1 1.05 7.75 7.75 0 0 1-.54 2c-.4.71-.13.33-.66.73-.33.25-.8.32-1.14.59s-.53.79-.86 1c-1 .63-2.47-.16-3.46-.51-2-.71-3.74-1.46-5-3.2-.12-.16-.41-.07-.34.14a12.5 12.5 0 0 0 5.5 6.33c1.72 1.56 3.62 2.82 6 2.6 2.66-.25 3.83-2.18 4.15-4.38a4 4 0 0 0 .82-3.48z" fill="#ffd6d6"/><path d="M50.55 132.35c-.12-.43-.72-.24-.65.18.31 2.06-1.17 4.35-2.64 5.67a.8.8 0 0 0-.16.22 1.46 1.46 0 0 0-1.37 0c-2.39 1.28-5.57-.34-7.46-1.8-.17-.13-.48 0-.33.25 1.8 2.47 4.87 4.51 8 4.19a2.54 2.54 0 0 0 3.16 0 4.65 4.65 0 0 0 1.43-3.74.86.86 0 0 0 0-.27 7.35 7.35 0 0 0 .02-4.7z" fill="#fff7e8"/><path d="M42.88 131.14a6.81 6.81 0 0 0-1.88-3.67.44.44 0 0 0-.69.53c.28.58.65 1.1.89 1.7a9.23 9.23 0 0 1 .48 1.77c.15.76 1.32.45 1.2-.33z" fill="#ffd6d6"/><path d="M57.43 86.8c-.17-.31-.7-.1-.58.24 0 .09.05.19.08.28a10.13 10.13 0 0 0-3.28-2.7c-.14-.08-.35.09-.24.24 4.23 6 2 11.15.06 16.93-1 1.64-2 3.3-3.16 4.87-1.81 2.5-3.73 4.94-5.56 7.41a.25.25 0 0 0 .28.37 21 21 0 0 0 5.1-2.78 13.1 13.1 0 0 1-2.22 2 .13.13 0 0 0 .1.24c4.48-.63 8.09-4.91 10.09-9.27 4.64-5.84 2.49-11.99-.67-17.83z" fill="#ffd6d6"/><path d="M51.86 84.73a10.21 10.21 0 0 1-2 1 10.66 10.66 0 0 0-1.71 1.14 11.62 11.62 0 0 0-2.73 3.26.83.83 0 0 0 .13 1.11 56.1 56.1 0 0 0-2.78 7 .14.14 0 0 0 .26.11 36.74 36.74 0 0 1 4.27-6.78 1.78 1.78 0 0 0 .59.39l-.15.57a13.52 13.52 0 0 0-.67 3.16.17.17 0 0 0 .31.08 22.19 22.19 0 0 0 1.32-3.16L49 92a1.34 1.34 0 0 0 .44-.34 12.09 12.09 0 0 0 2-3 1.37 1.37 0 0 0-.44-1.77 11.24 11.24 0 0 0 1.34-1.79c.19-.32-.22-.58-.48-.37z" fill="#ffd6d6"/><path d="M29.9 119.8c-4.66-.83-9.16.11-13.72-.2a27 27 0 0 1-5.08-1.38c-2.31-.88-9.39-3.14-8.67-6.32 0-.18-.19-.35-.33-.19a4.52 4.52 0 0 0-.91 1.64.13.13 0 0 0-.19.07c-1 3.68-.92 6.21 2.8 8.23a17 17 0 0 0 9.82 1.66c5.26 1.62 11.35-1.21 16.29-2.86.28-.09.34-.59-.01-.65z" fill="#ffd6d6"/><path d="M27.66 135.65a35.92 35.92 0 0 0-3.05 2.55c1.06-1.55 2.4-2.89 3.42-4.69 1.52-2.69 2.07-5.49 2.87-8.43a.27.27 0 0 0-.5-.21c-2.3 3.13-4.55 6.53-7.48 9.13a9.81 9.81 0 0 0-3.06 4.17 20.08 20.08 0 0 1 2-6.29.1.1 0 0 0-.17-.1c-2.48 4-5.19 7.72-4.16 12.5a.2.2 0 0 0-.1.23c.53 1.76 1.11 3.75 2.8 4.73a3.74 3.74 0 0 0 4.75-.9.85.85 0 0 0 .06-1.1 15.34 15.34 0 0 0 2.93-4.74c.15-.32-.26-.72-.53-.41-1.5 1.7-3.74 2.5-5.34 4v-.1a19.31 19.31 0 0 1-.86-2.61 1.82 1.82 0 0 0-.18-.47 2.26 2.26 0 0 0 .7 0 1.14 1.14 0 0 0 2.07.47c1.4-2.35 2.57-5.15 4.38-7.22a.35.35 0 0 0-.55-.51z" fill="#ffd6d6"/><path d="M31.4 94.17a27.53 27.53 0 0 0-3.17-6 9.9 9.9 0 0 1 1.34.85c.33.26.79-.16.48-.48-3.41-3.48-6.34-7.12-11.87-6.12A8.7 8.7 0 0 0 12 86.75a8.82 8.82 0 0 0-3.4 8.16c.43 5.13 4.12 8.57 7.65 11.87.24.22.65-.07.46-.36-1.92-3-3.73-6.18-4.25-9.35 2.35 2.8 4.12 5.22 7.92 5.94a.32.32 0 0 0 .24-.58 11.61 11.61 0 0 1-4.11-4.69 27.61 27.61 0 0 0 8.32 5 .36.36 0 0 0 .36-.62 28.52 28.52 0 0 1-6.46-5.65 2.06 2.06 0 0 0 1.5-2.47c-.33-.86-.61-1.74-.89-2.62A10.51 10.51 0 0 1 22.59 93c2.16 1.68 3.62 3.94 6.18 5.07.27.12.61-.14.43-.43-1.83-3.09-3-6.49-5.84-8.82a15.05 15.05 0 0 0-1.88-1.3c3.77 1.1 7.65 3.9 9.28 7 .24.48.83.08.64-.35z" fill="#ffd6d6"/><path d="M67 122.11a.43.43 0 0 0-.79.21c.07 1.23-2.66 2.1-3.56 2.49a13.64 13.64 0 0 1-1.35.49c-6.32-.16-12.24 1-18.58-1.29-.28-.1-.46.16-.43.4a14.2 14.2 0 0 1-2.54-2.41c-.34-.41-.92.18-.59.59a22 22 0 0 1 2.74 4.76 1.32 1.32 0 0 0 .7.6l.14.35c.13.32.23.66.34 1a1.21 1.21 0 0 0 2.36-.32 5.63 5.63 0 0 0-.59-2.82 31.08 31.08 0 0 0 7.24 3c3.18 1.6 6.83 2.39 10 .67a8.07 8.07 0 0 0 3.9-2c1.74-1.72 2.26-3.7 1.01-5.72z" fill="#ffd6d6"/><path d="M65 120.92c-.9.08-1.84.17-2.79.24a1.69 1.69 0 0 0-.41-.81c-1.25-1.35-4.16-.61-5.75-.37s-1 2.42.34 2.53h.79c0 .89.77 1.84 1.76 1.46a5.88 5.88 0 0 0 2.09-.78 39.08 39.08 0 0 0 4.12-1.71.31.31 0 0 0-.15-.56z" fill="#ffd6d6"/><path d="M61.08 116.55a26.51 26.51 0 0 0-4.84.24 39.34 39.34 0 0 1-5.69-.18c-.1 0-.13.14 0 .18A18.35 18.35 0 0 0 57 119a19 19 0 0 0 2 .15c.5.12 1 .22 1.52.3.93.14 1.88.16 2.81.32a5.26 5.26 0 0 1 1.49.87.5.5 0 0 0 .82-.48c-.48-2.02-2.56-3.35-4.56-3.61z" fill="#ffd6d6"/><path d="M64 123.67c-3-.25-5.93.23-8.92-.14a32.45 32.45 0 0 1-8.58-2.64c-1.38-.58-2.06 1.54-1 2.3 4.94 3.39 13.66 4.88 18.64.9.24-.16.08-.41-.14-.42z" fill="#e05c72"/><path d="M54.71 88.44a.37.37 0 0 0-.73.1A26.82 26.82 0 0 1 49.61 103c-2.18 3.5-5.39 6-7.6 9.47a1.15 1.15 0 0 0 1.8 1.39c3.92-4.05 7.75-7 10.19-12.26a17.25 17.25 0 0 0 .71-13.16z" fill="#e05c72"/><path d="M59.06 125.7a53 53 0 0 1-10-4.36 10.74 10.74 0 0 0 7.08-1.62.51.51 0 0 0-.25-.94c-.67-.07-1.34-.17-2-.3a5.38 5.38 0 0 0 .8-.52c.55-.44-.08-1.11-.61-1-1.33.19-3.4-1-4.6-1.53-1.41-.62-2.77-1.46-4.24-2 6.91-5.13 11.17-12.23 11.33-21a.43.43 0 0 0-.84-.11 37.6 37.6 0 0 1-8.13 12.95 2.54 2.54 0 0 0-1.26-.82 2.24 2.24 0 0 0 1.05-1.19c1.37-3.3 2.7-6.52 2.93-10.13 0-.43-.54-.5-.75-.2-1.2 1.71-2.25 3.52-3.36 5.28a1.6 1.6 0 0 0-1.27.17 14.15 14.15 0 0 1 1.48-3.2.59.59 0 0 0-.93-.71c-2.94 3.28-5.8 7.55-6.83 12.06-1-5.74-3.58-10.56-7.25-15.79a.43.43 0 0 0-.74.43 34.87 34.87 0 0 1 3.55 12.39 2.49 2.49 0 0 0-2.49 1.55l-.43-.49a1.72 1.72 0 0 0-.22-.18 31.55 31.55 0 0 0-6.4-7.16c-.25-.18-.47.19-.3.39a38.51 38.51 0 0 1 4.27 6.88 1.94 1.94 0 0 0-.63.94 5 5 0 0 0 .18 3l-1.93-1.67c-.85-.74-2.45-1.68-3-2.65-.21-.4-.78-.11-.7.29a10.06 10.06 0 0 0 2.32 4.23c-.59-.32-1.18-.65-1.74-1a35.34 35.34 0 0 1-10.39-9.86.44.44 0 0 0-.8.34 28.45 28.45 0 0 0 11 15 22.85 22.85 0 0 0-10.6-1.17.5.5 0 0 0 0 1 17.68 17.68 0 0 1 6.73 2 15.85 15.85 0 0 1-4.64.65.56.56 0 0 0-.6.57 19 19 0 0 1-10.25-3.37c-.18-.13-.44.13-.31.31a13.79 13.79 0 0 0 6.86 5.07c5.54 2.56 12.18 2 18.46 1.75q.9.06 1.78.16a27 27 0 0 0-7.82 12.63.55.55 0 0 0 .91.53c1.74-1.83 3.61-3.61 5.46-5.42a30.91 30.91 0 0 0-1.33 3.63 2.12 2.12 0 0 0 1.55 2.55 25.12 25.12 0 0 1-4.61 7.59.49.49 0 0 0 .69.69 24.3 24.3 0 0 0 4.39-4.83c-1.12 4.4-2.69 9.44-6 11.6a.35.35 0 0 0 .27.64C30 148 33.84 141 35.79 133.4a6.55 6.55 0 0 0 .34.71 6.11 6.11 0 0 0 4.48 3.13 3.77 3.77 0 0 0 3 1.49c.65 0 1.11-.6 1.7-.65.8-.07 1 .44 1.82-.09a3.6 3.6 0 0 0 1.66-2.4c2.4-1.74.62-5.91-.14-8.18-.1-.29-.57-.26-.56.08a8.38 8.38 0 0 1-.08 1.4 12.51 12.51 0 0 1-.24-1.5.31.31 0 0 0-.61 0 35.14 35.14 0 0 1-.26 4.25c-.14-.29-.29-.58-.39-.87a.37.37 0 0 0-.72.2 8.49 8.49 0 0 1 .25 3.23 1.21 1.21 0 0 0 0 .37l-.36-.57-.55-.85a12.07 12.07 0 0 1-1.25-2 .35.35 0 0 0-.69.09 11.61 11.61 0 0 0 .28 2.61c.06.31.1.65.15 1a4.24 4.24 0 0 1-1.1-.94 1.69 1.69 0 0 0-2-.62 11.61 11.61 0 0 1-2.39-5.46c0-.42-.68-.45-.68 0 0 1 0 2 .06 3a10.39 10.39 0 0 1-.8-1.89c.17-1.1.31-2.19.4-3.26l.27.53c.23.44 1 .14.82-.34a13.38 13.38 0 0 1-.43-1.41 8.11 8.11 0 0 0 3.69 2.43.3.3 0 0 0 .29-.49 10.86 10.86 0 0 1-2-3.12l.47.5a1.92 1.92 0 0 0 2.81-.2l.12.09a16.31 16.31 0 0 1 1.74 2.7.44.44 0 0 0 .8-.1 4 4 0 0 0 .11-.94c4.48 2.44 9.65 3.51 13.4 1.43a.6.6 0 0 0-.14-1.06z" fill="#e05c72"/><path d="M47.15 135.53c-.29.77-2.25 1-2.61.57a1.12 1.12 0 0 0-1.1-.29c-.28.07-.52.3-.76.37-.29-.12-.58-.23-.86-.36a19.5 19.5 0 0 1-4.63-2.55.31.31 0 0 0-.43.43c1.43 1.83 3 4 5.2 5a2.08 2.08 0 0 0 1.59.19 1.13 1.13 0 0 0 .51-.4c1.89.74 4.44-.48 4.3-2.77a.6.6 0 0 0-1.21-.19z" fill="#bd2f53"/><path d="M61.26 125c-3.16.22-5.78 1.54-9 .84a18.71 18.71 0 0 1-7.5-2.89 11.83 11.83 0 0 0 5.2.17.46.46 0 0 0 .11-.84c-1.79-1.14-3.71-2-5.56-3-.39-.22-.78-.47-1.16-.72l1.23-.09a4.72 4.72 0 0 0 1.56-.16h.05a15.54 15.54 0 0 0 4.06-.63.37.37 0 0 0 .09-.66 10.33 10.33 0 0 0-2.87-1.42 2.15 2.15 0 0 0-1.47-1.4c6.89-6 13.7-17.2 9.24-25.23a.23.23 0 0 0-.43.12c.07 5.48-.29 9.76-3.14 14.73l-.33.54c0-.08 0-.16.06-.24.14-.77-.84-1.59-1.46-.85-.88 1-1.68 2.42-2.66 3.48a2 2 0 0 0-1.65.87 12.51 12.51 0 0 1-1 1.31c0-.44.08-.89.13-1.33a1.41 1.41 0 0 0 1-1.18c.3-2 1-4 1.35-6.05a.74.74 0 0 0-1.34-.56c-.71 1-1.31 2.18-2 3.26a4.2 4.2 0 0 0-.7-.13 2.14 2.14 0 0 0-1.73 1.06 9.75 9.75 0 0 0-1.34 3.64 3.67 3.67 0 0 0-1.31 2.61 10 10 0 0 1-.5-1.12 1 1 0 0 0-.45-.55c-.29-1.9-1.83-3.52-3-5a41.48 41.48 0 0 0-4.89-4.93.45.45 0 0 0-.7.54c.88 1.5 1.69 3 2.51 4.58.32.59 1.18 1.85 1.77 3a1.93 1.93 0 0 0-.61 1.94 9.25 9.25 0 0 0 1 2.58 2 2 0 0 0-1.66-.05c-.43-.19-.85-.38-1.27-.58a.71.71 0 0 0-.72 1.23l.48.33-.52-.12a25.33 25.33 0 0 1-4.29-1.47 33.71 33.71 0 0 1-7.71-4.73c-.44-.36-1.25.12-.86.66a24.48 24.48 0 0 0 9.27 8c.59.28 1.28.64 2 1-1 0-2-.1-3-.14a.41.41 0 0 0-.29.69 9.69 9.69 0 0 0 1.4 1l-.8.11-2.42.26c-5 .27-9.75.38-14.84-1.38a.37.37 0 0 0-.29.68 30.29 30.29 0 0 0 10.07 2.83 28 28 0 0 0 11.52.77c-.25.24-.52.47-.75.71-1.89 2-2.75 4.13-3.91 6.49-.73 1.06-1.44 2.16-2.15 3.26-.27.41.33.85.67.52 2-1.94 4.19-3.66 6.25-5.52-1.07 3.37-1.82 6.89-3.74 9.92-.23.37.33.83.62.48 1.79-2.18 4.31-4.38 5.91-7-.53 6.86-3.3 15.63-8.4 19.8-.35.29.1.83.48.62 7.12-4 11.9-14.83 10.76-22.83a.42.42 0 0 0 .28-.24 8.92 8.92 0 0 0 .27-.95 1.74 1.74 0 0 0 1.19-.84 2.53 2.53 0 0 0 .13-.31l.65.48c.5.39 1.1-.34.82-.82-.07-.11-.12-.24-.18-.36a5.79 5.79 0 0 0 1.49-.1c.3-.06 1.5-.63 1.87-.74 2.05 2.91 5.61 3.71 8.92 4.51a12.17 12.17 0 0 0 10.22-1.9c.37-.18.32-.63-.03-.56z" fill="#bd2f53"/><path d="M47.42 109.16a16.42 16.42 0 0 1-6.34 3.16 2.25 2.25 0 0 0-1.7-.76 5.81 5.81 0 0 0-2.2.36 33 33 0 0 0-2.68-5.72.38.38 0 0 0-.66.39 12.27 12.27 0 0 1 1 5.05 1.52 1.52 0 0 0-1 1.48 7.89 7.89 0 0 0 .08.85c-.85-.12-1.75-.06-2.61-.19a9 9 0 0 1-4.91-2.35c-.35-.36-.85.17-.54.54a13.46 13.46 0 0 0 6.5 4.57 3.8 3.8 0 0 0-.27.37c-.32.18-.65.36-1 .52a12 12 0 0 1-2.76 1 .39.39 0 0 0 .1.77c1.17 0 2.32-.06 3.47-.2a1.41 1.41 0 0 0 1.54.6 39.21 39.21 0 0 0-1.28 4.87c-.06.27.32.45.46.19.44-.81.93-1.62 1.41-2.43 0 .38-.06.77-.09 1.17-.12 1.55-.08 3.12-.27 4.66-.06.47.6.54.81.22 1.26-1.85 3.06-4.62 3.47-7.19a6.26 6.26 0 0 0 .58.38c1.65.86 3.32.36 5 .86.57.17.81-.59.38-.9-1.13-.82-2.38-1.57-3.45-2.48-.14-.12-.27-.26-.4-.39l.57-.28c.46-.23.06-.93-.41-.7a2 2 0 0 1-1.2-.17l-.05-.06a11.78 11.78 0 0 0 4.72-1.89c2.39-1.56 3.22-3.36 4.27-5.86.28-.45-.28-.67-.54-.44z" fill="#96244a"/><path d="M66.45 123.14c-3.28 1.46-7 3.79-10.82 4.58a25 25 0 0 1-5.42-1.2 42.11 42.11 0 0 0-6.1-1.88c-.17 0-.35.19-.19.33a14 14 0 0 0 4.52 2.39.4.4 0 0 0 .26.18l.51.1 1.09.41a15.62 15.62 0 0 0 1.94.61c2.5 1.15 4.74.62 7.27-.51s5.79-2.19 7.1-4.84a.12.12 0 0 0-.16-.17z" fill="#fff7e8"/><path d="M54.51 86.43c-.16-.29-.56 0-.43.25a21 21 0 0 1 0 16.28c-2 3.31-3.9 6.75-6.23 9.85-.06.08.06.14.12.09 3.72-3 6.85-6.26 8.56-10.8a.68.68 0 0 0 0-.62 19.1 19.1 0 0 0-2.02-15.05z" fill="#fff7e8"/><path d="M21.84 120.47a50.5 50.5 0 0 1-17.6-5.74c-.28-.16-.62.24-.36.46 5 4.3 11.19 6.75 17.86 6 .39-.01.56-.65.1-.72z" fill="#fff7e8"/><path d="M25.85 133.15c-1.55 1.3-3 3-4.69 4.11a1.49 1.49 0 0 0-.59 1 7.69 7.69 0 0 0-1.38 3.06 1.46 1.46 0 0 0 .18 1.07 4.75 4.75 0 0 0 .08 1c.11.58.42 1.07.57 1.63s1.15.26.84-.35a3.14 3.14 0 0 1-.23-1.43 1.22 1.22 0 0 0 1.27-.75 17.22 17.22 0 0 1 2-3.16 1.71 1.71 0 0 0 .06-2.1 23.82 23.82 0 0 1 2.58-3.32.51.51 0 0 0-.69-.76z" fill="#fff7e8"/><path d="M24 145.5a5.89 5.89 0 0 1-3.3.79c-1.13-.12-1.39 1.79-.27 2a3.25 3.25 0 0 0 2.41-.35 14 14 0 0 0 1.78-1.62c.44-.39-.14-1.13-.62-.82z" fill="#fff7e8"/><path d="M28.46 87.29a11 11 0 0 0-7.7-3.65 3.42 3.42 0 0 0-2-1 5.1 5.1 0 0 0-5.88 3.81 1.71 1.71 0 0 0 1 2 1.43 1.43 0 0 0 1.54 1c1.9-.31 4.64-.46 6.22.87a.5.5 0 0 0 .71-.71 9.08 9.08 0 0 0-2.31-2.25 2.18 2.18 0 0 0 .21-.06 7.82 7.82 0 0 1 7.48 1c.56.3 1.17-.55.73-1.01z" fill="#fff7e8"/><path d="M16.34 97.92a11.59 11.59 0 0 1-2.69-4.44 1 1 0 0 0-.83-.64 3.41 3.41 0 0 0 .27-.89 5.35 5.35 0 0 0-1.25-4.27c-.27-.31-.65.08-.51.4a3.7 3.7 0 0 1-.95 3.51 6 6 0 0 0-1.44 1.8 4.28 4.28 0 0 0 .19 3.35c.15 2 2.08 3.88 3.36 5.33.29.33.86-.1.62-.48a11.46 11.46 0 0 1-1.57-3.52c-.25-1.13.42-2.12.54-3.24a8.26 8.26 0 0 0 3.84 3.69c.33.15.74-.32.42-.6z" fill="#fff7e8"/><path d="M64.11 120.75c-.14-.11-.27-.17-.4-.25a.81.81 0 0 0 0-1.39 10.94 10.94 0 0 0-5.4-1.94.44.44 0 0 0-.22.81c.8.41 1.63.72 2.41 1.18l1.1.67a6.44 6.44 0 0 0-1.23.08 1.13 1.13 0 0 0-.5.23 5.56 5.56 0 0 0-3.71.54.47.47 0 0 0 .11.85c1.23.28 2.57.34 3.62 1.15a1.61 1.61 0 0 0 1.9 0 10.81 10.81 0 0 1 1.09.11c1.06.21 2.35-1.17 1.23-2.04z" fill="#fff7e8"/><path d="M49.07 85.62a5.47 5.47 0 0 0-2.88 2.91.83.83 0 0 0 1.43.84c.35-.49.73-1 1.1-1.45a9.11 9.11 0 0 0 1-1.41.6.6 0 0 0-.65-.89z" fill="#fff7e8"/><path d="M17.11 111c-3.16-1.64-7.16-3.55-10.33-.94a.94.94 0 0 0-.07.09 15.74 15.74 0 0 1-1.65.65c-.69.22-1.58.28-2.06.86a.21.21 0 0 0 .15.35 12.88 12.88 0 0 0 3 .09l.26-.06a.85.85 0 0 0 .88 1 4.1 4.1 0 0 0 1.9-.45 2.63 2.63 0 0 1 1.88-.46.54.54 0 0 0 .41-1 2.85 2.85 0 0 0-.27-.14 4.38 4.38 0 0 1 .79.01 38.26 38.26 0 0 1 4.84.73c.38.03.67-.52.27-.73z" fill="#ffd6d6"/><path d="M36.46 111.91a1.05 1.05 0 0 0-1.62-.21l-.07.06a1.12 1.12 0 0 0 .49 1.86h.09a1.05 1.05 0 0 0 1.31-1 1.07 1.07 0 0 0-.2-.71z" fill="#e3be2b"/><path d="M37.06 117.34v-.06a.69.69 0 0 0 .32-.71 1.57 1.57 0 0 0-1-1.86.75.75 0 0 0-.86.36.64.64 0 0 0-.75.78 1.9 1.9 0 0 0 .27.57l-.46.09a.54.54 0 0 0-.45-.33.88.88 0 0 0 .42-.73 2.74 2.74 0 0 0 0-.33l.58-.51c.57-.49-.16-1.36-.78-1l-.5.27a.91.91 0 0 0-.9 0h-.15a1.16 1.16 0 0 0-1-1.7 1.18 1.18 0 1 0 .51 2.25 1.08 1.08 0 0 0 .07.73.78.78 0 0 0 .25.52 3.55 3.55 0 0 1-.13.46.42.42 0 0 0 0 .29 9.29 9.29 0 0 0-1 .3.61.61 0 0 0 .33 1.18l.33-.07a.83.83 0 0 0 0 1.24l.08.08a.91.91 0 0 0 1.49-.37 1 1 0 0 0 .43 0 .78.78 0 0 0 .73-.79 3.9 3.9 0 0 0 1-.26 1.11 1.11 0 0 0 .8-.12.77.77 0 0 0 0 1l.05.06a.85.85 0 0 0 1.44-.59.87.87 0 0 0-1.12-.75z" fill="#e3be2b"/><path d="M39.92 113.64a1.3 1.3 0 0 0-1.18-.12 1 1 0 0 0-.45 1.7l.13.11a1.15 1.15 0 0 0 1.59 0l.12-.12a1 1 0 0 0-.21-1.57z" fill="#e3be2b"/><path d="M37.26 120.42c-.16-.32-.26-.64-.41-1 0-.07-.09-.09-.13-.14.25-.75-.85-1.08-1.26-.5a.57.57 0 0 1-.34.29.64.64 0 0 0 0 1.29 1.81 1.81 0 0 0 .48 0c0 .1-.05.2-.09.3a1 1 0 0 0 1.18 1.18.94.94 0 0 0 .57-1.42z" fill="#e3be2b"/><path d="M39.11 116a1.08 1.08 0 0 0-.45 0c-.82.1-1.14 1.31-.21 1.54a.66.66 0 0 0 .77.06.81.81 0 0 0-.11-1.6z" fill="#e3be2b"/><path d="M37.32 113.93a.64.64 0 0 0-1.29 0v.07c-.08.84 1.39.84 1.31 0z" fill="#e3be2b"/><path d="M39.2 119.45l-.05-.13c-.2-.51-.56-.6-.87-.49a.59.59 0 0 0-1.06.35v.37a.58.58 0 0 0 .72.55H38a.94.94 0 0 0 .25.16l.13.05a.69.69 0 0 0 .82-.86z" fill="#ffe26e"/><path d="M33 113.74l-.21-.15c-.72-.53-1.48.9-.5 1.2l.24.07c.74.21 1.03-.74.47-1.12z" fill="#ffe26e"/><path d="M31 113.23v.35a.48.48 0 0 0 1 0v-.35c.16-.68-1.06-.68-1 0z" fill="#ffe26e"/><path d="M35.73 112.3a2.47 2.47 0 0 0-1-.11c-.44 0-.45.73 0 .7a2 2 0 0 1 .84.11c.43.14.6-.56.16-.7z" fill="#ffe26e"/><path d="M38.76 113.51c-.08-.24-.17-.46-.26-.69a.68.68 0 0 0-1.31.36c.06.24.12.47.2.71.3.85 1.61.49 1.37-.38z" fill="#ffe26e"/><path d="M33.07 115.7h-.11a.46.46 0 0 0-.47.73.67.67 0 0 0-.64.26l-.16.21c-.53.72.89 1.48 1.2.5l.08-.24a.52.52 0 0 0-.12-.55H33a.45.45 0 0 0 .07-.91z" fill="#ffe26e"/><path d="M36.92 120a.67.67 0 0 0 0-.16.54.54 0 0 0-.64-.47c.33-.06.34-.58 0-.56l-1.28.1a.28.28 0 0 0-.24.16l-.54-.06a.43.43 0 0 0-.06-.17.43.43 0 0 0 .56 0 .59.59 0 0 0 .66-.4c.13-.47.28-.84.81-.94s.44-1-.14-1.05a1.76 1.76 0 0 0-1.81 1.47.86.86 0 0 1-.19.39.37.37 0 0 0 .09.53.42.42 0 0 0-.51-.09 1 1 0 0 0-.49.48.59.59 0 0 0-.06.29.61.61 0 0 0-.21.72l.23.67a.64.64 0 0 0 1.24-.17v-.43a9.21 9.21 0 0 0 1.64.3 1 1 0 0 0 .49.37c.53.16.79-.61.45-.98z" fill="#ffe26e"/><path d="M36.45 115a.56.56 0 0 0-.49 0 .74.74 0 0 0-.32-.11 4.88 4.88 0 0 0-.82 0 .65.65 0 0 0-.64.68c-.28 0-.54.29-.23.61l.14.26a.26.26 0 0 0 .51-.14v-.14a.75.75 0 0 0 .23.06 4.87 4.87 0 0 0 .82 0 .75.75 0 0 0 .19-.05.56.56 0 0 0 .51 0l.2-.1a.64.64 0 0 0-.1-1.07z" fill="#ffe26e"/><path d="M38.72 115.5l-.1.24c-.27.67.78 1.06 1.14.48l.14-.22c.48-.77-.81-1.4-1.18-.5z" fill="#ffe26e"/><path d="M40.7 113.15a1.33 1.33 0 0 0-1.1.2.67.67 0 0 0 .5 1.22l.4.2c.46.23.75-.34.54-.62a.61.61 0 0 0-.34-1z" fill="#ffe26e"/><path d="M35.86 115a.44.44 0 0 0 0 .87.44.44 0 0 0 0-.87z" fill="#695040"/><path d="M32.56 114.63a.31.31 0 0 0-.31-.25h-.09a.56.56 0 1 0 .43.21z" fill="#695040"/><path d="M34.11 118a.44.44 0 0 0 0 .87.44.44 0 0 0 0-.87z" fill="#695040"/><path d="M36.09 117.76a.48.48 0 0 0 0 1 .48.48 0 0 0 0-1z" fill="#695040"/><path d="M34 115.53a.49.49 0 0 0 0 1 .49.49 0 0 0 0-1z" fill="#695040"/><path d="M35.28 116.47a.48.48 0 0 0 0 1 .48.48 0 0 0 0-1z" fill="#695040"/><path d="M37.27 115.31a.52.52 0 0 0 .32.74h.08a.57.57 0 0 0 .63-.26v-.07c.55-.79-.9-1.18-1.03-.41z" fill="#695040"/><path d="M36.68 113.16h-.12c-.41 0-.41.67 0 .63h.12a.31.31 0 0 0 0-.63z" fill="#695040"/><path d="M35.36 112.76l-.14.07c-.81.42.26 1.65.79.79l.08-.13c.3-.49-.28-.96-.73-.73z" fill="#695040"/><path d="M40.53 118.34l-.17-.18c-.69-.72-1.6.86-.42 1h.23c.46.09.63-.54.36-.82z" fill="#695040"/><path d="M34.7 119.09a.55.55 0 0 0 0 1.09.55.55 0 0 0 0-1.09z" fill="#695040"/><path d="M34.76 110.85h-.17a.44.44 0 0 0 0 .87h.17c.58.12.59-.95 0-.87z" fill="#695040"/><path d="M33.18 112a.38.38 0 0 0 0 .76.38.38 0 0 0 0-.76z" fill="#695040"/><path d="M32.31 118.59a.05.05 0 0 0 0 .11.05.05 0 0 0 0-.11z" fill="#695040"/><path d="M33.19 110.65l-.35-.18c-.44-.22-.82.44-.39.66l.35.18c.44.22.83-.44.39-.66z" fill="#ffe26e"/><path d="M28.26 113.9l-.2.17c-.79.55.67 1.22.64.37v-.28c.05-.25-.24-.47-.44-.26z" fill="#ffe26e"/><path d="M37.62 110.92l-.16.06a.34.34 0 0 0 0 .65l.16.06c.64.31.65-1.03 0-.77z" fill="#ffe26e"/><path d="M36.75 108.93l-.39.31c-.44.36.27 1.06.62.62l.31-.39a.38.38 0 0 0-.54-.54z" fill="#ffe26e"/><path d="M29.69 117.69a.43.43 0 0 0 0 .85.43.43 0 0 0 0-.85z" fill="#ffe26e"/><path d="M41.94 116.38a4.1 4.1 0 0 0-.45-.19c-.4-.15-.6.45-.28.66a1.75 1.75 0 0 0 .34.19c.45.22.84-.44.39-.66z" fill="#ffe26e"/><path d="M81.68 185.34c-4-8.66-8.48-17-10.57-26.41-.08-.37-.73-.32-.69.08.75 6.88 1.6 13.49 4 20 3 8.09 6.24 14.26 4.36 23.19a2.16 2.16 0 0 0 4.22 1.21c2.48-6.15 1.39-12.16-1.32-18.07z" fill="#85a352"/><path d="M68.16 209.11a94.92 94.92 0 0 1-10.06 15c-3.21 3.93-6.9 7.6-9.45 12a.29.29 0 0 0 .39.39c9.64-4.16 19.81-15.75 23.09-25.68.78-2.35-2.79-3.89-3.97-1.71z" fill="#85a352"/><path d="M120.85 228.34c-8.92-5.88-18.48-10.51-27.6-16.05-7-4.24-14.07-9.08-22.4-9.87-2.48-.24-2.75 3.39-.61 4.13 8.79 3 16.11 7.72 24.23 12.13s17.13 7.62 26.11 10.32a.35.35 0 0 0 .27-.66z" fill="#85a352"/><path d="M113.54 224.56a134.09 134.09 0 0 1-30.48-21.15 2.17 2.17 0 0 0-3.4 2.6c5.55 11.45 22.09 17 33.56 19.28.43.08.78-.51.32-.73z" fill="#506924"/><path d="M74.89 170.27c-.12-.33-.7-.33-.67.08.37 4.78 1.91 8.86 3.35 13.4 1.73 5.46.62 10.1.89 15.56a2 2 0 0 0 4 .58c4.39-11.26-4.12-19.7-7.57-29.62z" fill="#506924"/><path d="M71.65 208.27C64.31 215 55 223.06 51.46 232.6c-.15.41.39.64.67.39 7.62-6.6 17.31-13.65 22.54-22.38a1.93 1.93 0 0 0-3.02-2.34z" fill="#506924"/><path d="M109 196.86a25.84 25.84 0 0 0-10.49.93 33.42 33.42 0 0 0 6.23-6.51c4.18-5.82 7.38-17.16 0-22.15-5.74-3.85-12.57 1.12-15.84 5.87-4.5 6.52-5.78 15-7.59 23-.07.22-.13.44-.19.65-2.74-8-6.68-15.84-12.51-21.93-4.45-4.65-12.09-8.83-18.32-4.78s-3.64 12.06.12 16.82c6 7.61 16.26 12.21 25.22 16.17h-2.81a1.58 1.58 0 0 0-.43 0 72.52 72.52 0 0 0-22.61 3.76c-4.39 1.57-12.16 5.14-10.58 11.08s10 6.74 14.69 5.12c4.92-1.71 9.38-5.75 13.59-8.7a50 50 0 0 0-5.43 9.19c-2.48 5.44-5.69 14.72 1.16 18.61 5.24 3 11-1.29 13.07-6.08 1.54-3.6 1.53-7.81 1.89-11.63.53-5.66 1.5-11.26 2-16.92l.06.07c-1 12.88 2 36.92 16.06 31 12.72-5.35-.22-20.72-9.47-29.79l.76.33c5.12 3.35 10.21 6 17.18 5 5.56-.79 14.79-3.2 15.93-9.89 1.14-6.47-6.89-8.49-11.69-9.22z" fill="#ffa3ab"/><path d="M98.57 225.41c-.14-.36-.72-.23-.59.15.63 1.89 1.76 5.54 1.06 7.43a7.28 7.28 0 0 1-2.24 2.78 17.54 17.54 0 0 0-1.39-2.28c-.55-.9-1.17-1.73-1.79-2.58a.4.4 0 0 0-.73.19 10 10 0 0 0 .94 5.57 2 2 0 0 0-.62-.33c-1.13-.36-1.67-1.31-2.7-1.83a2.29 2.29 0 0 0-2.33.24c-.55-.75-1.11-1.77-1.29-2.08a22.28 22.28 0 0 1-1.67-3.87.34.34 0 0 0-.65 0 8.89 8.89 0 0 0-.15 4.46c-.3-.35-.59-.71-.88-1.07-.09-.12-.29 0-.25.14 1.56 5.27 6 11.06 12.13 8.25a11.3 11.3 0 0 0 6.54-5.27c1.69-3.41-2.23-6.97-3.39-9.9z" fill="#e05c72"/><path d="M116.07 205.67c-5.43-.48-10.5 1.74-16 1.4a24.89 24.89 0 0 1-3.2-.44l1.29-.34a2 2 0 0 0 1.5-1.81c1.77-.55 3.6-1 5.32-1.43a.59.59 0 0 0-.14-1.17c-2.34.09-4.75.25-7.12.27h-1.14c5.27-2.54 10.51-5 17.25-3.17.34.09.58-.42.25-.58-4.39-2.11-8-3.59-13-2.91h-.25c4.64-4.62 7.84-10.15 7.15-15.83 0-.29-.45-.24-.53 0-1.73 5.31-5.67 9.18-10.26 12.48a11.38 11.38 0 0 0 1-1.92.29.29 0 0 0-.35-.35 17.9 17.9 0 0 0-3.6 2c1.35-1.68 2.77-3.26 2.35-5.52a1.67 1.67 0 0 0-.59-1c1.34-3.76 3.9-7 4.65-11.07a.29.29 0 0 0-.55-.16c-1.49 4.36-5.49 7.88-8.1 11.58a1.63 1.63 0 0 0 0 1.87 15.38 15.38 0 0 0-2.86 2.52 53.13 53.13 0 0 1 2-5.06c.18-.35-.34-.66-.53-.31a33.08 33.08 0 0 1-2.52 3.66 45.1 45.1 0 0 1 3.56-11c.15-.3-.25-.68-.5-.39-4.47 5.41-8.7 12.28-10.42 19.49a85.32 85.32 0 0 0-4.5-10.33c-2.8-5.48-7.47-8.56-11.78-12.73-.32-.31-.74.14-.48.48a60.33 60.33 0 0 1 9 15.88 35.89 35.89 0 0 0-7.7-8.19c-.3-.22-.66.26-.4.51a22.77 22.77 0 0 1 4.91 8.06 16 16 0 0 0-4.3-4.32 1.44 1.44 0 0 0-.48-.22c-3.65-4.77-8.51-9.6-14-11-.18 0-.36.2-.2.33 2.55 2.15 4.43 5.19 6.54 7.75a49.16 49.16 0 0 0 5.66 5.84 2.71 2.71 0 0 0 .75 1 1.82 1.82 0 0 0 .56.31 51.39 51.39 0 0 1 3.92 5 1.61 1.61 0 0 0 2.93-1.2v-.07a40.61 40.61 0 0 0 1.91 4.13l-1-.69a1.69 1.69 0 0 0-2.32.25c-2.16-.92-4.32-1.94-6.41-3.06-2.54-1.72-5-3.56-7.6-5.19-.17-.11-.41.11-.29.29 3.12 4.49 6 9 10.86 11.81a38.16 38.16 0 0 0 6.77 3 13.82 13.82 0 0 0-3.77.26l-1.25.09a1.22 1.22 0 0 0-.5 0h-.08A43.44 43.44 0 0 0 53 208.71c-.27.13-.09.57.2.49a36.55 36.55 0 0 1 5.65-1.11c-2.51 1.57-4.88 3.39-7.05 4.9-.3.21-.14.76.26.64 1.78-.54 3.49-1.1 5.18-1.65-3.7 2.31-7.07 5.08-11.74 5.41a.3.3 0 0 0 0 .59c3.73.25 6.4.42 9.85-1.13a39.86 39.86 0 0 0 9-5.48 35.25 35.25 0 0 1 5.22-1.66c-4.19 3.94-8 8.46-12.81 11.55-.3.19-.12.77.25.62 2.64-1 5.37-2.23 8-3.59-3 5.13-2.44 10.51-3.41 16.27-.05.31.37.55.54.23 2.37-4.44 3.56-9.55 6.35-13.73l.12-.16-.05.31a13.79 13.79 0 0 0-.23 2.1 21.07 21.07 0 0 1 .19 2.56c-.05.36.58.46.64.09a12.69 12.69 0 0 1 1.42-2.79c.41-.84.81-1.69 1.26-2.51.62-1.12 1.31-2.26 1-3.38l.22.07v.07a1.87 1.87 0 0 0 1.71 2.43v.19c-.54 5.46 1.73 11.14-.17 16.47-.11.3.32.44.48.21 2.59-3.72 3-7.25 3.43-11.68a45.77 45.77 0 0 1 2.06-9.6 20.09 20.09 0 0 0 1.94 6.1c.21.44.8.12.74-.3-.11-.71-.18-1.44-.22-2.18a13.64 13.64 0 0 0 2 2.64.45.45 0 0 0 .75-.42c-.23-1.18-.42-2.36-.59-3.54a2.32 2.32 0 0 0 1.87-.9 26.93 26.93 0 0 1 5.51 8.41.4.4 0 0 0 .78-.2c-1.28-6-4.32-10.19-7.84-15.14a2 2 0 0 0-.65-.56 13.21 13.21 0 0 0-1-2.08A39 39 0 0 0 98 211.36c7.27.51 11.69-3.15 18.31-5.09a.3.3 0 0 0-.24-.6z" fill="#e05c72"/><path d="M120.23 204.44c-1.35 1.17-3.42 1-5 1.35a26.88 26.88 0 0 0-4.6 1.52 48.49 48.49 0 0 1-7.56 2.6 1.5 1.5 0 0 0-.42-.07c-4.11.14-7.64.34-11.69-.78a104.56 104.56 0 0 1-10.32-3.47c-.25-.1-.48.29-.27.46a50.2 50.2 0 0 0 10 6.62c6.77 3.64 14.92 5.07 21.32 2.22a24.39 24.39 0 0 0 5.32-2.71 11.06 11.06 0 0 0 3.17-3.06c1.09-1.72.81-2.32.65-4.26v-.08c.09-.35-.36-.55-.6-.34z" fill="#ffd6d6"/><path d="M89.91 214.51c-.2-.16-.48.14-.35.35a25.67 25.67 0 0 1 3.63 8.75c.25 1.13.43 2.26.62 3.38a16.27 16.27 0 0 0-2-4.17 1.8 1.8 0 0 0-1.81-.55 29.16 29.16 0 0 0-6.25-8.52.35.35 0 0 0-.55.42 38.08 38.08 0 0 1 3.18 9.37 1.91 1.91 0 0 0-.07.31 32 32 0 0 0-3.1-4.58c-.25-.33-.8 0-.57.33a16.9 16.9 0 0 1 1.88 5.81l-.12-.21a1.28 1.28 0 0 0-.78-.64c-.17-.41-.32-.76-.33-.78-.16-.35-.72-.11-.62.25 0 .16.09.33.15.5a1.43 1.43 0 0 0-1.1 1.75 7 7 0 0 0 2.14 3.64 1.36 1.36 0 0 0 2.31-1.09 3.23 3.23 0 0 0 2 1.79 1.9 1.9 0 0 0 .75 0c.28.43.57.85.89 1.26a39.66 39.66 0 0 0 3.72 3.57c.27.27.68-.14.42-.42-1.68-1.81-2.68-4.63-3.28-7.2a4.29 4.29 0 0 0-.07-.51c.19.36.36.72.57 1.07a.91.91 0 0 0 1.16.39c.8.72 1.66 1.4 2.51 2.09a11.86 11.86 0 0 0 .49 1.13 1.48 1.48 0 0 0 2.74-.71c-.12-7.1-2.51-12.4-8.16-16.78z" fill="#ffd6d6"/><path d="M106.27 170.27a8.63 8.63 0 0 0-2.95-1.92 9.28 9.28 0 0 0-7.7-.48c-5.57 2.13-7.4 7.69-8.58 13a.27.27 0 0 0 .48.21 42.77 42.77 0 0 1 5-6.18 17.63 17.63 0 0 0-1.35 3.63 38.61 38.61 0 0 1-.9 4.07c-.11 0-.15.15-.06.2l.44.23A.2.2 0 0 0 91 183a37.89 37.89 0 0 0 2.24-3.42c-.58 1.84-.76 3.69-1.2 5.58a.3.3 0 0 0 .57.16 26.94 26.94 0 0 1 5.33-8.32c.38-.36.75-.74 1.1-1.12a2 2 0 0 0 .43-.59c-.86 3.18-1.21 6.6-2.79 9.48a.21.21 0 0 0 .32.23c1.1-1.81 2.6-3.64 3.92-5.57-.31.93-.66 1.81-.87 2.44-.53 1.57-1.51 5.69-3.15 6.56-.28.15-.09.63.21.52 2-.69 3.08-2.45 4.18-4.18.66-1 1.28-2.14 1.84-3.27a27.33 27.33 0 0 1-.82 4.68.23.23 0 0 0 .45.13c.5-1.48 1.75-2.64 2.48-4a17 17 0 0 0 1.4-3.62c.18-.67.35-1.39.47-2.12a4.84 4.84 0 0 1 .93 2c0 .18.3.13.31 0 .22-3.19.44-5.88-2.08-8.3z" fill="#ffd6d6"/><path d="M64.21 175a1.33 1.33 0 0 0-.35-.93c-3.92-4.32-10.5-6.13-14.12-1.91a1.63 1.63 0 0 0-1.15 1.26c-1.65.69-2.9 3.27-3.15 4.71a8.35 8.35 0 0 0 1.95 6.5 5.46 5.46 0 0 0 .53 1c1.77 2.5 4.89 3.46 7 5.63.26.27.64-.12.41-.4-1.52-1.8-2.62-4.4-3.81-6.46a5.71 5.71 0 0 1-.69-2.49A11.05 11.05 0 0 0 52 184a1.06 1.06 0 0 0 .69.4 63.92 63.92 0 0 0 5.59 4.58c2.37 1.69 6 2.71 7.94 4.84.2.23.56-.06.42-.32-2.26-4.17-6.31-7.2-9.67-10.67a1.94 1.94 0 0 0-.25-.76 15.42 15.42 0 0 0-5.12-5.45l-.26-.62a5.38 5.38 0 0 0 1.19.34 15.91 15.91 0 0 1 3.15.4c2.18.75 5.36 2.41 6.76 4.26.22.3.74 0 .51-.3-.85-1.19-1.37-2.55-2.27-3.72a18.08 18.08 0 0 0-1.51-1.73c1.38.12 2.28 1.07 3.3 2.05a68.52 68.52 0 0 1 6.53 6.88c.2.26.67-.09.47-.36-1.68-2.29-3.23-6.01-5.26-8.82z" fill="#ffd6d6"/><path d="M118.49 200.86a21.54 21.54 0 0 0-4.18-1.37c-.43-.11-.87-.23-1.31-.32-1.8-.92-4.3-1.7-6.31-1.17-2.9.76-5.06 3.06-8.08 3.69a.35.35 0 0 0 .08.69 51.28 51.28 0 0 0 7.21-1 6.18 6.18 0 0 1 3.48.65h.05c-.67.24-1.33.53-2 .85-.37.17-.12.78.27.66a17.42 17.42 0 0 1 5.25-.49.73.73 0 0 0 .75-.6h.89a7.06 7.06 0 0 0 1.74-.29c.63-.2 1.31-.76 2-.68a.34.34 0 0 0 .16-.62z" fill="#ffd6d6"/><path d="M75.46 224.46a.3.3 0 0 0-.5-.21 7.59 7.59 0 0 0-1.87 3.3 2.12 2.12 0 0 0-.89-.51c.94-3.75 2.53-7.4 2.6-11.31a.32.32 0 0 0-.59-.17 38.37 38.37 0 0 0-5.65 11.34 29.22 29.22 0 0 0 .43-5.24c0-.21-.29-.38-.45-.19-3.2 3.63-4.55 10.09-4.17 15.13a17.36 17.36 0 0 0-1 3.13 1.2 1.2 0 0 0 0 .28c-2.1-3.71-2.2-8.07-1.17-12.29a.31.31 0 0 0-.56-.24c-3.56 4.77-5 13.25.69 17.11a1.55 1.55 0 0 0 1.39.25 3.41 3.41 0 0 0 1.17.41 3.85 3.85 0 0 0 1.75-.16 5.61 5.61 0 0 0 4.06-.48c2.93-1.61 3.56-5.06 5.39-7.54.22-.3-.22-.75-.52-.52-.57.42-1.18.79-1.79 1.16a17.59 17.59 0 0 0 .7-3.14c.52-3.39.79-6.73.98-10.11z" fill="#ffd6d6"/><path d="M55.37 220.34c3.61-1.57 6.3-4.51 8.66-7.56.17-.22-.15-.47-.36-.36-4.95 2.57-9.38 5.35-15.18 4.91l-1.9-.17a27.63 27.63 0 0 1 3.51-3c1.59-1.15 3.36-3.45 5.27-3.93a.33.33 0 0 0-.08-.65c-2.41-.15-4.49.87-6.63 1.86a25.86 25.86 0 0 1 2.76-1.44.31.31 0 0 0-.15-.57c-4.23.19-10.6 1.8-11.46 6.41a6 6 0 0 0-.69 2.88 5.25 5.25 0 0 0 .22 1.42 1.5 1.5 0 0 0 1 1.74 7.75 7.75 0 0 0 3.26 2 9.67 9.67 0 0 0 4.66 1.82 10.56 10.56 0 0 0 4.78-.49c1.64-.59 2.21-1.58 3.47-2.67.22-.19 0-.5-.21-.52-2.12-.25-4.26.12-6.41-.21a9.49 9.49 0 0 1-2.42-.69c2.63.07 5.29.35 7.9-.78z" fill="#ffd6d6"/><path d="M89.35 223.16a2 2 0 0 0-.53.1 47 47 0 0 1-2.76-6c-.16-.42-.83-.25-.68.17a46.37 46.37 0 0 1 2.11 7.68.86.86 0 0 0 0 .12v.19a.47.47 0 0 0-.29 0 2 2 0 0 0-1.2 1.82 3.11 3.11 0 0 0 .76 2.48.94.94 0 0 0 1.38.1c.12.17.41 0 .31-.21v-.09a1.18 1.18 0 0 0 .17-.48 32.45 32.45 0 0 0 3.72 4.75c.19.23.58-.07.42-.32a19.4 19.4 0 0 1-2.14-5.71 1.33 1.33 0 0 0 2.07-1.4c-.38-1.48-1.64-3.28-3.34-3.2z" fill="#fff7e8"/><path d="M96.39 223.58a17.28 17.28 0 0 0-1.55-2.87 5.28 5.28 0 0 0-1-1.34c.47.3-.42-.54-.76-.62l-.16-.28c-.09-.16-.4-.11-.38.1.19 1.76 1 3.4 1.42 5.12s.46 3.66.93 5.45a1.25 1.25 0 0 0 2.46-.29 12.12 12.12 0 0 0-.96-5.27z" fill="#fff7e8"/><path d="M119.94 204.71c-3.58 1.34-7.4 1.75-11 3-4.1 1.45-7.7 1.54-11.8 1.8a111 111 0 0 1-12.69-2.07.22.22 0 0 0-.12.43c5.61 2 10.78 5.1 16.79 4.64a16 16 0 0 0 6.72-1c4.14-1.67 9.15-3.18 12.29-6.48.13-.12.01-.4-.19-.32z" fill="#fff7e8"/><path d="M116.27 201c-1.81-.58-3.16-2-5.08-2.39a6.49 6.49 0 0 0-4.44.77c-.8.44-.25 1.57.58 1.42 1.61-.29 3.2.22 4.79.44 1.36.19 2.72.15 4.07.33.33-.01.37-.52.08-.57z" fill="#fff7e8"/><path d="M106 171.09a6.48 6.48 0 0 0-2.63-1.08 6.14 6.14 0 0 0-1.09 0 1.81 1.81 0 0 0-.37-.31h.13a.44.44 0 0 0-.1-.85 10 10 0 0 0-4.5.5 9.76 9.76 0 0 0-5.17 2.14c-1.76 1.52-1.7 3.73-3.09 5.41-.22.27.07.78.41.53 1.28-1 1.75-2.34 2.84-3.44a7.6 7.6 0 0 1 2.45-1.57 1.47 1.47 0 0 0 .15 1.13 12.45 12.45 0 0 0-1.56 2.27 18.3 18.3 0 0 0-1.21 4.18.34.34 0 0 0 .65.18c.68-2.18 3-5.18 5.26-5.82a1.62 1.62 0 0 0 1-.76c.94-.44 1.9-.82 2.87-1.25a1.23 1.23 0 0 0 .7-.73 4.46 4.46 0 0 1 2.94 0c.41.28.76-.31.32-.53z" fill="#fff7e8"/><path d="M105.66 173.6c-.09-.23-.5-.24-.48.06.05.78-.91 1.51-1.25 2.18a4.39 4.39 0 0 0-.41 1.83 12.84 12.84 0 0 1-.1 2.28 17 17 0 0 1-.82 2.21 9.1 9.1 0 0 0-1.91 2.3 9.41 9.41 0 0 1-2.33 2.25c-.19.15.05.45.25.33a21.52 21.52 0 0 1 3.21-1.71 6.24 6.24 0 0 0 2.35-1.56 1 1 0 0 0 .51-.32 5.42 5.42 0 0 0 1.4-4.9 6.93 6.93 0 0 1-.39-3.16 3.07 3.07 0 0 0-.03-1.79z" fill="#fff7e8"/><path d="M64.64 190.9c-3.46-4.51-6.34-8.86-11-12.25a.83.83 0 0 0-.61-.16 25.47 25.47 0 0 0-4.64-4.3c-.27-.21-.68.2-.48.47a17.45 17.45 0 0 1 2.22 4.54 1.77 1.77 0 0 0 0 1.81 16.54 16.54 0 0 0 4.88 5c1.08.74 2.24-.36 2.16-1.43a67.16 67.16 0 0 1 7.05 6.82c.22.34.69-.16.42-.5z" fill="#fff7e8"/><path d="M49.49 179.93c-.32-1.17-.39-2.35-1.33-3.21a.24.24 0 0 0-.35.34c1.21 1.38.12 3.51.26 5.14a10.8 10.8 0 0 0 1.13 3.7c.47 1 2.22.3 1.81-.74a47.79 47.79 0 0 1-1.52-5.23z" fill="#fff7e8"/><path d="M63.13 175.74a12.87 12.87 0 0 0-5.35-3.51c-2.45-.67-4.14.22-6.44.77-.32.08-.27.61.07.58 3.94-.28 7.11 2 10.1 4.24 1.22.91 2.7-1.05 1.62-2.08z" fill="#fff7e8"/><path d="M59 215.17a65.79 65.79 0 0 1-8.86 2.34c-2.71.46-5.55-.47-8.13.44-.33.12-.32.65.08.65 1.7 0 3.19 1.08 4.78 1.5a8.11 8.11 0 0 0 3.94 0c3.17-.72 5.66-2.78 8.45-4.29a.35.35 0 0 0-.26-.64z" fill="#fff7e8"/><path d="M48.31 210.08c-3.31-.05-4.86 2.25-5.87 5.14-.35 1 1.27 1.71 1.72.73.84-1.83 1.89-4.94 4.23-5.23.37-.04.27-.64-.08-.64z" fill="#fff7e8"/><path d="M54.29 223.66c-1 .12-8.75.29-8.55-1.46a1.37 1.37 0 0 0-1.33-1.37c-1.36 0-3.77-.14-3.64-2.14 0-.34-.46-.38-.56-.08-.82 2.41.76 3.72 2.72 4.5.21 1.37 1.71 2.25 3.13 2.54a16 16 0 0 0 8.54-.82.6.6 0 0 0-.31-1.17z" fill="#fff7e8"/><path d="M70.94 228.61c.73-2.65 1.37-5.32 2.34-7.91.13-.35-.41-.57-.6-.26-1.41 2.39-2.92 4.63-4.17 7a1.29 1.29 0 0 0-.42.5 23.57 23.57 0 0 0-.9 2.31 21.27 21.27 0 0 0-.9 2.9 2 2 0 0 0-1.4 2.84c.79 1.73-.35 5.49-2.4 5.91a.32.32 0 0 0 .07.62c3.25.06 4.64-2.69 5.39-5.44a3.19 3.19 0 0 0 .59-.19c-.06.18-.1.36-.16.53-.59 1.69-1.37 3.29-1.9 5-.1.33.4.46.51.14.36-1 1.88-1.66 2.6-2.46a8.39 8.39 0 0 0 .7-.93c0 .09 0 .17-.07.26a8.26 8.26 0 0 0-.34 3.66v.07a.37.37 0 0 0 .59.18 8 8 0 0 0 1.89-3.34 39.59 39.59 0 0 0 1.44-4.37 1.16 1.16 0 0 0-1.45-1.42 12.6 12.6 0 0 0 .3-2.82 1.26 1.26 0 0 0 0-.19c.35-1.38.86-3.29 1.74-4 .28-.22-.09-.7-.38-.5a9.35 9.35 0 0 0-2.9 3.37H71v-1.37a1.3 1.3 0 0 0-.06-.09z" fill="#fff7e8"/><path d="M105 196c-3-1.55-5.72-1.37-9-.62-1.81.42-3.68.89-5.54 1.44a47.23 47.23 0 0 0 4.84-9.53c.14-.38-.39-.64-.65-.38-2.4 2.33-4.63 4.8-6.84 7.31-.4.45-.79.92-1.19 1.39.84-2.08 1.74-4.89.34-6.73a.37.37 0 0 0-.69.18c0 .81-1 1.91-1.35 2.6-.62 1.12-1.26 2.22-1.94 3.31a33.61 33.61 0 0 1-2.24 3 39 39 0 0 0-9.24-18.27c-.29-.31-.86.11-.6.46 3.21 4.27 3.74 9.42 4.65 14.44a5.38 5.38 0 0 1-.81-2.28.34.34 0 0 0-.66-.1c-.46 1.65.09 3.25.59 4.84.26.83.57 1.64.86 2.46-1-.68-2-1.43-3.06-2.07-.76-.46-1.18.44-1 1a.56.56 0 0 0 .08.13 11.64 11.64 0 0 0 1.38 2 9 9 0 0 1-1.4-.41 16.32 16.32 0 0 1-3.92-2.75 22.83 22.83 0 0 0-3.25-2 .36.36 0 0 0-.44.56c2 2.46 2.75 5.42 5.43 7.32-3.88 1.33-7.87 3.29-11.92 3.17-.36 0-.47.57-.09.64 4.62.9 9.44-.54 14.07-.81-.24.29-.47.58-.69.87-2.32 3.08-3.41 8.26-7.14 10-.3.14-.09.65.22.54a13.25 13.25 0 0 0 6.49-4.71 33 33 0 0 1 3.86-4.14 35.42 35.42 0 0 1-4.21 6.9.34.34 0 0 0 .48.48c1.84-1.69 4-2.83 5.75-4.46a39.71 39.71 0 0 0-1 4.24 17.19 17.19 0 0 0 .84 8.41c.09.26.54.25.52-.06-.3-4.14 1.37-8 2.82-11.75.1.23.2.46.32.68.36.66 1.26 1.61 1 2.47 0 .14.16.23.23.1a6.44 6.44 0 0 0 .67-4.13 5.5 5.5 0 0 0 .42 1 .26.26 0 0 0 .47-.12 6.07 6.07 0 0 0-.18-1.61c2.42 2.56 5.84 5.23 7 8.52a.31.31 0 0 0 .59-.15 29.59 29.59 0 0 0-6.89-12.49 32.22 32.22 0 0 0 22.73 1.16c.17-.05.16-.35 0-.33a50.67 50.67 0 0 1-12.93-.79 9.56 9.56 0 0 0 5-3 .32.32 0 0 0-.22-.54 45.27 45.27 0 0 1-4.86-.38 2.62 2.62 0 0 1 .39-.11c.33-.05.26-.49 0-.59a7.43 7.43 0 0 0-2.28-.5l1.5-.6.37-.09a9.55 9.55 0 0 0 2.39-1.12 44.78 44.78 0 0 1 9.79-3.19.41.41 0 0 0 .14-.81z" fill="#bd2f53"/><path d="M98.67 195.7c-5.42-.46-12 .51-16.75 3.78a41.74 41.74 0 0 0-5.15-8.7c-.18-.25-.65-.12-.54.22.65 2.17 1 4.46 1.6 6.67.17.68.36 1.37.54 2.07l-.41-.26a1.67 1.67 0 0 0-1.34-.23c-.14-.1-.28-.19-.41-.31a.31.31 0 0 0-.44.43c.07.08.12.16.19.24a2 2 0 0 0-.6 1.83 13.28 13.28 0 0 1-1.46-.13 25.35 25.35 0 0 0-2.95-.49.32.32 0 0 0 0 .63c.93.07 2.2 1.31 3.07 1.68a12.47 12.47 0 0 0 1.85.6 22.09 22.09 0 0 0-3.37 2.9c-1.5 1.64-3.33 3.07-4.53 4.93a.27.27 0 0 0 .41.32c.81-.83 2.23-.76 3.25-1.19a38.23 38.23 0 0 0 3.73-2.27c.81-.46 1.69-.81 2.52-1.22v.57a30.81 30.81 0 0 1-.89 6.53c-.16.49.58.68.75.21.74-2 1.92-4.07 2.8-6.21a32 32 0 0 0 1.42 2.75.39.39 0 0 0 .73-.19 20.18 20.18 0 0 0-.13-3.55c4.3 2 9.34 2.77 13.25 1 .12-.05.05-.23-.06-.24-4.08-.22-7.53-1.95-10.81-4 4.7-2.22 9-6 13.82-7.75a.31.31 0 0 0-.09-.62z" fill="#96244a"/><path d="M78.15 199.67l-.16-.14c-.22-.19-.68-.1-.65.26v.19c.1 1.02 1.41.2.81-.31z" fill="#e3be2b"/><path d="M76.48 202.37c-.79-.54-1.66 0-2.46.26a.34.34 0 0 0 .08.67c.75 0 1.16.68 1.92.7a.89.89 0 0 0 .46-1.63z" fill="#e3be2b"/><path d="M82 199.87a1.35 1.35 0 0 0-.36.1c-.9.31-.88 1.9.21 1.79a4.43 4.43 0 0 0 .61-.09c1.14-.29.67-2.03-.46-1.8z" fill="#e3be2b"/><path d="M77.94 207.8c-.3.07-.68-.1-.91.19-.8 1 .45 1.7 1.33 1.43a.84.84 0 0 0-.42-1.62z" fill="#e3be2b"/><path d="M81.91 207.88a4.92 4.92 0 0 1-1.67.39c-.42 0-.43.68 0 .66a4.07 4.07 0 0 0 1.89-.54c.24-.15.07-.63-.22-.51z" fill="#e3be2b"/><path d="M85.47 203.18a1.29 1.29 0 0 0-.23.1.43.43 0 0 0-.1-.14c-.45-.43-.6-1-1.21-1.29a.6.6 0 0 0-.86.49.4.4 0 0 0-.58-.33 3.6 3.6 0 0 1-.94.22c-.3-.32-.63-.61-.95-.9a3.31 3.31 0 0 0-1.88-1.12.72.72 0 0 0-.71.54.74.74 0 0 0 .28 1.36c.17.3.38.59.57.87a1.06 1.06 0 0 0-.72.15c-.8.55-2.22 1.73-2.2 2.79a.93.93 0 0 0 .65.94c.88.31 1.93-.38 2.62-1.17 0 .11.07.21.11.31a.64.64 0 0 0 .82.36v.06a.87.87 0 0 0 .52.33.6.6 0 0 0-.31.4c0 .08-.11.28-.2.3a.3.3 0 0 0 0 .57 1.21 1.21 0 0 0 1.28-.24.57.57 0 0 0-.09-.94.75.75 0 0 0 .65 0c.51-.27 2.9-1.46 1.75-2.24h-.05a.39.39 0 0 0-.26 0 2.86 2.86 0 0 0-1.62.55 1 1 0 0 0-.14-.19 1.4 1.4 0 0 0 .55-1.32c.24-.28.43-.6.67-.88a.41.41 0 0 0 .1-.25.56.56 0 0 0 .08.23 2 2 0 0 0 .58.61c.25.18.6.28.83.48a.43.43 0 0 0 .12.07 1.37 1.37 0 0 0-.16.69.45.45 0 0 0 .1.81 2.58 2.58 0 0 1 .25.09 1.2 1.2 0 0 0 1.27.4 1.34 1.34 0 0 0-.59-2.71z" fill="#e3be2b"/><path d="M81.64 205.48a.49.49 0 0 0-.34.67.85.85 0 0 1-1.05-.08c-.26-.24-.66.16-.39.39a1.53 1.53 0 0 0 .33.19.69.69 0 0 0-.24 0 .7.7 0 1 0 .56.1 1.35 1.35 0 0 0 1.16-.27.52.52 0 1 0 0-1z" fill="#ffe26e"/><path d="M84.69 205.15a.48.48 0 1 0-1-.14c0 .29.05.58 0 .86a.37.37 0 0 0 .25.4 1 1 0 0 0-.74.33c-.39.45.13 1.3.69.9.06 0 .24-.23.34-.19.65.22.93-.9.28-1h-.29a.28.28 0 0 0 .14-.22c.11-.35.26-.63.33-.94z" fill="#ffe26e"/><path d="M80.54 203a.37.37 0 0 0-.28.25.27.27 0 0 0-.35.15l-.06.15c-.56.68.7.81.69.32a8.48 8.48 0 0 0 2.25.59c.2 0 .28-.21.21-.36a2.16 2.16 0 0 0-2.46-1.1z" fill="#ffe26e"/><path d="M77.31 200.94a1 1 0 0 0-.9 1.27c0 .19.27.18.37.05a.79.79 0 0 1 .66-.32c.71.06.61-1.15-.13-1z" fill="#ffe26e"/><path d="M84.06 201.37a5 5 0 0 0-3.16-.27.49.49 0 0 0-.32-.28 4.27 4.27 0 0 1-1.31-.6c-.5-.4-1.07.38-.53.68.37.2.72.43 1.09.64a6.27 6.27 0 0 0-.6.38c-1.12.82-2 1.93-1.44 3.42a.68.68 0 1 0 1.15-.66c-.41-.5.17-.89.33-1.26A2.29 2.29 0 0 1 81 202h.23a.23.23 0 0 0 0 .16c.42.67 1 1 1.68.44.26-.21 0-.62-.25-.63a5.44 5.44 0 0 1-.66 0c.65 0 1.31.07 2 .08a.29.29 0 0 0 .06-.68z" fill="#ffe26e"/><path d="M79.61 204.39a.39.39 0 0 0 .2.76.39.39 0 0 0-.2-.76z" fill="#ffe26e"/><path d="M77.46 205.76l-.17-.14c-.67-.58-1.09.86-.2.73h.22a.33.33 0 0 0 .15-.59z" fill="#ffe26e"/><path d="M74.38 201.31a.17.17 0 0 0 .08.33.17.17 0 0 0-.08-.33z" fill="#ffe26e"/><path d="M76.67 199.08h-.23a.26.26 0 0 0-.18.43l.17.15c.48.43.85-.56.24-.58z" fill="#ffe26e"/><path d="M81.5 198.55l-.27-.17c-.19-.12-.39.08-.36.27l.05.34c.08.68 1.27.01.58-.44z" fill="#ffe26e"/><path d="M85.49 200.09l-.48.53c-.47.52.39 1.19.76.59l.38-.61c.26-.39-.34-.87-.66-.51z" fill="#ffe26e"/><path d="M85 203.25a.48.48 0 0 0 .24.92.48.48 0 0 0-.24-.92z" fill="#ffe26e"/><path d="M77.54 208.55c-.35.34.17 1 .53.69s-.07-1.12-.53-.69z" fill="#ffe26e"/><path d="M73.39 207.11l.13.14a.36.36 0 0 0 .6-.16v-.19c.28-.9-1.4-.53-.73.21z" fill="#ffe26e"/><path d="M75.59 204.18l-.32.1c-.57.18 0 1 .32.57l.23-.26c.18-.17.02-.48-.23-.41z" fill="#ffe26e"/><path d="M76.21 208a.44.44 0 0 0 .22.86.44.44 0 0 0-.22-.86z" fill="#ffe26e"/><path d="M81.23 208a.44.44 0 0 0 .22.86.44.44 0 0 0-.22-.86z" fill="#ffe26e"/><path d="M77.12 204.3a.47.47 0 0 0-.44.26.39.39 0 0 0 .27.58c.51.28.89-.87.17-.84z" fill="#ffe26e"/><path d="M74.27 201.87h-.68a.37.37 0 1 0 .09.73l.59-.08c.41-.02.45-.68 0-.65z" fill="#ffe26e"/><path d="M78.95 203.64a.61.61 0 0 0-.28 1l.22.19a.42.42 0 0 0 .69-.18l.1-.28a.61.61 0 0 0-.73-.73z" fill="#695040"/><path d="M80.19 201.29a.46.46 0 0 0-.1.71.33.33 0 0 0 .26.1.32.32 0 0 0 .18 0c.63-.19.24-1.1-.34-.81z" fill="#695040"/><path d="M84 203v-.22c-.08-.4-.74-.23-.61.16l.07.22a.28.28 0 0 0 .11.13h-.1c-.85.3.27 1.31.5.51l.11-.16a.19.19 0 0 0 0-.35h-.09A.27.27 0 0 0 84 203z" fill="#695040"/><path d="M82.8 204.6l-.21.05c-.61.14.18 1 .36.37l.06-.21a.17.17 0 0 0-.21-.21z" fill="#695040"/><path d="M80.53 206.13l-.19.1a.36.36 0 0 0 .17.67h.22c.68-.01.4-1.09-.2-.77z" fill="#695040"/><path d="M80.83 203.51v.05c-.2.34.34.66.53.31v-.05a.31.31 0 0 0-.53-.31z" fill="#695040"/><path d="M78.25 202.3h-.11a.24.24 0 0 0-.19.3.34.34 0 0 0-.23.3.43.43 0 0 0 .23.45c.2.15.45-.09.41-.31 0 .06 0-.07.06-.11s0-.08 0-.12a.27.27 0 0 0-.17-.51z" fill="#695040"/><path d="M77.25 202v.25c0 .4.54.44.66.1l.09-.24c.15-.43-.7-.63-.75-.11z" fill="#695040"/><path d="M77 205.14a.21.21 0 0 0-.35.09.7.7 0 0 0 0 .38.32.32 0 1 0 .61-.16.71.71 0 0 0-.26-.31z" fill="#695040"/><path d="M78 207.18l-.16-.19c-.21-.25-.59.12-.36.36l.18.18c.21.21.53-.12.34-.35z" fill="#695040"/><path d="M80.36 208.23l-.06.31c-.11.37.43.51.57.16l.16-.28c.31-.42-.63-.83-.67-.19z" fill="#695040"/><path d="M80.26 204.3a.58.58 0 0 0 .32.7c.25.17.47-.09.43-.33.39-.55-.64-.98-.75-.37z" fill="#695040"/><path d="M80.67 202.21a.44.44 0 0 0-.11.79h.07a.36.36 0 0 0 .49-.13v-.07a.44.44 0 0 0-.45-.59z" fill="#695040"/><path d="M78.27 200.8l.09.2a.26.26 0 0 0 .47-.12v-.22a.29.29 0 1 0-.56.14z" fill="#695040"/><path d="M80.62 205.16a.41.41 0 0 0 .21.8.41.41 0 0 0-.21-.8z" fill="#695040"/><path d="M125.41 71c.26-4.74 2.6-8.79 1.95-13.58-.26-1.88-3.14-1.64-3.57 0-1.3 5-3.17 10.67-2.45 15.86.82 5.92 4.65 10.15 7.47 15.15a.26.26 0 0 0 .47-.2c-1.67-5.06-4.16-12.01-3.87-17.23z" fill="#85a352"/><path d="M121.81 51.52c-4 4.06-6.77 9.12-11 13-4.93 4.58-11.09 6.7-16.81 9.95a.3.3 0 0 0 .23.54c6.58-2 12.76-2.85 18.28-7.24a45.18 45.18 0 0 0 12-14.19c.82-1.67-1.28-3.5-2.7-2.06z" fill="#85a352"/><path d="M128.23 56c.8-2-2.11-2.79-3.18-1.34a24.35 24.35 0 0 0-4.75 12.16c-.26 4.4 1.72 8.18 3.61 12 .06.12.22 0 .2-.09-.6-4.39-1.53-8.58-.26-12.94 1-3.47 3.04-6.46 4.38-9.79z" fill="#506924"/><path d="M119.52 51.84C116.73 55 115 59 112.18 62.17s-6.15 5.59-9.29 8.41c-.25.22.12.59.37.37 1.65-1.48 4.8-2.33 6.76-3.55a34.2 34.2 0 0 0 5.09-3.87c2.84-2.62 6.26-6.25 7.12-10.11.33-1.49-1.57-2.86-2.71-1.58z" fill="#506924"/><path d="M148.45 73.74a76.62 76.62 0 0 0-13.2-8.28c-1-.5-2-1-3-1.51 5.17 2 10.42 3.55 15.89 2.9 7.18-.86 14.34-6.94 15.28-14.36 1-7.69-6.28-11.38-13-10.59-6.25.72-13.54 3.62-19.78 7.29 7.29-9.92 13-23 .39-26.82-7-2.13-12.22 4.27-14.66 10.06-2.95 7-.75 15.29 2.27 22.15A28.52 28.52 0 0 1 112.86 44c-.92-3.23-.69-6.91-2.35-9.91-2.32-4.21-7.58-6.13-11.15-2.22-4.08 4.47-2.68 11.47.54 16a27.65 27.65 0 0 0 5.67 5.63 39.9 39.9 0 0 0-2-.28c-3.74-.38-10.2 1-9.15 6.15.81 4 7.35 6.68 11 6.86a18.41 18.41 0 0 0 7.26-1.32c-2.18 2.6-2.92 5.53-.75 8.77 2.63 3.94 6.15 4.26 9.43.93a15.7 15.7 0 0 0 3.64-6.35 33.32 33.32 0 0 0 6.22 7.63c4.17 3.75 11.26 7.87 17.14 5.77 5.12-1.81 3.47-5.24.09-7.92z" fill="#ffa3ab"/><path d="M118.42 57.83c-1.32.88-3.29 1.21-4.81 1.66h-.16a1.14 1.14 0 0 0-1.1-.28c-3.38.95-7 1.58-10.49.77-.38-.09-.65.45-.28.66a17.41 17.41 0 0 0 2.22 1 11.17 11.17 0 0 1-7.73-2.41c-.36-.28-.71.28-.47.59a15.58 15.58 0 0 0 2.18 2.29.36.36 0 0 0-.34.62 15.85 15.85 0 0 0 7.14 2.75 9.67 9.67 0 0 0 5.14-.33c.24-.07.49-.11.73-.19a1.19 1.19 0 0 0 .23-.13 7.59 7.59 0 0 0 1.22-.56 1.31 1.31 0 0 0 .47-.52c.25-.1.5-.17.75-.29a21.61 21.61 0 0 0 3.35-2.27.37.37 0 0 0-.12-.68c.84-.7 1.59-1.48 2.52-2.16.32-.17-.1-.75-.45-.52z" fill="#ffd6d6"/><path d="M117.28 57.15a9.5 9.5 0 0 0-2.15-2.27.17.17 0 0 0 0-.24c-1-.81-1.91-1.67-2.84-2.53a1.42 1.42 0 0 0-.16-.5c-1.79-3.3-4.78-5.81-6.68-9.09-1.6-2.77-4.85-9.69-.89-11.76a.25.25 0 0 0 .06-.39 2.19 2.19 0 0 0-3.27.05c-1.91 1.72-1.86 4.94-1.51 7.28a24.65 24.65 0 0 1-.74-4.78c0-.14-.22-.24-.29-.08-3.55 7.89 1.86 16.86 8.87 20.91.44.31.87.59 1.28.83a1.18 1.18 0 0 0 .28.09c.34.3.68.58 1 .83 2 1.43 4.43 1.76 6.81 2a.24.24 0 0 0 .23-.35z" fill="#ffd6d6"/><path d="M151.46 78.9c.12-.3-.3-.49-.51-.3-4.13 3.79-13.27-4.07-15.78-6.37a125.37 125.37 0 0 1-9.27-10.07 27 27 0 0 1-3.79-6.63.27.27 0 0 0-.53.06 14.05 14.05 0 0 0 .73 7.42 1.64 1.64 0 0 0 .25.86l.2.31c2.49 5.45 5 10 10.14 13.68 4 2.9 7.55 4.24 11.79 3.79 2.81.48 5.66.1 6.77-2.75z" fill="#ffd6d6"/><path d="M120.52 54.71c-.25-3.72-1-7.38-1.21-11.1a44.34 44.34 0 0 1 .5-8.1c1.29-5.21 4.21-10.46 8.89-12.72a.28.28 0 0 0-.13-.52c-6.4 0-12.1 7.1-13 13.8-1.33 6.54-.12 14.24 4.35 18.88a.35.35 0 0 0 .6-.24z" fill="#ffd6d6"/><path d="M162.82 56.32c3.68-4.26.33-11.12-4.88-13.25-7.82-3.2-14-.25-19.7 5.07a.28.28 0 0 0 .26.47c2.06-.6 4.14-1.47 6.26-2.12a1.66 1.66 0 0 0 2.38 1.51 17.32 17.32 0 0 1 2.63-.87c-.38.89 0 2.09 1.19 2 .38 0 .77-.07 1.15-.11a1.79 1.79 0 0 0 0 1.71c-1.61.91-3.25 1.77-4.85 2.71a.33.33 0 0 0 .24.6 40.78 40.78 0 0 0 7.34-2.04c.25 0 .49 0 .73-.07a22.51 22.51 0 0 1-3.35 2.28 17.41 17.41 0 0 1-6 2.44.34.34 0 0 0 .08.66 22.4 22.4 0 0 0 9-2 1.67 1.67 0 0 0 1.33 0c.14-.05.38-.18.69-.33a1.82 1.82 0 0 0 .48 2 24.9 24.9 0 0 1-4.74 4.23c-3.45 2.3-8.28 4.53-12.45 4.58-.3 0-.4.48-.08.55a21.42 21.42 0 0 0 14-1.52c3.04-1.54 6.9-5.12 8.29-8.5z" fill="#ffd6d6"/><path d="M136.82 37.46a12.5 12.5 0 0 0 .52-2.52 1.66 1.66 0 0 0 .16-.3c1.74-4.26-.12-10.83-5.67-9.95-.33.05-.27.61.07.58a1.38 1.38 0 0 1 1 .36c-.79-.23-1.86.37-1.76 1.26a37.69 37.69 0 0 1 .1 4.93c-.05 2.14.17 4.54-.31 6.64-.12.5.64.71.77.21a34.89 34.89 0 0 1 1.46-4 1.8 1.8 0 0 0 .23.25A55.88 55.88 0 0 1 132 42.3c-.09.37.44.64.64.27a29.24 29.24 0 0 0 1.64-3.57 8.88 8.88 0 0 1-.3 2.87c-.13.39.47.55.61.17.59-1.61 1.7-2.92 2.23-4.58z" fill="#ffd6d6"/><path d="M114.74 54.16c-5-4.86-12.8-14.44-11.78-21.92 0-.29-.41-.33-.49-.07-2.75 9.24 3.09 18.68 11.18 23.37.84.46 1.83-.67 1.09-1.38z" fill="#fff7e8"/><path d="M119.4 47.42c.33-3.49.24-7 .61-10.5.57-5.47 3.46-9.28 7-13.29a.2.2 0 0 0-.28-.29c-3.37 2.83-6.56 5.67-7.88 10-1.38 4.51-.8 9.48-.25 14.07a.42.42 0 0 0 .8.01z" fill="#fff7e8"/><path d="M147.95 79c-5.64-2-10.52-4.53-14.79-8.78-3.61-3.58-6.19-8.08-9.44-12-.13-.16-.43 0-.36.2 2.13 5.81 4.29 11.6 9.18 15.6s9.2 5.82 15.34 5.48a.27.27 0 0 0 .07-.5z" fill="#fff7e8"/><path d="M123.39 58a.06.06 0 0 0-.06.1.06.06 0 0 0 .06-.1z" fill="#fff7e8"/><path d="M162.68 52.28a1.38 1.38 0 0 0-2.5-1.07c-3.57 5.63-10.25 13.11-17.43 13.84-.34 0-.36.54 0 .54 7.03-.09 18.77-5.59 19.93-13.31z" fill="#fff7e8"/><path d="M160.55 48a4.69 4.69 0 0 0-1.5-1.46c.5-.56.57-1.33-.23-2.3-1-1.25-2.76-1.53-4.48-1.44-4.08-.48-7.85 1.06-11.13 3.48-.22.16 0 .56.26.47a24.07 24.07 0 0 1 6.78-1.21 1.32 1.32 0 0 0 1 .51h3.39a1.4 1.4 0 0 0 0 .86 10.76 10.76 0 0 1-2.19.38.32.32 0 0 0 0 .65 11.6 11.6 0 0 0 3.09-.39h.13a5 5 0 0 0 1.25 0 7.55 7.55 0 0 1 3.29.8c.2.07.48-.14.34-.35z" fill="#fff7e8"/><path d="M137.54 28.05a1.48 1.48 0 0 0-1.83-.21 3.86 3.86 0 0 1-1.29-1.41c-.23-.44-.85-.07-.67.37.47 1.1 1 2.17 1.48 3.27a7.38 7.38 0 0 1-.33 2.84c-.21 1.14-.39 2.28-.54 3.43-.23 1.71 2.25 1.77 2.78.39.97-2.32 2.45-6.51.4-8.68z" fill="#fff7e8"/><path d="M111.62 61.18a12.34 12.34 0 0 0 1.51-.47c.89-.34.59-1.77-.37-1.47a29.18 29.18 0 0 1-7.4 1.65.31.31 0 0 0 0 .61h.68a2.14 2.14 0 0 0-1.49.74 9.22 9.22 0 0 1-4.93-.54c-.32-.11-.52.37-.23.54a14 14 0 0 0 4.7 1.64 1.37 1.37 0 0 0 1.06 1.12c2.59.62 5.61.46 7.61-1.49a1.37 1.37 0 0 0-1.14-2.33zm-4.09.84a1.26 1.26 0 0 0-.53-.37 2.65 2.65 0 0 0-.43-.09 19.05 19.05 0 0 0 4.24-.21 18.61 18.61 0 0 1-3.28.65z" fill="#fff7e8"/><path d="M128.84 33.93a.77.77 0 0 0-.24-.58c.18-1.9.48-3.91 1-4a.93.93 0 0 0 .66-1.1 11.21 11.21 0 0 1 .09-3.38c.06-.34-.45-.49-.52-.14a11.3 11.3 0 0 1-.81 2.47c-3-1.08-3.33 7.49-3.3 9a1.41 1.41 0 0 0 1.43 1.29 30.94 30.94 0 0 0 .38 4.27c0 .23.37.21.43 0a29.66 29.66 0 0 0 .88-7.83z" fill="#fff7e8"/><path d="M154.76 48.48a17.79 17.79 0 0 1-11.94 3c-.29 0-.38.4-.15.53a11.78 11.78 0 0 0 13.75-1.3c1.19-1.01-.31-3.12-1.66-2.23z" fill="#fff7e8"/><path d="M145.19 76.5a61.84 61.84 0 0 1-8.54-7.38c.49.28 1 .54 1.5.77.21.1.58-.06.47-.35a9 9 0 0 0-3.17-3.86c.57.13 1.14.25 1.69.33 5.25.74 9.4-1.58 13.1-5.1.23-.22-.05-.63-.34-.46a16.62 16.62 0 0 1-14.16 1.12 1.39 1.39 0 0 0 .19-.08 26.63 26.63 0 0 0 8.31.57c.2 0 .33-.3.12-.41-.42-.22-.86-.42-1.3-.63a2.88 2.88 0 0 0 2.61-1c.14-.21-.14-.53-.36-.37-.71.52-3.46-.61-4.25-.79h-.09a2.22 2.22 0 0 0-1.81-2.53 14.22 14.22 0 0 0-4.34 0 1.66 1.66 0 0 0-.46-.3c-.3-.14-.6-.29-.89-.45.89-.39 1.78-.81 2.67-1.17a2.55 2.55 0 0 0 1.58-.6 2.17 2.17 0 0 0 .88-1.47c2.82-1.76 6.26-2 9.63-2.18.34 0 .48-.57.09-.64-2.43-.42-4.63-1.27-7.14-1a13.66 13.66 0 0 0-5.57 1.9l-1.32.37c1.56-1 3.14-2.17 4.77-3.1a.35.35 0 0 0-.26-.65 33.46 33.46 0 0 0-7.8 2.45l-.39.2a16.67 16.67 0 0 0 1.62-5.37c.05-.41-.61-.49-.71-.1a8.7 8.7 0 0 1-1.63 2.92c1-3.74.94-7.49.49-11.84 0-.4-.67-.41-.63 0a20.67 20.67 0 0 1-2.44 10.65l-.09-1.23a.33.33 0 0 0-.64-.09c-.2.71-.44 1.42-.68 2.13a2.28 2.28 0 0 0-1.29-1.17c-.13-2.42.11-4.83.18-7.27a.26.26 0 0 0-.48-.14 12.88 12.88 0 0 0-1.17 2.14 40.23 40.23 0 0 1 5.08-16.38.2.2 0 0 0-.32-.25c-7.16 6.73-10.69 17.88-7.89 27.51a20.78 20.78 0 0 0 .14 2.19 1.18 1.18 0 0 0-.06.16c-.07.45-.12.91-.15 1.38-.18-.14-.37-.27-.56-.4a8.09 8.09 0 0 0-.92-.53l-.14-.05c-1.15-2.15-2.56-4.14-3.76-6.27s-1.95-4.67-3.64-6.24a.31.31 0 0 0-.52.13 6.76 6.76 0 0 0 0 2.89 34.56 34.56 0 0 1-6.28-10.64c-.09-.27-.55-.26-.53.06.51 8.5 5.36 15.89 11.81 21.33.3.37.6.73.94 1.07a1.32 1.32 0 0 0 1.15.4l.58.44a13 13 0 0 1-1.18.62l-.39.17a1.35 1.35 0 0 0-.78-.32 22 22 0 0 1-3.11-.41 1.63 1.63 0 0 0-.51-.08 1.55 1.55 0 0 0-.6-1.4c-2.46-1.84-5.42-3.46-8.44-2.06a1.32 1.32 0 0 0-.55.47 36.69 36.69 0 0 0-6.09 1.22c-.3.09-.28.61.07.58a31.3 31.3 0 0 1 6.37 0 1.73 1.73 0 0 0 .57.34.35.35 0 0 0 .17.11c1.3.39 2.51.88 3.77 1.2h-.87c-1.51 0-5.05.32-6.14-.82-.27-.28-.66.12-.43.41 1.49 1.89 4 2.27 6.26 2.66 1.76.3 4.18.93 6 .5a7.93 7.93 0 0 0 3.82-.1 1.34 1.34 0 0 0 .57-.32 8.16 8.16 0 0 0 1-.15c-2.77 2.36-5.29 7.34-3 10.61.13.19.52.23.56-.07.11-.73.24-1.46.42-2.17a3.37 3.37 0 0 0 .9 1.17 2.61 2.61 0 0 0 1.61.69c-.22 1.14-.5 2.26-.77 3.28-.06.23.25.46.43.26a15 15 0 0 0 2.47-3.42 40.78 40.78 0 0 0 1.5-4.23 1.37 1.37 0 0 0 .07-.36 31.51 31.51 0 0 0 2.43 3.83.31.31 0 0 0 .54-.29 15 15 0 0 1-1.2-4.84c.21-1.42.56-2.81.83-4.2 1.85 2.9 4.07 5.65 6 8.08 3.42 4.37 9 8.32 14.56 9.05.43 0 .48-.47.26-.63z" fill="#e05c72"/><path d="M119.8 72.58a.16.16 0 0 0-.3 0c-.15.61-1.05 1-1.76 1.12.07-.18.14-.35.21-.53a1.86 1.86 0 0 0 .24-.66 1.5 1.5 0 0 0-.71-1.52 19.69 19.69 0 0 1 .26-4.72.33.33 0 0 0-.64-.18c-.58 2-1.21 3.91-1.74 5.9a4.92 4.92 0 0 0-.39.94c-.36-.64-.76-1.25-1.11-1.89a8.35 8.35 0 0 1-.72-2.26c-.09-.42-.68-.25-.63.16.11.83.35 1.61.52 2.42a7.07 7.07 0 0 0 .83 2.21.62.62 0 0 0 .14.15 1.29 1.29 0 0 0 .19 2.05c1.42.88 2.92 1.15 4.31 0a3.23 3.23 0 0 0 1.3-3.19z" fill="#ffd6d6"/><path d="M138.85 73.93c-2.37-3.36-5.81-5.87-8.05-9.27-.56-.84-1.1-1.71-1.63-2.58a31.87 31.87 0 0 0 3.83 2.56c.26.15.67-.16.46-.45-.33-.47-.68-.93-1-1.39 3.77 1.81 7.32 2.53 11.46 1.44.25-.07.22-.47-.05-.46a15 15 0 0 1-8.13-1.89 1.63 1.63 0 0 0-1-2l-.31-.12a12.54 12.54 0 0 0 2.87-.47c.4-.12.48-.79 0-.88-.76-.15-1.54-.27-2.33-.39a2.49 2.49 0 0 0 .12-.25 2.55 2.55 0 0 0-.48-2.52 1.87 1.87 0 0 0-.39-.3c1.07-.54 2.27-1.08 2.63-1.26a15.36 15.36 0 0 0 4.29-2.55.35.35 0 0 0-.33-.6c-2.37.73-4.95.95-7.36 1.64a5.29 5.29 0 0 0 1.77-2.34c.06-.23-.22-.51-.44-.35-1.42 1-3.14 1.56-4.6 2.59.71-3.63.44-7.71.25-11a.32.32 0 0 0-.65 0 29.73 29.73 0 0 1-1.3 7 30.87 30.87 0 0 1-1.8 5.53l-.28-.77a29.44 29.44 0 0 1-1.76-5.1c-.07-.45-.72-.32-.75.09a28.05 28.05 0 0 0-.09 3.14 60.81 60.81 0 0 1-1.62-8.15 36.81 36.81 0 0 1 .67-11.24.19.19 0 0 0-.38-.1c-2.46 5.84-4.14 13.62-2.1 20v1.53c-.42-.24-.84-.49-1.25-.77a34.54 34.54 0 0 1-6.65-6.25c-.29-.35-.86.08-.64.47 1.05 1.78 2 3.68 3.15 5.41a24.18 24.18 0 0 1-3.13-3.17c-2.51-3.05-5.07-6.14-6.67-9.78-.09-.19-.4-.07-.34.13 1.81 6.65 5.79 14.1 11.85 17.94l-.46.06c-.32 0-.83.15-1.37.25a.88.88 0 0 0-.36-.26 20.45 20.45 0 0 0-2.93-.9c-1-.21-2.06-.26-3-.53a.31.31 0 0 0-.16.59 12.22 12.22 0 0 1 2 .91 8.64 8.64 0 0 1-4.7 1.56c-.48 0-.5.79 0 .76 1.55-.09 3.16-.32 4.73-.39 1.23 2.09 5.41 1.49 8.25.71a8.9 8.9 0 0 0-2.59 7 .13.13 0 0 0 .26 0c.15-2.45 2-4 3.77-5.52a1.45 1.45 0 0 0 .09.71 28.06 28.06 0 0 0-.22 5.9.33.33 0 0 0 .67 0 10.8 10.8 0 0 1 1.47-5 1.31 1.31 0 0 0 .41-.34 5.35 5.35 0 0 0 .55 1.42c.15.26.63.1.51-.2a5 5 0 0 1 .19-3v-.21c0-.07.08-.2.12-.3a48.83 48.83 0 0 0 4.53 7.12 21.06 21.06 0 0 0 10.18 7.05c.13-.05.37-.29.22-.46z" fill="#bd2f53"/><path d="M131 67c-1-2.06-1.77-4.22-2.89-6.25a2.51 2.51 0 0 0 2-1 2.15 2.15 0 0 0 .52-1.52 13.89 13.89 0 0 1 2.35.06c.29 0 .39-.41.15-.53-.91-.48-1.79-1-2.73-1.44a15 15 0 0 0-2-.67c1.06-1.83 1.44-4.35 1.89-6.16a.34.34 0 0 0-.66-.18 12.62 12.62 0 0 1-1.54 3.2 9.68 9.68 0 0 1-1.45 2 1.59 1.59 0 0 0-.72 0 3.4 3.4 0 0 0-.82.31 1.32 1.32 0 0 0-.46-.15v-.07c0-1-.26-2-.29-2.84a.33.33 0 0 0-.67 0c0 .15 0 .28-.06.43l-.81-1.65a19.72 19.72 0 0 1-1.05-2.51c-.17-.53-.82-2.21-.59-2.72a.29.29 0 0 0-.45-.36c-1.17.9-.77 3.53-.58 4.77a21.72 21.72 0 0 0 1.29 4.55c-3.54-.78-7.48-1.52-9.49-4.52a.32.32 0 0 0-.57.31c1.47 3 4.86 5.58 8.38 6.88a9.81 9.81 0 0 0-1.4.79.28.28 0 0 0-.42.25l-.05.19a.36.36 0 0 0 .21.52 5.92 5.92 0 0 0 2.32-.22l.36-.07a23.19 23.19 0 0 1-1.78 2.36c-.28.29.14.74.44.46a21.57 21.57 0 0 1 3.13-2.22 10.83 10.83 0 0 1-.22 1.24c-.11.42.56.6.64.18a5 5 0 0 1 .33-1c1.44 3.16 5 5.65 7.22 7.86A.29.29 0 0 0 131 67z" fill="#96244a"/><path d="M130.69 57c-.86.15-1.7.31-2.53.49.26-.2.52-.4.77-.62.54-.46 1-1 1.56-1.44.27-.23-.09-.64-.38-.48-.63.36-1.27.7-1.9 1a2.92 2.92 0 0 1 .64-.49c.41-.21 0-.86-.37-.62a11.58 11.58 0 0 1-1.63.51c-.19.08-.37.17-.55.26a.44.44 0 0 0 .19-.21 13.66 13.66 0 0 0 .78-2.56c.07-.28-.37-.49-.49-.2l-.08.16c0-.16-.06-.32-.09-.49s-.46-.23-.54 0a3.43 3.43 0 0 1-.64 1l-.27.34v-.16c0-.58-.18-1.13-.19-1.71a.36.36 0 0 0-.69-.1 4.2 4.2 0 0 0-.55-.8c-.27-.31-.74.16-.45.46a1.23 1.23 0 0 1 .12 1.35c0-.15 0-.31-.08-.47s-.38-.19-.46 0a4.85 4.85 0 0 0-.34 1.51l-.14-.19c-.09-.13-1-2-.64-2.05a.27.27 0 0 0 0-.54c-1.12-.1-1.61 1.1-1.61 2.05a4.22 4.22 0 0 0 1 2.61c-.44.33-.48 1.15.19 1.23a4.33 4.33 0 0 0 1.45 0h.11a1.07 1.07 0 0 0 .74.08 1.12 1.12 0 0 1-.92.43c-.38 0-.37.55 0 .59s.76.14 1.14.18l-.54.08c-.36.06-.3.6 0 .68a5.62 5.62 0 0 1 1.11.32.68.68 0 0 0 .69 0l.15-.12a.26.26 0 0 0 .19 0h.12a.71.71 0 0 0 .8.33 12.92 12.92 0 0 0 2-.65 1.12 1.12 0 0 0 1 .13.63.63 0 0 0 .42-.78c.39-.22.78-.45 1.17-.72a.24.24 0 0 0-.26-.39z" fill="#e3be2b"/><path d="M131.6 56.49a.34.34 0 1 0-.34.35h.1a.25.25 0 0 0 .25-.25z" fill="#ffe26e"/><path d="M127.37 53.18v.29c0 .31.41.37.55.14l.17-.26c.28-.46-.66-.83-.72-.17z" fill="#ffe26e"/><path d="M130.65 55.21a.31.31 0 0 0 0 .61.31.31 0 0 0 0-.61z" fill="#ffe26e"/><path d="M129.77 56.1a.32.32 0 0 0 0 .65.32.32 0 0 0 0-.65z" fill="#ffe26e"/><path d="M128.7 54.56l.08.16a.3.3 0 0 0 .57 0l.07-.17c.48-.78-1.23-.75-.72.01z" fill="#ffe26e"/><path d="M128.25 49.51c-.43-.71-1.14.5-.44.59a1.17 1.17 0 0 0 .45 0 .2.2 0 0 0 .13-.24.88.88 0 0 0-.14-.35z" fill="#ffe26e"/><path d="M124.55 50.4a.35.35 0 0 0 0 .7.35.35 0 0 0 0-.7z" fill="#ffe26e"/><path d="M125.41 52.76l-.16.14c-.24.22 0 .59.31.52l.21-.05c.57-.13.12-1.05-.36-.61z" fill="#ffe26e"/><path d="M130.11 52a.36.36 0 0 0 0 .72.36.36 0 0 0 0-.72z" fill="#ffe26e"/><path d="M122 50.33l-.09.2c-.15.33.32.61.5.28l.11-.19c.19-.34-.36-.62-.52-.29z" fill="#ffe26e"/><path d="M124.69 53.53a1.19 1.19 0 0 0-.49.11l-.34-.18a.32.32 0 0 0-.32.56 1.07 1.07 0 0 1 .17.13 1.16 1.16 0 0 0 1 1.73 1.18 1.18 0 0 0-.02-2.35z" fill="#ffe26e"/><path d="M127.89 57.19a2.24 2.24 0 0 0-.17-.45.58.58 0 0 0-.67-.91 4.22 4.22 0 0 0-.67-.55c-.58-.37-1.11.56-.53.94s1.09.79 1.65 1.15a.2.2 0 1 0 .27.06.22.22 0 0 0 .12-.24z" fill="#ffe26e"/><path d="M125.41 57.46a1.77 1.77 0 0 0-.4-1c-.43-.5-1.22.28-.72.74.11.1.35.28.4.42a.38.38 0 0 0 .72-.16z" fill="#ffe26e"/><path d="M123.39 54.72c-.15-.56-1.05-.13-.63.38l.13.16c.22.27.63 0 .55-.33z" fill="#ffe26e"/><path d="M123.09 53.37c-.13-.66-1-.63-1.28-.15a.28.28 0 0 0 0-.14v-.28c.4-.89-1.14-.86-.87-.1a3.86 3.86 0 0 0 .29.62.3.3 0 0 0 .5 0 1.2 1.2 0 0 0 .27.68.66.66 0 0 0 1.09-.63z" fill="#ffe26e"/><path d="M126.53 57.23a1.85 1.85 0 0 1-.37-.67c-.12-.35-.75-.31-.69.1a3 3 0 0 0 .37 1.11c.31.55 1.16-.03.69-.54z" fill="#ffe26e"/><path d="M127 54.11c-.29.1-.55.25-.84.36s-.3.7.1.65.68 0 1-.09c.65-.09.39-1.12-.26-.92z" fill="#ffe26e"/><path d="M122.66 48.61a2.38 2.38 0 0 1-.26.31c-.33.26 0 .83.34.57a1.11 1.11 0 0 1 .34-.19c.7-.3-.08-1.16-.42-.69z" fill="#ffe26e"/><path d="M126.63 49.7h-.07a.34.34 0 0 0 0 .58h.08c.71.45.69-.96-.01-.58z" fill="#ffe26e"/><path d="M122 53.59a.38.38 0 0 0 0 .53.32.32 0 0 0 .56.14.59.59 0 0 0 .19-.42.44.44 0 0 0-.75-.25z" fill="#695040"/><path d="M123.72 55.29a.83.83 0 0 0 .19.72c.23.29.66-.09.52-.37.4-.41-.58-1.05-.71-.35z" fill="#695040"/><path d="M127.51 57.29a.24.24 0 0 0 0 .48.24.24 0 0 0 0-.48z" fill="#695040"/><path d="M127.87 56.17c-.08-.07-.09-.32-.11-.42-.08-.46-.83-.27-.71.21s.23.36.48.57.58-.15.34-.36z" fill="#695040"/><path d="M126.54 53.85a.79.79 0 0 0-.59.12c-.28.18 0 .63.27.44l.27-.07c.27.02.33-.46.05-.49z" fill="#695040"/><path d="M125.62 56.83a.29.29 0 0 0-.3 0 .38.38 0 1 0 .38 0z" fill="#695040"/><path d="M124.1 53.93v.1c-.13.4.5.56.63.16l.07-.1c.62-.53-.94-1.09-.7-.16z" fill="#695040"/><path d="M132 54.38a.82.82 0 0 0-1-.13c-.32.15-.11.58.17.6a.74.74 0 0 1 .37.09c.46.34.9-.26.46-.56z" fill="#695040"/><path d="M127.88 52.38a2.54 2.54 0 0 1-.16-.26c-.21-.37-.7-.09-.64.28v.2c.1.73 1.16.33.8-.22z" fill="#695040"/><path d="M126.42 49.29a1.75 1.75 0 0 1-.51-.05.32.32 0 1 0 0 .63 1.87 1.87 0 0 1 .51 0 .27.27 0 0 0 0-.58z" fill="#695040"/><path d="M124.43 52.56a2.24 2.24 0 0 1-.12-.39.26.26 0 0 0-.5.14 2.26 2.26 0 0 1 .09.4c.1.35.66.2.53-.15z" fill="#695040"/><path d="M123.56 49.59a.33.33 0 0 0-.64.19c.08.23.16.45.25.68a.29.29 0 0 0 .55-.16c-.05-.24-.1-.47-.16-.71z" fill="#695040"/><path d="M128.47 55.6a.33.33 0 0 0-.4.23.25.25 0 0 0 .09.29c.23.51.99-.38.31-.52z" fill="#695040"/><path d="M129.66 57.49c-.15-.71-1.16.15-.53.42l.12.05a.3.3 0 0 0 .43-.34z" fill="#695040"/><path d="M58.16.93c-4.67-2.17-7.71 2.49-8.5 6.54a29 29 0 0 0 .18 9.22c-.3-.73-.61-1.46-1-2.18-1.64-3.34-5.94-10.22-10.69-8.59-6.52 2.24-3 10.68 1.71 18.31a32.65 32.65 0 0 0-6.33-3.84c-3-1.33-9-3.1-11.13.6-2.27 3.88 1.6 9.09 4.7 11.08a40.16 40.16 0 0 0 12.6 4.79 31.42 31.42 0 0 1-5 .17c-3-.14-6.86-1.8-9.86-1.13-3.6.8-4.73 4.89-2.78 7.81 2.84 4.25 10 3.76 14.16 2.6C41.17 45 45.38 42 49.1 38.62l.43-.14a1.74 1.74 0 0 0 .36-.21.34.34 0 0 0 .52-.05l.27-.38a2 2 0 0 0 2.12-1.37c.3-1 .54-1.92.74-2.88a60.47 60.47 0 0 0 7.6-17.08C62.38 11.86 63.69 3.5 58.16.93z" fill="#e05c72"/><path d="M59 .91a4.58 4.58 0 0 0-4.87-.39c-1.88.83-3.47 3.07-4.28 4.94a13.6 13.6 0 0 0-1.24 5.75 23.23 23.23 0 0 0-1.72-2.41c-1.48-1.8-3.56-3.9-6.07-3.89a4.27 4.27 0 0 0-3.65.9 8.47 8.47 0 0 0-3 5.48 8.78 8.78 0 0 0 1.55 4.5 1.92 1.92 0 0 0 .16.88A48.89 48.89 0 0 0 39 23.18c-3.47-2.72-8.11-5.55-11.55-5.12a4.23 4.23 0 0 0-1 0A4.9 4.9 0 0 0 23 20.1a5.48 5.48 0 0 0-1 3.14c-.56 2.57.83 5.46 2.76 7.3 3.08 2.93 7.14 4 11.21 4.5.31 0 .4-.43.15-.57a40.35 40.35 0 0 1-7.23-5.18 10.59 10.59 0 0 1-2.06-2.38c3.52 3.34 9.26 5.6 13.41 4.66a.17.17 0 0 0 .07-.28 33.31 33.31 0 0 0-4.63-3.13l.43.12a.27.27 0 0 0 .21-.49c-1.45-1-2.5-2.84-3.74-4.31l1.7.61c2.74 1 5.63 1.94 8.28 3.12a.36.36 0 0 0 .48-.47 16.53 16.53 0 0 0 2.44.55c.3.05.43-.39.13-.46-2-.49-3.45-2.65-4.48-5.08a1.85 1.85 0 0 0 1.19-.95 11.33 11.33 0 0 0 4.35 3.85.48.48 0 0 0 .69-.53 20.54 20.54 0 0 0-1.15-3.67.9.9 0 0 0 .23-.56 25.12 25.12 0 0 0-.32-3.66V16c.28.44.56.9.82 1.36A19 19 0 0 1 47.6 20c.76 3.72 1.13 7.39 3 10.79a.25.25 0 0 0 .46-.06 25.31 25.31 0 0 0 1-5.85.2.2 0 0 0 .21-.16 21 21 0 0 0-.27-5.31.21.21 0 0 0 .2-.24c-.14-.63-.29-1.28-.43-1.93s-.1-1.21-.11-1.84a1.86 1.86 0 0 0 3-.87c.28-1.24.66-2.4.9-3.62a1.5 1.5 0 0 0 .21-.13c-.09 1.49-.14 3-.21 4.47 0 .64.16 6.13-.35 6.26a.22.22 0 0 0 .06.44c1.19-.06 1.29-2.41 1.54-3.25.43-1.45.82-2.93 1.19-4.41 0 .9 0 1.82-.06 2.72a7.56 7.56 0 0 1-.35 2.28c-.05.13 0 .22 0 .27l-.09.5a.29.29 0 0 0 .43.33c1.73-.77 2.16-2.82 2.53-4.59C62.2 10.83 63.54 4.22 59 .91z" fill="#ffa3ab"/><path d="M41.33 37.27a46.37 46.37 0 0 1-9.47-.77c-2.6-.63-5.48-2-8.1-.58a3.38 3.38 0 0 0-1.48 1.5 4 4 0 0 0-1.1 1.79 3.68 3.68 0 0 0 .44 3.48 4.87 4.87 0 0 0 2.67 3.58 9.41 9.41 0 0 0 4.55 1.2 7.1 7.1 0 0 0 2.25-.39 5.17 5.17 0 0 0 1-.49c2-.12 2.8-1 4.4-2a.28.28 0 0 0-.21-.51 5.57 5.57 0 0 1-2.7-.17 21.14 21.14 0 0 0 4.35-2.44c.27-.19 0-.62-.26-.45-1.26.73-3.89.39-5.35.46h-1.7a1.79 1.79 0 0 0-.11-.84 6.1 6.1 0 0 1 .6-.11 12.43 12.43 0 0 0 4.6.13c2.09-.35 4.68-1.09 5.91-2.93a.33.33 0 0 0-.29-.46z" fill="#ffa3ab"/><path d="M45.36 6.83c-1.24-1.12-3.28-3.11-5.15-2.4-.06 0-.1.06-.15.09a4.6 4.6 0 0 0-1.7.15 3.58 3.58 0 0 0-2.53 3.22c-.58 1.43.21 3 .91 4.23a.27.27 0 0 0 .49-.21 11.7 11.7 0 0 1-.31-1.52c.43.46.91.89 1.33 1.33.81.85 1.76 1.59 2.54 2.46a.3.3 0 0 0 .5-.29c-.4-1.11-.65-2.23-1.13-3.32a1.63 1.63 0 0 0 .22 0l.37.35c1.06 1 2.57 2 2.8 3.47.07.44.72.25.66-.18a20.71 20.71 0 0 0-1.5-5.49c1.86 1.36 3.43 4.4 4.13 5.85a65 65 0 0 1 3.82 9.89.26.26 0 0 0 .51-.07C51 18.53 50 11 45.36 6.83z" fill="#ffd6d6"/><path d="M36.59 22a51.43 51.43 0 0 0-4.84-2.56c-1.23-.57-2.7-1.62-4-1.8a2.25 2.25 0 0 0-1.41.21 2.5 2.5 0 0 0-2.45.89 3.47 3.47 0 0 0-.5.79c-1.8 1.29-2.22 4-1.78 6.18C22.35 29.42 26 30.58 29 32a.22.22 0 0 0 .22-.38c-1.86-1.4-4.39-4.24-4.83-7a1.54 1.54 0 0 0 .85.14 9.68 9.68 0 0 0 2.51 1.32 11.71 11.71 0 0 0 3.86.47.33.33 0 0 0 .16-.6c-2-1-3.55-2.72-5.45-3.84l.08-.27a1.56 1.56 0 0 0 2.2-.76l1.32.3 2.27.51c1.41.3 2.81.47 4.24.64.32.06.39-.37.16-.53z" fill="#ffd6d6"/><path d="M60.48 1.89A3.21 3.21 0 0 0 57.9 1c-1.33-1.34-2.88-.6-4 .68a3.54 3.54 0 0 0-.79.74c-1.09.21-1.56 1.18-2 2.11-.82 1.85-1.94 4.2-.64 6a.3.3 0 0 0 .55-.15 6.4 6.4 0 0 1 1.21-2.9c.2-.33.41-.65.63-1s.32-.48.49-.72a.58.58 0 0 0 .11-.14 1.74 1.74 0 0 0 1.92-1.02.72.72 0 0 1 .05-.12l.14-.14A13.17 13.17 0 0 0 56 7.68c.16 1.37.16 3 1.11 4.12.25.28.64-.08.49-.38-.31-.65.38-2.1.53-2.77.19-.88.36-1.76.53-2.64a17.52 17.52 0 0 0 .31-2L59 4a6.39 6.39 0 0 1 1.65 2.75c.09.25.5.23.49-.07-.04-1.61.71-3.45-.66-4.79z" fill="#ffd6d6"/><path d="M38.26 38.28c-3.88-.09-9.68-6-13.46-2.62-.27.24-.43.59-.69.84l-.07.07a3.5 3.5 0 0 0-1.66 1.12c-1 1.41-.59 3.08.12 4.52a.8.8 0 0 0 1.44-.21c.26-1.73 1-1.64 2.2-2.53 1.4-1.05 1.75-1.33 3.79-.94 3 .57 5.42 1.28 8.42.39a.34.34 0 0 0-.09-.64z" fill="#ffd6d6"/><path d="M50 31a1.82 1.82 0 0 0 .32-.93c.36-5.5-2.29-12-5.72-16.23a.27.27 0 0 0-.46.19 50 50 0 0 0 .94 7.81c.07.37.13.75.2 1.12-.34-.4-.67-.81-1-1.21-2-2.47-4-4.81-6.13-7.09-.17-.18-.55-.05-.52.22a19.53 19.53 0 0 0 3.06 8.37 30.35 30.35 0 0 0 4.8 6.22 25.74 25.74 0 0 1-5.87-1.81c-2.83-1.38-5.07-3.64-7.82-5a.28.28 0 0 0-.41.31c.51 3 2.81 5.67 5.75 7.66-3.23-.79-8.55-1.9-10.76-4.6-.09-.11-.28 0-.2.16 3.3 5.38 10.57 8.83 17.17 9.26a24.9 24.9 0 0 1-4.72 3.1 29.22 29.22 0 0 1-10.29 2.1.3.3 0 0 0-.08.58 17.16 17.16 0 0 0 9.22.91c-2.55 1.3-5.16 2.51-8 2.23-.36 0-.39.5-.08.6 4.8 1.64 9.28.17 13.45-2.49a1.41 1.41 0 0 0 .1-2.21 26.22 26.22 0 0 0 6.81-5.15 1.57 1.57 0 0 0 .24-1.8A1.8 1.8 0 0 0 50 31z" fill="#e05c72"/><path d="M54.58 8.53a.27.27 0 0 0-.49.06 26.62 26.62 0 0 0-1 8.07 17.92 17.92 0 0 0-1.76-3.26c-.17-.25-.69-.2-.64.17a55.89 55.89 0 0 1 .72 7.75 30.26 30.26 0 0 0 0 5.79c-.28 1-.56 2.08-.81 3.18a1.89 1.89 0 0 0 3.44 1.45c4.03-6.01 4.14-16.94.54-23.21z" fill="#e05c72"/><path d="M56.86 21.43a.21.21 0 0 0-.37 0c-1.82 3.27-2.54 6.87-4.58 9.81-.19-4.24-3.49-8.24-5.36-11.72-.16-.3-.69-.17-.66.18.26 2.56.86 5 1.28 7.38a20.77 20.77 0 0 0-3.7-4 .31.31 0 0 0-.46.26 15.27 15.27 0 0 0 1.25 4.07 1.6 1.6 0 0 0-.32 1.09 13.27 13.27 0 0 0 .33 2.28c-.63-.35-1.25-.73-1.85-1.08a33.32 33.32 0 0 1-4.27-2.43c-.32-.26-.78.19-.46.46 1.31 1.05 2.31 2.7 3.57 3.89.9.85 1.88 1.58 2.85 2.33l-.72-.14c-1.27-.29-3-.34-4.07-1.15-.3-.23-.59.24-.38.49a10.75 10.75 0 0 0 3.32 2.61 14.28 14.28 0 0 0 3.26 1.44c-.13.15-.24.3-.38.43A26 26 0 0 1 42 40c-1.91 1.33-4 2.49-5.79 3.93-.19.15 0 .48.2.47 3.53-.05 11.28-2.2 13-6.23a3.77 3.77 0 0 0 2.58-1 2.27 2.27 0 0 0 .64-1c4.89-1.75 5.37-10.65 4.23-14.74z" fill="#bd2f53"/><path d="M53.83 31.12c.12-.31-.41-.54-.54-.23a5.82 5.82 0 0 1-1 1.44A21 21 0 0 0 48 22a.21.21 0 0 0-.37.22 18.8 18.8 0 0 1 1.78 9.82 1.64 1.64 0 0 0-.93.67 2.13 2.13 0 0 0-.34 1.47c-.67-.4-1.47-.56-2.11-1-.28-.18-.54.27-.26.45a8.85 8.85 0 0 1 1.52 1.69c.38.43.74.88 1.14 1.3l-.72.55a11 11 0 0 1-1.53 1.1 11.91 11.91 0 0 1-2.22.68.27.27 0 0 0 .07.53 11.26 11.26 0 0 0 7.32-1.79 1.13 1.13 0 0 0 .51-1.11A11.41 11.41 0 0 0 53 34.31c.43-1.04.43-2.17.83-3.19z" fill="#96244a"/><path d="M53.32 36.42a8.6 8.6 0 0 0-3.13-4.77 22.41 22.41 0 0 0-4.51-4.49c-4-3.11-7.54-5.82-10.05-10.33-.14-.25-.57-.08-.47.2a21.5 21.5 0 0 0 5.39 9.15c.58.55 1.18 1.06 1.78 1.56 2.08 2.56 4.2 5.08 6.25 7.66a.69.69 0 0 0 .26.21c.28.37.56.73.86 1.07a22.8 22.8 0 0 1-4.39.78 66 66 0 0 1-13.21-3.31c-.26-.09-.39.29-.18.42 2.95 1.91 5.25 4 8.68 5.05a22.76 22.76 0 0 0 3.42.79 10.19 10.19 0 0 0 8.08-1.09 1.5 1.5 0 0 0 .76-1.45 1.46 1.46 0 0 0 .46-1.45z" fill="#85a352"/><path d="M55.85 33.66c-.67 1.29-2.69 1.58-3.94 2h-.06A12.74 12.74 0 0 1 50 34.5c-1.09-1.3-2.13-2.63-3.31-3.85-1.64-1.7-3.41-3.26-5.15-4.87a.19.19 0 0 0-.26.26A60.72 60.72 0 0 1 46 32.62a19.51 19.51 0 0 0 2.86 3.77 5.67 5.67 0 0 0 1 1c-2.14 1.51-5.44 1.5-8 1.45l-.53-.06c-1.55-.24-3.55-.35-4.83-1.3-.12-.09-.26.1-.16.2a12.53 12.53 0 0 0 7.82 3.11 9.78 9.78 0 0 0 3.25.15c.48-.05 1-.12 1.43-.22a5.87 5.87 0 0 0-.47.65.38.38 0 0 0 .34.57h.18a3.83 3.83 0 0 0 2.44-1.83 6.52 6.52 0 0 0 1.47 2.51c.35.36 1 0 .87-.5-.31-.87-.65-1.7-.92-2.58-.13-.43-.3-.85-.46-1.28a1.06 1.06 0 0 0 .09-.43 1.19 1.19 0 0 0 .27-.3 3.9 3.9 0 0 0 2.26-1.07 8.47 8.47 0 0 0 1.4-2.48c.1-.36-.31-.6-.46-.32z" fill="#506924"/></g></g></svg>