<svg xmlns="http://www.w3.org/2000/svg" viewBox="-0.0009484291076660156 0 72.04094696044922 78.54887390136719"><title>Depositphotos_89255908_08</title><g data-name="Layer 2" style="isolation:isolate"><rect x="21.04" width="51" height="76.25" rx="3.75" ry="3.75" fill="#0a1d23"/><path fill="#6cd5da" d="M24.41 6.13h44.25v64H24.41z"/><path fill="#ffcf40" d="M24.41 9.78h44.25v53.5H24.41z"/><path fill="#088b91" d="M24.41 60.3h44.25v2.98H24.41z"/><path fill="#088b91" d="M24.41 9.78h44.25v2.98H24.41z"/><path fill="#fff" d="M35.06 65.6h2.21v2.21h-2.21z"/><path fill="#fff" d="M55.81 65.6h2.21v2.21h-2.21z"/><path fill="#fff" d="M64.08 7.23h2.21v1.1h-2.21z"/><path fill="#0ab9c1" d="M60.77 7.23h2.21v1.1h-2.21z"/><path fill="#b3211b" d="M57.53 7.23h2.21v1.1h-2.21z"/><path fill="#fff" d="M54.22 7.23h2.21v1.1h-2.21z"/><path fill="#003948" d="M43.49 2.51h6.1v1.1h-6.1z"/><circle cx="46.54" cy="72.96" r="1.1" fill="#003948"/><path d="M25.11 33.37a2.66 2.66 0 0 0-.46-.21.73.73 0 0 0-.56-.14 2.74 2.74 0 0 0-2.72 1.33l-10 18.9s-1.56 2.63-1.92 3.52C9 58 5.12 66.11 5.14 66.41c.42 5 4.12 6 9 6.56.4 0 2.49-2.59 3.28-3a17.29 17.29 0 0 1 3.58-.26v-24l5-8.58a2.74 2.74 0 0 0-.89-3.76z" fill="#ffcab3"/><path fill="#0ab9c1" d="M1.227 62.272l5.885-5.492 13.952 14.95-5.885 5.492z"/><path d="M0 69.08a8.9 8.9 0 0 0 14.23 7.13L2.16 63.28A8.86 8.86 0 0 0 0 69.08z" fill="#088b91"/><path d="M65.61 39.29l1.22-3.63a.75.75 0 1 0-1.42-.48l-1.35 4v-3.41a.75.75 0 0 0-1.5 0v4.72c0 .06-.07.12-.09.19L61 44.59c-.47 1.25 4.08 3 4.55 1.7L67 42.38a2.42 2.42 0 0 0-1.39-3.09z" fill="#f9b59d"/><path fill="#0a1d23" d="M33.93 29.3h23.96v17.23H33.93z"/><path d="M63.69 52a8.34 8.34 0 0 0-.38-2.5 10.82 10.82 0 0 1 .37 2.7c.01-.11.01-.2.01-.2z" fill="#0e8092"/><path d="M63.31 49.46a8.07 8.07 0 0 0-8-6.06h-4.88V46l-3.27 7.51-1.26 2.9L41.36 46l-3.72 3.72 7.48 7.48.58 3.07h9.65a8.33 8.33 0 0 0 8.33-8.14 10.82 10.82 0 0 0-.37-2.67z" fill="#088b91"/><path fill="#fff" d="M49.48 48.36l-3.57-3.57v11.65l3.57-8.08z"/><path fill="#e0e0e0" d="M42.31 48.4l3.6 8.04V44.79l-3.6 3.61z"/><path d="M43.89 43.4l-2.52-2.53v2.53a8 8 0 0 0 3.85 1.37z" fill="#ffcab3"/><path d="M41.36 39.21v1.66l2.52 2.53 1.37 1.37h1.08a8 8 0 0 0 4.08-1.37v-4.19z" fill="#f9b59d"/><path d="M50.16 26.68c-1.75 0-3.84 1.54-4.89 2.78l.64 13.2c4.64 0 8.46-5.76 9-10.6a10.23 10.23 0 0 0 .09-1.14v-2c-.5-1.25-3.51-2.24-4.84-2.24z" fill="#f9b59d"/><path d="M53.09 22.15a25.34 25.34 0 0 1-14.49 4.53c-.62 0-1.24 0-1.85-.08a9 9 0 0 0-.07 1.11v3.2a10.24 10.24 0 0 0 .07 1.15c.54 4.86 4.4 10.6 9.08 10.6h.08v-6a1 1 0 0 0 1-1.08v-5.9c0-1.09 2.06-2.42 3.85-2.42A5.3 5.3 0 0 1 55 28.93v-1.21a9.1 9.1 0 0 0-1.91-5.57z" fill="#ffcab3"/><path d="M55.73 20A12 12 0 0 0 34 26.25v3.05a2.77 2.77 0 0 0 2.76 2.77h.06a10.24 10.24 0 0 1-.07-1.15v-3.2a9 9 0 0 1 .07-1.11c.61 0 1.23.08 1.85.08a25.32 25.32 0 0 0 14.49-4.53A9.1 9.1 0 0 1 55 27.72v3.2a10.23 10.23 0 0 1-.07 1.15h.22a2.77 2.77 0 0 0 2.75-2.77v-2.4a11.94 11.94 0 0 0-2.17-6.9z" fill="#0a1d23"/><path d="M41.4 43.4V46l.95 2.36 3.6-3.6a8 8 0 0 1-4.55-1.36z" fill="#fff"/><path d="M50.45 46v-2.6a8 8 0 0 1-4.51 1.4l3.57 3.57z" fill="#e0e0e0"/><path d="M52.24 32.06a1.7 1.7 0 0 0-3.4 0 .38.38 0 0 0 .76 0 .94.94 0 0 1 1.88 0 .38.38 0 1 0 .76 0z" fill="#0a1d23"/><circle cx="41.36" cy="31.78" r="1.25" fill="#0a1d23"/><circle cx="44.87" cy="38.48" r="1.04" fill="#b3211b"/><circle cx="46.95" cy="38.48" r="1.04" fill="#b3211b"/><path d="M45.91 40.56A2.08 2.08 0 0 0 48 38.48h-4.17a2.08 2.08 0 0 0 2.08 2.08z" fill="#861914"/><path d="M60.9 60.78a3.3 3.3 0 1 1-6.19-2.31l6-15.65 6.19 2.31z" fill="#0ab9c1"/><path fill="#088b91" d="M59.444 44.75l.972-2.753 7.054 2.49-.972 2.753z"/><path d="M46.54 61.75a8.38 8.38 0 0 0-8.37 8.38h16.74a8.38 8.38 0 0 0-8.37-8.38z" fill="#fff"/><path d="M42.68 65.62v2.18a.85.85 0 0 0 .85.85h6a.85.85 0 0 0 .85-.85v-2.18a.85.85 0 0 0-.85-.85h-6a.85.85 0 0 0-.85.85zm3.86 2.73a1.64 1.64 0 1 1 1.64-1.64 1.64 1.64 0 0 1-1.64 1.64z" fill="#0ab9c1"/><circle cx="46.54" cy="66.71" r="1.03" fill="#003948"/><path d="M46.54 65.07a1.64 1.64 0 1 0 1.64 1.64 1.64 1.64 0 0 0-1.64-1.64zm0 2.67a1 1 0 1 1 1-1 1 1 0 0 1-1 1z" fill="#fff"/><path fill="#088b91" d="M41.36 43.4h-2.63l2.63 2.63V43.4z"/><path d="M37.64 49.75L41.36 46l-2.63-2.6h-2.27c-4.41 0-6.16 4.08-8.33 8.76-.93 2-3.72 8.14-3.72 8.14h23.91z" fill="#0ab9c1"/><path style="mix-blend-mode:overlay" fill="#e0e0e0" opacity=".5" d="M24.41 70.13h44.25l-44.25-64v64z"/></g></svg>