<svg xmlns="http://www.w3.org/2000/svg" viewBox="-0.0000019073486328125 -4.76837158203125e-7 62.86000061035156 67"><title>Depositphotos_87521474_9_ic</title><g data-name="Layer 2"><g data-name="Ñëîé 2" fill="#fff"><path d="M31.43 25.43a2.86 2.86 0 0 0-2.86 2.86V52a2.86 2.86 0 1 0 5.71 0V28.29a2.86 2.86 0 0 0-2.85-2.86z"/><path d="M27.29 17.29h8.29L31.36 9l-4.07 8.29z"/><path d="M52 0H10.86A10.86 10.86 0 0 0 0 10.86V52a10.86 10.86 0 0 0 10.86 10.86H52A10.86 10.86 0 0 0 62.86 52V10.86A10.86 10.86 0 0 0 52 0zm.75 17.68a1.37 1.37 0 1 1-.5 1.88 1.37 1.37 0 0 1 .5-1.88zm-9.62-9a1.37 1.37 0 1 1 .5 1.88 1.37 1.37 0 0 1-.5-1.85zM31.55 3a2.23 2.23 0 1 1-2.23 2.23A2.23 2.23 0 0 1 31.55 3zm-13.3 4.73a1.37 1.37 0 1 1-.5 1.88 1.37 1.37 0 0 1 .5-1.88zm-10 9.62a1.37 1.37 0 1 1 .5 1.88 1.37 1.37 0 0 1-.48-1.88zM5.82 32a1.37 1.37 0 1 1 1.37-1.37A1.37 1.37 0 0 1 5.82 32zm3.84 12.61a1.37 1.37 0 1 1 .5-1.88 1.37 1.37 0 0 1-.5 1.88zm9.62 9a1.37 1.37 0 1 1-.5-1.88 1.37 1.37 0 0 1 .5 1.85zM31.53 58a1.37 1.37 0 1 1 1.37-1.37A1.37 1.37 0 0 1 31.53 58zm22.11-14.93a1.37 1.37 0 0 1-1.37 2.38 1.36 1.36 0 0 1-.56-1.72 23.83 23.83 0 0 1-8.65 8.37 1.36 1.36 0 0 1 1.62.59 1.37 1.37 0 0 1-2.38 1.37 1.36 1.36 0 0 1 .33-1.72 23.73 23.73 0 1 1 9.26-8.9 1.36 1.36 0 0 1 1.75-.37zM56.6 33a1.37 1.37 0 1 1 1.4-1.37A1.37 1.37 0 0 1 56.6 33z"/><path d="M12.39 63.72H9.1V66a1 1 0 0 0 1 1h1.37a1 1 0 0 0 1-1v-.61h37.78V66a1 1 0 0 0 1 1h1.37a1 1 0 0 0 1-1v-2.28H12.39z"/></g></g></svg>