<svg xmlns="http://www.w3.org/2000/svg" viewBox="0 0 85.87999725341797 161.86000061035156"><title>Depositphotos_73224967_17</title><g data-name="Layer 2"><g data-name="Layer 1"><g data-name="Layer 2"><path d="M35.63 55a18.41 18.41 0 0 0 14.61 0l20.29 22.5h6.07L54.2 52.64a18.4 18.4 0 0 0 7.16-14.57v-2.25H48.08v2.25a5.14 5.14 0 0 1-2.86 4.61l-.58-.68-.09-.09-.08-.08-.09-.08-.09-.07-.09-.06h-.07l-.13-.07-.21-.09h-1.57l-.17.07h-.36a2.2 2.2 0 0 0-.34.3l-.59.66A5.14 5.14 0 0 1 43 32.75h6.64V18.59h4.65V0H31.65v18.59h4.65v2.3a18.41 18.41 0 0 0-4.62 31.75L9.28 77.48h6.06zm6.58-7.3h1.45a9.65 9.65 0 0 0 8.65-7.36h4.36a13.92 13.92 0 0 1-17.8 11.06zm-6.06-33.61V4.5h13.58v9.59zM29 38.07a14 14 0 0 1 10.14-13.4l1.64-.46v-5.62h4.28v9.84h-2.12a9.63 9.63 0 0 0-5.35 17.65l-2.89 3.2A13.91 13.91 0 0 1 29 38.07z" fill="#fff"/><path d="M70.54 77.48h-5.22v5H20.56v-5H0V98h5v43.3H0v20.56h20.56v-5h44.76v5h20.56V141.3h-5V98h5V77.48zm10.84 16.06h-5v52.26h5v11.56H69.82v-5H16.06v5H4.5V145.8h5V93.54h-5V82h11.56v5h53.76v-5h11.56z" fill="#f48729"/><path d="M14.4 91.87v55.59h57.08V91.87zm56 54.54h-27V92.92h27zm-55-53.49h27v53.49h-27z" fill="#f48729"/><path d="M37.3 98.21H20.44v7.38H37.3zm-1 6.33H21.49v-5.28h14.76z" fill="#f48729"/><path d="M37.3 116H20.44v7.38H37.3zm-1 6.33H21.49V117h14.76z" fill="#f48729"/><path d="M37.3 133.75H20.44v7.38H37.3zm-1 6.33H21.49v-5.28h14.76z" fill="#f48729"/><path d="M48.37 105.58h16.87v-7.37H48.37zm1-6.33h14.82v5.28H49.42z" fill="#f48729"/><path d="M48.37 123.36h16.87V116H48.37zm1-6.33h14.82v5.28H49.42z" fill="#f48729"/><path d="M48.37 141.13h16.87v-7.37H48.37zm1-6.33h14.82v5.28H49.42z" fill="#f48729"/><path d="M12.17 84.73a3.58 3.58 0 1 0 1.64 3 3.56 3.56 0 0 0-1.64-3zm-1.89 5.54a2.52 2.52 0 1 1 2.52-2.52 2.5 2.5 0 0 1-2.47 2.53h-.05z" fill="#f48729"/><path d="M75.6 91.33a3.57 3.57 0 1 0-3-1.67 3.57 3.57 0 0 0 3 1.67zm-2-5.09a2.52 2.52 0 1 1-.52 1.52 2.52 2.52 0 0 1 .52-1.52z" fill="#f48729"/><path d="M77.13 148.35a3.53 3.53 0 0 0-1.53-.35 3.51 3.51 0 1 0 1.57.34zm-3.53 4.75a2.52 2.52 0 1 1 2 1 2.52 2.52 0 0 1-2-1z" fill="#f48729"/><path d="M10.28 148a3.54 3.54 0 0 0-1.52.34 3.59 3.59 0 1 0 1.52-.34zm2 5.09a2.52 2.52 0 1 1 .52-1.52 2.52 2.52 0 0 1-.52 1.52z" fill="#f48729"/></g></g></g></svg>