<svg xmlns="http://www.w3.org/2000/svg" viewBox="0 0 247.60000610351562 247.52999877929688"><title>Depositphotos_64679727_03</title><g data-name="Layer 2"><g data-name="Layer 1"><path d="M236.69 123.8l10.91-9.74-12.3-7.92 9.25-11.33-13.38-5.9 7.36-12.64-14.14-3.73 5.29-13.63-14.55-1.47 3.09-14.29-14.6.83.82-14.6-14.29 3.1-1.47-14.55L175 23.22l-3.68-14.15-12.63 7.36L152.79 3l-11.33 9.3L133.55 0l-9.75 10.91L114.05 0l-7.92 12.3L94.81 3l-5.9 13.38-12.63-7.31-3.73 14.14-13.64-5.29-1.47 14.55-14.29-3.1L44 44l-14.6-.83 3.09 14.29-14.57 1.45 5.29 13.63-14.14 3.74 7.36 12.64L3 94.81l9.25 11.33L0 114.05l10.91 9.74L0 133.54l12.3 7.92L3 152.79l13.38 5.89-7.31 12.64L23.21 175l-5.29 13.63 14.55 1.47-3.09 14.29 14.6-.82-.82 14.6 14.29-3.1 1.47 14.55 13.63-5.29 3.73 14.14 12.63-7.36 5.9 13.38 11.33-9.25 7.92 12.29 9.75-10.91 9.75 10.91 7.92-12.29 11.33 9.25 5.9-13.38 12.63 7.36 3.73-14.14 13.63 5.29 1.47-14.55 14.29 3.1-.82-14.6 14.6.82-3.09-14.29 14.55-1.47-5.31-13.63 14.14-3.73-7.36-12.64 13.38-5.89-9.25-11.33 12.3-7.92zM123.8 219.1a95.31 95.31 0 1 1 95.31-95.31 95.31 95.31 0 0 1-95.31 95.31z" fill="#fdc48e"/><path d="M123.8 36.1a87.69 87.69 0 1 0 87.69 87.7 87.69 87.69 0 0 0-87.69-87.7zm0 165.9a78.2 78.2 0 1 1 78.2-78.2 78.29 78.29 0 0 1-78.2 78.2z" fill="#f48729"/><path fill="#f48729" d="M69.15 110.55h57.46v26.53H69.15z"/><path fill="#f48729" d="M126.61 110.55h55.04v26.53h-55.04z"/><path d="M178.58 90.4a116.12 116.12 0 0 0-106.35 0z" fill="#b6e1e1"/><path fill="#b6e1e1" d="M69.15 90.59h112.51v19.96H69.15z"/><path fill="#b6e1e1" d="M69.15 137.08h112.51v25.84H69.15z"/><path fill="#fff" d="M70.68 85.57h1.77v5.02h-1.77z"/><path fill="#fff" d="M81.69 85.57h1.77v5.02h-1.77z"/><path fill="#fff" d="M92.71 85.57h1.77v5.02h-1.77z"/><path fill="#fff" d="M103.72 85.57h1.77v5.02h-1.77z"/><path fill="#fff" d="M114.73 85.57h1.77v5.02h-1.77z"/><path fill="#fff" d="M125.75 85.57h1.77v5.02h-1.77z"/><path fill="#fff" d="M136.76 85.57h1.77v5.02h-1.77z"/><path fill="#fff" d="M147.77 85.57h1.77v5.02h-1.77z"/><path fill="#fff" d="M158.79 85.57h1.77v5.02h-1.77z"/><path fill="#fff" d="M169.8 85.57h1.77v5.02h-1.77z"/><path d="M182.11 91.48H61.93v-6.94h120.18zM63.7 89.71h116.64v-3.4H63.7z" fill="#fff"/><path d="M162.15 78.3h-7.62a6 6 0 0 0-6 6v.21h3.09v-.21a2.94 2.94 0 0 1 2.93-2.93h7.62a2.94 2.94 0 0 1 2.93 2.93v82.3h3.09V84.33a6 6 0 0 0-6-6z" fill="#fff"/><path fill="#fff" d="M69.49 96.15h8.12v1.77h-8.12z"/><path fill="#fff" d="M75.22 101.88h8.12v1.77h-8.12z"/><path fill="#fff" d="M80.95 107.6h8.12v1.77h-8.12z"/><path fill="#fff" d="M86.68 113.33h8.12v1.77h-8.12z"/><path fill="#fff" d="M92.41 119.06h8.12v1.77h-8.12z"/><path fill="#fff" d="M98.13 124.79h8.12v1.77h-8.12z"/><path fill="#fff" d="M103.86 130.52h8.12v1.77h-8.12z"/><path fill="#fff" d="M109.59 136.24h8.12v1.77h-8.12z"/><path fill="#fff" d="M115.32 141.97h8.12v1.77h-8.12z"/><path fill="#fff" d="M121.05 147.7h8.12v1.77h-8.12z"/><path fill="#fff" d="M126.78 153.43h8.12v1.77h-8.12z"/><path fill="#fff" d="M132.5 159.16h8.12v1.77h-8.12z"/><path fill="#fff" d="M62.495 91.304l1.252-1.252 76.099 76.099-1.252 1.251z"/><path fill="#fff" d="M70.514 91.214l1.251-1.252 76.184 76.184-1.252 1.251z"/><path fill="#fff" d="M66.87 162.92h117.07v6.68H66.87z"/></g></g></svg>