<svg xmlns="http://www.w3.org/2000/svg" viewBox="0 0 73.5999984741211 64.4000015258789"><title>Depositphotos_74009101_05</title><path fill="#036d9e" d="M0 28.6L31.9 10l24.3 14-31.8 21z"/><path fill="#002f4a" d="M40.6 56.9l33-16.1v5.1L41.7 64.4z"/><path fill="#02567d" d="M24.3 42.6L56.2 24l17.4 16.8-33.2 19.4z"/><path fill="#134663" d="M24.3 42.6l17.5 16.8-.1 5L0 40.3V28.6z"/><path fill="#0c2a44" d="M24.1 39.7l30.2-16.8v1.4L24.1 41.8z"/><path fill="#0e2f4c" d="M1.5 27.2L31.7 9.6l22.6 13.3-30.8 17.9z"/><path fill="#091e2f" d="M24.1 40.4v1.4L1.5 28.6v-1.4z"/><path fill="#fff" d="M47.2 41.6l-3.7 2.1 3.5 3.4 3.7-2.2z"/><path fill="#fff" d="M42.3 49.8l3.8-2.2-3.5-3.4-3.8 2.2z"/><path fill="#fff" d="M50.8 52.1l-4-3.8-3.8 2.2 4 3.8z"/><path fill="#fff" d="M42.1 51l-3.9 2.3 3.9 3.8 4-2.3z"/><path fill="#fff" d="M37.9 47l-4 2.3 3.5 3.3 4-2.3z"/><path fill="#fff" d="M51.5 45.6l-3.8 2.2 4 3.8 3.7-2.2z"/><path fill="#fbab20" d="M57 35.9l-2.3 1.4 2.2 2.1 2.3-1.4z"/><path fill="#fbab20" d="M53.9 41.1l2.4-1.4-2.2-2.1-2.4 1.4z"/><path fill="#fbab20" d="M59.3 42.5l-2.5-2.4-2.4 1.4 2.5 2.4z"/><path fill="#fbab20" d="M53.8 41.9l-2.5 1.4 2.5 2.4 2.5-1.5z"/><path fill="#fbab20" d="M51.2 39.3l-2.5 1.5 2.1 2.1 2.5-1.5z"/><path fill="#e54332" d="M59.7 38.5l-2.4 1.3 2.5 2.4 2.4-1.4z"/><path fill="#fbab20" d="M62.1 45.4L59.6 43l-2.4 1.4 2.5 2.4z"/><path fill="#fbab20" d="M56.7 44.7l-2.6 1.4 2.5 2.4 2.5-1.4z"/><path fill="#19a603" d="M62.5 41.3l-2.3 1.4 2.5 2.3 2.3-1.3z"/><path fill="#e54332" d="M62.7 35.9l2.4-1.4-2.2-2.1-2.4 1.4z"/><path fill="#e54332" d="M68.1 37.4L65.6 35l-2.4 1.4 2.5 2.4z"/><path fill="#e54332" d="M62.6 36.7l-2.5 1.5 2.5 2.4 2.5-1.5z"/><path fill="#e54332" d="M60 34.2l-2.5 1.4 2.2 2.1 2.5-1.4z"/><path fill="#19a603" d="M70.9 40.2l-2.5-2.4-2.4 1.4 2.5 2.4z"/><path fill="#19a603" d="M65.5 39.6L63 41l2.4 2.4 2.5-1.5z"/><path fill="#ade9f4" d="M28.2 44.7l9.3-5.4 3.4 3.3-9.2 5.4z"/><path d="M33 43.2l1 1.5c.2.3.1.7-.2.9l-.6.4c-.3.2-.7.2-.9-.1v-.1l-1-1.6c-.2-.3-.1-.7.2-.9l.6-.4c.3 0 .7 0 .9.3zm-.5 2.5l-.2-2.4h-.1l-.6.4c-.1.1-.2.3-.1.4l1 1.6zm.2-2.2l.2 2.4h.1l.6-.4c.1-.1.2-.3.1-.4l-1-1.6z" fill="#0e2f4c"/><path d="M35.2 42l1 1.5c.2.3.1.7-.2.9l-.6.4c-.3.2-.7.2-.9-.1v-.1l-1-1.6c-.2-.3-.1-.7.2-.9l.6-.4c.3-.1.7 0 .9.3zm-.4 2.4l-.2-2.4h-.1l-.6.4c-.1.1-.2.3-.1.4l1 1.6zm.1-2.2l.2 2.4h.1l.6-.4c.1-.1.2-.3.1-.4l-1-1.6z" fill="#0e2f4c"/><path d="M37.5 40.7l1 1.5c.2.3.1.7-.2.9l-.6.4c-.3.2-.7.2-.9-.1v-.1l-1-1.6c-.2-.3-.1-.7.2-.9l.6-.4c.2-.1.6 0 .9.3 0-.1 0 0 0 0zm-.5 2.4l-.2-2.4h-.1l-.6.4c-.1.1-.1.3-.1.5l1 1.5zm.2-2.2l.2 2.4h.1l.6-.4c.1-.1.2-.3.1-.4l-1-1.6z" fill="#0e2f4c"/><path fill="#ade9f4" d="M38.4 38.8l9.3-5.4 3.4 3.3-9.3 5.4z"/><path d="M43.2 37.4l1 1.5c.2.3.1.7-.2.9l-.6.4c-.3.2-.7.2-.9-.1V40l-1-1.6c-.2-.3-.1-.7.2-.9l.6-.4c.3-.1.7-.1.9.3 0-.1 0 0 0 0zm-.5 2.4l-.2-2.4h-.1l-.6.4c-.1.1-.2.3-.1.4l1 1.6zm.2-2.2l.2 2.4h.1l.6-.4c.1-.1.2-.3.1-.4l-1-1.6z" fill="#0e2f4c"/><path d="M45.4 36.1l1 1.5c.2.3.1.7-.2.9l-.6.5c-.3.2-.7.2-.9-.1v-.1l-1-1.6c-.2-.3-.1-.7.2-.9l.6-.3c.3-.2.6-.2.9.1zm-.5 2.5l-.2-2.4h-.1l-.6.4c-.1.1-.2.3-.1.4l1 1.6zm.2-2.3l.2 2.4h.1l.6-.4c.1-.1.2-.3.1-.4l-1-1.6z" fill="#0e2f4c"/><path d="M47.7 34.8l1 1.5c.2.3.1.7-.2.9l-.6.4c-.3.2-.7.2-.9-.1v-.1l-1-1.6c-.2-.3-.1-.7.2-.9l.6-.4c.2-.1.6 0 .9.3zm-.5 2.5l-.2-2.4h-.1l-.6.4c-.1.1-.2.3-.1.4l1 1.6zm.2-2.3l.2 2.4h.1l.6-.4c.1-.1.2-.3.1-.4l-1-1.6z" fill="#0e2f4c"/><path fill="#ade9f4" d="M48.8 32.9l9.3-5.4 3.4 3.3-9.3 5.4z"/><path d="M53.6 31.4l1 1.5c.2.3.1.7-.2.9l-.6.4c-.3.2-.7.2-.9-.1V34l-1-1.6c-.2-.3-.1-.7.2-.9l.6-.4c.3 0 .7 0 .9.3zm-.5 2.5l-.1-2.4h-.1l-.6.4c-.1.1-.2.3-.1.4l.9 1.6zm.2-2.2l.2 2.4h.1l.6-.4c.1-.1.2-.3.1-.4l-1-1.6z" fill="#0e2f4c"/><path d="M55.8 30.2l1 1.5c.2.3.1.7-.2.9l-.6.4c-.3.2-.7.2-.9-.1v-.1l-1-1.6c-.2-.3-.1-.7.2-.9l.6-.4c.3-.1.7-.1.9.3 0-.1 0 0 0 0zm-.5 2.4l-.2-2.4H55l-.6.4c-.1.1-.2.3-.1.4l1 1.6zm.2-2.2l.2 2.4h.1l.6-.4c.1-.1.2-.3.1-.4l-1-1.6z" fill="#0e2f4c"/><path d="M58.1 28.9l1 1.5c.2.3.1.7-.2.9l-.6.4c-.3.2-.7.2-.9-.1v-.1l-1-1.6c-.2-.3-.1-.7.2-.9l.6-.4c.2-.1.6 0 .9.3 0-.1 0 0 0 0zm-.5 2.4l-.2-2.3h-.1l-.6.4c-.1.1-.2.3-.1.4l1 1.5zm.2-2.2l.2 2.4.6-.4c.1-.1.2-.3.1-.4l-.9-1.6z" fill="#0e2f4c"/><path d="M43.5 24.2c-.8 1.8-2.2 3.3-3.9 4.1-5.7 3.3-14.9 3.3-20.5 0-1.7-.9-3.1-2.4-3.9-4.1h-.4v.4c0 2.2 1.4 4.3 4.3 6 5.7 3.3 14.9 3.3 20.5 0 2.8-1.6 4.2-3.8 4.2-5.9v-.5h-.3z" fill="#63cde0"/><path d="M39.5 17.9c5.7 3.3 5.7 8.6.1 11.9s-14.9 3.3-20.5 0-5.7-8.6-.1-11.9 14.9-3.3 20.5 0z" fill="#ade9f4"/><path d="M24.4 20.7v.7c0 1.4 2.1 2.6 4.8 2.6s4.8-1.1 4.8-2.6v-.7h-9.6z" fill="#f09a12"/><path d="M24.4 20.7v.7c0 .1 0 .3.1.4V21h.3v1.4l.3.3v-1.3h.3V23c.2.1.3.2.5.3V22h.3v1.5c.2.1.4.1.6.2v-1.4h.3v1.4c.3.1.5.1.8.2v-1.3h.3v1.3h.8v-1.3h.3V24h.8v-1.4h.3v1.3c.3 0 .5-.1.8-.1v-1.4h.3v1.3c.2-.1.4-.1.6-.2V22h.3v1.3c.2-.1.3-.2.5-.3v-1.6h.3v1.4l.3-.3v-1.4h.3v.9c.1-.2.1-.3.1-.5v-.7l-9.5-.1z" fill="#f09a12"/><ellipse cx="29.2" cy="20.7" rx="4.8" ry="2.6" fill="#ffbf00"/><path d="M29.2 22.7c-2.4 0-4.3-.9-4.3-2.1s1.9-2.1 4.3-2.1 4.3.9 4.3 2.1-1.9 2.1-4.3 2.1zm0-3.9c-2.3 0-3.9 1-3.9 1.8s1.6 1.6 3.9 1.6 3.9-.8 3.9-1.6-1.6-1.8-3.9-1.8z" fill="#f09a12"/><path d="M29 19.3v.3h-1v.3h.8l.4.4v.6l-.5.5h-1l-.7-.2.3-.5.4.1h.6l.2-.1v-.2l-.1-.1h-1l.3-1 1.3-.1z" fill="#f09a12"/><path d="M30.5 19.3l.5.3.3 1.3-.4.5h-1.1l-.5-.5v-1.3l.4-.3h.8zm-.7.4l.1.8.5-.9h-.5l-.1.1zm1 1l-.2-.8-.5 1h.6l.1-.2z" fill="#f09a12"/><path d="M24.4 19.6v.7c0 1.4 2.1 2.6 4.8 2.6s4.8-1.1 4.8-2.6v-.7h-9.6z" fill="#f09a12"/><path d="M24.4 19.6v.7c0 .1 0 .3.1.4V20h.3v1.4l.3.3v-1.3h.3V22c.2.1.3.2.5.3V21h.3v1.5c.2.1.4.1.6.2v-1.3h.3v1.4c.3.1.5.1.8.2v-1.3h.3V23h.8v-1.3h.3v1.4h.8v-1.3h.3v1.3c.3 0 .5-.1.8-.1v-1.5h.3v1.3c.2-.1.4-.1.6-.2v-1.5h.3v1.3c.2-.1.3-.2.5-.3v-1.6h.3v1.4l.3-.3V20h.3v.9c.1-.2.1-.3.1-.5v-.7l-9.5-.1z" fill="#f09a12"/><ellipse cx="29.2" cy="19.6" rx="4.8" ry="2.6" fill="#ffbf00"/><path d="M29.2 21.6c-2.4 0-4.3-.9-4.3-2.1s1.9-2.1 4.3-2.1 4.3.9 4.3 2.1-1.9 2.1-4.3 2.1zm0-3.9c-2.3 0-3.9 1-3.9 1.8s1.6 1.6 3.9 1.6 3.9-.8 3.9-1.6-1.6-1.8-3.9-1.8z" fill="#f09a12"/><path d="M29 18.2v.3h-1v.3h.8l.4.4v.6l-.5.5h-1l-.7-.2.3-.5.4.1h.6l.2-.1v-.2l-.1-.1h-1l.3-1 1.3-.1z" fill="#f09a12"/><path d="M30.5 18.2l.5.3.3 1.3-.4.5h-1.1l-.5-.5v-1.3l.4-.3h.8zm-.7.4l.1.8.5-.9h-.5l-.1.1zm1 1l-.2-.8-.5 1h.6l.1-.2z" fill="#f09a12"/><path d="M24.4 18.6v.7c0 1.4 2.1 2.6 4.8 2.6s4.8-1.1 4.8-2.6v-.7h-9.6z" fill="#f09a12"/><path d="M24.4 18.6v.7c0 .1 0 .3.1.4v-.8h.3v1.4l.3.3v-1.3h.3v1.6c.2.1.3.2.5.3v-1.3h.3v1.5c.2.1.4.1.6.2v-1.3h.3v1.4c.3.1.5.1.8.2v-1.3h.3v1.3h.8v-1.3h.3V22h.8v-1.4h.3v1.3c.3 0 .5-.1.8-.1v-1.4h.3v1.3c.2-.1.4-.1.6-.2V20h.3v1.3c.2-.1.3-.2.5-.3v-1.6h.3v1.4l.3-.3v-1.4h.3v.9c.1-.2.1-.3.1-.5v-.7h-9.5v-.2z" fill="#f09a12"/><ellipse cx="29.2" cy="18.6" rx="4.8" ry="2.6" fill="#ffbf00"/><path d="M29.2 20.5c-2.4 0-4.3-.9-4.3-2.1s1.9-2.1 4.3-2.1 4.3.9 4.3 2.1-1.9 2.1-4.3 2.1zm0-3.8c-2.3 0-3.9 1-3.9 1.8s1.6 1.6 3.9 1.6 3.9-.8 3.9-1.6-1.6-1.8-3.9-1.8z" fill="#f09a12"/><path d="M29 17.2v.3h-1v.3h.8l.4.4v.6l-.5.5h-1L27 19l.3-.5.4.1h.6l.2-.1v-.2l-.1-.1h-1l.3-1H29z" fill="#f09a12"/><path d="M30.5 17.2l.5.3.3 1.3-.4.5h-1.1l-.5-.5v-1.3l.4-.3h.8zm-.7.4l.1.8.5-.9h-.5l-.1.1zm1 1l-.2-.8-.5 1h.6l.1-.2z" fill="#f09a12"/><path d="M24.4 17.5v.7c0 1.4 2.1 2.6 4.8 2.6s4.8-1.1 4.8-2.6v-.7h-9.6z" fill="#f09a12"/><path d="M24.4 17.5v.7c0 .1 0 .3.1.4v-.8h.3v1.4l.3.3v-1.3h.3v1.6c.2.1.3.2.5.3v-1.3h.3v1.5c.2.1.4.1.6.2v-1.3h.3v1.4c.2.1.5.1.8.2v-1.3h.3v1.3h.8v-1.3h.3v1.4h.8v-1.3h.3v1.3c.3 0 .5-.1.8-.1v-1.5h.3v1.3c.2-.1.4-.1.6-.2v-1.5h.3v1.3c.2-.1.3-.2.5-.3v-1.6h.3v1.4l.3-.3V18h.3v.9c.1-.2.1-.3.1-.5v-.7h-9.5v-.2z" fill="#f09a12"/><ellipse cx="29.2" cy="17.5" rx="4.8" ry="2.6" fill="#ffbf00"/><path d="M29.2 19.5c-2.4 0-4.3-.9-4.3-2.1s1.9-2.1 4.3-2.1 4.3.9 4.3 2.1-1.9 2.1-4.3 2.1zm0-3.9c-2.3 0-3.9 1-3.9 1.8s1.6 1.6 3.9 1.6 3.9-.8 3.9-1.6-1.6-1.8-3.9-1.8z" fill="#f09a12"/><path d="M29 16.1v.3h-1v.3h.8l.4.4v.6l-.5.5h-1L27 18l.3-.5.4.1h.6l.2-.1v-.2l-.1-.1h-1l.3-1 1.3-.1z" fill="#f09a12"/><path d="M30.5 16.1l.5.3.3 1.3-.4.5h-1.1l-.5-.5v-1.3l.4-.3h.8zm-.7.4l.1.8.5-.9h-.5l-.1.1zm1 1l-.2-.8-.5 1h.6l.1-.2z" fill="#f09a12"/><path d="M24.4 16.4v.7c0 1.4 2.1 2.6 4.8 2.6s4.8-1.2 4.8-2.6v-.7h-9.6z" fill="#f09a12"/><path d="M24.4 16.4v.7c0 .1 0 .3.1.4v-.8h.3v1.4l.3.3v-1.3h.3v1.6c.2.1.3.2.5.3v-1.3h.3v1.5c.2.1.4.1.6.2V18h.3v1.4c.3.1.5.1.8.2v-1.2h.3v1.3h.8v-1.3h.3v1.4h.8v-1.4h.3v1.3c.3 0 .5-.1.8-.1V18h.3v1.3c.2-.1.4-.1.6-.2v-1.4h.3V19c.2-.1.3-.2.5-.3v-1.6h.3v1.4l.3-.3v-1.4h.3v.9c.1-.2.1-.3.1-.5v-.7h-9.5v-.1z" fill="#f09a12"/><ellipse cx="29.2" cy="16.4" rx="4.8" ry="2.6" fill="#ffbf00"/><path d="M29.2 18.4c-2.4 0-4.3-.9-4.3-2.1s1.9-2.1 4.3-2.1 4.3.9 4.3 2.1-1.9 2.1-4.3 2.1zm0-3.9c-2.3 0-3.9 1-3.9 1.8s1.6 1.6 3.9 1.6 3.9-.8 3.9-1.6-1.6-1.8-3.9-1.8z" fill="#f09a12"/><path d="M29 15v.3h-1v.3h.8l.2.4v.6l-.5.5h-1l-.5-.2.3-.5.4.1h.6l.2-.1v-.2l-.1-.1h-1l.3-1L29 15z" fill="#f09a12"/><path d="M30.5 15l.5.3.3 1.3-.4.4h-1.1l-.5-.5v-1.3l.4-.3.8.1zm-.7.4l.1.8.5-.9h-.5l-.1.1zm1 1l-.2-.8-.5 1h.6l.1-.2z" fill="#f09a12"/><path d="M24.4 15.4v.7c0 1.4 2.1 2.6 4.8 2.6s4.8-1.1 4.8-2.6v-.7h-9.6z" fill="#f09a12"/><path d="M24.4 15.4v.7c0 .1 0 .3.1.4v-.8h.3v1.4l.3.3v-1.3h.3v1.6c.2.1.3.2.5.3v-1.3h.3v1.5c.2.1.4.1.6.2V17h.3v1.4c.3.1.5.1.8.2v-1.3h.3v1.3h.8v-1.3h.3v1.4h.8v-1.3h.3v1.3c.3 0 .5-.1.8-.1V17h.3v1.3c.2-.1.4-.1.6-.2v-1.5h.3v1.3c.2-.1.3-.2.5-.3V16h.3v1.4l.3-.3v-1.4h.3v.9c.1-.2.1-.3.1-.5v-.7h-9.5z" fill="#f09a12"/><ellipse cx="29.2" cy="15.4" rx="4.8" ry="2.6" fill="#ffbf00"/><path d="M29.2 17.3c-2.4 0-4.3-.9-4.3-2.1s1.9-2.1 4.3-2.1 4.3.9 4.3 2.1-1.9 2.1-4.3 2.1zm0-3.8c-2.3 0-3.9 1-3.9 1.8s1.6 1.6 3.9 1.6 3.9-.8 3.9-1.6-1.6-1.8-3.9-1.8z" fill="#f09a12"/><path d="M29 14v.3h-1v.3h.8l.2.4v.6l-.5.5h-1l-.5-.3.3-.5.4.1h.6l.2-.1v-.2l-.1-.1h-1.1l.3-1H29z" fill="#f09a12"/><path d="M30.5 14l.5.3.3 1.3-.4.5h-1.1l-.5-.5v-1.3l.4-.3h.8zm-.7.4l.1.8.5-.9h-.5l-.1.1zm1 1l-.2-.8-.5 1h.6l.1-.2z" fill="#f09a12"/><path d="M24.4 14.3v.7c0 1.4 2.1 2.6 4.8 2.6S34 16.4 34 15v-.7h-9.6z" fill="#f09a12"/><path d="M24.4 14.3v.7c0 .1 0 .3.1.4v-.8h.3V16l.3.3V15h.3v1.6c.2.1.3.2.5.3v-1.3h.3V17c.2.1.4.1.6.2v-1.3h.3v1.4c.3.1.5.1.8.2v-1.3h.3v1.3h.8v-1.3h.3v1.4h.8v-1.4h.3v1.3c.3 0 .5-.1.8-.1V16h.3v1.3c.2-.1.4-.1.6-.2v-1.5h.3v1.3c.2-.1.3-.2.5-.3V15h.3v1.4l.3-.3v-1.4h.3v.9c.1-.2.1-.3.1-.5v-.7h-9.5v-.1z" fill="#f09a12"/><ellipse cx="29.2" cy="14.3" rx="4.8" ry="2.6" fill="#ffbf00"/><path d="M29.2 16.3c-2.4 0-4.3-.9-4.3-2.1s1.9-2.1 4.3-2.1 4.3.9 4.3 2.1-1.9 2.1-4.3 2.1zm0-3.9c-2.3 0-3.9 1-3.9 1.8s1.6 1.6 3.9 1.6 3.9-.8 3.9-1.6-1.6-1.8-3.9-1.8z" fill="#f09a12"/><path d="M29 12.9v.3h-1v.3h.8l.4.4v.6l-.6.5h-1l-.6-.2.3-.5.4.1h.6l.2-.1V14l-.1-.1h-1l.3-1H29z" fill="#f09a12"/><path d="M30.5 12.9l.5.3.3 1.3-.4.4h-1.1l-.5-.4v-1.3l.4-.3h.8zm-.7.4l.1.8.5-.9h-.5l-.1.1zm1 1l-.2-.8-.5 1h.6l.1-.2z" fill="#f09a12"/><path d="M24.4 13.2v.7c0 1.4 2.1 2.6 4.8 2.6s4.8-1.2 4.8-2.6v-.7h-9.6z" fill="#f09a12"/><path d="M24.4 13.2v.7c0 .1 0 .3.1.4v-.8h.3V15l.3.3v-1.4h.3v1.6c.2.1.3.2.5.3v-1.3h.3v1.4c.2.1.4.1.6.2v-1.3h.3v1.4c.3.1.5.1.8.2v-1.3h.3v1.3h.8v-1.3h.3v1.4h.8v-1.3h.3v1.2c.3 0 .5-.1.8-.1v-1.4h.3v1.3c.2-.1.4-.1.6-.2v-1.5h.3v1.3c.2-.1.3-.2.5-.3v-1.6h.3v1.4l.3-.3v-1.4h.3v.9c.1-.2.1-.3.1-.5v-.7l-9.5-.1z" fill="#f09a12"/><ellipse cx="29.2" cy="13.2" rx="4.8" ry="2.6" fill="#ffbf00"/><path d="M29.2 15.2c-2.4 0-4.3-.9-4.3-2.1s1.9-2.1 4.3-2.1 4.3.9 4.3 2.1-1.9 2.1-4.3 2.1zm0-3.9c-2.3 0-3.9 1-3.9 1.8s1.6 1.6 3.9 1.6 3.9-.8 3.9-1.6-1.6-1.8-3.9-1.8z" fill="#f09a12"/><path d="M29 11.8v.3h-1v.3h.8l.4.4v.6l-.5.5h-1l-.7-.2.3-.5.4.1h.6l.2-.1V13l-.1-.1h-1l.3-1 1.3-.1z" fill="#f09a12"/><path d="M30.5 11.8l.5.3.3 1.3-.4.4h-1.1l-.5-.4v-1.3l.4-.3h.8zm-.7.4l.1.8.5-.9h-.5l-.1.1zm1 1l-.2-.8-.5 1h.6l.1-.2z" fill="#f09a12"/><path d="M24.4 12.2v.7c0 1.4 2.1 2.6 4.8 2.6s4.8-1.2 4.8-2.6v-.7h-9.6z" fill="#f09a12"/><path d="M24.4 12.2v.7c0 .1 0 .3.1.4v-.8h.3v1.4l.3.3v-1.3h.3v1.6c.2.1.3.2.5.3v-1.3h.3v1.4c.2.1.4.1.6.2v-1.3h.3v1.4c.3.1.5.1.8.2v-1.3h.3v1.3h.8v-1.3h.3v1.4h.8v-1.4h.3v1.3c.3 0 .5-.1.8-.1v-1.4h.3v1.3c.2-.1.4-.1.6-.2v-1.5h.3v1.3c.2-.1.3-.2.5-.3v-1.6h.3v1.4l.3-.3v-1.4h.3v.9c.1-.2.1-.3.1-.5v-.7l-9.5-.1z" fill="#f09a12"/><ellipse cx="29.2" cy="12.2" rx="4.8" ry="2.6" fill="#ffbf00"/><path d="M29.2 14.1c-2.4 0-4.3-.9-4.3-2.1s1.9-2 4.3-2 4.3.9 4.3 2.1-1.9 2-4.3 2zm0-3.9c-2.3 0-3.9 1-3.9 1.8s1.6 1.6 3.9 1.6 3.9-.8 3.9-1.6-1.6-1.8-3.9-1.8z" fill="#f09a12"/><path d="M29 10.8v.3h-1v.3h.8l.4.4v.6l-.5.5h-1l-.7-.3.3-.5.4.1h.6l.2-.1v-.2l-.1-.1h-1l.3-1H29z" fill="#f09a12"/><path d="M30.5 10.8l.5.2.3 1.3-.4.4h-1.1l-.5-.4V11l.4-.3.8.1zm-.7.4l.1.8.5-.9h-.5l-.1.1zm1 1l-.2-.8-.5 1h.6l.1-.2z" fill="#f09a12"/><path d="M24.4 11.1v.7c0 1.4 2.1 2.6 4.8 2.6s4.8-1.2 4.8-2.6v-.7h-9.6z" fill="#f09a12"/><path d="M24.4 11.1v.7c0 .1 0 .3.1.4v-.8h.3v1.4l.3.3v-1.3h.3v1.6c.2.1.3.2.5.3v-1.3h.3v1.4c.2.1.4.1.6.2v-1.3h.3v1.4c.3.1.5.1.8.2V13h.3v1.3h.8V13h.3v1.4h.8V13h.3v1.3c.3 0 .5-.1.8-.1v-1.4h.3V14c.2-.1.4-.1.6-.2v-1.4h.3v1.3c.2-.1.3-.2.5-.3v-1.6h.3v1.4l.3-.3v-1.4h.3v.9c.1-.2.1-.3.1-.5v-.7l-9.5-.1z" fill="#f09a12"/><ellipse cx="29.2" cy="11.1" rx="4.8" ry="2.6" fill="#ffbf00"/><path d="M29.2 13.1c-2.4 0-4.3-.9-4.3-2.1s1.9-2.1 4.3-2.1 4.3.9 4.3 2.1-1.9 2.1-4.3 2.1zm0-3.9c-2.3 0-3.9 1-3.9 1.8s1.6 1.6 3.9 1.6 3.9-.8 3.9-1.6-1.6-1.8-3.9-1.8z" fill="#f09a12"/><path d="M29 9.7v.3h-1v.3h.8l.4.4v.6l-.5.5h-1l-.7-.2.3-.5.4.1h.6l.2-.1v-.2l-.1-.1h-1l.3-1 1.3-.1z" fill="#f09a12"/><path d="M30.5 9.7l.5.3.3 1.3-.4.4h-1.1l-.5-.4V10l.4-.3h.8zm-.7.4l.1.8.5-.9h-.5l-.1.1zm1 1l-.2-.8-.5 1h.6l.1-.2z" fill="#f09a12"/><path d="M24.4 10v.7c0 1.4 2.1 2.6 4.8 2.6s4.8-1.1 4.8-2.5V10h-9.6z" fill="#f09a12"/><path d="M24.4 10v.7c0 .1 0 .3.1.4v-.8h.3v1.4l.3.3v-1.3h.3v1.6c.2.1.3.2.5.3v-1.3h.3v1.4c.2.1.4.1.6.2v-1.3h.3V13c.3.1.5.1.8.2V12h.3v1.3h.8V12h.3v1.4h.8V12h.3v1.3c.3 0 .5-.1.8-.1v-1.5h.3V13c.2-.1.4-.1.6-.2v-1.5h.3v1.3c.2-.1.3-.2.5-.3v-1.6h.3v1.4l.3-.3v-1.4h.3v.9c.1-.2.1-.3.1-.5V10h-9.5z" fill="#f09a12"/><ellipse cx="29.2" cy="10" rx="4.8" ry="2.6" fill="#ffbf00"/><path d="M29.2 12c-2.4 0-4.3-.9-4.3-2.1s1.9-2.1 4.3-2.1 4.3.9 4.3 2.1-1.9 2.1-4.3 2.1zm0-3.9c-2.3 0-3.9 1-3.9 1.8s1.6 1.6 3.9 1.6 3.9-.8 3.9-1.6-1.6-1.8-3.9-1.8z" fill="#f09a12"/><path d="M29 8.6V9h-1v.3h.8l.4.4v.6l-.5.5h-1l-.7-.3.3-.5.4.1h.6l.2-.1v-.2l-.1-.1h-1l.3-1 1.3-.1z" fill="#f09a12"/><path d="M30.5 8.6l.5.3.3 1.3-.4.4h-1.1l-.5-.4V8.9l.4-.3h.8zm-.7.4l.1.8.5-.9h-.5l-.1.1zm1 1l-.2-.8-.5 1h.6l.1-.2z" fill="#f09a12"/><path d="M24.4 9v.7c0 1.4 2.1 2.6 4.8 2.6S34 11.1 34 9.7V9h-9.6z" fill="#f09a12"/><path d="M24.4 9v.7c0 .1 0 .3.1.4v-.8h.3v1.4l.3.3V9.7h.3v1.6c.2.1.3.2.5.3v-1.3h.3v1.4c.2.1.4.1.6.2v-1.3h.3V12c.2.1.5.1.8.2v-1.3h.3v1.3h.8v-1.3h.3v1.4h.8v-1.4h.3v1.3c.3 0 .5-.1.8-.1v-1.4h.3V12c.2-.1.4-.1.6-.2v-1.5h.3v1.3c.2-.1.3-.2.5-.3V9.7h.3V11l.3-.3V9.3h.3v.9c.1-.2.2-.4.2-.5V9h-9.6z" fill="#f09a12"/><ellipse cx="29.2" cy="9" rx="4.8" ry="2.6" fill="#ffbf00"/><path d="M29.2 10.9c-2.4 0-4.3-.9-4.3-2.1s1.9-2.1 4.3-2.1 4.3.9 4.3 2.1-1.9 2.1-4.3 2.1zm0-3.9c-2.3 0-3.9 1-3.9 1.8s1.6 1.6 3.9 1.6 3.9-.8 3.9-1.6S31.5 7 29.2 7z" fill="#f09a12"/><path d="M29 7.6v.3h-1v.3h.8l.4.4v.6l-.5.5h-1l-.7-.3.3-.4.4.1h.6l.2-.1v-.3l-.1-.1h-1.1l.3-1H29z" fill="#f09a12"/><path d="M30.5 7.6l.5.2.3 1.3-.4.4h-1.1l-.5-.4V7.8l.4-.3.8.1zm-.7.4l.1.8.5-.9h-.5l-.1.1zm1 1l-.2-.8-.5 1h.6l.1-.2z" fill="#f09a12"/><path d="M24.4 7.9v.7c0 1.4 2.1 2.6 4.8 2.6S34 10 34 8.6v-.7h-9.6z" fill="#f09a12"/><path d="M24.4 7.9v.7c0 .1 0 .3.1.4v-.8h.3v1.4l.3.3V8.6h.3v1.6c.2.1.3.2.5.3V9.1h.3v1.5c.2.1.4.1.6.2V9.5h.3v1.4c.3.1.5.1.8.2V9.8h.3v1.3h.8V9.8h.3v1.4h.8V9.8h.3v1.3c.3 0 .5-.1.8-.1V9.5h.3v1.3c.2-.1.4-.1.6-.2V9.1h.3v1.3c.2-.1.3-.2.5-.3V8.6h.3V10l.3-.3V8.2h.3v.9c.1-.2.2-.3.2-.5v-.7h-9.6z" fill="#f09a12"/><ellipse cx="29.2" cy="7.9" rx="4.8" ry="2.6" fill="#ffbf00"/><path d="M29.2 9.9c-2.4 0-4.3-.9-4.3-2.1s1.9-2.1 4.3-2.1 4.3.9 4.3 2.1-1.9 2.1-4.3 2.1zm0-3.9c-2.3 0-3.9 1-3.9 1.8s1.6 1.6 3.9 1.6 3.9-.8 3.9-1.6S31.5 6 29.2 6z" fill="#f09a12"/><path d="M29 6.5v.3h-1v.3h.8l.4.3V8l-.5.5h-1l-.7-.1.3-.5.4.1h.6l.2-.1v-.3l-.1-.1h-1l.3-1H29z" fill="#f09a12"/><path d="M30.5 6.5l.5.3.3 1.3-.4.4h-1.1l-.5-.4V6.8l.4-.3h.8zm-.7.4l.1.8.5-.9h-.5l-.1.1zm1 1l-.2-.8-.5 1h.6l.1-.2z" fill="#f09a12"/><path d="M24.4 6.8v.7c0 1.4 2.1 2.5 4.8 2.5S34 8.9 34 7.5v-.7h-9.6z" fill="#f09a12"/><path d="M24.4 6.8v.7c0 .1 0 .3.1.4v-.7h.3v1.4l.3.3V7.5h.3v1.6c.2.1.3.2.5.3V8.1h.3v1.4c.2.1.4.1.6.2V8.4h.3v1.4c.3.1.5.1.8.2V8.7h.3V10h.8V8.7h.3v1.4h.8V8.7h.3V10c.3 0 .5-.1.8-.1V8.4h.3v1.3c.2-.1.4-.1.6-.2V8.1h.3v1.3c.2-.1.3-.2.5-.3V7.5h.3v1.3l.3-.3V7.2h.3V8c.1-.2.2-.3.2-.5v-.7h-9.6z" fill="#f09a12"/><ellipse cx="29.2" cy="6.8" rx="4.8" ry="2.6" fill="#ffbf00"/><path d="M29.2 8.8c-2.4 0-4.3-.9-4.3-2.1s1.9-2.1 4.3-2.1 4.3.9 4.3 2.1-1.9 2.1-4.3 2.1zm0-3.9c-2.3 0-3.9 1-3.9 1.8s1.6 1.6 3.9 1.6 3.9-.8 3.9-1.6-1.6-1.8-3.9-1.8z" fill="#f09a12"/><path d="M29 5.4v.3h-1V6h.8l.4.3V7l-.5.5h-1l-.7-.2.3-.5.4.2h.6l.2-.1v-.3l-.1-.1h-1l.3-1 1.3-.1z" fill="#f09a12"/><path d="M30.5 5.4l.5.3.3 1.3-.4.4h-1l-.6-.4V5.7l.4-.3h.8zm-.7.4l.1.8.5-.9h-.5l-.1.1zm1 1l-.2-.8-.5 1h.6l.1-.2z" fill="#f09a12"/><path d="M24.4 5.8v.7c0 1.4 2.2 2.5 4.8 2.5S34 7.9 34 6.5v-.7h-9.6z" fill="#f09a12"/><path d="M24.4 5.8v.7c0 .1 0 .3.1.4v-.8h.3v1.4l.3.3V6.5h.3V8c.2.1.3.2.5.3V7h.3v1.5c.2.1.4.1.6.2V7.4h.3v1.4c.3.1.5.1.8.2V7.7h.3V9h.8V7.7h.3V9h.8V7.7h.3V9c.3 0 .5-.1.8-.1V7.4h.3v1.3c.2-.1.4-.1.6-.2V7h.3v1.3c.2-.1.3-.2.5-.3V6.5h.3v1.3l.3-.3V6.1h.3V7c.1-.2.2-.3.2-.5v-.7h-9.6z" fill="#f09a12"/><ellipse cx="29.2" cy="5.8" rx="4.8" ry="2.6" fill="#ffbf00"/><path d="M29.2 7.7c-2.4 0-4.3-.9-4.3-2.1s1.9-2.1 4.3-2.1 4.3.9 4.3 2.1-1.9 2.1-4.3 2.1zm0-3.9c-2.3 0-3.9 1-3.9 1.8s1.6 1.6 3.9 1.6 3.9-.8 3.9-1.6-1.6-1.8-3.9-1.8z" fill="#f09a12"/><path d="M29 4.3v.3h-1v.3h.8l.4.3V6l-.5.5h-1l-.7-.3.3-.5.4.1h.6l.2-.1v-.2l-.1-.1h-1l.3-1 1.3-.1z" fill="#f09a12"/><path d="M30.5 4.3l.5.3.3 1.4-.4.4h-1l-.6-.4V4.7l.4-.3.8-.1zm-.7.5l.1.8.5-.9h-.5l-.1.1zm1 1l-.2-.8-.5 1h.6l.1-.2z" fill="#f09a12"/><path d="M24.4 4.7v.7c0 1.4 2.1 2.6 4.8 2.6S34 6.8 34 5.4v-.7h-9.6z" fill="#f09a12"/><path d="M24.4 4.7v.7c0 .1 0 .3.1.4V5h.3v1.4l.3.3V5.4h.3V7c.2.1.3.2.5.3V5.9h.3v1.5c.2.1.4.1.6.2V6.3h.3v1.4c.3.1.5.1.8.2V6.6h.3v1.3c.3 0 .5 0 .8.1V6.6h.3v1.3h.8V6.6h.3v1.3c.3 0 .5-.1.8-.2V6.3h.3v1.3c.2-.1.4-.1.6-.2V5.9h.3v1.3c.2-.1.3-.2.5-.3V5.4h.3v1.3l.3-.3V5h.3v.9c.2-.2.2-.4.2-.6v-.7l-9.6.1z" fill="#f09a12"/><ellipse cx="29.2" cy="4.7" rx="4.8" ry="2.6" fill="#ffbf00"/><path d="M29.2 6.7c-2.4 0-4.3-.9-4.3-2.1s1.9-2.1 4.3-2.1 4.3.9 4.3 2.1-1.9 2.1-4.3 2.1zm0-3.9c-2.3 0-3.9 1-3.9 1.8s1.6 1.6 3.9 1.6 3.9-.8 3.9-1.6-1.6-1.8-3.9-1.8z" fill="#f09a12"/><path d="M29 3.3v.3h-1v.3h.8l.4.4v.6l-.5.5h-1l-.7-.2.3-.5.4.1h.6l.2-.1v-.3l-.1-.1h-1l.3-1H29z" fill="#f09a12"/><path d="M30.5 3.3l.5.3.3 1.3-.4.5h-1.1l-.5-.5V3.6l.4-.3h.8zm-.7.4l.1.8.5-.9h-.5l-.1.1zm1 1l-.2-.8-.5 1h.6l.1-.2z" fill="#f09a12"/><path d="M24.4 3.6v.7c0 1.4 2.1 2.6 4.8 2.6S34 5.7 34 4.3v-.7h-9.6z" fill="#f09a12"/><path d="M24.4 3.6v.7c0 .1 0 .3.1.4V4h.3v1.3l.3.3V4.3h.3v1.6c.2.1.3.2.5.3V4.9h.3v1.5c.2.1.4.1.6.2V5.2h.3v1.4c.3.1.5.1.8.2V5.5h.3v1.3h.8V5.5h.3v1.4h.8V5.5h.3v1.3c.3 0 .5-.1.8-.2V5.2h.3v1.3c.2-.1.4-.1.6-.2V4.9h.3v1.3c.2-.1.3-.2.5-.3V4.3h.3v1.4l.3-.3V4h.3v.9c.1-.2.2-.4.2-.6v-.7h-9.6z" fill="#f09a12"/><ellipse cx="29.2" cy="3.6" rx="4.8" ry="2.6" fill="#ffbf00"/><path d="M29.2 5.6c-2.4 0-4.3-.9-4.3-2.1s1.9-2.1 4.3-2.1 4.3.9 4.3 2.1-1.9 2.1-4.3 2.1zm0-3.9c-2.3 0-3.9 1-3.9 1.8s1.6 1.6 3.9 1.6 3.9-.8 3.9-1.6-1.6-1.8-3.9-1.8z" fill="#f09a12"/><path d="M29 2.2v.3h-1v.3h.8l.4.3v.6l-.5.5h-1l-.7-.1.3-.5.4.1h.6l.2-.1v-.2l-.1-.1h-1l.3-1 1.3-.1z" fill="#f09a12"/><path d="M30.5 2.2l.5.3.3 1.3-.4.5h-1.1l-.5-.5V2.5l.4-.3h.8zm-.7.4l.1.8.5-.9h-.5l-.1.1zm1 1l-.2-.8-.5 1h.6l.1-.2z" fill="#f09a12"/><path d="M24.4 2.6v.7c0 1.4 2.1 2.6 4.8 2.6S34 4.7 34 3.3v-.7h-9.6z" fill="#f09a12"/><path d="M24.4 2.6v.7c0 .1 0 .3.1.4v-.8h.3v1.4l.3.3V3.3h.3v1.6c.2.1.3.2.5.3V3.8h.3v1.5c.2.1.4.1.6.2V4.2h.3v1.4c.2.1.5.1.8.2V4.5h.3v1.3h.8V4.5h.3v1.3h.8V4.5h.3v1.3c.3 0 .5-.1.8-.2V4.2h.3v1.3c.2-.1.4-.1.6-.2V3.8h.3v1.3c.2-.1.3-.2.5-.3V3.3h.3v1.4l.3-.3V2.9h.3v.9c.1-.2.2-.4.2-.6v-.7l-9.6.1z" fill="#f09a12"/><ellipse cx="29.2" cy="2.6" rx="4.8" ry="2.6" fill="#ffbf00"/><path d="M29.2 4.5c-2.4 0-4.3-.9-4.3-2.1S26.8.3 29.2.3s4.3.9 4.3 2.1-1.9 2.1-4.3 2.1zm0-3.9c-2.3 0-3.9 1-3.9 1.8S26.9 4 29.2 4s3.9-.8 3.9-1.6S31.5.6 29.2.6z" fill="#f09a12"/><path d="M17.9 25.4v.7c0 1.4 2.1 2.6 4.8 2.6s4.8-1.1 4.8-2.6v-.7h-9.6z" fill="#f09a12"/><path d="M17.9 25.1v.7c0 .1 0 .3.1.4v-.8h.3v1.4l.3.3v-1.3h.3v1.6c.2.1.3.2.5.3v-1.3h.3v1.5c.2.1.4.1.6.2v-1.4h.3v1.4c.3.1.5.1.8.2v-1.2h.3v1.3h.8v-1.3h.3v1.4h.8v-1.3h.4v1.3c.3 0 .5-.1.8-.1v-1.7h.3V28c.2-.1.4-.1.6-.2v-1.4h.3v1.3c.2-.1.3-.2.5-.3v-1.6h.3v1.4l.3-.3v-1.4h.3v.9c.1-.2.1-.3.1-.5v-.7h-9.6v-.1z" fill="#f09a12"/><ellipse cx="22.7" cy="25.4" rx="4.8" ry="2.6" fill="#ffbf00"/><path d="M22.7 27.4c-2.4 0-4.3-.9-4.3-2.1s1.9-2.1 4.3-2.1 4.3.9 4.3 2.1-1.9 2.1-4.3 2.1zm0-3.9c-2.3 0-3.9 1-3.9 1.8s1.6 1.6 3.9 1.6 3.9-.8 3.9-1.6-1.6-1.8-3.9-1.8z" fill="#f09a12"/><path d="M22.6 24v.3h-1.1v.3h.8l.4.4v.6l-.5.5h-1l-.5-.2.3-.5.4.1h.6l.2-.1v-.2l-.3-.2h-1.1l.3-1h1.5z" fill="#f09a12"/><path d="M24 24l.5.3.3 1.3-.4.4h-1l-.5-.5v-1.3l.4-.3.7.1zm-.8.4l.1.8.5-.9h-.5l-.1.1zm1 1l-.2-.8-.5 1h.6l.1-.2z" fill="#f09a12"/><path d="M17.9 24.3v.7c0 1.4 2.1 2.5 4.8 2.5s4.8-1.1 4.8-2.5v-.7h-9.6z" fill="#f09a12"/><path d="M17.9 24.3v.7c0 .1 0 .3.1.4v-.8h.3V26l.3.3V25h.3v1.6c.2.1.3.2.5.3v-1.3h.3V27c.2.1.4.1.6.2V26h.3v1.4c.3.1.5.1.8.1v-1.3h.3v1.3h.8v-1.3h.3v1.4h.8v-1.4h.4v1.3c.3 0 .5-.1.8-.1V26h.3v1.3c.2-.1.4-.1.6-.2v-1.5h.3v1.3c.2-.1.3-.2.5-.3V25h.3v1.4l.3-.3v-1.4h.3v.9c.1-.2.1-.3.1-.5v-.7h-9.6v-.1z" fill="#f09a12"/><ellipse cx="22.7" cy="24.3" rx="4.8" ry="2.6" fill="#ffbf00"/><path d="M22.7 26.3c-2.4 0-4.3-.9-4.3-2.1s1.9-2.1 4.3-2.1 4.3.9 4.3 2.1-1.9 2.1-4.3 2.1zm0-3.9c-2.3 0-3.9 1-3.9 1.8s1.6 1.6 3.9 1.6 3.9-.8 3.9-1.6-1.6-1.8-3.9-1.8z" fill="#f09a12"/><path d="M22.6 22.9v.3h-1.1v.3h.8l.4.4v.6l-.6.5h-1l-.5-.2.3-.5.4.1h.6l.2-.1v-.2l-.2-.1h-1.1l.3-1 1.5-.1z" fill="#f09a12"/><path d="M24 22.9l.5.3.3 1.3-.4.5h-1l-.5-.5v-1.3l.4-.3h.7zm-.8.5l.1.8.5-.9h-.5l-.1.1zm1 1l-.2-.8-.5 1h.6l.1-.2z" fill="#f09a12"/><path d="M17.9 23.3v.7c0 1.4 2.1 2.5 4.8 2.5s4.8-1.1 4.8-2.5v-.7h-9.6z" fill="#f09a12"/><path d="M17.9 23.3v.7c0 .1 0 .3.1.4v-.8h.3V25l.3.3V24h.3v1.6c.2.1.3.2.5.3v-1.3h.3V26c.2.1.4.1.6.2v-1.3h.3v1.4c.3.1.5.1.8.2v-1.3h.3v1.3h.8v-1.3h.3v1.4h.8v-1.4h.4v1.3c.3 0 .5-.1.8-.1V25h.3v1.3l.6-.2v-1.5h.3v1.3c.2-.1.3-.2.5-.3V24h.3v1.4l.3-.3v-1.4h.3v.9c.1-.2.1-.3.1-.5v-.7l-9.6-.1z" fill="#f09a12"/><ellipse cx="22.7" cy="23.3" rx="4.8" ry="2.6" fill="#ffbf00"/><path d="M22.7 25.2c-2.4 0-4.3-.9-4.3-2.1s1.9-2.1 4.3-2.1 4.3 1 4.3 2.2-1.9 2-4.3 2zm0-3.8c-2.3 0-3.9 1-3.9 1.8s1.6 1.6 3.9 1.6 3.9-.8 3.9-1.6-1.6-1.8-3.9-1.8z" fill="#f09a12"/><path d="M22.6 21.9v.3h-1.1v.3h.8l.4.4v.6l-.5.5h-1l-.5-.2.3-.5.4.1h.6l.2-.1V23l-.1-.1H21l.3-1h1.3z" fill="#f09a12"/><path d="M24 21.9l.5.3.3 1.3-.4.5h-1l-.5-.5v-1.3l.4-.3h.7zm-.8.4l.1.8.5-.9h-.5l-.1.1zm1 1l-.2-.8-.5 1h.6l.1-.2z" fill="#f09a12"/><path d="M17.9 22.2v.7c0 1.4 2.1 2.5 4.8 2.5s4.8-1.1 4.8-2.5v-.7h-9.6z" fill="#f09a12"/><path d="M17.9 22.2v.7c0 .1 0 .3.1.4v-.8h.3v1.4l.3.3v-1.3h.3v1.6c.2.1.3.2.5.3v-1.3h.3V25c.2.1.4.1.6.2v-1.3h.3v1.4c.3.1.5.1.8.2v-1.3h.3v1.3h.8v-1.3h.3v1.4h.8v-1.3h.4v1.3c.3 0 .5-.1.8-.1V24h.3v1.3c.2-.1.4-.1.6-.2v-1.5h.3v1.3c.2-.1.3-.2.5-.3V23h.3v1.4l.3-.3v-1.4h.3v.9c.1-.2.1-.3.1-.5v-.7l-9.6-.2z" fill="#f09a12"/><ellipse cx="22.7" cy="22.2" rx="4.8" ry="2.6" fill="#ffbf00"/><path d="M22.7 24.2c-2.4 0-4.3-.9-4.3-2.1s1.9-2.1 4.3-2.1 4.3.9 4.3 2.1-1.9 2.1-4.3 2.1zm0-3.9c-2.3 0-3.9 1-3.9 1.8s1.6 1.6 3.9 1.6 3.9-.8 3.9-1.6-1.6-1.8-3.9-1.8z" fill="#f09a12"/><path d="M22.6 20.8v.3h-1.1v.3h.8l.4.4v.6l-.5.5h-1l-.5-.2.3-.5.4.1h.6l.2-.1V22l-.1-.1H21l.3-1 1.3-.1z" fill="#f09a12"/><path d="M24 20.8l.5.3.3 1.3-.4.5h-1l-.5-.5v-1.3l.4-.3h.7zm-.8.4l.1.8.5-.9h-.5l-.1.1zm1 1l-.2-.8-.5 1h.6l.1-.2z" fill="#f09a12"/><path d="M17.9 21.1v.7c0 1.4 2.1 2.6 4.8 2.6s4.8-1.1 4.8-2.6v-.7h-9.6z" fill="#f09a12"/><path d="M17.9 21.1v.7c0 .1 0 .3.1.4v-.8h.3v1.4l.3.3v-1.3h.3v1.6c.2.1.3.2.5.3v-1.3h.3v1.5l.6.2v-1.3h.3v1.4c.2.1.5.1.8.2V23h.3v1.3h.8V23h.3v1.4h.8V23h.4v1.3c.3 0 .5-.1.8-.1v-1.4h.3v1.3l.6-.2v-1.5h.3v1.3c.2-.1.3-.2.5-.3v-1.6h.3v1.4l.3-.3v-1.4h.3v.9c.1-.2.1-.3.1-.5v-.7l-9.6-.1z" fill="#f09a12"/><ellipse cx="22.7" cy="21.1" rx="4.8" ry="2.6" fill="#ffbf00"/><path d="M22.7 23.1c-2.4 0-4.3-.9-4.3-2.1s1.9-2.1 4.3-2.1 4.3 1 4.3 2.1-1.9 2.1-4.3 2.1zm0-3.9c-2.3 0-3.9 1-3.9 1.8s1.6 1.6 3.9 1.6 3.9-.8 3.9-1.6-1.6-1.8-3.9-1.8z" fill="#f09a12"/><path d="M22.6 19.7v.3h-1.1v.3h.8l.4.4v.6l-.5.5h-1l-.5-.2.3-.5.4.1h.6l.2-.1v-.2l-.1-.1H21l.3-1 1.3-.1z" fill="#f09a12"/><path d="M24 19.7l.5.3.3 1.3-.4.5h-1l-.5-.5V20l.4-.3h.7zm-.8.5l.1.8.5-.9h-.5l-.1.1zm1 1l-.2-.8-.5 1h.6l.1-.2z" fill="#f09a12"/><path d="M17.9 20.1v.7c0 1.4 2.1 2.6 4.8 2.6s4.8-1.1 4.8-2.6v-.7h-9.6z" fill="#f09a12"/><path d="M17.9 20.1v.7c0 .1 0 .3.1.4v-.8h.3v1.4l.3.3v-1.3h.3v1.6c.2.1.3.2.5.3v-1.3h.3v1.5c.2.1.4.1.6.2v-1.3h.3v1.4c.3.1.5.1.8.2V22h.3v1.3h.8V22h.3v1.4h.8V22h.4v1.3c.3 0 .5-.1.8-.1v-1.4h.3V23c.2-.1.4-.1.6-.2v-1.5h.3v1.3c.2-.1.3-.2.5-.3v-1.6h.3v1.4l.3-.3v-1.4h.3v.9c.1-.2.1-.3.1-.5v-.7h-9.6z" fill="#f09a12"/><ellipse cx="22.7" cy="20.1" rx="4.8" ry="2.6" fill="#ffbf00"/><path d="M22.7 22c-2.4 0-4.3-.9-4.3-2.1s1.9-2.1 4.3-2.1 4.3 1 4.3 2.2-1.9 2-4.3 2zm0-3.9c-2.3 0-3.9 1-3.9 1.8s1.6 1.6 3.9 1.6 3.9-.8 3.9-1.6-1.6-1.7-3.9-1.8z" fill="#f09a12"/><path d="M22.6 18.7v.3h-1.1v.3h.8l.4.4v.6l-.5.5h-1l-.5-.2.3-.5.4.1h.6l.2-.1v-.2l-.1-.1H21l.3-1 1.3-.1z" fill="#f09a12"/><path d="M24 18.7l.5.3.3 1.3-.4.5h-1l-.5-.5V19l.4-.3h.7zm-.8.4l.1.8.5-.9h-.5l-.1.1zm1 1l-.2-.8-.5 1h.6l.1-.2z" fill="#f09a12"/><path d="M17.9 19v.7c0 1.4 2.1 2.6 4.8 2.6s4.8-1.1 4.8-2.6V19h-9.6z" fill="#f09a12"/><path d="M17.9 19v.7c0 .1 0 .3.1.4v-.8h.3v1.4l.3.3v-1.3h.3v1.6c.2.1.3.2.5.3v-1.3h.3v1.5c.2.1.4.2.6.2v-1.3h.3V22c.3.1.5.1.8.1v-1.2h.3v1.3h.8v-1.3h.3v1.4h.8v-1.4h.4v1.3c.3 0 .5-.1.8-.1v-1.4h.3V22l.6-.2v-1.5h.3v1.3c.2-.1.3-.2.5-.3v-1.6h.3v1.4l.3-.3v-1.4h.3v.9c.1-.2.1-.3.1-.5V19h-9.6z" fill="#f09a12"/><ellipse cx="22.7" cy="19" rx="4.8" ry="2.6" fill="#ffbf00"/><path d="M22.7 21c-2.4 0-4.3-.9-4.3-2.1s1.9-2.1 4.3-2.1 4.3.9 4.3 2.1-1.9 2.1-4.3 2.1zm0-3.9c-2.3 0-3.9 1-3.9 1.8s1.6 1.6 3.9 1.6 3.9-.8 3.9-1.6-1.6-1.8-3.9-1.8z" fill="#f09a12"/><path d="M22.6 17.6v.3h-1.1v.3h.8l.4.4v.6l-.5.5h-1l-.5-.2.3-.5.4.1h.6v-.3l-.1-.1h-1.1l.3-1 1.5-.1z" fill="#f09a12"/><path d="M24 17.6l.5.3.3 1.3-.4.5h-1l-.5-.5v-1.3l.4-.3h.7zm-.8.4l.1.8.5-.9h-.5l-.1.1zm1 1l-.2-.8-.5 1h.6l.1-.2z" fill="#f09a12"/><path d="M17.9 17.9v.7c0 1.4 2.1 2.6 4.8 2.6s4.8-1.1 4.8-2.6v-.7h-9.6z" fill="#f09a12"/><path d="M17.9 17.9v.7c0 .1 0 .3.1.4v-.8h.3v1.4l.3.3v-1.3h.3v1.6c.2.1.3.2.5.3v-1.3h.3v1.5c.2.1.4.1.6.2v-1.3h.3V21c.3.1.5.1.8.2v-1.3h.3v1.3h.8v-1.3h.3v1.4h.8v-1.4h.4v1.3c.3 0 .5-.1.8-.1v-1.4h.3V21c.2-.1.4-.1.6-.2v-1.5h.3v1.3c.2-.1.3-.2.5-.3v-1.6h.3V20l.3-.3v-1.4h.3v.9c.1-.2.1-.3.1-.5V18l-9.6-.1z" fill="#f09a12"/><ellipse cx="22.7" cy="17.9" rx="4.8" ry="2.6" fill="#ffbf00"/><path d="M22.7 19.9c-2.4 0-4.3-.9-4.3-2.1s1.9-2.1 4.3-2.1 4.3.9 4.3 2.1-1.9 2.1-4.3 2.1zm0-3.9c-2.3 0-3.9 1-3.9 1.8s1.6 1.6 3.9 1.6 3.9-.8 3.9-1.6S25 16 22.7 16z" fill="#f09a12"/><path d="M22.6 16.5v.3h-1.1v.3h.8l.4.4v.6l-.5.5h-1l-.5-.2.3-.5.4.1h.6l.2-.1v-.2l-.1-.1H21l.3-1 1.3-.1z" fill="#f09a12"/><path d="M24 16.5l.5.3.3 1.3-.4.5h-1l-.5-.5v-1.3l.4-.3h.7zm-.8.5l.1.8.5-.9h-.5l-.1.1zm1 1l-.2-.8-.5 1h.6l.1-.2z" fill="#f09a12"/><path d="M17.9 16.9v.7c0 1.4 2.1 2.6 4.8 2.6s4.8-1.1 4.8-2.6v-.7h-9.6z" fill="#f09a12"/><path d="M17.9 16.9v.7c0 .1.1.3.1.4v-.8h.3v1.4l.3.3v-1.3h.4v1.6c.2.1.3.2.5.3v-1.3h.3v1.5c.2.1.4.1.6.2v-1.3h.3V20c.3.1.5.1.8.1v-1.2h.3v1.3h.8v-1.3h.3v1.4h.8V19h.3v1c.3 0 .5-.1.8-.1v-1.4h.3v1.3l.6-.2v-1.5h.3v1.3c.2-.1.3-.2.5-.3v-1.6h.3v1.4l.3-.3v-1.4h.3v.9c.1-.2.1-.3.1-.5v-.7h-9.6z" fill="#f09a12"/><ellipse cx="22.7" cy="16.9" rx="4.8" ry="2.6" fill="#ffbf00"/><path d="M22.7 18.8c-2.4 0-4.3-.9-4.3-2.1s1.9-2.1 4.3-2.1 4.3.9 4.3 2.1-1.9 2.1-4.3 2.1zm0-3.8c-2.3 0-3.9 1-3.9 1.8s1.6 1.6 3.9 1.6 3.9-.8 3.9-1.6S25 15 22.7 15z" fill="#f09a12"/><path d="M22.6 15.5v.3h-1.1v.3h.8l.4.4v.6l-.5.5h-1l-.5-.2.3-.5.4.1h.6l.2-.1v-.2l-.1-.1H21l.3-1 1.3-.1z" fill="#f09a12"/><path d="M24 15.5l.5.3.3 1.3-.4.5h-1l-.5-.5v-1.3l.4-.3h.7zm-.8.4l.1.8.5-.9h-.5l-.1.1zm1 1l-.2-.8-.5 1h.6l.1-.2z" fill="#f09a12"/><path d="M17.9 15.8v.7c0 1.4 2.1 2.6 4.8 2.6s4.8-1.1 4.8-2.6v-.7h-9.6z" fill="#f09a12"/><path d="M17.9 15.8v.7c0 .1 0 .3.1.4v-.8h.3v1.4l.3.3v-1.3h.3v1.6c.2.1.3.2.5.3v-1.3h.3v1.5c.2.1.4.1.6.2v-1.3h.3v1.4c.3.1.5.1.8.2v-1.3h.3V19h.8v-1.3h.3v1.4h.8v-1.3h.4V19c.3 0 .5-.1.8-.1v-1.4h.3v1.3c.2-.1.4-.1.6-.2v-1.5h.3v1.3c.2-.1.3-.2.5-.3v-1.6h.3v1.4l.3-.3v-1.4h.3v.8c.1-.2.1-.3.1-.5v-.7h-9.6z" fill="#f09a12"/><ellipse cx="22.7" cy="15.8" rx="4.8" ry="2.6" fill="#ffbf00"/><path d="M22.7 17.8c-2.4 0-4.3-.9-4.3-2.1s1.9-2.1 4.3-2.1 4.3.9 4.3 2.1-1.9 2.1-4.3 2.1zm0-3.9c-2.3 0-3.9 1-3.9 1.8s1.6 1.6 3.9 1.6 3.9-.8 3.9-1.6-1.6-1.8-3.9-1.8z" fill="#f09a12"/><path d="M22.6 14.4v.3h-1.1v.3h.8l.4.4v.6l-.5.5h-1l-.5-.2.3-.5.4.1h.6l.2-.1v-.2l-.1-.1H21l.3-1 1.3-.1z" fill="#f09a12"/><path d="M24 14.4l.5.3.4 1.3-.4.5h-1.1l-.6-.5v-1.3l.4-.3h.8zm-.8.4l.1.8.5-.9h-.5l-.1.1zm1 1l-.1-.8-.5 1h.6v-.2z" fill="#f09a12"/><path d="M17.9 14.7v.7c0 1.4 2.1 2.6 4.8 2.6s4.8-1.1 4.8-2.6v-.7h-9.6z" fill="#f09a12"/><path d="M17.9 14.7v.7c0 .1 0 .3.1.4V15h.3v1.4l.3.3v-1.3h.3V17c.2.1.3.2.5.3V16h.3v1.5c.2.1.4.1.6.2v-1.3h.3v1.4c.3.1.5.1.8.2v-1.3h.3V18h.8v-1.3h.3V18h.8v-1.3h.4v1.2c.3 0 .5-.1.8-.1v-1.4h.3v1.3c.2-.1.4-.1.6-.2V16h.3v1.3c.2-.1.3-.2.5-.3v-1.6h.3v1.4l.3-.3v-1.4h.3v.9c.1-.2.1-.3.1-.5v-.7l-9.6-.1z" fill="#f09a12"/><ellipse cx="22.7" cy="14.7" rx="4.8" ry="2.6" fill="#ffbf00"/><path d="M22.7 16.7c-2.4 0-4.3-.9-4.3-2.1s1.9-2.1 4.3-2.1 4.3.9 4.3 2.1-1.9 2.1-4.3 2.1zm0-3.9c-2.3 0-3.9 1-3.9 1.8s1.6 1.6 3.9 1.6 3.9-.8 3.9-1.6-1.6-1.8-3.9-1.8z" fill="#f09a12"/><path d="M22.6 13.3v.3h-1.1v.3h.8l.4.4v.6l-.5.5h-1l-.5-.2.3-.5.4.1h.6l.2-.1v-.2l-.1-.1H21l.3-1 1.3-.1z" fill="#f09a12"/><path d="M24 13.3l.5.3.3 1.3-.4.4h-1l-.5-.4v-1.3l.4-.3h.7zm-.8.4l.1.8.5-.9h-.5l-.1.1zm1 1l-.2-.8-.5 1h.6l.1-.2z" fill="#f09a12"/><path d="M17.9 13.7v.7c0 1.4 2.1 2.6 4.8 2.6s4.8-1.1 4.8-2.6v-.7h-9.6z" fill="#f09a12"/><path d="M17.9 13.7v.7c0 .1 0 .3.1.4V14h.3v1.4l.3.3v-1.3h.3V16c.2.1.3.2.5.3V15h.3v1.5c.2.1.4.1.6.2v-1.4h.3v1.4c.2.1.5.1.8.2v-1.3h.3v1.3h.8v-1.3h.3V17h.8v-1.3h.4V17c.3 0 .5-.1.8-.1v-1.5h.3v1.3c.2-.1.4-.1.6-.2V15h.3v1.3c.2-.1.3-.2.5-.3v-1.6h.3v1.4l.3-.3V14h.3v.9c.1-.2.1-.3.1-.5v-.7h-9.6z" fill="#f09a12"/><ellipse cx="22.7" cy="13.7" rx="4.8" ry="2.6" fill="#ffbf00"/><path d="M22.7 15.6c-2.4 0-4.3-.9-4.3-2.1s1.9-2.1 4.3-2.1 4.3.9 4.3 2.1-1.9 2.1-4.3 2.1zm0-3.8c-2.3 0-3.9 1-3.9 1.8s1.6 1.6 3.9 1.6 3.9-.8 3.9-1.6-1.6-1.8-3.9-1.8z" fill="#f09a12"/><path d="M22.6 12.3v.3h-1.1v.3h.8l.4.4v.6l-.5.5h-1l-.5-.2.3-.5.4.1h.6l.2-.1v-.2l-.1-.1H21l.3-1 1.3-.1z" fill="#f09a12"/><path d="M24 12.3l.5.3.3 1.3-.4.4h-1l-.5-.4v-1.3l.4-.3h.7zm-.8.4l.1.8.5-.9h-.5l-.1.1zm1 1l-.2-.8-.5 1h.6l.1-.2z" fill="#f09a12"/><path d="M17.9 12.6v.7c0 1.4 2.1 2.6 4.8 2.6s4.8-1.1 4.8-2.6v-.7h-9.6z" fill="#f09a12"/><path d="M17.9 12.6v.7c0 .1 0 .3.1.4V13h.3v1.4l.3.3v-1.4h.3v1.6c.2.1.3.2.5.3v-1.3h.3v1.4c.2.1.4.1.6.2v-1.3h.3v1.4c.3.1.5.1.8.2v-1.3h.3v1.3c.3 0 .5 0 .8.1v-1.4h.3v1.4h.8v-1.4h.4v1.3c.3 0 .5-.1.8-.1v-1.4h.3v1.3c.2-.1.4-.1.6-.2v-1.5h.3v1.3c.2-.1.3-.2.5-.3v-1.6h.3v1.4l.3-.3V13h.3v.9c.1-.2.1-.3.1-.5v-.7l-9.6-.1z" fill="#f09a12"/><ellipse cx="22.7" cy="12.6" rx="4.8" ry="2.6" fill="#ffbf00"/><path d="M22.7 14.6c-2.4 0-4.3-.9-4.3-2.1s1.9-2.1 4.3-2.1 4.3.9 4.3 2.1-1.9 2.1-4.3 2.1zm0-3.9c-2.3 0-3.9 1-3.9 1.8s1.6 1.6 3.9 1.6 3.9-.8 3.9-1.6-1.6-1.8-3.9-1.8z" fill="#f09a12"/><path d="M22.6 11.2v.3h-1.1v.3h.8l.4.4v.6l-.5.5h-1l-.5-.2.3-.5.4.1h.6l.2-.1v-.2l-.1-.1H21l.3-1 1.3-.1z" fill="#f09a12"/><path d="M24 11.2l.5.3.3 1.3-.4.4h-1l-.5-.4v-1.3l.4-.3h.7zm-.8.4l.1.8.5-.9h-.5l-.1.1zm1 1l-.2-.8-.5 1h.6l.1-.2z" fill="#f09a12"/><path d="M17.9 11.5v.7c0 1.4 2.1 2.6 4.8 2.6s4.8-1.1 4.8-2.6v-.7h-9.6z" fill="#f09a12"/><path d="M17.9 11.5v.7c0 .1 0 .3.1.4v-.8h.3v1.4l.3.3v-1.3h.3v1.6c.2.1.3.2.5.3v-1.3h.3v1.4c.2.1.4.1.6.2v-1.3h.3v1.4c.2.1.5.1.8.2v-1.3h.3v1.3h.8v-1.3h.3v1.4h.8v-1.3h.4v1.2c.3 0 .5-.1.8-.1v-1.4h.3v1.3c.2-.1.4-.1.6-.2v-1.5h.3v1.3c.2-.1.3-.2.5-.3v-1.6h.3v1.4l.3-.3v-1.4h.3v.9c.1-.2.1-.3.1-.5v-.7l-9.6-.1z" fill="#f09a12"/><ellipse cx="22.7" cy="11.5" rx="4.8" ry="2.6" fill="#ffbf00"/><path d="M22.7 13.5c-2.4 0-4.3-.9-4.3-2.1s1.9-2.1 4.3-2.1 4.3.9 4.3 2.1-1.9 2.1-4.3 2.1zm0-3.9c-2.3 0-3.9 1-3.9 1.8s1.6 1.6 3.9 1.6 3.9-.8 3.9-1.6-1.6-1.8-3.9-1.8z" fill="#f09a12"/><path d="M22.6 10.1v.3h-1.1v.3h.8l.4.4v.6l-.5.5h-1l-.7-.2.3-.5.4.1h.6l.2-.1v-.2l-.1-.1h-1.1l.3-1 1.5-.1z" fill="#f09a12"/><path d="M24 10.1l.5.3.3 1.3-.4.4h-1l-.5-.4v-1.3l.4-.3h.7zm-.8.4l.1.8.5-.9h-.5l-.1.1zm1 1l-.2-.8-.5 1h.6l.1-.2z" fill="#f09a12"/><path d="M17.9 10.5v.7c0 1.4 2.1 2.6 4.8 2.6s4.8-1.1 4.8-2.6v-.7h-9.6z" fill="#f09a12"/><path d="M17.9 10.5v.7c0 .1 0 .3.1.4v-.8h.3v1.4l.3.3v-1.3h.3v1.6c.2.1.3.2.5.3v-1.3h.3v1.4c.2.1.4.2.6.2v-1.3h.3v1.4c.2.1.5.1.8.2v-1.3h.3v1.3h.8v-1.3h.3v1.4h.8v-1.3h.4v1.3c.3 0 .5-.1.8-.1v-1.5h.3v1.3c.2-.1.4-.1.6-.2v-1.5h.3V13c.2-.1.3-.2.5-.3v-1.6h.3v1.4l.3-.3v-1.4h.3v.9c.1-.2.1-.3.1-.5v-.7h-9.6z" fill="#f09a12"/><ellipse cx="22.7" cy="10.5" rx="4.8" ry="2.6" fill="#ffbf00"/><path d="M22.7 12.4c-2.4 0-4.3-.9-4.3-2.1s1.9-2.1 4.3-2.1 4.3 1 4.3 2.1-1.9 2.1-4.3 2.1zm0-3.8c-2.3 0-3.9 1-3.9 1.8s1.6 1.7 3.9 1.7 3.9-.8 3.9-1.6-1.6-1.9-3.9-1.9z" fill="#f09a12"/><path d="M22.6 9.1v.3h-1.1v.3h.8l.4.4v.6l-.5.5h-1l-.5-.2.3-.5.4.1h.6l.2-.1v-.2l-.1-.1H21l.3-1 1.3-.1z" fill="#f09a12"/><path d="M24 9.1l.5.3.3 1.3-.4.4h-1l-.5-.4V9.3l.4-.3h.7v.1zm-.8.4l.1.8.5-.9h-.5l-.1.1zm1 1l-.2-.8-.5 1h.6l.1-.2z" fill="#f09a12"/><path d="M17.9 9.4v.7c0 1.4 2.1 2.6 4.8 2.6s4.8-1.1 4.8-2.6v-.7h-9.6z" fill="#f09a12"/><path d="M17.9 9.4v.7c0 .1 0 .3.1.4v-.8h.3v1.4l.3.3v-1.3h.3v1.6c.2.1.3.2.5.3v-1.3h.3v1.4c.2.1.4.1.6.2V11h.3v1.4c.3.1.5.1.8.2v-1.3h.3v1.3h.8v-1.3h.3v1.4h.8v-1.4h.4v1.3c.3 0 .5-.1.8-.1V11h.3v1.3c.2-.1.4-.1.6-.2v-1.5h.3V12c.2-.1.3-.2.5-.3v-1.6h.3v1.4l.3-.3V9.7h.3v.9c.1-.2.1-.3.1-.5v-.7h-9.6z" fill="#f09a12"/><ellipse cx="22.7" cy="9.4" rx="4.8" ry="2.6" fill="#ffbf00"/><path d="M22.7 11.4c-2.4 0-4.3-.9-4.3-2.1s1.9-2.1 4.3-2.1 4.3.9 4.3 2.1-1.9 2.1-4.3 2.1zm0-3.9c-2.3 0-3.9 1-3.9 1.8s1.6 1.6 3.9 1.6 3.9-.8 3.9-1.6-1.6-1.8-3.9-1.8z" fill="#f09a12"/><path d="M22.6 8v.3h-1.1v.3h.8l.3.4v.6l-.5.5h-1l-.5-.2.3-.5.4.1h.6l.1-.1v-.3l-.1-.1h-1.1l.3-1h1.5z" fill="#f09a12"/><path d="M24 8l.5.3.3 1.3-.4.4h-1l-.5-.4V8.3l.3-.3h.8zm-.8.4l.1.8.5-.9h-.5l-.1.1zm1 1l-.2-.8-.5 1h.6l.1-.2z" fill="#f09a12"/><path d="M17.9 8.3V9c0 1.4 2.1 2.6 4.8 2.6s4.8-1.1 4.8-2.6v-.7h-9.6z" fill="#f09a12"/><path d="M17.9 8.3V9c0 .1 0 .3.1.4v-.7h.3V10l.3.3V9h.3v1.6c.2.1.3.2.5.3V9.6h.3V11c.2.1.4.1.6.2V9.9h.3v1.4c.3.1.5.1.8.2v-1.3h.3v1.3c.3 0 .5 0 .8.1v-1.4h.3v1.4h.8v-1.4h.4v1.3c.3 0 .5-.1.8-.1V9.9h.3v1.3c.2-.1.4-.1.6-.2V9.6h.3v1.3c.2-.1.3-.2.5-.3V9h.3v1.4l.3-.3V8.7h.3v.9c.1-.2.1-.3.1-.5v-.8h-9.6z" fill="#f09a12"/><ellipse cx="22.7" cy="8.3" rx="4.8" ry="2.6" fill="#ffbf00"/><path d="M22.7 10.3c-2.4 0-4.3-.9-4.3-2.1s1.9-2.1 4.3-2.1S27 7 27 8.2s-1.9 2.1-4.3 2.1zm0-3.9c-2.3 0-3.9 1-3.9 1.8s1.6 1.6 3.9 1.6 3.9-.8 3.9-1.6-1.6-1.8-3.9-1.8z" fill="#f09a12"/><path d="M22.6 6.9v.3h-1.1v.3h.8l.4.3v.6l-.6.6h-1l-.5-.2.3-.5.4.1h.6l.1-.1v-.2l-.1-.1h-1.1l.3-1 1.5-.1z" fill="#f09a12"/><path d="M24 6.9l.5.3.3 1.3-.4.5h-1.1l-.5-.4V7.2l.4-.3h.8zm-.8.4l.1.8.5-.9h-.5l-.1.1zm1 1l-.2-.8-.5 1h.6l.1-.2z" fill="#f09a12"/><path d="M17.9 7.3V8c0 1.4 2.1 2.6 4.8 2.6s4.8-1.2 4.8-2.6v-.7h-9.6z" fill="#f09a12"/><path d="M17.9 7.3V8c0 .1.1.3.1.4v-.8h.3V9l.3.3V8h.4v1.5c.2.1.3.2.5.3V8.5h.3V10c.2.1.4.1.6.2V8.9h.3v1.4c.2.1.5.1.8.2V9.2h.3v1.3h.8V9.2h.3v1.4h.8V9.2h.3v1.3c.3 0 .5-.1.8-.1V8.9h.3v1.3c.2-.1.4-.1.6-.2V8.5h.3v1.3c.2-.1.3-.2.5-.3V8h.3v1.3l.3-.3V7.6h.3v.9c.1-.2.1-.3.1-.5v-.7h-9.6z" fill="#f09a12"/><ellipse cx="22.7" cy="7.3" rx="4.8" ry="2.6" fill="#ffbf00"/><path d="M22.7 9.2c-2.4 0-4.3-.9-4.3-2.1S20.3 5 22.7 5 27 6 27 7.1s-1.9 2.1-4.3 2.1zm0-3.9c-2.3 0-3.9 1-3.9 1.8s1.6 1.6 3.9 1.6 3.9-.8 3.9-1.6-1.6-1.8-3.9-1.8z" fill="#f09a12"/><path d="M31 23v.7c0 1.4 2.2 2.6 4.8 2.6s4.8-1.1 4.8-2.6V23H31z" fill="#f09a12"/><path d="M31 22.8v.7c0 .1 0 .3.1.4v-.8h.3v1.4l.3.3v-1.3h.3v1.6c.2.1.3.2.5.3v-1.3h.3v1.5c.2.1.4.1.6.2v-1.3h.3v1.3c.2.1.5.1.8.2v-1.2h.3v1.3h.8v-1.3h.4v1.3h.8v-1.3h.3v1.3c.3 0 .5-.1.8-.1v-1.5h.3v1.3c.2-.1.4-.1.6-.2v-1.5h.3v1.3c.2-.1.3-.2.5-.3v-1.6h.3v1.4l.3-.3v-1.4h.3v.9c.1-.2.1-.3.1-.5v-.8H31z" fill="#f09a12"/><ellipse cx="35.8" cy="23" rx="4.8" ry="2.6" fill="#ffbf00"/><path d="M35.8 25c-2.4 0-4.3-.9-4.3-2.1s1.9-2.1 4.3-2.1 4.3.9 4.3 2.1-1.9 2.1-4.3 2.1zm0-3.9c-2.3 0-3.9 1-3.9 1.8s1.6 1.6 3.9 1.6 3.9-.8 3.9-1.6-1.6-1.8-3.9-1.8z" fill="#f09a12"/><path d="M35.7 21.6v.4h-1.1v.3h.8l.4.4v.6l-.5.5h-1l-.5-.2.2-.6.4.1h.6l.2-.1v-.2l-.2-.1h-1.1l.3-1 1.5-.1z" fill="#f09a12"/><path d="M37.2 21.6l.5.3.4 1.3-.4.5h-1.1l-.6-.5v-1.3l.4-.3h.8zm-.8.5l.1.8.5-.9h-.5l-.1.1zm1 1l-.2-.8-.5 1h.6l.1-.2z" fill="#f09a12"/><path d="M31 22v.7c0 1.4 2.2 2.6 4.8 2.6s4.8-1.1 4.8-2.6V22H31z" fill="#f09a12"/><path d="M31 22v.7c0 .1 0 .3.1.4v-.8h.3v1.4l.3.3v-1.3h.3v1.6c.1.1.3.2.5.3v-1.3h.3v1.5c.2.1.4.2.6.2v-1.3h.3V25c.2.1.5.1.8.2v-1.3h.3v1.3h.8v-1.3h.4v1.4h.8V24h.3v1.3c.3 0 .5-.1.8-.1v-1.5h.3V25c.2-.1.4-.1.6-.2v-1.5h.3v1.3c.2-.1.3-.2.5-.3v-1.6h.3V24l.3-.3v-1.4h.3v.9c.1-.2.1-.3.1-.5V22H31z" fill="#f09a12"/><ellipse cx="35.8" cy="22" rx="4.8" ry="2.6" fill="#ffbf00"/><path d="M35.8 24c-2.4 0-4.3-.9-4.3-2.1s1.9-2.1 4.3-2.1 4.3.9 4.3 2.1-1.9 2.1-4.3 2.1zm0-3.9c-2.3 0-3.9 1-3.9 1.8s1.6 1.6 3.9 1.6 3.9-.8 3.9-1.6-1.6-1.8-3.9-1.8z" fill="#f09a12"/><path d="M35.7 20.6v.3h-1.1v.3h.8l.4.4v.6l-.5.5h-1l-.5-.2.2-.5.4.1h.6l.2-.1v-.2l-.2-.2h-1.1l.3-1h1.5z" fill="#f09a12"/><path d="M37.2 20.6l.5.3.4 1.3-.4.5h-1.1l-.6-.5v-1.3l.4-.3h.8zm-.8.4l.1.8.5-.9h-.5l-.1.1zm1 1l-.2-.8-.5 1h.6l.1-.2z" fill="#f09a12"/><path d="M31 20.9v.7c0 1.4 2.2 2.5 4.8 2.5s4.8-1.1 4.8-2.5v-.7H31z" fill="#f09a12"/><path d="M31 20.9v.7c0 .1 0 .3.1.4v-.8h.3v1.4l.3.3v-1.3h.3v1.6c.2.1.3.2.5.3v-1.3h.3v1.5c.2.1.4.1.6.2v-1.3h.3V24c.3.1.5.1.8.2v-1.3h.3v1.3h.8v-1.3h.4v1.4h.8v-1.4h.3v1.3c.3 0 .5-.1.8-.1v-1.4h.3V24c.2-.1.4-.1.6-.2v-1.5h.3v1.3c.2-.1.3-.2.5-.3v-1.6h.3V23l.3-.3v-1.4h.3v.9c.1-.2.1-.3.1-.5V21l-9.6-.1z" fill="#f09a12"/><ellipse cx="35.8" cy="20.9" rx="4.8" ry="2.6" fill="#ffbf00"/><path d="M35.8 22.9c-2.4 0-4.3-.9-4.3-2.1s1.9-2.1 4.3-2.1 4.3.9 4.3 2.1-1.9 2.1-4.3 2.1zm0-3.9c-2.3 0-3.9 1-3.9 1.8s1.6 1.6 3.9 1.6 3.9-.8 3.9-1.6-1.6-1.8-3.9-1.8z" fill="#f09a12"/><path d="M35.7 19.5v.3h-1.1v.3h.8l.4.4v.6l-.5.5h-1l-.5-.2.3-.5.4.1h.5l.2-.1v-.2l-.2-.2h-1.1l.3-1h1.5z" fill="#f09a12"/><path d="M37.2 19.5l.5.3.4 1.3-.4.5h-1.1l-.6-.5v-1.3l.4-.3h.8zm-.8.4l.1.8.5-.9h-.5l-.1.1zm1 1l-.2-.8-.5 1h.6l.1-.2z" fill="#f09a12"/><path d="M31 19.8v.7c0 1.4 2.2 2.6 4.8 2.6s4.8-1.1 4.8-2.6v-.7H31z" fill="#f09a12"/><path d="M31 19.8v.7c0 .1 0 .3.1.4v-.8h.3v1.4l.3.3v-1.3h.3v1.6c.2.1.3.2.5.3v-1.3h.3v1.5c.2.1.4.2.6.2v-1.3h.3v1.4c.3.1.5.1.8.2v-1.3h.3V23h.8v-1.3h.4v1.4h.8v-1.4h.3V23c.3 0 .5-.1.8-.1v-1.4h.3v1.3c.2-.1.4-.1.6-.2v-1.5h.3v1.3c.2-.1.3-.2.5-.3v-1.6h.3v1.4l.3-.3v-1.4h.3v.9c.1-.2.1-.3.1-.5v-.7l-9.6-.1z" fill="#f09a12"/><ellipse cx="35.8" cy="19.8" rx="4.8" ry="2.6" fill="#ffbf00"/><path d="M35.8 21.8c-2.4 0-4.3-.9-4.3-2.1s1.9-2.1 4.3-2.1 4.3.9 4.3 2.1-1.9 2.1-4.3 2.1zm0-3.9c-2.3 0-3.9 1-3.9 1.8s1.6 1.6 3.9 1.6 3.9-.8 3.9-1.6-1.6-1.8-3.9-1.8z" fill="#f09a12"/><path d="M35.7 18.4v.3h-1.1v.3h.8l.4.4v.6l-.5.5h-1l-.5-.2.3-.5.4.1h.5l.2-.1v-.2l-.2-.1h-1.1l.3-1 1.5-.1z" fill="#f09a12"/><path d="M37.2 18.4l.5.3.3 1.3-.4.5h-1.1L36 20v-1.3l.4-.3h.8zm-.8.4l.1.8.5-.9h-.5l-.1.1zm1 1l-.2-.8-.5 1h.6l.1-.2z" fill="#f09a12"/><path d="M31 18.8v.7c0 1.4 2.2 2.5 4.8 2.5s4.8-1.1 4.8-2.6v-.7l-9.6.1z" fill="#f09a12"/><path d="M31 18.8v.7c0 .1 0 .3.1.4v-.8h.3v1.4l.3.3v-1.3h.3v1.6c.2.1.3.2.5.3V20h.3v1.5c.2.1.4.1.6.2v-1.3h.3v1.4c.3.1.5.1.8.2v-1.3h.3V22h.8v-1.3h.4V22h.8v-1.3h.3V22c.3 0 .5-.1.8-.1v-1.4h.3v1.3c.2-.1.4-.1.6-.2V20h.3v1.3c.2-.1.3-.2.5-.3v-1.6h.3v1.4l.3-.3v-1.4h.3v.9c.1-.2.1-.3.1-.5v-.7H31z" fill="#f09a12"/><ellipse cx="35.8" cy="18.8" rx="4.8" ry="2.6" fill="#ffbf00"/><path d="M35.8 20.7c-2.4 0-4.3-.9-4.3-2.1s1.9-2.1 4.3-2.1 4.3.9 4.3 2.1-1.9 2.1-4.3 2.1zm0-3.8c-2.3 0-3.9 1-3.9 1.8s1.6 1.6 3.9 1.6 3.9-.8 3.9-1.6-1.6-1.8-3.9-1.8z" fill="#f09a12"/><path d="M35.7 17.4v.3h-1.1v.3h.8l.4.4v.6l-.5.5h-1l-.5-.2.3-.5.4.1h.5l.2-.1v-.2l-.2-.2h-1.1l.3-1h1.5z" fill="#f09a12"/><path d="M37.2 17.4l.5.3.3 1.3-.4.5h-1.1L36 19v-1.3l.4-.3h.8zm-.8.4l.1.8.5-.9h-.5l-.1.1zm1 1l-.2-.8-.5 1h.6l.1-.2z" fill="#f09a12"/><path d="M31 17.7v.7c0 1.4 2.2 2.6 4.8 2.6s4.8-1.1 4.8-2.6v-.7H31z" fill="#f09a12"/><path d="M31 17.7v.7c0 .1 0 .3.1.4V18h.3v1.4l.3.3v-1.3h.3V20c.2.1.3.2.5.3V19h.3v1.5c.2.1.4.1.6.2v-1.4h.3v1.4c.3.1.5.1.8.2v-1.3h.3v1.3h.8v-1.3h.4V21h.8v-1.3h.3V21c.3 0 .5-.1.8-.1v-1.5h.3v1.3c.2-.1.4-.1.6-.2V19h.3v1.3c.2-.1.3-.2.5-.3v-1.6h.3v1.4l.3-.3v-1.4h.3v.9c.1-.2.1-.3.1-.5v-.7l-9.6-.1z" fill="#f09a12"/><ellipse cx="35.8" cy="17.7" rx="4.8" ry="2.6" fill="#ffbf00"/><path d="M35.8 19.7c-2.4 0-4.3-.9-4.3-2.1s1.9-2.1 4.3-2.1 4.3.9 4.3 2.1-1.9 2.1-4.3 2.1zm0-3.9c-2.3 0-3.9 1-3.9 1.8s1.6 1.6 3.9 1.6 3.9-.8 3.9-1.6-1.6-1.8-3.9-1.8z" fill="#f09a12"/><path d="M35.7 16.3v.3h-1.1v.3h.8l.4.4v.6l-.5.5h-1l-.5-.2.3-.5.4.1h.5l.2-.1v-.2l-.2-.2h-1.1l.3-1h1.5z" fill="#f09a12"/><path d="M37.2 16.3l.5.3.4 1.3-.4.5h-1.1l-.6-.5v-1.3l.4-.3h.8zm-.8.4l.1.8.5-.9h-.5l-.1.1zm1 1l-.2-.8-.5 1h.6l.1-.2z" fill="#f09a12"/><path d="M31 16.6v.7c0 1.4 2.2 2.6 4.8 2.6s4.8-1.1 4.8-2.6v-.7H31z" fill="#f09a12"/><path d="M31 16.6v.7c0 .1 0 .3.1.4V17h.3v1.4l.3.3v-1.3h.3V19c.2.1.3.2.5.3V18h.3v1.5c.2.1.4.1.6.2v-1.3h.3v1.4c.2.1.5.1.8.2v-1.3h.3V20h.8v-1.3h.4v1.4h.8v-1.4h.3V20c.3 0 .5-.1.8-.1v-1.4h.3v1.3c.2-.1.4-.1.6-.2v-1.5h.3v1.3c.2-.1.3-.2.5-.3v-1.6h.3v1.4l.3-.3V17h.3v.9c.1-.2.1-.3.1-.5v-.7l-9.6-.1z" fill="#f09a12"/><ellipse cx="35.8" cy="16.6" rx="4.8" ry="2.6" fill="#ffbf00"/><path d="M35.8 18.6c-2.4 0-4.3-.9-4.3-2.1s1.9-2.1 4.3-2.1 4.3.9 4.3 2.1-1.9 2.1-4.3 2.1zm0-3.9c-2.3 0-3.9 1-3.9 1.8s1.6 1.6 3.9 1.6 3.9-.8 3.9-1.6-1.6-1.8-3.9-1.8z" fill="#f09a12"/><path d="M35.7 15.2v.3h-1.1v.3h.8l.4.4v.6l-.5.5h-1l-.5-.2.3-.5.4.1h.5l.2-.1v-.2l-.2-.1h-1.1l.3-1 1.5-.1z" fill="#f09a12"/><path d="M37.2 15.2l.5.3.4 1.3-.4.5h-1.1l-.6-.5v-1.3l.4-.3h.8zm-.8.5l.1.8.5-.9-.6.1zm1 1l-.2-.8-.5 1h.6l.1-.2z" fill="#f09a12"/><path d="M31 15.6v.7c0 1.4 2.2 2.6 4.8 2.6s4.8-1.1 4.8-2.6v-.7H31z" fill="#f09a12"/><path d="M31 15.6v.7c0 .1 0 .3.1.4v-.8h.3v1.4l.3.3v-1.3h.3v1.6c.2.1.3.2.5.3v-1.3h.3v1.5c.2.1.4.1.6.2v-1.3h.3v1.4c.3.1.5.1.8.2v-1.3h.3v1.3h.8v-1.3h.4V19h.8v-1.3h.3V19c.3 0 .5-.1.8-.1v-1.5h.3v1.3c.2-.1.4-.1.6-.2V17h.3v1.3c.2-.1.3-.2.5-.3v-1.6h.3v1.4l.3-.3v-1.4h.3v.9c.1-.2.1-.3.1-.5v-.7l-9.6-.2z" fill="#f09a12"/><ellipse cx="35.8" cy="15.6" rx="4.8" ry="2.6" fill="#ffbf00"/><path d="M35.8 17.5c-2.4 0-4.3-.9-4.3-2.1s1.9-2.1 4.3-2.1 4.3.9 4.3 2.1-1.9 2.1-4.3 2.1zm0-3.8c-2.3 0-3.9 1-3.9 1.8s1.6 1.6 3.9 1.6 3.9-.8 3.9-1.6-1.6-1.8-3.9-1.8z" fill="#f09a12"/><path d="M35.7 14.2v.3h-1.1v.3h.8l.4.4v.6l-.5.5h-1l-.6-.3.3-.5.4.1h.6l.2-.1v-.2l-.2-.1h-1.1l.3-1h1.5z" fill="#f09a12"/><path d="M37.2 14.2l.5.3.4 1.3-.4.5h-1.1l-.6-.5v-1.3l.4-.3h.8zm-.8.4l.1.8.5-.9-.6.1zm1 1l-.2-.8-.5 1h.6l.1-.2z" fill="#f09a12"/><path d="M31 14.5v.7c0 1.4 2.2 2.6 4.8 2.6s4.8-1.1 4.8-2.6v-.7H31z" fill="#f09a12"/><path d="M31 14.5v.7c0 .1 0 .3.1.4v-.8h.3v1.4l.3.3v-1.3h.3v1.6c.2.1.3.2.5.3v-1.3h.3v1.5c.2.1.4.1.6.2v-1.3h.3v1.4c.3.1.5.1.8.2v-1.3h.3v1.3h.8v-1.3h.4v1.4h.8v-1.3h.3v1.3c.3 0 .5-.1.8-.1v-1.5h.3v1.3c.2-.1.4-.1.6-.2v-1.5h.3v1.3c.2-.1.3-.2.5-.3v-1.6h.3v1.4l.3-.3V15h.3v.9c.1-.2.1-.3.1-.5v-.7l-9.6-.2z" fill="#f09a12"/><ellipse cx="35.8" cy="14.5" rx="4.8" ry="2.6" fill="#ffbf00"/><path d="M35.8 16.5c-2.4 0-4.3-.9-4.3-2.1s1.9-2.1 4.3-2.1 4.3.9 4.3 2.1-1.9 2.1-4.3 2.1zm0-3.9c-2.3 0-3.9 1-3.9 1.8s1.6 1.6 3.9 1.6 3.9-.8 3.9-1.6-1.6-1.8-3.9-1.8z" fill="#f09a12"/><path d="M35.7 13.1v.3h-1.1v.3h.8l.4.4v.6l-.5.5h-1l-.6-.2.3-.5.4.1h.6l.2-.1v-.2l-.2-.2h-1.1l.3-1h1.5z" fill="#f09a12"/><path d="M37.2 13.1l.5.3.4 1.3-.4.4h-1.1l-.6-.4v-1.3l.4-.3h.8zm-.8.4l.1.8.5-.9-.6.1zm1 1l-.2-.8-.5 1h.6l.1-.2z" fill="#f09a12"/><path d="M31 13.4v.7c0 1.4 2.2 2.6 4.8 2.6s4.8-1.1 4.8-2.6v-.7H31z" fill="#f09a12"/><path d="M31 13.4v.7c0 .1 0 .3.1.4v-.8h.3v1.4l.3.3v-1.3h.3v1.6c.2.1.3.2.5.3v-1.3h.3v1.5c.2.1.4.2.6.2V15h.3v1.4c.3.1.5.1.8.2v-1.2h.3v1.3h.8v-1.3h.4v1.4h.8v-1.3h.3v1.3c.3 0 .5-.1.8-.1V15h.3v1.3c.2-.1.4-.1.6-.2v-1.4h.3V16c.2-.1.3-.2.5-.3v-1.6h.3v1.4l.3-.3v-1.4h.3v.9c.1-.2.1-.3.1-.5v-.7l-9.6-.1z" fill="#f09a12"/><ellipse cx="35.8" cy="13.4" rx="4.8" ry="2.6" fill="#ffbf00"/><path d="M35.8 15.4c-2.4 0-4.3-.9-4.3-2.1s1.9-2.1 4.3-2.1 4.3.9 4.3 2.1-1.9 2.1-4.3 2.1zm0-3.9c-2.3 0-3.9 1-3.9 1.8s1.6 1.7 3.9 1.7 3.9-.8 3.9-1.6-1.6-1.9-3.9-1.9z" fill="#f09a12"/><path d="M26.1 28.3v.7c0 1.4 2.1 2.6 4.8 2.6s4.8-1.1 4.8-2.6v-.7h-9.6z" fill="#f09a12"/><path d="M26.1 27.9v.7c0 .1 0 .3.1.4v-.8h.3v1.4l.3.3v-1.3h.3v1.6c.2.1.3.2.5.3v-1.3h.3v1.4c.2.1.4.1.6.2v-1.3h.3v1.4c.2.1.5.1.8.2v-1.3h.3v1.3h.8v-1.3h.3v1.4h.8v-1.4h.3v1.3c.3 0 .5-.1.8-.1v-1.4h.3v1.3c.2-.1.4-.1.6-.2v-1.5h.3v1.3c.2-.1.3-.2.5-.3v-1.6h.4V30l.3-.3v-1.4h.3v.9c.1-.2.1-.3.1-.5V28h-9.6v-.1z" fill="#f09a12"/><ellipse cx="30.9" cy="28.3" rx="4.8" ry="2.6" fill="#ffbf00"/><path d="M30.9 30.3c-2.4 0-4.3-.9-4.3-2.1s1.9-2.1 4.3-2.1 4.3.9 4.3 2.1-1.9 2.1-4.3 2.1zm0-3.9c-2.3 0-3.9 1-3.9 1.8s1.6 1.6 3.9 1.6 3.9-.8 3.9-1.6-1.6-1.8-3.9-1.8z" fill="#f09a12"/><path d="M30.7 26.9v.3h-1.1v.3h.8l.4.4v.6l-.5.5h-1l-.5-.2.3-.5.4.1h.5l.2-.1V28l-.2-.1h-1l.3-1h1.4z" fill="#f09a12"/><path d="M32.2 26.9l.5.3.3 1.3-.4.5h-1l-.6-.5v-1.3l.4-.3h.8zm-.7.4l.1.8.5-.9h-.5l-.1.1zm1 1l-.2-.8-.5 1h.6l.1-.2z" fill="#f09a12"/><path d="M26.1 27.2v.7c0 1.4 2.1 2.6 4.8 2.6s4.8-1.1 4.8-2.6v-.7h-9.6z" fill="#f09a12"/><path d="M26.1 27.2v.7c0 .1 0 .3.1.4v-.8h.3V29l.3.3v-1.4h.3v1.6c.1.1.3.2.5.3v-1.3h.3V30c.2.1.4.2.6.2v-1.3h.3v1.4c.2.1.5.1.8.2v-1.3h.3v1.3h.8v-1.3h.3v1.4h.8v-1.3h.3v1.2c.3 0 .5-.1.8-.1V29h.3v1.3c.2-.1.4-.1.6-.2v-1.5h.3v1.3c.2-.1.3-.2.5-.3V28h.4v1.4l.3-.3v-1.4h.3v.9c.1-.2.1-.3.1-.5v-.7h-9.6v-.2z" fill="#f09a12"/><ellipse cx="30.9" cy="27.2" rx="4.8" ry="2.6" fill="#ffbf00"/><path d="M30.9 29.2c-2.4 0-4.3-.9-4.3-2.1s1.9-2.1 4.3-2.1 4.3.9 4.3 2.1-1.9 2.1-4.3 2.1zm0-3.9c-2.3 0-3.9 1-3.9 1.8s1.6 1.6 3.9 1.6 3.9-.8 3.9-1.6-1.6-1.8-3.9-1.8z" fill="#f09a12"/><path d="M30.7 25.8v.3h-1.1v.3h.8l.4.4v.6l-.5.5h-1l-.5-.2.3-.5.4.1h.5l.2-.1V27l-.2-.1h-1l.3-1 1.4-.1z" fill="#f09a12"/><path d="M32.2 25.8l.5.3.3 1.3-.4.5h-1l-.6-.5v-1.3l.4-.3h.8zm-.7.4l.1.8.5-.9h-.5l-.1.1zm1 1l-.2-.8-.5 1h.6l.1-.2z" fill="#f09a12"/><path d="M26.1 26.2v.7c0 1.4 2.1 2.6 4.8 2.6s4.8-1.1 4.8-2.6v-.7h-9.6z" fill="#f09a12"/><path d="M26.1 26.2v.7c0 .1 0 .3.1.4v-.8h.3v1.4l.3.3v-1.3h.3v1.6c.2.1.3.2.5.3v-1.3h.3V29c.2.1.4.1.6.2v-1.3h.3v1.4c.3.1.5.1.8.2v-1.3h.3v1.3h.8v-1.3h.3v1.4h.8v-1.4h.3v1.3c.3 0 .5-.1.8-.1V28h.3v1.3c.2-.1.4-.1.6-.2v-1.5h.3v1.3c.2-.1.3-.2.5-.3V27h.4v1.4l.3-.3v-1.4h.3v.9c.1-.2.1-.3.1-.5v-.7h-9.6v-.2z" fill="#f09a12"/><ellipse cx="30.9" cy="26.2" rx="4.8" ry="2.6" fill="#ffbf00"/><path d="M30.9 28.1c-2.4 0-4.3-.9-4.3-2.1s1.9-2 4.3-2 4.3.9 4.3 2.1-1.9 2-4.3 2zm0-3.9c-2.3 0-3.9 1-3.9 1.8s1.6 1.6 3.9 1.6 3.9-.8 3.9-1.6-1.6-1.8-3.9-1.8z" fill="#f09a12"/><path d="M30.7 24.8v.3h-1.1v.3h.8l.4.4v.6l-.5.5h-1l-.5-.2.3-.5.4.1h.5l.2-.1V26l-.2-.2h-1l.3-1h1.4z" fill="#f09a12"/><path d="M32.2 24.8l.5.3.3 1.3-.4.5h-1l-.6-.5V25l.4-.3.8.1zm-.7.4l.1.8.5-.9h-.5l-.1.1zm1 1l-.2-.8-.5 1h.6l.1-.2z" fill="#f09a12"/><path d="M26.1 25.1v.7c0 1.4 2.1 2.6 4.8 2.6s4.8-1.1 4.8-2.6v-.7h-9.6z" fill="#f09a12"/><path d="M26.1 25.1v.7c0 .1 0 .3.1.4v-.8h.3v1.4l.3.3v-1.3h.3v1.6c.2.1.3.2.5.3v-1.3h.3v1.5c.2.1.4.2.6.2v-1.3h.3v1.4c.3.1.5.1.8.2V27h.3v1.3h.8V27h.3v1.4h.8V27h.3v1.3c.3 0 .5-.1.8-.1v-1.4h.3V28c.2-.1.4-.1.6-.2v-1.4h.3v1.3c.2-.1.3-.2.5-.3v-1.6h.4v1.4l.3-.3v-1.4h.3v.9c.1-.2.1-.3.1-.5v-.7l-9.6-.1z" fill="#f09a12"/><ellipse cx="30.9" cy="25.1" rx="4.8" ry="2.6" fill="#ffbf00"/><path d="M30.9 27.1c-2.4 0-4.3-.9-4.3-2.1s1.9-2.1 4.3-2.1 4.3.9 4.3 2.1-1.9 2.1-4.3 2.1zm0-3.9c-2.3 0-3.9 1-3.9 1.8s1.6 1.6 3.9 1.6 3.9-.8 3.9-1.6-1.6-1.8-3.9-1.8z" fill="#f09a12"/><path d="M30.7 23.7v.3h-1.1v.3h.8l.4.4v.6l-.5.5h-1l-.5-.2.3-.5.4.1h.5l.2-.1v-.2l-.2-.2h-1l.3-1h1.4z" fill="#f09a12"/><path d="M32.2 23.7l.5.3.3 1.3-.4.5h-1l-.6-.5V24l.4-.3h.8zm-.7.4l.1.8.5-.9h-.5l-.1.1zm1 1l-.2-.8-.5 1h.6l.1-.2z" fill="#f09a12"/><path d="M26.1 24v.7c0 1.4 2.1 2.6 4.8 2.6s4.8-1.1 4.8-2.6V24h-9.6z" fill="#f09a12"/><path d="M26.1 24v.7c0 .1 0 .3.1.4v-.8h.3v1.4l.3.3v-1.3h.3v1.6c.2.1.3.2.5.3v-1.3h.3v1.5c.2.1.4.1.6.2v-1.3h.3V27c.3.1.5.1.8.2V26h.3v1.3h.8V26h.3v1.4h.8V26h.3v1.3c.3 0 .5-.1.8-.1v-1.5h.3V27c.2-.1.4-.1.6-.2v-1.5h.3v1.3c.2-.1.3-.2.5-.3v-1.6h.4v1.4l.3-.3v-1.4h.3v.9c.1-.2.1-.3.1-.5V24h-9.6z" fill="#f09a12"/><ellipse cx="30.9" cy="24" rx="4.8" ry="2.6" fill="#ffbf00"/><path d="M30.9 26c-2.4 0-4.3-.9-4.3-2.1s1.9-2.1 4.3-2.1 4.3.9 4.3 2.1-1.9 2.1-4.3 2.1zm0-3.9c-2.3 0-3.9 1-3.9 1.8s1.6 1.6 3.9 1.6 3.9-.8 3.9-1.6-1.6-1.8-3.9-1.8z" fill="#f09a12"/><path d="M30.7 22.6v.4h-1.1v.3h.8l.4.4v.6l-.5.5h-1l-.5-.2.2-.6.4.1h.6l.2-.1v-.2l-.2-.2h-1l.3-1h1.4z" fill="#f09a12"/><path d="M32.2 22.6l.5.3.3 1.3-.4.5h-1l-.6-.5v-1.3l.4-.3h.8zm-.7.4l.1.8.5-.9h-.5l-.1.1zm1 1l-.2-.8-.5 1h.6l.1-.2z" fill="#f09a12"/><path d="M26.1 23v.7c0 1.4 2.1 2.6 4.8 2.6s4.8-1.1 4.8-2.6V23h-9.6z" fill="#f09a12"/><path d="M26.1 23v.7c0 .1 0 .3.1.4v-.8h.3v1.4l.3.3v-1.4h.3v1.6c.2.1.3.2.5.3v-1.3h.3v1.5c.2.1.4.1.6.2v-1.3h.3V26c.3.1.5.1.8.2v-1.3h.3v1.3h.8v-1.3h.3v1.4h.8V25h.3v1.3c.3 0 .5-.1.8-.1v-1.5h.3V26c.2-.1.4-.1.6-.2v-1.5h.3v1.3c.2-.1.3-.2.5-.3v-1.6h.4V25l.3-.3v-1.4h.3v.9c.1-.2.1-.3.1-.5V23h-9.6z" fill="#f09a12"/><ellipse cx="30.9" cy="23" rx="4.8" ry="2.6" fill="#ffbf00"/><path d="M30.9 24.9c-2.4 0-4.3-.9-4.3-2.1s1.9-2.1 4.3-2.1 4.3.9 4.3 2.1-1.9 2.1-4.3 2.1zm0-3.9c-2.3 0-3.9 1-3.9 1.8s1.6 1.6 3.9 1.6 3.9-.8 3.9-1.6-1.6-1.8-3.9-1.8z" fill="#f09a12"/><path d="M30.7 21.5v.3h-1.1v.3h.8l.4.4v.6l-.5.5h-1l-.5-.2.2-.4.4.1h.6l.2-.1v-.2l-.2-.2h-1l.3-1 1.4-.1z" fill="#f09a12"/><path d="M32.2 21.5l.5.3.3 1.3-.4.5h-1l-.6-.4v-1.3l.4-.3.8-.1zm-.7.5l.1.8.5-.9h-.5l-.1.1zm1 1l-.2-.8-.5 1h.6l.1-.2z" fill="#f09a12"/><path d="M26.1 21.9v.7c0 1.4 2.1 2.6 4.8 2.6s4.8-1.1 4.8-2.6v-.7h-9.6z" fill="#f09a12"/><path d="M26.1 21.9v.7c0 .1 0 .3.1.4v-.8h.3v1.4l.3.3v-1.3h.3v1.6c.2.1.3.2.5.3v-1.3h.3v1.5c.2.1.4.1.6.2v-1.3h.3V25c.2.1.5.1.8.2v-1.3h.3v1.3h.8v-1.3h.3v1.4h.8v-1.4h.3V25c.3 0 .5-.1.8-.1v-1.4h.3v1.3c.2-.1.4-.1.6-.2v-1.5h.3v1.3c.2-.1.3-.2.5-.3v-1.6h.4v1.4l.3-.3v-1.4h.3v.9c.1-.2.1-.3.1-.5v-.7h-9.6z" fill="#f09a12"/><ellipse cx="30.9" cy="21.9" rx="4.8" ry="2.6" fill="#ffbf00"/><path d="M30.9 23.9c-2.4 0-4.3-.9-4.3-2.1s1.9-2.1 4.3-2.1 4.3.9 4.3 2.1-1.9 2.1-4.3 2.1zm0-3.9c-2.3 0-3.9 1-3.9 1.8s1.6 1.6 3.9 1.6 3.9-.8 3.9-1.6-1.6-1.8-3.9-1.8z" fill="#f09a12"/><path d="M30.7 20.5v.3h-1.1v.3h.8l.4.4v.6l-.5.5h-1l-.5-.2.3-.5.4.1h.5l.2-.1v-.2l-.2-.2h-1l.3-1h1.4z" fill="#f09a12"/><path d="M32.2 20.5l.5.3.3 1.3-.4.5h-1l-.6-.5v-1.3l.4-.3h.8zm-.7.4l.1.8.5-.9h-.5l-.1.1zm1 1l-.2-.8-.5 1h.6l.1-.2z" fill="#f09a12"/><path d="M26.1 20.8v.7c0 1.4 2.1 2.6 4.8 2.6s4.8-1.1 4.8-2.6v-.7h-9.6z" fill="#f09a12"/><path d="M26.1 20.8v.7c0 .1 0 .3.1.4v-.8h.3v1.4l.3.3v-1.3h.3v1.6c.2.1.3.2.5.3v-1.3h.3v1.5c.2.1.4.1.6.2v-1.3h.3v1.4c.3.1.5.1.8.2v-1.3h.3V24h.8v-1.3h.3v1.4h.8v-1.3h.3V24c.3 0 .5-.1.8-.1v-1.4h.3v1.3c.2-.1.4-.1.6-.2v-1.5h.3v1.3c.2-.1.3-.2.5-.3v-1.6h.4v1.4l.3-.3v-1.4h.3v.8c.1-.2.1-.3.1-.5v-.7h-9.6z" fill="#f09a12"/><ellipse cx="30.9" cy="20.8" rx="4.8" ry="2.6" fill="#ffbf00"/><path d="M30.9 22.8c-2.4 0-4.3-.9-4.3-2.1s1.9-2.1 4.3-2.1 4.3.9 4.3 2.1-1.9 2.1-4.3 2.1zm0-3.9c-2.3 0-3.9 1-3.9 1.8s1.6 1.6 3.9 1.6 3.9-.8 3.9-1.6-1.6-1.8-3.9-1.8z" fill="#f09a12"/><path d="M30.7 19.4v.3h-1.1v.3h.8l.4.4v.6l-.5.5h-1l-.5-.2.3-.5.4.1h.5l.2-.1v-.2l-.2-.2h-1l.3-1h1.4z" fill="#f09a12"/><path d="M32.2 19.4l.5.3.3 1.3-.4.5h-1L31 21v-1.3l.4-.3h.8zm-.7.4l.1.8.5-.9h-.5l-.1.1zm1 1l-.2-.8-.5 1h.6l.1-.2z" fill="#f09a12"/><path d="M26.1 19.8v.7c0 1.4 2.1 2.6 4.8 2.6s4.8-1.1 4.8-2.6v-.7h-9.6z" fill="#f09a12"/><path d="M26.1 19.8v.7c0 .1 0 .3.1.4v-.8h.3v1.4l.3.3v-1.4h.3V22c.2.1.3.2.5.3V21h.3v1.5c.2.1.4.1.6.2v-1.3h.3v1.4c.3.1.5.1.8.1v-1.2h.3V23h.8v-1.3h.3V23h.8v-1.3h.3V23c.3 0 .5-.1.8-.1v-1.5h.3v1.3c.2-.1.4-.1.6-.2V21h.3v1.3c.2-.1.3-.2.5-.3v-1.6h.4v1.4l.3-.3v-1.4h.3v.9c.1-.2.1-.3.1-.5v-.7h-9.6z" fill="#f09a12"/><ellipse cx="30.9" cy="19.8" rx="4.8" ry="2.6" fill="#ffbf00"/><path d="M30.9 21.7c-2.4 0-4.3-.9-4.3-2.1s1.9-2.1 4.3-2.1 4.3.9 4.3 2.1-1.9 2.1-4.3 2.1zm0-3.9c-2.3 0-3.9 1-3.9 1.8s1.6 1.6 3.9 1.6 3.9-.8 3.9-1.6-1.6-1.8-3.9-1.8z" fill="#f09a12"/><path d="M30.7 18.3v.3h-1.1v.3h.8l.4.4v.7l-.5.5h-1l-.5-.2.3-.5.4.1h.5l.2-.1v-.2l-.2-.2h-1l.3-1 1.4-.1z" fill="#f09a12"/><path d="M32.2 18.3l.5.3.3 1.4-.4.5h-1L31 20v-1.3l.4-.3.8-.1zm-.7.5l.1.8.5-.9h-.5l-.1.1zm1 1l-.2-.8-.5 1h.6l.1-.2z" fill="#f09a12"/><path d="M26.1 18.7v.7c0 1.4 2.1 2.6 4.8 2.6s4.8-1.1 4.8-2.6v-.7h-9.6z" fill="#f09a12"/><path d="M26.1 18.7v.7c0 .1 0 .3.1.4V19h.3v1.4l.3.3v-1.3h.3V21c.2.1.3.2.5.3V20h.3v1.5c.2.1.4.2.6.2v-1.3h.3v1.4c.3.1.5.1.8.2v-1.3h.3V22h.8v-1.3h.3v1.4h.8v-1.3h.3v1.3c.3 0 .5-.1.8-.1v-1.5h.3v1.3c.2-.1.4-.1.6-.2v-1.5h.3v1.3c.2-.1.3-.2.5-.3v-1.6h.4v1.4l.3-.3V19h.3v.9c.1-.2.1-.3.1-.5v-.7h-9.6z" fill="#f09a12"/><ellipse cx="30.9" cy="18.7" rx="4.8" ry="2.6" fill="#ffbf00"/><path d="M30.9 20.7c-2.4 0-4.3-.9-4.3-2.1s1.9-2.1 4.3-2.1 4.3.9 4.3 2.1-1.9 2.1-4.3 2.1zm0-3.9c-2.3 0-3.9 1-3.9 1.8s1.6 1.6 3.9 1.6 3.9-.8 3.9-1.6-1.6-1.8-3.9-1.8z" fill="#f09a12"/></svg>