<svg xmlns="http://www.w3.org/2000/svg" viewBox="0 -0.25481748580932617 136.96002197265625 146.4603729248047"><title>Depositphotos_122774926_04</title><g data-name="Layer 2"><g data-name="Layer 1"><g data-name="Layer 2"><g data-name="Layer 2-2"><path d="M89.58 93.63a8.15 8.15 0 1 0-8.15-8.15 8.15 8.15 0 0 0 8.15 8.15z" fill="#fdf196"/><path d="M106.57 107.91a11 11 0 0 1-2.89-7.41v-.5a11 11 0 0 1 .44-2.66 5.73 5.73 0 0 0-.76-.06H78.69a10.71 10.71 0 0 1 .63 2.68c0 .35.05.7.05 1.06a10.83 10.83 0 0 1-5 9.13h8a8.55 8.55 0 0 1 8.55 8.54v11.56a10.79 10.79 0 0 0 1.61-.08l.88-2.76L97 116.23c.79-2.47 4.74-7 9.64-7.29h1.05a11.15 11.15 0 0 1-1.12-1.03z" fill="#fdf196"/><path d="M57.71 101a7.45 7.45 0 0 1 0-1.06 10.71 10.71 0 0 1 .63-2.68H33.6a5.92 5.92 0 0 0-.75.05 11 11 0 0 1 .44 2.66v.5a11.2 11.2 0 0 1-3.93 8.43h1c4.38.33 8.74 4.46 9.64 7.29l3.57 11.23.87 2.75c.53 0 1.06 0 1.6.05V118.7a8.55 8.55 0 0 1 8.55-8.54h8.1a10.83 10.83 0 0 1-4.98-9.16z" fill="#fdc48e"/><path d="M109.26 106.8a8.27 8.27 0 1 0-2.89-6.3 8.27 8.27 0 0 0 2.89 6.3z" fill="#fdc48e"/><path d="M130.39 142.36a45 45 0 0 0 6.57-3l-7.07-22.25c-.56-1.76-4.18-5.45-7.64-5.45h-15.68c-2.88.25-5.49 2.67-6.59 4.43a4.6 4.6 0 0 0-.49 1l-2.17 6.83-1 3.14-.9 2.85-.9 2.82-2.08 6.53a45 45 0 0 0 6.56 3l3.56-11.19 1-3.12 1.11-3.48.11-.35a4.55 4.55 0 0 0 .62.28 4.73 4.73 0 0 0 .8.22l-.79 2.67-1 3.19-3.7 12.4a45.34 45.34 0 0 0 27.69.11l-5.4-18.32a4.7 4.7 0 0 0 1.61-.56z" fill="#fdc48e"/><path d="M47.5 93.63a8.13 8.13 0 1 0-8.15-8.15 8.13 8.13 0 0 0 8.15 8.15z" fill="#fdc48e"/><path d="M121.37 51.78a17.29 17.29 0 0 0 1-5.2 16.92 16.92 0 0 0-1.15-7.91 16.28 16.28 0 0 0-5.22-6.91 28.65 28.65 0 0 0-4.56-2.94L109 27.55l-2.3-1.17c-1-.55-1.88-1.06-2.57-1.53a7.54 7.54 0 0 1-1.23-1 1.82 1.82 0 0 1-.53-1.65c.06-.58.15-.68.7-.82a2.22 2.22 0 0 1 2 .5 4.21 4.21 0 0 1 .77.72l-.08.13 1.24 1.61a5.72 5.72 0 0 0 5.8 2.29 5.81 5.81 0 0 0 2.17-.86q1.25-.74 3.79-2.33a4.47 4.47 0 0 0 1.74-2 4.89 4.89 0 0 0 .33-3.75l-.14-.42a18.23 18.23 0 0 0-2.69-4.43 16.4 16.4 0 0 0-6.52-5l-.48-.15v-.23a13.56 13.56 0 0 0 0-2.71 5.21 5.21 0 0 0-3-4.21 5.34 5.34 0 0 0-5.12.25 6.23 6.23 0 0 0-3.1 5 7.13 7.13 0 0 1-.08 1l-.5.12a15.13 15.13 0 0 0-10.6 8.79 17.08 17.08 0 0 0-1.46 8.36 15.56 15.56 0 0 0 2.63 7.79 26.07 26.07 0 0 0-6 1.06S78 15 53.36 18.44s-24.62 29-24.62 29c-12.17 4.63-11.3 17.09-11.3 17.09 0 13.6 10.85 17.28 19.65 18a10.83 10.83 0 0 1 20.75-.3h4.44V64h-7.43l14.79-21.35L84.43 64H77v18.32h2.22a10.83 10.83 0 0 1 20.75.11h5.25s21.15.58 21.15-16.51a20.63 20.63 0 0 0-5-14.14zM91.41 17a12.13 12.13 0 0 1 8.53-7.1 15.91 15.91 0 0 1 2.69-.44q0-.2.07-.87.13-2.28.17-2.52a3.14 3.14 0 0 1 1.58-2.65 2.19 2.19 0 0 1 2.22-.13 2.16 2.16 0 0 1 1.24 1.81 10.36 10.36 0 0 1 0 2 5.15 5.15 0 0 0 .47 2.89q1 .3 1.92.67a13.24 13.24 0 0 1 5.24 4 15.11 15.11 0 0 1 2.28 3.66v.14a1.75 1.75 0 0 1-.13 1.48 1.6 1.6 0 0 1-.57.74q-2.52 1.58-3.76 2.32a3 3 0 0 1-1.11.47 2.6 2.6 0 0 1-2.79-1.08 5.06 5.06 0 0 0-.44-.77 7.89 7.89 0 0 0-2.18-2.42 5.28 5.28 0 0 0-4.57-1 3.74 3.74 0 0 0-3 3.49 4.9 4.9 0 0 0 1.38 4.3 10.58 10.58 0 0 0 1.75 1.48q1.14.77 2.82 1.68l2.38 1.21 2.4 1.21a25.41 25.41 0 0 1 4 2.62 13.16 13.16 0 0 1 4.27 5.57 13.83 13.83 0 0 1 1 6.48v2.92h-.38a.52.52 0 0 1-.05.27 12.49 12.49 0 0 1-5.07 7.4 14 14 0 0 1-4.37 2.08 5.28 5.28 0 0 0-3.26 4.27 3 3 0 0 1-1.44 2.25 2.23 2.23 0 0 1-3.46-1.31 3.51 3.51 0 0 1-.1-1.48 4.44 4.44 0 0 0-1-3.66 12.9 12.9 0 0 1-3-1.21 26.67 26.67 0 0 1-6.65-5.37 3.3 3.3 0 0 1-.76-2.4 2.69 2.69 0 0 1 1.11-2.15 6.14 6.14 0 0 1 2.35-1.55 3.46 3.46 0 0 1 2.22-.4 1.83 1.83 0 0 1 1.65.84 7.32 7.32 0 0 0 3 3.12 7.87 7.87 0 0 0 7.32.74 4.7 4.7 0 0 0 2.82-3.66 4.9 4.9 0 0 0-.81-4.2A8.18 8.18 0 0 0 107.6 41q-1.81-1.21-3.16-2l-2.22-1.21-2.22-1.22A33 33 0 0 1 96 34a18.93 18.93 0 0 1-2.27-2.08c-.17-.18-.36-.36-.52-.54a12.55 12.55 0 0 1-3-7.49 14 14 0 0 1 1.2-6.89z" fill="#a0d39f"/><path d="M67.13 109h.05a7.51 7.51 0 0 0 2.63 0h.05a7.92 7.92 0 1 0-2.77 0z" fill="#a0d39f"/><path d="M88.22 125.16v-6.46a5.87 5.87 0 0 0-5.86-5.86H54.64a5.87 5.87 0 0 0-5.86 5.86v22.63a44.88 44.88 0 0 0 7.22 2.76V125h2.08v19.6a45.4 45.4 0 0 0 20.92-.07V125h2v19a44.86 44.86 0 0 0 7.27-2.81v-16z" fill="#a0d39f"/><path d="M22.3 108.84a8.33 8.33 0 1 0-8.3-8.36 8.31 8.31 0 0 0 8.28 8.34z" fill="#69bf6f"/><path d="M41.59 130l-.9-2.83-.93-2.93-2.26-7.14a4.28 4.28 0 0 0-.5-1c-1.15-1.76-3.85-4.13-6.58-4.43a5.12 5.12 0 0 0-.56 0H14.65c-3.67 0-7 3.71-7.56 5.45L0 139.38a44.86 44.86 0 0 0 6.58 3l5.8-18.26a4.69 4.69 0 0 0 1.43.5L8.34 143a45.33 45.33 0 0 0 27.66-.07l-3.67-12.3-1-3.18-.83-2.77a4.86 4.86 0 0 0 .69-.17 4.61 4.61 0 0 0 .93-.39l.12.39 1.16 3.66 1 3.1 3.49 11a45.07 45.07 0 0 0 6.56-3.09l-2-6.4z" fill="#69bf6f"/><path d="M118.31 39.76a13.16 13.16 0 0 0-4.31-5.57 25.41 25.41 0 0 0-4-2.62l-2.39-1.24-2.38-1.21q-1.68-.91-2.82-1.68a10.58 10.58 0 0 1-1.76-1.44 4.9 4.9 0 0 1-1.38-4.13 3.74 3.74 0 0 1 3-3.49 5.28 5.28 0 0 1 4.57 1 7.89 7.89 0 0 1 2.16 2.34 5.06 5.06 0 0 1 .44.77 2.6 2.6 0 0 0 2.79 1.08 3 3 0 0 0 1.11-.47q1.24-.74 3.76-2.32a1.6 1.6 0 0 0 .57-.74 1.75 1.75 0 0 0 .13-1.48v-.14a15.11 15.11 0 0 0-2.28-3.66 13.24 13.24 0 0 0-5.24-4q-.94-.37-1.92-.67a5.15 5.15 0 0 1-.47-2.89 10.36 10.36 0 0 0 0-2 2.16 2.16 0 0 0-1.24-1.81 2.19 2.19 0 0 0-2.22.13 3.14 3.14 0 0 0-1.58 2.65q0 .24-.17 2.52a3.31 3.31 0 0 1-.07.87 15.91 15.91 0 0 0-2.69.44 12.13 12.13 0 0 0-8.51 7 14 14 0 0 0-1.18 6.85 12.55 12.55 0 0 0 3 7.49c.16.18.35.36.52.54A18.93 18.93 0 0 0 96 34a33 33 0 0 0 4 2.59l2.22 1.21 2.22 1.2q1.34.77 3.16 2a8.18 8.18 0 0 1 1.81 1.75 4.9 4.9 0 0 1 .81 4.2 4.7 4.7 0 0 1-2.82 3.66 7.87 7.87 0 0 1-7.32-.74 7.32 7.32 0 0 1-3-3.12 1.83 1.83 0 0 0-1.65-.84 3.46 3.46 0 0 0-2.22.4 6.14 6.14 0 0 0-2.35 1.55A2.69 2.69 0 0 0 89.73 50a3.3 3.3 0 0 0 .71 2.39 26.67 26.67 0 0 0 6.65 5.37 12.9 12.9 0 0 0 3 1.21 4.44 4.44 0 0 1 1 3.66 3.51 3.51 0 0 0 .1 1.48 2.23 2.23 0 0 0 3.46 1.31 3 3 0 0 0 1.44-2.25 5.28 5.28 0 0 1 3.26-4.27 14 14 0 0 0 4.37-2.08 12.49 12.49 0 0 0 5.07-7.4.52.52 0 0 1 .05-.27 15 15 0 0 0 .34-2.71v-.17a13.83 13.83 0 0 0-.87-6.51z" fill="#69bf6f"/></g></g></g></g></svg>