<svg xmlns="http://www.w3.org/2000/svg" viewBox="-6.641879081726074 -6.589788913726807 146.3557586669922 145.22329711914062"><title>25968461_2_ic</title><g data-name="Layer 2"><g data-name="Layer 1"><g data-name="Layer 2"><g data-name="Layer 1-2"><path d="M19.87 112.93A65.81 65.81 0 0 0 116.73 24q-1.81-2.14-3.8-4.13a65.77 65.77 0 0 0-93 0q-2 2-3.79 4.13a65.75 65.75 0 0 0 3.73 88.93z" fill="#6bcff6"/><path d="M90 10.35l3 1.52 2.36 1.52h2.14l.67.84-1.35 1.52-2.32 1.18.68 2.7 3 1.18 2 1 2.7-2.36v-2.52l1.35-.67v2.53l1.18 2 2.7-.34 1.69 1.35-1.69 1.52H105l-2.36-1.52-3 1.52L96.36 27 95 32.27l-1.52 4.18 1 3.41-.5 3 2.36 2.36 2.44 3.37 3 4 5.06 1 7.59-.84v3l1.86 1.52v4.89l2.36 3.71-1.18 6.07-2.19 4.55v3.37l-1.52 3.71.84 5.23-1.89 4.2-1.85 2.19-.68 3.54 2.53.83 6.57-5.38L129.82 84A65.88 65.88 0 0 0 88.47 4.39l-.72 6z" fill="#56b258"/><path d="M78.82 122.3l-4.22-3.2-2.36 1.52-4.89 3.54-8.93 1.68-4.55-1.52 1.52-3-1.52-2.19-2.19-2.36L50 119.1l-4.55 1.35-3.71.84v3l-2.87 1.35-.13.46a65.92 65.92 0 0 0 55.4 0l-5.54-2.45z" fill="#56b258"/><path d="M11.21 43.73l2.36.34 3.2-1 2 2 1.52 2.53 3.88.5 2.89 1.9-.51 3-2.35 2.87-1.35 5.23.67 4.9 3.71.34.34 1.66.34 4.55L34 75.93l4 3 .34 5.9-1.16 5.27 1.35 5.9 3 4.55v6.91l4 2.7 5.26 1s-2.39-4.16-2.73-5.06 0-4.55 0-4.55l-.34-3.71s3.06-1.18 3.06-1.85-1.21-2.19-1.21-2.19l1.21-3.2 1.66 1.18.68-2.53h3.37l.17-3.54.92-3.71 6.07-3.2 4.55-2.7-.93-5.39 1.94-4 3-2.19v-4.6l-1.69-3.2h-3.25l-3.62-1.18-3-1.18h-3.41l-1.18-5.9-3.37-2.36h-5.4l-2-3.54-4.22-1.69-3.88 1.69-3.71-1-3.71.17-2.53 3.37-3.54 1 .3-3.72-1.35-2.53H20l.67-2.53-2.19-2-4.21 2.87v-3.73l1.35-2.87 5.73-4.38 3-.84v2.53l1.52 2.7 2.7-1.86v-5.23l4-4.21 6.58-4.55 3.54-3 6.58-3.2 6.24-1.69L57.24 6l-3.88-1.89-1.81-1.83A65.93 65.93 0 0 0 7.51 37l1.34 4.34z" fill="#56b258"/><path d="M112.71 100.12a.58.58 0 0 1-.19 0l-2.52-.86a.6.6 0 0 1-.4-.68l.67-3.54a.6.6 0 0 1 .13-.28l1.8-2.12 1.75-4-.82-5.05a.61.61 0 0 1 0-.32l1.47-3.6v-3.23a.61.61 0 0 1 .06-.26l2.16-4.48 1.18-5.76-2.23-3.51a.59.59 0 0 1-.09-.32V57.5L114 56.17a.6.6 0 0 1-.22-.46v-2.2l-6.92.77h-.18l-5.06-1a.59.59 0 0 1-.37-.23l-5.35-7.41-2.33-2.33a.6.6 0 0 1-.17-.52l.48-2.9-1-3.28a.6.6 0 0 1 0-.38l1.52-4.18 1.33-5.17a.59.59 0 0 1 .13-.24l3.2-3.71a.61.61 0 0 1 .19-.14l.8-.4h-.12l-2-1-3-1.16a.6.6 0 0 1-.36-.41l-.68-2.7a.6.6 0 0 1 .31-.68l2.26-1.13.93-1.05-.14-.26h-1.9a.6.6 0 0 1-.33-.1l-2.33-1.5-2.88-1.4h-2.06a.6.6 0 0 1-.6-.67l.72-6a.6.6 0 0 1 .67-.52h.13a66.48 66.48 0 0 1 41.73 80.38.6.6 0 0 1-.16.27L119.7 94.58l-6.61 5.42a.6.6 0 0 1-.38.12zm-1.84-1.83l1.71.56 6.32-5.17 10.39-10A65.28 65.28 0 0 0 89 5.22l-.55 4.54H90a.6.6 0 0 1 .27.06l3 1.52h.06l2.21 1.42h2A.6.6 0 0 1 98 13l.67.84a.6.6 0 0 1 0 .77l-1.35 1.52a.61.61 0 0 1-.18.14l-1.93 1 .48 1.93 2.74 1.07 1.71.85 2.19-1.92v-2.27a.6.6 0 0 1 .33-.54l1.35-.67a.6.6 0 0 1 .87.54v2.37l.9 1.54 2.3-.29a.59.59 0 0 1 .45.13l1.69 1.35a.6.6 0 0 1 .06.85l-.06.06-1.69 1.52a.6.6 0 0 1-.4.15H105a.6.6 0 0 1-.32-.1l-2.07-1.33-2.61 1.31-3 3.51-1.32 5.09-1.47 4 1 3.22a.58.58 0 0 1 0 .27l-.45 2.73 2.14 2.14.06.07 5.25 7.23 4.74 1 7.49-.83a.61.61 0 0 1 .47.15.6.6 0 0 1 .2.45v2.58l1.64 1.34a.6.6 0 0 1 .22.46v4.67l2.26 3.56a.6.6 0 0 1 .08.44L118 72a.58.58 0 0 1 0 .15l-2.13 4.43v3.23a.6.6 0 0 1 0 .23l-1.45 3.55.82 5.06a.6.6 0 0 1 0 .34l-1.86 4.21a.63.63 0 0 1-.09.14l-1.75 2.07zm-5.74-75.55h2.8l1-.89-.93-.75-2.45.31a.6.6 0 0 1-.59-.29l-1.18-2a.6.6 0 0 1-.08-.3v-1.6l-.15.07v2.16a.6.6 0 0 1-.2.45l-2.33 2 1.33-.66a.6.6 0 0 1 .59 0z" fill="#3f8942"/><path d="M66.41 132.81a65.84 65.84 0 0 1-27.92-6.14.6.6 0 0 1-.33-.7l.13-.46a.6.6 0 0 1 .32-.38l2.52-1.19v-2.65a.6.6 0 0 1 .47-.58l3.71-.84 4.32-1.28 1.57-2.19a.6.6 0 0 1 .84-.14l.09.08 2.19 2.36v.07l1.57 2.23a.6.6 0 0 1 0 .61L54.71 124l3.75 1.25 8.65-1.63 4.78-3.46 2.39-1.54a.6.6 0 0 1 .69 0l4.09 3.11 9.62 1.33h.16l5.54 2.45a.6.6 0 0 1 0 1.09 65.83 65.83 0 0 1-27.97 6.21zm-26.67-6.89a65.35 65.35 0 0 0 52.94.18l-4.24-1.87-9.7-1.34a.59.59 0 0 1-.28-.12l-3.88-2.95-2 1.29-4.86 3.52a.61.61 0 0 1-.24.1l-8.93 1.68a.6.6 0 0 1-.3 0l-4.55-1.52a.6.6 0 0 1-.38-.76v-.08l1.36-2.72-1.29-1.86-1.66-1.79-1.26 1.76a.6.6 0 0 1-.32.23L45.61 121l-3.28.75v2.56a.6.6 0 0 1-.34.54z" fill="#3f8942"/><path d="M50.86 111.77h-.11l-5.26-1a.6.6 0 0 1-.22-.09l-4-2.7a.6.6 0 0 1-.27-.5v-6.73l-3-4.42a.58.58 0 0 1-.09-.2l-1.35-5.9a.6.6 0 0 1 0-.27l1.16-5.14-.32-5.54-3.79-2.84-6-3.35a.6.6 0 0 1-.31-.48l-.3-4.52-.24-1.21-3.26-.3a.6.6 0 0 1-.54-.52l-.67-4.89a.61.61 0 0 1 0-.23l1.35-5.23a.61.61 0 0 1 .12-.23L26 52.75l.41-2.49L24 48.69l-3.74-.49a.6.6 0 0 1-.44-.29l-1.48-2.47-1.71-1.71-2.86.9a.6.6 0 0 1-.27 0l-2.36-.34a.6.6 0 0 1-.34-.17L8.43 41.8a.59.59 0 0 1-.15-.25l-1.34-4.34a.6.6 0 0 1 0-.45A66.2 66.2 0 0 1 51.42 1.7a.6.6 0 0 1 .56.16l1.74 1.76 3.78 1.81a.6.6 0 0 1 .19.94L56 8.23a.6.6 0 0 1-.29.18l-6.18 1.67-6.46 3.14-3.48 3L33 20.76l-3.84 4v5a.6.6 0 0 1-.26.49l-2.7 1.86a.61.61 0 0 1-.87-.2l-1.52-2.7a.6.6 0 0 1-.08-.29v-1.76l-2.16.6L16.08 32l-1.23 2.61V37l3.28-2.23a.6.6 0 0 1 .74.06l2.19 2a.6.6 0 0 1 .17.6l-.47 1.78h1.92a.6.6 0 0 1 .53.32l1.35 2.53a.6.6 0 0 1 .07.34l-.26 2.84 2.5-.72 2.41-3.21a.6.6 0 0 1 .45-.24l3.71-.17a.58.58 0 0 1 .19 0l3.51 1 3.68-1.6a.6.6 0 0 1 .46 0l4.21 1.7a.6.6 0 0 1 .3.26l1.85 3.24h5a.6.6 0 0 1 .34.11L56.4 48a.6.6 0 0 1 .24.37l1.08 5.42h2.88a.61.61 0 0 1 .22 0l3 1.18 3.5 1.14h3.19a.6.6 0 0 1 .53.32l1.69 3.2a.61.61 0 0 1 .07.28v4.55a.6.6 0 0 1-.25.49l-2.91 2.1-1.79 3.74.94 5.21a.6.6 0 0 1-.29.62l-4.5 2.7-5.9 3.09-.77 3.39-.16 3.49a.6.6 0 0 1-.6.57h-2.91l-.56 2.08a.6.6 0 0 1-.93.33l-1-.73-.82 2.16a5.14 5.14 0 0 1 1.11 2.3c0 .26 0 1-3 2.25l.3 3.26a.59.59 0 0 1 0 .11 18.2 18.2 0 0 0 0 4.27c.26.65 1.94 3.67 2.64 4.89a.59.59 0 0 1 .14.39.6.6 0 0 1-.6.6zm-5-2.18l3.87.74c-.74-1.33-1.89-3.4-2.13-4-.36-.89-.13-3.81 0-4.77l-.4-3.66a.6.6 0 0 1 .38-.61 10.4 10.4 0 0 0 2.66-1.38 6.9 6.9 0 0 0-1.06-1.73.6.6 0 0 1-.09-.58l1.21-3.2a.6.6 0 0 1 .77-.35l.14.07 1 .68.45-1.69a.6.6 0 0 1 .58-.45H56l.14-3a.57.57 0 0 1 0-.1l.86-3.69a.6.6 0 0 1 .3-.4l6.07-3.2 4.17-2.47-.86-5a.6.6 0 0 1 .05-.36l1.94-4a.59.59 0 0 1 .19-.23l2.79-2v-4.1l-1.45-2.8h-2.93a.6.6 0 0 1-.19 0l-3.62-1.18L60.5 55h-3.26a.6.6 0 0 1-.59-.48l-1.13-5.67-3-2.11h-5.2a.6.6 0 0 1-.52-.3l-2-3.44-3.79-1.52-3.59 1.62a.6.6 0 0 1-.4 0l-3.62-1-3.33.15-2.36 3.14a.6.6 0 0 1-.31.22l-3.54 1a.6.6 0 0 1-.76-.61l.32-3.53-1.09-2H20a.6.6 0 0 1-.58-.75l.58-2.2-1.58-1.45-3.82 2.6a.6.6 0 0 1-.94-.5v-3.71a.6.6 0 0 1 .06-.26l1.35-2.87a.59.59 0 0 1 .18-.22L21 26.73a.6.6 0 0 1 .2-.1l3-.84a.6.6 0 0 1 .76.58v2.37l1.12 2 1.9-1.3v-4.93a.6.6 0 0 1 .17-.42l4-4.21.09-.08 6.55-4.53 3.52-3 .13-.08L49.05 9h.11l6.07-1.64 1-1.13-3.13-1.57a.59.59 0 0 1-.17-.12l-1.57-1.6A65 65 0 0 0 8.15 37.08l1.23 4 2.11 2.11 2 .29 3.07-1a.6.6 0 0 1 .6.15l2 2a.59.59 0 0 1 .09.12L20.62 47l3.59.47a.6.6 0 0 1 .25.09l2.87 1.85a.6.6 0 0 1 .27.6l-.51 3a.6.6 0 0 1-.13.28l-2.28 2.76-1.29 5 .59 4.3 3.23.29a.6.6 0 0 1 .53.48l.34 1.69a.62.62 0 0 1 0 .07l.31 4.23 5.79 3.21h.07l4 3a.6.6 0 0 1 .24.45l.34 5.9a.59.59 0 0 1 0 .17l-1 5.23 1.29 5.66 3 4.46a.6.6 0 0 1 .1.33v6.59z" fill="#3f8942"/><path d="M66.41 132.81a66.55 66.55 0 0 1-41.94-14.91 67.3 67.3 0 0 1-5-4.54 66.3 66.3 0 0 1-3.85-89.74c1.21-1.43 2.5-2.84 3.83-4.17q2.39-2.39 5-4.54a66.45 66.45 0 0 1 88.91 4.53c1.33 1.33 2.62 2.74 3.83 4.17a66.41 66.41 0 0 1-22.53 102.91 65.83 65.83 0 0 1-28.25 6.29zm0-131.61a65.35 65.35 0 0 0-41.17 14.64 66.12 66.12 0 0 0-4.94 4.46c-1.3 1.3-2.57 2.7-3.76 4.09a65.21 65.21 0 1 0 115.07 42 64.66 64.66 0 0 0-6.11-27.6 65.35 65.35 0 0 0-9.23-14.42c-1.19-1.4-2.45-2.78-3.76-4.09A65 65 0 0 0 66.41 1.2z" fill="#3f8942"/></g></g></g></g></svg>