<svg xmlns="http://www.w3.org/2000/svg" viewBox="-0.3159780502319336 0 146.5559844970703 114.63543701171875"><title>Depositphotos_124760128_48_ic</title><g data-name="Layer 2"><g data-name="Layer 1"><path data-name="&lt;Path&gt;" d="M51.95 84.19a.9.9 0 0 1-.92-.72.93.93 0 0 1 .52-1.09l12.34-6.17A30.6 30.6 0 0 1 77.51 73h10.42l-2 11.19z" fill="#5cc5c0"/><path data-name="&lt;Path&gt;" d="M91.93 84.19L94 73a52 52 0 0 1 10.4 1.1 13.16 13.16 0 0 1 10.31 10.09z" fill="#5cc5c0"/><path d="M23.86 96.41a9.11 9.11 0 1 0 9.14 9.11 9.12 9.12 0 0 0-9.14-9.11zm0 15.23a6.11 6.11 0 1 1 6.14-6.12 6.12 6.12 0 0 1-6.14 6.11z" fill="#fff"/><path d="M115.05 96.41a9.11 9.11 0 1 0 9.11 9.11 9.12 9.12 0 0 0-9.11-9.11zm0 15.23a6.11 6.11 0 1 1 6.11-6.11 6.12 6.12 0 0 1-6.11 6.1z" fill="#fff"/><path d="M143.3 87.54v-5a3.05 3.05 0 0 0-3.23-3 30.65 30.65 0 0 1-17-4.44 59.27 59.27 0 0 0-29.27-7.96H77.51A36.48 36.48 0 0 0 61.28 71L49 77.1a37.44 37.44 0 0 1-14.78 4c-15.14.83-24 3.94-27.89 5.72A4 4 0 0 0 4 90.88l.32 3-2.8 1.82a3.37 3.37 0 0 0-1.33 3.92l1.7 4.88a8.65 8.65 0 0 0 6.92 5.73 8.76 8.76 0 0 0 1.28.09h2.59l-.47-1.87a12 12 0 1 1 23.32 0l-.53 1.88h68.82l-.47-1.87a12 12 0 1 1 23.32 0l-.47 1.87h9.52c8.28 0 10.5-8.53 10.52-13a18 18 0 0 0-2.94-9.79zm-7.54 19.79H130a15 15 0 1 0-30-1.81 15.11 15.11 0 0 0 .11 1.81h-13v-17a1.5 1.5 0 0 0-3 0v17H51.6v-17a1.5 1.5 0 0 0-3 0v17h-9.83a15 15 0 1 0-29.84-.12 5.66 5.66 0 0 1-4.21-3.7L3 98.63a.37.37 0 0 1 .15-.43l4.37-2.87L7 90.55a1 1 0 0 1 .59-1c3-1.36 11.62-4.62 26.81-5.45a40.45 40.45 0 0 0 16-4.28l12.25-6.12a33.46 33.46 0 0 1 14.89-3.52H93.8a56.26 56.26 0 0 1 27.83 7.49 34.18 34.18 0 0 0 18.68 4.88v6l.32.41a14.8 14.8 0 0 1 2.66 8.34c-.02.39-.17 10.03-7.53 10.03z" fill="#fff"/><path data-name="&lt;Compound Path&gt;" d="M18.94 8.88v27.87h27.87V8.88zm23.63 23.63H23.18V18.33a8.22 8.22 0 0 0 5.21-5.21h14.18z" fill="#5cc5c0"/><path data-name="&lt;Path&gt;" d="M131.71 31.58a3.3 3.3 0 0 0-2.34-2.69l-5.29-1.15a13.2 13.2 0 0 1-6.29 3.26 13.2 13.2 0 0 1-6.29-3.23l-5.29 1.15a3.3 3.3 0 0 0-2.34 2.69l-1.15 5.5 6.68 4.78 8.39 1.53 8.84-1.72 6.24-4.59z" fill="#5cc5c0"/><ellipse data-name="&lt;Path&gt;" cx="117.79" cy="19.42" rx="6.68" ry="7.24" fill="#5cc5c0"/><path d="M54.49 12.5h-4.71a1.5 1.5 0 0 0 0 3h4.71a1.5 1.5 0 0 0 0-3z" fill="#fff"/><path d="M54.49 21.31h-4.71a1.5 1.5 0 0 0 0 3h4.71a1.5 1.5 0 0 0 0-3z" fill="#fff"/><path d="M54.49 30.13h-4.71a1.5 1.5 0 0 0 0 3h4.71a1.5 1.5 0 0 0 0-3z" fill="#fff"/><path d="M16.25 12.5h-4.72a1.5 1.5 0 0 0 0 3h4.71a1.5 1.5 0 0 0 0-3z" fill="#fff"/><path d="M16.25 21.31h-4.72a1.5 1.5 0 0 0 0 3h4.71a1.5 1.5 0 0 0 0-3z" fill="#fff"/><path d="M16.25 30.13h-4.72a1.5 1.5 0 1 0 0 3h4.71a1.5 1.5 0 0 0 0-3z" fill="#fff"/><path d="M24.06 0a1.5 1.5 0 0 0-1.5 1.5v4.71a1.5 1.5 0 1 0 3 0V1.5a1.5 1.5 0 0 0-1.5-1.5z" fill="#fff"/><path d="M32.88 0a1.5 1.5 0 0 0-1.5 1.5v4.71a1.5 1.5 0 1 0 3 0V1.5a1.5 1.5 0 0 0-1.5-1.5z" fill="#fff"/><path d="M41.69 0a1.5 1.5 0 0 0-1.5 1.5v4.71a1.5 1.5 0 1 0 3 0V1.5a1.5 1.5 0 0 0-1.5-1.5z" fill="#fff"/><path d="M24.06 38.25a1.5 1.5 0 0 0-1.5 1.5v4.71a1.5 1.5 0 0 0 3 0v-4.71a1.5 1.5 0 0 0-1.5-1.5z" fill="#fff"/><path d="M32.88 38.25a1.5 1.5 0 0 0-1.5 1.5v4.71a1.5 1.5 0 0 0 3 0v-4.71a1.5 1.5 0 0 0-1.5-1.5z" fill="#fff"/><path d="M41.69 38.25a1.5 1.5 0 0 0-1.5 1.5v4.71a1.5 1.5 0 0 0 3 0v-4.71a1.5 1.5 0 0 0-1.5-1.5z" fill="#fff"/><path d="M117.79.67a22.14 22.14 0 1 0 22.14 22.14A22.16 22.16 0 0 0 117.79.67zm0 41.28a19.14 19.14 0 1 1 19.14-19.14A19.16 19.16 0 0 1 117.79 42z" fill="#fff"/><path fill="#fff" d="M75.73 17.77l-2.12-2.12-7.16 7.16 7.16 7.16 2.12-2.12-3.54-3.54h16.13v-3H72.19l3.54-3.54z"/></g></g></svg>