<svg xmlns="http://www.w3.org/2000/svg" viewBox="-0.000018596649169921875 0 133.26002502441406 90.43000793457031"><title>Depositphotos_112871588_19_ic</title><g data-name="Layer 2"><g data-name="Layer 1"><path d="M15 73.87h103.28V6.5H15zM66.63 10a30.17 30.17 0 1 1-30.17 30.18A30.17 30.17 0 0 1 66.63 10z" fill="#89d4f0"/><path d="M131.77 77.37h-7V5.82A5.83 5.83 0 0 0 119 0H14.31a5.83 5.83 0 0 0-5.82 5.82v71.55h-7A1.5 1.5 0 0 0 0 78.87v5.48a6.09 6.09 0 0 0 6.08 6.08h121.1a6.09 6.09 0 0 0 6.08-6.08v-5.48a1.5 1.5 0 0 0-1.49-1.5zM11.49 5.82A2.82 2.82 0 0 1 14.31 3H119a2.82 2.82 0 0 1 2.82 2.82v71.55H11.49zm118.78 78.53a3.09 3.09 0 0 1-3.08 3.08H6.08A3.09 3.09 0 0 1 3 84.35v-4h127.27z" fill="#fff"/><path d="M80.69 23.51a1.5 1.5 0 0 0 0 2.12 19.67 19.67 0 0 1 6 14.21 1.5 1.5 0 0 0 3 0 22.65 22.65 0 0 0-6.9-16.35 1.5 1.5 0 0 0-2.1.02z" fill="#fff"/><path d="M50.82 28.19A19.91 19.91 0 0 1 66.88 20a19.63 19.63 0 0 1 8.82 2.06 1.5 1.5 0 0 0 1.3-2.68A22.59 22.59 0 0 0 66.88 17a22.92 22.92 0 0 0-18.48 9.43 1.5 1.5 0 1 0 2.43 1.76z" fill="#fff"/><path d="M48 30.86a1.5 1.5 0 0 0-2 .66 22.9 22.9 0 0 0-1 18.21 1.5 1.5 0 1 0 2.81-1 19.9 19.9 0 0 1 .91-15.82 1.5 1.5 0 0 0-.72-2.05z" fill="#fff"/><path d="M81.13 33c-3-5.83-8.07-9-14.25-9a16 16 0 0 0-12.44 5.8l-.11.14a1.5 1.5 0 0 0 2.33 1.89l.1-.13A13 13 0 0 1 66.88 27c6.42 0 9.84 4 11.59 7.41a18.66 18.66 0 0 1 2 7.94 71 71 0 0 1-.9 14.49 1.5 1.5 0 0 0 1.22 1.74h.26a1.5 1.5 0 0 0 1.48-1.24 74.1 74.1 0 0 0 .95-15.12A21.66 21.66 0 0 0 81.13 33z" fill="#fff"/><path d="M54.29 37.6a1.5 1.5 0 1 0-3-.36 15.61 15.61 0 0 0 .06 4.15c.44 3 .87 8.58-1.2 12.8a1.5 1.5 0 0 0 2.69 1.32c2.43-5 2-11.25 1.47-14.56a12.62 12.62 0 0 1-.02-3.35z" fill="#fff"/><path d="M74.76 45.72a1.51 1.51 0 0 0-1.53 1.47 44.84 44.84 0 0 1-2.06 13.09 1.5 1.5 0 1 0 2.85.93 47.81 47.81 0 0 0 2.21-14 1.5 1.5 0 0 0-1.47-1.49z" fill="#fff"/><path d="M72.86 40.07c.09.71.22 1.87.3 3.37a1.52 1.52 0 0 0 1.58 1.42 1.5 1.5 0 0 0 1.42-1.58c-.09-1.59-.22-2.83-.32-3.59a11.94 11.94 0 0 0-.39-1.89 9 9 0 0 0-11.89-5.87C56.4 34.78 58.41 44.55 58.5 45A17.45 17.45 0 0 1 56 58.34a1.5 1.5 0 0 0 2.39 1.82 20.15 20.15 0 0 0 3-15.82c0-.08-1.59-7.71 3.24-9.64a5.61 5.61 0 0 1 2.52-.37 5.7 5.7 0 0 1 5.38 4.32 8.83 8.83 0 0 1 .33 1.42z" fill="#fff"/><path d="M67.38 51.1a1.5 1.5 0 0 0-1.7 1.26 25.47 25.47 0 0 1-2.87 8.76 1.5 1.5 0 0 0 2.62 1.47 28.45 28.45 0 0 0 3.23-9.79 1.5 1.5 0 0 0-1.28-1.7z" fill="#fff"/><path d="M66.43 37.7a1.5 1.5 0 0 0-1.12 1.8 37.84 37.84 0 0 1 .74 8 1.5 1.5 0 0 0 1.48 1.5A1.5 1.5 0 0 0 69 47.56a40.09 40.09 0 0 0-.82-8.74 1.5 1.5 0 0 0-1.75-1.12z" fill="#fff"/></g></g></svg>