<svg xmlns="http://www.w3.org/2000/svg" viewBox="-0.0872654914855957 0 125.18928527832031 95.00001525878906"><title>Depositphotos_74162405_11</title><g data-name="Layer 2"><g data-name="Layer 1"><g data-name="Layer 2"><g data-name="Layer 4"><rect x="13.95" y="25.66" width="97.2" height="67.84" rx="3.69" ry="3.69" fill="#fff"/><path d="M107.46 95H17.64a5.19 5.19 0 0 1-5.19-5.19V29.35a5.19 5.19 0 0 1 5.19-5.19h89.83a5.19 5.19 0 0 1 5.19 5.19v60.46a5.19 5.19 0 0 1-5.19 5.19zM17.64 27.16a2.19 2.19 0 0 0-2.19 2.19v60.46A2.19 2.19 0 0 0 17.64 92h89.83a2.19 2.19 0 0 0 2.19-2.19V29.35a2.19 2.19 0 0 0-2.19-2.19H17.64z" fill="#6d6e71"/><path d="M120.06 1.5H5.21c-2.3 0-4 1.16-3.65 1.83l5.11 8.51 7.11 11.86c.38.68 2.35 1.23 4.38 1.23h89c2 0 4-.55 4.38-1.23l12-20.11a.39.39 0 0 0 .05-.26c-.03-.72-1.48-1.83-3.53-1.83z" fill="#fff"/><path d="M107.12 26.43h-89c-.47 0-4.59-.06-5.69-2L.27 4.11a2 2 0 0 1 0-2C1 .86 3 0 5.21 0h114.85c2.61 0 4.88 1.46 5 3.19a1.89 1.89 0 0 1-.24 1.14l-12 20.15c-1.11 1.9-5.24 1.95-5.7 1.95zM15 22.84a7.12 7.12 0 0 0 3.15.59h89a7.12 7.12 0 0 0 3.15-.59l11.6-19.37a3.47 3.47 0 0 0-1.8-.47H5.21a4.74 4.74 0 0 0-1.88.36zm95.21.09zM15 22.91z" fill="#6d6e71"/><path d="M48.39 67h28.33a1.6 1.6 0 0 1 1.6 1.6v20a1.61 1.61 0 0 1-1.61 1.61H48.39a1.61 1.61 0 0 1-1.61-1.61v-20a1.6 1.6 0 0 1 1.6-1.6z" fill="#daf0fc"/><path fill="#89d4f0" d="M9.39 5.39L18.73 21h87.65l9.33-15.61H9.39z"/><path d="M97.41 24.55a.24.24 0 0 0-.22-.26H27.91a.24.24 0 0 0-.22.26v4.21a.24.24 0 0 0 .22.26H97.2a.24.24 0 0 0 .22-.26z" fill="#daf0fc"/><path d="M97.2 30.51H27.91a1.74 1.74 0 0 1-1.72-1.76v-4.2a1.74 1.74 0 0 1 1.72-1.76H97.2a1.74 1.74 0 0 1 1.72 1.76v4.21a1.74 1.74 0 0 1-1.72 1.75zm-68-3h66.71v-1.72H29.19z" fill="#6d6e71"/><path fill="none" d="M23.09 33.89h4.67"/><path fill="#6d6e71" d="M23.09 32.39h4.67v3h-4.67z"/><path fill="none" d="M29.84 33.89h4.67"/><path fill="#6d6e71" d="M29.84 32.39h4.67v3h-4.67z"/><path fill="none" d="M36.59 33.89h4.67"/><path fill="#6d6e71" d="M36.59 32.39h4.67v3h-4.67z"/><path fill="none" d="M43.34 33.89h4.67"/><path fill="#6d6e71" d="M43.34 32.39h4.67v3h-4.67z"/><path fill="none" d="M50.09 33.89h4.67"/><path fill="#6d6e71" d="M50.09 32.39h4.67v3h-4.67z"/><path fill="none" d="M56.84 33.89h4.67"/><path fill="#6d6e71" d="M56.84 32.39h4.67v3h-4.67z"/><path fill="none" d="M63.59 33.89h4.67"/><path fill="#6d6e71" d="M63.59 32.39h4.67v3h-4.67z"/><path fill="none" d="M70.34 33.89h4.67"/><path fill="#6d6e71" d="M70.34 32.39h4.67v3h-4.67z"/><path fill="none" d="M77.09 33.89h4.67"/><path fill="#6d6e71" d="M77.09 32.39h4.67v3h-4.67z"/><path fill="none" d="M83.84 33.89h4.67"/><path fill="#6d6e71" d="M83.84 32.39h4.67v3h-4.67z"/><path fill="none" d="M90.59 33.89h4.67"/><path fill="#6d6e71" d="M90.59 32.39h4.67v3h-4.67z"/><path fill="none" d="M97.34 33.89h4.67"/><path fill="#6d6e71" d="M97.34 32.39h4.67v3h-4.67z"/><path fill="none" d="M23.09 39.28h4.67"/><path fill="#6d6e71" d="M23.09 37.78h4.67v3h-4.67z"/><path fill="none" d="M29.84 39.28h4.67"/><path fill="#6d6e71" d="M29.84 37.78h4.67v3h-4.67z"/><path fill="none" d="M36.59 39.28h4.67"/><path fill="#6d6e71" d="M36.59 37.78h4.67v3h-4.67z"/><path fill="none" d="M43.34 39.28h4.67"/><path fill="#6d6e71" d="M43.34 37.78h4.67v3h-4.67z"/><path fill="none" d="M50.09 39.28h4.67"/><path fill="#6d6e71" d="M50.09 37.78h4.67v3h-4.67z"/><path fill="none" d="M56.84 39.28h4.67"/><path fill="#6d6e71" d="M56.84 37.78h4.67v3h-4.67z"/><path fill="none" d="M63.59 39.28h4.67"/><path fill="#6d6e71" d="M63.59 37.78h4.67v3h-4.67z"/><path fill="none" d="M70.34 39.28h4.67"/><path fill="#6d6e71" d="M70.34 37.78h4.67v3h-4.67z"/><path fill="none" d="M77.09 39.28h4.67"/><path fill="#6d6e71" d="M77.09 37.78h4.67v3h-4.67z"/><path fill="none" d="M83.84 39.28h4.67"/><path fill="#6d6e71" d="M83.84 37.78h4.67v3h-4.67z"/><path fill="none" d="M90.59 39.28h4.67"/><path fill="#6d6e71" d="M90.59 37.78h4.67v3h-4.67z"/><path fill="none" d="M97.34 39.28h4.67"/><path fill="#6d6e71" d="M97.34 37.78h4.67v3h-4.67z"/><path fill="none" d="M23.09 44.66h4.67"/><path fill="#6d6e71" d="M23.09 43.16h4.67v3h-4.67z"/><path fill="none" d="M29.84 44.66h4.67"/><path fill="#6d6e71" d="M29.84 43.16h4.67v3h-4.67z"/><path fill="none" d="M36.59 44.66h4.67"/><path fill="#6d6e71" d="M36.59 43.16h4.67v3h-4.67z"/><path fill="none" d="M43.34 44.66h4.67"/><path fill="#6d6e71" d="M43.34 43.16h4.67v3h-4.67z"/><path fill="none" d="M50.09 44.66h4.67"/><path fill="#6d6e71" d="M50.09 43.16h4.67v3h-4.67z"/><path fill="none" d="M56.84 44.66h4.67"/><path fill="#6d6e71" d="M56.84 43.16h4.67v3h-4.67z"/><path fill="none" d="M63.59 44.66h4.67"/><path fill="#6d6e71" d="M63.59 43.16h4.67v3h-4.67z"/><path fill="none" d="M70.34 44.66h4.67"/><path fill="#6d6e71" d="M70.34 43.16h4.67v3h-4.67z"/><path fill="none" d="M77.09 44.66h4.67"/><path fill="#6d6e71" d="M77.09 43.16h4.67v3h-4.67z"/><path fill="none" d="M83.84 44.66h4.67"/><path fill="#6d6e71" d="M83.84 43.16h4.67v3h-4.67z"/><path fill="none" d="M90.59 44.66h4.67"/><path fill="#6d6e71" d="M90.59 43.16h4.67v3h-4.67z"/><path fill="none" d="M97.34 44.66h4.67"/><path fill="#6d6e71" d="M97.34 43.16h4.67v3h-4.67z"/><path fill="none" d="M23.09 50.05h4.67"/><path fill="#6d6e71" d="M23.09 48.55h4.67v3h-4.67z"/><path fill="none" d="M29.84 50.05h4.67"/><path fill="#6d6e71" d="M29.84 48.55h4.67v3h-4.67z"/><path fill="none" d="M36.59 50.05h4.67"/><path fill="#6d6e71" d="M36.59 48.55h4.67v3h-4.67z"/><path fill="none" d="M43.34 50.05h4.67"/><path fill="#6d6e71" d="M43.34 48.55h4.67v3h-4.67z"/><path fill="none" d="M50.09 50.05h4.67"/><path fill="#6d6e71" d="M50.09 48.55h4.67v3h-4.67z"/><path fill="none" d="M56.84 50.05h4.67"/><path fill="#6d6e71" d="M56.84 48.55h4.67v3h-4.67z"/><path fill="none" d="M63.59 50.05h4.67"/><path fill="#6d6e71" d="M63.59 48.55h4.67v3h-4.67z"/><path fill="none" d="M70.34 50.05h4.67"/><path fill="#6d6e71" d="M70.34 48.55h4.67v3h-4.67z"/><path fill="none" d="M77.09 50.05h4.67"/><path fill="#6d6e71" d="M77.09 48.55h4.67v3h-4.67z"/><path fill="none" d="M83.84 50.05h4.67"/><path fill="#6d6e71" d="M83.84 48.55h4.67v3h-4.67z"/><path fill="none" d="M90.59 50.05h4.67"/><path fill="#6d6e71" d="M90.59 48.55h4.67v3h-4.67z"/><path fill="none" d="M97.34 50.05h4.67"/><path fill="#6d6e71" d="M97.34 48.55h4.67v3h-4.67z"/><path fill="none" d="M23.09 55.43h4.67"/><path fill="#6d6e71" d="M23.09 53.93h4.67v3h-4.67z"/><path fill="none" d="M29.84 55.43h4.67"/><path fill="#6d6e71" d="M29.84 53.93h4.67v3h-4.67z"/><path fill="none" d="M36.59 55.43h4.67"/><path fill="#6d6e71" d="M36.59 53.93h4.67v3h-4.67z"/><path fill="none" d="M43.34 55.43h4.67"/><path fill="#6d6e71" d="M43.34 53.93h4.67v3h-4.67z"/><path fill="none" d="M50.09 55.43h4.67"/><path fill="#6d6e71" d="M50.09 53.93h4.67v3h-4.67z"/><path fill="none" d="M56.84 55.43h4.67"/><path fill="#6d6e71" d="M56.84 53.93h4.67v3h-4.67z"/><path fill="none" d="M63.59 55.43h4.67"/><path fill="#6d6e71" d="M63.59 53.93h4.67v3h-4.67z"/><path fill="none" d="M70.34 55.43h4.67"/><path fill="#6d6e71" d="M70.34 53.93h4.67v3h-4.67z"/><path fill="none" d="M77.09 55.43h4.67"/><path fill="#6d6e71" d="M77.09 53.93h4.67v3h-4.67z"/><path fill="none" d="M83.84 55.43h4.67"/><path fill="#6d6e71" d="M83.84 53.93h4.67v3h-4.67z"/><path fill="none" d="M90.59 55.43h4.67"/><path fill="#6d6e71" d="M90.59 53.93h4.67v3h-4.67z"/><path fill="none" d="M97.34 55.43h4.67"/><path fill="#6d6e71" d="M97.34 53.93h4.67v3h-4.67z"/><path fill="none" d="M23.09 60.81h4.67"/><path fill="#6d6e71" d="M23.09 59.31h4.67v3h-4.67z"/><path fill="none" d="M29.84 60.81h4.67"/><path fill="#6d6e71" d="M29.84 59.31h4.67v3h-4.67z"/><path fill="none" d="M36.59 60.81h4.67"/><path fill="#6d6e71" d="M36.59 59.31h4.67v3h-4.67z"/><path fill="none" d="M43.34 60.81h4.67"/><path fill="#6d6e71" d="M43.34 59.31h4.67v3h-4.67z"/><path fill="none" d="M50.09 60.81h24.98"/><path fill="#6d6e71" d="M50.09 59.31h24.98v3H50.09z"/><path fill="none" d="M77.09 60.81h4.67"/><path fill="#6d6e71" d="M77.09 59.31h4.67v3h-4.67z"/><path fill="none" d="M83.84 60.81h4.67"/><path fill="#6d6e71" d="M83.84 59.31h4.67v3h-4.67z"/><path fill="none" d="M90.59 60.81h4.67"/><path fill="#6d6e71" d="M90.59 59.31h4.67v3h-4.67z"/><path fill="none" d="M97.34 60.81h4.67"/><path fill="#6d6e71" d="M97.34 59.31h4.67v3h-4.67z"/></g></g></g></g></svg>