<svg xmlns="http://www.w3.org/2000/svg" viewBox="-7.760000228881836 0 46.660003662109375 78.83999633789062"><title>25554311_3_ic</title><g data-name="Layer 2"><g data-name="Layer 1"><path d="M15.74 41.11S10.12 6.87 25.16 4.84L24.55 0S15.4 6.5 13.69 21.71s1.11 22.91 1.11 22.91z" fill="#70b961"/><path d="M13.69 40.9S8.61 36.35 5 40.64s-12.76 24.7 9.22 31.45S38.9 46.73 24.83 36.51c0 0-5.52-.8-7.79 3s-3.35 1.39-3.35 1.39z" fill="#c01b18"/><path d="M16 43.47s-3.82-3.41-6.53-.19-9.62 18.52 6.87 23.58 18.52-19 8-26.69c0 0-4.14-.6-5.84 2.22S16 43.47 16 43.47z" fill="#e7353c"/><path d="M24.38 45.28s-.57-.51-1 0S22 48 24.44 48.8s2.79-2.86 1.2-4a.94.94 0 0 0-.88.33c-.25.41-.38.15-.38.15z" fill="#fdf1f4"/><circle cx="24.94" cy="53.72" r="1.69" transform="rotate(-56.77 24.938 53.716)" fill="#fdf1f4"/></g></g></svg>