<svg xmlns="http://www.w3.org/2000/svg" viewBox="-0.7699999809265137 -0.05727815628051758 340.989990234375 388.1972961425781"><title>Depositphotos_65570335_05</title><g data-name="Layer 2"><g data-name="Layer 1"><path d="M77.64 235.05c-3.69-10-7.8-23.55-21.06-18.48-12 4.58-20.44 17.42-23 29.54-2.3 10.71-1.23 21.78 1.06 32.4a261.18 261.18 0 0 0 10 33.51c3.16 8.77 10.65 27.74 10.69 28.61-4.43.16-8.7 3-9.93 7.38-1.37 4.92 1.37 10.5 6.37 11.93a11.15 11.15 0 0 0 3.34.42 14.46 14.46 0 0 0 1 5.17c2.83 7 12.31 11.07 17.39 3.78a13 13 0 0 0 2.31-8.4 11.29 11.29 0 0 0 7.92-15.41 9.92 9.92 0 0 0-10.43-5.92c9.63-13.14 10.63-31.34 11.45-47 .99-19.36-.34-39.25-7.11-57.53z" fill="#ab7658"/><path d="M227 314.61C224.14 249 207.88 71.47 204.83 46.34q-.27-21.27-1-42.53a1.46 1.46 0 0 0-2.66-.88 162.77 162.77 0 0 0-17.82 29.42c-19.71-5.92-52-8.11-74.43-2-2.69-9.81-5.45-19.6-8.67-29.25a1.46 1.46 0 0 0-2.82-.1C71.35 60 63 125.87 55.6 189.48q-5.94 51-7.83 102.39c-.73 20.5 2.11 49.86 24.54 53.63 45.53 7.65 90.33 5.64 126.75.13 20.74-3.15 28.6-14.54 27.94-31.02z" fill="#ab7658"/><path d="M100.32 49.92c-7.91.1-12.68 7.34-13.66 14.47-.25 1.85 2.63 2.12 2.89.27.76-5.51 4.15-11.36 10.27-11.83 5.34-.41 11.83 5.14 11.88 10.57 0 1.85 2.91 2.14 2.89.27-.06-7-7.25-13.84-14.27-13.75z" fill="#754c29"/><path d="M177.7 52.77c-7.15-.43-13.23 4.72-14.84 11.54-.43 1.8 2.32 2.73 2.75.91 1.31-5.56 6-9.92 11.9-9.56s11.15 6.39 12.39 11.92c.41 1.82 3.25 1.26 2.84-.56-1.51-6.8-7.81-13.82-15.04-14.25z" fill="#754c29"/><path d="M144.25 29.68c-11.36-4-14.48 14.89-13.44 22.3 1.21 8.59 8.34 14 16.15 8.66 5-3.4 4.83-10.09 4.58-15.56-.17-3.56-.53-7.44-2.19-10.66a9.41 9.41 0 0 0-5.1-4.74z" fill="#d48d66"/><path d="M141 53.62a41.47 41.47 0 0 0-9.5 1.36c2.26 6.76 8.6 10.37 15.45 5.67a9.73 9.73 0 0 0 3.66-4.9 19.35 19.35 0 0 0-9.61-2.13z" fill="#754c29"/><path d="M151.8 68.87l-.06-.11a1.31 1.31 0 0 0-1.44-.65 8.58 8.58 0 0 1-4-.25c-2.93-.93-3.88-4.67-4.18-7.59a1.19 1.19 0 0 1 0-.13v-.44a1.55 1.55 0 0 0-.07-.39c-.11-1.86-3-1.82-2.9 0 0 .28 0 .56.07.84a1.45 1.45 0 0 1 0 .15c0 3.32-1.36 6.24-4.72 7.51a5.06 5.06 0 0 1-4.51-.24 3.43 3.43 0 0 1-.33-.24 1.33 1.33 0 0 0-1.69 0l-.1.08a1.31 1.31 0 0 0-.05 2 7.18 7.18 0 0 0 1.46 1v.06c-.07 5.45-.38 11.5 1.06 16.81 1.09 4 4.21 7.89 8.69 7.9 4.64 0 8-3.9 9.36-8 1.6-4.69 1.75-10.1 1.6-15.11a1.32 1.32 0 0 1 1-1.31 1.32 1.32 0 0 0 .81-1.89z" fill="#754c29"/><path d="M145.92 81.5a22.24 22.24 0 0 0 .11-5.3c-.3-2.69-4-4.09-5.6-1.49a1.33 1.33 0 0 1-1.7.58c-.51-.25-.57-.82-.89-1.23-.75-1-2.69-.79-3.63-.35-1.25.6-1.52 1.7-1.62 3.13a30.34 30.34 0 0 0 .34 5.06c.35 3.35 1.81 8.29 6 8.34 4.46.02 6.39-4.43 6.99-8.74z" fill="#ff8263"/><path d="M110.3 78.56c-2.56-3.16-5.75-5-9.95-4.62a13.14 13.14 0 0 0-9.74 5.68 12.44 12.44 0 0 0 .82 14.53c3.14 3.6 8.41 4.1 12.77 2.64 5-1.66 9.12-5.42 9.09-10.89a11.77 11.77 0 0 0-2.99-7.34z" fill="#ff8263"/><path d="M102.41 76.46h-.06a4.18 4.18 0 0 0-3.89.45 1.75 1.75 0 0 0-.87 1.39c0 2.57 6.47 3.24 5.93-.33a2 2 0 0 0-1.11-1.51z" fill="#ffa17e"/><path d="M188.22 83.63A11.08 11.08 0 0 0 186 79a11.23 11.23 0 0 0-5.39-3.61 14.47 14.47 0 0 0-7.14-.06 15.35 15.35 0 0 0-7.33 3.58c-3.87 3.65-3.88 10-.66 14.09 4.88 6.29 16.42 5.92 21-.34a11.22 11.22 0 0 0 1.74-9.03z" fill="#ff8263"/><path d="M180 79.26a2.51 2.51 0 0 0-.49-1.12 2.85 2.85 0 0 0-1.44-1c-3.41-1.17-7.58 3.2-2.79 4.16 1.26.25 5-.11 4.72-2.04z" fill="#ffa17e"/><path d="M135.78 50.64a9.11 9.11 0 0 1-.11-2.52 1.46 1.46 0 0 0-1.47-1.43 1.48 1.48 0 0 0-1.43 1.47 11.83 11.83 0 0 0 .23 3.29 1.46 1.46 0 0 0 1.8 1 1.48 1.48 0 0 0 .98-1.81z" fill="#ab7658"/><path d="M140.35 46.9a1.49 1.49 0 0 0-1.47-1.43 1.46 1.46 0 0 0-1.43 1.47 14.44 14.44 0 0 1 0 3 1.46 1.46 0 0 0 1.55 1.4 1.48 1.48 0 0 0 1.43-1.47 14.44 14.44 0 0 0-.08-2.97z" fill="#ab7658"/><path d="M144.23 47.18a1.47 1.47 0 0 0-1.43 1.47 8.16 8.16 0 0 1-.27 2.24 1.45 1.45 0 1 0 2.81.73 11.48 11.48 0 0 0 .36-3 1.47 1.47 0 0 0-1.47-1.44z" fill="#ab7658"/><path d="M147.61 47.75v3a1.45 1.45 0 0 0 2.9 0v-3a1.45 1.45 0 0 0-2.9 0z" fill="#ab7658"/><path d="M143.83 39.72a1.46 1.46 0 0 0-1.77 1 20.53 20.53 0 0 0-.33 3.28c0 1.87 2.87 1.82 2.9 0a15.58 15.58 0 0 1 .24-2.51 1.49 1.49 0 0 0-1.04-1.77z" fill="#ab7658"/><path d="M135.52 39.44a1.47 1.47 0 0 0-1.77 1 14.89 14.89 0 0 0-.17 2.53 1.45 1.45 0 1 0 2.9 0v-1.76a1.49 1.49 0 0 0-.96-1.77z" fill="#ab7658"/><path d="M140.4 36.89a1.46 1.46 0 0 0-1.47-1.43 1.48 1.48 0 0 0-1.43 1.47 14.44 14.44 0 0 0 .07 3 1.49 1.49 0 0 0 1.43 1.46 1.46 1.46 0 0 0 1.43-1.47 14.45 14.45 0 0 1-.03-3.03z" fill="#ab7658"/><path d="M149 38.15a1.49 1.49 0 0 0-1.8-1 1.46 1.46 0 0 0-1 1.8 7.7 7.7 0 0 1 .59 3.68 1.46 1.46 0 0 0 1.47 1.43 1.48 1.48 0 0 0 1.43-1.47 9.62 9.62 0 0 0-.69-4.44z" fill="#ab7658"/><path d="M145.71 36.21l-.38-2.48a1.46 1.46 0 0 0-1.8-1 1.49 1.49 0 0 0-1 1.8l.38 2.48a1.46 1.46 0 0 0 1.8 1 1.49 1.49 0 0 0 1-1.8z" fill="#ab7658"/><path d="M140.77 30.94a1.47 1.47 0 0 0-2-.49 7 7 0 0 0-2 2.05 1.46 1.46 0 0 0 .55 2 1.48 1.48 0 0 0 2-.55l.13-.2.12-.15.17-.19.32-.31H140h.06c.09-.08.06 0 0 0l.17-.13a1.48 1.48 0 0 0 .54-2.03z" fill="#ab7658"/><path d="M82.1 116.82c.06-1.87-2.84-1.78-2.9.08a29.61 29.61 0 0 0 .34 5.59A1.5 1.5 0 0 0 81 123.9a1.46 1.46 0 0 0 1.41-1.49 29.61 29.61 0 0 1-.31-5.59z" fill="#d48d66"/><path d="M84.63 120.81l.17 5.85a1.45 1.45 0 0 0 2.9-.08l-.17-5.85a1.45 1.45 0 0 0-2.9.08z" fill="#d48d66"/><path d="M94.45 124.73a10.56 10.56 0 0 1-.26-3.42 1.46 1.46 0 0 0-1.49-1.41 1.48 1.48 0 0 0-1.41 1.49 13 13 0 0 0 .39 4.19c.45 1.81 3.22.96 2.77-.85z" fill="#d48d66"/><path d="M84.14 138.14a32.81 32.81 0 0 1-.32-5.85c.06-1.87-2.84-1.78-2.9.08a32.82 32.82 0 0 0 .32 5.85c.27 1.78 3.17 1.78 2.9-.08z" fill="#d48d66"/><path d="M88.28 132.67l.14 4.83a1.45 1.45 0 0 0 2.9-.08l-.14-4.83a1.45 1.45 0 0 0-2.9.08z" fill="#d48d66"/><path d="M88.13 143.11c-.17-1.85-3.07-1.78-2.9.08l.47 5.07c.17 1.85 3.07 1.78 2.9-.08z" fill="#d48d66"/><path d="M84.84 152.1c-.15-1.85-3.05-1.78-2.9.08l.5 6.09c.15 1.85 3.05 1.78 2.9-.08z" fill="#d48d66"/><path d="M93.71 144.47l.15 5.34a1.45 1.45 0 0 0 2.9-.08l-.15-5.34a1.45 1.45 0 0 0-2.9.08z" fill="#d48d66"/><path d="M91.86 159.41a21.81 21.81 0 0 1-.29-4.7c.07-1.87-2.83-1.77-2.9.08a25.22 25.22 0 0 0 .41 5.47 1.46 1.46 0 0 0 1.81 1 1.48 1.48 0 0 0 .97-1.85z" fill="#d48d66"/><path d="M98 132.38a1.46 1.46 0 0 0-1.52-1.38 1.48 1.48 0 0 0-1.41 1.49 27.36 27.36 0 0 0 0 5.35c.18 1.85 3.08 1.78 2.9-.08a27.35 27.35 0 0 1 .03-5.38z" fill="#d48d66"/><path d="M101.32 123.65c-.19-1.84-3.09-1.78-2.9.08l.45 4.31c.19 1.84 3.09 1.78 2.9-.08z" fill="#d48d66"/><path d="M99.79 143.79l.15 5.08a1.45 1.45 0 0 0 2.9-.08l-.15-5.08a1.45 1.45 0 0 0-2.9.08z" fill="#d48d66"/><path d="M105.43 134.22c-.19-1.85-3.09-1.78-2.9.08l.46 4.56c.19 1.85 3.09 1.78 2.9-.08z" fill="#d48d66"/><path d="M110.75 125.93a1.5 1.5 0 0 0-1.49-1.41 1.46 1.46 0 0 0-1.41 1.49l.77 5.31a1.5 1.5 0 0 0 1.49 1.41 1.46 1.46 0 0 0 1.41-1.49z" fill="#d48d66"/><path d="M113.94 139.06c-.16-1.85-3.06-1.78-2.9.08l.42 4.82c.16 1.85 3.06 1.78 2.9-.08z" fill="#d48d66"/><path d="M109.43 147.08c.05-1.87-2.85-1.78-2.9.08a39.65 39.65 0 0 0 .3 6.11c.23 1.83 3.13 1.77 2.9-.08a39.65 39.65 0 0 1-.3-6.11z" fill="#d48d66"/><path d="M98.28 155.78a33.49 33.49 0 0 0 0 5.86c.17 1.85 3.07 1.78 2.9-.08a33.47 33.47 0 0 1 0-5.86c.15-1.86-2.75-1.76-2.9.08z" fill="#d48d66"/><path d="M106.08 158.87l.15 5.08a1.45 1.45 0 0 0 2.9-.08l-.15-5.08a1.45 1.45 0 0 0-2.9.08z" fill="#d48d66"/><path d="M93.59 164.83l-.13 6.87c0 1.87 2.86 1.78 2.9-.08l.13-6.87c.04-1.87-2.86-1.75-2.9.08z" fill="#d48d66"/><path d="M84.42 164.84l-.16 5.6c-.05 1.87 2.84 1.78 2.9-.08l.16-5.6c.05-1.87-2.85-1.76-2.9.08z" fill="#d48d66"/><path d="M89.22 174.37l.15 5.08a1.45 1.45 0 0 0 2.9-.08l-.15-5.08a1.45 1.45 0 0 0-2.9.08z" fill="#d48d66"/><path d="M87 185.88a37.65 37.65 0 0 1-.35-6.36c.06-1.87-2.84-1.78-2.9.08a37.64 37.64 0 0 0 .35 6.36c.3 1.84 3.2 1.77 2.9-.08z" fill="#d48d66"/><path d="M97 176.56a26.43 26.43 0 0 0-.12 6c.18 1.85 3.08 1.78 2.9-.08a23.13 23.13 0 0 1 0-5.21c.22-1.85-2.57-2.56-2.78-.71z" fill="#d48d66"/><path d="M101 166.91l.16 5.59a1.45 1.45 0 0 0 2.9-.08l-.16-5.59a1.45 1.45 0 0 0-2.9.08z" fill="#d48d66"/><path d="M107 174.11l.17 6.1a1.45 1.45 0 0 0 2.9-.08l-.17-6.1a1.45 1.45 0 0 0-2.9.08z" fill="#d48d66"/><path d="M114.74 166c-.15-1.85-3.05-1.78-2.9.08l.52 6.34c.15 1.85 3.05 1.78 2.9-.08z" fill="#d48d66"/><path d="M117 155c-.15-1.85-3.05-1.78-2.9.08l.52 6.34c.15 1.85 3.05 1.78 2.9-.08z" fill="#d48d66"/><path d="M120.83 145.48c.08-1.86-2.82-1.77-2.9.08a23.85 23.85 0 0 0 .28 4.84 1.5 1.5 0 0 0 1.49 1.41 1.46 1.46 0 0 0 1.41-1.49 23.85 23.85 0 0 1-.28-4.84z" fill="#d48d66"/><path d="M116.47 129.83a45.5 45.5 0 0 0-.09 6.87c.12 1.86 3 1.78 2.9-.08a45.49 45.49 0 0 1 .09-6.87c.17-1.86-2.73-1.75-2.9.08z" fill="#d48d66"/><path d="M122.53 129.4l.17 6.1a1.45 1.45 0 0 0 2.9-.08l-.17-6.1a1.45 1.45 0 0 0-2.9.08z" fill="#d48d66"/><path d="M124.67 141.8l.15 5.08a1.45 1.45 0 0 0 2.9-.08l-.15-5.08a1.45 1.45 0 0 0-2.9.08z" fill="#d48d66"/><path d="M123.33 157.11l.12 4.32a1.45 1.45 0 0 0 2.9-.08l-.12-4.32a1.45 1.45 0 0 0-2.9.08z" fill="#d48d66"/><path d="M122.8 171a22.56 22.56 0 0 1-.37-4.18c0-1.87-2.9-1.78-2.9.08a26.65 26.65 0 0 0 .49 4.94 1.46 1.46 0 0 0 1.81 1 1.48 1.48 0 0 0 .97-1.84z" fill="#d48d66"/><path d="M115.3 178.2a37.15 37.15 0 0 0-.06 6.87c.16 1.85 3.05 1.78 2.9-.08a37.16 37.16 0 0 1 .06-6.87c.18-1.85-2.72-1.75-2.9.08z" fill="#d48d66"/><path d="M121.9 178.27l.14 4.83a1.45 1.45 0 0 0 2.9-.08l-.14-4.83a1.45 1.45 0 0 0-2.9.08z" fill="#d48d66"/><path d="M126.46 169l.16 5.59a1.45 1.45 0 0 0 2.9-.08l-.16-5.59a1.45 1.45 0 0 0-2.9.08z" fill="#d48d66"/><path d="M133.47 151.48c.08-1.86-2.81-1.77-2.9.08a22.85 22.85 0 0 0 .25 4.58 1.5 1.5 0 0 0 1.49 1.41 1.46 1.46 0 0 0 1.41-1.49 22.86 22.86 0 0 1-.25-4.58z" fill="#d48d66"/><path d="M135.76 163.37c-.15-1.85-3-1.78-2.9.08l.45 5.58c.15 1.85 3 1.78 2.9-.08z" fill="#d48d66"/><path d="M132.1 141.6l-.15 5.34c-.05 1.87 2.84 1.78 2.9-.08l.15-5.34c.05-1.87-2.84-1.78-2.9.08z" fill="#d48d66"/><path d="M129.42 130l.2 7.12a1.45 1.45 0 0 0 2.9-.08l-.2-7.12a1.45 1.45 0 0 0-2.9.08z" fill="#d48d66"/><path d="M137.12 130.51l-.18 5.09c-.07 1.87 2.83 1.78 2.9-.08l.18-5.09c.06-1.87-2.84-1.78-2.9.08z" fill="#d48d66"/><path d="M139.58 142.79a18.39 18.39 0 0 0 .1 6.1 1.46 1.46 0 0 0 1.81 1 1.48 1.48 0 0 0 1-1.81 14.07 14.07 0 0 1-.06-4.56c.24-1.87-2.58-2.58-2.85-.73z" fill="#d48d66"/><path d="M140.47 160.06a11.9 11.9 0 0 1-.25-3.43 1.46 1.46 0 0 0-1.49-1.41 1.48 1.48 0 0 0-1.41 1.49 14.58 14.58 0 0 0 .37 4.2 1.45 1.45 0 0 0 2.77-.85z" fill="#d48d66"/><path d="M140.69 168.06l.15 5.34a1.45 1.45 0 0 0 2.9-.08l-.15-5.34a1.45 1.45 0 0 0-2.9.08z" fill="#d48d66"/><path d="M134.05 176.39l.15 5.34a1.45 1.45 0 0 0 2.9-.08l-.15-5.34a1.45 1.45 0 0 0-2.9.08z" fill="#d48d66"/><path d="M144.69 130.29l.14 4.83a1.45 1.45 0 0 0 2.9-.08l-.14-4.83a1.45 1.45 0 0 0-2.9.08z" fill="#d48d66"/><path d="M148.21 143a15.67 15.67 0 0 1-.35-3.16 1.45 1.45 0 0 0-2.9.08 19.57 19.57 0 0 0 .48 3.92 1.46 1.46 0 0 0 1.81 1 1.48 1.48 0 0 0 .96-1.84z" fill="#d48d66"/><path d="M146.6 158.34a21.89 21.89 0 0 1-.37-4.69c0-1.87-2.86-1.78-2.9.08a25.41 25.41 0 0 0 .49 5.45 1.46 1.46 0 0 0 1.81 1 1.48 1.48 0 0 0 .97-1.84z" fill="#d48d66"/><path d="M150.57 149l.12 4.07a1.45 1.45 0 0 0 2.9-.08l-.12-4.07a1.45 1.45 0 0 0-2.9.08z" fill="#d48d66"/><path d="M153.8 164.52a9 9 0 0 1-.2-2.93 1.46 1.46 0 0 0-1.49-1.41 1.48 1.48 0 0 0-1.41 1.49 11.45 11.45 0 0 0 .33 3.7 1.45 1.45 0 0 0 2.77-.85z" fill="#d48d66"/><path d="M146.61 170.69l.12 4.07a1.45 1.45 0 0 0 2.9-.08l-.12-4.07a1.45 1.45 0 0 0-2.9.08z" fill="#d48d66"/><path d="M156.82 171.67l.12 4.07a1.45 1.45 0 0 0 2.9-.08l-.12-4.07a1.45 1.45 0 0 0-2.9.08z" fill="#d48d66"/><path d="M159.62 155.9a1.48 1.48 0 0 0-1.41 1.49l-.42 4.84a1.46 1.46 0 0 0 1.49 1.41 1.48 1.48 0 0 0 1.41-1.49l.42-4.84a1.46 1.46 0 0 0-1.49-1.41z" fill="#d48d66"/><path d="M157.31 144.43l.15 5.08a1.45 1.45 0 0 0 2.9-.08l-.15-5.08a1.45 1.45 0 0 0-2.9.08z" fill="#d48d66"/><path d="M152.31 136.69l-.15 5.34c-.05 1.87 2.85 1.78 2.9-.08l.15-5.34c.05-1.87-2.85-1.78-2.9.08z" fill="#d48d66"/><path d="M155.1 125.81a1.46 1.46 0 0 0-1.75 1.06 16.63 16.63 0 0 0-.26 3.69 1.45 1.45 0 0 0 2.9-.08 13 13 0 0 1 .18-2.92 1.48 1.48 0 0 0-1.07-1.75z" fill="#d48d66"/><path d="M159.75 131a58.83 58.83 0 0 0-.62 6.51c-.07 1.87 2.83 1.77 2.9-.08a51.77 51.77 0 0 1 .54-5.74c.28-1.83-2.57-2.54-2.82-.69z" fill="#d48d66"/><path d="M165 127.17l.14 4.83a1.45 1.45 0 0 0 2.9-.08l-.14-4.83a1.45 1.45 0 0 0-2.9.08z" fill="#d48d66"/><path d="M164.12 142.46l.11 3.81a1.45 1.45 0 0 0 2.9-.08l-.11-3.81a1.45 1.45 0 0 0-2.9.08z" fill="#d48d66"/><path d="M169.34 136.71l-.18 4.33c-.08 1.86 2.82 1.77 2.9-.08l.18-4.33c.08-1.86-2.82-1.77-2.9.08z" fill="#d48d66"/><path d="M172.59 125.68l-.2 4.58c-.08 1.86 2.82 1.77 2.9-.08l.2-4.58c.08-1.87-2.82-1.77-2.9.08z" fill="#d48d66"/><path d="M176.65 132.56a23.29 23.29 0 0 0-.19 5.22c.15 1.85 3 1.78 2.9-.08a19.88 19.88 0 0 1 .11-4.44c.26-1.84-2.55-2.54-2.82-.7z" fill="#d48d66"/><path d="M180.17 123.94l-.2 4.58c-.08 1.86 2.82 1.77 2.9-.08l.2-4.58c.08-1.86-2.82-1.78-2.9.08z" fill="#d48d66"/><path d="M184.46 133l.17 5.85a1.45 1.45 0 0 0 2.9-.08l-.17-5.85a1.45 1.45 0 0 0-2.9.08z" fill="#d48d66"/><path d="M176.93 146.15c.13-1.86-2.77-1.76-2.9.08a36 36 0 0 0 0 5.61c.16 1.85 3.06 1.78 2.9-.08a36 36 0 0 1 0-5.61z" fill="#d48d66"/><path d="M167.26 152.8l-.28 5.36c-.1 1.86 2.8 1.77 2.9-.08l.28-5.36c.09-1.86-2.8-1.72-2.9.08z" fill="#d48d66"/><path d="M163.46 163.85l.12 4.32a1.45 1.45 0 0 0 2.9-.08l-.12-4.32a1.45 1.45 0 0 0-2.9.08z" fill="#d48d66"/><path d="M170.59 164.15l-.38 6.11c-.12 1.86 2.78 1.77 2.9-.08l.38-6.11c.12-1.86-2.78-1.77-2.9.08z" fill="#d48d66"/><path d="M177.57 158.61a20.6 20.6 0 0 1-.35 4.71c-.35 1.83 2.46 2.52 2.82.69a24.15 24.15 0 0 0 .43-5.48 1.45 1.45 0 0 0-2.9.08z" fill="#d48d66"/><path d="M182.59 147.78l.16 5.59a1.45 1.45 0 0 0 2.9-.08l-.16-5.59a1.45 1.45 0 0 0-2.9.08z" fill="#d48d66"/><path d="M190.83 120.71a1.46 1.46 0 0 0-1.75 1.06 30.46 30.46 0 0 0-.2 5.47c.11 1.86 3 1.78 2.9-.08a26.25 26.25 0 0 1 .12-4.7 1.5 1.5 0 0 0-1.07-1.75z" fill="#d48d66"/><path d="M195.6 118.8a22 22 0 0 0-.5 4.46c0 1.87 2.88 1.78 2.9-.08a18 18 0 0 1 .42-3.69c.39-1.83-2.42-2.49-2.82-.69z" fill="#d48d66"/><path d="M190.86 134.17a17.69 17.69 0 0 0-.84 5.77 1.45 1.45 0 0 0 2.9-.08 15.18 15.18 0 0 1 .76-5c.57-1.78-2.25-2.46-2.82-.69z" fill="#d48d66"/><path d="M197.63 130.05l-.33 5.1c-.12 1.86 2.78 1.77 2.9-.08l.33-5.1c.12-1.86-2.78-1.77-2.9.08z" fill="#d48d66"/><path d="M194.74 146.67l-.32 6.37c-.09 1.86 2.81 1.77 2.9-.08l.32-6.37c.09-1.87-2.81-1.78-2.9.08z" fill="#d48d66"/><path d="M188.77 149.13l-.38 6.62c-.11 1.86 2.79 1.77 2.9-.08l.38-6.62c.1-1.86-2.8-1.77-2.9.08z" fill="#d48d66"/><path d="M192.37 161.61a1.46 1.46 0 0 0-1.75 1.06l-.68 5.64a1.5 1.5 0 0 0 1.06 1.75 1.46 1.46 0 0 0 1.75-1.06l.68-5.64a1.5 1.5 0 0 0-1.06-1.75z" fill="#d48d66"/><path d="M184.55 163.84a1.48 1.48 0 0 0-1.41 1.49c-.16 1.75-.4 3.48-.69 5.21s2.51 2.53 2.82.69.58-4 .77-6a1.46 1.46 0 0 0-1.49-1.39z" fill="#d48d66"/><path d="M177 172.37l-.36 5.1c-.13 1.86 2.77 1.76 2.9-.08l.36-5.1c.1-1.86-2.79-1.77-2.9.08z" fill="#d48d66"/><path d="M187.53 175.75l-.8 5.88c-.25 1.83 2.57 2.54 2.82.69l.8-5.88c.25-1.83-2.57-2.53-2.82-.69z" fill="#d48d66"/><path d="M189.87 188.39a15.76 15.76 0 0 0-.66 4 1.46 1.46 0 0 0 1.49 1.41 1.48 1.48 0 0 0 1.41-1.49 12.72 12.72 0 0 1 .58-3.21c.54-1.81-2.28-2.49-2.82-.71z" fill="#d48d66"/><path d="M181.88 183a25.38 25.38 0 0 0-1 5.5c-.13 1.86 2.77 1.77 2.9-.08a21.91 21.91 0 0 1 .87-4.72c.57-1.77-2.25-2.45-2.77-.7z" fill="#d48d66"/><path d="M185.52 194.89a1.48 1.48 0 0 0-1.75 1.06l-1.42 4.11a1.46 1.46 0 0 0 1.06 1.75 1.48 1.48 0 0 0 1.75-1.06l1.42-4.11a1.46 1.46 0 0 0-1.06-1.75z" fill="#d48d66"/><path d="M174.47 184.51l-.79 5.88c-.24 1.83 2.57 2.54 2.82.69l.79-5.88c.24-1.83-2.58-2.54-2.82-.69z" fill="#d48d66"/><path d="M168.54 178.08a65 65 0 0 0-.69 6.76c-.09 1.86 2.81 1.77 2.9-.08a57.46 57.46 0 0 1 .61-6c.28-1.82-2.54-2.52-2.82-.68z" fill="#d48d66"/><path d="M162.52 175.93a19.71 19.71 0 0 0-.83 6 1.45 1.45 0 0 0 2.9-.08 17 17 0 0 1 .74-5.26c.55-1.76-2.27-2.44-2.81-.66z" fill="#d48d66"/><path d="M151 180.86a46.28 46.28 0 0 0-.55 5.75c-.06 1.87 2.84 1.78 2.9-.08a40 40 0 0 1 .47-5c.3-1.81-2.52-2.53-2.82-.67z" fill="#d48d66"/><path d="M156.64 186.17l-.19 6.63c-.05 1.87 2.84 1.78 2.9-.08l.19-6.63c.05-1.87-2.85-1.78-2.9.08z" fill="#d48d66"/><path d="M164.07 190.17l-.82 6.39c-.24 1.83 2.58 2.54 2.82.69l.82-6.39c.23-1.86-2.58-2.54-2.82-.69z" fill="#d48d66"/><path d="M170.17 194.27a1.48 1.48 0 0 0-1.41 1.49l-.45 5.34a1.46 1.46 0 0 0 1.49 1.41 1.48 1.48 0 0 0 1.41-1.49l.45-5.34a1.46 1.46 0 0 0-1.49-1.41z" fill="#d48d66"/><path d="M177.91 196.51a19.17 19.17 0 0 1-.83 5.24c-.54 1.79 2.28 2.47 2.82.69a22.08 22.08 0 0 0 .92-6c.02-1.88-2.88-1.79-2.91.07z" fill="#d48d66"/><path d="M142.57 180.47l.15 5.34a1.45 1.45 0 0 0 2.9-.08l-.15-5.34a1.45 1.45 0 0 0-2.9.08z" fill="#d48d66"/><path d="M130.52 182.09c-.18-1.85-3.08-1.78-2.9.08l.44 4.56c.18 1.85 3.08 1.78 2.9-.08z" fill="#d48d66"/><path d="M120.7 189.75l.14 4.83a1.45 1.45 0 0 0 2.9-.08l-.14-4.83a1.45 1.45 0 0 0-2.9.08z" fill="#d48d66"/><path d="M109.63 185.23l.17 5.85a1.45 1.45 0 0 0 2.9-.08l-.17-5.85a1.45 1.45 0 0 0-2.9.08z" fill="#d48d66"/><path d="M103.58 187.31a1.46 1.46 0 0 0-1.75 1.06 23.48 23.48 0 0 0-.09 5.23c.19 1.85 3.09 1.78 2.9-.08a20.16 20.16 0 0 1 0-4.46 1.5 1.5 0 0 0-1.06-1.75z" fill="#d48d66"/><path d="M95.37 190.59a19.93 19.93 0 0 1-.63-3.91c-.12-1.86-3-1.78-2.9.08a24 24 0 0 0 .76 4.68c.48 1.8 3.25.95 2.77-.85z" fill="#d48d66"/><path d="M97 198.06l.12 4.32a1.45 1.45 0 0 0 2.9-.08l-.1-4.3a1.45 1.45 0 0 0-2.92.06z" fill="#d48d66"/><path d="M90.06 193.17c-.18-1.85-3.08-1.78-2.9.08l.46 4.56c.18 1.85 3.08 1.78 2.9-.08z" fill="#d48d66"/><path d="M96.06 206.85a12 12 0 0 1-.59-3.66c0-1.87-2.91-1.78-2.9.08a14.76 14.76 0 0 0 .71 4.43 1.45 1.45 0 0 0 2.78-.85z" fill="#d48d66"/><path d="M90.69 213.88a30.42 30.42 0 0 1-.4-5.45c0-1.87-2.88-1.78-2.9.08a34.54 34.54 0 0 0 .52 6.22 1.46 1.46 0 0 0 1.81 1 1.49 1.49 0 0 0 .97-1.85z" fill="#d48d66"/><path d="M99.18 219.5a18 18 0 0 1-.28-4.19c.08-1.87-2.82-1.77-2.9.08a21.24 21.24 0 0 0 .4 5 1.46 1.46 0 0 0 1.81 1 1.48 1.48 0 0 0 .97-1.89z" fill="#d48d66"/><path d="M103.33 207c-.21-1.84-3.11-1.77-2.9.08l.63 5.58c.21 1.84 3.11 1.77 2.9-.08z" fill="#d48d66"/><path d="M108.89 204l-.86-4.82a1.46 1.46 0 0 0-1.81-1 1.49 1.49 0 0 0-1 1.81l.86 4.82a1.46 1.46 0 0 0 1.81 1 1.49 1.49 0 0 0 1-1.81z" fill="#d48d66"/><path d="M112.5 196.6l.17 6.1a1.45 1.45 0 0 0 2.9-.08l-.17-6.1a1.45 1.45 0 0 0-2.9.08z" fill="#d48d66"/><path d="M124.63 201.34c-.15-1.85-3-1.78-2.9.08l.45 5.58c.15 1.85 3 1.78 2.9-.08z" fill="#d48d66"/><path d="M128.29 194.49a31.62 31.62 0 0 0-.13 6.49c.16 1.85 3.06 1.78 2.9-.08a28 28 0 0 1 0-5.72c.26-1.83-2.55-2.54-2.77-.69z" fill="#d48d66"/><path d="M138.16 194.21a20.46 20.46 0 0 1-.31-4.69c.08-1.86-2.82-1.77-2.9.08a23.7 23.7 0 0 0 .43 5.46 1.46 1.46 0 0 0 1.81 1 1.48 1.48 0 0 0 .97-1.85z" fill="#d48d66"/><path d="M144 193.92l.14 4.83a1.45 1.45 0 0 0 2.9-.08l-.14-4.83a1.45 1.45 0 0 0-2.9.08z" fill="#d48d66"/><path d="M140.52 207a36.26 36.26 0 0 1-.29-5.85c.06-1.87-2.84-1.78-2.9.08a36.27 36.27 0 0 0 .29 5.85c.25 1.84 3.15 1.77 2.9-.08z" fill="#d48d66"/><path d="M151.81 196.63a15 15 0 0 0 0 5.6 1.46 1.46 0 0 0 1.81 1 1.49 1.49 0 0 0 1-1.81 11.1 11.1 0 0 1 .05-4.06c.33-1.86-2.51-2.56-2.86-.73z" fill="#d48d66"/><path d="M146.36 206.32l.15 5.34a1.45 1.45 0 0 0 2.9-.08l-.15-5.34a1.45 1.45 0 0 0-2.9.08z" fill="#d48d66"/><path d="M159.4 202.88l-.25 5.36c-.09 1.86 2.81 1.77 2.9-.08l.25-5.36c.08-1.86-2.81-1.8-2.9.08z" fill="#d48d66"/><path d="M154.4 211.68l.16 5.59a1.45 1.45 0 0 0 2.9-.08l-.16-5.59a1.45 1.45 0 0 0-2.9.08z" fill="#d48d66"/><path d="M166.57 208.54l-.29 5.86c-.09 1.86 2.81 1.77 2.9-.08l.29-5.86c.09-1.87-2.81-1.77-2.9.08z" fill="#d48d66"/><path d="M161.86 214.1a1.48 1.48 0 0 0-1.41 1.49l-.43 5.35a1.46 1.46 0 0 0 1.49 1.41 1.48 1.48 0 0 0 1.41-1.49l.43-5.35a1.46 1.46 0 0 0-1.49-1.41z" fill="#d48d66"/><path d="M175.49 210.18l-.76 5.38c-.26 1.83 2.55 2.54 2.82.69l.76-5.38c.26-1.87-2.56-2.54-2.82-.69z" fill="#d48d66"/><path d="M184.14 206.9l-1 6.11c-.29 1.83 2.52 2.53 2.82.69l1-6.11c.29-1.83-2.53-2.53-2.82-.69z" fill="#d48d66"/><path d="M184.22 220.62l-.85 4.36c-.36 1.83 2.46 2.52 2.82.69l.85-4.36c.35-1.82-2.46-2.52-2.82-.69z" fill="#d48d66"/><path d="M176.58 222.24l.2 6.86a1.45 1.45 0 0 0 2.9-.08l-.2-6.86a1.45 1.45 0 0 0-2.9.08z" fill="#d48d66"/><path d="M169 223q-.39 3.94-.6 7.9c-.1 1.86 2.8 1.77 2.9-.08q.21-4 .6-7.9c.2-1.92-2.7-1.78-2.9.08z" fill="#d48d66"/><path d="M113.22 209.67a1.46 1.46 0 0 0-1.81-1 1.49 1.49 0 0 0-1 1.81 21.49 21.49 0 0 1 .27 4.7c-.08 1.86 2.81 1.77 2.9-.08a24.83 24.83 0 0 0-.36-5.43z" fill="#d48d66"/><path d="M119.07 211.17c-.18-1.85-3.08-1.78-2.9.08l.47 4.82c.18 1.85 3.08 1.78 2.9-.08z" fill="#d48d66"/><path d="M129.6 207.56l.15 5.34a1.45 1.45 0 0 0 2.9-.08l-.15-5.34a1.45 1.45 0 0 0-2.9.08z" fill="#d48d66"/><path d="M123.44 214.6l.18 6.36a1.45 1.45 0 0 0 2.9-.08l-.18-6.36a1.45 1.45 0 0 0-2.9.08z" fill="#d48d66"/><path d="M112.75 223.31l.17 5.85a1.45 1.45 0 0 0 2.9-.08l-.17-5.85a1.45 1.45 0 0 0-2.9.08z" fill="#d48d66"/><path d="M106.86 219.91c-.16-1.85-3.06-1.78-2.9.08l.49 5.58c.16 1.85 3.06 1.78 2.9-.08z" fill="#d48d66"/><path d="M88.52 221.2l.12 4.32a1.45 1.45 0 0 0 2.9-.08l-.12-4.32a1.45 1.45 0 0 0-2.9.08z" fill="#d48d66"/><path d="M98.64 227.53c-.23-1.83-3.13-1.77-2.9.08l.79 6.33c.23 1.83 3.13 1.77 2.9-.08z" fill="#d48d66"/><path d="M93.23 233.66c-.37-1.83-3.14-1-2.77.85a19.81 19.81 0 0 1 .34 4.69c-.07 1.87 2.83 1.77 2.9-.08a23 23 0 0 0-.47-5.46z" fill="#d48d66"/><path d="M107.83 235.15a1.5 1.5 0 0 0-1.49-1.41 1.46 1.46 0 0 0-1.41 1.49l.86 5.58a1.5 1.5 0 0 0 1.49 1.41 1.46 1.46 0 0 0 1.41-1.49z" fill="#d48d66"/><path d="M102.1 240.91c-.14-1.85-3-1.78-2.9.08l.43 5.58c.14 1.85 3 1.78 2.9-.08z" fill="#d48d66"/><path d="M96.23 246.93c-.23-1.84-3.13-1.77-2.9.08l.73 5.83c.23 1.84 3.13 1.77 2.9-.08z" fill="#d48d66"/><path d="M110.16 247.82a1.5 1.5 0 0 0-1.49-1.41 1.46 1.46 0 0 0-1.41 1.49l.75 4.8a1.5 1.5 0 0 0 1.49 1.41 1.46 1.46 0 0 0 1.41-1.49z" fill="#d48d66"/><path d="M117 236.92c-.17-1.85-3.07-1.78-2.9.08l.47 5.07c.17 1.85 3.07 1.78 2.9-.08z" fill="#d48d66"/><path d="M120.54 253.74a14 14 0 0 1-.3-3.93c.11-1.86-2.79-1.77-2.9.08a16.71 16.71 0 0 0 .42 4.7c.42 1.81 3.24.96 2.78-.85z" fill="#d48d66"/><path d="M126 239.08a18.21 18.21 0 0 1-.31-4.44c.08-1.86-2.81-1.77-2.9.08a21.3 21.3 0 0 0 .43 5.21c.34 1.83 3.11.97 2.78-.85z" fill="#d48d66"/><path d="M127.87 227.2l.13 4.8a1.45 1.45 0 0 0 2.9-.08l-.14-4.83a1.45 1.45 0 0 0-2.89.11z" fill="#d48d66"/><path d="M137.41 218.53c-.22-1.84-3.12-1.77-2.9.08l.69 5.83c.22 1.84 3.12 1.77 2.9-.08z" fill="#d48d66"/><path d="M143.93 219.36l.14 4.83a1.45 1.45 0 0 0 2.9-.08l-.14-4.83a1.45 1.45 0 0 0-2.9.08z" fill="#d48d66"/><path d="M138 233l.12 4.32a1.45 1.45 0 0 0 2.9-.08l-.12-4.32a1.45 1.45 0 0 0-2.9.08z" fill="#d48d66"/><path d="M135.91 238.16c-.21-1.84-3.11-1.77-2.9.08l.61 5.33c.21 1.84 3.11 1.77 2.9-.08z" fill="#d48d66"/><path d="M127.71 248.32l.13 4.58a1.45 1.45 0 0 0 2.9-.08l-.13-4.58a1.45 1.45 0 0 0-2.9.08z" fill="#d48d66"/><path d="M149.69 231.92c-.17-1.85-3.07-1.78-2.9.08l.48 5.32c.17 1.85 3.07 1.78 2.9-.08z" fill="#d48d66"/><path d="M155.83 224.12a1.5 1.5 0 0 0-1.49-1.41 1.46 1.46 0 0 0-1.41 1.49 39.85 39.85 0 0 1 .44 4.56 1.45 1.45 0 0 0 2.9-.08 39.87 39.87 0 0 0-.44-4.56z" fill="#d48d66"/><path d="M155.32 235.06l.15 5.08a1.45 1.45 0 0 0 2.9-.08l-.15-5.08a1.45 1.45 0 0 0-2.9.08z" fill="#d48d66"/><path d="M164.08 226.3a1.46 1.46 0 0 0-1.75 1.06 32.32 32.32 0 0 0-.18 6c.13 1.86 3 1.78 2.9-.08a28.27 28.27 0 0 1 .1-5.21 1.5 1.5 0 0 0-1.07-1.77z" fill="#d48d66"/><path d="M167 240.07c-.1-1.86-3-1.78-2.9.08a22.49 22.49 0 0 1-.13 4.19 1.49 1.49 0 0 0 1.06 1.75 1.46 1.46 0 0 0 1.75-1.06 26.56 26.56 0 0 0 .22-4.96z" fill="#d48d66"/><path d="M170.65 236.92a27.58 27.58 0 0 1-.26 4.22 1.49 1.49 0 0 0 1.06 1.75 1.46 1.46 0 0 0 1.75-1.06 32.67 32.67 0 0 0 .34-5 1.45 1.45 0 0 0-2.89.09z" fill="#d48d66"/><path d="M179.68 235a1.48 1.48 0 0 0-1.41 1.49l-.32 4.09a1.46 1.46 0 0 0 1.49 1.41 1.48 1.48 0 0 0 1.41-1.49l.32-4.09a1.46 1.46 0 0 0-1.49-1.41z" fill="#d48d66"/><path d="M180.92 247.69a1.46 1.46 0 0 0-1.75 1.06l-.68 4.34a1.49 1.49 0 0 0 1.06 1.75 1.46 1.46 0 0 0 1.75-1.06l.68-4.34a1.49 1.49 0 0 0-1.06-1.75z" fill="#d48d66"/><path d="M173.74 247.89a1.46 1.46 0 0 0-1.75 1.06 21.1 21.1 0 0 0-.08 5c.2 1.84 3.1 1.78 2.9-.08a18 18 0 0 1 0-4.2 1.5 1.5 0 0 0-1.07-1.78z" fill="#d48d66"/><path d="M165.08 252.22l-.87 5.11c-.31 1.83 2.5 2.53 2.82.69l.87-5.11c.31-1.83-2.51-2.53-2.82-.69z" fill="#d48d66"/><path d="M158.68 247.28a18.11 18.11 0 0 0-.58 5 1.45 1.45 0 0 0 2.9-.08 15.13 15.13 0 0 1 .5-4.24 1.45 1.45 0 0 0-2.82-.68z" fill="#d48d66"/><path d="M148.62 246.08l-1.09 5.63c-.35 1.83 2.46 2.52 2.82.69l1.08-5.63c.36-1.83-2.43-2.53-2.81-.69z" fill="#d48d66"/><path d="M139.89 247.21l.16 5.59a1.45 1.45 0 0 0 2.9-.08l-.16-5.59a1.45 1.45 0 0 0-2.9.08z" fill="#d48d66"/><path d="M134.6 257.79l.16 5.59a1.45 1.45 0 0 0 2.9-.08l-.16-5.59a1.45 1.45 0 0 0-2.9.08z" fill="#d48d66"/><path d="M123 261.94a42.55 42.55 0 0 1-.18 4.83 1.46 1.46 0 0 0 1.49 1.41 1.49 1.49 0 0 0 1.41-1.49 42.55 42.55 0 0 0 .18-4.83 1.45 1.45 0 0 0-2.9.08z" fill="#d48d66"/><path d="M115.53 267.25a36.27 36.27 0 0 1-.29-5.85c.06-1.87-2.84-1.78-2.9.08a36.28 36.28 0 0 0 .29 5.85c.24 1.84 3.14 1.77 2.9-.08z" fill="#d48d66"/><path d="M103.84 255.62a1.5 1.5 0 0 0-1.49-1.41 1.46 1.46 0 0 0-1.41 1.49l.74 5.06a1.5 1.5 0 0 0 1.49 1.41 1.46 1.46 0 0 0 1.41-1.49z" fill="#d48d66"/><path d="M100.76 266.53a1.45 1.45 0 0 0-2.77.85 19.45 19.45 0 0 1 .93 4.92c.11 1.86 3 1.78 2.9-.08a22.65 22.65 0 0 0-1.06-5.69z" fill="#d48d66"/><path d="M110.22 273.87a18.23 18.23 0 0 1-.36-3.67c0-1.87-2.9-1.78-2.9.08a22.06 22.06 0 0 0 .48 4.43 1.46 1.46 0 0 0 1.81 1 1.48 1.48 0 0 0 .97-1.84z" fill="#d48d66"/><path d="M108.47 284.61l-1.49-5a1.45 1.45 0 0 0-2.77.85l1.49 5a1.45 1.45 0 0 0 2.77-.85z" fill="#d48d66"/><path d="M114 274.41l.17 5.85a1.45 1.45 0 0 0 2.9-.08l-.17-5.85a1.45 1.45 0 0 0-2.9.08z" fill="#d48d66"/><path d="M143.88 261.09l-.38 7.13c-.1 1.86 2.8 1.77 2.9-.08l.38-7.13c.09-1.87-2.78-1.77-2.9.08z" fill="#d48d66"/><path d="M154.37 258.64a1.46 1.46 0 0 0-1.75 1.06l-.62 4.6a1.49 1.49 0 0 0 1.06 1.75 1.46 1.46 0 0 0 1.75-1.06l.65-4.59a1.49 1.49 0 0 0-1.09-1.76z" fill="#d48d66"/><path d="M136 270.22l.15 5.08a1.45 1.45 0 0 0 2.9-.08l-.15-5.08a1.45 1.45 0 0 0-2.9.08z" fill="#d48d66"/><path d="M127.68 273.76l.16 5.59a1.45 1.45 0 0 0 2.9-.08l-.16-5.59a1.45 1.45 0 0 0-2.9.08z" fill="#d48d66"/><path d="M125.39 281.84a18.19 18.19 0 0 1-.57-4.95c0-1.87-2.87-1.78-2.9.08a21.16 21.16 0 0 0 .7 5.71c.47 1.82 3.24.97 2.77-.84z" fill="#d48d66"/><path d="M151 270.7a1.46 1.46 0 0 0-1.75 1.06l-.59 5.58a1.5 1.5 0 0 0 1.06 1.75 1.46 1.46 0 0 0 1.75-1.06l.59-5.58a1.5 1.5 0 0 0-1.06-1.75z" fill="#d48d66"/><path d="M160.69 266.85l-.92 5.1c-.33 1.83 2.48 2.53 2.82.69l.92-5.1c.33-1.83-2.51-2.54-2.82-.69z" fill="#d48d66"/><path d="M171.34 261.69a1.46 1.46 0 0 0-1.75 1.06l-.61 4.85a1.5 1.5 0 0 0 1.06 1.75 1.46 1.46 0 0 0 1.75-1.06l.61-4.85a1.5 1.5 0 0 0-1.06-1.75z" fill="#d48d66"/><path d="M177.61 259.7a1.48 1.48 0 0 0-1.41 1.49l-.35 4.34a1.46 1.46 0 0 0 1.49 1.41 1.48 1.48 0 0 0 1.41-1.49l.35-4.34a1.46 1.46 0 0 0-1.49-1.41z" fill="#d48d66"/><path d="M171.08 276.47l-1.4 4.37c-.57 1.78 2.25 2.46 2.82.69l1.4-4.37c.57-1.78-2.26-2.46-2.82-.69z" fill="#d48d66"/><path d="M164.27 277.68l-.88 4.61c-.35 1.83 2.47 2.53 2.82.69l.88-4.61c.34-1.82-2.47-2.52-2.82-.69z" fill="#d48d66"/><path d="M156.44 280.19l-.88 6.89c-.23 1.83 2.58 2.54 2.82.69l.88-6.89c.23-1.83-2.59-2.54-2.82-.69z" fill="#d48d66"/><path d="M142.86 280.05a27.85 27.85 0 0 0-.85 6.53c0 1.87 2.88 1.78 2.9-.08a24.43 24.43 0 0 1 .76-5.76 1.45 1.45 0 0 0-2.81-.69z" fill="#d48d66"/><path d="M134.82 284.58a1.48 1.48 0 0 0-1.41 1.49l-.32 4.59a1.46 1.46 0 0 0 1.49 1.41 1.48 1.48 0 0 0 1.41-1.49l.32-4.59a1.46 1.46 0 0 0-1.49-1.41z" fill="#d48d66"/><path d="M127.2 290.06c-.22-1.84-3.12-1.77-2.9.08l.74 6.08c.22 1.84 3.12 1.77 2.9-.08z" fill="#d48d66"/><path d="M121.33 291.63a36 36 0 0 1-1.15-4.81 1.46 1.46 0 0 0-1.81-1 1.49 1.49 0 0 0-1 1.81 36 36 0 0 0 1.15 4.81 1.45 1.45 0 0 0 2.81-.81z" fill="#d48d66"/><path d="M115.42 295.33a33.41 33.41 0 0 1-1.28-4.51 1.46 1.46 0 0 0-1.81-1 1.48 1.48 0 0 0-1 1.81 33.41 33.41 0 0 0 1.28 4.51c.67 1.79 3.45.96 2.81-.81z" fill="#d48d66"/><path d="M125.48 302.7l-1.33-3.79c-.62-1.75-3.39-.92-2.77.85l1.33 3.79c.62 1.76 3.39.92 2.77-.85z" fill="#d48d66"/><path d="M134.26 295.59a1.46 1.46 0 0 0-1.75 1.06 18.19 18.19 0 0 0-.25 3.94c.09 1.86 3 1.78 2.9-.08a14.56 14.56 0 0 1 .17-3.17 1.49 1.49 0 0 0-1.07-1.75z" fill="#d48d66"/><path d="M142.12 300.82a1.46 1.46 0 0 0-2 .06l-2.46 3.37a1.5 1.5 0 0 0 .06 2 1.46 1.46 0 0 0 2-.06l2.46-3.37a1.5 1.5 0 0 0-.06-2z" fill="#d48d66"/><path d="M143.05 291.14a1.49 1.49 0 0 0-2 .58 9.58 9.58 0 0 0-1.54 3.46 1.45 1.45 0 0 0 2.82.69 7.51 7.51 0 0 1 1.27-2.76 1.46 1.46 0 0 0-.55-1.97z" fill="#d48d66"/><path d="M148.27 292.3a26.66 26.66 0 0 0-2.21 5.51c-.5 1.8 2.32 2.49 2.82.69a23.13 23.13 0 0 1 1.94-4.81 1.45 1.45 0 0 0-2.55-1.39z" fill="#d48d66"/><path d="M158.28 292.58a29.84 29.84 0 0 1-3.6 4.53c-1.3 1.35.81 3.34 2.11 2a33.71 33.71 0 0 0 4-5.13c1.05-1.58-1.51-2.98-2.51-1.4z" fill="#d48d66"/><path d="M167.61 286.87a1.48 1.48 0 0 0-2 .58 15.13 15.13 0 0 0-1.82 4c-.54 1.79 2.28 2.47 2.82.69a12.45 12.45 0 0 1 1.55-3.27 1.46 1.46 0 0 0-.55-2z" fill="#d48d66"/><path d="M1.73 84.12C-.77 77.89 2.82 69.47 10.55 71a11.56 11.56 0 0 1 6.64 4 10 10 0 0 1 14.53 5 8.81 8.81 0 0 1-3.24 10.35 10 10 0 0 1-1.12.68c15.61 15.39 32.83 30.84 49.56 44.6a1.39 1.39 0 0 1 .32 1.89 173.75 173.75 0 0 1-12.69 16.23 1.38 1.38 0 0 1-1.89.32c-2.6-2.35-31.14-36.31-46.14-53.51a9.39 9.39 0 0 1-10.89 1.37 8.67 8.67 0 0 1-3.24-11.58A9.89 9.89 0 0 1 4.27 88a12.83 12.83 0 0 1-2.54-3.88z" fill="#ab7658"/><path d="M13.49 84.48a5 5 0 0 1 2.67-1.36A6.19 6.19 0 0 1 23 89.6a5.13 5.13 0 0 1-4.15 4.49 5.67 5.67 0 0 1-4.6-1.35 6.27 6.27 0 0 1-2-6.37 4.88 4.88 0 0 1 1.24-1.89z" fill="#ff8263"/><path d="M25.24 77.32a3.54 3.54 0 0 1 3 2.15 3.43 3.43 0 1 1-6.43.09A3.55 3.55 0 0 1 25 77.32z" fill="#ff8263"/><path d="M12.62 79a4.31 4.31 0 0 1-.29 1.13c-2.47 6.24-10.92.93-6.68-3.62C7.79 74.23 13 75.43 12.62 79z" fill="#ff8263"/><path d="M8.5 91.41a3.35 3.35 0 0 1 3.2 1.38 3.63 3.63 0 0 1-2 5.33 3.43 3.43 0 0 1-4.34-1.85 4.07 4.07 0 0 1 1.47-4.15 3.16 3.16 0 0 1 1.67-.71z" fill="#ff8263"/><path d="M5.26 73l-1.61-2.59a1.53 1.53 0 0 0-2.15-.22 1.57 1.57 0 0 0-.22 2.15l1.62 2.54a1.53 1.53 0 0 0 2.1.22 1.57 1.57 0 0 0 .26-2.1z" fill="#754c29"/><path d="M31.63 74.7a1.57 1.57 0 0 0-2.13.3l-1.62 1.87a1.54 1.54 0 0 0 .33 2.13 1.57 1.57 0 0 0 2.14-.33L32 76.84a1.54 1.54 0 0 0-.37-2.14z" fill="#754c29"/><path d="M4.21 98.19A1.56 1.56 0 0 0 2.06 98l-1.5 1.08a1.54 1.54 0 0 0-.22 2.15 1.56 1.56 0 0 0 2.15.22L4 100.34a1.54 1.54 0 0 0 .21-2.15z" fill="#754c29"/><path d="M288.15 109.51c3.76-5.56 2-14.55-5.85-14.67a11.56 11.56 0 0 0-7.3 2.47 10 10 0 0 0-15.26 1.82 8.82 8.82 0 0 0 1 10.8 10 10 0 0 0 .95.9c-18.52 11.74-38.62 23.2-57.88 33.1a1.39 1.39 0 0 0-.71 1.78 173.71 173.71 0 0 0 9 18.55 1.38 1.38 0 0 0 1.78.71c3-1.75 38.12-28.9 56.42-42.54a9.39 9.39 0 0 0 10.35 3.64 8.67 8.67 0 0 0 5.61-10.61 9.89 9.89 0 0 0-1.35-2.66 12.83 12.83 0 0 0 3.24-3.29z" fill="#ab7658"/><path d="M276.58 107.38a5 5 0 0 0-2.32-1.9 6.19 6.19 0 0 0-8.09 4.88 5.13 5.13 0 0 0 3.11 5.27 5.67 5.67 0 0 0 4.78-.34 6.27 6.27 0 0 0 3.31-5.8 4.88 4.88 0 0 0-.79-2.11z" fill="#ff8263"/><path d="M266.62 97.9a3.54 3.54 0 0 0-3.37 1.47 3.43 3.43 0 1 0 6.27 1.45 3.55 3.55 0 0 0-2.64-2.87z" fill="#ff8263"/><path d="M278.59 102.22a4.31 4.31 0 0 0 0 1.17c1.09 6.62 10.48 3.22 7.29-2.13-1.56-2.69-6.88-2.62-7.29.96z" fill="#ff8263"/><path d="M280 115.2a3.35 3.35 0 0 0-3.42.68 3.63 3.63 0 0 0 .78 5.62 3.42 3.42 0 0 0 4.64-.89 4.07 4.07 0 0 0-.56-4.36 3.16 3.16 0 0 0-1.44-1.05z" fill="#ff8263"/><path d="M264.54 96.53l-1.42-2.84a1.54 1.54 0 0 0-2.12-.49 1.56 1.56 0 0 0-.49 2.11l1.42 2.84a1.54 1.54 0 0 0 2.11.49 1.56 1.56 0 0 0 .5-2.11z" fill="#754c29"/><path d="M291.71 95.6a1.57 1.57 0 0 0-2.16.06l-2.9 2.41a1.54 1.54 0 0 0 .06 2.16 1.57 1.57 0 0 0 2.16-.06l2.9-2.41a1.54 1.54 0 0 0-.06-2.16z" fill="#754c29"/><path d="M286.08 123.31l-1.81-1.4a1.56 1.56 0 0 0-2.16.06 1.55 1.55 0 0 0 .06 2.16l1.81 1.4a1.56 1.56 0 0 0 2.16-.06 1.55 1.55 0 0 0-.06-2.16z" fill="#754c29"/><path d="M238.69 274.35c3.36-18.73 9.16-46.17-8.59-59.73-6.79-5.18-16.18-7.5-23.93-3.52a1.75 1.75 0 0 0-1.94 1.15 1.65 1.65 0 0 0-.62 2c-5.2 17.23-5.7 34.87-3.44 52.69.77 6.1 1.65 12.19 2.57 18.27 1.11 17.16 2.57 38.85 3.35 53.09-4.43.2-8.68 3-9.87 7.45-1.33 4.93 1.45 10.49 6.46 11.89a11.15 11.15 0 0 0 3.32.36 14.46 14.46 0 0 0 1 5.16c2.88 7 12.39 11 17.42 3.65a13 13 0 0 0 2.25-8.42 11.29 11.29 0 0 0 7.81-15.47 9.94 9.94 0 0 0-10.75-5.81 11.24 11.24 0 0 0-1.44.33c.06-.79 12.71-42.44 16.4-63.09z" fill="#ab7658"/><path d="M224.06 336.52a11.66 11.66 0 0 0-1.49.34.86.86 0 0 1 0-.11 20.3 20.3 0 0 1-12.87 1.9 19.21 19.21 0 0 1-4-.93c-4.59.2-9 3.15-10.22 7.72-1.38 5.1 1.5 10.86 6.69 12.31a11.55 11.55 0 0 0 3.46.41 15 15 0 0 0 1.07 5.35c3 7.25 12.83 11.37 18 3.78a13.49 13.49 0 0 0 2.33-8.72 11.69 11.69 0 0 0 8.08-16 10.29 10.29 0 0 0-11.05-6.05z" fill="#d48d66"/><path d="M77.07 339a31.73 31.73 0 0 1-3.26 1.79c-6.45 3-13.37 3.13-18.92-1.15-4.55.18-8.95 3-10.29 7.51-1.52 5.12 1.24 11 6.44 12.6a11.67 11.67 0 0 0 3.48.5 15.13 15.13 0 0 0 .94 5.43c2.82 7.4 12.66 11.82 18.12 4.28a13.63 13.63 0 0 0 2.58-8.75 11.81 11.81 0 0 0 8.58-16 10.27 10.27 0 0 0-7.67-6.21z" fill="#d48d66"/><path d="M320 277.07c-20.94-23.48-54.91-26.37-84.31-24.8-3.42.18-6.83.42-10.24.67a3.54 3.54 0 0 0-6-.21 153.74 153.74 0 0 0-14.63 29.37 2.52 2.52 0 0 0 0 1.7 3.38 3.38 0 0 0 4.22 3.4c15.6-4.17 32.24-8.67 48.41-5.1 11.63 2.57 23.24 10.82 27.1 22.45 4.67 14.05-5.66 25.72-12.36 37-6.91 11.66-11.13 28.42 1 38.34 10.1 8.25 24.35 7.58 35 .78 11.29-7.21 18.88-19.51 23.38-31.87 8.65-23.75 5.58-52.47-11.57-71.73z" fill="#ab7658"/><path d="M321.51 363.67c-.3-.4-.61-.79-.92-1.17l-.25-.31c-.63-.72-1.26-1.44-1.91-2.15q-1.78-1.91-3.72-3.66-1.09-1-2.23-1.91l-1.16-.92-.69-.53c-1.4-1-2.87-1.95-4.36-2.82s-3.21-1.81-4.88-2.59q-1.07-.5-2.16-1l-.64-.26-.76-.29a71.6 71.6 0 0 0-10.83-3q-1.7-.33-3.41-.57l-1.48-.19h-.33c-1.83-.13-3.65-.21-5.48-.15-1 0-2 .09-2.93.2l-.9.12-.85.16h-.08c-6.52 11.59-10.11 27.63 1.65 37.24 10.1 8.25 24.35 7.58 35 .78a52 52 0 0 0 14.86-14.9q-.75-1.03-1.54-2.08z" fill="#d48d66"/><path d="M47.25 354.62a5.79 5.79 0 0 0-1.42 5.83 1.45 1.45 0 0 0 2.77-.85 2.87 2.87 0 0 1 .75-3c1.34-1.31-.78-3.29-2.1-1.98z" fill="#754c29"/><path d="M65.48 371.55l.13 4.72a1.45 1.45 0 0 0 2.9-.08l-.13-4.72a1.45 1.45 0 0 0-2.9.08z" fill="#754c29"/><path d="M85.26 352.28c-.87-1.65-3.33-.11-2.46 1.53a7.65 7.65 0 0 1 .85 4c-.07 1.87 2.83 1.77 2.9-.08a10.59 10.59 0 0 0-1.29-5.45z" fill="#754c29"/><path d="M216.85 367.61a1.48 1.48 0 0 0-1.41 1.49 8.83 8.83 0 0 1-.58 2.62 1.5 1.5 0 0 0 .58 2 1.46 1.46 0 0 0 2-.58 13.31 13.31 0 0 0 .93-4.09 1.46 1.46 0 0 0-1.52-1.44z" fill="#754c29"/><path d="M199.73 351.23a5.25 5.25 0 0 0-1.28 5.84 1.49 1.49 0 0 0 1.81 1 1.46 1.46 0 0 0 1-1.81 2.48 2.48 0 0 1 .62-3c1.34-1.26-.77-3.26-2.15-2.03z" fill="#754c29"/><path d="M234.46 347.82c-1.22-1.41-3.2.71-2 2.11a3 3 0 0 1 .37 3.28c-.82 1.67 1.72 3.07 2.54 1.39a6.06 6.06 0 0 0-.91-6.78z" fill="#754c29"/><path d="M225 61.44a187.32 187.32 0 0 1-23.47 6.83c-1.82.4-1 3.17.85 2.77a187.3 187.3 0 0 0 23.47-6.83c1.73-.63.89-3.41-.85-2.77z" fill="#754c29"/><path d="M233.36 68.3a158.09 158.09 0 0 1-31.28 6.6c-1.84.2-1.78 3.1.08 2.9a162 162 0 0 0 32-6.72 1.45 1.45 0 0 0-.8-2.78z" fill="#754c29"/><path d="M233.29 77.75a129.48 129.48 0 0 1-31.44 2.94c-1.87-.05-1.78 2.85.08 2.9a132.67 132.67 0 0 0 32.21-3.07c1.86-.39.97-3.17-.85-2.77z" fill="#754c29"/><path d="M80.52 64.34a63.09 63.09 0 0 1-26.25-8.8c-1.6-1-3 1.58-1.39 2.54a66.35 66.35 0 0 0 27.72 9.16c1.86.18 1.75-2.72-.08-2.9z" fill="#754c29"/><path d="M83.73 71.74a125.11 125.11 0 0 1-40.21-7.28c-1.76-.63-2.43 2.2-.69 2.82a127.55 127.55 0 0 0 41 7.36c1.85.03 1.76-2.87-.1-2.9z" fill="#754c29"/><path d="M81.38 80.13a111.35 111.35 0 0 1-34.93-1.4c-1.83-.37-2.52 2.45-.69 2.82A113.92 113.92 0 0 0 81.46 83c1.84-.19 1.77-3.09-.08-2.87z" fill="#754c29"/><path d="M113.36 22.39c-.14-1.85-3-1.78-2.9.08l.77 10.35c.14 1.85 3 1.78 2.9-.08z" fill="#ab7658"/><path d="M117.28 13.35a83.26 83.26 0 0 0-1.28 18.6 1.45 1.45 0 0 0 2.9-.08A79.68 79.68 0 0 1 120.1 14c.33-1.79-2.48-2.49-2.82-.65z" fill="#ab7658"/><path d="M124.62 20.2a110 110 0 0 1-2.95 11.23c-.57 1.78 2.25 2.46 2.82.69a110 110 0 0 0 2.95-11.23c.37-1.82-2.44-2.52-2.82-.69z" fill="#ab7658"/><path d="M159.68 21.43a57.09 57.09 0 0 1-.84 11.16c-.32 1.83 2.49 2.53 2.82.69a61.18 61.18 0 0 0 .92-11.94 1.45 1.45 0 0 0-2.9.09z" fill="#ab7658"/><path d="M168 12.29q-1.11 10.65-3.08 21.19c-.34 1.83 2.48 2.53 2.82.69q2-10.92 3.16-22c.2-1.81-2.7-1.71-2.9.12z" fill="#ab7658"/><path d="M174.29 21.74A103.4 103.4 0 0 0 171 34.45c-.35 1.83 2.46 2.53 2.82.69a103.41 103.41 0 0 1 3.28-12.71c.59-1.78-2.23-2.43-2.81-.69z" fill="#ab7658"/></g></g></svg>