<svg xmlns="http://www.w3.org/2000/svg" viewBox="-0.0959005355834961 -0.3899998664855957 52.49590301513672 54.26000213623047"><title>Depositphotos_35267601_26_tx</title><g data-name="Layer 2"><path d="M20.34 49.11a1.79 1.79 0 0 0 .29-2.89l.37-1.54.82 1.74a1.79 1.79 0 1 0 1.77-1.3l-.76-1.61 1.17.65a1.79 1.79 0 1 0 .68-2.08l-2-1.09-.68-3.54c7.07-3.63 24.8-2.68 25.54 8.76a10.31 10.31 0 0 1-3 7.66c4.89-1.34 7.86-5.81 7.86-11.13 0-13.58-15-9.18-17.74-18.33l3.46-1L40 24.59A1.79 1.79 0 1 0 41.53 23l-1.07-.69 1.73-.11a1.79 1.79 0 1 0 .31-2.2l-1.83.12 1.13-1.09a1.81 1.81 0 0 0 .49.09 1.79 1.79 0 1 0-1.72-1.89L38.8 19l.2-1.5a1.79 1.79 0 1 0-2.07-.73l-.41 2.74L31.49 21a2.08 2.08 0 0 0-1.39 2.57l.39 1.32a16.8 16.8 0 0 1-5.57-6.59l3.76 1.25a2.08 2.08 0 0 0 2.62-1.31l1.66-5 2.75-.33a1.79 1.79 0 1 0-.71-2.06l-1.27.15 1.69-1.71a1.79 1.79 0 1 0-1.83-1.22l-1.12 1.14.15-1.92a1.79 1.79 0 1 0-2.18.25l-.14 1.78-.69-1.14a1.79 1.79 0 1 0-2.19 1.42 1.77 1.77 0 0 0 .56 0l1.17 1.93L28 15l-4.63-1.54c0-.14-.05-.27-.08-.41l1.19-1.79a4.9 4.9 0 0 0-.13-5L21 1.13C20-.3 18.5-.39 17.63.93l-3.69 5.53a4.9 4.9 0 0 0 .13 5l1 1.56c-.93 2.58-1.52 2.61-3.55 4.53l-2.44-2.62.23-2.24a1.79 1.79 0 1 0-2.1-.64l-.14 1.33-.88-1.55a1.79 1.79 0 1 0-2.08.71l1 1.67-1.5-.55a1.79 1.79 0 1 0-1.13 1.88l2.26.83-1.25.42A1.79 1.79 0 1 0 3.73 19l2.63-.88L10 21.9a2.08 2.08 0 0 0 2.93.07l1.4-1.33A17.41 17.41 0 0 0 22 33.23l-2.81.56a2.08 2.08 0 0 0-1.62 2.44l1 5.17-2.19 1.6A1.79 1.79 0 1 0 18 44.53l1.06-.79-.62 2.33a1.79 1.79 0 0 0 1.9 3z" fill="#fff" fill-rule="evenodd" data-name="Layer 1"/></g></svg>