<svg xmlns="http://www.w3.org/2000/svg" viewBox="-0.17999982833862305 -0.6100001335144043 99.44999694824219 89.3600082397461"><title>Depositphotos_30517721_08</title><g data-name="Layer 2"><g data-name="Layer 1"><g data-name="Layer 2"><g data-name="Capa 1"><path d="M69.34 34.2c-.11 3.8-6 5.06-6 5.06s5.86 2.81 3.92 6.8-7.38 2.69-7.38 2.69l1.35 7.74h-7.86L52 64.23l-7.38-2.68-3.94 6.79-6-5s-2 6.05-6 5-3.94-6.79-3.94-6.79-3.71 5-7.38 2.67S16 56.49 16 56.49s-5.48 2.75-7.85 0 1.35-7.74 1.35-7.74-6.23 1-7.38-2.69S6 39.26 6 39.26s-5.82-1-6-5.06 6-5.06 6-5.06-5-2.27-3.92-6.8 7.38-2.69 7.38-2.69-4-4.37-1.35-7.74 7.85 0 7.85 0-2.54-5.41 1.37-7.73 7.38 2.68 7.38 2.68S24.35.71 28.65.05s6 5 6 5 1.59-5.51 6-5 3.94 6.79 3.94 6.79 3.6-4.7 7.41-2.67 1.36 7.73 1.36 7.73 5.89-2.76 7.85 0-1.35 7.74-1.35 7.74 6-1.26 7.38 2.69-3.93 6.8-3.93 6.8 6.14 1.27 6.03 5.07z" fill="#a85225"/><path d="M63.74 53.48a23 23 0 0 0-7.31-3.32c-.35 3-1.65 6.91-5.47 8.32a57 57 0 0 1-24.84 2.76c.86 11 5.62 12.86 11.08 16a18.67 18.67 0 0 1 .51 5.39c-.18 3.13-.89 4.76 1.55 5.43s5.77-.62 4.88-4c-.69-2.61-1.47-2.51-.53-4.47a30.31 30.31 0 0 0 12.28-.15h8C65 82 64.6 81 63.78 84.06c-.89 3.35 2.44 4.63 4.88 4s1.11-2.33 1.55-5.43c.31-2.18.22-9.07.14-13 .46-7.63.13-11.56-6.61-16.15z" fill="#fdc48e"/><path d="M61.32 74.76c-2.33-2.72-6.22 1-13.13-2.4-.2-.1-.38-.22-.57-.32a65.72 65.72 0 0 0-4.11 7.8l1.87.36c4 .79 18.55-.48 18.55-.48a10.44 10.44 0 0 0-2.61-4.96z" fill="#fff"/><path d="M42 19.45c-2.87.55 5.26 10.31 5.84 7.45 1-4.8 7.59.53 9.65-8.8 1.92-8.7-3.33-7.53-8-7.09-7.33.68-4.99 7.99-7.49 8.44z" fill="#fdc48e"/><circle cx="50.16" cy="18.16" r="4.69" transform="rotate(-83.41 50.156 18.16)" fill="#fff"/><path d="M26.42 19.35c2.87.55-5.26 10.31-5.84 7.45-1-4.8-7.84.58-9.65-8.8-1.38-7.12 3.33-7.53 8-7.09 7.34.69 5 7.96 7.49 8.44z" fill="#fdc48e"/><circle cx="18.28" cy="18.07" r="4.69" transform="rotate(-6.59 18.305 18.045)" fill="#fff"/><path d="M56.53 48.32c0 3-.91 8.42-5.57 10.15-10.19 3.77-25.26 4.42-35.23.19-5.13-2.18-5.12-7.38-5.12-10.33 0 0 2.08-33.48 24.15-33.5 20.47-.02 21.77 33.49 21.77 33.49z" fill="#fdc48e"/><path d="M34.66 61.52a54.65 54.65 0 0 1-8.54-.29c.73 9.53 3.71 11 7.45 14.21a17.85 17.85 0 0 0 3.66 2.3 54.23 54.23 0 0 1-1.4-9.55 37.63 37.63 0 0 0-1.17-6.67z" fill="#fff"/><path d="M31.4 15.1l-5.68 29.36h15L37.32 15a9.23 9.23 0 0 0-3.32-.17c-1.92.17-2.6.27-2.6.27z" fill="#fff"/><path d="M46.64 51.64c-.46-2.52-2.89-4.39-6.1-5.49-1.54-.9-5.7-1.15-7.15-1.15.36 1.4-.12 6.55-.12 6.55-.13-2.29-.19-5.54-.21-6.55a26.16 26.16 0 0 0-7 1.17c-2.89 1.08-5.08 2.93-5.67 5.64v.72c0 1.69 0 5 2.92 6 9.44 3.33 10.19-1.83 10.19-1.83s2.27 5 9.93 1.73c2.28-1 3.18-4.18 3.18-5.87a3.39 3.39 0 0 0 .03-.92z" fill="#fff"/><path d="M23.69 36.34A3.73 3.73 0 0 0 26 34.55l-.37-.26C24.82 35.41 24 36 23.29 35.9c-1.21-.08-2-1.66-2-1.67l-.41.21a3.46 3.46 0 0 0 2.42 1.92 2 2 0 0 0 .39-.02z" fill="#a85225"/><path d="M45.43 34.9l-.43-.23s-.91 1.54-2.13 1.56c-.76 0-1.51-.58-2.22-1.74l-.39.24c.81 1.31 1.69 2 2.62 2h.28a3.78 3.78 0 0 0 2.27-1.83z" fill="#a85225"/><path d="M37.2 55.69c-.44-.08-.91 1.49-2.32 1.3a1.24 1.24 0 0 1-1-.64c-.25-.5-.08-9.42-.08-9.42a2 2 0 0 0 1.56-1.48c.2-1.4-4.3-1.22-3.93.15A2.14 2.14 0 0 0 33 47s.34 8.94.13 9.47a1.15 1.15 0 0 1-.87.65c-1.37.36-2.2-1.16-2.47-1s.86 1.94 2.5 1.45a2.18 2.18 0 0 0 1.21-.85 2.46 2.46 0 0 0 1.32.7c1.75.3 2.82-1.66 2.38-1.73z" fill="#a85225"/><path d="M41.09 46a7.35 7.35 0 0 1-7.31 6.93c-4.36 0-8.48-3.76-8.48-6.93s3.53-2.57 7.89-2.57 7.9-.65 7.9 2.57z" fill="#a85225"/><path d="M91.17 68.79s-1.72.69-3.09-2.61-.08-6.24-.64-7.18 1.86 3.3 1.86 3.3-.48-7-2.41-7.51a7.66 7.66 0 0 1 5.32 4l.18-2.5s6.88 7.3 1.19 11.67a8.25 8.25 0 0 1-2.41.83z" fill="#a85225"/><path d="M91.17 68.79c-.17 2.26-1.9 4.93-3.53 5.18C81.4 74.94 83 66 83 62.53c0-4.24-2.69-10.56-7.54-11.17a9.94 9.94 0 0 0-9.37 3.89 16.19 16.19 0 0 1 1.34 1.31c2.39-2.85 6.77-4.32 9.94-2.19 6.93 4.66.5 14.05 4.78 19.43a6.31 6.31 0 0 0 9.45.2c.85-1 1.44-3.49 1.39-5.64a12.36 12.36 0 0 1-1.82.43z" fill="#fdc48e"/><path d="M37.47 78.58q-.12-.71-.27-1.38a32.19 32.19 0 0 1-6.5-4.2 93.8 93.8 0 0 0 .2 9.65c.44 3.1-.89 4.76 1.55 5.43s5.77-.62 4.88-4c-.83-3.08-1.77-4.17.14-5.5z" fill="#fdc48e"/><path d="M63.41 79.44H57c1 2.13.66 1.54-.15 4.62-.89 3.35 2.44 4.63 4.88 4s1.11-2.33 1.55-5.43a31 31 0 0 0 .13-3.19z" fill="#fdc48e"/><path fill="#a85225" d="M16.821 56.708l7.098-2.544.179.499L17 57.207z"/><path fill="#a85225" d="M23.91 53.75l.13.07.26-.46-6.63-3.6-.25.46 6.23 3.39-7.25-.54-.04.53 7.52.56.03-.41z"/><circle cx="25.72" cy="54.09" r="3.13" transform="rotate(-88.43 25.718 54.084)" fill="#f8b0b5"/><path fill="#a85225" d="M50.3 56.71l-.18.5-7.1-2.55.18-.5 7.1 2.55z"/><path fill="#a85225" d="M43.21 53.75l-.13.07-.25-.46 6.62-3.6.26.46-6.24 3.39 7.25-.54.04.53-7.52.56-.03-.41z"/><circle cx="41.42" cy="54.1" r="3.13" transform="rotate(-1.56 41.505 54.195)" fill="#f8b0b5"/></g></g></g></g></svg>