<svg xmlns="http://www.w3.org/2000/svg" viewBox="-0.9700002670288086 -0.17487287521362305 64.01998138427734 36.465476989746094"><title>Depositphotos_92215270_01</title><g data-name="Layer 2"><g data-name="Layer 1" style="isolation:isolate"><path d="M24.61 1.89C26.2 1.19 26.93.14 28.79 0a6.83 6.83 0 0 1 4.68 1.23c1.2.75 2.24 1.5 3.39 2.34 1.35 1 2.61 1.24 3.62 2.84.81 1.28 2 3 1.59 4.56-.45 1.87.44 2 .24 3.77-.35 3.2-2 7.67-5 9.38-3.47 1.94-6.39 1.1-10.05 1.47C23 26 21.41 22.5 18.83 20s-2.56-7-1.29-10.1c.62-1.51.9-3.67 2.26-4.72a26.8 26.8 0 0 1 4.8-3.28z" fill="#5d3842"/><path d="M30.37 2.38c-1.87 0-3.84-.39-5.25 1a6.08 6.08 0 0 0-1.52 2.68 9 9 0 0 0 .13 3.1 3.3 3.3 0 0 0 2.33 2.71 9.27 9.27 0 0 0 3.07.83 21.71 21.71 0 0 0 3.07.49A5.06 5.06 0 0 0 35.06 12c.92-.66 2.23-1.54 2.44-2.74.54-3.17-1.85-4.88-4.06-6.51z" fill="#623e48"/><path d="M42.07 11a5.16 5.16 0 0 0-1-3.61v.58a26.78 26.78 0 0 1-2.15 7 6.82 6.82 0 0 1-5.15 3.15A14.65 14.65 0 0 1 23 14.86c-1.1-.89-4.42-6-4.43-7.87-.4 1-.65 2-1 2.91-1.31 3.1-1.31 7.6 1.26 10.1s4.2 6 8.4 5.63c3.66-.36 6.58.47 10.05-1.47 3.07-1.72 4.69-6.19 5-9.38.23-1.78-.66-1.9-.21-3.78z" fill="#57313b"/><path d="M38.23 19.07C36 22 32.68 22.3 29.44 22.29c-3.45 0-5.82-1.29-8.81-3.23A11.29 11.29 0 0 1 16.71 14a8 8 0 0 0 2.12 6c2.58 2.5 4.2 6 8.4 5.63 3.66-.36 6.58.47 10.05-1.47 3.07-1.72 4.69-6.19 5-9.38a3.88 3.88 0 0 0 0-1c-.19.29-.38.57-.58.83-1.15 1.45-2.31 2.92-3.47 4.46z" fill="#512a34"/><path d="M18.83 20c2.58 2.5 4.2 6 8.4 5.63 3.66-.36 6.58.47 10.05-1.47 3.07-1.72 4.69-6.19 5-9.38.2-1.79-.7-1.9-.24-3.77.37-1.54-.78-3.28-1.59-4.56-1-1.6-2.27-1.86-3.62-2.84-1.11-.85-2.15-1.61-3.35-2.35A6.83 6.83 0 0 0 28.79 0c-1.87.12-2.59 1.17-4.19 1.87-.52.23-.26.12 0 0a26.84 26.84 0 0 0-4.8 3.28c-1.36 1.05-1.64 3.21-2.26 4.72C16.26 13 16.26 17.5 18.83 20zm7.63 4.17a4.45 4.45 0 0 1-1.64-.59c-1.12-.89-.21-1 .17-1.75s2-.56 3.4-.23 2.48 1.47 2.37 2c-.31 1.4-3.41.8-4.3.57zM41.76 17a11.44 11.44 0 0 1-1.29 3.35 5.46 5.46 0 0 1-2.73 2.55 9.41 9.41 0 0 1-3.72.88c-1.48 0-1.92-1-1.65-2a11 11 0 0 1 1.52-2.48c.64-1 1.11-2 1.42-2.52a10.87 10.87 0 0 1 2.45-2.28 2.72 2.72 0 0 1 2.94-.58c.97.48 1.3 1.68 1.06 3.08zM31.61 4a2.73 2.73 0 0 1 3-1.31 8.65 8.65 0 0 1 3 1.89 19.53 19.53 0 0 1 2.33 2.69 7.81 7.81 0 0 1 1.36 3.23c.28 2-1 1.88-2.38 1.12a18.16 18.16 0 0 1-3-2.37 32.75 32.75 0 0 0-3-2.15C31.94 6.32 31 5.51 31.61 4zm2.21 4.85a5.17 5.17 0 0 1 2.41 2.23 3.21 3.21 0 0 1-.09 3.18c-.44.87-1.28 1.7-1.88 2.76a13.55 13.55 0 0 1-2 2.3c-.82.78-1.58 1.65-2.54 1.69a3.94 3.94 0 0 1-2.83-1.34 12.34 12.34 0 0 1-1.62-2.19 17.24 17.24 0 0 0-1.36-2.35c-.87-1-1.6-1.69-1.51-2.36s.9-1.27 2-1.95c.19-.11-.87.55 0 0a32 32 0 0 1 2.95-1.62 9.54 9.54 0 0 1 3.17-1 6.47 6.47 0 0 1 3.29.63zM20.07 6.69a15.16 15.16 0 0 1 2.35-2.74 11.16 11.16 0 0 1 3.28-1.8 5.54 5.54 0 0 1 3.65.18 1.71 1.71 0 0 1 1 2.78 8.39 8.39 0 0 1-2.58 2.35c-.73.49-1.59 1-2.43 1.44a9.51 9.51 0 0 1-2.48 1.42A3.57 3.57 0 0 1 20 9.81c-1.15-.59-.76-1.9.07-3.12zm-.34 5.12a11.29 11.29 0 0 1 2 2.63A27.32 27.32 0 0 1 24 17.75c.65 1.39.73 2.8-.15 3.74-.71.76-1.71.3-2.81-.42a7 7 0 0 1-2.42-2.13 11.41 11.41 0 0 1-1.13-3.13 11.33 11.33 0 0 1-.35-3.34c.25-1.77 1.55-1.52 2.6-.66z" fill="#66434c"/><path d="M38.76 11.64a13.46 13.46 0 0 1-2.58-2 8.01 8.01 0 0 0-.43-.39A12.4 12.4 0 0 0 34 7.9c-.41-.26-.81-.53-1.18-.8-.85-.64-2.14-1.6-1.43-3.42a3 3 0 0 1 1.82-1.46c-.77-.47-1.54-1-1.87-1.19-.76-.55-2.27-.22-3 .13l-.65.3a6.73 6.73 0 0 1 1.83.4 2.2 2.2 0 0 1 1.43 1.25 2.3 2.3 0 0 1-.32 1.94 8.61 8.61 0 0 1-2.67 2.44c-.6.4-1.27.78-2 1.18l-.48.27c-.28.16-.54.35-.8.54a4.77 4.77 0 0 1-1.75.92 4.6 4.6 0 0 1-.89.11 2.84 2.84 0 0 1-.46 0 9.46 9.46 0 0 0 1.21 1 8.78 8.78 0 0 1 1.56-1.1l.09-.05h.06l.36-.21a25.66 25.66 0 0 1 2.42-1.34 9.94 9.94 0 0 1 3.27-1h.47a6.83 6.83 0 0 1 3 .69 5.44 5.44 0 0 1 2.53 2.34 3.46 3.46 0 0 1-.08 3.44 7.05 7.05 0 0 1-.66 1 5.85 5.85 0 0 0 1-.44c.25-.21.53-.42.84-.66a5.58 5.58 0 0 1 .54-.36 5.72 5.72 0 0 0 1.27-1.79 6 6 0 0 1-.7-.39z" fill="#715059"/><path d="M42.31 14.77c.2-1.79-.7-1.9-.24-3.77a4.13 4.13 0 0 0-.52-2.72c-.08.49-.21 1.07-.37 1.7 0 .18.08.34.1.48.15 1.1-.16 1.55-.69 1.62-.18.58-.37 1.13-.55 1.63a2.2 2.2 0 0 1 .66.2c1 .48 1.32 1.68 1.06 3.08a11.44 11.44 0 0 1-1.29 3.35 5.46 5.46 0 0 1-2.73 2.55 9.41 9.41 0 0 1-3.72.88c-1.48 0-1.92-1-1.65-2a11 11 0 0 1 1.52-2.48c.14-.22.28-.45.4-.67-.17 0-.33.06-.51.08h-1l-.54.54c-.82.78-1.58 1.65-2.54 1.69a3.94 3.94 0 0 1-2.83-1.34 12.34 12.34 0 0 1-1.62-2.19c-.07-.11-.13-.23-.19-.34a15.89 15.89 0 0 1-2.55-1.63A12.34 12.34 0 0 1 24 17.75c.65 1.39.73 2.8-.15 3.74-.71.76-1.71.3-2.81-.42a7 7 0 0 1-2.42-2.13 11.41 11.41 0 0 1-1.13-3.13 11.33 11.33 0 0 1-.35-3.34c.2-1.65 1.36-1.54 2.36-.81a23.4 23.4 0 0 1-1.57-3c-.13.43-.27.85-.42 1.23C16.26 13 16.26 17.5 18.83 20s4.2 6 8.4 5.63c3.66-.36 6.58.47 10.05-1.47 3.07-1.72 4.72-6.16 5.03-9.39zm-15.85 9.4a4.45 4.45 0 0 1-1.64-.59c-1.12-.89-.21-1 .17-1.75s2-.56 3.4-.23 2.48 1.47 2.37 2c-.31 1.4-3.41.8-4.3.57z" fill="#5e3942"/><path d="M42.21 15.53l-.38.47a4.68 4.68 0 0 1-.08 1 11.44 11.44 0 0 1-1.29 3.35 5.46 5.46 0 0 1-2.73 2.55 9.41 9.41 0 0 1-3.72.88c-.94 0-1.46-.39-1.64-.94-.6.08-1.21.13-1.82.17a.85.85 0 0 1 .2.58c-.31 1.41-3.41.81-4.3.58a4.45 4.45 0 0 1-1.64-.59c-.77-.61-.58-.85-.26-1.18q-.73-.23-1.45-.53a3.61 3.61 0 0 1-2-.79l-.87-.59-.53-.27a8.7 8.7 0 0 1-1.7-1.16 6.18 6.18 0 0 0 .78.93c2.58 2.5 4.2 6 8.4 5.63 3.66-.36 6.58.47 10.05-1.47 2.88-1.57 4.48-5.5 4.98-8.62z" fill="#552e37"/><path d="M20 9.81a3.57 3.57 0 0 0 2.79.5 9.51 9.51 0 0 0 2.51-1.42c.85-.48 1.7-1 2.43-1.44a8.39 8.39 0 0 0 2.58-2.35 1.71 1.71 0 0 0-1-2.78 5.54 5.54 0 0 0-3.65-.18 11.16 11.16 0 0 0-3.28 1.8 15.16 15.16 0 0 0-2.35 2.74c-.79 1.23-1.18 2.54-.03 3.13zm.57-3.23a14.45 14.45 0 0 1 2.21-2.49 10.68 10.68 0 0 1 3.12-1.63 4.3 4.3 0 0 1 1.29-.19 5.8 5.8 0 0 1 1.93.35 1.34 1.34 0 0 1 .89.67 1.4 1.4 0 0 1-.25 1.12 7.68 7.68 0 0 1-2.34 2c-.62.39-1.27.75-2 1.12l-.42.29c-.3.17-.59.36-.88.56a4.13 4.13 0 0 1-1.4.73 3.75 3.75 0 0 1-.72.09 3.79 3.79 0 0 1-1.67-.51.58.58 0 0 1-.37-.38 2.51 2.51 0 0 1 .64-1.73zM24 17.75a27.32 27.32 0 0 0-2.26-3.31 11.29 11.29 0 0 0-2-2.63c-1-.86-2.35-1.1-2.56.66a11.33 11.33 0 0 0 .35 3.34 11.41 11.41 0 0 0 1.13 3.13 7 7 0 0 0 2.42 2.13c1.1.72 2.1 1.18 2.81.42.88-.95.79-2.35.11-3.74zm-.62 2.64a.53.53 0 0 1-.41.18 3.77 3.77 0 0 1-1.58-.68A6.47 6.47 0 0 1 19.21 18a10.18 10.18 0 0 1-1.06-2.86 10.28 10.28 0 0 1-.34-3c.09-.73.36-.73.45-.73a2 2 0 0 1 1.07.5A9 9 0 0 1 21.05 14l.19.29c.2.31.48.67.78 1a11.47 11.47 0 0 1 1.43 2.09c.35.79.81 2.14-.03 3.01zm9.56-13.32a32.75 32.75 0 0 1 3 2.15 18.16 18.16 0 0 0 3 2.37c1.41.77 2.66.89 2.38-1.12a7.81 7.81 0 0 0-1.36-3.23 19.53 19.53 0 0 0-2.33-2.69 8.65 8.65 0 0 0-3-1.89 2.73 2.73 0 0 0-3 1.31c-.63 1.54.31 2.35 1.31 3.1zM32.2 4a2.29 2.29 0 0 1 1.8-.89 1.29 1.29 0 0 1 .39.06 8.24 8.24 0 0 1 2.77 1.62 18 18 0 0 1 2.24 2.42A6.42 6.42 0 0 1 40.65 10c.1.64 0 .81-.05.81h-.15a3 3 0 0 1-1.24-.41 12.58 12.58 0 0 1-2.38-1.75l-.45-.38a13.41 13.41 0 0 0-1.91-1.31c-.39-.24-.78-.47-1.13-.71C32.21 5.45 31.81 5 32.2 4zm-3.81 17.6c-1.41-.33-3.09-.4-3.4.23s-1.29.86-.17 1.75a4.45 4.45 0 0 0 1.64.59c.89.22 4 .82 4.3-.58.11-.52-1-1.67-2.37-1.99zm.45 1.87a10.25 10.25 0 0 1-2.22-.29 4.1 4.1 0 0 1-1.42-.49l-.2-.18.06-.06a2.7 2.7 0 0 0 .52-.69 2.45 2.45 0 0 1 .88-.12 8.39 8.39 0 0 1 1.8.23 3.08 3.08 0 0 1 1.87 1.26c-.13.25-.74.34-1.29.34zM34.26 17c.59-1.06 1.44-1.89 1.88-2.76a3.21 3.21 0 0 0 .09-3.18 5.17 5.17 0 0 0-2.41-2.23 6.47 6.47 0 0 0-3.29-.64 9.54 9.54 0 0 0-3.17 1 32 32 0 0 0-2.89 1.62c-.89.53.17-.14 0 0-1.14.67-2 1.27-2 1.95s.64 1.38 1.51 2.36a17.24 17.24 0 0 1 1.36 2.35 12.34 12.34 0 0 0 1.62 2.19A3.94 3.94 0 0 0 29.72 21c1 0 1.72-.91 2.54-1.69a13.55 13.55 0 0 0 2-2.31zm-2.43 1.18l-.34.31a3.39 3.39 0 0 1-1.79 1.14h-.07a3.53 3.53 0 0 1-2.27-1.1 11.49 11.49 0 0 1-1.54-2 8.31 8.31 0 0 1-.46-.83 6.39 6.39 0 0 0-1-1.49l-.31-.33c-.53-.57-1.08-1.15-1-1.44s.71-.8 1.24-1.12a3 3 0 0 0 .51-.26l.5-.28a24.66 24.66 0 0 1 2.33-1.23 9.23 9.23 0 0 1 3-.92H31a6.13 6.13 0 0 1 2.56.57 4.44 4.44 0 0 1 2.13 1.87 2.37 2.37 0 0 1-.1 2.46 8.43 8.43 0 0 1-.83 1.17 12.31 12.31 0 0 0-1 1.44 12.44 12.44 0 0 1-1.94 2.04zm8.87-4.26a2.72 2.72 0 0 0-2.94.58 10.87 10.87 0 0 0-2.45 2.28c-.31.49-.78 1.53-1.42 2.52a11 11 0 0 0-1.52 2.48c-.27 1 .16 2 1.65 2a9.41 9.41 0 0 0 3.72-.88 5.46 5.46 0 0 0 2.73-2.55A11.44 11.44 0 0 0 41.76 17c.24-1.4-.09-2.6-1.07-3.08zm.43 2.54a8.78 8.78 0 0 1-1 2.64l-.19.37a4.68 4.68 0 0 1-2.37 2.13 8.77 8.77 0 0 1-3.38.78 1.2 1.2 0 0 1-.92-.3 1 1 0 0 1-.08-.83 5.09 5.09 0 0 1 .81-1.41c.19-.25.38-.5.55-.76.38-.58.7-1.17 1-1.64.17-.3.31-.56.42-.74a10.75 10.75 0 0 1 2.24-2 2.79 2.79 0 0 1 1.56-.7 1.52 1.52 0 0 1 .66.16c.64.35.91 1.19.7 2.3z" style="mix-blend-mode:multiply" fill="#e5dee0"/><path d="M31.61 4.54a2.72 2.72 0 0 1 1.69-1.3 2 2 0 0 1 .7-.13 1.29 1.29 0 0 1 .39.06h.2a8.66 8.66 0 0 1 3 1.89 19.56 19.56 0 0 1 2.33 2.74 7.81 7.81 0 0 1 1.36 3.2v.21a3 3 0 0 0 0-.78 7.81 7.81 0 0 0-1.36-3.23 19.53 19.53 0 0 0-2.33-2.69 8.65 8.65 0 0 0-3-1.89 2.73 2.73 0 0 0-3 1.31 2.27 2.27 0 0 0-.16 1.17 2.77 2.77 0 0 1 .18-.56zm9.09 9.38a2.72 2.72 0 0 0-2.94.58 10.87 10.87 0 0 0-2.45 2.28c-.31.49-.78 1.53-1.42 2.52a11 11 0 0 0-1.52 2.48 2 2 0 0 0 0 .83 2.1 2.1 0 0 1 0-.26 11 11 0 0 1 1.52-2.48c.64-1 1.11-2 1.42-2.52A6.87 6.87 0 0 1 36.58 16a17 17 0 0 1 1.62-1.3 2.79 2.79 0 0 1 1.57-.7 1.52 1.52 0 0 1 .66.16 1.2 1.2 0 0 1 .47.42 2.28 2.28 0 0 1 .92 1.84 2.43 2.43 0 0 0-1.13-2.5zm-5.95-4a5 5 0 0 1 1.48 1.67 3 3 0 0 1 .36 1.12 2.87 2.87 0 0 0-.36-1.68 5.17 5.17 0 0 0-2.41-2.23 6.47 6.47 0 0 0-3.29-.64 9.54 9.54 0 0 0-3.17 1 32 32 0 0 0-2.89 1.62c-.89.53.17-.14 0 0-1.14.67-2 1.27-2 1.95a1 1 0 0 0 0 .39 2 2 0 0 1 .67-.88 4 4 0 0 1 1.15-.93 3 3 0 0 0 .51-.26l.5-.28a24.66 24.66 0 0 1 2.33-1.23 9.23 9.23 0 0 1 3-.92H31a6.13 6.13 0 0 1 2.56.57 5.22 5.22 0 0 1 1.18.76zM28.39 21.6c-1.41-.33-3.09-.4-3.4.23s-1 .8-.6 1.32a4.25 4.25 0 0 0 .6-.76.69.69 0 0 1 .35-.29 2.07 2.07 0 0 0 .23-.35 2.45 2.45 0 0 1 .88-.12 8.39 8.39 0 0 1 1.8.23A3.22 3.22 0 0 1 30.07 23a2.4 2.4 0 0 1 .62.76.88.88 0 0 0 .08-.21c.1-.48-1.01-1.63-2.38-1.95zM24 17.75a27.32 27.32 0 0 0-2.26-3.31 11.29 11.29 0 0 0-2-2.63c-1-.86-2.35-1.1-2.56.66a5.51 5.51 0 0 0 0 .94v-.37c.08-.71.35-1.1.71-1.24.12-.38.31-.38.38-.38a2 2 0 0 1 1.07.5 5.53 5.53 0 0 1 .84.88 14.19 14.19 0 0 1 1.59 2.2l.17.26.08.1c.3.37.62.78.91 1.2A10.06 10.06 0 0 1 24 18.31a5.17 5.17 0 0 1 .48 1.7 4.56 4.56 0 0 0-.48-2.26zM20 7.26a18 18 0 0 1 1.5-1.83 10.82 10.82 0 0 1 1.31-1.34 10.68 10.68 0 0 1 3.09-1.63 4.3 4.3 0 0 1 1.29-.19 5.8 5.8 0 0 1 1.93.35 1.46 1.46 0 0 1 .88.58 1.5 1.5 0 0 1 .7 1c.13-.77-.21-1.46-1.31-1.86a5.54 5.54 0 0 0-3.65-.18 11.16 11.16 0 0 0-3.28 1.8 15.16 15.16 0 0 0-2.35 2.74 3.29 3.29 0 0 0-.75 2.25 4.38 4.38 0 0 1 .71-1.7z" style="mix-blend-mode:multiply" fill="#e5dee0"/><path d="M38.51 23.25l.29-.25.19-.2.25-.29.18-.23.23-.3.18-.25.2-.31.17-.27.18-.31.16-.3.16-.3.16-.32.13-.29.15-.36.1-.24.16-.41.05-.15a17.16 17.16 0 0 0 .75-2.93c0-.26.08-.51.1-.76a4.33 4.33 0 0 0 0-.56 3.38 3.38 0 0 0 0-.43v-.18c-1.6 1.66-3.85 2.82-5.47 4.56C35 20 35 22.57 35.38 25a10.11 10.11 0 0 0 1.91-.83 6.25 6.25 0 0 0 .54-.34l.17-.13.34-.27z" style="mix-blend-mode:multiply" fill="#ccbec2"/><path d="M26.11 25.63a5.87 5.87 0 0 0 1.69-2.11c1.49-3.6-.12-8-1.45-11.41a8.68 8.68 0 0 0-2.85-3.72 10.91 10.91 0 0 0-4.72-1.9q-.13.25-.24.51c-.3.72-.52 1.5-.75 2.21v.06c-.08.22-.15.43-.23.63a11.62 11.62 0 0 0-.83 4.85v.1c0 .24 0 .48.06.71v.11c0 .26.08.51.13.77.06.26.13.52.21.78v.08c.07.21.15.42.24.62l.1.21q.11.24.24.46l.13.22c.09.15.19.29.29.43l.14.19.08.11a5.73 5.73 0 0 0 .42.45c2.39 2.28 3.95 5.38 7.34 5.64z" style="mix-blend-mode:multiply" fill="#ccbec2"/><path d="M25.15 15.81a15.08 15.08 0 0 0 0-3.06 5.53 5.53 0 0 0-1.14-2.42 5.88 5.88 0 0 0-.63-.68 12.62 12.62 0 0 0-1.59-1c-.21-.13-.43-.2-.64-.31s-.37-.29-.56-.41a9.35 9.35 0 0 0-1.41-.69c-.61-.25-1.15-.53-1.78-.72a6 6 0 0 1-1.62-.59c-.25-.17-.52-.29-.76-.45a4.38 4.38 0 0 0-1.34-.61 4.83 4.83 0 0 0-2.16-.17 25.38 25.38 0 0 1-2.58.3 4.69 4.69 0 0 0-2.72 1.31 7.52 7.52 0 0 1-1.49 1 5.64 5.64 0 0 0-1.65 1.75c-.69 1-2.11 4.22-2.46 4.85-1.35 2.42.87 8.93 1.49 10.23C2.88 25.73 4 27.41 5.78 28a4.52 4.52 0 0 0 1.51.2 7.82 7.82 0 0 1 2.32.26 7.77 7.77 0 0 0 1.36.28 3.35 3.35 0 0 1 1.24.5 10.57 10.57 0 0 0 2.67.59 3.62 3.62 0 0 0 2.61-.83 7.12 7.12 0 0 1 1.47-1 4 4 0 0 0 .87-.55c.36-.25.69-.52 1-.78s.5-.24.74-.41a5.09 5.09 0 0 0 1.17-1.33A17.32 17.32 0 0 0 24.29 22a9.65 9.65 0 0 0 .71-2.87c.05-.54.13-1.09.18-1.63s-.06-1.13-.03-1.69z" fill="#5d3842"/><path d="M23.92 10.16l.05.06z" fill="#5d3842"/><path d="M24 10.23l.08.11.23.28z" fill="#5d3842"/><path d="M13.69 6.92c-1.87 0-3.84-.39-5.25 1a6.1 6.1 0 0 0-1.51 2.67 9.05 9.05 0 0 0 .13 3.1 3.3 3.3 0 0 0 2.33 2.71 9.26 9.26 0 0 0 3.07.83 21.59 21.59 0 0 0 3.08.49 5.06 5.06 0 0 0 2.85-1.19c.92-.66 2.23-1.54 2.44-2.74.54-3.17-1.85-4.88-4.06-6.51z" fill="#623e48"/><path d="M21.6 26.21a5.09 5.09 0 0 0 1.17-1.33A17.32 17.32 0 0 0 24.29 22a9.65 9.65 0 0 0 .71-2.87c.05-.54.13-1.09.18-1.63s0-1.12 0-1.68a15.08 15.08 0 0 0 0-3.06 5.16 5.16 0 0 0-.89-2.06 7.78 7.78 0 0 1-.17 1.47 27.74 27.74 0 0 1-1.42 4.64 6.94 6.94 0 0 1-2.06 2.71 11.07 11.07 0 0 1-2.47 1.26c-2.82 1.28-6.08.55-8.91-.44a8.11 8.11 0 0 1-3.32-2.84 18.62 18.62 0 0 1-1.72-3.72 10.78 10.78 0 0 1-.44-5.65 10.44 10.44 0 0 0-.7.93c-.69 1-2.11 4.22-2.46 4.85-1.35 2.42.87 8.93 1.49 10.23C2.88 25.73 4 27.41 5.78 28a4.52 4.52 0 0 0 1.51.2 7.82 7.82 0 0 1 2.32.26 7.77 7.77 0 0 0 1.36.28 3.35 3.35 0 0 1 1.24.5 10.57 10.57 0 0 0 2.67.59 3.62 3.62 0 0 0 2.61-.83 7.12 7.12 0 0 1 1.47-1 4 4 0 0 0 .87-.55c.36-.25.69-.52 1-.78s.53-.28.77-.46z" fill="#57313b"/><path d="M25 19.13c0-.42.09-.84.14-1.27-.54.61-1 1.29-1.61 1.84-1.16 1.1-2.3 2.21-3.45 3.36-2.19 2.2-5.22 2.23-8.14 2-3.1-.22-5.14-1.4-7.69-3.13C2 20.44 1 17.78.26 15.14c-.39 2.86 1.31 7.86 1.85 9C2.88 25.73 4 27.41 5.78 28a4.52 4.52 0 0 0 1.51.2 7.82 7.82 0 0 1 2.32.26 7.77 7.77 0 0 0 1.36.28 3.35 3.35 0 0 1 1.24.5 10.57 10.57 0 0 0 2.67.59 3.62 3.62 0 0 0 2.61-.83 7.12 7.12 0 0 1 1.47-1 4 4 0 0 0 .87-.55c.36-.25.69-.52 1-.78s.5-.24.74-.41a5.09 5.09 0 0 0 1.17-1.33A17.32 17.32 0 0 0 24.29 22a9.65 9.65 0 0 0 .71-2.87z" fill="#512a34"/><path d="M24.61 13.86c.8-.92-.39-3-1.13-3.66s-.38.71-.32 1a6.57 6.57 0 0 0 1.45 2.66zm-1-3.39c.51.45 1.32 1.87.77 2.5a4.47 4.47 0 0 1-1-1.84c.01-.13-.13-1.02.28-.66zm-16.4 9.74a6.14 6.14 0 0 1-1-1.83c-.21-.47-.52-1.72-.21-2.19.59-.91 1 .69 1.13 1a3.16 3.16 0 0 0 3.09 2.26c1.78-.2 2.56-2.15 2.78-3.7.15-1.05.06-4.82-1.91-3.52-.45.29-1 1.46-1.64 1.27-.12-.64.61-1.48.9-2 1-1.71-.81-2.55-2.27-2.81-2.83-.48-2.89 2.95-3.08 4.24a8.47 8.47 0 0 0 .22 2 3.5 3.5 0 0 1-.12 1c-.58.09-.9-.71-1.15-1.1a2.74 2.74 0 0 0-1.2-1.15c-1.09-.44-1.85.45-2 1.45-.52 2.62.41 6 1.42 8.36 1.1 2.61 3 5 6.36 4 2.16-.66 2.14-2.45 1.18-4.17a27.7 27.7 0 0 0-2.5-3.11zM6.07 12.4c.16-1.49.43-2.95 1.69-2.95a2.25 2.25 0 0 1 .39 0 2.5 2.5 0 0 1 1.77.91c0 .08.16.33-.12.82-.06.11-.14.23-.22.35a2.61 2.61 0 0 0-.64 1.8l.06.31.3.1a.91.91 0 0 0 .29 0c.56 0 1-.47 1.31-.88a2.75 2.75 0 0 1 .34-.36.73.73 0 0 1 .37-.15s.07 0 .14.08a4.76 4.76 0 0 1 .38 2.7c-.09.63-.5 2.69-2 2.86H9.9a2.43 2.43 0 0 1-2-1.7l-.05-.15c-.19-.54-.46-1.36-1.14-1.36a.79.79 0 0 0-.48.17 2.35 2.35 0 0 0 0-.58c0-.22-.06-.44-.11-.66a3.18 3.18 0 0 1-.09-1c-.03-.02.03-.16.04-.31zm3.17 12.92a1.74 1.74 0 0 1-1.24.92 4.28 4.28 0 0 1-1.24.2c-1.69 0-3.07-1.25-4.11-3.71-.55-1.37-1.83-4.85-1.28-7.62.1-.5.41-1 .86-1a.84.84 0 0 1 .32.07 2.12 2.12 0 0 1 .87.87l.12.2c.24.42.63 1.11 1.37 1.11h.24a5.19 5.19 0 0 0 .31 1.93 6.37 6.37 0 0 0 1.07 1.91c.27.36.57.7.87 1.05a11.68 11.68 0 0 1 1.42 1.85 2.73 2.73 0 0 1 .42 2.22zM20 13.16c1.56.64 2.45 0 2.32-1.68a4.89 4.89 0 0 0-.89-2.59c-.62-.81-1.51-.74-2.32-1.22.11.06.16.1 0 0-.57-.34-1.49-.85-2.1-.32-.81.71-.28 2 .08 2.82A5.08 5.08 0 0 0 20 13.16zm-2.56-5.78a.35.35 0 0 1 .25-.08 2.83 2.83 0 0 1 1.15.47l.1.06a5.51 5.51 0 0 0 .94.38 2 2 0 0 1 1.12.62 4.3 4.3 0 0 1 .77 2.27 1.57 1.57 0 0 1-.21 1.12.54.54 0 0 1-.44.15 2.35 2.35 0 0 1-.84-.2 4.46 4.46 0 0 1-2.61-2.66c-.36-.83-.67-1.74-.23-2.13zm5.75 6.68a1.85 1.85 0 0 0-2.24.72c-1.5 2.29-.94 5.05-.88 7.63 0 .72-.31 2.22.29 2.77a1.84 1.84 0 0 0 1.11.38c.57 0 .9-.76 1.18-1.21a16.07 16.07 0 0 0 2.14-7.22 2.55 2.55 0 0 0-1.6-3.07zm1 2.37A13.82 13.82 0 0 1 22.13 23l-.16.25c-.1.17-.33.56-.47.61a1.35 1.35 0 0 1-.74-.21c-.23-.2-.17-1.05-.13-1.51a6.44 6.44 0 0 0 0-.68c0-.46 0-.93-.07-1.4-.13-2-.25-3.81.85-5.39a1.18 1.18 0 0 1 1-.52 2 2 0 0 1 .54.08 1.81 1.81 0 0 1 1.24 2.2zM3.73 12.25A9.51 9.51 0 0 0 5 9.08c.18-.93.1-1.71-.79-.83a4.92 4.92 0 0 0-1.5 2.59c-.09.78.07 2.94 1.02 1.41zm-.52-1.78a4.29 4.29 0 0 1 1.13-2.08v.08a8.61 8.61 0 0 1-1.14 2.8 3.59 3.59 0 0 1 .01-.8zm8.75-2c-.3.29-.57.35-.54.85.05.89 1.71 1.86 2.51 1.91.6 0 1.47-.07 1.74-.7a5.17 5.17 0 0 0 0-2.85C15.24 5.79 14 5.23 12.15 5c-1.45-.1-2.77 1.74-1.64 3 .44.43 1.11.08 1.49.51zm-1.12-2.3A1.4 1.4 0 0 1 12 5.32h.1c1.89.19 2.67.77 3 2.2a4.51 4.51 0 0 1 0 2.49c-.11.25-.57.34-1 .34H14c-.67 0-1.92-.91-1.94-1.34a.27.27 0 0 1 .12-.16 3.19 3.19 0 0 0 .25-.22l.38-.38-.34-.42a1.44 1.44 0 0 0-1.09-.48c-.23 0-.33 0-.4-.1a.94.94 0 0 1-.14-1.08zm6.7 12.24c-.28-.17-1-.25-.8-.76.21-.7 1.41.07 1.85 0 1.69-.24.52-3 .07-3.83.12.22.23.41 0 0s-.13-.24 0 0c-.66-1.16-1.94-2.52-3.41-1.93a1.8 1.8 0 0 0-1 2.38 3.65 3.65 0 0 0 .76 1.31c.35.38 1 .6 1.1 1.15.3 1.42-1.8 1.11-2.64 1.54a4.21 4.21 0 0 0-2.25 3.1c-.33 2.24-.5 6.6 2 7.77a4 4 0 0 0 4.32-.73 5.22 5.22 0 0 0 2-4 8.42 8.42 0 0 0-1.07-5.07 3 3 0 0 0-.93-.93zm-1.75-3.31a2.43 2.43 0 0 1-.34-.27 3 3 0 0 1-.63-1.09 1.23 1.23 0 0 1 .68-1.64 1.3 1.3 0 0 1 .5-.1c.87 0 1.69.91 2.17 1.77.45.83.94 2.25.68 2.77 0 0-.07.14-.3.18l-.38-.11a3.29 3.29 0 0 0-.94-.19 1.16 1.16 0 0 0-.51.11 1.94 1.94 0 0 0 0-.3 2 2 0 0 0-.93-1.13zm2.94 8.38a4 4 0 0 1-1.67 3.09 3.81 3.81 0 0 1-2.26.82 3.06 3.06 0 0 1-1.21-.25c-2.3-1-1.72-5.36-1.58-6.23a3.16 3.16 0 0 1 1.82-2.32 3.57 3.57 0 0 1 .81-.18 3.6 3.6 0 0 0 1.51-.41 1.26 1.26 0 0 0 .87.71l.16.06a2.24 2.24 0 0 1 .64.66 6.41 6.41 0 0 1 .91 4.05zM7 8a2.63 2.63 0 0 0 2.34-1c.25-.38.81-1.43 0-1.59-1-.22-2.09.63-2.86 1.16C5.56 7.25 5.93 7.9 7 8zm-.14-1.35l.22-.15a4.12 4.12 0 0 1 2-.93h.12a2.21 2.21 0 0 1-.32.69 1.94 1.94 0 0 1-1.64.68H7a1.24 1.24 0 0 1-.39-.08 1.29 1.29 0 0 1 .25-.21z" style="mix-blend-mode:multiply" fill="#e5dee0"/><path d="M25.34 15.79a15.25 15.25 0 0 0 0-3.1 5.63 5.63 0 0 0-1.16-2.45 6.21 6.21 0 0 0-.64-.69A12.84 12.84 0 0 0 22 8.49c-.21-.14-.44-.2-.65-.32s-.38-.29-.58-.41a9.44 9.44 0 0 0-1.43-.7c-.62-.25-1.17-.54-1.81-.73a6.07 6.07 0 0 1-1.65-.6c-.25-.17-.52-.29-.77-.45a4.44 4.44 0 0 0-1.36-.61 4.9 4.9 0 0 0-2.19-.17 25.63 25.63 0 0 1-2.65.3 4.76 4.76 0 0 0-2.79 1.34 7.6 7.6 0 0 1-1.51 1 5.73 5.73 0 0 0-1.68 1.79c-.7 1-2.14 4.29-2.5 4.93-1.37 2.46.88 9.07 1.51 10.39.78 1.62 1.94 3.32 3.72 3.93a4.59 4.59 0 0 0 1.53.2 7.94 7.94 0 0 1 2.36.27 7.9 7.9 0 0 0 1.38.28 3.41 3.41 0 0 1 1.26.51 10.7 10.7 0 0 0 2.71.6 3.68 3.68 0 0 0 2.66-.9 7.23 7.23 0 0 1 1.49-1 4 4 0 0 0 .88-.55c.36-.25.7-.53 1-.79s.51-.24.75-.42A5.19 5.19 0 0 0 22.93 25a17.76 17.76 0 0 0 1.54-2.94 9.83 9.83 0 0 0 .7-2.91c.05-.55.13-1.1.18-1.66s-.03-1.13-.01-1.7zM17 7.37c.61-.54 1.53 0 2.1.32.16.1.11.06 0 0 .81.48 1.7.41 2.32 1.22a4.89 4.89 0 0 1 .89 2.59c.13 1.69-.75 2.32-2.32 1.68a5.08 5.08 0 0 1-2.93-3c-.35-.81-.88-2.1-.06-2.81zM12.15 5c1.87.19 3.09.75 3.52 2.67a5.17 5.17 0 0 1 0 2.85c-.27.63-1.13.74-1.74.7-.8 0-2.45-1-2.51-1.91 0-.49.25-.55.54-.85-.34-.43-1-.08-1.46-.55-1.12-1.17.2-3.01 1.65-2.91zM6.52 6.59c.77-.53 1.85-1.37 2.86-1.16.78.17.22 1.21 0 1.59A2.63 2.63 0 0 1 7 8c-1.07-.1-1.44-.75-.48-1.41zm-3.78 4.33v-.07a4.92 4.92 0 0 1 1.5-2.59c.89-.88 1-.1.79.83a9.51 9.51 0 0 1-1.31 3.17c-.95 1.52-1.11-.63-1-1.41zm4.47 9.29a27.7 27.7 0 0 1 2.47 3.17c1 1.72 1 3.51-1.18 4.17-3.32 1-5.25-1.42-6.36-4C1.13 21.12.2 17.77.72 15.15c.2-1 1-1.89 2-1.45A2.74 2.74 0 0 1 4 14.84c.25.39.56 1.19 1.15 1.1a3.5 3.5 0 0 0 .12-1 8.47 8.47 0 0 1-.22-2c.18-1.29.23-4.72 3.07-4.21 1.46.26 3.22 1.1 2.27 2.81-.29.53-1 1.37-.9 2 .59.19 1.19-1 1.64-1.27 2-1.3 2.07 2.47 1.91 3.52-.22 1.55-1 3.5-2.78 3.7a3.16 3.16 0 0 1-3.09-2.26c-.14-.35-.54-1.95-1.13-1-.3.47 0 1.72.19 2.18a6.14 6.14 0 0 0 .98 1.8zm12.27 4.21a5.22 5.22 0 0 1-2 4 4 4 0 0 1-4.32.73c-2.52-1.17-2.35-5.53-2-7.77a4.21 4.21 0 0 1 2.25-3.1c.85-.43 2.94-.12 2.64-1.54-.12-.55-.75-.77-1.1-1.15a3.65 3.65 0 0 1-.76-1.31 1.8 1.8 0 0 1 1-2.38c1.47-.59 2.75.76 3.41 1.93-.12-.22-.23-.41 0 0s.13.24 0 0c.46.83 1.63 3.59-.07 3.83-.45.06-1.64-.7-1.85 0-.16.51.52.59.8.76a3 3 0 0 1 .87.94 8.42 8.42 0 0 1 1.13 5.06zm5.3-7.29a16.07 16.07 0 0 1-2.14 7.22c-.27.45-.6 1.26-1.18 1.21a1.84 1.84 0 0 1-1.11-.38c-.6-.56-.27-2.05-.29-2.77-.07-2.58-.62-5.34.88-7.63a1.85 1.85 0 0 1 2.24-.72 2.55 2.55 0 0 1 1.6 3.07zm-.17-3.27a6.57 6.57 0 0 1-1.45-2.7c-.07-.26-.28-1.5.32-1s1.93 2.78 1.13 3.7z" fill="#66434c"/><path d="M19.9 13.29a5.34 5.34 0 0 1-3.06-3.11c-.32-.73-1-2.25 0-3.09A1 1 0 0 1 17 7c-.22-.14-.43-.28-.66-.41A7.08 7.08 0 0 0 15.16 6a3.62 3.62 0 0 1 .74 1.57 5.39 5.39 0 0 1 0 3 1.73 1.73 0 0 1-1.75.85h-.23c-.86-.05-2.67-1.07-2.73-2.13a.89.89 0 0 1 .39-.84 1.88 1.88 0 0 0-.31 0 1.32 1.32 0 0 1-.94-.45 1.74 1.74 0 0 1-.43-1.62 3.56 3.56 0 0 1-.36.68A2.81 2.81 0 0 1 7.2 8.11H7a2.33 2.33 0 0 1-.34-.05 4.57 4.57 0 0 0-.91 1.14 2.13 2.13 0 0 1 1.8-.88 3.37 3.37 0 0 1 .58.05c.62.11 2.11.48 2.59 1.49a1.77 1.77 0 0 1-.16 1.68c-.07.13-.18.29-.29.45a3.33 3.33 0 0 0-.6 1.2 2.4 2.4 0 0 0 .72-.67A3 3 0 0 1 11 12a1.62 1.62 0 0 1 .87-.31 1 1 0 0 1 .79.38c.76.87.72 3 .62 3.68a5.8 5.8 0 0 1-1.37 3.12h.19a4.54 4.54 0 0 1 1.24-.94 3.93 3.93 0 0 1 1.1-.28c.54-.09 1.15-.19 1.36-.49a.65.65 0 0 0 .06-.51c-.06-.27-.31-.46-.58-.65a3.05 3.05 0 0 1-.46-.38A3.87 3.87 0 0 1 14 14.2a2 2 0 0 1 1.17-2.68 2.16 2.16 0 0 1 .81-.16 3.64 3.64 0 0 1 2.72 1.89 2.43 2.43 0 0 1 .19.32 2.29 2.29 0 0 1 .18.35 6.3 6.3 0 0 1 .68 2.5 4.3 4.3 0 0 0 .33-.36 6.1 6.1 0 0 1 .71-1.52c0-.14.06-.28.08-.44s0-.37 0-.55a3.24 3.24 0 0 1-.97-.26zM10 6.06v.08-.09zm7.2 11.43c-.16 0-.19.05-.21.13s0 .19.4.35l.23.1.46-.37-.19-.05a2.72 2.72 0 0 0-.71-.16z" fill="#715059"/><path d="M25.39 12.69a4.49 4.49 0 0 0-.39-1.31 6.23 6.23 0 0 1-.11.65l-.08.32a1.62 1.62 0 0 1-.15 1.52l-.18-.22c-.09.34-.18.68-.28 1a2.88 2.88 0 0 1 .63 2.47 16.07 16.07 0 0 1-2.14 7.22c-.27.45-.6 1.26-1.18 1.21a1.84 1.84 0 0 1-1.11-.38c-.6-.56-.27-2.05-.29-2.77S20 21.17 20 20.54l-.85.38a9.82 9.82 0 0 1 .36 3.5 5.22 5.22 0 0 1-2 4 4 4 0 0 1-4.32.73c-2.51-1.16-2.35-5.51-2-7.76-.71-.19-1.41-.41-2.08-.64a7.5 7.5 0 0 1-2.78-2.06 6.62 6.62 0 0 0 .92 1.56 27.7 27.7 0 0 1 2.47 3.17c1 1.72 1 3.51-1.18 4.17-3.32 1-5.25-1.42-6.36-4C1.13 21.12.2 17.77.72 15.15c.2-1 1-1.89 2-1.45A2.74 2.74 0 0 1 4 14.84c.12.19.26.48.44.72-.25-.62-.49-1.24-.72-1.81a7.89 7.89 0 0 1-.33-1.05c-.61.45-.72-1.2-.61-1.85A3.73 3.73 0 0 1 3 10c0-.42 0-.84.07-1.26l-.17.24c-.7 1-2.14 4.29-2.5 4.93-1.37 2.46.88 9.07 1.51 10.39.78 1.62 1.94 3.32 3.72 3.93a4.59 4.59 0 0 0 1.53.2 7.94 7.94 0 0 1 2.36.27 7.9 7.9 0 0 0 1.38.28 3.41 3.41 0 0 1 1.26.51 10.7 10.7 0 0 0 2.71.6 3.68 3.68 0 0 0 2.66-.9 7.23 7.23 0 0 1 1.49-1 4 4 0 0 0 .88-.55c.36-.25.7-.53 1-.79s.51-.24.75-.42A5.19 5.19 0 0 0 22.93 25a17.76 17.76 0 0 0 1.54-2.94 9.83 9.83 0 0 0 .7-2.91c.05-.55.13-1.1.18-1.66s0-1.14 0-1.71a15.25 15.25 0 0 0 .04-3.09z" fill="#5e3942"/><path d="M24.47 22.06a9.57 9.57 0 0 0 .67-2.65 10.14 10.14 0 0 1-.77.84l-.09.08a14.64 14.64 0 0 1-1.63 4c-.27.45-.6 1.26-1.18 1.21a1.84 1.84 0 0 1-1.11-.38 1.26 1.26 0 0 1-.32-.76 6.84 6.84 0 0 1-.6.43 5.14 5.14 0 0 1-1.94 3.53 4 4 0 0 1-4.32.73 4 4 0 0 1-2-3.12c-.31 0-.61-.08-.9-.14a2.24 2.24 0 0 1-1.76 1.7c-3.32 1-5.25-1.42-6.36-4a22.16 22.16 0 0 1-1.25-3.89 14.56 14.56 0 0 1-.74-1.57 27.63 27.63 0 0 0 1.77 6.18c.78 1.62 1.94 3.32 3.72 3.93a4.59 4.59 0 0 0 1.53.2 7.94 7.94 0 0 1 2.36.27 7.9 7.9 0 0 0 1.38.28 3.41 3.41 0 0 1 1.26.51 10.7 10.7 0 0 0 2.71.6 3.68 3.68 0 0 0 2.66-.9 7.23 7.23 0 0 1 1.49-1 4 4 0 0 0 .88-.55c.36-.25.7-.53 1-.79s.51-.24.75-.42A5.19 5.19 0 0 0 22.93 25a17.76 17.76 0 0 0 1.54-2.94z" fill="#552e37"/><path d="M5 12.93a2.58 2.58 0 0 0 0 .58v-.09c.14-1 .21-3.33 1.6-4a1.33 1.33 0 0 1 1-.42A2.52 2.52 0 0 1 8 9a3 3 0 0 1 1.93 1 1.53 1.53 0 0 1 .62.91c.22-1.27-1.26-1.92-2.51-2.14-2.79-.56-2.85 2.87-3.04 4.16zm6.13-7.19a1.31 1.31 0 0 1 .9-.42h.1a3.28 3.28 0 0 1 2.5 1.06 3.13 3.13 0 0 1 1 1.82 8.37 8.37 0 0 1 .2 1.38 7.29 7.29 0 0 0-.2-1.87C15.24 5.79 14 5.23 12.15 5a2 2 0 0 0-2 2.11 2 2 0 0 1 1-1.37zM16 17.18c-.24.87-1.91.69-2.64 1.06a4.21 4.21 0 0 0-2.25 3.1 17.11 17.11 0 0 0-.11 2.72 17.37 17.37 0 0 1 .18-2.23A4.18 4.18 0 0 1 13 19a3.6 3.6 0 0 1 .75-.51 3.61 3.61 0 0 1 .86-.2 4.63 4.63 0 0 0 1.33-.37.84.84 0 0 0 .11-.71zm7.43-7c-.42-.38-.44.13-.39.55 0-.16.12-.23.29-.12 0-.2.07-.35.28-.16a3.24 3.24 0 0 1 1 1.92 3.47 3.47 0 0 1 .25.89 4.42 4.42 0 0 0-1.38-3.06zM21 8.83a3 3 0 0 1 .22.35 1.8 1.8 0 0 1 .19.21A4.9 4.9 0 0 1 22.3 12a3.89 3.89 0 0 0 0-.49 4.89 4.89 0 0 0-.89-2.59c-.62-.81-1.51-.74-2.32-1.22.11.06.16.1 0 0-.57-.34-1.49-.85-2.1-.32a1.4 1.4 0 0 0-.4 1.3 1.22 1.22 0 0 1 .4-.81.9.9 0 0 1 .28-.16.62.62 0 0 1 .18-.31.35.35 0 0 1 .25-.08 2.83 2.83 0 0 1 1.15.47l.1.06a5.51 5.51 0 0 0 .94.38 2 2 0 0 1 1.11.6zm-5.78 3a1.73 1.73 0 0 0-1.13 1.9 1.67 1.67 0 0 1 .91-1.27 1.27 1.27 0 0 1 .53-.37A1.3 1.3 0 0 1 16 12a2.28 2.28 0 0 1 1.59.94 5.41 5.41 0 0 1 1 1.33c-.12-.22-.23-.41 0 0s.13.24 0 0a7.21 7.21 0 0 1 .8 2.39 6.07 6.07 0 0 0-.8-2.88c.12.22.23.41 0 0s-.13-.24 0 0c-.59-1.17-1.9-2.52-3.37-1.93zm-3.94.8a1.33 1.33 0 0 1 .2-.2.81.81 0 0 1 .41-.17s.08 0 .15.09a1 1 0 0 1 .12.2c.64.33.85 1.6.88 2.62 0-1.43-.27-4-2-2.93-.44.29-1 1.39-1.59 1.27a1.33 1.33 0 0 0 0 .27 1 1 0 0 0 .2 0 1.15 1.15 0 0 0 .55-.15 10.07 10.07 0 0 1 .89-.94zM20 24.13c0-.46.08-.92.07-1.23v-.19c-.07.41-.07.94-.07 1.42zm3.18-10.07a1.85 1.85 0 0 0-2.24.72 7.59 7.59 0 0 0-1 4.42 7.16 7.16 0 0 1 1-3.93 1.93 1.93 0 0 1 .43-.47l.07-.12a1.15 1.15 0 0 1 1-.56 1.82 1.82 0 0 1 .54.09A1.59 1.59 0 0 1 24 15a2.5 2.5 0 0 1 .85 1.8 2.46 2.46 0 0 0-1.66-2.74zm-16.67-7l.25-.18H6.6a1.29 1.29 0 0 1 .24-.21l.22-.15a4.12 4.12 0 0 1 2-.93h.12a1.67 1.67 0 0 1-.18.3 1.56 1.56 0 0 1 .33 0 .46.46 0 0 1 .36.26c.09-.34 0-.67-.36-.75-1-.22-2.09.63-2.86 1.16-.52.36-.64.71-.48 1a1.52 1.52 0 0 1 .53-.48zm11 11.33c-.19-.11-.56-.19-.73-.38a.36.36 0 0 0-.07.12.42.42 0 0 0 0 .2 2.42 2.42 0 0 0 .4.2l.17.07a1.81 1.81 0 0 1 .45.44 3.5 3.5 0 0 1 .66.79 7.78 7.78 0 0 1 1.09 4.08 8.11 8.11 0 0 0-1.09-4.57 3 3 0 0 0-.85-.93zM2.72 11.65a3.19 3.19 0 0 1 0-.32 4.23 4.23 0 0 1 .74-1.69 4.88 4.88 0 0 1 .85-1.26v.08c0 .08 0 .17-.06.26.54-.52.78-.43.84-.07.07-.71-.1-1.14-.85-.41a4.92 4.92 0 0 0-1.5 2.59 4 4 0 0 0-.02.82zm2.4 4.29c-.58.09-.9-.71-1.15-1.1a2.74 2.74 0 0 0-1.2-1.15c-1.09-.44-1.85.45-2 1.45a8.91 8.91 0 0 0-.14 2.12 8.33 8.33 0 0 1 .14-1.63 2 2 0 0 1 1-1.45.73.73 0 0 1 .56-.31.88.88 0 0 1 .33.07 1.71 1.71 0 0 1 .68.57 3.67 3.67 0 0 1 .68.82c.11.18.24.44.4.66a1.17 1.17 0 0 0 .72.25h.07a2.59 2.59 0 0 0 .08-.83v-.07c-.09.2-.14.39-.17.6zm2.09 4.26a6.14 6.14 0 0 1-1-1.83A6.92 6.92 0 0 1 5.89 17a5.25 5.25 0 0 0 .29 1.82 6.15 6.15 0 0 0 1 1.83 27.62 27.62 0 0 1 2.47 3.16 4.6 4.6 0 0 1 .61 1.79 4 4 0 0 0-.61-2.28 27.7 27.7 0 0 0-2.44-3.11z" style="mix-blend-mode:multiply" fill="#e5dee0"/><path d="M38.09 25.82a15 15 0 0 1-1-2.87 5.52 5.52 0 0 1 .29-2.66 5.79 5.79 0 0 1 .37-.85 12.5 12.5 0 0 1 1.17-1.5c.15-.19.35-.33.5-.5s.26-.39.4-.57a9.44 9.44 0 0 1 1.11-1.11c.5-.43.92-.87 1.45-1.26a6 6 0 0 0 1.34-1.09c.18-.24.39-.44.57-.67a4.4 4.4 0 0 1 1.07-1 4.84 4.84 0 0 1 2-.86 25.26 25.26 0 0 0 2.56-.57 4.68 4.68 0 0 1 3 .38 7.54 7.54 0 0 0 1.73.47 5.66 5.66 0 0 1 2.13 1.11c1 .73 3.37 3.3 3.91 3.79 2.06 1.85 2.08 8.73 1.92 10.16-.21 1.76-.74 3.72-2.21 4.85a4.5 4.5 0 0 1-1.36.68 7.82 7.82 0 0 0-2.11 1 7.75 7.75 0 0 1-1.19.71 3.32 3.32 0 0 0-1 .88 10.6 10.6 0 0 1-2.33 1.42 3.62 3.62 0 0 1-2.76 0 7.17 7.17 0 0 0-1.72-.48 4 4 0 0 1-1-.23c-.42-.12-.82-.27-1.23-.4s-.55-.06-.83-.15a5.07 5.07 0 0 1-1.54-.88 17.36 17.36 0 0 1-2.38-2.24 9.61 9.61 0 0 1-1.59-2.48c-.23-.5-.48-1-.7-1.49s-.36-1.07-.57-1.59z" fill="#5d3842"/><path d="M37.42 20.08v.08z" fill="#5d3842"/><path d="M37.39 20.15v.13l-.13.34z" fill="#5d3842"/><path d="M46 13.68c1.77-.61 3.5-1.62 5.29-.75a6.09 6.09 0 0 1 2.3 2 9 9 0 0 1 .88 3 3.3 3.3 0 0 1-1.32 3.32A9.26 9.26 0 0 1 50.57 23a21.72 21.72 0 0 1-2.75 1.46 5.05 5.05 0 0 1-3.09-.2c-1.08-.33-2.61-.73-3.2-1.8-1.53-2.77.17-5.16 1.73-7.46z" fill="#623e48"/><path d="M44.83 34.5a5.07 5.07 0 0 1-1.54-.88 17.36 17.36 0 0 1-2.38-2.24 9.61 9.61 0 0 1-1.59-2.48c-.23-.5-.48-1-.7-1.49s-.33-1.07-.54-1.59a15 15 0 0 1-1-2.87 5.16 5.16 0 0 1 .17-2.24 7.92 7.92 0 0 0 .63 1.29 27.59 27.59 0 0 0 2.84 4 6.94 6.94 0 0 0 2.83 1.89 11.05 11.05 0 0 0 2.74.39c3.08.29 5.93-1.45 8.28-3.31a8.12 8.12 0 0 0 2.24-3.76 18.54 18.54 0 0 0 .42-4.08 10.78 10.78 0 0 0-1.42-5.48 10.38 10.38 0 0 1 1 .65c1 .73 3.37 3.3 3.91 3.79 2.06 1.85 2.08 8.73 1.92 10.16-.21 1.76-.74 3.72-2.21 4.85a4.5 4.5 0 0 1-1.36.68 7.82 7.82 0 0 0-2.11 1 7.75 7.75 0 0 1-1.19.71 3.32 3.32 0 0 0-1 .88 10.6 10.6 0 0 1-2.33 1.42 3.62 3.62 0 0 1-2.76 0 7.17 7.17 0 0 0-1.72-.48 4 4 0 0 1-1-.23c-.42-.12-.82-.27-1.23-.4s-.61-.09-.9-.18z" fill="#57313b"/><path d="M39.33 28.9l-.54-1.15c.71.4 1.39.88 2.12 1.21 1.45.66 2.9 1.34 4.36 2.05 2.79 1.37 5.66.41 8.35-.73 2.86-1.22 4.4-3 6.26-5.46 1.61-2.14 1.74-5 1.54-7.73 1.32 2.62 1.32 7.88 1.17 9.11-.21 1.76-.74 3.72-2.21 4.85a4.5 4.5 0 0 1-1.36.68 7.82 7.82 0 0 0-2.11 1 7.75 7.75 0 0 1-1.19.71 3.32 3.32 0 0 0-1 .88 10.6 10.6 0 0 1-2.33 1.42 3.62 3.62 0 0 1-2.76 0 7.17 7.17 0 0 0-1.72-.48 4 4 0 0 1-1-.23c-.42-.12-.82-.27-1.23-.4s-.55-.06-.83-.15a5.07 5.07 0 0 1-1.54-.88 17.36 17.36 0 0 1-2.38-2.24 9.61 9.61 0 0 1-1.6-2.46z" fill="#512a34"/><path d="M38 23.8c-1.06-.61-.61-3-.12-3.83.39-.7.59.54.62.81a6.57 6.57 0 0 1-.5 3.02zm-.2-3.52c-.33.59-.64 2.2.08 2.62a4.5 4.5 0 0 0 .34-2.06c-.04-.19-.22-1.04-.45-.56zm18.72 3.86a6.13 6.13 0 0 0 .38-2.07c0-.48-.09-1.78-.53-2.13-.85-.67-.72 1-.74 1.35a3.16 3.16 0 0 1-2.19 3.14c-1.75.39-3.12-1.2-3.84-2.59-.48-.95-1.62-4.54.66-4 .52.13 1.46 1 2 .66-.09-.64-1.06-1.2-1.51-1.6-1.46-1.31-.07-2.68 1.23-3.4 2.52-1.4 3.69 1.82 4.27 3a8.47 8.47 0 0 1 .44 1.95 3.45 3.45 0 0 0 .45.94c.58-.11.62-1 .73-1.41a2.74 2.74 0 0 1 .76-1.47c.89-.77 1.89-.18 2.41.71 1.34 2.31 1.55 5.78 1.38 8.37-.2 2.83-1.23 5.76-4.7 5.88-2.25.08-2.82-1.62-2.47-3.56a28 28 0 0 1 1.24-3.77zM55 16.39c-.64-1.36-1.36-2.65-2.55-2.24a2.19 2.19 0 0 0-.36.16c-.79.44-1.33 1-1.38 1.44 0 .09 0 .36.38.73l.33.26c.49.38 1.1.84 1.2 1.5v.31l-.25.19a.9.9 0 0 1-.26.14 1.88 1.88 0 0 1-1.52-.41 2.93 2.93 0 0 0-.44-.23.72.72 0 0 0-.4 0s-.06 0-.11.12a4.75 4.75 0 0 0 .59 2.64c.29.56 1.35 2.38 2.84 2l.18-.05a2.42 2.42 0 0 0 1.36-2.27v-.16c0-.57 0-1.43.64-1.65a.79.79 0 0 1 .51 0 2.35 2.35 0 0 1-.21-.54c-.05-.22-.08-.44-.11-.66a3.17 3.17 0 0 0-.24-1zm1.21 13.24a1.74 1.74 0 0 0 1.44.48 4.26 4.26 0 0 0 1.24-.22c1.6-.55 2.5-2.18 2.68-4.84.1-1.48.18-5.2-1.24-7.63-.25-.44-.72-.84-1.14-.69a.84.84 0 0 0-.28.17 2.13 2.13 0 0 0-.54 1.1v.23c-.09.47-.23 1.26-.93 1.5h-.24a5.21 5.21 0 0 1 .33 1.93 6.39 6.39 0 0 1-.39 2.16c-.14.43-.31.85-.49 1.28a11.68 11.68 0 0 0-.74 2.25 2.73 2.73 0 0 0 .32 2.28zm-14.12-8c-1.27 1.11-2.31.81-2.74-.83a4.89 4.89 0 0 1 0-2.74c.32-1 1.19-1.19 1.8-1.91-.08.09-.12.14 0 0 .43-.51 1.13-1.29 1.89-1 1 .41.92 1.81.85 2.69a5.08 5.08 0 0 1-1.77 3.79zm.53-6.3a.34.34 0 0 0-.26 0 2.83 2.83 0 0 0-.94.82l-.08.09a5.27 5.27 0 0 1-.77.66 2 2 0 0 0-.84 1 4.3 4.3 0 0 0 0 2.4 1.56 1.56 0 0 0 .57 1 .53.53 0 0 0 .46 0 2.34 2.34 0 0 0 .73-.47 4.46 4.46 0 0 0 1.6-3.37c.1-.94.1-1.9-.45-2.12zm-3.26 8.18a1.85 1.85 0 0 1 2.35 0c2.16 1.68 2.54 4.47 3.31 6.93.22.69 1 2 .63 2.71a1.84 1.84 0 0 1-.92.72c-.53.23-1.1-.43-1.51-.76a16.08 16.08 0 0 1-4.37-6.13 2.55 2.55 0 0 1 .53-3.46zm-.17 2.57a13.81 13.81 0 0 0 4.07 5.5l.23.19c.15.13.5.42.64.43a1.35 1.35 0 0 0 .64-.44c.16-.27-.19-1-.37-1.47-.1-.24-.2-.45-.25-.63-.14-.44-.26-.9-.39-1.35-.52-1.89-1-3.68-2.56-4.82a1.18 1.18 0 0 0-1.13-.16 2 2 0 0 0-.49.25 1.81 1.81 0 0 0-.37 2.51zm18-10.6a9.47 9.47 0 0 1-2.27-2.57c-.47-.83-.65-1.58.48-1a4.93 4.93 0 0 1 2.26 2v.06-.06c.34.61.92 2.71-.47 1.57zm-.09-1.85A4.29 4.29 0 0 0 55.36 12v.07a8.66 8.66 0 0 0 2 2.28 3.56 3.56 0 0 0-.26-.72zm-8.91 1c.37.18.66.15.79.62.24.86-1 2.31-1.75 2.62-.56.23-1.41.41-1.87-.1a5.18 5.18 0 0 1-.93-2.69c-.22-2 .75-2.88 2.46-3.67 1.32-.61 3.17.71 2.5 2.23-.26.58-1.02.47-1.2.98zm.3-2.58a1.4 1.4 0 0 0-1.42-.41h-.09c-1.73.79-2.28 1.6-2.11 3.06a4.5 4.5 0 0 0 .78 2.36c.18.2.66.14 1 0l.16-.06c.62-.25 1.52-1.48 1.4-1.9a.27.27 0 0 0-.16-.12l-.31-.13-.48-.24.18-.51a1.44 1.44 0 0 1 .87-.81c.21-.1.3-.14.34-.23a.93.93 0 0 0-.16-1.06zM46.14 25.8c.21-.25.83-.54.51-1-.43-.59-1.31.52-1.75.6-1.68.32-1.47-2.67-1.31-3.6 0 .24-.08.46 0 0s0-.27 0 0c.24-1.31 1-3 2.59-2.93a1.8 1.8 0 0 1 1.75 1.92 3.66 3.66 0 0 1-.29 1.49c-.21.47-.73.89-.66 1.44.18 1.45 2.06.47 3 .6a4.2 4.2 0 0 1 3.14 2.2c1 2 2.62 6.08.62 8a4 4 0 0 1-4.32.72 5.23 5.23 0 0 1-3.17-3.1 8.42 8.42 0 0 1-.63-5.14 3 3 0 0 1 .52-1.2zm.58-3.69a2.53 2.53 0 0 0 .23-.37 3.06 3.06 0 0 0 .24-1.24A1.22 1.22 0 0 0 46 19.16a1.29 1.29 0 0 0-.5.07c-.82.28-1.3 1.41-1.47 2.37-.16.93-.15 2.43.26 2.84 0 0 .11.11.34.07l.33-.23a3.27 3.27 0 0 1 .83-.49 1.16 1.16 0 0 1 .51-.06 1.92 1.92 0 0 1-.06-.29 2 2 0 0 1 .48-1.34zM46.66 31a4 4 0 0 0 2.58 2.38 3.81 3.81 0 0 0 2.41 0 3.06 3.06 0 0 0 1.06-.63c1.85-1.68-.12-5.63-.53-6.41a3.17 3.17 0 0 0-2.47-1.6 3.69 3.69 0 0 0-.82.1 3.61 3.61 0 0 1-1.58.06 1.25 1.25 0 0 1-.59.95l-.13.11a2.24 2.24 0 0 0-.39.83 6.41 6.41 0 0 0 .46 4.21zm6.07-18.49a2.63 2.63 0 0 1-2.55-.12c-.37-.28-1.23-1.08-.55-1.49.88-.53 2.18-.08 3.08.17 1.13.28.99 1.02.02 1.42zm-.32-1.28l-.26-.07a4.1 4.1 0 0 0-2.15-.27h-.12a2.27 2.27 0 0 0 .53.55 1.94 1.94 0 0 0 1.78.11l.18-.07a1.28 1.28 0 0 0 .35-.2 1.29 1.29 0 0 0-.31-.08z" style="mix-blend-mode:multiply" fill="#e5dee0"/><path d="M37.91 25.86a15.24 15.24 0 0 1-1.05-2.92 5.63 5.63 0 0 1 .29-2.7 6.07 6.07 0 0 1 .38-.86 12.78 12.78 0 0 1 1.19-1.52c.15-.2.35-.33.51-.51s.26-.4.41-.58a9.65 9.65 0 0 1 1.13-1.13c.5-.44.93-.89 1.48-1.28a6.1 6.1 0 0 0 1.36-1.1c.18-.24.4-.45.58-.68a4.46 4.46 0 0 1 1.09-1 4.91 4.91 0 0 1 2-.87 25.81 25.81 0 0 0 2.6-.58 4.76 4.76 0 0 1 3 .39 7.67 7.67 0 0 0 1.82.48 5.75 5.75 0 0 1 2.16 1.12c1 .75 3.42 3.35 4 3.85 2.09 1.88 2.12 8.86 1.95 10.31C62.57 28 62 30 60.54 31.17a4.57 4.57 0 0 1-1.38.69 7.93 7.93 0 0 0-2.14 1 7.93 7.93 0 0 1-1.21.72 3.38 3.38 0 0 0-1 .89 10.71 10.71 0 0 1-2.37 1.45 3.69 3.69 0 0 1-2.81 0 7.2 7.2 0 0 0-1.74-.48 4.1 4.1 0 0 1-1-.24c-.42-.12-.83-.27-1.25-.41s-.56-.06-.85-.15a5.19 5.19 0 0 1-1.56-.89 17.72 17.72 0 0 1-2.41-2.27A9.77 9.77 0 0 1 39.16 29c-.23-.5-.49-1-.71-1.51s-.33-1.1-.54-1.63zm5.16-10.69c-.76-.31-1.45.48-1.89 1-.12.14-.08.09 0 0-.61.72-1.48.94-1.8 1.91a4.89 4.89 0 0 0 0 2.74c.43 1.64 1.47 1.95 2.74.83a5.08 5.08 0 0 0 1.8-3.77c.08-.88.14-2.3-.85-2.71zm3.82-3.77c-1.71.79-2.68 1.72-2.46 3.67a5.18 5.18 0 0 0 .93 2.69c.46.51 1.31.33 1.87.1.74-.31 2-1.76 1.75-2.62-.13-.48-.42-.44-.79-.62.19-.52.94-.4 1.2-1 .67-1.51-1.18-2.82-2.5-2.22zm5.82-.4c-.9-.25-2.19-.7-3.08-.17-.68.41.18 1.21.55 1.49a2.63 2.63 0 0 0 2.55.12c.97-.35 1.11-1.09-.02-1.44zm5 2.86v-.06a4.93 4.93 0 0 0-2.26-2c-1.13-.54-1 .22-.48 1a9.47 9.47 0 0 0 2.27 2.57c1.39 1.13.84-1 .47-1.65zm-1.22 10.28a28 28 0 0 0-1.31 3.8c-.35 1.94.22 3.64 2.47 3.56 3.47-.12 4.51-3.05 4.7-5.88.18-2.59 0-6.06-1.38-8.37-.52-.88-1.52-1.47-2.41-.71a2.74 2.74 0 0 0-.75 1.46c-.11.45-.15 1.31-.73 1.41a3.45 3.45 0 0 1-.45-.94 8.47 8.47 0 0 0-.44-1.95c-.59-1.16-1.75-4.39-4.27-3-1.29.72-2.69 2.09-1.23 3.4.45.4 1.42 1 1.51 1.6-.49.38-1.44-.53-2-.66-2.28-.59-1.15 3-.66 4 .71 1.39 2.09 3 3.84 2.59a3.16 3.16 0 0 0 2.19-3.14c0-.37-.12-2 .74-1.35.44.35.52 1.64.53 2.13a6.13 6.13 0 0 1-.35 2.05zm-10.23 8a5.23 5.23 0 0 0 3.17 3.1 4 4 0 0 0 4.32-.72c2-1.92.43-6-.62-8A4.2 4.2 0 0 0 50 24.29c-.94-.13-2.82.85-3-.6-.07-.56.46-1 .66-1.44a3.66 3.66 0 0 0 .29-1.49 1.8 1.8 0 0 0-1.75-1.92c-1.58-.08-2.36 1.62-2.59 2.93 0-.24.08-.46 0 0s0 .27 0 0c-.16.94-.37 3.92 1.31 3.6.44-.08 1.32-1.2 1.75-.6.31.43-.3.73-.51 1a3 3 0 0 0-.54 1.23 8.42 8.42 0 0 0 .64 5.11zm-7.38-5.17a16.08 16.08 0 0 0 4.37 6.13c.41.34 1 1 1.51.76a1.84 1.84 0 0 0 .92-.72c.39-.72-.41-2-.63-2.71-.78-2.46-1.15-5.25-3.31-6.93a1.85 1.85 0 0 0-2.35 0 2.55 2.55 0 0 0-.51 3.44zM38 23.8a6.57 6.57 0 0 0 .5-3c0-.26-.22-1.51-.62-.81-.52.84-.96 3.19.12 3.81z" fill="#66434c"/><path d="M42.24 21.72a5.35 5.35 0 0 0 1.88-3.93c.06-.79.19-2.44-1-2.93a1.24 1.24 0 0 0-.21 0c.16-.2.32-.41.49-.61a7.06 7.06 0 0 1 .94-.93 3.63 3.63 0 0 0-.18 1.68 5.39 5.39 0 0 0 1 2.83 1.73 1.73 0 0 0 1.93.24l.21-.08c.8-.33 2.18-1.88 1.89-2.9a.89.89 0 0 0-.64-.66 2.12 2.12 0 0 1 .28-.14 1.31 1.31 0 0 0 .76-.65 1.73 1.73 0 0 0-.12-1.7 3.45 3.45 0 0 0 .56.53 2.81 2.81 0 0 0 2.56.24l.23-.09a2.41 2.41 0 0 0 .3-.16 4.54 4.54 0 0 1 1.2.8 2.13 2.13 0 0 0-2-.25 3.47 3.47 0 0 0-.53.24c-.55.31-1.84 1.14-2 2.25a1.77 1.77 0 0 0 .71 1.5c.11.1.26.21.42.33a3.31 3.31 0 0 1 1 .94 2.42 2.42 0 0 1-.9-.4 3 3 0 0 0-.71-.35 1.62 1.62 0 0 0-.92 0 1 1 0 0 0-.62.62c-.43 1.07.3 3.08.61 3.69a5.81 5.81 0 0 0 2.32 2.5l-.18.08A4.51 4.51 0 0 0 50 24a3.94 3.94 0 0 0-1.14.09c-.54.09-1.15.2-1.44 0a.64.64 0 0 1-.22-.46 1.25 1.25 0 0 1 .33-.8 3.15 3.15 0 0 0 .31-.51 3.87 3.87 0 0 0 .31-1.59 2 2 0 0 0-2-2.16 2.19 2.19 0 0 0-.82.11 3.63 3.63 0 0 0-2 2.67 2.34 2.34 0 0 0-.08.37 2.05 2.05 0 0 0-.05.38 6.25 6.25 0 0 0 .17 2.59 4.39 4.39 0 0 1-.37-.29 6 6 0 0 0-1.16-1.21c-.07-.12-.15-.25-.22-.39s-.14-.34-.22-.51a3.29 3.29 0 0 0 .84-.57zm7-10.06v.07l-.06-.07zm-3.06 13.16c.15-.05.2 0 .24 0s.07.17-.27.46l-.15.22-.55-.2.16-.11a2.68 2.68 0 0 1 .57-.37z" fill="#715059"/><path d="M36.85 22.94a4.43 4.43 0 0 1 0-1.38 5.6 5.6 0 0 0 .32.58l.17.27A1.62 1.62 0 0 0 38 23.8c0-.09.06-.18.09-.27.2.29.39.59.6.87a2.87 2.87 0 0 0 .21 2.54 16.08 16.08 0 0 0 4.37 6.13c.41.34 1 1 1.51.76a1.84 1.84 0 0 0 .92-.72c.39-.72-.41-2-.63-2.71s-.35-1.19-.52-1.8l.93.08a9.83 9.83 0 0 0 .8 3.43 5.23 5.23 0 0 0 3.17 3.1 4 4 0 0 0 4.32-.72c2-1.92.43-6-.61-8 .61-.41 1.2-.84 1.76-1.28a7.5 7.5 0 0 0 2-2.85 6.59 6.59 0 0 1-.37 1.78 28 28 0 0 0-1.31 3.8c-.35 1.94.22 3.64 2.47 3.56 3.47-.12 4.51-3.05 4.7-5.88.18-2.59 0-6.06-1.38-8.37-.52-.88-1.52-1.47-2.41-.71a2.74 2.74 0 0 0-.81 1.46c-.05.22-.09.54-.18.82 0-.66.06-1.33.09-1.95a8.07 8.07 0 0 0 0-1.1c.73.23.29-1.36 0-1.95v.06-.06a3.81 3.81 0 0 0-.56-.75c-.14-.4-.3-.79-.47-1.17l.24.17c1 .75 3.42 3.35 4 3.85 2.09 1.88 2.12 8.86 1.95 10.31C62.57 28 62 30 60.54 31.17a4.57 4.57 0 0 1-1.38.69 7.93 7.93 0 0 0-2.14 1 7.93 7.93 0 0 1-1.21.72 3.38 3.38 0 0 0-1 .89 10.71 10.71 0 0 1-2.37 1.45 3.69 3.69 0 0 1-2.81 0 7.2 7.2 0 0 0-1.74-.48 4.1 4.1 0 0 1-1-.24c-.42-.12-.83-.27-1.25-.41s-.56-.06-.85-.15a5.19 5.19 0 0 1-1.56-.89 17.72 17.72 0 0 1-2.41-2.27A9.77 9.77 0 0 1 39.16 29c-.23-.5-.49-1-.71-1.51s-.34-1.09-.55-1.62a15.24 15.24 0 0 1-1.05-2.93z" fill="#5e3942"/><path d="M40.77 31.51a9.56 9.56 0 0 1-1.49-2.28 10 10 0 0 0 1 .54l.11.05a14.61 14.61 0 0 0 2.84 3.26c.41.34 1 1 1.51.76a1.84 1.84 0 0 0 .92-.72 1.25 1.25 0 0 0 .06-.83 7 7 0 0 0 .71.21 5.14 5.14 0 0 0 3 2.7 4 4 0 0 0 4.32-.72 4 4 0 0 0 .89-3.61c.28-.13.55-.27.8-.42a2.24 2.24 0 0 0 2.21 1c3.47-.12 4.51-3.05 4.7-5.88a22.11 22.11 0 0 0-.09-4.06 14.2 14.2 0 0 0 .19-1.73 27.6 27.6 0 0 1 .33 6.42c-.21 1.8-.78 3.8-2.24 4.97a4.57 4.57 0 0 1-1.38.69 7.93 7.93 0 0 0-2.14 1 7.93 7.93 0 0 1-1.21.72 3.38 3.38 0 0 0-1 .89 10.71 10.71 0 0 1-2.37 1.45 3.69 3.69 0 0 1-2.81 0 7.2 7.2 0 0 0-1.74-.48 4.1 4.1 0 0 1-1-.24c-.42-.12-.83-.27-1.25-.41s-.56-.06-.85-.15a5.19 5.19 0 0 1-1.56-.89 17.72 17.72 0 0 1-2.46-2.24z" fill="#552e37"/><path d="M56.2 16.54a2.62 2.62 0 0 1 .19.55V17c-.46-.91-1.28-3.08-2.82-3.3a1.33 1.33 0 0 0-1.08-.07 2.53 2.53 0 0 0-.4.18 3 3 0 0 0-1.52 1.53 1.54 1.54 0 0 0-.29 1.06c-.62-1.13.57-2.23 1.68-2.84 2.48-1.41 3.65 1.82 4.24 2.98zm-8.13-4.8a1.31 1.31 0 0 0-1-.11h-.09c-1.16.53-1.78 1.07-2 1.81a3.12 3.12 0 0 0-.37 2.05 8.49 8.49 0 0 0 .26 1.37 7.4 7.4 0 0 1-.42-1.83c-.22-2 .75-2.88 2.46-3.67a2 2 0 0 1 2.62 1.34 2 2 0 0 0-1.47-.96zm-.91 12.4c.51.74 2 0 2.84.14a4.2 4.2 0 0 1 3.14 2.2A16.86 16.86 0 0 1 54.19 29a17.58 17.58 0 0 0-.9-2.05 4.18 4.18 0 0 0-2.67-2.1 3.64 3.64 0 0 0-.87-.24 3.6 3.6 0 0 0-.88.09 4.63 4.63 0 0 1-1.38.09.84.84 0 0 1-.34-.63zM37.85 20c.28-.49.46 0 .55.39-.08-.14-.19-.18-.31 0-.07-.19-.17-.31-.31-.06a3.23 3.23 0 0 0-.27 2.13 3.5 3.5 0 0 0 .06.93 4.41 4.41 0 0 1 .28-3.39zm1.9-2.1a3 3 0 0 0-.09.4 1.8 1.8 0 0 0-.11.26 4.89 4.89 0 0 0 0 2.74 3.7 3.7 0 0 1-.16-.46 4.89 4.89 0 0 1 0-2.74c.32-1 1.19-1.19 1.8-1.91-.08.09-.12.14 0 0 .43-.51 1.13-1.29 1.89-1a1.4 1.4 0 0 1 .8 1.1 1.22 1.22 0 0 0-.65-.64.88.88 0 0 0-.32-.06.61.61 0 0 0-.27-.23.34.34 0 0 0-.26 0 2.83 2.83 0 0 0-.94.82l-.08.09a5.27 5.27 0 0 1-.77.66 2 2 0 0 0-.84.94zm6.45 1a1.73 1.73 0 0 1 1.68 1.43 1.66 1.66 0 0 0-1.25-.93 1.42 1.42 0 0 0-1.12-.11 2.28 2.28 0 0 0-1.2 1.41 5.39 5.39 0 0 0-.55 1.59c0-.24.08-.46 0 0s0 .27 0 0a7.2 7.2 0 0 0 0 2.52 6.09 6.09 0 0 1-.17-3c0 .24-.08.46 0 0s0-.27 0 0c.25-1.36 1.03-3.05 2.61-2.97zm4-.52a1.5 1.5 0 0 0-.25-.12.81.81 0 0 0-.44 0s-.07 0-.12.14a1 1 0 0 0-.05.23c-.5.53-.28 1.79 0 2.76-.5-1.34-1.07-3.91.9-3.41.51.13 1.42 1 1.92.68a1.22 1.22 0 0 1 .14.24 1 1 0 0 1-.18.1 1.16 1.16 0 0 1-.57 0 9.85 9.85 0 0 0-1.14-.6zM45.67 32c-.17-.43-.37-.85-.46-1.14l-.05-.18c.14.38.37.86.51 1.32zm-6.29-8.48a1.85 1.85 0 0 1 2.35 0 7.59 7.59 0 0 1 2.41 3.85 7.15 7.15 0 0 0-2.25-3.39 1.93 1.93 0 0 0-.56-.31l-.11-.09a1.15 1.15 0 0 0-1.14-.2 1.8 1.8 0 0 0-.48.26 1.6 1.6 0 0 0-.65 1 2.49 2.49 0 0 0-.22 2 2.45 2.45 0 0 1 .65-3.12zm13.49-12l-.3-.08.13-.1a1.29 1.29 0 0 0-.3-.12l-.26-.07a4.1 4.1 0 0 0-2.14-.26h-.12a1.62 1.62 0 0 0 .22.27 1.56 1.56 0 0 0-.3.13.46.46 0 0 0-.25.37c-.19-.3-.26-.62.09-.83.88-.53 2.18-.08 3.08.17.61.17.84.47.77.76a1.51 1.51 0 0 0-.62-.26zM46.14 25.8c.14-.17.47-.36.57-.6a.37.37 0 0 1 .11.09.4.4 0 0 1 .08.18 2.37 2.37 0 0 1-.32.32l-.14.12a1.81 1.81 0 0 0-.29.56 3.47 3.47 0 0 0-.37 1 7.79 7.79 0 0 0 .3 4.22 8.1 8.1 0 0 1-.46-4.69 3 3 0 0 1 .52-1.2zM58 14.59a3 3 0 0 0-.13-.29v.06-.06a4.21 4.21 0 0 0-1.25-1.35 4.93 4.93 0 0 0-1.26-.95v.07l.14.22c-.68-.32-.87-.16-.81.21-.3-.65-.28-1.11.67-.66a4.93 4.93 0 0 1 2.26 2v.06-.06a4.15 4.15 0 0 1 .38.75zm-.87 4.84c.58-.11.62-1 .73-1.41a2.74 2.74 0 0 1 .76-1.47c.89-.77 1.89-.18 2.41.71a8.91 8.91 0 0 1 .82 2 8.43 8.43 0 0 0-.66-1.5 2 2 0 0 0-1.41-1.05.73.73 0 0 0-.63-.11.88.88 0 0 0-.29.18 1.71 1.71 0 0 0-.45.76 3.64 3.64 0 0 0-.38 1c0 .2-.09.49-.16.75a1.17 1.17 0 0 1-.6.47h-.07a2.57 2.57 0 0 1-.35-.76v-.07c.02.14.15.31.23.5zm-.59 4.71a6.13 6.13 0 0 0 .38-2.07 6.87 6.87 0 0 0-.16-1.36 5.24 5.24 0 0 1 .24 1.82 6.18 6.18 0 0 1-.38 2.07 28 28 0 0 0-1.31 3.8 4.59 4.59 0 0 0 0 1.89 4.05 4.05 0 0 1-.17-2.35 28 28 0 0 1 1.35-3.8z" style="mix-blend-mode:multiply" fill="#e5dee0"/></g></g></svg>