<svg xmlns="http://www.w3.org/2000/svg" viewBox="-0.05691099166870117 -3.598052978515625 64.36370849609375 67.83907318115234"><title>Depositphotos_103092084_183_ic</title><g data-name="Layer 2"><g data-name="Layer 1"><path d="M7.19 27.07A34.85 34.85 0 0 1 14 11.77a37.12 37.12 0 0 1 10.61-9.55l-1.18.29a29.52 29.52 0 0 0-18 13.76A29.82 29.82 0 0 0 2.61 23a37.76 37.76 0 0 0 3.26 3c.43.41.87.74 1.32 1.07z" fill="#fff" fill-rule="evenodd"/><path d="M29.07 1.56a.81.81 0 0 1-.29.22 34.34 34.34 0 0 0-13.57 10.89A32.84 32.84 0 0 0 8.56 28c.42.26.84.52 1.28.76a25.73 25.73 0 0 0 7.61 2.83A41.34 41.34 0 0 1 26.13 13 32.92 32.92 0 0 1 40.45 3a29.43 29.43 0 0 0-11.38-1.44z" fill="#6bcff6" fill-rule="evenodd"/><path d="M46.57 12.46A34.85 34.85 0 0 1 56.38 26a37.09 37.09 0 0 1 3 13.91 29.63 29.63 0 0 0-4.76-26.84 30.18 30.18 0 0 0-2.26-2.62 35.06 35.06 0 0 0-5.79 2.01z" fill="#fff" fill-rule="evenodd"/><path d="M44.62 11.73a.75.75 0 0 1 .35-.18 35.47 35.47 0 0 1 6.11-2.3 29.7 29.7 0 0 0-5.18-3.78 30 30 0 0 0-3.21-1.61A31.34 31.34 0 0 0 27.28 14a39.79 39.79 0 0 0-8.34 17.85l1.2.13a25.1 25.1 0 0 0 10.3-1.42 25.62 25.62 0 0 1 7.06-13.72 27.59 27.59 0 0 1 7.12-5.11z" fill="#fff" fill-rule="evenodd"/><path d="M57.69 44.11a.79.79 0 0 1 0-.32A34.32 34.32 0 0 0 55 26.59a32.8 32.8 0 0 0-9.94-13.41 26.19 26.19 0 0 0-6.52 4.71c-.37.37-.73.76-1.08 1.16a41.35 41.35 0 0 1 11.77 16.81 32.92 32.92 0 0 1 1.53 17.37 29.62 29.62 0 0 0 6-7.33q.48-.9.93-1.79z" fill="#6bcff6" fill-rule="evenodd"/><path d="M1.72 34.74A31.35 31.35 0 0 0 18.17 43a39.86 39.86 0 0 0 19.66-1.71A24.68 24.68 0 0 0 30.94 32 26.54 26.54 0 0 1 20 33.47c-.68-.06-1.37-.14-2.05-.25h-.06a27 27 0 0 1-8.79-3.14q-.9-.5-1.74-1.06a28.78 28.78 0 0 1-2.41-1.78 36.79 36.79 0 0 1-2.75-2.49c-.19.83-.33 1.67-.44 2.52a29.23 29.23 0 0 0-.04 7.47z" fill="#fff" fill-rule="evenodd"/><path d="M39.52 53.86a34.92 34.92 0 0 1-16.65 1.72 37.2 37.2 0 0 1-13.49-4.35 29.86 29.86 0 0 0 6.91 5.51 29.51 29.51 0 0 0 22.07 3.06 35.31 35.31 0 0 0 1.16-5.94z" fill="#fff" fill-rule="evenodd"/><path d="M41.12 52.54a.76.76 0 0 1 0 .37A35.31 35.31 0 0 1 40 59.32a29.44 29.44 0 0 0 8.86-4.56 31.32 31.32 0 0 0-1.08-18.38 39.77 39.77 0 0 0-11.3-16.16 24.71 24.71 0 0 0-4.58 10.61 25.63 25.63 0 0 1 8.36 12.95 27.82 27.82 0 0 1 .86 8.76z" fill="#fff" fill-rule="evenodd"/><path d="M6.55 47.66a.82.82 0 0 1 .28.13 34.3 34.3 0 0 0 16.22 6.31 32.82 32.82 0 0 0 16.59-1.91 26.19 26.19 0 0 0-.83-8c-.13-.51-.29-1-.45-1.5a41.27 41.27 0 0 1-20.45 1.79 32.92 32.92 0 0 1-15.8-7.35c.12.55.25 1.11.39 1.66a29.59 29.59 0 0 0 4.05 8.87z" fill="#6bcff6" fill-rule="evenodd"/><path d="M55.79 12.18a31.12 31.12 0 0 0-9.14-8 31.07 31.07 0 0 0-3.58-1.78h-.09A31 31 0 0 0 4.2 15.52 31.28 31.28 0 0 0 1.07 23v.06a31.53 31.53 0 0 0-.79 4 31 31 0 0 0 0 7.9.75.75 0 0 0 .06.41A31.06 31.06 0 0 0 15.55 58a31.12 31.12 0 0 0 34.29-2.11.77.77 0 0 0 .31-.24 31.19 31.19 0 0 0 7.87-9 31.11 31.11 0 0 0-2.24-34.47zM45.9 5.47a29.83 29.83 0 0 1 5.18 3.79 35.18 35.18 0 0 0-6.08 2.3.71.71 0 0 0-.35.17 27.69 27.69 0 0 0-7.13 5.11 25.65 25.65 0 0 0-7.06 13.72A25 25 0 0 1 20.14 32c-.4 0-.8-.07-1.2-.12A39.81 39.81 0 0 1 27.28 14 31.36 31.36 0 0 1 42.69 3.86a29.38 29.38 0 0 1 3.21 1.61zm-16.83-3.9a28.9 28.9 0 0 1 5.93.18A29.39 29.39 0 0 1 40.45 3a32.86 32.86 0 0 0-14.31 10 41.27 41.27 0 0 0-8.67 18.57 25.7 25.7 0 0 1-7.61-2.83c-.43-.25-.86-.5-1.28-.77a32.75 32.75 0 0 1 6.65-15.34A34.31 34.31 0 0 1 28.78 1.78a.8.8 0 0 0 .29-.21zM5.47 16.3a29.49 29.49 0 0 1 18-13.75l1.17-.29A37.12 37.12 0 0 0 14 11.77a34.83 34.83 0 0 0-6.84 15.3c-.45-.32-.88-.66-1.31-1a38.07 38.07 0 0 1-3.27-3 29.68 29.68 0 0 1 2.89-6.77zM1.75 27.25c.11-.85.26-1.69.44-2.52.89.88 1.8 1.71 2.75 2.49A29.54 29.54 0 0 0 7.35 29c.57.37 1.15.73 1.75 1.06a26.86 26.86 0 0 0 8.79 3.13H18q1 .17 2.06.25A26.48 26.48 0 0 0 30.95 32a24.63 24.63 0 0 1 6.89 9.3A39.8 39.8 0 0 1 18.18 43a31.34 31.34 0 0 1-16.46-8.26 29.36 29.36 0 0 1 .03-7.49zM38.38 59.8a29.63 29.63 0 0 1-29-8.57 37.19 37.19 0 0 0 13.48 4.35 35 35 0 0 0 16.65-1.72 35.12 35.12 0 0 1-1.13 5.94zm1.27-7.61a32.81 32.81 0 0 1-16.59 1.91 34.32 34.32 0 0 1-16.22-6.3.76.76 0 0 0-.28-.13 29.46 29.46 0 0 1-4-8.9q-.22-.83-.39-1.66a32.92 32.92 0 0 0 15.8 7.35 41.33 41.33 0 0 0 20.45-1.79c.17.5.32 1 .45 1.49a26 26 0 0 1 .77 8.03zm9.27 2.57a29.61 29.61 0 0 1-8.86 4.56 35.54 35.54 0 0 0 1.05-6.41.75.75 0 0 0 0-.37 27.78 27.78 0 0 0-.86-8.76 25.61 25.61 0 0 0-8.36-12.95 24.65 24.65 0 0 1 4.62-10.62 39.81 39.81 0 0 1 11.3 16.16 31.39 31.39 0 0 1 1.1 18.39zm8.78-10.64q-.45.91-1 1.79a29.76 29.76 0 0 1-6 7.34 32.92 32.92 0 0 0-1.54-17.37 41.31 41.31 0 0 0-11.69-16.82q.52-.6 1.08-1.16a26.13 26.13 0 0 1 6.52-4.71A32.8 32.8 0 0 1 55 26.59a34.31 34.31 0 0 1 2.65 17.2.73.73 0 0 0 .04.33zM60.46 35a29.87 29.87 0 0 1-1.1 5 37.15 37.15 0 0 0-3-13.91 34.85 34.85 0 0 0-9.81-13.56 35.21 35.21 0 0 1 5.76-2A29.68 29.68 0 0 1 60.46 35z" fill="#6d6e71"/></g></g></svg>