<svg xmlns="http://www.w3.org/2000/svg" viewBox="-0.24243593215942383 -0.2509126663208008 105.51341247558594 123.9730224609375"><title>Depositphotos_118814068_11</title><g data-name="Layer 2"><g data-name="Layer 1"><g data-name="Layer 2"><path d="M50.43 5.22s2.33 18 16.66 24.57 27.23 9.4 23.4 25.92l9.29 17.15 2.63-1.69.4-19-5.87-16.47L88.71 19 72.55 7.89l-18.79-3.8z" fill="#69bf6f"/><circle cx="26.26" cy="18.47" r="7.25" fill="#5cc5c0"/><path d="M33 37h.16a1.9 1.9 0 0 0 1.74-1.15c.35-.8 8.4-19.68 1.47-28.07A9.36 9.36 0 0 0 29 4.64c-9.15-.24-22.51 8-26.73 12.59a1.9 1.9 0 0 0-.4 1.91C2.13 19.79 7.71 34.92 33 37zM28.61 8.44h.31a5.69 5.69 0 0 1 4.51 1.81c1.49 1.8 2 4.51 1.94 7.5a9.14 9.14 0 1 0-.18 2.66 54.16 54.16 0 0 1-3.27 12.7c-18.12-1.94-24.34-11-26-14.18 4.54-4.14 15.53-10.49 22.69-10.49zm3 10a5.35 5.35 0 1 1-5.35-5.35 5.35 5.35 0 0 1 5.35 5.35zm-5.35-1.9h.63a1.9 1.9 0 0 1 0 3.8h-.63a1.9 1.9 0 0 1 0-3.8zm69.91 12C87.57 6 63 2.68 55.74 2.19c-5.09-.35-11.51 2-14.76 3.34a12.18 12.18 0 0 0-2.31-3.78 1.9 1.9 0 0 0-2.75 2.63 8.33 8.33 0 0 1 1.91 4.06 1.9 1.9 0 0 0 2.71 1.44c.09 0 9-4.29 14.94-3.9 6.74.45 29.35 3.5 37.14 23.86 1.18 3.09 2.21 5.69 3.1 7.95 5.12 13 5.66 14.33 5.17 31.52a25.69 25.69 0 0 0-3.48-8c-7.11-10-13.83-10.79-19.76-11.46l-2.09-.25-1.23-.19-.2-1.41 12.3-2a1.9 1.9 0 0 0-.54-3.76h-.07L71.7 44.55a1.9 1.9 0 0 0-1.58 2.13l.26 2c-7-1.57-15.85-4.37-18.15-6.1l-.23-.22a9.92 9.92 0 0 0 1.73-1.83c.26-.48 1-2-.34-12.91a1.9 1.9 0 1 0-3.77.48c.53 4.2.93 9.32.72 10.65-.15.16-.39.39-.69.66-2.48-4-5-10.07-5.19-11.76a1.9 1.9 0 1 0-3.78.42c.25 2.27 3 9.18 6 13.8-2.86 2.34-7 5.54-10.84 8.51-6.07-5-12.06-6.6-18.81-7.21-7.25-.66-13.81-6.28-13.94-6.39a1.9 1.9 0 0 0-2.48 2.79l.08.07c.3.27 7.56 6.54 16.1 7.32 8.06.73 14.51 2.88 21.73 11.3 6.3 7.34 16.93 8.15 24.7 8.74a43.85 43.85 0 0 1 6.43.76c6.75 1.71 10 8.78 11.54 14.41 2.63 9.63 4.22 15.44 12.25 20.1A1.9 1.9 0 1 0 95.35 99c-6.68-3.88-8-8.53-10.49-17.81-1.67-6.1-4.32-10.71-7.79-13.69a1.88 1.88 0 0 0 0-.64C76.61 65 75.7 59 74.91 53.36h.17c.72.1 1.45.18 2.18.26 5.64.64 11 1.24 17.09 9.88 6.58 9.29 5.08 34.63 4.88 37.53-1.07 7-3 12.91-6.64 16.09-2.52 2.21-5.76 3.06-9.89 2.6s-7-2.23-7.87-5a5.62 5.62 0 0 1 1.53-5.8c.92-.79 2.51-1.48 4.86-.34a1.9 1.9 0 1 0 1.66-3.42 8 8 0 0 0-9 .87 9.38 9.38 0 0 0-2.69 9.81c1.31 4.23 5.35 7 11.09 7.64a22.51 22.51 0 0 0 2.45.14A15.21 15.21 0 0 0 95 120c8.59-7.52 9-25 9.41-42 0-2 .09-4 .16-5.9.64-20.54.07-22-5.35-35.7-.85-2.25-1.88-4.84-3.05-7.91zm-23.4 36.27a15.7 15.7 0 0 0-2.19-.74 45.57 45.57 0 0 0-7.07-.86c-7.1-.54-16.82-1.28-22.09-7.43-.87-1-1.74-1.94-2.6-2.8q6.61-5 10.34-8.12a7.92 7.92 0 0 0 .8.71c3.31 2.48 13.93 5.56 21 7 .52 3.95 1.24 8.92 1.81 12.24zm2.36-63.6A1.9 1.9 0 0 1 77.59.13c.74.29 18.2 7.28 24.71 24.94a1.9 1.9 0 1 1-3.56 1.31c-5.91-16-22.37-22.65-22.53-22.71a1.9 1.9 0 0 1-1.08-2.46zm26.7 28.92a1.9 1.9 0 0 1 2.39 1.22l.8 2.48a1.9 1.9 0 1 1-3.61 1.17l-.8-2.48a1.9 1.9 0 0 1 1.22-2.39zm-43.4-16.84a1.9 1.9 0 0 1 1.1-2.45l2.3-.87a1.9 1.9 0 0 1 1.46 3.51h-.11l-2.3.88a1.9 1.9 0 0 1-2.45-1.1zM66 18.61a1.9 1.9 0 0 1 1.1-2.45l2.3-.87a1.9 1.9 0 0 1 1.46 3.51h-.11l-2.3.88A1.9 1.9 0 0 1 66 18.61zm7.61 5.32a1.9 1.9 0 0 1 1.1-2.45l2.3-.87a1.9 1.9 0 1 1 1.46 3.51h-.11l-2.3.87a1.9 1.9 0 0 1-2.4-1.06zm1.86 66.31c-1.09-4.45-2.46-10-7.07-13.57-2.3-1.79-8.87-2.83-14.66-3.75-3.33-.53-6.48-1-9-1.67-6.65-1.68-11.24-6.81-15.29-11.34-.72-.81-1.44-1.61-2.15-2.37-2.81-3-7-3.28-10.71-3.52a26.81 26.81 0 0 1-4.23-.49 36.6 36.6 0 0 1-11.52-5A1.9 1.9 0 1 1 3 45.4a33.3 33.3 0 0 0 10.2 4.45 24.38 24.38 0 0 0 3.6.39c4 .26 9.4.61 13.24 4.72.73.78 1.46 1.6 2.2 2.43 3.87 4.32 7.86 8.79 13.39 10.19 2.38.6 5.45 1.09 8.69 1.6 6.86 1.09 13.33 2.11 16.4 4.5 5.66 4.4 7.26 10.91 8.43 15.66.29 1.17.56 2.27.85 3.19a1.9 1.9 0 0 1-3.59 1.26v-.11c-.33-1-.61-2.21-.92-3.44z" fill="#fff"/></g></g></g></svg>