<svg xmlns="http://www.w3.org/2000/svg" viewBox="0 0 301.4100036621094 123.24935913085938"><title>Depositphotos_100129346_04</title><g data-name="Layer 2"><g data-name="Layer 1" style="isolation:isolate"><path fill="#915c30" d="M66.31 61.11l2.35.18.2.02-57 16.67-3.27-.95 1.98-.58.85-.25 7.54-2.2.77-.23 45.35-13.26.47-.14.05.06.71.68z"/><path fill="#89572e" d="M8.59 77.03l3.27.95 2.93 2.78 2.04 4.04.73 4.52-.73 4.09-2.04 2.85-2.93 1.05-3.27-.95-1.17-1.1.24-.6 1.06.99 3.01.89 2.71-.98 1.88-2.63.67-3.78-.67-4.17-1.88-3.73-2.71-2.56-3.01-.88-2.72.97-1.87 2.64-.67 3.77.67 4.17L6 93.09l.64.6-.36.48-.63-.59-2.03-4.04-.72-4.51.72-4.09 2.03-2.86 2.94-1.05z"/><path fill="#945e30" d="M14.79 80.76l-2.93-2.78 57-16.67 1.28.73 2.91-.85-.31-1.02L210.7 19.82l1.02.96 1.92 1.81L14.79 80.76z"/><path fill="#80512b" d="M72.74 60.17l.31 1.02-2.91.85-.11-1.46 2.53-1 .18.59z"/><path fill="#8e5a2f" d="M70.03 60.58l.11 1.46-1.28-.73-.2-.02 1.37-.71z"/><path fill="#8e5a2f" d="M70.03 60.58l-1.37.71-2.35-.18.15-.67 3.57.14z"/><path fill="#81522c" d="M66.46 60.44l-.15.67-.71-.68-.18-1.15 1.04 1.16z"/><path fill="#80512b" d="M65.42 59.28l.18 1.15-.05-.06-.47.14.34-1.23z"/><path fill="#734728" d="M65.42 59.28l-.34 1.23-45.35 13.26.55-1.39L66.5 58.86l-1.08.42z"/><path d="M70 60.58l-3.57-.15-1-1.15 1.08-.43 1.49-.57h.45l2.39.1h.73l.14.15.91 1zm-2.82-.45l2.52.11 1.77-.7-.74-.81-2.52-.11-1.77.7z" fill="#976032"/><path fill="#935d30" d="M71.52 58.43l-.73-.03.74-.21.18.38-.06.01-.13-.15z"/><path fill="#915c30" d="M72.56 59.58l-.91-1 .06-.01 135.73-39.71 3.26.96L72.74 60.17l-.18-.59z"/><path fill="#7f512b" d="M67.95 58.28l-1.45.58-46.22 13.52v-4.41L219.13 9.8v4.41L68.4 58.3l-.45-.02z"/><path fill="#734728" d="M211.72 20.78l-1.01-.96 7-2.05-2.55 2-3.44 1.01z"/><path fill="#f7c574" d="M16.99 89.15l-.67 3.78-1.88 2.63-2.71.98-3.01-.89-1.06-.99.37-.95.17-.43 1.29-3.29-2.85 3.7-.64-.6-1.87-3.73-.67-4.17.67-3.77L6 78.78l2.72-.97 3.01.88 2.71 2.56 1.88 3.73.67 4.17z"/><path fill="#3f2e27" d="M6.28 94.17l.36-.48 1.56-.41-.17.43-1.75.46z"/><path d="M166.2 52.74l-.5.59-2.85 1.06-2.35.47.5-.59 2.85-1.06zm-4.5 1.39l-.35.42 1.65-.33 2-.75.35-.42-1.65.33z" fill="#734728"/><path fill="#784b2a" d="M161.01 54.27l-.5.59-.28-1.07.36-.16.42.64z"/><path fill="#925d30" d="M161.01 54.27l-.42-.64.39-.14.65-.63 2.22.35-2.84 1.06z"/><path fill="#935d30" d="M163.85 53.21l-2.22-.35 1.7-1.6.52 1.95z"/><path fill="#8c592f" d="M163.85 53.21l-.52-1.95 2.62-.77-2.1 2.72z"/><path fill="#784b2a" d="M160.23 53.79l.28 1.07-.64-.85-.03-.04.39-.18z"/><path fill="#734728" d="M159.84 53.97l.03.04-148.01 43.3 2.93-1.05 146.19-42.77-.39.14-.36.16-.39.18z"/><path fill="#8d592f" d="M166.2 52.74l-2.35.47 2.1-2.72.07-.02.12 1.51.02.19.04.57z"/><path fill="#734728" d="M166.14 51.98l-.12-1.51-.07.02-2.62.77-1.7 1.6-.65.63L14.79 96.26l2.04-2.85 198.85-58.18-2.04 2.86-47.5 13.89z"/><path fill="#794b2a" d="M215.68 35.23L16.83 93.41l.73-4.09L216.4 31.14l-.72 4.09z"/><path fill="#86552d" d="M215.68 26.63l.72 4.51L17.56 89.32l-.73-4.52 198.85-58.17z"/><path fill="#905b30" d="M14.79 80.76l198.85-58.17 2.04 4.04L16.83 84.8l-2.04-4.04z"/><path fill="#a4702c" d="M8.2 93.28l-1.56.41 2.85-3.7-1.29 3.29z"/><path fill="#734728" d="M210.7 19.82l-3.26-.96L71.71 58.57l-.18-.38-.74.21-2.39-.1 150.73-44.09-1.42 3.56-7 2.05h-.01z"/><path fill="#734728" d="M213.64 38.09l-2.94 1.05-44.54 13.03-.02-.19 47.5-13.89z"/><path fill="#f7c574" d="M8.11 62.16l-.54-.64.27-.69 2.36-1.85 2.93-.05 2.94 1.77 2.36 3.22 1.3 4.06v4.07L18.96 74l-7.54 2.2-1.22-.73-2.36-3.23-1.3-4.05v-4.07l.41-1.06 6.18 5.02-4.64-5.47-.38-.45z"/><path fill="#d29136" d="M8.49 62.61l4.64 5.47-6.18-5.02 1.54-.45z"/><path fill="#523b30" d="M6.44 62.65l1.67-.49.38.45-1.54.45-.51-.41z"/><path fill="#3f2e27" d="M218.01 6.34l-.43.37-38.66 12.77-5.47 1.58 44.56-14.72z"/><path fill="#8b582f" d="M219.13 9.8L20.28 67.97l-1.42-4.39L217.71 5.41l.3.93-44.56 14.72 5.47-1.58L214.7 9.17l3.86-1.12.57 1.75z"/><path fill="#a4702c" d="M214.7 9.17l-35.78 10.31 38.66-12.77-2.88 2.46z"/><path fill="#89572e" d="M5.99 63.79l.45-1.14.51.41-.41 1.06v4.07l1.3 4.05 2.36 3.23 1.22.73-.85.25-.62-.37-2.55-3.49-1.41-4.39v-4.41z"/><path fill="#935d30" d="M211.98 0l3.18 1.91L16.31 60.08l-3.18-1.91L211.98 0z"/><path fill="#89572e" d="M7.1 60.98l.3-.75 2.55-2.01 3.18-.05 3.18 1.91 2.55 3.5 1.42 4.39v4.41l-.55 1.39-.77.23.77-1.95v-4.07l-1.3-4.06-2.36-3.22-2.94-1.77-2.93.05-2.36 1.85-.27.69-.47-.54z"/><path fill="#925d30" d="M18.86 63.58l-2.55-3.5L215.16 1.91l2.55 3.5L18.86 63.58z"/><path fill="#8d5a2f" d="M9.95 58.22L208.8.05l3.18-.05L13.13 58.17l-3.18.05z"/><path fill="#8e5a30" d="M248.33 68.84l.06.05.73.68.92.77.43-.09 1.14-.38.4-.88-.21-1.58-.4-.32 3.08-.88 1.79 3.56-47.53 14.17-2.03-4.04 41.62-11.93v.87z"/><path d="M251.4 67.09l.41.32L252 69l-1.31.39-1.51-1.18-.18-1.59 1.31-.39zm-1.82 1l1.07.84.92-.27-.15-1.11-1.07-.84-.92.27z" fill="#966031"/><path fill="#83532c" d="M250.04 70.34l-.92-.77-.73-.68 2.31.49-.66.96z"/><path fill="#734728" d="M252.01 68.99l-.4.88-1.14.38-.43.09.66-.96 1.31-.39z"/><path fill="#83532c" d="M250.7 69.38l-2.31-.49-.06-.05.86-.65 1.51 1.19z"/><path fill="#905b30" d="M249.19 68.19l-.86.65v-.1l.65-2.12.21 1.57z"/><path fill="#8f5b30" d="M248.98 66.62l-.65 2.12v-.77l-.23-.49-.06-.43.94-.43z"/><path fill="#925d30" d="M248.04 67.05l.06.43.23.49-41.62 11.93-2.94-2.77 48.12-13.36 2.59 2.44-3.08.88-1.11-.86-1.31.39-.94.43z"/><path fill="#915c30" d="M256.27 69.77l-1.79-3.56L298.65 53l.57 1.14-36.58 11.63 6.46-1.76 28.21-7.71 2.63-.72.74 1.47-44.41 12.72z"/><path fill="#a4702c" d="M297.31 56.3l-28.21 7.71 29.74-9.44-1.53 1.73z"/><path fill="#3f2e27" d="M269.1 64.01l-6.46 1.76 36.58-11.63-.38.43-29.74 9.44z"/><path fill="#955f31" d="M298.65 53l-44.17 13.21-2.59-2.44 43.82-13.54 2.94 2.77z"/><path fill="#88562e" d="M301.41 61.56L256.9 73.74l-.63-3.97 44.41-12.72.73 4.51z"/><path fill="#84542c" d="M141.66 107.59l-39.1 12.14-.72-4.51 39.17-11.69.65 4.06z"/><path fill="#f7c574" d="M95.39 116.7l2.2-2.64 1.2-1.45-3.02 1.94.97-5.45 2.71 2.57 1.88 3.73.67 4.17-6.77-1.98.16-.89z"/><path fill="#8e5a30" d="M141.01 103.53l-39.17 11.69-2.04-4.05 39.38-11.28 1.83 3.64z"/><path fill="#89572e" d="M96.74 109.1l.12-.7 2.94 2.77 2.04 4.05.72 4.51-.56-.16-.67-4.17-1.88-3.73-2.71-2.57z"/><path fill="#925d30" d="M139.18 99.89L99.8 111.17l-2.94-2.77 39.67-11 2.65 2.49z"/><path fill="#84542c" d="M256.27 69.77l.63 3.97-47.43 14.72-.73-4.52 47.53-14.17z"/><path fill="#87552d" d="M209.47 88.46l-67.81 19.13-.65-4.06 67.73-19.59.73 4.52z"/><path fill="#905c30" d="M208.74 83.94l-67.73 19.59-1.83-3.64 67.53-19.99 2.03 4.04z"/><path fill="#955e31" d="M206.71 79.9l-67.53 19.99-2.65-2.49 67.24-20.27 2.94 2.77z"/><path fill="#a4702c" d="M97.59 114.06l-1.82.49 3.02-1.94-1.2 1.45z"/><path fill="#ffda82" d="M69.73 60.24l-2.52-.1-.73-.81 1.77-.71 2.52.11.73.81-1.77.7z"/><path fill="#cfa360" d="M161.35 54.55l.35-.42 2.01-.75 1.65-.33-.35.42-2.01.75-1.65.33z"/><path fill="#89572e" d="M3.34 120.15l-1.12-.92L0 115.34l.49-.23 2.05 3.58 1.06.87-.26.59z"/><path fill="#3f2e27" d="M3.34 120.15l.26-.59 1.12-.32-.14.56-1.24.35z"/><path fill="#734728" d="M207.82 63.49l-2.83 1.38-35.26 9.66 2.46-1.2 35.63-9.84z"/><path fill="#945e30" d="M207.82 63.49l-35.63 9.84-.33-.58 35.58-9.93.38.67z"/><path fill="#734728" d="M111.09 92.34l-60.67 17.5 2.68-1.31 60.82-17.57-2.83 1.38z"/><path fill="#734728" d="M172.19 73.33l-2.46 1.2-58.64 17.81 2.83-1.38 58.27-17.63z"/><path fill="#f7c574" d="M.49 115.11l5.86-2.87 4.6 8.06-2.61 1.27-1.9-.36-.03-.51-.3-4.1-.73 4.41-.04-.01-.88-.73.12-.47.14-.56 1.42-5.48-2.54 5.8-1.06-.87-2.05-3.58z"/><path fill="#ad752f" d="M6.11 116.6l.3 4.1-1.03.31.73-4.41z"/><path fill="#8f5b30" d="M172.19 73.33l-58.27 17.63-.38-.67 58.32-17.54.33.58z"/><path fill="#ffd17c" d="M48.37 100.23l60.56-18 4.61 8.06-60.8 17.6-4.37-7.66z"/><path fill="#734728" d="M53.1 108.53l-2.68 1.31-41.91 12.51 2.82-1.38 41.77-12.44z"/><path fill="#905b30" d="M53.1 108.53l-41.77 12.44-.38-.67 41.79-12.41.36.64z"/><path fill="#89572e" d="M10.95 120.3l.38.67-2.82 1.38-2.01-.39-.04-.59-.02-.16 1.9.36 2.61-1.27z"/><path fill="#925c30" d="M53.1 108.53l-.36-.64 60.8-17.6.38.67-60.82 17.57z"/><path fill="#ffcc79" d="M113.54 90.29l-4.61-8.06 58.92-16.49 4.01 7.01-58.32 17.54z"/><path fill="#ffd47e" d="M171.86 72.75l-4.01-7.01 34.98-10.98 4.61 8.06-35.58 9.93z"/><path fill="#89572e" d="M5.25 121.73l-.96-.8.17-.66.88.73.04.01-.13.72z"/><path fill="#433029" d="M6.44 121.21l.02.16-1.21.36.13-.72 1.03-.31.03.51z"/><path fill="#ffce7a" d="M6.35 112.24l42.02-12.01 4.37 7.66-41.79 12.41-4.6-8.06z"/><path fill="#a4702c" d="M3.6 119.56l2.54-5.8-1.42 5.48-1.12.32z"/><path fill="#ffda81" d="M250.65 68.91l-1.07-.83-.15-1.11.92-.28 1.07.84.14 1.11-.91.27z"/><g style="mix-blend-mode:multiply" fill="#c8c6c1"><path d="M212 8a29.64 29.64 0 0 1 5.42-1.58c-1.17 1.21-2.29 2.69-4 3.14-9.72 2.7-19.37 5.62-29.09 8.34-1.47.36-2.88 1.07-4.42 1a2.77 2.77 0 0 1 1.72-1c2.17-.68 4.32-1.43 6.48-2.14C196.14 13.45 204 10.62 212 8z"/><path d="M211.47 16.15a54.17 54.17 0 0 1 7.14-1.91c-.06.49-.12 1-.14 1.52a12 12 0 0 1 3 1.88l-.57.67.79.52a10.87 10.87 0 0 1-1.15 1.52 26.6 26.6 0 0 1-3.78 1.18 18.4 18.4 0 0 1-3.39.84c-1.36-.75-2.31-2.09-3.74-2.7a4.58 4.58 0 0 0-3.39-.45Q141.61 38.12 77 57c-2.79.85-5.64 2-8.6 1.31a5.59 5.59 0 0 1 2.71-1.14z"/><path d="M215.48 35a3.62 3.62 0 0 1 3.27 2.44c.25 1.11-.83 1.75-1.71 2.09-3 1.19-6.1 1.79-9.11 2.8-12 3.52-24 7-36 10.54-1.85.6-3.83.84-5.51 1.85-1.4.92-3.14.72-4.7 1.12L23.61 96.24c-2.55.6-5 1.78-7.62 1.88a18.86 18.86 0 0 1-5.47-.65c-.65-.21-1.43-.31-1.77-.94 1.6.1 3.29.72 4.83-.12 1.51-.46 1.93-2.16 3-3.14a35.76 35.76 0 0 1 5-1.58zm-52 16.76a5.74 5.74 0 0 0-1.17 1.59c1.18-.28 2.35-.62 3.53-.94a7.29 7.29 0 0 1 0-1.37 6.22 6.22 0 0 0-2.36.71z"/><path d="M64.11 59.25c.42-.32 1.58-.09 1 .6a2.08 2.08 0 0 1-1.21 1c-13.57 4-27.16 7.94-40.73 11.94a33.4 33.4 0 0 1-3.29.86c-1.14-.44.17-1.66.9-1.73 14.46-4.24 28.9-8.42 43.33-12.67z"/><path d="M205.63 63.75c1.21-.51 1.92.9 2.56 1.67a19.92 19.92 0 0 1-2.32.81c-11.15 3.1-22.29 6.18-33.42 9.35C147.17 83 122 90.87 96.66 98.12c-12.1 3.54-24.24 7-36.33 10.55-13.92 4-27.75 8.22-41.65 12.26-1.88.59-3.78 1.1-5.64 1.72a8.26 8.26 0 0 1-5.9-.4c2-.45 3.7-1.47 5.62-2q20-5.93 39.93-11.89c15.55-4.46 31.08-9 46.63-13.45 15.15-4.33 30.22-9 45.3-13.52 6.61-2.08 13.28-3.94 19.88-6 13.62-4.2 27.44-7.69 41.13-11.64z"/></g></g></g></svg>