<svg xmlns="http://www.w3.org/2000/svg" viewBox="-4 -1.5 271.0000305175781 324.7853088378906"><title>Asset 1</title><g data-name="Layer 2"><g data-name="Layer 1"><path d="M176.66 256c.46-2.09.89-4.19 1.25-6.3.51-3-4-4.31-4.6-1.27-.6 3.25-1.31 6.47-2 9.69-1 4.31-2 8.62-2.77 13a2.43 2.43 0 0 0 .88 2.35 2 2 0 0 0 .55.36 2.26 2.26 0 0 0 2.58-.25 2.38 2.38 0 0 0 1-1.19c1.66-4.49 3.45-8.93 4.78-13.53a2.22 2.22 0 0 0-1.67-2.86z" fill="#727d8e"/><path d="M190.09 289.76a13.54 13.54 0 0 0-2.28-1.28c.17-.68.31-1.36.44-2a24.37 24.37 0 0 0 1.33-4.32l.13-.43c1.9-1.7 1.07-6.06-2.41-6.51a145.88 145.88 0 0 1-14.87-3.22 3.63 3.63 0 0 0-4.45 3.69 3.84 3.84 0 0 0-.08.66c-.13 6-3.26 12.12 1.35 17.28 3.76 4.21 11 4.73 16.2 4.73a8.85 8.85 0 0 0 6-1.72c2.43-2.03.72-5.43-1.36-6.88z" fill="#8e6d57"/><path d="M188.6 287.9c.67-3.38 1.33-6.77 2.1-10.13.29-1.29-1-1.71-1.91-2.21-5.91-3.14-13.09-1.9-19.43-3.31a.61.61 0 0 0-1-.08.62.62 0 0 0-.18.91c-.51 5.89-2.29 12.74.29 18.32 2 4.26 5.69 5.29 10.08 5.86 4 .52 8.87.9 12.49-1.15 4.18-2.38.03-6.54-2.44-8.21zm2.48 6.64c-.88 1-2.55 1.35-3.82 1.59a28.86 28.86 0 0 1-11.29-.52c-4.26-.93-6.4-3.13-7.29-7.58-1-4.76.17-9.78.62-14.57 5 1.09 10.14.91 15.14 1.92 1.68.34 5.43.85 4.86 3.11-.82 3.2-1.33 6.52-2 9.76a.63.63 0 0 0 .75.73c1.63 1.09 4.87 3.38 3.03 5.56z" fill="#7c6b60"/><path d="M198.68 222.37h-.75a2.61 2.61 0 0 0-3.64-2.45q-3.41 1.54-6.83 3c-16.07-13.58-34-24.78-50.09-38.35-9.14-7.71-18.43-15.26-27.59-23-2.57-2.16-7.59-8.18-11.72-8.17 0-.2-.09-.39-.13-.59-.74-3-5.35-1.72-4.6 1.27 4.25 17.13 5.77 34.74 8 52.2 2.38 18.72 4.58 37.48 7 56.19.22 1.69 2.35 3.33 3.84 1.93a2.5 2.5 0 0 0 .95-.27c15.82-8 32.88-13 49.61-18.73a2.23 2.23 0 0 0 1.32-.37l.35-.21c11.95-4.16 23.69-8.79 34.66-15.31a2.24 2.24 0 0 0 .92-3 2.36 2.36 0 0 0-1.3-4.14zm-34.85 17c0 .08.07.14.11.22-.64.38-1.27.77-1.9 1.16q-3.49 1.22-7 2.4z" fill="#8c8c8c"/><path d="M264.83 175.12a.67.67 0 0 0-.94-.5.57.57 0 0 0-.74-.34.61.61 0 0 0-.53.13c-6.3 5-12.43 9.77-19.6 13.65-7.87 4.26-16.12 7.77-24.22 11.54-9.39 4.36-19.07 8.07-28.54 12.26-3.7 1.64-7.5 2.92-11.25 4.43a13.69 13.69 0 0 0-6.6 4.79.53.53 0 0 0 .21.79c0 30.67-.3 61.35-.3 92a.54.54 0 0 0 .41.54.6.6 0 0 0 .49.35c2.24.24 4.42-1.06 6.31-2.1a84.34 84.34 0 0 1 10.27-4.88c8.76-3.39 17-7.72 25.41-11.89s17.13-8.16 25.54-12.56a184.23 184.23 0 0 0 23.5-15.2.62.62 0 0 0 .2-.27.54.54 0 0 0 .39-.54c0-14.39 1.18-28.78 1.66-43.16.5-16.35.44-32.78-1.67-49.04z" fill="#bcbcbc"/><path d="M264 173.61c-7-5.74-15.12-9.4-23.37-13-9.67-4.19-18.91-9.15-28.28-14-8.14-4.2-16.38-8.15-24.13-13a90 90 0 0 0-8.26-4.92l-.54-.39a2.91 2.91 0 0 0-3.68-2.62l-3 .82a12.57 12.57 0 0 0-1.85 0 2.9 2.9 0 0 0-2.22 1.16c-11.3 3.19-22.49 6.76-33.79 10q-10.09 2.87-20.14 5.92c-6.62 2-13.36 5.68-20.25 6.51-3.48.42-3.78 5.53-.8 6 3.8 5.85 10.55 9.35 16.29 13a3.16 3.16 0 0 0 .83.37c2.2 2 4.32 4.12 6.54 6 1.54 1.28 3.12 2.5 4.72 3.7q24.25 21.07 49.68 40.71a2.44 2.44 0 0 0 1.93.56 3.09 3.09 0 0 0 1.68-.26c25.18-11.4 50.23-23.05 74.9-35.51a2.93 2.93 0 0 0 1-.82c.34-.17.67-.35 1-.51h.09c2.65-.79 5.29-1.64 7.92-2.51a2.87 2.87 0 0 0 2.05-2.2c2.16-.62 3.79-3.25 1.68-5.01z" fill="#dbdbdb"/><path d="M214.91 133.13c-.37-9.9-1.93-19.72-2.3-29.63a1.19 1.19 0 0 0-2.35-.26c-17.34-5.81-33.17-15.19-50.37-21.35l-.17-.06-.21-.08c-1.25-.44-1.88 1.2-1.11 2 2.08 16.62 1.18 33.35 1.69 50.05a1.15 1.15 0 0 0-.21.19c-6.07 1.72-12.08 3.61-18 5.81-5.48 2-10.71 5.14-16.42 6.41a1.06 1.06 0 0 0-.57.34A1.17 1.17 0 0 0 124 148c1.94 8.13 12.46 13 19 16.79a76.93 76.93 0 0 1 11.76 8.45c3.28 2.84 6.76 6.22 11 7.53a1.06 1.06 0 0 0 .88-.08 1 1 0 0 0 .95.08c15.52-6.09 30.14-14.21 45.66-20.29a1.14 1.14 0 0 0 1.17-1.15c.06-8.76.82-17.45.49-26.2zm-2.84 23.06c-10.81-6-22.74-10.28-33.95-15.47-4.42-2-8.93-3.83-13.41-5.73-.56-.24-1.39-.72-2.25-1-.5-16.39.35-32.81-1.56-49.13 16.8 6.24 32.36 15.37 49.42 21 .44 8.37 1.49 16.69 2.07 25.06s-.1 16.82-.32 25.27z" fill="#43434c"/><path d="M200.67 155.13q-1.54.2-3 .47c-5.54-2.35-11-4.81-16.47-7.42l1.17-.24c.76-.14.43-1.29-.32-1.15s-1.75.35-2.63.53c-2-1-3.91-1.93-5.84-2.93h.13c.75-.16.43-1.31-.32-1.15l-1.48.31c-3.58-1.89-7.12-3.85-10.6-5.92a.6.6 0 0 0-.6 1c1 .61 2 1.19 3.08 1.78q-2.74.78-5.46 1.6l-2.09-1.13c-.68-.36-1.28.67-.6 1l1.08.59-4.58 1.43c-.63-.32-1.24-.65-1.88-1s-1.29.69-.6 1c.29.14.58.3.87.44l-4 1.27c-1-.71-1.92-1.42-2.86-2.14-.61-.47-1.2.57-.6 1s1.39 1 2.08 1.56l-5.79 1.97a27.18 27.18 0 0 1-2.13-1.95c-.54-.55-1.38.29-.84.84s1.08 1 1.64 1.52q-2.59.8-5.18 1.58c-.63-.51-1.26-1-1.88-1.56s-1.39.29-.84.84l1.22 1.22a.6.6 0 0 0 .55 1l.7-.21c1.55 1.23 3.13 2.41 4.74 3.56a78.08 78.08 0 0 0-3.21 1.83c-.66.4-.06 1.43.6 1 1.22-.74 2.46-1.43 3.71-2.1 1.77 1.24 3.58 2.43 5.4 3.6-.75.35-1.5.69-2.25 1s-.09 1.36.6 1c.94-.45 1.89-.88 2.83-1.32 2.14 1.35 4.3 2.67 6.47 4a.5.5 0 0 0 .55.4h.1l6.46 3.89-1 .32a.6.6 0 0 0 .32 1.15c.7-.21 1.4-.43 2.09-.65 2.56 1.56 5.1 3.13 7.6 4.77.65.42 1.24-.61.6-1l-.24-.15q2.35-1 4.78-1.95c.67.35 1.34.7 2 1s1.29-.69.6-1c-.37-.18-.71-.38-1.08-.57 1.85-.65 3.73-1.27 5.61-1.86l1.43.77c.68.36 1.28-.67.6-1l-.44-.24 5.79-1.76.61.34a.61.61 0 0 0 .83-.79c2.21-.68 4.42-1.36 6.6-2.13 1.51-.53 3.47-1.08 4.63-2.25.54-.55-.3-1.39-.84-.84a8.54 8.54 0 0 1-3.46 1.78.48.48 0 0 0-.3-.38c-2.06-1-4.09-2-6.12-3a83.65 83.65 0 0 1 8.27-2l1.56.67c.62.26.93-.59.53-1l1.12-.17c.73.02.74-1.2-.02-1.07zm-14.73-3.39a34.31 34.31 0 0 0-7 1.68q-3.09-1.68-6.16-3.38c2.13-.54 4.27-1 6.43-1.47 2.24 1.08 4.48 2.13 6.73 3.17zm-19.82.17q2.49-.76 5-1.43 3.17 1.76 6.35 3.49c-1.61.62-3.2 1.3-4.78 2-2.18-1.34-4.37-2.71-6.57-4.07zm5.29 4.69c-1.75.82-3.48 1.65-5.24 2.44a270 270 0 0 1-7.37-4.7q2.88-1 5.8-2c2.28 1.43 4.54 2.84 6.8 4.26zm-6.64-5.52c-1.85-1.12-3.7-2.24-5.57-3.31q2.41-.65 4.83-1.24l5.62 3.12q-2.46.67-4.89 1.43zm-1.51.48c-1.9.62-3.79 1.26-5.66 1.94-1.79-1.2-3.58-2.41-5.35-3.65q2.64-.87 5.33-1.63c1.9 1.08 3.79 2.21 5.67 3.34zm-7.08 2.44q-2.25.85-4.48 1.76c-2-1.18-4-2.31-6-3.5q2.56-1 5.19-1.95 2.6 1.89 5.29 3.69zm1.22.82c2.45 1.64 4.94 3.23 7.45 4.79a57.79 57.79 0 0 1-4.67 1.82l-4.59-3.21c-.84-.59-1.71-1.15-2.6-1.69 1.46-.53 2.93-1.15 4.41-1.69zm8.59 5.49q2.79 1.71 5.61 3.36-2.59 1-5.2 1.92-2.56-1.64-5.06-3.36c1.57-.56 3.11-1.23 4.66-1.91zm1.31-.6c1.74-.81 3.48-1.64 5.22-2.44q3 1.9 6.12 3.77c-1.87.68-3.73 1.38-5.59 2.08q-2.9-1.65-5.76-3.39zm6.53-3c1.64-.73 3.29-1.43 5-2q3.61 2 7.25 3.84c-2 .63-4 1.31-6 2q-3.15-1.91-6.26-3.86zm3.66-9q-3.12.68-6.2 1.48l-5.53-3.08c2-.47 4-.91 6-1.34 1.86 1.01 3.79 1.98 5.72 2.94zm-12.76-6.33a.55.55 0 0 0 .31-.22q2.5 1.41 5 2.76-2.93.64-5.87 1.35l-4.43-2.44q2.5-.75 4.98-1.45zm-6.55 1.93l4.33 2.38q-2.39.59-4.76 1.26c-1.36-.76-2.72-1.51-4.1-2.23zm-6.18 1.91c1.38.7 2.74 1.44 4.09 2.18q-2.55.75-5.07 1.59c-1.11-.8-2.23-1.59-3.33-2.41zm-5.68 1.78c1.11.82 2.23 1.63 3.35 2.44q-2.67.94-5.28 2c-1.34-.82-2.64-1.68-3.88-2.62zM134 150.9q2.59-.78 5.16-1.58a43.56 43.56 0 0 0 4 2.72q-2.36 1-4.65 2.21c-1.51-1.09-3.05-2.19-4.51-3.35zm5.63 4.12q2.35-1.19 4.78-2.22c2 1.18 4.06 2.3 6.05 3.5q-2.7 1.13-5.36 2.35c-1.85-1.19-3.68-2.38-5.48-3.65zm6.67 4.39c1.79-.81 3.59-1.59 5.41-2.34.51.32 1 .64 1.52 1 1.86 1.27 3.71 2.57 5.56 3.86a31 31 0 0 1-6.39 1.24c-2.06-1.26-4.1-2.5-6.11-3.77zm7.77 4.75a33.91 33.91 0 0 0 5.9-1.43q2.5 1.73 5 3.39c-1.63.58-3.26 1.14-4.9 1.67zm12.65 7.74q-2.61-1.68-5.27-3.3 2.42-.8 4.82-1.67 2.49 1.59 5.07 3c-1.58.63-3.12 1.27-4.63 1.96zm6.12-2.48c-1.76-.95-3.49-1.94-5.18-3q2.63-1 5.25-2 2.73 1.58 5.5 3.08c-1.88.62-3.74 1.24-5.58 1.91zM180 167c-1.89-1-3.78-2.05-5.64-3.12q2.78-1.05 5.56-2.07 2.91 1.75 5.88 3.41zm14.25-4.44l-.63.2c-2.06.7-4.15 1.33-6.24 2q-3-1.67-6-3.44c2-.72 4.09-1.41 6.16-2q3.31 1.68 6.7 3.26zm-6.58-4.56q-3.67-1.88-7.3-3.85a30.5 30.5 0 0 1 7.76-1.43c2.46 1.11 4.93 2.19 7.41 3.26-2.66.57-5.28 1.25-7.87 2.02z" fill="#4f4f59"/><path d="M89.77 306.19a3.86 3.86 0 0 0-1.19-2.11 2.38 2.38 0 0 0-4.62-.14 8.25 8.25 0 0 0-.35 3.15 4.81 4.81 0 0 0 2 3.52 2.34 2.34 0 0 0 2.89-.37 4.92 4.92 0 0 0 1.27-4.05z" fill="#43434c"/><path d="M123.25 301a2.38 2.38 0 0 0-4.39 1.28c0 1.81 0 3.67 1.12 5.18a2.44 2.44 0 0 0 3.75.48c2.07-1.86 2.27-5.84-.48-6.94z" fill="#43434c"/><path d="M88.62 292.57a2.38 2.38 0 0 0-4.18 2.26c0-.12 0-.11 0 0a2.38 2.38 0 0 0 4.62 1.17 4.91 4.91 0 0 0-.44-3.43z" fill="#43434c"/><path d="M119.69 289.65a2.41 2.41 0 0 0-2.39 2.35v1.19a2.39 2.39 0 1 0 4.77 0V292a2.41 2.41 0 0 0-2.38-2.35z" fill="#43434c"/><path d="M122.52 299a79.42 79.42 0 0 1-13-3.44c3.56-1.41 7-2.91 10.8-4 2.83-.85.39-3.77-2.41-2.92-3.92 1.18-7.58 2.72-11.3 4.18.08-6.39-1-12.74-1.55-19.12-.31-3.74-.31-7.5-.47-11.25-.14-3.45-.87-6.82-.08-10.27.48-2.14-4.12-3.05-4.6-.9-1.42 6.24 0 12.93.2 19.24.29 7.57 1.87 15.08 1.72 22.66-4.65-1.27-9.54-2.2-14.3-3.16-3-.6-4.23 2.67-1.27 3.27 4 .8 8 1.62 11.95 2.59A141.74 141.74 0 0 0 84.67 301c-2.56 1.19-.17 4.12 2.41 2.92a160.11 160.11 0 0 1 17.07-6.42l.5.15c5.47 1.77 10.69 3.69 16.6 4.6 3.01.51 4.28-2.75 1.27-3.25z" fill="#595963"/><path d="M138.2 235.2c-.93-3.73-6.69-2.15-5.75 1.59 1.69 6.76-13.27 8.8-17.21 9.31a121.51 121.51 0 0 1-20.59.53 52.62 52.62 0 0 1-11.55-2.14q-4.38-1.18-8.66-2.71a33.9 33.9 0 0 1-3.76-1.62c-.25-.13-.49-.29-.73-.43.79-2.39-1.63-5.41-4.18-3.62-11.53 8.09 21.13 16 26.15 16.35 9.85.6 19.83.51 29.54-1.36 7.54-1.46 19.15-6.24 16.74-15.9z" fill="#43434c"/><path d="M133.24 235.21a3.09 3.09 0 0 0-1.76-.25 9.57 9.57 0 0 0-2.58-1.43c-5.12-1.82-10.79-1.27-16.06-2.21-9.37-1.67-18.94-3.25-28.48-3.2l-.16-.09a29.36 29.36 0 0 0-8.45-1.74c-6.3-8.61-12.65-17.17-18.31-26.18a2.5 2.5 0 0 0-.1-1.33c-2-5.68-5.66-10.29-8.94-15.19a2.79 2.79 0 0 0 1.48-3.31c-.29-1.14-.56-2.3-.82-3.47a57.94 57.94 0 0 0 .57-10.19c2.2 4.3 4.48 8.56 7 12.68 2 3.29 6.89.41 5.15-3-4.35-8.55-8.2-17.33-12.53-25.89-2.66-5.25-5.19-11.56-9-16-3.27-3.82-6.68-3.08-10.79-.88-3.9 2.09-9.25 5.46-11.7 9.6a6.35 6.35 0 0 0-2.2 5.68 21.44 21.44 0 0 0 .88 4.32 34.12 34.12 0 0 0 3.14 8.38c4.17 8.36 8.83 16.57 13.23 24.82a469.59 469.59 0 0 0 29.67 47.91c-.82 3.76 1.85 7.39 5.26 9.42 5.56 3.31 13.14 3.6 19.42 4a156.49 156.49 0 0 0 27.09-.2l2.83-.32a62.15 62.15 0 0 0 7.77-.61c4.15-.65 17.45-7.28 8.39-11.32z" fill="#43434c"/><path d="M142 195.42a.49.49 0 0 1-.44-.09c-1.26-.91-2.54-1.8-3.76-2.75l-1.8-1.32c-5.44 1.93-10.75 4.3-16.52 5.05-7.52 1-7.62 12.92 0 11.94a56.06 56.06 0 0 0 10.72-2.7 5.33 5.33 0 0 0 3.9 1.5c2.81-.06 5.63-.34 8.44-.62 5.74.35 11.63 2.21 17 4-5.82-5.02-11.54-10.13-17.54-15.01z" fill="#727d8e"/><path d="M168.27 246.78a110.87 110.87 0 0 0 4.86-13.91c0-2.53-.08-5.07 0-7.6a9.75 9.75 0 0 0-.36-3.34c-1.4-1.29-2.81-2.57-4.19-3.88-5.63-4.59-11.08-9.4-16.57-14.16-13.4-3.74-28.88-.08-41.79 3.59-4.09 1.16-2.93 6.66 1 7 .63.06 1.27.09 1.9.11a3.5 3.5 0 0 0 .41.68c-.48.28-1 .56-1.43.89a3.87 3.87 0 0 0-1.37 4.66 25.46 25.46 0 0 0-3.11 1.6 3.71 3.71 0 0 0-1.3 4.85 3.82 3.82 0 0 0-.87 5.25c-.45-.09-.9-.19-1.34-.31-4.47-1.19-6.36 5.71-1.9 6.91 9.16 2.45 19-.55 28.2-1.27 6.24-.49 13.07-.82 19.12-3-5.33 16.39-11.52 32.5-16.81 48.9a92.63 92.63 0 0 0-3.3 10.45c-.1.39-.18.76-.23 1.12-.28 1-.56 1.94-.83 2.91-.67 2.45 1.18 4.27 3.45 4.53.36 0 .74.12 1.12.2a12.7 12.7 0 0 0 7.51 3.51c5.55.4 8.41-4.48 10.7-8.8 7.86-14.8 13.93-30.59 21.36-45.62 1.5-3.05-1.7-5.89-4.23-5.27z" fill="#828d9e"/><path d="M173.2 237.07c0-3.93-.19-7.87-.1-11.8.06-2.68-.25-4.48-2.6-6.17a15.24 15.24 0 0 1-1.67-1.43c-1.66.83-2.63 3.36-1 4.92 2.66 2.56 2.76 6.11 2.72 9.58a.49.49 0 0 0-.23.25c-2.08 4.53-2.06 9.41-2.36 14.27a17.23 17.23 0 0 1-.92 1.84.58.58 0 0 0 .48.87c-1.63 3.12 3.28 5.84 5.3 2.73l.15-.25c-.09-4.88.3-9.88.23-14.81z" fill="#828d9e"/><path d="M150.34 314.44a13.54 13.54 0 0 0-2.28-1.28c.17-.68.31-1.36.44-2a24.46 24.46 0 0 0 1.33-4.32l.13-.43c1.9-1.7 1.07-6.06-2.41-6.51a145.6 145.6 0 0 1-14.86-3.15 3.63 3.63 0 0 0-4.45 3.69 3.73 3.73 0 0 0-.08.66c-.13 6-3.26 12.12 1.35 17.28 3.76 4.21 11 4.73 16.2 4.73a8.84 8.84 0 0 0 6-1.72c2.43-2.1.72-5.5-1.37-6.95z" fill="#8e6d57"/><path d="M79.39 163.81c-4.89-4.93-9.43-10.19-14.32-15.12a1.79 1.79 0 0 0-2.53 2.53c4.89 4.93 9.43 10.19 14.32 15.12a1.79 1.79 0 0 0 2.53-2.53z" fill="#dbdbdb"/><path d="M141.76 141.76a2 2 0 0 1 .14-.31 65.65 65.65 0 0 0-14 2.28 75.29 75.29 0 0 0-17.85 6.27l-.18-.17c-7.13-7-15-14.47-24.29-17.88q-2.56-1.57-5.15-3.08c-4.72-2.76-9 3.41-6.24 7a4.71 4.71 0 0 0 .12.47c3.29 10.1 14.28 19.39 25.46 24 4.87 3.43 10.5 5.84 16.29 4.47A110.51 110.51 0 0 0 143.67 154c-2.05-3.69-2.99-8.46-1.91-12.24z" fill="#efe19e"/><path d="M118.9 193.62a22.69 22.69 0 0 1-2.79-.52 21.73 21.73 0 0 0-3.65-2.17 25.23 25.23 0 0 1-3.13-1.77 3.29 3.29 0 0 0-.61-.4q-.74-.51-1.46-1.07c-2.84-4.41-5.43-9-8-13.57a155.38 155.38 0 0 1-10-21.53c-2.28-6-3.89-12.14-7.57-17.48a3.69 3.69 0 0 0-2.91-1.57 2.9 2.9 0 0 0-1.88-1.41c-.07-.21-.14-.43-.22-.64a3.67 3.67 0 0 0-5.6-1.87 3.25 3.25 0 0 0-4.44-.35l-.17-.09c-1.13-1.87-4.09-2.47-5.62-.86l-1.59-.22a4.16 4.16 0 0 0-3.35.84c.31-2.41-1.43-5-4.22-3.82-7.42 3.12-7.21 13.82-7.39 20.62a155.35 155.35 0 0 0 3.82 38.78 94.81 94.81 0 0 0 15.23 34.54 57 57 0 0 0 11.85 12.23c4.95 3.71 10.2 5.44 15.64 8.09a3.6 3.6 0 0 0 2.42.3l.86.59a3 3 0 0 0 2.9.26 3.47 3.47 0 0 0 4.69-1.25c6.49-10.4 14.76-21.63 18.77-33.71a3.5 3.5 0 0 0 .71-2.28 46.36 46.36 0 0 0 1.17-5.16 3.67 3.67 0 0 0-3.46-4.51z" fill="#f9edaa"/><path d="M86 116.08a3.37 3.37 0 0 0-4.9-1.48 49.2 49.2 0 0 1-4.51 2.3h-.21c-7.34 1.92-14.51 4.15-22.11 3.51a2.86 2.86 0 0 0-2.2.68 3.46 3.46 0 0 0-3.6 0c-2.25-1.18-5.31-.06-4.94 3.46a19.64 19.64 0 0 0 .94 4.37c-.06.37-.11.74-.14 1.12a4 4 0 0 0 2.63 4c.49.14 1 .25 1.45.36a9.25 9.25 0 0 0 1.3.73c10.98 9.36 44.38-.28 36.29-19.05z" fill="#828d9e"/><path d="M105.06 87.34c7.22-26.13-8-53.91-28.93-69a10.57 10.57 0 0 0-11.83-.9 36 36 0 0 0-10 1.61c-7.7 1.17-15.18 4.91-22 9.83C20.94 37.13 14.46 48 12.4 61.7c-2.72 18.11 3.46 42.08 19.31 50.59A62.06 62.06 0 0 0 42 118.58c25.67 12.63 55.93-5.48 63.06-31.24z" fill="#f0e3da"/><path d="M117.77 23.56c1.88-2.51 1.27-6.73-2.21-7.7a30.16 30.16 0 0 0-3.17-.68 4.56 4.56 0 0 0-4.46-4.24h-2a5.21 5.21 0 0 0-4.46-4.21c-1.2-.18-2.41-.28-3.61-.35 0-2.48-1.56-4.95-4.5-4.92a59.07 59.07 0 0 0-9.88 1A5.1 5.1 0 0 0 78.56.37a78.46 78.46 0 0 0-22.47 7.15 3.81 3.81 0 0 0-4.74-1.62C41.6 9 33.07 15.33 25.7 22.59A61.85 61.85 0 0 0 7.47 39.93a4.65 4.65 0 0 0-3.75 3.2A41.79 41.79 0 0 0 2 66a4.51 4.51 0 0 0 2.32 3.26c.18.89.76 2.51.88 3.3.89 5.77 9.08 4.67 9.75-.66.1-.81.17-1.6.22-2.39a5.54 5.54 0 0 0 3.89-3.24 31 31 0 0 0 1.72-5 5.09 5.09 0 0 0 3.14-3.47 71.46 71.46 0 0 1 32.32-17.5c15.72-3.93 31.22.66 47 .92a4.87 4.87 0 0 0 4.15-2.09 33.77 33.77 0 0 1 6.67-2.66 5 5 0 0 0 3.57-3.87c3.52-1.74 4.5-7.7.14-9.04z" fill="#9e7d63"/><path d="M16.83 80.81a4.87 4.87 0 0 0 .63-1.19 4.73 4.73 0 0 0-.23-3.77 9.77 9.77 0 0 0-1.38-1.91A8.16 8.16 0 0 0 13.06 72a6.79 6.79 0 0 0-5.14.17c-2.27.8-3.85 3.1-4.73 5.22-1 2.4-.77 5.67 1.1 7.61 2.76 2.86 6.5 2.44 9.89 1.1a4.82 4.82 0 0 0 2.65-5.29z" fill="#f0e3da"/><path d="M11.15 81a10.67 10.67 0 0 1-1.38-1.61 18.68 18.68 0 0 1 1.95-2.14c.67-.61-.25-1.68-.92-1.07a19.06 19.06 0 0 0-1.91 2.07 7.24 7.24 0 0 0-.88-.9c-.7-.58-1.49.59-.8 1.16a6.18 6.18 0 0 1 .8.83c-.36.46-.72.93-1.09 1.38-.58.7.59 1.49 1.16.79.27-.34.54-.68.8-1a9 9 0 0 0 1.19 1.41c.68.62 1.75-.3 1.08-.92z" fill="#e2cec0"/><path d="M96.12 35a93 93 0 0 1-10.74-1.22c-.9-.12-1 1.28-.09 1.4A92.49 92.49 0 0 0 96 36.41c.94.02 1-1.41.12-1.41z" fill="#916b51"/><path d="M102.55 30.76c-2.1-.17-4.21-.21-6.3-.43-.9-.1-1 1.31-.09 1.4 2.09.22 4.2.26 6.3.43a.7.7 0 0 0 .09-1.4z" fill="#916b51"/><path d="M106.48 22.94a145.63 145.63 0 0 0-20.76 2.86.7.7 0 0 0 .28 1.37 143.18 143.18 0 0 1 20.4-2.83c.88-.06.99-1.46.08-1.4z" fill="#916b51"/><path d="M101.28 15.69c-5.3 0-10.47 1.14-15.71 1.87-.9.12-.62 1.51.28 1.38 5.15-.71 10.15-1.82 15.34-1.85.91 0 1-1.41.09-1.4z" fill="#916b51"/><path d="M89.79 9.2a61.33 61.33 0 0 1-7.12 2.4c-.87.23-.6 1.61.28 1.38a64.92 64.92 0 0 0 7.46-2.51c.84-.35.21-1.61-.62-1.27z" fill="#916b51"/><path d="M78.17 6.19c-7.27 3-14.52 6-21.46 9.74-.8.43-.18 1.69.62 1.26a235.35 235.35 0 0 1 21.46-9.74c.84-.34.21-1.6-.62-1.26z" fill="#916b51"/><path d="M78.87 16.66c-5.64 0-11 1.63-16.39 3.12-.87.24-.6 1.63.28 1.38 5.26-1.46 10.51-3.11 16-3.1.92.01 1.01-1.4.11-1.4z" fill="#916b51"/><path d="M72.38 27.58a63.74 63.74 0 0 0-13 1.82.7.7 0 0 0 .27 1.38A61.93 61.93 0 0 1 72.29 29c.91 0 1-1.43.09-1.42z" fill="#916b51"/><path d="M53.76 13.67a15.79 15.79 0 0 1-2.66 1c-.87.23-.6 1.62.27 1.38a18 18 0 0 0 3-1.07.7.7 0 0 0-.61-1.31z" fill="#916b51"/><path d="M54.2 24.38c-8 2.37-14.9 6.88-21.65 11.67-.74.53.19 1.59.92 1.07 6.55-4.65 13.24-9.06 21-11.36.87-.26.6-1.64-.27-1.38z" fill="#916b51"/><path d="M43.11 17.95a102.69 102.69 0 0 0-15.16 10.56.7.7 0 0 0 .92 1.06 100.76 100.76 0 0 1 14.86-10.36c.77-.46.16-1.73-.62-1.26z" fill="#916b51"/><path d="M42.18 37.23A46.23 46.23 0 0 0 30.54 44c-.72.55.2 1.61.92 1.07a44.83 44.83 0 0 1 11.34-6.58c.85-.31.2-1.57-.62-1.26z" fill="#916b51"/><path d="M72 62.7c1.43.37 3.67.41 4.24-1.32s-1.84-2.06-2.92-2c-.77 0-.69-1.18.07-1.19 2.08 0 4.51 1 4 3.5s-3.84 2.67-5.79 2.17c-.69-.22-.3-1.35.4-1.16z" fill="#e2cec0"/><path d="M105.14 59.19q.68 5.7 1.51 11.37v1.42c-.13 1.38-.29 2.75-.49 4.12a8.08 8.08 0 0 1-2.1-.41 8.43 8.43 0 0 1-5.18-10.62l.17-.48a8.4 8.4 0 0 1 6.09-5.4z" fill="#d6baa7"/><path d="M43.67 66.67c10.19 3.5 4.75 19.31-5.44 15.8s-4.75-19.3 5.44-15.8z" fill="#d6baa7"/><path d="M106.07 85.79a62.62 62.62 0 0 0-8.15-45.26c-.48-.76-1.75-.15-1.26.62 7.71 12.15 10.48 27.19 8.56 41.37-2 14.89-11.22 27.19-24.48 34.07-12.39 6.43-27 6.08-39.53.17-12.13-5.75-26.41-17-27-31.48a.71.71 0 0 0-1.21-.46c-3.21 4.73-7.87-1.16-8.74-4.63-.58-2.31.77-4.9 2.3-6.53 2.31-2.47 5.63-2 8.15-.25a.7.7 0 0 0 .79-1.16c-6-4.23-13.76.91-12.63 8.21C3.55 85 9.13 90.13 13 86.85c1.45 13.69 13.71 23.25 24.92 29.73a46.17 46.17 0 0 0 68.15-30.8z" fill="#e2cec0"/><path d="M93.45 45.51a14.66 14.66 0 0 1 5.4 3.29c1.1 1.08-.72 2.63-1.81 1.56a11.87 11.87 0 0 0-4.36-2.59 1.19 1.19 0 0 1 .77-2.26z" fill="#9e7d63"/><path d="M43 49.41A9.37 9.37 0 0 1 47.26 47c1.49-.4 1.95 1.94.47 2.34a7 7 0 0 0-3.12 1.84c-1.11 1.11-2.67-.7-1.61-1.77z" fill="#9e7d63"/><path d="M122.48 27.86c1.17-3.11-2.25-4.69-5.2-5.17a3.34 3.34 0 0 0 1.05-4.5c-1-1.88-3.5-2.65-5.95-2.76a2.19 2.19 0 0 0 0-1.95c-1.19-2.76-4.21-3-6.92-2.65a6.93 6.93 0 0 0 1-1.13.7.7 0 0 0-.18-1 16.51 16.51 0 0 0-9.18-1.87c1.35-1.21 1.9-2.83.08-4.6C94.16-.69 87.6.8 84.06 2.06c-2.61-3.56-8.51-1.63-12-.66-3.14.87-6.28 1.66-9.33 2.82-1.16.44-2.3 1-3.41 1.55-.55.27-4.38 2.47-3.7.39a.71.71 0 0 0-.62-.93c-8.71 0-16.46 6-23.08 11a140.54 140.54 0 0 0-24.14 23.2A11.31 11.31 0 0 1 7.34 38a.71.71 0 0 0-1.15-.39C-4 45.32.45 62 5 71.65A.7.7 0 0 0 6.3 71c-4.18-8.78-8.54-24.12 0-31.64a7.92 7.92 0 0 1 .46 1.68c.08.66.92.7 1.27.26a139.64 139.64 0 0 1 23.47-23c6.36-5 14.14-11.27 22.57-11.66-.52 3.48 4.47 1.06 6.39.1C64 5 67.83 4.08 71.63 3 74.45 2.17 81-.28 83 3a.71.71 0 0 0 .65.34.71.71 0 0 0 .73.14 22.63 22.63 0 0 1 6.86-1.28 10.8 10.8 0 0 1 3.76.38c5.47 1.58-.5 4.41-1.32 4.72s-.31 1.45.45 1.32c3.58-.61 7.17-.68 10.49.83l-1.82 1.36c-.79.26-.61 1.45.1 1.4a.6.6 0 0 0 .76.43 14.3 14.3 0 0 1 4.47-.54c2.47.11 3.38 2.47 2 3.41a10.3 10.3 0 0 0-1.89.4c-.72.23-.76 1.35.09 1.39a5.6 5.6 0 0 0 2.17-.37 13.33 13.33 0 0 1 3.74.27c1.39.29 3.13 1.07 3.22 2.81s-2.16 2.37-3.35 2.63a.7.7 0 0 0 .27 1.38l.33-.08a.69.69 0 0 0 .19 0 9 9 0 0 1 3.76.42c3 .92 2.71 4 .1 5.29-2.17 1-4.95 1.11-7.3 1.17a.7.7 0 0 0-.09 1.4c1 .07 2 .16 3 .3a7 7 0 0 1 2.38.72c1.28.7-2.51 2.27-2.63 2.3-2.85.75-5.92 0-8.82.42-.65.1-.79 1.21-.09 1.35-.17 0 4.13.91 2.63 1.76s-3.76.85-5.48.8-3.66-.24-5.49-.21c-8-3-16.64-3.22-25.08-2.63a102.67 102.67 0 0 0-24.49 4.35 58.19 58.19 0 0 0-18.88 10.27 58.23 58.23 0 0 0-8.3 8.62 20 20 0 0 0-3 4.41c-.31.69-.58 4.17-1.62 4.12a.71.71 0 0 0-.73.84c.17.55 1.29 3 .44 3.1s-.62 1.49.28 1.38c2.2-.27 1.51-2.34.94-3.95h.43a.71.71 0 0 0 .56-.65 19 19 0 0 1 4.62-9.36 55.47 55.47 0 0 1 9-8.77 57.69 57.69 0 0 1 19.53-9.51 100.25 100.25 0 0 1 20.23-3.35c8-.62 16.26-.55 24 2a.76.76 0 0 0 .81.66h1.22c4.12 0 9.4 1.41 12.69-1.43 1.08-.93.58-1.72-.36-2.33 3.69.09 8.47.08 9.18-3.11a2.06 2.06 0 0 0-1.34-2.56c2.39-.51 4.61-1.58 5.48-3.9z" fill="#916b51"/><path d="M50.06 54.49c-3.64-1.25-5.58 4.39-1.94 5.64s5.58-4.38 1.94-5.64z" fill="#7c6b60"/><path d="M92.88 49.87c-3.64-1.25-5.58 4.39-1.94 5.64s5.58-4.39 1.94-5.64z" fill="#7c6b60"/><path d="M77.91 70.83c-4.26 5.91-10.71 4.7-14.81-.66-.46-.6-1.5 0-1 .61 4.7 6.15 12.07 7.3 16.87.64.43-.63-.61-1.21-1.06-.59z" fill="#7c6b60"/><path d="M145.54 161.8a1.92 1.92 0 0 1-.28-.55c-12.56.89-24.94 5.35-36.31 10.61-3.58-3.27-8.42-6-11.56-8.2-7-5-16.05-11.05-23.92-16.61-2.68-1.89-6.9-4.72-10.4-3.65-3.29 1-5.68 4.45-4.52 8 2.56 7.79 11 15 17.11 20.1 6.87 5.73 16.32 11.57 25.77 13.2 9.73 3.79 20.59-.27 29.63-4.08 5.74-2.42 14.12-4.24 19.88-8.16-2.19-3.29-3.06-7.41-5.4-10.66z" fill="#fff4bb"/><path d="M159.52 142.86a14.21 14.21 0 0 0-6.86-2.21c-3.7-.25-7.34 2.34-10.64 3.61-.71.27-.4 1.43.32 1.15l.15-.06c-.36 2.05-.75 4.23-.06 6.21a.59.59 0 0 0 .55.41 7.53 7.53 0 0 0 3.82.17 12.84 12.84 0 0 0 4.2-.69 3 3 0 0 0 1.29-.68 1 1 0 0 0 .27-.44l.12.08a.6.6 0 0 0 .88-.36 4.76 4.76 0 0 0 .05-.5.55.55 0 0 0 0-.63v-.15c0-.05 1 .86 1.14 1a1 1 0 0 0 1 .13.67.67 0 0 0 .24 0l.25-.06a.59.59 0 0 0 .42-.42c.08-.41.27-2-.05-2.21a6.8 6.8 0 0 0 2.06.86.61.61 0 0 0 .73-.73c-.13-.59-1.29-2.1-.27-1.73.38.14 1 .3 1.35 0 1.06-1.09-.16-2.17-.96-2.75z" fill="#f0e3da"/><path d="M168 161.12h-.22a.49.49 0 0 0-.55-.13 20.24 20.24 0 0 1-4.47.74c1.56-1.13 3.34-2 4.6-3.48.37-.42 0-1.19-.58-1-1.87.6-3.68 1.43-5.5 2.16l-.4.17c.87-.89 1.74-1.78 2.6-2.68.52-.55 2-2.3.45-2.62a3.21 3.21 0 0 0-1.82.53c-1.36.65-2.67 1.48-4 2.21a34.94 34.94 0 0 0-3.43 2.08 20.32 20.32 0 0 0 1.32-2.4c.43-.95-.28-1.55-1.2-1.29-1.68.48-3.11 2.2-4.35 3.3s-3.74 2.57-4.26 4.39a.55.55 0 0 0 .06.47c.1 2.53 2.25 4.74 3.58 6.78-.42.4-.11 1.27.52 1a17.82 17.82 0 0 1 3-.45l.64-.15a.52.52 0 0 0 .36 0c.28-.1.56-.18.85-.28s.71-.21 1.07-.33c1.52-.42 3.07-.74 4.62-1.1 1.73-.4 4.27-1 5.59-2.28 1.78-1.78.23-2.48-1.46-2.53a8.19 8.19 0 0 0 2.42-1.87.62.62 0 0 0 .31-.13c.72.02.96-.98.25-1.11z" fill="#f0e3da"/><path d="M169.8 160.52a12.82 12.82 0 0 0-4.36.21 12.85 12.85 0 0 0 3.52-3.51.6.6 0 0 0-.52-.9 11.16 11.16 0 0 0-4.11.7 8.78 8.78 0 0 0 1.41-3.23c.06-.34-.16-.81-.58-.76a17.19 17.19 0 0 0-8.37 4 4.76 4.76 0 0 0 .31-2.25.61.61 0 0 0-.76-.58c-4.67.65-7.25 5.23-10.41 8.21a.59.59 0 0 0-.15.22c-.49-.4-1.19.37-.75.92 2 2.54 2.9 5.69 4.38 8.53a.6.6 0 0 0 .67.28c3.78-1 7.68-1.46 11.44-2.55 2.8-.81 6.68-2.14 7.48-5.33a.6.6 0 0 0-.58-.76c-.33 0-.66.07-1 .11a8.2 8.2 0 0 0 2.7-2.49.6.6 0 0 0-.32-.82zm-8.67 4.77c-.69.29-.45 1.35.32 1.15a42 42 0 0 1 6.1-1.37c-1.83 3.55-8.85 4.36-12.15 5-1 .2-5 1.4-5.33.69-1.28-2.46-2.09-5-3.66-7.32a.55.55 0 0 0 .38-.16c2.82-2.66 5.19-6.77 9.13-7.75-.21 2.49-2.73 4.17-4.1 6.14-.4.57.47 1.19.94.72 3.13-3.09 7.07-7.08 11.58-8a10.52 10.52 0 0 1-2.64 3.94 27.18 27.18 0 0 0-3.51 2.66c-.53.46.15 1.26.72.94a17.32 17.32 0 0 0 3.58-2.68 11.26 11.26 0 0 1 4.74-1.66c-1.93 2.3-4.85 3.68-7.43 5.1-.69.38-.09 1.33.6 1 2.54-1.11 5.27-2.19 8.08-2.1-1.89 2.01-4.89 2.66-7.36 3.7z" fill="#e2cec0"/><path d="M159.9 141.94c-5.47-4.76-13.52-1.83-18.44 2a.5.5 0 0 0 .08.85c-.7 2.58.29 5.62.35 8.23a.6.6 0 0 0 1.19 0c3.3.06 6.71.43 9.55-1.58a.59.59 0 0 0 .25-.48c.45.18.9.37 1.37.54s.87-.45.67-.88l-.13-.27a6 6 0 0 0 2.89.57.6.6 0 0 0 .58-.76 8.75 8.75 0 0 0-.78-1.73 6.94 6.94 0 0 0 2.88.4.6.6 0 0 0 .52-.9l-.34-.56a1.82 1.82 0 0 0 1.27-.5c1.55-1.31-1.03-4.17-1.91-4.93zm-1.1 2.94c-.1-.1-.22-.19-.33-.29l-.12-.1c-.58-.43-1.13.45-.72.94a10.14 10.14 0 0 0 1 1 13 13 0 0 1 .76 1.21 6.42 6.42 0 0 1-3.89-1.9.6.6 0 0 0-.84.84 11 11 0 0 1 2.21 3.12 6.35 6.35 0 0 1-4.06-2.48.6.6 0 0 0-.84.84 6.33 6.33 0 0 1 1.32 1.77 8.46 8.46 0 0 0-4.64-.68c-.76.13-.44 1.28.32 1.15a5.85 5.85 0 0 1 2.87.25c-2.63 1.7-5.77 1.31-8.78 1.27-.25-2.31-.93-4.88-.23-7a.52.52 0 0 0 0-.36 17.4 17.4 0 0 1 9.17-3.76 12.37 12.37 0 0 1 5.7 1.3 7.67 7.67 0 0 1 2 1.33c1.98 1.73.21 2.3-.91 1.55z" fill="#e2cec0"/><path d="M86.18 150.83a7.26 7.26 0 0 1-2.45 1.17.6.6 0 0 0 .32 1.15 8.16 8.16 0 0 0 2.73-1.25c.62-.49.02-1.52-.6-1.07z" fill="#e8d885"/><path d="M78.89 174.6c-2.94 3.26-7.66 4.45-11.58 6.1-5.27 2.23-10.07 5.85-16 5.66-.77 0-.77 1.17 0 1.19 5.86.19 10.92-3.1 16-5.54 4.18-2 9.24-3 12.46-6.57.48-.57-.36-1.44-.88-.84z" fill="#e8d885"/><path d="M84.78 178.08c-2.33 1.05-4.13 2.79-6.18 4.28a74.11 74.11 0 0 1-8.52 5.07c-5.33 2.86-10.82 5.36-16.78 6.51-.76.14-.43 1.3.32 1.15 5.8-1.11 10.81-3.57 16.07-6.12a94.77 94.77 0 0 0 8.74-5.08c2.4-1.5 4.36-3.6 7-4.78.66-.31.05-1.34-.65-1.03z" fill="#e8d885"/><path d="M150.85 173.33c-2.18-3.9-3.71-8.09-5.57-12.14-.24-.52-.87-.32-1 .11-5.62 0-11.15 1.55-16.46 3.27-6.24 2-12.59 5.4-19.27 5.28-4.48-.08-7.78-2.87-11-5.55q-2.93-2.43-5.87-4.84a.63.63 0 0 0 .35-.85c-.5-1.09-1-2.2-1.41-3.32 2.58 3 6.88 4.79 10.33 6.55a30 30 0 0 0 12.24 3c4.7.24 9.38-1.31 13.73-2.88a135.88 135.88 0 0 1 15.67-5.1.6.6 0 0 0 .44-.58c.24-4.83-1.43-9.5-1-14.32 0-.49-.42-.66-.78-.53a.61.61 0 0 0-.21-.07 24.72 24.72 0 0 0-2.61-.14.6.6 0 0 0-.47 0c-9.65.09-18.53 5.42-27.79 7.68a.6.6 0 0 0-.37-.19c-4.13-.47-23.53-21.88-26.38-17.61-.43.64.61 1.24 1 .6.54-.82 6 3.61 11.69 8.3a.56.56 0 0 0-.45.39c-1.39 4.18-4.91 7.62-5.39 12.1-.08.76 1.11.76 1.19 0 .46-4.28 4-7.75 5.35-11.78a.51.51 0 0 0 0-.12c1.32 1.08 2.64 2.16 3.92 3.18a.6.6 0 0 0-.73.56c-.17 4.39-3.06 7.81-4.55 11.78-.27.72.88 1 1.15.32 1.55-4.12 4.42-7.53 4.6-12.1a.58.58 0 0 0 0-.22c3.9 3.11 7.29 5.62 8.58 5.78a.55.55 0 0 0 .57.18 67.3 67.3 0 0 0 6.67-2.05c1.53 4.79.61 9.69.54 14.61a.53.53 0 0 0 .48.56 28.57 28.57 0 0 1-5.93.3.59.59 0 0 0 .26-.3c1.54-4 2.51-9.06 1.39-13.25a.6.6 0 0 0-1.15.32c1.07 4 .08 8.82-1.39 12.61a.47.47 0 0 0 .13.56 28.86 28.86 0 0 1-5.56-1 34.78 34.78 0 0 1-7.5-3.48c-2.45-1.38-5.11-2.48-7-4.7-.36-.43-.9-.09-1 .35-1.51-3.84-2.79-7.8-4.19-11.67-.28-.77-.56-1.65-.87-2.56a.47.47 0 0 0 .47-.19c1-1.19 1.62-2.59 2.59-3.78.48-.59-.36-1.44-.84-.84-1 1.18-1.62 2.57-2.57 3.76a19.65 19.65 0 0 0-1.81-3.94.65.65 0 0 0-.42-.58 7 7 0 0 0-1.12-1.23c-.59-.48-1.44.36-.84.84a6.58 6.58 0 0 1 .87.89c-2.28 1.56-4.24 3.47-6.91 4.41-3.06 1.08-6.52 1-9.72.84-6.52-.24-13.47-.47-19.56-3a39.33 39.33 0 0 1 .88-4.3.6.6 0 0 0-1.09-.46l-.18.33a.57.57 0 0 0 0 .48c-1.28 5.22-1.36 10.93-1.49 16.25a104.66 104.66 0 0 0 1.43 19.57 152.13 152.13 0 0 0 4.58 19c1.52 5.08 2.37 10.67 5.06 15.3a.6.6 0 0 0 1-.6 22.59 22.59 0 0 1-1.23-2.51c5.93-.25 11.75-3.21 17-5.75 3.49-1.7 7-3.51 10.33-5.44s5.7-5.33 9.13-7.17c.68-.36.08-1.39-.6-1-2.89 1.55-4.68 4.35-7.4 6.12-3.12 2-6.52 3.65-9.82 5.36-5.75 3-12.44 6.63-19.08 6.73-1.37-3.66-2.1-7.65-3.23-11.33-.81-2.64-1.54-5.3-2.21-8a.62.62 0 0 0 .24 0c9.09-1.94 16.88-7.36 25.76-9.89a98.13 98.13 0 0 0 10.72 7.5 84.6 84.6 0 0 0 6.72 3.65.62.62 0 0 0 .22.11c.93.45 1.87.88 2.82 1.28a.6.6 0 0 0-.28.13c-6 5.25-11.29 11.16-17.59 16-5.3 4.09-11.66 9.26-18.43 10.09-.75.1-.76 1.29 0 1.19 6.74-.86 12.33-5.45 17.67-9.29 7-5 12.72-11.48 19.16-17.15a.5.5 0 0 0 .08-.7 51.31 51.31 0 0 0 6.28 2.12h-.12c-7.46 4.21-12.47 11.38-18.56 17.19C77.72 207.6 71 215.29 63 215.6a.59.59 0 0 0-.56.71.45.45 0 0 0-.23.49c.58 4.31 5.2 8.07 8.21 10.78a57.24 57.24 0 0 0 17.49 10.69c.72.28 1-.87.32-1.15l-.44-.18c6.68-4.48 11-11.79 15.52-18.24a146.13 146.13 0 0 0 8.35-13.37c1-1.76 2-3.51 2.79-5.34.75-1.65 1.33-3.63 2.5-5a.6.6 0 0 0 .13-.32l.44.19a147.93 147.93 0 0 1-9.3 22.45c-4 7.54-8.65 14.7-12.5 22.31a.55.55 0 0 0 0 .15c-.11-.06-.23-.1-.34-.17-.66-.41-1.25.63-.6 1a8.34 8.34 0 0 0 5.74 1.07.49.49 0 0 0 .29-.1.46.46 0 0 0 .19-.25c4.36-8.23 10.8-15.19 15-23.5a59.57 59.57 0 0 0 4-11.2c1-3.56 2.28-7.42 2.57-11.1 0-.55-.55-.69-.92-.46 0 0 .1-.07.14-.11.54-.55-.31-1.4-.84-.84-1.2 1.23-6.7-2.38-7.79-3-1.36-.78-5.77-2.78-6.13-4.49a.51.51 0 0 0-.31-.38 31.72 31.72 0 0 0 8.94 0c6.22-.9 12-3.77 17.78-6.1a161.7 161.7 0 0 1 17.14-5.94.6.6 0 0 0 .27-.87zM122.71 146c1.32 4.73-.12 9.71 0 14.52a.6.6 0 0 0 1.19 0c-.1-4.95 1.36-10 0-14.88 1.35-.48 2.7-.94 4.06-1.35-1.73 4.05.66 10 .76 14.09a.6.6 0 0 0 1.19 0 50.82 50.82 0 0 0-.67-5.91c-.33-2.35-1.21-5.89 0-8.11a.57.57 0 0 0 0-.46c1.07-.29 2.14-.56 3.22-.77 0 4.73.79 9.38 1.39 14.06.1.75 1.29.76 1.19 0-.62-4.75-1.45-9.47-1.39-14.27a29.78 29.78 0 0 1 3.87-.38c-.65 4.27.42 8.57.5 12.85a.6.6 0 0 0 1.19 0c-.08-4.27-1.23-8.61-.5-12.87.68 0 1.37.05 2.06.12a31.76 31.76 0 0 0 .47 6.67c.25 1.67.49 3.33.59 5 .11 1.89-1.17 1.85-2.68 2.3-5.53 1.66-10.87 3.82-16.37 5.57a32 32 0 0 1-4.39 1.06.55.55 0 0 0 .33-.51c.08-5.07 1-10.09-.6-15zm-1.23 49.15a.59.59 0 0 0-.19.39c-.31 3.88-1.77 8-2.78 11.73A56.05 56.05 0 0 1 114 219c-4 7.55-9.9 14-14 21.55a7 7 0 0 1-3.3-.34c3.85-7.61 8.46-14.8 12.5-22.31a142.93 142.93 0 0 0 9.39-22.65 3.34 3.34 0 0 0 2.89-.13zm-35.25-48.32c1.42 4 2.78 8 4.51 11.91l-1.55-1.26c-3.18-2.53-6.44-5.06-9.88-7.33 2.43-.32 4.29-1.93 6.52-2.8a.61.61 0 0 0 .4-.52zm-2.63-7.71c.77 2 1.33 4.13 1.95 5.79.17.45.32.9.48 1.35a.47.47 0 0 0-.51-.07c-2.08.81-4 2.46-6.21 2.76a.67.67 0 0 0-.54.85c-1-.68-2.11-1.34-3.19-2a80.9 80.9 0 0 0 8.6-3.35c.7-.32.09-1.35-.6-1a79.67 79.67 0 0 1-9.2 3.55.66.66 0 0 0-.18.1c-1.27-.68-2.56-1.33-3.89-1.9 4.48 0 10.13-3.08 13.2-6a.56.56 0 0 0 .09-.08zM65 159.92c-.26-.28-.5-.58-.75-.87a.59.59 0 0 0 .47-.39 14.49 14.49 0 0 1 8.73-8.33c.73-.23.42-1.38-.32-1.15a15.75 15.75 0 0 0-9.55 9.12q-.69-.83-1.34-1.68c1.52-3.49 3.76-7.18 7.36-8.73.71-.3.1-1.33-.6-1-3.61 1.55-6 5.17-7.58 8.68-1.59-2.21-3.5-5.4-2-7.86a.6.6 0 0 0 .07-.2c3.16-4.8 9.56-1.74 13.78.52 1.8 1 3.56 2 5.27 3.16h-.1c-5.24 2-8.87 5.84-11.86 10.47-.32-.34-.66-.66-1-1 .24-.43-.04-.92-.58-.74zm-19.78-21.15c6.21 2.49 13.11 2.71 19.71 3a31 31 0 0 0 10-.88c2.84-.8 4.91-3 7.28-4.59a14.52 14.52 0 0 1 1 1.94.55.55 0 0 0-.57.13c-3.06 2.87-8.82 5.89-13.11 5.6a.53.53 0 0 0-.55.69c-3.13-1.13-6.36-1.44-8.74.32a.46.46 0 0 0-.61-.19c-4.62 2-10.05-.7-14.6-1.79a.69.69 0 0 0-.21 0c.12-1.42.18-2.83.4-4.23zm-.43 5.41c4.4 1.06 9.58 3.44 14.17 2.14a8.33 8.33 0 0 0-.84 1.35.59.59 0 0 0-.06.32c0 .11-.05.21-.09.32a.59.59 0 0 0-.5-.12c-4.16.85-8.37 1.85-12.61 1a.55.55 0 0 0-.21 0c.02-1.66.06-3.33.14-5.02zm-.16 6.8v-.63c4.43.87 8.78-.12 13.13-1a7.89 7.89 0 0 0 .81 3.85 24.47 24.47 0 0 1-13.72 1.56.63.63 0 0 0-.18 0c-.02-1.27-.05-2.53-.04-3.76zm.07 5a25.75 25.75 0 0 0 14.3-1.67.55.55 0 0 0 .12-.08 33.46 33.46 0 0 0 4.73 6.15c-5.68 2.08-12.32 3.41-18.18 1.73a.53.53 0 0 0-.52.12c-.22-2.1-.37-4.23-.45-6.3zM48.32 179a.57.57 0 0 0-.19.08q-1.08-4.42-1.9-8.91-.64-3.49-1-7a.55.55 0 0 0 .12.06c6.24 1.79 13.39.32 19.37-1.94l.32.34c1 1.11 2.1 2.18 3.2 3.23-6.26 3.34-13.46 7.38-20.78 6.17-.75-.12-1.08 1-.32 1.15 7.79 1.29 15.31-2.89 21.95-6.42 1.33 1.25 2.72 2.45 4.13 3.62-8.51 2.62-16.1 7.77-24.9 9.62zm58.41 9.31h.08c.35.3.73.56 1 .78l.21.15a.56.56 0 0 0-.2.22 4.34 4.34 0 0 1-.7 1.07.56.56 0 0 0 0 .08.5.5 0 0 0-.08.12.52.52 0 0 0 0 .08.67.67 0 0 0 0 .13c0 2.16-2.85 5.21-4.1 6.86a150.86 150.86 0 0 1-9.46 12c-3.33 3.58-6.62 7.17-10.13 10.57-2.58 2.5-4.87 6.42-8.31 7.78-.71.28-.4 1.44.32 1.15 3.2-1.27 5.33-4.39 7.58-6.85 3.69-4 7.73-7.73 11.39-11.8a138.36 138.36 0 0 0 9.64-12.26c1.36-1.91 4-4.71 4.22-7.22a5.71 5.71 0 0 0 .75-1.14.66.66 0 0 0 .06-.21c1.06.73 2.14 1.42 3.24 2.07-4.28 7.31-8.81 14.47-13.68 21.41s-10.88 13-16.22 19.57c-.48.59.36 1.44.84.84 5.19-6.38 10.87-12.34 15.78-18.95a243 243 0 0 0 14.3-22.27l.34.2c.54.3 1.47.87 2.52 1.42-1.78 2.18-2.47 5.19-3.84 7.64-2.58 4.58-5.08 9.16-8 13.54-4.86 7.28-10 16-17.45 20.86a.58.58 0 0 0-.21.24 57 57 0 0 1-14.36-8.87c-3-2.52-8.24-6.62-8.8-10.75 7.29-.49 13.47-6.7 18.45-11.45 6.64-6.33 12.38-14.46 20.46-19a.57.57 0 0 0 .1-.92 39.77 39.77 0 0 0 4 .82.61.61 0 0 0-.59.74 1.67 1.67 0 0 0 .17.42c-1.88.75-3.08 3.55-4 5.09-2.45 4.14-6 7.85-9.23 11.43A83 83 0 0 1 81 214.71c-.93.71-11.65 8.41-11.68 8.35-.43-.63-1.47 0-1 .6l.2.3a.61.61 0 0 0 .67.28C73 223 76.63 219.36 79.86 217a82.7 82.7 0 0 0 10.74-9.09 151.75 151.75 0 0 0 10.07-11.65 33.83 33.83 0 0 0 2.66-3.8c.76-1.26 1.8-3.81 3.4-4.13zm3-3.4a.48.48 0 0 0 .27.38 36 36 0 0 1-4.83-.6.61.61 0 0 0 .08-.64c-1.89-4.29 2.67-8.41 2.67-12.63a.6.6 0 0 0-1.19 0c0 4.52-4.48 8.38-2.57 13.06a46.46 46.46 0 0 1-4.61-1.27c-.48-4.64 3.1-8.37 4.76-12.42.29-.71-.86-1-1.15-.32-1.66 4.06-5.1 7.71-4.84 12.32-1.82-.65-3.6-1.39-5.34-2.2 1.67-4.57 4.57-7.9 8-11.33a.6.6 0 0 0-.84-.84c-3.53 3.53-6.48 7-8.23 11.66-.89-.43-1.78-.87-2.64-1.32l-.45-.25c1.37-3.7 4.4-10.15 8.72-10.87.76-.13.44-1.28-.32-1.15-4.7.79-7.91 7.35-9.45 11.44a82.63 82.63 0 0 1-5-3c3-3.73 5-9.29 10-10.66a.6.6 0 0 0-.32-1.15c-5.44 1.48-7.38 7.21-10.69 11.15-1.36-.92-2.71-1.86-4-2.84l.07-.07a72.76 72.76 0 0 1 4.52-6.41c1.49-1.84 3.7-4.52 6.3-4.43.77 0 .77-1.17 0-1.19-2.63-.09-4.74 2.09-6.37 3.88a56.63 56.63 0 0 0-5.45 7.51c-.4-.31-.81-.6-1.21-.92a.61.61 0 0 0-.66-.9l-.33.09q-1.65-1.35-3.23-2.77c3.29-4 6.46-9.47 12-10.3.76-.11.44-1.26-.32-1.15-5.84.86-9.15 6.42-12.59 10.64-.7-.64-1.41-1.28-2.09-1.94-.31-.3-.6-.62-.91-.93 2.85-4.47 6.3-8.23 11.33-10.2a.64.64 0 0 0 .38-.77c4.59 3.07 8.92 6.59 13.16 10.07 5.17 4.25 9.86 9.3 17 9.43h.77c.63 4.6-1.13 9.19-.35 13.86zm.69.4a.64.64 0 0 0 .46-.72c-.76-4.58.92-9.08.46-13.64a23.61 23.61 0 0 0 3.35-.59c-.83 4.48-1.41 10.29.68 14.48a.53.53 0 0 0 .21.22 29.52 29.52 0 0 1-5.12.27zm11-1.73a25.71 25.71 0 0 1-5.22 1.4.59.59 0 0 0 .15-.73c-1.92-3.87-1.3-9.55-.54-13.67a.59.59 0 0 0-.12-.49c1.11-.31 2.22-.68 3.32-1.08-.06 4.61-.75 10.39 2.37 14.17.49.59 1.33-.25.84-.84-2.93-3.55-2-9.42-2-13.7a.42.42 0 0 0 0-.06l3.4-1.3a.52.52 0 0 0 .11.32c.5 1.64.23 3.91.44 5.58.36 2.86.33 6.06 2.11 8.48q-2.35.99-4.77 1.93zm5.94-2.35a.53.53 0 0 0-.07-.16c-1.83-2.51-1.78-6.08-2.07-9.06-.15-1.51.1-3.61-.45-5a.5.5 0 0 0-.07-.11c.54-.2 1.09-.42 1.62-.6l2.24-.76c0 4.65-.46 10 2.47 14a.62.62 0 0 0 .23.19zm4.8-1.91a.49.49 0 0 0-.1-.43c-2.81-3.78-2.32-9-2.31-13.43a.55.55 0 0 0-.09-.3c1.17-.37 2.35-.73 3.54-1.06a.43.43 0 0 0 0 .07c1.87 4.27-.21 9.6 3.67 13.05a.57.57 0 0 0 .33.14q-2.43.97-4.95 1.97zm5.6-2.16a.52.52 0 0 0 0-.78c-3.55-3.16-1.78-8.52-3.4-12.57 1.52-.38 3.06-.7 4.6-.93a.58.58 0 0 0 0 .2 48.1 48.1 0 0 0 .59 7c.26 1.66.58 4 2 5.17.59.49 1.44-.35.84-.84-1.33-1.11-1.51-3.63-1.76-5.22a42.24 42.24 0 0 1-.46-6.09.56.56 0 0 0-.11-.33c.92-.11 1.84-.18 2.77-.22a.56.56 0 0 0-.47.55c-.07 3.48 1.48 6.69 1.59 10.15 0 .77 1.22.77 1.19 0-.12-3.46-1.67-6.68-1.59-10.15a.53.53 0 0 0-.48-.56h1.28a.5.5 0 0 0 .17 0c1.63 3.61 3.06 7.31 4.93 10.81-3.91 1.04-7.77 2.39-11.6 3.82z" fill="#e8d885"/><path d="M99.86 205.35c-2.16-1-4.86-1-7.19-1.12-4.34-.22-8.62-1-12.94-1.47-8.28-.84-23.35 0-25.49 10.22-1.54 7.34 6.66 16.55 12.76 21.78.42.61.82 1.23 1.18 1.85a2.51 2.51 0 0 0 .55.65c1.44 1.75 4.28.35 4.2-1.67a2.5 2.5 0 0 0-.89-2.85c-.44-.32-.92-.71-1.42-1.12-1.68-2.47-3.55-4.82-5.25-7.27a23.82 23.82 0 0 1-3.11-5.88c-1.43-4.24 3.22-5.46 6.37-6.24 6.23-1.55 13.12-1 19.45-.46 2.93.25 6 .42 8.66 1.81s.69 7.23-.21 9.28a2.63 2.63 0 0 0-.16.51c-1.75 2.66-4.07 5.19-5.44 8a27.76 27.76 0 0 0-2.78 12.72c0 2.61 4.26 3.37 4.69.63.08-.53.19-1 .29-1.57a2.33 2.33 0 0 0 .3-.82c1.08-6.42 5.25-11.71 8.39-17.44l.25-.31a2.52 2.52 0 0 0 .52-.91 11.5 11.5 0 0 0 1.41-3.27 22.4 22.4 0 0 0 1.44-5.68 9.32 9.32 0 0 0-5.58-9.37z" fill="#595963"/><path d="M101.57 203.76c-5.34-7-20.39-4.9-27.83-4.24-4.44.4-21.5 1.23-19.8 9.06a2.18 2.18 0 0 0 3.25 1.42c7.73-.15 15.41-1.37 23.14-1.17 6.89.18 13.88.93 20.38-1.84a2.37 2.37 0 0 0 .86-3.23z" fill="#6d6d7a"/><path d="M108.14 149.79a.6.6 0 0 0-1.15.32c.88 3.48-1.35 6.95-2.19 10.23a.6.6 0 0 0 1.15.32c.91-3.55 3.14-7.1 2.19-10.87z" fill="#e8d885"/><path d="M104.8 148c-.69 4.11-2.73 7.69-4.52 11.4-.33.69.7 1.3 1 .6 1.83-3.8 3.93-7.47 4.64-11.68.16-.75-.99-1.07-1.12-.32z" fill="#e8d885"/><path d="M90.34 136.92c-1 2.08-2 4.12-3 6.17-.34.69.69 1.29 1 .6 1-2 2-4.09 3-6.17.35-.69-.68-1.3-1-.6z" fill="#e8d885"/><path d="M85.9 115.71a.6.6 0 0 0-.84.84c1.15 1.16.71 4.45.67 5.93-.08 2.72-.52 5-2.41 7.12-1.73 1.91-4.23 3.14-6.47 4.33a37.06 37.06 0 0 1-8.68 3.57c-6.64 1.6-13.39.05-19.26-3.17a7.16 7.16 0 0 1-4-5.06c-.24-1.13-1.25-7.65 1.13-7.58.77 0 .77-1.17 0-1.19-4.6-.14-2.63 9-1.51 11.43 1.31 2.8 5.1 4.29 7.71 5.39a27.48 27.48 0 0 0 12.29 1.9A26.23 26.23 0 0 0 75.45 136c3.27-1.76 6.68-3.32 9.21-6.11 1.85-2 2.13-4.78 2.25-7.41.09-1.84.46-5.29-1.01-6.77z" fill="#697484"/><path d="M49.87 125.88c0 .36-.16 1.09-.58 1.22-.26.08-.4-.89-.42-1-.08-.76-1.27-.76-1.19 0 .1.93.49 2.32 1.69 2.21s1.58-1.44 1.69-2.41c.09-.78-1.06-.77-1.19-.02z" fill="#697484"/><path d="M59 130.1c-.26-.72-1.41-.41-1.15.32s.42 1.63-.35 1.86-.79-.69-.69-1.26c.14-.75-1-1.07-1.15-.32-.23 1.26.27 2.93 1.86 2.78s1.95-2.06 1.48-3.38z" fill="#697484"/><path d="M68.75 124.93c-.12-.76-1.27-.44-1.15.32a3.83 3.83 0 0 1-.31 2c-.26-.22-.31-.5-.31-1a.6.6 0 0 0-1.19 0 2.2 2.2 0 0 0 1.63 2.37.59.59 0 0 0 .67-.27 5.75 5.75 0 0 0 .66-3.42z" fill="#697484"/><path d="M79.31 125.68c-.05.63-.33 1.69-1.13 1.72s-.59-1.12-.48-1.56a.6.6 0 0 0-1.15-.32c-.32 1.3 0 2.91 1.56 3.07s2.3-1.67 2.4-2.91c.06-.77-1.13-.76-1.2 0z" fill="#697484"/><path d="M72 130.85c-.06.76-.36 1.6-1.25 1.57-.47 0-.9-.38-.76-.82.24-.73-.91-1-1.15-.32a1.89 1.89 0 0 0 1.83 2.32c1.63.14 2.42-1.34 2.53-2.76.01-.75-1.2-.75-1.2.01z" fill="#697484"/><path d="M83.09 119.71c0 .33-.15 1-.53 1.12-.1 0 0 0 0 0a.84.84 0 0 1 0-.52c.07-.77-1.12-.76-1.19 0s.37 1.82 1.34 1.72c1.13-.12 1.53-1.35 1.64-2.31.03-.77-1.17-.72-1.26-.01z" fill="#697484"/><path d="M59 124.86c-.23.19-.57.51-.88.53-.09 0-.26-.5-.31-.66-.22-.73-1.38-.42-1.15.32s.5 1.35 1.21 1.51 1.44-.42 2-.85-.28-1.33-.87-.85z" fill="#697484"/><path d="M150.41 234.76a.53.53 0 0 0-.63-.23c-4.13 1.19-8.67 1.44-12.94 1.92s-8.26.84-12.4 1.27c-4.35.45-9 1.47-13.54 1.69a.64.64 0 0 0 0-.28c-.52-3.25 0-6.52 0-9.79a.6.6 0 0 0-1.19 0c0 3.38-.52 6.74 0 10.1a23.78 23.78 0 0 1-6.63-.74.6.6 0 0 0-.32 1.15c6.94 1.89 14.63-.2 21.62-.95 4.5-.48 9-.89 13.52-1.4A87 87 0 0 0 149 236c-.64 1.87-1.58 3.55-2.32 5.39a76.4 76.4 0 0 0-2.7 8.53c-1.61 5.9-3.84 11.65-5.83 17.43-1.87 5.42-3.38 11-5.46 16.34-1.75 4.51-3.84 8.88-4.47 13.73-.1.76 1.1.75 1.19 0 .65-5 3-9.63 4.77-14.3 2-5 3.36-10.33 5.11-15.45 1.87-5.43 3.92-10.83 5.53-16.34.84-2.87 1.55-5.76 2.58-8.57.94-2.57 2.39-4.78 3.08-7.45a.55.55 0 0 0-.07-.55z" fill="#697484"/><path d="M170.65 252.25c-1.59 4.14-3.84 8.1-5.63 12.17-1.63 3.71-3.18 7.45-4.75 11.19a229.87 229.87 0 0 1-11.44 24.25.6.6 0 0 0 1 .6A224.57 224.57 0 0 0 161 276.93c1.82-4.31 3.62-8.62 5.49-12.9 1.68-3.84 3.81-7.55 5.31-11.46.28-.72-.87-1.03-1.15-.32z" fill="#697484"/><path d="M149 202.16c-8.81-3.81-18.4 1.29-27.36 1.71-.77 0-.77 1.23 0 1.19 8.66-.4 18.27-5.54 26.76-1.87.74.3 1.35-.73.6-1.03z" fill="#697484"/><path d="M148.86 312.58c.67-3.38 1.33-6.77 2.1-10.13.29-1.29-1-1.71-1.91-2.21-5.91-3.14-13.09-1.9-19.43-3.31a.61.61 0 0 0-1-.08.62.62 0 0 0-.18.91c-.51 5.89-2.29 12.74.29 18.32 2 4.26 5.69 5.29 10.08 5.86 4 .52 8.87.9 12.49-1.15 4.18-2.38.03-6.54-2.44-8.21zm2.48 6.64c-.88 1-2.55 1.35-3.82 1.59a28.86 28.86 0 0 1-11.29-.53c-4.26-.93-6.4-3.13-7.29-7.58-1-4.76.17-9.78.62-14.57 5 1.09 10.14.91 15.14 1.92 1.68.34 5.43.85 4.86 3.11-.82 3.21-1.33 6.52-2 9.76a.63.63 0 0 0 .75.73c1.63 1.1 4.87 3.35 3.03 5.57z" fill="#7c6b60"/><path d="M213.94 131.25c-.67-7.62-.59-15.87-2.11-23.34-1.26-6.23-10.12-8.05-15.16-9.78-11.58-4-22.69-9.25-33.89-14.16a1.24 1.24 0 0 0-1.34.2v-.07c-.61-1.41-2.67-.19-2.06 1.21 1.79 4.14 1.23 9 1.05 13.37a133.27 133.27 0 0 0 .5 13.68c.31 4.87.76 9.77.69 14.65 0 2.16-.38 5 .72 7 3.19 5.79 13.23 7.83 18.93 10a174.63 174.63 0 0 1 29 14.56 1.21 1.21 0 0 0 1.75-.71c3.34-8.36 2.68-17.86 1.92-26.61z"/><path d="M206.34 110.36a1.18 1.18 0 0 0-.59-1c-5.83-3.26-12.13-5.32-18.43-7.47-6-2.05-11.32-6.34-17.67-7.27a1.22 1.22 0 0 0-1.1.4 1.09 1.09 0 0 0-.71 1.05c-.08 13.34-1.4 26.65-.6 40a1.24 1.24 0 0 0 2.19.69c5.88 3.12 12 5.67 18.1 8.4 5.23 2.35 9.73 6 15.21 7.88a1 1 0 0 0 1.39-.74 1.28 1.28 0 0 0 1.87-1.32c-2.25-13.49-.35-27.12.34-40.62z" fill="#fff"/><path d="M205.75 117.23a.89.89 0 0 0 0-.1 1.22 1.22 0 0 0-.56-1.94l-.78-.26a1.08 1.08 0 0 0-1-.68h-.14a1.24 1.24 0 0 0-1.26-.17c-4.56-1.69-9-3.78-13.52-5.57-1.29-.52-2.6-1-3.9-1.4q-2.45-1.1-4.9-2.23c-2.58-1.19-5.89-3.48-8.83-4.19-.29-.14-.56-.28-.85-.41a1 1 0 0 0-.51-.08 1.19 1.19 0 0 0-1.89.93v2.37a18.46 18.46 0 0 0-.1 4.78c0 .56.15 1.22.23 1.89q0 1.23-.1 2.46v.12a1 1 0 0 0 0 .71v.2a1 1 0 0 0 .45 1 1.15 1.15 0 0 0 .73.79c11.62 4.43 21.27 13.17 33.72 15.52h.12c.08.1.16.2.24.29a1.2 1.2 0 0 0 2-.84v-.76a1.12 1.12 0 0 0 .25-1c-.06-.24-.09-.49-.13-.73 1.17-3.28.72-7.71.73-10.7z" fill="#828d9e"/><path d="M188.74 128.05a68.46 68.46 0 0 0-8.95-4.49c-2.62-1.19-6.18-2.26-8.24-4.37-.54-.55-1.38.29-.84.84 1.83 1.87 4.74 2.85 7.06 3.91a81.07 81.07 0 0 1 10.37 5.13c.65.43 1.24-.6.6-1.02z" fill="#828d9e"/><path d="M188 130.38c-5.7-2.29-10.91-5.71-16.71-7.76-.73-.26-1 .9-.32 1.15 5.8 2 11 5.47 16.71 7.76.72.29 1.02-.87.32-1.15z" fill="#828d9e"/><path d="M187.84 132.53c-5.13-2.62-10.69-4.24-15.82-6.86-.68-.35-1.29.68-.6 1 5.13 2.62 10.69 4.24 15.82 6.86.68.38 1.29-.65.6-1z" fill="#828d9e"/><path d="M185.46 134.91a41.7 41.7 0 0 0-14.46-5.73c-.75-.16-1.07 1-.32 1.15a40.7 40.7 0 0 1 14.18 5.61c.64.43 1.23-.6.6-1.03z" fill="#828d9e"/><path d="M173.46 97.88a3.43 3.43 0 0 0-2.34-1.25c-1.54-.07-1.53 2.31 0 2.39.13 0 .43.33.65.55a1.19 1.19 0 0 0 1.69-1.69z" fill="#828d9e"/><path d="M196.49 108.87v.3a1.19 1.19 0 0 0 2.39 0v-.3a1.19 1.19 0 0 0-2.39 0z" fill="#828d9e"/><path d="M201.27 109.47a1.19 1.19 0 0 0 0 2.39 1.19 1.19 0 0 0 0-2.39z" fill="#828d9e"/><path d="M204.55 110.36h-.3a1.19 1.19 0 0 0 0 2.39h.3a1.19 1.19 0 0 0 0-2.39z" fill="#828d9e"/><path d="M202.76 135.51a56.9 56.9 0 0 0-9.69-3.94.6.6 0 0 0-.32 1.15 55.09 55.09 0 0 1 9.41 3.82c.69.34 1.29-.69.6-1.03z" fill="#828d9e"/><path d="M201.73 136.94c-2.77-1-5.6-1.9-8.36-3-.72-.28-1 .87-.32 1.15 2.75 1.08 5.58 2 8.36 3 .72.27 1.03-.88.32-1.15z" fill="#828d9e"/><path d="M200.83 139.63c-1.26-.52-2.58-.9-3.88-1.3s-2.92-.68-3.91-1.53c-.58-.5-1.43.34-.84.84a9.5 9.5 0 0 0 3.26 1.46c1.69.56 3.41 1 5.06 1.68.71.29 1.01-.86.31-1.15z" fill="#828d9e"/><path d="M200.38 142.08c-3-1.44-6.21-2.28-9.25-3.58-.7-.3-1.31.73-.6 1 3 1.31 6.26 2.14 9.25 3.58.68.36 1.29-.67.6-1z" fill="#828d9e"/><path d="M197.09 143.79c-4.09-.42-8.54-2.87-12.23-4.51-4.25-1.87-8.46-4.18-12.79-5.8a1.2 1.2 0 0 0-1.16 2l.57.5a1.16 1.16 0 0 0 1.08.25c7.85 3.19 16 9.08 24.53 9.94 1.53.16 1.52-2.23 0-2.38z" fill="#828d9e"/><path d="M188.42 123.63a51.18 51.18 0 0 1-1.47-11.18.6.6 0 0 0-.9-.52 19.92 19.92 0 0 0-5.67 4.36 49.05 49.05 0 0 0-2.76-8.62.59.59 0 0 0-.82-.21c-2.71 1.91-5 4.32-7.58 6.36-.6.47.25 1.31.84.84 2.34-1.84 4.42-4 6.8-5.76a61.89 61.89 0 0 1 2.65 8.78.6.6 0 0 0 1 .26 18 18 0 0 1 5.29-4.48 53.61 53.61 0 0 0 1.46 10.54c.18.7 1.33.38 1.16-.37z" fill="#f9edaa"/><path d="M195.6 116.33c-3.85 0-3.85 6 0 6s3.85-6 0-6z" fill="#f9edaa"/><path d="M203.63 126a4 4 0 0 1-.06-2.52.64.64 0 0 0-.31-.84.51.51 0 0 0-.8-.28c-2.1 1.55-3.67 3.62-5.49 5.46-.54.55.3 1.39.84.84 1.5-1.52 2.83-3.21 4.45-4.6a5.84 5.84 0 0 0 .22 2.25c.23.76 1.38.45 1.15-.31z" fill="#f9edaa"/><path d="M208.55 197.86a2.44 2.44 0 0 0-2.94-1.67 45.8 45.8 0 0 1-6.92.31c-3.08 0-3.08 4.78 0 4.77a53.84 53.84 0 0 0 8.2-.48 2.39 2.39 0 0 0 1.66-2.93z" fill="#bcbcbc"/><path d="M217.06 185a3.48 3.48 0 0 0-1.74-2.74.74.74 0 0 0-.32-.26 3.74 3.74 0 0 0-4.13-1.91.64.64 0 0 0-.48.44h-.49c-.06-2-.2-3.9-.31-5.29a1.5 1.5 0 0 0-1.88-1.43c-.64.18-1.28.33-1.91.49a18.17 18.17 0 0 0-7.67.3 8.23 8.23 0 0 0-3.37 1.49.78.78 0 0 0-.21 1.08 1.46 1.46 0 0 0-.16.67c0 4.69.57 24.29 9.93 20.2 2.73-1.2 4.18-4.19 4.92-7.7a17.68 17.68 0 0 0 1.86-.33.68.68 0 0 0 .53 0 6.06 6.06 0 0 0 1.34-.6c2.21-.8 4.1-2.23 4.09-4.41zm-7.17-2.82a7.24 7.24 0 0 1 .81-.18 6.32 6.32 0 0 1 2.44.59 1.94 1.94 0 0 1 .16 1.47c-.38 1.89-2 3.17-3.71 4a45.4 45.4 0 0 0 .3-5.88z" fill="#fff"/><path d="M207.55 175.11l-.21.16a20.68 20.68 0 0 0-9 .69 16.94 16.94 0 0 0-2 .45.79.79 0 0 0-.52.8.75.75 0 0 0 .18 1.36 20.48 20.48 0 0 0 3.45.38 12.15 12.15 0 0 0 6.31-1 9.82 9.82 0 0 0 2.82-1.75c.72-.69-.33-1.73-1.03-1.09z" fill="#8e6d57"/><path d="M252.4 175.81a34.79 34.79 0 0 0-6.07.21 38.78 38.78 0 0 0-10.13 1.37h-.12a1.26 1.26 0 0 0-.6.24 14.77 14.77 0 0 0-2.39 1.11 1.2 1.2 0 0 0 .6 2.22c.53.06 1.06.09 1.6.12a.88.88 0 0 0 .47.23c5.17.7 10.11-.67 15-2.39h.08c.74-.27 1.48-.56 2.2-.87 1.14-.52.43-2.18-.64-2.24z" fill="#bcbcbc"/><path d="M258.07 151.15c1-4.53-1.07-7.84-7-8.58-3.58-.44-7.32-.06-10.92-.1s-7.77-.57-11.12.77a2.46 2.46 0 0 0-2.35 1.43c-5.42 11.44 1.84 36.41 17.37 34.64 6.51-.74 10.38-10.38 12.19-15.52 1.22-3.56 2.47-8.44 1.83-12.64z" fill="#f9edaa"/><path d="M254.35 144a25.7 25.7 0 0 0-4.25-.83c-6.42-2.21-14.13-1.5-20.31.67a1.93 1.93 0 0 0-1.26 2.34 2.29 2.29 0 0 0 2.15 2.57l.93.08c7 2.56 17.56 3.75 23.54-.79a2.4 2.4 0 0 0-.8-4.04z" fill="#7c6b60"/><path d="M261.09 122.74c-3.85-2.79-8.35-1.8-11.21 1.66a9.73 9.73 0 0 0-.83.55c-.58-5.72-2.55-10.49-7.17-11.74-6.72-1.82-10.41 5.16-11.46 10.5-1.5 7.64.25 16.35 2 23.81a2.34 2.34 0 0 0 2.84 1.77 1.88 1.88 0 0 0 1.7.68c2.4-.16 4.8-.17 7.2-.33a2.44 2.44 0 0 0 2.41-1.6 85.93 85.93 0 0 0 2.53-15.4 3.64 3.64 0 0 0 3.17.79 12.07 12.07 0 0 0 6.63-4 11.82 11.82 0 0 0 3.09-3.87 2.38 2.38 0 0 0-.9-2.82z" fill="#7a9b65"/><path d="M240.2 124.46a51.78 51.78 0 0 0-.51-5.26 1.94 1.94 0 0 0-.1-.41 6.16 6.16 0 0 0-.21-.81c-.65-1.93-4-2.89-4.6-.3l-.4 1.73a2.21 2.21 0 0 0-.13.22 24.71 24.71 0 0 0-.14 18.18c.81 2 3.7 1.57 4.37-.25a2.24 2.24 0 0 0 .47-.8 28.43 28.43 0 0 0 1.25-12.3z" fill="#8ead79"/><path d="M257.49 123.77a2.42 2.42 0 0 0-3.2-1.07 12.76 12.76 0 0 0-3 2.17 2.41 2.41 0 0 0-.22 3.37 2.19 2.19 0 0 0 .21.2c.05.07.1.16.16.23a2.41 2.41 0 0 0 3.37.22 15.79 15.79 0 0 0 1.28-1.36l.31-.35c.18-.19.36-.37.55-.55a2.41 2.41 0 0 0 .54-2.86z" fill="#8ead79"/><path d="M232 134.29a11.77 11.77 0 0 1-3.37-1c-.71-.29-1.1.84-.39 1.13a12.86 12.86 0 0 0 3.68 1.06.6.6 0 0 0 .08-1.19z" fill="#a8c691"/><path d="M231.45 129.16a6.6 6.6 0 0 0-2.63-1c-.77-.08-.84 1.11-.08 1.19a5.26 5.26 0 0 1 2 .85c.71.33 1.38-.66.71-1.04z" fill="#a8c691"/><path d="M231.89 122.41c-.75-.45-1.42-1-2.17-1.45-.31-.19-.69-.35-1-.07s-.17.76.09 1.07a.53.53 0 0 0 .54.18l.6.41c.42.29.83.59 1.28.85.65.39 1.32-.6.66-.99z" fill="#a8c691"/><path d="M235 117.42c-.43-.34-1.59-1.37-1.25-2.05s-.65-1.35-1-.67c-.72 1.44.49 2.85 1.57 3.71.62.48 1.28-.51.68-.99z" fill="#a8c691"/><path d="M238.49 113.1c0-.34-.08-.68-.11-1v-.4a.49.49 0 0 0 0-.72.66.66 0 0 0-1 0c-.21.27-.13.76-.11 1.07a24.94 24.94 0 0 1 .26 2.83.6.6 0 0 0 1.19.08 12.29 12.29 0 0 0-.23-1.86z" fill="#a8c691"/><path d="M239.9 121.54a8.71 8.71 0 0 0-2 5 .6.6 0 0 0 1.19.08 7.61 7.61 0 0 1 1.8-4.37c.49-.64-.51-1.25-.99-.71z" fill="#a8c691"/><path d="M243.59 126.17a6.39 6.39 0 0 1-1.2 1.15 2.83 2.83 0 0 1-.77.42c-.76 0-.85 1.21-.08 1.19 1.21 0 2.35-1.22 3-2.1.52-.6-.48-1.26-.95-.66z" fill="#a8c691"/><path d="M246.1 113.45c-1.21 1.08-2.78 2.63-2.43 4.41a.6.6 0 0 0 1.17-.24c-.25-1.28 1.21-2.52 2.05-3.27.57-.52-.22-1.41-.79-.9z" fill="#a8c691"/><path d="M243.79 138.73c-1.23.53-3 1.44-2.41 3.05.26.72 1.32.18 1.07-.53s1.5-1.29 1.87-1.45c.68-.31.18-1.38-.53-1.07z" fill="#a8c691"/><path d="M256.07 132.26a2.2 2.2 0 0 1-1.81-1 .6.6 0 0 0-1.07.53 3.39 3.39 0 0 0 2.8 1.67.6.6 0 0 0 .08-1.2z" fill="#a8c691"/><path d="M261.14 127.8c-.64 0-1.89 0-2.23-.64a.6.6 0 0 0-1.07.53c.59 1.18 2.07 1.23 3.22 1.3a.6.6 0 0 0 .08-1.19z" fill="#a8c691"/><path d="M258.72 121.84a8.82 8.82 0 0 1-2.36 1.35c-.71.3-.17 1.37.53 1.07a9.78 9.78 0 0 0 2.61-1.52c.59-.5-.2-1.4-.78-.9z" fill="#a8c691"/><path d="M255.77 116.59a7.93 7.93 0 0 0-1.19 5.17c.11.76 1.28.52 1.17-.24a6.58 6.58 0 0 1 1-4.26c.39-.67-.6-1.34-.98-.67z" fill="#a8c691"/><path d="M257.67 147.71a.67.67 0 0 0-.8-.59.58.58 0 0 0-1-.34c-3.36 3-8.59 4.09-12.92 4.74-4.12.62-11.31 1.16-13.75-3.16-.38-.67-1.45-.14-1.07.53 2.47 4.37 8.63 4.35 13 4 5-.37 11.38-1.68 15.32-5.09a54.69 54.69 0 0 1-1.59 16.2c-1.25 5.14-3.43 11.47-8.4 14.13-6.39 3.42-13.8-3.36-16.58-8.53a32.92 32.92 0 0 1-2.4-24.06c.23-.73-.9-1.12-1.13-.39-2.51 8-1.27 17.53 2.46 25 2.83 5.66 9.71 11.34 16.44 9.72 5.57-1.34 8.38-7.83 10-12.71a53.1 53.1 0 0 0 2.42-19.45z" fill="#e8d885"/></g></g></svg>