<svg xmlns="http://www.w3.org/2000/svg" viewBox="-2.4999923706054688 -18.39000701904297 3284.91015625 3068.919677734375"><title>Asset 1</title><g data-name="Layer 2"><g data-name="Layer 1"><path d="M2961.54 1825.78c-35.92 13.16-122.55 175.33-154.92 208-63 63.57-94.45 101.64-183.46 106-70.83 3.48-601.89 25.8-718.9-31.58-43-21.06-69.11-36.65-93.3-77.69-19.86-33.71-94.42-205-80-221.13 14.93-16.64 1230.58 16.4 1230.58 16.4z" fill="#d9a362"/><path d="M2904.36 1880.75c-70.29 64.36-174.77-5.67-249.39 33-67.64 35.1-169.08 119.43-196 192.29-30.1-7.08-53.57-63.09-85.17-79.69-40.31-21.16-92.6-26-136.66-34.53-69.06-13.34-165.44-16.57-224.79-60.58 10.89-7 20.46-17.58 22.12-30-51.85 15.94-121.12 15-174.8 13.15-25.56-.91-60.68-6.74-84.25-17-33.51-14.64-38.71-45.77-47.93-80.54-3.91-14.73-14.62-30.6-2.92-40.85 12.07-10.57 85.11 5.51 101.34 7 113.05 10.29 227.25-1.41 340.27-6.56 215.24-9.81 425 29.94 638.1 47.76 28.39 2.38 116.71 7.64 123.72 36.3z" fill="#a37a4a"/><path d="M1828.56 2056.36c416.93 153 922.39 31.38 922.39 31.38-7.51 93.78-851.07 115.35-922.39-31.38z" fill="#e1b581"/><path d="M1549.77 1591.38c19.88-45.42 98.93-144.83 155.69-147a151.89 151.89 0 0 1 29.78-54.56c75.5-87.86 212.14-62.94 217-63.42 53.67 19.3-27.66 161.47-42.43 198.54a73.35 73.35 0 0 1-7.59 14.22c73.68 5.16 147.32 6.2 209.26 43.37 32.88 19.73 126.6 87.9 141.55 126.38 1 2.67 1.27 6.22.69 10.47 62.85-39 137.37-112.92 206.57-104 38.31 4.93 52.68 86.65 89.28 97.77 34.91 10.6 64.64 2.68 101.92 1.14 22.57-.94 88.4-11.39 145.17-10.89-4.65-14-8.3-28.36-6.39-44.94 5.29-45.83 37.59-69.7 75.54-83.16 4.66-16.93 22.08-39.07 30.57-51.15 20.83-29.59 67-74.2 105.88-61.15l-8.16 8.16c85.61-8.8 157.9 141.74 158.35 221.43 81.33 110.92 68.19 261.86 48.56 295.9-30.22-28.28-48.94-65.47-84.59-89.37-39.47-26.46-72.68-28.34-118.24-32.3-38.65-3.37-79.9-12.29-115.77-8.77-22.51 2.21-78.51 16-101.11 17.71-65.72 5.05-84.41 9.4-102.78-1.7 0 0 8.26-4.87 20.61-12.85-12 4.09-22.71 8.36-31.32 13.12-44.36 24.49-81.45 58.8-126.38 83.7-24.22 13.41-40.72 21.05-56.17 45.73-12.74 20.36-13.5 48.59-36.9 60.83-22.75-72.53-121.35-103.75-188.22-109.75-80.15-7.19-162.16-22.28-232.06-63.91q10.94-12 22.23-23.44c-51.75 12.14-114.47 17.59-189.44 11.48-104.48-8.53-157-88.26-252.95-13.58-34.62-35.67-37.2-90.19-23.74-140-39.81-29.48-54.67-87.7-34.41-134.01z" fill="#8dc0b4"/><path d="M3061.58 1727.88c12.8-17.19 25.13-3.35 20.85 9 32-17 26.56 31.92-20.92 37-3.6-10.24-7.69-35.59.07-46z" fill="#f3d0b4"/><path d="M2398.79 1922.45c1.76-21.37 19.55-16.17 22.49-3.38 18.13-31.35 39.44 13 1.86 42.49-8.51-6.85-25.41-26.17-24.35-39.11z" fill="#f3d0b4"/><path d="M2880.32 1660.73c-7.39-20.12 10.93-22.89 19-12.52 3.27-36.09 41.27-4.77 19.57 37.76-10.63-2.63-34.09-13.07-38.57-25.24z" fill="#f3d0b4"/><path d="M2554.38 1842.46c12.8-17.2 25.13-3.35 20.85 9 32-17 26.55 31.94-20.92 37-3.6-10.24-7.68-35.59.07-46z" fill="#f3d0b4"/><path d="M2448.94 1761.84c-7.39-20.14 10.93-22.89 19-12.52 3.27-36.09 41.26-4.79 19.57 37.75-10.62-2.62-34.08-13.07-38.57-25.23z" fill="#f3d0b4"/><path d="M2917 1811.66c-16.78-13.34-2.56-25.24 9.7-20.56-16-32.52 32.75-25.55 36.36 22.07-10.44 3.27-35.9 6.57-46.06-1.51z" fill="#f3d0b4"/><path d="M2163.78 1882.43c-16.78-13.34-2.56-25.23 9.69-20.56-16-32.5 32.75-25.55 36.36 22.07-10.43 3.27-35.88 6.57-46.05-1.51z" fill="#f3d0b4"/><path d="M3129.31 1854.37c-1.94-21.34 16.48-19.27 21.57-7.19 12.47-34 41.09 6 9.16 41.52-9.57-5.26-29.54-21.39-30.73-34.33z" fill="#f3d0b4"/><path d="M2689.51 1827.42c-1.95-21.35 16.47-19.28 21.57-7.18 12.47-34 41.09 6 9.15 41.52-9.56-5.29-29.53-21.41-30.72-34.34z" fill="#f3d0b4"/><path d="M2318.65 1733.28c15.63-14.67 25.33 1.1 18.94 12.57 34.47-11.1 20.52 36.11-27.1 32.77-1.73-10.79-1.31-36.45 8.16-45.34z" fill="#f3d0b4"/><path d="M2307 1855.43c11.63-18 24.86-5.05 21.42 7.62 30.78-19.11 28.65 30.08-18.37 38.35-4.25-10.06-10.05-35.06-3.05-45.97z" fill="#f3d0b4"/><path d="M1820 1797.08c-1.94-21.34 16.48-19.27 21.57-7.19 12.46-34 41.09 6 9.16 41.52-9.55-5.26-29.52-21.41-30.73-34.33z" fill="#f3d0b4"/><path d="M1580.75 1618.48c-1.95-21.36 16.48-19.29 21.56-7.2 12.47-34 41.1 6 9.16 41.53-9.57-5.28-29.54-21.41-30.72-34.33z" fill="#f3d0b4"/><path d="M1741.62 1443.89c1.76-21.37 19.55-16.15 22.49-3.37 18.13-31.37 39.44 13 1.87 42.48-8.53-6.84-25.41-26.18-24.36-39.11z" fill="#f3d0b4"/><path d="M1727.38 1626.26c11.62-18 24.86-5.05 21.41 7.62 30.78-19.11 28.66 30.08-18.37 38.35-4.28-10.06-10.07-35.07-3.04-45.97z" fill="#f3d0b4"/><path d="M1973.4 1794.77c11.62-18 24.86-5.05 21.42 7.61 30.77-19.11 28.64 30.08-18.38 38.35-4.28-10.05-10.07-35.06-3.04-45.96z" fill="#f3d0b4"/><path d="M1870.61 1361.69c11.62-18 24.86-5 21.42 7.63 30.77-19.11 28.65 30.08-18.38 38.35-4.28-10.05-10.07-35.06-3.04-45.98z" fill="#f3d0b4"/><path d="M1631.34 1759.37c11.62-18 24.86-5 21.42 7.61 30.77-19.11 28.65 30.08-18.37 38.37-4.29-10.05-10.08-35.06-3.05-45.98z" fill="#f3d0b4"/><path d="M3073.75 1579.07c11.61-18 24.85-5 21.41 7.61 30.78-19.11 28.65 30.07-18.37 38.37-4.28-10.05-10.08-35.05-3.04-45.98z" fill="#f3d0b4"/><path d="M2786.4 1658.32c78.19-46.66 196.52-71.81 282.69-26.94-30.06-52-73.28-179.74-151.27-156.55-41 12.21-162.2 143-121.3 173.38z" fill="#6a9087"/><path d="M2255.61 1719c-39.28 14.86-89.49 89.5-126.38 91-30.41 1.24 63.87-67.07 27-60.66-155 27-316.78-16.84-326.9-168.49-2.7-40.55 20.22-131.43 57.29-139.86 54.63-12.42 63.62 155.68 120 178.31s119 20.41 178.3 23.9c32.27 1.88 112.54 30.21 70.78 65.72z" fill="#6a9087"/><path d="M2455.28 1643.16c10.62 4.24 5 37.59 14.33 52.24 53.92 84.24 171.88 91.87 223.27 89.17 43.27-2.26 86 25.53 128.91 7.77 74.09-30.64-5.49-80.25-40.51-100.53-66.65-38.6-133.87-70-209.22-88.48-50.75-12.43-110.24-28.55-111.72 34.77z" fill="#6a9087"/><path d="M2782.16 1653.07c24.51 8.21 62.17 43.76 72.67 69.32 18.76 45.65-16.65 81.19-43.24 49.32-7.28 33-45.7 21-54.62-4.08-43.1 16.66-85.42-37-76.93-77.87 8.07-38.76 102.12-36.69 102.12-36.69z" fill="#d9cdb8"/><path d="M2818.84 1086.39c-11.46 7.4-153.1-62.87-187.47-73.26-65.59-19.84-142.09-32.2-212.26-28.65-156.45 7.89-289.19 88.36-395.22 199.76-99.39 104.43-200.2 273.67-81.65 403.59 96.64 105.94 309.93 72.56 436.3 61.16 53.49-4.82 101.33-11.86 146.75-44.85 62.39-45.36 103.62-121.74 155-179.36 75.86-85 175.77-224.55 134.44-334.3z" fill="#ddd6ca"/><path d="M2974.7 1244.83c39.28 22.15 79.62 71.5 116.27 101.09 38 30.69 81.19 48.21 123.85 67 67.59 29.76 43.19 52.68-20.92 52.62-32 0-110.32 24.44-113.85-3.75-35.35 20.13-42.89 40.71-85.92 32.27-37.83-7.41-52.94-19.53-43.93-56.94 15.62-64.82 24.5-192.29 24.5-192.29z" fill="#f2efdf"/><path d="M2978.49 1329.92c6.57.1 12.26 11.15 18.87 16.95 10.37 9.08 24.55 16 36.74 22.18 19.61 9.9 40.28 17.56 60.29 27 15.72 7.37 32 10.55 47.55 16.43 21.49 8.09 17.29 20.36-3.29 25.32-13.66 3.29-29.81 4.36-43.89 5.06-18.22.89-23.9 10.63-42.09 13.1-77.55 10.49-96.57-72.39-87.67-92.31 4.69-10.49 12.27-33.65 20.22-33.69z" fill="#e3cbc3"/><path d="M1972.52 1239.75c135.22-165.55 228.34-191.56 228.34-191.56 74 27.36 153.55 59 185.84 140.33 27.63 69.6 22.55 170.59 12.34 245.29-5.39 39.39-72.72 193.32-25.48 191 28.54-1.41 93.14-47.37 109.53 1.68 13.09 39.17-80.89 3.37-227.62 92.24-6.37-20.56-18.45-41.27-37.37-52.35-21.93-12.83-45-11.28-67.3-.35a23.73 23.73 0 0 0-10.53 11.15q-3.1-2.6-6.31-4.87c-31.83-22.37-66-28-101.92-36.57-202.75-48.2-162.63-269.74-59.52-395.99z" fill="#f2efdf"/><path d="M2977.84 1363.61c48 40.13 174.6 77.49 237 49.3-24.28-19.2-54.22-23.85-80.89-40.45-30.53-19-183.25-156.7-183.25-156.7s21 129.48 27.15 147.85z" fill="#d2c8b8"/><path d="M2590.93 1050.19c62.3-53.65 211.61 15.82 211.61 15.82 73 24.85 134.21 89.6 166.24 159 33.76 73.15 26.1 130.33-2.26 203.84-22.22 57.56-33.46 151.09-90.29 187.52-17.68 11.33-38.7 10.62-56.48 21.4-18.5 11.24-32.15 31.07-49.83 43.71-29 20.76-64.11 37.94-97.84 50.05-61.54 22.1-149-13.84-192.64-65.14-48.9-57.52-36.19-133.63-39.64-204.94-6.8-141.09-24.96-259.6 151.13-411.26z" fill="#f2efdf"/><path d="M2700.63 1086.39c-53.25-56.42-69.45-133.12-65.23-187.53 2.57-33.13 9.7-65-5-97.84-23.2-51.83-49.58-47-68.52-4.08-27.38 62.14-76 96.28-101.55 162.27-11.66 30.11-23.56 94.33-16.65 127.19 4.38 20.81 22.63 27.05 28.82 44 5 13.66-3.66 28.65 2.69 45.65 23.85 63.82 122.23 27.88 153.22 5.55 27.9-20.06 92.72-73.48 72.22-95.21z" fill="#f2efdf"/><path d="M2595 843.61c8 2-8.17 92-5.77 133.53 2.21 38.41 23.52 100.28 53.48 126.28-3.22 6.46-4.28 7.86-11.69 8-25.69.42-20.63-37.63-37.53-44.06-13.83-5.25-33.65 1.1-40.15 33-3 14.61 2 48.28-21.29 43.32-7.78-1.65-24.3-34.69-28.41-60.51-20.72-130.17 37.18-253.02 91.36-239.56z" fill="#e3cbc3"/><path d="M2597.36 842.61c-.79.26-1.58.67-2.38 1-1.48-4.51 2.38-1 2.38-1z" fill="#d7816b"/><path d="M2588.6 1255.06c65.52-16.16 163.17 18.68 157.36 98.44-9.79 134.31-47.17 175.35-96.22 207.23-87.19 56.68-130-25.77-151.84-102-24.01-83.53-7.5-179.42 90.7-203.67z" fill="#c7baa6"/><path d="M2614.53 1714.1c-58.55 74.14-186.27-73.49-134-116.45 32.03-26.27 184.55 52.43 134 116.45z" fill="#e3cbc3"/><path d="M2604.41 1510.22c22.87-26.74-31.62-105.27 6.54-118 78.09-26 89.77 92.14 11.44 114-2.3 1.32-17.98 4-17.98 4z" fill="#73634f"/><path d="M2615.79 1677c-16.55-12.17-37.28 1.27-26.54 19.6 8.09 13.79 12.85 7.76 15.17 17.06 3.79 15.16-34.06 16.29-49.45 14.49 13.06 22.15 87 29.12 100.19 4.79 2.15-3.94-10.42-34.6-39.37-55.94z" fill="#403125"/><path d="M2481.09 1662.72c-13.24-28.92 26.07-36 9.36-25.35-11.68 7.45-9.36 25.35-9.36 25.35z" fill="#594432"/><path d="M2032.39 1171.91s33 10.47 51.34 22.36c142.21 92.37-21.62 405.76-135.08 340.31-70.38-40.61-66.76-56.73-59.1-109.66 22.04-152.23 142.84-253.01 142.84-253.01z" fill="#73634f"/><path d="M1885.79 1466.75c-56.24 56.84-37.87 169.07 22.2 215.63 52.64 40.79 159.55 53.46 221.24 33.62 73.08-23.52 143.29-66.51 167-146.86 32.15-109.17-87.16-123.85-139.84-50-36.55 51.23-97.58 104.26-175.41 85.25-62.06-15.14-76.49-71.56-95.19-137.64z" fill="#c7baa6"/><path d="M2569.42 1683.6a3.1 3.1 0 1 0 3-2.51 2.82 2.82 0 0 0-3 2.51z" fill="#393722"/><ellipse cx="2545.82" cy="1680.2" rx="2.51" ry="2.33" fill="#393722"/><ellipse cx="2553.87" cy="1693.97" rx="1.97" ry="1.78" fill="#393722"/><ellipse cx="2542.07" cy="1652.3" rx="2.32" ry="1.97" fill="#393722"/><path d="M2517.56 1666.26a2.15 2.15 0 1 0 2.15-2 2.07 2.07 0 0 0-2.15 2z" fill="#393722"/><path d="M2522.57 1689.86a2.52 2.52 0 1 0 2.51-2.33 2.43 2.43 0 0 0-2.51 2.33z" fill="#393722"/><path d="M2510.32 1647.25a2.17 2.17 0 1 0 2.15-2.51 2.34 2.34 0 0 0-2.15 2.51z" fill="#393722"/><path d="M2543.68 1630.12a2.15 2.15 0 1 0 2.14-2.33 2.24 2.24 0 0 0-2.14 2.33z" fill="#393722"/><path d="M2634.69 1715.49c19 20.76-7.56 32.34-17.13 25.71-2.46-1.7 5.88-15 6.12-15.85 1.38-4.75-3.47-9.27 1.49-13.64 1.19-1.06 7.83 1.97 9.52 3.78z" fill="#d9d6d4"/><path d="M2810.92 1774.24c5.27-4.44 8.86-11.76 10.5-19.47.78-3.87 1.06-21.83-8.62-25.15-6.11-2.12-11.31 7.3-3.76 15.19 4.04 4.19 4.57 23.19 1.88 29.43z" fill="#594432"/><path d="M2757 1767.62c6.81-2.31 13-9.72 14.7-18.35a26.16 26.16 0 0 0-.89-14c-1.67-4.87-5-10-11.12-8.64-5.45 1.25-14.14 7.32-3.43 17a11.56 11.56 0 0 1 4.25 5.76 19 19 0 0 1-3.51 18.23z" fill="#594432"/><path d="M2604.24 1387.67c-8.83 23-.25 49.52 5.43 72.37 3.25 13 13.94 33.54 6.1 46.59-3.83 6.38-13.7 4.92-12.76 3.4 9.2-14.87-2.13-47.47-5.76-62.84-13-54.95 7.79-61.65 7-59.52z" fill="#594432"/><path d="M2281.39 1248.18c28.16 42.48 84.66 58.2 125.79 41.75 6.19-46.9-24.68-164.48-115.14-200.46-.04 0-58.14 87.1-10.65 158.71z" fill="#73634f"/><path d="M2667.67 2811.71c-4.33 8.21-935.41-28-1003.72 12 31.24 198.79 391.05 171.63 540.73 173.29 191.22 2.07 394.62-5 482.9-205.15z" fill="#e1b581"/><path d="M2915.18 2935.54c-27.05-26.65-45-62.8-76.34-84.81a146.5 146.5 0 0 0-17.28-10.51c-15.44-7.89-30-11.43-45.59-13.25-11.88-1.39-24.32-1.79-38.1-2.35-32.55-1.36-67.63-8.12-97.44-2.75-18.7 3.38-64.73 20-83.53 22.92-54.7 8.46-70.07 13.76-86.14 3.63 0 0 6.62-5.29 16.46-13.89-9.77 4.71-18.49 9.52-25.4 14.71-35.61 26.74-64.53 62.91-100.61 90.11-19.45 14.63-32.77 23.12-44.18 48.55-9.41 21-8.3 49.21-27.13 62.63-23.53-71.22-108-97.25-164.33-99.78-67.53-3-137.11-13.83-198.19-51.76q8.4-12.58 17.15-24.53c-42.57 14.8-94.72 23.49-157.85 21.28-88-3.11-136.87-79.95-212.57-.43-31.18-33.81-36.71-88.09-28.52-138.46-35.17-27.34-51.23-84.68-37.13-131.95 13.83-46.36 73.86-149.69 121.22-154.83 3.88-19.81 10.69-38.75 21.56-56 57.75-91.61 173.67-73.82 177.75-74.55 46.11 16.48-13.16 162.6-23.24 200.36-1.44 5.4 819.37-39.48 825.72-52 15.6-30.61-47.12-56.09-13.77-45.1l92.29-12.86c71.12-13.23 140.93 133.28 146.23 212.78 74.94 106.51 73.28 257.85 58.96 292.84z" fill="#d7a085"/><path d="M2821.55 2840.22c-15.44-7.89-30-11.43-45.59-13.25-27.66-14.72-57.64-24-89.7-25.83-44.34-2.59-89.1 4.42-132.83 11-18.14 2.7-35.41-2.69-53.43-3.17-7.85-.22-17.13-.23-23.77 4.51a88.62 88.62 0 0 0-13.17 12.3c-10.16 11-19.25 23-29.75 33.7-9.25 9.44-19.84 15.79-31.87 21.1-23.25 10.26-48.23 16.24-71.18 27.14-23.41 11.1-41.64 27.38-50.22 52.42-1.8 5.24-8 8.64-13.13 5.39a287.54 287.54 0 0 0-70.24-32.37c-23.31-7-47.23-11.63-71.23-15.68a228.65 228.65 0 0 1-65.26-21.12c-20.55-10.26-40.11-22.38-60.6-32.75-14.29-7.22-29.06-13.72-44.71-17.42-17-4-34.56-3.24-51.83-1.5-36.36 3.64-72.24 11.36-108.88 6.39-66.9-9.06-140.54-47.23-205-8.38-6.93 4.17-15-2.61-13.17-10.09 6.38-26.39 1.58-50.74-11.55-74.15-11.24-20-25.69-39.05-31.48-61.66-6.29-24.54-5.16-52.85 7.9-75.09 11.81-20.13 30.69-34.13 49.61-47.13s39.24-25.78 53-44.67 22.44-40.51 31.17-62c9-22.13 18.34-44.29 33.34-63.12 16.13-20.25 37.91-33.79 62.39-41.48-.2.55-.43 1.09-.62 1.64a53 53 0 0 0-2.16 3.4 74.67 74.67 0 0 0-6 14.58c-.3 1-.55 2.07-.79 3.12-16.18 7.35-30.55 18.18-41.22 32.83-12.8 17.58-21.14 37.67-29.26 57.68-8.36 20.63-16.66 41.78-29.69 60-13.6 19-31.36 33-50.51 46.19-18 12.38-38.65 24.62-50.94 43.32-13.42 20.42-15.24 47-7.77 70.09 7.13 22 22.3 40.19 32.46 60.76 9.9 20 14.15 40.71 12.34 62.12 43.32-18.21 92.17-10.37 137.23.23 26 6.1 52.24 14.58 79.05 15.52s53.38-3.71 80-6.87c17.52-2.08 36.18-4.25 53.75-1.61 16.12 2.43 31.54 7.62 46.42 14.23 29.93 13.31 57.09 32 87 45.3 31.12 13.83 65.17 15.8 98 23.65 31.43 7.53 61.46 18.94 89.33 35.17a99.49 99.49 0 0 1 31.35-39c15.48-11.48 33.61-18.61 51.66-25s36.4-11.84 53.22-20.87c18.74-10.1 30.61-28.62 44.67-44.07 9.67-10.63 19.92-21.25 34.74-23.54 18.18-2.8 35.09 1.85 53.15 2.73 17.46.85 35.28-3.31 52.56-5.58 16.23-2.14 32.5-4.18 48.83-5.41 30.13-2.25 60.74-1.85 90.28 5.15 32.63 7.71 62.62 22.9 89.59 42.63 2.96 2.12 4.75 5.23 4.51 8.52z" fill="#8dc0b4"/><path d="M1782.4 2359.53c108.65-133.72 146.24 349.14 204 346.42 32.31-1.52 62.64-4 94.34 2.09 27.94 5.36 46.16 11.39 72.07 4 102.51-29.16 180.52-128.59 297.79-118.18 24.55 2.18 36.8-19.91 59.67-9.14 23.64 11.14 39.35 32.18 60.4 46.76 33.81 23.41 40.57-1.51 72.21-14.4 22.51-9.17 57.79 7 74.94-3.48 62.24-38-66.65-112-98.57-115.52-48.92-5.34-101.55 11-150 16.8-70.65 8.49-139.32 12-209.21 28.76-44.47 10.69-76 7.2-121 6.33-60.68-1.17-109.6 21.7-164.88 43.38-41.1 16.12-77.59 12.31-120.44 14.27-26.84 1.23 39.87 5.72 15.07 13.77-19.53 80.8-271.39-34.16-86.39-261.86z" fill="#a17864"/><path d="M2170.23 2431.16c2.46 6.13 7.59 10.85 14.26 11.83a19.82 19.82 0 0 0 9.6-1 13.52 13.52 0 1 0-9.42-25.35 5.29 5.29 0 0 1-.61.17l3.42-.78a6.58 6.58 0 0 1-1.65.16l3.45.11a5.64 5.64 0 0 1-1.25-.21l3.31 1a6.41 6.41 0 0 1-1-.43l3 1.82a4.82 4.82 0 0 1-.9-.74l2.49 2.63a6.51 6.51 0 0 1-.77-1.12l1.71 3.2c-.12-.24-.22-.47-.32-.72a13.69 13.69 0 0 0-17.39-8c-6.77 2.52-10.71 10.55-8 17.39z" fill="#403125"/><path d="M2155.07 2370.8c84.25-22.18 305.43-62 425.09 13.09 109 68.37 109.29 403.34 8.15 329.89-22.14-16.07-48.92-75.75-63.26-95.53-32.35-44.59-76-46.24-147.41-32.74-161.92 30.61-89.9 216.26-214.61 211.12-45.5-1.87-43.44-142.06-19-222.33 22.71-74.63 26.26-149.75 44.38-194z" fill="#efece6"/><path d="M2612.84 2427.15c8.4 2.22 30 8.75 38.46 11.79a267.71 267.71 0 0 1 25.37 10.51c16.68 8 33 18 47.76 31.18s27.66 29.55 36.11 48.31a140 140 0 0 1 12.24 58.32c-.39 36.32-8.53 69-16.14 99.77s-15.14 60.14-16.87 89.41a213.1 213.1 0 0 0-.24 21.84c.07 1.81.17 3.61.3 5.44s.27 3.47.46 5.24q.55 5.29 1.5 10.54a140.4 140.4 0 0 0 13.62 40.29c6.58 12.54 15.28 23.93 26 32.74a80 80 0 0 0 37.49 17.27 88.35 88.35 0 0 0 21.44 1 86.08 86.08 0 0 0 21.1-4.25c13.62-4.6 26.2-13.05 33.18-25.45a45.8 45.8 0 0 0 4.11-9.82 47.12 47.12 0 0 0 1.21-5.28 37.42 37.42 0 0 0 .51-5.26 42.76 42.76 0 0 0-5-21 35.68 35.68 0 0 0-6.52-8.78 22 22 0 0 0-9.1-5.52 15.21 15.21 0 0 0-10.43.72 24.58 24.58 0 0 0-8.79 7l-1.42-1.07a26.77 26.77 0 0 1 8.9-8.52 18.73 18.73 0 0 1 12.64-2.07 26.52 26.52 0 0 1 11.62 5.55 41 41 0 0 1 8.54 9.43 50.25 50.25 0 0 1 8.21 24 47 47 0 0 1 0 6.58 61.07 61.07 0 0 1-.82 6.41 56.5 56.5 0 0 1-3.85 12.47 62.79 62.79 0 0 1-15.47 21 84.28 84.28 0 0 1-21.76 14 102.47 102.47 0 0 1-24.73 7.53 108 108 0 0 1-25.9 1.32 102.63 102.63 0 0 1-49.74-17.31c-14.82-9.89-27-23.1-36.62-37.7a171.71 171.71 0 0 1-21.43-47.51q-1.78-6.3-3.11-12.73c-.44-2.13-.84-4.31-1.22-6.5s-.68-4.23-1-6.35a251.49 251.49 0 0 1-2.21-25.56c-1.26-34.15 4-67.21 8.62-98.37 2.32-15.6 4.51-30.83 5.76-45.61.63-7.4 1-14.68 1.1-21.82q.05-5.37-.12-10.62l-.11-2.62-.14-2.43-.18-2.86-.05-.74s0-.34 0 0v-.44l-.11-1.17a80.17 80.17 0 0 0-10.39-33.09 82.24 82.24 0 0 0-23.2-24.87 135.8 135.8 0 0 0-33.52-17.19 197.52 197.52 0 0 0-19.17-5.8c-6.6-1.64-13.19-3-20.25-4.1z" fill="#efece6"/><path d="M2230.1 2427.87c10-8 20.63-12.69 32.52-17.21 16.33-6.21 6.87-31.55-9.42-25.36-14 5.31-27.14 11.28-38.92 20.63-13.61 10.81 2.14 32.8 15.82 21.94z" fill="#fff"/><path d="M2321.47 2429.68a99.68 99.68 0 0 1 27.83-15.42c16.32-6.21 6.87-31.55-9.42-25.37-12.36 4.71-23.84 10.58-34.23 18.86-13.59 10.83 2.16 32.82 15.81 21.93z" fill="#fff"/><path d="M2238.2 2467.78l14.06-5.34a13.53 13.53 0 0 0-9.42-25.36l-14.07 5.34a13.53 13.53 0 0 0 9.42 25.36z" fill="#fff"/><path d="M2456.22 2437.95l2.35-.87c.91-.32 4.63-1.08.63-.31 1-.19 4.57.07 1-.24a13.56 13.56 0 0 1 1.92.36q-2.45-.75-.22.1a13.68 13.68 0 0 0 17.84-6.88c2.93-6.62-.07-15-6.89-17.85-8.83-3.68-17.26-3-26 .33a13.53 13.53 0 1 0 9.42 25.36z" fill="#fff"/><path d="M2571.88 2441.79l2.47.45c.95.18 4.53 1.42.7.06 1 .34 3.9 2.37 1 .28a16.15 16.15 0 0 1 1.47 1.28q-1.73-1.89-.24 0a13.68 13.68 0 0 0 18.87 3.14c5.88-4.21 7.56-13 3.13-18.87-5.74-7.66-13.35-11.34-22.6-12.94a13.53 13.53 0 0 0-4.77 26.63z" fill="#fff"/><path d="M2528.11 2432.51a13.38 13.38 0 0 0-13.17-2.25c-6.77 2.52-10.71 10.55-8 17.38 2.45 6.14 7.58 10.85 14.26 11.84a20 20 0 0 0 9.6-1 13.5 13.5 0 0 0-2.72-26z" fill="#fff"/><path d="M2451.86 2455.18a13.36 13.36 0 0 0-13.17-2.25c-6.77 2.52-10.71 10.54-8 17.38 2.46 6.14 7.59 10.85 14.26 11.84a19.92 19.92 0 0 0 9.6-1 13.5 13.5 0 0 0-2.72-26z" fill="#fff"/><path d="M2501.21 2401.72c8.83 3.67 17.25 3 26-.33a13.53 13.53 0 1 0-9.42-25.36c-.78.3-1.56.59-2.35.87s-4.63 1.08-.63.31c-1 .19-4.56-.07-1 .24a15.61 15.61 0 0 1-1.93-.35q2.46.74.22-.1a13.68 13.68 0 0 0-17.84 6.88c-2.93 6.62.08 15 6.88 17.84z" fill="#fff"/><path d="M2331.75 2478.3l9.38-3.56a13.53 13.53 0 0 0-9.42-25.36l-9.37 3.56a13.53 13.53 0 1 0 9.42 25.36z" fill="#fff"/><path d="M2278.54 2504.57l9.38-3.56a13.53 13.53 0 1 0-9.42-25.36l-9.37 3.56a13.53 13.53 0 0 0 9.42 25.37z" fill="#fff"/><path d="M2362.84 2378l18.75-7.12a13.53 13.53 0 1 0-9.42-25.36l-18.75 7.12a13.53 13.53 0 1 0 9.42 25.36z" fill="#fff"/><path d="M2414 2402l2.91-6.46a13.52 13.52 0 0 0-24.73-11l-2.91 6.47a13.52 13.52 0 1 0 24.73 11z" fill="#fff"/><path d="M2448.51 2377.63l4.68-1.77a13.52 13.52 0 0 0-9.41-25.36l-4.69 1.78a13.52 13.52 0 1 0 9.42 25.36z" fill="#fff"/><path d="M2285.41 2385.91l4.69-1.77a13.53 13.53 0 0 0-9.42-25.36l-4.69 1.78a13.53 13.53 0 1 0 9.42 25.36z" fill="#fff"/><path d="M2516.89 2507a5.89 5.89 0 0 1 1-.29l-3.42.78a5.44 5.44 0 0 1 .91-.1l-3.46-.11a5.37 5.37 0 0 1 1.21.19l-3.31-1a3.43 3.43 0 0 1 .71.33l-3-1.83a6.55 6.55 0 0 1 1 .75l-2.49-2.63a11.09 11.09 0 0 1 1.58 2.25l-1.71-3.2a42.49 42.49 0 0 1 1.89 4.45 13.53 13.53 0 0 0 25.36-9.42c-1.3-3.41-2.68-7.21-5.17-9.9a20.31 20.31 0 0 0-3.46-3.39 17.68 17.68 0 0 0-7-3.14c-3.23-.9-6.9-.17-10 .86-7 2.35-10.48 10.65-8 17.39a13.7 13.7 0 0 0 17.38 8z" fill="#fff"/><path d="M2564 2503.38a24.53 24.53 0 0 0 30.32 13.79c7-2.36 10.48-10.64 8-17.39a13.69 13.69 0 0 0-17.39-8 7.14 7.14 0 0 1-1.06.32l3.41-.78a12.43 12.43 0 0 1-2.25.21l3.46.11a13.33 13.33 0 0 1-2.86-.49l3.32 1a14.79 14.79 0 0 1-2.69-1.21l3 1.83a13.5 13.5 0 0 1-2.26-1.77l2.49 2.63a12 12 0 0 1-1.34-1.83l1.71 3.21a7.27 7.27 0 0 1-.47-1c-2.86-6.79-10.26-10.62-17.39-8-6.68 2.48-10.83 10.59-8 17.38z" fill="#fff"/><path d="M2626.46 2490.77c16.33-6.2 6.88-31.54-9.41-25.36-24.14 9.16-14.69 34.5 9.41 25.36z" fill="#fff"/><path d="M2208.44 2386.64q-3.12.55-.94.24 2.14-.07-.78-.14c1.54.06 3.09.28 4.62.42a31.37 31.37 0 0 0 12.94-1.17c7-2.25 10.45-10.73 8-17.4-2.66-7.15-10.37-10.21-17.39-8 2.08-.37 2.4-.45.94-.24q-2.14.08.78.14c-1.54-.06-3.08-.28-4.63-.42a31.25 31.25 0 0 0-12.93 1.16c-7 2.25-10.45 10.74-8 17.4 2.67 7.15 10.38 10.21 17.39 8z" fill="#fff"/><path d="M1959.86 2191s-12.68-32.83-51.65-76.25c-23 52.55-34.17 116-34.17 116-174.66 112.14-129.2 330.1-129.2 330.1s-21.46 45-42.82 103.52c67.68 4 97-31 97-31 117.25 115 388 65.23 412-198.54 14.26-156.87-64.92-252.59-220.61-247.72-14.75.53-14.27-1.7-30.55 3.89z" fill="#e5e0d5"/><path d="M1763.28 2478c3.35 1.63-2-1.62.67.36q1.75 1.54-.47-.72a14.79 14.79 0 0 1 1.08 1.38 15.91 15.91 0 0 1 .9 1.44c-1-2-1.23-2.29-.59-.94.46 1 .83 2.06 1.23 3.1a13.53 13.53 0 1 0 25.36-9.42c-3.4-8.94-8.45-15.69-17.22-19.94-6.63-3.21-14.95.31-17.85 6.88a13.71 13.71 0 0 0 6.88 17.84z" fill="#fff"/><path d="M1776.52 2414l6.47 2.91a13.53 13.53 0 0 0 11-24.73l-6.47-2.91a13.53 13.53 0 1 0-11 24.73z" fill="#fff"/><path d="M1828.43 2480.11l12.94 5.81a13.52 13.52 0 1 0 11-24.73l-12.93-5.82a13.53 13.53 0 0 0-11 24.73z" fill="#fff"/><path d="M1829 2378.35a24.53 24.53 0 0 0 30.32 13.79c7-2.36 10.48-10.64 8-17.39a13.7 13.7 0 0 0-17.39-8 8 8 0 0 1-1.07.32l3.42-.78a11.89 11.89 0 0 1-2.25.2l3.46.12a13.38 13.38 0 0 1-2.86-.48l3.32 1a14.86 14.86 0 0 1-2.68-1.21l3 1.82a13.68 13.68 0 0 1-2.26-1.81l2.49 2.64a11.83 11.83 0 0 1-1.33-1.82l1.71 3.19a7 7 0 0 1-.47-1c-2.86-6.79-10.26-10.62-17.39-8-6.67 2.48-10.83 10.6-8 17.39z" fill="#fff"/><path d="M1791.54 2354.68l6.47 2.91a13.52 13.52 0 1 0 11-24.72l-6.46-2.91a13.52 13.52 0 1 0-11 24.73z" fill="#fff"/><path d="M1838.58 2324.92l4.68-1.78a13.52 13.52 0 1 0-9.42-25.35l-4.68 1.77a13.53 13.53 0 1 0 9.42 25.36z" fill="#fff"/><path d="M1889.73 2312.38a47.76 47.76 0 0 0 2.85 5.95c1.37 2.52 4 4.35 6.5 5.59 4.7 2.33 9.9 1.1 14.51-.66a13.52 13.52 0 0 0-9.42-25.35 24.25 24.25 0 0 1-3 1l3.42-.79a3.8 3.8 0 0 1-.76.09l3.46.12a2.76 2.76 0 0 1-.42-.06l3.31 1a2.36 2.36 0 0 1-.36-.16l3 1.82a1.8 1.8 0 0 1-.32-.27l2.5 2.63a3.75 3.75 0 0 1-.51-.76l1.7 3.2a28.33 28.33 0 0 1-1.13-2.75 13.53 13.53 0 1 0-25.37 9.42z" fill="#fff"/><path d="M1849.6 2438.71l4.69-1.78a13.52 13.52 0 0 0-9.42-25.36l-4.69 1.78a13.52 13.52 0 1 0 9.42 25.35z" fill="#fff"/><path d="M2084.27 2366.06c-12.11-4.57-72.42-12.31-100.58 52.11-10.88 24.9-19.51 70.21-11.08 96.85 24.41 77.19 120.07 16.6 133.13-34.81 9.02-35.49 21.03-98.13-21.47-114.15z" fill="#e3cbc3"/><path d="M1936.78 2583.43l-.74-1.82c5.88-2.35 9.93-6.08 12-11.08 3.33-7.9 2.05-18.7-3.9-33l1.82-.75c6.16 14.83 7.43 26.13 3.89 34.54-2.27 5.48-6.69 9.56-13.07 12.11z" fill="#403125"/><path d="M2013.41 2337.14l-.73-1.83c8.3-3.33 13.56-11.46 14.08-21.71.42-8.27-2.5-15.5-7.25-18l.91-1.74c5.42 2.84 8.75 10.81 8.3 19.83-.56 11.05-6.28 19.81-15.31 23.45z" fill="#403125"/><path d="M2052.62 2408l-.55 1.71c8.38 2.68 7.57 9.69 6.34 13.64-3.92 12.6-22.24 28.16-37.44 23.63 0-.12.09-.24.13-.32l.07-.09a12.49 12.49 0 0 1 .9-1.08c2.28-2.56 1.62-6.79-1-8.87a6.4 6.4 0 0 0-8.87 1c-4.21 4.71-5 10.7-2.85 16.54a6.31 6.31 0 0 0 11.8-4.48c-.09-.22-.15-.44-.23-.66 8.66 3.73 13.83 11.62 14.21 21.77.47 12.56-6.38 25.17-16.31 30l.79 1.62c10.53-5.12 17.82-18.43 17.32-31.68-.34-9.11-4.29-16.54-11-21.07 15.13.52 30.52-13.93 34.18-25.72 2.46-7.85-.29-13.65-7.49-15.94z" fill="#403125"/><path d="M1766.26 2606.09s-14 25.26-17.25 33.92c10 1.81 33-7.32 37.47-17.59 4.52-10.52-11.19-22.28-20.22-16.33z" fill="#e3cbc3"/><path d="M1922.19 2165.14c-2.55 12.93 2.7 25.67-.69 38.44 40.2 7.1.69-38.44.69-38.44z" fill="#e3cbc3"/><path d="M1064.1 1565.74c86.21 26.07 120.37 89.93 222.27 111.14 91.37 19 216.09-40.52 229-2.61 24.42 71.74-153.84 116.1-243.7 109.47-142.84-10.55-226.53-43.31-207.07-204.93 10.23-4.69-.5-13.07-.5-13.07z" fill="#f4dab7"/><path d="M1966.22 264.84c23.5-43.37 49-80.13 35.75-130.95a250 250 0 0 1-5.17 39.11c-5.33-9.12-8.21-23-12.87-32.18-1.76 11.52-6.95 22.86-16.25 28.16-4.7-23.25-7.32-48.77-11.63-70.81-14.49 25.35-18.84 64.45-10.81 92.44-19.66-13.37-26.46-42.65-27.37-63.79 5.9 54.77-12.92 133.32 53.58 160-9.2-11.4 1.87-9.68 3-14.73z" fill="#d9a362"/><path d="M1503 541.68c-9.64-6.15 3.73 3.12 6.65 6.14a116.88 116.88 0 0 1 18.87 24.47c9.86 16.37 15.81 33.59 27.61 48.68 24 30.72 51 39.07 89.43 24.88-28-25.7-18.38-72.87-47.42-96.63-18.36-15-87.83-26-97.37-5.45z" fill="#d9a362"/><path d="M1622.08 713.15c42.71 14.39 59.29-7.68 95-21.12-27.61-9.67-42.68-41.2-69.65-50.66-26.53-9.31-55.23 5.47-84.32-2.14-.11 36.35 34.02 65.52 58.97 73.92z" fill="#e1b581"/><path d="M1623.64 621.7c19.19-27.12 67.33-14.91 92.49 5.93 24.32 20.16 25.21 50 40.62 74.72-57.06 5.67-142.17-69.08-138-63.5-.04 0 2.31-13.51 4.89-17.15z" fill="#cc945c"/><path d="M1824.64 690.48c-65.63 18.83-118.79-31.89-170.38 23.41 39.21 71.82 159.89 55.48 170.38-23.41z" fill="#d9a362"/><path d="M1726.57 638.54c34.11-42 121.33-.28 147.36 32.65-25.46 6.67-57 33.17-83.85 32.27-33.34-1.11-63.51-64.92-63.51-64.92z" fill="#e1b581"/><path d="M1875.23 746.4c27-14.94 43.11-52.85 44-83-33.92 34.68-130.35-1.67-125.1 86.42 2.48-2.01 17.17 31.89 81.1-3.42z" fill="#cc945c"/><path d="M1878.26 592.57c33.31-2.13 59.18 24.3 89.72 28.25-19.06 19.72-27.18 40.77-76.12 51-31.83 6.66-71.69-17.44-80.25-43.26-.01 0 37.39-34.13 66.65-35.99z" fill="#d9a362"/><path d="M1992.67 596.18c-26.23 40-102.18 69-97.33 127.22 76.41.01 168.44-65.4 97.33-127.22z" fill="#e1b581"/><path d="M2004.35 551.37c.25 19.39-3.1 50.72-18.83 64.1-33.43 28.43-73.13-5.93-71.45-9.41-.01 0-4.22-63.06 90.28-54.69z" fill="#cc945c"/><path d="M2068.45 582.52c18.69-31.9-4.8-72.78-40.17-82.55-4 21.68 13.57 37.55 3.17 57.91-6.51 12.73-59.43 41.77-41.74 55.92 0 .01 42.99 29.77 78.74-31.28z" fill="#d9a362"/><path d="M1960.41 520.14c2.61-25.78 24.82-42 39.05-60.66 42.59 32 42 110.46-5.82 129.68-2.34-1.81-35.3-48.57-33.23-69.02z" fill="#e1b581"/><path d="M2047.56 389.58c37.2-50.78-44.55-74-77-70 14.44 73.51 77 70 77 70z" fill="#e1b581"/><path d="M1989.81 362.57c27.42 49.82-6.13 107.32 37.35 157.92 72.77-43.6 58.18-143.18-37.35-157.92z" fill="#cc945c"/><path d="M1943.07 399.41c2-26.78 11.71-59.86 27.46-79.87 10 26.11 89.72 122 41 154.81-.03.01-73.4-8.11-68.46-74.94z" fill="#d9a362"/><path d="M1966.46 263.79c13.29 53.49 1.52 97.16-21.93 117.11 3.94-4.01-81.25-68.08 21.93-117.11z" fill="#e1b581"/><path d="M1959.19 267.44c30.32-22.11 65.62 30.82 54.07 57.43-44.58.5-52.05 9.23-50.24-57.36z" fill="#d9a362"/><path d="M1953.43 272c2.83-4.22 9.05-5.35 13.7-6.1 5.87-.95 3.43-9.85-2.39-8.91-7.44 1.2-14.94 3.9-19.3 10.4-3.33 4.95 4.69 9.53 8 4.61z" fill="#fff"/><path d="M317.57 1962.87c16.11 193.46 5.89 269.35 148 413.8 189.31 192.44 520.2 207.49 606.47 171.41 53-22.15 80.83-72.31 130.14-98.37 48.31-25.53 95.3-23.39 142.32-54.59 40-26.52 62.13-61.28 105.92-85.73 43-24 82.16-3.75 115.07-59.27-133.7-31.69-290.87-192-361.6-306.08-38.74-62.49-82.11-133.6-99-207-14.62-63.61 4.87-142.56-28.68-199-201 57.58-457.37-227.54-616-97.18-.02.04-155.99 361.72-142.64 522.01z" fill="#d0b5aa"/><path d="M1458 255c-94.65-85.41-275.11-118.45-389.52-176.66-155-78.87-300.8-96.73-469.66-43.39C532.22 56 209.63 218 262.08 302.12 121.74 388.69 3.18 460.51.61 656-1.73 834.31 42 956.26 109.08 1116.66c74.5 178.15 129.69 272.46 318.9 345.45 101.58 39.19 359 118.83 439 49.22-168.29-113.42-355.13-204-422.53-407.8-58.75-177.66-76.06-387.9 79-522C670.3 454.55 921.9 365.09 1115 374.86c155.33 7.86 388.72 189.77 449.92 336.68C1606.79 597.48 1552.83 340.5 1458 255z" fill="#d9a362"/><path d="M559.49 562C402.2 697.09 402.4 930.11 439.35 1112.58c43.9 216.83 232.65 319.52 413.79 393.26 149.9 61 229.51 47.94 430.77 17.06 61.48-9.43 244.15-117.14 270-212.12 28.5-104.68 82.62-211.64 82.6-316.84-.07-277.43-173.78-506.43-433.74-620.86C944.52 259.41 687.73 435.56 502 607.75l24.77-14.64z" fill="#f4dab7"/><path d="M649.69 1054.89l-1.82-7.68c16-3.8 33.82-48.62 43.38-72.69 3.05-7.69 5.46-13.77 7.34-17.58l7.08 3.48c-1.73 3.53-4.21 9.78-7.09 17-14.58 36.8-30.41 73.09-48.89 77.47z" fill="#a37a4a"/><path d="M780.45 1247.89a70.32 70.32 0 0 1-18.22-2.92l2.25-7.57c18.82 5.59 37.71 2.11 50.53-9.32 11.94-10.63 17-26.72 14-44.13l7.77-1.36c3.53 20.17-2.5 38.9-16.52 51.39-10.65 9.48-24.78 14.29-39.81 13.91z" fill="#6d5231"/><path d="M1246.2 796.89A69.89 69.89 0 0 1 1228 794l2.25-7.56c18.82 5.59 37.71 2.11 50.53-9.31 11.94-10.64 17-26.72 14-44.13l7.77-1.36C1306 751.76 1300 770.49 1286 783c-10.64 9.46-24.77 14.26-39.8 13.89z" fill="#6d5231"/><path d="M855.43 1348.88c-23.12 51.41 42.59 111 107.53 36.88 84.18-96.04-59.05-144.68-107.53-36.88z" fill="#ffb198"/><path d="M1324.45 871.26c-23.12 51.42 42.59 111 107.53 36.88 84.17-96.04-59.06-144.68-107.53-36.88z" fill="#ffb198"/><path d="M1157.43 1128.77c-.35 3.61-.34 6.08-.85 8-12.07 46.81 16.61 79.75 58.74 42.32 58.47-51.9-7.65-69.88-57.89-50.32z" fill="#f4c79e"/><path d="M1257.91 1277.41a56.49 56.49 0 0 1-21.69-5.34l3.23-7.2c13.23 5.94 25.17 6.15 35.47.65 16.47-8.78 25.44-30.1 28.35-47.12l7.78 1.33c-3.22 18.86-13.42 42.62-32.41 52.76a41.29 41.29 0 0 1-20.73 4.92z" fill="#f29187"/><path d="M1192.84 643.83l-7.14-3.35c-7 14.91-54.51 23.14-80 27.56-8.15 1.42-14.59 2.53-18.71 3.58l2 7.65c3.81-1 10.43-2.12 18.1-3.45 38.91-6.77 77.68-14.82 85.75-31.99z" fill="#a37a4a"/><path d="M644.51 449C659 488.5 685.43 521.82 707 557.54c11 18.27 20.58 37.51 26 58.25s4.21 41.25-.33 62c-2.58 11.81-8.92 22.92-14.87 33.3-7.85 13.71-16.61 26.89-25.17 40.16C676 777 658.48 803.47 649 832.89c-5 15.65-7.09 33-.15 48.38 8.28 18.36 28.06 27.86 46.24 33.55 1.59.5 4.2-1.8 2-2.48-29.3-9.17-52.11-27.85-48.7-60.78 3.09-29.88 21.26-58 36.79-82.92 15.63-25 33.78-49.24 45.89-76.29 14.35-32.06 10.64-68.87-2.36-100.61-20.94-51.16-61.65-91.58-80.69-143.74-.61-1.68-4.16-.69-3.56 1z" fill="#d9a362"/><path d="M705.42 454.49c12.35 85.69 116.25 138.27 195.73 116.36 2.07-.57 1.78-1.7-.3-1.13C822.55 591.31 721 537.09 709 453.53c-.11-.73-3.7 0-3.57 1z" fill="#d9a362"/><path d="M326.37 874.1c-4.06 161.55 24.62 303.49 212.55 435.56-164-236.18-163.23-559.58 69.58-770.35 208.69-188.94 551.22-173.2 775.21-52.67-74.34-98.22-285.71-225.86-525.88-197.18C662.15 312.83 335.7 503 326.37 874.1z" fill="#f5deca"/><path d="M1462.79 507.29c-4.48-3.4-9.3-7.07-14.32-10.91-39.68-30.39-93.21-72.56-113.5-88.58l-8.25-6.52C1386.09 275 1534.19 430 1462.79 507.29z" fill="#f0ceab"/><path d="M588 1402.4c-69.69 31.41-203.28-25.39-133.61-83.93 10.57-8.87 20.23-22.61 20.23-22.61.37.45.74.87 1.13 1.31 26.83 31.32 61.62 54.74 90.54 82.14A245.61 245.61 0 0 1 588 1402.4z" fill="#f0ceab"/><path d="M566.27 1379.32c-60.73-2.73-123.48-40.66-90.54-82.14 26.84 31.31 61.62 54.73 90.54 82.14z" fill="#ffb198"/><path d="M600 547.16c-42.12 90.48-16.74 332.6 10.67 418 22.44 69.93 28 115.46 9.84 187.58-14.17 56.34-55.37 137.3-44.29 194.15-26.33-75.71-97.7-104.14-143.53-164.46-51.31-67.53-64.06-152.57-45.36-233.33C466.67 606.36 600 547.16 600 547.16z" fill="#d9a362"/><path d="M1102.75 593.79c113.05-7.95 298.4-58.48 399.71 28.52-77-129-165.74-204.53-320.06-229.08-147.59-23.49-316.26-10.9-451 64 21.6-1.37 231.29 146.41 371.35 136.56z" fill="#d9a362"/><path d="M2035.23 1013.94c-26.07-.64-51.6-8.09-69.49-21.48-29.88-22.37-39.85-62.51-48.66-97.92-2.4-9.66-4.67-18.79-7.26-27.39-30.92-102.71-82.56-149.28-190.54-171.84-29.34-6.13-61.88-5.25-96.33-4.33-60.43 1.63-122.91 3.32-169.06-35.18-26.91-22.45-31.72-49.65-36.37-76-2.43-13.72-4.93-27.89-10.51-41.6-18.87-46.31-45.53-73.92-86.09-115.94 0 0 70.44 50.43 93.4 113 5.39 14.68 8.48 29.09 11 43.2 4.61 26.06 9 50.67 33.65 71.27 43.86 36.58 104.83 34.94 163.79 33.35 33.39-.9 67.91-1.83 98.15 4.49 111.33 23.26 164.58 71.31 196.49 177.3 2.65 8.79 4.94 18 7.36 27.76 8.9 35.8 18.1 72.82 45.73 93.51 27.22 20.38 73.62 25.93 110.33 13.21 24.4-8.45 40.76-24 46.06-43.9l7.63 2c-6 22.47-24.14 40-51.1 49.33a138 138 0 0 1-48.18 7.16z" fill="#e8c8a1"/><path d="M1336.15 508.49c-24.9 14.64-51.76 22.71-80.64 17.87-20.4-3.41-39.43-12.66-57.88-21.58-38.74-18.71-80.11-38-124.17-35.21-19.94 1.27-39.42 7-58.75 11.68a329.7 329.7 0 0 1-65.09 8.68c-40.72 1.56-84.21-2.8-120.73-22.11-16.93-8.95-31.27-22-40.9-38.49l-.59.25-.8.3a9.27 9.27 0 0 1-1.54.57l-.41.16c37 63.42 131.52 65.79 195.81 58.34 20.61-2.39 40.53-8.15 60.69-12.83 24.51-5.69 48.38-7 73.06-1.37 43.55 10 80.38 35.77 122.51 49.14 35.73 11.34 70.49 3.41 102.18-15.23 1.54-.89-2.06-.57-2.75-.17z" fill="#e7c49a"/><path d="M1117.35 1781.66c-74.7 18.32-138.7 11.94-180.22-18-30.91-22.26-48.47-56.47-52.2-101.69-1.69-20.46-.87-36.53-.15-50.71 1.8-35.38 3-58.74-39.76-101.24-41.12-40.88-96.3-63.11-149.65-84.6-74.52-30-145-58.46-179.25-133.41-3-2-5.89-4.08-8.75-6.23l-2.15.87c33.92 84.35 111.84 115.74 187.2 146.1 52.62 21.2 107 43.12 147 82.88 40.24 40 39.25 59.63 37.44 95.24-.73 14.42-1.56 30.77.16 51.76 3.93 47.63 22.58 83.78 55.45 107.44 25.94 18.68 60 28.63 99.68 29.6 26.74.65 56-2.78 87-10.39z" fill="#e8c8a1"/><path d="M484.63 814.58c-60.5-25.89-88.45-73.43-145.38-107.71-35.55 20.24-52.3 74.64-9.27 142.53-65.89-34.32-119.33.64-148.86 30.16 49.66 87.25 106.41 47.22 167 115C358.2 965 387.51 930.1 339 856.6c0 0 25.56 4.54 72.38-4.85 48.23-9.68 73.25-37.17 73.25-37.17z" fill="#fff"/><path d="M640.42 605.15c-5.52-25-18.52-44.74-40.42-58l-3.56 1.85c21.67 12.87 35.92 32.25 41.33 56.71 21.64 97.86-93.2 259.57-135.14 308.51-48.08 56.1-93.48 109.09-99.64 191.16-2.08 27.77 2.21 57.21 6.35 85.69 9.55 65.56 18.56 127.48-42 174.05l1.66 2.15c61.8-47.54 52.25-113.14 43-176.6-4.13-28.33-8.39-57.63-6.33-85.09 6.09-81.19 51.22-133.84 99-189.61 24.56-28.66 63.93-82.61 94-140.32 25.51-48.7 53.39-117.86 41.75-170.5z" fill="#e1b581"/><path d="M1448.47 496.39c-39.68-30.39-93.21-72.56-113.5-88.58 48.94-47.97 127.03 28.42 113.5 88.58z" fill="#ffb198"/><path d="M598.85 220.94c27.64-44.94 71.89-88 125-102.84-90.43 16.12-181.13 32.9-246.11 102.84 2.13-66.78 57.61-133 119-155C493.47 87.84 329.18 180 332.63 304.42c0 0 69.62 41 111.14 38.51 40.59-2.46 100.37-64.77 143.28-82.8 149.65-62.88 319.79-77.34 480.33-77.54C910 160.1 747.52 147 598.85 220.94z" fill="#e1b581"/><path d="M723.86 118.1q14-2.49 27.91-5a146.48 146.48 0 0 0-27.91 5z" fill="#e1b581"/><path d="M278.71 339.54S81.93 395.1 105.79 555.13c24.94-30.47 43.28-68.91 80-88.27-22 52.34-7.92 154.6 28.68 197.65 18-78.23 41-127.32 94.27-185.5 2.06 18.82 7.94 34.47 12.18 52.61 3.4-57.08 41.92-125.06 92.3-149.48-74.89-51.14-128.11-41.85-134.51-42.6z" fill="#e1b581"/><path d="M261 301.57c-59.75 38-121.93 74.52-171.79 125.48-52.3 53.44-81.29 121.1-87.71 195.32-4 45.82.53 91.92 6.74 137.33a1328.77 1328.77 0 0 0 27.84 142A1491.27 1491.27 0 0 0 141.83 1193q26.22 53.81 57.62 104.89c.63 1 4.1-.12 3.31-1.41-54.76-88.86-97.3-185-130.42-283.85-31.08-92.77-53.9-188.9-64.52-286.23-9.25-84.75-3.9-171.66 42.18-245.7 38-61 97.63-103.82 156.9-142.25 18.65-12.09 37.52-23.86 56.28-35.78 2-1.3-1.06-1.83-2.22-1.1z" fill="#f0dac0"/><path d="M1140.71 2003c9.89-13.57 2.17-50.95 3.53-76.09 1.8-33.15 22-67.79 19.79-99.43-5.28-76.87-71.18-55.44-93.25.22-15.2 38.35-30.28 119.72-10.32 156.6 29.46 54.43 76.66 26.25 118.48 14.54z" fill="#f5f3ee"/><path d="M940.57 2227.4l-.68-.16-.37-.09-1.25-.34c-.82-.21-1.69-.43-2.48-.61l-1.89-.38a68.25 68.25 0 0 0-7.49-1 71.19 71.19 0 0 0-14 .31 81.14 81.14 0 0 0-22.22 6A103.46 103.46 0 0 0 874 2240a132.09 132.09 0 0 0-12.79 9.6 182.36 182.36 0 0 0-20.13 20.12 247.69 247.69 0 0 0-16.13 20.94 282.42 282.42 0 0 0-25.23 44.79 221.76 221.76 0 0 0-9.46 24.93c-1.36 4.42-2.59 9-3.63 13.86a117.67 117.67 0 0 0-2.31 15.79 86.85 86.85 0 0 0-.21 9.22l.12 2.52.1 1.3v1.12c.09.57.31 2.78.49 3.93a102 102 0 0 0 3.59 16 94.51 94.51 0 0 0 15.24 29.41 102.19 102.19 0 0 0 22.74 21.47 128.11 128.11 0 0 0 25.11 13.51c17 6.86 33.83 10.29 50.47 12a230.2 230.2 0 0 0 24.89 1.15c4.15 0 8.26-.17 12.44-.43s8.33-.67 12.29-1.13c15.78-1.92 30.27-4.63 44.55-6.69s28.13-3.68 41.14-3.37a81 81 0 0 1 18.18 2.27 34.76 34.76 0 0 1 13.77 6.66 27.88 27.88 0 0 1 8.29 12.5 58.89 58.89 0 0 1 2.86 18.18 67.13 67.13 0 0 1-10.28 36.83c-7 11.49-17 21.6-28.44 30a162.69 162.69 0 0 1-37.95 20.5 160.06 160.06 0 0 1-42.71 10.21v1.35a163.84 163.84 0 0 0 44.67-5 172.29 172.29 0 0 0 42.55-16.66c13.45-7.58 26.17-17.35 36.32-30.13a91.51 91.51 0 0 0 12.68-21.29 86.2 86.2 0 0 0 6.28-24.6 83.65 83.65 0 0 0-.94-25.94 58.94 58.94 0 0 0-4.57-13.54 53.38 53.38 0 0 0-8.34-12.46 57.8 57.8 0 0 0-11.32-9.69 72.23 72.23 0 0 0-12.57-6.54 111.68 111.68 0 0 0-25.28-6.62c-16.54-2.45-32.34-2.43-47.66-2.13s-30.23 1.22-44 1.17c-3.43 0-6.77-.11-9.92-.31s-6.54-.5-9.79-.88a180.62 180.62 0 0 1-19.32-3.34c-12.6-2.9-24.65-7.19-34.61-12.85a69.2 69.2 0 0 1-13-9.31 40.56 40.56 0 0 1-8.19-10.29 31.16 31.16 0 0 1-3.5-10.66 38.61 38.61 0 0 1-.36-5.86c0-.7.07-.35 0-1.61v-.53.26-.09c0-.07.05-.16.08-.26l.47-1.86c.41-1.6 1-3.73 1.88-6s1.87-4.8 3-7.35a155.76 155.76 0 0 1 8.44-15.74 208.18 208.18 0 0 1 22.41-30.16 166.38 166.38 0 0 1 12.76-12.83 96.43 96.43 0 0 1 12.72-9.79 43.83 43.83 0 0 1 5.52-3 11.6 11.6 0 0 1 3.63-1.09c.68 0 .62.37-.71.73a11.37 11.37 0 0 1-2.87.32 18.73 18.73 0 0 1-2-.15 4.89 4.89 0 0 1-.54-.08c-.35-.06-.77-.16-1.14-.25l-.57-.16.3.11.65.25z" fill="#fff"/><path d="M1229.32 1919c-133.64 46.43-291.35 68.4-376.61 199.36-67.73 104 32.85 253 136.48 258.94 113.58 6.47 224.77-44.87 317.52-113.06 36.68-27 154.94-138.59 154.94-138.59s-129.26-90.65-155.89-114.75c-30.92-28-69-65.18-85.8-98.23z" fill="#fff"/><path d="M1171.07 2048.41c-44 3.49-132.67 65-71.93 109.69 43.73 32.18 87.35-22.49 133.06-16.22 35.25 4.83 112.83 89.4 110-3.73-10.8-4.71-71.5-97.64-171.13-89.74z" fill="#f5f3ee"/><path d="M1028.82 2184.89c9.42-7.94 17.13-14.86 24.9-18 38.69-15.54 57.13 26.5 23.52 71.31-23.28 31-65.7 117.17-107.61 126.46-86.56 19.22 26.59-152.3 59.19-179.77z" fill="#f5f3ee"/><path d="M1080.72 2192c-.93.92-1.92 1.78-2.9 2.64s1.1-1.05 0 0a12.49 12.49 0 0 0-1.13 1.28 6.45 6.45 0 0 1-9.83-8.34 25.4 25.4 0 0 1 3-3l.9-.79c.52-.46.39-.34-.39.36l.52-.5c2.49-2.48 6.24-3.16 9.08-.75 2.51 2.12 3.24 6.61.75 9.09z" fill="#e3cbc3"/><path d="M1063.49 2178.19a29.52 29.52 0 0 1 .1 3.74c0 .78-.08 1.56 0 2.35 0-.55-.07-1.09-.11-1.63v.24c0 .54.08 1.08.11 1.63a6.28 6.28 0 0 1-9.68 4.89 6 6 0 0 1-2.75-4 29.69 29.69 0 0 1-.11-3.74c0-.78.08-1.57.05-2.35 0 .54.08 1.09.11 1.63v-.23c0-.55-.08-1.09-.11-1.63a6.25 6.25 0 0 1 1-3 6.27 6.27 0 0 1 8.69-1.87 6 6 0 0 1 2.75 4z" fill="#e3cbc3"/><path d="M1044.44 2180.34a24.57 24.57 0 0 1 1.33 2.73c.23.59.46 1.18.75 1.75l-.63-1.17.09.17.63 1.17a5.11 5.11 0 0 1-5.53 6.87 4.92 4.92 0 0 1-3.39-2.07 23.65 23.65 0 0 1-1.33-2.73 17.89 17.89 0 0 0-.75-1.75l.62 1.16-.09-.16-.63-1.17a5.12 5.12 0 0 1 1.79-6 5.17 5.17 0 0 1 3.74-.9 4.86 4.86 0 0 1 3.38 2.07z" fill="#e3cbc3"/><path d="M1083.9 2210.93c-1.67.15-3.33.47-5 .79a6 6 0 0 1-2.38-11.82c1.65-.31 3.3-.63 5-.79a6.51 6.51 0 0 1 4.46.85 6 6 0 0 1 1.79 8.34 5.84 5.84 0 0 1-3.87 2.64z" fill="#e3cbc3"/><path d="M1051.22 2205.61c4.21 2.81 8 5.49 10.63 10 2.3 4 .2 9.31-3.71 11.28-4.26 2.16-9 .25-11.28-3.71.95 1.63-.16-.16-.46-.48-1.56-1.69 1.3.92-.57-.47-1.2-.89-2.49-1.66-3.73-2.49a8.4 8.4 0 0 1 9.12-14.11z" fill="#e3cbc3"/><path d="M1141.93 1800.81c-.72 1.1-1.5 2.15-2.29 3.19s.85-1.25 0 0a13.52 13.52 0 0 0-.84 1.49 6.45 6.45 0 0 1-11.36-6.1 24.92 24.92 0 0 1 2.28-3.53c.23-.33.47-.65.71-1 .41-.55.31-.41-.3.44.14-.2.28-.4.4-.6 1.92-2.94 5.44-4.39 8.73-2.63 2.9 1.56 4.54 5.8 2.62 8.73z" fill="#e3cbc3"/><path d="M1122.18 1790.87a29.66 29.66 0 0 1 .89 3.64 22.26 22.26 0 0 0 .44 2.31l-.45-1.57.07.23.45 1.57a6.28 6.28 0 0 1-8.45 6.81 6 6 0 0 1-3.53-3.37 29.78 29.78 0 0 1-.88-3.63 22.85 22.85 0 0 0-.44-2.31l.45 1.57-.07-.23-.45-1.56a6.29 6.29 0 0 1 8.45-6.81 6 6 0 0 1 3.53 3.37z" fill="#e3cbc3"/><path d="M1104 1796.95a24.19 24.19 0 0 1 1.87 2.39 17.63 17.63 0 0 0 1.1 1.56l-.86-1 .12.14.86 1a5.11 5.11 0 0 1-4 7.87 4.9 4.9 0 0 1-3.74-1.32 24.29 24.29 0 0 1-1.87-2.39 18.59 18.59 0 0 0-1.1-1.56l.85 1-.12-.15-.86-1a5.11 5.11 0 0 1 4-7.87 4.89 4.89 0 0 1 3.74 1.31z" fill="#e3cbc3"/><path d="M1149 1818.63c-1.6.5-3.15 1.17-4.7 1.82a6 6 0 1 1-4.8-11.06c1.55-.65 3.09-1.31 4.7-1.81a6.49 6.49 0 0 1 4.54-.11 6 6 0 0 1 3.49 7.78 5.79 5.79 0 0 1-3.24 3.38z" fill="#e3cbc3"/><path d="M1115.91 1820.25c4.71 1.87 9 3.69 12.48 7.53 3.08 3.39 2.14 9.07-1.27 11.81-3.72 3-8.74 2.12-11.81-1.27 1.27 1.4-.19-.11-.54-.37-1.88-1.33 1.45.63-.66-.34-1.36-.62-2.78-1.1-4.16-1.65a8.4 8.4 0 0 1 6-15.7z" fill="#e3cbc3"/><path d="M1326.38 1670.88c14.26-6.21 12.79-8.12 30.89-10.1 0 0-2.72-37.09 14.86-96.19 45.75 39.79 85.09 95.35 85.09 95.35 217.53 28.17 269.67 163.31 272.62 256.91.75 23.91-12.39 70.77-18.91 93.79a199.79 199.79 0 0 1-24.4 53.54c17.38 22.44 34.32 57 41.41 71.18-26.83 19.17-79.22 1.75-102.41-7.52-108.05 77.87-286.47 77-397.9-120.6-81.78-145-52.18-270.63 98.75-336.36z" fill="#fff"/><path d="M1278.61 1866.4c11-6.74 68.48-25.61 108.08 32.07 15.31 22.3 32.24 65 29 92.58-9.38 80-114.24 38.74-136.65-9.06-15.47-32.99-38.96-91.99-.43-115.59z" fill="#e3cbc3"/><path d="M1463.55 2051.19l.37-1.92c-6.19-1.19-10.84-4.07-13.84-8.57-4.73-7.1-5.51-17.89-2.38-33l-1.92-.39c-3.24 15.65-2.37 26.94 2.67 34.49 3.3 4.93 8.38 8.09 15.1 9.39z" fill="#403125"/><path d="M1342.44 1824.83l.38-1.92c-8.74-1.71-15.4-8.66-17.83-18.59-2-8-.47-15.61 3.71-18.94l-1.22-1.53c-4.76 3.79-6.53 12.21-4.39 20.93 2.61 10.7 9.85 18.22 19.35 20.05z" fill="#403125"/><path d="M1317.41 1901.45l.86 1.58c-7.69 4.19-5.58 10.89-3.64 14.52 6.2 11.58 27 23.35 41 16.08a2.3 2.3 0 0 0-.19-.29l-.09-.08a11.55 11.55 0 0 0-1.08-.89c-2.72-2.07-2.87-6.34-.74-8.85a6.37 6.37 0 0 1 8.85-.74c5 3.82 6.86 9.54 5.89 15.64a6.28 6.28 0 1 1-12.37-2.16c0-.23.06-.46.1-.7-7.76 5.27-11.34 14-9.8 24 1.9 12.36 11 23.41 21.56 26.26l-.46 1.74c-11.25-3-20.88-14.69-22.87-27.72-1.38-9 1.09-17 6.83-22.66-14.68 3.35-32.44-7.9-38.23-18.73-3.82-7.23-2.23-13.45 4.38-17z" fill="#403125"/><path d="M1656.63 2093.12s18.44 22.05 23.22 29.92c-9.39 3.63-33.59-1-39.92-10.18-.93-1.33 6.76-23.86 16.7-19.74z" fill="#e3cbc3"/><path d="M1385.55 1627.84c4.92 12.16 2.17 25.59 7.88 37.45-37.96 14.48-7.88-37.45-7.88-37.45z" fill="#e3cbc3"/><path d="M979.25 2099.85c12.31-.58 22.63-1.4 30.71.84 40.18 11.15 29.29 55.75-24.63 70.93C948 2182.15 862 2224.81 823 2206.74c-80.39-37.32 113.67-104.86 156.25-106.89z" fill="#f5f3ee"/><path d="M1016.15 2137.05c-1.3.17-2.6.25-3.91.34s1.51-.16 0 0a14.17 14.17 0 0 0-1.68.33 6.44 6.44 0 1 1-2.74-12.59 25.18 25.18 0 0 1 4.16-.57l1.2-.09c.69-.05.51 0-.53.05l.71-.09c3.48-.45 6.87 1.29 7.67 4.93.7 3.21-1.44 7.21-4.93 7.67z" fill="#e3cbc3"/><path d="M1010.86 2115.58a29.71 29.71 0 0 1-2.19 3c-.5.59-1 1.19-1.46 1.84l.9-1.36-.13.2-.9 1.36a6.29 6.29 0 0 1-10.67-2 6 6 0 0 1 .26-4.87 30.06 30.06 0 0 1 2.19-3 23.1 23.1 0 0 0 1.46-1.83l-.9 1.35.13-.19.9-1.36a6.27 6.27 0 0 1 2.63-1.8 6.27 6.27 0 0 1 8 3.79 6 6 0 0 1-.26 4.88z" fill="#e3cbc3"/><path d="M994.43 2105.72a24.85 24.85 0 0 1-.6 3 18.56 18.56 0 0 0-.47 1.84l.21-1.31v.19l-.21 1.3a5.09 5.09 0 0 1-5 3.65 5.11 5.11 0 0 1-3.52-1.55 4.91 4.91 0 0 1-1.43-3.71 24.17 24.17 0 0 1 .6-3 18.3 18.3 0 0 0 .47-1.85l-.21 1.3v-.18l.21-1.31A5.1 5.1 0 0 1 993 2102a4.85 4.85 0 0 1 1.43 3.7z" fill="#e3cbc3"/><path d="M1007.2 2154c-1.42-.89-2.93-1.64-4.43-2.39a6 6 0 0 1 5.28-10.84c1.5.76 3 1.5 4.43 2.39a6.51 6.51 0 0 1 3 3.38 6 6 0 0 1-3.64 7.71 5.81 5.81 0 0 1-4.67-.26z" fill="#e3cbc3"/><path d="M984.46 2129.91c1.64 4.79 3 9.24 2.39 14.38-.58 4.54-5.49 7.51-9.8 6.71-4.7-.88-7.29-5.25-6.71-9.8-.24 1.88 0-.22-.07-.66-.21-2.29.47 1.52-.17-.72-.41-1.44-1-2.83-1.45-4.24a8.4 8.4 0 0 1 15.81-5.67z" fill="#e3cbc3"/><path d="M880 2286.92s10-12.61 3-19.74c-8.86-9.09-37.47 9.12-17.81 18.62 4.92 2.38 9.84 3.2 14 1.5-5.53 9.23-2.33 22.95 12.39 20.41 19.62-3.36 7.07-33.58-11.58-20.79z" fill="#e5e0d5"/><path d="M894.48 1907.84c63.5 38.62 310.46 139.07 287.27 57.28-10.82-38.16-189.57-103.84-256.4-170.39-55.08-54.83-190.12-281.81-237.28-151.08-27.26 75.56 100.1 199.52 206.41 264.19z" fill="#f0ceab"/><path d="M263.87 301.64c-7.45-33.64 10.46-64.33 32.05-88.64 27.63-31.11 63.15-55.13 98.42-76.7 36.9-22.57 75.57-42.19 114.6-60.78 23-10.94 45.57-22.52 69.17-32.1A569.14 569.14 0 0 1 659 17.69C756.43-5.75 860.87-2.6 956.13 28.84c74 24.43 141.12 63 211.88 94.89a1031.55 1031.55 0 0 0 130.35 47.92c23.49 7 47.06 12.89 69.73 22.34a304.54 304.54 0 0 1 58 32.19 272.31 272.31 0 0 1 85.19 98.34c10.07 19.65 16.47 40.5 23.24 61.43 5.11 15.8 9.75 31.75 13.78 47.86 8.86 35.47 16 71.38 24.55 106.93.35 1.48 3.92.54 3.56-1-9.1-37.85-16.57-76.14-26.3-113.83-9.62-37.26-20.76-75.55-39-109.54-19.71-36.71-48.46-67.93-82.22-92.15-37.08-26.59-78.39-40.4-121.74-52.89a1032.48 1032.48 0 0 1-136.31-49.56c-33.52-15-66-32.09-99-48.19-76.68-37.35-156.58-65.8-242.15-72.12-103.27-7.61-207.54 14.76-299.78 61.36-74.2 37.48-151.16 71.54-214.27 127-31.53 27.7-65.34 67.65-55.35 112.78.33 1.48 3.9.56 3.56-1z" fill="#f0dac0"/><path d="M229.27 1837.77c-46.9 15.28-87.65 33.69-135.25 11.53a248.4 248.4 0 0 0 39.42 2c-8-6.88-21.15-12.23-29.32-18.46 11.65.35 23.73-2.71 30.63-10.9-22-8.82-46.64-16-67.54-24.22 27.55-9.68 66.79-6.9 92.87 6.05-9.6-21.75-37.18-33.72-57.8-38.43 52.8 15.68 133.46 11.35 147.74 81.58-9.55-11.11-9.86.09-15 .32z" fill="#d9a362"/><path d="M585.16 1432.08c-4.31-10.59 2.4 4.24 4.84 7.65a117.2 117.2 0 0 0 20.66 23c14.32 12.65 30.19 21.61 42.9 35.94 25.88 29.16 29.23 57.22 8.34 92.45-20.22-32.2-68.36-31.23-86.49-64.08-11.46-20.77-9.73-91.08 12.21-96.75z" fill="#d9a362"/><path d="M732.32 1580.18c6.45 44.6-18.26 56.93-37.91 89.61-4.53-28.9-32.82-49.42-37.27-77.65-4.37-27.77 15.35-53.34 13.11-83.32 35.75 6.44 58.31 45.3 62.07 71.36z" fill="#e1b581"/><path d="M642.09 1565.2c-30.13 14-26.82 63.54-10.85 92 15.44 27.57 44.59 33.81 66.17 53.43 15.87-55.09-42.29-152.3-37.55-147.23-.01.04-13.72-.07-17.77 1.8z" fill="#cc945c"/><path d="M673.47 1775.32c30.36-61.15-9.93-122.6 53.77-163.36 63.57 51.52 25.76 167.27-53.77 163.36z" fill="#d9a362"/><path d="M640.08 1669.48c-47.44 26-22.17 119.28 5.52 150.83 11.15-23.84 42.9-50 46.88-76.65 4.92-32.98-52.4-74.18-52.4-74.18z" fill="#e1b581"/><path d="M719.35 1835.16c-19.58 23.91-59.76 32.87-89.54 28.3C670 1836.36 651.68 1735 737.38 1756c-2.46 2.09 28.23 22.65-18.03 79.16z" fill="#cc945c"/><path d="M567.5 1810.38c-8.11 32.38 13.21 62.6 11.59 93.35 22.83-15.19 45-19.38 63.91-65.67 12.29-30.11-4.23-73.66-28.07-86.74-.01 0-40.33 30.68-47.43 59.06z" fill="#d9a362"/><path d="M550.41 1923.56c44.11-18.57 86.34-88 142.7-72.77-13.79 75.16-94.75 153.88-142.7 72.77z" fill="#e1b581"/><path d="M504.22 1927c19 3.74 50.44 6.1 66.44-7 34-27.75 7.36-73 3.64-72 0 0-61.23-15.48-70.08 79z" fill="#cc945c"/><path d="M523.3 1995.64c-34.75 12.63-70.72-17.85-73.94-54.4 22 0 34.49 20.13 56.38 13.56 13.7-4.1 51.81-50.91 62.54-31 0 .04 21.51 47.69-44.98 71.84z" fill="#d9a362"/><path d="M481.44 1878.12c-25.83-2.08-45.84 16.82-66.71 27.47 23.75 47.65 101.08 61.21 128.6 17.68-1.33-2.64-41.41-43.5-61.89-45.15z" fill="#e1b581"/><path d="M337.29 1940.28c-56.66 27.43-64.71-57.16-55-88.4 69.71 27.5 55 88.4 55 88.4z" fill="#e1b581"/><path d="M321.14 1878.6c44.06 36 106.67 13.35 148.59 65.23-56.01 63.71-151.33 31.4-148.59-65.23z" fill="#cc945c"/><path d="M365.81 1839.27c-26.7-2.88-61 .72-83.51 12.6 23.87 14.55 103.79 110.26 144.88 68.23 0 .01 5.26-73.63-61.37-80.83z" fill="#d9a362"/><path d="M228.2 1837.81c50.21 22.72 95.29 19 119.14-.44-4.66 3.16-52.34-92.2-119.14.44z" fill="#e1b581"/><path d="M233.1 1831.31c-27.21 25.83 18.47 70.1 46.73 63.55 8.54-43.75 18.47-49.53-47.35-59.76z" fill="#d9a362"/><path d="M238.6 1826.47c-4.66 2-6.9 7.94-8.48 12.38-2 5.61-10.31 1.59-8.34-4 2.52-7.11 6.53-14 13.71-17.1 5.47-2.38 8.53 6.33 3.1 8.69z" fill="#fff"/><path d="M2180.14 322.8c-38.28-.07-76.75-3.61-114.06-12.3-33.08-7.7-70.08-20.5-92.91-47.1 12.06.87 24 4.38 35.57 7.45 16 4.24 32.07 8.55 48.49 11.11 31 4.82 63.29 1.22 84.33-24.36 15.82-19.22 25.83-51.58 15.85-75.68-7.65-18.47-26.7-26.65-45.45-28.66-30.15-3.23-61.71 8.2-86.72 24.29-28.07 18.05-49.83 45.46-58.21 77.9-1.75-2.3-5.35-.67-5.14 1.66a3.16 3.16 0 0 0-3.36 0c-12.82-3.44-24.68-11.26-36.29-17.34-13.78-7.22-28.28-14.3-43.84-16.5-33.3-4.69-49.74 27.92-54.89 56.18-10.16 55.77 82.23 9.78 101.34.71 11.42-5.42 22.66-11.43 34.34-16.31 27.15 67.85 91.21 103.49 157 127.57 3.36 1.23 4.8-4.12 1.47-5.34-64.53-23.61-128.24-58.71-154.09-126.09 22.18 30.93 60.67 45.59 96.26 54.67 39.08 10 80 13.59 120.29 13.66 3.59.03 3.59-5.51.02-5.52zm-284.89-35.29c-12 5.07-24.4 9.7-37.19 12.5-8 1.75-19.88 3.8-26.43-2.66-8.06-8-1-25 2.23-33.47 6.74-17.73 15.8-34.88 36.92-35.56 29.77-1 54.6 22.53 81.47 32.53-19.25 8.39-37.68 18.52-57 26.66zm201.5-129c20.5-1.31 44.37 3.68 54.62 23.43 13.61 26.19-3.39 64.76-23.8 82-23.29 19.62-57.3 15.6-84.8 9.75-23.2-4.94-46.74-14.71-70.64-15.88 13.87-55.19 68.62-95.69 124.62-99.28z" fill="#fff"/><path d="M133 1994.6c8.3-30.11 19.38-59.62 34.26-87.12 13.18-24.36 31.24-50.73 57.09-63-3.28 9.3-8.61 17.93-13.52 26.4-6.79 11.72-13.64 23.4-19.19 35.77-10.47 23.34-14.59 49.55 1 71.62 11.73 16.6 35 31.44 56.15 28.78 16.19-2 26.73-15.27 32.35-29.6 9-23 6.84-50.34-.43-73.5-8.16-26-25-49-48.77-62.59 2.19-.88 1.68-4.06-.2-4.41a2.58 2.58 0 0 0 .7-2.65c5.47-9.35 14.18-17 21.47-24.83 8.65-9.29 17.35-19.18 22.43-31 10.86-25.19-11.27-45.16-32.4-55.3-41.71-20-25.41 62.62-22.39 79.62 1.81 10.16 4.11 20.29 5.44 30.54-59.25 6.76-101.11 49.5-134.23 96.1-1.69 2.38 2.21 4.66 3.88 2.31 32.49-45.71 73.83-88.29 132.44-94.12-29.12 10.79-49 37.94-63.77 64-16.26 28.62-27.94 60.07-36.67 91.74-.81 2.86 3.55 4.05 4.36 1.24zm89.12-216.6c-1.4-10.57-2.38-21.29-1.83-32 .35-6.69 1.29-16.47 7.79-20.23 8-4.63 19.92 4.63 25.87 9 12.5 9.12 24.05 20 20 36.72-5.67 23.64-29.5 38.12-43.16 57.11-2.43-16.95-6.43-33.67-8.67-50.6zm58.11 186.39c-3.39 16.42-12.46 34.12-30.21 38-23.54 5.06-50.24-16.62-59.38-36.39-10.43-22.56.06-48.46 10.59-68.84 8.88-17.2 21.64-33.62 27.71-52.18 40.44 22.73 60.53 74.53 51.29 119.38z" fill="#fff"/><path d="M625 472.06a321.38 321.38 0 0 1 32.36-29.41q-3.44 2.64.29-.22c2-1.5 4-3 5.94-4.42 3.37-2.48 6.81-4.87 10.26-7.24 7.1-4.88 14.39-9.48 21.76-13.93a490.83 490.83 0 0 1 45.36-24c8.82-4.14 16-7.14 21.62-9.4 8.79-3.52 17.7-6.72 26.67-9.76A517.58 517.58 0 0 1 841.88 359c9.39-2.11 18.85-3.86 28.35-5.41q2.85-.46 5.7-.88c-.18 0 9.18-1.23 4.3-.62 4.75-.59 9.52-1.07 14.29-1.5a401.73 401.73 0 0 1 56.95-1.1c4.69.24 9.38.62 14.06 1q2.8.26 5.59.57c-.21 0 8.9 1.11 4.25.46 9.2 1.28 18.32 3.08 27.37 5.17 14.21 3.28 28.91-4.28 32.88-18.75 3.74-13.63-4.55-29.6-18.75-32.88-79-18.23-162.28-9-238.75 15.94-70 22.88-139.88 59.56-191.18 113.36-10 10.54-10.32 27.46.2 37.85 10.23 10.1 27.78 10.36 37.85-.2z" fill="#fdf8f4"/><path d="M1533 720.06c26.64 33 41.95 74 52.76 114.55 10.74 40.26 16.56 81.74 19.81 123.23 1.38 17.69 29.08 18 27.69.2-6.95-88.79-23.28-186.43-80.78-257.66-4.74-5.87-14.73-4.81-19.58.11-5.73 5.81-4.63 13.71.11 19.58z" fill="#f8e9d4"/><path d="M602.64 2290.68c3.08-27.39 29.51-22.64 35.16-4 5 16.73-18.13 38.59-29.45 48-13.68-11-45-20-39.82-39.35 8.94-33.47 34.11-4.65 34.11-4.65z" fill="#c19c8e"/><path d="M643.84 2027.44c3.08-27.39 29.51-22.65 35.16-4 5 16.73-18.13 38.59-29.45 48-13.68-11-45-20-39.82-39.35 8.94-33.48 34.11-4.65 34.11-4.65z" fill="#c19c8e"/><path d="M469.15 2145.26c3.08-27.39 29.51-22.65 35.16-4 5 16.73-18.13 38.59-29.45 48-13.68-11-45-20-39.82-39.35 8.96-33.47 34.11-4.65 34.11-4.65z" fill="#c19c8e"/><path d="M789.33 1901.39c3.08-27.39 29.51-22.64 35.16-4 5 16.73-18.13 38.59-29.45 48-13.68-11-45-20-39.82-39.35 8.94-33.47 34.11-4.65 34.11-4.65z" fill="#c19c8e"/><path d="M434.83 1743.91c3.08-27.38 29.51-22.64 35.16-4 5 16.73-18.13 38.59-29.45 48-13.68-11-45-20-39.82-39.36 8.95-33.46 34.11-4.64 34.11-4.64z" fill="#c19c8e"/><path d="M737.15 2139.56c3.08-27.39 29.51-22.64 35.16-4 5 16.72-18.13 38.59-29.45 48-13.68-11-45-20-39.82-39.35 8.96-33.46 34.11-4.65 34.11-4.65z" fill="#c19c8e"/><path d="M744.52 2417.65c3.08-27.39 29.51-22.64 35.16-4 5 16.73-18.13 38.59-29.45 48-13.68-11-45-20-39.82-39.35 8.94-33.46 34.11-4.65 34.11-4.65z" fill="#c19c8e"/><path d="M992.83 1658c3.08-27.38 29.51-22.64 35.16-4 5 16.73-18.13 38.59-29.45 48-13.68-11-45-20-39.82-39.35 8.94-33.52 34.11-4.65 34.11-4.65z" fill="#c19c8e"/><path d="M543.33 1584.3c3.08-27.39 29.51-22.64 35.16-4 5 16.73-18.13 38.59-29.45 48-13.68-11-45-20-39.82-39.35 8.94-33.47 34.11-4.65 34.11-4.65z" fill="#c19c8e"/><path d="M1405.34 2237.71c3.08-27.39 29.51-22.65 35.16-4 5 16.73-18.13 38.59-29.45 48-13.68-11-45-20-39.82-39.36 8.94-33.46 34.11-4.64 34.11-4.64z" fill="#c19c8e"/><path d="M1332.13 2299.93c-10.35-31-38.91-64.54-72.61-75.92-17-5.73-95.49-20.35-115 21.74-22.5 48.55 43.5 86 60.2 128 20.44 51.43-27 132.76 35.54 143.6 72.51 12.59 114.4-150 91.87-217.42z" fill="#f0ceab"/><path d="M1152.14 2216.33c-2.76-13.46-20.29-27.13-33.34-30.46-16.69-4.25-27.46 14.05-20.06 26.11 12.86 21.02 59.11 32.21 53.4 4.35z" fill="#f0ceab"/><path d="M1163.93 2196.4c1.19 7.73 11.82 32.7 27.71 14.56 23.36-26.69-32.06-42.8-27.71-14.56z" fill="#f0ceab"/><path d="M1197.54 2193.39c-1.48 6.24 10.1 31.21 23.23 10.83 10.55-16.37-20.2-23.5-23.23-10.83z" fill="#f0ceab"/><path d="M1254.87 2206.76c12.22-14.94-20.49-28.09-15.23 3.09 0-.01 1.66 13.51 15.23-3.09z" fill="#f0ceab"/><path d="M1270.08 2216.81c10.34-5.87-4.6-25.41-10-4.37-.64 2.64-1.19 10.72 10 4.37z" fill="#f0ceab"/><path d="M870.08 2424.61c13.58-29.71 45.54-60.05 80.26-67.79 17.47-3.9 97.12-10.1 112 33.82 17.21 50.66-52.38 80.87-73.45 120.88-25.79 49 12.71 134.87-50.59 139-73.39 4.84-97.78-161.27-68.22-225.91z" fill="#f0ceab"/><path d="M1055.53 2358.47c4.17-13.11 23.05-24.83 36.39-26.74 17-2.45 25.82 16.89 17.18 28.09-15.04 19.48-62.22 25.75-53.57-1.35z" fill="#f0ceab"/><path d="M1045.91 2337.41c-2 7.56-15.23 31.27-29.1 11.54-20.41-29.03 36.43-39.16 29.1-11.54z" fill="#f0ceab"/><path d="M1012.81 2330.85c.81 6.36-13.36 30-24.25 8.3-8.75-17.4 22.59-21.23 24.25-8.3z" fill="#f0ceab"/><path d="M954.39 2338c-10.57-16.16 23.36-25.76 14.82 4.69-.01.05-3.09 13.31-14.82-4.69z" fill="#f0ceab"/><path d="M938.2 2346.43c-9.66-6.94 7.28-24.78 10.38-3.29.42 2.7.07 10.79-10.38 3.29z" fill="#f0ceab"/><path d="M1256.43 2258.2c35.7 12.56 50.18 53.19 42.87 88.12-3.65 17.42 23 24.78 26.7 7.31 10.57-50.5-11.65-104.34-62.26-122.14-16.89-5.94-24 20.83-7.31 26.7z" fill="#f8e9d4"/><path d="M1031.78 2397.71c-3.84 21.73-15.84 39.51-33.42 52.63-14.29 10.66 2 33.06 16.35 22.34 23.27-17.37 39.3-41.66 44.38-70.4 3.11-17.61-24.2-22.13-27.31-4.58z" fill="#f8e9d4"/><path d="M949.09 2580.94c2.9 16.72 1 35.53-14.79 45-5.17 3.08-5.36 11.15-2 15.48 4 5.18 10.32 5.1 15.48 2 22.18-13.23 27.32-41.61 23.22-65.27-2.42-14-24.34-11.25-21.9 2.8z" fill="#f8e9d4"/><path d="M1222.95 2504.51c16.68 10.09 37.78 7.13 51.95-6 7-6.47-3.51-16.85-10.5-10.39a28.36 28.36 0 0 1-34.07 3.58c-8.16-4.93-15.52 7.86-7.38 12.78z" fill="#f8e9d4"/></g></g></svg>