<svg xmlns="http://www.w3.org/2000/svg" viewBox="-0.1618499755859375 0 104.42184448242188 3.830000877380371"><defs><linearGradient id="a" x1="47.84" y1="1.66" x2="47.96" y2=".16" gradientUnits="userSpaceOnUse"><stop offset="0" stop-color="#bfa68a"/><stop offset="1" stop-color="#40372e"/></linearGradient></defs><title>Asset 33</title><g data-name="Layer 2"><path d="M.52.33a3.25 3.25 0 0 0 0 3.5h62.33c8 0 26.42-1.2 27.25-1 1 .67 4.33.5 4.67-.92s-3.31-.92-4.83 0C85.94 1.8 63 .33 63 .33z" fill="#c9af91"/><path d="M9.69.33a3.25 3.25 0 0 0 0 3.5H72c8 0 26.42-1.2 27.25-1 1 .67 4.33.5 4.67-.92s-3.31-.92-4.83 0C95.11 1.8 72.19.33 72.19.33z" fill="#e8c9a7"/><path d="M40.89.33s1.63.58 0 3.5h2.63a2.58 2.58 0 0 0 0-3.5z" fill="#404040"/><path d="M44.61.33s2 1.71.25 3.5h1a2.26 2.26 0 0 0 0-3.5z" fill="#404040"/><path d="M24.88 2.63c.07.19-.08.58-.24.23a.94.94 0 0 1-.06-.42 1.12 1.12 0 0 0 .21-.59 1.45 1.45 0 0 0 0-.93h-.15a3.25 3.25 0 0 0-.17 1.2v.3a.48.48 0 0 1-.36-.06h-.16a.29.29 0 0 0 0 .06h-.14c0-.05-.16 0-.17 0a.19.19 0 0 0 0 .07c0 .13-.06.4-.21.16a1.3 1.3 0 0 1-.09-.3h-.15v.44s0 .35-.07.3a.83.83 0 0 1-.23-.47v-.1a1.88 1.88 0 0 0 .24-1h-.11a2.66 2.66 0 0 1-.14.78c0-.37 0-.87.07-.84s.14 0 .1 0c-.39-.18-.37.61-.31 1.13 0 0-.06 0 0 0a.45.45 0 0 1-.08.21c-.22.32-.45 0-.5-.2a2.25 2.25 0 0 0 0-.28.67.67 0 0 0 0-.41L22 2s-.06.39 0 .57 0 .09 0 .14a.78.78 0 0 1-.15.3c-.28.35-.39-.37-.26-.41s.06-.06 0 0c-.29.07-.23.62.07.63a.5.5 0 0 0 .34-.31.29.29 0 0 0 .21.17.59.59 0 0 0 .53-.15c.06.17.27.45.48.28a.45.45 0 0 0 .1-.36.19.19 0 0 0 .12 0 .32.32 0 0 0 .29-.25.4.4 0 0 0 .2-.07.41.41 0 0 0 .47 0 .83.83 0 0 0 .15.48c.28.38.59-.22.49-.47-.04 0-.17.04-.16.08zm-.2-1.48a1.76 1.76 0 0 1 0 .51V2a4 4 0 0 1 .01-.85z" fill="#404040"/><path d="M30.19 2.68c-.11.27-.46-.06-.68-.33a1.33 1.33 0 0 0 .09-.86c0-.13-.11-.56-.32-.54-.66.06-.23 1.12 0 1.4l.06.06a.3.3 0 0 1-.47 0c.07-.08.07-.16-.09-.22s-.15 0-.15.05a.39.39 0 0 0 .05.21h-.07c-.17.08-.29.08-.36 0a.19.19 0 0 0 0-.27h-.08c-.17 0-.18.15-.12.24a.31.31 0 0 1-.16 0 .57.57 0 0 0 .07-.52c0-.07-.16-.08-.22 0s-.13.37-.08.54a.29.29 0 0 0 0 .09c-.2.25-.37.16-.48 0a.88.88 0 0 0-.18-.89.12.12 0 0 0-.15 0 1.23 1.23 0 0 0 .12.94c-.14.21-.41.3-.51 0a2.91 2.91 0 0 1 0-1.07h-.12c0 .28-.26 1.38.27 1.4a.54.54 0 0 0 .48-.23.37.37 0 0 0 .21.06.67.67 0 0 0 .44-.18.4.4 0 0 0 .39 0 .43.43 0 0 0 .27.07.89.89 0 0 0 .28-.1.53.53 0 0 0 .7 0c.28.26.84.63.95.17.03-.09-.12-.06-.14-.02zm-3.12-.28a1 1 0 0 1-.07-.58 1 1 0 0 1 .07.58zm.75-.24a1.15 1.15 0 0 1-.05.17.82.82 0 0 1 0-.33c.08 0 .1.07.05.16zm1.58.05l-.09-.13a1.92 1.92 0 0 1-.16-.44 1.16 1.16 0 0 1 0-.36c0-.13 0-.16.19-.09a1.45 1.45 0 0 1 .14.64 1.1 1.1 0 0 1-.08.38z" fill="#404040"/><path d="M48.83 0l.38 3.83H47.4s1.18-.83 1.18-1.75a2.27 2.27 0 0 0-.66-1.47C47.75.41 46.4.33 46.4.33z" fill="url(#a)"/><path fill="#bd2d2d" d="M48.83 0h22.19l.25 3.83H49.21L48.83 0z"/><path fill="#ffdbdb" d="M62.02 0l.31 2.38h6.94V0h-7.25z"/><path d="M51.27.92l.09.26.16.53h8.88V.92h-9.13z"/></g></svg>