<svg xmlns="http://www.w3.org/2000/svg" viewBox="0 -0.10157966613769531 80.75 142.38157653808594"><title>Depositphotos_118113774_52_ic</title><g data-name="Layer 2"><g data-name="Layer 1"><path d="M67 61a10 10 0 0 1-17.71 0 10 10 0 0 1-17.7 0 10 10 0 0 1-17.7 0 10 10 0 0 1-8.62 5.38l8.28 64.19a11.65 11.65 0 0 0 11.56 10.17h30.65a11.67 11.67 0 0 0 11.56-10.17l8.28-64.14A9.93 9.93 0 0 1 67 61zm-1.91 46.3l-13.57 13.6L37 106.34l-4.88 4.88-16.81-16.77 16.77-16.77L40 85.62l15.48-15.46L70.42 85.1l-13.8 13.8z" fill="#5cc5c0"/><path d="M0 37.54l12 93.27a13.18 13.18 0 0 0 13 11.47h30.75a13.19 13.19 0 0 0 13-11.47l12-93.27zm49.79 3l-1.56 11.1a1.5 1.5 0 0 0 1.28 1.69h.21a1.5 1.5 0 0 0 1.48-1.29l1.62-11.52h24.6l-3.13 24.27a8.44 8.44 0 0 1-6-4.43L67 57.79l-1.33 2.57a8.46 8.46 0 0 1-15 0l-1.4-2.56-1.33 2.57a8.46 8.46 0 0 1-15 0l-1.33-2.57-1.33 2.57a8.46 8.46 0 0 1-15 0l-1.33-2.57-1.33 2.57a8.44 8.44 0 0 1-6 4.43L3.41 40.54zm16 89.89a10.18 10.18 0 0 1-10.07 8.86H25.08A10.18 10.18 0 0 1 15 130.43L6.92 67.77a11.41 11.41 0 0 0 6.93-4 11.46 11.46 0 0 0 17.71 0 11.46 11.46 0 0 0 17.71 0 11.46 11.46 0 0 0 17.71 0 11.41 11.41 0 0 0 6.93 4z" fill="#fff"/><path d="M52.6 32.18h.24a1.5 1.5 0 0 0 1.48-1.27L57.61 10l22-7.1a1.5 1.5 0 0 0-.95-2.83L54.94 7.74l-3.59 22.72a1.5 1.5 0 0 0 1.25 1.72z" fill="#fff"/><path d="M45.84 85.1l9.64 9.64 9.64-9.64-9.64-9.64zm9.64 5.4l-5.4-5.4 5.4-5.4 5.4 5.4z" fill="#fff"/><path d="M32.08 83L20.61 94.45l11.47 11.47 11.46-11.47zm-7.22 11.45l7.22-7.22 7.22 7.22-7.22 7.22z" fill="#fff"/><path d="M43.27 107.35l8.25 8.24 8.24-8.24-8.24-8.25zm8.25 4l-4-4 4-4 4 4z" fill="#fff"/></g></g></svg>