<svg xmlns="http://www.w3.org/2000/svg" viewBox="0 0 135 60.69999694824219"><title>19131195_3_ic</title><g data-name="Layer 2"><g data-name="Layer 1"><g data-name="Layer 2"><path d="M67.5 0C30.22 0 0 8.36 0 18.68V42c0 10.34 30.22 18.7 67.5 18.7S135 52.34 135 42V18.68C135 8.36 104.78 0 67.5 0zm0 13c19 0 35.9 2.24 46.84 5.72 7.6 2.42 12.31 5.45 12.82 8.75-11.34 5.91-33.8 9.93-59.66 9.93s-48.32-4-59.66-9.93c.51-3.3 5.22-6.32 12.82-8.75C31.59 15.19 48.51 13 67.5 13zM31.16 48.22a2 2 0 0 1-1.45.54 4.21 4.21 0 0 1-1.71-.43 4.21 4.21 0 0 1-1.75.43 2 2 0 0 1-1.45-.54c-.7-.7-.69-1.94-.11-3.2a3 3 0 0 1-.06-3 1.74 1.74 0 0 1 .17-.2 2 2 0 0 1 1.45-.54 4.21 4.21 0 0 1 1.75.43 4.22 4.22 0 0 1 1.75-.43 2 2 0 0 1 1.45.54 1.64 1.64 0 0 1 .17.2 3 3 0 0 1-.06 3c.55 1.27.56 2.5-.15 3.2zM49 52.63a3 3 0 0 1-2.18.8 6.37 6.37 0 0 1-2.62-.64 6.35 6.35 0 0 1-2.62.64 3 3 0 0 1-2.18-.8c-1-1-1-2.9-.16-4.8-.88-1.9-.89-3.75.16-4.8a3 3 0 0 1 2.18-.81 6.34 6.34 0 0 1 2.62.65 6.35 6.35 0 0 1 2.62-.65A3 3 0 0 1 49 43c1 1 1 2.9.16 4.8.84 1.92.84 3.77-.16 4.83zm25 3.48a4 4 0 0 1-3 1.07 8.46 8.46 0 0 1-3.5-.86 8.45 8.45 0 0 1-3.5.86 4 4 0 0 1-2.91-1.08c-1.41-1.41-1.39-3.87-.21-6.41-1.17-2.53-1.19-5 .21-6.41A4 4 0 0 1 64 42.21a8.46 8.46 0 0 1 3.5.86 8.48 8.48 0 0 1 3.5-.86 4 4 0 0 1 2.91 1.08c1.4 1.41 1.39 3.88.21 6.41 1.17 2.53 1.19 5-.22 6.4zm20.5-3.48a3 3 0 0 1-2.18.8 6.36 6.36 0 0 1-2.62-.64 6.36 6.36 0 0 1-2.62.64 3 3 0 0 1-2.18-.8c-1.05-1-1-2.9-.16-4.8-.88-1.9-.89-3.75.16-4.8a3 3 0 0 1 2.1-.81 6.35 6.35 0 0 1 2.62.65 6.35 6.35 0 0 1 2.62-.65 3 3 0 0 1 2.16.78c1.05 1 1 2.9.16 4.8.88 1.92.89 3.77-.16 4.83zM110.34 45c.59 1.26.6 2.5-.11 3.2a2 2 0 0 1-1.45.54 4.22 4.22 0 0 1-1.75-.43 4.2 4.2 0 0 1-1.75.43 2 2 0 0 1-1.45-.54c-.7-.7-.69-1.94-.11-3.2a3 3 0 0 1-.06-3 1.72 1.72 0 0 1 .17-.2 2 2 0 0 1 1.45-.54 4.21 4.21 0 0 1 1.75.43 4.23 4.23 0 0 1 1.75-.43 2 2 0 0 1 1.45.54 1.72 1.72 0 0 1 .17.2 3 3 0 0 1-.06 3z" fill="#fff" data-name="Layer 1-2"/></g></g></g></svg>