<svg xmlns="http://www.w3.org/2000/svg" viewBox="-0.8057432174682617 -0.7117300033569336 90.89363861083984 76.8148193359375"><title>Depositphotos_63919509_04</title><g data-name="Layer 2"><g data-name="Layer 1"><g data-name="Layer 2"><g data-name="Layer 1-2"><path fill="#ef4247" d="M48.52 15.04l6-4.86 19.56 24.13-5.99 4.86-19.57-24.13z"/><path d="M51 25.91l7.25 8.94a4.42 4.42 0 0 1-.65 6.2l-1.88 1.52a4.42 4.42 0 0 1-6.21-.65L42.29 33a4.42 4.42 0 0 1 .65-6.2l1.88-1.53a4.42 4.42 0 0 1 6.21.65z" fill="#fdc48e"/><path d="M34.89 37.67l8.51 10.5a5.2 5.2 0 0 1-.76 7.29l-2.21 1.79a5.2 5.2 0 0 1-7.29-.76L24.63 46a5.2 5.2 0 0 1 .76-7.29l2.21-1.79a5.2 5.2 0 0 1 7.29.76z" fill="#f48729"/><path fill="#ef4247" d="M9.9 47.97l5.71-4.62 18.62 22.96-5.71 4.62L9.9 47.97z"/><path d="M74.15 5.14l8.73 10.76a5.33 5.33 0 0 1-.78 7.47l-2.27 1.84a5.33 5.33 0 0 1-7.47-.78l-8.73-10.76a5.33 5.33 0 0 1 .78-7.47l2.27-1.84a5.33 5.33 0 0 1 7.47.78z" fill="#f48729"/><path d="M13.06 61.18l4.41-3.57L8.08 46a1 1 0 0 1 .08-1.41l.07-.06 6.16-5a1 1 0 0 1 1.41.08l.06.07 9.4 11.59 1.74-1.4L23.07 45a6.68 6.68 0 0 1 1-9.37l2.39-1.94a6.68 6.68 0 0 1 9.37 1l4 4.88 4.54-3.77-3.06-3.8a5.59 5.59 0 0 1 .82-7.85l1.93-1.57a5.59 5.59 0 0 1 7.85.82L55 27.21l2.14-1.73-9.4-11.59a1 1 0 0 1 .08-1.41l.07-.06 6.16-5a1 1 0 0 1 1.41.08l.06.07 9.4 11.59 1.71-1.38-4-4.88a6.68 6.68 0 0 1 1-9.37L66 1.59a6.68 6.68 0 0 1 9.37 1l4 4.88L88.25.23a1 1 0 0 1 1.32 1.63l-8.9 7.22L84.62 14a6.68 6.68 0 0 1-1 9.37l-2.4 1.94a6.68 6.68 0 0 1-9.37-1l-4-4.87-1.71 1.38 9.4 11.59a1 1 0 0 1-.08 1.41l-.07.06-6.16 5a1 1 0 0 1-1.41-.08l-.06-.07-9.33-11.63-2.13 1.73 3.06 3.78a5.59 5.59 0 0 1-.82 7.85L56.61 42a5.59 5.59 0 0 1-7.85-.82l-3.07-3.78-4.61 3.74L45 46l.11.14a6.68 6.68 0 0 1-1 9.24l-.13.11-2.33 1.89a6.68 6.68 0 0 1-9.37-1l-4-4.88-1.68 1.42 9.4 11.6a1 1 0 0 1-.07 1.41l-.08.07-6.16 5a1 1 0 0 1-1.41-.08l-.06-.07-9.4-11.6-4.31 3.5a8 8 0 0 1-1 10.31 8 8 0 0 1-11.31-.29 8 8 0 0 1 .28-11.25 8 8 0 0 1 10.61-.32zM83 15.27L73.77 3.89a4.59 4.59 0 0 0-6.43-.67L65 5.16a4.59 4.59 0 0 0-.67 6.43L73.5 23a4.59 4.59 0 0 0 6.43.67l2.39-1.94a4.59 4.59 0 0 0 .68-6.45zM54.53 9.7L50 13.38l18.8 23.18 4.53-3.68zm3.2 24.23l-7.45-9.18a3.5 3.5 0 0 0-4.9-.51l-1.93 1.56a3.5 3.5 0 0 0-.45 4.91l7.45 9.18a3.5 3.5 0 0 0 4.91.51l1.93-1.57a3.5 3.5 0 0 0 .52-4.91zM43.41 47.36L34.19 36a4.59 4.59 0 0 0-6.43-.67l-2.39 1.92a4.59 4.59 0 0 0-.67 6.43l9.22 11.38a4.59 4.59 0 0 0 6.43.67l2.39-1.94a4.59 4.59 0 0 0 .67-6.43zm-28.52-5.52l-4.54 3.68L29.16 68.7l4.53-3.7zm-2.71 21.39A5.88 5.88 0 0 0 3.89 63a5.88 5.88 0 0 0-.2 8.3 5.88 5.88 0 0 0 8.29.2 5.88 5.88 0 0 0 .2-8.3z" fill="#6d6e71"/></g></g></g></g></svg>