<svg xmlns="http://www.w3.org/2000/svg" viewBox="-0.055411338806152344 -2.7398996353149414 78.92985534667969 91.5706787109375"><title>Depositphotos_113048894_01</title><g data-name="Layer 2"><g data-name="Layer 1"><g data-name="Layer 2"><g data-name="ÎÓÈ 2"><path d="M49.38 48.79c-4.83-3.74-8.57-4.9-11.1-3.44-1.56.89-2.57 2.69-3.22 4.86a.51.51 0 0 1 0 .12c-1.65 5.69-.85 13.89-.66 15.61a.5.5 0 0 1 .18.19l5.4 3.4c1.82-1 12.6-7.11 13.22-13.78.18-2.51-1.09-4.85-3.82-6.96z" fill="#a3ddf2"/><path d="M37.84 0C18.2 0 1.54 16.25.44 35.79h23.44c.16 0 .16-.16.25 0l10.52 15c.7-1.93 2-5 3.7-5.56 3.25-1 5.62-.59 10.62 3.27 2.91 2.25 4.25 4.41 4 7.18-.27 3-2.87 6.43-5.33 8.74h16.09A38.64 38.64 0 0 0 75.14 37c0-20.34-16.96-37-37.3-37z" fill="#faab64"/><path fill="#a3ddf2" d="M26.48 79.08l5.42 4.25 2.43-3.97-5.31-4.65-2.54 4.37z"/><path fill="#a3ddf2" d="M23.58 84.48l5.1 3.68 3.01-4.91-5.08-3.97-3.03 5.2z"/><path fill="#a3ddf2" d="M29.14 74.82l5.04 4.42 6.19-10.09-5.8-3.65-5.43 9.32z"/><circle cx="41.61" cy="55.67" r="3.25" fill="#a3ddf2"/><path d="M.5 36.33h23.41l10.23 14.18c-1.76 6.26-.65 15-.58 15.53a.48.48 0 0 0 0 .11L23 84.34a.5.5 0 0 0 .14.66l5.18 3.74a.5.5 0 0 0 .29.09h.1a.5.5 0 0 0 .29-.26L40.4 70a.49.49 0 0 0 .06-.17A44.14 44.14 0 0 0 47.61 65h16a.5.5 0 0 0 .34-.14 37.74 37.74 0 1 0-64-29 .5.5 0 0 0 .48.52zm28 51.24l-4.38-3.16 2.6-4.47L31 83.4zm3.11-5l-4.38-3.43 2.06-3.57 4.28 3.75zm2.49-4.07l-4.3-3.76 4.63-7.94 4.94 3.11zm5.81-9.43l-5.19-3.26a.48.48 0 0 0-.17-.19c-.19-1.65-1-9.53.63-15a.49.49 0 0 0 0-.12 7.67 7.67 0 0 1 3.09-4.67q3.66-2.1 10.67 3.31c2.63 2 3.85 4.28 3.63 6.69C52 62.21 41.62 68.09 39.87 69zm-2-68.5a36.92 36.92 0 0 1 36.81 36.87A36.54 36.54 0 0 1 63.42 64H48.73c2.46-2.31 4.56-5.11 4.83-8.09.25-2.77-1.09-5.31-4-7.57-5-3.86-9-5-11.78-3.38a8 8 0 0 0-3.25 4.39l-10-13.76a.5.5 0 0 0-.4-.21H1A36.78 36.78 0 0 1 37.84.57z" fill="#6d6e71"/><path d="M41.61 51.43a4.25 4.25 0 1 0 4.25 4.25 4.25 4.25 0 0 0-4.25-4.25zm0 7.49a3.25 3.25 0 1 1 3.25-3.25 3.25 3.25 0 0 1-3.25 3.25z" fill="#6d6e71"/><path d="M55.93 12.86c.07 0 6.57 3.89 10.52 15.33a.5.5 0 0 0 .47.34h.16a.5.5 0 0 0 .31-.63c-4.07-11.79-10.68-15.71-11-15.9a.5.5 0 0 0-.59.81l.09.05z" fill="#6d6e71"/><path d="M68.25 46.37a.5.5 0 0 0 .41.58h.09a.5.5 0 0 0 .49-.41 41.59 41.59 0 0 0 0-10.78.5.5 0 1 0-1 .13 41.35 41.35 0 0 1 .01 10.48z" fill="#6d6e71"/><path d="M21.93 29.57H7.51a18.06 18.06 0 0 1 2.88-7.51.5.5 0 0 0-.81-.58A19.09 19.09 0 0 0 6.45 30a.5.5 0 0 0 .46.54H22a.5.5 0 1 0 0-1z" fill="#6d6e71"/></g></g></g></g></svg>