<svg xmlns="http://www.w3.org/2000/svg" viewBox="-2.986666679382324 0 486.8366422653198 761.2999877929688"><title>Asset 2</title><g data-name="Layer 2"><g data-name="Layer 1"><path d="M282.75 131.55c-5.1-1.35-10.3 1.65-15.64 9a221 221 0 0 0-7.35 41.38q11.1 5.47 18.69-8.1 12.37-26.31 4.3-42.28z" fill="#eecfb2"/><path d="M263.45 146.19c-.7 3.2-1.45 6.45-2.3 9.8l-4.5 28.64a34.59 34.59 0 0 0 2.8 2.25q.07-2.47.3-4.95a221 221 0 0 1 7.35-41.38c-1.2 1.65-2.4 3.55-3.65 5.65z" fill="#c8866a"/><path d="M282.75 131.55q8.1 16-4.3 42.28-7.57 13.57-18.69 8.1-.23 2.47-.3 4.95c9 6.15 17.09 1 24.34-15.19 7.65-17.54 8.4-30.39 2.35-38.54a11.6 11.6 0 0 0-3.4-1.6z" fill="#e3b798"/><path d="M220.22 85.32l-2.25-.1a87.09 87.09 0 0 1-48-1.4q-32.31-3.22-44.93 17.84l2.75 13.59q-10.65 17-2.5 46.68l-6.45 1.2 2.8 23.94a81.87 81.87 0 0 0 13.09 37.83c1.15 1.75 2.4 3.5 3.7 5.25l26.69 33.24a5.22 5.22 0 0 0 .45.55q28.11 10.72 48.53-7.85l16.19-22.64q15.14-22.49 18.29-40.93l5.4-38.23c1.25-6.65 2.2-13 2.85-19.09l-12-23.94q11.92-24.82-24.64-25.94z" fill="#eecfb2"/><path d="M115.71 146.19a53.14 53.14 0 0 0-3.75-5.8c1.8 8.1 3.25 15.84 4.4 23.24a229.6 229.6 0 0 1 2.45 25.37 24.05 24.05 0 0 0 2.85-1.95l-2.8-23.94L118 156c-.85-3.35-1.6-6.6-2.3-9.8z" fill="#c8866a"/><path d="M93 133.15a15.4 15.4 0 0 0-1.25 1.9q12.67-1.87 18.44 16.34a116.08 116.08 0 0 1 3.65 12.69q4.12 19.72-6 24.84a10.4 10.4 0 0 0 10.95.1 229.6 229.6 0 0 0-2.45-25.39c-1.15-7.4-2.6-15.14-4.4-23.24Q102.22 127 93 133.15z" fill="#e3b798"/><path d="M113.86 164.08a116.08 116.08 0 0 0-3.65-12.69q-5.77-18.22-18.44-16.39-7 12.29 3.65 36.64 5.92 13.42 12.45 17.24 10.12-5.1 6-24.84z" fill="#eecfb2"/><path d="M268.9 116.35a96.51 96.51 0 0 0-.75-23.84q-8.17-56-72.67-57.23h-11.25q-65 1-73.17 57.23a99.37 99.37 0 0 0-.8 23.84q1 9.67 5.45 29.84c.7 3.2 1.45 6.45 2.3 9.8l.85 7.15 6.45-1.2q-8.17-29.61 2.5-46.68l-2.75-13.59Q137.65 80.59 170 83.82a87.09 87.09 0 0 0 48 1.4l2.25.1q36.59 1.12 24.64 25.94l12 23.94c-.65 6.1-1.6 12.44-2.85 19.09l-5.4 38.24q-3.15 18.44-18.29 40.93l-16.23 22.64q-20.39 18.52-48.53 7.85 8.47 11.1 26.64 11.35 21.22-2.47 28.34-15.59l24.64-37.33c.55-.9 1-1.8 1.55-2.7a71.23 71.23 0 0 0 9.9-35l4.5-28.64c.85-3.35 1.6-6.6 2.3-9.8Q268 126 268.9 116.35z" fill="#e3b798"/><path d="M246.76 219.66c-.5.9-1 1.8-1.55 2.7l-24.64 37.34q-7.12 13.12-28.34 15.59-18.14-.23-26.64-11.35a5.22 5.22 0 0 1-.45-.55l-26.69-33.24c-1.3-1.75-2.55-3.5-3.7-5.25q2.77 14.09 4.9 27.54c6.85 12.75 15.49 22.64 25.89 29.79q22.27 13 49.13 5.2a42.56 42.56 0 0 1 6.6-.2l-.15-1.3.15 1.3q13.95.6 20.59 11c0-1.85 0-3.65.1-5.5l.15-4.9q1-32.76 4.65-68.22z" fill="#d89c7a"/><path d="M265.65 316c-4.2.3-6.9 2.1-8 5.45l41.53 21.79-2.8-8-23.59-14.74-7.1-4.45z" fill="#d89c7a"/><path d="M274.5 313.47c1.75-3.9 4.65-5.6 8.65-5l1-8-22.89-6.8c4.85 6 6.35 13.5 4.4 22.44l7.1 4.45a23.79 23.79 0 0 1 1.75-7z" fill="#5b4655"/><path d="M284.14 300.38l-1 8a12.1 12.1 0 0 1 2.75.65l24.39 15.69 25.09 22.09.4-5 2.35-29.81.4-5q-25.72-13.42-54.38-6.65z" fill="#273850"/><path d="M241.86 298.28v5.15l7.9 3.55a23.23 23.23 0 0 0-7.76-14.2c0 1.85 0 3.65-.1 5.5z" fill="#30252e"/><path d="M241.81 303.43v-5.15q-6.67-10.42-20.59-11l5.9 52.08q-31 35.24-78.77 11a94.49 94.49 0 0 0 14.09 16.34Q198 398.34 239 343.86c1.1-1.45 2.2-3 3.3-4.55q9.45-19.49 7.4-32.34l-7.9-3.55z" fill="#e3b798"/><path d="M221.27 287.24a42.68 42.68 0 0 0-6.6.2q-26.84 7.8-49.13-5.2c-10.4-7.15-19-17-25.89-29.79q3.07 19.57 4.65 37.88c.25 2.85.45 5.65.65 8.45.25 3.75.5 7.5.65 11.2.35 7.1.5 14 .5 20.79 0 4.15.2 9.9.7 17.29.55.8 1 1.55 1.6 2.3q47.83 24.22 78.77-11l-5.9-52.08z" fill="#eecfb2"/><path d="M258 334.17c-3.75 1-6.25 2.7-7.4 5l36.24 20.49-5.15-9.45-23.69-16z" fill="#d89c7a"/><path d="M274 368l-20.94-15.34c-3.35.8-5.7 2.25-7 4.3l31.74 19.69L274 368z" fill="#d89c7a"/><path d="M360.46 320.27L338.12 312l-2.35 29.79a20.14 20.14 0 0 1 7.4 1.25c4.85 1.9 8.15 5.9 10 12l5.9 29.29a358.31 358.31 0 0 0 41.28 76.42l20.09-8.8q-29.46-100.31-60-131.75z" fill="#5b4655"/><path d="M145.6 310l-8.6 5.55q-2.18 14.62 9.79 32.54c-.5-7.4-.75-13.14-.7-17.29 0-6.75-.15-13.69-.5-20.79z" fill="#e3b798"/><path d="M137 315.52l8.6-5.55c-.15-3.7-.4-7.45-.65-11.2a32.33 32.33 0 0 0-7.95 16.75z" fill="#30252e"/><path fill="#fc0" d="M77.43 380.9l-2.75 39.78 64.57 104.96L77.43 380.9z"/><path fill="#c19a02" d="M105.32 376.7l-27.89 4.2 61.82 144.74v.05l16.65 27.04L83.53 384.4l20.54-2.95 82.41 182.62 5.3-1.19-86.46-186.18z"/><path fill="#f3f0ed" d="M104.07 381.45l-20.54 2.95 72.37 168.33 9.89 16.09 20.69-4.75-82.41-182.62z"/><path d="M191.78 562.87l-5.3 1.2-18.09 92.06c1.45-.15 2.95-.35 4.5-.55l2.85-13.94 16-78.77z" fill="#8f7301"/><path d="M172.89 655.59l-1.75 8c-8.75 7.85-24.89 12.39-48.38 13.54l26.64 1.4a51.29 51.29 0 0 0 14.84-1.1 35.11 35.11 0 0 0 4.45-1.35l7-5.15a22.38 22.38 0 0 0 2.9-2.85c5.45-6.7 4.45-15.49-2.9-26.44l-2.85 13.94z" fill="#d89c7a"/><path d="M112.76 589.27a13.4 13.4 0 0 0-3.75-3.8q6.07 21.06-16 37.33l6.1 7q22.19-22.42 13.69-40.53z" fill="#e3b798"/><path d="M400.35 460.82c2.55 3.55 5.15 7.1 7.8 10.6l15.54-8c-1.1-3.85-2.2-7.65-3.25-11.35l-20.09 8.8z" fill="#b19aad"/><path d="M423.69 463.36l-15.54 8c5.85 7.65 12 15.14 18.54 22.44 2.6 2.75 5 5.45 7.3 8.1-3.45-13.54-6.85-26.44-10.3-38.58z" fill="#d89c7a"/><path d="M328.08 429.33a114 114 0 0 1-43.33-28.24l56.88 121.35L373 581l23-13.94-67.92-137.73z" fill="#273850"/><path d="M257.61 321.47c1.15-3.35 3.85-5.15 8-5.45 1.95-8.95.45-16.39-4.4-22.44-4.35-4.65-10.75-6.55-19.14-5.7l-.15 4.9a23.23 23.23 0 0 1 7.79 14.22q2 12.82-7.4 32.34c-1.1 1.55-2.2 3.1-3.3 4.55a55.68 55.68 0 0 0-5.3 23.49Q221.57 389.1 189.88 387q-32.16-2.1-56-21.59 13.57 15.89 40.33 26.19 33.66 10.57 58.13-9.45L246.16 369c-1.95-5.2-2-9.2-.1-12 1.35-2 3.7-3.5 7-4.3-3.35-5.75-4.2-10.25-2.5-13.5 1.15-2.3 3.65-3.95 7.4-5-1.35-5.45-1.5-9.7-.4-12.69z" fill="#b19aad"/><path d="M283.14 308.43c-4-.55-6.9 1.15-8.65 5q31.86 13.87 72.77 51.28l3.74 27.88q26.31 66.2 72.37 132.45 24.06 38.61 4.45 73.62a33.14 33.14 0 0 0 10.7.5 82.62 82.62 0 0 0 11.09-13.74q23.47-37.26-15.64-83.47c-2.25-2.65-4.7-5.35-7.3-8.1-6.55-7.3-12.7-14.79-18.54-22.44-2.65-3.5-5.25-7-7.8-10.6a358.31 358.31 0 0 1-41.28-76.42l-5.9-29.29c-1.85-6.15-5.15-10.15-10-12l.6 11.2-8.4-7.4-25.09-22.09-24.39-15.69a12.1 12.1 0 0 0-2.75-.65z" fill="#e3b798"/><path d="M274.5 313.47a23.79 23.79 0 0 0-1.75 7l23.59 14.74 2.8 8-41.53-21.79c-1.1 3-1 7.25.4 12.69l23.69 16 5.15 9.45-36.24-20.49c-1.7 3.25-.85 7.75 2.5 13.5L274 368l3.75 8.65L246.06 357c-1.9 2.85-1.85 6.85.1 12l23 12.6a138.84 138.84 0 0 0 15.59 19.49 114 114 0 0 0 43.33 28.24L396 567.07q13 27.44 31.84 31.59 19.64-35-4.45-73.62-46.11-66.2-72.39-132.45l-3.75-27.84q-40.93-37.41-72.77-51.28z" fill="#eecfb2"/><path d="M233.72 367.35a55.67 55.67 0 0 1 5.3-23.49q-41 54.5-76.52 22.84-31.41-23.17-30-49.33l-1.95-17.19a59.92 59.92 0 0 0-9.9 15.89q-4 29.16 13.19 49.38 23.92 19.49 56 21.59 31.71 2 43.83-19.69z" fill="#c8b5c2"/><path d="M343.17 343.06a20.14 20.14 0 0 0-7.4-1.25l-.4 5 8.4 7.4-.6-11.2z" fill="#d89c7a"/><path d="M120.66 316.07c-3.1 2.15-6.35 4.25-9.7 6.4a64.38 64.38 0 0 0 8.25 37.33q15.07 26.47 57.28 43.78 35 7.72 63.47-5.7l69.52 142.89L304 651.24q-23.47 61.25-86.51 92.21 52.93-11.09 85.62-43.53v46.33L63.83 756l-.9 5.3h280.79q1.87-17.47.75-29.39a55.77 55.77 0 0 0-2.65-12.85 27.74 27.74 0 0 0-2.3-4.9V657l-7.6-12.64 7-87.81 2.7-34.14-56.88-121.32a138.84 138.84 0 0 1-15.59-19.49l-23-12.6-13.85 13.2q-24.51 20-58.13 9.45-26.76-10.27-40.33-26.19-17.24-20.17-13.19-49.38z" fill="#5b4655"/><path d="M111 322.47q-25.11 15.67-60.73 29.84Q10.58 374.73 2.71 505.5l14-6.2 7-104.16 39.38-2.8 14.34-11.44 27.89-4.2 86.46 186.18-16 78.77c7.35 10.95 8.35 19.74 2.9 26.44a14.74 14.74 0 0 1 2.5 5.75c.55 3.15-.35 6.25-2.7 9.25a15.15 15.15 0 0 1 .8 5.2 11.81 11.81 0 0 1-3.7 7.95 15.11 15.11 0 0 1-1.5 4.95c-2 3.85-6 6.2-11.95 7.15l-7.25 35.44-3.65-.15-11-.45-1.35 9.35h-26.57l-40.43-45.71-8 49.18 239.3-9.75v-46.33q-32.69 32.46-85.62 43.53 63-31 86.51-92.21l5.45-110.46L240 397.89q-28.49 13.42-63.47 5.7-42.21-17.32-57.28-43.78a64.38 64.38 0 0 1-8.25-37.34z" fill="#785a70"/><path d="M145 298.78c-.2-2.8-.4-5.6-.65-8.45a36.3 36.3 0 0 0-13.75 9.85l1.95 17.19q-1.43 26.17 30 49.33a94.49 94.49 0 0 1-14.09-16.34c-.55-.75-1-1.5-1.6-2.3q-12-17.92-9.8-32.54a32.33 32.33 0 0 1 7.94-16.74z" fill="#b19aad"/><path d="M.76 564.27v3.95q-5.62 66.42 30.49 92.71a.67.67 0 0 0 .2.15q17.92 13 46.08 21.94 10.95 17.24 21.94 26.29l15.34 4.4A366.28 366.28 0 0 0 174 701.17a15.11 15.11 0 0 0 1.5-4.95 73.51 73.51 0 0 1-16.19 6 147 147 0 0 1-17.49 3.15c-4.25.55-8.85 1-13.7 1.25l37.74-12.1 13.34-6.25a15.15 15.15 0 0 0-.8-5.2 46.2 46.2 0 0 1-16.79 7.4 85.53 85.53 0 0 1-17.74 2.1 142.17 142.17 0 0 1-18-.8 1.85 1.85 0 0 1-.55-.05l39-6.5 16.79-11.4a14.74 14.74 0 0 0-2.5-5.75 22.38 22.38 0 0 1-2.9 2.85l-7 5.15a35.11 35.11 0 0 1-4.45 1.35 51.29 51.29 0 0 1-14.84 1.1l-26.64-1.4c23.49-1.15 39.63-5.7 48.38-13.54l1.75-8c-1.55.2-3 .4-4.5.55-6.8.8-12.14 1.4-16 1.75-1 .1-2 .2-2.95.25a77.13 77.13 0 0 1-18.74-1q-2.55-.52-4.95-1.2c-13-3.95-21.89-12.64-26.64-26.14l-6.1-7q22.12-16.27 16-37.33c-2.95-1.65-5.35.4-7.25 6.25a46.2 46.2 0 0 1-13.95 16.89c-8.35 3.15-13.89 10.25-16.64 21.19l-16.25-11.44Q20.38 594 13.2 564.47l8.9-2-2.1-17.84H1.11c-.2 6.4-.3 12.95-.35 19.64z" fill="#eecfb2"/><path d="M341.62 522.44l-2.7 34.14 32.69 149.69-29.79 12.79a55.77 55.77 0 0 1 2.65 12.85l64.77-6.55L373 581l-31.39-58.58z" fill="#4d6b99"/><path d="M331.93 644.39l7.6 12.64v57.13a27.81 27.81 0 0 1 2.3 4.9l29.79-12.79-32.7-149.69-7 87.81z" fill="#6585b4"/><path d="M449.63 585.42a82.57 82.57 0 0 1-11.1 13.74 33.13 33.13 0 0 1-10.7-.5Q409 594.54 396 567.07L373 581l17.59 5.35q25.42 22.79 48.78 29l26.19 57.93q-8.92 29.91-56.33 52.08 55.25-8.92 74.62-53.68l-34.24-86.27z" fill="#4d6b99"/><path d="M390.6 586.36L373 581l36.24 144.34q47.38-22.19 56.33-52.08l-26.19-57.93q-23.32-6.22-48.78-29z" fill="#6585b4"/><path d="M74.68 420.68l2.75-39.78-14.25 11.44-39.38 2.8-7 104.16-14 6.2c-.35 5.25-.6 10.65-.85 16.19a45.35 45.35 0 0 1 19.84-2 44.24 44.24 0 0 1 8.4 1.9l-2.85-116.3L61.38 399l13.29 21.64z" fill="#5b4655"/><path d="M142 575.42l-5.25.7-11 79.82q2.4.68 4.95 1.2l11.3-81.72z" fill="#4e6130"/><path d="M54.94 618.35l16.24 11.45A252.61 252.61 0 0 1 31.4 574c-5.85-6-11.9-9.2-18.19-9.55q7.2 29.46 41.73 53.88z" fill="#e3b798"/><path d="M31 560.33l.2 6.9 35.88 43.28q38.84-22.87 39.18-81.82l-79.01-123.4 2.85 116.3.4 15.19.5 23.55z" fill="#8aad5a"/><path d="M87.82 608.61a46.2 46.2 0 0 0 13.95-16.89c1.9-5.85 4.3-7.9 7.25-6.25a13.4 13.4 0 0 1 3.75 3.8q8.47 18.07-13.69 40.53c4.75 13.49 13.59 22.19 26.64 26.14l11-79.82-30.39-47.43q-.37 59-39.18 81.82l-35.9-43.29.15 6.8a252.61 252.61 0 0 0 39.78 55.78c2.75-10.95 8.3-18 16.64-21.19z" fill="#7b9c4e"/><path d="M163 572.62l-21 2.8-11.29 81.72a77.13 77.13 0 0 0 18.74 1L163 572.62z" fill="#ddd3cc"/><path fill="#698341" d="M74.68 420.68l-13.3-21.64-34.13 6.25 79.07 123.4 30.38 47.43 5.25-.7-108-166.68 24.78-4.2 104.26 168.08 4.7-.7-1.9-3.1-9.89-16.09-16.65-27.04v-.05L74.68 420.68z"/><path d="M165.79 568.82l1.9 3.1-15.34 86c3.9-.35 9.25-.95 16-1.75l18.09-92.06-20.69 4.75z" fill="#ddd3cc"/><path fill="#f3f0ed" d="M162.99 572.62L58.73 404.54l-24.78 4.2 108 166.68 21.04-2.8z"/><path d="M163 572.62l-13.6 85.52c.95 0 1.95-.15 2.95-.25l15.34-86-4.7.7z" fill="#4e6130"/><path fill="none" stroke="red" stroke-linecap="round" stroke-linejoin="round" stroke-width=".05" d="M221.27 287.24l-.15-1.3"/><path d="M206.73 188.82l-6.1-8.85 5.35 10.2a7.55 7.55 0 0 1 .75 3.85 4.33 4.33 0 0 1 1.15 1.45c.8-1.8.4-4-1.15-6.65z" fill="#d89c7a"/><path d="M188.58 199.27h-.1a14.79 14.79 0 0 1-8.6-2.65c-4.45-3-7.55-3.95-9.4-2.65a4 4 0 0 0-1.15 1.5c.8 1.75 2.75 3 5.85 4 1.95-2.45 5.15-1 9.6 4.25a8 8 0 0 0 .75.95l.2.2a3.93 3.93 0 0 0 5.75 0l.2-.2a7.89 7.89 0 0 0 .75-.95c4.45-5.3 7.65-6.7 9.54-4.25 3.15-.95 5.1-2.25 5.9-4a4.33 4.33 0 0 0-1.15-1.45c-1.85-1.35-4.95-.5-9.4 2.6a14.84 14.84 0 0 1-8.65 2.65z" fill="#c8866a"/><path d="M188.48 199.27h.2a14.84 14.84 0 0 0 8.65-2.65c4.45-3.1 7.55-3.95 9.4-2.6a7.55 7.55 0 0 0-.75-3.85L200.63 180q-12.07-30.59-24 0l-5.3 9.55a7.51 7.51 0 0 0-.8 4.45c1.85-1.3 4.95-.4 9.4 2.65a14.79 14.79 0 0 0 8.6 2.65z" fill="#e3b798"/><path d="M171.29 189.52l5.3-9.55-6.15 8.85c-1.55 2.65-1.9 4.85-1.1 6.65a4 4 0 0 1 1.15-1.5 7.51 7.51 0 0 1 .8-4.45z" fill="#d89c7a"/><path d="M185.53 204.67a7.89 7.89 0 0 1-.75-.95c-4.45-5.3-7.65-6.7-9.6-4.25 2.95-.15 6.4 1.6 10.35 5.2z" fill="#794224"/><path d="M192.43 203.72a7.89 7.89 0 0 1-.75.95c3.95-3.6 7.35-5.35 10.29-5.2-1.9-2.45-5.1-1-9.54 4.25z" fill="#794224"/><path d="M212.42 157.49q-8.1-2.77-11.2-33 29.76-16 58.33 1.7c-3.95 16.54-10.7 27-20.14 31.34q-12.45 3.45-27 0z" fill="#e3b798"/><path d="M213.57 107.36l-.65 3.6q21.07-3.67 44.48 10l2.15 5.2q-28.56-17.77-58.33-1.7c2-6.5 6.2-12.2 12.34-17.09z" fill="#5b2113"/><path d="M166.54 157.49q8.1-2.77 11.2-33-29.76-16-58.33 1.7c3.95 16.54 10.7 27 20.14 31.34q12.44 3.45 27 0z" fill="#e3b798"/><path d="M165.39 107.36L166 111q-21.07-3.67-44.48 10l-2.15 5.2q28.56-17.77 58.33-1.7c-2-6.5-6.2-12.2-12.34-17.09z" fill="#5b2113"/><path d="M164.87 136.06c1.42.73 2.91 1.54 4.45 2.47-1.09-1.74-3.4-3.44-6.83-5.18l6.67 2q-28.81-16.68-38.5 10.92c.24-.44.48-.93.73-1.37q11-19.84 33-9.1l.49.24z"/><path d="M164.38 135.81a39.55 39.55 0 0 1 1.13 5.26c.77 5.78-.12 10.68-2.71 14.68-.16.2-.32.45-.49.65a157.72 157.72 0 0 1-22.77-1.5 27.14 27.14 0 0 1-6.83-7.72c-.45-.73-.89-1.5-1.33-2.26-.24.45-.49.93-.73 1.38a29.78 29.78 0 0 0 8.49 10 116.75 116.75 0 0 0 28.11 0l-4.37.12.49-.61c2.91-4 3.84-9 2.79-14.84a35.19 35.19 0 0 0-1.29-4.89l-.49-.24z" fill="#c8866a"/><path d="M165.52 141.07a39.55 39.55 0 0 0-1.13-5.26q-22-10.74-33 9.1c.44.77.89 1.54 1.33 2.26a27.14 27.14 0 0 0 6.83 7.72 157.72 157.72 0 0 0 22.77 1.5c.16-.2.32-.45.49-.65l-22.65-2.14c-3.36-3.11-5.05-6.15-5-9q13-12.56 30.37-3.52z" fill="#e7e0da"/><path d="M135.14 144.59c0 2.87 1.66 5.9 5 9l22.65 2.14c2.59-4 3.48-8.9 2.71-14.68q-17.35-9-30.37 3.52z" fill="#f3f0ed"/><path d="M136.28 130.07q9.4-5.28 22.89-3-12.74-6.43-22.89 3z" fill="#c8866a"/><path d="M212.4 136.06c-1.42.73-2.91 1.54-4.45 2.47 1.09-1.74 3.4-3.44 6.83-5.18l-6.67 2q28.82-16.68 38.5 10.92c-.24-.44-.49-.93-.73-1.37q-11-19.84-33-9.1l-.49.24z"/><path d="M212.88 135.81a39.52 39.52 0 0 0-1.13 5.26c-.77 5.78.12 10.68 2.71 14.68.16.2.32.45.49.65a157.74 157.74 0 0 0 22.77-1.5 27.15 27.15 0 0 0 6.83-7.72c.45-.73.89-1.5 1.33-2.26.24.45.49.93.73 1.38a29.78 29.78 0 0 1-8.49 10 116.76 116.76 0 0 1-28.11 0l4.37.12-.49-.61c-2.91-4-3.84-9-2.79-14.84a35 35 0 0 1 1.29-4.89l.49-.24z" fill="#c8866a"/><path d="M211.75 141.07a39.52 39.52 0 0 1 1.13-5.26q22-10.74 33 9.1c-.44.77-.89 1.54-1.33 2.26a27.15 27.15 0 0 1-6.83 7.72 157.74 157.74 0 0 1-22.77 1.5c-.16-.2-.32-.45-.49-.65l22.65-2.14c3.36-3.11 5.06-6.15 5-9q-13-12.56-30.37-3.52z" fill="#e7e0da"/><path d="M242.12 144.59c0 2.87-1.66 5.9-5 9l-22.65 2.14c-2.59-4-3.48-8.9-2.71-14.68q17.35-9 30.37 3.52z" fill="#f3f0ed"/><path d="M241 130.07q-9.4-5.28-22.89-3 12.74-6.43 22.89 3z" fill="#c8866a"/><path d="M110.83 151.82q-3.82-7.16-8.86-9.34Q94 141.32 96 156.3c0-.2 0-.45.08-.65q2.85-23 16.22 4.77-6.25.55-6.43 5.7-.12 4.37 4.25 12.13c-3.52-10.23-2.59-15.69 2.87-16.38l4.69 12.94a124.16 124.16 0 0 0-3-13 61.24 61.24 0 0 0-3.92-10z" fill="#d89c7a"/><path d="M96.11 155.66c4.21 1 7.48 4.45 9.79 10.47q.18-5.16 6.43-5.7-13.41-27.72-16.22-4.77z" fill="#e3b798"/><path d="M268.34 151.82q3.82-7.16 8.86-9.34 7.95-1.15 5.95 13.83c0-.2 0-.45-.08-.65q-2.85-23-16.22 4.77 6.25.55 6.43 5.7.12 4.37-4.25 12.13c3.52-10.23 2.59-15.69-2.87-16.38l-4.69 12.94a124 124 0 0 1 3-13 61.33 61.33 0 0 1 3.92-10z" fill="#d89c7a"/><path d="M283.06 155.66c-4.21 1-7.48 4.45-9.79 10.47q-.18-5.16-6.43-5.7 13.41-27.72 16.22-4.77z" fill="#e3b798"/><path d="M177.24 243.3a37.24 37.24 0 0 1 22.64 0q-10.2-9.37-22.64 0z" fill="#c8866a"/><path d="M160.9 142.72a9.6 9.6 0 0 0-9.62-9.62 9.53 9.53 0 0 0-9.62 9.62 9.6 9.6 0 0 0 9.63 9.62 9.37 9.37 0 0 0 5.46-1.66 17.46 17.46 0 0 0 1.33-1.17 9.13 9.13 0 0 0 2.83-6.79zm-9.62-9.1a8.73 8.73 0 0 1 6.39 2.63 8.89 8.89 0 0 1 2.63 6.43 8.73 8.73 0 0 1-2.63 6.39 10.49 10.49 0 0 1-1.25 1.09 9.07 9.07 0 0 1-14.19-7.48 9 9 0 0 1 9.06-9.06z" fill="#3c5477"/><path d="M157.67 136.25a8.73 8.73 0 0 0-6.39-2.63 9 9 0 0 0-9.06 9.06 9.08 9.08 0 0 0 14.19 7.48 10.56 10.56 0 0 0 1.25-1.09 8.73 8.73 0 0 0 2.63-6.39 8.89 8.89 0 0 0-2.63-6.43z" fill="#6585b4"/><path d="M154.92 138.43a5.37 5.37 0 0 0-7.52 0 5.26 5.26 0 0 0-1.54 3.76 5.12 5.12 0 0 0 1.54 3.76 5.34 5.34 0 0 0 9.1-3.76 5.14 5.14 0 0 0-1.58-3.76z"/><path d="M155 137.34a2.62 2.62 0 0 0-1.94.77 2.71 2.71 0 0 0-.77 2 2.59 2.59 0 0 0 .77 1.9 2.62 2.62 0 0 0 1.94.77 2.53 2.53 0 0 0 1.9-.77 2.63 2.63 0 0 0 .81-1.9 2.74 2.74 0 0 0-.81-2 2.53 2.53 0 0 0-1.9-.77z" fill="#fff"/><path d="M216.86 142.72a9.6 9.6 0 0 1 9.62-9.62 9.53 9.53 0 0 1 9.62 9.62 9.6 9.6 0 0 1-9.62 9.62 9.37 9.37 0 0 1-5.46-1.66 17.25 17.25 0 0 1-1.33-1.17 9.13 9.13 0 0 1-2.83-6.79zm9.62-9.1a8.73 8.73 0 0 0-6.39 2.63 8.88 8.88 0 0 0-2.63 6.43 8.72 8.72 0 0 0 2.63 6.39 10.56 10.56 0 0 0 1.25 1.09 9.07 9.07 0 0 0 14.19-7.48 9 9 0 0 0-9.06-9.06z" fill="#3c5477"/><path d="M220.1 136.25a8.73 8.73 0 0 1 6.39-2.63 9 9 0 0 1 9.06 9.06 9.08 9.08 0 0 1-14.19 7.48 10.64 10.64 0 0 1-1.25-1.09 8.73 8.73 0 0 1-2.63-6.39 8.88 8.88 0 0 1 2.63-6.43z" fill="#6585b4"/><path d="M222.85 138.43a5.37 5.37 0 0 1 7.52 0 5.26 5.26 0 0 1 1.54 3.76 5.13 5.13 0 0 1-1.54 3.76 5.34 5.34 0 0 1-9.1-3.76 5.14 5.14 0 0 1 1.58-3.76z"/><path d="M222.77 137.34a2.62 2.62 0 0 1 1.94.77 2.71 2.71 0 0 1 .77 2 2.63 2.63 0 0 1-2.71 2.67 2.53 2.53 0 0 1-1.9-.77 2.63 2.63 0 0 1-.81-1.9 2.75 2.75 0 0 1 .81-2 2.53 2.53 0 0 1 1.9-.77z" fill="#fff"/><path d="M241.21 40.73c-.45 1.7-1 3.4-1.55 5a69.49 69.49 0 0 1-20.49 29.59l13.1-.45c12.24-6.6 17.44-16.09 15.69-28.49l-4.25-25.69a78.19 78.19 0 0 1-2.5 20z" fill="#9a5c47"/><path d="M262.05 43.58c-.45-.8-.85-1.6-1.3-2.4L253.31 48a42.46 42.46 0 0 1-2 15.19A30.18 30.18 0 0 1 243 75c5.95-.9 11.85 2.4 17.79 9.85q11.47-20.62 1.3-41.28z" fill="#9a5c47"/><path d="M269.1 82.32A46.93 46.93 0 0 1 258.56 96l-4.85 15.19q14.17 16 2.45 48.38l2.25 1.15 5.85-17.89q16.87-40.41 4.85-60.53z" fill="#9a5c47"/><path d="M134.81 65q-7.42-14 1.2-31.59Q120.19 43.63 112.16 57a93.44 93.44 0 0 0 1.15 28 56.14 56.14 0 0 0 2.25 8.15c5.15-14.25 11.6-23.59 19.24-28.14z" fill="#9a5c47"/><path d="M143.55 37.29q-8.47 15.89 2.75 26.84l16.49 2.7q-10-27.51 18-41.18c-15.54 2.55-28 6.45-37.23 11.65z" fill="#9a5c47"/><path d="M109.41 113a27 27 0 0 1 2.6-4.35 84 84 0 0 1-4.35-8.8q-8.92-22-1-47.18A127.59 127.59 0 0 0 88 93.91a45.52 45.52 0 0 0 9.1 33.84c.95 1.2 1.9 2.4 2.95 3.55a136 136 0 0 1 13.25 20.49 82.43 82.43 0 0 1-5.3-14.09A90.72 90.72 0 0 1 91.42 99a131.66 131.66 0 0 0 15.09 28.59 30.6 30.6 0 0 1 .45-6.85q-7.57-17.92-10.1-41A147.05 147.05 0 0 0 109.41 113z" fill="#9a5c47"/><path d="M216.07 78.37l-.2-.25c-.3.25-.6.45-.95.7.4-.15.8-.3 1.15-.45z" fill="#efdea3"/><path d="M162.89 72.42l-1.3-.2c.15.05.3.05.5.1l.8.1z" fill="#333"/><path d="M225.07 0a81.38 81.38 0 0 1-6.5 7.9q19.42 13 13 37.29c-.2.5-.4 1-.6 1.45a72.08 72.08 0 0 1-10.4 17.29 111.79 111.79 0 0 0 4.2-16.69c1.55-9.65 1.3-18.09-.85-25.34a183.9 183.9 0 0 1-4.15 25.84 217.43 217.43 0 0 1-6.9 23.44 39 39 0 0 1-6.4 3.65q-4.2-10.42.65-24.19l11-27.59-15.24 25.13c-.35.45-.65.9-.95 1.35-6.5 9.35-8.4 18.64-5.75 28a42.08 42.08 0 0 1-7.95.05c-4.15-9-3.8-17.94.95-26.79a53.06 53.06 0 0 1 9-11.75A121.52 121.52 0 0 0 220 14.39a111.93 111.93 0 0 1-21.69 20.14q-13.12 7-17.49 17-4.65 10.72.75 24.89c-1.75-.4-3.5-.85-5.25-1.4q-19.15-23.42 15.36-46.88l8.2-10.2c-3.65 2.8-9.1 5.2-16.24 7.25l-2.85.45q-28 13.65-18 41.18l-16.49-2.7q-11.24-10.95-2.75-26.84l4.5-10.7a109.91 109.91 0 0 0-12 6.85Q127.38 51 134.81 65c-7.65 4.55-14.09 13.89-19.24 28.14a56.14 56.14 0 0 1-2.26-8.14 93.44 93.44 0 0 1-1.15-28V44.88c-1.95 2.55-3.8 5.15-5.55 7.75q-7.87 25.27 1 47.18a84 84 0 0 0 4.35 8.8 27 27 0 0 0-2.6 4.35 147.05 147.05 0 0 1-12.49-33.24q2.55 23.09 10.1 41a30.6 30.6 0 0 0-.45 6.85A131.7 131.7 0 0 1 91.42 99 90.72 90.72 0 0 0 108 137.7a82.43 82.43 0 0 0 5.25 14.09c.7 1.3 1.4 2.65 2 4 1.3 2.75 2.5 5.55 3.65 8.4l6.35-2.25q-16.25-35.39-4.19-48.34l-3.75-15.89q12.6-29.71 39.83-26.24a37.55 37.55 0 0 1 4.45.75l1.3.2a92.36 92.36 0 0 0 17.59 7.15q18.37 5.1 34.44-.75c.35-.25.65-.45.95-.7l.2.25c7.25 2 13.49 2.35 18.84.85q18.37-2.7 23.64 16.79a46.93 46.93 0 0 0 10.55-13.69q12 20.09-4.85 60.53l-5.85 17.89 1.85 1c3.65-8.65 7.9-17.79 12.7-27.54q10.8-29.2 5.3-49.2l-6.7-9.5c2.35-9.85.2-20.54-6.45-32.19q-1.12-1.95-2.4-3.9l-1.95 1.8c.45.8.85 1.6 1.3 2.4q10.12 20.62-1.3 41.28C254.81 77.42 248.91 74.12 243 75a30.19 30.19 0 0 0 8.35-11.85 42.46 42.46 0 0 0 2-15.19c0-1.15-.2-2.35-.35-3.5q-1.57-11.55-9.25-23.74L248 46.43c1.75 12.39-3.45 21.89-15.69 28.49l-13.1.45a69.5 69.5 0 0 0 20.49-29.59c.55-1.65 1.1-3.35 1.55-5Q239.64 20.34 225.07 0z" fill="#683c31"/><path d="M231 46.63c.2-.45.4-.95.6-1.45q6.37-24.29-13-37.29a95.86 95.86 0 0 1-23.54 18c-1.15.75-2.3 1.5-3.35 2.25q-34.59 23.46-15.42 46.93c1.75.55 3.5 1 5.25 1.4q-5.4-14.17-.75-24.89 4.35-10 17.49-17A111.93 111.93 0 0 0 220 14.39 121.54 121.54 0 0 1 198.18 39a53.06 53.06 0 0 0-9 11.75c-4.75 8.85-5.1 17.74-.95 26.79a42.16 42.16 0 0 0 7.95-.05c-2.65-9.35-.75-18.64 5.75-28 .3-.45.6-.9.95-1.35L218.17 23l-11 27.59q-4.87 13.79-.65 24.19a39 39 0 0 0 6.4-3.65 217.43 217.43 0 0 0 6.9-23.44 183.9 183.9 0 0 0 4.18-25.8c2.15 7.25 2.4 15.69.85 25.34a111.79 111.79 0 0 1-4.2 16.69A72.08 72.08 0 0 0 231 46.63z" fill="#9a5c47"/><path d="M219.32 216.81l1.75-1v-4.25l-1.85 3.85q-34-4.27-61.13-1l-2.4-.8q14.24 17.62 31.54 20.44a1.7 1.7 0 0 1 .5 0q14.4.9 31.59-17.19zm-7.75-1.15q3.3.3 6.6.75a63.87 63.87 0 0 1-16.89 13 36.13 36.13 0 0 1-12.1 3.65 34 34 0 0 1-12.59-3.7c-5.9-2.95-11.75-7.65-17.59-14 2.55-.25 5.1-.45 7.65-.65a271 271 0 0 1 44.93 1z" fill="#c8866a"/><path d="M209.67 217.51a11.14 11.14 0 0 0 1.9-1.85 271 271 0 0 0-44.93-1 11.67 11.67 0 0 0 5.9 4.55c-.75-2.3.3-3.45 3.1-3.4l34 1.65z" fill="#e7e0da"/><path d="M175.64 215.86c-2.8 0-3.85 1.1-3.1 3.4 4.15 1.65 10 2.35 17.59 2.1 9.15.4 15.64-.9 19.54-3.85l-34-1.65z" fill="#f3f0ed"/><path d="M211.57 215.66a11.14 11.14 0 0 1-1.9 1.85c-3.9 2.95-10.4 4.25-19.54 3.85-7.6.25-13.44-.45-17.59-2.1a11.67 11.67 0 0 1-5.9-4.55c-2.55.2-5.1.4-7.65.65 5.85 6.35 11.7 11 17.59 14 .7-.2 1.4-.35 2.1-.5 6.85-1.6 12.84-1.9 17.89-.85a27.05 27.05 0 0 1 4.7 1.4 63.87 63.87 0 0 0 16.89-13q-3.3-.45-6.6-.75z"/><path d="M201.28 229.41a27.06 27.06 0 0 0-4.7-1.4c-1.8 3.65-7.75 3.9-17.89.85-.7.15-1.4.3-2.1.5a34 34 0 0 0 12.59 3.7 36.14 36.14 0 0 0 12.09-3.65z" fill="#a33a21"/><path d="M178.69 228.86c10.15 3 16.09 2.8 17.89-.85-5-1-11-.75-17.89.85z" fill="#c94727"/></g></g></svg>