<svg xmlns="http://www.w3.org/2000/svg" viewBox="-3.200000762939453 -0.11999988555908203 180.6699981689453 308.9587097167969"><title>Depositphotos_113148882_05</title><g data-name="Layer 2"><g data-name="Layer 1"><path d="M12.35 120.3a86.31 86.31 0 0 0-10.59 19.84c-3.91 10.78-2.11 29.15 13.8 27.28s22-19.91 26.11-32.7c2.55-7.9 12.66-39.95-7.72-32.89-8.13 2.82-15.66 10.17-21.6 18.47z" fill="#333"/><path d="M24.2 126.59a291.59 291.59 0 0 1 20.12-23.43c-1.84-2.34-5.07-3.16-10.36-1.33h-.06c-5.12 5.61-10 11.4-14.7 17.38a266.17 266.17 0 0 0-19 27.65c-.55 4.8 0 9.94 2 13.89q1.93-3.68 4-7.28a255.23 255.23 0 0 1 18-26.88z" fill="#e6e6e6"/><path d="M13.18 144.21c6.8-3.33 14-2 21.14-1.94a1.25 1.25 0 0 0 1.08-1.86c-4.25-6.88-13.57-7.87-20.66-5.77a32.81 32.81 0 0 0-8.86 3.9 22.61 22.61 0 0 0-5 4.66 29.52 29.52 0 0 0 .07 14.32c2.62-5.97 5.75-10.14 12.23-13.31z" fill="#333"/><path d="M43.26 129.52a78.82 78.82 0 0 0 3.1-16q-6 7.18-11.71 14.52c-7.05 9-13.86 18.24-20.09 27.86-2.13 3.29-4.55 6.82-6.8 10.5a14.17 14.17 0 0 0 7.8 1l.5-.08c1.24-2.1 2.49-4.17 3.8-6.12C26 152 32.64 143 39.5 134.23c1.24-1.58 2.5-3.14 3.76-4.71z" fill="#e6e6e6"/><path d="M158.88 111.08c-5.78 16.33-13.41 31.87-23.84 45.39-14.55-13.19-13-40.78-9.52-57.93a107 107 0 0 1 4.71-16c1.74-4.71 5.42-9.84 6.31-14.73.35-1.93-.37-3.9.57-5.72 1.07-2.1 3.19-3.19 4.47-5.08 1.4-2.08 1.13-4.37 2-6.64 2-5.36 6.85-11.32 12.12-13.71 13.15-6 18.06 11.77 16.54 21.1a310.68 310.68 0 0 1-13.36 53.32z" fill="#333"/><path d="M34 101.83a29.15 29.15 0 0 0-5.43 2.59c3.48 12.28 0 25.37-6.9 36.3C17 148 10.66 156.47 3 162.14c2.42 3.7 6.45 6 12.58 5.28 16-1.88 22-19.91 26.11-32.7 2.53-7.9 12.64-39.94-7.69-32.89z" opacity=".2"/><path d="M163.73 36c-.34 20-7.16 39.09-14.46 57.53-3.38 8.53-6.88 17-9.94 25.68-2.77 7.84-4.52 15.79-9.08 22.87-1.13 1.75 1.4 3.67 2.84 2.22 7.37-7.44 11.75-15.58 16-25.09a323 323 0 0 0 12.87-32.51 253.18 253.18 0 0 0 8.91-36.84c.19-1.16.37-2.35.55-3.56-1.33-4.65-3.84-8.83-7.69-10.3z" fill="#e6e6e6"/><path d="M129.54 119.35c4.13-12.26 9.2-24.13 14-36.12 4.77-11.7 9.46-23.41 13.89-35.23 1.51-4 3.15-8.2 4.68-12.43a11.12 11.12 0 0 0-6.42 1.08 16.91 16.91 0 0 0-3.61 2.27c-.6 1.65-1.2 3.28-1.81 4.89q-6.7 17.69-13.53 35.34c-4.46 11.46-9.26 22.82-13.15 34.49l-.15.47a86.42 86.42 0 0 0 .8 20.15c1.9-4.93 3.62-9.91 5.3-14.91z" fill="#e6e6e6"/><path d="M159.44 79.35c-4.81-3.54-9.73-6.94-14.66-10.31a83.67 83.67 0 0 0-7.17-4.57c-1 2.44-2 4.87-3.06 7.29 1.43 1.14 2.9 2.23 4.36 3.32 4.81 3.59 9.48 7.36 14.22 11 3.44 2.68 7 5.92 10.86 8.88 1-3.52 2-7.06 2.83-10.62-2.57-1.68-5.11-3.34-7.38-4.99z" fill="#333"/><path d="M160.39 104.32c-5-3.11-9.91-6.3-14.81-9.52a136.78 136.78 0 0 0-13.68-7.42 25.21 25.21 0 0 1-2.78-1.75c-.91 2.64-1.75 5.31-2.47 8 4.46 3.31 10.1 5.49 14.41 8.75 4.67 3.52 9.77 6.57 14.7 9.71.73.47 1.46 1 2.2 1.49.31-.85.62-1.7.92-2.55q1.12-3.17 2.16-6.37z" fill="#333"/><path d="M154.64 83.54a313.59 313.59 0 0 0-19.55-13.07c-2.43 5.77-4.81 11.51-6.74 17.46 2.89 2 6.12 3.64 8.31 4.92 8.05 4.7 15.37 10.2 23.48 14.52q2.87-8.53 5.2-17.28c-.84-.45-1.67-.91-2.51-1.4-2.29-1.33-4.55-2.71-6.79-4.12z" fill="#fc863c"/><path d="M155.69 36.64a17.93 17.93 0 0 0-3.46 2.11c3.15 11.15 2.89 23.74 2.17 35.19-.63 9.93-1.2 20.17-4.88 29.51a107.38 107.38 0 0 1-19.9 32.05 16.26 16.26 0 0 1-4.36 3.51c1.78 6.83 4.86 13 9.8 17.45 10.43-13.52 18.06-29.05 23.84-45.39a310.69 310.69 0 0 0 13.34-53.33c1.51-9.32-3.4-27.05-16.55-21.1z" opacity=".2"/><path d="M15 308.54a49.06 49.06 0 0 0 7.51.16c3.29-.13 6.74-.49 10-.62s6.62.23 9.64-.5c11.32-2.72-4.25-17.21-8.38-20-6.37-4.3-4 1.74-1.12 5.76s3.14 6.1-3 7.17c-2.42.42-9.92.24-11.5-2.07-1.9-2.78 4.46-9.26 1.24-10.15-2.65-.73-6.15 5.39-7.46 7.09-2.07 2.68-5.21 7.5-2.86 10.75.93 1.42 3.34 2.1 5.93 2.41z" fill="#999"/><path d="M39.09 292.86h.62a44 44 0 0 0-6-5.25c-6.29-4.24-4 1.57-1.24 5.59q3.34-.2 6.62-.34z" fill="#1b1464" opacity=".3"/><path d="M153.73 282.71c-.9-.73-2.42.2-2.3 1.57.3 3.49 2.87 6.67 3 9.88s-2.59 5-4.42 2.54c-2.5-3.34 1-8.63-2.14-12.26a1.32 1.32 0 0 0-2.09 0c-1.67 2.27-1.64 5.3-2.05 8.18-.45 3.06-1.86 8.36 0 11.19 1.51 2.28 6.73 1.92 9.36 1.83 3.48-.12 6.54-1.17 7.6-4.37 2.07-6.15-2.94-15.27-6.96-18.56z" fill="#999"/><path d="M154.6 291.65c.64 0 3.81-.44 3.48-.35l1.48-.24a23.22 23.22 0 0 0-5.82-8.34c-.9-.73-2.42.2-2.3 1.57.22 2.59 1.69 5 2.5 7.39z" fill="#1b1464" opacity=".3"/><path d="M149.14 291.59c.19-2.48.55-5.08-1.24-7.14a1.32 1.32 0 0 0-2.09 0c-1.52 2.06-1.63 4.76-2 7.4a47.69 47.69 0 0 1 5.33-.26z" fill="#1b1464" opacity=".3"/><path d="M31.65 233.07L26 277.79s-14.38 6.05-17.55 13.09c16.35-1.34 30.8-2 30.8-2l14.19-30.64 62.74.36 21.28 21.14s-1.42 5.13-.15 8.64l28.92-2.29s-1.73-8.54-10.37-11.23l-19.57-43.27z" fill="#333"/><path d="M140 270.44a61 61 0 0 0-9.4-9.44c-23-18.36-64.12-22.91-86.6-1.78-9.32 8.76-11.17 18.83-15.21 30.27 6.34-.37 10.47-.55 10.47-.55l14.19-30.64 62.74.36 21.28 21.14s-1.42 5.13-.15 8.64l13.38-1.06c-.81.06-7.5-12.7-8.78-14.43q-.92-1.29-1.92-2.51z" opacity=".2"/><path d="M136.31 231.61l-104.66 1.46-1.05 8.35c9.21-1 18.66-.66 27.78-.18 13.54.71 26.87 0 40.41-.06 14.1-.09 28.19.42 42.27.95z" opacity=".2"/><path d="M38.64 234.91c23.93-.14 72.52-2.28 78-2.45 3.08-.1 26.15-.48 26.14-.4.89-8.17-.71-16.11-.66-24.19 0-8.42-2.1-17.4-.36-25.73 1-4.61 2.68-6.38.78-11.09-1.79-4.43-2.34-5-1.13-9.89 2.48-10-.1-22-1.53-32-3.22-23-16.5-36.77-42.5-41.16-21.38-3.68-47.13 6.35-58.83 22.65-6.48 9-8.66 20-8.84 30.45-.21 12.41-5.27 27.66-1.8 39.42.62 2.11 1.88 3.23 1.3 5.74-.42 1.82-2.82 3-3.16 4.85-.89 4.75 3.34 5.09 1.85 10.41-3.05 10.9-3 21.36-2.48 32.72.05.53 5.28.76 13.22.67z" fill="#333"/><path d="M38.64 234.91h-6c-.43-5.46-.08-11.08-.05-16.34 0-9.11.45-18.2 1.1-27.29 1.32-18.48 3.53-36.9 6.48-55.24q2.73-17 6.3-33.85A61.7 61.7 0 0 1 60 93.7c-3.47 15.2-6.57 30.47-9 45.83-2.78 17.76-4.91 35.61-6.09 53.52q-.9 13.62-1.27 27.26c-.13 4.76.14 9.69-.07 14.55zm97-23.49c-.56-16.62-.76-33.13-.6-49.76s-.68-33.32-5.87-49.28c-1.47-4.52-3.15-9-5-13.41-6.45-5.2-14.91-8.79-25.57-10.77 1 6.62 2 13.24 2.52 19.92 1.25 16.39 1.26 32.9 1.64 49.32.37 16.07.11 32.17.66 48.24.31 9.14 1.72 18.13 2.53 27.19l10.17-.4c.4-7.95-1-16.24-1.48-23.67-1-16.44-.13-33.08-.51-49.55-.4-17-.53-34.09-1.82-51.07-.34-4.55-.73-9.19-1.32-13.82 2.35 6.3 4.85 12.54 7 18.76 5.46 15.77 6.13 32.13 6.17 48.47 0 16.06 0 32 1.26 48 .6 7.53 1.08 15.07 1.15 22.62l9.2-.15c.42-6.84.13-13.77-.1-20.64zm-69.52 15.37a612.79 612.79 0 0 1 6.59-102.19c1.45-9.54 2.94-19.08 4.65-28.59.48-2.65 1-5.35 1.52-8.07a68.91 68.91 0 0 0-11.08 2.65l-.27 1.19c-2.07 9.12-4 18.29-5.47 27.49-3.72 23.16-5 46.84-6.38 70.2-.41 6.77-.64 13.62-.67 20.47 0 1.71-1.42 24.72 0 24.68 3.63-.09 7.41-.2 11.24-.31q-.07-3.76-.13-7.52zm22.71-1.24c.45-8.5.64-17 .9-25.52.5-16.41 1-32.81 1.69-49.22s2-32.6 2.17-48.91c.06-4.76.12-9.58.09-14.43a58.7 58.7 0 0 0-10.89 0c-.09 4.25-.13 8.46-.27 12.61-.53 16.29-1.6 32.57-2.28 48.85s-1.24 32.81-1.5 49.22c-.14 8.51-.33 17-.11 25.52.08 3.28 0 6.75.14 10.23l9.74-.35c.14-2.71.18-5.41.32-8z" fill="#e6e6e6"/><path d="M141.8 182.13c1-4.61 2.68-6.38.78-11.09-1.79-4.43-2.34-5-1.13-9.89 2.48-10-.1-22-1.53-32-3.26-22.99-16.54-36.76-42.54-41.15-21.38-3.68-47.13 6.35-58.83 22.65-6.48 9-8.66 20-8.84 30.45-.21 12.41-5.27 27.66-1.8 39.42.62 2.11 1.88 3.23 1.3 5.74-.42 1.82-2.82 3-3.16 4.85-.89 4.75 3.33 5.09 1.85 10.41-3.05 10.9-3 21.36-2.48 32.72 0 .54 5.27.72 13.21.67 23.93-.14 72.52-2.28 78-2.45 3.08-.1 26.15-.48 26.14-.4.89-8.17-.71-16.11-.66-24.19.1-8.43-2.05-17.41-.31-25.74zm-25.8-.72c-6.57 2.78-14.05 4.39-19.82 5.59-7.21 1.51-14.14 3-21.44 3.31 6.82-.3 17.06 2.12 23.37 4.63 5.54 2.2 17.42 6.09 19.79 11.87 3 7.35-7.4 12.55-12.59 15-15.39 7.4-28.84 5.16-44.72 3.19C48 223.49 38 217.22 37.3 203.58c-1.78-35.2 51.39-18.74 69.16-30.27-4 2.56-15.39-1.33-19.36-2.46-12.31-3.49-13.9-17.87-5.21-26.44 6.94-6.85 17.58-5.4 26.42-6 10.81-.69 22.36 6.73 24.8 17.37 1.44 6.25-1.53 12.76-5.37 17.53-2.8 3.52-7.05 6.11-11.74 8.1z" opacity=".2"/><path d="M45.1 132.51c0 2.21.16 4.46.34 6.74 19-12 61.54-13.57 81.05-1.27-1.28-9.76.94-19.33-5.88-28-5.39-6.82-13.67-12.62-24.5-13-13.61-.34-28.11 2.41-38.45 9.52S45 122.7 45.1 132.51z" fill="#333"/><path d="M110.34 101.73c11.19-13.62 14.27-34.75 1.5-48.39-13.63-14.55-40.3-8.92-55.28.35-16.47 10.19-15.05 34.2-5.5 48.75 9 13.69 29 15.59 43 10.87a36.38 36.38 0 0 0 16.28-11.58z" fill="#fdc48e"/><path d="M86.19 65.25l-16.44 1.69c0 7.51-1.16 22.32 5.54 28 3.21 2.71 6.9 1.86 9.65-1 6.72-7.02 2.99-20.49 1.25-28.69z" fill="#ff6d33"/><path d="M63.61 25.53c-9.71-5.08 7.95-10.31 12-10.86C81.9 13.8 87 16 81.16 21.82c-3.99 4-12.3 6.45-17.55 3.71z" fill="#1a1a1a"/><path d="M110.83 24.9c5.35 7.78 8.12 20.55 5.67 29.64-2.77 10.31-15.38 7.21-23.33 7.6-10.92.53-22.1 1.68-32.89 3-7.15.91-15.49.25-18.34-8.48-3-9.26-.11-20 5.1-27.65a38.89 38.89 0 0 1 15-13c.13-.06 1.84 3.93 2.05 4.31C65 21.93 66 23 67.77 23.15c3.31.24 7.41-1.38 10.63-2.22 2.67-.7 2.44-5.81 2.5-8.05 4.44-1.25 11.1.12 15.47 1.43a27.22 27.22 0 0 1 13.3 9q.6.78 1.16 1.59z" fill="#333"/><path d="M108.61 30.34a7.23 7.23 0 0 0-.64-4.21c-4.08-9.34-21.43-5.61-27.91-1.94-4.69 2.66-14.06 10.66-5.67 14.7 4.77 2.29 11.32 1.6 16.39.77s16.69-2.94 17.83-9.32z" fill="#4d4d4d"/><path d="M114.77 32.77a69.21 69.21 0 0 1-8.3 4.45c-1.84-3.32-5.39-5.6-9.45-7.08a21.58 21.58 0 0 0 6.12-8.93c.61-1.9-2-2.8-3.05-1.31-1.28 1.84-2.31 3.8-3.74 5.55-1 1.2-2 2.37-2.83 3.63A40.7 40.7 0 0 0 80.85 28a41.18 41.18 0 0 0-15.48 4.8c-1.51-1-3.14-1.71-4.69-2.59s-4.09-2.15-5-4c-1.07-2.16-4.37-.28-3.25 1.88s3.47 3.47 5.51 4.59c1.39.76 2.82 1.46 4.28 2.09a20.73 20.73 0 0 0-6.22 6.7 51.09 51.09 0 0 1-10.72-3.7c-.75-.36-1.48-.76-2.2-1.17-2.44 6.4-3.26 13.6-1.14 20.1 2.84 8.73 11.18 9.39 18.34 8.48 10.79-1.37 22-2.52 32.89-3 7.95-.38 20.56 2.71 23.33-7.6 1.73-6.48.84-14.76-1.73-21.81zm-16 7.41A71.76 71.76 0 0 1 66 42.78a56.23 56.23 0 0 1-5.64-.51 24.16 24.16 0 0 1 6.13-5.62A33.31 33.31 0 0 1 80.82 32a28.19 28.19 0 0 1 14.43 2.18 19.21 19.21 0 0 1 6.32 5.08c-.92.3-1.84.62-2.78.92z" fill="#1a1a1a"/><path d="M56.12 78c-12.4-1.86-22.61 6-24.89 18.51a20.15 20.15 0 0 0 18.09 23.8c8.07.8 18.7-3.59 22-11.53C76.73 96 70.62 80.17 56.12 78z" fill="#fdc48e"/><path d="M66.54 86.85c-1.77 2.91-.68 5.72 1.85 7.54 3.27 2.35 14.79.93 15.5-4.13.87-6.26-14-8.92-17.35-3.41z" fill="#ff6d33"/><path d="M104.82 76.67C117.24 75 127.36 83 129.5 95.47a20.15 20.15 0 0 1-18.36 23.59c-8.08.71-18.65-3.81-21.91-11.78-5.23-12.82 1.06-28.6 15.59-30.61z" fill="#fdc48e"/><path d="M90.37 101.79a5.63 5.63 0 0 0-2.8-2.56c-2.42-1-4.44-.8-7-.8-3.14 0-11.31.86-9.56 5.67a7.71 7.71 0 0 0 3.79 3.74c2.31 1.23 4.94 1.33 7.51 1.32 3.26 0 7.15-1.81 8.23-5.14a3 3 0 0 0-.17-2.23z" fill="#ff6d33"/><path d="M79.73 84.48c4-1.38 14.13-1.88 13.25 4.87-.7 5.36-9.06 6.92-13 5.17-6.14-2.76-6.12-8-.25-10.04z" fill="#ff6d33"/><path d="M60.15 120.37c.35 4 5 5.13 8.27 4.87 2-.16 5.11-1.17 6.3-2.85 5.04-7.11-15.25-9.78-14.57-2.02z" fill="#fcc995"/><path d="M75.62 102.48c1.29-.9 2.48-.85 4.7-.7.66 0 8.87.91 8.69 1.34-2.86 6.91-2.8 16.4-8.6 21.77-6.11 5.66-15.65 1.26-13.07-7.12C68.81 113 70.7 107.8 74 104a9 9 0 0 1 1.62-1.52z" fill="#b3b3b3"/><path d="M84.62 102.27l-.59.49c-5.65 4.73-11.74 9.66-16.77 15.31a7.41 7.41 0 0 0 .76 6.23c6.34-5.34 12.27-11.23 18.67-16.49l1.05-.85a33.26 33.26 0 0 1 1.26-3.84c.1-.22-2.14-.57-4.38-.85z" fill="#e6e6e6"/><path d="M103.83 72.38c-3 .14-5.81 1.62-8.52 3a25.34 25.34 0 0 0 .84-3.54c.21-1.49-1.81-2.71-2.64-1.13a14.91 14.91 0 0 0-1.29 3.5c-.87 3.51-.42 5 2.79 6.89 1 .56 2.54 1 3.55.37a1.31 1.31 0 0 0 .6-1.44c-.28-1.13-1.55-1.88-2.51-2.4a28.71 28.71 0 0 0 7.61-4.3.57.57 0 0 0-.43-.95z" fill="#001530"/><path d="M55.81 73c3 .18 5.8 1.69 8.49 3.13a25.31 25.31 0 0 1-.8-3.55c-.2-1.49 1.84-2.69 2.65-1.1A14.91 14.91 0 0 1 67.4 75c.83 3.52.36 5.05-2.87 6.86-1 .55-2.55 1-3.55.33a1.31 1.31 0 0 1-.58-1.45c.3-1.13 1.57-1.86 2.54-2.37A28.72 28.72 0 0 1 55.4 74a.57.57 0 0 1 .41-1z" fill="#001530"/><path d="M34.81 56.38l3.13 15.38L124.21 68l.09-15.89s-18.72-5.29-44.09-3.65c-20.11 1.27-45.4 7.92-45.4 7.92z" fill="#333"/><path d="M95.86 63a169.59 169.59 0 0 1-32.52.45c-9.13-.75-18.91-1.58-27.92-4.06l2.52 12.42L124.21 68l.06-10.43A166.09 166.09 0 0 1 95.86 63z" fill="#1a1a1a"/><path d="M122 70.39a27.12 27.12 0 0 1 .64-5.92c.1-.32-4.12-.41-4.73 0-2.19 1.31-2.74 11.37-2.33 13.78.1.59 5.12.67 5.88.84.29-2.52.21-5.11.47-7.65.01-.37.07-.71.07-1.05z" fill="#1a1a1a"/><path d="M45.92 79.93s-.48-5.92-.52-6.33a28.36 28.36 0 0 0-1.61-7.68c-1.74 1-3.78.27-5.68.81-.3.09 2.23 9.83 2.4 10.6a13.92 13.92 0 0 0 .88 3.56c1.23-.65 3.15-.73 4.53-.96z" fill="#1a1a1a"/><path d="M97 58.25c-.06-2.48-.25-4.9-.23-7.38 0-.25-17.52-.11-19.36 0-1.14.06-11.93 1-11.89 1.69s.1 1.61.16 2.41c.27 3.75.68 7.49 1.1 11.23h.16c4.86 0 9.75-.77 14.65-1 5.08-.2 10.21-.02 15.3-.2.04-.77.11-3.74.11-6.75z" fill="#e6e6e6"/><path d="M162.36 55.33c8.3.84 13.6-12.88 10.15-19.38-4.93-9.29-19.57-5.51-23.64 2.31-4.87 9.34 5.09 16.18 13.46 17.07z" fill="#333"/><path d="M172.51 36c-2.61-4.92-8-6.18-13-5.1a20.42 20.42 0 0 1-10.29 17.39c2.67 4 8.16 6.57 13.11 7.09 8.33.8 13.67-12.93 10.18-19.38z" opacity=".2"/><path d="M170.95 1.39A11.84 11.84 0 0 1 172.87 5c.34 1 .25 2.38.8 3.29 1.55-1.08 2.28 2.43 2.46 3.34 1.34 7-.42 14.7-3.64 21-1.87 3.63-3.82 8.38-8 9.74C151.85 46.41 149.07 26 148.61 18c-.1-1.71.31-4.48 2.46-4.61s2.73 3.11 3.45 4.65a15.08 15.08 0 0 1 1.63 5.7c-.2-3.63 1-7.17 1.3-10.77.22-2.56.3-5.37 1.32-7.78.68-1.61 2.12-3.48 3.36-1.28.94 1.66.65 4.6.46 6.42A30.55 30.55 0 0 1 163.84 3c.31-.86.69-2.39 1.59-2.81a1.9 1.9 0 0 1 2.5 1.32C167.74.9 168.53.13 169 0c.78-.12 1.3.61 1.76 1.16z" fill="#fcab58"/><path fill="#333" d="M71.33 111.44l-1.5 3.54 13.03 1.5 1.17-4.27-12.7-.77z"/><path d="M60.21 117.78a9 9 0 0 0-1.32 1c-4.8 4.25-7.37 12.38-4.84 18.46a9.76 9.76 0 0 0 7.37 5.9c4.47.87 9.67 1.78 13.88-.5 6.25-3.39 11.14-9.85 11.75-17 .18-2.16 1-6.44-1.82-6.73-2.12-.22-4.94 3.09-6.87 3.85-3.28 1.29-7.76 2-10.51-.79-2.49-2.54-4.07-6.33-7.64-4.19z" fill="#fcc995"/><path d="M81.89 128.76c-7.57 6.26-16.76 11-26.52 10.73a9.9 9.9 0 0 0 6.06 3.64c4.47.87 9.67 1.78 13.88-.5 6.25-3.39 11.14-9.85 11.75-17 .06-.68.18-1.58.23-2.5a34.58 34.58 0 0 1-5.4 5.63z" opacity=".2"/><path d="M27 136.57c-7.17 2-15.46 3.69-21.2 8.56-9 7.6-4.18 21.37 7 23.72a50.87 50.87 0 0 0 14.62.85c8.21-.68 16.53-1.64 23.82-5.63 6.89-3.77 14.76-7.62 17.37-15.63 1.83-5.61-3.59-14.35-9.5-15.26s-13.33-.26-19.14.61A112.91 112.91 0 0 0 27 136.57z" fill="#333"/><path d="M42.79 154.31A76.08 76.08 0 0 1 16 159.06c-4.23 0-8.31.27-12.5-.43a17.53 17.53 0 0 1-2-.46 14.32 14.32 0 0 0 5 7.89c1.17.16 2.32.28 3.43.35a91.89 91.89 0 0 0 31.86-3.61 84.91 84.91 0 0 0 23.86-12.06 16.65 16.65 0 0 0 .81-2 10.89 10.89 0 0 0-.88-7.54 85 85 0 0 1-22.79 13.11z" fill="#e6e6e6"/><path d="M16.79 151.26c8.62.35 17.3-2.26 25.17-5.5a87.14 87.14 0 0 0 18.76-10.61 8.38 8.38 0 0 0-3.48-1.51 42.45 42.45 0 0 0-7-.41 103.12 103.12 0 0 1-9.69 5 63.71 63.71 0 0 1-20.69 5.58 29.38 29.38 0 0 1-10-1.15 23.77 23.77 0 0 0-4.11 2.82 13.57 13.57 0 0 0-2.47 2.82c3.95 2.23 9.27 2.79 13.51 2.96z" fill="#e6e6e6"/><path d="M31.23 165.37c-.29-.33-.54-.7-.8-1.06a23.34 23.34 0 0 1-2.65-10.91 44.58 44.58 0 0 1 2-12.64c.25-.91.54-1.84.82-2.76s.58-1.57.88-2.34c-1.76.41-3.53.85-5.28 1.34l-3.49 1c-4.32 6-4.33 14.85-1.59 22.57a28.47 28.47 0 0 0 3 9.37c.82 0 1.65-.07 2.47-.14 2.61-.22 5.23-.47 7.83-.85a43.36 43.36 0 0 0-3.19-3.58z" fill="#333"/><path d="M90.22 116.38a1.24 1.24 0 0 0-.54-.93c-1.92-1.28-6.16 2.62-7.57 3.6-2.89 2-7.58 5-7.69 8.91a2.06 2.06 0 0 0 2.57 2c1.71-.43 3-1.79 4.33-2.9 2.79-2.35 5.85-3.71 7.67-7 .44-.81 1.38-2.51 1.23-3.68z" fill="#fcc995"/><path d="M25.57 168.66c-5.11-9.8-4.22-21.28-.42-31.38-6.68 1.83-14.19 3.6-19.47 8.18-8.67 7.52-4 21.13 6.78 23.45a48 48 0 0 0 13.68.87c-.14-.37-.38-.78-.57-1.12z" fill="#fc863c"/><path d="M48.26 154.18c-14.66 6.49-32.55 9.3-47.16 1.26a14.52 14.52 0 0 0 11.68 13.4 50.87 50.87 0 0 0 14.62.85c8.21-.68 16.53-1.64 23.82-5.63 6.89-3.77 14.76-7.62 17.37-15.63.8-2.45.21-5.49-1.19-8.22a55.44 55.44 0 0 1-19.14 13.97z" opacity=".2"/><path d="M39.26 68c-1.17 2-.5 4.81.08 7 .78 3.05 1.52 6.05 2.26 9l2.68 10.66s44.61 8.67 73-3.33l2.35-13c.74-4.09 2.43-8.49 1.51-12.69-.66-3-4.65-3.31-7.12-3.44-4.33-.22-8.67.17-13 .09-5.17-.11-10.32.77-15.49 1-5.39.23-10.79.43-16.17.83L46 65.83c-2 .15-4.8-.07-6.25 1.48a3.94 3.94 0 0 0-.49.69z" fill="#7dffdc" opacity=".7"/><path d="M95.05 80.35c-2.75.37-5.49.74-8.22 1.14l-.75.13-2.9.51a96.3 96.3 0 0 1-19.41 2c-7.45-.13-15-.86-22.43-1.07l2.93 11.66s44.61 8.67 73-3.33L120 76.1c-8.42 1.97-16.84 3.15-24.95 4.25z" fill="#1b1464" opacity=".1"/><path d="M52.87 139a46.36 46.36 0 0 0 13.92 8.33c2 .69 4.26 1 5.36-1.41 3.5-7.74-15.58-17.67-21-17.62-7.52.07-2.24 7.06.93 10z" fill="#333"/><path d="M57.54 91.46c-1.59-7.68-3-15.75-4.39-24.26a40.91 40.91 0 0 0 6.25-.64C61.93 77 64.19 87 65.64 96.35c-2.41-.25-4.9-1.13-7.35-1.37-.29-1.17-.51-2.34-.75-3.52zm10.54-.89c.45 2.07 1 4.08 1.53 6.06a64.53 64.53 0 0 0 6.9-.05c3.41-.22 6.82-.45 10.23-.89-.11-7-.4-14.36-1-22-.19-2.6-.42-5.32-.67-8.11-3.22.06-6.39-.07-9.26-.09a102.38 102.38 0 0 0-12.1.51 160.18 160.18 0 0 0 2.77 17.6q.75 3.55 1.6 6.97z" fill="#f2f2f2" opacity=".7"/><path d="M44 60.73a4 4 0 0 0-.48-1.58 2.18 2.18 0 0 0-4 1.66c.16.43.33.87.53 1.29v.11a4.34 4.34 0 0 0 .23 1.1 2.05 2.05 0 0 0 1.92 1.48 2 2 0 0 0 2-2 7.24 7.24 0 0 0-.2-2.06z"/><path d="M51.27 58.3a2.74 2.74 0 0 0-5.39.7v.25a5 5 0 0 0-.07 1.34 10.11 10.11 0 0 0 .48 2.31 2.72 2.72 0 0 0 5.34-.69 13.35 13.35 0 0 0-.36-3.91z"/><path d="M118.61 56.37a3.57 3.57 0 0 1 .45-1.4c2.22-3.94 5.62 5.07 1.08 5a1.81 1.81 0 0 1-1.77-1.79 6.46 6.46 0 0 1 .24-1.81z"/><path d="M112.15 54.13a2.44 2.44 0 0 1 4.79.68v.22a4.44 4.44 0 0 1 .05 1.19 9 9 0 0 1-.45 2.06 2.42 2.42 0 0 1-4.75-.67 11.9 11.9 0 0 1 .36-3.48z"/><path d="M78.79 41.65a5.29 5.29 0 0 0-.42-.7c-.88-1.24-2.45-2.12-3.6-.64s-.7 4.85 1 5.79a2.79 2.79 0 0 0 1.42.51h.11a1.16 1.16 0 0 0 1.27-.69 4.65 4.65 0 0 0 .22-4.27z"/><path d="M87 40.77a3.27 3.27 0 0 0-.6-.93c-2.33-2.53-6.4 5.16-2.84 6.65a2.52 2.52 0 0 0 1.23.21c2.55-.22 3.21-3.79 2.21-5.93z"/><path d="M94.55 38c.36-2.07-.44-4.2-2.67-3.25s-3.87 6.11-.56 6.5c1.8.26 2.93-1.46 3.23-3.25z"/><path d="M70.89 40.29a4.87 4.87 0 0 0-.11-1.91c-1.25-4.6-7-.35-3.26 3.23 1.87 1.82 3.12.47 3.37-1.32z"/><path d="M69.78 40.56l-.12.26a1.77 1.77 0 0 0 .12-.26z"/><path d="M166.41 26.77c2.62 0 4.57-1.16 4.08-3.94-.57-3.23-3-2.62-5.72-3.18-1.16-.24-2.48-1-3.68-.83-2.85.37-4.22 5-1.76 6.81 1.46 1.06 5.33 1.16 7.08 1.14z" opacity=".05"/><path d="M168.41 29.24a4.07 4.07 0 0 0-2.08-.32 5 5 0 0 0-3.93 3.87 4.61 4.61 0 0 0-.51 0c.59 0-.89-3.78-1.09-4.07a4.78 4.78 0 0 0-3.62-2.25c-3.12-.09-5.12 3.12-4.32 5.94 1.31 4.62 5.88 7.08 10.51 6.54a10.84 10.84 0 0 0 6.14-2.78c1.91-1.84 1.55-5.81-1.1-6.93z" fill="#fcb56c"/><path d="M164.13 17.22a2.46 2.46 0 0 0 .9.62 4.24 4.24 0 0 0 4.61-.68c1.65-1.44 1.94-3 2.27-5a16.6 16.6 0 0 0 .2-4.44c-.1-.93-1.74-6.6-2.86-3.52-.37 1 .1 7.26-2.11 6.87-1.47-.26-.55-4.56-.59-5.56s-.33-3.41-1.84-2c-.8.72-.7 2.76-.81 3.74a63 63 0 0 0-.39 6.73c-.01 1.16-.12 2.4.62 3.24z" opacity=".1"/><path d="M162 15.51c.57-1.15.83-9.93-1.6-8.91-.68.29-1.27 2.1-1.36 2.77-.23 1.76-.8 5.24.24 6.88s2.07.6 2.72-.74z" opacity=".1"/><path d="M152.3 15.68a1.71 1.71 0 0 0-.93-.93c-1.06-.26-1.88 1.07-2.09 1.91-.35 1.45.53 5 2.7 4.43 1.82-.45 1.32-3 .83-4.22a10.6 10.6 0 0 0-.51-1.19z" opacity=".1"/><path d="M173.48 18.3c1.17-.19 1.81-4 1.91-4.94.08-.74 0-3.23-1.39-2.43-1.2.69-1.48 4.08-1.56 5.32-.04.75-.04 2.23 1.04 2.05z" opacity=".1"/><path d="M72 93.4c-.33-1.13-2.94-3.11-3.84-3.24-1.85-.27-1.43 1.78-.67 2.7s4.51 2.72 4.51.78a.76.76 0 0 0 0-.24z" fill="#001530" opacity=".2"/><path d="M86.63 92.49a2.07 2.07 0 0 1 .24-.83c.44-.92 3.53-3.53 4.62-3.07 2.11.88-.94 3.71-1.74 4.18-1.17.67-3.15.93-3.12-.28z" fill="#001530" opacity=".2"/><path d="M43.58 70.12c-.29-1.79-1.83-3.43-3-1.65-.85 1.25.11 5.47 2.14 4.19a2.41 2.41 0 0 0 .86-2.54z" fill="#e6e6e6"/><path d="M119.76 65.47c-.29-1.79-1.83-3.43-3-1.65-.85 1.25.11 5.47 2.14 4.19a2.41 2.41 0 0 0 .86-2.54z" fill="#e6e6e6"/></g></g></svg>