<svg xmlns="http://www.w3.org/2000/svg" viewBox="-0.6000070571899414 -0.12659597396850586 122.08000183105469 110.30614471435547"><title>Depositphotos_118776408_11</title><g data-name="Layer 2"><g data-name="Layer 1"><path fill="#6bcff6" d="M25.58 85.61l.9 6.8-4.1 9.9-3.1 4.5-5.7-12 5.2-7.7 6.8-1.5z"/><path d="M27.58 83.51S18 81.41 12 84.61s-8.4 9.7-8.4 9.7l-1 9.6v3l9.4-8.6 4.9-10.4z" fill="#6bcff6"/><path d="M117.38 37.31s-9.3 11-44.4 7.7c-28.8-2.7-44.6 14.6-44.6 14.6l34.4-29.8 30.9-14.2 12.9-4.3 5.8 3.3z" fill="#5cc5c0"/><path d="M119 33.61a37.32 37.32 0 0 1-.8-4.1c-1.3-6.8-2.9-15.3-8.4-18.8a10.83 10.83 0 0 0-8.8-1.1c-13.5 3.3-53.2 26.4-70 44.1-14.4 15.3-18 24.9-18.8 27.8-2 1.3-7.6 5.3-10 11-2.8 6.7-2.1 15.5-2.1 15.9a1.88 1.88 0 0 0 2 1.7 2.35 2.35 0 0 0 .8-.2 31.32 31.32 0 0 0 10.6-10.5 48.42 48.42 0 0 0 5.5 9.3 1.9 1.9 0 0 0 1.5.8h.4a1.81 1.81 0 0 0 1.4-1.5 29.27 29.27 0 0 1 3.7-8.5c2.4-3.9 2-10.3 1.6-13.5h.2c4.5-.9 11.2-2.3 17.6-5.8l.2.2a4.77 4.77 0 0 0 3.3 1.8 3.08 3.08 0 0 0 1.3-.3c2.9-1.3 8.3-9 10.1-13.5 4-1 18.6-4.6 24.3-6.2 6.2-1.8 27.7-4.6 27.9-4.6a1.87 1.87 0 1 0-.5-3.7c-.9.1-22 2.8-28.5 4.7l-.9.2c1.4-1.3 4.8-3.6 12.9-6 13.88-4.2 25.98-8.81 23.5-19.2zm-96.2 63.9a39.24 39.24 0 0 0-2.9 5.8c-1.9-3.1-3.8-6.7-3.8-9 2.6-4.9 4.7-6.6 7.8-7.4.28 3.09.48 8-1.12 10.6zm55.1-37.9v.5C70 62.21 58.58 65 58.38 65a2 2 0 0 0-1.4 1.3c-1 3.7-6.3 10.8-8.2 12-1.1-.7-3-4.3-2.9-5.6.8-1.1 5.5-4.5 9.6-7.1a2 2 0 0 0 .4-2.7 2 2 0 0 0-2.4-.5c-2.9 1.8-9.8 6.3-11 8.6-.8 1.6-.2 3.9.7 6-5.8 3.1-11.8 4.3-16.3 5.2-1.2.2-2.3.5-3.2.7-5.2 1.2-8.1 3.8-11.3 10v.1c-.4.7-.7 1.4-1.1 2.2a25.57 25.57 0 0 1-7.6 9.3 29.65 29.65 0 0 1 1.9-10.6c2.4-5.7 9-9.6 9.1-9.7a2 2 0 0 0 .9-1.3c0-.1 2-9.7 18.1-26.8s55.3-39.9 68.2-43a7.38 7.38 0 0 1 5.8.6c4.1 2.6 5.6 10.6 6.7 16.4.3 1.5.6 3 .9 4.3 1.4 5.8-3.9 9.5-20.8 14.7-15 4.61-16.48 9.21-16.6 10.51zm-3.1-8.7a1.81 1.81 0 0 1-1.3 2.3l-7.1 1.9c-.2 0-.3.1-.5.1a1.9 1.9 0 0 1-1.9-1.9 2 2 0 0 1 1.4-1.9l7.1-1.9a2 2 0 0 1 2.3 1.4zm-64.7-49A2 2 0 0 1 12 0a15.15 15.15 0 0 1 9.2 2.8 12.34 12.34 0 0 0 7.2 2.3 11.08 11.08 0 0 0 7.2-2.3A15.15 15.15 0 0 1 44.78 0 15.15 15.15 0 0 1 54 2.81a12.34 12.34 0 0 0 7.2 2.3 11.08 11.08 0 0 0 7.2-2.3A13.73 13.73 0 0 1 77.28 0a2 2 0 0 1 1.9 1.9 2 2 0 0 1-1.9 1.9 11.08 11.08 0 0 0-7.2 2.3A15.06 15.06 0 0 1 61 8.91 15.25 15.25 0 0 1 51.78 6a12.34 12.34 0 0 0-7.2-2.3 11.08 11.08 0 0 0-7.2 2.3 15.15 15.15 0 0 1-9.2 2.8 14.57 14.57 0 0 1-9-2.8A12.34 12.34 0 0 0 12 3.71a1.81 1.81 0 0 1-1.92-1.8zm0 10.1a2 2 0 0 1 1.9-1.9 15.15 15.15 0 0 1 9.2 2.8 11.59 11.59 0 0 0 7.2 2.2 11.59 11.59 0 0 0 7.2-2.2 15.15 15.15 0 0 1 9.2-2.8 15.15 15.15 0 0 1 9.2 2.8 11.59 11.59 0 0 0 7.2 2.2 1.9 1.9 0 0 1 1.9 1.9A2.17 2.17 0 0 1 61 19a15.15 15.15 0 0 1-9.2-2.8 12.34 12.34 0 0 0-7.2-2.3 11.08 11.08 0 0 0-7.2 2.3 15.15 15.15 0 0 1-9.2 2.8 15.15 15.15 0 0 1-9.2-2.8 12.34 12.34 0 0 0-7.2-2.3 1.87 1.87 0 0 1-1.7-1.9zm0 10.1a2 2 0 0 1 1.9-1.9 15.15 15.15 0 0 1 9.2 2.8 11.59 11.59 0 0 0 7.2 2.2 11.59 11.59 0 0 0 7.2-2.2 15.15 15.15 0 0 1 9.2-2.8 1.9 1.9 0 1 1 0 3.8 11.59 11.59 0 0 0-7.2 2.2 15.15 15.15 0 0 1-9.2 2.8 15.15 15.15 0 0 1-9.2-2.8A11.59 11.59 0 0 0 12 24a1.9 1.9 0 0 1-1.92-1.89zm0 10.1a2 2 0 0 1 1.9-1.9 15.15 15.15 0 0 1 9.2 2.8 11.59 11.59 0 0 0 7.2 2.2 1.9 1.9 0 0 1 0 3.8 15.15 15.15 0 0 1-9.2-2.8A12.34 12.34 0 0 0 12 34a1.76 1.76 0 0 1-1.92-1.79zm98.3 45.6a2 2 0 0 1-1.9 1.9 11.59 11.59 0 0 0-7.2 2.2 16.11 16.11 0 0 1-18.3 0 11.59 11.59 0 0 0-7.2-2.2 1.9 1.9 0 1 1 0-3.8 15.15 15.15 0 0 1 9.2 2.8 12.49 12.49 0 0 0 14.3 0 15.15 15.15 0 0 1 9.2-2.8 1.9 1.9 0 0 1 1.9 1.9zm0 10.1a2 2 0 0 1-1.9 1.9 11.59 11.59 0 0 0-7.2 2.2A16.11 16.11 0 0 1 81 92a12.49 12.49 0 0 0-14.3 0 15.15 15.15 0 0 1-9.2 2.8 1.9 1.9 0 0 1 0-3.8 11.59 11.59 0 0 0 7.2-2.2 16.11 16.11 0 0 1 18.3 0 12.49 12.49 0 0 0 14.3 0 15.76 15.76 0 0 1 9.1-2.8 1.92 1.92 0 0 1 2 1.9zm0 10.1a2 2 0 0 1-1.9 1.9 11.59 11.59 0 0 0-7.2 2.2 16.11 16.11 0 0 1-18.3 0 12.49 12.49 0 0 0-14.3 0 16.11 16.11 0 0 1-18.3 0 11.59 11.59 0 0 0-7.2-2.2 1.9 1.9 0 0 1 0-3.8 15.15 15.15 0 0 1 9.2 2.8 12.49 12.49 0 0 0 14.3 0 16.11 16.11 0 0 1 18.3 0 12.49 12.49 0 0 0 14.3 0 15.15 15.15 0 0 1 9.2-2.8 1.9 1.9 0 0 1 1.9 1.9z" fill="#fff"/><circle cx="103.38" cy="20.71" r="4.9" fill="#fff"/><circle cx="109.98" cy="25.61" r="1.7" fill="#fff"/></g></g></svg>