<svg xmlns="http://www.w3.org/2000/svg" viewBox="0 -1 121.10000610351562 164.5"><title>Asset 6</title><g data-name="Layer 2"><g data-name="Layer 1"><path fill="#fff" d="M77.16 163.43l-5.62-6.31-4.62 6.24-1.43-1.06 5.92-8.01 7.08 7.95-1.33 1.19z"/><path fill="#fff" d="M71.13 162.9l-.55-7.13v-44.73h1.78v44.67l.54 7.06-1.77.13z"/><path fill="#fff" d="M90.65 163.5l-5.62-6.41-4.61 6.35-1.44-1.05 5.93-8.16 7.09 8.09-1.35 1.18z"/><path fill="#fff" d="M84.62 162.98l-.54-7.25v-45.49h1.78v45.42l.54 7.18-1.78.14z"/><path d="M1.26 70.08a116.76 116.76 0 0 0 20.66-6.91c13.84-6.08 30.4-16.67 35.31-33.58C66.12-1 80.32-.27 89.33 1.69 100.21 4.07 109.9 12.13 112.87 24s5.92 35.55-2 54.65-22.04 42.45-53.64 32.58S3.9 76 1.26 70.08z" fill="#c8eaf5"/><path d="M71.39 114.46A48.7 48.7 0 0 1 57 112.08C24.34 101.88 3 76.11.45 70.44l-.45-1 1.08-.23a116.77 116.77 0 0 0 20.48-6.86c13.19-5.8 29.94-16.24 34.81-33C62.1 9.59 70.75 0 82.79 0a32 32 0 0 1 6.73.82 31.45 31.45 0 0 1 24.21 23C115 29 121.1 56.3 111.72 79c-6.31 15.21-17.34 35.46-40.33 35.46zM2.58 70.69C7 78.41 28.52 101.32 57.5 110.38a46.94 46.94 0 0 0 13.9 2.3c21.91 0 32.57-19.62 38.68-34.38 9.17-22.16 3.22-48.95 1.93-54.09A29.68 29.68 0 0 0 89.14 2.56a30.19 30.19 0 0 0-6.35-.78c-11.14 0-19.22 9.17-24.7 28C53 47.27 35.82 58 22.28 64a122.57 122.57 0 0 1-19.7 6.69z" fill="#fff"/><path d="M56.24 43.41C70.4 36.5 80.44 30.88 89 37.79s14.65 15.49 9.05 27.34-18.43 23.38-37.86 17.78-32.36-15.36-34.07-17 30.12-22.5 30.12-22.5z" fill="#fce3ee"/><path d="M70 85.26a36.37 36.37 0 0 1-10.05-1.49c-19.1-5.5-32.21-15.09-34.44-17.17a1.12 1.12 0 0 1-.35-.92c.23-2.67 19.26-15.57 30.59-23l2.51-1.24c8.73-4.29 15.63-7.68 21.9-7.68a14.43 14.43 0 0 1 9.39 3.35c7.06 5.7 15.71 14.85 9.3 28.42C93 77.88 82.23 85.26 70 85.26zM27.1 65.63c3 2.56 15.46 11.28 33.34 16.43A34.61 34.61 0 0 0 70 83.48c17.08 0 25.17-14.33 27.25-18.72 4.53-9.59 1.82-17.69-8.8-26.27a12.71 12.71 0 0 0-8.27-3c-5.86 0-12.59 3.31-21.12 7.49l-2.42 1.19C43.44 52.9 29 63.1 27.1 65.63z" fill="#fff"/><path d="M102.81 8.55s13.5-5.4 15.8-5.07-5.33 19.75-4.81 22.06-5.4-15.54-11-17z" fill="#fce3ee"/><path d="M113.36 26.63c-.63 0-.72-.21-1.4-1.86-3.94-9.52-6.52-13.91-8.82-15.18l-2.6-2 1.8-.59c1.32-.53 12.62-4.45 15.57-4.45h.36a1.26 1.26 0 0 1 .9.59c.85 1.34-.22 5.31-2.69 13.43-1.08 3.52-2.41 7.91-2.27 8.73a1 1 0 0 1-.14 1l-.27.34zm-8.89-18c3.21 2.45 6.21 8.55 8.45 13.79.39-1.53 1-3.59 1.85-6.36 1.16-3.82 3.06-10 2.93-11.71-2.2.25-8.47 2.47-13.22 4.32z" fill="#fff"/><ellipse cx="95.77" cy="16.84" rx="4.44" ry="4.48" fill="#a6c5e7"/><path d="M95.77 22.21a5.37 5.37 0 1 1 5.34-5.37 5.36 5.36 0 0 1-5.34 5.37zm0-9a3.58 3.58 0 1 0 3.55 3.58 3.57 3.57 0 0 0-3.55-3.53z" fill="#fff"/></g></g></svg>