<svg xmlns="http://www.w3.org/2000/svg" viewBox="-1.7799997329711914 -0.6800041198730469 341.3500061035156 110.68000793457031"><title>Depositphotos_76912845_01</title><g data-name="Layer 2"><g data-name="—ÎÓÈ_2"><path d="M205.56 63.38c-3.12 4.24-2 10.76-1.45 15.56a61.87 61.87 0 0 0 2.89 12.3c2.67 8.11 11.14 16.76 20.14 13.2 10.55-4.16 6-22.91 5.26-31.19-.37-4.3-.77-9.07-4.77-11.6s-10.45-3.18-15.06-2.1c-2.19.52-5.57 1.92-7.01 3.83z" fill="#e8e9ed"/><path d="M209.43 68.41c-2.62 3.56-1.66 9-1.22 13.07a52 52 0 0 0 2.43 10.33c2.24 6.81 9.36 14.08 16.92 11.09 8.86-3.5 5-19.25 4.42-26.2-.31-3.61-.64-7.62-4-9.74s-8.78-2.67-12.65-1.77c-1.85.44-4.72 1.63-5.9 3.22z" fill="#f0f0f1"/><path d="M256.85 103.3a5.65 5.65 0 0 1-.63.06c-9.58.5-20.45-18-22.19-28.52-.58-3.46-1.49-7.67 0-11 .08-.18.17-.36.27-.54 3.15-5.69 14-7.16 19.23-4.19l.1.05c5.15 3 7 8.53 7.84 14.18 1.34 8.59 4.91 28.66-4.62 29.96z" fill="#e8e9ed"/><path d="M256.85 103.3c-7.87-4.62-15.29-18.44-16.72-27-.58-3.46-1.49-7.67 0-11 .08-.18.17-.36.27-.54 2.17-3.92 8-5.84 13.12-5.68l.1.05c5.15 3 7 8.53 7.84 14.18 1.35 8.62 4.92 28.69-4.61 29.99z" fill="#f0f0f1"/><path d="M284.81 79.17c-.26 4.11-.8 13-5.3 15.05l-.2.09c-4.35 1.77-8.41-3.69-10.77-6.47-5.46-6.45-9.12-20.52-4.23-28.09a8.06 8.06 0 0 1 .94-1.19c2.63-2.75 7.46-3.06 10.93-1.87a8.72 8.72 0 0 1 2.82 1.67c2.78 2.38 4.42 6.36 5.22 9.72a39.52 39.52 0 0 1 .59 11.09z" fill="#e8e9ed"/><path d="M284.81 79.17c-.26 4.11-.8 13-5.3 15.05a47.79 47.79 0 0 1-3.64-4.07c-5.46-6.45-9.12-20.52-4.23-28.09a8 8 0 0 1 .94-1.19 9.26 9.26 0 0 1 6.42-2.51c2.78 2.38 4.42 6.36 5.22 9.72a39.52 39.52 0 0 1 .59 11.09z" fill="#f0f0f1"/><path d="M308.65 79.57a15.85 15.85 0 0 1-.92 2.91c-1.13 2.69-3.14 5.29-5.83 3.65-2.15-1.31-3.81-2.94-6.17-4-4.62-2.06-7.86-4.78-9.58-9.69-1.38-4-3.52-10.17-2.25-14.31 1.45-4.71 8.47-5.13 12.23-4a11.8 11.8 0 0 1 3 1.4 24.57 24.57 0 0 1 6.8 7.47c3 4.63 3.84 11.16 2.72 16.57z" fill="#e8e9ed"/><path d="M320.67 77.33c-1.65 1.28-4.47-1.43-5.53-2.53a78.68 78.68 0 0 1-7.88-10.28c-2-2.89-4.28-6.55-3.59-10.23a7.95 7.95 0 0 1 7.66-6c3 .13 5.19 2.71 6.51 6.11 2.07 5.28 3 12.13 3.47 17.72 0 .51.15 1.26.18 2 .06 1.32-.06 2.62-.82 3.21z" fill="#e8e9ed"/><path d="M308.65 79.57a15.85 15.85 0 0 1-.92 2.91c-1.4-.25-3-1.36-4.66-4.17-4.61-7.87-14-6.78-14.79-13.84-1.09-9.44 7-9.44 10.81-8.92a24.57 24.57 0 0 1 6.84 7.45c3 4.63 3.84 11.16 2.72 16.57z" fill="#f0f0f1"/><path d="M321.5 74.21c-2.69-1.67-6-4.69-9.87-9.89-8.09-10.76-4.5-14.62-.3-16 3 .13 5.19 2.71 6.51 6.11 2.07 5.28 3 12.13 3.47 17.72.05.53.16 1.28.19 2.06z" fill="#f0f0f1"/><path d="M172.84 65.26l-.33.31c-5.21 5-4.22 13.86-2.91 20.21 1.44 7 3.16 14.17 8.12 19.52a11.39 11.39 0 0 0 7.15 3.66c8 .3 12.11-9.33 14-15.43 2.54-8.25 7.92-22.44-1.65-28.37-6.29-3.89-18.48-5.16-24.38.1z" fill="#e8e9ed"/><path d="M174.41 69.69l-.29.27c-4.56 4.4-3.7 12.15-2.55 17.72 1.26 6.09 2.77 12.42 7.12 17.12A10 10 0 0 0 185 108c7 .26 10.62-8.18 12.27-13.53 2.23-7.24 6.95-19.67-1.44-24.87-5.55-3.4-16.24-4.49-21.42.09z" fill="#f0f0f1"/><ellipse cx="188.24" cy="102.68" rx="2.6" ry="1.6" transform="rotate(-13.74 188.206 102.67)" fill="#fff"/><path d="M231 95.9c-.63 2.64-2.45 4.11-3 3.65s-.07-2.24.39-4.29.84-3.88 1.59-4 1.62 2 1.02 4.64z" fill="#fff"/><path d="M260.38 98.16c-.45 1.9-2.16 2.86-2.77 2.49s-.22-1.65.11-3.12.58-2.79 1.31-2.83 1.81 1.57 1.35 3.46z" fill="#fff"/><ellipse cx="260.38" cy="92.23" rx="1.09" ry="1.36" fill="#fff"/><path d="M132.17 63.38c3.12 4.24 2 10.76 1.45 15.56a61.91 61.91 0 0 1-2.89 12.3c-2.67 8.11-11.14 16.76-20.14 13.2-10.55-4.16-6-22.91-5.26-31.19.37-4.3.77-9.07 4.77-11.6s10.45-3.18 15.06-2.1c2.19.52 5.61 1.92 7.01 3.83z" fill="#e8e9ed"/><path d="M128.3 68.41c2.62 3.56 1.67 9 1.22 13.07a52 52 0 0 1-2.43 10.33c-2.24 6.81-9.36 14.08-16.92 11.09-8.86-3.5-5-19.25-4.42-26.2.31-3.61.64-7.62 4-9.74s8.78-2.67 12.65-1.77c1.85.44 4.72 1.63 5.9 3.22z" fill="#f0f0f1"/><path d="M80.88 103.3a5.68 5.68 0 0 0 .63.06c9.59.5 20.45-18 22.19-28.52.58-3.46 1.49-7.67 0-11-.08-.18-.17-.36-.27-.54-3.15-5.69-14-7.16-19.23-4.19l-.1.05c-5.15 3-7 8.53-7.84 14.18-1.34 8.59-4.91 28.66 4.62 29.96z" fill="#e8e9ed"/><path d="M80.88 103.3c7.87-4.62 15.3-18.44 16.72-27 .58-3.46 1.49-7.67 0-11-.08-.18-.17-.36-.27-.54-2.17-3.92-8-5.84-13.12-5.68l-.1.05c-5.15 3-7 8.53-7.84 14.18-1.35 8.62-4.92 28.69 4.61 29.99z" fill="#f0f0f1"/><path d="M52.92 79.17c.26 4.11.8 13 5.3 15.05l.2.09c4.35 1.77 8.41-3.69 10.77-6.47 5.46-6.45 9.12-20.52 4.23-28.09a8 8 0 0 0-.94-1.19c-2.63-2.74-7.48-3.05-10.93-1.86a8.71 8.71 0 0 0-2.85 1.66c-2.78 2.38-4.42 6.36-5.22 9.72a39.55 39.55 0 0 0-.56 11.09z" fill="#e8e9ed"/><path d="M52.92 79.17c.26 4.11.8 13 5.3 15.05a48 48 0 0 0 3.64-4.07C67.32 83.7 71 69.63 66.1 62.06a8 8 0 0 0-.94-1.19 9.26 9.26 0 0 0-6.46-2.51c-2.78 2.38-4.42 6.36-5.22 9.72a39.55 39.55 0 0 0-.56 11.09z" fill="#f0f0f1"/><path d="M29.08 79.57a15.85 15.85 0 0 0 .92 2.91c1.13 2.69 3.14 5.29 5.83 3.65 2.15-1.31 3.8-2.94 6.17-4 4.62-2.06 7.86-4.78 9.58-9.69 1.38-4 3.52-10.17 2.25-14.31-1.45-4.71-8.47-5.13-12.23-4a11.79 11.79 0 0 0-3 1.4A24.57 24.57 0 0 0 31.8 63c-3 4.63-3.8 11.16-2.72 16.57z" fill="#e8e9ed"/><path d="M17.06 77.33c1.65 1.28 4.47-1.43 5.53-2.53a78.6 78.6 0 0 0 7.88-10.28c2-2.89 4.28-6.55 3.59-10.23a7.38 7.38 0 0 0-3.89-5 7.42 7.42 0 0 0-3.77-1c-3 .13-5.19 2.71-6.51 6.11-2.07 5.28-3 12.13-3.47 17.72 0 .51-.15 1.26-.19 2-.05 1.32.07 2.62.83 3.21z" fill="#e8e9ed"/><path d="M29.08 79.57a15.85 15.85 0 0 0 .92 2.91c1.4-.25 3-1.36 4.66-4.17 4.61-7.87 14-6.78 14.79-13.84 1.09-9.44-7-9.44-10.81-8.92A24.57 24.57 0 0 0 31.8 63c-3 4.63-3.8 11.16-2.72 16.57z" fill="#f0f0f1"/><path d="M16.23 74.21c2.69-1.67 6-4.69 9.87-9.89 8.09-10.76 4.5-14.62.3-16-3 .13-5.19 2.71-6.51 6.11-2.07 5.28-3 12.13-3.47 17.72-.05.53-.16 1.28-.19 2.06z" fill="#f0f0f1"/><path d="M164.17 66l.33.31c5.21 5 4.22 13.86 2.91 20.21-1.44 7-3.16 14.17-8.12 19.52a11.39 11.39 0 0 1-7.15 3.66c-8 .3-12.11-9.33-14-15.43-2.54-8.25-7.92-22.44 1.65-28.37 6.28-3.9 18.47-5.14 24.38.1z" fill="#e8e9ed"/><path d="M162.59 70.42l.29.27c4.56 4.4 3.7 12.15 2.55 17.72-1.26 6.09-2.77 12.42-7.12 17.12a10 10 0 0 1-6.27 3.21c-7 .26-10.62-8.18-12.27-13.53-2.23-7.24-6.95-19.68 1.44-24.87 5.52-3.42 16.21-4.51 21.38.08z" fill="#f0f0f1"/><ellipse cx="150.99" cy="101.73" rx="1.45" ry="2.35" transform="rotate(-76.26 150.993 101.73)" fill="#fff"/><path d="M106.76 95.9c.63 2.64 2.45 4.11 3 3.65s.07-2.24-.39-4.29-.84-3.88-1.59-4-1.65 2-1.02 4.64z" fill="#fff"/><path d="M77.35 98.16c.45 1.9 2.16 2.86 2.77 2.49s.22-1.65-.12-3.13-.58-2.79-1.31-2.83-1.8 1.58-1.34 3.47z" fill="#fff"/><ellipse cx="77.35" cy="92.23" rx="1.09" ry="1.36" fill="#fff"/><path d="M221.12 49.26a46.42 46.42 0 0 1-1.12 6.55 11.68 11.68 0 0 1-5.65 7.41c-6.76 3.88-15.71 3.59-23.21 3-5.62-.41-14.27.25-18.81-3.83-2.95-2.65-3.34-7.28-3.39-11.2v-1.61a63.2 63.2 0 0 1 .39-6.86c1.63-14.66 6.79-40.44 28.22-40.44 3 0 13.3 1.63 17.91 11.13 3.34 6.88 5.41 18.32 5.87 27.2a49.23 49.23 0 0 1-.21 8.65z" fill="#f8f8f9"/><path d="M260 51.58c-.93 3.43-2.52 7-5.87 8.66-5 2.43-10.8 2.83-16.29 2.5h-.49c-5-.31-10.84-.9-15.12-3.68a5.39 5.39 0 0 1-2.23-3.25 46.42 46.42 0 0 0 1.16-6.55 49.23 49.23 0 0 0 .17-8.62c.63-2.73 1.42-5.82 2.36-9.29 4.7-17.37 15-25.15 22.61-25.15 4.87 0 8.33 5.95 10.8 13.79a98.56 98.56 0 0 1 2.63 10.57c.24 1.23.47 2.46.68 3.68a39.78 39.78 0 0 1-.41 17.34z" fill="#f8f8f9"/><path d="M287.88 53c-1.09 4.71-2.54 10.49-6.88 10.49a12.69 12.69 0 0 1-3-.5c-5.44-1.44-14.84-5.85-18.05-11.47a39.78 39.78 0 0 0 .4-17.34c-.21-1.22-.44-2.45-.68-3.68a54.89 54.89 0 0 1 4.85-14.77c5.27-10.07 11.6-14.59 14.31-15.5 1.63-.54 7.24-.91 7.78 8.14.1 1.75.26 4.33.43 7.38.14 2.63.3 5.6.45 8.7.6 11.86 1.08 25.55.39 28.55z" fill="#f8f8f9"/><path d="M301.45 38.23c-.06 5.71-.68 9.62-1.57 12.28-1.71 5.09-4.43 5.61-6.21 5.44-2.89-.27-4.66-1.31-5.79-2.91a10.57 10.57 0 0 0 .18-1.28v-.72c.32-5-.11-16.49-.61-26.6.05-.28.11-.55.17-.82a32.65 32.65 0 0 1 2.56-8c1.16-2.21 3.58-7 6.37-4.16 1.82 1.84 2.35 5.21 3 7.63a62.72 62.72 0 0 1 1.76 12.47c.14 2.22.17 4.44.14 6.67z" fill="#f8f8f9"/><path d="M311 47.68c-.18.47-.37.94-.58 1.41A7.67 7.67 0 0 1 305 53.2a4.52 4.52 0 0 1-5-2.43l-.12-.26a24.08 24.08 0 0 0 .82-3.31 52.78 52.78 0 0 0 .74-9c0-2.21 0-4.45-.11-6.68.39-2.48.84-5 1.37-7.42.09-.44.19-.88.29-1.33.9-4 5.55-14.83 7.46-5.23a109.18 109.18 0 0 1 2.33 16.09A35.57 35.57 0 0 1 311 47.68z" fill="#f8f8f9"/><path d="M321.35 40.58a14.71 14.71 0 0 1-.87 5 6.74 6.74 0 0 1-6 4.6 2.86 2.86 0 0 1-3.48-2.5 27.62 27.62 0 0 0 1.21-4.36c2.39-3.44 4.31-14.36 4.44-20.79.07-3.35-.67-3.42-1.46-2.58.71-3.33 1.49-6 2.37-7.06s1.65 1.87 2.29 6.18a160.22 160.22 0 0 1 1.5 21.51z" fill="#eff0f4"/><path d="M316.65 22.53c-.12 6.43-2 17.35-4.44 20.79a41.33 41.33 0 0 0 .58-9.66c.69-4 1.48-9.38 2.4-13.71.81-.84 1.52-.77 1.46 2.58z" fill="#f8f8f9"/><path d="M327 37c0 3.7-.63 7.76-3.7 8.77h-.1a3 3 0 0 1-2.73-.21 11.51 11.51 0 0 0 .55-2 17.64 17.64 0 0 0 .31-3 160.22 160.22 0 0 0-1.51-21.5c.18-.94.38-1.8.6-2.53a6.63 6.63 0 0 1 1.09-2.38c2.5-2.79 3.92 3.37 4.76 11.79.19 1.95.35 4 .49 6.12.1 1.25.24 3.03.24 4.94z" fill="#f8f8f9"/><path d="M335.25 36a7.54 7.54 0 0 1-4.85 2 5.26 5.26 0 0 1-3.4-1v-1.55c0-1.29-.14-2.46-.2-3.35-.14-2.11-.3-4.17-.49-6.12A94.73 94.73 0 0 1 330 14.35a1.74 1.74 0 0 1 .42-.64c1.72-1.53 5 6.83 5.29 7.58 1.7 4.63 3.86 10.71-.46 14.71z" fill="#f8f8f9"/><path d="M221.12 49.26c.14-5.7-1.22-15.88-4.89-26.32a24.9 24.9 0 0 0-4.19-7A22.52 22.52 0 0 0 197.21 8 17.2 17.2 0 0 0 187 10c-4.84 2.73-7.75 7.52-10.42 12.21-5 8.82-7.6 29.31-7.6 29.31l-.11-.35v-1.61a63.2 63.2 0 0 1 .39-6.86c1.63-14.66 6.79-40.44 28.22-40.44 3 0 13.3 1.63 17.91 11.13 3.34 6.88 5.41 18.32 5.87 27.2a49.23 49.23 0 0 1-.14 8.67z" fill="#eff0f4"/><ellipse cx="200.76" cy="13.98" rx="3.12" ry="5.29" transform="rotate(-75.91 200.775 13.978)" fill="#fff"/><ellipse cx="208.63" cy="17.58" rx="1.63" ry="1.7" fill="#fff"/><path d="M186.18 17.87c-1.28 1.52-2.32 3.14-3.3 3s-1.4-2.82.55-5.24 4.74-2.57 5-1.64-1.03 2.31-2.25 3.88z" fill="#fff"/><path d="M257.07 20c-2.76-5.65-8.32-12.52-17.63-6C225.32 23.83 223 49.53 224 54.28s4.07 6.65 12.62 8.28l.74.15c-5-.31-10.84-.9-15.12-3.68a5.39 5.39 0 0 1-2.24-3.22 46.42 46.42 0 0 0 1.16-6.55 49.23 49.23 0 0 0 .17-8.62c.63-2.73 1.42-5.82 2.36-9.29 4.7-17.37 15-25.15 22.61-25.15 4.84 0 8.3 5.95 10.77 13.8z" fill="#eff0f4"/><ellipse cx="242.42" cy="10.32" rx="2.58" ry="1.76" transform="rotate(-18.21 242.407 10.337)" fill="#fff"/><ellipse cx="237.13" cy="13.24" rx="1.22" ry="1.29" fill="#fff"/><path d="M287 15.75c-1.21-4.75-4-11.47-9.57-7.33-8.14 6.11-15.2 22-15.06 34.2.13 11.66 6.57 16.27 15.66 20.44-5.44-1.44-14.84-5.85-18.05-11.47a39.78 39.78 0 0 0 .4-17.34c-.21-1.22-.44-2.45-.68-3.68a54.89 54.89 0 0 1 4.85-14.77C269.79 5.66 276.12 1.14 278.83.23c1.63-.54 7.24-.91 7.78 8.14.11 1.76.27 4.34.39 7.38z" fill="#eff0f4"/><path d="M274.32 16.94c-1.5 2.68-2 5.37-2.7 5.4s-1.43-3.22.43-6.63 5-4.6 5.33-4-1.63 2.51-3.06 5.23z" fill="#fff"/><circle cx="270.17" cy="24.23" r="1.02" fill="#fff"/><ellipse cx="239.57" cy="18.39" rx="3.46" ry="1.63" transform="rotate(-43.03 239.543 18.403)" fill="#fff"/><path d="M301.45 38.23c-.06 5.71-.68 9.62-1.57 12.28-1.71 5.09-4.43 5.61-6.21 5.44-2.89-.27-4.66-1.31-5.79-2.91a10.57 10.57 0 0 0 .18-1.28 17.31 17.31 0 0 0 2.8-.61c10-3 6-34.74 3.53-36.77s-6.72 9.24-6.72 9.24a32.65 32.65 0 0 1 2.56-8c1.16-2.21 3.58-7 6.37-4.16 1.82 1.84 2.35 5.21 3 7.63a62.72 62.72 0 0 1 1.76 12.47c.09 2.22.12 4.44.09 6.67z" fill="#eff0f4"/><ellipse cx="291.2" cy="21.72" rx="2.04" ry="1.29" transform="rotate(-59.45 291.216 21.718)" fill="#fff"/><path d="M311 47.68c-.18.47-.37.94-.58 1.41A7.67 7.67 0 0 1 305 53.2a4.52 4.52 0 0 1-5-2.43l-.12-.26a24.08 24.08 0 0 0 .82-3.31c7.13-.93 7.38-22.13 6-25.9-1-2.92-3.13.9-4 2.82.09-.44.19-.88.29-1.33.9-4 5.55-14.83 7.46-5.23a109.18 109.18 0 0 1 2.33 16.09A35.57 35.57 0 0 1 311 47.68z" fill="#eff0f4"/><path d="M327 37c0 3.7-.63 7.76-3.7 8.77h-.1a3 3 0 0 1-2.73-.21 11.51 11.51 0 0 0 .55-2c5.18-3.33 3.68-20.25 2.67-26-.93-5.21-2.74-2.12-3.26-1.1a6.63 6.63 0 0 1 1.09-2.38c2.5-2.79 3.92 3.37 4.76 11.79.19 1.95.35 4 .49 6.12.09 1.32.23 3.1.23 5.01z" fill="#eff0f4"/><path d="M335.25 36a7.54 7.54 0 0 1-4.85 2 5.26 5.26 0 0 1-3.4-1v-1.55c9.16-4.57 4.86-18 3.47-21.72 1.72-1.53 5 6.83 5.29 7.58 1.65 4.61 3.81 10.69-.51 14.69z" fill="#eff0f4"/><path d="M116.67 49.26a46.48 46.48 0 0 0 1.16 6.55 11.68 11.68 0 0 0 5.65 7.41c6.76 3.88 15.71 3.59 23.21 3 5.62-.41 14.27.25 18.81-3.83 2.95-2.65 3.34-7.28 3.39-11.2v-1.61a62.93 62.93 0 0 0-.39-6.86c-1.63-14.66-6.78-40.44-28.22-40.44-3 0-13.3 1.63-17.91 11.13-3.34 6.88-5.41 18.32-5.87 27.2a49.13 49.13 0 0 0 .17 8.65z" fill="#f8f8f9"/><path d="M77.81 51.58c.93 3.43 2.52 7 5.87 8.66 5 2.43 10.8 2.83 16.29 2.5h.49c5-.31 10.85-.9 15.12-3.68a5.39 5.39 0 0 0 2.25-3.22 46.48 46.48 0 0 1-1.16-6.55 49.13 49.13 0 0 1-.17-8.62c-.63-2.73-1.42-5.82-2.36-9.29C109.43 14 99.12 6.2 91.52 6.2c-4.87 0-8.33 5.95-10.8 13.79a98.51 98.51 0 0 0-2.63 10.57c-.24 1.23-.47 2.46-.68 3.68a39.77 39.77 0 0 0 .4 17.34z" fill="#f8f8f9"/><path d="M49.9 53c1.09 4.71 2.54 10.49 6.88 10.49a12.7 12.7 0 0 0 3-.5c5.44-1.44 14.84-5.85 18.05-11.47a39.77 39.77 0 0 1-.4-17.34c.21-1.22.44-2.45.68-3.68a54.91 54.91 0 0 0-4.85-14.77C68 5.66 61.67 1.14 59 .23c-1.63-.54-7.24-.91-7.78 8.14-.1 1.75-.26 4.33-.43 7.38-.14 2.63-.3 5.6-.45 8.7C49.7 36.31 49.21 50 49.9 53z" fill="#f8f8f9"/><path d="M36.33 38.23c.06 5.71.68 9.62 1.57 12.28 1.71 5.09 4.43 5.61 6.21 5.44 2.89-.27 4.66-1.3 5.79-2.95a10.49 10.49 0 0 1-.18-1.28V51c-.31-5 .11-16.49.61-26.6-.05-.28-.11-.55-.17-.82a32.65 32.65 0 0 0-2.56-8c-1.16-2.21-3.58-7-6.37-4.16-1.82 1.84-2.35 5.21-3 7.63a62.68 62.68 0 0 0-1.76 12.47c-.14 2.26-.16 4.48-.14 6.71z" fill="#f8f8f9"/><path d="M26.78 47.68c.18.47.37.94.58 1.41a7.67 7.67 0 0 0 5.4 4.11 4.52 4.52 0 0 0 5-2.43l.12-.26a24.08 24.08 0 0 1-.82-3.31 52.84 52.84 0 0 1-.74-9c0-2.21 0-4.45.11-6.68-.39-2.48-.84-5-1.37-7.42-.09-.44-.19-.88-.29-1.33-.9-4-5.55-14.83-7.46-5.23A109.18 109.18 0 0 0 25 33.66a35.56 35.56 0 0 0 1.78 14.02z" fill="#f8f8f9"/><path d="M16.43 40.58a14.69 14.69 0 0 0 .87 5 6.74 6.74 0 0 0 6 4.6 2.86 2.86 0 0 0 3.47-2.49 27.51 27.51 0 0 1-1.21-4.36c-2.38-3.45-4.3-14.33-4.42-20.8-.07-3.35.67-3.42 1.46-2.58-.71-3.33-1.49-6-2.37-7.06s-1.65 1.87-2.29 6.18a160.13 160.13 0 0 0-1.51 21.51z" fill="#eff0f4"/><path d="M21.14 22.53c.13 6.43 2 17.35 4.44 20.79a41.31 41.31 0 0 1-.58-9.66c-.69-4-1.48-9.38-2.4-13.71-.79-.84-1.53-.77-1.46 2.58z" fill="#f8f8f9"/><path d="M10.77 37c0 3.7.63 7.76 3.7 8.77h.1a3 3 0 0 0 2.73-.21 11.49 11.49 0 0 1-.55-2 17.59 17.59 0 0 1-.31-3 160.13 160.13 0 0 1 1.51-21.5c-.19-.94-.39-1.8-.6-2.53a6.63 6.63 0 0 0-1.09-2.38c-2.5-2.79-3.92 3.37-4.76 11.79-.19 1.95-.35 4-.49 6.12-.09 1.25-.24 3.03-.24 4.94z" fill="#f8f8f9"/><path d="M2.53 36a7.54 7.54 0 0 0 4.86 2 5.26 5.26 0 0 0 3.38-1v-1.55c0-1.29.14-2.46.2-3.35.14-2.11.3-4.17.49-6.12a94.81 94.81 0 0 0-3.71-11.63 1.74 1.74 0 0 0-.42-.64c-1.72-1.53-5 6.83-5.29 7.58C.37 25.92-1.78 32 2.53 36z" fill="#f8f8f9"/><path d="M116.67 49.26c-.14-5.7 1.22-15.88 4.89-26.32a24.9 24.9 0 0 1 4.19-7A22.52 22.52 0 0 1 140.58 8a17.2 17.2 0 0 1 10.18 2c4.84 2.73 7.75 7.52 10.42 12.21 5 8.82 7.6 29.31 7.6 29.31l.11-.35v-1.61a62.93 62.93 0 0 0-.39-6.86c-1.63-14.66-6.78-40.44-28.22-40.44-3 0-13.3 1.63-17.91 11.13-3.34 6.88-5.41 18.32-5.87 27.2a49.13 49.13 0 0 0 .17 8.67z" fill="#eff0f4"/><ellipse cx="137.02" cy="13.98" rx="5.29" ry="3.12" transform="rotate(-14.08 137.048 13.965)" fill="#fff"/><ellipse cx="129.15" cy="17.58" rx="1.63" ry="1.7" fill="#fff"/><path d="M151.6 17.87c1.28 1.52 2.32 3.14 3.3 3s1.4-2.82-.55-5.24-4.74-2.57-5-1.64 1.04 2.31 2.25 3.88z" fill="#fff"/><path d="M80.72 20c2.76-5.65 8.28-12.52 17.63-6 14.11 9.85 16.42 35.55 15.47 40.3s-4.07 6.65-12.62 8.28l-.74.15c5-.31 10.85-.9 15.12-3.68a5.39 5.39 0 0 0 2.25-3.22 46.48 46.48 0 0 1-1.16-6.55 49.13 49.13 0 0 1-.17-8.62c-.63-2.73-1.42-5.82-2.36-9.29C109.43 14 99.12 6.2 91.52 6.2c-4.87 0-8.33 5.95-10.8 13.8z" fill="#eff0f4"/><ellipse cx="95.36" cy="10.32" rx="1.76" ry="2.58" transform="rotate(-71.79 95.362 10.318)" fill="#fff"/><ellipse cx="100.65" cy="13.24" rx="1.22" ry="1.29" fill="#fff"/><path d="M50.74 15.75C52 11 54.83 4.28 60.35 8.42c8.14 6.11 15.2 22 15.06 34.2-.13 11.66-6.57 16.27-15.66 20.44 5.44-1.44 14.84-5.85 18.05-11.47a39.77 39.77 0 0 1-.4-17.34c.21-1.22.44-2.45.68-3.68a54.91 54.91 0 0 0-4.85-14.77C68 5.66 61.67 1.14 59 .23c-1.63-.54-7.24-.91-7.78 8.14-.15 1.76-.31 4.34-.48 7.38z" fill="#eff0f4"/><path d="M63.46 16.94c1.5 2.68 2 5.37 2.7 5.4s1.43-3.22-.43-6.63-5-4.6-5.33-4 1.6 2.51 3.06 5.23z" fill="#fff"/><circle cx="67.61" cy="24.23" r="1.02" fill="#fff"/><ellipse cx="98.21" cy="18.39" rx="1.63" ry="3.46" transform="rotate(-46.98 98.214 18.393)" fill="#fff"/><path d="M36.33 38.23c.06 5.71.68 9.62 1.57 12.28 1.71 5.09 4.43 5.61 6.21 5.44 2.89-.27 4.66-1.3 5.79-2.95a10.49 10.49 0 0 1-.18-1.28 17.28 17.28 0 0 1-2.8-.61c-10-3-6-34.74-3.53-36.77s6.73 9.24 6.73 9.24a32.65 32.65 0 0 0-2.56-8c-1.16-2.21-3.58-7-6.37-4.16-1.82 1.84-2.35 5.21-3 7.63a62.68 62.68 0 0 0-1.76 12.47c-.1 2.26-.12 4.48-.1 6.71z" fill="#eff0f4"/><ellipse cx="46.58" cy="21.72" rx="1.29" ry="2.04" transform="rotate(-30.56 46.581 21.714)" fill="#fff"/><path d="M26.78 47.68c.18.47.37.94.58 1.41a7.67 7.67 0 0 0 5.4 4.11 4.52 4.52 0 0 0 5-2.43l.12-.26a24.08 24.08 0 0 1-.82-3.31c-7.13-.93-7.38-22.13-6-25.9 1-2.92 3.13.9 4 2.82-.09-.44-.19-.88-.29-1.33-.9-4-5.55-14.83-7.46-5.23A109.18 109.18 0 0 0 25 33.66a35.56 35.56 0 0 0 1.78 14.02z" fill="#eff0f4"/><path d="M10.77 37c0 3.7.63 7.76 3.7 8.77h.1a3 3 0 0 0 2.73-.21 11.49 11.49 0 0 1-.55-2c-5.18-3.33-3.68-20.25-2.66-26 .93-5.21 2.74-2.12 3.26-1.1a6.63 6.63 0 0 0-1.09-2.38c-2.5-2.79-3.92 3.37-4.76 11.79-.19 1.95-.35 4-.49 6.12-.09 1.32-.24 3.1-.24 5.01z" fill="#eff0f4"/><path d="M2.53 36a7.54 7.54 0 0 0 4.86 2 5.26 5.26 0 0 0 3.38-1v-1.55c-9.16-4.57-4.86-18-3.47-21.72-1.72-1.53-5 6.83-5.29 7.58C.37 25.92-1.78 32 2.53 36z" fill="#eff0f4"/></g></g></svg>