<svg xmlns="http://www.w3.org/2000/svg" viewBox="0 -0.015575885772705078 668.3900146484375 478.90557861328125"><title>Depositphotos_80581352</title><g data-name="Layer 2"><g data-name="Layer 1"><path fill="#dc262a" d="M552.28 306.23l-9.55-7.86 9.55-7.87 9.56 7.87-9.56 7.86z"/><path fill="#dc262a" d="M554.42 311.17h-4.27l2.13-1.76 2.14 1.76z"/><path fill="#dc262a" d="M539.72 298.37l-9.56 7.86-9.55-7.86 9.55-7.87 9.56 7.87z"/><path fill="#dc262a" d="M525.29 368.05l-.61 5.8-3.21-2.65 3.82-3.15z"/><path fill="#dc262a" d="M499.35 371.2l8.7-7.16 8.7 7.16-8.7 7.16-8.7-7.16z"/><path fill="#dc262a" d="M516.75 389.41l-8.65 7.12-8.7-7.16 8.65-7.12 8.7 7.16z"/><path fill="#dc262a" d="M517.51 316.47l-9.46 7.79-9.46-7.79 9.46-7.78 9.46 7.78z"/><path fill="#dc262a" d="M516.75 334.78l-8.7 7.16-8.7-7.16 8.7-7.16 8.7 7.16z"/><path fill="#dc262a" d="M516.75 352.99l-8.7 7.16-8.7-7.16 8.7-7.16 8.7 7.16z"/><path fill="#dc262a" d="M521.47 352.99l5.89-4.85-.93 8.94-4.96-4.09z"/><path fill="#dc262a" d="M521.47 334.78l7.96-6.56-1.25 12.09-6.71-5.53z"/><path d="M520.86 316.68l10.24-8 2.57 2a1.7 1.7 0 0 0-1.51 1.45l-1.35 12.25z" fill="#dc262a"/><path fill="#dc262a" d="M516.75 298.37l-8.7 7.16-8.7-7.16 8.7-7.16 8.7 7.16z"/><path fill="#dc262a" d="M494.68 407.57l-8.7 7.16-8.7-7.16 8.7-7.16 8.7 7.16z"/><path fill="#dc262a" d="M499.4 407.57l8.7-7.16 8.69 7.16-8.69 7.16-8.7-7.16z"/><path fill="#dc262a" d="M521.47 389.41l1.75-1.44-.28 2.65-1.47-1.21z"/><path fill="#dc262a" d="M552.2 288.1l-9.66-7.94 9.66-7.95 9.11 7.51.09.8-9.2 7.58z"/><path fill="#dc262a" d="M556.84 265.74l-4.68 3.86-3.05-2.51 7.73-1.35z"/><path fill="#dc262a" d="M539.34 280.16l-9.18 7.55-9.17-7.55 9.17-7.56 9.18 7.56z"/><path fill="#dc262a" d="M509.54 273.32l8.24 6.78-9.63 7.93-9.63-7.93 7.5-6.17 3.52-.61z"/><path fill="#dc262a" d="M490.56 276.69l.53-.09 4.23 3.48-5.69 4.67.93-8.06z"/><path fill="#dc262a" d="M488.74 293.52l5.89 4.85-7.12 5.85 1.23-10.7z"/><path fill="#dc262a" d="M486.83 310.16l7.8 6.41-8.7 7.17-.59-.49 1.49-13.09z"/><path fill="#dc262a" d="M484.73 328.61l1.2-.99 8.7 7.16-8.7 7.16-2.49-2.05 1.29-11.28z"/><path fill="#dc262a" d="M482.43 348.71l3.5-2.88 8.7 7.16-8.7 7.16-4.39-3.61.89-7.83z"/><path fill="#dc262a" d="M480.13 368.81l5.8-4.77 8.7 7.16-8.65 7.12-6.34-5.22.49-4.29z"/><path fill="#dc262a" d="M477.84 388.91l8.14-6.7 8.7 7.16-8.7 7.16-8.24-6.79.1-.83z"/><path d="M607.88 380.1H602a1.5 1.5 0 0 0 0 3h6.18l2.23 21.31H602a1.5 1.5 0 0 0 0 3h8.73l3.5 33.46H602a1.5 1.5 0 0 0 0 3h12.55l2.23 21.29h-31.22a1.5 1.5 0 0 0 0 3h31.54l.79 7.58h-150l.87-7.58h36.74a1.5 1.5 0 0 0 0-3h-36.38l2.44-21.31h12.2a1.5 1.5 0 0 0 0-3H471.9l2.4-21h103.26a1.5 1.5 0 0 0 1.49-1.67l-1.21-10.76h12.66a1.5 1.5 0 0 0 0-3h-13l-2.39-21.31h17.11a1.5 1.5 0 0 0 0-3h-17.44l-2.39-21.3H596a1.5 1.5 0 0 0 0-3h-24l-2.39-21.31h3.78a1.5 1.5 0 0 0 0-3h-4.11l-2.12-18.91a1.49 1.49 0 0 0 0-.16l-.16-2.23h15.9a1.5 1.5 0 0 0 0-3h-16.3l-.93-8.27-4-35.39v-.06l-1.17-10.26 33.37-6.43 3.78 36.1h-5.46a1.5 1.5 0 0 0 0 3H598l4.78 45.61h-19.36a1.5 1.5 0 0 0 0 3h19.68l1 9.15h-6.24a1.5 1.5 0 0 0 0 3h6.56z" fill="#dc262a"/><path d="M413.88 467.22l-3.64-24.06V442.81l-.06-.13-.08-.13-.09-.12-.09-.1-.12-.11-.09-.07-.16-.1h-.09l-.18-.07h-1.13l-.15.02-.12.08-.12.09-.1.09-.1.11-.08.11-.08.13-.06.12v.36l-3.64 24.06-3.73-24v-.36l-.06-.13-.08-.13-.08-.11-.09-.11-.12-.1-.1-.07-.15-.09h-.1L399 442h-1.01l-.12.06-.14.08-.1.08-.12.1-.09.1-.09.12-.08.12-.06.13v.21a1.43 1.43 0 0 0 0 .16v.07l-3.64 24.06-3.84-24.1v-.36l-.06-.12-.08-.13-.08-.11-.1-.11-.11-.1-.1-.08-.15-.09H389l-.17-.06h-1l-.13.06-.12.07-.11.09-.11.09-.1.11-.08.11-.08.13-.06.13v.35l-3.64 24.06-3.86-24V442.88l-.06-.13-.08-.13-.09-.11-.09-.1-.12-.11-.09-.07-.16-.09h-.09l-.18-.06h-1l-.12.06-.14.08-.1.08-.12.1-.09.1-.09.12-.08.12-.06.13v.13a1.44 1.44 0 0 0 0 .16v.07l-3.64 24.06-3.61-23.87v-8.68c.08-13.61.36-41.55.71-74.86 1.08-65.52 3.7-145.78 9.82-205.86l3.82 27.27a1.5 1.5 0 0 0 .15.46v.06a1.51 1.51 0 0 0 .3.37 1.46 1.46 0 0 0 .41.24 1.48 1.48 0 0 0 .31.08h.42a1.48 1.48 0 0 0 .31-.08 1.46 1.46 0 0 0 .41-.24 1.51 1.51 0 0 0 .3-.37v-.06a1.5 1.5 0 0 0 .15-.46l3.07-21.89 3.07 21.89a1.5 1.5 0 0 0 .15.46v.06a1.51 1.51 0 0 0 .3.37 1.46 1.46 0 0 0 .41.24 1.48 1.48 0 0 0 .31.08h.42a1.48 1.48 0 0 0 .31-.08 1.46 1.46 0 0 0 .41-.24 1.51 1.51 0 0 0 .3-.37v-.06a1.5 1.5 0 0 0 .15-.46l3.07-21.89 3.07 21.89a1.5 1.5 0 0 0 .15.46v.06a1.51 1.51 0 0 0 .3.37 1.46 1.46 0 0 0 .41.24 1.48 1.48 0 0 0 .31.08h.69a1.48 1.48 0 0 0 .31-.08 1.46 1.46 0 0 0 .41-.24 1.51 1.51 0 0 0 .3-.37v-.06a1.5 1.5 0 0 0 .15-.46l2.82-20.17c5.62 59.2 8.08 135.78 9.12 198.75.35 33.31.62 61.25.71 74.86v8.67z" fill="#d6b1d3"/><path d="M262 210c-1.14-1-2.21-1.8-3.18-2.5h5.3z" fill="#dc262a"/><path d="M271.21 220.16L282 207.44h10l-16.8 19.82a49.17 49.17 0 0 0-3.99-7.1z" fill="#dc262a"/><path d="M279.55 243.16L290 230.83a26.17 26.17 0 0 1 3.84 7.26l-14 16.5V249a56.31 56.31 0 0 0-.29-5.84z" fill="#dc262a"/><path d="M281.2 286.32a33.48 33.48 0 0 0-.38 5v184.59H277v-25.5a1.5 1.5 0 0 0-3 0v25.5h-3.5v-184.6a29.46 29.46 0 0 0-10.91-23.5h32.16a29.22 29.22 0 0 0-10.53 18.35s-.02.12-.02.16z" fill="#dc262a"/><path fill="#dc262a" d="M295.35 475.91h-4.24l4.24-5v5z"/><path fill="#dc262a" d="M295.35 449.85l-11.53 13.58v-11.79l11.53-13.57v11.78z"/><path fill="#dc262a" d="M295.35 417.01l-11.53 13.58V418.8l11.53-13.57v11.78z"/><path fill="#dc262a" d="M295.35 384.17l-11.53 13.58v-11.79l11.53-13.57v11.78z"/><path fill="#dc262a" d="M295.35 351.33l-11.53 13.58v-11.79l11.53-13.58v11.79z"/><path fill="#dc262a" d="M295.35 318.49l-11.53 13.58v-11.79l11.53-13.57v11.78z"/><path d="M295.35 285.65l-11.53 13.58v-7.91a30.41 30.41 0 0 1 .3-4.22l11.23-13.23z" fill="#dc262a"/><path fill="#dc262a" d="M295.35 264.81h-6.26l6.26-7.37v7.37z"/><path d="M319.59 242.81a29.57 29.57 0 0 0-7.91 9.94v-5.44a30.45 30.45 0 0 1 .33-4.5z" fill="#dc262a"/><path d="M319.59 223.81a29.46 29.46 0 0 0-10.91 23.5v228.6H305v-12a1.5 1.5 0 0 0-3 0v12h-3.67v-228.6a29.46 29.46 0 0 0-10.91-23.5z" fill="#dc262a"/><path d="M318.12 209.57A51.1 51.1 0 0 0 308 220.81h-9.46l11.32-13.33h10z" fill="#dc262a"/><path d="M120.32 379.48h15.28a1.5 1.5 0 0 0 1.5-1.5v-3.11h23.53v6.29H95.29v-6.31h23.53V378a1.5 1.5 0 0 0 1.48 1.52z" fill="#faab64"/><path d="M125.64 327.6a3.46 3.46 0 0 1 4.63 0 5.51 5.51 0 0 1 1 3.32h-6.65a5.51 5.51 0 0 1 1.02-3.32z" fill="#faab64"/><path d="M123.91 333.92H132a113 113 0 0 0 37.43 28.14H137.1v-7.15a1.5 1.5 0 0 0-1.5-1.5h-15.28a1.5 1.5 0 0 0-1.5 1.5v7.15H86.5a113 113 0 0 0 37.41-28.14z" fill="#faab64"/><path d="M94.5 384.16h66.94c3.1 3.27 13.71 8.69 23.2 12.06H71.29c9.49-3.36 20.09-8.77 23.21-12.06z" fill="#faab64"/><path fill="#faab64" d="M75.39 409.18h105.13v9.77H75.39z"/><path d="M98.92 475.75H88.8v-22a1.5 1.5 0 0 0-1.5-1.5H73.17a1.5 1.5 0 0 0-1.5 1.5v22H61v-33.12h37.92z" fill="#faab64"/><path d="M150.17 475.75H136.5v-22a1.5 1.5 0 0 0-1.5-1.5h-14.11a1.5 1.5 0 0 0-1.5 1.5v22h-13.65v-33.12h44.43z" fill="#faab64"/><path d="M194.94 475.75h-10.7v-22a1.5 1.5 0 0 0-1.5-1.5h-14.12a1.5 1.5 0 0 0-1.5 1.5v22H157v-33.12h37.95z" fill="#faab64"/><path d="M196.44 439.63H50.19c15.75-8 22.64-15.51 24.43-17.68H181.3c1.79 2.17 8.68 9.63 24.43 17.68z" fill="#faab64"/><path d="M666.89 475.91h-14.14v-2.69h1A7.3 7.3 0 0 0 657 459.6a5.8 5.8 0 0 0-11.24 2v.29a5.8 5.8 0 0 0 1.82 11.27h2.15v2.69h-28.8l-13.68-130.49a1.59 1.59 0 0 0 0-.22 1.48 1.48 0 0 0-.1-.52l-10.45-99.77a1.5 1.5 0 0 0-1.64-1.34h-.14l-36.33 7a1.5 1.5 0 0 0-1.19 1.63l1.15 10.23L489 274.52a1.5 1.5 0 0 0-1.23 1.31l-1.33 11.66-.34 3-2 17.13-1.84 16.14-1.9 16.6-5.47 47.64-2.3 20.1-7.75 67.82h-20.19v-5.42H449a6.29 6.29 0 0 0 2.65-12 9.09 9.09 0 1 0-17.86-2.36v.39a7.92 7.92 0 0 0 5.13 14h2.71v5.42H420.4c0-3.81.1-15.41.09-32.41a1.5 1.5 0 0 0 0-.26v-1.82a1.36 1.36 0 0 0 0-.14v-6.72c0-20.1-.23-46-.71-74.64-.91-86.61-2.35-209.62-2.38-211.42a1.5 1.5 0 0 0-1.5-1.48 1.5 1.5 0 0 0-1.48 1.52c0 .92.39 33.24.88 76.18-1.5-27.29-3.42-53.43-5.89-76.36a1.51 1.51 0 0 0-.15-.49 1.49 1.49 0 0 0-.76-.74 1.46 1.46 0 0 0-.32-.08h-29.29a1.5 1.5 0 0 0-1.49 1.34c-2.46 22.93-4.39 49.07-5.89 76.36.49-42.93.87-75.26.88-76.18a1.5 1.5 0 0 0-3 0c0 1.81-1.46 124.81-2.38 211.42-.47 28.69-.65 54.55-.71 74.64v6.72a1.32 1.32 0 0 0 0 .14v1.82a1.5 1.5 0 0 0 0 .28c0 17 .06 28.58.09 32.39h-24.6v-4.5h1.46a8.28 8.28 0 0 0 8.25-8.31 8.2 8.2 0 0 0-2.48-5.9 9.5 9.5 0 1 0-17.73 2.41 6.6 6.6 0 0 0-2.37 5.08 6.68 6.68 0 0 0 6.67 6.67h3.16v4.5h-27.1V266.31a26.38 26.38 0 0 1 13.49-23.65 1.5 1.5 0 0 0-.66-2.85h-11.85a26.15 26.15 0 0 1 12.54-16.15 1.5 1.5 0 0 0-.66-2.85h-12.85a48.14 48.14 0 0 1 8.43-9 38.23 38.23 0 0 1 6.58-4.47 1.5 1.5 0 0 0-.66-2.85h-72.35a1.5 1.5 0 0 0-.66 2.85 47.35 47.35 0 0 1 23.86 41.74v15.75h-22.2a1.5 1.5 0 0 0-.66 2.85 26.73 26.73 0 0 1 13.5 23.63v184.6h-32.1v-6.35h5.1a6.91 6.91 0 0 0 2.76-13.25 9.91 9.91 0 0 0 .39-2.77 10.07 10.07 0 1 0-20.13-.63v1.15a8.76 8.76 0 0 0 5.6 15.49h3.26v6.34h-34.44v-33.26h14.36a1.5 1.5 0 0 0 .62-2.87c-19.73-9-27.85-18-29.4-19.84v-10.76c10.49-.82 14.55-10 14.87-10.78v-.1a1.53 1.53 0 0 0 0-.17 1.44 1.44 0 0 0 0-.16v-.11a1.46 1.46 0 0 0 0-.16v-.25a1.34 1.34 0 0 0-.05-.17v-.08l-.1-.18-.05-.07-.13-.16H198l-.16-.13h-.06l-.2-.11h-.05l-.22-.06h-.23c-9.66-.42-30.21-10.55-33.46-14.08V375c10.42-.84 14.42-10.25 14.59-10.67a1.51 1.51 0 0 0 .09-.3 1.48 1.48 0 0 0 0-.48 1.52 1.52 0 0 0-.15-.42V363a1.51 1.51 0 0 0-.28-.34h-.06a1.51 1.51 0 0 0-.38-.23 111.88 111.88 0 0 1-43.1-30.22c.08-1.35 0-4.28-1.72-6.3A5.86 5.86 0 0 0 128 324a5.86 5.86 0 0 0-4.59 1.93c-1.76 2-1.81 5-1.72 6.3a111.69 111.69 0 0 1-43.21 30 1.51 1.51 0 0 0-.38.23h-.06a1.49 1.49 0 0 0-.28.34v.07a1.52 1.52 0 0 0-.15.42 1.48 1.48 0 0 0 0 .48 1.53 1.53 0 0 0 .09.3c.17.42 4.18 9.83 14.59 10.67v7.44c-3.25 3.53-23.79 13.66-33.46 14.08h-.5l-.16.09-.1.06-.13.1-.09.08-.1.12-.08.1-.08.15-.11.22a1.29 1.29 0 0 0 0 .15v.26a1.48 1.48 0 0 0 0 .17v.11a1.5 1.5 0 0 0 0 .16 1.37 1.37 0 0 0 0 .17v.1c.32.76 4.37 10 14.87 10.78v10.81c-1.54 1.87-9.58 10.84-29.4 19.83a1.5 1.5 0 0 0 .62 2.87H58v33.28H28.67v-4.92h2a9.6 9.6 0 0 0 4.12-18 7.51 7.51 0 0 0-14.59 3.23 7.51 7.51 0 0 0 1.87 14.78h3.6v4.93H1.5a1.5 1.5 0 0 0 0 3h665.39a1.5 1.5 0 0 0 0-3zm-18.08-5.75h-1.21a2.8 2.8 0 0 1 0-5.6 1.5 1.5 0 0 0 1.4-2 2.76 2.76 0 0 1-.18-1 2.8 2.8 0 0 1 5.53-.64 1.5 1.5 0 0 0 .84 1 4.3 4.3 0 0 1-1.55 8.21 44.46 44.46 0 0 1-4.83.03zm-96.53-164.63l-8.7-7.16 8.7-7.16 8.7 7.16zm2.14 5.64h-4.27l2.14-1.76zm-4.5-3.7l-4.5 3.7H537l-4.5-3.7 8.7-7.16zm-8.7-11l-8.72-7.21 8.7-7.16 8.7 7.16zm-2.36 1.94l-8.7 7.16-8.7-7.16 8.7-7.16zm-19.75 70.85l-8.7-7.16 8.7-7.16 7 5.72-.33 3.15zm6.18-1.2l-.6 5.79-3.19-2.69zm-25.94 3.1L508 364l8.7 7.16-8.7 7.16zm17.4 18.21l-8.65 7.12-8.7-7.16 8.65-7.12zm-6.34-81.94l8.7-7.16 8.7 7.16-8.7 7.16zm17.4 18.21l-8.7 7.16-8.7-7.16 8.7-7.16zm-11.06-9.11l-8.7 7.16-8.7-7.16 8.7-7.16zm0 18.21L508 341.9l-8.7-7.16 8.7-7.16zm0 18.21l-8.7 7.16-8.7-7.16 8.7-7.16zm4.72 0l5.9-4.85-.93 8.94zm-2.36-1.95l-8.7-7.16 8.7-7.16 8.7 7.16zm2.39-16.23l8-6.56-1.26 12.08zm0-18.21l8.7-7.16 2.19 1.8a1.48 1.48 0 0 0-1.28 1.3l-1.15 11zm-2.36-20.15l-8.7-7.16 8.7-7.16 8.7 7.16zm-2.36 1.94l-8.7 7.16-8.7-7.16 8.7-7.16zm-11.06 9.1l-8.7 7.16-8.7-7.16 8.7-7.16zm0 18.21l-8.7 7.16-8.7-7.16 8.7-7.16zm0 18.21L497 351l-8.7-7.16 8.7-7.16zm0 18.21l-8.7 7.16-8.7-7.16 8.7-7.16zm0 18.21l-8.65 7.12-8.7-7.16 8.65-7.12zm0 18.17l-8.7 7.16-8.7-7.16 8.7-7.16zm-11.06 9.1l-8.7 7.16-8.7-7.16 8.7-7.16zm2.36 1.94l8.7 7.16-.2.16h-17l-.2-.16zm2.36-1.94l8.7-7.16 8.7 7.16-8.7 7.16zm19.76 1.94l1.67 1.38-.62 6h-9.56l-.2-.16zm0-3.89l-8.7-7.16 8.65-7.12 3.46 2.85-1 9.43zm2.36-16.21l1.75-1.44-.28 2.65zm-2.36-1.94l-8.7-7.16 8.7-7.16 5.21 4.29-.66 6.29zm4.79 23l.61-5.83 2.07-19.91 2.07-19.9.47-4.48v-.12l1.59-15.3 2.07-19.9 1.1-10.82h30.45l11.52 102.67h-52.65zm35.21-99.26l-4.5-3.7 8.21-6.76 1.15 10.42zm-4.5-21.91L561 284l1.29 11.5zm-2.36-1.94l-8.7-7.16 8.7-7.16 8.22 6.77.08.73zm6.83-19.94l.91 8.1-5.38-4.51zm-2.86-1.53l-4 3.26-2.58-2.14zm-22.07 3.85l11.63-2 4.11 3.39-8.7 7.16-8.7-7.16zm4.68 10.47l-8.7 7.16-8.66-7.16 8.7-7.16zm-11.31-9.31l.25.2-8.7 7.16-5.91-4.86zM509.3 274l7.44 6.13-8.7 7.16-8.7-7.16 6.77-5.57zm-9.17 1.6l-3.13 2.62-2-1.68zm-9.54 1.66l.46-.08 3.58 3-4.82 4zm-1.27 11.12l7.68-6.28 8.7 7.16-8.7 7.16-7.85-6.42zm-.58 5.11l5.89 4.85-7.13 5.85zm-1.9 16.64l7.79 6.41-8.7 7.16-.59-.48zm-2.11 18.45l1.2-1 8.7 7.16-8.7 7.16-2.49-2zM483 343.44l.54.44-.65.53zm-.6 5.26l3.5-2.88 8.7 7.16-8.7 7.16-4.43-3.6zm-1.3 11.38l2.44 2-2.94 2.42zm-1 8.72l5.79-4.77 8.7 7.16-8.59 7.12-6.33-5.22zm-.9 7.85l4.38 3.61-5.29 4.36zm-1.4 12.25l8.14-6.7 8.7 7.16-8.7 7.16-8.24-6.78zm-.5 4.39l6.28 5.17-7.58 6.25zm-1.9 16.64l8.19 6.74-.2.16h-8.78zm-6.65 58.23h36.75a1.5 1.5 0 0 0 0-3h-36.38l2.44-21.31h12.2a1.5 1.5 0 0 0 0-3H471.9l2.4-21h103.26a1.5 1.5 0 0 0 1.49-1.67l-1.21-10.76h12.66a1.5 1.5 0 0 0 0-3h-13l-2.39-21.31h17.11a1.5 1.5 0 0 0 0-3h-17.44l-2.39-21.3H596a1.5 1.5 0 0 0 0-3h-24l-2.39-21.31h3.78a1.5 1.5 0 0 0 0-3h-4.11l-2.12-18.91a1.49 1.49 0 0 0 0-.16l-.16-2.23h15.9a1.5 1.5 0 0 0 0-3h-16.3l-.93-8.27-4-35.39v-.06l-1.17-10.26 33.37-6.43 3.78 36.1h-5.46a1.5 1.5 0 0 0 0 3H598l4.78 45.61h-19.36a1.5 1.5 0 0 0 0 3h19.68l1 9.15h-6.24a1.5 1.5 0 0 0 0 3h6.56l3.5 33.46H602a1.5 1.5 0 0 0 0 3h6.18l2.23 21.31H602a1.5 1.5 0 0 0 0 3h8.73l3.5 33.46H602a1.5 1.5 0 0 0 0 3h12.55l2.23 21.28h-31.22a1.5 1.5 0 0 0 0 3h31.54l.79 7.58h-150zm-29.84-.69a4.92 4.92 0 0 1-2.73-9 1.5 1.5 0 0 0 .65-1.47 5.81 5.81 0 0 1-.07-.86 6.09 6.09 0 0 1 12.17 0 6 6 0 0 1-.62 2.66 1.5 1.5 0 0 0 1.13 2.14 3.29 3.29 0 0 1-.48 6.55zm-69.63-3.92l1.84 12.18h-1.78c0-2 0-6.23-.06-12.16zm5.33 12.18l3.39-22.34 3.38 22.34zm10.24 0l3.38-22.34 3.38 22.34zm10.24 0l3.38-22.31 3.38 22.34zm10.24 0l3.38-22.34 3.38 22.34zm10.25 0l1.89-12.16c0 5.94 0 10.11-.06 12.19zM406.15 150l-2.81 20.18L400.5 150zm-9.1 0l-2.82 20.18L391.4 150zm-9.1 0l-2.82 20.18L382.3 150zM369.3 434.66c.08-13.61.36-41.55.71-74.86 1.08-65.52 3.7-145.78 9.82-205.86l3.82 27.27a1.5 1.5 0 0 0 .15.46v.06a1.51 1.51 0 0 0 .3.37 1.46 1.46 0 0 0 .41.24 1.48 1.48 0 0 0 .31.08h.42a1.48 1.48 0 0 0 .31-.08 1.46 1.46 0 0 0 .41-.24 1.51 1.51 0 0 0 .3-.37v-.06a1.5 1.5 0 0 0 .15-.46l3.07-21.89 3.07 21.89a1.5 1.5 0 0 0 .15.46v.06a1.51 1.51 0 0 0 .3.37 1.46 1.46 0 0 0 .41.24 1.48 1.48 0 0 0 .31.08h.42a1.48 1.48 0 0 0 .31-.08 1.46 1.46 0 0 0 .41-.24 1.51 1.51 0 0 0 .3-.37v-.06a1.5 1.5 0 0 0 .15-.46l3.07-21.89 3.07 21.89a1.5 1.5 0 0 0 .15.46v.06a1.51 1.51 0 0 0 .3.37 1.46 1.46 0 0 0 .41.24 1.48 1.48 0 0 0 .31.08h.88a1.48 1.48 0 0 0 .31-.08 1.46 1.46 0 0 0 .41-.24 1.51 1.51 0 0 0 .3-.37v-.06a1.5 1.5 0 0 0 .15-.46l2.82-20.21c5.62 59.2 8.08 135.78 9.12 198.75.35 33.31.62 61.25.71 74.86v8.67l-3.61 23.88-3.47-24V442.81l-.06-.13-.08-.13-.09-.12-.09-.1-.12-.11-.09-.07-.16-.1h-.09l-.18-.07h-1.13l-.15.02-.12.08-.12.09-.1.09-.1.11-.08.11-.08.13-.06.12v.36l-3.64 24.06-3.73-24v-.36l-.06-.13-.08-.13-.08-.11-.09-.11-.12-.1-.1-.07-.15-.09h-.1L399 442h-1.01l-.12.06-.14.08-.1.08-.12.1-.09.1-.09.12-.08.12-.06.13v.21a1.43 1.43 0 0 0 0 .16v.07l-3.64 24.06-3.84-24.1v-.36l-.06-.12-.08-.13-.08-.11-.1-.11-.11-.1-.1-.08-.15-.09H389l-.17-.06h-1l-.13.06-.12.07-.11.09-.11.09-.1.11-.08.11-.08.13-.06.13v.35l-3.64 24.06-3.86-24V442.88l-.06-.13-.08-.13-.09-.11-.09-.1-.12-.11-.09-.07-.16-.09h-.09l-.18-.06h-1l-.12.06-.14.08-.1.08-.12.1-.09.1-.09.12-.08.12-.06.13v.13a1.43 1.43 0 0 0 0 .16v.07l-3.64 24.06-3.61-23.87q-.24-4.21-.23-8.76zm-33.69 33.75a3.66 3.66 0 0 1-1.59-7 1.5 1.5 0 0 0 .54-2.25 6.43 6.43 0 0 1-1.32-3.91 6.5 6.5 0 1 1 12.68 2 1.5 1.5 0 0 0 .52 1.66 5.27 5.27 0 0 1-3.2 9.46zm-106.47-1.85a5.76 5.76 0 0 1-3.19-10.56 1.5 1.5 0 0 0 .65-1.46 7 7 0 0 1-.08-1 7.07 7.07 0 0 1 14.13-.53v.53a7 7 0 0 1-.72 3.09 1.5 1.5 0 0 0 1.13 2.14 3.91 3.91 0 0 1-.57 7.79zM87.3 452.27H73.17a1.5 1.5 0 0 0-1.5 1.5v22H61v-33.14h37.92v33.12H88.8v-22a1.5 1.5 0 0 0-1.5-1.48zm-1.5 3v20.48H74.67v-20.48zm16.12 20.48v-33h.82v33zM135 452.27h-14.11a1.5 1.5 0 0 0-1.5 1.5v22h-13.65v-33.14h44.43v33.12H136.5v-22a1.5 1.5 0 0 0-1.5-1.48zm-1.5 3v20.48h-11.11v-20.48zm19.65 20.48v-33h.85v33zm29.57-23.48h-14.1a1.5 1.5 0 0 0-1.5 1.5v22H157v-33.14h37.95v33.12h-10.7v-22a1.5 1.5 0 0 0-1.5-1.48zm-1.5 3v20.48h-11.1v-20.48zm-19.12-83.4h-25v-6.8h37.2a14.46 14.46 0 0 1-12.17 6.8zm-41.81 7.61h15.31a1.5 1.5 0 0 0 1.5-1.5v-3.11h23.53v6.29H95.29v-6.31h23.53V378a1.5 1.5 0 0 0 1.48 1.52zm1.5-3v-20.07h12.31v20.07zm3.82-48.88a3.46 3.46 0 0 1 4.63 0 5.51 5.51 0 0 1 1 3.32h-6.65a5.51 5.51 0 0 1 1-3.32zm-1.73 6.32H132a113 113 0 0 0 37.43 28.14H137.1v-7.15a1.5 1.5 0 0 0-1.5-1.5h-15.28a1.5 1.5 0 0 0-1.5 1.5v7.15H86.5a113 113 0 0 0 37.41-28.14zm-42.26 31.14h37.2v6.8h-25a14.35 14.35 0 0 1-12.2-6.8zm12.88 19.1h66.94c3.1 3.27 13.71 8.69 23.2 12.06H71.29c9.49-3.36 20.09-8.77 23.21-12.06zm-33.08 15.07H194.5a14.61 14.61 0 0 1-12.5 6.93H73.89a14.6 14.6 0 0 1-12.47-6.93zm119.08 9.93v9.77H75.39v-9.77zM50.19 439.63c15.75-8 22.64-15.51 24.43-17.68H181.3c1.79 2.17 8.68 9.63 24.43 17.68zM23.76 468h-1.69a4.51 4.51 0 0 1 0-9 1.5 1.5 0 0 0 1.4-2 4.44 4.44 0 0 1-.29-1.57 4.51 4.51 0 0 1 8.9-1 1.5 1.5 0 0 0 .84 1A6.6 6.6 0 0 1 30.5 468h-2.9zm295.83-225.19a29.57 29.57 0 0 0-7.91 9.94v-5.44a30.45 30.45 0 0 1 .33-4.5zm.3-35.33l-1.78 2.09A51.1 51.1 0 0 0 308 220.81h-9.46l11.32-13.33zm-13.94 0l-11.32 13.33h-10l11.32-13.33zM262 210c-1.14-1-2.21-1.8-3.18-2.5h5.3zm2.23 2l3.83-4.51h10l-8.68 10.22a52.1 52.1 0 0 0-5.15-5.7zm7 8.21L282 207.47h10l-16.82 19.79a49.17 49.17 0 0 0-4-7.1zm5.27 10.17l5.58-6.57a25.53 25.53 0 0 1 6 4.75L279 239.23a49.88 49.88 0 0 0-2.5-8.87zm18.83 43.51v11.78l-11.53 13.56v-7.91a30.41 30.41 0 0 1 .3-4.22zm-9.33 6.34a26.59 26.59 0 0 1 9.34-11.38v.38zm9.34 10.06v11.79l-11.54 13.58v-11.8zm0 16.42v11.79l-11.54 13.58v-11.8zm0 16.42v11.79L283.8 348.5v-11.8zm0 16.42v11.79l-11.54 13.58v-11.76zm0 16.42v11.78l-11.54 13.58v-11.79zm0 16.42v11.77l-11.54 13.58V386zm0 16.42v11.79l-11.51 13.56v-11.78zm0 16.42V417l-11.54 13.6v-11.8zm0 16.42v11.79L283.8 447v-11.77zm0 16.42v11.79l-11.54 13.58v-11.8zm-6.26-173.25l6.26-7.37v7.37zm6.26-12l-10.19 12h-5.3v-5.55l15-17.61a29.38 29.38 0 0 1 .54 5.66zm-15.49 1.82v-5.56a56.33 56.33 0 0 0-.31-5.86L290 230.89a26.17 26.17 0 0 1 3.84 7.26zM277 475.91v-25.5a1.5 1.5 0 1 0-3 0v25.5h-3.5v-184.6a29.46 29.46 0 0 0-10.91-23.5h32.16a29.22 29.22 0 0 0-10.53 18.35v.14a33.48 33.48 0 0 0-.38 5v184.61zm6.8 0v-7.85l11.53-13.58v11.79l-8.18 9.63zm7.29 0l4.24-5v5zm13.91 0v-12a1.5 1.5 0 1 0-3 0v12h-3.67v-228.6a29.46 29.46 0 0 0-10.91-23.5h32.16a29.46 29.46 0 0 0-10.91 23.5v228.6z" fill="#fff"/><path d="M200.09 269.43c1.1 1.69 2.16 3.45 3.14 5.23a1.5 1.5 0 0 0 2.63-1.45c-1-1.85-2.11-3.68-3.26-5.43a1.5 1.5 0 0 0-2.51 1.64z" fill="#fff"/><path d="M133 233.06a80.49 80.49 0 0 1 64.41 32.48 1.5 1.5 0 0 0 2.41-1.79A83.51 83.51 0 0 0 133 230.06a1.5 1.5 0 0 0 0 3z" fill="#fff"/><path d="M121.83 233.81h.17c2.13-.29 4.31-.5 6.47-.62a1.5 1.5 0 1 0-.16-3c-2.24.12-4.5.34-6.71.64a1.5 1.5 0 0 0 .2 3z" fill="#fff"/><path d="M51.37 311.66a1.5 1.5 0 0 0-1.5 1.5 83.3 83.3 0 0 0 2.94 22 1.5 1.5 0 0 0 1.45 1.1 1.47 1.47 0 0 0 .4 0 1.5 1.5 0 0 0 1-1.84 80.3 80.3 0 0 1-2.84-21.21 1.5 1.5 0 0 0-1.45-1.55z" fill="#fff"/><path d="M55.5 339a1.5 1.5 0 0 0-.92 1.91c.4 1.14.84 2.29 1.29 3.42a1.51 1.51 0 1 0 2.8-1.12c-.44-1.09-.86-2.2-1.25-3.29a1.5 1.5 0 0 0-1.91-.92z" fill="#fff"/><circle cx="175.68" cy="182.58" r="1.97" fill="#fff"/><circle cx="245.91" cy="116.16" r="1.62" fill="#fff"/><circle cx="476.98" cy="228.51" r="1.62" fill="#fff"/><circle cx="51.37" cy="269.78" r="1.62" fill="#fff"/><circle cx="470.22" cy="133.16" r="1.79" fill="#fff"/><circle cx="643.3" cy="406.39" r="2.38" fill="#fff"/><path d="M310.55 104.32a1.5 1.5 0 0 0 1.91 0l8.73-7.21 8.73 7.21a1.5 1.5 0 0 0 1.91 0l8.74-7.21 8.74 7.21a1.5 1.5 0 0 0 2-2.23l-.1-.08-9.69-8a1.5 1.5 0 0 0-1.91 0l-8.74 7.21-8.72-7.22a1.5 1.5 0 0 0-1.91 0l-8.74 7.2-8.73-7.2a1.5 1.5 0 0 0-2 2.23l.1.08z" fill="#fff"/><path d="M201.16 311.84l-8.73 7.21-8.73-7.21a1.5 1.5 0 0 0-1.91 2.31l9.68 8a1.5 1.5 0 0 0 1.91 0l8.73-7.21 8.73 7.21a1.5 1.5 0 0 0 1.91 0l8.74-7.21 8.74 7.21a1.5 1.5 0 0 0 1.91-2.31l-9.69-8a1.5 1.5 0 0 0-1.91 0l-8.74 7.21-8.73-7.21a1.5 1.5 0 0 0-1.91 0z" fill="#fff"/><path d="M57.5 170.06h11a1.5 1.5 0 0 0 0-3h-11a1.5 1.5 0 0 0 0 3z" fill="#fff"/><path d="M68.5 173.59H63a1.5 1.5 0 1 0 0 3h5.5a1.5 1.5 0 0 0 0-3z" fill="#fff"/><path d="M77.07 158.06h2.07a1.5 1.5 0 1 0 0-3h-2.07a1.5 1.5 0 0 0 0 3z" fill="#fff"/><path d="M69.9 163.84h3.26a8.26 8.26 0 0 0 6.52 13.32h21a8.27 8.27 0 0 0 1.5-16.41 11 11 0 0 0-21.44-.07 8.13 8.13 0 0 0-1.1-.07 8.28 8.28 0 0 0-1.76.19h-8a1.5 1.5 0 0 0 0 3zm9.78-.19a5.25 5.25 0 0 1 1.85.34 1.5 1.5 0 0 0 2-1.34 7.95 7.95 0 0 1 15.86-.36 1.5 1.5 0 0 0 1.45 1.37 5.27 5.27 0 0 1-.15 10.54h-21a5.28 5.28 0 0 1 0-10.55z" fill="#fff"/><path d="M519.59 166.16h6.54a10.73 10.73 0 0 0-1.45 12h-5.09a1.5 1.5 0 0 0 0 3h5.52a1.5 1.5 0 0 0 1.23-.64 11 11 0 0 0 8.09 3.56h20.72a9.8 9.8 0 1 0-3-19.15 9.91 9.91 0 0 0-18.46-2.58 10.94 10.94 0 0 0-3.38.77h-10.72a1.5 1.5 0 0 0 0 3zm14.88-.79h.18a1.48 1.48 0 0 0 1.44-.95 6.89 6.89 0 0 1 13.29 2.58v.15a1.5 1.5 0 0 0 2.26 1.35 6.83 6.83 0 1 1 3.52 12.64h-20.73a7.88 7.88 0 0 1 0-15.75z" fill="#fff"/><path d="M509.43 172.07h11a1.5 1.5 0 0 0 0-3h-11a1.5 1.5 0 0 0 0 3z" fill="#fff"/><path d="M512.83 178.16a1.5 1.5 0 1 0 0 3H514a1.5 1.5 0 0 0 0-3z" fill="#fff"/><path d="M530 160.06h1.16a1.5 1.5 0 0 0 0-3H530a1.5 1.5 0 0 0 0 3z" fill="#fff"/><path d="M619 289.53h1.42V291a1.5 1.5 0 0 0 3 0v-1.42h1.42a1.5 1.5 0 0 0 0-3h-1.42v-1.42a1.5 1.5 0 1 0-3 0v1.42H619a1.5 1.5 0 0 0 0 3z" fill="#fff"/><path d="M340.28 335.16a1.5 1.5 0 0 0 1.5-1.5v-1.5h1.42a1.5 1.5 0 0 0 0-3h-1.42v-1.4a1.5 1.5 0 0 0-3 0v1.4h-1.42a1.5 1.5 0 0 0 0 3h1.42v1.42a1.5 1.5 0 0 0 1.42 1.58z" fill="#fff"/><path d="M232.4 409.38H231a1.5 1.5 0 1 0 0 3h1.42v1.42a1.5 1.5 0 0 0 3 0v-1.42h1.42a1.5 1.5 0 0 0 0-3h-1.44V408a1.5 1.5 0 0 0-3 0z" fill="#fff"/><path d="M330.44 171.86a1.5 1.5 0 0 0 1.5-1.5v-.3h.3a1.5 1.5 0 0 0 0-3h-.3v-.3a1.5 1.5 0 1 0-3 0v.3h-.3a1.5 1.5 0 0 0 0 3h.3v.3a1.5 1.5 0 0 0 1.5 1.5z" fill="#fff"/><path d="M25.37 414.16h.3v.3a1.5 1.5 0 0 0 3 0v-.3H29a1.5 1.5 0 1 0 0-3h-.3v-.3a1.5 1.5 0 0 0-3 0v.3h-.3a1.5 1.5 0 0 0 0 3z" fill="#fff"/><path d="M441.35 403.74h.3v.3a1.5 1.5 0 0 0 3 0v-.3h.3a1.5 1.5 0 0 0 0-3h-.3v-.3a1.5 1.5 0 0 0-3 0v.3h-.3a1.5 1.5 0 0 0 0 3z" fill="#fff"/><path d="M583.76 204.87h.3v.3a1.5 1.5 0 1 0 3 0v-.3h.3a1.5 1.5 0 0 0 0-3h-.3v-.3a1.5 1.5 0 0 0-3 0v.3h-.3a1.5 1.5 0 0 0 0 3z" fill="#fff"/><path d="M128 319.53h-4.78a1.5 1.5 0 0 0 0 3h9.55a1.5 1.5 0 0 0 0-3z" fill="#fff"/><path d="M133.91 308.41c-.92-1.8-2.92-2.72-6-2.72-3 0-5 .92-6 2.72-1.82 3.57 1.9 8.87 2.33 9.46a1.5 1.5 0 0 0 1.21.62h4.83a1.5 1.5 0 0 0 1.21-.62c.51-.59 4.24-5.87 2.42-9.46zm-4.33 7.09h-3.24c-1.17-1.83-2.3-4.48-1.66-5.72.48-.94 2.26-1.08 3.28-1.08s2.8.14 3.28 1.08c.63 1.24-.49 3.88-1.66 5.71z" fill="#fff"/><path d="M303.5 430.81a1.5 1.5 0 0 0-1.5 1.5v9.11a1.5 1.5 0 1 0 3 0v-9.11a1.5 1.5 0 0 0-1.5-1.5z" fill="#fff"/><path d="M303.5 390.37a1.5 1.5 0 0 0-1.5 1.5v2.61a1.5 1.5 0 0 0 3 0v-2.61a1.5 1.5 0 0 0-1.5-1.5z" fill="#fff"/><path d="M275.5 405.48A1.5 1.5 0 0 0 274 407v11.27a1.5 1.5 0 0 0 3 0V407a1.5 1.5 0 0 0-1.5-1.52z" fill="#fff"/><path d="M275.5 364.08a1.5 1.5 0 0 0-1.5 1.5v2.72a1.5 1.5 0 1 0 3 0v-2.72a1.5 1.5 0 0 0-1.5-1.5z" fill="#fff"/><path d="M536.5 465.16h-12.36a1.5 1.5 0 0 0 0 3h12.36a1.5 1.5 0 0 0 0-3z" fill="#fff"/><path d="M601.24 454.52a1.5 1.5 0 0 0-1.5-1.5h-37.82a1.5 1.5 0 0 0 0 3h37.82a1.5 1.5 0 0 0 1.5-1.5z" fill="#fff"/><path d="M518.62 453h-25.48a1.5 1.5 0 0 0 0 3h25.48a1.5 1.5 0 0 0 0-3z" fill="#fff"/><path d="M556.79 440.87h-44.9a1.5 1.5 0 0 0 0 3h44.9a1.5 1.5 0 0 0 0-3z" fill="#fff"/><path d="M592.23 431.71h13.67a1.5 1.5 0 0 0 0-3h-13.67a1.5 1.5 0 0 0 0 3z" fill="#fff"/><path d="M556.79 428.71h-25.48a1.5 1.5 0 0 0 0 3h25.49a1.5 1.5 0 0 0 0-3z" fill="#fff"/><path d="M498.32 430.21a1.5 1.5 0 0 0-1.5-1.5h-7.32a1.5 1.5 0 0 0 0 3h7.37a1.5 1.5 0 0 0 1.45-1.5z" fill="#fff"/><path d="M592.23 419.56h7.51a1.5 1.5 0 0 0 0-3h-7.51a1.5 1.5 0 0 0 0 3z" fill="#fff"/><path d="M605.56 393.76a1.5 1.5 0 0 0-1.5-1.5h-17a1.5 1.5 0 0 0 0 3h17a1.5 1.5 0 0 0 1.5-1.5z" fill="#fff"/><path d="M597.81 371h6.25a1.5 1.5 0 0 0 0-3h-6.25a1.5 1.5 0 0 0 0 3z" fill="#fff"/><path d="M587.4 343.65h-8.34a1.5 1.5 0 0 0 0 3h8.34a1.5 1.5 0 0 0 0-3z" fill="#fff"/><path d="M583.42 322.34h14.39a1.5 1.5 0 0 0 0-3h-14.39a1.5 1.5 0 0 0 0 3z" fill="#fff"/><path d="M597.06 296.54a1.5 1.5 0 0 0-1.5-1.5h-12.73a1.5 1.5 0 0 0 0 3h12.73a1.5 1.5 0 0 0 1.5-1.5z" fill="#fff"/><path d="M586.56 284.38a1.5 1.5 0 0 0-1.5-1.5H570.5a1.5 1.5 0 0 0 0 3h14.58a1.5 1.5 0 0 0 1.48-1.5z" fill="#fff"/><path d="M585.06 273.73h7.17a1.5 1.5 0 0 0 0-3h-7.17a1.5 1.5 0 0 0 0 3z" fill="#fff"/><path d="M573.56 260.08a1.5 1.5 0 0 0-1.5-1.5H568a1.5 1.5 0 0 0 0 3h4.08a1.5 1.5 0 0 0 1.48-1.5z" fill="#fff"/><path d="M375.89 431.56h35a1.5 1.5 0 0 0 0-3h-35a1.5 1.5 0 0 0 0 3z" fill="#fff"/><path d="M375.89 419.72h35a1.5 1.5 0 0 0 0-3h-35a1.5 1.5 0 0 0 0 3z" fill="#fff"/><path d="M375.89 407.89h35a1.5 1.5 0 0 0 0-3h-35a1.5 1.5 0 0 0 0 3z" fill="#fff"/><path d="M375.89 396.05h35a1.5 1.5 0 0 0 0-3h-35a1.5 1.5 0 0 0 0 3z" fill="#fff"/><path d="M375.89 384.22h35a1.5 1.5 0 0 0 0-3h-35a1.5 1.5 0 0 0 0 3z" fill="#fff"/><path d="M375.89 372.38h35a1.5 1.5 0 0 0 0-3h-35a1.5 1.5 0 0 0 0 3z" fill="#fff"/><path d="M375.89 360.54h35a1.5 1.5 0 0 0 0-3h-35a1.5 1.5 0 0 0 0 3z" fill="#fff"/><path d="M375.89 348.71h35a1.5 1.5 0 0 0 0-3h-35a1.5 1.5 0 0 0 0 3z" fill="#fff"/><path d="M375.89 336.87h35a1.5 1.5 0 0 0 0-3h-35a1.5 1.5 0 0 0 0 3z" fill="#fff"/><path d="M375.89 325h35a1.5 1.5 0 0 0 0-3h-35a1.5 1.5 0 0 0 0 3z" fill="#fff"/><path d="M375.89 313.16h35a1.5 1.5 0 0 0 0-3h-35a1.5 1.5 0 0 0 0 3z" fill="#fff"/><path d="M375.89 301.36h35a1.5 1.5 0 0 0 0-3h-35a1.5 1.5 0 0 0 0 3z" fill="#fff"/><path d="M375.89 289.53h35a1.5 1.5 0 0 0 0-3h-35a1.5 1.5 0 0 0 0 3z" fill="#fff"/><path d="M375.89 277.69h35a1.5 1.5 0 0 0 0-3h-35a1.5 1.5 0 0 0 0 3z" fill="#fff"/><path d="M376.72 265.86H410a1.5 1.5 0 0 0 0-3h-33.28a1.5 1.5 0 0 0 0 3z" fill="#fff"/><path d="M377.55 254h31.67a1.5 1.5 0 0 0 0-3h-31.67a1.5 1.5 0 0 0 0 3z" fill="#fff"/><path d="M378.22 242.16h30.33a1.5 1.5 0 0 0 0-3h-30.33a1.5 1.5 0 0 0 0 3z" fill="#fff"/><path d="M378.89 230.35h29a1.5 1.5 0 0 0 0-3h-29a1.5 1.5 0 0 0 0 3z" fill="#fff"/><path d="M379.55 218.51h27.67a1.5 1.5 0 0 0 0-3h-27.67a1.5 1.5 0 0 0 0 3z" fill="#fff"/><path d="M380.39 206.68h26a1.5 1.5 0 0 0 0-3h-26a1.5 1.5 0 0 0 0 3z" fill="#fff"/><path d="M381.16 194.84h24.45a1.5 1.5 0 0 0 0-3h-24.45a1.5 1.5 0 0 0 0 3z" fill="#fff"/><path d="M242.09 39.88h-19.28a1.5 1.5 0 0 1-1.5-1.5V2.16a1.5 1.5 0 0 1 1.5-1.5h17.28a10.84 10.84 0 0 1 10 6.4 10.09 10.09 0 0 1 .88 4.18 10.88 10.88 0 0 1-.31 2.45 10 10 0 0 1-1.09 2.7 11.72 11.72 0 0 1-2 2.48l-.26.25a10.86 10.86 0 0 1 1.11.65 11.35 11.35 0 0 1 2.84 2.66 10.94 10.94 0 0 1 2.15 6.38 10.64 10.64 0 0 1-.91 4.35 11.25 11.25 0 0 1-6 5.88 11.42 11.42 0 0 1-4.41.84zm-16.42-4.27H242a6.79 6.79 0 0 0 2.68-.54 7 7 0 0 0 2.23-1.49 7.17 7.17 0 0 0 1.5-2.19 6.35 6.35 0 0 0 .53-2.61 6.6 6.6 0 0 0-.54-2.62 6.49 6.49 0 0 0-1.51-2.16 7.54 7.54 0 0 0-2.39-1.51 8.09 8.09 0 0 0-3-.55h-15.83zm0-17.8h14.24a6.27 6.27 0 0 0 2.53-.51 6.67 6.67 0 0 0 3.49-3.5 6.1 6.1 0 0 0 .51-2.49 5.94 5.94 0 0 0-.51-2.46 6.83 6.83 0 0 0-1.43-2.05 6.38 6.38 0 0 0-2.08-1.38 6.47 6.47 0 0 0-2.53-.5h-14.22z" fill="#fff"/><path d="M289 39.92h-27.23a1.5 1.5 0 0 1-1.5-1.5V2.16a1.5 1.5 0 0 1 1.5-1.5H289a1.5 1.5 0 0 1 1.52 1.48v1.29a1.5 1.5 0 0 1-1.5 1.5h-24.39v13h21.59a1.5 1.5 0 0 1 1.5 1.5v1.27a1.5 1.5 0 0 1-1.5 1.5h-21.59v13.46H289a1.5 1.5 0 0 1 1.51 1.49v1.27a1.5 1.5 0 0 1-1.51 1.5z" fill="#fff"/><path d="M305.08 39.88h-5.58a1.5 1.5 0 0 1-1.5-1.5v-1.22a1.5 1.5 0 0 1 1.5-1.5h.63V4.92h-.63a1.5 1.5 0 0 1-1.5-1.5V2.16a1.5 1.5 0 0 1 1.5-1.5h5.62a1.5 1.5 0 0 1 1.5 1.5v1.27a1.5 1.5 0 0 1-1.5 1.5h-.62v30.68h.58a1.5 1.5 0 0 1 1.5 1.5v1.27a1.5 1.5 0 0 1-1.5 1.5z" fill="#fff"/><path d="M323 40.56a14.45 14.45 0 0 1-5.52-1.09 16.8 16.8 0 0 1-4.72-3 1.5 1.5 0 0 1-.13-2.12l.06-.06 1.09-1.09a1.5 1.5 0 0 1 2.11 0 11.86 11.86 0 0 0 3.26 2.23 9.11 9.11 0 0 0 3.89.83 10.5 10.5 0 0 0 4.3-.89 11.3 11.3 0 0 0 3.52-2.44 11.53 11.53 0 0 0 2.36-3.59 11 11 0 0 0 .88-4.34V5h-.63a1.5 1.5 0 0 1-1.5-1.5V2.16a1.5 1.5 0 0 1 1.5-1.5H337a1.5 1.5 0 0 1 1.5 1.5v23a15.56 15.56 0 0 1-1.16 6 14.83 14.83 0 0 1-8.2 8.27 15.74 15.74 0 0 1-6.14 1.13z" fill="#fff"/><path d="M354.83 39.88h-5.57a1.5 1.5 0 0 1-1.5-1.5v-1.22a1.5 1.5 0 0 1 1.5-1.5h.63V4.92h-.67a1.5 1.5 0 0 1-1.5-1.5V2.16a1.5 1.5 0 0 1 1.5-1.5h5.61a1.5 1.5 0 0 1 1.5 1.5v1.27a1.5 1.5 0 0 1-1.5 1.5h-.58v30.68h.58a1.5 1.5 0 0 1 1.5 1.5v1.27a1.5 1.5 0 0 1-1.5 1.5z" fill="#fff"/><path d="M397.59 39.92H396a1.5 1.5 0 0 1-1.17-.56l-24.72-31v30a1.5 1.5 0 0 1-1.5 1.5h-1.54a1.5 1.5 0 0 1-1.5-1.5V2.16a1.5 1.5 0 0 1 1.5-1.5h1.58a1.5 1.5 0 0 1 1.17.56l24.78 30.85V2.16a1.5 1.5 0 0 1 1.5-1.5h1.49a1.5 1.5 0 0 1 1.5 1.5v36.26a1.5 1.5 0 0 1-1.5 1.5z" fill="#fff"/><path d="M428.84 40.56a19.79 19.79 0 0 1-7.93-1.62 20.6 20.6 0 0 1-10.83-10.78 20 20 0 0 1 0-15.78 20.88 20.88 0 0 1 4.37-6.44 20.49 20.49 0 0 1 6.47-4.35A20 20 0 0 1 428.85 0a19.58 19.58 0 0 1 7.43 1.47 21 21 0 0 1 6.41 4.09 1.5 1.5 0 0 1 0 2.12l-1 1a1.5 1.5 0 0 1-2.11 0 15.68 15.68 0 0 0-5-3.29 15.27 15.27 0 0 0-12 .1A16.27 16.27 0 0 0 417.52 9a16.58 16.58 0 0 0-3.33 5.15 15.76 15.76 0 0 0 0 12.25 16.33 16.33 0 0 0 8.47 8.64 15.07 15.07 0 0 0 13.28-.52 16.81 16.81 0 0 0 5.39-4.61v-7h-10a1.5 1.5 0 0 1-1.5-1.5v-1.25a1.5 1.5 0 0 1 1.5-1.5h12.86a1.5 1.5 0 0 1 1.5 1.5v18.2a1.5 1.5 0 0 1-1.5 1.5h-1.36a1.5 1.5 0 0 1-1.5-1.5v-2.2A18.38 18.38 0 0 1 436.5 39a20.84 20.84 0 0 1-7.66 1.56z" fill="#fff"/><path d="M79.68 163.64a5.25 5.25 0 0 1 1.85.34 1.5 1.5 0 0 0 2-1.34 7.95 7.95 0 0 1 15.86-.36 1.5 1.5 0 0 0 1.45 1.37 5.27 5.27 0 0 1-.15 10.54h-21a5.28 5.28 0 0 1 0-10.55z" fill="#d6b1d3"/><path d="M534.5 165.33h.18a1.48 1.48 0 0 0 1.44-.95 6.89 6.89 0 0 1 13.29 2.54v.15a1.5 1.5 0 0 0 2.26 1.35 6.83 6.83 0 1 1 3.52 12.64h-20.76a7.88 7.88 0 0 1 0-15.75z" fill="#faab64"/><path d="M30.5 468h-8.43a4.51 4.51 0 0 1 0-9 1.5 1.5 0 0 0 1.4-2 4.44 4.44 0 0 1-.29-1.57 4.51 4.51 0 0 1 8.9-1 1.5 1.5 0 0 0 .84 1A6.6 6.6 0 0 1 30.5 468z" fill="#dc262a"/><path d="M240.5 466.56h-11.36a5.76 5.76 0 0 1-3.19-10.56 1.5 1.5 0 0 0 .65-1.46 7.06 7.06 0 1 1 13.33 2.09 1.5 1.5 0 0 0 1.13 2.14 3.91 3.91 0 0 1-.57 7.79z" fill="#d6b1d3"/><path d="M343.24 468.41h-7.63a3.66 3.66 0 0 1-1.59-7 1.5 1.5 0 0 0 .54-2.25 6.43 6.43 0 0 1-1.32-3.91 6.5 6.5 0 1 1 12.68 2 1.5 1.5 0 0 0 .52 1.66 5.27 5.27 0 0 1-3.2 9.46z" fill="#faab64"/><path d="M449 467.49h-10.06a4.92 4.92 0 0 1-2.73-9 1.5 1.5 0 0 0 .65-1.47 5.81 5.81 0 0 1-.07-.86 6.09 6.09 0 1 1 12.17 0 6 6 0 0 1-.62 2.66 1.5 1.5 0 0 0 1.13 2.14 3.29 3.29 0 0 1-.48 6.55z" fill="#dc262a"/><path d="M656.59 468.79a4.28 4.28 0 0 1-3 1.41h-6a2.8 2.8 0 0 1 0-5.6 1.5 1.5 0 0 0 1.4-2 2.76 2.76 0 0 1-.18-1 2.8 2.8 0 0 1 5.53-.64 1.5 1.5 0 0 0 .84 1 4.3 4.3 0 0 1 1.42 6.8z" fill="#d6b1d3"/><path d="M129.58 315.49h-3.24c-1.17-1.83-2.3-4.48-1.66-5.72.48-.94 2.26-1.08 3.28-1.08s2.8.14 3.28 1.08c.63 1.23-.49 3.89-1.66 5.72z" fill="#faab64"/></g></g></svg>