<svg xmlns="http://www.w3.org/2000/svg" viewBox="0 0 84.33000183105469 84.13999938964844"><title>Depositphotos_60823269_09</title><g data-name="Layer 2"><g data-name="Layer 5"><path fill="#e2dac6" d="M82.29 68.05l2.04 5.29-10.23 3.97-2.22-5.22 10.41-4.04z"/><path d="M65.63 21.29s15.49 39.78 16.12 41.5a19.86 19.86 0 0 1 .55 5.27l-10.4 4a27.13 27.13 0 0 1-3.37-5.15c-.92-2.19-13.11-28.19-13.11-28.19s9.69-18.78 10.21-17.43z" fill="#d8d0bc"/><path d="M15.29 21.21L0 36.47v19.86C7.31 49.39 20 42.4 20 42.4s-3.69-22.22-4.71-21.19z" fill="#d8d0bc"/><path fill="#c1b49a" opacity=".5" d="M0 36.47V55l13.3-8.6L0 36.47z"/><path d="M62 18.52L50.42 14l-.42-.12c-1 2-5 3.43-9.7 3.43s-8.63-1.45-9.68-3.41h-.06S22 17.52 18.93 18.48a10.55 10.55 0 0 0-3.63 2.72l3.53 17.26L18.77 72a19.76 19.76 0 0 0 1.39 5.11c1.56.55 10.92 2 20.25 2s18.74-1.49 20.14-2A19.67 19.67 0 0 0 62 72V38.51l3.57-17.25A6.89 6.89 0 0 0 62 18.52z" fill="#d8d0bc"/><g opacity=".75" fill="#664831"><path d="M23.69 35.29l4.27 11 1.87-.73.54 1.39-5.24 2-.54-1.39 1.87-.72-3.68-9.48-1.78.69-.58-1.5z"/><path d="M32.24 41L30 39.24l-.5-3.72 1.67-2.24 2.46-.33 2.18 1.73L37.1 44l-1.66 2.15-2.44.33-2.06-1.64-.23-1.74 1.6-.21.12 1.11 1 .8 1.14-.15.85-1.1-.4-3zm2.58-2l-.47-3.51-1.14-.92-1.12.15-.86 1.19.33 2.46 1.14.92z"/><path d="M49.5 38.16l-2.08 1.31 1.8 1.86-.43 3.34-2.21 1.81-2.58-.35-1.7-2.29.43-3.37 2.15-1.33-1.64-1.71.37-2.87 2.14-1.76 2.46.32 1.64 2.25zm-3.44 2l-1.79 1.11L44 43.4l.88 1.22 1.23.16 1.17-.94.27-2.13zm1.28-5.55l-1.11-.14-1.1.91-.19 1.62 1.34 1.4L48 37.3l.19-1.51z"/><path d="M55.83 36.87l-1.33 2.86 2.31.94.89 2.67-1.64 4-2.46 1.2-2.28-.93-.94-2.58.89-2.2 1.49.61-.66 1.62.48 1.32 1 .39 1.27-.62L56 43.3l-.45-1.43-3.2-1.3L55 34.8l4.88 2-.6 1.5z"/></g><path d="M0 36.47C7.71 44.16 15.57 52 16.2 52.68a19.83 19.83 0 0 1 2.63 4.59l-7.89 7.89a27.16 27.16 0 0 1-5.16-3.36L0 56.33z" fill="#d8d0bc"/><path fill="#e2dac6" d="M18.82 57.27l3.95 3.96-7.75 7.75-4.09-3.81 7.89-7.9z"/><path fill="#c1b49a" opacity=".5" d="M67.53 64.71l-5.51-26.43v14.57l5.51 11.86z"/><path fill="#c1b49a" opacity=".5" d="M22.77 61.23l-3.98 3.98v3.35l3.98-7.33z"/><path d="M50.42 14l-.42-.12c-1 2-5 3.43-9.7 3.43s-8.63-1.45-9.68-3.41h-.06s-4.82 2-8.52 3.44c3.76 4.11 17.1 5.6 18.42 13.48 1.42-7.82 14.79-9.34 18.47-13.5z" fill="#c1b49a" opacity=".5"/><path d="M33.48 21.22A160.08 160.08 0 0 0 33.1 43c.06.64.5 1.76.89 1.76s.59-1.13.53-1.76a160.24 160.24 0 0 1 .38-21.79z" fill="#829963"/><path d="M34.6 46.46h-.77c-.12-.81-.17-1.21-.26-2h.77c.09.78.14 1.19.26 2z" fill="#697c4d"/><path d="M50.93 57.45h-21.1L24 72.1v7.19h32.89V72.1l-6-14.65m.57-.84l6.23 15.33v8.2H23.11v-8.2l6.15-15.33z" fill="#e2dac6"/><path d="M45 18.51a121.91 121.91 0 0 1 .26 21.79c0 .64.2 1.76.59 1.76s.79-1.13.84-1.76a122.15 122.15 0 0 0-.26-21.79z" fill="#829963"/><path d="M60.55 77.12c-2.79 1-37.09 1-40.25-.08v6c3.12 1.1 37.47 1.08 40.26.08v-6z" fill="#e2dac6"/><path d="M46.15 43.74h-.77l.15-2h.77l-.15 2z" fill="#697c4d"/><path d="M40.46 0C30.9 0 23.15 9.47 23.15 13.82c0 6.79 8.47 5 13.84 12.39a9.87 9.87 0 0 1 1.92 6.17v51.46H42v-51.5a9.5 9.5 0 0 1 2-6.27c5.77-7.56 13.72-5.37 13.72-12.24C57.77 9.61 50 0 40.46 0z" fill="#e2dac6"/><path d="M29.19 19.17c2.63 1.23 5.88 2.57 8.48 6a52.84 52.84 0 0 0 5.59-.12c2.78-3.56 6-4.89 8.65-6.07 3.21-1.47 4.76-2.3 4.76-5.2 0-3.59-7.2-12.75-16.24-12.75s-16.25 9.2-16.25 12.79c0 2.88 1.62 3.76 5.01 5.35z" fill="#829963"/><path d="M40.45 7.3c9.31 0 8 4.56 15.88 7.31C57.77 11.52 51.67.9 40.46.9 29.55.9 23.15 11.23 24.7 14.54c6.68-2.07 6.01-7.24 15.75-7.24z" fill="#697c4d"/><path d="M40.09 32.25v51.58h.74V32.25c0-4.88-.74-4.69-.74 0z" fill="#c1b49a"/><path d="M40.83 32.25c0-4.87 2.11-6.7 4.33-9.14 2.46-2.7 5.05-5.71 5.05-9 0-3.72-4.29-5.95-9.67-5.95s-9.83 2.1-9.83 5.95c0 3.09 2.35 6 4.69 8.56s4.66 4.85 4.69 9.54z" fill="#697c4d"/><path d="M56 63.92a24 24 0 0 0-4.4-7.22l6.19 15.24A21.91 21.91 0 0 0 56 63.92z" fill="#c1b49a" opacity=".5"/><path d="M23.15 71.94l6.19-15.24a23.93 23.93 0 0 0-4.4 7.22 21.89 21.89 0 0 0-1.79 8.02z" fill="#c1b49a" opacity=".5"/><path d="M41.12 31.6a.67.67 0 0 1-.67.67.67.67 0 0 1-.67-.67v-.79a.67.67 0 0 1 .67-.67.67.67 0 0 1 .67.67z" fill="#929497"/><path d="M40.91 32.09a9.66 9.66 0 0 1 .37 2 .83.83 0 0 1-1.67 0 9.63 9.63 0 0 1 .37-2zm0 2a.45.45 0 1 0-.45.45.45.45 0 0 0 .44-.43z" fill="#acacad"/><path fill="#acacad" d="M40.17 30.75h.56v2.2h-.56z"/></g></g></svg>