<svg xmlns="http://www.w3.org/2000/svg" viewBox="-0.07676839828491211 -0.015522003173828125 106.27677154541016 94.09553527832031"><title>Depositphotos_113594126_07</title><g data-name="Layer 2"><g data-name="Layer 1"><g data-name="Layer 2"><g data-name="Icon Set"><path fill="#fdeb65" d="M6.38 52.95h66.99v8.9H6.38z"/><path d="M7.9 29.83A7.91 7.91 0 0 1 0 21.92v-8.57h3v8.57a4.9 4.9 0 1 0 9.79.44v-9.01h3v8.57a7.91 7.91 0 0 1-7.89 7.91z" fill="#fff"/><path d="M20.69 29.83a7.91 7.91 0 0 1-7.9-7.91v-8.57h3v8.57a4.9 4.9 0 0 0 9.79.44v-9.01h3v8.57a7.91 7.91 0 0 1-7.89 7.91z" fill="#fff"/><path d="M33.48 29.83a7.91 7.91 0 0 1-7.9-7.91v-8.57h3v8.57a4.9 4.9 0 0 0 9.79.44v-9.01h3v8.57a7.91 7.91 0 0 1-7.89 7.91z" fill="#fff"/><path d="M46.27 29.83a7.91 7.91 0 0 1-7.9-7.91v-8.57h3v8.57a4.9 4.9 0 0 0 9.8 0v-8.57h3v8.57a7.92 7.92 0 0 1-7.9 7.91z" fill="#fff"/><path d="M59.07 29.83a7.91 7.91 0 0 1-7.9-7.91v-8.57h3v8.57a4.9 4.9 0 0 0 9.79.44v-9.01h3v8.57a7.91 7.91 0 0 1-7.89 7.91z" fill="#fff"/><path d="M71.87 29.83A7.91 7.91 0 0 1 64 21.92v-8.57h3v8.57a4.9 4.9 0 0 0 9.79.44v-9.01h3v8.57a7.91 7.91 0 0 1-7.91 7.91z" fill="#fff"/><path d="M74.88 85.5H49.1l-8.54-14.78H25.15L16.62 85.5H4.88v-34h70zm-24-3h21v-28h-64v28h7l8.53-14.78H42.3z" fill="#fff"/><path d="M32.85 94.08a10 10 0 1 1 10-10 10 10 0 0 1-10 10zm0-17a7 7 0 1 0 7 7 7 7 0 0 0-7-7z" fill="#fff"/><path d="M6.38 54.45A1.5 1.5 0 0 1 4.88 53V28.65a1.5 1.5 0 0 1 3 0V53a1.5 1.5 0 0 1-1.5 1.45z" fill="#fff"/><path d="M73.38 54.45a1.5 1.5 0 0 1-1.5-1.5v-24.3a1.5 1.5 0 0 1 3 0V53a1.5 1.5 0 0 1-1.5 1.45z" fill="#fff"/><path d="M104.69 85.5H73.38a1.5 1.5 0 0 1 0-3h31.32a1.5 1.5 0 0 1 0 3z" fill="#fff"/><path d="M90.2 85.4a1.5 1.5 0 0 1-1.06-.4L72.32 68.14A1.51 1.51 0 0 1 74.44 66l16.82 16.84a1.5 1.5 0 0 1-1.06 2.56z" fill="#fff"/><path d="M78.25 14.85H1.5a1.5 1.5 0 0 1-1.26-2.31L6.3 3a6.56 6.56 0 0 1 5.55-3h56.06a6.55 6.55 0 0 1 5.55 3l6.06 9.5a1.5 1.5 0 0 1-1.26 2.31zm-74-3h71.27l-4.59-7.19a3.57 3.57 0 0 0-3-1.66H11.85a3.57 3.57 0 0 0-3 1.66z" fill="#fff"/><path d="M100.94 94.08h-2.62a1.5 1.5 0 0 1 0-3h2.61a2.26 2.26 0 0 0 2.25-2.25V72.05a1.5 1.5 0 0 1 3 0v16.77a5.26 5.26 0 0 1-5.24 5.26z" fill="#fff"/></g></g></g></g></svg>