<svg xmlns="http://www.w3.org/2000/svg" viewBox="-4.090000152587891 -18.880001068115234 296.9499816894531 291.7200012207031"><title>Depositphotos_121444850_04</title><g data-name="Layer 2"><g data-name="—ÎÓÈ_1"><path d="M54.72 177.13s11.77 68.52 45.77 83.16c0 0 8.63 12.55 14.65 11.25 0 0 2.35-2.35-1.31-7.06s-16-49.43-2.87-85.26-56.24-2.09-56.24-2.09z" fill="#8dc375"/><path d="M61.52 193.35s-.84 1.58-2 3.84c6.19 21.39 18.85 53.49 40.84 63.06-23.91-14.97-38.84-66.9-38.84-66.9z" fill="#4dbfd9"/><path d="M100.36 260.24C84.57 237 73.55 199.36 73.55 199.36 78.8 228.25 89.82 247.7 99 259.64q.7.36 1.36.6z" fill="#64b044"/><path d="M112.54 262c-.2-.46-.4-1-.6-1.55-14.36-24.57-21.86-66.75-21.86-66.75 2.4 34.02 13.92 56.22 22.46 68.3z" fill="#64b044"/><path d="M106.28 198.29l-5.8-1.55s-.7 37.56 10.49 60.84c-3.63-11.63-8.07-35.58-4.69-59.29z" fill="#4dbfd9"/><path d="M54.72 177.13s1.44 8.37 4.76 19.89A60.22 60.22 0 0 0 84 202a61.39 61.39 0 0 0 22.32-4 94.25 94.25 0 0 1 4.61-18.73c13.07-35.87-56.21-2.14-56.21-2.14z" fill="#64a74a"/><path d="M233.3 161.85s1.37 69.51-29.26 90.3c0 0-6.11 14-12.26 13.81 0 0-2.76-1.87 0-7.18s6.34-51.55-13.25-84.27 54.77-12.66 54.77-12.66z" fill="#8dc375"/><path d="M229.68 179.05s1.12 1.4 2.68 3.39c-2 22.18-8.42 56.09-28.21 69.63 20.66-19.2 25.53-73.02 25.53-73.02z" fill="#4dbfd9"/><path d="M204.15 252.07c11.12-25.83 14.85-64.84 14.85-64.84.29 29.36-6.86 50.54-13.67 64-.39.29-.78.57-1.18.84z" fill="#64b044"/><path d="M192.52 256.12c.1-.49.2-1 .3-1.64 9.47-26.83 8.88-69.68 8.88-69.68 4.05 33.85-3.07 57.83-9.18 71.32z" fill="#64b044"/><path d="M186.65 192.35l5.41-2.61s7.77 36.75 1.18 61.73c1.37-12.12 1.22-36.47-6.59-59.12z" fill="#4dbfd9"/><path d="M233.3 161.85s.17 8.5-.92 20.43a60.27 60.27 0 0 1-23.15 9.5 61.42 61.42 0 0 1-22.69.26 94.45 94.45 0 0 0-8.06-17.52c-19.6-32.73 54.82-12.67 54.82-12.67z" fill="#64a74a"/><path d="M3.11 173.37s94.63 51.82 254.12-5.51l1.82 1.74a16.56 16.56 0 0 1-1.45 15.17C98.11 242.11 3.48 190.28 3.48 190.28s-7.57-10.28-.37-16.91z" fill="#582a1a"/><path d="M251.4 169.91c-93.21 32.28-163.68 27.22-205.3 17.91a92 92 0 0 0 18.15 20.27c39.39 6.13 96.85 6.73 169.23-15.32 7.76-7.39 13.94-15.18 17.92-22.86z" fill="#1a1a1a" opacity=".3"/><path d="M83.2 8.58C98.41 6.9 121.11 11 131.06 45l4.79-2.84c1.84-5.12 3-10.81 1.78-15.86-.01-.03-21.12-38.97-54.43-17.72z" fill="#fff" opacity=".5"/><path d="M67.83 188.3s-3.71 2.65-1.54 9.1c0 0 5.08-2.54 6.7-7.44s-5.16-1.66-5.16-1.66z" fill="#4d4d4d"/><path d="M71.55 189.87s-14.94 16.47 1.08 19.36c0 0-5.43-12 2.45-18.7z" fill="#666"/><path d="M74.41 190.76s-7.35 17.14.45 21.37c0 0 2.45.89 4.68-2.67 0 0-5.79-8.24-2-17.58z" fill="#7f8c8d"/><path d="M99.29 189.64s3.71 2.65 1.54 9.1c0 0-5.08-2.54-6.7-7.44s5.16-1.66 5.16-1.66z" fill="#4d4d4d"/><path d="M95.57 191.2s14.94 16.47-1.08 19.36c0 0 5.43-12-2.45-18.7z" fill="#666"/><path d="M92.71 192.09s7.34 17.14-.45 21.37c0 0-2.45.89-4.67-2.67 0 0 5.79-8.24 2-17.58z" fill="#7f8c8d"/><path d="M137.62 26.27s-21.81-36.95-61.43-9.35c0 0-7.12 5.34-19.14 37.84 0 0-6 11.31-12.47 20.92-7 10.35-9.79 36.95.45 81.91 0 0 5.79 36.06 45 36.06 44 0 64.55-59.21 53-89.48 0 0-5.79-19.59-14.25-26.71 0 0-12.46-15.58-.89-20-.06-.03 12.85-17.83 9.73-31.19z" fill="#8dc375"/><path d="M45.24 158.61c1.29 5.83 9.49 35 44.76 35 27.39 0 45.7-23 52.82-47.64C103.89 189 67 174.73 45.24 158.61z" fill="#64b044" opacity=".3"/><path d="M143.37 105.31c-.13-.38-.26-.77-.4-1.14 0 0-5.79-19.59-14.25-26.71 0 0-12.46-15.58-.89-20 0 0 12.91-17.81 9.79-31.16 0 0-24.48-45.18-62.32-11.68 0 0-11.69 10.24-23.71 42.73 0 0-4 7.68-8 17.69-.64 5.45-1.49 12.85-1.77 20.9C57 112.8 93 141.28 143.37 105.31z" fill="#fbcb43"/><path d="M45.58 70.13s-16.19 90.11 14.7 113.06c0 0-40.4-9.58-29.62-81.79 0 0 4.22-22.2 14.92-31.27z" fill="#64b044"/><path d="M124 69.34s20 66.44-6 114.85c0 0 61.14-45.07 6-114.85z" fill="#64b044"/><path d="M60.28 183.19c-14.92-11.09-18.86-37.84-18.94-62.54-1 6.76-3.93 34.22 7.26 56.14a32.69 32.69 0 0 0 11.68 6.4z" fill="#5f9653"/><path d="M112.36 187.86c14.92-11.08 18.87-42.51 18.95-67.21 1 6.76 4.25 36.28-6.93 58.2a53.23 53.23 0 0 1-12.02 9.01z" fill="#5f9653"/><path d="M37.91 93.71s-14.36 36.73 5.68 74.79c0 0-16-33.72-5-69.44z" fill="#5f9653" opacity=".5"/><path d="M135.76 93.71s14.36 36.73-5.68 74.79c0 0 16-33.72 5-69.44z" fill="#5f9653" opacity=".5"/><path d="M51.57 113.9s2.24 24.86 15.42 9.57c.01 0-12.38 6.89-15.42-9.57z" fill="#64b044"/><path d="M68.49 125.48s3.48 21.65 15.61 9.08c-.01 0-11.78 5.34-15.61-9.08z" fill="#64b044"/><path d="M124.74 122.48s-7.82 23.7-17.19 5.82c0 .01 10.45 9.53 17.19-5.82z" fill="#64b044"/><path d="M105.65 129.92s-8.3 20.3-17.26 5.31c-.01 0 10.25 7.87 17.26-5.31z" fill="#64b044"/><path d="M44.59 108.41s.22 31.61 8.68 50.75c0 0 4.34 9 3.34-23.37 0 0 0 32.05-4.9 13.13z" fill="#64b044"/><path d="M62.62 139.34s-.45 8.9 4.45 22.7c0 0 4.79 12.35 3.78-20 0 0-.45 31.61-5.34 12.69z" fill="#64b044"/><path d="M56.16 160.71s-.45 7.4 4.45 18.87c0 0 4.79 10.27 3.79-16.64 0 0-.45 26.26-5.34 10.54z" fill="#64b044"/><path d="M67.73 167.61s-.44 7.4 4.45 18.87c0 0 4.79 10.26 3.78-16.65 0 0-.44 26.26-5.34 10.54z" fill="#64b044"/><path d="M115.5 162s.44 7.4-4.45 18.87c0 0-4.79 10.26-3.78-16.65 0 0 .45 26.26 5.34 10.54z" fill="#64b044"/><path d="M103.92 168.95s.45 7.4-4.45 18.86c0 0-4.79 10.27-3.78-16.65 0 0 .45 26.26 5.34 10.54z" fill="#64b044"/><path d="M74.64 146.69s-.45 8.9 4.45 22.7c0 0 4.79 12.35 3.79-20 0 0-.45 31.6-5.34 12.69z" fill="#64b044"/><path d="M128.28 120.65s-.89 20.26-7.65 38.51c0 0-4.34 9-3.34-23.37 0 0 .75 31.16 5.65 12.24z" fill="#64b044"/><path d="M111.28 139.34s.44 8.9-4.45 22.7c0 0-4.79 12.35-3.78-20 0 0 .45 31.61 5.34 12.69z" fill="#64b044"/><path d="M98.59 148.69s.45 8.9-4.45 22.7c0 0-4.79 12.35-3.78-20 0 0 .45 31.61 5.34 12.69z" fill="#64b044"/><path d="M78.42 174.29s4.45 34.71 13.35.71c0 0-7.34 25.77-13.35-.71z" fill="#64b044"/><path d="M122.15 136.92c-.84 11.59-17.77 32.59-36.25 31.25s-35.4-31.29-34.55-42.88 18.05 3.63 36.36 6.44c20.36 3.14 35.29-6.39 34.44 5.19z" fill="#fff" opacity=".2"/><path d="M46.59 70.72s7.4 15.16 18 0c.03 0-9.31 7.38-18 0z" fill="#f0851d" opacity=".5"/><path d="M54.86 55.87s4 16.39 17.62 3.82c-.01 0-10.69 5.23-17.62-3.82z" fill="#f0851d" opacity=".5"/><path d="M70.78 63.53s7 13.56 16.28-.32c0 0-8.3 6.79-16.28.32z" fill="#f0851d" opacity=".5"/><path d="M61.1 46.5s7 13.56 16.28-.32c-.01 0-8.3 6.82-16.28.32z" fill="#f0851d" opacity=".5"/><path d="M65.59 32.59s1.49 13 13.15 4.64c0 0-8.74 2.97-13.15-4.64z" fill="#f0851d" opacity=".5"/><path d="M70.07 22.47s1.11 9.62 9.76 3.45c0-.01-6.47 2.2-9.76-3.45z" fill="#f0851d" opacity=".5"/><path d="M55.38 102.26s1.11 9.62 9.76 3.45c0 0-6.47 2.2-9.76-3.45z" fill="#f0851d" opacity=".5"/><path d="M59.95 78.4s7.4 15.16 18 0c.05 0-9.31 7.38-18 0z" fill="#f0851d" opacity=".5"/><path d="M45.92 89.08s7.4 15.16 18 0c.08 0-9.31 7.38-18 0z" fill="#f0851d" opacity=".5"/><path d="M76 72.72s7.4 15.16 18 0c0 0-9.34 7.38-18 0z" fill="#f0851d" opacity=".5"/><path d="M96 77.07s7.4 15.16 18 0c0 0-9.3 7.37-18 0z" fill="#f0851d" opacity=".5"/><path d="M78.64 86.41s7.4 15.16 18 0c.03 0-9.31 7.38-18 0z" fill="#f0851d" opacity=".5"/><path d="M63.62 96.43s7.4 15.16 18 0c.03 0-9.31 7.38-18 0z" fill="#f0851d" opacity=".5"/><path d="M105.69 88.75s7.41 15.16 18 0c.02 0-9.31 7.38-18 0z" fill="#f0851d" opacity=".5"/><path d="M88 99.77s7.41 15.16 18 0c0 0-9.31 7.37-18 0z" fill="#f0851d" opacity=".5"/><path d="M110.36 103.77s7.4 15.16 18 0c.03 0-9.31 7.38-18 0z" fill="#f0851d" opacity=".5"/><path d="M73 110.12s7.4 15.16 18 0c0 0-9.34 7.37-18 0z" fill="#f0851d" opacity=".5"/><path d="M95.34 113.12s7.4 15.16 18 0c.02 0-9.34 7.38-18 0z" fill="#f0851d" opacity=".5"/><path d="M124.86 71.24c-2.35-4.86-3.76-11.22 3-13.81 0 0 12.91-17.81 9.79-31.16 0 0-9.68-18.21-27.42-23.17-12.64 1.82-30.8 8.65-30.59 32.9.28 31.1 29.09 38.9 45.22 35.24z" fill="#e8721b"/><path d="M110.21 3.1a44.81 44.81 0 0 0-16.37 5.44C107.57 10 123.25 18.3 131.06 45l4.79-2.84c1.84-5.12 3-10.81 1.78-15.86-.01-.03-9.68-18.23-27.42-23.2z" fill="#fff" opacity=".2"/><path d="M139.94 53c3.07.53-5-7.76-5-7.76l-3.28-2.09s-3.07 7.92 8.28 9.85z" fill="#861b47"/><path d="M132.06 41.08s-3.12 10.68-.89 12.91c2.73 2.73 7 1.89 9.35-1.11 0-.01-10.79-2.46-8.46-11.8z" fill="#dc4437"/><path d="M136.18 24.16a22.93 22.93 0 0 1 13.91 15.14c3.67 12-6.34 24.71-6.34 24.71s-3 3.67-5.34 3 5.34-2.34 5-11-12.35-11-12.35-11-1.22-15.18 5.12-20.85z" fill="#dc4437"/><path d="M131.06 45s.59.12 1.49.39c.23-2.47 2-14.86 5.75-20.3a6.68 6.68 0 0 0-2-.89c-6.91 5.52-5.24 20.8-5.24 20.8z" fill="#fff" opacity=".8"/><path d="M150.09 39.29a22.62 22.62 0 0 0-14-15c-1 .91-2.15 3.68-2.8 4.89 4.56 2.37 15.71 9.67 13 23.38-1.47 7.56-3.63 11.73-5.6 14a12 12 0 0 0 3-2.59s10.07-12.66 6.4-24.68z" fill="#fff" opacity=".1"/><ellipse cx="143.1" cy="32.83" rx="2.2" ry="4" transform="rotate(-39.45 143.092 32.828)" fill="#fff" opacity=".3"/><path d="M119.51 35.8a7.2 7.2 0 0 1-9.88 2.47c-3.43-2-6.13-7.77-4.1-11.17s8-3.21 11.44-1.16a7.2 7.2 0 0 1 2.54 9.86z" fill="#fff" opacity=".8"/><path d="M116.76 34.17a4.4 4.4 0 0 1-6 1.51c-2.1-1.25-3.74-4.74-2.51-6.83s4.9-2 7-.71a4.4 4.4 0 0 1 1.51 6.03z" fill="#2c3e50"/><circle cx="110.14" cy="30.17" r="1.89" fill="#fff"/><circle cx="99.51" cy="46.14" r="9.85" fill="#fff" opacity=".1"/><path d="M226.69 55.25s2 4.11 4.66 11.08a105.49 105.49 0 0 1 16 12.11 113 113 0 0 0-20.66-23.19z" fill="#198762" opacity=".3"/><path d="M220.11 60.13a117.49 117.49 0 0 1 15.78 9.17c-1-1.09-1.94-2.16-2.78-3.17a82.33 82.33 0 0 1-6.52-10.83z" fill="#198762" opacity=".3"/><path d="M190.17 180.7s-3.52 2.9-.89 9.18c0 0 4.89-2.88 6.16-7.89s-5.27-1.29-5.27-1.29z" fill="#4d4d4d"/><path d="M194 182s-13.75 17.48 2.44 19.24c0 0-6.26-11.61 1.13-18.82z" fill="#666"/><path d="M196.91 182.69s-6.12 17.61 1.94 21.28c0 0 2.5.72 4.47-3 0 0-6.35-7.81-3.23-17.4z" fill="#7f8c8d"/><path d="M221.65 179.83s3.89 2.38 2.17 9c0 0-5.24-2.17-7.2-7s5.03-2 5.03-2z" fill="#4d4d4d"/><path d="M218 180.15s16.06 15.38.28 19.39c0 0 4.58-12.37-3.75-18.48z" fill="#666"/><path d="M215.25 180.07s8.53 16.58 1.05 21.35c0 0-2.38 1.06-4.85-2.34 0 0 5.2-8.62.77-17.68z" fill="#7f8c8d"/><path d="M225.76 181.64c41.12-28 19.64-91.75 12.47-109.84-1.89-2-3.65-3.9-5.12-5.66 0 0-7.78-10.61-9.73-19.4-26.31 3.66-37.33-4.92-49.54-10.57C172.64 39.72 160 47 158.68 51.5c0 0 5.45 7.65.41 18.49-5.27 11.34-7.18 37.54 6.19 81.68 0 0 8.3 35.56 47.38 32.82a46 46 0 0 0 13.1-2.85z" fill="#dae56b"/><path d="M247.24 101.7c-41.64 28.27-73.3 19.12-91.11 8.38a244.73 244.73 0 0 0 9.14 41.59s8.3 35.56 47.38 32.82a46 46 0 0 0 13.11-2.85c27.56-18.73 27.01-53.56 21.48-79.94z" fill="#c3d140"/><path d="M166.17 154.57c3 8.41 14.26 32.18 46.48 29.92a46 46 0 0 0 13.11-2.85c12.2-8.29 18.88-19.73 22.07-32.2-30.65 25.16-60.92 17.12-81.66 5.13z" fill="#198762" opacity=".1"/><path d="M166.94 115.45s4 24.64 16.05 8.46c.01.01-11.86 7.75-16.05-8.46z" fill="#198762" opacity=".2"/><path d="M185.83 122.44s9.76 19.64 17.6 4c.01.03-9.65 8.63-17.6-4z" fill="#198762" opacity=".2"/><path d="M239.77 108.86s-1 24.94-14.93 10.32c0 0 12.7 6.27 14.93-10.32z" fill="#198762" opacity=".2"/><path d="M221.42 119.31s-6.86 20.83-16.85 6.5c0 .01 10.78 7.14 16.85-6.5z" fill="#198762" opacity=".2"/><path d="M162.27 115.29s1.9 23.81 11.35 37.64c0 0 4.81 6.49 2.09-17.85 0 0 1.7 24.16-4.19 10.24z" fill="#198762" opacity=".2"/><path d="M181.53 132.23s.18 8.91 6 22.34c0 0 5.64 12 2.37-20.25 0 0 1.77 31.56-4.44 13z" fill="#198762" opacity=".2"/><path d="M176.59 154s.07 7.41 5.76 18.51c0 0 5.49 9.9 2.61-16.87 0 0 1.4 26.23-4.59 10.89z" fill="#198762" opacity=".2"/><path d="M188.62 160.07s.08 7.41 5.76 18.51c0 0 5.49 9.91 2.61-16.87 0 0 1.4 26.23-4.59 10.89z" fill="#198762" opacity=".2"/><path d="M235.87 151.17s1 7.35-3.12 19.13c0 0-4.06 10.58-4.94-16.34 0 0 2.29 26.17 6.07 10.14z" fill="#198762" opacity=".2"/><path d="M224.81 158.87s1 7.35-3.12 19.13c0 0-4.05 10.57-4.94-16.34 0 0 2.29 26.17 6.07 10.14z" fill="#198762" opacity=".2"/><path d="M194 138.72s.18 8.91 6 22.33c0 0 5.64 12 2.37-20.25 0 0 1.77 31.56-4.44 13z" fill="#198762" opacity=".2"/><path d="M242.63 112.54s.53 20.27-4.94 38.95c0 0-3.7 9.3-5-23.08 0 0 2.93 31 6.49 11.82z" fill="#198762" opacity=".2"/><path d="M230.07 128.82s1.07 8.85-2.85 23c0 0-3.91 12.66-5.18-19.72 0 0 2.66 31.5 6.22 12.28z" fill="#198762" opacity=".2"/><path d="M218.07 139s1.07 8.85-2.85 23c0 0-3.91 12.66-5.18-19.72 0 0 2.66 31.5 6.22 12.28z" fill="#198762" opacity=".2"/><path d="M199.75 166s6.88 34.32 13.37-.27c0-.02-5.52 26.27-13.37.27z" fill="#198762" opacity=".2"/><g opacity=".5" fill="#64a74a"><path d="M162.73 71.32s2 16 12.87 2.87c.01 0-8.26 5.71-12.87-2.87z" opacity=".5"/><path d="M172.11 96.72s1.78 9.52 10 2.75c-.02.01-6.31 2.66-10-2.75z" opacity=".5"/><path d="M177 77.15s8.45 14.61 18-1.26c0-.01-8.82 8.01-18 1.26z" opacity=".5"/><path d="M162.69 84.6s5.19 15.58 15.3 1.11c.01 0-8.46 6.78-15.3-1.11z" opacity=".5"/><path d="M210.16 72s12.84 10.94 16.51-7.21c0 0-5.58 10.5-16.51 7.21z" opacity=".5"/><path d="M196.33 80.93S206.49 94.4 214 77.49c0 0-7.73 9.02-17.67 3.44z" opacity=".5"/><path d="M181.61 90.54s8.45 14.6 18-1.26c-.01 0-8.81 8.01-18 1.26z" opacity=".5"/><path d="M214.7 84.18s13 10.79 16.44-7.39c0 0-5.49 10.56-16.44 7.39z" opacity=".5"/><path d="M201.17 94.08s10.78 13 17.52-4.27c0 .01-7.33 9.38-17.52 4.27z" opacity=".5"/><path d="M219.92 96.67s11.58 11.86 15.33-5.67c0 0-5.37 9.83-15.33 5.67z" opacity=".5"/><path d="M185.24 104s8.45 14.6 18-1.26c-.02.01-8.81 8.02-18 1.26z" opacity=".5"/><path d="M164.2 102.93s1.36 14.58 14.64 5.53c0 0-9.84 3.12-14.64-5.53z" opacity=".5"/><path d="M206.91 105.79s9.42 14 17.86-2.48c0 0-8.23 8.59-17.86 2.48z" opacity=".5"/></g><path d="M161.5 59.9s-10.57 96.55 21.85 117.28c0 0-41-7.5-35.34-80.29-.01 0 3.45-27.2 13.49-36.99z" fill="#64b044"/><path d="M154.71 88.71s-11.75 37.64 10.9 74.2c0 0-18.35-32.51-9.86-68.92z" fill="#5f9653" opacity=".5"/><path d="M183.24 177.18c-15.66-10-21.41-37.21-23.22-61.84-.48 6.81-1.49 34.92 11.21 56a37.26 37.26 0 0 0 12.01 5.84z" fill="#5f9653"/><path d="M226.69 55.25s30.31 62.16 12.17 114.06c0 0 54-56.53-12.17-114.06z" fill="#64b044"/><path d="M244.12 120.57c1.3 15.81.32 32.76-5.26 48.74 0 0 .23-.25.64-.71 1.47-1.85 3-3.82 4.37-5.72 4.86-14.95 2.86-30.97.25-42.31z" fill="#5f9653"/><path d="M243.56 78.25s19.95 34 6.14 74.75c0 0 10.53-35.82-6-69.37z" fill="#5f9653" opacity=".5"/><path d="M167.84 128.14c.36 11.61 16.39 33.31 34.91 32.73s36.67-29.78 36.31-41.39-18.18 2.87-36.6 4.92c-20.46 2.28-34.98-7.87-34.62 3.74z" fill="#fff" opacity=".2"/><path d="M188.3 0s-37.93 1-30.8 50.7c1.89 7.9 6.88 15.36 12.57 17a60.52 60.52 0 0 0 56.47-12.45C231.61.19 188.3 0 188.3 0z" fill="#eca402"/><ellipse cx="169.74" cy="27.74" rx="6.23" ry="7.23" transform="rotate(-4.02 169.912 27.788)" fill="#fff" opacity=".8"/><ellipse cx="169.74" cy="27.74" rx="3.56" ry="4.13" transform="rotate(-4.02 169.627 27.778)" fill="#2c3e50"/><circle cx="168.25" cy="25.5" r="1.56" transform="rotate(-4.02 168.282 25.448)" fill="#fff"/><ellipse cx="202.86" cy="24.89" rx="6.23" ry="7.23" transform="rotate(-4.02 202.82 24.949)" fill="#fff" opacity=".8"/><ellipse cx="202.86" cy="24.89" rx="3.56" ry="4.13" transform="rotate(-4.02 202.962 24.954)" fill="#2c3e50"/><circle cx="201.36" cy="22.65" r="1.56" transform="rotate(-4.03 201.4 22.595)" fill="#fff"/><path d="M188.3 0s-15.65.43-25 13.9a50.29 50.29 0 0 0 20.7 2.55c11-.77 20.44-4.42 25.58-9.27A41.65 41.65 0 0 0 188.3 0z" fill="#fff" opacity=".2"/><path d="M162.05 15.93c-4.4 7.5-6.88 18.54-4.55 34.76 1.89 7.9 6.88 15.36 12.57 17 1.25.35 2.47.64 3.68.91-20.09-17.36-15.69-40.91-11.7-52.67z" fill="#e49306"/><path d="M226.55 55.21c2.93-31.85-10.35-45.32-22-51 5 4.32 20.29 20.69 15.61 55.94a45.79 45.79 0 0 0 6.39-4.94z" fill="#e49306"/><path d="M198.6 32.29s9.24 31.34-18.33 21.16z" fill="#d3362d"/><path d="M198.74 32.29s-8.84-8.31-20.93-.06c0 0-11.64 26.19 4.55 34.42 0 0 2.73.09.72-3.34s-2.19-8.15 4.82-11.94c10.03-5.37 9.92-12.54 10.84-19.08z" fill="#dc4437"/><path d="M181.87 59c-1.42-9.22 10.06-21.56 14.06-25.54a25 25 0 0 0-18.12-1.26s-11.64 26.19 4.55 34.42c0 0 2.73.09.72-3.34a8.18 8.18 0 0 1-1.21-4.28z" fill="#fff" opacity=".1"/><ellipse cx="184.59" cy="37.81" rx="2.56" ry="5.12" transform="rotate(-77.83 184.58 37.808)" fill="#fff" opacity=".3"/><path d="M177.24 33.64c3.38-1.29 12.91-4.11 21.19 1.07.1-.81.2-1.61.31-2.41 0 0-8.84-8.31-20.93-.06 0-.01-.23.51-.57 1.4z" fill="#fff" opacity=".8"/></g></g></svg>