<svg xmlns="http://www.w3.org/2000/svg" xmlns:xlink="http://www.w3.org/1999/xlink" viewBox="-50 -34.80000305175781 204.5 143.3000030517578"><title>Depositphotos_60824499_02</title><path fill="#eeb9be" d="M124 78.4l3 7.8-15 5.8-3.2-7.6z"/><path d="M99.6 10s22.7 58.2 23.6 60.7.8 7.7.8 7.7l-15.2 5.9c-1.9-2.3-3.6-4.8-4.9-7.5-1.4-3.2-19.2-41.3-19.2-41.3S98.8 8 99.6 10z" fill="#e5b0b5"/><defs><path id="a" d="M99.6 10s22.7 58.2 23.6 60.7.8 7.7.8 7.7l-15.2 5.9c-1.9-2.3-3.6-4.8-4.9-7.5-1.4-3.2-19.2-41.3-19.2-41.3S98.8 8 99.6 10z"/></defs><clipPath id="b"><use xlink:href="#a" overflow="visible"/></clipPath><g clip-path="url(#b)" fill="#f47d7d"><path d="M154.5 82.1l-1.8.7-35.4-91.6 1.8-.8 35.4 91.7z"/><path d="M150.6 83.6l-1.8.7-35.4-91.6 1.8-.7 35.4 91.6z"/><path d="M146.7 85.1l-1.9.8-35.4-91.7 1.9-.7 35.4 91.6z"/><path d="M142.8 86.6l-1.9.8-35.4-91.7 1.9-.7 35.4 91.6z"/><path d="M138.9 88.2l-1.9.7-35.4-91.7 1.9-.7 35.4 91.7z"/><path d="M134.9 89.7l-1.8.7L97.7-1.3l1.9-.7 35.3 91.7z"/><path d="M131 91.2l-1.8.7L93.8.2l1.8-.7L131 91.2z"/><path d="M127.1 92.7l-1.9.7L89.9 1.8l1.8-.8 35.4 91.7z"/><path d="M123.2 94.2l-1.9.7L85.9 3.3l1.9-.7 35.4 91.6z"/><path d="M119.3 95.7l-1.9.7L82 4.8l1.9-.7 35.4 91.6z"/><path d="M115.4 97.2l-1.9.8L78.1 6.3l1.9-.7 35.4 91.6z"/><path d="M111.4 98.7l-1.8.8L74.2 7.8l1.9-.7 35.3 91.6z"/><path d="M107.5 100.3l-1.9.7L70.3 9.3l1.8-.7 35.4 91.7z"/><path d="M103.6 101.8l-1.9.7-35.4-91.7 1.9-.7 35.4 91.7z"/><path d="M99.7 103.3l-1.9.7-35.4-91.7 1.9-.7 35.4 91.7z"/><path d="M95.8 104.8l-1.9.7-35.4-91.6 1.9-.8 35.4 91.7z"/><path d="M91.8 106.3l-1.8.7-35.4-91.6 1.8-.7 35.4 91.6z"/><path d="M87.9 107.8l-1.8.7-35.4-91.6 1.8-.7 35.4 91.6z"/></g><path d="M26.4 9.4L4.1 31.7v29.1c10.7-10.1 29.2-20.4 29.2-20.4s-5.4-32.5-6.9-31z" fill="#e5b0b5"/><defs><path id="c" d="M26.4 9.4L4.1 31.7v29.1c10.7-10.1 29.2-20.4 29.2-20.4s-5.4-32.5-6.9-31z"/></defs><clipPath id="d"><use xlink:href="#c" overflow="visible"/></clipPath><g clip-path="url(#d)" fill="#f47d7d"><path d="M10.9 86.4L9.5 85l70.1-68.9 1.3 1.4-70 68.9z"/><path d="M8 83.5L6.6 82l70-68.9 1.4 1.5L8 83.5z"/><path d="M5 80.5L3.6 79l70.1-68.9 1.4 1.5L5 80.5z"/><path d="M2.1 77.5L.7 76l70-68.9 1.4 1.5-70 68.9z"/><path d="M-.9 74.5L-2.3 73 67.8 4.1l1.4 1.5L-.9 74.5z"/><path d="M-3.8 71.5L-5.2 70l70-68.8 1.4 1.4-70 68.9z"/><path d="M-6.8 68.5l-1.4-1.4L61.9-1.8l1.4 1.4-70.1 68.9z"/><path d="M-9.7 65.5l-1.4-1.4 70-68.9 1.4 1.4-70 68.9z"/><path d="M-12.7 62.5l-1.4-1.4L56-7.8l1.4 1.4-70.1 68.9z"/><path d="M-15.6 59.5l-1.4-1.4 70-68.9 1.4 1.4-70 68.9z"/><path d="M-18.5 56.5l-1.5-1.4 70.1-68.9 1.4 1.4-70 68.9z"/><path d="M-21.5 53.5l-1.4-1.4 70-68.9 1.5 1.4-70.1 68.9z"/><path d="M-24.4 50.5l-1.4-1.4 70-68.9 1.4 1.4-70 68.9z"/><path d="M-27.4 47.5l-1.4-1.4 70-68.9 1.5 1.4-70.1 68.9z"/><path d="M-30.3 44.5l-1.4-1.4 70-68.9 1.4 1.4-70 68.9z"/><path d="M-33.3 41.5l-1.4-1.4 70.1-68.9 1.4 1.4-70.1 68.9z"/><path d="M-36.2 38.5l-1.4-1.4 70-68.9 1.4 1.4-70 68.9z"/><path d="M-39.2 35.5l-1.4-1.4 70.1-68.9 1.4 1.4-70.1 68.9z"/></g><path d="M94.3 7.2l-17-2.7-.6-.1c-1.5 2.9-7.3 5-14.2 5s-12.6-2.1-14.2-5h-.1l-17 2.7c-2 .3-3.9 1.3-5.3 2.8L31 35.2v49.1c.1 2.7 2 7.5 2 7.5 2.3.8 16 2.9 29.6 2.9s27.4-2.2 29.5-2.9c0 0 2.1-4.9 2.1-7.6 0-.5.1-49 .1-49L99.5 10c-1.4-1.5-3.2-2.4-5.2-2.8z" fill="#e5b0b5"/><defs><path id="e" d="M94.2 7.2L77.3 4.5l-.6-.1c-1.5 2.9-7.3 5-14.2 5s-12.6-2.1-14.2-5h-.1l-17 2.7c-2 .3-3.9 1.3-5.3 2.8l5.2 25.3-.1 49.1c.1 2.7 2 7.5 2 7.5 2.3.8 16 2.9 29.6 2.9s27.4-2.2 29.5-2.9c0 0 2.1-4.9 2.1-7.6 0-.5.1-49 .1-49L99.5 10c-1.4-1.5-3.3-2.4-5.3-2.8z"/></defs><clipPath id="f"><use xlink:href="#e" overflow="visible"/></clipPath><g clip-path="url(#f)" fill="#f47d7d"><path d="M99.4 99.5h-2V1.2h2v98.3z"/><path d="M95.2 99.5h-2V1.2h2v98.3z"/><path d="M91 99.5h-2V1.2h2v98.3z"/><path d="M86.8 99.5h-2V1.2h2v98.3z"/><path d="M82.6 99.5h-2V1.2h2v98.3z"/><path d="M78.4 99.5h-2V1.2h2v98.3z"/><path d="M74.2 99.5h-2V1.2h2v98.3z"/><path d="M70 99.5h-2V1.2h2v98.3z"/><path d="M65.8 99.5h-2V1.2h2v98.3z"/><path d="M61.6 99.5h-2V1.2h2v98.3z"/><path d="M57.4 99.5h-2V1.2h2v98.3z"/><path d="M53.2 99.5h-2V1.2h2v98.3z"/><path d="M49 99.5h-2V1.2h2v98.3z"/><path d="M44.8 99.5h-2V1.2h2v98.3z"/><path d="M40.6 99.5h-2V1.2h2v98.3z"/><path d="M36.4 99.5h-2V1.2h2v98.3z"/><path d="M32.2 99.5h-2V1.2h2v98.3z"/><path d="M28 99.5h-2V1.2h2v98.3z"/></g><path d="M4.1 31.8l23.7 23.7c1.9 1.9 3.9 6.7 3.9 6.7L20.1 73.8c-2.7-1.3-5.2-3-7.6-4.9l-8.5-8 .1-29.1z" fill="#e5b0b5"/><defs><path id="g" d="M4.1 31.8l23.7 23.7c1.9 1.9 3.9 6.7 3.9 6.7L20.1 73.8c-2.7-1.3-5.2-3-7.6-4.9l-8.5-8 .1-29.1z"/></defs><clipPath id="h"><use xlink:href="#g" overflow="visible"/></clipPath><g clip-path="url(#h)" fill="#f47d7d"><path d="M35.3 63.2l-1.4 1.4-68.9-70 1.4-1.4 68.9 70z"/><path d="M32.3 66.1l-1.4 1.4-68.9-70 1.4-1.4 68.9 70z"/><path d="M29.3 69.1l-1.4 1.4L-41 .4l1.4-1.4 68.9 70.1z"/><path d="M26.3 72l-1.4 1.4-68.9-70 1.4-1.4 68.9 70z"/><path d="M23.3 75l-1.4 1.4L-47 6.3l1.4-1.4L23.3 75z"/><path d="M20.3 77.9l-1.4 1.4-68.9-70 1.4-1.4 68.9 70z"/></g><path fill="#eeb9be" d="M31.6 62.2l5.8 5.8L26 79.4l-6-5.6z"/><path d="M102.4 73.6l-8.1-38.7v21.3z"/><path d="M37.4 68L31 74.4v4.4z"/><path d="M76.2 4.5c-8.4 4.6-18.5 4.6-26.8 0h-.1c.7 7.5 7.3 12.9 14.8 12.2 6.5-.6 11.6-5.7 12.1-12.2z" fill="#cb969b"/><path fill="#cec6b2" d="M59.5 9.4h6.6v3h-6.6z"/><path d="M78.1 4.5l-1.9-.4c-8.3 5-18.7 5-26.9 0l-1.9.4v1.6l1.6.7c8.7 4.5 19 4.5 27.6 0l1.5-.7V4.5z" fill="#e5b0b5"/><path d="M62.8 18.5c8 0 14.8-6 15.7-13.9l-2.3-.4c-.8 7.4-7.5 12.8-14.9 12-6.3-.7-11.3-5.7-12-12l-2.3.3c1 8 7.7 14 15.8 14z" fill="#eeb9be"/><path d="M92.2 91.7c-4.1 1.5-54.3 1.5-58.9-.1v8.7c4.6 1.6 54.8 1.6 58.9.1v-8.7z" fill="#eeb9be"/></svg>