<svg xmlns="http://www.w3.org/2000/svg" viewBox="0 0 218.83999633789062 218.83999633789062"><title>Depositphotos_76418865_14_ic</title><g data-name="Layer 2"><path fill="#fff" d="M218.84 72.61V62.09H175.1v42.07h-60.42V43.74h42.06V0h-10.52v33.22h-10.51V0h-10.52v33.22h-10.51V0h-10.52v33.22H93.64V0H83.13v33.22H72.61V0H62.09v43.74h42.07v60.42H43.74V62.09H0v10.52h33.22v10.52H0v10.51h33.22v10.52H.23v10.52h32.99v10.51H0v10.52h33.22v10.52H0v10.51h43.74v-42.06h60.42v60.42H62.09v43.74h10.52v-33.22h10.52v33.22h10.51v-33.22h10.52v32.99h10.52v-32.99h10.51v33.22h10.52v-33.22h10.52v33.22h10.51V175.1h-42.06v-60.42h60.42v42.06h43.74v-10.52h-33.22v-10.51h33.22v-10.52h-33.22v-10.51h33.22v-10.52h-33.22V93.64h33.22V83.13h-33.22V72.61h33.22z" data-name="Layer 1"/></g></svg>