<svg xmlns="http://www.w3.org/2000/svg" viewBox="0 0 48.16999816894531 49.19000244140625"><title>Depositphotos_108274962_6_ic</title><g data-name="Layer 2"><g data-name="Business &amp; Office"><path d="M40.89 2l-6.28 11v35.1h12.55V13.05zm1 34.27h-2V33.6h2zm0-11.7h-2v-2.66h2z" fill="#f1d312"/><circle cx="17.81" cy="24.34" r="3.43" fill="#f1d312"/><path fill="#faab64" d="M6.52 34.12h7.78v7.77H6.52z"/><path d="M48.17 12.79L40.89 0l-7.28 12.79v12.33L19.18 9.53l-1.37-1.48L0 27.29v21.9h48.17zM2 28.08l6.94-7.48 8.87-9.6 8.86 9.59 6.94 7.48v19.12H2zm44.16 19.07H35.61V13.32l5.27-9.26 5.27 9.26z" fill="#fff"/><path d="M5.51 42.89h9.79v-9.77H5.51zm2-7.77h5.77v5.76H7.52z" fill="#fff"/><path d="M20.32 42.89h9.78v-9.77h-9.78zm2-7.77h5.77v5.76h-5.77z" fill="#fff"/><path fill="#fff" d="M39.88 16.06h2.01v2.69h-2.01z"/><path fill="#fff" d="M39.88 27.75h2.01v2.69h-2.01z"/><path fill="#fff" d="M39.88 39.45h2.01v2.69h-2.01z"/></g></g></svg>