<svg xmlns="http://www.w3.org/2000/svg" viewBox="-0.005688667297363281 0 88.36669158935547 84.59673309326172"><title>Depositphotos_89255908_09</title><g data-name="Layer 2" style="isolation:isolate"><rect x="20.06" width="51" height="76.25" rx="3.75" ry="3.75" fill="#0a1d23"/><path fill="#003948" d="M23.43 6.13h44.25v64H23.43z"/><path fill="#0ab9c1" d="M44.45 65.6h2.21v2.21h-2.21z"/><path fill="#0ab9c1" d="M34.08 65.6h2.21v2.21h-2.21z"/><path fill="#c4eef0" d="M25.04 7.23h2.21v2.21h-2.21z"/><path fill="#6cd5da" d="M25.04 10.54h2.21v2.21h-2.21z"/><path fill="#0ab9c1" d="M25.04 13.85h2.21v2.21h-2.21z"/><path fill="#088b91" d="M25.04 17.17h2.21v2.21h-2.21z"/><path fill="#0ab9c1" d="M54.83 65.6h2.21v2.21h-2.21z"/><path fill="#fff" d="M63.1 7.23h2.21v1.1H63.1z"/><path fill="#0ab9c1" d="M59.79 7.23H62v1.1h-2.21z"/><path fill="#b3211b" d="M56.55 7.23h2.21v1.1h-2.21z"/><path fill="#fff" d="M53.23 7.23h2.21v1.1h-2.21z"/><path fill="#003948" d="M42.5 2.51h6.1v1.1h-6.1z"/><circle cx="45.48" cy="61.11" r="3.09" fill="#0a1d23"/><path fill="#003948" d="M43.55 59.94h.94v.94h-.94z"/><path fill="#003948" d="M46.45 59.94h.94v.94h-.94z"/><path fill="#003948" d="M45.02 59.94h.94v.94h-.94z"/><path fill="#003948" d="M43.55 61.35h.94v.94h-.94z"/><path fill="#003948" d="M46.45 61.35h.94v.94h-.94z"/><path fill="#003948" d="M45.02 61.35h.94v.94h-.94z"/><path fill="#003948" d="M45.02 62.69h.94v.94h-.94z"/><path fill="#003948" d="M45.02 58.6h.94v.94h-.94z"/><circle cx="45.56" cy="72.96" r="1.1" fill="#003948"/><path fill="#0ab9c1" d="M30.64 19.38h29.83v37.27H30.64z"/><path fill="#a7e6e9" d="M33.04 21.92h24.89v29.73H33.04z"/><path d="M37.72 29.59v13.54l7.8-7.8 7.87 7.8V29.59a2.13 2.13 0 0 0-2.13-2.13H39.85a2.13 2.13 0 0 0-2.13 2.13z" fill="#fff"/><path fill="#0ab9c1" d="M37.72 43.13H53.4l-7.88-7.8-7.8 7.8z"/><circle cx="45.47" cy="32.47" r="2.88" fill="#0ab9c1"/><path fill="#088b91" d="M37.72 43.13H53.4v1.48H37.72z"/><path style="mix-blend-mode:multiply" fill="#fff" d="M23.43 70.13h44.25l-44.25-64v64z"/><path d="M0 67.74a9.29 9.29 0 0 0 14.86 7.45L2.25 61.68A9.25 9.25 0 0 0 0 67.74z" fill="#861914"/><path d="M29.84 50.69a2.79 2.79 0 0 0-3.45-1.91l-10.63 3.27A8.05 8.05 0 0 0 18 68l2.08-.2V56.57l7.87-2.42a2.79 2.79 0 0 0 1.89-3.46z" fill="#ffcab3"/><path fill="#b3211b" d="M1.138 60.3l6.459-5.511L21.591 71.19l-6.46 5.51z"/><circle cx="50.78" cy="47.73" r="2.38" fill="#fff"/><path d="M50.78 51.83a4.1 4.1 0 1 1 4.1-4.1 4.1 4.1 0 0 1-4.1 4.1zm0-7.2a3.1 3.1 0 1 0 3.1 3.1 3.1 3.1 0 0 0-3.1-3.1z" fill="#fff"/><path d="M50.78 53.36a5.63 5.63 0 1 1 5.63-5.63 5.63 5.63 0 0 1-5.63 5.63zm0-10.76a5.13 5.13 0 1 0 5.13 5.13 5.13 5.13 0 0 0-5.13-5.13z" fill="#fff"/><path d="M87.86 76.24A9.29 9.29 0 0 1 72 81.12l14.64-11.23a9.24 9.24 0 0 1 1.22 6.35z" fill="#861914"/><path d="M80.3 69.73s-.35-2.93-.61-3.87A50.38 50.38 0 0 0 76.92 59a1 1 0 0 0-.1-.16l-6.66-8.88a1.92 1.92 0 0 0-3.28 2l-1.09-1.46a1.92 1.92 0 1 0-3.07 2.31l-1.36-1.8a1.92 1.92 0 0 0-2.69-.38c-.83.62-.88 2.52-.29 3.36L52.57 47a1.92 1.92 0 0 0-3.07 2.31L58.78 62l-2.61-1.39A1.92 1.92 0 0 0 54.36 64s7.44 3.75 9.8 5.21c.84.52 4.58 4 6.32 4.89a30.2 30.2 0 0 0 3.86 1.25z" fill="#f9b59d"/><path fill="#b3211b" d="M65.849 76.199l17.56-13.73 4.952 6.335L70.8 82.533z"/></g></svg>