<svg xmlns="http://www.w3.org/2000/svg" viewBox="-0.2814197540283203 0 110.57141876220703 100.29000091552734"><title>Depositphotos_84671526_9_ic</title><path d="M44.6 33.09a28.8 28.8 0 0 1 10 6q-2.37.93-4.85 1.63a48.2 48.2 0 0 0-5.15-7.63zm-7.85-1.57v11.21a53.71 53.71 0 0 0 9.74-1.18 46.85 46.85 0 0 0-7.49-9.8c-.72-.1-1.49-.18-2.26-.23zm14.48 45.25A56.62 56.62 0 0 1 57 78.84a28.64 28.64 0 0 0 6.78-16.95h-9.02a40.48 40.48 0 0 1-3.53 14.88zM90.46 2.61A31.29 31.29 0 0 0 78.24 0c-11.68 0-19.42 7.4-23.9 13.73C49.83 7.4 42.09 0 30.41 0a31.29 31.29 0 0 0-12.22 2.61C7.6 7 1 16.45.11 28.35a43.86 43.86 0 0 0 2.58 17.89 35.34 35.34 0 0 1 4.42-7.54q1-1.33 2.16-2.55a35.23 35.23 0 0 1 21.9-11c.76-.08 1.52-.15 2.29-.18h3.28c.77 0 1.53.1 2.29.18a35.23 35.23 0 0 1 21.9 11q1.14 1.22 2.16 2.55a35.15 35.15 0 0 1 7.3 19.91v3.28a35.15 35.15 0 0 1-7.3 19.91q-1 1.33-2.16 2.55a35.31 35.31 0 0 1-16.13 9.87q3.31 2.25 6.83 4.43l2.71 1.64L57 98.65c34-21 53.29-47.3 51.52-70.3-.89-11.9-7.47-21.35-18.06-25.74zm-53.71 56h14.73a37.45 37.45 0 0 0-3.45-14A57 57 0 0 1 36.74 46zM57 41.66a56.64 56.64 0 0 1-5.82 2.07 40.48 40.48 0 0 1 3.53 14.88h9.07A28.64 28.64 0 0 0 57 41.66zM33.47 77.77a53.91 53.91 0 0 0-8.18.88q3.83 3.63 8.18 7.17zm3.28-3.29A57 57 0 0 1 48 75.92a37.45 37.45 0 0 0 3.45-14H36.74zM25.61 33.09a28.8 28.8 0 0 0-10 6q2.39.91 4.85 1.64a48.19 48.19 0 0 1 5.15-7.64zm7.85-1.57c-.77 0-1.53.12-2.29.22a46.84 46.84 0 0 0-7.45 9.8 53.72 53.72 0 0 0 9.74 1.18zM10.78 61.89a93 93 0 0 0 5.68 7.44 39.76 39.76 0 0 1-1-7.44zm2.38-20.23a28.68 28.68 0 0 0-6.39 13.69c.59 1.09 1.23 2.17 1.9 3.26h6.78A40.49 40.49 0 0 1 19 43.73a56.55 56.55 0 0 1-5.84-2.07zm20.3 20.23H18.73a37.35 37.35 0 0 0 3.21 13.46l.51.52a57 57 0 0 1 11-1.4zm16.29 17.88a48.19 48.19 0 0 1-5.15 7.64 28.81 28.81 0 0 0 10-6q-2.38-.94-4.85-1.64zM33.47 46a56.94 56.94 0 0 1-11.28-1.45 37.45 37.45 0 0 0-3.45 14h14.73zm3.28 42.38l.67.5c.54 0 1.09-.09 1.62-.16a46.85 46.85 0 0 0 7.45-9.8 53.7 53.7 0 0 0-9.74-1.18z" fill="#fff" data-name="Layer 2"/></svg>