<svg xmlns="http://www.w3.org/2000/svg" viewBox="0 -2.130000114440918 61.099998474121094 76.5999984741211"><title>Depositphotos_87521710_15</title><g data-name="Layer 2"><g data-name="Layer 1"><path d="M12.46 23.72l1.5-.58a1.3 1.3 0 0 0 .79-1.58 1.15 1.15 0 0 0-1.54-.69l-1.5.58a1.21 1.21 0 0 0 .75 2.27z" fill="#deaa78"/><path d="M12.68 25.65l1.18-.52a1.11 1.11 0 0 0 .55-1.4 1 1 0 0 0-1.29-.59l-1.18.52a1.08 1.08 0 0 0 .74 1.99z" fill="#deaa78"/><path d="M12.21 21.46l2.22-.95c.64-.25.77-.59.57-1.22l.22-.39a1.15 1.15 0 0 0-1.54-.69l-2.22.95a1.21 1.21 0 0 0 .75 2.3z" fill="#e6b07c"/><path d="M13.15 18.86c.23 0 .93-.1.93-.1a1.24 1.24 0 0 0 1.12-1.32c-.06-.66.91-1.28.24-1.21l-2.5.25c-1.86.29-1.51 2.63.21 2.38z" fill="#f5c08c"/><path fill="#f5c08c" d="M19.43 21.12l-2.41-4.13-.42 3.63 2.83.5z"/><path d="M7.73 10.43c5.56-2.48 11.13 2.48 16.69 0v6.52c-5.56 2.48-11.13-2.48-16.69 0z" fill="#93ba77" fill-rule="evenodd"/><path d="M8.29 16.16v-5.39c5.19-1.86 10.38 2.31 15.57.45v5.39c-5.19 1.86-10.38-2.31-15.57-.45zm-.56.79c5.56-2.48 11.13 2.48 16.69 0v-6.52c-5.56 2.48-11.13-2.48-16.69 0v6.52z" fill="#6b8756" fill-rule="evenodd"/><path d="M14.41 13.33c0-1.28.75-2.16 1.67-2A2.68 2.68 0 0 1 17.75 14c0 1.28-.75 2.16-1.67 2a2.68 2.68 0 0 1-1.67-2.67z" fill="#6b8756" fill-rule="evenodd"/><path d="M20.86 13a1.23 1.23 0 0 1 .33 0 1 1 0 0 1 .25.1.59.59 0 0 1 .16.13.23.23 0 0 1 .05.13.21.21 0 0 1 0 .12.14.14 0 0 1-.1.07.11.11 0 0 1-.08 0l-.12-.1-.18-.1a.69.69 0 0 0-.28 0v1l.26.1a.91.91 0 0 1 .23.13.61.61 0 0 1 .17.2.63.63 0 0 1 .07.31.72.72 0 0 1-.06.32.63.63 0 0 1-.17.22.72.72 0 0 1-.23.13 1.08 1.08 0 0 1-.26.05v.12a.07.07 0 0 1 0 .06h-.14a.08.08 0 0 1 0-.06v-.11h-.21l-.2-.06a.5.5 0 0 1-.15-.09.15.15 0 0 1-.06-.11.23.23 0 0 1 0-.11.11.11 0 0 1 .1-.06h.07l.09.05.13.05h.18v-.89l-.25-.11a.91.91 0 0 1-.22-.16.74.74 0 0 1-.16-.24.86.86 0 0 1-.06-.34.7.7 0 0 1 .19-.54.85.85 0 0 1 .5-.21v-.14a.07.07 0 0 1 0-.06.1.1 0 0 1 .07 0 .1.1 0 0 1 .07 0 .07.07 0 0 1 0 .06zm.41 2.13a.39.39 0 0 0 0-.17.33.33 0 0 0-.09-.12l-.18-.07-.17-.07v.82H21l.13-.07a.33.33 0 0 0 .09-.11.37.37 0 0 0 .05-.2zm-1-1.38a.55.55 0 0 0 0 .19.47.47 0 0 0 .08.14.56.56 0 0 0 .12.11l.15.08v-1a.49.49 0 0 0-.29.13.42.42 0 0 0-.05.36z" fill="#f6f6f6"/><path d="M11.39 11.58a1.05 1.05 0 0 1 .33.05 1 1 0 0 1 .25.13.67.67 0 0 1 .16.16.25.25 0 0 1 .05.14.19.19 0 0 1 0 .12.12.12 0 0 1-.1.05.13.13 0 0 1-.08-.05l-.12-.11a.88.88 0 0 0-.18-.12.63.63 0 0 0-.27-.06v1l.26.11a.9.9 0 0 1 .23.15.69.69 0 0 1 .17.22.7.7 0 0 1 .06.32.67.67 0 0 1-.06.31.56.56 0 0 1-.17.2.71.71 0 0 1-.23.11h-.26v.12a.07.07 0 0 1 0 .06.1.1 0 0 1-.07 0h-.07a.07.07 0 0 1 0-.06v-.11h-.42a.44.44 0 0 1-.15-.07.13.13 0 0 1-.06-.1.26.26 0 0 1 0-.12.12.12 0 0 1 .1-.07h.47v-.76l-.25-.1a.87.87 0 0 1-.22-.14.65.65 0 0 1-.16-.22.94.94 0 0 1 .13-.9.83.83 0 0 1 .5-.25v-.14a.07.07 0 0 1 0-.06h.07a.11.11 0 0 1 .07 0 .08.08 0 0 1 0 .06zm.41 2.15a.41.41 0 0 0 0-.17.36.36 0 0 0-.09-.12l-.14-.09-.16-.07v.82h.17a.43.43 0 0 0 .13-.07.3.3 0 0 0 .09-.11.35.35 0 0 0 0-.19zm-1-1.37a.53.53 0 0 0 0 .19.43.43 0 0 0 .09.14.5.5 0 0 0 .12.1l.15.07v-1a.49.49 0 0 0-.29.15.46.46 0 0 0-.06.35z" fill="#f6f6f6"/><ellipse cx="23.63" cy="16.53" rx=".64" ry=".63" fill="#6b8756"/><ellipse cx="23.63" cy="11.53" rx=".64" ry=".63" fill="#6b8756"/><ellipse cx="8.6" cy="10.9" rx=".64" ry=".63" fill="#6b8756"/><ellipse cx="8.6" cy="15.9" rx=".64" ry=".63" fill="#6b8756"/><path d="M17.71 28.41s3.32-4.83 1.72-7.28l-1.1-.57a2.48 2.48 0 0 1-1.27-2.39v-.98c.07-1 .13-1.74.16-1.94a1.3 1.3 0 0 0-.92-1.49 1.18 1.18 0 0 0-1.3 1.06 44.72 44.72 0 0 0-.49 4.75 1 1 0 0 1-.36.61 7.49 7.49 0 0 0-1.74 4.16c-.46 2.76.69 4.06.69 4.06V33h4.63z" fill="#ffcf9f"/><path fill="#ededed" d="M12.413 32.178l.02-3.4 5.9.037-.02 3.4z"/><path d="M18.69 51.11V31.47h-6.63v23.26l.77-.52a31.31 31.31 0 0 1 5.86-3.1z" fill="#575756"/><circle cx="13.03" cy="35.02" r=".36" transform="rotate(-71.57 13.026 35.025)" fill="#ededed"/><circle cx="13.03" cy="33.84" r=".36" transform="rotate(-71.57 13.025 33.843)" fill="#ededed"/><circle cx="13.03" cy="32.67" r=".36" transform="rotate(-71.57 13.025 32.673)" fill="#ededed"/><path d="M42 17l1.81-.7a1.57 1.57 0 0 0 1-1.92 1.39 1.39 0 0 0-1.86-.84l-1.81.7A1.47 1.47 0 0 0 42 17z" fill="#deaa78"/><path d="M42.26 19.3l1.43-.63a1.34 1.34 0 0 0 .66-1.7 1.17 1.17 0 0 0-1.56-.72l-1.43.63a1.31 1.31 0 0 0 .9 2.42z" fill="#deaa78"/><path d="M41.68 14.22l2.69-1.15c.78-.3.94-.71.69-1.47l.26-.47a1.39 1.39 0 0 0-1.86-.83l-2.69 1.15a1.47 1.47 0 0 0 .91 2.77z" fill="#e6b07c"/><path d="M42.83 11.08C43.11 11.07 44 11 44 11a1.5 1.5 0 0 0 1.36-1.6c-.07-.79 1.11-1.55.29-1.46l-3 .3c-2.33.31-1.9 3.14.18 2.84z" fill="#f5c08c"/><path fill="#f5c08c" d="M50.43 13.81l-2.91-5-.52 4.4 3.43.6z"/><path d="M36.26.87c6.74-3 13.48 3 20.22 0v7.9c-6.74 3-13.48-3-20.22 0z" fill="#93ba77" fill-rule="evenodd"/><path d="M36.94 7.81V1.27c6.29-2.27 12.57 2.8 18.86.55v6.53c-6.29 2.25-12.57-2.8-18.86-.55zm-.68 1c6.74-3 13.48 3 20.22 0V.87c-6.74 3-13.48-3-20.22 0v7.9z" fill="#6b8756" fill-rule="evenodd"/><path d="M44.35 4.38c0-1.55.91-2.62 2-2.37s2 1.69 2 3.23-.91 2.62-2 2.37-2-1.69-2-3.23z" fill="#6b8756" fill-rule="evenodd"/><path d="M52.16 4a1.48 1.48 0 0 1 .4 0 1.18 1.18 0 0 1 .3.13.71.71 0 0 1 .19.16.27.27 0 0 1 .07.16.27.27 0 0 1-.05.15.17.17 0 0 1-.12.08.14.14 0 0 1-.1-.05l-.14-.12a1.08 1.08 0 0 0-.21-.12.84.84 0 0 0-.33-.06v1.3l.32.12a1.15 1.15 0 0 1 .28.15.74.74 0 0 1 .2.24.79.79 0 0 1 .08.37.88.88 0 0 1-.05.39.78.78 0 0 1-.2.26.87.87 0 0 1-.28.16 1.39 1.39 0 0 1-.32.07v.14a.09.09 0 0 1 0 .07.13.13 0 0 1-.09 0 .14.14 0 0 1-.09 0 .09.09 0 0 1 0-.07v-.14h-.26l-.24-.07a.62.62 0 0 1-.18-.11.18.18 0 0 1-.17-.21.28.28 0 0 1 0-.13.13.13 0 0 1 .13-.07h.08l.11.06.21.14h.22V6l-.3-.14a1.06 1.06 0 0 1-.27-.2.92.92 0 0 1-.19-.29 1 1 0 0 1-.07-.41.85.85 0 0 1 .23-.65 1 1 0 0 1 .6-.26v-.22a.09.09 0 0 1 0-.07.14.14 0 0 1 .09 0 .13.13 0 0 1 .09 0 .09.09 0 0 1 0 .07zm.5 2.58a.48.48 0 0 0 0-.21.41.41 0 0 0-.11-.14l-.17-.1-.24-.13v1h.2a.55.55 0 0 0 .16-.09.39.39 0 0 0 .11-.14.44.44 0 0 0 .05-.2zm-1.2-1.68a.67.67 0 0 0 0 .24.58.58 0 0 0 .1.18.67.67 0 0 0 .15.13l.19.1V4.37a.58.58 0 0 0-.35.16.51.51 0 0 0-.09.37z" fill="#f6f6f6"/><path d="M40.69 2.26a1.25 1.25 0 0 1 .4.07 1.13 1.13 0 0 1 .3.15.78.78 0 0 1 .19.19.31.31 0 0 1 .07.17.23.23 0 0 1-.05.16.14.14 0 0 1-.12.07.17.17 0 0 1-.1-.06l-.14-.14A1.08 1.08 0 0 0 41 2.7a.75.75 0 0 0-.33-.07V3.9L41 4a1.11 1.11 0 0 1 .28.18.8.8 0 0 1 .28.64.82.82 0 0 1-.08.37.68.68 0 0 1-.2.24.87.87 0 0 1-.28.17 1.62 1.62 0 0 1-.32.06v.14a.09.09 0 0 1 0 .07.13.13 0 0 1-.09 0 .13.13 0 0 1-.09 0 .09.09 0 0 1 0-.07v-.14h-.26L40 5.61a.54.54 0 0 1-.18-.08.16.16 0 0 1-.07-.12.32.32 0 0 1 0-.14.15.15 0 0 1 .13-.09h.08l.11.05.16.05h.22V4.22l-.3-.12a1 1 0 0 1-.27-.17.79.79 0 0 1-.19-.27 1 1 0 0 1-.07-.4 1 1 0 0 1 .23-.69 1 1 0 0 1 .6-.3V2.1a.09.09 0 0 1 0-.07.14.14 0 0 1 .17 0 .09.09 0 0 1 0 .07zm.5 2.61a.5.5 0 0 0 0-.21.45.45 0 0 0-.19-.16.81.81 0 0 0-.17-.11l-.2-.09v1h.2a.56.56 0 0 0 .17-.11.37.37 0 0 0 .11-.13.42.42 0 0 0 .08-.2zM40 3.2a.68.68 0 0 0 0 .23.51.51 0 0 0 .1.17.59.59 0 0 0 .15.12l.19.09V2.64a.59.59 0 0 0-.35.18.55.55 0 0 0-.09.38z" fill="#f6f6f6"/><ellipse cx="55.52" cy="8.26" rx=".77" ry=".76" fill="#6b8756"/><ellipse cx="55.52" cy="2.2" rx=".77" ry=".76" fill="#6b8756"/><ellipse cx="37.32" cy="1.44" rx=".77" ry=".76" fill="#6b8756"/><ellipse cx="37.32" cy="7.5" rx=".77" ry=".76" fill="#6b8756"/><path d="M48.35 22.64s4-5.85 2.08-8.82l-1.33-.69a3 3 0 0 1-1.54-2.89v-.41l.05-.78c.09-1.24.15-2.1.19-2.35a1.57 1.57 0 0 0-1.12-1.8A1.43 1.43 0 0 0 45 6.19a54.08 54.08 0 0 0-.59 5.76 1.23 1.23 0 0 1-.43.74 9.07 9.07 0 0 0-2.1 5c-.56 3.35.83 4.92.83 4.92v5.61h5.61z" fill="#ffcf9f"/><path fill="#ededed" d="M41.923 27.197l.025-4.12 7.15.045-.026 4.12z"/><path d="M49.07 54.75l.15.11.34.27V26.35h-8v24.39a31.4 31.4 0 0 1 6.78 3.47z" fill="#575756"/><circle cx="42.67" cy="30.65" r=".44" transform="rotate(-71.48 42.672 30.655)" fill="#ededed"/><circle cx="42.67" cy="29.22" r=".44" transform="rotate(-71.48 42.678 29.225)" fill="#ededed"/><circle cx="42.67" cy="27.81" r=".44" transform="rotate(-71.48 42.674 27.81)" fill="#ededed"/><path d="M27.66 35.41L29 34.9a1.17 1.17 0 0 0 .71-1.42 1 1 0 0 0-1.38-.62l-1.33.49a1.09 1.09 0 0 0 .66 2.06z" fill="#deaa78"/><path d="M27.86 37.14l1.06-.47a1 1 0 0 0 .49-1.26.87.87 0 0 0-1.16-.53l-1.06.47a1 1 0 0 0 .67 1.79z" fill="#deaa78"/><path d="M27.43 33.38l2-.85c.58-.22.69-.53.51-1.09l.2-.35a1 1 0 0 0-1.38-.62l-2 .85a1.09 1.09 0 0 0 .67 2.06z" fill="#e6b07c"/><path d="M28.29 31.05c.21 0 .83-.09.83-.09a1.11 1.11 0 0 0 1-1.19c-.05-.59.82-1.15.21-1.08l-2.25.23c-1.65.26-1.34 2.36.21 2.13z" fill="#f5c08c"/><path fill="#f5c08c" d="M33.91 33.08l-2.15-3.71-.39 3.26 2.54.45z"/><path d="M23.42 23.49c5-2.22 10 2.22 15 0v5.85c-5 2.22-10-2.22-15 0z" fill="#93ba77" fill-rule="evenodd"/><path d="M23.92 28.63v-4.84c4.66-1.67 9.31 2.07 14 .41V29c-4.66 1.67-9.31-2.07-14-.4zm-.5.71c5-2.22 10 2.22 15 0v-5.85c-5 2.22-10-2.22-15 0v5.85z" fill="#6b8756" fill-rule="evenodd"/><path d="M29.41 26.09c0-1.15.67-1.94 1.5-1.75a2.41 2.41 0 0 1 1.5 2.39c0 1.15-.67 1.94-1.5 1.75a2.41 2.41 0 0 1-1.5-2.39z" fill="#6b8756" fill-rule="evenodd"/><path d="M35.2 25.8a1.14 1.14 0 0 1 .3 0 .89.89 0 0 1 .23.09.55.55 0 0 1 .14.12.2.2 0 0 1 0 .12.2.2 0 0 1 0 .11.12.12 0 0 1-.09.06.11.11 0 0 1-.08 0l-.1-.09-.16-.09a.61.61 0 0 0-.25 0V27l.23.09a.84.84 0 0 1 .21.11.56.56 0 0 1 .15.18.58.58 0 0 1 .06.28.66.66 0 0 1-.06.28.57.57 0 0 1-.15.2.63.63 0 0 1-.21.12 1 1 0 0 1-.24 0v.11a.07.07 0 0 1 0 .05h-.12a.07.07 0 0 1 0-.05v-.1h-.19l-.18-.05a.46.46 0 0 1-.13-.08.14.14 0 0 1-.05-.1.21.21 0 0 1 0-.1.1.1 0 0 1 .09-.05h.43v-.8l-.22-.1a.82.82 0 0 1-.2-.15.69.69 0 0 1-.14-.22.76.76 0 0 1-.05-.31.63.63 0 0 1 .17-.49.76.76 0 0 1 .45-.19v-.13h.12a.07.07 0 0 1 0 .05zm.37 1.91a.35.35 0 0 0 0-.15.3.3 0 0 0-.08-.1l-.12-.08-.15-.06v.74h.15l.12-.07a.3.3 0 0 0 .08-.1.32.32 0 0 0 0-.18zm-.89-1.24a.48.48 0 0 0 0 .17.44.44 0 0 0 .08.13.46.46 0 0 0 .11.09l.14.07v-.86a.43.43 0 0 0-.26.12.38.38 0 0 0-.07.28z" fill="#f6f6f6"/><path d="M26.7 24.52a.91.91 0 0 1 .3 0 .87.87 0 0 1 .23.11.62.62 0 0 1 .14.14.23.23 0 0 1 0 .13.17.17 0 0 1 0 .1.1.1 0 0 1-.09 0 .12.12 0 0 1-.08 0l-.1-.1-.16-.1a.57.57 0 0 0-.25-.05v.93l.23.09a.86.86 0 0 1 .21.13.65.65 0 0 1 .15.19.63.63 0 0 1 .06.28.59.59 0 0 1-.06.28.5.5 0 0 1-.15.18.65.65 0 0 1-.21.1h-.24v.11a.07.07 0 0 1 0 .05h-.12a.06.06 0 0 1 0-.05V27h-.37l-.19-.08a.12.12 0 0 1-.05-.09.23.23 0 0 1 0-.1.11.11 0 0 1 .09-.07h.42V26l-.22-.09a.76.76 0 0 1-.2-.13.57.57 0 0 1-.14-.2.84.84 0 0 1 .12-.81.75.75 0 0 1 .45-.22v-.15a.06.06 0 0 1 0-.05h.12a.07.07 0 0 1 0 .05zm.37 1.93a.36.36 0 0 0 0-.16.32.32 0 0 0-.08-.11l-.12-.08-.18-.1v.74h.15l.12-.06a.26.26 0 0 0 .08-.1.31.31 0 0 0 .03-.13zm-.89-1.23a.46.46 0 0 0 0 .17.38.38 0 0 0 .08.12.44.44 0 0 0 .11.09l.14.07v-.87a.44.44 0 0 0-.26.13.41.41 0 0 0-.07.28z" fill="#f6f6f6"/><ellipse cx="37.69" cy="28.96" rx=".57" ry=".57" fill="#6b8756"/><ellipse cx="37.69" cy="24.48" rx=".57" ry=".57" fill="#6b8756"/><ellipse cx="24.2" cy="23.91" rx=".57" ry=".57" fill="#6b8756"/><ellipse cx="24.2" cy="28.4" rx=".57" ry=".57" fill="#6b8756"/><path d="M32.37 39.61s3-4.34 1.54-6.54l-1-.51a2.22 2.22 0 0 1-1.14-2.14v-.88c.06-.92.11-1.56.14-1.74a1.16 1.16 0 0 0-.83-1.33 1.06 1.06 0 0 0-1.22 1 40.2 40.2 0 0 0-.44 4.26.91.91 0 0 1-.32.55A6.73 6.73 0 0 0 27.61 36a4.5 4.5 0 0 0 .62 3.64v4.15h4.15z" fill="#ffcf9f"/><path fill="#ededed" d="M27.615 42.998l.018-3.05 5.29.032-.018 3.05z"/><path d="M32.7 49.2l.55.13v-7h-6v7.08l1.1-.26a13.08 13.08 0 0 1 4.35.05z" fill="#575756"/><circle cx="28.17" cy="45.55" r=".33" transform="rotate(-71.43 28.172 45.552)" fill="#ededed"/><circle cx="28.17" cy="44.49" r=".33" transform="rotate(-71.46 28.168 44.49)" fill="#ededed"/><circle cx="28.17" cy="43.44" r=".33" transform="rotate(-71.46 28.167 43.435)" fill="#ededed"/><path d="M44.92 74.43c-.17-1.73-.4-3.42-.7-5a126.86 126.86 0 0 1-13.22.7v4.31z" fill="#07c1d4"/><path d="M31 58.55v10.6a128.2 128.2 0 0 0 13-.7 40.62 40.62 0 0 0-3.63-10.75 55 55 0 0 1-9.37.85z" fill="#07c1d4"/><path d="M35.34 50.32a17.93 17.93 0 0 1 5.49 6.31 45.14 45.14 0 0 0 4.48-1.09 23.19 23.19 0 0 0-9.97-5.22z" fill="#07c1d4"/><path d="M38.73 50.37a25.07 25.07 0 0 1 7.66 4.83c.55-.18 1.09-.38 1.61-.58a31 31 0 0 0-9.27-4.25z" fill="#07c1d4"/><path d="M31 49.79v7.79a54.9 54.9 0 0 0 8.85-.78c-2.38-4.19-5.46-6.8-8.85-7.01z" fill="#07c1d4"/><path d="M16.11 68.36a42 42 0 0 1 3.69-10.84 44.92 44.92 0 0 1-4.8-1.24 30.49 30.49 0 0 0-7.21 10.8c2.64.52 5.42.92 8.32 1.28z" fill="#07c1d4"/><path d="M30.07 69.16V58.55a55 55 0 0 1-9.34-.86 40.62 40.62 0 0 0-3.67 10.76 128.2 128.2 0 0 0 13.01.71z" fill="#07c1d4"/><path d="M25.76 50.32a23.18 23.18 0 0 0-10 5.22 45 45 0 0 0 4.48 1.09 17.92 17.92 0 0 1 5.52-6.31z" fill="#07c1d4"/><path d="M21.22 56.81a54.9 54.9 0 0 0 8.85.78v-7.8c-3.36.21-6.43 2.82-8.85 7.02z" fill="#07c1d4"/><path d="M30.07 74.43v-4.3a126.85 126.85 0 0 1-13.19-.73c-.3 1.62-.53 3.3-.7 5z" fill="#07c1d4"/><path d="M48.9 55.27q-.85.35-1.75.66a31.65 31.65 0 0 1 7.14 11q2-.41 3.87-.88a31.27 31.27 0 0 0-9.26-10.78z" fill="#07c1d4"/><path d="M55.35 74.43A35.17 35.17 0 0 0 53.66 68c-2.7.54-5.54 1-8.49 1.33.31 1.65.55 3.37.72 5.14z" fill="#07c1d4"/><path d="M14 55.93q-.9-.31-1.75-.66A31.26 31.26 0 0 0 2.95 66q1.88.47 3.87.88A31.68 31.68 0 0 1 14 55.93z" fill="#07c1d4"/><path d="M46.11 56.28a44.92 44.92 0 0 1-4.81 1.24A42 42 0 0 1 45 68.36c2.9-.33 5.68-.76 8.34-1.27a30.47 30.47 0 0 0-7.23-10.81z" fill="#07c1d4"/><path d="M14.72 55.21a25.07 25.07 0 0 1 7.66-4.83 31 31 0 0 0-9.27 4.25c.52.2 1.05.37 1.61.58z" fill="#07c1d4"/><path d="M61.1 74.43a30.84 30.84 0 0 0-2.52-7.58q-1.92.49-4 .92a36.14 36.14 0 0 1 1.71 6.66z" fill="#07c1d4"/><path d="M4.77 74.43a36.07 36.07 0 0 1 1.71-6.66q-2-.43-4-.92A30.84 30.84 0 0 0 0 74.43z" fill="#07c1d4"/><path d="M15.21 74.43c.17-1.77.41-3.49.72-5.14-3-.34-5.79-.79-8.49-1.33a35.17 35.17 0 0 0-1.69 6.47z" fill="#07c1d4"/></g></g></svg>