<svg xmlns="http://www.w3.org/2000/svg" viewBox="-0.026009082794189453 -3 105.76600646972656 117.27000427246094"><title>Asset 13</title><g data-name="Layer 2"><g data-name="Layer 4" style="isolation:isolate"><path fill="#e3f2d1" d="M6.43 21.8l4.33 52.18 14.44 8.33V32.63L6.43 21.8z"/><path fill="#afe4ed" d="M11.29 73.64L7.07 22.8l17.57 10.15v48.4l-13.35-7.71z"/><path fill="#cfdebf" d="M25.2 82.31l14.43-8.33 4.33-52.18L25.2 32.63v49.68z"/><path fill="#a0cfd9" d="M25.75 32.95L43.32 22.8 39.1 73.64l-13.35 7.71v-48.4z"/><path fill="#e3f2d1" d="M34.1 37.77l4.33 52.19 14.44 8.33V48.61L34.1 37.77z"/><path fill="#afe4ed" d="M38.96 89.62l-4.22-50.84 17.57 10.15v48.4l-13.35-7.71z"/><path fill="#cfdebf" d="M52.87 98.29l14.44-8.33 4.33-52.19-18.77 10.84v49.68z"/><path fill="#a0cfd9" d="M53.42 48.93L71 38.78l-4.22 50.84-13.36 7.71v-48.4z"/><path fill="#e3f2d1" d="M61.78 53.75l4.33 52.18 14.43 8.34V64.59L61.78 53.75z"/><path fill="#afe4ed" d="M66.64 105.6l-4.22-50.84 17.57 10.15v48.4l-13.35-7.71z"/><path fill="#cfdebf" d="M80.54 114.27l14.44-8.34 4.33-52.18-18.77 10.84v49.68z"/><path fill="#a0cfd9" d="M81.1 64.91l17.57-10.15-4.22 50.84-13.35 7.71v-48.4z"/><path fill="#efffdc" d="M61.78 53.75l18.76 10.84 18.77-10.84-18.77-10.84-18.76 10.84z"/><path fill="#efffdc" d="M34.1 37.77l18.77 10.84 18.77-10.84-18.77-10.83L34.1 37.77z"/><path fill="#efffdc" d="M6.43 21.8L25.2 32.63 43.96 21.8 25.2 10.96 6.43 21.8z"/><path d="M105.74 47L81.33 61 23.47 27.65C7.76 18.58.68 11 0 6v-.13A4.86 4.86 0 0 1 0 5c.5-8 20.34-7.34 47.87 8.55z" fill="#ffffe0"/><path d="M102.41 47l-2.26 1.31-18.82 10.82-57-32.93-2.2-1.29c-8.85-5.3-13.88-9.58-16.72-12.76S1.81 6.72 1.7 5.81a1 1 0 0 0 0-.15 3.43 3.43 0 0 1 0-.53C1.87 2 7 1.66 9.2 1.66h.73C19.17 1.92 33 6.87 47.05 15z" fill="#eef5c9"/><path d="M105.74 47a4.54 4.54 0 0 1-1.11 2.53 20.4 20.4 0 0 1-5.32 4.27l-16.94 9.73L80 64.9a3 3 0 0 0 .91-1.35 6.89 6.89 0 0 0 .4-2.5z" fill="#e8e8bc"/><path d="M81.33 61a6.89 6.89 0 0 1-.4 2.5 3 3 0 0 1-.93 1.4S19 29.06 13.76 26a31.79 31.79 0 0 1-8.46-7.51A22.82 22.82 0 0 1 0 6c.68 5 7.76 12.58 23.47 21.65z" fill="#7d8573"/><path d="M81.33 61a6.89 6.89 0 0 1-.4 2.5C62.85 52.93 15.06 24.84 10.09 22a32 32 0 0 1-4.79-3.51A22.82 22.82 0 0 1 0 6c.68 5 7.76 12.58 23.47 21.65z" fill="#fafad8"/><path d="M104.63 49.48a20.4 20.4 0 0 1-5.32 4.27l-16.94 9.78L80 64.9a3 3 0 0 0 .91-1.35z" fill="#606658"/><path d="M100.15 48.26L81.33 59.13l-57-32.93-2.2-1.29c-2.48-1.49-4.67-2.89-6.59-4.23l-.63-.44c-1-.69-1.89-1.35-2.72-2l-.57-.44a47.33 47.33 0 0 1-6.21-5.67 6.88 6.88 0 0 1-.62-2v-.14a2.88 2.88 0 0 1 0-.53C4.9 6.89 8.56 6.23 11 6.08h1.24c9.24 0 23.39 5 37.85 13.33z" fill="#b4eff2"/><path style="mix-blend-mode:multiply" fill="#d2faf8" d="M29.55 24.91h8.01l9.99-5.77-9.57-5.52-8.43 11.29z"/><path fill="#fafad8" d="M29.55 24.91l-9.48-5.47V13.8l9.48 5.48v5.63z"/><path fill="#e8e8bc" d="M29.55 24.91l9.48-5.47V13.8l-9.48 5.48v5.63z"/><path fill="#ffffe0" d="M20.07 13.8l9.48 5.48 9.48-5.48-9.48-5.47-9.48 5.47z"/><path style="mix-blend-mode:multiply" fill="#d2faf8" d="M71.23 48.99h8.02l9.99-5.77-9.57-5.52-8.44 11.29z"/><path fill="#fafad8" d="M71.23 48.99l-9.48-5.48v-5.63l9.48 5.47v5.64z"/><path fill="#e8e8bc" d="M71.23 48.99l9.49-5.48v-5.63l-9.49 5.47v5.64z"/><path fill="#ffffe0" d="M61.75 37.88l9.48 5.47 9.49-5.47-9.49-5.48-9.48 5.48z"/><path d="M4.74 9.52a2.88 2.88 0 0 0 0 .53v.14a6.88 6.88 0 0 0 .62 2c-3-3.29-3.57-5.43-3.69-6.34a1 1 0 0 0 0-.15 3.43 3.43 0 0 1 0-.53C1.87 2 7 1.66 9.2 1.66h.73A5.14 5.14 0 0 0 11 6.08c-2.44.15-6.1.81-6.26 3.44z" style="mix-blend-mode:multiply" fill="#f2f5e6"/><path d="M22.1 24.91c-2.48-1.49-4.67-2.89-6.59-4.23l-.63-.44c-1-.69-1.89-1.35-2.72-2l-.57-.44a47.33 47.33 0 0 1-6.21-5.67 6.88 6.88 0 0 1-.62-2v-.14a2.88 2.88 0 0 1 0-.53C4.9 6.89 8.56 6.23 11 6.08l.09.11c-1.65.46-3.07 1.33-3.18 2.95a3.44 3.44 0 0 0 0 .53 1 1 0 0 1 0 .15c.12.91.73 3 3.69 6.34a57.55 57.55 0 0 0 10.5 8.75z" style="mix-blend-mode:multiply" fill="#d2faf8"/></g></g></svg>