<svg xmlns="http://www.w3.org/2000/svg" viewBox="-0.15000009536743164 0 15.850000381469727 15.529998779296875"><title>Depositphotos_84850228_12</title><g data-name="Layer 2"><g data-name="Layer 1"><g data-name="Layer 2"><g data-name="Layer 1-2"><path fill="#41a04e" d="M14.71 9.63l.6-1.1-4.23.37.11 1.32H5.46l.11-1.32-4.23-.37.6 1.1-.78.96 3.15.27v1.81h8.03v-1.81l3.15-.27-.78-.96z"/><path d="M14.81 9.62l.64-1.19-4.45.39.11 1.32h-.93a10.61 10.61 0 0 1 1.58-3.26c-.31.88 0 1.61.7 1.61.53 0 .69-.74.69-.74s.7.29 1-.14C14.6 6.94 14 6.2 12.85 6c1.15 0 1.81-.71 1.41-1.41-.26-.46-1-.23-1-.22s-.1-.75-.62-.8c-.81-.06-1.15.84-.71 1.89-.51-.79-1.23-1.09-1.7-.78.26-.56-.47-1.15-.47-1.15s.85-.58.53-1.19a1.09 1.09 0 0 0-1-.59 2.7 2.7 0 0 0-2 1.3c.85-1.5.46-3-.67-3C6 0 5.8 1 5.8 1A1.83 1.83 0 0 0 5 .82a.67.67 0 0 0-.61.3c-.6 1 .42 2.14 2.13 2.29-1.72 0-2.83 1.1-2.31 2.11a.71.71 0 0 0 .68.36 1.86 1.86 0 0 0 .6-.11s.08 1 .77 1.05c.87 0 1.35-.9 1.17-2a11.61 11.61 0 0 1 1.21 5.37H7a4.61 4.61 0 0 0-4.26-4.3c.73-.14 1.12-.64.83-1.14a.56.56 0 0 0-.8-.18s-.09-.57-.52-.64c-.65 0-.93.68-.57 1.54-.5-.78-1.26-1-1.59-.4-.21.37.24.78.25.78s-.49.38-.3.76c.28.59 1 .46 1.61-.27-.42.83-.2 1.58.45 1.57.43 0 .56-.6.56-.6s.57.24.81-.12 0-.92-.58-1.2a4.34 4.34 0 0 1 3.83 4.1H5.55l.11-1.32-4.46-.34.64 1.19-.83 1 3.22.28v1.81h1.82A9.19 9.19 0 0 1 5 14.39l.24.2a9.54 9.54 0 0 0 1.16-1.85h1.81a7.72 7.72 0 0 1-1.43 2.37l.45.42a8 8 0 0 0 1.49-2.78H10a12.17 12.17 0 0 0 .81 2.47l.29-.14a13.5 13.5 0 0 1-.83-2.34h2.21v-1.8l3.22-.28zm-7.3-6.54A2.44 2.44 0 0 1 9.29 2a.87.87 0 0 1 .81.47c.22.41-.43.88-.45.9a.23.23 0 0 0-.1.17h-.21L9.85 3l-.58.5h-.43l1-1-1.07.94h-.42l1.27-1.28L8.19 3.4h-.36L9.24 2 7.66 3.36h-.28l.83-.84zM6 1s.14-.8.59-.8a.86.86 0 0 1 .74.47 2.39 2.39 0 0 1-.2 2.14l.23-.89L6.93 3l-.14-.24.56-2-.64 1.9-.18-.31L7 .53l-.55 1.69-.21-.36.39-1.37-.43 1.3-.2-.38.2-.73-.2.68-.11-.19A.22.22 0 0 0 6 1zm.5 2.14a2.37 2.37 0 0 1-1.87-1 .86.86 0 0 1 0-.88A.43.43 0 0 1 5 1a1.6 1.6 0 0 1 .59.14h.19l.09.19-.7-.19.83.29.18.39-1.37-.37 1.35.45.18.38-1.72-.48 1.79.61.15.33-1.9-.53 2 .68.12.25-1.18-.29zm-1 2.39h-.04a1.66 1.66 0 0 1-.52.1c-.36 0-.45-.17-.48-.23a.86.86 0 0 1 0-.88 2.38 2.38 0 0 1 2-.9l-.88.25 1.17-.2-.14.24-2 .52 1.94-.37-.18.31-1.83.47L6.3 4.5l-.21.36-1.38.35L6 5l-.22.38-.78.18.71-.14-.11.19a.23.23 0 0 0-.06-.08zm1.56.63a.86.86 0 0 1-.75.42c-.47 0-.55-.82-.55-.84a.22.22 0 0 0-.1-.17l.12-.18.18.7-.15-.75.26-.34.33 1.31-.28-1.4.24-.34.45 1.73-.37-1.84.21-.3.49 1.91L6.75 4l.16-.23.32 1.13-.17-.9a2.4 2.4 0 0 1 .04 2.16zm.39-2.35l.65.64-.76-.91h.28L9.12 5 7.83 3.54h.36l1.32 1.35-1.18-1.35h.42l1 1-.9-1h.43l.53.54-.47-.54h.22a.23.23 0 0 0 .08.18s.63.54.38.93a.86.86 0 0 1-.75.41 2.35 2.35 0 0 1-1.78-1.25zm.18.62a2.27 2.27 0 0 0 1.59.85A1.09 1.09 0 0 0 10 5c-.17.44.33.89.34.89s-.6.46-.38.94c.3.63 1.06.6 1.71 0A9.59 9.59 0 0 0 10 10.14h-.89a12.33 12.33 0 0 0-1.45-5.71zm-3.4 6.28l-2.78-.24.55-.71a.22.22 0 0 0 0-.25l-.44-.82L5.41 9l-1.18 1.14zm8 1.81H4.45v-2.15h7.74zm-1-3.52l3.82-.33-.44.82a.23.23 0 0 0 0 .25l.57.7-2.78.24v-.58z" fill="#fff"/></g></g></g></g></svg>