<svg xmlns="http://www.w3.org/2000/svg" viewBox="-0.003639698028564453 -0.2899932861328125 39.94728088378906 49.190032958984375"><title>Depositphotos_84592710_04</title><g data-name="Layer 2"><g data-name="Layer 1"><path d="M26.18 42.8a6.16 6.16 0 0 1-12.3 0c0-3.4 6.2-8 6.2-8s6.1 4.5 6.1 8z" fill="#a85225"/><path fill="#a85225" d="M37.48 13.9l-7.91 4.3-3.59-2.2 6.79-6.8 4.71 4.7z"/><path d="M38.67 9.2a4.17 4.17 0 0 1 0 6c-1.6 1.6-9.1 3.1-9.1 3.1s1.5-7.5 3.1-9.1a4.17 4.17 0 0 1 6 0z" fill="#a85225"/><path d="M35.87 12a2.66 2.66 0 0 1 0 3.7c-1 1-5.6 1.9-5.6 1.9s.9-4.6 1.9-5.6a2.66 2.66 0 0 1 3.7 0z" fill="#fdc48e"/><path fill="#a85225" d="M2.58 13.9l7.8 4.3 3.69-2.2-6.79-6.8-4.7 4.7z"/><path d="M1.28 9.2a4.17 4.17 0 0 0 0 6c1.6 1.6 9.1 3.1 9.1 3.1s-1.5-7.5-3.1-9.1a4.17 4.17 0 0 0-6 0z" fill="#a85225"/><path d="M4.08 12a2.66 2.66 0 0 0 0 3.7c1 1 5.6 1.9 5.6 1.9S8.77 13 7.77 12a2.66 2.66 0 0 0-3.7 0z" fill="#fdc48e"/><circle cx="19.97" cy="23.1" r="10.7" fill="#fdc48e"/><path fill="#fdc48e" d="M14.58 27.6h10.7v16.7h-10.7z"/><path fill="#f99e4f" d="M14.97 3.7h2.2v12.1h-2.2z"/><path fill="#f99e4f" d="M22.87 3.7h2.2v12.1h-2.2z"/><path fill="#a85225" d="M17.37 27h5.1v10.5h-5.1z"/><path d="M26.18 41.4a6.16 6.16 0 1 1-12.3.5v-.5c0-3.4 6.2-8 6.2-8s6.1 4.6 6.1 8z" fill="#f99e4f"/><path d="M20 24.4a10.75 10.75 0 0 1 7.6-9 10.62 10.62 0 0 0-15.1 0 10.79 10.79 0 0 1 7.5 9z" fill="#f99e4f"/><circle cx="23.37" cy="40.3" r="1.3" fill="#a85225"/><circle cx="16.37" cy="40.3" r="1.3" fill="#a85225"/><circle cx="19.97" cy="27" r="2.6" fill="#a85225"/><path d="M22.68 25a12.09 12.09 0 0 0 2.7 7.5 10.85 10.85 0 0 0 2.2-17 11.57 11.57 0 0 0-4.9 9.5z" fill="#fff"/><path d="M17.28 24.9a12.09 12.09 0 0 1-2.7 7.5 10.85 10.85 0 0 1-2.2-17 11.57 11.57 0 0 1 4.9 9.5z" fill="#fff"/><circle cx="27.08" cy="25.1" r=".9" fill="#a85225"/><circle cx="12.77" cy="25.1" r=".9" fill="#a85225"/><circle cx="16.08" cy="2.7" r="2.7" fill="#f99e4f"/><circle cx="23.97" cy="2.7" r="2.7" fill="#f99e4f"/><path d="M20 12.3a9 9 0 0 0-2.8.4V5.1a2.67 2.67 0 0 0 1.3-3.5A2.67 2.67 0 0 0 15 .3a2.67 2.67 0 0 0-1.3 3.5A2.74 2.74 0 0 0 15 5.1v8.5a13.73 13.73 0 0 0-2 1.3L7.27 9.2a4.17 4.17 0 0 0-6 0 4.17 4.17 0 0 0 0 6c1.6 1.6 8.5 3 9 3.1a10.7 10.7 0 0 0 4.3 14.1V39a5.27 5.27 0 0 0-.8 2.4v1.3A6.23 6.23 0 0 0 20 48.9z" style="isolation:isolate" fill="#fff" opacity=".2"/></g></g></svg>