<svg xmlns="http://www.w3.org/2000/svg" viewBox="-0.08301877975463867 -0.08507919311523438 67.75334167480469 67.89508056640625"><title>Depositphotos_103092084_332_ic</title><g data-name="Layer 2"><g data-name="Layer 1" fill-rule="evenodd"><path d="M46.39 22.43v40.88a3 3 0 0 0 3 3h5.72a3 3 0 0 0 2.12-.87 3 3 0 0 0 .87-2.12V22.43a.76.76 0 0 1 .75-.75h6.57L52.24 2.08 39.05 21.67h6.59a.75.75 0 0 1 .75.76z" fill="#f1585c"/><path d="M32.5 41.85l-8.3-8.3a10.17 10.17 0 0 1-2.2-3.31 10.15 10.15 0 0 1-.76-3.93v-3.88a.75.75 0 0 1 .75-.75h6.57L15.34 2.08 2.15 21.67h6.6a.75.75 0 0 1 .75.75v3.34a22.47 22.47 0 0 0 6.82 16.47l8.3 8.3a9.95 9.95 0 0 1 3 7.24v5.56a3 3 0 0 0 3 3h5.72a3 3 0 0 0 2.12-.88 3 3 0 0 0 .88-2.11v-5a22.45 22.45 0 0 0-6.84-16.49z" fill="#f1585c"/><path d="M52.87.33a.8.8 0 0 0-.2-.21.75.75 0 0 0-1 .2L37.06 22a.76.76 0 0 0-.16.47.75.75 0 0 0 .75.75h7.25v40.09a4.51 4.51 0 0 0 4.5 4.5h5.72a4.47 4.47 0 0 0 3.17-1.32 4.48 4.48 0 0 0 1.32-3.18V23.18h7.23a.73.73 0 0 0 .42-.13.74.74 0 0 0 .2-1zm6 21.34a.75.75 0 0 0-.75.75v40.89a3 3 0 0 1-.88 2.12 3 3 0 0 1-2.11.87h-5.74a3 3 0 0 1-3-3V22.43a.75.75 0 0 0-.75-.75h-6.6l13.2-19.6 13.2 19.6z" fill="#6d6e71"/><path d="M33.57 40.79l-8.3-8.3a8.63 8.63 0 0 1-1.92-2.82 8.68 8.68 0 0 1-.64-3.35v-3.14h7.23a.75.75 0 0 0 .75-.75.74.74 0 0 0-.16-.47L16 .33a.75.75 0 0 0-1-.2.77.77 0 0 0-.21.21L.12 22a.75.75 0 0 0 .21 1 .73.73 0 0 0 .41.13H8v2.59a24 24 0 0 0 7.26 17.53l8.3 8.3a8.38 8.38 0 0 1 2.56 6.17v5.56a4.51 4.51 0 0 0 4.5 4.49h5.72a4.48 4.48 0 0 0 3.18-1.32 4.47 4.47 0 0 0 1.32-3.17v-5a24 24 0 0 0-7.26-17.53zm5.76 22.54a3 3 0 0 1-.88 2.11 3 3 0 0 1-2.12.88h-5.72a3 3 0 0 1-3-3v-5.55a10 10 0 0 0-3-7.24l-8.3-8.3a23.17 23.17 0 0 1-5.11-7.52 23.2 23.2 0 0 1-1.71-8.94v-3.34a.75.75 0 0 0-.75-.75H2.15l13.19-19.6 13.2 19.59H22a.75.75 0 0 0-.75.75v3.89a10.16 10.16 0 0 0 .75 3.94 10.28 10.28 0 0 0 2.24 3.31l8.3 8.3a22.47 22.47 0 0 1 6.82 16.47z" fill="#6d6e71"/></g></g></svg>