<svg xmlns="http://www.w3.org/2000/svg" viewBox="0.019738197326660156 -0.02145099639892578 159.96051025390625 160.02145385742188"><title>Asset 3</title><g data-name="Layer 2"><g data-name="Layer 1"><path d="M152.47 89.57a10.14 10.14 0 0 0 0-19.09A10.15 10.15 0 0 0 147.55 52 10.15 10.15 0 0 0 138 35.5 10.15 10.15 0 0 0 124.52 22 10.15 10.15 0 0 0 108 12.44 10.15 10.15 0 0 0 89.54 7.5a10.15 10.15 0 0 0-19-.16 10.15 10.15 0 0 0-18.36 5 10.15 10.15 0 0 0-16.59 9.56 10.15 10.15 0 0 0-13.52 13.48 10.14 10.14 0 0 0-9.58 16.52 10.15 10.15 0 0 0-5 18.43 10.14 10.14 0 0 0 0 19.09 10.14 10.14 0 0 0 4.91 18.45 10.14 10.14 0 0 0 9.52 16.55 10.15 10.15 0 0 0 13.48 13.52 10.15 10.15 0 0 0 16.52 9.57 10.15 10.15 0 0 0 18.44 5 10.14 10.14 0 0 0 19.09 0 10.14 10.14 0 0 0 18.45-4.92 10.15 10.15 0 0 0 16.55-9.59A10.15 10.15 0 0 0 138 124.54a10.15 10.15 0 0 0 9.52-16.54 10.14 10.14 0 0 0 5-18.44z" fill="#f6c4d7"/><path d="M79.92 160a11 11 0 0 1-9.74-6 10.93 10.93 0 0 1-18.82-5.07 10.93 10.93 0 0 1-16.87-9.77 11.1 11.1 0 0 1-3.38.53 10.85 10.85 0 0 1-7.74-3.21 11 11 0 0 1-2.65-11.12 10.93 10.93 0 0 1-9.72-16.9 10.93 10.93 0 0 1-5-18.84 10.93 10.93 0 0 1 0-19.49 10.93 10.93 0 0 1 5.07-18.83 10.93 10.93 0 0 1 9.78-16.87 11 11 0 0 1 2.68-11.12 10.86 10.86 0 0 1 7.71-3.18 11.08 11.08 0 0 1 3.41.54A10.93 10.93 0 0 1 51.56 11a10.93 10.93 0 0 1 18.75-5.14A10.93 10.93 0 0 1 89.74 6a10.93 10.93 0 0 1 18.83 5 11 11 0 0 1 6-1.77 10.94 10.94 0 0 1 10.9 11.52 11.08 11.08 0 0 1 3.39-.54 10.85 10.85 0 0 1 7.73 3.2 11 11 0 0 1 2.66 11.12A10.93 10.93 0 0 1 149 51.45a10.93 10.93 0 0 1 5 18.83 10.93 10.93 0 0 1 0 19.49 10.93 10.93 0 0 1-5.06 18.83 10.93 10.93 0 0 1-9.18 16.89h-.58a11 11 0 0 1-2.67 11.12 10.86 10.86 0 0 1-7.72 3.19 11.11 11.11 0 0 1-3.4-.54A10.93 10.93 0 0 1 108.5 149a10.93 10.93 0 0 1-18.83 5 11 11 0 0 1-9.75 6zm-9.32-9.22l.52 1.44a9.4 9.4 0 0 0 8.79 6.2 9.4 9.4 0 0 0 8.8-6.18l.52-1.44.87 1.25a9.35 9.35 0 0 0 17-4.54l.13-1.52 1.17 1a9.35 9.35 0 0 0 15.25-8.79l-.27-1.51 1.38.65a9.47 9.47 0 0 0 4 .89 9.29 9.29 0 0 0 6.6-2.73 9.39 9.39 0 0 0 1.86-10.6l-.65-1.38 1.5.27a9.35 9.35 0 0 0 8.81-15.24l-1-1.17 1.52-.13a9.35 9.35 0 0 0 4.56-17l-1.25-.87 1.44-.52a9.35 9.35 0 0 0 0-17.6l-1.44-.52 1.25-.87a9.35 9.35 0 0 0-4.55-17L146 52.7l1-1.17a9.36 9.36 0 0 0-8.8-15.25l-1.5.27.65-1.38a9.39 9.39 0 0 0-1.84-10.6 9.28 9.28 0 0 0-6.61-2.74 9.46 9.46 0 0 0-4 .89l-1.38.65.27-1.5a9.36 9.36 0 0 0-15.3-8.87l-1.17 1-.13-1.52a9.35 9.35 0 0 0-17-4.48l-.87 1.25-.52-1.44a9.36 9.36 0 0 0-17.55-.14L70.72 9l-.86-1.2a9.35 9.35 0 0 0-16.93 4.65L52.8 14l-1.17-1a9.35 9.35 0 0 0-15.26 8.77l.27 1.5-1.38-.65a9.49 9.49 0 0 0-4-.89 9.29 9.29 0 0 0-6.6 2.72A9.39 9.39 0 0 0 22.78 35l.65 1.38-1.5-.27a9.35 9.35 0 0 0-8.83 15.28l1 1.17-1.52.13A9.35 9.35 0 0 0 8 69.68l1.25.88-1.44.52a9.35 9.35 0 0 0 0 17.61l1.44.52-1.26.87a9.35 9.35 0 0 0 4.53 17l1.52.13-1 1.17a9.36 9.36 0 0 0 8.78 15.26l1.5-.27-.65 1.38a9.4 9.4 0 0 0 1.83 10.6 9.29 9.29 0 0 0 6.62 2.74 9.45 9.45 0 0 0 4-.88l1.38-.65-.27 1.5a9.35 9.35 0 0 0 15.24 8.82l1.17-1 .13 1.52a9.35 9.35 0 0 0 17 4.57z" fill="#65452e"/><path d="M140.65 86.84a8.49 8.49 0 0 0 0-16 8.49 8.49 0 0 0-4.13-15.44 8.49 8.49 0 0 0-8-13.84 8.49 8.49 0 0 0-11.3-11.3 8.49 8.49 0 0 0-13.84-8A8.49 8.49 0 0 0 88 18.15 8.49 8.49 0 0 0 72.05 18a8.49 8.49 0 0 0-15.36 4.22 8.49 8.49 0 0 0-13.85 8 8.49 8.49 0 0 0-11.32 11.26 8.49 8.49 0 0 0-8 13.82 8.49 8.49 0 0 0-4.16 15.43 8.49 8.49 0 0 0 0 16 8.49 8.49 0 0 0 4.11 15.44 8.49 8.49 0 0 0 8 13.85 8.49 8.49 0 0 0 11.28 11.31 8.49 8.49 0 0 0 13.83 8 8.49 8.49 0 0 0 15.43 4.15 8.49 8.49 0 0 0 16 0 8.49 8.49 0 0 0 15.44-4.12 8.49 8.49 0 0 0 13.84-8 8.49 8.49 0 0 0 11.31-11.29 8.49 8.49 0 0 0 8-13.83 8.49 8.49 0 0 0 4.14-15.43z" fill="#fef6f8"/><path d="M79.93 146.15a9.58 9.58 0 0 1-8.24-4.75 9.54 9.54 0 0 1-15.92-4.29 9.54 9.54 0 0 1-14.27-8.26 9.68 9.68 0 0 1-2.42.31 9.47 9.47 0 0 1-6.75-2.8 9.58 9.58 0 0 1-2.47-9.18 9.54 9.54 0 0 1-8.22-14.29A9.54 9.54 0 0 1 17.38 87a9.54 9.54 0 0 1 0-16.49 9.54 9.54 0 0 1 4.32-15.95A9.54 9.54 0 0 1 30 40.29a9.58 9.58 0 0 1 2.49-9.18 9.48 9.48 0 0 1 6.73-2.78 9.64 9.64 0 0 1 2.45.32 9.54 9.54 0 0 1 14.29-8.22 9.54 9.54 0 0 1 15.84-4.3 9.54 9.54 0 0 1 16.43.09 9.54 9.54 0 0 1 15.93 4.27 9.54 9.54 0 0 1 14.28 8.25 9.66 9.66 0 0 1 2.43-.31 9.47 9.47 0 0 1 6.75 2.79 9.58 9.58 0 0 1 2.48 9.18 9.54 9.54 0 0 1 8.24 14.28 9.54 9.54 0 0 1 4.26 15.93 9.54 9.54 0 0 1 0 16.49 9.54 9.54 0 0 1-4.29 15.9 9.54 9.54 0 0 1-8.25 14.28 9.58 9.58 0 0 1-2.49 9.18 9.48 9.48 0 0 1-6.74 2.79 9.64 9.64 0 0 1-2.44-.32 9.54 9.54 0 0 1-14.28 8.23 9.54 9.54 0 0 1-15.93 4.25 9.59 9.59 0 0 1-8.25 4.74zm-7.69-9l.69 1.92a7.47 7.47 0 0 0 7 4.93 7.47 7.47 0 0 0 7-4.91l.7-1.92 1.16 1.67a7.44 7.44 0 0 0 13.52-3.61l.18-2 1.56 1.31a7.48 7.48 0 0 0 4.82 1.76 7.43 7.43 0 0 0 7.3-8.75l-.36-2 1.84.87a7.5 7.5 0 0 0 3.18.71 7.38 7.38 0 0 0 5.25-2.17 7.47 7.47 0 0 0 1.48-8.43l-.86-1.85 2 .36a7.44 7.44 0 0 0 7-12.12l-1.31-1.56 2-.17A7.43 7.43 0 0 0 140 87.7l-1.67-1.17 1.92-.69a7.43 7.43 0 0 0 0-14l-1.92-.69 1.73-1.15a7.43 7.43 0 0 0-3.62-13.52l-2-.17 1.31-1.56a7.44 7.44 0 0 0-7-12.12l-2 .36.87-1.84a7.47 7.47 0 0 0-1.47-8.43 7.38 7.38 0 0 0-5.25-2.18 7.53 7.53 0 0 0-3.17.71l-1.85.87.36-2a7.44 7.44 0 0 0-12.12-7l-1.56 1.31-.17-2a7.43 7.43 0 0 0-13.52-3.62l-1.17 1.67-.7-1.97a7.44 7.44 0 0 0-14-.11l-.7 1.84-1.14-1.59a7.44 7.44 0 0 0-13.45 3.69l-.18 2L56 23a7.43 7.43 0 0 0-12.13 7l.35 2-1.84-.87a7.52 7.52 0 0 0-3.19-.71A7.39 7.39 0 0 0 34 32.61 7.47 7.47 0 0 0 32.47 41l.86 1.85-2-.36a7.44 7.44 0 0 0-7 12.11l1.31 1.56-2 .17A7.44 7.44 0 0 0 20 69.84L21.62 71l-1.92.69a7.44 7.44 0 0 0 0 14l1.91.7-1.67 1.16a7.43 7.43 0 0 0 3.6 13.52l2 .18-1.31 1.56a7.44 7.44 0 0 0 7 12.13l2-.35-.87 1.84a7.47 7.47 0 0 0 1.46 8.43 7.38 7.38 0 0 0 5.26 2.18 7.53 7.53 0 0 0 3.17-.7l1.84-.86-.36 2a7.44 7.44 0 0 0 12.11 7l1.56-1.31.17 2a7.43 7.43 0 0 0 13.51 3.64z" fill="#fff"/><path d="M80 137.53c-1.33 0-2.66 0-4-.13l.11-1.58a58.75 58.75 0 0 0 6.24.08l.06 1.58c-.79.04-1.61.05-2.41.05zm8.81-.66l-.24-1.56a56.62 56.62 0 0 0 6.11-1.31l.41 1.53a58.29 58.29 0 0 1-6.28 1.35zm-19.15-.25a58.6 58.6 0 0 1-6.24-1.46l.45-1.52a57 57 0 0 0 6.07 1.43zm31.53-3l-.57-1.48a56.3 56.3 0 0 0 5.68-2.57l.7 1.43a58.22 58.22 0 0 1-5.82 2.59zM57.37 133a58.45 58.45 0 0 1-5.77-2.8l.77-1.38a57.75 57.75 0 0 0 5.63 2.74zm55.18-5.32l-.88-1.32a57.41 57.41 0 0 0 5-3.74l1 1.21a59.67 59.67 0 0 1-5.13 3.86zm-66.38-.88a59.79 59.79 0 0 1-5-4l1-1.19a58.08 58.08 0 0 0 4.89 3.87zm76.2-7.34l-1.14-1.1a57.78 57.78 0 0 0 4.07-4.73l1.25 1a59.36 59.36 0 0 1-4.19 4.84zm-85.79-1.13a59.37 59.37 0 0 1-4.05-5l1.28-.93a58 58 0 0 0 3.94 4.84zm93.61-9l-1.35-.82a57.52 57.52 0 0 0 3-5.5l1.43.67a58.86 58.86 0 0 1-3.1 5.64zM29 108a58.79 58.79 0 0 1-2.88-5.73l1.45-.63a57.38 57.38 0 0 0 2.8 5.57zm106.6-10.28l-1.5-.51a56.72 56.72 0 0 0 1.68-6l1.55.34a58.37 58.37 0 0 1-1.73 6.17zM23.91 96.25A58.43 58.43 0 0 1 22.35 90l1.55-.3a57.15 57.15 0 0 0 1.52 6zm114.45-11l-1.57-.25a57.75 57.75 0 0 0 .34-6.23h1.58a59.29 59.29 0 0 1-.35 6.45zM21.48 83.69c-.13-1.61-.2-3.24-.2-4.87v-1.54h1.58v1.5c0 1.58.06 3.17.19 4.74zM137 75.57a57.72 57.72 0 0 0-.69-6.2l1.56-.26a59.3 59.3 0 0 1 .71 6.37zM23.38 71.1l-1.57-.21a58.7 58.7 0 0 1 1.2-6.3l1.54.38a57.33 57.33 0 0 0-1.17 6.13zM135 63.29a56.89 56.89 0 0 0-2-5.9l1.47-.59a58.37 58.37 0 0 1 2.08 6.07zM26.39 59l-1.48-.55a58.5 58.5 0 0 1 2.55-5.88l1.41.71A57.17 57.17 0 0 0 26.39 59zm103.93-7.27a57.55 57.55 0 0 0-3.26-5.32l1.3-.9a59 59 0 0 1 3.35 5.49zM32 47.87L30.63 47a59 59 0 0 1 3.77-5.19l1.23 1A57.38 57.38 0 0 0 32 47.87zm91.28-6.38a58 58 0 0 0-4.37-4.49l1.09-1.16a59.41 59.41 0 0 1 4.45 4.62zm-83.46-3.3l-1.11-1.12a59.16 59.16 0 0 1 4.8-4.25l1 1.24a57.9 57.9 0 0 0-4.69 4.13zm74.3-5.2a57.43 57.43 0 0 0-5.2-3.45l.8-1.36a58.94 58.94 0 0 1 5.34 3.55zm-64.54-2.54l-.84-1.34A58.81 58.81 0 0 1 54.33 26l.67 1.41a57.11 57.11 0 0 0-5.42 3.04zm53.81-3.77a56.53 56.53 0 0 0-5.82-2.24l.43-1.51a58.36 58.36 0 0 1 6 2.3zM60.78 25l-.53-1.49a58.78 58.78 0 0 1 6.15-1.82l.37 1.54A56.9 56.9 0 0 0 60.78 25zm30.75-2.15a57.25 57.25 0 0 0-6.17-.92l.15-1.58a59.09 59.09 0 0 1 6.34.94zm-18.63-.73l-.19-1.57a59.39 59.39 0 0 1 6.39-.44v1.58a58 58 0 0 0-6.2.43z" fill="#fff"/><path d="M108.18 92.88c-2.86 9.22-5.49 18.66-8.54 27.68-11.07 3.51-28.51 3.9-39.75.29-2.79-9.09-5.17-18.58-8.25-27.38 2-.49 4.09.66 6.18 1.18 14.9 3.71 35.78 2.94 50.36-1.77z" fill="#f3c992" fill-rule="evenodd"/><path d="M61.65 119.38c-1.68-7.15-3.49-15.75-6.48-20.61 1.42 7.61 3.23 14.84 6.48 20.61z" fill="#dfa353" fill-rule="evenodd"/><path d="M98.17 119.09c2.42-6 5.21-13.24 5.3-20.61-2.06 6.38-4.47 13.97-5.3 20.61z" fill="#dfa353" fill-rule="evenodd"/><path d="M94 120.26c2.08-5.87 4.54-12.93 4.42-20-1.83 6.06-3.93 13.48-4.42 20z" fill="#dfa353" fill-rule="evenodd"/><path d="M66.36 120.56c-1.56-6.89-2.85-14-5.3-20 .45 7.97 2.29 14.57 5.3 20z" fill="#dfa353" fill-rule="evenodd"/><path d="M70.49 121.44c-.8-7.15-1.53-14.37-3.83-20 .25 7.68 1.34 14.49 3.83 20z" fill="#dfa353" fill-rule="evenodd"/><path d="M90.22 121.15a81 81 0 0 0 3.24-19.44c-.06-.23-.25-.34-.59-.29-.99 6.27-2.96 13.14-2.65 19.73z" fill="#dfa353" fill-rule="evenodd"/><path d="M86.39 121.74c1.3-5.67 2.75-12.76 1.77-19.73-.96 5.99-2.32 13.19-1.77 19.73z" fill="#dfa353" fill-rule="evenodd"/><path d="M74.61 122c-.4-7.06-.52-14.4-2.65-19.73-.07 7.57.55 14.4 2.65 19.73z" fill="#dfa353" fill-rule="evenodd"/><path d="M78.73 122c.85-5.81 1-14.09-.88-18.85a72.28 72.28 0 0 0 .88 18.85z" fill="#dfa353" fill-rule="evenodd"/><path d="M83.15 121.74c-.1-5.91 1.56-13.14 0-18.55-.7 5.28-1.79 13.54 0 18.55z" fill="#dfa353" fill-rule="evenodd"/><path d="M103.47 98.47c-.09 7.37-2.88 14.59-5.3 20.61.83-6.63 3.24-14.22 5.3-20.61z" fill="#c98c3b" fill-rule="evenodd"/><path d="M98.46 100.24c.13 7.09-2.34 14.15-4.42 20 .45-6.5 2.55-13.92 4.42-20z" fill="#c98c3b" fill-rule="evenodd"/><path d="M61.06 100.54c2.45 6 3.74 13.14 5.3 20-3.01-5.41-4.85-12.01-5.3-20z" fill="#c98c3b" fill-rule="evenodd"/><path d="M66.66 101.42c2.3 5.65 3 12.87 3.83 20-2.49-5.49-3.58-12.3-3.83-20z" fill="#c98c3b" fill-rule="evenodd"/><path d="M92.87 101.42c.34 0 .52.06.59.29a81 81 0 0 1-3.24 19.44c-.31-6.59 1.66-13.46 2.65-19.73z" fill="#c98c3b" fill-rule="evenodd"/><path d="M88.15 102c1 7-.47 14.06-1.77 19.73-.54-6.53.82-13.73 1.77-19.73z" fill="#c98c3b" fill-rule="evenodd"/><path d="M72 102.3c2.13 5.32 2.25 12.67 2.65 19.73-2.14-5.36-2.76-12.19-2.65-19.73z" fill="#c98c3b" fill-rule="evenodd"/><path d="M77.85 103.18c1.92 4.76 1.74 13 .88 18.85a72.28 72.28 0 0 1-.88-18.85z" fill="#c98c3b" fill-rule="evenodd"/><path d="M83.15 103.18c1.56 5.42-.1 12.64 0 18.55-1.79-5-.7-13.26 0-18.55z" fill="#c98c3b" fill-rule="evenodd"/><path d="M55.18 98.77c3 4.86 4.8 13.46 6.48 20.61-3.26-5.77-5.07-13-6.48-20.61z" fill="#c98c3b" fill-rule="evenodd"/><path d="M52 90.32s-2.89 2.74 4.21 4.25 15.52 3.6 26.8 2.84 22.66-2.89 24.71-4.21 2.49-8.08 2.28-9.2c-.8-5.19-2.66-6.72-5.63-7.33-2.57-.53 3.5-4.82-2.78-10.72 0 0 1.39-2.87-1.23-7.23-2.1-3.49-3-3.42-5.84-4 0 0 1.71-1.25-.15-3-.85-.81-16.82-12.55-32.19 6.07 0 0-6.16 2.44-6 7.39s-.06 4.22-.06 4.22a18.94 18.94 0 0 0-4.86 7.36c-1.39 4.41-3.57 7.95.74 13.56z" fill="#60361b" fill-rule="evenodd"/><path d="M95 55.39c-.18 12.24-24.42.1-28 10.31 6.28-1.83 15.57.49 22.08 1.18 3.61.38 9.13.78 10-2.06s-1-4.82-2.94-5.59c4.11-1.12 6 6.42 2.94 8.54-.72.49-3.09.58-3.83.59-4.88.07-9.92-.84-15.61-.59-12.31.54-22.88 3.82-27.68 10 .3-5.4 3.63-7.76 7.36-9.72.84-13.42 20.48-7.16 30.92-8.54 1.96-.25 4.38-1.92 4.76-4.12z" fill="#facfd5" fill-rule="evenodd"/><path d="M49.32 82c2.49-7.17 12.11-9.62 21.5-10.16 8.81-.5 18.7 2.09 26.21.88a7.16 7.16 0 0 0 4.58-3.23c.94-2 .76-3.1-.16-3.54 4.49 2.09 2.47 11.3-.59 14.13-8.67 8-31.94-1.7-33.57 11.78-3.85 2-8.82.4-9.13-3.24-.26-3.08 2.71-5.87 5.3-7.07 11-5.08 42.22 3.65 39.46-13.84-.82 9-13.1 7.17-24.15 7.66-9.33.41-19.73 1.82-23.85 7.07-2 2.54-3 8.93 2.36 9.13-4.51 1-7.35-2.07-8.34-5.59-.45-.98-.04-2.98.38-3.98z" fill="#facfd5" fill-rule="evenodd"/><path d="M104.35 77.24c8.19 1.82 5.53 11.79.29 14.43-11 5.54-28.41-7.67-35.92 2.33 2-4.56 5.46-7.23 12.66-7.36 8.89-.17 21 3.59 23.26-3.83.67-2.15-.3-3.81-.29-5.57z" fill="#facfd5" fill-rule="evenodd"/><path d="M89.63 46c-1.25-3.91-5.66-6-10-4.85a7.62 7.62 0 0 1 6.37 5.1c1.3 4-1.26 8.47-5.72 9.9l-.44.12a9.11 9.11 0 0 0 4.08-.36c4.44-1.42 7-5.85 5.71-9.91z" fill="#8f1941" fill-rule="evenodd"/><path d="M86 46.25a7.62 7.62 0 0 0-6.33-5.08l-.44.12c-4.45 1.43-7 5.87-5.72 9.91a7.61 7.61 0 0 0 6.33 5.08l.44-.12c4.45-1.43 7-5.87 5.72-9.91z" fill="#bc215f" fill-rule="evenodd"/><path d="M81.17 43.14a3.17 3.17 0 0 0 3.06.78c.52-.1.48-.94-.05-.84a2.45 2.45 0 0 1-2.46-.58c-.37-.39-.92.25-.55.64z" fill="#8f1941"/><path d="M83.58 42.33a6.56 6.56 0 0 1 .86-4.71 24.73 24.73 0 0 1 1.56-2c.52-.65 1-1.33 1.46-2a12.73 12.73 0 0 1 1.62-1.94A17.94 17.94 0 0 1 91 30a16.29 16.29 0 0 1 4.56-2.42l.06.09c-1.27 1.14-2.56 2.17-3.82 3.22S89.24 32.91 88 34a8.54 8.54 0 0 0-1.63 1.83 11.4 11.4 0 0 0-1 2.16 42.88 42.88 0 0 0-1.66 4.36z" fill="#8f1941"/><path d="M63.11 86a1.53 1.53 0 0 0-.32 1.46 1.53 1.53 0 0 0-1.3 2.64c1.31 1.17 4-.07 4.08-.16s1-2.9-.3-4.07a1.53 1.53 0 0 0-2.16.13z" fill="#bc215f"/><path d="M65.58 61.47a1.53 1.53 0 0 0-1.2.9 1.53 1.53 0 0 0-2.71 1.15c.22 1.73 3.06 2.56 3.19 2.55s2.66-1.54 2.44-3.28a1.53 1.53 0 0 0-1.72-1.32z" fill="#bc215f"/><path d="M54.87 76a1.29 1.29 0 0 0-.27 1.24 1.29 1.29 0 0 0-1.1 2.23c1.1 1 3.38-.06 3.45-.13s.85-2.46-.25-3.44a1.29 1.29 0 0 0-1.83.1z" fill="#f38a97"/><path d="M80.21 70.53a1.29 1.29 0 0 0-1 .8A1.29 1.29 0 0 0 77 72.41c.26 1.46 2.69 2 2.79 2S82 73 81.71 71.58a1.29 1.29 0 0 0-1.5-1.05z" fill="#f38a97"/><path d="M92 55.33a1.29 1.29 0 0 0-1.27 0 1.29 1.29 0 0 0-2.4-.66c-.76 1.27.69 3.31.78 3.36s2.57.37 3.33-.9a1.29 1.29 0 0 0-.44-1.8z" fill="#bc215f"/><path d="M106 88.43a1.29 1.29 0 0 0-1.08-.66 1.29 1.29 0 0 0-1.75-1.77c-1.29.73-1 3.21-1 3.31s2.05 1.59 3.34.87a1.29 1.29 0 0 0 .49-1.75z" fill="#bc215f"/><path d="M95.31 90.15a1.29 1.29 0 0 0-1.09-.66 1.29 1.29 0 0 0-1.76-1.76c-1.29.73-1 3.21-1 3.31s2.05 1.59 3.34.87a1.29 1.29 0 0 0 .51-1.76z" fill="#f38a97"/><path d="M98.8 67a1.66 1.66 0 0 0-1.6.32 1.67 1.67 0 0 0-3.2-.18c-.6 1.81 1.81 4 1.94 4s3.34-.26 3.93-2.08A1.66 1.66 0 0 0 98.8 67z" fill="#bc215f"/><circle cx="53.07" cy="81.8" r=".99" fill="#fce5ea"/><circle cx="70.49" cy="83.78" r=".99" fill="#fce5ea"/><circle cx="89.15" cy="80.81" r=".99" fill="#fce5ea"/><circle cx="99.16" cy="90.39" r=".99" fill="#fce5ea"/><circle cx="72.47" cy="66.58" r=".99" fill="#fce5ea"/><circle cx="85.59" cy="57.36" r=".99" fill="#fce5ea"/></g></g></svg>