<svg xmlns="http://www.w3.org/2000/svg" viewBox="0 0 304.6400146484375 176.9099884033203"><title>Depositphotos_74199491_01</title><g data-name="Layer 2"><g data-name="Layer 1"><path d="M140.64 154.25a15 15 0 0 0-15 15h30a15 15 0 0 0-15-15z" fill="#b0eb86"/><path d="M57.61 151.78c-.49 0-1 0-1.45.07a16.54 16.54 0 0 0-33 0 16.71 16.71 0 0 0-14.72 16.74v.74h65.7v-.74a16.68 16.68 0 0 0-16.53-16.81z" fill="#b0eb86"/><path d="M274.74 149.16c-.57 0-1.14 0-1.7.08a19.34 19.34 0 0 0-38.64 0 19.54 19.54 0 0 0-17.16 19.52v.86h76.81v-.86a19.5 19.5 0 0 0-19.31-19.6z" fill="#b0eb86"/><path d="M244.91 149.16c-.57 0-1.14 0-1.7.08a19.34 19.34 0 0 0-38.64 0 19.54 19.54 0 0 0-17.16 19.52v.86h76.81v-.86a19.5 19.5 0 0 0-19.31-19.6z" fill="#b0eb86"/><path d="M194.63 67.4a9.77 9.77 0 0 0-18.86-5 7.74 7.74 0 0 0-13.63 5 4.9 4.9 0 0 0 0 9.81h32.25a4.9 4.9 0 0 0 .25-9.8z" fill="#92d2ff"/><path d="M157.31 42.35a11.47 11.47 0 0 0-22.14-5.91 9.08 9.08 0 0 0-16 5.89 5.76 5.76 0 1 0 0 11.52H157a5.75 5.75 0 0 0 .29-11.5z" fill="#92d2ff"/><path fill="#8dc63f" d="M67.61 152.2h1.79v19.48h-1.79z"/><path d="M71 150.2l-2.35-2.35-2.35 2.35-2.3-2.35v7.29a4.69 4.69 0 1 0 9.39 0v-7.29z" fill="#ff649c"/><path fill="#8dc63f" d="M56.84 152.2h1.79v19.48h-1.79z"/><path d="M60.26 150.2l-2.35-2.35-2.35 2.35-2.35-2.35v7.29a4.69 4.69 0 1 0 9.39 0v-7.29z" fill="#c24c9c"/><path fill="#8dc63f" d="M45.57 152.2h1.79v19.48h-1.79z"/><path d="M49 150.2l-2.35-2.35-2.35 2.35-2.35-2.35v7.29a4.69 4.69 0 1 0 9.39 0v-7.29z" fill="#ff649c"/><path fill="#6c5d8c" d="M105.2 130.1h1.11v6.14h-1.11z"/><path fill="#a35d8c" d="M101.41 127.98h.89v8.2h-.89z"/><path fill="#6cceff" d="M100.89 133.17h6.84v8.57h-6.84z"/><path fill="#ff5d8c" d="M106.05 128.57l-4.19-4.19-4.19 4.19h8.38z"/><path fill="#6c5d8c" d="M105.2 129.66h3.82v1.1h-3.82z"/><path fill="#00979d" d="M100.33 144.45h4.31v23.88h-4.31z"/><path fill="#00979d" d="M117.09 144.45h4.31v23.88h-4.31z"/><path fill="#00979d" d="M97.67 141.41h25.98v6.03H97.67z"/><path fill="#00a6a4" d="M98.79 155.99h24.87v3.29H98.79z"/><circle cx="102.34" cy="157.64" r=".59" fill="#007664"/><circle cx="119.54" cy="157.64" r=".59" fill="#007664"/><path d="M158.23 115.26a2.91 2.91 0 0 1 0 4.11L145.62 132a2.91 2.91 0 0 1-4.12 0l-12.61-12.62a2.91 2.91 0 0 1 0-4.12l12.61-12.62a2.91 2.91 0 0 1 4.12 0z" fill="#fbc93d"/><path d="M139.75 116.48a3 3 0 0 1 0 4.31L126.53 134a3.06 3.06 0 0 1-4.32 0L109 120.79a3 3 0 0 1 0-4.31l13.22-13.22a3.05 3.05 0 0 1 4.32 0z" fill="#ff755a"/><path d="M137.33 116.82a2.57 2.57 0 0 1 0 3.64l-11.14 11.14a2.57 2.57 0 0 1-3.64 0l-11.15-11.14a2.57 2.57 0 0 1 0-3.64l11.15-11.15c1.36-1.42 2.4-1.33 3.64 0z" fill="#fff"/><path d="M128.63 107.93l-1.63-1.65-2.5 2.5-2.61-2.61-1.64 1.65 2.61 2.61-2.4 2.4-2.61-2.61-1.65 1.64 2.61 2.61-2.4 2.4-2.62-2.61-1.64 1.64 2.61 2.61-2.76 2.74 1.64 1.65 2.73-2.73 2.4 2.4-2.73 2.73 1.65 1.64 2.73-2.73 2.4 2.4-2.73 2.73 1.65 1.64 2.73-2.73 2.62 2.61 1.65-1.64-2.62-2.62 2.4-2.4 2.62 2.62 1.65-1.65-2.62-2.62 2.4-2.4 2.62 2.62 1.65-1.65-2.62-2.61 2.5-2.5-1.65-1.64-2.5 2.5-2.4-2.4 2.5-2.5-1.67-1.64-2.5 2.5-2.4-2.4zm-1.74 14.64l-2.4 2.4-2.4-2.4 2.4-2.4zm-4-4l-2.4 2.4-2.4-2.4 2.4-2.4zm8.09 0l-2.4 2.4-2.4-2.4 2.4-2.4zm-4-4l-2.4 2.4-2.4-2.4 2.4-2.4z" fill="#ff755a"/><path fill="#a97c50" d="M77.19 60.25h13.09v112.09H77.19z"/><path fill="#a97c50" d="M37.775 68.537l3.224-3.225 42.618 42.618-3.225 3.224z"/><path fill="#a97c50" d="M52.395 109.43l2.362-2.361 29.423 29.423-2.362 2.361z"/><path fill="#a97c50" d="M57.371 85.699l16.723-16.723 2.517 2.517-16.723 16.723z"/><path fill="#a97c50" d="M60.32 125.946l6.337-6.334 2.517 2.517-6.337 6.335z"/><path fill="#a97c50" d="M81.204 100.076L123.82 57.46l3.225 3.224-42.618 42.618z"/><path fill="#a97c50" d="M88.625 64.815l2.518-2.517 16.72 16.726-2.518 2.517z"/><path fill="#a97c50" d="M95.885 87.104l2.609-2.61 11.18 11.18-2.61 2.61z"/><path fill="#a97c50" d="M49.484 64.69L52 62.175l16.723 16.723-2.517 2.517z"/><path fill="#8dc63f" d="M98.75 62.41h-53.3V33.85l51.97-12.72 1.33 41.28z"/><path d="M120.3 36.81V21.13a18.19 18.19 0 0 0-35.82-4.54 14.68 14.68 0 0 0-28.64 4.54v3.59a12.15 12.15 0 0 0-18.53 10.35v13.31a11.79 11.79 0 0 0 1.92 23.42h80.88a17.5 17.5 0 0 0 .19-35z" fill="#8dc63f"/><path fill="#966841" d="M79.82 75.63h2.1v12.95h-2.1z"/><path fill="#966841" d="M85.37 116.3h2.2v15.52h-2.2z"/><path fill="#966841" d="M79.2 128.82h2.2v15.52h-2.2z"/><path fill="#966841" d="M84.6 144.66h2.2v15.52h-2.2z"/><path fill="#79a43f" d="M30.66 65.01l-.47 7.95 7.12-3.57-6.65-4.38z"/><path fill="#79a43f" d="M31.77 40.37l6.86 4.05.08-7.97-6.94 3.92z"/><path fill="#79a43f" d="M40.32 21.13l.28 7.96 6.76-4.22-7.04-3.74z"/><path fill="#79a43f" d="M74.09 67.83l-.46 7.95 7.12-3.57-6.66-4.38z"/><path fill="#79a43f" d="M86.17 54.45l-.47 7.96 7.13-3.57-6.66-4.39z"/><path fill="#79a43f" d="M100.65 12.06l-.47 7.96 7.12-3.58-6.65-4.38z"/><path fill="#79a43f" d="M124.94 66.75l-.47 7.95 7.12-3.57-6.65-4.38z"/><path fill="#79a43f" d="M113.45 57.05l-.47 7.95 7.13-3.56-6.66-4.39z"/><path fill="#79a43f" d="M136.14 55.84l-2.88 7.43 7.87-1.22-4.99-6.21z"/><path fill="#79a43f" d="M48.24 70.3l5.87 5.39 1.74-7.77-7.61 2.38z"/><path fill="#79a43f" d="M91.25 70.3l5.87 5.39 1.74-7.77-7.61 2.38z"/><path fill="#79a43f" d="M53.62 53.39l7.51 2.67-1.44-7.84-6.07 5.17z"/><path fill="#79a43f" d="M47.27 38.05l7.5 2.67-1.44-7.84-6.06 5.17z"/><path fill="#79a43f" d="M64.27 31.27l2.38 7.6 5.4-5.86-7.78-1.74z"/><path fill="#79a43f" d="M65.94 8.65l7.87 1.27-2.83-7.45-5.04 6.18z"/><path fill="#79a43f" d="M99.99 32.72l7.51 2.67-1.44-7.84-6.07 5.17z"/><path fill="#79a43f" d="M114.42 48.48l7.5 2.68-1.44-7.84-6.06 5.16z"/><path fill="#79a43f" d="M110.67 9.82l7.5 2.67-1.44-7.83-6.06 5.16z"/><path fill="#79a43f" d="M118.17 23.51l.25 7.96 6.77-4.19-7.02-3.77z"/><path fill="#79a43f" d="M91.32 7.87L98.75 5l-6.2-5-1.23 7.87z"/><path fill="#79a43f" d="M128.03 39.71l5.96 5.29 1.61-7.8-7.57 2.51z"/><path fill="#79a43f" d="M66.77 59.47l7.51 2.67-1.44-7.84-6.07 5.17z"/><path fill="#79a43f" d="M55.76 19.7l4.78-6.37-7.91-.96 3.13 7.33z"/><path fill="#79a43f" d="M28.06 48.2l1.18 7.88 6.24-4.96-7.42-2.92z"/><path fill="#a97c50" d="M226.73 58.67h13.09v112.09h-13.09z"/><path fill="#a97c50" d="M190.652 61.493l3.225-3.224 42.617 42.617-3.224 3.225z"/><path fill="#a97c50" d="M249.147 102.808l1.88-1.88 7.73 7.728-1.882 1.88z"/><path fill="#a97c50" d="M209.133 78.5l16.723-16.723 2.518 2.517-16.723 16.723z"/><path fill="#a97c50" d="M206.436 93.564l10.418-10.414 2.12 2.121-10.417 10.414z"/><path fill="#a97c50" d="M231.027 96.306l42.617-42.618 2.616 2.617-42.617 42.617z"/><path fill="#a97c50" d="M235.328 128.548l27.09-27.089 2.057 2.058-27.09 27.089z"/><path fill="#a97c50" d="M236.02 62.453l2.517-2.517 16.723 16.723-2.518 2.517z"/><path fill="#a97c50" d="M255.666 73.762l2.1-2.1 6.767 6.767-2.1 2.1z"/><path fill="#966841" d="M229.36 74.05h2.1V87h-2.1z"/><path fill="#966841" d="M234.91 83.18h2.2V98.7h-2.2z"/><path fill="#966841" d="M234.91 114.71h2.2v15.52h-2.2z"/><path fill="#966841" d="M229.83 125.52h2.2v15.52h-2.2z"/><path fill="#966841" d="M234.91 144.66h2.2v15.52h-2.2z"/><path d="M273.91 46.63a10.54 10.54 0 0 0-20.3-3.81v-8.54A12.53 12.53 0 0 0 229.7 29v-5.21a16.8 16.8 0 0 0-33.6 0v22.84H193a11.79 11.79 0 0 0 0 23.59h80.88a11.79 11.79 0 1 0 0-23.59z" fill="#8dc63f"/><path fill="#79a43f" d="M205.31 55.22l3.99 6.9 3.98-6.9h-7.97z"/><path fill="#79a43f" d="M224.53 59.44l3.99 6.9 3.98-6.9h-7.97z"/><path fill="#79a43f" d="M276.64 66.36l7.75 1.9-2.24-7.66-5.51 5.76z"/><path fill="#79a43f" d="M237.07 32.75l3.99 6.9 3.98-6.9h-7.97z"/><path fill="#79a43f" d="M192.12 18.66l3.98 6.9 3.99-6.9h-7.97z"/><path fill="#79a43f" d="M202.43 5.32l-.74 7.94 7.24-3.33-6.5-4.61z"/><path fill="#79a43f" d="M211.31 64.93l.6 7.95 6.58-4.5-7.18-3.45z"/><path fill="#79a43f" d="M235 70.26l7.55 2.55-1.56-7.81-5.99 5.26z"/><path fill="#79a43f" d="M262.1 68.2l6.86 4.04.07-7.97-6.93 3.93z"/><path fill="#79a43f" d="M207.09 40.22l6.92 3.95-.04-7.97-6.88 4.02z"/><path fill="#79a43f" d="M206.62 24.57l7.86-1.32-5.08-6.14-2.78 7.46z"/><path fill="#79a43f" d="M183.38 61.6l-.47 7.95 7.13-3.57-6.66-4.38z"/><path fill="#79a43f" d="M196.57 65.58l-.47 7.95 7.13-3.57-6.66-4.38z"/><path fill="#79a43f" d="M237.61 17.73l-2.76 7.47 7.85-1.35-5.09-6.12z"/><path fill="#79a43f" d="M218.74 29.93l6.68 4.35.42-7.96-7.1 3.61z"/><path fill="#79a43f" d="M237.94 50.32l6.68 4.34.42-7.96-7.1 3.62z"/><path fill="#79a43f" d="M245.63 61.31l6.68 4.34.42-7.96-7.1 3.62z"/><path fill="#79a43f" d="M261.73 39.96l7.9-1.08-4.89-6.3-3.01 7.38z"/><path fill="#79a43f" d="M275.27 49.06l6.68 4.35.42-7.96-7.1 3.61z"/><path fill="#79a43f" d="M248.27 25.79l4.51 6.56 3.44-7.19-7.95.63z"/><path fill="#79a43f" d="M224.26 7.04l-7.47 2.76 6.13 5.1 1.34-7.86z"/><path fill="#79a43f" d="M182.64 46.4l1.94 7.73 5.73-5.54-7.67-2.19z"/><path fill="#79a43f" d="M194.99 42.95l1.94 7.73 5.73-5.54-7.67-2.19z"/><path d="M93.2 96.17a2.66 2.66 0 1 0 2.66 2.66 2.66 2.66 0 0 0-2.66-2.66zm0 4a1.32 1.32 0 1 1 1.32-1.32 1.32 1.32 0 0 1-1.32 1.3z" fill="#62a79d"/><path fill="#ffc672" d="M76.3 97.69h16.33v2.29H76.3z"/><path fill="#ffc672" d="M92.618 100.068l1.758-1.015 10.972 19.012-1.758 1.014z"/><path d="M220.31 98.84a2.66 2.66 0 1 0 2.69-2.67 2.66 2.66 0 0 0-2.69 2.67zm1.34 0a1.32 1.32 0 1 1 1.32 1.32 1.32 1.32 0 0 1-1.32-1.32z" fill="#62a79d"/><path fill="#ffc672" d="M223.54 97.69h17.52v2.29h-17.52z"/><path fill="#ffc672" d="M210.827 118.048l10.968-19.013 1.759 1.015-10.969 19.013z"/><path fill="#ffc672" d="M80.3 95.63h1.99v19.42H80.3z"/><path fill="#ffc672" d="M84.18 95.63h2v11.97h-2z"/><path fill="#ffc672" d="M229.41 96.65h1.99v14.15h-1.99z"/><path d="M102.21 117.69a70.89 70.89 0 0 0 112.1 0z" fill="#00a79d"/><path d="M106.61 123a71.29 71.29 0 0 0 6.27 5.85h90.75a71.48 71.48 0 0 0 6.27-5.85z" fill="#f9f0b2"/><path d="M197 133.65h-77.79a71.54 71.54 0 0 0 11.18 5.85h55.48a71.68 71.68 0 0 0 11.13-5.85z" fill="#f9f0b2"/><path d="M160 145.16a70.51 70.51 0 0 0 34.68-10.06v-17.41H160z" fill="#00a79d"/><path fill="#ff649c" d="M192.25 154.61l-29.75-5.5v-34.06h29.75v39.56z"/><path fill="#ec506b" d="M162.5 147.71h1.38v6.21h-1.38z"/><path fill="#ec506b" d="M165.25 148.4h1.38v6.21h-1.38z"/><path fill="#ec506b" d="M168.37 148.66h1.38v6.21h-1.38z"/><path fill="#ec506b" d="M171.53 149.31h1.38v6.21h-1.38z"/><path fill="#ec506b" d="M174.79 149.63h1.38v6.21h-1.38z"/><path fill="#ec506b" d="M178.13 150.26h1.38v6.21h-1.38z"/><path fill="#ec506b" d="M181.34 150.82h1.38v6.21h-1.38z"/><path fill="#ec506b" d="M184.66 151.5h1.38v6.21h-1.38z"/><path fill="#ec506b" d="M187.65 152.42h1.38v6.21h-1.38z"/><path fill="#ec506b" d="M190.87 152.73h1.38v6.21h-1.38z"/><path fill="#ec506b" d="M162.5 149.11l29.75 5.5v-4.35l-29.75-5.5v4.35z"/><path fill="#ffa5bc" d="M162.5 115.05h29.75v4.52H162.5z"/><path fill="#ff8929" d="M170.59 23.35h6.52v1.28h-6.52z"/><path fill="#f15a29" d="M151.79 17.61l2.65 2.01v-2.01h-2.65z"/><path d="M154 17.61a10.36 10.36 0 0 0 20.69 0z" fill="#e1b2e9"/><path d="M158 20.67a8.81 8.81 0 0 0 12.42-12.39z" fill="#6d6e71"/><path d="M159.88 18.73a6 6 0 0 0 8.51-8.51z" fill="#f1b529"/><path fill="#ff8929" d="M178.7 22.26l-2.96 1.73 2.96 1.73v-3.46z"/><circle cx="190.05" cy="28.76" r="2.93" fill="#ffcb40"/><circle cx="195.9" cy="28.76" r="2.93" fill="#ffcb40"/><circle cx="201.74" cy="28.76" r="2.93" fill="#ffcb40"/><path d="M185.16 30.25a11 11 0 0 0 21.89 0z" fill="#a48f3c"/><path fill="#986f3c" d="M184.53 28.76h23.15v2.75h-23.15z"/><path fill="#8dc63f" d="M49.18 104.18H62v9.37H49.18z"/><circle cx="49.18" cy="108.86" r="4.68" fill="#8dc63f"/><circle cx="55.47" cy="103.85" r="5.01" fill="#8dc63f"/><circle cx="62" cy="108.86" r="4.68" fill="#8dc63f"/><path fill="#8dc63f" d="M250.7 94.13h14.23v10.4H250.7z"/><circle cx="250.7" cy="99.33" r="5.2" fill="#8dc63f"/><circle cx="264.93" cy="99.33" r="5.2" fill="#8dc63f"/><circle cx="59.84" cy="128.89" r="4.4" transform="rotate(-2.71 59.977 128.955)" fill="#8dc63f"/><path fill="#8dc63f" d="M266.01 150.75h1.79v19.48h-1.79z"/><path d="M269.42 148.74l-2.35-2.34-2.35 2.34-2.34-2.34v7.29a4.69 4.69 0 1 0 9.39 0v-7.29z" fill="#ff649c"/><path fill="#8dc63f" d="M250.51 150.63h1.79v19.48h-1.79z"/><path d="M253.92 148.63l-2.35-2.35-2.35 2.35-2.34-2.35v7.3a4.69 4.69 0 1 0 9.39 0v-7.3z" fill="#ff649c"/><path fill="#8dc63f" d="M212.79 152.08h1.79v19.48h-1.79z"/><path d="M216.21 150.08l-2.35-2.35-2.35 2.35-2.35-2.35V155a4.69 4.69 0 1 0 9.39 0v-7.3z" fill="#ff649c"/><path fill="#8dc63f" d="M201.21 152.01H203v19.48h-1.79z"/><path d="M204.62 150l-2.35-2.35-2.34 2.35-2.34-2.35V155a4.69 4.69 0 0 0 9.39 0v-7.3z" fill="#db3f8d"/><path fill="#8dc63f" d="M0 168.33h304.64v6.18H0z"/><path fill="#c49a41" d="M0 172.12h304.64v4.79H0z"/><path fill="#8dc63f" d="M39.58 164.81h1.72v5.36h-1.72z"/><path fill="#8dc63f" d="M35.96 164.81h1.72v5.36h-1.72z"/><path fill="#8dc63f" d="M32.33 164.81h1.72v5.36h-1.72z"/><path fill="#8dc63f" d="M28.71 164.81h1.72v5.36h-1.72z"/><path fill="#8dc63f" d="M25.08 164.81h1.72v5.36h-1.72z"/><path fill="#8dc63f" d="M21.46 164.81h1.72v5.36h-1.72z"/><path fill="#8dc63f" d="M17.83 164.81h1.72v5.36h-1.72z"/><path fill="#8dc63f" d="M14.21 164.81h1.72v5.36h-1.72z"/><path fill="#8dc63f" d="M10.58 164.81h1.72v5.36h-1.72z"/><path fill="#8dc63f" d="M6.96 164.81h1.72v5.36H6.96z"/><path fill="#8dc63f" d="M3.83 164.81h1.72v5.36H3.83z"/><path fill="#8dc63f" d="M0 164.81h1.72v5.36H0z"/><path fill="#8dc63f" d="M42.58 164.81h1.72v5.36h-1.72z"/><path fill="#8dc63f" d="M49.56 164.81h1.72v5.36h-1.72z"/><path fill="#8dc63f" d="M53.19 164.81h1.71v5.36h-1.71z"/><path fill="#8dc63f" d="M60.27 164.81h1.72v5.36h-1.72z"/><path fill="#8dc63f" d="M64.26 164.81h1.71v5.36h-1.71z"/><path fill="#8dc63f" d="M71.11 164.81h1.72v5.36h-1.72z"/><path fill="#8dc63f" d="M74.64 164.81h1.71v5.36h-1.71z"/><path fill="#8dc63f" d="M78.06 164.81h1.72v5.36h-1.72z"/><path fill="#8dc63f" d="M81.49 164.81h1.72v5.36h-1.72z"/><path fill="#8dc63f" d="M84.91 164.81h1.72v5.36h-1.72z"/><path fill="#8dc63f" d="M88.34 164.81h1.71v5.36h-1.71z"/><path fill="#8dc63f" d="M91.76 164.81h1.71v5.36h-1.71z"/><path fill="#8dc63f" d="M95.19 164.81h1.71v5.36h-1.71z"/><path fill="#8dc63f" d="M98.62 164.81h1.71v5.36h-1.71z"/><path fill="#8dc63f" d="M102.04 164.81h1.71v5.36h-1.71z"/><path fill="#8dc63f" d="M105.47 164.81h1.72v5.36h-1.72z"/><path fill="#8dc63f" d="M108.89 164.81h1.71v5.36h-1.71z"/><path fill="#8dc63f" d="M112.32 164.81h1.72v5.36h-1.72z"/><path fill="#8dc63f" d="M115.74 164.81h1.71v5.36h-1.71z"/><path fill="#8dc63f" d="M119.17 164.81h1.72v5.36h-1.72z"/><path fill="#8dc63f" d="M122.59 164.81h1.72v5.36h-1.72z"/><path fill="#8dc63f" d="M126.02 164.81h1.71v5.36h-1.71z"/><path fill="#8dc63f" d="M129.45 164.81h1.72v5.36h-1.72z"/><path fill="#8dc63f" d="M132.87 164.81h1.71v5.36h-1.71z"/><path fill="#8dc63f" d="M136.3 164.81h1.72v5.36h-1.72z"/><path fill="#8dc63f" d="M139.72 164.81h1.72v5.36h-1.72z"/><path fill="#8dc63f" d="M143.15 164.81h1.71v5.36h-1.71z"/><path fill="#8dc63f" d="M146.57 164.81h1.72v5.36h-1.72z"/><path fill="#8dc63f" d="M150 164.81h1.71v5.36H150z"/><path fill="#8dc63f" d="M153.42 164.81h1.71v5.36h-1.71z"/><path fill="#8dc63f" d="M156.85 164.81h1.72v5.36h-1.72z"/><path fill="#8dc63f" d="M160.28 164.81h1.71v5.36h-1.71z"/><path fill="#8dc63f" d="M163.7 164.81h1.71v5.36h-1.71z"/><path fill="#8dc63f" d="M167.13 164.81h1.71v5.36h-1.71z"/><path fill="#8dc63f" d="M170.55 164.81h1.71v5.36h-1.71z"/><path fill="#8dc63f" d="M173.98 164.81h1.71v5.36h-1.71z"/><path fill="#8dc63f" d="M177.4 164.81h1.71v5.36h-1.71z"/><path fill="#8dc63f" d="M180.83 164.81h1.71v5.36h-1.71z"/><path fill="#8dc63f" d="M184.25 164.81h1.71v5.36h-1.71z"/><path fill="#8dc63f" d="M187.68 164.81h1.71v5.36h-1.71z"/><path fill="#8dc63f" d="M191.1 164.81h1.71v5.36h-1.71z"/><path fill="#8dc63f" d="M194.53 164.81h1.71v5.36h-1.71z"/><path fill="#8dc63f" d="M197.96 164.81h1.71v5.36h-1.71z"/><path fill="#8dc63f" d="M205.23 164.81h1.72v5.36h-1.72z"/><path fill="#8dc63f" d="M208.75 164.81h1.72v5.36h-1.72z"/><path fill="#8dc63f" d="M216.19 164.81h1.71v5.36h-1.71z"/><path fill="#8dc63f" d="M219.4 164.81h1.72v5.36h-1.72z"/><path fill="#8dc63f" d="M222.33 164.81h1.72v5.36h-1.72z"/><path fill="#8dc63f" d="M229.22 164.81h1.72v5.36h-1.72z"/><path fill="#8dc63f" d="M232.8 164.81h1.71v5.36h-1.71z"/><path fill="#8dc63f" d="M236.39 164.81h1.71v5.36h-1.71z"/><path fill="#8dc63f" d="M239.82 164.81h1.72v5.36h-1.72z"/><path fill="#8dc63f" d="M243.56 164.81h1.72v5.36h-1.72z"/><path fill="#8dc63f" d="M247.14 164.81h1.71v5.36h-1.71z"/><path fill="#8dc63f" d="M254.23 164.81h1.71v5.36h-1.71z"/><path fill="#8dc63f" d="M258.15 164.81h1.72v5.36h-1.72z"/><path fill="#8dc63f" d="M262.08 164.81h1.71v5.36h-1.71z"/><path fill="#8dc63f" d="M266 164.81h1.71v5.36H266z"/><path fill="#8dc63f" d="M269.93 164.81h1.71v5.36h-1.71z"/><path fill="#8dc63f" d="M273.59 164.81h1.71v5.36h-1.71z"/><path fill="#8dc63f" d="M277.26 164.81h1.71v5.36h-1.71z"/><path fill="#8dc63f" d="M280.93 164.81h1.71v5.36h-1.71z"/><path fill="#8dc63f" d="M284.59 164.81h1.71v5.36h-1.71z"/><path fill="#8dc63f" d="M288.26 164.81h1.71v5.36h-1.71z"/><path fill="#8dc63f" d="M291.93 164.81h1.71v5.36h-1.71z"/><path fill="#8dc63f" d="M295.59 164.81h1.71v5.36h-1.71z"/><path fill="#8dc63f" d="M299.26 164.81h1.71v5.36h-1.71z"/><path fill="#8dc63f" d="M302.93 164.81h1.71v5.36h-1.71z"/><path d="M44.27 52.55a4.61 4.61 0 0 0 5.67 7.23z" fill="#c2e76b"/><path d="M195.48 54.23a4.61 4.61 0 0 0 5.67 7.23z" fill="#c2e76b"/><path d="M266 60.91a4.61 4.61 0 0 0 6.76-6.21z" fill="#c2e76b"/><path d="M216.37 51.68a4.61 4.61 0 0 0 7.06-5.87z" fill="#c2e76b"/><path d="M257.35 47.62a4.61 4.61 0 0 0 7.27 5.62z" fill="#c2e76b"/><path d="M229.24 36.1a4.61 4.61 0 0 0 7.27 5.62z" fill="#c2e76b"/><path d="M69.3 20.71A4.61 4.61 0 0 0 77.72 17z" fill="#c2e76b"/><path d="M77.26 40.2a4.61 4.61 0 0 0 7.58 5.18z" fill="#c2e76b"/><path d="M97.1 49.14a4.61 4.61 0 0 0 9.13-1z" fill="#c2e76b"/><path d="M86.12 30.55A4.61 4.61 0 0 0 94 25.76z" fill="#c2e76b"/></g></g></svg>