<svg xmlns="http://www.w3.org/2000/svg" viewBox="-38.81999969482422 -25.3699951171875 3604.650146484375 4279.10009765625"><title>Asset 1</title><g data-name="Layer 2"><g data-name="Layer 1"><path d="M3410 2135.47s-198.83-320.92-345.74-533.85c14-6.92 29.79-16.3 43.16-18.51-20-7.45-43.47-10.18-65.81-14q-13.18-18.77-25.54-35.9c45.88-14.48 98.48-32.27 121.58-63.62-55.5-3-110.83.81-164.76 5.87-1.83-2.33-3.62-4.61-5.39-6.82 43.84-69.85 147.93-85.9 207.64-130.18-85-12.22-192.92 10.44-260 62.84-11.34-62.89-13.22-121.07.85-184.27-11.87 38.1-30.45 85.31-49.89 124-13-37-22.17-92.26-18.61-139.86-8.35 28.3-23.65 56.17-47.31 71.58-10.39-39-22-89.86-35-130.83-.43 32-13.39 67.75-33.56 98.05q-46.35-35.46-96.24-68c-127.18-82.88-684.22-338.29-822-400.48 0 0 477 409.38 495 512.08 20.61 117.68 58.93 595 118.22 700.9 457.84-79.7 598.39 442 541.69 552-67.74 131.4-125 173.37-135 309.57q8-6.42 17.81-2.29c.1 21.12 13.4 34.8 23.37 51 13.54-5.4 31.91-5.68 42.48-9.16-5.88 76.94 97.77 68.41 165 53.53C3565.83 2831.9 3410 2135.47 3410 2135.47z" fill="#131820"/><path d="M2656.31 1417.56c-58.41-76.33-233-144.11-422.4-318.3 21.92-2 39.54-8.69 49.92-23.34-33.91-17.75-65.33-21.73-97-22q-23-23.21-46.17-48.73c39.15-14.75 89.91-44.61 125.46-52.33-44.49-42.59-114.79-19.6-170.05.59q-4.37-5.32-8.74-10.74c55.52-53.69 118.07-77.58 194.4-101-88.89-64.89-166.46 22.5-243.34 36.74q-3.18-4.41-6.35-8.88c101.16-45.58 109.77-143.62 126-241.11-31.08 73.13-101.43 136-170 175.69q-4.62-7.26-9.22-14.64c23.46-42.33 31.82-87.51 39.86-133.75-15.37 32.5-42.12 61.34-71.38 80.89q-7.75-13.56-15.41-27.51-3.28-6-6.73-11.75c11.31-55.45 4.55-117.64-14.31-165 10.23 31.7-3.84 74.95-28.14 108.13-160.34-173.52-450.66-122.19-450.66-122.19-217.89 0-724.74 411.35-962.63 1006.81-58.59 7.2-122.31-17-180.06-23 33.08 51.58 101.2 64.21 157.3 82.81q-4.31 11.93-8.47 24c-42.91 32.25-105.92 45-158.7 46.15a466.12 466.12 0 0 0 134.21 29.84q-2.35 7.88-4.63 15.79c-41.27 32-98.48 48.75-139 84.58 23.3-4.15 58.79 2.14 78.77-1.82-57.08 72-211.14 255.87-129 350.36 31.08-34 77.58-73.19 126.74-92.08a1577.22 1577.22 0 0 0 39 492.89c-23.4 27.06-47.4 56.87-61.34 96 22-9.55 58.26-9.82 80.44-16.6-23.69 48.83-60.24 86.55-77.62 138.09 7.25-2.12 21.2-4.67 30.45-7.25-11.67 37.12-11.26 267.31 14.79 326.71 46.06-34 71.46-119.25 126-136.94-18.78 71.6-34.88 176.17 12.89 238.51 23.9-51.51 38.2-114.22 69.12-163.32 10.83 18.42 143.06 213 177.08 255.42 28.85 44.62 64.78 85 99.66 116.55q37.95 41.68 78.95 83.26c61 61.7 96.79 74.18 176.47 67.75 393.19-31.71 794.84-64.15 1184.71-131.75 156.84-27.2 309.48-57.22 466.06-58.69-6.15-66.87-3.62-137.81 11.34-204.53 37.34-166.51 65.75-304.83 65.86-478.29.35-459.53 134.09-826.17-184.13-1242.02z" fill="#253040"/><path d="M2104.09 1167a9.41 9.41 0 0 0-13.24 1.34 9 9 0 0 0-1.72 7.18l-100.54 22.67a10.33 10.33 0 0 0-1.77-1.77c-4.19-3.26-10-2.81-13 1a7.87 7.87 0 0 0-.67 1l-22.65-10.92a21.37 21.37 0 1 0-2.22 3.5 21.65 21.65 0 0 0 1.43-2.08l22.79 11a9.58 9.58 0 0 0 3.5 10.32 10.14 10.14 0 0 0 6.06 2.18l17.46 40.57a15.83 15.83 0 0 0-4.07 3.68 15.05 15.05 0 1 0 23.73 18.5 15.57 15.57 0 0 0 2.8-13.67l118-42.5a8.16 8.16 0 0 0 3.09 6 8.79 8.79 0 1 0-1.2-12.06l-.06.08-35.81-32.89a9.41 9.41 0 0 0-1.91-13.13zm36 50.28l-118.6 42.7a14.66 14.66 0 0 0-4.65-6.24 15 15 0 0 0-15.88-1.52l-17.18-39.91a8.32 8.32 0 0 0 5.21-3.06 8.75 8.75 0 0 0 .54-9.62l100-22.55a9.9 9.9 0 0 0 3.22 4.42 9.5 9.5 0 0 0 12.15-.19l36.07 33.1a8.89 8.89 0 0 0-.86 2.87z" fill="#515966"/><path d="M2042 2702.8a8 8 0 0 0-1.37 7.26l-92.41 42.19a7.46 7.46 0 0 0-1.94-2.26 7.6 7.6 0 0 0-5.76-1.52l4.61-94.72a7.93 7.93 0 0 0 .22-4.57l.2-4-1.62-.08-.06 1.16a7.56 7.56 0 0 0-1.2-1.18l-.38-.72-.38.2a7.86 7.86 0 0 0-10.21 2 8 8 0 0 0-1.67 4.19l-49.78 26.05a7.44 7.44 0 0 0-5-3.36l4.95-49.94a8 8 0 0 0 6.05-3.1 7.72 7.72 0 1 0-12.18-9.5 8 8 0 0 0-1.66 5.87l-49.63 12.55a7.55 7.55 0 0 0-2.51-3.56 7.78 7.78 0 0 0-10.09.56l-16.46-39.78a15.75 15.75 0 0 0 5.34-4.4 15.05 15.05 0 1 0-21.37 2.95 15 15 0 0 0 14.55 2.11l16.77 40.5a7.71 7.71 0 0 0 12.48 9.07 8 8 0 0 0 1.66-5.87l49.63-12.55a7.5 7.5 0 0 0 5.81 5l-4.95 49.93a8 8 0 0 0-6.06 3.1 7.73 7.73 0 1 0 12.18 9.5 8 8 0 0 0 1.22-7.66l49.09-25.7a7.59 7.59 0 0 0 2.85 5 7.81 7.81 0 0 0 10.45-.91l-4.49 92.26a8 8 0 0 0-3.57 2.61 7.73 7.73 0 1 0 12.18 9.5 8 8 0 0 0 1.37-7.26l92.41-42.19a7.54 7.54 0 0 0 1.94 2.26 7.94 7.94 0 1 0-1.21-11z" fill="#515966"/><path d="M2599.08 1435.61c-.23.3-.44.6-.65.91l-107.27-29.08a14.83 14.83 0 0 0-5.69-11.28 15.26 15.26 0 0 0-21.37 2.95 15.63 15.63 0 0 0-3.15 12.09l-114.84 46.55a21.33 21.33 0 1 0-.3 18.21l125.72 63.8a15 15 0 0 0 5.32 15.19 15.26 15.26 0 0 0 21.38-2.95 15.76 15.76 0 0 0 3-6.43l102.45 1.67a15.09 15.09 0 0 0 3.5 12.39l-30.61 37.85a7.73 7.73 0 1 0 1.26 1l30.49-37.71c.27.25.56.49.85.72a15.47 15.47 0 0 0 19-24.39 14.64 14.64 0 0 0-4.42-2.36L2612 1460.1a15.62 15.62 0 0 0 10.81-6 15.05 15.05 0 1 0-23.74-18.5zm23 98.69a15.51 15.51 0 0 0-15.25 5.76 15.78 15.78 0 0 0-2.79 5.56l-102.56-1.62a14.94 14.94 0 0 0-5.61-13.4 15.26 15.26 0 0 0-21.37 2.95 15.88 15.88 0 0 0-2.52 4.66l-125.5-63.69a21.41 21.41 0 0 0 .25-15.22l114.59-46.45a14.7 14.7 0 0 0 5.15 7.75 15.26 15.26 0 0 0 21.38-2.95 15.69 15.69 0 0 0 3.29-8.5l106.42 28.85a15.17 15.17 0 0 0 3.88 19.1 14.72 14.72 0 0 0 8.93 3.11z" fill="#515966"/><path d="M868 1545.08c-.23.3-.44.6-.65.91l-107.27-29.08a14.83 14.83 0 0 0-5.69-11.28 15.26 15.26 0 0 0-21.37 2.95 15.63 15.63 0 0 0-3.15 12.09L615 1567.22a21.33 21.33 0 1 0-.3 18.21l125.72 63.8a15 15 0 0 0 5.32 15.19 15.26 15.26 0 0 0 21.38-2.95 15.74 15.74 0 0 0 3-6.43l102.45 1.67a15.09 15.09 0 0 0 3.5 12.39l-30.61 37.85a7.73 7.73 0 1 0 1.26 1l30.49-37.71c.27.25.55.49.85.72a15.47 15.47 0 0 0 19-24.39 14.63 14.63 0 0 0-4.41-2.36l-11.76-74.66a15.62 15.62 0 0 0 10.81-6 15.05 15.05 0 1 0-23.74-18.5zm23 98.69a15.5 15.5 0 0 0-15.24 5.76 15.76 15.76 0 0 0-2.79 5.56l-102.54-1.67a14.93 14.93 0 0 0-5.61-13.4 15.26 15.26 0 0 0-21.37 2.95 15.9 15.9 0 0 0-2.52 4.66l-125.5-63.69a21.42 21.42 0 0 0 .25-15.22l114.58-46.45a14.71 14.71 0 0 0 5.15 7.75 15.26 15.26 0 0 0 21.38-2.95 15.69 15.69 0 0 0 3.29-8.5l106.44 28.85a15.17 15.17 0 0 0 3.87 19.1 14.72 14.72 0 0 0 8.93 3.11z" fill="#515966"/><path d="M2054.41 2239.11a21.29 21.29 0 0 0-3.86 7.9l-30.36-6.47a7.46 7.46 0 0 0-2.17-2.71 8 8 0 0 0-11.13 11.11l-36.31 41.13a7.12 7.12 0 0 0-.71-.64 7.94 7.94 0 0 0-9.76 12.52 7.7 7.7 0 0 0 8.22.75l13.53 94.79a8 8 0 0 0-5.46 10.36l-86.4 43.51a14.66 14.66 0 0 0-3.87-4.55 15.47 15.47 0 1 0 2.36 21.45 15.53 15.53 0 0 0 2.2-15.44l86.35-43.52a7.51 7.51 0 0 0 1.78 2 7.94 7.94 0 0 0 9.76-12.52l-.26-.18 73-127.41a21.37 21.37 0 1 0-7-32.08zM1987 2397.8a7.65 7.65 0 0 0-3.51-.6l-13.63-95.48a8.11 8.11 0 0 0 1.25-1.28 7.92 7.92 0 0 0 .53-9.08l36.41-41.24.26.22a7.83 7.83 0 0 0 11-1.51 8 8 0 0 0 1.56-6.51l29.42 6.27a21.4 21.4 0 0 0 9.74 21.79z" fill="#515966"/><path d="M1631 2449.46a21.38 21.38 0 0 0 18.41 31.67l-4 56.86a8 8 0 0 0-6.5 4.15 7.83 7.83 0 0 0 2.95 10.68l-.78-.22-13.52 48a7.92 7.92 0 0 0-8.12 4.07 7.83 7.83 0 0 0 2.95 10.68 8.15 8.15 0 0 0 .78.37l-22.55 53.83a15.51 15.51 0 0 0-13.24 27.76l-42.09 138a15.29 15.29 0 0 0-15.94 5l-92.62-95a21.38 21.38 0 1 0-34.23-25 21.66 21.66 0 0 0-1 2.12l-75.86 17.69a7.79 7.79 0 0 0-9.85 2.3l-.53.13-20.53-11.28a7.59 7.59 0 0 0-11-6.06l-31.86-17.5a8.75 8.75 0 1 0-.78 1.42l31.11 17.09a8.11 8.11 0 0 0-1.92 2.33 7.73 7.73 0 1 0 13.54 7.44 8.06 8.06 0 0 0 .93-2.87l20.08 11a7.72 7.72 0 0 0 13.89 6.71 7.9 7.9 0 0 0-1.31-9.45l73.47-17.13a21.38 21.38 0 0 0 34.74 22.22l92.81 95.21c-.26.39-.51.79-.74 1.21a15.26 15.26 0 0 0 5.74 20.8 15 15 0 0 0 1.68.78l-83.46 81.08a21.37 21.37 0 1 0 1.13 1.16l84.07-81.68a15.39 15.39 0 0 0 17.22-7.66 15.71 15.71 0 0 0 1.93-8.37l172.25-21.91a21.38 21.38 0 0 0 36.77 14.66l79.65 101.25a15.76 15.76 0 0 0-4.2 4.91 15.05 15.05 0 1 0 20.63-6.31 15 15 0 0 0-15.1.48l-79.9-101.55a21.38 21.38 0 1 0-37.82-15.07l-172.46 21.93a14.87 14.87 0 0 0-7.51-10.83 14.39 14.39 0 0 0-1.44-.69l42-137.79a15.48 15.48 0 0 0 14-27.55l-.73-.37 22.62-54a8 8 0 0 0 6-14.29l.05-.12-.75-.31a7.57 7.57 0 0 0-.91-.41l13.47-47.86a7.95 7.95 0 0 0 6.9-14.27 7.5 7.5 0 0 0-2.47-.83l4-57a21.38 21.38 0 1 0-20-31.63z" fill="#515966"/><path d="M735.76 2376.24a21.38 21.38 0 0 0-18.54-31.6l3.75-56.88a8 8 0 0 0 6.49-4.17 7.83 7.83 0 0 0-3-10.66l.78.22 13.33-48.06a7.92 7.92 0 0 0 8.1-4.11 7.69 7.69 0 0 0-3.77-11l22.37-53.98a15.51 15.51 0 0 0 13.13-27.81L820 1990a15.29 15.29 0 0 0 15.92-5.08l93 94.67a21.38 21.38 0 1 0 35.33 22.77l75.79-18a7.79 7.79 0 0 0 9.85-2.34l.53-.13 20.58 11.2a7.59 7.59 0 0 0 11.06 6l31.93 17.38a8.75 8.75 0 1 0 .78-1.43l-31.17-17a8.12 8.12 0 0 0 1.91-2.34 7.73 7.73 0 1 0-13.56-7.38 8.06 8.06 0 0 0-.92 2.87l-20.13-11a7.72 7.72 0 0 0-13.92-6.65 7.9 7.9 0 0 0 1.35 9.45l-73.41 17.41a21.38 21.38 0 0 0-34.92-21.89l-93.17-94.86c.26-.39.51-.79.74-1.21a15.26 15.26 0 0 0-5.82-20.78 15.45 15.45 0 0 0-1.68-.78l83.15-81.4a21.38 21.38 0 1 0-1.13-1.16l-83.76 82a15.39 15.39 0 0 0-17.19 7.73 15.7 15.7 0 0 0-1.9 8.36L637.09 1999a21.38 21.38 0 0 0-36.83-14.52l-80-100.93a15.74 15.74 0 0 0 4.18-4.92 15.05 15.05 0 1 0-20.64 6.37 15 15 0 0 0 15.1-.54l80.28 101.24a21.38 21.38 0 1 0 37.82 14.91L809.42 1978a14.87 14.87 0 0 0 7.56 10.81 14.57 14.57 0 0 0 1.45.69l-41.49 137.94a15.48 15.48 0 0 0-13.9 27.61l.73.37-22.42 54.08a8 8 0 0 0-5.93 14.32l-.05.12.75.31a7.3 7.3 0 0 0 .91.41l-13.29 47.91a7.95 7.95 0 0 0-6.85 14.29 7.51 7.51 0 0 0 2.47.82l-3.76 57a21.38 21.38 0 1 0 20.16 31.55z" fill="#515966"/><path d="M582.94 2188.12a8.84 8.84 0 0 0-1.88 5.5l-133.18 16.5-.32-.27a15.47 15.47 0 0 0-19 24.39 13.82 13.82 0 0 0 1.15.81l-13 99.26.8.1h-.81v1.65a8 8 0 0 0-5.43 3.05 7.83 7.83 0 0 0 1.21 11 7.49 7.49 0 0 0 4 1.56l-1.69 105.59a21.48 21.48 0 1 0 1.62 0l1.59-105.61a8 8 0 0 0 5.38-3 7.83 7.83 0 0 0-1.21-11 7.51 7.51 0 0 0-3.92-1.55v-1.57l12.92-98.58a15.37 15.37 0 0 0 18.7-4.6 16.06 16.06 0 0 0 1.64-2.58l103 14.82a7.64 7.64 0 0 0 2.91 6.56 7.94 7.94 0 0 0 9.76-12.52l-.28-.19 20.28-35.67a8.75 8.75 0 0 0 9.22-3.1 8.54 8.54 0 1 0-13.46-10.49zm-17.46 48.47a7.9 7.9 0 0 0-9.28 2.5 8.07 8.07 0 0 0-1.43 2.85l-102.54-14.76a15.19 15.19 0 0 0-2.84-15.61l131.83-16.34a8.37 8.37 0 0 0 3.07 5 8.5 8.5 0 0 0 1.35.86z" fill="#515966"/><path d="M2137.73 1357a7.87 7.87 0 0 0 .21 10.06l-24.94 27.63a7.83 7.83 0 0 0-10.77 1.65 8.11 8.11 0 0 0-1.18 2.1l-31.12-7.76a7.69 7.69 0 0 0-2.82-7.35 7.83 7.83 0 0 0-11 1.51l-.8-.11-.27 2a8 8 0 0 0-.57 4.12l-13.64 98.54a8 8 0 0 0-6.36 3.1 7.71 7.71 0 0 0 11.36 10.39l38.86 33.72a16 16 0 0 0-2.57 2.61 15.41 15.41 0 0 0-.58 18.37l-166.46 181.22-.34-.28a15.47 15.47 0 0 0-19 24.39l.34.25-30.08 164.68a21.37 21.37 0 1 0 12.94 1.17l55.48-83.49a15.56 15.56 0 0 0 20.66-21.91l249-187.25a21.38 21.38 0 1 0 9.35-27.25l-41.06-47.22c.15-.17.3-.33.44-.51a7.91 7.91 0 1 0-1.65 1.59l40.86 47a21.38 21.38 0 0 0-8.54 24.83l-249.41 187.5a14.75 14.75 0 0 0-2.33-2.28 15.47 15.47 0 0 0-19 24.39l.29.21-55.68 83.8a21.38 21.38 0 0 0-9.67-.89l29.88-163.42a15.53 15.53 0 0 0 18.73-24.22l166.35-181.08a15 15 0 0 0 1.92 1.79 15.26 15.26 0 0 0 21.37-2.95 15.74 15.74 0 0 0 2.87-5.87l48.37 8.41.28-1.6-48.33-8.4a14.88 14.88 0 0 0-23-14.63l-39.15-34a7.81 7.81 0 0 0-1.45-10.67 7.5 7.5 0 0 0-3-1.41l13.22-95.49a7.51 7.51 0 0 0 1.67 1.81 7.83 7.83 0 0 0 11-1.51 8.09 8.09 0 0 0 1.19-2.1l31.12 7.77a7.69 7.69 0 0 0 2.82 7.35 8 8 0 0 0 10.76-11.58l24.92-27.65a7.93 7.93 0 1 0-1.41-11.15z" fill="#515966"/><ellipse cx="2183.93" cy="2051.47" rx="7.72" ry="7.94" transform="rotate(-85.29 2183.855 2051.471)" fill="#515966"/><path d="M2301.24 2099a7.86 7.86 0 0 0-8.43 6.23l-83.74-7c0-.36.09-.73.12-1.09a21.38 21.38 0 0 0-11.69-20.85l57.09-75.8a15.75 15.75 0 0 0 7.22 2.43 15.05 15.05 0 1 0 2.47-30 15.66 15.66 0 0 0-10.12 2.64l-44.51-55.39a14.75 14.75 0 0 0 .9-21.81l66.13-69.35a15.66 15.66 0 0 0 8.64 3.46 15.05 15.05 0 1 0-14.18-16.27 14.83 14.83 0 0 0 4.33 11.71l-66.13 69.35a15.69 15.69 0 0 0-8.64-3.46 15.05 15.05 0 1 0-2.47 30 15.67 15.67 0 0 0 10.12-2.64l44.51 55.39a14.78 14.78 0 0 0 .41 23l-57.27 76.03a21.38 21.38 0 1 0 12.8 24.24l83.88 7.05a7.93 7.93 0 1 0 8.57-7.84z" fill="#515966"/><path d="M1963.41 2015.36a21.38 21.38 0 0 0-16.47 21.81l-115.34 36.32a15.49 15.49 0 0 0-29.53 8.94 14.9 14.9 0 0 0 9 10.38l-59.63 158.53a8.85 8.85 0 0 0-4-.07l-157.1-32a14.64 14.64 0 0 0-.18-5.81 15.47 15.47 0 0 0-30.11 7.06 14.65 14.65 0 0 0 2.07 4.78l-134.23 120.57a21.38 21.38 0 1 0-11.26 36.23l78.65 131a15.07 15.07 0 0 0-6.6 16 15.47 15.47 0 1 0 11.62-18.18 16 16 0 0 0-3.62 1.33l-78.39-130.57A21.38 21.38 0 0 0 1429 2347l134-120.38a15.67 15.67 0 0 0 26.89-5.76l154.69 31.5a8.56 8.56 0 0 0-4 9.25 8.75 8.75 0 0 0 17-4 8.43 8.43 0 0 0-4.74-5.74l59.63-158.54a15.7 15.7 0 0 0 8 .2 15.26 15.26 0 0 0 11.62-18.18c0-.11-.06-.22-.09-.33l115-36.21a22.08 22.08 0 0 0 .4 2.23 21.38 21.38 0 1 0 15.93-25.7z" fill="#515966"/><path d="M1899.41 2838.1a15.26 15.26 0 0 0 2.36 21.45 14.84 14.84 0 0 0 12.24 2.78l.35 56.09a8 8 0 0 0-5.65 3.08 7.83 7.83 0 0 0 1.21 11 7.63 7.63 0 0 0 6.41 1.4l7.33 23.62a8.83 8.83 0 0 0-3.42 2.67 8.54 8.54 0 1 0 13.5-.26l19.81-19.44.18.16a7.94 7.94 0 1 0-1.21-11 8.11 8.11 0 0 0-1.5 3.14l-29.32-3a7.78 7.78 0 0 0-2-9.75 7.54 7.54 0 0 0-3.69-1.53l-.35-56.55a15.69 15.69 0 0 0 7.52-5.29 15.05 15.05 0 1 0-23.74-18.5zm53 101.21l-19.81 19.44-.26-.23a8.45 8.45 0 0 0-7.15-1.54l-7.33-23.62a8.1 8.1 0 0 0 2.79-2.13l30.15 3.13a7.71 7.71 0 0 0 1.6 4.95z" fill="#515966"/><path fill="#956347" d="M3220.38 2574.43v803.52H946.37v-822.64H785.13v1340.03h161.24v-359.56h2274.01v357.46h161.24V2574.43h-161.24z"/><path d="M3205.52 3034.79l-969.31-52.48c1.56 38.18-332.55 165-375.18 164.5-83.81-.88-167.72-1.6-251.3-8.39-63.79-5.18-127-14.28-191-16.79-58.21-2.28-116.64-1.08-174.53 5.68-46.26 7-92 18-135.63 35a416.17 416.17 0 0 0-68 39q-6.34 5.3-12.45 10.87c-18.2 16.66-39.24 27.69-63.36 30.33 2.94 72.1 6.67 144.12 12.15 215.91h2228.61c8.21 0 14.86-9.27 14.86-20.7v-382.23c0-11.43-6.66-20.7-14.86-20.7z" fill="#46ac96"/><path d="M3197 3269.2c-67.94-145.77-324.19-48.38-443.3-36.83-149.44 14.49-312 65.81-478.52 27.66h-18.77c-17.72 20.27-12.43 130.16 11.22 160 44.65 56.29 103.46 34.12 167.05 27.68 161.41-16.33 307.3.17 469.14 0 136.18-.16 392.69 34.98 293.18-178.51z" fill="#6bbdab"/><path d="M2330.82 3737.39c3.9-50.67 9.65-101.18 13.42-151.86 1.63-21.78 1.85-43.55 3-65.33q3-54.64 1.89-109.4c-1.37-67.13-7.15-134.06-15.67-200.65q-4.2-30-9-59.84a679.14 679.14 0 0 0-38.11-60.25 105.18 105.18 0 0 1-14.43-53.34l3-22.54c-165.87 6-331.53 18.32-497.27 27-99.53 5.22-199.1 9.36-298.63 14.48-84.21 4.33-168.48 9.3-252.17 19.83-86.82 12.45-172.94 31.75-254.49 64.37q-28.37 12.62-55.56 27.55l-.18.68c-.06.23-.19.77-.26 1.12q-1 4-1.92 8.07-2.25 10-4.08 20.4c-.45 2.67-.89 5.36-1.31 8.07q-1.45 9.2-2.53 18.83c-.08.52-.12 1-.19 1.58-.25 2.3-.5 4.6-.73 6.88q-1 9-1.94 18c-.29 2.77-.57 5.56-.86 8.37q-.49 4.87-1 9.75c-.31 3-.61 6-.89 9.09q-1.23 12.73-2.37 25.56c-.33 3.65-.66 7.31-.95 11q-4 45.86-6.78 92.26c-.19 3-.37 6-.54 9q-1.12 18.54-2 37.19c-.16 3.13-.3 6.29-.46 9.42-.12 2.71-.25 5.39-.35 8.11-.08 1.48-.15 3-.21 4.49-.07 1.3-.11 2.62-.17 3.92-.07 1.61-.15 3.21-.19 4.82-.27 6.68-.51 13.3-.76 20-.1 3-.19 6-.28 8.94-.08 2.28-.15 4.52-.23 6.79v1.79c-.1 3-.17 5.92-.26 8.91-2.6 92.55-1.78 185.47 2.67 277.09 96.39-15.65 166-15.35 245.83-9.58 3.7.26 7.45.54 11.22.84q12.06.95 24.52 2 6 .48 12 1c8 .69 16.11 1.43 24.43 2.17.53.06 1.09.11 1.65.15l12.14 1.12c7.26.67 14.63 1.32 22.18 2 1.09.11 2.18.2 3.28.29 8 .74 15.59 1.26 22.92 1.61 12.22.58 23.62.72 34.55.47 8.48-.18 16.66-.61 24.67-1.24 15.33-1.15 30-3 45.13-5.29 4-.6 8-1.22 12-1.88 12.11-2 24.59-4.14 37.89-6.4 3.39-.58 6.88-1.19 10.41-1.77 7.13-1.17 14.52-2.39 22.23-3.59.84-.12 1.68-.26 2.5-.37 3.41-.49 6.81-.87 10.18-1.15 53-4.55 104.21 13.51 154.6 29.1 20.16 6.23 40.16 12.07 60.13 15.87 8.24 1.61 16.46 2.84 24.69 3.62 79.16 7.5 114.32-22.29 189.8-43.17 72.31-20 112.47 7.28 179.33 8.23 76.12 1.06 125.13-25.95 199.89-36.73a175.34 175.34 0 0 1 52.47.71q1.05-14.08 2.15-28.16z" fill="#f69c3a"/><ellipse cx="1645.13" cy="3120.98" rx="41.77" ry="37.3" fill="#f27288"/><path d="M1386.36 3192.1c0 14.09 12.79 25.53 28.57 25.53s28.57-11.43 28.57-25.53-12.79-25.52-28.57-25.52-28.57 11.42-28.57 25.52z" fill="#f27288"/><path d="M1585.16 3274.14c0 29.57 26.86 53.55 60 53.55s60-24 60-53.55-26.84-53.54-60-53.54-60 23.95-60 53.54z" fill="#f27288"/><path d="M1438.38 3057.85a16.11 16.11 0 0 0 13.8 7.29c6.61 0 12.28-3.65 14.61-8.82q-14.2.75-28.41 1.53z" fill="#ff7729"/><path d="M1506.15 3178.5c0 8.65 7.85 15.66 17.54 15.66s17.54-7 17.54-15.66-7.86-15.68-17.54-15.68-17.54 7.03-17.54 15.68z" fill="#f27288"/><path d="M1245.89 3073.23a41.54 41.54 0 0 0-1.21 9.9c0 25.48 23.13 46.15 51.66 46.15s51.67-20.66 51.67-46.15a41.85 41.85 0 0 0-4.66-19.14c-32.54 2.5-65.04 5.48-97.46 9.24z" fill="#ff7729"/><path d="M1453.73 3122c0 3.51 3.18 6.34 7.1 6.34s7.12-2.83 7.12-6.34-3.18-6.35-7.12-6.35-7.1 2.83-7.1 6.35z" fill="#ff7729"/><path d="M1471.53 3255.1c0 8.54 7.75 15.45 17.3 15.45s17.32-6.91 17.32-15.45-7.75-15.47-17.32-15.47-17.3 6.92-17.3 15.47z" fill="#f27288"/><path d="M1206.53 3238.07c0 24.27 22 43.92 49.17 43.92s49.17-19.65 49.17-43.92-22-43.91-49.17-43.91-49.17 19.67-49.17 43.91z" fill="#f27288"/><path d="M1214.91 3154.31c0 6.7 6.1 12.14 13.6 12.14s13.6-5.44 13.6-12.14-6.09-12.15-13.6-12.15-13.6 5.42-13.6 12.15z" fill="#ff7729"/><path d="M1714.31 3379.65c0 5.23 4.74 9.46 10.61 9.46s10.59-4.23 10.59-9.46-4.73-9.47-10.59-9.47-10.61 4.25-10.61 9.47z" fill="#f27288"/><path d="M1714.31 3171.89c0 9.72 8.83 17.59 19.71 17.59s19.7-7.87 19.7-17.59-8.81-17.58-19.7-17.58-19.71 7.87-19.71 17.58z" fill="#f27288"/><path d="M1699.57 3060.37c0 8.51 7.69 15.38 17.21 15.38s17.2-6.87 17.2-15.38-7.71-15.35-17.2-15.35-17.21 6.87-17.21 15.35z" fill="#ff7729"/><path d="M1530.35 3328.71c0 6.22 5.64 11.25 12.61 11.25s12.59-5 12.59-11.25-5.65-11.24-12.59-11.24-12.61 5.04-12.61 11.24z" fill="#f27288"/><path d="M934.26 3357.58c-2.38.6-4.15 2.51-2.84 5.09 5.06 9.84 14.84 19.58 28.24 16.22 9-2.25 17-10.21 16.71-18.89-.45-12.39-15.35-15.82-26.71-16.51-5-.34-10.47.52-13.16 4.78-1.73 2.73-2.14 6.05-2.24 9.31zm8.65 6.42a4.13 4.13 0 0 0 .78-2.33c0-2.73-.15-7.24 1-9.11.3-.47-.08-.36 1.26-.62a19.12 19.12 0 0 1 4.73.08c6.36.75 16.61 1.94 16.14 9-.25 4.06-4.95 8.72-10.15 9.82-5.97 1.26-10.67-2.51-13.76-6.84z" fill="#ffdda6"/><path d="M926 3323.27c-14.68 8.65-24.09 24.94-22.59 40.72 1.21 12.89 9.13 22.6 20.59 28.25 13.49 7.7 30.62 13.28 46 6.77a41.49 41.49 0 0 0 24.5-29c3.43-15-.57-32.29-14.31-42.31-14.93-10.84-37.5-14.23-54.19-4.43zm6 6.62c16.1-8.38 39.54-2.73 48.93 11.72 8.06 12.4 6.94 30.25-3.31 41.47-8.87 9.74-20.73 11.38-32.32 8.68a4 4 0 0 0-3.52-2.93 49 49 0 0 1-12.85-3.74c-.76-.43-1.51-.89-2.24-1.33a4.87 4.87 0 0 0-1.47-.63c-5.21-3.19-9.29-7.64-11.16-13.6-4.49-14.53 3.41-31.99 18.02-39.63z" fill="#ffdda6"/><path d="M1004.58 3303.18c17.18 10.82 30.87 26 34.82 44.75 6.87 32.35-21.8 61.65-53.1 73.53-27 10.24-57.65 7.11-80.7-9.11a3.32 3.32 0 0 1-.94-5 55.5 55.5 0 0 1-9.86-3c.16-3 .34-6 .53-9a51.36 51.36 0 0 0 15.73 4.4c4.37.56 4.57 5 2.09 7.14 30.45 20.47 72.55 12.82 98.21-10.66 11.82-10.78 19.77-25.21 19.41-40.5-.46-18.64-14.18-33.77-30.09-44.64-18.85-12.88-43.25-22.71-67.43-20.36a62 62 0 0 0-31.15 12.34q.46-5.5 1-11a74.79 74.79 0 0 1 34.19-10.16c24.34-1.25 47.9 9.02 67.29 21.27z" fill="#ffdda6"/><path d="M967.3 3256.85c49.3 7.11 110.37 28.64 124.18 76.44 7.32 25.33-1.32 53.28-16.81 74.82-16.2 22.58-41.4 38.88-69.38 48.05a165.6 165.6 0 0 1-77.18 5.75 149.27 149.27 0 0 1-35.76-10.91q.21-4.71.44-9.42c17.06 7.6 35.22 12.95 54.5 13.9a152.89 152.89 0 0 0 87.88-22.68c26-16.28 43.68-41.47 48.46-69.5 4.22-24.63-6.48-47.36-26.93-63.78-20.65-16.56-48.13-25.74-74.76-31.35a198 198 0 0 0-76.5-1.61c.28-3 .6-6 .89-9.09a206.24 206.24 0 0 1 60.97-.62z" fill="#ffdda6"/><path d="M1147.48 3322.94c15.55 22.92 22.83 49.31 17.32 75.91-6 29.3-27.19 55.48-52.67 74-17 12.33-38.06 21-60 22.11a4.13 4.13 0 0 1-3.35 1.15 824.13 824.13 0 0 1-106.63-12.67c-17-3.11-34-6.73-50.73-11.12.05-1.62.13-3.23.19-4.83.06-1.3.1-2.62.17-3.92.06-1.5.12-3 .21-4.48 31.09 9.05 64.89 12.15 96.6 10.57 16.21-.83 32.6-6.18 47.88-10.76 9.79-2.91 19.52-6 29.11-9.41a4.32 4.32 0 0 1 5.9 2.94c22.72-18.29 42.48-40.61 49.22-67.78 5.52-22.23-.26-44.91-13.48-64.1-30.6-44.45-92.85-66.85-148.67-72a326.73 326.73 0 0 0-51.27-.8c.3-2.81.59-5.62.87-8.4 9.6-.58 19.25-.69 28.76-.48a293.67 293.67 0 0 1 86.79 14.71c44.75 15 88.73 44.06 103.88 86.16 16.72 46.5-13.52 90.6-51.66 120.48-3.2 2.52-7.66.43-8.39-2.27-17 6-34.33 11.28-51.94 15.59-17.84 4.37-36.22 5.4-54.6 4.55a775.44 775.44 0 0 0 78.5 9 4.55 4.55 0 0 1 2.75-.63c35.11 1.78 65.78-17.54 87-40.92s32.79-53.45 25.91-83.36c-6.39-27.73-26.52-51.41-48.13-71.29-16.28-15-35.15-27.11-55.65-37.06a329.48 329.48 0 0 0-141.32-32.5c.24-2.3.48-4.6.75-6.87 0-.54.1-1.09.18-1.61 41.58.32 83.94 9.29 119.53 22.63 47.8 17.95 89.92 47.61 116.97 87.46z" fill="#ffdda6"/><path d="M1122.88 3259.35a254.71 254.71 0 0 1 59.12 59.71c28.42 40.77 40.29 92.82 10.63 135.71-26 37.66-75 60.23-123 66.39-40.48 5.19-82.44 1.52-122.26-5.91a514.62 514.62 0 0 1-57-14.06q.13-4.45.28-8.94 7.39 2.31 14.82 4.4c40.92 11.52 84 18.48 127 18.31a269.45 269.45 0 0 0 55.34-5.45c24.24-5.18 46.57-15.77 66.23-29.35 23.06-16 39.89-38.18 45.15-64 4.84-23.89-1.35-48.46-12-70.39-24.4-50.1-73.26-87.76-126.77-112.06-44.45-20.19-95.77-38.47-146.8-39.71.41-2.71.84-5.39 1.31-8 43.45 1.36 86.66 14.21 126.48 30.2 28.98 11.61 56.77 25.15 81.47 43.15z" fill="#ffdda6"/><path d="M1123.17 3226.75c-55.91-34.4-122.07-60-190-68q-6.55 3.38-13 6.89c54.05 4.49 107.55 22 154.33 44.46 34 16.34 66.1 36.26 93.92 60.28 24.68 21.31 46.89 46.23 60 74.82 11.8 25.74 15.81 54 7.36 81.1-10.15 32.61-35.84 59.37-65.05 80.06-47.55 33.66-109.75 39.66-168.18 31.88-38.55-5.16-76.24-15.18-112.39-28.47-.09 3-.17 5.91-.26 8.9a566.9 566.9 0 0 0 71.06 20.82c56.19 12.39 119.08 16.81 173.51-4.09 68.92-26.43 127.48-92.18 113.16-161.87-12.91-62.41-68.05-112.05-124.46-146.78z" fill="#ffdda6"/><path d="M985.28 3142.95q-7.1-1.16-14.24-2.43-6.84 3.06-13.62 6.26c8.64 1.53 17.27 3.06 25.86 4.47 6.02 1 8.04-7.32 2-8.3z" fill="#ffdda6"/><path d="M999.71 3564.77c38.25 5.66 78 1.29 114.94-8.48 34.38-9 69.23-23.7 94.42-47.05 4.23-3.93 11.27 1.78 7 5.75-26.38 24.48-62.48 39.66-98.46 49.39-38.43 10.37-80.13 14.6-119.9 8.7-6.07-.92-4.04-9.2 2-8.31z" fill="#ffdda6"/><path d="M1256.21 3802.73a126.23 126.23 0 0 0-14.11 4.51c1.09.11 2.18.2 3.28.29 8 .74 15.59 1.26 22.92 1.61a100.52 100.52 0 0 1 34.55.47c8.48-.18 16.66-.61 24.67-1.24-21.89-8.89-46.13-12.06-71.31-5.64z" fill="#88a34f"/><path d="M1206.14 3804c.53.06 1.09.11 1.65.15l12.14 1.12c18.55-12.62 39.34-22.91 62.36-26.43 32.78-5 65.27 5.55 90.39 24.25 4-.6 8-1.22 12-1.88-17.32-14.27-38.24-25.28-61.11-29.75-29.6-5.78-59.34-.12-85.52 13a225.33 225.33 0 0 0-31.91 19.54z" fill="#88a34f"/><path d="M1169.7 3800.79q6 .48 12 1c23.39-22.3 51.22-40.71 83.24-52 24.89-8.85 52.6-13.57 79.19-8.48a119.4 119.4 0 0 1 70.12 42.38c2.93 3.61 5.73 7.32 8.36 11.11 3.39-.58 6.88-1.19 10.41-1.77a139.44 139.44 0 0 0-45.94-44.63c-47-27.86-105.68-18.94-152.21 5.12a268.32 268.32 0 0 0-65.17 47.27z" fill="#88a34f"/><path d="M1134 3797.95c3.7.26 7.45.54 11.22.84a354.5 354.5 0 0 1 34.8-34.65c24.65-21.36 53.25-40.37 85.67-51.16 29.21-9.72 61-12.37 91-4 36.17 10.12 65.3 33.92 87.51 60.65a146.88 146.88 0 0 1 13.62 19.4c3.41-.49 6.81-.87 10.18-1.15-31.56-55.74-97.93-100.85-170-91.19-67.89 9.18-123.69 53.87-164 101.26z" fill="#88a34f"/><path d="M972.45 3139.89q-28.7 12.77-56.2 27.89c24.14 6.19 48.22 12.67 72.15 19.14 35.28 9.52 68.6 18.49 101.34 26.34q53.24 12.8 104.09 26.37 1.2-23.71 3-47.28 4.45-59.15 12.61-114.22c-80.91 12.5-160.94 31.33-236.99 61.76z" fill="#8cc0b3"/><path d="M2327.39 3648.08c35.27-11.68-15.46-50-28-56.85-.04-3.34-.39 66.26 28 56.85z" fill="#88a34f"/><path d="M2240.54 3626.71c35.26-11.67-15.48-50-28-56.87-.06-3.34-.44 66.3 28 56.87z" fill="#88a34f"/><path d="M2288.55 3504.85c35.26-11.66-15.46-50-28-56.85-.05-3.34-.42 66.27 28 56.85z" fill="#88a34f"/><path d="M2303.91 3761.95c35.24-11.67-15.49-50-28-56.86-.07-3.33-.43 66.27 28 56.86z" fill="#88a34f"/><path d="M1759.21 3248.61c1.38 33 1.58 64.64 1 93.86 0 2.16-.07 4.34-.12 6.46a4.27 4.27 0 0 1 0 .43c-.06 2.73-.13 5.42-.2 8.09v.54c-.1 3.86-.21 7.68-.35 11.45v1.06c0 1-.06 1.92-.1 2.84v.83c-.24 6.31-.48 12.46-.77 18.47a.17.17 0 0 1 0 .11q-.2 4.49-.43 8.89-.67 12.24-1.41 23.44c-.46 6.85-1 13.8-1.56 20.79 1.2.59 2.41 1.15 3.63 1.75q31.79 15.6 62.45 31.32c1.77.94 3.55 1.84 5.32 2.76q14.82 7.67 29.38 15.35l1 .52c1.26.67 2.53 1.33 3.79 2l1.33.69c3.54 1.89 7.1 3.79 10.63 5.66l.55.31c3.89 2.08 7.75 4.15 11.61 6.25 129.75 70.28 249.4 180.35 347.84 257.17 24.71-151.9 14.63-343.7-15.6-488.54-21.37-12-42.29-23.55-62.51-34.53q-9.07-4.93-18.16-9.8-5.72-3.08-11.46-6.13c-.35-.2-.71-.4-1.07-.58l-7.09-3.78-5.17-2.73a.17.17 0 0 1-.11-.06 4 4 0 0 0-.42-.2c-.33-.17-.67-.34-1-.54q-2.84-1.52-5.72-3c-5.35-2.85-10.69-5.64-16.06-8.45-2.89-1.51-5.77-3-8.68-4.52q-77.76-40.41-157.16-77.87-7.48-3.54-15-7h-.06q-14.08-6.56-28.22-13.07-72.21-33.22-145.31-63.85 5.74 25.83 10.26 53.3a1241.26 1241.26 0 0 1 14.48 139.75q.26 5.33.47 10.56z" fill="#ffdda6"/><path d="M2179 3550.82c15.49 15.25 1.34 26.52-.37 43.07-.39 3.81-1 6.93 2.82 9.67-4.16.14-45.7 8.68-60.42-6.29-9.25-9.41 6.14-32.35 15.1-39.68 11.58-9.5 30.12-19.3 42.87-6.77z" fill="#bf4904"/><path d="M2145.05 3565.49c1.48-.78 3-1.47 4.57-2.1a66.51 66.51 0 0 1 9.65-3 57.06 57.06 0 0 1 10.08-1.44 40.93 40.93 0 0 1 5.1.11 23.17 23.17 0 0 1 5 .94 25.86 25.86 0 0 0-5-.85 37.86 37.86 0 0 0-5.09 0 57.86 57.86 0 0 0-10 1.61 64.79 64.79 0 0 0-9.47 3.19 49.11 49.11 0 0 0-4.46 2.15 39.13 39.13 0 0 0-3.7 2.29c2.63 2.24 5.3 4.43 8 6.61 1-.34 2.06-.64 3.11-.93s2.35-.61 3.54-.87c2.38-.52 4.77-1 7.19-1.35a57.26 57.26 0 0 1 7.31-.64 22.58 22.58 0 0 1 3.65.23 7.1 7.1 0 0 1 1.74.52 2.39 2.39 0 0 1 1.27 1.15 2.47 2.47 0 0 0-1.31-1.09 7.38 7.38 0 0 0-1.73-.43 18.65 18.65 0 0 0-3.62-.09 54.15 54.15 0 0 0-7.19.93 100.69 100.69 0 0 0-10.48 2.61c-.8.26-1.62.52-2.41.8 2.24 1.82 4.46 3.62 6.66 5.44 1.2 1 2.39 2 3.54 3.05.58.52 1.14 1.06 1.7 1.61a20 20 0 0 1 1.55 1.7c-.51-.57-1.07-1.1-1.63-1.62s-1.17-1-1.78-1.52c-1.2-1-2.44-2-3.69-2.91-.74-.54-1.48-1.11-2.22-1.67a6 6 0 0 0-.19 2.14 11.41 11.41 0 0 0 .44 2.36 16.15 16.15 0 0 0 .85 2.3 11 11 0 0 0 1.29 2.15 10.49 10.49 0 0 1-1.5-2.07 14.11 14.11 0 0 1-1.12-2.25 12.06 12.06 0 0 1-.71-2.42 10.75 10.75 0 0 1-.25-3.1l-3.84-2.84v-.07a1.67 1.67 0 0 1-.24-.17q-2.61-1.91-5.2-3.88a17.37 17.37 0 0 0-.92 3.56 28.09 28.09 0 0 0-.31 3.79 27.19 27.19 0 0 0 .93 7.62 19.47 19.47 0 0 0 1.38 3.64 14 14 0 0 0 2.22 3.28 11.6 11.6 0 0 0 3.23 2.52 12.72 12.72 0 0 0 4.07 1.27 13.09 13.09 0 0 1-4.17-1.12 11.82 11.82 0 0 1-3.43-2.45 15.47 15.47 0 0 1-2.44-3.28 20.56 20.56 0 0 1-1.61-3.66 28.86 28.86 0 0 1-1.34-7.79 27.37 27.37 0 0 1 .13-4c.13-1.15 0-3.45.32-4.86-1.92-1.48-3.83-3-5.73-4.47a16.6 16.6 0 0 0-2 3 25 25 0 0 0-1.79 3.88 37.92 37.92 0 0 0-1.91 8.16 32.88 32.88 0 0 0 0 8.35 19.53 19.53 0 0 0 .95 4.09 11.1 11.1 0 0 0 2.13 3.71 11.17 11.17 0 0 1-2.25-3.68 20.18 20.18 0 0 1-1.12-4.08 33.69 33.69 0 0 1-.22-8.43 38.77 38.77 0 0 1 1.65-8.32 26.07 26.07 0 0 1 1.62-4 17.15 17.15 0 0 1 2.1-3.25l-1.24-1q-3.65-3-7.14-6.13a91.48 91.48 0 0 1-6.64-6.62 48.88 48.88 0 0 1-5.68-7.5 22 22 0 0 1-2-4.29 13.78 13.78 0 0 1-.85-4.82l3.67.11a12 12 0 0 0 .48 3.85 21.65 21.65 0 0 0 1.61 3.87 43.45 43.45 0 0 0 5 7.26c1.9 2.33 4 4.56 6.15 6.73 1.93 2 3.93 3.85 6 5.7a8.87 8.87 0 0 1 .73-.81 16.27 16.27 0 0 1 1.82-1.5 36.66 36.66 0 0 1 4-2.42 57 57 0 0 1 8.76-3.56 48.8 48.8 0 0 1 9.34-2 20.79 20.79 0 0 1 4.8 0 9.32 9.32 0 0 1 2.32.54 5.28 5.28 0 0 1 2 1.19 5.61 5.61 0 0 0-2-1.15 10.56 10.56 0 0 0-2.32-.47 21 21 0 0 0-4.75.12 47.1 47.1 0 0 0-9.18 2.24 54.9 54.9 0 0 0-8.55 3.71 29.6 29.6 0 0 0-3.83 2.45 15.35 15.35 0 0 0-1.65 1.45 7 7 0 0 0-.75.88c1.71 1.53 3.45 3 5.19 4.52a35.42 35.42 0 0 1 3.81-2.41z" fill="#ff7729"/><path d="M1784.83 3389.45c1.7-16.57 15.86-27.84.36-43.08-7.21-7.1-16.29-7-24.95-3.9 0 2.16-.07 4.34-.12 6.46a4.27 4.27 0 0 1 0 .43c-.06 2.73-.13 5.42-.2 8.09v.54c-.1 3.86-.21 7.68-.35 11.45v1.06c0 1-.06 1.92-.1 2.84v.83c-.24 6.31-.48 12.46-.77 18.47a.17.17 0 0 1 0 .11q-.2 4.49-.43 8.89c14 .06 27.26-2.47 29.51-2.54-4-2.73-3.34-5.83-2.95-9.65z" fill="#bf4904"/><path d="M1773.15 3348.47a7.37 7.37 0 0 1 1.54.78 6.42 6.42 0 0 0-1.53-.83 9.57 9.57 0 0 0-2.32-.53 20 20 0 0 0-4.8 0 40 40 0 0 0-5.91 1 4.27 4.27 0 0 1 0 .43 42.16 42.16 0 0 1 5.95-1.24 21.93 21.93 0 0 1 4.75-.14 12.61 12.61 0 0 1 2.32.53z" fill="#ff7729"/><path d="M1780.62 3354.65a25.21 25.21 0 0 1 5 .84 25.94 25.94 0 0 0-5-.93 41.38 41.38 0 0 0-5.11-.11 59.89 59.89 0 0 0-10.07 1.43c-1.88.43-3.74 1-5.56 1.56v.54a58.94 58.94 0 0 1 5.67-1.72 55.25 55.25 0 0 1 10-1.62 43.42 43.42 0 0 1 5.07.01z" fill="#ff7729"/><path d="M1769.89 3367.94a56.13 56.13 0 0 1 7.18-.93 18.74 18.74 0 0 1 3.61.09 7.4 7.4 0 0 1 1.75.43 2.45 2.45 0 0 1 1.29 1.07 2.42 2.42 0 0 0-1.28-1.13 8.43 8.43 0 0 0-1.74-.53 21.14 21.14 0 0 0-3.67-.24 57.63 57.63 0 0 0-7.28.67c-2.41.36-4.81.8-7.18 1.35-1 .22-2 .46-3 .72v1.06c1.1-.35 2.21-.66 3.32-1 2.28-.56 4.62-1.1 7-1.56z" fill="#ff7729"/><path d="M1760.84 3380.07a16.76 16.76 0 0 0 1.12 2.25 10.78 10.78 0 0 0 1.5 2.06 11.62 11.62 0 0 1-1.27-2.15 15.32 15.32 0 0 1-.87-2.3 12.37 12.37 0 0 1-.41-2.36 5.42 5.42 0 0 1 .18-2.13l2.23 1.65c1.25 1 2.48 1.93 3.7 2.9.59.51 1.19 1 1.77 1.52a19 19 0 0 1 1.63 1.66 18.61 18.61 0 0 0-1.55-1.72c-.56-.55-1.13-1.09-1.7-1.61-1.16-1-2.35-2-3.54-3.06l-4.21-3.45v.83c.18.12.35.26.53.36a10.71 10.71 0 0 0 .25 3.11 13.46 13.46 0 0 0 .64 2.44z" fill="#ff7729"/><path d="M1758.57 3392.75a15.16 15.16 0 0 0 2.57.54 12.72 12.72 0 0 1-2.55-.66.17.17 0 0 1-.02.12z" fill="#ff7729"/><path d="M1986 3434.25c-15.49 15.24-1.35 26.5.35 43.07.4 3.81 1.06 6.91-2.8 9.64 4.15.14 45.68 8.68 60.41-6.28 9.25-9.42-6.14-32.37-15.1-39.68-11.55-9.5-30.09-19.31-42.86-6.75z" fill="#bf4904"/><path d="M2020 3448.89c-1.48-.78-3-1.47-4.57-2.1a67.89 67.89 0 0 0-9.65-3 59 59 0 0 0-10.08-1.42 39 39 0 0 0-5.1.1 26.07 26.07 0 0 0-5 .94 24.36 24.36 0 0 1 5-.83 38.54 38.54 0 0 1 5.07 0 55.4 55.4 0 0 1 10 1.63 65.74 65.74 0 0 1 9.48 3.16q2.28 1 4.46 2.15a36.81 36.81 0 0 1 3.69 2.31c-2.62 2.21-5.31 4.41-8 6.6-1-.35-2.06-.66-3.11-.92s-2.36-.6-3.54-.87c-2.38-.54-4.78-1-7.18-1.35a53.16 53.16 0 0 0-7.3-.67 22.4 22.4 0 0 0-3.66.23 8.15 8.15 0 0 0-1.74.52 2.57 2.57 0 0 0-1.29 1.15 2.76 2.76 0 0 1 1.32-1.09 8.07 8.07 0 0 1 1.74-.43 21 21 0 0 1 3.63-.09 58.46 58.46 0 0 1 7.19.94c2.38.44 4.73 1 7.05 1.61 1.15.3 2.32.64 3.46 1 .79.26 1.61.52 2.4.8-2.23 1.82-4.44 3.62-6.65 5.44-1.19 1-2.38 2-3.55 3.07-.58.52-1.14 1.06-1.7 1.59a19.61 19.61 0 0 0-1.56 1.72 21.07 21.07 0 0 1 1.65-1.64c.57-.52 1.18-1 1.77-1.52 1.2-1 2.44-2 3.7-2.88.73-.57 1.48-1.14 2.21-1.67a5.48 5.48 0 0 1 .2 2.11 11.4 11.4 0 0 1-.43 2.38 15.86 15.86 0 0 1-.86 2.3 10.76 10.76 0 0 1-1.27 2.14 11 11 0 0 0 1.5-2.05 16 16 0 0 0 1.11-2.26 11.67 11.67 0 0 0 .7-2.42 10.88 10.88 0 0 0 .26-3.1c1.27-.93 2.56-1.89 3.84-2.84l.25-.18 5.21-3.88a16.66 16.66 0 0 1 .91 3.55 28.25 28.25 0 0 1 .31 3.82 28 28 0 0 1-.92 7.59 20.84 20.84 0 0 1-1.38 3.65 14.84 14.84 0 0 1-2.22 3.28 12 12 0 0 1-3.22 2.51 12.14 12.14 0 0 1-4.08 1.28 12.42 12.42 0 0 0 4.17-1.13 11.86 11.86 0 0 0 3.44-2.45 15.69 15.69 0 0 0 2.44-3.28 19.93 19.93 0 0 0 1.6-3.66 28.61 28.61 0 0 0 1.35-7.79 29.3 29.3 0 0 0-.14-4c-.13-1.15 0-3.45-.33-4.86 1.92-1.47 3.84-2.94 5.73-4.46a16.71 16.71 0 0 1 2 3 27.26 27.26 0 0 1 1.71 3.86 38.53 38.53 0 0 1 1.9 8.16 34.39 34.39 0 0 1 0 8.35 20.36 20.36 0 0 1-1 4.11 11.44 11.44 0 0 1-2.12 3.71 11.15 11.15 0 0 0 2.26-3.67 21.29 21.29 0 0 0 1.11-4.09 34.17 34.17 0 0 0 .24-8.45 39.37 39.37 0 0 0-1.67-8.32 26.91 26.91 0 0 0-1.61-4 17.46 17.46 0 0 0-2.12-3.25c.41-.35.84-.67 1.26-1 2.44-2 4.81-4 7.14-6.14s4.54-4.29 6.64-6.61a47.34 47.34 0 0 0 5.67-7.48 24 24 0 0 0 2-4.31 14 14 0 0 0 .83-4.8l-3.66.09a11.39 11.39 0 0 1-.49 3.87 19.67 19.67 0 0 1-1.6 3.86 44.19 44.19 0 0 1-5 7.28c-1.91 2.32-4 4.54-6.15 6.7-1.93 2-3.95 3.85-6 5.71a6.11 6.11 0 0 0-.73-.8 16.07 16.07 0 0 0-1.81-1.49 30.75 30.75 0 0 0-4-2.41 56.69 56.69 0 0 0-8.77-3.56 47.63 47.63 0 0 0-9.32-2 22.17 22.17 0 0 0-4.81 0 9.37 9.37 0 0 0-2.33.54 5 5 0 0 0-1.94 1.21 5.21 5.21 0 0 1 2-1.17 11.39 11.39 0 0 1 2.33-.47 22.34 22.34 0 0 1 4.73.12 48.08 48.08 0 0 1 9.18 2.24 56.64 56.64 0 0 1 8.56 3.73 32.64 32.64 0 0 1 3.83 2.42 13.4 13.4 0 0 1 1.65 1.46 6.87 6.87 0 0 1 .75.86c-1.7 1.55-3.45 3-5.2 4.54a33.87 33.87 0 0 0-3.77-2.53z" fill="#ff7729"/><path d="M2075.49 3261c4.16.12 45.71 8.66 60.42-6.29 4.1-4.17 3.35-11 .48-17.94q-5.72-3.08-11.46-6.13c-.35-.2-.71-.4-1.07-.58l-7.09-3.78-5.17-2.73a.17.17 0 0 1-.11-.06 4 4 0 0 0-.42-.2c-.33-.17-.67-.34-1-.54q-2.84-1.52-5.72-3c-5.35-2.85-10.69-5.64-16.06-8.45-2.89-1.51-5.77-3-8.68-4.52-.55.47-1.12 1-1.67 1.49-15.48 15.27-1.32 26.52.39 43.08.36 3.83 1.03 6.94-2.84 9.65z" fill="#bf4904"/><path d="M2125 3251a11.27 11.27 0 0 1-2.11 3.71 11.4 11.4 0 0 0 2.23-3.66 19.92 19.92 0 0 0 1.11-4.13 33.2 33.2 0 0 0 .24-8.41 39.09 39.09 0 0 0-1.52-7.87c-.35-.2-.71-.4-1.07-.58 0 .12.08.21.12.35a38 38 0 0 1 1.92 8.14 35.1 35.1 0 0 1 0 8.35 20.87 20.87 0 0 1-.92 4.1z" fill="#ff7729"/><path d="M2088.3 3211.31l.14-.12a.72.72 0 0 0-.16.12s0-.02.02 0z" fill="#ff7729"/><path d="M2107 3221.35c1.38.62 2.75 1.24 4 2-2.24-1.19-4.48-2.38-6.73-3.54a64.15 64.15 0 0 0-6.69-2 59.68 59.68 0 0 0-10.08-1.44 41.52 41.52 0 0 0-5.08.11 25.61 25.61 0 0 0-5 .93 24.49 24.49 0 0 1 5-.83 41 41 0 0 1 5.08 0 55 55 0 0 1 10 1.62 66.81 66.81 0 0 1 9.5 3.15z" fill="#ff7729"/><path d="M2079.39 3230.52a2.49 2.49 0 0 1 1.3-1.06 7 7 0 0 1 1.74-.44 18.59 18.59 0 0 1 3.62-.09 56.33 56.33 0 0 1 7.2.93c2.38.46 4.72 1 7 1.63 1.18.3 2.32.62 3.47 1 .8.27 1.6.53 2.4.81-2.22 1.82-4.45 3.61-6.65 5.46-1.19 1-2.38 2-3.55 3.05-.58.5-1.13 1-1.69 1.58a17.33 17.33 0 0 0-1.56 1.71 20.13 20.13 0 0 1 1.65-1.64c.57-.52 1.18-1 1.77-1.52 1.2-1 2.44-1.93 3.69-2.9.75-.55 1.47-1.1 2.23-1.65a5.49 5.49 0 0 1 .2 2.13 11.91 11.91 0 0 1-.43 2.36 17.19 17.19 0 0 1-.86 2.3 11.35 11.35 0 0 1-1.29 2.15 13.12 13.12 0 0 0 1.52-2 17.59 17.59 0 0 0 1.11-2.27 11.94 11.94 0 0 0 .7-2.44 11.43 11.43 0 0 0 .26-3.1l3.84-2.82v-.06l.25-.17 5.21-3.88a16.84 16.84 0 0 1 .91 3.56 28 28 0 0 1 .31 3.81 28.65 28.65 0 0 1-.92 7.62 19.92 19.92 0 0 1-1.4 3.62 14.53 14.53 0 0 1-2.2 3.28 11.44 11.44 0 0 1-3.24 2.51 13 13 0 0 1-4.07 1.31 13.1 13.1 0 0 0 4.15-1.15 12.35 12.35 0 0 0 3.45-2.43 16.19 16.19 0 0 0 2.45-3.3 21.39 21.39 0 0 0 1.6-3.66 27.9 27.9 0 0 0 1.35-7.79 30.61 30.61 0 0 0-.14-4c-.13-1.15 0-3.45-.34-4.86.77-.58 1.51-1.14 2.27-1.76l-5.17-2.73a35.69 35.69 0 0 1 3.59 2.26c-2.62 2.21-5.31 4.4-8 6.59-1-.35-2.07-.66-3.11-.91s-2.36-.6-3.54-.86c-2.38-.54-4.78-1-7.19-1.35a57.35 57.35 0 0 0-7.31-.67 24.3 24.3 0 0 0-3.67.23 9.75 9.75 0 0 0-1.75.53 2.63 2.63 0 0 0-1.16 1.08z" fill="#ff7729"/><path d="M1968.76 3302.22c-22.61-4-26.13 12.63-41.14 22.47-3.46 2.26-6.12 4.36-10.7 2.82 2 3.26 15.23 39.43 37.18 43 13.78 2.26 27.87-21.37 30.29-32 3.14-13.76 2.96-33.03-15.63-36.29z" fill="#bf4904"/><path d="M1972.22 3335.74a40.76 40.76 0 0 0-.35-4.57 48.68 48.68 0 0 0-2.06-8.94 42.47 42.47 0 0 0-3.82-8.46 32.13 32.13 0 0 0-2.74-3.86 23 23 0 0 0-3.45-3.34 22.8 22.8 0 0 1 3.37 3.4 34.91 34.91 0 0 1 2.63 3.88 42.84 42.84 0 0 1 3.58 8.47 49.42 49.42 0 0 1 1.84 8.9 38.16 38.16 0 0 1 .22 4.51 27.68 27.68 0 0 1-.29 4c-3.49-.87-7-1.78-10.46-2.72-.19-1-.43-1.9-.7-2.83s-.65-2.12-1-3.17c-.73-2.11-1.53-4.17-2.43-6.21a42.76 42.76 0 0 0-3.13-5.92 16.29 16.29 0 0 0-2.12-2.67 6.4 6.4 0 0 0-1.41-1.07 2.83 2.83 0 0 0-1.75-.4 2.94 2.94 0 0 1 1.72.46 6.59 6.59 0 0 1 1.32 1.1 15.67 15.67 0 0 1 1.94 2.73 42.21 42.21 0 0 1 2.81 6c.8 2 1.48 4.13 2.09 6.23.3 1 .58 2.1.83 3.14.18.77.33 1.52.47 2.27-2.88-.78-5.77-1.56-8.66-2.27-1.58-.41-3.16-.8-4.76-1.15-.8-.17-1.61-.34-2.41-.47a17.59 17.59 0 0 0-2.44-.31 22.77 22.77 0 0 1 2.42.42c.79.17 1.58.35 2.37.56 1.57.41 3.14.86 4.69 1.32.91.28 1.83.57 2.76.84a7.74 7.74 0 0 1-2 1.26 15.43 15.43 0 0 1-2.49.89 15.84 15.84 0 0 1-2.65.52 12.73 12.73 0 0 1-2.74.14 13.57 13.57 0 0 0 2.76.09 22.74 22.74 0 0 0 2.75-.31 16.22 16.22 0 0 0 2.69-.72 12.76 12.76 0 0 0 3.08-1.41c1.58.51 3.15 1 4.71 1.48h.07a1 1 0 0 0 .29.09q3.2 1 6.41 2a19.67 19.67 0 0 1-2.93 2.51 31.4 31.4 0 0 1-3.49 2.21 36.37 36.37 0 0 1-7.78 3.21 25.24 25.24 0 0 1-4.21.82 17.74 17.74 0 0 1-4.26 0 13.07 13.07 0 0 1-4.08-1.16 11 11 0 0 1-3.34-2.46 10.83 10.83 0 0 0 3.24 2.58 13.64 13.64 0 0 0 4.1 1.4 21 21 0 0 0 4.41.17 29.23 29.23 0 0 0 4.35-.68 38 38 0 0 0 8.16-3 35.07 35.07 0 0 0 3.72-2.13c1.06-.72 3.3-1.82 4.51-2.77 2.4.71 4.81 1.42 7.23 2.1a16.6 16.6 0 0 1-1.79 3.08 28.24 28.24 0 0 1-2.82 3.29 45.8 45.8 0 0 1-6.84 5.66 42.71 42.71 0 0 1-8 4.34 25.76 25.76 0 0 1-4.41 1.38 14.38 14.38 0 0 1-4.66.29 14 14 0 0 0 4.69-.17 29.39 29.39 0 0 0 4.5-1.26 44.14 44.14 0 0 0 8.21-4.15 48.28 48.28 0 0 0 7.14-5.58 28.58 28.58 0 0 0 3-3.3 16.34 16.34 0 0 0 2-3.29c.55.15 1.09.27 1.62.43 3.16.84 6.36 1.62 9.57 2.3s6.47 1.27 9.78 1.67a58.54 58.54 0 0 0 10.1.47 32.26 32.26 0 0 0 5.16-.64 19.09 19.09 0 0 0 5.06-1.86l-2-2.74a15.09 15.09 0 0 1-4 1.62 31.35 31.35 0 0 1-4.53.77 57.24 57.24 0 0 1-9.53-.06c-3.21-.25-6.44-.71-9.61-1.24-2.87-.48-5.72-1.05-8.56-1.66a7.47 7.47 0 0 0 .39-1 12.91 12.91 0 0 0 .5-2.16 25.69 25.69 0 0 0 .25-4.32 42.16 42.16 0 0 0-1.12-8.54 35 35 0 0 0-2.89-8.18 17.61 17.61 0 0 0-2.45-3.68 9.64 9.64 0 0 0-1.72-1.5 6.11 6.11 0 0 0-2.17-.87 5.55 5.55 0 0 1 2.13.91 9.16 9.16 0 0 1 1.65 1.52 17.21 17.21 0 0 1 2.34 3.69 36 36 0 0 1 2.6 8.18 41.86 41.86 0 0 1 .82 8.46 25.11 25.11 0 0 1-.36 4.2 11 11 0 0 1-.54 2 5.4 5.4 0 0 1-.46 1c-2.34-.5-4.69-1.06-7-1.63a28.17 28.17 0 0 0 .36-4.13z" fill="#ff7729"/><path d="M1758.72 3238.07q.25 5.31.48 10.54c6 12 17 29.7 32 32.14 11.67 1.89 23.53-14.72 28.39-26.32.24-.59.48-1.16.68-1.72a35.35 35.35 0 0 0 1.22-4c3.13-13.75 3-33-15.62-36.27-22.63-4-26.13 12.64-41.15 22.47-2.09 1.38-3.89 2.7-6 3.16z" fill="#bf4904"/><path d="M1809.3 3246a40.39 40.39 0 0 0-.34-4.58 49.71 49.71 0 0 0-2.06-8.93 42.21 42.21 0 0 0-3.84-8.46 31.2 31.2 0 0 0-2.73-3.86 21.42 21.42 0 0 0-3.45-3.32 20.32 20.32 0 0 1 3.36 3.39 30.66 30.66 0 0 1 2.62 3.88 41.93 41.93 0 0 1 3.61 8.47 47.4 47.4 0 0 1 1.82 8.89 36.76 36.76 0 0 1 .24 4.51 29.88 29.88 0 0 1-.29 4c-3.5-.86-7-1.78-10.46-2.69-.19-1-.44-1.93-.71-2.85s-.64-2.12-1-3.17c-.72-2.09-1.52-4.17-2.42-6.18a42.14 42.14 0 0 0-3.14-5.94 15.39 15.39 0 0 0-2.12-2.67 6.29 6.29 0 0 0-1.4-1.08 2.81 2.81 0 0 0-1.74-.37 2.91 2.91 0 0 1 1.72.43 6.07 6.07 0 0 1 1.3 1.11 16.06 16.06 0 0 1 2 2.72 42.13 42.13 0 0 1 2.82 6q1.18 3.06 2.09 6.22c.29 1 .58 2.1.82 3.17.17.74.34 1.5.46 2.25-2.87-.78-5.76-1.53-8.65-2.28-1.58-.41-3.17-.79-4.76-1.15-.8-.17-1.6-.32-2.4-.47a23.74 23.74 0 0 0-2.44-.31 23 23 0 0 1 2.41.42c.79.17 1.58.36 2.35.56 1.58.41 3.14.86 4.69 1.35.92.26 1.84.54 2.75.83a7.34 7.34 0 0 1-1.94 1.25 16 16 0 0 1-2.49.89 19.14 19.14 0 0 1-2.64.54 17 17 0 0 1-2.74.14 18.89 18.89 0 0 0 2.76.09 20.85 20.85 0 0 0 2.74-.34 16.3 16.3 0 0 0 2.69-.72 14.1 14.1 0 0 0 3.09-1.38l4.71 1.46h.08a1.33 1.33 0 0 0 .29.1l6.41 2a19.63 19.63 0 0 1-2.94 2.54 31.14 31.14 0 0 1-3.5 2.19 36.47 36.47 0 0 1-7.77 3.24 30.08 30.08 0 0 1-4.21.8 19.28 19.28 0 0 1-4.29 0 13.28 13.28 0 0 1-4.08-1.18 11.16 11.16 0 0 1-3.33-2.46 11.39 11.39 0 0 0 3.25 2.61 13.6 13.6 0 0 0 4.1 1.37 19.39 19.39 0 0 0 4.4.17 24.27 24.27 0 0 0 4.35-.68 37.86 37.86 0 0 0 8.16-3 39.08 39.08 0 0 0 3.72-2.15c1.06-.69 3.31-1.82 4.5-2.75 2.4.72 4.83 1.41 7.25 2.09a16 16 0 0 1-1.81 3.1 30.33 30.33 0 0 1-2.8 3.28 46.14 46.14 0 0 1-6.85 5.65 43.19 43.19 0 0 1-8 4.34 26.26 26.26 0 0 1-4.42 1.4 14 14 0 0 1-4.66.27 13.89 13.89 0 0 0 4.69-.17 24.5 24.5 0 0 0 4.49-1.26 43.72 43.72 0 0 0 8.22-4.15 49.39 49.39 0 0 0 7.13-5.55 29.86 29.86 0 0 0 3-3.33 15 15 0 0 0 2-3.29l1.63.43c3.16.84 6.34 1.62 9.57 2.3s6.48 1.27 9.79 1.69a60.88 60.88 0 0 0 10.1.45 31.35 31.35 0 0 0 5.17-.64 19.53 19.53 0 0 0 5-1.84l-2-2.76a14.71 14.71 0 0 1-3.94 1.62 28.44 28.44 0 0 1-4.55.77 57 57 0 0 1-9.52 0c-3.22-.26-6.42-.69-9.61-1.24-2.86-.49-5.72-1.06-8.56-1.67a5 5 0 0 0 .39-1 13.48 13.48 0 0 0 .51-2.14 25.71 25.71 0 0 0 .24-4.34 43.43 43.43 0 0 0-1.11-8.54 35.91 35.91 0 0 0-2.89-8.18 17.4 17.4 0 0 0-2.46-3.69 10.06 10.06 0 0 0-1.71-1.5 6.09 6.09 0 0 0-2.19-.86 5.87 5.87 0 0 1 2.14.91 9.71 9.71 0 0 1 1.65 1.53 16.35 16.35 0 0 1 2.38 3.7 34.85 34.85 0 0 1 2.6 8.16 42.52 42.52 0 0 1 .83 8.46 25.25 25.25 0 0 1-.37 4.2 11.85 11.85 0 0 1-.53 2 9.55 9.55 0 0 1-.46 1c-2.35-.52-4.69-1.09-7-1.66a28 28 0 0 0 .23-4.16z" fill="#ff7729"/><path d="M2148.83 3378.81c6.21-19.82 24.42-15.09 41-22.62 3.83-1.73 7.13-2.91 7.66-7.26 2.34 3.08 32.52 29.94 26.17 49.05-4 12-33.95 12.55-45.67 9.67-15.12-3.71-34.28-12.54-29.16-28.84z" fill="#bf4904"/><path d="M2180.76 3396.69a50 50 0 0 1-4.42-2.34 59.17 59.17 0 0 1-8-5.69 46.52 46.52 0 0 1-6.72-6.85 29.4 29.4 0 0 1-2.61-3.93 19.09 19.09 0 0 1-1.77-4.25 19.12 19.12 0 0 0 1.87 4.22 29.89 29.89 0 0 0 2.69 3.83 46.25 46.25 0 0 0 6.83 6.7 56.71 56.71 0 0 0 8.07 5.49c1.41.81 2.89 1.56 4.39 2.24a41.56 41.56 0 0 0 4.15 1.56c.71-3.16 1.37-6.35 2-9.54-.88-.61-1.72-1.24-2.53-1.87s-1.81-1.45-2.71-2.23c-1.76-1.5-3.46-3.09-5.08-4.71a46.21 46.21 0 0 1-4.51-5.18 15.42 15.42 0 0 1-1.72-2.9 5.63 5.63 0 0 1-.44-1.58 2.06 2.06 0 0 1 .41-1.57 2.1 2.1 0 0 0-.33 1.57 5.35 5.35 0 0 0 .53 1.53 14.16 14.16 0 0 0 1.81 2.78 44.19 44.19 0 0 0 4.71 4.95q2.54 2.34 5.28 4.49c.91.72 1.83 1.41 2.79 2.08.68.48 1.35 1 2 1.39.54-2.62 1.08-5.27 1.65-7.91.3-1.45.64-2.88 1-4.32.19-.72.39-1.41.6-2.12a17.2 17.2 0 0 1 .8-2.08 16.35 16.35 0 0 0-.68 2.1c-.19.71-.35 1.43-.5 2.15-.3 1.45-.54 2.88-.79 4.33-.13.85-.26 1.72-.4 2.58a7.52 7.52 0 0 0 2.13-1 12.74 12.74 0 0 0 2-1.58 17.44 17.44 0 0 0 1.73-1.86 12.29 12.29 0 0 0 1.35-2.13 10.76 10.76 0 0 1-1.14 2.23 18 18 0 0 1-1.56 2.06 14.06 14.06 0 0 1-1.93 1.8 13.27 13.27 0 0 1-2.71 1.87c-.21 1.47-.43 2.94-.65 4.43v.26c-.3 2-.6 4-.91 6a23.69 23.69 0 0 0 3.86-1.22 37.67 37.67 0 0 0 3.77-1.78 33.62 33.62 0 0 0 6.73-4.75 22.35 22.35 0 0 0 2.71-3 14.84 14.84 0 0 0 1.94-3.42 9.52 9.52 0 0 0 .66-3.77 9.19 9.19 0 0 0-.94-3.78 9.63 9.63 0 0 1 1.13 3.76 10 10 0 0 1-.49 3.91 14.4 14.4 0 0 1-1.81 3.57 22.42 22.42 0 0 1-2.64 3.17 34.83 34.83 0 0 1-6.66 5.17 36.2 36.2 0 0 1-3.82 2c-1.17.54-3.31 1.82-4.81 2.34-.37 2.26-.76 4.5-1.18 6.72a19.56 19.56 0 0 0 3.91 0 33.49 33.49 0 0 0 4.55-.77 51.54 51.54 0 0 0 8.76-2.88 45.19 45.19 0 0 0 7.94-4.42 23.5 23.5 0 0 0 3.36-2.88 11.29 11.29 0 0 0 2.39-3.58 11 11 0 0 1-2.28 3.65 22.48 22.48 0 0 1-3.29 3 42.28 42.28 0 0 1-7.87 4.66 52.22 52.22 0 0 1-8.78 3.19 38.16 38.16 0 0 1-4.66.89 20.9 20.9 0 0 1-4.22.15l-.29 1.49c-.6 2.88-1.24 5.77-2 8.65a85.76 85.76 0 0 1-2.75 8.54 44.7 44.7 0 0 1-4.1 8.26 23.85 23.85 0 0 1-3 3.82 17.49 17.49 0 0 1-4.11 3.21l-1.86-2.84a13.9 13.9 0 0 0 3.4-2.42 23 23 0 0 0 2.83-3.27 43.17 43.17 0 0 0 4.25-7.6 86.31 86.31 0 0 0 3.1-8.25c.82-2.5 1.54-5 2.21-7.54l-1.17-.14a22.39 22.39 0 0 1-2.37-.58 34.37 34.37 0 0 1-4.42-1.76 55 55 0 0 1-8-4.75 42.33 42.33 0 0 1-6.87-6 16.49 16.49 0 0 1-2.55-3.62 7.55 7.55 0 0 1-.73-2 4.43 4.43 0 0 1 .11-2.13 4.17 4.17 0 0 0 0 2.1 7.78 7.78 0 0 0 .77 2 17.13 17.13 0 0 0 2.64 3.52 41.6 41.6 0 0 0 7 5.76 54.75 54.75 0 0 0 8.06 4.49 37.61 37.61 0 0 0 4.37 1.61 19.46 19.46 0 0 0 2.25.48c.41 0 .82.07 1.22.07.56-2.1 1.05-4.2 1.54-6.33a34.91 34.91 0 0 1-4.47-1.7z" fill="#ff7729"/><path d="M1878.93 3156.52c1.32.32 2.85.58 4.52.82.67.09 1.34.17 2 .22 13.79 1.38 35.71-.57 39.11-10.72 1.86-5.56.6-11.82-2.16-17.93q-7.48-3.54-15-7c-.12-.32-.29-.62-.44-.93a7.32 7.32 0 0 1 .39.89q-14.08-6.56-28.22-13.07c-12.78 2.93-24.65 3.67-29.43 18.91-5.07 16.29 14.1 25.1 29.23 28.81z" fill="#bf4904"/><path d="M1858.08 3135.7a7.26 7.26 0 0 0 .73 2 17.31 17.31 0 0 0 2.55 3.64 41.93 41.93 0 0 0 6.88 6 56.61 56.61 0 0 0 8 4.75 34.42 34.42 0 0 0 4.44 1.75 17 17 0 0 0 2.37.58c.38.06.77.11 1.16.14-.25.93-.5 1.82-.78 2.74-.44 1.6-.91 3.21-1.42 4.8a82.87 82.87 0 0 1-3.12 8.22 43.86 43.86 0 0 1-4.23 7.63 25 25 0 0 1-2.83 3.28 13.49 13.49 0 0 1-3.4 2.41l1.87 2.84a18 18 0 0 0 4.1-3.19 25.51 25.51 0 0 0 3-3.85 43.85 43.85 0 0 0 4.09-8.26 87.55 87.55 0 0 0 2.76-8.54c.45-1.69.87-3.41 1.24-5.12.29-1.17.53-2.36.78-3.56.1-.47.19-1 .29-1.47a21.7 21.7 0 0 0 4.21-.13 36.19 36.19 0 0 0 4.67-.91 55.5 55.5 0 0 0 8.76-3.16 43.07 43.07 0 0 0 7.87-4.68 22.42 22.42 0 0 0 3.3-3 10.88 10.88 0 0 0 2.29-3.65 11.36 11.36 0 0 1-2.38 3.59 25 25 0 0 1-3.38 2.91 44.84 44.84 0 0 1-7.94 4.4 51 51 0 0 1-8.75 2.88 40.18 40.18 0 0 1-4.54.78 20.54 20.54 0 0 1-3.91 0c.43-2.24.82-4.46 1.16-6.72 1.51-.52 3.65-1.79 4.81-2.34a37.64 37.64 0 0 0 3.84-2 34.51 34.51 0 0 0 6.64-5.17 20.77 20.77 0 0 0 2.63-3.14 14.27 14.27 0 0 0 1.81-3.61 9.72 9.72 0 0 0 .49-3.89 9.25 9.25 0 0 0-.68-2.81c-.12-.32-.29-.62-.44-.93a7.32 7.32 0 0 1 .39.89 9.43 9.43 0 0 1 .55 2.86 9.85 9.85 0 0 1-.66 3.78 15.16 15.16 0 0 1-1.94 3.43 21 21 0 0 1-2.7 3 35.24 35.24 0 0 1-6.73 4.75 32.73 32.73 0 0 1-3.78 1.78 24.42 24.42 0 0 1-3.85 1.21c.3-2 .62-4 .91-6a1.77 1.77 0 0 1 0-.28v-.08c.22-1.47.43-2.94.65-4.41a13 13 0 0 0 2.8-1.83 15.65 15.65 0 0 0 1.94-1.82 21.94 21.94 0 0 0 1.56-2 12.3 12.3 0 0 0 1.14-2.25 12.49 12.49 0 0 1-1.3 2.06 18.81 18.81 0 0 1-1.73 1.85 12.17 12.17 0 0 1-2 1.58 7.53 7.53 0 0 1-2.12 1c.14-.87.28-1.72.4-2.59.24-1.45.49-2.9.79-4.33.15-.72.3-1.43.5-2.15a18.55 18.55 0 0 1 .68-2.1c-.32.67-.55 1.38-.8 2.08s-.42 1.43-.61 2.15c-.36 1.41-.7 2.85-1 4.29-.59 2.65-1.11 5.29-1.64 7.94-.69-.46-1.37-.93-2-1.41-1-.67-1.87-1.37-2.77-2.08-1.84-1.44-3.6-2.93-5.3-4.48a43.16 43.16 0 0 1-4.7-5 14 14 0 0 1-1.83-2.78 5.1 5.1 0 0 1-.51-1.55 2.28 2.28 0 0 1 .14-1.3 2.41 2.41 0 0 0-.24 1.3 5.34 5.34 0 0 0 .44 1.61 16.07 16.07 0 0 0 1.72 2.89 44.58 44.58 0 0 0 4.51 5.18 88.02 88.02 0 0 0 5.1 4.71c.87.78 1.77 1.51 2.69 2.23s1.65 1.26 2.53 1.87c-.64 3.19-1.31 6.38-2 9.54a33.25 33.25 0 0 1-4.25-1.45c-1.51-.67-3-1.42-4.4-2.23a59.45 59.45 0 0 1-8.06-5.49 46 46 0 0 1-6.85-6.7 32.85 32.85 0 0 1-2.68-3.82 18.49 18.49 0 0 1-1.86-4.23 18.71 18.71 0 0 0 1.75 4.25 30.22 30.22 0 0 0 2.62 3.93 47.59 47.59 0 0 0 6.71 6.85 61.1 61.1 0 0 0 8 5.7c1.44.83 2.89 1.61 4.42 2.35a37.16 37.16 0 0 0 4.33 1.71c-.49 2.12-1 4.25-1.54 6.33a7.23 7.23 0 0 1-1.23-.09 17.55 17.55 0 0 1-2.24-.47 31 31 0 0 1-4.37-1.61 54.56 54.56 0 0 1-8.06-4.49 40.78 40.78 0 0 1-7-5.77 16.25 16.25 0 0 1-2.64-3.51 7.2 7.2 0 0 1-.78-2 4.18 4.18 0 0 1 0-2.1 4.43 4.43 0 0 0-.04 2.09z" fill="#ff7729"/><path d="M1821.25 3478.94c1.77.94 3.55 1.84 5.32 2.76q14.82 7.67 29.38 15.35l1 .52c1.26.67 2.53 1.33 3.79 2l1.33.69c3.54 1.89 7.1 3.79 10.63 5.66l.55.31c3.89 2.08 7.75 4.15 11.61 6.25 3.92-1.7 6.84-4.11 7.89-7.28 6.39-19.12-23.8-46-26.15-49.05-.52 4.35-3.83 5.53-7.65 7.26-14.28 6.44-29.69 3.88-37.7 15.53z" fill="#bf4904"/><path d="M1880 3501.8a42.82 42.82 0 0 1-7.36 4.14l.55.31a41.64 41.64 0 0 0 7-4.25 23.42 23.42 0 0 0 3.31-3 11.59 11.59 0 0 0 2.29-3.66 11 11 0 0 1-2.4 3.57 23.28 23.28 0 0 1-3.39 2.89z" fill="#ff7729"/><path d="M1864.08 3498c-1.09.58-2.22 1.13-3.35 1.62l1.33.69c.9-.46 1.77-.93 2.62-1.42a34.72 34.72 0 0 0 6.68-5.17 23.43 23.43 0 0 0 2.62-3.16 14.08 14.08 0 0 0 1.81-3.59 10.14 10.14 0 0 0 .5-3.89 9.5 9.5 0 0 0-1.13-3.76 9.52 9.52 0 0 1 .93 3.76 10.11 10.11 0 0 1-.65 3.79 15.52 15.52 0 0 1-2 3.4 22.61 22.61 0 0 1-2.71 3 34.15 34.15 0 0 1-6.65 4.73z" fill="#ff7729"/><path d="M1839.73 3475.31a2.27 2.27 0 0 0-.4 1.58 6.45 6.45 0 0 0 .44 1.58 16.18 16.18 0 0 0 1.72 2.9 41.46 41.46 0 0 0 4.52 5.15c1.6 1.64 3.31 3.22 5.07 4.74.89.75 1.8 1.5 2.71 2.23s1.66 1.26 2.53 1.87c-.12.57-.23 1.12-.36 1.69l1 .52c.15-.87.26-1.76.4-2.62a2.11 2.11 0 0 0 0-.28c.21-1.46.42-2.93.64-4.4a14.4 14.4 0 0 0 2.8-1.85 13.83 13.83 0 0 0 1.93-1.83 16.32 16.32 0 0 0 1.54-2 10.18 10.18 0 0 0 1.17-2.22 12 12 0 0 1-1.36 2.1 17.23 17.23 0 0 1-1.72 1.88 14.05 14.05 0 0 1-2 1.58 7.19 7.19 0 0 1-2.12 1c.13-.84.26-1.7.41-2.56.25-1.44.49-2.9.78-4.32.14-.72.31-1.43.51-2.15a17.46 17.46 0 0 1 .67-2.1 16.48 16.48 0 0 0-.79 2.08c-.22.69-.43 1.41-.61 2.13-.37 1.43-.71 2.87-1 4.31-.57 2.62-1.11 5.27-1.63 7.91-.69-.43-1.36-.9-2-1.38-1-.67-1.88-1.38-2.79-2.1a82.936 82.936 0 0 1-5.27-4.47 46.17 46.17 0 0 1-4.71-4.92 15.76 15.76 0 0 1-1.85-2.82 5.83 5.83 0 0 1-.5-1.54 2.09 2.09 0 0 1 .27-1.69z" fill="#ff7729"/><path d="M1826.3 3480.87c.08.26.16.54.27.83-.08-.26-.19-.57-.27-.83z" fill="#ff7729"/><path d="M1196.91 3581.77l.9 25.07q.28 8.07.58 16.13l2.22.87 11.06 4.38c2.33.91 4.66 1.85 7 2.78 3.28 1.32 6.58 2.62 9.88 3.95 2.77 1.11 5.52 2.19 8.31 3.32 3.11 1.24 6.21 2.46 9.34 3.74 2.52 1 5 2 7.56 3.05l9.22 3.71c3.42 1.41 6.86 2.81 10.32 4.21 3.06 1.24 6.12 2.49 9.2 3.77 7.41 3 14.86 6.12 22.36 9.21 3 1.26 6.09 2.54 9.15 3.82 1.78.75 3.56 1.5 5.34 2.26 3 1.25 6 2.51 9.08 3.81q7.62 3.23 15.3 6.49 4.52 1.91 9.09 3.88c8.39 3.62 16.84 7.25 25.31 11q4.46 1.93 9 3.94 11.65 5.13 23.32 10.38c3 1.36 6 2.71 9.07 4.12q7.48 3.36 15 6.79l9 4.17q10.67 4.93 21.35 10c3 1.41 6 2.82 8.92 4.26 3.4 1.61 6.78 3.23 10.17 4.86 3 1.47 6.1 3 9.15 4.45q4.13 2 8.22 4l8.75 4.36q13.88 6.82 27.71 13.92c2.77 1.38 5.54 2.79 8.28 4.23q14.89 7.68 29.69 15.58c2.78 1.47 5.54 3 8.34 4.46q7 3.8 14 7.63c2.86 1.57 5.73 3.18 8.58 4.76 3.6 2 7.22 4 10.82 6l35.26 9.33 9.62 2.51 15.36 4.06c2.55-17 10.33-41.24 18-65 4.94-15.33 9.59-29.79 12.25-40.77a1925.46 1925.46 0 0 0 41.14-231.32c1.8-16 3.37-31.86 4.66-47.35-1.38-.67-2.79-1.33-4.17-2q-10.67-5.17-21.4-10.28l-9.53-4.49q-14-6.6-28.07-13-4.69-2.15-9.43-4.29-13.15-6-26.37-11.78c-3.38-1.5-6.73-3-10.11-4.43q-10.82-4.71-21.68-9.34c-3.28-1.39-6.56-2.8-9.84-4.17-4.84-2.05-9.69-4.07-14.54-6.08-3.2-1.33-6.44-2.67-9.66-4-5.61-2.3-11.25-4.57-16.9-6.87l-9.45-3.77c-4.66-1.87-9.34-3.71-14-5.57-3.2-1.24-6.41-2.5-9.62-3.76q-12.21-4.75-24.5-9.38-5-1.93-10-3.79-7.18-2.69-14.42-5.35a702.22 702.22 0 0 0-10-3.66l-.29-.14c-3.17-1.15-6.35-2.3-9.51-3.42q-13.28-4.8-26.68-9.49c-3.17-1.11-6.33-2.21-9.51-3.3l-17.33-6-10-3.39q-13.45-4.52-27-8.95c-3.06-1-6.15-2-9.23-3q-12-3.91-24.2-7.73c-3.32-1.06-6.66-2.07-10-3.13q-16.37-5.08-33-10.06c-3.2-1-6.44-1.93-9.64-2.91-7.08-2.08-14.19-4.19-21.33-6.24q-4.81-1.41-9.64-2.78-14.74-4.27-29.69-8.41c-3.23-.92-6.46-1.81-9.72-2.72-9.22-2.53-18.53-5-27.87-7.57-5.93 113.66-2.52 227.76 1.45 340.43z" fill="#24a681"/><path d="M1598 3804.31c2.86 1.57 5.73 3.18 8.58 4.76 28.31-61.7 49.72-125.92 67.15-190.82 11.79-43.91 29.79-86.26 42.22-130.08 5-17.66 9.73-35.7 12.14-53.92l-9.53-4.49c-.66 5.58-1.59 11.13-2.66 16.63-6.27 32.21-16.58 63.71-27.4 94.87-6.53 18.83-13.71 37.49-19.52 56.5-10.44 34.17-18.87 68.73-30.26 102.69a1044.2 1044.2 0 0 1-40.72 103.86z" fill="#ffdda6"/><path d="M1537.71 3772.42c2.77 1.38 5.54 2.79 8.28 4.23 13.77-24.16 26.23-48.94 37.47-74.08 42.39-94.83 70.74-198.7 71.29-301.9-3.38-1.5-6.73-3-10.11-4.43-.1 40.17-4.59 80.39-12.2 119.8-17 88.13-48.5 175.96-94.73 256.38z" fill="#ffdda6"/><path d="M1464.78 3736.59c3 1.41 6 2.82 8.92 4.26 12.33-23.52 21.69-48.42 29.52-72.41 17.83-54.49 27.59-110.46 41-165.86 10.81-44.81 23.1-90.7 27.83-136.8l-9.45-3.77c-4.59 48-17.94 95.8-29 142.33-13.18 55.21-22.87 111-41.1 165.19-7.57 22.29-16.34 45.26-27.72 67.06z" fill="#ffdda6"/><path d="M1410.42 3711.53c3 1.36 6 2.71 9.07 4.12q1.22-3.41 2.48-6.79c14.85-40.37 32.26-80.45 42.42-122 15-61.56 34-122.41 43.72-184.92a553 553 0 0 0 6.31-58.61q-5-1.93-10-3.79c-.18 5.39-.48 10.74-.87 16-3.52 47.8-14.12 95-26.05 141.57-7.47 29.13-15.68 58.12-22.76 87.33-6.55 27-16.59 53.26-26.44 79.4-5.99 15.88-12.08 31.73-17.88 47.69z" fill="#ffdda6"/><path d="M1378.14 3697.22q4.46 1.93 9 3.94c5.1-13.17 10.29-26.31 15.41-39.45 9.2-23.7 18.14-47.51 25.17-71.8 4.75-16.33 9.22-32.7 14.22-49 17.19-56 35.31-112.07 43.94-169.78 1.78-11.91 3.32-24.35 4.16-37a702.22 702.22 0 0 0-10-3.66c-1.53 32.5-7.72 64.77-15.51 96.49-13.23 54-30.74 107.16-46.46 160.56-11 37.2-25.86 73.35-39.93 109.7z" fill="#ffdda6"/><path d="M1319.37 3672c3 1.25 6 2.51 9.08 3.81 3.72-9.2 7.61-18.3 11.49-27.37 14-32.62 28.89-65.05 40.55-98.42 4.83-13.86 7.82-27.95 11.56-42.07 3.84-14.49 8-28.9 12.25-43.3 9.29-31.51 18.93-62.93 27-94.69 4.37-17.07 8.69-34.7 12.18-52.56-3.17-1.11-6.33-2.21-9.51-3.3-3.23 16.87-7.25 33.5-11.34 49.6-8.08 31.86-17.63 63.38-27 95-4.26 14.5-8.52 29-12.42 43.63-3.69 13.86-6.41 27.91-11.1 41.53-11.73 34-26.81 67-41 100.24-3.95 9.26-7.92 18.58-11.74 27.9z" fill="#ffdda6"/><path d="M1273.31 3653c3.06 1.24 6.12 2.49 9.2 3.77 9.09-33.21 18.38-66.36 30-98.92 21-58.71 42.26-117.06 55.14-177.75 5.9-27.78 10.52-56 11.92-84.24-3.06-1-6.15-2-9.23-3-1.24 25.54-5.51 51.07-10.37 75.24-12.06 60.15-31.57 118.7-53.18 176.6-13.23 35.57-23.46 71.87-33.48 108.3z" fill="#ffdda6"/><path d="M1247.36 3577.33q-5.26 30.43-10.5 60.94c3.11 1.24 6.21 2.46 9.34 3.74q.48-2.28.87-4.55 2.6-15.06 5.21-30.14 5.38-31.39 10.8-62.79c3.52-20.4 7.17-40.7 9.48-61.23 2.31-20.35 4.65-40.69 7.19-61 6.24-50.33 13.61-100.53 23.44-150.36-3.2-1-6.44-1.93-9.64-2.91q-6.31 31.62-11.29 63.43c-6.26 39.55-11.39 79.23-16.05 119-2.47 21.07-4.42 42.16-8 63.11s-7.21 41.81-10.85 62.76z" fill="#ffdda6"/><path d="M1196.91 3581.77l.9 25.07q.28 8.07.58 16.13l2.22.87c1.92-16.19 4.65-32.33 7.5-48.42 4.47-24.93 10-49.89 12.56-75.09 3.5-33.84 4.07-68 4.94-101.9 1.26-48.68 1.49-98.14 7.29-146.84-3.23-.92-6.46-1.81-9.72-2.72-6.33 51.81-6.38 104.46-7.77 156.25-.9 32.91-1.18 66.17-5.2 99-3.18 26-8.81 51.7-13.27 77.55 0-.01 0 .06-.03.1z" fill="#ffdda6"/><path d="M1652.73 3824.42l9.62 2.51c5.16-22.31 9-44.91 12.56-67.46 4.28-26.83 8-53.75 13.08-80.45 5.41-28.5 14.11-56.12 24.26-83.55 12.22-33 26.71-67 36.82-101.57 1.8-16 3.37-31.86 4.66-47.35-1.38-.67-2.79-1.33-4.17-2-6.35 48.09-27 95.28-43.93 140.46-10.6 28.26-20.43 56.72-26.21 86.09-5.18 26.25-8.9 52.74-13.07 79.15-3.93 24.75-7.92 49.62-13.62 74.17z" fill="#ffdda6"/><path d="M1501.25 3754.14l8.75 4.36c12.17-23.15 25-46 37-69.15 14.22-27.49 27.26-55.36 35.82-84.72q13.81-47.46 23.43-95.74c7.93-39.94 14.62-81 16.69-122-3.28-1.39-6.56-2.8-9.84-4.17-1.69 39.51-7.81 79.07-15.3 117.55-6.31 32.51-14 64.84-23.16 96.82-8.58 29.81-20.93 58-35.38 86-12.26 23.82-25.54 47.26-38.01 71.05z" fill="#ffdda6"/><path d="M1575.67 3792.22c2.78 1.47 5.54 3 8.34 4.46.59-1.69 1.19-3.42 1.8-5.14 11.9-34.32 21.83-69.17 33.12-103.67 5.65-17.31 11.58-34.56 18.33-51.56 6.94-17.46 15.67-34.31 22.16-51.9 20.12-54.38 23.75-111.26 31.12-167.68q-4.69-2.15-9.43-4.29c-1.16 8.86-2.22 17.72-3.23 26.58-4.48 39.29-8.52 78.87-19.65 117.21-10.54 36.38-28.77 70.48-41.25 106.34-14.8 42.61-25.98 86.84-41.31 129.65z" fill="#ffdda6"/><path d="M1253.76 3645.06l9.22 3.71c1.94-7.78 4.05-15.48 6.24-23.11 19-66.06 48.25-129.48 62-196.71a732.79 732.79 0 0 0 15-143.84c-3.32-1.06-6.66-2.07-10-3.13q0 27.44-2.1 54.83a710.69 710.69 0 0 1-18.68 116.92c-8 32.09-20.15 63.17-31.22 94.48-11.38 31.98-22.47 64.1-30.46 96.85z" fill="#ffdda6"/><path d="M1343.74 3682.35q4.52 1.91 9.09 3.88c1.6-4.71 3.24-9.4 4.88-14 12.55-35.37 27.34-70.1 41.8-104.87 9.93-23.83 18.59-48.14 29.11-71.75 10.91-24.51 21.4-49.19 30.19-74.38 9.44-27 17.55-54.77 20.28-83 .24-2.58.46-5.17.6-7.79-3.17-1.15-6.35-2.3-9.51-3.42a216.29 216.29 0 0 1-3.77 29.56c-6.08 32.33-17 63.84-29.47 94.63-9 22.38-19.61 44.21-28.13 66.72-10.41 27.54-22.19 54.66-33.46 81.92s-22.35 54.58-31.61 82.5z" fill="#ffdda6"/><path d="M1304.87 3666c3 1.26 6.09 2.54 9.15 3.82 11.08-35.91 20.89-72.12 30.45-108.35 9.68-36.63 18.26-73.61 30.39-109.67 15.48-46 36.12-94.62 41.8-143.59l-10-3.39c-6.74 62.65-37 122.18-53.1 183.06-15.78 59.39-30.4 119.19-48.69 178.12z" fill="#ffdda6"/><path d="M1434.44 3722.44l9 4.17c47.19-120.59 95.54-242.46 105.12-370.17-3.2-1.24-6.41-2.5-9.62-3.76-8.81 128.02-57.42 249.25-104.5 369.76z" fill="#ffdda6"/><path d="M1228.78 3629.41c3.6-80.6 16.12-161.11 26.83-241.12 5.41-40.42 11-80.85 16.08-121.28.18-1.41.37-2.85.55-4.23q-4.81-1.41-9.64-2.78c-.39 3-.8 6.06-1.18 9.07-10.81 85.08-23.27 170-33.11 255.22-4.1 35.48-8.21 71.06-9.64 106.71 3.28 1.32 6.58 2.62 9.88 3.95q.08-2.78.23-5.54z" fill="#ffdda6"/><path d="M1483.87 3745.7c3 1.47 6.1 3 9.15 4.45 9.45-30.91 22.32-61.07 34.05-91.26 12-31 21.83-62.08 30.79-93.84 7.45-26.39 15.41-52.7 22.27-79.26 7.33-28.43 14-57.18 16.9-86.29.76-7.44 1.38-15.13 1.56-22.87-3.2-1.33-6.44-2.67-9.66-4 .14 15-1.94 30.12-4.15 44.15-8.61 54.93-26.94 107.81-40.86 161.7-14.76 57.09-42.74 110.86-60.05 167.22z" fill="#ffdda6"/><path d="M2342.5 3353.47l4.62 2.89c-2.65-48.88-7.39-97.64-13.61-146.21q-4.2-30-9-59.84a679.14 679.14 0 0 0-38.11-60.25 105.18 105.18 0 0 1-14.43-53.34q1.51-11.27 3-22.54-72.43 2.61-144.81 6.57c1.33 2.68 2.66 5.37 4 8.07s2.62 5.44 3.91 8.17q8.89 18.71 17 38 1.85 4.32 3.65 8.71 7.57 18.3 14.52 37.1c1.05 2.82 2.09 5.66 3.11 8.5q5.11 14.21 9.89 28.68c.92 2.87 1.85 5.72 2.77 8.62q3.75 11.65 7.22 23.41c.84 2.88 1.69 5.77 2.51 8.65q3.47 12.07 6.66 24.27c.8 3.05 1.6 6.09 2.37 9.15q1.62 6.31 3.13 12.66c.71 2.93 1.41 5.84 2.11 8.79q3.13 13.54 6 27.26 9.91 5.56 19.93 11.27l11.56 6.62q15.24 8.75 30.67 17.82 5.08 3 10.15 6 19.88 11.79 39.94 24.09c3.74 2.25 7.49 4.56 11.24 6.88z" fill="#a63232"/><path d="M2331.28 3346.56c3.74 2.27 7.47 4.59 11.22 6.91l4.41-.85q-.25-4.5-.53-9-7.55 1.46-15.1 2.94z" fill="#88a34f"/><path d="M2343 3298.18a573.25 573.25 0 0 0-61.83 18.3q5.08 3 10.15 6c17.07-5.94 34.66-10.95 52.43-15.26q-.35-4.53-.75-9.04z" fill="#88a34f"/><path d="M2340.35 3269.82c-33.94 7-67.72 14.58-101.39 22.22l11.56 6.62c30.13-6.83 60.36-13.6 90.71-19.86q-.43-4.49-.88-8.98z" fill="#88a34f"/><path d="M2334.36 3216.91c-41.73 6.95-83.14 15.94-123.43 27.81.71 2.93 1.41 5.84 2.11 8.79a1027.58 1027.58 0 0 1 122.42-27.75l-1.1-8.85z" fill="#88a34f"/><path d="M2329.44 3182.16c-42 11-84.1 24-124 40.76.8 3.05 1.6 6.09 2.37 9.15a913.83 913.83 0 0 1 122.94-41.07q-.65-4.44-1.31-8.84z" fill="#88a34f"/><path d="M2324.94 3153c-43 11.91-85.74 25-128.68 37 .84 2.88 1.69 5.77 2.51 8.65 42.56-11.85 84.93-24.89 127.58-36.74q-.7-4.44-1.41-8.91z" fill="#88a34f"/><path d="M2306.28 3119.74a1247 1247 0 0 0-120 38.23c.92 2.87 1.85 5.72 2.77 8.62a1205 1205 0 0 1 122.18-38.86q-2.46-4.01-4.95-7.99z" fill="#88a34f"/><path d="M2286.4 3090.07q-2-3.43-3.7-6.95c-36.69 12-73 25.69-109.42 37.66 1.05 2.82 2.09 5.66 3.11 8.5 37.12-12.22 73.63-26.11 110.88-38z" fill="#88a34f"/><path d="M2272 3036.72l.42-3.1c-13.15 4.36-26.22 8.93-39.24 13.58-25.91 9.26-51.8 19-78 27.76q1.85 4.32 3.65 8.71c38.1-12.62 75.5-27.17 113.44-40.1q-.27-3.39-.27-6.85z" fill="#88a34f"/><path d="M2160.51 3019.18q-13.19 4.8-26.34 9.64c1.31 2.71 2.62 5.44 3.91 8.17 17.74-6.51 35.51-13 53.36-19.32q-15.44.72-30.93 1.51z" fill="#88a34f"/><path d="M884 3621.51q-.05 13.44 0 26.8.27 80.3 4.12 159.87c125-20.26 205-13.8 320.32-3.39-.69-59.84-2.71-119.63-4.8-178.43-115.85-45.46-221.45-80.69-317.9-106q-1.54 50.57-1.74 101.15z" fill="#88a34f"/><path d="M1040 3704.83c0 20.6 18.71 37.31 41.77 37.31s41.78-16.71 41.78-37.31-18.7-37.3-41.78-37.3-41.77 16.7-41.77 37.3z" fill="#a63232"/><path d="M884 3621.51q-.05 13.44 0 26.8a16.61 16.61 0 0 0 4.81.68c8.71 0 15.77-6.29 15.77-14.08s-7.06-14.07-15.77-14.07a17.48 17.48 0 0 0-4.81.67z" fill="#a63232"/><path d="M942.8 3762.36c0 8.65 7.85 15.69 17.54 15.69s17.55-7 17.55-15.69-7.86-15.65-17.55-15.65-17.54 6.99-17.54 15.65z" fill="#a63232"/><path d="M972.07 3608.9c0 9.93 9 18 20.13 18s20.13-8 20.13-18-9-18-20.13-18-20.13 8.1-20.13 18z" fill="#a63232"/><path d="M890.39 3705.85c0 3.49 3.18 6.33 7.11 6.33s7.09-2.84 7.09-6.33-3.18-6.35-7.09-6.35-7.11 2.84-7.11 6.35z" fill="#a63232"/><path d="M1151 3755.74c0 9.72 8.8 17.62 19.68 17.62s19.71-7.9 19.71-17.62-8.83-17.58-19.71-17.58-19.68 7.84-19.68 17.58z" fill="#a63232"/><path d="M1136.22 3644.25c0 8.48 7.71 15.37 17.22 15.37s17.2-6.89 17.2-15.37-7.7-15.38-17.2-15.38-17.22 6.87-17.22 15.38z" fill="#a63232"/><path d="M2710.54 4002.33c-24.14 8.55-83.32 116.44-105.23 138.07-42.64 42.08-64 67.33-123.58 69.59-47.43 1.8-403 12.8-480.93-26.47-28.59-14.42-46-25-61.86-52.69-13-22.71-61.67-137.9-51.9-148.6 10.1-11.03 823.5 20.1 823.5 20.1z" fill="#a37a4a"/><path d="M2671.86 4038.7c-47.52 42.56-116.93-5.09-167.16 20.27-45.53 23-114.05 78.68-132.65 127.25-20.09-5-35.39-42.62-56.41-54-26.82-14.46-61.79-18.1-91.21-24.13-46.12-9.45-110.61-12.31-150-42.21 7.35-4.59 13.82-11.61 15-19.91-34.82 10.28-81.17 9.16-117.09 7.5-17.1-.8-40.56-5-56.26-12-22.32-10-25.57-30.92-31.48-54.26-2.5-9.89-9.56-20.59-1.65-27.37 8.16-7 56.92 4.32 67.78 5.43 75.59 7.73 152.11.75 227.79-1.86 144.13-5 284.2 23.19 426.73 36.7 19 1.8 78.06 6 82.54 25.21z" fill="#7a5c38"/><path d="M1950.52 4148.26c277.92 105.47 617.12 27.85 617.12 27.85-5.72 62.7-570.48 70.89-617.12-27.85z" fill="#e1b581"/><path d="M1767.37 3835c13.64-30.25 67.29-96.2 105.29-97.26a101.68 101.68 0 0 1 20.34-36.29c51.19-58.25 142.45-40.55 145.74-40.84 35.78 13.32-19.71 107.87-29.87 132.56a48.84 48.84 0 0 1-5.18 9.46c49.28 4 98.56 5.24 139.73 30.58 21.86 13.45 84.08 59.77 93.8 85.64a14.37 14.37 0 0 1 .38 7c42.36-25.63 92.78-74.56 139-68.07 25.61 3.59 34.62 58.39 59 66.1 23.29 7.36 43.25 2.28 68.21 1.52 15.11-.46 59.25-7 97.24-6.21-3-9.4-5.35-19-3.95-30.13 3.88-30.64 25.67-46.37 51.18-55.1 3.24-11.29 15.07-26 20.84-34 14.16-19.65 45.4-49.16 71.32-40.15l-5.52 5.4c57.37-5.26 104.62 96 104.34 149.37 53.61 74.85 43.7 175.77 30.31 198.41-20-19.15-32.27-44.18-56-60.44-26.22-18-48.44-19.51-78.9-22.5-25.84-2.54-53.39-8.82-77.42-6.73-15.08 1.31-52.67 10.09-67.8 11.1-44 2.89-56.56 5.66-68.78-1.9 0 0 5.56-3.2 13.89-8.45a134.1 134.1 0 0 0-21.06 8.55c-29.87 16.06-54.95 38.75-85.21 55.08-16.31 8.8-27.41 13.79-37.93 30.19-8.68 13.54-9.4 32.43-25.15 40.44-14.69-48.72-80.45-70.35-125.16-74.85-53.59-5.4-108.37-16.12-154.84-44.5q7.41-8 15.05-15.52c-34.73 7.74-76.75 10.92-126.88 6.28-69.86-6.49-104.43-60.24-169.2-11-22.91-24.13-24.23-60.64-14.85-93.85-26.33-20-35.86-59.07-21.96-89.89z" fill="#8cc0b3"/><path d="M2778.22 3937.55c8.7-11.41 16.84-2.06 13.89 6.21 21.54-11.13 17.54 21.57-14.28 24.63-2.33-6.94-4.83-23.93.39-30.84z" fill="#f3d0b4"/><path d="M2333.17 4062.86c1.34-14.29 13.2-10.67 15.08-2.1 12.37-20.85 26.3 9 .93 28.45-5.65-4.64-16.81-17.7-16.01-26.35z" fill="#f3d0b4"/><path d="M2657.4 3891.26c-4.8-13.52 7.48-15.24 12.79-8.24 2.45-24.13 27.66-2.89 12.82 25.41-7.08-1.83-22.7-8.99-25.61-17.17z" fill="#f3d0b4"/><path d="M2437.9 4010.48c8.69-11.42 16.85-2.06 13.89 6.2 21.54-11.13 17.53 21.57-14.27 24.63-2.34-6.93-4.89-23.92.38-30.83z" fill="#f3d0b4"/><path d="M2367.93 3955.73c-4.79-13.53 7.49-15.24 12.8-8.24 2.46-24.13 27.65-2.89 12.82 25.42-7.09-1.84-22.71-9-25.62-17.18z" fill="#f3d0b4"/><path d="M2680.83 3992.55c-11.13-9.05-1.53-16.91 6.64-13.69-10.45-21.89 22.11-16.86 24.17 15-7 2.14-24.07 4.14-30.81-1.31z" fill="#f3d0b4"/><path d="M2176.18 4034.33c-11.13-9.06-1.53-16.91 6.64-13.69-10.45-21.87 22.11-16.86 24.17 15-6.99 2.15-24.07 4.17-30.81-1.31z" fill="#f3d0b4"/><path d="M2822.61 4022.72c-1.14-14.29 11.17-12.78 14.49-4.65 8.6-22.68 27.46 4.34 5.82 27.86-6.36-3.6-19.61-14.55-20.31-23.21z" fill="#f3d0b4"/><path d="M2528.46 4001.41c-1.15-14.3 11.17-12.78 14.49-4.65 8.6-22.67 27.46 4.34 5.81 27.86-6.36-3.62-19.61-14.54-20.3-23.21z" fill="#f3d0b4"/><path d="M2280.93 3935.66c10.57-9.7 16.95.92 12.58 8.55 23.16-7.17 13.47 24.32-18.38 21.73-1.07-7.24-.6-24.41 5.8-30.28z" fill="#f3d0b4"/><path d="M2272.26 4017.32c7.91-12 16.67-3.19 14.28 5.26 20.74-12.56 19 20.34-12.58 25.53-2.8-6.77-6.49-23.54-1.7-30.79z" fill="#f3d0b4"/><path d="M1946.73 3974.65c-1.14-14.3 11.17-12.78 14.49-4.65 8.59-22.68 27.46 4.34 5.82 27.86-6.37-3.59-19.61-14.54-20.31-23.21z" fill="#f3d0b4"/><path d="M1787.91 3853.34c-1.15-14.31 11.17-12.79 14.48-4.66 8.6-22.66 27.46 4.36 5.82 27.86-6.36-3.6-19.61-14.54-20.3-23.2z" fill="#f3d0b4"/><path d="M1896.87 3737.68c1.34-14.29 13.2-10.66 15.08-2.08 12.37-20.86 26.3 9 .93 28.44-5.65-4.64-16.81-17.71-16.01-26.36z" fill="#f3d0b4"/><path d="M1886 3859.64c7.91-12 16.68-3.2 14.28 5.25 20.74-12.56 19 20.34-12.58 25.53-2.81-6.76-6.49-23.54-1.7-30.78z" fill="#f3d0b4"/><path d="M2049.4 3974.25c7.91-12 16.68-3.2 14.28 5.25 20.74-12.56 18.95 20.34-12.59 25.53-2.78-6.76-6.48-23.54-1.69-30.78z" fill="#f3d0b4"/><path d="M1983.82 3683.62c7.92-12 16.67-3.19 14.28 5.27 20.74-12.56 19 20.34-12.58 25.53-2.8-6.77-6.52-23.54-1.7-30.8z" fill="#f3d0b4"/><path d="M1820.72 3948c7.91-12 16.67-3.18 14.28 5.26 20.73-12.56 18.95 20.34-12.59 25.54-2.79-6.75-6.47-23.53-1.69-30.8z" fill="#f3d0b4"/><path d="M2787.47 3838c7.91-12 16.67-3.19 14.27 5.25 20.74-12.56 19 20.34-12.58 25.54-2.78-6.71-6.48-23.49-1.69-30.79z" fill="#f3d0b4"/><path d="M2594.56 3888.95c52.67-30.65 132.06-46.6 189.4-15.93-19.74-35-47.72-120.84-100.09-105.9-27.55 7.86-109.62 94.53-82.48 115.15z" fill="#6a9087"/><path d="M2238.85 3925.61c-26.4 9.65-60.56 59.23-85.26 60-20.37.61 43.25-44.41 18.49-40.4-104 16.9-211.9-13.62-217.54-115.2-1.51-27.15 14.51-87.82 39.39-93.18 36.65-7.91 41.43 104.67 79 120.23s79.48 14.54 119.16 17.32c21.59 1.5 75.1 21.06 46.89 44.51z" fill="#6a9087"/><path d="M2373.05 3876.34c7.08 2.92 3 25.2 9.2 35.07 35.47 56.79 114.36 62.76 148.78 61.34 29-1.19 57.35 17.73 86.22 6.16 49.82-20-3.08-53.75-26.37-67.58-44.32-26.33-89.08-47.84-139.37-60.77-33.88-8.7-73.57-19.93-75 22.44z" fill="#6a9087"/><path d="M2591.76 3885.4c16.34 5.67 41.28 29.76 48.12 46.93 12.22 30.69-11.74 54.21-29.31 32.69-5.12 22-30.74 13.72-36.52-3.13-29 10.83-56.9-25.37-50.91-52.69 5.69-25.91 68.62-23.8 68.62-23.8z" fill="#5c4335"/><path d="M2620.51 3506.4c-7.72 4.87-102-43.22-124.93-50.42-43.75-13.76-94.86-22.61-141.85-20.75-104.77 4.13-194.21 57-266 130.77-67.3 69.16-136 181.68-57.64 269.52 63.9 71.62 206.9 50.86 291.57 44.17 35.83-2.83 67.91-7.18 98.55-28.93 42.1-29.9 70.26-80.72 105.09-118.9 51.4-56.36 119.31-149 92.46-222.75z" fill="#5c4335"/><path d="M2723.66 3613.6c26.13 15.12 52.76 48.45 77.07 68.52 25.17 20.83 54 32.87 82.4 45.76 45 20.42 28.51 35.58-14.39 35.06-21.41-.26-74 15.54-76.17-3.36-23.81 13.21-29 26.93-57.74 21-25.27-5.24-35.29-13.47-29-38.44 10.94-43.29 17.83-128.54 17.83-128.54z" fill="#5c4335"/><path d="M2725.56 3670.57c4.4.12 8.13 7.55 12.5 11.48 6.88 6.16 16.31 10.92 24.43 15.12 13.05 6.77 26.83 12 40.15 18.49 10.46 5 21.33 7.3 31.71 11.36 14.32 5.57 11.42 13.76-2.39 16.92-9.16 2.1-20 2.7-29.42 3.06-12.2.46-16.08 6.94-28.27 8.45-52 6.45-64.09-49.16-58-62.43 3.22-7 8.46-22.43 13.78-22.4z" fill="#dc8061"/><path d="M2052.93 3602.76c91.73-109.8 154.25-126.52 154.25-126.52 49.34 18.87 102.33 40.64 123.34 95.3 18 46.79 13.83 114.35 6.43 164.27-3.9 26.32-50.11 128.85-18.47 127.64 19.11-.73 62.69-31 73.3 1.94 8.47 26.32-54.17 1.66-153 60-4.11-13.81-12-27.76-24.63-35.31-14.58-8.75-30-7.88-45-.74a15.9 15.9 0 0 0-7.13 7.39q-2.05-1.77-4.19-3.31c-21.13-15.21-44-19.25-67.94-25.23-135.41-33.71-106.89-181.69-36.96-265.43z" fill="#7a5946"/><path d="M2724.88 3693.12c31.83 27.22 116.29 53.16 158.25 34.76-16.11-13-36.12-16.36-53.84-27.67C2809 3687.27 2707.8 3594 2707.8 3594s13.13 86.82 17.08 99.16z" fill="#7a5946"/><path d="M2468.24 3480.48c42.09-35.44 141.52 12.16 141.52 12.16 48.69 17.18 89.16 61 110.08 107.65 22.05 49.21 16.5 87.42-3 136.41-15.3 38.36-23.52 100.87-61.82 124.84-11.92 7.46-26 6.82-38 13.9-12.46 7.38-21.75 20.56-33.67 28.88-19.56 13.68-43.19 24.92-65.85 32.78-41.35 14.34-99.63-10.37-128.45-45-32.3-38.86-23.23-89.7-25-137.46-3.54-94.51-14.79-173.96 104.19-274.16z" fill="#7a5946"/><path d="M2541.39 3505.52c-35.22-38.15-45.5-89.61-42.27-126 2-22.15 7-43.46-2.6-65.52-15.14-34.86-32.84-31.84-45.84-3.24-18.79 41.39-51.58 63.87-69.17 107.85-8 20.06-16.47 63-12.09 85 2.78 14 14.94 18.28 19 29.68 3.23 9.18-2.66 19.15 1.47 30.57 15.49 42.89 81.6 19.56 102.51 4.85 18.78-13.22 62.6-48.49 48.99-63.19z" fill="#7a5946"/><path d="M2472.49 3342.25c5.32 1.38-6.16 61.51-4.86 89.33 1.2 25.73 15 67.29 34.86 84.92-2.21 4.3-2.93 5.23-7.88 5.26-17.2.09-13.53-25.34-24.79-29.77-9.21-3.62-22.53.48-27.12 21.78-2.11 9.76 1 32.32-14.56 28.83-5.2-1.16-16-23.4-18.57-40.71-12.89-87.29 26.77-169.06 62.92-159.64z" fill="#dc8061"/><path d="M2474.09 3341.59c-.53.17-1.07.44-1.6.65-.96-3.02 1.6-.65 1.6-.65z" fill="#d7816b"/><path d="M2465.16 3617.58c44-10.33 109.07 13.72 104.59 67.05-7.55 89.82-32.87 117-65.94 138-58.78 37.29-86.8-18.21-100.88-69.37-15.44-56.12-3.67-120.17 62.23-135.68z" fill="#5c4335"/><path d="M2479.11 3925c-39.74 49.19-124.13-50.57-88.8-78.93 21.61-17.34 123.1 36.46 88.8 78.93z" fill="#e3cbc3"/><path d="M2473.85 3788.48c15.5-17.72-20.38-70.69 5.25-78.91 52.46-16.81 59.4 62.34 6.81 76.36-1.54.87-12.06 2.55-12.06 2.55z" fill="#7a5946"/><path d="M2480.23 3900.21c-11-8.27-25 .57-17.91 12.92 5.31 9.29 8.54 5.29 10 11.53 2.42 10.18-22.92 10.65-33.21 9.33 8.58 14.92 58 20.13 67 4 1.52-2.68-6.67-23.31-25.88-37.78z" fill="#403125"/><path d="M2390.18 3889.63c-8.64-19.46 17.72-23.91 6.45-16.9-7.87 4.91-6.45 16.9-6.45 16.9z" fill="#594432"/><path d="M2093.51 3557.8s22 7.25 34.19 15.35c94.5 62.88-17.48 271.42-92.93 226.76-46.81-27.7-44.26-38.46-38.75-73.84 15.88-101.72 97.49-168.27 97.49-168.27z" fill="#3d2d23"/><path d="M1993.2 3754.05c-38.06 37.63-26.6 112.88 13.26 144.49 34.93 27.69 106.39 37 147.83 24.14 49.08-15.2 96.39-43.45 112.83-97.05 22.33-72.83-57.42-83.54-93.22-34.51-24.84 34-66.09 69.06-118 55.76-41.44-10.6-50.68-48.46-62.7-92.83z" fill="#5c4335"/><path d="M2449.15 3904.26a2.07 2.07 0 1 0 2.05-1.65 1.89 1.89 0 0 0-2.05 1.65z" fill="#393722"/><ellipse cx="2433.37" cy="3901.81" rx="1.56" ry="1.68" transform="rotate(-89.4 2431.846 3901.277)" fill="#393722"/><ellipse cx="2438.66" cy="3911.09" rx="1.2" ry="1.32" transform="rotate(-89.36 2438.763 3911.116)" fill="#393722"/><ellipse cx="2431.07" cy="3883.11" rx="1.32" ry="1.55" transform="rotate(-89.39 2430.904 3883.074)" fill="#393722"/><path d="M2414.56 3892.27a1.44 1.44 0 1 0 1.44-1.27 1.39 1.39 0 0 0-1.44 1.27z" fill="#393722"/><ellipse cx="2419.42" cy="3908.12" rx="1.56" ry="1.68" transform="rotate(-89.38 2419.638 3908.174)" fill="#393722"/><path d="M2409.85 3879.49a1.45 1.45 0 1 0 1.46-1.66 1.57 1.57 0 0 0-1.46 1.66z" fill="#393722"/><path d="M2432.31 3868.28a1.44 1.44 0 1 0 1.45-1.54 1.49 1.49 0 0 0-1.45 1.54z" fill="#393722"/><path d="M2492.6 3926.09c12.59 14-5.3 21.59-11.65 17.08-1.63-1.15 4-10 4.21-10.56 1-3.17-2.25-6.23 1.1-9.12.79-.7 5.23 1.37 6.34 2.6z" fill="#d9d6d4"/><path d="M2610.1 3966.72c3.56-2.93 6-7.8 7.17-13 .55-2.58.87-14.6-5.58-16.9-4.07-1.46-7.62 4.8-2.63 10.14 2.68 2.91 2.94 15.6 1.04 19.76z" fill="#3d2d23"/><path d="M2574.05 3961.89c4.57-1.5 8.75-6.41 10-12.17a17.56 17.56 0 0 0-.49-9.4c-1.08-3.27-3.29-6.75-7.38-5.86-3.66.8-9.52 4.79-2.42 11.35a7.74 7.74 0 0 1 2.81 3.89 12.75 12.75 0 0 1-2.52 12.19z" fill="#3d2d23"/><path d="M2474.65 3706.46c-6.08 15.34-.53 33.14 3.1 48.48 2.08 8.75 9.08 22.55 3.74 31.23-2.61 4.24-9.2 3.19-8.56 2.18 6.26-9.88-1.08-31.79-3.39-42.1-8.26-36.88 5.67-41.21 5.11-39.79z" fill="#3d2d23"/><path d="M2259.6 3610.7c18.54 28.64 56.23 39.58 83.88 28.88 4.5-31.35-15.29-110.27-75.57-135-.01-.03-39.57 57.83-8.31 106.12z" fill="#3d2d23"/><path d="M1709.15 2990c-.18 1.1-.37 2.19-.58 3.28 0 .26-.09.53-.16.8-.72 3.8-1.57 7.58-2.58 11.29-22.37 82.76-96.33 105.23-172.72 107.26-36.19 1-73.38-1.39-110.38-2.89-12.55-.51-25.09-.91-37.56-1.07-19.22-.21-38.28.19-57 1.82-2.7.24-5.39.49-8.07.78 1-20.88-1-38.4-5.32-54.35-5.26-19.54-14-36.76-24.86-55-6.79-11.36-14.43-23.12-22.63-36.09-14.84-23.47-69-125.9-49-141.54l5.23-7.59 2.27-3.29 1.65-2.39c.9-.77 1.81-1.53 2.73-2.27 28.56-23.33 64.69-38.29 104.25-46.24a384.46 384.46 0 0 1 82.23-7 467.91 467.91 0 0 1 60.64 5.1c56.32 8.39 110.21 26.56 151.6 51.16.77.46 1.54.91 2.29 1.38 2.3 1.4 4.55 2.8 6.76 4.24a137.64 137.64 0 0 1 18.54 14.4c25.36 23.34 42.77 56 50.43 90.7a179.67 179.67 0 0 1 2.24 67.51z" fill="#fff"/><path d="M1176 3163.53c-17.43 28.63-6.49 70.32 1 102 7.06 29.86-9 114.9 18.71 115a13.28 13.28 0 0 0 1.54-7c3.51 19 32 21.29 34.46-8.67 27.87-.36 3.64-86.58 4.89-109 2.31-41.76 16.82-77 28.54-115.79-23.3 20-65.44 25.24-95.23 19l13.73 1.95z" fill="#231f20"/><path d="M1320.26 3039.47c-36.91 105.2-8 216.88 19.72 217a13.29 13.29 0 0 0 1.54-7c3.51 19 32 21.28 34.46-8.68 27.87-.36-17.84-75.93-16.6-98.4 2.31-41.76 122.42-10 82.37-90.63-39.87-80.28-124.28-92.25-124.28-92.25z" fill="#e3e2de"/><path d="M1328.14 3110.47a176.23 176.23 0 0 1-25.33 30.65c-2.39 2.34-5.17 4.36-7.44 6.95-31.76 36.19-91.45 43.76-121.91 40.29s-65.65-21.34-94.74-34.17q-8.77-3.88-17.25-8.19c-44.66-22.76-82.48-54.54-101.53-89 22.38-9 52.47-15 69.21-33.86a49.47 49.47 0 0 0 7.35-11.15c7.6-15.48 9.33-34.87 17-49.84.16-.33.34-.66.52-1 .43-.81.88-1.61 1.35-2.43l.53-.95c7.09-12.27 17.67-26.29 30.13-39.57 22.16-23.61 50.27-44.91 75.36-50 11.2-18.22 35.47-50.47 44.79-70.57a56.17 56.17 0 0 0 2.79-7.1 114.28 114.28 0 0 1 21.15 18.17c26.5 28.49 46.75 72.5 65.84 112a.17.17 0 0 1 0 .06c5.67 11.71 11.24 23 16.83 33.38a386.3 386.3 0 0 0 4.72 8.5c2.28 4 4.56 7.78 6.87 11.38 30.85 47.87 30.62 94.62 3.76 136.45z" fill="#fff"/><path d="M1703.93 2980.17c48.25 67.37 8.36 114.9-87.57 138.55-65.51 16.15-148.27-18.69-175.18 22-11.66 17.61-16.86 68.44-57.11 49.83-22.3-10.31-26.13-57.63-.48-87.87 42.27-49.84 104.41-39.58 194.88-35.56 120.65 5.36 114.21-54 125.46-86.92z" fill="#231f20"/><path d="M1709.15 2990c-.18 1.1-.37 2.19-.58 3.28 0 .26-.09.53-.16.8a31.78 31.78 0 0 1-12.1 7.92c-7.2 2.74-16.36 3.72-27.79 2.56-43.65-4.45-77.47-39.61-93.48-78.77-30.64-75 34.26-106.44 53.84-114 .77.46 1.54.91 2.29 1.38 2.3 1.4 4.55 2.8 6.76 4.24a137.64 137.64 0 0 1 18.54 14.4c25.36 23.34 42.77 56 50.43 90.7a179.67 179.67 0 0 1 2.25 67.49z" fill="#231f20"/><path d="M1416.55 2837.81c-70 6.17-109.39-37.76-84.18-73.8 0 0 .67-.57 2-1.52a384.46 384.46 0 0 1 82.23-7 467.91 467.91 0 0 1 60.64 5.1c11.98 32.9-29.3 74.41-60.69 77.22z" fill="#231f20"/><path d="M1291.45 3001.2l-1.56.7a120.21 120.21 0 0 1-16.54 5.82l-2.37.64c-69.81 18-179.15-10-184.91-90.15 22.16-23.61 50.27-44.91 75.36-50 11.2-18.22 38.26-57.58 47.58-77.68 5.78 6 24.41 75.83 75.66 111.48 5.87 4.08 24.64 41.39 28.18 52.09 6.21 18.83 3.51 35.66-21.4 47.1z" fill="#231f20"/><path d="M1111.26 3060.25c2.7 25.91-8.19 75.88-32.54 93.94q-8.77-3.88-17.25-8.19c-36.54-65.6-41.28-11.21-86.7-94.41 27.91-16.32 61.13-35.38 61.72-39.6 7.6-15.48 9.33-34.87 17-49.84 29.79 25.37 53.57 57.85 57.77 98.1z" fill="#231f20"/><path d="M1154.76 3111.44q-1.37-.19-2.75-.51l.54-2.32c9.5 2.22 18.63-.55 24.4-7.41 4.86-5.77 6.34-13.44 3.76-19.54l2.2-.93c3 7 1.38 15.45-4.14 22-5.77 6.89-14.62 10.04-24.01 8.71z" fill="#231f20"/><path d="M1242.21 3038.83c-2.84-.41-5.4-2.35-7.33-5.67l2.06-1.2c2.17 3.74 5.13 5.26 8.33 4.25 5.58-1.75 10.77-10.68 9.81-22.6l2.38-.2c1.11 13.6-5.08 23.07-11.47 25.07a8.53 8.53 0 0 1-3.78.35z" fill="#231f20"/><path d="M1203.84 3132.82l-.11-2.38a34.11 34.11 0 0 0 26.17-13.52 36.93 36.93 0 0 0 6.1-30.92l-.58-2.46 2.26 1.11c17.07 8.37 29.86-1.14 36-7.56 12.59-13.23 18.6-35.12 12.61-45.93l2.09-1.15c6.43 11.61.25 34.83-13 48.73-10.72 11.27-23.63 14.43-36.58 9a39.06 39.06 0 0 1-7 30.54 36.44 36.44 0 0 1-27.96 14.54z" fill="#7d7a7b"/><path d="M1211.62 2823.25c-3 4.22-44.5 59.87 11.15 53.84 17.64-1.91-3.09-44.96-11.15-53.84z" fill="#daa086"/><path d="M1240.15 3076.65a10.48 10.48 0 1 0-13.88 15.54c3.37-2.49 8.26-3.91 11.79-1.76a8.1 8.1 0 0 0 2.33-2.54 9.41 9.41 0 0 1-.24-11.24z" fill="#dc8061"/><path d="M996.39 3075.26c3.38 3.9 47.4 57.61 54.94 2.14 2.39-17.59-44.39-7.83-54.94-2.14z" fill="#daa086"/><path d="M1046.48 3404.52h-.47c3.11-54.21 9.22-92 20.43-126.39 13.23-40.58 33.59-75.4 64.08-109.56 2-2.19 4-4.53 6.14-7 14.94-17.18 33.54-38.56 52.84-41.52l.07.47c-19.13 2.94-37.66 24.24-52.55 41.36-2.15 2.47-4.18 4.81-6.14 7-63.07 70.63-79.05 142.52-84.4 235.64z" fill="#7d7a7b"/><path d="M1102.19 3394.67h-.47c-2.1-53.8 2.61-102.41 14-144.46 14.47-53.52 39.54-94.8 74.51-122.68l.29.36c-79.15 63.11-91.72 179.9-88.33 266.78z" fill="#7d7a7b"/><path d="M1152.93 3374h-.47c-3.09-32.79-5.28-82.33 1.9-132.09 7.8-54.12 24.75-94.42 50.37-119.78l.33.33c-25.55 25.29-42.46 65.49-50.24 119.51-7.16 49.78-4.97 99.28-1.89 132.03z" fill="#7d7a7b"/><path d="M1278.9 3035l-.43-.18c14.35-34.36 50.55-59.89 107.58-75.87 37.27-10.45 81.74-16.59 136-18.78v.47c-54.19 2.18-98.63 8.32-135.86 18.75-56.9 15.93-92.99 41.36-107.29 75.61z" fill="#7d7a7b"/><path d="M1283.84 3045.83l-.39-.26c19.94-29 57.18-48.84 110.67-59.1 44.1-8.46 91.69-9 128.22-8.51v.47c-36.51-.48-84.07.05-128.13 8.51-53.37 10.23-90.5 30.06-110.37 58.89z" fill="#7d7a7b"/><path d="M1278.4 3065.33l-.42-.22c6.26-12.08 17.82-21.61 34.34-28.34 14.07-5.72 32.13-9.56 53.68-11.4 39.25-3.37 83 .4 111.87 2.88 7.71.66 14.38 1.24 19.83 1.59v.47c-5.46-.35-12.12-.92-19.84-1.59-28.9-2.49-72.58-6.25-111.79-2.88-46.67 4-76.16 17.28-87.67 39.49z" fill="#7d7a7b"/><path d="M1195.83 3356.91c-4 12.17 3.9 22.53 14.56 27.75 3.82 1.87 6.46-4.16 2.66-6-7.07-3.47-14-10.53-11.19-19.06 1.32-4-4.7-6.69-6-2.66z" fill="#514e4f"/><path d="M1219 3342c-4.53 10.1 5.44 20.16 14.11 23.66 3.93 1.59 6.61-4.43 2.66-6-5.1-2.06-13.68-8.45-10.74-15 1.74-3.88-4.29-6.53-6-2.66z" fill="#514e4f"/><path d="M1339.14 3229.76a26 26 0 0 0 1.37 25c5.31 8.56 15.7 9.4 24.32 6 3.95-1.56 1.57-7.7-2.38-6.14-6.75 2.67-13.11 1.94-17.11-4.51-3.22-5.19-2.76-12.41-.17-17.69 1.87-3.82-4.16-6.46-6-2.66z" fill="#aaaaa7"/><path d="M1363 3223.83c-1.71 9.36 6 15.6 14.49 17 4.2.67 5.24-5.83 1-6.5-5-.8-10.08-3.7-9-9.42.76-4.19-5.74-5.21-6.5-1z" fill="#aaaaa7"/><path d="M1937.71 3005c17.16 36 69.7 34.27 99.82 29.57a239.26 239.26 0 0 0 24.57-5.22c67.54-18 135.08-64 196.26-96.25 46.88-24.73 77.28-36.34 44.66-92.41-19.23-33-37-80.59-37-80.59-63.61-33-213.32 112.16-267.57 155.84-.91.74-1.78 1.44-2.64 2.1-32.73 25.76-80.58 39.7-58.1 86.96z" fill="#ed9e85"/><path d="M1937.71 3005c17.16 36 69.7 34.27 99.82 29.57a239.26 239.26 0 0 0 24.57-5.22c-.46-10.44-13-16.27-22.89-27-18.85-20.48-28.94-58.41-40.73-86.45-.91.74-1.78 1.44-2.64 2.1-32.76 25.8-80.61 39.74-58.13 87z" fill="#f5d7bd"/><path d="M1979.27 2925.35c.44-.22.89-.45 1.33-.7a160.79 160.79 0 0 0 22.52-15.09l.14-.11c1.92 3.42 3.76 6.89 5.57 10.34 4.64 8.83 9 17.8 13.41 26.75q3 6.16 6 12.33c.11.23.2.42.28.57l.08.18 1.53 3.11q1.79 3.61 3.6 7.22c7.93 15.82 16.15 31.68 26.43 46.13 1 1.47 2.14 2.92 3.25 4.34.44.57 2 2.49 2.49 3q2.09 2.28 4.37 4.35c-3.52 1.27-7.09 2.42-10.7 3.42-2.87.79-5.75 1.53-8.66 2.18l-.71.12c-1.26.22-2.52.44-3.78.63-3.06.45-6.13.81-9.21 1-7.16-9.73-13-20.4-17.7-28.9-4.54-8.28-8.8-16.71-13-25.17q-3.66-7.37-7.26-14.77l-3-6.18-1.5-3.07-.28-.58-.54-1.09c-4.89-9.94-9.8-20-15.29-29.63z" fill="#eff2f2"/><path d="M2097.53 3172.24c21-5.8 44.11-16.22 67.29-29 65.57-36.08 131.58-90.75 150.86-111.67 162.2 200.16 260.42 208.41 462.79 159.53 0 0-16.39-137.51-61.07-211.31-31.11-51.41-59.23-136.09-109.21-149.85-41.33-11.37-71.43-30.68-115.68-40-95.31-20.14-227.46-28.35-312.56 38.93-55.79 44.1-103.69 146.15-139 227.54-9.5 21.88-18.08 42.29-25.65 59.65-23.59 54.11 34.01 69.5 82.23 56.18z" fill="#f2b199"/><path d="M2097.53 3172.24c21-5.8 44.11-16.22 67.29-29-25.76-4.06-53-19.2-73.75-34.46-18.74-13.76-32.91-37.39-50.11-52.4-9.5 21.88-18.08 42.29-25.65 59.65-23.6 54.14 34 69.53 82.22 56.21z" fill="#f5d7bd"/><path d="M2036.09 3053.31c3.28-5.66 6.63-11.32 9.58-17.17.85-1.69 1.67-3.39 2.44-5.12 4.41 4 8.68 8.23 12.87 12.51 16 16.38 28.44 30.55 45.28 45.17 24 20.82 49.38 34.14 77.8 45.92q-5.18 3.19-10.33 6.4c-2.44 1.51-4.87 3-7.32 4.51l-.2.12c-.95.55-1.9 1.11-2.86 1.66q-5.24 3-10.61 5.66c-21.92-10.42-42.81-22.73-61.71-38.43-17.51-14.54-32-30.36-47.93-47.15-3.51-3.7-6.47-6.79-9.54-9.79.85-1.43 1.7-2.85 2.53-4.29z" fill="#eff2f2"/><path d="M2919.56 2510.93q-4.13 5.09-9.15 10.29c-2.16 2.29-4.45 4.57-6.84 6.89-13.05 12.61-29 25.56-45.56 38-10 7.5-20.29 14.83-30.28 21.77-25.06 17.42-48.42 32.42-62.11 42-46.66 32.75-106.54 59.31-167.37 57.43a183.2 183.2 0 0 1-28.67-3.06 174.4 174.4 0 0 1-26.36-7c-65.06-22.72-123.29-30.76-166.57-163.36-1.21-3.7 180.15 23.18 419.06-118.2 29-17.18 80.67 58.22 93.08 59.25 4 .34 7.88.7 11.48 1.09 2.61.29 5.1.59 7.43.9 10.58 1.46 18 3.26 20.37 5.49a23.12 23.12 0 0 1 4.69 6.1 21.61 21.61 0 0 1 2.05 13.53c-.07.51-.17 1-.26 1.52-1.67 8.37-7.05 17.63-14.99 27.36z" fill="#f2b199"/><path d="M2599.36 2810.23c36.42 48.51 60.49 113.87 78.27 169.26 14.44 45 21.9 188.35 46.29 242.56 39.08-3.32 76.69-12 108.36-25.12 18.22-7.54 34.49-16.54 47.95-26.82l.58-.44c40.75-31.4 74.75-79.59 100.82-132 7.68-15.43 14.69-31.24 21-47.09a627.08 627.08 0 0 0 29.82-97.26c5-23 9-55.48 11.07-91.13 1-18.29 1.52-37.4 1.31-56.5-.8-71.43-11.41-142.67-40.11-169.35l1.09-16.42c-96.93 4.23-159.3-119.81-266.66 70.65-36.34 64.45-67.65 128.68-130.14 173.09-3.42 2.34-6.61 4.56-9.65 6.57z" fill="#f2b199"/><path d="M2563 2786.26c6.59-9.91 19-11.47 28.62-5.61 57.34 34.89 80.33 106.7 93.43 169.67 13.55 65.1 16.41 131.75 32 196.51q4.12 17.1 9.28 33.9c.66 2.16 1.36 4.31 2.06 6.45-.12-.43 1.59 4.57 1.79 5.13 1.85 5.2 3.86 10.33 6 15.43q3 7.21 6.54 14.17-5.47.84-11 1.72c-11.05.08-22.09.22-33 1.63-2.45-5.94-4.69-12-6.78-17.94-11.85-33.93-19.89-69.09-26-104.55-5.47-31.91-8.07-64.17-12.87-96.17-4.87-32.46-11-64.82-20.67-96.15-.15-.48-1.41-4.3-1.69-5.17-.75-2.19-1.53-4.37-2.32-6.55-2-5.47-4.2-10.86-6.51-16.2a226.81 226.81 0 0 0-14.77-28.39l-.46-.73c-.55-.82-1.1-1.65-1.66-2.45-1.37-2-2.8-3.93-4.25-5.87a149.16 149.16 0 0 0-10.38-12.26c-1.61-1.72-3.3-3.37-5-5-1.28-1.13-2.61-2.21-3.94-3.29a116.72 116.72 0 0 0-13-9c-9.63-5.93-11.42-20.22-5.42-29.28z" fill="#fff"/><path d="M2904.49 2969.34l-.24 3.65a29.15 29.15 0 0 1-30.5 27.08c-15.61-.93-28.13-14.82-27.09-30.5l.24-3.65a29.15 29.15 0 0 1 30.5-27.08c15.6.94 28.13 14.83 27.09 30.5l-.24 3.65a29.15 29.15 0 0 1-30.5 27.08c-15.61-.93-28.13-14.82-27.09-30.5l.24-3.65a29.15 29.15 0 0 1 30.5-27.08c15.6.94 28.13 14.83 27.09 30.5z" fill="#eff2f2"/><path d="M2782.57 3122.23a29.15 29.15 0 0 1-27.08-30.51c.94-15.6 14.83-28.13 30.5-27.08a29.15 29.15 0 0 1 27.08 30.5c-.93 15.6-14.82 28.13-30.5 27.09z" fill="#eff2f2"/><path d="M2746.89 2924.46a29.15 29.15 0 0 1-27.08-30.5c.94-15.6 14.83-28.13 30.5-27.08a29.15 29.15 0 0 1 27.08 30.5c-.94 15.61-14.82 28.13-30.5 27.09z" fill="#eff2f2"/><path d="M3021 2772.34a29.1 29.1 0 0 0 22.48 29.81c1-18.29 1.52-37.4 1.31-56.5a29.24 29.24 0 0 0-23.79 26.69z" fill="#eff2f2"/><path d="M2951.63 3007.09a29.16 29.16 0 0 0 27.1 30.49c1 .06 1.94.07 2.9 0 7.68-15.43 14.69-31.24 21-47.09a29.16 29.16 0 0 0-20.46-10.54c-15.71-.95-29.6 11.54-30.54 27.14z" fill="#eff2f2"/><path d="M2923.09 2848.87q.17-2.43.32-4.86a28.84 28.84 0 1 1 57.58 3.42l-.32 4.86a28.85 28.85 0 1 1-57.59-3.42z" fill="#eff2f2"/><path d="M2952.1 2703.64l-4.87-.33a28.85 28.85 0 0 1 3.42-57.59l4.86.33a28.84 28.84 0 0 1-3.41 57.59z" fill="#eff2f2"/><path d="M2847.39 2809a29.15 29.15 0 0 1-27.08-30.5c.94-15.6 14.83-28.13 30.5-27.08a29.14 29.14 0 0 1 27.08 30.5c-.93 15.61-14.83 28.13-30.5 27.09z" fill="#eff2f2"/><path d="M2823.25 3174.4a28.7 28.7 0 0 0 9 22.52c18.22-7.54 34.49-16.54 47.95-26.82a29.25 29.25 0 0 0-26.46-22.79c-15.66-1.05-29.55 11.5-30.49 27.09z" fill="#eff2f2"/><path d="M2440.43 2418.93c-46.46-60.91-51.54-184.5-51.54-184.5s15.28-25.39 3.74-60.55c-35.19 5.25-53.19-27.78-21.59-41.7 6.46-2.84 55.71-69 51.82-117-12.91-160 267.06-191.44 369.13-129.67 177.31 107.3 188.13 283.76 125.85 452-34.79 94-147.55 189.19-316.12 172.95-75.85-7.31-119.65-36.92-161.29-91.53z" fill="#f5d7bd"/><path d="M2574.65 2033.53c-6.47-14.35-15.5-23.52-26.82-27.25-10.85-3.56-22.78-1.79-35.48 5.28l7.34 12.09c9-5 17-6.43 23.76-4.21 9 3 14.8 12.22 18.06 19.46z" fill="#a37a4a"/><path d="M2463 2313.39c40.16 46.86 113.41 52.52 163.62 12.63s58.34-110.2 18.17-157.07-113.41-52.52-163.62-12.64-58.33 110.22-18.17 157.08z" fill="#fdd4b9"/><path d="M2394.79 2239.18c-25.21-3.54-16.3-22.86 1.55-13.81 0 0 33 10 8 25.44-21.27 13.14-34.47-13.63-9.55-11.63z" fill="#f2b199"/><path d="M2573.63 2100.84c-8.05 4.06-15.79 7.36-23.61 9a65.65 65.65 0 0 1-22.95 1 80.6 80.6 0 0 1-21.92-6.38 48.67 48.67 0 0 0-11.26-4.13 47.94 47.94 0 0 0-6.76-1 41.79 41.79 0 0 0-8.27.11 22.65 22.65 0 0 0 2.27 8.13 27.15 27.15 0 0 0 4.26 6.34 31.66 31.66 0 0 0 12.19 8.22 71.33 71.33 0 0 0 29.17 6.08 56.19 56.19 0 0 0 28.13-7.73 49.91 49.91 0 0 0 18.75-19.64z" fill="#6d5231"/><path d="M2891.36 2112.57a47.54 47.54 0 0 1-4.25 2.42c-19-24.42-22.08-57-29.59-86.71-.21-.78-.4-1.56-.61-2.35 71.92-54.78 83 55.8 34.45 86.64z" fill="#f3cdac"/><path d="M2891.36 2112.57a47.54 47.54 0 0 1-4.25 2.42c-19-24.42-22.08-57-29.59-86.71 54.05-29.35 65.09 47.39 33.84 84.29z" fill="#feaf91"/><path fill="#b85b5b" d="M2329.74 2929.13l49.64-80.14-307.13-506.63 16.18 200.64 241.31 386.13z"/><path d="M2104.47 2559.92c-29.52-49.17-23.67-88 2.67-137.38 25.41-47.65 87.75-104.69 102.13-121.67-.34 12.21 15.11 61.91 15.11 61.91s-98.85 194.3-108 193.52z" fill="#e8d5c1"/><path d="M2115 2560.9c-17.35-54.84-9.05-79.77 17.46-129.14 22.42-41.76 106.65-103.9 122.84-119.74 8.33 19.51 31.7 63.52 31.7 63.52s-147.32 190.93-156.27 189.4z" fill="#d0a87d"/><path d="M2144.42 2559.33c-11-33.53 18.14-74.75 36.7-103 41.38-62.92 168.12-147.18 237.1-173.62l13.69 55.52z" fill="#f6eee6"/><path d="M2143.39 2564.41c-7.86-31.28 23.31-68.51 44-96.61 46-62.66 171.91-148.15 241.86-177.75l20.33 44.33z" fill="#d9b997"/><path fill="#a63232" d="M2379.48 2912.26l306.64-206.16-237.41-397.13-307.9 218.05 238.67 385.24z"/><path d="M2386.77 2909.68l-57 19.45S2098.2 2569.91 2088.43 2543c-3.44-9.48 53-16.81 53-16.81z" fill="#b85b5b"/><path fill="#b85b5b" d="M2241.289 2528.995l182.039-116.284 75.323 117.915-182.04 116.285z"/><path d="M2276.36 2679.07c16.25 28.9 46.76 50.44 81.07 67.6 2.07 1 4.16 2.07 6.26 3.06 6.6 3.17 13.32 6.2 20.09 9.07 2.17.92 4.32 1.84 6.49 2.72 15.64 6.47 31.38 12.29 46.34 17.7l6.52 2.34c6.86 2.47 13.51 4.86 19.89 7.19 3.75 1.38 8.33 2.83 13.64 4.32 2.12.58 4.36 1.18 6.7 1.78 11.69 3 26.13 5.94 42.57 8.53 2.28.35 4.59.71 7 1.05 13.11 1.9 27.36 3.52 42.39 4.69q3.56.28 7.18.51c15.3 1 31.33 1.51 47.76 1.31 2.61 0 5.24-.08 7.88-.14 9.53-.24 19.18-.73 28.87-1.5 2.68-.21 5.36-.44 8.05-.71 12.78-1.21 25.61-2.93 38.32-5.26q4.08-.73 8.14-1.56l.86-.19a189 189 0 0 0 33.51-10.23q4.9-2 9.64-4.25a188.49 188.49 0 0 0 63.91-49.63q5.7-6.86 10.58-14.08c39.45-58.11 39.11-131.11-18.82-163.23l-.72-.4q-3.89-2.12-8-3.94a111.79 111.79 0 0 0-32.44-9c-2.42-.31-4.88-.55-7.4-.7a160.14 160.14 0 0 0-38.36 2.49c-2.27.4-4.58.85-6.92 1.34q-11.78 2.49-24.9 6.61c-2.24.7-4.52 1.46-6.82 2.24-10.9 3.7-22.5 8.27-34.89 13.78q-2.19 1-5 2.07c-2 .75-4.21 1.56-6.64 2.4-10.72 3.7-25.56 8.1-42.63 12.75l-6.74 1.81c-10.52 2.81-21.73 5.69-33.24 8.54l-6.73 1.65c-13.47 3.28-27.23 6.5-40.66 9.5l-6.77 1.5a1582.74 1582.74 0 0 1-32.43 6.8l-7 1.37c-10.76 2.07-20.57 3.79-28.94 5q-3.75.57-7.08 1c-3.58.45-6.8.81-9.6 1q-10.82.86-21.58 1.24c-2.3.09-4.62.16-6.92.21-30.8.8-61.05-.55-90 0-35.23.77-50.38 17.74-32.43 49.65z" fill="#f5c1ad"/><path d="M2365 2628.88c8.61 9.72-12.18 59.55-28.36 78-11.72 13.4-23.34 13.49-23.34 13.49s-42.6-28.12-51-50.27c-9.36-24.58-5.75-62.81 27.28-68.65 18.03-3.14 75.42 27.43 75.42 27.43z" fill="#f5d7bd"/><path d="M2339.32 2693.66c12.59-19.13 22.72-41.8 26-64.72.55.1 1.11.2 1.67.26a73 73 0 0 0 19.19-.34c-3.3 26.7-14.77 52.65-28.89 75a211.92 211.92 0 0 1-24.44 31.76l-.29-.23c-5.63-4-11.51-7.69-17.17-11.68a203.33 203.33 0 0 0 23.93-30.05z" fill="#fff"/><path d="M2357.43 2746.67c2.07 1 4.16 2.07 6.26 3.06a361.67 361.67 0 0 0 18.7-38.25c10.89-25.87 19.62-53.82 23.19-82.15-2.3.09-4.62.16-6.92.21-3.66 28.36-12.67 56.36-23.81 82a369.84 369.84 0 0 1-17.42 35.13z" fill="#eff2f2"/><path d="M2383.77 2758.8c2.17.92 4.32 1.84 6.49 2.72a389.13 389.13 0 0 0 34.8-67.32c8.57-21.5 15.66-44.68 18.79-68.16q-3.75.57-7.08 1c-4.44 32.77-16.68 64.9-31.38 93.88a425.26 425.26 0 0 1-21.62 37.88z" fill="#eff2f2"/><path d="M2436.6 2779.23l6.52 2.34c14.87-33 24.38-68.54 30.28-104.12a513.82 513.82 0 0 0 6.4-57.82l-7 1.37c-.53 9.56-1.37 19.11-2.44 28.59-5 43.37-14.89 86.78-32.5 126.85-.43.93-.86 1.87-1.26 2.79z" fill="#eff2f2"/><path d="M2476.65 2793.08c2.12.58 4.36 1.18 6.7 1.78q7.7-19.35 14.12-39.17c11.71-36.15 21.22-74 22.62-112.16a203.45 203.45 0 0 0-1.09-32.19l-6.77 1.5a163 163 0 0 1 1.15 17.82c.39 29.93-4.94 59.94-12.47 88.81a615.56 615.56 0 0 1-24.26 73.61z" fill="#eff2f2"/><path d="M2525.92 2803.38c2.28.35 4.59.71 7 1.05q8.84-22.84 15.95-46.27c11.05-36.47 19.84-74.5 21-112.73.42-14.52 0-30.36-3.38-45.25l-6.73 1.65a156 156 0 0 1 3.35 32.73c.28 30.82-5 61.64-12.42 91.47a626.43 626.43 0 0 1-24.77 77.35z" fill="#eff2f2"/><path d="M2575.26 2809.12q3.56.28 7.18.51c4.71-13 8.8-26.3 12.36-39.66 10.58-39.74 17.35-81 17.25-122.19 0-19-1.23-39-5.68-58l-6.74 1.81a211.92 211.92 0 0 1 3.87 23.78c2.75 25.28 2 50.89-.84 76.14a499.86 499.86 0 0 1-27.4 117.61z" fill="#eff2f2"/><path d="M2645.59 2772.44a372 372 0 0 1-15.39 38.51c2.61 0 5.24-.08 7.88-.14a377.73 377.73 0 0 0 23.18-67.88c12.94-53.41 16.05-116.36-5.61-168.26-2 .75-4.21 1.56-6.64 2.4 9.45 22.73 14.08 47.67 15.18 72.2 1.87 41.63-5.26 83.79-18.6 123.17z" fill="#eff2f2"/><path d="M2689.88 2753.81c-6.17 18.87-13.57 37.75-22.93 55.49 2.68-.21 5.36-.44 8.05-.71 5-9.88 9.43-20.06 13.43-30.29a410.5 410.5 0 0 0 23.62-88c6.39-42.39 6.79-92.34-9.64-133.73-2.24.7-4.52 1.46-6.82 2.24 10.25 25.38 13.93 54 13.68 81.13-.36 38.6-7.38 77.23-19.39 113.87z" fill="#eff2f2"/><path d="M2713.32 2803.33q4.08-.73 8.14-1.56l.86-.19a304.78 304.78 0 0 0 24-55.78c13.33-42.24 17.93-87.66 10-131.43a236.09 236.09 0 0 0-22.14-65.75c-2.27.4-4.58.85-6.92 1.34a218.94 218.94 0 0 1 16 39.12c21.56 71.83 7.08 149.92-29.94 214.25z" fill="#eff2f2"/><path d="M2772.29 2748.45a306.35 306.35 0 0 1-16.45 42.92q4.9-2 9.64-4.25a326.35 326.35 0 0 0 19.11-58.1c9.78-42 12.62-86.15 7.13-129a286.46 286.46 0 0 0-11.71-53.16c-2.42-.31-4.88-.55-7.4-.7 8.08 23.42 12.35 48.33 14 72.71a361.27 361.27 0 0 1-14.32 129.58z" fill="#eff2f2"/><path d="M2836.9 2669.51c1.06 22.85-1 46-7.52 68q5.7-6.86 10.58-14.08c10.85-53.41-1.33-109.44-18.82-163.23l-.72-.4q-3.89-2.12-8-3.94c12.46 36.9 22.68 74.76 24.48 113.65z" fill="#eff2f2"/><path d="M3371.79 2734c27.23-94.52-24.64-145.08-54.76-227.12-28-76.19-13.66-150.75-21.82-232.34-20-200.24-131.43-526.42-346.32-568.46 0 0-237.87-75.19-484.22 154.14-37.16 32-47.31 67.38-56.7 115.31 37-28.42 86.14-88.59 134.7-92-15.48 10.91-39.33 37.21-43.53 55.09 18.78-16.26 36.5-32.86 56.12-47.39 33.72 57.35 86.05 102.73 138.28 148.29 46.92 78.7 118.58 145.69 127.08 248.28 9.61 116-47.88 243.27-78 355.42 68.8-101.85 104-253 88-379.51-5.94-47.07-31.33-99.46-58.25-151.17 48.42 50.46 86.42 107.79 93.6 185.26 8.06 87-41.31 170.65-30.12 259.27 6.34 50.24 36.1 74.58 48.67 119.22 12.9 45.8-31.91 95 25 151.13-11.9-80.76 41.81-115.9 53-207.75 40 184.8-87 228.51-68.89 467.73 39-20.63 72.92 53.29 103.24 50.25 32.87-3.29 59-33.54 89.55-34.85 26.54-1.13 151.42 20.11 158.19 25.08 49.5-74.43 13.47-107.8 23.52-187.79 10.69-84.56 80.6-125.97 103.66-206.09z" fill="#d9a362"/><path d="M2466.74 1848.45l.22-.18v-.19z" fill="#231f20"/><path d="M2564.65 1800.14c8-8.85 49.4-66.63 221.31-64.71 89.53 1 159.92 69.63 169.87 88-33.89-6.27-74-11.52-109.14-9.61 26.53 47.71 101.49 110.3 93 168.62-41.05-50.35-110.79-107.39-174.15-126.27 13.36 45.35 51.26 85.21 51.15 134.55-20.11-39.61-50.38-78.82-88.6-99.66 18.78 32.56 36.07 76.34 41.86 118.13-22.02-66.4-118.11-215.94-205.3-209.05z" fill="#e1b581"/><path d="M2905.19 2577.47a33.74 33.74 0 0 0 4.38 9.23q-2.25-4.62-4.38-9.23z" fill="#e1b581"/><path d="M2957.72 2825.14c-24.68 87.21-35.21 200.08-6 284.07-18.49-44.18-1.69-133.22 10.22-182.44 50.22-207.73 59.65-282.42 58-326.61-1.15-31.1-5.64-90.44-20.86-105.09.02.01 15.54 128.98-41.36 330.07z" fill="#e1b581"/><path d="M3311.58 2535.85c95.61 133.21 45.39 222.32 13.32 251.17 13.81-51.63 2.84-120.4-15.78-171.77-23.71-65.41-86.91-87.27-92.52-164.56-9.58-132 76.54-294.86-14.62-429 56.34 35.76 63.55 114.36 74.78 179.16 22.52 130.15-44.38 224.67 34.82 335z" fill="#e1b581"/><path d="M3059.59 2712.63c-1.81 12.46-4.11 24.78-6.43 37.07s-4.82 24.49-7.27 36.68c-5 24.36-10 48.61-14.59 72.83-2.36 12.09-4.48 24.21-6.55 36.29s-3.87 24.21-5.47 36.32-3.2 24.18-4.69 36.29-2.94 24.22-4.08 36.41-1.95 24.47-2 36.79a250 250 0 0 0 2.29 37 192.11 192.11 0 0 0 8.73 36.17c1.67 4.84 3.58 9.59 5.67 14.27q-3.19-7-6-14.12-7-17.36-12.29-35.45c-3.6-12-6.69-24.32-9.25-36.77a375.75 375.75 0 0 1-5.68-37.8 327.4 327.4 0 0 1 1.67-76.23q2.57-18.85 6.33-37.44c2.44-12.41 5.37-24.68 8.48-36.87 6.34-24.38 13.92-48.35 22.44-71.91 4.3-11.78 8.78-23.48 13.58-35.05s9.66-23.11 15.11-34.48z" fill="#e1b581"/><path d="M1521.44 1998.88c-53.64-125.56-181.12-82.41-299.2-138.64-127.8-60.87-289.24-20.66-338.24-277.07-7.43 64.41-33.59 231.92 0 289.11 34.19 58.22 150.72 40.35 156.63 106.12 9.88 109.88-299.93 262.77-385.37 335.53-71.85 61.2-111.89 170.61-125.72 263.8-21.49-12.17-39.9-33.25-54-65.71-15.77 65 9 127.37 50.82 176.4 2.68 20 7.57 35.68 14.52 45.3a169 169 0 0 0 17.54 20.42c-36.36 6.51-73 8.38-110 1.11 30.3 17.32 57.4 40.63 71.57 71.52-9.63 3.13-16.57 4.16-25.18 8.9 31.89-2.38 58.6 6.75 88.67 13.81-19.71 3.24-40.69 18.59-60 23.49 31.68 18.54 72.66 13.34 106.43 1.94-25.6 23.12-50.84 46-78.29 66.77 58-3 129.65-22.45 165.77 30.64 6.33-28.9 25.86-87.17 36-105.59 6.76 30.44 13.32 62.56 18.56 90.91 3.78-30.36 7.35-66.74 19-96.59a289.3 289.3 0 0 0 40.9 5.63c10.65 34.34 24.07 67.74 43.75 99.63-5.36-33.68-10.65-67.67-10.77-100 26.88-2.23 58.26-9.46 95.38-25.87a178.67 178.67 0 0 0 28.49 41.64 108.47 108.47 0 0 1-11-49.85c48.28-24 105.67-63.12 174.48-125.35 9.63 9.24 16.12 23.48 17.8 43.63 29-31.88 41.44-78.69 56.33-115.31l5.07-5.22c-.69 23.29 1.43 46.06-3.24 68.69 58.94-49.81 83-104.14 92.82-166.84q44.27-51.09 93.19-112.55c90.76-114.36 169.56-274.66 107.29-420.4z" fill="#131820"/><path d="M2870 2429.27c-18.6 60.43-21.31 137.63 13.65 193.34-21.5-29.16-10.88-90.46-2.41-124.47 35.75-143.54 40-194.75 35.31-224.7-3.29-21.08-11.87-61.2-28.07-70.44.04 0 24.44 86.93-18.48 226.27z" fill="#e1b581"/><path d="M3486.09 2302.82c-6.52-41.31-76.51-262.2-127.32-186.5a128.23 128.23 0 0 1 17.08 20.55l-17.41-18.21c-8.32 106.64-152.75 183.27-216.19 260.17-56 67.89-119.72 249.84 11.49 202.3-13.79 54.87-91.23 74.29-68.33 142.31 23.82 70.74 76.85 1 109.92 35.9-76.66 99 5.17 166.16 87.2 109.43 81.76-56.54 127.64-178 165-275.15 38.53-100.38 55.3-184.77 38.56-290.8z" fill="#131820"/><path d="M1771.41 705.32C1708.56 839 1452.74 1097 1427.83 1018.55c-21.74-68.42 41.4-38.44 83.1-97.16 95.93-135.12-84.69-193.88-89.61-306.82-4-92.52 50.74-34.2 99.89-4.76 39.39 23.58 111.31 67.33 155.57 56.31-3.82-109.1-204.13-165-168.46-299.58 41.27-155.76 99.57 126.13 205.08 76.37 69.4-192.06-262-468.28-68.34-441 93.08 13.09 282.87 370.5 126.35 703.41z" fill="#131820"/><path d="M487.9 1373.93c144.28 31.73 504.76-13.57 457.81-81.17-41-59-55.72 9.36-127.68 6.57-165.59-6.4-102-185.38-188.47-258.16-70.86-59.65-58.05 19.33-64.71 76.24-5.34 45.6-14.55 129.27-50.28 157.61-84.11-69.57-6.19-262.36-134.64-316.22-148.59-62.33 39.19 155.85-64.58 209.07C120.83 1105.72 104.1 674.65 7.58 844.7c-46.4 81.75 121.05 450.18 480.32 529.23z" fill="#131820"/><path d="M1561.29 1883.74c76.36 156.34-42.81 120.22-113.2 11.15 43-19.69 85.86-1.12 113.2-20.65z" fill="#fbe5c4"/><path d="M1829.72 1696.68c76.36 156.34-42.81 120.22-113.2 11.15 43-19.69 85.86-1.12 113.2-20.65z" fill="#fbe5c4"/><path d="M1830.62 1098c-30.27-44.47-222.59-323.47-547.68-269-163 27.33-615.19 249.82-423 788.18 73.81 206.78 241 310.29 449.2 341.76 233 35.22 447.08-93.79 573.8-290.5 110.78-171.96 65.62-397.17-52.32-570.44z" fill="#1c2430"/><circle cx="1667.15" cy="1443.4" r="59.12" transform="rotate(-3.51 1669.46 1445.242)" fill="#f99e4f"/><circle cx="1229.02" cy="1721.1" r="59.12" transform="rotate(-3.52 1227.376 1718.905)" fill="#f99e4f"/><path d="M1735.23 1248c-63.85-36.91-164.31-24.18-213.47 19 0 0-8.48 20.18-2.63 27.27 49.19 59.73 162.21-13.99 216.1-46.27z" fill="#131820"/><path d="M1658.92 1692.1a110.9 110.9 0 0 0 17.7-4.17 15.2 15.2 0 0 0 1.3-5.33z" fill="#131820"/><path d="M1676.61 1687.93c-3.65 8.06-13.1 8.92-7 23.81 16.8-.93 14.38 8.85 35.49 0-1.15-32.36-11.58-28.88-28.49-23.81z" fill="#131820"/><path d="M1469 1806.14v-9.57c-3 12.21-2.83 19.94-.69 24.73.07 4 .29 8.4.69 13.26v-11.92c8.05 13.53 34.71-2.05 36.52 3.1-11.73-33.49-32.44-50.95-36.52-19.6z" fill="#131820"/><path d="M1057.11 1670.55c3.72-73.66 69-151.07 132-168.87 0 0 21.55 3.85 24.33 12.61 23.32 73.71-99.97 128.56-156.33 156.26z" fill="#131820"/></g></g></svg>