<svg xmlns="http://www.w3.org/2000/svg" viewBox="-0.22821521759033203 -0.11505460739135742 61.39622116088867 58.74965286254883"><title>Depositphotos_103092084_165_ic</title><g data-name="Layer 2"><g data-name="Layer 1"><path d="M20.17 20.06L2.63 21.7A1.28 1.28 0 0 0 2 22a1.26 1.26 0 0 0-.41.6 1.27 1.27 0 0 0 0 .72 1.22 1.22 0 0 0 .39.6l13.15 11.62a2.7 2.7 0 0 1 .87 2.63l-3.86 17.22a1.22 1.22 0 0 0 .49 1.29 1.25 1.25 0 0 0 .68.25 1.27 1.27 0 0 0 .7-.18l15.16-9a2.74 2.74 0 0 1 1.4-.4 2.72 2.72 0 0 1 1.4.39l15.15 9a1.29 1.29 0 0 0 .7.19 1.25 1.25 0 0 0 .67-.25 1.21 1.21 0 0 0 .44-.57 1.25 1.25 0 0 0 0-.72l-3.79-17.17a2.69 2.69 0 0 1 .86-2.66l13.22-11.64a1.26 1.26 0 0 0 .39-.6 1.23 1.23 0 0 0 0-.72 1.26 1.26 0 0 0-.4-.6 1.22 1.22 0 0 0-.66-.26L41 20.07a2.75 2.75 0 0 1-1.36-.51 2.8 2.8 0 0 1-.91-1.14l-7-16.18a1.19 1.19 0 0 0-1.15-.76 1.3 1.3 0 0 0-.66.17 1.23 1.23 0 0 0-.46.55l-7 16.17a2.7 2.7 0 0 1-2.26 1.65z" fill="#fdeb65" fill-rule="evenodd"/><path d="M60.13 20.83a2.73 2.73 0 0 0-1.44-.58l-17.56-1.66a1.25 1.25 0 0 1-.62-.23 1.22 1.22 0 0 1-.41-.52l-7-16.17a2.76 2.76 0 0 0-4-1.25h-.06a2.73 2.73 0 0 0-1 1.21l-7 16.17a1.23 1.23 0 0 1-1 .75L2.5 20.22a2.74 2.74 0 0 0-1.5.58 2.79 2.79 0 0 0-.9 1.3A2.74 2.74 0 0 0 .93 25l13.22 11.67a1.27 1.27 0 0 1 .37.55 1.29 1.29 0 0 1 0 .64l-3.83 17.2a2.74 2.74 0 0 0 4.08 3l15.16-9a1.28 1.28 0 0 1 .64-.18 1.24 1.24 0 0 1 .64.18l15.15 9a2.76 2.76 0 0 0 4-1.39 2.71 2.71 0 0 0 .11-1.57L46.6 37.9a1.3 1.3 0 0 1 0-.67 1.26 1.26 0 0 1 .37-.55L60.22 25a2.77 2.77 0 0 0-.09-4.22zm-.51 2.49a1.27 1.27 0 0 1-.39.61L46 35.56a2.7 2.7 0 0 0-.86 2.66L49 55.41a1.19 1.19 0 0 1 0 .72 1.23 1.23 0 0 1-.44.57 1.21 1.21 0 0 1-1.37.06L32 47.78a2.76 2.76 0 0 0-1.4-.39 2.73 2.73 0 0 0-1.4.39L14 56.75a1.27 1.27 0 0 1-.7.18 1.24 1.24 0 0 1-.68-.25 1.21 1.21 0 0 1-.49-1.29L16 38.21a2.71 2.71 0 0 0-.87-2.64L1.92 23.9a1.28 1.28 0 0 1-.39-.61 1.24 1.24 0 0 1 0-.72A1.22 1.22 0 0 1 2 22a1.24 1.24 0 0 1 .67-.26l17.54-1.64a2.73 2.73 0 0 0 1.36-.51 2.77 2.77 0 0 0 .9-1.14l7-16.17a1.26 1.26 0 0 1 .46-.55 1.27 1.27 0 0 1 .66-.17 1.23 1.23 0 0 1 .69.2 1.25 1.25 0 0 1 .45.55l7 16.18A2.71 2.71 0 0 0 41 20.07l17.54 1.66a1.25 1.25 0 0 1 .65.27 1.23 1.23 0 0 1 .4.59 1.27 1.27 0 0 1 .03.73z" fill="#6d6e71"/></g></g></svg>