<svg xmlns="http://www.w3.org/2000/svg" viewBox="-0.005000114440917969 0 35.513004302978516 44.21000289916992"><title>Depositphotos_94341268_12</title><g data-name="Layer 2"><path fill="#f7941e" d="M3.21 6.09h29.45v33.67H3.21z"/><path fill="#f46c21" d="M3.21 6.09h29.45v4.83H3.21z"/><path fill="#f46c21" d="M17.94 6.09h14.73v33.67H17.94z"/><path d="M32.7 1.55a1.55 1.55 0 0 1-1.55 1.55H4.73a1.55 1.55 0 0 1 0-3.1h26.42a1.55 1.55 0 0 1 1.55 1.55z" fill="#58595b"/><path d="M35.5 41a3.21 3.21 0 0 1-3.21 3.21H3.21a3.21 3.21 0 0 1 0-6.43h29.08A3.21 3.21 0 0 1 35.5 41z" fill="#414042"/><path d="M35.5 4.76A3.21 3.21 0 0 1 32.29 8H3.21a3.21 3.21 0 0 1 0-6.43h29.08a3.21 3.21 0 0 1 3.21 3.19z" fill="#414042"/><path d="M6.75 29.22a2 2 0 0 1-2-2V16.68a2 2 0 1 1 4 0v10.54a2 2 0 0 1-2 2z" fill="#fff"/><path d="M10.33 5.09h-5.6a1 1 0 0 1 0-2h5.61a1 1 0 0 1 0 2z" fill="#fff"/></g></svg>