<svg xmlns="http://www.w3.org/2000/svg" viewBox="-16.219999313354492 -1.7653536796569824 412.7599792480469 1154.3953857421875"><title>Depositphotos_86110172_04</title><g data-name="Layer 2"><g data-name="Layer 28"><path d="M191.07 96s-40.11 4.44-56.78-7.27a44.9 44.9 0 0 1-18.54-31.07s-10.68 35.05 11.44 48.09C152.3 120.58 191.07 96 191.07 96z" fill="#eb7520"/><path d="M251.67 84.11s27-.52 36.47-12.76a192.46 192.46 0 0 0 21-34.11s13.55 19 0 34.11c-17.81 19.81-57.47 12.76-57.47 12.76z" fill="#eb7520"/><path d="M183.3 110.59S33.68 303 7.09 413.77c-23.31 97.14 18 258.69 21.38 268s29.84 88.74 33.81 91.39 38.23-21 53.55-34.32 19.79-34.55 19.79-34.55-94.78-128.36-84.93-256.93c6-78.86 41.88-128.33 102.72-229.49 52.42-87.16 97.48-95.73 97.48-95.73z" fill="#f2b12d"/><path d="M183.3 110.59c.21-11.73 10.35-33.85 35-39.24 15.89-3.48 39.17 9.77 44.82 17.41 9 12.21 7.62 21.83 7.62 21.83l43.71 9.52S333 96 350.18 96c21.08 0 46.36 50.16 42.38 60.76s-17.22 24-17.22 24-5.3-16.55-15.89-15.63-30.46 1.73-35.76 0-7.28-36-60.6-33.43-47.52 6.76-63.91.48c-8.07-3.09-16-14.89-15.88-21.59z" fill="#f2b12d"/><path fill="#eb7520" d="M195.74 85.94L164.57 50l11.26-11.59 25.82 40.58-5.91 6.95z"/><path fill="#eb7520" d="M209.6 73.9l-13.86-63.77 19.65-6.39 4.76 68.57-10.55 1.59z"/><ellipse cx="170.86" cy="46.32" rx="15.23" ry="10.03" transform="rotate(-31.69 170.836 46.317)" fill="#963a1b"/><ellipse cx="206.62" cy="10.13" rx="15.23" ry="10.03" transform="rotate(-7.33 206.584 10.176)" fill="#963a1b"/><path d="M236.84 106c9.41.15-.83-39.51-16.7-33.74s-12.53 33.33-8.14 37.44c3 2.76 8.35-3.92 24.84-3.7z" fill="#fff"/><path d="M274.52 102.09s.63-20.44-13.44-15.33-8.2 19.35-8.2 19.35z" fill="#fff"/><circle cx="215.39" cy="105.78" r="4.97"/><circle cx="256.64" cy="99.87" r="4.97"/><path d="M363.43 131.7s-42.13-.22-39.73-5.93 12.08-11.13 19.82-11.13 19.91 17.06 19.91 17.06z" fill="#963a1b"/><path d="M130.66 699.42s72 45.89 105.14 45.89 36.2 11.92 36.2 11.92l6.18 80.77c-17.22 37.09-45 94-45 94s-58.83 1.32-64.51 0S53.19 818.31 51.5 807.56c-2.91-18.54 3-51.87 2-54.5s77.16-53.64 77.16-53.64z" fill="#f2b12d"/><path d="M152.72 806.55c15.54-.38 17.72 11.43 16.81 23.36-1.21 15.78-10.56 21.36-11.88 33.28s-.18 62.61 6.78 99.75c.7 3.71-9.62 12.7-9.4 24.75.9 48.57 4.3 147.26 4.3 147.26h-13.94s2.28-96.29-3.31-143.29c-1.86-15.66-12.33-27-11.43-28.73 11.43-21.6 13.93-57.32 13.06-82.37-.48-13.92-19.13-32.23-19.13-49.67.01-17.21 14.63-24.01 28.14-24.34z" fill="#f2b12d"/><path d="M94.82 788.31c15.54-.38 23.07 18.63 22.16 30.55-1.21 15.78-19.21 29.79-20.53 41.71s-8.37 57.74 6.39 102.36c1.18 3.58-7.09 13-7.15 35.16-.09 32.94-2.92 125.4-2.92 125.4h-9.31s.7-87.66-4.89-134.66c-1.86-15.66-13.09-24.19-12.19-25.9 11.43-21.6 14.17-91.09 9.87-104.34s-14.9-31.79-14.9-38.41c0-17.18 19.96-31.53 33.47-31.87z" fill="#f2b12d"/><path d="M82.1 1118.56c-9.2 2.68-20.74 32.23-20.74 32.23s32.78 1.84 39.2-.81-7.78-26.5-7.78-26.5-7.86-5.74-10.68-4.92z" fill="#963a1b"/><path d="M278.18 838s-22.52 47.7-21.18 75.52 21.19 78.15 21.19 78.15-26.49 88.74-27.81 108.61 0 30.76 0 30.76l-11.92-8.12s17.22-118 19.87-123.3-30.46-46.36-35.76-59.6-13.25-53-13.25-53z" fill="#f2b12d"/><path d="M238.11 1114.44s-13.24 8-15.89 15.88-7.95 19.14-7.95 19.14 35.71 2.65 39.68 0-3.92-26.9-3.92-26.9z" fill="#963a1b"/><path d="M232.45 833.14s-21.29 48.24-19.25 76 23.19 77.58 23.19 77.58-24.21 89.39-25 109.29 2.9 40 2.9 40l-16.23-9s16.18-126.5 18.69-131.87-31.64-45.56-37.28-58.66-14.6-52.62-14.6-52.62z" fill="#f2b12d"/><path d="M200.62 1119.34s-8.27 7.14-11.43 14.78A136.62 136.62 0 0 1 181 1150s33.59 1.6 37.73-.77-1.25-21-1.25-21z" fill="#963a1b"/><path d="M266.57 751.44s13.52 14.18 40.75-4.8c39.74-27.71 35.21-33.17 45.53-56.37 9.16-20.61-43.49-23.08-43.49-23.08l1-5.5s55.25 2.1 55.25 22.7c0 30.46-21.19 60.93-52.54 75.5-15.27 7.1-39.84 13.45-39.84 13.45z" fill="#f2b12d"/><path d="M316.08 664.51c.77-7.12-6.12-17.22-24.66-14.57s-30.76 34.91-30.76 34.91 10.23-18 24.13-10.32c18.6 10.33 30.41-1.85 31.29-10.02z" fill="#963a1b"/><path d="M33.52 344s16.9-1.35 27.83-19.82A37.56 37.56 0 0 0 63 288.74z" fill="#963a1b"/><path d="M56 410.95s-12.18-2.12-22.44 15.2S18 456.66 19.3 463.67c1.22 6.8 30.8 30.13 30.8 30.13s-.83-26.44.6-46.45a257.28 257.28 0 0 1 5.3-36.4z" fill="#963a1b"/><path d="M155 215.18s-14.15-6.14-27.85 9.94c-9.42 11 3.05 30.94 3.05 30.94z" fill="#963a1b"/><path d="M8.88 588s28.35 6.45 28.65 26.32-14.33 47.34-14.33 47.34-4.1-13.27-9-42.34C11.86 605.05 8.88 588 8.88 588z" fill="#963a1b"/><path d="M27.58 405.26c6.62 4.58 13.24-3.16 13.24-11.87S21 400.68 27.58 405.26z" fill="#963a1b"/><path d="M80.63 637.93c7.13-6.62-.27-16.46-10.55-18.73s3.42 25.35 10.55 18.73z" fill="#963a1b"/><path d="M98 264.66c6.33 6.45 15.28-.67 17.13-10.28S91.65 258.21 98 264.66z" fill="#963a1b"/><path d="M133.4 701.13s-17.22 17-12 32 33.22 27.06 43.05 20.36 14.17 4.05 25.24 0S209.3 740 209.3 740s-28.69-12.65-43.14-20.13c-9.65-4.94-16.58-9.11-32.76-18.74z" fill="#963a1b"/><path d="M53.52 753.06s15.44-7.63 25 2.32 13.16 25.08 4.89 32.92-32.73 3.26-32.73 3.26z" fill="#963a1b"/><path d="M189.68 792.9c-5.31.75-6.61 4.75-7.6 20.06s19.08 45 27.23 40 23.07-11.54 25.14-27.72-10.39-40.51-16.08-32.32-21.59-1.02-28.69-.02z" fill="#963a1b"/><path d="M172.27 805.14c9.78-9.08-.36-22.57-14.48-25.7s4.7 34.78 14.48 25.7z" fill="#963a1b"/><path d="M130.6 864c8.85-2.07 7.41-13.47.12-20.09s-8.97 22.15-.12 20.09z" fill="#963a1b"/><path d="M147.93 1118.56c-9.2 2.68-20.74 32.23-20.74 32.23s32.78 1.84 39.2-.81-7.78-26.5-7.78-26.5-7.86-5.74-10.68-4.92z" fill="#963a1b"/><ellipse cx="199.67" cy="122.84" rx="14.19" ry="12.11" transform="rotate(-9.59 199.666 122.813)" fill="#ffcf15"/></g></g></svg>