<svg xmlns="http://www.w3.org/2000/svg" xmlns:xlink="http://www.w3.org/1999/xlink" viewBox="-40.99999237060547 -29.770004272460938 480 483.99005126953125"><defs><linearGradient id="a" x1="192.72" y1="89.52" x2="259.28" y2="32.33" gradientUnits="userSpaceOnUse"><stop offset="0" stop-color="#f99d1c"/><stop offset="1" stop-color="#f68b1f"/></linearGradient><linearGradient id="b" x1="113.97" y1="57.23" x2="133.66" y2="203.49" xlink:href="#a"/></defs><title>Depositphotos_9111231_01</title><g data-name="Layer 2"><g data-name="Layer 1"><path d="M298.12 63.78s97.13-10.58 73.09 89.44l-79.82-10.58z" fill="#f57e20"/><path d="M358.13 151.48l13.08 1.73c18.6-77.35-35.28-88.55-60.65-89.65a61.91 61.91 0 0 0-.92 6.28s62.81 6.56 49.69 73.16a72.06 72.06 0 0 0-1.2 8.48z" fill="#e96e1f"/><path d="M374.65 132.54c-27.55-13.88-64.36-6.08-64.36-6.08.68 1.37 25.9 15.24 49.13 25.2l11.79 1.56a137.55 137.55 0 0 0 3.44-20.68z" fill="#d2611c"/><path d="M372.15 149q.25-1.16.47-2.29l.21-1.1c.13-.66.24-1.31.36-2 .07-.41.15-.82.21-1.22s.14-.93.22-1.39c.18-1.13.34-2.25.48-3.35l.06-.47q.14-1.15.26-2.29v-.09q.12-1.18.22-2.34a69.91 69.91 0 0 0-13.56-5.07 91.45 91.45 0 0 1-1.75 15.61 72.91 72.91 0 0 0-1.16 8.15l1.26.54 11.79 1.56c.27-1.11.51-2.2.75-3.28z" fill="#cb561b"/><path d="M270.23 132.38s68.3-10.63 44.24-84c-20.81-63.45-91-38.47-91-38.47s47.41 67.97 46.76 122.47z" fill="#f68b1f"/><path d="M236 6.77a89 89 0 0 0-12.57 3.15s47.44 68 46.8 122.45c0 0 1.15-.18 3.1-.65a80 80 0 0 0 5.82-13.72C303.51 44.33 257.29 15.74 236 6.77z" fill="#d4711a"/><path d="M268.31 136.87s36.54-68-25-117.32-115.4 9-114.12 20.52c0-.01 100.65 36.53 139.12 96.8z" fill="url(#a)"/><path d="M139.72 23.06c-4.71 4.72-8 9.3-9.54 12.77 1.68 2 3.61 4.33 5.75 6.86 18.92 7.64 73.46 31.66 110.54 67.85a103.29 103.29 0 0 0-1.39-13.48c-12.62-77.86-74.82-78.57-105.36-74z" fill="#d4711a"/><path d="M265.75 142.64s-14.1-101.94-115.4-109-150 103.22-134 157.08z" fill="#f7931e"/><path d="M154.17 164.15l90.34-17.42c2.38-8.77-3.74-21.2-21.91-38.43-92.53-87.72-180.95.15-204.71 27.57-.76 2.83-2.53 13.2-3.11 16 16.94 3.43 82.96 8.48 139.39 12.28z" fill="#d3701a"/><path d="M259.69 141.7s-60.22-97.28-179.87-42c-120.82 55.8-68.25 152-68.25 152z" fill="url(#b)"/><path d="M181.2 157c-6.57-20.6-107.82 16-143.45 31C5 201.75 17.4 153 19.63 145c-38.39 51.14-8.06 106.64-8.06 106.64l103.25-45.76C152.35 185.67 184 165.71 181.2 157z" fill="#ea7b1e"/><path d="M389.36 164.55c12.12 38-26.29 48.73-26.29 48.73-1.87 64.69-65.63 45-65.63 45C250.57 323 195.26 278 195.26 278 54.63 318.28 49 218 49 218c-37.23-8-38.08-45.62-36.64-61.87-22 39-8.62 78-3 91C-.28 259.56-9.69 285 20.55 326c11.85 16.06 26.15 24 41.89 25.92 15.71 22.58 56.94 67.58 124.19 43.31 55.81 40.22 163.15-7.54 183.62-91.94 21-14.91 38.17-57.15 35.16-88.12-2.13-21.93-8.07-38.35-16.05-50.62z" fill="#d76d1c"/><path d="M7.2 241.56a82 82 0 0 0 4.37 10.08l204.91-90.8c10-9.82 16-16 16-16S38.85 165.25 7.2 241.56z" fill="#cc5f1a"/><path d="M49 218a47.15 47.15 0 0 1-17.46-7.39C20.53 219.7 12 230 7.2 241.56l.07.19.27.73.14.38.32.82.16.4.21.53.16.4.22.53.27.64.14.34.2.47c1.29 3 2.2 4.65 2.2 4.65l40.7-18A70 70 0 0 1 49 218z" fill="#bc5417"/><path d="M304.85 130.14s90.71-16.21 100.56 85c3.28 33.71-17.38 80.76-40.78 91.4l-70.35-145.63z" fill="#f37021"/><path d="M404.94 210.93q-.21-1.73-.46-3.41l-.09-.63q-.25-1.69-.54-3.34l-.07-.41q-.3-1.68-.63-3.32v-.11c-.23-1.11-.47-2.19-.71-3.27l-.1-.43q-.37-1.57-.77-3.09l-.1-.38c-.28-1-.56-2.08-.86-3.09q-.94-3.2-2-6.17l-.05-.15q-.53-1.47-1.1-2.89a88.73 88.73 0 0 0-8-15.6c12.12 38-26.29 48.73-26.29 48.73-.72 25-10.69 37.39-22.64 43.19l24.2 50.11a34.25 34.25 0 0 0 5.62-3.28 48.48 48.48 0 0 0 5.77-4.87l.89-.89.07-.07.85-.89.1-.1.83-.91.09-.11.84-1 .07-.08.86-1a86.3 86.3 0 0 0 6-8.25l.75-1.19.09-.14.7-1.15.13-.21.67-1.13.13-.23.66-1.15.13-.23.65-1.18.11-.2.66-1.24.05-.1c1.44-2.73 2.8-5.57 4.06-8.48l.1-.23.51-1.21.15-.36.47-1.16.17-.42.45-1.13.18-.45.43-1.12.18-.48.41-1.12.17-.47.4-1.14.15-.44.4-1.18.12-.36q.94-2.86 1.74-5.75l.09-.33.3-1.13.14-.54.27-1.05.16-.62.24-1 .16-.67.22-1 .15-.69.21-1 .15-.71.19-1 .14-.72.17-.94.13-.73.16-.93.12-.74c0-.31.1-.62.14-.93s.07-.48.1-.73.09-.62.13-.93.05-.42.08-.63q.11-.9.21-1.8c0-.27.06-.54.09-.81s.05-.56.08-.83.05-.54.07-.82 0-.55.06-.82 0-.55.06-.82 0-.54.05-.81 0-.55 0-.83v-8.71c0-.21 0-.67-.06-1v-.54q-.06-.77-.13-1.52c-.12-1.25-.26-2.48-.4-3.69z" fill="#dd641e"/><path d="M356.49 289.71l8.15 16.87c23.39-10.64 44.06-57.7 40.78-91.4-4.52-46.54-26.13-68.25-48.16-78.14 7.37 6.54 67 63 11.45 134.37a143.85 143.85 0 0 0-12.22 18.3z" fill="#e76220"/><path d="M366.27 305.77l1-.56.29-.17q1.34-.79 2.67-1.73.71-.51 1.42-1.06l.08-.06q1.44-1.12 2.85-2.41.71-.65 1.41-1.34l.88-.88.85-.89.1-.1.83-.91.1-.11.84-1 .06-.07.84-1q1.55-1.87 3-3.92v-.06q1.49-2.05 2.92-4.26l.74-1.17.1-.16.7-1.14.13-.21.67-1.13.12-.2.65-1.13.15-.26.64-1.16.11-.2.66-1.24v-.09q.53-1 1-2v-.07q1.56-3.11 3-6.37l.08-.18v-.07l.51-1.21.15-.36.47-1.15.18-.44.44-1.12.08-.21.1-.25.42-1.1.19-.51.39-1.08.18-.51.39-1.12.15-.44.4-1.18v-.07l.1-.3q.94-2.85 1.74-5.74l.05-.18v-.16l.3-1.1.15-.56.27-1v-.15l.12-.48.23-1 .17-.71.22-1 .15-.7.2-1 .15-.74.18-.93.14-.74.17-.93.13-.73c.05-.31.11-.61.16-.92l.12-.75c.04-.25.1-.61.14-.92s.07-.47.1-.7c0-.31.09-.62.13-.93s0-.35.07-.52v-.11q.11-.89.21-1.78v-.82c0-.28.05-.56.08-.83s.05-.54.07-.82 0-.55.06-.82V216.68q-.06-.77-.13-1.52c-.12-1.25-.26-2.48-.4-3.69l-.07-.56q-.21-1.73-.46-3.41l-.09-.63q-.25-1.64-.52-3.24v-.51q-.29-1.62-.6-3.19l-.08-.4q-.32-1.58-.68-3.1l-.09-.37v-.07q-.37-1.56-.76-3.08l-.1-.38q-.42-1.57-.86-3.09-.94-3.2-2-6.17l-.05-.15q-.53-1.47-1.1-2.89a88.73 88.73 0 0 0-8-15.6c3.35 10.5 2.83 18.92.34 25.6 5.47 22.43 3 50.45-21 81.25a143.94 143.94 0 0 0-12.22 18.31l8.15 16.87c.43-.2.87-.41 1.3-.63z" fill="#d5581d"/><path d="M392.52 274.84C387.33 168.5 316.82 166 316.82 166s4.59 25.29 11.49 55.87l43.87 78.53c.19.36.39.69.58 1 7.41-6.14 14.24-15.58 19.76-26.56z" fill="#c45019"/><path d="M363.08 213.28c-.61 21.09-7.8 33.21-17.22 40l26.31 47.11c.19.36.39.69.58 1l.15-.13.85-.73.56-.49.82-.75.58-.55q1.22-1.18 2.42-2.47l.15-.17q.57-.62 1.13-1.26l.14-.16q.6-.69 1.19-1.41t1.38-1.72l.44-.58c.32-.42.65-.85 1-1.28l.54-.75.85-1.2.54-.79.85-1.28.58-.89.19-.29q.48-.76 1-1.54l.14-.22q.53-.88 1.06-1.78l.12-.21q.48-.83.94-1.67l.14-.25q.52-.94 1-1.9l.12-.22.94-1.82c-1.47-30.05-8.15-51.81-17-67.57a48.4 48.4 0 0 1-12.49 5.97z" fill="#b54715"/><path d="M391.64 276.53c.29-.56.58-1.13.87-1.7a191.67 191.67 0 0 0-5.15-36.9c-3.66 10.66-9.64 21.87-18.66 33.47-2.63 3.38-5 6.7-7.14 10l10.61 19c.19.36.39.69.58 1l.17-.14.83-.71.35-.31.21-.19.82-.75.58-.55q1.22-1.18 2.42-2.46l.14-.15q.57-.62 1.13-1.26l.14-.16q.6-.69 1.19-1.41t1.39-1.73l.4-.52c.34-.44.68-.89 1-1.34l.53-.74.88-1.24.52-.76.59-.89.27-.4.57-.88.13-.2.07-.11q.48-.76 1-1.54l.13-.21q.53-.88 1.05-1.78l.13-.23q.47-.81.93-1.64l.1-.19v-.07q.52-.94 1-1.89z" fill="#af3f14"/><path d="M286.9 143.6s93.28 27.89 86.55 138.48-161.56 172.14-207.72 89.44z" fill="#f26522"/><path d="M297.45 258.28c-31.59 43.6-67 37.37-86.76 28.68l-45 84.56a72.27 72.27 0 0 0 20.91 23.73c18.31 13.19 42.17 16.92 66.69 13q5.24-.84 10.52-2.15 5.26-1.3 10.51-3 3.47-1.16 6.92-2.51h.09q5.16-2 10.23-4.45l.13-.06q3.37-1.62 6.69-3.42 1.65-.9 3.29-1.84l.09-.06q3.25-1.87 6.43-3.91l.13-.08q4.8-3.08 9.39-6.53l.15-.11q3.06-2.3 6-4.76 1.47-1.23 2.92-2.49l.1-.09q2.87-2.52 5.63-5.19l.1-.09q4.16-4 8-8.41l.11-.12q3.84-4.38 7.33-9.06l.07-.09q2.32-3.12 4.46-6.38 3.23-4.91 6-10.11v-.09q2.79-5.2 5.12-10.68v-.06a123.49 123.49 0 0 0 6.3-19 121.17 121.17 0 0 0 3.21-21.26c1.66-27.34-2.79-49.62-10.43-67.68-2.33 63.15-65.33 43.71-65.33 43.71z" fill="#dc5a1f"/><path d="M334.12 172.71C439 369.85 219.64 376.41 219.64 376.41l-48.25 3.82c51.94 69.29 195.59 8.29 202.07-98.15 3.29-54.13-17.38-88.44-39.34-109.37z" fill="#dd521f"/><path d="M373.61 279.1c0-.7.06-1.39.08-2.08v-.45c0-.68 0-1.36.06-2V266.77c0-.62 0-1.25-.05-1.86v-.49c0-.62 0-1.24-.08-1.85v-.51c0-.6-.06-1.21-.1-1.8v-.48c0-.61-.08-1.21-.13-1.81v-.46c0-.6-.1-1.2-.15-1.79v-.46q-.08-.89-.17-1.77l-.05-.45-.2-1.75-.06-.44c-.07-.58-.14-1.15-.22-1.73l-.06-.44-.24-1.7-.07-.44q-.13-.84-.27-1.68l-.07-.43c-.09-.56-.19-1.11-.29-1.66l-.08-.42q-.15-.83-.31-1.65l-.08-.42-.33-1.62-.09-.42c-.11-.53-.23-1.06-.35-1.59l-.1-.42c-.12-.52-.24-1-.37-1.56l-.1-.42-.38-1.54-.11-.43-.4-1.5-.12-.44c-.14-.49-.27-1-.41-1.47l-.13-.45q-.21-.72-.43-1.43l-.14-.46-.44-1.39-.15-.47-.45-1.35-.17-.48-.45-1.31-.18-.51-.46-1.26-.2-.54-.46-1.21-.22-.56-.46-1.16-.24-.59-.46-1.1-.08-.2a65.88 65.88 0 0 1-4.32 21.6c30.41 135.29-139.23 140.37-139.23 140.37l-48.25 3.82a72.05 72.05 0 0 0 6 7.06 70 70 0 0 0 9.21 8q.85.62 1.73 1.2h.05q.81.55 1.64 1.07l.34.21 1.38.85.45.27 1.31.75.5.28 1.3.69.51.27 1.33.66.49.24 1.43.66.41.18 1.66.71.2.08q2.87 1.18 5.85 2.14l.33.1 1.62.5.48.14 1.5.42.54.14 1.47.37.55.13 1.5.33.53.11 1.59.31.44.08 1.82.31h.22q3.16.5 6.39.79h.31l1.8.14h.48l1.65.09h.55l1.61.05h4.9l1.95-.06h.21q3.35-.14 6.73-.48h.21l2-.22.42-.05 1.8-.24.49-.07 1.75-.26.49-.08 2.19-.38h.28q2.53-.46 5.07-1l.31-.07 2.23-.53.4-.1q3.79-.94 7.58-2.12l.36-.11 2.21-.71.31-.1q1.65-.55 3.29-1.14l.19-.07q1.67-.61 3.34-1.26h.09l2.52-1 .15-.06 2.35-1 .21-.09q2.51-1.1 5-2.29l.13-.06q3.33-1.6 6.6-3.37l.21-.12q1.6-.87 3.18-1.78l.09-.06q3.24-1.87 6.42-3.9l.16-.1q4.78-3.07 9.37-6.51l.15-.11q3.06-2.3 6-4.76 1.47-1.23 2.92-2.49l.1-.09q2.87-2.52 5.63-5.19l.1-.09q4.16-4 8-8.41l.11-.12q3.84-4.38 7.33-9.06l.07-.09q2.32-3.12 4.46-6.38 3.23-4.91 6-10.11v-.09q2.79-5.2 5.12-10.68v-.06a123.49 123.49 0 0 0 6.3-19q.62-2.55 1.13-5.15v-.09q.24-1.2.45-2.41l.06-.32q.19-1.09.36-2.19l.08-.51c.1-.67.19-1.35.28-2 0-.21.06-.43.09-.65.08-.64.15-1.28.23-1.92 0-.24.06-.49.08-.73.07-.64.13-1.28.18-1.93 0-.24 0-.47.07-.71q.11-1.31.19-2.63t.14-2.54c.22-.23.22-.37.23-.52z" fill="#cc491c"/><path d="M205 404.79a93.51 93.51 0 0 0 37.58 4.67c105-103.22 50.35-214 50.35-214S225.68 275.74 181 342.77l-15.28 28.75c6.34 11.34 22.95 23.95 39.28 33.27z" fill="#c3491a"/><path d="M204.95 404.77l.32.12h.08q3.81 1.33 7.78 2.28l.39.1 1.6.36.59.13 1.52.3.69.13 1.47.25.75.12 1.44.21.8.11 1.42.18.84.09 1.41.14.87.07 1.4.11.9.05 1.39.08h9.23l1-.05 1.36-.08h.33c54-53.1 65.8-108.19 64.48-149.17a69.55 69.55 0 0 1-9.6-2c-27.77 38.33-58.51 38.15-78.95 31.64-13 17.43-26 35.58-37.49 52.85l-15.29 28.75c6.37 11.31 22.97 23.91 39.27 33.23z" fill="#b44116"/><path d="M219.64 376.41l-47.42 3.76c8.09 8.76 20.47 17.59 32.7 24.59.72.26 1.45.51 2.18.75s1.4.44 2.1.65q1.92.56 3.89 1h.07l.53.13 1.41.31.35.08.28.06.33.07 1.14.22.68.13 1.48.25.66.11q1.32.21 2.65.37l.66.08q1.37.16 2.75.29l.81.07 1.32.1h.08l.89.05h.07l1.19.07h9.37c.91 0 1.83-.09 2.75-.16A238.5 238.5 0 0 0 278 365.77a239 239 0 0 1-58.36 10.64z" fill="#a83512"/><path d="M55.17 340.12S106 441.76 209 385c88.47-48.73 117.62-169.28 61.84-228.9z" fill="#f37021"/><path d="M297.45 258.28C250.57 323 195.26 278 195.26 278c-32.31 9.26-57.49 11.1-77.12 8.43l-63 53.72a106.65 106.65 0 0 0 7.28 11.82l.69 1 .15.21.62.86.12.17.77 1.05.08.11.73 1 .15.19q.83 1.1 1.72 2.23l.14.18.86 1.08.06.07 1 1.2.08.09.93 1.11.12.14q1 1.21 2.12 2.44l.13.14q1.11 1.25 2.28 2.51l.06.07 1.15 1.18.05.05q1.23 1.28 2.53 2.57l.08.08q1.31 1.29 2.69 2.57 2.1 1.95 4.36 3.86 1.51 1.28 3.1 2.53c15.46 12.16 36.19 22.16 62.24 21.47q4-.11 8.24-.57 2.78-.31 5.63-.78h.11q2.85-.48 5.78-1.12 1.45-.32 2.91-.69h.07q2.93-.73 5.92-1.64l.24-.07q3-.91 6-2A156.84 156.84 0 0 0 209 385c49.78-27.39 80.77-77.5 88.45-126.72z" fill="#dd641e"/><path d="M298.21 216.82q-4.66-16.65-10.13-34.48S328.39 325.78 173.7 368c0 0-79.69 24.37-106.63-38l-11.9 10.15S106 441.76 209 385c64-35.23 97-108 89.21-168.18z" fill="#e76220"/><path d="M214.07 382.1q2-1.19 3.95-2.43l.47-.31q1.78-1.14 3.53-2.32l.83-.56q1.89-1.29 3.73-2.63l.68-.5q1.64-1.2 3.25-2.44l.67-.51q1.79-1.39 3.53-2.82l.76-.63q1.59-1.32 3.15-2.68l.42-.37q1.7-1.49 3.35-3l.77-.72q1.65-1.55 3.26-3.12c1.08-1.06 2.13-2.14 3.18-3.23l.74-.77q1.53-1.61 3-3.25l.4-.45q1.33-1.49 2.63-3l.68-.79q1.41-1.66 2.77-3.35l.58-.73q1.17-1.47 2.31-3l.59-.77q1.29-1.7 2.53-3.44l.66-.92q1.07-1.51 2.11-3l.47-.68q1.17-1.74 2.3-3.51l.68-1.07q1-1.63 2-3.27l.43-.71q1-1.65 1.93-3.33l.67-1.19c.66-1.18 1.3-2.36 1.93-3.54l.49-1q.75-1.44 1.48-2.9l.64-1.29q.86-1.75 1.67-3.51l.58-1.29q.6-1.33 1.18-2.67l.59-1.37q.73-1.73 1.42-3.47l.6-1.52q.49-1.27 1-2.55c.19-.5.38-1 .56-1.51q.6-1.65 1.16-3.31.29-.85.57-1.71.41-1.24.79-2.48t.71-2.35q.36-1.21.7-2.43.26-.93.51-1.86c.23-.84.44-1.69.66-2.53s.42-1.72.63-2.58q.24-1 .47-2c.15-.66.29-1.33.43-2q.32-1.51.6-3c.14-.74.27-1.47.4-2.21s.21-1.2.31-1.8.15-.93.22-1.39a112.67 112.67 0 0 1-12.19 14.3C273 310.05 242.82 349.12 173.7 368c0 0-79.69 24.37-106.63-38l-11.9 10.15.07.14.13.24.43.8.29.52v.07l.34.61q.39.68.88 1.51l.51.85v.08l.57.92c.4.65.85 1.35 1.32 2.08v.08l.72 1.09.07.11.78 1.16.86 1.25.69 1 .08.11.08.12.61.85v.06l.09.12.76 1v.05l.07.09.7.94.11.14v.06q.83 1.09 1.72 2.22l.16.2.84 1.05v.05l1 1.2.05.06.92 1.11.12.14q1 1.21 2.11 2.43l.08.09v.05q1.11 1.25 2.28 2.51v.05l1.77 1.64q1.23 1.28 2.52 2.55l.08.08q1.31 1.29 2.69 2.57 1 1 2.13 1.93 1.09 1 2.22 1.92 1.51 1.28 3.1 2.53c14 11 32.35 20.26 55 21.39q3.52.17 7.17.08l2-.07 2-.12 2-.16 2.08-.21q2.78-.31 5.63-.78h.12q2.85-.47 5.77-1.12 1.45-.32 2.91-.69h.07q2.92-.73 5.91-1.64l.25-.08q3-.91 6-2 1.31-.47 2.63-1l.17-.07 2.6-1h.09q2.72-1.11 5.5-2.37l.2-.09 2.4-1.12.7-.34 2-1 .85-.42 1.92-1 .8-.41q1.34-.71 2.7-1.45c1.39-.76 2.75-1.55 4.11-2.35z" fill="#d5581d"/><path d="M266.19 174.4s-21.85 12.24-52.7 30.65L55.17 340.12a132.71 132.71 0 0 0 22.49 30.16C238.7 343.24 266.19 174.4 266.19 174.4z" fill="#d1561c"/><path d="M55.21 340.22l.05.1.05.1.07.13.08.15.1.19.1.18.13.24.12.22.15.27.16.28.19.33.24.42.3.53.21.35.24.41.24.4.26.43.28.45.27.44.31.49.29.47.34.53.31.49.37.57.34.52.6.91.51.76.43.62.39.57.7 1 .06.09c.82 1.17 1.71 2.38 2.67 3.65.49.65 1 1.32 1.54 2l.41.53.32.4.7.87.4.49.67.81.45.54.51.61q.91 1.08 1.88 2.17l.55.62.64.72.58.63.66.71.59.62.72.76.5.52.77.79c65.09-10.93 108.36-45 136.82-81.78A76.13 76.13 0 0 1 195.26 278c-32.31 9.26-57.49 11.1-77.12 8.43l-63 53.72z" fill="#c04c19"/><path d="M55.21 340.22v.2l.05.1.07.13.1.19.08.15.13.24.12.22.14.26.15.28.19.33.23.4.32.56.18.31.26.45.22.36.28.47.26.44v.06l.25.4.29.47.06.1.27.43.28.44.37.57.32.5.32.49.6.91.33.49.19.28.42.61.39.57.7 1 .06.09 1.21 1.68.15.21 1.31 1.75.15.2q.68.9 1.4 1.82l.39.5.29.36.7.87.4.49.67.81.46.55.51.6q.91 1.08 1.88 2.17l.55.62.64.72.58.63.37.4.3.32.55.59.74.78.45.46.82.84a236 236 0 0 0 23.22-5.1C87.31 359 74.93 348.19 67.06 330l-11.9 10.15z" fill="#ba4418"/><path d="M254.85 142.64S139.44 159 19.23 237.84c0 0-44.14 26.56 1.31 88.18 34.85 47.25 91 24.16 142.54-15.27 43.17-33 152.38-162.96 91.77-168.11z" fill="#f58220"/><path d="M22.4 328.43q.68.86 1.38 1.69l.13.16c.5.59 1 1.17 1.51 1.73l.4.44q.66.72 1.32 1.41l.26.27c.51.52 1 1 1.53 1.53l.44.42 1.25 1.16.39.35q.76.68 1.53 1.32l.51.42 1.17.93.52.41q.75.57 1.52 1.12l.6.42 1.07.73.66.44q.74.48 1.49.93l.72.42 1 .54.8.44 1.18.61 1.13.55.83.39.93.42.8.34q.81.33 1.62.64l.69.26 1.05.37.61.2q1 .32 1.95.6l.54.16 1.15.31.52.13q1.08.26 2.16.49l.42.09 1.2.22.52.09q1.13.19 2.26.33c30.65 3.92 66.81-15 101-41.15 9.07-6.93 21.05-18.15 33.76-31.58-1-.74-1.59-1.19-1.59-1.19C64.6 315.43 50.48 231.49 49.14 219.4Q34.3 228 19.23 237.84a40.56 40.56 0 0 0-9.82 9.25 45.34 45.34 0 0 0-2.65 3.8l-.09.15q-.37.6-.74 1.23l-.07.13-.34.61-.18.32q-.26.48-.51 1l-.22.43-.27.57-.23.5-.34.75-.3.7-.22.53-.26.66-.21.54q-.18.48-.34 1l-.17.5-.26.82-.12.4c-.11.38-.22.77-.33 1.16l-.12.47q-.12.48-.24 1l-.08.34c-.09.42-.18.85-.26 1.27l-.08.45q-.1.56-.19 1.12v.29c-.07.46-.13.92-.19 1.39v.43q-.07.63-.12 1.26v.24c0 .49-.07 1-.09 1.49v4.04c0 .5 0 1 .07 1.5v.18c0 .56.08 1.12.13 1.69v.44c.05.53.11 1.06.18 1.6v.16c.08.59.17 1.18.27 1.78l.08.45c.1.56.2 1.13.32 1.71v.15c.12.61.26 1.24.41 1.86l.11.48c.14.6.29 1.19.46 1.8v.14c.17.64.36 1.29.56 1.95l.15.5c.19.63.39 1.25.61 1.89v.13c.23.67.47 1.35.72 2l.2.53c.25.65.5 1.31.77 2l.05.14c.28.7.59 1.4.9 2.12l.25.56c.3.68.61 1.37.94 2.06l.06.14c.34.73.71 1.46 1.08 2.2l.3.59c.36.71.74 1.43 1.13 2.16l.06.12c.41.75.84 1.52 1.28 2.29l.35.61c.43.75.87 1.5 1.33 2.26l.06.11c.48.79 1 1.58 1.48 2.38l.41.63c.51.79 1 1.59 1.57 2.39v.06c.55.82 1.13 1.65 1.71 2.48l.45.64c.6.84 1.2 1.69 1.83 2.54.49.66 1 1.3 1.47 1.93z" fill="#df731d"/><path d="M20.55 326c34.85 47.25 91 24.16 142.54-15.27 29.91-22.83 91.44-92.17 106.35-134.37-1.23 1.84-2.52 3.82-3.87 6C188.7 305.16 64.94 331.41 34 307c-34.38-27.09-14.77-69.19-14.77-69.19S-24.9 264.4 20.55 326z" fill="#e9721f"/><path d="M165.21 309.09l1.15-.93.61-.5 1.14-.95.61-.51 1.32-1.12.46-.4 1.84-1.6.29-.26 1.58-1.41.61-.55 1.33-1.21.67-.61 1.37-1.27.62-.58 1.71-1.62.29-.28 2.07-2 .46-.45 1.62-1.58.67-.66 1.46-1.45.71-.71 1.54-1.55.61-.61q2.16-2.19 4.36-4.48l.63-.66 1.57-1.65.33-.35c-1-.74-1.59-1.19-1.59-1.19a264.15 264.15 0 0 1-34.13 7.55C105.4 318 52.72 321.78 34 307c-34.38-27.09-14.77-69.19-14.77-69.19L19 238a41.69 41.69 0 0 0-9.59 9.11 45.22 45.22 0 0 0-2.65 3.79l-.1.16q-.37.6-.73 1.22l-.07.12-.34.61-.18.33-.51 1-.2.41-.27.56-.23.5-.34.75-.3.71-.22.53-.26.66-.21.54-.12.34-.22.63-.17.5-.26.82-.12.4c-.11.38-.22.77-.33 1.16l-.12.47q-.12.48-.24 1l-.08.34q-.14.63-.26 1.28l-.08.44c0 .23-.08.47-.12.7s-.05.28-.07.43v.29c0 .3-.08.6-.12.9s0 .32-.07.49v.43q-.07.63-.12 1.26v.49c0 .41-.06.82-.08 1.24v5.72c0 .36.06.73.09 1.09v1.03q.08.8.19 1.62v.15c.07.56.16 1.12.25 1.68v.1l.08.45c.1.56.2 1.13.32 1.71v.15c0 .21.09.43.14.64.09.41.17.81.27 1.23l.11.47c.14.6.29 1.2.46 1.81v.13c.13.47.27.95.41 1.42l.15.53.15.5.09.27c.17.54.34 1.07.52 1.62v.13c.23.67.47 1.35.73 2l.2.53c.25.65.5 1.31.77 2l.05.13c.17.41.35.83.53 1.24l.37.88.25.56.29.64c.21.47.42.94.65 1.42l.06.13c.35.73.71 1.47 1.08 2.21l.3.58.15.28c.32.63.65 1.26 1 1.9l.05.1.16.28q.54 1 1.12 2l.35.61.07.12c.42.72.84 1.44 1.28 2.17v.07c.48.79 1 1.58 1.49 2.39l.4.63.33.5c.41.63.82 1.26 1.25 1.9l.5.73c.4.59.8 1.17 1.22 1.77l.44.63c.6.84 1.2 1.68 1.83 2.54.49.66 1 1.3 1.47 1.93l.38.48 1 1.17.43.52.12.15c.5.59 1 1.17 1.51 1.73l.39.43.79.85.54.57.26.27.83.83.7.7.44.42q.62.59 1.25 1.16l.38.35c.41.37.83.72 1.24 1.07l.29.25.51.42 1 .77.2.16.52.41.6.45.91.67.6.42.56.38.51.35.66.44q.74.48 1.49.93l.71.41 1 .55.8.44 1.18.61 1.12.55.84.39.92.41.48.2.32.14q.8.33 1.61.64l.68.25 1.05.37.28.09.33.11q1 .32 1.94.6l.49.14h.06l1.14.3h.2l.32.08q1.07.26 2.16.49l.43.09 1.2.22h.23l.3.05q1.12.19 2.26.33a76.45 76.45 0 0 0 27-1.77q4.63-1.08 9.34-2.62h.11q4.66-1.53 9.38-3.47l.23-.1q4.66-1.92 9.36-4.22l.37-.18q1.45-.71 2.91-1.46l.18-.09q3.1-1.59 6.21-3.32l.52-.29 2.68-1.52.41-.24q3-1.77 6.1-3.66l.67-.42 2.46-1.55.61-.39 3-2h.05l2.89-1.93.79-.54 2.27-1.56.77-.53 2.95-2.08.1-.08 2.81-2 .87-.64 2.15-1.59.86-.64 2.89-2.19 1.6-1.25z" fill="#d7661c"/><path d="M279.64 79.21s-11.65 36.48-45-4.69c0 0 29.06 54.38-16.87 27.19 0 0 41.93 40 9.37 45.94 0 0 44.07-1.87 35.63 39.38 0 0 21.56-18.75 28.12 2.82 0 0 3.16-41.8 40.31-19.69 0 0-24.38-43.13 7.5-39.38 0 0-28.13-11.25-27.19-40.31 0-.01-21.96 21.62-31.87-11.26z" fill="#c96019"/><path d="M338.7 130.78s-28.13-11.25-27.19-40.31c0 0-7.83 7.71-16.26 6.92l-3.86 45.25 31.21 4.14c-1.35-9.43 1.35-17.78 16.1-16z" fill="#c8531a"/><path d="M310.3 126.45c.32.63 5.92 4 14.16 8.35 2.31-3.17 6.7-4.91 14.24-4a48.47 48.47 0 0 1-10.54-6.36 122.71 122.71 0 0 0-17.86 2.01z" fill="#af4014"/><path d="M335.39 130.56a99.69 99.69 0 0 0-30.53-.42l-10.58 30.77 4.31 8.93c5.72-6.53 15.6-9.8 32.61.32 0-.01-22.59-39.98 4.19-39.6z" fill="#c74a1b"/><path d="M264.57 185.6c5.32-3.93 20.91-13.53 26.32 4.24 0 0 3.16-41.8 40.31-19.69l-.17-.3c-21.95-19.62-44.13-26.25-44.13-26.25z" fill="#c6431b"/><path d="M270.88 156.1l-9.68 8.26c2.62 5.53 3.57 12.88 1.57 22.67 0 0 21.56-18.75 28.12 2.82 0 0 0-.53.16-1.44a100.7 100.7 0 0 0-20.17-32.31z" fill="#c74a1b"/><path d="M254.85 142.64s-9.33 1.32-25.45 5c8.89.29 40.64 3.8 33.37 39.36a37.73 37.73 0 0 1 3.4-2.54c10.3-22.89 9.92-40.02-11.32-41.82z" fill="#c8551a"/><path d="M279.64 79.21a24.23 24.23 0 0 1-1 2.45c2.21 22.69-4.61 42.21-8.23 50.69.39-.07 1.42-.26 2.91-.62a80 80 0 0 0 5.83-13.73 137.33 137.33 0 0 0 6.15-26.69 38.23 38.23 0 0 1-5.66-12.1z" fill="#af4613"/><path d="M286.51 111.67s-33.27-10.86-33.89 22.27 47.09 49.83 60.05 11.75 6.77-86.05 6.77-86.05-12.22 15.68-27.66-3.85c.01 0 10.22 31.04-5.27 55.88z" fill="#3d1a00"/><ellipse cx="305.62" cy="56.68" rx="9.35" ry="14.19" transform="rotate(-80.89 305.606 56.684)" fill="#a9725d"/><path d="M319.63 58.93c-.82 5.1-8.1 8.66-15.83 7.42s-13-6.82-12.19-11.91 7.75-8.22 15.5-7 13.34 6.39 12.52 11.49z" fill="#3d1a00"/><ellipse cx="306.05" cy="56.75" rx="8.15" ry="11.95" transform="rotate(-80.88 306.063 56.739)" fill="#9d5e31"/><path d="M200.48 103.86S178.61 83.23 119.23 92s-86.88 57.5-69.38 43.75 68.13-43.13 136.25-30c.01-.02 28.76 10.61 14.38-1.89z" fill="#fbac44"/><path d="M136.82 39.84s-56.88.63-89.38 47.5c0 0-8.61 15.05 15.62-6.25 28.45-25 80.64-36.56 122.82-13.09 0 0 18.75 13.13 17.81.63-1.05-14.1-31.87-30.04-66.87-28.79z" fill="#fbb04c"/><path d="M175.14 170.42s-78.52 22.44-72.34 37.27 50.84-16.59 66.55-24.87 23.16-15.71 5.79-12.4z" fill="#f89934"/><path d="M175.57 4.68s34.69-10.78 62.82 16.87c0 0 12.32 13.39-9.84-.94-30.48-19.68-71.26-8.43-52.98-15.93z" fill="#fbac44"/><path d="M286 112.43s-21.16-4.17-25.95 9a13.52 13.52 0 0 0 4.33 15 89.81 89.81 0 0 0 21.62-24z" fill="#634026"/><path d="M312.68 145.68q.69-2 1.32-4.12c-9.08 19-28.39 26.05-45.92 13.9-17.34-12-12.41-33-11.18-37.33-2.49 3.6-4.14 8.68-4.27 15.8-.63 33.13 47.08 49.83 60.05 11.75z" fill="#0b0000"/><path d="M311.51 69.53s4.06 72.5-20 93.44a23.48 23.48 0 0 0 11.25-5.31c5.63-4.69 20.94-43.44 14.69-90.94a8 8 0 0 1-5.94 2.81z" fill="#250000"/><path d="M296.83 66.72s10.63 40.63-28.44 74.37c0 0 36.87-9.69 34.38-70.94-.01 0-2.2 0-5.94-3.43z" fill="#634026"/></g></g></svg>