<svg data-name="—ÎÓÈ_1" xmlns="http://www.w3.org/2000/svg" viewBox="458.44000244140625 170.02818298339844 1191.765869140625 1489.4619140625"><title>b236 [Converted]</title><path d="M1292.06 242.13a36.05 36.05 0 1 0-36.06-36.06 36 36 0 0 0 36.06 36.06z" fill="#474747"/><circle cx="1295.65" cy="597.1" r="19.13" fill="#474747"/><circle cx="1048.63" cy="306.85" r="19.13" fill="#474747"/><circle cx="1597.12" cy="287.72" r="19.13" fill="#474747"/><path d="M1531.65 323.62c-2.41 0-4.79.11-7.16.26q.13-2.58.13-5.19a102.37 102.37 0 0 0-197.72-37.24c-2.31-.2-4.65-.32-7-.32a82.36 82.36 0 0 0-46.68 14.42 82.73 82.73 0 0 0-160.65 38.87 43.36 43.36 0 0 0-15.69 21.82 43.31 43.31 0 1 0-26 77.93c.53 0 1.06-.06 1.59-.08a37.8 37.8 0 0 0 7.16 21.15 37.91 37.91 0 0 0-27.78 47.27 25 25 0 0 0-10 41.76 46.21 46.21 0 0 0-33.38 22.8 24.78 24.78 0 1 0-6.95 38.77 58.47 58.47 0 0 0 10.17 101.64 35.85 35.85 0 0 0 34.22 62.37 41.58 41.58 0 1 0 72.2-40.13 41.44 41.44 0 0 0 11.94-29.14 41.9 41.9 0 0 0-.4-5.46h.14a20.08 20.08 0 0 0 33.61-20.69 56 56 0 0 0-1.33-70.57 59.4 59.4 0 0 0 25.56-26.26 38 38 0 1 0 64.08-40.78 82.31 82.31 0 0 0 28.92-6.56A121.71 121.71 0 0 0 1474 526a109.38 109.38 0 1 0 57.64-202.35z" fill="#474747"/><circle cx="1395.69" cy="487.64" r="21.65" fill="#474747"/><circle cx="1397.85" cy="722.48" r="11.49" fill="#474747"/><circle cx="1249.5" cy="548.17" r="11.49" fill="#474747"/><circle cx="1578.9" cy="536.68" r="11.49" fill="#474747"/><path d="M1539.58 558.24c-1.45 0-2.88.06-4.3.16q.08-1.55.08-3.12a61.48 61.48 0 0 0-118.74-22.36c-1.39-.12-2.79-.19-4.21-.19a49.47 49.47 0 0 0-28 8.66 49.68 49.68 0 0 0-96.47 23.34 26 26 0 0 0-9.42 13.1 26 26 0 1 0-15.61 46.8h1a22.7 22.7 0 0 0 4.3 12.7 22.76 22.76 0 0 0-16.68 28.39 15 15 0 0 0-6 25.08 27.74 27.74 0 0 0-20 13.69 14.88 14.88 0 1 0-4.17 23.28 35.12 35.12 0 0 0 6.11 61 21.53 21.53 0 0 0 20.55 37.45 25 25 0 1 0 43.36-24.1 24.56 24.56 0 0 0 6.93-20.78h.08a12.06 12.06 0 0 0 20.19-12.42 33.64 33.64 0 0 0-.8-42.38 35.67 35.67 0 0 0 15.22-15.78 22.85 22.85 0 1 0 38.48-24.49 49.38 49.38 0 0 0 17.37-3.94 73.1 73.1 0 0 0 116.15-2.57 65.69 65.69 0 1 0 34.61-121.52z" fill="#474747"/><circle cx="931.8" cy="309.37" r="21.65" fill="#474747"/><path d="M934 532.72a11.49 11.49 0 1 0 11.49 11.49A11.49 11.49 0 0 0 934 532.72z" fill="#474747"/><circle cx="785.61" cy="369.9" r="11.49" fill="#474747"/><circle cx="1115.01" cy="358.41" r="11.49" fill="#474747"/><path d="M1075.69 380c-1.45 0-2.87.06-4.3.16 0-1 .08-2.07.08-3.12a61.48 61.48 0 0 0-118.74-22.36c-1.39-.11-2.79-.19-4.21-.19a49.44 49.44 0 0 0-28 8.66A49.68 49.68 0 0 0 824 386.46a26 26 0 0 0-9.42 13.1 26 26 0 1 0-15.58 46.8h1a22.71 22.71 0 0 0 4.3 12.7 22.77 22.77 0 0 0-16.68 28.39 15 15 0 0 0-6 25.08 27.75 27.75 0 0 0-20.05 13.7 14.87 14.87 0 1 0-4.17 23.28 35.11 35.11 0 0 0 6.11 61A21.53 21.53 0 0 0 784 648a25 25 0 1 0 43.36-24.1 24.56 24.56 0 0 0 6.93-20.78h.08a12.06 12.06 0 0 0 20.18-12.42 33.64 33.64 0 0 0-.79-42.38 35.66 35.66 0 0 0 15.35-15.77A22.85 22.85 0 1 0 907.58 508a49.49 49.49 0 0 0 17.42-3.94 73.09 73.09 0 0 0 116.12-2.57A65.69 65.69 0 1 0 1075.69 380z" fill="#474747"/><path fill="#ff8931" d="M554.56 1093.12h165.06v-51.25H576.09l-21.53 51.25z"/><path fill="#ff9852" d="M672.97 946.52h258.35v278.34H672.97z"/><path fill="#ff9852" d="M637.09 946.51h165.06v-51.25H658.62l-21.53 51.25z"/><path fill="#ff8931" d="M967.21 946.51H802.15v-51.25h143.53l21.53 51.25z"/><path fill="#ff8931" d="M1402.41 1067.49h-165.06v-51.26h143.53l21.53 51.26z"/><path fill="#ff9852" d="M572.5 1093.12h100.47v131.74H572.5z"/><path fill="#ff9852" d="M931.33 1067.49h441.35v157.37H931.33z"/><path fill="#ff9852" d="M931.33 1016.23h306.03v51.26H931.33z"/><path fill="#9b5438" d="M931.33 1067.49h441.35v21.53H931.33z"/><path fill="#9b5438" d="M672.97 946.52h258.35v23.07H672.97z"/><path fill="#9b5438" d="M572.5 1093.12h100.47v21.02H572.5z"/><path fill="#ff795f" d="M1070.88 784.28h-47.99l-6.47 34.6h54.46v-34.6z"/><path fill="#fff" d="M1016.42 818.88l-36.94 197.35h91.4V818.88h-54.46z"/><path fill="#fff" d="M1070.88 760.44h-43.53l-4.46 23.84h47.99v-23.84z"/><path fill="#eaeaea" d="M1114.39 760.44h-43.51v23.84h47.97l-4.46-23.84z"/><path fill="#ff5c36" d="M1118.85 784.28h-47.97v34.6h54.45l-6.48-34.6z"/><path fill="#eaeaea" d="M1070.88 818.88v197.35h91.38l-36.93-197.35h-54.45z"/><path fill="#fff" d="M1215.19 861.93l-28.87 154.3h69.1v-154.3h-40.23z"/><path fill="#ff795f" d="M1255.42 842.71h-36.63l-3.6 19.22h40.23v-19.22z"/><path fill="#fff" d="M1255.42 822.82h-32.91l-3.72 19.89h36.63v-19.89z"/><path fill="#eaeaea" d="M1288.33 822.82h-32.91v19.89h36.63l-3.72-19.89z"/><path fill="#ff5c36" d="M1292.05 842.71h-36.63v19.22h40.23l-3.6-19.22z"/><path fill="#eaeaea" d="M1255.42 861.93v154.3h69.11l-28.88-154.3h-40.23z"/><path fill="#ff795f" d="M765.24 857.32h67.66v37.94h-67.66z"/><path fill="#fff" d="M765.24 819.39h67.66v37.93h-67.66z"/><path fill="#ff795f" d="M765.24 781.45h67.66v37.93h-67.66z"/><path fill="#fff" d="M765.24 743.52h67.66v37.94h-67.66z"/><path fill="#ff795f" d="M765.24 705.58h67.66v37.94h-67.66z"/><path fill="#fff" d="M765.24 667.65h67.66v37.93h-67.66z"/><path fill="#ff795f" d="M753.97 639.98h90.22v27.67h-90.22z"/><path fill="#fff" d="M786.77 994.96h28.45v179.92h-28.45z"/><path fill="#fff" d="M835.73 995.73h28.45v179.92h-28.45z"/><path fill="#fff" d="M884.68 995.73h28.45v179.92h-28.45z"/><path fill="#fff" d="M611.98 1138.23h21.53v41.52h-21.53z"/><path fill="#fff" d="M968.72 1138.23h21.53v41.52h-21.53z"/><path fill="#fff" d="M1011.28 1138.23h21.53v41.52h-21.53z"/><path fill="#fff" d="M1053.84 1138.23h21.53v41.52h-21.53z"/><path fill="#fff" d="M1231.2 1138.23h21.53v41.52h-21.53z"/><path fill="#fff" d="M1273.76 1138.23h21.53v41.52h-21.53z"/><path fill="#fff" d="M1316.32 1138.23h21.53v41.52h-21.53z"/><path fill="#fff" d="M1103.05 1138.23h99.96v41.52h-99.96z"/><path fill="#896a6a" d="M772.15 1237.58H634.68v221.1l137.47-221.1z"/><path fill="#7c6161" d="M634.6 1458.8l.08-.12v-221.1H497.07L634.6 1458.8z"/><path fill="#fff" d="M682.53 1381.71l-24.77-18.47-23.08 26.51v68.93l47.85-76.97z"/><path fill="#eaeaea" d="M634.68 1458.68v-68.93l-22.23-17.96-22.59 15.03 44.82 71.86z"/><path fill="#896a6a" d="M1346.62 1237.58h-262.19v421.69l262.19-421.69z"/><path fill="#7c6161" d="M1084.3 1659.49l.13-.22v-421.69H821.99l262.31 421.91z"/><path fill="#fff" d="M1175.7 1512.47l-47.24-35.22-44.03 50.55v131.47l91.27-146.8z"/><path fill="#eaeaea" d="M1084.43 1659.27V1527.8l-42.39-34.25-43.09 28.66 85.48 137.06z"/><path fill="#896a6a" d="M1059.39 1237.58H822.11v381.65l237.28-381.65z"/><path fill="#7c6161" d="M821.99 1619.41l.12-.18v-381.65H584.58l237.41 381.83z"/><path fill="#fff" d="M904.71 1486.37l-42.76-31.89-39.84 45.75v119l82.6-132.86z"/><path fill="#eaeaea" d="M822.11 1619.23v-119l-38.38-30.99-38.99 25.94 77.37 124.05z"/><path fill="#896a6a" d="M1476.65 1237.58h-171.02v275.07l171.02-275.07z"/><path fill="#7c6161" d="M1305.55 1512.79l.08-.14v-275.07h-171.19l171.11 275.21z"/><path fill="#fff" d="M1365.17 1416.9l-30.82-22.99-28.72 32.98v85.76l59.54-95.75z"/><path fill="#eaeaea" d="M1305.63 1512.65v-85.76l-27.65-22.34-28.11 18.69 55.76 89.41z"/><path fill="#b58686" d="M1366.11 1237.58h9.58v25.53h-9.58z"/><path fill="#b1c663" d="M1406.4 1250.34h-35.37v86.63l35.37-86.63z"/><path fill="#aabc61" d="M1370.9 1337.3l.13-.33v-86.63h-35.63l35.5 86.96z"/><path fill="#b58686" d="M1271.03 1236.66h6.69v17.83h-6.69z"/><path fill="#b1c663" d="M1299.17 1245.57h-24.7v60.51l24.7-60.51z"/><path fill="#aabc61" d="M1274.37 1306.31l.1-.23v-60.51h-24.89l24.79 60.74z"/><path fill="#b58686" d="M1454.58 1236.66h6.69v17.83h-6.69z"/><path fill="#b1c663" d="M1482.72 1245.57h-24.7v60.51l24.7-60.51z"/><path fill="#aabc61" d="M1457.92 1306.31l.1-.23v-60.51h-24.89l24.79 60.74z"/><path fill="#b58686" d="M479.9 1237.65h6.69v17.83h-6.69z"/><path fill="#b1c663" d="M508.03 1246.56h-24.7v60.51l24.7-60.51z"/><path fill="#aabc61" d="M483.24 1307.3l.09-.23v-60.51h-24.89l24.8 60.74z"/><path fill="#b58686" d="M1192.41 1236.42h8.62v23h-8.62z"/><path fill="#b1c663" d="M1228.69 1247.92h-31.85v78.03l31.85-78.03z"/><path fill="#aabc61" d="M1196.72 1326.24l.12-.29v-78.03h-32.09l31.97 78.32z"/><path fill="#b58686" d="M716.42 1236.89h8.62v23h-8.62z"/><path fill="#b1c663" d="M752.71 1248.38h-31.86v78.03l31.86-78.03z"/><path fill="#aabc61" d="M720.73 1326.7l.12-.29v-78.03h-32.09l31.97 78.32z"/><path fill="#b58686" d="M1113.71 1236.2h5.41v14.42h-5.41z"/><path fill="#b1c663" d="M1136.45 1243.4h-19.97v48.92l19.97-48.92z"/><path fill="#aabc61" d="M1116.41 1292.5l.07-.18v-48.92h-20.12l20.05 49.1z"/><path fill="#b58686" d="M631.97 1237.35h5.41v14.41h-5.41z"/><path fill="#b1c663" d="M654.72 1244.55h-19.97v48.92l19.97-48.92z"/><path fill="#aabc61" d="M634.68 1293.65l.07-.18v-48.92h-20.12l20.05 49.1z"/><path fill="#b58686" d="M1023.2 1235.96h7.72v20.59h-7.72z"/><path fill="#b1c663" d="M1055.69 1246.26h-28.52v69.87l28.52-69.87z"/><path fill="#aabc61" d="M1027.06 1316.39l.11-.26v-69.87h-28.74l28.63 70.13z"/><path fill="#b58686" d="M957.14 1235.73h5.81v15.48h-5.81z"/><path fill="#b1c663" d="M981.57 1243.48h-21.44v52.53l21.44-52.53z"/><path fill="#aabc61" d="M960.05 1296.2l.08-.19v-52.53h-21.61l21.53 52.72z"/><path fill="#b58686" d="M797.68 1237.12h5.81v15.48h-5.81z"/><path fill="#b1c663" d="M822.11 1244.86h-21.45v52.53l21.45-52.53z"/><path fill="#aabc61" d="M800.58 1297.59l.08-.2v-52.53h-21.61l21.53 52.73z"/><path fill="#b58686" d="M893.22 1235.5h7.22v19.26h-7.22z"/><path fill="#b1c663" d="M923.61 1245.13h-26.68v65.36l26.68-65.36z"/><path fill="#aabc61" d="M896.83 1310.73l.1-.24v-65.36h-26.88l26.78 65.6z"/><path fill="#b58686" d="M562.26 1235.28h7.22v19.26h-7.22z"/><path fill="#b1c663" d="M592.65 1244.9h-26.68v65.36l26.68-65.36z"/><path fill="#aabc61" d="M565.87 1310.5l.1-.24v-65.36H539.1l26.77 65.6z"/><path fill="#513f3f" d="M458.44 1224.86h1030.59v12.79H458.44z"/></svg>