<svg xmlns="http://www.w3.org/2000/svg" viewBox="0 0 228.14999389648438 345.1400146484375"><title>Depositphotos_95647062_09</title><g data-name="Layer 2"><g data-name="Layer 1"><path d="M11.85 133.71c-6.55 23.67-4.62 63 10 89.2s60.15 24.35 70.31 19.6l.12-14.37c8.78 0-44.3 11.63-39.31-21.82s8.81-46.62 2.53-71.15-37.1-25.17-43.65-1.46z" fill="#619922" fill-rule="evenodd"/><path d="M16.7 136.7c-5 20.68-3.56 56.71 6.64 79.34s43.26 26.3 53.3 24.79l.16-11.15c6.32-.13-34.58 6.14-30.56-23s6.11-48 1.89-69.23S21.72 116 16.7 136.7z" fill="#7ab536" fill-rule="evenodd"/><path d="M79.57 238.21c-15.46-1.49-37.37-3.61-48-20.35-6.21-9.74-9.32-26.28-10.08-43a167 167 0 0 1 1.89-34.72c1.67-9.62 4.2-16.69 7.28-18.65a2.6 2.6 0 0 1 1.28-.44l-.12-2.82a5.39 5.39 0 0 0-2.67.88c-3.8 2.42-6.75 10.19-8.55 20.55A169.8 169.8 0 0 0 18.62 175c.78 17.17 4 34.22 10.53 44.41 11.42 17.91 34.14 20.1 50.17 21.65l.16-2 .08-.84z" fill="#619922"/><path d="M79.23 233.34l-2.06-.21c-13.39-1.37-32.26-3.3-39.75-19.07a61.01 61.01 0 0 1-2.28-5.51c-5.5-15.28-7.2-36.31-6.39-54.08.78-17.47 3.81-31.47 7.9-33.47l.15-.07-1-2.66-.41.17c-5 2.39-8.69 17.49-9.52 35.89-.81 18.06.93 39.51 6.56 55.15.73 2 1.53 4 2.38 5.77 8.17 17.21 28 19.24 42 20.67l2.06.21.29-2.81z" fill="#619922"/><path d="M53.63 220.31c-2.56-1-4.56-4.22-6-8.46A58.7 58.7 0 0 1 45 193.66c0-7.68.35-15.75.67-23.6 1.09-26.43 2.08-50.45-9.94-52.22l-.41 2.8c9.5 1.4 8.56 24.21 7.53 49.31-.32 7.85-.66 15.92-.67 23.71a61.68 61.68 0 0 0 2.8 19.1c1.7 5 4.23 8.81 7.65 10.17l1-2.62z" fill="#619922"/><path d="M54.06 222.31c-14.11-9-15-21.62-15.69-32.47l-.08-1.14c-1.17-17-.61-34.4-.19-47.58.42-12.93.7-22-1.33-23.4L35.14 120c.8.56.53 9 .14 21-.42 13.27-1 30.78.19 47.86l.08 1.14c.77 11.51 1.68 24.89 17 34.66l1.52-2.38z" fill="#619922"/><path d="M23.19 136.48c-3.43 13.13-3.88 36.84 5.21 50.53 5.88 8.85 15.45-.65 16.2-5.83 2.67-18.54 4-30.48.91-44s-18.89-13.79-22.32-.66z" fill="#95d44c" fill-rule="evenodd"/><path d="M28.37 135.74c-1.35 7.78-.45 21.56 5.49 29.05 3.84 4.85 8.93-1.13 9.11-4.17.64-10.88.86-17.88-1.62-25.59s-11.63-7.08-13 .71z" fill="#c8f584" fill-rule="evenodd"/><path d="M208.06 37.94c12.72 28.43 17.79 78.08 4.44 113.74s-70.76 42-84.42 38l-2.89-18c-11 1.65 57.76 6.15 45.14-34.84S150.41 80 153.62 48.09s41.73-38.59 54.44-10.15z" fill="#619922" fill-rule="evenodd"/><path d="M202.55 42.61c10.23 25 15.26 70.43 6.78 100.75s-49.23 41.21-62.11 41.23l-2.32-13.95c-8 1 44.52 1.12 33.93-34.7S162 77 163.27 49.5s29-31.87 39.27-6.89z" fill="#7ab536" fill-rule="evenodd"/><path d="M143 181.86c19.11-4.81 46.16-11.63 56.36-34.66 5.93-13.39 6.69-34.72 4.45-55.85a211.63 211.63 0 0 0-9-43.18c-3.93-11.74-8.44-20.12-12.68-22a3.29 3.29 0 0 0-1.69-.31l-.38-3.56a6.84 6.84 0 0 1 3.52.6c5.22 2.31 10.4 11.49 14.64 24.14A215.38 215.38 0 0 1 207.43 91c2.29 21.68 1.46 43.67-4.74 57.69-10.91 24.63-39 31.7-58.79 36.69l-.58-2.44-.26-1z" fill="#619922"/><path d="M142.55 175.68l2.54-.66c16.53-4.26 39.82-10.28 46.21-31.47.71-2.35 1.31-4.8 1.81-7.34 4-20.2 2.11-46.9-2.28-69-4.3-21.7-10.79-38.79-16.28-40.44l-.2-.05.69-3.51.54.13c6.78 2 14.23 20.27 18.77 43.19 4.46 22.49 6.35 49.71 2.27 70.4a82.21 82.21 0 0 1-1.88 7.68c-7 23.13-31.41 29.44-48.75 33.92l-2.54.66-.9-3.47z" fill="#619922"/><path d="M172.16 154.47c3-1.76 4.92-6.16 5.93-11.75a74.5 74.5 0 0 0-.13-23.31c-1.48-9.62-3.43-19.68-5.33-29.46-6.4-32.93-12.21-62.86 2.52-67.37l1 3.43c-11.65 3.56-6.13 32 0 63.26 1.9 9.78 3.85 19.83 5.35 29.6 1.25 8.17 1.45 17.18.13 24.47-1.19 6.57-3.63 11.86-7.66 14.21l-1.8-3.09z" fill="#619922"/><path d="M172 157.06c16-14 14.64-29.95 13.49-43.69l-.12-1.45c-1.77-21.52-5.78-43.24-8.82-59.69-3-16.13-5.06-27.39-2.79-29.59l2.49 2.58c-.89.86 1 11.34 3.82 26.36 3.06 16.55 7.1 38.41 8.88 60l.12 1.45c1.22 14.58 2.64 31.53-14.71 46.69l-2.36-2.7z" fill="#619922"/><path d="M194.37 43.58c6.8 15.8 11.87 45.45 3.08 64.34-5.68 12.21-19.45 2.08-21.45-4.23-6.88-22.73-10.87-37.45-9.53-55s21.06-20.88 27.86-5.07z" fill="#95d44c" fill-rule="evenodd"/><path d="M187.73 43.64c3.18 9.5 4.67 26.95-1.35 37.47-3.89 6.81-11.41.28-12.22-3.5-2.88-13.52-4.48-22.25-2.84-32.39s13.23-11.09 16.41-1.59z" fill="#c8f584" fill-rule="evenodd"/><path d="M202 77.43a196.64 196.64 0 0 0-7.08-29.26c-1.21-3.63-2.48-6.93-3.79-9.83a19.45 19.45 0 0 1 3.27 5.24c3.67 8.54 6.84 21.11 7.6 33.85z" fill="#7ab536"/><path d="M195.3 111.19a230.58 230.58 0 0 0-4.46-44C188 52.9 184.22 40.6 180.4 33.4a13.06 13.06 0 0 1 4 .55c3.83 7.89 7.37 19.45 10 32.54a239.14 239.14 0 0 1 4.42 38.22 39.7 39.7 0 0 1-1.32 3.2 12.06 12.06 0 0 1-2.16 3.27z" fill="#7ab536"/><path d="M173.9 96.57q-.64-3.32-1.28-6.61c-2.7-13.89-5.29-27.24-6.29-38.38q.06-1.45.17-2.92a18.74 18.74 0 0 1 2.93-9.06c-.63 11.95 2.93 30.27 6.7 49.68 1.28 6.59 2.58 13.29 3.76 20a13.7 13.7 0 0 1-3.86-5.54q-1.12-3.7-2.13-7.12z" fill="#7ab536"/><path d="M185.45 112.82l-.08-.9c-1.77-21.52-5.78-43.24-8.82-59.69-1.19-6.46-2.24-12.14-2.93-16.77a13.25 13.25 0 0 1 3.3-1.51c.73 4.53 1.85 10.58 3.15 17.63 3.06 16.55 7.1 38.41 8.88 60l.12 1.45v.59a11.52 11.52 0 0 1-3.67-.84z" fill="#7ab536"/><path d="M190.43 65.19c-2.28-11-5.12-20.73-8.07-27.65a9.4 9.4 0 0 1 5.38 6.09 62.26 62.26 0 0 1 2.7 21.56z" fill="#a2cd5a"/><path d="M182 84.08c-1.75-11.64-3.78-22.58-5.49-31.85-.88-4.79-1.69-9.14-2.33-13a7.9 7.9 0 0 1 3.27-1.92c.69 4 1.58 8.82 2.58 14.23 1.67 9 3.62 19.61 5.35 30.88a4.57 4.57 0 0 1-3.38 1.66z" fill="#a2cd5a"/><path d="M74.5 105.86C59.24 155 82.06 269.8 90 327c2.5 18.14 48.68 16.25 49.14 0 1.75-61.39 27.17-150.46 7.34-219.76C134.35 65.08 86.56 67 74.5 105.86z" fill="#619922" fill-rule="evenodd"/><path d="M81.51 107.92C69.13 153.17 87.65 258.86 94 311.56c2 16.7 39.49 15 39.86 0 1.42-56.52 22-138.52 6-202.32-9.8-38.86-48.57-37.11-58.36-1.32z" fill="#7ab536" fill-rule="evenodd"/><path d="M108.13 80.54c7.34.1 13.89 6.47 19 15.66 6.15 11.06 10.14 26.1 10.95 39.36 1.9 31.1.3 67.38-2.83 103.76-3 34.66-7.33 69.32-11.37 99.68 1-.21 2-.46 2.95-.73 4-30.2 8.31-64.52 11.25-98.72 3.13-36.48 4.73-72.89 2.83-104.16-.83-13.64-4.95-29.14-11.3-40.57-5.58-10-12.93-17-21.43-17.11v2.82z" fill="#619922"/><path d="M108.12 80.54c4.29.09 8.25 6.38 11.42 15.44 3.89 11.12 6.42 26.23 6.93 39.55 1.19 31.13.19 67.44-1.78 103.84-1.88 34.83-4.66 69.86-7.24 100.49q1.45-.09 2.87-.27c2.55-30.44 5.31-65.24 7.19-100.08 2-36.46 3-72.84 1.78-104.08-.52-13.58-3.1-29-7.08-40.38-3.56-10.15-8.35-17.21-14-17.33l-.05 2.82z" fill="#619922"/><path d="M107.8 77.75c-3.79 1-6.79 8.08-8.85 18.08a209.63 209.63 0 0 0-3.62 38.51c-.18 29.12.47 62.89 1.63 97 1.26 37.06 3.11 74.51 5.13 106.92q1.4.42 2.88.74c-2-32.67-3.92-70.46-5.19-107.74-1.16-34.12-1.81-67.86-1.63-96.92a206.79 206.79 0 0 1 3.56-38c1.85-8.95 4.2-15.24 6.78-15.89l-.7-2.75z" fill="#619922"/><path d="M107.47 80.36c1 .55 2 6.86 2.86 15.88 1 10.68 1.61 24.89 1.64 38.1.08 29.08-.22 62.83-.75 97-.58 37.54-1.45 75.55-2.4 108.34.93.11 1.87.19 2.82.24.95-32.8 1.82-70.89 2.4-108.54.53-34.13.83-67.89.75-97 0-13.31-.63-27.62-1.65-38.37-.94-9.91-2.39-17-4.31-18.09l-1.36 2.47z" fill="#619922"/><path d="M108 77.72c-7.23.88-13.19 7.91-17.47 17.83-4.69 10.87-7.44 25.33-7.61 38.78-.37 29.16 1 62.95 3.41 97.09 2.54 36.12 6.29 72.68 10.41 104.58a23.7 23.7 0 0 0 3 1.44c-4.2-32.27-8-69.47-10.64-106.25-2.42-34.12-3.79-67.83-3.41-96.86.17-13.08 2.83-27.14 7.39-37.7 3.9-9 9.11-15.4 15.2-16.14l-.28-2.77z" fill="#619922"/><path d="M92.5 107c-4.43 25.53-1.48 70.72 18 95.3 12.6 15.9 29.3-3.71 29.89-13.69 2.12-35.7 2.81-58.64-5.31-83.93S96.94 81.51 92.5 107z" fill="#95d44c" fill-rule="evenodd"/><path d="M122.12 88.73a49.52 49.52 0 0 1 5 7.47c6.15 11.06 10.14 26.1 10.95 39.36a580.8 580.8 0 0 1 .08 60.08 18 18 0 0 0 2.24-7c.62-10.54 1.12-20 1.31-28.68-.07-8.47-.32-16.69-.8-24.58-.83-13.64-4.95-29.14-11.3-40.57l-.44-.77a22.19 22.19 0 0 0-7-5.32z" fill="#7ab536"/><path d="M115.53 86.88a53.9 53.9 0 0 1 4 9.09c3.89 11.12 6.42 26.23 6.93 39.55.84 21.95.59 46.48-.32 71.79a17.8 17.8 0 0 0 2.88-1.5c.87-24.8 1.09-48.83.26-70.39-.52-13.58-3.1-29-7.08-40.38a59.89 59.89 0 0 0-3.15-7.47 19.84 19.84 0 0 0-3.54-.68z" fill="#7ab536"/><path d="M99.68 92.55q-.39 1.58-.74 3.28a209.63 209.63 0 0 0-3.62 38.51c-.07 11.18 0 23 .14 35.34.86 3.35 1.85 6.64 3 9.84-.27-15.83-.38-31-.29-45.17a206.79 206.79 0 0 1 3.56-38c.51-2.46 1.05-4.71 1.63-6.7a20.77 20.77 0 0 0-3.66 2.86z" fill="#7ab536"/><path d="M109.29 87.27c.36 2.48.71 5.53 1 9 1 10.68 1.61 24.89 1.64 38.1.06 21.17-.08 44.81-.37 69.27a17.2 17.2 0 0 0 2.79 2.47c.31-25.33.46-49.85.4-71.74 0-13.31-.63-27.62-1.65-38.37-.32-3.42-.71-6.5-1.15-9.12a19.38 19.38 0 0 0-2.7.41z" fill="#7ab536"/><path d="M104.08 107.27c-2.6 15-.87 41.44 10.55 55.85 7.38 9.31 17.17-2.17 17.51-8 1.24-20.92 1.65-34.36-3.11-49.18s-22.35-13.6-24.95 1.36z" fill="#c8f584" fill-rule="evenodd"/><path d="M119.49 95.82l.05.15c3.89 11.12 6.42 26.23 6.93 39.55.35 9.1.51 18.65.51 28.51a16.76 16.76 0 0 0 2.82-3.16c0-8.77-.2-17.29-.51-25.45a152.21 152.21 0 0 0-6.28-38 12.12 12.12 0 0 0-3.52-1.62z" fill="#a2cd5a"/><path d="M110.41 97.12c1 10.57 1.53 24.37 1.56 37.23v24.91a37.28 37.28 0 0 0 2.67 3.86l.14.17c0-10 .06-19.71 0-28.94 0-13.31-.63-27.62-1.65-38.37v-.09a11.64 11.64 0 0 0-2.72 1.22z" fill="#a2cd5a"/><path d="M100.51 58.21c3.67 4 13.49 26.11 9.16 27.55s-4.43-14.87-9.16-27.55z" fill="#ffc" fill-rule="evenodd"/><path d="M114.69 57.55c1.17 5.31-1.36 29.36-5.83 28.44s3.6-15.1 5.83-28.44z" fill="#ffc" fill-rule="evenodd"/><path d="M125.84 62.81c-1.28 5.29-14.07 25.8-17.69 23s9.85-12 17.69-23z" fill="#ffc" fill-rule="evenodd"/><path d="M98 97.78c-3.67 4-13.49 26.11-9.16 27.55s4.4-14.88 9.16-27.55z" fill="#ffc" fill-rule="evenodd"/><path d="M83.8 97.11c-1.17 5.31 1.36 29.36 5.83 28.44S86 110.45 83.8 97.11z" fill="#ffc" fill-rule="evenodd"/><path d="M72.65 102.37c1.28 5.29 14.07 25.8 17.69 23s-9.85-12-17.69-23z" fill="#ffc" fill-rule="evenodd"/><path d="M119.41 113.6c3.66 4 13.49 26.11 9.16 27.55s-4.43-14.87-9.16-27.55z" fill="#ffc" fill-rule="evenodd"/><path d="M133.59 112.94c1.17 5.31-1.36 29.36-5.83 28.44s3.6-15.1 5.83-28.44z" fill="#ffc" fill-rule="evenodd"/><path d="M144.73 118.2c-1.28 5.29-14.07 25.8-17.69 23s9.85-12 17.69-23z" fill="#ffc" fill-rule="evenodd"/><path d="M85.62 153.59c4.58 2.93 19.81 21.71 16 24.22s-8.14-13.21-16-24.22z" fill="#ffc" fill-rule="evenodd"/><path d="M99.14 149.26c2.51 4.83 6.31 28.7 1.75 29s-.44-15.51-1.75-29z" fill="#ffc" fill-rule="evenodd"/><path d="M111.27 151.45c.14 5.44-6.89 28.57-11.11 26.82s6.39-14.14 11.11-26.82z" fill="#ffc" fill-rule="evenodd"/><path d="M95.1 205.68c-3.67 4-13.5 26.11-9.16 27.54s4.43-14.87 9.16-27.54z" fill="#ffc" fill-rule="evenodd"/><path d="M80.92 205c-1.17 5.31 1.36 29.36 5.83 28.44s-3.6-15.09-5.83-28.44z" fill="#ffc" fill-rule="evenodd"/><path d="M69.78 210.27c1.28 5.29 14.07 25.8 17.69 23s-9.84-12-17.69-23z" fill="#ffc" fill-rule="evenodd"/><path d="M133.8 171.87c3.66 4 13.49 26.11 9.16 27.55s-4.43-14.87-9.16-27.55z" fill="#ffc" fill-rule="evenodd"/><path d="M148 171.2c1.16 5.31-1.36 29.36-5.83 28.44s3.6-15.09 5.83-28.44z" fill="#ffc" fill-rule="evenodd"/><path d="M159.12 176.46c-1.28 5.29-14.07 25.8-17.69 23s9.84-12 17.69-23z" fill="#ffc" fill-rule="evenodd"/><path d="M110.58 215c3.67 4 13.5 26.11 9.16 27.55s-4.42-14.87-9.16-27.55z" fill="#ffc" fill-rule="evenodd"/><path d="M124.76 214.36c1.17 5.31-1.36 29.36-5.83 28.44s3.6-15.09 5.83-28.44z" fill="#ffc" fill-rule="evenodd"/><path d="M135.91 219.62c-1.28 5.29-14.07 25.8-17.69 23s9.85-12 17.69-23z" fill="#ffc" fill-rule="evenodd"/><path d="M184 135.9c-3.67 4-13.49 26.11-9.16 27.55s4.43-14.87 9.16-27.55z" fill="#ffc" fill-rule="evenodd"/><path d="M169.86 135.23c-1.17 5.31 1.36 29.36 5.83 28.44s-3.6-15.1-5.83-28.44z" fill="#ffc" fill-rule="evenodd"/><path d="M158.72 140.5c1.28 5.29 14.07 25.8 17.69 23s-9.85-12-17.69-23z" fill="#ffc" fill-rule="evenodd"/><path d="M123.72 262.5c3.67 4 13.5 26.11 9.16 27.55s-4.43-14.87-9.16-27.55z" fill="#ffc" fill-rule="evenodd"/><path d="M137.9 261.84c1.17 5.31-1.36 29.36-5.83 28.44s3.6-15.1 5.83-28.44z" fill="#ffc" fill-rule="evenodd"/><path d="M149 267.1c-1.28 5.29-14.07 25.8-17.69 23s9.85-12 17.69-23z" fill="#ffc" fill-rule="evenodd"/><path d="M121.52 304.22c-3.66 4-13.49 26.11-9.16 27.55s4.42-14.87 9.16-27.55z" fill="#ffc" fill-rule="evenodd"/><path d="M107.34 303.56c-1.17 5.31 1.36 29.36 5.83 28.44s-3.6-15.1-5.83-28.44z" fill="#ffc" fill-rule="evenodd"/><path d="M96.2 308.82c1.28 5.29 14.07 25.8 17.69 23s-9.85-12-17.69-23z" fill="#ffc" fill-rule="evenodd"/><path d="M189.53.67c-3.67 4-13.5 26.11-9.16 27.55s4.43-14.87 9.16-27.55z" fill="#ffc" fill-rule="evenodd"/><path d="M175.35 0c-1.17 5.31 1.36 29.36 5.83 28.44s-3.6-15.09-5.83-28.44z" fill="#ffc" fill-rule="evenodd"/><path d="M164.2 5.26c1.28 5.29 14.07 25.8 17.69 23s-9.84-12-17.69-23z" fill="#ffc" fill-rule="evenodd"/><path d="M197.82 35.92c3.67 4 13.5 26.11 9.16 27.55s-4.42-14.87-9.16-27.55z" fill="#ffc" fill-rule="evenodd"/><path d="M212 35.25c1.17 5.31-1.36 29.36-5.83 28.44s3.6-15.1 5.83-28.44z" fill="#ffc" fill-rule="evenodd"/><path d="M223.14 40.51c-1.28 5.29-14.07 25.8-17.69 23s9.85-12 17.69-23z" fill="#ffc" fill-rule="evenodd"/><path d="M169.91 46c-3.67 4-13.5 26.11-9.16 27.55s4.43-14.87 9.16-27.55z" fill="#ffc" fill-rule="evenodd"/><path d="M155.73 45.32c-1.17 5.31 1.36 29.36 5.83 28.44s-3.6-15.09-5.83-28.44z" fill="#ffc" fill-rule="evenodd"/><path d="M144.58 50.58c1.28 5.29 14.07 25.8 17.69 23s-9.85-12-17.69-23z" fill="#ffc" fill-rule="evenodd"/><path d="M171 84c4.57 2.95 19.72 21.79 15.9 24.29S178.79 95.06 171 84z" fill="#ffc" fill-rule="evenodd"/><path d="M184.51 79.75c2.49 4.84 6.19 28.73 1.64 29s-.38-15.51-1.64-29z" fill="#ffc" fill-rule="evenodd"/><path d="M196.63 82c.12 5.44-7 28.54-11.22 26.77s6.45-14.12 11.22-26.77z" fill="#ffc" fill-rule="evenodd"/><path d="M205.57 111.95c2.21 5 4.57 29 0 29s.49-15.51 0-29z" fill="#ffc" fill-rule="evenodd"/><path d="M219.23 115.79c-.57 5.41-10.55 27.43-14.51 25.15s8.18-13.19 14.51-25.15z" fill="#ffc" fill-rule="evenodd"/><path d="M228.15 124.3c-2.88 4.62-21.5 20-24.05 16.26s13.13-8.28 24.05-16.26z" fill="#ffc" fill-rule="evenodd"/><path d="M100.1 260.89c-3.19 4.41-10.47 27.46-6 28.4s2.72-15.28 6-28.4z" fill="#ffc" fill-rule="evenodd"/><path d="M85.94 261.82c-.56 5.41 4.65 29 9 27.6s-5.28-14.59-9-27.6z" fill="#ffc" fill-rule="evenodd"/><path d="M75.46 268.31c1.87 5.11 16.89 24.05 20.17 20.88s-11.13-10.81-20.17-20.88z" fill="#ffc" fill-rule="evenodd"/><path d="M21.28 163.77a155.08 155.08 0 0 1 2.06-23.65c.52-3 1.12-5.7 1.79-8.11a15.3 15.3 0 0 0-1.93 4.47 84 84 0 0 0-1.92 27.29z" fill="#7ab536"/><path d="M30.47 189.3a181.68 181.68 0 0 1-1.73-34.83c.52-11.48 2-21.51 4.14-27.57a10.35 10.35 0 0 0-3 .9c-2 6.6-3.44 16-3.92 26.55A188.64 188.64 0 0 0 27 184.67q.66 1.21 1.41 2.34a9.49 9.49 0 0 0 2.07 2.29z" fill="#7ab536"/><path d="M45.42 175.37l.22-5.31c.46-11.15.9-21.87.36-30.67q-.22-1.12-.48-2.25a14.78 14.78 0 0 0-3.36-6.71c1.91 9.24 1.3 23.94.66 39.53-.22 5.29-.44 10.67-.57 16a10.8 10.8 0 0 0 2.36-4.78c.29-2 .56-3.94.82-5.81z" fill="#7ab536"/><path d="M38.34 189.41v-.71c-1.17-17-.61-34.4-.19-47.58.17-5.18.31-9.73.3-13.42a10.44 10.44 0 0 0-2.75-.79c0 3.62-.19 8.46-.37 14.12-.42 13.27-1 30.78.19 47.86l.08 1.14v.47a9.12 9.12 0 0 0 2.76-1.09z" fill="#7ab536"/><path d="M28.82 152.87a120.72 120.72 0 0 1 3-22.51 7.41 7.41 0 0 0-3.47 5.39 49.1 49.1 0 0 0 .45 17.12z" fill="#a2cd5a"/><path d="M37.59 166.6c0-9.28.27-18.05.51-25.48.12-3.84.23-7.33.28-10.38a6.21 6.21 0 0 0-2.77-1.11c-.06 3.2-.19 7.06-.33 11.4-.23 7.23-.5 15.71-.51 24.71a3.61 3.61 0 0 0 2.83.87z" fill="#a2cd5a"/><path d="M25 97.06c3.67 4 13.5 26.11 9.16 27.55S29.72 109.73 25 97.06z" fill="#ffc" fill-rule="evenodd"/><path d="M39.16 96.39c1.17 5.31-1.36 29.36-5.83 28.44s3.6-15.09 5.83-28.44z" fill="#ffc" fill-rule="evenodd"/><path d="M50.31 101.65c-1.28 5.29-14.07 25.8-17.69 23s9.85-12 17.69-23z" fill="#ffc" fill-rule="evenodd"/><path d="M25.33 142.38c-3.67 4-13.49 26.11-9.16 27.54s4.43-14.87 9.16-27.54z" fill="#ffc" fill-rule="evenodd"/><path d="M11.15 141.71C10 147 12.51 171.06 17 170.15s-3.6-15.09-5.83-28.44z" fill="#ffc" fill-rule="evenodd"/><path d="M0 147c1.28 5.29 14.07 25.8 17.69 23S7.85 158 0 147z" fill="#ffc" fill-rule="evenodd"/><path d="M38.84 157.48c3.67 4 13.5 26.11 9.16 27.55s-4.42-14.87-9.16-27.55z" fill="#ffc" fill-rule="evenodd"/><path d="M53 156.81c1.17 5.31-1.36 29.36-5.83 28.44s3.6-15.1 5.83-28.44z" fill="#ffc" fill-rule="evenodd"/><path d="M64.17 162.08c-1.28 5.29-14.07 25.8-17.69 23s9.84-12 17.69-23z" fill="#ffc" fill-rule="evenodd"/><path d="M33.08 192.57c-2.41 4.87-5.76 28.82-1.2 29s.15-15.52 1.2-29z" fill="#ffc" fill-rule="evenodd"/><path d="M19.26 195.84c.35 5.43 9.41 27.84 13.46 25.72s-7.63-13.52-13.46-25.72z" fill="#ffc" fill-rule="evenodd"/><path d="M10 204c2.69 4.73 20.65 20.91 23.36 17.24S20.59 212.41 10 204z" fill="#ffc" fill-rule="evenodd"/></g></g></svg>