<svg xmlns="http://www.w3.org/2000/svg" viewBox="-0.0025620460510253906 -0.6121435165405273 214.60830688476562 210.19581604003906"><title>Depositphotos_106578170_24</title><g data-name="Layer 2"><g data-name="Layer 1"><path d="M96.89 136.84c-6.51 4.22-13.23 8.57-19.92 12.71v44.67h21.37c6.61-6.69 19.59-20.81 19.69-21.19a137.15 137.15 0 0 0 3.72-32.17 137.06 137.06 0 0 0-1.32-18.94c-7.83 4.75-15.8 9.91-23.54 14.92z" fill="#fed9b5"/><path d="M26.24 121.58a151 151 0 0 0 2.19 51.21c.1.45-.35.85 18.37 21.23.76-.06-.17 0 19.26 0 .17-.13.1-44.42.1-44.65-14.36-9.19-26.45-19.56-39.92-27.79z" fill="#fed9b5"/><path d="M108.31 22.72l.86-3a1.74 1.74 0 0 1 .52-.84H36.34a1.74 1.74 0 0 1 .53.84l.86 3c4.14 14.28 8.84 30.57 3.48 44.89-5.29 14.15-10.4 27.85-13.74 42.53h91.09c-3.34-14.68-8.45-28.37-13.74-42.53-5.36-14.32-.65-30.61 3.49-44.89z" fill="#fed9b5"/><path d="M118 57.62l.15.07v-.15z" fill="#89d4f0"/><path d="M21.13 111.22q-.76 3.51-1.36 7.1c8.14 4.47 15.71 9.58 23.73 15 6.85 4.62 13.94 9.39 21.39 13.71h9.81c6.79-4.2 13.64-8.63 20.27-12.92 8.11-5.26 16.49-10.69 24.71-15.63l.17-.07q-.6-3.63-1.37-7.16z" fill="#89d4f0"/><path d="M181.09 104.94a15.09 15.09 0 0 0-4.15-1.09v6a1.76 1.76 0 1 1-3.52 0v-6a15.16 15.16 0 0 0 0 30.12 1.75 1.75 0 0 1 3.48 0 15.17 15.17 0 0 0 13.4-14.51 15.5 15.5 0 0 1-2.58-2.17 24.52 24.52 0 0 1-6.63-12.35z" fill="#f1686c"/><path d="M21.43 57.62v.07l.15-.07-.15-.08a.64.64 0 0 1 0 .08z" fill="#89d4f0"/><path d="M189.48 97.35H189l8.74 10.05a1.76 1.76 0 0 1-2.66 2.32l-9.44-10.83a5.57 5.57 0 0 0-1.21 3.78 13.8 13.8 0 0 0 1.26 5.3 24 24 0 0 0 3.86 6c.26.29.52.6.79.88a12.91 12.91 0 0 0 3.5 2.59 25.62 25.62 0 0 0 11.34 2.38h.8c.26-3.21.38-11.19-4.07-15.89-3.91-4.06-8.63-6.58-12.43-6.58z" fill="#89d4f0"/><path d="M178.79 204.48a1.74 1.74 0 0 1-.41 1.07 21.28 21.28 0 0 0 19.92-5.94c-4.14-.66-9.57-4.07-14.53-8.25-2.99 4.17-4.88 8.79-4.98 13.12z" fill="#89d4f0"/><path d="M170.36 167.57c.44 2.93 3.23 8.07 8.23 13.77 4.34-4.75 7.21-10.72 7.06-17.4a1.61 1.61 0 0 1 0-.37 20.79 20.79 0 0 0-2.65-.17 21.22 21.22 0 0 0-12.64 4.17z" fill="#89d4f0"/><path d="M189.17 164.29c0 7.58-3.26 14.32-8.19 19.63l.8.82c.52.52 1 1 1.56 1.51 5.18-5.8 12.1-10.16 18.53-11.56a21.44 21.44 0 0 0-12.7-10.4z" fill="#89d4f0"/><path d="M186 188.6c6.23 5.28 11.82 8 14.22 7.58a1.68 1.68 0 0 1 .81.05 21.25 21.25 0 0 0 2.25-18.23c-6.28 1.07-12.64 5.25-17.28 10.6z" fill="#89d4f0"/><path d="M161.7 184.73a21.21 21.21 0 0 0 1 6.6 36.79 36.79 0 0 0 13.3-7.51c-4.33-4.91-7.42-9.75-8.67-13.6a21.27 21.27 0 0 0-5.63 14.51z" fill="#89d4f0"/><path d="M179.28 187.23c-.29-.28-.56-.56-.83-.85a40.38 40.38 0 0 1-14.33 8.21 21.46 21.46 0 0 0 11.17 10v-.21c.12-5.39 2.38-10.75 5.82-15.41a43.12 43.12 0 0 1-1.83-1.74z" fill="#f1686c"/><path d="M31.81 17.28a1.76 1.76 0 0 0-3.38 1l.91 3c4.19 13.78 8.93 29.39 3.76 42.58-9.64 24.56-18.75 47.77-18.75 77.2a140.56 140.56 0 0 0 3.82 33 1.76 1.76 0 0 0 1.71 1.35 1.52 1.52 0 0 0 .42 0 1.75 1.75 0 0 0 1.31-2.1 137.13 137.13 0 0 1-3.72-32.16c0-28.77 9-51.67 18.51-75.91 5.62-14.32.69-30.57-3.67-44.89z" fill="#fff"/><path d="M110.27 21.3c.31-1 .62-2 .91-3a1.76 1.76 0 1 0-3.37-1l-.9 3c-4.36 14.33-9.29 30.57-3.67 44.89 9.52 24.24 18.51 47.14 18.51 75.91a137 137 0 0 1-3.75 32.14 1.76 1.76 0 0 0 1.3 2.12 1.53 1.53 0 0 0 .42 0 1.76 1.76 0 0 0 1.71-1.35 140.65 140.65 0 0 0 3.82-33c0-29.44-9.11-52.64-18.75-77.2-5.16-13.12-.41-28.74 3.77-42.51z" fill="#fff"/><path d="M119.88 107.69H19.72a1.76 1.76 0 1 0 0 3.52h100.16a1.76 1.76 0 0 0 0-3.52z" fill="#fff"/><path d="M65.3 147.25c-7.6-4.39-14.81-9.25-21.78-13.95-8.2-5.53-16-10.75-24.31-15.3a1.76 1.76 0 1 0-1.68 3.1c8.21 4.47 15.89 9.64 24 15.12 7 4.74 14.29 9.64 22 14.09a1.76 1.76 0 1 0 1.76-3.05z" fill="#fff"/><path d="M119.68 118.45c-8.22 4.94-16.6 10.37-24.71 15.63-6.77 4.38-13.76 8.92-20.69 13.19a1.76 1.76 0 0 0 .93 3.26 1.69 1.69 0 0 0 .92-.27c7-4.29 14-8.83 20.75-13.22 8.08-5.25 16.44-10.66 24.61-15.57a1.76 1.76 0 0 0-1.82-3z" fill="#fff"/><path d="M73.59 83.07H66a1.76 1.76 0 0 0 0 3.52h7.54a1.76 1.76 0 0 0 0-3.52z" fill="#fff"/><path d="M64.42 147a1.76 1.76 0 0 0-1.76 1.76v43a1.76 1.76 0 0 0 3.52 0v-43a1.76 1.76 0 0 0-1.76-1.76z" fill="#fff"/><path d="M75.21 147a1.77 1.77 0 0 0-1.77 1.76v43a1.76 1.76 0 1 0 3.53 0v-43a1.76 1.76 0 0 0-1.76-1.76z" fill="#fff"/><path d="M75.21 147H64.42a1.76 1.76 0 1 0 0 3.53h10.8a1.76 1.76 0 1 0 0-3.53z" fill="#fff"/><path d="M137.86 55.86h-17.91a1.76 1.76 0 0 0 0 3.53h17.91a1.76 1.76 0 1 0 0-3.53z" fill="#fff"/><path d="M126.38 49.44l-13 6.61a1.76 1.76 0 0 0 .8 3.33 1.73 1.73 0 0 0 .8-.19l13-6.61a1.76 1.76 0 0 0-1.6-3.14z" fill="#fff"/><path d="M128 62.66L115 56a1.76 1.76 0 0 0-1.6 3.14l13 6.61a1.76 1.76 0 1 0 1.6-3.14z" fill="#fff"/><path d="M19.67 55.86H1.76a1.76 1.76 0 0 0 0 3.53h17.91a1.76 1.76 0 0 0 0-3.53z" fill="#fff"/><path d="M26.26 56l-13-6.61a1.76 1.76 0 1 0-1.64 3.12l13 6.61a1.76 1.76 0 0 0 1.7-3.12z" fill="#fff"/><path d="M24.67 56l-13 6.61a1.76 1.76 0 0 0 .8 3.33 1.73 1.73 0 0 0 .79-.19l13-6.61A1.76 1.76 0 0 0 24.67 56z" fill="#fff"/><path d="M175.17 100.22a18.7 18.7 0 1 0 18.7 18.7 18.72 18.72 0 0 0-18.7-18.7zm0 33.88a15.17 15.17 0 1 1 15.17-15.18 15.17 15.17 0 0 1-15.17 15.18z" fill="#fff"/><ellipse cx="196.1" cy="109.39" rx="9.72" ry="16.65" transform="rotate(-43.41 196.094 109.384)" fill="#89d4f0"/><path d="M189.48 93.82a8.57 8.57 0 0 0-6 2.21c-4.68 4.42-2.79 13.77 4.31 21.26 5 5.28 13 6.06 17.4 6.06 1.54 0 2.53-.1 2.57-.1a1.77 1.77 0 0 0 1.56-1.47c.09-.53 2-13-4.84-20.27-4.53-4.74-10.26-7.69-15-7.69zm16.46 26h-.8c-3.79 0-10.76-.65-14.84-5-5.54-5.86-7.58-13.32-4.45-16.28a5 5 0 0 1 3.62-1.24c3.8 0 8.55 2.52 12.39 6.59 4.47 4.75 4.34 12.73 4.09 15.93z" fill="#fff"/><path d="M182.12 89.51a1.75 1.75 0 0 0-1.33-.61h-4.9a1.76 1.76 0 0 0 0 3.52H180l15 17.33a1.76 1.76 0 0 0 2.66-2.32z" fill="#fff"/><path d="M175.17 82.51a1.76 1.76 0 0 0-1.76 1.76v25.62a1.76 1.76 0 1 0 3.52 0V84.27a1.76 1.76 0 0 0-1.76-1.76z" fill="#fff"/><path d="M175.17 132.44a1.75 1.75 0 0 0-1.76 1.74v2.92a1.76 1.76 0 1 0 3.52 0v-2.9a1.76 1.76 0 0 0-1.76-1.76z" fill="#fff"/><circle cx="183.03" cy="184.73" r="23.1" fill="#89d4f0"/><path d="M183 159.86a24.86 24.86 0 1 0 24.86 24.87A24.86 24.86 0 0 0 183 159.86zm0 46.2a21.34 21.34 0 1 1 21.34-21.34A21.36 21.36 0 0 1 183 206.06z" fill="#fff"/><path d="M200.18 196.18c-2.93.49-10.62-3.64-18.41-11.44-7.58-7.57-11.51-14.78-11.48-18a1.77 1.77 0 0 0-1.74-1.78 1.77 1.77 0 0 0-1.76 1.75c0 4.8 4.86 12.85 12.51 20.49 6.4 6.41 15 12.51 20.43 12.51a6.69 6.69 0 0 0 1.07-.08 1.76 1.76 0 0 0-.59-3.47z" fill="#fff"/><path d="M187.37 162.14a1.76 1.76 0 0 0-1.72 1.8c.31 13.84-12.25 24.64-24.21 27.78a1.76 1.76 0 0 0 .45 3.46 2 2 0 0 0 .45-.05c13.27-3.48 27.19-15.62 26.85-31.26a1.78 1.78 0 0 0-1.82-1.73z" fill="#fff"/><path d="M204 174.32c-12.66 1.44-28.4 15.6-28.71 30.07a1.76 1.76 0 0 0 1.72 1.8 1.76 1.76 0 0 0 1.76-1.72c.25-11.56 13.41-25.26 25.59-26.65a1.76 1.76 0 1 0-.4-3.5z" fill="#fff"/><path d="M204 7.28l-47 47a1.76 1.76 0 1 0 2.49 2.49l47-47A1.76 1.76 0 1 0 204 7.28z" fill="#fff"/><path d="M162 7.28a1.76 1.76 0 0 0-2.5 2.49l47 47a1.78 1.78 0 1 0 2.5-2.54z" fill="#fff"/><path d="M195.2 6.29a4.63 4.63 0 1 0-6.55 6.55L201 25.16a4.63 4.63 0 0 0 6.55-6.55z" fill="#89d4f0"/><path d="M196.43 5a6.4 6.4 0 0 0-9 9l12.32 12.32a6.39 6.39 0 1 0 9-9zm9.83 18.87a2.93 2.93 0 0 1-4.06 0l-12.31-12.28a2.87 2.87 0 0 1 2-4.9 2.83 2.83 0 0 1 2 .84l12.32 12.32a2.87 2.87 0 0 1 0 4.06z" fill="#fff"/><path d="M204.76 3.09a4.52 4.52 0 0 0-6.38 6.39l5.93 5.93A4.52 4.52 0 0 0 210.7 9z" fill="#89d4f0"/><path d="M206 1.84a6.28 6.28 0 1 0-8.88 8.89l5.93 5.93a6.28 6.28 0 1 0 9.21-8.54l-.33-.33zm3.44 12.32a2.81 2.81 0 0 1-3.89 0l-5.94-5.93a2.76 2.76 0 1 1 3.74-4.06l.16.16 5.94 5.93a2.76 2.76 0 0 1 0 3.9z" fill="#fff"/><path d="M165.09 36.37a4.63 4.63 0 1 0-6.55 6.55l12.33 12.32a4.63 4.63 0 1 0 6.55-6.55z" fill="#89d4f0"/><path d="M166.34 35.13a6.4 6.4 0 0 0-9 9l12.32 12.32a6.4 6.4 0 0 0 9-9zM176.17 54a2.93 2.93 0 0 1-4.06 0l-12.32-12.32a2.87 2.87 0 1 1 4.06-4.06l12.33 12.32a2.88 2.88 0 0 1 0 4.06z" fill="#fff"/><path d="M161.75 46.12a4.52 4.52 0 0 0-6.39 6.39l5.94 5.93a4.53 4.53 0 1 0 6.37-6.44z" fill="#89d4f0"/><path d="M163 44.88a6.28 6.28 0 0 0-9 8.73l.15.15 5.85 5.93a6.28 6.28 0 0 0 8.88-8.88zm3.44 12.32a2.83 2.83 0 0 1-3.9 0l-5.93-5.93a2.76 2.76 0 0 1 3.89-3.9l5.93 5.93a2.76 2.76 0 0 1 0 3.9z" fill="#fff"/><path d="M161.29 3.09L155.36 9a4.52 4.52 0 0 0 6.39 6.38l5.93-5.93a4.52 4.52 0 0 0-6.39-6.39z" fill="#89d4f0"/><path d="M164.48 0A6.24 6.24 0 0 0 160 1.84l-5.93 5.94a6.3 6.3 0 1 0 8.93 8.88l5.93-5.93A6.28 6.28 0 0 0 164.48 0zm1.95 8.23l-5.93 5.93a2.82 2.82 0 0 1-3.9 0 2.76 2.76 0 0 1 0-3.9l5.93-5.93a2.76 2.76 0 0 1 3.9 3.9z" fill="#fff"/><path d="M201 36.37L188.64 48.7a4.63 4.63 0 1 0 6.55 6.55l12.31-12.32a4.63 4.63 0 0 0-6.5-6.56z" fill="#89d4f0"/><path d="M204.23 33.26a6.35 6.35 0 0 0-4.52 1.87l-12.32 12.32a6.4 6.4 0 0 0 9 9l12.32-12.32a6.39 6.39 0 0 0-4.52-10.92zm2 8.42L193.95 54a2.94 2.94 0 0 1-4.06 0 2.88 2.88 0 0 1 0-4.06l12.31-12.32a2.87 2.87 0 0 1 4.06 4.06z" fill="#fff"/><path d="M204.31 46.12L198.39 52a4.52 4.52 0 0 0 6.38 6.39l5.94-5.93a4.52 4.52 0 0 0-6.39-6.39z" fill="#89d4f0"/><path d="M207.5 43a6.25 6.25 0 0 0-4.44 1.84l-5.93 5.93a6.29 6.29 0 1 0 8.87 8.92l5.94-5.94A6.28 6.28 0 0 0 207.5 43zm1.95 8.23l-5.94 5.93a2.83 2.83 0 0 1-3.9 0 2.77 2.77 0 0 1 0-3.9l5.94-5.93a2.76 2.76 0 0 1 3.89 3.9z" fill="#fff"/><path d="M170.87 6.29l-12.33 12.32a4.63 4.63 0 0 0 6.55 6.55l12.33-12.32a4.63 4.63 0 1 0-6.55-6.55z" fill="#89d4f0"/><path d="M174.14 3.17A6.37 6.37 0 0 0 169.62 5l-12.31 12.36a6.39 6.39 0 0 0 9 9L178.62 14a6.39 6.39 0 0 0-4.52-10.88zm2 8.43l-12.28 12.31a2.93 2.93 0 0 1-4.06 0 2.86 2.86 0 0 1 0-4l12.32-12.37a2.87 2.87 0 1 1 4.06 4z" fill="#fff"/></g></g></svg>