<svg xmlns="http://www.w3.org/2000/svg" viewBox="-1.7699995040893555 -0.05329561233520508 27.579998016357422 193.8829803466797"><title>Depositphotos_75020155_02</title><g data-name="Layer 2"><g data-name="Layer 1"><g data-name="Layer 2"><g data-name="Layer 1-2"><path d="M10.7 170.51v-3.46c-.81.57-1.72 1-2.49 1.49s-1.73 1.11-2.61 1.65a33.72 33.72 0 0 0-1.81 5.08c-.12.45-.23.92-.34 1.41l.5-.43c2.19-1.95 4.45-3.86 6.75-5.74z" fill="#fdf196"/><path d="M10.37 160.16c-1 2.25-2.11 4.43-3.19 6.63a22.79 22.79 0 0 1 3.42-2.14c-.07-1.5-.15-3-.23-4.49z" fill="#fdf196"/><path d="M9.46 180a12.52 12.52 0 0 1 1.1-1.05c0-1.84 0-3.7.09-5.53-2.61 2.24-5.56 4.2-7.81 6.77a16.11 16.11 0 0 0 .32 6.44c1.29-1.63 2.67-3.21 4.08-4.63.7-.79 1.5-1.36 2.22-2z" fill="#fdf196"/><path d="M18.29 172c-.32.37-.78 1-1.32.94a.56.56 0 0 1-.55-.55 1.62 1.62 0 0 1 .36-.78q.17-.33.37-.65a4.32 4.32 0 0 1 .4-.51q-.85-1.75-1.73-3.48a4.5 4.5 0 0 1-.63 1 .7.7 0 0 1-1.16-.31 2.68 2.68 0 0 1 .35-1.55 2.31 2.31 0 0 1 .57-.84c-.66-1.31-1.32-2.62-1.94-3.94.06 2.36.1 4.87.14 7.82v1a9.85 9.85 0 0 1 .69.84 2 2 0 0 1 .56 1.28c0 .35-.38.75-.77.59a1.55 1.55 0 0 1-.49-.34c0 1.4-.07 2.83-.09 4.27a5.12 5.12 0 0 1 1 1.17 2.62 2.62 0 0 1 .52 1.34.9.9 0 0 1-.07.34v.13a1 1 0 0 1-.21.38.7.7 0 0 1-.86.06l-.09-.06a.9.9 0 0 1-.3-.19 37.07 37.07 0 0 0 .26 4.41c.15.48.29 1 .46 1.49a7.69 7.69 0 0 0 1.85 3.54 3.27 3.27 0 0 0 4.9-.44l-.51-.66a3.09 3.09 0 0 1-.71-1.52c-.11-.9 1.19-1.34 1.75-.73a4.82 4.82 0 0 1 .43.56 19.44 19.44 0 0 0-1.42-10.36 39.69 39.69 0 0 0-1.76-4.25zm-1.08 14.83c-.42.32-1.13.65-1.63.31a.72.72 0 0 1-.36-.62 2 2 0 0 1 .93-1.27c.47-.39 1-.8 1.61-.61a.75.75 0 0 1 .55.72c0 .64-.58 1-1.1 1.42zm1.33-6.83a.62.62 0 0 1-.86 0c-.4-.36-.36-1-.45-1.47a2 2 0 0 1 .08-1.37.58.58 0 0 1 1 0 3.73 3.73 0 0 1 .5 1.49c.07.44.19.93-.27 1.35z" fill="#84cfcc"/><path d="M8.53 183.23a54.64 54.64 0 0 0-5 4.67 3.31 3.31 0 0 0 3.85 2c2.48-1 3.33-2 3.3-4.37a11.25 11.25 0 0 1 .15-1.31c-.11-.85-.18-1.72-.23-2.61a20.58 20.58 0 0 1-2.07 1.62z" fill="#fdf196"/><path d="M9.88 24.76c1 1.42 1.81 3 2.71 4.45a15.18 15.18 0 0 1 3 .25c-.1-1.39-.26-2.79-.46-4.19a1.33 1.33 0 0 1-.19-.26A105.06 105.06 0 0 0 8.35 15L8 17.25c-.19 1.19-.45 2.35-.75 3.5a16.27 16.27 0 0 1 1.13 1.54 22.78 22.78 0 0 0 1.5 2.47z" fill="#fff"/><path d="M11.69 6.74A17.86 17.86 0 0 0 11 3.09c-.38 1.25-.71 2.5-1 3.75.71.74 1.43 1.47 2.13 2.22-.13-.77-.32-1.54-.44-2.32z" fill="#fff"/><path d="M7.4 24.53c-.23-.39-.55-.84-.87-1.33-.61 2.08-1.25 4.14-1.7 6.26a24.42 24.42 0 0 1 5.38-.36C9.24 27.59 8.3 26 7.4 24.53z" fill="#fff"/><path d="M13.12 13.72a.6.6 0 0 0-.07-.34l-.05-.06A21.37 21.37 0 0 0 10.62 10c-.36-.41-.73-.8-1.08-1.21Q9 11 8.64 13.19a55.43 55.43 0 0 1 5.46 6.07c-.32-1.86-.67-3.71-.98-5.54z" fill="#fff"/><path d="M12.84 156c-.06-1.25-.12-2.51-.21-3.85-.59-9.5-.88-19-1-28.52a3.66 3.66 0 0 1 .59.31c.85.56 1.91-.79 1.1-1.42a4.59 4.59 0 0 0-1.72-.81c0-1.08 0-2.15-.05-3.23-.1-8-.08-16 0-24 .38.05.75.1 1.13.12a1 1 0 0 0 .5-1.85 3.34 3.34 0 0 0-1.61-.46q0-4.24.11-8.48c.12-8 .22-16 .24-24a2.18 2.18 0 0 0 1.9-.47.42.42 0 0 0 0-.58 2.16 2.16 0 0 0-1.89-.46v-10c0-4.42-.1-8.83-.37-13.24a25.61 25.61 0 0 0-.23-3.25h.29c1.74 0 4 .9 5.45-.11a1 1 0 0 0 .87-1C17.56 24.8 16 19 15.07 13.18c-.42-2.65-1.26-5.19-1.7-7.83-.3-1.82-.65-3.75-2-5.12a1 1 0 0 0-1.58.42 74.92 74.92 0 0 0-4 16c-.8 4.61-3.25 9.3-2.91 14a1 1 0 0 0 1.12.83h.07a17.83 17.83 0 0 0 4.69.34c0 .31.16.78.17 1.22 0 1.5.09 3 .11 4.5.06 4.63.05 9.27 0 13.91 0 2.32 0 4.64-.07 7H7.75a.61.61 0 0 0 0 1.22h1.2Q8.88 73 8.68 86.15c0 2 0 4.05-.07 6.08a9.86 9.86 0 0 0-1.11.07.88.88 0 0 0-.23 1.7 5.23 5.23 0 0 0 1.32.27q-.13 13.65.05 27.29l-1.14.12a.74.74 0 0 0 0 1.49c.39 0 .78.06 1.18.07.18 10.15.64 20 1.27 30.15 0 .79.1 1.61.16 2.42-5 9.63-11.88 20.32-9.69 31.61a7 7 0 0 0 8 5.81c2.22-.3 3.47-2.24 4-4.47a6 6 0 0 0 3.75 3.55c3.82 1 6.42-1.23 7.79-4.67 1.85-4.66-.52-10.62-2.26-14.88-2.25-5.58-4.7-12.17-8.86-16.76zM11 3.09a17.86 17.86 0 0 1 .68 3.65c.11.78.27 1.55.44 2.32-.7-.75-1.42-1.48-2.13-2.22.32-1.25.65-2.5 1.01-3.75zm-1.45 5.7c.35.41.71.81 1.08 1.21A21.37 21.37 0 0 1 13 13.32l.05.06a.6.6 0 0 0 .07.34c.31 1.83.66 3.68 1 5.54a55.43 55.43 0 0 0-5.46-6.07q.4-2.19.89-4.4zM8 17.25a92 92 0 0 1 .39-2.3A105.06 105.06 0 0 1 15 25a1.33 1.33 0 0 0 .19.26c.2 1.4.36 2.8.46 4.19a15.18 15.18 0 0 0-3-.25c-.91-1.48-1.7-3-2.71-4.45a22.78 22.78 0 0 1-1.53-2.47 16.27 16.27 0 0 0-1.13-1.54c.23-1.14.49-2.3.72-3.49zM4.83 29.46c.45-2.12 1.09-4.19 1.7-6.26.32.48.64.94.87 1.33.9 1.51 1.84 3.06 2.81 4.57a24.42 24.42 0 0 0-5.38.36zm5.54 130.69c.09 1.5.17 3 .23 4.48a22.79 22.79 0 0 0-3.42 2.14c1.08-2.18 2.21-4.37 3.19-6.61zm-6.61 15.14a33.72 33.72 0 0 1 1.81-5.08c.88-.53 1.73-1.14 2.61-1.65s1.68-.92 2.49-1.49v3.46c-2.3 1.89-4.55 3.79-6.79 5.76l-.5.43c.15-.51.26-.99.38-1.43zm-.93 4.84c2.26-2.56 5.2-4.53 7.81-6.77 0 1.83-.1 3.69-.09 5.53A12.52 12.52 0 0 0 9.46 180c-.72.69-1.52 1.27-2.21 2-1.41 1.48-2.79 3-4.09 4.62a16.11 16.11 0 0 1-.33-6.49zm7.9 5.45c0 2.36-.82 3.39-3.3 4.37a3.31 3.31 0 0 1-3.85-2 54.64 54.64 0 0 1 5-4.67c.57-.44 1.4-1 2.11-1.58a20.58 20.58 0 0 0 .23 2.61 11.25 11.25 0 0 0-.2 1.27zm10.79.92a4.82 4.82 0 0 0-.43-.56 1 1 0 0 0-1.75.73 3.09 3.09 0 0 0 .71 1.52c.15.21.31.41.47.61a3.27 3.27 0 0 1-4.9.44 7.69 7.69 0 0 1-1.85-3.54c-.17-.52-.31-1-.46-1.49-.16-1.42-.23-2.9-.26-4.41a.9.9 0 0 0 .3.19l.09.06a.7.7 0 0 0 .86-.06 1 1 0 0 0 .21-.38v-.13a.9.9 0 0 0 .07-.34 2.62 2.62 0 0 0-.52-1.34 5.12 5.12 0 0 0-1-1.17c0-1.43.06-2.87.09-4.27a1.55 1.55 0 0 0 .49.34c.39.16.75-.24.77-.59a2 2 0 0 0-.56-1.28 9.85 9.85 0 0 0-.69-.84v-1c0-2.95-.08-5.46-.14-7.82.62 1.32 1.28 2.63 1.94 3.94a2.31 2.31 0 0 0-.57.84 2.68 2.68 0 0 0-.39 1.55.7.7 0 0 0 1.16.31 4.5 4.5 0 0 0 .63-1q.88 1.74 1.73 3.48a4.32 4.32 0 0 0-.4.51q-.2.32-.37.65a1.62 1.62 0 0 0-.36.78.56.56 0 0 0 .55.55c.54 0 1-.57 1.32-.94.65 1.39 1.26 2.8 1.81 4.23a19.44 19.44 0 0 1 1.4 10.43z" fill="#6d6e71"/><path d="M17.77 184.54a1.73 1.73 0 0 0-1.61.61 2 2 0 0 0-.93 1.27.72.72 0 0 0 .36.62c.5.35 1.21 0 1.63-.31a2.4 2.4 0 0 0 1.11-1.47.75.75 0 0 0-.56-.72z" fill="#6d6e71"/><path d="M18.29 177.11a.58.58 0 0 0-1 0 2 2 0 0 0-.08 1.37c.09.5 0 1.1.45 1.47a.62.62 0 0 0 .86 0c.41-.36.34-.85.24-1.34a3.73 3.73 0 0 0-.47-1.5z" fill="#6d6e71"/></g></g></g></g></svg>