<svg xmlns="http://www.w3.org/2000/svg" viewBox="-0.3332395553588867 -0.027970314025878906 28.259471893310547 45.51797103881836"><title>Asset 1</title><g data-name="Layer 2"><g data-name="Layer 1" fill="#faab64"><path d="M21.58 45.49H2.85l.57-.77a10.63 10.63 0 0 1 6.77-3.79v-5.72c-1.58-.3-6.86-1.77-6.86-7.95a16 16 0 0 1 2-6.32v-8.73h13.78v8.74a16.13 16.13 0 0 1 2 6.3c0 6.19-5.29 7.67-6.86 8v5.72A10.62 10.62 0 0 1 21 44.71zm-9.21-1h7.15a10 10 0 0 0-5.8-2.67h-.43v-7.46h.44c.26 0 6.43-.72 6.43-7a15.62 15.62 0 0 0-1.95-6l-.06-.11v-8H6.29v8l-.06.11a15.4 15.4 0 0 0-1.95 6c0 6.31 6.16 7 6.42 7h.44v7.44h-.44a10 10 0 0 0-5.8 2.67z"/><path d="M10.73 33.69c-.59-.06-5.83-.79-5.86-6.38a15.68 15.68 0 0 1 1.93-5.86l.2-.34h10.45l.19.35a15.7 15.7 0 0 1 1.93 5.85c0 5.6-5.27 6.32-5.87 6.38z"/><path d="M17.35 12h-.16a.49.49 0 0 1-.3-.62c3-8.72 3.31-8.94 3.47-9.05.37-.25 4.5-1.55 6.93-2.31a.49.49 0 0 1 .29.93c-2.29.71-6 1.89-6.62 2.16-.37.67-1.87 4.85-3.14 8.58a.49.49 0 0 1-.47.31z"/><path d="M6.13 7.53a6.13 6.13 0 0 0-1.29 12.13v-7.94h7.11a6.14 6.14 0 0 0-5.82-4.19z"/></g></g></svg>