<svg xmlns="http://www.w3.org/2000/svg" xmlns:xlink="http://www.w3.org/1999/xlink" viewBox="0 0 201.2100067138672 172.11000061035156"><defs><linearGradient id="a" x1="150.9" y1="86.06" x2="201.21" y2="86.06" gradientUnits="userSpaceOnUse"><stop offset="0" stop-color="#fff"/><stop offset="1" stop-color="#d1d3d4"/></linearGradient><linearGradient id="b" x1="100.6" y1="86.06" x2="150.9" y2="86.06" xlink:href="#a"/><linearGradient id="c" y1="86.06" x2="50.3" y2="86.06" xlink:href="#a"/><linearGradient id="d" x1="50.3" y1="86.06" x2="100.6" y2="86.06" xlink:href="#a"/></defs><title>Asset 1</title><g data-name="Layer 2"><g data-name="Layer 1" style="isolation:isolate"><path fill="#bcbec0" d="M150.91 1.49L100.6 20.34 50.3 1.49 0 20.34v150.33l50.3-14.3 50.3 14.3 50.31-14.3 50.3 14.3V20.34l-50.3-18.85z" style="mix-blend-mode:multiply"/><path fill="#8dac40" d="M50.3 157.57L0 172.11V19.17L50.3 0v157.57z"/><path fill="#8dac40" d="M150.91 157.57l-50.31 14.54V19.17L150.91 0v157.57z"/><path fill="#8dac40" d="M50.3 157.57l50.3 14.54V19.17L50.3 0v157.57z"/><path fill="#8dac40" d="M150.91 157.57l50.3 14.54V19.17L150.91 0v157.57z"/><path d="M9.47 69c-.46-.18-.23.7-.68.8s-1 .38-.63.49a1.82 1.82 0 0 0 1.27-.21c.09-.14.18-1 .04-1.08z" fill="#f2f2f2"/><path d="M6 70.2c-.55-.05-1.09 0-1.18.22s.5.38.86.38 1.09-.27 1-.32z" fill="#f2f2f2"/><path d="M9 65.53c-.18.07.32.43.5.43s.5-.59.14-.59-.21 0-.64.16z" fill="#f2f2f2"/><path d="M10.56 61.13l.27.27a2 2 0 0 0 1.14.43c.41.06.41-.27.09-.59a.87.87 0 0 0-.68-.32c-.27-.06-.32-.38-1-.38s-.64-.43-.73-.64.69-.63.88-.58a3 3 0 0 0 .85-.12s1.18-.54 1.32-.43.82-.11 1.14-.22.5-.7.5-.7a1.88 1.88 0 0 1 .64.43c.23.27.73 0 .86 0s.89.17.89.17l1.1-.16a7.33 7.33 0 0 1 1.78.53 15.59 15.59 0 0 0 2.39-.36c.18 0 .82 1 1.41.79a1.15 1.15 0 0 1 1 .16.79.79 0 0 1 .5.38c.23.32.45.05.77-.16s.27-.43.27-.43l.27-.05c.27-.05.45.11 1.23.16s.59-.16 1.14-.38 1.09.27 1.27.22.41-.48.54-.27.36.65.36.65.59-.54.77-.54a13.93 13.93 0 0 0 1.54 0 2 2 0 0 1 1.32.33c.27.27 1 .22 1.32.48s.73-.21.55-.32a6.31 6.31 0 0 1-.64-.54s-.68-1-.77-1.13-.23-.16-.41.27-.86.43-1.64.48-.27-.43-1.14-.48-.54-.43-.27-.43.45-.64.54-1 .41-.32 1-.27a12.89 12.89 0 0 1 1.45 0c.64.11.59-.32 1.23-.27s.32.16.68.43.59.21 1.09.48.32.27.55.32a8.67 8.67 0 0 0 1.45-.16c.45-.05.82-.11 1 .21s.18.7.5 1-.18-1-.18-1.39.64-.05 1-.05.86-.16 1 .05-.59.54-.18 1 .68.64 1 .64 1.18.11.82.7-1.32.54-1.63.54-.86.22-.73.54.86.16 1.36.16a12.54 12.54 0 0 0 2.45 0c.41-.16.32-.81-.14-1s-.09-.48.36-.38.91-.16.82 0 0 .54 0 1 .14.7.45.59.26-.46.58-.52.24-.67.06-1.15a2.24 2.24 0 0 1-.27-1c0-.27.55-.32.82-.05a6.84 6.84 0 0 1 .64.8 2.34 2.34 0 0 1 .73.81c.18.43.23.32.59.05s.45-.21.77.05.09.81.09 1 .46 0 .55-.32.45-.32.68-.43.23-.75.23-.75a3.8 3.8 0 0 0-1.18-.11 1.34 1.34 0 0 1-1.23-.43c-.45-.37-.18-.64-.41-1s.73-.59 1.32-.91 1.18-.11 1 .7-.23.7.46.54 0-.86.27-.91a6.65 6.65 0 0 1 1.41-.16c.27.05 1.77-.16 2.14-.16a3.43 3.43 0 0 1 1.36.64c.41.27 1.5.64 1.77.81a23.84 23.84 0 0 0 2.36.54c.18.05.18.7.36 1.24s.68.16.86.16a2.12 2.12 0 0 1 1 .64c.18.27 1.55.48 1.55.48s-.32.48-.45.65a8.07 8.07 0 0 1-.73.48c-.27.22-.59-.05-1-.32s-1-.43-1.14-.32 0 .32 0 .48.68.38 1 .7.27.64.32 1.07-.36-.16-.82-.27-.5.43-.5.43-.59-.05-.86-.05 0 0-.5-.43-.41.27-.68.05-.54-.54-.68-.43-.59-.48-.86-.43a16.36 16.36 0 0 0-1.64-.05c-.27.11-.5.11-.73.21s-.32-.75-.18-1 .45-.32 1-.16.64 0 .77-.27a1.3 1.3 0 0 1 .91-.75c.64-.22 0-.38-.23-.48s-.41-.32-.54 0a3.39 3.39 0 0 1-.45.7s-.36 0-.86-.05-.14-.27.09-.38.5-.75.27-.91a.66.66 0 0 0-.73-.16c-.41.11-.14-.38-.41-.54s-.18.11-.18.32-.41.16-.41.16a2.24 2.24 0 0 0-.86 0c-.23.11-.64.32-.5.48s.59.16.73.64-.59.59-.73.64l-.68.27a4.19 4.19 0 0 0-1-.16c-.46 0-.59.05-.5.27s.32.11.45.11.14.27.55.16.32-.27.68.16.73.38 1.32.75-.09.81-.41.81-.32-.32-.5-.65-.91.05-.91.05a2.55 2.55 0 0 1-.91.38c-.32 0-.55-.06-.14-.43s-.5-.43-.5-1-.26.91-.26 1.18-.28-.32-1.06-.22-.64.43-1.64 1.18-.74.58-.65 1.28-.17.82.24.93.27.91.59.86.55-.32 1.18.05a4.59 4.59 0 0 0 1.73.64 2.88 2.88 0 0 0 1.56 0c.41-.11.81.41.81.79s.27.43.23.91.5-.43.5-.43.23.81 0 .91 0 .59.27.54.55.16.82-.11-.14-1.07-.14-1.39-.27-.48-.41-.81.36-.37.55-.05.5.05.82-.22a1.08 1.08 0 0 0 .32-.75 4 4 0 0 0-1-1.07c-.41-.22-.23-.27.18-.38s0-.27.09-.86.09-1 .32-1a11.74 11.74 0 0 1 2.29-.14c.68.05 1 .64 1.45.7s1.18.16 1.32.43-.8.44-.49.86.67.26 1 .42.68.05 1.09-.59.59-.7.73-.59 1 1.29 1.23 1.56a3.9 3.9 0 0 1 .43 1.29c0 .27.92.08 1.1.08a2 2 0 0 1 1 .91c.09.32.27.43.86.59s0 .75-.13 1.07-.23.43-.41.81 0 0 .23.16.32.38.68.27a.48.48 0 0 1 .68.32c.14.32.32.59.45.86s0 .7-.18.43-.77-.11-.77-.11-.27.32-.36.16a.48.48 0 0 0-.59-.27 6.07 6.07 0 0 1-1 .05c-.36.05-.5-.22-.27-.43s.27-1 .73-1.34.32-.8 0-.8-.45.48-.64.59-.8-.2-1.12.07-.83.47-.52.58-.46.54-.73.54-.18-.7-.18-1-.36.16-.36.16-.73-.48-1-.16-1.25.19-1.57.5a2.85 2.85 0 0 0-.47 1.16 4.07 4.07 0 0 1 .82-.32 2.67 2.67 0 0 0 1-.37c.45-.27.91-.38 1.23.11a.51.51 0 0 1-.14.75 1.43 1.43 0 0 0 .36.48c.18.11.23-.11.54-.32s.18.43.28.64.41.22.59-.05.32-.48.45-.32a3.71 3.71 0 0 1 .41.91c.14.38-1 .49-1.14.54s-1 .27-1.18.32-.59.54-1 .54-.32-.64-.36-1-.5.05-.55.21-.45.11-.77.16-.87.43-.87.86.64.89.51 1.11-1.19.13-1.51 0-.77.16-.64.38 0 .54-.27.48-.37.32-.23.59-.41.8-.55.59-.41-.32-.41 0a2.81 2.81 0 0 0 .54 1.2c.27.43-.77.52-1.09.84s-1 1.43-1.48 1.64-.84.88-.61 1.15a9.8 9.8 0 0 1 .64 1.77c.14.38 0 1.45-.46 1.4s-.18-.7-.59-.86-.71-1.07-.71-1.71-.18-.27-.45-.05-.54-.43-.68-.59-.81.31-1.36.26-.83.06-.83.22-.09.64-.59.32a1.44 1.44 0 0 0-1.09-.33c-.5 0-1-.05-1 .16a2.17 2.17 0 0 1-.91.81c-.32.11-.91.64-.64.75s.27.86.09 1.29a4.45 4.45 0 0 0 0 1.93 3 3 0 0 0 1.14 1.72c.5.48.68.64 1.18.21s.68-.16.82-.11.5-.27.36-.75a.62.62 0 0 1 .59-.86c.41.05 1-.16 1.32-.11s.5 1.07 0 1.5-.23 1.08-.32 1.56-.5.59 0 .59.36.11.68.16.64-.32 1-.38 1.13.81 1 1.24a5.6 5.6 0 0 0-.23 1.88 1.62 1.62 0 0 0 .32 1c.09.22.45.7.86.48a2.89 2.89 0 0 0 1-.59c.14-.22 1 .38.91.54s.32.32.59.16.41-.43.68-.86a2.19 2.19 0 0 1 1-.86c.23-.05.77-.7 1.13-.59s-.14.64-.18 1 0 1.23.18 1.29.09-.64.32-1.13a1.27 1.27 0 0 1 .91-.75c.23 0 .41 1.13.73.81s1-.27 1.09.05a2.07 2.07 0 0 0 .27.48.76.76 0 0 0 .23-.48c0-.27.73-.54 1.18-.22s.27.43.5.48.45-.7.59-.75 0 .86-.32 1.34.27.32.27.32l.14.16c.14.16.59-.16.77.16s.5.43.77 1 .59.07 1.13 0 1.32.68 1.87 1.38.46 1.24.82 1.24.45.59.45.8-.82.7-1.27.81-.45.65.27.48.41-.48.86-.65.91.21.5.86-1.23.7-.5.8.32-.11.73-.75.36-.43.64-.43a2.08 2.08 0 0 1 1.09.38c.23.21.82.54 1.18.8a1.13 1.13 0 0 0 1.09.05c.27-.11 1 .32 1.32.75s1 .48 1.27.64a2 2 0 0 1 .86 1.34 8.33 8.33 0 0 1-.55 1.93 6.6 6.6 0 0 1-1.45 1.88 1.56 1.56 0 0 0-.23 1.72c0 .32-.46 1.5-.32 1.77s-.18.86-.45 1.23a12.6 12.6 0 0 0-.64 1.39c-.18.32-.77.22-1.32.38a4 4 0 0 0-.82.32 14.74 14.74 0 0 0-1.5 1c-.55.43.18 1.18-.09 1.77s-.49.06-.77.76-.46.59-.69.74a1.53 1.53 0 0 0-.41 1c0 .43-.5.86-1.09 1.5s-1 .54-1.59.32-.54-2-.64-1.77a4.27 4.27 0 0 0-.31 1.36 6.32 6.32 0 0 0 .95 1c.23.16.18.43 0 .7s-.68 1.24-.86 1.29a5.34 5.34 0 0 1-1.86.11c-.27-.16-.41.38-.36.7s.27.7-.23.59-1.18-.48-1.18-.22.14.86.41.86.55-.21.41.16a2.38 2.38 0 0 1-.68.86 7.67 7.67 0 0 1-.86 1.07c-.45.38-.45.59-.36.75s.77.05.91.16-.14.86-.32 1-1 .91-1.27 1.13-.32.86-.23 1.18a3.14 3.14 0 0 0 1.23 1.29c.41.16 1.27.11 1.18.27s-1.09.32-1.23.38a5.14 5.14 0 0 1-1.23.27c-.36 0-1-.43-1.18-.43s.09-.21.54-.64-.18-.91-.27-.32-.27.75-.5.75-.5-.38-.64-.54-.73-.32-.64-1-.27-.59-.55-.86.36-.48.27-.75-.5-.11-.55-.48.36-.91.41-1.07-.27-.48-.32-.75.18-.54.5-1a3 3 0 0 0 .55-1.13 9.24 9.24 0 0 1-.23-1.18c0-.43.23-.59.32-1.18s-.32-.38-.32-.86.45-.32.36-.8.23-.81.36-1.13.27-.86.45-1.24-.18-1.23-.18-1.4.59-.37.32-.7.24-.43.51-.7-.19-1.18-.06-2.15.27-2.63.27-2.79a2.74 2.74 0 0 0-.18-1.23 2.06 2.06 0 0 0-.82-.91c-.32-.16-.73-.65-1-.7s-1.6-.51-1.6-1.26-.7-1.38-.7-1.91-.77-1.72-.82-2.25-1-.7-1.14-1.29.2-1 .29-1.35a5.23 5.23 0 0 0-.11-1.5 2.27 2.27 0 0 1 .68-1.32c.27-.16.77-.72 1-.72s.14-.59.32-1.18a2 2 0 0 0-.23-1.5c-.14-.11-.27-.8-.5-1s-.68-.11-.68-.11a.77.77 0 0 1-.32.75c-.41.27-.5-.06-.64-.21s-.64-.21-.86-.48a4.27 4.27 0 0 0-.86-.81c-.27-.16-.94-.3-.89-.94a1.25 1.25 0 0 0-.52-1.15c-.18-.11-.54-.38-.77-.22s-.64-.32-1-.27-1-.64-1.18-.91-.41-.64-.82-.64-.45.16-.73.54-.68-.27-.82-.43-.8.11-1.3.11-.73-1-.75-1.24c-.07-.8-1.45-.81-1.77-1s-.64-1-.5-1.23-.23-.91-.23-.91-.64-.86-.86-.86-1-1.5-1.36-1.93a9.46 9.46 0 0 1-1.55-1.88c-.18-.48-.23-1.23-.68-.86s-.09.75.36 1.18.36.86 1 1.45.36 1.18.64 1.45 1.23.91.82 1.34-.82-.54-1-.59-.59-.16-.54-.48-.36-.59-.68-1.07-.45-.21-.86-.21 0-.59.18-.86-.23-.64-.5-.75-.64-1.34-1-2.1-.64-1.13-1-1.07a2.47 2.47 0 0 1-1.36-.57c-.27-.22-.19-1.42-.64-2a3.71 3.71 0 0 1-.82-2.15c0-.59.18-2.09.18-2.47a9.36 9.36 0 0 0-.35-1.25c0-.16-.1-.63-.28-.68s-.77-.58-1.18-.58-.59-.76-.45-1.14a1 1 0 0 0-.59-1c-.23 0-.59-.7-.73-1.07s-.5-.38-.41-.16 0 .59.18.7.41 1 .23 1.07-.59-.32-1-.59-.27-1.34-.27-1.61-.64-.54-.91-.54-.55.05-.59-.64a1.33 1.33 0 0 0-1.14-1.07c-.27 0-1.8-.52-2.26-.52s-1.15-.66-1.42-.44-.77-.38-1-.38-.13.73-.63 1.1-.83-.35-1.1-.08-1 .54-.73-.11.23-.75-.14-.59a.91.91 0 0 0-.46.86c0 .27-.64.7-.64.7a3.9 3.9 0 0 0 .82 0c.23-.05 0 .59-.18.75s-.55.59-.91.48-.41-.48-.63-.54-.48.69-1.29 1.18-.93-.21-1.25 0a9.94 9.94 0 0 1-1.86.7c-.41.05-.32-.59-.09-.59a5 5 0 0 0 1.32-.64c.23-.16 1.23-.59 1.5-.75s.73-.43.54-.75-.77.16-.77.16-.46-.48-.59-.59-.41.43-.41.43a.56.56 0 0 1-.45-.7c.14-.59-.32-.59-.41-.32s-.86.7-.91.43-.73-.81-.91-1.24.18-.48.59-.86a1.93 1.93 0 0 1 1.5-.43c.5.05.82-.64.64-.7a.74.74 0 0 0-.77.16c-.27.27-1 .22-1 .22a3 3 0 0 1-1.41-.32 2.55 2.55 0 0 1-.64-.81 5.44 5.44 0 0 1 1.45-.43zm41.62 16c.45.06.45-.7.41-.91s0-1.13.14-1.29.41-.65.91-.7a.73.73 0 0 1 .77.86c0 .48.09 1 .27 1s.73-.38.54-.7.14-1.4.14-1 .37.64.59.59-.23-1-.54-1.07a3.68 3.68 0 0 0-1.09 0c-.14.05-.91-.27-1.27-.22a1.37 1.37 0 0 0-1.09.64 6.13 6.13 0 0 0 0 1.56c-.09.27-.18 1.19.23 1.24zm2.55 0c.1.24.59.05.86-.27s.86-.43 1-.7.32-.21.77-.43.82-.27.64-.54-1.13 0-1.27-.11-1.09 1.18-1.09 1.18-.82.38-.86.54-.19.01-.05.33zM50 73c0 .29.45.32.73.16a4.15 4.15 0 0 1 .87-.32c.18-.05.09.27.5.27s.91.16 1 .11.54-.7.23-.75a2.41 2.41 0 0 1-1.09-.75c-.27-.32-.91.43-1.5.7s-.74.15-.74.58zm-18.63-1.77c-.37-.14.14.64.36.81s.68.16.73.43.18.91.41.86.23-.64 0-.86a4.34 4.34 0 0 0-1-.86c-.09-.01-.36-.33-.5-.38z" fill="#f2f2f2"/><path d="M53.82 63.85c-.12.16.55.39.67.18s-.37-.57-.67-.18z" fill="#f2f2f2"/><path d="M55.58 64.17c-.48.16 0 .57.27.43s.15-.6-.27-.43z" fill="#f2f2f2"/><path d="M33 55.44c-.06.22.27.21.67.21a3.89 3.89 0 0 0 1.21-.11c.18-.11 1.09-.36 1.06 0s.36.82.57.75.64-.54.85-.36.24.61.45.71a1.76 1.76 0 0 0 1.06 0 3.47 3.47 0 0 1 1.36 0c.33.07 1.3.29 1.39.07s.36-.25.39-.47.18-.89.18-.89-.18-.39-.48-.21-.39.29-.67.21-.27-.65-.76-.54-.58.43-.73.57a.71.71 0 0 1-.6.18l-.82-.56s-1.45-.07-1.51-.29-.3-.57-1-.5-1.82.54-2 .54.21.43 0 .43-.55-.06-.62.26z" fill="#f2f2f2"/><path d="M38.13 54c-.35.14-.27.54 0 .54s.85-.25 1-.07.64 0 .6-.14.18-.9-.18-.93-.88.36-1.42.6z" fill="#f2f2f2"/><path d="M42.22 53.51c0 .26.24.47.6.47s1.15-.22 1.21 0 0 .32.39.39a6 6 0 0 0 .85.14c.24 0 .15-.47-.06-.79s-.15-.29-.69-.46a3.69 3.69 0 0 0-1.46-.14c-.36-.01-.75-.12-.84.39z" fill="#f2f2f2"/><path d="M42.83 55.15c-.23.24 0 1-.09 1s0 .39.27.32.36-.75.54-.75 1.12-.25 1.27.14.15.21.58.25.76-.5.79-.68-.19-.49-.79-.43-2.33-.1-2.57.15z" fill="#f2f2f2"/><path d="M43.95 57.05a.45.45 0 0 0 .24.72c.34 0 .91-.25 1 0s.27 1.18.82.86.52-.61.67-.64 0-.82-.27-1a1.84 1.84 0 0 0-1.24 0c-.26.1-.89-.19-1.22.06z" fill="#f2f2f2"/><path d="M47.37 57.37a.61.61 0 0 0 .67.21c.39-.07 1-.14 1.24-.18s.33-.57 0-.61-.54-.36-.82-.25-1.18.58-1.09.83z" fill="#f2f2f2"/><path d="M47.28 55.87c-.13.38 1.21.57 1.06.14s-.91-.57-1.06-.14z" fill="#f2f2f2"/><path d="M47.52 54c-.38-.11-1-.25-1-.36s-.18.5.15.68.88.5 1.27.68 1.15.21 1.39.57a2.74 2.74 0 0 0 1.06.64l1 .11a4.23 4.23 0 0 1 1.36-.11 17.64 17.64 0 0 0 2.3.14c.58 0 .67-.25.73-.39s-1.06-.43-1.33-.39-1.82 0-2.27 0a8.85 8.85 0 0 0-1.39 0c-.36 0-.63-.29-.91-.46a5.33 5.33 0 0 0-1.24-.82 9.8 9.8 0 0 1-1.12-.29z" fill="#f2f2f2"/><path d="M85.53 61.49c-.12.24-.36.25-.12.75s.42.79.64.75.94-.07 1 .21.33.54.85.36.94-.29 1.06-.5.94-.25.94-.25.67-.61.42-.86a2.28 2.28 0 0 0-1.09-.47c-.27 0-.54.25-1.15.25s-1 .29-1.24 0-1.22-.42-1.31-.24z" fill="#f2f2f2"/><path d="M59.72 54.4c.33.29.53.11.94.22s.75.9 1 1a.55.55 0 0 0 .66-.22 5.41 5.41 0 0 0 .33-1s0 .72.33.86 1.16-.11 1.39-.07a8.93 8.93 0 0 1 1.88.46c.36.22 1.24.36 1.49.82s.28 2.08.42 2.26.61-.57.72-.75.69-.07.89.18.64.86.61 1.11-.11.64-.28.5-.44-.11-.33-.39.16-.89-.05-.89h-.42s-.42-.14-.69.39-.08 1.12.11 1.12.64 0 .64.14-.47.57-.44.82a6.18 6.18 0 0 0 .5 1.29c.11.18.69.36.86.39s-.39.07-.25.32.36.86.67 1A4 4 0 0 1 72 65c.11.29.78-.21.92-.25s.11.75.5.79.53-.07.86-.39.25-.75.28-1.08 0-.57.36-.47.55-.07.53-.43-.33-.79.25-.9.89-.57 1.25-.57 1.36.18 1.47 0 .58-1.25.89-1.28a10.08 10.08 0 0 0 1.83 0c.72-.14 1.5-.68 1.75-.64s.86 0 .67-.18-.47-.72-.89-.72-.48-1.1-.38-1.1 1.12.42 1.1.78.17.82.72.68a.54.54 0 0 0 .36-.82 5.54 5.54 0 0 1-.3-.75c-.11-.25-.37-1 .21-1.11s1.68.75 1.65.18a3.46 3.46 0 0 1 .17-1.5c.17-.32.53-.54.33-.64s-.44.14-.64-.39a1.07 1.07 0 0 1 .39-1.15c.22-.21 1.38-1.61 2-1.82s1.08-1 .64-1.22-1.33-.5-1.91.07-1.01 1.13-1.64.91-.77-1.13-1.14-1.62c-.55-.71-.21-2.11-.8-2l-.58.11a3.12 3.12 0 0 0-1.1 0c-.55.14-.91.53-1.23.45a2 2 0 0 0-1.33.26 4.75 4.75 0 0 1-2.66-.2 7.36 7.36 0 0 0 1.81 0c.66-.12 1.77-.38 2.31-.49s.11-.36-.09-.39c-.7-.09-1.76-.43-2.6-.48-.66 0-1.08.2-1.75.22a4.58 4.58 0 0 0-2.51.45 5.18 5.18 0 0 1-1.39.54c-.33.43-.64 1.5-.94 1.22s-.36-1-.75-.72 0 1-.36 1.5a1.36 1.36 0 0 1-1.55.25c-.28-.18-.55-.32-1.66-.25s-2.33.5-2.08.93-.5.68-.69.47-1.08.25-1 .68-.14.93-.61.82a.67.67 0 0 0-.83.61c0 .36-1.08.61-1.16.61s-1.46.03-.96.43z" fill="#f2f2f2"/><path d="M53.5 89.16c0 .54.41.38 1 .38s1.5-.11 1.68.16a11.12 11.12 0 0 0 1.23.91c.23.21 1 .27 1 .05s-.5-.81-.82-.75a2.31 2.31 0 0 1-1.36-.75 1.91 1.91 0 0 0-1.32-.38 9 9 0 0 0-1.41.38z" fill="#f2f2f2"/><path d="M56.82 87.65c-.41.05-.32.64.18.54s.23-.59-.18-.54z" fill="#f2f2f2"/><path d="M57 92.1c-.42.09-.32 1 .18.87s.28-.97-.18-.87z" fill="#f2f2f2"/><path d="M63 91.51c-.41.09-.32 1 .18.87s.28-.96-.18-.87z" fill="#f2f2f2"/><path d="M58.91 91.73a5 5 0 0 0 .82.11c.32 0 .5.21.77.38s.77-.22 1-.22.41.64.45-.05a1.14 1.14 0 0 0-.95-1.13 2.22 2.22 0 0 0-1 .05c-.32.06-1.09.86-1.09.86z" fill="#f2f2f2"/><path d="M97 81.21c.18-.11.91-.38 1.32-.59a11.84 11.84 0 0 1 1.91-.75 16.37 16.37 0 0 0 2.77-.11 1.36 1.36 0 0 1 1.91.79c.37 1.18-.41.71-.77.93s.14.7.32.7.82.7 1.14.7a4.14 4.14 0 0 1 1.09.38s.77.7 1.18.7 1.1.83 1.56.3.67-1.64 1.13-1.53 1 .54 1.54.54 1.68-.11 1.86.16-1.23 1.18-1.14 1.4.28.16.73-.48 1.14-.64 1.68-.81.82.86.91 1.18.5.91.82 1.61.63 1.66 1 2.42 0 2.26.32 2.74 1.31.91 1.54 1.55a2.89 2.89 0 0 0 1 1.34 4.65 4.65 0 0 1 1 1.61c0 .32-.27 1 .45 1.07a3 3 0 0 0 1.59-.48c.23-.11 2-.91 2.23-.59s-.32 1.72-.36 2.1-1.37 2.2-1.41 2.68a2.27 2.27 0 0 1-1.32 1.45c-.5.11-1.55 1.61-1.91 2.09s-1 1.56-1.23 1.66-.48 1.54-.35 1.75.16 1.2.57 1.63.55.75.36 1.13.09 1.23 0 1.93a3.59 3.59 0 0 1-1 1.61 12 12 0 0 0-1.41 1.35c-.36.54-.68 1-.59 1.29a9.09 9.09 0 0 1 .41 1.93c0 .32-1.25.49-1.61.7s.16.91.25 1.34-.64 1.13-1 1.5a18.47 18.47 0 0 1-1.77 2.15 2.77 2.77 0 0 1-2 .33 2.91 2.91 0 0 0-1.78.74c-.23.27-.54.21-1-.05s-.5-.64-.55-1.24a4 4 0 0 0-.18-1 3 3 0 0 0-.55-1.34 7.18 7.18 0 0 1-.77-1.24c-.23-.32.42-1.24.37-1.83s-.83-1.28-1.05-1.66-.68-1.4-.87-1.77a4.77 4.77 0 0 1-.36-2.2 2.76 2.76 0 0 1 .87-2c.36-.32.22-.71-.1-1.36s0-1.72-.23-2.09-.69-2.47-1.19-2.79-1-.32-.76-1.07 0-1.5.45-2 .23-.8-.27-1.13-.32-.48-.73-.11-1 .59-1.27.21-.23-1-.82-1.39a2.15 2.15 0 0 0-1.77-.18c-.23.11-.69 1-1.33 1.14a9.29 9.29 0 0 1-1.73-.05c-.64 0-1.18.05-1.27.43s-.23.59-.64.22-1.23-1.24-1.23-1.24-.76-1.48-1-2.13-1-.67-1.88-1.15-.36-1-.45-1.56S89 94 89.27 94s.18-.43.68-1.18a2.36 2.36 0 0 0 .09-2c-.09-.43-.54-1.07-.09-1.77s.74-2.36 1.1-2.79A8.18 8.18 0 0 1 93 85.13c.5-.27.18-1 .45-1.77s.68-1.18.82-1.18.64-.56 1.18-.91 1.36.05 1.55-.06zm19.86 22.07c-.12-.23-.91-.16-1 .11s-.27 1.5.14 1.61 1.08-1.29.85-1.72z" fill="#f2f2f2"/><path d="M125.12 111.22c-.57-.19-.64.7-1.09 1.29s-1 1.07-1.14 1-1.18.38-.86 1.18a2.12 2.12 0 0 1 0 2c-.32.38.27 1.45.18 2s.14 1 .77 1 .86-.27 1.14-1 .32-1.4.59-2 .5-1.83.64-2.15a5.69 5.69 0 0 0 .36-1.93c-.09-.53-.27-1.28-.59-1.39z" fill="#f2f2f2"/><path d="M141.61 97.43c-.29.15-.6 2.74 0 3s.91-1.61.73-1.88-.34-1.34-.73-1.12z" fill="#f2f2f2"/><path d="M103.35 77.4c-.43 0-.64.81-.36 1.08s.55.21.77-.16a.69.69 0 0 0-.41-.92z" fill="#f2f2f2"/><path d="M99.9 78.26c-.11.2.36.27.45.05s-.13-.64-.45-.05z" fill="#f2f2f2"/><path d="M105.31 79.17c-.17.12.27.48.5.59s.41.43.59.48.77 0 .59-.54a.7.7 0 0 0-.73-.54c-.13.01-.72-.16-.95.01z" fill="#f2f2f2"/><path d="M94.45 68.32c-.41.08-.46.59-.73.59s-.59.11-.5.48.27.64 0 .8 0 .81.41.86.77-.27 1.09-.43.77-.48.77-1a1.88 1.88 0 0 0-.27-1.13.81.81 0 0 0-.77-.17z" fill="#f2f2f2"/><path d="M94.95 66.72c-.37.14-.23.7 0 1a2.91 2.91 0 0 0 1 1.07c.45.22 1.41.43 1 .65A5.93 5.93 0 0 0 95.39 71c-.09.32 1.19.18 1.19.18s-.27.38 0 .48.36-.37.73-.37 1.09.27 1.45.27 1-.59.91-1a2 2 0 0 0-.91-1.18c-.41-.22-.86-1.18-1.14-1.4s1-.93.69-1.3-1.28-.15-1.65-.42-.68.05-.91.38-.53-.03-.8.08z" fill="#f2f2f2"/><path d="M97.95 74.18c0-.48-1-.91-1.54-1s-.5-.43.14-.48.59-.32 1.14-.43 1.09-.27 1.5-.32.41-.48.41-.81 1.14-.43 1.14-.43.64-.7 1-1a1.62 1.62 0 0 1 1.5-.11c.5.16 0-.38-.23-.64a1.55 1.55 0 0 1 .09-1.18c.14-.32 1-.48 1.18-.38s0 .59 0 1a1.11 1.11 0 0 0 .41.7l.37-.05h.59a2.21 2.21 0 0 0 1.08-.15c.46-.16.79 0 1-.07a1.88 1.88 0 0 1 1.36.16c.68.27.32-.48.45-.91s.41-1.18.86-1.13.82.38 1.18.11-.68-.64-.68-.81.86-.16 1.63-.22a10.27 10.27 0 0 0 1.59-.11c.36-.11-.27-.86-.41-.86a11.36 11.36 0 0 1-1.5.05c-.45-.05-1 .32-1.36.43s-.5-.64-.73-1a.81.81 0 0 1 .27-1.23 7 7 0 0 0 1.82-1.31c.18-.32-.73-.27-1.59-.22s.14.32-.68 1.29-1.23.32-1.86 1-.18.7.41.91.09.86 0 1-.82.75-.73 1.18-.45.7-.45.7-1.68.43-2 .48-.41-.27-.32-.59-.36-1.07-.41-1.56-.73.21-.77.54-.91.38-1.41.16a1.33 1.33 0 0 1-.68-1.18c.09-.16-.27-1-.27-1.18a4.14 4.14 0 0 1 1.92-2 6.39 6.39 0 0 0 2.48-1.28 9.8 9.8 0 0 0 1-1.34 21.94 21.94 0 0 1 4.46-2.16c1.14-.21 3.63 1.08 4 1.19a14.71 14.71 0 0 1 1.64.7c1 .43 1.94 0 2.58.07s1 .79 1.38 1 0 .38-1 .75a2.9 2.9 0 0 1-2.22.05c-.55-.22-.86-.22-.45.11s.27.48.31 1 .68.05.82-.05.14-.32.64.05a.74.74 0 0 0 .91.11c.23-.05 0-.64.18-.86s.68-.21.82-.32a2 2 0 0 1 .73-.32c.27-.06.23.48.5.64s.14-.7 0-.91-.18-.81 0-1a1.6 1.6 0 0 1 1.32-.05c.23.22-.36.86-.23 1.23s.46-.21.68-.53.72 0 1.54-.16.64-.7 1.5-.38.64.32.91 0 .77.05 1.27-.16.5 0 .87.22.82-.43 1-.65.91-.22 1.27-.16a9.75 9.75 0 0 0 1.18.32 2.73 2.73 0 0 1 1 .32s.77.32 1 .11 0-.48-.73-.86-.41-1 0-1.07.36-.32.68-.54.73-1 1.09-.86.68.48 1.14.75 0 .64 0 .91a3 3 0 0 0 .23 1.45c.14.16-.14.75-.5 1s-.86.86-.73 1 1.23-.48 1.23-.48a10.33 10.33 0 0 1 1-1.23c.32-.27.64-.27.73.05s.59.43 1 .21 0-.37 0-.86-.77-.22-1.18-.11-.73.59-.86.59-.14-.32 0-.81-.18-.75-.18-1 .14-.27.46-.81.32.38.36.86.36.27.64.22.14-.7.37-1 .73-.38 1.18.11.41.32 1 .54.59.27.64.75.41.54.63.37 0-.81-.09-1-1.23-.59-1.59-1 .18-.38.59-.38 1.18.06 1.18.06a4.09 4.09 0 0 0 1.32-.59 4.34 4.34 0 0 1 1.23-.59 2.84 2.84 0 0 1 1.64-.11c.45.11.77-.22 1.23-.43s.83-1.65.83-.31c0 .17 1.27.43 1.45.38a4.28 4.28 0 0 0 1.32-.54c1.31-.8.17-1.18.68-.43.18.26.73-.21 1.68.27s0 0 .27.32.41-.05 1-.16a4.16 4.16 0 0 1 1.45.05 4 4 0 0 1 1.73.38c.41.32-.27 1-.5 1.24s.36.38.55.32a13.13 13.13 0 0 1 2.36.11c.69.11 1 .48 1.27.48a1.58 1.58 0 0 0 1-.38 5 5 0 0 1 1.68-.38 4.24 4.24 0 0 1 1.5.11 1.92 1.92 0 0 1 .27 1.07 1 1 0 0 0 .73.86c.32.05.91-.64 1.14-.75s.5.48.63.32 1.27.05 1.73-.22.73 0 1-.11a1.62 1.62 0 0 0 .59-.91c0-.21.18-.38 0-.7s-.82-.11-1.5-.32 0-1.33.23-.75c.11.33.72 0 1.18.11s.27-.16.5-.16 1 .27 1.5.27.82.59.82.59a11.6 11.6 0 0 1-1.54.43c-.27 0-.09.43.14.43a1.56 1.56 0 0 1 .86.43c.32.27 1.73 0 1.91 0a3.73 3.73 0 0 1 1.27.64 6.29 6.29 0 0 0 .91.54 12.81 12.81 0 0 0 1.55-.11 4.31 4.31 0 0 1 2 .05 6.45 6.45 0 0 1 1 .7c.36.38.64.21 1.14.16s1-.16 1.45-.16 2-.06 2.23.43.59.38.59.38a6.06 6.06 0 0 1 .59-1c.18-.16.77.11 1.14.32a20.1 20.1 0 0 0 2.59.11c.46.11 1.09.64.73 1.07s.27 1.18.14 1.61-.5.48-.87.59.36.64.68 1-.18.48-.5.32a4.39 4.39 0 0 0-2.18.38c-1 .32-1.45 1-2.54 1s-.64-.05-2-.05-1.32.43-1.59 1 .14.43 0 .86a5.08 5.08 0 0 0-.36 1.29c0 .37-.82.43-1.09.75a8.35 8.35 0 0 1-1.5 1.72 6.17 6.17 0 0 0-1.32 1.5 5.41 5.41 0 0 1 .5-1.56c.36-.64-.41-1.56-.46-2.26s.23-.91.68-1.56 1.55-.86 2-1.18 2.33-1.8 2.33-1.8a5.61 5.61 0 0 1-.82.48c-.45.21-1 .64-1.36.64s-.23-.43-.27-.86-.91-.11-1.23.32a11.33 11.33 0 0 1-1.54 1.24c-.64.54-.45.48-.86.54a2.33 2.33 0 0 1-1.41-.54c-.32-.27-.64.21-1.64.27S175.47 66 175 66s-1.59 1.61-2.27 1.88-1.54.75-1.32 1.13.64-.32.82-.32-.13.75.27.75.64-.27 1-.32.73.38.82 1a4.89 4.89 0 0 1-.36 1.83 3.87 3.87 0 0 1-1.18 2.15 24 24 0 0 0-2.14 2.15c-.23.32-1 .05-1.18-.16s-.54.48-.86.64a1.07 1.07 0 0 0-.64.91c0 .43-.91.43-.91.7a5.73 5.73 0 0 0 .77 1.39 2 2 0 0 1-.46 1.83c-.41.27-.59.59-1.14.21s-.09-.59.14-1.18a1 1 0 0 0-.32-1.08c-.09-.16-.46.32-.64.38s-.18-.48 0-.81a1.28 1.28 0 0 0-.2-1.08c-.14-.05-1 .81-1.36.75s0-1 .09-1.29-.27-.05-.54.21-.87.86-1.09.81-.68.43-.32.75.5.59.73.65a3.44 3.44 0 0 0 1-.16c.23-.05.68.38.23.86s-1.41.54-1.23.86a14 14 0 0 1 1 1.56 6.44 6.44 0 0 1 .32 2.15c.09.59-1.32 1.82-1.73 2.2s-.82 1.29-1.5 1.72a4.39 4.39 0 0 1-2.36.64c-.23-.16-.86.27-.82.86s.36.54.36.7a5.12 5.12 0 0 1-.64 1.07c-.18.27-.82 0-.73-.81s.55-1.13.5-1.5a.41.41 0 0 0-.73-.27c-.27.32-1.14 1.23-1.14 1.23a4.07 4.07 0 0 0 .73 1.34 10.59 10.59 0 0 1 1.28 1.67c.54.81.13 1.5 0 2.09s-.59.59-1 .7-.46.27-.59.59-.79 1.86-.89 1.59-.66-2.08-.66-2.08a4.48 4.48 0 0 0-1-1.45c-.59-.48-.82-.7-.82-.21S152 96.67 152 97s-.82-1-.82-1.5-.14-1.45-.09-2.31-1-.06-1-.06-.77 1.93-1 1.93 0-1.76 0-2.41a2.62 2.62 0 0 0-.36-1.45 6.31 6.31 0 0 1-1-1.66c-.14-.59-.41-.37-.68-.05s-.18.32-1.27.32-1 .81-1.59 1.29-1 1.4-1.64 1.72-.91.64-.91 1a10.59 10.59 0 0 1 .12 2.15 6.21 6.21 0 0 1-.8 1.56c-.32.54-.59 1.4-.86 1.4s-.36-.75-.36-1.23a7.69 7.69 0 0 0-1-2c-.18-.38-.86-2-.86-2a11.72 11.72 0 0 1-.5-2.26v-1.83s-.73.86-1 .81-.64-.64-.59-1.34-.54-.64-.86-.75-.73-1.07-1-1.07a.49.49 0 0 0-.54.32c-.18.32-1.14.27-1.37.27a9.48 9.48 0 0 1-2-.22c-.41-.16-.86-1.13-1.09-1.23s-.91.59-1.18.48-.82-.64-1.41-1-.77-1.07-1-1.56-1 .27-.91.81 1.09 1.23 1.09 1.61.18.48.68 1 .09.75.41.86.77-.43 1.23-.7.41-.64.64-.64.18.7.55.75a3.25 3.25 0 0 1 1.54 1.13c.23.43-.23.7-.41 1.07a8.1 8.1 0 0 1-1.18 1.88 3.91 3.91 0 0 1-1.64 1.18c-.68.16-.77.59-1.32.64a9 9 0 0 0-2.17 1.09 3.43 3.43 0 0 1-1.82.43c-.36-.16-.5-1.23-.64-2a6.22 6.22 0 0 0-.45-1.56 7.42 7.42 0 0 0-1.14-1.34 5.85 5.85 0 0 1-.68-2c0-.54-.54-.32-.63-.91a16.13 16.13 0 0 0-.68-1.77c-.09-.38-1 .06-1.36.11a1 1 0 0 1-1-1.18c.09-.86.45-.86.91-.86s.27-.27.73-.81a4.45 4.45 0 0 0 .64-2.31c0-.7-.32-.38-.68-.27a3.27 3.27 0 0 1-1.09.21c-.18-.05-.91-.32-1-.16s-.91.05-1.09-.21-1.09-.59-1.18-.81a13.92 13.92 0 0 0-.18-1.82c-.18-.32-.59.06-.82.27s-.86.38-.68.54.77.48.73.91-.45.54-.68.75-1.06 1.06-1.19.8-.22-2-.36-2.19a5.06 5.06 0 0 1-.68-1.23c-.14-.48-.63-.64-1-1s-1.23-1-1.59-1.39-1-.75-1-.22.64.64.91 1.18a2.62 2.62 0 0 0 1.18 1 12.27 12.27 0 0 1 1.18.86 1.41 1.41 0 0 1-.68.11c-.32-.05.18 1.16.14 1.53s-.59-.14-.68-.56a2.43 2.43 0 0 0-.55-1.07c-.18-.16-1.36-.59-1.55-.7s-1-.7-1-1.18-.77-.54-1-.43-.86.7-1.18.7-.82-.27-1.18-.32-.41.7-.54 1.13-.73.11-1 .48-.86.75-.73 1.08.36.32 0 .59-.64.81-1 .86-1 .27-1.18.11-.41.54-.55.7-.36-.48-.59-.75-.82-.05-1-.11-.36-.54-.59-.75a.67.67 0 0 1 0-.86.81.81 0 0 0 .23-.91c-.14-.48-.23-1.56.23-1.77a6.82 6.82 0 0 1 2.09 0c.55 0 1.48.22 1.64-.11a2.94 2.94 0 0 0 .11-1.61zm17.13-9.45c-.16.51 1 .91 1.27.54s-1.05-1.27-1.27-.54zm-1.54 13c.09.21.54-.32.91-.32s1.18.16 1.41-.21 1-.43 1.54-.32 1.09.59 1.5.64a7 7 0 0 0 1.86-.16c.36-.11.27-.86-.32-1.23a13.07 13.07 0 0 0-1.64-1.18c-.55-.21-.73-.43-.41-.54s.73-.54.27-.54-.86.16-.91.43a1.24 1.24 0 0 1-.5.7c-.18.11-.64.54-.77.21s-.63-1.29-.86-1.34-.59 0-.86.54a4.43 4.43 0 0 1-.86 1.29c-.27.22-.64.86-.36 1s-.01 1.02-.01 1.02zm10.4-3.73c-.55.44-.73 1-.5 1.4s.86 1.56 1.18 1.67 1.45.32 1 .8-.55.65-1 .59-.23 1.29.09 1.4 1.27.48 1.59.54 1.36-.11 1.32-.43a4.53 4.53 0 0 0-.59-1.93c-.37-.32.5-.65.27-.91s-.55-.16-.73-.48a2.63 2.63 0 0 0-.54-.86c-.27-.21-.5.22-.45-.38s.68-1 1-.64 1.09.16 1.27 0-.37-.65-.5-1a1.44 1.44 0 0 0-1.18-.48c-.14.11-.5.43-.86.7s-1.1-.24-1.37.01z" fill="#f2f2f2"/><path d="M129.16 58.77c-.33.4-1 .27-1.54-.06a5.42 5.42 0 0 0-1.36-.48c-.27-.11 0-.75.36-.91s1.18-.65 1.82-1 .82-1 1.27-1 2.64-.54 2.91-.43 1.59.21 1.86-.21 1.23-.16 1 .21-1 1.23-1.59 1.08a9.5 9.5 0 0 0-2.77 0 5.43 5.43 0 0 0-1.91 1c-.59.38-.46.81-.23.86a.63.63 0 0 1 .18.94z" fill="#f2f2f2"/><path d="M175.15 69.45c-.27.09-1-.11-.77.64a4.13 4.13 0 0 1 .27 1.88 8.26 8.26 0 0 0 .09 2c.09.16.45.54.68.43s-.09-1.18-.09-1.4a.87.87 0 0 1 .5-.59c.18-.05 0-1-.23-1.34s-.55-.59-.36-.64.41-.48.27-.59-.04-.49-.36-.39z" fill="#f2f2f2"/><path d="M174.7 74.93c-.34.1-.45.64-.45.8s-1.27.48-.86.91.82.11 1.45.05a5.42 5.42 0 0 0 1.23-.27s1 .05.82-.48-1.14-.59-1.32-.54-.51-.58-.87-.47z" fill="#f2f2f2"/><path d="M173.65 77c-.33.24-.14 1.18-.41 1.83s-.5 1.23-.68 1.23a3.53 3.53 0 0 0-1.41.75c-.27.32-1.59-.27-1.77 0a5.67 5.67 0 0 1-.77.8c-.23.22-.86.05-.73.7s.45 1.24.73 1.24.64-.21.64-.81.63 0 1-.05.5-.43.64-.86-.18.21.37.38a.51.51 0 0 0 .73-.43c0-.16 1-.43 1.18-.59s.91-.43 1-.64 0-1.45.23-1.56.54-.11.18-.86-.47-1.43-.93-1.13z" fill="#f2f2f2"/><path d="M163.65 87.6c-.67.12-1.09 1.83-.54 1.77s1.14-1.88.54-1.77z" fill="#f2f2f2"/><path d="M191.69 125.61c-.18.11 0 .7.18.91a2.19 2.19 0 0 1 .23 1.18c0 .22-.82.48-.45.75s1 0 1 .32-.45.75 0 .86.54-.38.73-.75a2.06 2.06 0 0 1 .64-.91c.32-.22 0-.7-.18-.7s-.27.27-.68 0-.32-.16-.59-.7-.42-1.23-.88-.96z" fill="#f2f2f2"/><path d="M191.33 129.05c-.07.26-.45.32-.73.59s0 .38-.77.91-1.73 1.13-1.91 1.61.18.75.91.81.54.22 1-.43a11.39 11.39 0 0 1 1.54-1.56 2 2 0 0 0 .59-1.34s-.59-.75-.63-.59z" fill="#f2f2f2"/><path d="M176.15 129.48c-.5.59.5.59.36 1.18s.68.38.91.27a3 3 0 0 0 .68-1.67c-.09-.32-1 .54-1.23.48a6.92 6.92 0 0 1-.72-.26z" fill="#f2f2f2"/><path d="M172.84 125.29c0-.55-.27.59-.46.11s.18-1.29-.27-1-.68.59-.73.86-.86.37-.82.11.36-.91 0-1.18a4.7 4.7 0 0 0-1.27-.54c-.41-.16 0-.7-1-.43a4.29 4.29 0 0 0-1.5.59s-1-.38-1.32.05a5.8 5.8 0 0 0-.5 1.8 9.83 9.83 0 0 0-1.82-.45c-.27.05-.73.48-1.13.64s-1.09.32-1.37.05-.73-.75-.59-1.07 1.14-.75.77-1.29-.59-.64-.64-1a1.29 1.29 0 0 0-.41-1.13c-.54-.64-.41-1.4-.18-1.5s-.76-.75-.94-1 .44-1.23.8-1.5 1.45-1.29 1.77-1.29.82.16 1.14-.11 1.27-.16 1.27-.38-.26-1.94 0-2.21 1.54.33 1.68.12.36-1.12.63-1.29.5-.54.91 0 .82.75 1 .22 0-.38.46-.86 0-1.29.36-.81.68.86.68.86 0-1.07.23-1.07.54.54.68.54 1.36-.32 1.59.05-.64 1.4-.32 1.77a8 8 0 0 0 1.41.91c.46.32 1 1.07 1.23.43s.68-1.61.36-2.09a3.22 3.22 0 0 1 .23-2.15c.14-.11.36 1.23.82 1.83a6.17 6.17 0 0 1 1.14 1.66c.23.65.27 1.77.68 2.15s2 .35 1.94.83a4.72 4.72 0 0 0 .65 2.34 13 13 0 0 1 1.47 3.91c0 .86-1.47 1.83-1.87 2.48a13.37 13.37 0 0 0-.73 1.83c-.18.32-.09.27-.77.48s-1.18.86-1.37.64-.82-.59-1-.32-.41.86-.73.21-1-.54-1.18-.64-.14-.43-.14-1-.59-.59-.64-.75-.2-.25-.2-.41z" fill="#f2f2f2"/><path d="M193.78 114.77c.59.27 1.64-1 1.23-1.13s-1.23 1.13-1.23 1.13z" fill="#f2f2f2"/><path d="M188 117.45c-.09.52-.64.27-.91-.21s-.82-.86 0-.64.97.58.91.85z" fill="#f2f2f2"/><path d="M149.71 99.95c-.57.13.82 1.29 1 1.45s1.36 1.4 1.36 2a8 8 0 0 0 .62 2.64c.23.22 1.78.58 2 1s.59.54.59-.06a3.29 3.29 0 0 1 .32-1.61c.23-.32.14-.81-.23-.75s-.68-.7-1.27-1.18a8.65 8.65 0 0 1-1.59-1.5 14.55 14.55 0 0 0-1.59-1.5 1.51 1.51 0 0 0-1.21-.49z" fill="#f2f2f2"/><path d="M151.48 97.1c-.36.05-.36.86-.18 1.13s.55.11.77 1.07a12.13 12.13 0 0 0 .86 2.31c.18.37 1 .91 1.23 1.18s.68-.11.5-.43a4 4 0 0 1-.59-1.18 5 5 0 0 0-.63-1.61c-.37-.65-.68-.81-.91-1.23a7.86 7.86 0 0 0-1.05-1.24z" fill="#f2f2f2"/><path d="M155.29 107.25a.69.69 0 0 0 .23 1 1.94 1.94 0 0 0 1.09.16c.45-.05 1.09-.22.59-.54s-1.09 0-1.28-.43-.44-.44-.63-.19z" fill="#f2f2f2"/><path d="M157.93 107.68c-.32.16-.82.27-.45.65a1.17 1.17 0 0 0 1.13.48c.55-.05 1.37.32 1.41 0s-.5-.8-.73-.8a12.31 12.31 0 0 1-1.36-.33z" fill="#f2f2f2"/><path d="M162.38 109.45c-.1.48.68.7.73.16a.37.37 0 0 0-.73-.16z" fill="#f2f2f2"/><path d="M164.79 109.83c.07.59 1-.32 1-.32s.73-.11.73-.48-.73-.86-1-.43-.77.85-.73 1.23z" fill="#f2f2f2"/><path d="M162.79 103.82c-.27.11-.23.38-.32.91s-.5.91-.14 1.18 1-.91 1.23-.54 0 .54.27 1a1 1 0 0 0 .91.43s0-1.29-.55-1.61-.82-.7-.23-.59.91-.16.77-.48-1-.16-1.27-.11a1.24 1.24 0 0 1-.67-.19z" fill="#f2f2f2"/><path d="M163.06 102.74c-.32.38-.09.75.41.7s1.55-.22 1.77-.22.55-.7.36-.7a14.15 14.15 0 0 0-1.59.32 4.48 4.48 0 0 1-.95-.1z" fill="#f2f2f2"/><path d="M167.7 102c-.42-.21-1.18 1.77-.64 1.93s.94-1.78.64-1.93z" fill="#f2f2f2"/><path d="M161.47 99.15c0-.38-.73.11-.78.48s.5.7-.36.7-.91.81-1.09 1a1.73 1.73 0 0 1-.73.32c-.36.11-.45.54-.54.81s-.72-.48-.91-.27a3.47 3.47 0 0 0 .27 2.1 2.33 2.33 0 0 0 1.36 1.39 3.49 3.49 0 0 1 1 .11c.32.11 1.36.21 1.31-.27a2.16 2.16 0 0 1 .32-1.72c.45-.48.91-.75.68-1.45s-.68-1.13-.36-1.45.68-.43.68-.7-.75.72-.85-1.05z" fill="#f2f2f2"/><path d="M163.7 91.57c-.32 0 0 .59-.41 1s-1 .54-.68 1.18 1.23 1.13 1 1.4-.91.8-1 1.29 1.09-.75 1.41-1.23 1-.21 1.09-.48l.14-.27a6.9 6.9 0 0 1-.91-.27c-.41-.16-.91.43-.68-.43s.91-.7.77-1.34a.91.91 0 0 0-.73-.85z" fill="#f2f2f2"/><path d="M164.11 96.24c-.16.07-.54 1 0 1s1.36.16 1.18-.11-.68-1.13-1.18-.89z" fill="#f2f2f2"/><path d="M165.61 95.44c-.18 0-.77 1.13 0 1.07s.63-1.02 0-1.07z" fill="#f2f2f2"/><path d="M165.74 97.43c-.64 1-.59.75-1 .54s-1.18.48-1 .75 1.14-.05 1.36.43.23.54.68.43a1.22 1.22 0 0 0 .78-1.23 3.44 3.44 0 0 0-.82-.92z" fill="#f2f2f2"/><path d="M168.84 103.76c-.34.4-.5.43.28.59s1 .16.68.59-.54 1-.27 1 1.09-.21 1.18 0-.18.27.73.43a1.69 1.69 0 0 1 1.27.75c.18.22.73.91.36.91s-.77.54-.5.59 1.09-.16 1.14 0 .5 1.18 1 1.13.73-1 1-1.29 1.14-.43 1.23.05a1.87 1.87 0 0 0 .91 1.29c.55.32 1.18.65 1.23.38s-.28-1.29-.64-1.45a2.53 2.53 0 0 1-1-1.45c0-.38-.54-.48-.82-.75s-.5-1-1.18-1.18a5.12 5.12 0 0 1-1.59-.86c-.73-.43-2.36-.43-2.41-.16s0 0-.54-.21-1 0-1.09-.38-.56-.46-.97.02z" fill="#f2f2f2"/><path style="mix-blend-mode:multiply" fill="url(#a)" d="M150.91 157.57l50.3 14.54V19.17L150.91 0v157.57z"/><path style="mix-blend-mode:multiply" fill="url(#b)" d="M150.91 157.57l-50.31 14.54V19.17L150.91 0v157.57z"/><path d="M130.3 62.23c-9.23 0-13.58 3.11-9.72 7S152 83.84 152 83.84s5.83-10.82 2-14.66-14.48-7-23.72-7zm11.2 11.13c-6 0-13-2-15.5-4.55s.32-4.55 6.35-4.55 13 2 15.51 4.55-.32 4.55-6.36 4.55z" fill="#a7a9ac"/><path style="mix-blend-mode:multiply" fill="url(#c)" d="M50.3 157.57L0 172.11V19.17L50.3 0v157.57z"/><path style="mix-blend-mode:multiply" fill="url(#d)" d="M50.3 157.57l50.3 14.54V19.17L50.3 0v157.57z"/><path d="M152.74 31.74A16.71 16.71 0 0 0 136 48.46c0 9.23 16.72 35.25 16.72 35.25s16.72-26 16.72-35.25a16.71 16.71 0 0 0-16.72-16.72zm0 26.76a10.93 10.93 0 1 1 10.93-10.93 10.93 10.93 0 0 1-10.93 10.93z" fill="#d14243"/></g></g></svg>