<svg xmlns="http://www.w3.org/2000/svg" viewBox="-0.4313058853149414 -0.2188739776611328 80.46522521972656 58.33655548095703"><title>Depositphotos_103092084_246_ic</title><g data-name="Layer 2"><g data-name="Layer 1" fill-rule="evenodd"><path d="M21.51 41.3a7.2 7.2 0 0 0-5.11 2.11 7.23 7.23 0 0 0 0 10.23 7.23 7.23 0 0 0 10.23 0 7.23 7.23 0 0 0 0-10.19 7.21 7.21 0 0 0-5.12-2.12zm-3.4 3.84a4.8 4.8 0 0 1 6.84 6.75 4.8 4.8 0 0 1-6.79 0 4.8 4.8 0 0 1 0-6.8z" fill="#bcbec0"/><path d="M71.31 12.57H52.47v35.21h1.9a11.58 11.58 0 0 1 3.37-7.45 11.6 11.6 0 0 1 19.78 7.45h.94V30.41a3.38 3.38 0 0 0 0-.41 2.46 2.46 0 0 0-.08-.37L74.2 14.76a3 3 0 0 0-1.07-1.59 3 3 0 0 0-1.82-.6zm-14.68 2.72h12.93a2.62 2.62 0 0 1 1.59.53 2.61 2.61 0 0 1 .94 1.39l3.41 12.21a.75.75 0 0 1-.52.92.7.7 0 0 1-.2 0H56.63a.75.75 0 0 1-.75-.75V16a.75.75 0 0 1 .75-.71z" fill="#fee635"/><path fill="#bcbec0" d="M50.97 36.69H35.51V49.9h15.46V36.69z"/><path d="M34 36.69H7.43v8a3 3 0 0 0 2.51 3 11.6 11.6 0 0 1 23.14 0H34z" fill="#bcbec0"/><path fill="#bcbec0" d="M15.01 33.58h-3.62v1.61h31.73v-1.61H15.01z"/><path d="M15.72 27.41v4.67h11.81l-3.62-1-.14-.05z" fill="#bcbec0"/><path fill="#bcbec0" d="M29.06 11.96L4.16 7.03 2.48 13.3l24.03 8.18 9.07 2.43 9.53 1.48 2.02-7.52h-.01l-8.99-3.48-9.07-2.43z"/><path d="M44.72 26.84l-9.42-1.47h-.08l-9.12-2.45h-.07L2.1 14.75l-.5 1.86a3 3 0 0 0 1.66 3.51l12 5.43h.08l9 4.1 9 2.4H41a2.95 2.95 0 0 0 2.9-2.22z" fill="#bcbec0"/><path d="M4.56 5.57l24.82 4.92h.07L38.54 13h.12l8.85 3.42.81-3a3 3 0 0 0-.12-1.93A3 3 0 0 0 46.92 10l-6.66-3.82-9-2.41-23-2.26a3 3 0 0 0-3.21 2.21z" fill="#bcbec0"/><path d="M65.95 41.3a7.23 7.23 0 1 0 5.12 2.12 7.21 7.21 0 0 0-5.12-2.12zm-3.4 3.84a4.81 4.81 0 0 1 6.79 0 4.8 4.8 0 0 1 0 6.74 4.8 4.8 0 0 1-6.79-6.8z" fill="#bcbec0"/><path d="M69.56 16.79H57.38v12.09H73.8l-3.16-11.27a1.13 1.13 0 0 0-.4-.6 1.12 1.12 0 0 0-.68-.22z" fill="#a3ddf2"/><path d="M65.95 45.23a3.31 3.31 0 1 0 2.34 5.64 3.31 3.31 0 0 0 0-4.64 3.32 3.32 0 0 0-2.34-1z" fill="#fee635"/><path d="M21.51 45.23a3.31 3.31 0 0 0-2.34 5.64 3.31 3.31 0 0 0 4.68 0 3.31 3.31 0 0 0-2.37-5.61z" fill="#fee635"/><path d="M79.81 29.24l-4.16-14.88A4.49 4.49 0 0 0 74 12a4.48 4.48 0 0 0-2.72-.91H51.73a.75.75 0 0 0-.75.75V35.2h-6.31v-2.37a.74.74 0 0 0-.38-.64 4.56 4.56 0 0 0 1.08-1.94l2.78-10.37.61-2.27 1-3.82a4.45 4.45 0 0 0-2.09-5.06L41 4.87a.69.69 0 0 0-.23-.11l-9.14-2.44h-.12L8.39 0a4.48 4.48 0 0 0-4.78 3.33l-.7 2.61V6l-2 7.63-.76 2.6a4.47 4.47 0 0 0 2.49 5.26l11.58 5.25v5.35h-3.6a.76.76 0 0 0-.77.75v2.36H6.69a.75.75 0 0 0-.75.75v8.77a4.51 4.51 0 0 0 4.5 4.5h.23a.75.75 0 0 0 .75-.74 10.1 10.1 0 0 1 20.21-.06v.06a.75.75 0 0 0 .75.75H34v1.45a.75.75 0 0 0 .75.75h17a.75.75 0 0 0 .75-.75v-1.4h2.6a.75.75 0 0 0 .75-.74 10.08 10.08 0 0 1 3-7.14 10.11 10.11 0 0 1 17.25 7.15.75.75 0 0 0 .75.75h2.42a.75.75 0 0 0 .75-.75V30.42a4.46 4.46 0 0 0 0-.61 4.86 4.86 0 0 0-.21-.57zM5.06 3.72a3 3 0 0 1 3.19-2.21l23 2.27 9 2.41L46.93 10a3 3 0 0 1 1.28 1.45 3 3 0 0 1 .12 1.93l-.81 3L38.67 13h-.13l-9.1-2.44h-.07L4.56 5.58zM4.17 7l24.9 5 9.07 2.43 9 3.48-2 7.53-9.52-1.49-9.08-2.44-24-8.17zm-.91 13.12a3 3 0 0 1-1.66-3.51l.5-1.86L26 22.9h.07l9.12 2.44h.08l9.42 1.47-.81 3A3 3 0 0 1 41 32.09h-7.7l-9-2.4-9-4.1h-.08zm24.27 12H15.72v-4.71l8 3.65.14.06zM34 47.71h-.94a11.6 11.6 0 0 0-23.14 0 3 3 0 0 1-1.63-.84 3 3 0 0 1-.88-2.12v-8H34zM11.4 35.2v-1.62h31.72v1.62H11.4zM51 48.54v1.37H35.52V36.69H51zm27.5-.75h-.94a11.6 11.6 0 0 0-23.15 0h-1.9V12.57h18.81a3 3 0 0 1 1.82.6 2.94 2.94 0 0 1 1.07 1.59l4.15 14.84a2.22 2.22 0 0 1 .08.37 2.55 2.55 0 0 1 0 .41z" fill="#6d6e71"/><path d="M27.69 42.36a8.73 8.73 0 1 0 0 12.35 8.72 8.72 0 0 0 0-12.3zm1.06 6.17a7.2 7.2 0 0 1-2.08 5.08 7.23 7.23 0 0 1-10.23 0 7.23 7.23 0 1 1 10.19-10.19 7.2 7.2 0 0 1 2.12 5.12z" fill="#6d6e71"/><path d="M69.35 45.15a4.8 4.8 0 1 0 0 6.79 4.79 4.79 0 0 0 0-6.74zm-1 5.7a3.31 3.31 0 1 1 0-4.67 3.31 3.31 0 0 1 0 4.64z" fill="#6d6e71"/><path d="M72.13 42.36a8.73 8.73 0 0 0-12.35 0 8.73 8.73 0 1 0 12.35 0zm1.06 6.17a7.24 7.24 0 1 1-2.12-5.11 7.2 7.2 0 0 1 2.11 5.12z" fill="#6d6e71"/><path d="M72.09 17.21a2.6 2.6 0 0 0-2.53-1.92H56.64a.75.75 0 0 0-.75.75v13.59a.75.75 0 0 0 .75.75h18.35a.75.75 0 0 0 .52-.92zm-14.7 11.67V16.8h12.17a1.14 1.14 0 0 1 .69.22 1.11 1.11 0 0 1 .4.6l3.15 11.26z" fill="#6d6e71"/><path d="M21.51 43.74a4.8 4.8 0 1 0 3.4 8.2 4.8 4.8 0 0 0-3.44-8.15zm2.37 7.1a3.31 3.31 0 1 1 1-2.34 3.3 3.3 0 0 1-1.03 2.38z" fill="#6d6e71"/></g></g></svg>