<svg xmlns="http://www.w3.org/2000/svg" viewBox="0 -4.76837158203125e-7 288 230.00999450683594"><title>Depositphotos_65001581_7_ic</title><g data-name="Layer 2"><g data-name="Layer 1"><g data-name="Layer 2"><g data-name="Layer 3"><path d="M158.7 150.36l-100-.36 51.6-86h100zM69.29 144l86 .33L199.71 70h-86z" fill="#fff"/><path fill="#fff" d="M198.344 35.424l5.879-1.2 22.848 112.004-5.879 1.2z"/><path d="M132.17 27a8 8 0 0 1-8 8H89.5a8 8 0 0 1-8-8 8 8 0 0 1 8-8h34.67a8 8 0 0 1 8 8z" fill="#f1585c"/><path fill="#46b9e9" d="M219.38 83.01h-16l-6.75-32h16l6.75 32z"/><path d="M224 96a51 51 0 0 0-24 96h-40v6h96v-6h-8a51 51 0 0 0-24-96zm41.29 68.86a45 45 0 1 1-23.46-59.16 45 45 0 0 1 23.46 59.16z" fill="#fff"/><path d="M89.5 38h14.88l22.26 109.6 5.88-1.2L110.5 38h13.66a11 11 0 0 0 0-22H89.5a11 11 0 0 0 0 22zm0-16h34.67a5 5 0 1 1 0 10H89.5a5 5 0 0 1 0-10z" fill="#fff"/><path d="M160 6a13 13 0 0 1 13 13 19 19 0 0 0 19 19h16a19 19 0 0 0 19-19 13 13 0 0 1 26 0h6a19 19 0 0 0-38 0 13 13 0 0 1-13 13h-16a13 13 0 0 1-13-13 19 19 0 0 0-38 0h6a13 13 0 0 1 13-13z" fill="#fff"/><path d="M64 198h48v-6H88a51 51 0 1 0-48 0H0v6zm-17-9.35A45 45 0 1 1 64 192a45 45 0 0 1-17-3.35z" fill="#fff"/><path fill="#fff" d="M56 208.01h149v6H56z"/><path fill="#fff" d="M27.13 224.01h80v6h-80z"/><path fill="#fff" d="M223.99 208.01H288v6h-64.01z"/><path fill="#fff" d="M187.13 224.01H256v6h-68.87z"/><path d="M215.06 48h-22.13l8 38h22.13zm-14.73 6h9.87l5.48 26h-9.87z" fill="#fff"/></g></g></g></g></svg>