<svg xmlns="http://www.w3.org/2000/svg" viewBox="-0.06512022018432617 0 9.145118713378906 21.943527221679688"><title>Depositphotos_104788288_01</title><g data-name="Layer 2"><g data-name="Layer 1"><g data-name="Layer 2"><g data-name="Layer 1-2"><path d="M1.41 19.73h5.66a.63.63 0 1 0 .16-1.25H1.41a.63.63 0 0 0-.16 1.25z" fill="#e27625"/><path d="M7.07 20.56H1.41a.63.63 0 0 0-.16 1.25h5.82a.63.63 0 1 0 .16-1.25z" fill="#e27625"/><path d="M2.63 10.87C2.51 10.78.45 9.51.45 9.51s1.79 1.62 1.92 1.72c.41.31.63-.05.26-.36z" fill="#fff"/><path d="M1.08 12C1 11.85.45 9.51.45 9.51S.61 11.92.63 12c.09.6.53.52.45 0z" fill="#fff"/><path d="M2.06 6.48a.23.23 0 0 0 .36-.29.23.23 0 0 0-.36.29z" fill="#fff"/><path d="M3 9.95c-.15 0-2.53-.44-2.53-.44s2.27.83 2.42.87c.48.14.6-.29.11-.43z" fill="#fff"/><path d="M2.57 8C2.44 8.14.45 9.51.45 9.51s2.21-1 2.35-1.05c.45-.26.2-.65-.23-.46z" fill="#fff"/><path d="M3 9c-.2 0-2.55.51-2.55.51s2.41-.08 2.55-.1c.54-.06.48-.5 0-.41z" fill="#fff"/><path d="M2 11.59C1.88 11.46.45 9.51.45 9.51s1.05 2.18 1.14 2.31c.26.45.65.18.41-.23z" fill="#fff"/><path d="M7.73 10.35a.28.28 0 1 0-.07.39.28.28 0 0 0 .07-.39z" fill="#fff"/><path d="M7 11.3a.28.28 0 1 0-.39 0 .28.28 0 0 0 .39 0z" fill="#fff"/><path d="M6.64 12a.28.28 0 1 0-.37.15.28.28 0 0 0 .37-.15z" fill="#fff"/><path d="M2.44 15.9a10.13 10.13 0 0 0-.66-1.17A10.09 10.09 0 0 0 1.7 16a.38.38 0 0 0 .74-.13z" fill="#fff"/><path d="M8.58 10a.28.28 0 1 0-.16.31.28.28 0 0 0 .16-.31z" fill="#fff"/><path d="M6.33 14.77a.28.28 0 1 0 .09-.39.28.28 0 0 0-.09.39z" fill="#fff"/><path d="M6.44 12.77a.28.28 0 0 0-.55 0c-.05.45.64.4.55 0z" fill="#fff"/><path d="M6.95 15.54a.28.28 0 1 0 0-.37.28.28 0 0 0 0 .37z" fill="#fff"/><path d="M1 13.23a.23.23 0 1 0 0-.32.23.23 0 0 0 0 .32z" fill="#fff"/><path d="M6.51 13.71a.28.28 0 0 0-.5.12.28.28 0 0 0 .5-.12z" fill="#fff"/><path d="M6 5.45A.28.28 0 0 0 5.73 5a.28.28 0 0 0 .27.45z" fill="#fff"/><path d="M8.94 11.92L8.52 6C8.46 5.2 7.47 4.72 7 5.75c0-.06-.36-4.48-.36-4.43a.75.75 0 0 0-1.49.13v6.61c0-.29-.22-7-.23-7.27a.79.79 0 0 0-1.58 0s-.07 4.36-.07 4.52v2.62c0-.08-.08-6.27-.11-6.34 0-.66-1.27-.79-1.41 0 0 .1-.24 6.24-.24 6.34V3.56a.56.56 0 0 0-1.11 0S.31 6.25.26 7.25C0 12.16 0 12.32 0 12.32a6.08 6.08 0 0 0 1.53 4.29l-.18 1.8a.7.7 0 0 0-.14 1.39l-.07.73a.71.71 0 0 0 .24 1.37h5.69a.71.71 0 1 0 .08-1.41l-.07-.68c.91 0 1-1.41-.15-1.41a21.58 21.58 0 0 1-.15-2.19c1.7-.62 2.3-2.34 2.16-4.29zm-.2.11a1.17 1.17 0 0 0-.19 2 3.3 3.3 0 0 1-.41.88A2.14 2.14 0 0 1 8.66 11zm-2-7.24a2.1 2.1 0 0 1-.13-2zM3.58 4.5a4.16 4.16 0 0 0 .52-.55.38.38 0 0 0-.5-.53V.78a.58.58 0 0 1 1.15 0l.13 4.06c-.21.34-.53 1-.53 1l.55-.26.1 1.59a4.89 4.89 0 0 0-1.43-1.71zM2 1.58c.07-.13.1-.22.23-.28a6.27 6.27 0 0 0-.23.88.33.33 0 1 0 .66 0 6.93 6.93 0 0 0-.24-.94h.06a4.31 4.31 0 0 0 .52.84v.58a1.75 1.75 0 0 1-1.07.08C2 2.65 2 1.68 2 1.58zM1.94 3A2 2 0 0 0 3 2.95v.31a2.25 2.25 0 0 1-1.11.06zm-1.3.52a.35.35 0 0 1 .69 0v.91a5.18 5.18 0 0 0-.72-.03zm0 1.07a5 5 0 0 1 .74.08V5a4.54 4.54 0 0 0-.76-.09zm-.37 8.79a.23.23 0 0 0 .2-.38.21.21 0 0 0-.24 0v-.6l.09-1.85.13-1-.09.25v-.13l.09-.16-.09.1.09-.07-.08-.11.08.12-.08-.22v-.17l.07.36V7.69l.08-1.6a.23.23 0 0 0 .24-.37.21.21 0 0 0-.22-.08v-.45a4.37 4.37 0 0 1 .77.09v.53a.23.23 0 0 0 0 .41v.5c-.08-.08-.3 0-.3.31S.45 9.51.45 9.51s.68-1.67.89-2.22v.65a.19.19 0 0 0 .06.14L.45 9.51s1.68-1.73 1.78-1.85c.33-.41 0-.69-.35-.28l-.1.14.11-3.12a.28.28 0 0 0 0-.56v-.25A2.48 2.48 0 0 0 3 3.53v.38a.28.28 0 0 0-.25-.09.29.29 0 0 0 .09.57A.28.28 0 0 0 3 4.3v2.37a.23.23 0 0 0-.22.33.22.22 0 0 0 .31 0v.9a.21.21 0 0 0 .21.21c.19 0 .22-.14.22-.32a.23.23 0 0 0 0-.46v-.85a4.34 4.34 0 0 1-3.16 7.37 4.07 4.07 0 0 1-.09-.47zm.14.62a4.56 4.56 0 0 0 3.15-7.82v-.44A4.78 4.78 0 0 1 5 7.75c0 .22 0 .47.17.53A4.88 4.88 0 0 1 .52 14.4a2.59 2.59 0 0 1-.11-.4zm.19.56a5.1 5.1 0 0 0 4.79-6.34.2.2 0 0 0 .06-.22V4.6a.28.28 0 0 0 .41-.31.27.27 0 0 0-.31-.22h-.1v-.41a.27.27 0 0 0 .35-.25.28.28 0 0 0-.26-.3h-.09V1.46a.54.54 0 0 1 1.07-.06l.08 1a2.38 2.38 0 0 0 .23 2.88l.09 1.14a15.13 15.13 0 0 0-.31 1.78c-.37.17-.88.44-.88.44l.8.13c-.06.49-.14 1-.23 1.4l-.55.11.48.23a7.18 7.18 0 0 1-.5 1.38H5.3l.3.29a6.92 6.92 0 0 1-.83 1.19l-.32-.14.17.31a2.68 2.68 0 0 0-.7 1.24c-.29-.27-.66-.58-.66-.58a10.31 10.31 0 0 0 .33 1.3.36.36 0 0 0 .42.13 2.24 2.24 0 0 0 2.53.66 20.35 20.35 0 0 0 .15 2.12h-5.1l.18-1.78a.21.21 0 0 0 0-.15A7.46 7.46 0 0 1 .6 14.62zm6.47 7.06H1.41a.5.5 0 0 1-.27-.92c.21-.11.1-.06 5.93-.06a.5.5 0 1 1 0 1zm-5.69-1.2l.07-.68h5.42l.07.68zm5.69-1.87a.5.5 0 0 1 0 1H1.26a.5.5 0 1 1 .09-1zm-2.34-4.86c.4-.62 1.51-1.22 2-4.9.28-2 .42-2.66.42-2.66.27-1.21 1.11-.75 1.16-.1l.34 4.73A2.39 2.39 0 0 0 8 15.09c-1.66 2.1-5.38.99-3.27-1.4z" fill="#fff"/><path d="M3.87 10.23a.23.23 0 1 0 0-.32.23.23 0 0 0 0 .32z" fill="#fff"/><path d="M4.09 8.23a.23.23 0 1 0 0 .32.23.23 0 0 0 0-.32z" fill="#fff"/><path d="M3.9 9.37a.23.23 0 0 0 .36-.29.23.23 0 0 0-.36.29z" fill="#fff"/><path d="M1.81 13a.23.23 0 0 0 .36-.29.23.23 0 0 0-.36.29z" fill="#fff"/><path d="M2.57 12.48a.23.23 0 1 0 0-.32.23.23 0 0 0 0 .32z" fill="#fff"/><path d="M5.82 2.23a.28.28 0 1 0 .18.36.28.28 0 0 0-.16-.37z" fill="#fff"/><path d="M6.35 1.48a.28.28 0 0 0-.35.44.28.28 0 0 0 .34-.44z" fill="#fff"/><path d="M6.29 6.12a.28.28 0 1 0 0-.37.28.28 0 0 0 0 .37z" fill="#fff"/><path d="M3.55 11.53a.23.23 0 1 0 0 .32.23.23 0 0 0 0-.32z" fill="#fff"/><path d="M4 10.77a.23.23 0 1 0 0 .32.23.23 0 0 0 0-.32z" fill="#fff"/></g></g></g></g></svg>