<svg xmlns="http://www.w3.org/2000/svg" viewBox="0 -7.539999961853027 82.91580963134766 83.82878875732422"><title>Depositphotos_69392355_10</title><g data-name="Layer 2"><g data-name="Layer 1"><path fill="#7d0000" d="M0 6.22h37.92v56.52H0z"/><path fill="#bd0d0d" d="M37.92 6.22h37.92v56.52H37.92z"/><path d="M2.2 57.93c11.91 10.6 23.82-10.6 35.73 0v-53C26-5.67 14.1 15.53 2.2 4.93z" fill="#f58b11"/><path d="M73.65 57.93c-11.91 10.6-23.82-10.6-35.73 0v-53c11.91-10.6 23.82 10.6 35.73 0z" fill="#ffb521"/><path d="M2.2 56.06c11.91 10.6 23.82-10.6 35.73 0v-53C26-7.54 14.1 13.66 2.2 3.06z" fill="#ffb521"/><path d="M73.65 56.06c-11.91 10.6-23.82-10.6-35.73 0v-53c11.91-10.6 23.82 10.6 35.73 0z" fill="#ffcc3b"/><path d="M33.66 10.25C25 5.09 16.3 16.68 7.62 11.63q0-1-.1-2c8.68 5.17 17.36-6.42 26-1.38q.09 1.01.14 2z" fill="#3d160e"/><path d="M33.66 14.65C25 9.48 16.3 21.07 7.62 16q0-1-.1-2c8.68 5.17 17.36-6.42 26-1.38q.09 1.04.14 2.03z" fill="#3d160e"/><path d="M33.66 19c-8.68-5.17-17.36 6.42-26 1.38q0-1-.1-2c8.68 5.17 17.36-6.42 26-1.38l.1 2z" fill="#3d160e"/><path d="M33.66 23.43c-8.68-5.17-17.36 6.42-26 1.38q0-1-.1-2c8.68 5.17 17.36-6.42 26-1.38l.1 2z" fill="#3d160e"/><path d="M33.66 27.82C25 22.65 16.3 34.24 7.62 29.2q0-1-.1-2c8.68 5.17 17.36-6.42 26-1.38q.09 1.01.14 2z" fill="#3d160e"/><path d="M33.66 32.21C25 27 16.3 38.63 7.62 33.59q0-1-.1-2c8.68 5.17 17.36-6.42 26-1.38q.09 1.01.14 2z" fill="#3d160e"/><path d="M33.66 36.6C25 31.44 16.3 43 7.62 38q0-1-.1-2c8.68 5.17 17.36-6.42 26-1.38q.09.99.14 1.98z" fill="#3d160e"/><path d="M33.66 41c-8.68-5.17-17.36 6.42-26 1.38q0-1-.1-2c8.64 5.18 17.32-6.38 26-1.38.04.68.07 1.34.1 2z" fill="#3d160e"/><path d="M33.66 45.39c-8.68-5.17-17.36 6.42-26 1.38q0-1-.1-2c8.68 5.17 17.36-6.42 26-1.38l.1 2z" fill="#3d160e"/><path d="M33.66 49.78C25 44.61 16.3 56.2 7.62 51.16q0-1-.1-2c8.68 5.17 17.36-6.42 26-1.38q.09 1.01.14 2z" fill="#3d160e"/><path d="M42.18 10.25c8.68-5.17 17.36 6.42 26 1.38 0-.66.07-1.32.1-2-8.68 5.17-17.36-6.42-26-1.38l-.1 2z" fill="#5b271c"/><path d="M42.18 14.65c8.68-5.17 17.36 6.42 26 1.38 0-.66.07-1.32.1-2-8.68 5.17-17.36-6.42-26-1.38l-.1 2z" fill="#5b271c"/><path d="M42.18 19c8.68-5.17 17.36 6.42 26 1.38 0-.66.07-1.32.1-2-8.64 5.22-17.28-6.38-26-1.32q-.05.94-.1 1.94z" fill="#5b271c"/><path d="M42.18 23.43c8.68-5.17 17.36 6.42 26 1.38 0-.66.07-1.32.1-2-8.64 5.19-17.28-6.4-26-1.36l-.1 1.98z" fill="#5b271c"/><path d="M42.18 27.82c8.68-5.17 17.36 6.42 26 1.38 0-.66.07-1.32.1-2-8.68 5.17-17.36-6.42-26-1.38l-.1 2z" fill="#5b271c"/><path d="M42.18 32.21c8.68-5.17 17.36 6.42 26 1.38 0-.66.07-1.32.1-2-8.68 5.17-17.36-6.42-26-1.38l-.1 2z" fill="#5b271c"/><path d="M42.18 36.6c8.68-5.17 17.36 6.42 26 1.38 0-.66.07-1.32.1-2-8.68 5.17-17.36-6.42-26-1.38l-.1 2z" fill="#5b271c"/><path d="M42.18 41c8.68-5.17 17.36 6.42 26 1.38 0-.66.07-1.32.1-2C59.64 45.56 51 34 42.28 39c-.04.68-.07 1.34-.1 2z" fill="#5b271c"/><path d="M42.18 45.39c8.68-5.17 17.36 6.42 26 1.38 0-.66.07-1.32.1-2-8.64 5.23-17.28-6.4-26-1.36l-.1 1.98z" fill="#5b271c"/><path d="M42.18 49.78c8.68-5.17 17.36 6.42 26 1.38 0-.66.07-1.32.1-2-8.68 5.17-17.36-6.42-26-1.38l-.1 2z" fill="#5b271c"/><path d="M34.87 63.33a2.08 2.08 0 0 1 .54 3 2.06 2.06 0 0 1-3.07.4 2.26 2.26 0 0 1-.34-2.89 2.21 2.21 0 0 1 2.87-.51z" fill="#218fde"/><path d="M33.53 64.57a.76.76 0 1 1-.92 1.21.76.76 0 1 1 .92-1.21z" fill="#38b6ff"/><path d="M36.91 59.58a2.13 2.13 0 1 1-2 3.75 2.13 2.13 0 0 1 2-3.75z" fill="#218fde"/><path d="M35.73 61a.76.76 0 1 1-.73 1.31.76.76 0 1 1 .73-1.31z" fill="#38b6ff"/><path d="M38.54 55.63a2.14 2.14 0 1 1-1.63 3.94 2.13 2.13 0 0 1 1.63-3.94z" fill="#218fde"/><path d="M37.51 57.15a.76.76 0 1 1-.6 1.41.76.76 0 1 1 .6-1.41z" fill="#38b6ff"/><path d="M39.79 51.56a2.13 2.13 0 1 1-1.25 4.08 2.13 2.13 0 0 1 1.25-4.08z" fill="#218fde"/><path d="M38.9 53.16a.76.76 0 1 1-.46 1.46.76.76 0 1 1 .46-1.46z" fill="#38b6ff"/><path d="M40.7 47.38a2.14 2.14 0 1 1-.91 4.17 2.14 2.14 0 0 1 .91-4.17z" fill="#218fde"/><path d="M39.94 49.05a.77.77 0 1 1-.34 1.49.77.77 0 1 1 .34-1.49z" fill="#38b6ff"/><path d="M41.51 43.19a2.21 2.21 0 0 1 1.65 2.47 2 2 0 0 1-.3.74 2.25 2.25 0 0 1-.56.61 2.07 2.07 0 0 1-1.6.37 2.21 2.21 0 0 1-1.39-.86 2 2 0 0 1-.31-.72 2.25 2.25 0 0 1 0-.9 2.08 2.08 0 0 1 2.51-1.71z" fill="#218fde"/><path d="M40.7 44.86a.79.79 0 0 1 .63.9.78.78 0 0 1-.89.64.78.78 0 1 1 .26-1.54z" fill="#38b6ff"/><path d="M42.9 39.16a2.13 2.13 0 0 1-1.39 4 2.13 2.13 0 1 1 1.39-4z" fill="#218fde"/><path d="M41.83 40.68a.78.78 0 0 1-.49 1.49.78.78 0 0 1 .49-1.49z" fill="#38b6ff"/><path d="M45 35.43a2.13 2.13 0 0 1-2.06 3.73A2.13 2.13 0 1 1 45 35.43z" fill="#218fde"/><path d="M43.64 36.74a.79.79 0 0 1-.74 1.39.79.79 0 1 1 .74-1.39z" fill="#38b6ff"/><path d="M47.72 32.18A2.13 2.13 0 0 1 45 35.43a2.13 2.13 0 1 1 2.76-3.25z" fill="#218fde"/><path d="M46.16 33.19a.79.79 0 0 1-1 1.22.79.79 0 0 1 1-1.22z" fill="#38b6ff"/><path d="M51.11 29.59a2.13 2.13 0 0 1-3.39 2.59 2.13 2.13 0 1 1 3.39-2.59z" fill="#218fde"/><path d="M49.36 30.24a.79.79 0 0 1-1.23 1 .79.79 0 1 1 1.23-1z" fill="#38b6ff"/><path d="M55 27.84a2.13 2.13 0 0 1-3.88 1.76A2.13 2.13 0 1 1 55 27.84z" fill="#218fde"/><path d="M53.14 28.07a.79.79 0 0 1-1.43.68.79.79 0 0 1 1.43-.68z" fill="#38b6ff"/><path d="M59.17 27a2.13 2.13 0 0 1-4.18.81 2.13 2.13 0 1 1 4.18-.81z" fill="#218fde"/><path d="M57.32 26.83a.79.79 0 0 1-1.54.33.79.79 0 1 1 1.54-.33z" fill="#38b6ff"/><path d="M63.42 27.23a2.13 2.13 0 0 1-4.25-.2 2.13 2.13 0 1 1 4.25.2z" fill="#218fde"/><path d="M61.67 26.6a.79.79 0 0 1-1.58 0 .79.79 0 1 1 1.58 0z" fill="#38b6ff"/><path d="M67.51 28.42a2.13 2.13 0 0 1-4.09-1.19 2.13 2.13 0 1 1 4.09 1.19z" fill="#218fde"/><path d="M66 27.39a.79.79 0 0 1-1.53-.4.79.79 0 1 1 1.53.4z" fill="#38b6ff"/><path d="M71.22 30.51a2.13 2.13 0 0 1-3.71-2.09 2.13 2.13 0 1 1 3.71 2.09z" fill="#218fde"/><path d="M69.95 29.16a.79.79 0 0 1-1.39-.74.79.79 0 0 1 1.39.74z" fill="#38b6ff"/><path d="M74.39 33.36a2.13 2.13 0 0 1-3.17-2.85 2.13 2.13 0 1 1 3.17 2.85z" fill="#218fde"/><path d="M73.43 31.77a.79.79 0 0 1-1.2-1 .79.79 0 0 1 1.2 1z" fill="#38b6ff"/><path d="M76.94 36.78a2.13 2.13 0 0 1-2.54-3.42 2.13 2.13 0 1 1 2.54 3.42z" fill="#218fde"/><path d="M76.3 35a.79.79 0 0 1-1-1.25.79.79 0 1 1 1 1.25z" fill="#38b6ff"/><path d="M78.84 40.6a2.13 2.13 0 0 1-1.91-3.82 2.13 2.13 0 1 1 1.91 3.82z" fill="#218fde"/><path d="M78.51 38.77a.79.79 0 0 1-.72-1.39.78.78 0 1 1 .72 1.39z" fill="#38b6ff"/><path d="M80.15 44.66a2.13 2.13 0 0 1-1.31-4.06 2.13 2.13 0 1 1 1.31 4.06z" fill="#218fde"/><path d="M80.08 42.81a.78.78 0 0 1-.5-1.48.78.78 0 1 1 .5 1.48z" fill="#38b6ff"/><path d="M80.78 48.87a2.29 2.29 0 0 1-2.3-1.79 2.23 2.23 0 0 1 1.67-2.42 2.07 2.07 0 0 1 2.55 1.76 2 2 0 0 1-1.92 2.45z" fill="#218fde"/><path d="M81.06 47a.79.79 0 0 1-.28-1.55.79.79 0 1 1 .28 1.55z" fill="#38b6ff"/><path d="M80.15 53.07a2.13 2.13 0 0 1 .63-4.2 2 2 0 0 1 2 2.44 2.24 2.24 0 0 1-1 1.57 1.87 1.87 0 0 1-1.63.19z" fill="#218fde"/><path d="M81 51.41a.8.8 0 0 1 .18-1.58.8.8 0 0 1-.18 1.58z" fill="#38b6ff"/><path d="M78.14 56.81a2.13 2.13 0 0 1 2-3.74 1.89 1.89 0 0 1 1.2 1.14 2.25 2.25 0 0 1-.16 1.79 2 2 0 0 1-3.04.81z" fill="#218fde"/><path d="M79.5 55.54a.8.8 0 0 1 .71-1.43.8.8 0 1 1-.71 1.43z" fill="#38b6ff"/><path d="M75.12 59.81a2.26 2.26 0 0 1 .1-2.93 2.29 2.29 0 0 1 2.92-.07 2.13 2.13 0 1 1-3 3z" fill="#218fde"/><path d="M76.77 59a.79.79 0 0 1 1.1-1.14.79.79 0 1 1-1.1 1.14z" fill="#38b6ff"/><path d="M71.54 62.13a2.21 2.21 0 0 1 .68-2.88 2.23 2.23 0 0 1 2.9.57 2.13 2.13 0 1 1-3.58 2.32z" fill="#218fde"/><path d="M73.31 61.6a.79.79 0 0 1 1.3-.87.78.78 0 1 1-1.3.87z" fill="#38b6ff"/><path d="M67.66 63.92a2.14 2.14 0 0 1 3.88-1.79 2.14 2.14 0 1 1-3.88 1.79z" fill="#218fde"/><path d="M69.49 63.61a.78.78 0 0 1 1.41-.67.78.78 0 1 1-1.41.67z" fill="#38b6ff"/><path d="M63.62 65.3a2.13 2.13 0 0 1 4-1.39 2.13 2.13 0 1 1-4 1.39z" fill="#218fde"/><path d="M65.47 65.17a.78.78 0 0 1 1.47-.52.78.78 0 1 1-1.47.52z" fill="#38b6ff"/><path d="M59.49 66.38a2.13 2.13 0 0 1 4.13-1.08 2.13 2.13 0 1 1-4.13 1.08z" fill="#218fde"/><circle cx="62.09" cy="66.18" r=".78" transform="rotate(-15 61.542 65.682)" fill="#38b6ff"/><path d="M55.31 67.21a2.13 2.13 0 0 1 4.19-.83 2.13 2.13 0 1 1-4.19.83z" fill="#218fde"/><path d="M57.15 67.31a.78.78 0 0 1 1.52-.31.78.78 0 1 1-1.52.31z" fill="#38b6ff"/><path d="M51.08 67.84a2.14 2.14 0 0 1 4.22-.62 2.14 2.14 0 1 1-4.22.62z" fill="#218fde"/><circle cx="53.69" cy="67.91" r=".78" transform="rotate(-8.68 53.684 67.95)" fill="#38b6ff"/><path d="M46.84 68.28a2.13 2.13 0 0 1 4.25-.44 2.14 2.14 0 1 1-4.25.44z" fill="#218fde"/><circle cx="49.43" cy="68.46" r=".78" transform="rotate(-6.19 49.441 68.428)" fill="#38b6ff"/><path d="M42.58 68.54a2.13 2.13 0 0 1 4.26-.27 2.13 2.13 0 1 1-4.26.27z" fill="#218fde"/><circle cx="45.16" cy="68.83" r=".78" transform="rotate(-3.8 45.243 68.948)" fill="#38b6ff"/><path d="M38.31 68.62a2.13 2.13 0 0 1 4.27-.08 2.13 2.13 0 1 1-4.27.08z" fill="#218fde"/><circle cx="40.88" cy="69.03" r=".78" transform="rotate(-1.35 40.78 69.242)" fill="#38b6ff"/><path d="M34 68.4a2.22 2.22 0 0 1 2.22-2 2.17 2.17 0 0 1 2 2.19 2.11 2.11 0 0 1-2.23 2.09A2.07 2.07 0 0 1 34 68.4z" fill="#218fde"/><path d="M35.81 69a.78.78 0 0 1 1.55.06.78.78 0 1 1-1.55-.06z" fill="#38b6ff"/><ellipse cx="31.75" cy="68.62" rx="3.43" ry="1.3" transform="rotate(-28.84 31.759 68.618)" fill="#0e6eb3"/><ellipse cx="25.84" cy="71.95" rx="4.19" ry=".28" transform="rotate(-28.8 25.841 71.959)" fill="#0e6eb3"/><ellipse cx="26.24" cy="72.56" rx="4.19" ry=".28" transform="rotate(-38.8 26.253 72.555)" fill="#0e6eb3"/><ellipse cx="26.9" cy="72.91" rx="3.95" ry=".26" transform="rotate(-48.9 26.912 72.908)" fill="#0e6eb3"/><ellipse cx="27.62" cy="73.05" rx="3.64" ry=".24" transform="rotate(-58.69 27.626 73.048)" fill="#0e6eb3"/><path d="M28.46 72.82a11.88 11.88 0 0 1-1.3 2.79 11.74 11.74 0 0 1 .92-2.94 12.18 12.18 0 0 1 1.3-2.79 11.71 11.71 0 0 1-.92 2.94z" fill="#0e6eb3"/><ellipse cx="25.84" cy="71.95" rx="4.19" ry=".28" transform="rotate(-28.58 25.838 71.968)" fill="#0e6eb3"/><ellipse cx="25.54" cy="71.28" rx="4.19" ry=".28" transform="rotate(-18.83 25.545 71.282)" fill="#0e6eb3"/><ellipse cx="25.6" cy="70.54" rx="3.95" ry=".26" transform="rotate(-8.82 25.6 70.584)" fill="#0e6eb3"/><ellipse cx="25.87" cy="69.86" rx=".24" ry="3.64" transform="rotate(-88.6 25.868 69.857)" fill="#0e6eb3"/><ellipse cx="26.47" cy="69.47" rx=".2" ry="3.07" transform="rotate(-79.01 26.46 69.47)" fill="#0e6eb3"/><circle cx="29.04" cy="70.17" r="1.58" transform="rotate(-28.79 29.043 70.162)" fill="#218fde"/><circle cx="28.52" cy="70.02" r=".43" transform="rotate(-28.88 28.535 70.022)" fill="#38b6ff"/></g></g></svg>