<svg xmlns="http://www.w3.org/2000/svg" viewBox="0 -0.8299999237060547 108.65999603271484 102.68000793457031"><title>Depositphotos_117541712_12</title><g data-name="Layer 2"><g data-name="Layer 1"><g data-name="Layer 2"><g data-name="Group"><g data-name="Group 2" fill="#00a396"><path data-name="Path" d="M37.98 51.5h7.45v5.63h-7.45z"/><path data-name="Path 2" d="M37.98 40.54h7.45v5.95h-7.45z"/><path data-name="Path 3" d="M63.2 51.5h7.45v5.63H63.2z"/></g><g data-name="Group 3" fill="#faab64"><path data-name="Path 4" d="M.7 35.48c4.49 2.16 16 7.69 23.47 11.19a26.66 26.66 0 0 1 1.61-2.27C18.29 40.9 5.42 34.71 1 32.6c-.05.92-.17 1.91-.3 2.88z"/><path data-name="Path 5" d="M107.61 32.73c-4.37 2.11-17.24 8.3-24.73 11.79.56.74 1.14 1.57 1.6 2.27 7.46-3.5 19-9 23.47-11.19-.11-.96-.23-1.95-.34-2.87z"/><path data-name="Path 6" d="M.43 37.68C.18 39.59 0 41.07 0 41.17c0 .28 1.21 1.1 5.44 3.22a116.51 116.51 0 0 0 12.39 5.06c1.94.64 4 2.1 5.24-1C15.93 45.12 5.24 40 .43 37.68z"/><path data-name="Path 7" d="M85.59 48.61c1.29 3.06 3.3 1.61 5.24 1a116.54 116.54 0 0 0 12.39-5.06c4.23-2.11 5.42-2.94 5.44-3.22 0-.1-.18-1.58-.43-3.49-4.81 2.29-15.5 7.41-22.64 10.77z"/></g><g data-name="Group 4"><path data-name="Compound Path" d="M27.51 42.61a7.82 7.82 0 0 1 .17 1.39 14.59 14.59 0 0 1-.33 4.81 62.08 62.08 0 0 0-2 14.54c-.1 7.36.87 15.87-.1 22.45 3.52.5 9.63 1.38 15.23 2.25 7 1.08 15.71.59 20.41.33l2.2-.11h1.83c3.65-.07 12.83-.27 18.6-1.27-.06-.38-.12-.76-.18-1.16-1-6.58 0-15.09-.1-22.45a62.09 62.09 0 0 0-2-14.54 23.16 23.16 0 0 1-.66-4.92 4.68 4.68 0 0 1 .07-.69V43c.08-.31.31-.28.62 0 7.78-3.62 22.35-10.64 26-12.39-.07-.71-.11-1.29-.11-1.62 0-1.93-3.17-15.74-3.17-15.74v-.14C102.81 3.24 89.83-.83 82.24.14A85.13 85.13 0 0 1 67 .31a4.67 4.67 0 0 0-3.59 1.32l-9.14 9-9.14-9A4.67 4.67 0 0 0 41.59.31 85.13 85.13 0 0 1 26.4.14C18.8-.83 5.83 3.24 4.57 13c0 0-3.17 13.81-3.17 15.74a10.21 10.21 0 0 1-.11 1.62c3.62 1.74 18.19 8.76 26 12.39a1.16 1.16 0 0 1 .22-.14zm30.68-7.1h17.47v5H63.2v6h12.46v15.63H58.19zm-25.19 0h17.44v26.63H33z" fill="#00a396"/><path data-name="Path 8" d="M65 92.19h-1.77l-2.12.11c-2.53.14-6.2.35-10.18.35a73.86 73.86 0 0 1-11-.65c-5.63-.88-11.78-1.76-15.27-2.25-.75 4.14-1.3 6.61-.32 8.12 1.26 1.94-1.26-.1 6.39 1.94s9.2 1.45 23.14 1.45h.92c13.94 0 15.49.58 23.14-1.45s5.13 0 6.39-1.94c.89-1.37.52-3.53-.12-7-5.13.88-12.31 1.13-19.2 1.32z" fill="#faab64"/></g></g></g></g></g></svg>