<svg xmlns="http://www.w3.org/2000/svg" viewBox="0 -0.9967293739318848 156.67999267578125 91.72673034667969"><title>Depositphotos_122774926_02</title><g data-name="Layer 2"><g data-name="Layer 1"><g data-name="Layer 2"><g data-name="Layer 2-2"><path d="M124.07 49.4c0 14.76-9.35 26.38-21.87 27 14.24 2.77 28.48 5 42.72 2.26a9 9 0 0 1 6.22-8.34V23.59c-3.44 1-6.22-1.57-6.22-5.33-14.24 2.7-28.48.51-42.72-2.26 12.52 5.72 21.87 18.73 21.87 33.4zm14-6.64a5.36 5.36 0 0 1 5.93 5.67c0 3.54-2.62 6.91-5.85 7.18s-5.85-2.61-5.85-6.14a6.62 6.62 0 0 1 5.8-6.7z" fill="#69bf6f"/><path d="M48.46 16.85h7.74a8.29 8.29 0 0 1 8.28 8.26v7.3h.63a10.62 10.62 0 0 1 3.4.56c2.59-11 10.72-19 21-19.49C77.34 11.11 65.16 9.29 53 10.63a10.53 10.53 0 0 1-4.54 6.22z" fill="#69bf6f"/><path d="M89.52 73.86c-.92-.42-1.83-.89-2.71-1.38l.29.92z" fill="#a0d39f"/><path d="M105.05 51.35v.2a1.18 1.18 0 0 0 0-.24.07.07 0 0 0 0 .04z" fill="#fdf196"/><path d="M86 28.68a11.61 11.61 0 0 0-.89 5.55 13.06 13.06 0 0 0 2.29 6.66 19.53 19.53 0 0 0 2.11 2.58 33.6 33.6 0 0 0 3 2.74l1.68 1.34 1.68 1.34q1 .85 2.39 2.13a8.71 8.71 0 0 1 1.37 1.73 4.86 4.86 0 0 1 .61 3.62A3 3 0 0 1 98.1 59q-2.67.7-5.55-1.73a7.82 7.82 0 0 1-2.29-3 1.74 1.74 0 0 0-1.26-.99 2.31 2.31 0 0 0-1.68 0 3.62 3.62 0 0 0-1.78 1 1.89 1.89 0 0 0-.84 1.64 3.34 3.34 0 0 0 .54 2.08 28.09 28.09 0 0 0 5 5.42 12 12 0 0 0 2.29 1.46 4.53 4.53 0 0 1 .83 3.23 3.34 3.34 0 0 0 .08 1.25 2.49 2.49 0 0 0 1 1.52A1.6 1.6 0 0 0 96 71a2 2 0 0 0 1.09-1.65 3.37 3.37 0 0 1 2.47-3.06 8.25 8.25 0 0 0 3.36-1.15c2.67-1.59 4-4.25 4.15-7.92v-.08a13.46 13.46 0 0 0-.74-5.53 14.13 14.13 0 0 0-3.24-5.25 25.94 25.94 0 0 0-3.09-2.82l-1.78-1.43-1.81-1.37q-1.27-1-2.14-1.83A11 11 0 0 1 93 37.47a5.05 5.05 0 0 1-1-3.65 2.38 2.38 0 0 1 2.29-2.45 4.38 4.38 0 0 1 3.46 1.51 8.54 8.54 0 0 1 1.66 2.34 5.54 5.54 0 0 1 .33.71 2.34 2.34 0 0 0 2.11 1.31 1.79 1.79 0 0 0 .84-.23c.63-.29 1.58-.75 2.85-1.39a1 1 0 0 0 .43-.54 1.52 1.52 0 0 0 .1-1.21v-.12a16.23 16.23 0 0 0-1.73-3.37 13.71 13.71 0 0 0-4-4.13q-.71-.45-1.45-.85a5 5 0 0 1-.36-2.48 9.57 9.57 0 0 0 0-1.71 2.3 2.3 0 0 0-.94-1.7 1.56 1.56 0 0 0-1.68-.22 2.1 2.1 0 0 0-1.2 2q0 .19-.13 2.07v.72a10.54 10.54 0 0 0-2 0 7.28 7.28 0 0 0-6.58 4.6zm19.08 22.86v-.2a1.18 1.18 0 0 1 0 .24z" fill="#fdf196"/><path d="M49.92 4.58a8.07 8.07 0 1 0 .67 2.08 7.82 7.82 0 0 0-.67-2.08z" fill="#fdc48e"/><path d="M52.92 34.34v-3.1h1.92v9a10.66 10.66 0 0 1 2.6-4.52l.38-.37a10.83 10.83 0 0 1 1.47-1.24 10.64 10.64 0 0 1 2.6-1.24v-7.76a5.69 5.69 0 0 0-5.68-5.68H29.35a5.69 5.69 0 0 0-5.68 5.68v8.62a10.49 10.49 0 0 1 4.44 14.93q1.29.47 2.62.86V31.24h2v18.87a43.78 43.78 0 0 0 20.2 0V34.34z" fill="#fdc48e"/><path d="M52.6 4.22a10.5 10.5 0 0 1 .4 6.41c12.18-1.34 24.36.51 36.54 2.86C79.26 14 71.13 22 68.54 33A10.66 10.66 0 0 1 72 51.25h.46c4.42 0 9 4.23 9.88 7.09l4.49 14.15a25.59 25.59 0 0 0 2.71 1.38l-2.42-.46L88.56 78l.74 2.33c22.46 4.32 44.92 10.4 67.38 1.39V8.37C122 22.28 87.29.21 52.6 4.22zm98.53 66.08a9 9 0 0 0-6.22 8.34c-14.24 2.7-28.48.51-42.72-2.26 12.53-.59 21.87-12.21 21.87-27S114.71 21.7 102.19 16c14.24 2.77 28.48 5 42.72 2.26 0 3.77 2.79 6.35 6.22 5.33zM85.24 58a3.34 3.34 0 0 1-.54-2.08 1.89 1.89 0 0 1 .84-1.64 3.62 3.62 0 0 1 1.78-1 2.31 2.31 0 0 1 1.68 0 1.74 1.74 0 0 1 1.25.94 7.82 7.82 0 0 0 2.29 3q2.88 2.42 5.55 1.73a3 3 0 0 0 2.14-2.62 4.86 4.86 0 0 0-.61-3.62A8.71 8.71 0 0 0 98.25 51q-1.38-1.28-2.39-2.13l-1.68-1.34-1.68-1.32a33.6 33.6 0 0 1-3-2.74 19.53 19.53 0 0 1-2.11-2.58 13.06 13.06 0 0 1-2.29-6.66 11.61 11.61 0 0 1 .9-5.55A7.28 7.28 0 0 1 92.47 24a10.54 10.54 0 0 1 2 0v-.7q.1-1.88.13-2.07a2.1 2.1 0 0 1 1.2-2 1.56 1.56 0 0 1 1.68.22 2.3 2.3 0 0 1 .94 1.7 9.57 9.57 0 0 1 0 1.71 5 5 0 0 0 .36 2.48q.74.4 1.45.85a13.71 13.71 0 0 1 4 4.13 16.23 16.23 0 0 1 1.77 3.44v.12a1.52 1.52 0 0 1-.1 1.21 1 1 0 0 1-.43.54c-1.27.64-2.22 1.1-2.85 1.39a1.79 1.79 0 0 1-.84.23 2.34 2.34 0 0 1-2.11-1.31 5.54 5.54 0 0 0-.33-.71 8.54 8.54 0 0 0-1.66-2.34 4.38 4.38 0 0 0-3.46-1.51 2.38 2.38 0 0 0-2.29 2.45 5.05 5.05 0 0 0 1 3.65A11 11 0 0 0 94.25 39q.87.82 2.14 1.83l1.86 1.31 1.81 1.4a25.94 25.94 0 0 1 3.08 2.79 14.13 14.13 0 0 1 3.24 5.25 13.46 13.46 0 0 1 .74 5.53v.08c-.1 3.67-1.49 6.33-4.15 7.92a8.25 8.25 0 0 1-3.31 1.08 3.37 3.37 0 0 0-2.47 3.06 2 2 0 0 1-1.09 1.65 1.6 1.6 0 0 1-1.58-.09 2.49 2.49 0 0 1-1-1.52 3.34 3.34 0 0 1-.16-1.15 4.53 4.53 0 0 0-.79-3.21 12 12 0 0 1-2.29-1.46A28.09 28.09 0 0 1 85.24 58z" fill="#a0d39f"/><path d="M138.1 42.77a6.62 6.62 0 0 0-5.85 6.71c0 3.54 2.62 6.42 5.85 6.14S144 52 144 48.43a5.36 5.36 0 0 0-5.9-5.66z" fill="#a0d39f"/><path d="M57.44 45.59a8 8 0 0 0 7 5.54h.63a8.07 8.07 0 0 0 0-16.15h-.63a8 8 0 0 0-2.6.64 8.1 8.1 0 0 0-2.52 1.74l-.08.08a8 8 0 0 0-1.86 8z" fill="#fdf196"/><path d="M85.65 77.41l-1.44-4.53-.81-2.56-3.56-11.21c-.54-1.71-4-5.28-7.4-5.28h-15a6.54 6.54 0 0 0-2.52.67 9.82 9.82 0 0 0-2 1.31 8.46 8.46 0 0 0-2.56 3.3l-.06.2-3.11 9.8-2.39 7.58-.8 2.42-.5 1.57a43.28 43.28 0 0 0 6.37 2.93l.4-1.26 1.49-4.7.72-2.28.44-1.26 1-3.22L55.48 66a4.63 4.63 0 0 0 1.37.48l-1.28 4.29-.09.3-1.18 4.04-.67 2.25-.71 2.38-1.3 4.37A43.69 43.69 0 0 0 78.36 84l-1.75-5.89-.68-2.28-1.32-4.44-1.47-4.93a4.57 4.57 0 0 0 1.56-.54l1.82 5.72 1.42 4.47.73 2.29 1.57 4.94a43.34 43.34 0 0 0 6.35-3l-.2-.63z" fill="#fdf196"/><path d="M23.67 36.76a7.89 7.89 0 1 0 0 12.93 8 8 0 0 0 2.6-3.07 7.8 7.8 0 0 0 0-6.8 8 8 0 0 0-2.6-3.06z" fill="#a0d39f"/><path d="M38.21 66.6v-6.25A5.67 5.67 0 0 0 36 55.86a5.75 5.75 0 0 0-.68-.45 5.64 5.64 0 0 0-2.6-.73h-27A5.69 5.69 0 0 0 0 60.34v21.48a43.22 43.22 0 0 0 7 2.69V66.46h2V85a43.79 43.79 0 0 0 20.2 0V66.46h1.92v18a43.24 43.24 0 0 0 7-2.73V66.6z" fill="#a0d39f"/></g></g></g></g></svg>