<svg xmlns="http://www.w3.org/2000/svg" viewBox="-0.11999988555908203 0.00011730194091796875 46.42001724243164 57.14988327026367"><title>Depositphotos_62900541_6_ic</title><g data-name="Layer 2"><g data-name="Layer 1" fill="#fff"><path d="M1.82 24.86h19.79c.9-2 1.72-3.78 2.59-5.51H1c-.55 0-1.12.46-1 1l.81 3.51c.13.54.46 1 1.01 1z"/><path d="M45.29 17.76l.58-3.11A1.92 1.92 0 0 0 44 12.54h-5.4a51.45 51.45 0 0 1-4.75 5.22z"/><path d="M1 17.76h24c.91-1.71 1.9-3.4 3.09-5.22H17.87c-4.6 0-2.5-1.2-1-5.84.25-.78.56-1.62 0-2.16L12.62.41a1.26 1.26 0 0 0-1.86 0L6.52 4.54c-.56.55-.25 1.38 0 2.16 1.47 4.57 3.63 5.84-1 5.84H2.3a1.91 1.91 0 0 0-1.91 2.11zM11.69 4.67a1.56 1.56 0 0 1 1.64 1.64A1.56 1.56 0 0 1 11.69 8a1.56 1.56 0 0 1-1.64-1.64 1.56 1.56 0 0 1 1.64-1.69z"/><path d="M6.31 37c2.45.14 5.41.32 8.37-1.36a8.86 8.86 0 0 0 2.55-2.26 18.94 18.94 0 0 0 2.31-4l1.24-2.74.13-.28H2.57L4.52 37h1.79z"/><path d="M45.29 19.35h-13c-.37.39-.71.74-1 1.06a24 24 0 0 0-2.84 4.45h16.31a1.07 1.07 0 0 0 1-1l.54-3.51a1 1 0 0 0-1.01-1z"/><path d="M26.59 28.64c-2 4.4-3.72 9-3.89 10.45-.14 1.16-.3 2.44-.56 3.75h17c1 0 1.71-1 1.92-2.11l2.65-14.28H27.63c-.35.71-.7 1.44-1.04 2.19z"/><path d="M37.58 11.2C40 8 36 4.52 32.78 8.7c-6 8-7.77 12.52-11.8 21.42-1.55 3.42-3.31 5.68-5.52 6.94C8.55 41 2.26 36 .11 40.74c.19 11.81 18.84 16.41 21-1.85C21.46 36 26.8 23 30.1 19.35c1.9-2.08 6.12-6.35 7.48-8.15zM10.07 44.77c-2.72.33-6.21-.51-7.82-2.93-.78-1.17 1-1.57 1.46-1.47A20.55 20.55 0 0 0 18.12 38c.24 2.82-2.12 6.06-8.05 6.77z"/></g></g></svg>