<svg xmlns="http://www.w3.org/2000/svg" viewBox="0 0 88.85731506347656 109"><title>Depositphotos_88635752_07</title><g data-name="Layer 2"><g data-name="Layer 1"><g data-name="Layer 2"><g data-name="Icon Set"><path d="M87.42 29.42l-4.76-2.57a9.18 9.18 0 0 1-4.82-8.08v-8.38l6 3.85a7.88 7.88 0 0 1 3.61 6.62z" fill="#6bcff6"/><path fill="#f48729" d="M12.17 53.5h48.67v41H12.17z"/><path fill="#6bcff6" d="M24.67 16.5h23.67v10.11H24.67z"/><path d="M73 109H0v-1.5A14.52 14.52 0 0 1 14.5 93h44A14.52 14.52 0 0 1 73 107.5zm-69.9-3h66.8a11.52 11.52 0 0 0-11.4-10h-44a11.52 11.52 0 0 0-11.4 10z" fill="#fff"/><path d="M62.33 96H10.67V11.33A11.35 11.35 0 0 1 22 0h29a11.35 11.35 0 0 1 11.33 11.33zm-48.66-3h45.66V11.33A8.34 8.34 0 0 0 51 3H22a8.34 8.34 0 0 0-8.33 8.33z" fill="#fff"/><path d="M53.83 32.11H19.17V11h34.66zm-31.67-3h28.67V14H22.17z" fill="#fff"/><path fill="#fff" d="M19.17 37.88h3v3h-3z"/><path fill="#fff" d="M27.08 37.88h3v3h-3z"/><path fill="#fff" d="M35 37.88h3v3h-3z"/><path fill="#fff" d="M42.92 37.88h3v3h-3z"/><path fill="#fff" d="M50.83 37.88h3v3h-3z"/><path d="M79.46 84.25A9.47 9.47 0 0 1 70 74.79V36.25a7.38 7.38 0 0 0-7.37-7.37h-1.8v-3h1.79A10.39 10.39 0 0 1 73 36.25v38.54a6.46 6.46 0 0 0 12.92 0V21.16a7.38 7.38 0 0 0-3.45-6.27L68.45 6 70 3.46l14 8.87a10.37 10.37 0 0 1 4.85 8.8v53.66a9.47 9.47 0 0 1-9.39 9.46z" fill="#fff"/><path d="M86.7 30.74l-4.76-2.57a10.67 10.67 0 0 1-5.61-9.4v-8.38h3v8.38a7.67 7.67 0 0 0 4 6.76l4.76 2.57z" fill="#fff"/></g></g></g></g></svg>