<svg xmlns="http://www.w3.org/2000/svg" viewBox="0 0 56.47999572753906 50.31000518798828"><title>17651151_4_ic</title><g data-name="Layer 2"><g data-name="Layer 1"><g data-name="Layer 2"><g data-name="Layer 1-2" fill="#fff"><path d="M56.48 50.31H0V32h56.48zM1 49.31h54.48V33H1z"/><path d="M27.74 13.4h1v16.55h-1z"/><path d="M52.39 35.94h1v3.77h-1z"/><path d="M48.17 35.94h1v3.77h-1z"/><path d="M43.83 35.94h1v3.77h-1z"/><path d="M28.24 14.19a3.5 3.5 0 1 1 3.5-3.5 3.5 3.5 0 0 1-3.5 3.5zm0-6a2.5 2.5 0 1 0 2.5 2.5 2.5 2.5 0 0 0-2.5-2.5z"/><path d="M20.53 15.51a5.43 5.43 0 0 1-2.61-4.7 5.56 5.56 0 0 1 2.62-5l.47.88-.24-.44.24.44a4.58 4.58 0 0 0-2.09 4.07A4.43 4.43 0 0 0 21 14.64z"/><path d="M16.57 18.38a8.63 8.63 0 0 1-4.15-7.49A8.85 8.85 0 0 1 16.58 3l.47.88a7.87 7.87 0 0 0-3.63 7A7.63 7.63 0 0 0 17 17.49z"/><path d="M12.3 22.57a12.65 12.65 0 0 1-6.08-11C6.22 3.34 12.06.13 12.31 0l.47.88C12.55 1 7.22 4 7.22 11.59a11.86 11.86 0 0 0 5.56 10.1z"/><path d="M35.65 15.51l-.48-.88a4.43 4.43 0 0 0 2.09-3.82 4.61 4.61 0 0 0-2.09-4.07l.47-.88a5.56 5.56 0 0 1 2.62 5 5.43 5.43 0 0 1-2.61 4.65z"/><path d="M39.6 18.38l-.48-.88a7.63 7.63 0 0 0 3.63-6.61 8 8 0 0 0-3.63-7L39.6 3a8.85 8.85 0 0 1 4.16 7.9 8.63 8.63 0 0 1-4.16 7.48z"/><path d="M43.87 22.57l-.48-.88A11.86 11.86 0 0 0 49 11.59C49 4 43.62 1 43.4.88l.47-.88C44.12.13 50 3.34 50 11.59a12.65 12.65 0 0 1-6.13 10.98z"/></g></g></g></g></svg>