<svg data-name="Layer 1" xmlns="http://www.w3.org/2000/svg" viewBox="-21.332000732421875 -37.40800094604492 175.35276794433594 194.30799865722656"><defs><clipPath id="a"><rect x="19.63" y="1.24" width="31.45" height="47.47" rx="6.99" ry="6.99" transform="rotate(-9.8 35.34 25.003)" fill="#e6e6e6"/></clipPath></defs><title>2</title><rect x="19.63" y="1.24" width="31.45" height="47.47" rx="6.99" ry="6.99" transform="rotate(-9.8 35.34 25.003)" fill="#e6e6e6"/><g clip-path="url(#a)" fill="#b3b3b3"><path d="M-21.332-.457l2.89-2.407 74.367 89.26-2.889 2.406z"/><path d="M-14.79-5.915l2.889-2.407 74.383 89.246-2.888 2.407z"/><path d="M-8.227-11.372l2.889-2.407 74.368 89.26-2.89 2.406z"/><path d="M-1.673-16.822l2.888-2.407 74.368 89.26-2.888 2.406z"/><path d="M4.884-22.288l2.889-2.406 74.352 89.272-2.89 2.406z"/><path d="M11.44-27.752l2.89-2.406 74.35 89.272-2.889 2.406z"/><path d="M17.974-33.203l2.888-2.407 74.383 89.246-2.888 2.407z"/><path d="M39.137 89.301L79.254-19.733l3.529 1.298L42.666 90.6z"/><path d="M31.146 86.354L71.263-22.68l3.528 1.298L34.675 87.652z"/><path d="M23.135 83.403L63.252-25.63l3.528 1.299L26.664 84.702z"/><path d="M15.13 80.466L55.247-28.57l3.528 1.299L18.66 81.764z"/><path d="M7.129 77.515L47.246-31.52l3.528 1.298L10.658 78.813z"/><path d="M-.869 74.586L39.23-34.455l3.529 1.298L2.66 75.883z"/><path d="M-8.887 71.626L31.23-37.408l3.529 1.298L-5.358 72.925z"/></g><path d="M16.982 8.389l17.205-2.972a7 7 0 0 1 8.09 5.706l5.691 32.952a7 7 0 0 1-5.706 8.09l-17.206 2.971a7 7 0 0 1-8.089-5.706l-5.693-32.962a7 7 0 0 1 5.706-8.09z" fill="#e6e6e6"/><path d="M42.26 11.12l3.11 18a27.09 27.09 0 0 1-29.74 12.59l-4.36-25.24A7 7 0 0 1 17 8.39l17.21-3a7 7 0 0 1 8.05 5.73z" fill="#f2f2f2"/><path d="M18 15l-1.47.25-.28 1.36h-.28l.83-3.88h.16l2 3.38h-.28zm-1.42 0l1.29-.22-.72-1.22q-.09-.14-.22-.4a4.18 4.18 0 0 1-.07.45z" fill="#e83107"/><path d="M41.62 45.61l1.47-.25.28-1.36h.28l-.83 3.88h-.16l-2-3.38h.28zm1.41 0l-1.29.22.72 1.17c.06.09.13.23.22.4a3.91 3.91 0 0 1 .07-.45z" fill="#e83107"/><path d="M31.35 25.67a4.16 4.16 0 0 0-2.25 1.64 3.5 3.5 0 0 0-2.68-.79c-1.73.31-2.31 1.71-2 3.39.38 2.22 4.55 3.77 5.94 4.58 1-1.2 4.41-4.24 4.05-6.3-.3-1.69-1.34-2.82-3.06-2.52z" fill="#e83107"/><path d="M127.69 95.76H24.47V35.43a4.33 4.33 0 0 1 4.33-4.33h94.56a4.33 4.33 0 0 1 4.33 4.33z" fill="#2c3e50"/><path d="M123.44 39v48.82a4.33 4.33 0 0 1-4.33 4.33H33a4.33 4.33 0 0 1-4.33-4.33V39A4.34 4.34 0 0 1 33 34.71h86.07a4.34 4.34 0 0 1 4.37 4.29z" fill="#07aa9f"/><path fill="#475f72" d="M136.24 103.23H15.92l8.55-7.47h103.22l8.55 7.47z"/><path d="M132.77 106.74H19.39a3.47 3.47 0 0 1-3.47-3.47h120.32a3.47 3.47 0 0 1-3.47 3.47z" fill="#2c3e50"/><path d="M132.54 100.87H19.68l2.49-2.19c.75-.66 1.51-1.32 2.7-2.39h102.74c1.19 1.07 1.9 1.69 2.61 2.3zm-45.37.2H65c-.14.63-.22 1-.37 1.71h22.86c-.15-.78-.22-1.09-.33-1.71z" fill="#2c3e50"/><path d="M123.09 37.35h-94a4.33 4.33 0 0 1 4-2.63h86.07a4.32 4.32 0 0 1 3.93 2.63z" fill="#d1d3d4"/><path d="M123.44 87.57v.25a4.33 4.33 0 0 1-4.33 4.33H33a4.33 4.33 0 0 1-4.33-4.33v-.25z" fill="#d1d3d4"/><path d="M116.36 100.09l-12.87-2.85 1.73-2.76.69-3 .69-1.63.93-1a18.51 18.51 0 0 0 4.28-8.34l-.34-2.14 1.17-2.77 4.58 1-.11 3-1 1.63-.23 1.29a18.51 18.51 0 0 0 .2 7.43l.51 2.19-.09 2-.5 2.72z" fill="#f2f2f2"/><path d="M113.48 79.64l.57.57c-.69 3.1-1.58 6.88-3.7 9.24l-.93 1-.69 1.63-.69 3-1.73 2.76-1.54-.34 1.73-2.76.69-3 .69-1.63.93-1a23.41 23.41 0 0 0 4.67-9.47l-.27-1.29-.45.23 1.17-2.77 1.54.34-1.17 2.77z" fill="#fff"/><path fill="#b3b3b3" d="M116.81 98.08l-.45 2.01-12.87-2.85.45-2.01.82-.86 11.67 2.58.38 1.13z"/><path d="M117.28 93.77l-.08.36a1.3 1.3 0 0 1-1.54 1L106.23 93a1.29 1.29 0 0 1-1-1.55l.08-.36a1.19 1.19 0 0 1 .28-.55 1.27 1.27 0 0 1 1.26-.43l9.43 2.09a1.28 1.28 0 0 1 1 .93 1.26 1.26 0 0 1 0 .64z" fill="#b3b3b3"/><path d="M117.27 93.16l-11.67-2.59a1.27 1.27 0 0 1 1.26-.43l9.43 2.09a1.28 1.28 0 0 1 .98.93z" fill="#fff"/><path fill="#fff" d="M116.81 98.08l-12.87-2.85.82-.86 11.67 2.58.38 1.13z"/><path d="M117.7 81.53l-7.5-1.66a.66.66 0 0 1-.26-1.16l.08-.06 2-1.52 5.42 1.2 1 2.17.06.12a.65.65 0 0 1-.8.91z" fill="#b3b3b3"/><path d="M120.68 74.53a5.27 5.27 0 1 1 .12-1.34 5.35 5.35 0 0 1-.12 1.34z" fill="#b3b3b3"/><path fill="#fff" d="M118.38 80.5l-8.36-1.85 1.95-1.52 5.42 1.2.99 2.17z"/><path d="M120.8 73.19a9 9 0 0 1-8.81 3 8.72 8.72 0 0 1-1.14-.33 5.28 5.28 0 1 1 9.95-2.66z" fill="#f2f2f2"/><circle cx="115.09" cy="33.88" r="31" transform="rotate(-72.35 115.085 33.886)" fill="#f39f25"/><path d="M110.74 47.55a14.34 14.34 0 1 1 18-9.31 14.35 14.35 0 0 1-18 9.31zm7.91-24.85a11.74 11.74 0 1 0 7.63 14.74 11.75 11.75 0 0 0-7.63-14.74z" fill="#c65509"/><circle cx="115.05" cy="33.87" r="3.66" transform="rotate(-72.34 115.058 33.87)" fill="#c65509"/><path d="M107.08 59.34h-.09c-.82-.26-1.64-.56-2.42-.9l2.56-6c.58.25 1.18.47 1.78.66h.08l-1 3.14-.83 3.11z" fill="#e83107"/><path d="M109.55 60l1.36-6.37c.65.14 1.3.24 2 .32l-.73 6.48c-.91-.11-1.77-.25-2.63-.43z" fill="#e83107"/><path d="M102.22 57.27c-.76-.42-1.51-.88-2.23-1.37l3.69-5.37c.54.37 1.11.72 1.68 1z" fill="#e83107"/><path d="M114.75 60.58l.08-6.52c.66 0 1.33 0 2-.07l.56 6.49c-.89.08-1.77.11-2.64.1z" fill="#e83107"/><path d="M97.9 54.31c-.66-.56-1.31-1.16-1.92-1.78l4.67-4.53c.46.47.95.93 1.45 1.35z" fill="#e83107"/><path d="M120 60.13l-1.19-6.41c.64-.12 1.29-.27 1.92-.46l1.82 6.26c-.88.25-1.73.48-2.55.61z" fill="#e83107"/><path d="M94.25 50.57c-.54-.68-1.06-1.39-1.53-2.12l5.46-3.55c.36.55.75 1.09 1.16 1.6z" fill="#e83107"/><path d="M125 58.67l-2.42-6.05c.61-.24 1.22-.52 1.8-.82l3 5.79c-.79.41-1.59.76-2.38 1.08z" fill="#e83107"/><path d="M91.4 46.18c-.4-.77-.77-1.57-1.09-2.38l6.05-2.42c.24.61.52 1.21.83 1.8z" fill="#e83107"/><path d="M129.63 56.27l-3.55-5.47a22.6 22.6 0 0 0 1.61-1.16l4.06 5.1c-.68.54-1.39 1.06-2.12 1.53z" fill="#e83107"/><path d="M89.46 41.33c-.24-.84-.45-1.69-.61-2.55l6.4-1.2c.12.64.28 1.29.46 1.92z" fill="#e83107"/><path d="M133.71 53l-4.54-4.67c.47-.46.93-.95 1.35-1.45l5 4.21c-.58.67-1.18 1.31-1.81 1.91z" fill="#e83107"/><path d="M88.49 36.19c-.07-.86-.11-1.75-.1-2.62l6.52.08c0 .66 0 1.32.07 2z" fill="#e83107"/><path d="M137.09 49l-5.37-3.69c.37-.54.72-1.1 1-1.68l5.71 3.14c-.43.77-.85 1.52-1.34 2.23z" fill="#e83107"/><path d="M88.56 31c.1-.86.24-1.73.42-2.58l6.38 1.35c-.14.64-.24 1.3-.31 2z" fill="#e83107"/><path d="M139.61 44.43l-6-2.57c.26-.6.49-1.23.69-1.86v-.09l6.21 2V42c-.25.81-.51 1.63-.9 2.43z" fill="#e83107"/><path d="M95.85 27.82l-6.21-2c.27-.85.57-1.66.9-2.44l6 2.55c-.25.59-.48 1.2-.67 1.82z" fill="#e83107"/><path d="M134.84 38c.14-.65.24-1.31.31-2l6.48.71c-.09.86-.23 1.73-.41 2.58z" fill="#e83107"/><path d="M97.41 24.17L91.69 21c.42-.76.88-1.51 1.37-2.23l5.38 3.68c-.37.55-.72 1.14-1.03 1.72z" fill="#e83107"/><path d="M135.27 34.08c0-.66 0-1.32-.08-2l6.49-.58c.08.86.11 1.75.1 2.62z" fill="#e83107"/><path d="M99.64 20.91l-5-4.19c.56-.67 1.16-1.31 1.78-1.92l4.58 4.66c-.49.46-.94.95-1.36 1.45z" fill="#e83107"/><path d="M134.92 30.14a19.66 19.66 0 0 0-.46-1.92l6.25-1.84a26 26 0 0 1 .61 2.55z" fill="#e83107"/><path d="M102.46 18.15l-4.07-5.09c.68-.54 1.39-1.06 2.12-1.54l3.56 5.48c-.56.35-1.07.74-1.61 1.15z" fill="#e83107"/><path d="M133.8 26.35c-.25-.61-.53-1.22-.83-1.8l5.78-3c.4.77.77 1.57 1.1 2.38z" fill="#1a7f23"/><path d="M105.78 16l-3-5.78c.77-.4 1.57-.77 2.38-1.09l2.43 6c-.59.28-1.23.56-1.81.87z" fill="#e83107"/><path d="M132 22.84c-.36-.55-.75-1.09-1.16-1.6l5.08-4.08c.54.68 1.06 1.39 1.54 2.12z" fill="#e83107"/><path d="M109.45 14.52l-1.83-6.25a27.6 27.6 0 0 1 2.54-.61l1.21 6.4c-.65.12-1.29.27-1.92.46z" fill="#e83107"/><path d="M129.5 19.76c-.46-.47-.95-.92-1.45-1.34l4.19-5c.66.56 1.31 1.16 1.92 1.78z" fill="#e83107"/><path d="M113.33 13.78l-.57-6.49c.87-.08 1.75-.11 2.62-.1l-.07 6.52c-.66-.01-1.31.02-1.98.07z" fill="#e83107"/><path d="M126.47 17.22c-.54-.37-1.11-.72-1.69-1l3.12-5.72c.76.42 1.52.88 2.24 1.37z" fill="#e83107"/><path d="M117.28 13.83l.72-6.48c.86.1 1.73.23 2.58.41l-1.35 6.38c-.64-.14-1.3-.24-1.95-.31z" fill="#e83107"/><path d="M123 15.33c-.58-.25-1.19-.47-1.8-.67h-.07l2-6.21h.07c.8.26 1.6.55 2.37.88z" fill="#e83107"/><path d="M107 59.33l2-6.21c.64.2 1.28.37 1.91.51L109.54 60c-.84-.18-1.69-.41-2.54-.67z"/><path d="M104.66 58.45h-.12c-.79-.34-1.58-.72-2.33-1.14l3.14-5.71c.55.3 1.12.58 1.71.84l.15.07-2.73 5.92 1.36-2.94z"/><path d="M112.13 60.41l.72-6.48c.65.07 1.32.11 2 .12l-.09 6.52c-.89 0-1.76-.06-2.63-.16z"/><path d="M100 55.89c-.72-.49-1.42-1-2.08-1.58l4.19-5c.5.42 1 .83 1.57 1.2z"/><path d="M117.36 60.48L116.8 54c.65-.06 1.31-.15 2-.27l1.2 6.4c-.9.16-1.78.28-2.64.35z"/><path d="M96 52.52c-.6-.62-1.19-1.28-1.73-2l5.09-4.07c.41.52.85 1 1.31 1.48z"/><path d="M122.5 59.53l-1.81-6.26c.63-.18 1.26-.4 1.87-.64l2.44 6.05c-.84.32-1.67.6-2.5.85z"/><path d="M92.71 48.43a25.6 25.6 0 0 1-1.32-2.26l5.79-3c.3.58.64 1.16 1 1.71z"/><path d="M127.35 57.59l-3-5.79c.58-.3 1.16-.64 1.71-1l3.54 5.47c-.71.48-1.47.92-2.25 1.32z"/><path d="M90.31 43.79a27.7 27.7 0 0 1-.85-2.47l6.26-1.82c.18.63.4 1.26.65 1.87z"/><path d="M131.74 54.75l-4.06-5.1a19.22 19.22 0 0 0 1.48-1.31l4.55 4.66a24.9 24.9 0 0 1-1.97 1.75z"/><path d="M88.85 38.77c-.16-.86-.28-1.73-.35-2.59l6.5-.57c.06.65.15 1.31.27 2z"/><path d="M135.5 51.1l-5-4.2a19.29 19.29 0 0 0 1.2-1.57l5.38 3.67c-.49.73-1.03 1.44-1.58 2.1z"/><path d="M88.4 33.56c0-.87.06-1.75.16-2.61l6.48.72c-.07.65-.11 1.32-.12 2z"/><path d="M138.46 46.79l-5.71-3.14c.32-.58.61-1.17.87-1.78v-.06l6 2.54v.08q-.54 1.21-1.16 2.36z"/><path d="M89 28.36c.18-.85.41-1.71.67-2.53l6.21 2a19.44 19.44 0 0 0-.51 1.91z"/><path d="M134.34 39.93c.2-.62.37-1.27.5-1.91l6.38 1.34c-.18.85-.4 1.71-.67 2.53z"/><path d="M96.56 25.91l-6-2.51q.52-1.21 1.13-2.33l5.71 3.13c-.29.53-.58 1.11-.84 1.71z"/><path d="M135.15 36.07c.07-.65.11-1.32.12-2l6.52.06c0 .87-.06 1.75-.16 2.61z"/><path d="M98.45 22.48l-5.38-3.68c.49-.72 1-1.42 1.58-2.09l5 4.19c-.43.5-.83 1.03-1.2 1.58z"/><path d="M135.19 32.12c-.06-.65-.15-1.31-.27-2l6.4-1.21c.16.85.28 1.73.36 2.59z"/><path d="M101 19.45l-4.55-4.66c.62-.61 1.28-1.19 2-1.73l4.07 5.09c-.52.4-1.06.85-1.52 1.3z"/><path d="M134.46 28.23c-.18-.63-.4-1.26-.65-1.87l6-2.43c.32.81.61 1.64.86 2.47z"/><path d="M104.07 17l-3.55-5.46c.73-.47 1.49-.92 2.26-1.32l3 5.79c-.58.28-1.15.61-1.71.99z"/><path d="M133 24.56c-.3-.58-.64-1.16-1-1.71l5.46-3.56c.47.73.92 1.49 1.32 2.26z"/><path d="M107.58 15.16l-2.42-6a27.7 27.7 0 0 1 2.47-.85l1.82 6.26c-.62.13-1.25.35-1.87.59z"/><path d="M130.82 21.25c-.41-.51-.85-1-1.31-1.48l4.66-4.56a26.18 26.18 0 0 1 1.74 2z"/><path d="M111.38 14.05l-1.21-6.4c.86-.16 1.73-.28 2.6-.36l.57 6.49c-.65.06-1.34.15-1.96.27z"/><path d="M128.06 18.43c-.51-.42-1-.83-1.58-1.19l3.67-5.38c.72.49 1.42 1 2.09 1.58z"/><path d="M115.32 13.71l.07-6.52c.87 0 1.75.06 2.62.16l-.71 6.48c-.66-.07-1.3-.12-1.98-.12z"/><path d="M124.8 16.2c-.56-.31-1.14-.59-1.73-.84H123l2.6-6-1.3 3 1.31-3c.81.35 1.58.72 2.32 1.13z"/><path d="M119.24 14.14l1.35-6.38c.85.18 1.7.41 2.53.67l-2 6.21c-.59-.19-1.24-.36-1.88-.5z"/><circle cx="116.72" cy="28.65" r="2.13" transform="rotate(-72.34 116.72 28.652)" fill="#993e00"/><circle cx="122.59" cy="10.2" r="1.09" transform="rotate(-72.35 122.585 10.197)" fill="#993e00"/><path d="M120.13 24.75c-.61 1.92-2 3.21-3 2.88s-1.41-2.17-.8-4.09 6.4-13.76 6.4-13.76-1.98 13.05-2.6 14.97z" fill="#993e00"/><path d="M123.69 6.77a.72.72 0 0 0-.91.47l-.2 2.17.5.16 1.09-1.89a.72.72 0 0 0-.48-.91z" fill="#993e00"/><circle cx="120.42" cy="35.71" r="2.13" transform="rotate(-72.3 120.419 35.708)" fill="#993e00"/><circle cx="138.87" cy="41.6" r="1.09" transform="rotate(-72.29 138.875 41.601)" fill="#993e00"/><path d="M124.32 39.13c-1.92-.61-3.21-2-2.88-3s2.17-1.41 4.09-.79 13.76 6.41 13.76 6.41-13.05-2-14.97-2.62z" fill="#993e00"/><path d="M142.3 42.7a.72.72 0 0 0-.47-.91l-2.17-.2-.16.5 1.89 1.09a.72.72 0 0 0 .91-.48z" fill="#993e00"/><circle cx="113.36" cy="39.41" r="2.13" transform="rotate(-72.24 113.35 39.414)" fill="#993e00"/><circle cx="107.45" cy="57.86" r="1.09" transform="rotate(-72.25 107.448 57.855)" fill="#993e00"/><path d="M109.93 43.3c.62-1.92 2-3.21 3-2.87s1.4 2.17.79 4.09-6.43 13.75-6.43 13.75 2.03-13.04 2.64-14.97z" fill="#993e00"/><path d="M106.35 61.28a.72.72 0 0 0 .91-.47l.21-2.17-.5-.16-1.09 1.89a.72.72 0 0 0 .47.91z" fill="#993e00"/><circle cx="109.67" cy="32.34" r="2.13" transform="rotate(-72.19 109.665 32.343)" fill="#993e00"/><circle cx="91.23" cy="26.42" r="1.09" transform="rotate(-72.19 91.236 26.416)" fill="#993e00"/><path d="M105.78 28.91c1.92.62 3.21 2 2.87 3s-2.17 1.4-4.09.78-13.75-6.44-13.75-6.44 13.04 2.05 14.97 2.66z" fill="#993e00"/><path d="M87.81 25.31a.72.72 0 0 0 .47.91l2.17.21.16-.5-1.89-1.1a.72.72 0 0 0-.91.48z" fill="#993e00"/><path d="M63.07 80.09l-.18-.16c0 .17.09.35.13.52A22.83 22.83 0 0 1 48.42 107a15.85 15.85 0 0 0 14.65-26.91z" fill="#dd8007"/><path d="M63 80.44c0-.18-.08-.35-.13-.52a15.84 15.84 0 1 0-15 27l.52.14A22.83 22.83 0 0 0 63 80.44z" fill="#f39f25"/><circle cx="52.22" cy="91.63" r="8.03" transform="matrix(.98 -.22 .22 .98 -19.05 13.89)" fill="#fff"/><path d="M51.71 96.11l-2.31.53-1-4.46q-.18-.81-.3-1.49a5 5 0 0 1-.41.66l-.78 1-1.51-1.18 2.35-3 2-.47z"/><path d="M55.76 89.39a2.64 2.64 0 0 1 1.39 0 2.4 2.4 0 0 1 1.13.75 3.08 3.08 0 0 1 .65 1.35 2.82 2.82 0 0 1-.36 2.36 3.88 3.88 0 0 1-2.4 1.34 5.64 5.64 0 0 1-2.51.09l-.42-1.87a6.18 6.18 0 0 0 1.22.12 4.94 4.94 0 0 0 1.12-.1 1.58 1.58 0 0 0 .91-.49 1 1 0 0 0 .16-.87.93.93 0 0 0-.52-.68 1.73 1.73 0 0 0-1.11 0 3.88 3.88 0 0 0-1.11.47l-.91-.21-.7-4.52L57.08 86l.43 1.89-2.87.65.15 1.13a5.46 5.46 0 0 1 .62-.24z"/><path d="M86.25 74.38a10.42 10.42 0 0 1-12.94 7.07 10.65 10.65 0 0 1-1.52-.58A10.42 10.42 0 1 1 86.61 70.3a10.32 10.32 0 0 1-.36 4.08z" fill="#e6e6e6"/><path d="M68.13 64.89a10.45 10.45 0 0 0-2.25 7.7l14.55 4.26a14.47 14.47 0 0 0 4-7.17z" fill="#e83107"/><path d="M71.79 80.87a14.44 14.44 0 0 0 8.64-4l-14.55-4.28a10.43 10.43 0 0 0 5.91 8.28z" fill="#fff"/><path d="M84.85 66.44v-.92a10.42 10.42 0 0 0-16.68-.62l16.35 4.79a14.53 14.53 0 0 0 .33-3.25z" fill="#f2f2f2"/><path d="M77.23 68.09a3.49 3.49 0 1 1-4.46 3.74 3.51 3.51 0 0 1 .76-2.58 3.49 3.49 0 0 1 3.7-1.16z" fill="#e6e6e6"/><path d="M76.82 70.88a1.44 1.44 0 0 1 .65.39 1.31 1.31 0 0 1 .33.65 1.67 1.67 0 0 1-.05.81 1.53 1.53 0 0 1-.8 1 2.1 2.1 0 0 1-1.49 0 3.05 3.05 0 0 1-1.21-.63l.3-1a3.33 3.33 0 0 0 .54.38 2.72 2.72 0 0 0 .55.25.86.86 0 0 0 .56 0 .53.53 0 0 0 .31-.37.5.5 0 0 0-.06-.46.93.93 0 0 0-.52-.31 2.08 2.08 0 0 0-.65-.08l-.38-.35.88-2.32 2.56.77-.3 1-1.53-.46-.23.58.36.05z"/><path d="M86.61 70.3l-2.13-.62a14.47 14.47 0 0 1-4 7.17L84.35 78a10.44 10.44 0 0 0 2.25-7.7z" fill="#bc230a"/><path d="M88.62 141.35L78.71 130H66.88L57 141.35a5.36 5.36 0 0 1-9.39-3.76l1-23.28a5.36 5.36 0 0 1 7.35-4.74l9.5 3.8a23 23 0 0 0 14.74 0l9.5-3.8a5.36 5.36 0 0 1 7.3 4.74l1 23.28a5.36 5.36 0 0 1-9.38 3.76z" fill="#333"/><path d="M72.15 129.05l-19.36 22.17a6.77 6.77 0 0 1-11.86-4.75l1.28-29.4a6.77 6.77 0 0 1 9.28-6l18.07 7.23a6.77 6.77 0 0 1 2.59 10.75z"/><path d="M73.44 129.05l19.35 22.17a6.77 6.77 0 0 0 11.86-4.75l-1.28-29.4a6.77 6.77 0 0 0-9.28-6L76 118.31a6.77 6.77 0 0 0-2.56 10.74z"/><path d="M92.79 149.28l-.9-1c4.27 2.57 10.18-.19 11.07-5.46l.11 2.39a5.86 5.86 0 0 1-10.28 4.07z" fill="#fff" opacity=".29"/><path d="M43 149.28l-.9-1c6.82 4.25 13.55-4.86 16.27-6.39.03-.03-9.22 15.01-15.37 7.39z" fill="#fff" opacity=".29"/><path d="M47.72 118.5h45.51v18.38H47.72z"/><circle cx="92.21" cy="126.14" r="8.69" fill="#fff" opacity=".29"/><circle cx="92.21" cy="120.6" r="2.1"/><circle cx="92.21" cy="131.15" r="2.1"/><circle cx="97.48" cy="125.87" r="2.1"/><circle cx="86.93" cy="125.87" r="2.1"/><circle cx="66.62" cy="130.34" r="3.47" fill="#fff" opacity=".29"/><circle cx="66.62" cy="130.34" r="2.87"/><rect x="65.9" y="128.06" width="1.45" height="4.55" rx=".72" ry=".72" fill="#fff" opacity=".29"/><circle cx="78.97" cy="130.34" r="3.47" fill="#fff" opacity=".29"/><circle cx="78.97" cy="130.34" r="2.87"/><path d="M79 128.06a.72.72 0 0 1 .72.72v3.12a.72.72 0 0 1-.72.72.71.71 0 0 1-.71-.71v-3.12a.72.72 0 0 1 .71-.73z" fill="#fff" opacity=".29"/><circle cx="52.84" cy="124.77" r="8.48" fill="#fff" opacity=".29"/><circle cx="52.84" cy="124.77" r="7.02"/><path d="M58.4 124.75a1.75 1.75 0 0 1-1.75 1.76h-2v2a1.75 1.75 0 0 1-1.76 1.76 1.75 1.75 0 0 1-1.75-1.76v-2H49a1.75 1.75 0 0 1-1.75-1.76A1.75 1.75 0 0 1 49 123h2v-2a1.75 1.75 0 0 1 1.75-1.75 1.75 1.75 0 0 1 1.86 1.75v2h2a1.74 1.74 0 0 1 1.79 1.75z" fill="#fff" opacity=".29"/><circle cx="66.83" cy="122.7" r="2.2" fill="#fff" opacity=".29"/><circle cx="66.83" cy="122.7" r="1.82"/><circle cx="72.79" cy="122.7" r="2.2" fill="#fff" opacity=".29"/><circle cx="72.79" cy="122.7" r="1.82"/><circle cx="78.76" cy="122.7" r="2.2" fill="#fff" opacity=".29"/><circle cx="78.76" cy="122.7" r="1.82"/><path fill="#0f0f0f" d="M107.88 81.71L92.4 87.1l.04-4.05-1.22-3.61-2.73-17.6-.57-3.7 5.5-1.92 1.85 3.26 8.85 15.83 1.29 3.22 2.47 3.18z"/><path fill="#fff" d="M95.09 77.62l-2.31.51-3.26-18.88 1.44-.32 4.13 18.69z" opacity=".28"/><path fill="#0f0f0f" d="M107.05 79.29l.84 2.42L92.4 87.1l-.84-2.42.31-1.44 14.04-4.89 1.14.94z"/><path d="M104.73 74.42l.15.43a1.61 1.61 0 0 1-1 2.05l-11.35 4a1.61 1.61 0 0 1-2-1l-.15-.43a1.48 1.48 0 0 1-.06-.76 1.58 1.58 0 0 1 1.05-1.29l11.35-3.95a1.59 1.59 0 0 1 1.63.35 1.57 1.57 0 0 1 .38.6z" fill="#0f0f0f"/><path d="M86.946 59.584l8.132-2.83a1.47 1.47 0 0 1 1.871.905l.24.69a1.47 1.47 0 0 1-.905 1.871l-8.131 2.83a1.48 1.48 0 0 1-1.885-.91l-.24-.69a1.47 1.47 0 0 1 .905-1.872z" fill="#0f0f0f"/><path d="M97.58 56.27l.28.81a1.41 1.41 0 0 1-.86 1.79l-10.25 3.57a1.41 1.41 0 0 1-1.8-.87l-.28-.81a1.13 1.13 0 0 1-.07-.36 1.39 1.39 0 0 1 .95-1.4l10.24-3.6a1.39 1.39 0 0 1 1.62.55 1.07 1.07 0 0 1 .17.32z" fill="#0f0f0f"/><path fill="#0f0f0f" d="M84.005 55.595l10.917-3.8 1.21 3.476-10.918 3.8z"/><path fill="#0f0f0f" d="M83.413 53.919l2.795-.973 1.318 3.787-2.795.973z"/><path fill="#0f0f0f" d="M87.486 52.508l2.796-.973 1.317 3.788-2.795.972z"/><path fill="#0f0f0f" d="M91.54 51.094l2.796-.973 1.318 3.787-2.795.973z"/><path d="M97.41 55.94l-12.8 4.46a1.39 1.39 0 0 1 .94-1.4l10.24-3.6a1.39 1.39 0 0 1 1.62.54z" fill="#fff" opacity=".28"/><path d="M104.32 73.78l-14 4.89a1.58 1.58 0 0 1 1.05-1.29l11.35-3.95a1.59 1.59 0 0 1 1.6.35z" fill="#fff" opacity=".28"/><path fill="#fff" opacity=".28" d="M107.05 79.29l-15.49 5.39.31-1.44 14.04-4.89 1.14.94z"/><path fill="#063e82" d="M40.378 61.801l.024-3.1 23.95.189-.025 3.1z"/><path fill="#e6e6e6" d="M42.277 61.819l.024-3.1 1.45.01-.024 3.1z"/><path fill="#e6e6e6" d="M46.668 61.86l.025-3.1 1.45.01-.025 3.1z"/><path fill="#e6e6e6" d="M51.064 61.88l.024-3.1 1.45.01-.024 3.1z"/><path fill="#e6e6e6" d="M55.457 61.92l.025-3.1 1.45.012-.025 3.1z"/><path fill="#e6e6e6" d="M59.852 61.951l.025-3.1 1.45.012-.025 3.1z"/><path fill="#ff931e" d="M37.424 58.757l.025-3.1 23.95.189-.025 3.1z"/><path fill="#e6e6e6" d="M39.32 58.775l.025-3.1 1.45.011-.024 3.1z"/><path fill="#e6e6e6" d="M43.715 58.815l.025-3.1 1.45.012-.025 3.1z"/><path fill="#e6e6e6" d="M48.102 58.836l.023-3.1 1.45.011-.023 3.1z"/><path fill="#e6e6e6" d="M52.505 58.876l.024-3.1 1.45.011-.024 3.1z"/><path fill="#e6e6e6" d="M56.889 58.907l.024-3.1 1.45.01-.024 3.1z"/><path fill="#e83107" d="M39.148 55.613l.024-3.1 23.95.188-.025 3.1z"/><path fill="#e6e6e6" d="M41.041 55.63l.025-3.1 1.45.011-.025 3.1z"/><path fill="#e6e6e6" d="M45.441 55.661l.024-3.1 1.45.012-.024 3.1z"/><path fill="#e6e6e6" d="M49.833 55.701l.025-3.1 1.45.012-.025 3.1z"/><path fill="#e6e6e6" d="M54.219 55.732l.023-3.1 1.45.011-.023 3.1z"/><path fill="#e6e6e6" d="M58.612 55.763l.024-3.1 1.45.01-.024 3.1z"/><path fill="#2455a2" d="M42.615 52.488l.025-3.1 23.95.189-.025 3.1z"/><path fill="#e6e6e6" d="M44.514 52.497l.024-3.1 1.45.011-.024 3.1z"/><path fill="#e6e6e6" d="M48.908 52.527l.024-3.1 1.45.012-.024 3.1z"/><path fill="#e6e6e6" d="M53.302 52.568l.023-3.1 1.45.011-.023 3.1z"/><path fill="#e6e6e6" d="M57.695 52.607l.025-3.1 1.45.012-.025 3.1z"/><path fill="#e6e6e6" d="M62.09 52.636l.025-3.1 1.45.012-.025 3.1z"/><path fill="#39b54a" d="M39.189 49.303l.024-3.1 23.95.188-.025 3.1z"/><path fill="#e6e6e6" d="M41.098 49.313l.024-3.1 1.45.01-.024 3.1z"/><path fill="#e6e6e6" d="M45.482 49.353l.023-3.1 1.45.011-.023 3.1z"/><path fill="#e6e6e6" d="M49.882 49.38l.025-3.1 1.45.012-.025 3.1z"/><path fill="#e6e6e6" d="M54.268 49.41l.025-3.1 1.45.012-.025 3.1z"/><path fill="#e6e6e6" d="M58.663 49.452l.024-3.1 1.45.012-.024 3.1z"/><path fill="#f39f25" d="M41.356 46.159l.024-3.1 23.95.188-.025 3.1z"/><path fill="#e6e6e6" d="M43.25 46.174l.024-3.1 1.45.012-.025 3.1z"/><path fill="#e6e6e6" d="M47.638 46.209l.024-3.1 1.45.011-.024 3.1z"/><path fill="#e6e6e6" d="M52.041 46.247l.024-3.1 1.45.011-.024 3.1z"/><path fill="#e6e6e6" d="M56.426 46.27l.024-3.1 1.45.01-.024 3.1z"/><path fill="#e6e6e6" d="M60.82 46.31l.023-3.1 1.45.011-.024 3.1z"/><path fill="#063e82" d="M39.965 42.994l.024-3.1 23.95.188-.025 3.1z"/><path fill="#e6e6e6" d="M41.864 43.004l.024-3.1 1.45.011-.024 3.1z"/><path fill="#e6e6e6" d="M46.258 43.034l.024-3.1 1.45.012-.024 3.1z"/><path fill="#e6e6e6" d="M50.652 43.075l.023-3.1 1.45.011-.024 3.1z"/><path fill="#e6e6e6" d="M55.045 43.112l.024-3.1 1.45.012-.024 3.1z"/><path fill="#e6e6e6" d="M59.439 43.136l.024-3.1 1.45.01-.024 3.1z"/><path d="M43.18 57.72l-.18-.33a13.73 13.73 0 0 0-2-2.45 14.16 14.16 0 0 0-9.64-4h-.4a13.85 13.85 0 0 0-3.7.55A14 14 0 0 0 23.79 53l-.33.21a13.92 13.92 0 0 0-2.46 2 14.13 14.13 0 0 0-3.58 6.48 13.72 13.72 0 0 0-.42 3.18v.4a14 14 0 0 0 2.05 7.12l.21.34a13.82 13.82 0 0 0 2 2.46 14.16 14.16 0 0 0 9.64 4h.4a14 14 0 0 0 7.12-2.05l.34-.21a14 14 0 0 0 2.46-2 14.12 14.12 0 0 0 3.58-6.48 13.82 13.82 0 0 0 .41-3.16v-.4a14.12 14.12 0 0 0-2.05-7.13zm-9.67 15.63a8.63 8.63 0 1 1 5.91-10.69 8.64 8.64 0 0 1-5.91 10.69z" fill="#2455a2"/><path d="M28.5 56a9.47 9.47 0 1 0 11.71 6.48A9.48 9.48 0 0 0 28.5 56z" fill="#2455a2"/><path d="M33.84 74.51a9.84 9.84 0 1 1 6.73-12.18 9.85 9.85 0 0 1-6.73 12.18zm-5.23-18.19a9.09 9.09 0 1 0 11.25 6.22 9.1 9.1 0 0 0-11.25-6.22z" fill="#fff"/><path d="M33.62 73.73l-11.18-6.17 6.18-11.17 11.18 6.17zm-10.15-6.47l9.86 5.45 5.45-9.86-9.86-5.45z" fill="#fff"/><path d="M28.8 64.76a1.83 1.83 0 0 1 1.39.08 1.66 1.66 0 0 1 .81 1.08 1.84 1.84 0 0 1-.16 1.57 2.48 2.48 0 0 1-1.47 1 3.29 3.29 0 0 1-1.56.13l-.29-1a3.45 3.45 0 0 0 1.53-.06q1.06-.3.81-1.17t-1.33-.51a2.85 2.85 0 0 0-.43.17l-.36.2-.53-.11-.6-2.84 3-.85.28 1-2 .56.21 1.1.12-.06a2.66 2.66 0 0 1 .58-.29z" fill="#fff"/><path d="M35.18 63.74a4 4 0 0 1 .15 2.26 1.69 1.69 0 0 1-1.25 1.1 1.68 1.68 0 0 1-1.63-.3 3.91 3.91 0 0 1-1.08-2 4 4 0 0 1-.15-2.27 1.89 1.89 0 0 1 2.88-.79 3.91 3.91 0 0 1 1.08 2zm-2.67.77a4.42 4.42 0 0 0 .59 1.39.63.63 0 0 0 .71.27.63.63 0 0 0 .46-.61 6.06 6.06 0 0 0-.83-2.88.63.63 0 0 0-1.16.34 4.37 4.37 0 0 0 .23 1.49z" fill="#fff"/><path d="M38.45 77.12a14 14 0 0 1-7.12 2.05 4.94 4.94 0 0 1 7.12-2.05z" fill="#e6e6e6"/><path d="M30.91 50.95a4.94 4.94 0 0 1-7.12 2 14 14 0 0 1 3.43-1.5 13.85 13.85 0 0 1 3.69-.5z" fill="#e6e6e6"/><path d="M19.64 68.36a4.93 4.93 0 0 1-.58 4 14 14 0 0 1-2.06-7.1 4.94 4.94 0 0 1 2.64 3.1z" fill="#e6e6e6"/><path d="M44.68 61.15a13.9 13.9 0 0 1 .55 3.7 4.95 4.95 0 0 1-2.05-7.13 13.94 13.94 0 0 1 1.5 3.43z" fill="#e6e6e6"/><path d="M27.78 78.77a14.19 14.19 0 0 1-6.48-3.59 4.95 4.95 0 0 1 6.48 3.59z" fill="#e6e6e6"/><path d="M40.95 54.94a4.94 4.94 0 0 1-6.48-3.58 14.1 14.1 0 0 1 6.48 3.58z" fill="#e6e6e6"/><path d="M20.67 59.28a4.93 4.93 0 0 1-3.25 2.43A14.13 14.13 0 0 1 21 55.23a4.93 4.93 0 0 1-.33 4.05z" fill="#e6e6e6"/><path d="M44.83 68.41a14.12 14.12 0 0 1-3.58 6.48 4.94 4.94 0 0 1 3.58-6.48z" fill="#e6e6e6"/><path d="M82.7 14.12a8.29 8.29 0 0 1-6.21 10 8.45 8.45 0 0 1-1.28.19 8.3 8.3 0 1 1 7.49-10.19z" fill="#e6e6e6"/><path d="M66.43 14.61a8.32 8.32 0 0 0 1.44 6.22l11.76-2.73a11.51 11.51 0 0 0 0-6.55z" fill="#39b54a"/><path d="M75.21 24.27a11.49 11.49 0 0 0 4.42-6.16l-11.76 2.72a8.3 8.3 0 0 0 7.34 3.44z" fill="#fff"/><path d="M78.62 9.16c-.12-.22-.25-.43-.38-.63a8.29 8.29 0 0 0-11.81 6.08l13.21-3.06a11.55 11.55 0 0 0-1.02-2.39z" fill="#f2f2f2"/><path d="M74 13.28a2.78 2.78 0 1 1-1.63 4.33 2.8 2.8 0 0 1-.48-2.08A2.78 2.78 0 0 1 74 13.28z" fill="#e6e6e6"/><path d="M74.8 15.38a1.14 1.14 0 0 1 .6 0 1 1 0 0 1 .49.32 1.33 1.33 0 0 1 .28.58 1.21 1.21 0 0 1-.16 1 1.67 1.67 0 0 1-1 .58 2.42 2.42 0 0 1-1.08 0l-.18-.81a2.65 2.65 0 0 0 .53.06 2.18 2.18 0 0 0 .48 0 .69.69 0 0 0 .39-.21.42.42 0 0 0 .07-.38.4.4 0 0 0-.22-.29.74.74 0 0 0-.48 0 1.65 1.65 0 0 0-.48.2l-.4-.1-.29-2 2.08-.47.18.82-1.29.32.06.49.27-.1z"/><path d="M81.36 11.16l-1.72.4a11.51 11.51 0 0 1 0 6.55l3.17-.73a8.31 8.31 0 0 0-1.44-6.22z" fill="#0a9b17"/></svg>