<svg xmlns="http://www.w3.org/2000/svg" viewBox="-0.07000017166137695 0 48.568477630615234 43"><title>Depositphotos_38557437_21_ic</title><g data-name="Layer 2"><g data-name="Layer 1" fill="#fff"><path d="M40.56 20.34v3.25h-8.82v-3.32L17 20.23v3.35H8.25v-3.35h-8L.08 27.8v9.36A4.3 4.3 0 0 0 3.92 41H8.2v2H17v-2h14.74v2h8.81v-2h4a3.6 3.6 0 0 0 3.89-3.79l-.13-16.81z"/><path d="M.1 18.57c18.75-.09 29.56 0 48.19 0a64.55 64.55 0 0 0-.11-8.46c-.78-2.63-3.5-2.41-6.39-2.41H6.64c-2.87 0-5.5-.22-6.37 2.24-.34 1-.31 7.32-.17 8.64z"/><path d="M34.52 6.16V3.52A4 4 0 0 0 31 0H17.23a3.86 3.86 0 0 0-3.3 3.54v2.71h4.3V3.6h12v2.56z"/></g></g></svg>