<svg xmlns="http://www.w3.org/2000/svg" viewBox="-1.0900001525878906 -1.510000228881836 149.94000244140625 195.0299530029297"><title>Depositphotos_65424591_04</title><g data-name="Layer 2"><path d="M120.12 125.15c-.18-2.88.3-8.56-2.74-10.34-3.73-2.19-9.07-1-13.16-.85-5.93.17-11.85.19-17.78.11-11.36-.15-22.65-1.11-34-1.68-9.61-.48-19.37 0-28.17 4.26a.59.59 0 0 0 .09 1.05c-3.14 7-2.86 14.74-2.29 22.3a191.13 191.13 0 0 0 3.85 26.49c1.45 6.65 3.77 13.38 8.81 18.17 5.47 5.2 13.89 5.86 21 6.71a155.29 155.29 0 0 0 54.88-3.37c7.47-1.83 7.19-10.74 8-17a237.77 237.77 0 0 0 2-28.68c.06-5.67-.13-11.43-.49-17.17z" fill="#655ea5"/><path d="M118.79 116.25c-7.8 1.61-15.5 1.67-23.45 1.18-8.39-.52-16.79-.7-25.2-.74-15.44-.07-31.4-.73-46.53 2.94a29.12 29.12 0 0 0-1.06 3.75 328.7 328.7 0 0 0 17.53 49.75c.24.53.92.27 1.09-.14L58 132.56q3.58 11.69 7.71 23.2c1.54 4.27 3.15 8.52 4.8 12.74.88 2.25 1.56 5.71 4.32 6.24a.6.6 0 0 0 .67-.27A234.77 234.77 0 0 0 91.87 134a287.4 287.4 0 0 0 13.44 42.22.6.6 0 0 0 1.15 0 219.68 219.68 0 0 0 13.61-53c-.07-2.22-.16-5.11-1.28-6.97zm-77.61 27.21a34.75 34.75 0 0 0 .13 4.61c.13.75-1 1.07-1.15.32a36.94 36.94 0 0 1-.17-4.93c.01-.77 1.17-.77 1.19 0zM27.69 137c-.07-1.87-.09-3.73-.3-5.59-.09-.76 1.11-.76 1.19 0 .21 1.86.23 3.72.3 5.59.04.82-1.16.82-1.19 0zm2.91 10c-.2-2-.1-3.93-.3-5.89-.08-.76 1.12-.76 1.19 0 .2 2 .1 3.93.3 5.89.08.72-1.11.72-1.19 0zm.75-8.72a35.76 35.76 0 0 1-.15-5.44c0-.77 1.22-.77 1.19 0a35.77 35.77 0 0 0 .15 5.44c.09.72-1.11.72-1.19-.04zm3.43 4.17a48.59 48.59 0 0 0 .2 5.36c.11.75-1 1.08-1.15.32a51.33 51.33 0 0 1-.24-5.67c-.03-.81 1.16-.81 1.18-.05zm-.52 13.11c-.1-1.5-.5-3-.6-4.47-.05-.77 1.14-.76 1.19 0 .1 1.5.5 3 .6 4.47.04.74-1.15.73-1.2-.03zm.75-16.1a47.35 47.35 0 0 1-.22-5.44A.6.6 0 0 1 36 134a47.35 47.35 0 0 0 .22 5.44c.06.76-1.14.75-1.22-.01zm2 3.28c0-.76 1.24-.77 1.19 0-.1 1.76-.55 3.54-.1 5.28a.6.6 0 0 1-1.15.32c-.48-1.89-.05-3.75.05-5.63zm.32 21.17c-.22-1.21-.32-2.44-.47-3.66-.09-.76 1.1-.75 1.19 0 .14 1.12.23 2.24.43 3.34.13.73-1.02 1.05-1.15.29zm1.45-7.54c.11.75-1 1.08-1.15.32a29 29 0 0 1 0-5.6c0-.77 1.23-.77 1.19 0a27.54 27.54 0 0 0-.04 5.25zm-.43-16.09a36.17 36.17 0 0 0-.07-4.77c-.1-.76 1.1-.75 1.19 0a36.17 36.17 0 0 1 .07 4.77.6.6 0 0 1-1.19-.03zm1.27 30c0-1.17-.08-2.34-.15-3.5 0-.77 1.14-.76 1.19 0 .07 1.17.14 2.33.15 3.5a.6.6 0 0 1-1.19-.07zm1.79-6.26a.6.6 0 0 1-1.19 0c0-1.34.07-2.68.15-4 0-.76 1.23-.77 1.19 0-.08 1.25-.15 2.59-.16 3.93zm-.57-6.85c-.68-1.9-.28-3.95-.1-5.9.07-.76 1.26-.77 1.19 0-.17 1.83-.59 3.8.05 5.58.26.66-.89.97-1.15.25zm.82-16c.22-1.38.42-2.77.57-4.16.08-.76 1.28-.76 1.19 0-.16 1.5-.38 3-.62 4.48-.12.72-1.27.4-1.15-.35zM44 164.33c-.11.76-1.26.43-1.15-.32a26 26 0 0 0 .35-4.54c0-.77 1.17-.77 1.19 0a27.8 27.8 0 0 1-.39 4.86zm-.7-7.82c-.26-1.61-.05-3.24-.24-4.85-.09-.76 1.1-.75 1.19 0 .18 1.51 0 3 .2 4.54.11.74-1.04 1.06-1.16.31zm.35-7.76a32.39 32.39 0 0 1-.07-4.47.6.6 0 0 1 1.19 0 32.36 32.36 0 0 0 .07 4.47c.09.76-1.1.75-1.2 0zm1.35-6.41a43.55 43.55 0 0 1 .37-5.22c.1-.75 1.29-.76 1.19 0a43.55 43.55 0 0 0-.37 5.22.6.6 0 0 1-1.19 0zM47.34 156c-.16.75-1.31.43-1.15-.32a17.71 17.71 0 0 0 .13-3.79.6.6 0 0 1 1.19 0 19.07 19.07 0 0 1-.17 4.11zm.47-6.94a.6.6 0 0 1-1.19 0c0-1.62.27-3.22.22-4.84a.6.6 0 0 1 1.19 0c.05 1.6-.19 3.21-.22 4.78zm0-6.18a30.58 30.58 0 0 1 .39-5.08c.13-.76 1.28-.43 1.15.32a28.68 28.68 0 0 0-.35 4.76.6.6 0 0 1-1.19-.02zm2.14 6c-.13.76-1.28.43-1.15-.32a16.49 16.49 0 0 0 .35-3.57c0-.77 1.16-.77 1.19 0a18 18 0 0 1-.34 3.92zm2.26-6.34a.6.6 0 0 1-1.19 0v-3.87a.6.6 0 0 1 1.19 0zm11.92 1.27c-.07-1.61-.14-3.23-.15-4.84a.6.6 0 0 1 1.19 0c0 1.62.08 3.23.15 4.84.04.79-1.15.79-1.19.02zm14.31 4.77c.13 1.39.08 2.78.07 4.17a.6.6 0 0 1-1.19 0c0-1.39.06-2.78-.07-4.17-.08-.75 1.12-.74 1.19.02zm-3.58-8.72a.6.6 0 0 1 1.19 0 47.89 47.89 0 0 0 .07 5.51c.08.76-1.11.76-1.19 0a47.91 47.91 0 0 1-.07-5.49zm-.52 8.49c0 1.72.07 3.43.15 5.14 0 .77-1.16.77-1.19 0-.07-1.71-.14-3.43-.15-5.14a.6.6 0 0 1 1.19.03zM73.15 140c0 1.64.07 3.28.07 4.92a.6.6 0 0 1-1.19 0c0-1.64-.07-3.28-.07-4.92a.6.6 0 0 1 1.19 0zM66 152.1c0-1.37-.14-2.73-.15-4.1a.6.6 0 0 1 1.15 0c0 1.37.14 2.73.15 4.1a.6.6 0 0 1-1.15 0zm2.24-8.27c-.06-1.44 0-2.88 0-4.32a.6.6 0 0 1 1.19 0c0 1.44-.06 2.88 0 4.32.02.77-1.17.77-1.2 0zm1 16.54c-.09-1.49-.28-3-.22-4.47 0-.77 1.22-.77 1.19 0-.05 1.5.14 3 .22 4.47.08.77-1.11.77-1.16 0zm.37-7.23c-.19-1.74 0-3.47-.07-5.22 0-.77 1.17-.77 1.19 0 .05 1.74-.11 3.48.07 5.22.12.77-1.07.76-1.15 0zm2 14.47a28 28 0 0 1-.32-4.26c0-.77 1.16-.77 1.19 0a26 26 0 0 0 .28 3.94c.24.71-.93 1.07-1.08.32zm.82-6.86a36.34 36.34 0 0 1-.32-4.78.6.6 0 0 1 1.19 0 34 34 0 0 0 .28 4.46c.17.76-.98 1.08-1.08.32zm2.59 11.54a.6.6 0 0 1-1.19 0 18 18 0 0 1 .1-2.77c.11-.76 1.26-.43 1.15.32a16.11 16.11 0 0 0 .01 2.46zm.3-5.14a.6.6 0 0 1-1.19 0v-3.5a.6.6 0 0 1 1.19 0zm.32-6.32c-.48-1.62-.2-3.27-.24-4.93a.6.6 0 0 1 1.19 0c0 1.55-.24 3.1.2 4.61a.6.6 0 0 1-1.09.32zm2.36 6.41c-.14.76-1.29.43-1.15-.32.19-1 .21-2.08.35-3.12.1-.75 1.29-.76 1.19 0-.18 1.15-.21 2.3-.39 3.44zm1.74-6.72a.6.6 0 0 1-1.19 0v-4.17a.6.6 0 0 1 1.19 0zm-1.23-15.42a41.7 41.7 0 0 1-.22-5.07c0-.77 1.22-.77 1.19 0a41.68 41.68 0 0 0 .22 5.07c.07.76-1.12.76-1.19 0zm3.56 8.13c-.12.76-1.27.43-1.15-.32a13.58 13.58 0 0 0 .07-4c-.11-.75 1-1.08 1.15-.32a15.55 15.55 0 0 1-.07 4.64zm-.35-8.28q-.21-2.31-.22-4.62a.6.6 0 0 1 1.19 0q0 2.32.22 4.62c.09.76-1.12.76-1.19 0zm2.76 8c0 .76-1.23.77-1.19 0 .07-1.34.15-2.69.3-4 .08-.76 1.27-.76 1.19 0-.15 1.29-.23 2.63-.31 3.97zm2.61-7.45c-.09.75-1.28.76-1.19 0a55.61 55.61 0 0 0 .6-5.89.6.6 0 0 1 1.19 0 55.58 55.58 0 0 1-.61 5.86zm21.83-7.67a.6.6 0 0 1 1.19 0 33.76 33.76 0 0 0 .13 4.61c.1.75-1 1.08-1.15.32a35.92 35.92 0 0 1-.18-4.97zm-2.38.75a35.81 35.81 0 0 0 .22 3.87c.09.76-1.11.75-1.19 0a35.83 35.83 0 0 1-.22-3.87.6.6 0 0 1 1.18-.04zm-2.16 7.82a.6.6 0 0 1 1.19 0c0 1.67-.39 3.35.13 5 .23.73-.92 1-1.15.32-.55-1.8-.21-3.57-.18-5.36zm-1.14-7.61c.26 1.43 0 2.91.37 4.32.18.75-1 1.06-1.15.32-.34-1.42-.11-2.89-.37-4.32-.15-.79 1-1.11 1.14-.36zm-7.63 4.86c-.28-1.5-.31-3-.52-4.55-.1-.75 1-1.08 1.15-.32.21 1.51.24 3 .52 4.55.13.72-1.02 1.04-1.16.29zm2.91 8c-.34-1.5-.27-3.06-.67-4.55a.6.6 0 0 1 1.15-.3c.41 1.49.33 3 .67 4.55.15.75-1 1.06-1.17.31zm1.19-7.3a21.84 21.84 0 0 1-.69-5.3c-.06-.77 1.13-.76 1.19 0a20.5 20.5 0 0 0 .65 5c.23.73-.92 1.04-1.16.31zm1.64 14.9a14 14 0 0 1-.54-4.33.6.6 0 0 1 1.19 0 12.88 12.88 0 0 0 .5 4c.23.76-.93 1.08-1.16.34zm.22-7.3c-.56-1.77-.13-3.57-.17-5.37a.6.6 0 0 1 1.19 0c0 1.69-.4 3.41.13 5.06.22.74-.93 1.05-1.16.36zm1.94 13.64a15.37 15.37 0 0 1-.62-3.59c-.05-.77 1.14-.76 1.19 0a14 14 0 0 0 .57 3.27c.23.73-.92 1.06-1.15.33zm1.84-6.49a.6.6 0 0 1-1.19 0 24 24 0 0 0-.13-4.39c-.13-.75 1-1.07 1.15-.32a25.54 25.54 0 0 1 .16 4.72zm.15 12.29c0-1.12-.07-2.23-.07-3.35a.6.6 0 0 1 1.19 0c0 1.12.07 2.23.07 3.35a.6.6 0 0 1-1.2.01zm.77-5.73a12.58 12.58 0 0 1-.24-4.18.6.6 0 0 1 1.19 0 11.66 11.66 0 0 0 .2 3.87c.23.74-.92 1.05-1.17.32zm.93-14.66c-.2-1.48-.1-3-.22-4.47-.07-.77 1.13-.76 1.19 0 .13 1.49 0 3 .22 4.47.1.74-1.09.73-1.19 0zm.82 7c-.13-1.44-.08-2.88-.07-4.32a.6.6 0 0 1 1.19 0c0 1.44-.06 2.88.07 4.32.07.75-1.12.75-1.21 0zm1.86 7.08a.6.6 0 0 1-1.19 0c0-1.32.14-2.63.22-3.95 0-.76 1.24-.77 1.19 0-.1 1.3-.21 2.62-.22 3.94zm0-15.05a36.66 36.66 0 0 1-.07-3.95.6.6 0 0 1 1.19 0 36.71 36.71 0 0 0 .07 3.95c.09.75-1.07.74-1.19-.03zm1.71 7.3a.6.6 0 0 1-1.19 0 34.32 34.32 0 0 0-.07-3.73c-.08-.76 1.11-.76 1.19 0a34.3 34.3 0 0 1 .08 3.72zm.07-16q0-2.35-.22-4.69c-.07-.77 1.12-.76 1.19 0q.21 2.34.22 4.69a.6.6 0 0 1-1.18-.03zm2.16 8.79a.6.6 0 0 1-1.19 0v-5.14a.6.6 0 0 1 1.19 0zm1-10.36c0-1.54-.27-3.07-.22-4.62 0-.77 1.22-.77 1.19 0 0 1.55.2 3.08.22 4.62a.6.6 0 0 1-1.21-.03z" fill="#3c3975"/><path d="M105.93 189.09c1.57-.33 3.13-.68 4.68-1.06 7.47-1.83 7.19-10.74 8-17 .53-4 .93-8 1.24-12.08zm4.69-2.86a.6.6 0 0 1-1.19 0c0-1 .21-1.88.3-2.83.07-.76 1.26-.77 1.19 0-.08.94-.28 1.88-.29 2.83zm3-3.79a13.06 13.06 0 0 0-.13 2.75.6.6 0 0 1-1.19 0 14.5 14.5 0 0 1 .17-3.06c.12-.76 1.27-.44 1.12.31zm.54-5.74a7.13 7.13 0 0 0-.59 2.83.6.6 0 0 1-1.19 0 8.6 8.6 0 0 1 .75-3.43c.28-.71 1.3-.1.99.59zm1.48 7.68c-.11.76-1.26.43-1.15-.32.13-.94.27-1.88.35-2.82.06-.76 1.26-.77 1.19 0-.12 1.05-.28 2.09-.43 3.14zm1-8.49a15.51 15.51 0 0 0-.28 3 .6.6 0 0 1-1.19 0 17.15 17.15 0 0 1 .32-3.36c.16-.72 1.31-.4 1.15.35zm1-6.27a18 18 0 0 0-1.06 3.73c-.17.75-1.32.43-1.15-.32a19.22 19.22 0 0 1 1.18-4c.32-.71 1.39-.11 1.02.59z" fill="#3c3975"/><path d="M71.08 188.91c-1.71-4.18-3.25-8.41-4.79-12.66-2.41-6.65-6-13.24-8-20.13q-4.39 17.27-9.39 34.38c2.31.36 4.61.61 6.8.87a152.83 152.83 0 0 0 16.61 1c-.31-1.14-.76-2.31-1.23-3.46zm-8.58-20.34c.08.92.21 1.83.22 2.76a.6.6 0 0 1-1.19 0c0-.92-.14-1.84-.22-2.76-.08-.77 1.11-.76 1.18 0zm-2-1.27a27.34 27.34 0 0 0-.15 3.35.6.6 0 0 1-1.19 0 27.36 27.36 0 0 1 .15-3.35c.07-.75 1.26-.76 1.17 0zm-2.5-5.22c.12-.76 1.26-.43 1.15.32a17.19 17.19 0 0 0-.13 2.6.6.6 0 0 1-1.19 0 19.18 19.18 0 0 1 .17-2.92zm1.1 10.81c0 1.09-.07 2.19-.07 3.28a.6.6 0 0 1-1.19 0c0-1.09.07-2.19.07-3.28a.6.6 0 0 1 1.23 0zm-6.33 16.17a.6.6 0 0 1-1.19 0c0-1 .14-1.94.22-2.91.06-.76 1.26-.77 1.19 0-.04.97-.17 1.94-.18 2.91zm.6-5.22a9.8 9.8 0 0 1 .6-4.25c.32-.7 1.35-.09 1 .6a8.57 8.57 0 0 0-.44 3.65.6.6 0 0 1-1.13 0zm2.63 5.67c.09.76-1.11.75-1.19 0a27.86 27.86 0 0 1 0-3.43.6.6 0 0 1 1.19 0 27.86 27.86 0 0 0 0 3.43zm-.3-12.59c-.09.75-1.29.76-1.19 0 .17-1.39.53-2.73.77-4.11.13-.76 1.28-.43 1.15.32-.22 1.26-.56 2.51-.72 3.78zm.62-6.19a26.84 26.84 0 0 0 .35-3.27.6.6 0 0 1 1.19 0 29.45 29.45 0 0 1-.39 3.59c-.1.75-1.24.42-1.14-.33zm.5 12.68a32.62 32.62 0 0 0 .3-3.73.6.6 0 0 1 1.19 0 32.64 32.64 0 0 1-.3 3.73c-.08.74-1.28.75-1.18-.01zm2.38 6.11c0 .76-1.24.77-1.19 0a29.56 29.56 0 0 1 .32-3.66c.14-.76 1.29-.43 1.15.32a27 27 0 0 0-.27 3.33zm.62-5.06a31.51 31.51 0 0 1-.17-4.55.6.6 0 0 1 1.19 0 29.44 29.44 0 0 0 .13 4.24c.12.73-1.03 1.06-1.14.3zM61 177v-3.43a.6.6 0 0 1 1.19 0V177a.6.6 0 0 1-1.19 0zm1.79 12.52a.6.6 0 0 1-1.19 0c0-1.07.14-2.13.15-3.2a.6.6 0 0 1 1.19 0c-.01 1.05-.14 2.12-.15 3.19zm1.21-6.35a.6.6 0 0 1-1.19 0v-3a.6.6 0 0 1 1.19 0zm-.28-4.91a24.81 24.81 0 0 1-.17-4 .6.6 0 0 1 1.19 0 23 23 0 0 0 .13 3.72c.13.72-1.04 1.02-1.16.29zm2 8.64a15.25 15.25 0 0 0-.28 3 .6.6 0 0 1-1.19 0 16.91 16.91 0 0 1 .32-3.29c.18-.77 1.33-.45 1.18.3zm1-2.31c-.11.76-1.26.43-1.15-.32a16.68 16.68 0 0 0 .05-2.52.6.6 0 0 1 1.19 0 18.6 18.6 0 0 1-.02 2.85zm1.59 6.1a.6.6 0 0 1-1.19 0 27.94 27.94 0 0 0-.07-3.43c-.09-.76 1.1-.75 1.19 0a27.9 27.9 0 0 1 .14 3.44z" fill="#3c3975"/><path d="M101.72 186.89c-1.37-3.47-2.82-6.89-4-10.44-2-5.85-4.07-11.69-6-17.55-3 7.3-5.54 14.73-8.34 22.11-1.43 3.78-3 7.54-4.41 11.31a155.77 155.77 0 0 0 23.76-2.63c-.31-.93-.64-1.87-1.01-2.8zM93 168c.07 1 .14 1.93.15 2.91a.6.6 0 0 1-1.19 0c0-1-.07-1.94-.15-2.91-.09-.79 1.1-.79 1.19 0zm-2.36-2.39a12.15 12.15 0 0 0 .35-3 .6.6 0 0 1 1.19 0 13.5 13.5 0 0 1-.39 3.29.6.6 0 0 1-1.18-.32zm1 7.62a17.52 17.52 0 0 0-.2 3.19.6.6 0 0 1-1.19 0 19.2 19.2 0 0 1 .24-3.51c.11-.78 1.26-.46 1.12.29zm-8 16.61a.6.6 0 0 1-1.19 0 24.28 24.28 0 0 1 .15-3.2c.1-.75 1.29-.76 1.19 0a24.3 24.3 0 0 0-.14 3.17zm1.27-6a12.66 12.66 0 0 1 .62-4.33c.26-.72 1.41-.41 1.15.32a11.66 11.66 0 0 0-.57 4 .6.6 0 0 1-1.19.01zm2.67 5.16c.12.75-1 1.07-1.15.32a20.31 20.31 0 0 1 0-3.59.6.6 0 0 1 1.19 0 18.73 18.73 0 0 0-.04 3.27zm-.33-12a8.68 8.68 0 0 1 .45-4c.24-.73 1.39-.42 1.15.32a7.45 7.45 0 0 0-.45 3.41c.12.7-1.03 1.03-1.15.27zm1.19 6.86a14.47 14.47 0 0 1-.17-4.78c0-.76 1.23-.77 1.19 0a13.57 13.57 0 0 0 .13 4.46.6.6 0 0 1-1.15.31zm.28-12.45a7.84 7.84 0 0 1 .6-3.21c.31-.7 1.33-.1 1 .6a6.42 6.42 0 0 0-.44 2.61.6.6 0 0 1-1.16-.01zm2.61 17.14a.6.6 0 0 1-1.19 0V185a.6.6 0 0 1 1.19 0zm-.05-5.73a13 13 0 0 1-.17-3.88.6.6 0 0 1 1.19 0 12 12 0 0 0 .13 3.57.6.6 0 0 1-1.15.3zm1.11-9.82a.6.6 0 0 1 1.15-.32 20.93 20.93 0 0 1 .47 3.81c.09.76-1.11.75-1.19 0a19.19 19.19 0 0 0-.43-3.49zm.87 15c-.14-1.07-.22-2.14-.43-3.19-.14-.75 1-1.07 1.15-.32.22 1.16.32 2.34.47 3.51.11.78-1.09.77-1.18 0zm.32-5.06a33.73 33.73 0 0 1-.54-3.74c-.09-.76 1.1-.75 1.19 0a30.85 30.85 0 0 0 .5 3.42c.18.77-.97 1.09-1.14.38zm1.54-6.34c0-1.08-.21-2.13-.3-3.2-.06-.77 1.13-.76 1.19 0 .09 1.07.28 2.13.3 3.2a.6.6 0 0 1-1.18.02zm.77 11.86c-.26-1.13-.1-2.29-.3-3.43-.13-.75 1-1.07 1.15-.32.2 1.14 0 2.31.3 3.43.18.77-.97 1.08-1.14.33zm.07-6c-.15-.92-.29-1.84-.45-2.76-.12-.75 1-1.07 1.15-.32.15.92.29 1.84.45 2.76.13.73-1.01 1.06-1.11.3zm2.29 5.8c0-1.14-.07-2.28-.07-3.43a.6.6 0 0 1 1.19 0c0 1.14.07 2.28.07 3.43a.6.6 0 0 1-1.18-.02z" fill="#3c3975"/><path d="M22.43 143.73a191 191 0 0 0 3.51 22.75c1.45 6.65 3.77 13.38 8.81 18.17 3 2.89 7 4.37 11.1 5.27q-12.7-22.58-23.42-46.19zm13.74 30.49a22.36 22.36 0 0 0 1.65 3.36c.35.68-.68 1.29-1 .6a24.16 24.16 0 0 1-1.82-3.64c-.21-.74.94-1.05 1.17-.32zm-3.8-7.3c.55 1.42 1.32 2.75 1.86 4.17.28.72-.88 1-1.15.32-.55-1.42-1.32-2.75-1.86-4.17-.28-.72.88-1.03 1.15-.32zm-2.83-5.59a39.28 39.28 0 0 0 1.34 3.73c.26.72-.89 1-1.15.32a39.24 39.24 0 0 1-1.34-3.73.6.6 0 0 1 1.15-.32zm-4.28-6.54c-.24-.73.91-1 1.15-.32.44 1.31.88 2.61 1.19 3.95.17.75-1 1.07-1.15.32-.31-1.34-.76-2.64-1.19-3.95zm2.44 11.54a16.22 16.22 0 0 1-1.4-3.94c-.14-.75 1-1.07 1.15-.32a15 15 0 0 0 1.28 3.66c.32.7-.73 1.27-1.03.61zM30 172a9.4 9.4 0 0 1-1.27-4c-.06-.77 1.13-.76 1.19 0a8 8 0 0 0 1.08 3.4.6.6 0 0 1-1 .6zm2.7 7.5a13.56 13.56 0 0 1-2.31-5c-.24-.73.91-1 1.15-.32a12.2 12.2 0 0 0 2 4.43c.52.62-.32 1.47-.83.89zm2.22-.94c-.88-1.42-1.5-3-2.24-4.47-.34-.69.69-1.29 1-.6.74 1.5 1.36 3 2.24 4.47.44.65-.59 1.25-.99.6zm2.16 6.18a17.6 17.6 0 0 1-1.92-4.09c-.28-.72.88-1 1.15-.32a16.34 16.34 0 0 0 1.8 3.81c.46.63-.58 1.22-1.02.6zm3.13.45A16.57 16.57 0 0 1 38.3 181c-.24-.73.91-1 1.15-.32a15.4 15.4 0 0 0 1.8 3.88c.43.67-.61 1.26-1.03.63z" fill="#3c3975"/><path d="M48.11 69.77a.6.6 0 0 0-.29 0c-7.79 1.59-14.21-2.9-20.57-7.23-.66 3.13-3.92 6.7-5.35 8.7A43.71 43.71 0 0 0 44.71 77c3.55-.1 7-1.42 8.23-4.94s-2.61-2.74-4.83-2.29z" fill="#9b2c0a"/><path d="M54 27.39c-.72-.35-1.46-.65-2.2-.93a9 9 0 0 0-1.12-1 .6.6 0 0 0-.9.51v.06l-.28-.2a.61.61 0 0 0-1 .26v.11a.59.59 0 0 0-.28.14 6.47 6.47 0 0 0-.74-.25.62.62 0 0 0-.62.2.64.64 0 0 0-.4 1l.22.24c.1.55.48.91 1.17 1.51a7.86 7.86 0 0 0 3.54 1.67.58.58 0 0 0 .71-.72h.15a2.8 2.8 0 0 1 .68-.18H53c.5 0 .67-.53.51-.9s-.23-.46-.34-.68l.22.1c.61.42 1.26-.61.61-.94z" fill="#1e0908"/><path d="M102.36 32.72a.59.59 0 0 0-.56.6h-1.08c-.75.07-.76 1.25 0 1.19a.68.68 0 0 0-.13.33.61.61 0 0 0 .08 1 .61.61 0 0 0 .3.94.65.65 0 0 0 .33.45l-.2.11a.52.52 0 0 0-.21.23h-.14c-.72.13-.45 1.1.16 1.17a9.85 9.85 0 0 0 4.9-.87c1-.4 2.74-.91 3.07-2.1.74-2.66-4.94-3.2-6.52-3.05z" fill="#1e0908"/><path d="M106.82 118.59c.94-29.12 1.56-58.53-4.59-87.17 4.37-2.26 8.17-6.08 4.42-10.86-2.59-3.3-6.6-1.07-8.46 1.91-4.86-3.37-10.55-4.62-16.39-5.38-6.67-.87-13.56-1.4-19.86 1.34-.2-5.28-5.3-8.88-10.17-6.17-2.37 1.32-3 4.24-2.46 6.69.35 1.48 1.59 3.74 3.17 4.39A315.32 315.32 0 0 0 36.43 119c-.67-.15-.94.92-.25 1.16l.22.07v.15a.6.6 0 0 0 1.15.22c12.39 4 26.26 3.83 39.11 4.65 3.89.25 33.75 2.09 30.54-6.27a.59.59 0 0 0-.38-.39z" fill="#9e462b"/><path d="M57.25 15a3.09 3.09 0 0 0-2.93 0 1.57 1.57 0 0 0-.56.45 1.83 1.83 0 0 0-.69 1c-.43 1.5-.37 3.66 1.32 4.38a3.25 3.25 0 0 0 4.42-3.28A3.14 3.14 0 0 0 57.25 15z" fill="#842407"/><path d="M104.84 24.87a2.29 2.29 0 0 0-.51-1.72c-1.29-1.51-3.61-1-4.69.45a3.66 3.66 0 0 0 1 4.91 2.81 2.81 0 0 0 3.07-.62 3.52 3.52 0 0 0 1.18-2.53 1.46 1.46 0 0 0-.05-.49z" fill="#842407"/><path d="M100.15 28.53c-.73-.28-3.4-.66-3.36-1.77q.09-2.14.12-4.27a40 40 0 0 0-.77-8.49C94.46 5.78 87.18-1.51 78.23.27a16.37 16.37 0 0 0-9.8 6.08 23.78 23.78 0 0 0-3.29 6 25.24 25.24 0 0 0-1.08 3.92c-.18.84-.08 3.62-1.16 3.94l-8.55 2.52c-2.22.65-5.21 1-7.21 2.18-1.54.9-1.62 3.71.55 3a.59.59 0 0 0 .13-.08c5-.77 10.19-.25 15.26 0s9.9.64 14.83 1.15a142.41 142.41 0 0 1 30.31 6.83.6.6 0 0 0 .78-.81c-.82-3.86-5.63-5.22-8.85-6.47z" fill="#3f1511"/><path d="M88.77 41.4a17.33 17.33 0 0 0-12-3.66c-4.44-.54-9-.29-12.53 2.79-4.47 4-5.9 10.33-1.67 15.13 6.87 7.8 26 10.05 31.1-1 2.33-5.05-.9-10.19-4.9-13.26z" fill="#d86b3a"/><path d="M80.5 49.22c-.5-.86-2-1.28-2.89-1.46-2-.41-4.63.13-4.93 2.48-.13 1 1 1.92 1.8 2.23.13 0 .26.07.39.11 1.73.79 3.66 1 5.11-.56a2.61 2.61 0 0 0 .52-2.8z" fill="#3f1511"/><path d="M63.15 31.26a3.06 3.06 0 0 0-4.11.15A5.41 5.41 0 0 0 57.75 34a5.21 5.21 0 0 0 .16 4.38 2.66 2.66 0 0 0 4 .7 7.7 7.7 0 0 0 2-3.81 3.92 3.92 0 0 0-.76-4.01z" fill="#fff"/><path d="M95.48 34.51a1.85 1.85 0 0 0-1.72 1.31v.09a7.11 7.11 0 0 0-.76 5.43c.51 2 2.67 3.41 4.47 1.91 2.75-2.25 2.65-9.03-1.99-8.74z" fill="#fff"/><path d="M62.64 36a1.19 1.19 0 0 0-2-.68 4.46 4.46 0 0 0-1.07 4.15 1.17 1.17 0 0 0 1.15.88c1.55-.2 2.12-1.44 2.25-2.86a2.24 2.24 0 0 0-.33-1.49z" fill="#3f1511"/><path d="M96.43 39.63a1.9 1.9 0 0 0-1.32-1.18 1.23 1.23 0 0 0-1.55.46 3.92 3.92 0 0 0 .27 4.9 1.2 1.2 0 0 0 1.87-.24 4.74 4.74 0 0 0 .73-3.94z" fill="#3f1511"/><path d="M58.39 28.85a7.49 7.49 0 0 0-3.15 2.3c-.47.6.36 1.44.84.84a6.35 6.35 0 0 1 2.62-2c.71-.27.4-1.42-.31-1.14z" fill="#3f1511"/><path d="M102.74 37.32a5.76 5.76 0 0 0-2.55-3.27.6.6 0 0 0-.6 1 4.5 4.5 0 0 1 2 2.56c.23.76 1.41.45 1.15-.29z" fill="#3f1511"/><path d="M85.36 55.71a4.76 4.76 0 0 1-4.73 2.6c-.77-.07-.76 1.13 0 1.19a5.92 5.92 0 0 0 5.76-3.19c.35-.68-.67-1.31-1.03-.6z" fill="#3f1511"/><path d="M57.3 42.59a4.61 4.61 0 0 0-2.33-1 5 5 0 0 0-2.68 0 3.77 3.77 0 0 0-2.55 4.56 2.35 2.35 0 0 0 1.67 1.67h.36a5.14 5.14 0 0 0 3.32.15A2.59 2.59 0 0 0 57 46.95a3 3 0 0 0 .3-4.36z" fill="#fc6c65"/><path d="M102.71 46.88a4.71 4.71 0 0 0-3.55-1.24 5 5 0 0 0-3.75 2.13 2.34 2.34 0 0 0 .53 3 2.82 2.82 0 0 0 1.35 1 5.41 5.41 0 0 0 4.31 0c1.85-.77 2.59-3.46 1.11-4.89z" fill="#fc6c65"/><path d="M81 67.26a.6.6 0 0 0-.9-.51 26.38 26.38 0 0 0-5.21 3.84c-2-1.38-2.85-4-5.35-4.8a.61.61 0 0 0-.73.42 24.55 24.55 0 0 0-1.7 10.43.61.61 0 0 0 .9.51 26.58 26.58 0 0 0 6.73-4.86l5 6.61a.6.6 0 0 0 1.11-.3A88.63 88.63 0 0 0 81 67.26z" fill="#74e5ff"/><path d="M119.06 116.85c-1.72-3.73-5.6-5.55-9.9-6.55a27.91 27.91 0 0 0-10-2.61 113.94 113.94 0 0 0-13.43-2.53 129.35 129.35 0 0 0-27.25-1c-8.09.52-16.63 1.54-24.27 4.37-5 1.86-11.09 6-11.38 12-.36 7.46 8.41 9.44 14.1 11.37a107.9 107.9 0 0 0 24.87 4.85 232 232 0 0 0 26.63.55c7.74-.19 16 .11 23.14-3.23 6.25-2.89 10.54-10.61 7.49-17.22z" fill="#ccc2ff"/><path d="M89.32 109.36a2.43 2.43 0 0 0-1.16-.38 211 211 0 0 0-31.45.11c-4.7.37-9.37 1-14 1.67-3.54.52-8.9.62-11.77 3.18-14.15 12.6 27.9 18.95 33.06 19.72a168 168 0 0 0 30.16 1.92c6.49-.2 15.7-1.12 18.43-8.27 4.95-12.98-10.25-16.99-23.27-17.95z" fill="#fff"/><path d="M29.25 53.89c-5.32 1.79-8.25 9.36-10.84 13.88A133.85 133.85 0 0 0 9 88.3c-2-1.39-4.93-.45-6.77 1.45-2.94 3-3.32 8 .81 10.13a8 8 0 0 0 10.14-3.18 5.81 5.81 0 0 0-1.79-7.4 213 213 0 0 0 12-17.72c2.74-4.53 8-11 7.39-16.54a1.21 1.21 0 0 0-1.53-1.15z" fill="#381e18"/><path d="M90.23 127.47a97.49 97.49 0 0 0-15.3-35.17c5.89-3.17 1.89-12.85-5.89-10.51C61.7 84 65.36 96 72.38 93.42l8.15 20.85c2 5 3.35 10.86 7.71 14.36a1.2 1.2 0 0 0 1.99-1.16z" fill="#381e18"/><path d="M102.83 81.62a1.93 1.93 0 0 0-2.27-1.34 1.54 1.54 0 0 0-1.08 1c-2.11 3.12-3.68 6.54-5.71 9.72l-.25.37a42.1 42.1 0 0 1-3.25 3.47c-3.72 3.54-8.26 5.8-12.47 8.65-2.37 1.61-6.49 4.51-6 7.83s6.71 2.53 8.74 1.93c4.15-1.23 7.68-4.46 10.63-7.47a45.4 45.4 0 0 0 10.59-17.87c.65-1.99 1.46-4.23 1.07-6.29z" fill="#9b2c0a"/><path d="M23.63 59.44c-1.79-2-6.08-2.37-8.07-.41-2.69 2.65-3.07 7-1.78 10.42.59 1.58 3.75 4.94 5.47 2.62 1.22-1.64 1.42-4 1.87-5.93a19.54 19.54 0 0 1 1.14-3.55c.37-.85 1.12-1.47 1.4-2.36a.58.58 0 0 0-.03-.79z" fill="#b73416"/><path d="M135 71.45c3.24-.3 13.26-2.46 11.12-7.31-.93-2.11-4.1-.91-5.47-.26a15.34 15.34 0 0 0-4.81 3.69c.25-1.27.48-2.55.67-3.83a.58.58 0 0 0 .09-.2 17.33 17.33 0 0 0 3.4-7.09c.42-2 .55-5-1.54-6-1.61-.78-3.23 1.71-3.66 2.87-1.19 3.21-.12 6.65.53 9.89-.24 1.65-.52 3.3-.87 4.93l-.08-.33a22.08 22.08 0 0 0-1.38-3.76c-.7-1.57-2.16-3.41-4.08-3.41-1.65 0-1.16 2.33-.68 3.12 1.55 2.59 3.58 4.94 5.16 7.53a.56.56 0 0 0 .34.26 84.57 84.57 0 0 1-2.5 8.13c-.57-3.88-2.35-10.62-5.88-8.71a.59.59 0 0 0-.3.51c.11 4.35 2.48 7.78 5 11.11a86.38 86.38 0 0 1-3.7 8c0-3.7-.49-10.18-4-9.81-1.61.17-1.47 2.83-1.26 3.85.63 3.06 2.39 5.71 4 8.38a87 87 0 0 1-4.86 7.57 38.57 38.57 0 0 0-.39-9.4c-.23-1.19-1.11-5-3.09-4.68-2.37.42-1.6 3-1.29 4.73a34.67 34.67 0 0 0 3.59 10 .48.48 0 0 0 .08.16l.18.35.05.06q-1.86 2.5-3.9 4.86a21.66 21.66 0 0 0 0-7.62c-.27-1.52-.73-3.74-2.66-3.74-4.27 0 .84 11.35 1.34 12.71a.58.58 0 0 0 .05.09c-1.48 1.64-3 3.24-4.63 4.76a15.59 15.59 0 0 0 0-6c-.19-1-.76-3.7-2.36-3.26-1.39.38-1.12 3-1 4a16.65 16.65 0 0 0 2.18 6.38 84.672 84.672 0 0 1-4.44 3.8 20.38 20.38 0 0 0 .73-6.52c-.07-1.34 0-3.46-1.67-3.7-3.65-.54-1.3 9.27-.71 11.48q-2.1 1.58-4.31 3c-.64.42 0 1.45.6 1 1.58-1 3.1-2.13 4.6-3.26a15.14 15.14 0 0 0 2.56 3.56c.79.81 2.44 1.59 3.43.59 2.29-2.32-1.83-4.71-4.07-5.65 1.37-1.11 2.72-2.24 4-3.43a12 12 0 0 0 4.19 4.18c1.34.8 3.77 1.88 5.11.54s-.18-3-1.36-3.88a10.86 10.86 0 0 0-6.62-2.08c1.68-1.6 3.3-3.25 4.84-5 1.19 2.63 3.44 6.12 6.56 5.5 1.8-.36.8-2.48 0-3.26a22.61 22.61 0 0 0-5.26-3.8c1.5-1.76 2.94-3.56 4.29-5.42a12.1 12.1 0 0 0 7.77 1.53c1.9-.31 5.25-1 5.77-3.22s-2.34-2.87-3.81-2.87c-3 0-5.75 1.72-8.53 2.83a89.1 89.1 0 0 0 4.42-7.08c1.78 1.05 4.11.68 6.1.39 2.14-.31 5.61-1.1 6-3.66.29-1.86-2.06-2.83-3.54-2.6a17.25 17.25 0 0 0-7.33 3.52c1.27-2.44 2.44-4.93 3.47-7.48a.58.58 0 0 0 .16 0c1.94 0 11.46-1 9.62-4.88-.82-1.73-3-1-4.46-.56a11.67 11.67 0 0 0-4.14 2.45 86.15 86.15 0 0 0 2.6-8.53z" fill="#2d5e14"/><path d="M52.91 105.49C54 103 55.44 100.67 55 97.93c-.06-.41-.57-.5-.88-.36-5.34 2.49-6.74 10.83-7.05 16.38q-1.66-2.89-3.16-5.87a.71.71 0 0 0 .08-.17q1.78-5.29 3.05-10.72c.36-1.52 1.6-4.26-.1-5.34a.6.6 0 0 0-.72.09c-3.48 3.35-3.38 8.74-3.67 13.32-1-2.05-1.88-4.13-2.71-6.23a9.56 9.56 0 0 0 .44-1C42 93.77 43.55 89.38 44.95 85c.15-.47-.45-1-.88-.67-4 3-4 7.83-5.14 12.28-.78-2.12-1.51-4.26-2.17-6.43a.61.61 0 0 0 .31-.34c.17-.45.32-.92.45-1.4a51.9 51.9 0 0 0 6.31-8.88c.72-1.29 3.23-4.58 1.32-5.83a.6.6 0 0 0-.6 0C40 76.19 37.32 83.26 36.3 88l-.11.13c-.88-3.13-1.65-6.29-2.26-9.49a73.88 73.88 0 0 0 5.81-7.27c1.26-1.79 3.79-4.48 3.15-6.84a.6.6 0 0 0-1-.26 27.21 27.21 0 0 0-8.39 12c-.33-1.92-.61-3.85-.83-5.78l6.3-10c1.52-2.41 3-4.69 2.77-7.64a.61.61 0 0 0-.75-.57c-2.39.55-3.19 3.28-4.19 5.25-1.61 3.18-3.09 6.43-4.5 9.7-.27-3.12-.42-6.24-.43-9.38a.62.62 0 0 0 .15-.2l.11-.29c3-3.72 5.93-7.52 7.43-12.16a.6.6 0 0 0-.73-.73c-2.19.74-3.15 2.86-4.26 4.76A44 44 0 0 0 32 54.58a109.8 109.8 0 0 1 .93-11.79c.1-.75-1-1.08-1.15-.32a112.12 112.12 0 0 0-1 12.15 106.5 106.5 0 0 0-4.94-9.87.6.6 0 0 0-1.09.14c-1.54 5.41 2.91 9.81 5.92 13.76l.06.05c0 2.16.12 4.31.26 6.45a60.33 60.33 0 0 0-5.56-7.69.6.6 0 0 0-1 .26c-1.23 4.77 3.79 9.53 7 12.57.17 1.55.39 3.1.63 4.64-1.94-2.29-4.73-5.06-6.94-4.11a.59.59 0 0 0-.21.82 21.53 21.53 0 0 0 7.81 7.14c.59 3.1 1.33 6.17 2.17 9.21-.62-.66-1.19-1.36-1.75-2.05-1.25-1.53-2.41-3.13-3.65-4.66s-3.1-4.32-5.35-3.89a.59.59 0 0 0-.42.42c-.68 2.15 1.8 4.69 3.12 6.18 2.42 2.73 5.71 4.7 8.79 6.58.65 2.16 1.38 4.29 2.16 6.41-3.8-3.37-7.68-7.1-12.29-9.08a.61.61 0 0 0-.88.36c-.59 2.36 2.08 4.47 3.64 5.85a38.41 38.41 0 0 0 8.89 5.34 3.06 3.06 0 0 0 1.76.47c.75 1.87 1.55 3.72 2.4 5.55a45.48 45.48 0 0 0-14.73-6.4c-.46-.11-1 .43-.67.88 3.69 5 10.7 7.67 16.77 8.34q1.65 3.33 3.53 6.56a5.72 5.72 0 0 1-1.18-.1 58.41 58.41 0 0 1-7.52-2.41c-1.47-.48-4.29-1.46-5.88-.88-1.76.64-2.2 2.44-.27 3.19 4.81 1.85 10.57 2 15.64 1.54a62.28 62.28 0 0 0 2 3.17c.42.64 1.45 0 1-.6q-.9-1.38-1.74-2.78zM43 87c-.58 1.77-1.18 3.54-1.81 5.31-.19.54-.4 1.33-.66 2.17.47-2.63.97-5.34 2.47-7.48zm-4.26-3.1a25.32 25.32 0 0 1 4.71-7.63c1.6-1.85.09 1.26-.15 1.74-.62 1.23-1.34 2.42-2.07 3.59a40.77 40.77 0 0 1-3.07 4.25 18.41 18.41 0 0 1 .58-1.95zm2.9-17.8a17.7 17.7 0 0 1-2.36 3.83A63.47 63.47 0 0 1 35 75.66a26 26 0 0 1 6.64-9.57zm-5.74-4c.88-1.88 2.52-6.89 4.66-8.33-.16 3-2.29 5.63-3.86 8.11l-2.54 4Q35 64 35.91 62.09zm-1.21-10.58c.71-1.41 1.76-3.75 3.16-5.06a31.44 31.44 0 0 1-4 6.78c.3-.58.55-1.16.84-1.72zm-9-4.64c1.66 3 3.08 6.17 4.53 9.28-2.22-2.75-4.69-5.85-4.56-9.29zm-.22 12.52a58.48 58.48 0 0 1 5.76 8.54c0 .19 0 .38.06.58-2.53-2.42-5.76-5.79-5.82-9.12zM30 75.61a18.09 18.09 0 0 1-3.47-3.76c1.81.45 4.66 3.86 5.94 5.45A20.48 20.48 0 0 1 30 75.61zM29.69 85a22.75 22.75 0 0 1-2.57-2.55 15 15 0 0 1-1.46-2.07c-.9-1.43.31-1.15 1-.45a60.74 60.74 0 0 1 5.63 6.84l.33.43c-.98-.65-1.97-1.38-2.93-2.2zM37 98a52.65 52.65 0 0 1-5.72-3.18c-1.3-.84-5-3.37-5.42-5.46 4.28 2.09 7.93 5.61 11.53 8.78A2.23 2.23 0 0 1 37 98zm-.51 7.5a21.55 21.55 0 0 1-8.27-4.81 44.6 44.6 0 0 1 13.19 6.21 27.26 27.26 0 0 1-4.97-1.38zM45 96.1a7.54 7.54 0 0 1 1.5-2.7 23.12 23.12 0 0 0-.55 3.49c-.4 1.81-.88 3.61-1.38 5.4a30.62 30.62 0 0 1-.76 3A43.92 43.92 0 0 1 45 96.1zm8.94 3c-.06 2.91-2.32 6.42-3.43 8.94l-1.83 4.18-.29.68c.37-4.8 1.66-11.27 5.54-13.82zm-19.16 15.21q-1-.23-2.06-.52-2-.1-.14-1.2c3.5-.15 6.82 1.46 10.21 2.59-1 0-2 0-2.93-.09a37.24 37.24 0 0 1-5.08-.78z" fill="#24351a"/><path d="M40.53 21.86c-1.4-2.39-3.49 1.14-5 4.42.23-3.05 0-6.41-2.3-7a.6.6 0 0 0-.73.42 46.84 46.84 0 0 0-1.26 7l-.55-3.63a4.28 4.28 0 0 0-2-3.47.61.61 0 0 0-.88.36c-1.22 3-1.14 6.23-1.19 9.42-.05 3.34-.27 6.91 1 10.08 1.91 4.83 6.65 3.11 8.54-.59A49.8 49.8 0 0 0 39.4 30c.6-2 2.33-6.08 1.13-8.14z" fill="#db2828"/><path d="M125.86 32.22a24 24 0 0 0-3.2 4.21c-3.25 5.62-3.75 11.85-4.07 18.21-.25 5-.31 10.27-1.6 15.11a96.71 96.71 0 0 0 9.06-20.84 33.34 33.34 0 0 0 1.77-11c-.07-1.76-.48-4.42-1.96-5.69z" fill="#93931d"/><path d="M110 59.73a23 23 0 0 0 .59-11 7 7 0 0 0-2.23-2.73c-.84.58-.94 1.76-.8 3.1.37 3.66 2.36 6.96 2.44 10.63z" fill="#93931d"/><path d="M112.06 127c8.47-.56 16.39-2.51 23.59-7.71 3.93-2.84 6.88-5.48 10.36-7.29-12.79 1.28-25.21 5.43-33.95 15z" fill="#93931d"/><path d="M148.85 87.32a37.93 37.93 0 0 0-5.48 3.52 16.94 16.94 0 0 0-5.13 10.08c4.76-3.58 7.93-8.39 10.61-13.6z" fill="#93931d"/><path d="M10.33 76.68c-2.84-3.79-5.83-7.33-7.81-11.53-3.21 9.7 5.57 19.4 13.12 24.74a29 29 0 0 0-5.31-13.21z" fill="#93931d"/><path d="M10.75 43.56a56.48 56.48 0 0 0-3-9.61C4.73 40.7 6.27 50 10.42 56c.71-4.18 1.16-8.4.33-12.44z" fill="#93931d"/><path d="M20.29 21.92a38.1 38.1 0 0 1 1.16-6.22c-6.73 6.16-7.33 18-3.61 26.09 3.07-5.79 1.77-13.61 2.45-19.87z" fill="#93931d"/><path d="M60.55 101.4c-3.22 7.18-2.34 16.12.28 24.07.34-4.72 1.32-9.36 2-14a20.06 20.06 0 0 0-2.28-10.07z" fill="#93931d"/><path d="M49.69 76.6c-.3 4.51.71 9.52 3.78 12.88 1 1 2 2 2.92 3.06-.51-5.77-2.87-12.04-6.7-15.94z" fill="#93931d"/></g></svg>