<svg xmlns="http://www.w3.org/2000/svg" viewBox="0 -0.010213375091552734 373.5299987792969 408.39019775390625"><title>Depositphotos_123163300_02</title><g data-name="Layer 2"><g data-name="Layer 1"><path fill="#8c6c49" d="M74.45 69.72l-18.94 21.8v254.2l10.65 26.23h120.61V69.72H74.45z"/><path fill="#8c6c49" d="M299.09 69.72l18.94 21.8v254.2l-10.65 26.23H186.77V69.72h112.32z"/><path fill="#6b5137" d="M69.4 123.5h-7.9v-21.95h7.9z"/><path d="M357.75 34.85h-342a39.8 39.8 0 0 1 38.71-30.4H319.1a39.77 39.77 0 0 1 38.65 30.4z" fill="#d9c9b8"/><path d="M358.86 44.21A39.76 39.76 0 0 1 319.1 84H54.44a39.81 39.81 0 0 1-38.65-49.15h342a39.58 39.58 0 0 1 1.07 9.36z" fill="#cab8a6"/><path d="M352.32 66.08a40 40 0 0 1-8.53 9.32A39.75 39.75 0 0 1 322 83.88c-1 .07-1.94.11-2.92.11H54.44c-1 0-2 0-2.92-.11a39.75 39.75 0 0 1-21.77-8.48 41.5 41.5 0 0 1-3.43-3.06 39.29 39.29 0 0 1-5.1-6.26z" fill="#baa491"/><path d="M343.65 12.93H29.9a39.65 39.65 0 0 1 24.56-8.48H319.1a39.62 39.62 0 0 1 24.55 8.48z" fill="#ebded1"/><path d="M336.71 79.88a39.25 39.25 0 0 1-14.69 4c-1 .07-1.94.11-2.92.11H54.44c-1 0-2 0-2.92-.11a39.35 39.35 0 0 1-14.69-4z" fill="#a38a74"/><path d="M300.82 29.13l-14.57-22.4a7.12 7.12 0 0 0-6-3.24h-187a7.12 7.12 0 0 0-6 3.24l-14.53 22.4a20.52 20.52 0 0 0-3.32 11.19v83.24l45.07 14.2L155 112.65h63.63l40.48 25.11 45.07-14.2V40.32a20.53 20.53 0 0 0-3.36-11.19z" fill="#6b5137"/><path d="M300.82 25.64l-14.57-22.4a7.12 7.12 0 0 0-6-3.24h-187a7.12 7.12 0 0 0-6 3.24l-14.53 22.4a20.52 20.52 0 0 0-3.32 11.19v83.24l45.07 14.2L155 109.16h63.63l40.48 25.11 45.07-14.2V36.83a20.53 20.53 0 0 0-3.36-11.19z" fill="#a58057"/><path d="M299.22 23.18H298v2.56h2v-1.39zM73.56 27.95v2.56h2v-2.56zm224.44.36v2.57h2v-2.57zM73.56 33.08v2.57h2v-2.57zm224.44.37V36h2v-2.55zM73.56 38.22v2.57h2v-2.57zm224.44.36v2.57h2v-2.57zM73.56 43.35v2.57h2v-2.57zm224.44.37v2.57h2v-2.57zM73.56 48.49v2.57h2v-2.57zm224.44.37v2.56h2v-2.56zM73.56 53.62v2.57h2v-2.57zM298 54v2.57h2V54zM73.56 58.76v2.57h2v-2.57zm224.44.37v2.56h2v-2.56zM73.56 63.9v2.56h2V63.9zm224.44.36v2.57h2v-2.57zM73.56 69v2.6h2V69zm224.44.4V72h2v-2.6zM73.56 74.17v2.57h2v-2.57zm224.44.36v2.57h2v-2.57zM73.56 79.3v2.57h2V79.3zm224.44.37v2.57h2v-2.57zM73.56 84.44V87h2v-2.56zm224.44.37v2.56h2v-2.56zM73.56 89.58v2.56h2v-2.56zm224.44.36v2.57h2v-2.57zM73.56 94.71v2.57h2v-2.57zm224.44.37v2.56h2v-2.56zM73.56 99.85v2.56h2v-2.56zm224.42.36v2.57h2v-2.57zM157.06 103v2h2.57v-2zm5.13 0v2h2.57v-2zm5.14 0v2h2.57v-2zm5.13 0v2H175v-2zm5.14 0v2h2.57v-2zm5.14 0v2h2.56v-2zm5.13 0v2h2.57v-2zm5.14 0v2h2.57v-2zm5.13 0v2h2.57v-2zm5.14 0v2h2.57v-2zm5.14 0v2H211v-2zm5.13 0v2h2.57v-2zm6.8 0h-1.66v2h1.09l.77.48 1.05-1.7zm-67.15 0l-1.57 1 1.05 1.7 1.09-.67h.72v-2zm-79.64 2v2.57h2V105zm224.42.37v2.57h2v-2.57zm-74.19-.22l-1.06 1.7 2.18 1.35 1.06-1.7zm-74.34.19l-2.19 1.36 1.06 1.69 2.18-1.39zm78.7 2.52l-1.06 1.7 2.19 1.35 1-1.7zm-83.07.19l-2.18 1.35 1.05 1.7 2.19-1.35zm-71.52 2.09v2.57h2v-2.57zm224.42.36v2.5h2v-2.57zm-65.47.06l-1 1.7 2.18 1.36 1.06-1.7zm-91.79.2l-2.18 1.35 1 1.7 2.18-1.35zm96.16 2.51l-1.06 1.7 2.18 1.33 1.05-1.7zm-100.53.19l-2.18 1.36 1.06 1.7 2.18-1.36zm-60.79 2.11v-.3h-2V117l2.17.69.6-1.91zm165.68.41l-1.05 1.7 2.18 1.35 1-1.7zm-109.24.17l-2.18 1.35 1 1.7 2.18-1.35zm-53.21.41l-.6 1.91 2.45.77.6-1.91zm215.63.11l-2.45.77.6 1.91 2.45-.77zM83.68 118.1l-.6 1.91 2.45.77.6-1.9zm205.83.11l-2.45.78.6 1.9 2.45-.77zm-43.9.45l-1.06 1.7 2.18 1.36 1.06-1.7zm-118 .2l-2.18 1.35 1.06 1.7 2.18-1.35zm-39 .79l-.6 1.91 2.45.77.6-1.91zm196 .11l-2.45.77.61 1.91 2.44-.77zm-191.13 1.43l-.6 1.91 2.45.77.6-1.91zm186.23.11l-2.44.77.6 1.91 2.45-.77zm-29.74.07l-1.05 1.7 2.18 1.35 1-1.7zm-126.71.19l-2.18 1.36 1 1.7 2.18-1.36zm-24.88 1.18l-.61 1.9 2.45.77.61-1.9zm176.44.11l-2.45.77.6 1.9 2.45-.77zm-171.55 1.43l-.6 1.91 2.45.77.6-1.91zm166.65.11l-2.45.77.6 1.91 2.45-.77zm-15.58-.31l-1.06 1.7 2.18 1.35 1.06-1.7zm-135.44.19l-2.19 1.35 1.06 1.7 2.18-1.35zm-10.73 1.55l-.6 1.91 2.45.77.6-1.91zm156.85.11l-2.45.77.6 1.91 2.45-.77zm-150.49 1l-.9.56-.56-.17-.6 1.9 1.43.46 1.69-1zm145.72.9l.06-.09-.11-.07-.08-.24-.2.06-1.22-.75-1.05 1.69 2 1.25 1.08-.35zM74.56 22.81l-1 1.54v1h2v-2.54zm222.65 93l.6 1.91L300 117v-1.76h-2v.3z" fill="#f7eadc"/><path d="M42.9 134.18l8.73-13.45V96.5h3.87v25.37L48.26 133a3.87 3.87 0 0 1-5.36 1.18z" fill="#58442d"/><path fill="#6b5137" d="M68.98 117.65H50.57v-17.13h18.41z"/><path fill="#a58057" d="M69.4 120.06h-9.15V98.11h9.15z"/><path d="M330.63 134.18l-8.73-13.45V96.5H318v25.37l7.27 11.13a3.87 3.87 0 0 0 5.36 1.18z" fill="#58442d"/><path fill="#6b5137" d="M304.56 100.53h18.41v17.13h-18.41z"/><path fill="#6b5137" d="M304.14 101.56h7.9v21.95h-7.9z"/><path fill="#a58057" d="M304.14 98.12h9.15v21.95h-9.15z"/><path d="M242.89 320.16H130.64a16.49 16.49 0 0 1-16.49-16.49V144.59h145.23v159.07a16.49 16.49 0 0 1-16.49 16.5z" fill="#6b5137"/><path d="M132.33 315a13.5 13.5 0 0 1-13.49-13.49V149.74h135.85v151.78A13.5 13.5 0 0 1 241.2 315z" fill="none" stroke="#a58057" stroke-miterlimit="10"/><path fill="#ebded1" d="M114.15 144.59h145.23v20.34H114.15z"/><path d="M170.24 216.57a5.33 5.33 0 0 1-5.33-5.33V109.16h10.65v102.08a5.33 5.33 0 0 1-5.32 5.33z" fill="#fcba70"/><path fill="#e8a256" d="M169.16 109.16h2.15v91.81h-2.15z"/><path d="M174.06 194.64l-9.79 2A5.45 5.45 0 0 0 160 203a5.45 5.45 0 0 0 6.42 4.27l9.79-2a5.45 5.45 0 0 0 4.27-6.42 5.45 5.45 0 0 0-6.42-4.21z" fill="#ffcb92"/><path fill="#c98d4b" d="M164.91 109.16h10.65v3.38h-10.65z"/><path d="M203.3 229.48a5.33 5.33 0 0 0 5.33-5.33v-115H198v115a5.33 5.33 0 0 0 5.3 5.33z" fill="#fcba70"/><path fill="#e8a256" d="M204.37 213.87h-2.15V109.15h2.15z"/><path d="M207.12 207.55l-9.79 2a5.45 5.45 0 0 0-4.27 6.42 5.45 5.45 0 0 0 6.42 4.27l9.79-2a5.45 5.45 0 0 0 4.27-6.42 5.45 5.45 0 0 0-6.42-4.27z" fill="#ffcb92"/><path fill="#c98d4b" d="M197.97 109.16h10.65v3.38h-10.65z"/><path d="M66.16 372l-4.42 15.11a16.61 16.61 0 0 0 15.94 21.27h109.1V372z" fill="#8c6c49"/><path d="M66.16 372a11 11 0 0 0 8.24 3.74h112.37V372z" fill="#6b5137"/><path d="M307.38 372l4.42 15.11a16.61 16.61 0 0 1-15.94 21.27H186.77V372z" fill="#8c6c49"/><path d="M307.38 372a11 11 0 0 1-8.24 3.74H186.77V372z" fill="#6b5137"/><path fill="#f7eadc" d="M66.16 366.3h1.94v2h-1.94z"/><path d="M301.55 368.3h-3.89v-2h3.89zm-7.78 0h-3.89v-2h3.89zm-7.78 0h-3.89v-2h3.9zm-7.78 0h-3.89v-2h3.89zm-7.78 0h-3.89v-2h3.89zm-7.78 0h-3.89v-2h3.89zm-7.78 0H251v-2h3.89zm-7.78 0h-3.89v-2h3.89zm-7.78 0h-3.91v-2h3.89zm-7.78 0h-3.89v-2h3.89zm-7.78 0h-3.89v-2h3.89zm-7.78 0h-3.89v-2h3.89zm-7.78 0h-3.89v-2h3.89zm-7.78 0h-3.89v-2h3.89zm-7.78 0h-3.89v-2h3.89zm-7.78 0h-3.89v-2h3.89zm-7.78 0h-3.89v-2H177zm-7.78 0h-3.89v-2h3.89zm-7.78 0h-3.89v-2h3.89zm-7.78 0h-3.93v-2h3.89zm-7.78 0H142v-2h3.89zm-7.78 0h-3.89v-2h3.89zm-7.78 0h-3.89v-2h3.89zm-7.78 0h-3.89v-2h3.89zm-7.78 0h-3.89v-2h3.89zm-7.78 0h-3.89v-2H107zm-7.78 0h-3.94v-2h3.89zm-7.78 0h-3.94v-2h3.89zm-7.78 0h-3.95v-2h3.89zm-7.78 0H72v-2h3.89z" fill="#f7eadc"/><path fill="#f7eadc" d="M305.44 366.3h1.94v2h-1.94z"/><path d="M300 405.81h-3.74v-2H300zm-7.48 0h-3.74v-2h3.74zm-7.48 0h-3.74v-2h3.74zm-7.48 0h-3.74v-2h3.74zm-7.48 0h-3.74v-2h3.74zm-7.48 0h-3.74v-2h3.74zm-7.48 0h-3.74v-2h3.74zm-7.48 0h-3.74v-2h3.74zm-7.48 0h-3.74v-2h3.74zm-7.48 0H229v-2h3.74zm-7.48 0h-3.74v-2h3.74zm-7.48 0H214v-2h3.74zm-7.48 0h-3.74v-2h3.74zm-7.48 0h-3.74v-2h3.74zm-7.48 0h-3.74v-2h3.74zm-7.48 0h-3.7v-2h3.74zm-7.48 0h-3.74v-2h3.74zm-7.48 0h-3.74v-2h3.74zm-7.48 0h-3.74v-2h3.74zm-7.48 0h-3.74v-2h3.74zm-7.48 0h-3.7v-2h3.74zm-7.48 0h-3.74v-2H143zm-7.48 0h-3.74v-2h3.74zm-7.48 0h-3.74v-2H128zm-7.48 0h-3.74v-2h3.74zm-7.48 0h-3.7v-2h3.7zm-7.48 0h-3.74v-2h3.74zm-7.48 0h-3.7v-2h3.74zm-7.48 0h-3.7v-2h3.74zm-7.48 0h-3.7v-2h3.74zm-7.48 0h-3.7v-2h3.74z" fill="#f7eadc"/><path fill="#ad9d8e" d="M66.27 265.72h42.5v3.24h-42.5z"/><circle cx="87.52" cy="118.18" r="5.65" fill="#cebba9"/><circle cx="87.52" cy="118.18" r="3.12" fill="#58442d"/><path d="M99.75 168.56H75.29a8.59 8.59 0 1 1 0-17.18h24.46a8.59 8.59 0 0 1 0 17.18zm-24.46-12.67a4.07 4.07 0 0 0 0 8.15h24.46a4.07 4.07 0 0 0 0-8.15z" fill="#cebba9"/><path fill="#58442d" d="M73 162.73h29.05v212.96H73z"/><path d="M87.52 149.92h-2.18a2.32 2.32 0 0 1-2.34-2.49l2-26.95a1.5 1.5 0 0 1 1.49-1.39h1z" fill="#ebded1"/><path d="M87.52 149.92h2.18a2.32 2.32 0 0 0 2.3-2.49l-2-26.95a1.5 1.5 0 0 0-1.49-1.39h-1z" fill="#ebded1"/><path d="M87.52 158.47a1.94 1.94 0 0 1-1.94-1.94v-8.32a1.36 1.36 0 0 1 1.36-1.36h1.15a1.36 1.36 0 0 1 1.36 1.36v8.32a1.94 1.94 0 0 1-1.93 1.94z" fill="#ebded1"/><path d="M67.49 251.26v29.38a3.4 3.4 0 0 0 3.4 3.4h33.25a3.4 3.4 0 0 0 3.4-3.4v-29.38a3.4 3.4 0 0 0-3.4-3.4H70.89a3.4 3.4 0 0 0-3.4 3.4zM102 280.15H73a1.65 1.65 0 0 1-1.65-1.65v-25.1a1.65 1.65 0 0 1 1.65-1.65h29a1.65 1.65 0 0 1 1.65 1.65v25.1a1.65 1.65 0 0 1-1.65 1.65z" fill="#cab8a6"/><path fill="#ebded1" d="M67.49 265.72h3.89v3.24h-3.89z"/><path fill="#ebded1" d="M107.55 268.96h-3.89v-3.24h3.89z"/><path fill="#ad9d8e" d="M307.26 268.96h-42.5v-3.24h42.5z"/><circle cx="286.01" cy="118.18" r="5.65" fill="#cebba9"/><circle cx="286.01" cy="118.18" r="3.12" fill="#58442d"/><path d="M298.24 168.56h-24.45a8.59 8.59 0 1 1 0-17.18h24.45a8.59 8.59 0 1 1 0 17.18zm-24.45-12.67a4.07 4.07 0 0 0 0 8.15h24.45a4.07 4.07 0 0 0 0-8.15z" fill="#cab8a6"/><path fill="#58442d" d="M300.54 375.69h-29.05V162.73h29.05z"/><path d="M286 149.92h2.18a2.32 2.32 0 0 0 2.31-2.49l-2-26.95a1.5 1.5 0 0 0-1.49-1.38h-1z" fill="#ebded1"/><path d="M286 149.92h-2.18a2.32 2.32 0 0 1-2.31-2.49l2-26.95a1.5 1.5 0 0 1 1.49-1.39h1z" fill="#ebded1"/><path d="M286 158.47a1.94 1.94 0 0 0 1.94-1.94v-8.32a1.36 1.36 0 0 0-1.36-1.36h-1.15a1.36 1.36 0 0 0-1.36 1.36v8.32a1.94 1.94 0 0 0 1.93 1.94z" fill="#ebded1"/><path d="M302.64 247.86h-33.25a3.4 3.4 0 0 0-3.4 3.4v29.38a3.4 3.4 0 0 0 3.4 3.4h33.25a3.4 3.4 0 0 0 3.4-3.4v-29.38a3.4 3.4 0 0 0-3.4-3.4zm-32.76 30.64v-25.1a1.65 1.65 0 0 1 1.65-1.65h29a1.65 1.65 0 0 1 1.65 1.65v25.1a1.65 1.65 0 0 1-1.65 1.65h-29a1.65 1.65 0 0 1-1.65-1.65z" fill="#cab8a6"/><path fill="#ebded1" d="M306.05 268.96h-3.89v-3.24h3.89z"/><path fill="#ebded1" d="M265.98 265.72h3.89v3.24h-3.89z"/><path fill="#ebded1" d="M158.59 52.73h56.35V86.7h-56.35z"/><path fill="#8c6c49" d="M162.46 84.6h-1.77v-1.77h.97v.8h.8v.97z"/><path d="M161.66 80.45h-1v-2.39h1zm0-4.77h-1v-2.39h1zm0-4.77h-1v-2.39h1zm0-4.77h-1v-2.39h1zm0-4.77h-1V59h1z" fill="#8c6c49"/><path fill="#8c6c49" d="M161.66 56.6h-.97v-1.77h1.77v.97h-.8v.8z"/><path d="M208.52 55.8H206v-1h2.56zm-5.12 0h-2.56v-1h2.56zm-5.12 0h-2.56v-1h2.56zm-5.12 0h-2.56v-1h2.56zm-5.12 0h-2.56v-1H188zm-5.12 0h-2.56v-1h2.56zm-5.12 0h-2.56v-1h2.56zm-5.12 0h-2.56v-1h2.56zm-5.12 0H165v-1h2.56z" fill="#8c6c49"/><path fill="#8c6c49" d="M212.84 56.6h-.97v-.8h-.8v-.97h1.77v1.77z"/><path d="M212.84 80.45h-1v-2.39h1zm0-4.77h-1v-2.39h1zm0-4.77h-1v-2.39h1zm0-4.77h-1v-2.39h1zm0-4.77h-1V59h1z" fill="#8c6c49"/><path fill="#8c6c49" d="M212.84 84.6h-1.77v-.97h.8v-.8h.97v1.77z"/><path d="M208.52 84.6H206v-1h2.56zm-5.12 0h-2.56v-1h2.56zm-5.12 0h-2.56v-1h2.56zm-5.12 0h-2.56v-1h2.56zm-5.12 0h-2.56v-1H188zm-5.12 0h-2.56v-1h2.56zm-5.12 0h-2.56v-1h2.56zm-5.12 0h-2.56v-1h2.56zm-5.12 0H165v-1h2.56z" fill="#8c6c49"/><path d="M172.42 60.8h28.7a.5.5 0 0 0 .5-.5.5.5 0 0 0-.5-.5h-28.7a.5.5 0 0 0-.5.5.5.5 0 0 0 .5.5z" fill="#cfbbaa"/><path d="M166.26 67.07h41a.5.5 0 0 0 .5-.5.5.5 0 0 0-.5-.5h-41a.5.5 0 0 0-.5.5.5.5 0 0 0 .5.5z" fill="#cfbbaa"/><path d="M172.42 73.35h28.7a.5.5 0 0 0 .5-.5.5.5 0 0 0-.5-.5h-28.7a.5.5 0 0 0-.5.5.5.5 0 0 0 .5.5z" fill="#cfbbaa"/><path d="M166.26 79.63h41a.5.5 0 0 0 .5-.5.5.5 0 0 0-.5-.5h-41a.5.5 0 0 0-.5.5.5.5 0 0 0 .5.5z" fill="#cfbbaa"/><circle cx="81.23" cy="380.28" r="3.23" fill="#cab8a6"/><circle cx="97.69" cy="380.28" r="3.23" fill="#cab8a6"/><circle cx="292.31" cy="380.28" r="3.23" fill="#cab8a6"/><circle cx="275.85" cy="380.28" r="3.23" fill="#cab8a6"/><path d="M2.39 165.63V290.5c0 8.11 1.69 26.34 5 33.76a34.2 34.2 0 0 0 31.31 20.43h16.8V140.46z" fill="#6b5137"/><path d="M52.56 312.23h-3.23v-2h3.23zm-6.45 0h-3.23v-2h3.22zm-6.46 0h-3.23v-2h3.23zm-6.46 0H30v-2h3.23zm-6.46 0h-3.22v-2h3.23zm-6.46 0h-3.21v-2h3.23zm-6.46 0H10.6v-2h3.23zm-6.46 0h-3.2v-2h3.22z" fill="#f7eadc"/><path fill="#58442d" d="M55.5 140.46v204.23h-4.94V142.8l4.94-2.34z"/><path d="M2.39 188.56h22.86A30.26 30.26 0 0 0 55.5 158.3v-17.84H14.66a12.27 12.27 0 0 0-12.27 12.26z" fill="#8c6c49"/><path d="M52.92 140.46v17.84A27.7 27.7 0 0 1 25.25 186H2.39v2.58h22.86A30.26 30.26 0 0 0 55.5 158.3v-17.84z" fill="#a58057"/><path d="M371.14 165.63V290.5c0 8.11-1.69 26.34-5 33.76a34.2 34.2 0 0 1-31.31 20.43H318V140.46z" fill="#6b5137"/><path d="M321 310.23h3.23v2H321zm6.46 0h3.23v2h-3.23zm6.46 0h3.23v2h-3.23zm6.45 0h3.23v2h-3.23zm6.46 0H350v2h-3.2zm6.46 0h3.23v2h-3.23zm6.46 0h3.23v2h-3.23zm6.46 0h3.23v2h-3.23z" fill="#f7eadc"/><path fill="#58442d" d="M318.03 140.46v204.23h4.94V142.8l-4.94-2.34z"/><path d="M371.14 188.56h-22.85A30.26 30.26 0 0 1 318 158.3v-17.84h40.85a12.27 12.27 0 0 1 12.27 12.27z" fill="#8c6c49"/><path d="M320.61 140.46v17.84a27.7 27.7 0 0 0 27.68 27.7h22.86v2.58h-22.86A30.26 30.26 0 0 1 318 158.3v-17.84z" fill="#a58057"/><path fill="#58442d" d="M55.5 260.87H0v-26.04h55.5z"/><path fill="#58442d" d="M318.03 234.84h55.5v26.04h-55.5z"/></g></g></svg>