<svg xmlns="http://www.w3.org/2000/svg" viewBox="0 -0.22978782653808594 104.64387512207031 57.98979187011719"><title>Depositphotos_18467621_16_tx</title><g data-name="Layer 2"><g data-name="Layer 1" fill="#fff"><path d="M39.69 9.44s.88-3.51 3.71-4.72c2.09-.89 8.08-3.66 12-4.62a2.39 2.39 0 0 1 2.68.84 2.26 2.26 0 0 1-1.47 3.55c-3.16 1-11.08 3.13-11.08 3.13l-.33 1.83z"/><path d="M97.12 37.29c-6.05-3.6-6.55-10.72-7.06-13.26-.66-3.31-2.27-4-6.84-4H70.43c-2.39 0-5.22 3.75-5.88 5.25s-7.53 1.37-9-1.5c-2.36-4.72-3.92-11.34-8.06-11.34H37.34S12.48 29.53 9.87 32.27C8 34.23 2.18 36.45 0 38.73h99.46c-.69-.44-1.46-.92-2.34-1.44zm7.11 5.8H.75C4 47.15 15.16 57.76 42.09 57.76h57.69c4.14 0 4.84-10.11 4.84-12.61a4.83 4.83 0 0 0-.39-2.07z"/></g></g></svg>