<svg xmlns="http://www.w3.org/2000/svg" viewBox="-0.3651909828186035 -0.32161712646484375 41.13519287109375 40.39161682128906"><title>Depositphotos_12218516_13_ic</title><path d="M26.68 32.3a1.27 1.27 0 0 1-.47 1.7l-4.83 2.79a1.27 1.27 0 0 1-1.73-.46l-.7-1.22a8.28 8.28 0 0 0-4.52-3.44l.2-.09 10.46-6 .18-.13a8.31 8.31 0 0 0 .73 5.63zm1.63 6.22c.33.56 0 .72-.59.85l-3 .54c-.64.13-1 .16-1.32-.41l-.62-1.07c-.32-.56-.26-.79.3-1.12l2.68-1.55c.56-.33.79-.26 1.12.3zm12.46-.22a1.47 1.47 0 0 1-1.47 1.47h-6.74a1.47 1.47 0 0 1 0-2.93h6.74a1.47 1.47 0 0 1 1.46 1.46zM24.24 24.14l-10.45 6a2.36 2.36 0 0 1-3.33-1L.31 7.78a2.56 2.56 0 0 1 .9-3.44l6.94-4a2.56 2.56 0 0 1 3.43.94L25 20.76a2.36 2.36 0 0 1-.76 3.38zm-2.39-3.47L9.74 3.08A.81.81 0 1 0 8.4 4l12.12 17.6a.81.81 0 1 0 1.34-.92z" fill="#fff" data-name="Layer 2"/></svg>