<svg xmlns="http://www.w3.org/2000/svg" viewBox="0 -0.0009641647338867188 224.29998779296875 224.45096111297607"><title>Depositphotos_108861120_09</title><g data-name="Layer 2"><g data-name="Layer 1"><path d="M173.75 37.15a8.55 8.55 0 0 0-13-7.25 13.09 13.09 0 0 0-12.85-10.7 13 13 0 0 0-13.05 13.05 13.06 13.06 0 0 0 13.05 13h19.85a8.4 8.4 0 0 0 3.5-2.15 8.18 8.18 0 0 0 2.5-5.95z" fill="#f4f1ea" data-name="Layer0 8 MEMBER 1 MEMBER 0 FILL"/><path data-name="Layer0 8 MEMBER 1 MEMBER 0 1 STROKES" d="M147.9 45.3a13.06 13.06 0 0 1-13.05-13 13 13 0 0 1 13.05-13A13.09 13.09 0 0 1 160.75 30a8.32 8.32 0 0 1 4.5-1.25 8.45 8.45 0 0 1 8.5 8.5 8.18 8.18 0 0 1-2.5 6 8.4 8.4 0 0 1-3.5 2.15z" fill="none" stroke="#49473b" stroke-linecap="round" stroke-linejoin="round" stroke-width="2"/><g data-name="Layer0 8 MEMBER 1 MEMBER 1 FILL"><path d="M112.15 49.05h4.55l36.8 48.05h5.55v126.35h30.45V97.1l-36.8-48H149L112.15 1z" fill="#c4b9ae"/><path d="M116.7 49.05h-4.55V1h-3.75L90.8 24h-3.7L31.9 96.1v127.35h127.15V97.1h-5.55z" fill="#aaa198"/></g><path data-name="Layer0 8 MEMBER 1 MEMBER 1 1 STROKES" d="M159.05 223.45V97.1h-5.55l-36.8-48h-4.55V1h-3.75L90.83 24H87.1L31.9 96.1v127.35h157.6V97.1l-36.8-48H149L112.15 1" fill="none" stroke="#49473b" stroke-linecap="round" stroke-linejoin="round" stroke-width="2"/><path d="M44.5 79.65l-11.6 15.1-20.7 101.8h22.1v26.8h11.85V196.7H62.6v26.65h11.85V196.7h16.6L68.5 85.85l-11.35 56z" fill-opacity=".2" data-name="Layer0 8 MEMBER 1 MEMBER 2 FILL"/><path d="M31.9 96.1v7.5l61-60.95-11.4-11.4z" fill-opacity=".2" data-name="Layer0 8 MEMBER 1 MEMBER 3 FILL"/><g data-name="Layer0 8 MEMBER 1 MEMBER 4 FILL"><path d="M51.4 208.55l11.85-11.85H51.4z" fill="#494739"/><path d="M63.25 196.7L51.4 208.55v14.8h11.85z" fill="#71675d"/><path d="M51.4 196.7h28.45l-5.55-27.15-28.3-28.3-11.25 55.45z" fill="#6c8277"/><path d="M57.3 85.85L46 141.25l28.3 28.3z" fill="#87a395"/></g><path data-name="Layer0 8 MEMBER 1 MEMBER 4 1 STROKES" d="M74.33 169.58l-17-83.72L46 141.28m28.3 28.3l5.52 27.13H63.25v26.65H51.4V196.7H34.75L46 141.28m5.38 67.28l11.87-11.86H51.4" fill="none" stroke="#49473b" stroke-linecap="round" stroke-linejoin="round" stroke-width="2"/><g data-name="Layer0 8 MEMBER 1 MEMBER 5 FILL"><path d="M23.1 196.55v11.85L35 196.55z" fill="#494739"/><path d="M35 223.35v-26.8L23.1 208.4v14.95z" fill="#71675d"/><path d="M35 196.55h22.1l-28-137.8L1 196.55h34z" fill="#87a395"/></g><path data-name="Layer0 8 MEMBER 1 MEMBER 5 1 STROKES" d="M35 196.55h22.1l-28-137.8L1 196.55h34v26.8H23.1v-26.8m11.85 0L23.1 208.4" fill="none" stroke="#49473b" stroke-linecap="round" stroke-linejoin="round" stroke-width="2"/><path d="M179.15 83.55l-11.8 58.25-9.15-44.7h-4.6l-20.2 99.6H150v26.65h11.85V196.7h16.45v26.65h11.8v-26.8h22.1l-19.35-95.1z" fill-opacity=".2" data-name="Layer0 8 MEMBER 1 MEMBER 6 FILL"/><g data-name="Layer0 8 MEMBER 1 MEMBER 7 FILL"><path d="M161.1 196.7h28.45l-11.3-55.45-28.25 28.2-5.5 27.25z" fill="#6c8277"/><path d="M178.25 141.25L167 85.85l-17 83.6z" fill="#87a395"/><path d="M173 196.7h-11.9v26.65H173z" fill="#71675d"/></g><path data-name="Layer0 8 MEMBER 1 MEMBER 7 1 STROKES" d="M150 169.48l17-83.62 11.28 55.4 11.28 55.45H173v26.65h-11.9V196.7h-16.6zm23 27.22h-11.9" fill="none" stroke="#49473b" stroke-linecap="round" stroke-linejoin="round" stroke-width="2"/><g data-name="Layer0 8 MEMBER 1 MEMBER 8 FILL"><path d="M79.15 223.35H101V156.7l-21.85 66.65m43.7 0l-1.75-5.25-20.1-61.4v66.65h21.85m-1.75-5.25l1.75 5.25h69.8l-19-57.8z" fill="#d67666"/><path d="M173.7 165.55l-2.9-8.85H101l20.1 61.4z" fill="#f08573"/></g><path data-name="Layer0 8 MEMBER 1 MEMBER 8 1 STROKES" d="M101 156.7h69.8l2.9 8.85 19 57.8H79.15L101 156.7l20.13 61.43 1.72 5.22m-21.85 0V156.7" fill="none" stroke="#49473b" stroke-linecap="round" stroke-linejoin="round" stroke-width="2"/><g data-name="Layer0 8 MEMBER 1 MEMBER 9 FILL"><path d="M201.2 223.35v-15l-11.8-11.8v26.8z" fill="#71675d"/><path d="M201.2 208.35v-11.8h-11.8z" fill="#494739"/><path d="M201.2 196.55h22.1l-28-137.8-28 137.8h33.9z" fill="#87a395"/></g><path data-name="Layer0 8 MEMBER 1 MEMBER 9 1 STROKES" d="M201.2 208.35v-11.8h-11.8l11.8 11.8v15h-11.8v-26.8h-22.1l28-137.8 28 137.8h-22.1" fill="none" stroke="#49473b" stroke-linecap="round" stroke-linejoin="round" stroke-width="2"/><path d="M47.2 6.6a18.27 18.27 0 0 0-5.55 13.5 21 21 0 0 0 .25 3.25 11.77 11.77 0 0 0-13.75 2 11.23 11.23 0 0 0-3.4 8.25 11.23 11.23 0 0 0 3.4 8.25 11.11 11.11 0 0 0 7.1 3.35h51a11.23 11.23 0 0 0 6.6-2.65q.41-.36.8-.75a11.23 11.23 0 0 0 3.4-8.25 11.58 11.58 0 0 0-10.7-11.6 6.27 6.27 0 0 0 .4-2.25 5.75 5.75 0 0 0-1.7-4.15A5.65 5.65 0 0 0 80.9 14a5.33 5.33 0 0 0-2 .35 18.31 18.31 0 0 0-4.7-7.75 19.07 19.07 0 0 0-27 0z" fill="#f4f1ea" data-name="Layer0 8 MEMBER 1 MEMBER 10 FILL"/><path data-name="Layer0 8 MEMBER 1 MEMBER 10 1 STROKES" d="M36.4 45.3h-1.15a11.11 11.11 0 0 1-7.1-3.35 11.23 11.23 0 0 1-3.4-8.25A11.61 11.61 0 0 1 36.4 22a11.2 11.2 0 0 1 5.5 1.35 21 21 0 0 1-.25-3.25A18.27 18.27 0 0 1 47.2 6.6a19.07 19.07 0 0 1 27 0 18.31 18.31 0 0 1 4.8 7.7 5.33 5.33 0 0 1 2-.35 5.65 5.65 0 0 1 4.15 1.7 5.75 5.75 0 0 1 1.7 4.15 6.27 6.27 0 0 1-.4 2.25 11.58 11.58 0 0 1 10.7 11.6 11.23 11.23 0 0 1-3.4 8.25q-.39.39-.8.75a11.23 11.23 0 0 1-6.6 2.65H36.4z" fill="none" stroke="#49473b" stroke-linecap="round" stroke-linejoin="round" stroke-width="2"/></g></g></svg>