<svg xmlns="http://www.w3.org/2000/svg" viewBox="0 -0.036110877990722656 87.5353012084961 49.34123229980469"><title>Depositphotos_54501297_04</title><g data-name="Layer 2"><g data-name="Layer 1"><g data-name="Layer 2"><g data-name="Layer 2-2"><path d="M2.69 35.43v7.75h6.25a7.13 7.13 0 0 1 14.25 0H61.7V43a7.12 7.12 0 1 1 14.24 0v.17h6.43V31.26z" fill="#fdc48e"/><path fill="#fdc48e" d="M.68 39.79l3.17-.11-.75 3.66-2.33-.66-.09-2.89z"/><path fill="#fdc48e" d="M2.6 24.35l10-18.5 16.77.24 52.9 26.75-11.08 2.67-68.5-.08-.09-11.08z"/><path fill="#a3ddf2" d="M29.78.04h57.06v32.8H29.78z"/><path fill="#fff" d="M29.78 32.85h4.67v.68h-4.67z"/><circle cx="68.71" cy="43.31" r="5.72" fill="#a3ddf2"/><circle cx="16.14" cy="43.31" r="5.72" fill="#a3ddf2"/><rect x="36.72" y="37.52" width="17.19" height="7.25" rx=".62" ry=".62" fill="#84cfcc"/><path d="M87.35 0a.35.35 0 0 0-.27 0h-57.3a.34.34 0 0 0-.34.34l-.07 5H12.7a.34.34 0 0 0-.3.18L2.26 24.35a.33.33 0 0 0 0 .17v14.59H.34a.34.34 0 0 0-.34.34v2a2.22 2.22 0 0 0 2.22 2.18h6.45a.34.34 0 0 0 .33-.34 7.13 7.13 0 0 1 14.25 0 .34.34 0 0 0 .34.34h12.64v.2A1.22 1.22 0 0 0 37.45 45H53a1.22 1.22 0 0 0 1.22-1.22v-.2h7a.34.34 0 0 0 .34-.34 7.13 7.13 0 0 1 14.25 0 .34.34 0 0 0 .34.34h6.1a.34.34 0 0 0 .34-.34v-9.71h4.57a.34.34 0 0 0 .34-.34V.37a.34.34 0 0 0-.15-.37zm-58 42.88h-5.41a7.81 7.81 0 0 0-15.6 0H2.22a1.54 1.54 0 0 1-1.54-1.5v-1.59h1.87a.34.34 0 0 0 .34-.34V24.86H26a.34.34 0 0 0 .34-.34V9.86a.34.34 0 0 0-.34-.34h-9.86a.34.34 0 0 0 0 .68h9.48v14H3.12L12.9 6.09h16.47zm11 1.42h-2.9a.54.54 0 0 1-.54-.54v-2.39h3.47zm0-3.68h-3.44v-2.15a.54.54 0 0 1 .54-.54h2.93zm8.94 3.68h-8.23v-3h8.25zm0-3.68h-8.23v-2.69h8.25zm4.21 3.14a.54.54 0 0 1-.54.54H50v-3h3.53zm0-3.14H50v-2.69h3a.54.54 0 0 1 .54.54zm33.31-7.84h-52l48.33-29a.34.34 0 1 0-.3-.61h-.05L33.37 32.89V33a.28.28 0 0 0 0 .07.42.42 0 0 0 0 .07v.06l.09.08a.33.33 0 0 0 .15 0h48.32v9.42h-5.42a7.81 7.81 0 0 0-15.6 0h-6.7v-4.23A1.22 1.22 0 0 0 53 37.25H37.45a1.22 1.22 0 0 0-1.22 1.22v4.48H30V5.76l.07-5h56.77z" fill="#fff"/><path d="M68.71 37.3a6 6 0 0 0 0 12 6 6 0 0 0 6-5.66v-.34a6 6 0 0 0-6-6zm5.3 6A5.09 5.09 0 1 1 74 43z" fill="#fff"/><path d="M16.14 37.3a6 6 0 0 0 0 12 6 6 0 0 0 6-5.66v-.34a6 6 0 0 0-6-6zm5.31 6a5.21 5.21 0 1 1 0-.21z" fill="#fff"/><path d="M26 27.73h-6a.34.34 0 0 0 0 .68h6a.34.34 0 0 0 0-.68z" fill="#fff"/></g></g></g></g></svg>