<svg xmlns="http://www.w3.org/2000/svg" viewBox="0 0 156.29000854492188 99.91678619384766"><title>Depositphotos_73224967_25</title><g data-name="Layer 2"><g data-name="Layer 1"><g data-name="Layer 2"><path d="M61.48 5.23H38v15.05h23.48zM57 15.78H42.49V9.73H57z" fill="#fff"/><path d="M75.29 21.1h1.88v31.26l49.09-44.44.18-.16 1.71-1.55 1.55 1.55.21.21-3.66 4-38.84 43h6.07l32.77-36.21V26h-2.47v8.49h3.72a6 6 0 1 1-5.43 8.51h-2.58a10.9 10.9 0 1 0 14-12.87V26h-2.71V13.75l5.37-5.93L128.31 0 81.67 42.22V16.6H70.79v38.33h4.5z" fill="#f48729"/><path d="M87.41 54.93h-19.8V24.42H42.27a18.27 18.27 0 0 0-14.55 8.43l-13.18 23h-4.17A10.38 10.38 0 0 0 0 66.21V91h18.34a20.11 20.11 0 0 1-1-2.25 20.36 20.36 0 0 1-.67-2.25H4.5V66.21a5.88 5.88 0 0 1 5.87-5.87h6.78l14.48-25.25a13.77 13.77 0 0 1 10.64-6.16h20.84v30.5h88.68v13.38a13.66 13.66 0 0 1-12.66 13.61 20.69 20.69 0 0 1-1.65 4.58h.66a18.17 18.17 0 0 0 18.15-18.15V54.93z" fill="#fff"/><path d="M98.65 86.45H57.18A20.87 20.87 0 0 1 55.54 91h44.74a20.31 20.31 0 0 1-1-2.25 20.81 20.81 0 0 1-.63-2.3z" fill="#fff"/><path d="M59.21 32.83H42.27A10 10 0 0 0 35 37L22.08 59.59h37.13zm-21.92 5.5a7.66 7.66 0 0 1 5-2.88h14.29V57h-30z" fill="#fff"/><path d="M36.94 63.88A17.79 17.79 0 0 0 19.8 86.45a17.48 17.48 0 0 0 .79 2.25 17.81 17.81 0 0 0 32.68 0 17.48 17.48 0 0 0 .79-2.25 17.79 17.79 0 0 0-17.12-22.57zm12.4 22.57a13.06 13.06 0 0 1-1.13 2.25 13.2 13.2 0 1 1 1.13-2.25z" fill="#fff"/><path d="M36.94 74.29a7.38 7.38 0 1 0 7 5.13 7.38 7.38 0 0 0-7-5.13zm4.15 12.16a6.33 6.33 0 1 1 2.19-4.78 6.33 6.33 0 0 1-2.19 4.78z" fill="#fff"/><path d="M118.88 63.88a17.79 17.79 0 0 0-17.14 22.57 17.34 17.34 0 0 0 .8 2.25 17.59 17.59 0 0 0 1.17 2.3 17.8 17.8 0 0 0 31.51-2.25 17.33 17.33 0 0 0 .78-2.25 17.79 17.79 0 0 0-17.14-22.57zm12.4 22.57a13.13 13.13 0 0 1-1.13 2.25 12.59 12.59 0 1 1 1.15-2.22z" fill="#fff"/><path d="M118.88 74.29a7.38 7.38 0 1 0 0 14.77 7.38 7.38 0 1 0 0-14.76zM123 86.45a6.33 6.33 0 1 1 2.19-4.78 6.33 6.33 0 0 1-2.19 4.78z" fill="#fff"/><path d="M8.31 67.57A3.56 3.56 0 1 0 11.87 64a3.56 3.56 0 0 0-3.56 3.57zm6.08 0a2.51 2.51 0 1 1-2.51-2.51 2.51 2.51 0 0 1 2.51 2.51z" fill="#fff"/></g></g></g></svg>