<svg xmlns="http://www.w3.org/2000/svg" viewBox="0 -6.120000839233398 36.98999786376953 282.17999267578125"><title>Depositphotos_42743349_06</title><g data-name="Layer 2"><g data-name="Layer 1"><path d="M2 18.67c.35-22.85 32.71-24.79 33.34.94v116.54c-10.12.22-33.46.07-33.56.07 0-50.78 0-102.06.22-117.56z" fill="#f8b0b5"/><path d="M35.29 19.62C34.91 4.19 19.89-1.1 14 3.07c17.06-.3 15.31 14.63 15.59 31.57.4 24.43.48 91.56.44 101.58 2.74 0 3.26 0 5.25-.06V19.62z" fill="#e6e7e8"/><path d="M1.8 251.39c0-1.87-.17-57.49-.22-114.57 7.09.11 27.71.11 33.45 0V250.5c-.62 25.56-32.89 23.64-33.24.94z" fill="#d1d3d4"/><path d="M35 136.77c-1.49 0-2-.57-5-.55-.06 19 1.4 112.54-.88 120.19-2.87 9.61-15.89 13.18-25.51 3.21 6.89 14.46 30.86 12.84 31.39-9.17V136.77z" fill="#e6e7e8"/><path d="M36.51 19.9c-.14-9-4.84-18.66-16.18-19.81C12.6-.7.25 3.62 0 20.07v230.12c.22 16.44 12.58 20.76 20.3 20 11.34-1.15 16-10.83 16.18-19.81.06-4.05.51-198.73 0-230.47zm-33.83 0C3-2.41 33.57-4.31 34.16 20.86v113.95c-9.56.22-31.6.07-31.69.07 0-49.65 0-99.78.21-114.94zm0 230.39c0-1.84-.16-56.58-.21-112.77 6.72.11 26.25.11 31.69 0v111.89c-.59 25.16-31.15 23.26-31.48.92z" fill="#fff"/><path d="M15.1 5.66a9.24 9.24 0 0 0-5.66 2.78c-1.54 1.48-3.21 3.81-3 6.05a1.39 1.39 0 0 0 2.17 1c1.45-1.13 2.17-3 3.32-4.38a22.9 22.9 0 0 1 3.8-3.7 1 1 0 0 0-.64-1.79zM7.45 238.2a5.13 5.13 0 0 0-.16-1.2 7.24 7.24 0 0 1-.25-.8 1 1 0 0 0-2-.1 6.28 6.28 0 0 1-.27.92 4.5 4.5 0 0 0-.15 1.17c0 .94 0 1.64.87 2.19a1.2 1.2 0 0 0 1.23-.11c.75-.47.7-1.32.68-2.09zm2.76 19.7c-.7-2.47-2-4.44-2.36-7.07-.37-2.36-.25-4.79-.5-7.16a1 1 0 0 0-2-.1c-.53 4.58-1.61 12.72 2.81 15.78a1.3 1.3 0 0 0 2-1.45zm-3.42-93.47a1 1 0 1 0-2-.1 6 6 0 0 0 0 2.94 1.07 1.07 0 0 0 2 .09 5.72 5.72 0 0 0 .06-2.92zM7.1 146c-.07-1.18-2-1.32-2.08-.11-.16 2.21-.56 4.39-.73 6.6-.14 2-.59 4 0 5.93a1.23 1.23 0 0 0 2.26.1c.87-1.79.7-3.91.79-5.87A60.83 60.83 0 0 0 7.1 146zm.05-41.11c0-1.45-2.17-1.23-2.19.18-.14 7.15-1.51 15-.44 22a1.25 1.25 0 0 0 2.47.13c1.13-7.17.26-15.1.17-22.36zM7.35 19a1.22 1.22 0 0 0-1.94 0 3.89 3.89 0 0 0-.55 1 3.83 3.83 0 0 0-.14 1.09A2.16 2.16 0 0 0 5 22.4q-.17-.27-.06 0a1.34 1.34 0 0 0 .32.51 1.32 1.32 0 0 0 2.1.09 2.34 2.34 0 0 0 .52-1.1 3.43 3.43 0 0 0-.5-2.9z" fill="#fff"/></g></g></svg>