<svg xmlns="http://www.w3.org/2000/svg" viewBox="0 0 1190.5999755859375 1190.5999755859375"><path d="M1190.6 1139.9c0 27.9-22.8 50.7-50.7 50.7H50.7c-27.9 0-50.7-22.8-50.7-50.7V50.7C0 22.8 22.8 0 50.7 0h1089.2c27.9 0 50.7 22.8 50.7 50.7v1089.2z" fill="#c84e1b"/><g fill="#edf0df"><path d="M576.1 57.4v64.1h-49.5v256.3h-83.3V121.5H394V57.4h182.1z"/><path d="M784.4 245c0 32.2-.8 55-2.3 68.4-1.5 13.4-6.3 25.6-14.2 36.7-8 11.1-18.8 19.6-32.4 25.5-13.6 5.9-29.4 8.9-47.5 8.9-17.2 0-32.6-2.8-46.2-8.4-13.7-5.6-24.6-14-32.9-25.2-8.3-11.2-13.3-23.4-14.8-36.6-1.6-13.2-2.4-36.3-2.4-69.3v-54.8c0-32.2.8-55 2.3-68.4 1.5-13.4 6.3-25.6 14.2-36.7 8-11.1 18.8-19.6 32.4-25.5 13.6-5.9 29.4-8.9 47.5-8.9 17.1 0 32.6 2.8 46.2 8.4 13.7 5.6 24.6 14 32.9 25.2 8.3 11.2 13.3 23.4 14.8 36.6 1.6 13.2 2.4 36.3 2.4 69.3V245zm-83.3-105.3c0-14.9-.8-24.4-2.5-28.6-1.7-4.2-5-6.2-10.2-6.2-4.4 0-7.7 1.7-10 5-2.3 3.4-3.5 13.3-3.5 29.8v149.6c0 18.6.8 30.1 2.3 34.4 1.5 4.4 5 6.5 10.6 6.5 5.7 0 9.3-2.5 10.9-7.5 1.6-5 2.4-16.9 2.4-35.8V139.7z"/></g><g fill="#edf0df"><path d="M197.8 521.9c-17.5 0-27.1-6.3-27.1-24.6 0-33.7 26.6-65.9 89.2-65.9 11.7 0 42.6 6.6 68.4 6.6 12.4 0 23.6-1.5 30.7-6.1-6.3 11.4-9.9 18.5-21.8 78.5 11.1-8.6 24.1-16 36.2-16 13.7 0 29.1 14.7 29.1 31.7 0 2 0 4.1-.5 6.1l-10.4 48.4c-.8 3-1.3 5.8-1.3 8.1 0 5.6 2.8 9.4 12.7 9.4 10.1 0 23.3-14.2 33.4-22.3h8.6c-11.7 11.7-40.3 45.3-60 45.3-19.8 0-31.4-8.6-31.4-27.6 0-4.1.5-8.1 1.5-12.9l9.6-45.6c.5-2.3.8-4.6.8-6.6 0-9.1-4.8-14.9-11.7-14.9-7.1 0-12.4 2.5-18.7 7.3-4.8 24.8-10.9 56.7-18.7 100.3h-36.5l34.7-161.6c-10.1-1-21.8-2.8-33.4-4.3l-35.7 165.9H209L245.1 453c-28.1 1.3-50.9 11.9-50.9 51.7 0 12.9 3.3 15 3.6 17.2z"/><path d="M436.7 581c0-32.2 13.7-88.7 59.8-88.7 20.8 0 32.4 8.6 32.4 26.3 0 30.9-33.2 48.6-57.3 51.7-.5 4.1-.8 7.9-.8 10.9 0 16.7 8.4 21.8 18.2 21.8 11.9 0 22-6.8 32.4-16.2 0 27.4-22 34.5-47.4 34.5-24.1-.1-37.3-18.6-37.3-40.3zm68.2-75.3c-14.2 0-25.8 28.6-31.2 52.4 23.3-.3 39.8-20.3 40-38.3 0-5.2-1.2-14.1-8.8-14.1z"/><path d="M684.2 455.1L672 511.3h1.8c21 0 36-22.5 36-41.8 0-14.2-8.1-26.6-27.9-26.6-41 0-68.4 23.1-68.4 61.6 0 12.9 3.3 14.9 3.5 17.2-17.5 0-27.1-6.3-27.1-24.6 0-33.7 46.6-65.9 88.9-65.9 39.8 0 57.5 19.8 57.5 40.5 0 14.9-9.1 30.7-25.3 40 20.8 4.1 29.1 21.5 29.1 41.3 0 32.7-22.5 72.5-50.4 72.5-15.2 0-29.9-1.5-29.9-17.5 0-4.3 1-9.6 3.3-16 4.8 7.9 13.4 9.1 17 9.1 13.9 0 25.1-25.1 25.1-46.6 0-16.5-6.3-31.2-23.1-31.2-3.3 0-8.1.3-12.7.8l-20.8 97h-36.5L646.6 460l37.6-4.9z"/><path d="M806 603c9.6 0 18.2-6.8 25.6-18.5 1-18 9.9-28.4 19.3-29.1 9.1-16.5 14.9-39 19.3-58.3l36.7-7.6v3.5c0 41.8 17.2 54.5 17.2 84.1 0 1.8 0 3.5-.3 5.3 7.1-6.3 13.4-12.9 16.5-16.5l6.6 8.6c-7.1 5.6-17.2 14.4-27.4 23.1-6.6 13.9-21 23.6-44.6 23.6-24.3 0-38.3-5.8-42.3-22-10.4 13.2-23.6 22-44.1 22-24.3 0-37.5-18.5-37.5-40.3 0-32.2 13.7-88.7 59.8-88.7 20.8 0 32.4 8.6 32.4 26.3 0 30.9-33.2 48.6-57.3 51.7-.5 4.1-.8 7.9-.8 10.9.1 16.8 11 21.9 20.9 21.9zm13.1-97.3c-14.2 0-25.8 28.6-31.2 52.4 23.3-.3 39.8-20.3 40-38.3.1-5.2-1.2-14.1-8.8-14.1zm34.5 81.3c-3 0-6.1-.8-9.1-2.3 0 14.9 8.1 21.5 21.5 21.5 8.6 0 21-10.6 21-30.1 0-15.7-11.4-29.1-11.9-60.8-4.1 12.4-7.6 28.6-13.2 41.3 6.1 2 8.4 6.6 8.4 14.2 0 9.7-7.8 16.2-16.7 16.2z"/><path d="M986.5 580.7c-.8 3-1.3 6.1-1.3 8.9 0 5.3 2 9.1 8.9 9.1 1.8 0 4.6 0 6.6-.8-7.1 21.8-18.2 23.3-26.9 23.3-17.7 0-25.3-11.7-25.3-27.4 0-4.1.5-8.6 1.5-13.2l16.2-76h-8.4l2-10.1h8.4l7.6-35 37.5-5.1s-3.8 17.2-8.6 40h15.2l-2 10.1h-15.2l-16.2 76.2z"/></g><g fill="#edf0df"><path d="M399.5 681.2h39c25.1 0 42.2 1.2 51 3.5 8.9 2.3 15.6 6.1 20.2 11.4 4.6 5.3 7.5 11.2 8.7 17.6 1.2 6.5 1.7 19.2 1.7 38.2V822c0 18-.8 30-2.5 36.1-1.7 6.1-4.6 10.8-8.8 14.2-4.2 3.4-9.4 5.8-15.6 7.2-6.2 1.4-15.5 2-28 2h-65.7V681.2zm52.1 34.3v131.7c7.5 0 12.1-1.5 13.9-4.5 1.7-3 2.6-11.2 2.6-24.6v-77.8c0-9.1-.3-14.9-.9-17.4-.6-2.6-1.9-4.4-4-5.6-2.1-1.2-6-1.8-11.6-1.8z"/><path d="M629.9 681.2l29.8 200.2h-53.2l-2.8-36H585l-3.1 36h-53.8l26.6-200.2h75.2zM602.3 810c-2.6-22.7-5.3-50.7-7.9-84.1-5.3 38.3-8.6 66.4-10 84.1h17.9z"/><path d="M670.5 681.2h39c25.1 0 42.2 1.2 51 3.5 8.9 2.3 15.6 6.1 20.2 11.4 4.6 5.3 7.5 11.2 8.7 17.6 1.2 6.5 1.7 19.2 1.7 38.2V822c0 18-.8 30-2.5 36.1-1.7 6.1-4.6 10.8-8.8 14.2-4.2 3.4-9.4 5.8-15.6 7.2-6.2 1.4-15.5 2-28 2h-65.7V681.2zm52.1 34.3v131.7c7.5 0 12.1-1.5 13.9-4.5 1.7-3 2.6-11.2 2.6-24.6v-77.8c0-9.1-.3-14.9-.9-17.4-.6-2.6-1.9-4.4-4-5.6-2.1-1.2-6-1.8-11.6-1.8z"/></g><g fill="#4d280e"><path d="M820.5 752.1s-6.3 28 19 28c25.4 0 34.6-28.1 48.7-31 10.3-2.1 25.3 1.3 28 15.5 2.9 15.7-3.3 26.3-17.7 36.6-13.1 9.4-27.1 14.2-51.4 12.6-24.4-1.6-35.7-27.7-35.7-37.7.1-14.8 9.1-24 9.1-24z"/><path d="M1010.9 752.1s6.3 28-19 28c-25.4 0-34.6-28.1-48.7-31-10.3-2.1-25.3 1.3-28 15.5-2.9 15.7 3.3 26.3 17.7 36.6 13.1 9.4 27.1 14.2 51.4 12.6 24.4-1.6 35.7-27.7 35.7-37.7-.1-14.8-9.1-24-9.1-24z"/></g><g fill="#4d280e"><path d="M179.7 752.1s-6.3 28 19 28c25.4 0 34.6-28.1 48.7-31 10.3-2.1 25.3 1.3 28 15.5 2.9 15.7-3.3 26.3-17.7 36.6-13.1 9.4-27.1 14.2-51.4 12.6-24.4-1.6-35.7-27.7-35.7-37.7.1-14.8 9.1-24 9.1-24z"/><path d="M370.1 752.1s6.3 28-19 28c-25.4 0-34.6-28.1-48.7-31-10.3-2.1-25.3 1.3-28 15.5-2.9 15.7 3.3 26.3 17.7 36.6 13.1 9.4 27.1 14.2 51.4 12.6 24.4-1.6 35.7-27.7 35.7-37.7-.1-14.8-9.1-24-9.1-24z"/></g><g fill="#edf0df"><path d="M267.6 1089.2h-21.9l22-103.2c-13.2 5.5-21.3 16.9-21.3 33.1 0 7.8 2 9 2.1 10.3-10.5 0-16.3-3.8-16.3-14.7 0-20.2 28-39.5 53.3-39.5 2.1 0 4.1.2 6.1.3l-24 113.7z"/><path d="M345.7 1089.2c-9.9 0-15.5-5.2-15.5-16.6 0-2.4.3-4.9.9-7.8l5.8-27.4c.3-1.4.5-2.7.5-4 0-5.5-2.9-9-7-9-3.7 0-6.4 1.1-9.6 3.2l-12.9 61.4H286l16.1-76H324l-1.8 8.2c6.2-4.6 13.2-8.2 19.9-8.2 8.4 0 17.5 8.8 17.5 19.1 0 1.2-.2 2.3-.3 3.5-.8 5-7.3 31.8-7.3 35.1 0 2.6 1.2 4.7 5.6 4.7 1.1 0 2.7 0 4-.5-4.4 13.4-10.7 14.3-15.9 14.3z"/><path d="M436.6 989.2s-2.3 10.3-5.2 24h9.1l-1.2 6.1h-9.1c-10.5 48-10.3 49.5-10.3 50.3 0 3.5 1.5 5.8 7.6 5.8s14-8.5 20.1-13.4h5.2c-7 7-24.2 27.2-36 27.2-11.7 0-18.8-5.2-18.8-16.6 0-8.1 7.9-40.3 10.5-53.3h-5l1.2-6.1h5l4.6-21 22.3-3z"/><path d="M504.4 1064.9c-.5 1.8-.8 3.5-.8 4.9 0 3.3 1.7 5.6 7.6 5.6 6.1 0 14-8.5 20.1-13.4h5.2c-7 7-24.2 27.2-36 27.2-11.9 0-18.8-5.2-18.8-16.6 0-2.4.3-4.9.9-7.8l5.8-27.4c.3-1.4.5-2.7.5-4 0-5.5-2.9-9-7-9-3.6 0-6.4 1.1-9.4 3.2l-13.1 61.4h-21.9l22-103.3 22.5-3-8.2 38.4c6.2-4.4 13.2-8.1 19.8-8.1 8.2 0 17.5 8.8 17.5 19 0 1.2 0 2.4-.3 3.6l-6.4 29.3z"/><path d="M526.5 1065.1c0-19.3 8.2-53.2 35.9-53.2 12.5 0 19.5 5.2 19.5 15.8 0 18.5-19.9 29.2-34.3 31-.3 2.4-.5 4.7-.5 6.5 0 10 5 13.1 10.9 13.1 7.1 0 13.2-4.1 19.5-9.7 0 16.4-13.2 20.7-28.4 20.7-14.7-.1-22.6-11.2-22.6-24.2zm40.9-45.2c-8.5 0-15.5 17.2-18.7 31.5 14-.2 23.9-12.2 24-22.9 0-3.3-.8-8.6-5.3-8.6z"/><path d="M717.2 1023.9c0 23.7-12 65.4-42.7 65.4-10.3 0-17-4-18.5-12.6-7.1 6.5-15.4 12.6-21.7 12.6-11.7 0-19-5.2-19-16.6 0-2.3.3-4.9.9-7.8l10.9-51.7H649l-10.9 51.7c-.3 1.7-.6 3.3-.6 4.7 0 3.3 1.5 5.8 7.6 5.8 3.2 0 7-2.3 10.6-5.3 0-1.5.3-3.3.8-5.2l10.9-51.7h21.9l-10.9 51.7c-.5 2.1-.8 4-.8 5.6 0 2.9 1.4 4.9 5.8 4.9 14.9 0 25.1-33.3 25.1-49.8-.9.3-2.3.6-3.2.6-4.4 0-6.4-4.3-6.4-8.5 0-3.2 3.6-7.4 8.7-7.4 6.4-.1 9.6 5.7 9.6 13.6z"/><path d="M773.9 1034.1c.9.9 2.3 1.4 4.4 1.4 7.1 0 10.3-5.2 16-7.4l.6 3.2c-4.7 5.9-12.6 10.9-21.4 13.4-2.9 30.5-19.5 45.6-34.7 45.6-16.3 0-23.3-6.8-23.3-24.9 0-37.4 19-53.5 40-53.5 14.4-.2 18.1 11.1 18.4 22.2zm-11.7 12c-4.4 0-6.4-3.2-6.4-6.8 0-4.4 2.6-9.1 6.7-10.6-.5-5-2.1-7.9-6.4-7.9-14.3 0-20.4 31-20.4 43.2 0 9.1 4.3 11.5 10.2 11.5 9.3-.1 14.5-14.7 16.3-29.4z"/><path d="M814 1013.2l-1.7 7.6c5.5-4.3 11.6-7.6 17.9-7.6 6.8 0 10.9 4 10.9 9.7 0 5.3-4 11.9-11.4 11.9-8.5 0-4.3-10-8.8-10-4.6 0-7 1.7-10.5 4.9l-12.6 59.6H776l16.1-76H814z"/><path d="M871.9 982.8l-17.5 82.1c-.5 2.3-.8 3.6-.8 4.9 0 3.3 1.7 5.6 7.6 5.6 6.1 0 14-8.5 20.1-13.4h5.2c-7 7-24.2 27.2-36 27.2-11.7 0-18.8-5.2-18.8-16.6 0-2.3.3-4.9.9-7.8l16.9-79 22.4-3z"/><path d="M940.7 1064.9c-.5 1.8-.8 3.5-.8 5.2 0 3.2 1.2 5.6 5.5 5.6 1.1 0 2.7 0 4-.5-4.3 13.1-10.6 14-15.8 14-8.8 0-13.5-4.6-15-11.4-4.6 6.2-11.4 12.3-20.5 12.3-14.6 0-18.8-10.3-18.8-19.3 0-26.1 9.4-57.4 39.8-57.4 3.7 0 7.5 1.7 10.2 3.8l6.7-31.3 22.3-3-17.6 82zm-41 1.8c0 9.1 5 10.8 8.8 10.8 3.5 0 6.7-3.3 9.6-7.4.2-1.7.5-3.3.9-5.2l8.7-40.4c-2.4-2-5.3-2.6-7.4-2.6-11.5 0-20.6 24.2-20.6 44.8z"/></g></svg>