<svg xmlns="http://www.w3.org/2000/svg" viewBox="-0.05909585952758789 -1.130000114440918 51.579105377197266 100.54999542236328"><title>Depositphotos_73586195_04</title><g data-name="Layer 2"><g data-name="Layer 4"><path d="M40.73 66.51c-.27-1-2-1.11-2.16 0a11.73 11.73 0 0 0 .37 5.15 10.89 10.89 0 0 0 .87 2.53c1.28 2.32 1 4.35.36 6.83s-2.08 4.75-3 7.14a44.5 44.5 0 0 0-1.77 7.49 1.3 1.3 0 0 0 0 2.11l.24.19a1.66 1.66 0 0 0 2.81-1.17c0-5.84 1.36-11.18 3-16.72 1.55-4.75.55-8.86-.72-13.55z"/><path d="M8.29 60.25c1.27-.77 2.29-1.14 2.54-2.64a.63.63 0 0 0-.29-.71c-2.92-1.36-5.75 2.1-7.78 3.71a1.52 1.52 0 0 0-.39 1.48c.63 3.47 2.45 6.85 3.51 10.26a15.38 15.38 0 0 0-1.5 2.09c-1.87 3.2 1 5.41 2 8.45a23.46 23.46 0 0 1 1.43 10.94c-.17 1.07-1.38 2.38-.47 3.4A1.21 1.21 0 0 0 9.23 97c.59-1.08.3-2.26.33-3.46a47.34 47.34 0 0 0-.17-7.41.58.58 0 0 0 .65-.75c-.83-3.4-.75-7-1.47-10.52a6.63 6.63 0 0 0 1.68-5.28.46.46 0 0 0-.57-.32 8.6 8.6 0 0 0-2.32 1.56c-.94-2.71-2-5.55-2.06-8.15 1.05-.67 1.96-1.8 2.99-2.42zM9 84.13C8.3 81.69 7.1 79.3 7.57 77A18.19 18.19 0 0 1 9 84.13z"/><path d="M50.51 82.08a44 44 0 0 1-4.94-10c-1.56-4.45-.36-9.47-.6-14a1.43 1.43 0 0 0-1.8-1.36c-1.79.58-3.68.9-4.53 2.72a.81.81 0 0 0 .9 1.17c.93-.22 1.86-.48 2.79-.73.36 3.87.32 7.74 1.15 11.56a27.32 27.32 0 0 0 2.12 5.66c1 2.11 1.57 4.32 2.49 6.4.73 1.63 3.43.12 2.42-1.42z"/><path d="M47.88 22c-.37-2-3.43-1.14-3 .85.26 1.35-.71 3.71-.94 5a16 16 0 0 0 .06 5 23.66 23.66 0 0 1-.08 6.89 24.17 24.17 0 0 0-.16 3.06c-1-1.11-2.06-2.15-3.57-2.28a.36.36 0 0 0-.34.45c.55 2.39 1.83 3.82 3.59 5.55a1.41 1.41 0 0 0 2.2-1.71c-.58-1.07.16-3.63.17-4.82 0-2.69-.44-5.29 0-8 .48-3.22 2.69-6.65 2.07-9.99z"/><path d="M8.69 38.19h-.1a1.46 1.46 0 0 0-.5-.52c-1.09-.7-2.56-.33-3.94 0a14.71 14.71 0 0 0 .34-2.49 70.54 70.54 0 0 0 0-8.4c-.17-2.68.74-5.13.34-7.84-.3-2-3.55-1.19-3.09.86a42.14 42.14 0 0 1 .87 10.78 21.57 21.57 0 0 1-1.21 5.27c-.2.71-.4 2.26-.95 2.77a1.42 1.42 0 0 0 1.38 2.35 2.09 2.09 0 0 0 .3-.1h.2a23.18 23.18 0 0 0 3-.25c1-.13 2 0 2.82-.59a1.58 1.58 0 0 0 .62-.89.55.55 0 0 0-.08-.95z"/><path d="M32.88.95A25.59 25.59 0 0 1 31 5.21c-.65 1.19-1.67 2-2.16 3.28-.26.68.9 1.17 1.18.5.61-1.45 1.81-2.27 2.9-3.33A8.71 8.71 0 0 0 35.3 2c.96-1.32-1.73-3.13-2.42-1.05z"/><path d="M18.24 8.21c-1-.58-1-1.88-1.38-2.84-.23-.57-.47-1.12-.72-1.68A15.51 15.51 0 0 0 14.42.6c-.62-.8-2-.11-1.93.81.12 3.1 4.06 4.68 4.95 7.43.31 1 1.68-.11.8-.63z"/><path d="M26.29 3.36a18.38 18.38 0 0 0-2 .76 4.44 4.44 0 0 1-1.8.1 3.27 3.27 0 0 1-1.73-.43 1.41 1.41 0 0 0-1.42-.4 1.16 1.16 0 0 0-.59 1.79 1.87 1.87 0 0 0 .25.37l.06.17a2.38 2.38 0 0 0 .23.61c.1.25.2.5.29.75a.89.89 0 0 0 1.15.54 5.26 5.26 0 0 0 4.42.07.77.77 0 0 0 1-.49c.32-1 .64-2 .88-3a.66.66 0 0 0-.74-.84z"/><path d="M32.3 13.42a4.59 4.59 0 0 0-.8-1.42 2.52 2.52 0 0 1-.25-.76c.89-1.08 1.36-2.32.14-3.45A6.93 6.93 0 0 0 26.53 6a12.62 12.62 0 0 0-3.39-.09c-2.5.23-5.13.48-6.53 2.11a1.86 1.86 0 0 0-1 1.21 3.63 3.63 0 0 0 0 2 1.9 1.9 0 0 0 .77 1 3.3 3.3 0 0 1-.5 2.91 1.51 1.51 0 0 0 1.83 2.36 5 5 0 0 0 1.09-.82c2.7 2.87 10.67 3.5 13-.12a3.84 3.84 0 0 0 .5-3.14zm-4.42 1.12a4.29 4.29 0 0 0 .06-.61H28V14c.36.61.41.43-.12.54z" fill="#47376b"/><path d="M30.32 12.79c-1-2.83-3.48-6.92-6.94-7.05a3.74 3.74 0 0 0-3.89 2.79c-.57 1.51-1.16 3.69-.42 5.22.35.72 1.28.39 1.51-.2.8-2 .22-5.42 3.06-5.92 3.7-.64 3.89 3.18 4.7 5.71.41 1.26 2.42.66 1.98-.55z" fill="#574f8a"/><path d="M27.43 12.71a12.1 12.1 0 0 0-.87-2.47 2.19 2.19 0 0 0-2.3-1 3 3 0 0 0-2.17 1.57 4.8 4.8 0 0 0-.51 1.42 5.36 5.36 0 0 0 .08 1.32c0 .08.12.1.16 0a6 6 0 0 0 .91-1.27 3.09 3.09 0 0 1 1.16-1.59c1.23-.68 1.92 1.25 1.84 2.18-.12 1.52 2.19 1.2 1.7-.16z" fill="#574f8a"/><path d="M40.12 21.14C38.39 17.9 35.49 12 31.07 12c-2.91 0-4.91 2.59-7.91 2.63-2.71 0-4.78-2.53-7.54-1.77a3.31 3.31 0 0 0-1.72 1.22c-1.6 1-3 3.26-3.92 4.38-1.85 2.24-4 5.45-3.17 8.05a4.19 4.19 0 0 0 .82 2.64A8.41 8.41 0 0 0 9.84 31c1.87 1.27 1 2.67.83 4.46s1.74 2 2.79 1.19c1.62 2.17 5.07 2.63 8.63 2.49a4.09 4.09 0 0 0 3.49 1h.18a9.38 9.38 0 0 0 5-1.27 5.32 5.32 0 0 0 .59-.4c.39-.17.77-.35 1.14-.55 1.46-.08 3.33-.14 4.21-1.06 1.53-1.59 1.53-3.07 1.06-5.16-.14-.62 3.48-2.58 3.77-3.78.62-2.69-.16-4.46-1.41-6.78z" fill="#185215"/><path d="M34.61 16.5a13.29 13.29 0 0 0-4-2.91c-2.53-1.22-9.94-.56-10.93-.43-6.67 1.5-8.16 7.7-8.28 12.28-.08 3.07 2 7.13 5.16 8a3.59 3.59 0 0 0 3-.49 5.42 5.42 0 0 0 5.07-1.57 8.29 8.29 0 0 0 2.89 2.77 5.94 5.94 0 0 0 6.61-.95 12.52 12.52 0 0 0 .48-16.7z" fill="#29732b"/><path d="M40.29 32.15c-6.42-5.08-15.5-4.84-23.18-3.51-2 .35-13.27 4.53-10.06 8.13a.87.87 0 0 0 .53.3 9.16 9.16 0 0 0 .26 1c1.05 3.42 3.08 6.42 4 9.95 1.28 4.73 1.58 9.78 2.27 14.62.78 5.39 1.62 10.78 2.71 16.13a115.59 115.59 0 0 0 3.58 13.67c.64 1.93 1.94 5.66 4.23 6.32s3.43-1.14 4.24-3a25.81 25.81 0 0 0 2.5-13c-.68-10.35 2.36-21.42 4.48-31.52a28.36 28.36 0 0 1 6.08-12.74c1.92-2.27.37-4.76-1.64-6.35z"/><path d="M23.85 80.82c-.2-9 .33-17.9.23-26.85q-.07-6.41-.39-12.8c-.14-2.83.09-6.57-2-8.81C18.15 28.6 10 32.2 7 35.1a1.65 1.65 0 0 0-.25 2.09c0 1.52.73 3 .8 4.56.18 3.83.27 7.69.33 11.53a129.1 129.1 0 0 0 2.56 24.31 40.39 40.39 0 0 0 7.64 16.8c1.94 2.57 5.79 4.84 6.37.12.55-4.4-.45-9.26-.6-13.69z" fill="#47376b"/><path d="M24.74 94.46c.58 4.71 4.43 2.44 6.37-.13a40.38 40.38 0 0 0 7.63-16.81 129 129 0 0 0 2.54-24.31c.06-3.84.15-7.69.33-11.53.07-1.52.79-3 .8-4.55a1.64 1.64 0 0 0-.25-2.13c-3-2.9-11.15-6.5-14.67-2.74-2.1 2.25-1.87 6-2 8.82q-.32 6.4-.38 12.8c-.09 9 .45 17.9.25 26.85-.11 4.47-1.16 9.33-.62 13.73z" fill="#47376b"/><path d="M13.82 15c-2.8 1.49-3.09 4.93-2.65 7.73.47 3 4.17 7.21 7.43 5.45a1 1 0 0 0 .12-.1 5.24 5.24 0 0 0 2.72-1.25C26 22.71 19.8 11.79 13.82 15z" fill="#c49e57"/><path d="M37.83 18.35a4.39 4.39 0 0 0-2.66-2.87c-1.63-.84-3.68.38-4.19.77-2.36 1.84-3.89 5.16-3.16 8.12a4.76 4.76 0 0 0 2.48 3 4.81 4.81 0 0 0 5.49-.55c2.37-2.01 2.98-5.6 2.04-8.47z" fill="#c49e57"/><path d="M24.6 91v-1.08V91z" fill="#574f8a"/><path d="M24.47 94.51c.08-.66.12-1.33.14-2V90.44c-.19 1.6-.29 3.2-.35 4.81-.31-2-.5-4.08-.72-6.14A191.39 191.39 0 0 1 22.24 69c0-6.84.48-13.68.5-20.52 0-3-.57-6.12-.68-9.16a46.15 46.15 0 0 0-.61-7.17 4.86 4.86 0 0 0-1.82-1.07 26.89 26.89 0 0 0-.12 7 71.18 71.18 0 0 0 .49 8.56c1.2 6.91.7 14 .73 21 0 6.73.54 13.44 1.08 20.15a83.18 83.18 0 0 0 1.06 9.4c.78-.25 1.39-1.03 1.6-2.68z" fill="#574f8a"/><path d="M29 31.3a.8.8 0 0 0 0-.08 4.72 4.72 0 0 0-1.54 1.09 6 6 0 0 0-1.21 2 59.88 59.88 0 0 0-.2 6.67c-.31 6.75.71 13.54.68 20.32s0 13.72-.67 20.54c-.27 2.71-1.08 5.36-1.45 8.07v2.57c0 .67.05 1.33.13 2a3.36 3.36 0 0 0 1.07 2.39 65 65 0 0 1 1.89-13.65c1.39-5.74 1-11.92.93-17.77-.08-11.36-.3-22.81.37-34.15z" fill="#574f8a"/><path d="M24.61 92.47v-1.49c-.02.5-.02 1.02 0 1.49z" fill="#574f8a"/><path d="M35.72 47.41c0-5.21 1.17-10.39 1.09-15.62a17.83 17.83 0 0 0-1.81-.62 42.29 42.29 0 0 0-1.13 15.08c.53 5.47-.17 11.24-.78 16.72 0-4.9-.29-9.8-.36-14.7 0-3-.24-5.92-.23-8.89s.31-5.81-.14-8.68a8.61 8.61 0 0 0-1.63 0c-2.1 11.35.46 23.3.42 34.74 0 6.45-1.26 12.67-2.23 19-.64 4.22-1.12 8.4-1.54 12.62a4.81 4.81 0 0 0 1.62-.67c.49-5.09 1.43-10.11 2.29-15.14q-.65 7.12-1.21 14.26a9.56 9.56 0 0 0 1-1.09c.1-9.69 2.24-19.64 3.4-29.12a145.78 145.78 0 0 0 1.24-17.89z" fill="#574f8a"/><path d="M19.84 96.15c-.66-2-1.29-4.09-2-6.12-1.2-3.47-1.14-7.5-1.46-11.13-.3-3.37-.79-6.72-1-10.1-.53-7.24-.83-14.49-.77-21.75 0-3.62-.09-7.25-.21-10.87-.05-1.5.51-3.63-.48-4.87l-1 .32c.77 2.39.14 6.1.19 8.58q.11 4.79.19 9.57c.11 6.75-.3 13.57.12 20.3a127.69 127.69 0 0 0 1.9 16.75 43.31 43.31 0 0 0 2.11 6.63c.22.3.43.61.66.91a9.58 9.58 0 0 0 1.75 1.78z" fill="#574f8a"/><path d="M19.55 67.27c.27-12.19-1-24.41-2-36.52a10.84 10.84 0 0 0-2 .18c-.13 2.8.33 5.67.32 8.5a86.31 86.31 0 0 0 .49 9.18 116.83 116.83 0 0 1 .63 18.68c-.54 9.88 1.71 19.56 3.44 29.26a4 4 0 0 0 1.85.7c-.44-3.48-.86-7-1.52-10.42a91.62 91.62 0 0 1-1.21-19.56z" fill="#574f8a"/><path d="M22.11 12.35z" fill="#574f8a"/><path d="M24.42 14.05h-.11a1.4 1.4 0 0 0 0 2.67h.11a1.41 1.41 0 1 0 0-2.72z" fill="#29992b"/><path d="M24.81 17.66a1 1 0 1 0 1 1 1 1 0 0 0-1-1z" fill="#29992b"/><path d="M24.83 20.32a.81.81 0 0 0 0 1.62.81.81 0 0 0 0-1.62z" fill="#29992b"/><path d="M24.83 23.09a.71.71 0 0 0 0 1.41.71.71 0 0 0 0-1.41z" fill="#29992b"/><path d="M24.83 25.51a.62.62 0 0 0 0 1.23.62.62 0 0 0 0-1.23z" fill="#29992b"/><path d="M28 33.9a1.48 1.48 0 0 0-.75-1.27A6.83 6.83 0 0 0 26 35.28a1.39 1.39 0 0 0 .51.1A1.49 1.49 0 0 0 28 33.9z" fill="#d6cc80"/><path d="M29.87 33.32a1.47 1.47 0 0 0 1.45-1.46 1.45 1.45 0 0 0-.54-1.11 5.67 5.67 0 0 0-2.34.78 1.44 1.44 0 0 0 1.42 1.79z" fill="#d6cc80"/><path d="M28.86 37.8a1.34 1.34 0 0 0 0 2.68 1.34 1.34 0 0 0 0-2.68z" fill="#d6cc80"/><path d="M26.41 37.37a1.17 1.17 0 0 0-.74-.27c-.07.7-.11 1.4-.13 2.08a1.18 1.18 0 0 0 .87-.28 1.06 1.06 0 0 0 0-1.53z" fill="#d6cc80"/><path d="M32.07 34a1.12 1.12 0 1 0 1.12 1.11A1.13 1.13 0 0 0 32.07 34z" fill="#c49e57"/><path d="M29.39 44.11a1.28 1.28 0 0 0 0 2.56 1.28 1.28 0 0 0 0-2.56z" fill="#c49e57"/><path d="M25.35 44.2c0-.48 0-.95.06-1.42a1.52 1.52 0 0 0-.06 1.42z" fill="#d6cc80"/><path d="M26.52 44.9a1.36 1.36 0 0 0 0-2.72 1.24 1.24 0 0 0-1.1.6c0 .48 0 .95-.06 1.42a1.23 1.23 0 0 0 1.16.7z" fill="#d6cc80"/><path d="M26.7 47.59a1.36 1.36 0 1 0 1.36 1.35 1.37 1.37 0 0 0-1.36-1.35z" fill="#d6cc80"/><path d="M24.06 52.78a1.45 1.45 0 0 0 0 1.84v-.65c.02-.39.01-.79 0-1.19z" fill="#d6cc80"/><path d="M25.13 52.38v2.63a1.32 1.32 0 0 0 0-2.63z" fill="#d6cc80"/><path d="M28.4 51.71a1.3 1.3 0 0 0 0 2.6 1.3 1.3 0 0 0 0-2.6z" fill="#c49e57"/><path d="M26.73 57.38a1.38 1.38 0 0 0 0 2.75 1.38 1.38 0 0 0 0-2.75z" fill="#d6cc80"/><path d="M23 56.74a1.36 1.36 0 0 0 0 2.72 1.23 1.23 0 0 0 1.07-.55v-1.59a1.24 1.24 0 0 0-1.07-.58z" fill="#d6cc80"/><path d="M20.12 52.91A1.13 1.13 0 1 0 21.26 54a1.14 1.14 0 0 0-1.14-1.09z" fill="#c49e57"/><path d="M23.16 51.14a1.06 1.06 0 0 0 .86-.4v-1.57a1.07 1.07 0 0 0-.84-.36 1.16 1.16 0 0 0-.02 2.33z" fill="#d6cc80"/><path d="M20.6 44.79a1 1 0 0 0 0 1.94 1 1 0 0 0 0-1.94z" fill="#c49e57"/><path d="M22.61 40a1.26 1.26 0 1 0 1.11 1.84v-1.26a1.26 1.26 0 0 0-1.11-.58z" fill="#d6cc80"/><path d="M17.36 37.44a.88.88 0 0 0 0 1.77.88.88 0 0 0 0-1.77z" fill="#c49e57"/><circle cx="21.76" cy="36.28" r="1.06" transform="translate(-.1 .06)" fill="#d6cc80"/><path d="M18.47 32.4a1.42 1.42 0 1 0 2.83 0 1.38 1.38 0 0 0-.09-.46 5 5 0 0 0-1.7-.89 1.43 1.43 0 0 0-1.04 1.35z" fill="#c49e57"/><path d="M34.6 31.71a1 1 0 0 0 0 2 1 1 0 0 0 0-2z" fill="#c49e57"/><path d="M31.91 39.66a1 1 0 0 0 0 2 1 1 0 0 0 0-2z" fill="#c49e57"/><path d="M37.17 42.46a.54.54 0 0 0 0 1.09.54.54 0 0 0 0-1.09z" fill="#c49e57"/><path d="M32.78 45.19a.87.87 0 0 0 0 1.73.87.87 0 0 0 0-1.73z" fill="#c49e57"/><path d="M36.18 50.7a.76.76 0 0 0 0 1.51.76.76 0 0 0 0-1.51z" fill="#c49e57"/><path d="M30.42 49a1.08 1.08 0 0 0 0 2.16 1.08 1.08 0 0 0 0-2.16z" fill="#c49e57"/><path d="M32 55.33a1 1 0 0 0 0 2.09 1 1 0 0 0 0-2.09z" fill="#c49e57"/><path d="M31.07 61.5a1 1 0 0 0 0 2 1 1 0 0 0 0-2z" fill="#c49e57"/><path d="M26.07 62.42a1.32 1.32 0 0 0-.91.33v2.21a1.34 1.34 0 0 0 .87.29 1.42 1.42 0 0 0 .04-2.83z" fill="#d6cc80"/><path d="M22.34 61.05a1.1 1.1 0 0 0 0 2.21 1.1 1.1 0 0 0 0-2.21z" fill="#d6cc80"/><path d="M18.3 66a1.44 1.44 0 0 0 0 2.87 1.44 1.44 0 0 0 0-2.87z" fill="#c49e57"/><path d="M21.69 70a1 1 0 0 0 0 2 1 1 0 0 0 0-2z" fill="#c49e57"/><path d="M26.26 69.85a.92.92 0 0 0 0 1.83.92.92 0 0 0 0-1.83z" fill="#d6cc80"/><path d="M23.31 75.2a.89.89 0 0 0 .51-.15v-1.53a.9.9 0 0 0-.52-.15.92.92 0 0 0 .01 1.83z" fill="#d6cc80"/><path d="M22.58 79.3a1 1 0 0 0 0 2.07 1 1 0 0 0 0-2.07z" fill="#d6cc80"/><path d="M26.1 83.34a.64.64 0 0 0 0 1.29.64.64 0 0 0 0-1.29z" fill="#d6cc80"/><path d="M24 88.25a.8.8 0 0 0 0 1.61.72.72 0 0 0 .53-.22c0-.42-.06-.84-.09-1.26a.74.74 0 0 0-.44-.13z" fill="#d6cc80"/><path d="M24.72 88.72c0 .26 0 .52-.06.78a.89.89 0 0 0 .06-.78z" fill="#d6cc80"/><path d="M17.09 58.74a.89.89 0 0 0 0 1.78.89.89 0 0 0 0-1.78z" fill="#c49e57"/><path d="M16.73 46.44a1.2 1.2 0 0 0-2.06 0v.06a1.23 1.23 0 1 0 2.12 0z" fill="#c49e57"/><path d="M18.39 40.67a.87.87 0 0 0 0 1.73.87.87 0 0 0 0-1.73z" fill="#c49e57"/><path d="M12.59 35.72h-.06a.74.74 0 0 0-.62.95.78.78 0 0 0 1.3.34 1 1 0 0 0 .25-.44.71.71 0 0 0-.87-.85z" fill="#c49e57"/><path d="M15.83 32.3a.91.91 0 0 0 .66-1.51A12 12 0 0 0 15 31a.89.89 0 0 0 .83 1.3z" fill="#c49e57"/><path d="M35.45 35.68a.73.73 0 0 0 0 1.46.73.73 0 0 0 0-1.46z" fill="#c49e57"/><path d="M30.48 66.35a.69.69 0 0 0 0 1.38.69.69 0 0 0 0-1.38z" fill="#c49e57"/><path d="M22.36 65.82a.73.73 0 0 0 0 1.46.73.73 0 0 0 0-1.46z" fill="#c49e57"/><path d="M20.53 75.84A1.2 1.2 0 1 0 21.74 77a1.21 1.21 0 0 0-1.21-1.16z" fill="#c49e57"/><path d="M28.49 79.69a1.22 1.22 0 0 0 0 2.44 1.22 1.22 0 0 0 0-2.44z" fill="#c49e57"/><path d="M22.58 84.18a1 1 0 0 0 0 2 1 1 0 0 0 0-2z" fill="#d6cc80"/><path d="M27.33 88.27a1.27 1.27 0 0 0 0 2.53 1.27 1.27 0 0 0 0-2.53z" fill="#c49e57"/><path d="M27.12 75.37a.81.81 0 0 0 0 1.61.81.81 0 0 0 0-1.61z" fill="#d6cc80"/><path d="M32.36 73.95a.86.86 0 0 0 0 1.73.86.86 0 0 0 0-1.73z" fill="#c49e57"/><path d="M29.88 71.24a.87.87 0 0 0 0 1.74.87.87 0 0 0 0-1.74z" fill="#c49e57"/><path d="M35.72 66.88a.81.81 0 0 0 0 1.63.81.81 0 0 0 0-1.63z" fill="#c49e57"/><path d="M15.61 71.28a.7.7 0 0 0 0 1.41.7.7 0 0 0 0-1.41z" fill="#c49e57"/><path d="M17.67 82.08a.89.89 0 0 0 0 1.79.89.89 0 0 0 0-1.79z" fill="#c49e57"/><path d="M21.42 91.22a.54.54 0 0 0 0 1.07.54.54 0 0 0 0-1.07z" fill="#c49e57"/><path d="M26.16 93.84a1.11 1.11 0 1 0 1.11 1.11 1.13 1.13 0 0 0-1.11-1.11z" fill="#c49e57"/><path d="M32.55 82.57a.87.87 0 0 0 0 1.73.87.87 0 0 0 0-1.73z" fill="#c49e57"/><path d="M34.71 15.59c-3.38-3.86-11.73 7.81-6 11.26 1.85 1.11 3.38-1.66 1.65-2.85-.63-.43.4-3 .65-3.55a5.76 5.76 0 0 1 1.85-2.21c.77-.52 1.43-.52 2-1.34a1.09 1.09 0 0 0-.15-1.31z" fill="#d6cc80"/><path d="M21.83 20.39c-.93-2.43-3.27-5.53-6.12-5.48a1.51 1.51 0 0 0-1 2.55 21.44 21.44 0 0 1 2.84 3.17 5.74 5.74 0 0 1 .79 1.73 1.69 1.69 0 0 1 .1.7 1.29 1.29 0 0 1 0 .13 2 2 0 0 0 1.91 3.31c2.65-.61 2.21-4.2 1.48-6.11z" fill="#d6cc80"/><path d="M24.6 90.86v1.63c.02-.54.02-1.09 0-1.63z" fill="#47376b"/><path d="M35.29 19.18a1.78 1.78 0 0 0-.84-1.09 1.92 1.92 0 0 0-1.84 0 3.18 3.18 0 0 0-.29.16h-.2a2.84 2.84 0 0 0-1.39 1.14 2.93 2.93 0 0 0-.26 2.72 1.83 1.83 0 0 0 2.22 1.24 2.11 2.11 0 0 0 .59-.21 1.84 1.84 0 0 0 .21-.08 3.66 3.66 0 0 0 1.8-3.88z"/><path d="M17.83 20.31c0-.15 0-.31-.07-.44a2.91 2.91 0 0 0-.69-1.32 2 2 0 0 0-1.76-.55 2.29 2.29 0 0 0-.66.09 2 2 0 0 0-1.43 1.49 2.91 2.91 0 0 0 .33 1.91v.07a2.58 2.58 0 0 0 2.41 2 1.51 1.51 0 0 0 .4 0 2 2 0 0 0 1.48-1.31 3 3 0 0 0-.01-1.94z"/></g></g></svg>