<svg xmlns="http://www.w3.org/2000/svg" viewBox="-2 -1.0699996948242188 29.93000030517578 84.90999603271484"><title>Depositphotos_116710608_02</title><g data-name="Layer 2" style="isolation:isolate"><path d="M26.7 6.26H9.88l-.21 2h17a1 1 0 0 0 0-2z" fill="#c9a25f"/><path d="M26.7 9.31H9.6l-.1 2h17.2a1 1 0 0 0 0-2z" fill="#c9a25f"/><path d="M26.7 12.36H9.45l-.08 2H26.7a1 1 0 0 0 0-2z" fill="#c9a25f"/><path d="M26.7 15.4H9.33l-.07 2H26.7a1 1 0 0 0 0-2z" fill="#c9a25f"/><path d="M26.7 18.45H9.22l-.06 2H26.7a1 1 0 0 0 0-2z" fill="#c9a25f"/><path d="M26.7 21.5H9.13l-.05 2H26.7a1 1 0 0 0 0-2z" fill="#c9a25f"/><path d="M26.7 24.55H9.05v2H26.7a1 1 0 0 0 0-2z" fill="#c9a25f"/><path d="M26.7 27.6H9v2h17.7a1 1 0 0 0 0-2z" fill="#c9a25f"/><path d="M26.7 30.65H9v2h17.7a1 1 0 0 0 0-2z" fill="#c9a25f"/><path d="M26.7 33.7H8.93v2H26.7a1 1 0 1 0 0-2z" fill="#c9a25f"/><path d="M26.7 36.75H8.92v2H26.7a1 1 0 0 0 0-2z" fill="#c9a25f"/><path d="M26.7 39.79H8.94v2H26.7a1 1 0 0 0 0-2z" fill="#c9a25f"/><path d="M27.55 43.29a.49.49 0 0 0-.49-.49H9v1h18.05a.49.49 0 0 0 .5-.51z" fill="#c9a25f"/><path d="M27.05 44.53H9v1h18a.49.49 0 1 0 0-1z" fill="#c9a25f"/><path d="M27.05 46.26H9v1h18a.49.49 0 1 0 0-1z" fill="#c9a25f"/><path d="M27.05 48h-18v1h18a.49.49 0 1 0 0-1z" fill="#c9a25f"/><path d="M27.05 49.72H9.15v1h17.9a.49.49 0 1 0 0-1z" fill="#c9a25f"/><path d="M27.05 51.45H9.21v1h17.8a.49.49 0 1 0 0-1z" fill="#c9a25f"/><path d="M27.05 53.18H9.29v1h17.76a.49.49 0 1 0 0-1z" fill="#c9a25f"/><path d="M27.05 54.91H9.38l.06 1h17.61a.49.49 0 1 0 0-1z" fill="#c9a25f"/><path d="M27.05 56.64H9.47l.06 1h17.52a.49.49 0 1 0 0-1z" fill="#c9a25f"/><path d="M27.05 58.37H9.59l.07 1h17.4a.49.49 0 1 0 0-1z" fill="#c9a25f"/><path d="M27.05 60.1H9.71l.08 1h17.26a.49.49 0 1 0 0-1z" fill="#c9a25f"/><path d="M27.05 61.83H9.85l.09 1h17.11a.49.49 0 1 0 0-1z" fill="#c9a25f"/><path d="M27.05 63.56H10l.1 1h16.95a.49.49 0 1 0 0-1z" fill="#c9a25f"/><path d="M27.05 65.29H10.19l.11 1h16.75a.49.49 0 1 0 0-1z" fill="#c9a25f"/><path d="M27.05 67H10.39l.13 1h16.53a.49.49 0 1 0 0-1z" fill="#c9a25f"/><path d="M27.05 68.75H10.62l.14 1h16.29a.49.49 0 1 0 0-1z" fill="#c9a25f"/><path d="M27.05 70.48H10.87l.16 1h16a.49.49 0 1 0 0-1z" fill="#c9a25f"/><path d="M27.05 72.22H11.16l.18 1h15.71a.49.49 0 1 0 0-1z" fill="#c9a25f"/><path d="M27.05 73.95H11.49l.21 1h15.35a.49.49 0 1 0 0-1z" fill="#c9a25f"/><path d="M27.05 75.68H11.87l.25 1h14.93a.49.49 0 1 0 0-1z" fill="#c9a25f"/><path d="M27.05 77.41H12.32l.33 1h14.4a.49.49 0 1 0 0-1z" fill="#c9a25f"/><path d="M8.92 83.19v.12c-2-.21-3.44-.71-4-1.57C0 74.36-2 6.59 2.66 2.11A7.23 7.23 0 0 1 5.93.43C2.65 5.51 2.09 68.8 8.92 83.19z" fill="#e6c18c"/><path d="M26.64 79.52c1-.16 1.18.91 0 1.32-5.18 1.79-12.94 3-17.73 2.47v-.12C2.09 68.8 2.65 5.51 5.93.43c5.88-1.5 15.48 1.3 21 3.15 1 .34.79 1.16 0 1.12-4.53-.2-16.85-2.31-17.18 2.14S6.95 60 12.55 78.19c.66 2.15 10.69 1.87 14.09 1.33z" fill="#d6b378"/><path d="M4.46 3S2 2.76 1.67 6.26s-1.75 26.6-.42 43.46 3.21 29.11 3.21 29.11l1-6.62s-2.27-11.6-2.41-33.49A337.34 337.34 0 0 1 4.46 3z" style="mix-blend-mode:screen" fill="#e6e7e8"/></g></svg>