<svg xmlns="http://www.w3.org/2000/svg" xmlns:xlink="http://www.w3.org/1999/xlink" viewBox="-0.15000009536743164 -0.058989524841308594 27.63209342956543 9.07504940032959"><defs><radialGradient id="a" cx="6.74" cy="7.06" r="5.93" gradientUnits="userSpaceOnUse"><stop offset="0" stop-color="#f2e1be"/><stop offset=".92" stop-color="#d19877"/></radialGradient><radialGradient id="b" cx="20.86" cy="8.88" r="8.16" xlink:href="#a"/></defs><title>Depositphotos_68062423_06</title><g data-name="Layer 2"><g data-name="Layer 1" style="isolation:isolate"><path d="M9.66 1.42a46.08 46.08 0 0 0-6.26.12c-.7.12-1.11.54-1 1.11a23.7 23.7 0 0 0 1 3.62c.41 1.21 1.48 1.25 3.3 1.25s2.51-.37 2.88-.82A15.53 15.53 0 0 0 11 3c.35-1.33-.35-1.49-1.34-1.58z" style="mix-blend-mode:multiply" fill="#fdd4b9"/><path d="M17.78 1.42a46.06 46.06 0 0 1 6.22.13c.7.12 1.11.54 1 1.11a23.84 23.84 0 0 1-1 3.62c-.45 1.19-1.52 1.23-3.34 1.23s-2.51-.37-2.88-.82A15.57 15.57 0 0 1 16.46 3c-.37-1.33.33-1.49 1.32-1.58z" style="mix-blend-mode:multiply" fill="#fee2c5"/><path d="M9.66 1.42a46.08 46.08 0 0 0-6.26.12c-.7.12-1.11.54-1 1.11a23.7 23.7 0 0 0 1 3.62c.41 1.21 1.48 1.25 3.3 1.25s2.51-.37 2.88-.82A15.53 15.53 0 0 0 11 3c.35-1.33-.35-1.49-1.34-1.58zm.71 1.85a14.22 14.22 0 0 1-1.22 3.3c-.32.41-.93.74-2.52.74s-2.51 0-2.91-1.11a22 22 0 0 1-.86-3.26c-.07-.52.29-.89.9-1a39.07 39.07 0 0 1 5.46-.11c.87.07 1.48.22 1.15 1.44z" style="mix-blend-mode:multiply" fill="url(#a)"/><path d="M24 1.55a46.06 46.06 0 0 0-6.26-.12c-1 .08-1.69.25-1.32 1.61a15.57 15.57 0 0 0 1.4 3.67c.37.45 1.07.82 2.88.82s2.88 0 3.34-1.23a23.84 23.84 0 0 0 1-3.62c.11-.6-.3-1.01-1.04-1.13zm.58 1.39a21.73 21.73 0 0 1-.87 3.26c-.4 1.07-1.34 1.11-2.93 1.11s-2.2-.33-2.53-.74a14.19 14.19 0 0 1-1.23-3.3c-.33-1.22.29-1.37 1.16-1.44a39.51 39.51 0 0 1 5.49.11c.66.11 1.02.48.95 1z" style="mix-blend-mode:multiply" fill="url(#b)"/><path d="M27.29 1.75l-.09-.08A7.14 7.14 0 0 0 25.45.56 7.34 7.34 0 0 0 23.51.1c-.37-.04-.74-.1-1.11-.1h-1.13a23.4 23.4 0 0 0-4.51.26c.32-.07.52-.11-.31.05-.32.07-.28.06-.12 0a1.81 1.81 0 0 0-1.24 1 4.46 4.46 0 0 0-2.76 0A1.81 1.81 0 0 0 11.1.36h-.12c-.83-.16-.63-.12-.31-.05A23.41 23.41 0 0 0 6.17 0a13.82 13.82 0 0 0-4.09.52C1.69.65 1.32.8.93.94s-.7.2-.89.54 0 .49.05.69a1.36 1.36 0 0 0 .25.68c.17.17.47.1.66.25.11.54.28 1.07.4 1.52.35 1.31.69 2.89 2 3.59a7.48 7.48 0 0 0 4.31.56A3.86 3.86 0 0 0 11 7.12a10.09 10.09 0 0 0 .73-1.89 24.07 24.07 0 0 0 .76-2.32 2.62 2.62 0 0 1 2.51.26c.18.7.47 1.37.7 2.06a10.13 10.13 0 0 0 .73 1.89 3.86 3.86 0 0 0 3.25 1.65A7.48 7.48 0 0 0 24 8.21c1.29-.69 1.63-2.27 2-3.59.05-.21.12-.43.19-.66s.2-.35.32-.36.34.06.45-.1a1.46 1.46 0 0 0 .2-.39 5 5 0 0 0 .27-.8.6.6 0 0 0-.14-.56zM11 3a15.53 15.53 0 0 1-1.4 3.67c-.37.45-1.07.82-2.88.82s-2.88 0-3.33-1.23a23.7 23.7 0 0 1-1-3.62c-.08-.58.33-1 1-1.11a46.08 46.08 0 0 1 6.26-.12c1 .1 1.7.26 1.35 1.59zm14.09-.37a23.84 23.84 0 0 1-1 3.62c-.45 1.19-1.52 1.23-3.34 1.23s-2.51-.37-2.88-.82A15.57 15.57 0 0 1 16.46 3c-.37-1.36.33-1.52 1.32-1.61a46.06 46.06 0 0 1 6.22.16c.74.12 1.15.53 1.07 1.11z" fill="#a20012"/><path d="M3.68 7.89c1.19.71 2.77.43 4.23.38s2.32-.55 2.47-2v-.15a4.13 4.13 0 0 1-.43.88c-.59.85-1.82 1-2.76 1a6.7 6.7 0 0 1-3.24-.37A4 4 0 0 1 2.29 5.5a3.78 3.78 0 0 0 1.39 2.39z" style="mix-blend-mode:screen" fill="#dd1936"/><path d="M2 1.38C3.16.6 4.45.76 5.84.73 7 .7 8.18.66 9.34.73a4.29 4.29 0 0 1 2 .45 2.3 2.3 0 0 1 1 1.23A1.56 1.56 0 0 0 11 .43 27.59 27.59 0 0 0 3.69.31c-2.08.27-3 1.38-2 3.34A2.52 2.52 0 0 1 2 1.38z" style="mix-blend-mode:screen" fill="#dd1936"/><path d="M16.42.86a5 5 0 0 1 1.81-.27h2.81c1.32 0 3.45-.26 4.54.69.68.59.44 1.32.52 2.1.3-1.38.56-2.69-2.35-3.07a27.59 27.59 0 0 0-7.33.13c-.73.15-1.63.69-1.17 2.53A2 2 0 0 1 16.42.86z" style="mix-blend-mode:screen" fill="#dd1936"/><path d="M24.2 7c-.74 1-1.64 1.07-2.84 1.07a5.25 5.25 0 0 1-3.5-.78 8.31 8.31 0 0 1-1.44-1.91 3.83 3.83 0 0 0 1.65 2.46 8.64 8.64 0 0 0 3 .55c.93 0 2.25.06 3-.62a4 4 0 0 0 1-2.48A9.65 9.65 0 0 1 24.2 7z" style="mix-blend-mode:screen" fill="#dd1936"/><g style="mix-blend-mode:multiply" opacity=".6" fill="#7a2c00"><path d="M11.24 1.94v.05z"/><path d="M8.55 1.26c-1.33 0-2.66 0-4 .05-.79 0-2.33 0-2.43 1.07a3.75 3.75 0 0 0 .2 1.34c.15.64.33 1.27.54 1.89a2.32 2.32 0 0 0 2 1.93 11 11 0 0 0 3.47 0c1.25-.23 1.76-1 2.16-2.15.21-.58.41-1.17.58-1.76s.42-1.18.17-1.67c-.42-.84-1.94-.68-2.69-.7zm1.93 3.17c-.3.84-.6 2-1.46 2.53a6.16 6.16 0 0 1-3.31.43c-1 0-2-.19-2.37-1.13a20.33 20.33 0 0 1-1-3.1c-.26-1 .21-1.43 1.28-1.56a27 27 0 0 1 3.52-.13c1 0 2.54-.23 3.46.22s.11 2.1-.12 2.74z"/><path d="M27.29 1.75l-.09-.08A7.14 7.14 0 0 0 25.45.56 7.34 7.34 0 0 0 23.51.1c-.37-.04-.74-.1-1.11-.1h-1.13a23.4 23.4 0 0 0-4.51.26c.32-.07.52-.11-.31.05-.32.07-.28.06-.12 0a1.81 1.81 0 0 0-1.24 1 4.46 4.46 0 0 0-2.76 0A1.81 1.81 0 0 0 11.1.36h-.12c-.83-.16-.63-.12-.31-.05A23.41 23.41 0 0 0 6.17 0a13.82 13.82 0 0 0-4.09.52C1.69.65 1.32.8.93.94s-.7.2-.89.54 0 .49.05.69a1.36 1.36 0 0 0 .25.68c.17.17.47.1.66.25.11.54.28 1.07.4 1.52.35 1.31.69 2.89 2 3.59a7.48 7.48 0 0 0 4.31.56A3.86 3.86 0 0 0 11 7.12a10.09 10.09 0 0 0 .73-1.89 24.07 24.07 0 0 0 .76-2.32 2.62 2.62 0 0 1 2.51.26c.18.7.47 1.37.7 2.06a10.13 10.13 0 0 0 .73 1.89 3.86 3.86 0 0 0 3.25 1.65A7.48 7.48 0 0 0 24 8.21c1.29-.69 1.63-2.27 2-3.59.05-.21.12-.43.19-.66s.2-.35.32-.36.34.06.45-.1a1.46 1.46 0 0 0 .2-.39 5 5 0 0 0 .27-.8.6.6 0 0 0-.14-.56zM11.57 4.63c-.45 1.29-.77 2.89-2.21 3.5A8.5 8.5 0 0 1 5 8.55a3.08 3.08 0 0 1-2.72-2A18.81 18.81 0 0 1 1.49 4l-.18-.69c-.06-.23 0-.24-.08-.35s0-.22-.21-.21c-.53 0-.57 0-.6-.19s-.08-.3-.1-.43c0-.28-.17-.59.05-.7s.53-.22.82-.36a10.27 10.27 0 0 1 3.6-.76 31.58 31.58 0 0 1 5.36.07C11.28.51 12.33.69 12.3 2a9 9 0 0 1-.73 2.63zM15 2.76a2.41 2.41 0 0 0-2.46 0 2.43 2.43 0 0 0-.12-1.31 4.39 4.39 0 0 1 2.58.1 2.53 2.53 0 0 0 0 1.21zm12.2-.28l-.06.15c-.11.26-.11.26-.2.53s-.48.12-.64.17-.26.51-.31.71a18.73 18.73 0 0 1-.81 2.5 3.08 3.08 0 0 1-2.72 2 8.5 8.5 0 0 1-4.33-.42c-1.43-.61-1.76-2.21-2.21-3.5A9 9 0 0 1 15.14 2c0-1.29 1-1.47 2.15-1.59a31.58 31.58 0 0 1 5.36-.1 14.71 14.71 0 0 1 1.5.14 4.94 4.94 0 0 1 1.42.45c.53.27.78.45 1.24.72a1 1 0 0 1 .37.31.68.68 0 0 1-.02.55z"/><path d="M16.2 1.94c-.25.49 0 1.19.17 1.67s.37 1.18.58 1.76c.41 1.14.91 1.92 2.17 2.15a11 11 0 0 0 3.47 0 2.32 2.32 0 0 0 2-1.93c.21-.62.38-1.26.54-1.89a3.73 3.73 0 0 0 .2-1.34c-.1-1.07-1.64-1-2.43-1.07-1.33-.07-2.66-.09-4-.05-.75 0-2.28-.15-2.69.67zm7.9 4.33c-.4.94-1.4 1.1-2.37 1.13a6.17 6.17 0 0 1-3.31-.4c-.85-.51-1.15-1.69-1.46-2.53-.23-.64-1.09-2.28-.17-2.73s2.45-.21 3.46-.22a27 27 0 0 1 3.52.13c1.07.13 1.53.54 1.28 1.56a20.27 20.27 0 0 1-1 3.1z"/></g><path d="M14.69 1.88c-.34-.64-1.62-.51-2.06-.06 0 0 0 .05 0 0a2.35 2.35 0 0 1 1.95.18.08.08 0 0 0 .11-.12z" fill="#dd1936"/><path d="M23.46.46c-1.51-.11-3-.23-4.54-.24-1.15 0-2.6.06-3.42 1 .94-.85 2.42-.87 3.61-.85 1.44 0 2.89.19 4.33.11l.02-.02z" fill="#ffd2dd"/><path d="M10.16 2.95S9.54 5.33 7.64 6s-3.29.86-3.74 0a1.19 1.19 0 0 0 1 1 11.71 11.71 0 0 0 3.46-.12c.54-.25.74-.49 1.15-1.52a5.77 5.77 0 0 0 .65-2.41z" fill="#fff"/><path d="M18.14 5.75a1.91 1.91 0 0 0 1.4.91c1 .17 3.83-1.85 4.32-2.72s.54-1.19.49-1.4c0 0 .29.25-.37 2.26s-1 2.35-2.06 2.35-3.41.41-3.78-1.4z" fill="#fff"/></g></g></svg>