<svg xmlns="http://www.w3.org/2000/svg" viewBox="-7.180838108062744 -0.4157109260559082 131.25990295410156 131.0557098388672"><title>Depositphotos_82788940_16</title><g data-name="Layer 2"><g data-name="Layer 1"><g data-name="Layer 2"><g data-name="Layer 1-2"><circle cx="58.37" cy="66.36" r="47.5" fill="#ef4247"/><path d="M104.64 20a55 55 0 0 0-7.24-9l-.08-.08c-.1-.1-.22-.18-.33-.27a5.08 5.08 0 0 0-.4-.33l-.43-.24c-.14-.08-.28-.16-.43-.23l-.47-.15a2.54 2.54 0 0 1-.45-.13 2.74 2.74 0 0 1-.48-.06 1.24 1.24 0 0 0-.47 0h-1a2 2 0 0 0-.46.12 3.64 3.64 0 0 0-.47.14c-.15.06-.29.14-.43.21l-.44.23c-.14.09-.26.2-.4.31s-.24.17-.35.27v.05c-.1.1-.18.22-.27.33a5.06 5.06 0 0 0-.33.41c-.09.13-.16.28-.24.42a3.68 3.68 0 0 0-.23.44c-.06.15-.1.31-.15.46s-.1.3-.14.46a3.93 3.93 0 0 1-.06.48 1.24 1.24 0 0 0 0 .47v1a1.83 1.83 0 0 0 .12.46 4 4 0 0 0 .14.46 4.51 4.51 0 0 0 .22.44q.1.22.23.43a3.9 3.9 0 0 0 .31.4c.11.13.17.24.27.35a61.2 61.2 0 0 1 6.2 7.71 45.07 45.07 0 0 1-6.11 56c-8.46 8.39-15 10.94-22.46 13.89-1.46.57-3 1.16-4.49 1.8v-11c.29.46.58.92.89 1.37A5 5 0 1 0 72.48 82v-.06c-.5-.72-1-1.47-1.43-2.24a32.5 32.5 0 0 0 0-59.85c.46-.76.93-1.51 1.43-2.24a5 5 0 0 0-.63-6.45l-10-9.67a5 5 0 0 0-7 0l-10 9.67a5 5 0 0 0-.64 6.44c.5.72 1 1.47 1.43 2.24a32.5 32.5 0 0 0 0 59.85c-.46.76-.93 1.51-1.43 2.24a5 5 0 1 0 8.19 5.74v-.06c.31-.44.59-.91.89-1.37v11c-1.54-.64-3-1.23-4.49-1.8-7.49-2.95-14-5.5-22.33-13.87a45.07 45.07 0 0 1-6.11-56 61.2 61.2 0 0 1 6.2-7.71c.1-.11.18-.23.27-.35s.22-.26.31-.4.16-.28.23-.43.16-.29.22-.44.09-.31.14-.46a2.6 2.6 0 0 0 .12-.46 3.84 3.84 0 0 0 0-.48v-.95a1.35 1.35 0 0 0-.06-.48c-.06-.16 0-.32-.08-.49a2.45 2.45 0 0 1-.15-.46 4.64 4.64 0 0 0-.23-.44 2.86 2.86 0 0 0-.24-.42 5.06 5.06 0 0 0-.33-.41c-.09-.11-.17-.23-.27-.33v-.05c-.11-.1-.24-.18-.35-.27a4.64 4.64 0 0 0-.4-.31L25.3 10c-.14-.07-.28-.15-.43-.21l-.48-.14a2.74 2.74 0 0 1-.39-.18 2.78 2.78 0 0 0-.5 0h-.95a1.19 1.19 0 0 0-.46.06c-.15.06-.31.09-.47.14s-.31.09-.45.15a4.64 4.64 0 0 0-.44.23c-.14.08-.28.14-.42.23a5 5 0 0 0-.41.33c-.11.09-.23.17-.33.27l-.08.08V11a55 55 0 0 0-7.24 9 71.51 71.51 0 0 0 9.65 91.49 5 5 0 0 0 7-.07l9.58-9.58c2.35 1.07 4.64 2 6.9 2.87l2.6 1a104.24 104.24 0 0 0-13.34 11.44 5 5 0 0 0 6.95 7.19l.12-.12A94.14 94.14 0 0 1 53.37 114v11.64a5 5 0 0 0 10 0V114a94.14 94.14 0 0 1 11.82 10.2 5 5 0 0 0 7.19-6.95l-.12-.12a104.24 104.24 0 0 0-13.34-11.44l2.6-1c2.27-.89 4.56-1.8 6.9-2.87l9.58 9.61a5 5 0 0 0 7 .07 71.51 71.51 0 0 0 9.64-91.5zm-79.38 80.7A60.74 60.74 0 0 1 14 82.18a55.19 55.19 0 0 0 5.5 6.41 67.14 67.14 0 0 0 9.76 8.17zm55.6-51A22.53 22.53 0 0 1 66.8 70.55a62.88 62.88 0 0 1-3.43-20.85 62.88 62.88 0 0 1 3.43-20.85A22.53 22.53 0 0 1 80.86 49.7zm-26.1-34.23L58.37 12 62 15.51q-.52.91-1 1.84c-.85-.07-1.71-.11-2.58-.11a20.09 20.09 0 0 0-2.58.11q-.55-.98-1.08-1.88zM35.86 49.7a22.53 22.53 0 0 1 14.07-20.86 62.88 62.88 0 0 1 3.43 20.85 62.88 62.88 0 0 1-3.43 20.85A22.53 22.53 0 0 1 35.86 49.7zm55.6 51l-4-4a67.14 67.14 0 0 0 9.76-8.17 55.19 55.19 0 0 0 5.5-6.41 60.74 60.74 0 0 1-11.25 18.61z" fill="#fff"/></g></g></g></g></svg>