<svg xmlns="http://www.w3.org/2000/svg" viewBox="0 0 350.82000732421875 94.91000366210938"><title>Depositphotos_76912845_04</title><g data-name="Layer 2"><g data-name="—ÎÓÈ_2"><path fill="#dfedf4" d="M.02.22h10.99v94.69H.02z"/><path d="M310.58 26.74c.79 1.47 1.65 3.21 2.46 5.13l.42.32a21.28 21.28 0 0 1 .93 2.47 40.79 40.79 0 0 1 1.32 5.34 29.42 29.42 0 0 1 .75 6.34v2.4a29.41 29.41 0 0 1-.75 6.34 38.54 38.54 0 0 1-1.64 6.32c-.36 1-.61 1.52-.61 1.52l-.42.32a69.65 69.65 0 0 1-1.57 3.4 93.05 93.05 0 0 0 1.43-13.18c.07-1.56.1-3.16.1-4.79s0-3.34-.11-5a82.68 82.68 0 0 0-2.31-16.93z" fill="#edf6fa"/><path d="M11 .22s7.59 3.2 26.37 5.39 118.07 9.79 156 10.59 106.28 3 107.68 3h.09c1.47 0 5.34.65 6.9 3.19.48.78 1.42 2.31 2.51 4.35a90 90 0 0 1 2.42 22 99 99 0 0 1-1.53 18c-.1.2-.19.38-.29.57-30.27-1.63-131.28-6.28-198.89.11C32 74.93 16.8 87.72 16.8 87.72a18 18 0 0 0-5.8 4.87z" fill="#dfedf4"/><path d="M311.18 67.23a72.312 72.312 0 0 1-3.11 5.5c-1.6 2.6-5.59 3.2-7 3.2h-1.16c-9.27.26-71.11 2.22-106.52 3-38 .8-137.25 8.39-156 10.59S11 94.91 11 94.91v-2.32a18 18 0 0 1 5.79-4.88S32 74.93 112.29 67.34c67.6-6.34 168.62-1.74 198.89-.11z" fill="#c9dfea"/><path d="M316.26 32.18a1.2 1.2 0 0 1 .9.54c1.51 1.84 2.63 8.24 2.63 15.85s-1.11 14-2.63 15.85a1.21 1.21 0 0 1-.9.53 1.12 1.12 0 0 1-.8-.42 3 3 0 0 1-.33-.44 10 10 0 0 1-1.05-2.66c.25-.69.55-1.6.84-2.73.4 1.58.88 2.52 1.41 2.52 1.32 0 2.4-5.93 2.4-13.25s-1.08-13.25-2.4-13.25c-.48 0-.93.77-1.3 2.11-.22-.83-.43-1.56-.63-2.17a7.78 7.78 0 0 1 .73-1.61 3 3 0 0 1 .33-.44 1.12 1.12 0 0 1 .8-.43z" fill="#a8c7d8"/><path d="M316.33 34.71c1.32 0 2.4 5.93 2.4 13.25s-1.08 13.25-2.4 13.25c-.53 0-1-.93-1.41-2.52.28-1 .56-2.23.8-3.59a29.41 29.41 0 0 0 .75-6.34v-2.4a29.42 29.42 0 0 0-.75-6.34c-.21-1.19-.45-2.26-.69-3.2.37-1.34.82-2.11 1.3-2.11z" fill="#c9dfea"/><path fill="#aeccdc" d="M338.37 34.13l-21.21-1.41 16.07 1.07 5.14.34z"/><path d="M317.75 63.41v-.09z" fill="#aeccdc"/><path d="M317.35 64.15v-.07z" fill="#aeccdc"/><path fill="#aeccdc" d="M318.01 34.35l.01.01v-.01h-.01z"/><path d="M318.71 36.76v-.12z" fill="#aeccdc"/><path d="M318.43 35.65v.09-.07z" fill="#aeccdc"/><path d="M317.4 33.05V33z" fill="#aeccdc"/><path d="M318.59 36.27v-.14z" fill="#aeccdc"/><path d="M319.79 48.56z" fill="#aeccdc"/><path d="M319.61 53.76v-.1.1z" fill="#aeccdc"/><path d="M319.62 43.58v-.1.1z" fill="#aeccdc"/><path fill="#aeccdc" d="M317.16 64.41l10.02-.67-10.02.67z"/><path d="M330.28 60.67q.79-.94 1.58-2.09-6.49.54-13 .87c-.15.77-.31 1.48-.49 2.11q5.96-.32 11.91-.89z" fill="#dfedf4"/><path d="M329.09 62q-5.57.56-11.13.91l-.17.41v.09c-.06.13-.12.25-.18.36l-.18.31v.07c-.06.09-.12.18-.19.26l10-.67a21.36 21.36 0 0 0 1.85-1.74z" fill="#dfedf4"/><path d="M332.68 57.34q.57-.93 1.14-2-7.21.43-14.41.7c0 .37-.08.72-.13 1.07 0 .35-.09.7-.15 1q6.76-.26 13.55-.77z" fill="#dfedf4"/><path d="M319.14 39.1q.16 1 .27 2.11 9.45.33 18.92 1c.12-.58.24-1.18.35-1.79q-9.77-.87-19.54-1.32z" fill="#dfedf4"/><path d="M338.87 39.32c.1-.58.19-1.17.28-1.78-6.9-.83-13.81-1.47-20.71-1.87v.07l.1.39v.14l.09.37v.12l.09.44v.07c0 .17.07.34.1.51q10.06.53 20.05 1.54z" fill="#dfedf4"/><path d="M334.42 54.15q.45-.92.87-1.93-7.81.26-15.61.42c0 .34 0 .67-.06 1v.1c0 .34 0 .67-.08 1q7.46-.2 14.88-.59z" fill="#dfedf4"/><path d="M335.76 51.07q.35-.9.68-1.87l-16.65.07v2.09q7.95-.1 15.97-.29z" fill="#dfedf4"/><path d="M336.81 48.07c.19-.59.37-1.2.54-1.84q-8.81-.21-17.61-.34v2.09z" fill="#dfedf4"/><path d="M337.65 45.12c.15-.59.3-1.2.44-1.82q-9.28-.52-18.55-.8c0 .31.05.63.07 1v.1c0 .34 0 .68.06 1q8.99.19 17.98.52z" fill="#dfedf4"/><path d="M339.3 36.46c.07-.58.15-1.17.21-1.77-2.09-.32-4.19-.62-6.28-.9l-16.07-1.07a3.49 3.49 0 0 1 .21.28v.05c.07.11.13.22.2.35a8.39 8.39 0 0 1 .41.93c7.12.47 14.22 1.19 21.32 2.13z" fill="#dfedf4"/><path d="M318.19 62.29c-.07.22-.14.42-.22.62.03-.2.14-.4.22-.62z" fill="#c9dfea"/><path d="M329.09 62c.39-.4.79-.84 1.19-1.32q-5.95.56-11.89.92c-.07.24-.14.47-.21.68-.07.22-.14.42-.22.62q5.56-.34 11.13-.9z" fill="#c9dfea"/><path d="M318.9 59.43c0-.19.07-.39.11-.59-.01.16-.07.4-.11.59z" fill="#c9dfea"/><path d="M319.12 58.16c0 .22-.07.44-.11.65 0-.21.07-.43.11-.65z" fill="#c9dfea"/><path d="M331.87 58.58c.27-.39.54-.81.81-1.24q-6.78.51-13.56.82c0 .22-.07.44-.11.65 0 .2-.07.4-.11.59q6.48-.27 12.97-.82z" fill="#c9dfea"/><path d="M319.53 54.75c0 .44-.08.86-.13 1.28 0-.42.09-.85.13-1.28z" fill="#c9dfea"/><path d="M333.81 55.35c.2-.38.41-.78.6-1.19q-7.45.38-14.89.6c0 .44-.08.86-.13 1.28q7.21-.25 14.42-.69z" fill="#c9dfea"/><path d="M319.74 51.36c0 .42 0 .84-.06 1.26 0-.41 0-.83.06-1.26z" fill="#c9dfea"/><path d="M335.29 52.23c.16-.38.32-.76.47-1.16q-8 .19-16 .3c0 .42 0 .84-.06 1.26q7.77-.14 15.59-.4z" fill="#c9dfea"/><path d="M319.79 48z" fill="#c9dfea"/><path d="M336.44 49.19c.13-.37.25-.74.37-1.13l-17-.08v1.28z" fill="#c9dfea"/><path d="M319.68 44.61q0 .63.06 1.27 0-.65-.06-1.27z" fill="#c9dfea"/><path d="M337.35 46.23c.1-.36.2-.73.3-1.11q-9-.32-18-.51 0 .63.06 1.27 8.83.12 17.64.35z" fill="#c9dfea"/><path d="M319.41 41.22c0 .41.09.84.12 1.27 0-.43-.08-.86-.12-1.27z" fill="#c9dfea"/><path d="M338.09 43.3c.08-.36.16-.73.24-1.1q-9.46-.64-18.92-1c0 .41.09.84.12 1.27q9.27.31 18.56.83z" fill="#c9dfea"/><path d="M318.92 37.82z" fill="#c9dfea"/><path d="M338.68 40.41c.06-.36.13-.72.19-1.09q-10-1-19.95-1.51c.08.41.15.84.22 1.28q9.76.45 19.54 1.32z" fill="#c9dfea"/><path d="M318.23 35c-.07-.21-.14-.42-.21-.61.07.16.14.37.21.61z" fill="#c9dfea"/><path d="M318.43 35.65c-.06-.23-.13-.45-.19-.66.06.21.13.43.19.66z" fill="#c9dfea"/><path d="M339.15 37.54l.15-1.08c-7.1-.94-14.2-1.66-21.28-2.11.07.19.14.4.21.61.07.21.13.43.19.66 6.91.45 13.82 1.09 20.73 1.92z" fill="#c9dfea"/><path fill="#c9dfea" d="M339.56 34.21l-1.19-.08 1.19.08z"/><path d="M339.51 34.68c0-.16 0-.32.05-.48l-1.19-.08-5.14-.34c2.09.28 4.18.58 6.28.9z" fill="#c9dfea"/><path d="M348.61 60.25q.4-.89.73-1.89-.18.53-.37 1t-.36.89z" fill="#aeccdc"/><path fill="#aeccdc" d="M335.2 63.2l-8.02.54 11.19-.75-3.17.21z"/><path d="M347.87 61.71c-.1.18-.21.35-.32.52.11-.18.22-.35.32-.52z" fill="#aeccdc"/><path d="M348.18 61.13l-.2.36z" fill="#aeccdc"/><path d="M349.39 38.91z" fill="#aeccdc"/><path d="M349.87 40.55q.12.48.23 1-.1-.55-.23-1z" fill="#aeccdc"/><path d="M348.67 37q.18.42.36.87l-.36-.87z" fill="#aeccdc"/><path d="M350.1 41.54c0 .21.09.42.13.63-.04-.17-.09-.43-.13-.63z" fill="#aeccdc"/><path d="M348.58 60.3c-.13.28-.26.55-.39.81.14-.26.27-.53.39-.81z" fill="#aeccdc"/><path d="M349.83 56.72c-.07.28-.15.56-.23.83.08-.27.15-.55.23-.83z" fill="#aeccdc"/><path d="M349 37.88c.13.33.25.67.37 1-.09-.33-.22-.67-.37-1z" fill="#aeccdc"/><path d="M349.59 57.55q-.12.41-.25.8.13-.35.25-.8z" fill="#aeccdc"/><path d="M348.65 37q-.32-.73-.68-1.37.15.27.29.55c.13.23.26.5.39.82z" fill="#aeccdc"/><path d="M349.83 56.71a27.285 27.285 0 0 0 .24-.99q-.07.51-.24.99z" fill="#aeccdc"/><path d="M350.37 54.13c.13-.82.24-1.66.32-2.53 0 .53-.11 1.05-.17 1.56q-.07.5-.15.97z" fill="#aeccdc"/><path d="M350.53 44.09q.1.77.17 1.56c0 .31 0 .63.07 1v1.55a34 34 0 0 0-.56-5.82c0 .26.09.53.14.79s.14.59.18.92z" fill="#aeccdc"/><path d="M350.71 51.34q.09-1.09.1-2.23c0 .52 0 1-.05 1.55-.01.22-.03.45-.05.68z" fill="#aeccdc"/><path d="M347.95 35.57c-.16-.29-.33-.57-.5-.83l.19.31c.11.16.21.34.31.52z" fill="#aeccdc"/><path fill="#aeccdc" d="M349.83 56.72v-.01.01z"/><path d="M348.61 60.25v.06z" fill="#aeccdc"/><path fill="#aeccdc" d="M350.37 54.14v-.01.01z"/><path d="M350.23 42.17v.16z" fill="#aeccdc"/><path fill="#aeccdc" d="M349.87 40.55v-.01.01z"/><path fill="#aeccdc" d="M350.69 51.61v-.01.01z"/><path fill="#aeccdc" d="M350.81 49.11v-.01.01z"/><path fill="#aeccdc" d="M346.4 62.46l1.05-.07-1.05.07z"/><path d="M347.45 62.39l.09-.15z" fill="#aeccdc"/><path d="M346.4 62.46l1-.07.09-.15z" fill="#aeccdc"/><path fill="#aeccdc" d="M350.81 48.16v-.01.01z"/><path d="M331.87 58.58q-.79 1.15-1.58 2.09 9.53-.91 19.06-2.31.13-.39.25-.8c.08-.27.16-.55.23-.83q-8.97 1.1-17.96 1.85z" fill="#d6e7f0"/><path d="M329.09 62a21.36 21.36 0 0 1-1.91 1.74l8-.54q6.5-.89 13-2.08c.13-.26.26-.53.39-.81v-.06q.19-.42.36-.86Q339 61 329.09 62z" fill="#d6e7f0"/><path d="M333.81 55.35q-.56 1.06-1.14 2 8.7-.65 17.39-1.61c.11-.52.21-1 .3-1.59q-8.26.69-16.55 1.2z" fill="#d6e7f0"/><path d="M338.68 40.41c-.11.61-.23 1.21-.35 1.79q6 .41 12.07.93c0-.27-.09-.53-.14-.79v-.16c0-.21-.08-.42-.13-.63q-5.74-.64-11.45-1.14z" fill="#d6e7f0"/><path d="M339.15 37.54c-.09.61-.18 1.19-.28 1.78q5.5.55 11 1.23c-.15-.57-.3-1.11-.48-1.64q-5.12-.76-10.24-1.37z" fill="#d6e7f0"/><path d="M335.29 52.23q-.43 1-.87 1.93 8.06-.41 16.1-1c.07-.51.13-1 .17-1.56q-7.69.4-15.4.63z" fill="#d6e7f0"/><path d="M336.44 49.19q-.33 1-.68 1.87 7.51-.18 15-.41c0-.51 0-1 .05-1.55z" fill="#d6e7f0"/><path d="M337.35 46.23c-.18.63-.36 1.24-.54 1.84l14 .09v-1.55q-6.74-.22-13.46-.38z" fill="#d6e7f0"/><path d="M350.53 44.09q-6.22-.44-12.45-.79c-.14.62-.29 1.23-.44 1.82q6.53.23 13 .53-.01-.79-.11-1.56z" fill="#d6e7f0"/><path d="M339.51 34.68c-.07.6-.14 1.19-.21 1.77q4.87.64 9.73 1.42-.17-.44-.36-.87c-.12-.28-.25-.56-.39-.82q-4.39-.83-8.77-1.5z" fill="#d6e7f0"/><path fill="#aeccdc" d="M347.45 34.73l-2.21-.14 2.21.14z"/><path d="M347.64 35l-.19-.31-2.21-.15z" fill="#aeccdc"/><path fill="#aeccdc" d="M348.18 61.13h.01-.01z"/><path d="M348 61.49l-.12.21z" fill="#aeccdc"/><path fill="#aeccdc" d="M338.37 62.99l8.03-.53-8.03.53z"/><path d="M350.69 51.61v-.27.27z" fill="#aeccdc"/><path d="M350.82 48.56v-.41.41z" fill="#aeccdc"/><path d="M350.81 49.1v-.54.54z" fill="#aeccdc"/><path fill="#aeccdc" d="M345.24 34.59l-5.68-.38 5.68.38z"/><path d="M335.2 63.2l3.17-.21 8-.53 1.14-.22c.11-.17.21-.34.32-.52l.12-.21.2-.36q-6.45 1.15-12.95 2.05z" fill="#adcbdb"/><path d="M330.28 60.67c-.4.48-.8.92-1.19 1.32Q339 61 349 59.39q.2-.5.37-1-9.55 1.36-19.09 2.28z" fill="#adcbdb"/><path d="M332.68 57.34c-.27.43-.54.85-.81 1.24q9-.75 18-1.87.13-.48.24-1-8.73.97-17.43 1.63z" fill="#adcbdb"/><path d="M334.42 54.15c-.2.41-.4.81-.6 1.19q8.29-.5 16.56-1.21.08-.48.14-1-8.04.61-16.1 1.02z" fill="#adcbdb"/><path d="M335.76 51.07c-.15.4-.31.78-.47 1.16q7.71-.26 15.4-.62v-.27c0-.09 0-.45.05-.68q-7.47.23-14.98.41z" fill="#adcbdb"/><path d="M336.81 48.07c-.12.38-.24.76-.37 1.13l14.37-.09v-.95z" fill="#adcbdb"/><path d="M350.7 45.65q-6.52-.31-13-.53c-.1.38-.2.75-.3 1.11q6.71.16 13.41.37c-.06-.32-.08-.6-.11-.95z" fill="#adcbdb"/><path d="M350.4 43.13q-6-.52-12.07-.93c-.08.37-.16.74-.24 1.1q6.23.34 12.45.79-.07-.49-.14-.96z" fill="#adcbdb"/><path d="M338.87 39.32c-.06.37-.12.73-.19 1.09q5.71.5 11.42 1.13-.11-.5-.23-1-5.5-.67-11-1.22z" fill="#adcbdb"/><path d="M339.3 36.46c0 .36-.1.73-.15 1.08q5.13.62 10.24 1.36c-.11-.35-.24-.69-.37-1q-4.86-.8-9.72-1.44z" fill="#adcbdb"/><path d="M345.24 34.59l-5.68-.38c0 .16 0 .32-.05.48q4.38.67 8.75 1.46-.14-.28-.29-.55c-.1-.18-.2-.36-.31-.53z" fill="#adcbdb"/><path fill="#c5dce8" d="M0 93.39h10.79v1.33H0z"/><path fill="#f9fdfe" d="M0 92.14h10.79v1.33H0z"/><path fill="#c5dce8" d="M0 89.15h10.79v1.33H0z"/><path fill="#f9fdfe" d="M0 87.9h10.79v1.33H0z"/><path fill="#c5dce8" d="M0 84.9h10.79v1.33H0z"/><path fill="#f9fdfe" d="M0 83.65h10.79v1.33H0z"/><path fill="#c5dce8" d="M0 80.66h10.79v1.33H0z"/><path fill="#f9fdfe" d="M0 79.41h10.79v1.33H0z"/><path fill="#c5dce8" d="M0 76.41h10.79v1.33H0z"/><path fill="#f9fdfe" d="M0 75.16h10.79v1.33H0z"/><path fill="#c5dce8" d="M0 72.17h10.79v1.33H0z"/><path fill="#f9fdfe" d="M0 70.92h10.79v1.33H0z"/><path fill="#c5dce8" d="M0 67.92h10.79v1.33H0z"/><path fill="#f9fdfe" d="M0 66.67h10.79V68H0z"/><path fill="#c5dce8" d="M0 63.68h10.79v1.33H0z"/><path fill="#f9fdfe" d="M0 62.43h10.79v1.33H0z"/><path fill="#c5dce8" d="M0 59.43h10.79v1.33H0z"/><path fill="#f9fdfe" d="M0 58.18h10.79v1.33H0z"/><path fill="#c5dce8" d="M0 55.19h10.79v1.33H0z"/><path fill="#f9fdfe" d="M0 53.94h10.79v1.33H0z"/><path fill="#c5dce8" d="M0 50.94h10.79v1.33H0z"/><path fill="#f9fdfe" d="M0 49.69h10.79v1.33H0z"/><path fill="#c5dce8" d="M0 46.7h10.79v1.33H0z"/><path fill="#f9fdfe" d="M0 45.45h10.79v1.33H0z"/><path fill="#c5dce8" d="M0 42.45h10.79v1.33H0z"/><path fill="#f9fdfe" d="M0 41.2h10.79v1.33H0z"/><path fill="#c5dce8" d="M0 38.21h10.79v1.33H0z"/><path fill="#f9fdfe" d="M0 36.96h10.79v1.33H0z"/><path fill="#c5dce8" d="M0 33.96h10.79v1.33H0z"/><path fill="#f9fdfe" d="M0 32.71h10.79v1.33H0z"/><path fill="#c5dce8" d="M0 29.72h10.79v1.33H0z"/><path fill="#f9fdfe" d="M0 28.47h10.79v1.33H0z"/><path fill="#c5dce8" d="M0 25.47h10.79v1.33H0z"/><path fill="#f9fdfe" d="M0 24.22h10.79v1.33H0z"/><path fill="#c5dce8" d="M0 21.23h10.79v1.33H0z"/><path fill="#f9fdfe" d="M0 19.98h10.79v1.33H0z"/><path fill="#c5dce8" d="M0 16.98h10.79v1.33H0z"/><path fill="#f9fdfe" d="M0 15.73h10.79v1.33H0z"/><path fill="#c5dce8" d="M0 12.73h10.79v1.33H0z"/><path fill="#f9fdfe" d="M0 11.49h10.79v1.33H0z"/><path fill="#c5dce8" d="M0 8.49h10.79v1.33H0z"/><path fill="#f9fdfe" d="M0 7.24h10.79v1.33H0z"/><path fill="#c5dce8" d="M0 4.25h10.79v1.33H0z"/><path fill="#f9fdfe" d="M0 3h10.79v1.33H0z"/><path fill="#c5dce8" d="M0 0h10.79v1.33H0z"/><path d="M15.7 5c3.51 0 6.74 3.58 9.26 9.55 2.63 6.22 4.51 15 5.17 25.12.17 2.58.26 5.25.26 8 0 23.56-6.57 42.65-14.68 42.65a5.68 5.68 0 0 1-2.79-.77 315.42 315.42 0 0 0 2.48-42.27A320.2 320.2 0 0 0 13 5.72 5.62 5.62 0 0 1 15.7 5z" fill="#f9fdfe"/><path d="M25 14.56L283.8 30.9l26.14 1.65a72.72 72.72 0 0 1 1.51 14l-29.53-.72-251.79-6.15c-.66-10.07-2.54-18.89-5.13-25.12z" fill="#f9fdfe"/></g></g></svg>