<svg xmlns="http://www.w3.org/2000/svg" viewBox="-0.3400001525878906 -0.015999794006347656 1300.56201171875 987.7259521484375"><title>Asset 4</title><g data-name="Layer 2"><g data-name="—ÎÓÈ_3"><path fill="#dd5252" d="M351.78 238.65v-18.98l574.71-16.5 17.76 557.97-703.54 33 111.07-555.49z"/><path d="M256.79 645.87c4.66-5.44-38.79-402.92-38.79-402.92l648-30-18 390.34z" fill="#57d5ea"/><path fill="#e3fafc" d="M251.18 270.08l652.32-48.04 24.37 497.97-639.42 48-37.27-497.93z"/><path d="M461.93 378.74a6.5 6.5 0 0 0-7.07-6.55c-4.12.29-7.6 3.77-6.74 8.06.76 3.82 5 6.46 8.6 5.27a7.4 7.4 0 0 0 5.21-6.78z" fill="#634c27"/><path d="M486.12 375.06c-.28-.16-.55-.31-.81-.49a3.11 3.11 0 0 0-3.71.48 6.87 6.87 0 0 0-1.63 2.63 6.34 6.34 0 0 0-1.25 5.34c.39 1.86 2.43 2.66 4.12 2.34h.14a7 7 0 0 0 7.92-5.12c.74-3.17-2.01-4.92-4.78-5.18z" fill="#634c27"/><path d="M483.79 405.22c-.27-3.36-5.3-3.47-5.31 0 0 6.69-5.71 13.2-12.85 11.52-6.26-1.47-8.48-7.26-9.58-12.82a1 1 0 0 0-1.89-.25c-3.69 7.93 3.82 17.32 11.68 18.54 9.7 1.51 18.73-7.36 17.95-16.99z" fill="#634c27"/><path d="M565 307.53a1.56 1.56 0 0 0-1.75.73c-.17.29-.35.57-.53.85a4.7 4.7 0 0 0-.68 1.12c-.05.09-.11.18-.16.27-.5.94-1.35 2.11-1 3.22a5.1 5.1 0 0 0 3.41 3 4.93 4.93 0 0 0 6.46-4.44c.07-3.12-2.82-5.7-5.75-4.75z" fill="#634c27"/><path d="M598.83 313.08c0-.08-.1-.15-.15-.23a4.78 4.78 0 0 0-.61-2.11 4.29 4.29 0 0 0-3.2-2.28c-2.9-.07-5.06 3.17-4.4 5.85a5 5 0 0 0 6.9 3.06 3.06 3.06 0 0 0 1.46-4.29z" fill="#634c27"/><path d="M583 326.67a98.53 98.53 0 0 0-2.34-10.8 1.37 1.37 0 0 0-2.67.36 89.51 89.51 0 0 0 1.11 10c.46 3.23.43 6.9 2 9.77a1.56 1.56 0 0 0 2.83-.37c.6-3.03-.37-5.97-.93-8.96z" fill="#634c27"/><path d="M589 340.17c-.29 3.26-2.52 6.42-6.1 6.45s-6.06-2.81-7-5.93a1.55 1.55 0 0 0-3 .41 10.29 10.29 0 0 0 10.46 10.21 11.06 11.06 0 0 0 10.35-11.14 2.36 2.36 0 0 0-4.71 0z" fill="#634c27"/><path d="M738.25 421.5c-.25-1-.56-2-.84-3.06a3.63 3.63 0 0 0-2.4-2.83 4.45 4.45 0 0 0-3.38.26h-.17c-2.39.33-4.19 2.6-2.81 4.94a3.63 3.63 0 0 0 1.5 1.38 4.16 4.16 0 0 0 .32.38 4.69 4.69 0 0 0 2.72 1.31 4.56 4.56 0 0 0 1.89.77c1.92.35 3.67-1.07 3.17-3.15z" fill="#634c27"/><path d="M757.49 426.59a3.85 3.85 0 0 0 .18-1.26c-.08-2.48-2.94-3.66-5.07-3.12a4 4 0 0 0-2.69 5.72 4.7 4.7 0 0 0 6.68 1.82 2.45 2.45 0 0 0 .9-3.16z" fill="#634c27"/><path d="M746.83 439.07c-1.53 3-4.76 5.28-8.22 3.71a7.2 7.2 0 0 1-3.4-9c.38-.94-1.07-1.44-1.57-.66-2.91 4.48-1.61 10.95 3.44 13.32a10.05 10.05 0 0 0 13.37-5.8c.69-2.16-2.59-3.64-3.62-1.57z" fill="#634c27"/><path d="M743.58 420.85a1 1 0 0 0-1.88-.25c-1.2 1.69-1.1 4-1.35 6a73.73 73.73 0 0 0-.51 7.49.71.71 0 0 0 1.38.19A74.11 74.11 0 0 0 743 427c.43-2 1.21-4.16.58-6.15z" fill="#634c27"/><path d="M440.74 442.69a38 38 0 0 0-7.44 2.94l4.07-6.83c1-1.6-.88-3-2.35-2.35a41.78 41.78 0 0 0-4.58 2.35 47.43 47.43 0 0 0 2.61-6.51c.55-1.73-1.64-2.7-2.84-1.66l-9.8 8.49 6.81-10.66c.91-1.43-.86-3-2.23-2.23a66.53 66.53 0 0 0-6.81 4.31c2.13-3.14 4.24-6.29 6.28-9.48a1.59 1.59 0 0 0-2.16-2.16 61.23 61.23 0 0 0-7.33 5 86.2 86.2 0 0 0 4.52-11c.48-1.44-1.39-2.28-2.39-1.39-1.94 1.73-3.92 3.4-5.92 5.07 2.46-4.17 4.93-8.34 7.47-12.46.72-1.17-.75-2.74-1.94-1.94-.89.61-1.76 1.24-2.61 1.89 2-2.93 4-5.86 6-8.8 1-1.42-1.08-2.73-2.25-1.73q-4.24 3.64-8.44 7.33l11.06-14.19a1.39 1.39 0 0 0-2-2c-2.55 2.22-5.12 4.4-7.69 6.6l12.58-15.11c1-1.21-.25-3.14-1.75-2.27-.68.39-1.33.81-2 1.22l6-7.22a1.67 1.67 0 0 0-2.36-2.36q-5.05 4.54-10.16 9l.09-.09a.59.59 0 0 0-.08-.89q2-3.21 3.9-6.43a2 2 0 0 0-2.67-2.67 34.79 34.79 0 0 0-13.46 14.72l-.41.67a.1.1 0 0 0 0 .15c-.32.7-.64 1.41-.93 2.14a1.3 1.3 0 0 0 .23 1.36l-1.41 2.14c-.25.38.35.72.6.35q.72-1 1.47-2a1.62 1.62 0 0 0 1.6-.08l-.08.1a.65.65 0 0 0-.05.78 1.9 1.9 0 0 0 3.13 1.86l2.82-2.58-2.73 3.29q-1.22 1.4-2.39 2.88l-.27.33-.26.33c-1.11 1.46 1.38 3.39 2.56 2l4.34-5.21a62.87 62.87 0 0 1 4.5-4.4l-16.43 19.61a1.5 1.5 0 0 0 2.12 2.12c3.3-2.84 6.58-5.72 9.85-8.59q-6.11 7.74-12.26 15.46a1.54 1.54 0 0 0 2.18 2.18q5.95-5.07 11.71-10.23l-7 10.19a62.21 62.21 0 0 0-5.88 8.56 1.51 1.51 0 0 0 2.6 1.52c1.82-2.65 3.62-5.32 5.43-8a59.54 59.54 0 0 1 6.28-6.67c-2.65 4.39-5.34 8.76-8 13.15-.92 1.52 1.1 2.85 2.34 1.8 2.72-2.31 5.39-4.68 8.09-7a99 99 0 0 1-8.62 15.69c-.78 1-1.54 2.11-2.25 3.23-1.1 1.73 1.53 3.15 2.69 1.57.87-1.18 1.7-2.38 2.51-3.59a45.28 45.28 0 0 1 8.12-8.32c-3.82 5.48-7.55 11-11.33 16.55-1.1 1.6 1.51 3.66 2.72 2.1A60.71 60.71 0 0 1 420.4 433l-9 14c-1.08 1.68 1.25 3.21 2.63 2l13.2-11.38a41.3 41.3 0 0 1-4.46 7.05 41.53 41.53 0 0 0-3.52 4c-1.31 1.68.81 4 2.41 2.41a47.42 47.42 0 0 0 3.48-3.9 37.44 37.44 0 0 1 6.13-4.87l-4.88 8.14c-1.06 1.77 1.27 3.32 2.72 2.1a33.07 33.07 0 0 1 12.52-6.77 1.63 1.63 0 0 0-.89-3.09zm-38.19-59.25a36.6 36.6 0 0 1 3.16-5.52l.94-1-3.38 5.65-.75.9z" fill="#f7ce21"/><path d="M471.87 343.45c-.45.17-.9.37-1.34.59a1.54 1.54 0 0 0-2.48-.59q-4.66 3.76-9 7.8l1-1.44c1-1.48-1.29-3.26-2.49-1.92-4.15 4.66-8.55 9.11-12.94 13.56a63.54 63.54 0 0 1 7.38-10.34 1.3 1.3 0 0 0-1.84-1.84c-6.34 5.23-12.73 11.09-17.16 18.09a.89.89 0 0 0 1.4 1.08c2.59-2.61 5.09-5.26 7.62-7.87a68 68 0 0 0-3.66 7.32c-.57 1.34 1 2.87 2.16 1.67 2.13-2.15 4.23-4.32 6.34-6.5l-2.47 3.54c-1.1 1.58 1.42 3.54 2.68 2.07q4.87-5.69 10.15-11a1.48 1.48 0 0 0 2.56.7c4.06-4.69 9.74-8.32 13.37-13.22a1.15 1.15 0 0 0-1.28-1.7z" fill="#f7ce21"/><path d="M514.45 367a1.9 1.9 0 0 0-2.81-1.53l-1 .52a23.74 23.74 0 0 0 .7-3.27c.22-1.63-1.77-3.45-3.15-1.84-.27.32-.55.62-.83.91a32.93 32.93 0 0 0 1.15-4.22c.37-1.8-1.81-3.34-3.22-1.88l-2.21 2.31c.51-1.15 1-2.3 1.53-3.45.82-1.81-1.48-4.11-3-2.32l-1.35 1.59c.36-.85.71-1.7 1.07-2.55.67-1.58-.83-3.76-2.61-2.61q-1.59 1-3.05 2.17c.67-1.39 1.33-2.78 2-4.16a1.77 1.77 0 0 0-2.41-2.41 40.86 40.86 0 0 0-5.32 3.58c.44-1.08.88-2.17 1.34-3.24a1.59 1.59 0 0 0-2.49-1.92c-1.49 1.24-3 2.49-4.46 3.74.28-1.12.55-2.25.79-3.39s-1.4-1.95-1.91-.8q-1.76 4-3.18 8.14c-.55 1.61 1.51 2.41 2.6 1.51l3.11-2.57c-.75 1.66-1.51 3.32-2.24 5s1.42 3.9 2.81 2.17a38 38 0 0 1 5.1-5.25l-4.17 8.22a1.94 1.94 0 0 0 3.34 2 43.28 43.28 0 0 1 4.4-4.92l-3.22 7.45c-.8 1.87 1.52 4.28 3.11 2.4l.74-.89-.3.68c-.83 1.87 1.39 4 3 2.33l3.44-3.56a17 17 0 0 1-1 1.66c-1.1 1.76 1 3.35 2.62 2.62a22.11 22.11 0 0 0 2.53-1.36c-.2.43-.39.86-.63 1.29a1.92 1.92 0 0 0 2.61 2.61l1.81-1a1.48 1.48 0 0 0 1.29 1.59c2.65.36 4.47-.35 5.88-2.66 1.14-1.77-.96-3.39-2.41-2.69z" fill="#f7ce21"/><path d="M534.76 383.89c.62-1.26 1.19-2.55 1.7-3.88s-1.23-2.36-2.37-1.82l-2.78 1.33 2.16-5.36a1.57 1.57 0 0 0-1-1.92 46.3 46.3 0 0 0 3.12-6.37 1.57 1.57 0 0 0-2.29-1.76c-1.71 1.25-3.4 2.52-5.11 3.78.41-.87.82-1.74 1.24-2.61a1.41 1.41 0 0 0-1.58-2l-2.52.6q.51-2.09 1-4.19a1 1 0 0 0-1.94-.54c-.83 2.1-1.67 4.2-2.46 6.32-.4 1.08.8 2.06 1.8 1.8l1.9-.51-2.53 5.09c-.6 1.21.72 3 2 2 1.65-1.17 3.27-2.36 4.91-3.54a40.9 40.9 0 0 1-4.66 6.49c-1.09 1.25.39 3.62 1.91 2.47l1.06-.8-1.57 3.85c-.59 1.43 1.25 2.34 2.36 1.81l2.66-1.26a33.47 33.47 0 0 1-7.41 9.89c-1.64 1.52.78 3.89 2.44 2.44l1.42-1.26-2.54 4.66a1.78 1.78 0 0 0 1.12 2.5q-3.5 5-7 9.94a1.39 1.39 0 0 0-.25.58l-18 18.75a1.8 1.8 0 0 0-.19.24c-4.6 3.75-9.11 7.61-13.48 11.66a1.53 1.53 0 0 0 1.84 2.39c3-1.76 5.85-3.65 8.65-5.63a1.74 1.74 0 0 0 2.69 1.26q-6 4.74-12 9.51c-1.55 1.23.33 3.67 2 2.89l-1.24 1.41c-1.11 1.29.38 3.7 2 2.53l8.79-6.5-3.6 3.65c-1.5 1.55.86 3.91 2.37 2.37a96.5 96.5 0 0 1 13.6-11.65 23.62 23.62 0 0 1-3.25 4.16 1.38 1.38 0 0 0-1.25-.14c-2.57.82-3.48 2.56-3.12 5.18a1.69 1.69 0 0 0 2.48 1 26.18 26.18 0 0 0 10.83-14.47A1.74 1.74 0 0 0 517 438l.5-.51a1.73 1.73 0 0 0-1.18-2.85 229 229 0 0 0 19.57-18.06c1.32-1.37-.45-4-2.12-2.75q-4.52 3.25-9.1 6.42c2.67-2.73 5.25-5.54 7.7-8.47 1.14-1.35-.34-3.77-2-2.63q-2.78 1.88-5.53 3.8a1.5 1.5 0 0 0-.9-1.43l9.83-10.2a1.61 1.61 0 0 0-1.42-2.68l1.18-1.62c.88-1.19-.55-2.65-1.78-2.35l4.61-8.19a1.76 1.76 0 0 0-1.6-2.59z" fill="#f7ce21"/><path d="M751.1 388.6a1.3 1.3 0 0 0-2.1-.6 35.13 35.13 0 0 0-6.22 6.74 47.61 47.61 0 0 0-.12-5.9 1.32 1.32 0 0 0-2.45-.66c-1.84 3.09-3.69 6.17-5.51 9.26.42-2.41.85-4.82 1.35-7.22a1.35 1.35 0 0 0-2.45-1c-.79 1.12-1.53 2.26-2.23 3.41l.11-.49a1.44 1.44 0 0 0-2.62-1.11c-2.9 4.49-5.75 9.32-6.9 14.58-.29 1.33 1.6 2.28 2.29 1s1.48-2.94 2.17-4.42l-.82 3.74a1.45 1.45 0 0 0 2.79.77 58.46 58.46 0 0 1 3.46-9c-.55 2.57-1.11 5.14-1.66 7.7a1.58 1.58 0 0 0 2.87 1.21c2.42-4.18 4.73-8.42 7-12.67a38.27 38.27 0 0 1-1.95 10.06c-.64 1.92 2.41 2.76 3 .83a33.92 33.92 0 0 1 7.64-13 24.27 24.27 0 0 1-.67 4.54 1.41 1.41 0 0 0 2.71.75 15 15 0 0 0 .31-8.52z" fill="#f7ce21"/><path d="M778.12 421.73q-.36-1.62-.57-3.27c-.17-1.08-1.63-1.09-2.18-.35-.16-2.84-.33-5.69-.48-8.53a1.17 1.17 0 0 0-1.85-.91c.11-2.85.1-5.72 0-8.63 0-1-1.62-1.66-2.1-.57q-1.1 2.46-2 5c.08-2.12.16-4.23.28-6.35a1.12 1.12 0 0 0-2.08-.56c-.67 1.17-1.28 2.36-1.84 3.57.17-3.06.35-6.11.58-9.17a1.24 1.24 0 0 0-2.29-.62c-.48.94-.92 1.87-1.35 2.82a71.87 71.87 0 0 0-.32-4.61c-.12-1.14-1.83-2-2.43-.66a56.01 56.01 0 0 0-2.15 5.33c-.09-1.16-.18-2.31-.3-3.47a1.09 1.09 0 0 0-2.18 0c-.27 5-.21 10-.16 15 0 2.09 3.06 2 3.22 0a48.89 48.89 0 0 1 1.6-9.28 69.64 69.64 0 0 1-.51 7.11 47.84 47.84 0 0 0-1.09 6.7c-.16 1.75 2.73 2.15 3.08.42.43-2.17.75-4.35 1-6.52.2-1 .43-2 .68-3-.46 4.87-.94 9.73-1.34 14.6-.17 2 3 2 3.17 0a55.55 55.55 0 0 1 1.9-10c-.37 4.2-.75 8.39-1.06 12.59-.13 1.72 2.78 2.15 3.05.41a101.66 101.66 0 0 1 2.43-11.57 81 81 0 0 1-2.17 14.24 1.51 1.51 0 0 0 2.91.8c.42-1.49.83-3 1.24-4.49 0 1.58.05 3.17.11 4.75a1.4 1.4 0 0 0 2.6.7l.42-.79c.2 1.43 2.47.81 2.18-.69z" fill="#f7ce21"/><path d="M729.73 463.78q-1.94 3.71-3.5 7.58c.14-3.56.17-7.13.05-10.72a1.21 1.21 0 0 0-2.37-.32c-.71 1.94-1.37 3.89-2 5.84q.37-5 .76-10a1.2 1.2 0 0 0-2.21-.6c-.38.78-.73 1.56-1.09 2.34q.18-3.88.3-7.78c0-1.49-1.94-1.54-2.42-.33-.34.86-.66 1.72-1 2.58q.4-4.86.79-9.71c.09-1.09-1.41-1.32-1.93-.52-.09.14-.16.28-.25.41.39-3.28.77-6.56 1.1-9.85.06-.59-.92-.72-1-.14-1 5-1.86 10.06-2.71 15.1a29.61 29.61 0 0 0-2.14 13.48c.08 1.23 2.11 1.7 2.31.31q.87-6.13 1.66-12.25c.06-.18.13-.35.2-.53-.92 7.6-1.82 15.2-2.66 22.82-.15 1.19-.29 2.38-.39 3.58-.16 1.82 2.42 1.93 3 .41a54.7 54.7 0 0 0-.49 6.37c0 1.79 2.88 2.29 3.21.43.87-4.94 1.44-9.9 1.85-14.88.16-.66.32-1.32.5-2-1 8.52-2 17-2.77 25.58-.23 2.18 3.22 2.18 3.42 0a116.84 116.84 0 0 1 3.35-20.57c-.44 5.59-1.06 11.17-1.9 16.71q-.94 4.34-1.52 8.75v.13c0 .15 0 .31-.07.46-.24 1.94 3.05 2.39 3.43.46q1-5.25 1.72-10.51.45-2.1 1-4.16a187.82 187.82 0 0 0-3 19.76c-.14 1.54 2.26 1.8 2.65.36 3.28-12.26 4.58-25.15 6.63-37.66.12-1.28-1.76-2.36-2.51-.93zm-13-4.06q-.3 3.65-.75 7.28a58.22 58.22 0 0 0-1.66 7.42l.24-2.59a89.55 89.55 0 0 1 2.2-12.12z" fill="#f7ce21"/><path d="M791.48 460.39c-.66 1.5-1.28 3-1.88 4.52q.74-9.77 1.19-19.6c.06-1.26-1.71-1.36-2.1-.28-.67 1.87-1.31 3.74-1.93 5.62q.29-7.7.22-15.44a1.14 1.14 0 0 0-2.24-.3c-.2.63-.39 1.26-.58 1.9q.36-4.44.67-8.9c.1-1.45-2.12-1.69-2.49-.34q-2.39 8.66-4.5 17.39c.1-1.52.21-3 .3-4.57s-1.92-1.52-2.34-.32q-3.08 8.69-5.43 17.46.38-5.62.77-11.24c.1-1.45-1.86-1.44-2.32-.31a104.17 104.17 0 0 0-4.34 12.91c0-1.09 0-2.17.05-3.26a1.33 1.33 0 0 0-2.61-.35l-2.29 6.92.1-1.44c.09-1.23-1.72-1.16-1.87 0-.53 3.94-1.06 7.88-1.52 11.83-.17 1.49 2 1.6 2.48.33q1.45-4.18 2.84-8.39c-.16 5.68-.36 11.37-.53 17.05-.06 2 3 2 3.14 0a129.63 129.63 0 0 1 3.44-23.36c-.79 8.64-1.58 17.28-2.31 25.93q-.32 3.14-.53 6.31c-.13 2.06 3 2 3.2 0 .11-1.35.2-2.71.3-4.06a179.53 179.53 0 0 1 6.55-36.18q-.71 7.62-1.65 15.21-3.93 19.37-6.38 39c-.21 1.71 2.68 2.1 3 .41q1.45-7.27 2.66-14.57-1 8.05-1.53 16.15c-.12 1.78 2.75 2.18 3.12.42.53-2.49 1-5 1.51-7.47q-.76 6.25-1.17 12.52c-.12 1.79 2.63 2.1 3.08.42q1.81-6.69 3.24-13.42a138.08 138.08 0 0 0-1.07 17c0 1.75 2.75 2.24 3.15.48l-.48 4.86c-.16 1.62 2.69 2.11 3 .41 4.08-20.12 6.34-40.25 8-60.69.18-1.06-1.49-1.54-1.92-.56zm-.69 7.78c-.81 9.38-2.06 18.76-3.6 28.09v-.17a.88.88 0 0 0-.75-1c1-7 1.74-14 2.38-21q.92-2.98 1.97-5.93zm-15.07 0q2.41-12.74 5.42-25.37-.34 3.61-.75 7.21-3.28 12.45-5.54 25.15.46-3.5.87-7zm7.28-18.32q.83-3.32 1.74-6.62-.13 8.3-.81 16.57-2.35 8-4.18 16.23 1.9-13.03 3.25-26.18zm3.27 10.51q1-3.59 2.06-7.15-.58 10-1.73 20.06-1.64 5-2.88 10.15 1.71-11.42 2.51-23.06z" fill="#f7ce21"/><path d="M468.69 334.74a1.22 1.22 0 0 0-.59-1c-.59-3-1.22-6-1.79-9.06-.27-1.4-2.3-1.4-2.83-.23 0-.28 0-.57-.07-.85a1.38 1.38 0 0 0-2.75 0 44.77 44.77 0 0 1-1 7.51l-.42-4.17c-.11-1.12-1.8-1.54-2.09-.28-.66 2.78-1.34 5.55-2 8.33-.49-3.34-1-6.68-1.21-10-.06-.78-1.36-1.1-1.48-.2v.2c-.26 1.86-.48 3.73-.7 5.61-.35-3.21-.68-6.43-.95-9.65-.08-1-1.54-1-1.5 0a84.72 84.72 0 0 1-1.22 17 21.52 21.52 0 0 1-.47-7c.09-.91-1.29-1-1.54-.21q-.53 1.74-1 3.51a.87.87 0 0 0-1.66 0c-.39 1.11-.78 2.22-1.17 3.34-.49-1.92-1-3.84-1.6-5.74a1 1 0 0 0-1.89.52c.61 3.27 1.45 6.49 2.23 9.72a1.18 1.18 0 0 0 2.26 0v-.14a1.06 1.06 0 0 0 2.08.23c.33-1.26.62-2.53.9-3.81a26.31 26.31 0 0 0 1.09 4.37 1.11 1.11 0 0 0 2.12 0c.4-1.64.72-3.29 1-5l.3 5.1a1.19 1.19 0 0 0 2.39 0c.13-1.33.23-2.65.33-4 .05 1 .1 2.09.16 3.13.08 1.4 2.21 1.85 2.55.35.45-2 .86-4 1.26-6 0 .77 0 1.55.07 2.32a1.48 1.48 0 0 0 2.89.39c.46-1.13.85-2.28 1.2-3.43a1.58 1.58 0 0 0 2.69-.67l.45-2.08c.36 2 .72 4.09 1.12 6.13.35 1.78 3.35 1.4 3.2-.43z" fill="#fffa55"/><path d="M790.34 401.71a15.18 15.18 0 0 0-4.34 1.8v-9.1a1.41 1.41 0 0 0-2.61-.71l-.06.09.05-.7a1.29 1.29 0 0 0-2.38-.64l-1.5 2.7c-.14-2.65-.27-5.3-.35-8a1.17 1.17 0 0 0-2.29-.31c-.58 1.4-1.18 2.8-1.79 4.2 0-.49.09-1 .13-1.46.1-1.18-1.52-1.18-1.9-.26s-.85 2.11-1.22 3.19a.64.64 0 0 0 .55.85c-.33 2-.65 4-1 6a1.38 1.38 0 0 0 2.66.73c.9-2.18 1.74-4.39 2.57-6.6 0 2.36 0 4.71-.08 7.07a1.53 1.53 0 0 0 2.83.77c.31-.61.6-1.23.89-1.84a1.7 1.7 0 0 0 2.3-.27l.35-.47c-.05 2.61-.12 5.21-.19 7.82a1.54 1.54 0 0 0 2.6 1.08 12.63 12.63 0 0 1 5.55-3.14 1.47 1.47 0 0 0-.77-2.8z" fill="#fffa55"/><path d="M784.07 540.22q-4.27 3.5-8.6 6.92 6.29-6.33 12.32-12.92c1.54-1.69-.51-4.8-2.58-3.34q-12.89 9.09-25.35 18.76 11.83-11.55 23.64-23.12c1.27-1.24-.42-3.59-1.95-2.52q-10.31 7.17-20.33 14.67a2 2 0 0 0-.78.19q-2.57 1.23-5.1 2.52 12.26-12.38 24.54-24.65c1.33-1.34-.47-3.91-2.09-2.71q-13.37 9.94-26.1 20.64 9.22-9.58 18.13-19.47a1.91 1.91 0 0 0-.53-2.85l4.71-5.24c1.11-1.22-.35-3.42-1.85-2.4a299.6 299.6 0 0 0-28.4 22.09q12.94-14.31 25.86-28.63c1.16-1.29-.39-3.68-2-2.54l-1.8 1.33 2.12-2.65a1.48 1.48 0 0 0-2.09-2.09q-13.92 12.34-27 25.59-4 3.32-8 6.71 2.23-3.26 4.52-6.48 13.26-16.3 26.55-32.58a1.55 1.55 0 0 0-2.19-2.19l-15 11.71q6.41-9.58 12.79-19.17c.51-.77-.57-1.45-1.2-.93l-1.16 1c1.59-2.52 3.16-5.06 4.69-7.64a1.3 1.3 0 0 0-2-1.57q-7.13 7-14.34 13.9 5.59-7.34 11.15-14.69c.66-.87-.84-2-1.53-1.18l-1.93 2.4a.76.76 0 0 0-1.13-.49 81.75 81.75 0 0 0-13.67 11.47l5.88-10.66c.56-1-.8-2.15-1.64-1.26l-4.45 4.69a16.28 16.28 0 0 0 .21-3.42 1 1 0 0 0-2 0 12.58 12.58 0 0 1-3.77 9.44c-1 1.14.64 2.82 1.68 1.68 1.26-1.34 2.5-2.7 3.73-4.07L728.69 488a1 1 0 0 0 1.74 1 67.81 67.81 0 0 1 17.34-18.94c-1.53 2.34-3 4.7-4.56 7.05q-6.72 8.39-13.38 16.82a1.46 1.46 0 0 0 1 2.4l-6 9.43c-.72 1.12 1 2.5 1.88 1.45 5-6 10.17-11.82 15.63-17.37q-7.87 10.51-16.66 20.28a1.66 1.66 0 0 0 2.35 2.35l4-3.17q-3.64 5.23-7.23 10.49c-.84 1.23 1.14 2.79 2.09 1.61q8.65-10.71 18.15-20.69-3 3.79-6 7.65-14.36 17.3-28.66 34.64c-1.47 1.79.84 4.23 2.59 2.59l1.19-1.11-.55.89c-.93 1.52 1.31 3.35 2.52 1.94q10.84-12.6 22.36-24.54 4.35-3.67 8.76-7.27L732 534.37q-17.89 19.52-35.72 39.11c-1.65 1.81 1 4.49 2.7 2.7q3.27-3.43 6.61-6.79a1.46 1.46 0 0 0 2.49.25c1.75-2.17 3.49-4.36 5.23-6.54s3.76-4.51 5.68-6.72q13.43-12.52 27.81-24l-19.29 21.07q-14.29 13.5-29.27 26.23c-1.9 1.64.85 4.35 2.74 2.74.91-.78 1.82-1.55 2.74-2.32a1.72 1.72 0 0 0 2.91 1.39q7.43-7.82 15.17-15.33 5.49-3.89 11.16-7.51l-27.75 27.69c-1.75 1.75.94 4.44 2.71 2.71.91-.89 1.83-1.76 2.74-2.64a2.12 2.12 0 0 0 2.93 1.27l3.86-2a2 2 0 0 0 3.34 1.9q4.75-4.3 9.58-8.49l4.82-2.47a7.09 7.09 0 0 0 1.57-.46c-.53 1.66 1.57 3.84 3.33 2.64q24.38-16.67 47.29-35.34c2.34-1.83-.99-5.14-3.31-3.24zm-57.27 36.19l-2.39 1.23q19.13-17.94 38.35-35.78a1.84 1.84 0 0 0 .55-.87c.66-.5 1.31-1 2-1.5Q746 557.91 726.8 576.41zm7.39-81.21l2.56-4.12q7.57-7.4 15.09-14.85-2 3.11-4.17 6.16c-4.67 4.11-9.18 8.34-13.48 12.81zm3.9 5.08c.84-1.07 1.69-2.15 2.51-3.23l-2 2.85zm14.83 22.93c2.87-2.39 5.76-4.74 8.72-7l-1.6 1.75q-3.58 2.58-7.12 5.24zm-14.59 27.54q9.29-8.34 18.93-16.28l-12.69 12.66q-3.15 1.76-6.24 3.61zm1.7 22.44a2 2 0 0 0-.73-1.67q13.57-11.41 27.71-22.12-12.95 12.47-27.01 23.78z" fill="#8eef43"/><path d="M544.59 617.55l-5.34 3.53.18-.39a2.4 2.4 0 0 0-1.54-3.34l5.48-7.35c1.3-1.74-1.3-4.36-3-3-.95.72-1.86 1.48-2.79 2.22l5.43-7c1.39-1.79-.37-4.89-2.64-3.42a226.61 226.61 0 0 0-21.65 15.87l19.8-24.34c1.7-2.09-1-5-3-3l-4.99 4.67 8.25-8.83a2.08 2.08 0 0 0-2.5-3.25 138.17 138.17 0 0 0-23.46 15l9.18-10.61a2 2 0 0 0-2.83-2.83q-7.61 6.18-15 12.58l17.7-18.87c1.5-1.6-.46-4.45-2.43-3.15a323.13 323.13 0 0 0-30.16 22.6C499.3 584.19 509.65 574 520 563.86c1.59-1.56-.5-4.44-2.43-3.15a352.12 352.12 0 0 0-29.18 21.76q12.55-12.9 25.74-25.17c1.64-1.52-.54-4.47-2.43-3.15q-11.91 8.3-23.21 17.37 13.41-12.77 27.49-24.84c1.72-1.48-.53-4.39-2.43-3.15a370.11 370.11 0 0 0-46.88 37c15.13-14.52 31.12-28.2 47-41.78 1.76-1.5-.5-4.29-2.44-3.16a268 268 0 0 0-35.3 25c9.61-9.75 18.47-20.12 25.25-32.26.86-1.54-1-3.7-2.57-2.57a340.28 340.28 0 0 0-34.17 27.45q16.6-18.83 33.22-37.64a1.83 1.83 0 0 0-2.59-2.59q-22.65 17.74-43.47 37.6 19.72-22.28 41.44-42.71c1.49-1.4-.68-3.45-2.2-2.2q-16.75 13.69-32.81 28.19 15.42-16.81 30.91-33.55a1.35 1.35 0 0 0-1.91-1.91q-18.44 15.19-35.52 31.87Q468 510 484.47 489.77c-.09.66-.18 1.32-.25 2-.18 1.76 1.95 2.07 2.94 1v.37c0 .17-.05.33-.07.49-.26 2.06 3.34 2.57 3.65.49l.14-1a1.81 1.81 0 0 0 3-.81c.47-1.59.88-3.17 1.24-4.76a87.94 87.94 0 0 1 2.88-8.5 87.67 87.67 0 0 1-2.62 11c-.63 2.3 3 3.3 3.57 1a58.88 58.88 0 0 1 1.76-5.81c-.08.64-.15 1.28-.23 1.92-.19 1.68 2.58 2.44 3.25.88a69.31 69.31 0 0 0 3.27-8.54 1.3 1.3 0 0 0-2.29-1.1l.23-2.8c.14-1.61-2.11-2-2.87-.78-.15.23-.28.46-.42.7q.3-2.82.47-5.66c.1-1.59-2.14-2-2.9-.79s-1.54 2.67-2.25 4v-1a1.68 1.68 0 0 0-2.69-1.27v-.15c.32-1.72-2-2.92-3-1.24-.53.92-1 1.85-1.49 2.79-.48-1-2-1.61-2.62-.27-.31.64-.6 1.28-.88 1.93a1.3 1.3 0 0 0-2.19.57l-1.16 4a9.24 9.24 0 0 0-.84 2.89 1.35 1.35 0 0 0 1.21 1.57c-.26 1.14-.48 2.3-.66 3.48a1.55 1.55 0 0 0 .21 1.07q-15.55 13.71-30 28.56 13.91-17.86 27.72-35.8c.84-1.09-.87-2.13-1.78-1.38a224.35 224.35 0 0 0-16.67 15.24q5.22-7.41 10.45-14.81c.87-1.23-.94-2.32-1.94-1.5a163.46 163.46 0 0 0-13.58 12.52q4.16-6.22 8.36-12.42c.76-1.12-1-2.49-1.89-1.46l-17.07 19.91a70.54 70.54 0 0 1 10.36-14.56 1.31 1.31 0 0 0-1.86-1.86 57.67 57.67 0 0 0-6.08 5.64l1.28-3.07c.7-1.68-2-2.43-2.73-.75l-5 12.24c.85-5.5 1.67-11 2.6-16.5a1.5 1.5 0 0 0-2.73-1.15l-2.62 4.09c.27-1.23.53-2.46.75-3.71.26-1.48-1.65-3.1-2.84-1.65-.9 1.09-1.75 2.19-2.59 3.31a1.65 1.65 0 0 0-2.4-1.85 38 38 0 0 0-5.15 4.3c.26-.7.51-1.41.78-2.11a1.38 1.38 0 0 0-2.3-1.34 72.1 72.1 0 0 0-5 6.7c.34-1.32.66-2.63 1-4 .25-1.09-1.3-1.85-1.87-.79a20.15 20.15 0 0 0-1 1.93.55.55 0 0 0 .11.6c-1.25 3.87-2.38 7.79-3.51 11.69-.4 1.38 1.72 2.35 2.37 1a70.55 70.55 0 0 1 3.79-6.92l-.7 1.79a36.76 36.76 0 0 0-2.93 7.48c-.54 2 2.33 2.69 3 .83s1.32-3.56 2-5.34a32 32 0 0 1 6.59-9.34q-3.08 8.24-6.18 16.47c-.81 2.13 2.6 3 3.41.94a88.89 88.89 0 0 1 8.25-16.28 63.79 63.79 0 0 1-3.79 9.61 1.8 1.8 0 0 0 3.11 1.82c2-3.26 3.94-6.55 5.85-9.87l-1.24 6.28a1.58 1.58 0 0 0-.8 1.49q0 1.24.05 2.49c.07 2 3.28 2.63 3.62.49l.26-1.69a1.42 1.42 0 0 0 1.62 1 75.39 75.39 0 0 0-3.51 7.79 1.27 1.27 0 0 0 2.11 1.23l9.1-10.59c-4.13 6-8.27 12.08-12.34 18.15-1 1.43 1.35 2.76 2.3 1.34a159.94 159.94 0 0 1 22.88-26.92q-9.29 13.14-18.61 26.27-4 5.24-7.67 10.8c-.93 1.42 1.3 2.67 2.25 1.32l7-10a195.78 195.78 0 0 1 24.06-26.85q-19.78 25.11-39.37 50.37c-1 1.26.71 3.07 1.81 1.81a527.15 527.15 0 0 1 38.6-40.06q-20.89 25.59-41.76 51.2c-1.08 1.32.7 3.2 1.91 1.91q18.17-19.55 38-37.38-23 24.83-46 49.57c-1.35 1.46.77 3.6 2.19 2.19q16.83-16.79 34.47-32.7-20.63 21.9-39.26 45.59c-1.34 1.7.9 4.13 2.45 2.45a606.82 606.82 0 0 1 55.52-53.29q-33.67 37.91-67.31 75.85c-1.68 1.9 1.06 4.69 2.8 2.8 24.26-26.26 48.76-52.65 77.46-74.11-21.47 31.92-57.19 51.82-77.26 85.07-1.2 2 1.62 4.23 3.24 2.5 20.34-21.73 41-43.62 64.26-62.15-22.77 20.28-44.54 41.64-62.59 66.38-1.36 1.86 1.59 4 3.15 2.43 18.34-19 36.81-38 56.84-55.21a700.16 700.16 0 0 0-54.37 59.23c-1.62 2 1.18 4.83 2.83 2.83a428 428 0 0 1 59.21-58.76 697.58 697.58 0 0 0-49.48 55.95c-1.58 2 1.21 4.85 2.83 2.83a347.47 347.47 0 0 1 57.05-56.32c-19.58 19.64-38.54 39.9-54.86 62.4-1.32 1.82 1.74 4.22 3.15 2.43a318.6 318.6 0 0 1 58.39-57.25l-49.15 52.4c-1.76 1.88 1 4.7 2.83 2.83q20.9-21.67 43.58-41.46l-21.47 24.95c-5 5.59-9.83 11.3-14.63 17-1.68 2 1.16 4.87 2.88 2.87l13.66-15.87c13-14.69 26.92-28.64 43.38-39.2l-52.39 55.94a2.1 2.1 0 0 0 3 3l36.43-34.94-23.55 28.91c-1.73 2.12 1.25 5.19 3 3a221.43 221.43 0 0 1 38.08-35.77L516.66 629a164.65 164.65 0 0 0-12.93 16.63c-1.38 2 1.92 4.65 3.46 2.67l12.64-16.3q3.69-4.19 7.67-8.1l-7.66 10.26c-1.54 2.07 1.76 4.45 3.5 2.7l8.56-8.54a2 2 0 0 0 3 1l5.87-3.89a6.76 6.76 0 0 0 7.07-5.33c.52-1.82-1.57-3.66-3.25-2.55z" fill="#ea71a0"/><path d="M490.47 711.58a1 1 0 0 0-1.35-.86l.48-15.84a1 1 0 0 0-1.58-.77c.12-3.25.24-6.51.39-9.75a1 1 0 0 0-1.93-.26q-.51 2-1 4c0-1.34.06-2.68.07-4 0-1.06-1.75-1.37-1.91-.26-.55 3.91-1.15 7.8-1.75 11.7-.11-3.08-.22-6.16-.36-9.25 0-.84-1.31-1.09-1.52-.21-.61 2.57-1.08 5.15-1.46 7.75a66.07 66.07 0 0 0-.74-3.39 1 1 0 0 0-2 .27q-.13 6.07-.25 12.14c-.36-3.59-.73-7.18-1.08-10.77-.11-1.16-1.87-1.21-1.85 0 .14 7.94-.1 15.85-.57 23.77a57.24 57.24 0 0 1-.89-7.94q.1-2.84 0-5.71a1.1 1.1 0 0 0-2.2 0v2.92a102.37 102.37 0 0 1-.81 10.38c-.11-1.53-.23-3.06-.32-4.59a1.23 1.23 0 0 0-2.41-.33c-.63 2.35-1.24 4.7-1.83 7.06l-.06-.38c-.19-1.28-2.18-1.15-2.46 0-.12.48-.23 1-.34 1.43a1.22 1.22 0 0 0-1.86.58c-.93 2.36-1.82 4.73-2.7 7.1-.51 1.37 1.64 1.91 2.17.6l.77-1.93v.7a1.15 1.15 0 0 0 2.25.3c.2-.71.39-1.42.58-2.12l.08.53c.19 1.28 2.17 1.15 2.46 0l1.52-6q.26 3.25.5 6.5c.09 1.26 2 1.68 2.32.31.58-2.47 1-4.94 1.4-7.41.37 1.86.82 3.72 1.35 5.56a1.11 1.11 0 0 0 2.18-.29c.32-3.47.54-6.94.68-10.42q.4 4.52.81 9a1.09 1.09 0 0 0 2.19 0c.09-4.08.15-8.17.2-12.25v1.13a1.07 1.07 0 0 0 1.88.67v.6c0 1.86 2.57 1.73 2.81 0a1.44 1.44 0 0 0 1.87.37c-.06 1.13-.12 2.27-.17 3.4a1.33 1.33 0 0 0 2.25 1l-.2 3.11a1.4 1.4 0 0 0 2.07 1.19 1.31 1.31 0 0 0 2.59-.2c-.08-3.03-.19-6.09-.27-9.14z" fill="#a32828"/><path d="M566.23 686a12.86 12.86 0 0 1-2.18 3.21 16.08 16.08 0 0 0-1.32-3.84 1.43 1.43 0 0 0-2.45 0c-.74 1.1-1.48 2.2-2.21 3.31-.08-1.47-.15-2.94-.16-4.41a1.23 1.23 0 0 0-2.41-.33l-1.17 3q.14-2.1.27-4.2c.1-1.46-1.9-1.48-2.36-.32-1.21 3-2.47 6.07-3.7 9.11 0-4.61-.05-9.22.07-13.82a1.26 1.26 0 0 0-2.46-.33c-.62 2.3-1.28 4.59-1.93 6.88.11-3.59.24-7.18.48-10.77.08-1.18-1.81-1.75-2.3-.62a80.89 80.89 0 0 0-1.75 4.36c.16-2.62.33-5.24.52-7.86.09-1.3-1.83-1.46-2.19-.3-.64 2-1.22 4.11-1.77 6.18.18-2.83.38-5.66.63-8.48.13-1.44-2.23-1.76-2.53-.34q-1.36 6.4-2.67 12.83c.18-3.93.4-7.85.71-11.76.12-1.54-2.31-1.83-2.67-.36q-.66 2.66-1.31 5.33c.07-.76.13-1.53.2-2.29.15-1.62-2.12-1.65-2.63-.36q-1.27 3.27-2.28 6.58c0-1.41 0-2.81-.05-4.22a1.19 1.19 0 0 0-2.32-.31l-1.13 3.73v-2.93c0-.93-1.21-.81-1.29 0-.34 3.61-.69 7.21-1 10.82-.11 1.25 1.71 1.35 2.08.28s.79-2.42 1.18-3.64c0 2.75-.08 5.51-.11 8.26 0 1.52 2.48 2 2.74.37q.34-2.07.75-4.1-.43 4.29-.87 8.58c-.17 1.74 2.64 2.09 3 .41q1-4.3 2-8.63c-.36 5.08-.75 10.15-1.08 15.22-.12 1.79 2.8 2.21 3.16.43.67-3.37 1.31-6.75 1.94-10.13l-.36 4.54q-.48 4.25-.64 8.55c-.05.77-.11 1.55-.16 2.32-.11 1.73 2.77 2.16 3.07.41.61-3.59 1.18-7.19 1.71-10.79a1.65 1.65 0 0 0 2.3-1.3 83 83 0 0 1 2.07-11.44c-.34 5-.75 10-1.1 15.05-.13 1.85 2.71 2.16 3.19.43.74-2.7 1.39-5.42 2-8.16-.12 3.22-.24 6.43-.34 9.65-.06 1.88 2.46 2 3.06.41.91-2.33 1.75-4.69 2.57-7.05-.12 1.11-.23 2.22-.35 3.32-.19 1.74 2.39 1.88 2.9.39.61-1.78 1.22-3.56 1.82-5.34v1.63a1.46 1.46 0 0 0 2.69.73c1.11-1.59 2.14-3.23 3.17-4.87a8.5 8.5 0 0 1 .33 2.84 1.39 1.39 0 0 0 2.07 1.19 14.89 14.89 0 0 0 5-5.65c.88-1.57-1.66-3.03-2.43-1.4z" fill="#a32828"/><path d="M763.76 665.63a8 8 0 0 0-6 1.39c.15-1.78.34-3.55.63-5.32a1 1 0 0 0-1.81-.76q-2 2.71-3.94 5.45c0-.26-.06-.51-.08-.77a1.21 1.21 0 0 0-2.24-.61l-2.08 3c.22-1.8.45-3.59.71-5.39.15-1.07-1.22-1.85-1.86-.78-1.7 2.83-3.43 5.65-5.09 8.51-.17-.82-.33-1.65-.49-2.47a1.38 1.38 0 0 0-2.5-.33l-.34.62v-.58a1.33 1.33 0 0 0-2.25-.93 20.08 20.08 0 0 0-3.26 4.09.84.84 0 0 0-1.33.67 10.83 10.83 0 0 0-.07 2.34c0 1.18 1.78 1.82 2.35.64a22.68 22.68 0 0 1 1.6-2.79l-.24 2.78a1.45 1.45 0 0 0 2.69.73c.48-.92.94-1.84 1.41-2.76l.43 2.27a1.41 1.41 0 0 0 2.54.33c1.1-2 2.15-4 3.17-6l-.72 3.87a1.31 1.31 0 0 0 2.38 1c1.06-1.55 2.08-3.12 3.09-4.7l.06.58a1.23 1.23 0 0 0 2.27.62c1-1.49 2-3 3-4.55-.24 1.5-.52 3-.79 4.5a1.23 1.23 0 0 0 2.23.94 7.5 7.5 0 0 1 6.2-3.48c1.17-.07 1.57-1.93.33-2.11z" fill="#a32828"/><path d="M805.83 656.14a20.37 20.37 0 0 0-2.66-3.55 1.47 1.47 0 0 0-2 0 12.08 12.08 0 0 0-1.27 1.23l-.17-1.38c-.12-1-1.39-1.86-2.23-.92l-2 2.19c-.07-.34-.13-.68-.2-1a1.3 1.3 0 0 0-2.15-.57c-1.26 1.29-2.54 2.56-3.82 3.83l-.33-3.72a1 1 0 0 0-1.47-.84 3.79 3.79 0 0 0-2 3.34.83.83 0 0 0 1.55.38v3.69a1.3 1.3 0 0 0 2.19.91c1.32-1.3 2.63-2.63 3.94-3.94.06.44.11.89.18 1.33a1.41 1.41 0 0 0 2.34.62l1.74-2.07c.07.75.14 1.51.2 2.26.09 1.22 2 2.11 2.61.71a9.74 9.74 0 0 1 1.84-2.9 13.7 13.7 0 0 0 1.92 1.88 1.2 1.2 0 0 0 1.79-1.48z" fill="#a32828"/><path d="M642.43 444L613 477.51l9.12-13.83q7.93-10.8 15.85-21.6a1.07 1.07 0 0 0-.56-1.58l3.06-4.64c1.1-1.67-1.46-3.69-2.79-2.16l-9.55 11q4.87-7.7 9.47-15.43a1 1 0 0 0-1.51-1.17q-4.48 4.64-8.85 9.39l10.55-15.13c1.13-1.61-1.46-3.64-2.75-2.12L618.32 440q7.54-13.62 14.29-27.62a1.09 1.09 0 0 0-.35-1.38l6.74-9.8a1.6 1.6 0 0 0-1.2-2.54l1-1.29c1.29-1.65-.95-4-2.35-2.35q-12.45 14.73-25.05 29.4 13.66-18.15 27.34-36.27c1.09-1.45-1.29-3.24-2.5-1.93l-14.15 15.38 13-18c1.12-1.54-1.33-3.37-2.61-2l-17.2 18.13c.52-.79 1-1.58 1.59-2.36l10.29-12.52c1.35-1.65-.86-4-2.39-2.39-2.32 2.42-4.5 4.94-6.57 7.53l1.07-2a1.86 1.86 0 0 0-1.5-2.69c.24-1.44-1.36-2.88-2.61-2a1.43 1.43 0 0 0-2-.15 9.15 9.15 0 0 0-4.11 7.85 1.88 1.88 0 0 0 1.54 1.76 1.94 1.94 0 0 0 1.29 1.57q-2.6 4.91-5.19 9.82a1.92 1.92 0 0 0 .58 2.36q-1 1.87-1.94 3.78c-.8 1.63 1.26 3.5 2.64 2l9.54-10.07-13.14 18.14a1.82 1.82 0 0 0-2.32.6l-35 49.53 14-25.62a214 214 0 0 1 18.31-24.21c.88-1-.51-2.43-1.48-1.48-2.19 2.16-4.32 4.4-6.4 6.71.95-1.72 1.89-3.44 2.84-5.16a1.47 1.47 0 0 0-1.1-2.22l1.5-2.87c.66-1.28-1-2.8-2.09-1.61l-3.22 3.66a1.07 1.07 0 0 0-1.82-.38q-2.32 2.39-4.36 4.94l3.86-7.48a1.42 1.42 0 0 0-2.44-1.43C578.42 424 572 434.45 565.67 445a141.7 141.7 0 0 1 6.85-13.89 1.33 1.33 0 0 0 .08-1.12c.6-1 1.18-2.09 1.78-3.12a1.35 1.35 0 0 0-2.12-1.63c-3.19 3.42-6.2 7-9.08 10.6q3.53-6.58 7.07-13.15a1.58 1.58 0 0 0-1.66-2.24q.79-2.53 1.52-5.08c.39-1.38-1.51-2.63-2.51-1.46s-2.18 2.62-3.24 3.94a1.83 1.83 0 0 0-.56-.65q2.38-6.2 4.47-12.55c.34-1-1-1.67-1.74-1-1 1-2.05 1.93-3 2.93a1.29 1.29 0 0 0-1.93.07l-2.6 2.79 6.86-14.69c.44-.94-.69-2-1.5-1.15a122.38 122.38 0 0 0-8.22 9.14l-.85.73q2.86-7.11 5.28-14.38c.4-1.18-1.14-1.94-2-1.21a1.71 1.71 0 0 0-2.23-.62l-2.64 1.69.71-1.71c.46-1.12-1.3-1.75-1.9-.8q-3.14 5-6.31 10l3-7.37c.51-1.26-1.53-1.81-2-.56l-7.2 17.65c-.46 1.14 1.3 1.76 1.91.8l5.57-8.8-4.92 11.55c-.85 1.81-1.65 3.64-2.36 5.54-.54 1.47 1.74 2 2.31.64a70.29 70.29 0 0 1 6.83-13.36l-4.18 9.74a1.59 1.59 0 0 0 2.24 2.1c-.47 1-.92 1.95-1.39 2.91q-2.52 4.39-4.63 9.07a1.44 1.44 0 0 0 .72 1.93 1.55 1.55 0 0 0 2.59 1.33l4.69-5.18-1 2.12a90.53 90.53 0 0 0-4.53 9.42l-.12.29c-.52 1.27 1.64 2.18 2.23.94 1.28-2.72 2.56-5.44 3.84-8.17 1.25-2.38 2.62-4.69 4.07-6.94q-3.87 7.82-7.75 15.63c-.73 1.47 1.29 3.36 2.44 1.88q2-2.61 4.07-5.24l-.79 1.43q-2.63 4.4-5 9l-2.16 3.92a1.44 1.44 0 0 0-.16.91l-.29.62a1.54 1.54 0 0 0 2.65 1.55c.68-1.1 1.33-2.21 2-3.32q5.41-6.49 10.8-13-.61 1.46-1.25 2.91l-11.23 20.77a1.51 1.51 0 0 0-.14 1.26q-.74 1.39-1.44 2.79a1.67 1.67 0 0 0 2.88 1.68c1.92-3.12 3.73-6.3 5.45-9.52l5.92-7.72q-6.52 13.08-11.78 26.76c-.7 1.83 2.13 2.89 3.09 1.3 1.1-1.81 2.17-3.64 3.25-5.46-.1.46-.21.92-.31 1.38l-2.61 5q-1.71 2.25-3.45 4.46l-4.82 6c-1.22 1.52.9 3.7 2.17 2.17s2.4-2.93 3.59-4.41a1.69 1.69 0 0 0 2.32-.54l6.28-9.3a34.42 34.42 0 0 0 8.89-12.21 1.55 1.55 0 0 0 .07-1l3.93-5.79q-2.57 4.88-4.72 9.91v.1q-8.38 15-16.7 30.06a1.78 1.78 0 0 0 3.07 1.8l16.35-23.15L553 499.49a1.79 1.79 0 0 0 1.53 2.66 7.27 7.27 0 0 1 1.31 2l-5.09 6.65c-1.11 1.45 1 3.29 2.42 2.42 3.2-2 6.94-4.55 6.84-8.75l36.12-47.21-33.29 48.41c-1.13 1.64 1.48 3.68 2.78 2.14l29.22-34.58q-9.63 15-20 29.59c-.7 1 .33 1.93 1.29 1.8l-.93 1.38c-1.14 1.63 1.46 3.66 2.77 2.14L598 485q-7.36 10.27-15 20.36c-1 1.39 1.33 3.24 2.43 1.87q8.3-10.23 16.57-20.44-4.2 5.63-8.39 11.26c-1 1.28 1.09 2.77 2.18 1.68l.61-.62a1.63 1.63 0 0 0 2.4 0l19.17-21.87 3.74-3.82-21.38 30.39c-1.19 1.69 1.48 3.73 2.86 2.21l23.26-25.66.18-.15-12.53 20.11c-1.12 1.8 1.52 3.9 3 2.29l10.67-11.9-6.21 10.2a1.91 1.91 0 0 0 3 2.3l10-9.74a17.9 17.9 0 0 0 .3 4.63c.47 2.43 4.18 1.4 3.71-1a11.91 11.91 0 0 1 2.34-9.87c1.31-1.8-1.5-3.79-3-2.32l-5.31 5.17 9.08-14.93c1.1-1.81-1.52-3.92-3-2.3l-10 11.12 12.19-19.62a1.91 1.91 0 0 0-1.44-2.8 46.79 46.79 0 0 0 2-8.49 1.39 1.39 0 0 0-.34-1.1l4.12-5.87c1.14-1.63-1.46-3.64-2.78-2.09zm-65-10.34a1.2 1.2 0 0 0 1.77-.1l.38-.43q-6.56 12.15-14.1 23.72zm9-8.36l1.24-1.42-2.48 5-1.82 2.66q1.53-3.17 3.02-6.28zM560.7 401a1.62 1.62 0 0 0-.35-.31c.38-.45.75-.9 1.15-1.34zm-10.28-4.17L552 393a1.46 1.46 0 0 0 .57-.17l1.26-.66-.48 1.09c-1.01 1.18-2 2.36-2.93 3.57zm2.23 19.54l3.36-5.64-2 4.16zm12.27-8.24c-1.27 3.69-2.68 7.32-4.2 10.92l-5.48 7q3.86-7.93 7.75-15.84c.64-.71 1.28-1.4 1.93-2.08zM556.09 435c.37-.77.76-1.53 1.12-2.31q3.55-5.55 7.62-10.75c-.52 1.52-1.06 3-1.61 4.53zm21.64 31.56a1.56 1.56 0 0 0 2.29.05c1.07-1.23 2.13-2.48 3.2-3.72-5.55 7-11.08 14.07-16.48 21.21zm-19.2 34a5.46 5.46 0 0 0-1.39-1.14l.69-1.1a.87.87 0 0 0 1.06-.21c10-11.61 19.46-23.72 28.9-35.82zm27.18-46.79l17.94-28.66a1.48 1.48 0 0 0 1.63-.38l12.19-13.33q-15.78 21.29-31.76 42.41zm.2 24.53l40.34-58.61q-9 16.83-18.84 33.18zm27.39-27l-7.3 10.59c-.51.62-1 1.23-1.54 1.85q2.06-3.32 4.07-6.67zm-15.9 28.93l20.77-29.79q6.13-7 12.49-13.86-6.83 10.71-13.89 21.26zm17.27-14.54l8-9.25-2.36 3.58-9.94 12.07q2.17-3.09 4.3-6.34zm20.3-.37l-14.69 16.26L637 457.75l1.33-1.35a41 41 0 0 1-3.33 8.98z" fill="#4b5dc9"/><path d="M546.48 467.08c0-1.43-2.33-1.85-2.59-.35l-.61 3.56q-.13-3.07-.24-6.14c-.05-1.44-2.41-1.93-2.65-.36-.32 2.1-.67 4.2-1 6.29q0-2.59-.09-5.18a1.15 1.15 0 0 0-2.25-.3q-.88 2.58-1.56 5.19c-.06-1.84-.11-3.67-.12-5.5 0-1.08-1.79-1.41-2-.26l-.58 4.1c-.13-2.85-.23-5.69-.23-8.53a.86.86 0 0 0-1.69-.23c-.75 2.16-1.4 4.36-2 6.58 0-3.63.22-7.25.56-10.87.13-1.45-2.23-1.76-2.54-.34q-.64 3-1.27 5.92c0-3.22.06-6.44.1-9.66a1.48 1.48 0 0 0 .5-1q.22-2.4.57-4.75a1.47 1.47 0 0 0 2.05-.86q.63-2.51 1.21-5a1.53 1.53 0 0 0 3 .33c.79-3.17 1.53-6.35 2.28-9.53a1.41 1.41 0 0 0 2.33-.22 105.54 105.54 0 0 0 5.57-12.19c.48-1.33-1.51-2.05-2.21-.93a71.78 71.78 0 0 0-3.61 6.68c0-.59-.09-1.18-.13-1.77-.09-1.49-2.32-1.94-2.71-.37q-.65 2.61-1.32 5.21v-1.4a1.3 1.3 0 0 0-2.54-.34q-.7 2.83-1.41 5.66a1.43 1.43 0 0 0-1.74.81c-.19.52-.36 1.05-.54 1.58 0-.87.06-1.73.08-2.6 0-1.45-1.9-1.52-2.37-.32-.16.4-.3.8-.45 1.2a1 1 0 0 0-1.16.69c-.67 2.94-1.26 5.89-1.84 8.85q-.35 1.38-.64 2.77l-2.22 8.88.09-2.77a1.21 1.21 0 0 0-2.37-.32l-1.58 5.73v-.33a1 1 0 0 0-1.9 0l-.09 4.22a.73.73 0 0 0 .3.63c0 .54 0 1.08.07 1.63a1.14 1.14 0 0 0 2.23.3l.52-1.81-.22 5a1.3 1.3 0 0 0 2.55.34c.53-2.08 1-4.16 1.57-6.23-.2 2.54-.38 5.09-.58 7.63a1.31 1.31 0 0 0 2.56.35q.79-3.94 1.57-7.88-.07 7.44-.18 14.87a1.33 1.33 0 0 0 2.6.35c.23-1 .44-2.08.66-3.12 0 3.45.07 6.91.28 10.37a1.47 1.47 0 0 0 2.94 0c.34-4.56.84-9 1.56-13.49 0 4.71-.12 9.43-.08 14.13 0 1.7 2.38 1.6 2.57 0v-.3 1.38c0 1.44-.06 2.89 0 4.34.08 1.77 2.84 1.79 2.77 0 0-2.44 0-4.84.2-7.22 0 2.1-.09 4.21-.1 6.31 0 1.68 2.76 2.17 3 .41l1-6.46c0 2 .07 3.9.14 5.85.06 1.7 2.87 2.28 3.13.42l.34-2.36v.47c0 1.84 2.91 1.84 2.86 0-.09-5.96-.33-11.82-.35-17.74zm-23.11-23.34c.12-.7.23-1.39.35-2.09.07-.3.13-.6.2-.9q-.11 1.6-.21 3.21a1.07 1.07 0 0 0-.4.57z" fill="#66a8e2"/><path d="M676.09 449.87a1.43 1.43 0 0 0-2.79-.38c-.35 1-.71 2-1.08 2.94.36-4.76.69-9.53 1-14.3.12-1.65-2.17-1.7-2.69-.36v.06l1.22-9.15c.19-1.43-2-1.53-2.39-.32-1.45 4.11-2.81 8.2-4 12.3.33-5 .73-9.94 1.32-14.88.16-1.36-1.83-1.43-2.25-.3q-1.6 4.33-2.91 8.73c.25-3.32.52-6.65.84-10 .15-1.54-2.07-1.62-2.54-.34-.7 1.92-1.34 3.86-2 5.8.51-5.45 1-10.89 1.65-16.33a1.36 1.36 0 0 0-2.52-.68c-.87 2-1.65 3.95-2.4 5.94q.31-4 .6-8c.1-1.3-1.12-1.69-2.06-1.31.14-1.2.27-2.4.42-3.6.17-1.4-2.07-2-2.66-.72-.33.7-.65 1.41-1 2.11q.29-6.44.36-12.9a1.34 1.34 0 0 0-2.62-.35c-.56 2.1-1.08 4.21-1.59 6.33 0-.95 0-1.9-.06-2.84a1 1 0 0 0-2-.27c-1.36 3.52-2.56 7.07-3.59 10.67q.2-8.83.36-17.67c0-1-1.48-1-1.55 0-.79 12.6-1.54 25.2-2.16 37.81-.09 1.81 2.71 1.8 2.8 0a101.46 101.46 0 0 1 3.87-23.9 219.7 219.7 0 0 1-.72 10.59c-1 5.85-1.88 11.75-2.43 17.67-.15 1.63 2.62 2 2.89.39q1.11-6.64 1.77-13.33.85-5.53 1.9-11-.26 4.19-.66 8.37a65.4 65.4 0 0 0-2.4 18.43 1.76 1.76 0 0 0 2.54 1.4v2.9a1.56 1.56 0 0 0 2 1.55c-.45 2.87-.81 5.77-1 8.69-.16 2 3.19 2.48 3.52.48.87-5.32 1.53-10.67 2.08-16q1-4.78 2.36-9.45c-1.19 10.43-2.52 20.85-3.72 31.28a1.81 1.81 0 0 0 0 .22 1.16 1.16 0 0 0-1.22 1c-.7 3.7-1.56 7.32-2.55 10.91q.28-2.32.59-4.64c.23-1.72-2.38-2.48-2.64-.73s-.54 3.38-.82 5.07a1.34 1.34 0 0 0-1.74.89c-.62 1.72-1.2 3.45-1.77 5.18-.39 1.18 1.5 2 2 .86l.12 1.93a1.46 1.46 0 0 0 .2.64q-.4 2.77-.79 5.53a1.59 1.59 0 0 0 3.06.84c1.36-3.46 2.52-7 3.53-10.56 0 1-.1 1.92-.14 2.89a1.53 1.53 0 0 0 3 .41c.48-2.09.93-4.19 1.39-6.29 0 2.19.14 4.39.38 6.62.18 1.66 2.6 2.25 3.09.42.64-2.4 1.29-4.8 1.94-7.2a1.26 1.26 0 0 0 2.33.53 16.11 16.11 0 0 0 2.44-8.32.73.73 0 0 0-.26-.58l.17-1.24a1.64 1.64 0 0 0 3.21.64c.43-3.19 1-6.36 1.69-9.5-.41 4.07-.81 8.15-1.17 12.22-.17 2 2.7 2.13 3.28.44l.35-1a1.57 1.57 0 0 0 2.71-.54 25.73 25.73 0 0 0 1.91-12.7zm-12.88-11.23c-.53 4.76-1.13 9.52-1.7 14.28q-.36 1.11-.65 2.22l-1.23 4.13a172.54 172.54 0 0 1 3.58-20.63zm-6.52 24.74a2 2 0 0 0 1.74-.1l-1.61 5.42c-.12-1.78-.16-3.55-.13-5.32zm1.62-25c-.58 5.16-1.18 10.32-1.71 15.49a1.07 1.07 0 0 0-1 .05 122.18 122.18 0 0 1 2.71-15.55zm-3.87 19l-1.28 5c0-1.58.08-3.17.14-4.75a2.12 2.12 0 0 0 1.14-.23zm9.89 2q.54-3.87 1.26-7.76-.59 3.91-1.26 7.79z" fill="#66a8e2"/><path d="M690.34 664.25l-.37.9-.55-8.3a2.16 2.16 0 0 0-2.51-1.85l1.26-6.53a2 2 0 0 0-2.15-2.35l1.71-9.45a1.94 1.94 0 0 0-3.73-1c-.37.88-.71 1.78-1.06 2.66l1.52-9.56c.38-2.39-3-3.46-3.71-1l-.53 1.92.82-5c.31-1.89-2.5-3.55-3.42-1.44l-.18.45c-.37.85-.71 1.71-1.06 2.57q1.14-6.5 2.3-13c.39-2.17-2.8-3.13-3.36-.93l-2.18 8.6 1.21-7.6a2 2 0 0 0-3.16-2L673 600.1c.39-2.41-3.14-3.51-3.75-1l-3.69 15 3.82-27.71a1.92 1.92 0 0 0-3.7-1c-.66 1.82-1.29 3.65-1.91 5.48l1.8-11.17a1.89 1.89 0 0 0-3.63-1c-1 2.44-1.83 4.91-2.67 7.38L661 572c.25-2.08-3-2.39-3.57-.48l-4 14 4.5-29.06c.28-1.84-2.36-3.43-3.32-1.4q-2.77 5.88-5.11 11.92l4-23.39c.34-2-2.62-3.71-3.58-1.51l-.19.47c-1.23 2.84-2.37 5.7-3.47 8.58l4.45-25.7c.33-1.93-2.52-3.57-3.45-1.46q-3.09 7-5.72 14.09 1.95-10.6 3.91-21.2c.35-1.86-2.22-3.23-3.23-1.36-.36.67-.71 1.35-1.06 2l1.86-8.35c.41-1.82-2.21-3.13-3.14-1.32q-2.12 4.09-4 8.27.66-4.17 1.26-8.34c.26-1.82-2.33-3.42-3.3-1.39q-.74 1.55-1.45 3.12l1.51-7.14c.39-1.83-2.31-3.25-3.2-1.35q-2.32 4.93-4.37 9.95 1-5.09 2.07-10.19c.35-1.7-2.22-3.09-3-1.27l-.17.39c-1.33 3.06-2.58 6.15-3.79 9.26q.93-5.88 1.67-11.8c.18-1.5-2.31-2.18-2.9-.78q-1.77 4.16-3.36 8.38c-.17-1.33-2.1-2.2-2.78-.7-.9 2-1.77 4-2.61 6 .53-3.83 1-7.67 1.44-11.53.16-1.48-2.07-2-2.74-.74q-2.14 3.91-4 7.93.88-4 1.75-8.08a1.38 1.38 0 0 0-2.67-.74L595.25 522c1.12-6.27 2.23-12.54 3.43-18.8.2-1-1.14-2.13-1.95-1.13a43.38 43.38 0 0 0-3 4.22c0-1 .07-1.92.07-2.89a1 1 0 0 0-2 0c0 1.76-.14 3.5-.33 5.22a1.07 1.07 0 0 0-.92.61q-4.51 8.67-8.18 17.68 2.24-10.59 4.54-21.16c.3-1.38-1.63-2.33-2.36-1q-3.08 5.65-5.65 11.54c.38-1.93.75-3.87 1.13-5.8.24-1.22-1.48-2.13-2.12-.89-2.05 3.95-3.89 8-5.55 12.08q1.32-6.47 2.65-12.93c.29-1.38-1.66-2.39-2.39-1q-2.14 4-3.92 8.22c.15-2.31.25-4.63.27-7a1.39 1.39 0 0 0-2.72-.37l-1.18 3.54c.07-1.53.11-3.07.08-4.62a1.13 1.13 0 0 0-2.21-.3c-.74 1.8-1.45 3.6-2.16 5.41l.15-1c.15-1-1.43-1.51-1.6-.44l-1.51 9c-.16 1 1.28 1.8 1.73.73 1-2.39 2-4.78 3.07-7.17a66.71 66.71 0 0 1-3.07 15.06c-.56 1.7 2.11 2.42 2.67.74l3.44-10.38q-.41 4.14-1.13 8.24a109 109 0 0 0-3 12.5 1.38 1.38 0 0 0 2.67.74 112.46 112.46 0 0 0 3-12.69q1.31-4.39 3-8.65-2.55 12.77-5.12 25.53c-.48 2.14-.92 4.3-1.3 6.47-.27 1.55 2.06 2.23 2.38.66l1.43-7.06a146.05 146.05 0 0 1 8.41-25.76q-.9 4.67-1.83 9.34a139.32 139.32 0 0 0-7 34.89c-.11 1.59 2.51 2 2.81.38q2.81-15.24 5.65-30.47a143.52 143.52 0 0 1 6.55-17.84q-3.41 15.87-6.9 31.71a208.38 208.38 0 0 0-6.28 29.11c-.25 1.77 2.36 2.6 2.76.76q3.22-14.82 6.31-29.66a206.32 206.32 0 0 1 9.8-26.7q-1.66 7.18-3.33 14.36a221.36 221.36 0 0 0-11 47c-.2 1.63 2.49 2 2.85.39q4.86-21.42 9.7-42.85 1.83-5.5 4-10.91l-4.69 20.6a279.33 279.33 0 0 0-9.17 40.29 1.63 1.63 0 0 0 2.44 1.66c-.28 1.81-.53 3.62-.75 5.45a1.54 1.54 0 0 0 1.85 1.61q-1.26 5.89-2.24 11.86a1.84 1.84 0 0 0 2.6 2c-.61 3.65-1.13 7.33-1.53 11-.22 2 3 2.4 3.49.47q5.14-22.51 10.29-45 1.85-5.26 4-10.43-1.23 7-2.61 14a193.19 193.19 0 0 0-11.28 47.64c-.21 2 3 2.35 3.46.47l.11-.43q-.59 4.27-1 8.57c-.18 2.16 3.35 2.64 3.8.51q4.32-20.45 8.66-40.91 1.11-3.16 2.36-6.27Q597.95 602 596 612.2a157 157 0 0 0-6.3 32.75c-.18 2.17 3.42 2.68 3.82.52q3.2-17.31 6.36-34.62c.79-2.72 1.65-5.41 2.59-8.08q-1.78 9.91-3.57 19.82a161.57 161.57 0 0 0-6.79 39.28c-.1 2.05 3.26 2.57 3.64.49 2.54-14.1 4.89-28.24 7.22-42.39q1.15-3.61 2.48-7.16-3.22 18.54-6.48 37.08-2 9.07-3.23 18.33c0 .17 0 .33-.07.5-.26 2.06 3.33 2.57 3.66.5l3-18.69q1.6-7.8 3.76-15.45-2.11 11.84-4.17 23.7a196.62 196.62 0 0 0-3.57 21.77c-.22 2.05 3.25 2.53 3.62.49 1.85-10.22 3.54-20.47 5.19-30.73a180.86 180.86 0 0 1 6-18.78c-2.22 14.16-4.64 28.28-6.83 42.45-.17 1-.33 2-.48 3a1.3 1.3 0 0 0-1.25 1c-.41 1.4-.84 2.79-1.26 4.18a.9.9 0 0 0-1.35.08 54.67 54.67 0 0 0-11.31 24.53 1.18 1.18 0 0 0 2.28.63c1.22-3.54 2.23-7.14 3.54-10.65a.42.42 0 0 0-.22-.52 53.61 53.61 0 0 1 4.17-8.08c-1.61 6.89-3.29 13.77-5.14 20.59a1.56 1.56 0 0 0 3 .83c.79-2.66 1.56-5.33 2.34-8l-.65 3.86c-.34 2.07 2.66 3 3.21.88l1.91-7.34-.54 5.63c-.18 1.87 3 2.37 3.47.47q.81-3.22 1.59-6.44c1 .68 2.43.56 2.68-.9a29 29 0 0 1 1.36-5.09 3.09 3.09 0 0 0 3.13.75c2.27-.49 4.16-3.53 5.56-5.08a68.58 68.58 0 0 0 7.18-8.63c.9-1.4-1-2.53-2.13-1.65a54.15 54.15 0 0 0-6.3 6.23l-2.67 2.9c-.77.84-3.74 4.67-1.86-.33.62-1.65-1.42-2.64-2.66-1.88l.86-6.89a1.23 1.23 0 0 0-.15-.8q.85-5.74 1.64-11.49c.16-.82.32-1.65.49-2.47-.61 4.94-1.22 9.88-1.81 14.82-.24 2 3 2.36 3.48.47q1.16-4.4 2.31-8.81c-.07 1.69-.14 3.37-.22 5.06a1.79 1.79 0 0 0 2.41 1.74v.51c-.21 2.14 3.24 2.56 3.72.5l2-8.46a1.81 1.81 0 0 0-.95-2.09l.42-4.24c.18-1.84-2.09-2.33-3.22-1.32l.4-9.4c.09-2.12-3.16-2.54-3.68-.5l-.62 2.46c.4-3.78.82-7.56 1.28-11.33.19-1.54-1.73-1.88-2.66-1q.84-5.94 1.74-11.87a1.42 1.42 0 0 0-2.74-.75c-1.42 3.67-2.73 7.37-4 11.09.92-6.4 1.86-12.8 2.86-19.19.22-1.38-1.78-2.58-2.49-1q-2.61 5.64-4.84 11.43 1.26-7.95 2.56-15.89a1.58 1.58 0 0 0-3-.84q-1.36 3.49-2.61 7l3.49-21.11c.25-1.53-2-2.82-2.74-1.16s-1.62 3.51-2.39 5.28q1.28-7.8 2.57-15.59c.26-1.57-2-2.92-2.82-1.19-.64 1.4-1.25 2.8-1.86 4.2q1.3-6.95 2.63-13.89c.35-1.83-2.23-3.21-3.19-1.34-.41.8-.81 1.62-1.21 2.43q1.66-7.6 3.34-15.19c.36-1.63-2-2.84-2.83-1.19s-1.73 3.57-2.56 5.36c.24-1.37.46-2.75.7-4.13a1.42 1.42 0 0 0 .08-.2q5.42-19.42 8.85-39.26c.56-1.66 1.13-3.32 1.74-5L608.66 531q-2.5 10.18-4 20.61c-.28 1.9 2.56 2.77 2.95.81l3.95-20.21A220.33 220.33 0 0 1 618 510.5q-1.71 10.37-4.08 20.6c-1.57 5.42-3 10.88-4.19 16.41a1.6 1.6 0 0 0 3.09.85q2.13-7.58 3.88-15.24c1.39-4.86 2.9-9.67 4.57-14.44Q619.16 529 617 539.24q-1.91 7.75-3.22 15.66c-.35 2.12 2.84 3.08 3.28.91l3-14.53a201 201 0 0 1 6.46-21.43L624 531.6a177.92 177.92 0 0 0-6 28.61c0 .16 0 .32-.06.47-.25 2 3.08 2.42 3.5.47l6-28.46q1.73-5.75 3.86-11.37-.93 5.41-2 10.8a193.17 193.17 0 0 0-9.55 40c0 .16 0 .32-.07.48-.26 2.08 3 2.4 3.58.48 1.24-4.4 2.41-8.81 3.53-13.24-.76 4.43-1.33 8.9-1.67 13.41-.16 2 3.16 2.5 3.59.49q4.11-19 8.34-38 1.19-3.28 2.54-6.51-3.8 21-7.68 42-1.27 6-2.23 12.08c-.35 2.22 3 3.2 3.42.94q.74-4.11 1.49-8.21a236.91 236.91 0 0 1 9.31-33.7l-7.62 43.5c-.55 2.85-1.07 5.72-1.51 8.61-.37 2.45 3.34 3.54 3.78 1l1.33-7.67a209.52 209.52 0 0 1 6.54-25.57q-3.41 20.42-6.81 40.84c-.39 2.37 3.22 3.39 3.63 1a177.52 177.52 0 0 1 8.94-33.85l-6.69 43.33c-.35 2.24 2.83 3.26 3.48 1l5.54-19.53-3.38 27.41c-.27 2.36 3.4 2.32 3.68 0 .58-5 1.39-9.87 2.4-14.74l-3.88 23.89q-.61 3.46-1.13 6.94c-.36 2.42 3.33 3.49 3.72 1a273.66 273.66 0 0 1 6.64-31.5l-5.76 41.71c-.33 2.37 3.1 3.5 3.71 1l1.19-4.8-.15.93c-.5 2.81-1 5.63-1.37 8.47a2.13 2.13 0 0 0 3.22 2.1l-.9 5.65c-.35 2.19 2.51 3.29 3.5 1.63-.11.79-.23 1.57-.33 2.36v.07c0 .16 0 .32-.07.48-.25 2 3.22 2.5 3.57.48q1.28-7.39 2.55-14.79 1.07-4.83 2.44-9.58-1.56 9.56-3.13 19.12c-.39 2.37 3 3.43 3.67 1l.7-2.51-1.29 8.11c-.39 2.42 3.29 3.49 3.73 1 .07-.38.15-.76.22-1.13a2 2 0 0 0 3.08 1.33c.84.76 2.19.9 2.75-.41l2.34-5.5.58 8.5a1.87 1.87 0 0 0 3.65.49l3.47-8.51c.88-2.2-2.7-3.13-3.59-.95zm-105.29-100l3-13.27q1.46-4.81 3.09-9.57l-4.14 17.2q-1 2.85-1.95 5.69zm6.59-7.55l-1.29 4.91q-1.19 3.23-2.29 6.48l1.85-7.77c.6-1.67 1.24-3.32 1.9-5l-.16 1.43zm2.14-44.13c-.44.93-.87 1.86-1.3 2.8.22-1 .4-1.92.56-2.89a37.88 37.88 0 0 1 2.33-4.51c-.25 1.3-.5 2.59-.76 3.89a1.25 1.25 0 0 0-.83.76zM616 645.87c-1.12 7-2.28 14-3.4 21q-1.53 7.83-2.4 15.81a1.46 1.46 0 0 0 .11.75l-.78 2.94c.17-2.17.33-4.35.52-6.52a1.33 1.33 0 0 0-.93-1.42q.76-5 1.49-10a223.53 223.53 0 0 1 5.39-22.56zM599.44 519l2.07-5.26-1.36 6.26q-1.14 3.14-2.13 6.33l1.51-6.36a1.45 1.45 0 0 0-.09-.97zm-4.37 75.24q-.71 1.87-1.37 3.76 1.57-7.23 3-14.48.9-2.49 1.87-4.95-1.74 7.85-3.5 15.69zm11.16-70.33a200.71 200.71 0 0 0-7.91 32.15q-.75 1.51-1.47 3 1.34-5.77 2.68-11.53a1.81 1.81 0 0 0-1.55-2.09c.68-2.58 1.35-5.16 2-7.73a1.55 1.55 0 0 0-.52-1.61l3.21-14.8a154.27 154.27 0 0 1 6.21-14.7q-1.13 8.71-2.66 17.32zm28 9q-1.92 5-3.46 10.16c.76-3.51 1.5-7 2.18-10.56q1.52-4.25 3.24-8.44-1.02 4.39-2 8.81z" fill="#5e5138"/><path d="M557.14 282.87c-.18-1.54-2.69-2.26-3-.41l-.16 1v-.53c-.05-1.68-2.68-2.19-3-.41l-.57 2.71v-1c0-2.07-2.86-1.93-3.12 0s-.53 4.11-.79 6.17a1.47 1.47 0 0 0-2.25.93q-.53 2.6-1.08 5.2c-.78-.57-2-.51-2.22.69-.76 4.32-1.56 8.64-2.21 13-.23 1.58 2.11 2.33 2.47.68.28-1.26.52-2.53.77-3.79a1.48 1.48 0 0 0 2.42-.77c.09-.39.16-.79.25-1.18a1.6 1.6 0 0 0 3.2 0l.5-4a1.51 1.51 0 0 0 2.23-1c.28-1.32.54-2.65.81-4 0 1 .07 2 .11 3 .05 1.68 2.77 2.23 3.07.42q.57-3.44 1.11-6.88a1.26 1.26 0 0 0 2.35-.6c-.15-3.1-.54-6.16-.89-9.23z" fill="#7c571c"/><path d="M608.36 295.46a3.57 3.57 0 0 1-2.43-4.31c.15-1.21-1.72-1.61-2.25-.61l-1.7 3.21a28 28 0 0 1-1.42-8.18 1.21 1.21 0 0 0-2.36-.32c-.39 1.35-.8 2.7-1.2 4-.21-3.71-.47-7.41-.63-11.11a1 1 0 0 0-2 0 92.45 92.45 0 0 1-1.89 12.93q-.74-5-1.45-10.06a1.14 1.14 0 0 0-2.19 0c-.51 3.32-1 6.64-1.51 10-.43-5.8-.88-11.6-1.15-17.41a1.13 1.13 0 0 0-2.25 0q-.75 6.09-1.55 12.17c-.27-3-.53-6-.75-8.95-.1-1.39-2.32-1.92-2.6-.35s-.53 2.95-.8 4.42c-.05-2.13-.12-4.25-.15-6.38 0-1.26-2-1.64-2.28-.31-.54 3-1.11 6-1.67 9-.29-3.21-.58-6.43-.79-9.65-.1-1.47-2.34-1.5-2.31 0a50.52 50.52 0 0 1-.93 10.62q-.6-4.65-1.19-9.31a1.14 1.14 0 0 0-2.23-.3c-.73 2.44-1.48 4.88-2.21 7.33-.09-1.73-.18-3.46-.29-5.2a.66.66 0 0 0-1.31 0c-.18 4.06-.27 8.12-.36 12.18a1.15 1.15 0 0 0 2.24.3c.87-2.75 1.68-5.51 2.48-8.29l1 10.49a1.39 1.39 0 0 0 2.73.37c.38-1.23.7-2.47 1-3.71.11 1.93.22 3.86.34 5.79.09 1.48 2.46 2 2.76.37.22-1.24.42-2.48.62-3.72v5.31c0 1.77 2.64 2.1 2.94.4.48-2.72.92-5.45 1.34-8.18.27 3.64.51 7.29.77 10.93a1.49 1.49 0 0 0 3 0q.5-5 1-9.93c.17 4.92.34 9.85.62 14.77a1.47 1.47 0 0 0 2.93 0c.49-4.54 1.08-9.07 1.69-13.6q.46 3.89.91 7.78c.16 1.41 2.26 2 2.65.36s.69-3 1-4.45c0 1.28.05 2.56.12 3.84a1.42 1.42 0 0 0 2.78.38c.52-2 1-4 1.56-6a31.32 31.32 0 0 0 1.58 5.39c.39 1 2 1.57 2.59.34.41-.88.8-1.77 1.2-2.66a6.23 6.23 0 0 0 3.49 2.66c1.38.61 1.98-1.81.51-2.35z" fill="#7c571c"/><path d="M701.35 673.44a52.65 52.65 0 0 0-5.69-16.21 49.73 49.73 0 0 0-5.49-8.29c1.69-1 3.38-2 5-3a2.9 2.9 0 0 0 1-3.9 30.58 30.58 0 0 0-2.65-3.82 1.19 1.19 0 0 0-.91-.48c-1.13-5.79-4.43-11.66-6.59-17.1q-3.56-9-7-18-7.07-18.45-13.67-37.08-6.35-18.17-12.45-36.47-3.06-9.15-6.15-18.28c-.87-2.54-1.56-7.27-3.57-9.83a9.25 9.25 0 0 0 2.1-5.49c.1-1.9-.73-4.18-1.25-6.38.08-.41.15-.83.21-1.26a2.34 2.34 0 0 0 1.5-.8c7.71-8.45 19.12-12.13 27-20.45 8.14-8.64 8.57-19 4.18-29.68a160.44 160.44 0 0 0-18.24-32.17 149.27 149.27 0 0 0-11-13.64c-2.71-3-6-7.63-9.91-9.75a11.44 11.44 0 0 0-10.29-6c-8.76-.27-18.11 1.73-26.82 2.66-5.19.56-10.41 1.05-15.64 1.57a27.12 27.12 0 0 1-.5-3.12c-.18-2.84.27-5.82 0-8.64 19.41-.84 35.14-17 38.47-35.81v-.2c7.64 2.65 16.52-5.91 14.64-13.71-1.48-6.1-9.56-10.72-15.22-7.91a54.62 54.62 0 0 0-21.67-32.9c-14.6-10.18-39.6-10.85-51.8 3.34-7.3 6.33-11.27 16.33-12.4 26.44-2.36.6-2.56 4.11-.32 4.58v1.8a12.42 12.42 0 0 0-8.32.62 12.28 12.28 0 0 0-7.1 12.86 11.22 11.22 0 0 0 9.22 10c3.46.56 8-.5 10.43-3.28 6.83 16.55 21.2 32.42 39.22 34-.94 2.94-.82 6.38-.64 9.37.06.94.07 2 .16 3.1-9.78 1-19.56 2.23-29.15 4.15l.15-.18c.17-.18.13-.59-.17-.63a7.78 7.78 0 0 0-7.75 3.23l-.21.1a27.88 27.88 0 0 0-3.26 2.34c.13-.4.25-.8.39-1.21 3-8.78 3.11-17.25-3-24.76-3.38-4.14-13.76-11.75-19.54-7.89a50.57 50.57 0 0 0-18.37-14.23 53.82 53.82 0 0 0-24.81-4.38 188.91 188.91 0 0 1-5.79-28.21 1.79 1.79 0 0 0-3.3-.89 45.51 45.51 0 0 0-7.4 14.37q-4.4-5.75-8.79-11.52c-1.29-1.7-4-1.24-4.14 1.12q-.31 8-.62 15.94-5.3-4.41-10.61-8.82c-1.62-1.34-4.84-.14-3.94 2.29a128.46 128.46 0 0 0 7 15.71c1.63 3.06 3.65 9.24 7.76 9.16a.54.54 0 0 0 .47-.27c1.55-3.34-1.88-6.8-3.44-9.67q-2.1-3.88-3.88-7.89l7.16 5.9a2.35 2.35 0 0 0 4-1.64q.23-7.23.43-14.46L456 328c1 1.32 3.59 1.53 4-.52a49.21 49.21 0 0 1 4.49-13.22 125.24 125.24 0 0 0 4.61 22.86 60.61 60.61 0 0 0-8.76 1.76c-11.21 3.14-23.19 9.78-29.76 19.79-4.73-1.15-10.86-.14-15 .87-6 1.46-11.88 4.64-15.68 9.57-6.07 7.85-6.58 19.33-.34 26.81-6.79 3.61-11.46 10.76-11 18.73.44 7.65 5.66 14.22 12.53 17.1a14.06 14.06 0 0 0-2.2 12.94c2.13 6.65 8.18 11.33 14.56 13.6 12.45 4.43 26.56-.19 34.68-10.28a40.52 40.52 0 0 0 14.19 3.59 127.6 127.6 0 0 0-.51 20.57 3.29 3.29 0 0 0 .29 1.21v2.26a46.87 46.87 0 0 1-10.09-.9c-2.81-.58-5.22-1.53-8-1.53-13.5-5.51-36.37 3.42-30.16 20.95a15.33 15.33 0 0 0 3.74 5.87c-2.34 3.75-4.28 7.73-6.71 11.43A76.94 76.94 0 0 1 399.5 525a74 74 0 0 1-13.56 10.19 75.38 75.38 0 0 1-7.23 3.73c-2.65 1.19-5.73 1.84-8 3.61a2.89 2.89 0 0 0-1.14 2.23 18.36 18.36 0 0 1-2.89-1.25c-2.89-1.57-4.79-3.88-7.27-5.9a.79.79 0 0 0-1.31.76 12.06 12.06 0 0 0 4.09 5.91c-4-1.08-7.37-3.14-10.93-5.39-2.36-1.5-4.38 1.72-2.8 3.63 2.65 3.22 8.8 6.75 14.7 7.85a51 51 0 0 1-5.86.07c-3.81-.25-7.5-1.62-11.29-1.69a1 1 0 0 0-.7 1.68c5.19 4.82 16.17 5.58 22.72 2.43-.9 3.74-1.33 7.74-1.89 11.15-.18 1.07 1.35 2 1.91.81 2.64-5.4 6.45-11.71 6.89-17.82 4.69-.9 9.72-4 13.49-6.12a81 81 0 0 0 15.4-11.56c7.26-6.93 15-16.42 17.71-26.55a14.9 14.9 0 0 0 6.82 1.52 19.39 19.39 0 0 0 10.17-3.56c-.55 2.43-1.08 4.87-1.64 7.3q-4.17 18.14-8.33 36.28-4.06 17.67-8.42 35.27-2.14 8.56-4.36 17.09c-1.63 6.26-3.88 12.61-4.82 19a3.28 3.28 0 0 0 .11 1.48c-2.91 4.71-5.09 10-7.54 14.88a3.1 3.1 0 0 0 1.09 4.17c20.38 10.49 43.85 15.09 66.81 14.46-1.12 5.28.55 11.76 1.73 16.72.93 3.91 2.07 10.68 5.16 14.19-3.18.69-6.43.78-9.6 1.51a2.24 2.24 0 0 0-1 3.74c-.69 8.28-2 15.48-6 23.1-3.87 7.38-8.85 13.95-14 20.44-1.34 1.67-.15 4.35 2.18 3.75 8.83-2.29 17.7-4.43 26.52-6.75a2.3 2.3 0 0 0 1.05-3.81 82.05 82.05 0 0 0 3.65-9.25c1 2.67 2 5.34 3 8a2.25 2.25 0 0 0 2.06 1.57 10.06 10.06 0 0 0 10.06-5.58 8.82 8.82 0 0 0 .35-6.32c-.44-5-2.47-10.28-3-15.12a148.74 148.74 0 0 1-.6-16.14l.08-.12a2.2 2.2 0 0 0-.12-2.62c-.23-2.08-3.54-2.74-4.16-.71a25.76 25.76 0 0 0-4.4 1.92 19.58 19.58 0 0 0-1.58-4.56 76.06 76.06 0 0 1-2.89-9.13c-1.22-4.86-1.15-10.32-2.61-15.12q2.43-.16 4.84-.4a152.63 152.63 0 0 0 28.4-5.55c1.51 4.4 3.53 8.59 5.46 12.81 1.64 3.59 2.69 8 5.9 10.39-.31.21-.61.42-.91.65a12.58 12.58 0 0 0-7 3.2 2.36 2.36 0 0 0-.36 2.8c5.7 12.5 12 24.76 18.1 37.08 1.07 2.17 3.83 1.12 4.29-.76a51.4 51.4 0 0 0 5.12-2.41 2.34 2.34 0 0 0 .47-3.64 14.08 14.08 0 0 1-3.45-9.73c2.34 4.21 7.56 6.57 12.61 6 4.6-.52 8.62-2.78 12.55-5.08a77.39 77.39 0 0 1 7.18-3.87l.76-.32c.35.06.71.14 1.06.18a2.14 2.14 0 0 0 1.14-4.13c-7.45-2.85-14.54-5.43-21-10.29a63 63 0 0 1-8.42-7.72c-.77-.84-1.5-2-2.3-3v-.26a4.21 4.21 0 0 0 1.06-5 3.6 3.6 0 0 0-5.52-1.19 1.83 1.83 0 0 0-.48-.06c-3.83.17-7.41 3.1-10.68 5 0-3.42-2-6.21-3.6-9.46-2.1-4.36-4.07-8.81-6.55-13 1.4-.48 2.8-1 4.19-1.5 12-4.51 25.7-10.27 34.42-19.84a2.7 2.7 0 0 0-.18-4 3.43 3.43 0 0 0-.25-2.65q-18.11-35.67-36.94-71-9.19-17.21-18.64-34.28c-2.06-3.74-4.11-7.48-6.21-11.2a17 17 0 0 0 6.68-.66c2.16 8.69 8 17.12 13.55 23.58a74.84 74.84 0 0 0 12.13 11.16c1.86 1.37 5.77 4.82 9.09 5.89a9 9 0 0 0 .07 1.68q-.42.91-.8 1.83c-.86 2.1-2 4.25-2.1 6.54s2.78 2.67 3.84 1A9.49 9.49 0 0 0 536 547c1.29 4.54 2 9.94 4.56 13.93a1.46 1.46 0 0 0 2.71-.73c0-4.71-2.29-9.71-3.64-14.22-.4-1.32-.71-2.84-1.12-4.33.46.59 1 1.17 1.42 1.78a91.9 91.9 0 0 0 6.63 8.1c1.83 1.86 5.16-.57 3.68-2.84a75.38 75.38 0 0 0-5.49-7c2.73 1.92 5.52 3.91 8.68 4.92 1.44.46 2.21-1.35 1.37-2.35-2.48-2.93-6.12-4.91-9.3-7-3-2-6.45-5-10.07-5.54a1.27 1.27 0 0 0-.72.11A81.07 81.07 0 0 1 521 521.37a72.78 72.78 0 0 1-10.81-13.43c-2.5-4-4.26-8.38-6.34-12.57a16.21 16.21 0 0 0 7.29-16.37c-1-5.63-4.91-10.46-10.62-11.68a13.52 13.52 0 0 0-10.38 1.79 3.29 3.29 0 0 0-4-.84c-6.22 3.34-11.94 6-18.67 6.92v-1.87a3.3 3.3 0 0 0 .29-1.21 127.62 127.62 0 0 0-.51-20.57 38.63 38.63 0 0 0 9.18-1.76c6.24 9.83 19.25 14.41 30.2 10.07.2-.08.39-.18.59-.27 3.83 7.29 11.14 13.75 16.9 19.27 6.41 6.14 13.36 12.42 21.15 16.79.33 4.91.34 10.32 2.44 14.64a1.73 1.73 0 0 0 .91.85 4.33 4.33 0 0 0 1.48.7.94.94 0 0 0 1.19-.47 2.74 2.74 0 0 0 .16.23c2.56 3 6.78.84 10 .09s6.23-1.38 9.35-2c-1.53 3.27-2.78 6.74-4.19 10s-3 6.61-4.32 10c-1.12-5.32-2.12-10.63-5.56-14.93a.33.33 0 0 0-.55.14c-1.43 6.17.68 12 2 18.08 1.56 7.09 3.1 14.19 4.7 21.28q4.8 21.25 9.65 42.48 9.65 42.48 19.48 84.92a2.15 2.15 0 0 0 1.5 1.68c0 .07 0 .13-.07.2a1.21 1.21 0 0 0 .55 1.34 5.44 5.44 0 0 0 4.15.55c-4.15 8.47-8.08 17-12.1 25.56-.75 1.58.54 4.15 2.57 3.35a107.24 107.24 0 0 0 25.91-14.54c7-5.37 14.94-12 19-20.11q4.1.09 8.22.44c3.77.33 3.64-5.38 0-5.81-2-.24-3.95-.39-5.92-.49-1.21-5.31-3.31-10.54-4.87-15.74q-2.62-8.7-5-17.48-4.91-18-8.84-36.26c-2.55-11.85-4.81-23.75-6.85-35.7-1-6-2-11.94-2.87-17.93-.1-.67-.17-1.45-.23-2.29.38.59.74 1.16 1 1.71 2.69 4.92 5.45 9.79 8.14 14.7 5.54 10.09 11 20.25 16.15 30.54 10.39 20.7 19.54 41.83 28.41 63.21a2.76 2.76 0 0 0 1.66 1.58 1.86 1.86 0 0 0 1.85 3 37.26 37.26 0 0 0 5-2.11c1.14 3.47 7.6 6.83 9.93 8.21a53.88 53.88 0 0 0 19.2 6.88 2.26 2.26 0 0 0 2.85-2.7zm-68.57-355.22a6.29 6.29 0 0 1-1.82 6.95c-2.16 2.08-4.61 2.35-7.41 1.94a55.76 55.76 0 0 0-.49-13.27c3.79-.53 8.14.59 9.72 4.38zm-94.66 10.73c-2.22 1.83-4 3.52-7.12 3.15s-5.31-3.13-5.56-6.29a7.56 7.56 0 0 1 5-7.78 12.52 12.52 0 0 1 5.92-.5 47.29 47.29 0 0 0 1.31 8c.27 1 .58 2.1.92 3.16a2.33 2.33 0 0 0-.47.25zm-50 356a92.82 92.82 0 0 0 .66 12.8c.6 5.25.94 12.32 3.72 17.06a5.27 5.27 0 0 1-4.86 4.71q-2.34-5.85-4.63-11.71a2.06 2.06 0 0 0-3.92 0c-1.84 5-4.24 10.15-5.45 15.38-6.13 1.57-12.24 3.21-18.36 4.83 9-11.36 18.93-25.42 16.95-39.9a30.19 30.19 0 0 0 15.86-3.12zm35.32-12.39a40.42 40.42 0 0 0 5.43-2.68c2.5-1.35 5.56-2.5 7.88-4.31a2.16 2.16 0 0 0 .05 2.07 57.69 57.69 0 0 0 27.75 22.14c-2.24 1.24-4.28 2.63-5.54 3.31-4.13 2.22-9.4 4.67-13.89 2.1a5.53 5.53 0 0 1-2.6-2.26 4.93 4.93 0 0 1-.86-3.65 6.5 6.5 0 0 0-1.1-2.17 1.25 1.25 0 0 0-1.26-.33l-.61.24h-.06a1.06 1.06 0 0 0-1.5-.15c-5.17 4.71-3.84 12.72-.52 18.33-.68.33-1.35.66-2 1-5.25-10.87-10.42-21.81-16-32.52a12.37 12.37 0 0 1 1.64-.91 5.28 5.28 0 0 0 3.16-.2zM642.7 391.28c3.72 4.39 7.28 9 10.65 13.62a184 184 0 0 1 16.85 28.44c2.85 6 6.12 12.89 4.86 19.7-1 5.21-4.57 9.39-8.54 12.68-6.92 5.75-15.33 9.23-22 15.23v-1.55q.24-6.85.3-13.71v-1.27a1.47 1.47 0 0 0 .88-.37c1.23-1.13 2-2.62 3.34-3.63s3-1.49 4.2-2.7c2.4-2.38 2.48-5.47 1.35-8.52-1.56-4.2-4-8.23-6-12.23-1.57-3.14-3-6.44-4.85-9.47q-.53-8.29-1.31-16.56c-.71-7.39-1.1-15.25-2.55-22.63 1.01 1.02 2 2 2.82 2.97zm1.68 47.58c1.24 2.44 2.51 4.83 3.62 7.19s3.62 6.19.81 8.92c-.84.82-2.37 1.1-3.36 1.82-.22.16-.43.32-.63.49q-.06-9.21-.45-18.42zm-1.67 73.8c-3.9-3-8-5.91-12.11-8.58 3.11.11 6.5.32 9.35-.8.26 2.64 1.69 5.6 2.3 7.76.13.55.3 1.08.45 1.62zM592 279.29a44.06 44.06 0 0 1 16.95 14.85c-4.72 1.21-8.95 3.22-14 3.48a36.12 36.12 0 0 1-16.57-2.9 38.25 38.25 0 0 1-11.55-8c-2.06-2.09-3.65-4.77-5.42-7.2a34.41 34.41 0 0 1 30.59-.23zm-49.23 20a38.59 38.59 0 0 1 4.08-9 1.93 1.93 0 0 0 .85-.56 47.26 47.26 0 0 1 6.7-6.07c.69 5.2.43 10.25-2.59 14.95a17.83 17.83 0 0 1-10.5 7.46 41.13 41.13 0 0 1 1.43-6.75zm2 31a49.32 49.32 0 0 1-3.8-19.28c11.85-3.13 21.08-16.53 16.5-28.39a35.56 35.56 0 0 0 5.61 7.73 40.47 40.47 0 0 0 14.12 9.94c9.74 4.1 25.51 5.36 34.58-1.56a50.54 50.54 0 0 1 6 23.75c0 18.46-11.54 36.13-30.64 39-19.58 3.05-35.66-14.6-42.42-31.15zM581.93 386a1.83 1.83 0 0 0 2.07-.22l7.46-.81a61.24 61.24 0 0 0-6.06 13.45 141.6 141.6 0 0 0-11.26-11.61q3.86-.39 7.79-.81zm-12.84 1.28c4.29 6.36 10.55 11.81 15.75 17.36a2.34 2.34 0 0 0 3.88-1 87.73 87.73 0 0 1 8.16-19.22l11.46-1.18c-1.71 5.5-2.42 11.46-3.15 17.09-.82 6.29-1.26 12.6-1.51 18.93A98 98 0 0 1 587.19 407a2.23 2.23 0 0 0-3.47.45q-4.22 8.09-8.41 16.2a128.61 128.61 0 0 0-13.21-35.85c2.33-.15 4.66-.32 6.99-.52zm-28.53 49.6q.69 10.95 1.54 21.89c-3.62-3.22-7.59-6.2-11.18-9.16 3.14-5 6.72-9.84 9.49-15 .05.72.1 1.49.15 2.26zm-52.91-92.42c14 3.32 25.74 13.89 31.22 27.09-19.2 2.49-34.65-9.65-39.86-28.28a46.77 46.77 0 0 1 8.64 1.19zm-49.07 13.36c6.15-4.72 12.48-8.91 20.12-11.51a57.16 57.16 0 0 1 14.37-2.94c-5.44 8.35-11.13 15.76-20.08 20.94a49.27 49.27 0 0 1-14.69 5.49 36.78 36.78 0 0 1-6.27.4 106.28 106.28 0 0 1 6.55-12.38zm-18 96.55a22.15 22.15 0 0 1-13-5.53c-4.56-4.3-6.55-12.23-.23-16.06 1.69-1 1.63-4.2-.6-4.58-15.72-2.68-18-24.17-2.44-29.22 2.08-.68 2.15-3.09.56-4.31-8.06-6.16-5.82-18.86.83-25.13 3.8-3.59 8.83-5.5 13.89-6.52 3.07-.62 6.59-.32 9.87-.56a2 2 0 0 0 1.64.78 77.38 77.38 0 0 0-4.26 7.44 8.07 8.07 0 0 0-2.88 1.19 1.77 1.77 0 0 0-.35 2.75 6.12 6.12 0 0 0 1.08.8c-.49 1.19-1 2.4-1.38 3.63-4.29 12.44-5 26.31-1.18 39a49.24 49.24 0 0 0 21.08 27.37 26.74 26.74 0 0 1-22.65 8.95zM429 497.9a9.32 9.32 0 0 1-9.9-7.9c-2.52-13.45 15.1-12.37 23.72-14a10.47 10.47 0 0 0 1.17 1.18c-1.51 4.37-2.3 9.12-3.28 13.58-.14.64-.29 1.27-.43 1.91a2.14 2.14 0 0 0-1.38-.15c-3.84.88-5.5 4.99-9.9 5.38zm58.43-22.67a1.38 1.38 0 0 0 1.68 0c6.2-4.48 15.71-3.47 16.52 5.56s-8.32 12.69-15.82 10.91a3.27 3.27 0 0 0-1.16-.07c-2.41-4.06-4.6-9.41-8.17-12.76a37 37 0 0 0 6.93-3.63zm-11.24 5c.68 4.85 4.11 9.53 6.29 13.77 3.12 6.08 6.44 12 9.69 18.06q9.52 17.59 18.93 35.24 18.86 35.27 37.06 70.89c0 .09.1.15.15.23-10 5.25-19.2 11.76-29.93 15.91a142.15 142.15 0 0 1-37 8.85 143.61 143.61 0 0 1-71.38-11.3 134.14 134.14 0 0 0 4.39-13 2.93 2.93 0 0 0 1.9-1.83c4.43-11 6.48-23.54 9.34-35q4.49-18.07 8.6-36.24 4-17.7 7.21-35.57 1.57-8.7 3.06-17.41a134.77 134.77 0 0 0 2.09-13.83c5.38 2.87 13.26 3.31 18.32 3.1a49.19 49.19 0 0 0 11.27-1.82zm-22.43-36.53a40.67 40.67 0 0 1-23.83-21.16c-7.05-14.72-5.86-30.92-.47-45.94a42.11 42.11 0 0 0 8.92-1.22 54 54 0 0 0 17.11-6.83c7.88-4.74 15.73-12 19.53-20.72 4.36 20.2 25.59 33.18 45.81 29.49a42.41 42.41 0 0 1 1.35 8.72c1.05 22-18.43 40.39-35.36 51.64-10.03 6.65-21.34 9.8-33.06 6.02zM504 455.29c-8.19 2.6-17-1.05-22-7.64 10.71-4.93 20-13.22 28.18-21.49 8.82-8.88 16.42-19.53 18.11-32.22 1.65-12.37-2-25-9.13-35.27a29.53 29.53 0 0 1 4.53 1.13 21.36 21.36 0 0 1 9.5 7.49c5.48 7.86 2.36 15.07-.26 23.26a26.22 26.22 0 0 0-1 4.37 5.72 5.72 0 0 0-2.36 3.75.9.9 0 0 0 .89.89 3.57 3.57 0 0 0 1.23-.15c.09 4 .95 8 1.57 12.54 1.22 8.89-4.24 17.22-13.61 18a2.59 2.59 0 0 0-2.44 3.21c1.33 9.22-4.21 19.27-13.21 22.13zm23.72 20.06c-5.8-5.46-10.72-12.46-16.73-17.72a25.91 25.91 0 0 0 11.35-23 20.41 20.41 0 0 0 15.38-14c1.35-4.56.54-9.2-.36-13.76a30 30 0 0 1-.14-11.81l2.34-2a30.83 30.83 0 0 0-.75 6.35c-.15 9.95.59 20 1.29 30-5.44 5.73-9.34 13.15-13.85 19.6a2.18 2.18 0 0 0 .34 2.63c5.1 4.64 10.37 10.43 16.15 14.61.21 2.63.41 5.27.63 7.9q.67 7.78 1.41 15.54c-5.78-4.79-11.69-9.23-17.11-14.34zm41.44 28.19c-1.5.31-12.67 2-16.73 4.78a12.39 12.39 0 0 0 0-1.84 1.81 1.81 0 0 0-.37-1c0-3.61-.84-7.36-1.18-10.81q-.78-7.82-1.49-15.64c-.33-3.61-.62-7.22-.93-10.83a1.64 1.64 0 0 0 .39-2.35c-.21-.28-.44-.56-.66-.83q-.79-9.63-1.48-19.27-1.14-16.16-2-32.35c-.25-4.91-.77-9.88-.66-14.79a20.39 20.39 0 0 1 3-10.25c3.36 0 6.72-.07 10.09-.22a125.31 125.31 0 0 1 15 43c.3 1.92 3.27 2.16 4.11.54q5.05-9.77 10.07-19.56a93.92 93.92 0 0 0 18.28 12.37 2.08 2.08 0 0 0 3.09-1.77 204.65 204.65 0 0 1 1.09-21.43c.63-6.11 2-12.23 2.51-18.36l9.23-1c4.12-.43 9.47-1.81 12 2.4 1.74 2.85 1.72 7.89 2.12 11q3.09 24.29 3.91 48.79.39 11.74.27 23.5-.06 5.87-.26 11.75c-.13 4-.93 8.44.23 12.35a2.37 2.37 0 0 0 .67 1.11 6.21 6.21 0 0 1-.05 1.5c-.55 3.1-3.24 3.24-6 3.28-11.15.17-22.19.22-33.31 1.28a287.34 287.34 0 0 0-30.99 4.65zm43.2 192a101.21 101.21 0 0 1-19.65 12.16c3.62-7.83 7.28-15.64 10.69-23.56a2.29 2.29 0 0 0 .1-.3 106.58 106.58 0 0 1 11.58-2.84 88.89 88.89 0 0 1 13.41-1.32c-5.43 5.21-10.2 11.07-16.18 15.81zm53.75-38.27a633.94 633.94 0 0 0-28.47-63.67c-5.21-10.26-10.62-20.43-16.39-30.4-3-5.12-6-10.21-9.17-15.18-1.65-2.56-3.5-7-6.54-8.29a4.8 4.8 0 0 0-1.88-1.91.44.44 0 0 0-.51.07c-3.29 2.9-1 9.74-.53 13.59.68 5.93 1.51 11.85 2.39 17.76 1.83 12.3 4.13 24.56 6.76 36.71s5.59 24.25 8.88 36.24c2.82 10.3 5.2 21.6 9.36 31.61a100.42 100.42 0 0 0-15.55 1.41 87 87 0 0 0-13.8 3.48 38 38 0 0 0-3.75 1.36q-9.61-42.3-19.27-84.58-4.88-21.23-9.77-42.45C566.41 547 565 541 563.57 535a1.56 1.56 0 0 0 .53-.54v.05c2.66-4.62 4.63-9.68 6.8-14.55 1.64-3.67 3.64-7.38 5-11.22l2.42-.43a292.51 292.51 0 0 1 34.14-3.89c4.16-.22 8.32-.33 12.48-.38a1.62 1.62 0 0 0 .59 1.27 171.15 171.15 0 0 0 17 12.93 1.94 1.94 0 0 0 1.88.18q1.78 6 3.66 12 6 18.84 12.59 37.45 6.42 18.17 13.29 36.19 3.61 9.45 7.33 18.86c2.23 5.63 4 12.46 7.55 17.38a2.29 2.29 0 0 0 2 1v.54c-1.75 1-3.49 2.1-5.23 3.16l-.16-.09a1.72 1.72 0 0 0-2.52 1.72l-6.33 3.87c-3.46 2.15-7.2 4.22-10.53 6.72zm12.84 6.64a53.51 53.51 0 0 0-6.1-4.56c2.26-1.29 4.46-2.67 6.65-4l6.64-3.94a57.77 57.77 0 0 1 5.86 8 47.3 47.3 0 0 1 4.43 11.78 53.25 53.25 0 0 1-17.53-7.33z" fill="#634c27"/><path d="M825.89 511.57c-3.73-5.07-11.59-6.77-17.48-5.65a1.25 1.25 0 0 0-.47.21c-2.58-2-5.9-3.48-8.25-5-1.62-1.08-3.22-2.18-4.82-3.28a160.7 160.7 0 0 0 2-31.83 153.82 153.82 0 0 0-3.87-29.61 135.33 135.33 0 0 0-4.32-14.88c-1.37-3.85-2.73-9.53-6-12.11a1 1 0 0 0-.39-.19 74.44 74.44 0 0 0 17.71-9.12c1.07-.72 1.35-2.58 0-3.23a27.66 27.66 0 0 0-12.64-2.88 19.44 19.44 0 0 1 7.09-6.38c1.85-1 .56-3.75-1.39-3.3l-12.52 2.9a49.64 49.64 0 0 0 2.25-11.47c.16-2-2.37-2.13-3.31-.9-3.39 4.49-9.1 10.08-11.13 15.72a38.1 38.1 0 0 0-10.41-5.57c-8.54-3-18.33-2.87-26.52 1.13-4.79 2.34-9.94 6.82-11.69 12.13a55 55 0 0 0-5.55 19.27 90.5 90.5 0 0 0-3.62 11.8 103.19 103.19 0 0 0-2.7 26.09 104.76 104.76 0 0 0 3.7 25.21 102.32 102.32 0 0 0 3.83 11.23c-2.36 2.89-4.82 5.7-7.41 8.4a142.27 142.27 0 0 1-15.29 13.82c-.73.57-1.49 1.11-2.27 1.64a.78.78 0 0 0-1.34.21l-.31.88c-4.24 2.72-8.84 5.21-12.39 8.5-3.78 1.23-7.32 4.07-7.78 7.42-.11.77.64 1.63 1.45 1.11 2-1.32 3.44-3.28 5.67-4.45.2-.11.41-.19.61-.28a2 2 0 0 0 1.54.21 20.57 20.57 0 0 0 2.86-1l-.33.36a79.8 79.8 0 0 0-6.75 7.8c-.84 1.22 1 2.5 2 1.53 2.67-2.56 4.89-5.77 7.2-8.67l1.84-2.33a76.43 76.43 0 0 1-6.1 10.82c-1.11 1.72 1.52 3.14 2.69 1.57a49.64 49.64 0 0 0 8-16.29c2.29-1.72 4.48-3.52 6.49-5.08a138 138 0 0 0 15.75-14.27c2.08-2.2 4.07-4.47 6-6.8a20.71 20.71 0 0 0 4.52 7.26 1.62 1.62 0 0 0 1 .44q-3.06 12.12-6.92 24A337.69 337.69 0 0 1 703.74 561q-3.29 7.45-6.93 14.74c-2.14 4.28-6.27 9.3-6.21 14.15a1.81 1.81 0 0 0 2 1.75c9.15 2.92 19.06 4 28.56 5.14 4.79.58 9.59 1 14.41 1.38.06 4.3 2.84 9.15 4.27 12.89 2.22 5.82 4.51 11.62 6.81 17.41 4.16 10.49 8.42 20.93 12.67 31.38a44 44 0 0 0-36.61 13 2.77 2.77 0 0 0 1.21 4.59 45.76 45.76 0 0 0 42.71-9.43 2.38 2.38 0 0 0-.27-3.87 2.13 2.13 0 0 0-.08-1.47c-5-12.16-9.95-24.34-15-36.46-2.24-5.35-4.48-10.69-6.8-16-1.47-3.36-2.82-8.37-5.27-11.77 4.18.25 8.36.44 12.55.53 8.56.19 17.23.12 25.89-.32-1.19 9.21 0 19.33.17 28.46q.28 16.46.65 32.92a2.62 2.62 0 0 0 2.6 2.6c4.13-.32 33.16.45 27-10.4-2.33-4.13-9.21-4.49-13.29-4.14a26.73 26.73 0 0 0-11.36 3.69q-.28-12.34-.59-24.68c-.14-5.32-.29-10.64-.49-16a117.78 117.78 0 0 0-.65-12.73 237.85 237.85 0 0 0 30-3.76 2.21 2.21 0 0 0 1.55-1.11 1.77 1.77 0 0 0 1.18-1.68c-.2-5.63-3.6-11.41-5.76-16.56q-3.44-8.23-7-16.41-7.25-16.72-15.05-33.19a2 2 0 0 0 .22-.38 110 110 0 0 0 7-22.09l1.75 1.22c3.62 2.47 8.45 7.14 13.07 7.8a1.86 1.86 0 0 0 .18 1.2c1.87 3.72 3.9 8.79 7.6 11a.76.76 0 0 0 1.13-.65c-.12-4.3-3.57-8.5-5.94-11.93l-.07-.09c1.25.94 2.57 1.8 3.9 2.67 2.18 1.44 5.33 4.58 8.11 3.77a.49.49 0 0 0 .36-.47c-.3-2.7-3.75-4.23-5.78-5.64-1.17-.81-2.33-1.64-3.53-2.42a20.56 20.56 0 0 1 2.6.66c2.54.83 4.7 2.26 7.13 3.28 1.08.42 2.22-1.09 1.55-2.01zm-95.47 161.72a38.77 38.77 0 0 1 30.6-7.64 40 40 0 0 1-30.6 7.64zm62.08-19.73c1.67-.38 9.17-1.59 10.26.1 2.11 3.3-8.81 2.91-10.12 3-2.72.13-5.44.33-8.16.53a22.24 22.24 0 0 1 8.02-3.64zm-3.88-217.71a152.76 152.76 0 0 1 2 59c-1.79-1.26-3.59-2.52-5.36-3.8-4.48-3.24-8.91-6.54-13.35-9.84-4-3-8-6.47-12.39-9.12-1.46-2.81-3-5.79-5.27-7.89 13.46-8.78 27-22.42 29-38.85a2.78 2.78 0 0 0 .27-3.85v-2.48c.5 1.22 1 2.41 1.37 3.54 1.41 4.44 2.67 8.81 3.73 13.28zm-13.35-49c1-1.32 1.94-2.67 2.9-4a45.36 45.36 0 0 1-2.1 6.36c-.55 1.34 1 2.45 2.18 2.18l7.93-1.8a23.11 23.11 0 0 0-3.64 5.54c-.51 1.09.06 2.95 1.58 2.76a24.22 24.22 0 0 1 10.8.93 121.49 121.49 0 0 1-14.56 6.89 38.3 38.3 0 0 0-9.73-13.28 29.94 29.94 0 0 0 4.64-5.55zm-21.64 2.92c.46.12.91.24 1.37.37a32.1 32.1 0 0 1 23 30.61 26 26 0 0 1-19.62-10.61 26.91 26.91 0 0 1-4.83-12.79c-.28-2.47.12-5.04.07-7.55zM722 405.48c2.82-6.76 6.52-12.07 13.63-14.91a27.63 27.63 0 0 1 13.25-1.57 2.8 2.8 0 0 0-.17.42c-2.32 7.52-7.53 13.33-15.19 15.69-3.47 1.07-6.68.88-10.23.91a11.52 11.52 0 0 0-1.65 0 1.4 1.4 0 0 0 .36-.54zm-1.49 2.89a1.91 1.91 0 0 0 1 .89c9.65 3.83 21.4-1.28 27.57-9.67a35.9 35.9 0 0 0 5.58 14A30.83 30.83 0 0 0 777.63 426c-2.11 13.27-12.73 22.83-22.85 31-7.11 5.71-14.85 9.21-22.47 2.06-5-4.7-8.51-11.45-10.69-17.89a57 57 0 0 1-1.1-32.8zm-4.78 72a104 104 0 0 1-4-24.9 105.16 105.16 0 0 1 2.09-25.17c.07-.33.15-.67.22-1a59.37 59.37 0 0 0 2.96 13.92c2.68 7.82 7.52 16.27 13.95 21.15-.56 2.6-1.06 5.22-1.54 7.84a30 30 0 0 0-2.4 3.51c-1.8 2.62-3.51 5.3-5.35 7.89q-1.63 2.3-3.35 4.54-1.42-3.85-2.57-7.81zm4.73 12.92c1.51-2 3-3.94 4.36-6 .66-1 1.62-2.25 2.63-3.68-.7 4-1.44 8-2.32 11.94-.36 1.63-.77 3.25-1.15 4.87-.91-2.42-2.35-4.79-3.51-7.16zm83.71 85.21c1.48 3.54 2.7 7.63 4.63 11.12-19 2.4-37.84 4.25-57.08 3.83-9.59-.21-19.16-.87-28.69-1.91-8.76-1-17.43-2.76-26.16-3.84 1.87-2.88 3.14-6.46 4.52-9.23q3.83-7.7 7.26-15.58 6.83-15.66 12.14-31.92a325.29 325.29 0 0 0 8.84-33.22c2.14-10.11 4.33-20.73 4.85-31.15 5.13 2.59 11.08 2.83 17.6-1 .73 4.06 3.36 8 5.08 11.59 2.64 5.43 5.39 10.8 8.06 16.21 5.48 11.1 10.89 22.24 16.12 33.46q7.64 16.4 14.87 33 4.05 9.28 7.96 18.61zM784 520.24c-4.56-9.56-9.23-19.07-14.07-28.49-1.82-3.54-3.65-7.07-5.51-10.59 5.36 4.78 11.45 9 16.89 13.08 2.74 2 5.51 4 8.3 6-1.48 6.76-3.52 13.37-5.61 20z" fill="#634c27"/><path d="M585.83 429a3.53 3.53 0 1 0 3.53 3.53 3.57 3.57 0 0 0-3.53-3.53z" fill="#634c27"/><path d="M592.38 445.44l-.45-.29c-6.46-4.21-6.46 10.22 0 6l.45-.29a3.18 3.18 0 0 0 0-5.42z" fill="#634c27"/><path d="M595.31 467.46a3.59 3.59 0 1 0-7 1.65 3.67 3.67 0 0 0 4.42 2.51 3.61 3.61 0 0 0 2.58-4.16z" fill="#634c27"/><path d="M846.55 504.12s-17.3 16.73-12.15 28.88 20.53 15.06 35.91 2.27 22.32-21.79 28.34-27.93 47.16-18.69 61.08-18.6 17.41-22.94 4.66-25.56-41.69-21.91-56.86-16.18-68.15 44.48-67.25 47 6.27 10.12 6.27 10.12z" fill="#c6a271"/><path d="M949.79 477.9c-.84.18-43.69 27.69-46.67 34.75S885.7 562.28 887.17 569s10.55 25 24.58 12.64 15.38-43.76 17.85-46.22 49.74-15.77 56.27-20.24-36.08-37.28-36.08-37.28z" fill="#bc9864"/><path d="M972.89 513.77c-1.5.41-39.26 20.85-40.76 26.5s-9.62 51.22-.91 58 20.59 14.82 24.41-1 5.52-41.27 5.52-41.27l13.75-3.39s-5.42 27.81-5.06 44.86 13.14 25.21 14.57 25.37 46.41-25 47.81-47.79 6.72-51.84-10-57.8-21.76-13.21-32.37-14.4a52.63 52.63 0 0 0-20.33 2.15z" fill="#bc9864"/><path d="M1101.57 942.27s-63.24-133.44-81.26-148.63S959.07 784 921 733.1s-32.53-57.1-58.1-87.94-79.22-75.26-68.06-91.54 36.54-17.81 68.22-2.17 33.38 39.39 48.47 46.58 24.8 28 47.3 22.87 42.62-38.86 35.79-70.65-10.71-35.06-20.38-46.56-38.13-41-40.54-39.1-44.59 50.33-74.91 46.92-50-8.38-34.19-22.49 103.69-102.87 122.27-97.49 132.07 53.81 148.84 60.63 38.9 9.87 49.77 20.41 10.43 19.27 16 23.73 24.32 22.48 28 43.17 21.51 164.13 25.42 197.46 11.22 56.08 25.2 77.94 28.63 37.76 26.76 39.74-165.29 87.66-165.29 87.66z" fill="#e8c68b"/><path d="M762.49 535.5s-10.84 7-11.16 8.78 14.46 2.29 14.46 2.29l12-1-3.22-10.81z" fill="#5d933e"/><path fill="#45752c" d="M1286.082 362.274l4.714 15.822-479.819 142.95-4.714-15.823z"/><path fill="#5d933e" d="M1290.795 378.082l4.714 15.822-479.819 142.95-4.714-15.823z"/><path fill="#7ab554" d="M1295.508 393.902l4.714 15.823-479.818 142.95-4.714-15.824z"/><path fill="#b79253" d="M806.28 505.23l-43.79 30.27 7.63 6.34-5.27 1.57 6.21 1.59-5.27 1.57 54.63 6.11-14.14-47.45z"/><path d="M151.61 391.3s-4.56 10.61-3.89 12.12 11.89-5.55 11.89-5.55l8.44-6.79-7.81-6.41z" fill="#ef628e"/><path fill="#c6396c" d="M453.706-.016l11.432 9.384L180.423 356.23l-11.432-9.384z"/><path fill="#ef628e" d="M465.143 9.374l11.432 9.383-284.714 346.864-11.432-9.384z"/><path fill="#ff97bd" d="M476.578 18.76l11.432 9.384-284.714 346.863-11.432-9.383z"/><path fill="#b79253" d="M168.96 346.85l-17.35 44.45 8.84.88-3.13 3.81 5.42-1.93-3.13 3.81 43.65-22.86-34.3-28.16z"/><path d="M209.15 402.6s-5.31 10.26-4.75 11.81 12.26-4.68 12.26-4.68l8.91-6.16-7.33-7z" fill="#3f93d8"/><path fill="#1c73ad" d="M538.504 33.933l10.73 10.18-308.842 325.565-10.73-10.179z"/><path fill="#3f93d8" d="M549.233 44.114l10.73 10.179L251.12 379.858l-10.73-10.179z"/><path fill="#8accf9" d="M559.978 54.3l10.73 10.18-308.842 325.565-10.73-10.179z"/><path fill="#b79253" d="M229.64 359.5l-20.49 43.1 8.76 1.51-3.39 3.58 5.54-1.54-3.4 3.58 45.18-19.68-32.2-30.55z"/><path d="M291.24 396s-5.74 10-5.25 11.6 12.45-4.16 12.45-4.16l9.16-5.78-7-7.26z" fill="#f79c39"/><path fill="#bc6611" d="M636.02 41.655l10.287 10.627-322.422 312.122-10.287-10.627z"/><path fill="#f79c39" d="M646.31 52.282l10.287 10.627L334.174 375.03l-10.287-10.627z"/><path fill="#fcb670" d="M656.548 62.979l10.285 10.628-322.477 312.066-10.286-10.628z"/><path fill="#b79253" d="M313.55 353.77l-22.31 42.19 8.68 1.88-3.54 3.43 5.6-1.3-3.54 3.43 45.97-17.73-30.86-31.9z"/><path d="M6.26 324.48S-.34 334 0 335.57s12.77-3 12.77-3l9.63-5-6.4-7.85z" fill="#f23d3d"/><path fill="#af1b1b" d="M380.778 1.828l9.314 11.489-348.597 282.59-9.313-11.49z"/><path fill="#f23d3d" d="M390.094 13.32l9.313 11.489-348.596 282.59-9.314-11.49z"/><path fill="#f97d7d" d="M399.4 24.807l9.315 11.49-348.597 282.59-9.313-11.49z"/><path fill="#b79253" d="M32.18 284.42L6.26 324.48l8.49 2.64-3.83 3.11 5.69-.81-3.83 3.11 47.35-13.63-27.95-34.48z"/><path d="M795.46 553.89S800 542.74 818 540.66s40.12 8.47 40.12 8.47l-40.12 19z" fill="#e8c68b"/><path d="M73.79 503.94c10.44 13.42-4.17 81.14-5 92.41s-3.7 59.93.87 61.75 12.06-3.16 14.68-11.76 9.23-95 14.57-122.38 12.38-88.47 36.71-87c11.77.69 17.86 6.54 21 12.4-1.58 10.26-2.62 20.64-3.91 30.93-4.79 38.32-8.62 76.79-13.17 115.16A211.75 211.75 0 0 0 134.6 620a165.3 165.3 0 0 0-2.19 29.77 3.22 3.22 0 0 0 6.43.17c1.41-15.91 3.42-31.78 5.26-47.65q4.91-42.4 9.94-84.78c1.66-14 3.36-28 4.9-42 .68-6.2 1.44-12.4 2.08-18.6 2.3-9.3 9.27-28.08 27.25-22 23.6 8 19.67 44.84 17.39 70.61s-7.66 87-9.56 107.34 5.08 35.27 12.18 30.17 21-73.45 28-99.09 26-105.24 57-93.27 21.46 48.79 15.61 76.48-16.53 68.42-21.75 95.44-26.85 88.33-5 104.81 62.93-34.24 95.28-52.16 54.31 1.14 53.8 11.23-24.91 39.82-56.24 67-57.46 79.46-78.45 106.38-61.16 52.29-79.67 65.45-33.49 62.41-33.49 62.41L4.71 933.41s1.7-4.18 3.61-14.7 6.05-49.4 5-82.58 1.43-111.44 4.83-153.53 15.52-135.33 21.6-159.53 23.6-32.55 34.04-19.13z" fill="#e8c68b"/><path d="M154 517.53q-5 42.39-9.94 84.78c-1.84 15.87-3.85 31.74-5.26 47.65a3.22 3.22 0 0 1-6.43-.17A165.3 165.3 0 0 1 134.6 620a211.75 211.75 0 0 1 4.92-24.63c4.55-38.37 8.38-76.84 13.17-115.16 1.29-10.3 2.33-20.67 3.91-30.93a29.71 29.71 0 0 1 3.4 12.56s.26-2 1-4.9c-.64 6.2-1.4 12.4-2.08 18.6-1.53 14.01-3.23 28-4.92 41.99z" fill="#bc9864"/></g></g></svg>