<svg xmlns="http://www.w3.org/2000/svg" viewBox="0 0 191.61000061035156 210.65000915527344"><defs><clipPath id="a"><path d="M149.69 182.28L147 132.5l.11.09-.35-6.24s.86-4-3-20.34l-.07.12C141 94.62 135.92 77 126.52 50.26l-23.68-12.6-2.24-8.06H69.25L67 37.66l-23.67 12.6C34 76.91 28.9 94.51 26.18 106v.07c-.23 1-.44 1.87-.63 2.74l-.06.26q-.28 1.26-.52 2.4v.16c-1.72 8.32-1.88 12.26-1.83 13.83v.81l-.35 6.24-2.49 49.72h.7l-.15 4.54h16.44l.15-4.55h.36l3-53.92s5-7.05 9.07-32.75c.12-.77.23-1.54.32-2.3-.09.78-.19 1.56-.32 2.3l-3.53 87.17s22.17 4 27.71 4c3.78 0 7.78.23 10.12-2.49 2.71 3 7.65 2.49 11.6 2.49 5.54 0 27.71-4 27.71-4L120 95.61c-.13-.74-.24-1.51-.32-2.3.1.76.2 1.52.32 2.3 4 25.7 9.07 32.75 9.07 32.75l3 53.92h.36l.15 4.55H149l-.15-4.54z" fill="none"/></clipPath><clipPath id="b"><path d="M169.52 140.13v-8.9c0-3.49-2.18-6.31-4.87-6.31H139.7c-2.69 0-4.87 2.83-4.87 6.31v8.9h-22.1v59.71h78.88v-59.71zm-28.4-8.92h22.1v8.92h-22.1z" fill="none"/></clipPath></defs><title>Depositphotos_43453505_01</title><g data-name="Layer 2"><g data-name="Layer 1" style="isolation:isolate"><path fill="#9ee2e6" d="M20.83 186.81l16.46.02.2-6.33-16.45.03-.21 6.28z"/><path d="M43.33 50.26a78.21 78.21 0 0 1 6.55 45.35c-4 25.7-9.07 32.75-9.07 32.75l-3 53.92H20.38l2.8-55.93s-2.52-11.59 20.15-76.09z" fill="#fff"/><path fill="#004b66" d="M84.92 38.73l-17.9-1.07v1.52l17.86 62.48h.09l17.86-62.48v-1.52l-17.91 1.07z"/><path fill="#fff" d="M82.21 37.66h5.64v62.54h-5.64z"/><path fill="#fff" d="M102.83 37.66l-2.23-8.06-15.63 10.08 4.76 7.56 13.1-9.58z"/><path fill="#fff" d="M67.02 37.66l2.23-8.06 15.63 10.08-4.76 7.56-13.1-9.58z"/><path fill="#004b66" d="M69.25 29.6h31.35L84.88 39.68 69.25 29.6z"/><path d="M67 37.66l-23.67 12.6S52.91 79 49.88 95.61l-3.53 87.17s22.17 4 27.71 4 11.59.5 12.09-8.57c.52-9.31 2-9 1.74-76.59z" fill="#fff"/><path fill="#9ee2e6" d="M67.02 37.66l-5.55 19.15 13.43 5.01-7.88-24.16z"/><path fill="#9ee2e6" d="M87.9 101.66L62.59 65.38l12.31-3.56 13 39.84z"/><circle cx="84.88" cy="45.63" r="1.61" fill="#004b66"/><circle cx="84.88" cy="57.82" r="1.61" fill="#004b66"/><circle cx="84.88" cy="70.01" r="1.61" fill="#004b66"/><circle cx="84.88" cy="82.2" r="1.61" fill="#004b66"/><circle cx="23.56" cy="184.55" r="1.51" fill="#004b66"/><path fill="#9ee2e6" d="M149.01 186.81l-16.45.02-.2-6.33 16.45.03.2 6.28z"/><circle cx="146.29" cy="184.55" r="1.51" fill="#004b66"/><path d="M23.18 126.35l-.35 6.24s13.91-10.4 3.35-26.59c-3.86 16.34-3 20.35-3 20.35z" fill="#9ee2e6"/><path d="M54.44 160.77v-13.29H74v13.29s.64 4.38-9.76 4.38-9.8-4.38-9.8-4.38z" fill="#9ee2e6"/><g clip-path="url(#a)"><path style="mix-blend-mode:multiply" fill="#c6e9f0" d="M0 0h84.88v194.62H0z"/></g><path fill="#004b66" d="M54.44 142.98h19.52v4.6H54.44z"/><path d="M126.52 50.26A78.2 78.2 0 0 0 120 95.61c4 25.7 9.07 32.75 9.07 32.75l3 53.92h17.64l-3-55.93s2.48-11.59-20.19-76.09z" fill="#fff"/><path d="M146.77 126.35l.35 6.24s-13.91-10.39-3.35-26.58c3.86 16.33 3 20.34 3 20.34z" fill="#9ee2e6"/><path d="M102.83 37.66l23.68 12.6S116.94 79 120 95.61l3.53 87.17s-22.17 4-27.71 4-13.07 1-13.57-8.06-.26-77.09-.26-77.09z" fill="#fff"/><path fill="#9ee2e6" d="M102.83 37.66l4.04 19.15-11.92 5.01 7.88-24.16z"/><path fill="#9ee2e6" d="M81.95 101.66l23.8-36.28-10.8-3.56-13 39.84z"/><path d="M115.5 160.77v-13.29H96v13.29s-.64 4.38 9.75 4.38 9.75-4.38 9.75-4.38z" fill="#9ee2e6"/><path fill="#004b66" d="M95.98 142.98h19.52v4.6H95.98z"/><circle cx="85.03" cy="107.61" r="1.61" fill="#004b66"/><circle cx="85.03" cy="120.9" r="1.61" fill="#004b66"/><circle cx="85.03" cy="134.19" r="1.61" fill="#004b66"/><circle cx="85.03" cy="147.48" r="1.61" fill="#004b66"/><circle cx="85.03" cy="160.77" r="1.61" fill="#004b66"/><circle cx="85.03" cy="174.06" r="1.61" fill="#004b66"/><path d="M50 95.61s0-34.77-6.7-45.35l-.94 2.68S47.44 63.11 50 95.61z" style="mix-blend-mode:multiply" fill="#c6e9f0"/><path d="M119.81 95.61s0-34.77 6.7-45.35l.94 2.68s-5.04 10.17-7.64 42.67z" style="mix-blend-mode:multiply" fill="#c6e9f0"/><path d="M164.65 124.91H139.7c-2.69 0-4.87 2.83-4.87 6.31V146c0 3.49 2.18 6.31 4.87 6.31h24.95c2.69 0 4.87-2.83 4.87-6.31v-14.78c0-3.48-2.18-6.31-4.87-6.31zM163.22 146h-22.1v-14.79h22.1z" fill="#141413"/><path fill="#003440" d="M112.73 140.13h78.88v59.71h-78.88z"/><path fill="#004b66" d="M112.73 140.13h78.88v23.7h-78.88z"/><g clip-path="url(#b)"><path style="mix-blend-mode:multiply" fill="#a5d5de" d="M112.73 117.84h39.44v82h-39.44z"/></g><path fill="#d1d3d4" d="M162.28 58.01L178.74 80l.55 7.16-7.35-.96-11.15-14.37 1.49-13.82z"/><path fill="#f1f2f2" d="M158.58 32.35h-7.31l2.9 11.08h8.82l2.89-11.08h-7.3z"/><path fill="#fff" d="M162.99 43.43h-8.82l-7.05 56.91 11.46 21.92 11.46-21.92-7.05-56.91z"/><path style="mix-blend-mode:multiply" fill="#bcbec0" opacity=".5" d="M158.58 32.35v89.91l-11.46-21.92 7.05-56.91-2.9-11.08h7.31z"/><path d="M44.07 202.83v3.44s28.43 4.38 58.41-3.28v-7.31z" fill="#003440"/><path fill="#003440" d="M101.73 198.46h20.96v6.44h-20.96z"/><path d="M44.07 202.83s-1.93-7.72 5.41-8.29S65 194 71.23 190 87 179 87 179s18.08 9.32 32.48 0c0 0 3.67 4.24 3.11 20.62h-20.9a160.39 160.39 0 0 1-57.62 3.21z" fill="#fff"/><path d="M122.63 199.62c.56-16.38-3.11-20.62-3.11-20.62-14.4 9.32-32.48 0-32.48 0s-6.49 4.77-12.25 8.67c4.41 1.86 10.92 5.81 16.93 14 6.32-1.08 10-2.12 10-2.12z" fill="#004b66"/><path d="M87 182.13a2.35 2.35 0 1 0 2.22 2.48 2.35 2.35 0 0 0-2.22-2.48zm-.2 3.67a1.32 1.32 0 1 1 1.39-1.25 1.32 1.32 0 0 1-1.4 1.25z" fill="#003440"/><path d="M82.76 185a2.35 2.35 0 1 0 2.24 2.45 2.36 2.36 0 0 0-2.24-2.45zm-.2 3.67a1.32 1.32 0 1 1 1.39-1.25 1.32 1.32 0 0 1-1.4 1.22z" fill="#003440"/><path d="M78.64 188.16a2.35 2.35 0 1 0 2.22 2.48 2.35 2.35 0 0 0-2.22-2.48zm-.2 3.67a1.32 1.32 0 1 1 1.39-1.25 1.32 1.32 0 0 1-1.39 1.26z" fill="#003440"/><path d="M75.48 186.58a.56.56 0 0 1 .8.16 9.9 9.9 0 0 0 3.07 3.53.56.56 0 0 1 .05.82.67.67 0 0 1-.89.19 10.78 10.78 0 0 1-3.34-3.83.67.67 0 0 1 .31-.86z" fill="#49879e"/><path d="M79.64 183.38a.56.56 0 0 1 .8.18 9.89 9.89 0 0 0 3 3.6.56.56 0 0 1 0 .82.68.68 0 0 1-.9.16 10.75 10.75 0 0 1-3.25-3.91.67.67 0 0 1 .33-.85z" fill="#49879e"/><path d="M83.6 180.64a.56.56 0 0 1 .81.13 9.92 9.92 0 0 0 3.22 3.39.56.56 0 0 1 .09.81.67.67 0 0 1-.88.22 10.74 10.74 0 0 1-3.5-3.68.67.67 0 0 1 .27-.87z" fill="#49879e"/><path fill="#9ee2e6" d="M124.49 161.06h9.07v9.07h-9.07z"/><path fill="#004b66" d="M126.27 162.83h5.51v5.51h-5.51z"/><path fill="#9ee2e6" d="M170.78 161.06h9.07v9.07h-9.07z"/><path fill="#004b66" d="M172.56 162.83h5.51v5.51h-5.51z"/></g></g></svg>