<svg xmlns="http://www.w3.org/2000/svg" viewBox="-0.12248754501342773 -0.7899999618530273 197.48423767089844 266.3800048828125"><title>Depositphotos_117005002_06</title><g data-name="Layer 2"><g data-name="Layer 20"><path fill="#f4a978" d="M15.85 150.93h165.47v112.6H15.85z"/><path fill="#fff" d="M176.89 150.93v19.21h2.33v3.17l-2.33.12v90.11h4.43V150.93h-4.43z"/><path fill="#d1805d" d="M16.21 150.93h6.3v112.6h-6.3z"/><path d="M181.32 265.59H15.85a2.05 2.05 0 0 1-2.05-2.05V150.93a2.05 2.05 0 0 1 2.05-2.05h165.47a2.05 2.05 0 0 1 2.05 2.05v112.6a2.05 2.05 0 0 1-2.05 2.06zM17.9 261.48h161.37V153H17.9z" fill="#7d2681"/><path d="M172.17 150.44c-4.28-36.23-25.33-63.63-72.18-63.63s-67.89 27.4-72.17 63.63z" fill="#fff"/><path d="M27.84 150.2c3.5.63 7 1.23 10.51 1.68 3.25-29 16.12-52.66 42.63-63.34-33.58 6.52-49.43 30.87-53.14 61.66z" fill="#e4c9d1"/><path d="M64.57 104.83c2.8 9.84 8.12 11.57 13.61 12 4.13.3 8.27-.11 12.29 2 4.81 2.48 8.9 8.3 13.79 10.45 3.25 1.43 7 1.88 10.15-.69 2.12-1.74 3.24-4.56 4.68-7.74 2.34-5.17 4.78-7.88 8.24-9.63 4.8-2.42 8.2-6.06 10.08-13.9-10.77-6.77-23.5-10.51-38.41-10.51-13.83 0-25.79 3.18-36 9a53.46 53.46 0 0 0 1.57 9.02z" fill="#ec7493"/><path d="M172.24 153a2.05 2.05 0 0 1-2-1.82c-1.85-16.29-7.23-30.22-15.56-40.29C135 87.17 99.94 84.51 73.87 92.39c-24.09 7.27-40.54 29-44 58.15a2.05 2.05 0 0 1-4.07-.48c3.65-30.81 21.2-53.84 46.88-61.6 27.38-8.26 64.32-5.35 85.12 19.8 8.84 10.69 14.54 25.36 16.48 42.44a2.05 2.05 0 0 1-1.81 2.27z" fill="#7d2681"/><path d="M97.33 108a1.64 1.64 0 0 1-1.08-2.88l7.41-6.46a1.64 1.64 0 1 1 2.16 2.48l-7.41 6.46a1.64 1.64 0 0 1-1.08.4z" fill="#7d2681"/><path d="M104.74 108a1.64 1.64 0 0 1-1.08-.4l-7.41-6.46a1.64 1.64 0 1 1 2.16-2.48l7.41 6.46a1.64 1.64 0 0 1-1.08 2.88z" fill="#7d2681"/><path d="M163.7 21.31l-.15-.45c.05.14.1.29.15.45z" fill="#fff"/><path d="M163.27 19.8l-.06-.29z" fill="#fff"/><path d="M179.73 11.09c.27.22.52.46.77.7-.24-.25-.5-.48-.77-.7z" fill="#fff"/><path d="M163.55 20.85q-.16-.52-.28-1.05c.09.36.18.71.28 1.05z" fill="#cd5b83"/><path d="M163.21 19.51a10.12 10.12 0 0 1-.18-1.2 10.06 10.06 0 0 0 .18 1.2z" fill="#cd5b83"/><path d="M163.87 21.8l-.17-.5z" fill="#cd5b83"/><path d="M180.51 11.79l.08.08z" fill="#cd5b83"/><path d="M183.37 9.46c-3.29-7-11.58-10.25-17.72-4.36A8.63 8.63 0 0 0 163 12c.37 4.71 4.28 8.07.56 12.46-2.66 2.23-6.93 3.19-10.31 3.5a80.59 80.59 0 0 1-11.05-.07c-2.37-.12-4.81-.24-7.31-.25-10-.05-18.94 1.72-26.5 5.28-10.51 5-17.14 16.06-18.71 27.36-1.39 10 1.6 20.71 5 30 0 .08 1.83 1.1 4 2.32 1.51-.2 3-.44 4.52-.78 1.66-1.66 1.9-3.92.79-6.94-3-8.17-6.07-18.61-2.13-27 4.07-8.65 14.6-12.52 23.37-13.26 9.9-.83 19.64 1.27 29.54.38 6.84-.62 18.85-3 25.36-10.68a24.27 24.27 0 0 0 3.24-24.86z" fill="#ec7493"/><path d="M165.06 21.62c.45-2.08-.44-4-1.19-6.16.74 2.13 1.64 4.08 1.19 6.16z" fill="#fff"/><path d="M169 7.94a8.63 8.63 0 0 0-2.61 6.86c.23 2.95 1.85 5.37 2.12 7.84a24.71 24.71 0 0 0 16.9-3.9 22.56 22.56 0 0 0-2.06-9.29 14.06 14.06 0 0 0-2.79-3.94c.25.25.5.52.74.79A9.94 9.94 0 0 0 169 7.94z" fill="#fff"/><path d="M111.82 35.72c7.55-3.56 16.47-5.33 26.5-5.28 2.5 0 4.95.14 7.31.25a80.59 80.59 0 0 0 11.05.07c3.38-.3 7.65-1.27 10.31-3.5a5.81 5.81 0 0 0 1.55-4.62 14.53 14.53 0 0 1-3.48-1 6.38 6.38 0 0 1-1.46 2.8c-2.66 2.23-6.93 3.19-10.31 3.5a80.59 80.59 0 0 1-11.05-.07c-2.37-.12-4.81-.24-7.31-.25-10-.05-18.94 1.72-26.5 5.28-10.51 5-17.14 16.06-18.71 27.36-1.39 10 1.6 20.71 5 30 0 .07 1.31.81 3 1.77-3.27-9.08-6-19.32-4.65-29 1.6-11.25 8.23-22.36 18.75-27.31z" fill="#cd5b83"/><path d="M168.54 22.65c-.27-2.48-1.89-4.9-2.12-7.84A8.63 8.63 0 0 1 169 7.94a9.94 9.94 0 0 1 12.28-1.63c-.24-.28-.48-.54-.74-.79l-.08-.08c-.25-.25-.51-.48-.77-.7h-.06a11.84 11.84 0 0 0-3.49-2l-.31-.11c-.23-.08-.47-.14-.7-.2l-.44-.1-.65-.11-.54-.05h-1.37l-.57.05a9.39 9.39 0 0 0-.94.16l-.43.12c-.25.07-.5.15-.75.24l-.45.18q-.37.16-.73.35l-.43.24c-.26.15-.51.32-.76.5l-.36.25a12.46 12.46 0 0 0-1.09.93A8.63 8.63 0 0 0 163 12a10.13 10.13 0 0 0 .18 1.2l.06.29c.08.36.17.71.28 1.05l.15.45.17.5c.75 2.14 1.64 4.09 1.19 6.16a14.53 14.53 0 0 0 3.51 1z" fill="#e4c9d1"/><path d="M183.37 9.46c-2-4.2-5.81-7-9.87-7.36a13.67 13.67 0 0 1 4.68 5.5c4.57 7.53 4.89 17.75-.66 24.33-6.5 7.71-21.05 10.61-27.89 11.23-9.9.89-19.64-1.22-29.54-.38-8.78.74-17.91 4.1-22 12.75-3.94 8.38-1.62 19.64 1.4 27.8 1.43 3.87 0 6.2-3.2 7.89l2.42 1.38c1.48-.2 3-.43 4.43-.76 1.71-1.66 2-3.92.88-7-3-8.17-6.07-18.61-2.13-27 4.07-8.65 14.6-12.52 23.37-13.26 9.9-.83 19.64 1.27 29.54.38 6.84-.62 18.85-3 25.36-10.68a24.27 24.27 0 0 0 3.21-24.82z" fill="#fff"/><path d="M99.19 95.3a6.53 6.53 0 0 1-6.37-4.3c-2-6.1-6.46-21.32-5.12-31 1.78-13 9.39-24 19.85-29 7.83-3.69 17-5.53 27.38-5.48 2.5 0 4.93.13 7.29.25a79.44 79.44 0 0 0 10.88.08c3.87-.35 7.16-1.41 9-2.91 1.5-1.86 1.11-3.19.11-5.93a18.27 18.27 0 0 1-1.21-4.89 10.75 10.75 0 0 1 3.24-8.5A12 12 0 0 1 174.91.2a14.66 14.66 0 0 1 10.32 8.38 26.33 26.33 0 0 1-3.48 27.08c-7.41 8.78-21.17 10.9-26.74 11.4a98.5 98.5 0 0 1-15.22-.17 97.43 97.43 0 0 0-14.33-.2c-8.06.68-18 4.21-21.69 12.09-3.54 7.53-.88 17.07 2.2 25.4 1.84 5.82-.9 9.57-4.42 10.74a7.44 7.44 0 0 1-2.36.38zm-2.49-5.68a2.71 2.71 0 0 0 3.54 1.4c2-.68 2.71-2.74 1.83-5.52-3.34-9-6.22-19.58-2-28.48 4.45-9.46 15.86-13.66 25.06-14.43a101.15 101.15 0 0 1 14.93.2 95.91 95.91 0 0 0 14.6.18c5.07-.46 17.55-2.34 24-10 5-5.91 6.23-15.65 2.9-22.68a10.7 10.7 0 0 0-7.35-6.1 7.94 7.94 0 0 0-7.09 2.35 6.6 6.6 0 0 0-2 5.22 14.59 14.59 0 0 0 1 3.82c1 2.8 2.3 6.29-.94 10.13a1.94 1.94 0 0 1-.25.25c-3.41 2.86-8.64 3.71-11.45 4a81.69 81.69 0 0 1-11.32-.06c-2.44-.12-4.83-.24-7.24-.26-9.73 0-18.33 1.66-25.61 5.09-9.23 4.35-15.96 14.27-17.56 25.79-1.22 8.78 3.05 23.25 4.95 29.1z" fill="#7d2681"/><path d="M80.31 186.79a32.87 32.87 0 0 0-8.83 8.83 32.87 32.87 0 0 1 8.83-8.83z" fill="#fff"/><path d="M69.58 228.94a32.67 32.67 0 0 0 1.72 3 32.69 32.69 0 0 1-1.72-3z" fill="#fff"/><path d="M101.51 181.35a32.7 32.7 0 0 0-27.29 20.08 22.18 22.18 0 0 1 12.83 10.31c5.51 9.71 6.6 21.56 5.49 32.59a32.54 32.54 0 0 0 9 2.1c-1 .09-1.94.15-2.93.15a32.56 32.56 0 0 1-11-1.93 32.67 32.67 0 1 0 13.9-63.3z" fill="#fff"/><path d="M87.61 244.66a32.56 32.56 0 0 0 11 1.93c1 0 2-.06 2.93-.15a32.54 32.54 0 0 1-9-2.1c0 .47-.09.94-.15 1.4a83.98 83.98 0 0 1-4.78-1.08z" fill="#fff"/><path d="M101.51 181.35c-1-.09-1.94-.15-2.93-.15a32.54 32.54 0 0 0-18.28 5.58 32.07 32.07 0 0 0-11.41 13.49 29.2 29.2 0 0 1 5.33 1.16 32.7 32.7 0 0 1 27.29-20.08z" fill="#e4c9d1"/><path d="M67.34 204.28l.07-.22z" fill="#fff"/><path d="M69.58 228.94a32.69 32.69 0 0 0 1.72 3 4.76 4.76 0 0 0-1.72-3z" fill="#fff"/><path d="M71.3 231.89a5.58 5.58 0 0 1 .1.69c.35 6.22 8 9.94 16.21 12.08a32.75 32.75 0 0 1-16.31-12.77z" fill="#ec7493"/><path d="M68.56 200.22c0 .1 0 .2-.06.31-.35 1.19-.72 2.36-1.09 3.53a32.39 32.39 0 0 1 1.49-3.78z" fill="#ec7493"/><path fill="#d1805d" d="M19.36 170.14v11.21l157.53-7.92v-3.29H19.36z"/><path fill="#e4c9d1" d="M179.22 170.14h-2.33v3.29l2.33-.12v-3.17z"/><path d="M65.89 213.89a32.67 32.67 0 0 1 1.44-9.62c-.86 2.72-1.72 5.41-2.34 8.13a4.9 4.9 0 0 1 .6 2.42 41 41 0 0 0 1.68 13 5.48 5.48 0 0 1 2.3 1.07c-.4-.76-.78-1.53-1.12-2.32a32.58 32.58 0 0 1-2.56-12.68z" fill="#ec7493"/><path d="M68.46 226.62c.34.79.72 1.56 1.12 2.32-.39-.76-.78-1.53-1.12-2.32z" fill="#ec7493"/><path d="M92.54 244.33c1.11-11 0-22.88-5.48-32.59a22.18 22.18 0 0 0-12.83-10.31 32.65 32.65 0 0 0 18.32 42.9z" fill="#ec7493"/><path d="M71.3 231.89a32.75 32.75 0 0 0 16.31 12.77 32.75 32.75 0 0 1-16.31-12.77z" fill="#ec7493"/><path d="M68.46 226.62c.34.79.72 1.56 1.12 2.32a4.76 4.76 0 0 1 1.72 3 32.75 32.75 0 0 0 16.31 12.77c1.59.41 3.2.78 4.78 1.08l.15-1.4a32.65 32.65 0 0 1-18.32-42.9 29.2 29.2 0 0 0-5.33-1.16 32.39 32.39 0 0 0-1.49 3.78l-.07.22a32.78 32.78 0 0 0 1.13 22.34z" fill="#cd5b83"/><path d="M128.85 200.25c-7.73.89-14.52 4.42-18.53 11.49-6 10.56-6.77 23.66-5.16 35.48h.2a59.14 59.14 0 0 0 19-11.85 4.59 4.59 0 0 1 2.37-3.37c3.46-2 3.93-9 4.41-12.62a51.74 51.74 0 0 0 .3-9.79c-.77-3.15-1.75-6.22-2.59-9.34z" fill="#ec7493"/><path d="M91.82 221.6c0-2.14 3.07-5.43 6.86-5.43s6.86 3.29 6.86 5.43-13.72 2.14-13.72 0z" fill="#7d2681"/><path d="M98.68 219.33a1.64 1.64 0 0 1-1.68-1.64v-4.58a1.64 1.64 0 1 1 3.29 0v4.58a1.64 1.64 0 0 1-1.61 1.64z" fill="#7d2681"/><circle cx="117.17" cy="220.16" r="5.7" transform="rotate(-45 117.163 220.16)" fill="#fff"/><circle cx="117.17" cy="220.16" r="3.94" transform="rotate(-45 117.163 220.16)" fill="#7d2681"/><circle cx="114.46" cy="217.45" r="1.92" transform="rotate(-45 114.457 217.44)" fill="#fff"/><circle cx="80.19" cy="220.16" r="5.7" transform="rotate(-45 80.194 220.162)" fill="#fff"/><circle cx="80.19" cy="220.16" r="3.94" transform="rotate(-45 80.194 220.162)" fill="#7d2681"/><circle cx="77.48" cy="217.45" r="1.92" transform="rotate(-45 77.476 217.438)" fill="#fff"/><path fill="#ffb992" d="M181.32 150.93H15.85L2.05 169.7h193.07l-13.8-18.77z"/><path d="M98.58 248.63a34.74 34.74 0 1 1 34.74-34.74 34.78 34.78 0 0 1-34.74 34.74zm0-65.38a30.64 30.64 0 1 0 30.64 30.64 30.67 30.67 0 0 0-30.64-30.63z" fill="#7d2681"/><path d="M181.32 153H17.63a2.05 2.05 0 1 1 0-4.1h163.69a2.05 2.05 0 0 1 0 4.1z" fill="#7d2681"/><path d="M195.12 171.75H2.05a2.05 2.05 0 0 1-1.65-3.26l13.79-18.77a2.05 2.05 0 0 1 3.31 2.43l-11.39 15.5h185l-11.39-15.5a2.05 2.05 0 0 1 3.31-2.43l13.8 18.77a2.05 2.05 0 0 1-1.65 3.27z" fill="#7d2681"/><path d="M72.16 132.59l-25.31-8.3a55.34 55.34 0 0 0-2.74 33.52c1.16 4.72 3.33 10.7 7.33 13.81 4.71 3.67 11.28 1.39 13.47-3.93 1.55-3.76 1.58-8.54 1.18-12.48-2.09-18.34 6.07-22.62 6.07-22.62z" fill="#fff"/><path d="M56.6 175.46a10.43 10.43 0 0 1-6.42-2.22c-3.61-2.81-6.32-7.83-8.06-14.94A57.66 57.66 0 0 1 45 123.49a2.05 2.05 0 0 1 3.79 1.59 53.39 53.39 0 0 0-2.64 32.23c1.5 6.1 3.78 10.49 6.59 12.68a6.25 6.25 0 0 0 5.55 1.14A7.23 7.23 0 0 0 63 166.9c1.46-3.55 1.37-8.2 1-11.48-2.19-19.49 6.77-24.45 7.16-24.65a2.05 2.05 0 1 1 1.91 3.63s-6.83 4.12-5 20.58c.39 3.76.47 9.14-1.32 13.49a11.35 11.35 0 0 1-7.51 6.64 10.58 10.58 0 0 1-2.64.35z" fill="#7d2681"/><circle cx="50.69" cy="162.62" r="2.07" fill="#7d2681"/><circle cx="53.68" cy="167.11" r="2.04" fill="#7d2681"/><circle cx="61.42" cy="164.68" r="1.55" fill="#7d2681"/><circle cx="56.86" cy="161.06" r="3.62" fill="#7d2681"/><circle cx="58.6" cy="167.96" r="1.74" fill="#7d2681"/><path d="M128.24 132.59l25.31-8.3a55.34 55.34 0 0 1 2.74 33.52c-1.16 4.72-3.33 10.7-7.33 13.81-4.71 3.67-11.28 1.39-13.47-3.93-1.55-3.76-1.58-8.54-1.18-12.48 2.06-18.34-6.07-22.62-6.07-22.62z" fill="#fff"/><path d="M143.8 175.46a10.55 10.55 0 0 1-2.7-.35 11.36 11.36 0 0 1-7.52-6.64c-1.79-4.34-1.71-9.72-1.32-13.47 1.85-16.48-4.95-20.58-5-20.62a2.07 2.07 0 0 1-.79-2.78 2 2 0 0 1 2.74-.84c.38.2 9.34 5.16 7.15 24.67-.33 3.26-.43 7.92 1 11.46a7.23 7.23 0 0 0 4.77 4.24 6.28 6.28 0 0 0 5.57-1.13c2.82-2.19 5.1-6.58 6.59-12.68a53.38 53.38 0 0 0-2.64-32.23 2.05 2.05 0 1 1 3.79-1.59 57.64 57.64 0 0 1 2.84 34.8c-1.74 7.11-4.46 12.14-8.06 14.94a10.42 10.42 0 0 1-6.42 2.22z" fill="#7d2681"/><circle cx="149.69" cy="162.62" r="2.07" fill="#7d2681"/><circle cx="146.7" cy="167.11" r="2.04" fill="#7d2681"/><circle cx="138.96" cy="164.68" r="1.55" fill="#7d2681"/><circle cx="143.52" cy="161.06" r="3.62" fill="#7d2681"/><circle cx="141.78" cy="167.96" r="1.74" fill="#7d2681"/><path d="M147 203.45v18.83a10.79 10.79 0 0 0 9 10.6v18.33h-4.24a1.61 1.61 0 1 0 0 3.21h11.83a1.61 1.61 0 0 0 0-3.21h-4.19v-18.33a10.79 10.79 0 0 0 9.08-10.61v-18.82z" fill="#7d2681"/></g></g></svg>