<svg xmlns="http://www.w3.org/2000/svg" viewBox="-0.8199992179870605 -0.039999961853027344 213.00001525878906 203.01995849609375"><title>Depositphotos_69162097_02</title><g data-name="Layer 2"><g data-name="Layer 4"><path d="M127.27 152a32.85 32.85 0 0 0 14 11.57 1.63 1.63 0 0 0 2.18-1 61.94 61.94 0 0 0 13.17 3.89.9.9 0 0 0 1.09-1 12.34 12.34 0 0 0 1.66.13c1 .15 2.42 1 3.47 1.08.22 0 .58.09.6-.1a14.09 14.09 0 0 1 1.44-6.62 1.13 1.13 0 0 0 1.48-.84 38.3 38.3 0 0 0 .65-12.66 1.4 1.4 0 0 0 1.4-1.47 34 34 0 0 0-6.88-16.84 1.28 1.28 0 0 0 .52-1.89c-3.77-5.18-13.13-11.25-20.27-9.36a22.93 22.93 0 0 0-7.52 1.12c-3.33 1.1-6.25 3.9-9.74 4.27a134.14 134.14 0 0 0-17.19-9.83.93.93 0 0 0-.82 1.68c4.16 2.47 8.29 5 12.35 7.61a10.93 10.93 0 0 1 3 9c-.21 2.8-1.44 5.35-1.71 8.11a17.79 17.79 0 0 0 5.16 13.56 1.18 1.18 0 0 0 1.96-.41z" fill="#658a45"/><path d="M138.92 157.13c-.18-1-.3-1.92-.39-2.88a.24.24 0 0 0 .41-.17c-.18-2.56-.44-5.1-.56-7.66 2.94-1.11.87-7.25-1.68-12.33.87 1.18 1.75 2.35 2.57 3.57 1.15 1.7 2.28 4.83 3.83 6.11a2.32 2.32 0 0 0 2 .63q.83 1 1.7 2.06c1.53 4.63 2.1 9.65 3.2 14.41a.22.22 0 0 0 .42 0 37.8 37.8 0 0 0 .24-10.72.61.61 0 0 0 .39-.3c.68-1.14.08-2.5-.39-3.61l-.27-.62a36.58 36.58 0 0 1 3.33 5.83c2 4.52 3.48 8.81 6.86 12.55.24.26.58-.11.44-.38a38.27 38.27 0 0 1-2.31-5.87v-.22a1.3 1.3 0 0 0 1.82-.92c.47-2.63-1.91-5.87-3.14-8-.61-1.08-1.27-2.12-2-3.14a2.62 2.62 0 0 0 3.17-1c2.6.71 5.19 1.32 7.86 1.87.24 0 .38-.33.14-.41-.59-.21-1.17-.44-1.75-.69a.11.11 0 0 0-.06 0h-.11l-.73-.32c-1.13-.71-2-2.27-3-3.06a30.2 30.2 0 0 0-5-2.81c-2.22-1.2-4.34-2.53-6.42-3.92a34 34 0 0 0-3.17-2.52 9 9 0 0 0 4 .33c.91-.16 1.69-.5 2.54-.73.91-.07 1.81-.15 2.69-.24a8.5 8.5 0 0 0 1.49-.17c1.36-.17 2.68-.35 3.94-.52.25 0 .32-.46 0-.48-2.59-.19-5.22-.43-7.83-.74a15.7 15.7 0 0 1-3.77-1.34 1.18 1.18 0 0 0-.83-1.67A106.61 106.61 0 0 1 137 125.3c-.56-.27-1.11-.53-1.69-.77l-.25-.11c-.56-.23-1.12-.45-1.71-.65a1.83 1.83 0 0 0-.62-.1c-1.54-.39-3.15-.65-4.39-.84-6.43-3.57-13.15-6.68-19.69-10-.9-.46-1.9.92-1 1.52 3.34 2.28 6.83 4.36 10.34 6.39a34.61 34.61 0 0 0 5.73 5.69c1 2.56 2.53 5.6 4.86 6.45a1.77 1.77 0 0 0 1 .06 19.2 19.2 0 0 1 2.25 5.51 9.29 9.29 0 0 0 1.33 3.58 1.17 1.17 0 0 0 1.3.47l1 2.37c.78 4.16 1.27 8.41 2.85 12.39.13.28.69.23.61-.13z" fill="#4c6e31"/><path d="M138.07 147.39a30.12 30.12 0 0 0-1.46-13.12 1.48 1.48 0 0 0-.76-.84c-.06-.34-.14-.67-.23-1a5.82 5.82 0 0 0 2.53 1 1.68 1.68 0 0 0 .7-.09 41.32 41.32 0 0 1 6 5.84c.79 1 1.43 1.9 2.16 2.75a14.4 14.4 0 0 1 .86 3.15 2.87 2.87 0 0 0 1.21 2.35c.4 2.26.88 4.51 1.28 6.77a.26.26 0 0 0 .52 0c.06-2.53.25-5 .3-7.57a1.1 1.1 0 0 0-.62-.94c-.22-.1-.4-.81-.55-1.62a1.23 1.23 0 0 0 .44-.12c.23.24.45.49.67.74.37.6.72 1.2 1 1.82 2.24 4.29 3.73 8.66 6.62 12.61.2.27.63 0 .44-.29-2.72-4.1-3.27-9-5.3-13.46a29.91 29.91 0 0 0-1.64-3.07c2.8 1.73 6.33 1.87 9.71 2.19a.25.25 0 0 0 .1-.49c-3.28-.81-6.53-1.9-8.91-4.29a1.5 1.5 0 0 0-.43-1.2c-2.5-2.51-6.18-3.51-9-5.77a1 1 0 0 0-.33-.18c-.88-.7-1.78-1.37-2.69-2a2.39 2.39 0 0 0 .66-.27l.09-.08a39.94 39.94 0 0 0 9.94 1.07c.29 0 .33-.49 0-.52a29.44 29.44 0 0 1-8.89-2.28c-.17-.11-.34-.24-.51-.36-.27-1.55-2.41-1.36-3.63-1.6a44.19 44.19 0 0 1-11.38-4.35.77.77 0 0 0-.77.05c-2.68-1.4-5.37-2.8-8-4.3-.8-.46-1.69.83-.91 1.36 2.07 1.44 4.21 2.77 6.38 4.06 1.66 1.37 3.36 2.68 5.08 4a38.35 38.35 0 0 1 4.32 8.24 1.59 1.59 0 0 0 1.23 1 49 49 0 0 1 3 10.9c.2.19.7.29.77-.09z" fill="#3c5925"/><path d="M130 126.55a9.18 9.18 0 0 1 3.25 4.71c.59 2.34.88 4.79 1.4 7.15.07.31.55.2.53-.1-.19-2.81 0-6.15-1.09-8.81a6.89 6.89 0 0 0-.37-.77c1.15.71 2.29 1.45 3.41 2.22a51.8 51.8 0 0 1 5.75 4.64.66.66 0 0 0 .18.26c.4.35.8.7 1.18 1.06l.67.69a6.23 6.23 0 0 1 1.22 1.92c.46 1.19.72 2.41 1.24 3.59 1 2.31 2.48 4.61 2.6 7.2a.15.15 0 0 0 .29 0c.41-3-.68-5.25-1.75-8-.14-.37-.27-.73-.4-1.08a81.13 81.13 0 0 1 9.87 16.3.18.18 0 0 0 .34-.11 40.5 40.5 0 0 0-7.24-15.49 14.92 14.92 0 0 0 6.5 1.52.21.21 0 0 0 .08-.4c-2.56-1-5.22-1.79-7.41-3.52-1.27-1-2.5-2-3.76-3a63.12 63.12 0 0 0-6.66-6c-.7-.54-1.41-1.08-2.13-1.62a18.14 18.14 0 0 0 5.55.67c.2 0 .23-.33 0-.35-2.77-.25-5.49-2-8-3.14-2-.91-3.93-1.86-5.88-2.82a121.14 121.14 0 0 0-23.16-11.29.85.85 0 0 0-.75 1.52c7.87 4.98 16.49 8.5 24.54 13.05z" fill="#30471e"/><path d="M162.53 163.84c.34-1.41.59-2.82.86-4.24a2.12 2.12 0 0 0 2.06-1.06 6.22 6.22 0 0 0 .5-4.81 1.79 1.79 0 0 0 1.12-1.08c.55-1.28-.21-2.36-1.17-3.12a9.19 9.19 0 0 0-6.29-3.41.29.29 0 0 0-.19.55 14 14 0 0 1 2.95 2.33 11.14 11.14 0 0 0-2.52-.95c-.26-.07-.48.33-.24.49 1.44 1 2.35 2.61 3.38 4a1.55 1.55 0 0 0 .16.75 5.35 5.35 0 0 1 .6 2.54c0 .09-.22 1.25-.18 1.31a1.14 1.14 0 0 0-2.08.68c.09 2 .06 4 .27 6a.39.39 0 0 0 .77.02z" fill="#90b36c"/><path d="M163.44 154.6a8.48 8.48 0 0 0-1.4-2.44c-.17-.2-.56-.07-.45.22l1 2.52c.17.56 1.07.27.85-.3z" fill="#90b36c"/><path d="M151.29 133.87a26.58 26.58 0 0 1 7.27 1.19 18.09 18.09 0 0 0-2.91-.08.44.44 0 0 0-.06.87 23.68 23.68 0 0 1 6.17 2.42 4.77 4.77 0 0 0-2.4-.2.39.39 0 0 0 0 .77c1.49.06 2.92 1 4.18 1.72a.49.49 0 0 0 .4 0c.92 1.35 1.73 2.79 2.55 4.19a.38.38 0 0 0 .67-.32c-.65-1.78-1.4-3.55-2-5.35a2.56 2.56 0 0 0-.1-2.89 5.63 5.63 0 0 0-3.21-2.55 12.14 12.14 0 0 0-10.76-.64.42.42 0 0 0 .2.87z" fill="#90b36c"/><path d="M133.18 122.5a51.54 51.54 0 0 1 16.16-.37c-1.54.43-3.06 1-4.57 1.64a.71.71 0 0 0 .44 1.35 22.93 22.93 0 0 1 11.13-.28 1.16 1.16 0 0 0 .52 0 .71.71 0 0 1-.23.74 1.07 1.07 0 0 0 .32 1.65c1.06.58 2.08 1.21 3.11 1.83.47.29.8-.4.5-.74-.55-.61-1.07-1.23-1.6-1.85 2.17-2.13-1.53-5.06-3.87-6.25-5.58-2.82-12.28-2.71-18.18-1.15a.72.72 0 0 0-.54.87 27.3 27.3 0 0 0-3.7 1.47c-.67.36-.08 1.21.51 1.09z" fill="#90b36c"/><path d="M155.26 165.3a2.59 2.59 0 0 0 2-.65 1.63 1.63 0 0 1 1.62-.34 11 11 0 0 1 2.63 1c.26.13.42-.24.19-.4-1.13-.76-2.77-2.6-4.27-2.64-.48 0-.69.25-1.07.37-.37-1.21-.8-2.4-1.12-3.63s-1-2.78-.66-4c0-.17-.2-.24-.28-.09a7.69 7.69 0 0 0-.84 2.74c-.27-2.2-.33-4.46-.67-6.59a.24.24 0 0 0-.48 0c-.1 2.28-1.07 4.45-1.14 6.75a8 8 0 0 0 1.52 5.37h.05a3.62 3.62 0 0 0 2.52 2.11z" fill="#90b36c"/><path d="M144.06 163.48a3 3 0 0 0 2.53-.61 2.09 2.09 0 0 0 .69-.74l.45.27c1.26-.13 3.18 1 4.15 1.72.3.21.68-.18.39-.44-1.26-1.13-3-3-4.8-3.53a.74.74 0 0 0 0-.52 25.46 25.46 0 0 1-1.59-5.72c0-.32-.53-.38-.58 0a10.35 10.35 0 0 0 .64 6.26.83.83 0 0 0 .06.08 2.42 2.42 0 0 1-.38.12h-.19v-.05a36.47 36.47 0 0 1-1.68-12.14c0-.39-.58-.4-.66 0-.28 1.19-.62 2.44-.9 3.72v-.12c-.2-2.53-.72-5.06-.86-7.59a.29.29 0 0 0-.58 0c-.81 5.11-3.16 10.66-.09 15.48a1.33 1.33 0 0 0 .62.53c.39 1.48 1.17 2.92 2.78 3.28z" fill="#90b36c"/><path d="M127.76 152.46a32.93 32.93 0 0 0 6.69 6.12.9.9 0 0 0 .67.44c1.28.86 2.63 1.68 4.07 2.49.29.16.56-.26.32-.48-1.14-1-2.23-2.14-3.28-3.3-.51-2.14-1.77-4-2.38-6.07-.55-1.91-1.59-5.49-.68-7.36a.13.13 0 0 0-.18-.16c-1.3.69-1.74 2.29-1.89 3.88-.57-3.43-1.42-6.86-2.07-10.21 0-.13-.19-.08-.22 0a27.73 27.73 0 0 0-1.1 10c-1-4.23-2.06-8.57-1.49-12.9a.35.35 0 0 0-.68-.13 43.47 43.47 0 0 0-1.12 4.8 56.46 56.46 0 0 1 .2-6.28 1.16 1.16 0 0 0-2.28-.45 25.59 25.59 0 0 0 1.16 16.65c.78 1.73 2.7 3.43 4.26 2.96z" fill="#90b36c"/><path d="M133.52 120.41a62.52 62.52 0 0 1 8.09-.71 47.41 47.41 0 0 1 8.63 1 .91.91 0 0 0 .73-.21c.6.15 1.2.32 1.77.53a14 14 0 0 0-3.16.56c-.39.1-.23.64.12.65a19.87 19.87 0 0 1 8.07 2.64c.69 1.43.06 2.31 2.23 3.32a.27.27 0 0 0 .3-.45c-.72-.76.11-2.26-.1-3.2-.3-1.35-2.3-2.9-3.34-3.63-3.83-2.71-8.7-3.35-13.29-3.38a22.16 22.16 0 0 0-10.23 2.33.28.28 0 0 0 .18.55z" fill="#bedb97"/><path d="M153.75 133.07a14.71 14.71 0 0 1 4.47 1.31c.58.21 1.15.45 1.72.68a.71.71 0 0 0 .17.11 14.81 14.81 0 0 1 2.67 1.23c.7.44 1 .68.87 1.27 0 .19-.29.36-.36.55-.54 1.45 1.58 3 2.32 3.91a.31.31 0 0 0 .53-.34 7.6 7.6 0 0 1-1.1-2.26c-.06-.69 0-.39.42-.91a2 2 0 0 0 .36-1.87 4 4 0 0 0-2.67-2.43l-.06-.05c-2.45-1.59-6.68-3.13-9.47-1.57-.19.09-.06.36.13.37z" fill="#bedb97"/><path d="M165.46 158.35c1.55-1.49 1.54-3.57 1-5.48a1.44 1.44 0 0 0 .31-.2 1.52 1.52 0 0 0 .35-1.35c-.34-1.64-2.71-3.32-4.08-4a.24.24 0 0 0-.27.4 15.81 15.81 0 0 1 1.6 1.78 15.32 15.32 0 0 1 1.35 1.72v.06a.4.4 0 0 0-.33 0 2.3 2.3 0 0 0-.73.23 1 1 0 0 0-.39 1.11c.64 1.75 1.06 3.46.34 5.26a.53.53 0 0 0 .85.47z" fill="#bedb97"/><path d="M146.94 162.86a.61.61 0 0 0 .17-.33.76.76 0 0 0 0-1.08 8.39 8.39 0 0 1-2.6-4.59c-.06-.29-.56-.2-.51.1.27 1.76.25 3.48 1.31 4.79h-.83c-1.61-.51-2.25-2.88-2.72-4.23a32.18 32.18 0 0 1-1.71-8.3c0-.2-.33-.23-.35 0-.52 3.92-.43 8.33 1.49 11.92 1.16 2.17 3.59 3.73 5.75 1.72z" fill="#bedb97"/><path d="M147.94 162c.63.45 1.44-.45.81-.91a10.9 10.9 0 0 1-1-.85 10.07 10.07 0 0 1-1-1 .05.05 0 0 0-.1 0 2.9 2.9 0 0 0 .26 1.46 3.38 3.38 0 0 0 1.03 1.3z" fill="#bedb97"/><path d="M153 141.33c.13.07.28-.13.15-.22a114.77 114.77 0 0 1-11.92-10c-.53-.52-1.29.34-.76.86a51.68 51.68 0 0 0 12.53 9.36z" fill="#243617"/><path d="M110.14 114.5c10.48 2.81 19.14 10.44 29.57 13.64.18.06.27-.23.11-.31-5.29-2.57-10.48-5.35-15.6-8.26-4.32-2.45-8.81-5.65-13.83-6.3a.63.63 0 0 0-.25 1.23z" fill="#243617"/><path d="M58.25 77.23A20.63 20.63 0 0 0 49.34 69c-.62-.29-1.41-1.51-1.07.81-2.73-2.38-6.38-3.9-9.61-5.15-.74-.29-2.19-1.53-1.28 1.19a10.3 10.3 0 0 1 .25 1.15c-3.67-1.52-7.32-1.6-11.3-2.66-.8-.21-2.34-1.29-1.12 1.35.13.28.27.55.41.81-3.34-.31-6.77.1-9.91-1.26-.75-.33-1.74-1-1 1.2a5.82 5.82 0 0 0 .44 1c-2.46.21-5.29.54-7.37-.38-.47-.21-1.45-1.1-.9.84.09.32.17.53.23.7-.88 0-1.75.08-2.62.16a22.34 22.34 0 0 1-2.44-.05c-2.87-.3-2.27-.1-1 2.77.59 1.92 1.25 3.81 2 5.68a3.43 3.43 0 0 0-1.19 0c-1.67.41-.71 1-.24 1.4 2.78 2.19 3.36 6 4.87 9.15a6.35 6.35 0 0 0-.78-.13c-1.69-.12-1.16.76-.81 1.29 2.1 3.23 3.34 6.87 5.86 9.71h-.16c-1.24.22-1.21.66-.8 1.26a26.67 26.67 0 0 0 7.3 7.39c-.11 0-.23.07-.34.12-1.75.79-1 1.17-.29 1.66a33.82 33.82 0 0 0 8.71 4.54 1.23 1.23 0 0 1-.13.13c-1.36 1-.33 1.34.35 1.57a31.92 31.92 0 0 0 10.6 1.88c-1.09 1.38-.05 1.19.5 1.26a19.75 19.75 0 0 0 16.91-6.71 14.28 14.28 0 0 0 3.59-5.73l.35-.49c2.26-3.25 4.93-6.64 6-10.51a20.07 20.07 0 0 0-.45-11.13c-.6-1.93-1.35-7.07-3.58-7.64-.32-.08-.94-.35-1.07 1.05z" fill="#658a45"/><path d="M38.56 71.43c1.6 3.65 3 7.49 4.28 11.33a.18.18 0 0 0 0 .09c.54 2.22.88 4.65 1.4 7-2-1.16-4-2.26-6-3.29a20.86 20.86 0 0 1-1.17-1.83c-1.29-2.31-2.16-4.52-4.57-5.86a2.33 2.33 0 0 0-2-.07 78.46 78.46 0 0 0-10.46-10.3c-.31-.25-.61.22-.41.49 2 2.83 4 5.65 6 8.53.27 1.81.53 3.63.77 5.44-3-1.79-5.95-3.54-9-5.14a1.14 1.14 0 0 0-1.68.72 138.77 138.77 0 0 1-11.43-8c-.22-.17-.53.19-.32.38q2.71 2.61 5.53 5l2.72 2.61a1.57 1.57 0 0 0-.56 2.47c2.14 2.87 5.26 4.68 8.21 6.62l4.43 2.9h-1.81a2.17 2.17 0 0 0-2.08 2.86 23.28 23.28 0 0 1-8.51.71c-.42-.05-.48.57-.12.7a23.28 23.28 0 0 0 12.83 1.52 1.76 1.76 0 0 0 1.1-.62 80 80 0 0 1 11.5 2.52c-1.8.14-3.64.63-4.48 2.3a3.34 3.34 0 0 0-.22 2.25c.09.43.57 1 .6 1.39a1.11 1.11 0 0 0 .09.44.63.63 0 0 0-.16.2c-.6 1-3.39 1.81-4.42 2.27-1.86.83-3.71 1.58-5.52 2.53a.34.34 0 0 0 .14.63 20.7 20.7 0 0 0 8.78-1c1.94-.59 4.92-1.2 5.75-3.29 2 .35 4.42-.51 6.23-.75 3.17-.41 6.35-.24 9.52-.58h.59a1.74 1.74 0 0 0 1.07-.38 115.52 115.52 0 0 1 10.19 6.63c4 3.56 7.88 7.37 11.95 10.85a.18.18 0 0 0 .26-.24c-4.46-6.27-8.8-12.17-14.91-17-1.07-.84-2.18-1.64-3.3-2.42l-.48-.55a1.34 1.34 0 0 0-.12-.88 27.06 27.06 0 0 0-5.54-6.8c-.37-1-.79-2-1.15-3-.79-2.12-1.68-3.88-3.74-4.94a2.73 2.73 0 0 0-.55-.21 165.72 165.72 0 0 0-8.54-14.51.38.38 0 0 0-.69.28z" fill="#4c6e31"/><path d="M2.81 73.74a9.31 9.31 0 0 1 .65 4.06c-.07.44-.49.59-.48 1.11 0 1.56 1.76 3.15 3.17 4.21a1.27 1.27 0 0 0 0 .45c-.3 1.37.65 2.66 2 3.74a1.86 1.86 0 0 0-.68.72A1.45 1.45 0 0 0 7.92 90c1.37 1.12 3.79 1.51 5.49 1.75a21.83 21.83 0 0 0 5.81-.23.25.25 0 0 0 0-.47 27.29 27.29 0 0 1-3.79-1.12.67.67 0 0 0-.32-.9c-.33-.16-1.13-.53-2.06-1 .88.1 1.76.1 2.74.18.27 0 .28-.33.07-.43a32.08 32.08 0 0 1-4.2-2.82c-1-.64-1.88-1.33-2.82-2a1.17 1.17 0 0 0-.53-1c-.86-.47-3.52-1.83-3.69-3 0-.05.72-.52.71-.83 0-1.77-1.23-3-2.17-4.53-.08-.2-.42-.11-.35.14z" fill="#90b36c"/><path d="M30.45 103.35a3 3 0 0 0-1.77.09 14.1 14.1 0 0 1-2.71.19c-1 0-1.95 0-2.92-.06 1.3-.27 2-1 3.27-1.71a.27.27 0 0 0-.25-.48c-2.13.84-4.26.29-6.4-.14 1.16-.3 2.3-.69 3.39-1 .24-.07.3-.46 0-.52a61.22 61.22 0 0 0-8.93-1.28c-.27-.51-.33-1.22-.71-1.62-.92-1-2.6-1.17-3.67-2-.18-.13-.41.1-.31.29.68 1.31 1.64 2.38 2.06 3.33.25.58.36 1 .54 1.4-1.25 2.19 3.65 4.34 6.4 5.4a1.88 1.88 0 0 0 .91 2.48c1.76.95 4.9-.2 6.91-1l.46-.06a5.83 5.83 0 0 0 2.62-1c.8-.6.84-1.12 1.25-1.93a.28.28 0 0 0-.14-.38z" fill="#90b36c"/><path d="M53.82 107c-1.28.74-2.48 1.59-3.71 2.41a1.15 1.15 0 0 0-.57-1.26c.53-.43 1.05-.84 1.57-1.24.22-.17 0-.55-.25-.48-5.13 1.4-9.42 4.31-14.64 5.25a9.63 9.63 0 0 0 1.58-2.31c.14-.27-.2-.61-.43-.36-2.09 2.18-6.07 2-8.8 2.78a1.21 1.21 0 0 0-.83.89.79.79 0 0 0-.28-.25c-.53-.26-1.07-.49-1.61-.71-.17-.07-.33.19-.2.32q.7.64.06 1.24a1.11 1.11 0 0 0 .6 1.63 16.3 16.3 0 0 0 7.73.6c1.51 1.77 4.09 1.56 6.76.52A14.67 14.67 0 0 0 48 114c3-1.68 4.06-4.06 6.18-6.55.14-.18-.06-.58-.36-.45z" fill="#90b36c"/><path d="M10.95 67.74c-1.25-.12-2.59.26-2.85 1.37a23.48 23.48 0 0 1-4.22.53.28.28 0 0 0 0 .55c1.7.26 3.4.62 5.1.91H9l.14.12c1 .71 2.08 1.39 3.14 2.07.67.43 3 1.56 3 2.29a.21.21 0 0 0 .42 0c.05-.42-.19-.6-.38-1a14.25 14.25 0 0 0-1.25-2.23c3.11 2.15 6.45 4.16 8.83 7.11.19.23.52 0 .48-.25-.42-2.71-1.08-4.65-3.14-6.54a1.2 1.2 0 0 0-.26-.38 15.85 15.85 0 0 0-9.03-4.55z" fill="#90b36c"/><path d="M29.48 66.16a8.51 8.51 0 0 0-.66.82 1.2 1.2 0 0 0-.35-.08.76.76 0 0 0-.18-.3c-.21-.16-.76 0-1 0a1.61 1.61 0 0 0-1.6 1.4 1.11 1.11 0 0 0-.36.42A25.41 25.41 0 0 1 19.72 67a.26.26 0 0 0-.22.47c2.1 1.33 4.75 3.07 7.29 3.37l1 1.08c.4.43 2.25 1.91 2.13 2.5a.24.24 0 0 0 .45.14c.31-.86-.37-2.08-.74-2.84-.18-.36-.37-.71-.58-1.05.51.57 1 1.14 1.51 1.74 1 1.21 2.47 2.73 2.74 4.3 0 .29.43.25.52 0a4.5 4.5 0 0 0 .29-1.66c.5.87 1 1.74 1.48 2.61.6 1.08 1.17 2.18 1.83 3.23a12.28 12.28 0 0 1 1.73 2.74.24.24 0 0 0 .43.07c1.14-2.07.32-4.18-.51-6.28a31.92 31.92 0 0 0-1.75-3.69C35.71 70 32.79 64 29.48 66.16z" fill="#90b36c"/><path d="M46.28 71a77.68 77.68 0 0 0-6.9-4.81.27.27 0 0 0-.34.41c2.2 2.57 4.45 5.12 6.58 7.75a1.34 1.34 0 0 0 1.5.43c.5 1.39 1.16 2.7 1.78 4 .79 1.7 2 3.59 2 5.51 0 .32.44.32.49 0a15.24 15.24 0 0 0-.26-5.49 37 37 0 0 1 3.5 9.38c.06.29.55.26.53 0-.1-1.29-.23-2.54-.41-3.77.19.58.37 1.18.53 1.78.77 3.08 1.32 6.25 1.87 9.38 0 .27.38.22.47 0a16.58 16.58 0 0 0 1.35-6.07 1.24 1.24 0 0 0 .61-1.13c-.09-4.82-1.31-13.94-7.29-14.79-1.68-2.1-4.37-4.14-6.01-2.58z" fill="#90b36c"/><path d="M47.36 110.78c-2.09.66-4 1.7-6.16 2.16-1.87.4-3.78.5-5.67.8a.89.89 0 0 0-.5-.15c-2.69.09-6 .8-8.56-.12a.33.33 0 0 0-.34.54c1.84 2.17 5.35 1.8 8.06 1.72 1.68 3.12 11-.73 12.8-1.68a.53.53 0 0 0-.36-1c-.27.07-1.32.36-2.67.69 1.22-.8 2.19-1.8 3.5-2.78a.12.12 0 0 0-.1-.18z" fill="#bedb97"/><path d="M29.12 104.58a10.33 10.33 0 0 0-3.48.42 8.91 8.91 0 0 1-3.94-.27.84.84 0 0 0-.91.45 3.55 3.55 0 0 1-.79-.68.62.62 0 0 1-.1-.18 10.2 10.2 0 0 0 3.53-.22.12.12 0 0 0 0-.24 25.18 25.18 0 0 1-4-.58.49.49 0 0 0-.26 0c-.56-.26-1.34-.3-1.87-.49a17.74 17.74 0 0 1-4.6-2.41c-.12-.09-.28.1-.17.2a16.67 16.67 0 0 0 3.86 3.11c.22.12 1.88.62 2 .76a6.52 6.52 0 0 1 .09 1.06c.86 2.22 4.07 1.81 5.93 1.3a5.76 5.76 0 0 0 .68-.07c1.51-.25 2.75-1.29 4.15-1.85.15-.03.05-.29-.12-.31z" fill="#bedb97"/><path d="M10.87 88.54c-.34-.14-.73-.3-.75-.38s.09-.19.18-.31c.7.29 1.4.59 2.11.86.24.09.42-.29.19-.41-.72-.37-1.45-.72-2.18-1.07-.14-.9-1.52-1.22-2.22-1.69-.17-.12-.32.14-.17.27.69.56 1.11.77.81 1.48-.08.2-.35.32-.45.56a1.35 1.35 0 0 0 .33 1.4c1.19 1.38 3.66 1.66 5.35 1.71a.59.59 0 0 0 .28-.07c1.28.22 2.58.35 3.92.48.19 0 .19-.23 0-.3a29.65 29.65 0 0 0-7.4-2.53z" fill="#bedb97"/><path d="M43.77 82.85a29.25 29.25 0 0 1 1.86 8 1 1 0 0 0 1 1c.77 0 1.92 2.53 2.79 4.57-1.84-1.41-3.71-2.78-5.61-4.07a1.05 1.05 0 0 0-.61-.68c-.38-.17-.76-.32-1.14-.48q-2.91-1.89-6-3.53a38 38 0 0 0-3.77-4.26A1.38 1.38 0 0 0 31 83a49.27 49.27 0 0 1-3.65-5.21c-.14-.24-.58-.12-.49.18a76.73 76.73 0 0 0 2.85 7.68 1.24 1.24 0 0 0 1.34.7l.35.41a1.27 1.27 0 0 0-.11.36 29.12 29.12 0 0 0-5.72-3.48c-.26-.12-.5.23-.24.38a31.69 31.69 0 0 1 3.16 2.21A18.27 18.27 0 0 1 23 83.48a1.06 1.06 0 0 0-.52-1.39c-3.1-1.49-6.26-2.88-9.32-4.45a.18.18 0 0 0-.19.3c2.23 1.63 4.39 3.36 6.56 5.06a1 1 0 0 0 .15.76c1.95 3.09 5.73 4 9 5.28A19.26 19.26 0 0 1 32 91.29a41.69 41.69 0 0 0-5.21-.48c-1 0-2.53-.19-3.38.57-.31.28-.41.71-.65 1a1.75 1.75 0 0 1-.33.88 10.63 10.63 0 0 1-2.26.7.16.16 0 0 0 0 .32 8.59 8.59 0 0 0 3.3.24c.92-.24 1-1.1 2-1.38 1.69-.48 5.16.66 6.77 1 .94.21 1.87.47 2.8.73 2 1.17 4.09 2.28 6.23 3.32a15 15 0 0 0-5.44 1 4.55 4.55 0 0 0-2.4 2.16c-.42.92-.12 1.23-.26 2.07a5.93 5.93 0 0 1-3.75 4.58.2.2 0 0 0 .14.38c2.48-.66 4.47-1.57 5.67-3.91.53-1 .95-2.56 2.19-3.22h.08c-.11.17.09.45.29.32a6 6 0 0 1 1-.51h2.57c2.17 0 4.34.09 6.51.13a1.13 1.13 0 0 0 .28 0c2.13.82 4.26 1.55 6.36 2.14a.63.63 0 0 0 .3 0c2.82 1.65 5.63 3.3 8.38 5 .26.16.46-.2.24-.38l-5.63-4.72a.74.74 0 0 0-.2-.28A29 29 0 0 1 50 92.12c-.66-1.54-1.41-2.53-2.76-2.43a59.76 59.76 0 0 0-3.05-7.08c-.11-.31-.53-.07-.42.24z" fill="#3c5925"/><path d="M49.83 94.42a17.55 17.55 0 0 0 1.91 4.27l-1.66-1c-4.91-2.93-10-5.38-15.09-7.83a.61.61 0 0 0-.26-.69c-4.27-3.16-4.95-9.41-8.56-13.26-.08-.08-.23 0-.16.11 1.85 2.68 2.81 5.79 4 8.8a14.53 14.53 0 0 0 1.77 3.47l-1.6-.77C22.87 84 16.42 78.34 9.75 73.76c-.09-.06-.21.08-.13.15 5.38 4.9 10.63 10.56 16.91 14.25 1.59.94 3.23 1.81 4.89 2.64-3.66-.05-6.52 1.63-10 2.27a.13.13 0 0 0 0 .25c2.89-.05 5.62-1 8.55-1A24.13 24.13 0 0 1 39.74 95a.85.85 0 0 0 .69 0c2.3 1.07 4.59 2.15 6.81 3.32l.65.36a17.68 17.68 0 0 0-6.17-.47c-5.36.63-7.89 4.34-10.17 8.9a.13.13 0 0 0 .23.14c3.07-4.29 6.51-7.67 12.1-7.45 3.9.15 7.43 1.84 11.05 3.1a114.19 114.19 0 0 1 26.49 24.9c.49.63 1.36-.2.91-.83a101.9 101.9 0 0 0-14.66-16.9 96.08 96.08 0 0 0-13.19-9.7.56.56 0 0 0-.15-.55 19.69 19.69 0 0 1-4-5.57c-.14-.25-.58-.1-.5.17z" fill="#30471e"/><path d="M16 79.2c-.11-.07-.25.09-.15.18a119.8 119.8 0 0 0 10.3 8.31c3.88 2.58 8.08 4 12.46 5.46.26.09.36-.29.12-.4C30.62 89 23.49 84.12 16 79.2z" fill="#243617"/><path d="M38.2 99.58c-.08 0-.06.14 0 .13a37.28 37.28 0 0 1 26.63 10.43c.4.37 1-.16.63-.58a32.27 32.27 0 0 0-27.26-9.98z" fill="#243617"/><path d="M119.48 43.47a33.08 33.08 0 0 0-.85-11.47.92.92 0 0 0-1.62-.33 65.82 65.82 0 0 0-2.65-10.21 1.23 1.23 0 0 0-1.79-.81 29.67 29.67 0 0 0-4.17-9.44 1.26 1.26 0 0 0-1.45-.58c-1.24-2.62-2.53-5.2-3.88-7.76a.91.91 0 0 0-1.38-.3 11.62 11.62 0 0 1-.49-2.46c0-.15-.23-.13-.26 0-.15.43-.36.52-.64.84l-3.9 3.44a.68.68 0 0 0-1.11-.54c-2 2.11-3.93 4.27-5.84 6.45l-.33-.55a1.15 1.15 0 0 0-2.12.14c-1.35 3.15-3.91 5.48-5.53 8.42a1.27 1.27 0 0 0-2.11 0 47.44 47.44 0 0 0-4.62 8.46l-.29-.37a1.32 1.32 0 0 0-2.22.42 33.24 33.24 0 0 0-2.93 9.43 1 1 0 0 0-1.88.5c-.33 4.57-1.06 8.57-.06 12.73A1.33 1.33 0 0 0 66 51a28.86 28.86 0 0 0 5.19 9.48 1.09 1.09 0 0 0-.65 1.74 19.87 19.87 0 0 0 6.77 6.08 20.59 20.59 0 0 0 3 1.33c.35.2.7.4 1.07.58 3.1 1.53 8.55 1.14 11.2 3.49.07.4.13.8.2 1.2 1.54 9 3.17 18 6.77 26.43.61 1.42 3.12.64 2.65-.89a182.79 182.79 0 0 1-5.26-22.26 6.19 6.19 0 0 1 1-2.58A8.65 8.65 0 0 1 99 74.27c7-3.57 13.9-8.14 18.7-14.21a1.28 1.28 0 0 0-.82-2 22.32 22.32 0 0 0 3.82-13.22 1.47 1.47 0 0 0-1.22-1.37z" fill="#658a45"/><path d="M107.26 15.93a.3.3 0 0 0-.57-.2 20.69 20.69 0 0 1-3.35 5.45c-.74.69-3.16 2.77-3.1 2.84a1.11 1.11 0 0 0-1.06-.37 7.11 7.11 0 0 0-3 2.59c-.73.87-1.45 1.71-2.19 2.53.28-1.09.59-2.17.89-3.25l1.51-2.16c1.07-1.54 2.21-2.9 2.42-4.81a1 1 0 0 0-.45-.91q1.24-2.76 2.54-5.5c.1-.22-.24-.37-.37-.19q-1.26 1.79-2.55 3.58c1.44-4.23 2.88-8.53 3.07-13 0-.19-.28-.27-.34-.07-.62 2.1-1.31 4.17-2 6.23a42.61 42.61 0 0 0-2.2 4.76 1.06 1.06 0 0 0-.53-.06c-3 .48-4.86 6-5.8 8.58-.34.92-.63 1.86-.9 2.81a2.1 2.1 0 0 0-.71-.33A1.36 1.36 0 0 0 87 25c-.06.08-.1.16-.15.23a40.82 40.82 0 0 1-1.61-5c-.06-.2-.38-.28-.45 0-.7 2.79 0 5.47 1.11 8.08a1 1 0 0 0 .73.58 43.31 43.31 0 0 0 .57 7.44l-.13 1.12v-.07a.85.85 0 0 0-1.1-.42c-.42-1.73-.74-3.48-1.12-5.23a.19.19 0 0 0-.38.07c.2 2.26.6 4.48.9 6.73a.42.42 0 0 0 .09.21c.2 2 .32 3.93.38 5.87a5.38 5.38 0 0 0-1.93-2.14c-.91-.44-1.25 0-1.83.57l-.16.14a4.91 4.91 0 0 0-2.92-.65 2.09 2.09 0 0 0-.62.14l-.57-.23c-.14-.06-.2.15-.07.21l.27.14c-.21 0-.43-.09-.93-.56-1.49-1.43-2.37-3.86-3.06-5.77-.07-.2-.42-.09-.36.12.62 2.33 1.28 5.84 2.89 7.7.95 1.09 1.36.83 2.6.87 1.23 1 2.89 2.54 3 3.77a1.52 1.52 0 0 1-.29 1.13c-1.72-1.49-3.91-3.16-6.12-3.4a.13.13 0 0 0-.12.18c1 2.21 3.34 4.07 4.92 5.94s3 3.87 4.62 5.76l.52 1a16.73 16.73 0 0 0-3.87-2.25c-.29-.11-.47.29-.24.47 4 3 5.63 8.58 9.07 12.2.45 1.12.92 2.24 1.41 3.34.89 3.24 2.07 6.44 2.77 9.63S96 89 97 92a82.45 82.45 0 0 0 3.64 8.4c.1.22.47.1.41-.14-1.61-5.77-2.25-12-3.4-17.86-.71-3.61-1.7-7.18-2.7-10.74a30.11 30.11 0 0 0 1.37 3.13.35.35 0 0 0 .65-.22c-.4-2.2-.7-4.37-.92-6.54 1.4-2.49 1.54-5.36 2.52-8 1.06-2.88 3.1-5.23 4.65-7.83.13-.22-.09-.54-.34-.4a17 17 0 0 0-4.75 3.87A19 19 0 0 0 99 49.8a1.5 1.5 0 0 0-.12-.54l2.2-4.92a1.23 1.23 0 0 0-1-1.73c2.44-4 4.88-8.1 7-12.29a.38.38 0 0 0-.63-.43A165.9 165.9 0 0 0 96.1 44.25v-.23c.17-2-2.53-2.49-3.37-1.14 0-.39-.09-.79-.13-1.18a53.39 53.39 0 0 1 4.32-8.62c3.21-2.73 6.12-5.81 5.45-7.55a27.78 27.78 0 0 0 4.89-9.6z" fill="#4c6e31"/><path d="M96.53 4.46a20.18 20.18 0 0 0-3.29 2.6c-.71.7-1.63 2.36-2.43 2.83-.51.3-1.35 0-2 .46l-.24.18a1.77 1.77 0 0 0-2.18.82 6.33 6.33 0 0 0-.63 4.13c-.58 2.62-.37 5.55 1.36 7.54a.29.29 0 0 0 .5-.17 25.58 25.58 0 0 0 0-2.9.83.83 0 0 0 .55-.9c-.09-.9-.21-1.8-.26-2.7 0-.11 0-.22.07-.33a12.7 12.7 0 0 0 .72 2.17c.16.4.79.17.71-.24a8.75 8.75 0 0 1 .74-4.39 8.05 8.05 0 0 0 .16 1.62.31.31 0 0 0 .6 0 18.18 18.18 0 0 0 .62-2.85c.59-.29.81-.93 1.12-1.48a49 49 0 0 1 4.18-6.1c.17-.12-.1-.42-.3-.29z" fill="#90b36c"/><path d="M80.84 19.16a38.24 38.24 0 0 0-3.89 6.67c-1.24.12-1.5 1.22-1.67 2.4-1.58.37-2.23 1-2.19 3.34a9.79 9.79 0 0 0 3.68 7.28A5.5 5.5 0 0 0 81 41.11a.35.35 0 0 0 .23-.64 7.13 7.13 0 0 1-2.37-2.77c1.4 1.4 3.27 2.11 4.94 3.15a.23.23 0 0 0 .34-.29c-.64-1.8-1.88-3-3-4.51a15 15 0 0 1-1.44-2.59 14.28 14.28 0 0 0 3.46 2.22.27.27 0 0 0 .36-.4 42.75 42.75 0 0 1-2.21-4.06c-.56-1-1.1-2-1.64-3-.05-.71-.1-1.42-.17-2.09v-.07a35.2 35.2 0 0 0 1.92-6.69c.04-.37-.42-.44-.58-.21z" fill="#90b36c"/><path d="M88.62 70.13A17.87 17.87 0 0 0 84.15 65c-1.74-1.26-3.75-1.77-5.31-3.13a26.79 26.79 0 0 0 5.91 2.34c.39.11.71-.42.34-.66a44.3 44.3 0 0 1-6.44-4.72c-.64-.6-1.23-1.24-1.82-1.89a30.46 30.46 0 0 0 3.7.78.35.35 0 0 0 .23-.64 43.53 43.53 0 0 1-4.55-2.94c-.24-.19-.46-.4-.68-.6a19.85 19.85 0 0 0 5.42 1.9c.21 0 .46-.2.26-.38-2.58-2.43-5.19-4.73-7.52-7.38v-.08c-.89-1.8-1.15-3.85-2.08-5.61a1.24 1.24 0 0 0-.57-.53 1 1 0 0 0 .15-.29c1-3.31.67-6.12.5-9.51a.15.15 0 0 0-.29-.06c-1 2.33-1.23 4.89-2 7.32a1.31 1.31 0 0 0-1.51 1.17A33.82 33.82 0 0 0 69 50a1.36 1.36 0 0 0-1.2 2 28 28 0 0 0 6 8.24 2 2 0 0 0 0 2.86c.92 1.18 3.42 2.09 4.72 2.73.31.15.61.28.92.41s.76.34 1.16.5c2.65 1.09 5.12 2.58 7.69 3.84a.3.3 0 0 0 .33-.45z" fill="#90b36c"/><path d="M104.85 8.91c-.27-.16-.55.06-.81-.17-.46-.41-1.41-4.27-1.64-5-.09-.27-.56-.32-.55 0 0 2.15-.22 5 1.09 6.82-.41.8-.79 1.6-1.16 2.41-.53 1.18-.83 3-1.8 3.89a.24.24 0 0 0 .26.4 6.5 6.5 0 0 0 1.12-.71c-1.34 2.34-2.69 4.67-4.1 7a.22.22 0 0 0 .32.28 54.32 54.32 0 0 0 4.15-3.83.62.62 0 0 0 .71 0c2.42-1.88 4.86-5.18 4.54-8.46-.15-1.62-.98-1.92-2.13-2.63z" fill="#90b36c"/><path d="M109.64 20c-.21-1.72-.28-3.53-.31-5.23a.26.26 0 0 0-.51 0 39.38 39.38 0 0 1-1.23 6.23 1.14 1.14 0 0 0 .13 1 1 1 0 0 0-.57.33c-4.77 5.24-8.08 11.27-11.77 17.23-.1.17.13.4.27.24 2.43-2.69 4.91-5.29 7.26-8a.64.64 0 0 0 .74-.17c1.64-1.66 3.16-3.45 4.63-5.26 1-1.18 2.63-2.68 2.71-4.29a2 2 0 0 0-1.35-2.08z" fill="#90b36c"/><path d="M118 37.38c-.49-2.21-1.94-2.43-3.45-2 .14-.27.27-.55.4-.83a1 1 0 0 0-.45-1.34 31.59 31.59 0 0 0-.75-6.61.27.27 0 0 0-.52 0c-.53 2.54-.7 5.14-1 7.73-2 2.78-3.51 6-5.79 8.51a.23.23 0 0 0 .3.35 46.83 46.83 0 0 0 5-4.1 47.57 47.57 0 0 1-7.72 11.47.23.23 0 0 0 .3.35c2.57-1.87 5.17-3.18 7.34-5.57-1.05 1.51-2 3.1-3 4.64-1.46 2.3-3 5.84-5.37 7.34a.23.23 0 0 0 .2.42c2.89-1.12 5.18-3.67 7.23-5.92.53-.58 1-1.17 1.53-1.77a1.85 1.85 0 0 0 .47.35c-3.76 5.63-7.71 10.71-13.22 15-.2.16 0 .41.23.34a29.61 29.61 0 0 0 8.45-4.64c-1.14 1.59-2.3 3.17-3.55 4.65-.39.42-.78.84-1.15 1.28a22.39 22.39 0 0 1-4.85 4c-.16.1-.16.42.08.41a12.93 12.93 0 0 0 7.84-3.69c4.64-3.12 8.76-8 10.22-13.32.53-1.92 1.23-5 0-6.78a2.55 2.55 0 0 0-.93-.86c.48-1.52.92-3 1.31-4.59s1.18-3.33.85-4.82z" fill="#90b36c"/><path d="M93.2 7.78a8.75 8.75 0 0 1-2.2 2.65c-.3.24-1 .92-1.31.95-.05 0-.6-.25-.77-.28-1.41-.25-2.12.86-2.37 2a1 1 0 0 0-.37.33 4.82 4.82 0 0 0-.47 2.12 11.74 11.74 0 0 0 .93 5.15c.09.25.47.1.44-.15a14.45 14.45 0 0 1 .43-5.38c0-.1.15-.48.17-.62l.23-.07a12.12 12.12 0 0 0 .24 2.17.22.22 0 0 0 .44 0c.07-.87 0-1.75 0-2.63a2.75 2.75 0 0 0 .47-.83.73.73 0 0 0 .22.07 2.44 2.44 0 0 0 1.81-1A10 10 0 0 0 93.55 8c.06-.25-.24-.43-.35-.22z" fill="#bedb97"/><path d="M79.35 22.89a34.06 34.06 0 0 1-2.51 5 2 2 0 0 0-1.91 1 1.06 1.06 0 0 0-.3 0 .94.94 0 0 0-.79 1c-.79 1.82 1.27 5.48 2.08 6.86a.46.46 0 0 0 .54.22 29.21 29.21 0 0 0 1.9 2.78c.18.23.55 0 .42-.28a37.08 37.08 0 0 1-2.56-7.61c.08.18.17.37.27.55a9.89 9.89 0 0 0 1.76 2.12c.17.18.52 0 .38-.25a18 18 0 0 1-1.46-4.18 1.07 1.07 0 0 0 1.25-.94c.39-2.06.82-4.16 1.38-6.18a.23.23 0 0 0-.45-.09z" fill="#bedb97"/><path d="M85.83 67.52a40.92 40.92 0 0 1-4.56-3.07c-1.4-.93-2.79-1.88-4.17-2.84a.8.8 0 0 0-.33-.14c-.46-.29-.85-.46-1.09-.38a.9.9 0 0 0 .56-.55l.18.13a5.33 5.33 0 0 0 1.41.62 8.49 8.49 0 0 1 1.94.42c.2.1.5-.14.29-.33-.74-.68-1.57-1.19-2.36-1.79a22.22 22.22 0 0 1-2.46-2.41.81.81 0 0 0-1-.17c-.36-.46-.72-.93-1.07-1.4l-.17-.22a11.59 11.59 0 0 0 3.84 1.82.19.19 0 0 0 .17-.34 29.47 29.47 0 0 1-4.86-5.48 1 1 0 0 0 .13-.77c-.66-2.59-1.2-5.19-1.69-7.81a.89.89 0 0 0 .69-.76c.08-1.26.15-2.48.14-3.74a.26.26 0 0 0-.51 0 5.24 5.24 0 0 1-.57 2.29l-.55-.37a1.06 1.06 0 0 0-1.61 1.06 47.61 47.61 0 0 0 1.5 8.37c-.88.2-1.47.87-1.38 2.18.19 2.52 3.2 5.85 5.15 8.07-1.23 2.09 5.55 5.71 6.64 6.33a.72.72 0 0 0 .62.06 44.53 44.53 0 0 0 5 1.7c.29.12.41-.34.12-.48z" fill="#bedb97"/><path d="M96 21.07c1.47-4.23 2.5-8.54 3.67-12.85.06-.22-.26-.33-.33-.12a86.94 86.94 0 0 1-4.77 10.69 1.08 1.08 0 0 0-1 .51 28.26 28.26 0 0 0-3.47 9.09c-.06-.12-.12-.24-.19-.36a2.32 2.32 0 0 0-1.5-1.16c-.33-.06-.7.12-1 .09l-.31.16a4.23 4.23 0 0 1-1.24-1.63.27.27 0 0 0-.51.17 3.84 3.84 0 0 0 1.88 3c.65.4 0-1.1 1 .71a6.53 6.53 0 0 1 .32 1.62c.23 1.19.4 2.39.61 3.59a1 1 0 0 0 .24.49 13.33 13.33 0 0 1-.4 4 10.2 10.2 0 0 0-.81 2.41 23.75 23.75 0 0 0 .53 7.34v.15a21.14 21.14 0 0 0-2-2.57c-.85-.93-2.26-2.67-3.77-2.53-.59.06-.81.52-1.33.62-1.2.24-2.22-.5-3.23-1.34-.29-.24-.72.23-.44.5.82.78 2.13 2.4 3.25 2.68a6.66 6.66 0 0 1 2 .52c3.07 1.6 4.9 6.61 6.09 10.42 0 .3.08.59.11.89a19.87 19.87 0 0 0-5.18-4.69c-.15-.09-.39.07-.28.24a95.74 95.74 0 0 1 6.58 12.16q.26 1.56.52 3.1a131 131 0 0 0 7.8 26.83.2.2 0 0 0 .38-.13C97 86.75 95.31 77.5 94 68.4c-.13-.85-.23-1.71-.33-2.57a1.29 1.29 0 0 0 .22-.87c-.23-2.83-1-5.61-.22-8.43.64-2.35 2.29-4.36 3.31-6.58a1.22 1.22 0 0 0-.23-1.2c-.08-.1 3.62-7.54 3.89-8.15.11-.26-.28-.45-.44-.22-2.63 3.73-4.88 7.75-7.09 11.22-.19.31-.37.61-.55.92-.24-3.15-.53-6.29-1-9.4.64-2 .93-4 1.54-6 .88-2.92 2.69-3.76 4.45-5.83.79-.92 1.16-2 1.94-2.95a22.56 22.56 0 0 0 3-4.42c.14-.28-.3-.57-.51-.35a24.63 24.63 0 0 1-3 2.7 22.18 22.18 0 0 0-2.61 1.64c-.41.42-.46 1-.82 1.43A34.59 34.59 0 0 1 93 31.67a9.36 9.36 0 0 0-1.09 1.47 31.28 31.28 0 0 1 3-11.33 1.08 1.08 0 0 0 1.09-.74z" fill="#3c5925"/><path d="M94.06 21.92a33.77 33.77 0 0 0 3.43-7.7.13.13 0 0 0-.24-.09 40.15 40.15 0 0 1-2.91 5.64c-.72 1.05-1.89 1.79-2.54 2.87-.8 1.36-.94 3.36-1.23 4.88-.14.76-.27 1.52-.4 2.28-.29-.45-.62-.89-.92-1.38-.1-.15-.39-.1-.33.11.3 1.05.23 2.26.43 3.33.09.49.18 1 .25 1.47s-.11.71-.16 1.06c-.26 1.83-.16 3.51-.83 5.23a7.29 7.29 0 0 0-.61 2.75 42.35 42.35 0 0 0 .37 6.49c-1.58-2-3.72-3.11-5.86-4.57-.21-.14-.41.16-.22.32 2 1.58 4 3.15 5.3 5.39a18.17 18.17 0 0 1 1.34 3 44.12 44.12 0 0 0 .23 5.66c-1-.88-2.58-1.92-2.93-3-.08-.24-.46-.18-.39.07a7.33 7.33 0 0 0 1.95 2.76 21.55 21.55 0 0 1 1.62 2.21c.71 5.19 2 10.37 3.14 15.21 2 8.83 3.59 17.55 8 25.53a.09.09 0 0 0 .16-.08c-3.42-8.22-5-17.7-6.5-26.44-.9-5.19-1.6-10.32-2.18-15.48v-.36a7.74 7.74 0 0 1 2.23-5.25 4.36 4.36 0 0 0 1-1.35c.13-.35-.06-.37 0-.64a13.27 13.27 0 0 1 1.45-4c.13-.25-.23-.51-.37-.25-.74 1.31-1.55 2.56-2.24 3.88-.37.7 0 .49-.74 1.29-.56.63-1.33 1-1.88 1.7q-.26-2.71-.5-5.44a.78.78 0 0 0-.21-.5c-.17-1.46-.35-2.91-.42-4.38a19 19 0 0 1 .78-4.82 8.89 8.89 0 0 0 .13-1.2 8 8 0 0 1 .59-1.12 26.24 26.24 0 0 1 2.52-2.93c1.77-2.13 3.18-4.57 4.88-6.77.14-.17-.14-.35-.28-.19-2.27 2.57-4.76 4.91-7.24 7.27-.15.14-.28.29-.42.43v-.31c.38-4.14.48-9 2.75-12.58z" fill="#30471e"/><path d="M86.42 47.54a.14.14 0 0 0-.22.19c2.8 4.21 2.8 8.61 3.09 13.48a48.81 48.81 0 0 0 3 12.94c.13.37.74.16.65-.22A105.09 105.09 0 0 1 90.29 58c-.35-3.82-1.02-7.66-3.87-10.46z" fill="#243617"/><path d="M91.79 25.88a27.54 27.54 0 0 0-1.9 5.53c-.39 2.24-.37 4.51-.64 6.77 0 .23.32.25.35 0a101.45 101.45 0 0 1 2.34-12.27.08.08 0 0 0-.15-.03z" fill="#243617"/><path d="M105.22 9.79c-.26-.12-.67 0-.89-.16-.76-.4-1.1-1.52-1.37-2.26-.08-.2-.41-.09-.36.12a9.48 9.48 0 0 0 1.2 3.28l.44.15.55 2.28a5.22 5.22 0 0 1-.48 1.3 13.41 13.41 0 0 1-2.08 3.37c-.35.43.33 1 .72.64 1.68-1.63 3.83-4.24 3.54-6.77a2.3 2.3 0 0 0-1.27-1.95z" fill="#bedb97"/><path d="M60.92 149.31a38.45 38.45 0 0 0-1.5 13.29 1.07 1.07 0 0 0 1.78.73c-.24 4.07.42 8.36.83 12.23a1.43 1.43 0 0 0 1.86 1.31 34.48 34.48 0 0 0 2.73 11.67 1.46 1.46 0 0 0 1.53 1c.85 3.26 1.77 6.48 2.77 9.7a1.06 1.06 0 0 0 1.51.64 13.51 13.51 0 0 1 0 2.9c0 .17.23.2.29.05.27-.46.52-.52.91-.83l5.2-3.09c-.16.61.6 1.25 1.16.85 2.74-2 5.41-4 8.06-6.11l.26.7a1.34 1.34 0 0 0 2.42.31c2.22-3.31 5.65-5.42 8.13-8.43a1.48 1.48 0 0 0 2.41.5 55.15 55.15 0 0 0 7.09-8.67l.25.48a1.54 1.54 0 0 0 2.63 0 38.64 38.64 0 0 0 5.38-10.14 1.19 1.19 0 0 0 2.25-.16c1.36-5.14 3.06-9.56 2.81-14.52a1.55 1.55 0 0 0 1.92-1.5 33.55 33.55 0 0 0-3.88-11.94 1.26 1.26 0 0 0 1.11-1.85 23.1 23.1 0 0 0-6.43-8.41 23.94 23.94 0 0 0-3.12-2.16c-.36-.31-.72-.61-1.1-.89-3.21-2.42-9.52-3.14-12-6.4v-1.42c.18-10.63.25-21.21-2-31.64-.39-1.76-3.43-1.4-3.22.44a212.46 212.46 0 0 1 1.22 26.56 7.19 7.19 0 0 1-1.7 2.73 10 10 0 0 1-1.57 1.3c-8.68 2.59-17.58 6.31-24.36 12.21a1.49 1.49 0 0 0 .5 2.47 25.94 25.94 0 0 0-7.21 14.28 1.7 1.7 0 0 0 1.08 1.81z" fill="#658a45"/><path d="M68.95 183.39a.35.35 0 0 0 .61.35 24.05 24.05 0 0 1 5-5.5c1-.63 4.2-2.49 4.15-2.58a1.29 1.29 0 0 0 1.14.65c1.6-.19 2.81-1.32 4-2.31 1-.84 2-1.65 3-2.41-.55 1.18-1.14 2.35-1.72 3.53L83 177.25c-1.56 1.53-3.14 2.84-3.8 5a1.13 1.13 0 0 0 .32 1.13q-2 2.89-4.08 5.74c-.16.23.19.48.38.29q1.83-1.78 3.69-3.54C77 190.36 74.38 195 73.2 200c-.05.22.26.37.37.16 1.16-2.26 2.39-4.48 3.66-6.67a49.54 49.54 0 0 0 3.54-5 1.23 1.23 0 0 0 .59.18c3.58.1 6.85-5.84 8.47-8.55.59-1 1.12-2 1.63-3a2.44 2.44 0 0 0 .74.53 1.58 1.58 0 0 0 1.82-.24c.08-.07.15-.16.23-.24a47.42 47.42 0 0 1 .76 6.07c0 .24.38.4.5.13 1.4-3 1.13-6.26.47-9.47a1.16 1.16 0 0 0-.71-.82 50.36 50.36 0 0 0 1-8.61l.39-1.26v.08a1 1 0 0 0 1.17.72c.11 2.07.1 4.14.16 6.21a.22.22 0 0 0 .45 0c.26-2.62.28-5.25.42-7.88a.48.48 0 0 0-.06-.25c.2-2.32.47-4.56.83-6.78a6.25 6.25 0 0 0 1.75 2.87c.95.69 1.43.24 2.22-.25l.22-.12a5.71 5.71 0 0 0 3.22 1.3 2.42 2.42 0 0 0 .74 0l.6.38c.15.09.26-.13.13-.22l-.28-.22c.24 0 .48.19.94.85 1.4 2 1.88 4.92 2.26 7.25 0 .25.46.19.44-.06-.21-2.8-.2-6.95-1.65-9.42-.85-1.45-1.37-1.25-2.79-1.55-1.18-1.45-2.76-3.52-2.66-5a1.77 1.77 0 0 1 .58-1.22c1.64 2.07 3.79 4.46 6.26 5.2a.15.15 0 0 0 .18-.18c-.71-2.75-2.94-5.37-4.34-7.85s-2.64-5.08-4-7.57l-.37-1.29a19.45 19.45 0 0 0 3.93 3.4c.3.19.6-.23.37-.48-3.94-4.28-4.59-11-7.74-15.89-.27-1.38-.56-2.75-.89-4.11-.32-3.89-1-7.8-1.09-11.59-.11-3.61-.11-7.22-.55-10.81a95.76 95.76 0 0 0-2.41-10.41c-.06-.27-.52-.22-.49.07.59 6.94 0 14.16 0 21.13 0 4.28.4 8.57.77 12.85a35 35 0 0 0-.9-3.87.4.4 0 0 0-.78.11c0 2.59-.15 5.14-.35 7.67-2.14 2.54-2.91 5.79-4.6 8.61-1.83 3.06-4.66 5.3-7 7.95-.2.22 0 .63.31.53A19.7 19.7 0 0 0 88 140a22 22 0 0 0-2.24 6.53 1.75 1.75 0 0 0 0 .65l-3.57 5.15a1.43 1.43 0 0 0 .8 2.2c-3.66 4.1-7.32 8.2-10.69 12.53a.45.45 0 0 0 .63.63 192.85 192.85 0 0 0 14.89-14.19l-.07.26c-.62 2.24 2.35 3.38 3.6 2 0 .46-.06.92-.1 1.38a62.06 62.06 0 0 1-6.83 8.86c-4.26 2.42-8.24 5.32-7.85 7.45a32.29 32.29 0 0 0-7.62 9.94z" fill="#4c6e31"/><path d="M78.74 198.8a23.45 23.45 0 0 0 4.32-2.26c1-.65 2.37-2.35 3.39-2.71.65-.23 1.54.26 2.4-.09l.32-.15a2.06 2.06 0 0 0 2.67-.47 7.36 7.36 0 0 0 1.61-4.58c1.23-2.87 1.62-6.26.06-8.9a.34.34 0 0 0-.61.08 29.72 29.72 0 0 0-.67 3.3 1 1 0 0 0-.82.91c-.09 1-.15 2.1-.28 3.14l-.15.36a14.76 14.76 0 0 0-.36-2.64c-.09-.49-.87-.37-.86.12 0 1.59-.88 3.3-1.79 4.85a9.36 9.36 0 0 0 .17-1.88.37.37 0 0 0-.68-.18 21.13 21.13 0 0 0-1.32 3.12c-.74.2-1.13.88-1.6 1.45a56.88 56.88 0 0 1-6.09 6.07c-.18.17.03.57.29.46z" fill="#90b36c"/><path d="M99.82 185.39a44.45 44.45 0 0 0 5.88-6.78c1.44.13 2-1.07 2.43-2.39 1.88-.09 2.76-.63 3.22-3.35a11.38 11.38 0 0 0-2.64-9.1 6.4 6.4 0 0 0-4.35-3.49.41.41 0 0 0-.4.68 8.29 8.29 0 0 1 2.11 3.68c-1.3-1.9-3.28-3.11-5-4.66a.27.27 0 0 0-.45.26c.34 2.2 1.51 3.81 2.44 5.79a17.46 17.46 0 0 1 1.09 3.27 16.59 16.59 0 0 0-3.48-3.28.32.32 0 0 0-.5.38 49.66 49.66 0 0 1 1.65 5.11c.43 1.25.82 2.51 1.23 3.77-.09.82-.19 1.64-.26 2.43v.09a40.93 40.93 0 0 0-3.57 7.2c-.13.41.36.61.6.39z" fill="#90b36c"/><path d="M101.91 125.5a20.77 20.77 0 0 0 4 6.82c1.72 1.81 3.9 2.83 5.4 4.71a31.14 31.14 0 0 0-6.24-3.95c-.42-.21-.91.33-.53.69a51.49 51.49 0 0 1 6.34 6.77c.6.82 1.14 1.68 1.67 2.55a35.43 35.43 0 0 0-4.06-1.68.41.41 0 0 0-.4.68 50.6 50.6 0 0 1 4.57 4.34c.23.27.44.55.64.83a23.07 23.07 0 0 0-5.78-3.34c-.22-.1-.56.13-.38.38 2.43 3.33 4.91 6.52 7 10.05v.1c.63 2.24.48 4.64 1.17 6.86a1.44 1.44 0 0 0 .53.73 1.12 1.12 0 0 0-.23.3c-1.82 3.58-2.08 6.85-2.61 10.76a.18.18 0 0 0 .32.14c1.69-2.43 2.46-5.32 3.88-7.93a1.53 1.53 0 0 0 2-1 39.31 39.31 0 0 0 .72-11.63 1.58 1.58 0 0 0 1.84-1.93A32.54 32.54 0 0 0 116.7 140a2.29 2.29 0 0 0 .66-3.25c-.8-1.55-3.46-3.12-4.81-4.13-.32-.24-.64-.46-1-.67s-.8-.55-1.21-.82c-2.8-1.81-5.29-4.05-8-6a.35.35 0 0 0-.43.37z" fill="#90b36c"/><path d="M70.19 191.93c.27.24.65.05.89.37.44.57.69 5.19.8 6 0 .32.57.48.64.09.42-2.46 1.33-5.69.22-8 .64-.82 1.25-1.66 1.84-2.51.86-1.23 1.6-3.28 2.89-4.06a.28.28 0 0 0-.22-.51 7.56 7.56 0 0 0-1.43.57c2-2.38 4.08-4.75 6.18-7.06a.25.25 0 0 0-.3-.39 63.11 63.11 0 0 0-5.57 3.57.72.72 0 0 0-.82-.13c-3.16 1.63-6.66 4.88-7 8.68-.17 1.8.69 2.31 1.88 3.38z" fill="#90b36c"/><path d="M67.11 178.19c-.14 2-.44 4.1-.77 6a.3.3 0 0 0 .57.16 45.77 45.77 0 0 1 2.76-6.9 1.33 1.33 0 0 0 .06-1.12 1.15 1.15 0 0 0 .72-.25C77 171.15 82.1 165 87.61 159c.15-.17-.06-.49-.26-.33-3.35 2.55-6.75 5-10 7.57a.75.75 0 0 0-.88 0c-2.23 1.54-4.35 3.26-6.42 5-1.35 1.14-3.58 2.5-4 4.31a2.28 2.28 0 0 0 1.06 2.64z" fill="#90b36c"/><path d="M61.3 156.58c.08 2.63 1.7 3.19 3.51 3-.22.28-.43.56-.63.87a1.15 1.15 0 0 0 .23 1.62 36.71 36.71 0 0 0-.56 7.71.31.31 0 0 0 .6.08c1.16-2.78 1.9-5.72 2.79-8.61 2.87-2.74 5.3-6.09 8.45-8.47a.27.27 0 0 0-.27-.46 54.45 54.45 0 0 0-6.62 3.6 55.29 55.29 0 0 1 11.29-11.44.27.27 0 0 0-.27-.46c-3.34 1.59-6.59 2.52-9.58 4.78 1.53-1.5 3-3.11 4.41-4.66 2.17-2.31 4.73-6 7.71-7.23a.27.27 0 0 0-.14-.52c-3.54.66-6.71 3.07-9.53 5.2-.72.55-1.44 1.11-2.13 1.69a2.15 2.15 0 0 0-.46-.5c5.5-5.63 11.11-10.57 18.32-14.24.26-.13.06-.48-.19-.44a34.41 34.41 0 0 0-10.65 3.48c1.64-1.57 3.31-3.13 5.06-4.55.54-.39 1.07-.79 1.59-1.22a26 26 0 0 1 6.4-3.52c.2-.07.27-.45 0-.48-3.36-.45-6.68.66-9.75 2.52-6 2.56-11.72 7.23-14.54 13-1 2.08-2.48 5.43-1.49 7.74a3 3 0 0 0 .87 1.19c-.87 1.63-1.71 3.28-2.49 5s-1.99 3.55-1.93 5.32z" fill="#90b36c"/><path d="M83.26 195.73a10.17 10.17 0 0 1 3.12-2.54c.4-.21 1.33-.83 1.7-.8.06 0 .63.41.82.49 1.56.59 2.6-.52 3.14-1.81a1.21 1.21 0 0 0 .49-.3 5.6 5.6 0 0 0 1-2.32 13.64 13.64 0 0 0 0-6.08c0-.31-.52-.22-.53.07a16.79 16.79 0 0 1-1.65 6.05c0 .1-.28.52-.33.68h-.28a14.1 14.1 0 0 0 .19-2.53.26.26 0 0 0-.51-.07c-.27 1-.43 2-.6 3a3.2 3.2 0 0 0-.71.85.85.85 0 0 0-.24-.13 2.84 2.84 0 0 0-2.27.7 11.57 11.57 0 0 0-3.74 4.42c-.08.26.23.53.4.32z" fill="#bedb97"/><path d="M102.33 181.45a39.59 39.59 0 0 1 3.95-5.2 2.34 2.34 0 0 0 2.41-.78 1.24 1.24 0 0 0 .34 0 1.09 1.09 0 0 0 1.12-1c1.29-1.91-.27-6.53-.9-8.28a.54.54 0 0 0-.56-.37 34 34 0 0 0-1.57-3.59c-.15-.3-.64-.09-.54.23a43.11 43.11 0 0 1 1.28 9.24c-.05-.23-.11-.45-.19-.68a11.49 11.49 0 0 0-1.55-2.8c-.16-.25-.59-.09-.49.21a20.87 20.87 0 0 1 .76 5.09 1.24 1.24 0 0 0-1.63.81c-.89 2.27-1.84 4.57-2.9 6.76a.27.27 0 0 0 .47.36z" fill="#bedb97"/><path d="M104.53 129.07a47.55 47.55 0 0 1 4.54 4.48c1.4 1.37 2.79 2.74 4.15 4.14a.93.93 0 0 0 .35.23c.46.43.87.7 1.16.66a1 1 0 0 0-.75.5l-.18-.18a6.2 6.2 0 0 0-1.48-1 9.87 9.87 0 0 1-2.12-.9c-.21-.16-.6.06-.41.32.7.93 1.54 1.69 2.31 2.55a25.79 25.79 0 0 1 2.29 3.28.94.94 0 0 0 1.12.41c.31.61.63 1.21.93 1.83l.13.29a13.46 13.46 0 0 0-4-2.9.22.22 0 0 0-.27.35 34.24 34.24 0 0 1 4.37 7.31 1.13 1.13 0 0 0-.32.85c.2 3.1.25 6.19.25 9.28a1 1 0 0 0-.95.72c-.36 1.42-.7 2.8-1 4.24-.07.37.47.53.57.16a6.08 6.08 0 0 1 1.14-2.49c.13.13.29.29.55.54a1.23 1.23 0 0 0 2.07-.86 55.34 55.34 0 0 0 .09-9.88c1.05 0 1.87-.68 2-2.19.33-2.92-2.39-7.37-4.14-10.33 1.87-2.18-5-7.76-6.2-8.71a.84.84 0 0 0-.69-.2 51.75 51.75 0 0 0-5.3-3c-.25-.21-.51.28-.21.5z" fill="#bedb97"/><path d="M82.92 179.95c-2.59 4.51-4.69 9.22-7 13.89-.11.23.22.44.35.21a101.07 101.07 0 0 1 7.75-11.19 1.26 1.26 0 0 0 1.29-.36 32.84 32.84 0 0 0 5.91-9.63c0 .15.09.31.14.45a2.7 2.7 0 0 0 1.51 1.68c.36.14.82 0 1.15.11l.39-.12a4.92 4.92 0 0 1 1.06 2.13.32.32 0 0 0 .62-.09 4.46 4.46 0 0 0-1.5-3.79c-.66-.6-.28 1.25-.94-1a7.59 7.59 0 0 1 0-1.92c0-1.41.06-2.82.08-4.23a1.16 1.16 0 0 0-.17-.61 15.49 15.49 0 0 1 1.26-4.56 11.86 11.86 0 0 0 1.44-2.58 27.6 27.6 0 0 0 1-8.5v-.17A24.59 24.59 0 0 0 99 153c.77 1.24 2 3.54 3.76 3.7.68.06 1-.42 1.65-.43 1.42 0 2.43 1 3.41 2.23.28.34.87-.11.61-.47-.77-1.07-1.91-3.2-3.13-3.76a7.74 7.74 0 0 1-2.17-1c-3.16-2.49-4.17-8.61-4.71-13.21 0-.35 0-.69.06-1a23.1 23.1 0 0 0 4.91 6.47c.15.14.46 0 .37-.22a111.3 111.3 0 0 1-4.9-15.3c0-1.23.05-2.45.07-3.65A152.23 152.23 0 0 0 95.76 94a.23.23 0 0 0-.46.06c.62 10.67.55 21.6.12 32.27 0 1-.11 2-.17 3a1.5 1.5 0 0 0-.43.95c-.35 3.28-.08 6.62-1.56 9.67-1.24 2.55-3.56 4.49-5.2 6.8a1.42 1.42 0 0 0 0 1.42c.07.14-5.76 7.83-6.19 8.47-.19.28.22.57.45.35 3.8-3.69 7.24-7.8 10.52-11.29.29-.31.56-.62.82-.93-.4 3.65-.75 7.3-.88 10.95-1.15 2.13-1.94 4.42-3.06 6.57-1.64 3.14-3.88 3.71-6.34 5.7-1.1.89-1.76 2-2.85 2.95a26.22 26.22 0 0 0-4.4 4.4c-.22.29.22.72.51.51a28.65 28.65 0 0 1 4-2.45c1-.48 2.46-.69 3.34-1.31.55-.39.73-1 1.24-1.46a40.14 40.14 0 0 1 3.4-2.15 10.89 10.89 0 0 0 1.52-1.48 36.36 36.36 0 0 1-5.83 12.3 1.25 1.25 0 0 0-1.39.65z" fill="#3c5925"/><path d="M85.31 179.4a39.26 39.26 0 0 0-5.58 8.05.15.15 0 0 0 .26.15 46.66 46.66 0 0 1 4.54-5.81c1.05-1 2.55-1.64 3.52-2.73 1.24-1.41 1.8-3.59 2.46-5.31.32-.83.64-1.68 1-2.52.24.58.52 1.15.76 1.78.08.2.42.19.4-.06-.11-1.27.23-2.63.23-3.9v-1.74c.14-.39.28-.79.42-1.18.69-2 .93-4 2.07-5.79a8.47 8.47 0 0 0 1.31-3 49.25 49.25 0 0 0 1-7.49c1.37 2.67 3.58 4.35 5.71 6.49.21.21.5-.1.31-.32-1.93-2.24-3.92-4.46-4.89-7.29a21.13 21.13 0 0 1-.88-3.7 51.3 51.3 0 0 0 1-6.51c.93 1.21 2.54 2.75 2.7 4 0 .29.48.3.46 0-.09-1.36-1-2.42-1.63-3.57A25.07 25.07 0 0 1 99 136.1c.31-6.08-.1-12.29-.31-18.05-.39-10.52-.32-20.82-3.69-30.89a.1.1 0 0 0-.2.05c2.13 10.12 1.88 21.29 1.74 31.6-.08 6.12-.39 12.13-.84 18.16l-.11.4a9 9 0 0 1-3.68 5.52 5.06 5.06 0 0 0-1.45 1.33c-.22.37 0 .44-.13.73a15.42 15.42 0 0 1-2.51 4.22c-.2.26.15.63.37.37 1.13-1.33 2.32-2.59 3.4-4 .58-.72.14-.55 1.12-1.32.77-.6 1.74-.9 2.51-1.53q-.28 3.15-.6 6.32a.9.9 0 0 0 .14.61c-.12 1.7-.23 3.4-.47 5.09-.3 2.13-1.21 3.5-1.92 5.34a10.35 10.35 0 0 0-.41 1.34 9.23 9.23 0 0 1-.88 1.19 30.53 30.53 0 0 1-3.51 2.8c-2.48 2.05-4.62 4.54-7 6.68-.19.17.08.42.28.28 3.15-2.45 6.49-4.58 9.83-6.75.2-.13.39-.27.58-.4 0 .12-.05.23-.09.35-1.33 4.72-2.49 10.25-5.86 13.86z" fill="#30471e"/><path d="M99.56 151.78a.17.17 0 0 0 .29-.17c-2.31-5.41-1.32-10.44-.62-16.06a56.73 56.73 0 0 0-.6-15.42c-.06-.44-.81-.34-.78.11a122.12 122.12 0 0 1-.46 18.76c-.39 4.44-.48 9 2.17 12.78z" fill="#243617"/><path d="M88.77 175.36a32 32 0 0 0 3.36-5.91c.92-2.47 1.4-5.07 2.19-7.59.08-.25-.31-.36-.39-.11a117.91 117.91 0 0 1-5.31 13.51.09.09 0 0 0 .15.1z" fill="#243617"/><path d="M70 190.84c.28.19.76.2 1 .38.79.62.93 2 1.08 2.88 0 .25.45.19.44-.06a11 11 0 0 0-.66-4l-.47-.27-.14-2.72a6.07 6.07 0 0 1 .83-1.38 15.59 15.59 0 0 1 3.1-3.4c.49-.41-.15-1.24-.69-.89-2.27 1.5-5.29 4-5.5 7a2.67 2.67 0 0 0 1.01 2.46z" fill="#bedb97"/><path d="M124.47 84.07c4.32.73 8.83 1.68 13.18 1.68a82.24 82.24 0 0 1 8.72 3.47c6.19 5.44 16.44 7.16 23.79 4.34a1 1 0 0 0 .3-1.58v-.05c7.93-.86 15.4-6.73 20.8-12a.91.91 0 0 0-.54-1.56l-.42-.06A72.12 72.12 0 0 0 200.53 70a1.2 1.2 0 0 0-.42-2l-.24-.1A64.58 64.58 0 0 0 210.14 56a.93.93 0 0 0-.5-1.39 14.45 14.45 0 0 0 1-1.49l.1-.14a1.15 1.15 0 0 0 .21-.44 12.67 12.67 0 0 0 1.23-4.21c0-.26-.35-.47-.53-.26a82 82 0 0 1-7.18 7.34c-4.19 2.59-9.55 4.21-13.63 5.88-5.85 2.4-11.66 4.94-17.6 7.12-5.64 2.07-11.67 2.92-17.25 5.12a26.61 26.61 0 0 0-7 4.1c-1.23 1-3.21 3.75-5.26 5.12a111.55 111.55 0 0 1-18.91-.17c-1.43-.13-1.65 1.27-.35 1.49z" fill="#658a45"/><path d="M125.31 84.12c4.63 2.08 10.79 1.77 15.76 1.62 1.46 0 2.92-.14 4.37-.25a.74.74 0 0 0 .27.11 43.55 43.55 0 0 0 15 .64c1.13-.18 4.45-.85 5-2.35 2.8-.48 5.62-.92 8.39-1.51 1.67-.36 4.14-.75 5.34-2.07a.87.87 0 0 0 .25-.65 49.87 49.87 0 0 1 8.64-.73.34.34 0 0 0 0-.68c-1.34-.19-2.67-.31-4-.39a19.65 19.65 0 0 1-2-.5.62.62 0 0 0-.27-.28 6.5 6.5 0 0 0-4.56-.09c1.56-.74 3.1-1.5 4.63-2.3s4.27-1.58 4.81-3.3a81.39 81.39 0 0 0 3.92-2.36q.89-.49 1.8-.95c1.9-1 4.09-1.68 5.81-2.94a4.35 4.35 0 0 0 1.53-1.71c1.65-.89 3.33-1.73 5.05-2.49.32-.14.13-.62-.19-.57A26.36 26.36 0 0 0 202 61a6.69 6.69 0 0 0 .44-.72.57.57 0 0 0-.22-.79c.69-.08 2.29-2.06 3-2.8a52.08 52.08 0 0 0 4.63-5.32c.11-.15-.12-.35-.25-.22-8.42 8.41-18.82 14.36-29.35 19.72-4.89 2.49-9.8 5.05-14.88 7.14-6 2.45-11.95 3.13-18.12 4.61a1.1 1.1 0 0 0-.73.57c-2 .21-4 .3-6 .39-5 .25-10.34-.64-15.2.33a.14.14 0 0 0-.01.21z" fill="#4c6e31"/><path d="M116.62 82c3.69.88 7.27 2.14 11.05 2.65 4.27.58 8.6.05 12.88-.15 3.58-.17 7.19-.29 10.75-.7a1 1 0 0 0 .82.58A28.06 28.06 0 0 0 163 82.77a1.69 1.69 0 0 0 1-.85c1.07-.18 2.2-.38 3.31-.62a.79.79 0 0 0 .61.05c2.5-.7 5.28-.38 7.45-1.88a.77.77 0 0 0 .26-.34 49.05 49.05 0 0 1 7.18-.1c.3 0 .42-.46.11-.54a46.41 46.41 0 0 0-8.36-1.35 1 1 0 0 0-.38-.51l.32-.2c1.83-.76 3.65-1.54 5.44-2.38a78.19 78.19 0 0 0 21.69-15.63.19.19 0 0 0-.25-.28 65 65 0 0 1-9.91 6.3c-3.73 1.93-7.05 4.51-10.84 6.37-3.53 1.74-7.25 3-10.94 4.41-4.08 1.52-14.22 4.74-14 5.47-.8.24-1.59.46-2.38.65A50.83 50.83 0 0 1 140 82.71c-7.76-.2-15.55-.45-23.28-1.18-.28-.03-.38.42-.1.47z" fill="#3c5925"/><path d="M148.36 83c3 .24 9.73.88 10.62-2.74 3.39-.4 12.49-1.16 11.51-5l9.22-2.78c2-.59 3.72-.93 5.08-2.53a1 1 0 0 0 .06-1l-.08-.13 6.65-2.71c1.86-.76 5.32-1.5 6.64-3.08a2 2 0 0 0 .34-2.29l3.93-3.25A.27.27 0 0 0 202 57l-5.53 3a.89.89 0 0 0 .11 1.62 1.11 1.11 0 0 0-.47.1.57.57 0 0 0-.53-.09c-4.82 1.47-9.87 2.73-14.44 4.91a.28.28 0 0 0 0 .45 127.89 127.89 0 0 0-13 3.82c-.31.1-.34.6 0 .62 1 0 2.08.06 3.13 0-1.77.61-3.53 1.24-5.34 1.7-3.56.9-7.21 1.33-10.79 2.14a.23.23 0 0 0 0 .45 16.9 16.9 0 0 0 2.55.54c-2.11.51-4.21 1-6.3 1.4-.18 0-.22.34 0 .38a37.42 37.42 0 0 0 5.53.76 1.58 1.58 0 0 0-.08.61c.08 1.12-7.69 1.89-8.55 2.14a.71.71 0 0 0 .07 1.45z" fill="#90b36c"/><path d="M183.57 76.89a14.64 14.64 0 0 0 2.87.18.26.26 0 0 0 .28.27c5.22-.28 10.84-1.84 13.56-6.74.18-.32.88-1.56.76-2.1 0-.22-.51-.93-.51-1 0-.28-.19-.09-.18-.5 0-.92 2.35-3.26 2.93-4 .07-.09-.07-.2-.15-.13a50.2 50.2 0 0 0-4.42 4.4.63.63 0 0 0 .07 1 1 1 0 0 1 .5 1.2h-.06c-2.59 2.05-5.49 2.94-8.65 3.76a1 1 0 0 0-.7 1.36 62.27 62.27 0 0 0-6.39 1.85c-.26.07-.12.41.09.45z" fill="#90b36c"/><path d="M144.57 86.77a30 30 0 0 0 4.23 3.28.44.44 0 0 0-.23.79c5.14 3.86 10.93 4.12 17.09 4.1 1.75 0 4.26.46 5.33-1.31a2.31 2.31 0 0 0 .35-1.12c6.49-1.51 13.53-5.91 17.2-11.26a.28.28 0 0 0-.42-.36 40.64 40.64 0 0 1-9.61 6.32c-4.69 1.19-10.55.8-15.24.14-.35 0-.46.5-.12.61a64.44 64.44 0 0 0 7.34 2.04l-.77.15a1.45 1.45 0 0 0-.49-.18c-2.3-.42-4.63-.41-6.93-.85s-4.41-.9-6.68-1.16a.31.31 0 0 0-.12.61c2.52.85 4.58 2.66 7.15 3.45h.05-.57c-5.58-2-12.14-2.48-17.21-5.77-.25-.06-.59.3-.35.52z" fill="#90b36c"/><path d="M154.55 82.79c1.18.24 4.83-.83 5.22-2.31 3-.58 11.92-2.21 11.93-5 2.34-.66 4.53-1.7 6.87-2.37 1.82-.52 4.57-.86 6.1-2.13a2.74 2.74 0 0 0 1-1.35c3.57-1.68 7.46-2.77 10.69-5.1a7.67 7.67 0 0 0 2.64-2.75c.43-.91-.73-.91.4-2.17a.11.11 0 0 0-.12-.18c-1.71.78-1.09 1.58-2.28 2.84-3.06 3.2-9.19 4-13.08 5.86a1 1 0 0 0-.1 1.79c-1.31-.8-5.55.92-7 1.35-2 .6-3.8 1.55-5.79 2.11a1.09 1.09 0 0 0-.61.42.79.79 0 0 0-.56 1.3c.54.75-6 2-6.57 2.12a28.21 28.21 0 0 0-4.87 1.9.82.82 0 0 0 .31 1.54q-2 .64-4 1.42c-.42.01-.63.62-.18.71z" fill="#bedb97"/><path d="M205.87 59.82A9.58 9.58 0 0 0 210 56c.3-.64.56-1.66.17-2.15a3.26 3.26 0 0 0 .69-2.63c-.05-.18-.36-.19-.35 0 0 1.06-.88 1.76-1.52 2.47a.56.56 0 0 0 .33 1 27 27 0 0 1-2 2.68c-.65.58-1.38 1.08-2.09 1.6-.47.31.11 1.16.64.85z" fill="#90b36c"/><path d="M127.85 82.84c4.87.46 9.7 1 14.59 1 4.2 0 9 .37 13.16-.35a21.07 21.07 0 0 0 4.4-1.68c1.14-.46 2.33-.82 3.52-1.17a.77.77 0 0 0 .16 0 22.27 22.27 0 0 0 5.5-1.17 16 16 0 0 1 6.87-.8.17.17 0 0 0 0-.34 35.68 35.68 0 0 0-5.49-.61c2.94-1.67 5.71-3.61 9-4.73.13 0 .1-.24 0-.21-4 .83-6.68 2.92-10.32 4.64a18 18 0 0 1-2.23.85c-1.22.3-2.44.67-3.59 1h-.08c-.56.15-1.11.31-1.65.48-1.72.55-3.57 1.42-5.29 1.85-4.42 1.13-9.34 1.07-13.88 1.13a136.72 136.72 0 0 1-14.64-.38.21.21 0 0 0-.03.49z" fill="#30471e"/><path d="M149.6 80.65a10.78 10.78 0 0 0-8.93-.77 2.29 2.29 0 0 0-.29-1.27c-2.63-4.46-10.65 4.4-12.13 6.22a1.51 1.51 0 0 0 .79 2.44 13.05 13.05 0 0 0-5.3 3.55 23.62 23.62 0 0 0-8.15 5.67c-2 2.12.51 5.58 3 4.11 1-.61 2-1.25 3-1.88a3.68 3.68 0 0 0 .46 1.91 3.07 3.07 0 0 0 2 1.51 2.67 2.67 0 0 0 .28.87c1.84 3.43 5.61 2.94 8.89 1.87l.38.11a2 2 0 0 0-1.14.46c-2.49 2-2.14 4.23-.85 6.31v.39c-1.81.86-3.59 1.8-5.34 2.82a2 2 0 0 0-1.51.3c-4.17 2.7-8.3 5.37-12.52 7.86-4.9-.22-11.29-.17-13.83 3.28a4 4 0 0 0-.82 2.77 22.23 22.23 0 0 1-2.67-1.63 2.48 2.48 0 0 0-3 .11c-.47-5.65 1.89-11.31 3.27-16.74.67-2.64-3-4.44-4.27-1.88-3.56 7.13-6.09 15.82-3.67 23.72 1.75 5.72 5.78 10.58 11.67 9.1a9.05 9.05 0 0 1 5.14.11 10.36 10.36 0 0 0 5.88 2.81 9.26 9.26 0 0 0 5.36-.36c-.09 0 2.22-1.46 2-1.41 1.23-.35 1.94.18 3.3.29 7.26.54 10.62-7.81 11.24-15a30.32 30.32 0 0 0 6.2-1.41 18 18 0 0 0 6-3.86c2.66-2.8 2.42-6.58 1.83-10.22-.71-4.44-2.54-7.07-5-8.64 5.86-.76 16.51-1.95 15-7.39a7.51 7.51 0 0 0-1.36-2.61A12.31 12.31 0 0 0 156 92c3.33-5.66-1.81-8.84-6.4-11.35z" fill="#db6594"/><path d="M85.45 102.14c-1.33 2.61-2.65 5.22-3.95 7.86-1.21 1.82-2.48 3.61-3.78 5.38a3 3 0 0 0-3.48 3.51c0 .12 0 .23.06.35a2.85 2.85 0 0 0-.64 0 3.1 3.1 0 0 0-.59-.25c.6-2-.44-4.68-2.78-4.41-1.37.16-2.69.49-4 .77A2.94 2.94 0 0 0 64 115a5.54 5.54 0 0 0-1.61.79h-.29a2.5 2.5 0 0 0-.69-2.5 5.94 5.94 0 0 0-.43-.88 16.75 16.75 0 0 0 3.94-3.41c1.56-1.85.14-4.74-2.2-4.21.72-.68 1.43-1.32 2.08-1.88 1.83-1.56.68-4.73-1.26-5.39a.72.72 0 0 0 0-.77c-1.32-1.94-3.12-1.6-5-.69a17.71 17.71 0 0 0-3.66-1.62 6.32 6.32 0 0 0-.78-2.16 3.66 3.66 0 0 0-.44-1.43 1.19 1.19 0 0 0-.45-1v-.18a2.07 2.07 0 0 0-.07-.37c.75.25 1.28.67 1.24 1.28 0 .86 1.14.81 1.24 0a3.18 3.18 0 0 0-1.58-3 7.69 7.69 0 0 1 3.84 1.69.6.6 0 0 0 .83-.87 13 13 0 0 0-3.54-2.53c-3-3.05-8.34-4.12-12.12-1.76a7.12 7.12 0 0 0-3.25 4.32 5.44 5.44 0 0 0 .06 2.89 10.3 10.3 0 0 0 1.38 2.28 31.83 31.83 0 0 0-2.42 2.21 2 2 0 0 0 0 2.66 13.9 13.9 0 0 0 9.44 4.11 9.21 9.21 0 0 0 1.24.68 15.1 15.1 0 0 0-3.22 1.94c-2.84 2.47-3.49 7.92-2.79 11.46s-.49 8 1.38 11.22a6.2 6.2 0 0 0 3.08 2.79 6.44 6.44 0 0 0 1.93.3c0 .45.17 2.81.32 3.53.93 4.63 2.47 5 6 6.34 1.31.51 2.23 1.7 3.73 1.91s2.65-.81 4.14-.86c1.89-.07 2.91.87 5-.22s3.61-3 5.14-4.92c3.12.65 5.08-4.73 5.93-7.85 2.37-8.67 7.32-16.18 10.34-24.58 1-3.05-3.58-5.02-5.03-2.18z" fill="#db6594"/><path d="M82.52 107.54a38.58 38.58 0 0 0-2.24 4.69 2.45 2.45 0 0 0-3.9-.31c-1.74 1.92-5.18 6.1-6.38 9.92l-1.52.65a3.12 3.12 0 0 0-3.37-1.57l-3 .84a.54.54 0 0 0-.36.09l-.16-.09a5.85 5.85 0 0 1-.14-.65 2.43 2.43 0 0 0-2.35-1.92c-1.56-3.85-.17-7.76 1.46-11.69a10.08 10.08 0 0 0 3.65-2.12 2.49 2.49 0 0 0 .3-3.27 2.48 2.48 0 0 0-3.13-2.39c-.71.15-1.41.35-2.11.56-1.19-2-1.67-4.81-2.06-6.83-.57-3-.19-6-.88-8.92-.41-1.73-3.1-2.33-3.89-.52a7.87 7.87 0 0 0-.38 1.14 12.42 12.42 0 0 0-1 2.52c-.69-.23-1.37.72-.82 1.45.14.18.29.35.44.52a14.11 14.11 0 0 0-.1 2.12L49 90.84c-.63-.36-1.18.35-.93 1a11.43 11.43 0 0 0 3.17 4.44 8.39 8.39 0 0 1-3.11-1.17c-.72-.45-1.8.52-1.25 1.31a12.28 12.28 0 0 0 2.61 2.7c-.33.05-.67.12-1 .2a11.62 11.62 0 0 1-8.93-1.87c-.46-.36-.88.31-.71.74 1.43 3.62 4.78 5.43 8.4 5.92a5.22 5.22 0 0 0-1.86 3.62.49.49 0 0 0 .61.49c1.26-.23 2.36-.93 3.61-1.18a14 14 0 0 1 2.5-.23 7.82 7.82 0 0 0-2.22 4.14c0 .26.1.55.39.54a7.57 7.57 0 0 0 1.8-.32 16.6 16.6 0 0 0-.89 9.87.69.69 0 0 0 1.28.17 13.45 13.45 0 0 0 1-1.75 13.85 13.85 0 0 0 .63 2c-.55.61-1.07 1.26-1.56 1.9s-1.66 2-1 2.94a.51.51 0 0 0 .94-.13c-.08.34.26 0 .45-.08l.65-.29a12.77 12.77 0 0 0 1.65-1l.54-.38a10.82 10.82 0 0 0 1.28 1.4c-.73 1.88-1.1 4 .18 5.3A3.1 3.1 0 0 0 59 132l-.25.3c-.52.6 0 1.8.8 1.47a13 13 0 0 0 2.48-1.34 5.28 5.28 0 0 1-1 1.37.72.72 0 0 0 .47 1.21 6.12 6.12 0 0 0 3.29-1.17.81.81 0 0 0 1.26 0q1.33-1.34 2.63-2.71a2.74 2.74 0 0 0 .81 1.09c-.76 1.46-1.59 2.88-2.37 4.22a.94.94 0 0 0 1.45 1.18 30.84 30.84 0 0 0 5.3-5.94c.1-.12.18-.25.28-.38a9 9 0 0 1-2.47 4.82.29.29 0 0 0 .12.47c2.93.72 5.39.54 6.82-2.75a20 20 0 0 0 1-2.82 24 24 0 0 0 1.61-3.93c1.93-5.88 4.28-11.51 6.38-17.32 1.15-3.17-3.49-5.03-5.09-2.23z" fill="#b84271"/><path d="M150.91 90.22c-1.86.65-3.53 1.6-5.29 2.37.06-.14.12-.29.17-.43a.74.74 0 0 0 0-.45 5.75 5.75 0 0 0 3.39-2.52.75.75 0 0 0-.41-1.08 13.45 13.45 0 0 0-2.6-.53 15.53 15.53 0 0 0 4.33-.7.53.53 0 0 0 .22-.85c-3-3.28-7.3-3.39-11.27-3.27a13.08 13.08 0 0 0-6.71 2.47 9.4 9.4 0 0 0-3.64 2.31 10.84 10.84 0 0 0-5 3.85c-1.52 2.16 1.44 5.26 3.49 3.69a21.4 21.4 0 0 1 2.25-1.55 1.9 1.9 0 0 0 1.29-.33c.23-.16.44-.32.66-.49h.09a2.35 2.35 0 0 0 2 1.89 2.75 2.75 0 0 0 .37 3.47H134a2.3 2.3 0 0 0-1.39 3.23 2.66 2.66 0 0 0 .34 4.2 5.13 5.13 0 0 1 .85.71l.13.15c3.45 4-5.74 9.88-8.14 11.86-4.41 3.65-7.19 6.6-13.06 7.31a64.1 64.1 0 0 0-10.85 1.83c-.46-2.6-4.43-2.43-5 .08a11.86 11.86 0 0 0-.21 1.65 23.05 23.05 0 0 1-5.46 1.12v-3c0-3.17-3.94-3.35-4.95-.68a9.77 9.77 0 0 0 1 8.6c1.46 2.32 2.77 3.34 5.34 3.75a.52.52 0 0 0 .48-.86c-.86-.89-1.14-2.9-1.39-4.3.14 0 .29.06.43.1a5.85 5.85 0 0 0 1.14 3.73.79.79 0 0 0 1 .32 2.34 2.34 0 0 0 2.16.43 3.48 3.48 0 0 0 1.58-1.12 2.94 2.94 0 0 0 .89-.07 3.46 3.46 0 0 0 2.12-1.42c0 .13.09.26.14.4.52 1.31 1 2.36 2.32 2.79a.5.5 0 0 0 .53-.88c-.31-.31-.2-1.28-.24-1.69-.07-.62-.18-1.23-.26-1.85 0-.15-.06-.29-.08-.44 1.06 2.67 3.5 5 5.06 7 .25.32.77 0 .66-.4a51.83 51.83 0 0 1-1-5.63v-.14a5.86 5.86 0 0 0 .56.49c.85.62 2 1.18 3 .51a1.65 1.65 0 0 0 .68-1.85 3.62 3.62 0 0 0 3 1.84 2.76 2.76 0 0 0 2.58-1.88c.08.11.16.23.24.33a7.26 7.26 0 0 0 2.72 2.1c.47.22 1.22-.3.82-.86a13.25 13.25 0 0 1-1.44-3.62c-.11-.35-.25-.68-.38-1a3.66 3.66 0 0 0 2.63.9 3.47 3.47 0 0 0 2.48-1.21 3.24 3.24 0 0 0 .64-1.34 1.33 1.33 0 0 0 .27 0 2.24 2.24 0 0 0 1.18-.65 1.91 1.91 0 0 0 .52-1.35c.21.19.41.39.63.56 1.58 1.21 3.72 1.75 5.07-.06a.64.64 0 0 0 0-.86c.09.08-.18-.3-.27-.44-.19-.32-.48-.63-.7-.93-.45-.61-.86-1.25-1.31-1.86l-.14-.2a16.37 16.37 0 0 0 2.7.55.62.62 0 0 0 .46-1.12 10.46 10.46 0 0 1-1.45-1.35h.07a17.06 17.06 0 0 1 2.16 1.23c1.13.72 2.18 1.8 3.54 2a.33.33 0 0 0 .27-.49 10.72 10.72 0 0 1-.83-2.44 8 8 0 0 0-1.57-2.58c-.12-.13-.27-.27-.41-.41a5.72 5.72 0 0 0 2.05-.68.61.61 0 0 0 .12-.91 5.91 5.91 0 0 0-1.12-1.09c.23-.25.47-.5.69-.76a1.63 1.63 0 0 0 .47.36c.5.25.94.6 1.46.8s1.16.28 1.74.47c.74.25 1.15-.87.54-1.29a2.56 2.56 0 0 0 1.44-2.23 7.74 7.74 0 0 0-.38-2.79c.2.17.4.34.58.51.44.42 1.42.17 1.34-.59a19.69 19.69 0 0 0-.18-3.15 5.13 5.13 0 0 0-2-2.95 12.57 12.57 0 0 0-4-1.74c3-.57 5.81-2.44 6.41-5.47 2.82-1.34 5.66-3.27 6.65-6.44a.52.52 0 0 0-.76-.69zm-39.34 43.18c-.1-.19-.32-.41-.44-.61a7.42 7.42 0 0 1-.64-1.21h.71a8.77 8.77 0 0 0 .73 1.79.48.48 0 0 0-.36.03z" fill="#b84271"/><path d="M147.19 85c-1.57-3.09-5.91-3.5-8.89-3a16.19 16.19 0 0 0-10.3 6.51 2.27 2.27 0 0 0 1 3.42c-.61 1.15.32 2.83 1.69 2.36s2.65-1.16 4-1.66a8.3 8.3 0 0 0 3.24-1.63.5.5 0 0 0-.09-.76 7.46 7.46 0 0 0-2.85-.82 12 12 0 0 1 4.61-2.35c2.44-.54 5.33-.13 7.47-1.67a.35.35 0 0 0 .12-.4z" fill="#99345c"/><path d="M146.45 94a6.24 6.24 0 0 0-2.35.82c-.78.52-1 1.28-1.59 1.88a5.39 5.39 0 0 1-3.17 1 1.56 1.56 0 0 0-.27-1.82.82.82 0 0 0-.42-.26 6.38 6.38 0 0 0 1.8-2.89.59.59 0 0 0-.85-.69c-2.08 1-4.59 1.14-6.59 2.33a2.28 2.28 0 0 0-1.01 1.88v.26a2.15 2.15 0 0 0 .79 1.63 2 2 0 0 0-.23 1.81 1.66 1.66 0 0 0 2 1 3.78 3.78 0 0 0 .45-.12 1.78 1.78 0 0 0 .29.41 7 7 0 0 0-1.24.47c-1.91 1-.73 3.56.94 3.75l.72.09a2.09 2.09 0 0 0-.71 2.7 1.74 1.74 0 0 0 2 .83 2.17 2.17 0 0 0 1.14-.71 1.41 1.41 0 0 1 .27-.05 6.79 6.79 0 0 1 .79 0 3.31 3.31 0 0 1 1.92.53c.43.37 1.06-.25.63-.67s-.89-1.14-1.4-1.67a10.47 10.47 0 0 1 3.32 1.78c.32.27 1 0 .79-.49-.78-2.34-1.47-4.15-3.52-5.57a7.9 7.9 0 0 0-.86-.52 22.86 22.86 0 0 0 2.5-1.05 4.15 4.15 0 0 0 2.39-2c.62-1.42.73-2.94 1.85-4.12a.37.37 0 0 0-.38-.54z" fill="#99345c"/><path d="M81.27 112.52c-.15.23-.27.48-.4.72a1.66 1.66 0 0 0-.78.31 13.49 13.49 0 0 0-3.09 3.12 1.46 1.46 0 0 0-1.25.41 24.81 24.81 0 0 0-4.15 5.65c-.8 1.41-1.82 3-1.47 4.69a.41.41 0 0 0 .76.1 38.44 38.44 0 0 1 3.85-4.39 2.39 2.39 0 0 0 .57.71c-.35 1.41-.8 2.84-1.17 4.05a.5.5 0 0 0 .91.4c.8-1.22 1.77-2.69 2.79-4-.53 3.6-1 7.23-2.4 10.54-.17.4.18.86.59.62a13.26 13.26 0 0 0 5.85-8.19c1.25-4.32 2.87-9.24 3.2-13.72.11-2.19-2.78-2.68-3.81-1.02z" fill="#99345c"/><path d="M63 96.31a16 16 0 0 0-3.76 1.29 2.12 2.12 0 0 0-1.11-2.05c-1.45-.61-2.58-.85-3.67-2.09a6.94 6.94 0 0 1-1.6-4.71.38.38 0 0 0-.7-.2c-1.36 2.37-1.15 4.42-.06 6.83.1.22.21.41.32.61a2.73 2.73 0 0 1-.24-.17c-.58-.51-1.28.25-.83.87a12.1 12.1 0 0 0 3.22 2.75l.25.18c-.44.17-.89.32-1.34.45a27.88 27.88 0 0 1-10.84.43c-.35 0-.4.47-.17.64a19.24 19.24 0 0 0 6.67 3 11.15 11.15 0 0 0-1.82 1.86c-.15.19-.07.56.21.53 2.58-.22 5.31-.34 8-.7a10.5 10.5 0 0 0-2.37 2.55.32.32 0 0 0 .17.46 3.52 3.52 0 0 0 2.49-.25 2.07 2.07 0 0 0 1.48 1.51c-.86 1.34-1.73 2.66-2.49 4.07a.39.39 0 0 0 .51.54 13.1 13.1 0 0 0 6.4-6.39 16 16 0 0 0 1.2-1.14 2.05 2.05 0 0 0-.27-3.2c.41-.18.82-.35 1.21-.56a2 2 0 0 0 .62-2.93c.18-.17.38-.33.56-.51A2.17 2.17 0 0 0 63 96.31z" fill="#99345c"/><path d="M112.42 131.51c-.75-1.17-.19-2.89-1.56-3.71a1.32 1.32 0 0 0-1.4 0 5 5 0 0 0-.69.71c-.17-.36-.29-.72-.49-1.06a.89.89 0 0 0-.21-.24l-.12-.46a1.27 1.27 0 0 0-2.21-.4 3.24 3.24 0 0 0-.81-.84 2 2 0 0 0-2.14 0 3.08 3.08 0 0 0-.81.77 1.27 1.27 0 0 0-1.44 1.66c.29.79.68 1.61 1 2.44.08.33.16.66.26 1a1.58 1.58 0 0 0 2.67.8l.28.49c.69 1.23 1.76 2.22 2.42 3.43a.44.44 0 0 0 .79-.35c-.24-.94-.13-2-.31-3 0-.17-.07-.33-.11-.5a1.93 1.93 0 0 1 .43.6.49.49 0 0 0 1-.14 8.48 8.48 0 0 0 0-1.64 1.8 1.8 0 0 0 .53-.13 4.79 4.79 0 0 0 .46-.24l.18.26a4 4 0 0 0 1.48 1.46c.44.29 1.19-.31.8-.91z" fill="#99345c"/><path d="M101.22 132.76c-.59-2.09-.36-4.37-1.23-6.36-.55-1.26-2.33-.55-2.37.68a6 6 0 0 0 .28 1.92 1.26 1.26 0 0 0-1-.08 20.7 20.7 0 0 0-1.09-2.21c-.87-1.58-2.82-.42-2.62 1.17 0 .18.05.36.08.53a1.54 1.54 0 0 0-1.87 1.5v.18a1.3 1.3 0 0 0-1.31 1v-1.5a1.76 1.76 0 0 0-3.28-.92c-2.81 4.83 1.42 10.2 5.73 11.33a.43.43 0 0 0 .46-.63c-.31-.73-.43-1.48-.8-2.19s-1-1.58-1.4-2.41a6.35 6.35 0 0 1-.68-3.14 1.44 1.44 0 0 0 0 .16 15.49 15.49 0 0 0 1.26 3.15c.25.51 1.07.15.89-.4a2.93 2.93 0 0 1-.12-.7 1.51 1.51 0 0 0 2.27-.94c0-.18.07-.37.11-.56a2.41 2.41 0 0 0 1.12 1.16 1.66 1.66 0 0 0 2-.3 1.34 1.34 0 0 0 .39.48.53.53 0 0 0 .66-.09l.07-.09a.49.49 0 0 0-.08-.73 2.88 2.88 0 0 1-.22-1.14 6 6 0 0 0 .15-.8c.43.85.92 1.67 1.34 2.49s1.48.21 1.26-.56z" fill="#99345c"/><path d="M138.17 113.16c-.89-1.22-2.17-3.88-4-3.61a2.22 2.22 0 0 0-1.73 1.65 2.36 2.36 0 0 0-.06.52 8.85 8.85 0 0 0-1.4-.2 1.36 1.36 0 0 0-1.46 1.07c-.33-.29-.66-.58-1-.85-1.31-1-3.25 1-2.29 2.4a17.14 17.14 0 0 0 2.62 2.94 1.55 1.55 0 0 0-.68.49 3.2 3.2 0 0 0-.55 1h-.25a1.12 1.12 0 0 0-.87 1.11 1.24 1.24 0 0 0-1.05 2.06 3.93 3.93 0 0 0 1.32 1 4.23 4.23 0 0 1 1.12.56.85.85 0 0 0 1.17-1.23 5.33 5.33 0 0 1-.31-.46h.11a1.55 1.55 0 0 0 1.67 0l.15-.13c.39.07.75 0 1.13.07a.69.69 0 0 0 .51-1.25 2.36 2.36 0 0 1-.48-1 22 22 0 0 1 3.32 2.26.36.36 0 0 0 .5-.52c-1.25-1.5-2-3.48-3.18-5.09a3.25 3.25 0 0 0 3.11 0 2.43 2.43 0 0 0 .89-2.09 3.6 3.6 0 0 0-.05-.49 8.3 8.3 0 0 1 .91.61c.6.51 1.28-.21.83-.82z" fill="#99345c"/><path d="M120.65 129.42c-.29-.66-.38-1.38-.68-2a.9.9 0 0 0-1.56 0 1.52 1.52 0 0 0-1.28-1.41 1.49 1.49 0 0 0-.17 0v-.06a1.49 1.49 0 0 0-2.77.8v.18a1.11 1.11 0 0 0-.79 1.41 13.63 13.63 0 0 0 .67 2c.28.62.66 1.17.94 1.79s1.2.45 1.48-.07a13 13 0 0 0 1.71 1.45c.52.37 1.1-.25 1-.81a23.3 23.3 0 0 0-.54-2.31v-1.51a4.12 4.12 0 0 0 1.06 1.38.65.65 0 0 0 .93-.84z" fill="#99345c"/><path d="M123.18 128.48a6.79 6.79 0 0 0-.69-2.46 1 1 0 0 0-1.79.52 2.89 2.89 0 0 0 .3 1.46c.22.39.53.72.78 1.1a.75.75 0 0 0 1.4-.62z" fill="#99345c"/><path d="M50.53 84.61c-2.58-1-5.2-3.14-7.87-.76a6.3 6.3 0 0 0-2.45 4.06 2.27 2.27 0 0 0-.65 1 3 3 0 0 0 1.21 3.4A7.87 7.87 0 0 0 44 93.44a11 11 0 0 0 3.3-.32c.44-.07.41-.81 0-.9A8.25 8.25 0 0 1 45 91c-.22-.14-.43-.29-.65-.44a2.78 2.78 0 0 0 .56-2h.18a4.91 4.91 0 0 0 1.55 0 13.24 13.24 0 0 1 1.75-.51.47.47 0 0 0 0-.94 5.05 5.05 0 0 1-2.12-1 14.08 14.08 0 0 1 4.14-.48c.59.04.64-.82.12-1.02z" fill="#eb84ad"/><path d="M49 115.66a10.94 10.94 0 0 0-2.82.55 12 12 0 0 1 .44-3.49.38.38 0 0 0-.69-.3 11.27 11.27 0 0 0-2 7.95c-.09.13-.18.25-.27.39a1.47 1.47 0 0 0-.22 1.06c-.82 1.95 0 4.68 1.6 6.21 1.12 1.1 3.51 0 2.85-1.75-.22-.58-1.09-2.92-1.07-2.94a2 2 0 0 0 .8-2.27 4.18 4.18 0 0 0 1.27-2.3 2.12 2.12 0 0 0-.69-1.77 6.1 6.1 0 0 1 1-.6.4.4 0 0 0-.2-.74z" fill="#eb84ad"/><path d="M67.05 134.26c-1-.4-2.19.9-3 1.47-.55.41-1.11.82-1.68 1.21a2.81 2.81 0 0 0-1-.11 14.19 14.19 0 0 0 1.89-5.83.39.39 0 0 0-.59-.35 38.22 38.22 0 0 0-4.77 4.09 2.13 2.13 0 0 0-1.78.23c-.26.16-.51.32-.74.49a6.44 6.44 0 0 0 .59-.92 18.94 18.94 0 0 0 .83-2.54.33.33 0 0 0-.54-.33 8.25 8.25 0 0 1-1.94 1.09h-.1c.09-.18.17-.35.24-.52.16-.43.21-.86.37-1.29a.45.45 0 0 0-.41-.57 4.74 4.74 0 0 0-1.44.21l.54-1.14a.31.31 0 1 0-.53-.33c-.13.2-.5.2-.7.26a3.36 3.36 0 0 0-.71.34 3 3 0 0 0-1.15 1.34 1.17 1.17 0 0 0 0 1.08 2.21 2.21 0 0 0-.17 3.26 5.92 5.92 0 0 1 .38 1.23 7.62 7.62 0 0 0 1 1.94 5.3 5.3 0 0 0 3.18 2.15 1.64 1.64 0 0 0 .7 0 6.27 6.27 0 0 1 1 .73 3 3 0 0 0 1.34.76 2 2 0 0 0 1.56.63 4.27 4.27 0 0 0 1-.14 2.18 2.18 0 0 0 2.71-.48c.64-.73 6.14-7.09 3.92-7.96z" fill="#eb84ad"/><path d="M128.55 132.71c-.31-.78-.87-1.45-1.19-2.25-.08-.21-.4-.13-.44.06a5.7 5.7 0 0 0-.08 2.81 7.67 7.67 0 0 0-1.4.44l-.1.06a3.68 3.68 0 0 1-.28-.73.5.5 0 0 0-1 .14c0 .5-.14 1-.2 1.47v.4c-.52-.58-1-1.18-1.51-1.78a.5.5 0 0 0-.85.38c.06 1 .1 2.12.24 3.17a1.53 1.53 0 0 0-.07.19.5.5 0 0 0-.46 0 1.68 1.68 0 0 0-1.54-1.09c-1.67-.09-2.46-.35-3.94.57-.53.33-.1.47-.54.25-.17-.09-.36-.66-.61-.81a.73.73 0 0 0-.47-.17h-.18a.8.8 0 0 0-.55.76 5.34 5.34 0 0 0 .44 2.41 2.42 2.42 0 0 0-.36.22l-.07.06a12.5 12.5 0 0 1-2-2c-.35-.53-1.05-.08-.82.51.35.86.55 1.87.88 2.79-.45 0-.88-.37-1.22-1.49a.55.55 0 0 0-1.09.16 4 4 0 0 0 4.3 4.31 17 17 0 0 0 3.72-1 7.09 7.09 0 0 0 3.21-1.69 1.73 1.73 0 0 0 .16-.22 3.47 3.47 0 0 0 4.2-1.24 1.91 1.91 0 0 0 1.07-1.39 2.56 2.56 0 0 0 0-.56 1.66 1.66 0 0 0 .8-1.33 2.16 2.16 0 0 1 .08-.47c.56-.35 1.22-.64 1.36-1.37a1 1 0 0 0 0-.2h.09a1 1 0 0 0 .42-1.37z" fill="#eb84ad"/><path d="M146.7 118.43a1.44 1.44 0 0 0-.15-.57v-.06a1.18 1.18 0 0 0-.4-.4c-.13-.51-.24-1-.4-1.54a.34.34 0 0 0-.66.1v.76a1.42 1.42 0 0 1-.65-.44c-.22-.38-.73 0-.56.35s0 .63 0 .9a4 4 0 0 0 0 .45 3.2 3.2 0 0 1-.68-.18c-.42-.18-.79.51-.45.81a3.81 3.81 0 0 1 .54.64 1.87 1.87 0 0 0-1 .68l-.56-.19c-.64-.22-1.24-.55-1.87-.83-.34-.15-.8.31-.45.6.63.53.78 1.62 1.34 2.26a5.61 5.61 0 0 0 .78.73c-.48.05-1 .16-1.42.22a5.12 5.12 0 0 0-.83.13c-.31.1-.41.3-.67.5s-.12.68.22.57c.13 0 .43.19.55.26a5.82 5.82 0 0 0 1 .47 5.37 5.37 0 0 0 .63.17 6.32 6.32 0 0 1-2.88.59c-.09 0-.11.15 0 .17a5.59 5.59 0 0 0 3.84-.55.26.26 0 0 0 .13-.15 2.48 2.48 0 0 0 .59-.15 1.17 1.17 0 0 0 .76-1.29 1.78 1.78 0 0 0 1.84-1 1.68 1.68 0 0 0 .73-1.9 1.06 1.06 0 0 0 .16-.19 1 1 0 0 0 .55-.66 2.91 2.91 0 0 0-.03-1.26z" fill="#eb84ad"/><path d="M155.35 95.39a2.92 2.92 0 0 0-1.56-.8 3.56 3.56 0 0 0-1.53.2.57.57 0 0 0-.14 1l.14.09-.72.41a12.92 12.92 0 0 1-2 .83.67.67 0 0 0 0 1.27 15.37 15.37 0 0 0 2 .36 1.91 1.91 0 0 0-.62 1c-1.49.87-3.57 1-5.18 1.14-.59.06-.82 1-.15 1.11a13 13 0 0 0 7.62-.19 1.78 1.78 0 0 0 1.08-1.1 3.6 3.6 0 0 0 .79-1 1.08 1.08 0 0 0 .81-.59 3.23 3.23 0 0 0-.54-3.73z" fill="#eb84ad"/><path d="M155.83 89.26a1.41 1.41 0 0 0 .74-.67 1.39 1.39 0 0 0-.07-1.43 1.71 1.71 0 0 0-.23-1 1 1 0 0 0-.3-1.26 2.47 2.47 0 0 0-2.17-.58 5.7 5.7 0 0 0-.78.21c-.12 0-.51.25-.74.32a.6.6 0 0 0-.84.33c-.21.74.53 1.08 1.14 1.22.26.06.5.09.75.13a1.63 1.63 0 0 0-.53 1.16l-1.74.46a.49.49 0 0 0 .13 1c1 0 2 .09 3 .17h.68a6 6 0 0 0-2 .87c-.18.12-.25.47 0 .58a5.73 5.73 0 0 0 1.22.43 8.15 8.15 0 0 0 1.51.12 1.07 1.07 0 0 0 1-1.21 1 1 0 0 0-.77-.85z" fill="#eb84ad"/><path d="M142.82 59.35c-.33-1.47-1.31-1.85-2.25-2.86l-.14-.17a19.48 19.48 0 0 1-.9-2.14C139 52.36 139 50 137 49.75c-.86-.11-1.53.37-2.43.06-.41-.14-.64-.48-1-.58a1.77 1.77 0 0 0-1.68.3c-1.54.93-2.67 2.62-4 3.75a2.67 2.67 0 0 1-1.29.76c-.21 0-.47-.36-.74-.3-.46.1-.64.39-1 .56s-.06.58-.78.64c-1.58.12-.76-1.18-1.69-1.33a1.5 1.5 0 0 0-1 .19.9.9 0 0 0-.6.14c-1.72 1.19-2.68 3.18-3.53 5.08a.43.43 0 0 0 .2.61c-1.51 4.66-1.21 9.91-2.05 14.74-.23 1.32-.51 2.61-.83 3.9q-.59 1.4-1.28 2.77a48.49 48.49 0 0 1-6.34 9.71c-1.47 1.73-4 3.56-4.71 5.91a9.75 9.75 0 0 1-.42-.92c-.38-1-1.63-.21-1.5.67a6.22 6.22 0 0 0 2.2 4.24 2.55 2.55 0 0 0 1.64.84c3.57 1.18 8.73-.63 12-1.88 6.72-2.57 12.06-7.37 16.34-13.35 4.59-6.43 8.93-14.29 10.12-22.3a13.84 13.84 0 0 0 .19-4.61z" fill="#eb84ad"/><path d="M142.79 58c-.07-.11-.12-.23-.19-.33a22.49 22.49 0 0 1-2-2.71c-.53-1.09-.55-2.47-1.15-3.5a2.86 2.86 0 0 0-1.81-1.56c-.08 0-.12.08-.08.13 1 1.2.73 2.92 1.06 4.39v.11a7.13 7.13 0 0 1-1.21 4.47c-.79 1.07-1.38 1.52-1.34 3 0 1.68.84 2.66-.23 4.36a14.18 14.18 0 0 0-.9 1.15 5.48 5.48 0 0 0-.47 2.71 5.26 5.26 0 0 1-.85 3.59 11.3 11.3 0 0 0-1.26 4.72 32.47 32.47 0 0 1-.31 3.59c-.4 2.07-1.39 3-2.83 4.32-1.86 1.66-3.21 3.8-4.84 5.69-.89 1-2 2.38-3.22 3.59-.76.52-1.51 1-2.27 1.47a21.21 21.21 0 0 1-8.13 2.92 15.25 15.25 0 0 1-7.35-2.11.74.74 0 0 0-.88.13 9.41 9.41 0 0 1-1-.91c-.63-.68-1.86.24-1.31 1.06a9.13 9.13 0 0 0 8.49 4.06c9.3 1.68 20.23-6.78 25.85-13.62 5.77-7.05 15.08-22.44 8.23-30.72z" fill="#ffb8d4"/><path d="M139.74 53.48a4.93 4.93 0 0 0-2.06-3.35c-.07 0-.15 0-.11.12a8.81 8.81 0 0 1 .75 4.56c-.13 2.35-.57 2.85-1.74 4.75s-.94 4.27-.7 6.52c-1.65.58-1.75 2.92-1.78 4.72a5.46 5.46 0 0 1-.25 2.26c-.12.24-.57.47-.75.7a7.84 7.84 0 0 0-1.1 3.76 43.83 43.83 0 0 1-.61 4.57 23.21 23.21 0 0 1-1.25 2.84 31.66 31.66 0 0 1-3.27 3.71 15.28 15.28 0 0 0-1.26 1.59c-1.29 1.35-2.55 2.75-3.82 4.09-1.86 2-4.07 3.43-5.81 5.47-.11.13 0 .34.18.24 1-.66 2.37-.65 3.44-1.22a11.91 11.91 0 0 0 2.79-2.37 12.64 12.64 0 0 0 1.16-1.18l1.86-1.87a32.41 32.41 0 0 0 5.7-5.3c2.34-3 3-6 4-9.53 2.4-8.56 7.89-15.85 4.63-25.08z" fill="#ffe6ed"/><path d="M142.13 57.49c-.11-.16-.41-.07-.33.15 2.13 6 1.37 11.81-1 17.19.39-1.59.72-3.18 1-4.75a.25.25 0 1 0-.48-.14 67.49 67.49 0 0 1-7.14 15 1 1 0 0 0-.23.18c-3.87 4.57-7.79 8.76-13 11.67-5.86 3.29-11.65 3.88-18.13 3.46a.27.27 0 0 0-.13.49c6.18 3 11.11 3.1 17.42.08a37.43 37.43 0 0 0 10.23-7 26.72 26.72 0 0 0 4.18-4.62 69.33 69.33 0 0 0 7.34-10.61c4.14-7.21 4.77-14.38.27-21.1z" fill="#eb84ad"/><path d="M135.5 60.17a.07.07 0 0 0-.13 0c-.94 1.72-.64 2.14-1.24 3.93-.48 1.43-1.33 2.54-1.88 4-.44 1.2-.17 2.56-.55 3.65a16.62 16.62 0 0 1-1.55 2.42 12.49 12.49 0 0 0-1.09 3.42 23.52 23.52 0 0 1-1.22 4 1.28 1.28 0 0 0-.28-.34c.75-2.56 1-5.06-.42-6.28a1.61 1.61 0 0 0-1.89-.26 30.1 30.1 0 0 0 .09-4.88c1.05-5.7.49-11.44-4.43-15.13-.13-.09-.26.09-.2.21a21.09 21.09 0 0 1 1.39 13.6A49.89 49.89 0 0 0 120.74 58c-.13-.59-1.12-.47-1.07.14.57 7-1.51 15.05-4.63 21.28a58.71 58.71 0 0 1-4.85 7.89c-1.92 2.68-4.32 5-5.48 8.12a1.67 1.67 0 0 0 0 1.29c-.62.32-1.25.66-1.91 1a1.63 1.63 0 0 0 .75 3h.11a1.78 1.78 0 0 0 .45.42c6.05 4 12.49-2 17-6.12 3-2.72 6.6-5.85 8.73-9.41 2-3.28.86-9.39 3.95-11.44a1.44 1.44 0 0 0 .6-1.52c-.76-4.07.89-3.82 1.65-7a31.77 31.77 0 0 0-.54-5.48z" fill="#db6594"/><path d="M133.87 70.39h-.09c-.5 2.41-2.65 4.31-3.6 6.58-1.31 3.14-1.8 5-3.23 7.27a17.58 17.58 0 0 0-3.83 2.58 3.3 3.3 0 0 0-.57-1.12 1.71 1.71 0 0 0-1.72-.47c-1.63.31-2.86 1.9-4 3.41a40 40 0 0 0 3.4-9.67.24.24 0 0 0-.44-.19 65.07 65.07 0 0 1-7.29 10.61c-2 2.39-4.67 6.12-7.7 6.85a1.79 1.79 0 0 0-1.07.78c-1.19-.59-2.63 1-2 2.38 4.19 8.93 16.4-.27 20.71-4.68 3.22-3.3 7.8-8.54 9.28-13 1.15-3.59 2.81-7.55 2.15-11.33z" fill="#b84271"/><path d="M126.66 87.58c-3.14 2.69-6.29 5.42-9.67 7.78a11.91 11.91 0 0 0 2.78-5.05.3.3 0 0 0-.49-.3 53.21 53.21 0 0 1-5.77 4.41 17.55 17.55 0 0 0 2.44-5.18c.06-.22-.18-.44-.38-.31-3.5 2.4-6.54 5.94-10.33 7.88a1.71 1.71 0 0 0-1.54.5l-.22.22-.45.15a1.92 1.92 0 0 0-1.12 2.26c-.51.92-.26 2.36.88 2.55 5.31.9 9.75.88 14.28-2.5a34.65 34.65 0 0 0 10-12.2.22.22 0 0 0-.41-.21z" fill="#99345c"/><path d="M131.14 60.65a10.81 10.81 0 0 0-1-7 .29.29 0 0 0-.54.16q.1 1 .12 2c-.31-.81-.76-1.93-1.69-1.85a.35.35 0 0 0-.17.64 5.52 5.52 0 0 1 .32 2 3.56 3.56 0 0 0-.54-.37 1.1 1.1 0 0 0-.94 0c-.28-.58-.51-1.19-.8-1.79a.17.17 0 0 0-.32.09c.1.82.3 1.59.4 2.38a1.1 1.1 0 0 0 .06 1v.27a.83.83 0 0 0 .87.88 5.86 5.86 0 0 1 .53 2.65c-.12-.22-.24-.43-.37-.64a.33.33 0 0 0-.6.17c.09 2.18.25 4.36.35 6.55a8.09 8.09 0 0 0-.24 2.3A6.16 6.16 0 0 0 127 72c.29.76 1 1.63 1 2.46a.22.22 0 1 0 .43 0c.14-1.62-.24-2.81.35-4.41l.2-.56c1.63-1.49 1.76-4 2.2-6.25a1.71 1.71 0 0 0 0-.7 10.5 10.5 0 0 0-.04-1.89z" fill="#ffb8d4"/><path d="M118.89 64.9a152 152 0 0 1-6.18 16.92c-2.38 5.48-6.21 9.18-10.05 13.58a1.79 1.79 0 0 0 2.16 2.8c4.7-2.29 8.86-8.74 10.84-13.4a51.91 51.91 0 0 0 3.78-19.8.28.28 0 0 0-.55-.1z" fill="#b84271"/><path d="M96.47 92l-1.37 1.2c-.17-.1-.33-.23-.49-.34-.34-2-2.37-3.36-3.89-4.61-1.13-.93-2.22-1.87-3.31-2.83-5.37-7.69-9.48-17.72-17-21.29a5.18 5.18 0 0 0-4.63-2.58 6.5 6.5 0 0 0-2.2.51 3.42 3.42 0 0 1-2.18.23c-1.77-.12-3.95.14-5.61-.49-1.13-.42-1.51-.74-2.7-.48a11.16 11.16 0 0 1-2.47.51c-1.25 0-2.51-.14-3.76-.08-3.55.19-6.16 1.8-7.19 5.45-.64 2.27-1.56 6.29.85 7.85.75.49 1.33.2 1.72 1 .16.35 0 .92.09 1.33A3.81 3.81 0 0 0 44.49 80l.74.39c.65.75 1.35 1.46 2.08 2.16.48.9.93 1.83 1.46 2.7a5.7 5.7 0 0 0 3.13 2.51 6.72 6.72 0 0 1 3.1 2.56 9.24 9.24 0 0 0 .8 1c.22.41.43.83.64 1.25a1.58 1.58 0 0 0-.06.26 7.35 7.35 0 0 0 1.09 3.41c1.06 2.25 2 4.58 4 6a20.78 20.78 0 0 0 5 2.43c4.67 2.75 9.62 4.73 14.88 2.55 6.27-2.59 13.22-7.19 17.23-12.85 1.03-1.46-.75-3.62-2.11-2.37z" fill="#eb84ad"/><path d="M99.09 92.29a1.71 1.71 0 0 0-2.24-1.72c-4 1.74-9.95-7.7-12-10.51a91 91 0 0 0-8.33-10.13c-2.46-2.51-6-6.47-9.32-7.65-2.91-1-5.66.44-8.62.41-.18 0-.15.26 0 .3 5 1.43 8.48 2.89 12.25 6.4a20.89 20.89 0 0 0-2.43-1c-2.31-1.27-4.82-2.11-7.2-1.47-.12 0-.14.2-.08.29 2.07 3.15 6.1 4.81 9 7.09A45 45 0 0 1 76 80.14a40 40 0 0 0-6.76-2.91c-.25-.08-.51.25-.25.45 5.23 3.86 9.26 8.7 13.5 13.48-4.6-1.83-8.18-5.12-11.71-8.67-7-7.06-13.7-11.07-23.23-12.85a.23.23 0 0 0-.12.43A41.05 41.05 0 0 1 51.49 72a73.38 73.38 0 0 1 12.24 10.3 1.76 1.76 0 0 0 .36 2.12c1.64 1.46 3.31 2.88 5 4.3l-.27.36a2 2 0 0 0-.36 1 43.44 43.44 0 0 1-5.87-3.92.14.14 0 0 0-.19.19c4 4.89 7.88 9.12 13.9 11.18a23.26 23.26 0 0 0 5.55 1.18 22.3 22.3 0 0 1-3.94.31 38.93 38.93 0 0 1-14.75-3.38c-.32-.14-.54.28-.3.53a24 24 0 0 0 4.55 3.47l-1-.34a.28.28 0 0 0-.27.48l.4.34c-1.8-.56-4.38-.6-5.17-2.32a1.07 1.07 0 0 0-1.49-.51.88.88 0 0 0-.68-1c-2.22-.51-1.83-4.37-3-6.06-1-1.47-2.51-2-4-2.63-.15-.06-.31.17-.15.27a8 8 0 0 1 3.25 3.39c.5 1.28.34 2.76.81 4.06a4 4 0 0 0 2 2.42c-.31 2.83 1.77 5 4.4 5.94a6.24 6.24 0 0 1 2.26 1 10 10 0 0 0 1.6 1.45c2.06 1.18 4.51.64 6.64 1.63 1.79.84 3 1.53 5 1 2.15-.57 3.9-2.18 5.87-3.16 2.26-1.12 4.75-1.73 6.85-3.19a28.53 28.53 0 0 0 2.94-2.69 19.39 19.39 0 0 1 4.61-3 1 1 0 0 0 .47-.51c.33-.12.65-.25 1-.39a1.9 1.9 0 0 0-.66-3.53z" fill="#db6594"/><path d="M99.55 91.42c-2.34-1.1-4.51-2.25-6.58-3.5-4.59-5.06-9.37-9.83-13.67-15.27-3-3.75-5.75-6.26-9.51-8a7.2 7.2 0 0 0-2.41-1.63c-1.41-.53-2.68-.12-4.13-.32-.28 0-.33.38-.06.45 2.9.71 4.83 3.38 6.64 6.1a21.68 21.68 0 0 0-3.59-1.17c-.27-.06-.42.33-.2.5 4.81 3.91 9.13 9.32 13.78 14.25a6.46 6.46 0 0 0-2.58-.62c-.27 0-.27.39-.07.5 1.95 1.06 3.42 3.79 4.91 5.45a32.26 32.26 0 0 0 3.24 3.2 23.11 23.11 0 0 1-3.05-.93c-4.65-1.85-8-6.08-11.56-9.54-5.84-5.69-12.13-9.23-20-10.62-.19 0-.28.27-.09.34a39.56 39.56 0 0 1 14.49 9c4.12 4 7.29 9 12 12.43a22.89 22.89 0 0 1-5.83-4.58c-.23-.25-.69-.07-.54.31a17.33 17.33 0 0 0 10.4 10.46 19.08 19.08 0 0 0 1.94.55 19.33 19.33 0 0 1-13.28.47.32.32 0 0 0-.32.56c3.57 3.15 9 4.21 14.08 3.35a10.71 10.71 0 0 1-1.76.86c-2.33.85-4.51.27-6.76.38-4.34.21-7.66.56-11.52-2.59a.18.18 0 0 0-.25.26c1.82 2.6 3.48 4.41 6.57 5.25 1.71.47 3.31-.08 4.95.2 1.09.19 1.89 1 3 1.24 3.26.67 6.36-2.07 8.87-3.7C91 102.23 96 99.7 99.43 95.69a1.22 1.22 0 0 0 .08-.15 4.24 4.24 0 0 0 .38-.27 1.88 1.88 0 0 0 .66-1.81 1.81 1.81 0 0 0-1-2.04z" fill="#b84271"/><path d="M64.53 86.14c-2.4-1.91-4.9-5-7.65-7.53-3.88-4.92-9.7-6.27-15.38-7.11-.33 0-.38.43-.07.52a23 23 0 0 1 5.88 2.9 1.45 1.45 0 0 0-.55 1.54c-.81-.32-1.63-.61-2.44-.86-.3-.09-.39.38-.14.52A35.64 35.64 0 0 1 48.72 79a16.33 16.33 0 0 0-4.14-1.11c-.26 0-.4.38-.13.48A19.68 19.68 0 0 1 52 83.63a1 1 0 0 0 1 .37 47.18 47.18 0 0 0 4.84 5.53c2.67 2.37 5.65 2.91 8.86 3.87.33.1.41-.4.15-.55A29.12 29.12 0 0 1 58 84.73c-.41-.59-.82-1.16-1.23-1.71a22.38 22.38 0 0 0-1.81-2.16c3.14 1.88 6.19 4 9.42 5.72.16.09.36-.27.15-.44z" fill="#ffb8d4"/><path d="M66.37 72.23a1.36 1.36 0 0 0-.52-1.16 23 23 0 0 0-5-3.06 1.16 1.16 0 0 0-.23-1.67c-3.76-3-7.81-2.72-12.18-2.27-.32 0-.36.59 0 .62A25.37 25.37 0 0 1 55 66.15c-.66-.12-1.32-.23-2-.31a1.62 1.62 0 0 0-1.61.72c-2.1-.3-4.2-.58-6.3-.89a.43.43 0 0 0-.47.59c1.09 2.48 5.6 2.92 7.83 3.65a1.91 1.91 0 0 0 1.55-.16c.64.16 1.27.35 1.9.53a1.67 1.67 0 0 0 1.06 1c4.28 1.33 8.94 3 11.66 7a.29.29 0 0 0 .53-.21 9.51 9.51 0 0 0-2.78-5.84z" fill="#ffb8d4"/><path d="M59.09 64.09a8 8 0 0 0-3-2.1 9 9 0 0 0-3.55-.51c-1 0-1.08 1.79 0 1.93s2.16.32 3.23.53 2.13.28 3.14.54c.25.07.33-.24.18-.39z" fill="#ffb8d4"/><path d="M58.79 81.87a23.3 23.3 0 0 0-5.73-4.45.9.9 0 0 0-.19-.65c-2.19-2.62-5.76-3.13-8.75-4.16-.33-.11-.54.38-.21.52 1.84.72 3.3 2.18 4.86 3.42l-.54-.3c-.26-.15-.48.26-.25.45.66.53 1.32 1.07 2 1.63l-1.19-.48a.29.29 0 0 0-.22.53 11.32 11.32 0 0 1 3.73 3.72.93.93 0 0 0 .14.82 13.13 13.13 0 0 0 5.35 4.18.32.32 0 0 0 .37-.49c-1.17-1.37-2.3-2.79-3.53-4.1a.85.85 0 0 0-.06-.22 7.27 7.27 0 0 0-1.7-2.21c1.81.93 3.83 1.53 5.58 2.4.38.17.55-.34.34-.61z" fill="#ffe6ed"/><path d="M63.77 72.06a19.92 19.92 0 0 0-4.44-3.63.69.69 0 0 0-.13 0l-.2-.11c.91.09 1.3-1.19.62-1.8a3.8 3.8 0 0 0-1.15-.68.49.49 0 0 0-.3-.68 29.91 29.91 0 0 1-3.5-1.29c-.41-.2-.65.43-.27.65.72.42 1.44.85 2.19 1.21a1.25 1.25 0 0 0-.15.16 11 11 0 0 0-2.11.08.14.14 0 0 0-.09 0 .31.31 0 0 0-.28.11.21.21 0 0 0 0 .32 6.07 6.07 0 0 0 2 1.12h-.24c-1.93-.06-5.47.74-6.83-1.3a.2.2 0 0 0-.35.14c.17 1.59 2.09 2.62 3.38 3.07 2.49.86 5.17.38 7.51 1.78a.78.78 0 0 0 1-.07c1 .56 2 1.07 2.94 1.65.42.21.72-.43.4-.73z" fill="#ffe6ed"/><path d="M98.53 91.91a11.81 11.81 0 0 0-1.23.67 1.93 1.93 0 0 0-.82-.67c-4.78-2.14-7.92-6.35-11.72-9.84a40.44 40.44 0 0 0-2.39-3.69c-3-4-7.52-5.88-10.74-9.53a.22.22 0 0 0-.39.22c1.55 5.21 6.46 8.89 9.22 13.47 1 1.74 2.07 3.38 3.17 4.92a16.58 16.58 0 0 0 3 4.3 33 33 0 0 1-10-5.51c-4.43-3.64-8.21-7.51-13.12-10.48-.24-.15-.46.25-.24.43 6 4.94 9.53 12.35 16.38 16.35A52.27 52.27 0 0 0 84.29 95c-2.49-.65-4.92-1.57-6.64-2.09-.24-.07-.38.26-.25.45 2.08 3.13 5.65 5 9.09 6a14 14 0 0 1-6.71 1.19.37.37 0 0 0-.19.7 11.26 11.26 0 0 0 3.41 1.2c-1.73 1.25-3.43 2.42-5.64 2.6-1.92.16-3.38-.41-5.25.09-.3.08-.15.54.13.53 2-.06 3.91 2.08 6 2.25s4-.87 5.83-1.87c2.81-1.55 5.77-2.85 8.54-4.46s5.2-4.12 7.78-6.2c1.61-1.32.15-4.39-1.86-3.48z" fill="#99345c"/><path d="M96.42 103c-5.75-6.74-17.23-8.53-25.42-7.24-8.85 1.39-10.63 8.5-13.12 16.41-.89 2.83-2.65 6.48-.56 9.13 1.79 2.27 4.84 2.25 7.23 1.16 4.48-2 8.5-6.31 12.77-8.92a93.53 93.53 0 0 1 17.19-8.16 2.14 2.14 0 0 0 1.17-1c.66.29 1.27-.74.74-1.38z" fill="#eb84ad"/><path d="M95.34 101.86a44.15 44.15 0 0 0-14.22 2.77 17.11 17.11 0 0 0-4.87 1.68c-1.47.78-2.17 1.54-4 1.51a5.17 5.17 0 0 0-3.83 1.13 3.66 3.66 0 0 0-1.09 2 3.3 3.3 0 0 1-2.07 3.44 2.86 2.86 0 0 0-.72.23 6.35 6.35 0 0 0-.86.71c-.41.47-.3 1-.83 1.6-.19.21-.63.17-.86.4a6 6 0 0 0-.53.74 3.53 3.53 0 0 1-1.22 2.3 2.75 2.75 0 0 1-2.72.16 5.93 5.93 0 0 1-.47-.48c-.07-.08-.21 0-.18.11s.12.31.18.47a2.09 2.09 0 0 0 .67 1.3c1.12 1.54 2.91 2.1 5.05 2.09a19.06 19.06 0 0 0 3.86-.41c3.21-.22 6.3-1.89 9.19-4.3s5.32-5.35 8.14-7.84c3.66-3.25 7.84-4.21 12-6.37a1.05 1.05 0 0 0 .56-.9c.48-.94.16-2.41-1.18-2.34z" fill="#ffb8d4"/><path d="M95.65 101h-.1a1.78 1.78 0 0 0-1.15-1.5 15.09 15.09 0 0 0-4.58-1c-7.17-3.63-18 .7-23.32 6.22-.24.25 0 .77.34.63a51.77 51.77 0 0 1 7.83-2.53c-4.13 1.48-8.32 2.06-10.45 6.61-.11.23.12.57.37.39a10.33 10.33 0 0 1 2.32-1.29 3.61 3.61 0 0 0-1.13 2.17c-.14.94.32 1.68-.48 2.52-.33.34-1.8.64-2.24 1a2.71 2.71 0 0 0-1 1.71 2.36 2.36 0 0 0-1.28.82c-.9 1.13-.48 3.8-2.57 3.37a.11.11 0 0 0-.06.21 2.37 2.37 0 0 0 2.32.09c1.07-.63 1-2.82 2.37-3a.85.85 0 0 0 .81-.85c-.06-.92 2.55-1.78 3.14-2.47s.42-1 .64-1.66c.5-1.59.67-3.14 2.39-3.63a20.86 20.86 0 0 1 2.36-.32 10.21 10.21 0 0 0 3-.88 48.83 48.83 0 0 1 17.07-4.91c.39.06.79.13 1.21.21a1.67 1.67 0 0 0 1.53-.4h.44c.81 0 1.08-1.38.22-1.51z" fill="#db6594"/><path d="M95.19 101.39c-.23.06-.46.1-.69.15a1 1 0 0 0-.59-.88 25.54 25.54 0 0 0-2.47-.75.68.68 0 0 0-.45-1c-3.52-.66-7.5-2.23-10.9-.25a.17.17 0 0 0 .12.31 9.29 9.29 0 0 1 3.91.13 14.88 14.88 0 0 0-7.22 2 .23.23 0 0 0 .17.42 20.42 20.42 0 0 1 4.62-.51c-1.18.16-2.79.27-3 1.73a1.41 1.41 0 0 0 .07.71c-1.29.42-3 .64-3.92.92-1.81.54-3.61 1.09-5.38 1.79-.19.08-.19.42 0 .4l1.2-.14a7.26 7.26 0 0 0-4.27 6.29.14.14 0 0 0 .27.08c1.15-2.46 3.11-4.7 5.69-5.44a46 46 0 0 1 4.62-.6 19.09 19.09 0 0 0 3.7-1.27 27.26 27.26 0 0 1 9.16-2c2-.07 4.05.36 5.82-.85.72-.35.35-1.45-.46-1.24z" fill="#b84271"/><path d="M77.38 96.39a14.39 14.39 0 0 0-5.81-.15c-2.1.46-3 1.64-4.62 2.77-.56.39-1.08.65-1.58.94a10.84 10.84 0 0 1 2.14-2.37c.22-.18 0-.6-.27-.49-2.3 1-4.28 1.71-5.72 4.07a12.82 12.82 0 0 0-1.16 2.49 1.57 1.57 0 0 0-.27.52 73.26 73.26 0 0 0-2.53 13 .22.22 0 0 0 .38.17 20 20 0 0 0 4.23-7.79 1 1 0 0 0 .62-.37A21.89 21.89 0 0 0 65 105.6a6.29 6.29 0 0 1 2-2.6c.43-.28 1.33-.51 1.73-.85.91-.77 1.35-1.91 2.3-2.67A15.23 15.23 0 0 1 77.37 97c.27-.09.27-.56.01-.61z" fill="#ffb8d4"/><path d="M85.47 104.37a40.19 40.19 0 0 0-5.88 1c-1.62.53-2.49 1.41-4.34 1.67-2.42.34-5.49.77-7.08 3-.57.82-.57 1.78-1 2.63-.86 1.63-2.51 1.83-3.61 3.11a12.85 12.85 0 0 0-1.92 2.64l-.58.81a3.11 3.11 0 0 1-3.78 1c-.12 0-.17.11-.11.2a2.66 2.66 0 0 0 3.7 1 5.58 5.58 0 0 0 1.5-1.65l.6-.84c.41-.28.83-.54 1.25-.89.77-.63 1.36-1.55 2.21-2.16a6 6 0 0 0 2.64-3.49c1.59-3.77 5.41-2.95 8.57-3.86a25.26 25.26 0 0 0 3.25-1.7c1.54-.7 3.16-1.27 4.73-1.87a.3.3 0 0 0-.15-.6z" fill="#ffe6ed"/><path d="M84.35 110.09a12.28 12.28 0 0 0-4.63 2.55c-.69.62-1.36 1.25-2 1.87a20.33 20.33 0 0 1 3.09-4.72c.11-.11 0-.32-.15-.27a7.93 7.93 0 0 0-3.87 3.15c-.52.72-1 1.52-1.56 2.19h-.05a12.81 12.81 0 0 1 1.12-2.49.15.15 0 0 0-.22-.18c-1 1-2 2.06-3 3.1a17.85 17.85 0 0 1-3.31 2.42 1 1 0 0 0-.29.29 29.62 29.62 0 0 0-2.66 1.67c-.15.11-.12.42.1.4a13.32 13.32 0 0 0 1.53-.27 33.28 33.28 0 0 1-5.54 1.86.18.18 0 0 0 0 .34 8.12 8.12 0 0 0 3.26.5 19.93 19.93 0 0 1-4.84.41c-.18 0-.19.25 0 .31 6.6 2.53 13.16-1.19 17.35-6.69 2.09-1.85 3.66-4.53 5.9-6.15.01-.11-.07-.38-.23-.29z" fill="#eb84ad"/><path d="M81.51 112.63a14.07 14.07 0 0 0-3.84 2.71c-.77.79-1.51 1.61-2.29 2.38a.55.55 0 0 0-.25.07c-1.94 1.08-3.8 2.42-5.8 3.37-.16.08 0 .34.12.29.76-.22 1.49-.45 2.21-.7a13.42 13.42 0 0 1-5.2 2.36c-.18 0-.12.3 0 .32 4 .45 7.16-1.22 9.7-4.26a9.79 9.79 0 0 0 2-1.81c1.18-1.41 2.12-3.33 3.51-4.5.14-.11-.02-.3-.16-.23z" fill="#db6594"/><path d="M98.47 100.45a.82.82 0 0 0-1.38-.54 13.63 13.63 0 0 1-2.85 2.25c-.64.39-1.08.62-1.28 1.37a26.62 26.62 0 0 1-4.89 2.62.18.18 0 0 0 0 .35 8.32 8.32 0 0 0 1.45.06 9.13 9.13 0 0 0-2.92 2.6c-.1.14.08.29.21.22 4-2.29 11-2.69 11.64-8.69a.7.7 0 0 0 .02-.24z" fill="#eb84ad"/><path d="M95.15 100.26a8.73 8.73 0 0 1-2 1.28.8.8 0 0 0-.51-.89c.45-.73-.18-1.6-1-1.21a5.42 5.42 0 0 1-3.71.35 11.74 11.74 0 0 0-3.14.07c-.17 0-.17.27 0 .27a5.27 5.27 0 0 1 2.2.7.91.91 0 0 0-.07.87 4.63 4.63 0 0 0-2.18.59.68.68 0 0 0-.15 1c-.57.08-1.13.16-1.67.27a16.71 16.71 0 0 0-4.57 1.18c-.74.37-1.39.9-2.15 1.23a26.15 26.15 0 0 1-2.93.78c-.14 0-.12.29 0 .28a21.11 21.11 0 0 0 2.44.09A9.49 9.49 0 0 0 78 106c2.3-1.17 5.22-1.26 7.73-1.53 3.71-.4 8.15.47 10.67-3.22.6-.81-.59-1.56-1.25-.99z" fill="#99345c"/><path d="M90.83 98.36c-1.2.28-2.42.64-3.63.83-.15 0-.15.3 0 .32a10.47 10.47 0 0 0 3.94 0c.72-.12.43-1.33-.31-1.15z" fill="#99345c"/><path d="M116.24 54.24a11.68 11.68 0 0 0-2.73-4.42c-.48-.47-.92-.91-1.34-1.36a15.6 15.6 0 0 0-1.1-1.29c-.2-.26-.39-.53-.58-.84a13.83 13.83 0 0 0-1.66-2.44 5.42 5.42 0 0 0-3.1-1.74c-1.39-.21-2.21.09-3.74-.38a4.43 4.43 0 0 0-2.14-.45c-1.39.18-2.34 1.19-3.29 2.15-1.26 1.28-2.5 2.62-4.47 2.18-1.18-.26-2-1.31-3.07-1.69-.83-.29-1.8.21-2.66 0s-1.41-.79-2.18-1a4.47 4.47 0 0 0-2 0 19.57 19.57 0 0 1-3.89.2 4.07 4.07 0 0 0-3.72 2.61A15 15 0 0 0 70 51.08c-1.22 2.65-1.29 7.83-.58 10.69.92 3.75 4.33 6.93 6.63 9.89s4.58 6.79 7.53 9.36c1.28 2.3 2.55 4.59 3.78 6.89 2.16 4 4.38 11.47 10.11 9.91 2.63-.72 4.63-3 6.23-5.8 7.17-7.71 12.8-17.46 12.93-28.27a17.67 17.67 0 0 0-.39-9.51z" fill="#eb84ad"/><path d="M113 64.95a47.87 47.87 0 0 1-6.26 15.59 46.62 46.62 0 0 0-2.57-18.8c-.23-.69-1.24-.38-1.16.33a37 37 0 0 1 .19 5.53c0-.06-.08-.13-.12-.18-.88-1.09-1.81-.94-2.75-1.8a5 5 0 0 1-.82-1 56.92 56.92 0 0 0-5.41-14.45c-.17-.33-.77-.26-.67.19a82.8 82.8 0 0 1 1.72 18c-.57-1.77-1.15-3.47-1.68-5.07a.43.43 0 0 0-.83.23 71.84 71.84 0 0 1 1.06 13.3v.35a57.85 57.85 0 0 0-2.55-7.49A.58.58 0 0 0 90 70c.27 3.61.58 7.27.7 10.91a2.1 2.1 0 0 0-.74-.7c-3.56-4.27-7-8.64-10.36-13.12a.56.56 0 0 0-.95.58c1.85 5.12 3.58 10.15 6.23 14.9.33.58.68 1.13 1 1.7a16.6 16.6 0 0 0 7 12.06c4.16 2.88 7.51.89 10.85-2.25A33.82 33.82 0 0 0 114.22 65a.6.6 0 0 0-1.22-.05z" fill="#db6594"/><path d="M117.71 54.6c-.9-2.7-2.85-4-4.52-6.08s-2.07-3.29-4.55-4c-1.52-.41-2.72 1.87-1.7 3.07s1.34 2.8 2.27 4.13c1.27 1.84 3.06 2.56 4.06 4.81 1.92 4.32.73 10.86.59 15.53 0 .56.77.92 1 .29 1.76-5.51 4.82-11.81 2.85-17.75z" fill="#ffb8d4"/><path d="M88.15 71.92c-1.31-3.21-3-6.32-3.93-9.67a20.91 20.91 0 0 1-.77-4.78 23.79 23.79 0 0 0 1.18 3.22.93.93 0 0 0 1.78-.5c-.42-4 .6-7.84.45-11.8A1.83 1.83 0 0 0 85 46.54a12.53 12.53 0 0 0 .28-3 .31.31 0 0 0-.59-.17c-.42.77-1.59 1.07-2.25 1.54a8 8 0 0 0-1.91 2c-.07.1-.13.21-.19.32a1.89 1.89 0 0 0-.67.44c.35-1 .74-2.06 1.12-3a.4.4 0 0 0-.6-.49 18 18 0 0 0-2.59 2.54c.18-.58.36-1.15.52-1.74a.31.31 0 0 0-.08-.34l-.21-.2a.63.63 0 0 0-.68-.1 7.57 7.57 0 0 0-3 3.87.12.12 0 0 0-.17-.1c-3.42 1.86-5.69 6.57-5.45 10.42.3 4.74 3.56 7.32 7 10a.85.85 0 0 0 1.28-.33c.77 1.18 1.55 2.25 2.25 3.14a.52.52 0 0 0 .88-.54c-1.24-3.65-2.67-7.93-3-12.07a1.68 1.68 0 0 0 1.51-.56c1.34 5.36 5.24 10 8.78 14.4a.57.57 0 0 0 .92-.65z" fill="#ffb8d4"/><path d="M93.31 51a6.33 6.33 0 0 0-1.42-3.16c-1.1-1.26-2.57-1.81-3.75-2.91a.35.35 0 0 0-.56.24 5.71 5.71 0 0 0 .93 3.83l.21.34a1.31 1.31 0 0 0-.52 1c-.12 4 1.13 7.92 1.66 11.83a.54.54 0 0 0 1.07 0c.26-1.53.76-3.25 1.1-5a28.73 28.73 0 0 1 1.22 3.9c.14.61 1 .73 1.12 0A20.34 20.34 0 0 0 93.31 51z" fill="#ffb8d4"/><path d="M108.71 54.82a34.61 34.61 0 0 0-5.57-6.09 13.07 13.07 0 0 0-4.94-4 .44.44 0 0 0-.5.67c2.59 3.39 3.79 7.35 4.54 11.56a1.78 1.78 0 0 0 .57 1 21.05 21.05 0 0 0 1.36 3.4.38.38 0 0 0 .7 0 7.3 7.3 0 0 0 .75-3.08c1.47 5.85 2.4 11.65 1.53 18a.58.58 0 0 0 1.11.33c2.45-4.77 3.85-8.94 3.41-14.46a11.61 11.61 0 0 0-2.96-7.33z" fill="#ffb8d4"/><path d="M111.43 76.45c-1.89 2.92-3.8 6.4-6 9.5.54-4-.57-8.48-1.69-12.1-.25-.81-1.44-.43-1.34.38a22.5 22.5 0 0 1-.08 5.26c-1.47-7.14-4.57-14.43-5.78-20.36-.09-.46-.84-.56-.85 0a114.19 114.19 0 0 0 1.21 18.28c0 .34.1.69.15 1v6.94c-.95-2.21-2.26-4.33-3.14-6.12-.28-.57-1.32-.41-1.14.32a31.29 31.29 0 0 1 1 8.48c-.66-.64-1.33-1.26-2-1.89-3.46-3.29-5.54-7-7.47-11.48a.4.4 0 0 0-.77.22c.52 3.94 1.13 7.88 3.2 11.3s4.82 6.67 7.18 9.93a2.1 2.1 0 0 0 1.57.92 2.49 2.49 0 0 0 4.05.46c.15-.18.26-.37.4-.56 8.09-1.75 10.55-12.71 12.6-19.82.17-.65-.66-1.34-1.1-.66z" fill="#b84271"/><path d="M110.11 56.57c-2-3.88-5.91-5.91-8.36-9.4-.22-.31-.65 0-.53.32 1 3.1 3 5.56 4.36 8.49 1.66 3.56 1.91 7.16 2 11.05a1.61 1.61 0 0 0 .53 1.2c-.22 2.52-.31 5.05-.61 7.56a.27.27 0 0 0 .51.15 75 75 0 0 0 2.6-7.49 1.55 1.55 0 0 0 .62-.87 14.79 14.79 0 0 0-1.12-11.01z" fill="#ffe6ed"/><path d="M83.33 46.9a11.78 11.78 0 0 0-2.53 3.66h-.06a16.63 16.63 0 0 1 .9-4.24c.12-.33-.27-.74-.56-.45a10.33 10.33 0 0 0-2.54 11 1.15 1.15 0 0 0 .38.51 20.38 20.38 0 0 0 1.48 5.09.36.36 0 0 0 .7-.2 20.3 20.3 0 0 1-.2-1.59 1.14 1.14 0 0 0 .54.36 15.94 15.94 0 0 0 3.93 7.66c.23.23.54-.1.46-.37-1.27-3.82-1.43-8-2.39-11.85a1.66 1.66 0 0 0-.5-.86 11 11 0 0 1 0-1.18v-.06a16.32 16.32 0 0 0 .43-2A1.8 1.8 0 0 0 83 51a10.9 10.9 0 0 1 1.08-3.48c.21-.46-.4-.97-.75-.62z" fill="#ffe6ed"/><path d="M78.24 47c-2.22.74-3.37 3.47-3.58 5.75a1 1 0 0 0 .9 1.14 14.68 14.68 0 0 0 .85 5.57.2.2 0 0 0 .39-.05 57.34 57.34 0 0 0 .74-7.11 1 1 0 0 0-.58-1 22.21 22.21 0 0 1 1.82-3.71c.22-.43-.24-.73-.54-.59z" fill="#ffe6ed"/><path d="M103.11 83a15.91 15.91 0 0 1-1.38 5.43c-.28-5.76-2.18-10.9-3.73-16.92-.1-.4-.74-.22-.67.19a55.71 55.71 0 0 1 .29 14c-.11 1.27-.37 2.54-.56 3.79-.61-.94-1.24-1.8-1.69-2.54-.26-.41-.93 0-.72.44a10.12 10.12 0 0 1 .83 3c-2.32-1.79-5.13-3.32-6.26-5.74a.38.38 0 1 0-.7.31 24.39 24.39 0 0 0 3.12 5.62c.61.85 1.27 1.68 1.84 2.56a37.94 37.94 0 0 1 1.74 3.9c.73 1.45 2.88 1.63 3.51.17a.79.79 0 0 0 1.29-.07l.15-.22a1.52 1.52 0 0 0 1.39-.56c3.17-3.75 2.77-8.8 2.42-13.41a.44.44 0 0 0-.87.05z" fill="#99345c"/><path d="M115.28 63.48c-.26-1-1.77-.53-1.63.46.95 7-1.15 14.36-3.35 20.92-2 6-5.3 12.77-10.37 16.59-.15.12 0 .34.18.24 6.17-4 9.72-9.36 12.12-16.53 2.2-6.58 4.91-14.74 3.05-21.68z" fill="#ffb8d4"/><path d="M113.23 52.13c-.23-.26-.67.12-.46.41 2.58 3.53 4.86 7.29 4.12 11.95a92.67 92.67 0 0 1-2.93 12c-2.43 8-6.55 16.13-13.1 21.26-.07.05 0 .17.07.12C108.65 93 112.49 85 115.14 76.21c.79-2.59 1.49-5.21 2.14-7.84a25.91 25.91 0 0 0 1.22-6.28c-.03-4.17-2.71-7.09-5.27-9.96z" fill="#ffe6ed"/><path d="M113.1 91.26a13.36 13.36 0 0 1-2.76 2.7l-.2.12c.72-3.21 0-6.95 0-10.13a.66.66 0 0 0-1.3-.18 77.46 77.46 0 0 1-1.87 8v.11a13.79 13.79 0 0 0-.61-5.17c-.16-.62-.92-.42-1 .15a22.68 22.68 0 0 1-.75 3.55c-.64-2.37-1.42-4.71-1.84-7.14-.1-.59-1-.45-1 .15a49.93 49.93 0 0 1-.54 8.8c-.9-2.92-2.79-5.69-3.15-8.78-.07-.61-1-.62-.92 0 .36 3.83 1.18 7.6.9 11.42-.61-2.08-1.88-4-2.13-6.23a.55.55 0 1 0-1.11 0c-.16 2.66-1 6.19.47 8.59A22 22 0 0 1 93 94.16c-.37-.62-.7-1.27-1-1.9a5.32 5.32 0 0 1-.94-2c0-.46-.7-.77-.91-.26-.61 1.47 0 3.52.39 5 .07.25.16.49.23.73a13.11 13.11 0 0 1-1.17-.91 20.28 20.28 0 0 1-1.6-1.55 14.52 14.52 0 0 1-3.05-4.74.42.42 0 0 0-.8.24 23.67 23.67 0 0 0 2.43 6.58 14.29 14.29 0 0 1-3-2.41c-.29-.3-.92 0-.75.46 1.79 4.75 6.16 8.38 11.07 8.27a2.79 2.79 0 0 0 3.31.12 1.16 1.16 0 0 0 .28-.28 1.29 1.29 0 0 0 .75-.16.9.9 0 0 0 .48-.09 1.84 1.84 0 0 0 1.3 1.18 1.42 1.42 0 0 0 1.69-1.45 3 3 0 0 0 .67-1.48 1.87 1.87 0 0 0 .9.3 6.32 6.32 0 0 0 3.58-1 1.74 1.74 0 0 0 1.35.34c3.32-.58 5.68-4 6.08-7.38a.67.67 0 0 0-1.19-.51z" fill="#ffd380"/><path d="M116.52 90.59a.34.34 0 1 0-.68 0c-.15 1.19-1.67 2.27-2.61 2.73a11.56 11.56 0 0 1-1.91.7 7.57 7.57 0 0 0 .4-3.52.32.32 0 1 0-.63 0 4.59 4.59 0 0 1-1.78 3.24c.81-3.48-1.56-9.4-1.93-11.61a.37.37 0 0 0-.72.11 42.16 42.16 0 0 1-.08 6.43 20.83 20.83 0 0 1-.21 3.06 13.94 13.94 0 0 1-1.08 2.54 1.73 1.73 0 0 0-.11.85l-.48.22a9.77 9.77 0 0 0 .1-4.46c-.08-.41-.61-.34-.73 0-.23.7-.41 1.4-.68 2.1-.08.21-.18.42-.28.62-.07-3.15-1.21-6.37-1.59-9.46 0-.38-.6-.22-.55.16.43 3.52-.34 7.17.18 10.64a.87.87 0 0 0 .1.25l-.17.12a10.87 10.87 0 0 1-2.38-4.51c-.5-2.42-.64-4.85-1.32-7.24a.24.24 0 0 0-.46.07c0 2.44-.86 6.49-.32 9.64a16.34 16.34 0 0 1-1-1.56 15.9 15.9 0 0 1-2.24-6.55.28.28 0 1 0-.55 0c-.09 3.67.13 8.35 2.46 11.36a2.57 2.57 0 0 0-.73.07 1 1 0 0 0-.29-.88c-1-1-2.41-1.53-3.49-2.5A7.69 7.69 0 0 1 88.13 89a.26.26 0 0 0-.5.07c.1 2.92 1.55 6.31 4.08 7.82-3.48-.82-6.8-2.08-8.7-5.66a.33.33 0 0 0-.6.27 13.11 13.11 0 0 0 11.09 9.37.42.42 0 0 0 .34.5 25 25 0 0 0 3.93.36.9.9 0 0 0 .77-.51 2.07 2.07 0 0 0 1.45-.52 2.7 2.7 0 0 0 2.35-.48 1.78 1.78 0 0 0 .55-.83 2 2 0 0 0 .25 0 1.32 1.32 0 0 0 1 .57 3.3 3.3 0 0 0 3-.91 2.37 2.37 0 0 0 1.48.69 3.45 3.45 0 0 0 3.32-2.92 6.41 6.41 0 0 0 3.19-1.65 5.38 5.38 0 0 0 1.33-2 6.13 6.13 0 0 0 .06-2.58z" fill="#cf5321"/><path d="M100.64 98.69l-.06-.13a1.14 1.14 0 0 0-.39-.89c-.77-1.7-1.71-3.3-2.46-5-.9-2.08-1.59-4.24-2.57-6.29-.15-.32-.67-.1-.56.25.83 2.77.92 5.69 1.51 8.48a26.28 26.28 0 0 1-5.81-8.3c-.16-.34-.64-.09-.56.25a22.77 22.77 0 0 0 3.75 8.47 14.27 14.27 0 0 0 2.85 3.12h-.06c-1.84.69-2.92 1.07-4.89.6-1.23-.29-3.59-.56-4.34-1.68a.34.34 0 0 0-.62.28c.44 1.93 3.51 3.39 5 4.09 2.14 1 5 1.27 6.36-1.14a1.41 1.41 0 0 0 .17-.85c.95 1.21 3.33.42 2.68-1.26z" fill="#66473b"/><path d="M104.82 95.38a.35.35 0 0 0-.68.1 5.77 5.77 0 0 1-.05.64 42 42 0 0 0-2.36-9.2c-.11-.31-.64-.3-.6.09.26 3.13.27 6.32.71 9.43a11.25 11.25 0 0 1-.62-1.13 19.15 19.15 0 0 1-.88-2.43c-.12-.4-.79-.36-.74.11a11.62 11.62 0 0 0 1.53 5.18.73.73 0 0 0 1.24-.77c0-.09-.1-.18-.15-.27a1.28 1.28 0 0 0 1.69-.25 3.76 3.76 0 0 1-.35.78.67.67 0 1 0 1.21.53 4.37 4.37 0 0 0 .05-2.81z" fill="#66473b"/><path d="M112.26 91.29a.38.38 0 0 0-.26.71 17.93 17.93 0 0 1-2.24 2.46l-.43.31c.91-3.27-2.61-8.61-3.17-11.08a.28.28 0 0 0-.54.08c.08 3.94 3.09 7.86-.1 11.38a1.21 1.21 0 0 0 .94 2c-.16.79.35 1.71 1.25 1.34a8.61 8.61 0 0 0 4.43-3.74c.36-.65 1.39-3.2.12-3.46z" fill="#66473b"/><path d="M102.92 96.82c-1.19-2.38-2.56-4.76-2.76-7.53a.32.32 0 1 0-.63 0c.07 3 .29 5.93 2 8.36a.79.79 0 0 0 1.39-.83z" fill="#cf5321"/><path d="M106.67 89.06a.33.33 0 0 0-.64.09c.13 2.61-.73 4.66-1.4 7.11a.87.87 0 0 0 1.58.7c1.39-2.31 1.15-5.4.46-7.9z" fill="#cf5321"/><path d="M98.53 98.42A17.85 17.85 0 0 1 89.37 94c-.27-.26-.66.15-.41.43 2.53 2.81 5.46 4.91 9.19 5.43.85.14 1.29-1.25.38-1.44z" fill="#cf5321"/><path d="M105.34 85.12c0-.46-.73-.47-.7 0a26.77 26.77 0 0 1-1.28 10.49 1 1 0 0 0 0 .34 43.32 43.32 0 0 0-1.53-6 .32.32 0 1 0-.61.18c.44 2.74.37 5.55.78 8.29.14.93 1.55.69 1.55-.23a15.25 15.25 0 0 0-.16-2.1.92.92 0 0 0 1.73 0c1.42-3.63.54-7.21.22-10.97z" fill="#ffd380"/><path d="M99.91 98.79c-3.18-3.53-6-7.65-6.87-12.52-.07-.34-.54-.19-.49.15.72 5.25 2.37 10 6.18 13.62.78.73 1.91-.44 1.18-1.25z" fill="#ffd380"/><path d="M94.81 98.37a40.63 40.63 0 0 1-7.93-4.83c-.41-.35-1 .25-.6.63a28.23 28.23 0 0 0 7.92 5.7c.8.35 1.39-1.1.61-1.5z" fill="#ffd380"/><path d="M111.8 88.09c-.35 2.54-1.92 4.8-3.41 6.78-.76 1 .38 2.26 1.33 1.41 2.35-2.1 2.89-5 2.9-8.08.01-.48-.75-.62-.82-.11z" fill="#ffd380"/><path d="M136.69 98.15c.3-1.33 1.38-2.43 1.23-3.81-.33-3-3.3-3.59-6.51-3.28-4.29-1-10.15 1.94-13.31 3.86-3.54 2.16-6.14 5-9.8 6.4-1.3.28-2.59.54-3.85.82-3.66.45-7.12.85-10.62 2.45-5.82 2.66-10.9 7.87-12.24 14.58-1.06 5.32.67 10.58 6.06 11.79a17.66 17.66 0 0 0 8.27-.47 16.45 16.45 0 0 0 3.62-2 19.46 19.46 0 0 0 1.59-1.12l.47-.21a11.63 11.63 0 0 1 1.44-.37c2.9-.6 3.52.25 6 1.54a7.14 7.14 0 0 0 5.86.67c3-.63 6.81 0 9.14-2.4 2-2 1.8-4.94 3.8-6.94 2.56-2.56 5.93-4 8.41-6.8 1.65-1.87 2.59-3.71 2-6.32-.58-3.04-2.31-5.05-1.56-8.39z" fill="#eb84ad"/><path d="M137.28 95c.06-.2-.2-.41-.32-.2a22 22 0 0 0-1.96 4.13c-.57-.71-1.17-1.35-1.62-1.86-.14-.16-.47-.09-.42.18a32.23 32.23 0 0 0 .92 3.46 1.62 1.62 0 0 0-1.87 1.58c-.18 1.17.61 2.71.94 3.76.21.69.45 1.36.7 2-1.28-1.4-3-2.11-4.77-3.12-.31-.18-.61.34-.33.56a11 11 0 0 1 2.5 3 2 2 0 0 0-.56.33 3 3 0 0 0-.86 2.32 2 2 0 0 0-1.5.76 2.48 2.48 0 0 0-.49 1.11 12.16 12.16 0 0 0-4.43-3.57c-.39-.19-.69.38-.38.66a11.4 11.4 0 0 1 2.63 4.07 2.62 2.62 0 0 0-.73.34c-1.67 1.15-.81 3.16-1.49 4.8a1.66 1.66 0 0 0-.11.45A28.74 28.74 0 0 0 118 113c-.21-.21-.49.12-.35.35a27.84 27.84 0 0 1 3.2 7.53c-.07-.25.07.25.26.91l-.46-.51c-.36-.41-.72-.83-1.09-1.22-.2-.21-.91-.64-1-.93a.27.27 0 0 0-.48-.14c-.75.82-.08 2 .26 2.9l.23.62c-.22 0-.42.2-.45.44-.46-.81-.9-1.63-1.4-2.42a.28.28 0 0 0-.36-.13 46.45 46.45 0 0 0-1.94-4.35.22.22 0 0 0-.42.11c.1 2-.18 5.09.34 7.58a12 12 0 0 1-1.41-3.12 14.72 14.72 0 0 1-1-4.12.23.23 0 0 0-.45-.07 12.69 12.69 0 0 0-.3 7.39c.06.23.13.47.2.7a1.82 1.82 0 0 0-.54-.05 5.2 5.2 0 0 0-.75.23q-.66.51-.06-.32a1.36 1.36 0 0 0-1.35-1c-1.14-3.76-.71-7.43-.28-11.44 0-.26-.36-.42-.44-.14-.75 2.45-1.08 5-1.63 7.55a15.39 15.39 0 0 0-.31 2.18c-.05-.2-.11-.38-.16-.6-.48-2.15-1.34-4.32-1.66-6.5a.26.26 0 1 0-.52.06c0 2.28-1.28 7.35-.43 10.51a24.62 24.62 0 0 0-2.79.59c-.09-.13-.2-.24-.3-.36-.16-.86-.22-1.74-.37-2.65a27 27 0 0 0-1.28-4.73c-.11-.31-.49-.21-.57.07a38.87 38.87 0 0 0-1.68 6.75 2.77 2.77 0 0 0-.26.33 1.49 1.49 0 0 0-.61-.06 21.76 21.76 0 0 1-.5-4 .27.27 0 0 0-.51-.08 17.88 17.88 0 0 0-1 3.21v.18a11.63 11.63 0 0 1-.25-4.37c.08-.43-.57-.65-.72-.22a22 22 0 0 0-1.57 6.34c-.22-.77-.47-1.53-.67-2.32a1.53 1.53 0 0 0-2.13-1 12.88 12.88 0 0 1 0-6.24c.11-.38-.44-.49-.6-.18a14.28 14.28 0 0 0-1.88 8.23 1.88 1.88 0 0 0-.47.22 11.58 11.58 0 0 1-.49-4.32.26.26 0 0 0-.49-.15v.09a12.12 12.12 0 0 1 .21-2.08 33.78 33.78 0 0 1 .91-3.57 24.69 24.69 0 0 1 6-6 21 21 0 0 0-1.62 4.32c-.08.36.37.48.57.26a54 54 0 0 1 3.46-4.15v.07c.34 1.45 2.41 1.56 3.18.48.34-.48.65-1 1-1.47a2 2 0 0 0 1.73-.35 8.5 8.5 0 0 0 2.19-2.5 16.11 16.11 0 0 0 7.11-.72 4.63 4.63 0 0 0 2.24-1.23c2.38-.28 4.55-.85 6.17-2.92a.24.24 0 0 0-.2-.38H117c4.27-2 8-5.71 12.26-7.78.15-.08.2-.35 0-.42-5.54-2-11.53 3-16.21 5.7a1.89 1.89 0 0 0-.62.6c-3.6 1.1-6.76 2.73-10.69 3.07-1.18.1-2.33.22-3.46.41a1.22 1.22 0 0 0-.22 0 18.36 18.36 0 0 0-14.73 12.56 14.35 14.35 0 0 0-2.15 6.31 12.41 12.41 0 0 0 1.34 6.55c.7 3.18 2.74 5 6.73 4.7 1.63-.11 3.16.27 4.74.14 1.26-.1 2.23-1.1 3.38-1.44a52.29 52.29 0 0 1 10.69-2.05 13.47 13.47 0 0 0 2.9 1.8 1.33 1.33 0 0 0 1.42-.18c.1-.09 1.42-.2 1.59-.25 1.36-.39 2.6-1.05 4-1.4a4.07 4.07 0 0 0 3.74.75 5.22 5.22 0 0 0 2.77-2.87c.42-.76 1-1.39 1.39-2.18a13.31 13.31 0 0 0 .43-1.37c2.07-2.35 4.7-3.72 6.83-6 1-1.11 1.95-2.88 2.89-4s1.69-1.12 2.46-2.47c2.88-5.05-2.99-9.82-1.2-15.27z" fill="#db6594"/><path d="M122.05 93.51c-2.69-.52-4.42.86-6.69 2.14-3.14 1.78-6.76 2.45-10 4a1.21 1.21 0 0 0-.44.37 9.63 9.63 0 0 0-4.58.76s-2 1.29-1.93 1.28c-.56.07-1.46-.43-2.12-.4-3.64.15-6.41 3.12-8 6.28-.16.32.27.55.49.31a10.53 10.53 0 0 1 5.6-3.38 4.38 4.38 0 0 1 1.68 0 14.38 14.38 0 0 0-2 2.83.2.2 0 0 0 .25.28 18.7 18.7 0 0 0 3.63-1.89 1.51 1.51 0 0 0 1.53-.15 7.94 7.94 0 0 0 2.3-2.23 29 29 0 0 1 4-1.11 1.36 1.36 0 0 0 .88-.74 28.3 28.3 0 0 0 8.82-2.76 6.86 6.86 0 0 0 2-1.55 27.3 27.3 0 0 1 4.69-3.55.27.27 0 0 0-.11-.49z" fill="#b84271"/><path d="M113.21 97.43c-3.6.83-7.23.93-10.83 1.58a7.07 7.07 0 0 0-3.55 1.52 5.34 5.34 0 0 0-2.11 1 6.29 6.29 0 0 1-3.45 1.59.24.24 0 0 0 0 .47 7.74 7.74 0 0 0 3.5.23c.28-.08.57-.18.86-.28a.25.25 0 0 0 .37.3 2.71 2.71 0 0 0 .35-.29 1 1 0 0 0 .87-.3c.06-.06.12-.1.18-.15a1 1 0 0 0-.12.85c.09.33.52.21.59-.07a2.74 2.74 0 0 1 .93-1 1.11 1.11 0 0 0 1.38 0 5.34 5.34 0 0 0 1.13-1.22 20.58 20.58 0 0 0 3-.49 41.23 41.23 0 0 0 7.03-3.17c.27-.14.2-.64-.13-.57z" fill="#99345c"/><path d="M134.81 93.92c-3.57-2.26-7.18 1.43-9.87 3.49a.43.43 0 0 0-.07.57l-.44.25c-.39.22-.32 1 .2.87l.5-.13a1.63 1.63 0 0 0-.26.64c-.87-.08-1.73-.17-2.59-.28a.32.32 0 0 0-.35.28h-.07c-.48-.14-.63.55-.36.84l.41.41a10.09 10.09 0 0 0-3.3-.76.28.28 0 0 0-.21.49c1 .87 2 1.79 2.93 2.73-.9-.37-1.82-.71-2.7-1.06a.36.36 0 0 0-.49.38 2.76 2.76 0 0 0 .38 1.24 4 4 0 0 0-2.34-.94c-.16 0-.22.19-.19.32.37 1.28 1.81 2.3 2.63 3.27l.08.09a6.39 6.39 0 0 0-.81-.55 1.24 1.24 0 0 0-1-.07 14.38 14.38 0 0 0-1.62-.81 6.55 6.55 0 0 0-.48-.65.47.47 0 0 0-.79.1v.1a2.56 2.56 0 0 0-.15.83.85.85 0 0 1 0-.62.25.25 0 0 0-.42-.27c-.09.11-.16.21-.23.31a.44.44 0 0 0-.78-.28 7.1 7.1 0 0 0-1 2.8 7.47 7.47 0 0 0-.95-1.68.25.25 0 0 0-.45.12c-.29 1.38-.89 2.72-1.21 4.11a14.13 14.13 0 0 0-.34 2.12c-.06.14-.12.29-.17.44 0-.23.1-.46.14-.68a1.51 1.51 0 0 0-2.14-1.6c.06-.18.1-.36.17-.54.51-1.38 1.31-2.65 1.73-4.06.19-.65-.33-1.53-1.05-1.15a6.59 6.59 0 0 0-1.63 1.23l.1-.23c.21-.44-.35-.71-.64-.41a17.27 17.27 0 0 0-3.09 4.47 1.49 1.49 0 0 0-2.69.13 16.48 16.48 0 0 0-1.2 3.14 1.43 1.43 0 0 0-.93-.25 2.83 2.83 0 0 1 1-1.06.86.86 0 0 0-.16-1.61 3.09 3.09 0 0 0-2.61.82c-.62-.4-1.89.58-2.31 1a7.37 7.37 0 0 0-.77.91 1.74 1.74 0 0 0-.16-.07 1.24 1.24 0 0 0-1.78.21 1.68 1.68 0 0 0-.29.26 8.63 8.63 0 0 0-.61.92c.22-.61.51-1.53 1-1.78s.51-.89 0-1.06c-1.06-.37-1.85.49-2.46 1.32a9.56 9.56 0 0 0-1.59 3.42 1.1 1.1 0 0 0 2.1.64l.09-.25v.2a1.55 1.55 0 0 0 .25 1.21 25.35 25.35 0 0 0-.13 5.22c0 .41.67.56.81.13.4-1.31.8-2.62 1.27-3.92a1.4 1.4 0 0 0 1.83-.09 3 3 0 0 0 .24-.28 1.42 1.42 0 0 0 2.21-.21 15.34 15.34 0 0 0 1.1 5.86.21.21 0 0 0 .4 0c.29-1.68.45-3.38.77-5.06.25-1.3.67-2.56 1-3.84a1.61 1.61 0 0 0 .92.3 1.57 1.57 0 0 0 1.31.67 69.27 69.27 0 0 0 1 8.17.53.53 0 1 0 1.05-.13 46.38 46.38 0 0 1 .38-8.62 1.29 1.29 0 0 0 .31-.66v-.25a1.59 1.59 0 0 0 1.1-.07 14.08 14.08 0 0 0-.14 1.81 10.6 10.6 0 0 0 1.62 5.64.31.31 0 0 0 .55-.14 37.53 37.53 0 0 1 .9-5.46c-.24 3.28.65 6.65 3.05 8.77a.37.37 0 0 0 .58-.34 20.91 20.91 0 0 1-.29-8.35 1.59 1.59 0 0 0 1.06-.23 1.4 1.4 0 0 0 2.41-1.12c-.11-.57-.23-1.14-.36-1.72v.05a1.19 1.19 0 0 0 1.13.55c.16.32.32.64.47 1 .58 1.3 1.09 2.88 2.2 3.78a.32.32 0 0 0 .51-.21c.45-1.64-.14-3.57-.53-5.17a1.29 1.29 0 0 0 1.16-1.86l-.07-.15.21.22c.2.28.4.55.62.81a1.34 1.34 0 0 0 .17.14c1.12 1.4 2.17 2.85 3.26 4.27a.38.38 0 0 0 .68-.29 20.11 20.11 0 0 0-2.7-7.71c.22.25.44.51.67.75.9.94 2.31-.58 1.59-1.61a13.43 13.43 0 0 0-1-1.2c1 .83 2 1.73 3 2.63a1.33 1.33 0 0 0 2-.28c.2.17.39.35.55.53s.75-.12.6-.47-.27-.76-.4-1.13a1.47 1.47 0 0 0 .34-.74 4.25 4.25 0 0 0-1.41-3.32c1 .09 1.83-1.26 1.09-2a1.58 1.58 0 0 0 .49-.87 6.23 6.23 0 0 0 1.25-.14 1.57 1.57 0 0 0 1.05-2.08 1 1 0 0 0 .59 0l.44.14c.33.12.8-.31.49-.65l-.16-.17A1.18 1.18 0 0 0 132 97a9.61 9.61 0 0 0 2.37-.07 1.63 1.63 0 0 0 .44-3.01z" fill="#ffb8d4"/><path d="M95.74 109.61c-.95-.39-2.17.76-2.93 1.61a.32.32 0 0 0-.34-.32 18.21 18.21 0 0 0 .71-2.58c0-.22-.21-.46-.41-.35a8.92 8.92 0 0 0-2.33 1.78 10.33 10.33 0 0 0-1.55 1.37 6.67 6.67 0 0 0-1.48 2.88 1.06 1.06 0 0 0 .75 1.22 9.35 9.35 0 0 0-.5 3.77c0 .4.53.35.62 0a9.65 9.65 0 0 1 1-2.35 1.59 1.59 0 0 0 .53 0v.42a13.45 13.45 0 0 0 .39 5.87.44.44 0 0 0 .81 0c.52-1.59 1-3.19 1.6-4.76a27.1 27.1 0 0 0 1.5-4.05c.09-.23.18-.46.29-.68.49-1 1.48-2.19 1.59-3.33a.46.46 0 0 0-.25-.5z" fill="#ffe6ed"/><path d="M122.68 116.39c-.2-.31-.39-.63-.58-1-.4-1.76-.35-3.57-1.23-5.23a4 4 0 0 0-.38-.65 8.92 8.92 0 0 0-1.09-1.45 39 39 0 0 0-3.28-2.51 6.55 6.55 0 0 0-1-1.22h-.06a3.55 3.55 0 0 1-.23-.42.26.26 0 0 0-.5.06 4 4 0 0 0 .28 2.7 5.82 5.82 0 0 0-2.07 2.71c0-.78 0-1.56.12-2.33 0-.47-.59-.9-.89-.41a16.42 16.42 0 0 0-1.12 2.23 17.47 17.47 0 0 1 .88-3.27.49.49 0 0 0-.82-.52l-.27.32a.38.38 0 0 0-.37.21l-.25.52c-2 2.57-3.4 5.82-2.78 9.2a1.55 1.55 0 0 0 .22.54 11.18 11.18 0 0 0 1.81 6.88.53.53 0 0 0 1-.25c.12-2.64.14-5.19.36-7.78a.83.83 0 0 0 .6 0 1.33 1.33 0 0 0 1.25-.52 1.52 1.52 0 0 0 2.55-1.21c0-1 .1-2 .16-3l.06.3a.73.73 0 0 0 0 .13 16.74 16.74 0 0 0 .83 3.39 1.21 1.21 0 0 0 2.33-.29 5.16 5.16 0 0 0 0-.52 6.68 6.68 0 0 0 4 4 .46.46 0 0 0 .47-.61z" fill="#ffe6ed"/><path d="M130.46 97.64c-.07 0-.16 0-.23-.08a.85.85 0 0 0-.54-.19 6.06 6.06 0 0 0-3.08.16 6.55 6.55 0 0 0-2.92 2.07c-.28.28-.07.61.2.73a13.09 13.09 0 0 0-2.85.92.3.3 0 0 0-.16.37 10.29 10.29 0 0 1-1.12-1c-.41-.42-1 .25-.7.71a13.29 13.29 0 0 0 1.73 2.3 3.69 3.69 0 0 0-2.86.21.49.49 0 0 0 0 .87 33 33 0 0 1 3 2.17c1 .71 2 1.5 3 2.17a1.35 1.35 0 0 0 2.09-.93l.28.3c.53.55 1.17 1 1.68 1.56s1.08-.18.87-.68c-.32-.79-.51-1.57-.91-2.33-.11-.21-.23-.42-.35-.62a1.12 1.12 0 0 0 0-1 7 7 0 0 0-.43-.75c1 .21 2.14-.79 1.59-1.87a4.51 4.51 0 0 0-3.54-2.43 4.59 4.59 0 0 0-.54 0c1.77-.32 3.59.21 5.33.2 1.52-.03 1.6-2.28.46-2.86zm-8.46 4.68a6 6 0 0 1-.77-.45 12.82 12.82 0 0 1 2.61.56 2.88 2.88 0 0 1-1.84-.11z" fill="#ffe6ed"/><path d="M107.28 122.13a.66.66 0 0 0-1.32 0c-.08.59-.16 1.17-.21 1.75l-.19-.05a25.89 25.89 0 0 1-1.05-6.45c0-.26-.43-.36-.51-.08a18.32 18.32 0 0 0-.92 6.81c-.11.57-.29 1.12-.34 1.7a6.64 6.64 0 0 0 .14 1.87.9.9 0 0 0 1.8-.06 1.45 1.45 0 0 0 1.25-.32c.05.2.11.41.18.61a1.17 1.17 0 0 0 2.25-.61c-.24-1.77-.89-3.42-1.08-5.17z" fill="#b84271"/><path d="M91.14 129.14a8.53 8.53 0 0 0-.55-1.08.45.45 0 0 0-.77.1c0 .05 0 .12-.06.18a31.07 31.07 0 0 1-1.28-4.18.48.48 0 0 0-.94 0c-.09.34-.17.7-.23 1.07v-.2a31.08 31.08 0 0 1-.39-3.61.41.41 0 0 0-.79-.12 13.93 13.93 0 0 0-.88 3 17.85 17.85 0 0 1-1.26-8.74.27.27 0 0 0-.51-.16 20.09 20.09 0 0 0-1.29 4.32.22.22 0 0 0-.26.16c-.94 2.95 0 6 1.34 8.54.54 1 2.13 3.52 3.34 2.73a1.94 1.94 0 0 0 1.69-.12 1 1 0 0 0 .15-.11 1.2 1.2 0 0 0 1.25-.32 2.2 2.2 0 0 0 .29.63 1 1 0 0 0 1.75-.73 4.5 4.5 0 0 0-.6-1.36z" fill="#b84271"/><path d="M133.88 115a3.46 3.46 0 0 0-2.68-1.87.32.32 0 0 0-.33.43l.15.41-.83-.6c-.32-.24-.57-.53-1-.55a9 9 0 0 0-2.77-2.54c-1.81-1.08-3.9-1.3-5.75-2.25-.2-.1-.34.19-.2.34 1.29 1.3 2.93 2.08 4.32 3.24.15.12.29.26.43.39a19.62 19.62 0 0 1 1.53 1.77 8.43 8.43 0 0 1 .67 1l-.32-.19c-.32-.19-1.85-.87-1.91-.07a.17.17 0 0 0 .23.19 18.1 18.1 0 0 1 1.2 1.82c.13.22.26.46.38.7a8.09 8.09 0 0 0-1.27-.48c-.47-.14-.65.56-.36.84a7.27 7.27 0 0 1 1.42 2.07 1.79 1.79 0 0 0 1.47 1.19 1.75 1.75 0 0 0 1.52-1 7.47 7.47 0 0 1 1.61-1.8.9.9 0 0 0 .21-.26 1 1 0 0 0 1.23-.85 1.44 1.44 0 0 0 0-.51 1.1 1.1 0 0 0 1.05-1.42z" fill="#b84271"/><path d="M132.53 116.33c-.3-.46-1.11-1.21-1.69-1a12.79 12.79 0 0 0-2.92-2.45c-.24-.15-.64.14-.4.41a13.79 13.79 0 0 1 1.55 2.1c.45.77.75 1.64 1.28 2.36a.81.81 0 0 0 1.44-.36.69.69 0 0 0 .74-1.06z" fill="#99345c"/><path d="M106.56 125.16a.36.36 0 0 0-.69 0c-.3-1-.74-2-1-3a.42.42 0 1 0-.84.1 14.89 14.89 0 0 0 .66 4.43.76.76 0 0 0 1.17.27v.34a.48.48 0 1 0 .95-.12 8.41 8.41 0 0 0-.25-2.02z" fill="#99345c"/><path d="M118.4 124.64a1.13 1.13 0 0 0-1.28-.77l-.08-.16c-.23-.52-.42-1.05-.63-1.59a25.08 25.08 0 0 1-1-3.22c-.1-.42-.63-.18-.64.17a29.16 29.16 0 0 0 .26 5.18c0 .26.08.52.12.77-.2-.45-.38-.91-.55-1.38a.22.22 0 0 0-.43.05c-.36 1.78-.44 4.7 1.12 5.89a1 1 0 0 0 1.5-.88 2.75 2.75 0 0 0-.09-.4.28.28 0 0 0 .14-.11 1.29 1.29 0 0 0 .16-.64c.6.91 1.93.19 1.87-.83a9.9 9.9 0 0 0-.47-2.08z" fill="#b84271"/></g></g></svg>