<svg xmlns="http://www.w3.org/2000/svg" viewBox="0 -0.8400001525878906 76.5 63.12001419067383"><title>Depositphotos_87521710_14</title><g data-name="Layer 2"><g data-name="Layer 1"><path fill="#a18d81" d="M9.18 51.64L0 44.73l9.66 6.22-.48.69z"/><path d="M47.54 5.18c-3.58 2.26-7.15-2.26-10.73 0V1.42c3.58-2.26 7.15 2.26 10.73 0z" fill="#df4937"/><path fill="#7b6a58" d="M36 0h1.16v54.92H36z"/><path d="M57.55 17.19c-4.89 2.17-9.77-2.17-14.66 0v-5.72c4.89-2.17 9.77 2.17 14.66 0z" fill="#93ba77" fill-rule="evenodd"/><path d="M57.05 12.16v4.74c-4.56 1.63-9.11-2-13.67-.4v-4.73c4.56-1.63 9.11 2 13.67.4zm.49-.69c-4.89 2.17-9.77-2.17-14.66 0v5.72c4.89-2.17 9.77 2.17 14.66 0v-5.72z" fill="#6b8756" fill-rule="evenodd"/><path d="M51.69 14.65c0 1.12-.66 1.9-1.47 1.71A2.35 2.35 0 0 1 48.75 14c0-1.12.66-1.9 1.47-1.71a2.36 2.36 0 0 1 1.47 2.36z" fill="#6b8756" fill-rule="evenodd"/><path d="M46 14.93a1.11 1.11 0 0 1-.29 0 .89.89 0 0 1-.22-.09.5.5 0 0 1-.14-.12.19.19 0 0 1 0-.12.19.19 0 0 1 0-.11.12.12 0 0 1 .09-.06.1.1 0 0 1 .07 0l.1.09.16.09a.58.58 0 0 0 .24 0v-.91l-.23-.09a.8.8 0 0 1-.2-.11.52.52 0 0 1-.15-.17.56.56 0 0 1-.06-.27.65.65 0 0 1 .06-.28.57.57 0 0 1 .15-.19.62.62 0 0 1 .21-.12 1 1 0 0 1 .23 0v-.1h.12a.06.06 0 0 1 0 .05v.1h.19l.18.05.13.08a.13.13 0 0 1 0 .1.2.2 0 0 1 0 .1.09.09 0 0 1-.09.05h-.42v.79l.22.1a.79.79 0 0 1 .19.14.67.67 0 0 1 .14.21.76.76 0 0 1 .05.3.61.61 0 0 1-.17.47.74.74 0 0 1-.44.19V15H46zm-.36-1.87a.35.35 0 0 0 0 .15.3.3 0 0 0 .08.1l.12.07.14.06v-.72h-.15l-.12.06a.28.28 0 0 0-.08.1.32.32 0 0 0 .03.18zm.87 1.21a.5.5 0 0 0 0-.17.42.42 0 0 0-.07-.13l-.11-.09-.13-.07v.84a.42.42 0 0 0 .26-.12.37.37 0 0 0 .07-.26z" fill="#f6f6f6"/><path d="M54.33 16.19a.93.93 0 0 1-.29 0 .84.84 0 0 1-.22-.11.57.57 0 0 1-.14-.14.23.23 0 0 1 0-.12.17.17 0 0 1 0-.1.1.1 0 0 1 .09 0 .12.12 0 0 1 .07 0l.1.1.15.1a.56.56 0 0 0 .24 0V15l-.23-.09a.8.8 0 0 1-.21-.13.6.6 0 0 1-.15-.19.62.62 0 0 1-.06-.28.59.59 0 0 1 .06-.27.49.49 0 0 1 .15-.18.63.63 0 0 1 .21-.1h.23v-.1h.12v.1h.37l.13.06a.11.11 0 0 1 0 .09.23.23 0 0 1 0 .1.11.11 0 0 1-.09.06h-.42v.79l.22.09a.73.73 0 0 1 .19.13.57.57 0 0 1 .14.19.82.82 0 0 1-.12.79.73.73 0 0 1-.44.22v.12h-.12a.07.07 0 0 1 0-.05zM54 14.3a.36.36 0 0 0 0 .15.32.32 0 0 0 .08.11l.12.08.14.06V14h-.15l-.12.06a.26.26 0 0 0-.08.09.3.3 0 0 0 .01.15zm.87 1.21a.47.47 0 0 0 0-.17.38.38 0 0 0-.07-.12l-.11-.09-.13-.07v.84a.43.43 0 0 0 .26-.13.4.4 0 0 0 .02-.27z" fill="#f6f6f6"/><ellipse cx="43.59" cy="11.84" rx=".56" ry=".55" fill="#6b8756"/><ellipse cx="43.59" cy="16.23" rx=".56" ry=".55" fill="#6b8756"/><ellipse cx="56.78" cy="16.78" rx=".56" ry=".55" fill="#6b8756"/><ellipse cx="56.78" cy="12.39" rx=".56" ry=".55" fill="#6b8756"/><path d="M75.2 20.75c-4.33 1.93-8.66-1.93-13 0v-5.07c4.33-1.93 8.66 1.93 13 0z" fill="#93ba77" fill-rule="evenodd"/><path d="M74.76 16.29v4.2c-4 1.45-8.08-1.8-12.12-.35v-4.2c4-1.45 8.08 1.8 12.12.35zm.44-.61c-4.33 1.93-8.66-1.93-13 0v5.07c4.33-1.93 8.66 1.93 13 0v-5.07z" fill="#6b8756" fill-rule="evenodd"/><path d="M70 18.5c0 1-.58 1.68-1.3 1.52a2.09 2.09 0 0 1-1.3-2.08c0-1 .58-1.68 1.3-1.52A2.09 2.09 0 0 1 70 18.5z" fill="#6b8756" fill-rule="evenodd"/><path d="M65 18.75a1 1 0 0 1-.26 0 .77.77 0 0 1-.2-.08.45.45 0 0 1-.12-.1.17.17 0 0 1 0-.1.17.17 0 0 1 0-.1.11.11 0 0 1 .08-.05.09.09 0 0 1 .07 0l.09.08.14.08a.53.53 0 0 0 .21 0v-.81l-.2-.08a.68.68 0 0 1-.18-.1.46.46 0 0 1-.13-.15.5.5 0 0 1-.05-.24.57.57 0 0 1 0-.25.49.49 0 0 1 .13-.17.54.54 0 0 1 .18-.1h.2v-.09h.11v.09h.33l.11.07a.12.12 0 0 1 0 .09.18.18 0 0 1 0 .09.08.08 0 0 1-.08 0h-.36v.7l.19.09a.7.7 0 0 1 .17.13.59.59 0 0 1 .12.19.68.68 0 0 1 0 .27.55.55 0 0 1-.15.42.66.66 0 0 1-.39.17v.11h-.11zm-.32-1.66a.3.3 0 0 0 0 .13.25.25 0 0 0 .07.09l.11.07.13.05v-.64h-.13l-.11.06a.24.24 0 0 0-.07.09.28.28 0 0 0-.02.15zm.77 1.07a.43.43 0 0 0 0-.15.38.38 0 0 0-.07-.11l-.1-.08-.12-.06v.75a.38.38 0 0 0 .23-.1.33.33 0 0 0 .04-.25z" fill="#f6f6f6"/><path d="M72.35 19.86a.79.79 0 0 1-.26 0 .75.75 0 0 1-.2-.1.52.52 0 0 1-.12-.12.2.2 0 0 1 0-.11.14.14 0 0 1 0-.09.09.09 0 0 1 .08 0 .11.11 0 0 1 .07 0l.09.09.14.09a.48.48 0 0 0 .21 0v-.81l-.2-.08a.74.74 0 0 1-.18-.11.52.52 0 0 1-.18-.41.51.51 0 0 1 0-.24.42.42 0 0 1 .2-.17.56.56 0 0 1 .18-.09h.2v-.09h.12v.09h.33l.11.05a.1.1 0 0 1 0 .08.21.21 0 0 1 0 .09.1.1 0 0 1-.08.06h-.36v.7l.19.08a.67.67 0 0 1 .17.11.5.5 0 0 1 .14.12.73.73 0 0 1-.1.7.65.65 0 0 1-.39.2v.1h-.12zM72 18.19a.32.32 0 0 0 0 .14.28.28 0 0 0 .07.1l.11.07.13.06v-.66h-.13l-.11.05a.23.23 0 0 0-.07.08.27.27 0 0 0 0 .16zm.77 1.07a.42.42 0 0 0 0-.15.34.34 0 0 0-.07-.11l-.1-.08-.12-.06v.75a.38.38 0 0 0 .23-.12.35.35 0 0 0 .09-.24z" fill="#f6f6f6"/><ellipse cx="62.82" cy="16" rx=".49" ry=".49" fill="#6b8756"/><ellipse cx="62.82" cy="19.9" rx=".49" ry=".49" fill="#6b8756"/><circle cx="74.52" cy="20.39" r=".49" fill="#6b8756"/><ellipse cx="74.52" cy="16.49" rx=".49" ry=".49" fill="#6b8756"/><path d="M76.5 31.93c-4.33 1.93-8.66-1.93-13 0v-5.08c4.33-1.93 8.66 1.93 13 0z" fill="#93ba77" fill-rule="evenodd"/><path d="M76.06 27.47v4.2c-4 1.45-8.08-1.8-12.12-.35v-4.2c4-1.45 8.08 1.8 12.12.35zm.44-.61c-4.33 1.93-8.66-1.93-13 0v5.07c4.33-1.93 8.66 1.93 13 0v-5.08z" fill="#6b8756" fill-rule="evenodd"/><path d="M71.3 29.67c0 1-.58 1.68-1.3 1.52a2.09 2.09 0 0 1-1.3-2.08c0-1 .58-1.68 1.3-1.52a2.09 2.09 0 0 1 1.3 2.08z" fill="#6b8756" fill-rule="evenodd"/><path d="M66.28 29.92a1 1 0 0 1-.26 0 .77.77 0 0 1-.2-.08.46.46 0 0 1-.12-.1.18.18 0 0 1 0-.1.17.17 0 0 1 0-.1.11.11 0 0 1 .08-.05.09.09 0 0 1 .07 0l.09.08.14.08a.53.53 0 0 0 .21 0v-.81l-.2-.08a.72.72 0 0 1-.18-.1.48.48 0 0 1-.13-.15.5.5 0 0 1-.05-.24.57.57 0 0 1 0-.25.5.5 0 0 1 .13-.17.56.56 0 0 1 .18-.1h.21v-.09h.11v.09h.33l.11.07a.12.12 0 0 1 0 .09.18.18 0 0 1 0 .09.08.08 0 0 1-.08 0h-.36v.7l.19.09a.72.72 0 0 1 .17.13.58.58 0 0 1 .12.19.67.67 0 0 1 0 .27.55.55 0 0 1-.15.42.66.66 0 0 1-.39.17V30h-.11zM66 28.26a.31.31 0 0 0 0 .13.25.25 0 0 0 .07.09l.11.07.13.05V28h-.13l-.11.06a.25.25 0 0 0-.07.09.29.29 0 0 0 0 .11zm.77 1.07a.42.42 0 0 0 0-.15.37.37 0 0 0-.07-.11l-.1-.08-.12-.06v.75a.38.38 0 0 0 .23-.1.33.33 0 0 0 .02-.25z" fill="#f6f6f6"/><path d="M73.65 31a.79.79 0 0 1-.26 0 .76.76 0 0 1-.2-.1.52.52 0 0 1-.12-.12.2.2 0 0 1 0-.11.14.14 0 0 1 0-.09.09.09 0 0 1 .08 0 .11.11 0 0 1 .07 0l.09.09.14.09a.48.48 0 0 0 .21 0V30l-.2-.08a.74.74 0 0 1-.18-.11.52.52 0 0 1-.18-.42.51.51 0 0 1 0-.24.42.42 0 0 1 .13-.16.56.56 0 0 1 .18-.09h.2v-.09h.11v.09h.44l.11.05a.1.1 0 0 1 0 .08.2.2 0 0 1 0 .09.1.1 0 0 1-.08.06h-.36v.7l.19.08a.67.67 0 0 1 .17.11.51.51 0 0 1 .12.17.73.73 0 0 1-.1.7.65.65 0 0 1-.39.2v.11h-.11zm-.32-1.67a.32.32 0 0 0 0 .14.28.28 0 0 0 .07.1l.11.07.13.06v-.64h-.13l-.11.05a.23.23 0 0 0-.07.08.27.27 0 0 0 0 .17zm.77 1.07a.42.42 0 0 0 0-.15.34.34 0 0 0-.07-.11l-.1-.08-.13-.06v.75a.38.38 0 0 0 .23-.12.35.35 0 0 0 .07-.2z" fill="#f6f6f6"/><ellipse cx="64.12" cy="27.18" rx=".49" ry=".49" fill="#6b8756"/><circle cx="64.12" cy="31.07" r=".49" fill="#6b8756"/><circle cx="75.82" cy="31.56" r=".49" fill="#6b8756"/><ellipse cx="75.82" cy="27.67" rx=".49" ry=".49" fill="#6b8756"/><path d="M65.24 42.91c-6.11 2.72-12.21-2.72-18.32 0v-7.16c6.11-2.72 12.21 2.72 18.32 0z" fill="#93ba77" fill-rule="evenodd"/><path d="M64.62 36.62v5.92c-5.7 2-11.39-2.54-17.09-.5v-5.92c5.7-2 11.39 2.54 17.09.5zm.62-.87c-6.11 2.72-12.24-2.75-18.32 0v7.15c6.11-2.72 12.21 2.72 18.32 0v-7.15z" fill="#6b8756" fill-rule="evenodd"/><path d="M57.91 39.72c0 1.4-.82 2.37-1.83 2.14a2.94 2.94 0 0 1-1.83-2.93c0-1.4.82-2.37 1.83-2.14a2.94 2.94 0 0 1 1.83 2.93z" fill="#6b8756" fill-rule="evenodd"/><path d="M50.83 40.08a1.34 1.34 0 0 1-.36 0 1.11 1.11 0 0 1-.28-.11.65.65 0 0 1-.17-.15.25.25 0 0 1-.06-.15.24.24 0 0 1 0-.14.15.15 0 0 1 .11-.07.13.13 0 0 1 .09 0l.13.11.19.11a.77.77 0 0 0 .3.05v-1.14l-.29-.11a1 1 0 0 1-.26-.14.66.66 0 0 1-.18-.22.7.7 0 0 1-.07-.34.81.81 0 0 1 .07-.35.71.71 0 0 1 .18-.24.8.8 0 0 1 .26-.14 1.18 1.18 0 0 1 .29-.06v-.13a.08.08 0 0 1 0-.06.13.13 0 0 1 .16 0 .08.08 0 0 1 0 .06V37h.24l.22.07a.55.55 0 0 1 .16.1.16.16 0 0 1 .06.12.25.25 0 0 1 0 .12.12.12 0 0 1-.11.07h-.08l-.1-.06-.15-.06h-.2v1l.27.13a1 1 0 0 1 .24.18.84.84 0 0 1 .17.26 1 1 0 0 1 .07.38.77.77 0 0 1-.21.59.93.93 0 0 1-.55.24v.15a.08.08 0 0 1 0 .06.11.11 0 0 1-.08 0 .12.12 0 0 1-.08 0 .08.08 0 0 1 0-.06zm-.45-2.34a.43.43 0 0 0 0 .19.37.37 0 0 0 .1.13l.15.09.18.08v-.9h-.18a.5.5 0 0 0-.15.08.36.36 0 0 0-.1.13.4.4 0 0 0 0 .2zm1.09 1.51a.61.61 0 0 0 0-.21.53.53 0 0 0-.09-.16.6.6 0 0 0-.14-.12l-.24-.08v1.06a.53.53 0 0 0 .32-.15.46.46 0 0 0 .15-.34z" fill="#f6f6f6"/><path d="M61.22 41.65a1.17 1.17 0 0 1-.36-.06 1.07 1.07 0 0 1-.28-.14.74.74 0 0 1-.17-.17.28.28 0 0 1-.06-.16.21.21 0 0 1 0-.13.13.13 0 0 1 .11-.06.15.15 0 0 1 .09.06l.13.12a1 1 0 0 0 .19.13.7.7 0 0 0 .3.06v-1.14l-.23-.16a1 1 0 0 1-.26-.16.73.73 0 0 1-.25-.58.74.74 0 0 1 .07-.26.62.62 0 0 1 .18-.22.81.81 0 0 1 .26-.12 1.46 1.46 0 0 1 .29-.05v-.13a.08.08 0 0 1 0-.06.12.12 0 0 1 .08 0 .12.12 0 0 1 .08 0 .08.08 0 0 1 0 .06v.12h.46a.49.49 0 0 1 .16.08.14.14 0 0 1 .06.11.29.29 0 0 1 0 .13.13.13 0 0 1-.07.08h-.53v1l.27.11a.93.93 0 0 1 .24.16.73.73 0 0 1 .17.24.88.88 0 0 1 .07.37.87.87 0 0 1-.21.62.91.91 0 0 1-.55.28v.15a.08.08 0 0 1 0 .06.11.11 0 0 1-.08 0 .11.11 0 0 1-.08 0 .08.08 0 0 1 0-.06zm-.45-2.36a.45.45 0 0 0 0 .19.4.4 0 0 0 .1.14l.15.1.18.08v-.9h-.18a.51.51 0 0 0-.15.07.33.33 0 0 0-.1.12.38.38 0 0 0 0 .2zm1.09 1.51a.59.59 0 0 0 0-.21.48.48 0 0 0-.09-.15.56.56 0 0 0-.14-.11l-.17-.08v1.05a.53.53 0 0 0 .32-.16.5.5 0 0 0 .08-.35z" fill="#f6f6f6"/><ellipse cx="47.79" cy="36.21" rx=".7" ry=".69" fill="#6b8756"/><ellipse cx="47.79" cy="41.7" rx=".7" ry=".69" fill="#6b8756"/><ellipse cx="64.28" cy="42.39" rx=".7" ry=".69" fill="#6b8756"/><ellipse cx="64.28" cy="36.9" rx=".7" ry=".69" fill="#6b8756"/><path d="M58.12 29.92c-6.24 2.78-12.49-2.78-18.73 0v-7.31c6.24-2.78 12.49 2.78 18.73 0z" fill="#93ba77" fill-rule="evenodd"/><path d="M57.49 23.49v6.05C51.66 31.63 45.84 26.95 40 29v-6c5.82-2.09 11.65 2.59 17.47.51zm.63-.88c-6.24 2.78-12.49-2.78-18.73 0v7.31c6.24-2.78 12.49 2.78 18.73 0v-7.31z" fill="#6b8756" fill-rule="evenodd"/><path d="M50.63 26.66c0 1.43-.84 2.43-1.87 2.19a3 3 0 0 1-1.87-3c0-1.43.84-2.43 1.87-2.19a3 3 0 0 1 1.87 3z" fill="#6b8756" fill-rule="evenodd"/><path d="M43.38 27a1.36 1.36 0 0 1-.38 0 1.12 1.12 0 0 1-.28-.12.66.66 0 0 1-.18-.15.25.25 0 0 1-.06-.15.25.25 0 0 1 .05-.14.16.16 0 0 1 .11-.08.13.13 0 0 1 .09 0l.13.11a1 1 0 0 0 .2.11.79.79 0 0 0 .31.05v-1.12l-.29-.11a1 1 0 0 1-.26-.14.68.68 0 0 1-.19-.22.71.71 0 0 1-.07-.34.82.82 0 0 1 .07-.35.73.73 0 0 1 .19-.25.82.82 0 0 1 .26-.15 1.3 1.3 0 0 1 .3-.06v-.13a.08.08 0 0 1 0-.06.12.12 0 0 1 .08 0 .12.12 0 0 1 .08 0 .08.08 0 0 1 0 .07v.13h.24l.22.07a.56.56 0 0 1 .16.1.17.17 0 0 1 .06.12.26.26 0 0 1 0 .13.12.12 0 0 1-.12.07h-.08L44 24.3l-.15-.06h-.2v1l.28.13a1 1 0 0 1 .25.18.84.84 0 0 1 .18.27 1 1 0 0 1 .07.38.79.79 0 0 1-.22.61 1 1 0 0 1-.56.24v.16a.08.08 0 0 1 0 .06.13.13 0 0 1-.16 0 .09.09 0 0 1 0-.06zm-.46-2.39a.44.44 0 0 0 0 .19.37.37 0 0 0 .1.13l.15.09.18.08v-.92h-.19a.5.5 0 0 0-.15.08.38.38 0 0 0-.1.13.42.42 0 0 0 .01.25zM44 26.18a.63.63 0 0 0 0-.18.54.54 0 0 0-.09-.16.59.59 0 0 0-.14-.12l-.17-.09v1.08a.54.54 0 0 0 .33-.15.47.47 0 0 0 .07-.38z" fill="#f6f6f6"/><path d="M54 28.63a1.18 1.18 0 0 1-.37-.06 1.11 1.11 0 0 1-.28-.14.75.75 0 0 1-.18-.17.28.28 0 0 1-.06-.16.21.21 0 0 1 .05-.13.13.13 0 0 1 .11-.06.15.15 0 0 1 .09.06l.13.13a1 1 0 0 0 .2.13.7.7 0 0 0 .31.06v-1.18l-.28-.11a1 1 0 0 1-.26-.16.74.74 0 0 1-.26-.6.75.75 0 0 1 .07-.35.62.62 0 0 1 .19-.22.8.8 0 0 1 .26-.13 1.45 1.45 0 0 1 .3-.05v-.13a.09.09 0 0 1 0-.06.12.12 0 0 1 .08 0 .12.12 0 0 1 .08 0 .08.08 0 0 1 0 .06v.13h.46a.5.5 0 0 1 .16.08.14.14 0 0 1 .06.12.29.29 0 0 1 0 .13.14.14 0 0 1-.12.08h-.19l-.15-.05h-.2v1l.28.11a1 1 0 0 1 .25.16.74.74 0 0 1 .18.25 1.05 1.05 0 0 1-.15 1 .94.94 0 0 1-.56.28v.16a.08.08 0 0 1 0 .06.13.13 0 0 1-.16 0 .08.08 0 0 1 0-.06zm-.46-2.41a.46.46 0 0 0 0 .2.41.41 0 0 0 .1.14.7.7 0 0 0 .15.1l.19.08v-.92h-.19a.5.5 0 0 0-.15.07.34.34 0 0 0-.1.12.4.4 0 0 0 .01.21zm1.11 1.54a.59.59 0 0 0 0-.21.5.5 0 0 0-.09-.16.58.58 0 0 0-.14-.11l-.17-.08v1.08a.54.54 0 0 0 .33-.17.51.51 0 0 0 .08-.35z" fill="#f6f6f6"/><ellipse cx="40.27" cy="23.07" rx=".71" ry=".71" fill="#6b8756"/><ellipse cx="40.27" cy="28.68" rx=".71" ry=".71" fill="#6b8756"/><ellipse cx="57.14" cy="29.39" rx=".71" ry=".71" fill="#6b8756"/><ellipse cx="57.14" cy="23.78" rx=".71" ry=".71" fill="#6b8756"/><path d="M31.45 51.93a2.62 2.62 0 0 0-2.62-2.62H6.72v.13a12.86 12.86 0 0 0 12.86 12.84H62.7a2.74 2.74 0 0 0 2.74-2.74v-7.61z" fill="#a18d81"/><path d="M30.23 54.29h35.2v-2.36h-34a2.62 2.62 0 0 0-2.62-2.62H6.72v.13a12.89 12.89 0 0 0 .21 2.22h18.75a2.67 2.67 0 0 1 2.87 1.5 1.85 1.85 0 0 0 1.68 1.13z" fill="#876b5b"/><path d="M53.65 51.64c-13.25-2.89-28.14-6.18-34.45-2.5C2.22 28.5 27.81 7.73 36 7.5c-9.88 18.13 2.72 34.09 17.65 44.14z" fill="#ededed" fill-rule="evenodd"/><path fill="#7b6a58" d="M34.32 6.68h4.53v1.05h-4.53z"/></g></g></svg>