<svg xmlns="http://www.w3.org/2000/svg" viewBox="-0.09772586822509766 -0.08772611618041992 66.52171325683594 66.08772277832031"><title>Depositphotos_107034280_02</title><g data-name="Layer 2"><g data-name="Layer 1"><g data-name="Layer 2"><g data-name="Layer 1-2"><path d="M53 29a4 4 0 0 0-4-4h-4c-8 0-8 8-12 8H1v24h32c4 0 8 4 12 4h16a4 4 0 0 0 0-8 4 4 0 0 0 0-8 4 4 0 0 0 0-8 4 4 0 0 0 0-8z" fill="#f1d312"/><path d="M49 11a6 6 0 1 1-6-6 6 6 0 0 1 6 6z" fill="#f1d312"/><path fill="#f48729" d="M53.01 5.01h12v12h-12z"/><path fill="#5cc5c0" d="M1.01 5.01h12v12h-12z"/><path fill="#f1d312" d="M21.01 41.01h8v8h-8z"/><path fill="#5cc5c0" d="M21.01 49.01h8v12h-8z"/><path fill="#5cc5c0" d="M21.01 29.01h8v12h-8z"/><path d="M49 30h-4a1 1 0 0 1 0-2h4a1 1 0 0 1 0 2z" fill="#fff"/><path d="M17 18a1 1 0 0 1-1-1v-4a1 1 0 0 1 2 0v4a1 1 0 0 1-1 1z" fill="#f48729"/><path d="M21 18a1 1 0 0 1-1-1V9a1 1 0 1 1 2 0v8a1 1 0 0 1-1 1z" fill="#f48729"/><path d="M25 18a1 1 0 0 1-1-1v-4a1 1 0 0 1 2 0v4a1 1 0 0 1-1 1z" fill="#f48729"/><path d="M29 18a1 1 0 0 1-1-1V5a1 1 0 1 1 2 0v12a1 1 0 0 1-1 1z" fill="#f48729"/><path d="M33 18a1 1 0 0 1-1-1V9a1 1 0 1 1 2 0v8a1 1 0 0 1-1 1z" fill="#f48729"/><path d="M59 14a1 1 0 0 1-1-1V9a1 1 0 1 1 2 0v4a1 1 0 0 1-1 1z" fill="#f1d312"/><path d="M61 12h-4a1 1 0 0 1 0-2h4a1 1 0 0 1 0 2z" fill="#f1d312"/><path d="M43 14a3 3 0 1 1 3-3 3 3 0 0 1-3 3zm0-4a1 1 0 1 0 1 1 1 1 0 0 0-1-1z" fill="#f1d312"/><path d="M61 62H45c-2.24 0-4.38-1.07-6.45-2.11S34.77 58 33 58h-4a1 1 0 1 1 0-2h4c2.24 0 4.38 1.07 6.45 2.11S43.25 60 45 60h16a3 3 0 0 0 0-6 1 1 0 0 1 0-2 3 3 0 0 0 0-6 1 1 0 0 1 0-2 3 3 0 0 0 0-6 1 1 0 0 1 0-2 3 3 0 0 0 0-6H49a1 1 0 0 1 0-2h12a5 5 0 0 1 3 9 5 5 0 0 1 0 8 5 5 0 0 1 0 8 5 5 0 0 1-3 9z" fill="#fff"/><path d="M29 62h-8a1 1 0 0 1-1-1V29a1 1 0 0 1 1-1h8a1 1 0 0 1 1 1v32a1 1 0 0 1-1 1zm-7-2h6V30h-6z" fill="#fff"/><path d="M33 34h-4a1 1 0 0 1 0-2h4c1.09 0 1.79-.92 3-2.56 1.58-2.28 3.81-5.44 9-5.44h4a5 5 0 0 1 5 5 1 1 0 0 1-2 0 3 3 0 0 0-3-3h-4c-4.17 0-5.82 2.34-7.42 4.6-1.17 1.68-2.4 3.4-4.58 3.4z" fill="#fff"/><path d="M21 34H1a1 1 0 1 1 0-2h20a1 1 0 0 1 0 2z" fill="#fff"/><path d="M21 58H1a1 1 0 1 1 0-2h20a1 1 0 0 1 0 2z" fill="#fff"/><path d="M1 66a1.05 1.05 0 0 1-.71-.29 1 1 0 0 1 0-1.41 1 1 0 0 1 1.41 0 1 1 0 0 1 0 1.41A1.05 1.05 0 0 1 1 66z" fill="#fff"/><path d="M60 65a1 1 0 0 1 1-1 1 1 0 0 1 1 1 1 1 0 0 1-1 1 1 1 0 0 1-1-1zm-4 0a1 1 0 0 1 1-1 1 1 0 0 1 1 1 1 1 0 0 1-1 1 1 1 0 0 1-1-1zm-4 0a1 1 0 0 1 1-1 1 1 0 0 1 1 1 1 1 0 0 1-1 1 1 1 0 0 1-1-1zm-4 0a1 1 0 0 1 1-1 1 1 0 0 1 1 1 1 1 0 0 1-1 1 1 1 0 0 1-1-1zm-4 0a1 1 0 0 1 1-1 1 1 0 0 1 1 1 1 1 0 0 1-1 1 1 1 0 0 1-1-1zm-4 0a1 1 0 0 1 1-1 1 1 0 0 1 1 1 1 1 0 0 1-1 1 1 1 0 0 1-1-1zm-4 0a1 1 0 0 1 1-1 1 1 0 0 1 1 1 1 1 0 0 1-1 1 1 1 0 0 1-1-1zm-4 0a1 1 0 0 1 1-1 1 1 0 0 1 1 1 1 1 0 0 1-1 1 1 1 0 0 1-1-1zm-4 0a1 1 0 0 1 1-1 1 1 0 0 1 1 1 1 1 0 0 1-1 1 1 1 0 0 1-1-1zm-4 0a1 1 0 0 1 1-1 1 1 0 0 1 1 1 1 1 0 0 1-1 1 1 1 0 0 1-1-1zm-4 0a1 1 0 0 1 1-1 1 1 0 0 1 1 1 1 1 0 0 1-1 1 1 1 0 0 1-1-1zm-4 0a1 1 0 0 1 1-1 1 1 0 0 1 1 1 1 1 0 0 1-1 1 1 1 0 0 1-1-1zm-4 0a1 1 0 0 1 1-1 1 1 0 0 1 1 1 1 1 0 0 1-1 1 1 1 0 0 1-1-1zm-4 0a1 1 0 0 1 1-1 1 1 0 0 1 1 1 1 1 0 0 1-1 1 1 1 0 0 1-1-1zm-4 0a1 1 0 0 1 1-1 1 1 0 0 1 1 1 1 1 0 0 1-1 1 1 1 0 0 1-1-1z" fill="#fff"/><path d="M65 66a1 1 0 1 1 .71-.29A1.05 1.05 0 0 1 65 66z" fill="#fff"/><path d="M1 2a1 1 0 0 1-.7-.28A1 1 0 0 1 0 1 1 1 0 0 1 .3.3a1 1 0 0 1 1.41 0A1 1 0 0 1 2 1a1 1 0 0 1-.29.71A1 1 0 0 1 1 2z" fill="#fff"/><path d="M60 1a1 1 0 0 1 1-1 1 1 0 0 1 1 1 1 1 0 0 1-1 1 1 1 0 0 1-1-1zm-4 0a1 1 0 0 1 1-1 1 1 0 0 1 1 1 1 1 0 0 1-1 1 1 1 0 0 1-1-1zm-4 0a1 1 0 0 1 1-1 1 1 0 0 1 1 1 1 1 0 0 1-1 1 1 1 0 0 1-1-1zm-4 0a1 1 0 0 1 1-1 1 1 0 0 1 1 1 1 1 0 0 1-1 1 1 1 0 0 1-1-1zm-4 0a1 1 0 0 1 1-1 1 1 0 0 1 1 1 1 1 0 0 1-1 1 1 1 0 0 1-1-1zm-4 0a1 1 0 0 1 1-1 1 1 0 0 1 1 1 1 1 0 0 1-1 1 1 1 0 0 1-1-1zm-4 0a1 1 0 0 1 1-1 1 1 0 0 1 1 1 1 1 0 0 1-1 1 1 1 0 0 1-1-1zm-4 0a1 1 0 0 1 1-1 1 1 0 0 1 1 1 1 1 0 0 1-1 1 1 1 0 0 1-1-1zm-4 0a1 1 0 0 1 1-1 1 1 0 0 1 1 1 1 1 0 0 1-1 1 1 1 0 0 1-1-1zm-4 0a1 1 0 0 1 1-1 1 1 0 0 1 1 1 1 1 0 0 1-1 1 1 1 0 0 1-1-1zm-4 0a1 1 0 0 1 1-1 1 1 0 0 1 1 1 1 1 0 0 1-1 1 1 1 0 0 1-1-1zm-4 0a1 1 0 0 1 1-1 1 1 0 0 1 1 1 1 1 0 0 1-1 1 1 1 0 0 1-1-1zm-4 0a1 1 0 0 1 1-1 1 1 0 0 1 1 1 1 1 0 0 1-1 1 1 1 0 0 1-1-1zM8 1a1 1 0 0 1 1-1 1 1 0 0 1 1 1 1 1 0 0 1-1 1 1 1 0 0 1-1-1zM4 1a1 1 0 0 1 1-1 1 1 0 0 1 1 1 1 1 0 0 1-1 1 1 1 0 0 1-1-1z" fill="#fff"/><path d="M65 2a1.05 1.05 0 0 1-.71-.29A1.05 1.05 0 0 1 64 1a1.05 1.05 0 0 1 .3-.7 1 1 0 0 1 1.41 0A1.05 1.05 0 0 1 66 1a1.05 1.05 0 0 1-.29.71A1.05 1.05 0 0 1 65 2z" fill="#fff"/><path d="M29 58h-8a1 1 0 1 1 0-2h8a1 1 0 0 1 0 2z" fill="#fff"/><path d="M29 54h-8a1 1 0 1 1 0-2h8a1 1 0 0 1 0 2z" fill="#fff"/><path d="M29 50h-8a1 1 0 1 1 0-2h8a1 1 0 0 1 0 2z" fill="#fff"/><path d="M29 34h-8a1 1 0 0 1 0-2h8a1 1 0 0 1 0 2z" fill="#fff"/><path d="M29 38h-8a1 1 0 0 1 0-2h8a1 1 0 0 1 0 2z" fill="#fff"/><path d="M29 42h-8a1 1 0 0 1 0-2h8a1 1 0 0 1 0 2z" fill="#fff"/><path d="M13 18H1a1 1 0 0 1-1-1V5a1 1 0 0 1 1-1h12a1 1 0 0 1 1 1v12a1 1 0 0 1-1 1zM2 16h10V6H2z" fill="#fff"/><path d="M65 18H53a1 1 0 0 1-1-1V5a1 1 0 0 1 1-1h12a1 1 0 0 1 1 1v12a1 1 0 0 1-1 1zm-11-2h10V6H54z" fill="#fff"/><path d="M64 21a1 1 0 0 1 1-1 1 1 0 0 1 1 1 1 1 0 0 1-1 1 1 1 0 0 1-1-1zm-4 0a1 1 0 0 1 1-1 1 1 0 0 1 1 1 1 1 0 0 1-1 1 1 1 0 0 1-1-1zm-4 0a1 1 0 0 1 1-1 1 1 0 0 1 1 1 1 1 0 0 1-1 1 1 1 0 0 1-1-1zm-4 0a1 1 0 0 1 1-1 1 1 0 0 1 1 1 1 1 0 0 1-1 1 1 1 0 0 1-1-1zm-4 0a1 1 0 0 1 1-1 1 1 0 0 1 1 1 1 1 0 0 1-1 1 1 1 0 0 1-1-1zm-4 0a1 1 0 0 1 1-1 1 1 0 0 1 1 1 1 1 0 0 1-1 1 1 1 0 0 1-1-1zm-4 0a1 1 0 0 1 1-1 1 1 0 0 1 1 1 1 1 0 0 1-1 1 1 1 0 0 1-1-1zm-4 0a1 1 0 0 1 1-1 1 1 0 0 1 1 1 1 1 0 0 1-1 1 1 1 0 0 1-1-1zm-4 0a1 1 0 0 1 1-1 1 1 0 0 1 1 1 1 1 0 0 1-1 1 1 1 0 0 1-1-1zm-4 0a1 1 0 0 1 1-1 1 1 0 0 1 1 1 1 1 0 0 1-1 1 1 1 0 0 1-1-1zm-4 0a1 1 0 0 1 1-1 1 1 0 0 1 1 1 1 1 0 0 1-1 1 1 1 0 0 1-1-1zm-4 0a1 1 0 0 1 1-1 1 1 0 0 1 1 1 1 1 0 0 1-1 1 1 1 0 0 1-1-1zm-4 0a1 1 0 0 1 1-1 1 1 0 0 1 1 1 1 1 0 0 1-1 1 1 1 0 0 1-1-1zm-4 0a1 1 0 0 1 1-1 1 1 0 0 1 1 1 1 1 0 0 1-1 1 1 1 0 0 1-1-1zm-4 0a1 1 0 0 1 1-1 1 1 0 0 1 1 1 1 1 0 0 1-1 1 1 1 0 0 1-1-1zm-4 0a1 1 0 0 1 1-1 1 1 0 0 1 1 1 1 1 0 0 1-1 1 1 1 0 0 1-1-1zm-4 0a1 1 0 0 1 1-1 1 1 0 0 1 1 1 1 1 0 0 1-1 1 1 1 0 0 1-1-1z" fill="#fff"/><path d="M43 18a7 7 0 1 1 7-7 7 7 0 0 1-7 7zm0-12a5 5 0 1 0 5 5 5 5 0 0 0-5-5z" fill="#fff"/><path d="M25 46a1 1 0 0 1-1-1V21a1 1 0 0 1 2 0v24a1 1 0 0 1-1 1z" fill="#fff"/><path d="M9 14H5a1 1 0 0 1-1-1V9a1 1 0 0 1 1-1h4a1 1 0 0 1 1 1v4a1 1 0 0 1-1 1zm-3-2h2v-2H6z" fill="#f1d312"/></g></g></g></g></svg>