<svg xmlns="http://www.w3.org/2000/svg" viewBox="0 0 64 60"><title>Depositphotos_78413682_9_ic</title><g data-name="Layer 2"><g data-name="Layer 1"><path fill="#fff" d="M0 16h2v19H0z"/><path fill="#fff" d="M16 16h2v19h-2z"/><path fill="#fdc48e" d="M1 35h62v24H1z"/><path d="M13 60H1a1 1 0 0 1-1-1v-6a1 1 0 0 1 1-1h12a1 1 0 0 1 1 1v6a1 1 0 0 1-1 1zM2 58h10v-4H2z" fill="#fff"/><path d="M63 60h-6a1 1 0 0 1-1-1v-6a1 1 0 0 1 1-1h6a1 1 0 0 1 1 1v6a1 1 0 0 1-1 1zm-5-2h4v-4h-4z" fill="#fff"/><path d="M28 60H13a1 1 0 0 1-1-1v-6a1 1 0 0 1 1-1h15a1 1 0 0 1 1 1v6a1 1 0 0 1-1 1zm-14-2h13v-4H14z" fill="#fff"/><path d="M42 60H28a1 1 0 0 1-1-1v-6a1 1 0 0 1 1-1h14a1 1 0 0 1 1 1v6a1 1 0 0 1-1 1zm-13-2h12v-4H29z" fill="#fff"/><path d="M57 60H42a1 1 0 0 1-1-1v-6a1 1 0 0 1 1-1h15a1 1 0 0 1 1 1v6a1 1 0 0 1-1 1zm-14-2h13v-4H43z" fill="#fff"/><path d="M63 42H51a1 1 0 0 1-1-1v-6a1 1 0 0 1 1-1h12a1 1 0 0 1 1 1v6a1 1 0 0 1-1 1zm-11-2h10v-4H52z" fill="#fff"/><path d="M7 42H1a1 1 0 0 1-1-1v-6a1 1 0 0 1 1-1h6a1 1 0 0 1 1 1v6a1 1 0 0 1-1 1zm-5-2h4v-4H2z" fill="#fff"/><path d="M51 42H36a1 1 0 0 1-1-1v-6a1 1 0 0 1 1-1h15a1 1 0 0 1 1 1v6a1 1 0 0 1-1 1zm-14-2h13v-4H37z" fill="#fff"/><path d="M36 42H22a1 1 0 0 1-1-1v-6a1 1 0 0 1 1-1h14a1 1 0 0 1 1 1v6a1 1 0 0 1-1 1zm-13-2h12v-4H23z" fill="#fff"/><path d="M22 42H7a1 1 0 0 1-1-1v-6a1 1 0 0 1 1-1h15a1 1 0 0 1 1 1v6a1 1 0 0 1-1 1zM8 40h13v-4H8z" fill="#fff"/><path d="M9 54H1a1 1 0 0 1-1-1v-6a1 1 0 0 1 1-1h8a1 1 0 0 1 1 1v6a1 1 0 0 1-1 1zm-7-2h6v-4H2z" fill="#fff"/><path d="M24 54H9a1 1 0 0 1-1-1v-6a1 1 0 0 1 1-1h15a1 1 0 0 1 1 1v6a1 1 0 0 1-1 1zm-14-2h13v-4H10z" fill="#fff"/><path d="M38 54H24a1 1 0 0 1-1-1v-6a1 1 0 0 1 1-1h14a1 1 0 0 1 1 1v6a1 1 0 0 1-1 1zm-13-2h12v-4H25z" fill="#fff"/><path d="M53 54H38a1 1 0 0 1-1-1v-6a1 1 0 0 1 1-1h15a1 1 0 0 1 1 1v6a1 1 0 0 1-1 1zm-14-2h13v-4H39z" fill="#fff"/><path d="M63 54H53a1 1 0 0 1-1-1v-6a1 1 0 0 1 1-1h10a1 1 0 0 1 1 1v6a1 1 0 0 1-1 1zm-9-2h8v-4h-8z" fill="#fff"/><path d="M18 48H1a1 1 0 0 1-1-1v-6a1 1 0 0 1 1-1h17a1 1 0 0 1 1 1v6a1 1 0 0 1-1 1zM2 46h15v-4H2z" fill="#fff"/><path d="M32 48H18a1 1 0 0 1-1-1v-6a1 1 0 0 1 1-1h14a1 1 0 0 1 1 1v6a1 1 0 0 1-1 1zm-13-2h12v-4H19z" fill="#fff"/><path d="M47 48H32a1 1 0 0 1-1-1v-6a1 1 0 0 1 1-1h15a1 1 0 0 1 1 1v6a1 1 0 0 1-1 1zm-14-2h13v-4H33z" fill="#fff"/><path d="M63 48H47a1 1 0 0 1-1-1v-6a1 1 0 0 1 1-1h16a1 1 0 0 1 1 1v6a1 1 0 0 1-1 1zm-15-2h14v-4H48z" fill="#fff"/><path fill="#fff" d="M30 0h2v35h-2z"/><path fill="#fff" d="M46 0h2v35h-2z"/><path fill="#fff" d="M30 0h2v35h-2z"/><path fill="#fff" d="M46 0h2v35h-2z"/><path fill="#fff" d="M.297 32.294L16.3 16.292l1.414 1.414L1.711 33.708z"/><path fill="#fff" d="M.297 17.713L1.711 16.3l16.002 16.002-1.414 1.414z"/><path fill="#fff" d="M30.3 32.29l16.002-16 1.414 1.414-16.001 16.002z"/><path fill="#fff" d="M30.297 1.707L31.71.292l16.002 16.002-1.415 1.414z"/><path fill="#fff" d="M30.3 17.71l1.415-1.414 16.001 16.002-1.414 1.414z"/><path fill="#fff" d="M46.294 32.287l16.002-16.002L63.71 17.7 47.708 33.701z"/><path fill="#fff" d="M46.294 17.707l1.414-1.415L63.71 32.294l-1.414 1.414z"/><path fill="#fff" d="M30.297 16.287L46.298.285 47.713 1.7 31.71 17.701z"/><path fill="#fdc48e" d="M1 29h10v6H1z"/><path d="M11 36H1a1 1 0 0 1-1-1v-6a1 1 0 0 1 1-1h10a1 1 0 0 1 1 1v6a1 1 0 0 1-1 1zm-9-2h8v-4H2z" fill="#fff"/><path fill="#fdc48e" d="M11 29h14v6H11z"/><path d="M25 36H11a1 1 0 0 1-1-1v-6a1 1 0 0 1 1-1h14a1 1 0 0 1 1 1v6a1 1 0 0 1-1 1zm-13-2h12v-4H12z" fill="#fff"/><path fill="#fff" d="M62 16h2v19h-2z"/></g></g></svg>