<svg xmlns="http://www.w3.org/2000/svg" viewBox="0 -4.550000190734863 677.9800415039062 373.64996337890625"><defs><linearGradient id="a" x1="87.66" y1="190.31" x2="589.76" y2="190.31" gradientUnits="userSpaceOnUse"><stop offset="0" stop-color="#f0f3f3"/><stop offset="1" stop-color="#d6dfe0"/></linearGradient><linearGradient id="b" x1="340.99" y1="168.58" x2="258.32" y2="113.25" gradientUnits="userSpaceOnUse"><stop offset="0" stop-color="#803a1c"/><stop offset="1" stop-color="#a6492e"/></linearGradient></defs><title>Depositphotos_34443711_02</title><g data-name="Layer 2" style="isolation:isolate"><ellipse cx="338.71" cy="210.31" rx="338.71" ry="158.79" fill="#a3b3b3"/><ellipse cx="339.27" cy="202.09" rx="338.71" ry="152.98" fill="#f0f3f3"/><path d="M339.27 54.11c185.21 0 335.68 67.15 338.64 150.48 0-.83.07-1.66.07-2.5 0-84.49-151.65-153-338.71-153S.56 117.61.56 202.09c0 .84 0 1.67.07 2.5C3.59 121.26 154.05 54.11 339.27 54.11z" fill="#a3b3b3" opacity=".5"/><ellipse cx="338.71" cy="190.31" rx="251.05" ry="113.39" fill="url(#a)"/><path d="M296 196.13c-2-5.94-7-10.38-13.56-10.32-9.13.08-16.25 5.51-22.48 11.65a70.17 70.17 0 0 0-5.44 6.48c-.87 1.1-1.76 2.18-2.66 3.26s-3.68 4.64-4.67 5.9l1.2-1.53a121.82 121.82 0 0 1-11.85 13.12c-1 .92-2 1.79-3 2.66-.38.32-.76.63-1.15.95a66.59 66.59 0 0 1-7.89 4.86c-.44.24-.89.45-1.34.67-.19.05-2.05.84-2.69 1.06a56.72 56.72 0 0 1-7.63 2c-.63.09-2.37.36-2.9.41-1.13.1-2.26.12-3.4.14-2.56 0-5.12.18-7.68.22-5.24.1-10.65.1-15.88-.26l-.63-.13c-1.6-.32-8.4-1.29-4.3-.6-6.34-1.06-14.69 1.38-16.11 8.8-3.29 17.14 18.52 26.1 32 28.31 15 2.44 30.29 1.79 44.46-4.13 14.48-6 26.68-15.27 37.27-26.82 10.42-11.3 25.95-30.14 20.33-46.7z" style="mix-blend-mode:multiply" fill="#a3b3b3" opacity=".5"/><path d="M477.53 74.08c-16.72 9.12-3.27 32.76-8.5 47.53-5.57 15.71-12.62 31.93-21.48 46.14-12.53 20.08-32.12 35.31-45.13 54.53-2.23 3.3-4.12 6.81-6.31 10.14a91.58 91.58 0 0 1-7.37 9.86c-3.66 4.31-7.85 8.26-11.89 12.2-1.95 1.9-4.05 3.64-6.17 5.34q2.28-2-2.57 1.92c-1.08 1.16-2.22 2.22-3.4 3.29-3.7 3.37-7.59 6.36-11.58 9.36-5.08 3.81-9 13.41-2.39 17.92 5.86 4 11.09 2.27 17.2.05 5-1.8 10.06-3.41 15.11-5 5.76-1.76 11.33-5.94 16.07-9.54a117.13 117.13 0 0 0 15.88-14c1.85-2.05 3.59-4.22 5.31-6.38q1.88-2.4 3.74-4.82c-3.17 4.12.92-1.14 2.09-2.67.49-.64 1-1.31 1.42-2 8.34 8.5 21.07 12.08 32.46 14 15.95 2.69 30.62.19 45.38-6.06 15.85-6.71 29.39-20 33.33-36.53a106.1 106.1 0 0 0 17.27-2.65c13.9-3.45 23.52-15 25.94-28.88 3.47-20-9.12-32.52-22.21-45.32-4.79-4.68-14.18-8.72-17.92-13.79-5-6.79 1-11.43 4.93-18.24 12.3-21.55 3-36.47-21.24-41.47-14.5-3.01-31.5-5.17-44.37 3.2-1.2.59-2.39 1.21-3.6 1.87z" style="mix-blend-mode:multiply" fill="#a3b3b3" opacity=".5"/><path d="M343.71 300.7c-138.65 0-249.05-49.77-249.05-112.39 0-33.24 29.66-63.13 80.11-83.87-53.35 20.79-87.11 51.56-87.11 85.87 0 62.62 112.4 113.39 251.05 113.39 65.06 0 124.34-11.18 168.94-29.52-43.98 17.15-101.28 26.52-163.94 26.52z" fill="#6c716d" opacity=".4"/><path d="M171.87 24.24L186 46.71s-18.44 11.54-19.29 4.13 5.16-26.6 5.16-26.6z" fill="#334f25"/><path d="M147.32 22.29l15.78 19.82s-.77 11.82-8.83 6.58-18.13-14.88-6.95-26.4z" fill="#334f25"/><path d="M130.74 179.87c-5.44 11.15 14.78 31 14.22 9.51-.17-12.51 5.87-7.6 13 .65 6.52 7.37 7.71 6.42 15-2.06 4.52-5.85 4.29-9 12.52-11.48 5.82-2.11 20.81 11.66 17.88-15.74l-36.2-35.09-39.76 28z" fill="#72af43"/><path d="M173.33 46c.38-4.11 1.09-19.09-1.46-21.78-5-6.12-11.23-1.06-12.75 5.14-.95 5.16 3.75 12.75-5.4 12.78-10.92-.62-3.72-10.83-4.72-15.92-2.43-13.67-14.46 8.27-21.36 10.56-9.55 2.24-13.7-8.3-23 2.72-4.48 5.72-10.53 18.58.39 27.21L128.57 87l37.64-9.15z" fill="#72af43"/><path d="M159.12 29.37c-.67 3.65 1.48 8.52-.44 11.06v.06l11.8 18.25L173.33 46c.38-4.11 1.09-19.09-1.46-21.78-4.97-6.1-11.23-1.05-12.75 5.15z" style="mix-blend-mode:multiply" fill="#2d421b" opacity=".3"/><path d="M131.8 70c-14.53-1.34-28.43-10.91-32.8-14.2a15 15 0 0 0 6.11 10.91l20.84 18.05c10.38-3.05 21.64-13.32 5.85-14.76z" style="mix-blend-mode:multiply" fill="#2d421b" opacity=".3"/><path d="M148.62 40.23c-2.82-3.33 1.15-10.15.41-14-2.43-13.67-14.46 8.27-21.36 10.56a12 12 0 0 1-3.06.31l-.19.24s8.62 4.48 16 17.08 19.68 4.69 19.68 4.69-9.91-14.11-11.48-18.88z" style="mix-blend-mode:multiply" fill="#2d421b" opacity=".3"/><path d="M250.94 103.23c4.52-3.91 10.21-7.2 15.93-3.22 8.4 5.73-.1 15.36 3.58 23.68 6.62 13.53 30.88 6.63 24.74-7.24-2.6-4.72-8.35-3.58-10.17-10.3s1.72-9.95 7-10.75c7.06-1.34 9.57 6.35 14.27-3.51 2-4.35 2.64-20.79-1-27.5 0 0-30.06-3.93-53.64 8.32s-.71 30.52-.71 30.52z" fill="#5c8d3e"/><path d="M251.07 103.65c4.51-3.8 9.71-6.39 15.22-3 4.18 2.6 4 7.27 3.35 11.54-1.12 7.2-1.31 14 5.94 17.91 9 4.87 24.31-1.93 20.57-13.47-1.13-3.49-5-4.61-7.69-6.61-2.45-1.83-3.21-5.13-3.28-8-.11-4.72 5.27-6.27 9-6 2.31.14 4.85 2.24 7.17 1.67S305.17 95 306.2 93c3.16-6.24 2.69-14.39 1.92-21.12-.13-1.12-.92-8-2.39-8.22s-3-.3-4.56-.39a114.22 114.22 0 0 0-30.54 2.19C261.39 67.39 249 70.88 243.1 79c-6.34 8.74 0 19.06 7.26 24.95.44.35 1.57-1 1.14-1.37-6.18-5-12.94-14.26-8.35-22.26 2.48-4.32 7.59-6.69 11.92-8.66a78.28 78.28 0 0 1 17.33-5.24 112 112 0 0 1 26.48-1.74c1.84.08 3.67.22 5.5.42s2.52 8.57 2.66 10a57.41 57.41 0 0 1-.28 12.53 16 16 0 0 1-2.18 6.49c-1.89 3.24-4.13 2.05-6.55 1.17-5.33-1.94-11.75.08-13.82 5.58-1.23 3.25.24 7.45 2.38 9.93 3 3.54 7.45 3.41 8.73 8.67 2 8.14-8 11.38-14.22 10.66-8-.92-11.65-7.74-10.77-15.15.7-5.86 2.54-11.54-2.92-15.64-5.63-4.23-12.11-.34-16.64 3.48-.59.5-.62 1.61.3.83z" fill="#ae2825"/><path d="M255.23 87.1c6.39-1.78 27.6-5.26 39.9-17.75 10.83-11-63.17 8.26-48.75 29.3a35.78 35.78 0 0 0 4.56 4.57s-2.11-14.34 4.29-16.12z" fill="#bcd861"/><path d="M226.43 8l18.88 27.82s-17.56 20-23.55 5.32S226.43 8 226.43 8z" fill="#4a7637"/><path d="M288.91 11l2.54 50s-32.31-9.44-24.79-25.11S288.91 11 288.91 11z" fill="#4a7637"/><path d="M332.14 73.84L308 96.88s-16.3-22.36-.55-35.64 24.69 12.6 24.69 12.6z" fill="#385a2b"/><path d="M279.21 73.11c9.77 7.67 18.32-19.46 31-1.46 5.14 7.3 5.94 12.56 16.35 6.67 8.13-5 15.4-17.4 11-26.7-9.76-20.05-33.45-4.09-47.92-1.89-6.09.65-17-.39-17.24-9-.85-7.41 11.08-12.17 14.71-18.37C294.08 9.5 282-4.55 268.46 2.07c-12.9 5.45-2.11 27-10.49 28.5-3.95.6-26.49-22.09-21.3-.27 1.14 5.75 8.69 4.07 1.39 9.21-7.64 4.65-13.75-2-14.75-8.53-1.25-10 12-22.27-3.5-26.65-16-4-27.61 23.82-17 24.38L206.92 48l28 15.74 14.44 12.75z" fill="#8dbc40"/><path d="M241 36.9a10.63 10.63 0 0 1-2.91 2.61c-5.41 3.3-10 .93-12.65-3.06l7.68 23.12 13.3-2.82z" style="mix-blend-mode:multiply" fill="#2d421b" opacity=".3"/><path d="M278.12 67.69l-5.19-23.64.22-.06a8.24 8.24 0 0 1-.71-3.23c-.85-7.41 11.08-12.17 14.71-18.37C294.08 9.5 282-4.55 268.46 2.07c-12.9 5.45-2.11 27-10.49 28.5L269 70.28z" style="mix-blend-mode:multiply" fill="#2d421b" opacity=".3"/><path d="M245.81 112.07c10-3.73 4.24-11 3-17.41-1-9.92 6.64-11.33 15.63-13.67 6-.91 17.89-2 16.43-11.58-2.26-11.7-12.74-3-17.81-.75-10.58 4.8-11.75.3-10.18-8.78 1.13-8.77.14-12.06-11.12-10.11-7.52.65-14 6.54-21.1.24-6-5.72-1.87-14-6.25-20.19-6.7-8.57-26.44-.16-22.19 15.95l-24.09 24.64 18.13 45.09L221 133.05z" fill="#72af43"/><path d="M241.78 49.77c-7.52.65-14 6.54-21.1.24a10.85 10.85 0 0 1-1.58-1.89l-.05.05s4.25 15.15 7.07 22.88a13.76 13.76 0 0 1 1.61 0c4.07.19 6.73 1.67 8 4.41l.07-.08s9.63 20.24 11.58 31.15a4.63 4.63 0 0 1 0 1.67 5.89 5.89 0 0 0 2.85 1.07c3.37-4-.42-9.54-1.39-14.64-.75-7.39 3.3-10.05 9.13-11.9a95.84 95.84 0 0 0-5-14c-.92-1.83-.75-4.92-.07-8.89 1.1-8.73.1-12.02-11.12-10.07z" style="mix-blend-mode:multiply" fill="#2d421b" opacity=".5"/><path d="M235.79 75.41s9.63 20.24 11.58 31.15c2 11.35-33.85 7.75-31.74-1.65s20.16-29.5 20.16-29.5z" style="mix-blend-mode:multiply" fill="#2d421b" opacity=".3"/><path d="M225.28 105.3c1.17 3.88 6.64 6.65 12.16 8.22 6-.5 10.7-2.65 9.93-7a65.74 65.74 0 0 0-2.44-8.91c-9.85 11.3-19.65 7.69-19.65 7.69z" style="mix-blend-mode:multiply" fill="#2d421b" opacity=".3"/><path d="M193.84 44.92s7.51 17.63 7.2 29.59-32.67 10.2-27.23-4.51 20.03-25.08 20.03-25.08z" style="mix-blend-mode:multiply" fill="#2d421b" opacity=".3"/><path d="M224 104.44s-1.2-3.25 6.89-11.13 8.43-16.31 3.89-19.66-25.43 32.4-10.78 30.79z" fill="#bcd861"/><path d="M197.87 64.2s5.54 1.28 6.48 8.81 1.88 15.06 8.19 12.79 4.06 6.15 3.77 6.9-17.94-1.83-17.94-1.83z" fill="#bcd861"/><path d="M185.41 61.24s-7.14 8.85-3.67 13.78 8.36 2.57 10.42.85 2.71 6.55 1.87 7.69-17.64-.24-17.92-9.54 9.3-12.78 9.3-12.78z" fill="#bcd861"/><path d="M222.58 105.28c-.12-10.55 13.8-14.38 14-24.48q.44-9.28-8.84-9.72c-7.7-.55-8.62 4.75-11.5 10.1-5.44 11.15-13.14 10.59-12.74-3-.25-9.79-6.57-20.63-10.62-8.47-2 4.72 2.34 9-5.18 9.63-6 .91-8.56-4.6-7.77-9.15 1-8 15.58-15.63 14.62-23.59C193.08 37 176 43 171 47.22c-7.2 5.78-12.12 13.88-21.54 5.23-6.78-5.85-8.76-12.44-19.37-3-5.59 5.27-7.22 12.4-1.94 18l.44 20.43 8.2 15.51h27.86s26.64 20 26.68 21.6 25 9.13 25 9.13z" fill="#4a7637"/><path d="M203.49 78.35v-.17c-.25-9.79-6.57-20.63-10.62-8.47-2 4.72 2.34 9-5.18 9.63-6 .91-8.56-4.6-7.77-9.15 1-8 15.58-15.63 14.62-23.59C193.08 37 176 43 171 47.22c-6.81 5.42-11.57 12.93-20 6.59l-.06.09 50.14 71.67s10.75-2.43 2.41-47.22z" fill="#334f25"/><path d="M236.57 80.79q.44-9.28-8.84-9.72c-7.7-.55-8.62 4.75-11.5 10.1-5.44 11.15-11.58 7-12.74-3-.25-9.79-6.57-20.63-10.62-8.47-2 4.72 2.34 9-5.18 9.63a6.25 6.25 0 0 1-6.55-2.72l21.86 37.1s4.4 1.89 18.3-2.52l1.28-5.91c-.12-10.55 13.8-14.38 13.99-24.49z" fill="#4a7637"/><path d="M205.45 84.86a17.92 17.92 0 0 1-2-6.68c-.25-9.79-6.57-20.63-10.62-8.47-1.48 3.51.53 6.77-1.43 8.47L210.56 112l7.81-4.41-13-22.53z" fill="#334f25"/><path d="M193.73 111.15l1.93-8.63s9.2 11 17.83-3.1c0 0 4.18 5.42 13.44-3.65 0 0-3.77 5.37-4.35 9.52s-28.85 5.86-28.85 5.86z" style="mix-blend-mode:multiply" fill="#2d421b" opacity=".3"/><path d="M133.33 68.55s-8 20.18 3.66 33.09a15.91 15.91 0 0 0 1.9 1.78h16.64a40.55 40.55 0 0 0 9.37-7.63z" fill="#334f25"/><path d="M137 101.64a15.91 15.91 0 0 0 1.9 1.78h9.85c2-3.29 3.09-6.4 0-5.73-6 1.31-14.92-2.58-11.91-13.81 2.2-8.2-.7-12.6-2.42-14.38l-1.11-1s-1.22 5.38-2.46 10.91c-.66 6.83.08 15.51 6.15 22.23z" fill="#bcd861"/><path d="M94.59 128.24L131 145.87s10.44-27-13.58-39.93c-13.02-7.02-22.83 22.3-22.83 22.3z" fill="#334f25"/><path d="M79.36 158.26l34.3 11.49s-8.29-23.64-16.45-23.35-17.85 11.86-17.85 11.86z" fill="#4a7637"/><path d="M75.28 86.89l29.6 17.72s14.17-10.35 1.43-18.11-31.03.39-31.03.39z" fill="#4a7637"/><path d="M101.75 178.15l10.53 8.23s11.03-10.68-10.53-8.23z" fill="#4a7637"/><path d="M100.91 75.74c-6.37-1.49-40.14-7.42-27.49 9.58 5.95 8.44 36.54-3.81 29 14.78-2.12 5.48-25 23-10.28 27.85 11.85 3.61 6-18.85 20.51-17.11 8.77 1.13 2.56 5.51 6.75 10.53 3.7 3.37 9.35.06 11.9 5.57 5.47 13.43-16.28 17.46-23.41 15.83-9.53-1.26-23.78-4.51-28.6 7.52-7.56 16.63 12.11 2.1 16.66 2.88 10.16 2.15-.75 17.81 4.39 24.16 3.57 4.13 11.59 5.13 16.26 5.16l1.39-.35c23.52 6 22.14-34.18 43.13-38.34l16.55-14.09-14.2-28.71-21.3 4.64-13.31-11.93-1-16.19-15.72.16z" fill="#8dbc40"/><path d="M105.64 83L127 95.21s8.43-9.21-.36-13.94-21 1.73-21 1.73z" fill="#749c3f"/><path d="M102.64 91.63l-.13.12c1.38 1.65 1.58 4.25-.08 8.35-2.12 5.48-25 23-10.28 27.85 11.85 3.61 6-18.85 20.51-17.11 8.77 1.13 2.56 5.51 6.75 10.53 3.27 3 8.05.75 10.88 4a6.55 6.55 0 0 0 .76-.62c3.86-3.81 4.49-5-4-12.85s-24.41-20.27-24.41-20.27z" fill="#749c3f"/><path d="M160.17 139.17c-20-13-41.18-25.52-43.05-26.61 1.61 2-.68 5.24 2.31 8.81 2.11 1.92 4.86 1.67 7.3 2.13a7.92 7.92 0 0 1 2.1.64C137.34 128 154 141.72 154 141.72s2.94 1.2 6.14 2.33c.35-.09.7-.18 1.06-.25l2.6-2.21c-1.04-.7-2.23-1.5-3.63-2.42z" style="mix-blend-mode:multiply" fill="#2d421b" opacity=".3"/><path d="M164.88 140.95s-7.13 2.5-3.26 2.47l16.09-13.7L163.47 101l-21.26 4.63c-4.26 5.9-2.91 17.37.75 25.66z" fill="#446c33"/><path d="M99.05 169.94l.58.06c42.83 4.21 41.7-5.91 39.64-8.83s-31.53-17.63-31.36-18.4c-9.53-1.26-23.78-4.51-28.6 7.52-7.56 16.63 12.11 2.1 16.66 2.88 7.19 1.53 3.85 9.83 3.08 16.77z" style="mix-blend-mode:multiply" fill="#2d421b" opacity=".3"/><path d="M98.23 154.06c6.09 4-2.53 17.49 2.15 23.27 3.09 3.57 9.48 4.8 14.18 5.08 3.15-2.68 16.17-7.51 14-10.94-5.56-8.64-30.33-17.41-30.33-17.41z" fill="#749c3f"/><path d="M179.86 150.59c16.57 16.91 30 29.34 53.92 15.16 4.31-2.37 13.51-8.19 8.24-13.78l.63.89c-8.69-3.84 2-16 3.67-21.2 4.68-11.28-1.81-23.32-13.22-27.25-16.89-6-14.08 9.26-23.54 16.59-8.57 6.7-15.2-4.58-16.6-12.23-2.23-16.37-13.42-35.08-32.47-19.66-6.35 5.14-11.71 13.57-21.65 7.95-10.7-5.75-1-14.6-3-23.14-2.71-11.39-15.82-5.47-16.37 2.23l-.89.63c-2.45-1.6-3-5.2-5.63-8s-2-6.58-7-4.34c-4.18 1.61-5.36 8.43-4.37 11.72 3.51 13.48 12.87 2.23 19.79 7.33 6.6 4.65-2.62 15.14 2.83 21.93 2.95 3.24 8.82 3.09 10.88 7 2.51 3.55.33 7.08 2 11.25 1.12 2.54 4.62 9.38 9.24 7.45 5.07-2.24-.15-5.88-.7-9.48-2.16-7.78 3.91-18 11.24-8.58 6.08 7.68-1.82 17.23.79 24.7 2.66 9.43 16.81 8.76 12 20.79-4.68 11.28-20.58 8.52-25.45 18.6 0 0 11.78-6.34 16.39-5.22a19.24 19.24 0 0 0 15.64-12.66z" fill="#8dbc40"/><path d="M196.56 117.75a25.4 25.4 0 0 1-3.6-9c-2.23-16.37-13.42-35.08-32.47-19.66-5 4.08-9.47 10.24-16.07 9.77s20.25 10.16 36.34 21.56c16.74 11.86 9.94 2.79 15.8-2.67z" style="mix-blend-mode:multiply" fill="#2d421b" opacity=".3"/><path d="M172.88 83.41c3.14.39 12 2.51 15.43 14.09 4.17 14.17 3.56 16.42 3.56 16.42a11.2 11.2 0 0 0 2.37-.72 24.9 24.9 0 0 1-1.28-4.43c-1.69-12.43-8.55-26.19-20.08-25.36z" fill="#bcd861"/><path d="M136.45 121.63a26.56 26.56 0 0 0 10.36 3.1 9.56 9.56 0 0 1-1.3-3.13c-1.64-5.92 1.48-13.27 6.29-12.28-1.78-3.63-5-6.41-7.38-10.44a13.23 13.23 0 0 1-5.58-1.83c-3.73-2-5-4.39-5.11-7a69.32 69.32 0 0 0-12.43-6.56c6.6 4.65-2.62 15.14 2.83 21.93 2.95 3.24 8.82 3.09 10.88 7 2.1 2.93.94 5.88 1.44 9.21z" style="mix-blend-mode:multiply" fill="#2d421b" opacity=".3"/><path d="M153 109.73a10.82 10.82 0 0 1 3.75 3.29c6.08 7.68-1.82 17.23.79 24.7 2 6.92 10.08 8.41 12.38 13.46C176 143.69 189.44 135.4 186 131c-5.51-7-33-21.56-33-21.56z" fill="#749c3f"/><path d="M171.07 148.67c.38-.26 1.45-2.11.59-1.51-.37.26-1.45 2.11-.59 1.51z" fill="#baad9a"/><path d="M157.53 137.72a10.42 10.42 0 0 0 .6 1.57c2.19 0 4 .05 4 .05s-6.31-2.37-2.29-14.49-6.84-15.12-6.84-15.12a10.82 10.82 0 0 1 3.75 3.29c6.07 7.68-1.82 17.23.78 24.7z" fill="#bcd861"/><path d="M133.26 110.4a5.87 5.87 0 0 1 1.76 2c2.51 3.55.33 7.08 2 11.25 1.12 2.54 4.62 9.38 9.24 7.45 5.07-2.24-.15-5.88-.7-9.48a13.07 13.07 0 0 1-.18-6 100.84 100.84 0 0 0-12-5.45z" fill="#749c3f"/><path d="M135.83 73.91c-2.71-11.39-15.82-5.47-16.37 2.23l-.89.63 15.91 8.09c.92-3.52 2.23-7.26 1.35-10.95z" fill="#749c3f"/><path d="M101.52 76.16c2.2 8.43 6.68 7.19 11.42 6.32-6.57-.52-9.34-2.94-9.71-10a8.08 8.08 0 0 1 6.18-8.48c-.76-.35-1.81-.29-3.52.47-4.18 1.58-5.36 8.4-4.37 11.69z" fill="#bcd861"/><path d="M124.14 105.42c1.77 1.94 4.59 2.67 7 3.77 0-.07-.1-.15-.28-.24-2.2-1.18-9.5-3.41-6.24-13.89 2.21-7.13-.12-9.91-1.83-11-.94-.41-1.49-.61-1.49-.61 6.61 4.69-2.62 15.18 2.84 21.97z" fill="#bcd861"/><path d="M135 112.37c2.51 3.55.33 7.08 2 11.25 1.12 2.54 4.62 9.38 9.24 7.45-2.06.54-9-5-8.54-10.54s-2.7-8.16-2.7-8.16z" fill="#bcd861"/><path d="M102.63 91.89a.65.65 0 0 0 0-.27c-.57-2.87-7.3-4.68-16.05-4.7s-10.27-1.14-13.42-5.1c-3-3.8 2.13-7.34 2.56-7.63-5 1.23-7.36 4.36-2.32 11.13 4.69 6.68 24.6.5 29.23 6.57z" fill="#bcd861"/><path d="M96.23 128a8.85 8.85 0 0 1-6.94-3.72c-3.26-4.62 11.9-21.85 11.9-21.85l-.42.21c-5.62 7.09-21.51 21-8.62 25.27a6.29 6.29 0 0 0 4.08.09z" fill="#bcd861"/><path d="M79.32 150.3c-2.46 5.4-2 7.51-.2 7.93h.24s.29-7.85 6-12.62 22.53-2.87 22.53-2.87c-9.5-1.23-23.76-4.48-28.57 7.56z" fill="#bcd861"/><path d="M100.37 177.34a13.75 13.75 0 0 0 6.38 3.74c-2.28-2-8.28-5-5.27-16.2 2.46-9.17-3.25-10.81-3.25-10.81 6.08 3.99-2.54 17.49 2.14 23.27z" fill="#bcd861"/><path d="M143 46.34c-3.13-2.43-6.39-2.7-12.93 3.14-5.59 5.27-7.22 12.4-1.94 18 0 0-4.4-8.91 1.14-15 5.15-5.65 12.73-6.1 13.73-6.14z" fill="#bcd861"/><path d="M127.68 36.78c-9.55 2.24-13.7-8.3-23 2.72-4.26 5.44-9.93 17.35-1.07 25.92h.34s-7.34-13.12-.2-22 8.46-8.14 16.14-5.37S135 34.84 139.56 26c-4.06 4-8.56 9.68-11.88 10.78z" fill="#bcd861"/><path fill="#bcd861" d="M148.62 40.23h.01-.01z"/><path d="M159.12 29.37c-.95 5.16 3.75 12.75-5.4 12.78a8.16 8.16 0 0 1-4.37-1.25c1.81 1.58 6.64 5.09 9.8.9 3.88-5.15-1.49-10.36 4.2-19.08a11.82 11.82 0 0 0-4.23 6.65z" fill="#bcd861"/><path d="M171 47.22c-4.82 3.84-8.62 8.72-13.4 9l-.21.18s4.19 1.69 8.84-3 18.93-15 27.58-8.51l.3.2c-2.93-7.41-18.34-1.83-23.11 2.13z" fill="#bcd861"/><path d="M253.05 53.42l.08.12c-.59-3.92-3.42-5.15-11.35-3.78-7.52.65-14 6.54-21.1.24-3.06-2.9-3.49-6.46-3.75-10.07h-.13s-1.08 15.5 9.11 14.87 23.65-7.11 27.14-1.38z" fill="#bcd861"/><path d="M289.67 49.73c-5.12.55-13.64-.1-16.37-5.41.92 1.85 6.35 10.94 21.83 5.93 17.19-5.56 36.61-14.15 43.11 7.47.19.63.38 1.19.57 1.71a14.74 14.74 0 0 0-1.22-7.81c-9.76-20.05-33.45-4.08-47.92-1.89z" fill="#bcd861"/><path d="M273.15 44l.06.14z" fill="#bcd861"/><path d="M223 20.25c-5.06 11.93.27 16.91 3.62 18.56a.7.7 0 0 0 .7-.05 13.45 13.45 0 0 1-4-7.78c-1.25-10 12-22.27-3.5-26.65 0-.01 8.27 3.99 3.18 15.92z" fill="#bcd861"/><path d="M287.14 22.39C294.08 9.5 282-4.55 268.46 2.07c0 0 11.06-3.42 17 6.58s-1 15.62-8.12 21-4.91 11.11-4.91 11.11c-.85-7.4 11.08-12.17 14.71-18.37z" fill="#bcd861"/><path d="M185.25 129.1c-5.62-4.29-25.08 10.07-33.45 2.64-9.14-8.12-16 10.61-13 30.57.73 4.85-15-.73-17.86 3.51-2.06 3.05 2.87 7.32 1.47 10.8-1.67 4.16-15.41 2.92-15.35 7.8.08 7.28 18.06 15.79 23.4 17.69 23.58 8.37 38.56-11 48.83-30.28 4-7.5 13.93-36.65 5.96-42.73z" fill="#749c3f"/><path d="M156.13 188.26c-6.05-4.38-29.11-19.71-34.5-23.13a2.68 2.68 0 0 0-.68.68c-2.06 3.05 2.87 7.32 1.47 10.8-.12.29 20.44 15.93 26.38 20.41 1.65 1.24 3.37 2.69 5.18 4a39.43 39.43 0 0 0 10-7.34c-2.59-2.02-5.56-3.77-7.85-5.42z" style="mix-blend-mode:multiply" fill="#2d421b" opacity=".2"/><path d="M176.06 176.46a92.05 92.05 0 0 1-3.1-2.8 4.53 4.53 0 0 0-1.84-4.55l-.32-.23a4.58 4.58 0 0 0 .26-.39c3.24-.75 5.44-4.8 2.41-7.68-5.47-5.21-11.84-9.24-17.95-13.65a138.86 138.86 0 0 1-14.07-12.21c-3 6-4.28 16.5-2.64 27.37a1.4 1.4 0 0 1-.58 1.46c2.05 1.9 4.24 3.69 6.45 5.45 8 6.39 17.26 9.36 26.45 13.62a4.12 4.12 0 0 0 1.37.36c1.39-2.05 2.71-4.17 4-6.32a4.42 4.42 0 0 0-.44-.43z" style="mix-blend-mode:multiply" fill="#2d421b" opacity=".3"/><path d="M185.25 129.1c-4.09-3.12-15.51 3.63-24.65 4.68 4 5.4 9.08 10.42 14.55 13.39a3.47 3.47 0 0 0 5.2-3 4.27 4.27 0 0 0 2.12-3.38 4.73 4.73 0 0 0 2.71-2.57 10.24 10.24 0 0 0 2 .31 3.81 3.81 0 0 0 1.08-.1c.01-4.26-.83-7.67-3.01-9.33z" style="mix-blend-mode:multiply" fill="#2d421b" opacity=".3"/><path d="M382.43.92c-17.5-3-33 1.57-48.59 9.29-22.26 9.68-129.1 78.66-187 179.14-3.15 7.71-5 16-4.12 23.85 1.55 13.49 4.87 24.35 14.61 34.44s23.07 13.93 36.64 15c20.72 1.67 39.8-11 54.09-24.57 8.64-8.22 15.76-18.06 23.56-27 10.53-12.14 21.4-24 32.47-35.6 22-23.14 60.89-51.79 84.68-73.13 16.85-15.13 28.23-20.2 35.49-42.72 12.32-38.46-18.45-54.73-41.83-58.7z" fill="url(#b)"/><path d="M380.55 6.47c-12.43-7.9-28.31.29-39.67 6.5-10.48 5.74-20.9 11.72-31.07 18-20.74 12.74-40.15 27.6-58.81 43.2-19 15.91-37.29 32.35-53.39 51.27-8.33 9.79-5.58 12.68 6.24 13.52 27.34 1.94 44.86-24.57 63.85-40.77a466.64 466.64 0 0 1 53.86-40.1c9.63-6.1 19.66-11.48 29.52-17.19a116.37 116.37 0 0 1 13.85-7.15c6.54-2.5 12.59-4.24 18.1-8.76 6.17-5.05 3.37-14.8-2.48-18.52z" fill="#fdddcf" opacity=".3"/><path d="M424.26 59.62a54.37 54.37 0 0 0 2.81-16.47c-6.19 2.66-10.54 3.5-18.63-2.37-8.33-6-14.25-12.56-22.6-19.06-11.93-9.29-22.19-11-33.4-13.41a55.68 55.68 0 0 0-11.24-1.47q-3.68 1.56-7.35 3.38a135.55 135.55 0 0 0-13.6 7.26 31.73 31.73 0 0 0 11.51 1.44 52.26 52.26 0 0 1 18.83 2.59c11.92 3.66 22.8 11.34 31.65 19.93 6.76 6.56 11.7 14.09 19.54 18.75h-.23c-6.51 1.44-10.8 7.29-9.46 14C393.21 79.75 399 83.43 404 85a16.72 16.72 0 0 0 4 .77c6.88-6.44 12.23-13.57 16.26-26.15z" style="mix-blend-mode:multiply" fill="#9c4823" opacity=".5"/><path d="M333.83 114.3c-4.2-20.63-14.37-38.83-31.42-51.39-8.93-6.58-19.54-10.15-30.36-12a590.34 590.34 0 0 0-29.82 24.83c2.73 0 5.83-.91 8.47-1.35a45.28 45.28 0 0 1 9.2.15A68.55 68.55 0 0 1 278.05 79a52.25 52.25 0 0 1 6.06 3c1.11.62 2.18 1.31 3.25 2 .55.37 1.09.75 1.63 1.13l.67.54a54.65 54.65 0 0 1 5.2 5c.67.71 1.29 1.46 1.92 2.21-1-1.14 1 1.35 1.13 1.58a63 63 0 0 1 3.65 6c.57 1 1.08 2.11 1.59 3.17.21.45.41.92.62 1.37l.34.87a95.65 95.65 0 0 1 4 14c.53 2.43.95 4.88 1.33 7.33 0 .17.24 1.8.31 2.33.16 1.38.29 2.75.42 4.13.95 10.35.8 20.74.91 31.11v3.59c7.76-7.47 16.82-15.34 26.25-23.23a193.47 193.47 0 0 0-3.5-30.83z" style="mix-blend-mode:multiply" fill="#9c4823" opacity=".5"/><path d="M246.34 155.19c-7.77-7.84-18.33-14.29-29.52-14.11a8.33 8.33 0 0 0-7.33 4 73.69 73.69 0 0 0-7.93-.17 120.66 120.66 0 0 0-27.81 4.09c-6.06 8-11.88 16.28-17.39 24.81 4.51-1.5 9.2-2.58 13.69-3.8a122.14 122.14 0 0 1 30.14-4.16c2.37 0 4.75 0 7.12.19 1.12.07 2.25.18 3.37.28l.71.06.79.14a43.52 43.52 0 0 1 5.7 1.38c.21.06 1.09.42 1.5.58 1 .49 2 1 3 1.6s1.67 1 2.49 1.61c-1-.66 1.33 1.15 1.38 1.18.78.69 1.5 1.45 2.21 2.21.08.09 1.15 1.42 1.3 1.56a40.43 40.43 0 0 1 2.77 4.64c.07.14.62 1.4.79 1.77.39 1.06.73 2.15 1.05 3.23 1.5 5.1 1.43 5.79 1.56 10.79a72.24 72.24 0 0 1-.74 12.71 57.74 57.74 0 0 1-9.67 24.15 49.33 49.33 0 0 1-7.11 8.08c-.09.08-1.27 1.06-1.47 1.26-.92.67-1.88 1.31-2.84 1.92a32.43 32.43 0 0 1-8.48 3.77c-11.43 3.41-23.76.4-34.75-3.18A186.68 186.68 0 0 1 149.5 237a49 49 0 0 0 7.85 10.58c9.78 10.13 23.07 13.93 36.64 15 20.72 1.67 39.8-11 54.09-24.57 6.15-5.86 11.54-12.53 16.94-19.13a115.85 115.85 0 0 0-2.69-31.9c-2.52-11.89-7.33-22.98-15.99-31.79z" style="mix-blend-mode:multiply" fill="#9c4823" opacity=".3"/><path d="M251.79 61.55s55-52.81 88.1-48.93c24.81 2.91 68.22 14.67 68.2 71.13 0 58.68-68.2 62.85-68.2 62.85s4.27-95.37-88.1-85.05z" fill="#cd9087"/><path d="M380.74 106.48c-3.56-15.91-11.91-30.88-22.41-43.23-9.71-11.42-22.27-20.9-35.32-28.15a63 63 0 0 0-23.79-7.67 27.66 27.66 0 0 0-3.18-.17c-4.83 3-9.53 6.14-14 9.33 3.38.35 6.86.4 10.51.73a57.8 57.8 0 0 1 21.68 6.42 103.4 103.4 0 0 1 33 26.75c9 11.16 14.22 24.58 17 38.52a155.21 155.21 0 0 1 3 24.8c.08 2.08.16 4.15.22 6.23A78.63 78.63 0 0 0 384.4 131a158.35 158.35 0 0 0-3.66-24.52z" fill="#e89e89"/><path d="M406.71 97.42a163.73 163.73 0 0 0-5.64-18.59C396 65.14 387.48 54 377 43.89c-9.48-9.13-20.61-17.85-32.78-23.06a65.5 65.5 0 0 0-25.25-5 105.12 105.12 0 0 0-12.58 5.53c11.43.83 22.74 2.09 33.16 7.52 11 5.75 20.13 15 28.06 24.46a88.86 88.86 0 0 1 17.12 31.56 204.41 204.41 0 0 1 4.89 21.54c1 5.42 1.53 11.55 3.55 16.88a53 53 0 0 0 13.54-25.9z" fill="#e89e89" opacity=".5"/><path d="M351.33 143.34c2.26-1.18 4.12-2.54 4.68-3.92 2.57-6.36 0-24.24-1.78-30.34-10.36-34.93-29.13-60.7-69.9-65.51a97.59 97.59 0 0 0-10.65-.68c-12.9 10-21.88 18.66-21.88 18.66q2.19-.24 4.31-.41c22.31-3.13 46.19-1.62 60.37 18.22.35.49.68 1 1 1.48 24 25.19 22.43 65.19 22.4 65.75-.03.89 6.63-.75 11.45-3.25z" style="mix-blend-mode:multiply" fill="#9a4723" opacity=".4"/><path d="M408.09 83.75c0-18.5-4.65-32.2-11.78-42.36-6.81 5.32-13.85 10.38-20.31 15.75-15.6 13-33.29 23.33-49.54 35.54 14.72 24.41 13.41 53.92 13.41 53.92a90.3 90.3 0 0 0 13.45-2.18c7.26-8 15.09-15.46 22.87-23 10.23-9.86 20.73-19.4 31.31-28.86a69.15 69.15 0 0 0 .59-8.81z" style="mix-blend-mode:multiply" fill="#b15026" opacity=".3"/><path d="M337.63 123.19c-1.84-13.61-6-27.06-13.44-38.67-7.19-11.26-18-20.52-30.69-24.89-12.38-4.32-30.66-6.59-41.71 1.92a1.92 1.92 0 0 0 1.47 3.5c12.86-1.85 25.55-1.19 37.82 3.36 11.55 4.28 20.61 14 26.53 24.53s8.56 22.61 9.94 34.38-.47 24.87 3.3 36.12a3.39 3.39 0 0 0 6.49 0c4.55-12.14 1.98-27.75.29-40.25z" fill="#6e331a"/><path d="M312.11 97.47c-15.23-19.11-43-29.72-67.94-24.09-21.37 4.82-33.52 22.62-47.25 38.74-14.23 16.72-37.8 50-38.42 52.09a5.38 5.38 0 0 0 .37 3.94c1.72-1.62 26.93-16.32 41.1-16.81 12.67-.44 24.73 2.76 34 11.61 7.8 7.4 12.7 17.75 16.64 27.59 2.31 5.76 4.76 11.45 7.06 17.21a64.29 64.29 0 0 1 2.76 8.61c.73 3 .21 6 1 9q-2 1.62-4 3.18c-3.87 2.94-.4 9.48 3.92 6.7C283.6 220.92 299 197 312.1 174.6c6.76-11.54 11.8-23.83 11.54-37.41-.26-13.19-3.46-29.59-11.53-39.72z" fill="#cd9087"/><path d="M280.29 126.29c-15.18-15.29-38.39-25.37-60.05-23.63a78.58 78.58 0 0 0-18.84 4.1c-1.48 1.79-3 3.58-4.48 5.36-4 4.7-8.74 10.72-13.5 17 3.7-1 7.38-2 11-3.27 11-3.79 22.27-6.71 33.95-5.08 22.63 3.13 39.28 19.23 48.77 38.64 4.28 8.74 7.61 19.89 10.16 30.49 1.11 4.62 2.68 10.22 6.11 13.75 5.84-7.92 11.1-16.27 16-24.52-5.07-19.46-15.22-38.85-29.12-52.84z" fill="#e89e89"/><path d="M320.83 155.61q-.69-2.84-1.46-5.67a166.39 166.39 0 0 0-9.81-26.94c-6-12.86-15.47-24.12-27.88-31.16s-27.68-9.46-41.79-9.46a97.25 97.25 0 0 0-16.58 1.23 101.07 101.07 0 0 0-13 12.59c3.41-.62 6.89-1 10.16-1.54 6.81-1.13 13.9-1 20.76-.58 12.32.73 24.37 3.08 35.22 9.2s17.94 16.6 23.14 27.62c3.61 7.65 6.08 15.85 8.32 24 1.14 4.14 2.15 8.27 3.48 12.35a35.63 35.63 0 0 0 2.07 4.92 89.49 89.49 0 0 0 7.37-16.56z" fill="#e89e89" opacity=".5"/><path d="M278 221.65c0-6.32-1-12.77-1.85-18.94a107.88 107.88 0 0 0-5.52-22.53c-4.3-11.83-10.44-23.11-20.06-31.45-14.69-12.73-34.31-16.57-53.23-14.29A111.84 111.84 0 0 0 176 139c-9.3 12.64-17.14 24-17.49 25.19a5.18 5.18 0 0 0-.18 2c2.08-.49 4.14-1.2 6.21-1.74l.57-.16c8.76-4.9 24.68-12.62 34.88-13 12.67-.44 24.73 2.76 34 11.61 7.8 7.4 12.7 17.75 16.64 27.59 2.31 5.76 4.76 11.45 7.06 17.21a64.29 64.29 0 0 1 2.76 8.61c.73 3 .21 6 1 9q-2 1.62-4 3.18c-3.87 2.94-.4 9.48 3.92 6.7A102.64 102.64 0 0 0 278 221.65z" style="mix-blend-mode:multiply" fill="#9a4723" opacity=".3"/><path d="M320.81 155.7a57.06 57.06 0 0 0 2.83-18.51c-.23-11.84-2.84-26.21-9.19-36.37-1.17.74-2.33 1.51-3.45 2.36a154.1 154.1 0 0 0-15 12.76c-9.41 9.23-17.75 19.48-25.7 30-7.63 10.05-14.8 20.41-21.88 30.85q-1.16 1.72-2.35 3.42c1.7 3.42 3.2 6.92 4.58 10.36 2.31 5.76 4.76 11.45 7.06 17.21a64.29 64.29 0 0 1 2.76 8.61 25.37 25.37 0 0 1 .5 5c2.26-3 4.53-5.95 6.82-8.9 9.12-11.74 19.39-22.54 29.79-33.14 7.73-7.94 15.57-15.7 23.23-23.65z" style="mix-blend-mode:multiply" fill="#b15026" opacity=".3"/><path d="M259.2 196.5c-3.3-12.85-9.17-25.29-18.76-34.63-23.63-23-58.88-17.44-80.52.76-3.92 3.3-1.2 6.57.15 5.53 20.85-16 55-22.52 76.71 2 16.38 18.55 14.56 44.82 18.36 67.57.79 4.73 7.18 3 7.68-1 1.68-13.22-.31-27.35-3.62-40.23z" fill="#6e331a"/><path d="M411.31 61.17c-5.83 4.47-11.51 9.15-17.41 13.54-6.33 4.7-13.18 8.6-19.8 12.87a384.41 384.41 0 0 0-37.56 27.74c-11.43 9.5-21.76 20.17-32.65 30.25s-21.68 19.86-30.78 31.57c-9.36 12-16.65 26.27-24 39.63-3.49 6.36-6.79 12.8-9.95 19.33-2 4.17-4.75 9.23-6 14.19a121.44 121.44 0 0 0 14.89-12.19c8.64-8.22 15.76-18.06 23.56-27 10.53-12.14 21.4-24 32.47-35.6 22-23.14 60.89-51.79 84.68-73.13 16.86-15.16 28.24-20.23 35.5-42.75a60.76 60.76 0 0 0 2.28-9.62c-5.14 3.63-10.23 7.34-15.23 11.17z" style="mix-blend-mode:multiply" fill="#9c4823" opacity=".5"/><path d="M542.28 45.59a43.69 43.69 0 0 0-20.4-14.71c-35.06-12-56 8.39-81.92 29.15q-18 14.43-36.11 28.77c-28.49 22.67-56.62 45.73-83.7 70.08-13.31 12-26 24.53-38.4 37.41q-4.5 4.66-8.93 9.38a32.28 32.28 0 0 0-4.08 4.87l-.67.84q-2.33 2.9-4.64 5.81c-10.11 12.72-15.69 24.36-16 41.11-.28 17.09 9.81 33.15 23.45 42.7 22.73 15.91 53.61 5.63 73.91-9.24 24.59-18 45.36-40.56 66-62.85 26.74-28.91 55.36-55.9 83-84 16.47-16.75 47.91-40.13 55.26-63.22 4.09-12.93.89-26.11-6.77-36.1z" fill="#a6492e"/><path d="M489.58 33.83c-11.36 3-65.73 51.93-81.32 63a586.32 586.32 0 0 0-46.47 36.65c-15.22 13.3-29.63 27.81-40.86 44.68-5.39 8.1 5.71 19.82 13.83 13.73 15.29-11.47 29.61-24.2 44.29-36.46 14.14-11.8 126.6-103.5 132.38-112.55 3.92-6.13-1.68-14.35-21.85-9.05z" fill="#fdddcf" opacity=".2"/><path d="M546.72 71.73c-2.51 2.23-4.87 2.22-7.87 1.46-3.74-1-8.46-4.33-12-7.26-9.27-7.59-17.35-15.74-28.61-20.36-8.5-3.48-21.87-4.79-33.69-4.67-4.36 3-8.68 6.37-13.07 9.89a17.37 17.37 0 0 0 4.39 3.9c12.28 6.38 28.57 1.8 39.13 10 9.92 7.73 17.72 17.63 28.43 24.5.73.47 1.47.9 2.21 1.31-6.5 2.52-11.18 8.42-13.63 15.57-1.94 5.65 1.61 12.68 7 15.32C532 109 544.68 95.32 549 81.73a38.06 38.06 0 0 0 1.72-14.23 35.78 35.78 0 0 1-4 4.23z" style="mix-blend-mode:multiply" fill="#9c4823" opacity=".5"/><path d="M386.78 116.15a55.43 55.43 0 0 0-16.48-.23q-13.86 11.4-27.48 23.08a53.74 53.74 0 0 0 10.18 1.18c7.62.32 15.24-.51 22.86-.19a22.64 22.64 0 0 1 7.39 1.8c4.16 1.83 7.85 4.5 11.57 7.07a56.59 56.59 0 0 1 7.08 5.52 37.64 37.64 0 0 1 3 3.29c-1-1.08 1.46 2.3 1.73 2.75.65 1.07 1.21 2.18 1.77 3.3l.41.88c.18.48.37 1 .54 1.44a64.06 64.06 0 0 1 2.53 9.93c0 .21.27 1.92.36 2.45.14 1.42.25 2.85.34 4.27.23 3.58.21 7.18.13 10.76-.15 6.67-.76 13.34-1.44 20-.48 4.64-1.18 10.32-.4 15.39 9.86-10.66 20-21.06 30.21-31.35q.11-2.57.15-5.16c.19-15.84-2.28-32.26-10.39-46.09-8.92-15.24-26.84-27-44.06-30.09z" style="mix-blend-mode:multiply" fill="#9c4823" opacity=".5"/><path d="M326.48 243.89c13.42 16 10.92 35.92 0 48.48-9.88 11.36-39 15.67-54.5 9.37 22.79 14.83 52.71 4.77 72.84-10q4.38-3.21 8.6-6.61c5-20-6.57-39.84-22.18-51.63-10.57-8-22.61-10.17-35.46-7.6-4.95 1-11.39 4.41-16.29 1.92-3.63-1.85-4.69-7.23-5.14-10.87-.49-3.94-.63-7.9-1-11.85l-.51.54c-10.36 11-9.47 33.59 9.78 32 14.66-1.22 32.92-6.78 43.86 6.25z" style="mix-blend-mode:multiply" fill="#9c4823" opacity=".2"/><path d="M354.22 123.44c3.94-3.8 22.18-20 27.85-24.89 31.35-26.89 66.85-66.18 105.19-50.77 11.81 4.75 21.48 10.42 29.39 20.33 10.5 13.16 20.36 33.7 10.43 49.52-7.55 12-70.23 77.75-90.48 91.57 0 0 10.82-12.11 3.49-39.33-9.33-34.61-42.4-54.19-85.87-46.43z" fill="#cd9087"/><path d="M494.94 154.1c-2.36-13.46-6.6-26.55-13.69-38.35-14.53-24.2-42.43-40.44-70.66-42.27-5.75 4.85-11.39 9.91-16.91 14.85 3.09.21 6.16.49 9.18.82A92.53 92.53 0 0 1 432 97.06c15 7.08 27 16.6 35.18 31.27 7.2 13 10.09 28.16 11.14 42.88 5.6-5.68 11.25-11.48 16.62-17.11z" fill="#e89e89"/><path d="M450.26 133.17a70.5 70.5 0 0 0-46.31-30 111.53 111.53 0 0 0-25.61-1.37c-7.59 6.65-20.83 18.47-24.12 21.65 13.53-2.42 26-2.18 37.16.33l5.29.39c1.18.09 2.34.25 3.49.45a5.63 5.63 0 0 0 1.92 1.88c1 .58 1.9 1.18 2.84 1.78a62.55 62.55 0 0 1 20.28 14.4 47.05 47.05 0 0 1 4.36 4.56 21 21 0 0 1 3.26 5.55 66.28 66.28 0 0 1 7.25 17.1c.19.72.37 1.42.54 2.12l.26.18c0 .46.07.92.1 1.38 5.45 24.62-4.38 35.64-4.38 35.65 6.09-4.16 16-13 27.15-23.7 1.47-18.52-2.65-36.58-13.48-52.35z" style="mix-blend-mode:multiply" fill="#9b4823" opacity=".3"/><path d="M267.93 199.2s37.63-43.2 60.29-57.2c35.6-22 84.29 1.29 97 38.29 8.82 25.65-5.46 52.84-23.11 70.78-17.14 17.41-33.88 36.59-52.68 52.22 0 0 10.64-8.85 8-35.44s-20.32-43.46-62-40.82h-19.34z" fill="#cd9087"/><path d="M311.2 195.09c-12.67-2.22-27.84-2.87-40.81 1.33-1.57 1.76-2.46 2.78-2.46 2.78l8.16 27.8h19.33c16.16-1 28.69.9 38.15 5.16a3.81 3.81 0 0 0 .25-.57l.49.41c.41.35.79.72 1.18 1.08 13.65 6.94 20.36 19.16 21.93 34.74 2.67 26.59-8 35.43-8 35.44a343.79 343.79 0 0 0 25.86-24.3c.2-1 .38-2.05.53-3.08A69.33 69.33 0 0 0 358 219.19c-12-13.04-29.54-21.08-46.8-24.1z" style="mix-blend-mode:multiply" fill="#9b4823" opacity=".3"/><path d="M425.24 180.24a61.59 61.59 0 0 0-3.41-8 439.59 439.59 0 0 0-31 32.42 226.3 226.3 0 0 0-33.24 39.51c-1.65 1.92-3.34 3.85-5 5.81a50.74 50.74 0 0 1 4.87 17.8c2.67 26.59-8 35.43-8 35.44 18.8-15.63 35.55-34.8 52.68-52.22 17.64-17.92 31.92-45.11 23.1-70.76z" style="mix-blend-mode:multiply" fill="#b15026" opacity=".5"/><path d="M426.77 207.65c-9.66 10.85-19.32 21.69-29.16 32.38-14.06 15.25-27.37 31.1-40.7 47-2.19 11.87-7.46 16.26-7.46 16.26 18.8-15.63 35.55-34.8 52.68-52.22 11.39-11.62 21.36-27.07 24.64-43.42z" style="mix-blend-mode:multiply" fill="#9c4823" opacity=".5"/><path d="M352.39 243.43c-16.64-21.61-48.42-27.92-73.64-19.79-3.81-7.76-5.11-16.65-6.69-25.06-.44-2.32-4.35-1.8-4.12.56 1 10.25 1.56 20.87 6.39 30.18a3.28 3.28 0 0 0 3.72 1.51c21.88-6.85 48.65-2.39 64.57 14.93a37.73 37.73 0 0 1 9.14 31.39A28.55 28.55 0 0 1 341.63 294c-5 3.79-9.63 5.61-15.15 8.35-3.46 1.72-2.19 5.16 1.37 6.05 7.29 1.83 15.65-.84 21.6-5.17 6.54-4.76 9.74-12 11.4-19.68 3-13.99.33-28.71-8.46-40.12z" fill="#6e331a"/><path d="M510.82 94.32c-19.26 19-41.15 35.48-61.67 53q-5.94 5.09-11.75 10.28a68.07 68.07 0 0 1 3.92 10.81c7.33 27.22-3.48 39.33-3.49 39.33 20.25-13.82 82.93-79.53 90.48-91.57 7.16-11.42 4-25.3-2.22-37.08-5.28 5.1-10.31 10.36-15.27 15.23z" style="mix-blend-mode:multiply" fill="#b15026" opacity=".5"/><path d="M528.32 116.22a28 28 0 0 0 4-17.56c-1.5 1.29-3 2.57-4.5 3.87-8.19 7.15-12.89 10.72-24.06 8.88-15.57-2.55-31-3.69-34.7 14.66-2.86 14.33 3.81 30.94-7.25 42.81q-9.09 9.76-18 19.69c-.58 13.15-6 19.21-6 19.21 20.28-13.78 82.96-79.53 90.51-91.56z" style="mix-blend-mode:multiply" fill="#9c4823" opacity=".5"/><path d="M444.06 170a66.62 66.62 0 0 0-23.5-35c-10.92-8.4-24.39-13.16-38-14.89-11.66-1.48-28.6-1.6-35.29 10.2-1 1.82 1.24 3.25 2.71 2.09 9.79-7.7 22.4-6.85 34-4.67 11.89 2.23 23.28 6.66 32.68 14.4a60.14 60.14 0 0 1 19.5 30c3.65 12.83 3.09 25.7-3.91 34.24-2.44 3 3.88 4.56 5.93 1.48 7.91-11.77 9.41-24.58 5.88-37.85z" fill="#6e331a"/><path d="M218.89 211.81c-4.58 2.15-8.75 5.3-13 8.09a113.69 113.69 0 0 1-16.06 8.73c-1.84.83-3.69 1.55-5.55 2.18-1.92-2.27-3.76-4.6-5.46-7-7.81-11.19-11-23.75-11.92-37.23a2.19 2.19 0 0 0-4.37 0 61.92 61.92 0 0 0 9.63 39.66 79.52 79.52 0 0 0 4.76 6.57 57.71 57.71 0 0 1-21.87-.1 1.26 1.26 0 0 0-1 2.3c8 5.4 18.07 5.23 27.37 3.14q1.36 1.52 2.75 3c4.75 5.08 10.16 12 16.68 14.78a2.34 2.34 0 0 0 3.18-3.18c-2.67-5.79-8.66-10.07-13-14.54-.7-.71-1.38-1.44-2.07-2.17l.59-.19c11.43-3.89 25.27-10.76 32.57-20.72 1.58-2.18-1.31-4.22-3.23-3.32z" style="mix-blend-mode:multiply" fill="#833b1c" opacity=".5"/><path d="M318.28 290.09c-9.55-2.56-18.61-5.45-26.83-10.55l2-1.94c8.07-7.94 15.62-17.08 19.63-27.76 1-2.65-3-4.08-4.4-1.85-5.73 9.12-11.81 17.77-19.31 25.53-.89.92-1.8 1.81-2.73 2.69-.46-.36-.93-.71-1.38-1.09-9.92-8.15-15.71-19-20.7-30.58-.52-1.2-2.53-.59-2.45.66.94 13.65 8.62 26.29 19.34 35.62-5.24 4.46-10.68 8.7-15.45 13.63a1.07 1.07 0 0 0 1 1.78c6.92-2.25 13.3-6.76 19-11.74 9.42 6.85 20.54 11.26 31.36 11.94 3.76.23 4.38-5.43.92-6.34z" style="mix-blend-mode:multiply" fill="#833b1c" opacity=".5"/><path d="M140.38 150.36a25.57 25.57 0 0 1 3.87-14 15.28 15.28 0 0 1 6.21-5.61c-8.45-5.24-14.5 12.6-11.65 31.57.73 4.85-15-.73-17.86 3.51-2.06 3.05 2.87 7.32 1.47 10.8-1.67 4.16-15.41 2.92-15.35 7.8a4.76 4.76 0 0 0 0 .55 21.17 21.17 0 0 1 10.81-3.84c9.68-.81 5.12-7.58 5.54-14 0-.45 12.56-.65 14-1.46 5.44-3.05 3.22-10.04 2.96-15.32z" fill="#bcd861"/><path d="M262.11 79.42c-5.3-3.85-18.82-1.1-23.67 2-5.44 3.58-11.21 9.17-15.76 13.82-7.1 7.24-14 14.76-19.8 23.13-2.83 4.1-12.59 14.84-10.76 20.06 1.59 4.55 11.07 3.61 14.9 3 14.24-2.25 63.89-55.62 55.09-62.01z" fill="#fdddcf" opacity=".3"/><path d="M338.53 19.53c-5.52-4.46-11-2.63-16.92-.09-5 2.13-9.85 4.37-14.64 6.91s-23 14.4-23.16 20.9c-.11 4.33 8 4.78 11.27 5.47 10.86 2.28 50.01-27.89 43.45-33.19z" fill="#fdddcf" opacity=".5"/><path d="M202.65 175.92a17 17 0 0 0-11-4.18c-32.15-.68-10.52 51 2.8 44.1 7-3.58 10.84-11.34 13.25-18.42 2.8-8.19.51-16.63-5.05-21.5z" fill="#fdddcf" opacity=".3"/><path d="M394.43 225.86c-4.52-17.52-17.75-30.26-32.27-40.17-15.54-10.61-34.19-18.25-52.89-20.64a82.08 82.08 0 0 0-8.23-.63c-4.74 4.55-9.37 9.22-13.6 13.6a79.38 79.38 0 0 1 21 1.41 125.26 125.26 0 0 1 46.11 19.39 87 87 0 0 1 16.79 15c4.83 5.61 6.93 10.87 8.68 17.63 3.07 11.93 4.06 24.26 4.33 36.53v1.46c4.9-5.14 9.77-10.29 14.66-15.32a167.56 167.56 0 0 0-4.58-28.26z" fill="#e89e89"/><path d="M391.8 168.33c-12.42-11.33-27.8-19.16-43.93-23.69a100.09 100.09 0 0 0-18.65-3.29l-1 .59a128.59 128.59 0 0 0-15.68 11.94c2.66.08 5.34 0 8 .21a115.51 115.51 0 0 1 22.33 3.85 93.39 93.39 0 0 1 38.71 20.76 77.63 77.63 0 0 1 23.23 38.37c2.2 8.27 3.8 16.65 5.17 25.08a96.19 96.19 0 0 0 10.52-16.55c-3.41-21.49-11.5-41.6-28.7-57.27z" fill="#e89e89" opacity=".5"/><path d="M515.83 126.59a84 84 0 0 0-23.54-44.68 90.43 90.43 0 0 0-58-26 158.78 158.78 0 0 0-13.6 9.42c22.13 4 44.63 12.12 60.58 27.74 10.57 10.35 16.21 23.34 19 37.68a107.31 107.31 0 0 1 1.8 15.76c5.42-5.8 10.35-11.21 14.41-15.83q-.28-2.05-.65-4.09z" fill="#e89e89" opacity=".5"/><path d="M351.54 138.43a33.34 33.34 0 0 0-9.51 2.19c-13.7 5.89-32.17 24.26-43.35 37.54-3.24 3.85-6.33 7.82-9.48 11.75a27.74 27.74 0 0 0-6.07 22.17c1.87 11.11 27.35-14.23 32.08-19.24 1.15-1.22 30.62-30.82 34.64-34.67 3.85-3.69 14.4-12.5 7.79-18.34-1.45-1.29-3.64-1.59-6.1-1.4z" fill="#fdddcf" opacity=".3"/><path d="M461.1 50.88c-10.17 2-14.78 5.68-23.11 11.38-7.6 5.2-30.75 24.57-36 29.74-4 3.91-10.46 8.95-12.15 14.42-1 3.21.71 6.26 3.3 8 6.09 4.16 14.56-1 19.75-4.34 7-4.55 60-41.54 65-51.82 3.76-7.69-8.38-9.01-16.79-7.38z" fill="#fdddcf" opacity=".5"/><path d="M459.67 142.94s-13.77 52.41 15.4 67.53c51.5 26.68 79.84-18 79.84-18z" fill="#c22e28"/><path d="M486.3 213.6c33.19 12.67 75.35-19.25 61.85-24.82-7-2.89-31-13.7-44.06-23.06l-44.42-22.78s-.71 2.65-1.48 6.93c1.49 6 10.86 14.45 18.6 19.67 13.68 9.23-3.76 13-8.21 18.47a20.75 20.75 0 0 0-4 13.8 28.2 28.2 0 0 0 10.5 8.66 35.09 35.09 0 0 0 11.22 3.13z" style="mix-blend-mode:multiply" fill="#88201c" opacity=".5"/><path d="M506.67 174.8c-5.36-2.81-11.09-4.71-16.32-7.81-3.9-2.31-7.76-4.74-11.56-7.21a87.6 87.6 0 0 1-12.32-9.41 39.1 39.1 0 0 1-5.21-6.48l-1.59-.81s-.38 1.44-.89 3.91c3.53 6.06 10.57 11.11 15.56 14.65 9.4 6.67 19.82 13.25 31 16.24 1.85.47 3.05-2.18 1.33-3.08z" fill="#fccdb3" opacity=".5"/><path d="M505.41 157.34s-41.62-22-45.74-14.41c-2.38 5 40.87 34.36 65.75 42.06s40 14.3 21.16-2.46c0 0-14.49-13.09-41.17-25.19z" fill="#c54630"/><path d="M510 162s43 23.69 38.16 26.74c-3.58 2.27-23.14-4.18-20.45-7.17s3.2-3.14-6.36-10.61-15.53-8.62-11.35-8.96z" style="mix-blend-mode:multiply" fill="#ad2924"/><path d="M409.11 203s-5.92 64 45 66.34 61.6-41.47 59.83-53.9z" fill="#e34225"/><path d="M514 215.48l-21.6-2.56q-2.2.8-4.57 1.75c-35.35 14.24-59.6-.58-70.92-10.71l-7.76-.92s-2.41 26.09 9.1 45.56c-.36-1-7.18-21-3.63-22.3s7.53 19.16 43.33 18.25c29.84-.76 30.37 10.36 19.68 22.14 30.82-9.54 37.79-40.98 36.37-51.21z" style="mix-blend-mode:multiply" fill="#88201c" opacity=".5"/><path d="M444.65 188.23s-34.95-2.37-35.54 14.77 29 40.28 69.3 32.58 41.47-20.14 27.25-31.39-36.72-15.96-61.01-15.96z" fill="#f15f47"/><path d="M505.67 204.23c-14.22-11.26-36.73-16-61-16 0 0-34.95-2.37-35.54 14.81s29 40.28 69.3 32.58 41.45-20.14 27.24-31.39zM478.05 233a82.54 82.54 0 0 1-15.43 1.49c-17.65 0-34.15-6.17-44.14-16.51-5-5.14-7.6-10.67-7.43-15.59.41-11.77 20.7-13 29.4-13 2.46 0 4.06.11 4.07.11 18.44 0 43.68 2.71 59.94 15.58 4 3.13 8.45 7.81 7.35 12.29S504 228.08 478.05 233z" fill="#e34225"/><path d="M442.57 193.13s-26.35-.77-25.7 10.83 24.54 29.37 53.38 25-15.89-9-23.89-17.19c-14.57-14.86 10.2-18.64-3.79-18.64z" fill="#ad2924"/><path d="M443.4 197.88c2.76-3.58 6.93-4.75-.83-4.75 0 0-26.35-.77-25.7 10.83.3 5.45 5.73 12.25 14.39 17.49a26.84 26.84 0 0 1-6-12.25c-1.78-11.26 14.51-11.42 18.14-11.32z" style="mix-blend-mode:multiply" fill="#ad2924"/><path d="M465.88 194.29s37.29 6.41 39.62 18.36-25.05 14-21 4.37-6.12-12.24-14.28-15.73c-6.8-2.93-12.98-8.29-4.34-7z" fill="#ad2924"/><path d="M440.82 199.23s-5.12 1.78-5.16-1.74 5.14.98 5.16 1.74z" fill="#ad744a"/><path d="M440.36 198.52c-.93.27-3.91 1-4.68-.87.2 3.29 5.14 1.58 5.14 1.58a1.63 1.63 0 0 0-.46-.71z" style="mix-blend-mode:multiply" fill="#ad2924"/><path d="M439.67 203.86s-4.47 3.76-5.86.22 5.55-.98 5.86-.22z" fill="#ad744a"/><path d="M439.22 203.48c-.74.57-3.87 2.8-5.34.75 1.46 3.26 5.79-.37 5.79-.37a1.19 1.19 0 0 0-.45-.38z" style="mix-blend-mode:multiply" fill="#ad2924"/><path d="M441.17 208.85s-2.73 5.16-5.34 2.41 4.76-3 5.34-2.41z" fill="#ad744a"/><path d="M440.6 208.67c-.33.58-2.24 3.79-4.32 3 2.47 1.77 4.89-2.81 4.89-2.81a1.21 1.21 0 0 0-.57-.19z" style="mix-blend-mode:multiply" fill="#ad2924"/><path d="M445.75 214.43s-2.05 5.47-5 3.07 4.36-3.57 5-3.07z" fill="#ad744a"/><path d="M445.21 214.32c-.51 1.15-2.36 4.76-4.85 2.73l-.11-.11a2.3 2.3 0 0 0 .51.56c2.94 2.4 5-3.07 5-3.07a1.1 1.1 0 0 0-.55-.11z" style="mix-blend-mode:multiply" fill="#ad2924"/><path d="M452.09 217.28s0 6.47-4 5.12 3.13-5.4 4-5.12z" fill="#ad744a"/><path d="M451.66 217.33c-.1 1.54-.7 5.67-4 4.57a2.48 2.48 0 0 1-.74-.39c.12.35.46.67 1.14.9 4 1.34 4-5.12 4-5.12a1 1 0 0 0-.4.04z" style="mix-blend-mode:multiply" fill="#ad2924"/><path d="M458.87 220s2.27 6.07-1.94 6.21 1.07-6.11 1.94-6.21z" fill="#ad744a"/><path d="M458.87 220a.64.64 0 0 0-.27.11c.44 1.52 1.29 5.53-2.12 5.64a2.15 2.15 0 0 1-1.05-.18c.18.41.64.67 1.51.64 4.2-.09 1.93-6.21 1.93-6.21z" style="mix-blend-mode:multiply" fill="#ad2924"/><path d="M485.35 211.8a9.24 9.24 0 0 1-.82 5.21c-1.36 3.19.77 5.09 4.11 5.78-.04-4.52-2.25-9.1-3.29-10.99z" style="mix-blend-mode:multiply" fill="#ad2924"/><path d="M438.65 197.62s-2.23-1.71-2.51-.63 2.51.63 2.51.63z" fill="#fff" opacity=".3"/><path d="M437 203.19s-2.61-1-2.58.08 2.58-.08 2.58-.08z" fill="#fff" opacity=".3"/><path d="M438.17 209.21s-2.8.2-2.29 1.2 2.29-1.2 2.29-1.2z" fill="#fff" opacity=".3"/><path d="M443.06 215.14s-2.71.74-2 1.62 2-1.62 2-1.62z" fill="#fff" opacity=".3"/><path d="M449.37 219.43s-2.31 1.6-1.36 2.2 1.36-2.2 1.36-2.2z" fill="#fff" opacity=".3"/><path d="M457.15 223.09s-1.9 2.07-.84 2.45.84-2.45.84-2.45z" fill="#fff" opacity=".3"/><path d="M447.71 197.39S440.87 208 457.8 213.3s19.88 3.56 10.1.17c-17.79-6.16-17.28-19.67-20.19-16.08z" fill="#fff" opacity=".3"/><path d="M492.38 153.67s-34.65-14.93-24.49-5.08 40.62 27.18 40.62 27.18 3 0-4.18-4.78-14.38-11.64-10.75-12.55c4.77-1.18 1.49-2.97-1.2-4.77z" style="mix-blend-mode:multiply" fill="#ad2924"/><path d="M271.21 240.82c-3.28 3.95 2.1 14.52 4.71 18.24s6.78 10 12 9.55c4.86-.44 8.49-6.61 11-10.16a15.54 15.54 0 0 0 2.71-5.4c.74-3.31.34-4.79-2.62-6.36s-24.65-9.69-27.8-5.87z" fill="#fdddcf" opacity=".3"/></g></svg>