<svg xmlns="http://www.w3.org/2000/svg" viewBox="1.4999980926513672 1.1000003814697266 57 123.20000457763672"><path fill="#f87234" d="M46.7 53.4l-29-17 7.8-33.2 29 16.9z"/><title>Depositphotos_74009101_01</title><path fill="#bf4625" d="M57.1 107.4v1.5l-26.9 15.4v-1.5z"/><path fill="#85311a" d="M30.2 122.8v1.5L1.5 107.6v-1.3z"/><path fill="#f85b30" d="M57.1 107.7l-26.9 15.4-28.7-16.8L28 90.9z"/><path fill="#505050" d="M57 20.9l.1 86.9-6.8 3.9L50 51z"/><path fill="#f85b30" d="M46.8 113.5l-29-16.7-.1-60.5 29 16.9z"/><path fill="#ffca00" d="M46.8 113.7L17.7 96.9V58.3l29 16.9z"/><path fill="#612413" d="M27.7 49.6l-7.4-4.3v-2.2l7.4 4.4z"/><path fill="#612413" d="M42.7 56.9l-7.5-4.3v-.8l7.5 4.4z"/><path fill="#f8853e" d="M54.5 20.5l-29.1-17 4.1-2.4 29 17z"/><path fill="#cf4b28" d="M58.5 18.1l-8.3 35.2.1 58.4-3.5 2-.1-60.4 7.7-32.8z"/><path fill="#fff" d="M19.4 35.6l7-29.6 26.3 15.3-7.1 29.4z"/><path fill="#0ee5e1" d="M20.5 35.1l6.6-27.6 24.4 14.2L45 49.2z"/><path d="M37 60.3l-4.2-2.4v-.2l4.2 2.4v.2z" fill="#fff"/><path d="M41.4 55.4c-2.8 2-4.2 3.6-4.3 4.9l.3-.2c.1-.8.9-2.1 4-4.3v-.4z" fill="#979797"/><path d="M32.8 57.7l4.2 2.4c.2-1.2 1.7-2.8 4.3-4.7L37.1 53c-2.6 1.9-4 3.5-4.3 4.7z" fill="#fff"/><path d="M44.1 42.9c0 .1-.1.3-.3.2h-.1L23.1 31.3c-.2-.1-.3-.4-.2-.6L27 14.6c0-.1.2-.3.3-.2h.1l20.5 11.8c.2.1.3.3.2.6l-4 16.1z" fill="#0cb0c2"/><path d="M41.1 34.4c-.1.9-.9 1.5-1.8 1.4-.2 0-.4-.1-.6-.2l-8.5-4.8c-1.1-.7-1.6-2.1-1.3-3.4l.2-1c.1-.9 1-1.5 1.9-1.4.2 0 .4.1.6.2L40 30c1.1.7 1.6 2.1 1.3 3.3l-.2 1.1z" fill="#f85b30"/><path d="M33.2 26.9l.7.4c.3.2.5.5.5.8 0 .2 0 .5-.1.7-.1.3-.1.5-.2.6-.1.2-.2.4-.3.5-.2.1-.4 0-.5-.1l-.3-.2-.4 1.6-.4-.2 1-4.1zm.6 1.7c.1-.2.1-.4.1-.6 0-.1-.1-.2-.2-.3l-.3-.2-.4 1.7.2.1c.1.1.2.1.3 0 .2-.1.3-.4.3-.7z" fill="#fff"/><path d="M35.3 28.1l.5.3-.5 4.5-.4-.2.1-.9-.6-.4-.3.8-.4-.2 1.6-3.9zm-.8 3l.5.3.3-2.4-.8 2.1z" fill="#fff"/><path d="M37.6 29.4l.4.2-1.2 2.1-.4 1.8-.4-.2.4-1.8v-2.8l.4.2v2l.8-1.5z" fill="#fff"/><path d="M31.5 20.9c.2-.7.4-1 .7-1 .1 0 .3 0 .4.1.4.2.6.5.6.9 0 .3 0 .6-.1.9l-.4 1.5c-.1.6-.3.9-.5 1s-.5.1-.6-.1c-.4-.2-.6-.6-.6-1 0-.3 0-.6.1-.9l.4-1.4zm1.1.5c.1-.3.1-.5 0-.8 0-.1-.1-.1-.1-.1-.1-.1-.2-.1-.3 0-.1.2-.2.4-.2.5l-.4 1.7c-.1.3-.1.6 0 .8 0 .1.1.1.1.1.1.1.2.1.3 0 .1-.2.2-.4.2-.5l.4-1.7z" fill="#fff"/><path d="M34.4 21.6c.1-.1.2-.2.3-.2.1 0 .3 0 .4.1.2.1.3.3.3.4.1.2.1.5 0 .8l-.8 3.3-.5-.3.8-3.3V22c0-.1-.1-.2-.2-.2h-.3c-.1.1-.2.2-.2.3l-.8 3.2-.5-.3 1-4.1.5.3v.4z" fill="#fff"/><path d="M36.5 21.4l.5.3-1.2 4.9-.5-.3 1.2-4.9z" fill="#fff"/><path d="M37.6 22l.5.3-.1.5-.5-.3.1-.5zm-.2.9l.5.3-1 4.1-.5-.3 1-4.1z" fill="#fff"/><path d="M39 24.2c.1-.1.2-.2.3-.2.1 0 .3 0 .4.1.2.1.3.3.3.4.1.2.1.5 0 .8l-.8 3.3-.5-.3.8-3.3v-.4c0-.1-.1-.2-.2-.2H39c-.1.1-.2.2-.2.3l-.8 3.2-.5-.3 1-4.1.5.3v.4z" fill="#fff"/><path d="M40.5 26.1c.1-.5.3-.8.5-1 .2-.1.4-.1.6.1.3.2.5.5.5.9 0 .3-.1.6-.1.9l-.2.8-1-.6-.2.8c-.1.2-.1.5-.1.7 0 .1.1.2.2.3.1.1.2.1.2 0 .1-.1.1-.2.1-.3l.1-.3.1-.3.5.3v.2l-.3.9c-.1.1-.2.2-.3.2-.1 0-.3 0-.4-.1-.1-.1-.3-.2-.4-.3-.1-.1-.1-.2-.2-.3 0-.1-.1-.3 0-.5 0-.3.1-.6.1-.9l.3-1.5zm1 .5c.1-.2.1-.4.1-.5v-.2c0-.1-.1-.1-.1-.2-.1-.1-.2-.1-.3.1-.1.2-.2.4-.2.5l-.1.5.6.3v-.5z" fill="#fff"/></svg>