<svg xmlns="http://www.w3.org/2000/svg" viewBox="-0.059999942779541016 0 55.02000045776367 183.04998779296875"><title>Depositphotos_27317021_01</title><g data-name="Layer 2"><path d="M53.68 176.7c1.06-1.41 1.28-8.08 1.2-16.18 0-.93-1.17-1.63-1.2-2.65-.48-16.75-1-42.05-1.63-55.54 0-.88.86-1.9.84-2.7-.08-2.65-.1-6.52-.13-7.83-.13-4.91-5.57-12.07-5.57-17.78A20.49 20.49 0 0 1 51 60.76c.75-1.06.4-24.41-1.16-31.1-2.15-9.23-14.09-14.54-14.09-14.54H19.12S7.18 20.43 5 29.66c-1.56 6.69-1.92 30-1.16 31.1A20.49 20.49 0 0 1 7.71 74c0 5.71-5.44 12.87-5.57 17.78 0 1.31-.05 5.18-.13 7.83 0 .8.88 1.83.84 2.7-.65 13.48-1.15 38.79-1.63 55.54 0 1-1.18 1.72-1.2 2.65-.08 8.1.14 14.77 1.2 16.18 3.58 4.78 19.48 6.37 26.23 6.37s22.65-1.57 26.23-6.35z" fill="#e6e1ca"/><path fill="#dedace" d="M19.72 7.96h15.46v7.16H19.72z"/><path fill="#352f18" d="M15.4 0h24.08v13.13H15.4z"/><path d="M17.65 38.84a2.6 2.6 0 0 0-2.16-2.56 1.9 1.9 0 0 0-2.15 2v18a2.65 2.65 0 0 0 2.15 2.62 1.94 1.94 0 0 0 2.16-2.06z" fill="#dedace"/><path d="M8.54 37.43c0-1.28-.65-2.45-1.45-2.62-.8-.18-1.44.7-1.44 2v18c0 1.28.65 2.47 1.44 2.64.8.18 1.45-.72 1.45-2z" fill="#dedace"/><path d="M49.17 36.78c0-1.28-.65-2.15-1.44-2-.8.18-1.45 1.35-1.45 2.62v18c0 1.28.65 2.18 1.45 2 .8-.18 1.44-1.37 1.44-2.64z" fill="#dedace"/><path d="M29.86 39.32A2.21 2.21 0 0 0 27.69 37a2.23 2.23 0 0 0-2.17 2.29v18a2.26 2.26 0 0 0 2.17 2.33 2.28 2.28 0 0 0 2.17-2.34z" fill="#dedace"/><path d="M42.05 38.2a1.89 1.89 0 0 0-2.15-2 2.61 2.61 0 0 0-2.16 2.58v18a1.93 1.93 0 0 0 2.16 2 2.67 2.67 0 0 0 2.15-2.63z" fill="#dedace"/><path d="M7.1 34.8a1 1 0 0 0-1 .42 2.67 2.67 0 0 1 1.4 2.61v18A2.61 2.61 0 0 1 7 57.4h.06c.8.18 1.45-.72 1.45-2v-18c.03-1.25-.62-2.4-1.41-2.6zm8.39 1.47a1.85 1.85 0 0 0-1.42.39 2.15 2.15 0 0 1 .37 0 2.6 2.6 0 0 1 2.16 2.56v18a2.1 2.1 0 0 1-.77 1.67 2 2 0 0 0 1.81-2.07v-18a2.6 2.6 0 0 0-2.15-2.54zm24.41-.07a2.31 2.31 0 0 0-1 .39 1.89 1.89 0 0 1 2.1 2v18a2.77 2.77 0 0 1-1.18 2.23h.08a2.67 2.67 0 0 0 2.15-2.63v-18a1.89 1.89 0 0 0-2.15-1.98zm-12.21.8a2.1 2.1 0 0 0-1.25.42h.2a2.21 2.21 0 0 1 2.17 2.28v18a2.4 2.4 0 0 1-.94 1.92 2.28 2.28 0 0 0 2-2.32v-18a2.21 2.21 0 0 0-2.18-2.3zm20-2.24a1.37 1.37 0 0 0-.66.4c.61.14 1.05.91 1.05 2v18a3.35 3.35 0 0 1-.79 2.24.86.86 0 0 0 .39 0c.8-.18 1.44-1.37 1.44-2.64v-18c.05-1.25-.6-2.13-1.4-1.96z" fill="#fff"/><path d="M12.58 92.36l2.28.27 2.39.2c1.62.15 3.3.21 5 .28s3.44 0 5.18.07l5.18-.18c1.7-.1 3.38-.24 5-.36l4.66-.53c1.48-.17 2.87-.43 4.15-.63s2.46-.4 3.49-.64l2.65-.57c0-.1 0-.2-.06-.31l-2.68.29c-1 .13-2.23.2-3.52.32s-2.68.26-4.15.36l-4.64.32c-1.61.08-3.27.13-5 .22l-5.12.12h-5.12c-1.69 0-3.36 0-5-.14L15 91.33l-2.27-.15c-1.48-.08-2.86-.23-4.15-.33s-2.46-.24-3.5-.37-1.93-.25-2.68-.36c0 .1 0 .21-.06.3 1.47.37 3.57.88 6.12 1.33 1.25.25 2.64.46 4.12.61z" fill="#fff"/><path d="M12.55 102.94l2.28.3c.78.09 1.58.15 2.39.22 1.63.16 3.31.24 5 .32s3.45.06 5.19.08 3.48-.11 5.19-.19 3.39-.26 5-.4 3.18-.39 4.66-.59 2.86-.48 4.15-.7 2.45-.45 3.48-.71 1.92-.47 2.66-.65a4.43 4.43 0 0 0 .19-.48h-.28c-.75.05-1.67.12-2.72.21s-2.23.15-3.52.25-2.68.21-4.16.29-3 .14-4.63.26-3.27.09-5 .19l-5.11.1h-5.11c-1.69 0-3.35 0-5-.11-.8 0-1.59-.07-2.37-.08l-2.26-.12c-1.47-.07-2.86-.19-4.15-.26s-2.46-.19-3.51-.3l-2.71-.28H2c.06.17.14.35.22.52 1.45.43 3.52 1 6 1.44 1.46.23 2.85.52 4.33.69z" fill="#dedace"/><path d="M7 160.22c1.37.28 2.86.61 4.45.85l2.44.37c.84.12 1.7.19 2.57.29 1.74.21 3.55.31 5.39.4s3.71.07 5.58.1 3.74-.14 5.58-.23 3.64-.34 5.38-.51 3.41-.5 5-.74 3.06-.6 4.43-.88 2.63-.54 3.71-.87l2.27-.63a1.52 1.52 0 0 1-.09-.35l-2.3.41c-1.11.22-2.38.35-3.75.55l-2.14.3c-.74.11-1.5.23-2.3.3l-5 .53c-1.73.12-3.51.22-5.33.36l-5.51.17h-5.51c-1.82 0-3.6-.1-5.33-.26l-2.54-.24-2.43-.25c-.79-.07-1.55-.19-2.3-.28s-1.46-.18-2.14-.29c-1.37-.23-2.63-.41-3.74-.63-.85-.14-1.61-.31-2.27-.46a2.06 2.06 0 0 1-.14.34c.66.21 1.42.46 2.27.69 1.13.34 2.37.64 3.75.96z" fill="#fff"/><path d="M3.25 162.68c1.09.35 2.33.68 3.7 1s2.86.66 4.45.92l2.45.4c.84.13 1.7.2 2.57.31 1.75.22 3.56.34 5.41.44s3.72.08 5.6.12 3.75-.15 5.6-.24 3.64-.37 5.39-.54 3.41-.54 5-.8 3.06-.65 4.43-.95 2.62-.59 3.71-.94 2-.62 2.82-.87l.5-.16v-.38l-.61.08-2.9.44c-1.11.2-2.39.3-3.76.49l-2.15.26c-.74.1-1.5.21-2.3.27-1.58.14-3.25.29-5 .47s-3.51.18-5.31.33l-5.49.15h-5.49c-1.81 0-3.59-.08-5.31-.23l-2.54-.17-2.43-.21c-.79-.05-1.55-.17-2.29-.25s-1.46-.15-2.15-.25c-1.37-.21-2.63-.36-3.74-.56s-2.08-.37-2.88-.51l-.53-.13v.4l.44.17c.78.26 1.71.63 2.81.94z" fill="#dedace"/><path d="M11.44 63.23l2.44.37c.84.13 1.7.19 2.57.29 1.74.21 3.55.3 5.39.4s3.71.06 5.58.1 3.74-.14 5.58-.22 3.64-.34 5.38-.51 3.41-.5 5-.74 3.06-.6 4.43-.88c1-.21 1.92-.4 2.77-.61.15-.22.29-.45.45-.67v-.11c-1 .19-2.18.31-3.42.5l-2.14.3c-.74.11-1.5.23-2.3.3l-5 .53c-1.73.12-3.51.22-5.33.37l-5.51.17h-5.51c-1.82 0-3.6-.1-5.33-.26L14 62.3l-2.43-.24c-.79-.07-1.55-.19-2.3-.28s-1.46-.18-2.14-.29C6 61.3 5 61.15 4 61c.19.27.38.55.55.82.76.2 1.57.39 2.43.59 1.38.26 2.87.59 4.46.82z" fill="#fff"/><path d="M11.4 66.78l2.45.4c.84.13 1.7.2 2.57.31 1.75.21 3.56.34 5.41.44s3.72.07 5.6.12 3.75-.15 5.6-.24 3.64-.37 5.39-.54 3.41-.54 5-.8 3.06-.65 4.43-.95l.67-.15c.18-.45.37-.91.59-1.38l-1.51.18-2.15.26c-.74.1-1.5.21-2.3.27-1.58.14-3.25.29-5 .47s-3.51.18-5.31.33l-5.49.16h-5.49c-1.81 0-3.59-.07-5.31-.22l-2.54-.17-2.37-.27c-.79-.06-1.55-.17-2.29-.25s-1.46-.15-2.15-.25l-1.26-.18c.22.48.41 1 .58 1.42l.43.11c1.37.33 2.86.68 4.45.93z" fill="#dedace"/><path d="M11.44 30.1l2.44.37c.84.12 1.7.19 2.57.29 1.74.21 3.55.3 5.39.4s3.71.06 5.58.1 3.74-.14 5.58-.26 3.64-.34 5.38-.5 3.41-.5 5-.75 3.06-.6 4.43-.88l1.73-.37c-.08-.25-.17-.51-.27-.75l-1.63.25-2.14.3c-.74.11-1.5.23-2.3.3l-5 .53c-1.73.12-3.51.22-5.33.37l-5.51.17h-5.51c-1.82 0-3.6-.1-5.33-.26L14 29.17l-2.43-.25c-.79-.07-1.55-.19-2.3-.28s-1.46-.18-2.14-.29l-1.63-.26c-.09.24-.18.49-.25.75l1.75.42c1.36.28 2.85.61 4.44.84z" fill="#fff"/><path d="M11.4 33.65l2.45.4c.84.14 1.7.2 2.57.31 1.75.22 3.56.34 5.41.44s3.72.07 5.6.12 3.75-.15 5.6-.24 3.64-.37 5.39-.54 3.41-.54 5-.8 3.06-.65 4.43-.95c.85-.2 1.65-.38 2.4-.57-.06-.38-.11-.74-.17-1.08-.77.1-1.6.18-2.47.3l-2.15.27c-.74.09-1.5.21-2.3.27-1.58.14-3.25.29-5 .47s-3.51.18-5.31.33l-5.49.16h-5.49c-1.81 0-3.59-.07-5.31-.22l-2.54-.17-2.43-.21c-.79-.06-1.55-.17-2.29-.25s-1.46-.15-2.15-.25L4.76 31c-.05.34-.11.7-.16 1.08.74.21 1.52.41 2.35.62 1.37.3 2.86.7 4.45.95z" fill="#dedace"/></g></svg>