<svg xmlns="http://www.w3.org/2000/svg" viewBox="-1.510009765625 -0.11501121520996094 128.75 417.5749816894531"><defs><linearGradient id="a" x1="63.5" y1="406.74" x2="63.5" y2="234.74" gradientUnits="userSpaceOnUse"><stop offset="0" stop-color="#3d1d0d"/><stop offset=".6" stop-color="#4f2510"/><stop offset="1" stop-color="#5e2c13"/></linearGradient><linearGradient id="b" x1="19.17" y1="330.18" x2="109.69" y2="330.18" gradientUnits="userSpaceOnUse"><stop offset="0" stop-color="#dbd7c5"/><stop offset="1" stop-color="#c4c1b1"/></linearGradient></defs><title>Depositphotos_22155137_14</title><g data-name="Layer 2" style="isolation:isolate"><path d="M126.61 363.42c-.29-5.54-.79-10.93-.91-15.68-.52-20.08-1.29-40.16-1.08-60.25.31-28.9-1.35-59.29-15.32-85.27-5.63-10.47-10.57-20.46-13.46-32.06-3.29-13.21-4.74-26.87-5.59-40.43-.24-3.83-4-7.7-8.1-6.17a196 196 0 0 1-23.43 7c-7.83 1.83-15.86 2.49-23.7 4.26l-.28.09c-1.6-.81-3.87-.07-3.79 2.15a116.81 116.81 0 0 1-5.67 39.06c-2.34 7.34-6.33 14.12-10.05 20.82a201.17 201.17 0 0 0-10 20.73c-5.94 14.23-5.49 29.64-4.9 44.7 1 25.05.81 53.79 1.28 78.8.27 14.34-.1 29 1.91 43.22 3.4 24 35.5 30.58 55.7 31.8 20.71 1.25 48.17-2.45 61.6-21.11 6.09-8.46 6.38-20.38 5.79-31.66z" fill="#763919"/><path d="M126.61 363.42c-.29-5.54-.79-10.93-.91-15.68-.52-20.08-.56-40.16-1.08-60.25-2.18-84.42-9.91-70.2-66.23-71.07-44-.68-59.9-.82-58.07 46 1 25 .8 53.76 1.28 78.75.26 13.59 0 27.46 1.64 41 .35 1.2.7 2.4 1.07 3.59a52.32 52.32 0 0 0 6.45 13.52c11.4 12.08 33.28 16 48.45 16.93 20.71 1.25 48.17-2.45 61.6-21.11 6.1-8.48 6.39-20.4 5.8-31.68z" fill="url(#a)"/><path d="M118.25 387.86c-5.4-14.8-32.68-17.57-47.33-18-9.84-.29-19.48.06-29.15 2.15-10.85 2.34-26.62 9.38-28 22a14.32 14.32 0 0 0 2.32 9.8c12 8.53 30.06 11.56 43.11 12.35 19 1.15 43.79-1.9 58.09-16.9a16.73 16.73 0 0 0-.43-6.89 3.81 3.81 0 0 0 1.39-4.51z" style="mix-blend-mode:multiply" fill="#2d1b10" opacity=".5"/><path d="M69.15 224.8a44.28 44.28 0 0 1-8.68-.78c.2 6.67.39 13.88.58 21.74.6 24.05 1.67 36.54 1.76 54.8.08 17.58.6 34.5.44 54.88 0 5.45 8.33 5.44 8.44 0 .26-12.38-1-38.58-1.16-56.82-.11-16.81-1.04-59.84-1.38-73.82z" style="mix-blend-mode:multiply" fill="#2d1b10" opacity=".5"/><path d="M111 219.6c-1.48-5-14.89-8.6-29.83-9.3-6.26-.29-12.61-.27-19 0-7.08 0-14.2.37-21.25.65-7.83.31-35.11 4-28.25 12.69 9.19 11.67 35.76 11.7 48.18 12.1a132 132 0 0 0 23.75-1.13c16.34-2.43 28.02-9.51 26.4-15.01z" fill="#a1552f"/><path d="M70.18 134.93c-4.43 0-17.49-.52-20.37 3.61-3.45 5 1.77 7.86 5.83 27.83 2.92 14.37 4 31.31 4.76 55.5a5 5 0 0 0 2.31 1.5c.68.1 1.36.18 2 .24a9.22 9.22 0 0 0 4.33-1.51v-1.07c-.28-9.14-.64-18.29-.84-27.43-.4-18.36 3.48-42.7 9-54.7 1.06-2.35-4.44-3.98-7.02-3.97z" fill="#693216"/><path d="M109.75 222.66c-3.51.24-6.46 2.31-9.6 3.74a75.24 75.24 0 0 1-13.22 4.5A144.84 144.84 0 0 1 62 234.64a93.33 93.33 0 0 1-25.14-1.69 69.32 69.32 0 0 1-11.14-3.39c-3.84-1.5-7.2-4.06-11.16-5.24-.57-.17-1.2.48-.84 1 3.9 5.79 12.81 8.36 19.25 10.2 8.85 2.53 18.24 3.27 27.42 3.19a105.9 105.9 0 0 0 26.16-3.15 127.82 127.82 0 0 0 13.76-4.29c3.74-1.43 8.5-2.92 10.58-6.52a1.38 1.38 0 0 0-1.14-2.09z" fill="#b86a45"/><path d="M119.06 306.17c.18 12.22-1.09 24.15-1.12 35.3 0 13.13 2.6 29.19-1.17 41.93-5.29 17.89-32.15 26-48.84 26.47-11.94.33-28.29-3.4-39.47-8.08-10.87-4.54-18-13.34-19.61-25.11-2.7-19.4-2.5-40.56-1.64-60.09.75-17-.1-34.13.26-51.28.28-13.45-1.24-28.91 3.14-41.8 4.06-11.94 12.24-21.9 16.83-33.6s8.14-24.45 8.88-37.15c0-.77.33-22.43-4.73-17.49a2.26 2.26 0 0 0-.66 1.78 116.81 116.81 0 0 1-5.67 39.06c-2.34 7.34-6.33 14.12-10.05 20.82a201.17 201.17 0 0 0-10 20.73C-.71 231.9-.26 247.31.33 262.37c1 25.05.81 53.79 1.28 78.8.27 14.34-.1 29 1.91 43.22 3.4 24 35.5 30.58 55.7 31.8 20.71 1.25 48.17-2.45 61.6-21.11 6.09-8.46 6.38-20.38 5.79-31.67-.29-5.54-.79-10.93-.91-15.68-.52-20.08-1.29-40.16-1.08-60.25.31-28.9-1.35-59.29-15.32-85.27-5.63-10.47-10.57-20.46-13.46-32.06-3.06-12.26-4.51-24.93-5.39-37.53-8.07-7-3.49 13.81-3.14 16.43 1.24 9.53 2.35 19.09 4.07 28.55 2.54 14.06 8.5 23.76 14.93 36.18 12.21 23.61 12.01 42.89 12.75 92.39z" fill="#b86a45" opacity=".8"/><path d="M109.69 268.83c-1-3.52-5.53-4.62-9-3.83a193.57 193.57 0 0 1-37.31 5.09 185.17 185.17 0 0 1-19.11-.59c-6.35-.48-13.68-3.94-19.84-2-3.25 1-3.42 4.87-.88 6.75 5.13 3.78 12.83 4.39 19 5.13a185.93 185.93 0 0 0 21 1.25 170 170 0 0 0 33.58-3.55c.44 5.28 0 10.75.29 15.95.49 8.58.28 17.17.26 25.76 0 9-.08 18.07-.49 27.09-.31 6.88-.27 13.81-3 20.23-3.17 7.47 4.75 14.13 11.26 8.69 6-5 6.06-14.69 6.42-21.89.57-10.08.05-76.01-2.18-84.08z" style="mix-blend-mode:multiply" fill="#2d1b10"/><path d="M109 294.72c-.53-8.26 1.54-22.48-3.49-24.91-6.32-3.05-21.61 1.91-28.26 2.5a188.24 188.24 0 0 1-37.25-.84c-11.15-1.23-21.38-7.64-20.54 6.79a107.25 107.25 0 0 1-.24 10.77c-.36 7.94 1.06 52.39 1.58 66.76.49 13.45.08 22.58 13.93 28.68A88.75 88.75 0 0 0 60.46 391c8.71 1 19.12.55 27.56-1.92 21.75-6.37 21.75-14.87 21.66-38.66-.04-9.17-.06-46.33-.68-55.7z" fill="url(#b)"/><path d="M109 294.72c-.53-8.26 1.54-22.48-3.49-24.91-6.32-3.05-21.61 1.91-28.26 2.5a188.24 188.24 0 0 1-37.25-.84c-11.15-1.23-21.38-7.64-20.54 6.79a107.25 107.25 0 0 1-.24 10.77c-.36 7.94 1.06 52.39 1.58 66.76.49 13.45.08 22.58 13.93 28.68A88.75 88.75 0 0 0 60.46 391c8.71 1 19.12.55 27.56-1.92 21.75-6.37 21.75-14.87 21.66-38.66-.04-9.17-.06-46.33-.68-55.7z" style="mix-blend-mode:overlay" fill="#8f3b01" opacity=".3"/><path d="M106.17 322.57c0-10.82 1.13-48.46-5.18-49.71a2.46 2.46 0 0 0-2.72 1.14c-1 1.87-1.47 12.89-1.67 16.22-.6 10.1.62 74.79.66 75.77-1.41 1-2.61 2.29-4.14 3.34a31.93 31.93 0 0 1-8.8 3.95c-7 2.17-14.46 2.51-21.78 2.2a71.56 71.56 0 0 1-17.9-3c-3.12-1-5.74-3-8.49-4.54-.87-8.33-.59-16.78-1.13-25.14-.64-10.34-2.65-48.8-3.13-57.8-.09-1.6-.89-13.39-5.12-10.11-1.66 1.29-1.4 4-1.61 5.91-.38 3.42-.52 6.92-.59 10.36-.18 8.83-.16 17.61.35 26.43.52 9 1.23 18.06 1.78 27.09.49 8.14.11 16.35 1 24.46a4.58 4.58 0 0 0 .45 1.51c.83 4.75 5.93 7.76 10.17 9.79 6.86 3.28 14.87 4.12 22.35 4.75a74.59 74.59 0 0 0 27.95-2.92c5.49-1.68 14.76-5.63 16.44-11.86 3.29-6.89 1.1-37 1.11-47.84zm-75.11 15a1 1 0 0 1-1.57-.2c-.82-1.52-1.36-7.81-.13-9.15.63-.69 1.16-.68 1.57-.24 1.37 1.48 1.49 7.86.13 9.58zm-4.79-53a19.16 19.16 0 0 1 .56-4.3c.27-.84.68-1.47 1.31-1.5 3-.17 2.3 11 1.42 12.63a1 1 0 0 1-1.57.2c-2.11-1.67-1.87-4.71-1.72-7.07zm.94 11.43a2.19 2.19 0 0 1 1.42-.29c3.73.31.32 6-1.75 2.63a1.68 1.68 0 0 1 .33-2.34zm.51 8.44a1 1 0 0 1 1.06-.67.81.81 0 0 1 1.1.43c1.28 2.79 1.69 7.17-.32 9.71a1 1 0 0 1-1.57-.2c-1.61-2.8-1.26-6.35-.27-9.29zm0 16.55a2.57 2.57 0 0 1 0-.65v-.09a1.79 1.79 0 0 1 0-.22v-.16a1.58 1.58 0 0 1 0-.18 1.76 1.76 0 0 1 .87-1.18 1.4 1.4 0 0 1 .52-.13 1.56 1.56 0 0 1 1.8.55 2.24 2.24 0 0 1 .12 2.28c-.66 1.22-2.94 1.44-3.31-.21zm.89 22.11a1.6 1.6 0 0 1 1.39-1.19c2.8-.56 3.33 2.93.66 3.75a1 1 0 0 1-1-.26 2.74 2.74 0 0 1-1.04-2.32zm1.54 6.77a1 1 0 0 1 1.73 0 12.64 12.64 0 0 1 1 6.49c-.29 3.94-2.53 5.41-3.3 1-.06-.35-.11-.75-.15-1.17a14.08 14.08 0 0 1 .73-6.34zm-.33 17c-2.12-4.15 5.94-3.84 2.77.54-.59.89-2.26.43-2.76-.55zm15.36 10.86c-2.73 1.64-6.08.1-8.42-1.53-1.17-.82-4.63-4.19-3.12-5.4 2-1.63 10.74 3.87 11.9 5.56a1 1 0 0 1-.35 1.36zm4.27 3.09c-1.22-.57-1.87-2.74-.68-3.42 4.96-2.84 5.06 5.46.69 3.41zm27.55-.6c-3.82 2.3-8.84 2.84-13.22 2.53-1.77-.13-4.72-.26-6.23-1.32-.67-.47-3.09-2.79-.73-2.9 3.17-.14 6.37.6 9.53.25 3.5-.39 6.89-1 10.4-.37a1 1 0 0 1 .25 1.81zm7.14-1.48a2.86 2.86 0 0 1-1.62 1.78c-.83.4-2.11.59-2.58-.45a2.32 2.32 0 0 1 .1-2 1.84 1.84 0 0 1 1.52-1h.11c1.2-.18 2.73.15 2.49 1.67zm13.49-6c-.33 2.44-2.66 4.09-4.71 5.11-1.77.88-3.94 1.75-5.94 1.06-4.43-1.52 7.86-7.24 9.68-7.44.75-.03 1.07.74.99 1.31zm4.84-47c-.75.37-1.94.56-2.44-.25-3-4.79 3.19-4.76 3.92-2.75a2.4 2.4 0 0 1-1.46 3.08zm.53-26.35a1.91 1.91 0 0 1-2.65.24 2.61 2.61 0 0 1-1.13-2.41 2.17 2.17 0 0 1 3.81-1.31 2.54 2.54 0 0 1-.03 3.56zm-3.14-21.38c1-3.13 2.88 0 3.18 4 .19 2.58.83 6.09-1.71 7.75a1 1 0 0 1-1.47-.6c-1.34-3.16-1-7.7.03-11.07zm-.49 30.2a14.74 14.74 0 0 1 1-2.54c.59-1.06 1.31-1.74 1.87-.32 1.32 3.32 1.76 8.44-.76 11.3a1 1 0 0 1-1.41 0c-1.81-2.28-1.47-5.65-.67-8.36zm3 63.11a2.43 2.43 0 0 1-2.38.72 2 2 0 0 1-1.4-1.86 2.61 2.61 0 0 1 1.41-2.28 1.89 1.89 0 0 1 2.23.41.92.92 0 0 1 .26.44 1.94 1.94 0 0 1-.1 2.64zm.49-8.54a1 1 0 0 1-1.37.36c-2.14-1.63-1.91-4.4-1.57-6.75.26-1.82 1.45-6.34 2.93-4 1.34 2.12 1.47 8.48.03 10.47zM100 344.16a1.63 1.63 0 0 1 1.74-.87 2.4 2.4 0 0 1 1 .35h.08a2.54 2.54 0 0 1 .88 1c.76 1.51-1 2.65-2.37 2.34a2 2 0 0 1-1.33-2.82zm2.41-3.78a1 1 0 0 1-1.26-.24 1.18 1.18 0 0 1-.28-.29 4.61 4.61 0 0 1-.48-1.23 9.59 9.59 0 0 1-.5-2.93c-.26-3 .11-6.48 2.13-6.42s2.44 3.08 2.43 4.67c-.05 2.06-.17 5.22-2.09 6.44z" style="mix-blend-mode:multiply" fill="#464b48" opacity=".9"/><g style="mix-blend-mode:multiply" fill="#464b48"><path d="M46.32 312.37c-.34-1.88-1.19-7.12-4.18-6.69s-3.45 4.69-3.67 7a35.84 35.84 0 0 0-.15 4.51.65.65 0 0 0 0 .48 43.77 43.77 0 0 0 1.56 9.62c.09.33.66.27.61-.08a60.58 60.58 0 0 1-.57-8.75c.27 0 .55 0 .81.06a10.08 10.08 0 0 0 3-.29 1.35 1.35 0 0 0-.72-2.6l-2.6.42-.39.08a33.35 33.35 0 0 1 1-6.25l2.15-1.29a14.3 14.3 0 0 1 1 3.13 35.92 35.92 0 0 1 .6 5.63c.24 3.3.76 6.56 1 9.86.09 1.51 2.46 1.5 2.34 0-.5-4.88-.92-10.01-1.79-14.84z" style="mix-blend-mode:multiply" opacity=".9"/><path d="M60.55 325.65c-.75-3.2-2.3-7.54-5.32-9a5.46 5.46 0 0 0 1.54-4.14c-.06-2-1.44-4-3.51-4.12-5.35-.22-3 15.26-1.86 17.84.16.37.69.22.79-.1.72-2.26.28-4.91 0-7.41h.1c3.77-.77 5.15 4.93 5.72 7.65.34 1.63 2.93.95 2.54-.72zm-8.24-13q0-1.66 2-1.55c1.55 2.21-.58 3.94-2.34 4.94 0-.59 0-1.18.08-1.77z"/><path d="M63.86 311.11a.92.92 0 0 0-.65.41 2.62 2.62 0 0 0-2.39.89 5.38 5.38 0 0 0-1.41 3.84c0 2.33 2.22 4.8 4.69 4.11 4-1.11 4.97-9.99-.24-9.25zm.89 4.11a3.9 3.9 0 0 1-1.15 2.48c-.28.22-.45.28-.64.19a2.22 2.22 0 0 1-1.14-1.46 3.83 3.83 0 0 1 1.38-3.54 1.07 1.07 0 0 0 .38.41c.98.57 1.23.7 1.17 1.92z"/><path d="M79.73 309.2a1 1 0 0 0-1.61-.56 18.89 18.89 0 0 0-3.46 5.41c-1.09-1.8-1.33-4.14-3.58-5a.51.51 0 0 0-.31 0 .31.31 0 0 0-.39.23v.13a.49.49 0 0 0 0 .14c-.79 2.87-.48 6.11-.41 9.05.06 2.58-.26 6 1.06 8.29a.51.51 0 0 0 .93 0c.72-2.55 0-5.47-.12-8.1-.06-1.94.07-4-.07-6a10.1 10.1 0 0 0 2.32 4.1c.48.45 1.44.62 1.82-.09.71-1.32 1.3-2.72 2-4-.15 4.76-1.09 9.56-.34 14.26a1.13 1.13 0 0 0 2.23-.13c.01-5.93.47-11.93-.07-17.73z"/><path d="M90.2 311.49c-.16-1.32-1.48-6.18-3.84-5.25-2.53 1-3.35 3.94-3.69 6.4a34.35 34.35 0 0 0 0 6.19c.13 2.6-.25 5.16.46 7.69a.4.4 0 0 0 .78-.11c-.11-2.88.12-5.75.07-8.63a.35.35 0 0 0 .22.21c.28.09.53.26.82.34a5 5 0 0 0 1 .07c.69 0 1.38.15 2.07.21a32 32 0 0 0 1.15 7.27 1 1 0 0 0 1.94-.26c.46-4.43-.46-9.67-.98-14.13zm-4.1 4.83a3.55 3.55 0 0 0-1.25.37 6.42 6.42 0 0 0-.76.72.3.3 0 0 0-.07.12c-.07-3.23-.14-6.63 2.07-9.24 1.49-1.77 2 4.83 2 4.33.08 1.18 0 2.37 0 3.55a8.06 8.06 0 0 0-1.99.15z"/><path d="M53.24 343.41a41.23 41.23 0 0 0-2.13 9.1c-.33 2.2-.11 4.33-.45 6.44-.93-2.05-1.18-4.53-2.06-6.56a1.08 1.08 0 0 0-1.86-.05 23.89 23.89 0 0 0-1.7 3.91c-.73-3.81-1-7.7-2.14-11.41a.38.38 0 0 0-.74.08 65.35 65.35 0 0 0 1.55 15.34 1.12 1.12 0 0 0 2.14.06c.58-1.51 1-3.07 1.64-4.57.64 2.37 1 4.79 2.76 6.7a1.15 1.15 0 0 0 1.81-.18 17.25 17.25 0 0 0 1.37-6.67 44 44 0 0 1 2.16-11.5c.47-1.5-1.78-2.1-2.35-.69z"/><path d="M64.72 354c-.09-2.56-.26-5.92-2.45-7.62-2.36-1.83-4.42 1.54-5.05 3.32-1.23 3.43-1.56 8.21.16 11.47a.43.43 0 0 0 .79-.19 32.53 32.53 0 0 0 .2-4.76 4.53 4.53 0 0 0 1.21.3 8.32 8.32 0 0 0 1.51-.05 2.26 2.26 0 0 0 1.32-.38v.73c-.11 1.42-.86 3.67.09 4.89a1.09 1.09 0 0 0 1.33.21c1.88-1.32.95-5.98.89-7.92zm-4.81-.12a6.64 6.64 0 0 0-1.46.3 15.32 15.32 0 0 1 .19-1.61c.34-1.84 2.15-6.71 3.34-2.69a14.71 14.71 0 0 1 .51 4.24c-.68-.61-1.76-.32-2.59-.24z"/><path d="M79.71 358.8c-1.09-.79-2.46.14-3.66-.65s-1.7-3.08-1.78-4.52v-.21a8.12 8.12 0 0 0 4.65-2.42c1-1 1.56-3 .44-4.08-2.71-2.69-6.14.28-7.1 3.05a10.42 10.42 0 0 0 1.26 9.03c1.24 1.63 6 3.61 6.5.34a.66.66 0 0 0-.31-.54zm-2.63-10.53c1.74-.13-.86 2.23-1 2.33a13.48 13.48 0 0 1-1.68 1 6.27 6.27 0 0 1 .89-2.3 2.45 2.45 0 0 1 1.79-1.03z"/><path d="M91.7 348.86c-.87-2.06-2.37-4-4.81-3.9a3.23 3.23 0 0 0-2.44 1.38 9.76 9.76 0 0 0-.33-1.62c-.13-.44-.68-.31-.86 0-1.28 2.14-1.09 4.89-1.1 7.33 0 3.18-.14 6.37-.06 9.54 0 1.33 2.11 1.26 2.29 0a51.79 51.79 0 0 0 .13-8.67c0-1.26 0-2.57.07-3.88.7-1.08 1.74-2.47 2.49-1.85a5.66 5.66 0 0 1 1 1.9c.5 1.08.71 1.91 2 2.18a1.35 1.35 0 0 0 1.26-.51l.14-.17a1.74 1.74 0 0 0 .22-1.73z"/><path d="M85.85 332.71c-11.52-.59-23.26 1.59-34.83 1.13a.18.18 0 0 0-.09.33C55.52 336.63 62 336 67.12 336c-.33 3.26 0 6.7 0 10 0 3.7-.71 16.45 1.25 19.71a.54.54 0 0 0 1-.13c.81-3.56 0-15.92-.13-19.58-.13-3.23.11-6.76-.7-9.94 7.37-.67 14.11-.83 17.83-1.47 1-.24.36-1.83-.52-1.88z"/></g><path d="M57.84 281.69c-5.34-3.73-13-1.8-15.32 4.26-1.78 4.64 2.26 11.71 7.76 9.59a5.33 5.33 0 0 0 3.27-5.08c-.09-2.21-2.4-3.58-4.17-2.09a1.62 1.62 0 0 0-.43 1.62c.68 2-.79 2.69-2.58 1-2.61-2.51.72-6.65 3.12-7.48 8.31-2.88 13 7.31 12.6 13.83a.48.48 0 0 0 .9.24c3.09-5.58-.43-12.58-5.15-15.89z" style="mix-blend-mode:multiply" fill="#464b48"/><path d="M84.53 281.76a10.2 10.2 0 0 0-14.78 1.15c-2.91 3.39-4.81 10.27-2.73 14.45.31.63 1.11.24 1.18-.32.7-5.42.27-11.28 5.84-14.38 3.26-1.81 8.13 0 9.19 3.61 1.17 3.93-4.65 4.41-3.65 1.27.69-2.15-2-3.21-3.45-2-4.53 3.69 1 9.21 5.33 9.15 3 0 4.94-2.62 6-5.16 1.11-2.88-.91-5.91-2.93-7.77z" style="mix-blend-mode:multiply" fill="#464b48"/><path d="M125.7 347.74c-.52-20.08-1.29-40.16-1.08-60.25.31-28.9-1.35-59.29-15.32-85.27-5.63-10.47-10.57-20.46-13.46-32.06-3.17-12.72-4.62-25.86-5.49-38.92-6.1 6.83-14.57 8.4-22.1 12.95-6.71-2.62-14.31-3.78-20.83-5.11-35-7.14-11.08 13.69 8.47 18.32 19.4 4.6 15.47 6.73 22.11 26.34 11.11 32.66 13 96.49 14 145.96.55 28.05.58 56-1.49 84 12-3 23.18-8.65 30.35-18.61 6.09-8.46 6.38-20.38 5.79-31.67-.33-5.54-.83-10.93-.95-15.68z" style="mix-blend-mode:multiply" fill="#3d1d0d" opacity=".3"/><path d="M90.61 134.72a28.45 28.45 0 0 1-6.36 3 40.23 40.23 0 0 1-5.39 1.28 105.44 105.44 0 0 0-10.61 5.16c-5.64-2.2-11.9-3.37-17.62-4.47-.9-.08-1.81-.16-2.71-.25a26.23 26.23 0 0 1-5.15-1.22c-8.43-1.3-12.28-.49-13.06 1.4a3.3 3.3 0 0 0 .5.85c3.37 4.16 9.83 6.37 14.87 7.58 7.1 1.71 14.69 2.09 22 2.14 6.74 0 16.67-.4 24.7-3.37-.5-4.02-.87-8.06-1.17-12.1z" style="mix-blend-mode:multiply" fill="#3d1d0d" opacity=".3"/><path d="M101.7 104.85c-2.85.62-5.18-1.85-6 .78a31.32 31.32 0 0 0-1 5c-5.91-7.35-26.16-.65-32.8.08a67 67 0 0 1-21.52-1.29 39.85 39.85 0 0 1-8.19-2.36c-2.26-1-4.12-3-6.63-3.4a5.31 5.31 0 0 0-2.48.12c0-.07-.07-.15-.12-.21a3.59 3.59 0 0 0-6.13 0c-2 3.36-1.32 7.41-1.14 11.19.2 4.13-.05 10.35 1.87 15.79 3.09 9.06 10.71 10.55 16.93 12.83 7.42 2.73 16 2.57 23.77 2.66 11.14.13 17.51-1 25.14-3.18 7.37-2.11 18.65-6.93 19.09-16 .06-.53 2.44-22.72-.79-22.01z" fill="#211007"/><path d="M37.05 122.82a39 39 0 0 0-1.84-13.89 2.94 2.94 0 0 0-.56-.93 22.84 22.84 0 0 1-2.42-.91c-.2-.09-.39-.2-.59-.3a3 3 0 0 0-.32 0v-.23c-1.86-1.06-3.54-2.54-5.68-2.9h-.21a3.37 3.37 0 0 0-.95 2.08c0 .49-.1 1-.16 1.61a1 1 0 0 0-1.4.37c-1.32 3.1-.75 7-.8 10.33-.07 4.48.45 8.61 2.68 12.56 2 3.46 5.57 7 9.42 3.87 2.87-2.39 2.78-8.33 2.83-11.66z" fill="#fff" opacity=".3"/><path d="M62.17 117.82a4.85 4.85 0 0 0 .56-.95c-3.8-4.47-15.17-1.87-20.75-2.19-7.77-.45-16.19-1.79-22.91-5.94a.59.59 0 0 0-.71.92c5.46 5.28 11.71 7.52 19.19 8.44 4.94.61 20.59 2.05 23.45.82a3.14 3.14 0 0 0 1.17-1.1z" fill="#fff" opacity=".3"/><path d="M93.7 97.56c-5.3-1.77-13.77-4.27-21-4-8.16.28-12.29-.07-20.73 1.15-6.54-1.4-21.73.22-33.14 4.69-3.18 1.25-4.18 5.87-2 8.76 3.59 4.76 11.83 5.64 19.34 7a131.55 131.55 0 0 0 28 1.75c10.12-.21 29.55-.52 37-8.76 3.83-4.15-1.24-8.51-7.47-10.59z" fill="#542812"/><path d="M77.53 84.14c-.82-11.26-1.53-22.38-3.12-33.58C73 40.57 71.9 30.76 69.46 21c-1.62-6.52-3.18-14.36-8-19.4A5.45 5.45 0 0 0 53 2.66c-3.65 6.51-4.13 13.62-5.43 20.82C46 32 44.87 40.63 44 49.26c-.89 8.95-1.5 17.95-1.73 26.93-.12 4.5-.08 9 0 13.52.08 3.19-.24 6.28.75 9a4.67 4.67 0 0 0 .58 3c5.11 9.24 28.5 8.41 32.07-2.24 3.4-3.63 2.19-10.87 1.86-15.33z" fill="#211007"/><path d="M120.85 266.82c-.91-19.46-4.87-38.1-13.33-55.68-4.33-9-9.56-17.81-12.22-27.5-2.75-10.06-2.91-20.31-7.75-29.73-1.19-2.31-5-1.26-4.91 1.33 1.47 28.48 15.5 53.91 20.78 81.56 5.44 28.5 6.6 59 6.49 87.94 0 10.32.22 20.64.17 31q0 7.74-.37 15.48c-.23 5.27-1.7 10.87.89 15.7 1.2 2.24 5 3 6.68.86 3.09-3.83 3-7.9 3.27-12.69.29-5.15.37-10.32.41-15.48.08-11-.24-21.94-.31-32.9-.13-19.99 1.12-39.94.2-59.89z" style="mix-blend-mode:multiply" fill="#3d1d0d" opacity=".3"/><path d="M44.93 159.62c-1.21-2.52-4.49-3.54-5.37 1.46-1.43 8.08-2.91 16.26-6 23.61-3.71 8.88-8.79 17.14-12.6 26-12.13 28.08-7.35 46.76-10.21 122.57-.37 9.82-1.45 48.53 9.95 53.56 23.53 10.4 10.46-72.29 10.18-80.88-.65-19.69 0-59.79 5-78.77 2.53-9.48 4.8-19.13 7.12-28.67 1.39-5.5 5.28-31.9 1.93-38.88z" fill="#dbd7c5" opacity=".3"/><path d="M31.1 382.66c8.25-16.73 0-70-.2-76.76-.3-9.06-.33-22.44.22-36.1-7.11-1.51-12.26-1.95-11.65 8.46a107.25 107.25 0 0 1-.24 10.77c-.36 7.94 1.06 52.39 1.58 66.76.44 12.21.19 20.82 10.29 26.87z" fill="#fff" opacity=".5"/><path d="M34.74 190.21c-8.05 9.64-12.92 23.49-16 35.52-1.69 6.64-2.29 13.58-2.81 20.39-.48 6.28-1.58 13.49 1 19.4a1.55 1.55 0 0 0 2.67 0c2.16-4.95 1.47-10.36 1.59-15.66a127.29 127.29 0 0 1 2-21.06c1.26-6.59 3.56-12.9 5.85-19.19s5.51-12.24 7-18.68c.11-.67-.79-1.33-1.3-.72z" fill="#fff" opacity=".3"/><path d="M55.92 30c.75-7.56 2.46-15.16 2.56-22.76 0-2.07-2.68-2.15-3.36-.46-2.84 7-3.86 15-5.15 22.41C48.61 37.1 47.69 45 47.1 53c-.58 7.76-.79 15.54-.7 23.33.08 7.38-.62 16.3 2.09 23.28 1.35 3.48 6.55 3.12 6.68-.9.11-3.67-.72-7.34-1-11s-.28-7.59-.37-11.38c-.2-7.77-.05-15.56.33-23.33s1.04-15.34 1.79-23z" fill="#542812"/><path d="M56.93 6.91a.94.94 0 0 0-1.72-.2c-1.86 4.24-2 9.48-3 14-1.25 6-2.27 12-3 18.13-.64 5.34-1.12 10.7-1.39 16.08-.29 5.75-1.21 12.24.87 17.72a1.44 1.44 0 0 0 2.76 0c1.75-5 1.11-10.61 1.3-15.83.21-5.8.58-11.6 1.09-17.38s4.45-27.97 3.09-32.52z" fill="#fff" opacity=".3"/></g></svg>