<svg xmlns="http://www.w3.org/2000/svg" viewBox="-0.3000001907348633 -0.00013828277587890625 171.9600372314453 262.88018798828125"><title>Depositphotos_65202209_05</title><g data-name="Layer 2"><g data-name="Layer 8"><path d="M165.93 91.4c-1.12-4.64-3.8-6.12-8.47-5.38-7.37 1.17-14.74 2.24-22.18 2.84q-10.66.87-21.37.87c-2.84 0-10.09 1.12-9.77-3.32a9 9 0 0 1 1.23-3.8C108 81.27 111 81 114 80.72q5.61-.58 11.18-1.44a198.25 198.25 0 0 0 23.8-5c5.47-1.55 8.7-4.7 7.17-10.7-1.57-6.2-6.32-11-10.77-15.32a158.27 158.27 0 0 0-16.36-14c-1.81-1.33-3.55-2.46-5.52-.84-2.31 1.91-4 5-6.19 7.16a49 49 0 0 1-18 11 23.53 23.53 0 0 1-4.22 1.24c-.71.09-2.84.47-3.43-.22-.86-1-.13-2.88.32-3.86 1.52-3.36 5.22-5.39 8.16-7.32 4-2.67 14.59-7.34 13.17-13.77-.49-2.23-2.37-3.4-4.35-4.17l-.44-.17-.07-.06C100.63 16.75 94 9.9 89.37.76a1.57 1.57 0 0 0-2.69 0A106.38 106.38 0 0 1 63 29.5c-5.08 4.3-10.75 7.61-16.07 11.57-4 3-7.66 6.77-9.06 11.73C34.5 64.56 47.78 72.41 56 77.87c4.94 3.28 10.3 5.92 15.11 9.38s14.26 13.49 6 18.52a2 2 0 0 0-.29.23 32.4 32.4 0 0 1-7.72-1.4 50.53 50.53 0 0 1-10.6-5.29 90.35 90.35 0 0 1-15.81-12.53A88.28 88.28 0 0 1 30.08 71c-2.58-4.1-4.31-8.59-9.11-4.18C15.1 72.23 8.76 80.34 7 88.75a47.28 47.28 0 0 0-5.75 11.95c-1.55 5.41-1.36 11.09-1 16.64.29 4.45.52 9.17 2.69 13.17 4.79 8.82 18.13 10.57 26.91 12.56 5.75 1.31 11.52 2.48 17.22 4 2.74.72 5.45 1.53 8.12 2.45a18.37 18.37 0 0 1 3.95 1.48c2.84 1.81 2.21 4.23-.19 5.66-5.24 3.09-13.26 3.41-19.16 3.38a59.23 59.23 0 0 1-20.46-3.83c-1.17-.44-2 .82-1.82 1.82s.34 1.92.5 2.89c0 .21.06.41.11.61q2 11.61 5 23a1.38 1.38 0 0 0 .63.87l.66 2.82c2.2 9.21 5.06 19.06 12.89 25.12 7.62 5.9 17.9 5.21 26.86 3.55a77.07 77.07 0 0 0 9-2.31c2.9-.92 6-1.95 8.73-.7 3.91 6.14 11.45 10 18.46 10.92 9.77 1.22 18.4-3.62 25.07-10.4a122.45 122.45 0 0 0 19-26.25 75.33 75.33 0 0 0 6.32-15c.29-1 .57-1.9.84-2.84a1.27 1.27 0 0 0 1.26-.69c3.39-6.18 5.8-13 8.47-19.49a123 123 0 0 0 6.47-18.81c3.04-13.07 1.28-27.02-1.85-39.92zm-23.84 66.2c-1.79 1.94-4.91 2.75-7.34 3.6a85.93 85.93 0 0 1-24 4.95 13.12 13.12 0 0 1-2.82-.54 13.36 13.36 0 0 0-4.6-.9s-2.2.32-2.2.33c-1.8-2.41 3.29-2.08 3.65-2.09 2.11-.05 4.21-.18 6.31-.41a73.46 73.46 0 0 0 13.37-2.72 77.34 77.34 0 0 0 12.07-4.82c.95-.47 1.86-1 2.8-1.47 1.07-1.09 2.06-1.07 3 .08 1.97.8 1.9 2.12-.24 3.99z" fill="#57963c"/><path d="M106.33 81.12c5.73-1.24 11.47-2.47 17.15-3.92 9.7-2.48 19.22-5.42 27.19-11.63.36-.28 0-.83-.43-.73-9.66 2.52-19.3 5.16-29.12 7.16-4.83 1-9.66 1.9-14.49 2.87S96 76.3 91.4 78.32a2.11 2.11 0 0 0-.35.19C88.6 66.63 85.28 55 82.5 43.12c-.17-.74-1.25-.42-1.12.31 4.15 22.9 6.69 46.25 6.31 69.54-5.89-2.23-12.69-2.58-18.69-4.5-7.09-2.26-13.21-6.5-20-9.39a.31.31 0 0 0-.32.54c6.25 4.26 11 9.51 18.17 12.48a81.46 81.46 0 0 0 8 2.88 65.67 65.67 0 0 1-13.44-3.14c-9.07-3.39-17.61-8.39-26.32-12.59a.47.47 0 0 0-.47.81c7.73 5.12 14.46 11.54 22.77 15.71-.87-.14-1.75-.29-2.61-.48-.27-.06-.47.33-.2.47a60.14 60.14 0 0 0 16.11 5.17 43.28 43.28 0 0 1 4.38 1.17c-2.6-.43-5.21-.78-7.74-1.13-.44-.06-.84.59-.34.8L70 123q-1.59-.47-3.16-1A181.37 181.37 0 0 1 44 113.4c-.61-.29-1.15.6-.54.92 7.56 3.95 14.72 8.62 22.55 12.06 1.1.48 2.26 1 3.46 1.5a63.93 63.93 0 0 1-14.65-4.33c-.74-.34-1.39.74-.65 1.11 5.82 2.9 11.74 6.09 18 8.1v.06a136.55 136.55 0 0 1-27.29-8.66c-.58-.25-1.09.57-.5.86 6.55 3.25 12.65 7.08 19.47 9.81a76.92 76.92 0 0 0 10.2 3.28c-.87-.12-1.73-.24-2.58-.39-5.87-1-11.95-1.77-17.71-3.23a.44.44 0 0 0-.23.84c5.61 2.36 10.9 4.93 16.74 6.77l.61.19a3.18 3.18 0 0 0 .91 2.11 157.28 157.28 0 0 1-33.7-9.4c-.55-.23-1 .72-.41 1 7.46 3.44 14.5 7.51 22.26 10.33a101.07 101.07 0 0 0 24.18 5.51 2.65 2.65 0 0 0 .86-.05c-.07.71-.14 1.42-.22 2.14-2-.13-4.18.16-5.13 1.85a3.2 3.2 0 0 0-.38 1.07c-2.77-.16-5.55-.57-8.28-1-.66-.1-1.24.85-.51 1.2 4.19 2 8.54 3 13 4a2.3 2.3 0 0 0 .51.06v.35c-2.79-.44-5.68 0-8.51-.06a64.41 64.41 0 0 1-11-.93c-.58-.12-1.05.76-.43 1 5.62 2.47 13.2 5.61 19.51 4 0 .19 0 .37-.06.56-1.93.34-3.85.79-5.76 1.11a102.17 102.17 0 0 1-15.19 1.38 178.59 178.59 0 0 1-29-2c-.72-.11-1.05 1-.31 1.11 16.31 3.51 32.91 7.68 49.49 4.75-.08.65-.17 1.31-.25 2-5.35 1.06-10.51 2.25-16.19 2.34A102 102 0 0 1 45 175.17c-.82-.16-1.18 1.08-.35 1.27 10.88 2.38 25.22 6.61 37.07 4.08 0 .36-.1.71-.14 1.07a1.78 1.78 0 0 0-1.06-.19c-7.54.85-15.1 1.5-22.6 2.64-.75.11-.51 1.22.17 1.26 1.8.1 3.59.17 5.39.22a4.4 4.4 0 0 0-.28.62 2.41 2.41 0 0 0 1.67 2.94 44.17 44.17 0 0 0 5 1 2.57 2.57 0 0 0 0 .26c-9.7 0-19.43-2.07-29-4.15a.56.56 0 0 0-.3 1.08 101.83 101.83 0 0 0 24.5 7c4.73.66 9.87 1.12 14.69.27l-.27 1.72c-4.84.35-9.68 1.13-14.58 1a90.82 90.82 0 0 1-20.4-2.79.58.58 0 0 0-.31 1.12c10.05 3.68 23.2 7 34.54 5.47l-.14.89c-6.28.4-12.86 1.76-18.75 2.69-.74.12-.45 1.12.16 1.2 2.28.28 4.72.54 7.22.73-1.45.29-2.91.59-4.37.86a.5.5 0 0 0 .13 1c4.93-.35 9.84-.51 14.73-1.19-.23 1.37-.46 2.74-.71 4.1-1.39 7.74-3.07 15.43-4.73 23.12s-3.88 15.28-5.31 23c-.57 3.06 3.75 5.42 5.36 2.26 6.27-12.29 9.67-26.52 12.37-40 .58-2.91 1.11-5.83 1.61-8.75 5.44 4 14.63 2.66 20.59.95a.55.55 0 0 0 0-1.05c-4.59-1.29-9.19-1.48-13.5-2.73h2.41a52.57 52.57 0 0 0 21.38-4.12c.5-.21.22-1-.27-1-8.45.11-18.78 1.32-27.24-1.29 4.21.65 8.92.15 12.38-.21 8-.84 16.85-2 23.95-5.92.69-.38.2-1.37-.52-1.23a131 131 0 0 1-20.67 2.06c-5.57.21-10.86.26-16.08-1.1.22-1.63.45-3.25.66-4.88 4.36.92 9.41.63 13.21.82 8 .39 15.69.86 23.57-.51.74-.13.52-1.23-.17-1.26-7.58-.26-15.23-2.1-22.72-3.27l-1.44-.24a5.79 5.79 0 0 0 .69-.58 2.42 2.42 0 0 0 .68-1.45 73.63 73.63 0 0 0 8 0 .74.74 0 0 0 .2-1.44 70.89 70.89 0 0 0-7.32-1.74c.61 0 1.21-.11 1.8-.18 6.92-.81 14.12-1.57 20.75-3.75a.64.64 0 0 0-.17-1.26c-6.55-.88-13.16-.23-19.74 0a30.12 30.12 0 0 1-4.09-.17c2.34-.11 4.5-.33 6.12-.45 7.61-.54 16.52-.38 23.09-4.68a.61.61 0 0 0-.47-1.11c-6.45 1.76-14.2.26-20.82.41-6.18.14-12.68.31-18.62-1.65v-.1c.48-4.59.94-9.18 1.35-13.79a28.55 28.55 0 0 0 12-2.84c.6-.26.25-1.15-.32-1.16-3.81-.07-7.57-.35-11.36-.25.08-1 .17-1.9.24-2.85 7.56 1.75 16.53-1 23.24-4.2.43-.21.2-.87-.24-.87-4 0-8 .49-12 .72-3.55.2-7.09-.11-10.64-.07.08-1.11.15-2.21.22-3.32 3.49.48 7.25-.17 10.65-.68 6.89-1 12.79-3.64 19.37-5.56.53-.16.46-1.08-.14-1-5.66.66-11.51.48-17.22 1a97.93 97.93 0 0 1-12.36.38 234.08 234.08 0 0 0-1.46-41.83c-.39-2.91-.87-5.8-1.41-8.68h.09c4.67 1.16 9.79-.73 14.37-1.72zM92.08 179.7a2.47 2.47 0 0 0-.49 2.41h-1.16c.11-1 .22-1.92.33-2.88.43.18.87.33 1.32.47z" fill="#407529"/><path d="M146.06 56.93c-9.49 3.92-18.62 8.67-28.07 12.68-.56.24-.16 1.14.41 1 9.92-2.91 19.66-6.07 28.72-11.14 1.32-.77.41-3.15-1.06-2.54z" fill="#407529"/><path d="M134.72 53.09c-7.43 3.1-14.17 7.37-21.34 11-.33.16-.1.73.25.6 7.55-2.76 15.12-5 22.2-8.9 1.41-.79.44-3.35-1.11-2.7z" fill="#407529"/><path d="M161.32 141.08a210.29 210.29 0 0 1-44.38 7.55.64.64 0 0 0 0 1.28c15.19.77 32.16 3 45.93-5.15a2 2 0 0 0-1.55-3.68z" fill="#407529"/><path d="M156.54 130.41c-9.66 2.39-19.2 5.28-28.88 7.6-.74.18-.6 1.41.18 1.35 10.07-.82 20-2.3 29.64-5.54a1.77 1.77 0 0 0-.94-3.41z" fill="#407529"/><path d="M154.81 127.51c-4.67.58-9.25 1.67-13.9 2.4-.77.12-.58 1.37.18 1.35a58.83 58.83 0 0 0 14-1.6c1.16-.32.98-2.31-.28-2.15z" fill="#407529"/><path d="M51.51 131.61c-6-2.36-12.25-3.59-18.32-5.61a63 63 0 0 1-17.75-9.54c-2.52-1.89-5.83 2.37-3.39 4.39a52.14 52.14 0 0 0 39.34 11.65.46.46 0 0 0 .12-.89z" fill="#407529"/><path d="M40.28 116.66c-8.09-4.33-15.69-9.43-23.57-14.11-2-1.17-4.41 1.76-2.52 3.26 7.5 6 16.39 9.64 25.66 11.87.6.15 1.01-.68.43-1.02z" fill="#407529"/><path d="M33.47 90.68c-4.34-3.74-9.14-7.14-13.71-10.61C18 78.74 16 81.54 17.47 83c4 4.12 9.68 7.66 15.38 8.71.56.14 1.15-.58.62-1.03z" fill="#407529"/><path d="M158.22 88.85c-22.5 4.59-45.56 5.76-68.46 5.86v-.07a1.84 1.84 0 0 0 .85-1.64c0-1.89-.1-3.79-.21-5.68a2.19 2.19 0 0 0 1.2.39h1.1a3.25 3.25 0 0 0-1 .77 1.82 1.82 0 0 0 .79 3c1.71.59 3.51-.46 5.11-1.08a26.41 26.41 0 0 0 4.69-2.27.69.69 0 0 0-.35-1.28 21.5 21.5 0 0 0-5.36.1 31.68 31.68 0 0 0 5.67-2.57.6.6 0 0 0-.3-1.11c-3.62-.29-7.37-.79-11-.09a2.16 2.16 0 0 0-.87.37c-.19-2.11-.4-4.21-.67-6.32 5.9.17 12.45-3.22 17.63-5.14 6.84-2.53 13.84-4.82 20.13-8.54.41-.24.14-1-.34-.8-6.35 2.44-13.35 3.52-19.94 5.18-3.52.89-7.09 1.72-10.65 2.56 1.81-.66 3.57-1.4 5.25-2 5.32-2 10.93-3.76 15.52-7.17a.52.52 0 0 0-.52-.89c-5 2.25-10.81 2.84-16.08 4.17l-4.42 1.12a60 60 0 0 0 10-4.72.53.53 0 0 0-.41-1 72.82 72.82 0 0 0-8.84 2c-2.6.7-5.31 1.87-8 1.79a1.48 1.48 0 0 0-1.27.59q-.56-3.45-1.12-6.88c2.38 1.15 5.51-.39 7.92-1.18a82.81 82.81 0 0 0 13.83-5.86c.57-.31.16-1.11-.42-1-3.77.68-7.44 1.78-11.13 2.78-3.22.87-6.81 2.51-10.15 2.33a1.13 1.13 0 0 0-.5.1c-.4-2.56-.79-5.11-1.13-7.65-.06-.42-.1-.85-.15-1.27a2 2 0 0 0 1.09.31c6.58 0 10.47-4.73 14.81-8.84a.47.47 0 0 0-.57-.74 46.49 46.49 0 0 1-9.24 3.84 41.36 41.36 0 0 0 15.17-11.36.52.52 0 0 0-.62-.81A85.54 85.54 0 0 1 94.49 33c4.4-2.88 8.32-6.7 12.26-10.15.55-.48-.15-1.24-.74-1A187.68 187.68 0 0 1 85.3 31c2.57-1.26 5-2.68 7.46-4.18 1.76-1.08 3.9-2.13 4.74-4.13a1.87 1.87 0 0 0-1.59-2.77h-.88l.78-.55a1.9 1.9 0 0 0-.37-3.37.83.83 0 0 0-.8-1.38c-2.86.8-5.71 1.65-8.56 2.51l.24-1c1.94-1.23 3.88-2.48 5.81-3.73a.83.83 0 0 0-.83-1.4l-4.16 1.87a49.75 49.75 0 0 0 1.58-10 .35.35 0 0 0-.59-.24c-4.58 5-6.16 12.18-7.29 18.69a17.14 17.14 0 0 1-4.07.12c-.5-.05-.62.79-.12.89a21.33 21.33 0 0 0 4 .44c-.1.69-.22 1.38-.31 2.07-3 .22-6 1-9 .88-.74 0-.69 1 0 1.13 2.91.38 5.82 1 8.72.7q-.28 2.78-.41 5.57c-2 .19-4.11 0-6.14-.05-3.28 0-6.54.32-9.82.37-.31 0-.4.49-.07.55 4.11.84 8.18 2.01 12.38 2.55a22 22 0 0 0 3.46.28q0 2.77.06 5.55c-2.58-.14-5.26.28-7.86.15s-5.23 0-7.81-.14c-.57 0-.62.78-.13 1 2.9 1 6 2.63 9.23 3.56-9.46-.08-18.63-.57-28.08-3-.77-.19-1.3.92-.55 1.31 1.58.83 3.21 1.59 4.87 2.3a.56.56 0 0 0 .34.59c.75.36 1.51.68 2.28 1-2.2.9-3 4.58 0 5.08 3.85.64 7.78 1.48 11.72 2.25-.67-.08-1.34-.17-2-.26-6.08-.89-12.06-2.26-18.11-3.32-.74-.13-1.28.87-.54 1.29a68.11 68.11 0 0 0 9.43 4.4c-2.92-.43-5.82-.91-8.7-1.5-.68-.14-1.17.81-.49 1.17 5.9 3.19 12.51 4.53 19 5.93l.8.17c-3.76-.35-7.48-.74-11.16-1.35a.48.48 0 0 0-.26.93 75.39 75.39 0 0 0 14 3.62 2.52 2.52 0 0 0-.28 1.24c-3.76-.17-7.5-.33-11.17-.69-.56-.05-.72.76-.28 1a56.41 56.41 0 0 0 15.29 5.68c4.61 1.1 9.63 2.27 14.35 1.35q.13 1 .27 2a141.57 141.57 0 0 1-24.76-1.63.45.45 0 0 0-.24.87c5.69 2.27 12 4.71 18.33 5.25a71.68 71.68 0 0 1-8-.15c-1-.08-1 1.32-.22 1.6A53.11 53.11 0 0 0 80 86.63c-1.76.12-3.64 1.17-5.34.93a.47.47 0 0 0-.25.9c3.05 1.24 8.27 4.21 11.54 2.24.2.86.41 1.73.65 2.58 0 .48.1 1 .15 1.44h-.13a55 55 0 0 1-5.57.15c-.56 0-.56.84 0 .88a6.82 6.82 0 0 1 2.34.68 2.48 2.48 0 0 0-.92 2.24 2.27 2.27 0 0 0 .93 1.56 2.82 2.82 0 0 0 0 2.72c.78 1.4 2.81 2.05 4.53 2.26l.45 3.64c-1.58.13-3.15.38-4.74.37a35.06 35.06 0 0 1-7.37-1.34.33.33 0 0 0-.17.63 40.25 40.25 0 0 1 8.34 3.44 16.34 16.34 0 0 0 1.69.87c-1.68 1.48-.27 4.69 2.42 4.28l3.94-.59a4 4 0 0 0 0 2.69 2.1 2.1 0 0 0 .14.3H88.8c-2.89 0-3.8 4.08-1.49 5.33a2.22 2.22 0 0 0 2.21 2.45 35 35 0 0 0 4.5-.06l-1 .26a2.47 2.47 0 0 0 0 4.73c5.85 1.74 13.29.25 19.24-.62 7.31-1.07 13.82-3.51 20.69-6.06a.52.52 0 0 0-.27-1c-7 1-14.15 1.12-21.15 1.65-3.58.27-7.49.08-11.27.25 1.08-.18 2.16-.38 3.23-.57 5.36-.45 10.72-1.42 15.89-2.29 10.72-1.8 22.61-2.65 32.77-6.62a.78.78 0 0 0-.21-1.53l-.86-.06c-10-.74-20.62 1.46-30.53 2.59-3.22.37-6.41.65-9.6.88l2.91-1.24a2.58 2.58 0 0 0 1.23-3 144.57 144.57 0 0 0 26.66-6.33c.78-.27.72-1.63-.21-1.53-6.41.63-12.83 1-19.23 1.54a2.5 2.5 0 0 0-1.53-1.91 10.68 10.68 0 0 0-3.17-.71l1.83-.29c.74-.12.58-1.39-.18-1.32-1.07.09-2.16.17-3.25.25 1.23-.14 2.46-.28 3.69-.44 9.91-1.3 20.58-2.7 29.76-6.84.52-.23.25-1.07-.28-1-10.25.33-20.47 2.6-30.72 3.38-3.6.28-7.2.49-10.81.62 5.58-.34 11.16-.78 16.71-1.45 11.06-1.33 24.8-2.24 34.27-8.58a.58.58 0 0 0-.41-1.13zm-66.47 17.93l-.48.22a1.59 1.59 0 0 0-1 1.76h-.31c.08-1.18.14-2.36.18-3.54a24.45 24.45 0 0 0 2.43.31 3 3 0 0 0-.82 1.25z" fill="#407529"/><path d="M80.23 46.26c-4.89-.14-9.93-2.43-14.79-3.19a78.7 78.7 0 0 0-13.58-1.21c-2.06 0-2.7 3.35-.51 3.74 5.1.91 10.27 1.06 15.42 1.52 4.66.42 9 .85 13.59.08.55-.08.39-.92-.13-.94z" fill="#75bd55"/><path d="M71.49 50.69c-7.78-2.7-16.33-2.78-24.33-5.06a3 3 0 0 0-.6-.25 35.61 35.61 0 0 1 3.6-4.23c.29-.29-.08-.69-.42-.54C44.89 42.79 41.26 44.88 39 50c-2 4.64-1 9 1.2 13.36.2.41.8.11.71-.3a15.79 15.79 0 0 1 .58-7.83c4.23 1.78 9.29 1.8 13.76 2 4.17.18 10.86 1.53 14.5-1 .32-.23.14-.84-.29-.69-2.29.85-5.89-.44-8.21-.82s-4.93-.75-7.39-1.18-4.89-1-7.29-1.67l1.85.07a10.42 10.42 0 0 0 5.1-.74 58.24 58.24 0 0 0 18 .32c.48-.06.33-.71-.03-.83z" fill="#75bd55"/><path d="M61.18 63c-6.18-1.3-12.69-3.9-18.94-4.16-1.84-.08-1.84 2.34-.4 2.95C47.5 64.16 55 63.9 61 64a.5.5 0 0 0 .18-1z" fill="#75bd55"/><path d="M75.53 37.17c-5.92-.53-11.89-.88-17.78-1.74-2.19-.32-3.17 3-.93 3.38a41.89 41.89 0 0 0 18.86-.53.57.57 0 0 0-.15-1.11z" fill="#75bd55"/><path d="M76 31.07c-1.79.29-4.08-.42-5.84-.83s-3.77-1-5.64-1.57c-1.37-.39-2.37 1.77-1 2.37 3.75 1.65 9 2.65 12.77.71.37-.21.06-.75-.29-.68z" fill="#75bd55"/><path d="M104.17 20.55a18.07 18.07 0 0 0-4.45-6.33 23.6 23.6 0 0 0-3.45-2.7 14.3 14.3 0 0 1-3.47-2.45 4.23 4.23 0 0 1-.69-1.12c-.16-.38-.8-.5-.9 0a4.6 4.6 0 0 0-.08.7c-.87.39-1.69.94-2.53 1.4a12.54 12.54 0 0 1-2.88 1.52c-.53.12-.3.94.22.81 1.21-.28 2.42-.16 3.63-.53a10.06 10.06 0 0 0 2-.84c.1.23.21.45.33.67a19.5 19.5 0 0 1-4.7 2c-.45.09-.34.8.11.8 2.1 0 4.11.11 6-.88l.19.23a31.12 31.12 0 0 1-6.53 2.11c-.55.09-.43 1 .13 1a29.75 29.75 0 0 0 8.09-1.29c.66.65 1.37 1.27 2.09 1.87-1.49.66-2.92 1.61-4.31 2.34-2.22 1.17-4.43 2.51-6.73 3.48-.49.21-.11.88.34.8 3.36-.59 7.4-.83 10.84-2.08a29.17 29.17 0 0 1-4.26 2.54c-.48.21-.13.95.35.83 1-.23 2-.44 3-.69a87 87 0 0 1-8.61 4.18c-.59.25-.37 1.21.27 1 5.88-2 12.29-1.34 16.64-6.55a1.9 1.9 0 0 0-.64-2.82z" fill="#75bd55"/><path d="M106.47 69.37c-6.06 2-12.58 2.45-18.71 4.23-.1-.92-.18-1.85-.3-2.76 2.26.27 4.54-.73 6.65-1.51a1.85 1.85 0 0 0 1.09-2.27 16.71 16.71 0 0 1 3.95-1.5c.69-.15.4-1.2-.29-1.05-1 .22-2.13.52-3.23.8 1.67-.92 3.29-2 4.91-3 .52-.32.19-1.26-.43-1-4.33 1.63-9 1.88-13.45 3.2q-.32-3.91-.71-7.81a.93.93 0 0 0 .61.41c3.73.77 7.75-1.61 10.93-3.34.41-.22.11-.79-.3-.71-3.45.61-6.79 2-10.33 1.87a1 1 0 0 0-1 .77c-.11-1.13-.22-2.27-.34-3.4a6.21 6.21 0 0 0 1.14-.3 7.73 7.73 0 0 0 2.41-1.62c.41-.32 0-1.09-.52-.89a7.53 7.53 0 0 1-3.29.29c-.17-1.65-.34-3.31-.49-5 3.86-.2 7.3-2.19 10.59-4.12a.41.41 0 0 0-.31-.74c-3.42 1.06-7.05 1.06-10.56 1.68 0-.47-.08-.94-.12-1.41-.07-.9-.15-1.8-.21-2.69h.12c4.4.23 8.6-2.39 12.36-4.33.43-.22.13-1-.34-.8A28.94 28.94 0 0 1 89 34a33.54 33.54 0 0 0 10-5.62.36.36 0 0 0-.36-.62C94 30 88.87 30.7 83.88 32.12a46.72 46.72 0 0 1 .34-7 100.71 100.71 0 0 0 1.12-12.21c0-.31-.5-.39-.55-.07-.72 4.52-2.66 8.75-3.66 13.22-1.06 4.74-.92 9.43-.62 14.25q.36 5.56 1.07 11.11a53.71 53.71 0 0 1-8.28 1.29 55 55 0 0 0-7.95.86c-.22 0-.15.36 0 .37 5.14.3 11.46 2.35 16.62.75l.05.34c-2.36.35-4.66 1-7.05 1.16a.48.48 0 0 0 0 1l3.12.05c-5 .54-10 1.38-15.12 1.48-.51 0-.66.83-.12.92 6.43 1.14 13.54 2.1 20 .64.13.73.27 1.45.4 2.18-3.53.21-7 1.18-10.55 1.5A66.81 66.81 0 0 1 61 64c-.58-.05-.7.88-.14 1C68 66.68 76.84 68.55 84 66.08c.08.4.17.81.25 1.21a1 1 0 0 0-.63-.15c-2.1.15-4.16.4-6.24.73s-5 1.27-7.28 1c-.6-.08-.88.78-.26.93a20.49 20.49 0 0 0 2.25.39 82.2 82.2 0 0 1-8.31.68c-.18 0-.24.31 0 .34 7.06 1.07 14.27 2.07 21.33.45.2 2.11.47 4.21.77 6.32h-.07c-5.88.86-12.22 0-18.18.41-.25 0-.34.41-.06.46 3.41.62 6.85 1.12 10.29 1.49 2.65.29 5.87 1.19 8.39.12 0 .18.06.37.09.55a1 1 0 0 0-.66-.21c-3 .18-5.94.8-8.94 1a.35.35 0 0 0-.09.68A18.79 18.79 0 0 0 86 83a1 1 0 0 0 .62-.45q.55 3.3 1.14 6.58c.08.44.77.33.77-.1 0-2.46-.08-4.94-.18-7.42 5 .74 9.66-.72 13.93-3.27a.44.44 0 0 0-.34-.8c-4.48 1.25-9.1 1.45-13.71 1.73 0-.85-.1-1.69-.16-2.54 6.73-.95 12.44-4.08 18.66-6.49.51-.24.27-1.05-.26-.87z" fill="#305e1b"/><path d="M101 18.73l-.37-.3a.65.65 0 0 0-.56-.45A9.94 9.94 0 0 1 97 14.5c-.14-.29-.57 0-.43.25a21.16 21.16 0 0 0 2 3.72c-1.05.45-2.07 1-3.12 1.47a24.29 24.29 0 0 1-5.06 1.59c-.22 0-.17.43.05.4 3-.35 6.57-.56 9.24-2.11a9 9 0 0 1 .6.73v.07A24.11 24.11 0 0 1 95.85 23a.23.23 0 0 0 .12.45 17.88 17.88 0 0 0 5-1.23l.1.27c-1.4.68-2.65 1.67-4 2.47a35.2 35.2 0 0 1-5.63 2.8c-.27.1-.16.53.12.44 3.44-1.2 8.36-1.52 10.84-4.48a.8.8 0 0 0 .08-.14 1 1 0 0 0 .6-.8 4.65 4.65 0 0 0-2.08-4.05z" fill="#afe388"/><path d="M66.52 50.53c-7.4-1.71-14.63-1.77-22.1-2.49 1.1-1.67 2.3-3.29 3.41-5 .12-.18-.15-.38-.29-.23-3.68 3.89-10.07 6.88-8.54 13.25a1 1 0 0 0 1.87 0 14.26 14.26 0 0 1 .41-1.62c1.67 1.07 4.24.43 6.07 1a.23.23 0 0 0 .17-.41l-.14-.08c3.52.37 7.37-.08 10.59.41a.26.26 0 0 0 .14-.5 46.15 46.15 0 0 0-7.53-2.1c-1.57-.24-3.14-.36-4.67-.63a2.31 2.31 0 0 0 1.56-.3c.12-.08.05-.32-.11-.26-.63.25-2.05-.56-2.64-.75h-.12c6.92 1.69 14.89-.38 21.88.33.29-.02.35-.55.04-.62z" fill="#afe388"/><path d="M122.15 44.71c-10 4.31-19.51 9.49-29.78 13.23a.74.74 0 0 0 .39 1.42c10.87-1.62 22.43-4.53 31.8-10.52 2.66-1.71.36-5.33-2.41-4.13z" fill="#407529"/><path d="M128.7 118.12c-6.41.71-12.76 1.87-19.19 2.48-2.86.27-5.8.31-8.73.41a37.26 37.26 0 0 0 5.62-2.06c.38-.17.13-.66-.19-.7a38.8 38.8 0 0 0-5.63-.21 58.23 58.23 0 0 0 13.59-3.68c.44-.18.44-.93-.12-.9-7.15.47-14.94.31-22 1.51-.11-1.53-.24-3.06-.42-4.6 8.05 1.18 18.55-1.19 25.77-4.57.36-.17.15-.68-.19-.7-4.61-.27-9.17.56-13.74 1.08-4 .47-8.23.55-12.18 1.54 0-.19-.05-.38-.08-.58a47.52 47.52 0 0 0 10-1.23 1.36 1.36 0 0 0 .51-2.31 29.72 29.72 0 0 0 7.9-2.7.35.35 0 0 0 .14-.15c5.77-1.07 11.8-2.15 16.93-4.87a.2.2 0 0 0-.1-.37c-6.54.06-13.15 1.73-19.6 2.73-5.6.86-11.53.26-17 1.88-.43-2.14-.89-4.23-1.36-6.24a.16.16 0 0 0-.32 0c0 1.67.06 3.34.12 5a1 1 0 0 0-.42-.19l-1.9-.38c-.56-.12-1.64-.16-2-.63s-.81.1-.63.48a2.86 2.86 0 0 0 1.32 1.11l.2.12a1.17 1.17 0 0 0-.36 1.5c.29.73 1 .9 1.7 1.12a19.38 19.38 0 0 0 2.25.64c.11 2.84.22 5.68.25 8.52v1.28c-1.8-.14-3.61 0-5.42-.07a30.94 30.94 0 0 1-7.61-1.2c-.34-.1-.48.35-.23.54a19.23 19.23 0 0 0 13.26 3v.47c-1.46 0-2.93.12-4.4.08a28.88 28.88 0 0 1-7.93-1.09c-.4-.13-.68.5-.29.69a54 54 0 0 0 7.47 3.12h-.24a.45.45 0 0 0-.52.39c-3.08-.34-6.18-.6-9.22-1.22a88.06 88.06 0 0 1-14.89-4.41c-.42-.17-.66.49-.3.71 8.65 5.3 20.08 10.16 30.46 8.77a57.11 57.11 0 0 1-7.3.4.22.22 0 0 0-.11.41 20.64 20.64 0 0 0 6.49 2 1.25 1.25 0 0 0 .29.11c-4.08-.89-8.6-.55-12.67-1.21-.48-.08-.7.62-.21.75 1.75.46 3.55 1.09 5.37 1.7-5.89-.54-11.64-1.18-17.49-3.76a.29.29 0 0 0-.3.51c7.14 4.48 16.67 7.44 25.28 7.16v.56c-.76-.06-1.5 0-2.26 0a15.89 15.89 0 0 0-2.11-.15c-.37 0-.51.61-.09.69a22 22 0 0 1 3.12 1c-1.71-.35-3.59-.33-5.27-.61a32.17 32.17 0 0 1-7.49-1.79c-.58-.25-1.1.55-.51.87 2.84 1.54 6.19 3.66 9.62 4.55-3.12-.19-6.28-.16-9.38-.6a60.66 60.66 0 0 1-14.66-3.92c-.32-.14-.52.39-.23.56 8 4.7 19.07 9.83 28.63 7.6v.44h-.08a14.34 14.34 0 0 0-3.16.13c-.85.12-1.57.5-1.68 1.44a1.7 1.7 0 0 0 .15.91h-.35a.38.38 0 0 0-.27.64 7.28 7.28 0 0 0 1.7 1c-.6.05-1.19.09-1.77.09a27.22 27.22 0 0 1-7.52-.94c-.42-.12-.73.54-.31.73 3.74 1.64 9.2 4.12 13.42 2.88v.71a118.73 118.73 0 0 1-12-.84c-4.43-.5-9.49-.47-13.61-2.13-.42-.17-.71.53-.31.73 4.17 2.05 9 3.14 13.55 4.12 4.1.89 8.41 1.9 12.44.46.13 2.62.27 5.25.3 7.89a.25.25 0 0 0 .16.24 4.06 4.06 0 0 0-3 1.59 1.2 1.2 0 0 0-.14.76l-1.09.22a1.29 1.29 0 0 0-.55 2.17 54.16 54.16 0 0 1-8.43-1 .36.36 0 0 0-.19.7 57.7 57.7 0 0 0 13.53 2.69 1.26 1.26 0 0 0 1.09-1.89 3.73 3.73 0 0 0-1.13-1 1.48 1.48 0 0 0-.26-2.14c.76.54 1.28.17 2.41-.27s1-2.18-.28-2c-.48.05-1 .1-1.58.17a.29.29 0 0 0 .09-.19c.14-1.7.31-3.4.5-5.09a2 2 0 0 0 1.76.44 7.67 7.67 0 0 0 1.34-.41 6.25 6.25 0 0 1 1.57-.62c.49 0 .5-.82 0-.77a8.91 8.91 0 0 1-2-.36c-.29 0-.59 0-.88-.08h-.27l-.17-.05a1 1 0 0 0-1.14-.27l.43-3.82a11 11 0 0 0 3.48-.36 15.32 15.32 0 0 0 3.72-1.15c.3-.15.18-.56-.09-.66a12.32 12.32 0 0 0-6.82-.49c.18-1.72.34-3.43.46-5.16a24.67 24.67 0 0 0 13.5-2.52c.36-.18.14-.64-.18-.68a63.28 63.28 0 0 0-7.47-.15 49.14 49.14 0 0 0-5.56.12c.14-1.38.32-2.76.49-4.14 4.74 1.16 11-.37 15.13-2.69.21-.12.2-.52-.07-.56a44.48 44.48 0 0 0-7.08-.08c-1.6 0-3.2-.08-4.8-.13a10.76 10.76 0 0 0 4.22-1.35c.29-.16.18-.69-.18-.66a27.55 27.55 0 0 1-6.7-.28v-.41c5.78 1.19 12.2.09 17.95-.87a68.3 68.3 0 0 0 18.81-5.64c.16-.11.09-.38-.08-.36z" fill="#305e1b"/><path d="M113.37 196.25c-8.74 2.53-18.05 0-26.89.3 0-.31 0-.61.07-.92a22.22 22.22 0 0 0 8.1 0c2.41-.35 6-.37 7.55-2.51a.07.07 0 0 0 0-.1c-1.9-1.37-4.66-.61-6.87-.49a32.3 32.3 0 0 1-4.57 0 1.55 1.55 0 0 0-.09-.46 19.81 19.81 0 0 0 6.15-1 .3.3 0 0 0-.16-.59 15.75 15.75 0 0 1-5.47-.22c4.73.24 9.65-1.05 14-2.56.38-.13.35-.76-.1-.74-5 .21-9.8 0-14.69-.21 1.07-.08 2.15-.24 3.29-.41.38-.06.29-.67-.09-.67a8.43 8.43 0 0 1-1.07-.06 41.69 41.69 0 0 0 6.47-2.13.28.28 0 0 0-.15-.54 28.33 28.33 0 0 1-11.51-.12v-.37a4.15 4.15 0 0 0 .64.06 9.1 9.1 0 0 0 1.8-.31c.51-.1.34-.81-.12-.85a14.42 14.42 0 0 1-1.59-.36l-.66-.12c0-.82.07-1.63.1-2.45a13.42 13.42 0 0 0 7.13.24 1.09 1.09 0 0 0 .26-2l-.22-.11c1.22-.1 2.44-.23 3.67-.4.47-.07.28-.71-.1-.76-.91-.12-1.83-.2-2.74-.28a54.69 54.69 0 0 0 9.07-2 .28.28 0 0 0-.07-.55 145.48 145.48 0 0 0-16.84 1c0-2.48.07-5 .06-7.45 0-.12-.17-.12-.19 0-.48 3.58-.93 7.17-1.39 10.75a.9.9 0 0 0-.11.31h-.12c-4.6-.22-9.08.71-13.71.09a.2.2 0 0 0-.11.38c4.3 1.34 9.23 2.73 13.73 1.62l-.4 3.1a8.5 8.5 0 0 0-2.41-.18 18.08 18.08 0 0 1-2.74.16.39.39 0 0 0-.21.75c.81.32 1.48.95 2.27 1.34h-4.1a68.73 68.73 0 0 1-9.06-1c-.17 0-.31.22-.13.3a44 44 0 0 0 10.59 3.44 1.41 1.41 0 0 0-.15 1.62l.07.12c-.66.06-1.33.12-2 .15-1.34.06-4 .55-5.06-.55-.32-.34-.82.17-.51.51a7.74 7.74 0 0 0 4.43 2.21c-6.91.27-13.93 1-20.5-1.62-.11 0-.18.13-.08.19 4.56 2.88 9.68 4 15 4.84 4.21.65 8.93 1.25 13-.14-.14 1.08-.29 2.16-.43 3.24a1.5 1.5 0 0 0-.06.48v.07c-3-.09-6 .2-9.06.07s-7 .34-9.82-.57c-.43-.14-.62.45-.29.69 4.52 3.21 12.83 4.24 18.71 3.23-.1.78-.21 1.55-.31 2.33-5.62-.41-11.53.46-17.16.53a.38.38 0 0 0-.1.74c5.18 1.55 11.31 2.84 16.82 2l-.06.46c-3.29-.37-6.84 0-10.07-.08a.4.4 0 0 0-.11.78 34 34 0 0 0 9.78 2.17c-.32 2.3-.63 4.6-1 6.9-1.14 7.71-2.26 15.46-4 23.07-1.57 7.08-4.64 13.11-7.3 19.76-.56 1.41 1.45 2.32 2.41 1.4 4.86-4.66 6.92-12.11 8.4-18.49C82.11 235.6 83 227.7 84 219.91c.4-3.06.74-6.12 1.08-9.18a14 14 0 0 0 5 .13.46.46 0 0 0 0-.91 23.67 23.67 0 0 1-4.86-.83c.11-1 .22-2 .32-3 6.13 2.41 14.88 1.25 20.68-1.22a.37.37 0 0 0-.18-.68 44.35 44.35 0 0 1-9.77 0c-2.08-.2-4.18-.68-6.28-1a19.53 19.53 0 0 0 2.29-.51.43.43 0 0 0 0-.81 25.37 25.37 0 0 0-5.87-1.15 1.12 1.12 0 0 0-.34.06c0-.2 0-.4.06-.6 8.56 2.42 19.75.42 27.47-3.29.4-.21.14-.77-.23-.67z" fill="#305e1b"/><path d="M84.62 168a76 76 0 0 1-18.29 1.49.33.33 0 0 0-.09.64c6.16 1.28 13.4 2.95 19.4.31 1.47-.59.36-2.67-1.02-2.44z" fill="#305e1b"/><path d="M136.68 171.24c-9.64 1.14-19.27 2.65-29 2.67a.32.32 0 0 0 0 .63c9.85.85 19.59 1.1 29.29-1.12 1.2-.27.97-2.33-.29-2.18z" fill="#305e1b"/><path d="M136.35 189.06c-9.86 1.15-19.57 2.55-29.5 3.06a.42.42 0 0 0 0 .84c9.8 1.19 20.23 1.13 29.86-1.25 1.44-.36 1.18-2.83-.36-2.65z" fill="#305e1b"/><path d="M118.27 206.53a45.46 45.46 0 0 1-13.42 1.18c-.78 0-.74 1.1 0 1.2a40.75 40.75 0 0 0 13.91-.59c1.17-.25.68-2.07-.49-1.79z" fill="#305e1b"/><path d="M68.87 175.66c-13.36.28-26.06-3.55-38.81-7a1.18 1.18 0 0 0-.63 2.28c12.85 3.92 26 7.11 39.44 5.5.46-.09.49-.79 0-.78z" fill="#305e1b"/><path d="M57.33 186.13a218.2 218.2 0 0 1-24.86-7c-1.26-.43-1.8 1.56-.55 2A145.14 145.14 0 0 0 57 187.17c.72.1 1-.89.33-1.04z" fill="#305e1b"/><path d="M159.25 116.92c-11.1 5.4-23.82 8.76-36.24 7.54-.57-.06-.56.83 0 .89 13.21 1.51 25.67.17 37.48-6.31 1.41-.76.18-2.81-1.24-2.12z" fill="#305e1b"/><path d="M149.29 108.9a92.05 92.05 0 0 1-15.93.89c-.54 0-.51.76 0 .82a65.88 65.88 0 0 0 16.17 0 .89.89 0 1 0-.24-1.71z" fill="#305e1b"/><path d="M49.88 123.56a173.63 173.63 0 0 1-32-14.36 1.1 1.1 0 0 0-1.11 1.9 132.31 132.31 0 0 0 33 13.16.36.36 0 0 0 .11-.7z" fill="#305e1b"/><path d="M36.18 105c-2 .05-4.29-2.14-5.83-3.21s-3.31-2.3-5-3.47c-.74-.52-1.4.67-.7 1.19a56.26 56.26 0 0 0 6.42 4.17c1.55.87 3.22 2 5.07 1.92.43-.01.44-.6.04-.6z" fill="#305e1b"/><path d="M127.74 52.23c-7.31 3-16.09 10.14-24.32 8.33a.3.3 0 0 0-.16.59c8.45 2.52 18-3.29 25.33-6.9 1.1-.55.31-2.5-.85-2.02z" fill="#305e1b"/><path d="M130.14 62c-4.93 3.28-10.47 8-16.44 9-.67.11-.52 1.26.16 1.2 6.22-.54 12.81-4.76 17.59-8.54.96-.66-.29-2.32-1.31-1.66z" fill="#305e1b"/><path d="M47.84 95.32C39.35 89 34.43 79 26.7 72a1.71 1.71 0 0 0-2.7 2c5.06 9.72 14 16.92 23.37 22a.43.43 0 0 0 .47-.68z" fill="#75bd55"/><path d="M61.18 109.25c-9.55-4.57-17.89-11.25-27-16.51-1.74-1-3.8 1.46-2.2 2.85 8.33 7.24 18.64 10.93 28.85 14.57.5.2.87-.66.35-.91z" fill="#75bd55"/><path d="M45.07 97.09c-8.29-6.29-15.24-14-22.27-21.58-1.1-1.19-3.28.42-2.28 1.76 6.45 8.64 15 15 24.17 20.49.43.24.76-.38.38-.67z" fill="#75bd55"/><path d="M53.9 146.2c-16.47-3.95-32.13-8.28-46.58-17.36a1.73 1.73 0 0 0-2.09 2.71c13 12 31.74 13.92 48.57 15.39.42.06.51-.65.1-.74z" fill="#75bd55"/><path d="M65 119.07c-10.75-4.93-20-12.21-29.57-19-1.39-1-3.12 1.25-1.83 2.37 9.08 7.91 19.2 14.75 31.15 17.21.37.09.64-.42.25-.58z" fill="#75bd55"/><path d="M61.6 124.27a218.68 218.68 0 0 1-22.43-10.17 1.09 1.09 0 0 0-1.1 1.88 75.39 75.39 0 0 0 23.3 9.12.43.43 0 0 0 .23-.83z" fill="#75bd55"/><path d="M62.33 138.22c-9.93-1.89-19.36-4.75-29.09-7.36-1.41-.38-2.39 1.72-1 2.42 9 4.58 20 6.33 30 5.88.47-.02.65-.84.09-.94z" fill="#75bd55"/><path d="M62.82 211.18c-8.16.31-15.53.35-22.89-3.62-2-1.09-3.5 1.68-1.75 3 7.18 5.38 16.79 4.27 24.75 1.41.4-.15.37-.81-.11-.79z" fill="#75bd55"/><path d="M55.46 207.48c-9.08-.56-16.42-3.81-24.37-7.87-1.45-.74-3.25 1.23-1.85 2.39 7.28 6 17.24 7.51 26.3 6.06.34-.06.23-.56-.08-.58z" fill="#75bd55"/><path d="M55.76 201.42a53.65 53.65 0 0 1-10.12-3.72c-1.15-.63-2.3-1.24-3.49-1.79a1.36 1.36 0 0 0-1.37 2.34l.48.34-1.28-.4a45.57 45.57 0 0 1-8.09-3.36 1.56 1.56 0 0 0-1.57 2.69 35.74 35.74 0 0 0 11.19 4.57l.5.12a45.93 45.93 0 0 0 12.69 3.25c.58.07.6-.77.13-.94-2-.75-4-1.52-5.95-2.3a1.87 1.87 0 0 0 .65-1.14 42.15 42.15 0 0 0 6.11 1.26c.52.06.62-.8.12-.92z" fill="#75bd55"/><path d="M77.78 152.85c-5.35-1.49-10.61-2.42-15.75-4.61-1.09-.47-2.56.92-1.42 1.84 4.75 3.84 11.27 3.48 17 3.76a.51.51 0 0 0 .17-.99z" fill="#75bd55"/><path d="M71.89 158.31a46 46 0 0 0-7-2.81c-1.07-.31-1.83 1.34-.78 1.84a19.49 19.49 0 0 0 7.54 1.78.44.44 0 0 0 .24-.81z" fill="#75bd55"/><path d="M66.59 164.86c-7.21-.41-14.56-1.12-21.71-2.17-6.75-1-13.25-2.93-19.92-4.25a1.72 1.72 0 0 0-.92 3.32c13.13 5.44 28.82 6.08 42.66 4 .52-.1.36-.87-.11-.9z" fill="#75bd55"/><path d="M66.3 195.31c-11.19-.84-20.86-5.26-30.58-10.11a25.12 25.12 0 0 0 4.88.73c.54 0 .58-.73.12-.9a49.33 49.33 0 0 1-8.52-4.1c-1.6-1-3.15-2.11-4.76-3.1a13.73 13.73 0 0 0 6.31.2.38.38 0 0 0 0-.72 49.63 49.63 0 0 1-5.93-2.23c-.47-.24-.92-.5-1.36-.77 7.23 4 17.31 4.48 24.83 5.15.56.05.66-.83.13-1-4.83-1.29-9.68-2.62-14.41-4.23-3.91-1.33-7.43-3.46-11.17-5.09.38-.17.32-.85-.11-1a7.91 7.91 0 0 1-1.86-1.05c1.29.46 2.65.78 3.9 1.1 4.53 1.14 9.18 1.59 13.77 2.43.37.07.65-.44.27-.64a56.7 56.7 0 0 0-10.38-4c-3.77-1.15-7.25-2.92-11-4.14a1.11 1.11 0 0 0-.93.12c-.33-.88-.68-1.76-1-2.64a.36.36 0 0 0-.7.19c.89 6.13 2.05 12.15 3.23 18.23 1 5.2 2 10.31 4.78 14.89a.52.52 0 0 0 .94-.4c-.06-.4-.13-.79-.19-1.18 3.3 3 9.72 3.81 13.37 4.51.61.12 1.09-.77.45-1.07-2.07-1-4.18-1.91-6.23-3 .9.32 1.8.6 2.68.82a.41.41 0 0 0 .32-.75 35.7 35.7 0 0 1-5.15-3.63c10.4 6.27 22.2 10 34.41 8.16.47-.09.31-.75-.11-.78z" fill="#75bd55"/><path d="M155.84 162.3c-1.9 3-3.89 5.93-5.68 9a1.27 1.27 0 0 0-1.41-.41c-6.49 1.85-13.46 4.8-20.19 5.3a.43.43 0 0 0 0 .87 90.09 90.09 0 0 0 12.18-1 24.55 24.55 0 0 0 7.8-1.86l-.06.11c-.68 1.23-1.33 2.48-2 3.73a1.83 1.83 0 0 0-1.72-.57c-8.72 1.41-17 3.58-26 3.21-.54 0-.69.88-.13 1 8.6 1.38 17.85 2.24 26.28-.53l-.31.62c-7.63 1-15.14 2.45-22.89 1.54-.46-.05-.55.7-.11.81 1.59.38 3.19.74 4.8 1a58.37 58.37 0 0 1-10.48-.47.65.65 0 0 0-.7.92c-3.2-.1-6.39-.22-9.59-.26a.35.35 0 0 0-.09.69c10.95 3.4 25.62 6.37 36.45.84-.59 1.14-1.19 2.28-1.81 3.41-2.09.49-4.09 1.43-6.18 2a31.22 31.22 0 0 1-7.81 1.05c-.38 0-.49.61-.09.69a38.64 38.64 0 0 0 9 .85c-5.72 1.1-11.32 2.81-17.18 3.19a.53.53 0 0 0 0 1.05c3.57.1 7.21.54 10.76.39a69.78 69.78 0 0 1-8.08 1.31c-4.28.36-8.56.42-12.85.4-.62 0-.81 1-.15 1.13 7.79 1.06 17.07 2.92 24.9.48-2.24 3.41-4.53 6.78-6.78 10.17-.26.39.31.79.63.48a96.38 96.38 0 0 0 16.62-21 30.6 30.6 0 0 0 5.03-10.31c0-.08.05-.17.08-.25q1-2.57 1.83-5.17c2-4.78 4.57-9.44 6.55-14.14.21-.39-.46-.57-.62-.27zm-18.68 33.19a2.65 2.65 0 0 1 0-.7v-.17l.58-.08z" fill="#75bd55"/><path d="M114.17 215.25a59.36 59.36 0 0 1-25.83-.95.15.15 0 0 0-.12.28 30 30 0 0 0 26.78 3.65 1.55 1.55 0 0 0-.83-2.98z" fill="#75bd55"/><path d="M124.74 210.39a57.61 57.61 0 0 1-18.15 1c-.43-.06-.49.63-.1.74 6.24 1.76 12.58 2.3 18.9.65 1.56-.42.89-2.68-.65-2.39z" fill="#75bd55"/><path d="M153.75 157c-5.76 1.45-11.21 4.22-16.92 5.92a69.29 69.29 0 0 1-18.91 3 .38.38 0 0 0-.1.74c11.95 2.68 26.73-.39 37.16-6.73a1.6 1.6 0 0 0-1.23-2.93z" fill="#75bd55"/><path d="M154 161.94a107.6 107.6 0 0 1-17.42 6.06.49.49 0 0 0 .13 1c5.66.1 15.75.46 18.45-5.85a.86.86 0 0 0-1.16-1.21z" fill="#75bd55"/><path d="M164.65 90.59c-.1-.3-.59-.27-.58.08.18 3.33.56 6.65 1 10a1.63 1.63 0 0 0-.64 0c-.68.08-1.35.17-2 .28a1 1 0 0 0-1.08-1.5c-4.19.63-8.32 1.59-12.53 2.18-.51.07-.39.91.12.9 2.57-.08 5.17-.18 7.75-.43-2.66.59-5.32 1.21-8 1.62a103.82 103.82 0 0 1-18.92 1.18c-.41 0-.52.68-.1.74 9.23 1.27 20.18 2.25 29.71 0a32.41 32.41 0 0 1-6.07 1.85c-.58.1-.43 1 .14 1 1.55 0 3.23 0 4.93-.1-4.23 1.37-9.53 1.77-13 2.38a132.9 132.9 0 0 1-20.38 2.01.34.34 0 0 0 0 .68 125.44 125.44 0 0 0 26.24-.17c1.41-.18 3.24-.3 5.13-.54-1.55.76-3.09 1.51-4.64 2.17-6.21 2.65-12.8 5.36-19.57 6.1-.7.08-.74 1.15 0 1.13a76.54 76.54 0 0 0 18.64-2.61 73.45 73.45 0 0 0 15-5.7 1.65 1.65 0 0 0-.1.25c-.51.46-1 .93-1.56 1.38-1 .79-2 1.91-3.29 2a.24.24 0 0 0-.12.44 3.94 3.94 0 0 0 2.27.59 112.83 112.83 0 0 1-22.61 9.93.63.63 0 0 0 .34 1.22c4.93-1 10.62-2 15.84-3.85q-.38.3-.77.59a74.22 74.22 0 0 1-9.36 3.23c-7.15 1.84-14.38 2.4-21.72 2.74a.18.18 0 0 0 0 .35 48.41 48.41 0 0 0 5.08 1c-11.17 1.75-22.34 4.29-33.41 6.54-.38.08-.24.59.08.62 11.74 1.27 24.7.18 35.76-4.15a1.67 1.67 0 0 0 .83-2.62c10.83 1 23.08-1 31.89-6.65a13.56 13.56 0 0 1-3.81 4.64c-14.77 5.44-30.33 11.2-46.21 12.21a.33.33 0 0 0 0 .66 95.86 95.86 0 0 0 26.95-2.1c6.6-1.34 14.86-2.62 20.45-6.89a19.4 19.4 0 0 0 2.6-2c3.62-3.25 4.44-6.3 5-11.05 1.38-11.03-1.93-21.92-5.28-32.33z" fill="#75bd55"/><path d="M130.56 152.11c-10.92 2.89-21.56 6.21-32.77 8.09-.33.06-.24.57.08.58 11.53.25 23.3-1 34-5.56 1.81-.77.5-3.58-1.31-3.11z" fill="#75bd55"/><path d="M156.15 87.3a423.48 423.48 0 0 1-48.8 4.31.49.49 0 0 0 0 1c16.06.7 34.49 3.82 49.67-3.22 1.27-.6.3-2.27-.87-2.09z" fill="#75bd55"/><path d="M162.55 92.5a101.93 101.93 0 0 0-15 5.27.4.4 0 0 0 .21.77 101.62 101.62 0 0 0 15.46-3.6 1.27 1.27 0 0 0-.67-2.44z" fill="#75bd55"/><path d="M155.7 63.39a14 14 0 0 0-3.35-7.1A39.32 39.32 0 0 0 147.9 50a44.87 44.87 0 0 0-7.28-7.09c-2.77-2.14-6-3.66-8.88-5.66 0-.69-.73-1.12-1.4-1.06a17.9 17.9 0 0 1-1.69-1.54c-.19-.2-.56.07-.39.3q.62.8 1.25 1.58c-1.62 1-2.84 2.73-4.23 4a23.89 23.89 0 0 1-5.81 4.12c-.37.17-.1.82.28.66 3.64-1.5 9.25-3.11 11.45-6.78.4.46.82.9 1.23 1.35-.71.81-1.35 1.69-2.09 2.47-.89.94-1.91 2.58-3.11 3.1-.36.15-.09.68.25.6a11.88 11.88 0 0 0 6.59-4.39l1.28 1.35c-2 1.61-3.77 3.67-5.8 5.32l-.64.51a2 2 0 0 0-2.73-1.16C115 53 102.95 58.1 90.69 60.41a.44.44 0 0 0 .12.85c10.78-.7 20.87-2.52 30.49-6.85a.35.35 0 0 0 .47.35 71.9 71.9 0 0 0 9.46-4.35c2.23-1.3 5.15-2.71 6.47-5l1.3 1.35c-6.47 4.92-13.53 9.55-21.26 12.17a.39.39 0 0 0 .21.75c5.18-1.22 10.07-2.39 14.91-4.7 2.79-1.33 6.41-3 8.74-5.41.57.62 1.16 1.27 1.75 1.94-9 3.42-17.23 10.29-27 11.52-.49.06-.53.8 0 .8a57.64 57.64 0 0 0 19.8-3.9 18.73 18.73 0 0 1-3.37 1.76c-.21.08-.21.46.06.44a30.76 30.76 0 0 0 14.42-5.65 26.29 26.29 0 0 1 2.55 4.46l-.4.21c.21-1.12-.59-2.39-2-1.93-9.17 3.09-17.56 8.36-26.79 11.41a.32.32 0 0 0 .17.61c6.48-1.13 13.41-2.3 19.73-4.74-.5.27-1 .52-1.53.75s-.11.79.28.66c3.86-1.28 8-2.26 11.31-4.67a10 10 0 0 1 .34 3.13.94.94 0 0 0 .09.45l-.16.13c-2.51 2-6.52 3-9.45 4.23-7.4 3.15-15.27 6.82-23.5 7.27a.3.3 0 0 0 0 .61c11.18.9 23.73-2.27 33.44-8 3.49-2.06 5.03-3.59 4.36-7.67z" fill="#75bd55"/><path d="M124 35.57c-5 4.08-9.29 8.87-14.83 12.34-.3.19-.11.73.25.6 6.36-2.26 12.94-5.45 17-11.06 1.13-1.53-1.18-2.91-2.42-1.88z" fill="#75bd55"/><path d="M13.5 102a53.39 53.39 0 0 0-5.68-5.8c-.76-.65-1.88.44-1.11 1.11 2.06 1.8 4.25 3.41 6.39 5.11a.28.28 0 0 0 .4-.42z" fill="#afe388"/><path d="M40.79 100.26C32.31 97.22 25 90.8 18.3 85a1.35 1.35 0 0 0-1.91 1.91C22.87 94.67 31.23 98 40.59 101c.48.16.67-.57.2-.74z" fill="#afe388"/><path d="M48.63 95.11c-9.4-5.46-16.79-13.6-24.32-21.27-1.12-1.14-3.31.39-2.31 1.76 6.72 9.4 16.19 15.06 26.25 20.16a.38.38 0 0 0 .38-.65z" fill="#afe388"/><path d="M48.11 126.89c-6.9-3-13.1-7.61-19.71-11.2a1.22 1.22 0 0 0-1.23 2.1c6.37 4.49 13.53 6.85 20.64 9.8.4.17.7-.53.3-.7z" fill="#afe388"/><path d="M47.71 142.89c-14.55-5.46-27-14.62-40.61-21.81-1.66-.87-3.56 1.32-2.07 2.69 11.67 10.74 27.56 15.73 42.53 19.72a.3.3 0 0 0 .15-.6z" fill="#afe388"/><path d="M127.3 45.53c-7.59 3.6-14.48 8.61-22.19 12-.42.19-.12.85.31.73 8.32-2.3 16.86-4.87 23.66-10.46 1.36-1.1-.38-2.94-1.78-2.27z" fill="#afe388"/><path d="M139.33 51.18c-4.9 4.17-9.5 8-15.61 10.42-.51.2-.3 1 .23.84 6-2.22 14-3.54 17.59-9.55.86-1.44-1.03-2.7-2.21-1.71z" fill="#afe388"/><path d="M138.84 44.46c-3.81 2.11-6.75 5.6-10.57 7.76a.44.44 0 0 0 .33.79c4.2-1.36 9.08-2.69 12-6.27a1.46 1.46 0 0 0-1.76-2.28z" fill="#afe388"/><path d="M142.35 48.64c-.29-.32-.72.14-.46.46 1.26 1.62 2.34 3.35 3.43 5.07a27.78 27.78 0 0 1-5.86 4c-.44.21-.13.9.33.77a15.8 15.8 0 0 0 6.47-3.34c.23.35.46.71.69 1.06-4.53 2.59-8.23 6.15-13.27 7.95a.4.4 0 0 0 .21.77c1.27-.33 2.61-.67 3.95-1.06a38 38 0 0 1-5.37 2.22.41.41 0 0 0 .22.79c5.65-1.23 11.87-2.45 16.77-5.75a14.57 14.57 0 0 1 .49 2.49 1.62 1.62 0 0 0-.6.18c-9.13 4.84-18 9.59-27.72 13.2a.42.42 0 0 0 .22.81c10-2.19 21.77-4 29.41-11.53a1.44 1.44 0 0 0 .41-1.45 1.16 1.16 0 0 0 .55-.51c3.55-6.16-6.53-12.38-9.87-16.13z" fill="#afe388"/><path d="M134.39 42.85c-2.95 2.77-5.61 6.06-9 8.38-.4.28 0 .94.39.67 3.56-2.3 8.71-3.28 11-7.16a1.57 1.57 0 0 0-2.39-1.89z" fill="#afe388"/><path d="M133.41 40.85a16.71 16.71 0 0 0-1.78 2.15 9.7 9.7 0 0 1-2.23 2 .33.33 0 0 0 .33.57 32.13 32.13 0 0 0 2.88-1.49 6.63 6.63 0 0 0 2.3-2.07c.61-.95-.72-1.88-1.5-1.16z" fill="#afe388"/><path d="M157 88.61c-9 1.76-17.71 4-26.83 5.07-.35 0-.52.63-.09.69 9.13 1.27 19.13.82 27.75-2.77a1.55 1.55 0 0 0-.83-2.99z" fill="#afe388"/><path d="M161.43 95.54c-12.36 1.66-24.33 5.75-36.65 7.59-.47.07-.36.87.11.83 12.42-1 25-1.17 37-5.34 1.51-.54 1.4-3.33-.46-3.08z" fill="#afe388"/><path d="M169.83 111.14c-1.11-5.32-3.68-10.58-4.58-15.85-.07-.4-.69-.29-.69.09 0 2.15-.14 4.31-.15 6.46-7 1.3-13.12 5.13-20.37 5.75-.5 0-.52.81 0 .8 4.13-.09 8.83 0 13.22-.7-3.4 1.33-6.75 3.06-10.12 4-.45.13-.39.9.12.85 2.91-.27 6.25-.34 9.44-.84-1.65.84-3.28 1.68-4.93 2.39a149 149 0 0 1-16.68 6.15c-.36.11-.31.74.09.69 9.83-1.14 22.49-2.91 30.75-9.09.07.23.13.46.21.69.15 1.59.37 3.19.46 4.78 0 .49.08 1 .13 1.56a1.61 1.61 0 0 0-2.34-1.08c-8.53 3.69-16.81 8.67-26.22 9.9-.45.06-.48.76 0 .73 8.14-.59 16.49-1.33 23.73-5.19l-.71.47a49 49 0 0 1-7.09 3.88c-.47.2-.31.94.22.79a72.69 72.69 0 0 0 9.49-2.85 24.8 24.8 0 0 1-4.73 2.74c-.44.17-.27.86.2.72 2.65-.77 5.28-1.3 7.57-2.82a.38.38 0 0 0 .66-.09c.08-.2.17-.39.25-.59a.84.84 0 0 0 .32-.76c1.12-2.44 2.25-4.42 2.44-7.4a16.85 16.85 0 0 0-.69-6.18zM166 120.6a1.75 1.75 0 0 0 .74-1.35l.1 1a9.25 9.25 0 0 0-.94.39z" fill="#afe388"/><path d="M159.29 132a132.87 132.87 0 0 1-21 7.15c-7.62 2.09-15.6 4.59-23.57 3.75-.46 0-.56.72-.11.81 8.09 1.47 15.67.38 23.63-1.39 7.48-1.66 16.17-3.2 22.5-7.77a1.48 1.48 0 0 0-1.45-2.55z" fill="#afe388"/><path d="M126.52 149.75c-8.68 2.14-17.3 4.81-26.25 5.62a.39.39 0 0 0 0 .77c9.22.12 18.27-.29 27-3.72a1.38 1.38 0 0 0-.75-2.67z" fill="#afe388"/><path d="M121.49 155c-5.87 1.8-11.7 3.85-17.63 5.42-.28.07-.24.57.07.53a76 76 0 0 0 18.1-4c1.21-.46.74-2.37-.54-1.95z" fill="#afe388"/><path d="M148.91 171.57a49.27 49.27 0 0 0-4.54 6.86c-10.89 1.39-21.34 4-32.47 2.84-.51-.05-.63.81-.12.9a107.26 107.26 0 0 0 17.66 1.83h-.15a.38.38 0 0 0 0 .75l2.65.13a88 88 0 0 1-14.41 1.66.35.35 0 0 0 0 .7c3 .19 5.87.29 8.75.24-1.15.27-2.29.53-3.44.77a.33.33 0 0 0 .09.64c5.83-.25 12.87 1.11 18.26-1.77-.26.85-.53 1.69-.86 2.51-.42 1 1.13 1.51 1.69.71 3.83-5.45 4.5-12.56 7.37-18.54a.27.27 0 0 0-.48-.23z" fill="#afe388"/><path d="M130.09 206.09c-8.06 1.19-15.53 5-23.86 4.17-.45 0-.54.69-.11.78 8.3 1.83 16.65.09 24.65-2.46a1.29 1.29 0 0 0-.68-2.49z" fill="#afe388"/><path d="M137.05 195c-9.25 1.91-18 5-27.52 5.9a.41.41 0 0 0 0 .82c9.55.18 19.72-.25 28.52-4.35 1.41-.67.37-2.68-1-2.37z" fill="#afe388"/><path d="M147.06 159c-8.43 2.27-16.45 5.92-25 7.94-.35.08-.29.69.09.64 8.8-1.07 17.88-2.12 26-6 1.43-.76.4-3.01-1.09-2.58z" fill="#afe388"/><path d="M156.94 154a1.44 1.44 0 0 0-1.22-2 2.61 2.61 0 0 0 .66-1.24 1.32 1.32 0 0 0-1.92-1.48 46.45 46.45 0 0 1-10.28 3.23c-.48.11-.39.94.12.87 1.4-.17 2.79-.41 4.19-.65l-.71.37a1.6 1.6 0 0 0-.32 2.48 1.93 1.93 0 0 0 .68.53c-2.4 1-4.79 2-7.19 2.89a.39.39 0 0 0 .21.75c5.06-.89 10.34-1.62 15.13-3.6a1.45 1.45 0 0 0 .65-2.15z" fill="#afe388"/><path d="M54.68 160.91c-9.89 1-20.38 1.39-29.92-1.72a1.29 1.29 0 0 0-1 2.36c10.25 5.35 20.49 2.9 31 0 .32-.13.24-.67-.08-.64z" fill="#afe388"/><path d="M37 169.4c-5.68-.7-10.43-3.41-15.7-5.34-1.24-.45-1.77 1.32-.84 2 4.75 3.38 10.94 3.81 16.54 3.94.42 0 .39-.56 0-.6z" fill="#afe388"/><path d="M42.51 189.23a40.61 40.61 0 0 1-9.59-4.91c-.64-.42-1.27-.88-1.89-1.35 1.68.51 3.37.93 4.9 1.36.38.11.67-.5.28-.66a41 41 0 0 1-7-4.32c-1.21-.84-2.36-1.82-3.58-2.68a3.71 3.71 0 0 0 2.14 0 1.24 1.24 0 0 0 .29-2.23l-.23-.16c1.54.25 3.1.46 4.7.56.3 0 .37-.48.07-.53A32.64 32.64 0 0 1 21.88 171h-.1c-.49-1-1-2-1.56-3a.22.22 0 0 0-.41.11c.06 1.3.2 2.58.38 3.86a1 1 0 0 0 .06.39c.41 2.78 1 5.53 1.44 8.32s1 5.86 3.26 7.95c.41.38 1.26 0 1-.59a11 11 0 0 1-.48-1.56 11.45 11.45 0 0 0 1.3.66c1.15.5 3.25 1.54 4.46.87.12-.07 0-.24-.09-.21-1.42.26-3.31-1.94-4.2-2.81-.67-.65-1.26-1.46-2-2.12v-.33c4.54 4.15 11.82 5.73 17.37 7.38a.35.35 0 0 0 .2-.69z" fill="#afe388"/><path d="M57.51 200.15c-7.69.64-15-1.94-22-4.78-1.48-.6-2.34 1.73-1.06 2.51 7.23 4.38 15.11 4.38 23.18 3 .37-.07.3-.77-.12-.73z" fill="#afe388"/><path d="M53.4 207.79c-7.39-.89-14-4.35-20.52-7.7-1.1-.56-2.5 1-1.41 1.82 6.43 5 14 6.29 21.93 6.53.44.02.41-.6 0-.65z" fill="#afe388"/><path d="M66.68 211.23a71.63 71.63 0 0 1-24-1.5c-1.56-.39-2.7 2-1.14 2.7 8.41 4 16.72 1.45 25.25-.53.34-.09.28-.71-.11-.67z" fill="#afe388"/><path d="M115.73 120c-4.19-.42-8.24.75-12.41 1.13-1.66.15-3.31.23-5 .3a14.65 14.65 0 0 0 6.32-3.71c.2-.22-.06-.61-.33-.43-3.67 2.38-8.7.79-12.76 1.42v-.23a14.63 14.63 0 0 0 2-.16c.84-.14 1.62-.46 2.45-.61.37-.07.26-.6-.08-.62h-.18c4.55-.63 9.35-3.08 13-5 .37-.2.09-.69-.27-.63-3.23.5-6.49.87-9.72 1.3-2.42.33-4.95.34-7.22 1.2a.9.9 0 0 0-.17-.07c-.09-1.13-.23-2.28-.38-3.43a1 1 0 0 0 .25 0c1.49-.35 3-.65 4.51-.93a9.65 9.65 0 0 0 3.56-.93.21.21 0 0 0-.16-.39c-1.32.24-2.91-.22-4.26-.21h-.71c.14-.54-.15-1.28-.82-1.19a12.08 12.08 0 0 1-2.71-.13.78.78 0 0 0-.25 0c-.21-1.13-.44-2.27-.71-3.43 0-.18-.35-.15-.33 0 .31 3.44.57 6.87.64 10.3-4-.63-8.27-.11-12.22-.51-.29 0-.35.44-.07.5 2.12.48 4.29 1.49 6.5 2.21a10.42 10.42 0 0 1-1.24-.27c-.25-.07-.43.32-.18.43a17.74 17.74 0 0 0 3.11.91 68.52 68.52 0 0 1-14.78-.66.25.25 0 0 0-.14.49 42 42 0 0 0 10 2.28c1.5.15 3.05.37 4.58.39-2.15.29-4.35.89-6.23.92a.29.29 0 0 0 0 .57c1.91.16 4.08.9 6.22 1.3h-1.61c-.53 0-.43.64 0 .69 1.89.24 3.67.59 5.54.65v.07a1.19 1.19 0 0 0-.38 0c-4.92.57-11.39 1.82-16.22.36-.38-.11-.53.46-.16.59a49 49 0 0 0 10.2 2.4 10.52 10.52 0 0 1-3 .1c-.33 0-.48.42-.14.51 2.75.72 5.89 2 8.75 1.24-.11.49-.21 1-.31 1.46s-.21 1-.3 1.54c-.16.86-.29 1.71-.39 2.58-1.77 0-3.48-.22-5.27-.37-1.44-.12-6.92.31-7.63-1.11-.1-.19-.44-.06-.35.15.83 2.08 4.2 2.48 6.07 3 1.31.38 2.9 1 4.47 1.33-.31.06-.62.12-.93.15-1 .11-2-.18-2.9.38a.2.2 0 0 0 .21.35c1.32-.67 2.68.25 4 .47a6.08 6.08 0 0 0 2.12 0v1.4a24.69 24.69 0 0 1-4 .45c-.39 0-.39.6 0 .61 1.32.05 2.65.29 4 .22 0 2.42.12 4.85.32 7.29 0 .36.63.51.69.09.33-2.39.69-4.77 1-7.16 1.79.55 4.27 0 5.88-.25a28.17 28.17 0 0 0 8.18-2.61.33.33 0 0 0-.16-.61 53.06 53.06 0 0 1-6.94-.32c-1.52-.08-5 .54-6.41-.16.27-2 .52-4 .71-6 4.92 3.16 13.79 0 18.38-2.27a.32.32 0 0 0-.16-.59c-4.49.12-9.17.39-13.72.13 1.64-.32 3.16-.89 2.36-1.85a.27.27 0 0 0-.44.26c-.09-.25.26-.16-.46-.21h-.19a1.85 1.85 0 0 0 .15-1.07 2 2 0 0 0-.29-.77 61.26 61.26 0 0 0 6.24-.83c4.68-.7 8.8-2.81 13.36-3.82.36-.09.19-.58-.08-.58z" fill="#274f15"/><path d="M84.06 55.35a12.44 12.44 0 0 1-3.29.84c-.5 0-1.08.53-.84 1.11a2 2 0 0 0 .22.38A42.31 42.31 0 0 1 73.28 59c-.26 0-.26.43 0 .41 3.36-.25 6.68-.37 10-.85h.24c.77-.12.77-.92.36-1.4a8.3 8.3 0 0 0 .76-.36c.81-.42.29-1.8-.58-1.45z" fill="#274f15"/><path d="M94.45 63.6a27.07 27.07 0 0 1-7.72.82.87.87 0 0 0-.28 0c-.47-1.74-1.27-3.39-1.34-5.21 0-.13-.21-.17-.23 0-.4 2.35.11 4.82-.06 7.21v.68c-2.12.54-4 1.69-6.26 1.93-.26 0-.28.43 0 .42 2-.06 4.2.13 6.16-.48l.1.1A9 9 0 0 0 86 73.22c.24.41 1 .27 1-.26a28.51 28.51 0 0 1-.15-3.87 9.35 9.35 0 0 0 4-1.88 1.23 1.23 0 0 0 .19-1.44 1.63 1.63 0 0 0-.4-.54c1.32-.4 2.66-.77 3.94-1.13a.26.26 0 0 0-.13-.5z" fill="#274f15"/><path d="M94.49 193.07a18.37 18.37 0 0 0-6.92-.6c.06-.45.11-.89.16-1.34s.1-.74.16-1.12a7.32 7.32 0 0 0 1.93-.56.86.86 0 0 0 .5-.61 1.25 1.25 0 0 0 .76-1.17 1.84 1.84 0 0 0-1-1.4c.71-.13 1.42-.25 2.1-.4.3-.07.16-.49-.12-.45a9.54 9.54 0 0 1-4.11-.17.72.72 0 0 0-.28 0c-.19-.68-.41-1.36-.56-2 0-.2-.39-.16-.37 0a9.42 9.42 0 0 1-.27 2.91c-.6-.05-1.26 0-1.72 0a57.42 57.42 0 0 1-7.07-.59c-.3-.05-.44.4-.13.47 1.68.38 3.31.92 5 1.38l1.66.49a3.19 3.19 0 0 0-1.82.54h-1c-.27 0-.25.38 0 .41l.65.06a1.24 1.24 0 0 0-.13.35 1.41 1.41 0 0 0 1 1.59 1.26 1.26 0 0 0-.1.28 1.41 1.41 0 0 0 0 .64c-3.09.22-6.23 1-9.33.88-.21 0-.27.35-.05.38 3.72.58 7.94 1.86 11.72.91v.09a17.09 17.09 0 0 0-.37 1.79 33.21 33.21 0 0 0-3.33-.11.18.18 0 0 0 0 .36 27.12 27.12 0 0 1 3.23.42c-.27 2.16-.21 4.31-.34 6.6 0 .26.41.32.46.06.33-1.73.83-3.39 1.28-5.06 2 .26 3.8-.84 5.8-1.18.26 0 .2-.48-.06-.46-1.7.13-3.36-.5-5.06-.48q.18-.61.32-1.24a20.15 20.15 0 0 0 3.11-.14c.55-.06 3.78-.21 3.92-.65 0 .1.12.16.17.07l.22-.25a.4.4 0 0 0-.01-.7z" fill="#274f15"/><path d="M165.69 100.4c0-.12-.25-.1-.23 0 .2 1.59.5 3.33.8 5.14a1 1 0 0 0-.18 0c-1.58.13-3 1-4.47 1.45a18.1 18.1 0 0 1-5.43 1 .23.23 0 0 0-.06.44 24.69 24.69 0 0 0 5.7.85c-2.35 1-4.62 2.47-6.85 3.3a.2.2 0 0 0 .1.38c3.68-1 8.41-.65 11.67-2.85a1 1 0 0 0 .18-.17c.13 1 .23 2 .3 3a1.14 1.14 0 0 0-.23.16 16.2 16.2 0 0 1-3.64 2.42 24.63 24.63 0 0 1-4.87 2.33.23.23 0 0 0 .12.44 62.61 62.61 0 0 0 7.08-1.39 12.84 12.84 0 0 0 1.64-.62c0 .62 0 1.23-.1 1.83a1.05 1.05 0 0 0-.45 0c-2.22.6-4.18 2-6.29 3a30.25 30.25 0 0 1-8 2.62c-.26 0-.2.49.06.46 4.5-.53 10.23-.61 14.19-3.23a12.67 12.67 0 0 1-.42 1.26c-.26.66.8 1.09 1.14.48 4.21-7.58.55-14.7-1.76-22.3z" fill="#d5f2bf"/><path d="M34.53 137.27c-9-3.82-16.67-9.91-24.82-15.12-1.2-.77-2.46 1-1.5 1.94 7.14 7.29 16.58 10.83 26.13 13.63.26.07.45-.34.19-.45z" fill="#d5f2bf"/><path d="M14.23 111.9c-2.52-2.66-4.77-5.61-7.1-8.46 1.34 1 2.73 2 4 3.1.22.19.53-.12.32-.32A55.93 55.93 0 0 1 7 100.88c-.75-.92-1.48-2-2.3-2.92.88.6 1.79 1.15 2.66 1.72.21.14.41-.16.26-.33A27.26 27.26 0 0 0 3.36 95c-.62-.43-1.27.4-.94 1-.8-.25-1.41.7-1.09 1.45.05.12.12.23.18.35a1 1 0 0 0-.87 1.28c2.12 5.72 8.94 9.26 13.28 13.13a.23.23 0 0 0 .31-.31z" fill="#d5f2bf"/><path d="M52.11 47.5c-2.33.7-5 .19-7.33-.26C43.8 47 43 48.46 44 48.95c3 1.41 5.61.65 8.26-1a.27.27 0 0 0-.15-.45z" fill="#d5f2bf"/><path d="M142.72 184.37c-.51 0-1 0-1.52.08l.58-.26c.92-.46.52-2.14-.54-2-4.66.56-9.15 2.61-13.87 2.84a.23.23 0 0 0 0 .45c2.34.13 4.72.36 7.07.31-4 1-8 2-12.3.54-.21-.07-.37.28-.16.37 6.4 2.79 14.85 2.35 21.25-.43.96-.43.43-1.91-.51-1.9z" fill="#d5f2bf"/><path d="M140.86 180.67c-1.59.46-3.15 1.36-4.83 1.47a.17.17 0 0 0 0 .34c1.84.06 3.61.26 5.3-.69a.62.62 0 0 0-.47-1.12z" fill="#d5f2bf"/><path d="M34.31 184.42c-2.59-1.18-5-3-7.53-4.3a17.42 17.42 0 0 1 2.68 1.1c.23.12.44-.22.2-.35-2.16-1.19-4.23-2.55-6.66-3.14a.59.59 0 0 0-.31 1.13l.31.14a1.11 1.11 0 0 0 0 1.78c3.2 2.34 7.42 2.85 11.08 4.08.3.06.47-.33.23-.44z" fill="#d5f2bf"/><path d="M63 209.22c-7.67.14-15.64-.43-22.54-4a1.16 1.16 0 0 0-1.17 2c7.32 5.06 15.53 3.63 23.77 2.45.27-.05.21-.45-.06-.45z" fill="#d5f2bf"/></g></g></svg>