<svg xmlns="http://www.w3.org/2000/svg" viewBox="0 -1.1000003814697266 95.4000015258789 82.9800033569336"><title>26237193_2_ic</title><g data-name="Layer 2"><g data-name="Layer 1"><path d="M0 16.35S11 1.66 20.46.28s18 2.3 25.6 12S60 28.71 73.29 24.57 92.74 7 92.74 7s2.66 22.93-1.94 36.5-12.41 21.61-20.23 27.58-35.4 10.8-49-6S15.86 22.55 0 16.35z" fill="#f0f9fe"/><path d="M4 16.89S14.17 4.66 22.81 3.4s14.76 3.37 21.72 12.23 14.76 16.66 27 12.86 19.19-14.13 19.19-14.13.84 16.24-3.38 28.64S76 62.87 68.78 68.35s-32.48 9.91-44.92-5.48S18.59 22.59 4 16.89z" fill="#80cff5"/><path d="M38.61 34.62a41.46 41.46 0 0 1 18.79-22.9 39.58 39.58 0 0 1 20.12-5.21 43.55 43.55 0 0 0-7.1 15.62c-2.37 9.71-4 26.75-12 29.83s-24.31-1.25-19.81-17.34z" fill="#f0f9fe"/><path d="M40.88 34.76A36.94 36.94 0 0 1 56.79 13.7a35.25 35.25 0 0 1 17.72-5.36 38.76 38.76 0 0 0-5.76 14.16c-1.76 8.72-2.62 24-9.57 27s-21.72-.25-18.3-14.74z" fill="#b4e0f5"/><circle cx="21.48" cy="15.68" r="4.96" fill="#f0f9fe"/><circle cx="21.48" cy="15.68" r="3.24" fill="#80cff5"/><circle cx="46.75" cy="43.69" r="2.09" fill="#f0f9fe"/><circle cx="45.32" cy="34.37" r="2.09" fill="#f0f9fe"/><circle cx="53.03" cy="41.16" r="2.09" fill="#f0f9fe"/><circle cx="61.37" cy="37" r="2.09" fill="#f0f9fe"/><circle cx="54.13" cy="32.28" r="2.09" fill="#f0f9fe"/><circle cx="48.85" cy="26.59" r="2.09" fill="#f0f9fe"/><circle cx="56.22" cy="25.95" r="2.09" fill="#f0f9fe"/><circle cx="64.1" cy="28.68" r="2.09" fill="#f0f9fe"/><circle cx="62.01" cy="20.63" r="2.09" fill="#f0f9fe"/><circle cx="56.22" cy="17.77" r="2.09" fill="#f0f9fe"/><circle cx="66.98" cy="13.77" r="2.09" fill="#f0f9fe"/><circle cx="57.68" cy="45.79" r="2.09" transform="rotate(-15.7 57.27 45.567)" fill="#f0f9fe"/><path d="M25.6 27.58a2.16 2.16 0 0 0-1.32 1.66A2.16 2.16 0 0 0 21 31.79c.94 2.29 5.12 2.39 5.28 2.32s3.07-3.07 2.13-5.36a2.16 2.16 0 0 0-2.81-1.17z" fill="#b4e0f5"/><path d="M34.84 14.58a2.16 2.16 0 0 0-1.31 1.66 2.16 2.16 0 0 0-3.28 2.55c.94 2.29 5.12 2.39 5.28 2.32s3.07-3.11 2.13-5.35a2.16 2.16 0 0 0-2.82-1.18z" fill="#b4e0f5"/><path d="M22.36 41.16A2.16 2.16 0 0 0 21 42.83a2.16 2.16 0 0 0-3.28 2.55c.94 2.29 5.11 2.39 5.28 2.32s3.07-3.07 2.13-5.36a2.16 2.16 0 0 0-2.77-1.18z" fill="#b4e0f5"/><path d="M29.48 57.66a2.16 2.16 0 0 0-1.31 1.66 2.16 2.16 0 0 0-3.28 2.55c.94 2.29 5.12 2.39 5.28 2.32s3.07-3.07 2.13-5.36a2.16 2.16 0 0 0-2.82-1.17z" fill="#b4e0f5"/><path d="M33.36 44.69A2.16 2.16 0 0 0 32 46.35a2.16 2.16 0 0 0-3.28 2.55c.94 2.29 5.11 2.39 5.28 2.32s3.07-3.07 2.13-5.36a2.16 2.16 0 0 0-2.77-1.17z" fill="#b4e0f5"/><path d="M42.6 54.3a2.16 2.16 0 0 0-1.31 1.7A2.16 2.16 0 0 0 38 58.52c.94 2.29 5.11 2.39 5.28 2.32s3.07-3.07 2.13-5.36a2.16 2.16 0 0 0-2.81-1.18z" fill="#b4e0f5"/><path d="M51.82 64.37A2.16 2.16 0 0 0 50.5 66a2.16 2.16 0 0 0-3.28 2.55c.94 2.29 5.11 2.39 5.28 2.32s3.07-3.07 2.13-5.36a2.16 2.16 0 0 0-2.81-1.14z" fill="#b4e0f5"/><path d="M61 54.3a2.16 2.16 0 0 0-1.34 1.7 2.16 2.16 0 0 0-3.28 2.55c.94 2.29 5.11 2.39 5.28 2.32s3.07-3.07 2.13-5.36A2.16 2.16 0 0 0 61 54.3z" fill="#b4e0f5"/><path d="M74.46 50.95a2.16 2.16 0 0 0-1.31 1.66 2.16 2.16 0 0 0-3.28 2.55c.94 2.29 5.11 2.39 5.28 2.32s3.07-3.07 2.13-5.36a2.16 2.16 0 0 0-2.82-1.17z" fill="#b4e0f5"/><path d="M73.83 35.9a2.16 2.16 0 0 0-1.31 1.66 2.16 2.16 0 0 0-3.28 2.55c.94 2.29 5.11 2.39 5.28 2.32s3.07-3.07 2.13-5.36a2.16 2.16 0 0 0-2.82-1.17z" fill="#b4e0f5"/><path d="M85.47 27.95a2.16 2.16 0 0 0-1.31 1.66 2.16 2.16 0 0 0-3.28 2.55c.94 2.29 5.12 2.39 5.28 2.32s3.07-3.07 2.13-5.36a2.16 2.16 0 0 0-2.82-1.17z" fill="#b4e0f5"/></g></g></svg>