<svg xmlns="http://www.w3.org/2000/svg" viewBox="-0.44587087631225586 0 250.74131774902344 284.69219970703125"><title>Depositphotos_125585566_14</title><g data-name="Layer 2"><path d="M131.67 149.78l-30.42 5.46L1.93 41.39a105.25 105.25 0 0 0-1.55 29C.9 76.49 2 88.85 7.77 100.66c5.71 11.62 14.55 19.72 31.77 30.7a323.71 323.71 0 0 0 70 33.33l18.46-2.86 25.22 19.61 6-11.71z" fill="#909699"/><path d="M95.51 159.59q3.07 1.2 6.28 2.37l26.78-4.81 27.08 19.61 3.58-7-27.56-20-30.42 5.46L1.93 41.39c-.51 2.66-1 5.8-1.38 9.35z" fill="#fff" opacity=".87"/><rect x="162.5" y="151.15" width="13.99" height="70.35" rx="4.18" ry="4.18" transform="rotate(-51.21 169.473 186.316)" fill="#cf4964"/><path d="M189.27 151.27a36 36 0 1 0 49.91 9.78 36 36 0 0 0-49.91-9.78zM221 198.53a21 21 0 1 1 5.71-29.11 21 21 0 0 1-5.71 29.11z" fill="#cf4964"/><path d="M114.9 161.06L131.44 135 63.51 0A105.26 105.26 0 0 1 91 9.52c5.43 2.78 16.47 8.42 25.21 18.26 8.61 9.68 12.77 20.92 16.44 41a323.71 323.71 0 0 1 4.45 77.36l-9.65 16.09 8.62 30.77-13.07 1.11z" fill="#9f9996"/><path d="M137.63 131.28q-.05 3.3-.17 6.71L122.9 161l7.93 32.48-7.86.67-8.07-33.05 16.54-26.1L63.51 0c2.65.53 5.75 1.25 9.18 2.25z" fill="#fff" opacity=".45"/><rect x="127.47" y="174.71" width="13.99" height="70.35" rx="4.18" ry="4.18" transform="rotate(163.39 134.469 209.873)" fill="#cf4964"/><path d="M84.76 264.86A36 36 0 1 0 94.54 215a36 36 0 0 0-9.78 49.86zm12.44-8.36a21 21 0 1 1 29.11 5.71 21 21 0 0 1-29.12-5.71z" fill="#cf4964"/><g opacity=".35" fill="#fff"><path d="M224 196.16a21 21 0 1 0-23-34.26 21 21 0 0 1 23 34.26z"/><path d="M185.7 197a36 36 0 0 1 6.78-47.66 36.35 36.35 0 0 0-3.22 1.93A36 36 0 0 0 229.39 211a36.38 36.38 0 0 0 3-2.25A36 36 0 0 1 185.7 197z"/></g><g opacity=".35" fill="#fff"><path d="M129.23 259.84a21 21 0 1 0-23-34.26 21 21 0 0 1 23 34.26z"/><path d="M91 260.68A36 36 0 0 1 97.76 213a36.38 36.38 0 0 0-3.22 2 36 36 0 0 0 40.13 59.69 36.37 36.37 0 0 0 3-2.25A36 36 0 0 1 91 260.68z"/></g><circle cx="123.71" cy="156.85" r="4.29" transform="rotate(-33.91 123.705 156.842)" fill="#363a3a"/><circle cx="122.45" cy="156.88" r="1.81" transform="rotate(-33.9 122.222 156.21)" fill="#cef3ff" opacity=".38"/></g></svg>