<svg xmlns="http://www.w3.org/2000/svg" viewBox="-0.679999828338623 0 384.340003490448 110.3055419921875"><title>Depositphotos_84359944_10</title><g data-name="Layer 2"><g data-name="Layer 5" style="isolation:isolate"><path fill="#231f20" d="M255.97 50.77h8.24v55.66h-8.24z"/><path fill="#2e2b33" d="M263.02 51.79h1.17v53.58h-1.17z"/><path fill="#2e2b33" d="M260.77 51.79h1.17v53.58h-1.17z"/><path fill="#2e2b33" d="M258.32 51.79h1.17v53.58h-1.17z"/><path fill="#2e2b33" d="M255.97 51.79h1.17v53.58h-1.17z"/><path fill="#231f20" d="M118.78 50.77h8.24v55.66h-8.24z"/><path fill="#2e2b33" d="M125.84 51.79h1.17v53.58h-1.17z"/><path fill="#2e2b33" d="M123.58 51.79h1.17v53.58h-1.17z"/><path fill="#2e2b33" d="M121.13 51.79h1.17v53.58h-1.17z"/><path fill="#2e2b33" d="M118.78 51.79h1.17v53.58h-1.17z"/><path fill="#000003" d="M278.29 99.36h36.47v2.16h-36.47z"/><path d="M310.1 110.3a5.94 5.94 0 1 1 5.93-5.94 5.94 5.94 0 0 1-5.93 5.94zm0-10.86a4.93 4.93 0 1 0 4.93 4.92 4.93 4.93 0 0 0-4.93-4.92z" fill="#000003"/><path d="M310.1 108.81a4.45 4.45 0 1 1 4.45-4.45 4.46 4.46 0 0 1-4.45 4.45z" fill="#140a0a"/><path d="M310.1 109.39a5 5 0 1 1 5-5 5 5 0 0 1-5 5zm0-9.14a4.15 4.15 0 1 0 4.15 4.15 4.15 4.15 0 0 0-4.15-4.15z" fill="#2e2b33"/><path d="M283 110.3a5.94 5.94 0 1 1 5.93-5.94 5.94 5.94 0 0 1-5.93 5.94zm0-10.86a4.93 4.93 0 1 0 4.93 4.92 4.93 4.93 0 0 0-4.93-4.92z" fill="#000003"/><path d="M283 108.81a4.45 4.45 0 1 1 4.45-4.45 4.45 4.45 0 0 1-4.45 4.45z" fill="#140a0a"/><path d="M283 109.39a5 5 0 1 1 5-5 5 5 0 0 1-5 5zm0-9.14a4.15 4.15 0 1 0 4.15 4.15 4.15 4.15 0 0 0-4.15-4.15z" fill="#2e2b33"/><path d="M306.25 107.65h-19.4a.63.63 0 0 1-.45-1.07 15 15 0 0 1 20.29 0 .63.63 0 0 1-.45 1.07zm-17.72-1.26h16a14.17 14.17 0 0 0-16 0z" fill="#231f20"/><path fill="#231f20" d="M306.36 104.93h1.56v3.24h-1.56z"/><path fill="#231f20" d="M285.17 104.93h1.55v3.24h-1.55z"/><path d="M283 106a1.68 1.68 0 1 1 1.68-1.68A1.68 1.68 0 0 1 283 106z" fill="#2e2b33"/><path d="M310.1 106a1.68 1.68 0 1 1 1.68-1.68 1.68 1.68 0 0 1-1.68 1.68z" fill="#2e2b33"/><path fill="#231f20" d="M294.71 108.17h3.64l.86-7.89v-5.69h-5.36v5.69l.86 7.89z"/><path d="M301.12 109.39h-9.18a3 3 0 0 1-3-3h1.36a1.66 1.66 0 0 0 1.65 1.65h9.18a1.66 1.66 0 0 0 1.65-1.65h1.36a3 3 0 0 1-3 3z" fill="#2e2b33"/><path fill="#000003" d="M68.19 99.36h36.47v2.16H68.19z"/><path d="M100 110.3a5.94 5.94 0 1 1 5.93-5.94 5.94 5.94 0 0 1-5.93 5.94zm0-10.86a4.93 4.93 0 1 0 4.93 4.92 4.93 4.93 0 0 0-4.93-4.92z" fill="#000003"/><path d="M100 108.81a4.45 4.45 0 1 1 4.45-4.45 4.45 4.45 0 0 1-4.45 4.45z" fill="#140a0a"/><path d="M100 109.39a5 5 0 1 1 5-5 5 5 0 0 1-5 5zm0-9.14a4.15 4.15 0 1 0 4.15 4.15 4.15 4.15 0 0 0-4.15-4.15z" fill="#2e2b33"/><path d="M72.88 110.3a5.94 5.94 0 1 1 5.93-5.94 5.94 5.94 0 0 1-5.93 5.94zm0-10.86a4.93 4.93 0 1 0 4.93 4.92 4.93 4.93 0 0 0-4.93-4.92z" fill="#000003"/><path d="M72.88 108.81a4.45 4.45 0 1 1 4.45-4.45 4.45 4.45 0 0 1-4.45 4.45z" fill="#140a0a"/><path d="M72.88 109.39a5 5 0 1 1 5-5 5 5 0 0 1-5 5zm0-9.14A4.15 4.15 0 1 0 77 104.4a4.15 4.15 0 0 0-4.15-4.15z" fill="#2e2b33"/><path d="M96.15 107.65h-19.4a.63.63 0 0 1-.45-1.07 15 15 0 0 1 20.29 0 .63.63 0 0 1-.45 1.07zm-17.72-1.26h16a14.17 14.17 0 0 0-16 0z" fill="#231f20"/><path fill="#231f20" d="M96.26 104.93h1.55v3.24h-1.55z"/><path fill="#231f20" d="M75.07 104.93h1.55v3.24h-1.55z"/><path d="M72.88 106a1.68 1.68 0 1 1 1.68-1.68 1.68 1.68 0 0 1-1.68 1.68z" fill="#2e2b33"/><path d="M100 106a1.68 1.68 0 1 1 1.68-1.68A1.68 1.68 0 0 1 100 106z" fill="#2e2b33"/><path fill="#231f20" d="M84.61 108.17h3.64l.86-7.89v-5.69h-5.36v5.69l.86 7.89z"/><path d="M91 109.39h-9.16a3 3 0 0 1-3-3h1.36a1.66 1.66 0 0 0 1.64 1.61H91a1.66 1.66 0 0 0 1.65-1.65H94a3 3 0 0 1-3 3z" fill="#2e2b33"/><path fill="#000003" d="M173.24 99.36h36.47v2.16h-36.47z"/><path d="M205.06 110.3a5.94 5.94 0 1 1 5.93-5.94 5.94 5.94 0 0 1-5.93 5.94zm0-10.86a4.93 4.93 0 1 0 4.93 4.92 4.93 4.93 0 0 0-4.93-4.92z" fill="#000003"/><path d="M205.06 108.81a4.45 4.45 0 1 1 4.45-4.45 4.45 4.45 0 0 1-4.45 4.45z" fill="#140a0a"/><path d="M205.06 109.39a5 5 0 1 1 5-5 5 5 0 0 1-5 5zm0-9.14a4.15 4.15 0 1 0 4.15 4.15 4.15 4.15 0 0 0-4.15-4.15z" fill="#2e2b33"/><path d="M177.93 110.3a5.94 5.94 0 1 1 5.93-5.94 5.94 5.94 0 0 1-5.93 5.94zm0-10.86a4.93 4.93 0 1 0 4.93 4.92 4.93 4.93 0 0 0-4.93-4.92z" fill="#000003"/><path d="M177.93 108.81a4.45 4.45 0 1 1 4.45-4.45 4.45 4.45 0 0 1-4.45 4.45z" fill="#140a0a"/><path d="M177.93 109.39a5 5 0 1 1 5-5 5 5 0 0 1-5 5zm0-9.14a4.15 4.15 0 1 0 4.15 4.15 4.15 4.15 0 0 0-4.15-4.15z" fill="#2e2b33"/><path d="M201.2 107.65h-19.4a.63.63 0 0 1-.45-1.07 15 15 0 0 1 20.29 0 .63.63 0 0 1-.45 1.07zm-17.72-1.26h16a14.17 14.17 0 0 0-16 0z" fill="#231f20"/><path fill="#231f20" d="M201.31 104.93h1.56v3.24h-1.56z"/><path fill="#231f20" d="M180.12 104.93h1.55v3.24h-1.55z"/><path d="M177.93 106a1.68 1.68 0 1 1 1.68-1.68 1.68 1.68 0 0 1-1.68 1.68z" fill="#2e2b33"/><path d="M205.06 106a1.68 1.68 0 1 1 1.68-1.68 1.68 1.68 0 0 1-1.68 1.68z" fill="#2e2b33"/><path fill="#231f20" d="M189.66 108.17h3.64l.86-7.89v-5.69h-5.36v5.69l.86 7.89z"/><path d="M196.07 109.39h-9.18a3 3 0 0 1-3-3h1.36a1.66 1.66 0 0 0 1.65 1.65h9.18a1.66 1.66 0 0 0 1.65-1.65h1.36a3 3 0 0 1-3 3z" fill="#2e2b33"/><path d="M363.26 57.9a23.62 23.62 0 0 0-16.43-7.19h-82.62v55.71h111.17c5.44 0 8.28-6.34 7.46-12C380.88 81 373.24 68 363.26 57.9z" fill="#f2f2f4"/><path d="M264.2 56.92h72.73a17.44 17.44 0 0 1 12 5.34c9 9.09 15.15 19.87 17.36 30.35a6.21 6.21 0 0 0 6.08 4.93h10.55a13.72 13.72 0 0 0-.09-3.09c-2-13.5-9.6-26.46-19.59-36.56a23.62 23.62 0 0 0-16.43-7.19h-82.62z" fill="#db3333"/><path d="M336.33 102.58v-16H380c-.09-.3-.19-.59-.29-.89h-43.38V60.42h29.3l-.81-.89h-28.49v-8.82h-.89v8.82H297V50.7h-.89v8.83H264.2v.89h31.9v34.45h-26.29a1.66 1.66 0 0 0-1.66 1.66v6.06h-4v.89h4v3h.85v-9.9a.77.77 0 0 1 .77-.77h26.33v10.67h.9V95.76h26.28a.77.77 0 0 1 .77.77v9.9h.89v-3h55.95a9.7 9.7 0 0 0 .58-.89zm-.89 0h-10.52v-6.05a1.66 1.66 0 0 0-1.66-1.66H297V60.42h38.46z" style="mix-blend-mode:multiply" fill="#1a3b51" opacity=".25"/><path d="M343 103.47V64.28a1.66 1.66 0 0 0-1.66-1.66h-10.87a1.66 1.66 0 0 0-1.66 1.66v39.19z" fill="#000003"/><path fill="#1a3b51" d="M330.15 87.89h11.49v6.02h-11.49z"/><path fill="#1a3b51" d="M330.15 67.04h11.49v18.65h-11.49z"/><path fill="#1a3b51" d="M330.15 96.12h11.49v6.02h-11.49z"/><rect x="268.16" y="62.62" width="56.76" height="29.22" rx="1.66" ry="1.66" fill="#000003"/><path d="M297 67v23.51h26.28a.33.33 0 0 0 .32-.32V67z" fill="#1a3b51"/><path d="M296.1 67h-26.61v23.19a.33.33 0 0 0 .33.32h26.28z" fill="#1a3b51"/><path fill="#000003" d="M320.307 103.08l.94-.94.94.941-.94.94z"/><path fill="#000003" d="M298.813 103.076l.94-.94.941.94-.94.94z"/><path fill="#000003" d="M292.378 103.072l.942-.94.939.943-.942.939z"/><path fill="#000003" d="M270.87 103.081l.94-.94.94.941-.94.94z"/><circle cx="344.93" cy="90.07" r="1.2" fill="#e5dfda"/><circle cx="344.93" cy="90.07" r=".69" fill="#f05a33"/><path d="M349.28 62.62h-.76a1.66 1.66 0 0 0-1.66 1.66v25.91a1.66 1.66 0 0 0 1.66 1.66h17.6c-2.32-10.11-8.26-20.44-16.84-29.23z" fill="#000003"/><path d="M351.52 67h-3.33v23.19a.33.33 0 0 0 .33.32h15.9A61.27 61.27 0 0 0 351.52 67z" fill="#1a3b51"/><path d="M369.8 91.84h12.62c-2.11-10.54-7.6-20.65-14.83-29.22h-13.42c8 8.93 13.51 19.18 15.63 29.22z" fill="#000003"/><path d="M357.08 64c6.84 8.24 11.68 17.54 13.79 26.56h11.26C380 81 375.08 71.86 368.69 64z" fill="#1a3b51"/><path d="M374.57 94.46a4 4 0 0 1 .37-1.67H372a1.67 1.67 0 0 0 0 3.33h2.91a4 4 0 0 1-.34-1.66z" style="mix-blend-mode:multiply" fill="#1a3b51" opacity=".25"/><path d="M372.87 94.46a1.29 1.29 0 1 0-1.25 1.61 1.66 1.66 0 0 0 1.25-1.61z" fill="#d0d2d3"/><path d="M19.72 57.9a23.62 23.62 0 0 1 16.43-7.19h82.62v55.71H7.6c-5.44 0-8.28-6.34-7.46-12C2.1 81 9.74 68 19.72 57.9z" fill="#f2f2f4"/><path d="M118.78 56.92H46.05a17.44 17.44 0 0 0-12 5.34c-9 9.09-15.15 19.87-17.36 30.35a6.21 6.21 0 0 1-6.08 4.93H.05a13.6 13.6 0 0 1 .09-3.09C2.1 81 9.74 68 19.72 57.9a23.62 23.62 0 0 1 16.43-7.19h82.62z" fill="#db3333"/><path d="M1.54 102.58a9.5 9.5 0 0 0 .58.89h55.94v3h.89v-9.9a.77.77 0 0 1 .77-.77H86v10.67h.89V95.76h26.28a.77.77 0 0 1 .77.77v9.9h.89v-3h4v-.89h-4v-6.01a1.66 1.66 0 0 0-1.66-1.66H86.89V60.42h31.89v-.89H86.89V50.7H86v8.83H47.54v-8.82h-.89v8.82H18.17l-.81.89h29.29v25.26H3.26c-.1.3-.2.59-.29.89h43.68v16zm46-42.16H86v34.45H59.72a1.66 1.66 0 0 0-1.66 1.66v6.06H47.54z" style="mix-blend-mode:multiply" fill="#1a3b51" opacity=".25"/><path d="M40 103.47V64.28a1.66 1.66 0 0 1 1.66-1.66h10.85a1.66 1.66 0 0 1 1.66 1.66v39.19z" fill="#000003"/><path fill="#1a3b51" d="M41.34 87.89h11.49v6.02H41.34z"/><path fill="#1a3b51" d="M41.34 67.04h11.49v18.65H41.34z"/><path fill="#1a3b51" d="M41.34 96.12h11.49v6.02H41.34z"/><rect x="58.06" y="62.62" width="56.76" height="29.22" rx="1.66" ry="1.66" fill="#000003"/><path d="M86 67v23.51H59.72a.33.33 0 0 1-.32-.32V67z" fill="#1a3b51"/><path d="M86.88 67h26.61v23.19a.33.33 0 0 1-.33.32H86.88z" fill="#1a3b51"/><path fill="#000003" d="M60.774 103.076l.94-.94.94.94-.94.94z"/><path fill="#000003" d="M82.284 103.086l.94-.94.94.94-.94.94z"/><path fill="#000003" d="M88.71 103.078l.94-.942.941.94-.94.941z"/><path fill="#000003" d="M110.222 103.07l.94-.942.94.939-.938.941z"/><circle cx="38.06" cy="90.07" r="1.2" fill="#e5dfda"/><circle cx="38.06" cy="90.07" r=".69" fill="#f05a33"/><path d="M33.7 62.62h.76a1.66 1.66 0 0 1 1.66 1.66v25.91a1.66 1.66 0 0 1-1.66 1.66h-17.6c2.32-10.11 8.26-20.44 16.84-29.23z" fill="#000003"/><path d="M31.47 67h3.33v23.19a.33.33 0 0 1-.33.32h-15.9A61.26 61.26 0 0 1 31.47 67z" fill="#1a3b51"/><path d="M13.18 91.84H.55c2.12-10.54 7.6-20.65 14.84-29.22h13.42c-8 8.93-13.51 19.18-15.63 29.22z" fill="#000003"/><path d="M25.9 64c-6.83 8.19-11.67 17.5-13.79 26.51H.85C3 81 7.9 71.86 14.29 64z" fill="#1a3b51"/><path d="M8.41 94.46A4 4 0 0 0 8 92.79h2.91a1.67 1.67 0 0 1 0 3.33H8a4 4 0 0 0 .41-1.66z" style="mix-blend-mode:multiply" fill="#1a3b51" opacity=".25"/><path d="M10.11 94.46a1.66 1.66 0 0 1 1.25-1.61 1.66 1.66 0 0 1 0 3.22 1.66 1.66 0 0 1-1.25-1.61z" fill="#d0d2d3"/><path d="M256 106.43V50.71H127v55.73z" fill="#f2f2f4"/><path fill="#140a0a" d="M188 48.37h11.87v2.88H188z"/><g style="mix-blend-mode:multiply" opacity=".15" fill="#1a3b51"><path d="M382.78 94.09c-.72 4.14-3.33 7.68-7.4 7.68H264.2v4.66h111.18c5.44 0 8.28-6.34 7.46-12-.02-.09-.04-.22-.06-.34z"/><path d="M.2 94.09c0 .13 0 .25-.06.38-.82 5.62 2 12 7.46 12h111.18v-4.66H7.6c-4.06-.04-6.68-3.58-7.4-7.72z"/><path d="M127.02 101.77h128.95v4.66H127.02z"/></g><path d="M256 56.93v-6.22H127v6.22z" fill="#db3333"/><g style="mix-blend-mode:screen" opacity=".15" fill="#f2f2f4"><path d="M346.82 52.34a23.62 23.62 0 0 1 16.43 7.19c10 10.11 17.62 23.06 19.59 36.56.05.38.08.75.1 1.13a13.56 13.56 0 0 0-.1-2.76c-2-13.5-9.6-26.46-19.59-36.56a23.62 23.62 0 0 0-16.43-7.19H264.2v1.63c33.24-.03 49.39 0 82.62 0z"/><path d="M36.16 50.72a23.62 23.62 0 0 0-16.44 7.18C9.74 68 2.1 81 .14 94.47A13.53 13.53 0 0 0 0 97.22c0-.38 0-.76.1-1.13 2-13.5 9.6-26.46 19.59-36.56a23.62 23.62 0 0 1 16.43-7.19h82.62v-1.62c-33.2-.03-49.35 0-82.58 0z"/><path d="M127 50.71v1.63h129v-1.63z"/></g><path d="M151.7 60.42v25.26H127v.89h24.7v16H127v.89h36.09v3h.91v-9.9a.77.77 0 0 1 .77-.77H191v10.67h.89v-10.7h26.28a.77.77 0 0 1 .77.77v9.9h.89v-3H256v-.89h-24.72v-16H256v-.89h-24.72V60.42H256v-.89h-24.72v-8.82h-.89v8.82h-38.46V50.7H191v8.83h-38.42V50.7h-.89v8.83H127v.89zm40.24 0h38.46v42.16h-10.53v-6.05a1.66 1.66 0 0 0-1.66-1.66h-26.28zm-39.35 0H191v34.45h-26.23a1.66 1.66 0 0 0-1.66 1.66v6.06h-10.53z" style="mix-blend-mode:multiply" fill="#1a3b51" opacity=".25"/><path d="M252.07 64.28a1.66 1.66 0 0 0-1.66-1.66h-25a1.66 1.66 0 0 0-1.66 1.66v39.19h28.31z" fill="#000003"/><path fill="#1a3b51" d="M225.1 87.89h11.49v6.02H225.1z"/><path fill="#1a3b51" d="M225.1 67.04h11.49v18.65H225.1z"/><path fill="#1a3b51" d="M225.1 96.12h11.49v6.02H225.1z"/><path fill="#1a3b51" d="M239.25 87.89h11.49v6.02h-11.49z"/><path fill="#1a3b51" d="M239.25 67.04h11.49v18.65h-11.49z"/><path fill="#1a3b51" d="M239.25 96.12h11.49v6.02h-11.49z"/><path fill="#000003" d="M215.27 103.08l.94-.94.94.94-.94.94z"/><path fill="#000003" d="M193.762 103.078l.94-.94.94.94-.94.94z"/><path fill="#000003" d="M187.335 103.075l.94-.94.941.94-.94.94z"/><path fill="#000003" d="M165.83 103.07l.94-.94.941.94-.94.941z"/><path d="M159.22 64.28a1.66 1.66 0 0 0-1.66-1.66h-25a1.66 1.66 0 0 0-1.66 1.66v39.19h28.31z" fill="#000003"/><path fill="#1a3b51" d="M146.39 87.89h11.49v6.02h-11.49z"/><path fill="#1a3b51" d="M146.39 67.04h11.49v18.65h-11.49z"/><path fill="#1a3b51" d="M146.39 96.12h11.49v6.02h-11.49z"/><path fill="#1a3b51" d="M132.24 87.89h11.49v6.02h-11.49z"/><path fill="#1a3b51" d="M132.24 67.04h11.49v18.65h-11.49z"/><path fill="#1a3b51" d="M132.24 96.12h11.49v6.02h-11.49z"/><rect x="163.11" y="62.62" width="56.76" height="29.22" rx="1.66" ry="1.66" fill="#000003"/><path d="M218.54 90.19V67h-26.6v23.51h26.28a.33.33 0 0 0 .32-.32z" fill="#1a3b51"/><path d="M164.77 90.51H191V67h-26.56v23.19a.33.33 0 0 0 .33.32z" fill="#1a3b51"/><g style="mix-blend-mode:screen" opacity=".33" fill="#8cb596"><path d="M324.92 72.83l-19.01 19.01h6.21l12.8-12.81v-6.2z"/><path d="M188.2 86.82a1.32 1.32 0 0 0 1.87 0l24.2-24.2h-3.74L188.2 84.95a1.32 1.32 0 0 0 0 1.87z"/><path d="M368.43 66.67a4.83 4.83 0 0 0-6.83 0L359.28 69a69.92 69.92 0 0 1 5.22 8.44l3.92-3.92a4.83 4.83 0 0 0 .01-6.85z"/><path d="M217.8 91.84h.42a1.66 1.66 0 0 0 1.66-1.66v-.42z"/><path d="M287.76 91.84l29.23-29.22h-3.74l-29.22 29.22h3.73z"/><path d="M341.31 62.62h-6.18l-6.32 6.32v6.2l12.52-12.52z"/><path d="M358.25 86.46a1.32 1.32 0 0 0 1.87 1.87l3.73-3.73q-.52-1.31-1.11-2.62z"/><path d="M346.86 81.42v8.77a1.66 1.66 0 0 0 1.66 1.66h1.58l11.74-11.75a65.44 65.44 0 0 0-5.12-8.54z"/><path d="M324.92 66.54l-25.3 25.3h3.74l21.56-21.56v-3.74z"/><path d="M275.75 79l16.33-16.33h-6.2l-13.23 13.18a2.19 2.19 0 1 0 3.1 3.1z"/><path d="M330.47 62.62a1.66 1.66 0 0 0-1.66 1.66v2.11l3.77-3.77z"/><path d="M163.11 65.24v13.67l16.29-16.29h-13.67l-2.62 2.62z"/><path d="M269.82 91.84H281l12.23-12.24a4.83 4.83 0 0 0-6.83-6.83l-18.09 18.1a1.66 1.66 0 0 0 1.51.97z"/><path d="M138.55 103.47l20.67-20.67V69.14l-28.31 28.3v6.03h7.64z"/><path d="M373.74 71l-8.31 8.31c.41.85.81 1.71 1.17 2.56l8.56-8.56c-.46-.81-.93-1.58-1.42-2.31z"/><path d="M338.47 103.47l4.5-4.5V85.31l-14.16 14.15v4.01h9.66z"/><path d="M130.91 77.97v6.2l21.55-21.55h-6.2l-15.35 15.35z"/><path d="M169.6 85.1a2.19 2.19 0 0 0 3.1 0l22.49-22.49H189L169.6 82a2.19 2.19 0 0 0 0 3.1z"/><path d="M228.26 97.49a4.83 4.83 0 0 0 6.83 0l17-17V66.84l-23.83 23.82a4.83 4.83 0 0 0 0 6.83z"/><path d="M219.87 65.31v-1a1.66 1.66 0 0 0-1.66-1.66h-1.85l-29.22 29.19h6.2z"/><path d="M154.69 70.26a1.32 1.32 0 0 0-1.87 0l-21.91 21.91v3.74l23.78-23.79a1.32 1.32 0 0 0 0-1.86z"/><path d="M247 62.62l-23.24 23.25v3.74l27-27a1.51 1.51 0 0 0-.31 0z"/></g><g style="mix-blend-mode:screen" opacity=".33" fill="#8cb596"><path d="M58.06 81.63l19.01-19.01h-6.2l-12.81 12.8v6.21z"/><path d="M95.22 62.62L66 91.84h3.73l29.22-29.22h-3.73z"/><path d="M58.06 87.92l25.3-25.3h-3.74L58.06 84.18v3.74z"/><path d="M107.23 75.51L90.9 91.84h6.2l13.23-13.23a2.19 2.19 0 1 0-3.1-3.1z"/><path d="M113.17 62.62H102L89.75 74.86a4.83 4.83 0 1 0 6.83 6.83l18.1-18.09a1.66 1.66 0 0 0-1.51-.98z"/></g><g style="mix-blend-mode:screen" opacity=".33" fill="#8cb596"><path d="M16.58 71.76a2.19 2.19 0 0 0-3.1 0l-9.75 9.76a56.77 56.77 0 0 0-2.89 9.1l15.74-15.75a2.19 2.19 0 0 0 0-3.11z"/><path d="M41.67 62.62A1.66 1.66 0 0 0 40 64.28v2.41l4.06-4.06z"/><path d="M18.81 76.78L3.75 91.84h9.43a57 57 0 0 1 5.63-15.06z"/><path d="M15.39 62.62A74 74 0 0 0 5.23 78.14l15.53-15.52z"/><path d="M24.46 91.84h6.2l5.46-5.46v-6.2L24.46 91.84z"/><path d="M25.52 84.95a1.32 1.32 0 1 0 1.87 1.87l8.74-8.74v-3.74z"/><path d="M34.47 62.62h-.77c-7.81 8-13.43 17.28-16.12 26.5l18.54-18.55v-6.3a1.66 1.66 0 0 0-1.65-1.65z"/><path d="M53.41 62.89L40 76.29v6.2l14.17-14.16v-4.05a1.65 1.65 0 0 0-.76-1.39z"/><path d="M54.17 79.42L40.01 93.58v9.89h3.77l10.39-10.39V79.42z"/><path d="M40.01 70.45v3.74l11.57-11.57h-3.73l-7.84 7.83z"/></g><path fill="none" stroke="#140a0a" stroke-width="1.331" d="M199.66 48.92L181.32 25 199.2 1.69h3.82"/><path fill="none" stroke="#140a0a" stroke-width=".666" d="M182.41 26.43l15.91-17.89.16-3.14 2.04-3.71"/><path fill="none" stroke="#140a0a" stroke-width=".666" d="M181.32 25l13.32 23.92"/><path d="M203.51 48.37a1.44 1.44 0 0 1-1.44 1.44h-16.73a1.44 1.44 0 0 1 0-2.88h16.72a1.44 1.44 0 0 1 1.45 1.44z" fill="#2e2b33"/><path d="M199.27 0v3.15a2.24 2.24 0 0 0 .73 1.68 2.25 2.25 0 0 0 .75-1.68V0z" fill="#2e2b33"/><path d="M202.36 0v3.15a2.25 2.25 0 0 0 .75 1.68 2.25 2.25 0 0 0 .75-1.68V0z" fill="#2e2b33"/><path fill="#140a0a" d="M187.14 46.93h1.71v2.88h-1.71z"/><path fill="#140a0a" d="M190.63 46.93h1.71v2.88h-1.71z"/><path fill="#d0d2d3" d="M200.443 48.386l1.146-1.145 1.145 1.146-1.147 1.145z"/><path fill="#d0d2d3" d="M197.578 48.35l1.146-1.145 1.145 1.146-1.146 1.145z"/></g></g></svg>