<svg xmlns="http://www.w3.org/2000/svg" viewBox="-9.5367431640625e-7 -9.5367431640625e-7 142.0800018310547 120.27999877929688"><title>Depositphotos_107508878_21</title><g data-name="Layer 2"><g data-name="Layer 1"><g data-name="Layer 2"><g data-name="Layer 1-2"><rect x="71.04" y="1.78" width="69.26" height="69.26" rx="11.36" ry="11.36" fill="#6bcff6"/><path d="M128.94 72.82H82.39a13.15 13.15 0 0 1-13.13-13.14V13.14A13.15 13.15 0 0 1 82.39 0h46.55a13.15 13.15 0 0 1 13.14 13.14v46.54a13.15 13.15 0 0 1-13.14 13.14zM82.39 3.56a9.58 9.58 0 0 0-9.57 9.57v46.55a9.58 9.58 0 0 0 9.57 9.57h46.55a9.58 9.58 0 0 0 9.57-9.57V13.14a9.59 9.59 0 0 0-9.57-9.57z" fill="#fff"/><rect x="1.78" y="3.29" width="69.26" height="69.26" rx="11.36" ry="11.36" fill="#fee635"/><path d="M59.68 74.33H13.14A13.15 13.15 0 0 1 0 61.19V14.64A13.15 13.15 0 0 1 13.14 1.51h46.54a13.15 13.15 0 0 1 13.14 13.13v46.55a13.15 13.15 0 0 1-13.14 13.14zM13.14 5.07a9.58 9.58 0 0 0-9.57 9.57v46.55a9.58 9.58 0 0 0 9.57 9.57h46.54a9.58 9.58 0 0 0 9.57-9.57V14.64a9.58 9.58 0 0 0-9.57-9.57z" fill="#fff"/><rect x="18.48" y="25.28" width="69.26" height="69.26" rx="11.36" ry="11.36" fill="#6bcff6"/><path d="M76.38 96.32H29.83A13.15 13.15 0 0 1 16.7 83.19V36.64A13.15 13.15 0 0 1 29.83 23.5h46.55a13.15 13.15 0 0 1 13.14 13.14v46.55a13.15 13.15 0 0 1-13.14 13.13zM29.83 27.07a9.58 9.58 0 0 0-9.57 9.57v46.55a9.58 9.58 0 0 0 9.57 9.57h46.55A9.58 9.58 0 0 0 86 83.22V36.64a9.58 9.58 0 0 0-9.57-9.57z" fill="#fff"/><rect x="46.1" y="49.24" width="69.26" height="69.26" rx="11.36" ry="11.36" fill="#f58e93"/><path d="M104 120.28H57.45a13.15 13.15 0 0 1-13.14-13.14V60.59a13.15 13.15 0 0 1 13.14-13.13H104a13.15 13.15 0 0 1 13.14 13.14v46.55A13.15 13.15 0 0 1 104 120.28zM57.45 51a9.58 9.58 0 0 0-9.57 9.57v46.55a9.58 9.58 0 0 0 9.57 9.57H104a9.58 9.58 0 0 0 9.57-9.57V60.59A9.58 9.58 0 0 0 104 51H57.45z" fill="#fff"/><circle cx="59.68" cy="61.86" r="3.58" fill="#fff"/><circle cx="80.73" cy="83.87" r="3.58" fill="#fff"/><circle cx="100.8" cy="61.86" r="3.58" fill="#fff"/><circle cx="60.17" cy="109.43" r="3.58" fill="#fff"/><circle cx="101.29" cy="109.43" r="3.58" fill="#fff"/><path fill="#fee635" d="M83.23 5.94l1.36 3.43 3.53-1.08-1.84 3.2 3.04 2.08-3.65.56.27 3.68-2.71-2.51-2.7 2.51.26-3.68-3.64-.56 3.04-2.08-1.84-3.2 3.53 1.08 1.35-3.43z"/><path fill="#fee635" d="M109.27 31.98l1.35 3.43 3.53-1.08-1.84 3.2 3.05 2.09-3.65.55.27 3.68-2.71-2.5-2.71 2.5.27-3.68-3.65-.55 3.04-2.09-1.83-3.2 3.52 1.08 1.36-3.43z"/><path fill="#fee635" d="M126.69 5.94l1.36 3.43 3.52-1.08-1.83 3.2 3.04 2.08-3.65.56.27 3.68-2.71-2.51-2.71 2.51.27-3.68-3.65-.56 3.05-2.08-1.84-3.2 3.53 1.08 1.35-3.43z"/><path fill="#fee635" d="M128.94 48.83l1.35 3.43 3.53-1.08-1.84 3.2 3.05 2.08-3.65.56.27 3.68-2.71-2.51-2.71 2.51.27-3.68-3.65-.56 3.05-2.08-1.84-3.2 3.52 1.08 1.36-3.43z"/><circle cx="105.75" cy="15.91" r="1.36" fill="#fee635"/><circle cx="93.66" cy="29.06" r="2.11" fill="#fee635"/><circle cx="127.87" cy="34.67" r="2.69" fill="#fee635"/><circle cx="121.54" cy="62.94" r="2.24" fill="#fee635"/></g></g></g></g></svg>