<svg xmlns="http://www.w3.org/2000/svg" viewBox="-13.139984130859375 0 1484.5902099609375 1190.5400390625"><title>Depositphotos_24868263_03</title><g data-name="Layer 2"><path d="M1090.91 232c-72.53 0-131.54 59-131.54 131.54s59 131.54 131.54 131.54 131.54-59 131.54-131.54S1163.44 232 1090.91 232zm-.91 251.64a120.1 120.1 0 1 1 120.09-120.1A120.23 120.23 0 0 1 1090 483.64z" fill="#e4ded0"/><path d="M1090.91 213.54c-82.71 0-150 67.29-150 150s67.29 150 150 150 150-67.29 150-150-67.29-150-150-150zm0 284.31c-74.06 0-134.31-60.25-134.31-134.31s60.25-134.31 134.31-134.31 134.31 60.25 134.31 134.31-60.22 134.31-134.31 134.31z" fill="#e32f21"/><path d="M1090.91 185.54c-98.49 0-178.62 80.12-178.62 178.62s80.12 178.62 178.62 178.62 178.62-80.12 178.62-178.62-80.13-178.62-178.62-178.62zm0 330.77c-84.23 0-152.77-68.53-152.77-152.77s68.54-152.77 152.77-152.77 152.77 68.53 152.77 152.77-68.53 152.77-152.77 152.77z" fill="#e4ded0"/><path d="M1090 24.31c-187.06 0-339.24 152.18-339.24 339.24S902.93 702.78 1090 702.78s339.23-152.18 339.23-339.24S1277 24.31 1090 24.31zm.92 521.24c-100 0-181.39-81.37-181.39-181.39s81.37-181.39 181.39-181.39 181.39 81.37 181.39 181.39-81.39 181.39-181.4 181.39z" fill="#7dbeb8"/><path d="M1090.91 2.77c-198.76 0-360.47 161.7-360.47 360.47s161.7 360.47 360.47 360.47S1451.38 562 1451.38 363.24 1289.67 2.77 1090.91 2.77zm-.91 702.78c-188.58 0-342-153.42-342-342s153.43-342 342-342 342 153.42 342 342-153.43 342-342 342z" fill="#e32f21"/><path d="M1090 24.31c-187.06 0-339.24 152.18-339.24 339.24S902.93 702.78 1090 702.78s339.23-152.18 339.23-339.24S1277 24.31 1090 24.31zm250.6 504.62c-8.3 40.16-6.92 45.69-25.62 60.23s-81 38.77-110.77 61.62-46.38 35.31-80.31 33.92-99.69-32.54-138.46-27.7-65.77-.69-87.23-39.46-8.3-44.31-40.15-63.69S782.6 494.31 782.6 468s-4.85-42.23-9.69-47.08-29.08-37.38.69-73.39 54.69-78.23 51.23-108.69-1.38-82.38 40.85-98.31 79.62-37.38 84.46-56.77 33.92-32.54 50.54-31.16 101.08 1.38 131.54-8.31 47.77 8.31 65.08 24.92 39.46 34.61 54.69 35.31 19.38 4.16 23.54 11.77a58.91 58.91 0 0 1 29.08 21.46c11.77 16.62 13.15 9.69 27 14.54s21.46 4.85 27 17.31-.69 39.46 7.62 54 30.46 36 30.46 55.39-10.39 69.92 2.77 97.62 13.85 29.77 6.23 45-56.78 67.17-65.09 107.32z" fill="#509990"/><path d="M1414.68 321.23s45.69 40.16 32.54 105.23c0 0 24.23-96.23-18.7-171.7 0 0-24.23-30.46-23.54-16.62s20.78 66.48 9.7 83.09z" fill="#bc241d"/><path d="M1262.37 45.69s24.92 25.62 20.08 46.39l54.69 45.69 20.77 7.62s-42.23-76.16-95.54-99.7z" fill="#bc241d"/><ellipse cx="739.21" cy="398.32" rx="4.62" ry="11.08" fill="#bc241d"/><ellipse cx="748.91" cy="452.32" rx="4.16" ry="9.69" fill="#bc241d"/><path d="M1308.76 355.16c-8.31-22.85-9.69-105.23-44.31-127.38s-61.62-27-69.93-39.46-54.69-38.08-99.69-18S1036 137.08 988.22 162s-54 35.31-59.54 59.54-31.16 43.62-47.08 51.92-16.62 58.85-4.84 76.85 26.31 83.08 22.85 103.16-23.55 33.92 22.83 59.53c10.36 5.72 63.7 13.85 91.39 38.77s55.38 45 95.54 40.16 50.54-29.08 63.69-33.92 94.85-47.77 106.62-72.69-8.31-46.38 1.38-65.77 36-41.55 27.7-64.39zm-217.85 190.39c-100 0-181.39-81.37-181.39-181.39s81.37-181.39 181.39-181.39 181.39 81.37 181.39 181.39-81.38 181.39-181.39 181.39z" fill="#509990"/><path d="M1086.87 198a165.81 165.81 0 1 0 165.81 165.81A165.81 165.81 0 0 0 1086.87 198zm4 318.31c-84.23 0-152.77-68.53-152.77-152.77s68.54-152.77 152.77-152.77 152.77 68.53 152.77 152.77-68.49 152.77-152.73 152.77z" fill="#bfb8aa"/><path d="M1089.64 237.81a125.66 125.66 0 1 0 125.65 125.65 125.66 125.66 0 0 0-125.65-125.65zm.35 245.83a120.1 120.1 0 1 1 120.09-120.1A120.23 120.23 0 0 1 1090 483.64z" fill="#bfb8aa"/><path d="M1095.52 212.31s52.61 13.85 64.62 37.85c0 0 70.15 28.15 77.54 79.38 0 0 24.92 98.31-54.46 131.08 0 0-101.54 112.61-220.62-14.77 0 0-58.62-98.77 12.46-148.16 0 0 22.15-42.92 75.69-62.31s-61.38-9.23-83.54 60.92c0 0-24.46 77.54-13.85 102.93s34.16 70.62 63.23 82.16 90.92 26.77 96.92 31.85c0 0 49.85-15.69 57.23-28.15a64.25 64.25 0 0 1 26.31-24.46c7.85-3.69 31.85-57.23 25.38-74.77 0 0 17.08-47.54-.92-75.7s-30.92-63.69-42.92-69.23-47.54-10.61-59.08-12.92-50.31 6-60-12.46c.02-.01 31.86-3.24 36.01-3.24z"/><ellipse cx="824.83" cy="392.54" rx="58.85" ry="40.85"/><ellipse cx="860.83" cy="461.08" rx="28.39" ry="18"/><path d="M1101.13 185.55c-1.87-.2-3.62-.44-5.31-.72l-.3.26z"/><path d="M1220.14 216.47c-29.54-12-30.46-24-62.77-40.62-26.49-13.62-51.1 1.29-59.12 7.11 96.62 3.87 174 83.65 174 181.2 0 100-81.37 181.39-181.39 181.39s-181.34-81.37-181.34-181.39c0-98.65 79.17-179.1 177.31-181.28-15.43-4.24-24.72-11.49-48.53-16.26-32.31-6.46-84.92 20.31-86.77 52.62s-52.61 30.46-66.46 78.46 4.62 59.08 16.62 98.77 6.46 69.23 7.38 87.69 17.54 18.46 51.69 32.31 55.39 20.31 81.23 39.69 83.08 36.92 111.69 6.46 85.85-46.16 107.08-84.93-1.85-48 24.92-81.23-4.62-115.39-10.15-137.54-25.85-30.45-55.39-42.45z"/><path d="M1380.74 189v1.66s-12 12.92 1.84 36.92 34.16 37.85 26.77 62.77-7.38 67.38 5.54 92.31 0 63.69-13.84 78.46-49.85 59.08-52.62 97.85-45.23 69.23-70.15 73.85-26.77 5.54-81.24 35.08-84.92 36.92-120.92 23.08-55.39-17.54-92.31-20.31-90.46-24-103.39-53.54-9.23-38.77-35.08-59.08-54.46-38.77-63.69-66.46 0-32.31-6.46-48-30.46-60.92-12.93-92.31 60.93-94.16 51.7-130.16 27.69-81.23 56.31-99.69 66.47-27.7 70.15-42.46 44.33-39.74 65.58-34.2 93.23 0 121.85-6.46 72 13.85 83.08 28.62 19.38 25.85 43.38 30.46 48 11.08 58.15 35.08c0 0 22.74 6.29 42 18.86-62.23-77.39-157.65-127-264.45-127-187.06 0-339.24 152.18-339.24 339.24S902.93 702.78 1090 702.78s339.23-152.18 339.23-339.24A337.18 337.18 0 0 0 1380.74 189z"/><path d="M1354.44 151.33a341.44 341.44 0 0 1 26.3 37.67c-.08-15.94-12.23-28.48-26.3-37.67z"/><path d="M1272.76 51.23s66.43 59.42 81.68 100.09c0 0 43.4 51.76 51.25 86.83 0 0 44.31 34.16 45.69 99.69 0 0-4.62-111.23-70.62-189.69 0 .01-45.23-66.92-108-96.92z"/><path d="M1090.91 0C890.62 0 727.67 162.95 727.67 363.24s162.95 363.24 363.24 363.24 363.24-162.95 363.24-363.24S1291.2 0 1090.91 0zm0 723.71c-198.76 0-360.47-161.7-360.47-360.47S892.14 2.77 1090.91 2.77s360.47 161.7 360.47 360.47-161.71 360.47-360.47 360.47z"/><path d="M1090 21.54c-188.58 0-342 153.42-342 342s153.43 342 342 342 342-153.42 342-342-153.43-342-342-342zm0 681.24c-187.06 0-339.24-152.18-339.24-339.24S902.93 24.31 1090 24.31s339.23 152.18 339.23 339.24S1277 702.78 1090 702.78z"/><path d="M1090.91 182.77c-100 0-181.39 81.37-181.39 181.39s81.37 181.39 181.39 181.39 181.39-81.37 181.39-181.39-81.38-181.39-181.39-181.39zm0 360c-98.49 0-178.62-80.12-178.62-178.62s80.12-178.62 178.62-178.62 178.62 80.12 178.62 178.62-80.13 178.63-178.62 178.63z"/><path d="M1090 243.45a120.1 120.1 0 1 0 120.09 120.09A120.23 120.23 0 0 0 1090 243.45zm0 237.42a117.33 117.33 0 1 1 117.32-117.33A117.46 117.46 0 0 1 1090 480.87z"/><path d="M1090.91 229.23c-74.06 0-134.31 60.25-134.31 134.31s60.25 134.31 134.31 134.31 134.31-60.25 134.31-134.31-60.22-134.31-134.31-134.31zm0 265.85c-72.53 0-131.54-59-131.54-131.54S1018.38 232 1090.91 232s131.54 59 131.54 131.54-59.01 131.54-131.54 131.54z"/><path d="M1090.91 210.77c-84.23 0-152.77 68.53-152.77 152.77s68.54 152.77 152.77 152.77 152.77-68.53 152.77-152.77-68.53-152.77-152.77-152.77zm0 302.77c-82.71 0-150-67.29-150-150s67.29-150 150-150 150 67.29 150 150-67.29 150.01-150 150.01z"/><path d="M2.78 800.24v267.42c7.55 2.77 64.52 22.63 172.87 32.83 106.95 10.06 287.2 12.48 538.83-33V800.2c-124.29 18.63-244.77 24.85-350.25 24.85-199.1.01-344.69-22.14-361.45-24.81z" fill="#e32f21"/><path d="M175.21 1103.23C77.69 1094 21.61 1077 5.67 1071.61c14.12 16.38 75.14 80.64 178.76 100.88.71.19 63.56 16.56 174.18 15.21v1.38-1.38c110.63 1.33 173.47-15 174.09-15.18 106-20.72 167.35-87.32 179.68-101.87-163.82 29.48-297.37 38.65-400 38.65-54.38 0-100.17-2.58-137.17-6.07z" fill="#e32f21"/><path d="M362.75 795.31c206.12-5.08 288.32-16.21 322.28-27-29-28.19-86.33-45.34-114.7-53.83-8.48-2.54-14.6-4.37-17.09-5.61-10.33-5.17-38.3-12.62-41.06-13.34l-153.46 10.31-.09-1.38-.09 1.38-153.48-10.37c-2.75.73-30.72 8.17-41.05 13.34-2.49 1.24-8.61 3.07-17.09 5.61-28.82 8.63-87.49 26.2-116 55.15 45.68 16.22 139.61 30.49 331.83 25.74z" fill="#7dbeb8"/><path d="M713 797.64l-23.07-24.2c-.86-1-1.77-2-2.71-3-34.33 11.46-117.06 22.56-324.4 27.64q-37.89.92-70.82.92c-146.33 0-223-12.92-263-27.33-.52.57-1.06 1.14-1.56 1.72L4.21 797.67c31.95 5.01 354.88 52.84 708.79-.03z" fill="#e32f21"/><ellipse cx="306.71" cy="964.27" rx="288.7" ry="111.66" fill="#f93e35"/><path d="M371.09 1107.86s195.24-13.39 218.31-18.93c0 0 64.15 1.85 40.16 49.39 0 0-29.08 15.69-49.39 23.07 0 0 17.07-66.91-209.08-53.53z" fill="#bc241d"/><path d="M155.08 1167.39s-97.85-62.31-67.84-77.08c0 0-37.39-8.3-42.47 1.85s53.09 56.31 110.31 75.23z" fill="#bc241d"/><path d="M445.86 1103.24s196.62-26.31 221.54-122.54-175.16-150.93-234.69-153c0 0 264.46-9.69 269.31 122.54s-45 125.31-45 125.31l-76.15 16.62z" fill="#bc241d"/><path d="M85.85 1089.74s-79.27-66.81-84.11-131.2l1 78.92L22.85 1071s45.7 18.74 63 18.74z" fill="#bc241d"/><path d="M1.39 894.16S20.08 835 158.2 815.93c0 0-166.2-11.43-156.81 78.23z" fill="#bc241d"/><path d="M103.16 787.19s-15.92 20.81 34.27 27.7c0 0-96.92-1.38-117.34-25.61 0 0 1-19 12.46-21.12s70.61 19.03 70.61 19.03z" fill="#bc241d"/><path d="M602.32 783c1 0 68.88-.35 58.85 12.81S621.36 817 621.36 817s76.85-11.42 74.77-25.27-3.46-23.88-12.46-25.61S602.32 783 602.32 783z" fill="#bc241d"/><path d="M234 697.08l-28.61-2.31s-34.62 8.31-42.92 14.77c0 0 31.85-8.77 45.69-8.77s93.24 9.69 123.24 3.23c0 0-87.24-8.31-97.4-6.92z" fill="#509990"/><path d="M114 723.39s-36.92 46.15 2.77 66c0 0-35.54-4.62-45.7-19.85s15.25-40.15 42.93-46.15z" fill="#509990"/><path d="M564.94 712.08s51.23 36.46 23.77 73.39c0 0 42.69-8.07 44.07-24s-31.84-44.31-67.84-49.39z" fill="#509990"/><ellipse cx="517.86" cy="758.92" rx="40.62" ry="15.23" fill="#509990"/><ellipse cx="453.24" cy="772.77" rx="13.85" ry="6" fill="#509990"/><ellipse cx="85.85" cy="894.62" rx="45.23" ry="22.62" fill="#bc241d"/><ellipse cx="139.85" cy="945.39" rx="32.77" ry="15.23" fill="#bc241d"/><ellipse cx="567.71" cy="970.77" rx="109.85" ry="61.85" fill="#bc241d"/><path d="M79.62 1088.7l-76.85-18s54.69 65.77 146.77 94.85c.01 0-162.68-79.62-69.92-76.85z"/><path d="M560.78 1092.85s147.47-22.15 155.08-23.54c0 0-47.08 51.23-95.54 74.08.01 0 40.85-52.61-59.54-50.54z"/><path d="M572.79 1091.24l143.08-21.92-.46-236.08.46-33.23s-248.54 28.39-342.7 24.23c0 0 324 18 320.55 127.38s-120.93 139.62-120.93 139.62z"/><path d="M76.86 1088.7l-74.08-18-1.39-101.08s1.39 93.46 75.47 119.08z"/><path d="M0 891.39V800s174.47 18.35 185.89 18C185.9 818-1 803.12 0 891.39z"/><path d="M28.74 770.58L2.43 799s134.31 17.66 143.31 16.27c0-.04-144.35-14.92-117-44.69z"/><path d="M686.09 769.19l28.73 29.42-78.92 11.08s70.62-13.15 50.19-40.5z"/><path d="M577.4 715.54s85.85 24.46 108.47 52.15c0 0-10.62 9.23-107.08 18.92 0 .01 110.3-22.61-1.39-71.07z"/><path d="M110.32 788s-66.24-8.54-81.58-17.42c0 0 10-19.5 83.89-46.73-.01 0-74.77 40.61-2.31 64.15z"/><ellipse cx="556.63" cy="979.08" rx="109.85" ry="61.85"/><ellipse cx="476.32" cy="1059.18" rx="41.54" ry="16.08"/><path d="M716.3 797.07L692 771.58c-.61-.71-1.26-1.41-1.91-2.1s-1.39-1.47-2.11-2.19c-29.18-29.25-87.91-46.85-116.84-55.51-8.35-2.5-14.38-4.3-16.65-5.44-11.08-5.54-40.56-13.27-41.81-13.6l-.22-.06-153.83 10.39L205 692.69h-.22l-.22.06c-1.25.33-30.73 8.06-41.81 13.6-2.27 1.13-8.3 2.94-16.65 5.44-29.33 8.77-89.4 26.75-118.1 56.74-.66.69-1.29 1.4-1.91 2.1-.27.3-.55.59-.81.9L1.21 796.8 0 798.06v271l.29.37c.62.82 64 82.38 183.52 105.73.6.16 58.83 15.36 161.76 15.36q6.42 0 13.06-.08c4.44.05 8.78.08 13.06.08 102.92 0 161.16-15.2 161.67-15.34 119.6-23.37 183-104.93 183.61-105.75l.28-.37v-271zm-569.37-82.64c8.48-2.54 14.6-4.37 17.09-5.61 10.33-5.17 38.3-12.62 41.05-13.34l153.47 10.37.09-1.38.09 1.38 153.47-10.37c2.76.73 30.72 8.17 41.06 13.34 2.49 1.24 8.61 3.07 17.09 5.61C598.7 722.92 656 740.07 685 768.26c-34 10.84-116.16 22-322.28 27-192.22 4.75-286.15-9.52-331.84-25.73 28.55-28.9 87.22-46.48 116.05-55.1zm-119.56 59c.5-.58 1-1.15 1.56-1.72 40 14.41 116.7 27.33 263 27.33q33 0 70.86-.92c207.37-5.12 290.1-16.22 324.44-27.65.94 1 1.84 2 2.71 3L713 797.64c-353.92 52.87-676.85 5-708.8 0zm505.37 399.13c-.62.16-63.47 16.51-174.09 15.18v1.38-1.38c-110.63 1.35-173.47-15-174.18-15.21C80.81 1152.25 19.79 1088 5.67 1071.61c15.95 5.41 72 22.43 169.54 31.62 37 3.49 82.75 6.06 137.19 6.06 102.66 0 236.2-9.18 400-38.65-12.32 14.56-73.65 81.16-179.66 101.88zm181.74-105.06c-251.63 45.52-431.88 43.09-538.83 33-108.35-10.2-165.32-30.07-172.87-32.84V800.24c16.76 2.67 162.36 24.82 361.45 24.82 105.48 0 226-6.23 350.25-24.85z"/><path d="M727.44 800.24v267.42c7.55 2.77 64.52 22.63 172.87 32.83 106.95 10.06 287.2 12.48 538.83-33V800.2c-124.29 18.63-244.77 24.85-350.25 24.85-199.09.01-344.69-22.14-361.45-24.81z" fill="#e32f21"/><path d="M899.87 1103.23c-97.52-9.19-153.59-26.22-169.54-31.62 14.12 16.38 75.14 80.64 178.76 100.88.71.19 63.56 16.56 174.18 15.21v1.38-1.38c110.63 1.33 173.47-15 174.09-15.18 106-20.72 167.35-87.32 179.68-101.87-163.82 29.48-297.37 38.65-400 38.65-54.42 0-100.16-2.58-137.17-6.07z" fill="#e32f21"/><path d="M1087.41 795.31c206.12-5.08 288.32-16.21 322.28-27-29-28.19-86.33-45.34-114.7-53.83-8.48-2.54-14.6-4.37-17.09-5.61-10.33-5.17-38.3-12.62-41.06-13.34l-153.47 10.37-.09-1.38-.09 1.38-153.46-10.43c-2.75.73-30.72 8.17-41.05 13.34-2.49 1.24-8.61 3.07-17.09 5.61-28.82 8.63-87.49 26.2-116 55.15 45.67 16.22 139.6 30.49 331.82 25.74z" fill="#7dbeb8"/><path d="M1437.68 797.64l-23.07-24.2c-.86-1-1.77-2-2.71-3-34.34 11.44-117.07 22.5-324.42 27.61q-37.89.93-70.86.92c-146.33 0-223-12.92-263-27.33-.52.57-1.06 1.14-1.56 1.72l-23.16 24.28c31.92 5.04 354.85 52.87 708.78 0z" fill="#e32f21"/><ellipse cx="1031.37" cy="964.27" rx="288.7" ry="111.66" fill="#f93e35"/><path d="M1095.75 1107.86s195.24-13.39 218.31-18.93c0 0 64.15 1.85 40.16 49.39 0 0-29.08 15.69-49.39 23.07.01 0 17.08-66.91-209.08-53.53z" fill="#bc241d"/><path d="M879.75 1167.39s-97.85-62.31-67.84-77.08c0 0-37.39-8.3-42.47 1.85s53.08 56.31 110.31 75.23z" fill="#bc241d"/><path d="M1170.52 1103.24s196.62-26.31 221.55-122.54-175.16-150.93-234.69-153c0 0 264.46-9.69 269.31 122.54s-45 125.31-45 125.31l-76.15 16.62z" fill="#bc241d"/><path d="M810.52 1089.74s-79.27-66.81-84.12-131.19l1 78.92 20.12 33.53s45.69 18.74 63 18.74z" fill="#bc241d"/><path d="M726.06 894.16s18.69-59.16 156.81-78.23c0 0-166.16-11.43-156.81 78.23z" fill="#bc241d"/><path d="M827.83 787.19s-15.92 20.81 34.26 27.7c0 0-96.92-1.38-117.34-25.61 0 0 1-19 12.46-21.12s70.62 19.03 70.62 19.03z" fill="#bc241d"/><path d="M1327 783c1 0 68.88-.35 58.85 12.81S1346 817 1346 817s76.85-11.42 74.77-25.27-3.46-23.88-12.46-25.61S1327 783 1327 783z" fill="#bc241d"/><path d="M958.68 697.08l-28.61-2.31s-34.62 8.31-42.92 14.77c0 0 31.85-8.77 45.69-8.77s93.23 9.69 123.23 3.23c-.01 0-87.24-8.31-97.39-6.92z" fill="#509990"/><path d="M838.67 723.39s-36.92 46.15 2.77 66c0 0-35.54-4.62-45.7-19.85s15.26-40.15 42.93-46.15z" fill="#509990"/><path d="M1289.6 712.08s51.23 36.46 23.77 73.39c0 0 42.69-8.07 44.07-24s-31.84-44.31-67.84-49.39z" fill="#509990"/><ellipse cx="1242.52" cy="758.92" rx="40.62" ry="15.23" fill="#509990"/><ellipse cx="1177.91" cy="772.77" rx="13.85" ry="6" fill="#509990"/><ellipse cx="810.52" cy="894.62" rx="45.23" ry="22.62" fill="#bc241d"/><ellipse cx="864.52" cy="945.39" rx="32.77" ry="15.23" fill="#bc241d"/><ellipse cx="1292.37" cy="970.77" rx="109.85" ry="61.85" fill="#bc241d"/><path d="M804.29 1088.7l-76.85-18s54.69 65.77 146.77 94.85c0 0-162.69-79.62-69.92-76.85z"/><path d="M1285.45 1092.85s147.47-22.15 155.08-23.54c0 0-47.08 51.23-95.54 74.08.01 0 40.84-52.61-59.54-50.54z"/><path d="M1297.45 1091.24l143.08-21.92-.46-236.08.46-33.23s-248.54 28.39-342.7 24.23c0 0 324 18 320.55 127.38s-120.93 139.62-120.93 139.62z"/><path d="M801.52 1088.7l-74.08-18-1.38-101.08s1.38 93.46 75.46 119.08z"/><path d="M724.67 891.39V800s174.47 18.35 185.89 18c0 0-186.93-14.88-185.89 73.39z"/><path d="M753.4 770.58L727.09 799s134.31 17.66 143.31 16.27c0-.04-144.34-14.92-117-44.69z"/><path d="M1410.76 769.19l28.73 29.42-78.92 11.08s70.61-13.15 50.19-40.5z"/><path d="M1302.06 715.54s85.85 24.46 108.47 52.16c0 0-10.62 9.23-107.08 18.92 0 0 110.31-22.62-1.39-71.08z"/><path d="M835 788s-66.24-8.54-81.58-17.42c0 0 10-19.5 83.89-46.73-.02 0-74.79 40.61-2.31 64.15z"/><ellipse cx="1281.29" cy="979.08" rx="109.85" ry="61.85"/><ellipse cx="1200.99" cy="1059.18" rx="41.54" ry="16.08"/><path d="M1441 797.07l-24.31-25.49c-.61-.71-1.26-1.41-1.91-2.1s-1.39-1.47-2.11-2.19c-29.18-29.25-87.91-46.85-116.84-55.51-8.35-2.5-14.38-4.3-16.65-5.44-11.08-5.54-40.56-13.27-41.81-13.6l-.22-.06-153.83 10.39-153.6-10.38h-.22l-.22.06c-1.25.33-30.73 8.06-41.81 13.6-2.27 1.13-8.3 2.94-16.65 5.44-29.36 8.79-89.43 26.77-118.09 56.76-.66.69-1.29 1.4-1.91 2.1-.27.3-.55.59-.81.9l-24.1 25.27-1.21 1.26v271l.29.37c.62.82 64 82.38 183.52 105.73.6.16 58.83 15.36 161.76 15.36q6.42 0 13.06-.08c4.44.05 8.78.08 13.06.08 102.92 0 161.16-15.2 161.67-15.34 119.6-23.37 183-104.93 183.61-105.75l.28-.37v-271zm-569.41-82.64c8.48-2.54 14.6-4.37 17.09-5.61 10.33-5.17 38.3-12.62 41.05-13.34l153.47 10.37.09-1.38.09 1.38 153.47-10.37c2.76.73 30.72 8.17 41.06 13.34 2.49 1.24 8.61 3.07 17.09 5.61 28.37 8.49 85.66 25.65 114.7 53.83-34 10.84-116.16 22-322.28 27-192.22 4.75-286.15-9.52-331.84-25.73 28.52-28.9 87.19-46.48 116.01-55.1zM752 773.38c.5-.58 1-1.15 1.56-1.72 40 14.41 116.7 27.33 263 27.33q33 0 70.86-.92c207.34-5.11 290.08-16.18 324.42-27.61.94 1 1.84 2 2.71 3l23.07 24.2c-353.92 52.87-676.85 5-708.8 0zm505.37 399.13c-.62.16-63.47 16.51-174.09 15.18v1.38-1.38c-110.63 1.35-173.47-15-174.18-15.21-103.62-20.25-164.64-84.5-178.76-100.88 15.95 5.41 72 22.43 169.54 31.62 37 3.49 82.75 6.06 137.19 6.06 102.66 0 236.2-9.18 400-38.65-12.32 14.57-73.66 81.17-179.67 101.89zm181.74-105.06c-251.63 45.52-431.88 43.09-538.83 33C792 1090.3 735 1070.43 727.44 1067.66V800.24c16.76 2.67 162.36 24.82 361.45 24.82 105.48 0 226-6.23 350.25-24.85z"/><path d="M2.78 347.33v267.42c7.55 2.77 64.52 22.63 172.87 32.83 106.95 10.06 287.2 12.48 538.83-33V347.29c-124.29 18.63-244.77 24.85-350.25 24.85-199.1 0-344.69-22.14-361.45-24.81z" fill="#e32f21"/><path d="M175.21 650.32c-97.52-9.2-153.6-26.22-169.54-31.63 14.12 16.38 75.14 80.64 178.76 100.88.71.19 63.56 16.56 174.18 15.21v1.38-1.38c110.63 1.33 173.47-15 174.09-15.18 106-20.72 167.35-87.32 179.68-101.87-163.82 29.48-297.37 38.65-400 38.65-54.38 0-100.17-2.58-137.17-6.06z" fill="#e32f21"/><path d="M362.75 342.39c206.12-5.08 288.32-16.21 322.28-27-29-28.19-86.33-45.34-114.7-53.83-8.48-2.54-14.6-4.37-17.09-5.61-10.33-5.17-38.3-12.62-41.06-13.34l-153.46 10.32-.09-1.38-.09 1.38-153.48-10.37c-2.75.73-30.72 8.17-41.05 13.34-2.49 1.24-8.61 3.07-17.09 5.61-28.82 8.63-87.49 26.2-116 55.15 45.68 16.21 139.61 30.49 331.83 25.73z" fill="#7dbeb8"/><path d="M713 344.72l-23.07-24.2c-.86-1-1.77-2-2.71-3-34.34 11.44-117.07 22.5-324.42 27.61q-37.89.93-70.86.92c-146.33 0-223-12.92-263-27.33-.52.57-1.06 1.14-1.56 1.72L4.21 344.75c31.95 5.02 354.88 52.84 708.79-.03z" fill="#e32f21"/><ellipse cx="306.71" cy="511.36" rx="288.7" ry="111.66" fill="#f93e35"/><path d="M371.09 654.94S566.32 641.55 589.4 636c0 0 64.15 1.85 40.16 49.39 0 0-29.08 15.69-49.39 23.07 0 .02 17.07-66.9-209.08-53.52z" fill="#bc241d"/><path d="M155.08 714.48s-97.84-62.31-67.84-77.08c0 0-37.39-8.3-42.47 1.85s53.09 56.3 110.31 75.23z" fill="#bc241d"/><path d="M445.86 650.32S642.48 624 667.4 527.78s-175.16-150.93-234.69-153c0 0 264.46-9.69 269.31 122.54s-45 125.31-45 125.31l-76.15 16.62z" fill="#bc241d"/><path d="M85.85 636.82S6.58 570 1.74 505.63l1 78.92 20.08 33.58s45.73 18.69 63.03 18.69z" fill="#bc241d"/><path d="M1.39 441.24S20.08 382 158.2 363c0 0-166.2-11.41-156.81 78.24z" fill="#bc241d"/><path d="M103.16 334.28S87.24 355 137.43 362c0 0-96.92-1.38-117.34-25.61 0 0 1-19 12.46-21.12s70.61 19.01 70.61 19.01z" fill="#bc241d"/><path d="M602.32 330.12c1 0 68.88-.35 58.85 12.81S621.36 364 621.36 364s76.85-11.42 74.77-25.27-3.46-23.88-12.46-25.61-81.35 17-81.35 17z" fill="#bc241d"/><path d="M234 244.16l-28.61-2.31s-34.62 8.31-42.92 14.77c0 0 31.85-8.77 45.69-8.77s93.23 9.69 123.23 3.23c.01.01-87.23-8.3-97.39-6.92z" fill="#509990"/><path d="M114 270.47s-36.92 46.15 2.77 66c0 0-35.54-4.62-45.7-19.85s15.25-40.15 42.93-46.15z" fill="#509990"/><path d="M564.94 259.16s51.23 36.46 23.77 73.39c0 0 42.69-8.07 44.07-24s-31.84-44.31-67.84-49.39z" fill="#509990"/><ellipse cx="517.86" cy="306.01" rx="40.62" ry="15.23" fill="#509990"/><ellipse cx="453.24" cy="319.86" rx="13.85" ry="6" fill="#509990"/><ellipse cx="85.85" cy="441.7" rx="45.23" ry="22.62" fill="#bc241d"/><ellipse cx="139.85" cy="492.47" rx="32.77" ry="15.23" fill="#bc241d"/><ellipse cx="567.71" cy="517.86" rx="109.85" ry="61.85" fill="#bc241d"/><path d="M79.62 635.78l-76.85-18s54.69 65.77 146.77 94.85c.01 0-162.68-79.63-69.92-76.85z"/><path d="M560.78 639.94s147.47-22.15 155.08-23.54c0 0-47.08 51.23-95.54 74.08.01 0 40.85-52.62-59.54-50.54z"/><path d="M572.79 638.32l143.07-21.92-.46-236.08.46-33.23s-248.54 28.39-342.7 24.23c0 0 324 18 320.55 127.38S572.79 638.32 572.79 638.32z"/><path d="M76.86 635.78l-74.08-18L1.39 516.7s1.39 93.47 75.47 119.08z"/><path d="M0 438.47v-91.38s174.47 18.35 185.89 18C185.9 365.09-1 350.2 0 438.47z"/><path d="M28.74 317.66L2.43 346s134.31 17.66 143.31 16.27c0 .05-144.35-14.84-117-44.61z"/><path d="M686.09 316.28l28.73 29.42-78.92 11.08s70.62-13.15 50.19-40.5z"/><path d="M577.4 262.62s85.85 24.46 108.47 52.16c0 0-10.62 9.23-107.08 18.92 0 0 110.3-22.61-1.39-71.08z"/><path d="M110.32 335.09s-66.24-8.54-81.58-17.42c0 0 10-19.5 83.89-46.73-.01-.01-74.77 40.61-2.31 64.15z"/><ellipse cx="556.63" cy="526.17" rx="109.85" ry="61.85"/><ellipse cx="476.32" cy="606.27" rx="41.54" ry="16.08"/><path d="M716.3 344.16l-24.3-25.5c-.61-.71-1.26-1.41-1.91-2.1s-1.39-1.47-2.11-2.19c-29.18-29.25-87.91-46.85-116.84-55.51-8.35-2.5-14.38-4.3-16.65-5.44-11.08-5.54-40.56-13.27-41.81-13.6l-.22-.06-153.83 10.4L205 239.78h-.22l-.22.06c-1.25.33-30.73 8.06-41.81 13.6-2.27 1.13-8.3 2.94-16.65 5.44-29.33 8.77-89.4 26.75-118.1 56.74-.66.69-1.29 1.4-1.91 2.1-.27.3-.55.59-.81.9L1.21 343.89 0 345.15v271l.29.37c.62.82 64 82.38 183.52 105.73.6.16 58.83 15.36 161.76 15.36q6.42 0 13.06-.08c4.44.05 8.78.08 13.06.08 102.92 0 161.16-15.2 161.67-15.34C653 698.93 716.34 617.37 717 616.55l.28-.37v-271zm-569.37-82.65c8.48-2.54 14.6-4.37 17.09-5.61 10.33-5.17 38.3-12.62 41.05-13.34l153.47 10.37.09-1.38.09 1.38 153.47-10.37c2.76.73 30.72 8.17 41.06 13.34 2.49 1.24 8.61 3.07 17.09 5.61C598.7 270 656 287.16 685 315.35c-34 10.84-116.16 22-322.28 27-192.22 4.75-286.15-9.52-331.84-25.73 28.55-28.91 87.22-46.48 116.05-55.11zm-119.56 59c.5-.58 1-1.15 1.56-1.72 40 14.41 116.7 27.33 263 27.33q33 0 70.86-.92c207.34-5.11 290.08-16.18 324.42-27.61.94 1 1.84 2 2.71 3L713 344.72c-353.92 52.87-676.85 5-708.8 0zM532.74 719.6c-.62.16-63.47 16.51-174.09 15.18v1.38-1.38c-110.63 1.35-173.47-15-174.18-15.21C80.81 699.33 19.79 635.08 5.67 618.69c15.95 5.41 72 22.43 169.54 31.62 37 3.49 82.75 6.06 137.19 6.06 102.66 0 236.2-9.18 400-38.65-12.32 14.57-73.65 81.16-179.66 101.88zm181.74-105.06c-251.63 45.52-431.88 43.09-538.83 33C67.3 637.38 10.33 617.52 2.78 614.75V347.33c16.76 2.67 162.36 24.82 361.45 24.82 105.48 0 226-6.23 350.25-24.85z"/></g></svg>