<svg xmlns="http://www.w3.org/2000/svg" viewBox="-0.5999999046325684 -0.6700000762939453 51.349998474121094 61.86000061035156"><title>Depositphotos_35267601_32_tx</title><g data-name="Layer 2"><path d="M46.77 25.3c1.41-.55 2.91-2 2.91-3.49 0-3.13-9.33 4.42-17-.73a1.08 1.08 0 0 1 1.21-1.79c3.52 2.37 8.66 1.36 12.39 0 4.47-1.62 4.15-1.63 4-6.08a8.11 8.11 0 0 0-1-4.06C46.7 4.94 40.8 1.53 36 .28c-3.7-.95-7.29.66-7.69 2.33-.66 2.74-2.12 5-4.6 4.76-4.29-.5-3.58-.83-7.82 0A16.61 16.61 0 0 0 7.57 12c-2.92 2.83-5.8 6.19-6.83 10.14C-.6 27.24.19 32.73.74 38c1.55 14.72 16 23.19 28.6 15 7.66-5 4.09-15.62-3.47-15.9-3.73-.14-7 3.54-5.82 6.66a1.28 1.28 0 0 0 .12.46 5.61 5.61 0 0 0 1 1.5 2.91 2.91 0 0 0 .75.58c.24.2.44.29.57.22a2.87 2.87 0 0 0 .67.08 4.38 4.38 0 0 0 1.26-.2 3.47 3.47 0 0 0 1.23-.66 1.92 1.92 0 0 0 .65-2.11 1.08 1.08 0 0 0-2.09.51.76.76 0 0 1 0 .11 1 1 0 0 1 0-.13 1.48 1.48 0 0 1-.43.2c-.93.29-1.74-1.74-1.62-2.51.35-2.22 3.77-2.3 5-.5 3 4.43-.41 8.57-7 8.94-4 .23-8.3-4.35-9.82-8.94C10 40.28 9 33.73 9.74 33a3.69 3.69 0 0 1 4.07-.58c.26.17.38 3.35 1.63 4.35l.71 1.42a1.71 1.71 0 1 0 1.58-1.06 1.72 1.72 0 0 0-.32 0c-.16-.28-1-1.34.37-1.3a1.71 1.71 0 1 0 .05-1.64c-1.9.43-1.81-.46-1.26-2.67.42-1.71-.35-3.84.73-5.23.78-1 2.08-.24 3.31.09.94.25 4.47 2.1 4 3.14a1.71 1.71 0 1 0 1.43.68c.73-1.61 1.34.1 1.74.89a1.71 1.71 0 1 0 1.68-.09 11.17 11.17 0 0 0-1.61-2.87c-1.17-1-3.73-2.67-3.35-4.3.61-2.63 9.53 2.86 13 2.85s6-.05 9.28-1.34zm-1.25-13.83A2.3 2.3 0 0 1 47 12a3.91 3.91 0 1 0 .17 3.36 2.31 2.31 0 1 1-1.66-3.91z" fill="#fff" fill-rule="evenodd" data-name="Layer 1"/></g></svg>