<svg xmlns="http://www.w3.org/2000/svg" viewBox="0 0 275.3699951171875 250.64132690429688"><title>Depositphotos_110481690_03</title><g data-name="Layer 2"><g data-name="2" style="isolation:isolate"><circle cx="122" cy="122" r="122" fill="#ffe269"/><path d="M183.06 16.36A122.06 122.06 0 0 1 68 179a121.44 121.44 0 0 1-61.06-16.36A122 122 0 1 0 183.06 16.36z" fill="#dbc04b"/><path d="M202.72 30.54A122 122 0 0 1 24.54 195.38 122 122 0 1 0 202.72 30.54z" fill="#eace59"/><ellipse cx="125.25" cy="122" rx="109.75" ry="109" fill="#3f6977"/><ellipse cx="125.25" cy="122" rx="105.99" ry="105.27" fill="#d85252"/><path d="M32.88 126.77c0-56.52 46.13-102.33 103-102.33a103.91 103.91 0 0 1 23.68 2.73 100.35 100.35 0 0 0-35.68-6.52c-55.25 0-100 44.48-100 99.36A98.93 98.93 0 0 0 62 198.08a101.61 101.61 0 0 1-29.12-71.31z" fill="#b74242"/><path d="M173 33.67c42 50.67 13.64 157.67-78.5 157.67a91.73 91.73 0 0 1-32.58-5.94 91.45 91.45 0 0 0 68.13 30.27C215 220.33 275.37 96.64 173 33.67z" fill="#ef7878"/><path d="M24.19 154.55a105.34 105.34 0 0 0 101.06 74.9c37.39 0 78.75-25.45 94.61-58.51-22.36-2.44-195.67-16.39-195.67-16.39z" fill="#91c8db"/><path d="M32.5 158.5C67 232.5 177 229 214.5 173z" fill="#a6deed"/><path d="M85.89 77.85c-2.12-4.27 3.36-15.36 1.87-23.08-.84-3.25-7.81-4.47-9.81 0-2.65 9.34 1.55 18.75-2.07 25.18l-10.65.2c-5.1 0-9.49 1.85-9.81 7.19l-4.84 79.59h52.68l5-81.5a7.33 7.33 0 0 0-1.83-5.33 6.66 6.66 0 0 0-5-2.25zm-1.7-18.92C84 60.25 83 61.2 82.09 61s-1.55-1.38-1.34-2.7 1.15-2.27 2.1-2.1 1.55 1.4 1.34 2.73z" fill="#b5664b"/><path d="M84.15 77.85C82 73.58 87.5 62.48 86 54.77c-.84-3.25-7.81-4.47-9.81 0-2.65 9.34 1.74 16.65-1.88 23.08H62.05A8.49 8.49 0 0 0 53.76 86l-4.93 80.93h52.69L106.44 86a7.91 7.91 0 0 0-2-5.75 7.17 7.17 0 0 0-5.34-2.43zm-1.7-18.92c-.21 1.33-1.15 2.27-2.1 2.1s-1.55-1.38-1.34-2.7 1.15-2.27 2.1-2.1 1.55 1.37 1.33 2.7z" fill="#ffb297"/><path d="M55.35 158l4.26-74.53 41.45-.61c.19 1.63-40.29 1.83-40.29 1.83z" fill="#d88873"/><path d="M69.56 93.28s5.55 28.29 6.71 34-5.27-32.64-6.71-34z" fill="#ea9381" opacity=".6"/><path d="M76.11 89.92s1.19 21.82 1.46 26.21S77 91.1 76.11 89.92z" fill="#ea9381" opacity=".6"/><path d="M63.28 119.83s4.21 21.41 5.09 25.71-4.01-24.69-5.09-25.71z" fill="#ea9381" opacity=".6"/><path d="M36.21 169.23s97.71 18.31 176.29 1.9c.09-.02-163.82-3.79-176.29-1.9z" style="mix-blend-mode:multiply" fill="#8f3d00" opacity=".3"/><path fill="#d67b32" d="M124.13 74.33l5.96-18.83 6.02 3.32-9.79 16.74-2.19-1.23z"/><path style="mix-blend-mode:overlay" fill="#fffcaa" opacity=".4" d="M124.13 74.33l4.44-13.94 1.68 3.92-4.39 10.16-1.73-.14z"/><path d="M152.69 127.56c0-23.87-18-43.23-40.13-43.23s-40.13 19.35-40.13 43.23 13.34 43.22 38.66 44c24.78.77 41.6-20.13 41.6-44z" fill="#c69d54"/><path d="M150.37 127.56c0-23.54-17.71-42.62-39.56-42.62S71.25 104 71.25 127.56s13.16 42.6 38.11 43.38c24.44.76 41.01-19.84 41.01-43.38z" fill="#ffda9f"/><path d="M150.37 126.77c0-23.1-17.71-41.83-39.56-41.83s-39.56 18.73-39.56 41.83 13.16 41.81 38.11 42.58c24.44.74 41.01-19.48 41.01-42.58z" fill="#edc885"/><path d="M71.25 127.56A51.12 51.12 0 0 0 76.5 151a39.8 39.8 0 0 0 18.92 5c24.44.76 41-19.84 41-43.38a44.9 44.9 0 0 0-5.6-21.87 37.25 37.25 0 0 0-20-5.86C89 84.95 71.25 104 71.25 127.56z" fill="#fff6c0"/><path d="M73 128.25a50 50 0 0 0 5.1 22.83 38.64 38.64 0 0 0 18.42 5c23.79.74 39.92-19.37 39.92-42.34A43.93 43.93 0 0 0 131 92.37a36.2 36.2 0 0 0-19.48-5.72c-21.3 0-38.52 18.62-38.52 41.6z" fill="#ffe7bd"/><path d="M138.59 127.68c0-16.52-12.43-29.92-27.77-29.92S83 111.15 83 127.68s9.24 29.91 26.75 30.46c17.25.53 28.84-13.94 28.84-30.46z" fill="#ffdb92"/><path d="M126.14 130.59c-.79 8.48-5 16-11.42 20.33 7.37-3.15 13-10.13 15-18.75 2.78-11.58-2-23.24-11.08-29a22.75 22.75 0 0 0-10.87-.71c11.62 3.13 19.61 14.96 18.37 28.13z" style="mix-blend-mode:overlay" fill="#fffcaa" opacity=".4"/><path d="M109 153.75a22.6 22.6 0 0 1-3.46.85q1.33.31 2.76.51a23.85 23.85 0 0 0 9.14-.5 23.82 23.82 0 0 1-8.44-.86z" fill="#fff8d9"/><path d="M85.35 131.75c0-17.63 13.26-31.92 29.63-31.92a28.16 28.16 0 0 1 18.02 6.62 28.66 28.66 0 0 0-22-10.52c-16.37 0-29.63 14.29-29.63 31.92 0 10.93 3.79 20.57 11.13 26.46-4.71-5.84-7.15-13.78-7.15-22.56z" style="mix-blend-mode:multiply" fill="#8f3d00" opacity=".3"/><path d="M131.62 105a33.23 33.23 0 0 1 7 20.63c0 17.61-12.4 33-30.68 32.45-8.54-.27-15.22-3.4-20-8.4 4.79 6.17 12.07 10.13 21.71 10.43 18.28.57 30.68-14.84 30.68-32.45a33 33 0 0 0-8.71-22.66z" fill="#ffe7bd"/><path d="M83 128.67c0-17.61 13.25-31.88 29.6-31.88a27.74 27.74 0 0 1 13.15 3.32 27.86 27.86 0 0 0-14.9-4.34c-16.34 0-29.59 14.28-29.59 31.88 0 12.77 5.18 23.78 15.15 29.09C87.54 151.13 83 140.68 83 128.67z" style="mix-blend-mode:multiply" fill="#8f3d00" opacity=".3"/><path fill="#487899" d="M145.48 68.88h-10.59l.75 6.09 9.49.46.35-6.55z"/><path fill="#80b3e5" d="M176.99 160.97l-28.67-87.18h-16.27l-6.37 87.18h-2.28v10.29h54.62v-10.29h-1.03z"/><path fill="#9bcff9" d="M145.61 78.12h-11.04l-7.55 87.73 45.9 1.01-27.31-88.74z"/><path fill="#80b3e5" d="M147.74 94.77h-12.98l-6.19 65.6 38.16-.41-18.99-65.19z"/><path fill="#6494b5" d="M176.97 160.9l-28.65-87.11h-5.44l29.33 93.14-48.81 2.71v1.62h54.62l.55-10.36h-1.6z"/><path d="M96.8 151.91H38.44l-1.2 19.83c12.49.41 9.1-7.31 21.79 0 6.1-.41 11.54-5.85 20.14 0 9-.41 8.43-4.47 17.72.2z" fill="#ea7e34"/><path d="M96.8 151.91H38.44l-1.16 19.76c6.84 0 9.94-9.34 21.69.27 7.47-5.74 12.05-5.81 20 0 10.72-8.26 13.17-.81 17.82 0z" fill="#ffa748"/><path d="M79.18 151.91v19.89c10-6.56 13-.66 17.63.14v-20z" fill="#ea7e34"/><path d="M59.74 158.41c-.12-.41-.4-.68-.63-.61s-.32.46-.2.87.4.68.63.61.31-.47.2-.87z" fill="#ea7e34"/><path d="M50.8 160.87c-.12-.41-.4-.68-.63-.61s-.32.46-.2.87.4.68.63.61.32-.46.2-.87z" fill="#ea7e34"/><path d="M77.53 157.62c-.12-.41-.4-.68-.63-.61s-.32.46-.2.87.4.68.63.61.32-.49.2-.87z" fill="#ea7e34"/><path d="M68.45 165.31c-.12-.41-.4-.68-.63-.61s-.32.46-.2.87.4.68.63.61.32-.46.2-.87z" fill="#ea7e34"/><path d="M43.27 166.83c-.12-.41-.4-.68-.63-.61s-.32.46-.2.87.4.68.63.61.32-.46.2-.87z" fill="#ea7e34"/><path d="M68.55 161.86c-.12-.41-.4-.68-.63-.61s-.32.46-.2.87.4.68.63.61.32-.46.2-.87z" fill="#ea7e34"/><path d="M76.07 161.55c-.12-.41-.4-.68-.63-.61s-.32.46-.2.87.4.68.63.61.32-.42.2-.87z" fill="#ea7e34"/><path d="M44.42 158.9c-.23-.78-.76-1.3-1.19-1.16s-.61.88-.38 1.66.76 1.3 1.19 1.16.61-.89.38-1.66z" fill="#ea7e34"/><path d="M57.11 166.82c-.22-.78-.76-1.3-1.19-1.16s-.6.88-.38 1.66.76 1.3 1.19 1.16.6-.89.38-1.66z" fill="#ea7e34"/><path d="M62.82 163.47c-.22-.78-.76-1.3-1.19-1.16s-.6.88-.38 1.66.76 1.3 1.19 1.16.56-.89.38-1.66z" fill="#ea7e34"/><path d="M83.12 157.86c.14-.47 0-.93-.23-1s-.59.23-.73.7 0 .93.23 1 .61-.23.73-.7z" fill="#d3712f"/><path d="M94.86 160c.14-.47 0-.93-.23-1s-.59.23-.73.7 0 .93.23 1 .6-.2.73-.7z" fill="#d3712f"/><path d="M94 167.61c.14-.48 0-.93-.23-1s-.59.23-.73.71 0 .93.23 1 .55-.24.73-.71z" fill="#d3712f"/><path d="M86.4 161.39c.14-.47 0-.93-.23-1s-.59.23-.73.7 0 .93.23 1 .59-.22.73-.7z" fill="#d3712f"/><path d="M91.65 158.79c.23-.78.06-1.52-.38-1.66s-1 .38-1.2 1.15-.06 1.52.37 1.66.98-.37 1.21-1.15z" fill="#d3712f"/><path d="M89.83 164.09c.23-.78.06-1.52-.38-1.66s-1 .38-1.2 1.15-.06 1.52.38 1.66.97-.38 1.2-1.15z" fill="#d3712f"/><path d="M83.11 167c.23-.78.06-1.52-.38-1.66s-1 .38-1.2 1.15-.06 1.52.38 1.66.98-.35 1.2-1.15z" fill="#d3712f"/><path d="M76.73 165c-.22-.78-.76-1.29-1.19-1.16s-.61.88-.38 1.66.76 1.3 1.19 1.16.65-.89.38-1.66z" fill="#ea7e34"/><path fill="#c15a36" d="M39.65 148.76l-1.07.07.13 2.02 1.06-.07-.12-2.02z"/><path fill="#c15a36" d="M56.48 148.43l-1.04-.25-.43 1.98 1.03.25.44-1.98z"/><path fill="#c15a36" d="M51.96 147.98h1.07v2.03h-1.07z"/><path fill="#c15a36" d="M50.76 148.23l-1.04-.25-.43 1.98 1.04.25.43-1.98z"/><path fill="#c15a36" d="M46.25 147.77h1.06v2.03h-1.06z"/><path fill="#c15a36" d="M98.91 150.29l-1-.38-.66 1.91 1 .38.66-1.91z"/><path fill="#c15a36" d="M95.55 149.39l-1.06-.14-.24 2.01 1.05.14.25-2.01z"/><path fill="#c15a36" d="M93.27 149.34l-1-.38-.67 1.91 1 .38.67-1.91z"/><path fill="#c15a36" d="M89.95 148.7l-1.04-.24-.42 1.98 1.04.24.42-1.98z"/><path fill="#c15a36" d="M86.27 148.6l-1.04-.25-.43 1.98 1.04.25.43-1.98z"/><path fill="#c15a36" d="M81.76 148.15h1.07v2.03h-1.07z"/><path fill="#c15a36" d="M80.56 148.4l-1.04-.25-.43 1.98 1.04.25.43-1.98z"/><path fill="#c15a36" d="M76.32 148.22l-1.04-.24-.42 1.98 1.04.25.42-1.99z"/><path fill="#c15a36" d="M61.05 148.15l-1.06.07.12 2.02 1.07-.07-.13-2.02z"/><path fill="#c15a36" d="M58.92 148.25l-1.07.07.13 2.03 1.07-.08-.13-2.02z"/><path fill="#c15a36" d="M43.13 148.04l-1.06.08.13 2.02 1.06-.07-.13-2.03z"/><path fill="#c15a36" d="M72.65 148.13l-1.04-.25-.43 1.98 1.04.25.43-1.98z"/><path fill="#c15a36" d="M68.14 147.67h1.06v2.03h-1.06z"/><path fill="#c15a36" d="M66.93 147.93l-1.04-.25-.43 1.98 1.04.25.43-1.98z"/><path fill="#c15a36" d="M62.42 147.47h1.07v2.03h-1.07z"/><path fill="#c15a36" d="M98.87 151.63l-16.89-2.44-45.22.55.35 3.76 61.76 2.6v-4.47z"/><path fill="#eddfa4" d="M150.74 51.32l-27.77.03.27 6.36 7.17 2.03 3.87 10.85 13.95.53 2.51-19.8z"/><path fill="#fff3c0" d="M146 52.33l-23.03-.98.27 6.36 7.17 2.03 3.87 10.85 10.75-2.42.97-15.84z"/><path fill="#bbdaea" d="M146.24 96.96h-10.36l-4.48 61.41 32.8-.26-17.96-61.15z"/><path fill="#b3ddff" d="M144.06 73.96l-11.91-.2-.68 5.58 12.59-5.38z"/><path fill="#ff9166" d="M131.93 149.06l26.98-8.8 5.29 17.85-32.8.26.53-9.31z"/><path fill="#ffe05f" d="M134.64 112.92l11.6-15.96h-10.36l-1.24 15.96z"/><path d="M137.87 147.06s-6.49-13 6.68-11.17c0 0-3.49-5.38 2.52-4.77 0 0-14.33-4.26-3.2-7.41 0 0-5-6.7 3-4.16 0 0-3.87-3.35.29-3.66 0 0-1.45-2.33.68-2 0 0-7-6.3 1.16-6.9l9.91 33.3z" fill="#e1fbff"/><path d="M142.82 115.76a1.27 1.27 0 0 0-1-1.4 1.2 1.2 0 0 0-1.57.63 1.27 1.27 0 0 0 1 1.4 1.19 1.19 0 0 0 1.57-.63z" fill="#e1fbff"/><path d="M141.83 122.58a1 1 0 0 0-.8-1.1.94.94 0 0 0-1.24.5 1 1 0 0 0 .81 1.1.94.94 0 0 0 1.23-.5z" fill="#e1fbff"/><path d="M137.51 133.61a1 1 0 0 0-.8-1.1.94.94 0 0 0-1.24.5 1 1 0 0 0 .8 1.1.94.94 0 0 0 1.24-.5z" fill="#e1fbff"/><path d="M143 134.27a1 1 0 0 0-.8-1.1.94.94 0 0 0-1.23.49 1 1 0 0 0 .81 1.1.94.94 0 0 0 1.22-.49z" fill="#e1fbff"/><path d="M145 139.62a2.32 2.32 0 0 0-1.89-2.55 2.19 2.19 0 0 0-2.87 1.16 2.33 2.33 0 0 0 1.89 2.55 2.19 2.19 0 0 0 2.87-1.16z" fill="#cbe6f7"/><path d="M146.73 121.84c.24-.44-.29-1.23-1.19-1.76s-1.81-.6-2-.16.29 1.23 1.19 1.76 1.77.6 2 .16z" fill="#cbe6f7"/><path d="M136.17 145.23a1 1 0 0 0-.8-1.1.94.94 0 0 0-1.23.49 1 1 0 0 0 .8 1.1.94.94 0 0 0 1.23-.49z" fill="#e1fbff"/><path d="M147.41 105.43a1 1 0 0 0-.8-1.1.94.94 0 0 0-1.23.49 1 1 0 0 0 .8 1.1.93.93 0 0 0 1.23-.49z" fill="#e1fbff"/><path fill="#f4da5b" d="M131.73 154.54l-.06 3.59 32.73-.4-2.71-9.55-29.96 6.36z"/><path d="M50.53 167.67l3-10.62-15.11-2.71-1.16 17.33c4.84 0 7.81-4.67 13.27-4z" style="mix-blend-mode:overlay" fill="#fffcaa" opacity=".4"/><path fill="#ff7b4d" d="M81.44 150.41l-44.39-.3-.29 2.54 43.51 1.96 1.17-4.2z"/><path fill="#ffcd40" d="M123.94 50.62l-2.13.22.74 7.68 2.05.11-.66-8.01z"/><path fill="#d67b32" d="M149.84 58.56l.23-2.22-7.3-.15-.54 1.38 7.61.99z"/><path d="M119.22 107c1.39 1 2.84 1.33 3.24.73s-.42-1.9-1.81-2.9-2.84-1.33-3.24-.73.42 1.85 1.81 2.9z" fill="#fff8d9"/><path d="M205.4 128.34c0-19.42-37.7-17.24-37.7-.53l2.71 43.86c9 1.15 20.05 1.26 34.48 0z" fill="#c2ea5e"/><path d="M171.1 120.06a10.59 10.59 0 0 0-3.41 7.75l2.71 43.86h3.6z" style="mix-blend-mode:overlay" fill="#fffcaa" opacity=".4"/><path d="M195.78 115.91l-5.35 55.75h14.45l.52-43.33c0-6.4-4.11-10.46-9.62-12.42z" fill="#adc953"/><path fill="#c2ea5e" d="M180.99 108.18h11.1v10.56h-11.1z"/><path d="M203.17 130.08c0-17.12-33.24-15.2-33.24-.47l2.39 38.67h30.4z" fill="#96aa43"/><ellipse cx="196.55" cy="141.14" rx="2" ry="3.05" style="mix-blend-mode:overlay" fill="#fffcaa" opacity=".4"/><ellipse cx="179.83" cy="157.18" rx="2" ry="3.05" style="mix-blend-mode:overlay" fill="#fffcaa" opacity=".4"/><ellipse cx="179.12" cy="145.88" rx="1.23" ry="1.87" style="mix-blend-mode:overlay" fill="#fffcaa" opacity=".4"/><ellipse cx="190.23" cy="150.48" rx="1.23" ry="1.87" style="mix-blend-mode:overlay" fill="#fffcaa" opacity=".4"/><ellipse cx="197.26" cy="162.96" rx=".91" ry="1.04" style="mix-blend-mode:overlay" fill="#fffcaa" opacity=".4"/><ellipse cx="185.64" cy="138.1" rx=".9" ry="1.04" style="mix-blend-mode:overlay" fill="#fffcaa" opacity=".4"/><ellipse cx="176.86" cy="164.22" rx=".9" ry="1.04" style="mix-blend-mode:overlay" fill="#fffcaa" opacity=".4"/><ellipse cx="190.03" cy="159.21" rx=".9" ry="1.04" style="mix-blend-mode:overlay" fill="#fffcaa" opacity=".4"/><path d="M170.4 130.92s9.68 5.55 14.85 2.17 14.85-3.25 17.17-1.76c2.07-14.89-31.5-18.14-32.02-.41z" style="mix-blend-mode:overlay" fill="#fffcaa" opacity=".4"/><path d="M173.44 130.31c.19 26.4 9.49 67.42 16.85-2.84l-16.85 3.45s-.01-1.22 0-.61z" style="mix-blend-mode:overlay" fill="#fffcaa" opacity=".4"/><path d="M188.68 120.38c-.46-1.7-4.11-2.12-8.16-.93s-7 3.54-6.51 5.24 4.11 2.12 8.16.93 6.96-3.54 6.51-5.24z" style="mix-blend-mode:overlay" fill="#fffcaa" opacity=".7"/><path fill="#adc953" d="M192.16 108.08l-8.46 2.53.23 4.57 12.3.92-3.78-2.44-.29-5.58z"/><path style="mix-blend-mode:overlay" fill="#fffcaa" opacity=".4" d="M189 112l-.42 1.56 3.87.1-.26-2.47-3.19.81z"/><path d="M196.23 125L191 166l9.88.2s3.29-47.26-4.65-41.2z" style="mix-blend-mode:multiply" fill="#9a5300" opacity=".2"/><path fill="#f2e197" d="M187.45 100.32l-2.81.11-.48 7.71h3.77l-.48-7.82z"/><path fill="#fff3c0" d="M192.77 106.31l-12.39.21-.39 4.26 13.27-.71-.49-3.76z"/><path fill="#eddfa4" d="M193.04 106.31l-5.61.21.12 3.35 5.71.2-.22-3.76z"/><path d="M179.25 98.34c-1.5 5.72 1.9 4.07 13.49 3l7.66-.7-.3-1.18s-19.82-5.05-20.85-1.12z" fill="#fff3c0"/><ellipse cx="173.84" cy="133.68" rx="1.4" ry="4.01" fill="#fffcaa"/><path fill="#d6c47b" d="M200.72 99.65l-4.46-.82-.29 2.24h4.84l-.09-1.42z"/><path style="mix-blend-mode:overlay" fill="#fff0c8" opacity=".8" d="M136.17 52.89l-7.46-.1.24 1.47 7.22 2.29v-3.66z"/><path fill="#ffffd2" d="M102.36 77.09l9.81-14.4-7.12 15.21 9.72 8.99-10.18-6.88-6.49 6.85 3.39-8.31-5.27-5.14 6.14 3.68z"/></g></g></svg>