<svg xmlns="http://www.w3.org/2000/svg" viewBox="-0.049356937408447266 0 97.84209442138672 137.19000244140625"><title>Depositphotos_124760128_3_ic</title><g data-name="Layer 2"><g data-name="Layer 1"><path d="M53.44 76.16h9.3C62.55 88.74 60.15 109 46.67 109h-9.3c13.48 0 15.88-20.26 16.07-32.84z" fill="#faab64"/><path d="M56.75 62.13a1.5 1.5 0 0 0 1.38 1.61h.12a1.5 1.5 0 0 0 1.49-1.38A243.1 243.1 0 0 0 59.86 26h5.74a243.23 243.23 0 0 0 .12 36.41 1.5 1.5 0 1 0 3-.24 240 240 0 0 1 0-37.56l.13-1.61h-4.62v-5.3a1.5 1.5 0 1 0-3 0V23h-4.61l.13 1.62a239.9 239.9 0 0 1 0 37.51z" fill="#fff"/><path d="M58.25 19.11a1.5 1.5 0 0 0 1.5-1.5V6a3 3 0 1 1 6 0v11.61a1.5 1.5 0 0 0 3 0V6a6 6 0 1 0-12 0v11.61a1.5 1.5 0 0 0 1.5 1.5z" fill="#fff"/><path d="M38.16 62.13a1.5 1.5 0 0 0 3 .24A243.23 243.23 0 0 0 41.27 26H47a243.1 243.1 0 0 0 .12 36.41 1.5 1.5 0 0 0 1.49 1.38h.12a1.5 1.5 0 0 0 1.38-1.61 239.9 239.9 0 0 1 0-37.56l.14-1.62h-4.61v-5.3a1.5 1.5 0 0 0-3 0V23H38l.13 1.62a240 240 0 0 1 .03 37.51z" fill="#fff"/><path d="M39.65 19.11a1.5 1.5 0 0 0 1.5-1.5V6a3 3 0 0 1 6 0v11.61a1.5 1.5 0 0 0 3 0V6a6 6 0 0 0-12 0v11.61a1.5 1.5 0 0 0 1.5 1.5z" fill="#fff"/><path d="M19.57 62.13a1.5 1.5 0 0 0 3 .24 181.53 181.53 0 0 0 .12-26.77h5.75a181.53 181.53 0 0 0 .12 26.77A1.5 1.5 0 0 0 30 63.75h.12a1.5 1.5 0 0 0 1.38-1.61 178.48 178.48 0 0 1 0-27.92l.13-1.62h-4.58v-5.32a1.5 1.5 0 0 0-3 0v5.32h-4.61l.13 1.62a178.48 178.48 0 0 1 0 27.91z" fill="#fff"/><path d="M21.06 28.78a1.5 1.5 0 0 0 1.5-1.5V16.52a3 3 0 0 1 6 0v10.76a1.5 1.5 0 0 0 3 0V16.52a6 6 0 0 0-12 0v10.76a1.5 1.5 0 0 0 1.5 1.5z" fill="#fff"/><path d="M1 62.13a1.5 1.5 0 1 0 3 .24 120 120 0 0 0 .12-17.13h5.72A120 120 0 0 0 10 62.37a1.5 1.5 0 0 0 1.49 1.38h.12a1.5 1.5 0 0 0 1.38-1.61 116.81 116.81 0 0 1 0-18.28l.13-1.62H8.46V37a1.5 1.5 0 0 0-3 0v5.26H.85L1 43.85a116.81 116.81 0 0 1 0 18.28z" fill="#fff"/><path d="M2.47 38.48A1.5 1.5 0 0 0 4 37V26.23a3 3 0 0 1 6 0V37a1.5 1.5 0 0 0 3 0V26.23a6 6 0 0 0-12 0V37a1.5 1.5 0 0 0 1.47 1.48z" fill="#fff"/><path d="M97.11 35.43a5.13 5.13 0 0 0-3.41-4.49 5 5 0 0 0-5.38 1.24c-3.1 3.19-6.23 8.71-3.94 17.09-1.72 1.62-5.21 6.14-5.13 15.81C74.61 69.38 68 69.47 68 69.47h-3.77v-7.25a1.5 1.5 0 1 0-3 0v7.26H45.64v-7.26a1.5 1.5 0 0 0-3 0v7.26H27.05v-7.26a1.5 1.5 0 0 0-3 0v7.26H8.46v-7.26a1.5 1.5 0 0 0-3 0v7.28A6 6 0 0 0 0 75.57c.18 19 4.58 31.72 12.62 37.15h-.5a4.73 4.73 0 0 0-4.72 4.72v1.92a7.77 7.77 0 0 0 5.21 7.33v9a1.5 1.5 0 0 0 3 0v-8.6h37.28v8.6a1.5 1.5 0 0 0 3 0V127a7.77 7.77 0 0 0 6.41-7.64v-1.92a4.73 4.73 0 0 0-4.72-4.72h-.69c3.37-2.27 6.1-5.82 8.14-10.61 19.54-4.85 25.85-26.09 26.11-27l.24-.85-9.14-9.16c-.06-7 1.9-10.83 3.3-12.65l1.36 3.4a1.5 1.5 0 1 0 2.78-1.12l-2.17-5.43c-1.88-6-.88-11.07 3-15a2 2 0 0 1 2.21-.5 2.14 2.14 0 0 1 1.44 1.89A115.35 115.35 0 0 1 91.71 67a1.5 1.5 0 0 0 2.92.7 116.2 116.2 0 0 0 2.48-32.27zm-37.82 82v1.92a4.77 4.77 0 0 1-4.77 4.77H15.17a4.77 4.77 0 0 1-4.77-4.77v-1.92a1.72 1.72 0 0 1 1.72-1.72h45.45a1.72 1.72 0 0 1 1.72 1.73zm7-18.83a60.11 60.11 0 0 0 2.22-10 5.18 5.18 0 0 1 2.95-3.94l.91-.42c2.12-.95 5.31-2.38 7.23-5.08a1.5 1.5 0 0 0-2.44-1.74c-1.45 2-4.09 3.22-6 4.08l-1 .44a8.17 8.17 0 0 0-4.64 6.23A53.52 53.52 0 0 1 62.68 100a1.5 1.5 0 0 0-.21.52c-3.3 8.09-8.57 12.17-15.76 12.17h-24C5.87 112.71 3.13 89.43 3 75.54a3 3 0 0 1 3-3.07h62a21.55 21.55 0 0 0 12.75-4.67L88 75.1c-1.3 3.7-7.36 18.76-21.67 23.51z" fill="#fff"/></g></g></svg>