<svg xmlns="http://www.w3.org/2000/svg" viewBox="0 0 80.31000518798828 55.650001525878906"><title>Depositphotos_27317021_14</title><g data-name="Layer 2"><path fill="#352f18" d="M73.75 48.43l-37.88 7.22V37.12l37.88-5.25v16.56z"/><path fill="#352f18" d="M0 41.55l35.87 14.1V37.12L.12 24.57 0 41.55z"/><path fill="#fff" d="M73.75 45.59L35.87 52.8V34.27l37.88-5.24v16.56z"/><path fill="#e6e1ca" d="M0 38.7l35.87 14.1V34.27L.12 21.73 0 38.7z"/><path fill="#eae6da" d="M.12 21.73l35.75 12.83 37.88-5.53L32.1 14.58.12 21.73z"/><path fill="#352f18" d="M13.07 2.71v18.36l1.64 9.84.49-20.24-2.13-7.96z"/><path fill="#352f18" d="M79.32 30.91H14.71l3.22-18.36h61.09l.3 18.36z"/><path fill="#e5bf47" d="M79.32 28.21H14.71l.99-18.37h64.61l-.99 18.37z"/><path fill="#fad255" d="M80.31 9.84H15.7L13.07 0H75.8l4.51 9.84z"/><path fill="#d6b342" d="M13.07 0v18.37l1.64 9.84.99-18.37L13.07 0z"/></g></svg>