<svg xmlns="http://www.w3.org/2000/svg" viewBox="-0.2199997901916504 0 265.11053466796875 477.54168701171875"><title>Depositphotos_92926990_02</title><g data-name="Layer 2"><g data-name="1"><path d="M158.57 299.42c-.29.12-.05-.13-.09-.32z" fill="#91c7a1"/><path d="M162.78 289.54c-1.49 3.26-2.63 6.63-4.19 9.88 3.6-1.71 6.49-1 10.27-1.35a7 7 0 0 0 5-2.93 7.37 7.37 0 0 0 3.54 4.52c2.77 1.82 5.3 3.24 6.22 6.73v1.11c0-4.47 2.21-7.78 3.49-12a9.58 9.58 0 0 0 .31-4.6 12.46 12.46 0 0 0 2.3.63c3.33.57 6.59.31 9.84 1.41l.32-.25c-2.57-4.57-3-12.85-9.86-12.82 5.3-2.07 4.67-11.43 4.73-16.3-1.88 2.92-4.06 4-7.36 5.07a14.87 14.87 0 0 0-4.88 2.26 6.51 6.51 0 0 0-.5-1.44c-1.48-3-4.49-5.47-6.53-8.18l-2.82-2.47c1.58 3.62.83 5.78-1.39 8.91a12.29 12.29 0 0 0-1.8 3.41 11.63 11.63 0 0 0-3.5-.69c-1.95-.11-3.22.6-4.95 1.35a41.22 41.22 0 0 0-4.48 2.13 14 14 0 0 1-2.53 1.25c-.73.24-1.67.13-2.25.65a41.82 41.82 0 0 1 6.65 4.82 13.58 13.58 0 0 0 8.82 3.3c-2.07 1.18-3.56 3.65-4.45 5.6zm7.4-6.23a8.63 8.63 0 0 0 1.33-.66 5.31 5.31 0 0 0 2.69-4.65 7.56 7.56 0 0 0 6.7-1.88c.81 2.31 3.4 3.9 5.85 4.16h.73a6.13 6.13 0 0 0-4.37 5.12v.4a8 8 0 0 0-1.56-.35 6.51 6.51 0 0 0-6.26 3 6.31 6.31 0 0 0-4.46-5 4.56 4.56 0 0 0-.65-.14z" fill="#91c7a1"/><path d="M194.77 263.57v-.35z" fill="#91c7a1"/><path d="M65.73 281.82c-3.4-2.82-11-9.13-2.34-10.62 5.41-.93 4.8 7.32 5.06 11 3-2.91 5.54-5.84 8.84-8.24 1.65 2.42 4 7.33.18 8.35-2.69.73-5.88.78-8.76 1.14 4.43 1.58 15.66 5.27 7.91 8.8-6 2.75-7.43-2.64-9.68-6.73-1.28 3.29-.67 13.89-6.78 11.5-7.14-2.79 2.76-9.48 5.15-11.87-3.47 1.35-12.6 6.7-13 .21-.4-6.97 9.38-3.45 13.42-3.54z" fill="#ffe99b"/><path d="M65.63 265.74c4-1.14 8.76-2.2 12.12-4.57 1.84-1.3 4.05-2.94 5-5l.23-.93c.44.08.89.18 1.33.25 2.14.33 4.24.64 6.32 1l6.22 1.37 6.27 1.3a.66.66 0 0 0 .79-.49.63.63 0 0 0-.5-.75h-.09a42.05 42.05 0 0 1-6.23-1c-2.06-.46-4-1.11-6.1-1.74s-4.09-1.19-6-1.92c-.45-.17-.89-.34-1.33-.52l.34-1.54c1.27-2.76-4.42-8.46-6-10.63-2.5-3.53-6-5.58-9-8.41.84 1.67.77 3.59 1.94 5-6.89-2.94-12.84-9.92-21.38-8.78 1.51 1.33 3.09 2.71 4.43 4.13a25.56 25.56 0 0 0-10.34-2.21c-3.63-.13-7.33.93-11 .51.48 1.15 3.34 3.28 4.73 3.68-2-.17-4 .43-5.94.49-2.2.08-4.21-.4-6.37-.45-4-.08-8.35.8-12.15 0 1.39 3.13 8.31 4.65 11.13 6.69a26.49 26.49 0 0 0 5.53 3.06c2 .85 4.24 1.18 6.14 2.09-2.91.19-6.62 1.49-9.79.36 2.14 2.05 4.93 3.29 7.62 4.61 2.44 1.2 6 1.91 8.15 3.36-1.91.56-3.62 1.47-5.64 1.13 1.77 2.93 7.81 4.46 10.95 5.38a41.82 41.82 0 0 0 6.32 1.34c1.78.23 3.88-.21 5.55.41-1.64 1.45-4.77 1.08-6.65 2.09 3.86 2.55 9.21 1.89 13.4.69zm-9.11-5.81a.17.17 0 0 1 .17-.18 32.06 32.06 0 0 0 10.17-1.92l1-.37c2.75-1 7.84-2.91 8.64-5.24-.92-.33-1.84-.64-2.78-.91-2.31-.67-4.67-1.22-7-1.72-7 4.21-17 4.6-29.59 1.13a.17.17 0 0 1-.12-.21.17.17 0 0 1 .22-.12c12.3 3.38 22 3.07 29-.91-2.36-.48-4.73-.91-7.06-1.33-2.63-.47-5.34-1-8-1.52a174.9 174.9 0 0 1-17.5-5.12c-4.5-1.48-9.16-3-13.4-4.12a.17.17 0 0 1-.13-.21.19.19 0 0 1 .22-.12c4.25 1.1 8.92 2.64 13.43 4.13a173.08 173.08 0 0 0 17.46 5.11c2.66.56 5.36 1.06 8 1.53 2.47.44 5 .9 7.48 1.42-2.06-3.09-6.35-5.46-9.83-7.38l-1.9-1.06a63.1 63.1 0 0 0-8.75-4.05l-1.47-.59a22.66 22.66 0 0 0-5.32-1.71.17.17 0 0 1-.15-.19.18.18 0 0 1 .2-.15 23.25 23.25 0 0 1 5.42 1.73c.51.21 1 .41 1.46.59a62.75 62.75 0 0 1 8.8 4.08l1.9 1.06c3.57 2 8 4.42 10.08 7.66a.16.16 0 0 1 0 .12c2.26.48 4.52 1 6.74 1.65.86.25 1.71.55 2.56.84a52.67 52.67 0 0 0-7.27-9.63c-3.56-3.94-7.7-6.77-12.08-9.76l-2-1.35a.17.17 0 0 1 0-.24.18.18 0 0 1 .25 0l2 1.34c4.4 3 8.55 5.85 12.14 9.82a52.09 52.09 0 0 1 7.5 10c1.17.42 2.32.85 3.45 1.28l1.31.51a.18.18 0 0 1 .11.22.18.18 0 0 1-.23.09l-1.32-.51c-1.11-.42-2.24-.85-3.38-1.26 0 .08-.06.16-.09.24-1.08 2.35-5.86 4.13-8.77 5.22l-1 .36a32.25 32.25 0 0 1-10.28 2 .17.17 0 0 1-.29-.25z" fill="#f7931e"/><path d="M56.8 241.85l-1.9-1.06a63.1 63.1 0 0 0-8.75-4.05l-1.47-.59a22.66 22.66 0 0 0-5.32-1.71.17.17 0 0 1-.15-.19.18.18 0 0 1 .2-.15 23.25 23.25 0 0 1 5.42 1.73c.51.21 1 .41 1.46.59a62.75 62.75 0 0 1 8.8 4.08l1.9 1.06c3.57 2 8 4.42 10.08 7.66a.16.16 0 0 1 0 .12l-.43-.09c-2.08-3.1-6.37-5.48-9.84-7.4z" fill="#f9d8b1"/><path d="M69.09 242.19c-3.56-3.94-7.7-6.77-12.08-9.76l-2-1.35a.17.17 0 0 1 0-.24.18.18 0 0 1 .25 0l2 1.34c4.4 3 8.55 5.85 12.14 9.82a52.09 52.09 0 0 1 7.5 10l-.51-.17a52.67 52.67 0 0 0-7.3-9.64z" fill="#f9d8b1"/><path d="M76.72 252a.18.18 0 0 0-.23.11v.06c-.92-.33-1.84-.64-2.78-.91-2.31-.67-4.67-1.22-7-1.72a.17.17 0 0 0 .07-.07.16.16 0 0 0 0-.16.18.18 0 0 0-.24-.05l-.37.2c-2.36-.48-4.73-.91-7.06-1.33-2.63-.47-5.34-1-8-1.52a174.9 174.9 0 0 1-17.5-5.12c-4.5-1.48-9.16-3-13.4-4.12a.17.17 0 0 1-.13-.21.19.19 0 0 1 .22-.12c4.25 1.1 8.92 2.64 13.43 4.13a173.08 173.08 0 0 0 17.46 5.11c2.66.56 5.36 1.06 8 1.53 2.47.44 5 .9 7.48 1.42l.43.09c2.26.48 4.52 1 6.74 1.65.86.25 1.71.55 2.56.84l.51.17c1.17.42 2.32.85 3.45 1.28l1.31.51a.18.18 0 0 1 .11.22.18.18 0 0 1-.23.09l-1.32-.51c-1.11-.42-2.24-.85-3.38-1.26v-.07a.17.17 0 0 0-.13-.24z" fill="#f9d8b1"/><path d="M66.76 249.33a.16.16 0 0 1 0 .16.17.17 0 0 1-.07.07c-7 4.21-17 4.6-29.59 1.13a.17.17 0 0 1-.12-.21.17.17 0 0 1 .22-.12c12.3 3.38 22 3.07 29-.91l.37-.2a.18.18 0 0 1 .19.08z" fill="#f9d8b1"/><path d="M56.69 259.75a32.06 32.06 0 0 0 10.17-1.92l1-.37c2.75-1 7.84-2.91 8.64-5.24v-.06a.18.18 0 0 1 .23-.11.17.17 0 0 1 .12.21v.07c0 .08-.06.16-.09.24-1.08 2.35-5.86 4.13-8.77 5.22l-1 .36a32.25 32.25 0 0 1-10.28 2 .17.17 0 0 1-.18-.17.17.17 0 0 1 .16-.23z" fill="#f9d8b1"/><path d="M91.65 232.29c2.26 4.08.84 9.08 3.7 13.26 3.17 4.62 8.65 7 13.67 9.53-12.42.38-14.11 10.64-21.71 17.93 9.65-1.64 22.8 4.13 29.64-5.49-1.83 4.5-6.31 7.63-8.5 12.15-2.32 4.79-.39 9.35-1.72 14.17 3.38-3.52 8-4.66 11.77-7.64 4-3.15 7.29-7.81 8.31-12.6 1.58 4.17.09 9.35 2.68 13.41 2.13 3.35 7.39 7.27 10.69 9.16-1-7.74 3.43-14.5-.78-22.17 3.33 2.22 10.42 3.47 14 1.66 5.44-2.73 6.11-7.3 12.42-8.53-1.8-1.46-4.3-1.57-6.29-2.89-1.7-1.13-3-2.83-4.55-3.92-4-2.72-7-2.3-10.6-2l.45-.79c6.77-1 12.14-13.77 16.09-18.45-4.95.34-10.3-1-15 0-5.93 1.36-8.51 5.19-12.5 8.7 5.83-10.58-5.3-19.2-9.91-27.78-2.78 8.59-7 17.63-4.49 27-2.77-3.89-7.05-6.95-11.24-9.35-5.07-2.85-11.31-2.29-16.13-5.36zm33.9 19.12L125 251c3.91 1.46 8.31 3.84 7.24 8.63a7.12 7.12 0 0 1-9.09 5.33c-10.45-3.48-2.67-15.07 2.4-13.56z" fill="#008688"/><path d="M127.68 253.19l-2.13-1.78a3.71 3.71 0 0 1 2.13 1.78z" fill="#ffd300"/><path d="M125.55 251.4l2.13 1.78a3.71 3.71 0 0 0-2.13-1.78l-.55-.4c3.91 1.46 8.31 3.84 7.24 8.63a7.12 7.12 0 0 1-9.09 5.33c-10.45-3.48-2.67-15.07 2.4-13.56z" fill="#ffd300"/><path d="M110.55 331l.14.46v1.07c.09 3.8-.13 7.77-.17 11.57a106.3 106.3 0 0 0 1 16c.38 2.71.54 8.13 2.33 10.39.53-7.06 2.17-14.4 2-21.68a37.59 37.59 0 0 0-2.56-13.48c-.49-1.28-.87-3.39-1.93-4.38a2 2 0 0 0-.69-.43c-.05.19-.08.37-.12.48z" fill="#8cc63f"/><path d="M108.38 329.55l.78.34.37-.39a6.31 6.31 0 0 0-1.15.05z" fill="#8cc63f"/><path d="M109.51 330.05c.25-.17.5-.34.75-.52h-.64l-.31.46z" fill="#8cc63f"/><path d="M109.94 329.8l-.13.38z" fill="#8cc63f"/><path d="M109.85 329.16c-.11.1-.21.23-.32.34h.09z" fill="#8cc63f"/><path d="M109.81 330.18l-.3-.13-.5.3.29-.4-.15-.07c-.25.27-.51.53-.76.82s-.66.35-1 .52l-.9.41c-3.24 1.43-6.89 2.39-9.82 4.12-5.1 3-9.28 8.46-12.95 12.9-2.4 2.92-4 6.72-6.79 9.31 8.53-2.86 12.94-9.38 19.12-15.4 3.13-3.05 7.2-6 10.46-9.33a97.16 97.16 0 0 0-5.23 9.55c-4.55 8.84-9.69 18.75-12.25 28.3a39.79 39.79 0 0 0 12.73-18.62c2.11-6.43 4.7-12.69 6.94-19.05l.31-.86c.27-.78.54-1.55.8-2.37z" fill="#8cc63f"/><path d="M110.67 330.56h-.09l-.72-.32c-.25.78-.48 1.58-.69 2.37-.08.29-.16.59-.24.89-1 3.81-1.55 7.69-2.32 11.58-1.19 6-2.06 12.09-3.31 18.11-.52 2.48-2.62 7.42-1.79 9.95 3.55-6.56 6.7-12.3 7.52-19.89.53-4.92 1.27-10 1.33-14.9 0-1.55-.13-3.49 0-5.25a11.38 11.38 0 0 1 .27-2c-.04-.21-.01-.39.04-.54z" fill="#8cc63f"/><path d="M116.54 310.88a11.88 11.88 0 0 0 .15-6.67c-.07-.28-.15-.55-.25-.83s-.15-.42-.23-.62a9.18 9.18 0 0 0-4.35-5.28 10.58 10.58 0 0 0-8.94-.46c-4.44 1.66-6.39 7-4.76 11.16a5.16 5.16 0 0 0-1 1.82l-.09.28a4.91 4.91 0 0 0 2 5.85l1.27 1.3a9 9 0 0 0 4.24 1.74 7.27 7.27 0 0 0 3.41-.24 7.36 7.36 0 0 0 2.73-.85 9.05 9.05 0 0 0 1.25-.79c.14-.11.29-.19.43-.31.37-.31.72-.63 1-1a11.47 11.47 0 0 0-.47 4.13 8.82 8.82 0 0 0 .45 2.16 10.27 10.27 0 0 0 .54 1.28c.08.16.15.32.24.48a5.21 5.21 0 0 0 .84 2.83 14.52 14.52 0 0 0 7.87 5.87 8.08 8.08 0 0 0 10-6.78 8.2 8.2 0 0 0 0-2.41 7.42 7.42 0 0 0 2.27-9.69 8.43 8.43 0 0 0 4.29.54 6.83 6.83 0 0 0 7-1.06 10.55 10.55 0 0 0 2.95-4.36c1.92-5.08-1.55-9.93-7-10.54a7.47 7.47 0 0 0-4 .73h-.47c-2.43.27-4 2.26-4.87 4.36a4 4 0 0 0-.85 1.64v.14a2 2 0 0 1 2.9 2.09 2.07 2.07 0 0 0 .8 2.09 4.4 4.4 0 0 0 1.69.16h.32c1.28-.52 3.15.54 2.6 2.2l-.09.29a1.93 1.93 0 0 1-2.37 1.15c-1-.24-2.16 0-3.17-.34a5.12 5.12 0 0 1-2.34-1.68 6.21 6.21 0 0 1-.46-.7 14.76 14.76 0 0 0-7.91-2.68 10.58 10.58 0 0 0-5.26 1.24 10.32 10.32 0 0 0-1.24.77 11 11 0 0 0-1.12.99zm-11.22-10.23c.38.07 1.08-.23 1.68-.12a6.31 6.31 0 0 1 2.1.65 1.83 1.83 0 0 1 .66.72c-.16-.23-.16-.25 0-.07a5.89 5.89 0 0 1 .55.54 2.64 2.64 0 0 1 .74 2 1.89 1.89 0 0 1-2 1.68 1.93 1.93 0 0 1-1.76-1.54l-.22-.21-.07-.08-.35-.11h-.12a3.39 3.39 0 0 1-1.46.13 1.87 1.87 0 0 1-1.76-1.91 1.85 1.85 0 0 1 2.01-1.68zm-3.4 3.78c.29-.95 1.59-.68 1.79.1a.78.78 0 0 1 .7.49c.14.34.27.69.39 1a20.72 20.72 0 0 1 1.61 2.37 1.79 1.79 0 0 1 .1.34c1.11 0 1.44 1.66.27 1.76-.74.06-1 .21-1.72-.22-2.62-.27-3.74-3.84-3.14-5.84zm10 9.54a8.85 8.85 0 0 1-3.61 1.66 8 8 0 0 1-3.65.2 1.79 1.79 0 0 1-1.19-2.27 1.93 1.93 0 0 1 2.37-1.15 6.59 6.59 0 0 0 1.94-.35 5.39 5.39 0 0 0 1.65-.79c1.84-1.54 4.32 1.16 2.51 2.73zm29.77-7.17a1 1 0 0 1-1.47-.28 1.42 1.42 0 0 1-.13-.46.77.77 0 0 1-.32-1c0-.1.09-.2.12-.3l.05-.15a.93.93 0 0 1 1-1.37 1.16 1.16 0 0 1 1.56-.25 2.94 2.94 0 0 1 .8-.35 1.5 1.5 0 0 1 1.68.85h.14c1.1.08 1.34.82 1.19 1.69 0 1.2-.67 2.77-1.67 2.86a.92.92 0 0 1-1.2-.5.89.89 0 0 1-.9-.94 4.8 4.8 0 0 1 .62-1.87l-.26.25a3.54 3.54 0 0 1-1.19 1.82zm-14.78 12.45c-.55-.08-1.07-.6-.8-1.16a10.17 10.17 0 0 1 4.23-4.42 1 1 0 0 1 1.33.64 2.15 2.15 0 0 1-.09 1.31 1.3 1.3 0 0 1 .13.19c.53 1-.35 2.18-.9 3l-.06.09a.94.94 0 0 1 .78 1.19 8.87 8.87 0 0 1-5.07 4.48 1.06 1.06 0 0 1-.38.05 2.25 2.25 0 0 1-.52.11 1 1 0 0 1-1-.49c-.78-1.13.54-2.45 2.16-3.5.14-.19.28-.39.45-.58a.84.84 0 0 1-.24-.91zm-4.86 7.18c1.61.82 3-.62 4.43-.9a1.8 1.8 0 1 1 .72 3.54c-.7.13-1.34.78-2.1.93a7.53 7.53 0 0 1-2 .19 6 6 0 0 1-3.4-1c-1.39-1.14-1.46-2.73-2.22-4.23-.31-.62-1.16-1.37-1.08-2.59.14-2.2 3.53-2.1 3.74-.1l.16.15.28.4a10.88 10.88 0 0 1 .52 1.1c.19.5.48 2.26.97 2.51zm-4-11.1A5.14 5.14 0 0 1 119 314a3.46 3.46 0 0 1 1.17-.69l.26-.16a1.92 1.92 0 0 1 2.3-1 1.8 1.8 0 0 1 1.19 2.28 4.42 4.42 0 0 1-.32.62l-.07.12a9 9 0 0 1-2.19 2.14c0 .13-.1.25-.14.38-.74 2.22-4.3 1.08-3.56-1.13q.11-.34.24-.67a1.69 1.69 0 0 1 .22-.56z" fill="#a4aec4"/><path d="M86.55 310.95a9.19 9.19 0 0 0 5.71-.26 6.07 6.07 0 0 0 3.61-3.81 6.53 6.53 0 0 0 .37-1.15v.1a17.07 17.07 0 0 0 .44-2.17 6.72 6.72 0 0 0-.65-3.26 7.07 7.07 0 0 0-4.15-3.55 7.23 7.23 0 0 0-5.56.47 9 9 0 0 0-4 4.35 6.71 6.71 0 0 0-.34 4.16 7 7 0 0 0 4.57 5.12zm1-9.88a1.93 1.93 0 0 1 2.51.83 1.68 1.68 0 0 1-.22 1.86 1.07 1.07 0 0 1 0 .19c0 .26-.07.41-.08.46s0 .09 0 .13a.43.43 0 0 1 0 .11 1.7 1.7 0 0 1 .07.19 6.29 6.29 0 0 1 1.4-2c.06-.15.11-.29.18-.44a1.7 1.7 0 0 1 .3-.45.89.89 0 0 1 1.33-.57 1.07 1.07 0 0 1 1 1.14 5 5 0 0 1-.43 2.06c-.16.56-.38 1.12-.57 1.67a4 4 0 0 1-1.62 2.61l-.2.41a1 1 0 0 1-1.63.24.89.89 0 0 1-.61-1.51 1.16 1.16 0 0 1-.07-.7l.07-.28-.12.07a1.93 1.93 0 0 1-2.51-.83 4 4 0 0 1-.36-2.22 2.54 2.54 0 0 1 0-1.32 2.75 2.75 0 0 1 1.56-1.66z" fill="#a4aec4"/><path d="M151.44 322.51c3.57-1.49 10.2-3 12.31-6.55-2.66-.55-5.79.47-8.36 1-3.66.76-7.27 1.3-10.72 2.77-2.22.94-8.49 2.58-9.62 5l-.16-.1.13.17v.06l.08.5c1.76 5.62 6.08 10 10.12 14.18 2.23 2.31 4.15 4.86 6.43 7.12 1.36 1.35 3.24 2.23 4.52 3.48-1.65-1.65-2.1-4.75-3-6.79a25.67 25.67 0 0 0-7.46-9.5 76.54 76.54 0 0 1-7.6-6.64c-.34-.36-.67-.69-1-1 .6.24 1.23.43 1.78.64a53.16 53.16 0 0 0 12.28 2.76c5.54.76 12.14 1.22 17.13-1.9-2.5-.78-5.69-.82-8.29-.95-4.17-.21-8.26-1-12.4-1.16-3.63-.16-7.24.24-10.87.28 1.69-.33 3.41-.24 5.11-.47a39.86 39.86 0 0 0 9.59-2.9z" fill="#8cc63f"/><path d="M94.88 312.05a7.17 7.17 0 0 1-.61 1.15l.15-.07c.15-.36.3-.72.46-1.08z" fill="#8cc63f"/><path d="M89 332.07c.38-1 1.43-1.72 2.09-2.62a18.37 18.37 0 0 0 2.7-5.92 31.38 31.38 0 0 0 1-10.62l-.42.21c-1 2.33-1.95 4.72-2.77 7.23-1.08 3.4-3.09 8.19-2.6 11.72z" fill="#8cc63f"/><path d="M94.27 313.2l-.31.15c.07-.21.23-.26.2-.38-7.23 4.41-15.16 10.43-19.91 17.45 3.67-1.72 7.63-3 10.68-5.85 2.24-2.08 3.82-4.73 5.74-7.07a48 48 0 0 0 3.6-4.3z" fill="#8cc63f"/><path d="M97.8 296.87l-.09-.08z" fill="#8cc63f"/><path d="M98.24 297.21l-.12-.1z" fill="#8cc63f"/><path d="M85.1 290.3c4 2.77 7.66 6.16 12.58 6.49-3.02-2.41-8.92-7.79-12.58-6.49z" fill="#8cc63f"/><path d="M98.09 297.14l-.31-.25z" fill="#8cc63f"/><path d="M106.44 283.77l-.49-.25c-2.75 1.83-5.44 3.5-7 6.48a17.68 17.68 0 0 0-1.44 3.34 14.57 14.57 0 0 0-.82-4.3 13 13 0 0 0-4.44-5.27c1.34 2.58.87 5.94 2.1 8.71a10.51 10.51 0 0 0 3.35 4.31l.41.32.32-.3h.71-.71a28.2 28.2 0 0 0 8.01-13.04z" fill="#8cc63f"/><path d="M120.29 322.42l-.16-.15c-.2-2-3.59-2.11-3.74.1-.08 1.22.77 2 1.08 2.59.75 1.49.83 3.09 2.22 4.23a6 6 0 0 0 3.4 1 7.53 7.53 0 0 0 2-.19c.76-.15 1.4-.8 2.1-.93a1.8 1.8 0 1 0-.72-3.54c-1.43.28-2.82 1.72-4.43.9-.48-.25-.78-2-1-2.5a10.88 10.88 0 0 0-.52-1.1z" fill="#547eab"/><path d="M121.16 317.72c0-.13.1-.25.14-.38a9 9 0 0 0 2.19-2.14l.07-.12a4.42 4.42 0 0 0 .32-.62 1.8 1.8 0 0 0-1.19-2.28 1.92 1.92 0 0 0-2.3 1l-.26.16a3.46 3.46 0 0 0-1.13.66 5.14 5.14 0 0 0-.87 1.29 1.69 1.69 0 0 0-.26.59q-.13.33-.24.67c-.77 2.25 2.8 3.38 3.53 1.17z" fill="#547eab"/><path d="M109.46 311.27a5.39 5.39 0 0 1-1.65.79 6.59 6.59 0 0 1-1.94.35 1.93 1.93 0 0 0-2.37 1.15 1.79 1.79 0 0 0 1.19 2.27 8 8 0 0 0 3.65-.2 8.85 8.85 0 0 0 3.61-1.66c1.8-1.54-.68-4.24-2.49-2.7z" fill="#547eab"/><path d="M105.08 304.25a3.39 3.39 0 0 0 1.46-.13h.12l.35.11.07.08.22.21a1.93 1.93 0 0 0 1.76 1.54 1.89 1.89 0 0 0 2-1.68 2.64 2.64 0 0 0-.74-2 5.89 5.89 0 0 0-.55-.54c-.16-.18-.16-.16 0 .07a1.83 1.83 0 0 0-.66-.72 6.31 6.31 0 0 0-2.1-.65c-.6-.11-1.3.19-1.68.12a1.85 1.85 0 0 0-2 1.68 1.87 1.87 0 0 0 1.75 1.91z" fill="#547eab"/><path d="M86.43 306.23a1.93 1.93 0 0 0 2.51.83l.12-.07a13 13 0 0 1 .81-2.15 1.7 1.7 0 0 0-.07-.19.43.43 0 0 0 0-.11v-.13c0-.04 0-.19.08-.46a1.07 1.07 0 0 0 0-.19 1.68 1.68 0 0 0 .22-1.86 1.93 1.93 0 0 0-2.51-.83 2.75 2.75 0 0 0-1.59 1.62 2.54 2.54 0 0 0 0 1.32 4 4 0 0 0 .43 2.22z" fill="#547eab"/><path d="M134.84 313c1 .38 2.14.1 3.17.34a1.93 1.93 0 0 0 2.37-1.15l.09-.29c.55-1.66-1.33-2.72-2.6-2.2h-.32a4.4 4.4 0 0 1-1.69-.16 2.07 2.07 0 0 1-.8-2.09 2 2 0 0 0-2.9-2.09 1.58 1.58 0 0 0-.66 1 5.77 5.77 0 0 0 .54 4.32 6.21 6.21 0 0 0 .46.7 5.12 5.12 0 0 0 2.34 1.62z" fill="#547eab"/><path d="M143.21 304.78a4.8 4.8 0 0 0-.62 1.87.89.89 0 0 0 .9.94.92.92 0 0 0 1.2.5c1-.09 1.65-1.66 1.67-2.86.15-.87-.09-1.61-1.19-1.69H145a1.5 1.5 0 0 0-1.68-.85 2.94 2.94 0 0 0-.8.35 1.16 1.16 0 0 0-1.56.25.93.93 0 0 0-1 1.37l-.05.15c0 .1-.08.2-.12.3a.77.77 0 0 0 .32 1 1.42 1.42 0 0 0 .13.46 1 1 0 0 0 1.47.28 3.54 3.54 0 0 0 1.23-1.77z" fill="#c7d1e2"/><path d="M124.54 324.23a1 1 0 0 0 1 .49 2.25 2.25 0 0 0 .52-.11 1.06 1.06 0 0 0 .38-.05 8.87 8.87 0 0 0 5.07-4.48.94.94 0 0 0-.78-1.19l.06-.09c.55-.82 1.43-2 .9-3a1.3 1.3 0 0 0-.13-.19 2.15 2.15 0 0 0 .09-1.31 1 1 0 0 0-1.33-.64 10.17 10.17 0 0 0-4.23 4.42c-.27.56.25 1.08.8 1.16a.84.84 0 0 0 .22.9c-.16.19-.31.39-.45.58-1.58 1.06-2.9 2.38-2.12 3.51z" fill="#c7d1e2"/><path d="M105.06 310.31c.69.43 1 .28 1.72.22 1.17-.1.84-1.75-.27-1.76a1.79 1.79 0 0 0-.1-.34 20.72 20.72 0 0 0-1.61-2.37c-.13-.35-.25-.7-.39-1a.78.78 0 0 0-.7-.49c-.2-.77-1.5-1-1.79-.1-.6 2 .53 5.58 3.09 5.84z" fill="#c7d1e2"/><path d="M89.06 307l-.07.28a1.16 1.16 0 0 0 .07.7.89.89 0 0 0 .61 1.51 1 1 0 0 0 1.63-.24l.2-.41a4 4 0 0 0 1.62-2.61c.18-.55.41-1.1.57-1.67a5 5 0 0 0 .43-2.06 1.07 1.07 0 0 0-1-1.14.89.89 0 0 0-1.33.57 1.7 1.7 0 0 0-.3.45c-.07.14-.12.29-.18.44a6.29 6.29 0 0 0-1.4 2 13 13 0 0 0-.85 2.18z" fill="#c7d1e2"/><path d="M160.15 251.73c8.3-10.72 3.33-36.63-4.47-46.54-4 11.63-8.22 38.32 4.47 46.54z" fill="#7c6d68"/><path d="M160.15 251.73l.25-.14z" fill="#7c6d68"/><path d="M166 258.47c18 4.95 45.37 5.64 63-6.7-15.11-10.86-49.7-4.61-63 6.7z" fill="#a996bc"/><path d="M181.09 183.56c-3.55 5.76-11.93 46.08-9.23 52.46 10.81-13.78 15.53-35.91 9.23-52.46z" fill="#414ed8"/><path d="M178.53 238.84c16.58-.81 39.87-1.9 51.71-15-17.56-3.56-39.4 2.31-51.71 15z" fill="#5bbeb8"/><path d="M190.9 222.46l-.32.11c-.27.12-.55.27-.83.38z" fill="#8d8ace"/><path d="M227.39 186.27c-17 3.77-35.56 20.27-39 37.12l2.21-.81c13.77-6.07 30.24-24.75 36.79-36.31z" fill="#8d8ace"/><path d="M144.89 285.14a.87.87 0 0 0 .47.12.92.92 0 0 0 .77-.44q1.64-2.72 3.26-5.45c11-18.34 22.34-37.29 37.95-53.62a.84.84 0 0 0-.05-1.23.94.94 0 0 0-1.28.06c-15.75 16.46-27.15 35.51-38.18 53.93-1.09 1.82-2.18 3.63-3.27 5.44a.85.85 0 0 0 .33 1.19z" fill="#c2359c"/><path d="M131.35 193.52a56.32 56.32 0 0 0-1.35 9.38 70.43 70.43 0 0 1-1 7.78 59.71 59.71 0 0 1-3.36 10.25c-.84 2.11-1.7 4.29-2.37 6.45a171.5 171.5 0 0 0-4.48 17 117.46 117.46 0 0 0-2.18 19.9c-.76 2.59-1.11 5.33-.07 7.18 0 2.83.13 5.6.24 8.32a117.8 117.8 0 0 0 1.89 15.22l-2 2.37v-.12a134 134 0 0 1-2.24-17.37c-.47-11.08-.54-23.11 2.06-35.93a170.76 170.76 0 0 1 4.51-17.18 1.23 1.23 0 0 1-.52-.3c1.14-6.49-1.87-12.6-6.21-18.48a.85.85 0 0 0-.22-.2l-.07-.1h.09a2.88 2.88 0 0 0 2.36-.61l.34.51c.48.73 1 1.55 1.32 2.08s.56 1 .84 1.47a37.24 37.24 0 0 1 1.8 3.4 24.61 24.61 0 0 1 1.63 8.29c.35-.93.72-1.86 1.08-2.76a58.81 58.81 0 0 0 3.25-9.86 70.08 70.08 0 0 0 .94-7.54 58 58 0 0 1 1.42-9.76c.14-.53.31-1.06.46-1.59a1.12 1.12 0 0 1-.37-.76c-.21-3.53-5.25-10.1-8.64-13.07a4.16 4.16 0 0 0-.33-1.23 1.16 1.16 0 0 1 .14-.23 6.42 6.42 0 0 0 3.36 1.24 36 36 0 0 1 7.09 10.08c.53-1.57 1.11-3.1 1.68-4.64a.51.51 0 0 0 0-.05c.27-.72.52-1.46.78-2.17.38-1 .74-2 1.1-2.93.95-2.57 1.89-5 2.9-7.35a1.18 1.18 0 0 1-.28-.4c-.71-1.82-4.19-9.88-5.12-11.57a4.11 4.11 0 0 0 2.49-1.63 1.13 1.13 0 0 1 .3.88 1.07 1.07 0 0 1-.21.54c1 2.09 3 6.64 4.13 9.32a41.41 41.41 0 0 1 7-10.49.69.69 0 0 0 0-.08v-.47c-.3-6.24-.14-9.17.24-10.63a7.65 7.65 0 0 0 2.19-.55l-.62-.26a1.85 1.85 0 0 0 1.18 0 1.11 1.11 0 0 1-.36 1.11c-.2.44-.56 2.14-.3 8.66a35.33 35.33 0 0 1 6.45-4.51h.13a3.5 3.5 0 0 0 1.4 1.76 1.15 1.15 0 0 1-.34.28c-10.67 5.84-14.54 14.54-18.84 26.18-.1.26-.2.53-.3.8 1.1-.94 2.12-1.8 2.51-2a19.54 19.54 0 0 1 2.23-1.2c1.54-.75 2.87-1.39 3.62-2.84a1.2 1.2 0 0 1 .62-.54 4.19 4.19 0 0 0 .1 2 6.65 6.65 0 0 0 .39 1.06 12 12 0 0 1-3.73 2.37 17.24 17.24 0 0 0-2 1c-.63.41-4.46 3.75-5.61 4.81-1.14 3.19-2.29 6.45-3.14 9.71z" fill="#c8c176"/><path d="M106.44 222.32a52.63 52.63 0 0 1 6 6.14c3.49 4.33 4 8.24 4.25 13.62a30.46 30.46 0 0 1-11.75-10c-1.35-2.19-1.94-4.87-2.59-7.3-.52-1.93 0-5.08-1.3-6.75 1.63.62 3.95 3.05 5.39 4.29z" fill="#a1bc71"/><path d="M138.08 224c0-.61-.08-1.21-.1-1.8a8.22 8.22 0 0 1 .1 1.8z" fill="#a9cf92"/><path d="M116.62 264.28a41.33 41.33 0 0 1 2.13-5.47c2.08-4.49 5.63-7.19 9.36-10.22 4.12-3.35 6.48-5.9 7.85-10.86a46.85 46.85 0 0 0 1.21-8.12c.2-1.84.82-3.74.92-5.65.62 9.06 2.87 20-1.37 28.09-2.17 4.16-5.41 9.37-9 12.54-3.18 2.78-7.44 4.51-10.05 7.9l-.58-.34a4 4 0 0 1-.5-.7c-1.08-1.84-.73-4.58.03-7.17z" fill="#a9cf92"/><path d="M147.87 145.14a7.65 7.65 0 0 1-2.19.55 3.53 3.53 0 0 1-3.54-1.88c-1.32-2.16-1-5.33 1.66-6.39a7.65 7.65 0 0 1 3.79-.3c1.37.38 1.62 1.61 1.92 2.8s.51 4.44-1.08 5a1.85 1.85 0 0 1-1.18 0z" fill="#a4e5e3"/><path d="M154.35 150.13a3.5 3.5 0 0 0 1.4 1.76 3.59 3.59 0 0 0 4.82-.6c-.13 1.33-.59 2-.27 3.41a3.55 3.55 0 0 0 1.4 2.3c1.11.9 2.29 1.4 3.58.48 1.13-.8.95-1.74.85-3 .81.79 2.53.41 3.5.16 1.39-.36 1.65-1.1 2.08-2.41.65-1.95.32-5.06-2.49-4.64 6.28-3.85-3.71-8-5-3.33-.18-2.35-1.6-3.48-3.89-2.68a4.19 4.19 0 0 0-2.72 4.38 3 3 0 0 0-3.26 4.08zm6.36-1a2.26 2.26 0 0 1 2.21-2.35 2.24 2.24 0 1 1-2.21 2.35z" fill="#a4e5e3"/><path d="M134.3 156.64c.06-.09.12-.17.17-.26 1.51-2.72-.84-6-3.75-6.08 2.38.08 5.56-2.61 4.8-5-.85-2.63-3.71-2.47-5.22-.82.87-1.88-.54-4.4-2.66-4.93a6.39 6.39 0 0 0-4.2.63c-1.61 1-1.23 2-1.3 3.57l.33.56c-2.81-2-6.15 1.4-6.16 4a3 3 0 0 0 4.84 2.64c-1.22 1.63-1 3.67.42 5.46a3.75 3.75 0 0 0 3.27 1.34c1.19.05 2.84-.19 2.44-1.75.57 2 2.67 2.64 4.52 2.22a4.11 4.11 0 0 0 2.5-1.58zm-4.84-7.76a3.31 3.31 0 0 1-3.22 3.41 3.26 3.26 0 1 1 3.22-3.41z" fill="#a4e5e3"/><path d="M145.75 175.58c.32.65.78.9 1.92.8a3.36 3.36 0 0 0 3.21-2.16l1.22.23c.05 2.29.09 5.34 3.14 5.64 2.67.27 4.73-2.85 2.9-5 1.7 1.74 5.15.52 5.39-1.83a4.31 4.31 0 0 0-1.06-3 3.29 3.29 0 0 0-2.26-1 3 3 0 0 0 1.78-2 4.64 4.64 0 0 0-1.28-4.12c-2-1.72-7.11-.49-7 2.47-.76-1-.32-2.39-1.73-2.81a5.42 5.42 0 0 0-3.58.61 5.18 5.18 0 0 0-1.24 3.34c0 1.36.92 2 1.38 3.14a3.11 3.11 0 0 0-3.26 2.59 4.19 4.19 0 0 0 .1 2 6.65 6.65 0 0 0 .37 1.1zm6.17-4.52a2.27 2.27 0 0 1 2.21-2.34 2.29 2.29 0 0 1 2.44 2.12 2.33 2.33 0 0 1-4.65.22z" fill="#a4e5e3"/><path d="M123.63 177.3a2.74 2.74 0 0 0 3.16-2.95c0-2.48-2-6.75-5.31-4.84.65-1.14 1.93-2 1.54-3.49a2.79 2.79 0 0 0-2.57-1.95c-2.59-.11-5.64 1.32-5.18 4.22 0-2.48-3.11-5.77-5.81-3.86a3.6 3.6 0 0 0-1.13 3.46c.06.63.73 3.85 1.94 2.75l.64.84c-2.64 1.21-5.16 2.43-3.67 5.7 1.63 3.58 6 2.23 7.26-.86-.57 1.36-1.12 2.09-.52 3.57a2.66 2.66 0 0 0 3.06 1.93 3.91 3.91 0 0 0 3.42-4.32 4.16 4.16 0 0 0-.33-1.23c-.07-.17-.12-.34-.21-.51a4.33 4.33 0 0 0 .35.28 6.42 6.42 0 0 0 3.36 1.26zm-4.3-4.68a2.27 2.27 0 0 1-2.21 2.34 2.24 2.24 0 1 1 2.21-2.34z" fill="#a4e5e3"/><path d="M108.17 194.22s0-.01 0 0z" fill="#a4e5e3"/><path d="M108.17 194.22c.01.21.01.2 0 0z" fill="#a4e5e3"/><path d="M116.39 207.11a6.43 6.43 0 0 0 1.64-1.95 4 4 0 0 0-.48-4.7c-1.28-1.6-2.31-2-4.22-1.58 1.41-.67 2.68-1.56 2.77-3.15a5 5 0 0 0-1.85-3.7c-.78-.44-3.33-.14-4.17.19-1.87.75-1.67 1.9-1.84 3.42l-.07-1.42c-.15-1.53-.34-3.17-2.11-3.8a10.76 10.76 0 0 0-4.58 0 5 5 0 0 0-2.68 3.83c.11 1.64 2 2.19 3.11 3a7.57 7.57 0 0 0-4.22 1.47c-1.67 1.25-1.84 2.87-1.37 4.84.55 2.28 2.6 3 4.78 2.32a6.48 6.48 0 0 0 1-.51c-.62 2.19 0 4.42 3.11 4.23a6.24 6.24 0 0 0 4.29-1.93 6.57 6.57 0 0 0 1.18-2.44 4.92 4.92 0 0 0 3.21 2.4h.09a2.88 2.88 0 0 0 2.41-.52zm-6.1-6.56a2.95 2.95 0 1 1-3.09-2.68 2.91 2.91 0 0 1 3.09 2.68z" fill="#a4e5e3"/><path d="M107.49 203.51a2.83 2.83 0 1 1 2.8-3 2.9 2.9 0 0 1-2.8 3z" fill="#ffad7d"/><path d="M117.12 175a2.24 2.24 0 1 1 2.21-2.34 2.27 2.27 0 0 1-2.21 2.34z" fill="#ffad7d"/><path d="M154.13 168.72a2.29 2.29 0 0 1 2.44 2.12 2.33 2.33 0 1 1-2.44-2.12z" fill="#ffad7d"/><path d="M126.24 152.29a3.26 3.26 0 1 1 3.22-3.41 3.31 3.31 0 0 1-3.22 3.41z" fill="#ffad7d"/><path d="M162.92 146.81a2.24 2.24 0 1 1-2.21 2.35 2.26 2.26 0 0 1 2.21-2.35z" fill="#ffad7d"/><path d="M50.65 230.8c-.69-.17-1.4-1-1-1.81l.27-.53c.32-.63 1.1-.5 1.65 0a4.16 4.16 0 0 1 .84 1.12c2.84-.53 6 .81 8.9 2.51 2 1.17 4 2.52 6 3.73.63.39 1.28.77 1.94 1.12-2.7-3.24-5.95-5.93-8.87-8.9-2.35-2.39-4.54-4.9-6.72-7.45-2.39-2.79-4.72-5.25-8.08-5.93-1.36-.28-1.54-2.47-.17-2.26a10.14 10.14 0 0 1 2.55.78 26.51 26.51 0 0 0-1.64-3.18c-.69-.91-1.39-1.81-2.08-2.72a14.51 14.51 0 0 1-2.54-3.59c-.64-1.41.89-2.15 1.76-.82.75 1.15 1.56 2.26 2.39 3.35a19.45 19.45 0 0 1 1.66 2.13l.13.2c.62.81 1.24 1.62 1.83 2.46A12.82 12.82 0 0 1 52 216c3.53 3.1 6.54 7.47 9.76 10.71s7.74 6.54 10.11 10.54l.13.25a1.44 1.44 0 0 1 .59.58c.25.43 1.63 1 2 1.35.7.54 1.39 1.08 2.07 1.65s1.63 1.4 2.42 2.12a.86.86 0 0 1 .48.13c.59.33 1.18.35 1.77.65-.19-.66-.36-1.33-.5-2-.35-1.67-.64-3.34-.94-5-.41-2.22-.7-4.34-2-6.38-1.21-1.87-2.39-3.78-3.69-5.58-2.71-3.76-8.42-8.24-8.08-13a.89.89 0 0 1 1.51-.44 3.51 3.51 0 0 1 .9 1.09 1 1 0 0 1-.19 1.37c.57 2.12 2.89 4.37 4.23 5.85a52.45 52.45 0 0 1 4.81 6.4 37.69 37.69 0 0 1-1-6.7c-.13-2-.18-4-.25-6a19 19 0 0 0-.54-5.49c-2.06-6.15-8-10.28-11.28-15.89a1.36 1.36 0 0 1-1-1.21 2.32 2.32 0 0 1 .19-1.22c.28-.69 1.45-.5 1.83.3 3 6.32 9.8 10.58 12 17.25a18.75 18.75 0 0 1 .86 5.2c.7-1.36 1.57-2.62 2.41-3.93a13.58 13.58 0 0 0 2.16-10.44 1.23 1.23 0 0 1-.4-1.47l.18-.35c.4-.78 1.65-.41 2 .58a15 15 0 0 1-.88 11.16c-1.6 3.21-4.47 5.69-4.7 9.74l.95-.09a1.36 1.36 0 0 1 1.33 1 .89.89 0 0 1-.64 1.24c-.3 0-.6 0-.9.07h-.65a1.09 1.09 0 0 1-.57 0 36.06 36.06 0 0 0 .92 6.19 2.73 2.73 0 0 1 .59-.52c.43-.29 1.16.12 1.45.64a1 1 0 0 1-.28 1.45c-.27.19-.25.7-.25 1.05a11.22 11.22 0 0 1-.05 1.6.74.74 0 0 1-.36.59 6.39 6.39 0 0 1 .42 1.09c.44 1.68.78 3.36 1.08 5 .52 2.89 1.35 5.74 2 8.61a1.14 1.14 0 0 1 .47.38c3.19 4.21 7.21 7.42 11.31 10.45 1.94 1.43 3.88 2.86 5.81 4.32a15 15 0 0 1 4.05 4.22 1.54 1.54 0 0 1 .14.34c.92.95 0 2.46-1.12 1.6l-.76-.57c-5.9-4.42-11.72-9.05-17.38-13.89-1.88-1.61-3.66-3.34-5.45-5.06a11.43 11.43 0 0 1-1.65-1.58l-.79-.73c-.72-.49-1.44-1-2.15-1.46A44.7 44.7 0 0 0 71 240a1.46 1.46 0 0 1-.24-.16 14.67 14.67 0 0 1-4.41-2.2c-4.11-2.54-9.77-7.26-14-5.52a1.34 1.34 0 0 1-1.65-1.23z" fill="#998675"/><path d="M251.76 263.32a2.45 2.45 0 0 1-1.57-.51l-30.07-26.08-39.68 18.53a2.94 2.94 0 0 1-1.93.14l-86.32-23.7-21.53 30.87a1.93 1.93 0 0 1-1.22.69 3 3 0 0 1-1.61-.14L.91 236c-.81-.33-1.13-1-.76-1.54l136-211.69.09-.12a1.73 1.73 0 0 1 .71-.48 2.69 2.69 0 0 1 .55-.15 3 3 0 0 1 1 0l.28.07a1.92 1.92 0 0 1 .8.45 1.11 1.11 0 0 1 .18.22l124.96 205.62a.84.84 0 0 1 .09.72l-11.14 33.22a1.76 1.76 0 0 1-1.5 1zM4.4 234.48L68 260.22l21.29-30.52 44.52-196.58zm216.13-.76a2.46 2.46 0 0 1 1.57.51l28.65 24.85 10.11-30.13-122-200.78-45.52 201.11L179 252.81 219.38 234a2.76 2.76 0 0 1 1.15-.28z" fill="#58595b"/><path d="M220.53 236.23a2 2 0 0 1-1.9-1L136.12 23.58c-.26-.67.38-1.35 1.42-1.52a2.19 2.19 0 0 1 2.37.91l82.51 211.7c.26.67-.38 1.35-1.42 1.52a3 3 0 0 1-.47.04z" fill="#58595b"/><path d="M138 477.48a2.19 2.19 0 0 1-1.8-.76L.16 274.86a.89.89 0 0 1-.16-.5V235c0-.69.88-1.26 2-1.26s2 .56 2 1.26v39.13l128.3 190.35L67 262.31c-.22-.68.46-1.34 1.52-1.48a2.12 2.12 0 0 1 2.32 1L139.93 476c.2.63-.37 1.26-1.33 1.45a3 3 0 0 1-.6.03z" fill="#58595b"/><path d="M137 472.18c-.08 0-.88-1.9-1-1.9-1.07-.09-.12-3.37 0-4.06l41.26-212.13c.13-.69 1.14-1.18 2.19-1.09s1.84.71 1.7 1.4l-42.68 219.41c-.13.64-.47-1.63-1.47-1.63z" fill="#58595b"/><path d="M138 477.48a2.93 2.93 0 0 1-.63-.07c-1-.22-1.57-.94-1.22-1.59L249.9 261.65a2.34 2.34 0 0 1 2.49-.78c1 .22 1.57.94 1.22 1.59L139.87 476.63a2.1 2.1 0 0 1-1.87.85z" fill="#58595b"/><path d="M137.55 24.32a12.16 12.16 0 1 1 12.16-12.16 12.17 12.17 0 0 1-12.16 12.16zm0-22a9.8 9.8 0 1 0 9.8 9.8 9.81 9.81 0 0 0-9.8-9.76z" fill="#4d4d4d"/></g></g></svg>