<svg xmlns="http://www.w3.org/2000/svg" viewBox="-1.2800025939941406 -6.909999847412109 1632.81005859375 1885.3299560546875"><title>Depositphotos_91582464_06</title><g data-name="Layer 2"><g data-name="‘ÎÓÈ_1" style="isolation:isolate"><path d="M420.11 699.27c-1.19 10.25-87.56 46.3-59.29 167.33l-25.68-1.48C304.88 738.74 378.21 680 391.79 677.26s29.95 8.02 28.32 22.01z" fill="#af5435"/><path d="M347.9 842.52c0 1.75 0 3.69-1.19 5-1.42 1.57-4.08 1.4-5.72.07a8.78 8.78 0 0 1-2.76-5.6 9.45 9.45 0 0 1 .67-5.83 4.77 4.77 0 0 1 4.81-2.68 5.2 5.2 0 0 1 3.65 3.65 17.21 17.21 0 0 1 .54 5.39z" fill="#9b4129"/><path d="M343.28 809.6c-1.92 0-3.51-1.75-4-3.64a12.48 12.48 0 0 1 .24-5.82 11.8 11.8 0 0 1 1.64-4.41 4.3 4.3 0 0 1 4-2 4.43 4.43 0 0 1 3.25 3.41 13.18 13.18 0 0 1 0 5 13.85 13.85 0 0 1-1.23 4.79 4.62 4.62 0 0 1-3.9 2.67z" fill="#9b4129"/><path d="M349.93 769c-1.93 0-3.51-1.75-4-3.64a12.49 12.49 0 0 1 .24-5.82 11.8 11.8 0 0 1 1.64-4.41 4.3 4.3 0 0 1 4-2 4.43 4.43 0 0 1 3.19 3.47 13.15 13.15 0 0 1 0 5 13.84 13.84 0 0 1-1.23 4.79 4.62 4.62 0 0 1-3.84 2.61z" fill="#9b4129"/><path d="M486.44 729a56.17 56.17 0 0 0 18.08 6.25c8.76 1.26 18.2-.47 25.07-6.14s10.52-15.66 7.55-24.13c7.12 5.57 16.73 8 25.43 5.71s16.17-9.48 18.2-18.39-1.86-19.09-9.63-23.68c4.34 2.09 9.75.32 13.17-3.11s5.23-8.16 6.58-12.85a96.75 96.75 0 0 0 3.49-33c-.14-2.24.15-6.51-1.06-8.43-.79-1.26-3.5-.41-4.3-2.1-1.83-3.86-.79-7.72-.46-11.91 1.71-21.17-.44-43.26-11.25-61.87-13.73-23.65-40-38.22-66.84-40.92s-54 5.52-77.3 19.4C392.61 538 362.63 580 352.48 626.71c-2.91 13.39-4.86 28.25-.09 41.46.95 2.63 3.23 5.39 3.74 8.07.58 3.09-.81 6.82-.5 10.08a27.38 27.38 0 0 0 8.26 17.23 26.52 26.52 0 0 0 28.33 4.82c-8.63 7.74-7.21 24 2.64 30.1s24.68-.21 27.41-11.59c9.47 13.59 27.55 20.29 43.38 16.08 4.06-1.08 8.06-2.87 11-6s4.55-7.62 3.44-11.74c2.05 1.34 4.18 2.58 6.35 3.78z" fill="#ffe0bd"/><path d="M489.58 339.16s-3.48 91.74-53.51 154.46c-36.63 45.92-116.28 99.43-81 183.66 0 0-27.43-65.7 91.85-150.31 84.53-59.97 72.52-196.25 69.33-223.47s-26.67 35.66-26.67 35.66z" fill="#af5435"/><path d="M420.94 460.58c10 7.65 24.33 7 35.48 1.28s19.63-15.58 27.12-25.73c34.12-46.23 60.65-119.91 75.74-175.67-27.62 6.68-63.19 34.67-82.33 56-6.48 7.22-12 16.64-10.31 26.27s13.75 17.08 21.35 11.11a133.4 133.4 0 0 0-62.69 43.22c-7.39 9.2-13.72 19.75-15.48 31.5s1.81 24.86 11.12 32.02z" fill="#630"/><path d="M557.07 156.75c-22.08 18-28.2 41.51-37.46 94.15-15.41 87.58-14.36 126.64-52.13 199.43C452.65 478.9 427 578.29 554 648c145.15 79.65 301.44 44 372.2-39.37s149.87-316.26-12-448.37c-146.94-119.87-313.94-38.64-357.13-3.51z" fill="#f2ac7c"/><path d="M652.35 774.69c2.93 8.33 11.44 13.16 19.66 16a90.94 90.94 0 0 0 73-6.22q-3-62.94-.13-126a152.65 152.65 0 0 0-74.49-10.7A417.76 417.76 0 0 1 654.28 752c-2.15 7.46-4.48 15.44-1.93 22.69z" fill="#f2ac7c"/><path d="M622 441.18a4.24 4.24 0 0 1-2.77-7.44c14.77-12.74 38.59-45.5 32.55-121.62a4.24 4.24 0 1 1 8.45-.67c2.72 34.27 1.72 96.56-35.44 128.7a4.22 4.22 0 0 1-2.79 1.03z" fill="#b56248"/><path d="M677.39 1444.13s-141.3 219-179.41 273.42 18.47 47.17 31.64 31.07 209-248.78 218.73-268.79-60.57-51.83-70.96-35.7z" fill="#f2ac7c"/><path d="M531.11 1758.54c-29.18 31.37-54.19 62.59-77.29 101.88a371 371 0 0 1-81.21-26.51c-1.56-.72-3.1-1.42-4.64-2.17A376 376 0 0 1 277 1771c7.72-27.34 17-56.46 39.22-73.66s55.25-17.89 78.71-2.38c20.37 13.44 32.66 38.12 32.76 62.8v2c2.32-16.33 9.28-31.89 16.42-46.84 5-10.42 10.46-21.26 19.92-27.68s24.13-6.43 30.67 3c5.6 8.09 3.31 19.12.77 28.67-1.36 5.2-2.75 10.4-4.12 15.62l-1.2 4.53c5.13-8.23 13.69-14.79 23.27-15.05s18.35 7.44 19.6 17.09c.9 7.32-1.91 19.44-1.91 19.44z" fill="#6b4036"/><path d="M657 744.52c-60.7 21.49 48 89.44 202.78 46 93.87-26.37 172.63-75.38 258-123.06s181.42-85.93 278-73.4c9.7 1.26 19.78 3 29.06-.13s71.88-119 62-183.21c-51.34-27.92-130.72-8.68-192.95 10.24-143.54 43.63-221.14 144.77-330.85 216-99.72 64.78-188.53 93.82-306.04 107.56z" fill="#cc9a6d"/><path d="M416.1 1791.52c-10.94 17.48-25 34.87-43.48 42.38A376.56 376.56 0 0 1 277 1771c7.72-27.34 17-56.46 39.22-73.66s55.25-17.89 78.71-2.38c20.37 13.44 32.66 38.12 32.76 62.8-2.35 14.56-7.61 27.43-11.59 33.76z" fill="#f2f2f2"/><path d="M460 1867.21c1.8-3.27 2.24-7.84-.42-10.43-2.14-2.08-5.41-2.15-8.36-2.35-10.45-.69-20.45-4.4-30.25-8.15-51.89-19.86-103.62-42.1-142.61-82.22-2.23-3.58-6.92 6.6-8.86 11s-2.63 9.57-.76 14c1.8 4.25 5.63 7.18 9.31 9.89 45.1 33.23 107.33 64.67 166.46 78.11 6.1 1.36 12.36-4.25 15.49-9.85z" fill="#c6c6c6"/><path d="M467.55 1808.74c-2.51-1.95-6.11-1.59-9-.37-5 2.08-8.8 6.21-12 10.58-2.93 4-5.58 8.52-5.66 13.49s3.25 10.3 8.11 10.76c4.5.43 8.35-3.16 11.1-6.81a77.26 77.26 0 0 0 7.77-13 21.31 21.31 0 0 0 2.45-7.54 8.25 8.25 0 0 0-2.77-7.11z" fill="#f2f2f2"/><path d="M916.43 1407.74s183.26 187.81 213.73 179.83c49.52-13 141.86-103.06 166.06-127.86 46.28-47.41-10.7-49.6-26.27-35.89-7.79 6.85-117.07 75.65-137.1 82.89-16.58 6-143.49-138.25-150.67-146.69-20.89-24.53-65.75 47.72-65.75 47.72z" fill="#f2ac7c"/><path d="M1239.43 1430.26c33.8-26.13 63.45-52.8 92.5-87.76a373.3 373.3 0 0 1 75.9 39.58c1.42 1 2.83 1.91 4.23 2.91a379.23 379.23 0 0 1 80.13 75c-12 25.7-25.73 52.91-50.44 66.2s-57.37 8.53-78-10.66c-18-16.63-26.16-43-22.32-67.38.1-.65.2-1.31.33-2-4.89 15.73-14.24 29.93-23.67 43.5-6.56 9.46-13.71 19.25-24.07 24s-24.83 2.36-29.78-8.07c-4.23-8.91-.21-19.41 3.81-28.42 2.17-4.9 4.37-9.81 6.56-14.73l1.9-4.27c-6.38 7.27-15.87 12.33-25.36 11s-16.92-10.38-16.62-20.1c.21-7.31 4.9-18.8 4.9-18.8z" fill="#6b4036"/><path d="M1358.18 1416.72c13.58-15.45 30.23-30.28 49.66-34.63a379.75 379.75 0 0 1 84.35 77.88c-12 25.7-25.73 52.91-50.44 66.2s-57.37 8.53-78-10.66c-18-16.63-26.16-43-22.32-67.38 4.57-13.99 11.82-25.82 16.75-31.41z" fill="#f2f2f2"/><path d="M1327 1334.78c-2.3 2.93-3.46 7.37-1.24 10.36 1.78 2.41 5 3 7.87 3.7 10.2 2.41 19.48 7.72 28.55 13 48 28.17 95.53 58.66 127.62 104.69 1.63 3.9 7.88-5.36 10.49-9.37s4.12-9 3-13.67c-1.1-4.49-4.41-8-7.61-11.3-39.2-40.24-95.6-81.54-151.81-104.57-5.87-2.35-12.97 2.15-16.87 7.16z" fill="#c6c6c6"/><path d="M1310.16 1391.22c2.17 2.34 5.78 2.58 8.86 1.85 5.22-1.23 9.67-4.68 13.55-8.45 3.53-3.44 6.86-7.48 7.74-12.38s-1.56-10.7-6.29-12c-4.37-1.17-8.74 1.74-12 4.88a76.6 76.6 0 0 0-9.73 11.51 21.18 21.18 0 0 0-3.62 7 8.29 8.29 0 0 0 1.49 7.59z" fill="#f2f2f2"/><path d="M838.92 256.77c12.19 92.43 67.45 179 125.9 250.77 20.77-33.72 38.76-70 45.67-109.18s1.7-81.78-20.68-114.41-63.66-52.88-101.73-43.81" fill="#630"/><path d="M866.67 1382.08s35 34.78 136.46 133.13c3.06 3 129.58-153.92 123.27-160.84-21.23-23.29-142.4-129.92-142.4-129.92z" fill="#303e54"/><path d="M931.53 451.45c-19.33-4.81-41.23 4.64-51.28 22.13s-7.39 41.56 6.21 56.35c-14.63-4.71-32.15 5.35-35.76 20.54s7.45 32.29 22.58 34.91c-10.94 6.35-22.12 12.9-30.27 22.69s-12.78 23.61-8.52 35.68c5 14.26 20.86 21.9 35.72 22.67-20.38 5.7-32.7 31.45-24.55 51.31s34.81 29 53.11 18.26a43.4 43.4 0 0 0 22.88 32.86 42 42 0 0 0 39.54-1.18c-3.32 12.2 10.65 23.6 23 22s22-11.54 29.28-21.77c7.47-10.43 13.83-22.19 15.18-35s-2.46-25.78-6.38-38.16a1536.07 1536.07 0 0 0-82.58-207.09" fill="#ffe0bd"/><path d="M548 768.56S334.54 614.48 319 589.43s-100.23-263-100.66-274.11 20.72-13.25 31.6-6.27S377.3 547.69 384.77 552.44 573 690.2 587.16 701.22C605 715.14 548 768.56 548 768.56z" fill="#f2ac7c"/><path d="M261.67 322c1.64 4.3 3.3 9 2.12 13.43-1.44 5.41-6.9 9-12.37 9.56s-10.92-1.2-16-3.45c-15.77-7-29.23-18.36-42.46-29.56l-65.37-55.38c-4.62-3.91-9.7-9-8.85-15 1.09-7.82 10.82-10.51 18.58-10.52a103.13 103.13 0 0 1 64.14 22.62c-2.39-7-4.81-14.29-3.76-21.6s6.81-14.49 14.06-14.35c8.91.17 14.07 10.09 17.29 18.55z" fill="#f2ac7c"/><path d="M706.08 612.65a35.9 35.9 0 0 1-3.88 2.4c-.54.3-1.09.6-1.65.87s-1.2.62-1.8.9c-30.58 14.84-79.56 12-119.5-9.6a169.34 169.34 0 0 1-28.83-19.35c-1.26-1.06-2.5-2.16-3.7-3.28-10.08-9.24-18.79-20.37-23.53-33.49a64.2 64.2 0 0 1-3.8-25.1c1.22-25.68 16.28-34.83 30.95-34.81a36.25 36.25 0 0 1 18.78 5.17c15 9.21 30.17 22.2 39.49 25.89 2.38 1 4.72 1.81 7 2.6s4.65 1.55 6.92 2.2c30.91 9 53.74 5 76.19 11.26a52.06 52.06 0 0 1 14.06 6.14c8.83 5.7 13.88 13.77 15.25 23.37 2.03 14.09-4.64 33.18-21.95 44.83z" fill="#511d1d"/><path d="M615.64 524.79c-3 6.4-7.25 12.38-13.09 15.5-8.48 4.57-18.8 1-27.74-2.53-4.34-1.75-8.85-3.59-12-7.05s-4.67-9.08-2.1-13.07c-3.57 2.88-9.22 1.69-12.22-1.81s-3.63-8.56-2.77-13.1a41.78 41.78 0 0 1 4.65-11.59 36.37 36.37 0 0 1 18.77 5.17c15 9.22 30.17 22.2 39.49 25.9 2.37.95 4.71 1.79 7.01 2.58z" fill="#fff"/><path d="M712.06 555.36c-1.71 6.59-6.68 12.64-13.26 13.79s-14-4.3-13.62-11.09c-1.35 4.67-5.57 8-10.13 9.46s-9.5 1.15-14.23.51a95.31 95.31 0 0 1-25.58-7.22c-5.18-2.29-10.43-5.3-13.29-10.27-4-7-2.16-15.66.6-23.54 30.93 9 53.76 5 76.2 11.26a51.81 51.81 0 0 1 14 6.13 31.69 31.69 0 0 1-.69 10.97z" fill="#fff"/><path d="M871.28 941.73s195.56 124.66 220.33 140.82 193.65-19.42 211.38-32.44-1-34.4-1-34.4-167.36 8.63-175.85 8.41S923.36 873.3 916.27 867.2s-43.47 52.88-44.99 74.53z" fill="#f2ac7c"/><path d="M1304.51 1051.49c-4.44.91-9.25 1.79-13.36-.15-5-2.36-7.5-8.44-7.15-14s3-10.75 6-15.43c9.46-14.63 22.73-26.21 35.81-37.59l64.72-56.32c4.57-4 10.32-8.21 16-6.34 7.38 2.42 8.33 12.64 7 20.43a106.74 106.74 0 0 1-32.77 60.52c7.16-1.21 14.65-2.41 21.54-.11s12.87 9.29 11.51 16.54c-1.67 8.92-12.15 12.41-20.89 14.21z" fill="#f2ac7c"/><path d="M712.34 1331.87S647 1433.93 644.93 1438.1s148.94 117.07 216.51 107.69c0 0 109.8-207.72 126.18-241.08s29.15-70.89-12.56-109.46-262.72 136.62-262.72 136.62z" fill="#44526d"/><path d="M678.36 764.27s-105.91-85.49-115.26-93.75c0 0-72.9 82.63-79.91 139.08-1.19 9.29 132.88 70.33 138.81 70.33s56.36-115.66 56.36-115.66z" fill="#7f8732"/><path d="M692 227.25c55.37-8 214.15 48 240.18 133.36 20.7 67.86-109.78 313.56 25.61 392.53 91.36 53.29 182.66-5.14 160.76-60.58-22.6-57.2-85.41-187.93-82.73-205.6 15.13-99.79 29.27-127 23.7-184.94-8.35-87-62-161.84-180.91-212.45C651.82-6.91 552.21 107.27 503.07 195c-11.58 20.68-7.59 45.34-7.59 101.63-.01.03 53.46-48.7 196.52-69.38z" fill="#af5435"/><path d="M1053.3 385c11.87-28.19 12.11-66.17 8.65-96.64-3.6-31.68-11.89-64.88-35.42-84-11.06 15.05-33.53 46.64-38.66 64.79 36.92 26.49 61.51 70.04 65.43 115.85z" fill="#d17f47"/><path d="M997.66 274.88c-68.82 49.54-162.35 22.81-201.49-18-26.48-19.47-26.28-57.06-72.23-60.78-47-3.81-50.52 39-140.38 31.22-54.09-4.67-78.93-38.64-74-71.69 3 28.26 24.46 49.15 74.43 53.18 89.9 7.25 93.38-35 140.38-31.22 46 3.7 45.75 41.31 72.23 60.78 39.14 40.77 121.8 61.54 190.62 12 25.8-16.19 28.45-95.36 31.17-118 28.42 44.93 22.48 115.96-20.73 142.51z" fill="#281410"/><path d="M667.13 139.66c-9.84 8.28-23.44 12.31-36.6 14.73-15.81 2.89-32.32 3.82-45.85-.72-25.15-8.47-32.5-35.23-19.26-57.43 12.38-20.82 40.24-36 66.25-38.92C644 56 656.43 57.09 665.72 62c15.85 8.33 22.28 26.88 20.46 44-1.24 11.84-7.75 24.19-19.05 33.66z" fill="#d3d3d3" style="mix-blend-mode:screen" opacity=".5"/><path d="M1004.37 106.63c-16.6-22.7-64.41-61.93-139.61-54-55 5.77-82.62 31.56-95.56 36.82-18.63 7.54-18.11 5.58-23.38-2.79-7.16-11.36-30.63-52.91-72.72-64.06-41-10.87-112.41 7.32-141.33 57.18-35.24 60.79-37.18 121.89 52.2 129.11 89.91 7.25 93.39-35 140.4-31.22 45.93 3.72 45.74 41.31 72.21 60.79 39.14 40.76 121.8 61.53 190.62 12 62.2-39.12 39.91-112.74 17.17-143.83zm-337.24 33c-9.84 8.28-23.44 12.31-36.6 14.73-15.81 2.89-32.32 3.82-45.85-.72-25.15-8.47-32.5-35.23-19.26-57.43 12.38-20.82 40.24-36 66.25-38.92C644 56 656.43 57.09 665.72 62c15.85 8.33 22.28 26.88 20.46 44-1.24 11.84-7.75 24.19-19.05 33.66zm304.94 40.84c-9 23-39.52 35.56-70.56 34.32-37.38-1.49-75.23-22.59-85.35-52.28a53.64 53.64 0 0 1 2.58-40.13c4.59-9.85 12.18-18.78 23.09-24 14.7-7.06 33.51-6.76 51-6.12 10 .36 20.16.81 29.74 3.74 16.31 5 29.1 16.79 38 29.43 11.76 16.74 18.43 37.41 11.5 55.08z" fill="#4d342d"/><path d="M1004.38 106.63c-16.6-22.7-64.42-61.92-139.62-54-55 5.75-82.61 31.55-95.55 36.8C750.56 97 751.1 95 745.82 86.61c-7.15-11.36-30.63-52.91-72.71-64.07-41-10.87-112.43 7.33-141.35 57.19-15.54 26.79-24.59 53.65-22.21 75.93 3 28.26 24.46 49.15 74.43 53.18 89.9 7.25 93.38-35 140.38-31.22 46 3.7 45.75 41.31 72.23 60.78 39.14 40.77 121.8 61.54 190.62 12 25.8-16.19 37.06-38.35 39.79-61 3.82-31.84-9.33-64.58-22.62-82.77zm-30.67 68.57a38.15 38.15 0 0 1-1.65 5.3c-9 23-39.52 35.57-70.56 34.32-37.39-1.48-75.23-22.59-85.35-52.28A51.85 51.85 0 0 1 814 154a54.58 54.58 0 0 1 4.68-31.55c4.6-9.84 12.19-18.77 23.11-24 14.69-7 33.51-6.75 51-6.11 10 .34 20.15.8 29.74 3.72 16.3 5 29.1 16.81 38 29.45 10.65 15.02 17.1 33.28 13.18 49.69zM686.18 106a41 41 0 0 1-.77 4.65c-2.26 10.32-8.46 20.74-18.29 29S643.7 152 630.54 154.39c-15.82 2.88-32.33 3.82-45.85-.72-13.79-4.67-22.23-14.78-24.85-26.67-2.17-9.8-.42-20.76 5.57-30.8 12.38-20.82 40.25-36 66.24-38.93 12.29-1.36 24.78-.23 34.06 4.66 15.85 8.4 22.29 26.94 20.47 44.07z" fill="#4d342d"/><path d="M708.15 120.3c-1.29 16-9.57 33-24.34 46.22-13 11.67-31.24 17.52-49 21.07-21.42 4.27-43.92 5.82-62.23-.57-20.6-7.15-31.83-23.73-33.26-42.45 4.68 13 14.88 23.74 30.41 29.12 18.31 6.37 40.8 4.84 62.23.55 17.75-3.52 36-9.37 49-21 14.75-13.26 23-30.24 24.34-46.24a74.62 74.62 0 0 0-.21-14.41 72.51 72.51 0 0 1 3.06 27.71z" fill="#777676"/><path d="M993.4 200.64c-11 35.71-45.28 51.89-86 50.46-49.28-1.72-98.74-30.5-110.92-70.56a65.14 65.14 0 0 1-2.48-12.35c12.68 39.55 61.75 67.84 110.59 69.55 40.68 1.45 74.92-14.76 86-50.46a81.82 81.82 0 0 0 4-36.56 80.31 80.31 0 0 1-1.19 49.92z" fill="#777676"/><path d="M568.83 144.57c-3.85-9.43-1.47-21.24 2.48-32.14 4.41-12.14 12.11-23.2 22.12-32.68 7.9-7.48 16.55-14 26.5-17.81a135.46 135.46 0 0 1 29.62-7.42c-9.61-5.71-23.49-6.37-36.63-2.61-13.41 3.83-26.25 12.09-36.27 22.25-9.6 9.77-16.9 21.59-19.63 33.55-2.82 12.36-.55 24.67 7.27 33.08" fill="#929293"/><path d="M705.1 92.53C703 74.39 694.22 57.25 678 48.6c-12-6.39-28-7.93-43.81-6.22-33.73 3.64-70.66 23.56-88 51.46-10.29 16.58-12.49 35.24-6.87 50.7 4.68 13 14.88 23.74 30.41 29.12 18.31 6.37 40.8 4.84 62.23.55 17.75-3.52 36-9.37 49-21 14.75-13.26 23-30.24 24.34-46.24a74.62 74.62 0 0 0-.2-14.44zm-143.3 40.71c-4.72-11.17-3.67-24.78 3.61-37 12.38-20.82 40.25-36 66.24-38.93 12.29-1.36 24.78-.23 34.06 4.66 12.87 6.78 19.54 20.31 20.6 34.35a54.45 54.45 0 0 1-.14 9.71c-1.24 11.8-7.75 24.14-19.06 33.63-9.83 8.28-23.42 12.31-36.58 14.72-15.82 2.88-32.33 3.82-45.85-.72-11.31-3.8-19-11.29-22.86-20.41z" fill="#afafaf"/><path d="M972.07 180.51c-9 23-39.52 35.56-70.56 34.32-37.38-1.49-75.23-22.59-85.35-52.28a53.64 53.64 0 0 1 2.58-40.13c4.59-9.85 12.18-18.78 23.09-24 14.7-7.06 33.51-6.76 51-6.12 10 .36 20.16.81 29.74 3.74 16.31 5 29.1 16.79 38 29.43 11.76 16.7 18.43 37.37 11.5 55.04z" fill="#d3d3d3" style="mix-blend-mode:screen" opacity=".5"/><path d="M883.8 92c15.23-2.51 15.39-5.32 31-4.44-22.13-10.85-49.88-12.39-71.8-3.78-22.78 9-39.59 29.08-42.21 52.14-2.8 24.58 13.32 44.95 37.39 60.68-7.29-12.05-13.75-37.48-8.56-59.93C837 104.81 866.2 94.92 883.8 92z" fill="#929293"/><path d="M994.54 150.72A74.33 74.33 0 0 0 981.06 116c-11.56-16.13-30.57-28.37-51-34.75-12-3.73-22.91-6.61-35.34-7.14-21.82-.88-47.38.92-66.07 9.74-14 6.59-23.92 18-30.16 30.6-7.86 16-10.35 34.63-4.83 52.7.1.32.21.67.33 1 12.68 39.55 61.75 67.84 110.59 69.55 40.68 1.45 74.92-14.76 86-50.46a81.82 81.82 0 0 0 3.96-36.52zm-178.38 11.82a53.69 53.69 0 0 1 2.57-40.13c4.6-9.84 12.19-18.77 23.11-24 14.69-7 33.51-6.75 51-6.11 10 .34 20.15.8 29.74 3.72 16.3 5 29.1 16.81 38 29.45 7.54 10.74 13 23.11 14.06 35.27a42.78 42.78 0 0 1-2.6 19.76c-9 23-39.52 35.57-70.56 34.32-37.08-1.48-74.59-22.23-85.07-51.54-.08-.28-.17-.5-.25-.74z" fill="#afafaf"/><path d="M662.49 51.26c1-1.35.38-3-.62-4-2.71-2.88-7.68-3.49-12.37-3.59-10.33-.21-21.09 1.34-31.9 2.9-4.54.65-9.25 1.36-13.57 3.41s-8.31 5.92-8.49 9.72a243.49 243.49 0 0 1 60.9-6.63c2.14.04 4.82-.13 6.05-1.81z" fill="#f2f2f2"/><path d="M687.77 71.32c1-3.13-.22-6.2-2-8.65a26 26 0 0 0-16.39-10 4.29 4.29 0 0 0-1 4.89 11 11 0 0 0 3.37 3.8l8.33 6.91c2.07 1.73 4.6 3.61 7.69 3.05z" fill="#f2f2f2"/><path d="M861 78.46c-13.71.11-27.23 3.95-38 10.9-11.09 7.14-19.37 17.62-23.09 29.54-.93 3-1.21 6.87 1.94 8.53 2.69 1.42 6.4.17 8.38-1.9s2.73-4.7 3.77-7.15c4.63-10.84 15.56-18.71 27.52-23.36 11.71-4.55 24.6-6.46 37.15-8.29-.55-2.95-3.53-5.48-6.92-6.77a29.58 29.58 0 0 0-10.75-1.5z" fill="#f2f2f2"/><path d="M890.89 85.87c.13 1.26 1.37 2.4 2.8 3a16.39 16.39 0 0 0 4.56 1L930.57 94c-.17-3.47-3.06-6.88-6.66-9.06a36.73 36.73 0 0 0-12-4.14 41 41 0 0 0-10.54-.95c-3.47.23-6.84 1.25-9.09 3.27a3.41 3.41 0 0 0-1.39 2.75z" fill="#f2f2f2"/><path d="M918.16 226.34c-.16-2.5 1.68-4.57 3.88-5.59s4.72-1.26 7.13-1.73c11.74-2.28 20.58-10.06 31-14.46a11.3 11.3 0 0 1 5.53-1.17 5.88 5.88 0 0 1 4.86 3.34c1 2.64-1.2 4.84-3.22 6.39-10.51 8.11-21.78 16.65-36 19.26a15.61 15.61 0 0 1-7.95-.17c-2.66-.9-5.06-3.21-5.23-5.87z" fill="#f2f2f2"/><path d="M653.45 156.43c1.55 2.17.22 5.9-2.2 8.23s-5.63 3.58-8.71 4.58c-17.08 5.55-34.86 6.64-50.49 3-3.19-.74-6.74-2.71-5.37-6.18a7.72 7.72 0 0 1 4.64-4 16.39 16.39 0 0 1 5.64-.63c14.91.15 30.07.54 45-4.81 4.12-1.46 9.37-3.17 11.49-.19z" fill="#f2f2f2"/><path d="M606.91 829s-20.55 42.14-16.5 66c12.21 72.07 107.14 379.55 122.57 421 5.31 14.28 88.11 29.92 139.72 10.4s184.9-148 183.13-152.32c-16.68-40.61-195.5-245.77-195.5-245.77l58 71.89s86.95-36.5 71.88-103.85c0 0-91.79-84.83-99.37-87s-74-12-96.1-13.77S606.91 829 606.91 829z" fill="#99a553"/><path d="M623.37 707.24q-11.19 16.45-21.47 33.52l18.46 12.07c-9.11-4.3-20.34 2-25.14 10.94s-4.8 19.73-4.48 30c.31 10 .9 20.27 5.2 29.24 8.87 18.51 30.68 26.2 50.67 29.36a226.35 226.35 0 0 0 144.67-25.97c5.9-3.3 11.82-7 15.72-12.61 4.88-7 6-16.18 4.71-24.68s-4.58-16.51-7.88-24.41a42.27 42.27 0 0 0-19.14-4.5l15-8.64a118.85 118.85 0 0 0-11.17-33.9c-2.52-5-6.48-10.38-12-10.1-4.36.22-7.59 4-10.75 7.07-8.69 8.41-20.39 13-32.21 15s-23.9 1.63-35.88 1.24c-8.21-.27-16.51-.55-24.43-2.77s-15.54-6.61-20.12-13.55-7.45-17-15.51-17.63c-6.05-.48-10.76 5.19-14.25 10.32z" fill="#eabc8f"/><path d="M751 798.06c-63.8 7.92 28.28 97.75 188.63 88.62 97.22-5.54 184.39-36.46 277.74-64.67s195.18-44.88 287-11.82c9.22 3.32 18.71 7.19 28.43 6.14s95-100.78 98.73-165.69c-44.37-38.35-126-36.65-190.7-31.58-149.36 11.71-246.23 93.83-368.27 139.83C961.59 800.72 868.75 810 751 798.06z" fill="#eabc8f"/><path d="M698.75 616.82c-30.58 14.84-79.56 12-119.5-9.6a169.34 169.34 0 0 1-28.83-19.35 57.34 57.34 0 0 1 5.59-2.64c41.34-17.11 90.91-11.82 127.89 13.65 6.5 4.47 13.05 10.3 14.85 17.94z" fill="#e05b55"/><path d="M623.42 498.88a4.24 4.24 0 0 1-.68-.05c-12.48-2-23.39-8.46-29.92-17.66-7.51-10.56-8.77-24.77-3.14-35.35 6.35-11.91 21-17.65 32.72-12.81a4.24 4.24 0 0 1-3.25 7.83c-7.63-3.17-17.71.93-22 9-4.16 7.82-3.13 18.45 2.56 26.46 5.23 7.36 14.12 12.54 24.37 14.2a4.24 4.24 0 0 1-.67 8.42z" fill="#b56248"/><path d="M812.85 355.29c-7.84-7.94-17.68-14-28.5-16.32a44.33 44.33 0 0 0-15.63-.51c-5.69.84-6.28 8.91-.78 10.62a133.19 133.19 0 0 1 25.3 10.35 71.51 71.51 0 0 1 21 17.27c3.75 4.65 11.19.8 9.33-4.91l-.06-.19c-2.05-6.25-6.07-11.66-10.66-16.31z" fill="#4f2601"/><path d="M577.37 300.74c9.67-2.59 20.09-2.8 29.58.4a40.49 40.49 0 0 1 13.46 7.66 4.68 4.68 0 0 1-4.12 8.07 122.11 122.11 0 0 0-25.42-3.87 62.72 62.72 0 0 0-25.32 4.25c-4.72 1.93-8.49-4.13-4.86-7.75l1-1c4.46-3.87 10.02-6.24 15.68-7.76z" fill="#4f2601"/><path d="M1046.81 901.85a266.57 266.57 0 0 0-1.51-68c-3.12-20.61-8.83-41.19-20.05-58.63s-28.5-31.55-48.61-35.48c-4.45 8.74 1.41 19 6.78 27.18 14.56 22.18 27.17 46 34.4 71.59s8.86 53.32 1.69 79c8.9 1.4 20 1.86 24.73-5.92 1.76-2.91 2.21-6.38 2.57-9.74z" fill="#af5435"/><path d="M783 465.61c5.67-13.93 9-30.25 2.46-43.77-7.64-15.74-28.17-22.71-44.29-16.48s-22 21.1-27.37 38.75c-1.78 5.85-.42 9.54 2.06 11.39s7.7 2.59 10.36-4a195.7 195.7 0 0 1 8.68-19.08c2.24-4.14 4.35-8.63 8.05-11.48 7-5.35 16-3 20.35-1.43 7 2.46 12.23 10.91 10.31 21.66-1.33 7.44-5.36 14.29-5.8 21.83-.2 3.48-.29 6.09 1.79 8.86s3.81 3 7 1.81 5.04-4.78 6.4-8.06z" fill="#511d1d"/><path d="M602.54 399.29c4.43-11.5 6.92-24.92 1.34-35.88-6.49-12.76-23.42-18.15-36.52-12.78s-17.68 17.63-21.81 32.17c-1.37 4.82-.2 7.82 1.86 9.3s6.34 2 8.42-3.47a160.29 160.29 0 0 1 6.81-15.76c1.77-3.43 3.43-7.13 6.42-9.53 5.61-4.49 13-2.69 16.64-1.5 5.78 1.9 10.18 8.74 8.77 17.57-1 6.11-4.17 11.78-4.41 18-.11 2.85-.15 5 1.6 7.23s3.16 2.41 5.78 1.37 4.06-4.01 5.1-6.72z" fill="#511d1d"/><path d="M555.34 302.68c8 6.7 19.87 4.5 29.67 1.09a179.65 179.65 0 0 0 76-51.6c-26.29 27.43-31.39 74-10.29 105.69s66.89 43.94 99.81 25.35S797.27 317 778.18 284c1.22 20.87 9.24 42.64 26.33 54.21s44.09 8.42 53.84-10c9.12-17.21.53-38.55-10.38-54.63-32-47.1-85.45-78.83-141.59-82s-113.51 23-147.1 68.9c-9.19 12.52-15.82 32.25-3.94 42.2z" fill="#630"/><path d="M715.62 1485.56a2.12 2.12 0 0 1-1.81-3.22l2.92-4.79a2.12 2.12 0 1 1 3.61 2.22q-1.46 2.38-2.91 4.77a2.12 2.12 0 0 1-1.81 1.02zm10.74-17.37a2.12 2.12 0 0 1-1.79-3.25q4-6.28 8-12.52a2.12 2.12 0 1 1 3.56 2.3q-4 6.21-8 12.48a2.11 2.11 0 0 1-1.77.99zm16.1-24.9a2.12 2.12 0 0 1-1.76-3.29q4.1-6.19 8.28-12.32a2.12 2.12 0 1 1 3.5 2.38q-4.16 6.12-8.26 12.28a2.11 2.11 0 0 1-1.76.96zm16.68-24.51a2.12 2.12 0 0 1-1.73-3.33q4.25-6.09 8.58-12.12a2.12 2.12 0 0 1 3.44 2.47q-4.31 6-8.55 12.08a2.11 2.11 0 0 1-1.73.91zm17.27-24.1a2.12 2.12 0 0 1-1.7-3.37q4.39-6 8.86-11.91a2.12 2.12 0 1 1 3.43 2.6q-4.45 5.91-8.83 11.87a2.11 2.11 0 0 1-1.76.82zm17.83-23.68a2.12 2.12 0 0 1-1.67-3.41q4.54-5.87 9.14-11.7a2.12 2.12 0 0 1 3.32 2.63q-4.59 5.8-9.11 11.66a2.11 2.11 0 0 1-1.68.82zm18.4-23.25a2.12 2.12 0 0 1-1.64-3.45q4.67-5.77 9.42-11.48a2.12 2.12 0 0 1 3.26 2.7q-4.73 5.69-9.39 11.44a2.12 2.12 0 0 1-1.65.8z" fill="#303e54"/><path d="M780.63 1384.3a2.12 2.12 0 0 1-1.6-.73 77.3 77.3 0 0 1-18.74-51.24 2.12 2.12 0 0 1 2.12-2.09 2.12 2.12 0 0 1 2.09 2.15 73 73 0 0 0 17.69 48.4 2.12 2.12 0 0 1-1.6 3.51z" fill="#303e54"/><path d="M900.86 1003.19a2.11 2.11 0 0 1-1.51-.63 579.52 579.52 0 0 1-73.83-91.63 2.12 2.12 0 0 1 3.55-2.31 575.21 575.21 0 0 0 73.29 91 2.12 2.12 0 0 1-1.51 3.61z" fill="#7f8732"/><path d="M143.47 283.76c-3.88-4.86-10-8.1-16.08-7.6-7.55.62-14.12 7.38-14.64 15.06a23.24 23.24 0 0 0 2.75 11.71c2.56 5.18 6.63 9.95 12.08 11.63 7.29 2.25 15.67-2.05 19-9s1.69-15.78-3.11-21.8z" fill="#b26e40"/><path d="M69.08 282.12a11.76 11.76 0 0 0 12.83-.36 14.54 14.54 0 0 0 5.93-11.82 18.48 18.48 0 0 0-5.13-12.47 16 16 0 0 0-8-4.83 11 11 0 0 0-9 1.74 12.18 12.18 0 0 0-4.39 8.49 23.41 23.41 0 0 0 1.38 9.72c1.3 3.71 3.15 7.41 6.38 9.53z" fill="#b26e40"/><path d="M116.06 285.18a248.91 248.91 0 0 0-39.13-13.43 145.81 145.81 0 0 0 47.31 21.38c-.44-4-4.54-6.36-8.18-7.95z" fill="#b26e40"/><path d="M135.55 288.47a131.45 131.45 0 0 0-8.26-32.76 83.18 83.18 0 0 0 5.37 39.58 3.59 3.59 0 0 0 2.8-2.69 10.33 10.33 0 0 0 .09-4.13z" fill="#b26e40"/><path d="M376.3 256.21c-3.32-12.77-14.46-21.67-25.19-29.14A479.15 479.15 0 0 0 281 186.65l-92.8 46.51A537.68 537.68 0 0 0 284.47 289c12.47 5.59 25.34 10.75 38.86 12.35s27.91-.67 38.86-8.83 17.6-22.91 14.11-36.31z" fill="#b26e40"/><path d="M480.6 126.57c-25.2-24.33-50.51-47.07-81.88-60.95-6.91-3.06-14-5.94-21.53-6.56a19.89 19.89 0 0 0-9.54 1.82c-7.44 3.23-12.28 17.69 7.91 36.07 7.26 6.61 69 59.59 90.34 64.17 8.87 1.9 18.27-1.22 21.4-9.85 3.03-8.33-.3-18.56-6.7-24.7z" fill="#b26e40"/><path d="M23.87 111.15c3.57 12.7 14.88 21.38 25.76 28.62a478.6 478.6 0 0 0 70.93 39l91.81-48.4A537.09 537.09 0 0 0 115 76.52C102.45 71.19 89.48 66.29 75.94 65S48 66.21 37.27 74.59s-17.15 23.23-13.4 36.56z" fill="#b26e40"/><path d="M79.68 164.82c-14.9 7-30 14.68-41 27.12S21.92 222.78 28.43 238c8.81 20.68 34.73 26.74 57 27.46 55.54 1.81 110.67-12.67 161.88-34.58s151.91-77 189.53-105.78c11.77-9 30.54-20.83 23.77-34.08-7.5-14.69-129.52 4.75-172.91 10.56-73.06 9.83-141.22 31.77-208.02 63.24z" fill="#d17f47"/><path d="M69.9 52.6l8 60.07c.42 3.15.86 6.37 2.29 9.19s4.08 5.23 7.19 5.46c4.05.29 7.58-3.24 8.77-7.18s.6-8.19 0-12.28l-6.49-43.64c-.55-3.74-1.15-7.61-3.11-10.83s-13.01-1.54-16.65-.79z" fill="#d17f47"/><path d="M314.7 184.36L303.6 231a31.09 31.09 0 0 0-1.24 9.37c.23 3.16 1.59 6.41 4.22 8.12 4 2.59 9.55.73 12.67-2.85s4.4-8.4 5.58-13l6.17-24.19c1.28-5 2.57-10.14 2.47-15.34s-1.79-10.6-5.6-14.09c-2.59-2.37-6.68-3.65-9.55-1.67-2.22 1.52-3 4.38-3.62 7.01z" fill="#d17f47"/><path d="M31.17 33.5c-1.4 4.19.24 8.82 1.81 13C40.47 66.09 57.23 80.8 75.45 91s188 111.44 262.22 132.85c10.49 3 21.54 6 32.27 4 30.33-5.63 41.75-20.34 47.14-29.94 7.06-12.57 3.21-29.09-5.54-40.52s-21.5-18.88-34-26c-68.44-39-138.11-75.76-209.22-109.47-16-7.57-32.15-15-49.33-19S83.39-1.44 67 5.1c-7 2.78-28.62 6.85-35.83 28.4z" fill="#e09461"/><path d="M21.3 157.59c-7.87-1.52-16 3.82-19.29 11.24s-2.28 16.27 1.1 23.66S12 206 17.92 211.61s12.16 10.71 17.54 16.77c2-14 4-28.1 3.14-42.23-.35-6-1.24-12.14-4-17.51s-7.48-9.93-13.3-11.05z" fill="#e09461"/><path d="M86 296.24c-5.69-25.88-24.05-48.6-47.93-59.3 2 19.23 4.09 38.66 10.49 56.89 2.91 8.29 7.12 16.74 14.57 21.22s18.81 3 22.49-4.91c2.01-4.26 1.38-9.28.38-13.9z" fill="#e09461"/><path d="M437.55 42.42c2.9.29 4.89 3.05 6.34 5.63a85 85 0 0 1 10.84 39.67 10.9 10.9 0 0 1-.91 5.52 10.86 10.86 0 0 1-3.69 3.49 141 141 0 0 1-18.84 10.72 23.71 23.71 0 0 1-8.09 2.55 9.14 9.14 0 0 1-7.75-2.83c-3.08-3.68-1.73-9.22-.22-13.78l14-42.28c1.43-4.11 4.02-9.11 8.32-8.69z" fill="#e09461"/><path d="M52.88 231.82a26.28 26.28 0 0 0-3.53-9 22.8 22.8 0 0 0-4.44-5.89 9.51 9.51 0 0 0-6.66-2.61c-3.53.2-6.36 2.89-8.86 5.42-2.1 2.12-4.29 4.4-5 7.33-.65 2.76.13 5.66 1 8.36 1.23 3.72 2.78 7.53 5.69 10.11a13.11 13.11 0 0 0 15.5 1 15.17 15.17 0 0 0 6.3-14.72z" fill="#b26e40"/><path d="M174.29 266.61v-33.94c0-5.13.4-11.1 4.53-14 3.62-2.58 8.84-1.56 12.32 1.22s5.6 6.92 7.51 11c6.45 13.7 11.72 36.37 17 50.59" fill="#f2ac7c"/></g></g></svg>