<svg xmlns="http://www.w3.org/2000/svg" viewBox="0 -0.08272743225097656 70.98999786376953 94.31273651123047"><title>Depositphotos_113048894_05</title><g data-name="Layer 2"><g data-name="Layer 1"><g data-name="Layer 2"><g data-name="ÎÓÈ 2"><path d="M62.78 28.58H8A70.77 70.77 0 0 0 .29 59.87C.29 80 7 92.1 8 93.89h54.79c1.06-1.79 7.74-13.85 7.74-34a70.83 70.83 0 0 0-7.75-31.31z" fill="#84cfcc"/><path fill="#faab64" d="M11.46 37.69V61.2l47.58.24V37.69H11.46z"/><path fill="#a3ddf2" d="M34.72 7.89l1.75.35V25.1h-1.75V7.89z"/><path fill="#a3ddf2" d="M16.09 64.35h17.54v3.38H16.09z"/><path fill="#a3ddf2" d="M37.34 64.51h17.54v3.14H37.34z"/><path fill="#a3ddf2" d="M43.7 28.43H27.56V25.1H43.7v3.33z"/><path fill="#a3ddf2" d="M33.63 71.6h3.71v19.87h-3.71z"/><path fill="#faab64" d="M59.04 37.69v13.93L46.66 37.69h12.38z"/><path d="M23.54 60.94L12 46.66v-6.92l17.41 21.2z" fill="#faab64"/><path fill="#faab64" d="M11.95 60.94v-12.7l10.32 12.7H11.95z"/><path fill="#faab64" d="M44.43 37.54h-8.86v-.43H11.46l19.56 24.33h4.55v-.5h19.84L35.57 41.96v-1.74l21.65 20.72h2.12v-7.87L44.43 37.54z"/><path d="M59.54 36.69H11.46a.5.5 0 0 0-.5.5v24.25a.5.5 0 0 0 .5.5h48.08a.5.5 0 0 0 .5-.5V37.19a.5.5 0 0 0-.5-.5zM12 48.24l10.31 12.7H12zm0-8.5l17.41 21.2h-5.87L12 46.66zm23 21.2h-4.35L12 38.17v-.48h23zm1-20.38l19.7 20.38H36zm23 11.06L46.66 37.69H59zm0 9.32h-1.91L36 39.13v-1.44h9.33L59 53.13z" fill="#6d6e71"/><path d="M37.38 68.32H54.9a.5.5 0 0 0 .5-.5v-3.43a.5.5 0 0 0-.5-.5H37.38a.5.5 0 0 0-.5.5v3.43a.5.5 0 0 0 .5.5zm.5-3.43H54.4v2.43H37.88z" fill="#6d6e71"/><path d="M33.61 68.32a.5.5 0 0 0 .5-.5v-3.43a.5.5 0 0 0-.5-.5H16.09a.5.5 0 0 0-.5.5v3.43a.5.5 0 0 0 .5.5zm-.5-1H16.59v-2.43h16.52z" fill="#6d6e71"/><path d="M33.11 71.48v20.08a.5.5 0 0 0 .5.5h3.76a.5.5 0 0 0 .5-.5V71.48a.5.5 0 0 0-.5-.5h-3.76a.5.5 0 0 0-.5.5zm1 .5h2.77V91h-2.77z" fill="#6d6e71"/><path d="M36.94 24.68V8.5l25.13 7.84h.15a.51.51 0 0 0 .15-1L13.18 0a.52.52 0 0 0-.3 1l21.18 6.6v17.08h-6.73a.5.5 0 0 0-.5.5v3H8.32a.5.5 0 0 0-.43.25A70.35 70.35 0 0 0 0 59.87C0 81.57 7.82 93.93 7.9 94a.5.5 0 0 0 .42.23h54.35a.5.5 0 0 0 .42-.23c.08-.12 7.9-12.48 7.9-34.18a70.35 70.35 0 0 0-7.89-31.46.5.5 0 0 0-.43-.25H44.16v-3a.5.5 0 0 0-.5-.5zm-9.61 4.45h35A69.57 69.57 0 0 1 70 59.87c0 19.81-6.56 31.65-7.6 33.42H8.6C7.55 91.52 1 79.65 1 59.87a69.51 69.51 0 0 1 7.61-30.74zm8.61-4.45h-.88V8.21l.88.33zm7.23 1v2.46H27.83v-2.47h15.34z" fill="#6d6e71"/><path d="M46 8.69h-.15L28.7 3.12a.5.5 0 0 1 .3-.95l17.16 5.55a.51.51 0 0 1-.15 1z" fill="#6d6e71"/><path d="M23.08 90.49a.5.5 0 0 1-.5.5H9.95a.5.5 0 0 1-.45-.28c-.19-.39-4.62-9.55-5-17.62a.5.5 0 0 1 1 0c.29 7.09 4 15.33 4.72 16.94h12.36a.5.5 0 0 1 .5.46z" fill="#6d6e71"/></g></g></g></g></svg>