<svg xmlns="http://www.w3.org/2000/svg" viewBox="0 0 71.9000015258789 71.9000015258789"><title>Asset 2</title><g data-name="Layer 2"><g data-name="Layer 1" style="isolation:isolate"><circle cx="35.95" cy="35.95" r="35.95" fill="#373745"/><path d="M52.64 23.21c-.32-5-3.38-10.47-7.67-10.47s-6.74 4.54-9.17 4.54-5.21-4.54-9.17-4.54S19.28 18.19 19 23.2a24.28 24.28 0 0 0 2.7 12.52c-3 9.11.87 20.3 4.31 24.09C27.63 61.58 29.72 61 29.1 57c-.44-2.87.52-16.89 6.7-16.89s7.33 14.24 6.64 17.14c-.46 3.76 1.34 4.47 2.9 2.81 3.59-3.82 7.62-15.24 4.55-24.34a24.11 24.11 0 0 0 2.75-12.51z" style="mix-blend-mode:color-dodge" fill="#fff"/></g></g></svg>