<svg xmlns="http://www.w3.org/2000/svg" viewBox="0 0 1149.9000244140625 1683.7999267578125"><path d="M1149.9 1622.2c0 34-27.6 61.6-61.6 61.6H61.6c-34 0-61.6-27.6-61.6-61.6V61.6C0 27.6 27.6 0 61.6 0h1026.7c34 0 61.6 27.6 61.6 61.6v1560.6z" fill="#5ffcff"/><path d="M949.1 730.4c0-117.6-95.4-213-213-213-55 0-105 20.8-142.8 55-6.5 5.9-17.9 16.7-37.4-.7-37.8-33.6-87.5-54.3-142-54.3-117.6 0-213 95.4-213 213 0 74 38 131.5 91.7 181.5l247.8 240.2c19.1 19.1 50.4 18.9 69.9-.6l249-243.3c51.8-45.3 89.8-103.7 89.8-177.8z" fill="#5ffcff"/><path d="M135.6 278.4c0-16.3-13.2-29.5-29.5-29.5-7.6 0-14.6 2.9-19.8 7.6-.9.8-2.5 2.3-5.2-.1-5.2-4.7-12.1-7.5-19.7-7.5-16.3 0-29.5 13.2-29.5 29.5 0 10.3 5.3 18.2 12.7 25.2L79 336.9c2.7 2.7 7 2.6 9.7-.1l34.5-33.7c7.2-6.4 12.4-14.5 12.4-24.7z" fill="#5ffcff"/><path d="M1110.5 1407.6c0 16.3-13.2 29.5-29.5 29.5-7.6 0-14.6-2.9-19.8-7.6-.9-.8-2.5-2.3-5.2.1-5.2 4.7-12.1 7.5-19.7 7.5-16.3 0-29.5-13.2-29.5-29.5 0-10.3 5.3-18.2 12.7-25.2l34.4-33.3c2.7-2.7 7-2.6 9.7.1l34.5 33.7c7.1 6.3 12.4 14.4 12.4 24.7z" fill="#5ffcff"/><path d="M1092.8 1453.6l-27.6 150.3H1055l-29.4-150.3h10.8l8.4 45.5h30l7.9-45.5h10.1zm-20.7 61.7h-24.3l7.5 41.6c2.3 12.6 4 23 5.1 31.2.9-9.6 2.2-19.2 3.9-28.7l7.8-44.1z" fill="#5ffcff"/><path d="M53.5 223.6L81.1 73.3h10.2l29.4 150.3h-10.8l-8.4-45.5h-30l-7.9 45.5H53.5zm20.8-61.7h24.3l-7.5-41.6c-2.3-12.6-4-23-5.1-31.2-.9 9.6-2.2 19.2-3.9 28.7l-7.8 44.1z" fill="#5ffcff"/><path d="M1149.9 1622.2c0 34-27.6 61.6-61.6 61.6H61.6c-34 0-61.6-27.6-61.6-61.6V61.6C0 27.6 27.6 0 61.6 0h1026.7c34 0 61.6 27.6 61.6 61.6v1560.6z" fill="#fff"/><path d="M949.1 730.4c0-117.6-95.4-213-213-213-55 0-105 20.8-142.8 55-6.5 5.9-17.9 16.7-37.4-.7-37.8-33.6-87.5-54.3-142-54.3-117.6 0-213 95.4-213 213 0 74 38 131.5 91.7 181.5l247.8 240.2c19.1 19.1 50.4 18.9 69.9-.6l249-243.3c51.8-45.3 89.8-103.7 89.8-177.8z" fill="#df0030"/><path d="M135.6 278.4c0-16.3-13.2-29.5-29.5-29.5-7.6 0-14.6 2.9-19.8 7.6-.9.8-2.5 2.3-5.2-.1-5.2-4.7-12.1-7.5-19.7-7.5-16.3 0-29.5 13.2-29.5 29.5 0 10.3 5.3 18.2 12.7 25.2L79 336.9c2.7 2.7 7 2.6 9.7-.1l34.5-33.7c7.2-6.4 12.4-14.5 12.4-24.7z" fill="#df0030"/><path d="M1110.5 1407.6c0 16.3-13.2 29.5-29.5 29.5-7.6 0-14.6-2.9-19.8-7.6-.9-.8-2.5-2.3-5.2.1-5.2 4.7-12.1 7.5-19.7 7.5-16.3 0-29.5-13.2-29.5-29.5 0-10.3 5.3-18.2 12.7-25.2l34.4-33.3c2.7-2.7 7-2.6 9.7.1l34.5 33.7c7.1 6.3 12.4 14.4 12.4 24.7z" fill="#df0030"/><path d="M1092.8 1453.6l-27.6 150.3H1055l-29.4-150.3h10.8l8.4 45.5h30l7.9-45.5h10.1zm-20.7 61.7h-24.3l7.5 41.6c2.3 12.6 4 23 5.1 31.2.9-9.6 2.2-19.2 3.9-28.7l7.8-44.1z" fill="#df0030"/><path d="M53.5 223.6L81.1 73.3h10.2l29.4 150.3h-10.8l-8.4-45.5h-30l-7.9 45.5H53.5zm20.8-61.7h24.3l-7.5-41.6c-2.3-12.6-4-23-5.1-31.2-.9 9.6-2.2 19.2-3.9 28.7l-7.8 44.1z" fill="#df0030"/></svg>