<svg xmlns="http://www.w3.org/2000/svg" viewBox="-4.76837158203125e-7 0 171.25 153.6099853515625"><title>Depositphotos_73224967_20</title><g data-name="Layer 2"><g data-name="Layer 1"><g data-name="Layer 2"><path d="M35.1 29.4v3.45H63v-4.5H35.37a2.19 2.19 0 0 0-.27 1.05z" fill="#fff"/><path d="M169 0H2.25A2.25 2.25 0 0 0 0 2.25V30.6a2.25 2.25 0 0 0 2.25 2.25H24.6v-4.5H4.5V4.5h162.3v23.85h-18.53v4.5H169a2.25 2.25 0 0 0 2.25-2.25V2.25A2.25 2.25 0 0 0 169 0z" fill="#fff"/><path d="M106.11 13.32l.08.07z" fill="#fff"/><path d="M106.47 13.67l-.28-.27-.08-.07-.31-.27-.32-.24h-.06l-.35-.23H105l-.37-.21-.38-.19h-.08l-.39-.16h-.07l-.41-.14H73.5a7.5 7.5 0 0 0-7.5 7v21a2.25 2.25 0 0 0 2.25 2.25h4.95v22.29H66v20.48h18.3v9.48h3a5.54 5.54 0 0 1 3.26 10l-1.14-1.14a3 3 0 0 0-4.24 0L84 104.4a5.54 5.54 0 0 1-2.28-4.48h-6a11.52 11.52 0 0 0 4 8.74l-9.93 9.93-.06.07-.09.13-.07.14v.07a1.34 1.34 0 0 0 0 .14v32.97a1.5 1.5 0 0 0 1.5 1.5h32.79a1.5 1.5 0 0 0 1.5-1.5V119.1l-.08-.09-9.92-9.92a11.54 11.54 0 0 0-5.06-20.31v-3.87h18.3V64.43h-7.2V42.15h5a2.25 2.25 0 0 0 2.25-2.25V18.2a7.42 7.42 0 0 0-.31-1.55 7.52 7.52 0 0 0-1.87-2.98zM87.3 105.39l.08.08h-.16zM72.4 121.9l3.84 3.84v20.62l-3.84 3.84zm.74 29l3.86-3.79h20.61l3.84 3.84zm4.15-4.9v-20h4.21v20zm5.26 0v-20h4.21v20zm5.26 0v-20H92v20zm5.26 0v-20h4.23v20zm9.1 4.15l-3.84-3.84v-20.57l3.84-3.84zM97.61 125H77l-3.84-3.84h28.3zm2.46-6.84H74.53l7.81-7.81a11.53 11.53 0 0 0 9.92 0zm4-37.75H70.5v-3.25h33.6zm0-11.47v7.17H70.5v-7.18zm-26.4-4.5V42.15H96.9v22.28zm26.4-43.75v17H70.5V18.9a3 3 0 0 1 3-3h27.6a3 3 0 0 1 3 3z" fill="#f48729"/><path d="M147.64 7.72a8.22 8.22 0 0 0-8.16 7.28 8.42 8.42 0 0 0-.05.92 8.13 8.13 0 0 0 1.35 4.5V50.7a2.36 2.36 0 1 1-4.72 0V20.55a6.86 6.86 0 0 0-13.73 0V50.7a2.36 2.36 0 1 1-4.72 0V20.55a6.87 6.87 0 0 0-6.86-6.86h-4.25a7.52 7.52 0 0 1 1.79 3 7.42 7.42 0 0 1 .31 1.55h2.17a2.35 2.35 0 0 1 .85.16 2.36 2.36 0 0 1 1.51 2.2v30.1a6.86 6.86 0 1 0 13.72 0V20.55a2.37 2.37 0 1 1 4.73 0V50.7a6.86 6.86 0 0 0 13.72 0V23.8a8.21 8.21 0 0 0 2.36.35h.64a8.21 8.21 0 0 0-.64-16.4zm0 11.93a3.69 3.69 0 0 1-1.89-.52 2.35 2.35 0 0 1 1.89-1 2.25 2.25 0 1 0 0-4.5 6.8 6.8 0 0 0-3.48.95 3.71 3.71 0 1 1 3.48 5z" fill="#fff"/><path d="M27.66 28.35a9.59 9.59 0 0 0-.06 1V69.6h-7.5v28.8h19.5V69.6h-7.5V29.4a5.25 5.25 0 0 1 5.25-5.25H63v-4.5H37.35a9.76 9.76 0 0 0-9.69 8.7zM35.1 93.9H24.6V74.1h10.5z" fill="#fff"/><path d="M32.37 76.58h-5.65v5.65h5.65zm-1 4.6h-3.6v-3.55h3.55z" fill="#fff"/><path d="M32.37 85.45h-5.65v5.65h5.65zm-1 4.6h-3.6V86.5h3.55z" fill="#fff"/></g></g></g></svg>