<svg xmlns="http://www.w3.org/2000/svg" viewBox="-0.440000057220459 -2.1800003051757812 481.739990234375 541.7901000976562"><title>Depositphotos_103829028_04</title><g data-name="Layer 2"><g data-name="—ÎÓÈ_1"><path d="M190.84 134.45S190 78.16 220 56s69.11-45.65 78.5-48.18 34.87-10 59.86-4.69 52.22 15.36 72.13 37.14 32.56 31.15 39.18 55.15 9.76 63.67 5.26 87.44-30.14 76.07-30.14 76.07l-24.54 44.83 31.59-4.64-18.5 18.49-30.15 19.16-.13-28.07s-41.31 2.58-72.87-6.12-83.36-47.1-83.36-47.1-20.36-28.19-33.46-53.71-22.53-67.32-22.53-67.32z" fill="#f9f9f9"/><path d="M73.37 343.1s-7.73 5.07-13 19.62-.37 60.77-.37 60.77l-13.37 42.87s3.2 32 8.28 42.05 15.74 22 21.56 26.39 14.35 2.08 14.35 2.08l4.31-13.45-14.5-49.37 13.82-4.75s-1.11 19.95 4 23.91 10.48 9.08 10.48 9.08l10.63-4.64 10.61-47.85s20.1 15.26 31.83 3.93a78.85 78.85 0 0 0 17.06-25s-42.42-46-55.45-53.4-50.24-32.24-50.24-32.24z" fill="#eac8b5"/><path d="M141.66 313.31s-3.29-15.05 3.41-25.38 20.74-27 20.74-27 28.07-8.39 33.58-13.77 22-22.78 22-22.78l11-19.15 7.91-8.76 13 7 3 13.06s-5.64 30.67-9.47 39-14.79 28.26-21.94 35-21.21 14.64-21.21 14.64l-3.24 11.81s-4.71 10.54-16.87 12.18-20.65 5-27.91-.83-14-15.02-14-15.02z" fill="#eac8b5"/><path d="M80 334.33C73.37 343.1 105.29 312 105.29 312l11-24.21 28.61-15.69 35.54-16.59-35.35 32.45s-11 18.18 3.05 33.16 16.21 11 21.85 11.18 20.89-3.15 20.89-3.15l12.82-24s-3 28.63-6.6 50-1.74 30.36-8.95 43.82-9.08 29.82-9.08 29.82-54.28-57.42-76.15-69-29.55-16.69-29.55-16.69z" fill="#e5e1da"/><path d="M123.6 375.32s7.59 29.37 0 43.42-31.12 35.88-31.12 35.88l-19.11 15.53s-5 38.89 0 47.82 19.08 12 19.08 12l-11.82-55.89 32.21-19.46 19.39-14.68 37.07-18z" fill="#d1b7aa"/><path d="M250 214.78s-11.63 37.83-21.8 48.7-38.34 24.75-38.34 24.75l-39 17.34-2.69 18.34 35.46 5.2 20.11-24s16.87-11.76 28.91-24.4 21.75-42.42 21.75-42.42z" fill="#d1b7aa"/><path d="M200 140.48a1.26 1.26 0 0 1 1.19-.65 1.68 1.68 0 0 1 .84.22 1.41 1.41 0 0 1 .79-.22 1.67 1.67 0 0 1 1.27.56 156.76 156.76 0 0 1 1.75-21.78c.63-4.1 1.58-8.12 2.27-12.2.63-3.76 1-7.57 1.92-11.28s2.9-7 4.42-10.45c1.65-3.8 3.15-7.68 4.63-11.55 2.63-6.89 4.91-14 9.85-19.58 2.41-2.72 5.1-5.21 7.35-8.07.56-.71 1.09-1.45 1.61-2.18l-1.61 1c-2.85 1.69-5.93 3.21-8.62 5.16-5.13 3.71-7.84 9.4-11.66 14.32-4.14 5.32-8.8 10.51-11.78 16.65-3.14 6.47-3.52 13.61-5.6 20.41-1.83 6-1.47 12-1.39 18.15.72-.99-.29 16.37 2.77 21.49z" fill="#dbd4c8"/><path d="M200.17 143.37a.32.32 0 0 1-.32.2c-.46 0-.61-.63-.29-.8a.49.49 0 0 1 .19-.45c-.64-.79-4.45-1.37-5.12-1.32a19.9 19.9 0 0 0-2.43 4.41 4 4 0 0 1 3.72 1.59 1 1 0 0 1 .89.61 5.25 5.25 0 0 1 3.93 2.16c.79 1 .93 4 .79 4.43s-.62.84-.59.56a5.42 5.42 0 0 0-1.5-4 5.79 5.79 0 0 0-2.4-1.35c.64 2.68-6.58 9.38-6.7 8.88a21.43 21.43 0 0 1-.52-3.38 6.18 6.18 0 0 1-2-.5.93.93 0 0 1-.49-1.2l2.64-5.28a6.36 6.36 0 0 1 1.13-2 20.52 20.52 0 0 1 2.68-4.91h-.94a1.34 1.34 0 0 1-1.12.07c0 .11 0 .22-.06.34-.3 1.33-2.06 2.09-2.94.77a9.27 9.27 0 0 1-.92-1.78c-.57 0-28.29-42-51.69-42.76-13-.43-26.75 6.62-39.42 1.15-7.81-3.37-11-11.29-13.92-18.93.19 5.91.37 12-.74 17.7a28 28 0 0 1-6.75 13.32c-5.84 6.66-12.92 11.93-17.83 19.44-5.53 8.46-9.33 17.92-14.53 26.58l-.05.06a.59.59 0 0 1-.68.87 49.67 49.67 0 0 1-7.89-3.52A50.43 50.43 0 0 1 39 162l.2.41 1 2.09a.84.84 0 0 1-1.56.63A46 46 0 0 0 27.81 150a.86.86 0 0 1-.23-1 43.91 43.91 0 0 0-2.52-2.19q.54 2.25 1.26 4.45c2.42 7.3 5.89 14.11 9 21.13a105.06 105.06 0 0 1 4.42 12q-.09 3.08.07 6.16c-.69-2.73-1.44-5.45-2.32-8.14-4.1-12.54-11.3-24-14.1-36.93Q22.2 144.75 21 144a165 165 0 0 1 6.95 23.64c1.67 8.26 2.42 16.43 1.28 24.83-.64 4.67-1.5 9.37-1.3 14.1a56.81 56.81 0 0 0 1.94 12.64A115.6 115.6 0 0 0 53.25 263c9.6 11.08 22.32 18.3 36.86 19.83a57.65 57.65 0 0 0 27.25-3.67 12.3 12.3 0 0 0-.06-2.85l1.41-.14c0 .37-.06.74-.08 1.13s0 .91-.06 1.37a64.87 64.87 0 0 0 8.23-4.13q1.9-.55 3.77-1.25a.92.92 0 0 1-.19 1.32 47.29 47.29 0 0 1-12 6.81v.25a4.33 4.33 0 0 1 1.25-.15c.44 0 .44.75 0 .79a3 3 0 0 0-1.36.48c0 .22 0 .44-.07.66q-.28 2.32-.7 4.61a5.37 5.37 0 0 0 5 1.55c3.49-.71 6-3.36 8.47-5.71 4.46-4.16 9.08-8.14 13.91-11.84 9.53-7.31 19.95-14.6 31-19.44a.58.58 0 0 1 .66.88c.66-.35 1.31-.72 2-1.11 2.2-1.33 4.58-3 7.19-3.23a87.43 87.43 0 0 0 15.52-17.95 91.54 91.54 0 0 0 12.22-29.46c3.98-18.88 3.88-45.91-13.3-58.38zm-15.1 36.45a.39.39 0 0 1 .29-.73 13.84 13.84 0 0 0 13.16-3.09c3.85-3.46 5.22-7.49 4.93-12.62 0-.71 1-1.1 1.26-.33 2.98 10.62-10.25 20.72-19.63 16.76z" fill="#efcfbf"/><path d="M199.29 142.89a.32.32 0 0 1-.32.2c-.46 0-.61-.63-.29-.8a.49.49 0 0 1 .19-.45 13.31 13.31 0 0 1-1.95-3.46l-.74.22a1 1 0 0 1-.23 1.56q.25 3.49.38 7c1.36.12.83 2.15.06 1.86.21 7.59-2.17 35.64-2.73 38.58a81.75 81.75 0 0 1-2.52 9.85l-.24.76-.11.33q-.2.59-.41 1.19v.07q-.36 1-.75 2.05a102.87 102.87 0 0 1-8.77 18 101.88 101.88 0 0 1-29 30.34 111.31 111.31 0 0 1-37.48 16.47 117.08 117.08 0 0 1-41.17 2.24 114.1 114.1 0 0 1-18.64-3.93 55.8 55.8 0 0 0 34.64 17.41 57.65 57.65 0 0 0 27.25-3.67 12.3 12.3 0 0 0-.06-2.85l1.41-.14c0 .37-.06.74-.08 1.13s0 .91-.06 1.37a64.87 64.87 0 0 0 8.23-4.13q1.9-.55 3.77-1.25a.92.92 0 0 1-.19 1.32 47.29 47.29 0 0 1-12 6.81v.25a4.33 4.33 0 0 1 1.25-.15c.44 0 .44.75 0 .79a3 3 0 0 0-1.36.48c0 .22 0 .44-.07.66q-.28 2.32-.7 4.61a5.37 5.37 0 0 0 5 1.55c3.49-.71 6-3.36 8.47-5.71 4.46-4.16 9.08-8.14 13.91-11.84 9.53-7.31 19.95-14.6 31-19.44a.58.58 0 0 1 .66.88c.66-.35 1.31-.72 2-1.11 2.2-1.33 4.58-3 7.19-3.23a87.42 87.42 0 0 0 15.52-17.95 91.54 91.54 0 0 0 12.22-29.46c4-18.91 3.9-45.94-13.28-58.41z" fill="#d1b7aa"/><path d="M190 145.4a4 4 0 0 1 3.72 1.59 1 1 0 0 1 .89.61h.29q-.12-3.48-.36-7h-.11a12.76 12.76 0 0 1-2 .3 19.9 19.9 0 0 0-2.43 4.5z" fill="#d1b7aa"/><path d="M170 421.08l1.64 1.3a63.17 63.17 0 0 0 9.32-10 56.43 56.43 0 0 0 7.2-13.47l-.21.38A83.72 83.72 0 0 1 170 421.08z" fill="#eac8b5"/><path d="M57.6 376.19c-.85.38-1.7.75-2.57 1.08L51.22 379a.63.63 0 0 1-.77-.2 48.48 48.48 0 0 1-6.88 1.46 55.27 55.27 0 0 1-8.9.56c-2-.05-4.49.36-5.93-1.19a38.87 38.87 0 0 1-5.93-8.5c-6.1-7.64-8.22-19.63-9.74-28.37-1.41-8.09-2.35-16.24-3.66-24.34l-.38-2.35a39.54 39.54 0 0 0-5.76-9.73C5 322.9 5.68 339.52 6.68 356.11c.36 5.94.44 12 1.85 17.77a80.93 80.93 0 0 0 4.89 14.06c7.44 16.53 24.91 41.83 45.33 28.39a.46.46 0 0 1 .3-.07 240.62 240.62 0 0 1-2-28 114.19 114.19 0 0 1 .55-12.07z" fill="#eac8b5"/><path d="M142.67 437.88c6.63-1 13.1-4.24 18.58-7.76a88.89 88.89 0 0 0 9.58-7.06l-1.68-1.28a103.06 103.06 0 0 1-26.48 16.1z" fill="#eac8b5"/><path d="M189.79 153v-.72l-.33.67z" fill="#eac8b5"/><path d="M191.05 136l.1.11a9.38 9.38 0 0 0-.31-1.7 6.44 6.44 0 0 0-.25.67c.17.35.32.65.46.92z" fill="#eac8b5"/><path d="M194 154.79a7.06 7.06 0 0 0 1.84-3 6.91 6.91 0 0 1-1.87 2 6.73 6.73 0 0 0 .03 1z" fill="#eac8b5"/><path d="M191.19 149.48l-.14.28a19.12 19.12 0 0 0-.18 3.24 4.8 4.8 0 0 0 1.47-.46 8.14 8.14 0 0 1 2.17-4.6c-.8-.82-1.86-1.46-2.46-.23z" fill="#eac8b5"/><path d="M116.55 286.14q.12-.77.22-1.54a3.24 3.24 0 0 0-.22 1.54z" fill="#eac8b5"/><path d="M191 154.87a19.33 19.33 0 0 0 .4 2.17c.37-.29.77-.6 1.18-.94a9.28 9.28 0 0 1-.28-1.52 6.21 6.21 0 0 1-1.3.29z" fill="#eac8b5"/><path d="M31.18 150.51a48.56 48.56 0 0 0 9.77 5.56c-5-5.72-10.05-11.72-17-15.06.14 1.13.33 2.26.54 3.38a50.77 50.77 0 0 1 6.69 6.12z" fill="#eac8b5"/><path d="M435.12 307.53c-4.68.16-9.82 1.67-14.05-.25a1.08 1.08 0 0 1 0-2 43 43 0 0 1 9.14-2.83c-2.07-.22-4.15-.32-6.23-.4a.43.43 0 0 1-.37-.53 3.21 3.21 0 0 1-.49-.27 15 15 0 0 1-2.85 2.47A29.21 29.21 0 0 1 424 303a.32.32 0 0 1 .08.64 40.43 40.43 0 0 0-7 2l.73.25c1 .34.35 1.73-.58 1.45s-1.61-.45-2.43-.66c-3.07 1.43-6.14 2.84-8.42 5.42l-.24.76h.09a.43.43 0 0 1-.21.82h-.12a10.11 10.11 0 0 0-.36 1.89c-.2 2.49.11 4.94.12 7.43v8.83c.92-1 2-1.89 3-2.8 2.72-2.41 5.8-3.4 9-4.59-.43-.27-.86-.55-1.28-.84a.59.59 0 0 1-.79.29c-4.68-1.92-6.64-7.59-4.84-12.28a.49.49 0 0 1 .39-.31l1.36-.12a.43.43 0 0 1 .11.85c-2.2.44-1.46 4.43-.84 6 .1.23.2.46.31.68-.24-1.8 1.62-3.6 2.92-4.73 3.07-2.65 10.86-7.19 14.84-4a4.09 4.09 0 0 1 1.09 5.13c-.36.87-1.86 1.78-.47 2.34a4.91 4.91 0 0 0 2.86.13c3-.63 8.1-2.71 10-5.67-2.64-1.24-5.8-1-8-3.23a1 1 0 0 1-.2-1.15z" fill="#eac8b5"/><path d="M439.37 305.86a9.6 9.6 0 0 1 5.74 3.3 31.83 31.83 0 0 0 4.52-5 52.74 52.74 0 0 0-6.54-.59c-1.23.79-2.54 1.43-3.72 2.29z" fill="#eac8b5"/><path d="M442.83 309.81a9.05 9.05 0 0 0-5.44-2.23l-.21.23c1.6 1.19 3.7 1.43 5.65 2z" fill="#eac8b5"/><path d="M435.51 305.57h1.32a16.81 16.81 0 0 1 2.25-1.54 10 10 0 0 1-2.26-.24 54.7 54.7 0 0 0-11.82 2.39c3.4.36 7.39-.58 10.51-.61z" fill="#eac8b5"/><path d="M124.41 474a135.91 135.91 0 0 1-2.27 15.81q-.16.71-.34 1.43a36.77 36.77 0 0 0 3.09-21.91c-.16 1.59-.32 3.14-.48 4.67z" fill="#eac8b5"/><path d="M446.51 301.72c1.34.11 2.7.27 4.05.48a5.63 5.63 0 0 0 .22-1.26 10.07 10.07 0 0 0-4.27.78z" fill="#eac8b5"/><path d="M438.51 268.68a52.38 52.38 0 0 1 6.29-9.75 58.41 58.41 0 0 0 6.89-9.45 57.75 57.75 0 0 0 4.79-10.62c1.22-3.86 2.27-7.8 4.15-11.4a96.63 96.63 0 0 0 8.19-23.58c-1.81 5.56-3.62 11.16-5.89 16.48-5.15 12-10.56 24.36-18.63 34.69a.56.56 0 0 1 0 .11 56.9 56.9 0 0 1-8.48 12.07c-1.52 1.62-3.33 3.26-4.2 5.36a50 50 0 0 0-2.14 7.28 55.11 55.11 0 0 1-2.32 6.87c.48-.82 1-1.63 1.49-2.42 3.35-5.23 6.95-10.1 9.86-15.64z" fill="#eac8b5"/><path d="M17.64 356.65c-2.41-10.39-3.11-22.46-6.14-33.34C13.16 335 14.32 346.83 18 358c-.15-.45-.26-.9-.36-1.35z" fill="#eac8b5"/><path d="M476.76 130.41c-.57-3.42-1.31-6.8-2.19-10.15.54 8.83 1.21 17.66 1.37 26.51.75-5.45 1.73-10.87.82-16.36z" fill="#eac8b5"/><path d="M238.06 201.92c-2.05 4.44-4.38 8.75-5 13.7a1 1 0 0 0 .94 1.08 101.13 101.13 0 0 1 4.38-15.17.86.86 0 0 0-.32.39z" fill="#87858e"/><path d="M250.47 249.3a6.42 6.42 0 0 1 .65 0 94.56 94.56 0 0 0 5.29-24.19 46.67 46.67 0 0 0 0-8.84l-.05.18-.19.74c.12-4.62.17-9.24.27-13.86a1 1 0 0 0-.59-1 16 16 0 0 0-8.39-1.83c-.05-.3-.1-.6-.15-.89a.75.75 0 0 0-1.49.19l.21 2.45a17.77 17.77 0 0 0 .76 14.44c.31.58 1.43.68 1.44-.18a114.11 114.11 0 0 0-.4-13.42l.13-.35c.4-1 4.95.52 5.43.69 2.18.76 1.29 6.68 1.34 8.78.07 3-1.11 22.66-2.83 29a73.06 73.06 0 0 0 1.25-17.62 6.1 6.1 0 0 1-1.52 1 73.61 73.61 0 0 1-1.52 20.23c-.09.4.26.59.57.52a132.74 132.74 0 0 1-7.68 18.45 113.49 113.49 0 0 1-18.11 26.7c-5.83 6.29-13 12.06-21.21 14.64 0-1.19-1.22-1-1.24.36-.21.06-7.4 1.14-10.77.68-.6-.08-.7.82-.12.94a26 26 0 0 0 10.86-.21c-.37 21.66-.39 43.42-5.32 64.64a107.06 107.06 0 0 1-4 13.2 200.48 200.48 0 0 0 3.94-29.64c0-.72-1-.89-1.11-.15-1.28 11.46-2.16 23.89-5.15 35.47a87 87 0 0 1-21.71 30c-31.76-25.76-56.55-62.12-95.51-77.23a.85.85 0 0 0-.22-.05c9.52-11.33 22.14-20.25 31.91-31.14.46-.51-.37-1.16-.83-.66-13.89 15-32.17 26.22-41.54 45.1a56 56 0 0 0-5.09 18l-.74.31c-2.39-.56-5.48-.06-6.49 2.23a60.36 60.36 0 0 1-7.26 1.56 53.39 53.39 0 0 1-9.39.5c-1.33 0-3.19.17-4.21-.92-.68-.72-1.3-1.49-1.9-2.27a17.73 17.73 0 0 0 3.42 1.68c7.13 2.59 15-.38 21.39-3.72.44-.23.16-1-.29-.74-6.77 3.47-15 6.35-22.3 2.78a16.12 16.12 0 0 1-4.65-3.52c-4.05-6.7-6-14.66-7.41-22.3-2.18-11.54-3.24-24-7.78-34.78-.15-.84-.3-1.69-.47-2.53-.87-4.45-1.88-9.15-4.23-13.06-.36-.6-1.38 0-1.06.6A41 41 0 0 1 8 310.55a40.54 40.54 0 0 0-5.06-7.23v-.24c-.12-1.08-.28-2.14-.46-3.21a.69.69 0 0 0-1.36.17c0 .5.08 1 .12 1.49-.79-.39-1.68.9-.88 1.65.38.36.75.73 1.11 1.11.65 7.43 1.49 14.84 2 22.3.57 8.83 1 17.67 1.48 26.5.37 6.48.4 13.13 1.71 19.5a76.34 76.34 0 0 0 4.12 13.11 79.84 79.84 0 0 0 16.37 25.87c6.05 6.21 14.19 11 23 9.57a23 23 0 0 0 9.07-3.9q.38 3.13.79 6.26a.73.73 0 0 0 1.45-.18l-.2-2c.23.75.48 1.49.76 2.22a.38.38 0 0 0 .11.15c-2 5.55-4.3 11-6.67 16.36-2.86 6.51-6 12.82-7.71 19.77s-1.46 14.27-.48 21.28a100.51 100.51 0 0 0 9.11 30.36c4.25 8.7 9.58 17.7 17.18 23.79a18.61 18.61 0 0 0 7.92 3.82.8.8 0 0 0 .86.14 11 11 0 0 0 7.66-1.68.74.74 0 0 0 .86-.63c4.93-4 4.6-12 4-17.71-1.59-15.27-8.22-29.08-12.42-43.62 4-2.05 8.05-4.11 12-6.24a55 55 0 0 0 1.66 17.53c1.48 5.48 4.14 11.52 9.6 13.81a6.14 6.14 0 0 0 3.23 1.65c2.33.42 4.15-1.36 5.22-3.24 2-3.51 1.91-8.52 1.19-12.36a.65.65 0 0 0-1.3.16c.08 3.09.85 14.38-4.88 13.68-2-.24-3.34-2.52-4.07-4.17-1.53-3.43-1.6-7.51-1.39-11.2a.46.46 0 0 0-.92-.13c-.44 3.12-.62 8.25.8 12.13-7.13-6.43-7.92-19.59-8-28.49 8.84-4.77 17.46-10 25.17-16.48A66 66 0 0 0 140.66 424a.69.69 0 0 0 .85-.35c4.24-8.29 1.29-19.86-3.61-27.18-.27-.4-.84 0-.59.45a32.15 32.15 0 0 1 4.76 15.68.88.88 0 0 0-.46.65c-2.72 15.61-11.22 28.35-23.18 38.23-11.35 9.38-24.71 15.85-37.69 22.5a1.12 1.12 0 0 0-.58 1.4c2.17 7.73 5.3 15.18 7.7 22.84 2.87 9.18 6 19.41 5 29.17a13.14 13.14 0 0 1-2.25 6.61c-.33-3.44-.83-6.89-1.08-10.33a44.35 44.35 0 0 0-2.19-12.08c-.2-.54-1.11-.32-1 .25a70.89 70.89 0 0 1 1.75 13c.19 3.47.1 7.25.94 10.67a7.22 7.22 0 0 1-.9.57 9.3 9.3 0 0 1-5.31 1c0-1.63-.18-3.3-.23-4.92l-.24-7.16a.42.42 0 0 0-.84 0l-.24 7.15c-.05 1.52-.24 3.08-.24 4.61a15.8 15.8 0 0 1-4.6-2.06c-8.32-5.35-13.89-15.41-18.2-24.13A88 88 0 0 1 51.44 491c-2.56-11.11-3.55-22.31-1.12-33.54 1.16-5.36 3.56-10.34 5.72-15.33s4.33-10.18 6.24-15.37c3.05-8.29 6.4-17.79 5.35-26.79a.41.41 0 0 0-.81.1c.42 6.67-1.36 13.32-3.38 19.59-.32 1-.65 2-1 2.94-1.76-5.24-1.91-10.83-1.78-16.32s1.08-11 .59-16.35a.59.59 0 0 0-1.17 0c-.44 4.4-.55 8.95-.57 13.43-.34-4.49-.59-9-.66-13.48a111.7 111.7 0 0 1 .61-14.59c.56-.27 1.12-.55 1.67-.84.82-.43.31-1.78-.54-1.37l-.89.41A57.94 57.94 0 0 1 64.33 357a61.3 61.3 0 0 1 8.18-12.87.72.72 0 0 0 .47.53c38.8 15 63.19 51.42 95.29 76.45-1.62 1.4-3.29 2.74-5 4a114.06 114.06 0 0 1-23.55 13h-.31a.23.23 0 0 0-.17 0h-.23a23 23 0 0 1-3-.16.41.41 0 0 0-.43.56h-.11a1.29 1.29 0 0 0-.85 1.18c0 .63.79.86 1.24 1a.56.56 0 0 0 .7-.48q1.69-.62 3.37-1.28c6.76-.25 13.44-3.12 19.22-6.47a83 83 0 0 0 12.48-8.85l1.41 1a.48.48 0 0 0 .58-.76l-1.22-.94a72.67 72.67 0 0 0 8.57-8.94c4.79-6 7.77-13.16 9.92-20.53 8.31-17.48 11-37.4 12.08-56.6.58-10.1.81-20.26.71-30.38 12.58-3.46 23.31-15.24 30.55-25.31a129.51 129.51 0 0 0 16.42-30.71h-.21c-.65.03-.66-1.14.03-1.14zM17.64 356.65c.1.45.21.9.32 1.34-3.64-11.17-4.81-23-6.46-34.68 3.03 10.88 3.73 22.95 6.14 33.34zM59 416.26a.46.46 0 0 0-.3.07c-20.42 13.44-37.88-11.86-45.33-28.39a80.93 80.93 0 0 1-4.89-14.06C7.12 368.08 7 362 6.68 356.11c-1-16.59-1.65-33.2-3.41-49.73A39.54 39.54 0 0 1 9 316.11q.2 1.18.38 2.35c1.31 8.1 2.26 16.26 3.66 24.34 1.52 8.75 3.64 20.73 9.74 28.37a38.87 38.87 0 0 0 5.93 8.5c1.44 1.55 4 1.14 5.93 1.19a55.27 55.27 0 0 0 8.9-.56 48.48 48.48 0 0 0 6.88-1.46.63.63 0 0 0 .77.2l3.81-1.76c.86-.34 1.72-.7 2.57-1.08a114.19 114.19 0 0 0-.54 12.1A240.62 240.62 0 0 0 59 416.26zm102.2 13.86c-5.48 3.52-12 6.79-18.58 7.76a103.06 103.06 0 0 0 26.48-16.1l1.68 1.28a88.89 88.89 0 0 1-9.53 7.06zm19.68-17.75a63.17 63.17 0 0 1-9.32 10l-1.64-1.3a83.72 83.72 0 0 0 18-21.8l.21-.38a56.43 56.43 0 0 1-7.2 13.48z" fill="#87858e"/><path d="M3.6 298.26c2.09 0 1.65-3.28-.41-3.28s-1.65 3.28.41 3.28z" fill="#87858e"/><path d="M184.58 416.52c-2.52 7.61-4.12 15.63-7.75 22.81-3.73 7.37-11.15 13.29-19.47 13.79-.8 0-1.6.06-2.4 0a41.28 41.28 0 0 0 4.38-.88c9.32-2.42 16.15-9.06 17.94-18.82.09-.52-.69-.62-.79-.11-2 9.79-9.15 15.81-18.47 18a42.15 42.15 0 0 1-10.93.93c-3.52-.64-7-1.47-10.46-2-1.07-.15-2.57-.4-4.13-.48a4.72 4.72 0 0 1-.82-.52.91.91 0 0 0-1.51.54c-2.34.2-4.4 1.06-4.83 3.5a.76.76 0 0 0 1.12.82 26.27 26.27 0 0 0-2.22 7.89 25 25 0 0 0-4.32-6.64.5.5 0 0 0-.89.37 28.22 28.22 0 0 1 .12 4.29c0 .59.85.72.9.12a23.86 23.86 0 0 0 0-2.86 29.19 29.19 0 0 1 3.77 7.77c-.17 1.62-.28 3-.39 3.86-.67 5.55-1.19 11.12-2.14 16.64a43.17 43.17 0 0 1-2.57 9.64c-.93 1.48-1.84 3-2.61 4.49-.47.93.88 1.6 1.49.88a15.34 15.34 0 0 0 1.93-2.92c7-8.37 9.34-21.8 5.85-32.61a69 69 0 0 1 .89-5.14c.6-2.8 1.58-6.89 4.85-7.43a.72.72 0 0 0 .6-.67l1.36.07c.89 0 1.77.12 2.65.22.6.19 1.19.36 1.73.47a56.73 56.73 0 0 0 7.16.94h.56c5.56.92 11.3 1.87 16.77.21 16.36-5 19.34-22.28 23.56-36.82.24-.58-.71-1.01-.93-.35zm-62.78 74.75q.18-.72.34-1.43a135.91 135.91 0 0 0 2.27-15.84c.16-1.55.32-3.11.49-4.66a36.77 36.77 0 0 1-3.1 21.93z" fill="#87858e"/><path d="M200.76 149.76a5.25 5.25 0 0 0-3.93-2.16 1 1 0 0 0-.89-.61 4 4 0 0 0-3.72-1.59 19.9 19.9 0 0 1 2.43-4.41c.66 0-.12-1.77-1-1.78a82.38 82.38 0 0 0-8.13-4.34 4.93 4.93 0 0 0-.58 1.25c-4.08-2.8-23-27.28-31.06-33.82-10.07-8.14-22.53-6.54-34.35-4.39-3.2.58-18.81.57-21.06-.16-4.89-1.59-8.17-5.36-10.49-9.87a137.08 137.08 0 0 1-5.32-13 .8.8 0 0 0-1.52.4c.12 7.15.61 14.5-.51 21.6-.86 5.46-3.64 9.83-7.26 13.84-5.92 6.56-12.7 11.8-17.63 19.3-5.2 7.92-8.78 16.81-13.53 25-5.49-6.1-11.21-12.55-18.79-15.82a.7.7 0 0 0-1 .74c.11 1.1.27 2.19.45 3.27q-1.53-1.08-3.15-2.06a.93.93 0 0 0-1.41 1.08c2.75 8.5 5.76 16.86 7.62 25.63a75.24 75.24 0 0 1 .75 26.36c-1.2 8.42-1.31 16.24.71 24.55a103.48 103.48 0 0 0 9 22.68c6.84 13.29 15.81 26.6 28.39 34.81 10.74 7 23.75 9.84 36.39 9a58.07 58.07 0 0 0 15.87-3.34c0 .16 0 .33-.05.49-1.35 1.22-1.53 3.5-.73 5.35q-.55 3-1.37 5.94a70.93 70.93 0 0 1-10.38 21c-.33.47.36 1 .7.55A72.1 72.1 0 0 0 116 294.17c.49-1.62.89-3.26 1.23-4.91a4.56 4.56 0 0 0 .69.61c6 4.25 12.77-4.08 16.62-7.55a196.76 196.76 0 0 1 19.62-15.45c3.38-2.34 6.86-4.46 10.38-6.5a1.07 1.07 0 0 1 .5-1.41c3.75-1.94 7.72-3.45 11.44-5.45a.58.58 0 0 0-.66-.88c-11 4.83-21.42 12.12-31 19.44-4.83 3.7-9.45 7.68-13.91 11.84-2.52 2.35-5 5-8.47 5.71a5.37 5.37 0 0 1-5-1.55q.42-2.29.7-4.61c0-.22 0-.44.07-.66a3 3 0 0 1 1.36-.48c.44 0 .45-.78 0-.79a4.33 4.33 0 0 0-1.25.15v-.25a47.29 47.29 0 0 0 12-6.81.92.92 0 0 0 .19-1.32q-1.86.7-3.77 1.25a64.87 64.87 0 0 1-8.23 4.13q0-.68.06-1.37c0-.38 0-.76.08-1.13l-1.41.14a12.3 12.3 0 0 1 .06 2.85 57.65 57.65 0 0 1-27.25 3.67c-14.48-1.54-27.2-8.76-36.8-19.84a115.6 115.6 0 0 1-23.42-43.8 56.81 56.81 0 0 1-1.94-12.64c-.2-4.74.66-9.43 1.3-14.1 1.14-8.4.39-16.57-1.28-24.83A165 165 0 0 0 21 144q1.24.77 2.42 1.62c2.8 12.92 10 24.39 14.1 36.93.32 1 .62 2 .91 3a21.54 21.54 0 0 0-.06 4.35.2.2 0 0 0 .4 0l.29-2.12q.4 1.47.78 2.94-.16-3.08-.07-6.16c-.07-.24-.15-.48-.23-.72.18-1.75.3-3.51.31-5.32a46 46 0 0 1 .91-6c.26-1.86 1.13-6.85-.78-8.52-.23-.52-.46-1-.71-1.54L39 162a50.43 50.43 0 0 0-4.72-7.7 49.67 49.67 0 0 0 7.89 3.52.59.59 0 0 0 .68-.87l.05-.06c5.21-8.66 9-18.12 14.53-26.58 4.91-7.52 12-12.78 17.83-19.44a28 28 0 0 0 6.75-13.32c1.1-5.74.93-11.79.74-17.7 2.87 7.64 6.11 15.56 13.92 18.93a24.27 24.27 0 0 0 3.86 1.29h-1.22a76.73 76.73 0 0 0-12.27.6.5.5 0 0 0 0 1c4.23.66 18.9-.49 20-.83 9.61.14 19.53-3.54 29-3.23 23.4.77 52.23 44 52.61 44.55.88 1.32 2.64.56 2.94-.77 0-.11.86-.21 1.18-.41h.94a20.52 20.52 0 0 0-2.68 4.91 6.36 6.36 0 0 0-1.13 2l-2.64 5.28a.93.93 0 0 0 .49 1.2c.66.29 2.24 2.76 2.51 3.88.12.49 7.34-6.2 6.7-8.88a5.79 5.79 0 0 1 2.4 1.35 5.42 5.42 0 0 1 1.5 4 .47.47 0 0 0 .32.52 7 7 0 0 1 .27-1.08c.24-.36.1-3.37-.69-4.4zm-84.21 136.38a3.24 3.24 0 0 1 .22-1.54q-.1.77-.22 1.54zM38 163.88a.46.46 0 0 0 .24.49c.12.26.25.51.37.77a.81.81 0 0 0 .86.5c1.08 2.52-.2 7.81-.49 9.62a23.54 23.54 0 0 0-.33 5v1c-1-3-2.11-5.9-3.39-8.81-3.08-7-6.56-13.83-9-21.13q-.73-2.2-1.26-4.45c.87.7 1.71 1.43 2.52 2.19a.86.86 0 0 0 .23 1A45.84 45.84 0 0 1 38 163.88zm-6.85-13.36a50.77 50.77 0 0 0-6.65-6.12c-.21-1.12-.4-2.25-.54-3.38 6.9 3.34 11.92 9.34 17 15.06a48.56 48.56 0 0 1-9.78-5.57z" fill="#87858e"/><path d="M180.42 255.81h.09l-1 .42c-3.68 1.48-7.52 2.75-11.1 4.47a.39.39 0 0 0 .28.72c3.49-.93 6.9-2.32 10.32-3.48 3.71-1.26 7.77-2.24 11.26-4.06.74-.38.53-1.74-.39-1.53a29.21 29.21 0 0 0-3.3 1 7.71 7.71 0 0 1-6.16 2.46z" fill="#87858e"/><path d="M227.29 217l-.44-.41a106.66 106.66 0 0 1-13.58 17.13c-6.92 7.28-15.88 15.36-25.94 18.19a4.28 4.28 0 0 1-.54 1.16 37.83 37.83 0 0 0 9.27-3.92 80.56 80.56 0 0 0 17.09-13.5 107.5 107.5 0 0 0 14.15-17.49 69.38 69.38 0 0 0 4.94-8.72c0 .16 0 .31.08.46a.44.44 0 0 0 .88-.11 11.16 11.16 0 0 1 .07-2.77 31.61 31.61 0 0 0 1.1-3.47 13.41 13.41 0 0 1 .92-1.57c1.45-2.12 3.54-2.93 5.56-4.27.63-.42.14-1.32-.51-1.27-2.79.18-5 2.06-6.35 4.54a.46.46 0 0 0-.35.35c-.07.29-.17.57-.25.85a14.87 14.87 0 0 0-1 3 58.88 58.88 0 0 1-5 10.41l.52.52c.56.49-.09 1.39-.62.89z" fill="#87858e"/><path d="M185.68 251a9.78 9.78 0 0 0-4 1.62l-1.62 1.38h.21c2.04.18 5.11-.69 5.41-3z" fill="#87858e"/><path d="M199.76 142.31a.49.49 0 0 0-.19.45.37.37 0 0 1 .19 0 .48.48 0 0 1 .42.65c17.17 12.47 17.28 39.5 13.21 58.4a91.54 91.54 0 0 1-12.22 29.46 87.43 87.43 0 0 1-15.52 17.95 6.79 6.79 0 0 1 1 0 .92.92 0 0 1 .79.8 5.07 5.07 0 0 1 0 .91 87.9 87.9 0 0 0 15.76-19 93.46 93.46 0 0 0 12.23-30.63q.41-2 .73-3.95a2 2 0 0 0-.3-.12c-.75-.23-.37-1.32.33-1.28h.18a81 81 0 0 0-.45-27.29c-3.49-17.96-15.01-24.92-16.16-26.35z" fill="#87858e"/><path d="M198.52 176a13.84 13.84 0 0 1-13.15 3.09.39.39 0 0 0-.29.73c9.38 4 22.62-6.15 19.63-16.78-.22-.77-1.3-.39-1.26.33.29 5.13-1.08 9.17-4.93 12.63z" fill="#87858e"/><path d="M139.09 182.12q-1.19 6.16-2.28 12.33l-.05-.06c-.42-3.81-4.89-10.94-4.59-10.34a29.55 29.55 0 0 1 2.37 6.6h-.18c-.29-.26-1.82-1.75-2.43-1.24-3.59 3-1.06 12.23-1.09 12.39-.1.43 2.41 4.11 2.88 4.4-.06.1 4.17 1.1 4.85.21 1.3-1.71 1.29-4.6 1-6.61a9.9 9.9 0 0 0-1.53-3.82 124.19 124.19 0 0 0 1.05-13.86z" fill="#75747c"/><path d="M247.4 197.06a.94.94 0 0 0 0-1.86c-7.13-1.17-11.2 9-7.86 14.41.3.48 1.13 0 .86-.49a7.93 7.93 0 0 1 .3-8c1.51-2.56 3.93-3.58 6.7-4.06z" fill="#87858e"/><path d="M169 263.55c.52-.33-.05-1.09-.57-.78a64.17 64.17 0 0 0-23.36 25.15c-5.36 10.19-8.72 23-.51 32.57 6.91 8.07 18.67 11 28.7 11.67 10.93.77 23.74-3.49 27.19-15.24.18-.62-.72-1-.94-.4-4 12-17 15.19-28.08 14.21-9.68-.86-20.47-4.16-26.84-12.1-7.56-9.42-2.73-22.43 2.35-31.81A64 64 0 0 1 169 263.55z" fill="#87858e"/><path d="M218 202.25a27.87 27.87 0 0 0 1.57 5.48c1.46 3.51 4.56 6.28 7.27 8.85l.6-1c-2.51-2.52-5-5.1-6.56-8.38s-1.57-7.24-2.7-10.71a.76.76 0 0 0-.6-.47 6.93 6.93 0 0 0-1.15-.14c-.07.46-.13.93-.21 1.39 1.56.73 1.47 3.34 1.78 4.98z" fill="#8c8a99"/><path d="M227.29 217c.53.51 1.19-.39.68-.9l-.52-.52-.6 1z" fill="#8c8a99"/><path d="M215.92 197.14a2 2 0 0 1 .3.13l.21-1.39h-.18c-.7-.06-1.08 1.03-.33 1.26z" fill="#8c8a99"/><path d="M479.92 331.52c-.7-6-2.33-11.95-5.82-16.92-4.9-7-13.19-10.52-21.62-12.08a7.35 7.35 0 0 0 .2-2.55 1 1 0 0 0-.83-.85 9 9 0 0 0-4.47.38c.09-.17.17-.34.25-.53a.9.9 0 0 0-.48-1.16 6.1 6.1 0 0 0-7.24 1.75c-.53.64.44 1.35 1 .78a4.46 4.46 0 0 1 4.69-1.19 7.14 7.14 0 0 1-1.32 1.58c-.62.27-1.24.53-1.88.77h-1.58c-1.25 0-2.5 0-3.76.12a1.8 1.8 0 0 0-1.76-1.61 1.3 1.3 0 0 0-1.36 1.46c-.44-.09-.88-.17-1.32-.22a47.12 47.12 0 0 0-7.66-.09 2.56 2.56 0 0 1-1.2-.64c.1-.13.2-.26.29-.39 2-3 2.29-7 4-10.17a88.64 88.64 0 0 1 7.15-10.83 79 79 0 0 0 6-10.35c3.63-7 9.33-12.28 13.11-19.16s5.13-15 8.77-22a95.88 95.88 0 0 0 7.4-20.95c1.92-7.81 3-15.88 4.5-23.77a107.83 107.83 0 0 0 2.42-24.52 63.24 63.24 0 0 1 .22-10.82c.45-3.34 1.22-6.58 1.45-10 .42-6.13-1.16-12.27-2.74-18.14-1-3.66-2.16-7.27-3.46-10.82-1-4.39-2.16-8.73-3.15-13.18-1.64-7.33-3.84-14.35-8.11-20.56s-10-11.18-14.82-16.84c-5.25-6.11-10.53-12.1-16.26-17.75a111.14 111.14 0 0 0-18.87-14.6c-6.49-4.13-12.49-9-19-13a49.21 49.21 0 0 0-9.23-4.23c-3.9-1.42-7.6-3.29-11.59-4.48a97.22 97.22 0 0 0-25-3.9c-8.22-.2-16.45 1.54-24.55 2.72a144.83 144.83 0 0 0-23.7 5.08 152.59 152.59 0 0 0-21.86 9.31c-6.47 3.27-12.49 7.31-18.89 10.69-5.5 2.9-11.09 5.75-15.62 10.15a22.05 22.05 0 0 0-2.1 2.4A123.76 123.76 0 0 0 226.3 49c-5 3.75-7.84 10-11.59 14.89-4.39 5.75-9.16 11.16-12.25 17.79a49.73 49.73 0 0 0-3.06 10.26c-.85 3.83-2.11 7.56-2.94 11.38-1.25 5.79-.83 11.81-.7 17.73l1.5-2.09c-.08-6.13-.44-12.2 1.39-18.15 2.08-6.8 2.46-13.94 5.6-20.41 3-6.14 7.63-11.32 11.78-16.65 3.82-4.91 6.54-10.6 11.66-14.32 2.69-1.95 5.77-3.47 8.62-5.16l1.61-1c-.52.74-1 1.47-1.61 2.18-2.25 2.86-4.94 5.34-7.35 8.07-4.94 5.59-7.22 12.7-9.85 19.58-1.48 3.88-3 7.75-4.63 11.55-1.51 3.48-3.5 6.72-4.42 10.45s-1.29 7.51-1.92 11.28c-.69 4.08-1.63 8.11-2.27 12.2a156.76 156.76 0 0 0-1.75 21.78 1.72 1.72 0 0 1 0 2.47v.2c0 .77 1.19 1 1.19.16a166.4 166.4 0 0 1 2-25.43c.65-4.08 1.61-8.1 2.31-12.17.74-4.35 1.12-8.69 2.61-12.88 1.38-3.89 3.58-7.53 5.14-11.36 1.65-4 3.2-8.11 4.74-12.19a58.69 58.69 0 0 1 5.21-11.12c2.13-3.32 5.08-6.05 7.75-8.9 2.27-2.42 4-5.17 6-7.75 1.88-1.09 3.77-2.17 5.69-3.21 3.06-1.66 6.22-3.12 9.23-4.87 2.66-1.55 4.44-4.23 7.67-4.71a.6.6 0 0 0-.15-1.19c-2.65.2-4.58 1.87-6.59 3.5-3.15 2.54-7.11 4.11-10.65 6l-2 1.09a43.67 43.67 0 0 1 5.73-4.1c5.81-3.65 12.06-6.55 17.94-10.1 14.65-8.8 30.73-15.34 47.53-18.18 8.24-1.39 16.66-2.76 25-3.48 9-.78 18.06.76 26.79 2.79a69 69 0 0 1 11.73 4c3.66 1.57 7.43 2.72 10.94 4.66 6.87 3.79 12.9 9.16 19.52 13.39a116.23 116.23 0 0 1 18.92 14.44c6.07 5.9 11.56 12.27 17.07 18.7 4.87 5.7 10.45 10.71 14.72 16.93 3.73 5.42 5.42 11.68 6.94 18-2-4.21-4.18-8.35-6.46-12.4-.4-.72-1.63 0-1.24.71a200.07 200.07 0 0 1 10.14 21.58 85.34 85.34 0 0 1 2.62 15.42c.44 7.54 1 15.07 1.26 22.62s.22 15.12.19 22.67a80.45 80.45 0 0 1-1.13 10.44c-.5 3.65-.54 7.32-1.2 10.94-1.2 6.67-4 12.86-6.1 19.25-2.15 6.55-4.43 12.9-7.18 19.21-5.28 12.1-11.34 23.82-20 33.79a1 1 0 0 0 .92 1.58c-2.06 2.73-4.27 5.33-6.54 7.9-3.73 4.22-3.87 10.33-5.55 15.49-.95 2.9-2.23 5.66-3.07 8.61-.46 1.62-.71 3.28-1.05 4.93a8.83 8.83 0 0 1-.73 1.42c-1.77 2.75-4.66 4.23-7.62 5.61-4-1.09-8-1.86-11.75-3.57-5.26-2.4-8.76-7.37-12.46-11.64-.45-.52-1.31.1-.86.65 3.54 4.39 6.76 9.05 11.66 12 3.35 2 7.13 2.89 10.91 3.74-.44.21-.87.43-1.29.65a9 9 0 0 0-2.16 1.31 13.36 13.36 0 0 0-1.27 1v-.32a1.23 1.23 0 0 0-1-1.34c-2.86-.7-5.15.13-7.87 1-2.05.65-4.23.43-6.35.43a25.24 25.24 0 0 0-5.63.82 58.4 58.4 0 0 1-11.46 1.18c-4.15.12-7.77-.69-11.79-1.54-3.85-.81-7.67-.1-11.5-1.26a78.74 78.74 0 0 0-10.28-2.65c-3.74-.61-7.35-1.8-11-2.7s-7.28-1.58-10.91-2.42c-7.52-1.74-14-5.09-20.78-8.63-7.27-3.77-14.52-7.7-20.9-12.94-5.93-4.88-10.5-11.11-16.16-16.24a18.63 18.63 0 0 1-4.59-5.62c-.66-1.41-.75-2.95-1.54-4.27-1.1-1.84-2.23-2.93-4.2-3.12-.14.4-.29.8-.44 1.21 3.65.42 3.87 4.85 5.08 7.61 1.41 3.22 4.86 5.71 7.14 8.25 5 5.51 9.91 11 15.77 15.56 6.12 4.76 13.13 8.35 20 11.91s13 6.58 20.39 8.35c7 1.68 14 3.57 21 5 4 .8 7.69 1.79 11.58 3 3.41 1 6.78.56 10.25 1 3.73.47 7.12 1.69 10.94 1.74a59.28 59.28 0 0 0 11.06-.57c1.82-.32 3.61-.81 5.44-1.13A37.56 37.56 0 0 1 395 311c2.9-.06 5.6-1.43 8.4-1.58 0 1-.09 2.09-.14 3.13a1.1 1.1 0 0 0 .23.69c-.1.36-.19.73-.26 1.1a31.37 31.37 0 0 0-.15 7c.24 5.1.15 10.24.07 15.35a7.1 7.1 0 0 0 0 1.21c.11 1.36 2.32 1.41 2.37 0v-1.36c.42-2.9 3.66-5.24 5.72-7 2.58-2.15 6.05-2.75 9.07-4a1.06 1.06 0 0 0 .24-1.8 28.22 28.22 0 0 1-5.57-4.12c-2-2.1 1.56-4.43 3.08-5.5a18.7 18.7 0 0 1 6.64-2.77 6.18 6.18 0 0 1 3.58.1c2.17.8.34 3.53-.44 4.55a1 1 0 0 0-.13.95c2.86 6.68 15.84-.58 17.72-5.15a1 1 0 0 0 .07-.34 1.17 1.17 0 0 0 .27-.22c1.87-2.13 4.4-4.24 5.8-6.81a48.38 48.38 0 0 1 9.8 3 25.31 25.31 0 0 1 14 14c2.47 6.16 2.77 13.09 3.1 19.66.39 7.85 0 15.16-2.55 22.66a63.14 63.14 0 0 1-11.26 19.76c-9.92 12.14-23.52 20.82-36.13 29.73-11.81 8.58-23.21 17.76-32.93 28.76-8.9 10.12-15 22.27-12.9 36.14 1 6.9 2.44 13.22 7.21 18.5s11 8.15 17.27 10.8c6.81 2.9 13.73 4.88 21.17 4.15a39.15 39.15 0 0 0 18.79-7.45c6.12-4.51 8.41-11.53 8.75-19 0-1-1.42-1.22-1.51-.21-.54 6-2 11.75-6.34 16.05-5.12 5.05-13 7.94-19.92 8.83-8.26 1.07-16.12-2.11-23.52-5.44-7.14-3.21-14.18-7.69-17.53-15.18-1.47-3.27-2-6.92-2.53-10.45a39.14 39.14 0 0 1-.21-11.7c1.05-7.2 4.74-13.71 9-19.41 8.88-11.87 20.81-21.5 32.68-30.06 23.37-16.84 51.87-34 54.7-66.24.59-6.41-.04-13.33-.79-19.81zm-3.16-201.11c.91 5.49-.07 10.91-.82 16.36-.16-8.85-.83-17.68-1.37-26.51.88 3.35 1.63 6.74 2.19 10.15zm-47.33 149.46a50 50 0 0 1 2.14-7.28c.87-2.1 2.68-3.75 4.2-5.36a56.9 56.9 0 0 0 8.48-12.07.56.56 0 0 0 0-.11c8.06-10.33 13.48-22.65 18.63-34.69 2.28-5.32 4.08-10.92 5.89-16.48a96.63 96.63 0 0 1-8.19 23.58c-1.88 3.6-2.94 7.54-4.15 11.4a57.75 57.75 0 0 1-4.79 10.62 58.41 58.41 0 0 1-6.89 9.45 52.38 52.38 0 0 0-6.29 9.75c-2.91 5.54-6.51 10.42-9.9 15.64-.51.79-1 1.6-1.49 2.42a55.11 55.11 0 0 0 2.36-6.87zm7.38 23.94a10 10 0 0 0 2.26.24 16.81 16.81 0 0 0-2.25 1.54h-1.32c-3.12 0-7.11 1-10.52.61a54.7 54.7 0 0 1 11.84-2.4zm6 6c-2-.56-4-.83-5.65-2l.21-.23a9.05 9.05 0 0 1 5.46 2.23zm-9.48 7.8a4.91 4.91 0 0 1-2.86-.13c-1.39-.55.1-1.46.47-2.34a4.09 4.09 0 0 0-1.09-5.13c-4-3.22-11.76 1.32-14.84 4-1.3 1.12-3.16 2.92-2.92 4.73-.11-.22-.21-.45-.31-.68-.63-1.54-1.36-5.53.84-6a.43.43 0 0 0-.11-.85l-1.36.12a.49.49 0 0 0-.39.31c-1.8 4.69.16 10.36 4.84 12.28a.59.59 0 0 0 .79-.29c.42.29.85.57 1.28.84-3.22 1.2-6.3 2.18-9 4.59-1 .91-2.09 1.81-3 2.8v-8.83c0-2.49-.32-4.94-.12-7.43a10.11 10.11 0 0 1 .36-1.89h.12a.43.43 0 0 0 .21-.82h-.09l.24-.76c2.29-2.57 5.35-4 8.42-5.42.82.2 1.63.42 2.43.66s1.54-1.11.58-1.45l-.73-.25a40.43 40.43 0 0 1 7-2 .32.32 0 0 0-.09-.67 29.21 29.21 0 0 0-3.74.78 15 15 0 0 0 2.85-2.47 3.21 3.21 0 0 0 .49.27.43.43 0 0 0 .37.53c2.08.08 4.16.18 6.23.4a43 43 0 0 0-9.14 2.83 1.08 1.08 0 0 0 0 2c4.23 1.92 9.37.41 14.05.25a1 1 0 0 0 .24 1.17c2.17 2.24 5.34 2 8 3.23-1.9 2.9-7.05 5.01-10 5.61zm11.76-8.44a9.6 9.6 0 0 0-5.74-3.3c1.18-.82 2.48-1.5 3.72-2.25a52.74 52.74 0 0 1 6.54.59 31.83 31.83 0 0 1-4.5 4.95zm5.46-7c-1.36-.2-2.71-.36-4.05-.48a10.07 10.07 0 0 1 4.28-.78 5.63 5.63 0 0 1-.21 1.29z" fill="#fff"/><path d="M250.47 249.3c-.69 0-.68 1.17 0 1.22h.21c.15-.4.29-.8.44-1.21a6.42 6.42 0 0 0-.65-.01z" fill="#8c8a99"/><path d="M199.86 143.57a.32.32 0 0 0 .32-.2l-.41-.31a.45.45 0 0 1-.2-.29c-.32.17-.17.8.29.8z" fill="#8c8a99"/><path d="M199.76 143.06l.41.31a.48.48 0 0 0-.42-.65.37.37 0 0 0-.19 0 .45.45 0 0 0 .2.34z" fill="#8c8a99"/><path d="M178.45 252.4c-.64.39-1.3.75-2 1.11a.46.46 0 0 1-.11.1c-3.94 2.29-7.91 4.48-11.83 6.75a.94.94 0 0 0 1.26.52 97.86 97.86 0 0 0 11.95-5.67c1.25-.69 2.57-1.71 3.94-2.57q2-1.72 3.94-3.47c-2.6.24-4.95 1.9-7.15 3.23z" fill="#8c8a99"/><path d="M187.33 251.9a4.43 4.43 0 0 0 .17-1c-.55.48-1.1 1-1.66 1.41.5-.14 1-.31 1.49-.41z" fill="#8c8a99"/><path d="M181.77 255.32c1.58-.67 3.18-1.36 4.79-1.94l.23-.31a21 21 0 0 1-2.53.47q-1.26.93-2.49 1.78z" fill="#8c8a99"/><path d="M180 254c-.94.14-1.07 1.68 0 1.76h.37A1 1 0 0 1 180 254z" fill="#8c8a99"/><path d="M176.49 253.51c-3.72 2-7.7 3.51-11.44 5.45a1.07 1.07 0 0 0-.5 1.41c3.92-2.28 7.89-4.46 11.83-6.75a.46.46 0 0 0 .11-.11z" fill="#8c8a99"/><path d="M185.84 252.28c.56-.46 1.11-.93 1.66-1.41a5.07 5.07 0 0 0 0-.91.92.92 0 0 0-.79-.8 6.79 6.79 0 0 0-1 0q-1.93 1.76-3.94 3.47a9.78 9.78 0 0 1 4-1.62c-.29 2.29-3.36 3.15-5.4 3h-.21a1 1 0 0 0 .38 1.76 7.71 7.71 0 0 0 6.14-2.44c-1.62.58-3.21 1.27-4.79 1.94q1.27-.85 2.49-1.78a21 21 0 0 0 2.53-.47 4.28 4.28 0 0 0 .54-1.16c-.61.14-1.11.31-1.61.42z" fill="#8c8a99"/><path d="M36 218c-.44-1.8-.82-3.62-1.16-5.44 0-2.61 0-5.23-.06-7.84 0-.23-.39-.23-.4 0-.06 1.51-.08 3-.08 4.54-.19-1.93 0-4.29-1.12-5.81a.21.21 0 0 0-.37.15l.05.31a.47.47 0 0 0-.56.31 3.33 3.33 0 0 0-.08 1.32 39 39 0 0 0 .33 4.57 44.31 44.31 0 0 0 2.21 8.2c.24.69 1.46.37 1.24-.31z" fill="#87858e"/><path d="M42.42 217.17c-1.33-5.21-2.23-10.68-4.14-15.71-.28-.73-1.29-.31-1.2.31A76.06 76.06 0 0 0 41 217.53c.27.79 1.63.47 1.42-.36z" fill="#87858e"/><path d="M39 237.47c-1.07-3.81-1.43-8.32-3.93-11.54a.4.4 0 0 0-.72.18 2.58 2.58 0 0 0 .12 1.36.17.17 0 0 0 .31 0c1.13 3.43 2.07 6.93 3.32 10.31.21.64 1.05.27.9-.31z" fill="#87858e"/><path d="M44.35 235.06a20.91 20.91 0 0 1-2-4.4c-.57-1.42-1.56-2.61-2-4.08-.09-.28-.48-.14-.47.12.08 1.57 1 2.89 1.52 4.34a13.49 13.49 0 0 0 2.32 4.5.4.4 0 0 0 .63-.48z" fill="#87858e"/><path d="M50.86 235.85c-1.75-3.31-3-6.9-5-10.06a.4.4 0 0 0-.68.38c1.43 3.48 2.65 7.07 4.69 10.26.32.57 1.31.03.99-.58z" fill="#87858e"/><path d="M50.78 250.87c-1.31-1.43-2.29-3.67-4-4.59-.26-.14-.44.2-.31.4.91 1.39 1.69 2.9 2.71 4.21s2.76 3 3 4.85a.52.52 0 0 0 1 0c.2-2-1.13-3.48-2.4-4.87z" fill="#87858e"/><path d="M57 253.17c-1.08-2.55-3.42-4-4.82-6.32-.2-.33-.76 0-.59.33 1.19 2.37 3.36 4 4.63 6.3.22.52.97.21.78-.31z" fill="#87858e"/><path d="M67.17 251.46a12 12 0 0 0-2.91-3.27c-1.31-1-3.9-1.84-4.25-3.53-.06-.31-.59-.37-.6 0 0 1.84 1.37 2.31 2.7 3.27a19.3 19.3 0 0 1 4.26 4.12c.39.53 1.14-.05.8-.59z" fill="#87858e"/><path d="M68 266c-2.3-1.71-4.36-4.77-7.38-5.21a.61.61 0 0 0-.64.83l.19.42a.29.29 0 0 0 .41.15c2.21 1.74 4 4 6.62 5.19A.81.81 0 0 0 68 266z" fill="#87858e"/><path d="M74.7 262.09a8.71 8.71 0 0 1-3.7-1.59 22 22 0 0 0-3.28-2.1c-.34-.13-.78.21-.6.59a10.38 10.38 0 0 0 3.15 3.12 6.22 6.22 0 0 0 4.42 1.29c.74-.1.77-1.27.01-1.31z" fill="#87858e"/><path d="M82.55 256.52c-2.7-.1-5.2-1.17-7.87-1.36-.57 0-.87.82-.27 1 2.69.88 5.23 2.3 8.14 1.81.79-.12.87-1.42 0-1.45z" fill="#87858e"/><path d="M84.5 273.1a13.47 13.47 0 0 0-9.17-2.21.48.48 0 0 0 0 1 34.15 34.15 0 0 1 8.39 2.6c.8.29 1.55-.92.78-1.39z" fill="#87858e"/><path d="M87.24 266.78c-2.37-.32-4.81-1-7.19-.47-.36.08-.43.69 0 .69 2.47 0 4.69 1.38 7.19 1.1a.67.67 0 0 0 0-1.32z" fill="#87858e"/><path d="M95.38 260.64c-2.09 1.38-5 .54-7.16-.16-.91-.29-1.49 1-.57 1.38 2.68 1 6.17 2.08 8.53-.16a.67.67 0 0 0-.8-1.06z" fill="#87858e"/><ellipse cx="130.72" cy="220.16" rx="14.68" ry="4.58" fill="#efabab"/><path d="M266.64 163.2l.18-.31c.09-.16.17-.31.25-.47s.12-.28.18-.42.11-.26.16-.39.12-.35.17-.53.06-.21.09-.31.09-.4.13-.6 0-.2.05-.29 0-.16 0-.24v-2.58c0-.06 0-.23-.06-.35s-.07-.36-.11-.54-.07-.25-.11-.37-.09-.31-.15-.47-.12-.31-.18-.47-.09-.23-.14-.34-.19-.38-.29-.56l-.12-.21c-.12-.2-.25-.4-.38-.59l-.11-.16-.1-.15c-.09-.12-.19-.23-.29-.35l-.2-.24-.36-.38-.32-.31-.3-.26-.29-.25-.16-.11-.23-.16c-.18-.12-.36-.24-.55-.36l-.21-.12c-.2-.11-.4-.22-.61-.32l-.2-.09c-.22-.1-.44-.19-.67-.27l-.16-.05c-.25-.08-.49-.16-.74-.22h-.12c-.26-.06-.52-.11-.79-.15h-.63a9.34 9.34 0 1 0 .26 18.57h.43A9.35 9.35 0 0 0 264 166l.19-.13c.13-.09.24-.2.36-.3l.21-.18.38-.37.31-.31.27-.31.24-.28.1-.15.19-.28c.18-.16.29-.32.39-.49z" fill="#efabab"/><path d="M280.41 97.09c-.73-5.67-5.52-8.35-10.76-8.35s-8.91 6-8.31 10.7c.73 5.67 5.52 8.35 10.76 8.35s8.9-5.99 8.31-10.7z" fill="#efabab"/><path d="M321.14 125.33c-.73-5.64-5.5-8.31-10.7-8.31s-8.87 6-8.27 10.65c.73 5.64 5.5 8.31 10.7 8.31s8.87-5.98 8.27-10.65z" fill="#efabab"/><path d="M366.62 63.11c-.73-5.64-5.49-8.3-10.7-8.3s-8.86 6-8.26 10.64c.73 5.64 5.49 8.3 10.7 8.3s8.86-5.95 8.26-10.64z" fill="#efabab"/><path d="M323.64 42.21a9.47 9.47 0 0 0-1.82-4.48 9.48 9.48 0 0 0-13.23-1.95 9.38 9.38 0 0 0-3.7 8.73l.09 1a9.38 9.38 0 0 0 1.8 4.43 9.39 9.39 0 0 0 13.11 1.93 9.17 9.17 0 0 0 3.66-6.26l.09-1v-2.4z" fill="#efabab"/><path d="M232.21 67.85c-2.73-2.36-7.41-.83-11.4 2.27s-4.5 8.24-2.24 10.2c2.73 2.36 7.41.83 11.4-2.27s4.5-8.24 2.24-10.2z" fill="#efabab"/><path d="M221.85 120.14c-.6-5.47-4.52-8.06-8.81-8.06s-7.3 5.78-6.8 10.33c.6 5.47 4.52 8.06 8.81 8.06s7.3-5.79 6.8-10.33z" fill="#efabab"/><path d="M232.57 188.87l-.18-.49a11 11 0 0 0-2.47-3.78 6.88 6.88 0 0 0-5.42-2.17 5.66 5.66 0 0 0-4.32 3 9.87 9.87 0 0 0-.87 6.61l.11.51.65 2.25a11.06 11.06 0 0 0 2.48 3.8 6.91 6.91 0 0 0 5.45 2.18 5.69 5.69 0 0 0 4.34-3.06 9.28 9.28 0 0 0 1.08-4.31 11.93 11.93 0 0 0-.85-4.54z" fill="#efabab"/><path d="M279.53 246.81a10.8 10.8 0 0 0-1.61-2.28l-.07-.09a9.37 9.37 0 0 0-3.83-2.71 7.63 7.63 0 0 0-4.35-.33 7.19 7.19 0 0 0-3.6 2l-1.28 1.77a9.31 9.31 0 0 0-1 4.62v.13a10.64 10.64 0 0 0 .36 2.77 11 11 0 0 0 2.25 4.31 8.73 8.73 0 0 0 8.35 3.1 7.86 7.86 0 0 0 5.8-6.14 10.27 10.27 0 0 0-.13-4.9z" fill="#efabab"/><path d="M307.28 190.33a9.6 9.6 0 0 0-11.28-3.17 9.45 9.45 0 0 0-4 3 10.34 10.34 0 0 0-.93 1.14 9.31 9.31 0 0 0-1.89 4.53 9.46 9.46 0 0 0 8.13 10.58h2.41a9.37 9.37 0 0 0 4.46-1.78 10.32 10.32 0 0 0 1.13-.93l1.82-1.79a9.45 9.45 0 0 0 1.92-4.6 9.64 9.64 0 0 0-1.77-6.98z" fill="#efabab"/><path d="M379.36 208c-.7-5.44-5.3-8-10.33-8s-8.56 5.75-8 10.28c.7 5.44 5.3 8 10.33 8s8.58-5.78 8-10.28z" fill="#efabab"/><path d="M362.87 157.23a9.5 9.5 0 0 0-1.82-4.49 9.5 9.5 0 0 0-13.27-2 9.4 9.4 0 0 0-3.7 8.75l.1.51a9.4 9.4 0 0 0 1.8 4.44 9.4 9.4 0 0 0 13.13 1.93l1.79-1.76a9.26 9.26 0 0 0 1.88-4.51l.1-.51q0-1.15-.01-2.36z" fill="#efabab"/><path d="M429.07 138.07a9.69 9.69 0 0 0-2.44-2.28c-.17-.15-.34-.3-.52-.44a9.41 9.41 0 0 0-6.9-1.9A9.32 9.32 0 0 0 413 137a9.19 9.19 0 0 0-1.87 6.88 10.94 10.94 0 0 0 2.1 5.18 11.44 11.44 0 0 0 4.59 3.52 9.49 9.49 0 0 0 11.23-14.47z" fill="#efabab"/><path d="M424.05 67.42l-1.09-2a9.08 9.08 0 0 0-3.14-2.88l-.53-.38-1.84-.66a5.18 5.18 0 0 0-3.45.5 6.51 6.51 0 0 0-3.18 4.54 11.08 11.08 0 0 0 .74 6.63l1.09 2a9.08 9.08 0 0 0 3.19 2.83l.53.38 1.84.66a5.18 5.18 0 0 0 3.4-.46 6.52 6.52 0 0 0 3.18-4.58 11.08 11.08 0 0 0-.74-6.58z" fill="#efabab"/><path d="M362.78 14.92c-.75-4.74-5.69-7-11.09-7s-9.19 5-8.56 8.95c.75 4.74 5.69 7 11.09 7s9.19-5.01 8.56-8.95z" fill="#efabab"/><path d="M282.56 30.45a6.24 6.24 0 0 0-3.12-2.1 10.11 10.11 0 0 0-6.72.47 11.37 11.37 0 0 0-5.26 4.31 7.62 7.62 0 0 0-1.24 4 5.49 5.49 0 0 0 1.14 3.41l.22.33a6.21 6.21 0 0 0 3.1 2.09 10.06 10.06 0 0 0 6.69-.46 11.32 11.32 0 0 0 5.23-4.29l.91-2a6.16 6.16 0 0 0 0-3.82l-.11-.39z" fill="#efabab"/><path d="M340.51 242.26a9.31 9.31 0 0 0-13-1.91 9.21 9.21 0 0 0-3.63 8.57c.06.69.09 1.38.11 2.08a9.18 9.18 0 0 0 1.76 4.34 9.19 9.19 0 0 0 12.83 1.89l1.75-1.72a9.05 9.05 0 0 0 1.84-4.41c0-.69.05-1.38.11-2.08a9.59 9.59 0 0 0-1.77-6.76z" fill="#efabab"/><path d="M352.28 282.16a10.48 10.48 0 0 0-2.13-.58 9.07 9.07 0 0 0-3-.22 5.88 5.88 0 0 0-4.73 2.89 6.88 6.88 0 0 0-.11 5.87 12.14 12.14 0 0 0 6.69 6.48l.39.15a9.59 9.59 0 0 0 4.43.69 6.22 6.22 0 0 0 3.58-1.47l.23-.23a5.36 5.36 0 0 0 1.71-3.1 8.45 8.45 0 0 0-1.6-6.13 12.28 12.28 0 0 0-5.46-4.35z" fill="#efabab"/><path d="M423.39 236.31a9.66 9.66 0 0 0-11.3-3.19 9.5 9.5 0 0 0-4 3l-.25.38a11 11 0 0 0-1.35 2.36 9.65 9.65 0 0 0-.62 4.84 9.42 9.42 0 0 0 1.81 4.45l1.77 1.8a9.41 9.41 0 0 0 4.54 1.9h2.48a9.78 9.78 0 0 0 4.57-1.83l.46-.3 1.84-1.8a9.51 9.51 0 0 0 1.93-4.63 9.7 9.7 0 0 0-1.88-6.98z" fill="#efabab"/><path d="M463.53 106a8.77 8.77 0 0 0-2.53-3.1 4.34 4.34 0 0 0-3.12-.9l-.51.09c-3.39.59-4.58 4.59-4.71 7.54a14.27 14.27 0 0 0 1.5 7.09l1.15 1.76a6 6 0 0 0 2.86 2.06l.52.09 1.6.14a4.34 4.34 0 0 0 2.79-1.66 10.07 10.07 0 0 0 2-6 14.41 14.41 0 0 0-1.55-7.11z" fill="#efabab"/><path d="M468.44 166c-.48-3.7-2.55-8.41-6.87-8.41s-4.88 7.06-4.52 9.87c.48 3.7 2.55 8.41 6.87 8.41s4.88-7.03 4.52-9.87z" fill="#efabab"/><path d="M461.78 210.57c.61-3.79-.06-9-4.31-10.31s-6.88 5.53-7.35 8.42c-.61 3.79.06 9 4.31 10.31s6.89-5.53 7.35-8.42z" fill="#efabab"/><path d="M403.47 32.66c-1.86-3.26-5.61-6.85-9.63-5.19s-1.84 8.45-.42 10.94c1.86 3.26 5.61 6.85 9.63 5.19s1.84-8.46.42-10.94z" fill="#efabab"/></g></g></svg>