<svg xmlns="http://www.w3.org/2000/svg" viewBox="0 -12 200.08999633789062 166.92999267578125"><title>22626571_1_ic</title><g data-name="Layer 2"><g data-name="Layer 1"><g data-name="Layer 2"><g data-name="Layer 1-2" fill="#fff"><path d="M21.21 69c13.79-4.56 23.16 5.73 32.5 20.61-8.62-4.18-14.56-6.86-26.29-7.39C24 77.76 22.23 74.91 21.21 69z"/><path d="M56.6 74.6c-1.11 3.93-.31 8.82 1.92 13.83 1.17 2.63.45 3.82-.91 6.15C27.29 80.22 21.26 84.7 0 96.32c9.39 25.21 33.66 22.15 56.4 13.08-8.83 10.06-26.52 11.45-36.52 17.6 3 2.9 7 2.88 10.69 5.8 1.68 1.34-.83 4.2 1 6.37 2.34 2.8 3.87.77 5.65 2.89a5 5 0 0 1 .33.44 3.71 3.71 0 0 1 .27.46c1.49 3-.57 8.32.73 9.78a148.24 148.24 0 0 0 23.35-29.85c1.28-2.15 11.14-3.64 15.47-6.37 15.65-9.81 14.13-24.38 3-38.21.77-2.73 2.48-3.48 4-6.72-2.6 0-4 0-7.44-.14-5.55-5.26-17.02-7.82-20.33 3.15zm11.55 3.64A3.13 3.13 0 1 1 69.32 74a3.13 3.13 0 0 1-1.16 4.28z"/><path d="M178.83 69c-13.82-4.55-23.16 5.74-32.51 20.62 8.62-4.18 14.56-6.86 26.29-7.39 3.39-4.47 5.19-7.32 6.22-13.23z"/><path d="M123.13 71.49c-3.42.14-4.85.15-7.44.14 1.52 3.25 3.22 4 4 6.72-11.17 13.79-12.68 28.37 3 38.21 4.36 2.73 14.22 4.2 15.47 6.37a148.11 148.11 0 0 0 23.4 29.84c1.3-1.46-.77-6.74.72-9.78a3.82 3.82 0 0 1 .27-.46 5.27 5.27 0 0 1 .33-.44c1.82-2.12 3.31-.09 5.65-2.89 1.82-2.15-.72-5 1-6.37 3.68-2.93 7.7-2.91 10.69-5.8-10-6.13-27.69-7.51-36.53-17.58 22.74 9.1 47 12.13 56.4-13.08-21.26-11.62-27.29-16.09-57.65-1.74-1.34-2.33-2-3.52-.91-6.15 2.23-5 3-9.9 1.93-13.79-3.36-11.06-14.79-8.5-20.33-3.2zm7.59 2.46a3.13 3.13 0 1 1 1.2 4.29 3.13 3.13 0 0 1-1.2-4.29z"/><path d="M115.17 115.22a20.72 20.72 0 0 0-1.72-1.37c-2.89-1.47-3.87 1.46-3.27 6.61 5.09 5.46 10.74 16.88 12.93 26 .12.47.21.91.3 1.36a2.73 2.73 0 0 1 .42.32c3 2.91 5 2.73 5.59-.07a24.34 24.34 0 0 0-.82-6.37c-2.24-9.4-8.25-21.21-13.43-26.48z"/><path d="M120.25 154.83l7.72-3.54a1.68 1.68 0 0 1-.37.11h-.11a1.59 1.59 0 0 1-.36 0h-.06a2.79 2.79 0 0 1-.46-.09h-.11a3.77 3.77 0 0 1-.47-.19 6.08 6.08 0 0 1-.55-.31l-.15-.09-.53-.37-.08-.06c-.21-.16-.42-.35-.64-.54l-.19-.18-.63-.6c-.22-.22-.51-.55-.76-.83l-.31-.35-.5-.6-.52-.64-.37-.49c-.26-.35-.52-.7-.78-1.06l-.51-.74-.35-.53-.63-1-.29-.46c-.29-.47-.59-1-.91-1.46s-.72-1.27-1.07-1.93q-.39-.73-.77-1.47l-.14-.26-.77-1.57-.09-.19q-.39-.83-.77-1.67l-.06-.14q-.4-.91-.77-1.82c-.25-.6-.49-1.2-.72-1.82v-.09q-.33-.91-.64-1.73l-.05-.16q-.29-.83-.55-1.65l-.07-.24c-.16-.53-.32-1-.46-1.56l-.1-.36c-.15-.54-.29-1.07-.42-1.59s-.18-.78-.26-1.16v-.22c-.09-.45-.17-.91-.24-1.29v-.15q-.1-.64-.16-1.23v-.25c0-.38-.06-.76-.07-1.1v-1.22a5.67 5.67 0 0 1 .08-.83v-.16a5.36 5.36 0 0 1 .16-.7v-.05a3.4 3.4 0 0 1 .24-.54v-.09a2.1 2.1 0 0 1 .31-.41l.07-.06a1.56 1.56 0 0 1 .4-.27l-7.72 3.54a1.57 1.57 0 0 0-.4.27l-.07.06a2.14 2.14 0 0 0-.31.41v.09a3.14 3.14 0 0 0-.24.54 5.74 5.74 0 0 0-.16.7v.15c0 .26-.07.54-.09.83v1.18a5.79 5.79 0 0 0 .07 1.1v.3a7.82 7.82 0 0 0 .16 1.25v.1c.06.41.15.84.24 1.28v.25c.08.37.16.76.25 1.15.09.38.19.77.3 1.16l.11.4.09.33.1.36.32 1 .05.17.07.23c.06.2.13.41.2.61s.22.66.34 1v.2l.27.76.36 1v.05l.33.85.38.91.35.83c.13.29.25.58.38.91l.05.12v.11l.28.63.38.82.12.25.08.17.19.41.42.85.17.34.12.25.17.34.54 1 .07.13q.53 1 1.07 1.92v.05q.38.66.77 1.28l.08.13.28.45.64 1 .35.52.34.49.18.25c.26.37.52.72.78 1.06l.26.35.11.13.52.64.38.47.12.13.31.35.4.45.37.39.32.31.29.26.22.2.08.08.52.44.07.05.36.26.16.11.15.09.13.08.41.22.32.14h.36l.35.06h.66a1.46 1.46 0 0 0 .51.25zm-16.38-35.63l2.07-.81a37.63 37.63 0 0 0 4.55 17.66c-6-5.49-6.61-16.88-6.61-16.88zm12.22 30.14c.33-.35 3.46 2.07 6.37 2.84l-3 1.56a26.76 26.76 0 0 1-3.37-4.39z"/><path d="M84.2 115.22a20.8 20.8 0 0 1 1.72-1.37c2.89-1.47 3.87 1.46 3.27 6.61-5.09 5.46-10.74 16.88-12.93 26-.11.47-.21.91-.3 1.36a2.67 2.67 0 0 0-.42.32c-3 2.91-5 2.73-5.59-.07a24.24 24.24 0 0 1 .83-6.37C73 132.3 79 120.49 84.2 115.22z"/><path d="M79.41 154.93h.65l.35-.06h.36l.32-.14.41-.22.13-.08.15-.09.16-.11.36-.26.07-.05.52-.44.08-.08.22-.2.29-.26.32-.31.37-.39.4-.45.3-.35.12-.13.38-.47.52-.64.11-.2c.09-.11.17-.24.26-.35.25-.35.52-.69.78-1.06l.29-.32.33-.49.35-.52.64-1 .28-.45.08-.13q.39-.63.77-1.28v-.05q.55-.91 1.07-1.92l.07-.13.54-1 .17-.34.13-.25.17-.34.42-.85.19-.41.08-.17.12-.25.38-.82.28-.63v-.22c.13-.29.25-.58.38-.91l.35-.83.38-.91c.12-.28.22-.56.33-.85v-.05l.36-1 .27-.76v-.2c.12-.33.23-.66.34-1l.2-.61.07-.23.05-.17c.11-.35.21-.7.32-1l.1-.36.09-.33.11-.4c.11-.39.2-.78.3-1.16.09-.39.18-.77.25-1.15v-.25c.09-.45.17-.91.24-1.28v-.1c.07-.44.12-.85.16-1.25v-.24c0-.38.06-.76.07-1.1v-1.18a4.61 4.61 0 0 0-.09-.83v-.15a5.46 5.46 0 0 0-.16-.7 3.54 3.54 0 0 0-.24-.54v-.09a2.17 2.17 0 0 0-.31-.41l-.07-.06a1.59 1.59 0 0 0-.4-.27l-7.5-3.84a1.56 1.56 0 0 1 .4.27l.07.06a2.12 2.12 0 0 1 .32.41v.09a3.4 3.4 0 0 1 .24.54v.05a5.36 5.36 0 0 1 .17.7v.16a8 8 0 0 1 .09.83v1.19a5.83 5.83 0 0 1-.07 1.1v.25a7.61 7.61 0 0 1-.16 1.23v.15c-.06.42-.15.85-.24 1.29v.22c-.08.37-.16.76-.26 1.16s-.26 1.06-.42 1.59l-.1.36c-.15.52-.3 1-.46 1.56l-.07.24q-.26.82-.55 1.65l-.05.16q-.31.86-.64 1.73v.09c-.23.6-.47 1.2-.72 1.82q-.37.91-.77 1.82l-.06.14q-.37.85-.77 1.67l-.09.19-.77 1.57-.14.26q-.38.75-.77 1.47-.53 1-1.07 1.93-.44.75-.91 1.46l-.29.46-.63 1-.35.53-.51.74c-.25.36-.52.72-.78 1.06l-.37.49-.52.64-.5.6-.31.35c-.25.29-.51.57-.76.83l-.62.6-.19.18c-.22.19-.43.37-.64.54l-.08.06-.53.37-.15.09a6.1 6.1 0 0 1-.55.31 3.89 3.89 0 0 1-.47.19h-.11a2.73 2.73 0 0 1-.46.09h-.06a1.6 1.6 0 0 1-.36 0h-.22a1.68 1.68 0 0 1-.37-.11l7.74 3.53zm9.47-18.87a37.63 37.63 0 0 0 4.55-17.66l2.09.77s-.62 11.4-6.64 16.89zm-9 17.69l-3-1.56c2.9-.78 6-3.18 6.37-2.84a26.76 26.76 0 0 1-3.35 4.4z"/><path d="M131.64 10.87C119.48-12 100.55 8.14 100 8.81c-.63-.64-19.55-20.81-31.71 2.06C55.92 34.07 100 66.93 100 66.93s44-32.86 31.64-56.06zm-52.7 29.58l3.95.68s5.31 7.76 15.79 20c-9.52-6.8-19.74-20.68-19.74-20.68zm37.71 1.18s11.26-22.87-2.93-29.95l6.71-4.18s16.37 13.61-3.78 34.12z"/></g></g></g></g></svg>