<svg xmlns="http://www.w3.org/2000/svg" viewBox="-0.440000057220459 -1.2599997520446777 171.771484375 164.41807556152344"><title>Depositphotos_114987544_05</title><g data-name="Layer 2"><g data-name="Layer 1" fill-rule="evenodd"><path d="M169.61 80.69a27.71 27.71 0 0 0-.79-5.66c-.43-1.47-.07-3.06-.57-4.46a24.33 24.33 0 0 0-5.8-9.31 25.07 25.07 0 0 0-16.87-7.47 33.37 33.37 0 0 0-10.37 1.15c-.58.16-1.45.23-1.45.92a9 9 0 0 1-1.41 4.7c.25.09.31.13.37.12l1-.24a30.46 30.46 0 0 1 12.19-.84 20.52 20.52 0 0 1 15.74 11c3.5 6.6 3.94 13.55 0 20.36a11.68 11.68 0 0 1-5.08 5.16 16.87 16.87 0 0 0-1.6.92 18.23 18.23 0 0 1-6.5 2.41 25.24 25.24 0 0 1-11.56-.85 2.06 2.06 0 0 0-2.55.56 8.88 8.88 0 0 1-.88.85c1.77 1.37 1.8 1.36 2.29 3.84.14.71.63.86 1.14 1 3.77 1 7.56 2.12 11.5 1.22 4.55-1 9.28-1.44 12.84-5.21 3.09-3.27 6.16-6.4 7-11.06.45-3.04 1.6-5.96 1.36-9.11z" fill="#008fb3"/><path d="M145.38 122.12a24.86 24.86 0 0 0-9.28-15.25 4.77 4.77 0 0 0-3.82-.83c-.75.08-1 .44-.64 1.11a3.4 3.4 0 0 1 .18 2.79.73.73 0 0 0 .33 1 14.56 14.56 0 0 1 4.05 4.32 17.83 17.83 0 0 1 3.76 9.83 22 22 0 0 1-3.26 12.74c-.74 1.19-1.09 2.7-2.38 3.52a19.94 19.94 0 0 0-3.28 2.79 8.12 8.12 0 0 1-2.35 1.63c-4.09 1.88-8.25 3.44-12.87 2.53-2.61-.51-5.19-1-7.55-2.42-3.25-2-5.32-5.09-7.77-7.82a7.73 7.73 0 0 1-1.89-3.59 3 3 0 0 0-2-2.58 5.36 5.36 0 0 1-2.72 4.37c-.34.19-.35.53-.18.9a30.54 30.54 0 0 0 4 7.13 38.79 38.79 0 0 0 9.51 7.76 9.89 9.89 0 0 0 2.46 1 40 40 0 0 0 8.7 1.35 17.05 17.05 0 0 0 7.48-.82 34.85 34.85 0 0 0 14.66-10.91 7.49 7.49 0 0 0 .92-1.36c.84-1.72 1.69-3.44 2.43-5.21a22.34 22.34 0 0 0 2.1-9.74 29.15 29.15 0 0 0-.59-4.24z" fill="#008fb3"/><path d="M41.14 109.67a5.13 5.13 0 0 1 1.13-3.38 2.21 2.21 0 0 0-2.12-.63 30.87 30.87 0 0 1-20.29-3.44 18.87 18.87 0 0 1-7.06-6.15 50.92 50.92 0 0 1-2.16-4.61c-2-3.78-2-7.79-1.13-11.82.9-4.21 3.3-7.59 6.14-10.73a15.91 15.91 0 0 1 7.64-4.58 41.82 41.82 0 0 1 7.29-1.18 68.32 68.32 0 0 0 8.48-1c-.4-1.31-1-2.37-.62-3.58.13-.4-.15-.61-.5-.75a18.71 18.71 0 0 0-10.88-1A41.88 41.88 0 0 0 15.94 61c-3.52 1.88-5.68 5-8 8a22.39 22.39 0 0 0-1.37 2.74 22.75 22.75 0 0 0-3.3 11.5 29.38 29.38 0 0 0 3.41 13.62 8.4 8.4 0 0 0 1 1.78 32.06 32.06 0 0 0 5.17 4.94 56.74 56.74 0 0 0 7.86 4.85 28 28 0 0 0 13.16 2.76c2.11 0 4.26.13 6.29-.67.41-.17 1.07-.22.98-.85z" fill="#008fb3"/><path d="M85.67 30.58c1.67.77 2.26 2.29 2.89 3.82a2.39 2.39 0 0 0 1.2-2.12 5.82 5.82 0 0 1 .19-1.62c1.71-4.29 3.73-8.42 7.34-11.46 5.77-4.86 12.31-7.25 20-5.85a20.81 20.81 0 0 1 8.34 3.81c4.18 3 7.76 6.49 9.13 11.7a19.75 19.75 0 0 1-.84 12.66 41.15 41.15 0 0 1-4.5 7.59c-.46.68-1 1.31-1.4 2-.52.93-.12 1.6.9 1.49a4.2 4.2 0 0 1 3.08.9c.82.63 1.33.44 1.86-.29a40.36 40.36 0 0 0 4-6.67 28.62 28.62 0 0 0 2.22-13 23.12 23.12 0 0 0-1.6-8.82A31.56 31.56 0 0 0 131 14.47a19 19 0 0 0-7.16-4.31A40.81 40.81 0 0 0 112.61 8c-2.6-.11-5.21-.27-7.72.7-1.28.49-2.56 1-3.87 1.37a16.29 16.29 0 0 0-5.32 3 31.52 31.52 0 0 0-5.27 5.75 30.28 30.28 0 0 0-5 9.85c-.16.71-.49 1.58.24 1.91z" fill="#008fb3"/><path d="M91.3 136.25c-1.2-.83-1.7-2.23-2.62-3.18a5.06 5.06 0 0 0-3 4.22 14.3 14.3 0 0 1-3.15 6.38 49.85 49.85 0 0 1-3.5 4 14.24 14.24 0 0 1-6 3.89 47.11 47.11 0 0 1-11.33 1.77c-4 .15-7.53-1.42-10.7-3.62a26.75 26.75 0 0 1-7-7.39 21.6 21.6 0 0 1-2.89-5.32 18.27 18.27 0 0 1-1-5.23c0-3.4-.21-6.88 1.87-9.91 1.09-1.58 2-3.31 3.18-4.79a5.27 5.27 0 0 0 1.31-4.33 3.65 3.65 0 0 1-3.52.15c-.87-.42-1.37-.1-2 .48a24.63 24.63 0 0 0-3.62 4.71 21.29 21.29 0 0 0-3 14.76 27.23 27.23 0 0 0 1 4.61 28.32 28.32 0 0 0 5.67 9.72 31.86 31.86 0 0 0 19.38 11c2.6.43 5.28 1 7.94.13a34.58 34.58 0 0 0 13.56-7.41 39.33 39.33 0 0 0 9.36-13.34c.19-.41.56-.95.06-1.3z" fill="#008fb3"/><path d="M33.27 43.45A41.74 41.74 0 0 0 38.68 56c.26.44.63.79 1.18.5a8.12 8.12 0 0 1 3.74-.75 35 35 0 0 1-4.6-6.89 27.57 27.57 0 0 1-3.74-13.71 10.46 10.46 0 0 1 .34-3.63 33.29 33.29 0 0 1 5.59-9c2.5-3.11 5.53-5.7 9.55-6.79.39-.11.73-.38 1.12-.53a16.83 16.83 0 0 1 12-.62c1.22.43 2.38 1.06 3.61 1.46A15.29 15.29 0 0 1 75.15 22a34.13 34.13 0 0 1 5.28 9.45c.05.17.24.3.4.49.24-.19.46-.35.66-.52a10.05 10.05 0 0 1 .75-.7c1.45-1 1.53-1.11 1.13-2.68a28.84 28.84 0 0 0-6.78-12.27C73.22 12 68.83 10.18 64.13 9a16 16 0 0 0-7.74-.27c-2.73.68-5.31 1.79-8 2.7a16.74 16.74 0 0 0-3 1.38 24.41 24.41 0 0 0-8.09 7.11c-1.24 1.8-2.82 3.5-3.33 5.61-1.11 4.68-3 9.29-1.58 14.31.42 1.16.61 2.41.88 3.61z" fill="#008fb3"/><path d="M70.46 98.7c.07-.38.3-.79-.2-1.2-2.62 1.07-4.94.58-6.59-1.89-2-3-1.85-6 .7-8.87-.84-.72-1.68-.58-2.32-1a5.82 5.82 0 0 1-1.65-1.52.67.67 0 0 0-.74-.2c-3.42.67-6.29 2.19-7.5 5.65a68.55 68.55 0 0 0-2 7.73c-.6 2.68-.29 5.46-.69 8.18-.23 1.58.06 1.93 1.59 2.33a76.18 76.18 0 0 0 10.39 2.39 13.74 13.74 0 0 0 10.1-2.52 9 9 0 0 0 .91-.82c.58-.56.7-1.06 0-1.7a6.75 6.75 0 0 1-2-6.56z" fill="#008fb3"/><path d="M100.21 107.2c-2.66 1-4.63 1.16-6.34-1.29a.86.86 0 0 0-.64-.46c-1.63 3.59-4 5.36-7.06 4.89-3.92-.6-5.18-3.46-5.16-7.07-.31.07-.39.06-.43.1-.58.58-1.16 1.15-1.71 1.77a4.33 4.33 0 0 1-2.25 1.36c-2 .49-2 .54-1.91 2.56.11 2.47 1.3 4.56 2.27 6.74a7.57 7.57 0 0 0 2.51 2.91c1.33 1 2.91 1.52 4.28 2.42a29.24 29.24 0 0 1 6 4.58c1 1.13 1.37 1.06 2.54.08 1.57-1.32 3.06-2.74 4.7-4a20.43 20.43 0 0 0 5.2-5.15c2.41-3.77 3.73-7.75 1.58-12.46-1.23 1.24-2.11 2.46-3.58 3.02z" fill="#008fb3"/><path d="M78.26 59.22c.48.43 1 .87 1.67 1.52.35-3.53 2.08-5.58 5.41-5.88s5.85 1 7.21 4.24c1.74-1.17 3.5-1.71 5.47-1a1 1 0 0 0 1.45-.71 5.78 5.78 0 0 0 .39-1.38c.32-2.45.7-5-.82-7.16a18.36 18.36 0 0 0-4.9-4.61c-2.76-1.85-5.91-3.07-8.64-5a1.61 1.61 0 0 0-2.2.22A86.66 86.66 0 0 0 74.16 48 7.94 7.94 0 0 0 72 52.89a27.89 27.89 0 0 0 0 3.89c.08 1.22.36 1.47 1.58 1.11a4.63 4.63 0 0 1 4.68 1.33z" fill="#008fb3"/><path d="M57.61 81.8c1.44 0 1.46 0 1.74-1.54.33-1.79.78-3.5 2.52-4.49.53-.3 1.26-.5 1.52-1 .41-.71-.62-1.09-.77-1.73s-.19-1.21-.29-1.82a5 5 0 0 1 4.29-6.13c.9-.18 1.78.1 2.79 0 .21-1.58-.15-3.29.75-4.78.21-.34-.09-.63-.31-.9a4.76 4.76 0 0 0-1.58-1.3c-3.27-1.6-6.72-2.19-10.16-.91-3.76 1.4-7.4 3.17-11.11 4.8-1 .41-1.15.93-.65 1.92a21.16 21.16 0 0 1 1.83 5.86 39.9 39.9 0 0 0 1.57 6.57 8.35 8.35 0 0 0 7.86 5.45z" fill="#008fb3"/><path d="M126.52 99a51.12 51.12 0 0 1-1-5.24 8.91 8.91 0 0 0-1.85-4.48c-1-1.24-1.85-2.56-2.9-3.72-1.7-1.87-3.68-3.26-6.41-3-.77.07-1.32.28-1.4 1.16a4.3 4.3 0 0 1-3.41 3.88c-.45.14-.86.37-1.47.64.51 1.27 1.38 2.1 1.78 3.21a5 5 0 0 1-1.1 5.51A3.92 3.92 0 0 1 104 98a.69.69 0 0 0-.9.1 9.32 9.32 0 0 1 .94 3.18 4.86 4.86 0 0 0 2.71 3.85 9.72 9.72 0 0 0 9.62.43q3.86-1.92 7.7-3.87c.61-.31 1.2-.64 1.81-1a1.27 1.27 0 0 0 .64-1.69z" fill="#008fb3"/><path d="M102.73 64.5a1.17 1.17 0 0 0 .31 1 9.64 9.64 0 0 1 3.79.25 3.59 3.59 0 0 1 2.57 1.55c1.61 2.68 1.65 5.53-.56 7.95-.35.39-.91.65-.89 1.3 3.38 1.29 3.43 1.34 5 4.34a1.4 1.4 0 0 0 1-.26 20.19 20.19 0 0 0 6.94-7.15 12.23 12.23 0 0 0 1.79-4.56 32.1 32.1 0 0 1 1-7.27c.23-.69-.05-1-.69-1.19-.93-.25-1.86-.48-2.78-.73-3.29-.91-6.37-2.46-9.78-3.09a12.5 12.5 0 0 0-8.84 1.36c-1.23.71-1.34 1.09-.38 2.18a5.3 5.3 0 0 1 1.52 4.32z" fill="#008fb3"/><path d="M87.28 99.13c-3.43.3-6.55-1-9.64-2.27-2.6-1.12-4.16-3.33-5.5-5.65a30.66 30.66 0 0 1-2.63-5.78 13 13 0 0 1 .46-9 19.81 19.81 0 0 1 8.34-9.81 14 14 0 0 1 5.86-1.74c3.55-.45 6.92.43 10.25 1.53 1.37.45 2.22 1.6 3.17 2.54a18.22 18.22 0 0 1 5.59 12.66 16.66 16.66 0 0 1-2.68 10.19 20.21 20.21 0 0 1-7.18 6.32 9.73 9.73 0 0 1-6.04 1.01zm13-16.09c0-.84.13-1.39.11-1.94a13.91 13.91 0 0 0-2.8-8.44C94.11 68.43 87.92 65.35 82 68c-2.51 1.15-4.76 2.38-6.37 4.6a39.53 39.53 0 0 0-2.37 3.85c-1.89 3.34-1.51 7-.61 10.36 1.06 4 4.79 5.95 7.78 8.4C85.69 97.1 90.76 97 95.51 93.8a7.33 7.33 0 0 0 2.85-3.17c1.03-2.52 2.41-4.98 1.89-7.63z" fill="#fdc436"/><path d="M122.13 117.32c1.51 2.69 1.54 2.83 1.18 5.38-.34 2.39-2.33 3.33-4.34 2a6 6 0 0 1-1.27-1.33c-.72-.87-1.48-1.71-2.29-2.64a5 5 0 0 0-.28 2.43 8.75 8.75 0 0 1-.82 3.79c-.61 1.2-1.59 1.29-2.35.18a24 24 0 0 1-1.28-2.44 8.6 8.6 0 0 1-2.35 3.21c-.45.31-.34.87-.19 1.34a19.41 19.41 0 0 0 1.43 4.05 8.89 8.89 0 0 0 5.27 4.29c3.15.89 6.25.37 9.38.08a2.09 2.09 0 0 0 1.58-.87c2.09-3.16 4-6.38 4.07-10.36.13-4.43-2.87-9.43-7.74-9.11z" fill="#47b649"/><path d="M56.61 43.76c-.44-1.07-.91-2-1.23-3a3.46 3.46 0 0 1 .78-3.61 3.21 3.21 0 0 1 3.64.48c.71.53 1.32 1.19 2 1.76.37.3.48.94 1.16 1a9.76 9.76 0 0 1 .41-2.71c.74-1.63 2-1.84 3.15-.45.29.35.35.9 1 1.13.73-1.56 2.06-1.61 3.44-1.1a1.2 1.2 0 0 0 .16-1.13 17.77 17.77 0 0 0-2.56-5.8 6.61 6.61 0 0 0-5.3-3.41 12 12 0 0 1-1.79-.46 34.32 34.32 0 0 0-6.5-.76A1.85 1.85 0 0 0 53 27c-.54 1.48-1.25 2.9-1.75 4.39-.91 2.71-2.12 5.35-1.84 8.35.21 2.34.37 4.65 1.76 6.66.43.63.74 1.43 1.78 1.37-.76-3.56-.21-5.15 3.66-4.01z" fill="#47b649"/><path d="M153.4 79.44c-2.32-1.52-4-3.72-6-5.6-2.75-2.62-5.94-2.77-9.36-2.29a1.2 1.2 0 0 0-1.2.91c-.5 1.93-2 3-3.53 4.09-.33.23-1 .24-.77 1 .67.07 1.36.11 2 .23a10.65 10.65 0 0 1 5.12 1.92c1.51 1.23 1.26 2.88-.49 3.66a11 11 0 0 1-4.68.94c.9 1 1.53 1.75 2.14 2.48a1.54 1.54 0 0 0 .85.5 13.13 13.13 0 0 0 10.26-1.66c2.08-1.23 3.72-3.19 5.56-4.81.56-.47.7-.96.1-1.37z" fill="#47b649"/><path d="M72.2 131.17c-.72-.52-1.17-.37-1.85.3-1.3 1.27-2.91.69-3.46-1.08a6.87 6.87 0 0 1-.15-1.63c0-.5.29-1.05-.14-1.5-.37.07-.41.38-.55.59a13.34 13.34 0 0 1-2.46 3.27 2.18 2.18 0 0 1-2.44.53c-.92-.39-1-1.18-1.07-2-.14-1.28.56-2.36.8-3.86-.44.17-.63.23-.82.32-1.24.58-2.44 1.36-3.8.23-.43-.35-.74.11-1 .42-1.87 2.23-2.2 6.72-.43 9 1.38 1.79 2.56 3.72 3.84 5.57a2 2 0 0 0 2.58.86c2.27-.77 4.6-1.39 6.79-2.35a9.76 9.76 0 0 0 6-8.39c-.66-.25-1.3.11-1.84-.28z" fill="#47b649"/><path d="M112 36.14c1.24-.73 3-.84 3.68-.16a3.46 3.46 0 0 1 .66 3.65 7.42 7.42 0 0 1-.34.75c-.25.63-.49 1.27-.9 2.32 1.27-.51 2.3-.27 3.09-.9a12.66 12.66 0 0 0 4.19-5.69 7.33 7.33 0 0 0-.69-6.65c-.7-1.18-1.41-2.35-2-3.58a1.59 1.59 0 0 0-2.15-1 41.89 41.89 0 0 0-6.44 2.1 13 13 0 0 0-5.64 4.63 4.25 4.25 0 0 0-.6 3.46c3.41-.81 3.41 1.87 3.91 4.31a11.15 11.15 0 0 1 3.23-3.24z" fill="#47b649"/><path d="M31.4 84.17c0-1.18 1.11-1.58 2-2.07s1.79-.17 2.63-.91c-2.18-2.56-2.11-3.32.4-4.66a5.3 5.3 0 0 0-.9-.5c-4.52-1.45-8.91-.43-11.85 3.63-.92 1.28-1.69 2.66-2.6 3.94a1.73 1.73 0 0 0 0 2.23c1.53 2.3 3.17 4.47 5.9 5.48a16.67 16.67 0 0 0 5.76 1.37c.83 0 1.94.07 2.34-.48.94-1.27 2.09-2.39 3.15-3.84a10.57 10.57 0 0 1-5-1 3.44 3.44 0 0 1-1.83-3.19z" fill="#47b649"/><path d="M32.81 127.83c.06-.49.21-1.05-.31-1.53-.67.5-1.23 1-1.86 1.39-1.35.82-2.11.62-3.29-.46-.94-.86-.6-2-.8-3.06-1.58.3-3 .22-4.09-.95s-.68-2.76-.42-4.18c-3.08-.64-3.7-2.51-1.74-4.85a6.72 6.72 0 0 1 2.45-1.82 5.17 5.17 0 0 0 1.89-1 18.38 18.38 0 0 0-3-.81c-1.08-.1-2-1.53-3-.73s-1.24 1.94-1.83 2.94c-.07.12-.11.25-.18.37-1.16 2.3-1.38 5.86 1.51 7.69.52.33.66.68.36 1.36-1.19 2.7-.07 4.93 2.76 5.62a4.67 4.67 0 0 0 2.63-.18c.73-.24 1.13-.05 1.63.68 1.33 1.94 3 3.62 5.49 3.92 1.65.2 2.14-.19 1.82-1.73a8.22 8.22 0 0 1-.02-2.67z" fill="#47b649"/><path d="M81.23 12.1c.62-1 1.08-1.8 1.66-2.55 1.64-2.11 3.29-2 4.67.3.26.43.28 1.09 1 1.22.69-.82 1.32-1.93 2.62-1.53 1.63.51 1.7 2.1 1.95 3.52 2.48-1.47 2.71-1.81 2.31-3.79a4.57 4.57 0 0 0-2.71-3.17 2.73 2.73 0 0 0-3.24.32c-.79.66-1.26.4-1.58-.65a7 7 0 0 0-.29-1.19c-.68-1.28-1.38-2.58-3.08-2.7A3.24 3.24 0 0 0 81 5.8c.1.75.74 1.5 0 2.43a21.13 21.13 0 0 1-2.16-1.47 2.29 2.29 0 0 0-1.7-.57 4.74 4.74 0 0 0-3.56 3c-.27 1.73.31 2.55 2.44 3.42.46-1.14.87-2.31 2.31-2.61 1.67-.31 2.19 1 2.9 2.1z" fill="#47b649"/><path d="M102.92 151.36c-.19.82-.31 1.49-.5 2.15-.57 1.94-2.23 2.48-3.79 1.25-.69-.54-1.4-1.07-2.06-1.58a6.53 6.53 0 0 0-.46 1.62 3.92 3.92 0 0 1-1.93 2.53c-1.37.76-2 .6-3-.67-.64-.87-.77-2-1.39-3-1.06 1.52-2 3.18-4.09 2.54s-2-2.62-2-4.79c-1.65 1.32-3 2.33-4.3 3.44-1 .87-1 1.12-.17 2.21a5.47 5.47 0 0 0 6.71 1c1.23-.81 1.23-.81 2 .47 1.72 3 6.82 3 8.53.06 1-1.72 1-1.72 2.85-1.14l.39.11c2.93.89 5.22-.27 6.19-3.19.14-.41.82-.64.37-1.35-1.06-.41-2-1.35-3.35-1.66z" fill="#47b649"/><path d="M17.18 51.36a5.24 5.24 0 0 0-.85 4.31c.27 2.13 1 2.54 3 1.71.36-.16.79-.24 1-.62-1.54-3.36-1.33-4.17 1.6-5.76-1.43-1.58-2-3.27-1.08-5.16 1-2.11 3-1.35 4.83-1.21-.7-1.3-.86-2.42.21-3.34 1.58-1.35 3.07-.38 4.7.48-.13-1.62-.27-3-.49-4.42s-1-1.52-2-1.25a6.47 6.47 0 0 0-4.39 3.72c-.58 1.18-.98 2.18-2.65 1.68a4.88 4.88 0 0 0-1.82.18 3.33 3.33 0 0 0-2.91 2.27 4.58 4.58 0 0 0 .78 5.16 1.39 1.39 0 0 1 .07 2.25z" fill="#47b649"/><path d="M146.58 40.72c.07.81.41 1.27 1.32 1.08a3.06 3.06 0 0 1 .82 0 2.59 2.59 0 0 1 2.36 3.77c-.23.56-.55 1.08-.85 1.68.46.26.88.46 1.26.72 1.4 1 1.54 1.73.48 3-.52.63-1.14 1.17-2 2 1.86.62 3.47 1.14 5.06 1.71a.87.87 0 0 0 1.27-.57 5.49 5.49 0 0 0 0-4.57c-.53-1.21-1.73-2-2.26-3s.54-2.54.24-3.93a5.46 5.46 0 0 0-2.74-3.41c-1-.62-1.76-.26-2.6.4-.56.44-1 .07-1.13-.62 0-.34 0-.69-.05-1a4.43 4.43 0 0 0-4-3.73c-1.62 0-2 .23-1.92 1.81 0 .79-.4 1.59-.14 2.21.45.36.68.15.93.09 2.27-.6 3.19-.11 3.88 2a1.79 1.79 0 0 1 .07.36z" fill="#47b649"/><path d="M158.49 104.52l-3.36 2.09c1.22 2.67.94 3.64-1.37 5.08.27.55.57 1.08.81 1.64.86 2 0 3.88-2.09 4.17-1.14.15-1.25.67-1.43 1.54a2 2 0 0 1-2.78 1.53c-.57-.18-1-.73-1.87-.59.23 1.47.42 2.95.69 4.4.32 1.71 1.08 2 2.57 1a5.57 5.57 0 0 0 2.52-3.84c.2-1.12.74-1.39 1.75-1.55a4.47 4.47 0 0 0 3.57-6.24 2.39 2.39 0 0 1 .62-3c1.88-1.91 1.88-3.75.37-6.23z" fill="#47b649"/><path d="M74.22 67a.82.82 0 0 0 .22-1.23 3.09 3.09 0 0 1-.44-1.6 2.22 2.22 0 0 1 1.43-2A2.14 2.14 0 0 1 78 63a7.25 7.25 0 0 1 .55 1c.17.34.42.54.8.42s.41-.49.37-.84a6.16 6.16 0 0 0-2.45-3.9 3.68 3.68 0 0 0-5.31.21c-1.74 1.78-2.47 4.24 0 6.91.95 1.14 1.18 1.2 2.26.2z" fill="#ed1c24"/><path d="M99 95.83c-.42.37-.84.67-.54 1.37a4.64 4.64 0 0 1 .38 1.58 2.23 2.23 0 0 1-2.19 2.66 2.34 2.34 0 0 1-2.36-1.32c-.2-.36-.35-.8-.88-.55s-.44.65-.35 1.07a10.5 10.5 0 0 0 1.59 4.36c1.4 1.9 2.38 2.23 4.56 1.49a5.37 5.37 0 0 0 3.77-4.92 9.33 9.33 0 0 0-2.57-5.6.92.92 0 0 0-1.41-.14z" fill="#ed1c24"/><path d="M91.1 100.44a1 1 0 0 0-1.1 1.22 3.49 3.49 0 0 1-.65 1.91c-.79 1.44-1.56 1.62-3 .79a3.15 3.15 0 0 1-1.74-2.81c0-1-.91-.82-1.53-1-.81-.18-.88.43-1 1a11.67 11.67 0 0 0 .58 5.45 2.36 2.36 0 0 0 .87 1.11 5 5 0 0 0 5.38.71c2.23-.93 3.19-2.66 3.28-5.43a5.43 5.43 0 0 0-.36-1.78c-.07-.45.03-1.19-.73-1.17z" fill="#ed1c24"/><path d="M82.75 63.84c.37-.14.84 0 1.22-.45 0-.3-.07-.7-.11-1.1-.09-1-.1-2 .88-2.55a2.84 2.84 0 0 1 2.91.35 2.5 2.5 0 0 1 1.19 2.63c0 .58.3.85.86.93s.87-.21 1-.75c.2-.79.5-1.57.63-2.37a3.7 3.7 0 0 0-1.52-3.77c-1.87-1.46-3.75-1.15-5.81-.46a4.13 4.13 0 0 0-3 4 12.87 12.87 0 0 0 .22 2.65c.13 1.05.62 1.23 1.53.89z" fill="#ed1c24"/><path d="M100.74 70.49c.57.73.91-.26 1.4-.22a3.11 3.11 0 0 0 .61-.07c1.88-.22 2.85.91 2.33 2.74a3 3 0 0 1-.9 1.58c-.21.17-.41.36-.62.54-.54.49-.31 1 0 1.46s.7.19 1.07 0a13.48 13.48 0 0 0 1.53-.59c1.86-1.07 3.21-2.53 3.39-4.44.14-3-1-4.36-3.59-5-2.3-.53-3.62.68-4.79 2.31-.33.55-.97.99-.43 1.69z" fill="#ed1c24"/><path d="M67.56 85.56c.45-.18.71-.4.53-.9s-.2-1-.9-.85a4.38 4.38 0 0 1-.79.22c-1.17 0-2.64-1.24-2.59-2.19a3.1 3.1 0 0 1 2.7-2.55c.43 0 1.06.35 1.23-.33a2 2 0 0 0-.22-2 4.17 4.17 0 0 0-6.4.71 6.27 6.27 0 0 0-.82 3.14c.05 3.46 4.05 6.05 7.26 4.75z" fill="#ed1c24"/><path d="M80.32 99.81c-.92-.59-.92.69-1.35 1.1-.93.88-2.19 1.31-3 .88a3.05 3.05 0 0 1-.94-3.49c.18-.42.79-.75.48-1.25a7.27 7.27 0 0 0-1.11-1.15c-.63-.63-1.14-.54-1.68.17a8.2 8.2 0 0 0-1.48 3.79 5 5 0 0 0 4.49 5.67 2.2 2.2 0 0 0 1.62-.47 7.51 7.51 0 0 0 2.71-3.29c.22-.63 1.11-1.42.26-1.96z" fill="#ed1c24"/><path d="M71.9 94.94c.48-.51.67-1 .07-1.6s-.82.11-1.17.36c-.59.41-1 1.15-1.92.91A2.72 2.72 0 0 1 67 91c.26-.83.91-.91 1.44-1.27a1.11 1.11 0 0 0 .44-1.59c-.27-.53-.37-1.18-1.22-1.15-2.86.1-4.41 1.69-4.38 4.55 0 2.31 1.4 4.65 3.2 5.31 2.21.81 3.8-.39 5.3-1.77z" fill="#ed1c24"/><path d="M111.16 79.76a3.43 3.43 0 0 0-2.93-1.91c-1.17-.13-2.28.4-3.44.16-.37-.08-.69 0-.71.48a.65.65 0 0 0 .56.73 15.57 15.57 0 0 1 1.61.25 2.45 2.45 0 0 1 1.83 2.23 2 2 0 0 1-1.48 2.17c-.51.19-1 .36-1.52.6a1 1 0 0 0-.16 1.86 2.83 2.83 0 0 0 2.49.59c1.37.36 2.29-.68 3.38-1.14a2 2 0 0 0 1.12-1.84 7.84 7.84 0 0 0-.75-4.18z" fill="#ed1c24"/><path d="M94.58 64.12a2.74 2.74 0 0 1 2.61-1.62c1.86.12 2.69 1.41 2.3 3.3-.15.72-.69 1.36-.46 2.16.1.33.2.67.62.71s.48-.2.64-.42a8.26 8.26 0 0 0 1-2.46 5.12 5.12 0 0 0-4.92-6.86c-2.62-.33-4.45 2.42-4.32 4.42a1.25 1.25 0 0 0 .64 1.17c.74.42 1.4.48 1.89-.4z" fill="#ed1c24"/><path d="M67.18 75.21c.48.1 1 .26 1.22-.35s-.27-.65-.57-.89a2.55 2.55 0 0 1-1-3.19c.6-1.07 1.63-1.29 3.14-.52.64.33.94.18 1.38-.29a1.34 1.34 0 0 0 0-2.12 5.74 5.74 0 0 0-3.15-1.79 4.28 4.28 0 0 0-5 4.13 4.85 4.85 0 0 0 3.98 5.02z" fill="#ed1c24"/><path d="M106.54 88.3a4.29 4.29 0 0 0-2.48-.87.54.54 0 0 0-.58.47.48.48 0 0 0 .23.52 6.91 6.91 0 0 1 1.95 1.47 3 3 0 0 1 0 3.44c-.62.84-1.53 1-2.77.5a13.33 13.33 0 0 1-1.41-.79 1.23 1.23 0 0 0-.28 2.08 7.07 7.07 0 0 0 2.29 1.7c3 1.48 5.92-.51 5.74-3.86a6.4 6.4 0 0 0-2.69-4.66z" fill="#ed1c24"/><path d="M127.56 104.78c-1.75-1.77-3.45-1.86-5.26-.18a5.08 5.08 0 0 0-.34.41 1.94 1.94 0 0 0 .26.18c1.15.43 2.41.73 3.1 1.84s.14 1.94-.41 2.86c-.19.32.31.75.55.63.84-.43 1.56.07 2.33.13a2.8 2.8 0 0 0 2.86-1.22c.59-1 0-2-.68-2.79s-1.71-1.15-2.41-1.86z" fill="#47b649"/><path d="M133.91 101.77a10.17 10.17 0 0 0-4.68-1.87c-.44-.07-.93 0-.84.58.21 1.23-.94 1.29-1.77 2a26.57 26.57 0 0 0 2.85 2.06 4.51 4.51 0 0 0 3.92.3 1.67 1.67 0 0 0 .52-3.07z" fill="#47b649"/><path d="M49.85 110.6a8.69 8.69 0 0 0-2 2.6 3.05 3.05 0 0 0 1.52 4c1.47.53 4.31-.53 4.72-2 .53-2 2-2.48 3.6-2.87.51-.12 1.11 0 1.62-.72A31.17 31.17 0 0 1 53 110a2.81 2.81 0 0 0-3.15.6z" fill="#47b649"/><path d="M47.67 103.54a.76.76 0 0 0 .51-.81c-.14-1.91.59-3.78.21-6.15a8.13 8.13 0 0 1-4.56 2.34 5.66 5.66 0 0 0-2.14 1.16 2.77 2.77 0 0 0-1.25 3 3.22 3.22 0 0 0 3 1.79c1.56.04 2.82-.87 4.23-1.33z" fill="#47b649"/><path d="M49.27 109.12c-1.83-.75-1.82-.75-1.67-2.71 0-.4 0-.81.08-1.42l-2.73 1a5.14 5.14 0 0 0-2.22 1.76c-.58.7-.41 2.94.19 3.69a2.75 2.75 0 0 0 3 .52 5.68 5.68 0 0 0 3.35-2.84z" fill="#47b649"/><path d="M129.54 61.7a17.19 17.19 0 0 0-2.6.56c-.69.23-1.64-.33-2.06.54a7.24 7.24 0 0 0-.58 2.2 18.78 18.78 0 0 0 0 2.34c.84-.45 1.42-.81 2-1.06a2 2 0 0 1 2.58.58c1.35 1.62 1.35 1.62 2.82.09.33-.34.74-.6 1.07-.95a2.78 2.78 0 0 0 .85-2.81c-.36-1.15-1.45-1.38-2.47-1.55a5.12 5.12 0 0 0-1.61.06z" fill="#47b649"/><path d="M123.05 58.79c1 .51 2.2.39 2.58 1.14.58 1.15 1.37.88 2.2.74a11.47 11.47 0 0 0 3.64-1.34 1.76 1.76 0 0 0 .95-1.26 3.93 3.93 0 0 0-1.89-4q-1.5-.89-3.39.62a3.2 3.2 0 0 0-.59.56 16.59 16.59 0 0 1-3.5 3.54z" fill="#47b649"/><path d="M122.51 57.56A24.88 24.88 0 0 1 126 54.1c1-.91.77-1.86.37-3a2.05 2.05 0 0 0-2.27-1.37 27.34 27.34 0 0 0-3.89.8c.13.26.16.43.25.48 2.19 1.2 2.34 2.92.32 4.33-.72.5-1.53.88-2.61 1.49.87.44 1.56.73 2.2 1.11.84.56 1.39.68 2.14-.38z" fill="#47b649"/><path d="M48.44 59.29a.77.77 0 0 0 .77.17c1.65-.58 3.42-.93 4.84-2.24-.75-.35-1.57-.46-1.92-1.21-.79-1.68-2.37-2.4-3.86-3.2-1.73-.92-2.85-.23-2.71 1.71a7 7 0 0 0 2.88 4.77z" fill="#47b649"/><path d="M86.62 38.09a.5.5 0 0 0 .19.06c.49.13.77-.05.85-.57a5.69 5.69 0 0 0-1.74-5.4 2.9 2.9 0 0 0-3.09-.38 2.19 2.19 0 0 0-1.36 2.31 8 8 0 0 0 1 4.48c1.27-1.59 2.65-1.82 4.15-.5z" fill="#47b649"/><path d="M41.48 70.48c1.49 1 3.22.36 4.75.91.37.13.57-.22.6-.62.24-3-1.09-4.75-4.09-5.23l-.81-.12c-1.9-.11-2.49.57-2.2 2.44a3.58 3.58 0 0 0 1.75 2.62z" fill="#47b649"/><path d="M44.61 64c-.93-1.8-.93-1.79.66-2.55.43-.2.84-.46 1.26-.68s.52-.54.26-1a5.49 5.49 0 0 0-5.5-2.37 2.09 2.09 0 0 0-1.77 2.35c.34 2.47 2.28 4.13 5.09 4.25z" fill="#47b649"/><path d="M92.9 41.28c1.17-.35 1-2.21 1.21-3.47a.79.79 0 0 0 0-.21v-.82c-.23-1.6-.9-2.42-2-2.47a2.64 2.64 0 0 0-3 2.45c-.11.6-.16 1.22-.22 1.83a.89.89 0 0 0 .3.93c1.21.7 2.45 2.13 3.71 1.76z" fill="#47b649"/><path d="M80.08 37.49c-.09-.26-.16-.52-.27-.78-.61-1.45-1.8-2.1-2.85-1.56s-2.15 3.14-1.43 3.85a6.2 6.2 0 0 1 1.57 4 4.63 4.63 0 0 0 1.76-1.27C80.91 40 80.9 40 80.08 37.49z" fill="#47b649"/><path d="M90.15 127.54a9.85 9.85 0 0 0-.49 2.91 4.19 4.19 0 0 0 .85 3.28c.56.77 1.11 1.69 2.24 1.51a2.78 2.78 0 0 0 2.37-2 6.43 6.43 0 0 0-1.23-6.47c-1.25.64-2.14 2.23-3.74.77z" fill="#47b649"/><path d="M99.75 125.44a4.56 4.56 0 0 1-.6-1.06c-.94-2.07-1-2.09-2.8-.55-.36.32-.69.66-1 1s-.54.7-.32 1.1c1 1.78 1.6 3.77 2.87 5.39a1.51 1.51 0 0 0 2.64-.44 3.82 3.82 0 0 0 .24-2 4.52 4.52 0 0 0-1.03-3.44z" fill="#47b649"/><path d="M83.62 122.91c-1.6-.76-2.72-2.27-4.56-2.89a2.78 2.78 0 0 0 0 .64c.68 2.17 1.27 4.34-.25 6.43-.19.26-.08.51 0 .77a2.9 2.9 0 0 0 2.15 1.7 2.46 2.46 0 0 0 2.09-2 20.18 20.18 0 0 1 .83-3.78c.12-.32.12-.7-.26-.87z" fill="#47b649"/><path d="M86.16 124.44a.88.88 0 0 0-.93-.18 13.3 13.3 0 0 1-.62 2.62c-.72 1.58-.34 3.07.09 4.58a2 2 0 0 0 1.39 1.63c.89.19 1.36-.6 1.72-1.22a8.55 8.55 0 0 0 .82-5.18c-.08-1.21-1.63-1.54-2.47-2.25z" fill="#47b649"/><path d="M106 124.13c-.42 0-.55.38-.78.61a1.62 1.62 0 0 1-1.88.37 1.5 1.5 0 0 1-1-1.63 12.21 12.21 0 0 1 .14-1.84c.2-1 .48-2 .81-3.28a22.63 22.63 0 0 0-3.25 2.55.77.77 0 0 0-.18.93c.53 1.41 1 2.85 1.57 4.22a3.14 3.14 0 0 0 3.74 1.36c1-.33 1.25-1 1-2.73a3.69 3.69 0 0 0-.17-.56z" fill="#47b649"/><path d="M131.38 93.88a13.67 13.67 0 0 1 .33 1.61c.11 1.28-1 2.72-2.48 1.7a1.5 1.5 0 0 0-1.23-.45c-.31.9-.25 1.63.71 1.85a7.92 7.92 0 0 0 4.22.12c.91-.29 1.93-1.45 1.83-2.25a2.17 2.17 0 0 0-1.64-2.09c-.55-.16-1.03-.59-1.74-.49z" fill="#47b649"/><path d="M146.47 48.7a8.94 8.94 0 0 0 2.86-2.6c1-1.31.49-2.31-1.19-2.5a2.66 2.66 0 0 0-1.4.23A13.28 13.28 0 0 0 144 45.3c-1.88 1.38-3.54 3.06-5.48 4.31a10.07 10.07 0 0 0-3.17 3.72 7.37 7.37 0 0 0 4.47-.89c2.18-1.35 4.4-2.58 6.65-3.74z" fill="#fdc436"/><path d="M144.48 42.33a6.23 6.23 0 0 0 .77-1.43 1 1 0 0 0-.83-1.36c-1.06-.23-3 .5-3.35 1.51-.87 2.18-1.6 4.41-2.39 6.63a17.7 17.7 0 0 0 5.8-5.35z" fill="#fdc436"/><path d="M143 51.82c-.09 0-.12.23-.32.63 2.55.05 5 .42 7.05-1.11.69-.5 1.78-1.08 1.45-2s-1.49-.54-2.35-.34c-2.1.52-3.83 1.94-5.83 2.82z" fill="#fdc436"/><path d="M150.5 111.16c-3.62-1.82-7-4.24-11.59-4.2a3 3 0 0 0 .29.68 32.74 32.74 0 0 0 9 7 6.11 6.11 0 0 0 3.54.88c1.6-.14 1.89-.76 1.11-2.15a5.5 5.5 0 0 0-2.35-2.21z" fill="#fdc436"/><path d="M35.25 113.18c-2.13 1.25-4.47 2-6.62 3.19a20.39 20.39 0 0 0-4.69 3.63 1.62 1.62 0 0 0-.48 2c.38.63 1.12.43 1.7.33a14.92 14.92 0 0 0 5.35-2 60 60 0 0 0 7.12-5.5 3.44 3.44 0 0 0 1.27-2.2c-1.23.49-2.6-.07-3.65.55z" fill="#fdc436"/><path d="M93.86 141a5.16 5.16 0 0 0-1.46-2.41 3.88 3.88 0 0 0-.87 2.42A31.64 31.64 0 0 1 91 149a10.43 10.43 0 0 0 .85 6.4c.63 1.3 1.65 1.34 2.57.22a2.53 2.53 0 0 0 .63-1.27 23.14 23.14 0 0 0 .42-5.5 50.81 50.81 0 0 0-1.61-7.85z" fill="#fdc436"/><path d="M32.62 112.74c-1.75-.25-3.5-.49-5.25-.77a1.71 1.71 0 0 0-1 .15c-.94.4-1.89.8-2.86 1.14a5.24 5.24 0 0 0-2.4 1.86c-.76 1-.5 1.59.72 1.89a5 5 0 0 0 2.64-.22c2.92-.86 5.45-2.53 8.15-4.05z" fill="#fdc436"/><path d="M86 149.47a6.89 6.89 0 0 0-.86 4.18A1.47 1.47 0 0 0 86 155a1.43 1.43 0 0 0 1.68-.41 5.85 5.85 0 0 0 1-1.53c1.4-2.93 1.26-6.12 1.81-9.19l-.49-.27c-1.36 1.95-2.84 3.82-4 5.87z" fill="#fdc436"/><path d="M100.67 149.58a19.56 19.56 0 0 1-2.67-2.77 4.19 4.19 0 0 0-1.71-1.49 15.56 15.56 0 0 0 2.13 7.68 2.58 2.58 0 0 0 .68.75 1.44 1.44 0 0 0 2.44-.66 3.34 3.34 0 0 0-.87-3.51z" fill="#fdc436"/><path d="M28 124.5a1.53 1.53 0 0 0 .12 2.05 1.73 1.73 0 0 0 2.23.36 5.43 5.43 0 0 0 1.92-1.8 18.27 18.27 0 0 0 2.3-5.67 39.58 39.58 0 0 0-5.43 3.62A5.06 5.06 0 0 0 28 124.5z" fill="#fdc436"/><path d="M87.3 16.7a9.55 9.55 0 0 0-.8-5.92c-.27-.66-.62-1.29-1.39-1.32s-1.09.71-1.46 1.27a1.78 1.78 0 0 0-.15.38 12.32 12.32 0 0 0-.74 3 57.3 57.3 0 0 0-.17 7.34c0 1.72 1.15 3.42 1.8 5.19a1.83 1.83 0 0 0 .82-1c1.5-2.84 1.43-5.97 2.09-8.94z" fill="#fdc436"/><path d="M24.44 50.86c2.56 1.43 5.36 2.39 7.86 4 1.18.74 2.7.79 4.48 1-1.33-2.54-2.22-4.85-4.52-6.17-1.24-.71-2.43-1.52-3.64-2.3A15.2 15.2 0 0 0 24 45.62a1.57 1.57 0 0 0-2.1 1 1.86 1.86 0 0 0 .2 2.24 8.13 8.13 0 0 0 2.34 2z" fill="#fdc436"/><path d="M32.78 48.73c-.11-1.2-.76-2-.92-2.91a5 5 0 0 0-2.6-3.26c-.72-.48-1.54-1.09-2.43-.44-.56.4-.22 1.92.63 2.76a15.44 15.44 0 0 0 5.32 3.85z" fill="#fdc436"/><path d="M23.64 56.13c1.6-.38 3.23-.57 5.23-.85-2.15-1.8-4.57-1.89-6.69-2.73-.81-.33-2 1-1.71 1.79a3.42 3.42 0 0 0 3.17 1.79z" fill="#fdc436"/><path d="M78.68 11a1.51 1.51 0 0 0-1.24 1 2.86 2.86 0 0 0 .12 2.55c.93 1.32 1.88 2.64 2.81 4l.55-.15c-.13-2.24 0-4.5-1.16-6.6-.22-.54-.5-.96-1.08-.8z" fill="#fdc436"/><path d="M91 15.76c1.43-1.15 1.36-2.48.79-4-.2-.54-.45-1.06-1.07-1.07s-.89.5-1.13 1c-.9 2-.8 4-.89 6.54a24 24 0 0 1 2.3-2.47z" fill="#fdc436"/><path d="M153.8 107.56a2.51 2.51 0 0 0-1.77-.33c-1.61.31-3.25.35-4.94.63a16 16 0 0 0 5.62 2.26 1.7 1.7 0 0 0 .61 0 1.47 1.47 0 0 0 1.35-1.09c.14-.66-.28-1.13-.87-1.47z" fill="#fdc436"/><path d="M144.07 113.66a7.83 7.83 0 0 0 1.33 3.34 3.93 3.93 0 0 0 3.08 1.75c.4 0 .9.08 1.13-.27s-.07-.93-.37-1.27a14.42 14.42 0 0 0-5.17-3.55z" fill="#fdc436"/><path d="M108.15 52.24a3.41 3.41 0 0 0-1.88 2.07c3.85-1.23 7.47-1.94 10.87-3.37a9.34 9.34 0 0 0 3.14-1.94.82.82 0 0 0 .29-.91.8.8 0 0 0-.87-.41 11 11 0 0 0-4.93 1.32 65.86 65.86 0 0 1-6.62 3.24z" fill="#ed1c24"/><path d="M119.57 52.14c-.67.11-1.35.18-2 .34a30.36 30.36 0 0 0-6.82 2c2.41 1.17 4.62 1.75 7 1.11a6.38 6.38 0 0 0 2.69-1.39 1.29 1.29 0 0 0 .48-1.46 1.14 1.14 0 0 0-1.35-.6z" fill="#ed1c24"/><path d="M110.13 49.66c3.08-1.81 7-2.31 9.07-5.66-2-1-2.33-1-4-.08-2.43 1.26-3.81 3.42-5.07 5.74z" fill="#ed1c24"/><path d="M105.31 53.54c2.48-3.19 5-6.33 7.46-9.55a17 17 0 0 0 2.65-4.84c.42-1.24.25-1.29-1-1.77a2.25 2.25 0 0 0-2.85.69 26.29 26.29 0 0 0-2.27 2.65c-2.63 4.17-4.82 8.59-7.22 12.89-.35.63-.82 1.31-.29 2.19 1.21-.61 2.59-1.06 3.52-2.26z" fill="#ed1c24"/><path d="M138.71 80.05a7.22 7.22 0 0 0-1.48-.69 19.26 19.26 0 0 0-8.92-.74c-3.44.53-6.87 1.18-10.3 1.77-.41.07-.83.11-1 .72a16 16 0 0 0 3.89 1 125 125 0 0 0 13.29 1 10.64 10.64 0 0 0 4.22-.71c.42-.17 1-.2 1.08-.81a1.47 1.47 0 0 0-.78-1.54z" fill="#ed1c24"/><path d="M123.19 78.18c3.4-1.64 5.78-4.51 8.48-7a2.87 2.87 0 0 0 .47-.67c.27-.46.74-1 .24-1.46s-1-.23-1.53 0a10.81 10.81 0 0 0-3.36 2.64 44.63 44.63 0 0 1-5.49 5.48 3.61 3.61 0 0 0-1.48 1.65 5.69 5.69 0 0 0 2.67-.64z" fill="#ed1c24"/><path d="M101.75 48.2a15.44 15.44 0 0 0 .37 2.56 2.36 2.36 0 0 0 1.11-1.84c.05-3.13 0-6.26.06-9.4a5.61 5.61 0 0 0-.55-2.17c-.21-.51-.57-1-1.22-.9s-.71.59-.82 1.06a9 9 0 0 0 0 4.46 21.3 21.3 0 0 1 1.05 6.23z" fill="#ed1c24"/><path d="M131.65 84.14a19 19 0 0 0-6-.31 32.9 32.9 0 0 0 7.35 4.7 4.42 4.42 0 0 0 2 .3c1 0 1.24-.46.82-1.35a5.93 5.93 0 0 0-4.17-3.34z" fill="#ed1c24"/><path d="M129.3 88c-2.1-1.53-4.42-2.75-6.35-4.52-.27-.25-.61-.28-1.2.07 2.2 2.58 4.67 4.73 7 7a17.21 17.21 0 0 0 3.25 2.12c.4.25.87.6 1.29.13s0-.77-.2-1.12A12.7 12.7 0 0 0 129.3 88z" fill="#ed1c24"/><path d="M99.39 40.54a1.51 1.51 0 0 0-.57-1.05c-.52-.4-1-1.1-1.76-.57a1.37 1.37 0 0 0-.56 1.78 7.76 7.76 0 0 1 .5 1.77 9.22 9.22 0 0 0 3.3 5.63c.58-.4.4-.93.33-1.35-.36-2.08-1.02-4.1-1.24-6.21z" fill="#ed1c24"/><path d="M127.93 69.78a2.75 2.75 0 0 0 .42-.69 1.31 1.31 0 0 0 0-1.53 1.45 1.45 0 0 0-1.51-.33 3.53 3.53 0 0 0-2.58 2.16c-.74 1.79-1.2 3.68-1.84 5.73.43-.16.65-.18.77-.3q2.36-2.52 4.74-5.04z" fill="#ed1c24"/><path d="M106.06 43.75a10.28 10.28 0 0 0 1.44-4.83 3.47 3.47 0 0 0-.58-2.54c-.38-.54-.94-.62-1.29 0a6.28 6.28 0 0 0-.73 2.94 20.18 20.18 0 0 1-.38 4.47 2.94 2.94 0 0 0 .16 2.14c.78-.66.9-1.52 1.38-2.18z" fill="#ed1c24"/><path d="M126.64 77.79a10.79 10.79 0 0 0 1.2-.17 13.44 13.44 0 0 0 7.54-4.18c.26-.31.59-.66.29-1.07s-.63-.22-1-.13a7.59 7.59 0 0 0-1.16.39c-2.7 1.2-4.66 3.44-7.33 4.86.36.22.42.3.46.3z" fill="#ed1c24"/><path d="M129.45 93.2c-.77-.84-1.61-1.61-2.43-2.42a20.18 20.18 0 0 0 .65 3.78c.17 1 1.25 1.36 2.17 1.59.51.13.7-.32.63-.78a4.05 4.05 0 0 0-1.02-2.17z" fill="#ed1c24"/><path d="M121 117.8a34.1 34.1 0 0 0-6.32-5.52c-2.57-1.67-4.73-3.92-7.69-5.3.42.68.8 1.39 1.27 2q3 4.27 6.14 8.5c1.18 1.6 2.39 3.17 3.63 4.72a8.3 8.3 0 0 0 1.46 1.43 1.59 1.59 0 0 0 2.69-.63 3.55 3.55 0 0 0 .26-2.79 6.49 6.49 0 0 0-1.44-2.41z" fill="#ed1c24"/><path d="M73.1 108.88c-1.55.77-1.56.77-2 1.4-3.86 5.27-7.34 10.75-9.5 17a5.64 5.64 0 0 0-.4 1.79c0 .61-.14 1.31.6 1.6s1-.19 1.43-.58a14.83 14.83 0 0 0 1-1.27c2.08-2.75 3.46-5.91 5.05-8.93a35.16 35.16 0 0 0 3.82-11.01z" fill="#ed1c24"/><path d="M108.82 111.71a.82.82 0 0 0-.55.76c-.31 1.81-.46 3.64-.86 5.45a18.16 18.16 0 0 0-.11 7.7c.09.41.16.86.62 1s.72-.28 1-.62a8 8 0 0 0 1.1-4.09c.24-2.38 0-4.76.12-7.13a3.41 3.41 0 0 0-1.32-3.07z" fill="#ed1c24"/><path d="M62.66 122c.87-2.2 2.26-4.14 3.26-6.32-2.26 1.74-4.7 3.13-6.81 5a6.23 6.23 0 0 0-2 3c-.16.57-.64 1.13-.1 1.71a1.5 1.5 0 0 0 1.89.16A8 8 0 0 0 60 125a6.37 6.37 0 0 0 2.66-3z" fill="#ed1c24"/><path d="M71.9 116.76c-1.94 3.59-3.53 6.88-4.08 10.56a7.16 7.16 0 0 0 0 2.86 1.08 1.08 0 0 0 1.89.57 3.72 3.72 0 0 0 1.14-2.55c.23-2.31.48-4.62.74-6.93a13.76 13.76 0 0 0 .31-4.51z" fill="#ed1c24"/><path d="M73.52 116.52h-.26c-.06.25-.15.51-.2.76-.61 3.24-.71 6.53-1.12 9.79a5.32 5.32 0 0 0 .19 2.24c.11.37.1.87.64.94a1.19 1.19 0 0 0 1-.55 4.57 4.57 0 0 0 1-3.65q-.59-4.75-1.25-9.53z" fill="#ed1c24"/><path d="M66.54 113.57c.78-.63 1.86-.92 2.5-2.32-2.87 1.43-5.42 2.71-8 4a23.51 23.51 0 0 0-4.22 2.9 3.8 3.8 0 0 0-1.2 1.39.79.79 0 0 0 0 .58.56.56 0 0 0 .7.26 10.8 10.8 0 0 0 3.12-1.53q3.67-2.5 7.1-5.28z" fill="#ed1c24"/><path d="M75.26 116.56c0 1.34-.05 2.28 0 3.22.12 1.77.25 3.54.47 5.3.09.73.29 1.52 1.29 1.58a1.76 1.76 0 0 0 1.72-1.22A2.22 2.22 0 0 0 79 124c-.73-2.55-1.22-5.26-3.74-7.44z" fill="#ed1c24"/><path d="M111.63 115.73a28.33 28.33 0 0 0 .27 9.12 3.9 3.9 0 0 0 .38.94c.19.35.36.8.84.79s.63-.53.71-.88c.88-3.64 1.06-7.15-2.2-9.97z" fill="#ed1c24"/><path d="M122.68 110.57c-3.6-.75-7.23-1.31-10.9-2.07a5.22 5.22 0 0 0 2.26 2c1.43.46 2.87.88 4.32 1.26a23.51 23.51 0 0 0 5.21 1.05c.52 0 1.21 0 1.4-.63s-.5-.87-1-1.11a5.21 5.21 0 0 0-1.29-.5z" fill="#ed1c24"/><path d="M120.85 106.13a19.38 19.38 0 0 0-6.31 1.83c2.26.48 4.24.93 6.23 1.33a5.79 5.79 0 0 0 3-.31c1-.33 1.21-1 .44-1.79a3.8 3.8 0 0 0-3.36-1.06z" fill="#ed1c24"/><path d="M106.07 109.07a16.42 16.42 0 0 1-1.07 6.83c-.63 2-1.06 4.1-1.56 6.15-.18.73-.46 1.72.45 2s1.09-.88 1.27-1.53c1.26-4.54 2-9.13 1.06-14a1.53 1.53 0 0 0-.15.55z" fill="#ed1c24"/><path d="M124.59 114.69a5.89 5.89 0 0 0-1.28-.63c-1.84-.45-3.69-.84-5.53-1.26l-.15.43a10.79 10.79 0 0 0 6.37 3.17c.55.08 1.21 0 1.36-.62s-.36-.85-.77-1.09z" fill="#ed1c24"/><path d="M56.74 115.57a17.94 17.94 0 0 0 6.44-2.93 13.61 13.61 0 0 0-5.27.35 3.85 3.85 0 0 0-2 1 1.21 1.21 0 0 0-.4 1.28c.25.67.81.38 1.23.3z" fill="#ed1c24"/><path d="M53.85 82.93a64.89 64.89 0 0 0-16.13-.3 12.24 12.24 0 0 0-3.81.71 1.7 1.7 0 0 0-1.24 1.49c0 .7.51 1.09 1.09 1.36a9.9 9.9 0 0 0 3.93 1c5.13.16 10-1 14.9-2.46A8.2 8.2 0 0 0 55 83.59a1.26 1.26 0 0 0-1.15-.66z" fill="#ed1c24"/><path d="M47.6 87.68c-1.93-.35-3.69.31-5.5.54A7.51 7.51 0 0 0 37.26 91c-.65.76-1.39 1.64-.92 2.73.26.6 1.81.44 3-.38 2.79-1.85 5.52-3.77 8.26-5.67z" fill="#ed1c24"/><path d="M39.23 96.08a3.66 3.66 0 0 0 3.19-.42A61.2 61.2 0 0 0 49.91 90a2.31 2.31 0 0 0 .73-2.71c-4.21 2.42-8.3 4.64-11.41 8.79z" fill="#ed1c24"/><path d="M39.27 75.87a9.23 9.23 0 0 0 1.88 1.23A64.33 64.33 0 0 0 50 79.89c-.63-1.55-1.33-2.7-2.79-3.24s-2.91-1.18-4.4-1.65a22.17 22.17 0 0 0-3-.59.89.89 0 0 0-1 .45c-.22.46.14.78.46 1.01z" fill="#ed1c24"/><path d="M36.32 79.81A6.05 6.05 0 0 0 40.15 81c2.39.07 4.78 0 7.17 0a1.09 1.09 0 0 0 1.08-.5c-2.32-.68-4.45-1.4-6.62-1.9a42 42 0 0 0-4.86-.6c-.47-.05-1-.1-1.25.44s.25 1.03.65 1.37z" fill="#ed1c24"/><path d="M44.56 95.78c-.39.4-.84.85-.45 1.4a1.11 1.11 0 0 0 1.5.16c1.65-1.09 3.74-1.9 3.36-4.83-1.53 1.27-3.16 1.99-4.41 3.27z" fill="#ed1c24"/><path d="M57.32 42.84c1 1.47 2.09 2.88 3.21 4.26 1.25 1.54 2.63 3 3.73 4.64a14 14 0 0 0 5.82 5.51 1.92 1.92 0 0 0 .09-.55 6.12 6.12 0 0 0-.3-1 71.35 71.35 0 0 0-6.49-12.56 19.44 19.44 0 0 0-4-4.6 2.17 2.17 0 0 0-2.29-.54c-.69.28-1 1.52-.72 2.59a8.08 8.08 0 0 0 .95 2.25z" fill="#ed1c24"/><path d="M70.25 51.08c0 .11.16.21.31.39a2.06 2.06 0 0 0 .62-1.61 25.74 25.74 0 0 1 .7-7.13 5.34 5.34 0 0 0-1.15-4.05 1.14 1.14 0 0 0-1.22-.59c-.62.15-.82.67-.92 1.23a3.33 3.33 0 0 0 0 .62 71.86 71.86 0 0 0 1.66 11.14z" fill="#ed1c24"/><path d="M65 43.69c1.12 2 2.38 4 3.46 6.09-.37-2-.44-4.06-.7-6.07a15.52 15.52 0 0 0-1.39-4.91c-.31-.62-.58-1.4-1.41-1.19s-.89 1-.86 1.7a10 10 0 0 0 .9 4.38z" fill="#ed1c24"/><path d="M53.59 51.39q3.61 1.69 7.24 3.34a1.6 1.6 0 0 0 2.08-.43 35.85 35.85 0 0 0-8.09-5.3 3.28 3.28 0 0 0-1-.22 1 1 0 0 0-1.17.6 1.17 1.17 0 0 0 .14 1.34 2.52 2.52 0 0 0 .8.67z" fill="#ed1c24"/><path d="M55.37 48c2.3 1.58 5 2.56 7.32 4.15a17.93 17.93 0 0 0-3.69-4.9 12.11 12.11 0 0 0-3.57-2.7 1.29 1.29 0 0 0-1.68.16c-.46.48-.27 1-.1 1.54A3.62 3.62 0 0 0 55.37 48z" fill="#ed1c24"/><path d="M75.45 44.68a3.9 3.9 0 0 0 .55-3.12c-.15-.6-.42-1.19-1.17-1.23a1.31 1.31 0 0 0-1.39 1 5.07 5.07 0 0 0-.29 1c-.27 1.8-.53 3.6-.87 5.91a13 13 0 0 0 3.17-3.56z" fill="#ed1c24"/><path d="M55.6 53.61a3.2 3.2 0 0 0-1.54-.5 1.19 1.19 0 0 0-1.27 1.1c-.1.69 0 1.5.86 1.61a7 7 0 0 0 4.75-.61z" fill="#ed1c24"/><path d="M47.53 75.18c-.45-2.42-.89-2.83-3-3-.33 0-.71-.1-.91.23s0 .63.27.88a4.92 4.92 0 0 0 3.64 1.89z" fill="#ed1c24"/><path d="M95 40.67c-1.14 2-1.14 2 1.37 3.41-.58-1.38-.17-2.68-1.37-3.41z" fill="#ed1c24"/><path d="M136.18 64.34c.39.08.51.78.21 1.05-1.5 1.4-.13 2.8 0 4.17.07.85.91.59 1.49.56S139 69.75 139 69c-.09-2-.14-4.1-1.24-5.91a2.88 2.88 0 0 0-3.37-1.52c.3 1.27.33 2.43 1.79 2.77z" fill="#fdc436"/><path d="M143 69.38c.38-1.48 1.08-3 .58-4.53a1.26 1.26 0 0 1 .56-1.72 1.22 1.22 0 0 1 1.64.36 1.11 1.11 0 0 1 0 1.66c-1.32 1.2-1.17 2.84-1.49 4.35-.07.36-.13.69.26.86s.93.43 1.35 0a3.41 3.41 0 0 0 .87-1.13 24 24 0 0 0 1.35-3.64c.35-1.42.35-3-.87-4a6 6 0 0 0-4.64-1.2 1.33 1.33 0 0 0-.94.73 8.17 8.17 0 0 0-1.61 5c.08 1.22.24 2.44.38 3.72.58 0 1.12 0 1.65.11a.77.77 0 0 0 .91-.57z" fill="#fdc436"/><path d="M146.52 87.81c-.87.28-.73.95-.48 1.5.63 1.38.78 3 2.22 4a1 1 0 0 1 .31 1.43 1.37 1.37 0 0 1-1.59.63c-.69-.12-1.33-.62-1.07-1.23.72-1.75-.44-3-.9-4.44-.26-.83-.6-1.26-1.61-1s-1.29.67-1.08 1.41a16.24 16.24 0 0 0 .2 1.82c.51 2.25 1.3 4.34 3.48 5.54a3.86 3.86 0 0 0 5.57-2.57c.65-3-.8-5.27-2.67-7.35-.9-1.01-1.6.01-2.38.26z" fill="#fdc436"/><path d="M140.53 89.05c-1.33-.4-1.72-.18-2 1.27s-1.07 2.78.33 4.17c.61.61-.31 1.71-1.37 1.7-.51 0-1-.52-1.53-.16.2.56.29 1.11 1 1.41 1.92.82 3.76-.17 4.28-2.38.42-1.79-.11-3.54-.1-5.32-.02-.41-.23-.58-.61-.69z" fill="#fdc436"/><path d="M137.3 89.13c-1.24.84-2.5.63-3.73.8.05 1.22 1.39 1.89 1.16 3a1.87 1.87 0 0 0 .56 1.63 2.33 2.33 0 0 1 .66 1.42c.81-2.13 1.75-4.25 1.35-6.85z" fill="#fdc436"/><path d="M160.39 75.16c-2.53-1-4.84-.15-7.07 1a.71.71 0 0 0-.37 1c.91 1.72 4.08 2.36 5.52 1.11 1.18-1 1.42-1 2.28.29.37.55.62 1.1.11 1.68a1.42 1.42 0 0 1-1.83.45c-.24-.12-.43-.36-.68-.45a3 3 0 0 0-2.91.23c-.47.34-1.24.72-1.11 1.36s1 .73 1.7.79a14.29 14.29 0 0 0 1.44 0v.05c.62 0 1.23-.06 1.84-.13a3.36 3.36 0 0 0 3.21-2.93c.26-1.85-.64-3.86-2.13-4.45z" fill="#fdc436"/><path d="M147.64 71.83c.43.28.93.95 1.42.47 1.28-1.25 3.44-1.56 3.89-3.7a1 1 0 0 1 1-.86 1.43 1.43 0 0 1 1.23 1.26.89.89 0 0 1-.69 1.1c-1.47.47-2.48 1.67-3.77 2.43-.5.29-1 .76-.58 1.5.61 1 1.62 1.62 2.25 1.31a16.35 16.35 0 0 0 3.52-2.08 4.87 4.87 0 0 0 1.78-4.06c-.07-1.79-1.26-3.33-3.14-4.76-1.29-1-2.46 0-3.64.45a3.57 3.57 0 0 0-1.67 2c-.65 1.28-1.13 2.64-1.76 3.93-.22.43-.25.75.16 1.01z" fill="#fdc436"/><path d="M159.15 85.54a5.75 5.75 0 0 0-1.77-1l-3.09-1.09c-1.49-.53-1.49-.53-2.67 1 1.54 1.13 2.56 3.06 4.9 2.88.18 0 .38.14.56.24.77.43.94 1 .47 1.67s-1 .9-1.73.31c-.26-.22-.44-.52-.69-.75a18.75 18.75 0 0 0-3.95-3.23 1.1 1.1 0 0 0-1.48.2c-.45.51 0 .92.2 1.28a11.6 11.6 0 0 0 4 4c2.7 1.5 3.17 1.5 5.39-.54 1.81-1.7 1.77-3.4-.14-4.97z" fill="#fdc436"/><path d="M133.32 68.59c.37.46.12 1 0 1.58s-.66.88-.45 1.49c3-.63 2.7-.77 2.06-3.34-.16-.63-.17-1.39-.89-1.81-.98.43-1.66.92-.72 2.08z" fill="#fdc436"/><path d="M134.24 122.2a12.67 12.67 0 0 0-2.34.72c-.56.23-1.13.53-.93 1.35a1.24 1.24 0 0 0 1.27 1.09 5.36 5.36 0 0 0 3.19-.37.77.77 0 0 1 1.07.3c.25.41.46.85.1 1.32a.88.88 0 0 1-1.1.29 6.58 6.58 0 0 0-2.22-.42h-1.61a.79.79 0 0 0-.77.8c0 .48-.09 1 .5 1.19a18.85 18.85 0 0 0 4.53 1.2c.91 0 2-.24 2.18-1.18a6.74 6.74 0 0 0 0-4 3.49 3.49 0 0 0-3.87-2.29z" fill="#fdc436"/><path d="M134.95 131a10.45 10.45 0 0 0-3.38-1.33c-.43-.09-.83-.16-1 .34a1 1 0 0 0 .31 1.26 8.4 8.4 0 0 0 2.46 1.43 5.1 5.1 0 0 1 1.47.7c.32.3.56.61.21 1.05s-.61.61-1 .45a2.22 2.22 0 0 1-.8-.6 10.05 10.05 0 0 0-3.2-2.1c-.55.36-.62.94-.88 1.41a.8.8 0 0 0 .14 1.1 34.36 34.36 0 0 0 2.77 2.41 2.49 2.49 0 0 0 3.52-.35c1.43-1.91 2.43-3.89-.62-5.77z" fill="#fdc436"/><path d="M133 119c-1.08-.46-1.68.75-2.65.77-.57 0-1.1.29-.77 1.07.27.62.5 1.46 1.41 1s1.62-.31 2.37-.61c2.5-1 3.91-1.74 1.83-4.77-1.25-1.81-2.78-2.11-4.52-.74a14.23 14.23 0 0 1-2.15 1.57c-.33.17-.86.37-.68.88s.61.68 1.28.69c1.47 0 2.35-1 3.44-1.66.59-.35 1.09-.58 1.66-.06a.91.91 0 0 1 .25 1.12c-.33.6-.75 1.01-1.47.74z" fill="#fdc436"/><path d="M130.78 111.71c-.34-.36-1-.38-.93.1.15 1.67-1.25 2.09-2.16 2.86a2.93 2.93 0 0 0-1.19 2.6 20.51 20.51 0 0 0 4-3c.94-.95.96-1.85.28-2.56z" fill="#fdc436"/><path d="M125.34 113.92a1.85 1.85 0 0 0 2.64-1c.49-1.51-1-1.06-1.6-1.5 0 0-.13 0-.34.07.4 1-.81 1.35-1 2.15.11.11.19.24.3.28z" fill="#fdc436"/><path d="M128.68 135.75c-.58-.37-.88 0-1.09.48-.81 1.81-.57 2.84 1 4.23.4.34.71.65.47 1.2-.16.38-.37.78-.8.86-.63.11-.78-.43-1-.86a5.35 5.35 0 0 0-1.79-2.43c-.78-.54-1.43.06-2.13.21a.74.74 0 0 0-.51 1c.42 1.61 1 3 2.77 3.76a3.29 3.29 0 0 0 4-.94 5.39 5.39 0 0 0 2-3.35 6.67 6.67 0 0 0-2.92-4.16z" fill="#fdc436"/><path d="M126.25 49.36c1.19.7 1.36.58 1.53-.82a1.79 1.79 0 0 1 .21-.75c1-1.73.36-3.22-.86-4.44a13 13 0 0 0-3.75-2.44 1.65 1.65 0 0 0-2.52.83c-.05.1 0 .25 0 .64 1.61.52 2.49 2.44 4.59 2.5a1.34 1.34 0 0 1 1.12 1.51 1.53 1.53 0 0 1-1.28 1.43 1.06 1.06 0 0 1-1.23-.86c-.36-2.06-2.19-2.61-4-4.06.33 1.94-1.13 2.56-1.58 3.75a3.63 3.63 0 0 0 .54.05c2-.18 2-.2 2.85 1.71.23.54.59.43 1 .4a5.52 5.52 0 0 1 3.38.55z" fill="#fdc436"/><path d="M114.25 139.17c-.57-.12-.62.38-.75.76-.31.94-1 1.72-.63 2.9.25.84-.85 1.34-1.72.86s-1.09-1.52-.16-2.11a3.41 3.41 0 0 0 1.48-3c.05-.61-.33-.84-.75-1.09s-.75.07-1 .35a18.34 18.34 0 0 0-2.25 3.16 2.33 2.33 0 0 0-.2 2.31c.59 1.59 2 2.17 3.43 2.66.56.19 1-.16 1.49-.5 1.54-1.18 1.73-2.86 1.78-4.74v-.68a.85.85 0 0 0-.72-.88z" fill="#fdc436"/><path d="M119.44 140.23c-.78.37-.52 1-.38 1.59.19.77.2 1.64 1.13 2 .36.15.78.43.6.92a1.3 1.3 0 0 1-1 .68 1.15 1.15 0 0 1-1.61-1c-.21-1.21-.36-2.42-.54-3.63a.78.78 0 0 0-.67-.67c-.45-.07-.53.26-.64.6a5.67 5.67 0 0 0 .58 5.09 2.22 2.22 0 0 0 2.92 1.16c2-.47 2.4-1 2.59-3.71a7 7 0 0 0-.89-2.44 1.6 1.6 0 0 0-2.09-.59z" fill="#fdc436"/><path d="M102.54 128.62a1.24 1.24 0 0 0 .08 1.16.7.7 0 0 0 .9.22c.65-.27 1.49-.27 1.8-1.2-.66-.17-1.29-.36-1.93-.49-.33-.07-.72-.09-.85.31z" fill="#fdc436"/><path d="M110 136.62a1.44 1.44 0 0 0-.49-1.47c-.46-.5-.84-.23-1.25.07-.7.51-1.58.82-1.74 1.88a1 1 0 0 1-1.2.85 1.26 1.26 0 0 1-1.08-1.31 1.18 1.18 0 0 1 1.19-1.18c.2 0 .47.12.6 0 .79-.53 1.78-.92 2.17-1.8.25-.57-.43-1.08-.9-1.76a9 9 0 0 1-2.3 1.57 5 5 0 0 0-2.15 2.16c-.82 1.31.61 4.63 2.09 4.93a2 2 0 0 0 .61 0c1.31-.15 4.04-2.56 4.45-3.94z" fill="#fdc436"/><path d="M106.66 130.68a.43.43 0 0 0 0-.56.52.52 0 0 0-.73-.1 38.31 38.31 0 0 1-4.71 2.39c-.43.16-.95.5-.78 1s.74.51 1.5.57c1.47-.98 3.4-1.66 4.72-3.3z" fill="#fdc436"/><path d="M48.68 124a15.42 15.42 0 0 0 2.38 1.6c2.73 1.33 2.71 1.36 4.49-1v-.19a16.14 16.14 0 0 0-3.86-3.41 7.6 7.6 0 0 0-4-1.43 4.23 4.23 0 0 0-4.2 4.49c.07.66-.23 1.54.47 1.91 1.09.57 1.81 1.74 3.08 1.94a33 33 0 0 1 3.37.9 13.3 13.3 0 0 0 1.6.35.77.77 0 0 0 .88-.37c.23-.48-.08-.8-.43-1-2-1.26-3.9-2.53-5.91-3.69-.48-.27-1.13-.35-1.12-1a1.66 1.66 0 0 1 1-1.41c1.19-.59 1.74-.3 1.65 1.07a1.22 1.22 0 0 0 .6 1.24z" fill="#fdc436"/><path d="M61.27 143.3a2.47 2.47 0 0 0-1.27 1.77 9 9 0 0 0-.42 3.64c.13.76-.59 1-1.17 1.2a.81.81 0 0 1-.95-.15c-.43-.5-.21-1 0-1.53.12-.24.38-.4.52-.63a7 7 0 0 0 1-3.7c0-.71-.91-1.43-1.67-2a17.7 17.7 0 0 1-2.26 3.24c-1.88 2.3-1.2 4.82 1.57 5.88a27.51 27.51 0 0 0 3.22.59 2.32 2.32 0 0 0 2.74-1.22 7.79 7.79 0 0 0 1.29-5.67c-.21-1.89-.93-2.27-2.6-1.42z" fill="#fdc436"/><path d="M70.61 140.57c-.6-.45-2.4.21-2.52.93-.15.9 1.41 3.88 2.32 4.26s1.24.83.93 1.73c-.25.74-.58 1.42-1.56 1.33s-1.33-.68-1.22-1.79a3.77 3.77 0 0 0-.21-2c-.5-1.12-1-2.24-1.48-3.37a3.51 3.51 0 0 0-1.92.58c-.11.06-.26.15-.29.26-.2.64.33 1.14.34 1.76 0 .82.15 1.64.24 2.45a5.62 5.62 0 0 0 2.27 3.77c1.67 1.34 4.9.55 5.58-1.31.91-2.59-.31-6.96-2.48-8.6z" fill="#fdc436"/><path d="M77.51 136.66c-1-.53-2.08-1-3.11-1.49-1.19 1.62-1.26 1.68-.17 3s2 3.16 3.88 3.8a1.15 1.15 0 0 1 .84 1.28 1.2 1.2 0 0 1-1.18 1 1.15 1.15 0 0 1-1.25-.84 19.59 19.59 0 0 0-2.52-3.95 2.3 2.3 0 0 0-1.3-.94c-.62-.18-.89.27-1.22.57s-.12.61.09.91c1.11 1.57 2.13 3.19 3.32 4.7 1.46 1.85 2.92 1.91 4.59.35.3-.28.56-.6.86-.89a2.47 2.47 0 0 0 .69-2.64 7.14 7.14 0 0 0-3.52-4.86z" fill="#fdc436"/><path d="M55.43 141.88c1.25-1.58 1.23-1.6-.06-3-.49-.53-.82-.56-1.33-.06a13.43 13.43 0 0 0-2.5 3.22 3.49 3.49 0 0 1-.78 1.19 1.13 1.13 0 0 1-1.77-.08c-.46-.69-.33-1.72.42-1.91 1.54-.4 2.27-1.67 3.24-2.69 1.27-1.34 1.25-1.36.18-3.34-.82.45-1.62 1-2.47 1.36a5.22 5.22 0 0 0-3.16 5.24 4.65 4.65 0 0 0 3.16 4c1.22.37 2.66-.39 3.7-2 .45-.58.87-1.29 1.37-1.93z" fill="#fdc436"/><path d="M52.53 133.31c-.23-.61-.76-.35-1.23-.32a18.05 18.05 0 0 0-5.57 1.29 1.33 1.33 0 0 1-1.62-.53 1 1 0 0 1-.07-1.31 1.38 1.38 0 0 1 1.67-.38 1.8 1.8 0 0 1 .37.17 2.2 2.2 0 0 0 2 .07 8.22 8.22 0 0 1 2.6-.5 5.16 5.16 0 0 0 1.41-.28.61.61 0 0 0 .36-.67.46.46 0 0 0-.55-.47c-1 .21-1.68-.4-2.49-.74a8.89 8.89 0 0 0-4-.62 3.36 3.36 0 0 0-2.93 3.57c0 .43.11 1.12.19 1.8.26 2.3 1.13 2.95 3.43 2.52a20.45 20.45 0 0 0 5.82-2.49c.36-.19.83-.53.61-1.11z" fill="#fdc436"/><path d="M81.06 134c-1.53-1.23-3.41-1.26-5.2-1.59a.75.75 0 0 0-1 .53 1.07 1.07 0 0 0 .2 1.14 4.36 4.36 0 0 0 1.68 1.14 12.11 12.11 0 0 1 2.53 1.34c2.32 1.41 3.07 1.35 5-.49 1.27-1.18 1.27-1.35-.15-2.81-1.12 1.99-1.41 2.07-3.06.74z" fill="#fdc436"/><path d="M77.95 128.71c-.27-.38-.41-.88-.92-1s-1.22-.38-1.39.56c-.09.46-.26.92-.34 1.38-.21 1.24 0 1.72 1.27 1.81 2 .13 3.83 1.58 5.91.58.47-.23.75.63 1.34.25-.26-.74-.23-1.61-.91-2.19-2.5 1.08-3.38.84-4.96-1.39z" fill="#fdc436"/><path d="M57.09 121.22c-1.11.28-2.13.45-2.59-.47s.32-1.77.93-2.51c.32-.39 1-.57.87-1.35-2.23-.53-3.47 1.5-5.4 2.13 1.82 1.31 3.44 2.79 5.17 4.21a4 4 0 0 0 1.02-2.01z" fill="#fdc436"/><path d="M24.75 92a1 1 0 0 0-1.59.07 14.21 14.21 0 0 0-2.68 3.07 6.49 6.49 0 0 1-1 1.32 1.15 1.15 0 0 1-1.48.34 1.55 1.55 0 0 1-.78-1.56c.07-.6.49-1.17 1-1.1 1.59.2 2.3-1 3.21-1.84 1.87-1.74 1.85-1.76 0-3.6-.39-.38-.67-.77-1.38-.55A8.26 8.26 0 0 0 15 94.74a4.7 4.7 0 0 0 2.71 4.45c1.54.82 2.89.15 4.18-.71 1.78-1.2 2.55-3.16 3.64-4.86.47-.8-.27-1.21-.78-1.62z" fill="#fdc436"/><path d="M19.62 86.39a1 1 0 0 0-1.08-.78c-1.23 0-2.43-.54-3.7-.09h-2.22a.91.91 0 0 1-.92-.93c0-.46.32-.73.72-.9s.88-.34 1.18-.06c1.11 1.06 2.49.5 3.73.68.83.12 2.62-1.15 2.69-2 .09-1-1-.93-1.55-1.35a3.16 3.16 0 0 0-1.11-.52c-4.3-1.13-5.93-.21-7 3.81A3.41 3.41 0 0 0 13 88.62a7 7 0 0 0 5.87-1.14c.39-.25.96-.48.75-1.09z" fill="#fdc436"/><path d="M30 96.36c-.19.51-.37 1-.54 1.55-.08.26-.17.71 0 .76 1.27.27.58 1 .51 1.67a1.46 1.46 0 0 1-1.54 1.35 3.71 3.71 0 0 1-2.36-1.38c-.15-.58-.06-1.31.48-1.41 1.64-.28 1.89-1.65 2.38-2.78.87-2 .79-2-1.37-2.37a.93.93 0 0 0-1.14.52c-.55.94-1.19 1.83-1.78 2.75a6.36 6.36 0 0 0-.89 2.71 4.37 4.37 0 0 0 1.78 3.48c1.91.8 5.08-.23 5.83-2.21.84-2.19 2.06-4.3 2.11-6.76-2.63-.09-2.63-.09-3.47 2.12z" fill="#fdc436"/><path d="M43 97.44a.62.62 0 0 0-.79-.47 8.09 8.09 0 0 1-2 .5c-1.07 0-1.42.51-1.69 1.38a9.28 9.28 0 0 0-.76 3.15 1.26 1.26 0 0 1-1.26 1.35c-.63 0-1.25-.91-1.22-1.65 0-.5.48-.62.69-.92 1.18-1.71 2.45-3.41 2-5.84a2.58 2.58 0 0 1-2.94-.61c-.72 2-1.43 3.95-2.09 5.88a3.73 3.73 0 0 0 .13 2.61 3.41 3.41 0 0 0 3.73 1.91 2.25 2.25 0 0 0 2.16-2.1c.07-1.93 1.26-2.93 2.64-3.87.34-.23.71-.41 1.05-.63a.6.6 0 0 0 .35-.69z" fill="#fdc436"/><path d="M21 80.46c.47.13.75-.16 1-.55a.75.75 0 0 0-.05-.94 9.1 9.1 0 0 0-1.26-1.34c-1-.78-1.85-1.81-3.14-2.25a1.15 1.15 0 0 1-.68-1.53c.2-.62.83-.69 1.34-.79.67-.12 1 .33 1.07.94a2.19 2.19 0 0 0 .72 1.62l3 2.8c.41-.52.77-1 1.17-1.47a.78.78 0 0 0 .23-.91c-1-2.33-2.13-4.61-4.68-5.7-.79-.34-1.7-.6-2.33 0a32.4 32.4 0 0 0-2.92 2.54 2.37 2.37 0 0 0-.39 2.83c1.48 2.75 4.04 3.97 6.92 4.75z" fill="#fdc436"/><path d="M26.22 75.26c.64-.33 1.43-.5 1.18-1.6-.34-1.46-.47-3-1.58-4.16a.92.92 0 0 1 .08-1.45A1.7 1.7 0 0 1 28 68c.51.3.8.82.31 1.37-1.28 1.46.4 2.87.06 4.31 0 .07.15.28.24.28 1 0 1.91.1 2.86.07.42 0 .48-.41.4-.78A41.2 41.2 0 0 0 31 69c-.84-2.69-1.92-3.5-4.29-3.54-1.87 0-2.6.33-2.84 1.76A10.58 10.58 0 0 0 25 74.61c.26.49.52 1.02 1.22.65z" fill="#fdc436"/><path d="M34.81 74.52c.8 0 .67-.76.8-1.22a7.64 7.64 0 0 0 .14-3.46c-.48-2.65-.25-2.89 2.31-2.29l.78-2.67c-3.31-1-6.52.72-6.66 3.76a18 18 0 0 0 .94 5c.19.75 1.01.86 1.69.88z" fill="#fdc436"/><path d="M38.46 68.87c-.63.37-1.38.48-1.43 1.21a27.06 27.06 0 0 1-.48 4.48.47.47 0 0 0 .41.59.42.42 0 0 0 .49-.26c.7-1.69 2-1.93 3.54-1.39a1.24 1.24 0 0 0 1.22-.31c-.87-1.77-2.97-2.49-3.75-4.32z" fill="#fdc436"/><path d="M39.12 43a11.58 11.58 0 0 0 7.45 0c.65-.21 1.3-.41 1.14-1.38s-.45-1.41-1.37-1.49a9.61 9.61 0 0 0-4.83.34c-.68.29-1.6.43-2-.34s.26-1.39.64-2a1 1 0 0 1 .29-.29c.38-.26.92-.35 1.08.06.59 1.53 1.85 1 2.93 1.07.55 0 1.09.06 1.64.1.87.07 1.28-.32 1.25-1.18s.55-1.88-.81-2.16c-1.53-.32-3.07-.67-4.62-.86-3.9-.46-5.32 3-4.91 5.44A3.25 3.25 0 0 0 39.12 43z" fill="#fdc436"/><path d="M41.13 32.81c1.73 1.28 3.82 1.33 5.79 1.81.39.1.91.35 1.06-.15s.55-1.35-.12-1.89a3.84 3.84 0 0 0-1.43-.76c-1.47-.36-2.53-1.93-4.29-1.47-.1 0-.25-.1-.36-.18-.34-.23-.75-.49-.66-.95a1.78 1.78 0 0 1 1.17-1.32c.42-.16.75 0 1 .42 1.2 1.57 3 2.24 4.71 3.07.68.33 1-.15 1.25-.67s1.09-1.2.32-1.78c-1.36-1-2.56-2.24-3.85-3.34-1.54-1.31-3.22-.91-4.59-.05a4.76 4.76 0 0 0-2.33 4.11 4.86 4.86 0 0 0 2.33 3.15z" fill="#fdc436"/><path d="M48.62 26.67c.57.47 1.09 1.28 1.87 1 1-.3.9-1.43 1.23-2.22a1.33 1.33 0 0 0-.16-1 4.63 4.63 0 0 0-2.41-2.92.76.76 0 0 1-.48-1 1.4 1.4 0 0 1 1.3-.85.73.73 0 0 1 .89.65c0 1 .9 1.66 1.19 2.56a1.57 1.57 0 0 0 1.88 1.25c1.31 0 1.53-.13 1.61-.71.2-1.46-1.89-5.27-3.22-5.94-2.42-1.21-6.55 2.14-6.16 4.05s.84 3.82 2.46 5.13z" fill="#fdc436"/><path d="M50.3 49.53c.37-.31.83-.57.62-1.15a1.14 1.14 0 0 0-1.47-.76 11.58 11.58 0 0 0-1.55.49c-1.07.43-2.13.88-3.19 1.34a1.35 1.35 0 0 1-1.71-.22c-.45-.5-.18-1 .09-1.51a1 1 0 0 1 1.58-.32c.83.66 1.51.29 2.26-.07s1.5-.64 2.24-1c.09 0 .15-.22.16-.34a2.16 2.16 0 0 0-2.29-1.95c-1 .28-2 .45-3 .65A3.43 3.43 0 0 0 41 48.21c.1 1.78 1.6 3.11 3.94 3.24a10.34 10.34 0 0 0 5.36-1.92z" fill="#fdc436"/><path d="M56.7 22.57c.16 1 .5 1.69 1.68 1.59a6 6 0 0 1 1.35.28c-.15-1.74.08-3.3-1-4.64a1.12 1.12 0 0 1 .11-1.65c.55-.47 1.14-.24 1.64.24A1.42 1.42 0 0 1 61 20c-.5 1.27-.18 2.57-.12 3.85 0 .43-.06 1 .64 1.07s.76-.45.9-.92a11.67 11.67 0 0 0 .12-5.67A3.84 3.84 0 0 0 59 15.54a3.4 3.4 0 0 0-2.87 3.81c.06 1.09.39 2.14.57 3.22z" fill="#fdc436"/><path d="M49.3 51.81c.67.41 1.36.79 2 1.23s.72 0 1-.34a.76.76 0 0 0-.25-1.21c-.45-.3-.53-1.28-1.38-.86-.52.26-1.18.37-1.37 1.18z" fill="#fdc436"/><path d="M97 27.65a35.31 35.31 0 0 0 6.21 3.16c.4.16.78.34 1.07-.15s.74-1 .22-1.47c-1.46-1.31-2.57-3.07-4.65-3.58a3.71 3.71 0 0 1-1-.33 1.26 1.26 0 0 1-.52-1.62 1.72 1.72 0 0 1 1.82-1.06c.65 0 .89.55.86 1.17 0 .41-.13.84.23 1.15q1.87 1.6 3.74 3.19a.72.72 0 0 0 1.09-.08c.31-.32.49-.62.19-1.07-1.3-1.92-2.23-4.05-3.4-6s-2.82-1.91-4.55-.5a13.35 13.35 0 0 0-2.57 3.18 2.87 2.87 0 0 0-.39 1.58A3 3 0 0 0 97 27.65z" fill="#fdc436"/><path d="M123.09 29.24c1.36-1.16 3.29-1.66 3.81-3.74.15-.62.84-.6 1.4-.5a1.26 1.26 0 0 1 1.11 1.06 1.12 1.12 0 0 1-.64 1.18c-.29.17-.66.22-.95.38-1.2.66-2.41 1.29-3.55 2a1.56 1.56 0 0 0-.45 2.18c.41.82 1 .37 1.61.26a11.88 11.88 0 0 0 4.41-2.06 4.31 4.31 0 0 0 1.89-4.64c-.19-1.07-3-3.78-4.05-4a2.18 2.18 0 0 0-1.74.38 14.53 14.53 0 0 0-2.65 2.54c-1.52 1.49-2.29 3.01-.2 4.96z" fill="#fdc436"/><path d="M129.9 32.38c-1.33.31-2.66.62-4 1a3.06 3.06 0 0 0-1.59.89c-.47.55-.19 1.45.45 1.37 2.12-.27 4.12 1.15 6.27.38a1 1 0 0 1 1.38.53c.22.53-.13.9-.44 1.27-.57.69-1.13.88-1.91.23a7 7 0 0 0-4.13-1.3l-.93.12c-1.22.2-2 .87-1.9 1.74s.92 1.1 1.65 1.27a31.78 31.78 0 0 0 4.6.93 3.66 3.66 0 0 0 3.55-1.53 7.73 7.73 0 0 0 1.17-4.68 1.92 1.92 0 0 0-1.39-1.85 4.71 4.71 0 0 0-2.78-.37z" fill="#fdc436"/><path d="M118.46 19.62c-.09-.63-.36-1.24.35-1.6a1.31 1.31 0 0 1 1.51.37c.58.58.08 1.12-.2 1.66s-.65 1.35-1 2c-.42.86-.39 1.57.56 2.06a10.28 10.28 0 0 1 1 .67c2-1.62 2.43-2.18 2.75-3.93.45-2.45-1.88-5.08-4.24-5.57-3.72-.78-6.39 5.14-5.06 7.77a1.11 1.11 0 0 0 1.32.64 3.52 3.52 0 0 0 3.01-4.07z" fill="#fdc436"/><path d="M107.56 26.33c1.58-.57 1.77-.65 1.56-1.23-.48-1.3-.42-2.69-.8-4-.19-.64-.8-.92-1.05-1.49a1.09 1.09 0 0 1 .38-1.44 1.58 1.58 0 0 1 1.91-.06c.45.29.71.7.39 1.2-.88 1.4-.15 2.78.08 4.13.25 1.53.72 1.65 2.13 1 .64-.29 1-.68.8-1.42a12.26 12.26 0 0 1-.3-3.26 6 6 0 0 0-.61-2.36 3.28 3.28 0 0 0-3.49-2.26 4.39 4.39 0 0 0-3.72 3.06 6.59 6.59 0 0 0 1.42 6.3c.51.57.84 1.24 1.3 1.83z" fill="#fdc436"/><path d="M66.21 25.67c.21-1.39 1-2.72.43-4.18-.2-.47-.41-.92.09-1.28a1.4 1.4 0 0 1 1.55-.1c.58.33.47.94.33 1.47-.09.32-.36.59-.44.91a13.09 13.09 0 0 0-.82 3.58.79.79 0 0 0 .5.81.75.75 0 0 0 .91-.22c1.7-2 3.06-5.72.55-8.16-1.8-1.73-3.87-1.36-4.86 1-.59 1.38-.24 2.85-.59 4.05-.06 1.69.29 2.32 1.38 2.58.41.07.89.07.97-.46z" fill="#fdc436"/><path d="M96.33 32.26c.55 1 1.38 1.13 2.3 1.41 1.34.41 2.73.2 4.06.54.66.17.84-.27.84-.82a1.52 1.52 0 0 0-.89-1.48c-1.28-.66-2.51-1.4-3.77-2.09a8.6 8.6 0 0 0-3.48-1.14 2.79 2.79 0 0 0-2.59.93A6.49 6.49 0 0 0 91.3 33c1.18.13 2.31.91 3-.86a1.09 1.09 0 0 1 2.03.12z" fill="#fdc436"/><path d="M70.42 28.81c.52.37.87.1 1.29-.14a3.49 3.49 0 0 0 1.47-1.87.85.85 0 0 1 1.34-.45 1.1 1.1 0 0 1 .18 1.49 4.33 4.33 0 0 1-.92.78 6.11 6.11 0 0 0-1.22 1.07c-.33.49-.63 1.16-.08 1.68s.87-.12 1.27-.32.92-.58 1.39-.85a2.65 2.65 0 0 0 1.38-2.53 4.76 4.76 0 0 0-.81-2.92 1.44 1.44 0 0 0-1.33-.75c-1.51 0-4.15 2-4.49 3.44a1.2 1.2 0 0 0 .53 1.37z" fill="#fdc436"/><path d="M73.29 34.13c.49.89 1 1.17 2.21.53a4.5 4.5 0 0 1 4.43 0c-.56-1.55-.56-2.87-2.07-3.09a5.93 5.93 0 0 0-4.1.88 1.14 1.14 0 0 0-.47 1.68z" fill="#fdc436"/><path d="M94.66 34.5a12 12 0 0 0 1 2.77c1.58-.82 2.78-.43 3.66 1.2a5.54 5.54 0 0 1 1.47-3.32c-2.3-.04-4.03-1.15-6.13-.65z" fill="#fdc436"/><path d="M73.24 36.78c-.11.91-.19 1.82-.28 2.74.69.06 1-.24 1-.78a5.28 5.28 0 0 1 .19-1.79c.14-.33.29-.66-.23-.72a.6.6 0 0 0-.68.55z" fill="#fdc436"/><path d="M99.26 82.54a19.75 19.75 0 0 1-1.33 6.83 6.45 6.45 0 0 1-2.15 2.93c-3.57 2.9-7.66 3.61-12.11 3-2.23-.32-3.82-1.74-5.5-3a26.31 26.31 0 0 1-3.27-3.1 6.71 6.71 0 0 1-1.25-3 11.79 11.79 0 0 1 .3-8.6 20 20 0 0 1 3.7-5.63 9.21 9.21 0 0 1 3.94-2.49c1.87-.57 3.56-1.64 5.71-1.38a13.66 13.66 0 0 1 7.42 3.13c3.38 2.85 4.67 6.58 4.54 11.31zm-23.59-1.37c-.27 4.16 1.56 7.13 4.17 9.7a6.24 6.24 0 0 0 3.08 1.54 13.79 13.79 0 0 0 6.7-.06c2.92-.78 5.28-2.31 6.37-5.24a12.94 12.94 0 0 0 .41-8.82c-2.27-6.89-9.69-9.65-16.58-5.86a2.94 2.94 0 0 0-.75.69c-2.07 2.4-3.6 5.02-3.4 8.05z" fill="#fdc436"/><path d="M87.18 91.7c-1.57 0-1.57 0-1.82-1.58a2.62 2.62 0 0 0-3.6-1.93c-1.74.6-1.85.57-2.91-.88-.2-.28-.37-.57-.57-.85-.48-.67-.48-1.1.35-1.62a2.33 2.33 0 0 0 1.05-3.16 2.13 2.13 0 0 0-2-1.44c-.92 0-1-.59-.81-1.25s.47-1.43.72-2.13c.32-.89.81-1 1.74-.67a2.89 2.89 0 0 0 4.16-2.64c0-.47-.43-1.1.46-1.32 1.17-.29 2.58-.05 3 .59 1.62 2.54 2.05 2.77 4.76 2a1.16 1.16 0 0 1 1.42.4c.38.48.76 1 1.1 1.48.49.73.34 1.22-.56 1.5-1.2.37-2.16 1.06-1.86 2.51a4.14 4.14 0 0 0 2 2.93c.46.25 1.27.25 1.28.86A4 4 0 0 1 94 86.91c-.35.45-.84.11-1.31 0a2.56 2.56 0 0 0-3.21 2.6c.22 1.93.12 2-1.77 2.18z" fill="#ed1c24"/><path d="M170.56 74.28a29.93 29.93 0 0 0-2.9-8.73 20.81 20.81 0 0 0-7-7.93c-1.87-1.26-2.45-2.37-1.63-4.58a4.66 4.66 0 0 0-2-5.92c-.23-.15-.42-.38-.66-.5-.74-.36-.73-.9-.45-1.55a4.59 4.59 0 0 0 .22-.58c1.39-4.72-1-7.67-5.91-7.27a1.2 1.2 0 0 1-1.29-.73 7.63 7.63 0 0 0-6-4.08c-1.18-.09-1.29-.67-1.36-1.57-.43-6.44-3.68-11.51-7.91-16.07a9.32 9.32 0 0 0-1.88-1.86c-4.93-3-9.95-5.82-15.76-6.71a23.33 23.33 0 0 0-7.36-.44A28 28 0 0 0 98.77 9c-1.35.81-1.84.53-2.35-.92a9.49 9.49 0 0 0-.52-1.34C95 5 93.56 3.6 91.62 3.65a3.42 3.42 0 0 1-3.07-1.57c-2.89-3.34-7.66-2.54-9.2 1.53-.37 1-.86.89-1.53.78-2.55-.42-4.11.9-5.43 2.87-.55.82-.25 1.74-.59 2.54a4 4 0 0 1-2-.65 24.42 24.42 0 0 0-16.6-1.31c-2.07.58-4 1.51-5.94 2.25-3.59 1.34-6.37 4-9.47 6.08-.16.11-.24.34-.39.47-1.95 1.76-2.75 4.22-3.94 6.44a30.25 30.25 0 0 0-3.33 9.23c-.15.88-.42 1.31-1.37 1.39a18.53 18.53 0 0 0-2.59.62 2.65 2.65 0 0 0-1.58.89 12.57 12.57 0 0 0-2.33 3.35 1.5 1.5 0 0 1-1.81 1.19c-5-.45-8.31 6-5.42 9.93a2.34 2.34 0 0 1 .27 2.43 8.7 8.7 0 0 0-.23 6c.35.88 0 1.39-.73 1.86a32.69 32.69 0 0 0-7.47 7A28.48 28.48 0 0 0 .63 80C0 83-.44 86.15.71 89.3c.7 1.92 1.28 3.89 2.11 5.77.41.93.52 2 1.3 2.77a24.41 24.41 0 0 1 2.72 3.6 7.42 7.42 0 0 0 1.7 1.75 55.73 55.73 0 0 0 6.81 4.57c1.63.86 1.65 1.39.55 2.89a8.33 8.33 0 0 0 .3 10.24 2.06 2.06 0 0 1 .33 1.9 4.79 4.79 0 0 0 .81 3.91c1.51 1.79 3.31 3.15 5.76 3.14a3.22 3.22 0 0 1 2.44 1.16c1.74 1.68 3.66 3.15 6.32 2.8.75-.1.73.48.86.88.77 2.26 1.4 4.58 2.31 6.79a25.61 25.61 0 0 0 6.2 9.54c1.61 1.47 3.56 2.27 5.24 3.54a33 33 0 0 0 9.71 4.84 18.9 18.9 0 0 0 6.19 1.37 22 22 0 0 0 8.82-1.76c1.12-.5 2.26-1 3.39-1.48 1.93-.84 1.94-.85 3.36.66 1.93 2.05 4.22 3.1 7 2.13a1.61 1.61 0 0 1 2.16.67 6.5 6.5 0 0 0 9.71 0 3.55 3.55 0 0 1 3.58-1.41 6.28 6.28 0 0 0 6.4-2.79 14.88 14.88 0 0 0 1.31-2.08 1 1 0 0 1 1.34-.56c1 .28 2 .57 3 .87a17.29 17.29 0 0 0 9.7.58 2.62 2.62 0 0 1 .81-.14 10.31 10.31 0 0 0 5.25-1.55 9.21 9.21 0 0 1 .88-.52 25.75 25.75 0 0 0 9-5.65 29.73 29.73 0 0 0 5.83-7.64 28.39 28.39 0 0 0 3.32-10.26c.13-1.12.66-1.42 1.64-1.68a7.14 7.14 0 0 0 5.39-4.85 2.39 2.39 0 0 1 1.73-1.75c4-1.41 5.39-4.81 3.62-8.66a1.36 1.36 0 0 1 .09-1.49 9.09 9.09 0 0 0 1.06-7.11c-.11-.48-.28-1 .27-1.27 1.1-.55 1.58-1.68 2.43-2.46 4-3.63 5.72-8.46 6.91-13.49a33 33 0 0 0 .19-12.79zm-26.84-40.12a4.43 4.43 0 0 1 4 3.73c.06.34 0 .69.05 1 .1.69.56 1.06 1.13.62.84-.66 1.64-1 2.6-.4a5.46 5.46 0 0 1 2.74 3.41c.3 1.39-.75 2.94-.24 3.93s1.72 1.82 2.26 3a5.49 5.49 0 0 1 0 4.57.87.87 0 0 1-1.27.57c-1.59-.56-3.21-1.09-5.06-1.71.82-.82 1.44-1.36 2-2 1.06-1.28.92-2.06-.48-3-.38-.26-.8-.46-1.26-.72.31-.6.63-1.12.85-1.68a2.59 2.59 0 0 0-2.36-3.77 3.06 3.06 0 0 0-.82 0c-.91.19-1.25-.27-1.32-1.08a1.79 1.79 0 0 0-.1-.4c-.7-2.16-1.62-2.64-3.88-2-.26.07-.49.27-.93-.09-.26-.62.18-1.42.14-2.21-.05-1.54.33-1.82 1.95-1.77zM143 51.82c2-.88 3.68-2.3 5.84-2.8.86-.2 2-.68 2.35.34s-.77 1.47-1.45 2c-2.1 1.53-4.5 1.16-7.05 1.11.24-.47.31-.61.31-.65zm-3.19.62a7.37 7.37 0 0 1-4.47.89 10.07 10.07 0 0 1 3.17-3.72c1.94-1.25 3.6-2.94 5.48-4.31a13.28 13.28 0 0 1 2.69-1.47 2.66 2.66 0 0 1 1.4-.23c1.68.19 2.22 1.19 1.19 2.5a8.94 8.94 0 0 1-2.86 2.6c-2.19 1.16-4.41 2.39-6.55 3.74zm4.56-12.89a1 1 0 0 1 .83 1.36 6.23 6.23 0 0 1-.77 1.43 17.7 17.7 0 0 1-5.8 5.36c.79-2.21 1.52-4.45 2.39-6.63.45-1.02 2.34-1.75 3.4-1.52zM101 10.1c1.31-.4 2.59-.88 3.87-1.37 2.51-1 5.12-.81 7.72-.7a40.81 40.81 0 0 1 11.27 2.13 19 19 0 0 1 7.14 4.31 31.56 31.56 0 0 1 7.42 10.23 23.12 23.12 0 0 1 1.6 8.82 28.62 28.62 0 0 1-2.22 13 40.36 40.36 0 0 1-4 6.67c-.53.74-1 .92-1.86.29a4.2 4.2 0 0 0-3.08-.9c-1 .11-1.42-.56-.9-1.49.4-.71.95-1.34 1.4-2a41.15 41.15 0 0 0 4.5-7.59 19.75 19.75 0 0 0 .84-12.66c-1.37-5.21-4.95-8.71-9.13-11.7a20.81 20.81 0 0 0-8.34-3.81c-7.66-1.41-14.2 1-20 5.85-3.61 3-5.64 7.17-7.34 11.46a5.82 5.82 0 0 0-.19 1.62 2.39 2.39 0 0 1-1.2 2.12c-.63-1.53-1.22-3.05-2.89-3.82-.72-.33-.39-1.21-.2-1.86a30.28 30.28 0 0 1 5-9.85 31.52 31.52 0 0 1 5.27-5.75 16.29 16.29 0 0 1 5.32-3zm46 85.23a1.37 1.37 0 0 0 1.59-.63 1 1 0 0 0-.31-1.43c-1.44-.94-1.59-2.59-2.22-4-.25-.55-.39-1.22.48-1.5s1.5-1.26 2.38-.29c1.87 2.08 3.32 4.33 2.67 7.35a3.86 3.86 0 0 1-5.59 2.61c-2.18-1.2-3-3.29-3.48-5.54a16.24 16.24 0 0 1-.2-1.82c-.21-.73.15-1.15 1.08-1.41s1.35.15 1.61 1c.46 1.44 1.62 2.7.9 4.44-.24.6.39 1.1 1.09 1.22zm2.9-8.31c-.24-.36-.64-.77-.2-1.28a1.1 1.1 0 0 1 1.48-.2 18.75 18.75 0 0 1 3.95 3.23c.25.23.44.53.69.75.69.59 1.27.32 1.73-.31s.3-1.24-.47-1.67c-.18-.1-.38-.25-.56-.24-2.34.18-3.36-1.76-4.9-2.88 1.18-1.5 1.18-1.5 2.67-1l3.09 1.09a5.75 5.75 0 0 1 1.77 1c1.91 1.57 2 3.27.12 5-2.22 2-2.69 2-5.39.54a11.6 11.6 0 0 1-3.99-4.05zm9.42-4.42c-.61.07-1.23.09-1.84.13v-.05a14.29 14.29 0 0 1-1.44 0c-.66-.07-1.53 0-1.7-.79s.64-1 1.11-1.36a3 3 0 0 1 2.91-.23c.25.09.44.33.68.45a1.42 1.42 0 0 0 1.83-.45c.51-.58.26-1.13-.11-1.68-.86-1.27-1.1-1.31-2.28-.29-1.44 1.25-4.62.61-5.52-1.11a.71.71 0 0 1 .37-1c2.23-1.16 4.54-2 7.07-1 1.49.59 2.39 2.59 2.13 4.5a3.36 3.36 0 0 1-3.22 2.87zm-3.39-9.35a16.35 16.35 0 0 1-3.52 2.08c-.63.3-1.64-.33-2.25-1.31-.45-.74.08-1.21.58-1.5 1.29-.76 2.3-2 3.77-2.43a.89.89 0 0 0 .69-1.1 1.43 1.43 0 0 0-1.2-1.24 1 1 0 0 0-1 .86c-.45 2.13-2.61 2.45-3.89 3.7-.49.48-1-.19-1.42-.47s-.38-.58-.16-1c.63-1.29 1.11-2.65 1.76-3.93a3.57 3.57 0 0 1 1.67-2c1.18-.48 2.35-1.43 3.64-.45 1.88 1.43 3.06 3 3.14 4.76a4.87 4.87 0 0 1-1.83 4.03zm-7.77-7.59a24 24 0 0 1-1.35 3.64 3.41 3.41 0 0 1-.87 1.13c-.42.38-.92.14-1.35 0s-.34-.5-.26-.86c.31-1.51.17-3.15 1.49-4.35a1.11 1.11 0 0 0 0-1.66 1.22 1.22 0 0 0-1.64-.36 1.26 1.26 0 0 0-.56 1.72c.5 1.56-.2 3-.58 4.53a.77.77 0 0 1-.93.6c-.53-.07-1.08-.07-1.65-.11-.13-1.28-.3-2.5-.38-3.72a8.17 8.17 0 0 1 1.61-5 1.33 1.33 0 0 1 .94-.73 6 6 0 0 1 4.64 1.2c1.22 1.01 1.22 2.54.87 3.96zm-.71 8.18c2 1.88 3.65 4.08 6 5.6.62.41.46.9 0 1.34-1.84 1.63-3.48 3.59-5.56 4.81a13.13 13.13 0 0 1-10.26 1.66 1.54 1.54 0 0 1-.85-.5c-.61-.73-1.24-1.44-2.14-2.48a11 11 0 0 0 4.68-.94c1.75-.78 2-2.43.49-3.66a10.65 10.65 0 0 0-5.12-1.92c-.67-.12-1.36-.15-2-.23-.25-.75.44-.76.77-1 1.53-1.07 3-2.17 3.53-4.09a1.2 1.2 0 0 1 1.2-.91c3.3-.46 6.5-.3 9.24 2.31zm-12.17 20.74a1.87 1.87 0 0 1-.56-1.63c.23-1.13-1.11-1.8-1.16-3 1.23-.17 2.5 0 3.73-.8.4 2.61-.54 4.73-1.35 6.88.54-.37 1 .16 1.53.17 1.06 0 2-1.09 1.37-1.7-1.4-1.39-.61-2.77-.33-4.17s.69-1.68 2-1.27c.38.11.58.28.58.69 0 1.77.52 3.53.1 5.32-.52 2.21-2.35 3.2-4.28 2.38-.71-.3-.8-.85-1-1.41a2.33 2.33 0 0 0-.63-1.46zm-15.1 49.29c-.93-.4-.93-1.27-1.13-2-.14-.58-.4-1.22.38-1.59a1.6 1.6 0 0 1 2.11.6 7 7 0 0 1 .89 2.44c-.2 2.68-.64 3.25-2.59 3.71a2.22 2.22 0 0 1-2.92-1.16 5.67 5.67 0 0 1-.58-5.09c.11-.34.2-.68.64-.6a.78.78 0 0 1 .67.67c.19 1.21.34 2.42.54 3.63a1.15 1.15 0 0 0 1.61 1 1.3 1.3 0 0 0 1-.68c.2-.5-.26-.8-.62-.93zm-5.36-6.26a8.89 8.89 0 0 1-5.27-4.29 19.41 19.41 0 0 1-1.43-4.05c-.15-.46-.25-1 .19-1.34a8.6 8.6 0 0 0 2.35-3.21 24 24 0 0 0 1.28 2.44c.76 1.11 1.74 1 2.35-.18a8.75 8.75 0 0 0 .82-3.79 5 5 0 0 1 .28-2.43c.81.93 1.57 1.76 2.29 2.64a6 6 0 0 0 1.27 1.33c2 1.3 4 .36 4.34-2 .36-2.55.33-2.68-1.18-5.38 4.83-.27 7.83 4.63 7.72 9.14-.1 4-2 7.19-4.07 10.36a2.09 2.09 0 0 1-1.58.87c-3.1.28-6.18.78-9.36-.11zM91.53 141a3.88 3.88 0 0 1 .87-2.42 5.16 5.16 0 0 1 1.46 2.42 50.81 50.81 0 0 1 1.61 7.81 23.14 23.14 0 0 1-.42 5.5 2.53 2.53 0 0 1-.63 1.27c-.92 1.12-1.94 1.08-2.57-.22A10.43 10.43 0 0 1 91 149a31.64 31.64 0 0 0 .53-8zm-1-7.3a4.19 4.19 0 0 1-.85-3.28 9.85 9.85 0 0 1 .49-2.91c1.59 1.49 2.49-.13 3.73-.77a6.43 6.43 0 0 1 1.23 6.47 2.78 2.78 0 0 1-2.37 2c-1.14.2-1.69-.71-2.26-1.48zm-30-115.34c-.5-.48-1.09-.72-1.64-.24a1.12 1.12 0 0 0-.11 1.65c1.07 1.34.85 2.9 1 4.64a6 6 0 0 0-1.35-.28c-1.18.09-1.52-.6-1.68-1.59s-.51-2.13-.62-3.21A3.4 3.4 0 0 1 59 15.54a3.84 3.84 0 0 1 3.61 2.81 11.67 11.67 0 0 1-.17 5.65c-.13.47-.26 1-.9.92s-.62-.64-.64-1.07c-.06-1.28-.38-2.58.12-3.85a1.42 1.42 0 0 0-.54-1.61zm1 8a12 12 0 0 0 1.79.46 6.61 6.61 0 0 1 5.3 3.41 17.77 17.77 0 0 1 2.56 5.8 1.2 1.2 0 0 1-.18 1.19c-1.37-.51-2.71-.46-3.44 1.1-.68-.23-.74-.78-1-1.13-1.15-1.39-2.41-1.18-3.15.45a9.76 9.76 0 0 0-.41 2.71c-.67-.07-.79-.7-1.16-1-.69-.56-1.3-1.23-2-1.76a3.21 3.21 0 0 0-3.64-.48 3.46 3.46 0 0 0-.78 3.61c.32 1 .79 2 1.23 3-3.86-1.14-4.42.45-3.68 4-1 .06-1.35-.75-1.78-1.37-1.39-2-1.55-4.33-1.76-6.66-.27-3 .93-5.64 1.84-8.35.5-1.49 1.21-2.91 1.75-4.39a1.85 1.85 0 0 1 2-1.34 34.32 34.32 0 0 1 6.49.82zm24.41 5.75a5.69 5.69 0 0 1 1.74 5.4c-.08.51-.36.69-.85.57a.5.5 0 0 1-.19-.06c-1.5-1.32-2.88-1.06-4.12.5a8 8 0 0 1-1-4.48 2.19 2.19 0 0 1 1.36-2.31 2.9 2.9 0 0 1 3.04.46zm-3.35-10.69a57.3 57.3 0 0 1 .17-7.34 12.32 12.32 0 0 1 .74-3 1.78 1.78 0 0 1 .15-.38c.37-.56.67-1.3 1.46-1.27s1.12.66 1.39 1.32a9.55 9.55 0 0 1 .8 5.92c-.66 3-.59 6.11-2.09 8.89a1.83 1.83 0 0 1-.82 1c-.65-1.72-1.78-3.43-1.8-5.14zm.71 18.09a1.61 1.61 0 0 1 2.2-.22c2.73 1.92 5.88 3.15 8.64 5A18.36 18.36 0 0 1 99 48.9c1.52 2.16 1.13 4.7.82 7.16a5.78 5.78 0 0 1-.39 1.38 1 1 0 0 1-1.45.71c-2-.75-3.73-.21-5.47 1-1.36-3.26-3.89-4.54-7.21-4.24s-5.06 2.35-5.41 5.88c-.71-.65-1.18-1.09-1.67-1.52a4.63 4.63 0 0 0-4.67-1.33c-1.22.36-1.5.11-1.58-1.11a27.89 27.89 0 0 1 0-3.89A7.94 7.94 0 0 1 74.16 48a86.66 86.66 0 0 1 9.13-8.49zm45.45 51.09c-2.32-2.29-4.8-4.45-7-7 .59-.35.92-.32 1.2-.07 1.93 1.77 4.25 3 6.35 4.52a12.7 12.7 0 0 1 3.82 3.68c.2.35.52.76.2 1.12s-.88.11-1.29-.13a17.21 17.21 0 0 1-3.28-2.13zm1.09 5.56c-.92-.23-2-.59-2.17-1.59a20.18 20.18 0 0 1-.65-3.78c.81.8 1.65 1.58 2.43 2.42a4.05 4.05 0 0 1 1 2.17c.09.45-.1.9-.62.77zM108.28 109c-.46-.65-.85-1.36-1.27-2 3 1.38 5.12 3.64 7.69 5.3a34.1 34.1 0 0 1 6.3 5.5 6.49 6.49 0 0 1 1.44 2.46 3.55 3.55 0 0 1-.26 2.79 1.59 1.59 0 0 1-2.69.63 8.3 8.3 0 0 1-1.46-1.43c-1.24-1.55-2.46-3.12-3.63-4.72q-3.09-4.23-6.12-8.53zm5.56 16.68c-.08.35-.19.87-.71.88s-.65-.44-.84-.79a3.9 3.9 0 0 1-.38-.94 28.33 28.33 0 0 1-.27-9.12c3.25 2.84 3.07 6.35 2.19 9.99zm-3.84-3.8a8 8 0 0 1-1.1 4.09c-.24.34-.49.73-1 .62s-.53-.56-.62-1a18.16 18.16 0 0 1 .11-7.7c.4-1.8.55-3.64.86-5.45a.82.82 0 0 1 .55-.76 3.41 3.41 0 0 1 1.29 3c-.09 2.44.14 4.82-.09 7.2zm12.69-11.31a5.21 5.21 0 0 1 1.33.52c.45.24 1.16.4 1 1.11s-.88.64-1.4.63a23.51 23.51 0 0 1-5.21-1.05c-1.45-.38-2.89-.81-4.32-1.26a5.22 5.22 0 0 1-2.26-2c3.62.74 7.25 1.29 10.85 2.05zm-8.14-2.6a19.38 19.38 0 0 1 6.31-1.83 3.8 3.8 0 0 1 3.37 1.06c.77.75.55 1.46-.44 1.79a5.79 5.79 0 0 1-3 .31c-2.01-.41-4-.85-6.25-1.3zm3.09 5.27l.15-.43c1.85.42 3.7.81 5.53 1.26a5.89 5.89 0 0 1 1.28.63c.44.23.92.6.79 1.08s-.82.71-1.36.62a10.79 10.79 0 0 1-6.4-3.17zm7.71.69c-.11 0-.19-.17-.34-.31.24-.79 1.45-1.11 1-2.15.21 0 .3-.09.34-.07.6.43 2.09 0 1.6 1.5a1.85 1.85 0 0 1-2.61 1.02zm2.45-3.28c-.77-.06-1.49-.56-2.33-.13-.24.12-.74-.31-.55-.63.55-.92 1-1.86.41-2.86s-2-1.41-3.1-1.84a1.94 1.94 0 0 1-.23-.19 5.08 5.08 0 0 1 .34-.41c1.81-1.68 3.51-1.6 5.26.18.7.71 1.77 1 2.41 1.86s1.26 1.77.68 2.79a2.8 2.8 0 0 1-2.9 1.22zm-1.95-9.93c-.61.32-1.2.66-1.81 1q-3.85 1.94-7.7 3.87a9.72 9.72 0 0 1-9.62-.43 4.86 4.86 0 0 1-2.71-3.85 9.32 9.32 0 0 0-.94-3.18.69.69 0 0 1 .9-.1 3.92 3.92 0 0 0 4.83-1 5 5 0 0 0 1.1-5.51c-.39-1.11-1.26-1.94-1.78-3.21.61-.27 1-.5 1.47-.64a4.3 4.3 0 0 0 3.41-3.95c.08-.88.63-1.1 1.4-1.16 2.73-.23 4.71 1.16 6.41 3 1.05 1.16 1.92 2.49 2.9 3.72a8.91 8.91 0 0 1 1.85 4.48 51.12 51.12 0 0 0 1 5.24 1.27 1.27 0 0 1-.72 1.71zm-20.59 26.73a3.14 3.14 0 0 1-3.74-1.36c-.61-1.37-1-2.82-1.57-4.22a.77.77 0 0 1 .18-.93 22.63 22.63 0 0 1 3.25-2.55c-.33 1.32-.62 2.29-.81 3.28a12.21 12.21 0 0 0-.14 1.84 1.5 1.5 0 0 0 1 1.63 1.62 1.62 0 0 0 1.88-.37c.23-.23.36-.58.78-.61a3.69 3.69 0 0 1 .18.57c.22 1.68-.03 2.38-1.02 2.71zm.07 1.36c-.31.93-1.15.93-1.8 1.2a.7.7 0 0 1-.9-.22 1.24 1.24 0 0 1-.08-1.16c.14-.4.53-.38.85-.31.6.12 1.26.31 1.92.48zm-.13-6.33c-.18.65-.26 1.79-1.27 1.53s-.63-1.22-.45-2c.5-2.06.93-4.14 1.56-6.15a16.42 16.42 0 0 0 1.05-6.83 1.53 1.53 0 0 1 .17-.56c.95 4.87.19 9.46-1.08 14zM87.28 99.13c-3.43.3-6.55-1-9.64-2.27-2.6-1.12-4.16-3.33-5.5-5.65a30.66 30.66 0 0 1-2.63-5.78 13 13 0 0 1 .46-9 19.81 19.81 0 0 1 8.34-9.81 14 14 0 0 1 5.86-1.74c3.55-.45 6.92.43 10.25 1.53 1.37.45 2.22 1.6 3.17 2.54a18.22 18.22 0 0 1 5.59 12.66 16.66 16.66 0 0 1-2.68 10.19 20.21 20.21 0 0 1-7.18 6.32 9.73 9.73 0 0 1-6.04 1.01zm5 4.28c-.09 2.77-1.05 4.49-3.28 5.43a5 5 0 0 1-5.38-.71 2.36 2.36 0 0 1-.87-1.11 11.67 11.67 0 0 1-.58-5.45c.1-.55.17-1.16 1-1 .62.14 1.51-.07 1.53 1a3.15 3.15 0 0 0 1.74 2.81c1.42.83 2.19.65 3-.79a3.49 3.49 0 0 0 .65-1.91 1 1 0 0 1 1.05-1.23c.76 0 .66.72.84 1.2a5.43 5.43 0 0 1 .32 1.77zm-49.87-7.75a3.66 3.66 0 0 1-3.19.42c3.12-4.15 7.21-6.37 11.41-8.8a2.31 2.31 0 0 1-.72 2.72 61.2 61.2 0 0 1-7.5 5.66zm3.2 1.68a1.11 1.11 0 0 1-1.5-.16c-.4-.55.05-1 .45-1.4 1.25-1.28 2.88-2 4.42-3.26.38 2.92-1.71 3.73-3.36 4.82zM52.13 56c.35.75 1.16.86 1.92 1.21-1.43 1.31-3.19 1.66-4.84 2.24a.77.77 0 0 1-.77-.17 7 7 0 0 1-2.88-4.77c-.15-1.94 1-2.63 2.71-1.71 1.49.81 3.07 1.53 3.86 3.2zm-2.83-4.2c.19-.78.86-.92 1.38-1.18.84-.42.93.56 1.38.86a.76.76 0 0 1 .25 1.21c-.26.31-.46.68-1 .34s-1.31-.81-2.01-1.22zm20.57 3.92a6.12 6.12 0 0 1 .3 1 1.92 1.92 0 0 1-.09.55 14 14 0 0 1-5.82-5.51c-1.11-1.67-2.48-3.1-3.73-4.64-1.12-1.38-2.21-2.79-3.21-4.26a8.08 8.08 0 0 1-.94-2.27c-.32-1.07 0-2.31.72-2.59a2.17 2.17 0 0 1 2.25.59 19.44 19.44 0 0 1 4 4.6 71.35 71.35 0 0 1 6.52 12.54zm-4.92-18.11c.83-.21 1.11.57 1.41 1.19a15.52 15.52 0 0 1 1.39 4.91c.26 2 .32 4.06.7 6.07-1.09-2.12-2.35-4.07-3.46-6.09a10 10 0 0 1-.89-4.38c-.04-.66.08-1.51.85-1.7zm9.49 28.17a.82.82 0 0 1-.22 1.22c-1.08 1-1.31.94-2.3-.16-2.43-2.67-1.7-5.13 0-6.91a3.68 3.68 0 0 1 5.31-.21 6.16 6.16 0 0 1 2.45 3.9c0 .35 0 .7-.37.84s-.64-.08-.8-.42A7.25 7.25 0 0 0 78 63a2.14 2.14 0 0 0-2.54-.81 2.22 2.22 0 0 0-1.43 2 3.09 3.09 0 0 0 .41 1.59zm-5.55 28.83c1 .24 1.33-.51 1.92-.91.35-.24.6-.88 1.17-.36s.41 1.09-.07 1.6l-.15.14c-1.5 1.38-3.08 2.58-5.3 1.77-1.81-.66-3.19-3-3.2-5.31 0-2.86 1.53-4.45 4.38-4.55.85 0 .95.62 1.22 1.15a1.11 1.11 0 0 1-.44 1.59c-.54.36-1.19.44-1.44 1.27a2.72 2.72 0 0 0 1.91 3.61zM66.4 84a4.38 4.38 0 0 0 .79-.22c.7-.15.75.42.9.85s-.09.73-.53.9c-3.21 1.3-7.21-1.29-7.25-4.71a6.27 6.27 0 0 1 .82-3.14 4.17 4.17 0 0 1 6.4-.71 2 2 0 0 1 .22 2c-.17.68-.8.29-1.23.33a3.1 3.1 0 0 0-2.7 2.55c-.05.93 1.41 2.15 2.58 2.15zm.47-13.25a2.55 2.55 0 0 0 1 3.19c.3.24.82.31.57.89s-.74.45-1.22.35a4.85 4.85 0 0 1-3.92-5 4.28 4.28 0 0 1 5-4.13 5.74 5.74 0 0 1 3.15 1.79 1.34 1.34 0 0 1 0 2.12c-.44.47-.74.61-1.37.29-1.58-.77-2.6-.55-3.21.52zm4.31-20.91a2.06 2.06 0 0 1-.62 1.61c-.15-.18-.29-.27-.31-.39a71.86 71.86 0 0 1-1.66-11.14 3.33 3.33 0 0 1 0-.62c.09-.56.29-1.08.92-1.23a1.14 1.14 0 0 1 1.22.59 5.34 5.34 0 0 1 1.15 4.05 25.74 25.74 0 0 0-.7 7.15zM59 47.25a17.93 17.93 0 0 1 3.65 4.89c-2.37-1.6-5-2.57-7.32-4.15a3.62 3.62 0 0 1-1.68-1.73c-.17-.52-.36-1.06.1-1.54a1.29 1.29 0 0 1 1.68-.16A12.11 12.11 0 0 1 59 47.25zm-5.22 1.57a3.28 3.28 0 0 1 1 .22 35.85 35.85 0 0 1 8.1 5.27 1.6 1.6 0 0 1-2.08.43q-3.63-1.64-7.24-3.34a2.52 2.52 0 0 1-.8-.63 1.17 1.17 0 0 1-.14-1.34 1 1 0 0 1 1.2-.61zm4.57 6.39a7 7 0 0 1-4.75.61c-.87-.12-1-.92-.86-1.61a1.19 1.19 0 0 1 1.27-1.1 3.2 3.2 0 0 1 1.54.5zm-.26 2c3.44-1.28 6.89-.69 10.16.91a4.76 4.76 0 0 1 1.58 1.3c.22.27.52.56.31.9-.91 1.49-.54 3.2-.75 4.78-1 .14-1.89-.13-2.79 0a5 5 0 0 0-4.29 6.13c.1.61.15 1.22.29 1.82s1.18 1 .77 1.73c-.27.46-1 .66-1.52 1-1.74 1-2.19 2.7-2.52 4.49-.28 1.52-.3 1.52-1.74 1.54a8.35 8.35 0 0 1-7.87-5.49 39.9 39.9 0 0 1-1.57-6.57 21.16 21.16 0 0 0-1.83-5.86c-.5-1-.31-1.51.65-1.92 3.74-1.6 7.38-3.37 11.16-4.78zM46.83 70.77c0 .4-.22.75-.6.62-1.54-.55-3.26 0-4.75-.91a3.58 3.58 0 0 1-1.75-2.61c-.29-1.88.3-2.55 2.2-2.44l.81.12c3 .45 4.33 2.18 4.09 5.22zm.69 4.41a4.92 4.92 0 0 1-3.64-1.83c-.23-.26-.48-.54-.27-.88s.59-.25.91-.23c2.12.11 2.55.52 3.01 2.94zm-.27 1.47c1.45.54 2.16 1.7 2.79 3.24a64.33 64.33 0 0 1-8.9-2.78 9.23 9.23 0 0 1-1.88-1.23c-.32-.24-.69-.55-.48-1a.89.89 0 0 1 1-.45 22.17 22.17 0 0 1 3 .59c1.56.45 3.01 1.08 4.48 1.63zm-5.48 2c2.18.5 4.31 1.22 6.62 1.9a1.09 1.09 0 0 1-1.08.5c-2.39 0-4.78.07-7.17 0a6.05 6.05 0 0 1-3.83-1.21c-.4-.34-.93-.71-.65-1.35s.78-.49 1.25-.44a42 42 0 0 1 4.87.57zm-4.06 4a64.89 64.89 0 0 1 16.13.3 1.26 1.26 0 0 1 1.17.66 8.2 8.2 0 0 1-2.44 1.17c-4.87 1.42-9.77 2.62-14.9 2.46a9.9 9.9 0 0 1-3.93-1c-.58-.27-1.1-.66-1.09-1.36a1.7 1.7 0 0 1 1.24-1.49 12.24 12.24 0 0 1 3.83-.76zm9.88 5.05c-2.74 1.9-5.47 3.82-8.24 5.68-1.22.81-2.76 1-3 .38-.47-1.1.27-2 .92-2.73a7.51 7.51 0 0 1 4.85-2.78c1.8-.25 3.55-.92 5.48-.57zm1.8 17.92c.4-2.72.09-5.5.69-8.18a68.55 68.55 0 0 1 2-7.73c1.21-3.46 4.08-5 7.5-5.65a.67.67 0 0 1 .74.2 5.82 5.82 0 0 0 1.68 1.5c.64.41 1.48.27 2.32 1-2.55 2.84-2.74 5.82-.7 8.87 1.65 2.46 4 3 6.59 1.89.51.41.27.81.2 1.2a6.75 6.75 0 0 0 2 6.58c.69.64.57 1.15 0 1.7a9 9 0 0 1-.91.82 13.74 13.74 0 0 1-10.1 2.52 76.18 76.18 0 0 1-10.4-2.41c-1.53-.4-1.82-.76-1.59-2.33zm13.77 7a17.94 17.94 0 0 1-6.44 2.93c-.41.08-1 .37-1.21-.31a1.21 1.21 0 0 1 .4-1.28 3.85 3.85 0 0 1 2-1 13.61 13.61 0 0 1 5.27-.31zm5.84-1.37c-.64 1.4-1.72 1.69-2.5 2.32q-3.44 2.78-7.11 5.24a10.8 10.8 0 0 1-3.12 1.53.56.56 0 0 1-.7-.26.79.79 0 0 1 0-.58 3.8 3.8 0 0 1 1.2-1.39 23.51 23.51 0 0 1 4.22-2.9c2.63-1.21 5.18-2.53 8.01-3.96zm-12.7 5.64c.1.78-.54 1-.87 1.35-.61.74-1.43 1.5-.93 2.51s1.49.75 2.59.47a4 4 0 0 1-1 2c-1.73-1.42-3.35-2.89-5.17-4.21 1.91-.62 3.15-2.65 5.38-2.12zm.8 6.8a6.23 6.23 0 0 1 2-3c2.11-1.83 4.55-3.22 6.81-5-1 2.18-2.39 4.12-3.26 6.32A6.37 6.37 0 0 1 60 125a8 8 0 0 1-1.09.54 1.5 1.5 0 0 1-1.91-.14c-.54-.58-.06-1.14.1-1.71zm4.08 5.31a5.64 5.64 0 0 1 .4-1.79c2.16-6.22 5.64-11.7 9.5-17 .46-.63.47-.63 2-1.4a35.16 35.16 0 0 1-3.8 11c-1.59 3-3 6.18-5.05 8.93a14.83 14.83 0 0 1-1 1.27c-.38.39-.82.82-1.43.58s-.63-.94-.62-1.59zm6.64-1.72c.56-3.68 2.15-7 4.08-10.56a13.76 13.76 0 0 1-.32 4.5c-.26 2.31-.51 4.62-.74 6.93a3.72 3.72 0 0 1-1.14 2.55 1.08 1.08 0 0 1-1.89-.57 7.16 7.16 0 0 1 0-2.81zm4.13-.24c.41-3.26.51-6.55 1.12-9.79 0-.26.13-.51.2-.76h.26l1.32 9.54a4.57 4.57 0 0 1-1 3.65 1.19 1.19 0 0 1-1 .55c-.53-.07-.52-.57-.64-.94a5.32 5.32 0 0 1-.27-2.2zm-.71-27.23a8.2 8.2 0 0 1 1.48-3.79c.53-.7 1-.8 1.68-.17A7.27 7.27 0 0 1 75.55 97c.31.5-.3.83-.48 1.25a3.05 3.05 0 0 0 .94 3.49c.77.43 2 0 3-.88.43-.41.44-1.69 1.35-1.1s0 1.33-.27 2a7.51 7.51 0 0 1-2.71 3.29 2.2 2.2 0 0 1-1.62.47 5 5 0 0 1-4.52-5.66zm16.41-39.73a2.84 2.84 0 0 0-2.91-.35c-1 .55-1 1.56-.88 2.55 0 .4.08.8.11 1.1-.38.47-.85.31-1.22.45-.91.34-1.4.12-1.51-.94a12.87 12.87 0 0 1-.24-2.64 4.13 4.13 0 0 1 3-4c2.06-.69 3.94-1 5.81.46a3.7 3.7 0 0 1 1.52 3.77c-.13.8-.43 1.58-.63 2.37-.14.54-.39.84-1 .75s-.89-.35-.86-.93a2.5 2.5 0 0 0-1.19-2.59zm8-22.81a12 12 0 0 1-1-2.77c2.1-.52 3.83.61 6.16.66a5.54 5.54 0 0 0-1.47 3.32c-.87-1.64-2.07-2.03-3.65-1.21zm.67 6.81c-2.51-1.42-2.51-1.42-1.37-3.41 1.25.73.84 2.03 1.41 3.41zm12.91-3.36a26.29 26.29 0 0 1 2.27-2.65 2.25 2.25 0 0 1 2.85-.69c1.28.48 1.44.53 1 1.77a17 17 0 0 1-2.58 4.85c-2.44 3.22-5 6.36-7.46 9.55-.93 1.2-2.27 1.65-3.55 2.26-.53-.88-.07-1.55.29-2.19 2.39-4.31 4.58-8.73 7.22-12.9zm-4.74 3.13a20.18 20.18 0 0 0 .38-4.47 6.28 6.28 0 0 1 .73-2.94c.35-.66.91-.58 1.29 0a3.47 3.47 0 0 1 .58 2.54 10.28 10.28 0 0 1-1.44 4.83c-.47.66-.6 1.52-1.37 2.23a2.94 2.94 0 0 1-.14-2.19zm12.61 7.1c-3.4 1.42-7 2.14-10.87 3.37a3.41 3.41 0 0 1 1.88-2.07 65.86 65.86 0 0 0 6.66-3.25 11 11 0 0 1 4.93-1.26.8.8 0 0 1 .87.41.82.82 0 0 1-.29.91 9.34 9.34 0 0 1-3.14 1.89zm3.9 1.78a1.29 1.29 0 0 1-.48 1.46 6.38 6.38 0 0 1-2.69 1.39c-2.42.64-4.63.06-7-1.11a30.36 30.36 0 0 1 6.82-2c.66-.16 1.34-.24 2-.34a1.14 1.14 0 0 1 1.35.6zm-10.83-3.07c1.26-2.31 2.64-4.47 5.05-5.74 1.68-.89 2-.94 4 .08-2.13 3.34-6 3.85-9.09 5.66zm-6.91-.74a2.36 2.36 0 0 1-1.11 1.84 15.44 15.44 0 0 1-.37-2.56 21.3 21.3 0 0 0-1.13-6.2 9 9 0 0 1 0-4.46c.11-.47.27-1 .82-1.06s1 .39 1.22.9a5.61 5.61 0 0 1 .55 2.17c.02 3.1.03 6.23-.02 9.37zm-6.16-10c.78-.53 1.24.17 1.76.57a1.51 1.51 0 0 1 .57 1.05c.22 2.11.87 4.13 1.24 6.2.08.42.25 1-.33 1.35A9.22 9.22 0 0 1 97 42.47a7.76 7.76 0 0 0-.51-1.77 1.37 1.37 0 0 1 .57-1.78zm4.2 26.88a8.26 8.26 0 0 1-1 2.46c-.17.22-.33.45-.64.42s-.52-.38-.62-.71c-.23-.8.31-1.44.46-2.16.39-1.89-.44-3.18-2.3-3.3a2.74 2.74 0 0 0-2.61 1.62c-.48.88-1.14.81-1.9.4a1.25 1.25 0 0 1-.69-1.18c-.13-2 1.7-4.74 4.32-4.42a5.12 5.12 0 0 1 4.95 6.87zm6.82 15.91a2.45 2.45 0 0 0-1.83-2.23 15.57 15.57 0 0 0-1.61-.25.65.65 0 0 1-.56-.73c0-.45.34-.56.71-.48 1.16.24 2.27-.29 3.44-.16a3.43 3.43 0 0 1 2.93 1.91 7.84 7.84 0 0 1 .76 4.17 2 2 0 0 1-1.12 1.84c-1.1.46-2 1.5-3.38 1.14a2.83 2.83 0 0 1-2.49-.59 1 1 0 0 1 .16-1.86c.49-.23 1-.4 1.52-.6a2 2 0 0 0 1.43-2.17zM106.16 76a13.48 13.48 0 0 1-1.53.59c-.37.15-.74.45-1.07 0s-.55-1 0-1.46c.21-.18.41-.37.62-.54a3 3 0 0 0 .9-1.58c.53-1.83-.45-3-2.33-2.74a3.11 3.11 0 0 1-.61.07c-.49 0-.83 1-1.4.22s.1-1.13.43-1.6c1.17-1.64 2.49-2.84 4.79-2.31 2.57.59 3.73 1.94 3.59 5-.18 1.79-1.55 3.25-3.39 4.35zM93.38 99.57c.54-.25.68.19.88.55a2.34 2.34 0 0 0 2.36 1.32 2.23 2.23 0 0 0 2.19-2.66 4.64 4.64 0 0 0-.38-1.58c-.3-.7.12-1 .54-1.37a.92.92 0 0 1 1.43.16 9.33 9.33 0 0 1 2.57 5.6 5.37 5.37 0 0 1-3.77 4.92c-2.18.75-3.16.41-4.56-1.49a10.5 10.5 0 0 1-1.64-4.38c-.05-.41-.07-.85.38-1.07zm7.78-4.45a1.23 1.23 0 0 1 .28-2.08 13.33 13.33 0 0 0 1.41.79c1.24.52 2.14.34 2.77-.5a3 3 0 0 0 0-3.44 6.91 6.91 0 0 0-1.95-1.47.48.48 0 0 1-.23-.52.54.54 0 0 1 .58-.47 4.29 4.29 0 0 1 2.48.87 6.4 6.4 0 0 1 2.69 4.7c.19 3.35-2.75 5.35-5.74 3.86a7.07 7.07 0 0 1-2.28-1.74zM133 88.54a32.9 32.9 0 0 1-7.35-4.7 19 19 0 0 1 6 .31 5.93 5.93 0 0 1 4.18 3.35c.43.89.15 1.3-.82 1.35a4.42 4.42 0 0 1-2.01-.31zm-12.05-6.42a16 16 0 0 1-3.89-1c.13-.62.54-.65 1-.72 3.43-.59 6.86-1.25 10.3-1.77a19.26 19.26 0 0 1 8.92.74 7.22 7.22 0 0 1 1.48.69 1.47 1.47 0 0 1 .82 1.52c-.09.61-.66.64-1.08.81a10.64 10.64 0 0 1-4.22.71 125 125 0 0 1-13.33-.98zm6.9-4.51a10.79 10.79 0 0 1-1.2.17s-.1-.07-.41-.31c2.67-1.41 4.62-3.66 7.33-4.86a7.59 7.59 0 0 1 1.16-.39c.33-.09.74-.17 1 .13s0 .77-.29 1.07a13.44 13.44 0 0 1-7.59 4.19zm4.3-7.09a2.87 2.87 0 0 1-.47.67c-2.7 2.48-5.08 5.35-8.48 7a5.69 5.69 0 0 1-2.73.65 3.61 3.61 0 0 1 1.53-1.67 44.63 44.63 0 0 0 5.54-5.46 10.81 10.81 0 0 1 3.36-2.64c.49-.25 1.1-.45 1.53 0s-.02.99-.29 1.45zm-3.79-1.44a2.75 2.75 0 0 1-.42.69q-2.38 2.53-4.79 5c-.12.12-.34.14-.77.3.64-2 1.11-3.94 1.84-5.73a3.53 3.53 0 0 1 2.58-2.16 1.45 1.45 0 0 1 1.51.33 1.31 1.31 0 0 1 .04 1.57zm-4.64-7.41a32.1 32.1 0 0 0-1 7.27 12.23 12.23 0 0 1-1.79 4.56 20.19 20.19 0 0 1-6.94 7.15 1.4 1.4 0 0 1-1 .26c-1.59-3-1.64-3-5-4.34 0-.65.54-.91.89-1.3 2.21-2.42 2.18-5.27.56-7.95a3.59 3.59 0 0 0-2.57-1.55 9.64 9.64 0 0 0-3.79-.25 1.17 1.17 0 0 1-.31-1 5.3 5.3 0 0 0-1.52-4.3c-1-1.09-.85-1.47.38-2.18a12.5 12.5 0 0 1 8.87-1.36c3.41.62 6.48 2.17 9.78 3.09.92.26 1.86.49 2.78.73.59.14.88.5.65 1.17zm-1.19-4.11c-.75 1.06-1.3.95-2.18.43-.64-.38-1.33-.67-2.2-1.11 1.08-.61 1.89-1 2.61-1.49 2-1.41 1.87-3.13-.32-4.33-.09 0-.12-.22-.25-.48a27.34 27.34 0 0 1 3.89-.8 2.05 2.05 0 0 1 2.27 1.37c.4 1.1.6 2.05-.37 3a24.88 24.88 0 0 0-3.47 3.41zm3.74-8.2a5.52 5.52 0 0 0-3.37-.56c-.4 0-.76.14-1-.4-.81-1.91-.84-1.9-2.85-1.71a3.63 3.63 0 0 1-.54-.05c.45-1.2 1.91-1.82 1.58-3.75 1.77 1.45 3.59 2 4 4.06a1.06 1.06 0 0 0 1.23.86 1.53 1.53 0 0 0 1.28-1.43 1.34 1.34 0 0 0-1.12-1.51c-2.11-.05-3-2-4.59-2.5v-.64a1.65 1.65 0 0 1 2.52-.83 13 13 0 0 1 3.75 2.44c1.22 1.22 1.88 2.71.86 4.44a1.79 1.79 0 0 0-.21.75c-.2 1.41-.37 1.53-1.56.83zm-1.47-9.51c-.73-.17-1.53-.37-1.65-1.27s.68-1.54 1.9-1.74l.93-.12a7 7 0 0 1 4.13 1.3c.78.65 1.34.46 1.91-.23.31-.37.66-.74.44-1.27A1 1 0 0 0 131 36c-2.15.76-4.15-.65-6.27-.38-.64.08-.92-.82-.45-1.37a3.06 3.06 0 0 1 1.59-.89c1.32-.34 2.66-.65 4-1a4.71 4.71 0 0 1 2.81.34 1.92 1.92 0 0 1 1.39 1.85 7.73 7.73 0 0 1-1.17 4.68 3.66 3.66 0 0 1-3.55 1.53 31.78 31.78 0 0 1-4.58-.91zm5.04-9.85a11.88 11.88 0 0 1-4.41 2.09c-.56.12-1.21.56-1.61-.26a1.56 1.56 0 0 1 .45-2.18c1.14-.75 2.35-1.38 3.55-2 .29-.16.66-.21.95-.38a1.12 1.12 0 0 0 .64-1.18A1.26 1.26 0 0 0 128.3 25c-.56-.1-1.25-.12-1.4.5-.52 2.08-2.45 2.58-3.81 3.74-2.07-1.95-1.32-3.46.2-5a14.53 14.53 0 0 1 2.65-2.54 2.18 2.18 0 0 1 1.74-.38c1.07.26 3.87 3 4.05 4a4.31 4.31 0 0 1-1.89 4.68zm-6.38-9.13c-.32 1.75-.71 2.31-2.75 3.93a10.28 10.28 0 0 0-1-.67c-1-.49-1-1.2-.56-2.06.33-.67.64-1.36 1-2s.77-1.08.2-1.66a1.31 1.31 0 0 0-1.51-.37c-.71.36-.44 1-.35 1.6a3.52 3.52 0 0 1-3 4.09 1.11 1.11 0 0 1-1.32-.64c-1.33-2.63 1.34-8.54 5.06-7.77 2.35.47 4.68 3.1 4.23 5.55zm-5.91 4a1.59 1.59 0 0 1 2.15 1c.58 1.23 1.29 2.41 2 3.58a7.33 7.33 0 0 1 .69 6.65 12.66 12.66 0 0 1-4.19 5.69c-.79.63-1.83.38-3.09.9.4-1.05.65-1.69.9-2.32a7.42 7.42 0 0 0 .34-.75 3.46 3.46 0 0 0-.66-3.65c-.68-.69-2.44-.58-3.68.16a11.15 11.15 0 0 0-3.19 3.28c-.5-2.45-.5-5.12-3.91-4.31a4.25 4.25 0 0 1 .6-3.46 13 13 0 0 1 5.6-4.64 41.89 41.89 0 0 1 6.44-2.08zm-5.39-.47c-1.41.64-1.88.52-2.13-1-.22-1.34-1-2.73-.08-4.13.32-.51.06-.92-.39-1.2a1.58 1.58 0 0 0-1.91.06 1.09 1.09 0 0 0-.38 1.44c.25.57.86.85 1.05 1.49.39 1.31.32 2.7.8 4 .21.58 0 .65-1.56 1.23-.46-.58-.79-1.25-1.3-1.82a6.59 6.59 0 0 1-1.42-6.3 4.39 4.39 0 0 1 3.72-3.06 3.28 3.28 0 0 1 3.49 2.26 6 6 0 0 1 .61 2.36A12.26 12.26 0 0 0 113 23c.17.77-.2 1.16-.84 1.45zm-5.85 2.6c.3.44.12.75-.19 1.07a.72.72 0 0 1-1.09.08q-1.88-1.58-3.74-3.19c-.37-.31-.25-.74-.23-1.15 0-.62-.21-1.16-.86-1.17a1.72 1.72 0 0 0-1.82 1.06 1.26 1.26 0 0 0 .52 1.62 3.71 3.71 0 0 0 1 .33c2.07.51 3.19 2.28 4.65 3.58.52.47.05 1-.22 1.47s-.67.31-1.07.15a35.31 35.31 0 0 1-6.26-3.2 3 3 0 0 1-1.61-2.48 2.87 2.87 0 0 1 .39-1.58 13.35 13.35 0 0 1 2.57-3.18c1.73-1.4 3.45-1.35 4.55.5S105 25 106.31 27zm-7.44 2.87c1.26.69 2.49 1.43 3.77 2.09a1.52 1.52 0 0 1 .89 1.48c0 .55-.18 1-.84.82-1.33-.34-2.72-.13-4.06-.54-.92-.28-1.75-.4-2.3-1.41a1.09 1.09 0 0 0-2-.1c-.73 1.77-1.86 1-3 .86a6.49 6.49 0 0 1 1.5-3.41 2.79 2.79 0 0 1 2.59-.93 8.6 8.6 0 0 1 3.45 1.1zm-6.81 4.5c1.09 0 1.75.87 2 2.47v.82a.79.79 0 0 1 0 .21c-.22 1.26 0 3.12-1.21 3.47s-2.5-1.07-3.73-1.75a.89.89 0 0 1-.3-.93c.07-.61.12-1.23.22-1.83a2.64 2.64 0 0 1 3.02-2.51zm-18.9 7.94a5.07 5.07 0 0 1 .29-1 1.31 1.31 0 0 1 1.39-1c.75 0 1 .63 1.17 1.23a3.9 3.9 0 0 1-.55 3.11 13 13 0 0 1-3.16 3.5c.32-2.28.58-4.09.85-5.89zM73 39.52c.09-.92.17-1.83.28-2.74a.6.6 0 0 1 .71-.56c.52.06.38.4.23.72a5.28 5.28 0 0 0-.22 1.8c-.06.54-.35.83-1 .78zm5.9 2.23A4.63 4.63 0 0 1 77.1 43a6.2 6.2 0 0 0-1.57-4c-.72-.74.34-3.32 1.42-3.87s2.24.11 2.85 1.56c.11.25.18.52.27.78.83 2.53.84 2.53-1.21 4.28zm-3.36-7.08c-1.2.64-1.73.36-2.21-.53a1.14 1.14 0 0 1 .47-1.72 5.93 5.93 0 0 1 4.1-.88c1.51.23 1.52 1.54 2.07 3.09a4.5 4.5 0 0 0-4.46.03zm1-7a2.65 2.65 0 0 1-1.38 2.53c-.47.27-.9.62-1.39.85s-.8.75-1.27.32-.26-1.19.08-1.68a6.11 6.11 0 0 1 1.22-1.07 4.33 4.33 0 0 0 .92-.78 1.1 1.1 0 0 0-.18-1.49.85.85 0 0 0-1.34.45 3.49 3.49 0 0 1-1.47 1.87c-.41.24-.76.51-1.29.14a1.2 1.2 0 0 1-.53-1.4c.33-1.45 3-3.46 4.49-3.44a1.44 1.44 0 0 1 1.33.78 4.76 4.76 0 0 1 .79 2.92zm-7.76-1a.75.75 0 0 1-.91.22.79.79 0 0 1-.5-.81 13.09 13.09 0 0 1 .82-3.58c.08-.32.35-.59.44-.91.14-.53.26-1.14-.33-1.47a1.4 1.4 0 0 0-1.55.1c-.5.37-.29.82-.09 1.28.6 1.46-.22 2.8-.43 4.18-.08.53-.55.53-1 .43-1.09-.26-1.45-.88-1.38-2.58.35-1.2 0-2.68.59-4.05 1-2.33 3.07-2.7 4.86-1 2.52 2.46 1.16 6.18-.54 8.18zm-13.2-3.16c-.08.58-.3.69-1.61.71A1.57 1.57 0 0 1 52.06 23c-.29-.9-1.16-1.51-1.19-2.56a.73.73 0 0 0-.89-.65 1.4 1.4 0 0 0-1.3.85.76.76 0 0 0 .48 1 4.63 4.63 0 0 1 2.41 2.92 1.33 1.33 0 0 1 .16 1c-.33.79-.26 1.92-1.23 2.22-.78.24-1.31-.58-1.87-1-1.58-1.31-2.07-3.16-2.45-5.05s3.74-5.26 6.16-4.05c1.33.55 3.42 4.32 3.22 5.83zm-5.94 5.43c.77.59-.08 1.21-.32 1.78s-.57 1-1.25.67c-1.7-.83-3.51-1.5-4.71-3.07-.29-.38-.61-.58-1-.42a1.78 1.78 0 0 0-1.17 1.32c-.09.46.32.72.66.95.11.08.26.21.36.18 1.75-.46 2.81 1.11 4.29 1.47a3.84 3.84 0 0 1 1.43.76c.67.54.31 1.29.12 1.89s-.67.24-1.06.15c-2-.48-4.06-.53-5.79-1.81a4.86 4.86 0 0 1-2.28-3.16 4.76 4.76 0 0 1 2.33-4.11c1.37-.85 3.05-1.25 4.59.05 1.22 1.11 2.42 2.31 3.78 3.35zm-7.76 5.85c1.55.19 3.09.53 4.62.86 1.36.29.78 1.35.81 2.16S46.9 39.06 46 39c-.54 0-1.09-.07-1.64-.1-1.08 0-2.34.47-2.93-1.07-.16-.42-.7-.32-1.08-.06a1 1 0 0 0-.29.29c-.38.63-1.06 1.28-.64 2s1.36.63 2 .34a9.61 9.61 0 0 1 4.83-.34c.93.08 1.23.66 1.37 1.49s-.49 1.17-1.14 1.38a11.58 11.58 0 0 1-7.45 0 3.25 3.25 0 0 1-2.17-2.75c-.32-2.38 1.14-5.86 4.99-5.4zm2.21 9.92c1-.2 2-.37 3-.65A2.16 2.16 0 0 1 49.34 46c0 .12-.07.3-.16.34-.74.34-1.5.63-2.24 1s-1.43.72-2.26.07a1 1 0 0 0-1.58.32c-.26.48-.54 1-.09 1.51a1.35 1.35 0 0 0 1.69.21c1.06-.46 2.12-.91 3.19-1.34a11.58 11.58 0 0 1 1.55-.49 1.14 1.14 0 0 1 1.47.76c.21.58-.25.84-.62 1.15a10.34 10.34 0 0 1-5.39 1.92c-2.34-.14-3.83-1.45-3.9-3.24a3.43 3.43 0 0 1 3.06-3.51zm2.72 15.07c.27.45.2.75-.26 1s-.83.48-1.26.68c-1.59.76-1.59.75-.66 2.55-2.81-.12-4.75-1.79-5.1-4.24a2.09 2.09 0 0 1 1.77-2.35 5.49 5.49 0 0 1 5.48 2.36zm-4.6 13.41a1.24 1.24 0 0 1-1.21.31c-1.58-.54-2.83-.3-3.54 1.39a.42.42 0 0 1-.49.26.47.47 0 0 1-.41-.59 27.06 27.06 0 0 0 .44-4.48c0-.73.8-.83 1.43-1.21.81 1.83 2.91 2.55 3.78 4.32zm-4.15-5.64c-2.56-.6-2.8-.36-2.31 2.29a7.64 7.64 0 0 1-.14 3.46c-.13.45 0 1.24-.8 1.22s-1.5-.13-1.69-.91a18 18 0 0 1-.94-5c.14-3 3.36-4.77 6.66-3.76zM35.57 76a5.3 5.3 0 0 1 .9.5c-2.52 1.34-2.58 2.1-.4 4.66-.83.74-1.82.49-2.62.91s-2 .89-2 2.07a3.44 3.44 0 0 0 1.84 3.21 10.57 10.57 0 0 0 5 1c-1.06 1.46-2.21 2.57-3.15 3.84-.4.55-1.51.48-2.34.48a16.67 16.67 0 0 1-5.8-1.35c-2.73-1-4.37-3.18-5.9-5.48a1.73 1.73 0 0 1 0-2.23c.91-1.28 1.68-2.67 2.6-3.94C26.66 75.6 31 74.59 35.57 76zm-4.09-2c-1 0-1.91 0-2.86-.07-.09 0-.26-.2-.24-.28.34-1.44-1.35-2.84-.06-4.31.49-.55.2-1.07-.31-1.37a1.7 1.7 0 0 0-2.1.07.92.92 0 0 0-.08 1.45c1.11 1.18 1.24 2.69 1.58 4.16.25 1.09-.54 1.26-1.18 1.6s-1-.16-1.25-.65a10.58 10.58 0 0 1-1.09-7.36c.24-1.44 1-1.79 2.84-1.76 2.37 0 3.45.85 4.29 3.54a41.2 41.2 0 0 1 .88 4.21c.1.38.01.77-.42.77zm-7.06 2a.78.78 0 0 1-.23.91c-.41.46-.77 1-1.17 1.47L20 75.62a2.19 2.19 0 0 1-.79-1.62c0-.61-.4-1.06-1.07-.94-.52.09-1.14.16-1.34.79a1.15 1.15 0 0 0 .68 1.53c1.29.44 2.12 1.48 3.14 2.25A9.1 9.1 0 0 1 21.88 79a.75.75 0 0 1 .05.94c-.22.4-.5.68-1 .55-2.84-.77-5.4-2-6.84-4.75a2.37 2.37 0 0 1 .39-2.83 32.4 32.4 0 0 1 2.92-2.54c.63-.6 1.54-.33 2.33 0 2.57 1.06 3.67 3.34 4.7 5.63zm-7.06 4.43a3.16 3.16 0 0 1 1.11.52c.54.42 1.64.32 1.55 1.35-.07.81-1.86 2.09-2.69 2-1.25-.19-2.62.38-3.73-.68-.3-.28-.79-.11-1.18.06s-.73.44-.72.9a.91.91 0 0 0 .92.93h2.22c1.27-.45 2.48.13 3.7.09a1 1 0 0 1 1.08.78c.21.62-.36.84-.72 1.09a7 7 0 0 1-5.9 1.15 3.41 3.41 0 0 1-2.66-4.34c1.1-4.02 2.73-4.95 7.03-3.81zm2.71 7.67c.71-.22 1 .17 1.38.55 1.89 1.83 1.92 1.86 0 3.6-.91.84-1.62 2-3.21 1.84-.54-.07-1 .51-1 1.1A1.55 1.55 0 0 0 18 96.8a1.15 1.15 0 0 0 1.47-.37 6.49 6.49 0 0 0 1-1.32A14.21 14.21 0 0 1 23.16 92a1 1 0 0 1 1.59 0c.51.45 1.27.85.75 1.65-1.09 1.7-1.86 3.66-3.64 4.86-1.3.87-2.64 1.54-4.18.71A4.7 4.7 0 0 1 15 94.74a8.26 8.26 0 0 1 5.08-6.6zm4.65 8.9c.59-.92 1.23-1.81 1.78-2.75a.93.93 0 0 1 1.14-.52c2.16.33 2.23.36 1.37 2.37-.49 1.14-.74 2.5-2.38 2.78-.54.09-.63.83-.48 1.41a3.71 3.71 0 0 0 2.36 1.38 1.46 1.46 0 0 0 1.54-1.35c.07-.63.76-1.41-.51-1.67-.22 0-.13-.5 0-.76.16-.52.35-1 .54-1.55.81-2.21.81-2.21 3.51-2.13 0 2.46-1.27 4.57-2.11 6.76-.76 2-3.93 3-5.83 2.21a4.37 4.37 0 0 1-1.78-3.48 6.36 6.36 0 0 1 .85-2.7zm8.28 3.21c.66-1.93 1.37-3.85 2.09-5.88a2.58 2.58 0 0 0 2.94.61c.44 2.42-.83 4.13-2 5.84-.21.31-.67.42-.69.92 0 .74.6 1.69 1.22 1.65a1.26 1.26 0 0 0 1.25-1.35 9.28 9.28 0 0 1 .76-3.15c.27-.86.61-1.42 1.69-1.37a8.09 8.09 0 0 0 2-.5.62.62 0 0 1 .79.47.6.6 0 0 1-.28.7c-.34.22-.71.41-1.05.63-1.39.94-2.57 1.94-2.64 3.87a2.25 2.25 0 0 1-2.16 2.1 3.41 3.41 0 0 1-3.73-1.91 3.73 3.73 0 0 1-.19-2.63zm8.68-.12a5.66 5.66 0 0 1 2.14-1.16 8.13 8.13 0 0 0 4.56-2.34c.38 2.37-.36 4.24-.21 6.15a.76.76 0 0 1-.51.81c-1.41.48-2.69 1.37-4.26 1.34a3.22 3.22 0 0 1-3-1.79 2.77 2.77 0 0 1 1.29-3.01zm1 7.62a5.14 5.14 0 0 1 2.22-1.76l2.73-1c0 .61 0 1-.08 1.42-.15 2-.16 2 1.67 2.71a5.68 5.68 0 0 1-3.34 2.79 2.75 2.75 0 0 1-3-.52c-.57-.71-.73-2.95-.15-3.65zm5.14 5.49a8.69 8.69 0 0 1 2-2.6A2.81 2.81 0 0 1 53 110a31.17 31.17 0 0 0 6.3 1.54c-.51.71-1.11.59-1.62.72-1.64.39-3.07.91-3.6 2.87-.41 1.5-3.25 2.56-4.72 2a3.05 3.05 0 0 1-1.49-3.93zm-.19 6.4a7.6 7.6 0 0 1 4 1.43 16.15 16.15 0 0 1 3.89 3.31v.2c-1.78 2.4-1.76 2.37-4.49 1a15.42 15.42 0 0 1-2.38-1.6 1.22 1.22 0 0 1-.55-1.2c.09-1.37-.46-1.66-1.65-1.07a1.66 1.66 0 0 0-1 1.41c0 .63.64.7 1.12 1 2 1.16 4 2.43 5.91 3.69.34.22.66.55.43 1a.77.77 0 0 1-.88.37 13.3 13.3 0 0 1-1.6-.35 33 33 0 0 0-3.37-.9c-1.27-.2-2-1.37-3.08-1.94-.7-.37-.4-1.25-.47-1.91a4.23 4.23 0 0 1 4.17-4.44zm-2.26 9.4a8.89 8.89 0 0 1 4 .62c.81.34 1.51.94 2.49.74a.46.46 0 0 1 .55.47.61.61 0 0 1-.36.67 5.16 5.16 0 0 1-1.41.28 8.22 8.22 0 0 0-2.6.5 2.2 2.2 0 0 1-2-.07 1.8 1.8 0 0 0-.37-.17 1.38 1.38 0 0 0-1.67.38 1 1 0 0 0 .07 1.31 1.33 1.33 0 0 0 1.62.53A18.05 18.05 0 0 1 51.3 133c.46 0 1-.29 1.23.32s-.25.91-.66 1.13a20.45 20.45 0 0 1-5.82 2.49c-2.3.43-3.17-.23-3.43-2.52-.08-.68-.14-1.36-.19-1.8a3.36 3.36 0 0 1 2.94-3.62zm5 7.54c.85-.39 1.65-.9 2.47-1.36 1.08 2 1.1 2-.18 3.34-1 1-1.7 2.29-3.24 2.69-.75.2-.88 1.22-.42 1.91a1.13 1.13 0 0 0 1.77.08 3.49 3.49 0 0 0 .78-1.19 13.43 13.43 0 0 1 2.5-3.22c.5-.5.83-.47 1.33.06 1.3 1.39 1.31 1.41.06 3-.5.64-.92 1.35-1.37 2-1 1.56-2.48 2.32-3.7 2a4.65 4.65 0 0 1-3.16-4 5.22 5.22 0 0 1 3.15-5.27zm4.71 8.53a17.7 17.7 0 0 0 2.26-3.24c.76.61 1.67 1.32 1.67 2a7 7 0 0 1-1 3.7c-.14.23-.4.39-.52.63-.24.49-.46 1 0 1.53a.81.81 0 0 0 .95.15c.58-.21 1.3-.44 1.17-1.2a9 9 0 0 1 .42-3.64 2.47 2.47 0 0 1 1.27-1.77c1.67-.85 2.39-.46 2.63 1.39a7.79 7.79 0 0 1-1.29 5.67 2.32 2.32 0 0 1-2.74 1.22 27.51 27.51 0 0 1-3.22-.59c-2.81-.99-3.48-3.51-1.6-5.81zm6.19-2.95a2 2 0 0 1-2.58-.86c-1.29-1.85-2.46-3.78-3.84-5.57-1.78-2.3-1.45-6.79.43-9 .25-.3.57-.77 1-.42 1.37 1.14 2.57.35 3.8-.23.18-.09.38-.15.82-.32-.25 1.5-.94 2.58-.8 3.86.09.86.15 1.64 1.07 2a2.18 2.18 0 0 0 2.44-.53 13.34 13.34 0 0 0 2.39-3.19c.14-.22.18-.52.55-.59.43.45.11 1 .14 1.5a6.87 6.87 0 0 0 .15 1.63c.55 1.77 2.16 2.35 3.46 1.08.68-.67 1.13-.82 1.85-.3.54.39 1.18 0 1.87.25a9.76 9.76 0 0 1-6 8.39c-2.15.95-4.48 1.57-6.75 2.34zm3.39.33c0-.11.18-.2.29-.26a3.51 3.51 0 0 1 1.92-.58c.49 1.13 1 2.25 1.48 3.37a3.77 3.77 0 0 1 .21 2c-.12 1.11.39 1.72 1.22 1.79s1.31-.59 1.56-1.33c.31-.9-.09-1.38-.93-1.73s-2.47-3.36-2.32-4.26c.12-.71 1.92-1.38 2.52-.93 2.17 1.64 3.43 6 2.48 8.6-.68 1.86-3.91 2.65-5.58 1.31a5.62 5.62 0 0 1-2.27-3.77c-.1-.81-.22-1.63-.24-2.45 0-.57-.54-1.08-.34-1.72zm6.88-2.5c-.21-.3-.4-.62-.09-.91s.6-.75 1.22-.57a2.3 2.3 0 0 1 1.3.94 19.59 19.59 0 0 1 2.57 3.92 1.15 1.15 0 0 0 1.25.84 1.2 1.2 0 0 0 1.18-1 1.15 1.15 0 0 0-.84-1.28c-1.92-.64-2.72-2.41-3.88-3.8s-1-1.39.17-3c1 .49 2.08 1 3.11 1.49a7.14 7.14 0 0 1 3.47 4.94 2.47 2.47 0 0 1-.69 2.64c-.3.28-.56.61-.86.89-1.67 1.56-3.13 1.49-4.59-.35-1.19-1.51-2.21-3.14-3.32-4.7zm7.77-3.43a12.11 12.11 0 0 0-2.53-1.34 4.36 4.36 0 0 1-1.68-1.14 1.07 1.07 0 0 1-.2-1.14.75.75 0 0 1 1-.53c1.79.33 3.67.36 5.2 1.59s2 1.24 3.13-.74c1.42 1.46 1.43 1.63.15 2.81-2.01 1.88-2.75 1.97-5.07.54zM79 120.66a2.78 2.78 0 0 1 0-.64c1.83.62 3 2.13 4.56 2.89.35.17.35.54.23.9a20.18 20.18 0 0 0-.83 3.78 2.46 2.46 0 0 1-2.09 2 2.9 2.9 0 0 1-2.15-1.7c-.1-.26-.2-.51 0-.77 1.57-2.12.98-4.29.28-6.46zm-.27 4.76a1.76 1.76 0 0 1-1.73 1.23c-1-.06-1.2-.85-1.29-1.58-.22-1.76-.35-3.53-.47-5.3-.06-.93 0-1.88 0-3.22 2.52 2.18 3 4.89 3.71 7.48a2.22 2.22 0 0 1-.2 1.39zm-3.45 4.18c.08-.47.25-.92.34-1.38.17-.94.78-.76 1.39-.56s.65.67.92 1c1.58 2.23 2.46 2.47 5 1.35.68.58.65 1.45.91 2.19-.58.38-.86-.47-1.34-.25-2.09 1-3.94-.45-5.91-.58-1.31-.04-1.5-.52-1.29-1.76zm9.41 1.86c-.44-1.52-.81-3-.09-4.58a13.3 13.3 0 0 0 .62-2.62.88.88 0 0 1 .93.18c.89.71 2.39 1 2.49 2.25a8.55 8.55 0 0 1-.82 5.18c-.37.62-.83 1.4-1.72 1.22a2 2 0 0 1-1.39-1.63zm-.93-10.35c-1.37-.9-2.95-1.41-4.28-2.42a7.57 7.57 0 0 1-2.48-2.9c-1-2.17-2.17-4.27-2.27-6.74-.09-2-.05-2.07 1.91-2.56a4.33 4.33 0 0 0 2.25-1.36c.54-.61 1.13-1.18 1.71-1.77 0 0 .12 0 .43-.1 0 3.61 1.24 6.47 5.16 7.07 3.08.47 5.43-1.29 7.06-4.89a.86.86 0 0 1 .64.46c1.71 2.46 3.68 2.31 6.34 1.29 1.46-.56 2.34-1.78 3.61-3 2.15 4.71.83 8.69-1.58 12.46A20.43 20.43 0 0 1 97 121.8c-1.64 1.23-3.12 2.66-4.7 4-1.18 1-1.52 1.05-2.54-.08a29.24 29.24 0 0 0-5.98-4.61zM95 125.93c-.22-.4 0-.8.32-1.1s.67-.68 1-1c1.75-1.55 1.86-1.52 2.8.55a4.56 4.56 0 0 0 .6 1.06 4.52 4.52 0 0 1 1 3.41 3.82 3.82 0 0 1-.24 2 1.51 1.51 0 0 1-2.64.44c-1.24-1.59-1.84-3.58-2.84-5.36zm6.2 6.48a38.31 38.31 0 0 0 4.71-2.39.52.52 0 0 1 .73.1.43.43 0 0 1 0 .56c-1.32 1.64-3.25 2.35-4.74 3.34-.76-.06-1.35-.06-1.5-.57s.37-.88.8-1.04zm1.6 3.25a5 5 0 0 1 2.2-2.16 9 9 0 0 0 2.3-1.57c.47.68 1.15 1.19.9 1.76-.39.89-1.38 1.28-2.17 1.8-.13.09-.4-.05-.6 0a1.18 1.18 0 0 0-1.19 1.18 1.26 1.26 0 0 0 1.08 1.31 1 1 0 0 0 1.2-.85c.17-1.06 1-1.37 1.74-1.88.41-.29.79-.57 1.25-.07a1.44 1.44 0 0 1 .49 1.47c-.38 1.33-3.11 3.79-4.47 4a2 2 0 0 1-.61 0c-1.5-.36-2.92-3.65-2.11-4.99zm5.63 5.36a18.34 18.34 0 0 1 2.25-3.16c.28-.28.54-.66 1-.35s.8.48.75 1.09a3.41 3.41 0 0 1-1.48 3c-.93.59-.77 1.6.16 2.11s2 0 1.72-.86c-.35-1.18.33-2 .63-2.9.13-.38.18-.88.75-.76a.85.85 0 0 1 .69.89v.68c-.05 1.88-.24 3.57-1.78 4.74-.45.34-.93.69-1.49.5-1.44-.49-2.84-1.07-3.43-2.66a2.33 2.33 0 0 1 .24-2.34zm15-1.57c.69-.15 1.34-.75 2.13-.21a5.35 5.35 0 0 1 1.79 2.43c.19.43.34 1 1 .86.44-.08.64-.48.8-.86.24-.55-.07-.85-.47-1.2-1.62-1.39-1.86-2.42-1-4.23.21-.48.52-.86 1.09-.48a6.67 6.67 0 0 1 3 4.14 5.39 5.39 0 0 1-2 3.35 3.29 3.29 0 0 1-4 .94c-1.76-.75-2.36-2.15-2.77-3.76a.74.74 0 0 1 .41-.99zm5.77-4.71a.8.8 0 0 1-.14-1.1c.26-.47.33-1 .88-1.41a10.05 10.05 0 0 1 3.2 2.1 2.22 2.22 0 0 0 .8.6c.44.17.77-.1 1-.45s.11-.75-.21-1.05a5.1 5.1 0 0 0-1.47-.7 8.4 8.4 0 0 1-2.46-1.43 1 1 0 0 1-.31-1.26c.21-.5.61-.43 1-.34a10.45 10.45 0 0 1 3.38 1.33c3 1.85 2.06 3.84.53 5.76a2.49 2.49 0 0 1-3.52.35 34.36 34.36 0 0 1-2.69-2.41zm6.73-5a18.85 18.85 0 0 1-4.53-1.2c-.59-.17-.54-.71-.5-1.19a.79.79 0 0 1 .77-.8h1.61a6.58 6.58 0 0 1 2.22.42.88.88 0 0 0 1.1-.29c.36-.47.15-.91-.1-1.32a.77.77 0 0 0-1.07-.3 5.36 5.36 0 0 1-3.19.37 1.24 1.24 0 0 1-1.27-1.09c-.2-.83.37-1.13.93-1.35a12.67 12.67 0 0 1 2.34-.72 3.49 3.49 0 0 1 3.87 2.28 6.74 6.74 0 0 1 0 4c-.2.91-1.28 1.18-2.19 1.15zm-2.59-8.47c-.75.3-1.6.25-2.37.61s-1.14-.41-1.41-1c-.33-.77.2-1.05.77-1.07 1 0 1.57-1.24 2.65-.77.75.32 1.18-.1 1.47-.69a.91.91 0 0 0-.25-1.12c-.57-.53-1.07-.3-1.66.06-1.08.66-2 1.68-3.44 1.66-.67 0-1.09-.14-1.28-.69s.35-.7.68-.88a14.23 14.23 0 0 0 2.15-1.57c1.74-1.37 3.28-1.07 4.52.74 2.07 2.93.66 3.68-1.83 4.67zm-2.83-7a20.51 20.51 0 0 1-4 3 2.93 2.93 0 0 1 1.19-2.6c.9-.77 2.3-1.19 2.16-2.86 0-.47.59-.46.93-.1.67.71.65 1.61-.29 2.55zm-1-9.76a26.57 26.57 0 0 1-2.85-2.06c.82-.67 2-.73 1.77-2-.09-.53.41-.65.84-.58a10.17 10.17 0 0 1 4.68 1.87 1.67 1.67 0 0 1-.52 3 4.51 4.51 0 0 1-3.96-.24zm-.76-5.92c-1-.22-1-1-.71-1.85a1.5 1.5 0 0 1 1.23.45c1.43 1 2.59-.41 2.48-1.7a13.67 13.67 0 0 0-.33-1.61c.71-.1 1.19.34 1.75.48a2.17 2.17 0 0 1 1.64 2.09c.1.79-.92 2-1.83 2.25a7.92 7.92 0 0 1-4.27-.12zm9.16-28.46c-.59 0-1.43.29-1.49-.56-.11-1.37-1.49-2.77 0-4.17.3-.27.18-1-.21-1.05-1.47-.32-1.5-1.49-1.79-2.78a2.88 2.88 0 0 1 3.37 1.52c1.1 1.81 1.15 3.88 1.24 5.91-.03.75-.44 1.08-1.16 1.12zm-2.94-1.8c.64 2.57 1 2.71-2.06 3.34-.21-.61.33-1 .45-1.49s.38-1.12 0-1.58c-.94-1.16-.26-1.64.72-2.07.68.4.7 1.16.85 1.79zM132.78 66c-.33.34-.74.61-1.07.95-1.47 1.52-1.46 1.53-2.82-.09a2 2 0 0 0-2.58-.58c-.62.26-1.2.62-2 1.06a18.78 18.78 0 0 1 0-2.34 7.24 7.24 0 0 1 .58-2.17c.42-.86 1.37-.31 2.06-.54a17.19 17.19 0 0 1 2.6-.56 5.12 5.12 0 0 1 1.63-.1c1 .17 2.11.4 2.47 1.55a2.78 2.78 0 0 1-.87 2.82zm-1.31-6.64a11.47 11.47 0 0 1-3.64 1.34c-.84.14-1.62.42-2.2-.74-.38-.76-1.58-.64-2.58-1.14a16.59 16.59 0 0 0 3.5-3.5 3.2 3.2 0 0 1 .59-.56q1.89-1.52 3.39-.62a3.93 3.93 0 0 1 1.89 4 1.76 1.76 0 0 1-.95 1.19zM88.71 18.28c.09-2.52 0-4.58.89-6.54.24-.52.52-1 1.13-1s.87.53 1.07 1.07c.57 1.5.64 2.83-.79 4a24 24 0 0 0-2.3 2.47zm-15.14-9a4.74 4.74 0 0 1 3.56-3 2.29 2.29 0 0 1 1.7.57A21.13 21.13 0 0 0 81 8.22c.78-.92.14-1.68 0-2.43a3.24 3.24 0 0 1 3.51-3.92c1.7.11 2.4 1.42 3.08 2.7a7 7 0 0 1 .29 1.19c.32 1 .79 1.31 1.58.65a2.73 2.73 0 0 1 3.24-.32 4.57 4.57 0 0 1 2.71 3.17c.4 2 .17 2.32-2.31 3.79-.24-1.42-.32-3-1.95-3.52-1.3-.41-1.93.71-2.62 1.53-.72-.13-.74-.78-1-1.22-1.38-2.28-3-2.41-4.67-.3-.58.75-1 1.59-1.66 2.55C80.52 11 80 9.69 78.33 10c-1.44.31-1.85 1.47-2.31 2.61-2.13-.84-2.71-1.61-2.44-3.38zm7.35 9.07l-.55.15c-.94-1.32-1.88-2.64-2.81-4a2.86 2.86 0 0 1-.12-2.55 1.51 1.51 0 0 1 1.24-1c.58-.14.86.28 1.09.71 1.14 2.13 1.03 4.4 1.16 6.64zM34 25.55c.5-2.11 2.08-3.81 3.33-5.61a24.41 24.41 0 0 1 8.09-7.11 16.74 16.74 0 0 1 3-1.38c2.65-.91 5.23-2 8-2.7a16 16 0 0 1 7.71.25c4.7 1.15 9.09 3 12.46 6.7A28.84 28.84 0 0 1 83.37 28c.4 1.56.33 1.63-1.13 2.68a10.05 10.05 0 0 0-.75.7c-.2.18-.42.34-.66.52-.16-.19-.35-.32-.4-.49A34.13 34.13 0 0 0 75.15 22a15.29 15.29 0 0 0-7.68-5.9c-1.23-.4-2.39-1-3.61-1.46a16.83 16.83 0 0 0-12 .62c-.38.15-.73.42-1.12.53-4 1.09-7.05 3.68-9.55 6.79a33.29 33.29 0 0 0-5.59 9 10.46 10.46 0 0 0-.34 3.63A27.57 27.57 0 0 0 39 48.86a35 35 0 0 0 4.64 6.9 8.12 8.12 0 0 0-3.74.75c-.55.29-.92-.06-1.18-.5a41.74 41.74 0 0 1-5.41-12.57c-.26-1.2-.46-2.45-.79-3.59-1.52-5.01.41-9.62 1.48-14.3zm-9.56 25.31a8.13 8.13 0 0 1-2.31-2 1.86 1.86 0 0 1-.2-2.24 1.57 1.57 0 0 1 2.1-1 15.2 15.2 0 0 1 4.59 1.72c1.2.77 2.39 1.58 3.64 2.3 2.3 1.32 3.19 3.63 4.52 6.17-1.78-.19-3.3-.24-4.48-1-2.51-1.56-5.3-2.52-7.86-3.95zm4.44 4.42c-2 .28-3.63.47-5.23.85a3.42 3.42 0 0 1-3.16-1.79c-.26-.75.9-2.12 1.71-1.79 2.1.84 4.53.93 6.67 2.72zm3.91-6.54a15.44 15.44 0 0 1-5.32-3.85c-.85-.84-1.19-2.36-.63-2.76.89-.65 1.71 0 2.43.44a5 5 0 0 1 2.6 3.26c.13.91.8 1.7.91 2.9zm-16.46-4.79a3.33 3.33 0 0 1 2.91-2.27 4.88 4.88 0 0 1 1.82-.18c1.67.51 2.08-.55 2.62-1.73A6.47 6.47 0 0 1 28.07 36c1-.27 1.82-.17 2 1.25s.36 2.8.49 4.42c-1.63-.86-3.12-1.83-4.7-.48-1.07.92-.91 2-.21 3.34-1.85-.14-3.79-.9-4.83 1.21-.93 1.89-.35 3.58 1.08 5.16-2.94 1.63-3.14 2.45-1.63 5.8-.23.38-.66.46-1 .62-1.94.83-2.69.43-3-1.71a5.24 5.24 0 0 1 .85-4.31 1.39 1.39 0 0 0-.07-2.25 4.58 4.58 0 0 1-.72-5.1zm-3.49 59.63a32.06 32.06 0 0 1-5.17-4.94 8.4 8.4 0 0 1-1-1.78 29.38 29.38 0 0 1-3.4-13.62 22.75 22.75 0 0 1 3.26-11.51A22.39 22.39 0 0 1 7.9 69c2.36-3 4.52-6.08 8-8A41.88 41.88 0 0 1 27 56.85a18.71 18.71 0 0 1 10.88 1c.35.14.63.35.5.75-.4 1.22.22 2.27.62 3.58a68.32 68.32 0 0 1-8.48 1 41.82 41.82 0 0 0-7.29 1.18 15.91 15.91 0 0 0-7.64 4.58c-2.85 3.14-5.25 6.52-6.14 10.73-.86 4-.87 8 1.13 11.82a50.92 50.92 0 0 0 2.16 4.61 18.87 18.87 0 0 0 7.06 6.15 30.87 30.87 0 0 0 20.29 3.44 2.21 2.21 0 0 1 2.12.63 5.13 5.13 0 0 0-1.13 3.38c.09.63-.57.68-1 .85-2 .8-4.19.63-6.29.67a28 28 0 0 1-13.16-2.76 56.74 56.74 0 0 1-7.8-4.88zm17.68 16.8a14.92 14.92 0 0 1-5.35 2c-.58.1-1.32.3-1.7-.33a1.62 1.62 0 0 1 .48-2 20.39 20.39 0 0 1 4.69-3.61c2.15-1.18 4.49-1.94 6.62-3.19 1-.62 2.41-.05 3.65-.5a3.44 3.44 0 0 1-1.27 2.2 60 60 0 0 1-7.13 5.43zm4.05-.94a18.27 18.27 0 0 1-2.3 5.67 5.43 5.43 0 0 1-1.92 1.8 1.73 1.73 0 0 1-2.23-.36 1.53 1.53 0 0 1-.12-2.05 5.06 5.06 0 0 1 1.13-1.44 39.58 39.58 0 0 1 5.43-3.62zM21.85 117c-1.22-.29-1.47-.9-.72-1.89a5.24 5.24 0 0 1 2.4-1.86c1-.34 1.92-.73 2.86-1.14a1.71 1.71 0 0 1 1-.15c1.75.27 3.5.51 5.25.77-2.7 1.52-5.23 3.19-8.14 4a5 5 0 0 1-2.65.27zM31 132.2c-2.54-.31-4.16-2-5.49-3.92-.5-.73-.9-.92-1.63-.68a4.67 4.67 0 0 1-2.63.18c-2.82-.69-3.95-2.92-2.76-5.62.3-.67.16-1-.36-1.36-2.89-1.83-2.67-5.39-1.51-7.69.06-.12.11-.25.18-.37.59-1 1-2.25 1.83-2.94s1.92.63 3 .73a18.38 18.38 0 0 1 3 .81 5.17 5.17 0 0 1-1.89 1 6.72 6.72 0 0 0-2.45 1.82c-2 2.34-1.33 4.21 1.74 4.85-.26 1.42-.76 2.92.42 4.18s2.51 1.25 4.09.95c.2 1.08-.14 2.21.8 3.06 1.18 1.08 1.94 1.29 3.29.46.63-.38 1.19-.89 1.86-1.39.52.48.37 1 .31 1.53a8.22 8.22 0 0 0 0 2.63c.36 1.57-.13 1.97-1.8 1.77zm37.3 26.11c-2.66.83-5.33.3-7.94-.13a31.86 31.86 0 0 1-19.38-11 28.32 28.32 0 0 1-5.59-9.71 27.23 27.23 0 0 1-1-4.61 21.29 21.29 0 0 1 3-14.76 24.63 24.63 0 0 1 3.61-4.72c.59-.58 1.09-.89 2-.48a3.65 3.65 0 0 0 3.52-.15 5.27 5.27 0 0 1-1.31 4.33c-1.2 1.48-2.09 3.21-3.18 4.79-2.08 3-1.88 6.51-1.87 9.91a18.27 18.27 0 0 0 1 5.23 21.6 21.6 0 0 0 2.84 5.36 26.75 26.75 0 0 0 7 7.39c3.17 2.19 6.67 3.77 10.7 3.62a47.11 47.11 0 0 0 11.33-1.77 14.24 14.24 0 0 0 6-3.89 49.85 49.85 0 0 0 3.5-4 14.3 14.3 0 0 0 3.15-6.38 5.06 5.06 0 0 1 3-4.22c.91.94 1.42 2.35 2.62 3.18.5.35.12.89-.06 1.31a39.33 39.33 0 0 1-9.36 13.34 34.58 34.58 0 0 1-13.56 7.36zm22.2-14.48c-.55 3.07-.4 6.27-1.81 9.19a5.85 5.85 0 0 1-1 1.53A1.43 1.43 0 0 1 86 155a1.47 1.47 0 0 1-.85-1.31 6.89 6.89 0 0 1 .86-4.18c1.15-2.06 2.63-3.92 4-5.87zm15.39 10.55c-1 2.92-3.26 4.08-6.19 3.19l-.39-.11c-1.85-.58-1.85-.58-2.85 1.14-1.71 2.95-6.81 2.91-8.53-.06-.74-1.28-.74-1.28-2-.47a5.47 5.47 0 0 1-6.71-1c-.81-1.09-.84-1.34.17-2.21 1.28-1.11 2.65-2.13 4.3-3.44 0 2.17-.19 4.12 2 4.79s3-1 4.09-2.54c.62 1.06.75 2.17 1.39 3 .93 1.27 1.6 1.43 3 .67a3.92 3.92 0 0 0 1.93-2.53 6.53 6.53 0 0 1 .46-1.62c.67.51 1.37 1 2.06 1.58 1.56 1.23 3.22.69 3.79-1.25.19-.65.31-1.32.5-2.15 1.35.31 2.29 1.24 3.34 1.66.46.7-.25.97-.36 1.34zm-9.61-9a4.19 4.19 0 0 1 1.72 1.43 19.56 19.56 0 0 0 2.67 2.76 3.34 3.34 0 0 1 .88 3.55 1.44 1.44 0 0 1-2.44.66 2.58 2.58 0 0 1-.68-.75 15.56 15.56 0 0 1-2.15-7.71zm47.62-9.21c-.73 1.77-1.59 3.49-2.43 5.21a7.49 7.49 0 0 1-.92 1.36 34.85 34.85 0 0 1-14.66 10.91 17.05 17.05 0 0 1-7.48.82 40 40 0 0 1-8.7-1.35 9.89 9.89 0 0 1-2.46-1 38.79 38.79 0 0 1-9.51-7.76 30.54 30.54 0 0 1-4-7.13c-.16-.36-.15-.71.18-.9a5.36 5.36 0 0 0 2.72-4.37 3 3 0 0 1 2 2.58 7.73 7.73 0 0 0 1.89 3.59c2.45 2.74 4.51 5.82 7.77 7.82 2.36 1.45 4.95 1.91 7.55 2.42 4.62.91 8.79-.65 12.87-2.53a8.12 8.12 0 0 0 2.35-1.63 19.94 19.94 0 0 1 3.28-2.79c1.3-.82 1.64-2.33 2.38-3.52a22 22 0 0 0 3.27-12.79 17.83 17.83 0 0 0-3.76-9.83 14.56 14.56 0 0 0-4.05-4.32.73.73 0 0 1-.33-1 3.4 3.4 0 0 0-.18-2.79c-.31-.67-.11-1 .64-1.11a4.77 4.77 0 0 1 3.82.83 24.86 24.86 0 0 1 9.28 15.25 29.15 29.15 0 0 1 .62 4.26 22.34 22.34 0 0 1-2.14 9.72zm6.6-25a5.5 5.5 0 0 1 2.37 2.22c.77 1.39.48 2-1.11 2.15a6.11 6.11 0 0 1-3.54-.88 32.74 32.74 0 0 1-9-7 3 3 0 0 1-.29-.68c4.53-.06 7.95 2.36 11.57 4.18zm-3.41-3.31c1.69-.28 3.33-.32 4.94-.63a2.51 2.51 0 0 1 1.77.33c.59.34 1 .81.87 1.48a1.47 1.47 0 0 1-1.35 1.09 1.7 1.7 0 0 1-.61 0 16 16 0 0 1-5.61-2.28zm2.53 10.67c-.23.35-.73.29-1.13.27a3.93 3.93 0 0 1-3.09-1.8 7.83 7.83 0 0 1-1.34-3.39 14.42 14.42 0 0 1 5.18 3.59c.31.39.7.8.38 1.32zm8.5-7.77a2.39 2.39 0 0 0-.62 3 4.47 4.47 0 0 1-3.57 6.24c-1 .16-1.56.43-1.75 1.55a5.57 5.57 0 0 1-2.52 3.84c-1.49 1-2.25.68-2.57-1-.27-1.46-.46-2.93-.69-4.4.86-.14 1.3.41 1.87.59a2 2 0 0 0 2.78-1.53c.19-.87.29-1.38 1.43-1.54 2.1-.29 3-2.2 2.09-4.17-.25-.56-.54-1.1-.81-1.64 2.31-1.44 2.59-2.41 1.37-5.08l3.36-2.09c1.51 2.47 1.51 4.31-.37 6.21zm10.06-21c-.8 4.66-3.87 7.8-7 11.06-3.56 3.77-8.3 4.17-12.84 5.21-3.94.9-7.73-.2-11.5-1.22-.51-.14-1-.29-1.14-1-.49-2.48-.52-2.47-2.29-3.84a8.88 8.88 0 0 0 .88-.85 2.06 2.06 0 0 1 2.55-.56 25.24 25.24 0 0 0 11.56.85 18.23 18.23 0 0 0 6.5-2.41 16.87 16.87 0 0 1 1.6-.92 11.68 11.68 0 0 0 5.08-5.16c4-6.81 3.51-13.76 0-20.36a20.52 20.52 0 0 0-15.74-11 30.46 30.46 0 0 0-12.19.84l-1 .24c-.05 0-.12 0-.37-.12a9 9 0 0 0 1.41-4.7c0-.69.88-.77 1.45-.92a33.37 33.37 0 0 1 10.37-1.15 25.07 25.07 0 0 1 16.87 7.47 24.33 24.33 0 0 1 5.8 9.31c.5 1.4.14 3 .57 4.46a27.71 27.71 0 0 1 .79 5.66c.31 3.19-.84 6.11-1.36 9.13z" fill="#441210"/><path d="M98.36 90.62c1-2.51 2.41-5 1.88-7.58 0-.84.13-1.39.11-1.94a13.91 13.91 0 0 0-2.8-8.44C94.11 68.43 87.92 65.35 82 68c-2.51 1.15-4.76 2.38-6.37 4.6a39.53 39.53 0 0 0-2.37 3.85c-1.89 3.34-1.51 7-.61 10.36 1.06 4 4.79 5.95 7.78 8.4C85.69 97.1 90.76 97 95.51 93.8a7.33 7.33 0 0 0 2.85-3.18zm-14.7 4.66c-2.23-.32-3.82-1.74-5.5-3a26.31 26.31 0 0 1-3.27-3.1 6.71 6.71 0 0 1-1.25-3 11.79 11.79 0 0 1 .3-8.6 20 20 0 0 1 3.7-5.63 9.21 9.21 0 0 1 3.94-2.49c1.87-.57 3.56-1.64 5.71-1.38a13.66 13.66 0 0 1 7.42 3.13c3.4 2.87 4.68 6.6 4.55 11.33a19.75 19.75 0 0 1-1.33 6.83 6.45 6.45 0 0 1-2.15 2.93c-3.58 2.9-7.67 3.61-12.12 2.98z" fill="#441210"/><path d="M96.4 78.3c-2.27-6.89-9.69-9.65-16.58-5.86a2.94 2.94 0 0 0-.75.69c-2.07 2.39-3.61 5-3.41 8-.27 4.16 1.56 7.13 4.17 9.7a6.24 6.24 0 0 0 3.08 1.54 13.79 13.79 0 0 0 6.7-.06c2.92-.78 5.28-2.31 6.37-5.24a12.94 12.94 0 0 0 .42-8.77zM94 86.91c-.35.45-.84.11-1.31 0a2.56 2.56 0 0 0-3.21 2.6c.22 1.93.12 2-1.77 2.18h-.56c-1.57 0-1.57 0-1.82-1.58a2.62 2.62 0 0 0-3.6-1.93c-1.74.6-1.85.57-2.91-.88-.2-.28-.37-.57-.57-.85-.48-.67-.48-1.1.35-1.62a2.33 2.33 0 0 0 1.05-3.16 2.13 2.13 0 0 0-2-1.44c-.92 0-1-.59-.81-1.25s.47-1.43.72-2.13c.32-.89.81-1 1.74-.67a2.89 2.89 0 0 0 4.16-2.64c0-.47-.43-1.1.46-1.32 1.17-.29 2.58-.05 3 .59 1.62 2.54 2.05 2.77 4.76 2a1.16 1.16 0 0 1 1.42.4c.38.48.76 1 1.1 1.48.49.73.34 1.22-.56 1.5-1.2.37-2.16 1.06-1.86 2.51a4.14 4.14 0 0 0 2 2.93c.46.25 1.27.25 1.28.86A4 4 0 0 1 94 86.91z" fill="#441210"/></g></g></svg>