<svg xmlns="http://www.w3.org/2000/svg" viewBox="0 0 140.0500030517578 81.989990234375"><title>Depositphotos_124950874_03</title><g data-name="Layer 2"><g data-name="Layer 1"><path d="M108.62 29.82l-2.69-10.14a13.24 13.24 0 0 1 .72-8.69 2.25 2.25 0 0 0 .2-.91C106.85 4.52 85 0 58 0S9.14 4.52 9.14 10.09a2.34 2.34 0 0 0 .31 1.13 11.87 11.87 0 0 1 .8 8.5L7.93 29.2A13.21 13.21 0 0 1 3 36.56c-2 1.48-3 3.07-3 4.73C0 49.47 26 56.1 58 56.1s58-6.63 58-14.81c0-1.58-1-3.11-2.78-4.54a13.19 13.19 0 0 1-4.6-6.93z" fill="#be3729"/><ellipse cx="58" cy="9.46" rx="40.34" ry="6.93" fill="#9b2121"/><path d="M67.45 4.41s3.78-.32 15.76 1.26 15.13 3.78 8.51 6.62S64 16.07 64 16.07s6-5.35 3.45-11.66z" fill="#902121"/><path d="M34 2.21S16.39 5 12.61 7.88s0 3.47 0 6.93a42.64 42.64 0 0 1-2.21 11.35C9.46 29 10.72 47 33.1 51.38s36.8-4.21 45.07-14.19c9.14-11 12-22.69 10.72-22.06S56.1 20.17 34 16.71 14.5 10.4 16.39 7.88 34 2.21 34 2.21z" fill="#d13d2f"/><path d="M59.26 54.53a185.89 185.89 0 0 0 36.25-4.1c18-4.1 19.23-8.51 18-10.72s-4.41-2.21-4.41-2.21 4.1 3.47-6 8.51-43.84 8.52-43.84 8.52z" fill="#d13d2f"/><path d="M5.67 36.88s-5 2.21-3.47 6 17.65 7.88 17.65 7.88-15.75-6-14.18-13.88z" fill="#d13d2f"/><path d="M14.26 8.43s-5.07 4.28 12.53 7.8c23.64 4.77 55.08 1.18 55.08 1.18S55.63 29 37.19 30.18s-23.87-15.6-24.82-18.44a2.38 2.38 0 0 1 1.89-3.31z" fill="#e24938"/><path d="M23 12.69a18 18 0 0 1 8.51-5.91c3.12-1 5.91 2.84 5.91 2.84l3.31-.24s2.36-4.49 5.44-5 10.17 1.69 10.17 1.69l1.89 2.13a19.88 19.88 0 0 1 9-1.65c5.2.24 7.33 3.07 7.33 3.07l2.6.71A14.08 14.08 0 0 1 84 7.72c3.78-.24 9 3.55 9.46 4.73s-9.57 4.73-38.65 4S23 12.69 23 12.69z" fill="#b25a38"/><path d="M32.94 7.25a12 12 0 0 0-6 3c-1.42 1.54 4.26 3.19 5.67 2.72a7 7 0 0 0 3.19-2.84c.2-.63-1.92-2.88-2.86-2.88z" fill="#bf6437"/><path d="M46.06 5a6.54 6.54 0 0 0-3.55 3.31c-.71 1.65 5.67 3 8.51 1.89s4.37-3.07 3-3.78S47.24 4.77 46.06 5z" fill="#bf6437"/><path d="M41.68 10.2a9.08 9.08 0 0 0-3.31 0c-1.06.35-3.55 3.07-2.48 3.78s8.39 1.54 9.81.59-2.48-4.25-4.02-4.37z" fill="#bf6437"/><path d="M73.6 10.32c-1-1.61-3.66-3.19-7.8-2.84s-7.68 2.6-6.74 4.37 16.43 1.66 14.54-1.53z" fill="#bf6437"/><path d="M84.94 8.43c-1.58-.28-4.73.47-5.79 2.25s5.44 3 8.75 2.13-.24-3.91-2.96-4.38z" fill="#bf6437"/><path d="M77.73 12.45a13.16 13.16 0 0 0-6.5 1.42c-1.77 1.06 6.15 1.65 8.39 1.06s-.7-2.36-1.89-2.48z" fill="#bf6437"/><path d="M56.7 11.27c-1.06-.47-7.21.59-8.86 2.48s9.22 2 10.64 1.18-.81-3.23-1.78-3.66z" fill="#bf6437"/><path d="M60.83 14.58c.45-.78 4-.83 5.67-.12s-6.14.95-5.67.12z" fill="#bf6437"/><path d="M63 54.84c-1.89.32-3.49-2.33-10.09-3.15-2.52-.32-7.41 2-10.32 6.62-2 3.11 2.44 5.67 2.44 5.67 1.26.32-1.26 2.52-1.26 5.67a12.84 12.84 0 0 0 12.29 12c5.07.34 11.66-3.47 12.29-6.3s.95-4.1 3.15-5S111.58 53 113.15 52s8.45 1.61 13.24 2.21c4.41.55 10.3-5.47 11.66-9.77 2-6.23.71-9.68-2.52-10.72-3.7-1.18-6.3-1.89-6.3-1.89s2-3.61-.63-5.67c-1.81-1.42-4.65-1.65-8.19-1.26-5 .55-6 5.36-6.62 7.56S64.93 54.53 63 54.84z" fill="#dd8345"/><path d="M63.43 56.42c-1.42 0-5.67-2.84-9.93-3.31S45 57.37 44 59.49s2.88 3.51 3.59 3.31a40.64 40.64 0 0 1 4.49-1.89 18.25 18.25 0 0 1 5.2-.95s-6.15 3.07-9 4.73-2.15 6.71-1.42 8C49.25 77 53 76 56.34 76s7.8-2.84 8.27-4.26a7.6 7.6 0 0 1 4-4.73c2.36-.95 18.44-8.75 18.44-8.75s-2.36.24-8.51 2.6S70.76 64 70.76 64a153.81 153.81 0 0 1 20.09-11.36c10.4-4.73 17.49-5 17.49-5l-11.58 5.94s14.18-5.2 16.07-5.2 9 2.6 11.82 1.89 7.33-5 9.46-9.69c1.77-3.93-1.42-4.73-2.6-5.2s-4.49-1.18-5.44-.71l-3.78 1.89 4-4.26s2.36-4-1.18-5.2-6.62.24-7.8 2.36-2.13 5.91-3.07 6.38-50.81 20.58-50.81 20.58z" fill="#ea9154"/><path d="M137.19 37.27s2.13 3.31-.71 7.56-6.38 7.8-8.75 8.27-7.56-1.42-7.56-1.42 5.91.95 7.8-.24 9.69-8.5 9.22-14.17z" fill="#ea9154"/><path d="M46.88 75.8s3.79 5.44 10.12 4.5 9.27-3.3 10.21-5.91a22.89 22.89 0 0 0 1.18-4.49 14.76 14.76 0 0 1-6.86 7.33c-4.95 2.36-11.34 1.41-14.65-1.43z" fill="#ea9154"/><path d="M62.72 57.84c-1.18-.71-8.51-4.26-11.11-3.55s-5.44 4-5.91 5.44 1.89 2.13 3.55 1.18a16.85 16.85 0 0 1 6.15-1.65 24.91 24.91 0 0 1 4.49 0S49.25 65.4 48.3 66.11s-.71 6.15 3.31 7.33 9.69-1.65 10.87-3.31a66.64 66.64 0 0 1 6.15-8c2.36-2.36 15.6-8 16.78-9.46s2.84-4.49 1.65-4.49-24.34 9.66-24.34 9.66z" fill="#f4a664"/><path d="M90.62 46.49c-1 .45-2.36 5-1.42 4.73s8.51-3.31 9.22-3.78c1.26-.84.95-3.78 1.18-4.26.47-.94-4.49 1.18-8.98 3.31z" fill="#f4a664"/><path d="M101.26 42.47c-.71.71-1.42 4.49-.24 4.26s8-3.07 10.64-2.13c1.41.51 9.46 2.84 12.29 2.6s8-6.15 8-8.51-4-2.36-5.67-2.36S118 39.4 118 39.4s6.15-5.44 6.86-6.86-.71-3.07-3.31-3.31a3.74 3.74 0 0 0-4.26 2.36c-.71 1.42-2.36 5-2.36 5z" fill="#f4a664"/></g></g></svg>