<svg xmlns="http://www.w3.org/2000/svg" viewBox="0 0 500.0100402832031 500.0000305175781" style=""><g><title>Depositphotos_93069326_2_bo</title><g data-name="Layer 2"><g data-name="Layer 1"><path fill="#5cc5c0" d="M380.45 47.71l-31.52-23.55L380.45.6h-41.9l-32.92 23.56 32.92 23.55h41.9z"></path><path fill="#5cc5c0" d="M161.37 47.71l32.92-23.55L161.37.6h-41.9l31.52 23.56-31.52 23.55h41.9z"></path><path fill="#5cc5c0" d="M475.84 151.05l-23.55-31.52v41.9l23.56 32.91 23.55-32.91v-41.9l-23.56 31.52z"></path><path fill="#5cc5c0" d="M452.29 338.57v41.9l23.55-31.52 23.56 31.52v-41.9l-23.55-32.91-23.56 32.91z"></path><path fill="#5cc5c0" d="M.6 338.57l.01 41.9 23.55-31.52 23.56 31.52v-41.9l-23.56-32.91L.6 338.57z"></path><path fill="#5cc5c0" d="M.61 119.53l-.01 41.9 23.56 32.91 23.56-32.91v-41.9l-23.56 31.52L.61 119.53z"></path><path fill="#5cc5c0" d="M119.55 452.29l31.52 23.56-31.52 23.55h41.9l32.92-23.55-32.92-23.56h-41.9z"></path><path fill="#5cc5c0" d="M338.63 452.29l-32.92 23.56 32.92 23.55h41.9L349 475.85l31.53-23.56h-41.9z"></path><path fill="#2a7cc0" d="M239.82 47.72l10.14-10.29 10.14 10.29h16.58L258.17 29.1l4.86-4.94-4.88-4.85L276.68.68 260.6.59l-10.64 10.58L239.32.59l-16.08.09 18.52 18.63-4.88 4.85 4.87 4.95-18.51 18.61h16.58z"></path><path fill="#2a7cc0" d="M499.41 223.28l-18.62 18.51-4.94-4.86-4.85 4.88-18.63-18.53-.1 16.08L462.85 250l-10.58 10.64.1 16.07 18.62-18.52 4.86 4.88 4.94-4.87 18.62 18.51v-16.57L489.12 250l10.29-10.14v-16.58z"></path><path fill="#2a7cc0" d="M24.17 236.92l-4.86 4.89L.68 223.29l-.09 16.07L11.17 250 .59 260.64l.09 16.07 18.64-18.52 4.85 4.88 4.94-4.87 18.62 18.51v-16.57L37.44 250l10.29-10.14v-16.57l-18.62 18.5-4.94-4.87z"></path><path fill="#2a7cc0" d="M260.68 452.28l-10.64 10.58-10.64-10.58-16.08.09L241.84 471l-4.88 4.85 4.87 4.94-18.51 18.62h16.58l10.14-10.29 10.14 10.29h16.58l-18.51-18.61 4.87-4.95-4.89-4.85 18.53-18.63-16.08-.09z"></path><path fill="#f1686c" d="M435.82 48.31l24.31-24.16L436.34 0h-16.99l23.97 24.11-23.97 24.1 16.47.1z"></path><path fill="#f1686c" d="M80.57 48.21L56.6 24.11 80.57 0H63.58l-23.8 24.15L64.1 48.31l16.47-.1z"></path><path fill="#f1686c" d="M451.68 80.64l24.11-23.97 24.11 23.97.1-16.47-24.17-24.31-24.15 23.79v16.99z"></path><path fill="#f1686c" d="M475.79 443.32l-24.11-23.96v16.98l24.15 23.8L500 435.83l-.1-16.47-24.11 23.96z"></path><path fill="#f1686c" d="M48.22 419.36l-24.11 23.97L0 419.36v16.99l24.15 23.79 24.17-24.31-.1-16.47z"></path><path fill="#f1686c" d="M48.22 80.64l.1-16.47-24.17-24.31L0 63.66v16.98l24.11-23.97 24.11 23.97z"></path><path fill="#f1686c" d="M63.66 451.69l-23.79 24.15L64.17 500l16.49-.1-23.98-24.1 23.98-24.11h-17z"></path><path fill="#f1686c" d="M419.42 451.69l23.97 24.11-23.97 24.1 16.48.1 24.32-24.16-23.8-24.15h-17z"></path><circle cx="475.84" cy="24.16" r="6.63" fill="#fff"></circle><path d="M271 46.82l14-13.23 14.12 13.23 14-13.43 14.2 13.43V30.08h45.48v9.14l8.4-9.14h24.51l-18 18.13 16.48.1 24.31-24.16L404.67 0h-17l18.13 18.23h-24.6l-8.4-9.15v9.15h-45.46l-.11-16.74-14 13.23L299.14 1.5l-14 13.43L270.9 1.49v18.88l4.3 4-4.29 4.11zm28.16-26.64l4.15 3.92-4.26 4-4.15-3.92z" fill="#fff"></path><path d="M112.24 48.21l-18-18.13h24.51l8.4 9.14v-9.14h45.44v16.74l14.2-13.43 14 13.43 14.12-13.23 14 13.23.09-18.31-4.29-4.11 4.3-4V1.49l-14.2 13.43-14-13.43-14.14 13.23-14-13.23-.1 16.74h-45.45V9.08l-8.4 9.15h-24.6L112.24 0h-17L71.45 24.15l24.32 24.16zm88.49-28l4.26 4-4.15 3.92-4.26-4z" fill="#fff"></path><circle cx="24.08" cy="24.16" r="6.63" fill="#fff"></circle><path d="M469.91 118.78l-9.15 8.4h9.15v45.45l-16.74.1 13.23 14-13.23 14.11 13.43 14-13.43 14.2h18.88l4-4.3 4.11 4.29 18.32-.11-13.23-14 13.23-14.11-13.43-14 13.43-14.2h-16.71v-45.43h9.14l-9.14-8.4V94.27l18.14 18 .1-16.47-24.18-24.28-24.15 23.8v17l18.23-18.13zm9.9 82.11l-3.92 4.11-4-4.26 3.92-4.15z" fill="#fff"></path><path d="M481.77 405.72v-24.51l9.14-8.4h-9.14v-45.43h16.74l-13.43-14.2 13.43-14L485.28 285l13.23-14-18.32-.11-4.11 4.29-4-4.3h-18.91l13.43 14.2-13.43 14 13.23 14.11-13.23 14 16.74.1v45.45h-9.15l9.15 8.4v24.6l-18.23-18.12v17l24.15 23.79L500 404.17l-.1-16.47zm-9.9-106.51l4-4.26 3.92 4.15-4 4.26z" fill="#fff"></path><circle cx="475.84" cy="475.84" r="6.63" fill="#fff"></circle><path d="M30.09 405.73v-24.51l9.15-8.4h-9.15v-45.44h16.74l-13.43-14.2 13.43-14L33.59 285l13.23-14-18.31-.11-4.11 4.29-4-4.3H1.49l13.43 14.2-13.43 14 13.23 14.11-13.23 14 16.75.1v45.45H9.09l9.15 8.4v24.6L0 387.69v17l24.15 23.8 24.17-24.31-.1-16.48zm-9.9-106.51l4-4.26 3.92 4.15-4 4.26z" fill="#fff"></path><circle cx="24.16" cy="475.84" r="6.63" fill="#fff"></circle><path d="M0 95.32v17l18.24-18.14v24.6l-9.15 8.4h9.15v45.45l-16.75.1 13.23 14-13.22 14.1 13.43 14-13.44 14.23h18.88l4-4.3 4.11 4.29 18.31-.11L33.59 215l13.23-14.11-13.43-14 13.43-14.2H30.09v-45.51h9.15l-9.15-8.4v-24.5l18.14 18 .1-16.47-24.18-24.29zm28.13 105.57L24.21 205l-4-4.26 3.92-4.15z" fill="#fff"></path><path d="M200.86 453.18l-14.11 13.23-14-13.23-.1 16.74H127.2v-9.15l-8.4 9.15H94.19l18.13-18.23h-17l-23.8 24.15L95.85 500l16.48-.1-18-18.13h24.47l8.4 9.14v-9.14h45.45v16.74l14.2-13.43 14 13.43L215 485.28l14 13.23.11-18.31-4.29-4.11 4.3-4v-18.91l-14.2 13.43zm.06 26.64l-4.26-4 4.15-3.92 4.26 4z" fill="#fff"></path><path d="M387.76 451.69l18.13 18.23h-24.61l-8.4-9.15v9.15h-45.46l-.1-16.74-14 13.23-14.11-13.23-14 13.43L271 453.18v18.88l4.3 4-4.3 4.14.11 18.31 14-13.23 14.12 13.23 14-13.43 14.2 13.43v-16.74h45.44v9.14l8.4-9.14h24.51l-18 18.13 16.47.1 24.31-24.16-23.8-24.15zm-88.6 28.13L295 475.9l4.26-4 4.15 3.92z" fill="#fff"></path></g></g></g></svg>