<svg xmlns="http://www.w3.org/2000/svg" viewBox="-0.009394586086273193 -0.009378476068377495 500.0931396484375 500.0587158203125" style=""><g><title>Depositphotos_87169540_2_bo</title><g data-name="Layer 2"><g data-name="Layer 1" fill="#fff"><path d="M16.2 277.7l70.64 75.67a9.48 9.48 0 0 1 2.29 6.5h.12a7 7 0 0 1-.46 2.43l7.76 6.79c.39.34.72.74 1.08 1.11a18.56 18.56 0 0 0 3.16-10.32 25.22 25.22 0 0 0-6.35-17.13L25 268.32z"></path><path d="M4.24 261.33L12 253c-.91-3.24-.3-7.09 1.89-9.44l70.71-75.73-8.76-9.38-69.49 74.44A25.23 25.23 0 0 0 0 250a26.47 26.47 0 0 0 3.15 12.62c.36-.42.7-.88 1.09-1.29z"></path><path d="M16.2 246.31L86.84 322c2.2 2.36 2.81 6.2 1.9 9.44l7.81 8.37c.38.41.74.85 1.1 1.3a26.48 26.48 0 0 0 3.14-12.61 25.22 25.22 0 0 0-6.35-17.13L25 236.93z"></path><path d="M61.17 357.27l8.76-9.38-56-60c-3.11-3.33-3.1-9.67 0-13L26 262l-8.76-9.39-10.89 11.67a26.29 26.29 0 0 0 0 34.26z"></path><path d="M86.84 178l-56 60 8.76 9.38 54.82-58.73a25.22 25.22 0 0 0 6.35-17.13 25.23 25.23 0 0 0-6.35-17.13l-10.87-11.64-8.76 9.38L86.84 165a9.44 9.44 0 0 1 2.41 6.5 9.44 9.44 0 0 1-2.41 6.5z"></path><path d="M146.62 86.84a9.48 9.48 0 0 1-6.5 2.29v.12a7 7 0 0 1-2.43-.46l-6.79 7.76c-.34.39-.74.72-1.11 1.08a18.56 18.56 0 0 0 10.32 3.16 25.22 25.22 0 0 0 17.13-6.35L231.68 25l-9.38-8.8z"></path><path d="M247 12c3.24-.91 7.09-.3 9.44 1.89l75.73 70.71 9.38-8.76-74.44-69.49A25.23 25.23 0 0 0 250 0a26.47 26.47 0 0 0-12.62 3.15c.44.36.9.7 1.31 1.09z"></path><path d="M278.44 12c3.24-.91 7.09-.3 9.44 1.89l72 67.21 3 3.46 7.66-8.76-10.66-12.2-61.37-57.25A25.23 25.23 0 0 0 281.38 0a26.47 26.47 0 0 0-12.62 3.15c.44.36.9.7 1.31 1.08z"></path><path d="M178 86.84c-2.35 2.2-6.2 2.81-9.44 1.9l-8.37 7.81c-.41.38-.85.74-1.3 1.1a26.48 26.48 0 0 0 12.61 3.14 25.22 25.22 0 0 0 17.13-6.35L263.07 25l-9.38-8.76z"></path><path d="M66.78 4.24L73.62 12a7.18 7.18 0 0 1 7.71 1.89l58.8 67.21 3.7 3.46 9.38-8.76-13.08-12.2L90 6.35a18.53 18.53 0 0 0-24.3-3.19c.37.35.74.69 1.08 1.08z"></path><path d="M212.09 13.95c3.33-3.11 9.67-3.1 13 0L238 26l9.38-8.76-11.66-10.89a26.29 26.29 0 0 0-34.26 0l-58.73 54.82 9.38 8.76z"></path><path d="M335 86.84a9.44 9.44 0 0 1-6.5 2.41 9.44 9.44 0 0 1-6.5-2.41l-60-56-9.38 8.76 58.73 54.82a25.22 25.22 0 0 0 17.13 6.35 25.22 25.22 0 0 0 17.13-6.35l11.67-10.89-9.38-8.76z"></path><path d="M495.76 238.67L488 247c.91 3.24.3 7.09-1.89 9.44l-70.71 75.73 8.76 9.38 69.49-74.44A25.23 25.23 0 0 0 500 250a26.47 26.47 0 0 0-3.15-12.62c-.36.42-.7.88-1.09 1.29z"></path><path d="M483.8 253.69L413.16 178c-2.2-2.35-2.81-6.2-1.9-9.44l-7.81-8.37c-.38-.41-.74-.85-1.1-1.3a26.48 26.48 0 0 0-3.14 12.61 25.22 25.22 0 0 0 6.35 17.13L475 263.07z"></path><path d="M438.83 142.73l-8.76 9.38 56 60c3.11 3.33 3.1 9.67 0 13L474 238l8.76 9.39 10.88-11.66a26.29 26.29 0 0 0 0-34.26z"></path><path d="M413.16 322l56-60-8.76-9.38-54.82 58.73a25.21 25.21 0 0 0-6.35 17.13 25.22 25.22 0 0 0 6.35 17.13l10.89 11.67 8.76-9.38-12.07-12.9a9.44 9.44 0 0 1-2.41-6.5 9.44 9.44 0 0 1 2.41-6.5z"></path><path d="M353.38 413.16a9.48 9.48 0 0 1 6.5-2.29v-.12a7 7 0 0 1 2.43.46l6.79-7.76c.34-.39.74-.72 1.11-1.08a18.56 18.56 0 0 0-10.32-3.16 25.22 25.22 0 0 0-17.13 6.35L268.32 475l9.38 8.76z"></path><path d="M253 488c-3.24.91-7.09.3-9.44-1.89l-75.73-70.71-9.38 8.76 74.44 69.49A25.23 25.23 0 0 0 250 500a26.47 26.47 0 0 0 12.62-3.15c-.44-.36-.9-.7-1.31-1.09z"></path><path d="M221.56 488c-3.24.91-7.09.3-9.44-1.89l-72-67.21-3-3.46-7.66 8.76 10.69 12.22 61.37 57.28a25.23 25.23 0 0 0 17.1 6.3 26.47 26.47 0 0 0 12.62-3.15c-.44-.36-.9-.7-1.31-1.08z"></path><path d="M322 413.16c2.35-2.2 6.2-2.81 9.44-1.9l8.37-7.81c.41-.38.85-.74 1.3-1.1a26.48 26.48 0 0 0-12.61-3.14 25.22 25.22 0 0 0-17.13 6.35L236.93 475l9.38 8.76z"></path><path d="M433.22 495.76l-6.84-7.76a7.18 7.18 0 0 1-7.71-1.89l-58.8-67.21-3.7-3.46-9.38 8.76 13.09 12.22L410 493.65a18.53 18.53 0 0 0 24.3 3.19c-.37-.35-.74-.69-1.08-1.08z"></path><path d="M287.91 486.05c-3.33 3.11-9.67 3.1-13 0L262 474l-9.39 8.76 11.66 10.88a26.29 26.29 0 0 0 34.26 0l58.73-54.82-9.38-8.76z"></path><path d="M165 413.16a9.44 9.44 0 0 1 6.5-2.41 9.44 9.44 0 0 1 6.5 2.41l60 56 9.38-8.76-58.73-54.82a25.21 25.21 0 0 0-17.13-6.35 25.22 25.22 0 0 0-17.13 6.35l-11.67 10.89 9.38 8.76z"></path><path d="M16.2 73l70.64 61.8a6.94 6.94 0 0 1 2.29 5.31h.12a10.34 10.34 0 0 1-.46 3l7.76 8.31c.39.42.72.9 1.08 1.35a26.47 26.47 0 0 0 3.16-12.63 18.58 18.58 0 0 0-6.35-14L25 65.35z"></path><path d="M4.24 59.64L12 52.81a7.18 7.18 0 0 1 1.89-7.71l16.67-14.54L35.43 25l-7.66-8.8-5.4 6.17-16 14a18.53 18.53 0 0 0-3.2 24.3c.34-.32.68-.67 1.07-1.03z"></path><path d="M4.24 34L12 27.17a7.18 7.18 0 0 1 1.89-7.71l2.94-2.58 2.56-2.93a7.21 7.21 0 0 1 10.61 0L40.59 26l7.66-8.76-9.52-10.89a18.59 18.59 0 0 0-28 0L8.7 8.7l-2.35 2.08a18.53 18.53 0 0 0-3.19 24.3c.35-.36.69-.74 1.08-1.08z"></path><path d="M16.2 47.38l70.64 61.8a7.18 7.18 0 0 1 1.9 7.71l7.81 6.83c.38.34.74.7 1.1 1.06a18.52 18.52 0 0 0-3.21-24.28L25 39.72z"></path><path d="M4.24 229.93l7.76-8.37c-.91-3.24-.3-7.09 1.89-9.44l67.21-72 3.46-3-8.76-7.66-12.2 10.67-57.25 61.36A25.23 25.23 0 0 0 0 218.62a26.47 26.47 0 0 0 3.15 12.62c.36-.44.7-.89 1.09-1.31z"></path><path d="M6.35 90l54.82 48 8.76-7.66-56-49a7.21 7.21 0 0 1 0-10.61L26 60.2l-8.76-7.66-10.89 9.51a18.59 18.59 0 0 0 0 28z"></path><path d="M41.14 4.24L48 12a7.18 7.18 0 0 1 7.71 1.89L117.5 84.6l7.66-8.76L64.37 6.35a18.53 18.53 0 0 0-24.3-3.2c.36.36.74.7 1.07 1.09z"></path><path d="M39.62 48.28l4.61-4.05-.01-.01 16.85-19.26-7.66-8.76-17.36 19.85.01.01-5.2 4.55 8.76 7.67z"></path><path d="M119.77 86.84a7 7 0 0 1-5.31 2.41 7 7 0 0 1-5.31-2.41l-49-56-7.66 8.76 48 54.82a18.58 18.58 0 0 0 14 6.35 18.59 18.59 0 0 0 14-6.35L138 83.55l-7.66-8.76z"></path><path d="M365.18 86.84a6.94 6.94 0 0 1-5.31 2.29v.12a10.34 10.34 0 0 1-3-.46l-8.31 7.76c-.42.39-.9.72-1.35 1.08a26.47 26.47 0 0 0 12.63 3.16 18.58 18.58 0 0 0 14-6.35L434.65 25 427 16.2z"></path><path d="M440.36 4.24l6.83 7.76a7.18 7.18 0 0 1 7.71 1.89l14.54 16.62 5.56 4.92 8.76-7.66-6.17-5.4-14-16a18.53 18.53 0 0 0-24.3-3.2c.36.34.71.68 1.07 1.07z"></path><path d="M383.11 88.74l-6.83 7.81c-.34.38-.7.74-1.06 1.1a18.52 18.52 0 0 0 24.28-3.21L460.28 25l-7.66-8.76-61.8 70.64a7.18 7.18 0 0 1-7.71 1.86z"></path><path d="M418.65 13.95a7.21 7.21 0 0 1 10.61 0L439.8 26l7.66-8.76-9.51-10.89a18.59 18.59 0 0 0-28 0L362 61.17l7.66 8.76z"></path><path d="M495.76 41.14L488 48a7.18 7.18 0 0 1-1.89 7.71L415.4 117.5l8.76 7.66 69.49-60.79a18.53 18.53 0 0 0 3.2-24.3c-.36.36-.7.74-1.09 1.07z"></path><path d="M483.8 222.3l-70.64-75.67a9.48 9.48 0 0 1-2.29-6.5h-.12a7 7 0 0 1 .46-2.43l-7.76-6.79c-.39-.34-.72-.74-1.08-1.11a18.56 18.56 0 0 0-3.16 10.32 25.22 25.22 0 0 0 6.35 17.13L475 231.68z"></path><path d="M495.76 66.78L488 73.62a7.18 7.18 0 0 1-1.89 7.71l-67.21 58.8-3.46 3.7 8.76 9.38 12.22-13.09L493.65 90a18.53 18.53 0 0 0 3.19-24.3c-.35.37-.69.74-1.08 1.08z"></path><path d="M483.8 53.41l-19.85-17.36-.01.01-4.55-5.2-7.67 8.76 4.04 4.61.02-.01 19.26 16.85 8.76-7.66z"></path><path d="M466 4.24l6.83 7.76a7.18 7.18 0 0 1 7.71 1.89l2.58 2.94 2.93 2.56a7.21 7.21 0 0 1 0 10.61L474 40.59l8.76 7.66 10.88-9.52a18.59 18.59 0 0 0 0-28L491.3 8.7l-2.07-2.36a18.53 18.53 0 0 0-24.3-3.19c.35.36.73.7 1.07 1.09z"></path><path d="M413.16 109.16l56-49-8.76-7.66-54.82 48a18.58 18.58 0 0 0-6.35 14 18.59 18.59 0 0 0 6.35 14l10.87 9.5 8.76-7.66-12.06-10.55a7 7 0 0 1-2.41-5.31 7 7 0 0 1 2.42-5.32z"></path><path d="M483.8 427l-70.64-61.8a6.94 6.94 0 0 1-2.29-5.31h-.12a10.34 10.34 0 0 1 .46-3l-7.76-8.31c-.39-.42-.72-.9-1.08-1.35a26.47 26.47 0 0 0-3.16 12.63 18.58 18.58 0 0 0 6.35 14L475 434.65z"></path><path d="M495.76 440.36l-7.76 6.83a7.18 7.18 0 0 1-1.89 7.71l-16.62 14.54-4.92 5.56 7.66 8.76 5.4-6.17 16-14a18.53 18.53 0 0 0 3.2-24.3c-.34.36-.68.71-1.07 1.07z"></path><path d="M495.76 466l-7.76 6.83a7.18 7.18 0 0 1-1.89 7.71l-2.94 2.58-2.56 2.93a7.21 7.21 0 0 1-10.61 0l-10.54-12-7.66 8.76 9.52 10.88a18.59 18.59 0 0 0 28 0l2.06-2.35 2.36-2.07a18.53 18.53 0 0 0 3.19-24.3c-.44.31-.78.69-1.17 1.03z"></path><path d="M483.8 452.62l-70.64-61.8a7.18 7.18 0 0 1-1.9-7.71l-7.81-6.83c-.38-.34-.74-.7-1.1-1.06a18.52 18.52 0 0 0 3.21 24.28L475 460.28z"></path><path d="M495.76 270.07l-7.76 8.37c.91 3.24.3 7.09-1.89 9.44l-67.21 72-3.46 3 8.76 7.66 12.22-10.69 57.28-61.37a25.23 25.23 0 0 0 6.3-17.1 26.47 26.47 0 0 0-3.15-12.62c-.36.44-.7.89-1.09 1.31z"></path><path d="M493.65 410l-54.82-48-8.76 7.66 56 49a7.21 7.21 0 0 1 0 10.61L474 439.8l8.76 7.66 10.88-9.52a18.59 18.59 0 0 0 0-28z"></path><path d="M458.86 495.76L452 488a7.18 7.18 0 0 1-7.71-1.89L382.5 415.4l-7.66 8.76 60.79 69.49a18.53 18.53 0 0 0 24.3 3.2c-.36-.36-.74-.7-1.07-1.09z"></path><path d="M460.38 451.72l-4.62 4.04.02.02-16.85 19.26 7.66 8.76 17.36-19.85-.01-.01 5.2-4.55-8.76-7.67z"></path><path d="M380.23 413.16a7 7 0 0 1 5.31-2.41 7 7 0 0 1 5.31 2.41l49 56 7.66-8.76-48-54.82a18.58 18.58 0 0 0-14-6.35 18.59 18.59 0 0 0-14 6.35L362 416.45l7.66 8.76z"></path><path d="M134.82 413.16a6.94 6.94 0 0 1 5.31-2.29v-.12a10.33 10.33 0 0 1 3 .46l8.31-7.76c.42-.39.9-.72 1.35-1.08a26.47 26.47 0 0 0-12.63-3.16 18.58 18.58 0 0 0-14 6.35L65.35 475l7.65 8.8z"></path><path d="M59.64 495.76L52.81 488a7.18 7.18 0 0 1-7.71-1.89l-14.54-16.67-5.56-4.87-8.76 7.66 6.17 5.4 14 16a18.53 18.53 0 0 0 24.3 3.2c-.36-.34-.71-.68-1.07-1.07z"></path><path d="M34 495.76L27.17 488a7.18 7.18 0 0 1-7.71-1.89l-2.58-2.94-2.93-2.56a7.21 7.21 0 0 1 0-10.61l12-10.54-8.76-7.66-10.84 9.47a18.59 18.59 0 0 0 0 28l2.35 2.03 2.07 2.36a18.53 18.53 0 0 0 24.3 3.19c-.35-.36-.73-.7-1.07-1.09z"></path><path d="M109.18 413.16a7.18 7.18 0 0 1 7.71-1.9l6.83-7.81c.34-.38.7-.74 1.06-1.1a18.52 18.52 0 0 0-24.28 3.21L39.72 475l7.66 8.76z"></path><path d="M81.35 486.05a7.21 7.21 0 0 1-10.61 0L60.2 474l-7.66 8.76 9.52 10.88a18.59 18.59 0 0 0 28 0l48-54.82-7.66-8.76z"></path><path d="M16.2 446.59l19.85 17.36.01-.01 4.55 5.2 7.67-8.76-4.05-4.62-.01.02-19.26-16.85-8.76 7.66z"></path><path d="M4.24 458.86L12 452a7.18 7.18 0 0 1 1.89-7.71L84.6 382.5l-8.76-7.66-69.49 60.79a18.53 18.53 0 0 0-3.2 24.3c.36-.36.7-.74 1.09-1.07z"></path><path d="M4.24 433.22l7.76-6.84a7.18 7.18 0 0 1 1.89-7.71l67.21-58.8 3.46-3.7-8.76-9.38-12.2 13.09L6.35 410a18.53 18.53 0 0 0-3.19 24.3c.35-.37.69-.74 1.08-1.08z"></path><path d="M86.84 390.84l-56 49 8.76 7.66 54.82-48a18.58 18.58 0 0 0 6.35-14 18.59 18.59 0 0 0-6.35-14L83.55 362l-8.76 7.66 12.06 10.55a7 7 0 0 1 2.41 5.31 7 7 0 0 1-2.42 5.32z"></path></g></g></g></svg>