<svg xmlns="http://www.w3.org/2000/svg" viewBox="-0.06359699368476868 -0.023604774847626686 500.1271667480469 500.0471496582031" style=""><g><title>Depositphotos_104673594_10_bo</title><g data-name="Layer 2"><g data-name="Layer 1" fill="#fff"><path d="M368.78 17.18a2.22 2.22 0 0 0 1.84-1.35 1.45 1.45 0 0 0-.7-1.91 1.33 1.33 0 0 1-.31-.32c-2.51-3-5.85-4.2-9.6-4.53a4.93 4.93 0 0 0-1.61.25c-.19 0-.5.4-.47.45.39.71-.52.72-.6 1.05.77.94 1.47 1.83 2.21 2.69a3.52 3.52 0 0 0 .89.78c1.12.64 2.26 1.26 3.42 1.84a9.06 9.06 0 0 0 4.93 1.05zm-7.09-3.75c-1.2-.61-1.66-1.76-2.29-2.82.13-.06.18-.1.22-.09 3.27.35 6.29 1.24 8.46 3.91.2.24.42.75.31.9a1.18 1.18 0 0 1-1 .47 35.6 35.6 0 0 1-4-1.25c-.56-.24-1.08-.8-1.7-1.11z"></path><path d="M351 6.33a4.17 4.17 0 0 0 1.46-2.84 22.15 22.15 0 0 0 0-2.8 1.52 1.52 0 0 0-1.84-.61c-.29.08-.59.08-.89.14-3.38.74-5.68 2.69-6.14 6a4.34 4.34 0 0 0 .55 2.95c1.77.02 5.17-1.48 6.86-2.84zm-.44-4.48a2.31 2.31 0 0 1-.69 3 11.36 11.36 0 0 1-4.67 2.45c-.92-2.61 2.04-5.65 5.33-5.45z"></path><path d="M337.89 17.29a2.38 2.38 0 0 0 2.5-1.9 1 1 0 0 0-.15-.7 43 43 0 0 0-3.56-3.82 7.19 7.19 0 0 0-5.59-1.68c-1 .09-1.77.38-2 1.32l1.37 2.21c1.68 2.78 4.45 3.86 7.43 4.57zm.47-1.91c-1.35.81-2.39-.09-3.41-.51a5.58 5.58 0 0 1-3.6-4.2c2.29-.47 5.65 1.72 7.01 4.72z"></path><path d="M351.57 14.47a1.56 1.56 0 0 0-.73-2 9.1 9.1 0 0 0-2.74-.69 2.16 2.16 0 0 0-1.95 2.65 4.07 4.07 0 0 0 2.71 1.92 3.23 3.23 0 0 0 2.71-1.88z"></path><path d="M333.93 6.77a2.85 2.85 0 0 0 3.34-1.41 1.44 1.44 0 0 0 0-.73 3.84 3.84 0 0 0-2.88-2 2.29 2.29 0 0 0-2.21 1.27c-.46 1 .23 1.6.8 2.22a3.59 3.59 0 0 0 .95.65z"></path><path d="M362.55 6.91c1.07 0 2.49-1.18 2.47-2a2.54 2.54 0 0 0-2.81-2.29c-1.07 0-2.18 1-2.13 1.88a3 3 0 0 0 2.47 2.41z"></path><path d="M424.34 17.18a2.22 2.22 0 0 0 1.84-1.35 1.45 1.45 0 0 0-.7-1.91 1.29 1.29 0 0 1-.31-.32c-2.51-3-5.85-4.2-9.6-4.53a4.93 4.93 0 0 0-1.61.25c-.19 0-.5.4-.47.45.39.71-.52.72-.6 1.05.77.94 1.47 1.83 2.21 2.69a3.48 3.48 0 0 0 .89.78c1.12.64 2.26 1.26 3.42 1.84a9.06 9.06 0 0 0 4.93 1.05zm-7.09-3.75c-1.2-.61-1.66-1.76-2.29-2.82.13-.06.18-.1.22-.09 3.27.35 6.29 1.24 8.46 3.91.2.24.42.75.31.9a1.19 1.19 0 0 1-1 .47 35.61 35.61 0 0 1-4-1.25c-.56-.24-1.08-.8-1.7-1.11z"></path><path d="M406.53 6.33A4.18 4.18 0 0 0 408 3.49a22.09 22.09 0 0 0 0-2.8 1.52 1.52 0 0 0-1.84-.61c-.29.08-.6.08-.89.14-3.38.74-5.68 2.69-6.14 6a4.33 4.33 0 0 0 .55 2.95c1.79.02 5.19-1.48 6.85-2.84zm-.44-4.48a2.32 2.32 0 0 1-.69 3 11.36 11.36 0 0 1-4.67 2.45c-.89-2.61 2.07-5.65 5.37-5.45z"></path><path d="M377.83 8.41a8.29 8.29 0 0 0 3.62-6.25A1.5 1.5 0 0 0 381 1c-.15-.14-.68.12-1 .24a5.34 5.34 0 0 1-1.07.4A8.53 8.53 0 0 0 373.84 4a6.9 6.9 0 0 0-1.57 2A33.4 33.4 0 0 0 371 9.55c2.48.34 4.74.27 6.83-1.14zm1.63-5.32c-.05 2.67-2.63 5-6.1 5.33a6.45 6.45 0 0 1 6.1-5.33z"></path><path d="M396 15.39a1 1 0 0 0-.15-.7 42.69 42.69 0 0 0-3.56-3.82 7.18 7.18 0 0 0-5.59-1.68c-1 .09-1.77.38-2 1.32l1.3 2.21c1.71 2.78 4.48 3.87 7.46 4.58a2.38 2.38 0 0 0 2.54-1.91zm-5.44-.51a5.58 5.58 0 0 1-3.6-4.2c2.29-.48 5.64 1.71 7 4.71-1.39.81-2.43-.09-3.45-.51z"></path><path d="M377.3 14.82a3.68 3.68 0 0 0 .74 1.09 2.37 2.37 0 0 0 3.34.29c1-1 1.08-3 .09-3.74a7.43 7.43 0 0 0-2-.77c-2.34.11-3 1.04-2.17 3.13z"></path><path d="M407.13 14.47a1.56 1.56 0 0 0-.73-2 9.11 9.11 0 0 0-2.74-.69 2.16 2.16 0 0 0-1.95 2.65 4.07 4.07 0 0 0 2.71 1.92 3.24 3.24 0 0 0 2.71-1.88z"></path><path d="M389.49 6.77a2.85 2.85 0 0 0 3.34-1.41 1.44 1.44 0 0 0 0-.73 3.84 3.84 0 0 0-2.88-2 2.28 2.28 0 0 0-2.21 1.27c-.46 1 .23 1.6.79 2.22a3.6 3.6 0 0 0 .96.65z"></path><path d="M418.12 6.91c1.07 0 2.49-1.18 2.47-2a2.54 2.54 0 0 0-2.81-2.29c-1.07 0-2.18 1-2.13 1.88a3 3 0 0 0 2.47 2.41z"></path><path d="M471.47 14.31c1.13.64 2.26 1.26 3.42 1.84a9 9 0 0 0 4.92 1 2.22 2.22 0 0 0 1.84-1.35 1.45 1.45 0 0 0-.7-1.91 1.33 1.33 0 0 1-.31-.32c-2.51-3-5.85-4.2-9.6-4.53a4.93 4.93 0 0 0-1.61.25c-.19 0-.5.4-.47.45.39.71-.52.72-.6 1.05.77.94 1.47 1.83 2.21 2.69a3.51 3.51 0 0 0 .9.83zm-1-3.7c.13-.06.18-.1.22-.09 3.26.35 6.28 1.24 8.46 3.91.2.24.42.75.31.9a1.18 1.18 0 0 1-1 .47 35.6 35.6 0 0 1-4-1.25c-.64-.25-1.15-.8-1.77-1.12-1.17-.61-1.63-1.75-2.25-2.81z"></path><path d="M463.46 3.49a21.75 21.75 0 0 0 0-2.8 1.52 1.52 0 0 0-1.84-.61c-.29.08-.59.08-.89.14-3.38.74-5.68 2.69-6.15 6a4.34 4.34 0 0 0 .55 2.95c1.78 0 5.18-1.52 6.84-2.88a4.17 4.17 0 0 0 1.49-2.8zm-2.59 1.36a11.36 11.36 0 0 1-4.67 2.45c-.89-2.61 2.07-5.64 5.36-5.45a2.31 2.31 0 0 1-.68 3z"></path><path d="M433.31 8.41a8.29 8.29 0 0 0 3.62-6.25 1.49 1.49 0 0 0-.45-1.16c-.15-.14-.68.12-1 .24a5.28 5.28 0 0 1-1.07.4 8.53 8.53 0 0 0-5.1 2.36 6.92 6.92 0 0 0-1.57 2 33.28 33.28 0 0 0-1.27 3.54c2.48.35 4.74.28 6.84-1.13zm1.62-5.32c0 2.67-2.63 5-6.1 5.33a6.45 6.45 0 0 1 6.1-5.33z"></path><path d="M451.42 15.39a1 1 0 0 0-.15-.7 43 43 0 0 0-3.56-3.82 7.19 7.19 0 0 0-5.59-1.68c-1 .09-1.77.38-2 1.32l1.37 2.21c1.71 2.78 4.48 3.87 7.46 4.58a2.38 2.38 0 0 0 2.47-1.91zm-5.42-.51a5.58 5.58 0 0 1-3.6-4.2c2.29-.48 5.64 1.71 7 4.71-1.4.81-2.4-.09-3.4-.51z"></path><path d="M432.77 14.82a3.67 3.67 0 0 0 .74 1.09 2.37 2.37 0 0 0 3.34.29c1-1 1.08-3 .09-3.74a7.48 7.48 0 0 0-2-.77c-2.34.11-3 1.04-2.17 3.13z"></path><path d="M459.89 16.3a3.23 3.23 0 0 0 2.71-1.83 1.56 1.56 0 0 0-.73-2 9.1 9.1 0 0 0-2.74-.69 2.16 2.16 0 0 0-1.95 2.65 4.07 4.07 0 0 0 2.71 1.87z"></path><path d="M445 6.77a2.85 2.85 0 0 0 3.34-1.41 1.44 1.44 0 0 0 0-.73 3.84 3.84 0 0 0-2.88-2 2.29 2.29 0 0 0-2.21 1.27c-.46 1 .23 1.6.8 2.22a3.59 3.59 0 0 0 .95.65z"></path><path d="M473.59 6.91c1.07 0 2.49-1.18 2.47-2a2.54 2.54 0 0 0-2.81-2.29c-1.07 0-2.18 1-2.13 1.88a3 3 0 0 0 2.47 2.41z"></path><path d="M490.67 60.18c-.05-.19-.4-.49-.45-.46-.72.38-.72-.51-1.05-.58-.94.75-1.83 1.44-2.7 2.16a3.46 3.46 0 0 0-.78.87c-.64 1.1-1.26 2.21-1.85 3.35a8.71 8.71 0 0 0-1 4.81 2.18 2.18 0 0 0 1.35 1.8 1.47 1.47 0 0 0 1.91-.68 1.3 1.3 0 0 1 .32-.31c3-2.45 4.2-5.72 4.53-9.39a4.72 4.72 0 0 0-.28-1.57zm-5.11 9.46c-.24.19-.75.41-.9.3a1.16 1.16 0 0 1-.47-.94 34.72 34.72 0 0 1 1.25-3.87c.25-.63.8-1.13 1.12-1.73.61-1.17 1.76-1.63 2.82-2.24.06.13.1.17.09.21-.35 3.19-1.23 6.15-3.91 8.27z"></path><path d="M493.74 45.68a4.41 4.41 0 0 0-2.95.54c0 1.74 1.52 5.06 2.88 6.69a4.21 4.21 0 0 0 2.84 1.43 22.6 22.6 0 0 0 2.8 0 1.47 1.47 0 0 0 .61-1.8c-.08-.28-.08-.58-.14-.87-.78-3.28-2.69-5.54-6.04-5.99zm4.41 6.8a2.34 2.34 0 0 1-3-.68 11 11 0 0 1-2.45-4.57c2.61-.86 5.65 2.03 5.45 5.25z"></path><path d="M498.32 25.89a8.26 8.26 0 0 0-2.36-5 6.89 6.89 0 0 0-2-1.53 33.51 33.51 0 0 0-3.54-1.25c-.34 2.43-.27 4.64 1.14 6.69a8.32 8.32 0 0 0 6.25 3.54 1.51 1.51 0 0 0 1.12-.44c.14-.15-.12-.67-.24-1a5.22 5.22 0 0 1-.37-1.01zm-6.74-5.43a6.35 6.35 0 0 1 5.33 6c-2.66-.08-4.91-2.6-5.32-6z"></path><path d="M484.61 42.56a1 1 0 0 0 .7-.15 42.19 42.19 0 0 0 3.82-3.49 6.93 6.93 0 0 0 1.68-5.47c-.09-.94-.38-1.73-1.32-2l-2.21 1.34c-2.78 1.67-3.87 4.39-4.58 7.3a2.33 2.33 0 0 0 1.91 2.47zm.51-5.32a5.56 5.56 0 0 1 4.2-3.52c.48 2.24-1.71 5.51-4.71 6.85-.81-1.32.09-2.33.51-3.33z"></path><path d="M487.53 28.4a7.2 7.2 0 0 0 .77-2c-.11-2.26-1-2.92-3.12-2.1a3.67 3.67 0 0 0-1.09.73 2.28 2.28 0 0 0-.29 3.26c.98.96 2.98 1.07 3.73.11z"></path><path d="M485.53 53.5a1.57 1.57 0 0 0 2-.71 8.76 8.76 0 0 0 .69-2.69 2.15 2.15 0 0 0-2.65-1.9 4 4 0 0 0-1.92 2.65 3.16 3.16 0 0 0 1.88 2.65z"></path><path d="M494.64 39.51a1.48 1.48 0 0 0 .73 0 3.76 3.76 0 0 0 2-2.82 2.23 2.23 0 0 0-1.27-2.16c-1-.45-1.6.23-2.22.78a3.52 3.52 0 0 0-.68 1 2.77 2.77 0 0 0 1.44 3.2z"></path><path d="M495.1 66.66a2.5 2.5 0 0 0 2.29-2.75 2.17 2.17 0 0 0-1.88-2.08 2.92 2.92 0 0 0-2.42 2.42c.03 1.03 1.18 2.42 2.01 2.41z"></path><path d="M490.21 114c-.72.38-.72-.51-1.05-.58-.94.75-1.83 1.44-2.7 2.16a3.44 3.44 0 0 0-.78.87c-.64 1.1-1.26 2.21-1.85 3.35a8.71 8.71 0 0 0-1 4.81 2.18 2.18 0 0 0 1.35 1.8 1.47 1.47 0 0 0 1.91-.68 1.31 1.31 0 0 1 .32-.31c3-2.45 4.2-5.72 4.53-9.39a4.72 4.72 0 0 0-.25-1.57c-.07-.21-.42-.46-.48-.46zm-4.65 9.92c-.24.19-.75.41-.9.3a1.16 1.16 0 0 1-.47-.94 34.73 34.73 0 0 1 1.25-3.87c.25-.63.8-1.13 1.12-1.73.61-1.17 1.76-1.63 2.82-2.24.06.13.1.17.09.21-.35 3.17-1.23 6.13-3.91 8.25z"></path><path d="M499.78 105.95c-.74-3.31-2.69-5.56-6-6a4.42 4.42 0 0 0-2.95.54c0 1.74 1.52 5.07 2.88 6.69a4.21 4.21 0 0 0 2.84 1.43 22.5 22.5 0 0 0 2.8 0 1.47 1.47 0 0 0 .61-1.8c-.12-.28-.12-.58-.18-.86zm-1.63.79a2.35 2.35 0 0 1-3-.68 11 11 0 0 1-2.45-4.57c2.61-.87 5.65 2.03 5.45 5.25z"></path><path d="M499 82.2c.14-.15-.12-.67-.24-1a5.23 5.23 0 0 1-.4-1 8.26 8.26 0 0 0-2.36-5 6.88 6.88 0 0 0-2-1.53 33.51 33.51 0 0 0-3.54-1.25c-.34 2.43-.27 4.64 1.14 6.69a8.32 8.32 0 0 0 6.25 3.54 1.51 1.51 0 0 0 1.15-.45zm-7.38-7.48a6.35 6.35 0 0 1 5.33 6c-2.7-.08-4.95-2.6-5.36-6z"></path><path d="M484.61 96.82a1 1 0 0 0 .7-.15 42.27 42.27 0 0 0 3.82-3.49 6.93 6.93 0 0 0 1.68-5.47c-.09-.94-.38-1.73-1.32-2l-2.21 1.34c-2.78 1.67-3.87 4.39-4.58 7.3a2.33 2.33 0 0 0 1.91 2.47zm.51-5.32a5.56 5.56 0 0 1 4.2-3.52c.48 2.24-1.71 5.51-4.71 6.85-.81-1.32.09-2.34.51-3.33z"></path><path d="M485.18 78.57a3.68 3.68 0 0 0-1.09.73 2.28 2.28 0 0 0-.29 3.26c1 .94 3 1.06 3.73.09a7.2 7.2 0 0 0 .77-2c-.1-2.24-1.03-2.89-3.12-2.08z"></path><path d="M485.53 107.75a1.57 1.57 0 0 0 2-.71 8.76 8.76 0 0 0 .69-2.69 2.15 2.15 0 0 0-2.65-1.9 4 4 0 0 0-1.92 2.65 3.16 3.16 0 0 0 1.88 2.65z"></path><path d="M493.91 89.55a3.51 3.51 0 0 0-.68 1 2.77 2.77 0 0 0 1.41 3.27 1.49 1.49 0 0 0 .73 0 3.76 3.76 0 0 0 2-2.82 2.23 2.23 0 0 0-1.27-2.16c-.94-.52-1.57.16-2.19.71z"></path><path d="M495.1 120.91a2.5 2.5 0 0 0 2.29-2.75 2.17 2.17 0 0 0-1.88-2.09 2.93 2.93 0 0 0-2.42 2.42c.03 1.05 1.18 2.44 2.01 2.42z"></path><path d="M490.21 168.33c-.72.38-.72-.51-1.05-.58-.94.75-1.83 1.44-2.7 2.16a3.44 3.44 0 0 0-.78.87c-.64 1.1-1.26 2.21-1.85 3.35a8.71 8.71 0 0 0-1 4.81 2.18 2.18 0 0 0 1.35 1.8 1.47 1.47 0 0 0 1.91-.68 1.31 1.31 0 0 1 .32-.31c3-2.45 4.2-5.72 4.53-9.39a4.72 4.72 0 0 0-.25-1.57c-.07-.19-.42-.49-.48-.46zm-4.65 9.92c-.24.19-.75.41-.9.3a1.16 1.16 0 0 1-.47-.94 34.73 34.73 0 0 1 1.25-3.87c.25-.63.8-1.13 1.12-1.73.61-1.17 1.76-1.63 2.82-2.24.06.13.1.17.09.21-.35 3.19-1.23 6.14-3.91 8.27z"></path><path d="M499.78 160.29c-.74-3.31-2.69-5.56-6-6a4.42 4.42 0 0 0-2.95.54c0 1.74 1.52 5.07 2.88 6.69a4.21 4.21 0 0 0 2.84 1.43 22.5 22.5 0 0 0 2.8 0 1.47 1.47 0 0 0 .61-1.8c-.12-.27-.12-.57-.18-.86zm-1.63.79a2.35 2.35 0 0 1-3-.68 11 11 0 0 1-2.45-4.57c2.61-.83 5.65 2.03 5.45 5.26z"></path><path d="M491.59 133.44a8.32 8.32 0 0 0 6.25 3.54 1.51 1.51 0 0 0 1.12-.44c.14-.15-.12-.67-.24-1a5.23 5.23 0 0 1-.4-1 8.26 8.26 0 0 0-2.36-5 6.88 6.88 0 0 0-2-1.53 33.51 33.51 0 0 0-3.54-1.25c-.31 2.42-.24 4.64 1.17 6.68zm5.32 1.59c-2.67 0-5-2.57-5.33-6a6.35 6.35 0 0 1 5.33 5.97z"></path><path d="M484.61 151.16a1 1 0 0 0 .7-.15 42.26 42.26 0 0 0 3.82-3.49 6.93 6.93 0 0 0 1.68-5.47c-.09-.94-.38-1.73-1.32-2l-2.21 1.34c-2.78 1.67-3.87 4.39-4.58 7.3a2.33 2.33 0 0 0 1.91 2.47zm.51-5.32a5.56 5.56 0 0 1 4.2-3.52c.48 2.24-1.71 5.51-4.71 6.85-.81-1.32.09-2.33.51-3.33z"></path><path d="M485.18 132.92a3.68 3.68 0 0 0-1.09.73 2.28 2.28 0 0 0-.29 3.26c1 .94 3 1.06 3.73.09a7.2 7.2 0 0 0 .77-2c-.1-2.24-1.03-2.9-3.12-2.08z"></path><path d="M485.53 162.1a1.57 1.57 0 0 0 2-.71 8.76 8.76 0 0 0 .69-2.69 2.15 2.15 0 0 0-2.65-1.9 4 4 0 0 0-1.92 2.65 3.16 3.16 0 0 0 1.88 2.65z"></path><path d="M493.91 143.89a3.51 3.51 0 0 0-.68 1 2.77 2.77 0 0 0 1.41 3.27 1.49 1.49 0 0 0 .73 0 3.76 3.76 0 0 0 2-2.82 2.23 2.23 0 0 0-1.27-2.16c-.94-.52-1.57.16-2.19.71z"></path><path d="M495.1 175.26a2.5 2.5 0 0 0 2.29-2.75 2.17 2.17 0 0 0-1.88-2.09 2.93 2.93 0 0 0-2.42 2.42c.03 1.04 1.18 2.43 2.01 2.42z"></path><path d="M490.21 222.58c-.72.38-.72-.51-1.05-.58-.94.75-1.83 1.44-2.7 2.16a3.46 3.46 0 0 0-.78.87c-.64 1.1-1.26 2.21-1.85 3.35a8.71 8.71 0 0 0-1 4.81 2.18 2.18 0 0 0 1.35 1.8 1.47 1.47 0 0 0 1.91-.68 1.3 1.3 0 0 1 .32-.31c3-2.45 4.2-5.72 4.53-9.39a4.72 4.72 0 0 0-.25-1.57c-.07-.19-.42-.49-.48-.46zm-4.65 9.92c-.24.19-.75.41-.9.3a1.15 1.15 0 0 1-.47-.94 34.74 34.74 0 0 1 1.25-3.87c.25-.63.8-1.13 1.12-1.73.61-1.17 1.76-1.63 2.82-2.24.06.13.1.17.09.21-.35 3.19-1.23 6.15-3.91 8.27z"></path><path d="M499.78 214.55c-.74-3.31-2.69-5.56-6-6a4.42 4.42 0 0 0-2.95.54c0 1.74 1.52 5.07 2.88 6.69a4.21 4.21 0 0 0 2.84 1.43 22.59 22.59 0 0 0 2.8 0 1.47 1.47 0 0 0 .61-1.8c-.12-.27-.12-.57-.18-.86zm-1.63.79a2.35 2.35 0 0 1-3-.68 11 11 0 0 1-2.45-4.57c2.61-.86 5.65 2.03 5.45 5.25z"></path><path d="M491.59 187.7a8.32 8.32 0 0 0 6.25 3.54 1.51 1.51 0 0 0 1.12-.44c.14-.15-.12-.67-.24-1a5.23 5.23 0 0 1-.4-1 8.26 8.26 0 0 0-2.36-5 6.9 6.9 0 0 0-2-1.53 33.51 33.51 0 0 0-3.54-1.25c-.31 2.42-.24 4.63 1.17 6.68zm5.32 1.59c-2.67 0-5-2.57-5.33-6a6.35 6.35 0 0 1 5.33 6z"></path><path d="M484.61 205.42a1 1 0 0 0 .7-.15 42.26 42.26 0 0 0 3.82-3.49 6.93 6.93 0 0 0 1.68-5.47c-.09-.94-.38-1.73-1.32-2l-2.21 1.34c-2.78 1.67-3.87 4.39-4.58 7.3a2.33 2.33 0 0 0 1.91 2.47zm.51-5.32a5.56 5.56 0 0 1 4.2-3.52c.48 2.24-1.71 5.51-4.71 6.85-.81-1.32.09-2.34.51-3.33z"></path><path d="M485.18 187.17a3.67 3.67 0 0 0-1.09.73 2.28 2.28 0 0 0-.29 3.26c1 .94 3 1.06 3.73.09a7.21 7.21 0 0 0 .77-2c-.1-2.25-1.03-2.89-3.12-2.08z"></path><path d="M485.53 216.35a1.57 1.57 0 0 0 2-.71 8.76 8.76 0 0 0 .69-2.68 2.15 2.15 0 0 0-2.65-1.9 4 4 0 0 0-1.92 2.65 3.16 3.16 0 0 0 1.88 2.64z"></path><path d="M493.91 198.15a3.52 3.52 0 0 0-.68 1 2.77 2.77 0 0 0 1.41 3.27 1.48 1.48 0 0 0 .73 0 3.76 3.76 0 0 0 2-2.82 2.23 2.23 0 0 0-1.27-2.16c-.94-.52-1.57.16-2.19.71z"></path><path d="M495.1 229.52a2.5 2.5 0 0 0 2.29-2.75 2.17 2.17 0 0 0-1.88-2.09 2.92 2.92 0 0 0-2.42 2.42c.03 1.04 1.18 2.43 2.01 2.42z"></path><path d="M491.59 242a8.32 8.32 0 0 0 6.25 3.54 1.51 1.51 0 0 0 1.12-.44c.14-.15-.12-.67-.24-1a5.23 5.23 0 0 1-.4-1 8.26 8.26 0 0 0-2.36-5 6.89 6.89 0 0 0-2-1.53 33.5 33.5 0 0 0-3.54-1.25c-.31 2.46-.24 4.68 1.17 6.68zm5.32 1.59c-2.67 0-5-2.57-5.33-6a6.35 6.35 0 0 1 5.33 6.04z"></path><path d="M484.61 259.76a1 1 0 0 0 .7-.15 42.25 42.25 0 0 0 3.82-3.49 6.93 6.93 0 0 0 1.68-5.47c-.09-.94-.38-1.73-1.32-2l-2.21 1.35c-2.78 1.67-3.87 4.39-4.58 7.3a2.33 2.33 0 0 0 1.91 2.46zm.51-5.32a5.56 5.56 0 0 1 4.2-3.52c.48 2.24-1.71 5.51-4.71 6.85-.81-1.31.09-2.33.51-3.33z"></path><path d="M485.18 241.52a3.67 3.67 0 0 0-1.09.73 2.28 2.28 0 0 0-.29 3.26c1 .94 3 1.06 3.73.09a7.2 7.2 0 0 0 .77-2c-.1-2.24-1.03-2.9-3.12-2.08z"></path><path d="M495.37 256.7a3.76 3.76 0 0 0 2-2.82 2.23 2.23 0 0 0-1.27-2.16c-1-.45-1.6.23-2.22.78a3.52 3.52 0 0 0-.68 1 2.77 2.77 0 0 0 1.41 3.27 1.48 1.48 0 0 0 .76-.07z"></path><path d="M487.35 8.47l.32.28.33.25.79.55.88.53.92.49.93.42.9.34.43.13.4.11.43.08h.83l.4-.06.39-.1.38-.13.37-.17.36-.19.28-.17.28-.19.55-.41 1.14-.91V8.26l-.06-.11-.09-.15-.08-.11-.19-.21-.23-.2-.17-.15-.16-.16-.32-.31-.5-.4-.5-.36-.51-.32-.51-.28-.52-.24-.53-.2-.53-.06-.54-.11-.54-.06h-1.08l-.55.08-.55.13-.55.18-.55.23-.55.29-.33.2-.31.22-.29.24-.27.27-.25.29-.22.31-.19.34-.16.36.23.27zm1.8-1.08l.17-.19.18-.17.19-.16.2-.14.22-.13.23-.11.23-.09.24-.08.25-.06h1.61l.55.1.55.15.54.21.52.27.25.15.24.17.23.18.23.2.21.21.2.22.19.24.18.25-.12.22-.13.2-.14.18-.14.16-.15.13-.16.12-.17.1-.17.08-.18.06h-1l-.44-.05-.55-.12-.6-.18-.61-.22-.68-.29-.64-.31-.62-.35-.56-.34-.5-.4z"></path><path d="M483.78 15.27l.06.21.07.19.08.17.09.14.12.15.14.14.16.13.18.12.19.11.2.1.21.09.21.08.22.07.22.05h1.25l.15-.05.14-.06.14-.07.13-.08.12-.09.11-.1.1-.11.09-.12.08-.12.06-.13V15.2l-.21-.68-.25-.67-.3-.64-.17-.31-.19-.3-.14-.18-.17-.15-.19-.13-.21-.1-.22-.08-.23-.05h-.96l-.23.07-.22.09-.21.11-.19.13-.17.15-.14.18-.08.14-.07.16-.05.19V14.78z"></path><path d="M9.33 141.59c0 .19.4.5.45.47.71-.39.72.52 1.05.6.94-.77 1.83-1.47 2.69-2.21a3.52 3.52 0 0 0 .78-.89c.64-1.12 1.26-2.26 1.84-3.42a9.06 9.06 0 0 0 1-4.92 2.22 2.22 0 0 0-1.35-1.84 1.45 1.45 0 0 0-1.91.7 1.33 1.33 0 0 1-.32.31c-3 2.51-4.2 5.85-4.53 9.6a4.92 4.92 0 0 0 .3 1.6zm5.11-9.67c.24-.2.75-.42.9-.31a1.18 1.18 0 0 1 .47 1 35.6 35.6 0 0 1-1.25 4c-.25.64-.8 1.15-1.12 1.77-.61 1.2-1.76 1.66-2.82 2.29-.06-.13-.1-.18-.09-.22.35-3.34 1.23-6.36 3.91-8.53z"></path><path d="M.22 150.28c.74 3.38 2.69 5.68 6 6.14a4.34 4.34 0 0 0 2.95-.55c0-1.78-1.52-5.18-2.88-6.84a4.17 4.17 0 0 0-2.84-1.46 22.14 22.14 0 0 0-2.8 0 1.52 1.52 0 0 0-.61 1.84c.12.27.12.59.18.87zm1.63-.81a2.31 2.31 0 0 1 3 .69 11.36 11.36 0 0 1 2.45 4.67c-2.61.89-5.65-2.07-5.45-5.36z"></path><path d="M15.39 159.61a1 1 0 0 0-.7.15 43 43 0 0 0-3.82 3.56 7.19 7.19 0 0 0-1.68 5.59c.09 1 .38 1.77 1.32 2l2.21-1.37c2.78-1.71 3.87-4.48 4.58-7.46a2.38 2.38 0 0 0-1.91-2.47zm-.51 5.39a5.58 5.58 0 0 1-4.2 3.6c-.48-2.29 1.71-5.64 4.71-7 .81 1.4-.09 2.4-.51 3.4z"></path><path d="M14.47 148.43a1.56 1.56 0 0 0-2 .73 9.1 9.1 0 0 0-.69 2.74 2.16 2.16 0 0 0 2.65 1.95 4.07 4.07 0 0 0 1.92-2.71 3.23 3.23 0 0 0-1.88-2.71z"></path><path d="M5.36 162.73a1.44 1.44 0 0 0-.73 0 3.84 3.84 0 0 0-2 2.88 2.29 2.29 0 0 0 1.27 2.21c1 .46 1.6-.23 2.22-.8a3.59 3.59 0 0 0 .68-1 2.85 2.85 0 0 0-1.44-3.29z"></path><path d="M4.9 135a2.54 2.54 0 0 0-2.29 2.81c0 1.07 1 2.18 1.88 2.13a3 3 0 0 0 2.41-2.47c-.02-1.09-1.17-2.47-2-2.47z"></path><path d="M9.33 86c0 .19.4.5.45.47.71-.39.72.52 1.05.6.94-.77 1.83-1.47 2.69-2.21a3.48 3.48 0 0 0 .78-.89c.64-1.12 1.26-2.26 1.84-3.42a9.06 9.06 0 0 0 1-4.92 2.22 2.22 0 0 0-1.35-1.84 1.45 1.45 0 0 0-1.91.7 1.29 1.29 0 0 1-.32.31c-3 2.51-4.2 5.85-4.53 9.6a4.92 4.92 0 0 0 .3 1.6zm5.11-9.67c.24-.2.75-.42.9-.31a1.18 1.18 0 0 1 .47 1 35.61 35.61 0 0 1-1.25 4c-.25.64-.8 1.15-1.12 1.77-.61 1.2-1.76 1.66-2.82 2.29-.06-.13-.1-.18-.09-.22.35-3.31 1.23-6.33 3.91-8.5z"></path><path d="M.22 94.71c.74 3.38 2.69 5.68 6 6.14a4.33 4.33 0 0 0 2.95-.55c0-1.78-1.52-5.18-2.88-6.84A4.18 4.18 0 0 0 3.49 92a22.09 22.09 0 0 0-2.8 0 1.52 1.52 0 0 0-.61 1.84c.08.27.08.58.14.87zm1.63-.81a2.32 2.32 0 0 1 3 .69 11.36 11.36 0 0 1 2.45 4.68c-2.61.89-5.65-2.07-5.45-5.37z"></path><path d="M2.16 118.55A1.5 1.5 0 0 0 1 119c-.14.15.12.68.24 1a5.34 5.34 0 0 1 .4 1.07A8.53 8.53 0 0 0 4 126.16a6.9 6.9 0 0 0 2 1.57A33.41 33.41 0 0 0 9.55 129c.34-2.48.27-4.75-1.14-6.84a8.29 8.29 0 0 0-6.25-3.61zm.93 2c2.67.05 5 2.63 5.33 6.1a6.45 6.45 0 0 1-5.33-6.11z"></path><path d="M15.39 104a1 1 0 0 0-.7.15 42.69 42.69 0 0 0-3.82 3.56 7.18 7.18 0 0 0-1.68 5.59c.09 1 .38 1.77 1.32 2l2.21-1.3c2.78-1.71 3.87-4.48 4.58-7.46a2.38 2.38 0 0 0-1.91-2.54zm-.51 5.44a5.58 5.58 0 0 1-4.2 3.6c-.48-2.29 1.71-5.64 4.71-7 .81 1.39-.09 2.43-.51 3.45z"></path><path d="M14.82 122.7a3.68 3.68 0 0 0 1.09-.74 2.37 2.37 0 0 0 .29-3.34c-1-1-3-1.08-3.74-.09a7.43 7.43 0 0 0-.77 2c.11 2.34 1.04 3 3.13 2.17z"></path><path d="M14.47 92.87a1.56 1.56 0 0 0-2 .73 9.11 9.11 0 0 0-.69 2.74 2.16 2.16 0 0 0 2.65 1.95 4.07 4.07 0 0 0 1.92-2.71 3.24 3.24 0 0 0-1.88-2.71z"></path><path d="M6.09 111.48a3.6 3.6 0 0 0 .68-1 2.85 2.85 0 0 0-1.41-3.34 1.44 1.44 0 0 0-.73 0 3.84 3.84 0 0 0-2 2.88 2.28 2.28 0 0 0 1.27 2.21c.94.51 1.57-.23 2.19-.75z"></path><path d="M4.9 79.41a2.54 2.54 0 0 0-2.29 2.81c0 1.07 1 2.18 1.88 2.13a3 3 0 0 0 2.41-2.47c-.02-1.06-1.17-2.48-2-2.47z"></path><path d="M15.84 18.35a1.45 1.45 0 0 0-1.91.7 1.33 1.33 0 0 1-.32.31c-3 2.51-4.2 5.85-4.53 9.6a4.93 4.93 0 0 0 .25 1.61c0 .19.4.5.45.47.71-.39.72.52 1.05.6.94-.77 1.83-1.47 2.69-2.21a3.51 3.51 0 0 0 .78-.89 74.99 74.99 0 0 0 1.84-3.42 9 9 0 0 0 1-4.92 2.22 2.22 0 0 0-1.3-1.85zm-1.28 7.15c-.25.64-.8 1.15-1.12 1.77-.61 1.2-1.76 1.66-2.82 2.29-.06-.13-.1-.18-.09-.22.35-3.26 1.24-6.28 3.91-8.46.24-.2.75-.42.9-.31a1.18 1.18 0 0 1 .47 1 35.6 35.6 0 0 1-1.25 3.93z"></path><path d="M.22 39.24c.74 3.38 2.69 5.68 6 6.15a4.34 4.34 0 0 0 2.95-.55c0-1.78-1.52-5.18-2.88-6.84a4.17 4.17 0 0 0-2.84-1.46 21.74 21.74 0 0 0-2.8 0 1.52 1.52 0 0 0-.61 1.84c.12.26.12.57.18.86zm1.63-.81a2.31 2.31 0 0 1 3 .69A11.36 11.36 0 0 1 7.3 43.8c-2.61.88-5.65-2.08-5.45-5.37z"></path><path d="M2.16 63.08a1.49 1.49 0 0 0-1.16.44c-.14.15.12.68.24 1a5.27 5.27 0 0 1 .4 1.07A8.53 8.53 0 0 0 4 70.69a6.92 6.92 0 0 0 2 1.57 33.3 33.3 0 0 0 3.54 1.27c.34-2.48.27-4.75-1.14-6.84a8.29 8.29 0 0 0-6.24-3.61zm.93 2c2.67 0 5 2.63 5.33 6.1a6.45 6.45 0 0 1-5.33-6.11z"></path><path d="M15.39 48.58a1 1 0 0 0-.7.15 43 43 0 0 0-3.82 3.56 7.19 7.19 0 0 0-1.68 5.59c.09 1 .38 1.77 1.32 2l2.21-1.37c2.78-1.71 3.87-4.48 4.58-7.46a2.38 2.38 0 0 0-1.91-2.47zM14.88 54a5.58 5.58 0 0 1-4.2 3.6c-.48-2.29 1.71-5.64 4.71-7 .81 1.4-.09 2.4-.51 3.4z"></path><path d="M14.82 67.23a3.67 3.67 0 0 0 1.09-.74 2.37 2.37 0 0 0 .29-3.34c-1-1-3-1.08-3.74-.09a7.48 7.48 0 0 0-.77 2c.11 2.34 1.04 3 3.13 2.17z"></path><path d="M14.47 37.4a1.56 1.56 0 0 0-2 .73 9.1 9.1 0 0 0-.69 2.74 2.16 2.16 0 0 0 2.65 1.95 4.07 4.07 0 0 0 1.92-2.71 3.23 3.23 0 0 0-1.88-2.71z"></path><path d="M6.09 56a3.59 3.59 0 0 0 .68-1 2.85 2.85 0 0 0-1.41-3.3 1.44 1.44 0 0 0-.73 0 3.84 3.84 0 0 0-2 2.88 2.29 2.29 0 0 0 1.27 2.21c.94.48 1.57-.21 2.19-.79z"></path><path d="M4.49 28.89a3 3 0 0 0 2.41-2.47c0-1.07-1.18-2.49-2-2.47a2.54 2.54 0 0 0-2.29 2.81c.02 1.07 1 2.18 1.88 2.13z"></path><path d="M70.33 17.18a2.18 2.18 0 0 0 1.8-1.35 1.47 1.47 0 0 0-.68-1.91 1.3 1.3 0 0 1-.31-.32c-2.45-3-5.72-4.2-9.39-4.53a4.72 4.72 0 0 0-1.57.25c-.19.05-.49.4-.46.45.38.72-.51.72-.58 1.05.75.94 1.44 1.83 2.16 2.7a3.46 3.46 0 0 0 .87.78c1.1.64 2.21 1.26 3.35 1.85a8.71 8.71 0 0 0 4.81 1.03zm-6.93-3.74c-1.17-.61-1.63-1.76-2.24-2.82.13-.06.17-.1.21-.09 3.19.35 6.15 1.24 8.27 3.91.19.24.41.75.3.9a1.16 1.16 0 0 1-.94.47 34.74 34.74 0 0 1-3.87-1.25c-.62-.25-1.13-.81-1.73-1.12z"></path><path d="M54.34 3.49a22.6 22.6 0 0 0 0-2.8 1.47 1.47 0 0 0-1.8-.61c-.28.08-.58.08-.87.14-3.31.74-5.56 2.69-6 6a4.41 4.41 0 0 0 .54 2.95c1.74 0 5.06-1.52 6.69-2.88a4.21 4.21 0 0 0 1.44-2.8zm-2.53 1.36a11 11 0 0 1-4.57 2.45c-.87-2.61 2-5.64 5.25-5.45a2.34 2.34 0 0 1-.68 3z"></path><path d="M24.84 8.41a8.32 8.32 0 0 0 3.54-6.25A1.51 1.51 0 0 0 27.94 1c-.15-.14-.67.12-1 .24a5.22 5.22 0 0 1-1 .4 8.26 8.26 0 0 0-5 2.36 6.89 6.89 0 0 0-1.54 2 33.51 33.51 0 0 0-1.25 3.54c2.43.35 4.64.28 6.69-1.13zm1.59-5.32c0 2.67-2.57 5-6 5.33a6.35 6.35 0 0 1 6-5.33z"></path><path d="M42.56 15.39a1 1 0 0 0-.15-.7 42.19 42.19 0 0 0-3.49-3.82 6.93 6.93 0 0 0-5.47-1.68c-.94.09-1.73.38-2 1.32l1.34 2.21c1.67 2.78 4.39 3.87 7.3 4.58a2.33 2.33 0 0 0 2.47-1.91zm-5.32-.51a5.56 5.56 0 0 1-3.52-4.2c2.24-.48 5.51 1.71 6.85 4.71-1.32.81-2.33-.09-3.33-.51z"></path><path d="M24.31 14.82a3.67 3.67 0 0 0 .69 1.09 2.28 2.28 0 0 0 3.26.29c.94-1 1.06-3 .09-3.73a7.2 7.2 0 0 0-2-.77c-2.2.1-2.85 1.03-2.04 3.12z"></path><path d="M50.84 16.3a3.16 3.16 0 0 0 2.65-1.83 1.57 1.57 0 0 0-.71-2 8.76 8.76 0 0 0-2.69-.69 2.15 2.15 0 0 0-1.9 2.65 4 4 0 0 0 2.65 1.87z"></path><path d="M36.24 6.77a2.77 2.77 0 0 0 3.27-1.41 1.48 1.48 0 0 0 0-.73 3.76 3.76 0 0 0-2.82-2 2.23 2.23 0 0 0-2.16 1.27c-.45 1 .23 1.6.78 2.22a3.52 3.52 0 0 0 .93.65z"></path><path d="M64.24 6.91c1 0 2.43-1.18 2.42-2a2.5 2.5 0 0 0-2.75-2.29 2.17 2.17 0 0 0-2.08 1.88 2.92 2.92 0 0 0 2.41 2.41z"></path><path d="M124.59 17.18a2.18 2.18 0 0 0 1.8-1.35 1.47 1.47 0 0 0-.68-1.91 1.31 1.31 0 0 1-.31-.32c-2.45-3-5.72-4.2-9.39-4.53a4.72 4.72 0 0 0-1.57.25c-.19.05-.49.4-.46.45.38.72-.51.72-.58 1.05.75.94 1.44 1.83 2.16 2.7a3.44 3.44 0 0 0 .87.78c1.1.64 2.21 1.26 3.35 1.85a8.71 8.71 0 0 0 4.81 1.03zm-6.93-3.75c-1.17-.61-1.63-1.76-2.24-2.82.13-.06.17-.1.21-.09 3.19.35 6.15 1.24 8.27 3.91.19.24.41.75.3.9a1.16 1.16 0 0 1-.94.47 34.74 34.74 0 0 1-3.87-1.25c-.63-.24-1.13-.8-1.74-1.11z"></path><path d="M107.17 6.33a4.21 4.21 0 0 0 1.43-2.84 22.5 22.5 0 0 0 0-2.8 1.47 1.47 0 0 0-1.8-.61c-.28.08-.58.08-.87.14-3.31.74-5.56 2.69-6 6a4.42 4.42 0 0 0 .54 2.95c1.75.02 5.07-1.48 6.7-2.84zm-.43-4.48a2.35 2.35 0 0 1-.68 3 11 11 0 0 1-4.57 2.45c-.87-2.61 2.03-5.65 5.25-5.45z"></path><path d="M79.1 8.41a8.32 8.32 0 0 0 3.54-6.25A1.51 1.51 0 0 0 82.2 1c-.15-.14-.67.12-1 .24a5.23 5.23 0 0 1-1 .4 8.26 8.26 0 0 0-5 2.36 6.88 6.88 0 0 0-1.53 2 33.5 33.5 0 0 0-1.25 3.54c2.41.35 4.63.28 6.68-1.13zm1.59-5.32c0 2.67-2.57 5-6 5.33a6.35 6.35 0 0 1 5.99-5.33z"></path><path d="M96.82 15.39a1 1 0 0 0-.15-.7 42.26 42.26 0 0 0-3.49-3.82 6.93 6.93 0 0 0-5.47-1.68c-.94.09-1.73.38-2 1.32l1.34 2.21c1.67 2.78 4.39 3.87 7.3 4.58a2.33 2.33 0 0 0 2.47-1.91zm-5.32-.51a5.56 5.56 0 0 1-3.5-4.2c2.24-.48 5.51 1.71 6.85 4.71-1.34.81-2.36-.09-3.35-.51z"></path><path d="M78.57 14.82a3.68 3.68 0 0 0 .73 1.09 2.28 2.28 0 0 0 3.26.29c.94-1 1.06-3 .09-3.73a7.2 7.2 0 0 0-2-.77c-2.24.1-2.89 1.03-2.08 3.12z"></path><path d="M107.75 14.47a1.57 1.57 0 0 0-.71-2 8.76 8.76 0 0 0-2.69-.69 2.15 2.15 0 0 0-1.9 2.65 4 4 0 0 0 2.65 1.92 3.16 3.16 0 0 0 2.65-1.88z"></path><path d="M90.5 6.77a2.77 2.77 0 0 0 3.27-1.41 1.49 1.49 0 0 0 0-.73 3.76 3.76 0 0 0-2.82-2 2.23 2.23 0 0 0-2.16 1.27c-.45 1 .23 1.6.78 2.22a3.52 3.52 0 0 0 .93.65z"></path><path d="M118.5 6.91c1 0 2.43-1.18 2.42-2a2.5 2.5 0 0 0-2.75-2.29 2.17 2.17 0 0 0-2.09 1.88 2.93 2.93 0 0 0 2.42 2.41z"></path><path d="M178.93 17.18a2.18 2.18 0 0 0 1.8-1.35 1.47 1.47 0 0 0-.68-1.91 1.31 1.31 0 0 1-.31-.32c-2.45-3-5.72-4.2-9.39-4.53a4.72 4.72 0 0 0-1.57.25c-.19.05-.49.4-.46.45.38.72-.51.72-.58 1.05.75.94 1.44 1.83 2.16 2.7a3.45 3.45 0 0 0 .87.78c1.1.64 2.21 1.26 3.35 1.85a8.71 8.71 0 0 0 4.81 1.03zm-5.2-2.63c-.63-.25-1.13-.8-1.73-1.12-1.17-.61-1.63-1.76-2.24-2.82.13-.06.17-.1.21-.09 3.19.35 6.15 1.24 8.27 3.91.19.24.41.75.3.9a1.16 1.16 0 0 1-.94.47 34.75 34.75 0 0 1-3.87-1.24z"></path><path d="M161.51 6.33a4.21 4.21 0 0 0 1.43-2.84 22.5 22.5 0 0 0 0-2.8 1.47 1.47 0 0 0-1.8-.61c-.28.08-.58.08-.87.14-3.31.74-5.56 2.69-6 6a4.42 4.42 0 0 0 .54 2.95c1.75.02 5.08-1.48 6.7-2.84zm-.43-4.48a2.35 2.35 0 0 1-.68 3 11 11 0 0 1-4.57 2.45c-.83-2.61 2.03-5.65 5.26-5.45z"></path><path d="M133.44 8.41A8.32 8.32 0 0 0 137 2.16a1.51 1.51 0 0 0-.46-1.16c-.15-.14-.67.12-1 .24a5.23 5.23 0 0 1-1 .4 8.26 8.26 0 0 0-5 2.36A6.88 6.88 0 0 0 128 6a33.51 33.51 0 0 0-1.25 3.54c2.43.35 4.65.28 6.69-1.13zM135 3.09c0 2.67-2.57 5-6 5.33a6.35 6.35 0 0 1 6-5.33z"></path><path d="M151.16 15.39a1 1 0 0 0-.15-.7 42.26 42.26 0 0 0-3.49-3.82 6.93 6.93 0 0 0-5.47-1.68c-.94.09-1.73.38-2 1.32l1.34 2.21c1.67 2.78 4.39 3.87 7.3 4.58a2.33 2.33 0 0 0 2.47-1.91zm-5.32-.51a5.56 5.56 0 0 1-3.52-4.2c2.24-.48 5.51 1.71 6.85 4.71-1.32.81-2.33-.09-3.33-.51z"></path><path d="M132.92 14.82a3.68 3.68 0 0 0 .73 1.09 2.28 2.28 0 0 0 3.26.29c.94-1 1.06-3 .09-3.73a7.2 7.2 0 0 0-2-.77c-2.24.1-2.9 1.03-2.08 3.12z"></path><path d="M162.1 14.47a1.57 1.57 0 0 0-.71-2 8.76 8.76 0 0 0-2.69-.69 2.15 2.15 0 0 0-1.9 2.65 4 4 0 0 0 2.65 1.92 3.16 3.16 0 0 0 2.65-1.88z"></path><path d="M144.84 6.77a2.77 2.77 0 0 0 3.27-1.41 1.49 1.49 0 0 0 0-.73 3.76 3.76 0 0 0-2.82-2 2.23 2.23 0 0 0-2.16 1.27c-.45 1 .23 1.6.78 2.22a3.51 3.51 0 0 0 .93.65z"></path><path d="M172.84 6.91c1 0 2.43-1.18 2.42-2a2.5 2.5 0 0 0-2.75-2.29 2.17 2.17 0 0 0-2.09 1.88 2.93 2.93 0 0 0 2.42 2.41z"></path><path d="M233.19 17.18a2.18 2.18 0 0 0 1.8-1.35 1.47 1.47 0 0 0-.68-1.91 1.3 1.3 0 0 1-.31-.32c-2.45-3-5.72-4.2-9.39-4.53a4.72 4.72 0 0 0-1.57.25c-.19.05-.49.4-.46.45.38.72-.51.72-.58 1.05.75.94 1.44 1.83 2.16 2.7a3.46 3.46 0 0 0 .87.78c1.1.64 2.21 1.26 3.35 1.85a8.71 8.71 0 0 0 4.81 1.03zM228 14.56c-.63-.25-1.13-.8-1.73-1.12-1.17-.61-1.63-1.76-2.24-2.82.13-.06.17-.1.21-.09 3.19.35 6.15 1.24 8.27 3.91.19.24.41.75.3.9a1.15 1.15 0 0 1-.94.47 34.75 34.75 0 0 1-3.87-1.25z"></path><path d="M215.77 6.33a4.21 4.21 0 0 0 1.43-2.84 22.6 22.6 0 0 0 0-2.8 1.47 1.47 0 0 0-1.8-.61c-.28.08-.58.08-.87.14-3.31.74-5.56 2.69-6 6a4.42 4.42 0 0 0 .54 2.95c1.75.02 5.07-1.48 6.7-2.84zm-.43-4.48a2.34 2.34 0 0 1-.68 3 11 11 0 0 1-4.57 2.45c-.86-2.61 2.03-5.65 5.25-5.45z"></path><path d="M187.7 8.41a8.32 8.32 0 0 0 3.54-6.25A1.51 1.51 0 0 0 190.8 1c-.15-.14-.67.12-1 .24a5.23 5.23 0 0 1-1 .4 8.26 8.26 0 0 0-5 2.36 6.9 6.9 0 0 0-1.53 2A33.5 33.5 0 0 0 181 9.55c2.44.34 4.65.27 6.7-1.14zm1.59-5.32c0 2.67-2.57 5-6 5.33a6.35 6.35 0 0 1 6-5.33z"></path><path d="M205.42 15.39a1 1 0 0 0-.15-.7 42.25 42.25 0 0 0-3.49-3.82 6.93 6.93 0 0 0-5.47-1.68c-.94.09-1.73.38-2 1.32l1.34 2.21c1.67 2.78 4.39 3.87 7.3 4.58a2.33 2.33 0 0 0 2.47-1.91zm-5.32-.51a5.56 5.56 0 0 1-3.52-4.2c2.24-.48 5.51 1.71 6.85 4.71-1.32.81-2.34-.09-3.33-.51z"></path><path d="M187.17 14.82a3.67 3.67 0 0 0 .73 1.09 2.28 2.28 0 0 0 3.26.29c.94-1 1.06-3 .09-3.73a7.21 7.21 0 0 0-2-.77c-2.25.1-2.89 1.03-2.08 3.12z"></path><path d="M213 11.74a2.15 2.15 0 0 0-1.9 2.65 4 4 0 0 0 2.65 1.92 3.16 3.16 0 0 0 2.65-1.83 1.57 1.57 0 0 0-.71-2 8.76 8.76 0 0 0-2.69-.74z"></path><path d="M199.1 6.77a2.77 2.77 0 0 0 3.27-1.41 1.48 1.48 0 0 0 0-.73 3.76 3.76 0 0 0-2.82-2 2.23 2.23 0 0 0-2.16 1.27c-.45 1 .23 1.6.78 2.22a3.52 3.52 0 0 0 .93.65z"></path><path d="M227.1 6.91c1 0 2.43-1.18 2.42-2a2.5 2.5 0 0 0-2.75-2.29 2.17 2.17 0 0 0-2.09 1.88 2.92 2.92 0 0 0 2.42 2.41z"></path><path d="M287.53 17.18a2.18 2.18 0 0 0 1.8-1.35 1.47 1.47 0 0 0-.68-1.91 1.3 1.3 0 0 1-.31-.32c-2.45-3-5.72-4.2-9.39-4.53a4.72 4.72 0 0 0-1.57.25c-.19.05-.49.4-.46.45.38.72-.51.72-.58 1.05.75.94 1.44 1.83 2.16 2.7a3.46 3.46 0 0 0 .87.78c1.1.64 2.21 1.26 3.35 1.85a8.71 8.71 0 0 0 4.81 1.03zm-5.2-2.63c-.63-.25-1.13-.8-1.73-1.12-1.17-.61-1.63-1.76-2.24-2.82.13-.06.17-.1.21-.09 3.19.35 6.15 1.24 8.27 3.91.19.24.41.75.3.9a1.15 1.15 0 0 1-.94.47 34.72 34.72 0 0 1-3.87-1.24z"></path><path d="M270.11 6.33a4.21 4.21 0 0 0 1.43-2.84 22.59 22.59 0 0 0 0-2.8 1.47 1.47 0 0 0-1.8-.61c-.28.08-.58.08-.87.14-3.31.74-5.56 2.69-6 6a4.42 4.42 0 0 0 .54 2.95c1.75.02 5.08-1.48 6.7-2.84zm-.43-4.48a2.35 2.35 0 0 1-.68 3 11 11 0 0 1-4.57 2.45c-.86-2.61 2.04-5.65 5.26-5.45z"></path><path d="M242 8.41a8.32 8.32 0 0 0 3.54-6.25 1.51 1.51 0 0 0-.39-1.16c-.15-.14-.67.12-1 .24a5.23 5.23 0 0 1-1 .4 8.26 8.26 0 0 0-5 2.36 6.89 6.89 0 0 0-1.53 2 33.51 33.51 0 0 0-1.25 3.54c2.41.35 4.63.28 6.63-1.13zm1.59-5.32c0 2.67-2.57 5-6 5.33a6.35 6.35 0 0 1 6.04-5.33z"></path><path d="M259.76 15.39a1 1 0 0 0-.15-.7 42.25 42.25 0 0 0-3.49-3.82 6.93 6.93 0 0 0-5.47-1.68c-.94.09-1.73.38-2 1.32l1.35 2.21c1.67 2.78 4.39 3.87 7.3 4.58a2.33 2.33 0 0 0 2.46-1.91zm-5.32-.51a5.56 5.56 0 0 1-3.52-4.2c2.24-.48 5.51 1.71 6.85 4.71-1.31.81-2.33-.09-3.33-.51z"></path><path d="M241.52 14.82a3.67 3.67 0 0 0 .73 1.09 2.28 2.28 0 0 0 3.26.29c.94-1 1.06-3 .09-3.73a7.2 7.2 0 0 0-2-.77c-2.24.1-2.9 1.03-2.08 3.12z"></path><path d="M267.3 11.74a2.15 2.15 0 0 0-1.9 2.65 4 4 0 0 0 2.6 1.91 3.16 3.16 0 0 0 2.65-1.83 1.57 1.57 0 0 0-.71-2 8.76 8.76 0 0 0-2.64-.73z"></path><path d="M253.44 6.77a2.77 2.77 0 0 0 3.27-1.41 1.48 1.48 0 0 0 0-.73 3.76 3.76 0 0 0-2.82-2 2.23 2.23 0 0 0-2.16 1.27c-.45 1 .23 1.6.78 2.22a3.52 3.52 0 0 0 .93.65z"></path><path d="M281.44 6.91c1 0 2.43-1.18 2.42-2a2.5 2.5 0 0 0-2.75-2.29A2.17 2.17 0 0 0 279 4.49a2.92 2.92 0 0 0 2.44 2.42z"></path><path d="M324.37 6.33a4.21 4.21 0 0 0 1.43-2.84 22.6 22.6 0 0 0 0-2.8 1.47 1.47 0 0 0-1.8-.61c-.28.08-.58.08-.87.14-3.31.74-5.56 2.69-6 6a4.41 4.41 0 0 0 .54 2.95c1.75.02 5.08-1.48 6.7-2.84zm-.43-4.48a2.35 2.35 0 0 1-.68 3 11 11 0 0 1-4.56 2.45c-.87-2.61 2.02-5.65 5.24-5.45z"></path><path d="M296.3 8.41a8.32 8.32 0 0 0 3.54-6.25A1.51 1.51 0 0 0 299.4 1c-.15-.14-.67.12-1 .24a5.23 5.23 0 0 1-1 .4 8.26 8.26 0 0 0-5 2.36 6.88 6.88 0 0 0-1.53 2 33.52 33.52 0 0 0-1.25 3.54c2.38.35 4.64.28 6.68-1.13zm1.59-5.32c0 2.67-2.57 5-6 5.33a6.35 6.35 0 0 1 6-5.33z"></path><path d="M314 15.39a1 1 0 0 0-.15-.7 42.22 42.22 0 0 0-3.49-3.82 6.93 6.93 0 0 0-5.47-1.68c-.94.09-1.73.38-2 1.32l1.34 2.21c1.67 2.78 4.39 3.87 7.3 4.58a2.33 2.33 0 0 0 2.47-1.91zm-5.32-.51a5.56 5.56 0 0 1-3.52-4.2c2.24-.48 5.51 1.71 6.85 4.71-1.3.81-2.31-.09-3.31-.51z"></path><path d="M295.77 14.82a3.68 3.68 0 0 0 .73 1.09 2.28 2.28 0 0 0 3.26.29c.94-1 1.06-3 .09-3.73a7.2 7.2 0 0 0-2-.77c-2.24.1-2.85 1.03-2.08 3.12z"></path><path d="M321.56 11.74a2.15 2.15 0 0 0-1.9 2.65 4 4 0 0 0 2.65 1.92 3.16 3.16 0 0 0 2.69-1.84 1.57 1.57 0 0 0-.71-2 8.76 8.76 0 0 0-2.73-.73z"></path><path d="M307.7 6.77a2.77 2.77 0 0 0 3.3-1.41 1.48 1.48 0 0 0 0-.73 3.76 3.76 0 0 0-2.82-2A2.23 2.23 0 0 0 306 3.87c-.45 1 .23 1.6.78 2.22a3.52 3.52 0 0 0 .92.68z"></path><path d="M4.88 8.94l.12.55.18.55.23.55.29.55.2.33.22.31.24.29.27.27.29.25.31.22.34.19.36.15.27-.23.27-.27.28-.32L9 12l.55-.79.53-.88.49-.92.43-.95.34-.9.13-.43.11-.4.08-.43v-.83l-.06-.4-.1-.39-.13-.38-.15-.3-.22-.41-.17-.28-.16-.31-.41-.55-.91-1.1H9.1L9 1.26h-.74l-.11.06-.15.17-.11.08-.21.19-.16.24-.15.17-.16.16-.31.32-.4.5-.36.5-.32.51-.28.51-.24.52-.2.53-.1.52-.11.54-.06.54V8.4zm1.28-1.33v-.28l.1-.55.15-.55.21-.54.27-.52.15-.25.17-.24.18-.23.2-.23.24-.22.17-.19.24-.19.25-.18.22.12.2.13.18.14.2.17.13.15.12.16.1.17.08.17.06.18v1l-.05.44-.12.55-.18.6-.14.58-.29.68-.31.64-.35.62-.34.56-.4.5-.21-.15-.19-.17-.2-.17-.16-.19-.14-.2-.1-.23-.11-.23-.09-.23-.08-.24-.06-.25V7.61z"></path><path d="M11.95 14.89l.07.23.09.22.11.21.13.19.15.17.18.14.14.08.16.07.19.05H14.82l.46-.08.21-.06.19-.07.17-.08.14-.09.15-.12.14-.14.13-.16.12-.18.11-.19.1-.2.09-.21.08-.21.07-.22.05-.22v-1.25l-.03-.08-.06-.14-.07-.14-.08-.13-.09-.12-.1-.11-.11-.1-.12-.09-.12-.08-.13-.06H15.2l-.68.21-.67.25-.64.3-.31.17-.3.19-.18.14-.15.17-.13.19-.1.21-.08.22-.05.23v.72z"></path><path d="M139.56 485.69c-1.12-.64-2.26-1.26-3.42-1.84a9.06 9.06 0 0 0-4.92-1 2.22 2.22 0 0 0-1.84 1.35 1.45 1.45 0 0 0 .7 1.91 1.33 1.33 0 0 1 .31.32c2.51 3 5.85 4.2 9.6 4.53a4.93 4.93 0 0 0 1.61-.25c.19 0 .5-.4.47-.45-.39-.71.52-.72.6-1.05-.77-.94-1.47-1.83-2.21-2.69a3.52 3.52 0 0 0-.9-.83zm.82 3.79c-3.27-.35-6.29-1.24-8.46-3.91-.2-.24-.42-.75-.31-.9a1.18 1.18 0 0 1 1-.47 35.6 35.6 0 0 1 4 1.25c.64.25 1.15.8 1.77 1.12 1.2.61 1.66 1.76 2.29 2.82-.2.05-.25.09-.29.09z"></path><path d="M149 493.67a4.17 4.17 0 0 0-1.46 2.84 22.14 22.14 0 0 0 0 2.8 1.52 1.52 0 0 0 1.84.61c.29-.08.59-.08.89-.14 3.38-.74 5.68-2.69 6.14-6a4.34 4.34 0 0 0-.55-2.95c-1.77-.02-5.17 1.48-6.86 2.84zm.44 4.48a2.31 2.31 0 0 1 .69-3 11.36 11.36 0 0 1 4.67-2.45c.92 2.61-2.04 5.65-5.33 5.45z"></path><path d="M162.11 482.71a2.38 2.38 0 0 0-2.5 1.9 1 1 0 0 0 .15.7 43 43 0 0 0 3.56 3.82 7.19 7.19 0 0 0 5.59 1.68c1-.09 1.77-.38 2-1.32l-1.37-2.21c-1.68-2.78-4.45-3.86-7.43-4.57zm-.47 1.91c1.35-.81 2.39.09 3.41.51a5.58 5.58 0 0 1 3.6 4.2c-2.29.47-5.65-1.72-7.01-4.72z"></path><path d="M148.43 485.53a1.56 1.56 0 0 0 .73 2 9.1 9.1 0 0 0 2.74.69 2.16 2.16 0 0 0 1.95-2.65 4.07 4.07 0 0 0-2.71-1.92 3.23 3.23 0 0 0-2.71 1.88z"></path><path d="M166.07 493.23a2.85 2.85 0 0 0-3.34 1.41 1.44 1.44 0 0 0 0 .73 3.84 3.84 0 0 0 2.88 2 2.29 2.29 0 0 0 2.21-1.27c.46-1-.23-1.6-.8-2.22a3.59 3.59 0 0 0-.95-.65z"></path><path d="M137.45 493.09c-1.07 0-2.49 1.18-2.47 2a2.54 2.54 0 0 0 2.81 2.29c1.07 0 2.18-1 2.13-1.88a3 3 0 0 0-2.47-2.41z"></path><path d="M84 485.69c-1.12-.64-2.26-1.26-3.42-1.84a9.06 9.06 0 0 0-4.92-1 2.22 2.22 0 0 0-1.84 1.35 1.45 1.45 0 0 0 .7 1.91 1.29 1.29 0 0 1 .31.32c2.51 3 5.85 4.2 9.6 4.53a4.92 4.92 0 0 0 1.61-.25c.19 0 .5-.4.47-.45-.39-.71.52-.72.6-1.05-.77-.94-1.47-1.83-2.21-2.69a3.48 3.48 0 0 0-.9-.83zm.82 3.79c-3.27-.35-6.29-1.24-8.46-3.91-.2-.24-.42-.75-.31-.9a1.18 1.18 0 0 1 1-.47 35.61 35.61 0 0 1 4 1.25c.64.25 1.15.8 1.77 1.12 1.2.61 1.66 1.76 2.29 2.82-.21.05-.25.09-.29.09z"></path><path d="M93.47 493.67a4.18 4.18 0 0 0-1.47 2.84 22.09 22.09 0 0 0 0 2.8 1.52 1.52 0 0 0 1.84.61c.29-.08.6-.08.89-.14 3.38-.74 5.68-2.69 6.14-6a4.33 4.33 0 0 0-.55-2.95c-1.79-.02-5.19 1.48-6.85 2.84zm.44 4.48a2.32 2.32 0 0 1 .69-3 11.36 11.36 0 0 1 4.67-2.45c.89 2.61-2.07 5.65-5.37 5.45z"></path><path d="M122.17 491.59a8.29 8.29 0 0 0-3.62 6.25A1.5 1.5 0 0 0 119 499c.15.14.68-.12 1-.24a5.34 5.34 0 0 1 1.07-.4 8.53 8.53 0 0 0 5.07-2.36 6.9 6.9 0 0 0 1.57-2 33.4 33.4 0 0 0 1.27-3.54c-2.46-.35-4.72-.28-6.81 1.13zm-1.63 5.32c.05-2.67 2.63-5 6.1-5.33a6.45 6.45 0 0 1-6.1 5.33z"></path><path d="M106.55 482.71a2.38 2.38 0 0 0-2.5 1.9 1 1 0 0 0 .15.7 42.69 42.69 0 0 0 3.56 3.82 7.18 7.18 0 0 0 5.59 1.68c1-.09 1.77-.38 2-1.32l-1.35-2.21c-1.7-2.78-4.48-3.86-7.45-4.57zm-.47 1.91c1.35-.81 2.39.09 3.41.51a5.58 5.58 0 0 1 3.6 4.2c-2.3.47-5.64-1.72-7.01-4.72z"></path><path d="M122.7 485.18a3.68 3.68 0 0 0-.74-1.09 2.37 2.37 0 0 0-3.34-.29c-1 1-1.08 3-.09 3.74a7.43 7.43 0 0 0 2 .77c2.34-.11 3-1.04 2.17-3.13z"></path><path d="M92.87 485.53a1.56 1.56 0 0 0 .73 2 9.11 9.11 0 0 0 2.74.69 2.16 2.16 0 0 0 1.95-2.65 4.07 4.07 0 0 0-2.71-1.92 3.24 3.24 0 0 0-2.71 1.88z"></path><path d="M110.51 493.23a2.85 2.85 0 0 0-3.34 1.41 1.44 1.44 0 0 0 0 .73 3.84 3.84 0 0 0 2.88 2 2.28 2.28 0 0 0 2.21-1.27c.46-1-.23-1.6-.79-2.22a3.6 3.6 0 0 0-.96-.65z"></path><path d="M81.88 493.09c-1.07 0-2.49 1.18-2.47 2a2.54 2.54 0 0 0 2.81 2.29c1.07 0 2.18-1 2.13-1.88a3 3 0 0 0-2.47-2.41z"></path><path d="M28.53 485.69a74.99 74.99 0 0 0-3.42-1.84 9 9 0 0 0-4.92-1 2.22 2.22 0 0 0-1.84 1.35 1.45 1.45 0 0 0 .7 1.91 1.33 1.33 0 0 1 .31.32c2.51 3 5.85 4.2 9.6 4.53a4.93 4.93 0 0 0 1.61-.25c.19 0 .5-.4.47-.45-.39-.71.52-.72.6-1.05-.77-.94-1.47-1.83-2.21-2.69a3.51 3.51 0 0 0-.9-.83zm.82 3.79c-3.26-.35-6.28-1.24-8.46-3.91-.2-.24-.42-.75-.31-.9a1.18 1.18 0 0 1 1-.47 35.61 35.61 0 0 1 4 1.25c.64.25 1.15.8 1.77 1.12 1.2.61 1.66 1.76 2.29 2.82-.21.05-.25.09-.3.09z"></path><path d="M38 493.67a4.17 4.17 0 0 0-1.46 2.84 21.74 21.74 0 0 0 0 2.8 1.52 1.52 0 0 0 1.84.61c.29-.08.59-.08.89-.14 3.38-.74 5.68-2.69 6.15-6a4.34 4.34 0 0 0-.55-2.95c-1.81-.02-5.21 1.48-6.87 2.84zm.44 4.48a2.31 2.31 0 0 1 .69-3 11.36 11.36 0 0 1 4.67-2.45c.88 2.61-2.08 5.65-5.37 5.45z"></path><path d="M66.69 491.59a8.29 8.29 0 0 0-3.62 6.25 1.49 1.49 0 0 0 .45 1.12c.15.14.68-.12 1-.24a5.27 5.27 0 0 1 1.07-.4 8.53 8.53 0 0 0 5.1-2.32 6.92 6.92 0 0 0 1.57-2 33.3 33.3 0 0 0 1.27-3.54c-2.48-.35-4.74-.28-6.84 1.13zm-1.62 5.32c0-2.67 2.63-5 6.1-5.33a6.45 6.45 0 0 1-6.1 5.33z"></path><path d="M51.08 482.71a2.38 2.38 0 0 0-2.5 1.9 1 1 0 0 0 .15.7 43 43 0 0 0 3.56 3.82 7.19 7.19 0 0 0 5.59 1.68c1-.09 1.77-.38 2-1.32l-1.37-2.21c-1.68-2.78-4.46-3.86-7.43-4.57zm-.47 1.91c1.35-.81 2.39.09 3.41.51a5.58 5.58 0 0 1 3.6 4.2c-2.3.47-5.62-1.72-7.01-4.72z"></path><path d="M67.23 485.18a3.67 3.67 0 0 0-.74-1.09 2.37 2.37 0 0 0-3.34-.29c-1 1-1.08 3-.09 3.74a7.48 7.48 0 0 0 2 .77c2.34-.11 3-1.04 2.17-3.13z"></path><path d="M40.11 483.7a3.23 3.23 0 0 0-2.71 1.83 1.56 1.56 0 0 0 .73 2 9.1 9.1 0 0 0 2.74.69 2.16 2.16 0 0 0 1.95-2.65 4.07 4.07 0 0 0-2.71-1.87z"></path><path d="M55 493.23a2.85 2.85 0 0 0-3.34 1.41 1.44 1.44 0 0 0 0 .73 3.84 3.84 0 0 0 2.88 2 2.29 2.29 0 0 0 2.21-1.27c.46-1-.23-1.6-.8-2.22a3.59 3.59 0 0 0-.95-.65z"></path><path d="M26.41 493.09c-1.07 0-2.49 1.18-2.47 2a2.54 2.54 0 0 0 2.81 2.29c1.07 0 2.18-1 2.13-1.88a3 3 0 0 0-2.47-2.41z"></path><path d="M9.33 439.82c.05.19.4.49.45.46.72-.38.72.51 1.05.58.94-.75 1.83-1.44 2.7-2.16a3.46 3.46 0 0 0 .78-.87c.64-1.1 1.26-2.21 1.85-3.35a8.71 8.71 0 0 0 1-4.81 2.18 2.18 0 0 0-1.35-1.8 1.47 1.47 0 0 0-1.91.68 1.3 1.3 0 0 1-.32.31c-3 2.45-4.2 5.72-4.53 9.39a4.72 4.72 0 0 0 .28 1.57zm5.11-9.46c.24-.19.75-.41.9-.3a1.16 1.16 0 0 1 .47.94 34.74 34.74 0 0 1-1.25 3.87c-.25.63-.8 1.13-1.12 1.73-.61 1.17-1.76 1.63-2.82 2.24-.06-.13-.1-.17-.09-.21.35-3.19 1.23-6.15 3.91-8.27z"></path><path d="M6.26 454.32a4.41 4.41 0 0 0 2.95-.54c0-1.74-1.52-5.06-2.88-6.69a4.21 4.21 0 0 0-2.84-1.43 22.6 22.6 0 0 0-2.8 0 1.47 1.47 0 0 0-.61 1.8c.08.28.08.58.14.87.78 3.28 2.69 5.54 6.04 5.99zm-4.41-6.8a2.34 2.34 0 0 1 3 .68 11 11 0 0 1 2.45 4.57c-2.61.86-5.65-2.03-5.45-5.25z"></path><path d="M1.68 474.11a8.26 8.26 0 0 0 2.36 5 6.89 6.89 0 0 0 2 1.53 33.49 33.49 0 0 0 3.54 1.25c.34-2.43.27-4.64-1.14-6.69a8.32 8.32 0 0 0-6.25-3.54 1.51 1.51 0 0 0-1.12.44c-.14.15.12.67.24 1a5.22 5.22 0 0 1 .37 1.01zm6.74 5.43a6.35 6.35 0 0 1-5.33-6c2.66.08 4.91 2.6 5.32 6z"></path><path d="M15.39 457.44a1 1 0 0 0-.7.15 42.19 42.19 0 0 0-3.82 3.49 6.93 6.93 0 0 0-1.68 5.47c.09.94.38 1.73 1.32 2l2.21-1.34c2.78-1.67 3.87-4.39 4.58-7.3a2.33 2.33 0 0 0-1.91-2.47zm-.51 5.32a5.56 5.56 0 0 1-4.2 3.52c-.48-2.24 1.71-5.51 4.71-6.85.81 1.32-.09 2.33-.51 3.33z"></path><path d="M12.47 471.6a7.2 7.2 0 0 0-.77 2c.11 2.26 1 2.92 3.12 2.1a3.67 3.67 0 0 0 1.09-.73 2.28 2.28 0 0 0 .29-3.26c-.98-.96-2.98-1.07-3.73-.11z"></path><path d="M14.47 446.5a1.57 1.57 0 0 0-2 .71 8.76 8.76 0 0 0-.69 2.69 2.15 2.15 0 0 0 2.65 1.9 4 4 0 0 0 1.92-2.65 3.16 3.16 0 0 0-1.88-2.65z"></path><path d="M5.36 460.49a1.48 1.48 0 0 0-.73 0 3.76 3.76 0 0 0-2 2.82 2.23 2.23 0 0 0 1.27 2.16c1 .45 1.6-.23 2.22-.78a3.52 3.52 0 0 0 .68-1 2.77 2.77 0 0 0-1.44-3.2z"></path><path d="M4.9 433.34a2.5 2.5 0 0 0-2.29 2.75 2.17 2.17 0 0 0 1.88 2.08 2.92 2.92 0 0 0 2.42-2.42c-.03-1.03-1.18-2.42-2.01-2.41z"></path><path d="M9.33 385.56c.05.19.4.49.45.46.72-.38.72.51 1.05.58.94-.75 1.83-1.44 2.7-2.16a3.44 3.44 0 0 0 .78-.87c.64-1.1 1.26-2.21 1.85-3.35a8.71 8.71 0 0 0 1-4.81 2.18 2.18 0 0 0-1.35-1.8 1.47 1.47 0 0 0-1.91.68 1.31 1.31 0 0 1-.32.31c-3 2.45-4.2 5.72-4.53 9.39a4.72 4.72 0 0 0 .28 1.57zm5.11-9.46c.24-.19.75-.41.9-.3a1.16 1.16 0 0 1 .47.94 34.75 34.75 0 0 1-1.25 3.87c-.25.63-.8 1.13-1.12 1.73-.61 1.17-1.76 1.63-2.82 2.24-.06-.13-.1-.17-.09-.21.35-3.19 1.23-6.15 3.91-8.27z"></path><path d="M.22 394.05c.74 3.31 2.69 5.56 6 6a4.42 4.42 0 0 0 2.95-.54c0-1.74-1.52-5.07-2.88-6.69a4.21 4.21 0 0 0-2.84-1.43 22.5 22.5 0 0 0-2.8 0 1.47 1.47 0 0 0-.61 1.8c.12.28.12.58.18.86zm1.63-.79a2.35 2.35 0 0 1 3 .68 11 11 0 0 1 2.45 4.57c-2.61.87-5.65-2.03-5.45-5.25z"></path><path d="M2.16 417.36a1.51 1.51 0 0 0-1.16.44c-.14.15.12.67.24 1a5.23 5.23 0 0 1 .4 1 8.26 8.26 0 0 0 2.36 5 6.88 6.88 0 0 0 2 1.53 33.51 33.51 0 0 0 3.54 1.25c.34-2.43.27-4.64-1.14-6.69a8.32 8.32 0 0 0-6.24-3.53zm.93 2c2.67 0 5 2.57 5.33 6a6.35 6.35 0 0 1-5.33-6.04z"></path><path d="M15.39 403.18a1 1 0 0 0-.7.15 42.26 42.26 0 0 0-3.82 3.49 6.93 6.93 0 0 0-1.68 5.47c.09.94.38 1.73 1.32 2l2.21-1.34c2.78-1.67 3.87-4.39 4.58-7.3a2.33 2.33 0 0 0-1.91-2.47zm-.51 5.32a5.56 5.56 0 0 1-4.2 3.52c-.48-2.24 1.71-5.51 4.71-6.85.81 1.32-.09 2.34-.51 3.33z"></path><path d="M14.82 421.43a3.68 3.68 0 0 0 1.09-.73 2.28 2.28 0 0 0 .29-3.26c-1-.94-3-1.06-3.73-.09a7.2 7.2 0 0 0-.77 2c.1 2.24 1.03 2.89 3.12 2.08z"></path><path d="M14.47 392.25a1.57 1.57 0 0 0-2 .71 8.76 8.76 0 0 0-.69 2.69 2.15 2.15 0 0 0 2.65 1.9 4 4 0 0 0 1.92-2.65 3.16 3.16 0 0 0-1.88-2.65z"></path><path d="M6.09 410.45a3.51 3.51 0 0 0 .68-1 2.77 2.77 0 0 0-1.41-3.27 1.49 1.49 0 0 0-.73 0 3.76 3.76 0 0 0-2 2.82 2.23 2.23 0 0 0 1.27 2.16c.94.52 1.57-.16 2.19-.71z"></path><path d="M4.9 379.09a2.5 2.5 0 0 0-2.29 2.75 2.17 2.17 0 0 0 1.88 2.09 2.93 2.93 0 0 0 2.42-2.42c-.03-1.05-1.18-2.44-2.01-2.42z"></path><path d="M9.33 331.22c.05.19.4.49.45.46.72-.38.72.51 1.05.58.94-.75 1.83-1.44 2.7-2.16a3.44 3.44 0 0 0 .78-.87c.64-1.1 1.26-2.21 1.85-3.35a8.71 8.71 0 0 0 1-4.81 2.18 2.18 0 0 0-1.35-1.8 1.47 1.47 0 0 0-1.91.68 1.31 1.31 0 0 1-.32.31c-3 2.45-4.2 5.72-4.53 9.39a4.72 4.72 0 0 0 .28 1.57zm5.11-9.46c.24-.19.75-.41.9-.3a1.16 1.16 0 0 1 .47.94 34.74 34.74 0 0 1-1.25 3.87c-.25.63-.8 1.13-1.12 1.73-.61 1.17-1.76 1.63-2.82 2.24-.06-.13-.1-.17-.09-.21.35-3.2 1.23-6.15 3.91-8.28z"></path><path d="M6.33 338.49a4.21 4.21 0 0 0-2.84-1.43 22.5 22.5 0 0 0-2.8 0 1.47 1.47 0 0 0-.61 1.8c.08.28.08.58.14.87.74 3.31 2.69 5.56 6 6a4.42 4.42 0 0 0 2.95-.54c.02-1.75-1.48-5.08-2.84-6.7zm-4.48.43a2.35 2.35 0 0 1 3 .68 11 11 0 0 1 2.45 4.57c-2.61.83-5.65-2.03-5.45-5.26z"></path><path d="M2.16 363a1.51 1.51 0 0 0-1.12.44c-.14.15.12.67.24 1a5.23 5.23 0 0 1 .4 1 8.26 8.26 0 0 0 2.36 5A6.88 6.88 0 0 0 6 372a33.52 33.52 0 0 0 3.54 1.25c.34-2.43.27-4.64-1.14-6.69A8.32 8.32 0 0 0 2.16 363zm.93 2c2.67 0 5 2.57 5.33 6a6.35 6.35 0 0 1-5.33-6z"></path><path d="M15.39 348.84a1 1 0 0 0-.7.15 42.26 42.26 0 0 0-3.82 3.49 6.93 6.93 0 0 0-1.68 5.47c.09.94.38 1.73 1.32 2l2.21-1.34c2.78-1.67 3.87-4.39 4.58-7.3a2.33 2.33 0 0 0-1.91-2.47zm-.51 5.32a5.56 5.56 0 0 1-4.2 3.52c-.48-2.24 1.71-5.51 4.71-6.85.81 1.32-.09 2.33-.51 3.33z"></path><path d="M14.82 367.08a3.68 3.68 0 0 0 1.09-.73 2.28 2.28 0 0 0 .29-3.26c-1-.94-3-1.06-3.73-.09a7.2 7.2 0 0 0-.77 2c.1 2.24 1.03 2.9 3.12 2.08z"></path><path d="M14.47 337.9a1.57 1.57 0 0 0-2 .71 8.76 8.76 0 0 0-.69 2.69 2.15 2.15 0 0 0 2.65 1.9 4 4 0 0 0 1.92-2.65 3.16 3.16 0 0 0-1.88-2.65z"></path><path d="M6.09 356.11a3.51 3.51 0 0 0 .68-1 2.77 2.77 0 0 0-1.41-3.27 1.49 1.49 0 0 0-.73 0 3.76 3.76 0 0 0-2 2.82 2.23 2.23 0 0 0 1.27 2.16c.94.52 1.57-.16 2.19-.71z"></path><path d="M6.91 327.16c0-1-1.18-2.43-2-2.42a2.5 2.5 0 0 0-2.29 2.75 2.17 2.17 0 0 0 1.88 2.09 2.93 2.93 0 0 0 2.41-2.42z"></path><path d="M17.18 266.81a2.18 2.18 0 0 0-1.35-1.8 1.47 1.47 0 0 0-1.91.68 1.3 1.3 0 0 1-.32.31c-3 2.45-4.2 5.72-4.53 9.39a4.72 4.72 0 0 0 .26 1.61c.05.19.4.49.45.46.72-.38.72.51 1.05.58.94-.75 1.83-1.44 2.7-2.16a3.46 3.46 0 0 0 .78-.87c.64-1.1 1.26-2.21 1.85-3.35a8.71 8.71 0 0 0 1.02-4.85zM14.56 272c-.25.63-.8 1.13-1.12 1.73-.61 1.17-1.76 1.63-2.82 2.24-.06-.13-.1-.17-.09-.21.35-3.19 1.24-6.15 3.91-8.27.24-.19.75-.41.9-.3a1.15 1.15 0 0 1 .47.94 34.75 34.75 0 0 1-1.25 3.87z"></path><path d="M6.33 284.23a4.21 4.21 0 0 0-2.84-1.43 22.6 22.6 0 0 0-2.8 0 1.47 1.47 0 0 0-.61 1.8c.08.28.08.58.14.87.74 3.31 2.69 5.56 6 6a4.42 4.42 0 0 0 2.95-.54c.02-1.75-1.48-5.07-2.84-6.7zm-4.48.43a2.34 2.34 0 0 1 3 .68 11 11 0 0 1 2.45 4.57c-2.61.86-5.65-2.03-5.45-5.25z"></path><path d="M2.16 308.76a1.51 1.51 0 0 0-1.16.44c-.14.15.12.67.24 1a5.23 5.23 0 0 1 .4 1 8.26 8.26 0 0 0 2.36 5 6.9 6.9 0 0 0 2 1.53A33.5 33.5 0 0 0 9.55 319c.34-2.43.27-4.64-1.14-6.69a8.32 8.32 0 0 0-6.25-3.55zm.93 2c2.67 0 5 2.57 5.33 6a6.35 6.35 0 0 1-5.33-6.05z"></path><path d="M15.39 294.58a1 1 0 0 0-.7.15 42.25 42.25 0 0 0-3.82 3.49 6.93 6.93 0 0 0-1.68 5.47c.09.94.38 1.73 1.32 2l2.21-1.34c2.78-1.67 3.87-4.39 4.58-7.3a2.33 2.33 0 0 0-1.91-2.47zm-.51 5.32a5.56 5.56 0 0 1-4.2 3.52c-.48-2.24 1.71-5.51 4.71-6.85.81 1.32-.09 2.34-.51 3.33z"></path><path d="M14.82 312.83a3.67 3.67 0 0 0 1.09-.73 2.28 2.28 0 0 0 .29-3.26c-1-.94-3-1.06-3.73-.09a7.2 7.2 0 0 0-.77 2c.1 2.25 1.03 2.89 3.12 2.08z"></path><path d="M14.47 283.65a1.57 1.57 0 0 0-2 .71 8.76 8.76 0 0 0-.69 2.68 2.15 2.15 0 0 0 2.65 1.9 4 4 0 0 0 1.92-2.65 3.16 3.16 0 0 0-1.88-2.64z"></path><path d="M6.09 301.85a3.52 3.52 0 0 0 .68-1 2.77 2.77 0 0 0-1.41-3.27 1.48 1.48 0 0 0-.73 0 3.76 3.76 0 0 0-2 2.82 2.23 2.23 0 0 0 1.27 2.16c.94.52 1.57-.16 2.19-.71z"></path><path d="M4.9 270.48a2.5 2.5 0 0 0-2.29 2.75 2.17 2.17 0 0 0 1.88 2.09 2.92 2.92 0 0 0 2.42-2.42c-.03-1.04-1.18-2.43-2.01-2.42z"></path><path d="M9.79 223.07c.72-.38.72.51 1.05.58.94-.75 1.83-1.44 2.7-2.16a3.46 3.46 0 0 0 .78-.87c.64-1.1 1.26-2.21 1.85-3.35a8.71 8.71 0 0 0 1-4.81 2.18 2.18 0 0 0-1.35-1.8 1.47 1.47 0 0 0-1.91.68 1.3 1.3 0 0 1-.32.31c-3 2.45-4.2 5.72-4.53 9.39a4.72 4.72 0 0 0 .25 1.57c.07.19.42.49.48.46zm4.65-9.92c.24-.19.75-.41.9-.3a1.16 1.16 0 0 1 .47.94 34.73 34.73 0 0 1-1.25 3.87c-.25.63-.8 1.13-1.12 1.73-.61 1.17-1.76 1.63-2.82 2.24-.06-.13-.1-.17-.09-.21.35-3.19 1.23-6.14 3.91-8.27z"></path><path d="M.22 231.1c.74 3.31 2.69 5.56 6 6a4.42 4.42 0 0 0 2.95-.54c0-1.74-1.52-5.07-2.88-6.69a4.21 4.21 0 0 0-2.84-1.43 22.59 22.59 0 0 0-2.8 0 1.47 1.47 0 0 0-.61 1.8c.12.28.12.58.18.86zm1.63-.79a2.35 2.35 0 0 1 3 .68 11 11 0 0 1 2.45 4.57c-2.61.87-5.65-2.03-5.45-5.25z"></path><path d="M1 254.85c-.14.15.12.67.24 1a5.23 5.23 0 0 1 .4 1 8.26 8.26 0 0 0 2.36 5 6.89 6.89 0 0 0 2 1.53 33.51 33.51 0 0 0 3.54 1.25c.34-2.43.27-4.64-1.14-6.69a8.32 8.32 0 0 0-6.25-3.54 1.51 1.51 0 0 0-1.15.45zm7.38 7.48a6.35 6.35 0 0 1-5.33-6c2.7.09 4.95 2.61 5.36 6z"></path><path d="M15.39 240.24a1 1 0 0 0-.7.15 42.24 42.24 0 0 0-3.82 3.49 6.93 6.93 0 0 0-1.68 5.47c.09.94.38 1.73 1.32 2l2.21-1.35c2.78-1.67 3.87-4.39 4.58-7.3a2.33 2.33 0 0 0-1.91-2.46zm-.51 5.32a5.56 5.56 0 0 1-4.2 3.52c-.48-2.24 1.71-5.51 4.71-6.85.81 1.31-.09 2.33-.51 3.33z"></path><path d="M14.82 258.48a3.67 3.67 0 0 0 1.09-.73 2.28 2.28 0 0 0 .29-3.26c-1-.94-3-1.06-3.73-.09a7.2 7.2 0 0 0-.77 2c.1 2.24 1.03 2.9 3.12 2.08z"></path><path d="M14.47 229.3a1.57 1.57 0 0 0-2 .71 8.76 8.76 0 0 0-.69 2.68 2.15 2.15 0 0 0 2.65 1.9A4 4 0 0 0 16.3 232a3.16 3.16 0 0 0-1.83-2.7z"></path><path d="M6.09 247.51a3.52 3.52 0 0 0 .68-1 2.77 2.77 0 0 0-1.41-3.27 1.48 1.48 0 0 0-.73 0 3.76 3.76 0 0 0-2 2.82 2.23 2.23 0 0 0 1.27 2.16c.94.52 1.57-.16 2.19-.71z"></path><path d="M4.9 216.14a2.5 2.5 0 0 0-2.29 2.75A2.17 2.17 0 0 0 4.49 221a2.92 2.92 0 0 0 2.42-2.42c-.03-1.07-1.18-2.45-2.01-2.44z"></path><path d="M.22 176.85c.74 3.31 2.69 5.56 6 6a4.42 4.42 0 0 0 2.95-.54c0-1.74-1.52-5.07-2.88-6.69a4.21 4.21 0 0 0-2.84-1.43 22.58 22.58 0 0 0-2.8 0A1.47 1.47 0 0 0 .08 176c.08.26.08.56.14.85zm1.63-.79a2.35 2.35 0 0 1 3 .68 11 11 0 0 1 2.45 4.56c-2.61.87-5.65-2.02-5.45-5.24z"></path><path d="M8.41 203.7a8.32 8.32 0 0 0-6.25-3.54 1.51 1.51 0 0 0-1.16.44c-.14.15.12.67.24 1a5.23 5.23 0 0 1 .4 1 8.26 8.26 0 0 0 2.36 5 6.88 6.88 0 0 0 2 1.53 33.49 33.49 0 0 0 3.54 1.25c.35-2.38.28-4.64-1.13-6.68zm-5.32-1.59c2.67 0 5 2.57 5.33 6a6.35 6.35 0 0 1-5.33-6z"></path><path d="M9.19 195.08c.09.94.38 1.73 1.32 2l2.21-1.34c2.78-1.67 3.87-4.39 4.58-7.3a2.33 2.33 0 0 0-1.9-2.45 1 1 0 0 0-.7.15 42.22 42.22 0 0 0-3.82 3.49 6.93 6.93 0 0 0-1.69 5.45zm6.2-7.08c.81 1.32-.09 2.34-.51 3.33a5.56 5.56 0 0 1-4.2 3.52c-.48-2.27 1.71-5.55 4.71-6.85z"></path><path d="M14.82 204.23a3.68 3.68 0 0 0 1.09-.73 2.28 2.28 0 0 0 .29-3.26c-1-.94-3-1.06-3.73-.09a7.2 7.2 0 0 0-.77 2c.1 2.24 1.03 2.85 3.12 2.08z"></path><path d="M14.39 180.35a4 4 0 0 0 1.92-2.65 3.16 3.16 0 0 0-1.84-2.7 1.57 1.57 0 0 0-2 .71 8.76 8.76 0 0 0-.69 2.69 2.15 2.15 0 0 0 2.61 1.95z"></path><path d="M6.09 193.25a3.52 3.52 0 0 0 .68-1A2.77 2.77 0 0 0 5.36 189a1.48 1.48 0 0 0-.73 0 3.76 3.76 0 0 0-2 2.82A2.23 2.23 0 0 0 3.87 194c.97.48 1.6-.2 2.22-.75z"></path><path d="M12.65 491.53l-.32-.28L12 491l-.79-.55-.88-.53-.92-.49-.95-.43-.9-.34-.43-.13-.4-.11-.43-.08h-.83l-.4.06-.39.1-.38.13-.37.17-.36.19-.28.17-.28.19-.55.41-1.14.91v1.08l.06.11.07.11.08.11.19.21.23.2.17.15.16.16.32.31.5.4.5.36.51.32.51.28.52.24.53.2.53.15.54.11.54.06h1.08l.55-.08.55-.13.55-.18.55-.23.55-.29.33-.2.31-.22.29-.24.27-.27.25-.29.22-.31.19-.34.15-.36-.23-.27zm-1.8 1.08l-.17.19-.18.17-.19.16-.2.14-.22.13-.23.11-.23.09-.24.08-.25.06H7.33l-.55-.1-.55-.15-.54-.21-.52-.27-.25-.15-.24-.17-.23-.18-.23-.2-.22-.14-.2-.22-.19-.24-.18-.25.12-.22.13-.2.14-.18.14-.16.15-.13.16-.12.17-.1.17-.08.18-.06h1l.44.05.55.12.6.18.64.23.65.27.64.31.62.35.57.37.5.39z"></path><path d="M16.22 484.73l-.06-.21-.07-.19-.08-.17-.09-.14-.12-.15-.14-.14-.16-.13-.18-.12-.19-.11-.2-.1-.21-.09-.21-.08-.22-.07-.22-.05h-1.25l-.15.05-.14.06-.14.07-.13.08-.12.09-.11.1-.1.11-.09.12-.08.12-.06.13V484.78l.21.68.25.67.3.64.17.31.19.3.14.18.17.15.19.13.21.1.22.08.23.05h.96l.23-.07.22-.09.21-.11.19-.13.17-.15.14-.18.08-.14.07-.16.05-.19V485.2z"></path><path d="M490.21 302.47c-.71.39-.72-.52-1.05-.6-.94.77-1.83 1.47-2.69 2.21a3.48 3.48 0 0 0-.78.89c-.64 1.12-1.26 2.26-1.84 3.42a9.06 9.06 0 0 0-1 4.92 2.22 2.22 0 0 0 1.35 1.84 1.45 1.45 0 0 0 1.91-.7 1.34 1.34 0 0 1 .32-.31c3-2.51 4.2-5.85 4.53-9.6a4.92 4.92 0 0 0-.25-1.61c-.09-.19-.44-.49-.5-.46zm-4.65 10.14c-.24.2-.75.42-.9.31a1.18 1.18 0 0 1-.47-1 35.62 35.62 0 0 1 1.25-4c.25-.64.8-1.15 1.12-1.77.61-1.2 1.76-1.66 2.82-2.29.06.13.1.18.09.22-.35 3.34-1.23 6.35-3.91 8.53z"></path><path d="M499.78 294.25c-.74-3.38-2.69-5.68-6-6.14a4.33 4.33 0 0 0-2.95.55c0 1.78 1.52 5.18 2.88 6.84a4.19 4.19 0 0 0 2.84 1.46 22.1 22.1 0 0 0 2.8 0 1.52 1.52 0 0 0 .61-1.84c-.12-.27-.12-.58-.18-.87zm-1.63.81a2.31 2.31 0 0 1-3-.69 11.35 11.35 0 0 1-2.45-4.67c2.61-.89 5.65 2.07 5.45 5.36z"></path><path d="M499 270c.14-.15-.12-.68-.24-1a5.35 5.35 0 0 1-.4-1.07 8.53 8.53 0 0 0-2.36-5.07 6.89 6.89 0 0 0-2-1.57 33.24 33.24 0 0 0-3.54-1.27c-.34 2.48-.27 4.75 1.14 6.84a8.28 8.28 0 0 0 6.25 3.62A1.49 1.49 0 0 0 499 270zm-7.38-7.65a6.45 6.45 0 0 1 5.33 6.1c-2.7-.08-4.95-2.65-5.36-6.13z"></path><path d="M484.61 284.92a1 1 0 0 0 .7-.15 42.65 42.65 0 0 0 3.82-3.56 7.18 7.18 0 0 0 1.68-5.59c-.09-1-.38-1.77-1.32-2l-2.21 1.38c-2.78 1.71-3.87 4.48-4.58 7.46a2.37 2.37 0 0 0 1.91 2.46zm.51-5.44a5.58 5.58 0 0 1 4.2-3.6c.48 2.29-1.71 5.64-4.71 7-.81-1.34.09-2.38.51-3.4z"></path><path d="M485.18 266.26a3.68 3.68 0 0 0-1.09.74 2.37 2.37 0 0 0-.29 3.34c1 1 3 1.08 3.74.09a7.43 7.43 0 0 0 .77-2c-.11-2.33-1.04-3-3.13-2.17z"></path><path d="M485.53 296.1a1.56 1.56 0 0 0 2-.73 9.12 9.12 0 0 0 .69-2.74 2.16 2.16 0 0 0-2.65-1.95 4.07 4.07 0 0 0-1.92 2.71 3.23 3.23 0 0 0 1.88 2.71z"></path><path d="M493.91 277.48a3.62 3.62 0 0 0-.68 1 2.85 2.85 0 0 0 1.41 3.34 1.44 1.44 0 0 0 .73 0 3.84 3.84 0 0 0 2-2.88 2.28 2.28 0 0 0-1.27-2.21c-.94-.5-1.57.19-2.19.75z"></path><path d="M495.1 309.55a2.54 2.54 0 0 0 2.29-2.81c0-1.07-1-2.18-1.88-2.13a3 3 0 0 0-2.41 2.47c.02 1.07 1.17 2.49 2 2.47z"></path><path d="M490.21 357.94c-.71.39-.72-.52-1.05-.6-.94.77-1.83 1.47-2.69 2.21a3.52 3.52 0 0 0-.78.89c-.64 1.12-1.26 2.26-1.84 3.42a9.06 9.06 0 0 0-1 4.92 2.22 2.22 0 0 0 1.35 1.84 1.45 1.45 0 0 0 1.91-.7 1.33 1.33 0 0 1 .32-.31c3-2.51 4.2-5.85 4.53-9.6a4.92 4.92 0 0 0-.25-1.61c-.09-.19-.44-.49-.5-.46zm-4.65 10.14c-.24.2-.75.42-.9.31a1.18 1.18 0 0 1-.47-1 35.6 35.6 0 0 1 1.25-4c.25-.64.8-1.15 1.12-1.77.61-1.2 1.76-1.66 2.82-2.29.06.13.1.18.09.22-.35 3.34-1.23 6.36-3.91 8.53z"></path><path d="M499.78 349.72c-.74-3.38-2.69-5.68-6-6.14a4.34 4.34 0 0 0-2.95.55c0 1.78 1.52 5.18 2.88 6.84a4.17 4.17 0 0 0 2.84 1.46 22.14 22.14 0 0 0 2.8 0 1.52 1.52 0 0 0 .61-1.84c-.12-.27-.12-.59-.18-.87zm-1.63.81a2.31 2.31 0 0 1-3-.69 11.36 11.36 0 0 1-2.45-4.67c2.61-.89 5.65 2.07 5.45 5.36z"></path><path d="M491.59 322.27a8.28 8.28 0 0 0 6.25 3.62 1.5 1.5 0 0 0 1.12-.45c.14-.15-.12-.68-.24-1a5.26 5.26 0 0 1-.4-1.07 8.53 8.53 0 0 0-2.36-5.07 6.93 6.93 0 0 0-2-1.57 33.38 33.38 0 0 0-3.54-1.27c-.31 2.45-.24 4.72 1.17 6.81zm5.32 1.63c-2.67 0-5-2.63-5.33-6.1a6.45 6.45 0 0 1 5.33 6.1z"></path><path d="M484.61 340.39a1 1 0 0 0 .7-.15 43 43 0 0 0 3.82-3.56 7.19 7.19 0 0 0 1.68-5.59c-.09-1-.38-1.77-1.32-2l-2.21 1.37c-2.78 1.71-3.87 4.48-4.58 7.46a2.38 2.38 0 0 0 1.91 2.47zm.51-5.44a5.58 5.58 0 0 1 4.2-3.6c.48 2.29-1.71 5.64-4.71 7-.81-1.35.09-2.35.51-3.35z"></path><path d="M485.18 321.73a3.67 3.67 0 0 0-1.09.74 2.36 2.36 0 0 0-.29 3.34c1 1 3 1.08 3.74.09a7.47 7.47 0 0 0 .77-2c-.11-2.33-1.04-3-3.13-2.17z"></path><path d="M485.53 351.57a1.56 1.56 0 0 0 2-.73 9.1 9.1 0 0 0 .69-2.74 2.16 2.16 0 0 0-2.65-1.95 4.07 4.07 0 0 0-1.92 2.71 3.23 3.23 0 0 0 1.88 2.71z"></path><path d="M493.91 333a3.59 3.59 0 0 0-.68 1 2.85 2.85 0 0 0 1.41 3.34 1.44 1.44 0 0 0 .73 0 3.84 3.84 0 0 0 2-2.88 2.29 2.29 0 0 0-1.27-2.21c-.94-.55-1.57.14-2.19.75z"></path><path d="M495.1 365a2.54 2.54 0 0 0 2.29-2.81c0-1.07-1-2.18-1.88-2.13a3 3 0 0 0-2.41 2.47c.02 1.09 1.17 2.47 2 2.47z"></path><path d="M490.21 413.5c-.71.39-.72-.52-1.05-.6-.94.77-1.83 1.47-2.69 2.21a3.48 3.48 0 0 0-.78.89c-.64 1.12-1.26 2.26-1.84 3.42a9.06 9.06 0 0 0-1 4.92 2.22 2.22 0 0 0 1.35 1.84 1.45 1.45 0 0 0 1.91-.7 1.29 1.29 0 0 1 .32-.31c3-2.51 4.2-5.85 4.53-9.6a4.92 4.92 0 0 0-.25-1.61c-.09-.18-.44-.49-.5-.46zm-4.65 10.14c-.24.2-.75.42-.9.31a1.18 1.18 0 0 1-.47-1 35.61 35.61 0 0 1 1.25-4c.25-.64.8-1.15 1.12-1.77.61-1.2 1.76-1.66 2.82-2.29.06.13.1.18.09.22-.35 3.34-1.23 6.36-3.91 8.53z"></path><path d="M499.78 405.29c-.74-3.38-2.69-5.68-6-6.14a4.33 4.33 0 0 0-2.95.55c0 1.78 1.52 5.18 2.88 6.84a4.18 4.18 0 0 0 2.84 1.46 22.1 22.1 0 0 0 2.8 0 1.52 1.52 0 0 0 .61-1.84c-.12-.27-.12-.58-.18-.87zm-1.63.81a2.32 2.32 0 0 1-3-.69 11.36 11.36 0 0 1-2.45-4.67c2.61-.9 5.65 2.06 5.45 5.36z"></path><path d="M491.59 377.83a8.29 8.29 0 0 0 6.25 3.62A1.5 1.5 0 0 0 499 381c.14-.15-.12-.68-.24-1a5.34 5.34 0 0 1-.4-1.07 8.53 8.53 0 0 0-2.36-5.07 6.9 6.9 0 0 0-2-1.57 33.41 33.41 0 0 0-3.54-1.27c-.35 2.46-.28 4.72 1.13 6.81zm5.32 1.63c-2.67-.05-5-2.63-5.33-6.1a6.45 6.45 0 0 1 5.33 6.1z"></path><path d="M484.61 396a1 1 0 0 0 .7-.15 42.69 42.69 0 0 0 3.82-3.56 7.18 7.18 0 0 0 1.68-5.59c-.09-1-.38-1.77-1.32-2l-2.21 1.3c-2.78 1.71-3.87 4.48-4.58 7.46a2.38 2.38 0 0 0 1.91 2.54zm.51-5.44a5.58 5.58 0 0 1 4.2-3.6c.48 2.29-1.71 5.64-4.71 7-.81-1.39.09-2.43.51-3.45z"></path><path d="M485.18 377.3a3.68 3.68 0 0 0-1.09.74 2.37 2.37 0 0 0-.29 3.34c1 1 3 1.08 3.74.09a7.43 7.43 0 0 0 .77-2c-.11-2.34-1.04-3-3.13-2.17z"></path><path d="M485.53 407.13a1.56 1.56 0 0 0 2-.73 9.11 9.11 0 0 0 .69-2.74 2.16 2.16 0 0 0-2.65-1.95 4.07 4.07 0 0 0-1.92 2.71 3.24 3.24 0 0 0 1.88 2.71z"></path><path d="M493.91 388.52a3.6 3.6 0 0 0-.68 1 2.85 2.85 0 0 0 1.41 3.34 1.44 1.44 0 0 0 .73 0 3.84 3.84 0 0 0 2-2.88 2.28 2.28 0 0 0-1.27-2.21c-.94-.51-1.57.23-2.19.75z"></path><path d="M495.1 420.59a2.54 2.54 0 0 0 2.29-2.81c0-1.07-1-2.18-1.88-2.13a3 3 0 0 0-2.41 2.47c.02 1.06 1.17 2.48 2 2.47z"></path><path d="M484.16 481.65a1.45 1.45 0 0 0 1.91-.7 1.33 1.33 0 0 1 .32-.31c3-2.51 4.2-5.85 4.53-9.6a4.93 4.93 0 0 0-.25-1.61c0-.19-.4-.5-.45-.47-.71.39-.72-.52-1.05-.6-.94.77-1.83 1.47-2.69 2.21a3.51 3.51 0 0 0-.78.89 74.99 74.99 0 0 0-1.84 3.42 9 9 0 0 0-1 4.92 2.22 2.22 0 0 0 1.3 1.85zm1.28-7.15c.25-.64.8-1.15 1.12-1.77.61-1.2 1.76-1.66 2.82-2.29.06.13.1.18.09.22-.35 3.26-1.24 6.28-3.91 8.46-.24.2-.75.42-.9.31a1.18 1.18 0 0 1-.47-1 35.6 35.6 0 0 1 1.25-3.93z"></path><path d="M499.78 460.76c-.74-3.38-2.69-5.68-6-6.15a4.34 4.34 0 0 0-2.95.55c0 1.78 1.52 5.18 2.88 6.84a4.17 4.17 0 0 0 2.84 1.46 21.74 21.74 0 0 0 2.8 0 1.52 1.52 0 0 0 .61-1.84c-.12-.26-.12-.57-.18-.86zm-1.63.81a2.31 2.31 0 0 1-3-.69 11.36 11.36 0 0 1-2.45-4.67c2.61-.89 5.65 2.07 5.45 5.36z"></path><path d="M491.59 433.31a8.29 8.29 0 0 0 6.25 3.62 1.49 1.49 0 0 0 1.12-.45c.14-.15-.12-.68-.24-1a5.28 5.28 0 0 1-.4-1.07 8.53 8.53 0 0 0-2.36-5.07 6.92 6.92 0 0 0-2-1.57 33.3 33.3 0 0 0-3.54-1.27c-.31 2.45-.24 4.71 1.17 6.81zm5.32 1.62c-2.67 0-5-2.63-5.33-6.1a6.45 6.45 0 0 1 5.33 6.1z"></path><path d="M484.61 451.42a1 1 0 0 0 .7-.15 43 43 0 0 0 3.82-3.56 7.19 7.19 0 0 0 1.68-5.59c-.09-1-.38-1.77-1.32-2l-2.21 1.37c-2.78 1.71-3.87 4.48-4.58 7.46a2.38 2.38 0 0 0 1.91 2.47zm.51-5.44a5.58 5.58 0 0 1 4.2-3.6c.48 2.29-1.71 5.64-4.71 7-.81-1.38.09-2.38.51-3.38z"></path><path d="M485.18 432.77a3.67 3.67 0 0 0-1.09.74 2.37 2.37 0 0 0-.29 3.34c1 1 3 1.08 3.74.09a7.48 7.48 0 0 0 .77-2c-.11-2.34-1.04-3-3.13-2.17z"></path><path d="M485.61 457.18a4.07 4.07 0 0 0-1.92 2.71 3.23 3.23 0 0 0 1.83 2.71 1.56 1.56 0 0 0 2-.73 9.1 9.1 0 0 0 .69-2.74 2.16 2.16 0 0 0-2.6-1.95z"></path><path d="M493.91 444a3.59 3.59 0 0 0-.68 1 2.85 2.85 0 0 0 1.41 3.34 1.44 1.44 0 0 0 .73 0 3.84 3.84 0 0 0 2-2.88 2.29 2.29 0 0 0-1.27-2.21c-.94-.52-1.57.17-2.19.75z"></path><path d="M495.51 471.11a3 3 0 0 0-2.41 2.47c0 1.07 1.18 2.49 2 2.47a2.54 2.54 0 0 0 2.29-2.81c-.02-1.07-1-2.18-1.88-2.13z"></path><path d="M437.83 485.69c-1.1-.64-2.21-1.26-3.35-1.85a8.71 8.71 0 0 0-4.81-1 2.18 2.18 0 0 0-1.8 1.35 1.47 1.47 0 0 0 .68 1.91 1.3 1.3 0 0 1 .31.32c2.45 3 5.72 4.2 9.39 4.53a4.72 4.72 0 0 0 1.57-.25c.19-.05.49-.4.46-.45-.38-.72.51-.72.58-1.05-.75-.94-1.44-1.83-2.16-2.7a3.46 3.46 0 0 0-.87-.81zm.8 3.79c-3.19-.35-6.15-1.24-8.27-3.91-.19-.24-.41-.75-.3-.9a1.16 1.16 0 0 1 .94-.47 34.75 34.75 0 0 1 3.87 1.25c.63.25 1.13.8 1.73 1.12 1.17.61 1.63 1.76 2.24 2.82-.13.05-.17.09-.21.09z"></path><path d="M447.09 493.67a4.21 4.21 0 0 0-1.43 2.84 22.6 22.6 0 0 0 0 2.8 1.47 1.47 0 0 0 1.8.61c.28-.08.58-.08.87-.14 3.31-.74 5.56-2.69 6-6a4.41 4.41 0 0 0-.54-2.95c-1.79-.02-5.07 1.48-6.7 2.84zm.43 4.48a2.34 2.34 0 0 1 .68-3 11 11 0 0 1 4.57-2.45c.86 2.61-2.03 5.65-5.25 5.45z"></path><path d="M475.16 491.59a8.32 8.32 0 0 0-3.54 6.25 1.51 1.51 0 0 0 .44 1.12c.15.14.67-.12 1-.24a5.22 5.22 0 0 1 1-.4 8.26 8.26 0 0 0 5-2.36 6.89 6.89 0 0 0 1.53-2 33.5 33.5 0 0 0 1.25-3.54c-2.42-.31-4.63-.24-6.68 1.17zm-1.59 5.32c0-2.67 2.57-5 6-5.33a6.35 6.35 0 0 1-6 5.33z"></path><path d="M459.89 482.71a2.33 2.33 0 0 0-2.45 1.9 1 1 0 0 0 .15.7 42.18 42.18 0 0 0 3.49 3.82 6.93 6.93 0 0 0 5.47 1.68c.94-.09 1.73-.38 2-1.32l-1.34-2.21c-1.7-2.78-4.41-3.86-7.32-4.57zm-.46 1.91c1.32-.81 2.34.09 3.34.51a5.56 5.56 0 0 1 3.52 4.2c-2.29.47-5.53-1.72-6.87-4.72z"></path><path d="M475.69 485.18a3.67 3.67 0 0 0-.73-1.09 2.28 2.28 0 0 0-3.26-.29c-.94 1-1.06 3-.09 3.73a7.2 7.2 0 0 0 2 .77c2.24-.1 2.89-1.03 2.08-3.12z"></path><path d="M449.16 483.7a3.16 3.16 0 0 0-2.65 1.83 1.57 1.57 0 0 0 .71 2 8.76 8.76 0 0 0 2.69.69 2.15 2.15 0 0 0 1.9-2.65 4 4 0 0 0-2.65-1.87z"></path><path d="M463.76 493.23a2.77 2.77 0 0 0-3.27 1.41 1.48 1.48 0 0 0 0 .73 3.76 3.76 0 0 0 2.82 2 2.23 2.23 0 0 0 2.16-1.27c.45-1-.23-1.6-.78-2.22a3.52 3.52 0 0 0-.93-.65z"></path><path d="M435.76 493.09c-1 0-2.43 1.18-2.42 2a2.5 2.5 0 0 0 2.75 2.29 2.17 2.17 0 0 0 2.08-1.88 2.92 2.92 0 0 0-2.41-2.41z"></path><path d="M383.57 485.69c-1.1-.64-2.21-1.26-3.35-1.85a8.71 8.71 0 0 0-4.81-1 2.18 2.18 0 0 0-1.8 1.35 1.47 1.47 0 0 0 .68 1.91 1.31 1.31 0 0 1 .31.32c2.45 3 5.72 4.2 9.39 4.53a4.72 4.72 0 0 0 1.57-.25c.19-.05.49-.4.46-.45-.38-.72.51-.72.58-1.05-.75-.94-1.44-1.83-2.16-2.7a3.44 3.44 0 0 0-.87-.81zm.8 3.79c-3.19-.35-6.15-1.24-8.27-3.91-.19-.24-.41-.75-.3-.9a1.16 1.16 0 0 1 .94-.47 34.75 34.75 0 0 1 3.87 1.25c.63.25 1.13.8 1.73 1.12 1.17.61 1.63 1.76 2.24 2.82-.12.05-.17.09-.21.09z"></path><path d="M392.83 493.67a4.21 4.21 0 0 0-1.43 2.84 22.5 22.5 0 0 0 0 2.8 1.47 1.47 0 0 0 1.8.61c.28-.08.58-.08.87-.14 3.31-.74 5.56-2.69 6-6a4.42 4.42 0 0 0-.54-2.95c-1.75-.02-5.07 1.48-6.7 2.84zm.43 4.48a2.35 2.35 0 0 1 .68-3 11 11 0 0 1 4.57-2.45c.87 2.61-2.03 5.65-5.25 5.45z"></path><path d="M420.9 491.59a8.32 8.32 0 0 0-3.54 6.25 1.51 1.51 0 0 0 .44 1.12c.15.14.67-.12 1-.24a5.23 5.23 0 0 1 1-.4 8.26 8.26 0 0 0 5-2.36 6.88 6.88 0 0 0 1.53-2 33.51 33.51 0 0 0 1.25-3.54c-2.41-.31-4.63-.24-6.68 1.17zm-1.59 5.32c0-2.67 2.57-5 6-5.33a6.35 6.35 0 0 1-5.99 5.33z"></path><path d="M405.63 482.71a2.33 2.33 0 0 0-2.45 1.9 1 1 0 0 0 .15.7 42.25 42.25 0 0 0 3.49 3.82 6.93 6.93 0 0 0 5.47 1.68c.94-.09 1.73-.38 2-1.32l-1.34-2.21c-1.7-2.78-4.41-3.86-7.32-4.57zm-.46 1.91c1.32-.81 2.34.09 3.33.51a5.56 5.56 0 0 1 3.52 4.2c-2.24.47-5.51-1.72-6.85-4.72z"></path><path d="M421.43 485.18a3.68 3.68 0 0 0-.73-1.09 2.28 2.28 0 0 0-3.26-.29c-.94 1-1.06 3-.09 3.73a7.2 7.2 0 0 0 2 .77c2.24-.1 2.89-1.03 2.08-3.12z"></path><path d="M392.25 485.53a1.57 1.57 0 0 0 .71 2 8.76 8.76 0 0 0 2.69.69 2.15 2.15 0 0 0 1.9-2.65 4 4 0 0 0-2.65-1.92 3.16 3.16 0 0 0-2.65 1.88z"></path><path d="M409.5 493.23a2.77 2.77 0 0 0-3.27 1.41 1.49 1.49 0 0 0 0 .73 3.76 3.76 0 0 0 2.82 2 2.23 2.23 0 0 0 2.16-1.27c.45-1-.23-1.6-.78-2.22a3.51 3.51 0 0 0-.93-.65z"></path><path d="M381.5 493.09c-1 0-2.43 1.18-2.42 2a2.5 2.5 0 0 0 2.75 2.29 2.17 2.17 0 0 0 2.09-1.88 2.93 2.93 0 0 0-2.42-2.41z"></path><path d="M329.23 485.69c-1.1-.64-2.21-1.26-3.35-1.85a8.71 8.71 0 0 0-4.81-1 2.18 2.18 0 0 0-1.8 1.35 1.47 1.47 0 0 0 .68 1.91 1.31 1.31 0 0 1 .31.32c2.45 3 5.72 4.2 9.39 4.53a4.72 4.72 0 0 0 1.57-.25c.19-.05.49-.4.46-.45-.38-.72.51-.72.58-1.05-.75-.94-1.44-1.83-2.16-2.7a3.44 3.44 0 0 0-.87-.81zm.8 3.79c-3.19-.35-6.15-1.24-8.27-3.91-.19-.24-.41-.75-.3-.9a1.16 1.16 0 0 1 .94-.47 34.75 34.75 0 0 1 3.87 1.25c.63.25 1.13.8 1.73 1.12 1.17.61 1.63 1.76 2.24 2.82-.13.05-.17.09-.24.09z"></path><path d="M338.49 493.67a4.21 4.21 0 0 0-1.43 2.84 22.5 22.5 0 0 0 0 2.8 1.47 1.47 0 0 0 1.8.61c.28-.08.58-.08.87-.14 3.31-.74 5.56-2.69 6-6a4.42 4.42 0 0 0-.54-2.95c-1.75-.02-5.08 1.48-6.7 2.84zm.43 4.48a2.35 2.35 0 0 1 .68-3 11 11 0 0 1 4.57-2.45c.83 2.61-2.03 5.65-5.26 5.45z"></path><path d="M366.56 491.59a8.32 8.32 0 0 0-3.54 6.25 1.51 1.51 0 0 0 .44 1.12c.15.14.67-.12 1-.24a5.23 5.23 0 0 1 1-.4 8.26 8.26 0 0 0 5-2.36 6.88 6.88 0 0 0 1.53-2 33.52 33.52 0 0 0 1.25-3.54c-2.42-.31-4.64-.24-6.68 1.17zm-1.56 5.32c0-2.67 2.57-5 6-5.33a6.35 6.35 0 0 1-6 5.33z"></path><path d="M351.28 482.71a2.33 2.33 0 0 0-2.45 1.9 1 1 0 0 0 .15.7 42.25 42.25 0 0 0 3.49 3.82 6.93 6.93 0 0 0 5.47 1.68c.94-.09 1.73-.38 2-1.32l-1.34-2.21c-1.69-2.78-4.41-3.86-7.32-4.57zm-.46 1.91c1.32-.81 2.34.09 3.33.51a5.56 5.56 0 0 1 3.52 4.2c-2.23.47-5.51-1.72-6.85-4.72z"></path><path d="M367.08 485.18a3.68 3.68 0 0 0-.73-1.09 2.28 2.28 0 0 0-3.26-.29c-.94 1-1.06 3-.09 3.73a7.2 7.2 0 0 0 2 .77c2.24-.1 2.9-1.03 2.08-3.12z"></path><path d="M337.9 485.53a1.57 1.57 0 0 0 .71 2 8.76 8.76 0 0 0 2.69.69 2.15 2.15 0 0 0 1.9-2.65 4 4 0 0 0-2.65-1.92 3.16 3.16 0 0 0-2.65 1.88z"></path><path d="M355.16 493.23a2.77 2.77 0 0 0-3.27 1.41 1.49 1.49 0 0 0 0 .73 3.76 3.76 0 0 0 2.82 2 2.23 2.23 0 0 0 2.16-1.27c.45-1-.23-1.6-.78-2.22a3.51 3.51 0 0 0-.93-.65z"></path><path d="M327.16 493.09c-1 0-2.43 1.18-2.42 2a2.5 2.5 0 0 0 2.75 2.29 2.17 2.17 0 0 0 2.09-1.88 2.93 2.93 0 0 0-2.42-2.41z"></path><path d="M275 485.69c-1.1-.64-2.21-1.26-3.35-1.85a8.71 8.71 0 0 0-4.81-1 2.18 2.18 0 0 0-1.8 1.35 1.47 1.47 0 0 0 .68 1.91 1.3 1.3 0 0 1 .31.32c2.45 3 5.72 4.2 9.39 4.53a4.72 4.72 0 0 0 1.57-.25c.19-.05.49-.4.46-.45-.38-.72.51-.72.58-1.05-.75-.94-1.44-1.83-2.16-2.7a3.46 3.46 0 0 0-.87-.81zm.8 3.79c-3.19-.35-6.15-1.24-8.27-3.91-.19-.24-.41-.75-.3-.9a1.16 1.16 0 0 1 .94-.47 34.75 34.75 0 0 1 3.87 1.25c.63.25 1.13.8 1.73 1.12 1.17.61 1.63 1.76 2.24 2.82-.15.05-.2.09-.24.09z"></path><path d="M284.23 493.67a4.21 4.21 0 0 0-1.43 2.84 22.6 22.6 0 0 0 0 2.8 1.47 1.47 0 0 0 1.8.61c.28-.08.58-.08.87-.14 3.31-.74 5.56-2.69 6-6a4.42 4.42 0 0 0-.54-2.95c-1.75-.02-5.07 1.48-6.7 2.84zm.43 4.48a2.34 2.34 0 0 1 .68-3 11 11 0 0 1 4.57-2.45c.86 2.61-2.03 5.65-5.25 5.45z"></path><path d="M312.3 491.59a8.32 8.32 0 0 0-3.54 6.25 1.51 1.51 0 0 0 .44 1.12c.15.14.67-.12 1-.24a5.23 5.23 0 0 1 1-.4 8.26 8.26 0 0 0 5-2.36 6.9 6.9 0 0 0 1.53-2 33.5 33.5 0 0 0 1.25-3.54c-2.42-.31-4.63-.24-6.68 1.17zm-1.59 5.32c0-2.67 2.57-5 6-5.33a6.35 6.35 0 0 1-6 5.33z"></path><path d="M297 482.71a2.33 2.33 0 0 0-2.45 1.9 1 1 0 0 0 .15.7 42.24 42.24 0 0 0 3.49 3.82 6.93 6.93 0 0 0 5.47 1.68c.94-.09 1.73-.38 2-1.32l-1.34-2.21c-1.67-2.78-4.38-3.86-7.32-4.57zm-.46 1.91c1.32-.81 2.34.09 3.34.51a5.56 5.56 0 0 1 3.52 4.2c-2.22.47-5.5-1.72-6.83-4.72z"></path><path d="M312.83 485.18a3.67 3.67 0 0 0-.73-1.09 2.28 2.28 0 0 0-3.26-.29c-.94 1-1.06 3-.09 3.73a7.2 7.2 0 0 0 2 .77c2.25-.1 2.89-1.03 2.08-3.12z"></path><path d="M286.3 483.7a3.16 3.16 0 0 0-2.65 1.83 1.57 1.57 0 0 0 .71 2 8.76 8.76 0 0 0 2.68.69 2.15 2.15 0 0 0 1.9-2.65 4 4 0 0 0-2.64-1.87z"></path><path d="M300.9 493.23a2.77 2.77 0 0 0-3.27 1.41 1.48 1.48 0 0 0 0 .73 3.76 3.76 0 0 0 2.82 2 2.23 2.23 0 0 0 2.16-1.27c.45-1-.23-1.6-.78-2.22a3.52 3.52 0 0 0-.93-.65z"></path><path d="M272.9 493.09c-1 0-2.43 1.18-2.42 2a2.5 2.5 0 0 0 2.75 2.29 2.17 2.17 0 0 0 2.09-1.88 2.92 2.92 0 0 0-2.42-2.41z"></path><path d="M220.62 485.69c-1.1-.64-2.21-1.26-3.35-1.85a8.71 8.71 0 0 0-4.81-1 2.18 2.18 0 0 0-1.8 1.35 1.47 1.47 0 0 0 .68 1.91 1.3 1.3 0 0 1 .31.32c2.45 3 5.72 4.2 9.39 4.53a4.72 4.72 0 0 0 1.57-.25c.19-.05.49-.4.46-.45-.38-.72.51-.72.58-1.05-.75-.94-1.44-1.83-2.16-2.7a3.46 3.46 0 0 0-.87-.81zm.8 3.79c-3.19-.35-6.15-1.24-8.27-3.91-.19-.24-.41-.75-.3-.9a1.16 1.16 0 0 1 .94-.47 34.72 34.72 0 0 1 3.87 1.25c.63.25 1.13.8 1.73 1.12 1.17.61 1.63 1.76 2.24 2.82-.12.05-.17.09-.21.09z"></path><path d="M229.89 493.67a4.21 4.21 0 0 0-1.43 2.84 22.59 22.59 0 0 0 0 2.8 1.47 1.47 0 0 0 1.8.61c.28-.08.58-.08.87-.14 3.31-.74 5.56-2.69 6-6a4.42 4.42 0 0 0-.54-2.95c-1.75-.02-5.08 1.48-6.7 2.84zm.43 4.48a2.35 2.35 0 0 1 .68-3 11 11 0 0 1 4.57-2.45c.86 2.61-2.04 5.65-5.26 5.45z"></path><path d="M258 491.59a8.32 8.32 0 0 0-3.54 6.25 1.51 1.51 0 0 0 .44 1.12c.15.14.67-.12 1-.24a5.23 5.23 0 0 1 1-.4 8.26 8.26 0 0 0 5-2.36 6.89 6.89 0 0 0 1.53-2 33.51 33.51 0 0 0 1.25-3.54c-2.46-.31-4.68-.24-6.68 1.17zm-1.59 5.32c0-2.67 2.57-5 6-5.33a6.35 6.35 0 0 1-6.04 5.33z"></path><path d="M242.68 482.71a2.33 2.33 0 0 0-2.45 1.9 1 1 0 0 0 .15.7 42.24 42.24 0 0 0 3.49 3.82 6.93 6.93 0 0 0 5.47 1.68c.94-.09 1.73-.38 2-1.32l-1.34-2.21c-1.7-2.78-4.41-3.86-7.32-4.57zm-.46 1.91c1.32-.81 2.34.09 3.34.51a5.56 5.56 0 0 1 3.52 4.2c-2.25.47-5.52-1.72-6.86-4.72z"></path><path d="M258.48 485.18a3.67 3.67 0 0 0-.73-1.09 2.28 2.28 0 0 0-3.26-.29c-.94 1-1.06 3-.09 3.73a7.2 7.2 0 0 0 2 .77c2.24-.1 2.9-1.03 2.08-3.12z"></path><path d="M232 483.7a3.16 3.16 0 0 0-2.65 1.83 1.57 1.57 0 0 0 .71 2 8.76 8.76 0 0 0 2.68.69 2.15 2.15 0 0 0 1.9-2.65 4 4 0 0 0-2.64-1.87z"></path><path d="M246.56 493.23a2.77 2.77 0 0 0-3.27 1.41 1.48 1.48 0 0 0 0 .73 3.76 3.76 0 0 0 2.82 2 2.23 2.23 0 0 0 2.16-1.27c.45-1-.23-1.6-.78-2.22a3.52 3.52 0 0 0-.93-.65z"></path><path d="M218.56 493.09c-1 0-2.43 1.18-2.42 2a2.5 2.5 0 0 0 2.75 2.29 2.17 2.17 0 0 0 2.09-1.88 2.92 2.92 0 0 0-2.42-2.41z"></path><path d="M175.63 493.67a4.21 4.21 0 0 0-1.43 2.84 22.58 22.58 0 0 0 0 2.8 1.47 1.47 0 0 0 1.8.61c.28-.08.58-.08.87-.14 3.31-.74 5.56-2.69 6-6a4.42 4.42 0 0 0-.54-2.95c-1.75-.02-5.08 1.48-6.7 2.84zm.43 4.48a2.35 2.35 0 0 1 .68-3 11 11 0 0 1 4.57-2.45c.86 2.61-2.03 5.65-5.25 5.45z"></path><path d="M203.7 491.59a8.32 8.32 0 0 0-3.54 6.25 1.51 1.51 0 0 0 .44 1.12c.15.14.67-.12 1-.24a5.23 5.23 0 0 1 1-.4 8.26 8.26 0 0 0 5-2.36 6.88 6.88 0 0 0 1.53-2 33.5 33.5 0 0 0 1.25-3.54c-2.38-.31-4.64-.24-6.68 1.17zm-1.59 5.32c0-2.67 2.57-5 6-5.33a6.35 6.35 0 0 1-6 5.33z"></path><path d="M188.42 482.71a2.33 2.33 0 0 0-2.45 1.9 1 1 0 0 0 .15.7 42.21 42.21 0 0 0 3.49 3.82 6.93 6.93 0 0 0 5.47 1.68c.94-.09 1.73-.38 2-1.32l-1.34-2.21c-1.74-2.78-4.41-3.86-7.32-4.57zm-.46 1.91c1.32-.81 2.34.09 3.33.51a5.56 5.56 0 0 1 3.52 4.2c-2.23.47-5.51-1.72-6.81-4.72z"></path><path d="M204.23 485.18a3.68 3.68 0 0 0-.73-1.09 2.28 2.28 0 0 0-3.26-.29c-.94 1-1.06 3-.09 3.73a7.2 7.2 0 0 0 2 .77c2.24-.1 2.85-1.03 2.08-3.12z"></path><path d="M177.7 483.7a3.16 3.16 0 0 0-2.65 1.83 1.57 1.57 0 0 0 .71 2 8.76 8.76 0 0 0 2.69.69 2.15 2.15 0 0 0 1.9-2.65 4 4 0 0 0-2.65-1.87z"></path><path d="M192.3 493.23a2.77 2.77 0 0 0-3.27 1.41 1.48 1.48 0 0 0 0 .73 3.76 3.76 0 0 0 2.82 2 2.23 2.23 0 0 0 2.16-1.27c.45-1-.23-1.6-.78-2.22a3.52 3.52 0 0 0-.93-.65z"></path><path d="M495.12 491.06l-.13-.55-.18-.55-.23-.55-.29-.55-.2-.33-.22-.31-.24-.29-.27-.27-.29-.25-.31-.22-.34-.19-.36-.15-.27.23-.27.27-.28.32-.24.33-.55.79-.53.88-.49.92-.42.93-.34.9-.13.43-.11.4-.08.43v.83l.06.4.1.39.13.38.17.37.19.36.17.28.19.28.41.55.91 1.14h1.08l.11-.06.11-.07.11-.08.21-.19.2-.23.15-.17.16-.16.31-.32.4-.5.36-.5.32-.51.28-.51.24-.52.2-.53.15-.53.11-.54.06-.54v-1.08zm-1.28 1.34v.28l-.1.55-.15.55-.21.54-.27.52-.15.25-.17.24-.18.23-.2.23-.21.21-.22.2-.24.19-.25.18-.22-.12-.2-.13-.18-.14-.16-.14-.13-.15-.12-.16-.1-.17-.08-.17-.06-.18v-1l.05-.44.12-.55.18-.6.23-.64.27-.65.31-.64.35-.62.37-.57.39-.5.21.15.19.17.17.18.16.19.14.2.13.22.11.23.09.23.08.24.06.25v1.33z"></path><path d="M488.05 485.11l-.07-.23-.09-.22-.11-.21-.13-.19-.15-.17-.18-.14-.14-.08-.16-.07-.19-.05H485.18l-.46.08-.21.06-.19.07-.17.08-.14.09-.15.12-.14.14-.13.16-.12.18-.11.19-.1.2-.09.21-.08.21-.07.22-.05.22v1.25l.05.15.06.14.07.14.08.13.09.12.1.11.11.1.12.09.12.08.13.06H484.77l.68-.21.67-.25.64-.3.31-.17.3-.19.18-.14.15-.17.13-.19.1-.21.08-.22.05-.23v-.72z"></path></g></g></g></svg>