<svg xmlns="http://www.w3.org/2000/svg" width="224.6" height="225.68" viewBox="-46.52030563354492 -46.51613998413086 317.6323547363281 317.63238525390625" style=""><g><title>Corona119_354585426</title><g data-name="Layer 2"><circle cx="112.3" cy="112.3" r="112.3" transform="rotate(-45 112.298 112.305)" fill="#97c5f4"></circle><path d="M82.42 80.46c1.55-12.08 10.41-23.83 21.15-30a21.47 21.47 0 0 0-6-.28c3.3-2.2 7.38-2 9.31-1.77a13.94 13.94 0 0 1 9.93-6.13 15.81 15.81 0 0 0-2.21 3.35 40.78 40.78 0 0 1 16.18-1.87c17.84 1.07 44.13 14.41 46.17 45.58 0 0-19.32 27.18-26 51.93l-46.78-2.95s-26.79-18.55-21.75-57.86z"></path><path d="M176.1 82.82c-19.54 16.7-59.1-1.75-59.1-1.75-18.63 4.69-29.08 3.32-34.74 1.12-4.11 38.05 21.94 56.09 21.94 56.09l46.78 2.95c6.65-24.75 26-51.93 26-51.93a56.77 56.77 0 0 0-.88-6.48z" fill="#1d1d1b"></path><path d="M134.07 152.24l-11.94-7h-.06s-1.95 0 1.9-10.74l-18.06-2.67s-4.39 12.68-6.6 13.41l-13.44 6.19s5.34 18 24.13 18 24.07-17.19 24.07-17.19z" fill="#fabb90"></path><path d="M158.48 146.52c-3.53-3.25-23-2-25.15-2.8s-2.1.39-2.1.39-1.87 10-13.7 10.55c-11.84-.54-17-7.82-17-7.82s-.59-2.41-2.69-1.63-20.08 7.44-25.34 10.39c0 0-12 6.68-13.17 30-.42 8-.62 17.14-.68 25.52a7.41 7.41 0 0 1 1 .55c.52.36 1 .69 1.58 1 5.82 1.94 11.39 4.87 17.15 7a135.88 135.88 0 0 0 19.57 5.08c1 .21 2.12.39 3.19.56a81.36 81.36 0 0 1 10.09.39c11.7-.33 23.17-2.55 34.44-5.59 2.49-.86 4.89-1.92 7.29-3-.43-12.75-.79-28.45 3-35.58 2.91-5.45 7.33-1.23 7.8-17 .4-14.21-5.28-18.01-5.28-18.01z" fill="#ed6849"></path><path d="M105 199.34c-2.3-.2-4.89-.6-6.64 1.25a1.2 1.2 0 0 0-.37.72c0 .55.44.91.86 1.1a22.28 22.28 0 0 0 20.17-.52c5.84-3.12 10.43-9.15 12.54-16.64-.54 1.94-3.69 4.47-5 5.71a32.33 32.33 0 0 1-6.51 4.87 26.16 26.16 0 0 1-15.05 3.51z" fill="#ed6849"></path><path d="M131.23 144.11s-1.87 10-13.7 10.55a27.85 27.85 0 0 1-18.41-7.77s-.37-2.86-2.47-2.07-18.9 7.83-24.16 10.78c0 0-4.51 2.52-8.28 9.85l2 .37L72 167c7.61 1.54 15.23 3.05 22.87 4.48 6.23 1.17 12.48 2.41 18.77 3.17 11.91 1.44 23.09 16 40.5 11.62.25-.06.92-3.48 2-5.12 3.9-6.24-2.61-21.66-2.67-24.95 0-2.09-.16-4.18-.38-6.26-.2-1.8-.16-3.71-1-5.3-7.09-.82-17.22-.38-18.71-.93-2.15-.77-2.15.4-2.15.4z" fill="#e3711e"></path><path d="M78.34 219.65c1.12.41 2.28.77 3.43 1.13-4.56-21.7-13.67-29.69-13.67-29.69a83.37 83.37 0 0 1 9.47 28.27z" fill="#ed6849"></path><path d="M116.31 53.22S141 39.61 161 60.91c0 0-9.78-6.57-16.24-5.62s12.14 1 20.83 16.61c0 0-21.44-16.92-49.16-14.8-.04 0-4.43.5-.12-3.88z" fill="#1d1d1b"></path><path d="M132.67 94.31c-5.77-2-10.55-3.59-14.72-5.32-2.65 4.63-7.58 16.27-13.69 24.28-1.92-1.75-5.42-5.16-8.73-2s-.89 12.62 2 14.64a10.22 10.22 0 0 0 4.16 1.84c4.14 12 8.91 23 27.19 26.86 21.57 4.52 30.38-20.81 30.38-20.81s1.23-1.08 11.7-38.85c-4.55 2.87-19.61 5.95-38.29-.64z" fill="#f7cbc9"></path><path d="M156.77 139.15a4.28 4.28 0 0 1-3.47 1 31.24 31.24 0 0 0-11.1-.18l-2.58 14.46c8.73-2.43 14.26-10.03 17.15-15.28z" fill="#fcccaa"></path><path d="M137.06 155a23.24 23.24 0 0 1-8.2-.31c-10.51-2.2-16.55-6.8-20.58-12.57l16.6-.55s2.56.27 14.24-1.29z" fill="#fcccaa"></path><path d="M169.67 99.57l1.27-4.57c-4.53 2.83-19.59 5.91-38.27-.68-5.77-2-10.55-3.59-14.72-5.32-.49.87-1.07 2-1.72 3.27 4.35 1.73 11.11 4.19 16.29 6 17.35 6.14 31.58 3.91 37.15 1.3z" fill="#fab98c"></path><path d="M164.61 117.29a18.76 18.76 0 0 1-8.75-1.59s3.36 3.76 8 4.09c.25-.79.49-1.62.75-2.5z" fill="#fab98c"></path><path d="M164.38 118a15.85 15.85 0 0 1-8.52-2.3 19.7 19.7 0 0 0 9.1.33s.13.11.09.49a6.64 6.64 0 0 1-.67 1.48z"></path><path d="M144.79 141.35a3 3 0 0 1-1 .5 7.63 7.63 0 0 1-2 .13c-2.25 0-4.57-.08-6.82.1-1.29.11-2.79.8-3-1.05a6.54 6.54 0 0 1 2.79-6c2.44-1.64 5.64-1.42 8.54-1a4.55 4.55 0 0 1 2.55.93c1.68 1.59.81 5.04-1.06 6.39z" fill="#a12930"></path><path d="M142.9 183.58a21.81 21.81 0 0 1-6.42-2.93c-5.06-3.32-11.89-5.67-15.17-10.8a22.07 22.07 0 0 1-.84-23.29c0-2.28 8.16-4.77 9.64-5.09a70.56 70.56 0 0 1 13-2 23.61 23.61 0 0 1 12.66 2.88c7.3 4.33 8.81 12.47 9.2 20.35.36 7.1-3.4 15.57-9.69 19.2a16 16 0 0 1-12.38 1.68z" fill="#ed6849"></path><path d="M142.9 183.58a16 16 0 0 0 12.36-1.64 17.56 17.56 0 0 0 5.41-5.05c-7.92 3.59-23.49-1.31-21.74-7.92 2.2-8.3 1-12.89 1-12.89l-20.9-6.5a22.19 22.19 0 0 0 2.28 20.27c3.28 5.13 10.11 7.48 15.17 10.8a21.81 21.81 0 0 0 6.42 2.93z" fill="#ed6849"></path><path d="M141.67 155.91c-.79-15.1-19.22-12.75-19.22-12.75-26.29 1.5-64.35 3.25-67.54 3.39h-.22a7.32 7.32 0 0 0-2.33.76c-4 1.83-7.92 3.65-11.86 5.54-2 .95-4 1.91-6 2.9a3.91 3.91 0 0 0-2.08 1.75 16.46 16.46 0 0 0-1.42 3.14c-.66 2-1.26 4.73-.79 6.79.4 1.76 3.35 3 4.84 3.72a21.53 21.53 0 0 0 3.77 1.44c1.68.44 3.23.88 4.76-.13a14.8 14.8 0 0 0 3.27-3.46 12.72 12.72 0 0 1 1.29-1.45 16.54 16.54 0 0 1 2.76-1.59 30.16 30.16 0 0 0 6-4.77c.22-.22.44-.45.65-.68 27.46 6.26 61.75 10.94 65.72 11.12 4.28.16 19.19-.41 18.4-15.72z" fill="#f7cbc9"></path><path d="M114.7 63.79S132.32 85 169.82 81.51c0 0-32.77-2-55.12-17.72z" fill="#1d1d1b"></path><path d="M143.82 100.68a1.28 1.28 0 0 1-.74 1.31s-10.27 3.55-16.1 1.24c0 0 9.26-1.11 15.76-3.74.34-.09.93-.05 1.08 1.19z"></path><path d="M145.86 98.55s.93 2.72-1.13 4.23c0 0 3.94-1.19 1.13-4.23z"></path><path d="M159.46 100.85s-1.67 2.34-.13 4.38c0 0-3.44-2.23.13-4.38z"></path><path d="M151.34 112.74s-1.82 6.3 1.17 10.13c3.22 4.13-4.76 6.56-6.56 6.23-1.12-.2-2.15-2 1.3-3.6a3.69 3.69 0 0 0 2.26-4.31 10.54 10.54 0 0 1 1.83-8.45z" fill="#fab98c"></path><path d="M162.18 102.64c-.31-.19-.89-.31-1.38.83a1.28 1.28 0 0 0 .34 1.47 44 44 0 0 0 5.9 3.45c.89-.14 1.13-.8.6-2.07a46.1 46.1 0 0 1-5.46-3.68z"></path><path d="M140.52 114.45s-5.22 4.27-10.76 2.33a6.7 6.7 0 0 1-4.56-7.43s2.5 8.05 15.32 5.1z" fill="#fab98c"></path><path d="M125.2 109.35s5.26 6.13 15.32 5.1c0 0-11.45 5.02-15.32-5.1z"></path><path d="M103.67 119.43s-2.14-5.81-4.42-6-3 2.35-3 2.35 2.13-1.84 3.09-.88a11.56 11.56 0 0 1 2.5 7.35c.06 3.75 2.16-.25 1.83-2.82z" fill="#f9b384"></path></g></g></svg>