<svg xmlns="http://www.w3.org/2000/svg" width="393.96" height="302.82" viewBox="0 -0.03620447963476181 394 302.856201171875" style=""><g><title>Corona130_357225978</title><g data-name="Layer 2"><path d="M394 280.14c0 12.53-88.19 22.68-197 22.68S0 292.67 0 280.14s88.19-22.68 197-22.68 197 10.16 197 22.68z" fill="#00b9ed"></path><path d="M346.21 61.78c-13.75-16.42-284.71-16.42-298.46 0C32.05 80 29.83 194.93 35.79 247.05c.5 4.36 1.05 8.27 1.66 11.65H354v9.92c1.64-4.31 3-11.84 4.16-21.57 5.97-52.12 3.75-167.05-11.95-185.27z" fill="#3c4151"></path><path d="M351 248.76c5.7-49.8 3.58-159.65-11.42-177-13.15-15.68-272-15.68-285.16 0C39.4 89.11 37.28 199 43 248.76z" fill="#fff"></path><path d="M51.56 143.3c0-11.16 2-22.14 3.38-33.18.29-2.29-3.3-2.27-3.59 0-1.39 11-3.35 22-3.38 33.18a1.8 1.8 0 0 0 3.59 0z" fill="#143960"></path><path d="M55.56 103.15c.7-3.44 2-6.72 2.71-10.16A1.8 1.8 0 1 0 54.8 92c-.69 3.43-2 6.71-2.7 10.15a1.8 1.8 0 0 0 3.46 1z" fill="#143960"></path><path d="M336.42 93.87c1.34 15.37 3.39 30.68 4.74 46 .2 2.29 3.79 2.31 3.59 0-1.35-15.37-3.39-30.68-4.74-46-.2-2.28-3.79-2.31-3.59 0z" fill="#143960"></path><path d="M340.54 148.52c1.26 4.49 1.29 9.12 1.3 13.74a1.8 1.8 0 0 0 3.59 0c0-4.93-.08-9.91-1.42-14.69-.63-2.23-4.1-1.28-3.47 1z" fill="#143960"></path><path d="M154.72 72c14.46.67 28.88-2 43.13-4.12 2.28-.35 1.31-3.81-1-3.47-13.94 2.1-28 4.65-42.17 4-2.32-.11-2.31 3.49 0 3.6z" fill="#143960"></path><path d="M210.92 68.59h12.18a1.8 1.8 0 1 0 0-3.6h-12.18a1.8 1.8 0 0 0 0 3.6z" fill="#143960"></path><path d="M321.79 83.09c-1.62-.54-2.09 0-2.87 1.21-.21-2.8-3.64-4-4.86-1.43-1-3.12-3.82-4.16-5.33-.29.13-2.7.56-5.63-.05-8.3-1.54-6.68-6.89-5.64-8.23.44a44.79 44.79 0 0 0-.75 12.07c.07 1.1.27 2.23.26 3.33-2.7-.36-5.74.33-7.19 2.88-1.81 3.17.12 6.7 1.78 9.47.52.87 1.06 1.74 1.58 2.62a25.56 25.56 0 0 0 1.45 2.54c.57.77 1.24 1.46 1.8 2.24a8.27 8.27 0 0 1 1.43 4 12.89 12.89 0 0 1-.41 4.29c-.23 1-.53 1.95-.83 2.91-1.91 6.18 6.1 13.7 11.72 8.73 2.44-2.17 1.52-5.51 1.64-8.34a14.26 14.26 0 0 1 .51-3.18 29.38 29.38 0 0 1 4.5-9.28 21 21 0 0 1 1.87-2.23 20.22 20.22 0 0 0 5-7.94 14.09 14.09 0 0 0 .65-4.61c0-1.53-.4-3-.57-4.55-.22-2.03-.75-5.8-3.1-6.58z" fill="#f39f81"></path><path d="M187.1 249.87c-3.27-7.06-9.74-10.91-20.88-9.56l-36.69 2.14a45.47 45.47 0 0 0-5.79 7.42z" fill="#007bc0"></path><path d="M219.13 249.87a45.52 45.52 0 0 0-5.8-7.42l-36.68-2.14c-10.81-1.31-16.77 2.51-19.4 9.56z" fill="#007bc0"></path><path d="M116 249.87h111.74c-3-31.59-5.13-79.07-.12-93.05 6.57-19.23 15.77-28.78 5.65-49-5.06-10.12-16.4-21.32-29.77-20.21-10.69.9-12.31 2.45-22.43 6-2.53 1-5.56.51-7.08 1.52-1.52-1-4.55-.51-7.08-1.52-10.12-3.61-19.22-13.25-29.85-14.77-12.14-1.51-19.22 7.59-24.29 17.71-10.11 20.24 1 41 7.59 60.27 4.86 13.53.29 61.18-4.36 93.05z" fill="#68bfec"></path><path d="M295.46 112.87c-.41 14.44-1.62 23.3-6.83 37.37-2.89 7.76-14.48 29.13-25.83 27.2-12.68-2.16-17.7-25.42-20.22-35.3-5.37-21-4.26-47.29-31.85-54L205.91 114c-1.55 15.62 2 29.3 6.07 44.3 4.35 16.22 7.79 37.66 23.68 46.84 16.7 9.65 37.37 7 51.55-4.43a78.35 78.35 0 0 0 29-51.54c1.45-10.92 3.17-22.11 3.17-33.15-4.92.27-23.56-2.87-23.92-3.15z" fill="#68bfec"></path><path d="M167.92 163.52a23 23 0 0 0 3.64 5.06c3.53-4.35 6.18-9.34 9.27-14-.31-8.77-.8-17-1.59-22.88H168.9s-2.08 10.3-4.19 24.3c1.29 2.43 1.98 5 3.21 7.52z" fill="#286db4"></path><path d="M163.07 122.31l5.83 9.37h10.34l7.1-10.16s-3.21-9.46-3.47-9.37-8.42-1.36-8.42-1.36l-9.61 4.63z" fill="#286db4"></path><path d="M162.82 65.56L157 95.93c0 4.94-3.19 14.86 17.42 14.86s17.43-9.92 17.43-14.86l-5.81-30.37z" fill="#f39f81"></path><path d="M160.84 75.87c6.43 6.18 18.29 8.17 28.28 5.74l-3.07-16h-23.23s-1.98 10.25-1.98 10.26z" fill="#143960"></path><g fill="#f39f81"><path d="M147.15 39.53c-3.75.59-6.13 4.38-3.78 9.71 2 4.51 2.44 8.74 6.19 8.16s6.24-5 5.58-10-4.25-8.4-7.99-7.87z"></path><path d="M201.72 39.53c-3.75-.57-7.33 3-8 7.9s1.83 9.4 5.58 10 4.2-3.65 6.19-8.16c2.36-5.36-.03-9.15-3.77-9.74z"></path></g><path d="M148.82 29.19a26.4 26.4 0 0 0-1 7.1V53A26.58 26.58 0 1 0 201 53V36.29a26.8 26.8 0 0 0-1-7.1L159.21 7.46z" fill="#f39f81"></path><g fill="#1d4e80"><path d="M189.12 43.88c0 1.68-.85 3-1.89 3s-1.89-1.35-1.89-3 .84-3 1.89-3 1.89 1.33 1.89 3z"></path><path d="M163.53 43.88c0 1.68-.85 3-1.9 3s-1.89-1.35-1.89-3 .85-3 1.89-3 1.9 1.33 1.9 3z"></path><path d="M176.49 53.77h-4.11a.55.55 0 0 1-.55-.55c0-1.82 2-9.34 2.08-9.66a.53.53 0 0 1 .66-.38.54.54 0 0 1 .39.66c-.51 1.93-1.75 6.86-2 8.84h3.52a.55.55 0 0 1 0 1.09z"></path><path d="M181.12 34.2c0-.58.08-1.61.77-1.88a7 7 0 0 1 4-.31 26.25 26.25 0 0 1 4.35 1.58 21.55 21.55 0 0 1 2.41 1.31c.64.4 1.37 1 1.32 1.81 0 .42-.11 1.15-.66 1.14s-.82-.35-1.2-.51a13.51 13.51 0 0 0-2.84-.87 11.25 11.25 0 0 0-2.95-.25 16.72 16.72 0 0 0-2.82.54c-.62.16-1.31.38-1.82-.14a3.23 3.23 0 0 1-.56-2.42z"></path><path d="M167.75 34.2c0-.58-.08-1.61-.78-1.88a7 7 0 0 0-4-.31 26.92 26.92 0 0 0-4.35 1.58 22.47 22.47 0 0 0-2.41 1.31c-.63.4-1.37 1-1.31 1.81 0 .42.11 1.15.66 1.14s.82-.35 1.2-.51a13.51 13.51 0 0 1 2.84-.87 11.25 11.25 0 0 1 2.95-.25 17.11 17.11 0 0 1 2.82.54c.61.16 1.3.38 1.82-.14a3.23 3.23 0 0 0 .56-2.42z"></path><g><path d="M157.14 44.16a.51.51 0 0 1-.29-.08.55.55 0 0 1-.17-.75c3.13-4.89 8.45-2.35 8.5-2.33a.54.54 0 1 1-.48 1c-.18-.08-4.5-2.12-7.1 1.94a.52.52 0 0 1-.46.22z"></path><path d="M191.72 44.16a.52.52 0 0 1-.46-.25c-2.59-4.06-6.92-2-7.1-1.94a.54.54 0 1 1-.48-1c.06 0 5.37-2.56 8.5 2.33a.54.54 0 0 1-.17.75.49.49 0 0 1-.29.11z"></path></g><path d="M186.45 55.58a.55.55 0 0 0-.35.53 3.3 3.3 0 0 1-1.8 3 3.19 3.19 0 0 1-3.79-.33.54.54 0 1 0-.81.72c1.35 1.53 3.59 1.37 5.1.58a4.3 4.3 0 0 0 2.39-4 .54.54 0 0 0-.57-.52.47.47 0 0 0-.17.02z"></path></g><g fill="#d9effc"><path d="M174.41 110.79s-12 9.75-10.9 17.53c0 0-15.88-8.63-9.49-41.68a6.87 6.87 0 0 1 5.12-1.94s1.18 20.39 15.27 26.09z"></path><path d="M174.45 110.79s12.05 9.75 10.91 17.53c0 0 16.26-6.52 9.87-39.57 0 0-2.29-4.2-5.5-4 0-.05-1.19 20.34-15.28 26.04z"></path></g><path d="M300.17 91.32c1.62.23 3.23.58 4.87.68s3.41 0 5.11 0 4.07-.14 5.73.73.25 2.58-.9 3.23a14.22 14.22 0 0 1-5.38 1.53A25.35 25.35 0 0 1 299 96c-1.3-.44-1.86 1.61-.57 2 5.51 1.83 12.22 2.74 17.55-.18 1.84-1 3.63-3.15 2.58-5.35-.94-2-3.57-2.39-5.52-2.54s-3.68 0-5.51 0a44 44 0 0 1-6.77-.66c-1.33-.19-1.91 1.85-.56 2z" fill="#143960"></path><path d="M194.16 87.21s5.89-.29 7.75.53c0 0 3.29 18.33-3.87 31.58L207 122s-18.38 46.3-41.7 65.75c-.04-.03 25.91-58.61 28.86-100.54z" fill="#89d1f2"></path><path d="M173.84 175a27.17 27.17 0 0 1 3.47-6.61c-7.54-20.37-19.08-55.35-21-83.17 0 0-5.32-2.43-7.19-1.61 0 0-5.09 20 2.06 33.28l-8.92 2.65S155.52 153 173.84 175z" fill="#89d1f2"></path><path d="M164.37 189.48c2.42 19 3.38 38.14 4.28 57.26.06 1.36 2.19 1.37 2.12 0-.9-19.12-1.86-38.26-4.28-57.26-.17-1.34-2.29-1.36-2.12 0z" fill="#143960"></path><path d="M198 152.92c6.16-1 12.66-.25 18.39-3.17 1.22-.62.15-2.45-1.07-1.83-5.48 2.79-12 2-17.89 3-1.34.21-.77 2.25.57 2z" fill="#143960"></path><path d="M210.17 165.5c.46.84.33 1.48 1.06 1.87s1.48.08 2 .51c.93.78.26 3.21 0 4.23-.42 1.57-1.71 2.13-2.89.78-.88-1-1.32-2.46-2.15-3.56-1.26-1.65-.91-3.47 1.15-3.82a6.21 6.21 0 0 1 .83-.01z" fill="#286db4"></path><path d="M220.36 166.43c-.47.84-.33 1.47-1.07 1.87-.58.31-1.47.08-2 .51-.93.77-.26 3.21 0 4.23.43 1.57 1.72 2.13 2.9.77.88-1 1.32-2.46 2.15-3.55 1.26-1.66.91-3.47-1.15-3.82a6.21 6.21 0 0 0-.83-.01z" fill="#286db4"></path><path d="M201.05 24.8c3.45-1.06 3.45-6.93-.53-7.24 2.3-2.48 3-4.42.18-7.07-1.94-1.94-4.95-2.47-7.07-.53 1.37-3.5-3.29-7-5.4-5.52-1.71-5.94-7.55-4.66-9.8-1.2a4.21 4.21 0 0 0-5-3.18c-2.5.34-3.43 2.24-4.72 4.1-3.59-3.26-10.29-2.11-10.12 4-1.59-2.47-4.59-2.12-6.36-.35-2.12 1.94-2.19 3.6-1.13 6.07-7.24-1.59-6.48 6.08-3.3 9.79-6.18.71-5.48 7.65 0 10.12-2.83 1.24-1.76 4.41.19 6.18-1.59 1.42-1.42 5.83 1.06 5.48 2.82-.35 3.35-4.59 1.76-6.54 3.36-1.23 2.12-5.12.53-7.42 2.48-.71 3.89-2.47 2.48-5.13a4.29 4.29 0 0 0 3.89-.65 4.37 4.37 0 0 0 1.06-4.47c1.94 3.18 11.13 6 12 .53.36 4.41 4.6 4.41 8.13 3 0 4.07 3.54 4.43 6.54 3.54.71 2.47.88 3.54 3.36 4.24a10.36 10.36 0 0 0 6.18-.53 4.32 4.32 0 0 0 3.72 3.71c-2.13.53-1.77 5.48.35 5.83-1.24 1.59.53 5.48 2.65 4.42 2-1.06 1.24-4.95.18-6.36 2.83-1.06 2.47-4.42.35-6 4.48-3.91 1.92-8.02-1.18-8.82z" fill="#0c133c"></path><path d="M104.13 249.87h37.61c-1.1-2-2.18-4.06-3.2-6.21-10.07-21-10-42.85-6.08-60.38 3.69-16.65 12.49-29.59 11.74-49.75-.51-13.53-6.77-32.78-17.2-39.73-11.51-7.72-16.73 5.2-19.85 16.2-7.21 25.31-14.91 48.27-14.58 79.47a180 180 0 0 0 8.69 52.33c.88 2.77 1.85 5.44 2.87 8.07z" fill="#68bfec"></path><g><g fill="#286db4"><path d="M160.67 76.78l-.62 3.27c-7.39-.24-14.41 1.24-16.83 10.12-1.91 7-1.33 14.3-1.21 21.48.11 7.41 1.27 14.85 1.14 22.24-.08 4.11-2.74 9.8-2.2 13.61.29 2-2.77 2.87-3.06.85-.32-2.23.54-4.53 1.11-6.66a36.27 36.27 0 0 0 .79-12.38 244.11 244.11 0 0 1-1.09-29.5c.27-7.56 1.74-14.26 7.37-19.64 3.98-3.8 9.41-3.86 14.6-3.39z"></path><path d="M217.29 137.21c-.31 2-3.37 1.17-3-.83.89-5.69.89-12 1.1-17.81a43 43 0 0 0-2.55-17.17c-3.06-8-13.07-24.82-23.7-20l-.61-3.18c10-3.76 20.53 7.56 24.6 15.92 6.48 13.39 6.47 28.59 4.16 43.07z"></path><path d="M210.41 166.59c-1.29-5.6-2-11-1.2-16.72a24 24 0 0 1 1.88-6.2c1-2.35 5.27-8 8.75-3.34 5.28 7.11 3.25 19.84 0 27.29-.8 1.86 1.94 3.49 2.75 1.61a41.5 41.5 0 0 0 3.1-20.54c-.4-4.35-2.17-11.88-7.16-13.25-5.17-1.43-9.12 4.14-10.86 8.09-3.32 7.52-2.14 16.18-.36 23.9.46 2 3.53 1.15 3.07-.84z"></path></g><path d="M144.37 148.83a5.3 5.3 0 1 1-5.3-5.3 5.3 5.3 0 0 1 5.3 5.3z" fill="#007bc0"></path><path d="M141.63 148.83a2.57 2.57 0 1 1-2.56-2.56 2.56 2.56 0 0 1 2.56 2.56z" fill="#eff4f7"></path></g><g><path d="M61.19 246.28c-1.07-.94-22.08-.94-23.15 0s-1.39 7.63-.93 10.62c0 .24.09.46.13.66h24.55v.57a4.54 4.54 0 0 0 .33-1.23c.46-2.99.29-9.58-.93-10.62z" fill="#abddf8"></path><path d="M91.32 246.28c-1.07-.94-22.08-.94-23.15 0s-1.39 7.63-.92 10.62c0 .24.08.46.13.66h24.55v.57a5 5 0 0 0 .32-1.23c.46-2.99.29-9.58-.93-10.62z" fill="#abddf8"></path><path d="M121.45 246.28c-1.06-.94-22.08-.94-23.15 0s-1.39 7.63-.92 10.62c0 .24.08.46.13.66h24.55v.57a4.25 4.25 0 0 0 .32-1.23c.46-2.99.29-9.58-.93-10.62z" fill="#abddf8"></path><path d="M151.59 246.28c-1.07-.94-22.08-.94-23.15 0-1.22 1-1.39 7.63-.93 10.62 0 .24.08.46.13.66h24.55v.57a4.54 4.54 0 0 0 .33-1.23c.48-2.99.29-9.58-.93-10.62z" fill="#abddf8"></path><path d="M181.72 246.28c-1.07-.94-22.09-.94-23.15 0-1.22 1-1.39 7.63-.93 10.62 0 .24.08.46.13.66h24.55v.57a4.25 4.25 0 0 0 .32-1.23c.47-2.99.3-9.58-.92-10.62z" fill="#abddf8"></path><path d="M211.85 246.28c-1.07-.94-22.08-.94-23.15 0s-1.39 7.63-.93 10.62c0 .24.09.46.14.66h24.54v.57a4.54 4.54 0 0 0 .33-1.23c.46-2.99.29-9.58-.93-10.62z" fill="#abddf8"></path><path d="M242 246.28c-1.06-.94-22.08-.94-23.15 0s-1.39 7.63-.92 10.62c0 .24.08.46.13.66h24.55v.57a5 5 0 0 0 .32-1.23c.44-2.99.27-9.58-.93-10.62z" fill="#abddf8"></path><path d="M272.11 246.28c-1.06-.94-22.08-.94-23.15 0s-1.38 7.63-.92 10.62c0 .24.08.46.13.66h24.55v.57a4.25 4.25 0 0 0 .32-1.23c.46-2.99.29-9.58-.93-10.62z" fill="#abddf8"></path><path d="M302.25 246.28c-1.07-.94-22.08-.94-23.15 0-1.22 1-1.39 7.63-.93 10.62 0 .24.08.46.13.66h24.55v.57a4.61 4.61 0 0 0 .32-1.23c.46-2.99.29-9.58-.92-10.62z" fill="#abddf8"></path><path d="M332.38 246.28c-1.07-.94-22.08-.94-23.15 0-1.22 1-1.39 7.63-.92 10.62a4.06 4.06 0 0 0 .13.66H333v.57a4.54 4.54 0 0 0 .33-1.23c.44-2.99.26-9.58-.95-10.62z" fill="#abddf8"></path><path d="M362.51 246.28c-1.07-.94-22.08-.94-23.15 0-1.22 1-1.39 7.63-.93 10.62 0 .24.09.46.13.66h24.55v.57a4.54 4.54 0 0 0 .33-1.23c.46-2.99.29-9.58-.93-10.62z" fill="#abddf8"></path><path d="M25.25 252.53c1.36 8.55 3.21 15 5.47 18 13.57 20.27 319 20.27 332.51 0 2.27-3 4.12-9.49 5.48-18z" fill="#c8e7fa"></path><path d="M342.4 252.53a28.66 28.66 0 0 1-2.62 1.54c-10.39 5.39-24.1 9-36.71 11.94-30.57 7.19-62.91 10.74-95.49 12-34.71 1.37-69-.35-103.57-1.58-19.08-.68-38.16-.84-56.91.52 66 13.59 304.19 11.45 316.13-6.4 2.27-3 4.12-9.49 5.48-18z" fill="#abddf8"></path></g><path d="M39.6 263.6c11.52 0 23-.67 34.54-.68a1.8 1.8 0 0 0 0-3.6c-11.52 0-23 .67-34.54.68a1.8 1.8 0 0 0 0 3.6z" fill="#143960"></path><path d="M83.42 261.5a48.26 48.26 0 0 1 5.38-.5c1.88-.08 3.77-.08 5.65-.08a1.8 1.8 0 1 0 0-3.59 74 74 0 0 0-12 .74 1.8 1.8 0 0 0-1.25 2.21 1.85 1.85 0 0 0 2.21 1.26z" fill="#143960"></path></g></g></svg>