<svg xmlns="http://www.w3.org/2000/svg" width="169.74" height="189.82" viewBox="-0.0012226104736328125 0.0009002685546875 169.74258422851562 189.84909057617188" style=""><g><title>Corona129_357225978</title><g data-name="Layer 2"><path d="M22.19 31.93c-40.56 51.27-20 99.1 17.47 120l-6.08 37.92 38.76-27.45c35.38 4 74.18-14.23 92.36-67.37C196.23 2.77 71.51-30.44 22.19 31.93z" fill="#fff"></path><path d="M129.64 60.88c-3.49-10.26-15.8-15.49-24.94-14.75-7.66.75-15.51 6.34-19.83 13.43C80.54 52.47 72.7 46.88 65 46.13c-9.15-.74-21.45 4.49-24.94 14.75-4.5 14 4.48 28 12.3 37.68 7.15 8.77 21.32 21.38 32.47 22.14 11.14-.76 25.31-13.37 32.46-22.14 7.86-9.7 16.84-23.7 12.35-37.68z" fill="#eb604d"></path><path d="M7.06 101.37C5.42 88.9 8.84 76.68 13 65c.66-1.84-2.27-2.63-2.91-.81C5.84 76.1 2.36 88.66 4 101.37c.25 1.91 3.28 1.93 3 0z" fill="#143960"></path><path d="M14.11 59.84c1.12-1.84 2.12-3.84 3.42-5.56a1.54 1.54 0 0 0 .15-1.17 1.52 1.52 0 0 0-1.86-1.06 1.74 1.74 0 0 0-.9.7 61.1 61.1 0 0 0-3.42 5.57 1.52 1.52 0 0 0 .5 2.07 1.55 1.55 0 0 0 2.07-.55z" fill="#143960"></path><path d="M158.3 46.66c2.85 10.36 2.88 21.08 1.28 31.66-.29 1.9 2.63 2.72 2.92.8 1.68-11.12 1.71-22.36-1.29-33.27a1.51 1.51 0 0 0-2.91.81z" fill="#143960"></path><path d="M157.44 87.29c-.46 1.41-.81 2.86-1.28 4.27a1.52 1.52 0 0 0 1.05 1.86 1.55 1.55 0 0 0 1.87-1.06c.47-1.41.82-2.85 1.28-4.27a1.53 1.53 0 0 0-1.06-1.86 1.55 1.55 0 0 0-1.86 1.06z" fill="#143960"></path></g></g></svg>