<svg xmlns="http://www.w3.org/2000/svg" width="945" height="925.3" viewBox="0 0 945 925.3">
  <title>digital31_163914072</title>
  <g id="Layer_2" data-name="Layer 2">
    <g id="_163914072">
      <g id="digital31_163914072">
        <path d="M315,826.9H295.3C186.8,826.9,98.4,738.6,98.4,630V610.3h39.4V630c0,86.8,70.7,157.5,157.5,157.5H315Z" fill="#fff"/>
        <path d="M137.8,649.7H118.1V610.3h19.4a132.4,132.4,0,0,0,.3-14.3V506.5a132.4,132.4,0,0,0-.3-14.3H59.1a19.7,19.7,0,0,0-19.7,19.7v78.7H0V511.9a59.2,59.2,0,0,1,59.1-59.1h78.7c11.8,0,21.2,3.5,28.1,10.5,11.6,11.7,11.4,27.8,11.3,43.5v88.9c.1,15.7.3,31.8-11.3,43.5C159,646.2,149.6,649.7,137.8,649.7Z" fill="#fff"/>
        <path d="M413.4,925.3H334.7V885.9h78.7a19.7,19.7,0,0,0,19.7-19.6V787.8a132.4,132.4,0,0,0-14.3-.3H329.3a132.4,132.4,0,0,0-14.3.3v19.4H275.6V787.5c0-11.7,3.5-21.2,10.5-28.1,11.7-11.6,27.9-11.4,43.5-11.3h88.9c15.6-.1,31.9-.3,43.5,11.3,7,6.9,10.5,16.4,10.5,28.1v78.8A59.1,59.1,0,0,1,413.4,925.3Z" fill="#fff"/>
        <path d="M393.8,925.3H334.7C150.1,925.3,0,775.2,0,590.6v-59H39.4v59c0,162.9,132.5,295.3,295.3,295.3h59.1Z" fill="#fff"/>
        <path d="M374.1,697.2V531.6H354.4a98.6,98.6,0,0,1-98.5-98.5V98.4A98.6,98.6,0,0,1,354.4,0H846.6A98.6,98.6,0,0,1,945,98.4V433.1a98.6,98.6,0,0,1-98.4,98.5H539.7ZM354.4,39.4a59.1,59.1,0,0,0-59.1,59V433.1a59.2,59.2,0,0,0,59.1,59.1h59v110l110-110H846.6a59.1,59.1,0,0,0,59-59.1V98.4a59.1,59.1,0,0,0-59-59Z" fill="#ffa58d"/>
        <rect x="413.4" y="196.9" width="354.4" height="39.38" fill="#a8c9ec"/>
        <rect x="413.4" y="295.3" width="354.4" height="39.38" fill="#a8c9ec"/>
      </g>
    </g>
  </g>
</svg>
