<svg xmlns="http://www.w3.org/2000/svg" width="1001.2" height="675.8" viewBox="-0.00579071044921875 0.019611358642578125 1001.1646728515625 675.8336791992188" style=""><g><title>newarrow90_140672446</title><g fill="#d79922" data-name="Layer 2"><path d="M550.4 639.2c-.2-21.2.3-42.4 0-63.8a8.8 8.8 0 0 0-.8-3.3c-1.5-4.9-5.4-10.1-9.7-10.3-64.3-3.2-129-1-193.3.6s-130.6-9.6-194.6.8c-53.5 8.8-42.1-40-19.5-70.4 20.7-27.7 48.1-50.3 73.4-73.4 42.6-38.9 76.7-85.8 118-126.1-1.8 13.2-3.1 26.3-2.3 39.8.5 9.2 15.4 17.2 14.6 3.9a231.7 231.7 0 0 1 4.6-59.4l1-.9c2-1.8 2.1-4.7 1.2-7.7a107 107 0 0 1 3.7-11.3c4.7-11.7 3.8-24.4-6-33.1s-26 .4-36.2 1.7c-28.4 3.7-59.2 1.8-87.3-2.5-10.8-1.6-5.4 17.4 2.6 18.6 10.3 1.6 21.4 3.1 32.7 4.1-67 54.5-126.7 114.1-184 179.3C24.4 476-21.6 544.1 11 611.6s159 42.9 214 40.5c105.1-4.7 211.2-4.2 316.3-1.9 3.9 3.6 11.1-6.7 9.1-11zm-447.2-2.7c-40 .3-91.8-15.7-88.8-75.2 1.1-23 15.7-49 26.9-68.1 16.3-27.8 39.5-51.8 60.8-75.7a1371.4 1371.4 0 0 1 177.2-166.9 5.8 5.8 0 0 0 1.9-2.7c15 0 29.7-1.4 42.9-5.3 11.6-3.4 9.8-.4 6.3 8.4a41.6 41.6 0 0 0-2.6 11.6C261.2 321 202.5 391.4 140 454.3c-26.2 26.4-68 77.4-38.3 115.5 7.8 10 23.2 14.1 35.1 13.8 42-1.1 81.2-5.1 123.7-2.6 91.5 5.5 183.4-4.1 275.1-.6 0 17-.2 33.9 0 50.9-144.3-2.9-288.2 4.2-432.4 5.2z"></path><path d="M869 260.9c-3.5 17.7-3.7 36.8-8.1 54.3-25.3-45.2-57.1-82.8-91.2-123.1C724.8 139.1 682.5 82 632.1 34 528.2-65 428.9 77.4 351.3 142.6c-5.1 4.3-.8 15 4.3 18.1 6.4 9.6 14.1 17.8 22 26.3s18.6 17.6 23.8 28.8c2.4 5.1 6 6.5 8.8 5.6 2.3 1.4 4.6 1.6 6.4-.8a286.4 286.4 0 0 1 80.2-75.3c58-37 101.6-5.8 142.8 39.6 49.1 54.1 107.1 106.5 148.2 167.7-17.5-2.9-35.1-5.2-52.4-8.1-10.8-1.8-5.3 17.2 2.6 18.5 27.7 4.7 55.7 8.4 83.2 14.1 15.3 3.2 32.8 16.6 48.2 9.3 9.5-4.6 6.6-58.4 7.2-64.1 1.6-16.4 3.2-32.8 6.4-49 1.5-7.6-12-22.5-14-12.4zm-60.6 95.5l-3.1-.6c-27.1-42.7-63.3-79.5-97.6-116.5s-66.6-77.5-105.6-109.4c-70.6-57.8-150.2 11.4-194.6 70.7-11.3-16.7-28.8-29-40.2-45.6 33-28.3 64.2-58.7 96.9-87.3C483 51.2 501.3 37 523.1 25c53-29.3 94.4 12.6 127.8 49.5 72.9 80.1 156.8 163.7 206.2 261.1a74 74 0 0 0 1.1 19.9c4.4 22.5-40.1 2.9-49.8.9z"></path><path d="M903.7 393.6a11.7 11.7 0 0 0-5.2-4.8c-2.5-3.5-6-5.7-9-3.7-9.5 6.2-20.4 9.3-30.6 14a228.6 228.6 0 0 0-30.6 17.9 6.4 6.4 0 0 0-2.6 5.5c-.6 2-.3 4.6 1.7 7.8 14 21.6 27.5 43.4 39.5 66.2 12.8 21 31.3 63.3-11 67.3-12.4 1.2-25.9-1.8-38.1-3.1-49.1-5.2-97 3.3-146.2-1.7.6-.6 1.4-1 2-1.6 6.7-6.1 12.5-13.2 20.3-18s-2.3-22.5-9.6-17.9-10.8 8.3-15.7 13.3c-9.3 9.4-20.8 16.4-31 24.9-13 10.8-30.8 18.2-41.3 31.7-2.7 3.4-.7 9.6 2.6 13.6s4.9 6.2 8 6.3 9.2 7 11.7 9.1c6.8 5.7 13.9 11.1 20.9 16.6 13.7 11 29.9 22 41.6 35.1 9 10.1 15.6-2.5 8.4-10.6a181 181 0 0 0-17.9-17c59.9 5.4 120.2 10.5 180.2 9.9 36.3-.3 95.7 5.4 125.2-21.8 72.4-66.9-37.6-181.2-73.3-239zm70.1 214.8c-13.8 20-44.8 22.6-66.5 24.8-84.9 8.6-172.5-1.4-257-9a3.5 3.5 0 0 0-2.8.8l-7.9-6.1c-6.1-5-14.4-13.8-23.1-19.9 10.8-9.3 24.9-16.5 35.4-25.2l1.3-.9a7.8 7.8 0 0 0 4.1 2.5c44.5 7.6 87.8 7 132.8 4.4 29.4-1.7 64.5 10.1 91.8-3.6 45.6-22.9-17-113.5-38.3-144.8 8.1-5 16.7-9.3 24.9-14.3s18.4-7.5 27.2-12.2c20.7 33.3 42.4 65.9 63 99.3 19.3 31.3 42 65.2 15.1 104.2z"></path></g></g></svg>