<svg xmlns="http://www.w3.org/2000/svg" xmlns:xlink="http://www.w3.org/1999/xlink" width="1080" height="1104.9" viewBox="0 0 1080 1104.9">
  <defs>
    <linearGradient id="Безымянный_градиент_1054" data-name="Безымянный градиент 1054" y1="552.45" x2="1080" y2="552.45" gradientUnits="userSpaceOnUse">
      <stop offset="0" stop-color="#ce0059"/>
      <stop offset="1" stop-color="#e18077"/>
    </linearGradient>
  </defs>
  <title>Brush02_8829525</title>
  <g id="Слой_2" data-name="Слой 2">
    <g id="Brush02_8829525">
      <path id="Brush02_8829525-2" data-name="Brush02_8829525" d="M867.4,214.6c-2,1.9-15.3,2.5-7,9.2l7.6-4.5c-.3,6.6,3.2,10.3,8.3,4.1l-4-9.3ZM577,93.6c.3,4.8,6.6,13.2,7.2,14.4,6.1-.3,21.2-.8,14.6-12.5C594.5,87.8,576.7,89.6,577,93.6ZM819.6,223.7c1.4,12.9,14.3,19.3,22.8,28.8,1.7-7-12.2-31.6,7-23.2,4.9,2.1-4.9-18.1-13.2-25.1-1.5,7.3,6.3,16.8-7,10.4C826.1,213.1,824.1,221.6,819.6,223.7Zm0,0c.9-2.9,1.6-11.8,2.6-14.4,4.5-11.4-12.9-14.1-22.3-23.5-36.5-36.7-97.6-65.7-158.9-84.6-.5,1.3,3.4-12.8,4.5-18.2.7-3.4-16.8-3.3-16-2,14.3,21.6-15.6,11.9-20.9,14.1l4.9,19.4c12.6-4.7,27.7-7,42.6-2.9s28.1,18,40,25.8c39.3,25.4,78.3,36.4,104.1,75.9.3-16.1,9.3-1.9,9.2.1C809.3,225.3,814.2,230.5,819.6,223.7Zm192.3,166.2c-5.5-40.3-24.2-70.7-43.4-103.7-3.3-5.6-17.7-8-31-17,20.6,59.7,46.5,109.7,68,165C1021.3,424.5,1013.8,404.1,1011.9,389.9ZM222.1,794.4c-4.6,2.1-11.1,10.5-7.5,15.6,9.7,14.2,18.2-4.1,12.9,17.9-4.2,17.2-5.4,34.1-8.8,55.1-1.7,10.7-21.6,3-32.9,16.5,11.9,12.8,32.6,33.3,29.2,50.5,16-9.3,20.6,11.2,23,19.1,8.6,27.6,38.9,50.9,73.4,49.5,9.7-19.6,13.7,8.6,16.1,11.8,14.5,19,33.4,27.2,57.8,38.7,2.3-6.9-12.2-20.2-6.4-34.3,34.6,34.4,90.1,62.6,153.8,52.9,6.6-1,4.5-16.6,16-11.9,29.8,12.3,56.4,3.2,83.5.4,11.3-1.1,2.8,7.1-1.3,8.3-103.6,30.4-253.6,30-327.2-23.1-15.7-11.3-35.4,9-46.6-6.3-4.4-5.9-5.8-13.6-9.7-19-16.3,4.3-23-18.1-36.1-27.1C73.3,913.8-36.5,720.1,11.4,479.3c8.2-41,16.2-80.4,28.5-117.6C108.5,154,263,24.4,520.8,2.8c305.7-25.5,475.7,126.3,550.8,343.8,32.9,175.8-36.7,326.9-106.9,417.4-22,52.4-34.3,97.7-59.2,132.5-43.2,60.3-86.7,123.5-160.4,150.1-8.5,3.1-19.9-7-26-5.3-16.4,4.4-31.3,12-41.5,24v-19.9c-20-6.8-41.1-4.8-62.3-4.4,6.5-13.2-8.2-15.6-14.2-20.6-9.6-8.1-23.8-12.2-31.6-14.3,17.7-28.5,50.6-38.2,88.4-44.1-10.4-7.7-19.4-15.8-19.8-2.9-4.9-2.6-16.6-7.4-10.6-13.6s15.1-6.5,17.2-13.9c-34.8-1.7-63.3,11.4-80.8,27.7-4.7-10.3,5.6-18.4,12.9-21.7,135.6-60.9,255.8-141.6,309.9-286C912.1,445,798.8,301.1,630,259.5,463.2,202.7,303,277,198.7,350.9c-56.5,144.9-8.2,326.7,53.8,428.4,6.1,10.1,12.1,20.8,10.9,33.7-10.4-6-18.9-28-37.2-19.1Z" fill="url(#Безымянный_градиент_1054)"/>
    </g>
  </g>
</svg>
