<svg xmlns="http://www.w3.org/2000/svg" xmlns:xlink="http://www.w3.org/1999/xlink" width="1080" height="1011.1" viewBox="0 0 1080 1011.1">
  <defs>
    <linearGradient id="Безымянный_градиент_1872" data-name="Безымянный градиент 1872" x1="15.21" y1="505.54" x2="1102.03" y2="505.54" gradientUnits="userSpaceOnUse">
      <stop offset="0" stop-color="#fb8e00"/>
      <stop offset="1" stop-color="#f536bf"/>
    </linearGradient>
  </defs>
  <title>AmorphousShapes33 _166363968</title>
  <g id="Слой_2" data-name="Слой 2">
    <g id="AmorphousShapes33__166363968" data-name="AmorphousShapes33 _166363968">
      <g id="AmorphousShapes33__166363968-2" data-name="AmorphousShapes33 _166363968">
        <path d="M1064.2,605.7c-3-7.5-6.7-17.3-12.9-23.5,27.4-96.9,16.5-197.1-32.1-283.1-7.6,15.8-15.3,31.5-25,46-3.9,5.9-14.9,2.2-12.1-5.1,7.5-19.5,18-37.7,28-56.1-3.5-5.6-7.2-11.1-11.1-16.6l-6,11.9c-18.5,36.4-37.9,72.1-59,107-2.9,4.7-9.5.6-7.3-4.2,16.8-36.4,35-71.9,54.4-106.9l10.1-18.4-4.7-6.1c-1-1.5-3.1-4.3-6.5-8.5-15,28.2-29.7,56.4-48,82.7-4.5,6.5-13.5,1-10.4-6.1,13.6-30.8,31-59.6,47.9-88.6l-3.3-3.7a314.3,314.3,0,0,0-27.3-26l-1-.9C865.6,135.8,765.2,94.3,666.6,72.4,252.8-19.1-5.6,300.6,21.8,302.7c6.5.5,39.3-36,58.7-53.2C180.1,161.2,311.1,109,434.5,95-34.6,208.5-138.8,707,195.2,896.3,268.6,937.8,367,975.5,548,988.6c56.3,4.1,112.3-3.4,165.4-13.6,175.2-33.5,151.1-72.1,133.2-70.1-37,4.1-112.9,44.6-251.3,52.9,151-27.9,278.3-104.2,362.2-203.3C984,783.1,987,820.9,974,854.4a171.1,171.1,0,0,0-11.8,17c-9,14.8,8.4,29,22.3,22.3C1037.5,868.2,1113.2,729.5,1064.2,605.7ZM1039,618.8a6.9,6.9,0,0,1,.5-1.3c0,.2.1.5.1.7ZM270.5,991.3C215.5,1018,45.1,902,57.8,831.6c2.7-15.3,25.4,23.8,44.1,46.7,72,88.2,151.8,82.8,168.6,95.2C276.2,977.6,278.2,987.6,270.5,991.3Zm-89.3,19.1c-34.4,5.6-82.7-23.4-107.3-49C53.2,940,51,908.5,88.1,944.1c41.1,39.5,79.1,39.6,95.6,46.9C191.9,994.6,189.9,1008.9,181.2,1010.4ZM735.7,8.4c18.7-19.1,98.4-2.3,120.1,17.5,6.7,6.2-.4,17.3-8.7,15-19.6-5.5-36.2-14.5-56.6-18.3C780.9,20.8,724.9,19.4,735.7,8.4ZM696.2,42.6c1.9-21.7,159.7,5.5,197.2,57.9,6.3,8.8-5.5,17-13.4,13.3-22.7-10.5-52.5-47.3-137.3-61.5C728.4,49.9,695.5,51.1,696.2,42.6Z" fill="url(#Безымянный_градиент_1872)"/>
        <path d="M203,289.2c-.4.3-.8-.2-.7-.6,8-18.3,23.9-34.1,38.1-47.8a440.5,440.5,0,0,1,48.1-40.3c17.3-12.5,37.3-21.1,56.7-29.5a224.8,224.8,0,0,1,30.9-10.5c9.8-2.7,18.9-5.6,28.5-1.1,5.8,2.7,7.6,11,3.1,15.8-7.3,7.9-17.3,8.4-27.3,10.9s-18.4,5-27.5,7.7c-19.2,5.7-36.7,14.8-54.8,23.4a255,255,0,0,0-50.5,31.7c-15.6,12.5-28.8,28.2-44.6,40.3Zm236.4-130,1.1,1.9c6.2,10.7,24.8,4.5,23.3-7.9a14.9,14.9,0,0,1-.2-2.1c-2.7-21.6-35.2-10.8-24.2,8.1ZM210.9,821.7c4.1,14,13.4,25.4,23.5,35.7,11.9,12.1,23.3,22.7,37.8,32s27.6,16.2,43.3,21.6,32.8,11.6,48.7,8.5c9.2-1.9,11.3-16.5,2.7-20.7-13.2-6.3-29-6.7-43-11.1s-28.3-9.6-41.2-16.3-27.1-14.7-38.4-23.9-20.6-19-32.4-26.6a.7.7,0,0,0-1,.8Zm200.2,87.2-1.2-1.1c-2.4-2-6.1-3-9-1.1l-1.1.7a9.5,9.5,0,0,0-4.5,9.3,9.3,9.3,0,0,0,17.3,3.5,9.7,9.7,0,0,0,1.2-4.7,9,9,0,0,0-2.7-6.6ZM438.5,929c14.5,0,14.5-22.6,0-22.6s-14.6,22.6,0,22.6Z" fill="#fff"/>
      </g>
    </g>
  </g>
</svg>
