<svg xmlns="http://www.w3.org/2000/svg" xmlns:xlink="http://www.w3.org/1999/xlink" width="1080" height="571.6" viewBox="0 0 1080 571.6">
  <defs>
    <linearGradient id="Безымянный_градиент_45" data-name="Безымянный градиент 45" y1="285.79" x2="1080" y2="285.79" gradientUnits="userSpaceOnUse">
      <stop offset="0" stop-color="#f06217"/>
      <stop offset="1" stop-color="#0b486b"/>
    </linearGradient>
  </defs>
  <title>Brush18_8829525</title>
  <g id="Слой_2" data-name="Слой 2">
    <g id="Brush18_8829525">
      <path id="Brush18_8829525-2" data-name="Brush18_8829525" d="M551,299.7c-6.1,3.7-7,12.6-10.3,19.3s-7.4,17.6-11.2,25.2-9.2,16.5-11.7,24.5c.8,26.7,2.7,56.1,2.8,82.6.1,1.7-3.1.7-3.6-1.8-.2-.7,0-2.5-.6-4.2s2.4-1.1.4-2.1c1.3-4.8,1.3-11.6-1-15.7,1.6-.9,1.2-3.2,1-5-1.4-13.3-.6-26.3-1.7-39.8-.2-3.1-1.3.7-1.5,1.4-3.9,11.2-10,22.1-13.6,33.1-.4,1.1-4.3,2.6-3.6.8l14.8-39.7c1.1-3.1,3.9-5.4,4.1-8.7s-.5-8.9-.1-13.1c.2-2.1,1.6-.9,2,.1s-.6,3.1.3,4.9c2.3-7.4,5.6-15.7,9.8-21.6,4.9-3.7,5.8-11.5,8.7-17.4.4-.9,2.2-3.4-.5-4.4,1.3-2.4,3.2-4.9,2.2-8.7,2.3.7,2.5-2.4,3.7-4.3,3.7-6.1,8.3-11.8,8.7-21.2a23.8,23.8,0,0,1-6.8-6.6,59.9,59.9,0,0,0-4,14c-.1.6,2.4,1.5,1.6,3.2s-2.5,2.4-3.1,1.8-.9-3.7-2.3-4.4c-5,9.9-11.8,20.9-17.2,32.3,0,0-1.4,3.2-4.3,2.1.1-1.6-.2-3.6.7-4.7A159.7,159.7,0,0,0,533,289.8c.7-1.7,0-3.7-1.2-5.4-3.8.6-3,5.3-5.4,6.5s-3.5-1.9-2.8-3.7c2.8.1,5-4.1,5.8-7s-1.6-4.9-2.8-7.5a16.2,16.2,0,0,0-6.1,5.7c-.2-3,2.7-5.8,3.7-8.1-1.7,0-3.8-.7-4.2.6a39.3,39.3,0,0,0-1.9,8.9c-.1,1.3-3.7,2.6-3.5,4.2,1.3,10.7,2.8,24.2.3,36.7-1-7.4-2.3-16.5-1.9-24.6.1-1.7-1.1-6.9-1.6-8.5s-1.6-1.3-1.6.3c-2.7,1.1-3.7,3.7-5.7,5.7-1.4-.7-2,.3-2.2,1.3s-2,3.2-3.8,2.4.2-2.6,1.1-3.3,3.8-2.4,3.1-4.5c4.8-1.8,10.2-4.8,9-12.6A7.5,7.5,0,0,0,509,273c-1.7-1.5-3.5.5-4.7,2.1s-1.7,3.9-4,5c-.2-3.7,3.7-6,2.4-9-.5-1.1-1.1-4-2.6-3.2s-2.3,4.1-3.6,4.7-4.6,1.2-4.3-1.3c.2-.9.4-4.3-1.4-2.9-5.2,4-13.1,8.1-16.9,16.4-.1.4-.8,2.4,0,3.9A92.4,92.4,0,0,0,486,307.5a3.5,3.5,0,0,1-1.5,5.6,3.2,3.2,0,0,1-3.7-1.2c-3.8-5.7-4.6-13.4-9.5-19.1-1.2-1.3-2.1-5-3-3.6-8.5,13.9-16,28.6-25.8,40.6,8.3.2,15.5,1.4,23,2.1a4.1,4.1,0,0,1,2.7,1.5c-8.3.7-17.6-1.1-26.4-1.7-4.8,5.8-7.2,12.4-12.3,19.6a2.7,2.7,0,0,1-1.7,1.7c-2,.9-2.9-1.7-2.5-3.3s4.1-1.6,3.8-4.7c2.9-2.1,6.3-7.3,8.2-12.4-32-.4-69.3-3.6-101.2-.3-1.8.2-4.5-.3-5-2.9s.3-2.9.9-2.9c36.6.8,70.4-.1,107,2.5,2.6.2,4.3-4.7,6-8.2.5-.8,1-2.8,1.8-4,6.9-10.8,14.1-21.2,19.7-32.5-3.8-5.3-5.5-11.4-10.5-16.2-6.8,4.3-12.1,9.8-19,14.5-2.3,1.6-5.2,3.9-8.1,4.7-2.6-2.8,1.2-5,2.8-6,3.1-1.8,7.3-4.2,5-9.1s-2.2-10.8-3-17.2-4.4-9.9-7.5-13.6c-1.5,2.1-4,6.1-3.6,10-4.5,6.1-5,13-6.9,19.7-1.1,3.8-1,7.8-3.6,9.8s-3.2-.5-3.1-2.3c.2-5.5,1.9-10.1,2.6-14.4.3-2.2-4.5-3.3-6.9-1.9s-2.6,5-2.9,6c-3.5-.3-5.3,3.8-7.8,6a30.2,30.2,0,0,1,8.2-16.2c1.5-1.6-2.8-3.3-.8-5.7-1.2-.5-2-1.7-3.8-2.1-2,3-3.5,7.7-7.1,9-1.4.6-2.9-1.2-2.3-2.9,1.2-3.3,4.7-4.4,6.5-8-1.9-3-5.6-6.1-8.3-9.1-1.3,1.8-3.9,1.3-5.8,1.2,1.2,2.2.7,5.6,2.8,7.5-2.3,1.1-2.3-2.3-3.7-3.2.8-2.4-2.1-4.3-4-5.1s-3.5,1-4.7,1.2c-3.6.4-5.7,4.9-5.7,9.1-1.8,0-2.8-1.1-3.1,1.5-1.5.3-4.1-2.2-6.7-.5s-6.5,6.9-8.4,11.9c-4,10.5-7.7,23.7-12.6,33.7,3.6-12.7,8-25.2,12-37.6-2.3-1.4-1.3-4.5-1.1-4.8,3.8-4,4.4-9.1,5.6-14.7.4-1.7,1.6-4.8.7-5.9s-2.4,1.4-3,1.1a8,8,0,0,1-2.9-2.2,1.7,1.7,0,0,1-2.9,1.2,2.2,2.2,0,0,0-3.5.6c-.9,2.2-.2,6.2-2.5,8.5v-6.1c-1.6-.8-2.9.9-3.6,2.7s-1.8,4.2-3.6,5.6l-17.8,18.5a2,2,0,0,1-3.7-.9c0-2.7,3.1-2.8,3.8-5.4,1.4.9,2.1-.8.3-1.2a6.4,6.4,0,0,1,3-3.5c.5.4,1.1,2.6,2.4,1.1a226.5,226.5,0,0,0,17.4-24.1c.6-.9.2-4.8-2.8-3.2-6.8,3.4-14.9,7.4-23,10a69.6,69.6,0,0,0-10.5,11.1c-1.9,2.5-4.3-.1-3.4-1.2,5.6-6.4,11.7-13.3,19.6-17.4,1-.5,1.9-2.1,2.7-3.5-2.1-1.8-6.8-.7-9.7-1.6-7-2-11.3,2.6-14.6,4.9-1.5,1-4,0-4.7,0-.8-2.8,2.4-3.9,3.9-4.3a32.2,32.2,0,0,0,15.6-9.1c-2.9-1.4-6,1.5-8.9,2.4a51,51,0,0,0-5.8,2.6c-1.5.9-3.5-1.2-2.8-2.8s2.1-2.4,3.6-1.9c3,.9,5.3-3.2,7.5-3.5-1.2-.6-.6-2.6.9-3.1,3.1-.9,7.3-2.1,7.7-6.2.1-.6.2-1.7-.2-2-2.9-1.6-8-1.8-10.5-5s-4.2,3.8-7.9,3.6c0-3.9,3.9-4.7,6.4-7.3-7.5.1-13.3,1.7-17.9-2.2.5-.5,2.2-2.8,2.9-2.8a76,76,0,0,1,18.8,2.7c1.6-2.4,4.5-2,5.1-4.4s-2.8-5.7-.1-6.7,5.9.5,9-.5c-.9-1.8-.9-4.3-.8-6.4s1.3-1.3,1.7-2.4-3.1.4-2.3-.5-1.1-1.3-1.6-1.4c-2.5-.6-5.1,1.9-7.9,1.4v-3.5a19.5,19.5,0,0,0,9.8-2.8c.1,2.9,2-.2,2.3-.8s-.5-2-1.3-2c-2.7-.2-4.1-2.6-6.1-3.7s-3.3.5-3.5-1.8c-3-1.2-2-4.3-4.6-5.2s-6.3-1.3-9.4-1.8c-.4-.1-1.6,2.3-2.2.3-1.6-.3-2.9-2.8-1.6-4.2s3,1.3,4.6.9c.4-2.6,2.4-1.5,3.5-.8s6.2,2,5.9-2c-.2-1.6-1.3-3.5-3-3.6s-5.2.5-7.9-1.2-1.4-2.9-.8-5,3,.2,4.7.4a24.1,24.1,0,0,1,7,2.4,6,6,0,0,0,8-2.4c-1.2.7-4.7-3.3-2.3-3.7s6.1-.3,9.9-.4a3.8,3.8,0,0,0-1.7-4.6c-1.6-.9-3.9-2.2-3.3-3.6s1.8-2.1,2.8-1.8,3.6,2,5.3,2.4c1.1-2.1,4.8-1.1,4-2.8a62.2,62.2,0,0,1-4.3-15.6c-.3-1.8,3.5.2,3.9,1.8s1.7,3.9,2.5,5.9c5-8.7,14.3-13.3,20.5-21.4v2.9c-1.9-.1-3,1.9-3.9,3.2h3.2a3.6,3.6,0,0,1,.7-3.2c1.9-.3,3.6.6,5,.3,3.2-.7,1.5-4.7,3.1-4a8.6,8.6,0,0,0,4.4.9c6.5-1.6,11.1-1.4,18.8-1-1.8-3.9-10.5-2.2-14.3-2.5-.1-2.6,2.7-3,4.3-2.9,8,.4,13.7,1.2,21.8,1.3.1-2.3,1.7-1.1,2.1-.2l81.4,4.2c2,.1,6-3.5,7.4-4.9s2.6-5.8.5-6.1a13.2,13.2,0,0,1-5.2-2.4c3.5-3.6,8.8-6.7,12.5-10-.4-.9,1.6-2.3-.2-3.2s-4.7,1.4-7.3-.3-8.8-3.5-13.1-5.6a54.5,54.5,0,0,0-8.7-2.3c-.2-1,.4-3,1.4-2.7,11.3,4.2,24.1,7.1,36.6,9.9,4.6,1,5.1-2.6,7.7-3.8,5.5-2.8,14.1-2,21.4-2.4L507.2,25.1c-1.5-2,.9-3.8,2.3-4.2,7.1,11.1,13.7,21.5,21.3,31.9,1.3,1.8,3.5-.1,5,.2,3-7,8.5-12.4,17.2-12.2,5.3-2.5,11.9-3.7,17.2-2.9,2.5.4,5.4-2.3,4.8-3.3-2.2-3.7-.5-9.6,4.6-10.2,2.1-3.4-.2-7.8,2.3-10.9.9-1.2,2.8-2,3.6-1.5,4.4,3.2,6,9.6,5.6,16.7,3,1.2,1,4.9,4.1,4.7a4.5,4.5,0,0,0,4-3.3c1-4,.7-8.9.6-13.4,0-1.2,1.9-2.6,3-2.9s3.3-1,3.8.5c1.4,3.8,1.6,8.1,3,12,.9,2.4,3.8.9,5.2.2s4.4-2.5,4.8-5c2.2-.5,3.4,1.7,3.1,3.2s-.8,3.2.5,4.1a15.4,15.4,0,0,1,7.1,10,3.5,3.5,0,0,0,3.7-1c3.1-3,4.4-8.4,8.2-9.8,1.8-.7,2.1,2.3,1.9,3.6s-1.9,3.2-3,4.7,0,2.9,0,3.9c-2-1.1-2.7.6-2.2,2.2,1,3.3,4.1,1.5,5.4,1.2l14.9-3.1c2.4-.5,3.5-6.5,7.6-6.4L646.3,3.5c-.8-1.1-2.1-1.7-1.4-2.9s2.7.7,2.7.8C655.2,11.9,661,22.3,668.4,32c1.3-1.8,3.4-1.9,5.3-1.6-.3,1.7-1.2,3.9-3.3,4.6,4.1,5.8,8.2,11.7,10.8,18.4-5.1-5.1-8.9-10.7-12.8-15.9C659.5,43.3,652,51.5,645,59c-2.1,2.2-3.5,6.6-2.7,8.7a16.7,16.7,0,0,1-.9,12.4c3,3.4,1,8.4,2.8,10.3,8.7,1,14.1,5.4,17.4,10.4,5.1,7.7,12,13.9,17.5,21.1-5-2.8-8.7-7-13.4-10.1-.4,1.8-2.8,2.7-1.9,4.1s1.8,1.5,2.8,2.6c-.1-1.6,1.4-2.2,2.3-1.4,3.7,3.3,7,6.7,10.8,9a1.9,1.9,0,0,1-.6,2.8c-2.9,1.2-5.2,4.2-8.5,3.9l-.5-1c-.5-4-4.5-6.6-7.5-8.5a16.9,16.9,0,0,1-2.7,3.2c1.8,2.4,6,2.6,8.4,5a4.2,4.2,0,0,0,1.8.3l.5,1c1.7,3.1,4.8.1,5.8,2.1s1.5,4,1.2,5.6c-2.5.8-4.6-.5-6.1-2.3l-2.9-3.3c-.1,1.9-2.3,3.4-3.3,2.2s-3.5,1.4-5.5.5v3.9a19.9,19.9,0,0,0,5.5.3c-2.8,2.9-2.8,7-2,11.5.4,2.2-1.3,2.6-2.4.7-.2-.4-1-.5-1.2-.5l-.7-.9.7.9c.4,1.3-.3,2.1-1.4,2.9s-3.3-1.8-5.1-2.5c.5,2.1,1.7,4.7-1.9,7,3-8.7-1.4-14.4-7.1-15.8-1.3-.4-3.3.1-3.4-2s.1-2.9-.9-4.1c-.8.6-1.3,2.2-1.9,3.3.1-1.7,1.3-3.4.9-4.5s-2.4-2.9-4-3.5a17.6,17.6,0,0,0,2.4,7.2l.7.8c0,.8-1.6,2.5-2.4.8s-.9-5.4-2.5-7.2l.3,4.8h-3.6c-.1-4.1-3.7-6.3-5.7-9.3-.4-.6-.5,1.3-.4,1.6s-2,9.2,1.1,11.2c4.8,3,3.8,9.9,2.8,17.2-.1,1.3.5,5.5.2,6.4s-2.2,3.2-3,1.1c-2.7-8.3-4.1-16.3-7.4-25.7a5.7,5.7,0,0,0-2.4-2.1c1,8.7,4.2,14.9,5.5,23.3.1.7,1.7,1.6,1.1,3.7-.2.4-1.5,3.2-2.2,1.1s-1.7-5.5-3.6-6.7a3.2,3.2,0,0,0,.2-4.3c-2-2.8-.5-7.1-2.2-10.1-.5-.9-2.3-.7-2.9-1.8-1.1.6-3,.8-2.9,1.9.1,4.3-1.4,7.7-1.6,11.2-.5,7.8-1.4,19.2-1.2,28.2a7.9,7.9,0,0,1,6.2,4.1c.8,1.8-.6,3.8-.2,5.6s2.5,2.4,2.8,3.1-.2,3.1.1,3.6c1.2,2.1,3.6.7,4.6-.2s4.2-5.5,7.2-4a10.3,10.3,0,0,1,2.5,2.8L617.9,217c3.6,6.7,1.9,15.6.3,21.4-.5,2,2.6,5.4-.1,5.8s-3.8,0-5.5.5a25.5,25.5,0,0,0,0,11c0,.1,1.9,1.2.3,2.2s-1.9-2.4-3.9-3.2l.7,17.4c2.4,4,.3,9.9,1.1,13.6-.7,8.3,1.7,14.3,1.7,16-.1,3.2,0,5.8-2.1,6.9s-1.6-1.8-1.6-2.8l-2.2-38.5c-2.7.1-5.9-1-9.3-1.1.9-1.3-.2-3.5-.9-1.1-2.2,7.9,3.9,12.9,6.7,15.4s-.6,6.7-3.2,5.7-2.2-5.9-4.1-8.1c-.4-.6-1.1-.6-1.3-.7s-1.5-2.5-3-2.3c-3.3-.9-1.3-4.8-3.7-5.9-.5,2.5.6,6.6,3.7,5.9.6,1.1,1.6,2.4,3,2.3s-.1,3.3-1.8,3.2c-4-.1-9.4-2.3-13.8-.5-2.2,4-2.5,8.7-4.3,12.4-.6,1.1-3.2-1.3-3.4-2.4-1-4.3-2.9,2.5-3.2,3.1s-2.6,1.9-2.2-.2a84.9,84.9,0,0,1,5.2-17.8c-2.9-2.9-6.6-4.2-10.9-4.8C557.2,280.1,553.3,288.8,551,299.7ZM119.3,319.2c5.7-9.4,12.2-18.8,16.9-29.3.5-1,2,.6,2.4,1.1A180.7,180.7,0,0,0,126,313.9c2.3,2.3,6,.4,8.4-1.1s4.8-.1,6.3-2.7c.9,1.1,1.3.5.6-1.5.7.7,3.7-1.3,3.7-4a25.8,25.8,0,0,0-2.7-12.4c-1.1-2.2.7-5.2,1.8-7.6s2-.7,3.1-.7l6.1,14.4c1.2,2.6,4.1,1.4,5.7,3.9,1.9-3.2,1.4-7.3,3.9-10.2,2.2.5,2.7,2.9,2.7,4.7s1.5,1.5,1.6,1.5c5.6-.4,10.8-2.9,13.5-6.4,1.7-2,5.7-3.3,4.4-6.4-7.3-17.6-14-35.4-18.8-52.9-5.9-5.2-7-13.7-9.6-20.1s-5.4-12.1-9.7-16.4c1.6-2.9.3-6-.1-7.6-3.8-13.3-8.7-26.5-13-38.6,2.4-1.3,3,1.1,3.4,2.3,1.5,4.5,2.6,10.2,4.4,11.7,3.1,7.9,5.1,14.8,7.1,20.4s6.1,8.3,7.2,12.8c6.9,12.5,14.9,26,17.8,43,3.3.4.1,3.4,2.3,3.5s2,1.2,2,1.5c.6,3.5-2.2,8,2.2,9.4-1.2.8-.4,2.8-.4,4.3,0,5.4,3.4,9.2,5.9,15.9,2.8,2.9,5.3,7.7,7.9,12.4,1.3,2.2,3.2.7,4.2-.1s4.3-4.3,5.5-4.8,3.1.8,2.3,2.4c.9,0,2.8.6,2.5-.6-1.6-9-5.7-18.9-3.4-28.7-.5-6.9-.3-15.1-4.8-19.4-.6-.7.3-4,.3-6a4.9,4.9,0,0,1,6.3,4.4c.1,9,1.6,17.4,3.4,27.2-.7,3.6,1.2,7.5.4,11.3-.4,1.9-2.7-1.7-1.9,1.5s1.5,7.1,4,10.6c4.5-1.8,9.3-4.5,15.3-2.8,2.2.6,4.5-2.4,5.7-4.4s-.5-5,1.1-7.8c-2.2-.2-.7-1.6-.6-2.5.7-5.8-.3-10.7,2.4-14.6,1.6-2.4,6.3-3.8,9.1-2.2s.2,6.9,1.3,10.8c-2.1,1.5-4.9,4.8-4.1,8.6-2.2.2-2.1,1.9-1.8,3.2,1,3.2-2.4,6.3-.6,9.2s6.9,3.7,8.4.5,3.4-3.8,4.6-7.3c-3.3-2.8-.2-8-.1-8.8.2-4.9,4.7-6.8,9.6-6.7,2.2.1,3.2,5,2.8,7.2-1,5.7-4.6,8.4-7.8,11.6,1.2,3.8-3.3,3.6-2.9,6.7,1.9.8.6,1.5.5,1.6-1.6,2.1-2.8,5.3-.6,5.7,5.8,1.2,10-1.3,16.1-1.4,2.2-.1,3,3.6,5.5,3-.4.5-1,2.5.6,3.1s1.3-1.6.3-2.1a5.5,5.5,0,0,0,5-5.8c1.3.6,2.1-2.3,2.8-3.5L301,258.9c.4-.6,2.4-2.2,1.4.1-5.8,12.4-12.7,24.4-18.8,36,3.7,1.1,8.5,2,9.4-2.5,2.5.2,5.3,1.1,6.1,3s-.2,2.4-.3,3.8c1.7-1.1,3.9.7,3.2,1.8s2.5,2.3,4.3,2.5c-.6,1.5-1.6,2.9-.1,4.1s5.3,5,1.5,7.2c0,1.5,1.7,2,2.7,1.6s.3,3.1-.5,2.3-2.2.9-1.8,1.6c-2.6,2.6-.7,5.8-.4,8.8-1.5.6-4.6,2.9-2.4,3.5s2.5,3.5,4.3,5.4a4.1,4.1,0,0,1,.9,3.5c-1.3-.6-2-3.3-4-2s-2,2.3-2.6.9-5.6,1.9-6.8,3.9.1,4.1,2.4,4.1c.5,0,2.8-1.9,2.5.5-.6,4.3-3.8,8.7-6.6,8.8-4.8,5.1-9.8,7.8-12.8,11.9-1.2,1.6-6,1.2-7.2,2-5,3-11.6,4-15.3,8.1-1.6,1.9-.8,4.9-.1,7.3-3.3-.8-3.6-5.9-4.9-5.7-6.6,1.2-11.2,5-12.6,11,1.1,3.7,3.3,6.5,4.1,9.7.4,1.4-2.3,3.5-4,2.3s-3.6-3.9-5.5-5.3c-3.5,3.8-5.4,7.1-3.6,12.9l16.5,8.3a3.1,3.1,0,0,1,1.4,3.8c-6-.5-10.7-3.7-15.4-5.5-3-1.1-4.7,1.5-6.6,2.2,1.4,14.5-1.5,28.3-1,42.1.2,4.5-.8,8-.6,11s2.9,6.6,5.3,8.9c-1,1.8.9,2,1.6,1.7.8,3.5,5.5,5.7,5.1,9.8-.1,2.1-3.2,1.8-4,.3s-5.3-2.7-5.8-7-4-5.1-5.9-8c-6-9.5-11.3-21.7-19.9-29a5.1,5.1,0,0,0-3-1.3c-3.8,12.9-8,25.6-11,38.6-.3,1.4-2.9.1-2.5-.9,5.2-13.5,7.9-28,11.3-43.6-5.7-6.3-11.8-12.2-18.3-18.2-.9-.8-2.9,1.2-1.6,3.1s2,2.8.2,3.8-1.9,1.3-2.7,1.3c-.1-2.8-3.2-4.3-3.5-6.9-3.8,1.1-1.9-4.5-2.6-5.8s-3.5-3.7-4.6-4.9c-5.1,3.7-7.7,12-7.6,20.3-1.8-.5-2.3,2.1-2.1,3.9s-2.1,3.7-3.2,5-2.1,0-2.1-.4c1.1-9.2,4.2-17.6,5.7-25.2.3-1.3-2.6-3.8-3.2-2.9-3,5.4-9,7.1-11.5,12.1l-16.5,31.9c-2.9,2.5-5,7.8-6.7,13.3-1.6.2-2.7,2.4-2.5,4.4s2.4,2.8-.7,2.8-2.1,4.2-4.2,3.5-2.8-4.6-.8-6.9,3.2-2.7,4.4-4.8a290.1,290.1,0,0,0,20.7-45.1c.8-2.2-2.9-3-2.1-5.9-3.1.9-5.7,4-7.5,6.9-3.1,5-8.2,8.6-10.6,14.6,1.1.4,3.2,1.2,1.8,2.7-1.2-1.9-4.1-1-4.7,1s-3,.6-3.6-.6c-1.6-3.4.7-6.4,3-8.6a102.3,102.3,0,0,0,18.2-24.3c1.6-2.9-5.7-1.7-8-2.7s-3-3.5-2.2-6.6c-8.4.3-14.8,4-21.1,5.8-2,3.4-3.6,8.6.1,10.7,1.9,3.2,5.4,5.3,8.1,8.2a4.5,4.5,0,0,1,.8,3.6c-3.7-4.2-7.5-9.1-13.1-11.9a2,2,0,0,1-1.7,2.7c-1.6-2.1-1.2,2.2-.3,1.8.5,1.8,2.3,2.5,2.2,4.1-1.8.9-3.3-.8-3.6-2.5s-1.7-.3-.2,1.8c-2.7-1.4-3.9-.1-3,1.8-1.1,0-2.1-.4-2.9,2.3-3.2,11.2,3.1,22.9,7.5,33.2-3.6.3-1.6,1.7-.2.7,1.7,3.8-2.3,4.1.1,9.8s4.4,13.4,7.4,20.1c1.1,2.5-1.1,3-2.6,2.3,1.5-4-2.2-6.2-3.5-9.1-4.2-9.1-6.3-20.2-7.9-29.8,1.1.8,1.7.5,1.4-.8s-.7-3.1-1.8-4.1c-1.8,1.7-2.5-1.3-2.8-2.1-1.6-3.8-3.7-7.2-3.6-13,1.1,2.4,2,.7,1.6-.4s-.8-2.9-1.4-2.6c-5.4,2.5-8.9,6.9-12.5,11.5-7.8,10.1-14.8,21.6-23,30.9-.5,4.3-3.7,7.7-7.1,7.7-1.3,0-2.2-1.7-2.2-3.1,0-5.5,5-6.6,7.2-8.8,2.2-6.1,7.3-8.4,9.1-13.6-1.4-1.6-2.9.6-4.5-.1s-.7-2.6.7-3.1a6.6,6.6,0,0,0,2.5-2.9c.2-1.9.8-4.3-.3-5.1s-3.1-2.4-4.9-1.9-5.1.8-6.3.4-.6-2.7-.7-4.1c-3.9,1.8-2.2-3.7-3-4.8s.2-2.8,1-2.1,3.1-.6,2.1-2.1c.9-.4,3.1-3.7.7-4.8-.8,2.5-3.5,4.4-4.8,4.5l-10.1.8c-3.4-3.1-6.2-6.8-6.4-11.8,2.4-2.5,7.8-4.1,11.3-.4,1,1.1,3-1.3,3.6,1.4,1.8-.4.3-2-.4-2.2-2.7-.7-6-4.4-4.4-7.3-.7-.1-1.9-.3-2.2.3-3.9-1.8-7.3-5.3-9.5-7.7s.9-3.4,3-2.6c-1-2.3-3.3-2.7-4.4-4.3.8-.9,2-1.4,1.9-1.8-5.5-1.5-8.1-6.8-10.4-11.3-.4-.8,2.1-.3,2.6-1-1.6-.9-3.4-2.6-2.7-4.5a5.3,5.3,0,0,0,.8-3.7c-.5-4.4,2.3-8.6,1.7-13.4a13.2,13.2,0,0,0-4-3.7c1-1.2,4-.6,5.6.3v-3.5a2.2,2.2,0,0,1-2.9-1.4A14.5,14.5,0,0,0,4.4,353c2.9-3.6,6.7-6.8,11.3-8.1-.8-.4-2.4-.1-2.4-.5.3-2.6,3-3,4.5-4.6-.6-1.5-.1-3.6,1.7-3.4s4.2-1.2,6.6-1.5c.8,2,1.6-.1,1.1-.7a8,8,0,0,1,5.8-1.8c4.2.5,8.4,3.7,13.5,3.9.9,0,2.1,3.1,4.4,3.4s4.6,3.4,6.7,4.9c.6-1.8-1.3-3.7-.2-5.1,3.7,2.3,1.3,6.1,2.3,9.1a4.8,4.8,0,0,0,3-2.6,1.9,1.9,0,0,0,2.6,1.7V351c1.7-.7,2.7.9,3.8,1.8.8-.7,1.8-2.6,2.4-1.1s2.1,4,4.1,3.6,3.7,3.1,5.6,2.3,3.5-.8,4.7-1.1c.7-10.9,8-17.6,14.2-23.6,2.8-2.8-.7-6.5,2.1-8.2-1.5-1.6-3.8-.4-6.2.3.7-4.5,7.1-1.3,7.7-2.6l5.3-10.3c1.3-2.4.9-6.3,3.8-8.1s2.1-3.1,2.9-3.7c2.3-1.4,4.7.9,4.1,1.8a61.7,61.7,0,0,0-7.4,13.7l4.6-1c-.8,3.6-2.3,6.2-3.4,8.9C116.2,323.8,118,321.4,119.3,319.2Zm921.8,242.2c2.6,2.9,5.4,5.4,6.8,9.3-1.9,1.9-3.8.1-5.1.1-1.3-4-4.7-7.3-7.4-10-14-14.2-25.8-30.2-40.5-43.8a58.8,58.8,0,0,0-11.2-8.3c-8.5-10.4-15.7-20.1-24.3-27.3-.8,1-1.7,2.7-3.3,1.2.9-1.4,3.9-4.6-.4-5.5-1.2-.2-2.4-1.2-1.5-3.1-1.3.1-2.4,1-3.4.2-.8,1.7-2.9,2.2-4.6,2.2.1,2.9-.1,6.3,2.4,8.4s2.3,3.6.5,4.9-2.6,0-3.5-.7c-3.1-2.8-4.6-6.7-7.1-9.9-2.1.5-2.1.2-2.3-1.1s.9-4-.3-5.6a10,10,0,0,0-3.2-3.3c-.2,4.6-2.3,10-1.5,15.6.1,1.1-2.1,2.2-3.6,1.4a25.4,25.4,0,0,0-3.9,0c-.5,4.9-1.7,9.8-1.9,14.9-.1,2.6-6,6.1-5.5,3.6a134.7,134.7,0,0,0,1.9-26.5c.8,0,2.1.2,2.4-.2-1.8-1.2.1-3.1-.3-3.4s-3.5-2.7-4.7-.9-5.8,4.9-6.2,5.1c-3,1.4-4.7-.9-4.5-2.6s1.6-4.4,1.8-6.9c-2.8-1-3.3,3.3-4.5,2.8-4.3-2-8.2-.5-11,.3s-3.3-2.3-2.1-4.2,1.7-2.5.9-4-.7-6.1-2.3-8.6c-2.3.6-5.1,1.9-7.9-.9s-6,.2-7.2-3.4c-.5-1.7,1.6-4,3.9-4.1s3-3.4,1.5-4.3-2.5-2.3-3.7-3-3,0-3.8,0-.8-2.4-2.1-2.5c-6.5-.5-13.9-.6-19.5-2.7-1.9-.7-5.3-3.7-1.9-5.4s11.1-.4,14,1.8c5.9-1,10.7-2.1,13.7-5.1-.9-2.4.4-5.9-2.3-6.6s-4.2-3.9-5.4-1c-.4.9,0,3.2,0,4.5-.6-1.8-2.1-5-.3-7-2.6-3.3-6.2-4.9-8.3-7.1s-.1-4.3,1.9-4.4c.7,2.4,5.1,3.4,7.9,1.4,1.1-.8-1.6-2.6-2.3-3.3s-3.8-4.1-3.3-7.5c.3-1.6,4-3.9,1.8-6.8s-3.9.2-6.2-1.9-2.3-5.8-1-5.5c7.7,1.6,12.2,7,16,12.2,1.3,1.7,3.1,3.8,4.9,3s1.8-3.6.5-5.6c-.9.8-1.8.3-1.4-1s2.5.6,2.3-.7c-.5-3.2-4.7-3.6-4.1-7.3-1.2.4-1.5-.8-3-2.8-2.7-3.9-7.9-8-10.8-12.3-3.6-1.1-6.7-4.2-11.3-2.8-.5.1-1.2,2-2.7,1.6-7.7-2.2-16.4-2.3-24.4-3.2-1.3-.1-3.3-1.7-2.6-3.3s-4.2-1.6-6.8-1.7c.2-2.7,4-1.8,5.8-1.5s4.7-1,5.8-.1,9.1,1.9,13.3,2.9c.4-.8,1.7-.6,2.9-.3,5.9,1.4,12.1,1.7,17.4,2.6,2.2.4,2.1-3.2.2-4.9,3.8,1.3,5.9,5.3,9,5.5.2,2.9,4,4.6,6.5,5.3-1.6,3.2,1.4,6,2.6,8.2a17.6,17.6,0,0,0,10.1,8c3.7,1.2,3.4-3.5,4.2-6.6s-2.8-7-5.2-7.9c1.7.4,2.9-.8,2-2.8-1,.2-3.5.4-3.1-1.2s2.2-.8,3.3-.9c.7-5.7.7-12.5-1.3-17.1-.5-1.3-3.3.5-2.6-1.8s1.3-2.9.7-3.5c-2.5-2.1-1.6-6-4.1-7.2,1.3-1.4-2.9-1.4-4.5-1.5-.3-2.8,3.9-1.3,4.8-1.9-2.1-3.6-4.3-8.2-3.9-12.8.2-2.8,2.8-2.7,3.1-1.8,1.5,4.5,2.1,8.8,3.5,13.9.1-.8,1.4-3.8,4.8-2.1,1.4.7,2.7,4.1,4.6,6.1-.7.5,1.5.6,1.9-.5,1.2-3.7-.5-7.5-.8-11-3.9-1.9-8.1-4.1-12.9-5-1.4-.3,1.2-1.2,2-1,4.2,1.1,7.7-.5,11.9.7,1.6-3.3.6-9,1.9-13-1.9,1.1-1.3-.6-.9-1.6a46.5,46.5,0,0,0,2.3-11.9c-1.8-3-6.7-5.2-10.5-5.7.9-2.8,3.6-3.7,6.1-3.4s2.6.1,3.9,2.2c-.6.6-.2,2.1,1.7,2.1,2.7-7.2,3.7-17.5,5.5-24.1,4.7-17.6,9.2-34.7,14.9-51.3,1.4,2,2.6-1-.2-1.1,4.3-1.2,4.9-8,6.1-12,7-22.2,10.4-53.6,3.6-79.3-.7-2.8-3.6-4.6-6-6.4-.9,1.1-2.1.6-2.5-.8s-2-6.7-2.6-9.3c-1.1-5.5-4.7-10.5-8.6-12.6-1.7-.9-5.3-3.8-3.6-5.8s2.9-3.9,1.9-6.2,3.2-1.3.6-3.3,1.5-1.2,2.9-.8a3,3,0,0,0,3.5-1.7c2.3,0,1-4.9,4.2-1.8.4.5,2.1,2.2,1.9.7s-2-1.2-.7-2.6,5.2,1.2,6.8.1c6.4,6.7,13.4,14.7,17.7,23.3,3.3,6.4,6.2,13.6,7,20.8.4,3,2.6,6.8,2.5,9.8-.7,15.9-1.8,32-3.7,46.2-2.3,16.9-6.7,30.7-10.3,46.4,1.9,6.2,3.9,14.1,2,22.4,2.5-6.7,5-13.3,9.1-18.7.3-.4-.3-3.2,1.8-2a25.5,25.5,0,0,1,3.6-6c-.2,6.5-4.6,11-5.6,15.5-4.5,20.7-11.6,42.3-10.1,65.8.4,5.7-.6,10.7.5,17.1.2,1.3,2.8,2.2,4.4,2.2-1.4.5-1,2.2-.3,3L962,327.7c-1-5.3,4.5-7,8.4-6-.7-3.8-2.2-6.7-2.1-8.9s2.5-1.7,2.5.6,1,1.5,1.4,0-2.8-4.6-1-6.5,4.8.1,5.2,2.8-3.2,1.4-.6,2.8c-.9,1.6.2,1.5,1.5-.4,2.9-4.5,3.3-13.8.6-21l-4.8,9.5c4.9-20.7,10.4-41.4,16.1-62.1.1-.6,1-1.5,2.6-2.3l-8.2,32.4c-1.5,5-2.3,12.2-4.6,17.4-.6,1.3,3.6,5.1,2.6,10.1,2.9-2,1.3-7,3.6-8.3s2.3.7,1.9,1.8c-2.6,7.2-5.8,14.4-3,23,.6,1.9,2.4,0,2.7.8-1.3-4.1-2.1-7.7.2-9.1.6-.4,1.4,3.7,2.3.4s1.1-5.7,3.5-7.6c.4,1,2,3.6.2,5.1a6.2,6.2,0,0,0-2.2,5.5c.6-1.9,2.9-.6,3.4-1.3s1.9-5,2.3-7.7c1.1,1.5,3.4,1.9,4.1,2.4-1.6,2.4-2.8,4.7-5.1,6.4,2.8-.2,5.7-2.2,5.9-4.6s0-5.3,2.3-5.2-1,2.7-.8,4.7a264.1,264.1,0,0,0,29.9-28.9c.8-.9,2.5-3.2,1-4.9,2.9-2.5,5.9-3,9.6-3.1-.9-1.9.8-3.4,1.6-1.9s-.2,5.3-.5,8.2c1.8.4,3.5-1.1,4.5-.2s3.1,2.3,2.4,4a23.3,23.3,0,0,0-.5,3.4c1.3-2.2,5.8-3.6,7.7-1.1a9,9,0,0,1,2.3-2.1c1.2,2.5,4.4,1.6,5.5,3.7s1.4,4.2,3.3,5.8c-3.1,2.4-.2,6.1-2,9.1,1.2.7,2,2.5,1,3.5a14.4,14.4,0,0,0-4.2,9.5c-.1,1.2-2.9,2.3-1.7,5,2.4-.9,4.8-5.7,9.1-4.1.9.4,2.4,1.5,1.6,2.5-6.4,8.2-11.9,15.4-18.7,22.7-.6.6,0,3.2,0,3.9s-2-1.2-2.8-1.3c-2.1,2.8-4.9,5.7-5.5,9.2,2-.5,1.9-2.2,2.6-3.6s3,.5,3.6-.1a27.4,27.4,0,0,0,2.1-4.2,45.4,45.4,0,0,1,5.3-1.2c1.9-.3,4.8,2.1,5.3,1.6,3.4-4,6.4-6.6,10.4-7,1.2-.1.6,1.8.6,2.6a2.2,2.2,0,0,0-2.9,1.8c-.1,1.5.1,5.3-3.1,4.7-1.3,1.8-3.7,2.3-5.8,3.6.7,1.4-.2,2.3-.7,2.2-3.3-.6-5.6.9-7.8,2.1a58.5,58.5,0,0,0-17.6,15c1.1-.3,2.8,4.1,5.4,3.4s4.1-2.8,5.2-4.9a5.6,5.6,0,0,0,4.9-.1c0,1.4.7,5.4,0,6.4-1.8,2.5-5.6,3.4-9.6,3.6-.8,2.5,2.9,2.3,2.6,5-.7,7.6-3.8,12.8-8.9,15.3.1,3.8-5.1,4.8-3.7,8.2.2.7,1.7,2.6,2.7.9s5.2-2.7,7.8-1.2c-1.6,4.2-4.4,8-8.7,9.6-2,.7-4.6-5.7-7.8-5.8-1.2-.1-1.6,1.3-2,2.2h-3.7c-1.5,4.7-3.3,8.1-6.9,11.1,1.1.9,3.1,2.9,1.9,3.6s-2.8-.1-4.3-.4c.2-1.4-.3-4.7-2.3-3.8s-4.5-.6-5.5,1.5h2.5c-4.1,2.7,2.4,1.4,3.6,1.2-.1,3-3.8,2.4-5.6,2.6s-3.3.8-3.9-1.1-1,.8-1,.9a16,16,0,0,0-15.4,15.5c.3-.3,4.1.5,2.1,2.2s-.3,5.7-4.8,5.9a3.6,3.6,0,0,1-2.6-2.3c-.3-1.1-.8-3.5,1.4-3.6a17.3,17.3,0,0,0,1.4-8.8c3-.3.3-2.4-.4-2.4-5.6.2-11.9,2.2-18.3,4.3-.5.1-1.9,1.6-3.2,2.5,1,0,1.9-.1,1.5-1.7,1.3,5.4,5.4,8.9,8.6,10.9.5.3,2,.4,2.2,2.1.6,4.2,5.7,2.8,8.1,6.2a16.8,16.8,0,0,0,3.2,0c-1.1-1.5-2.6-2.9-3.3-5.1,4.8,1.7,9.4,4.1,14.6,5.5,1.6.4,2.1,2.8,3.1,4.6,1.8-.8,3.3.7,4,2.1s-.6,2-1.9,1.7-3.6-2.2-5.8-1.4c-.9-1.7-3-1.2-4.5-2.6-1,2.5,3.1,1.9,4.5,2.6,9.3,5.1,18.8,8.3,28,13.1a10.2,10.2,0,0,0,3,.3,4.5,4.5,0,0,0,1.2,2.8l-42.4-17.7c.8-1.7-.6-1.9-1.6-2-3.6-.7-6.4-5.3-10-4.3a16.2,16.2,0,0,1-12.2-1.3c-.8.9-1.7,2.2-2.9,1.7a10.7,10.7,0,0,1-4-2.4c-1,.9-2,1.6-2.2,2.2-1.1,5.2,1.5,8.1,3.6,9.9s3.8-2,5.5-2.9,1.7,1,1.5,1.8c-2.5.2-4.4,2.4-6.6,3.5,1.3,2.7,1.8,6.8,4.1,8.6,1.1-2.3,3-3.3,4.6-4.7a7.3,7.3,0,0,1,3.6,0,9.2,9.2,0,0,1,2.8,3.1c-1.3,1.7-2.8,3.3-5.1,3.4-.2-2-.9-.8-1.8-.3s-1.3,2.6-.3,3.4.8,2.2,1,3.2h4.1c-.8,1.9.4,3.1,2.4,2.5,1.2,1.7,3.2,5.1,6,2.8a5.9,5.9,0,0,1,3.3-1.4c.3,2.9-3.2,3.3-5,4.3a109.3,109.3,0,0,1,10.1,12.6c.1.3,2.2.2,2-.1ZM794.8,99.1c2.3-.2,4.1-2.1,5-4.7v3.9a9.1,9.1,0,0,1,5.8-3.6c-.8.6-3.3,3-.6,3.2s1.6,5.4,4.6,5.5c.9-1.7,3.2-2.7,2.4-4s-.1-4.1-.1-5.7l1.6,3.6c0-2-.3-3.5.6-4.7-2.7-1.1-3.6-5.3-1.4-6.6a25.5,25.5,0,0,1,9-3.2,1.9,1.9,0,0,0,1.5-2.9c-2.8-3.8-2.9-9.3-3.1-15.1-2.5-1.4-1.7-3.7-1.6-5s2.5-2.1,4.2-1.7a11.3,11.3,0,0,0,3.2.2c.3-1.8-1-3.5-.7-4.6s2-3.3,4-2.5,4.9,3.1,2.9,6.5c-.3.6-2.3,1.2-1.6,3.8s2,3,3.7,2.3c.9,1.8-.7,3.4-2.2,3.6v6.3c.9.1,4.9-1.1,2.6,1.3s-2.9,2.3-2,3.9,1.1,3.9-1.3,4.2-.2,2.4.8,1.9,1.3,2.1-.7,2.2a13,13,0,0,0,8.3,1c1-.3,2.5,1.7.9,2s-1.1,2.8.1,3.1L843,93c-1.1.7-.9,1.9-.8,2.8s3.1,2.2,3.1,1.7c.5-3.6,3-6.1.8-8.7,2.5-2.6,5.4-5.2,9.3-3.9s.4,3.1.1,3.5c-1.5,2.6.4.9.7.4-1.5,3,2.9,3.8.6,7.3-1.1-.5-3.1-.3-1.5,2.7.1.2,2.8,1,1.1,2.8s-1.2,4.3,1,4.9,5.9,1.2,11.4,1.7c.8.1,1.8-2.4,3.1-2.3,2.9.2,3.2,2.3,4,4.4,2.1-1.7,2.3,2.2.3.4-.7,1.4-1.6,2.4-1.7,2.8-1.5,3.5.1,7.3,3.4,7.9,1.2.3.6-1.5.6-2.1,2.7.8,3.8-3.8,5.3-2.9s3.1-.3,4,1.8-1.2,3.3-3.2,4.2c0,0-2,2.4-.8,1.8,8.2-4.4,14.7-9.2,19.2-15.5,4.9-1.8,7.6-4.6,11.4-6.3a9.5,9.5,0,0,1,2.3,4c-4.5,2.8-8.8,7-10.2,12.9-6-.4-9.7,1.6-11.9,4.9-3.1,1.3-5.2,4.3-7.5,6.9,1,3.3-1.6,6.7-.8,10.2a5.4,5.4,0,0,0,2.2,2.9c2.8,1.9,6.5-1.2,7.5-2.6.2,1.9,2.4,4.2,2.6,5.9-2.1,1.5-6.5,1.2-7.9,4.5-.4.9,1.3,2.6,1.9,2.5l12-2.1c.4-1.5,1-2.5,2.5-2.1s4.9.6,5.2,3-3.1,6-6.7,5.3c-.3-2.4-2.8-2.3-4.4-1.9L887.6,160c-.6-.8-1.8-2.1-2.4-1.1a14.1,14.1,0,0,1-1.3,2.4c2.8,1,5.3,5.1,9.4,4.5.6,1.1-.7,1.3-1.5,1.4s-1.5,1.7-2.1,1.9c-2.7,1-5.5-.1-8.1-.5-.4,1-2.4,2.5-.7,3.4s4.6.4,5.4,3.8l2.3,1.6c-1.5,1.3.1,1.8,1.1,1.6,3.2-.4,5,3.9,8.6,2.5,1.5,3.3,5.6,3.4,8.1,4.2s3.1,1.6,2.3,3.4-.6,2.5-1.5,3-2-.6-3-1.1-1.2,1.9-2.4,1.7.4-2.3-.8-2.6c-3.5-.9-7.5-2.9-10.6-.7-1.8-3.5,2.4-2.2,3.6-2.3-2.2-.7-6.2-4-9.2-3.3-1.3.2-.6-1.5-.7-2.4l-5.8-.9c-1,2-3.7,3.6-3,5.3s3.8,4.1,6.9,3.9c.3,0,.6,4,2.7,2.8s1.2-2.3,2.4-3.2c1.5.7-.4,3.3-.4,4.8a10,10,0,0,0,7-1.4c1.5,1.6-.5,2.4-2,2.6,2.2,1.2,5.8.9,5.1,3.7s.6,5.6-2,6c-9.5,1.7-15.3-2.8-19-8.6-2.8-1.6-4.5-6.9-8.5-7.9-2.1-.5-5,2.3-4.7,3.5l3.6,16.6c3.2,2.5,4.2,6.5,5.6,10.6,1-.2,3.3-2.3,4.3.4-1.4.7-3.8,1-3.7,3.4a2.7,2.7,0,0,1-5.1,1.1c-3.6-4.7-6.1-12.9-8.6-21.1-.6-1.9-1.7-4.6-3.7-5.6-3.6,8.1-7.7,14-10.9,20.6-1.2,2.5-3.8,1-4.8-.6-2.4-4.3.3-9.4,1.4-13.4,1.2,0,1.2-1.1-.3-1.4s-4.5.9-6.5.5a71.5,71.5,0,0,0-6.1,16.3c3.5,1.5,2.2,5.2,1.5,7.8s.6,4.3.4,4.6c-2.4,5.3-3.1,9-6.3,11-.9.5-3.2-.2-4.5-1.4a42.8,42.8,0,0,0,2.9-13.3c.3-2.6,3.2-5.9,3.3-8.3,0-6.8,1.9-11,3.6-15.7.6-1.5-1.1-4.6-2.2-4.2-12.9,4.7-21.6,14.5-27.2,27-2.5,1.5-5,6.3-9.9,3.6.4-3.1,3-6.9,2.6-10.2,5.2-1.9,6.6-6.4,10.9-9a30.2,30.2,0,0,0,4.6-11.5c.4-2.3.9-7.4-1.1-7.1-8.9,1.3-12.2,7.6-17.6,12.7s-7.4,8.6-13.9,9.5c-1.6.2-.2-3.8.8-5.3L748.6,167c-7.7-2-15.7.5-21.5,1.8-2.3.4-4.3-1.4-5.7-3.9-.3-.5,1.2-2.3,2.2-2.3l22.3,1.2c7.1-.8,12.6-1.2,20.8-1.7,1.1,2.2-1.2,1.8-1.9,1.6,4.2,7.7,10,13.9,15.8,20.1-7.1-4.1-12.6-11.6-19-16.5l.6-3.1c-3.6.8-8,.5-11.3,1.2a388.6,388.6,0,0,0,26.9,41.7c7.4-3.6,12.9-10.4,18.1-15.9,1.7-1.7-.4-4.7-1.9-6.2-4.2,2.1-8.9,4.3-12.6,7.5-.3.2-2.5.4-2.2.2,3.7-3.7,5.8-7.2,10.1-8.7,4.6-4.2,8.2-8.8,12.2-12.8,1.9-2-1.5-2-2.5-1.8-5,.8-9.5-3-10.1-5.1l-21.1-.5c-.3-2.2,3.1-2.5,4.5-2.4,6.3.2,10.4-1.2,15.7-2.5,1.9-.5-1.5-6.9-3.6-9.6s-4.5-.8-6.5-1.7-3.7-1.7-2.9-3.7,3.4-1.2,4.7-2.1c.2,1.8,2.6,1.6,3.8,1.6s3.8-.8,3.2-2.8c-2.3-7-7.5-11.5-12.3-16.1-1.2-1.3-2-3.9-.6-5.8s4.8-1.4,8.1-2.1c-14.1-9.3-26.9-20.4-41-28.8-1.6-1-1-3.9.9-4.6s3.1-1.3,3.5-1.9c1.7-2.5,2.6-5.9,5.9-7.4s-1.4,2.1-1.4,2.1c-1,1.9-1.8,3.2-1.6,4.9,1.2-.2,2.5-1.7,2.6,1.4,5.2-6.2,11.6-10.3,17-15.4,1.5-1.5,4.6-2.3,6.4.1-1.8.6-8,1.6-4.3,4.6.8-1.5,1.3-2.4,2.1-.6s3.2,1.3,2.2,3.3c-.4-.7-1.5-1.1-1.8,0,2.4,1.7-1.4,2-1.9,2-2.2,0-2.3,1.4-1.8,3.1-1.6,1.2-3.6,2-4.2,4.4,1.8-.5,3-.6,2.1,1.7a2.6,2.6,0,0,0-2.9,1.3c1.1,0,2.9-.7,3.2,1.2s3.1-.9,3.8.7c2-.2,6.7.1,9.7-1.3,1.1-.5,2.4-1.8,4-1.8h3.4l.9,1.2c-3.2,1.3-7.5,3-9.2,6-.4.8.1,2.4,1.2,1.1a4,4,0,0,0,3.2-.8c-1.2-.9.6-2.5,1.6-1.9a9.2,9.2,0,0,0,2,1.7,12.7,12.7,0,0,1,9.3-10.1c-.2,1.5-4.7,4.9-4.1,8.4,1.4-.8,3,1,3.3,2.6s-1.1,2.8,1.2,3.4C796.2,97.5,795,97.9,794.8,99.1Zm-249,32.1a7.4,7.4,0,0,0-3.2-.5,1.9,1.9,0,0,0-1.6,1.7c-1.2,2.3-3.5,3.6-4.2,1.4s4.5-4,5.9-7.4c.2-.5.4-2.3-1.3-.4-.3.3-2,1.7-1.8.2a17.7,17.7,0,0,1,3.1-7.3c.9-1.2-.8-3.1-1.8-1.9a36.2,36.2,0,0,1-6.3,6,10.8,10.8,0,0,1,2.9-4.4c.3-.3.4-1.2-.9-.5-2.8,1.3-4.7,7-8.5,7.1,1.5-2,4.4-6.5,6-8.1s.5-1.5-.6-.6c-5.2,3.7-10.4,7.6-14.2,12.7-.8,1-2.4-.6-1.5-1.6,5.1-5.3,11.3-9.6,15.9-15.6-2.1-1.1-3.4-2.8-5.1-4.4-1.5.6-10.1.4-7.2-.9a26.2,26.2,0,0,0-8.7,1.6c-4,1.1-6.5-2.3-7.5-5.6-4.2,1.6-11.1,2.6-15.4,2.9-19,1.5-39.9,1.6-58.4,4-.2.1-1.3,1.8-1.6,2.1-1.7-1.7-1.7-2.1-1.8-4.2,20-2,41.2-3.5,62.4-4-2.4-3.6-5.8-7.2-7.7-10.2s-3.2-2.5-5.3-2.7c-14.4-1.5-32.2-2.2-44.8-2.8-15.9-.9-34.7-3.3-51.6-2,1,1.9,2.4,3.2,4.2,3.2s1.3,2.3,1.6,3.8c1.7,6.4,6.5,10.3,7.7,16.8,2.8-3.2,2.6,1.1,2.7,2.1,2.8-2.9,5.9,1.6,8.8-1.4-.9-2.3-4.2,0-5.3-.9a2.7,2.7,0,0,1,3.7-2.2c.2-1,.5-3.6.8-4.4s2.5-1.4,3.9-1.2c-.1,2.9,1.2,5.7,1.6,8.6a2.7,2.7,0,0,0,3.1-1.4c2.4,2.3,9,.2,10,2.2l11.1,21.5c.6,1.1,1.4,1.6,1.3,1.8-1.5,2.3.4,2.5.3.9,1.9-1.1,2.5,1.3,2.3,2.2s-2.6.9-3.5-.6c0,2.6,1,6.5-1.4,6.6v-3.5c-1,1-2.4,4.7-.4,4.9,10.2.8,20.3,4.3,29.2,7.1,1-2.5,1.7-.7,1.9.4,2.4-1.7,2,1.6.4,1.5l10.1,2c1.9.6,4.4,2.9,6.3-.3,2.6.4,4.9,3.3,7.3,5.4-.9,2.2.2,4.6.7,6.9a2.1,2.1,0,0,0,3.2,1.5c6.6-3.3,10.8-10.1,11.4-21.4-.1.7.7-.7,2.4.2a5.3,5.3,0,0,1,4-2.5c4.5-.1,8.2,4.9,8.3,9.2,2.7-.2,3.7-2.3,5.4-3.1s2-4.1,4-2.4c-1.5,2.2-3.8,3.6-5.1,6.4,5.1.2,9.8-.4,12.1,2.3s-.4,5.6.9,3.8c6.5-8.8,14.2-16.2,21.1-24.8a12.8,12.8,0,0,1-1.6-5.3c0-1.3-1.8-2.1-2.6-1.8-6,2.6-10.4,7.4-15.5,10.6C540,137.1,543.7,134.9,545.8,131.2ZM205.1,436.1c3.5,12.7,12,21.9,18.4,33.1,3.5-6.3,0-12.3-.5-17.3-.2-1.3.3-2.3,2.5-1.1.4-12.4,3.1-24.6,0-37.3-.2-.8-3.6-1.3-7-2.1-1.6,10-6,17.7-10.8,24.6C207.5,436.3,206.4,436.4,205.1,436.1ZM605.3,146.2c-2-.1-3.3-2.1-4.5-3.8s0-2.6,0-3c-1.2,3.3-4.4-1.3-6-.6s-1.8-.6-1.9-1.5-2.7-.3-3.2-1.6c-1,2.1-5.9,4.8-6.4,8.5,1.6-.6,2.3-2.9,4.1-1.6s-.1,5.8,2.9,8.2c-.4-1.5-.8-3.9,1.2-2.8v5.5c1.3.2,2.6-1,4-.2s.5,2.8.6,4.5c-1.5.7-3.1,1.6-3.8,3.2a14.5,14.5,0,0,1,2.2.9c1.4,3.7,5,8.3,4,14a7.7,7.7,0,0,1-7.2,6.5c.2,2.8,2.3-.3.7,3.7,1.5-1.2,3.7.1.7.3a7.2,7.2,0,0,0,4.9,1.4c2.6-.1.6-3.2-.7-3.7.7-1.3.4-3.7,1.3-3.4s1.7,2.5,2.9,4.1c2.7-1.2,2.1-7.3,1.7-11.1-1.1-.1-1.3-1.2.5-1.2C603.9,162.9,602.7,154.3,605.3,146.2ZM108,379.8c.1.6.4,2.4,1.1.6.5.5.7,1.9-.9,3.8-.3.3-6.4,5-2,4.8-4.1,2.5-5.9,9.9-5.5,16.9,3.3-.9,6.4-4.6,10.6-4.8,4-2.7,8-4.2,11.4-7.4,1.1-1,2-2.3,1.5-3.7l3-1.7c-1.4-2.1,2.1-4.6.2-5C120.5,382,114.8,380.2,108,379.8ZM535.7,171c.1.7,2.1,1.1,2.2,1.5,1.1,3.7,1.7,5.1,4.1,7.8.8,1,3.5,1,4.5-1,2.5-4.6,5-9.5,9-13-1.3-3,.9-6.5-.2-8.6s-2.4-5.5-3.6-8.1c-.6.6-1.9.2-2.9.2-.6,1.6-2.3,2.1-3.2,3.5s1.3,5-1.7,3C540.3,160,534.7,163.5,535.7,171Zm-98.4,83.5c1,6.7,3,12.2,3.5,19.5,4.8-3.3,9.7-6.2,13.3-10.5-2.5-4.7-6.1-10.3-9.4-13.5-1.8-1.7-6.5-2.7-5.4-6C436.1,247.8,436.9,251.5,437.3,254.5ZM558.5,148.6c.8,4.1,0,7.9.8,12,.4,2,3.4-.1,5-.5s2.4,2.9,4.3,3.9c2.4-5,3.4-13.2,5.8-18.1a4.9,4.9,0,0,0-2.4-6.7c-2.1-.7-3.3,3.5-6.1,3.4.5.8,1.6,2.1,1.2,3.4-2.3-1.8-5.5-3.4-8.2-2.9S558,146.6,558.5,148.6ZM446.6,237.8c-.1,2.9,1.9,4.3,2.8,7.5.4,1.4,3.2-.5,5.3-.7s3.5,0,3.9,1.9c-2.2,1.7-5.6,2.6-8.2,1.4l7,12.3c.6-1.5,1.8-3,1.4-3.5s-2.1-5.3-4.1-5.5.2-1.5,1-.8,1.6-.3,1.9-1,3.7.1,4.7-.3,5.3-4.5.2-2.7c.8-2.6,3.7-1.9,5.6-2.4a17.2,17.2,0,0,1,1.3-6.2,18.6,18.6,0,0,0-15.2-5.2c2.9,1.7,5.6,3.6,5.6,6.4s-1.8,2.2-3.2,1.2c-3.1-2-5.2-5.3-10-6.1C444.5,233.8,446.7,236.9,446.6,237.8Zm402.5,81.4a2.3,2.3,0,0,0-3.1-1.7V314c3.5,2.5,7.3,3.1,10.5,5.5,4.7-.1,7.2,2.4,9.7,5.2.6.7,5.6-1.2,3.6,1.4s1.1,2.1,1.5,1.9,5.9,1.9,2,2.7c-1.2.3-5.4-1.1-6.9-1.4s-5.2,2.9-8.1,2c.2.7.5,3-1.4,2,0-.9.3-4.1,0-4.9s-2.7-1.3-3.9-.6v-2.6l-3.2-.6c-.3-1.4-2,.3-3.1,1.2.4-2,1-4.5-1.6-2.9-3.3-4.2-8.9-3-14-5.2.2-.6.2-1.8.5-2.1s3.7-.6,4.8-.2C840.5,316.8,844.3,319.8,849.1,319.2Zm-270-151.3c-.5,2.3-2.2,4.7-1.8,6.5.6,3.4,3.9.9,3.8-.3,4.6,2.4.1,7.3,2.7,8.8,1,.7.7-1.5,1-2.3s1.7-4.8.1-7.5,3.5-3.1,1.7-5.3.4-1.7,1-1.9c0-1.8.2-6.6,0-7.3-1.2-4.1-2.6-6.1-3.3-9.9-1.6.8-1.6,2.5-2,4.2s-4.2,1.9-4.2,4.5-1.7,7.2-2.7,10.5ZM462.2,267.8l.4,1.6a129.6,129.6,0,0,0,7.8,10.5c3.4-7.2,6-15.5,11-23.5-4.4,2.5-8,.9-9.4,1.9-3.9,2.6-8.1,2.5-10.3,5.2S461.9,266.5,462.2,267.8ZM191.3,407.7c3.3,5.9,6.8,11.8,11.5,16.7-1,1.8,1,2,1.8,1.7-.2-3.1.6-6.7,1.2-11.5.2-2,1.5-6.4-1.4-8.8s-6-1.6-10-2.1C193.3,403.5,192.3,406.3,191.3,407.7Zm639.9-90,3.3,5.2c-2.2.9-3.7-1.6-4-2-7.3-9.3-14.1-18.4-22.1-25.1a2.3,2.3,0,0,0-.4-2.8c-2.7-2.7-4.8-6.5-8.3-8.5-.9-.5-.3-4.4,1.8-4.1,3.8.5,6.3,5,7.3,8.4C817.6,297.5,823.8,308.5,831.2,317.7Zm-393.5,78c2.2.7-.1,2.9.5,2.2,4.2-5.3,9.2-10.6,12.8-16.6-1.4,5.9-4.7,11.9-8.4,18,2-1.3,2.7-3.4,3.8-2.4-1.4,1-.1,3.4-1,4a162.7,162.7,0,0,1-15.1,11.5c-1.5.9-2.1-2.9-1.5-3.7C431.9,404.3,434,399.4,437.7,395.7ZM786.8,71.1c-2.4-1.2-1-4.1-1.1-5.9,2-.2,2.1-3.2,2.9-3.4,3.2-1.1,9-2.7,13.7-1.9.1,2.5-.3,3.3-3.1,4.7-.3-.3-2.4.5.4,1.6-2.2,4.4-6.7,8.8-5.9,13.6-.3-3.4-5.2-.4-3.7-4.6C790.6,73.5,788.3,71.8,786.8,71.1ZM467.4,162.4c-.2,1.7-2.1,5.2.3,7.2,2.8-1.5,1.8,1.9,1.7,3s2.3-1.7,2.7.2c-2.6.7-3.5,4-2.5,6.1s1.9,4.2,2.5,2c1.1-4.2,5.7-5.8,8.9-6.8-.2-3,.1-3.7-2.1-5.5,1.3-3.4-3.2-5.5-5.1-5.4S468.4,162.4,467.4,162.4Zm-7.6,274.3c-9.7,19.7-21.3,37.5-32.7,55.8-1.6,2.5-1.4,7-4.8,7.6-1,.2-1.2-1.5-1.6-.8,12.4-21.7,25-39.8,36.3-60.2A4.3,4.3,0,0,1,459.8,436.7ZM305.5,56.4c-.4-.3,0-2.1,1-2.6s3.3.1,4.7,1.4c6.9,6.2,16,10.9,23.5,14.9a18.5,18.5,0,0,1,7.1,6.8c-1.7.4-6.1.2-6.7-.3-8.3-7-16.3-11.3-23-16.3C310.5,59.1,307.8,58.5,305.5,56.4ZM146.4,481.1a11.3,11.3,0,0,1,2.3-12.6c-2.5-2.7.4-4.8,1.4-7-1.5.1-1.8-1.4-1.2-2.5,1.8-3.1,1.5-8.6,2.8-13.5,2.8,1.9,2.6,4.7,2.3,7l-2.1,22.4c-.1,2.1-1.8,3.3-2.2,4.7S146.7,481.7,146.4,481.1Zm245-196.8c-2,2.2-4.5,5.3-4.4,8.3-1.3-2.4-1.2,1.2-1.4,1.4l-5.9,9.5c-1,1.2-3.8-.4-3.5-2.2,1.2-6.2,7.6-9,9.4-15.9.8-3.5,3-6.4,4.7-9.3.6-1,3.7-1.4,3.7.2A11.7,11.7,0,0,1,391.4,284.3Zm462.2-55.1c-1.5-1.6,2.5-3.1,3.2-1.3,2.7,7,9.6,11.5,15.1,17.5.8-.4,1.7.5,1.3,1.5l16.1,18.3C875.6,255.2,864.8,241.7,853.6,229.2ZM729.3,120c-1.9.7-1.3-2.2-.4-2.8a154.8,154.8,0,0,1,15.3-10.5c1.3-.8,3.1-1,2.3-2.8a2.1,2.1,0,0,1,2.5,1.7c-1.3.7-1.4,2.1-1.2,3.4s-1.4,4.6-2.5,4.7C738.7,114.3,734.6,118.1,729.3,120ZM850,234.4c-.5-1.3-.1-4.9,2.3-3.7s2.1,5.2,3.1,10c2.1,10.1,7.3,20.9,9.2,32.7-4.7-11.8-9.6-23.1-12.7-36.6C851.8,236.6,850.3,235,850,234.4Zm-90.7-18.6c-.9-1.6,0-2.7-.9-4.3.8-.6,2.1-1.4,3.1-.8a9.1,9.1,0,0,1,3,3.4c.4,1-.5,2.7.9,3.7,4.6,3.3,5,10.7,9.1,14.6,1.8,1.6,5.1,4.5,4.9,9.4C772.7,232.4,764.8,225,759.3,215.8Zm-348.1,34c-1.2,4.7,1.1,7.3,3.9,7.6-.1-1.1.7-3.4,2.4-3.6.7-4.4,2.4-8.8,2.6-13.6.1-2.1-2.2-1-2.9-1-.3,2.7-3.7,4.4-4.5,6.6A37.3,37.3,0,0,1,411.2,249.8Zm630.5,230.8c13.4,3.6,25.4,10.6,37.9,15,1.1.3-.1,2.9-1,2.5C1066.8,491.8,1054.2,486.5,1041.7,480.6ZM49.8,316.8c-.8-1.3,1-2.7,2.3-2.2,7.9,2.8,15.7,5.7,23.2,9.1.7.3-.3,2.8-.9,1.2-7.8-.3-12.8-4-18.3-6.4-.8-.3-3.5.6-4.2.4A8.4,8.4,0,0,1,49.8,316.8Zm894.3,10.9c.3,3,3.9,4.6,7.8,4.7.4,0,3.2-.9.7-2.4s-.3-1.2.4-.4,1.8-.8,2.3-1.1,1.6,1.3,1.2,1.4c1.2.7,3.8.5,2.4-2s-7-2.9-10.4-1.2c-1.7-2.1-3.3-3.2-5.2-3.4C943,324.6,943.9,325.9,944.1,327.7ZM566.6,354.4c.1-8.6,2.2-16,2.4-23.8,0-4.4,1.5,2.8.9,4.1s2.7,3.2.4,4c-.7.3-.7,1.9-.4,3.2.6,2.9-.2,6.5.7,9.2S569.3,355.1,566.6,354.4ZM331.9,301.1c.3-.7,0-3,2.2-1.9-.7,4.6-3.7,9-4.8,13.5-.8,2.9-.6,6.9-2.1,9s-1,5.8-4.5,6.5c.5-4,2.8-7.4,3.2-10.8s2.7-5.9,3.6-9.6-1-.1-1.9-.6-1.4-2.5-.7-2.8,2.7.5,3.8,1.1A15.3,15.3,0,0,1,331.9,301.1ZM311.1,191.8c1.1.2,4.2.7,6.5-1s0-4.8-1.7-5.5-5.7.7-6.6,3.5c-2.2-1.2-4.1,1.2-4.2,3A59.1,59.1,0,0,1,311.1,191.8ZM551,299.7c1.6-.9,3.7.1,3.4,1.4-.6,3.3,1.6,7.1-.5,8.6s-5.8,2.8-5.7.4S551.2,303.8,551,299.7Zm14.9-117.4c1.2.6,3,.7,3.9-.5,2.4-3.1,2.4-8.6,2-13.6-3.1,2.3-3.8,6.3-5.9,9.3C565.5,177.9,565.9,181.2,565.9,182.3ZM668,177.4c-.3-1.5,2.1-3.6,3.3-1.6,2.8,4.5,6.5,8.9,11.2,14.5-6.1-3.4-10.5-7-13.8-11.3A7.7,7.7,0,0,1,668,177.4ZM817.9,423.6c-1.6-.8-1.4-2.5-1.1-4.1,7.1,0,10.9,2.8,18,3.6-.4,2.2-4.5,1.4-5.9,1.1C824.9,423.2,821.5,425.4,817.9,423.6ZM758,109.4c-1-1.7,1.5-.6,2.2.3,4.8,6.6,9.3,13.5,12.5,21.6C767.8,125.1,762.4,116.3,758,109.4ZM113.4,369.8c2.4-.7,4.6-1.8,6.3-2.3,5.3-1.5.2-4.2.5-6.7-3.5.4-6.9,4-7.1,8C111.9,369.2,112,370.2,113.4,369.8Zm337.8,58.9c-1.4-1.2.4-3.9,1.6-5,2.8-2.6,3.6-7,5.1-10.5.7-1.6,1.2,1.1,1,1.8-1,5.8-2.5,11-5.1,15.2C453.2,429.6,452.3,429.6,451.2,428.7ZM794.8,99.1c-2.8,1.3-3.4,4.7-5.3,6.5,2.4-1.3,2.4,1.5,1.9,3,2.8-1.8,4.1,2.3,7,.7s-.5-3.4-1.2-4.3S794.8,101.2,794.8,99.1ZM669.2,196c-1.2-.7-1.2-5.7,1.2-4.4s5.8,7.1,10.4,12.3C676.1,201.8,672.1,197.7,669.2,196ZM142.7,231.7c1.8-2,2.8,2.6,3.1,1.8,3.1,6,7.1,13.6,9.4,21.6C151.3,247,146.5,239.9,142.7,231.7Zm799.5,82.5a6.7,6.7,0,0,1-.2,4.6c1.8-.8,3.6.6,3.4,1.8s1.7,2,2.6,2.2,2.4-2.1,1.1-3.6a33,33,0,0,1-6.7-9.4C941,311.1,941.9,312.9,942.2,314.2ZM547.3,274.7c0,.5,1.2,1.3,1.6,1.4s3,3.2,3.4.9a34.5,34.5,0,0,1,2-8.7c.8-2.2-1.8-1.3-2.3-.8C549.6,270,547.7,270.9,547.3,274.7Zm-45.7,76.2c-.7,1-2.1-.4-1.4-1.6,2.8-5,6.5-9.5,9.6-14.2.7-1,1.6-2.9,3.1-2.2ZM310.7,219.4c4.1,1.6,7.8,2.4,10.2,5.4a2.9,2.9,0,0,1,1.8-4.1c2-.7.1-2.3-.2-3C318.5,218.7,314.5,217.1,310.7,219.4Zm693.6,26.8c-2.4,1.2-1.5-1.9-1.4-2.7l1.4-15.1c.1-.8,1.4-1.8,2.6-2.4C1006.6,233.4,1004.6,239,1004.3,246.2Zm-648.5-.9a13.4,13.4,0,0,1,5.5-5.3l-.4-5.5a27,27,0,0,0-7.8,10.8C352.9,245.8,354.9,245.3,355.8,245.3ZM104.9,156.9c-.2-.3-.2-3,.1-2.6,4.2,6.5,8.1,12.7,10,19.2C111.2,168.8,108.2,162.8,104.9,156.9ZM984.6,271.7c-.5-1.5.7-3,.4-4.7.7,1.4,2.8,4.2,4.6,3.6-2.6,1.6-1.3,4.6-1.4,6.3s-.1,3.2-.1,4.8c-2.6.2-1.6-3.4-1.9-5.1A46.6,46.6,0,0,0,984.6,271.7Zm52.1,143.2h-8.5c1-2.6,4.1-2.4,6.1-2.4h11.2c.1,1.7-2.3,2.4-3.4,1.9S1037.7,414.8,1036.7,414.9ZM694.9,112.8c-.6-.9,0-2.5,1.2-1.2,3.3,3.6,5.2,8.3,8,12.4,1.7,2.4-2-1.1-2.6-1.8A88.1,88.1,0,0,1,694.9,112.8ZM7.5,401.6c1.5-.5,2.3,1.8,1.8,3.2A2,2,0,0,1,6.7,406c-2.3-1.3-5.5-1-6.7-3.9C2.6,402.1,5.1,402.3,7.5,401.6ZM823.3,67c.7,1.8,2.9.4,3.8-.3-.7-1.5,1.1-3.4-1.8-4.6,1.8-.3,2.6-3,1-2.4S822.3,64.6,823.3,67ZM535.6,283c3.1-1.5,4-5.5,6.9-7.6-.9-.3-1.5-1.3-2.4-2.2a8.4,8.4,0,0,1-4.9,4.9C534.8,279.9,536,281.3,535.6,283ZM820.5,94c1,2.3,3.2,1,5,1.8.5-1-.2-5.2-1.1-6.5a45.4,45.4,0,0,1-5,3.6C817.9,93.7,819.6,94.9,820.5,94ZM532.2,274.8c.3.7.9,1.9,1.8,1.4a9,9,0,0,0,2.3-2.5,10.2,10.2,0,0,0,.8-5.2l-5.3,2.6C532.4,272.1,531.8,273.7,532.2,274.8Zm107.4-54.6c-2.6-.3-1.3-2.9-1.4-4.6,3.2-.7,5.3,3.1,6.8,5.5-1.6.4-3.2-1.3-4.6-.1S639.8,220.2,639.6,220.2ZM534.6,123a8,8,0,0,1-2,5.5c-1.1,1.5-3.7,5.7-5.5,2.8C531,130,531.7,124.9,534.6,123ZM402.1,246.3a3.6,3.6,0,0,0,1.4,2.2c1.5.8,2.5-1.1,2.8-1.9s2.8-3.5,1.1-5.2C406.6,244.3,401.8,244.1,402.1,246.3Zm563.8,82.3a2.4,2.4,0,0,0,2.2.8c1.1,1.4,2.8-.7,2-1.7,1.3-1.6-1.1-3.7-2.5-2.9S964.5,327,965.9,328.6ZM559.7,299.8c-.5-1.3,1.8-4,3.1-2.6s.4,4.2-.6,5.6S560.1,300.9,559.7,299.8ZM390.1,269.4c-.3-1.1-1-4.5-1.4-5.9,2.5,1.3,2,3.4,3.7,5.3s.4,6.1-1.6,3.6C390.2,271.8,390.2,269.9,390.1,269.4Zm459,49.8a4.1,4.1,0,0,0,2,2.1c1.8.7,7.6,1.1,9,2.2s1.1-1.4.9-1.5a33.9,33.9,0,0,1-11-3.4C849.8,318.5,849.3,318.9,849.1,319.2Zm-303.3-188c3.3-1.6,5.2-5.1,7.7-8.1a25,25,0,0,0-7,4.8ZM263.3,285.7c-.8-1.4.9-2.9,2.3-2.3s2.5,1.3,1.8,2.8a2.2,2.2,0,0,1-2.8,1A6.7,6.7,0,0,1,263.3,285.7ZM407.6,144.2c.5.2.9,1.2,1.5,1.3l-.2-5.3c-1.7-.9-2,1.7-2.8,2.3s-2.9-.8-1.6,1.5C404.8,144.6,406.5,143.9,407.6,144.2Zm-94.8,72c2.4-.6,4.2-3.4,6.6-3.2-2.6-2.7-5.3.3-7.1,2.1S311.4,216.6,312.8,216.2Zm30.6,14.6c.4.5,1.3,1.5,2.1.9s4.3-2.9,2.7-4.3S345,229.5,343.4,230.8Zm656.3,38.6a16.6,16.6,0,0,1-.3,3.2,28,28,0,0,1,.3-12.2,6.9,6.9,0,0,1,.5,7.1A5.9,5.9,0,0,0,999.7,269.4Zm-20.9,47.2c1.4-.5,2.3-1,2.3-1.4-.2-2.4.4-6.2-.8-7.9-.2,2.1-1.1,3.8-1.1,5.1S976.5,317.2,978.8,316.6ZM602.1,259.9c1.5,1.7,3.7,1,4.9,2.3v-3.8C605.1,257.6,601.3,259.1,602.1,259.9ZM221.3,405.4c.4,1.3,2,3.5,3.8,2.4-1.5-2.1-.8-5.2-3-6.8C221.9,402.8,220.9,404.5,221.3,405.4Zm724.9-69.3a3.5,3.5,0,0,0,1.5,1.7c1.2.4,2.6-.2,3.8-.4a15.3,15.3,0,0,0-5.2-4C945.9,333.7,946,335.2,946.2,336.1Zm-740,97.2c.5-.6,2.5-2.2,2.5-3s2.7-3.2.8-4.8A10.5,10.5,0,0,0,206.2,433.3Zm-17.3-28.8c.5.2,1.4,1.4,1.8,1.7l1.9-3.7c-1.7-.9-4.6.1-6.3,1.8C186.7,404.8,188.1,404.3,188.9,404.5Zm-112.3,46c-.9-1.8.4-4.4.4-7.3,2.1.7,1.8,5.4.8,7.3ZM800,185.3c.2.6.9,1.9,2,1s.5-2.7,2.2-3.7c-.4-.6-1.8-.4-2.7-.2A2.5,2.5,0,0,0,800,185.3ZM582.2,136.9l-.9.6c.6,1.7-2.4,3.4-.2,5.9a10.8,10.8,0,0,1,1.6-4.3C582.9,138.6,583.4,135.9,582.2,136.9ZM420.9,149.4c.3,0,1.1-.9,1.3-1.1s-1.7-.2-2.2.5v-4.2c-1.2.1-.6,2.3-2,3.7S420.1,149.3,420.9,149.4Zm51.7,40.5.9-.5c1.1-.7,1.4-2.1,1.9-3.3s-.5-1.4-.9-.2C471.9,185.8,472.2,190,472.6,189.9ZM312.2,240.6a22.8,22.8,0,0,1-3.4,6.8c-.6-2,.9-4.9,2.5-6.4Zm335.9-99.1-.7.8,3.5,4c.3-1.9-.9-3.6-2-4.8Zm-6.5,7.1c-.7-1.8,2.5-1.6,2.5-.1s.6,2.8-.5,2.6S641.9,149.6,641.6,148.6Zm3.2,10.6c.7-2.1-.6-5.1,1.4-6.8.9,2.1-.4,5-.5,7.5C645.3,160,645,159.4,644.8,159.2Zm-177.4,3.2-5.3-2.6c-.4.3-.2,1.6-.2,2.3C463.8,161.8,465.5,163.3,467.4,162.4Zm-98.7,73.8a5.2,5.2,0,0,0,3.1-2.7c-1.1.1-2.7-.7-3.4.9S366.3,236.9,368.7,236.2ZM981.8,423v-2.2c-1.6.9-4.2.5-5.6,2.2ZM610.9,184.7c1.5-1.3,6.3-2.7,5.1-1.5S612.8,185.8,610.9,184.7Zm-55.8,3.9c1.9-.1,2.2-2.4,2.2-4C555.1,184.4,554.6,187,555.1,188.6Zm376.7,46.3c.2.5.6,1.1,1.1,1s0-2.8.5-3.6.7-3.1-1.2-2C932.5,231.9,931.3,233.4,931.8,234.9ZM307.4,249.8c-1.4-1,.7-2.5,1.8-2.1s.7,2.6.1,3.2S308.1,250.3,307.4,249.8ZM150.5,275.1c-1.4-.8.2-2.5.8-.9s1.7,2.4,2.4,3.7C151.6,278.9,151.5,275.7,150.5,275.1Zm98,111.4c-2-.9.3-1.5.9-.8.8-.9,2.5-3,2.7-1.2S250,387.1,248.5,386.5Zm544.7-272a1.4,1.4,0,0,0,.9.1c.8-.9,1.1-2.4,2.2-3.1-1.4-.6-2.1,1-3.2,1.5S791.8,114.3,793.2,114.5ZM605,140l1.1-2.9c.6-1.2-.5-2.4-1.4-2.8C604.7,136.1,604.5,138.6,605,140ZM398.5,154.1c.3,1.7,2.5.8,4,.9-1.7-.7-2.3-2.3-1.6-4.5C399.8,151.8,398.3,153.2,398.5,154.1Zm59.6,5.8c0-1.5-2.5,0-3.2-1.7s-2.1,1-2.2,1.7ZM312.2,240.6c.2-2.1.8-4.3,2.7-5.5A7.3,7.3,0,0,1,312.2,240.6ZM950.8,474.2c.9-1.1.3-1.6-1.2-.7s-1.3-1.6-.6-3.1a5.4,5.4,0,0,0-2.2,3.8ZM815.7,96a1.7,1.7,0,0,0,2.1-.1c.8-1.2-1-1.9-1.7-2.2S814.8,95.6,815.7,96ZM591.2,147c-1.8.8-.8-2.3-.8-2.2,2.4-3.5,1.7.4,1.6,1.2S591.7,146.7,591.2,147Zm-120.8.8h-4.1c-.7-2.7,2.9-1.2,4.1-1.3Zm-71.9.9c.8,1.5,2.4,1.4,1.5-.4,1.3-1.8-1.4-1.3-1.6-.4ZM104.9,359.2c.8,1.1.9,2.1,1.5,2.3l.8-3.8C105.5,356.7,104.1,358.1,104.9,359.2Zm90.8,69.4h.7c.2-2.3-.2-5.4-1.5-6.8C194.7,424.3,195.4,426.4,195.7,428.6ZM644.3,137.5c-.3,1.6,1.9,3.9,3.2,2.6C646.9,138.3,645.3,138.1,644.3,137.5Zm-202.4,2.2c-2.6,1.2-1.1-1.5-.4-2s2.6.1,1.3,1.3A3.1,3.1,0,0,1,441.9,139.7Zm149.7,30.5c.6-.5,1.2-.9,1.4-1.5s-2-.1-2.3,0C588.9,169.5,590.6,170.8,591.6,170.2ZM260.9,383.4c-.7-.8-.7-2.7.8-2.9s1.2,2.3-.2,2.9ZM967.2,413h2.3c.5,1.2,2.4-.7,1-1.3S967.8,412.1,967.2,413Zm-33.5,68.7c-1,1.2-2.2-1.1-.6-1.5s2.5-2.2,1.5.6ZM787.8,85.5l1.1-3.1c1.1.5,1.8,2.3.4,3h-1.5ZM439.6,127.4c-.9-.4-1-2.9.3-2.3S440.9,128,439.6,127.4ZM151.4,301.8h.8c3.3-.5-.4-1.6-.2-2.8C150.6,299.4,150.9,301.2,151.4,301.8Zm-43.4,78c-1-.5-2-.7-2.7-1.6l-1.3,2.3C105.5,380.8,106.7,380.1,108,379.8Zm106.9,33c.3,0,.5.5.4.4s1.8-3.1-.2-2.5S213,412.5,214.9,412.8Z" fill="url(#Безымянный_градиент_45)"/>
    </g>
  </g>
</svg>
