<svg xmlns="http://www.w3.org/2000/svg" width="360" height="840" viewBox="0 0 360 840">
  <title>arrow43_37332721</title>
  <g id="Layer_2" data-name="Layer 2">
    <g id="Layer_1-2" data-name="Layer 1">
      <g id="arrow43_37332721">
        <polygon points="160 80 120 80 120 120 80 120 80 160 40 160 40 200 160 200 160 640 40 640 40 680 80 680 80 720 120 720 120 760 160 760 160 800 200 800 200 760 240 760 240 720 280 720 280 680 320 680 320 640 200 640 200 200 320 200 320 160 280 160 280 120 240 120 240 80 200 80 200 40 160 40 160 80 160 80" fill="#ffb3fd"/>
        <g>
          <polygon points="40 680 40 720 80 720 80 680 40 680 40 680" fill="#01ffff"/>
          <polygon points="80 640 160 640 160 200 40 200 40 160 0 160 0 240 120 240 120 600 0 600 0 680 40 680 40 640 80 640 80 640" fill="#01ffff"/>
          <polygon points="80 120 40 120 40 160 80 160 80 120 80 120" fill="#01ffff"/>
          <polygon points="80 720 80 760 120 760 120 720 80 720 80 720" fill="#01ffff"/>
          <polygon points="120 80 80 80 80 120 120 120 120 80 120 80" fill="#01ffff"/>
          <polygon points="120 760 120 800 160 800 160 760 120 760 120 760" fill="#01ffff"/>
          <polygon points="160 40 120 40 120 80 160 80 160 40 160 40" fill="#01ffff"/>
          <polygon points="160 840 200 840 200 800 160 800 160 840 160 840" fill="#01ffff"/>
          <polygon points="160 40 200 40 200 0 160 0 160 40 160 40" fill="#01ffff"/>
          <polygon points="200 800 240 800 240 760 200 760 200 800 200 800" fill="#01ffff"/>
          <polygon points="240 80 240 40 200 40 200 80 240 80 240 80" fill="#01ffff"/>
          <polygon points="240 760 280 760 280 720 240 720 240 760 240 760" fill="#01ffff"/>
          <polygon points="280 120 280 80 240 80 240 120 280 120 280 120" fill="#01ffff"/>
          <polygon points="280 720 320 720 320 680 280 680 280 720 280 720" fill="#01ffff"/>
          <polygon points="200 200 200 640 320 640 320 680 360 680 360 600 240 600 240 240 360 240 360 160 320 160 320 200 200 200" fill="#01ffff"/>
          <polygon points="320 160 320 120 280 120 280 160 320 160 320 160" fill="#01ffff"/>
        </g>
      </g>
    </g>
  </g>
</svg>
