<svg xmlns="http://www.w3.org/2000/svg" width="994.5" height="670.4" viewBox="0 0 994.5 670.4">
  <title>arrow55_10268938</title>
  <g id="Layer_2" data-name="Layer 2">
    <g id="Layer_1-2" data-name="Layer 1">
      <g id="arrow55_10268938">
        <g>
          <path d="M478.5,417.4c-3.2-49.7-7.5-99.3-12.2-148.9s-26.7-119.1-13.6-167.6c4.2-15.5-12.8-16-17.2-2.9-.5,1.5-.8,2.9-1.2,4.4-45.4,17.9-137.5-9-180.6-12.7-69.5-5.9-141.1-8-210.8-4.9,15.9-23.1,34.4-44,44.3-71.1,2.3-6.2-5.5-20-10-10.4C58.7,43.8,6.7,73.5.3,119.1c-5.3,38.2,59.7,52.8,85,59.6,10,2.7,7.5-19.2.7-22.2-11.2-5.2-22.3-10.4-33.8-14.9S29.7,132.5,20,124.5c-1.5-1.3,8-16.3,11.3-21.5,92.9,20.5,193.2,14.1,288,22.5,22.5,2,79,9.2,110.9-5.2C421,179.2,444,251.4,449.4,307.5c11,112.2,30.9,243.2,12.9,355.5-1.8,11.5,9.3,8.2,11.3-.5C491.6,584.3,483.7,496.9,478.5,417.4Z" fill="#7cc7fe"/>
          <path d="M992.4,120.5l-1.5-3-.7-1.2c-3-18.4-16.9-34.1-29.1-47.5S938.3,46.2,930,31.2c-3.8-6.8-8.1-13.5-15.5-16.3a4,4,0,0,0-4.3.9l-1.8,1.9c-2.8,2.9-4.4,15.3,2.2,14.9,3.6-.2,12.7,25.3,14.1,27.7,5.6,9.5,29.8,30.4,40.2,48.5-44.4,4.5-90.5,17.4-134.4,23.4-80.6,11-162.9,20.2-243.2,33.3.2-.6.3-1.2.5-1.8,6.9-14.9-13.7-9.7-18.1.1-20.2,44.2,5.2,128.6,10.4,174.8,11.2,98.6,42,213.4,26.7,312.6-1.5,9.4,10.9,2.1,12.3-3.3,19.8-75.5.3-168.7-8.2-245.2-5.5-49.7-13.8-98.8-17.1-148.9-1.3-20.9-11-45.8-10.5-68.4,92.4,12.7,181.2-5,273.3-13.6,13.6-1.2,44.1-2.3,72.8-6.3-23.1,19.8-47.5,38.6-71.3,55.5-6.7,4.8-5.2,27,5.7,23.5,35.2-11.3,60.9-32.3,86.7-57.9,11.5-11.4,24.4-22.7,32.5-36.5a27.3,27.3,0,0,0,7.1-6.2C994.8,137.4,996,127.9,992.4,120.5Z" fill="#7cc7fe"/>
        </g>
      </g>
    </g>
  </g>
</svg>
