<svg xmlns="http://www.w3.org/2000/svg" width="1001.2" height="549.3" viewBox="0 0 1001.2 549.3">
  <title>newarrow106_140672446</title>
  <g id="Layer_2" data-name="Layer 2">
    <g id="newarrow106_140672446">
      <g>
        <path d="M491.2,237.5l-139-63.8c-7.4-3.3-11.2-.6-12.5,4.3-1.1,2.6-1.3,6.2,0,11.1,5.1,19,6.3,38.5,6.1,58.3C265.2,269,189.3,291.8,121,341.1,55.3,388.5,22.3,446.8.4,522.2c-3.8,13,18.9,38.6,23.9,21.3,9.6-33.1,17.5-66.5,37.1-95.4,16.2-23.9,42.9-44.4,63.2-64.8,57.3-57.5,143.1-80,219.9-100.4-1.2,22.6-2.4,45.2,0,67.1.9,8.6,8.3,19.6,17.8,19.4,21.9-.3,48.8-29.8,66.6-41.1,25.4-16.1,54.7-37.8,71.8-63C506.4,256.8,500.1,241.5,491.2,237.5Z" fill="#c5cbe3"/>
        <path d="M975.8,8.7c-13.4,84.5-36.9,129.5-105.6,180.1C818.1,227,745.4,232,682.7,226.7v-.8c2.6-20.6,5.7-45.5-8.6-62.7-16.9-20.3-83.4,28.5-88.2,33.4-3.9,2-7.7,4-11.4,6.2-21.5,12.8-44.8,22.4-66.3,35.2H508l-.9.8c-9.2,7.5,1,29,11.9,30.8l144,73.4c6.3,3.2,13.7.7,13.7-7.3,0-26.2.8-52.1,2.9-78.1,78.1,7.7,155.9-.7,220.7-48.4C968.8,158.9,988.1,104.7,1001,23,1003.2,9.1,979.1-12.1,975.8,8.7Z" fill="#c5cbe3"/>
      </g>
    </g>
  </g>
</svg>
