<svg xmlns="http://www.w3.org/2000/svg" xmlns:xlink="http://www.w3.org/1999/xlink" width="1080" height="1080" viewBox="0 0 1080 1080">
  <defs>
    <linearGradient id="Безымянный_градиент_58" data-name="Безымянный градиент 58" x1="1.58" y1="540" x2="1096.16" y2="540" gradientUnits="userSpaceOnUse">
      <stop offset="0" stop-color="#d6a4c4"/>
      <stop offset="1" stop-color="#fff9d9"/>
    </linearGradient>
  </defs>
  <title>HalftoneShapes02_87770698</title>
  <g id="Слой_2" data-name="Слой 2">
    <g id="HalftoneShapes02_87770698">
      <path id="HalftoneShapes02_87770698-2" data-name="HalftoneShapes02_87770698" d="M354.3,20.4a13.5,13.5,0,1,1,13.5,13.5A13.5,13.5,0,0,1,354.3,20.4Zm82.9,18.3a18.3,18.3,0,1,0-18.3-18.3A18.3,18.3,0,0,0,437.2,38.7Zm69.5,2.1a20.4,20.4,0,1,0-20.4-20.4A20.4,20.4,0,0,0,506.7,40.8Zm69.5-.3a20.1,20.1,0,1,0-20.1-20.1A20,20,0,0,0,576.2,40.5Zm69.5-2.3a17.8,17.8,0,1,0-17.8-17.8A17.8,17.8,0,0,0,645.7,38.2Zm69.4-5.3a12.5,12.5,0,1,0-12.5-12.5A12.6,12.6,0,0,0,715.1,32.9ZM159.4,90.3c.2,0,.3-.2.3-.4s-.1-.4-.3-.4a.4.4,0,0,0,0,.8Zm69.4,13.5A13.9,13.9,0,1,0,215,89.9,13.9,13.9,0,0,0,228.8,103.8Zm69.5,9a22.9,22.9,0,1,0-22.9-22.9A22.8,22.8,0,0,0,298.3,112.8Zm69.5,6a28.9,28.9,0,1,0-28.9-28.9A28.9,28.9,0,0,0,367.8,118.8Zm347.3-1a27.9,27.9,0,1,0-27.9-27.9A28,28,0,0,0,715.1,117.8Zm69.5-6.1a21.8,21.8,0,1,0-21.8-21.8A21.9,21.9,0,0,0,784.6,111.7Zm69.5-9.9a11.9,11.9,0,1,0-12-11.9A11.9,11.9,0,0,0,854.1,101.8ZM159.4,175.7A16.4,16.4,0,1,0,143,159.4,16.3,16.3,0,0,0,159.4,175.7Zm69.4,10.8a27.2,27.2,0,1,0-27.1-27.1A27.1,27.1,0,0,0,228.8,186.5Zm625.3-1.7a25.5,25.5,0,1,0-25.5-25.4A25.4,25.4,0,0,0,854.1,184.8Zm69.4-11.4a14.1,14.1,0,1,0-14-14A14.1,14.1,0,0,0,923.5,173.4ZM89.9,242.7A13.9,13.9,0,1,0,76,228.8,13.9,13.9,0,0,0,89.9,242.7ZM159.4,256a27.2,27.2,0,1,0-27.2-27.2A27.1,27.1,0,0,0,159.4,256Zm764.1-1.9a25.3,25.3,0,1,0-25.2-25.3A25.3,25.3,0,0,0,923.5,254.1ZM993,240a11.2,11.2,0,1,0-11.2-11.2A11.2,11.2,0,0,0,993,240ZM89.9,321.2A22.9,22.9,0,1,0,67,298.3,22.8,22.8,0,0,0,89.9,321.2ZM993,318.9a20.6,20.6,0,1,0-20.6-20.6A20.6,20.6,0,0,0,993,318.9ZM20.4,381.3A13.5,13.5,0,1,0,6.9,367.8,13.5,13.5,0,0,0,20.4,381.3Zm69.5,15.4A28.9,28.9,0,1,0,61,367.8,29,29,0,0,0,89.9,396.7ZM993,394.4a26.6,26.6,0,1,0-26.6-26.6A26.6,26.6,0,0,0,993,394.4Zm69.5-16a10.6,10.6,0,0,0,0-21.2,10.6,10.6,0,1,0,0,21.2ZM20.4,455.5A18.3,18.3,0,1,0,2.1,437.2,18.3,18.3,0,0,0,20.4,455.5Zm972.6,12a30.3,30.3,0,1,0-30.2-30.3A30.3,30.3,0,0,0,993,467.5Zm69.5-14.8a15.5,15.5,0,1,0-15.4-15.5A15.4,15.4,0,0,0,1062.5,452.7ZM20.4,486.3a20.4,20.4,0,1,0,20.4,20.4A20.4,20.4,0,0,0,20.4,486.3Zm922.7,55.1a39.7,39.7,0,0,1,19.3,26.1,31.9,31.9,0,1,1,0,17.3,39.8,39.8,0,0,1-20.3,26.7,38.8,38.8,0,0,1-4.3,70.3,36.2,36.2,0,1,1-46.1,50.6,41.3,41.3,0,0,1-17.7,19,38.9,38.9,0,0,1,18.5,28.7,31.4,31.4,0,1,1,0,9,38.7,38.7,0,0,1-29.4,33.1,33.1,33.1,0,1,1-40.9,40.9,38.7,38.7,0,0,1-33.1,29.4,31.4,31.4,0,1,1-9,0A38.9,38.9,0,0,1,751.4,874a41.3,41.3,0,0,1-19,17.7,36.2,36.2,0,1,1-50.6,46.1,38.9,38.9,0,0,1-70.3,4.3,39.8,39.8,0,0,1-26.7,20.3,31.8,31.8,0,1,1-17.3,0,39.7,39.7,0,0,1-26.1-19.3,39.5,39.5,0,0,1-25.6,19.2,32.1,32.1,0,1,1-18.1,0,40,40,0,0,1-26.2-20,39.1,39.1,0,0,1-70.3-3.5,36.8,36.8,0,1,1-51.5-47.3,41.7,41.7,0,0,1-18-16.8,39.3,39.3,0,0,1-24.4,17.6,32.5,32.5,0,1,1-18,0A39.6,39.6,0,0,1,261,866.4,34.4,34.4,0,1,1,216.2,822a39.7,39.7,0,0,1-25.4-27,33.1,33.1,0,1,1-37.9-42.9,37.5,37.5,0,0,1-10.3-70.5,40.1,40.1,0,0,1-22.1-27.7,31.8,31.8,0,1,1,0-16.5,39.5,39.5,0,0,1,18.8-25.9,41,41,0,0,1-18.5-22.4,33.5,33.5,0,1,1,0-25.8,41.6,41.6,0,0,1,17.3-21.8,40.8,40.8,0,0,1-17.3-21.4,33.7,33.7,0,1,1,0-26.8,41.2,41.2,0,0,1,18.1-21.9,39.5,39.5,0,0,1-18.2-24.7,32.2,32.2,0,1,1,0-18.9,40,40,0,0,1,21.2-26.4,37.9,37.9,0,0,1,8.4-70.5,33.9,33.9,0,1,1,40.5-45.2,40,40,0,0,1,23.3-24.6,35.5,35.5,0,1,1,47-47,40,40,0,0,1,24.6-23.3A33.9,33.9,0,1,1,331,150.3a37.8,37.8,0,0,1,70.4-8.4,40,40,0,0,1,26.4-21.2,32.2,32.2,0,1,1,18.9,0,39.5,39.5,0,0,1,24.7,18.2,41.2,41.2,0,0,1,21.9-18.1,33.7,33.7,0,1,1,26.8,0,41.4,41.4,0,0,1,21.5,17.3,41,41,0,0,1,21.7-17.3,33.5,33.5,0,1,1,25.8,0,41,41,0,0,1,22.4,18.5,39.3,39.3,0,0,1,25.9-18.7,31.8,31.8,0,1,1,16.5,0,39.7,39.7,0,0,1,27.7,22,37.5,37.5,0,0,1,70.5,10.3,33.1,33.1,0,1,1,43,37.9A39.8,39.8,0,0,1,822,216.2,34.5,34.5,0,1,1,866.4,261a39.6,39.6,0,0,1,25.9,28.3,32.6,32.6,0,1,1,0,18,39.3,39.3,0,0,1-17.6,24.4,41.2,41.2,0,0,1,16.8,18,36.8,36.8,0,1,1,47.3,51.5,39.1,39.1,0,0,1,3.5,70.3,40,40,0,0,1,20,26.2,32,32,0,1,1,0,18.1A39.5,39.5,0,0,1,943.1,541.4ZM905,611.5a40.3,40.3,0,0,1-14.5-13A42.3,42.3,0,0,1,878.8,611a43.1,43.1,0,0,1,12.1,13.4A38,38,0,0,1,905,611.5ZM204.7,681a44.6,44.6,0,0,1-12.4-13.2,40.6,40.6,0,0,1-16.1,13.8A37.7,37.7,0,0,1,191.7,696,42.8,42.8,0,0,1,204.7,681ZM176.8,401.4a40.8,40.8,0,0,1,15.6,13.5A42.9,42.9,0,0,1,204.6,402a42.8,42.8,0,0,1-12.9-14.5A37.6,37.6,0,0,1,176.8,401.4ZM530.1,192.8a43.1,43.1,0,0,1,11.3,10.8A44.6,44.6,0,0,1,553,192.7a39.9,39.9,0,0,1-11.4-12.1A41.9,41.9,0,0,1,530.1,192.8ZM179.8,471.4a41.2,41.2,0,0,1,13,11.9,44.2,44.2,0,0,1,11-11.4,43.2,43.2,0,0,1-11.4-12.3A40.6,40.6,0,0,1,179.8,471.4Zm.8,70.1A41.5,41.5,0,0,1,192.7,553a44.6,44.6,0,0,1,10.9-11.6,44.7,44.7,0,0,1-10.8-11.3A40.2,40.2,0,0,1,180.6,541.5Zm-1.1,70a39.7,39.7,0,0,1,12.8,12A44.3,44.3,0,0,1,203.8,611a42.3,42.3,0,0,1-11.1-11.6A42.4,42.4,0,0,1,179.5,611.5ZM904,541.4A38.2,38.2,0,0,1,890.5,529,42.6,42.6,0,0,1,879,541.4a44.3,44.3,0,0,1,11.5,12.5A39.5,39.5,0,0,1,904,541.4Zm.7-69.9a39.1,39.1,0,0,1-13.9-12.9,41.4,41.4,0,0,1-12,13.3,42.3,42.3,0,0,1,11.7,12.5A40,40,0,0,1,904.7,471.5Zm-26.9-69.6a42.1,42.1,0,0,1,13,13.9,40.2,40.2,0,0,1,17.5-14.6,36.4,36.4,0,0,1-16.8-15.4A41.9,41.9,0,0,1,877.8,401.9ZM806,262a41.8,41.8,0,0,1,15,15.1A39.9,39.9,0,0,1,841.7,261,34.6,34.6,0,0,1,822,241.4,39.6,39.6,0,0,1,806,262Zm-71.8-70.3a41.2,41.2,0,0,1,17,16.1,39.4,39.4,0,0,1,22.9-17,33.2,33.2,0,0,1-22-25A37.6,37.6,0,0,1,734.2,191.7Zm-66.4.6A43.4,43.4,0,0,1,681,204.7a42.8,42.8,0,0,1,15-13,37.7,37.7,0,0,1-14.4-15.5A40.6,40.6,0,0,1,667.8,192.3Zm-68.4.4A43.8,43.8,0,0,1,611,203.8a44.3,44.3,0,0,1,12.5-11.5,39.7,39.7,0,0,1-12-12.8A41.3,41.3,0,0,1,599.4,192.7Zm-139.8-.3a43.2,43.2,0,0,1,12.3,11.4,44.2,44.2,0,0,1,11.4-11,41.2,41.2,0,0,1-11.9-13A40.6,40.6,0,0,1,459.6,192.4Zm-72.1-.7A41.9,41.9,0,0,1,402,204.6a42.9,42.9,0,0,1,12.9-12.2,40.8,40.8,0,0,1-13.5-15.6A37,37,0,0,1,387.5,191.7Zm-76.6-.9a40.1,40.1,0,0,1,21,16.3,42.1,42.1,0,0,1,16.2-15.4A37.3,37.3,0,0,1,331,168.4,34.3,34.3,0,0,1,310.9,190.8Zm-67.4,70.3A40.1,40.1,0,0,1,262.1,276,42,42,0,0,1,276,262.1a40.1,40.1,0,0,1-14.9-18.6A35.9,35.9,0,0,1,243.5,261.1Zm-75.1,69.8a37.9,37.9,0,0,1,23.3,17.2,42.1,42.1,0,0,1,15.4-16.2,40.1,40.1,0,0,1-16.3-21A33.9,33.9,0,0,1,168.4,330.9Zm39.4,420.3a41.2,41.2,0,0,1-16.1-17,37.6,37.6,0,0,1-25.9,17.9,33.3,33.3,0,0,1,25,22A39.4,39.4,0,0,1,207.8,751.2ZM277.1,821A42.5,42.5,0,0,1,262,806a39.6,39.6,0,0,1-20.6,16A34.6,34.6,0,0,1,261,841.7,39.6,39.6,0,0,1,277.1,821Zm138.8,69.8a42.5,42.5,0,0,1-14-13,41.9,41.9,0,0,1-16.1,13.7,36.4,36.4,0,0,1,15.4,16.8A39.3,39.3,0,0,1,415.9,890.8Zm68.5-.3a42.3,42.3,0,0,1-12.5-11.7,41.4,41.4,0,0,1-13.3,12,39.1,39.1,0,0,1,12.9,13.9A40,40,0,0,1,484.4,890.5Zm69.5,0a43.2,43.2,0,0,1-12.5-11.6A41.6,41.6,0,0,1,529,890.5,38.2,38.2,0,0,1,541.4,904,39.5,39.5,0,0,1,553.9,890.5Zm70.5.4A43.1,43.1,0,0,1,611,878.8a42.3,42.3,0,0,1-12.5,11.7,40.3,40.3,0,0,1,13,14.5A38.9,38.9,0,0,1,624.4,890.9Zm73.5.8a41.1,41.1,0,0,1-16.8-14.1,41.1,41.1,0,0,1-14.2,13.3,39.1,39.1,0,0,1,14.9,18.4A35.8,35.8,0,0,1,697.9,891.7ZM845,822.2a39,39,0,0,1-23.8-17.1,42.2,42.2,0,0,1-16.1,16.1A39,39,0,0,1,822.2,845,33.1,33.1,0,0,1,845,822.2Zm64.3-140.4a39.1,39.1,0,0,1-18.4-14.9,42,42,0,0,1-13.3,14.2,41.1,41.1,0,0,1,14.1,16.8A36.3,36.3,0,0,1,909.3,681.8Zm153.2-157.6a17.5,17.5,0,1,0-17.6-17.5A17.5,17.5,0,0,0,1062.5,524.2ZM20.4,556.1a20.1,20.1,0,1,0,20,20.1A20.1,20.1,0,0,0,20.4,556.1ZM1062.5,559a17.2,17.2,0,1,0,17.1,17.2A17.2,17.2,0,0,0,1062.5,559ZM20.4,627.9a17.8,17.8,0,1,0,17.7,17.8A17.8,17.8,0,0,0,20.4,627.9ZM993,615.8a29.9,29.9,0,1,0,29.9,29.9A29.9,29.9,0,0,0,993,615.8Zm69.5,15a14.9,14.9,0,1,0,14.8,14.9A14.9,14.9,0,0,0,1062.5,630.8ZM20.4,702.6a12.6,12.6,0,1,0,12.5,12.5A12.5,12.5,0,0,0,20.4,702.6Zm69.5-15.4a27.9,27.9,0,1,0,27.9,27.9A27.9,27.9,0,0,0,89.9,687.2ZM993,689.1a26,26,0,1,0,26,26A26,26,0,0,0,993,689.1Zm69.5,16.6a9.5,9.5,0,1,0,9.4,9.4A9.5,9.5,0,0,0,1062.5,705.7ZM89.9,762.8a21.8,21.8,0,1,0,21.8,21.8A21.9,21.9,0,0,0,89.9,762.8ZM993,765.3a19.3,19.3,0,1,0,19.3,19.3A19.4,19.4,0,0,0,993,765.3ZM89.9,842.1a12,12,0,1,0,0,23.9,12,12,0,0,0,0-23.9Zm69.5-13.5a25.5,25.5,0,1,0,25.4,25.5A25.5,25.5,0,0,0,159.4,828.6Zm764.1,1.9A23.6,23.6,0,1,0,947,854.1,23.6,23.6,0,0,0,923.5,830.5ZM993,845a9.1,9.1,0,1,0,0,18.1,9.1,9.1,0,0,0,0-18.1ZM159.4,909.5a14.1,14.1,0,1,0,14,14A14.1,14.1,0,0,0,159.4,909.5Zm69.4-11.2a25.3,25.3,0,1,0,25.3,25.2A25.2,25.2,0,0,0,228.8,898.3ZM854.1,900a23.5,23.5,0,1,0,23.5,23.5A23.5,23.5,0,0,0,854.1,900Zm69.4,11.6a12,12,0,0,0,0,23.9,12,12,0,1,0,0-23.9ZM228.8,981.8A11.2,11.2,0,1,0,240,993,11.2,11.2,0,0,0,228.8,981.8Zm69.5-9.4A20.6,20.6,0,1,0,318.9,993,20.6,20.6,0,0,0,298.3,972.4Zm69.5-6A26.6,26.6,0,1,0,394.4,993,26.6,26.6,0,0,0,367.8,966.4Zm69.4-3.6A30.2,30.2,0,1,0,467.5,993,30.2,30.2,0,0,0,437.2,962.8Zm208.5.3A29.9,29.9,0,1,0,675.5,993,29.9,29.9,0,0,0,645.7,963.1Zm69.4,3.9a26,26,0,1,0,26,26A26,26,0,0,0,715.1,967Zm69.5,6.7A19.3,19.3,0,1,0,803.9,993,19.4,19.4,0,0,0,784.6,973.7Zm69.5,10.2a9.1,9.1,0,1,0,0,18.1,9.1,9.1,0,0,0,0-18.1Zm-486.3,68a10.6,10.6,0,0,0,0,21.2,10.6,10.6,0,1,0,0-21.2Zm69.4-4.8a15.4,15.4,0,1,0,15.4,15.4A15.4,15.4,0,0,0,437.2,1047.1Zm69.5-2.2a17.6,17.6,0,1,0,17.5,17.6A17.5,17.5,0,0,0,506.7,1044.9Zm69.5.4a17.2,17.2,0,1,0,17.1,17.2A17.2,17.2,0,0,0,576.2,1045.3Zm69.5,2.3a14.9,14.9,0,1,0,14.8,14.9A14.9,14.9,0,0,0,645.7,1047.6Zm69.4,5.4a9.5,9.5,0,1,0,9.5,9.5A9.5,9.5,0,0,0,715.1,1053Z" fill="url(#Безымянный_градиент_58)"/>
    </g>
  </g>
</svg>
