<svg xmlns="http://www.w3.org/2000/svg" width="1001.2" height="478.6" viewBox="0 0 1001.2 478.6">
  <title>newarrow26_294785144</title>
  <g id="Layer_2" data-name="Layer 2">
    <g id="newarrow26_294785144">
      <g>
        <g>
          <path d="M47.7,23.8A23.9,23.9,0,1,1,23.8,0,23.9,23.9,0,0,1,47.7,23.8Z" fill="#cf3"/>
          <path d="M100.6,77.7A23.8,23.8,0,1,1,76.8,53.9,23.7,23.7,0,0,1,100.6,77.7Z" fill="#cf3"/>
          <path d="M153.6,131.6a23.9,23.9,0,1,1-23.8-23.9A23.9,23.9,0,0,1,153.6,131.6Z" fill="#cf3"/>
          <path d="M206.6,185.4a23.9,23.9,0,1,1-23.8-23.8A23.9,23.9,0,0,1,206.6,185.4Z" fill="#cf3"/>
          <path d="M259.6,239.3a23.9,23.9,0,1,1-23.9-23.8A23.8,23.8,0,0,1,259.6,239.3Z" fill="#cf3"/>
          <path d="M206.6,293.2a23.9,23.9,0,1,1-23.8-23.9A23.9,23.9,0,0,1,206.6,293.2Z" fill="#cf3"/>
          <path d="M153.6,347a23.9,23.9,0,1,1-23.8-23.8A23.9,23.9,0,0,1,153.6,347Z" fill="#cf3"/>
          <path d="M100.6,400.9A23.8,23.8,0,1,1,76.8,377,23.8,23.8,0,0,1,100.6,400.9Z" fill="#cf3"/>
          <path d="M47.7,454.7a23.9,23.9,0,1,1-23.9-23.8A23.9,23.9,0,0,1,47.7,454.7Z" fill="#cf3"/>
        </g>
        <g>
          <path d="M153.6,23.8A23.9,23.9,0,1,1,129.8,0,23.9,23.9,0,0,1,153.6,23.8Z" fill="#cf3"/>
          <path d="M206.6,77.7a23.9,23.9,0,1,1-23.8-23.8A23.8,23.8,0,0,1,206.6,77.7Z" fill="#cf3"/>
          <path d="M259.6,131.6a23.9,23.9,0,1,1-23.9-23.9A23.9,23.9,0,0,1,259.6,131.6Z" fill="#cf3"/>
          <path d="M312.5,185.4a23.8,23.8,0,1,1-23.8-23.8A23.8,23.8,0,0,1,312.5,185.4Z" fill="#cf3"/>
          <path d="M365.5,239.3a23.9,23.9,0,1,1-23.8-23.8A23.8,23.8,0,0,1,365.5,239.3Z" fill="#cf3"/>
          <path d="M312.5,293.2a23.8,23.8,0,1,1-23.8-23.9A23.8,23.8,0,0,1,312.5,293.2Z" fill="#cf3"/>
          <circle cx="235.7" cy="347" r="23.8" fill="#cf3"/>
          <path d="M206.6,400.9A23.9,23.9,0,1,1,182.8,377,23.9,23.9,0,0,1,206.6,400.9Z" fill="#cf3"/>
          <path d="M153.6,454.7a23.9,23.9,0,1,1-23.8-23.8A23.9,23.9,0,0,1,153.6,454.7Z" fill="#cf3"/>
        </g>
        <g>
          <path d="M365.5,23.8A23.9,23.9,0,1,1,341.7,0,23.9,23.9,0,0,1,365.5,23.8Z" fill="#cf3"/>
          <path d="M418.5,77.7a23.9,23.9,0,1,1-23.9-23.8A23.8,23.8,0,0,1,418.5,77.7Z" fill="#cf3"/>
          <path d="M471.4,131.6a23.8,23.8,0,1,1-23.8-23.9A23.8,23.8,0,0,1,471.4,131.6Z" fill="#cf3"/>
          <path d="M524.4,185.4a23.9,23.9,0,1,1-23.8-23.8A23.9,23.9,0,0,1,524.4,185.4Z" fill="#cf3"/>
          <path d="M577.4,239.3a23.9,23.9,0,1,1-23.8-23.8A23.8,23.8,0,0,1,577.4,239.3Z" fill="#cf3"/>
          <path d="M524.4,293.2a23.9,23.9,0,1,1-23.8-23.9A23.9,23.9,0,0,1,524.4,293.2Z" fill="#cf3"/>
          <path d="M471.4,347a23.8,23.8,0,1,1-23.8-23.8A23.8,23.8,0,0,1,471.4,347Z" fill="#cf3"/>
          <path d="M418.5,400.9A23.9,23.9,0,1,1,394.6,377,23.9,23.9,0,0,1,418.5,400.9Z" fill="#cf3"/>
          <path d="M365.5,454.7a23.9,23.9,0,1,1-23.8-23.8A23.9,23.9,0,0,1,365.5,454.7Z" fill="#cf3"/>
        </g>
        <g>
          <path d="M471.4,23.8A23.8,23.8,0,1,1,447.6,0,23.8,23.8,0,0,1,471.4,23.8Z" fill="#cf3"/>
          <path d="M524.4,77.7a23.9,23.9,0,1,1-23.8-23.8A23.8,23.8,0,0,1,524.4,77.7Z" fill="#cf3"/>
          <path d="M577.4,131.6a23.9,23.9,0,1,1-23.8-23.9A23.9,23.9,0,0,1,577.4,131.6Z" fill="#cf3"/>
          <path d="M630.4,185.4a23.9,23.9,0,1,1-23.9-23.8A23.9,23.9,0,0,1,630.4,185.4Z" fill="#cf3"/>
          <path d="M683.3,239.3a23.8,23.8,0,1,1-23.8-23.8A23.7,23.7,0,0,1,683.3,239.3Z" fill="#cf3"/>
          <path d="M630.4,293.2a23.9,23.9,0,1,1-23.9-23.9A23.9,23.9,0,0,1,630.4,293.2Z" fill="#cf3"/>
          <path d="M577.4,347a23.9,23.9,0,1,1-23.8-23.8A23.9,23.9,0,0,1,577.4,347Z" fill="#cf3"/>
          <path d="M524.4,400.9A23.9,23.9,0,1,1,500.6,377,23.9,23.9,0,0,1,524.4,400.9Z" fill="#cf3"/>
          <path d="M471.4,454.7a23.8,23.8,0,1,1-23.8-23.8A23.8,23.8,0,0,1,471.4,454.7Z" fill="#cf3"/>
        </g>
        <g>
          <path d="M683.3,23.8A23.8,23.8,0,1,1,659.5,0,23.8,23.8,0,0,1,683.3,23.8Z" fill="#cf3"/>
          <path d="M736.3,77.7a23.9,23.9,0,1,1-23.8-23.8A23.8,23.8,0,0,1,736.3,77.7Z" fill="#cf3"/>
          <path d="M789.3,131.6a23.9,23.9,0,1,1-23.9-23.9A23.9,23.9,0,0,1,789.3,131.6Z" fill="#cf3"/>
          <path d="M842.2,185.4a23.8,23.8,0,1,1-23.8-23.8A23.8,23.8,0,0,1,842.2,185.4Z" fill="#cf3"/>
          <path d="M895.2,239.3a23.9,23.9,0,1,1-23.8-23.8A23.8,23.8,0,0,1,895.2,239.3Z" fill="#cf3"/>
          <path d="M842.2,293.2a23.8,23.8,0,1,1-23.8-23.9A23.8,23.8,0,0,1,842.2,293.2Z" fill="#cf3"/>
          <path d="M789.3,347a23.9,23.9,0,1,1-23.9-23.8A23.9,23.9,0,0,1,789.3,347Z" fill="#cf3"/>
          <path d="M736.3,400.9A23.9,23.9,0,1,1,712.5,377,23.9,23.9,0,0,1,736.3,400.9Z" fill="#cf3"/>
          <path d="M683.3,454.7a23.8,23.8,0,1,1-23.8-23.8A23.8,23.8,0,0,1,683.3,454.7Z" fill="#cf3"/>
        </g>
        <g>
          <path d="M789.3,23.8A23.9,23.9,0,1,1,765.4,0,23.9,23.9,0,0,1,789.3,23.8Z" fill="#cf3"/>
          <path d="M842.2,77.7a23.8,23.8,0,1,1-23.8-23.8A23.7,23.7,0,0,1,842.2,77.7Z" fill="#cf3"/>
          <path d="M895.2,131.6a23.9,23.9,0,1,1-23.8-23.9A23.9,23.9,0,0,1,895.2,131.6Z" fill="#cf3"/>
          <path d="M948.2,185.4a23.9,23.9,0,1,1-23.8-23.8A23.9,23.9,0,0,1,948.2,185.4Z" fill="#cf3"/>
          <path d="M1001.2,239.3a23.9,23.9,0,1,1-23.9-23.8A23.8,23.8,0,0,1,1001.2,239.3Z" fill="#cf3"/>
          <path d="M948.2,293.2a23.9,23.9,0,1,1-23.8-23.9A23.9,23.9,0,0,1,948.2,293.2Z" fill="#cf3"/>
          <path d="M895.2,347a23.9,23.9,0,1,1-23.8-23.8A23.9,23.9,0,0,1,895.2,347Z" fill="#cf3"/>
          <path d="M842.2,400.9A23.8,23.8,0,1,1,818.4,377,23.8,23.8,0,0,1,842.2,400.9Z" fill="#cf3"/>
          <path d="M789.3,454.7a23.9,23.9,0,1,1-23.9-23.8A23.9,23.9,0,0,1,789.3,454.7Z" fill="#cf3"/>
        </g>
      </g>
    </g>
  </g>
</svg>
