<svg xmlns="http://www.w3.org/2000/svg" width="1032" height="1035" viewBox="0 0 1032 1035">
  <title>arrow47_8038432</title>
  <g id="Layer_2" data-name="Layer 2">
    <g id="newarrow154_97993632">
      <path id="arrow47_8038432" d="M0,517.5C0,803.3,231.7,1035,517.5,1035c267,0,486.7-202.2,514.5-461.8H449.5L619.1,742.9a58.1,58.1,0,0,1-82.2,82.2L270.5,558.6a40.8,40.8,0,0,1-4-4.4,57.9,57.9,0,0,1,4-77.8L536.9,209.9a58.2,58.2,0,0,1,82.2,82.3L454.4,457h577C1001.4,199.7,782.8,0,517.5,0,231.7,0,0,231.7,0,517.5Z" fill="#fff"/>
    </g>
  </g>
</svg>
