<svg xmlns="http://www.w3.org/2000/svg" width="1015.1" height="793.1" viewBox="-0.0041961669921875 -0.00833333469927311 1015.0863647460938 793.1083984375" style=""><g><title>nbanner99_371331916</title><g data-name="Layer 2"><path d="M827.3 182.5c0-23.1 20.9-156.6 3.8-173.7-9.5-9.5-104.5 1.2-123 1.2H353C317.5 10 18.2-8.1 13.8 15.1-20.6 197.7 42.3 395 15.7 580.7c-3.9 27.9-23 179.8-2.5 200.3 14.7 14.7 103.6 5.1 125.5 5.1 121 0 249 12.2 367.8-7.6 37.8-6.3 312.5 9.5 325.8-3.8 9.1-9.1 2.1-121.5 5.1-139.5 24-144.1-10.1-305.5-10.1-452.7zM570.9 79.2c.1-1 .2-2.3.3-3.4s1.8-1.4 2-3.5.4-6 2.8-8.1c4.9-4.5 16.1-7.9 22.7-5.3s9.7 7.4 12.1 14.6 2.1 18.3-1.6 24a19.1 19.1 0 0 1-14.9 8.4 20.4 20.4 0 0 1-17-6.9c-5-5.7-6.8-11.2-6.4-19.8zm-383.4-6.5c0-.9.2-2.2.3-3.4s1.8-1.3 2-3.4.4-6 2.8-8.2c4.8-4.5 16.1-7.8 22.7-5.3s9.7 7.4 12.1 14.7 2.1 18.2-1.6 23.9a19.1 19.1 0 0 1-14.9 8.4 20.6 20.6 0 0 1-17-6.8c-5-5.7-6.8-11.3-6.4-19.9zm129.3 21.5c-5-5.7-6.7-11.3-6.3-19.9a22.4 22.4 0 0 1 .3-3.4c.9-.4 1.8-1.3 1.9-3.4s.4-6 2.8-8.2c4.9-4.5 16.1-7.8 22.8-5.2s9.7 7.3 12 14.6 2.1 18.2-1.6 23.9a19.3 19.3 0 0 1-14.9 8.5 21.1 21.1 0 0 1-17-6.9zm123.9-16.6a23.6 23.6 0 0 1 .3-3.5c.9-.4 1.8-1.3 2-3.4s.3-6 2.7-8.2c4.9-4.4 16.2-7.7 22.8-5.2s9.7 7.4 12 14.6 2.2 18.2-1.6 23.9a18.8 18.8 0 0 1-14.9 8.5 20.9 20.9 0 0 1-17-6.9c-4.9-5.7-6.7-11.2-6.3-19.8zm260.8-3.5c.9-.4 1.8-1.4 1.9-3.4s.4-6 2.8-8.2c4.9-4.4 16.2-7.7 22.8-5.2s9.7 7.4 12 14.7 2.1 18.1-1.6 23.8a18.8 18.8 0 0 1-14.9 8.5 20.7 20.7 0 0 1-17-6.9c-4.9-5.7-6.7-11.2-6.3-19.8a21.6 21.6 0 0 1 .3-3.5zM95.2 99.4a20.6 20.6 0 0 1-17-6.8c-5-5.7-6.8-11.3-6.4-19.9.1-.9.2-2.2.3-3.4a3.6 3.6 0 0 0 2-3.4c.1-1.5.4-6 2.8-8.2 4.9-4.5 16.1-7.8 22.8-5.3s9.6 7.4 12 14.7 2.1 18.2-1.6 23.9a19.1 19.1 0 0 1-14.9 8.4z" fill="#fff"></path><path d="M839.9 348.7c-4.6-55.2-9.3-112.2-9.3-166.2 0-5.9 1.5-19.6 3.3-36.9 7-66.1 12.2-126.5-.5-139.1-6.7-6.8-38-5.8-97.2-1.5-12.5.9-23.2 1.7-28.1 1.7H353c-7 0-24.3-.7-48.3-1.7C257.2 3.1 185.4.2 124.9 0 91.6-.1 65.5.7 47.1 2.4 16.5 5.1 11.5 9.9 10.6 14.5c-18 95.5-9.4 196.6-1.1 294.3 7.7 89.9 15.6 182.8 3 271.4C10 597.8 4.5 642 2 683.4c-5.3 85.8 5.4 96.5 8.9 100 11.5 11.5 56.2 9.9 105 7 9.7-.5 18.1-1 22.8-1 33.2 0 67.5.9 100.8 1.8s68.5 1.9 102.9 1.9c55.7 0 111.2-2.4 164.6-11.3 15.6-2.7 73.8-1.4 135.5 0 114.1 2.4 184.1 3.4 192.2-4.8 5.7-5.7 6.3-33.2 5.5-92.6-.3-21.7-.6-42.2.5-48.7 15.2-91.5 7.1-190.9-.8-287zm-5.7 285.9c-1.2 7-.9 26.9-.6 49.9.4 30.9 1.1 82.6-3.6 87.8-8 6.7-116 4.4-187.4 2.8-64.6-1.4-120.5-2.6-136.7.1-85.8 14.3-177.5 11.8-266.3 9.4-33.2-.9-67.6-1.8-100.9-1.8-4.9 0-13 .4-23.2 1-31.3 1.8-89.6 5.2-100-5.1C-.2 762.9 9.3 649.1 19 581.1c12.8-89.3 4.8-182.6-2.9-272.8C7.9 211-.7 110.4 17.1 15.8c1.2-2.3 12.6-9.5 110.3-9.2 59.8.2 130.4 3.1 177.1 5.1 24 1 41.4 1.7 48.5 1.7h355.1c5.1 0 15.4-.8 28.6-1.8 25.8-1.9 86.2-6.3 92-.5 11.5 11.5 3.1 91.1-1.4 133.8-1.9 17.5-3.3 31.3-3.3 37.6 0 54.2 4.7 111.4 9.3 166.8 7.8 95.7 16 194.7.9 285.3z" fill="#252532"></path><path d="M839.9 348.7c-4.6-55.2-9.3-112.2-9.3-166.2 0-5.9 1.5-19.6 3.3-36.9 7-66.1 12.2-126.5-.5-139.1-6.7-6.8-38-5.8-97.2-1.5-12.5.9-23.2 1.7-28.1 1.7H353c-7 0-24.3-.7-48.3-1.7C257.2 3.1 185.4.2 124.9 0 91.6-.1 65.5.7 47.1 2.4 16.5 5.1 11.5 9.9 10.6 14.5c-18 95.5-9.4 196.6-1.1 294.3 7.7 89.9 15.6 182.8 3 271.4C10 597.8 4.5 642 2 683.4c-5.3 85.8 5.4 96.5 8.9 100 11.5 11.5 56.2 9.9 105 7 9.7-.5 18.1-1 22.8-1 33.2 0 67.5.9 100.8 1.8s68.5 1.9 102.9 1.9c55.7 0 111.2-2.4 164.6-11.3 15.6-2.7 73.8-1.4 135.5 0 114.1 2.4 184.1 3.4 192.2-4.8 5.7-5.7 6.3-33.2 5.5-92.6-.3-21.7-.6-42.2.5-48.7 15.2-91.5 7.1-190.9-.8-287zm-5.7 285.9c-1.2 7-.9 26.9-.6 49.9.4 30.9 1.1 82.6-3.6 87.8-8 6.7-116 4.4-187.4 2.8-64.6-1.4-120.5-2.6-136.7.1-85.8 14.3-177.5 11.8-266.3 9.4-33.2-.9-67.6-1.8-100.9-1.8-4.9 0-13 .4-23.2 1-31.3 1.8-89.6 5.2-100-5.1C-.2 762.9 9.3 649.1 19 581.1c12.8-89.3 4.8-182.6-2.9-272.8C7.9 211-.7 110.4 17.1 15.8c1.2-2.3 12.6-9.5 110.3-9.2 59.8.2 130.4 3.1 177.1 5.1 24 1 41.4 1.7 48.5 1.7h355.1c5.1 0 15.4-.8 28.6-1.8 25.8-1.9 86.2-6.3 92-.5 11.5 11.5 3.1 91.1-1.4 133.8-1.9 17.5-3.3 31.3-3.3 37.6 0 54.2 4.7 111.4 9.3 166.8 7.8 95.7 16 194.7.9 285.3z" fill="#252532"></path><path d="M118 65c-3-9.1-8.8-16-16-18.7-9.3-3.6-23.1.5-29.6 6.5a16.4 16.4 0 0 0-4.6 9.7c-1.4 1.1-2.3 3.7-2.6 9.9-.5 10.2 1.9 17.6 8 24.5a27.2 27.2 0 0 0 20.5 9.2h2a25.4 25.4 0 0 0 19.9-11.4c4.9-7.5 5.8-19.1 2.4-29.7zm-7.9 26a19.1 19.1 0 0 1-14.9 8.4 20.6 20.6 0 0 1-17-6.8c-5-5.7-6.8-11.3-6.4-19.9.1-.9.2-2.2.3-3.4a3.6 3.6 0 0 0 2-3.4c.1-1.5.4-6 2.8-8.2 4.9-4.5 16.1-7.8 22.8-5.3s9.6 7.4 12 14.7 2.1 18.2-1.6 23.9z" fill="#252532"></path><path d="M233.7 65c-3-9.1-8.8-16-16-18.7-9.3-3.6-23.1.5-29.6 6.5a16.4 16.4 0 0 0-4.6 9.7c-1.5 1-2.3 3.6-2.6 9.9-.5 10.2 1.9 17.5 8 24.5a26.8 26.8 0 0 0 20.5 9.2h1.9a25.5 25.5 0 0 0 20-11.4c4.9-7.5 5.8-19.1 2.4-29.7zm-7.9 26a19.1 19.1 0 0 1-14.9 8.4 20.6 20.6 0 0 1-17-6.8c-5-5.7-6.8-11.3-6.4-19.9 0-.9.2-2.2.3-3.4s1.8-1.3 2-3.4.4-6 2.8-8.2c4.8-4.5 16.1-7.8 22.7-5.3s9.7 7.4 12.1 14.7 2.1 18.2-1.6 23.9z" fill="#252532"></path><path d="M486.9 69.9c-3-9.2-8.8-16-16-18.8-9.3-3.6-23.1.6-29.6 6.5-3.1 2.8-4.2 6.8-4.7 9.7-1.4 1.1-2.2 3.7-2.5 10-.5 10.2 1.9 17.5 8 24.5a27.2 27.2 0 0 0 20.5 9.2h1.9a25.6 25.6 0 0 0 20-11.4c4.8-7.6 5.8-19.2 2.4-29.7zm-8 25.9a18.8 18.8 0 0 1-14.9 8.5 20.9 20.9 0 0 1-17-6.9c-4.9-5.7-6.7-11.2-6.3-19.8a23.6 23.6 0 0 1 .3-3.5c.9-.4 1.8-1.3 2-3.4s.3-6 2.7-8.2c4.9-4.4 16.2-7.7 22.8-5.2s9.7 7.4 12 14.6 2.2 18.2-1.6 23.9z" fill="#252532"></path><path d="M747.3 69.9c-3-9.2-8.8-16-15.9-18.8-9.4-3.6-23.1.6-29.7 6.5-3 2.8-4.1 6.8-4.6 9.7-1.4 1.1-2.3 3.7-2.6 10-.4 10.2 2 17.5 8 24.5A27.5 27.5 0 0 0 723 111h2a25.8 25.8 0 0 0 20-11.4c4.8-7.5 5.7-19.1 2.3-29.7zm-7.9 25.9a18.8 18.8 0 0 1-14.9 8.5 20.7 20.7 0 0 1-17-6.9c-4.9-5.7-6.7-11.2-6.3-19.8a21.6 21.6 0 0 1 .3-3.5c.9-.4 1.8-1.4 1.9-3.4s.4-6 2.8-8.2c4.9-4.4 16.2-7.7 22.8-5.2s9.7 7.4 12 14.7 2.1 18.1-1.6 23.8z" fill="#252532"></path><path d="M356.6 66.7c-3-9.2-8.8-16.1-15.9-18.8-9.4-3.6-23.1.5-29.7 6.5-3 2.8-4.1 6.8-4.6 9.7-1.4 1.1-2.3 3.7-2.5 9.9-.5 10.3 1.9 17.6 7.9 24.5a27.2 27.2 0 0 0 20.6 9.2h1.9a25.9 25.9 0 0 0 20-11.5c4.8-7.4 5.7-19 2.3-29.5zm-7.9 25.9a19.3 19.3 0 0 1-14.9 8.5 21.1 21.1 0 0 1-17-6.9c-5-5.7-6.7-11.3-6.3-19.9a22.4 22.4 0 0 1 .3-3.4c.9-.4 1.8-1.3 1.9-3.4s.4-6 2.8-8.2c4.9-4.5 16.1-7.8 22.8-5.2s9.7 7.3 12 14.6 2.1 18.2-1.6 23.9z" fill="#252532"></path><path d="M617.1 71.5c-3-9.2-8.8-16-16-18.8-9.3-3.6-23.1.6-29.6 6.6-3 2.7-4.2 6.7-4.6 9.6-1.5 1.1-2.3 3.7-2.6 10-.5 10.2 1.9 17.5 8 24.5a27.3 27.3 0 0 0 20.5 9.2h1.9a25.5 25.5 0 0 0 20-11.4c4.9-7.5 5.8-19.1 2.4-29.7zm-7.9 26a19.1 19.1 0 0 1-14.9 8.4 20.4 20.4 0 0 1-17-6.9c-5-5.7-6.8-11.2-6.4-19.8.1-1 .2-2.3.3-3.4s1.8-1.4 2-3.5.4-6 2.8-8.1c4.9-4.5 16.1-7.9 22.7-5.3s9.7 7.4 12.1 14.6 2.1 18.3-1.6 24z" fill="#252532"></path><path d="M699.2 319c15.1 6.4 201.3-2 239.9 18 3.7 2-3.6 19.8-.1 23.8 14.7 17.2 34.6 30 46.9 49.4 4.4 6.8-7.9 8.2-5.5 13 5.7 11.3 39.5 36.4 34.1 51.7-6.5 18.4-359-6.7-361.7-13.4-4.3-10.7 34.1-42.6 33.3-55.3-1.1-17.3-12.3-53.7 2-69.8 1.4-1.6 9-18.3 11.1-17.4z" fill="#fda43e"></path></g></g></svg>