<svg xmlns="http://www.w3.org/2000/svg" width="316.4" height="841.4" viewBox="0.03900718688964844 0 316.36883544921875 841.3670654296875" style=""><g><title>lovelic72_183358644</title><g data-name="Layer 2"><path d="M294.7 49.9l14.5 47.3h-2.8l-15.2-45.3s.2-3.6 3.5-2z" fill="#ffedb8"></path><path d="M210.4 549.8s-83.8 264.9-123.2 286c-7.2-.1 37.5-221.6 39.1-231.6s-8-79.4 84.1-54.4z" fill="#c9916c"></path><path d="M98.1 548.1s33.5 134 55.2 177.5 53.6 123.9 65.6 115.1-44.5-281.4-44.5-281.4z" fill="#ffba8a"></path><path d="M125.8 424.1s-14.7 33.7-20.5 40.5 53.6 17.9 64.9 17.8 40.3-15.6 40.3-15.6-9.2-39.6-12.2-44.2-72.5 1.5-72.5 1.5z" fill="#ffba8a"></path><path d="M167.4 237.5s46.8-18 70.6-47.7 55.6-84.7 58.8-89.9 8.1-10.5 12.6-8.4 1.5 5.9 1.5 5.9 3.7 1.3 3.7 3.8a11.1 11.1 0 0 1-1.4 4.8 2.5 2.5 0 0 1 3.1 2.6 9 9 0 0 1-1.5 5.4s2.1-.2 1.5 3.9a10.6 10.6 0 0 1-2.7 5.9s-53 94.2-64.2 109.4-64.5 49.3-64.5 49.3z" fill="#ffba8a"></path><path d="M109.6 259.4s-12.4 12.8-15.7 24.2S67.1 374.8 54 402.3 9.8 460.8 9.8 460.8s-4.4-4.4-6.1-1.4 2.2 6.5 2.2 6.5-7 6.5-5.7 9.5 6.8.7 6.8.7-4.5 4.4-2.2 6.7 6.9-.6 6.9-.6-3 4.7-.1 5.7 5.7-2 5.7-2-1.8 3.5 1.4 3.4 6.6-5 6.6-5 51.7-55.2 64.8-84.1 22.7-68.5 22.7-68.5l3 13.9s18.9-1.2 20.8-29.4-27-56.8-27-56.8z" fill="#ffba8a"></path><path d="M116 254.4l-6.4 5s19.4 34.5 20.5 55.2-10.6 30.2-14.3 31c0 0 18.9 53.8 9.1 78.6 5.3 9.5 69.6 11.1 75.3 0 0-1.6-9.2-46.7-3.2-64.2s11.4-25.1 9.5-40.3-28.6-75.2-39.1-82.2c0 0-3.7.7-6 1.3-3.1 3.9-35.8 22.5-45.4 15.6z" fill="#ffe296"></path><path d="M125.8 221.5s.5 15.9-1.4 19.7-8.4 13.2-8.4 13.2 24.4 45.7 41.1 46.4 23.4-18.6 20.8-31.8-16.5-30.2-16.5-30.2-6.8 2.4-8.1-.3.9-20.5.9-20.5 36.1 11.7 50.4-21.6 1.8-94.2 1.8-94.2S86.1 86 90.2 140.2c17.3 53.7 35.6 81.3 35.6 81.3z" fill="#ffba8a"></path><path d="M94.9 237.8s-6.4 29.6-5.9 42.6-16.1 13.5-18.6 6.2c-4 14.2-12.1 19.3-17.2 14.2s-4.9-16.1-4.9-16.1-7.6 18.6-13.4 10.8-2.8-22.5-2.8-22.5-8.4 7-9.2-2.7 5.1-21.2 5.1-21.2-7.8 4.5-4.5-8.2 43.4-52.2 54-56.2 17.4 53.1 17.4 53.1z" fill="#ff8d14"></path><path d="M112 204a47 47 0 0 0-14 22.4c-3.6 14-6.6 27.5-13.8 21s-3.3-19.1-3.3-19.1-17.4 12.6-18.9 2.2 7.4-19.5 7.4-19.5-6.6 1.4-5.5-7 5.8-19.9 28.1-24.3 20 24.3 20 24.3z" fill="#e36612"></path><path d="M124.2 152.2s3.7 7.2 6.9 3.5S133 133 133 133s3.5 3.2 5.4.8 2.8-16.4 10.8-23.1 56.4-6.9 57.2-8.5-1.9-6.7-1.9-6.7 16.3-7.2 14.4-12.9-18.6-4.1-18.6-4.1 12.8-9.4 10.2-14.2-26.4-2.8-26-3.3 13.1-5.7 9.3-11.4-41.8-3.4-64.5 18.7c0 0 5.9-13.6-2.7-10.9s-41.8 33.5-46.2 70.7 15.9 68.9 28.9 77.8 14.3 16.2 16.5 15.6 3.2-37.5-3.5-46.4c-9.5-2.9-15.4-17.3-7.9-25.1s9.8 2.2 9.8 2.2z" fill="#ff8d14"></path><path d="M154.2 137.1s-.1 17.4 5.5 19.3 8-12 4.9-19.9-10.7-5.2-10.4.6z"></path><path d="M167.4 137.2a2.9 2.9 0 0 1-3 3 3 3 0 0 1-3-3 3.1 3.1 0 0 1 3-3 3 3 0 0 1 3 3z" fill="#fff"></path><path d="M187.6 133.2s-.1 17.5 5.5 19.4 7.9-12.1 4.9-19.9-10.7-5.3-10.4.5z"></path><path d="M200.8 133.4a3 3 0 1 1-3-3.1 3 3 0 0 1 3 3.1z" fill="#fff"></path><path d="M162.1 179.3a12.1 12.1 0 0 0 10.9 3.5c6.9-1.1 7.9-5.2 9.5-3.5s-2.8 7.4-11.7 7.7-12.2-6.2-11.4-8.1 2.7.4 2.7.4z" fill="#ff896e"></path><path d="M149.4 124.5c-.3-.1 12.7-12.4 19.3-10.7 2.8 5.7-9.2 12.3-19.3 10.7z" fill="#632c08"></path><path d="M197.4 117.5c.2-.1-7.7-8.3-15.2-4.3-2 1.1 6.7 9.6 15.2 4.3z" fill="#632c08"></path><path d="M121.1 167.7c-7.4-2.1-8.1-10.8-4.9-13.7s6.3 7.4 6.3 7.4 2.2 7.2-1.4 6.3z" fill="#c9916c"></path><path d="M118.9 86c-3.3 1.6-6.3 5.6-8.4 8.6a32.1 32.1 0 0 0-4.7 11.5 2 2 0 0 0 3.8 1.1 43.5 43.5 0 0 1 4.9-9.6c2.2-3 5.2-4.9 7.5-7.6a2.6 2.6 0 0 0-3.1-4z" fill="#e36612"></path><path d="M163.6 75.5c-8.8.2-17.4 3.8-24.5 8.9-1.7 1.3-.2 4 1.7 2.9 7.3-4.3 14.4-5.5 22.8-5.1 4.3.1 4.3-6.8 0-6.7z" fill="#e36612"></path><path d="M134.4 104c-9.3 3.5-14.4 14.1-14.7 23.4-.1 1.5 2.4 1.9 2.7.4a31.8 31.8 0 0 1 5.3-11.7c2.5-3.4 5.8-5.4 9-8s-.1-4.9-2.3-4.1z" fill="#e36612"></path><path d="M184.9 90.8a21.8 21.8 0 0 0-15.5-1c-3 .9-1.7 5.3 1.3 4.7s8-.1 12.1 1.2 4.9-3.6 2.1-4.9z" fill="#e36612"></path><path d="M95 154.2c-.7-5.6-.2-11.3.3-16.9.2-2.3-3.6-2.8-3.9-.6-1.5 9.5-4.9 29.9 6.7 34.7 1.2.5 2.2-1 2-2.1-.9-5.3-4.4-9.4-5.1-15.1z" fill="#e36612"></path><path d="M114 180.7a19.8 19.8 0 0 1-3.4-9.4c-.2-2.7-4.4-2.8-4.3 0a26.1 26.1 0 0 0 3.2 11.5c1.5 2.7 4.4 7.4 8 7a1.9 1.9 0 0 0 1.8-2.4c-.5-2.7-3.7-4.5-5.3-6.7z" fill="#e36612"></path><path d="M48.8 235.8c-7.7 3.3-10.1 14.5-9.8 21.9 0 1.9 3 2.5 3.4.5a38.8 38.8 0 0 1 3.8-11c1.5-3.1 4-5.6 5.1-8.9.4-1.3-1.1-3.1-2.5-2.5z" fill="#e36612"></path><path d="M62 259.5a1.5 1.5 0 0 0-2.2-.9c-3.6 2.1-4.3 7-4.9 10.8a53.8 53.8 0 0 0-.6 15c.2 2.6 4.1 2.7 4.1 0a63.9 63.9 0 0 1 1.9-14.4c.8-3.5 2.8-7 1.7-10.5z" fill="#e36612"></path><path d="M74.7 251c-4 3-5 9.6-5.5 14.3-.2 2.6 4.2 3.2 4.6.6a35 35 0 0 1 1.5-6.4c.8-2 2.2-3.9 2.5-6.1s-1.4-3.6-3.1-2.4z" fill="#e36612"></path><path d="M106 461.8s59.1 19.7 105.5 3.2c5.7 20.5 0 80.3-2.1 82.2s-29.7 0-29.7 0l-.6 12.7s-57.2 9.7-84.7-21.4c-3.4-11.9-2.8-57 11.6-76.7z" fill="#4c768a"></path><path d="M92.7 532.6s22.4 17.6 44 20.2 43.8-1.2 44.2-.2.5 10.8-1.2 12.7-51.6 7-85.8-20.3c-2.4-3.2-2.1-12.3-1.2-12.4z" fill="#6eaac7"></path><path d="M179.6 549.8s25 3.7 30.8 0c1.8-1.3 2.3-12 2.3-12h-33.1z" fill="#6eaac7"></path><path d="M103.4 466s54.8 22 108.9 2.4c0 0 3.3 14.4 1.6 17.3s-72.8 16.2-115.6-7.3c-1-4.5 3.9-12.9 5.1-12.4z" fill="#332f2c"></path><path fill="#4c768a" d="M115.9 467.9l-5.7 18 5.7 2 5.1-18.3-5.1-1.7z"></path><path fill="#4c768a" d="M153.3 474.8l-1.2 19.1h6.7v-19.1h-5.5z"></path><path fill="#4c768a" d="M204.2 469.8l2.4 19.5 5.1-1.4-2.7-20-4.8 1.9z"></path><path fill="#b0ddff" d="M177.2 474.8l1.9 18.6 15.8-2-1.7-18.5-16 1.9z"></path><path fill="#6eaac7" d="M112.8 515l23.9-18 3 4-22.7 20.1-4.2-6.1z"></path><path d="M112.8 331.7l5.7-21.1s7.6 17.8-5.7 21.1z" fill="#c9916c"></path><path d="M186 439.5s-6.5 3.1-3.1 8.1 7.9-9.6 3.1-8.1z" fill="#c9916c"></path><path d="M143 476.2s11.7-118.2 3.5-155-30.5-66.8-30.5-66.8l3.6-5.3s32.1 35.3 39.2 76-5.6 151.1-5.6 151.1z" fill="#332f2c"></path><path d="M204.2 471.9s9.9-129 .1-161.3-42.9-71.8-42.9-71.8l-5.4 1s34.2 49.4 38.9 79.9 2.4 155.1 2.4 155.1z" fill="#332f2c"></path><path d="M278.3 0l-46.7 31.1s14.2 42.4 14.9 42.2 46.4-28.2 46.4-28.2z" fill="#ff462e"></path><path fill="#a42eff" d="M280.2 6.1l-46.1 32.4 2.9 8.4 46.4-31-3.2-9.8z"></path><path fill="#2ed5ff" d="M283.2 15.4l-46.5 30.7 3.1 9.1 46.4-30.7-3-9.1z"></path><path fill="#1ea629" d="M286 23.8l-46.5 30.6 2.7 7.7 46.6-29.5-2.8-8.8z"></path><path fill="#ffcb2e" d="M288.8 32.6l-46.6 29.5 2.5 7L291.2 40l-2.4-7.4z"></path><path fill="#ff8d14" d="M291.2 40l-46.5 29.1 3 8.3 47-27.5-3.5-9.9z"></path></g></g></svg>