<svg xmlns="http://www.w3.org/2000/svg" width="987.3" height="672.7" viewBox="0 -0.000025373696189490147 987.2999877929688 672.7000122070312" style=""><g><title>banner68_208365958</title><g data-name="Layer 2"><path d="M805.3 34c4 3 8.6-3.2 4.6-6.2s-.2-7.5 1.2-10.2c2.3-4.4-4.9-7.2-7.1-2.9-3.3 6.3-5.3 14.4 1.3 19.3z"></path><path d="M827.5 8.5a19.8 19.8 0 0 0 8.2-8.5l-12.1 1.8h-.1c-4.4 2.5-.4 9.1 4 6.7z"></path><path d="M795.6 79.4a9.9 9.9 0 0 0-2.2-7.5c-2.3-2.9-6.4-1-6.9 1.8a3.5 3.5 0 0 0 .7 2.9 2.4 2.4 0 0 1 .7 1.3 3.8 3.8 0 0 1 0 1.5z"></path><path d="M795.8 55.3c-.9 4.9 6.7 5.9 7.6 1a35.9 35.9 0 0 0-1-16.9 3.8 3.8 0 0 0-5-2.1c-2.1.8-2.7 3-2.1 5a28.5 28.5 0 0 1 .5 13z"></path><path d="M795.3 7.4l2.9-1.7-7.6 1.1a3.8 3.8 0 0 0 4.7.6z"></path><path d="M823.2 33.7a10.3 10.3 0 0 0-3.4 11.5c1.5 4.7 8.6 1.7 7.1-3-.5-1.4 1.2-2.7 2.3-3.1a10.8 10.8 0 0 1 5.9 0l.3-7.7c-4.2-.7-8.7-.5-12.2 2.3z"></path><path d="M768.4 28.8a18 18 0 0 0 17.2 2.1 4 4 0 0 0 2.6-4.8c-.5-1.8-2.8-3.5-4.7-2.7a11 11 0 0 1-11.3-1.2c-4-3-7.8 3.7-3.8 6.6z"></path><path d="M770 53.3a41.4 41.4 0 0 1-2.7 15.6c-1.7 4.7 5.4 7.6 7.2 3a52.3 52.3 0 0 0 3.1-19.6c-.1-4.9-7.8-3.9-7.6 1z"></path><path d="M821.5 72.5a72 72 0 0 1 10.5-9.4c4-2.9 0-9.6-4-6.6a82 82 0 0 0-12.1 10.7c-3.3 3.7 2.3 9 5.6 5.3z"></path><path d="M804 169.1c-3.3 6.2-5.3 14.3 1.3 19.2 4 3 8.6-3.2 4.6-6.1s-.2-7.5 1.2-10.2c2.3-4.4-4.9-7.3-7.1-2.9z"></path><path d="M814 120.3c-4.2-2.6-8 4.1-3.8 6.7s3.8 4.8 3.5 8 2 3.8 3.9 3.7 3.5-1.8 3.8-3.9a15.3 15.3 0 0 0-7.4-14.5z"></path><path d="M823.5 156.3c-4.4 2.4-.4 9 4 6.6a15.1 15.1 0 0 0 2.6-1.8l.6-15.9a6.1 6.1 0 0 0-.5 1.2 12.8 12.8 0 0 1-6.7 9.9z"></path><path d="M761.2 104.3l1.5.7a18.5 18.5 0 0 0 4.2 1.1h.8a2.5 2.5 0 0 0 1.5-.5 1 1 0 0 0 .5-.4 4.1 4.1 0 0 0-.6-6.3 3.8 3.8 0 0 0-1.6-.5 8.2 8.2 0 0 1-3.2-1.2 8.5 8.5 0 0 1-3.1-4.1v11.2z"></path><path d="M784.3 85.2l-.9 1c-3.3 3.6 2.8 8.3 6.2 4.6a30.5 30.5 0 0 0 4.6-6.5 14.4 14.4 0 0 0 1.4-4.9h-7.7c-.3 2.1-2.1 4.3-3.6 5.8z"></path><path d="M793.4 226.2c-3.1-3.9-9.2.9-6.2 4.8a3 3 0 0 1 .8 2.5.4.4 0 0 1-.1.3h7.7a10.1 10.1 0 0 0-2.2-7.6z"></path><path d="M828.7 92.1a4.1 4.1 0 0 0-2.2 5 27.6 27.6 0 0 1 .5 13.1c-.6 3.2 2.6 4.7 5 4l.9-21.2a4.1 4.1 0 0 0-4.2-.9z"></path><path d="M797.4 191.6c-2.1.8-2.7 3-2.1 5a28.6 28.6 0 0 1 .5 13c-.9 4.9 6.7 6 7.6 1.1a35.8 35.8 0 0 0-1-16.9c-.6-2-3.2-2.9-5-2.2z"></path><path d="M770.7 157.8a42 42 0 0 1 12.7-9.4c4.5-2.2 1.4-9.3-3.1-7.1a53 53 0 0 0-15.8 11.9c-3.3 3.7 2.9 8.3 6.2 4.6z"></path><path d="M791 155.4c-4.4 2.4 0 8.8 4.3 6.4 6.1-3.4 12.3-9 9.6-16.7-1.6-4.7-8.9-2.2-7.3 2.5s-4 6.3-6.6 7.8z"></path><path d="M819.8 199.5c1.5 4.7 8.6 1.7 7.1-3-.4-1.2.8-2.3 1.9-2.9l.3-8a11.8 11.8 0 0 0-5.9 2.4 10.4 10.4 0 0 0-3.4 11.5z"></path><path d="M783.5 177.8a10.8 10.8 0 0 1-11.3-1.3c-4-2.9-7.8 3.8-3.8 6.7a17.7 17.7 0 0 0 17.2 2c1.9-.8 3.2-2.5 2.6-4.7s-2.8-3.5-4.7-2.7z"></path><path d="M761.2 132a8.9 8.9 0 0 1 9.5-2.6c3.6 1 5.4-3 4.2-5.6l-.4-.6a4.6 4.6 0 0 0-2.1-1.4 18.2 18.2 0 0 0-4.6-.6l-2.4.2a20.2 20.2 0 0 0-4.2 1.2z"></path><path d="M807.7 104.3a9.3 9.3 0 0 1 7.2-7.4c4.8-1.1 2.7-8.5-2.1-7.4a16.7 16.7 0 0 0-12.5 12.9c-1 4.8 6.5 6.8 7.4 1.9z"></path><path d="M785.7 123.9c.1 5 7.8 4.4 7.7-.5a35.1 35.1 0 0 0-4.5-16.4c-.9-1.8-3.7-2.1-5.3-1a3.9 3.9 0 0 0-1.1 5.3 27.7 27.7 0 0 1 3.2 12.6z"></path><path d="M770 207.7a41.7 41.7 0 0 1-2.7 15.6c-1.7 4.6 5.4 7.6 7.2 2.9a51.8 51.8 0 0 0 3.1-19.5c-.1-5-7.8-4-7.6 1z"></path><path d="M815.9 221.6c-3.3 3.6 2.3 8.9 5.6 5.3a84.2 84.2 0 0 1 6.1-5.9l.5-10.2h-.1a82.7 82.7 0 0 0-12.1 10.8z"></path><path d="M804 323.4c-3.3 6.2-5.3 14.4 1.3 19.3 4 3 8.6-3.2 4.6-6.2s-.2-7.5 1.2-10.2c2.3-4.4-4.9-7.3-7.1-2.9z"></path><path d="M814 274.6c-4.2-2.6-8 4.1-3.8 6.7s3.8 4.8 3.5 8 2 3.8 3.9 3.8 3.5-1.9 3.8-3.9c.7-5.9-2.5-11.5-7.4-14.6z"></path><path d="M823.7 317.2l.3-6.9-.5.3c-3 1.7-2.1 5.2.2 6.6z"></path><path d="M761.2 258.6l1.5.7a11.9 11.9 0 0 0 4.2 1.1 1.1 1.1 0 0 0 .8 0 3.3 3.3 0 0 0 1.5-.4l.5-.4c1.7-1.7 1.6-5-.6-6.3a3.8 3.8 0 0 0-1.6-.6 6 6 0 0 1-3.2-1.2 8.2 8.2 0 0 1-3.1-4v11.1z"></path><path d="M783.4 240.5a3.1 3.1 0 0 0-.4 4 4.2 4.2 0 0 0 6.6.7l.8-1a39.2 39.2 0 0 0 2.5-3.2 7.5 7.5 0 0 1 .7-1.2 25.6 25.6 0 0 0 1.1-2.4 11.9 11.9 0 0 0 .9-3.6h-7.7c-.3 2.5-3 5.1-4.5 6.7z"></path><path d="M793.4 380.6a3.7 3.7 0 0 0-4.8-1l-1.1.9a3.5 3.5 0 0 0-1 1.9 3.6 3.6 0 0 0 .7 2.9 3.3 3.3 0 0 1 .8 2.6.3.3 0 0 1-.1.2h7.7a9.9 9.9 0 0 0-2.2-7.5z"></path><path d="M826.4 250.7v-1.5a7.6 7.6 0 0 0 0 1.5z"></path><path d="M797.4 346c-2.1.8-2.7 3-2.1 5a28.5 28.5 0 0 1 .5 13c-.9 4.9 6.7 5.9 7.6 1a35.8 35.8 0 0 0-1-16.9 3.8 3.8 0 0 0-5-2.1z"></path><path d="M770.7 312.2a42.3 42.3 0 0 1 12.7-9.5c4.5-2.1 1.4-9.2-3.1-7a49.9 49.9 0 0 0-15.8 11.9c-3.3 3.7 2.9 8.2 6.2 4.6z"></path><path d="M791 309.7c-4.4 2.4 0 8.8 4.3 6.4 6.1-3.3 12.3-9 9.6-16.7-1.6-4.7-8.9-2.2-7.3 2.5s-4 6.4-6.6 7.8z"></path><path d="M819.8 353.9a3 3 0 0 0 2.3 2.2l.5-13.2a10.5 10.5 0 0 0-2.8 11z"></path><path d="M788.2 334.8c-.5-1.8-2.8-3.5-4.7-2.7a11 11 0 0 1-11.3-1.2c-4-3-7.8 3.7-3.8 6.6a18 18 0 0 0 17.2 2.1c1.9-.9 3.2-2.6 2.6-4.8z"></path><path d="M761.2 286.3a9.3 9.3 0 0 1 9.5-2.6c3.6 1 5.4-2.9 4.2-5.6l-.4-.6a3.8 3.8 0 0 0-2.1-1.3 12.2 12.2 0 0 0-4.6-.6 9.7 9.7 0 0 0-2.4.2 15.5 15.5 0 0 0-4.2 1.2z"></path><path d="M807.7 258.7a9.3 9.3 0 0 1 7.2-7.4c4.8-1.1 2.7-8.5-2.1-7.4a16.7 16.7 0 0 0-12.5 12.8c-1 4.9 6.5 6.9 7.4 2z"></path><path d="M793.4 277.7a34.7 34.7 0 0 0-4.5-16.3c-.9-1.9-3.7-2.2-5.3-1.1a4 4 0 0 0-1.1 5.4 27.7 27.7 0 0 1 3.2 12.6c.1 5 7.8 4.4 7.7-.6z"></path><path d="M770 362a41.4 41.4 0 0 1-2.7 15.6c-1.7 4.7 5.4 7.6 7.2 2.9a51.5 51.5 0 0 0 3.1-19.5c-.1-4.9-7.8-3.9-7.6 1z"></path><path d="M821.1 381.7l.4-11.3c-1.9 1.8-3.8 3.6-5.6 5.5-3.1 3.5 1.8 8.5 5.2 5.8z"></path><path d="M804 477.8c-3.3 6.2-5.3 14.3 1.3 19.2 4 3 8.6-3.2 4.6-6.1s-.2-7.6 1.2-10.2c2.3-4.4-4.9-7.3-7.1-2.9z"></path><path d="M814 429c-4.2-2.6-8 4.1-3.8 6.7s3.8 4.8 3.5 8 2 3.8 3.9 3.7h.8l.5-13.5a16 16 0 0 0-4.9-4.9z"></path><path d="M761.2 412.9l1.5.8a18.5 18.5 0 0 0 4.2 1.1h.8a3.3 3.3 0 0 0 1.5-.5 1 1 0 0 0 .5-.4 4.1 4.1 0 0 0-.6-6.3 3.8 3.8 0 0 0-1.6-.5 8.2 8.2 0 0 1-3.2-1.2 8.5 8.5 0 0 1-3.1-4.1v11.1z"></path><path d="M783.4 394.8c-3.3 3.7 2.8 8.4 6.2 4.7.6-.6 1.1-1.3 1.7-2l.8-1.1a23.9 23.9 0 0 0 2.1-3.4 14.4 14.4 0 0 0 1.4-4.9h-7.7c-.3 2.5-3 5.1-4.5 6.7z"></path><path d="M795.6 542.5a10.1 10.1 0 0 0-2.2-7.6 3.6 3.6 0 0 0-4.1-1.2c-2.3.8-4 3.5-2.1 6a2.5 2.5 0 0 1 .7 1.2 4.3 4.3 0 0 1 0 1.6z"></path><path d="M797.4 500.3c-2.1.8-2.7 3-2.1 5a28.6 28.6 0 0 1 .5 13c-.9 4.9 6.7 5.9 7.6 1.1a36.3 36.3 0 0 0-1-17c-.6-2-3.2-2.8-5-2.1z"></path><path d="M770.7 466.5a42 42 0 0 1 12.7-9.4c4.5-2.2 1.4-9.3-3.1-7.1a53 53 0 0 0-15.8 11.9c-3.3 3.7 2.9 8.3 6.2 4.6z"></path><path d="M791 464.1c-4.4 2.4 0 8.7 4.3 6.4 6.1-3.4 12.3-9 9.6-16.8-1.6-4.6-8.9-2.1-7.3 2.6s-4 6.3-6.6 7.8z"></path><path d="M783.5 486.5a11.2 11.2 0 0 1-11.3-1.3c-4-2.9-7.8 3.8-3.8 6.7a17.7 17.7 0 0 0 17.2 2 4 4 0 0 0 2.6-4.8c-.5-1.8-2.8-3.4-4.7-2.6z"></path><path d="M761.2 440.7a9.1 9.1 0 0 1 9.5-2.7c3.6 1.1 5.4-2.9 4.2-5.5l-.4-.6a4.6 4.6 0 0 0-2.1-1.4 18.2 18.2 0 0 0-4.6-.6l-2.4.2a20.2 20.2 0 0 0-4.2 1.2z"></path><path d="M807.7 413a9.3 9.3 0 0 1 7.2-7.4c4.8-1.1 2.7-8.5-2.1-7.4a16.7 16.7 0 0 0-12.5 12.9c-1 4.8 6.5 6.8 7.4 1.9z"></path><path d="M785.7 432.6c.1 5 7.8 4.4 7.7-.5a35.1 35.1 0 0 0-4.5-16.4c-.9-1.8-3.7-2.1-5.3-1a3.9 3.9 0 0 0-1.1 5.3 27.7 27.7 0 0 1 3.2 12.6z"></path><path d="M770 516.4a41.7 41.7 0 0 1-2.7 15.6c-1.7 4.6 5.4 7.6 7.2 2.9a51.8 51.8 0 0 0 3.1-19.5c-.1-5-7.8-4-7.6 1z"></path><path d="M810.2 590a8 8 0 0 1 2.2 2.3l.4-9.5c-3.7-.8-6.4 4.9-2.6 7.2z"></path><path d="M766.9 569.1a1.1 1.1 0 0 0 .8 0 3.3 3.3 0 0 0 1.5-.4l.5-.4a4.3 4.3 0 0 0-.6-6.4l-1.6-.5a6 6 0 0 1-3.2-1.2 8.2 8.2 0 0 1-3.1-4v11.1l1.5.7a14.4 14.4 0 0 0 4.2 1.1z"></path><path d="M784.3 548.3l-.9.9c-3.3 3.6 2.8 8.3 6.2 4.7a33.9 33.9 0 0 0 4.6-6.6 14.6 14.6 0 0 0 1.4-4.8h-7.7c-.3 2-2.1 4.2-3.6 5.8z"></path><path d="M780.3 604.4a49.9 49.9 0 0 0-15.8 11.9c-3.3 3.7 2.9 8.2 6.2 4.6a42.3 42.3 0 0 1 12.7-9.5c4.5-2.2 1.4-9.2-3.1-7z"></path><path d="M791 618.4c-4.4 2.4 0 8.8 4.3 6.4 6.1-3.3 12.3-9 9.6-16.7-1.6-4.7-8.9-2.2-7.3 2.5s-4 6.4-6.6 7.8z"></path><path d="M770.7 592.4c3.6 1 5.4-2.9 4.2-5.6l-.4-.6a3.8 3.8 0 0 0-2.1-1.3 14.7 14.7 0 0 0-4.6-.7l-2.4.2a20.4 20.4 0 0 0-4.2 1.3v9.3a9.1 9.1 0 0 1 9.5-2.6z"></path><path d="M812.8 552.6a16.7 16.7 0 0 0-12.5 12.8c-1 4.9 6.5 6.8 7.4 2a9.5 9.5 0 0 1 6-7.1l.3-7.8a2.5 2.5 0 0 0-1.2.1z"></path><path d="M793.4 586.4a34.7 34.7 0 0 0-4.5-16.3c-.9-1.9-3.7-2.2-5.3-1.1a3.9 3.9 0 0 0-1.1 5.3 28.4 28.4 0 0 1 3.2 12.7c.1 4.9 7.8 4.4 7.7-.6z"></path><path d="M651 34c3.9 3 8.6-3.2 4.6-6.2l-.6-.6-8 1.2a10.2 10.2 0 0 0 4 5.6z"></path><path d="M704.3 29.8a49.8 49.8 0 0 0-5.7-9.1l-8.9 1.3a40.7 40.7 0 0 1 7.5 10.9c2.1 4.5 9.2 1.4 7.1-3.1z"></path><path d="M752.8 18.7c1.7-.9 2.7-3.5 1.5-5.2l-.6-1.1-8.1 1.2a25.3 25.3 0 0 0 2 3.6 3.9 3.9 0 0 0 5.2 1.5z"></path><path d="M641.3 79.4a10.4 10.4 0 0 0-2.3-7.5c-2.3-2.9-6.3-1-6.9 1.8a3.3 3.3 0 0 0 .8 2.9 3.1 3.1 0 0 1 .6 1.3 2.6 2.6 0 0 1 .1 1.5z"></path><path d="M733.2 61.9c-4.6-1.7-6.5 5.8-1.9 7.5a39.8 39.8 0 0 1 13.5 8.2c3.7 3.3 9.1-2.2 5.4-5.5a49.2 49.2 0 0 0-17-10.2z"></path><path d="M694.8 62.3c2.6-.6 5 3.8 2 4.9s-2.5 3.5-1.6 5.2 3.2 2.4 5.2 1.7c11.3-4.3 3.7-21.9-7.2-19.3-4.8 1.1-3.2 8.7 1.6 7.5z"></path><path d="M641.4 55.3c-.9 4.9 6.8 5.9 7.7 1a37.2 37.2 0 0 0-1-16.9 3.8 3.8 0 0 0-5-2.1 3.9 3.9 0 0 0-2.2 5 27.2 27.2 0 0 1 .5 13z"></path><path d="M749.6 51.5a7.8 7.8 0 0 1 6.1-6.1c2-.6 2.8-3.3 2.1-5.1s-3-2.6-5-2.1a15.5 15.5 0 0 0-10.9 12.2c-.9 4.9 6.8 6 7.7 1.1z"></path><path d="M672.5 42.2c-.4-1.4 1.2-2.7 2.4-3.1s4.3-.3 6.4.1c4.9 1 5.9-6.7 1-7.6s-9.7-.9-13.5 2.1a10.3 10.3 0 0 0-3.4 11.5c1.6 4.7 8.7 1.7 7.1-3z"></path><path d="M631.2 30.9h.2l-8.8 1.3a18 18 0 0 0 8.6-1.3z"></path><path d="M722.1 31.4A16.6 16.6 0 0 0 740 30c3.9-3-.4-9.4-4.3-6.4a9.3 9.3 0 0 1-10.3.9c-4.4-2.4-7.6 4.6-3.3 6.9z"></path><path d="M717.4 60.5c1.8.6 4.4-.4 4.9-2.4a13.5 13.5 0 0 1 7.7-9.2c4.5-2 1.1-8.9-3.5-6.9a20.1 20.1 0 0 0-11.4 13.5c-.5 2.1.2 4.2 2.3 5z"></path><path d="M620.1 71.9a54.5 54.5 0 0 0 3.2-19.6c-.2-4.9-7.8-3.9-7.7 1a41.3 41.3 0 0 1-2.6 15.6c-1.8 4.7 5.4 7.6 7.1 3z"></path><path d="M667.2 72.5a67.2 67.2 0 0 1 10.5-9.4c3.9-2.9 0-9.6-4-6.6a77.2 77.2 0 0 0-12.1 10.7c-3.4 3.7 2.2 9 5.6 5.3z"></path><path d="M649.6 169.1c-3.2 6.2-5.2 14.3 1.4 19.2 3.9 3 8.6-3.2 4.6-6.1s-.2-7.5 1.2-10.2c2.3-4.4-4.9-7.3-7.2-2.9z"></path><path d="M704.3 184.1a52.3 52.3 0 0 0-11.8-15.8c-3.7-3.4-8.3 2.8-4.7 6.2a40.4 40.4 0 0 1 9.4 12.7c2.1 4.5 9.2 1.4 7.1-3.1z"></path><path d="M659.6 120.3c-4.2-2.6-8 4.1-3.8 6.7a7.9 7.9 0 0 1 3.5 8c-.2 2 2.1 3.8 4 3.7s3.5-1.8 3.7-3.9a15.3 15.3 0 0 0-7.4-14.5z"></path><path d="M752.8 173.1c1.7-1 2.7-3.6 1.5-5.3a13 13 0 0 1-1.7-11.8c1.5-4.7-5.9-6.8-7.5-2.1a20.3 20.3 0 0 0 2.5 17.6 3.9 3.9 0 0 0 5.2 1.6z"></path><path d="M673.1 162.9a20.6 20.6 0 0 0 10.3-14.6 3.9 3.9 0 0 0-2.8-4.6c-1.9-.5-4.4.7-4.7 2.7a12.9 12.9 0 0 1-6.8 9.9c-4.3 2.4-.3 9 4 6.6z"></path><path d="M755.8 90.9a2.7 2.7 0 0 0-1.2.9 3.4 3.4 0 0 0-.8 2.7 4 4 0 0 0 .3 1.5 14.9 14.9 0 0 0 7.1 8.3V93.1a.8.8 0 0 1-.2-.5c-.7-2-3.5-2.6-5.2-1.7z"></path><path d="M614.8 98.9a4.3 4.3 0 0 0-1.6-.5 5.6 5.6 0 0 1-2.3-.7 7.8 7.8 0 0 1-4.1-4.6v11.2a19 19 0 0 0 5.7 1.8c4.3.5 5.4-5.3 2.3-7.2z"></path><path d="M629.9 85.2l-.8 1c-3.4 3.6 2.8 8.3 6.1 4.6a24.7 24.7 0 0 0 4.6-6.5 14.6 14.6 0 0 0 1.5-4.9h-7.7c-.3 2.1-2.2 4.3-3.7 5.8z"></path><path d="M639 226.2c-3.1-3.9-9.2.9-6.1 4.8a3.9 3.9 0 0 1 .8 2.5.4.4 0 0 0-.1.3h7.7a10.7 10.7 0 0 0-2.3-7.6z"></path><path d="M733.2 216.2c-4.6-1.7-6.5 5.8-1.9 7.5a41.7 41.7 0 0 1 13.5 8.3c3.7 3.3 9.1-2.3 5.4-5.6a52.4 52.4 0 0 0-17-10.2z"></path><path d="M693.2 209.1c-4.8 1.2-3.2 8.7 1.6 7.6 2.6-.7 5 3.7 2 4.9s-2.5 3.5-1.6 5.2 3.2 2.4 5.2 1.6c11.3-4.2 3.7-21.9-7.2-19.3z"></path><path d="M672.7 110.2c-.9 4.8 6.7 5.9 7.6 1a35.8 35.8 0 0 0-.9-16.9c-.6-2-3.2-2.9-5.1-2.2a4 4 0 0 0-2.1 5 29 29 0 0 1 .5 13.1z"></path><path d="M726.6 144c2.3-1.4 6 2 3.5 4s-1.2 4.1.1 5.5a4 4 0 0 0 5.5-.2c9.3-7.6-3.6-21.9-13-15.9-4.3 2.6-.3 9.3 3.9 6.6z"></path><path d="M643.1 191.6a3.9 3.9 0 0 0-2.2 5 27.3 27.3 0 0 1 .5 13c-.9 4.9 6.8 6 7.7 1.1a37.1 37.1 0 0 0-1-16.9c-.6-2-3.2-2.9-5-2.2z"></path><path d="M703 107a9.2 9.2 0 0 1-5.1 9c-4.3 2.3-.4 8.9 4 6.6a16.7 16.7 0 0 0 8.8-15.6c-.3-5-8.1-5-7.7 0z"></path><path d="M700.9 160.5a77.7 77.7 0 0 0 12.6 10.3c4.1 2.7 8.5-3.7 4.3-6.4a71.4 71.4 0 0 1-11-8.9c-3.5-3.4-9.4 1.5-5.9 5z"></path><path d="M707.2 136a13.3 13.3 0 0 1-11.7-2.5c-3.8-3.1-8.4 3.1-4.5 6.2a20 20 0 0 0 17.3 3.9 3.9 3.9 0 0 0 3.3-4.3c-.3-1.9-2.3-3.8-4.4-3.3z"></path><path d="M752.8 192.6a15.5 15.5 0 0 0-10.9 12.1c-.9 4.9 6.8 6 7.7 1.2a7.8 7.8 0 0 1 6.1-6.2c2-.5 2.8-3.3 2.1-5s-3-2.6-5-2.1z"></path><path d="M729.1 98.3c-1.5-3.8 3.8-6.5 6.4-8 4.3-2.6-.3-8.8-4.6-6.3-6 3.6-12 9.5-9 17.1 1.8 4.6 9 1.8 7.2-2.8z"></path><path d="M610.2 153.2c-3.4 3.7 2.9 8.3 6.2 4.6a42 42 0 0 1 12.7-9.4c4.4-2.2 1.3-9.3-3.2-7.1a53.9 53.9 0 0 0-15.7 11.9z"></path><path d="M640.9 161.8c6.2-3.4 12.4-9 9.7-16.7-1.7-4.7-9-2.2-7.3 2.5s-4 6.3-6.7 7.8c-4.3 2.4 0 8.8 4.3 6.4z"></path><path d="M668.8 188a10.4 10.4 0 0 0-3.4 11.5c1.6 4.7 8.7 1.7 7.1-3-.4-1.4 1.2-2.7 2.4-3.1s4.3-.3 6.4.2c4.9.9 5.9-6.7 1-7.7s-9.7-.9-13.5 2.1z"></path><path d="M629.1 177.8a10.6 10.6 0 0 1-11.2-1.3c-4-2.9-7.9 3.8-3.9 6.7a17.7 17.7 0 0 0 17.2 2c1.9-.8 3.3-2.5 2.7-4.7s-2.9-3.5-4.8-2.7z"></path><path d="M722.1 185.8a17 17 0 0 0 17.9-1.4c3.9-3.1-.4-9.5-4.3-6.4a9.4 9.4 0 0 1-10.3.8c-4.4-2.4-7.6 4.6-3.3 7z"></path><path d="M616.4 129.4c3.5 1 5.4-3 4.1-5.6l-.4-.6a3.8 3.8 0 0 0-2-1.4 18.4 18.4 0 0 0-4.7-.6l-2.3.2a21.1 21.1 0 0 0-4.3 1.2v9.4a9.1 9.1 0 0 1 9.6-2.6z"></path><path d="M755.3 127c-3.2 3.7 2.3 9.1 5.5 5.3l.4-.3v-9.4a16.1 16.1 0 0 0-5.9 4.4z"></path><path d="M653.4 104.3a9.3 9.3 0 0 1 7.2-7.4c4.8-1.1 2.7-8.5-2.2-7.4a16.8 16.8 0 0 0-12.5 12.9c-.9 4.8 6.5 6.8 7.5 1.9z"></path><path d="M631.3 123.9c.2 5 7.9 4.4 7.7-.5a36.2 36.2 0 0 0-4.4-16.4c-1-1.8-3.7-2.1-5.4-1a3.9 3.9 0 0 0-1 5.3 27.6 27.6 0 0 1 3.1 12.6z"></path><path d="M726.5 196.3a20.2 20.2 0 0 0-11.4 13.6c-.5 2 .2 4.2 2.3 4.9s4.4-.3 4.9-2.4a13.5 13.5 0 0 1 7.7-9.2c4.5-2 1.1-8.9-3.5-6.9z"></path><path d="M615.6 207.7a41.6 41.6 0 0 1-2.6 15.6c-1.8 4.6 5.4 7.6 7.1 2.9a54 54 0 0 0 3.2-19.5c-.2-5-7.8-4-7.7 1z"></path><path d="M689.8 91.9a42 42 0 0 1 15.8 0c4.9.9 6.6-6.7 1.7-7.6a52.7 52.7 0 0 0-19.8.2c-4.8 1-2.5 8.4 2.3 7.4z"></path><path d="M735.2 114a7.8 7.8 0 0 1-5.1 7c-1.9.9-2.3 3.7-1.3 5.3s3.4 2.2 5.3 1.3a15.1 15.1 0 0 0 8.8-13.7c.2-4.9-7.5-4.9-7.7.1z"></path><path d="M673.7 210.8a77.8 77.8 0 0 0-12.1 10.8c-3.4 3.6 2.2 8.9 5.6 5.3a67.8 67.8 0 0 1 10.5-9.5c3.9-2.9 0-9.5-4-6.6z"></path><path d="M649.6 323.4c-3.2 6.2-5.2 14.4 1.4 19.3 3.9 3 8.6-3.2 4.6-6.2s-.2-7.5 1.2-10.2c2.3-4.4-4.9-7.3-7.2-2.9z"></path><path d="M704.3 338.5a52.7 52.7 0 0 0-11.8-15.9c-3.7-3.3-8.3 2.9-4.7 6.2a40.8 40.8 0 0 1 9.4 12.8c2.1 4.4 9.2 1.4 7.1-3.1z"></path><path d="M659.6 274.6c-4.2-2.6-8 4.1-3.8 6.7a7.9 7.9 0 0 1 3.5 8c-.2 2.1 2.1 3.8 4 3.8s3.5-1.9 3.7-3.9c.7-5.9-2.5-11.5-7.4-14.6z"></path><path d="M752.8 327.4c1.7-.9 2.7-3.5 1.5-5.2a13.2 13.2 0 0 1-1.7-11.9c1.5-4.7-5.9-6.7-7.5-2a20.3 20.3 0 0 0 2.5 17.6 3.9 3.9 0 0 0 5.2 1.5z"></path><path d="M673.1 317.2a20.6 20.6 0 0 0 10.3-14.5 4 4 0 0 0-2.8-4.7c-1.9-.5-4.4.7-4.7 2.8a12.9 12.9 0 0 1-6.8 9.8c-4.3 2.4-.3 9 4 6.6z"></path><path d="M755.8 245.2a4 4 0 0 0-1.2 1 3.3 3.3 0 0 0-.8 2.7 4 4 0 0 0 .3 1.5 14.7 14.7 0 0 0 7.1 8.2v-11.1l-.2-.5c-.7-2-3.5-2.6-5.2-1.8z"></path><path d="M614.8 253.3a4.4 4.4 0 0 0-1.6-.6 7.7 7.7 0 0 1-2.3-.6 8.4 8.4 0 0 1-4.1-4.6v11.1a16.5 16.5 0 0 0 5.7 1.8c4.3.5 5.4-5.3 2.3-7.1z"></path><path d="M629.1 240.5a3 3 0 0 0-.4 4 4.1 4.1 0 0 0 6.5.7l.9-1a24.3 24.3 0 0 0 2.4-3.2 7.5 7.5 0 0 0 .7-1.2c.5-.8.8-1.6 1.2-2.4a15.8 15.8 0 0 0 .9-3.6h-7.7c-.4 2.5-3 5.1-4.5 6.7z"></path><path d="M639 380.6a3.6 3.6 0 0 0-4.7-1l-1.2.9a4.4 4.4 0 0 0-1 1.9 3.4 3.4 0 0 0 .8 2.9 4.2 4.2 0 0 1 .8 2.6c-.1 0-.1.1-.1.2h7.7a10.4 10.4 0 0 0-2.3-7.5z"></path><path d="M733.2 370.6c-4.6-1.7-6.5 5.8-1.9 7.5a39.8 39.8 0 0 1 13.5 8.2c3.7 3.3 9.1-2.2 5.4-5.6a50.5 50.5 0 0 0-17-10.1z"></path><path d="M693.2 363.5c-4.8 1.1-3.2 8.7 1.6 7.5 2.6-.6 5 3.8 2 4.9s-2.5 3.5-1.6 5.2 3.2 2.4 5.2 1.7c11.3-4.3 3.7-21.9-7.2-19.3z"></path><path d="M672.7 264.5c-.9 4.9 6.7 5.9 7.6 1.1a36.3 36.3 0 0 0-.9-17c-.6-2-3.2-2.8-5.1-2.1a4 4 0 0 0-2.1 5 28.6 28.6 0 0 1 .5 13z"></path><path d="M726.6 298.4c2.3-1.5 6 1.9 3.5 4s-1.2 4.1.1 5.4 3.9 1.2 5.5-.1c9.3-7.7-3.6-21.9-13-16-4.3 2.7-.3 9.3 3.9 6.7z"></path><path d="M643.1 346a3.9 3.9 0 0 0-2.2 5 27.2 27.2 0 0 1 .5 13c-.9 4.9 6.8 5.9 7.7 1a37.1 37.1 0 0 0-1-16.9 3.8 3.8 0 0 0-5-2.1z"></path><path d="M703 261.3a9.2 9.2 0 0 1-5.1 9c-4.3 2.4-.4 9 4 6.7a16.8 16.8 0 0 0 8.8-15.7c-.3-4.9-8.1-4.9-7.7 0z"></path><path d="M700.9 314.9a82.7 82.7 0 0 0 12.6 10.2c4.1 2.7 8.5-3.6 4.3-6.4a77.2 77.2 0 0 1-11-8.8c-3.5-3.5-9.4 1.5-5.9 5z"></path><path d="M707.2 290.3a12.7 12.7 0 0 1-11.7-2.5c-3.8-3.1-8.4 3.1-4.5 6.2a20.4 20.4 0 0 0 17.3 4 4.1 4.1 0 0 0 3.3-4.4 4 4 0 0 0-4.4-3.3z"></path><path d="M752.8 346.9a15.5 15.5 0 0 0-10.9 12.2c-.9 4.9 6.8 6 7.7 1.1a7.8 7.8 0 0 1 6.1-6.1c2-.6 2.8-3.3 2.1-5.1s-3-2.6-5-2.1z"></path><path d="M729.1 252.7c-1.5-3.8 3.8-6.5 6.4-8.1 4.3-2.5-.3-8.7-4.6-6.2-6 3.6-12 9.4-9 17 1.8 4.7 9 1.9 7.2-2.7z"></path><path d="M616.4 312.2a42.3 42.3 0 0 1 12.7-9.5c4.4-2.1 1.3-9.2-3.2-7a50.6 50.6 0 0 0-15.7 11.9c-3.4 3.7 2.9 8.2 6.2 4.6z"></path><path d="M636.6 309.7c-4.3 2.4 0 8.8 4.3 6.4 6.2-3.3 12.4-9 9.7-16.7-1.7-4.7-9-2.2-7.3 2.5s-4 6.4-6.7 7.8z"></path><path d="M668.8 342.4a10.3 10.3 0 0 0-3.4 11.5c1.6 4.7 8.7 1.7 7.1-3-.4-1.4 1.2-2.7 2.4-3.1s4.3-.3 6.4.1c4.9 1 5.9-6.7 1-7.6s-9.7-.9-13.5 2.1z"></path><path d="M633.9 334.8c-.5-1.8-2.9-3.5-4.8-2.7a10.8 10.8 0 0 1-11.2-1.2c-4-3-7.9 3.7-3.9 6.6a18 18 0 0 0 17.2 2.1c1.9-.9 3.3-2.6 2.7-4.8z"></path><path d="M722.1 340.1a16.8 16.8 0 0 0 17.9-1.4c3.9-3-.4-9.4-4.3-6.4a9.1 9.1 0 0 1-10.3.8c-4.4-2.3-7.6 4.7-3.3 7z"></path><path d="M616.4 283.7c3.5 1 5.4-2.9 4.1-5.6l-.4-.6a3.2 3.2 0 0 0-2-1.3 12.4 12.4 0 0 0-4.7-.6 8.6 8.6 0 0 0-2.3.2 16.2 16.2 0 0 0-4.3 1.2v9.3a9.5 9.5 0 0 1 9.6-2.6z"></path><path d="M755.3 281.3c-3.2 3.8 2.3 9.2 5.5 5.4.1-.2.3-.3.4-.4V277a15.8 15.8 0 0 0-5.9 4.3z"></path><path d="M653.4 258.7a9.3 9.3 0 0 1 7.2-7.4c4.8-1.1 2.7-8.5-2.2-7.4a16.8 16.8 0 0 0-12.5 12.8c-.9 4.9 6.5 6.9 7.5 2z"></path><path d="M639 277.7a35.8 35.8 0 0 0-4.4-16.3c-1-1.9-3.7-2.2-5.4-1.1a4 4 0 0 0-1 5.4 27.6 27.6 0 0 1 3.1 12.6c.2 5 7.9 4.4 7.7-.6z"></path><path d="M726.5 350.7a20.1 20.1 0 0 0-11.4 13.5c-.5 2 .2 4.2 2.3 4.9s4.4-.3 4.9-2.3a13.1 13.1 0 0 1 7.7-9.2c4.5-2 1.1-8.9-3.5-6.9z"></path><path d="M615.6 362a41.3 41.3 0 0 1-2.6 15.6c-1.8 4.7 5.4 7.6 7.1 2.9a53.6 53.6 0 0 0 3.2-19.5c-.2-4.9-7.8-3.9-7.7 1z"></path><path d="M689.8 246.2a42 42 0 0 1 15.8 0c4.9.9 6.6-6.6 1.7-7.5a50.8 50.8 0 0 0-19.8.2c-4.8 1-2.5 8.3 2.3 7.3z"></path><path d="M735.2 268.3a8 8 0 0 1-5.1 7.1c-1.9.8-2.3 3.7-1.3 5.3s3.4 2.1 5.3 1.3a15.3 15.3 0 0 0 8.8-13.7c.2-5-7.5-4.9-7.7 0z"></path><path d="M673.7 365.2a77.2 77.2 0 0 0-12.1 10.7c-3.4 3.7 2.2 9 5.6 5.3a67.2 67.2 0 0 1 10.5-9.4c3.9-3 0-9.6-4-6.6z"></path><path d="M649.6 477.8c-3.2 6.2-5.2 14.3 1.4 19.2 3.9 3 8.6-3.2 4.6-6.1s-.2-7.6 1.2-10.2c2.3-4.4-4.9-7.3-7.2-2.9z"></path><path d="M704.3 492.8a52.3 52.3 0 0 0-11.8-15.8c-3.7-3.4-8.3 2.8-4.7 6.2a40.4 40.4 0 0 1 9.4 12.7c2.1 4.5 9.2 1.4 7.1-3.1z"></path><path d="M667 443.5a15.3 15.3 0 0 0-7.4-14.5c-4.2-2.6-8 4.1-3.8 6.7a7.9 7.9 0 0 1 3.5 8c-.2 2 2.1 3.8 4 3.7s3.5-1.8 3.7-3.9z"></path><path d="M752.8 481.7c1.7-.9 2.7-3.5 1.5-5.2a13 13 0 0 1-1.7-11.8c1.5-4.7-5.9-6.8-7.5-2.1a20.3 20.3 0 0 0 2.5 17.6 3.9 3.9 0 0 0 5.2 1.5z"></path><path d="M673.1 471.6a20.6 20.6 0 0 0 10.3-14.6 4.1 4.1 0 0 0-2.8-4.7c-1.9-.4-4.4.8-4.7 2.8a13.1 13.1 0 0 1-6.8 9.9c-4.3 2.4-.3 9 4 6.6z"></path><path d="M755.8 399.5a4 4 0 0 0-1.2 1 3.4 3.4 0 0 0-.8 2.7 4 4 0 0 0 .3 1.5 14.4 14.4 0 0 0 7.1 8.2v-11.1c-.1-.2-.2-.3-.2-.5-.7-2-3.5-2.6-5.2-1.8z"></path><path d="M606.8 412.9a16.7 16.7 0 0 0 5.7 1.9c4.3.5 5.4-5.3 2.3-7.2a4.3 4.3 0 0 0-1.6-.5 5.6 5.6 0 0 1-2.3-.7 8.1 8.1 0 0 1-4.1-4.6v11.1z"></path><path d="M633.6 388.1c-.4 2.5-3 5.1-4.5 6.7-3.4 3.7 2.8 8.4 6.1 4.7l1.8-2a7.6 7.6 0 0 1 .8-1.1 16.8 16.8 0 0 0 2-3.4 14.6 14.6 0 0 0 1.5-4.9z"></path><path d="M639 534.9a3.5 3.5 0 0 0-4.1-1.2c-2.2.8-3.9 3.5-2 6a3.4 3.4 0 0 1 .6 1.2 2.9 2.9 0 0 1 .1 1.6h7.7a10.7 10.7 0 0 0-2.3-7.6z"></path><path d="M733.2 524.9c-4.6-1.7-6.5 5.8-1.9 7.5a43.3 43.3 0 0 1 13.5 8.2c3.7 3.4 9.1-2.2 5.4-5.5a52.4 52.4 0 0 0-17-10.2z"></path><path d="M693.2 517.8c-4.8 1.2-3.2 8.7 1.6 7.6 2.6-.7 5 3.7 2 4.9s-2.5 3.5-1.6 5.2 3.2 2.3 5.2 1.6c11.3-4.2 3.7-21.9-7.2-19.3z"></path><path d="M672.7 418.8c-.9 4.9 6.7 6 7.6 1.1a35.8 35.8 0 0 0-.9-16.9c-.6-2-3.2-2.9-5.1-2.2a4 4 0 0 0-2.1 5 28.6 28.6 0 0 1 .5 13z"></path><path d="M726.6 452.7c2.3-1.4 6 2 3.5 4s-1.2 4.1.1 5.5a4 4 0 0 0 5.5-.2c9.3-7.6-3.6-21.9-13-15.9-4.3 2.6-.3 9.3 3.9 6.6z"></path><path d="M643.1 500.3a3.9 3.9 0 0 0-2.2 5 27.3 27.3 0 0 1 .5 13c-.9 4.9 6.8 5.9 7.7 1.1a37.6 37.6 0 0 0-1-17c-.6-2-3.2-2.8-5-2.1z"></path><path d="M703 415.7a9.2 9.2 0 0 1-5.1 9c-4.3 2.3-.4 8.9 4 6.6a16.7 16.7 0 0 0 8.8-15.6c-.3-5-8.1-5-7.7 0z"></path><path d="M717.8 473.1a71.4 71.4 0 0 1-11-8.9c-3.5-3.4-9.4 1.5-5.9 5a77.1 77.1 0 0 0 12.6 10.2c4.1 2.8 8.5-3.6 4.3-6.3z"></path><path d="M707.2 444.7a13.3 13.3 0 0 1-11.7-2.5c-3.8-3.2-8.4 3.1-4.5 6.2a20 20 0 0 0 17.3 3.9c2-.5 3.6-2.1 3.3-4.3s-2.3-3.8-4.4-3.3z"></path><path d="M752.8 501.3a15.5 15.5 0 0 0-10.9 12.1c-.9 4.9 6.8 6 7.7 1.2a7.8 7.8 0 0 1 6.1-6.2c2-.5 2.8-3.3 2.1-5s-3-2.7-5-2.1z"></path><path d="M729.1 407c-1.5-3.8 3.8-6.5 6.4-8 4.3-2.6-.3-8.8-4.6-6.3-6 3.6-12 9.5-9 17.1 1.8 4.6 9 1.8 7.2-2.8z"></path><path d="M616.4 466.5a42 42 0 0 1 12.7-9.4c4.4-2.2 1.3-9.3-3.2-7.1a53.9 53.9 0 0 0-15.7 11.9c-3.4 3.7 2.9 8.3 6.2 4.6z"></path><path d="M640.9 470.5c6.2-3.4 12.4-9 9.7-16.8-1.7-4.6-9-2.1-7.3 2.6s-4 6.3-6.7 7.8c-4.3 2.4 0 8.7 4.3 6.4z"></path><path d="M682.3 494.6c-4.5-.9-9.7-.9-13.5 2.1a10.4 10.4 0 0 0-3.4 11.5c1.6 4.7 8.7 1.7 7.1-3-.4-1.4 1.2-2.7 2.4-3.1s4.3-.3 6.4.1c4.9 1 5.9-6.6 1-7.6z"></path><path d="M629.1 486.5a11.1 11.1 0 0 1-11.2-1.3c-4-2.9-7.9 3.8-3.9 6.7a17.7 17.7 0 0 0 17.2 2c1.9-.8 3.3-2.6 2.7-4.8s-2.9-3.4-4.8-2.6z"></path><path d="M722.1 494.5A16.8 16.8 0 0 0 740 493c3.9-3-.4-9.4-4.3-6.4a9.3 9.3 0 0 1-10.3.9c-4.4-2.4-7.6 4.6-3.3 7z"></path><path d="M606.8 440.7a9.3 9.3 0 0 1 9.6-2.7c3.5 1.1 5.4-2.9 4.1-5.5l-.4-.6a3.8 3.8 0 0 0-2-1.4 18.4 18.4 0 0 0-4.7-.6l-2.3.2a21.1 21.1 0 0 0-4.3 1.2z"></path><path d="M755.3 435.7c-3.2 3.7 2.3 9.1 5.5 5.3l.4-.3v-9.4a16.1 16.1 0 0 0-5.9 4.4z"></path><path d="M653.4 413a9.3 9.3 0 0 1 7.2-7.4c4.8-1.1 2.7-8.5-2.2-7.4a16.8 16.8 0 0 0-12.5 12.9c-.9 4.8 6.5 6.8 7.5 1.9z"></path><path d="M631.3 432.6c.2 5 7.9 4.4 7.7-.5a36.2 36.2 0 0 0-4.4-16.4c-1-1.8-3.7-2.1-5.4-1a3.9 3.9 0 0 0-1 5.3 27.6 27.6 0 0 1 3.1 12.6z"></path><path d="M726.5 505a20.2 20.2 0 0 0-11.4 13.6c-.5 2 .2 4.2 2.3 4.9s4.4-.3 4.9-2.4a13.5 13.5 0 0 1 7.7-9.2c4.5-2 1.1-8.9-3.5-6.9z"></path><path d="M615.6 516.4A41.6 41.6 0 0 1 613 532c-1.8 4.6 5.4 7.6 7.1 2.9a54 54 0 0 0 3.2-19.5c-.2-5-7.8-4-7.7 1z"></path><path d="M689.8 400.6a42 42 0 0 1 15.8-.1c4.9 1 6.6-6.6 1.7-7.5a52.7 52.7 0 0 0-19.8.2c-4.8 1-2.5 8.4 2.3 7.4z"></path><path d="M735.2 422.7c-.1 3.3-2.2 5.7-5.1 7s-2.3 3.7-1.3 5.3 3.4 2.2 5.3 1.3a15.1 15.1 0 0 0 8.8-13.7c.2-5-7.5-4.9-7.7.1z"></path><path d="M673.7 519.5a77.8 77.8 0 0 0-12.1 10.8c-3.4 3.6 2.2 8.9 5.6 5.3a67.8 67.8 0 0 1 10.5-9.5c3.9-2.9 0-9.5-4-6.6z"></path><path d="M659.6 583.3c-4.2-2.6-8 4.1-3.8 6.7a7.9 7.9 0 0 1 3.5 8c-.2 2.1 2.1 3.8 4 3.8s3.5-1.9 3.7-4c.7-5.8-2.5-11.4-7.4-14.5z"></path><path d="M745.1 617a19.6 19.6 0 0 0-.9 5.9l7.7.5a13.9 13.9 0 0 1 .7-4.4c1.5-4.7-5.9-6.7-7.5-2z"></path><path d="M680.6 606.7c-1.9-.5-4.4.7-4.7 2.8a13.5 13.5 0 0 1-5.1 8.7l9.8.6a20.2 20.2 0 0 0 2.8-7.4 4 4 0 0 0-2.8-4.7z"></path><path d="M761.2 556.2l-.2-.5c-.7-2-3.5-2.6-5.2-1.8a3.8 3.8 0 0 0-1.2.9 3.6 3.6 0 0 0-.8 2.8 4.4 4.4 0 0 0 .3 1.5 14.7 14.7 0 0 0 7.1 8.2v-11.1z"></path><path d="M606.8 567.3a16.5 16.5 0 0 0 5.7 1.8c4.3.5 5.4-5.3 2.3-7.2l-1.6-.5a7.7 7.7 0 0 1-2.3-.6 8.4 8.4 0 0 1-4.1-4.6v11.1z"></path><path d="M633.6 542.5c-.3 2-2.2 4.2-3.7 5.8l-.8.9c-3.4 3.6 2.8 8.3 6.1 4.7a27 27 0 0 0 4.6-6.6 14.8 14.8 0 0 0 1.5-4.8z"></path><path d="M674.3 555.2a4 4 0 0 0-2.1 5 28.5 28.5 0 0 1 .5 13c-.9 4.9 6.7 5.9 7.6 1a35.8 35.8 0 0 0-.9-16.9c-.6-2-3.2-2.9-5.1-2.1z"></path><path d="M722.7 600.4c-4.3 2.7-.3 9.3 3.9 6.7 2.3-1.5 6 1.9 3.5 3.9s-1.2 4.2.1 5.5 3.9 1.2 5.5-.1c9.3-7.7-3.6-21.9-13-16z"></path><path d="M703 570a9.2 9.2 0 0 1-5.1 9c-4.3 2.4-.4 9 4 6.6a16.5 16.5 0 0 0 8.8-15.6c-.3-4.9-8.1-4.9-7.7 0z"></path><path d="M700.1 620.1l9.1.6-2.4-2.1c-2.3-2.4-5.8-.9-6.7 1.5z"></path><path d="M707.2 599a13 13 0 0 1-11.7-2.5c-3.8-3.1-8.4 3.1-4.5 6.2a20.4 20.4 0 0 0 17.3 4 4.1 4.1 0 0 0 3.3-4.4c-.3-1.9-2.3-3.8-4.4-3.3z"></path><path d="M729.1 561.3c-1.5-3.8 3.8-6.4 6.4-8 4.3-2.5-.3-8.7-4.6-6.2-6 3.6-12 9.4-9 17 1.8 4.7 9 1.9 7.2-2.8z"></path><path d="M625.9 604.4a52 52 0 0 0-13.8 9.9l10.9.7a51.5 51.5 0 0 1 6.1-3.6c4.4-2.2 1.3-9.2-3.2-7z"></path><path d="M650.6 608.1c-1.7-4.7-9-2.2-7.3 2.5.8 2.3-.8 4.2-2.8 5.6l9.4.6a10.4 10.4 0 0 0 .7-8.7z"></path><path d="M606.8 595a9.3 9.3 0 0 1 9.6-2.6c3.5 1 5.4-2.9 4.1-5.6l-.4-.6a3.2 3.2 0 0 0-2-1.3 14.9 14.9 0 0 0-4.7-.7l-2.3.2a21.3 21.3 0 0 0-4.3 1.3z"></path><path d="M761.2 585.7a15.8 15.8 0 0 0-5.9 4.3c-3.2 3.8 2.3 9.2 5.5 5.4l.4-.4z"></path><path d="M660.6 560c4.8-1.1 2.7-8.6-2.2-7.4a16.8 16.8 0 0 0-12.5 12.8c-.9 4.9 6.5 6.8 7.5 2a9.2 9.2 0 0 1 7.2-7.4z"></path><path d="M629.2 569a3.9 3.9 0 0 0-1 5.3 28.3 28.3 0 0 1 3.1 12.7c.2 4.9 7.9 4.4 7.7-.6a35.8 35.8 0 0 0-4.4-16.3c-1-1.9-3.7-2.2-5.4-1.1z"></path><path d="M705.6 554.9c4.9.9 6.6-6.6 1.7-7.5a48.9 48.9 0 0 0-19.8.2c-4.8.9-2.5 8.3 2.3 7.3a42 42 0 0 1 15.8 0z"></path><path d="M735.2 577a8 8 0 0 1-5.1 7.1c-1.9.8-2.3 3.7-1.3 5.3s3.4 2.1 5.3 1.3a15.3 15.3 0 0 0 8.8-13.7c.2-5-7.5-4.9-7.7 0z"></path><path d="M486.9 79.4a9.9 9.9 0 0 0-2.2-7.5c-2.3-2.9-6.3-1-6.9 1.8a3.3 3.3 0 0 0 .8 2.9 3.1 3.1 0 0 1 .6 1.3 3.8 3.8 0 0 1 0 1.5z"></path><path d="M577 69.4a40.8 40.8 0 0 1 13.5 8.2c3.7 3.3 9.1-2.2 5.4-5.5a51.1 51.1 0 0 0-17-10.2c-4.7-1.7-6.5 5.8-1.9 7.5z"></path><path d="M540.5 62.3c2.6-.6 5 3.8 2 4.9s-2.5 3.5-1.7 5.2 3.3 2.4 5.2 1.7c11.3-4.3 3.7-21.9-7.2-19.3-4.8 1.1-3.2 8.7 1.7 7.5z"></path><path d="M494.7 56.3a28.3 28.3 0 0 0 .5-5l-7.7 1.2c-.1.9-.2 1.8-.4 2.8-.9 4.9 6.7 5.9 7.6 1z"></path><path d="M595.2 51.5c.6-3.2 3.1-5.3 6.2-6.1s2.8-3.3 2.1-5.1-3.1-2.6-5.1-2.1a15.4 15.4 0 0 0-10.8 12.2c-.9 4.9 6.7 6 7.6 1.1z"></path><path d="M563.1 60.5c1.8.6 4.4-.4 4.9-2.4a13.1 13.1 0 0 1 7.6-9.2c4.6-2 1.1-8.9-3.4-6.9a20.2 20.2 0 0 0-11.5 13.5 4.1 4.1 0 0 0 2.4 5z"></path><path d="M465.8 71.9a53 53 0 0 0 3.1-16.6l-7.7 1.1a41 41 0 0 1-2.6 12.5c-1.7 4.7 5.4 7.6 7.2 3z"></path><path d="M512.9 72.5a66.4 66.4 0 0 1 10.4-9.4c4-2.9 0-9.6-4-6.6a82 82 0 0 0-12.1 10.7c-3.3 3.7 2.3 9 5.7 5.3z"></path><path d="M495.3 169.1c-3.2 6.2-5.3 14.3 1.3 19.2 4 3 8.6-3.2 4.7-6.1s-.3-7.5 1.1-10.2c2.3-4.4-4.9-7.3-7.1-2.9z"></path><path d="M549.9 184.1a50.7 50.7 0 0 0-11.8-15.8c-3.6-3.4-8.2 2.8-4.6 6.2a42 42 0 0 1 9.4 12.7c2.1 4.5 9.2 1.4 7-3.1z"></path><path d="M505.3 120.3c-4.2-2.6-8 4.1-3.8 6.7s3.8 4.8 3.5 8 2 3.8 3.9 3.7 3.6-1.8 3.8-3.9a15.3 15.3 0 0 0-7.4-14.5z"></path><path d="M598.5 173.1c1.7-1 2.7-3.6 1.5-5.3a13.1 13.1 0 0 1-1.8-11.8c1.5-4.7-5.9-6.8-7.4-2.1a20.3 20.3 0 0 0 2.4 17.6 4.1 4.1 0 0 0 5.3 1.6z"></path><path d="M518.8 162.9a20.2 20.2 0 0 0 10.2-14.6 3.8 3.8 0 0 0-2.8-4.6c-1.8-.5-4.3.7-4.6 2.7a13.2 13.2 0 0 1-6.8 9.9c-4.4 2.4-.3 9 4 6.6z"></path><path d="M606.8 93.1l-.2-.5c0-.2-.2-.4-.3-.6a2.6 2.6 0 0 0-1.1-1 4 4 0 0 0-3.7-.1 3 3 0 0 0-1.3.9 4.3 4.3 0 0 0-.8 2.7 4 4 0 0 0 .3 1.5 15.3 15.3 0 0 0 7.1 8.3V93.1z"></path><path d="M458.8 98.4a7.4 7.4 0 0 1-4.1-1.9l-.8-.8a10.8 10.8 0 0 1-1.4-2.6v11.2a18.1 18.1 0 0 0 5.7 1.8c4.9.6 5.5-7.1.6-7.7z"></path><path d="M475.6 85.2l-.9 1c-3.3 3.6 2.8 8.3 6.2 4.6a27.3 27.3 0 0 0 4.6-6.5 14.4 14.4 0 0 0 1.4-4.9h-7.7c-.3 2.1-2.1 4.3-3.6 5.8z"></path><path d="M484.7 226.2c-3.1-3.9-9.2.9-6.1 4.8a3.3 3.3 0 0 1 .7 2.5.4.4 0 0 1-.1.3h7.7a10.1 10.1 0 0 0-2.2-7.6z"></path><path d="M578.9 216.2c-4.7-1.7-6.5 5.8-1.9 7.5a42.8 42.8 0 0 1 13.5 8.3c3.7 3.3 9.1-2.3 5.4-5.6a54.6 54.6 0 0 0-17-10.2z"></path><path d="M538.8 209.1c-4.8 1.2-3.2 8.7 1.7 7.6 2.6-.7 5 3.7 2 4.9s-2.5 3.5-1.7 5.2a3.9 3.9 0 0 0 5.2 1.6c11.3-4.2 3.7-21.9-7.2-19.3z"></path><path d="M518.3 110.2c-.9 4.8 6.8 5.9 7.7 1a35.8 35.8 0 0 0-1-16.9c-.6-2-3.2-2.9-5-2.2a4.1 4.1 0 0 0-2.2 5 26.4 26.4 0 0 1 .5 13.1z"></path><path d="M572.3 144c2.2-1.4 6 2 3.5 4s-1.3 4.1.1 5.5a3.9 3.9 0 0 0 5.4-.2c9.4-7.6-3.5-21.9-13-15.9-4.2 2.6-.2 9.3 4 6.6z"></path><path d="M488.7 191.6c-2.1.8-2.7 3-2.1 5a28.6 28.6 0 0 1 .5 13c-.9 4.9 6.7 6 7.6 1.1a34.6 34.6 0 0 0-1-16.9c-.6-2-3.2-2.9-5-2.2z"></path><path d="M548.6 107a9.1 9.1 0 0 1-5 9c-4.4 2.3-.4 8.9 4 6.6a16.8 16.8 0 0 0 8.7-15.6c-.3-5-8-5-7.7 0z"></path><path d="M546.6 160.5a81.5 81.5 0 0 0 12.5 10.3c4.2 2.7 8.5-3.7 4.4-6.4a67 67 0 0 1-11-8.9c-3.5-3.4-9.4 1.5-5.9 5z"></path><path d="M552.9 136a13.2 13.2 0 0 1-11.7-2.5c-3.9-3.1-8.4 3.1-4.6 6.2a20.1 20.1 0 0 0 17.4 3.9 3.8 3.8 0 0 0 3.2-4.3c-.2-1.9-2.3-3.8-4.3-3.3z"></path><path d="M598.4 192.6a15.4 15.4 0 0 0-10.8 12.1c-.9 4.9 6.7 6 7.6 1.2a7.9 7.9 0 0 1 6.2-6.2c2-.5 2.8-3.3 2.1-5s-3.1-2.6-5.1-2.1z"></path><path d="M574.7 98.3c-1.4-3.8 3.8-6.5 6.4-8 4.3-2.6-.3-8.8-4.5-6.3-6 3.6-12 9.5-9.1 17.1 1.9 4.6 9.1 1.8 7.2-2.8z"></path><path d="M462 157.8a42 42 0 0 1 12.7-9.4c4.5-2.2 1.4-9.3-3.1-7.1a53 53 0 0 0-15.8 11.9c-3.3 3.7 2.9 8.3 6.2 4.6z"></path><path d="M486.6 161.8c6.1-3.4 12.4-9 9.6-16.7-1.6-4.7-8.9-2.2-7.3 2.5s-4 6.3-6.6 7.8c-4.4 2.4 0 8.8 4.3 6.4z"></path><path d="M514.5 188a10.4 10.4 0 0 0-3.4 11.5c1.5 4.7 8.6 1.7 7.1-3-.5-1.4 1.2-2.7 2.3-3.1a11.6 11.6 0 0 1 6.4.2c4.9.9 5.9-6.7 1.1-7.7s-9.7-.9-13.5 2.1z"></path><path d="M479.5 180.5c-.4-1.9-2.8-3.5-4.7-2.7a10.8 10.8 0 0 1-11.3-1.3c-4-2.9-7.8 3.8-3.8 6.7a17.7 17.7 0 0 0 17.2 2c1.9-.8 3.2-2.5 2.6-4.7z"></path><path d="M567.8 185.8a17 17 0 0 0 17.9-1.4c3.9-3.1-.4-9.5-4.4-6.4a9.2 9.2 0 0 1-10.2.8c-4.4-2.4-7.7 4.6-3.3 7z"></path><path d="M462 129.4c3.6 1 5.5-3 4.2-5.6l-.4-.6a4.8 4.8 0 0 0-2-1.4 17.6 17.6 0 0 0-9.4.1l-1.9.7v9.4a9 9 0 0 1 9.5-2.6z"></path><path d="M606.8 122.6a16.9 16.9 0 0 0-5.9 4.4c-3.2 3.7 2.4 9.1 5.6 5.3l.3-.3z"></path><path d="M499.1 104.3a9.1 9.1 0 0 1 7.1-7.4c4.9-1.1 2.7-8.5-2.1-7.4a16.7 16.7 0 0 0-12.5 12.9c-1 4.8 6.5 6.8 7.5 1.9z"></path><path d="M477 123.9c.1 5 7.8 4.4 7.7-.5a36.2 36.2 0 0 0-4.4-16.4c-1-1.8-3.8-2.1-5.4-1a3.9 3.9 0 0 0-1.1 5.3 27.7 27.7 0 0 1 3.2 12.6z"></path><path d="M572.2 196.3a20.4 20.4 0 0 0-11.5 13.6 4 4 0 0 0 2.4 4.9c1.8.6 4.4-.3 4.9-2.4a13.1 13.1 0 0 1 7.6-9.2c4.6-2 1.1-8.9-3.4-6.9z"></path><path d="M461.3 207.7a41.7 41.7 0 0 1-2.7 15.6c-1.7 4.6 5.4 7.6 7.2 2.9a51.8 51.8 0 0 0 3.1-19.5c-.1-5-7.8-4-7.6 1z"></path><path d="M535.5 91.9a42 42 0 0 1 15.8 0c4.9.9 6.6-6.7 1.7-7.6a52.7 52.7 0 0 0-19.8.2c-4.9 1-2.6 8.4 2.3 7.4z"></path><path d="M580.9 114a7.8 7.8 0 0 1-5.2 7c-1.9.9-2.2 3.7-1.3 5.3s3.4 2.2 5.4 1.3c5.3-2.3 8.6-7.9 8.8-13.7s-7.6-4.9-7.7.1z"></path><path d="M519.3 210.8a82.7 82.7 0 0 0-12.1 10.8c-3.3 3.6 2.3 8.9 5.7 5.3a67.1 67.1 0 0 1 10.4-9.5c4-2.9 0-9.5-4-6.6z"></path><path d="M495.3 323.4c-3.2 6.2-5.3 14.4 1.3 19.3 4 3 8.6-3.2 4.7-6.2s-.3-7.5 1.1-10.2c2.3-4.4-4.9-7.3-7.1-2.9z"></path><path d="M549.9 338.5a51.1 51.1 0 0 0-11.8-15.9c-3.6-3.3-8.2 2.9-4.6 6.2a42.4 42.4 0 0 1 9.4 12.8c2.1 4.4 9.2 1.4 7-3.1z"></path><path d="M505.3 274.6c-4.2-2.6-8 4.1-3.8 6.7s3.8 4.8 3.5 8 2 3.8 3.9 3.8a4 4 0 0 0 3.8-3.9c.7-5.9-2.5-11.5-7.4-14.6z"></path><path d="M598.5 327.4c1.7-.9 2.7-3.5 1.5-5.2a13.3 13.3 0 0 1-1.8-11.9c1.5-4.7-5.9-6.7-7.4-2a20.3 20.3 0 0 0 2.4 17.6 4 4 0 0 0 5.3 1.5z"></path><path d="M518.8 317.2a20.2 20.2 0 0 0 10.2-14.5 3.8 3.8 0 0 0-2.8-4.7c-1.8-.5-4.3.7-4.6 2.8a13.2 13.2 0 0 1-6.8 9.8c-4.4 2.4-.3 9 4 6.6z"></path><path d="M606.8 247.5a.8.8 0 0 0-.2-.5 1.5 1.5 0 0 0-.3-.7 5.2 5.2 0 0 0-1.1-1 4.4 4.4 0 0 0-3.7-.1 4.5 4.5 0 0 0-1.3 1 4.1 4.1 0 0 0-.8 2.7 4 4 0 0 0 .3 1.5 15.1 15.1 0 0 0 7.1 8.2v-11.1z"></path><path d="M458.8 252.7a6.8 6.8 0 0 1-4.1-1.9l-.8-.8a10.1 10.1 0 0 1-1.4-2.5v11.1a15.9 15.9 0 0 0 5.7 1.8c4.9.6 5.5-7.1.6-7.7z"></path><path d="M479.2 233.8c-.3 2.5-3 5.1-4.5 6.7a3.2 3.2 0 0 0-.4 4 4.2 4.2 0 0 0 6.6.7l.9-1 2.4-3.2.7-1.2a25.6 25.6 0 0 0 1.1-2.4 11.9 11.9 0 0 0 .9-3.6z"></path><path d="M484.7 380.6a3.7 3.7 0 0 0-4.8-1l-1.1.9a3.5 3.5 0 0 0-1 1.9 3.4 3.4 0 0 0 .8 2.9 3.6 3.6 0 0 1 .7 2.6.3.3 0 0 1-.1.2h7.7a9.9 9.9 0 0 0-2.2-7.5z"></path><path d="M578.9 370.6c-4.7-1.7-6.5 5.8-1.9 7.5a40.8 40.8 0 0 1 13.5 8.2c3.7 3.3 9.1-2.2 5.4-5.6a52.5 52.5 0 0 0-17-10.1z"></path><path d="M538.8 363.5c-4.8 1.1-3.2 8.7 1.7 7.5 2.6-.6 5 3.8 2 4.9s-2.5 3.5-1.7 5.2 3.3 2.4 5.2 1.7c11.3-4.3 3.7-21.9-7.2-19.3z"></path><path d="M518.3 264.5c-.9 4.9 6.8 5.9 7.7 1.1a36.3 36.3 0 0 0-1-17c-.6-2-3.2-2.8-5-2.1s-2.7 3-2.2 5a26.1 26.1 0 0 1 .5 13z"></path><path d="M572.3 298.4c2.2-1.5 6 1.9 3.5 4s-1.3 4.1.1 5.4 3.8 1.2 5.4-.1c9.4-7.7-3.5-21.9-13-16-4.2 2.7-.2 9.3 4 6.7z"></path><path d="M488.7 346c-2.1.8-2.7 3-2.1 5a28.5 28.5 0 0 1 .5 13c-.9 4.9 6.7 5.9 7.6 1a34.6 34.6 0 0 0-1-16.9 3.8 3.8 0 0 0-5-2.1z"></path><path d="M548.6 261.3a9.1 9.1 0 0 1-5 9c-4.4 2.4-.4 9 4 6.7a16.9 16.9 0 0 0 8.7-15.7c-.3-4.9-8-4.9-7.7 0z"></path><path d="M546.6 314.9a87 87 0 0 0 12.5 10.2c4.2 2.7 8.5-3.6 4.4-6.4a72 72 0 0 1-11-8.8c-3.5-3.5-9.4 1.5-5.9 5z"></path><path d="M552.9 290.3a12.7 12.7 0 0 1-11.7-2.5c-3.9-3.1-8.4 3.1-4.6 6.2a20.5 20.5 0 0 0 17.4 4 4 4 0 0 0 3.2-4.4 3.9 3.9 0 0 0-4.3-3.3z"></path><path d="M598.4 346.9a15.4 15.4 0 0 0-10.8 12.2c-.9 4.9 6.7 6 7.6 1.1.6-3.2 3.1-5.3 6.2-6.1s2.8-3.3 2.1-5.1-3.1-2.6-5.1-2.1z"></path><path d="M574.7 252.7c-1.4-3.8 3.8-6.5 6.4-8.1 4.3-2.5-.3-8.7-4.5-6.2-6 3.6-12 9.4-9.1 17 1.9 4.7 9.1 1.9 7.2-2.7z"></path><path d="M455.8 307.6c-3.3 3.7 2.9 8.2 6.2 4.6a42.3 42.3 0 0 1 12.7-9.5c4.5-2.1 1.4-9.2-3.1-7a49.9 49.9 0 0 0-15.8 11.9z"></path><path d="M486.6 316.1c6.1-3.3 12.4-9 9.6-16.7-1.6-4.7-8.9-2.2-7.3 2.5s-4 6.4-6.6 7.8c-4.4 2.4 0 8.8 4.3 6.4z"></path><path d="M514.5 342.4a10.3 10.3 0 0 0-3.4 11.5c1.5 4.7 8.6 1.7 7.1-3-.5-1.4 1.2-2.7 2.3-3.1s4.4-.3 6.4.1c4.9 1 5.9-6.7 1.1-7.6s-9.7-.9-13.5 2.1z"></path><path d="M479.5 334.8c-.4-1.8-2.8-3.5-4.7-2.7a11 11 0 0 1-11.3-1.2c-4-3-7.8 3.7-3.8 6.6a18 18 0 0 0 17.2 2.1c1.9-.9 3.2-2.6 2.6-4.8z"></path><path d="M567.8 340.1a16.8 16.8 0 0 0 17.9-1.4c3.9-3-.4-9.4-4.4-6.4a8.9 8.9 0 0 1-10.2.8c-4.4-2.3-7.7 4.7-3.3 7z"></path><path d="M462 283.7c3.6 1 5.5-2.9 4.2-5.6l-.4-.6a3.9 3.9 0 0 0-2-1.3 16.7 16.7 0 0 0-9.4.1l-1.9.7v9.3a9.4 9.4 0 0 1 9.5-2.6z"></path><path d="M606.8 277a16.6 16.6 0 0 0-5.9 4.3c-3.2 3.8 2.4 9.2 5.6 5.4l.3-.4z"></path><path d="M499.1 258.7a9.1 9.1 0 0 1 7.1-7.4c4.9-1.1 2.7-8.5-2.1-7.4a16.7 16.7 0 0 0-12.5 12.8c-1 4.9 6.5 6.9 7.5 2z"></path><path d="M477 278.3c.1 5 7.8 4.4 7.7-.6a35.8 35.8 0 0 0-4.4-16.3c-1-1.9-3.8-2.2-5.4-1.1a4 4 0 0 0-1.1 5.4 27.7 27.7 0 0 1 3.2 12.6z"></path><path d="M572.2 350.7a20.2 20.2 0 0 0-11.5 13.5 4 4 0 0 0 2.4 4.9c1.8.7 4.4-.3 4.9-2.3a12.7 12.7 0 0 1 7.6-9.2c4.6-2 1.1-8.9-3.4-6.9z"></path><path d="M461.3 362a41.4 41.4 0 0 1-2.7 15.6c-1.7 4.7 5.4 7.6 7.2 2.9a51.5 51.5 0 0 0 3.1-19.5c-.1-4.9-7.8-3.9-7.6 1z"></path><path d="M535.5 246.2a42 42 0 0 1 15.8 0c4.9.9 6.6-6.6 1.7-7.5a50.7 50.7 0 0 0-19.8.2c-4.9 1-2.6 8.3 2.3 7.3z"></path><path d="M580.9 268.3a8 8 0 0 1-5.2 7.1c-1.9.8-2.2 3.7-1.3 5.3s3.4 2.1 5.4 1.3a15.7 15.7 0 0 0 8.8-13.7c.1-5-7.6-4.9-7.7 0z"></path><path d="M519.3 365.2a82 82 0 0 0-12.1 10.7c-3.3 3.7 2.3 9 5.7 5.3a66.4 66.4 0 0 1 10.4-9.4c4-3 0-9.6-4-6.6z"></path><path d="M495.3 477.8c-3.2 6.2-5.3 14.3 1.3 19.2 4 3 8.6-3.2 4.7-6.1s-.3-7.6 1.1-10.2c2.3-4.4-4.9-7.3-7.1-2.9z"></path><path d="M549.9 492.8a50.7 50.7 0 0 0-11.8-15.8c-3.6-3.4-8.2 2.8-4.6 6.2a42 42 0 0 1 9.4 12.7c2.1 4.5 9.2 1.4 7-3.1z"></path><path d="M512.7 443.5a15.3 15.3 0 0 0-7.4-14.5c-4.2-2.6-8 4.1-3.8 6.7s3.8 4.8 3.5 8 2 3.8 3.9 3.7 3.6-1.8 3.8-3.9z"></path><path d="M598.5 481.7c1.7-.9 2.7-3.5 1.5-5.2a13.1 13.1 0 0 1-1.8-11.8c1.5-4.7-5.9-6.8-7.4-2.1a20.3 20.3 0 0 0 2.4 17.6 4 4 0 0 0 5.3 1.5z"></path><path d="M518.8 471.6A20.2 20.2 0 0 0 529 457a3.9 3.9 0 0 0-2.8-4.7c-1.8-.4-4.3.8-4.6 2.8a13.4 13.4 0 0 1-6.8 9.9c-4.4 2.4-.3 9 4 6.6z"></path><path d="M606.3 400.6a3.1 3.1 0 0 0-1.1-.9 4.4 4.4 0 0 0-3.7-.2 4.5 4.5 0 0 0-1.3 1 4.3 4.3 0 0 0-.8 2.7 4 4 0 0 0 .3 1.5 14.7 14.7 0 0 0 7.1 8.2v-11.1c0-.2-.1-.3-.2-.5a2.1 2.1 0 0 0-.3-.7z"></path><path d="M452.5 412.9a16 16 0 0 0 5.7 1.9c4.9.6 5.5-7.1.6-7.7a7.4 7.4 0 0 1-4.1-1.9l-.8-.8a10.8 10.8 0 0 1-1.4-2.6v11.1z"></path><path d="M479.2 388.1c-.3 2.5-3 5.1-4.5 6.7-3.3 3.7 2.8 8.4 6.2 4.7a16.3 16.3 0 0 0 1.7-2 7.6 7.6 0 0 0 .8-1.1 23.9 23.9 0 0 0 2.1-3.4 14.4 14.4 0 0 0 1.4-4.9z"></path><path d="M484.7 534.9a3.6 3.6 0 0 0-4.1-1.2c-2.3.8-4 3.5-2 6a3.4 3.4 0 0 1 .6 1.2 4.3 4.3 0 0 1 0 1.6h7.7a10.1 10.1 0 0 0-2.2-7.6z"></path><path d="M578.9 524.9c-4.7-1.7-6.5 5.8-1.9 7.5a44.4 44.4 0 0 1 13.5 8.2c3.7 3.4 9.1-2.2 5.4-5.5a54.6 54.6 0 0 0-17-10.2z"></path><path d="M538.8 517.8c-4.8 1.2-3.2 8.7 1.7 7.6 2.6-.7 5 3.7 2 4.9s-2.5 3.5-1.7 5.2 3.3 2.3 5.2 1.6c11.3-4.2 3.7-21.9-7.2-19.3z"></path><path d="M518.3 418.8c-.9 4.9 6.8 6 7.7 1.1a35.8 35.8 0 0 0-1-16.9c-.6-2-3.2-2.9-5-2.2a4.1 4.1 0 0 0-2.2 5 26.1 26.1 0 0 1 .5 13z"></path><path d="M572.3 452.7c2.2-1.4 6 2 3.5 4s-1.3 4.1.1 5.5a3.9 3.9 0 0 0 5.4-.2c9.4-7.6-3.5-21.9-13-15.9-4.2 2.6-.2 9.3 4 6.6z"></path><path d="M488.7 500.3c-2.1.8-2.7 3-2.1 5a28.6 28.6 0 0 1 .5 13c-.9 4.9 6.7 5.9 7.6 1.1a35 35 0 0 0-1-17c-.6-2-3.2-2.8-5-2.1z"></path><path d="M548.6 415.7a9.1 9.1 0 0 1-5 9c-4.4 2.3-.4 8.9 4 6.6a16.8 16.8 0 0 0 8.7-15.6c-.3-5-8-5-7.7 0z"></path><path d="M563.5 473.1a67 67 0 0 1-11-8.9c-3.5-3.4-9.4 1.5-5.9 5a80.8 80.8 0 0 0 12.5 10.2c4.2 2.8 8.5-3.6 4.4-6.3z"></path><path d="M552.9 444.7a13.2 13.2 0 0 1-11.7-2.5c-3.9-3.2-8.4 3.1-4.6 6.2a20.1 20.1 0 0 0 17.4 3.9 3.9 3.9 0 0 0 3.2-4.3c-.2-1.9-2.3-3.8-4.3-3.3z"></path><path d="M598.4 501.3a15.4 15.4 0 0 0-10.8 12.1c-.9 4.9 6.7 6 7.6 1.2a7.9 7.9 0 0 1 6.2-6.2c2-.5 2.8-3.3 2.1-5s-3.1-2.7-5.1-2.1z"></path><path d="M574.7 407c-1.4-3.8 3.8-6.5 6.4-8 4.3-2.6-.3-8.8-4.5-6.3-6 3.6-12 9.5-9.1 17.1 1.9 4.6 9.1 1.8 7.2-2.8z"></path><path d="M462 466.5a42 42 0 0 1 12.7-9.4c4.5-2.2 1.4-9.3-3.1-7.1a53 53 0 0 0-15.8 11.9c-3.3 3.7 2.9 8.3 6.2 4.6z"></path><path d="M486.6 470.5c6.1-3.4 12.4-9 9.6-16.8-1.6-4.6-8.9-2.1-7.3 2.6s-4 6.3-6.6 7.8c-4.4 2.4 0 8.7 4.3 6.4z"></path><path d="M528 494.6c-4.6-.9-9.7-.9-13.5 2.1a10.4 10.4 0 0 0-3.4 11.5c1.5 4.7 8.6 1.7 7.1-3-.5-1.4 1.2-2.7 2.3-3.1s4.4-.3 6.4.1c4.9 1 5.9-6.6 1.1-7.6z"></path><path d="M474.8 486.5a11.2 11.2 0 0 1-11.3-1.3c-4-2.9-7.8 3.8-3.8 6.7a17.7 17.7 0 0 0 17.2 2 4 4 0 0 0 2.6-4.8c-.4-1.8-2.8-3.4-4.7-2.6z"></path><path d="M567.8 494.5a16.8 16.8 0 0 0 17.9-1.5c3.9-3-.4-9.4-4.4-6.4a9.1 9.1 0 0 1-10.2.9c-4.4-2.4-7.7 4.6-3.3 7z"></path><path d="M462 438c3.6 1.1 5.5-2.9 4.2-5.5l-.4-.6a4.8 4.8 0 0 0-2-1.4 16.7 16.7 0 0 0-9.4.1l-1.9.7v9.4a9.2 9.2 0 0 1 9.5-2.7z"></path><path d="M600.9 435.7c-3.2 3.7 2.4 9.1 5.6 5.3l.3-.3v-9.4a16.9 16.9 0 0 0-5.9 4.4z"></path><path d="M499.1 413a9.1 9.1 0 0 1 7.1-7.4c4.9-1.1 2.7-8.5-2.1-7.4a16.7 16.7 0 0 0-12.5 12.9c-1 4.8 6.5 6.8 7.5 1.9z"></path><path d="M477 432.6c.1 5 7.8 4.4 7.7-.5a36.2 36.2 0 0 0-4.4-16.4c-1-1.8-3.8-2.1-5.4-1a3.9 3.9 0 0 0-1.1 5.3 27.7 27.7 0 0 1 3.2 12.6z"></path><path d="M572.2 505a20.4 20.4 0 0 0-11.5 13.6 4 4 0 0 0 2.4 4.9c1.8.6 4.4-.3 4.9-2.4a13.1 13.1 0 0 1 7.6-9.2c4.6-2 1.1-8.9-3.4-6.9z"></path><path d="M461.3 516.4a41.7 41.7 0 0 1-2.7 15.6c-1.7 4.6 5.4 7.6 7.2 2.9a51.8 51.8 0 0 0 3.1-19.5c-.1-5-7.8-4-7.6 1z"></path><path d="M535.5 400.6a42 42 0 0 1 15.8-.1c4.9 1 6.6-6.6 1.7-7.5a52.7 52.7 0 0 0-19.8.2c-4.9 1-2.6 8.4 2.3 7.4z"></path><path d="M580.9 422.7c-.1 3.3-2.2 5.7-5.2 7s-2.2 3.7-1.3 5.3 3.4 2.2 5.4 1.3c5.3-2.3 8.6-7.9 8.8-13.7s-7.6-4.9-7.7.1z"></path><path d="M519.3 519.5a82.7 82.7 0 0 0-12.1 10.8c-3.3 3.6 2.3 8.9 5.7 5.3a67.1 67.1 0 0 1 10.4-9.5c4-2.9 0-9.5-4-6.6z"></path><path d="M505.3 583.3c-4.2-2.6-8 4.1-3.8 6.7s3.8 4.8 3.5 8 2 3.8 3.9 3.8 3.6-1.9 3.8-4c.7-5.8-2.5-11.4-7.4-14.5z"></path><path d="M526.2 606.7a4 4 0 0 0-4.3 1.8l6.8.4a3.5 3.5 0 0 0-2.5-2.2z"></path><path d="M606.3 555a5.2 5.2 0 0 0-1.1-1 4.4 4.4 0 0 0-3.7-.1 4.3 4.3 0 0 0-1.3.9 4.6 4.6 0 0 0-.8 2.8 4.4 4.4 0 0 0 .3 1.5 15.1 15.1 0 0 0 7.1 8.2v-11.1a.8.8 0 0 0-.2-.5 1.5 1.5 0 0 0-.3-.7z"></path><path d="M452.5 567.3a15.9 15.9 0 0 0 5.7 1.8c4.9.6 5.5-7.1.6-7.7a7.4 7.4 0 0 1-4.1-1.9l-.8-.8a10.1 10.1 0 0 1-1.4-2.5v11.1z"></path><path d="M479.2 542.5c-.3 2-2.1 4.2-3.6 5.8l-.9.9c-3.3 3.6 2.8 8.3 6.2 4.7a30.1 30.1 0 0 0 4.6-6.6 14.6 14.6 0 0 0 1.4-4.8z"></path><path d="M520 555.2c-2.1.8-2.7 3-2.2 5a26 26 0 0 1 .5 13c-.9 4.9 6.8 5.9 7.7 1a35.9 35.9 0 0 0-1-16.9 3.8 3.8 0 0 0-5-2.1z"></path><path d="M568.3 600.4c-4.2 2.7-.2 9.3 4 6.7 2.2-1.5 6 1.9 3.5 3.9l-.7.9 9 .6c2.7-7.7-7.8-17.1-15.8-12.1z"></path><path d="M548.6 570a9.1 9.1 0 0 1-5 9c-4.4 2.4-.4 9 4 6.6a16.6 16.6 0 0 0 8.7-15.6c-.3-4.9-8-4.9-7.7 0z"></path><path d="M552.9 599a13 13 0 0 1-11.7-2.5c-3.9-3.1-8.4 3.1-4.6 6.2a20.5 20.5 0 0 0 17.4 4 4 4 0 0 0 3.2-4.4c-.2-1.9-2.3-3.8-4.3-3.3z"></path><path d="M574.7 561.3c-1.4-3.8 3.8-6.4 6.4-8 4.3-2.5-.3-8.7-4.5-6.2-6 3.6-12 9.4-9.1 17 1.9 4.7 9.1 1.9 7.2-2.8z"></path><path d="M471.6 604.4l-1.3.7 5.8.4a3.4 3.4 0 0 0-4.5-1.1z"></path><path d="M490.3 606.4l5.1.3a3.8 3.8 0 0 0-5.1-.3z"></path><path d="M462 592.4c3.6 1 5.5-2.9 4.2-5.6l-.4-.6a3.9 3.9 0 0 0-2-1.3 16.7 16.7 0 0 0-9.4.1l-1.9.7v9.3a9.2 9.2 0 0 1 9.5-2.6z"></path><path d="M600.9 590c-3.2 3.8 2.4 9.2 5.6 5.4l.3-.4v-9.3a16.6 16.6 0 0 0-5.9 4.3z"></path><path d="M506.2 560c4.9-1.1 2.7-8.6-2.1-7.4a16.7 16.7 0 0 0-12.5 12.8c-1 4.9 6.5 6.8 7.5 2a8.9 8.9 0 0 1 7.1-7.4z"></path><path d="M474.9 569a3.9 3.9 0 0 0-1.1 5.3A28.4 28.4 0 0 1 477 587c.1 4.9 7.8 4.4 7.7-.6a35.8 35.8 0 0 0-4.4-16.3c-1-1.9-3.8-2.2-5.4-1.1z"></path><path d="M551.3 554.9c4.9.9 6.6-6.6 1.7-7.5a48.9 48.9 0 0 0-19.8.2c-4.9.9-2.6 8.3 2.3 7.3a42 42 0 0 1 15.8 0z"></path><path d="M580.9 577a8 8 0 0 1-5.2 7.1c-1.9.8-2.2 3.7-1.3 5.3s3.4 2.1 5.4 1.3a15.7 15.7 0 0 0 8.8-13.7c.1-5-7.6-4.9-7.7 0z"></path><path d="M324.9 79.4h7.7a11 11 0 0 0-.3-3.6l-7.9 1.2a4.1 4.1 0 0 1 .5.9 3.8 3.8 0 0 1 0 1.5z"></path><path d="M422.6 69.4a38.9 38.9 0 0 1 13.5 8.2c3.7 3.3 9.1-2.2 5.4-5.5a51.3 51.3 0 0 0-16.9-10.2l-3.4.5c-1.8 1.8-1.8 5.8 1.4 7z"></path><path d="M386.5 72.4c1.1 2.1 3.2 2.4 5.2 1.7a8 8 0 0 0 5.5-8.1l-9.5 1.5a3.9 3.9 0 0 0-1.2 4.9z"></path><path d="M358.5 72.5l.8-.7-6 .9a3.5 3.5 0 0 0 5.2-.2z"></path><path d="M340.9 169.1c-3.2 6.2-5.2 14.3 1.4 19.2 4 3 8.6-3.2 4.6-6.1s-.2-7.5 1.2-10.2c2.3-4.4-4.9-7.3-7.2-2.9z"></path><path d="M395.6 184.1a52.3 52.3 0 0 0-11.8-15.8c-3.7-3.4-8.3 2.8-4.6 6.2a41.7 41.7 0 0 1 9.3 12.7c2.2 4.5 9.2 1.4 7.1-3.1z"></path><path d="M351 120.3c-4.3-2.6-8.1 4.1-3.9 6.7a7.9 7.9 0 0 1 3.5 8c-.2 2 2.1 3.8 4 3.7s3.5-1.8 3.7-3.9a15.4 15.4 0 0 0-7.3-14.5z"></path><path d="M444.1 173.1c1.7-1 2.7-3.6 1.5-5.3a13 13 0 0 1-1.7-11.8c1.5-4.7-5.9-6.8-7.5-2.1a20.3 20.3 0 0 0 2.5 17.6 4 4 0 0 0 5.2 1.6z"></path><path d="M364.5 162.9a20.2 20.2 0 0 0 10.2-14.6 3.9 3.9 0 0 0-2.8-4.6c-1.9-.5-4.4.7-4.7 2.7a12.9 12.9 0 0 1-6.8 9.9c-4.3 2.4-.3 9 4.1 6.6z"></path><path d="M452.5 93.1c-.1-.1-.1-.3-.2-.5l-.3-.6a2.3 2.3 0 0 0-1.2-1 4 4 0 0 0-3.7-.1c-2 1-2.4 3.1-1.7 5.1a14.9 14.9 0 0 0 7.1 8.3V93.1z"></path><path d="M307.2 104.7l.3-.6a3.5 3.5 0 0 0 .3-1.4 2.6 2.6 0 0 0-.1-1.5 3.8 3.8 0 0 0-.6-1.3l-.4-.5a4.1 4.1 0 0 0-2.2-1 7.1 7.1 0 0 1-4.1-1.9l-.8-.8a11 11 0 0 1-1.5-2.6v11.2a19 19 0 0 0 5.7 1.8 3.5 3.5 0 0 0 3.4-1.4z"></path><path d="M324.9 79.4c-.3 2.1-2.2 4.3-3.7 5.8l-.8 1c-3.4 3.6 2.8 8.3 6.1 4.6a24.7 24.7 0 0 0 4.6-6.5 14.6 14.6 0 0 0 1.5-4.9z"></path><path d="M330.3 226.2c-3.1-3.9-9.2.9-6.1 4.8a3.9 3.9 0 0 1 .8 2.5c0 .1-.1.2-.1.3h7.7a10.7 10.7 0 0 0-2.3-7.6z"></path><path d="M424.6 216.2c-4.7-1.7-6.6 5.8-2 7.5a40.7 40.7 0 0 1 13.5 8.3c3.7 3.3 9.1-2.3 5.4-5.6a53.1 53.1 0 0 0-16.9-10.2z"></path><path d="M384.5 209.1c-4.8 1.2-3.2 8.7 1.6 7.6 2.6-.7 5 3.7 2 4.9s-2.5 3.5-1.6 5.2 3.2 2.4 5.2 1.6c11.3-4.2 3.7-21.9-7.2-19.3z"></path><path d="M364 110.2c-.9 4.8 6.7 5.9 7.6 1a35.8 35.8 0 0 0-.9-16.9c-.6-2-3.2-2.9-5-2.2a4 4 0 0 0-2.2 5 29 29 0 0 1 .5 13.1z"></path><path d="M417.9 144c2.3-1.4 6 2 3.5 4s-1.2 4.1.1 5.5a4 4 0 0 0 5.5-.2c9.3-7.6-3.6-21.9-13-15.9-4.2 2.6-.3 9.3 3.9 6.6z"></path><path d="M334.4 191.6a3.9 3.9 0 0 0-2.2 5 27.3 27.3 0 0 1 .5 13c-.9 4.9 6.8 6 7.7 1.1a37.1 37.1 0 0 0-1-16.9c-.6-2-3.2-2.9-5-2.2z"></path><path d="M394.3 107a9.3 9.3 0 0 1-5 9c-4.4 2.3-.5 8.9 3.9 6.6A16.7 16.7 0 0 0 402 107c-.3-5-8-5-7.7 0z"></path><path d="M392.3 160.5a72.9 72.9 0 0 0 12.5 10.3c4.1 2.7 8.5-3.7 4.3-6.4a71.4 71.4 0 0 1-11-8.9c-3.5-3.4-9.4 1.5-5.8 5z"></path><path d="M398.5 136a13.4 13.4 0 0 1-11.7-2.5c-3.8-3.1-8.4 3.1-4.5 6.2a20 20 0 0 0 17.3 3.9 3.9 3.9 0 0 0 3.3-4.3c-.3-1.9-2.3-3.8-4.4-3.3z"></path><path d="M444.1 192.6a15.5 15.5 0 0 0-10.9 12.1c-.9 4.9 6.8 6 7.7 1.2a7.8 7.8 0 0 1 6.1-6.2c2-.5 2.8-3.3 2.1-5s-3-2.6-5-2.1z"></path><path d="M420.4 98.3c-1.5-3.8 3.8-6.5 6.4-8 4.3-2.6-.3-8.8-4.5-6.3-6.1 3.6-12.1 9.5-9.1 17.1 1.8 4.6 9 1.8 7.2-2.8z"></path><path d="M301.5 153.2c-3.4 3.7 2.9 8.3 6.2 4.6a42 42 0 0 1 12.7-9.4c4.4-2.2 1.3-9.3-3.2-7.1a53.9 53.9 0 0 0-15.7 11.9z"></path><path d="M332.3 161.8c6.1-3.4 12.3-9 9.6-16.7-1.7-4.7-9-2.2-7.3 2.5s-4 6.3-6.7 7.8c-4.3 2.4 0 8.8 4.4 6.4z"></path><path d="M360.1 188a10.4 10.4 0 0 0-3.4 11.5c1.6 4.7 8.7 1.7 7.2-3-.5-1.4 1.1-2.7 2.3-3.1s4.3-.3 6.4.2c4.9.9 5.9-6.7 1-7.7s-9.6-.9-13.5 2.1z"></path><path d="M320.4 177.8a10.6 10.6 0 0 1-11.2-1.3c-4-2.9-7.8 3.8-3.9 6.7a17.7 17.7 0 0 0 17.2 2c2-.8 3.3-2.5 2.7-4.7s-2.8-3.5-4.8-2.7z"></path><path d="M413.4 185.8a17 17 0 0 0 17.9-1.4c3.9-3.1-.4-9.5-4.3-6.4a9.4 9.4 0 0 1-10.3.8c-4.3-2.4-7.6 4.6-3.3 7z"></path><path d="M306.3 129.1l1.4.3a3.1 3.1 0 0 0 3.4-.9 2.5 2.5 0 0 0 .8-1.2 1.4 1.4 0 0 0 .2-.7 3.9 3.9 0 0 0-2.7-4.8 17.6 17.6 0 0 0-11.3.8v9.4a9.1 9.1 0 0 1 8.2-2.9z"></path><path d="M452.5 122.6l-2.4 1.3a14.7 14.7 0 0 0-3.5 3.1 3.7 3.7 0 0 0-.5 4.3c1.1 2.2 4 3.4 6 1l.4-.3z"></path><path d="M344.7 104.3a9.3 9.3 0 0 1 7.2-7.4c4.8-1.1 2.7-8.5-2.2-7.4a16.8 16.8 0 0 0-12.5 12.9c-.9 4.8 6.5 6.8 7.5 1.9z"></path><path d="M322.7 123.9c.1 5 7.8 4.4 7.7-.5a37.6 37.6 0 0 0-4.5-16.4c-1-1.8-3.7-2.1-5.3-1a3.9 3.9 0 0 0-1.1 5.3 27.7 27.7 0 0 1 3.2 12.6z"></path><path d="M417.8 196.3a20.2 20.2 0 0 0-11.4 13.6c-.5 2 .2 4.2 2.3 4.9s4.4-.3 4.9-2.4a13.5 13.5 0 0 1 7.7-9.2c4.5-2 1.1-8.9-3.5-6.9z"></path><path d="M306.9 207.7a41.6 41.6 0 0 1-2.6 15.6c-1.7 4.6 5.4 7.6 7.1 2.9a50 50 0 0 0 3.2-19.5c-.1-5-7.8-4-7.7 1z"></path><path d="M381.1 91.9a42.5 42.5 0 0 1 15.9 0c4.8.9 6.5-6.7 1.6-7.6a52.2 52.2 0 0 0-19.7.2c-4.9 1-2.6 8.4 2.2 7.4z"></path><path d="M426.5 114a7.8 7.8 0 0 1-5.1 7c-1.9.9-2.3 3.7-1.3 5.3s3.4 2.2 5.3 1.3a15.1 15.1 0 0 0 8.8-13.7c.2-4.9-7.5-4.9-7.7.1z"></path><path d="M365 210.8a82.7 82.7 0 0 0-12.1 10.8c-3.3 3.6 2.3 8.9 5.6 5.3a67.8 67.8 0 0 1 10.5-9.5c4-2.9 0-9.5-4-6.6z"></path><path d="M340.9 323.4c-3.2 6.2-5.2 14.4 1.4 19.3 4 3 8.6-3.2 4.6-6.2s-.2-7.5 1.2-10.2c2.3-4.4-4.9-7.3-7.2-2.9z"></path><path d="M395.6 338.5a52.7 52.7 0 0 0-11.8-15.9c-3.7-3.3-8.3 2.9-4.6 6.2a42.1 42.1 0 0 1 9.3 12.8c2.2 4.4 9.2 1.4 7.1-3.1z"></path><path d="M351 274.6c-4.3-2.6-8.1 4.1-3.9 6.7a7.9 7.9 0 0 1 3.5 8c-.2 2.1 2.1 3.8 4 3.8s3.5-1.9 3.7-3.9c.7-5.9-2.5-11.5-7.3-14.6z"></path><path d="M444.1 327.4c1.7-.9 2.7-3.5 1.5-5.2a13.2 13.2 0 0 1-1.7-11.9c1.5-4.7-5.9-6.7-7.5-2a20.3 20.3 0 0 0 2.5 17.6c1.2 1.7 3.3 2.6 5.2 1.5z"></path><path d="M364.5 317.2a20.2 20.2 0 0 0 10.2-14.5c.3-2.1-.6-4.2-2.8-4.7s-4.4.7-4.7 2.8a12.9 12.9 0 0 1-6.8 9.8c-4.3 2.4-.3 9 4.1 6.6z"></path><path d="M452.5 247.5c-.1-.2-.1-.4-.2-.5l-.3-.7a4 4 0 0 0-1.2-1 4.4 4.4 0 0 0-3.7-.1c-2 1-2.4 3.2-1.7 5.2a14.7 14.7 0 0 0 7.1 8.2v-11.1z"></path><path d="M307.2 259l.3-.6a3.2 3.2 0 0 0 .3-1.4 2.3 2.3 0 0 0-.1-1.4 3.1 3.1 0 0 0-.6-1.3l-.4-.6a4.1 4.1 0 0 0-2.2-1 6.6 6.6 0 0 1-4.1-1.9 3 3 0 0 1-.8-.8 10.4 10.4 0 0 1-1.5-2.5v11.1a16.5 16.5 0 0 0 5.7 1.8 3.4 3.4 0 0 0 3.4-1.4z"></path><path d="M320.4 240.5a3 3 0 0 0-.4 4 4.1 4.1 0 0 0 6.5.7l.9-1a24.3 24.3 0 0 0 2.4-3.2 7.5 7.5 0 0 0 .7-1.2 13.4 13.4 0 0 0 1.2-2.4 15.8 15.8 0 0 0 .9-3.6h-7.7c-.4 2.5-3 5.1-4.5 6.7z"></path><path d="M330.3 380.6a3.6 3.6 0 0 0-4.7-1l-1.2.9a4.4 4.4 0 0 0-1 1.9 3.7 3.7 0 0 0 .8 2.9 4.2 4.2 0 0 1 .8 2.6.3.3 0 0 0-.1.2h7.7a10.4 10.4 0 0 0-2.3-7.5z"></path><path d="M424.6 370.6c-4.7-1.7-6.6 5.8-2 7.5a38.9 38.9 0 0 1 13.5 8.2c3.7 3.3 9.1-2.2 5.4-5.6a51 51 0 0 0-16.9-10.1z"></path><path d="M384.5 363.5c-4.8 1.1-3.2 8.7 1.6 7.5 2.6-.6 5 3.8 2 4.9s-2.5 3.5-1.6 5.2 3.2 2.4 5.2 1.7c11.3-4.3 3.7-21.9-7.2-19.3z"></path><path d="M364 264.5c-.9 4.9 6.7 5.9 7.6 1.1a36.3 36.3 0 0 0-.9-17c-.6-2-3.2-2.8-5-2.1a3.9 3.9 0 0 0-2.2 5 28.6 28.6 0 0 1 .5 13z"></path><path d="M417.9 298.4c2.3-1.5 6 1.9 3.5 4s-1.2 4.1.1 5.4 3.9 1.2 5.5-.1c9.3-7.7-3.6-21.9-13-16-4.2 2.7-.3 9.3 3.9 6.7z"></path><path d="M334.4 346a3.9 3.9 0 0 0-2.2 5 27.2 27.2 0 0 1 .5 13c-.9 4.9 6.8 5.9 7.7 1a37.1 37.1 0 0 0-1-16.9 3.8 3.8 0 0 0-5-2.1z"></path><path d="M394.3 261.3a9.3 9.3 0 0 1-5 9c-4.4 2.4-.5 9 3.9 6.7a16.8 16.8 0 0 0 8.8-15.7c-.3-4.9-8-4.9-7.7 0z"></path><path d="M392.3 314.9a77.3 77.3 0 0 0 12.5 10.2c4.1 2.7 8.5-3.6 4.3-6.4a77.2 77.2 0 0 1-11-8.8c-3.5-3.5-9.4 1.5-5.8 5z"></path><path d="M398.5 290.3a12.8 12.8 0 0 1-11.7-2.5c-3.8-3.1-8.4 3.1-4.5 6.2a20.4 20.4 0 0 0 17.3 4 4.1 4.1 0 0 0 3.3-4.4 4 4 0 0 0-4.4-3.3z"></path><path d="M444.1 346.9a15.5 15.5 0 0 0-10.9 12.2c-.9 4.9 6.8 6 7.7 1.1a7.8 7.8 0 0 1 6.1-6.1c2-.6 2.8-3.3 2.1-5.1s-3-2.6-5-2.1z"></path><path d="M420.4 252.7c-1.5-3.8 3.8-6.5 6.4-8.1 4.3-2.5-.3-8.7-4.5-6.2-6.1 3.6-12.1 9.4-9.1 17 1.8 4.7 9 1.9 7.2-2.7z"></path><path d="M301.5 307.6c-3.4 3.7 2.9 8.2 6.2 4.6a42.3 42.3 0 0 1 12.7-9.5c4.4-2.1 1.3-9.2-3.2-7a50.6 50.6 0 0 0-15.7 11.9z"></path><path d="M332.3 316.1c6.1-3.3 12.3-9 9.6-16.7-1.7-4.7-9-2.2-7.3 2.5s-4 6.4-6.7 7.8c-4.3 2.4 0 8.8 4.4 6.4z"></path><path d="M360.1 342.4a10.3 10.3 0 0 0-3.4 11.5c1.6 4.7 8.7 1.7 7.2-3-.5-1.4 1.1-2.7 2.3-3.1s4.3-.3 6.4.1c4.9 1 5.9-6.7 1-7.6s-9.6-.9-13.5 2.1z"></path><path d="M325.2 334.8c-.5-1.8-2.8-3.5-4.8-2.7a10.8 10.8 0 0 1-11.2-1.2c-4-3-7.8 3.7-3.9 6.6a18 18 0 0 0 17.2 2.1c2-.9 3.3-2.6 2.7-4.8z"></path><path d="M413.4 340.1a16.8 16.8 0 0 0 17.9-1.4c3.9-3-.4-9.4-4.3-6.4a9.1 9.1 0 0 1-10.3.8c-4.3-2.3-7.6 4.7-3.3 7z"></path><path d="M306.3 283.4l1.4.3a3.3 3.3 0 0 0 3.4-.8 4.2 4.2 0 0 0 .8-1.2 2.5 2.5 0 0 0 .2-.7 3.9 3.9 0 0 0-2.7-4.8 16.9 16.9 0 0 0-11.3.8v9.3a9.4 9.4 0 0 1 8.2-2.9z"></path><path d="M452.5 277a13.4 13.4 0 0 0-2.4 1.2 17.3 17.3 0 0 0-3.5 3.1 3.8 3.8 0 0 0-.5 4.4c1.1 2.1 4 3.3 6 1l.4-.4z"></path><path d="M344.7 258.7a9.3 9.3 0 0 1 7.2-7.4c4.8-1.1 2.7-8.5-2.2-7.4a16.8 16.8 0 0 0-12.5 12.8c-.9 4.9 6.5 6.9 7.5 2z"></path><path d="M322.7 278.3c.1 5 7.8 4.4 7.7-.6a37.2 37.2 0 0 0-4.5-16.3 3.8 3.8 0 0 0-5.3-1.1 4 4 0 0 0-1.1 5.4 27.7 27.7 0 0 1 3.2 12.6z"></path><path d="M417.8 350.7a20.1 20.1 0 0 0-11.4 13.5c-.5 2 .2 4.2 2.3 4.9s4.4-.3 4.9-2.3a13.1 13.1 0 0 1 7.7-9.2c4.5-2 1.1-8.9-3.5-6.9z"></path><path d="M306.9 362a41.3 41.3 0 0 1-2.6 15.6c-1.7 4.7 5.4 7.6 7.1 2.9a49.7 49.7 0 0 0 3.2-19.5c-.1-4.9-7.8-3.9-7.7 1z"></path><path d="M381.1 246.2a42.5 42.5 0 0 1 15.9 0c4.8.9 6.5-6.6 1.6-7.5a50.2 50.2 0 0 0-19.7.2c-4.9 1-2.6 8.3 2.2 7.3z"></path><path d="M426.5 268.3a8 8 0 0 1-5.1 7.1c-1.9.8-2.3 3.7-1.3 5.3s3.4 2.1 5.3 1.3a15.3 15.3 0 0 0 8.8-13.7c.2-5-7.5-4.9-7.7 0z"></path><path d="M365 365.2a82 82 0 0 0-12.1 10.7c-3.3 3.7 2.3 9 5.6 5.3a67.2 67.2 0 0 1 10.5-9.4c4-3 0-9.6-4-6.6z"></path><path d="M340.9 477.8c-3.2 6.2-5.2 14.3 1.4 19.2 4 3 8.6-3.2 4.6-6.1s-.2-7.6 1.2-10.2c2.3-4.4-4.9-7.3-7.2-2.9z"></path><path d="M395.6 492.8a52.3 52.3 0 0 0-11.8-15.8c-3.7-3.4-8.3 2.8-4.6 6.2a41.7 41.7 0 0 1 9.3 12.7c2.2 4.5 9.2 1.4 7.1-3.1z"></path><path d="M358.3 443.5A15.4 15.4 0 0 0 351 429c-4.3-2.6-8.1 4.1-3.9 6.7a7.9 7.9 0 0 1 3.5 8c-.2 2 2.1 3.8 4 3.7s3.5-1.8 3.7-3.9z"></path><path d="M444.1 481.7c1.7-.9 2.7-3.5 1.5-5.2a13 13 0 0 1-1.7-11.8c1.5-4.7-5.9-6.8-7.5-2.1a20.3 20.3 0 0 0 2.5 17.6c1.2 1.7 3.3 2.6 5.2 1.5z"></path><path d="M364.5 471.6a20.2 20.2 0 0 0 10.2-14.6 4 4 0 0 0-2.8-4.7c-1.9-.4-4.4.8-4.7 2.8a13.1 13.1 0 0 1-6.8 9.9c-4.3 2.4-.3 9 4.1 6.6z"></path><path d="M452 400.6a2.7 2.7 0 0 0-1.2-.9 4.4 4.4 0 0 0-3.7-.2c-2 1.1-2.4 3.2-1.7 5.2a14.4 14.4 0 0 0 7.1 8.2v-11.1l-.2-.5z"></path><path d="M298.1 412.9a16.7 16.7 0 0 0 5.7 1.9 3.5 3.5 0 0 0 3.4-1.4l.3-.6a3.5 3.5 0 0 0 .3-1.4 2.6 2.6 0 0 0-.1-1.5 3.8 3.8 0 0 0-.6-1.3l-.4-.5a4.1 4.1 0 0 0-2.2-1 7.1 7.1 0 0 1-4.1-1.9 6 6 0 0 1-.8-.8 11 11 0 0 1-1.5-2.6v11.1z"></path><path d="M324.9 388.1c-.4 2.5-3 5.1-4.5 6.7-3.4 3.7 2.8 8.4 6.1 4.7l1.8-2a7.6 7.6 0 0 1 .8-1.1 16.8 16.8 0 0 0 2-3.4 14.6 14.6 0 0 0 1.5-4.9z"></path><path d="M330.3 534.9a3.5 3.5 0 0 0-4.1-1.2c-2.2.8-3.9 3.5-2 6a7.5 7.5 0 0 1 .7 1.2 4.3 4.3 0 0 1 0 1.6h7.7a10.7 10.7 0 0 0-2.3-7.6z"></path><path d="M424.6 524.9c-4.7-1.7-6.6 5.8-2 7.5a42.2 42.2 0 0 1 13.5 8.2c3.7 3.4 9.1-2.2 5.4-5.5a53.1 53.1 0 0 0-16.9-10.2z"></path><path d="M384.5 517.8c-4.8 1.2-3.2 8.7 1.6 7.6 2.6-.7 5 3.7 2 4.9s-2.5 3.5-1.6 5.2 3.2 2.3 5.2 1.6c11.3-4.2 3.7-21.9-7.2-19.3z"></path><path d="M364 418.8c-.9 4.9 6.7 6 7.6 1.1a35.8 35.8 0 0 0-.9-16.9c-.6-2-3.2-2.9-5-2.2a4 4 0 0 0-2.2 5 28.6 28.6 0 0 1 .5 13z"></path><path d="M417.9 452.7c2.3-1.4 6 2 3.5 4s-1.2 4.1.1 5.5a4 4 0 0 0 5.5-.2c9.3-7.6-3.6-21.9-13-15.9-4.2 2.6-.3 9.3 3.9 6.6z"></path><path d="M334.4 500.3a3.9 3.9 0 0 0-2.2 5 27.3 27.3 0 0 1 .5 13c-.9 4.9 6.8 5.9 7.7 1.1a37.6 37.6 0 0 0-1-17c-.6-2-3.2-2.8-5-2.1z"></path><path d="M394.3 415.7a9.3 9.3 0 0 1-5 9c-4.4 2.3-.5 8.9 3.9 6.6a16.7 16.7 0 0 0 8.8-15.6c-.3-5-8-5-7.7 0z"></path><path d="M409.1 473.1a71.4 71.4 0 0 1-11-8.9c-3.5-3.4-9.4 1.5-5.8 5a72.3 72.3 0 0 0 12.5 10.2c4.1 2.8 8.5-3.6 4.3-6.3z"></path><path d="M398.5 444.7a13.4 13.4 0 0 1-11.7-2.5c-3.8-3.2-8.4 3.1-4.5 6.2a20 20 0 0 0 17.3 3.9c2-.5 3.6-2.1 3.3-4.3s-2.3-3.8-4.4-3.3z"></path><path d="M444.1 501.3a15.5 15.5 0 0 0-10.9 12.1c-.9 4.9 6.8 6 7.7 1.2a7.8 7.8 0 0 1 6.1-6.2c2-.5 2.8-3.3 2.1-5s-3-2.7-5-2.1z"></path><path d="M420.4 407c-1.5-3.8 3.8-6.5 6.4-8 4.3-2.6-.3-8.8-4.5-6.3-6.1 3.6-12.1 9.5-9.1 17.1 1.8 4.6 9 1.8 7.2-2.8z"></path><path d="M307.7 466.5a42 42 0 0 1 12.7-9.4c4.4-2.2 1.3-9.3-3.2-7.1a53.9 53.9 0 0 0-15.7 11.9c-3.4 3.7 2.9 8.3 6.2 4.6z"></path><path d="M332.3 470.5c6.1-3.4 12.3-9 9.6-16.8-1.7-4.6-9-2.1-7.3 2.6s-4 6.3-6.7 7.8c-4.3 2.4 0 8.7 4.4 6.4z"></path><path d="M373.6 494.6c-4.5-.9-9.6-.9-13.5 2.1a10.4 10.4 0 0 0-3.4 11.5c1.6 4.7 8.7 1.7 7.2-3-.5-1.4 1.1-2.7 2.3-3.1s4.3-.3 6.4.1c4.9 1 5.9-6.6 1-7.6z"></path><path d="M320.4 486.5a11.1 11.1 0 0 1-11.2-1.3c-4-2.9-7.8 3.8-3.9 6.7a17.7 17.7 0 0 0 17.2 2c2-.8 3.3-2.6 2.7-4.8s-2.8-3.4-4.8-2.6z"></path><path d="M413.4 494.5a16.8 16.8 0 0 0 17.9-1.5c3.9-3-.4-9.4-4.3-6.4a9.3 9.3 0 0 1-10.3.9c-4.3-2.4-7.6 4.6-3.3 7z"></path><path d="M298.1 440.7a9.5 9.5 0 0 1 8.2-3l1.4.3a3.1 3.1 0 0 0 3.4-.8 2.5 2.5 0 0 0 .8-1.2 1.4 1.4 0 0 0 .2-.7 3.9 3.9 0 0 0-2.7-4.8 16.9 16.9 0 0 0-11.3.8z"></path><path d="M446.6 435.7a3.7 3.7 0 0 0-.5 4.3c1.1 2.2 4 3.4 6 1l.4-.3v-9.4l-2.4 1.3a14.7 14.7 0 0 0-3.5 3.1z"></path><path d="M344.7 413a9.3 9.3 0 0 1 7.2-7.4c4.8-1.1 2.7-8.5-2.2-7.4a16.8 16.8 0 0 0-12.5 12.9c-.9 4.8 6.5 6.8 7.5 1.9z"></path><path d="M322.7 432.6c.1 5 7.8 4.4 7.7-.5a37.6 37.6 0 0 0-4.5-16.4c-1-1.8-3.7-2.1-5.3-1a3.9 3.9 0 0 0-1.1 5.3 27.7 27.7 0 0 1 3.2 12.6z"></path><path d="M417.8 505a20.2 20.2 0 0 0-11.4 13.6c-.5 2 .2 4.2 2.3 4.9s4.4-.3 4.9-2.4a13.5 13.5 0 0 1 7.7-9.2c4.5-2 1.1-8.9-3.5-6.9z"></path><path d="M306.9 516.4a41.6 41.6 0 0 1-2.6 15.6c-1.7 4.6 5.4 7.6 7.1 2.9a50 50 0 0 0 3.2-19.5c-.1-5-7.8-4-7.7 1z"></path><path d="M381.1 400.6a42.5 42.5 0 0 1 15.9-.1c4.8 1 6.5-6.6 1.6-7.5a52.2 52.2 0 0 0-19.7.2c-4.9 1-2.6 8.4 2.2 7.4z"></path><path d="M426.5 422.7c-.1 3.3-2.2 5.7-5.1 7s-2.3 3.7-1.3 5.3 3.4 2.2 5.3 1.3a15.1 15.1 0 0 0 8.8-13.7c.2-5-7.5-4.9-7.7.1z"></path><path d="M365 519.5a82.7 82.7 0 0 0-12.1 10.8c-3.3 3.6 2.3 8.9 5.6 5.3a67.8 67.8 0 0 1 10.5-9.5c4-2.9 0-9.5-4-6.6z"></path><path d="M351 583.3c-4.3-2.6-8.1 4.1-3.9 6.7a7.7 7.7 0 0 1 3.5 7.3l7.7.5c.7-5.8-2.5-11.4-7.3-14.5z"></path><path d="M452 555a4 4 0 0 0-1.2-1 4.4 4.4 0 0 0-3.7-.1c-2 1-2.4 3.2-1.7 5.2a14.7 14.7 0 0 0 7.1 8.2v-11.1c-.1-.2-.1-.4-.2-.5z"></path><path d="M298.1 567.3a16.5 16.5 0 0 0 5.7 1.8 3.4 3.4 0 0 0 3.4-1.4l.3-.6a3.2 3.2 0 0 0 .3-1.4 2.2 2.2 0 0 0-.1-1.4 3.1 3.1 0 0 0-.6-1.3l-.4-.6a4.1 4.1 0 0 0-2.2-1 7.1 7.1 0 0 1-4.1-1.9l-.8-.8a10.4 10.4 0 0 1-1.5-2.5v11.1z"></path><path d="M324.9 542.5c-.3 2-2.2 4.2-3.7 5.8l-.8.9c-3.4 3.6 2.8 8.3 6.1 4.7a27 27 0 0 0 4.6-6.6 14.8 14.8 0 0 0 1.5-4.8z"></path><path d="M365.7 555.2a3.9 3.9 0 0 0-2.2 5 28.5 28.5 0 0 1 .5 13c-.9 4.9 6.7 5.9 7.6 1a35.8 35.8 0 0 0-.9-16.9 3.8 3.8 0 0 0-5-2.1z"></path><path d="M414 600.4a3.6 3.6 0 0 0-1.1 1l13.6.8c-3.3-3-8.3-4.5-12.5-1.8z"></path><path d="M394.3 570a9.3 9.3 0 0 1-5 9c-4.4 2.4-.5 9 3.9 6.6A16.5 16.5 0 0 0 402 570c-.3-4.9-8-4.9-7.7 0z"></path><path d="M398.5 599a13.1 13.1 0 0 1-11.7-2.5c-2.6-2.1-5.6.1-6 2.8l21.4 1.4a3.7 3.7 0 0 0-3.7-1.7z"></path><path d="M420.4 561.3c-1.5-3.8 3.8-6.4 6.4-8 4.3-2.5-.3-8.7-4.5-6.2-6.1 3.6-12.1 9.4-9.1 17 1.8 4.7 9 1.9 7.2-2.8z"></path><path d="M306.3 592.1l1.4.3a3.1 3.1 0 0 0 3.4-.9 2.8 2.8 0 0 0 .8-1.1 2.5 2.5 0 0 0 .2-.7 3.9 3.9 0 0 0-2.7-4.8 16.9 16.9 0 0 0-11.3.8v8.2h1.2a8.8 8.8 0 0 1 7-1.8z"></path><path d="M446.6 590a3.8 3.8 0 0 0-.5 4.4c1.1 2.1 4 3.3 6 1l.4-.4v-9.3a13.4 13.4 0 0 0-2.4 1.2 17.3 17.3 0 0 0-3.5 3.1z"></path><path d="M349.7 552.6a16.8 16.8 0 0 0-12.5 12.8c-.9 4.9 6.5 6.8 7.5 2a9.2 9.2 0 0 1 7.2-7.4c4.8-1.1 2.7-8.6-2.2-7.4z"></path><path d="M320.6 569a3.9 3.9 0 0 0-1.1 5.3 28.4 28.4 0 0 1 3.2 12.7c.1 4.9 7.8 4.4 7.7-.6a37.2 37.2 0 0 0-4.5-16.3 3.8 3.8 0 0 0-5.3-1.1z"></path><path d="M397 554.9c4.8.9 6.5-6.6 1.6-7.5a48.4 48.4 0 0 0-19.7.2c-4.9.9-2.6 8.3 2.2 7.3a42.5 42.5 0 0 1 15.9 0z"></path><path d="M426.5 577a8 8 0 0 1-5.1 7.1c-1.9.8-2.3 3.7-1.3 5.3s3.4 2.1 5.3 1.3a15.3 15.3 0 0 0 8.8-13.7c.2-5-7.5-4.9-7.7 0z"></path><path d="M186.6 169.1c-3.2 6.2-5.3 14.3 1.3 19.2 4 3 8.6-3.2 4.7-6.1s-.2-7.5 1.1-10.2c2.3-4.4-4.9-7.3-7.1-2.9z"></path><path d="M234.2 187.2c2.1 4.5 9.2 1.4 7-3.1a50.7 50.7 0 0 0-11.8-15.8c-3.6-3.4-8.2 2.8-4.6 6.2a40.4 40.4 0 0 1 9.4 12.7z"></path><path d="M192.8 127c2.8 1.7 3.8 4.8 3.5 8s2 3.8 3.9 3.7 3.6-1.8 3.8-3.9a15.3 15.3 0 0 0-7.4-14.5c-4.2-2.6-8 4.1-3.8 6.7z"></path><path d="M289.8 173.1c1.7-1 2.7-3.6 1.5-5.3a13.1 13.1 0 0 1-1.8-11.8c1.6-4.7-5.9-6.8-7.4-2.1a20.3 20.3 0 0 0 2.4 17.6 4.1 4.1 0 0 0 5.3 1.6z"></path><path d="M210.1 162.9a20.2 20.2 0 0 0 10.2-14.6 3.8 3.8 0 0 0-2.7-4.6c-1.9-.5-4.4.7-4.7 2.7a13.2 13.2 0 0 1-6.8 9.9c-4.4 2.4-.3 9 4 6.6z"></path><path d="M298.1 93.1a4.3 4.3 0 0 1-.1-.5l-.4-.6a2.6 2.6 0 0 0-1.1-1 4 4 0 0 0-3.7-.1c-2.1 1-2.4 3.1-1.8 5.1a15.3 15.3 0 0 0 7.1 8.3V93.1z"></path><path d="M143.8 104.3a19 19 0 0 0 5.7 1.8 3.5 3.5 0 0 0 3.3-1.4l.4-.6.3-1.3-9.7 1.4z"></path><path d="M176 226.2c-3.1-3.9-9.2.9-6.1 4.8a3.3 3.3 0 0 1 .7 2.5v.3h7.6a10.1 10.1 0 0 0-2.2-7.6z"></path><path d="M270.2 216.2c-4.6-1.7-6.5 5.8-1.9 7.5a42.8 42.8 0 0 1 13.5 8.3c3.7 3.3 9.1-2.3 5.4-5.6a53.5 53.5 0 0 0-17-10.2z"></path><path d="M230.1 209.1c-4.8 1.2-3.2 8.7 1.7 7.6 2.6-.7 5 3.7 2 4.9s-2.5 3.5-1.7 5.2 3.3 2.4 5.3 1.6c11.2-4.2 3.6-21.9-7.3-19.3z"></path><path d="M209.2 97.1a29 29 0 0 1 .5 13.1c-1 4.8 6.7 5.9 7.6 1a35.8 35.8 0 0 0-1-16.9 1.9 1.9 0 0 0-.5-.9l-6.6 1a4.2 4.2 0 0 0 0 2.7z"></path><path d="M263.6 144c2.3-1.4 6 2 3.5 4s-1.3 4.1.1 5.5 3.8 1.2 5.5-.2c9.3-7.6-3.6-21.9-13.1-15.9-4.2 2.6-.2 9.3 4 6.6z"></path><path d="M180 191.6c-2.1.8-2.7 3-2.1 5a28.6 28.6 0 0 1 .5 13c-.9 4.9 6.7 6 7.6 1.1a34.6 34.6 0 0 0-1-16.9c-.5-2-3.2-2.9-5-2.2z"></path><path d="M238.9 122.6a16.6 16.6 0 0 0 8.7-15.6c-.3-5-8-5-7.7 0a9.1 9.1 0 0 1-5 9c-4.4 2.3-.4 8.9 4 6.6z"></path><path d="M237.9 160.5a81.5 81.5 0 0 0 12.5 10.3c4.2 2.7 8.5-3.7 4.4-6.4a67 67 0 0 1-11-8.9c-3.5-3.4-9.4 1.5-5.9 5z"></path><path d="M227.9 139.7a20.1 20.1 0 0 0 17.4 3.9 3.8 3.8 0 0 0 3.2-4.3c-.2-1.9-2.3-3.8-4.3-3.3a13.2 13.2 0 0 1-11.7-2.5c-3.9-3.1-8.4 3.1-4.6 6.2z"></path><path d="M289.7 192.6a15.4 15.4 0 0 0-10.8 12.1c-.9 4.9 6.7 6 7.6 1.2a7.9 7.9 0 0 1 6.2-6.2c2-.5 2.8-3.3 2.1-5s-3-2.6-5.1-2.1z"></path><path d="M258.9 101.1c1.8 4.6 9 1.8 7.2-2.8s3.8-6.5 6.3-8 2.1-4 .5-5.5L265 86c-4.8 3.6-8.6 8.7-6.1 15.1z"></path><path d="M147.1 153.2c-3.3 3.7 2.9 8.3 6.2 4.6a42 42 0 0 1 12.7-9.4c4.5-2.2 1.4-9.3-3.1-7.1a54.3 54.3 0 0 0-15.8 11.9z"></path><path d="M173.6 155.4c-4.4 2.4 0 8.8 4.3 6.4 6.2-3.4 12.4-9 9.6-16.7-1.6-4.7-8.9-2.2-7.3 2.5s-4 6.3-6.6 7.8z"></path><path d="M205.8 188a10.4 10.4 0 0 0-3.4 11.5c1.5 4.7 8.6 1.7 7.1-3-.5-1.4 1.2-2.7 2.3-3.1a11.6 11.6 0 0 1 6.4.2c4.9.9 5.9-6.7 1.1-7.7s-9.7-.9-13.5 2.1z"></path><path d="M166.1 177.8a10.6 10.6 0 0 1-11.2-1.3c-4.1-2.9-7.9 3.8-3.9 6.7a17.7 17.7 0 0 0 17.2 2c1.9-.8 3.2-2.5 2.6-4.7s-2.8-3.5-4.7-2.7z"></path><path d="M259.1 185.8a17 17 0 0 0 17.9-1.4c3.9-3.1-.4-9.5-4.4-6.4a9.2 9.2 0 0 1-10.2.8c-4.4-2.4-7.7 4.6-3.3 7z"></path><path d="M151.9 129.1a3.2 3.2 0 0 1 1.4.3 3.3 3.3 0 0 0 3.5-.9 2.4 2.4 0 0 0 .7-1.2l.3-.7a4 4 0 0 0-2.7-4.8 17.5 17.5 0 0 0-11.3.8v9.4a9 9 0 0 1 8.1-2.9z"></path><path d="M298.1 122.6a16.9 16.9 0 0 0-5.9 4.4 3.9 3.9 0 0 0-.8 1.4 2.2 2.2 0 0 0-.1.8c-.3 3.2 3.9 6.2 6.5 3.1l.3-.3z"></path><path d="M190.4 104.3a9.2 9.2 0 0 1 7.1-7.4 3.9 3.9 0 0 0 2-1.1l-15.1 2.3a15.7 15.7 0 0 0-1.5 4.3c-1 4.8 6.5 6.8 7.5 1.9z"></path><path d="M168.3 123.9c.1 5 7.8 4.4 7.7-.5a36.2 36.2 0 0 0-4.4-16.4c-1-1.8-3.8-2.1-5.4-1a3.9 3.9 0 0 0-1.1 5.3 27.7 27.7 0 0 1 3.2 12.6z"></path><path d="M263.5 196.3a20.6 20.6 0 0 0-11.5 13.6 4 4 0 0 0 2.4 4.9c1.8.6 4.4-.3 4.9-2.4a13.1 13.1 0 0 1 7.6-9.2c4.6-2 1.1-8.9-3.4-6.9z"></path><path d="M152.6 207.7a41.7 41.7 0 0 1-2.7 15.6c-1.7 4.6 5.4 7.6 7.2 2.9a51.8 51.8 0 0 0 3.1-19.5c-.1-5-7.7-4-7.6 1z"></path><path d="M226.8 91.9a42 42 0 0 1 15.8 0 3.9 3.9 0 0 0 4.5-3.2l-21.7 3.2z"></path><path d="M271.1 127.6c5.3-2.3 8.6-7.9 8.8-13.7s-7.6-4.9-7.7.1a7.8 7.8 0 0 1-5.2 7c-1.9.9-2.2 3.7-1.2 5.3s3.3 2.2 5.3 1.3z"></path><path d="M210.6 210.8a77.1 77.1 0 0 0-12 10.8c-3.4 3.6 2.2 8.9 5.6 5.3a71.9 71.9 0 0 1 10.4-9.5c4-2.9 0-9.5-4-6.6z"></path><path d="M186.6 323.4c-3.2 6.2-5.3 14.4 1.3 19.3 4 3 8.6-3.2 4.7-6.2s-.2-7.5 1.1-10.2c2.3-4.4-4.9-7.3-7.1-2.9z"></path><path d="M241.2 338.5a51.1 51.1 0 0 0-11.8-15.9c-3.6-3.3-8.2 2.9-4.6 6.2a40.8 40.8 0 0 1 9.4 12.8c2.1 4.4 9.2 1.4 7-3.1z"></path><path d="M196.6 274.6c-4.2-2.6-8 4.1-3.8 6.7s3.8 4.8 3.5 8 2 3.8 3.9 3.8a4 4 0 0 0 3.8-3.9c.7-5.9-2.5-11.5-7.4-14.6z"></path><path d="M289.8 327.4c1.7-.9 2.7-3.5 1.5-5.2a13.3 13.3 0 0 1-1.8-11.9c1.6-4.7-5.9-6.7-7.4-2a20.3 20.3 0 0 0 2.4 17.6 4 4 0 0 0 5.3 1.5z"></path><path d="M210.1 317.2a20.2 20.2 0 0 0 10.2-14.5 3.9 3.9 0 0 0-2.7-4.7c-1.9-.5-4.4.7-4.7 2.8a13.2 13.2 0 0 1-6.8 9.8c-4.4 2.4-.3 9 4 6.6z"></path><path d="M298.1 247.5a4.3 4.3 0 0 0-.1-.5 1.6 1.6 0 0 0-.4-.7 5.2 5.2 0 0 0-1.1-1 4.4 4.4 0 0 0-3.7-.1c-2.1 1-2.4 3.2-1.8 5.2a15.1 15.1 0 0 0 7.1 8.2v-11.1z"></path><path d="M152.8 259l.4-.6a5.8 5.8 0 0 0 .3-1.4 6.6 6.6 0 0 0-.1-1.4 3.1 3.1 0 0 0-.6-1.3l-.5-.6a3.5 3.5 0 0 0-2.2-1 6.8 6.8 0 0 1-4.1-1.9l-.8-.8a10.1 10.1 0 0 1-1.4-2.5v11.1a16.5 16.5 0 0 0 5.7 1.8 3.3 3.3 0 0 0 3.3-1.4z"></path><path d="M166 240.5a3.2 3.2 0 0 0-.4 4 4.2 4.2 0 0 0 6.6.7l.9-1a38.1 38.1 0 0 0 2.4-3.2l.7-1.2a25.6 25.6 0 0 0 1.1-2.4 11.9 11.9 0 0 0 .9-3.6h-7.6c-.4 2.5-3.1 5.1-4.6 6.7z"></path><path d="M176 380.6a3.7 3.7 0 0 0-4.8-1l-1.1.9a3.5 3.5 0 0 0-1 1.9 3.4 3.4 0 0 0 .8 2.9 3.6 3.6 0 0 1 .7 2.6v.2h7.6a9.9 9.9 0 0 0-2.2-7.5z"></path><path d="M270.2 370.6c-4.6-1.7-6.5 5.8-1.9 7.5a40.8 40.8 0 0 1 13.5 8.2c3.7 3.3 9.1-2.2 5.4-5.6a51.5 51.5 0 0 0-17-10.1z"></path><path d="M230.1 363.5c-4.8 1.1-3.2 8.7 1.7 7.5 2.6-.6 5 3.8 2 4.9s-2.5 3.5-1.7 5.2 3.3 2.4 5.3 1.7c11.2-4.3 3.6-21.9-7.3-19.3z"></path><path d="M209.7 264.5c-1 4.9 6.7 5.9 7.6 1.1a36.3 36.3 0 0 0-1-17c-.6-2-3.2-2.8-5-2.1s-2.7 3-2.1 5a28.6 28.6 0 0 1 .5 13z"></path><path d="M263.6 298.4c2.3-1.5 6 1.9 3.5 4s-1.3 4.1.1 5.4 3.8 1.2 5.5-.1c9.3-7.7-3.6-21.9-13.1-16-4.2 2.7-.2 9.3 4 6.7z"></path><path d="M180 346c-2.1.8-2.7 3-2.1 5a28.5 28.5 0 0 1 .5 13c-.9 4.9 6.7 5.9 7.6 1a34.6 34.6 0 0 0-1-16.9c-.5-2-3.2-2.9-5-2.1z"></path><path d="M239.9 261.3a9.1 9.1 0 0 1-5 9c-4.4 2.4-.4 9 4 6.7a16.7 16.7 0 0 0 8.7-15.7c-.3-4.9-8-4.9-7.7 0z"></path><path d="M237.9 314.9a87 87 0 0 0 12.5 10.2c4.2 2.7 8.5-3.6 4.4-6.4a72 72 0 0 1-11-8.8c-3.5-3.5-9.4 1.5-5.9 5z"></path><path d="M244.2 290.3a12.7 12.7 0 0 1-11.7-2.5c-3.9-3.1-8.4 3.1-4.6 6.2a20.5 20.5 0 0 0 17.4 4 3.9 3.9 0 0 0-1.1-7.7z"></path><path d="M289.7 346.9a15.4 15.4 0 0 0-10.8 12.2c-.9 4.9 6.7 6 7.6 1.1.6-3.2 3.1-5.3 6.2-6.1s2.8-3.3 2.1-5.1-3-2.6-5.1-2.1z"></path><path d="M266.1 252.7c-1.5-3.8 3.8-6.5 6.3-8.1 4.3-2.5-.3-8.7-4.5-6.2-6 3.6-12 9.4-9 17 1.8 4.7 9 1.9 7.2-2.7z"></path><path d="M153.3 312.2a42.3 42.3 0 0 1 12.7-9.5c4.5-2.1 1.4-9.2-3.1-7a51 51 0 0 0-15.8 11.9c-3.3 3.7 2.9 8.2 6.2 4.6z"></path><path d="M177.9 316.1c6.2-3.3 12.4-9 9.6-16.7-1.6-4.7-8.9-2.2-7.3 2.5s-4 6.4-6.6 7.8c-4.4 2.4 0 8.8 4.3 6.4z"></path><path d="M205.8 342.4a10.3 10.3 0 0 0-3.4 11.5c1.5 4.7 8.6 1.7 7.1-3-.5-1.4 1.2-2.7 2.3-3.1s4.4-.3 6.4.1c4.9 1 5.9-6.7 1.1-7.6s-9.7-.9-13.5 2.1z"></path><path d="M170.8 334.8c-.4-1.8-2.8-3.5-4.7-2.7a10.8 10.8 0 0 1-11.2-1.2c-4.1-3-7.9 3.7-3.9 6.6a18 18 0 0 0 17.2 2.1c1.9-.9 3.2-2.6 2.6-4.8z"></path><path d="M259.1 340.1a16.8 16.8 0 0 0 17.9-1.4c3.9-3-.4-9.4-4.4-6.4a8.9 8.9 0 0 1-10.2.8c-4.4-2.3-7.7 4.7-3.3 7z"></path><path d="M151.9 283.4l1.4.3a3.5 3.5 0 0 0 3.5-.8 3.7 3.7 0 0 0 .7-1.2l.3-.7a4 4 0 0 0-2.7-4.8 16.8 16.8 0 0 0-11.3.8v9.3a9.3 9.3 0 0 1 8.1-2.9z"></path><path d="M298.1 277a16.6 16.6 0 0 0-5.9 4.3 5.5 5.5 0 0 0-.8 1.5 1.7 1.7 0 0 0-.1.7c-.3 3.3 3.9 6.3 6.5 3.2l.3-.4z"></path><path d="M190.4 258.7a9.2 9.2 0 0 1 7.1-7.4c4.9-1.1 2.7-8.5-2.1-7.4a16.7 16.7 0 0 0-12.5 12.8c-1 4.9 6.5 6.9 7.5 2z"></path><path d="M168.3 278.3c.1 5 7.8 4.4 7.7-.6a35.8 35.8 0 0 0-4.4-16.3c-1-1.9-3.8-2.2-5.4-1.1a4 4 0 0 0-1.1 5.4 27.7 27.7 0 0 1 3.2 12.6z"></path><path d="M263.5 350.7a20.5 20.5 0 0 0-11.5 13.5 4 4 0 0 0 2.4 4.9c1.8.7 4.4-.3 4.9-2.3a12.7 12.7 0 0 1 7.6-9.2c4.6-2 1.1-8.9-3.4-6.9z"></path><path d="M152.6 362a41.4 41.4 0 0 1-2.7 15.6c-1.7 4.7 5.4 7.6 7.2 2.9a51.5 51.5 0 0 0 3.1-19.5c-.1-4.9-7.7-3.9-7.6 1z"></path><path d="M226.8 246.2a42 42 0 0 1 15.8 0c4.9.9 6.6-6.6 1.7-7.5a50.7 50.7 0 0 0-19.8.2c-4.9 1-2.5 8.3 2.3 7.3z"></path><path d="M272.2 268.3a8 8 0 0 1-5.2 7.1c-1.9.8-2.2 3.7-1.2 5.3s3.3 2.1 5.3 1.3a15.7 15.7 0 0 0 8.8-13.7c.1-5-7.6-4.9-7.7 0z"></path><path d="M210.6 365.2a76.5 76.5 0 0 0-12 10.7c-3.4 3.7 2.2 9 5.6 5.3a71.2 71.2 0 0 1 10.4-9.4c4-3 0-9.6-4-6.6z"></path><path d="M186.6 477.8c-3.2 6.2-5.3 14.3 1.3 19.2 4 3 8.6-3.2 4.7-6.1s-.2-7.6 1.1-10.2c2.3-4.4-4.9-7.3-7.1-2.9z"></path><path d="M241.2 492.8a50.7 50.7 0 0 0-11.8-15.8c-3.6-3.4-8.2 2.8-4.6 6.2a40.4 40.4 0 0 1 9.4 12.7c2.1 4.5 9.2 1.4 7-3.1z"></path><path d="M204 443.5a15.3 15.3 0 0 0-7.4-14.5c-4.2-2.6-8 4.1-3.8 6.7s3.8 4.8 3.5 8 2 3.8 3.9 3.7 3.6-1.8 3.8-3.9z"></path><path d="M289.8 481.7c1.7-.9 2.7-3.5 1.5-5.2a13.1 13.1 0 0 1-1.8-11.8c1.6-4.7-5.9-6.8-7.4-2.1a20.3 20.3 0 0 0 2.4 17.6 4 4 0 0 0 5.3 1.5z"></path><path d="M210.1 471.6a20.2 20.2 0 0 0 10.2-14.6 4 4 0 0 0-2.7-4.7c-1.9-.4-4.4.8-4.7 2.8a13.4 13.4 0 0 1-6.8 9.9c-4.4 2.4-.3 9 4 6.6z"></path><path d="M297.6 400.6a3.1 3.1 0 0 0-1.1-.9 4.4 4.4 0 0 0-3.7-.2c-2.1 1.1-2.4 3.2-1.8 5.2a14.7 14.7 0 0 0 7.1 8.2v-11.1c0-.2-.1-.3-.1-.5a2.5 2.5 0 0 0-.4-.7z"></path><path d="M152.8 413.4l.4-.6a7 7 0 0 0 .3-1.4 7.6 7.6 0 0 0-.1-1.5 3.8 3.8 0 0 0-.6-1.3 1.2 1.2 0 0 0-.5-.5 3.5 3.5 0 0 0-2.2-1 7.4 7.4 0 0 1-4.1-1.9l-.8-.8a10.8 10.8 0 0 1-1.4-2.6v11.1a16.7 16.7 0 0 0 5.7 1.9 3.5 3.5 0 0 0 3.3-1.4z"></path><path d="M170.6 388.1c-.4 2.5-3.1 5.1-4.6 6.7-3.3 3.7 2.8 8.4 6.2 4.7a16.3 16.3 0 0 0 1.7-2 7.6 7.6 0 0 0 .8-1.1 23.9 23.9 0 0 0 2.1-3.4 12.5 12.5 0 0 0 1.4-4.9z"></path><path d="M176 534.9a3.6 3.6 0 0 0-4.1-1.2c-2.3.8-3.9 3.5-2 6a3.4 3.4 0 0 1 .6 1.2 4.2 4.2 0 0 1 .1 1.6h7.6a10.1 10.1 0 0 0-2.2-7.6z"></path><path d="M270.2 524.9c-4.6-1.7-6.5 5.8-1.9 7.5a44.4 44.4 0 0 1 13.5 8.2c3.7 3.4 9.1-2.2 5.4-5.5a53.5 53.5 0 0 0-17-10.2z"></path><path d="M230.1 517.8c-4.8 1.2-3.2 8.7 1.7 7.6 2.6-.7 5 3.7 2 4.9s-2.5 3.5-1.7 5.2 3.3 2.3 5.3 1.6c11.2-4.2 3.6-21.9-7.3-19.3z"></path><path d="M209.7 418.8c-1 4.9 6.7 6 7.6 1.1a35.8 35.8 0 0 0-1-16.9c-.6-2-3.2-2.9-5-2.2a3.9 3.9 0 0 0-2.1 5 28.6 28.6 0 0 1 .5 13z"></path><path d="M263.6 452.7c2.3-1.4 6 2 3.5 4s-1.3 4.1.1 5.5 3.8 1.2 5.5-.2c9.3-7.6-3.6-21.9-13.1-15.9-4.2 2.6-.2 9.3 4 6.6z"></path><path d="M180 500.3c-2.1.8-2.7 3-2.1 5a28.6 28.6 0 0 1 .5 13c-.9 4.9 6.7 5.9 7.6 1.1a35 35 0 0 0-1-17c-.5-2-3.2-2.8-5-2.1z"></path><path d="M239.9 415.7a9.1 9.1 0 0 1-5 9c-4.4 2.3-.4 8.9 4 6.6a16.6 16.6 0 0 0 8.7-15.6c-.3-5-8-5-7.7 0z"></path><path d="M254.8 473.1a67 67 0 0 1-11-8.9c-3.5-3.4-9.4 1.5-5.9 5a80.8 80.8 0 0 0 12.5 10.2c4.2 2.8 8.5-3.6 4.4-6.3z"></path><path d="M244.2 444.7a13.2 13.2 0 0 1-11.7-2.5c-3.9-3.2-8.4 3.1-4.6 6.2a20.1 20.1 0 0 0 17.4 3.9c2-.5 3.6-2.1 3.2-4.3s-2.3-3.8-4.3-3.3z"></path><path d="M289.7 501.3a15.4 15.4 0 0 0-10.8 12.1c-.9 4.9 6.7 6 7.6 1.2a7.9 7.9 0 0 1 6.2-6.2c2-.5 2.8-3.3 2.1-5s-3-2.7-5.1-2.1z"></path><path d="M266.1 407c-1.5-3.8 3.8-6.5 6.3-8 4.3-2.6-.3-8.8-4.5-6.3-6 3.6-12 9.5-9 17.1 1.8 4.6 9 1.8 7.2-2.8z"></path><path d="M153.3 466.5a42 42 0 0 1 12.7-9.4c4.5-2.2 1.4-9.3-3.1-7.1a54.3 54.3 0 0 0-15.8 11.9c-3.3 3.7 2.9 8.3 6.2 4.6z"></path><path d="M177.9 470.5c6.2-3.4 12.4-9 9.6-16.8-1.6-4.6-8.9-2.1-7.3 2.6s-4 6.3-6.6 7.8c-4.4 2.4 0 8.7 4.3 6.4z"></path><path d="M219.3 494.6c-4.6-.9-9.7-.9-13.5 2.1a10.4 10.4 0 0 0-3.4 11.5c1.5 4.7 8.6 1.7 7.1-3-.5-1.4 1.2-2.7 2.3-3.1s4.4-.3 6.4.1c4.9 1 5.9-6.6 1.1-7.6z"></path><path d="M166.1 486.5a11 11 0 0 1-11.2-1.3c-4.1-2.9-7.9 3.8-3.9 6.7a17.7 17.7 0 0 0 17.2 2 4 4 0 0 0 2.6-4.8c-.4-1.8-2.8-3.4-4.7-2.6z"></path><path d="M259.1 494.5A16.8 16.8 0 0 0 277 493c3.9-3-.4-9.4-4.4-6.4a9.1 9.1 0 0 1-10.2.9c-4.4-2.4-7.7 4.6-3.3 7z"></path><path d="M151.9 437.7l1.4.3a3.3 3.3 0 0 0 3.5-.8 2.4 2.4 0 0 0 .7-1.2l.3-.7a4 4 0 0 0-2.7-4.8 16.8 16.8 0 0 0-11.3.8v9.4a9.1 9.1 0 0 1 8.1-3z"></path><path d="M292.2 435.7a3.9 3.9 0 0 0-.8 1.4 2.2 2.2 0 0 0-.1.8c-.3 3.2 3.9 6.2 6.5 3.1l.3-.3v-9.4a16.9 16.9 0 0 0-5.9 4.4z"></path><path d="M190.4 413a9.2 9.2 0 0 1 7.1-7.4c4.9-1.1 2.7-8.5-2.1-7.4a16.7 16.7 0 0 0-12.5 12.9c-1 4.8 6.5 6.8 7.5 1.9z"></path><path d="M168.3 432.6c.1 5 7.8 4.4 7.7-.5a36.2 36.2 0 0 0-4.4-16.4c-1-1.8-3.8-2.1-5.4-1a3.9 3.9 0 0 0-1.1 5.3 27.7 27.7 0 0 1 3.2 12.6z"></path><path d="M263.5 505a20.6 20.6 0 0 0-11.5 13.6 4 4 0 0 0 2.4 4.9c1.8.6 4.4-.3 4.9-2.4a13.1 13.1 0 0 1 7.6-9.2c4.6-2 1.1-8.9-3.4-6.9z"></path><path d="M152.6 516.4a41.7 41.7 0 0 1-2.7 15.6c-1.7 4.6 5.4 7.6 7.2 2.9a51.8 51.8 0 0 0 3.1-19.5c-.1-5-7.7-4-7.6 1z"></path><path d="M226.8 400.6a42 42 0 0 1 15.8-.1c4.9 1 6.6-6.6 1.7-7.5a52.7 52.7 0 0 0-19.8.2c-4.9 1-2.5 8.4 2.3 7.4z"></path><path d="M272.2 422.7c-.1 3.3-2.2 5.7-5.2 7s-2.2 3.7-1.2 5.3 3.3 2.2 5.3 1.3c5.3-2.3 8.6-7.9 8.8-13.7s-7.6-4.9-7.7.1z"></path><path d="M210.6 519.5a77.1 77.1 0 0 0-12 10.8c-3.4 3.6 2.2 8.9 5.6 5.3a71.9 71.9 0 0 1 10.4-9.5c4-2.9 0-9.5-4-6.6z"></path><path d="M196.6 583.3c-2.9-1.8-5.7.9-5.6 3.6l10.2.7a17.1 17.1 0 0 0-4.6-4.3z"></path><path d="M297.6 555a5.2 5.2 0 0 0-1.1-1 4.4 4.4 0 0 0-3.7-.1c-2.1 1-2.4 3.2-1.8 5.2a15.1 15.1 0 0 0 7.1 8.2v-11.1a4.3 4.3 0 0 0-.1-.5 1.6 1.6 0 0 0-.4-.7z"></path><path d="M143.8 567.3a16.5 16.5 0 0 0 5.7 1.8 3.3 3.3 0 0 0 3.3-1.4l.4-.6a5.8 5.8 0 0 0 .3-1.4 6.1 6.1 0 0 0-.1-1.4 3.1 3.1 0 0 0-.6-1.3l-.5-.6a3.5 3.5 0 0 0-2.2-1 7.4 7.4 0 0 1-4.1-1.9l-.8-.8a10.1 10.1 0 0 1-1.4-2.5v11.1z"></path><path d="M170.6 542.5c-.4 2-2.2 4.2-3.7 5.8l-.9.9c-3.3 3.6 2.8 8.3 6.2 4.7a27 27 0 0 0 4.6-6.6 12.5 12.5 0 0 0 1.4-4.8z"></path><path d="M211.3 555.2c-2.1.8-2.7 3-2.1 5a28.5 28.5 0 0 1 .5 13c-1 4.9 6.7 5.9 7.6 1a35.9 35.9 0 0 0-1-16.9 3.8 3.8 0 0 0-5-2.1z"></path><path d="M239.9 570a9.1 9.1 0 0 1-5 9c-4.4 2.4-.4 9 4 6.6a16.4 16.4 0 0 0 8.7-15.6c-.3-4.9-8-4.9-7.7 0z"></path><path d="M266.1 561.3c-1.5-3.8 3.8-6.4 6.3-8 4.3-2.5-.3-8.7-4.5-6.2-6 3.6-12 9.4-9 17 1.8 4.7 9 1.9 7.2-2.8z"></path><path d="M150.2 584.3h2.8a13.1 13.1 0 0 0-2.8 0z"></path><path d="M292.2 590a5.5 5.5 0 0 0-.8 1.5 1.7 1.7 0 0 0-.1.7 5.7 5.7 0 0 0 .1 1.3l6.7.4v-8.2a16.6 16.6 0 0 0-5.9 4.3z"></path><path d="M195.4 552.6a16.7 16.7 0 0 0-12.5 12.8c-1 4.9 6.5 6.8 7.5 2a9.1 9.1 0 0 1 7.1-7.4c4.9-1.1 2.7-8.6-2.1-7.4z"></path><path d="M166.2 569a3.9 3.9 0 0 0-1.1 5.3 27.6 27.6 0 0 1 3.1 11.1l7.8.5a36.3 36.3 0 0 0-4.4-15.8c-1-1.9-3.8-2.2-5.4-1.1z"></path><path d="M242.6 554.9c4.9.9 6.6-6.6 1.7-7.5a48.9 48.9 0 0 0-19.8.2c-4.9.9-2.5 8.3 2.3 7.3a42 42 0 0 1 15.8 0z"></path><path d="M272.2 577a8 8 0 0 1-5.2 7.1c-1.9.8-2.2 3.7-1.2 5.3s3.3 2.1 5.3 1.3a15.7 15.7 0 0 0 8.8-13.7c.1-5-7.6-4.9-7.7 0z"></path><path d="M86.9 184.1a52.3 52.3 0 0 0-11.8-15.8l-.3-.2.7 12a43.3 43.3 0 0 1 4.3 7.1c2.2 4.5 9.3 1.4 7.1-3.1z"></path><path d="M135.4 173.1c1.7-1 2.7-3.6 1.6-5.3a12.8 12.8 0 0 1-1.8-11.8c1.5-4.7-5.9-6.8-7.5-2.1a20.3 20.3 0 0 0 2.5 17.6 4 4 0 0 0 5.2 1.6z"></path><path d="M143.8 104.2z"></path><path d="M115.9 216.2c-4.7-1.7-6.6 5.8-2 7.5a42.2 42.2 0 0 1 13.6 8.3c3.6 3.3 9-2.3 5.3-5.6a53.1 53.1 0 0 0-16.9-10.2z"></path><path d="M83 228.4c10.8-4 4.4-20.2-5.7-19.5l.4 7.8c2.5-.2 4.6 3.8 1.7 4.9a2.8 2.8 0 0 0-1.3 1.1l.3 4.8a4.1 4.1 0 0 0 4.6.9z"></path><path d="M109.2 144c2.3-1.4 6 2 3.5 4s-1.2 4.1.2 5.5a3.9 3.9 0 0 0 5.4-.2c9.3-7.6-3.6-21.9-13-15.9-4.2 2.6-.3 9.3 3.9 6.6z"></path><path d="M80.6 116c-4.4 2.3-.4 8.9 3.9 6.6a16.6 16.6 0 0 0 8.3-10.7l-9 1.4a9.4 9.4 0 0 1-3.2 2.7z"></path><path d="M100.4 164.4a66.2 66.2 0 0 1-10.9-8.9c-3.5-3.4-9.5 1.5-5.9 5a76.9 76.9 0 0 0 12.5 10.3c4.1 2.7 8.5-3.7 4.3-6.4z"></path><path d="M90.9 143.6a3.9 3.9 0 0 0 3.3-4.3c-.3-1.9-2.3-3.8-4.4-3.3a13.1 13.1 0 0 1-11.6-2.5c-2.1-1.7-4.3-.7-5.4 1l.3 4.7.5.5a20 20 0 0 0 17.3 3.9z"></path><path d="M135.4 192.6a15.5 15.5 0 0 0-10.9 12.1c-.9 4.9 6.8 6 7.7 1.2a7.8 7.8 0 0 1 6.1-6.2c2.1-.5 2.8-3.3 2.1-5s-3-2.6-5-2.1z"></path><path d="M104.8 185.8a16.8 16.8 0 0 0 17.8-1.4c4-3.1-.4-9.5-4.3-6.4a9.4 9.4 0 0 1-10.3.8c-4.3-2.4-7.6 4.6-3.2 7z"></path><path d="M143.8 122.6a16.1 16.1 0 0 0-5.9 4.4c-3.2 3.7 2.3 9.1 5.6 5.3l.3-.3z"></path><path d="M109.2 196.3a20.1 20.1 0 0 0-11.5 13.6c-.5 2 .2 4.2 2.3 4.9s4.5-.3 5-2.4a13.1 13.1 0 0 1 7.6-9.2c4.5-2 1.1-8.9-3.4-6.9z"></path><path d="M116.7 127.6c5.4-2.3 8.7-7.9 8.9-13.7s-7.6-4.9-7.8.1a7.8 7.8 0 0 1-5.1 7c-1.9.9-2.3 3.7-1.3 5.3s3.4 2.2 5.3 1.3z"></path><path d="M86.9 338.5c-.6-1.3-1.3-2.6-2-3.8l.5 8.5a3.5 3.5 0 0 0 1.5-4.7z"></path><path d="M135.4 327.4c1.7-.9 2.7-3.5 1.6-5.2a13 13 0 0 1-1.8-11.9c1.5-4.7-5.9-6.7-7.5-2a20.3 20.3 0 0 0 2.5 17.6c1.2 1.7 3.3 2.6 5.2 1.5z"></path><path d="M143.8 247.5c-.1-.2-.1-.4-.2-.5-.6-2-3.5-2.6-5.2-1.8s-2.4 3.2-1.7 5.2a14.7 14.7 0 0 0 7.1 8.2v-11.1z"></path><path d="M115.9 370.6c-4.7-1.7-6.6 5.8-2 7.5a40.2 40.2 0 0 1 13.6 8.2c3.6 3.3 9-2.2 5.3-5.6a51 51 0 0 0-16.9-10.1z"></path><path d="M86.9 368.9l.6 10.1c1.7-3 1.3-6.9-.6-10.1z"></path><path d="M109.2 298.4c2.3-1.5 6 1.9 3.5 4s-1.2 4.1.2 5.4 3.8 1.2 5.4-.1c9.3-7.7-3.6-21.9-13-16-4.2 2.7-.3 9.3 3.9 6.7z"></path><path d="M84.5 277a16.8 16.8 0 0 0 8.8-15.7c-.3-4.9-8-4.9-7.7 0a9.4 9.4 0 0 1-4.6 8.8l.4 7.1a3.8 3.8 0 0 0 3.1-.2z"></path><path d="M100.4 318.7a71.2 71.2 0 0 1-10.9-8.8 4.1 4.1 0 0 0-6.1.3l.3 4.8a75 75 0 0 0 12.4 10.1c4.1 2.7 8.5-3.6 4.3-6.4z"></path><path d="M90.9 298a4.1 4.1 0 0 0 3.3-4.4 4 4 0 0 0-4.4-3.3 13.1 13.1 0 0 1-7.6-.2l.5 8.1a20.6 20.6 0 0 0 8.2-.2z"></path><path d="M135.4 346.9a15.5 15.5 0 0 0-10.9 12.2c-.9 4.9 6.8 6 7.7 1.1a7.8 7.8 0 0 1 6.1-6.1c2.1-.6 2.8-3.3 2.1-5.1s-3-2.6-5-2.1z"></path><path d="M111.7 252.7c-1.5-3.8 3.8-6.5 6.4-8.1 4.3-2.5-.3-8.7-4.5-6.2-6.1 3.6-12.1 9.4-9.1 17 1.8 4.7 9 1.9 7.2-2.7z"></path><path d="M104.8 340.1a16.6 16.6 0 0 0 17.8-1.4c4-3-.4-9.4-4.3-6.4a9.1 9.1 0 0 1-10.3.8c-4.3-2.3-7.6 4.7-3.2 7z"></path><path d="M143.8 277a15.8 15.8 0 0 0-5.9 4.3c-3.2 3.8 2.3 9.2 5.6 5.4l.3-.4z"></path><path d="M109.2 350.7a20 20 0 0 0-11.5 13.5c-.5 2 .2 4.2 2.3 4.9s4.5-.3 5-2.3a12.7 12.7 0 0 1 7.6-9.2c4.5-2 1.1-8.9-3.4-6.9z"></path><path d="M88.3 246.2c4.8.9 6.5-6.6 1.6-7.5a50.1 50.1 0 0 0-10.9-.8l.5 7.6a43.5 43.5 0 0 1 8.8.7z"></path><path d="M117.8 268.3a8 8 0 0 1-5.1 7.1c-1.9.8-2.3 3.7-1.3 5.3s3.4 2.1 5.3 1.3a15.6 15.6 0 0 0 8.9-13.7c.1-5-7.6-4.9-7.8 0z"></path><path d="M135.4 481.7c1.7-.9 2.7-3.5 1.6-5.2a12.8 12.8 0 0 1-1.8-11.8c1.5-4.7-5.9-6.8-7.5-2.1a20.3 20.3 0 0 0 2.5 17.6c1.2 1.7 3.3 2.6 5.2 1.5z"></path><path d="M143.8 401.8l-.2-.5c-.6-2-3.5-2.6-5.2-1.8s-2.4 3.2-1.7 5.2a14.4 14.4 0 0 0 7.1 8.2v-11.1z"></path><path d="M115.9 524.9c-4.7-1.7-6.6 5.8-2 7.5a43.7 43.7 0 0 1 13.6 8.2c3.6 3.4 9-2.2 5.3-5.5a53.1 53.1 0 0 0-16.9-10.2z"></path><path d="M109.2 452.7c2.3-1.4 6 2 3.5 4s-1.2 4.1.2 5.5a3.9 3.9 0 0 0 5.4-.2c9.3-7.6-3.6-21.9-13-15.9-4.2 2.6-.3 9.3 3.9 6.6z"></path><path d="M89.5 412l.9 14a17.2 17.2 0 0 0 2.9-10.3 3.8 3.8 0 0 0-3.8-3.7z"></path><path d="M100.4 473.1a83.4 83.4 0 0 1-7.5-5.8l.6 10.2a21.4 21.4 0 0 0 2.6 1.9c4.1 2.8 8.5-3.6 4.3-6.3z"></path><path d="M94.2 448a4.2 4.2 0 0 0-2.7-3.2l.4 7.1a3.6 3.6 0 0 0 2.3-3.9z"></path><path d="M135.4 501.3a15.5 15.5 0 0 0-10.9 12.1c-.9 4.9 6.8 6 7.7 1.2a7.8 7.8 0 0 1 6.1-6.2c2.1-.5 2.8-3.3 2.1-5s-3-2.7-5-2.1z"></path><path d="M111.7 407c-1.5-3.8 3.8-6.5 6.4-8 4.3-2.6-.3-8.8-4.5-6.3-6.1 3.6-12.1 9.5-9.1 17.1 1.8 4.6 9 1.8 7.2-2.8z"></path><path d="M104.8 494.5a16.7 16.7 0 0 0 17.8-1.5c4-3-.4-9.4-4.3-6.4a9.3 9.3 0 0 1-10.3.9c-4.3-2.4-7.6 4.6-3.2 7z"></path><path d="M143.8 431.3a16.1 16.1 0 0 0-5.9 4.4c-3.2 3.7 2.3 9.1 5.6 5.3l.3-.3z"></path><path d="M109.2 505a20.1 20.1 0 0 0-11.5 13.6c-.5 2 .2 4.2 2.3 4.9s4.5-.3 5-2.4a13.1 13.1 0 0 1 7.6-9.2c4.5-2 1.1-8.9-3.4-6.9z"></path><path d="M89.9 393l-1.5-.2.4 7.8c4.5.2 5.8-6.7 1.1-7.6z"></path><path d="M117.8 422.7c-.1 3.3-2.2 5.7-5.1 7s-2.3 3.7-1.3 5.3 3.4 2.2 5.3 1.3c5.4-2.3 8.7-7.9 8.9-13.7s-7.6-4.9-7.8.1z"></path><path d="M138.4 553.9c-2 1-2.4 3.2-1.7 5.2a14.7 14.7 0 0 0 7.1 8.2v-11.1c-.1-.2-.1-.4-.2-.5-.6-2-3.5-2.6-5.2-1.8z"></path><path d="M113.6 547.1c-6.1 3.6-12.1 9.4-9.1 17 1.8 4.7 9 1.9 7.2-2.8s3.8-6.4 6.4-8c4.3-2.5-.3-8.7-4.5-6.2z"></path><path d="M117.8 577a6.9 6.9 0 0 1-2.1 5l8.6.6a15.8 15.8 0 0 0 1.3-5.6c.1-5-7.6-4.9-7.8 0z"></path><path d="M446 567.2l446.5 23.5L923 167.3 167.9 30.6l5 220.2 6.9 302.7 129.4 6.7-53.3 112.5L446 567.2z"></path><path fill="#fd0" d="M428.6 549.8L875 573.2l30.6-423.3L150.5 13.2l5 220.2 6.9 302.7 129.4 6.6-53.4 112.6 190.2-105.5z"></path><g><path fill="#00d7f9" d="M823.9 336.2l80.9 68.7 33.6-74.9-114.5 6.2z"></path><path fill="#f10985" d="M852.3 303.6l135-.6-44.2-80.8-90.8 81.4z"></path></g><g><path fill="#fd0" d="M88.2 399.2L3.8 369.6 0 425.7l88.2-26.5z"></path><path fill="#00d7f9" d="M124.1 356.3l-61.7-64.9-34.9 59.8 96.6 5.1z"></path><path fill="#f10985" d="M193.9 416.9L61.2 441.1l57.6 71.8 75.1-96z"></path></g><path fill="#f10985" d="M603.1 499l29.4-27.8 10.7 11.4 17.1 18 18-17.1 11.4-10.8 10.7 11.4 17.1 18 29.4-27.8 27.8 29.3 18-17.1-44.9-47.3-18 17.1-11.4 10.7-10.7-11.3-17.1-18-29.4 27.8-10.7-11.4-17.1-18-18 17.1-29.3 27.8 17 18z"></path></g></g></svg>