<svg xmlns="http://www.w3.org/2000/svg" width="1042.8" height="1072.7" viewBox="0 0 1042.8 1072.7">
  <title>banner123_12425054</title>
  <g id="Layer_2" data-name="Layer 2">
    <g id="Layer_2-2" data-name="Layer 2">
      <g id="banner123_12425054">
        <path d="M977.7,287.1A528.1,528.1,0,0,0,515.1,13.5C294.7,13.5,95.7,152.4,19.7,359.1l-3.8,10.5,90.4,427.3,157.8,58.9-37.9,86.9,256.3,130L446.7,972.5l182.6,13.9L742.2,852.5l-60-41.8,284.9,3.5L977.2,796a528.3,528.3,0,0,0,32.4-439.3A533.6,533.6,0,0,0,977.7,287.1Z" fill="#bfbfbf"/>
        <path d="M961.7,273.6A528.1,528.1,0,0,0,499.2,0C278.8,0,79.7,138.9,3.8,345.6L0,356.1,90.4,783.4l157.8,58.9-37.9,86.9,256.3,130L430.8,959l182.5,14,113-134-60.1-41.7,284.9,3.4,10.2-18.1a529.6,529.6,0,0,0,32.4-439.4A534.2,534.2,0,0,0,961.7,273.6Z" fill="#fff"/>
        <polygon points="600.6 942.5 115.8 761.5 213.4 518.4 683 844.7 600.6 942.5" fill="#004a6d"/>
        <polygon points="373.5 886.2 414 999.4 248.3 915.4 373.5 886.2" fill="#004a6d"/>
        <polygon points="667 844.6 660.4 844.6 643.9 844.5 637.4 844.4 620.9 844.3 614.3 844.3 597.8 844.2 591.3 844.1 574.8 844 568.2 844 551.7 843.9 545.2 843.9 542.9 843.8 528.6 843.8 522.1 843.7 505.6 843.6 499.1 843.6 482.5 843.5 476 843.4 471.5 843.4 459.5 843.3 453 843.3 436.4 843.2 429.9 843.1 413.4 843 406.8 843 390.3 842.9 383.8 842.9 367.3 842.8 360.7 842.7 344.2 842.6 337.7 842.6 321.2 842.5 314.6 842.4 310.9 842.4 298.1 842.3 291.6 842.3 280.3 842.2 277.1 849.5 271.5 862.3 266.5 873.9 253.6 903.5 248.5 915.1 248.3 915.5 263.6 916.7 269.7 917.2 285.1 918.3 291.2 918.8 306.7 920 310.9 920.3 312.8 920.5 328.2 921.6 334.3 922.1 349.8 923.3 355.9 923.8 371.3 924.9 377.4 925.4 392.9 926.6 398.9 927.1 414.4 928.2 420.5 928.7 428.7 929.3 436 929.9 442 930.4 457.5 931.5 463.6 932 479.1 933.2 485.2 933.6 500.6 934.8 506.7 935.3 522.2 936.5 528.3 936.9 542.9 938.1 543.7 938.1 549.8 938.6 565.3 939.8 571.4 940.2 586.8 941.4 592.9 941.9 600.6 942.5 644.8 890 679 849.5 680 848.3 683 844.7 667 844.6" fill="#63cbd8"/>
        <path d="M997.2,511.9c0-2.1-.1-4.2-.2-6.3-.2-5.3-.5-10.6-.8-15.8-.2-2.1-.4-4.1-.5-6.1-.4-5.1-.9-10.1-1.5-15.2-.2-1.9-.5-3.9-.7-5.8-.6-4.9-1.3-9.8-2-14.6-.3-1.9-.7-3.8-1-5.7-.8-4.7-1.6-9.4-2.5-14-.4-1.8-.7-3.7-1.1-5.5-1-4.5-2-9.1-3.1-13.6l-1.2-5.3c-1.2-4.4-2.3-8.8-3.5-13.1l-1.5-5.1c-.3-.9-.5-1.9-.8-2.8-1-3.3-2-6.7-3.1-10l-1.6-4.9c-1.4-4.1-2.8-8.3-4.3-12.4-.6-1.5-1.1-3.1-1.7-4.7h0c-1.5-4-3.1-8-4.7-11.9-.6-1.6-1.3-3.2-1.9-4.7-1.6-3.9-3.3-7.8-5-11.6-.7-1.5-1.4-3.1-2-4.6l-5.4-11.3c-.7-1.4-1.4-2.9-2.2-4.3-1.8-3.7-3.7-7.4-5.6-11l-2.3-4.3a11.4,11.4,0,0,1-1-1.9l-5-8.7-2.4-4.2-6.3-10.3-2.5-4.1-6.6-10-2.7-3.9c-2.2-3.3-4.5-6.6-6.8-9.8l-2.8-3.8c-2.3-3.2-4.7-6.4-7.1-9.5l-2.9-3.7c-2.4-3.1-4.9-6.2-7.4-9.2l-3-3.6c-2.5-3-5.1-6-7.7-8.9l-3.1-3.5c-2.6-2.9-5.3-5.8-8-8.6l-3.2-3.4-8.2-8.4-3.3-3.3-8.6-8.1-3.4-3.1-6.8-6.2-2-1.7-3.5-3-9.1-7.6-3.6-2.9-9.3-7.3-3.8-2.8c-3.1-2.4-6.4-4.7-9.6-7l-3.8-2.7-8.6-5.9-1.4-.9-3.9-2.6-10.2-6.4c-1.4-.8-2.8-1.6-4.1-2.5l-10.5-6.1-4.2-2.4-10.8-5.8-4.4-2.2c-3.6-1.9-7.4-3.7-11.1-5.5l-4.4-2.1-11.5-5.2-4.6-2c-3.9-1.6-7.8-3.3-11.8-4.8l-4.7-1.9-12.2-4.4-4.8-1.7c-4.2-1.5-8.4-2.8-12.6-4.1l-5-1.6-13-3.7-5.1-1.3c-4.5-1.2-8.9-2.3-13.4-3.3l-5.4-1.2L592,35.6l-5.5-1c-4.8-.9-9.6-1.6-14.4-2.3l-5.7-.9-14.9-1.7c-1.9-.3-3.9-.4-5.9-.6l-2.7-.3-12.8-.9-6.2-.4L507.8,27h-8.6c-5,0-9.9.1-14.8.3l-6.8.2c-5.9.3-11.8.6-17.6,1.1-2.5.1-4.9.4-7.2.6-6.3.6-12.6,1.3-18.8,2.1l-7.6,1c-6.7,1-13.4,2.1-20,3.4l-8.1,1.6c-7.3,1.5-14.5,3.1-21.6,4.9l-8.9,2.4c-8,2.1-15.9,4.5-23.8,7.1L334.1,55c-7.8,2.7-15.6,5.6-23.2,8.8l-3.8,1.5c-3.9,1.7-7.8,3.3-11.6,5.1-11.2,5-22.1,10.4-32.9,16.2q-7.5,4.1-15,8.4A496.6,496.6,0,0,0,197,129c-9.2,7-18.2,14.4-26.8,22A503.4,503.4,0,0,0,103,223c-8.5,11.1-16.5,22.7-24.1,34.5-3.4,5.3-6.7,10.7-9.9,16.1s-5.7,10-8.4,15c-5.8,10.7-11.2,21.7-16.2,32.9-1.8,3.8-3.4,7.7-5.1,11.6-2.8,6.6-5.4,13.4-7.9,20.2l-.9,2.4L31,358l1.1,5.4L35,377.2l1.2,5.4v.4l2.8,13.3,1.1,5.4,2.9,13.8,1.2,5.4,2.9,13.7,1.1,5.4,3,13.8,1.1,5.4,2.9,13.7,1.1,5.4,3,13.8,1.1,5.4,2.9,13.7,1.1,5.4,3,13.8,1.1,5.4,2.9,13.7,1.1,5.4,3,13.8,1.1,5.4,2.2,10.3.7,3.4,1.2,5.4L83.7,607l1.1,5.4.6,2.6,2.3,11.1,1.2,5.4,2.9,13.7,1.1,5.5,2.9,13.7,1.2,5.4,2.9,13.7L101,689l2.9,13.7,1.2,5.4,2.9,13.7,1.1,5.5L112,741l1.2,5.4,2.6,12.6h7.8l16.5.2h6.4l16.5.2h6.5l16.4.2h6.5l16.5.2h6.5l16.4.2h6.5l16.4.2h6.5l16.5.2h17.6v.2h57.5l16.5.2h29.4l16.5.2h6.5l16.4.2h6.5l16.5.2h6.5l16.4.2h6.5l16.5.2h6.5l16.4.2h29.4l16.5.2h6.5l16.4.2h6.5l16.5.2h6.5l16.4.2h6.5l16.5.2h6.5l16.4.2H697l16.5.2h39.7v.2h35.4l16.5.2h6.5l16.4.2h6.5l16.5.2h6.4l16.5.2h6.5l16.4.2h6.5l16.4.2H934l1.5-2.8q3.9-6.9,7.5-14.1c2.2-4.3,4.3-8.6,6.4-13,4.6-9.6,8.9-19.5,12.9-29.4,1.4-3.6,2.7-7.1,4-10.7,3.1-8.3,6-16.7,8.6-25.2,1-3.1,1.9-6.2,2.9-9.4,2.1-7.5,4.1-15,5.9-22.6.7-2.8,1.4-5.7,2-8.5,1.3-5.9,2.5-11.9,3.6-17.9a29.3,29.3,0,0,1,.5-2.9c.4-2.6.9-5.2,1.4-7.9,1-6.4,1.8-12.8,2.6-19.3.3-2.4.6-4.9.8-7.4.7-6,1.2-12.1,1.6-18.2.2-2.3.3-4.6.4-7,.3-5.7.5-11.4.7-17.2,0-2.2,0-4.5.1-6.7v-3.2C997.4,520.7,997.3,516.3,997.2,511.9Z" fill="#63cbd8"/>
      </g>
    </g>
  </g>
</svg>
