<svg xmlns="http://www.w3.org/2000/svg" width="560.4" height="841.4" viewBox="0.00647735595703125 -0.03179579973220825 560.3870239257812 841.5318603515625" style=""><g><title>lovelic69_166013022</title><g data-name="Layer 2"><path d="M358.6 287.6c-6.2 22.8-15.3 44.6-25.1 65.9-15.7 34.6-35.8 74.5-48 105.9-2.8 7.4-8.1 6.7-11.6.6-17.7-30.4-34.2-61.4-48-93.7-12.4-29.2-24-60.3-28.8-91.8-3.4-22.5-2.6-52.1 23.7-58.9 51.6-13.2 55.6 48 56.8 49.5s.7-49.4 45.1-57.6c23.6-4.4 36.9 6.8 40.7 26.6 3.4 17.6-.3 36.5-4.8 53.5z" fill="#fae315"></path><path d="M319.8 47.4c-3.6 13.3-9 26.1-14.7 38.6-9.1 20.2-20.9 43.5-28 61.9-1.7 4.3-4.8 3.9-6.9.3a504.4 504.4 0 0 1-28-54.8c-7.3-17-14.1-35.2-16.9-53.7-2-13.1-1.5-30.4 13.9-34.4 30.2-7.8 32.5 28.1 33.2 28.9s.4-28.8 26.4-33.7c13.8-2.5 21.6 4 23.8 15.6s-.1 21.4-2.8 31.3z" fill="#fff"></path><g><path d="M496.4 729.3c-2.2-36.1-6-72.2-11.4-108.1-4.1-27.1-11-53.4-18.5-79.8-4.8-16.5-9.9-33-16.5-48.9-4.1-10-7.6-22.1-17.1-28.3a17.1 17.1 0 0 0-3.6-1.7c-14.7-4.5-29.6 17.4-36.9 26.8-11.2 14.6-22.3 30.3-30.2 47l-5.8-.9h-.5c-6.2-.9-12.4-1.5-18.7-1.9-11.7-.6-23.5-.5-34.8-.1-15.5.5-30.9 1.6-46.2 3.1-18 1.7-36.9 3.2-54.5 7.5-6.8-14.2-17.2-27.6-27.4-39.2a152.5 152.5 0 0 0-29-26c-8.9-6-22.2-12.8-33.3-11.4a3.5 3.5 0 0 0-3.1 1c-6 5.5-9.1 13.5-11.8 20.9-4.6 12.6-7.4 25.9-9.9 39-6.7 33.9-10.4 68.5-13.4 102.9-1.9 21.3-3.6 42.8-4.4 64.3l-.3 9.9q-.3 7.4-.3 14.7v10c-.1 5.9-.1 11.9-.2 17.8h.1c-.1 2.9-.1 5.9-.1 8.8q0 9.4.3 18.9c.2 6.2 1.9 44.3 3.3 65.9h427.6c1.2-32.9-1.9-88-3.4-112.2zM331 762.9c-7.8 7.6-18.1 11.3-28.9 9.7s-17.4-8.9-24.9-16.5c-15.6 18.1-42.4 24.9-61.7 9.4-3.2-2.6.4-6.6 3.7-4.1 8.8 6.8 19.6 7.8 30.3 3.7a82.7 82.7 0 0 0 24.3-14.4h.2a15.6 15.6 0 0 1-3.7-1.9c-7.1-4.9-20.7-20.1-20.3-24.9a3.5 3.5 0 0 1 1-2.1 4 4 0 0 1 1.6-1.2c14.4-6 35.9-7.6 50.4-1.5a3 3 0 0 1 1.6 4c-1.2 4.6-17.2 22.5-20.7 25.8a11.1 11.1 0 0 1-2.4 1.6c4.9 5 10.8 11 17.6 12.7 10.4 2.4 18.9.9 27.2-5.2 3.9-3 8 1.6 4.7 4.9z" fill="#fff"></path><path d="M69.4 695.4a168.5 168.5 0 0 1-34.8 1.4l-17.9-.9c-4.6-.3-10.3-.6-14.7.9-2.4.9-2.1 4.5 0 5.8 3.9 2.5 8.8 1.8 13.4 2.2l19.2 1.5c10.9.7 23.6 1.9 34.5-1z"></path><path d="M243.6 683.7c1.6-1.9.3-5.7-2.6-4.6-7 2.6-13.4 6.7-20.4 9.3s-15.8 2.6-23.7 2.1a69 69 0 0 1-24.5-6.1c-5.7-2.6-10.3-6.9-15.7-9.9a3.9 3.9 0 0 0-5.3 5.2c7.8 14 28 18.6 42.3 20.5 17.5 2.2 38.5-2.1 49.9-16.5z"></path><path d="M326.3 757.9c-8.3 6.1-16.8 7.6-27.2 5.2-6.8-1.7-12.7-7.7-17.6-12.7a9.4 9.4 0 0 1-7.5.2h-.2a82.7 82.7 0 0 1-24.3 14.4c-10.7 4.1-21.5 3.1-30.3-3.7-3.3-2.5-6.9 1.5-3.7 4.1 19.3 15.5 46.1 8.7 61.7-9.4 7.5 7.6 13.8 15 24.9 16.5s21.1-2.1 28.9-9.7c3.3-3.2-.8-7.8-4.7-4.9z"></path><path d="M281.5 750.4a11.1 11.1 0 0 0 2.4-1.6c3.5-3.3 19.5-21.2 20.7-25.8a3 3 0 0 0-1.6-4c-14.5-6.1-36-4.5-50.4 1.5a4 4 0 0 0-1.6 1.2 3.5 3.5 0 0 0-1 2.1c-.4 4.8 13.2 20 20.3 24.9a15.6 15.6 0 0 0 3.7 1.9 9.4 9.4 0 0 0 7.5-.2z" fill="#ff2e09"></path><path d="M68.8 723.7V720a158.6 158.6 0 0 1-34.4 2.5c-10.3-.5-21.2-2-31.4-.4-2.9.5-2.8 5.3 0 5.9 11.3 2.1 23.1 3.1 34.5 4.2s21.6 1.4 31.3-2.2z"></path><path d="M68.7 747.8h-.1c-1.6-.2-8.7.2-9.8.3-21 1.5-36.9-7.2-56.7 1.3-3.5 1.5-2.3 6.6 1.3 6.3a149.9 149.9 0 0 1 32.8.8c10.6 1.4 21 2.4 31.6.4l.8-.3c0-2.9 0-5.9.1-8.8z"></path><path d="M396.5 672.4c1.3-2.1-.5-5.7-3.3-4.2-6.6 3.5-12.3 8.4-18.9 11.9s-15.3 4.7-23.2 5.2a68.6 68.6 0 0 1-25.1-2.7c-6-1.9-11.1-5.5-16.9-7.8a3.9 3.9 0 0 0-4.5 5.9c9.5 12.8 30.2 14.7 44.6 14.6 17.6-.1 37.9-7.1 47.3-22.9z"></path><path d="M558.4 694.3c-4.4-1.5-10.1-1.2-14.7-1l-18 1a172.1 172.1 0 0 1-32.1-1.1l.9 10.2c10.1 2 21.4 1 31.2.3 6.5-.4 12.9-1 19.3-1.5 4.5-.3 9.5.3 13.4-2.1 2.1-1.4 2.4-5 0-5.8z"></path><path d="M557.4 719.5c-10.2-1.6-21.1 0-31.4.4a146.6 146.6 0 0 1-30.4-1.8c.3 3.6.5 7.2.8 10.8 8.6 2 18.2 1.6 26.5.8 11.4-1.1 23.2-2.2 34.5-4.3 2.8-.5 2.9-5.4 0-5.9z"></path><path d="M558.3 746.9c-19.8-8.6-35.7.1-56.7-1.4l-4.3-.2c.2 3.1.4 6.4.6 9.8 8.7.9 17.4 0 26.3-1.1a149.9 149.9 0 0 1 32.8-.9c3.6.3 4.8-4.7 1.3-6.2z"></path></g></g></g></svg>