<svg xmlns="http://www.w3.org/2000/svg" width="920.2" height="747" viewBox="-0.015206336975097656 -0.0030126571655273438 920.1340942382812 747.0130615234375" style=""><g><title>nbanner81_332860344</title><g data-name="Layer 2"><path d="M115 169.4a30.7 30.7 0 0 1-5.9 1.2c-1.9.2-4.6.7-6 1-5.8 1.3-8.6 2-9.2 2.4a32 32 0 0 1-5.8 2.2 66.3 66.3 0 0 0-8.6 3.5 27.7 27.7 0 0 1-6 2.4 12.9 12.9 0 0 0-3.9 1.9 4.7 4.7 0 0 1-1.9 1.2 7 7 0 0 0-2.3 1.4 50 50 0 0 1-4.5 3 23.8 23.8 0 0 0-3.4 1.9l-3.8 2.8a37.6 37.6 0 0 0-3.8 3.1c-.5.4-2.1 1.6-3.8 2.7a20.2 20.2 0 0 0-3.3 2.7 21.9 21.9 0 0 1-5.1 4.9c-3.4 2.5-5.6 4.8-6.1 6.1a7.7 7.7 0 0 1-2.6 2.3c-1.1.7-2.1 1.7-2.1 2.1a6.6 6.6 0 0 1-1.6 2.6 10.2 10.2 0 0 0-1.5 2.2c0 .3-.6 1-1.2 1.7a44.6 44.6 0 0 0-6.2 9.5c-.8 1.6-1.7 2.9-2 2.9s-.8.7-1.1 1.5a24.1 24.1 0 0 1-2.2 4 11.4 11.4 0 0 0-1.5 3.6A3.5 3.5 0 0 1 9 248c-.9.9-3.8 8.7-4.1 10.9a26.7 26.7 0 0 1-1.1 4.8c-2.2 6.6-4 20-3.8 28.4s.8 15.4 1.2 16.1a10.1 10.1 0 0 1 .7 3.6c.5 6.4 1.7 12.1 2.5 12.8s1.1 2.4 1.4 4.7a14.3 14.3 0 0 0 1.7 5.8 32.1 32.1 0 0 1 2.7 6c.8 2.3 1.7 4.1 2 4.1s.4.6.4 1.3a7.4 7.4 0 0 0 1.5 3.2 11.5 11.5 0 0 1 1.9 3.6 10.6 10.6 0 0 0 2.2 3.5 25.3 25.3 0 0 1 3.3 4.8 42 42 0 0 0 5.2 6.5c5.6 5.8 7.6 7.9 7.6 8.2s4.2 4.6 7.6 7.2a43.3 43.3 0 0 1 4.6 3.8 3.6 3.6 0 0 0 1.6 1.2c.8 0 9 4.9 10.2 6.1a12.1 12.1 0 0 0 3.1 1.8l4.1 1.7c3.4 1.6 10.3 4 11.2 4a3.3 3.3 0 0 1 2 .9 8.9 8.9 0 0 0 3.6 1.2 9.3 9.3 0 0 1 3.4.8 10.1 10.1 0 0 0 3.6.7c14.4 1.1 26.7 1.1 31.1.1 8.1-1.9 18.9-5.8 23.3-8.4l4.8-2.8c1.8-1.1 3.2-2.1 3.2-2.4s.6-.7 1.3-.9a12.9 12.9 0 0 0 3.5-2.6 21.5 21.5 0 0 1 4-3.2c1.8-.9 5.5-4.4 11.1-10.3a48 48 0 0 1 3.9-4 12.7 12.7 0 0 0 2.5-3.2 1.5 1.5 0 0 1 1.2-1.1c.5 0 .9-.3.9-.6s3.9-7.1 5.4-8.4a4 4 0 0 0 1.4-2 9.8 9.8 0 0 1 2.2-3.2 9.8 9.8 0 0 0 2.2-3c0-.7 6.5-13.4 8-15.6s2.9-6.2 4.3-10.6a17.7 17.7 0 0 1 1.5-3.1 6.3 6.3 0 0 0 1-3.1 2.9 2.9 0 0 1 .7-2.1 1.5 1.5 0 0 0 .3-1.5c-.1-.7 0-1.2.3-1.2s.6-.5.6-1.1a5.4 5.4 0 0 1 .9-2.5c.6-.8.9-1.6.7-1.8s-.1-.9.2-1.5a13.5 13.5 0 0 0 1-4.1 25.8 25.8 0 0 1 .9-4.8 35.7 35.7 0 0 0 .9-4.3c.2-1.4.7-4.4 1.2-6.8 1.7-8.2 1.5-34.3-.2-35.5a9.8 9.8 0 0 1-.5-3.1c0-3.7-1.3-9.6-2.1-9.8a.5.5 0 0 1-.2-.8c.5-.8-1.1-6.9-2-7.7a7.5 7.5 0 0 1-1.2-2.8 30.2 30.2 0 0 0-2.6-6.7 36.8 36.8 0 0 1-2.1-5.2 1.6 1.6 0 0 0-.4-1.2 57.7 57.7 0 0 1-5.1-9.2c-.4-.9-1-1.7-1.4-1.7s-4.1-5.1-4.1-6-.5-.9-1.1-1.4a19.6 19.6 0 0 1-2.6-3.2 19.8 19.8 0 0 0-5.5-5.3 3.2 3.2 0 0 1-1.3-1.8.9.9 0 0 0-.8-.9 4.2 4.2 0 0 1-2-1c-1.4-1.3-2.8-2-7.7-4a20.1 20.1 0 0 1-3.7-1.8 19.1 19.1 0 0 0-6-2.6c-.5 0-.8-.2-.8-.5s-8.3-3-12.4-3.4a188.9 188.9 0 0 0-24.8-.9 21.8 21.8 0 0 1-5.3-.2c-.3-.2-1.6.1-2.9.5zm-2.2 7.7a.6.6 0 0 1-.6.6c-.4 0-.7-.2-.7-.6a.7.7 0 0 1 .7-.6.6.6 0 0 1 .6.6zm43.1 5.1c-.2.5-.4.4-.4-.4s.1-1 .3-.8a1.6 1.6 0 0 1 .1 1.2zM52.2 229.7c0 .3-.4.6-.9.6s-1-.3-1-.6.5-.7 1-.7a.8.8 0 0 1 .9.7zm80 2.4a1.2 1.2 0 0 1-.9.7c-.4 0-.5-.3-.3-.7a1.3 1.3 0 0 1 1-.6c.4 0 .5.3.2.6zm-12.9 9.9a1.2 1.2 0 0 1-1 .6.6.6 0 0 1-.6-.6c0-.3.4-.6 1-.6s.8.3.6.6zm-61.2 7.3c-.6.6-1.1-.4-.6-1.2s.6-.6.8 0a1.6 1.6 0 0 1-.2 1.2zm-4 8.8c0 .4-.3.6-.7.6a.6.6 0 1 1 0-1.2c.4 0 .7.2.7.6zm3.7 3.1c0 .4-.3.6-.7.6a.6.6 0 0 1 0-1.2c.4 0 .7.2.7.6zm120.4 8.8c-.4 1.1-1.8 1.3-1.8.2a1.1 1.1 0 0 1 1-1c.6 0 .9.3.8.8zm-32.1 19.9c0 .5-.5.9-1.2.9s-1.2-.4-1.2-.9.5-.9 1.2-.9 1.2.4 1.2.9zM88 295.1c.1 1.2 0 1.4-.9 1.1l-1.3-.4c-.1 0-.2-.6-.2-1.3s2.1-1.3 2.4.6zm103.3 2.2c0 .2-.3.4-.7.7a.4.4 0 0 1-.6-.3.7.7 0 0 1 .6-.7c.4 0 .7.1.7.3zm-114.1 2.6c1.3 1.3.7 2.1-1.5 2.1s-2.5-2.8.1-3.1a2.6 2.6 0 0 1 1.4 1zm-17 .2a.6.6 0 1 1-.6-.6.5.5 0 0 1 .6.6zm47.3 1.3c.2.3.1.6-.3.6a.6.6 0 0 1-.6-.6c0-.4.1-.7.3-.7s.4.3.6.7zm-40.8 1.2c.2.3 0 .8-.6 1s-1.8 0-1.2-.9 1.3-.9 1.8-.1zm25.1-.1c0 .8-1.3 1.5-1.7 1.1s.4-1.6 1.1-1.6a.6.6 0 0 1 .6.5zm-42.1 13.7a.6.6 0 1 1-.6-.6.5.5 0 0 1 .6.6zM38 317.4a1.4 1.4 0 0 1-.6 1 1 1 0 0 0-.2 1.2c.2.6-.1.9-.6.9a1.5 1.5 0 0 1-.7-2.8c1.3-1 2.1-1.1 2.1-.3zm-5.6 20.7a.9.9 0 1 1-1.8 0 .9.9 0 1 1 1.8 0zm80.9 2.3c-.4 1.2-1.8 1.4-1.8.3a1 1 0 0 1 1-1c.6 0 .9.3.8.7zm60.7 6.7c0 .4-.3.6-.7.6a.6.6 0 1 1 0-1.2c.4 0 .7.2.7.6zm-74.2 3.1c0 .3-.4.6-.9.6s-1-.3-1-.6.5-.6 1-.6.9.3.9.6zm-60.6 6.4a1 1 0 0 1-.6.7c-.3.2-.6.1-.6-.3a.6.6 0 0 1 .6-.6c.4 0 .6.1.6.2zm74.4 12.4c.2.6 0 1-.5 1s-1.7-.9-1.1-1.5 1.2-.5 1.6.5zm-38 1.4c-.3 1.5-1.8 1.7-1.8.2s.4-1.3 1-1.3.9.5.8 1.1zM51 387.9c0 .7-.3 1.1-.7.9a1.8 1.8 0 0 1-.6-1.3c0-.5.3-.9.6-.9s.7.6.7 1.3z" fill="#d0e7ce"></path><path d="M743.8 699.5c.5-.1 4.6-.4 9.3-.6a99.4 99.4 0 0 0 10.8-.9l8.5-1.8c3.3-.7 7.4-1.4 9.1-1.6a10.5 10.5 0 0 0 4.1-1 26.7 26.7 0 0 1 9.5-4.4 19.9 19.9 0 0 0 5.2-1.8 11.6 11.6 0 0 1 3.1-1.1c2 0 12.3-6 14.2-8.2a5.9 5.9 0 0 1 1.7-1.5c.7 0 10.4-5.8 11.8-7 3-2.7 8.5-6.7 9.8-7.1s1.4-.9 1.4-1.3.5-.7.9-.7 4-3.1 4-4.2.3-.6.8-.6 2.6-1.8 4.8-4a28.7 28.7 0 0 1 4.3-4.1c.7 0 5.4-4.6 5.4-5.3a10.6 10.6 0 0 1 2.8-2.9c1.5-1.4 2.8-2.8 2.8-3.2s2.4-4.1 6.6-8.7c1.7-1.9 3-3.7 3-4.2s5.8-9.8 6.7-10.2.6-1 .6-2.1a2.5 2.5 0 0 1 1.2-2.3 1.5 1.5 0 0 0 1.1-1.5c-.2-.5 1.1-3.4 2.7-6.3s3-5.7 3-6.3a9.3 9.3 0 0 1 1.9-3.5 25.7 25.7 0 0 0 3.3-8.2c.8-3.2 1.9-6.3 2.6-7s1-1.8.7-2.2a2.7 2.7 0 0 1 .3-2.4c.5-.9 1-3.9 1.2-6.7s.5-6.8.8-9.1c.5-4.7-.7-6.9-5.5-10.8s-4.5-3-4.5-1.2a1.3 1.3 0 0 1-1.2 1.2 1.2 1.2 0 0 1-1.2-1.2c0-.9-1-1.2-3-1.3l-26-.3c-12.6-.1-26.2-.5-30.1-.9-6.8-.5-12.5-.9-17.3-1.1-2.1 0-17.9-.1-23.8 0l-8.4-.2c-16.7-.5-56.8.3-71.6 1.5-3.3.2-12.9.6-21.3.8l-16.1.5-12.5-.5c-22.5-1.1-26.2-1.3-44.2-1.5-23.8-.3-24.5 0-25.4 9.5s-.4 25.1.7 29c.4 1.7.9 4.1 1.1 5.1a23.8 23.8 0 0 0 2.2 6c1.1 2.3 2.2 5.1 2.6 6.2a6 6 0 0 0 1.8 2.9c.8.5 1.1 1.2.8 1.5s2.1 6.5 4.2 8.8a10.7 10.7 0 0 1 2 3.6 29.3 29.3 0 0 0 2.3 4.9l3.6 5.6c.9 1.5 1.7 2.4 1.7 1.8a.9.9 0 0 1 .9-1c.4 0 .7.5.6 1.1s2.6 7.8 3.4 7.8 2.1 2 3.8 4.5c2.7 4 11.2 13.1 14.7 16 .6.5 2.5 2.4 4.1 4.1s4.4 4.3 6.3 5.9 4.7 3.9 6.2 5.4a35.4 35.4 0 0 0 5.8 4 52.9 52.9 0 0 1 5.3 3.1 23.6 23.6 0 0 0 3 1.7l1.4.2c.5 0 .8.6.8 1.3a1.2 1.2 0 0 0 1.1 1.2 10.9 10.9 0 0 1 3.8 1.8c2.5 1.7 16.5 7.8 17.8 7.8a16.4 16.4 0 0 1 2.8 1l2.7 1a65.1 65.1 0 0 1 7.6 2.9 21.2 21.2 0 0 0 4.9 1.1c6.1.8 9.6 1.4 10.8 1.9a40 40 0 0 0 6.1.6l9.6.6a26.4 26.4 0 0 0 5.6.1zm18.8-19.9c1.1-1 2.1-.2 1.4 1a1.1 1.1 0 0 1-1.4.4c-.5-.3-.5-.8 0-1.4zm-44.6-2.7c.8-.8 1.5.4.8 1.4s-.7.9-1 .1a1.8 1.8 0 0 1 .2-1.5zm10.1-6.3a1.3 1.3 0 0 1 1.2-1.2 1.3 1.3 0 0 1 1.3 1.2 1.2 1.2 0 0 1-1.3 1.2 1.2 1.2 0 0 1-1.2-1.2zm8.4-13.8c.8-.8 1.5.4.8 1.4s-.7.8-1 .1-.1-1.3.2-1.5zm66.4-14.8a1.5 1.5 0 0 1 1.2-1.6c.7 0 1.2.7 1.2 1.6s-.5 1.6-1.2 1.6a1.5 1.5 0 0 1-1.2-1.6zm-52.3-1.6c0-.4.6-.8 1.3-.8s1.6 1 .7 1.9-2-.1-2-1.1zm-98.9-18c0-.7.4-1.2.8-1.2s.8.5.8 1.2-.4 1.2-.8 1.2-.8-.6-.8-1.2zm-27.2.4a1.2 1.2 0 0 1 1-.9 1.3 1.3 0 0 1 1.1.9c.2.4-.3.8-1 .8s-1.3-.4-1.1-.8zm166.4-4.5c0-.6.3-1.2.8-1.2s.8.6.8 1.2-.4 1.2-.8 1.2-.8-.5-.8-1.2zm-58-5.6c0-.6.4-1.2.8-1.2s1.8 1.3 1.1 1.9-1.9.6-1.9-.7zm136.9-11.5c-.1-.6.3-1 1-1a1.3 1.3 0 0 1 1.3 1.3c0 1.4-1.7 1.2-2.3-.3zm-40.3-3.4a.7.7 0 0 1 .8-.8.8.8 0 0 1 0 1.6.7.7 0 0 1-.8-.8zm-80.4-22.4c-.2-.6.1-.9.8-.7a2.4 2.4 0 0 1 1.4 1.4c.2.6-.1.9-.8.7a3.2 3.2 0 0 1-1.4-1.4zM806 563a24 24 0 0 1-2.2-1.2c-.7-.4 1.8-2.6 2.8-2.6s2.8 3.1 2.2 4.2-.7.8-2.8-.4zm-101.6-17.4c-.3-.5 0-.9.7-.9s1.3.4 1.3.8a.8.8 0 0 1-.8.9 1.8 1.8 0 0 1-1.2-.8z" fill="#d0e7ce"></path><g fill="#e8392f"><path d="M102.8 418.1c-13.8 3.3-28 11.2-37 20.5a92.3 92.3 0 0 0-14.2 18.9c-3.3 6.3-8.9 24.6-10.1 32.6-3 21 4.4 40.8 20.7 55l4.8 4.2-1.6 3.9a127.1 127.1 0 0 0-4.2 14.5c-2.5 9.8-2.6 11.1-2.2 16.5 1.4 17.5 7.1 30.1 19.1 41.9 10.1 9.9 21.1 15.6 39.4 20.4 10.5 2.8 12.7 3.1 18 3.1 12.4-.2 25.8-4.3 41.7-12.7 7.3-3.9 22.5-13.9 22.8-15s.6-.5 1.2-.4 1.5 2.6 2.1 5.7c1 4.8 3.1 10.6 6.2 17.6 1.3 3 8.5 11.1 12.5 14.3s15.9 10.3 22.3 13.5 27.2 9.1 33.6 9.4c17.5.6 29-3.5 47.9-17.1 12.3-8.9 26.9-24.9 28.6-31.3.7-2.9-.5-2.6-1.8.4-3 6.9-13.3 18.4-24.2 27-7.8 6.2-21.1 14.2-26.8 16.2-18.2 6.3-40.8 2.9-63.3-9.7-11.7-6.5-16.4-10-21.8-16s-5.2-6.4-7.8-13-4.9-14.7-4.6-15.9 1.5.1 3.3.5c4.4 1.1 13.7 1.6 19.2 1.1l4.5-.4.5 2.7c1 5.2 15.7 22.2 23.4 27.2s21.1 9.1 28.5 8.6c14.9-1.1 29.7-8.2 39.2-18.8 5.9-6.6 10.6-14.5 9-14.9s-1.6 1.7-2.9 4c-4.8 8.4-14.7 17.9-22.8 21.8s-19.1 6.8-26.2 6.2c-4.9-.4-17.5-4.4-22.3-7.2-8.2-4.8-23.2-21.8-24.7-28.1-.5-2-.4-2 2.7-2.7s7.3-1.8 12.2-3.3l9.4-2.7a12.6 12.6 0 0 1 .7 2.4c1 4.1 5.7 11.3 9.6 14.5s14.1 7.7 19.4 7.8 10.7-2.6 15.5-6.7 11-11.7 12.4-15.5.1-4-1.6.2-9.9 13-15.2 16.5-9.3 4.5-12.5 3.6l-2.2-.6 2.6-.2c10-.9 22.3-12.6 25.2-23.8.7-2.8.7-4.1 0-5.1s-10-10.8-14.4-15l-3-2.7 2.9-3.4c3.5-4.3 4.6-6.1 3.8-6.3s-2.5 2.1-4.8 4.8c-8.3 9.9-22.1 20.4-33.9 25.7-9.2 4.1-29.1 9.6-36.7 10-17.8 1.2-47.7-8.3-61.6-19.4-4.1-3.2-12.6-13-16.6-19s-8.3-15.8-9.5-20.2-3.7-29.5-3.8-37.5c-.1-5.2.3-7.3 3.7-20.8s4-15.1 8.1-22.7c2.3-4.3 4.5-8.3 4.9-8.8s-.5-1.6-2 0l-1.3 1.5-.7-1.9c-.4-1.2-2.4-3.3-5.3-5.4-4.7-3.6-9.1-5.3-14.2-5.4s-14.9 10.5-17.8 21.7c-1.8 7.2-.8 12.6 3.8 20.4s8.6 10.9 14.8 13l4.5 1.5v6.4a126 126 0 0 0 .9 15.8c.2 1.3-.1 1.3-9.3-1.5-26.7-8.2-39.7-21.8-42.6-44.8-1-7.6-.5-11.2 2.5-20.1 4.2-12.3 8-18.1 15.2-23.8 4.4-3.4 13.3-7.2 18.6-7.7s5.9-1.7 2.2-1.8-13.8 2.9-19.3 6.6c-9.1 6.1-14.7 14.4-19 28.3-3.1 10.3-3 17.3.6 29.8 4.9 16.9 20.7 29.8 43.5 35.6l7.8 2 .9 7.8c.4 4.3.9 8.4 1 9.1s-1.3 1.5-7 2.6c-11.8 2.3-15.2 2.3-26.5-.6-19.1-4.9-31.6-12-43.7-24.8-3.9-4.1-10.4-15.3-12.6-21.7a58.6 58.6 0 0 1-2.7-20.5c.3-7.3 4.9-25.4 8.7-34 5.1-11.8 16.4-25.4 26.4-31.9s23.3-11.4 30.3-11.5c4.4-.2 5.3-.8 2.4-1.5s-4.4-.2-7.5.5zm8.9 75c.7 6.6 5.1 14 11.9 20.1 3.4 3.1 3.8 3.7 2.1 2.9-6.7-3-13.9-12.7-15.6-21-.8-3.8-.8-5.3.4-9.8a56.4 56.4 0 0 1 2.7-7.8c1.1-2.2 1.1-1.6-.2 5.3a53.7 53.7 0 0 0-1.3 10.3zm-39.6 60a69.6 69.6 0 0 0 6.7 3.9l3.9 1.8-1 5.8c-2.3 12.7 2.8 29.9 11.5 39.2 3.1 3.3 13.8 10.3 19.6 12.8s18.7 5.7 24 5.8c9.7.1 24.6-4 31.9-8.8l3.6-2.4 4.7 2.3a104.5 104.5 0 0 0 13.2 5l8.5 2.6-1.7 1.4c-3.8 3.2-21.6 13.8-28.7 17.1-13.1 6-23.4 8.5-34.5 8.3-6.1-.1-24.5-4.8-32.2-8.2-10.4-4.6-15.8-8.2-23.1-15.4-5.2-5.1-12.6-16.5-14.8-22.8a77.7 77.7 0 0 1-3.2-20.3c0-6.7 6.5-30.8 8.2-30.4a27.8 27.8 0 0 1 3.4 2.3zm23.8 10.8l6.4 2.1-1 3.9c-1.3 5-.9 7.6 2 13a26.1 26.1 0 0 0 6.7 8.1c4.2 3.6 4.6 3.8 11.4 5.5s7.4 1.8 11.5.9a35.7 35.7 0 0 0 10.1-4.2l5.5-3.4 5.3 6.1c4.5 5.3 7.1 7.6 15.6 13.8 1 .8.9 1-1.6 2.7s-13.1 5.9-19.8 7.2c-11 2.2-19.8 1.2-32.4-3.6-8.1-3.1-18.9-10.3-22.6-15.1-8.3-10.5-12.2-25.6-9.5-36.3l1.3-4.9 2.4 1c1.3.6 5.2 2 8.7 3.2zm9.4 13.6c1.2 4.1 4.5 9.1 8.6 12.9a14.1 14.1 0 0 0 7.1 3.8c5.6 1.4 11 1.3 14.8-.3 1.8-.8 4.6-1.8 6-2.3s2.2-.7-1.2 1.2a32.8 32.8 0 0 1-8.2 3.1c-3.8.8-5 .7-10.6-.7s-6.6-1.8-10.8-5.4-8.2-9.4-8.8-13.9a20.8 20.8 0 0 1 .6-6.2l1.1-3.9.2 4.1a55 55 0 0 0 1.2 7.6zM270 632.4c4.7 3.9 4.6 4.3-.2.9a27.3 27.3 0 0 1-8.8-10.7c-.9-2-.4-1.6 1.8 1.8a42.4 42.4 0 0 0 7.2 8zm6.8 4.6a1.7 1.7 0 0 1-1.3-.3c-.5-.3-.3-.4.5-.3s1 .4.8.6z"></path><path d="M204.2 498.1c-1.4.5-3.9 4-7 9.9-4 7.4-7.5 21.4-7 27.4 1.4 16.6 10.7 27 28.4 31.9 6.1 1.7 6.9 1.7 11.4.9 6.5-1.3 8.6-2.4 19.3-10.1 8.6-6.2 15.7-13.1 16.4-15.9s-.7-1.6-2.7 1.4-7.1 7.8-16.6 14.6-11.1 7.4-16.9 8.6c-3.1.5-5 .4-9.4-.7-6.5-1.7-14.1-5.1-17.1-7.8s-2.4-2.5 1.3-.2 12.5 5.3 17.1 5.6c6.9.4 11.9-1.1 21.2-6.4 12.5-7.2 20.2-13.8 23.9-20.7 1.4-2.5 1.5-3.2.9-4.3s-43.5-28-48.8-30.3-13-4.3-14.4-3.9zm-10.6 44.3a57 57 0 0 0 3.2 7.9c1.9 3.8 2 4 .3 1.4a38.3 38.3 0 0 1-5.4-16.8 30.6 30.6 0 0 1 .1-5.7c.2-.6.4 1.3.5 4.3a48.4 48.4 0 0 0 1.3 8.9z"></path><path d="M168.3 493.8c-3.5 2.6-7 10.8-10.4 23.7-1.8 7-2 8.9-1.7 13.7a67.1 67.1 0 0 0 4.2 19c7.2 17.4 14 25.3 29.2 33.7 6.8 3.8 8.2 4.4 18.7 7.1l11.3 3 7.4-1a56.5 56.5 0 0 0 20.8-6.6c5.7-3 23.1-16.1 28.4-21.2l5.3-5.2c.8-.7 1.1-1.4.8-1.7s-3.4 2.1-6.8 5.3c-8.6 8.1-25 20-31.6 23a59.4 59.4 0 0 1-20.5 5.1c-16.4 1.3-43.2-11.6-52.5-25.2-7.5-11-11.5-21.2-13.1-33.7-.7-4.9-.6-5.6 2.1-16.1s5.2-17 8.6-21 2.5-4-.2-1.9z"></path></g><g fill="#e8392f"><path d="M637.5 4.3c-4.6 5.4-12.9 10.7-33.3 21.2-8.8 4.6-18.5 9.9-21.4 11.5s-5.7 3.1-6.2 3.1-1.2-3-1.6-6.7-1.1-6.7-2.1-6.7c-2.7 0-43.2 30.4-49.1 36.8a33.9 33.9 0 0 0-4.8 7.1c-2.3 4.6-2 5-4.3-6.8-.6-3.2-2.8-11.4-4.8-18.1a113.5 113.5 0 0 1-4.2-21.3c-.3-4.9-.9-9-1.3-9s-3 2.3-5.8 5.2-11.2 9.9-18.7 15.5c-14.6 11-23 19.4-28.9 29-2 3.3-4 6-4.4 6a22.7 22.7 0 0 1-4.2-3.6c-3.9-4-6.2-4.6-6.2-1.7 0 1.1-3.5 9.1-7.8 17.8-11.9 24-15 32.6-15.7 43.6l-.5 9.3-2.4-9.8c-4-16.9-8.8-25.8-21-38.5-6.5-6.9-25.3-20.2-28.4-20.2-1.2 0-1.4.8-.9 3.9.8 5.2-1.3 16.1-4.4 22.7-1.4 3-5.7 9.5-9.7 14.6-16.8 21.8-19 27.4-18.4 48.2.2 7.3.8 13.9 1.3 14.6 1.6 2.6 2.5.2 1.5-4.1-1.7-7.1-.4-27.2 2.1-33.9 1.3-3.2 6.7-11.6 12.6-19.6 14.1-18.7 16.1-23 17.3-36.2l.7-7.1 9.3 6c10.2 6.6 21.4 17.9 27.1 27.3 4.8 7.9 8.2 18.3 10.1 30.8s3.4 18.5 4.5 18.5 1.1-7.6 1.3-16.8c.5-15.7.7-17.4 3.8-25.7 1.7-4.9 7.1-16.8 11.8-26.5l8.6-17.5 5.2 5.3c7.6 7.9 10.9 12.5 15.8 22.3 8.2 16.5 10.8 26.8 12.3 48.9.6 8.1.9 15.3.8 16.1s.2 1.8.7 1.9 4.7-7.4 16.4-34.6c8.3-19 16.7-31.1 29.3-42.3l7.3-6.5 4.2 11.1c10.9 29.4 15.2 61.8 10.5 79.6-1.9 7.1-1.9 9.4-.1 9.4s1.5-3.2 2.5-7.1c3.6-13.9 17.1-28.5 41-44.1 10.2-6.7 34.8-20 36.9-20s1.5 16.9-.8 30c-1.7 9.4-2.1 16.6-2.1 35v23.2l-4.1 8.2c-4.2 8.1-5.4 13.6-2.8 12.7.7-.2 2.9-4.3 4.9-9.1 4.3-10 9.1-15.8 20.8-25.2s21.8-15.4 40-22.7l17.2-6.7c.9 0 .1 9.3-1.7 22.2-4.6 31.5-18 70-31 89.3-4.6 6.8-16.3 18-21.2 20.4s-4.6 3.3-2.2 3.3 10.9-6.2 18.5-14.3 9-10.7 14.6-22.1c3.7-7.6 8.4-18.2 10.5-23.9 4.9-13.5 11.2-38.5 13.3-52.9 1.7-12.2 2.1-26.1.8-26.1a7.3 7.3 0 0 0-3 1.5c-2.7 1.9-17.4 7.8-19.4 7.8s-1.5-2.4-1.5-14.3c0-15.1-1.8-31.3-5.7-51.2-1.3-6.9-2.7-15.3-3.1-18.7-1.1-9.8-1.6-10.1-8.3-3.5l-5.6 5.5V65.3c0-12.6-3.5-52.6-5.2-60-.7-3-1.7-5.4-2.4-5.3s-2.7 2-4.7 4.3zm6.1 9.3c3 23.1 4.6 61.7 2.5 63.7a70.3 70.3 0 0 1-9 4.6c-7.8 3.6-8.1 3.7-7.3 1.4 4.6-14.7 4.8-16 4-39.9-.3-12.5-1.1-23.1-1.6-23.4s-2.9.7-5.3 2.4c-5.6 3.8-24.1 15.3-32.8 20.3a95.9 95.9 0 0 0-10.5 6.9l-3.9 3.1-1.1-2.8c-1.4-3.9-1.2-6.2.9-8s10.3-6.1 20.8-11.6c26.2-13.8 29.5-15.8 35.5-21.3 2.9-2.6 5.6-4.6 6-4.4s1.1 4.3 1.8 9zM503.6 27c.3 3.5 2.4 13.2 4.7 21.4s4.9 19.9 5.8 25.8l1.7 10.7-5 5.1-5.1 5-.8-7.5a99.6 99.6 0 0 0-4.3-17.9c-4.9-14-5.4-16.5-5.5-23.9 0-3.5-.3-6.6-.7-7s-3.8 2.3-7.6 5.8-10.4 9.6-14.6 13.3-8.8 8.8-11.5 14.1-3.8 8.1-3.9 9.2-.8.9-3.6-2.2-3.5-4.8-3.5-5.7 1.3-3.8 2.9-6.2c6.2-9.8 13.9-17.6 27.2-27.7 7.5-5.7 15.6-12.2 17.8-14.5a45.6 45.6 0 0 1 4.8-4.2c.3 0 .9 2.9 1.2 6.4zm69.4 8.8c.9 7.1 4.8 19.3 11.2 34.8s8.1 24 8.3 36.8c.1 7.3.4 10.1 1.4 10.1a1.3 1.3 0 0 0 1.3-1.3c0-2 13.1-16.6 18.2-20.3a101.9 101.9 0 0 1 14.4-7.4c14.6-6.1 21.2-9.6 27.4-14.6l5.6-4.6 1.3 8.9c.7 4.9 2.2 13.4 3.3 19a278 278 0 0 1 5.1 49.3v13l-6.2 2.7c-3.4 1.5-6.2 2.3-6.2 1.8a25.6 25.6 0 0 1 1.7-4.8c1.4-3.3 1.6-6.5 1.1-18.4a203.7 203.7 0 0 0-2.2-23.3 109.5 109.5 0 0 1-1.6-16.7c0-5.1-.4-8-1.2-8s-15.7 12.9-25.3 22.4l-5.5 5.4v-8.7c0-4.9-.4-8.8-.8-8.8-2.1 0-31.1 15.9-40.6 22.3l-11.2 7.4c-.3.1-.4-4.3-.2-9.9a93.7 93.7 0 0 0-5.6-35.1C561.1 73 560 69.4 559 62.9a47.9 47.9 0 0 0-1.6-7.4c-.7-1.2-19.8 18.4-23.2 23.8l-2.9 4.6-1.7-4.3c-.9-2.4-2.2-4.4-2.8-4.4S524 77 522 79s-3.8 3.5-4.1 2.1 4-11.8 7.5-15.9 44.2-35.2 46.2-35.3c.4-.1 1 2.6 1.4 5.9zm10.8 25.4c0 1.2-.5.6-2-2.5s-1.1-2.5.4-.6a7.5 7.5 0 0 1 1.6 3.1zm-83 16.3c2.3 8.9 2 21.3-.6 25.1s-9.9 18.1-16.5 33.7-9 19.5-7.8 13.3c.8-4.1 17.5-39.7 22.1-47s4.1-15.8-1.4-32.1a52.7 52.7 0 0 1-2.5-9.3c0-2.6 4.8 9 6.7 16.3zm87-6.9c0 .5-.9-.6-1.9-2.6a19 19 0 0 1-2-4.6c0-.6.9.6 2 2.5a20.1 20.1 0 0 1 1.9 4.7zm43.9-3.9c-1.3 6.4-4.7 17-5.2 16.5s.5-4 1.7-8.1l2.7-9.5c.8-2.9 1.5-2 .8 1.1zm-41.7 9c0 .6-.5.4-1-.5a5.6 5.6 0 0 1-1.1-2.6c0-.5.5-.3 1.1.6a6.8 6.8 0 0 1 1 2.5zm2.8 11.1c-.3.8-.6.6-.6-.6s.2-1.7.5-1.4a2.3 2.3 0 0 1 .1 2zm32.8-.4c-1.3 1.1-6.7 3.3-6.7 2.8s1.3-1.2 2.9-2c3.1-1.7 5.4-2.2 3.8-.8zm-57.8 13.7c2.6 12.3 1.5 12.3-1.6-.1-1.7-6.5-3-12.3-3-12.9.2-2.3 3.2 6.2 4.6 13zm26-8.1c-.3.7-.5.2-.5-1.3s.2-2 .5-1.3a3.9 3.9 0 0 1 0 2.6zm1.1 5.7c-.3 1-.6.4-.6-1.3s.3-2.6.6-1.8a8 8 0 0 1 0 3.1zm1 9.3c-.2 1.5-.4.5-.4-2.4s.2-4.1.4-2.8a22.6 22.6 0 0 1 0 5.2zm-25.8 7.6c-.3.9-.6.7-.6-.6s.2-1.6.5-1.3a2 2 0 0 1 .1 1.9zm-23.5 26.2a50.7 50.7 0 0 1 .2 13.4c-.9 4.9-1 4.7-1.1-3.7 0-4.9-.4-11.2-.7-14s-.5-4.8-.1-4.5 1 4.2 1.7 8.8zm12.7 3.3c-5.7 5.5-9.9 9.1-9.3 8 1.7-3.2 18.3-19.4 19.1-18.7s-4.1 5.2-9.8 10.7zm95.6 21.3c-.7 1.5-1.6 2.7-2.1 2.7s-21 15.1-26.2 20.2c-2.5 2.5-5 4.6-5.4 4.6s8.6-9.3 19-17.1c6.2-4.7 12.2-9.8 13.2-11.3 2.2-3.4 3.2-2.8 1.5.9z"></path><path d="M369.2 95.4a14 14 0 0 0-1.1 4.1c0 .8-3.5 8.3-7.8 16.7l-7.8 15.3.4 11.6c.2 6.9.9 12.1 1.6 12.8s2.2.7 1-5.3c-1.6-8.9-.5-19.3 2.6-25.3s3.5-5.9.7 1.3-2.8 22-.4 29.9c1.7 5.7 3.8 7.7 10.4 10s21.3-1.7 22.6-5.7c.3-1.1 1.2-2 1.9-2 2.2 0 2.7-2.5 2.7-13.3s-1.6-18-7.3-29c-4.2-7.9-15.8-23.7-17.6-23.7s-1.4 1.2-1.9 2.6zm18.6 24.2a60 60 0 0 1 6.1 26.8c0 13-1.7 11.7-2.3-1.7-.6-11.8-2.9-21.6-6.9-29.1-.7-1.3-.9-2.2-.6-2.2s2 2.8 3.7 6.2z"></path><path d="M441.1 93.6c-.2.4-1 2.5-1.7 4.6s-3.7 9.1-6.7 15.5-5.7 13.6-6.1 16.2c-1 6.8.8 21.4 2.8 23.5s2.9 3.3 4.4 5.2c3.6 4.5 7.7 6.5 11.9 5.8 9.1-1.6 10.4-4 11.1-21.1.4-10.3.7-11.9 1.3-8.2 1.3 7.9.9 18.4-.7 22.4s-1.8 4.4-.4 4.4 1.7-1.7 2.6-3.9 1.5-6.3 1.1-15.7c-.7-13.9-3.1-23.6-9.2-35.8s-8.9-15.6-10.4-12.9z"></path><path d="M517 101.4c-4.9 5.6-14.4 20.4-18 28.1s-3.4 8.3-3.7 18.5l-.4 11.4 3.4 3.7c7.6 8.1 19.3 10.5 25 5.1 1.9-1.7 2.6-1.9 3-.9s3.8-4.9 4.5-10.8a90.2 90.2 0 0 0-.6-15.7c-1.1-10.5-7.8-40.6-9.3-42.1s-2.2.8-3.9 2.7z"></path><path d="M596.7 134.4a203.1 203.1 0 0 1-17.1 15.4c-13.4 10.4-22.5 24-18.6 27.9a4.9 4.9 0 0 1 1.1 3.3c0 3.9 7.9 9.7 15.2 11.3 5 1.1 11.7-1.2 15.4-5.2 1.8-2 4.7-7.1 6.5-11.5s3-6.5 2.7-4.4c-1 5.7-6.5 16.7-9.4 19.2s-1.6 4.2 1.8 1.5 8.7-14.5 10.8-23.5 3.3-42.6 1.3-42.6-5.2 4-9.7 8.6zm8.5 10.2c-.2 3-.3.8-.3-4.9s.1-8.1.3-5.4a88.4 88.4 0 0 1 0 10.3zm-2.1 21.6q-.5 1.4-.6-.6c-.1-1 .2-1.6.5-1.3a2 2 0 0 1 .1 1.9z"></path><path d="M676.2 171.9c-1.7 1.4-8 5.5-14 9.3s-13.8 9.2-17.4 12c-7.7 6.2-19.5 19.7-22.7 26.1s-4 18-2.2 24.6c1.1 4.1 1.7 4.8 4.5 5.3a40.9 40.9 0 0 0 9.9-.6c3.6-.5 6.8-.9 7-.6s-1.4 1.4-3.5 2.8-3.5 2.4-2.2 2.7 11.9-6 19.9-13.3c11.2-10.2 16.2-20.5 21.6-44.8 2.9-12.9 4.3-24.8 3-25.6s-2.2.6-3.9 2.1z"></path></g><path d="M279.5 88.4c-16.9 1-24.5 2-37.4 5l-5.9 1.1-6.2 1.3a33 33 0 0 1-4.7.8c-1.2.1-2.3.4-2.5.8a3.4 3.4 0 0 1-1.7.7 32.1 32.1 0 0 0-5.8 1.7 26.6 26.6 0 0 1-4.9 1.3c-.1-.2-.9.1-1.6.6a4.4 4.4 0 0 1-2.3.9c-.6 0-1.1.2-1.1.6s-.5.5-1.1.5a9.8 9.8 0 0 0-3.6 1c-6 2.7-8.9 3.8-9.7 3.6s-1.8.7-3.3 1.8a26.9 26.9 0 0 1-3.5 2c-1 .1-8.7 4.1-9.2 4.6a5.6 5.6 0 0 1-2.1 1.2l-2.8 1.4-2.2 1.1c-2 .9-8.6 5.2-8.8 5.8a1.3 1.3 0 0 1-.9.5 6.2 6.2 0 0 0-2.4 1.5 6.1 6.1 0 0 1-2.2 1.6c-.3 0-.9.7-1.4 1.5s-1 1.6-1.3 1.6a15.2 15.2 0 0 0-3 2.4 16.7 16.7 0 0 1-2.8 2.5c-.7 0-5.9 5.3-5.9 6.1s-.3.6-.6.4-.6.1-.6.6-.8 1.3-1.9 1.9-1.8 1.4-1.8 1.9-.3.7-.6.5-.7-.1-.7.3-.5.8-1.2 1-1.2.7-1.2 1.1-1.3 2.2-2.8 3.9a39.6 39.6 0 0 0-2.8 3.4 36.9 36.9 0 0 1-3.7 4.2c-2 2.2-3.5 4.2-3.4 4.4s-.1.8-.6 1.2-4 6.4-4 7.5a2 2 0 0 1-1.1 1.5c-1.1.7-6.3 10.5-6.3 11.8s-.6 1-1.3 1.5a4.9 4.9 0 0 0-1.5 2.4 10.4 10.4 0 0 1-1.8 3.2 24.4 24.4 0 0 0-4.1 6.5c-.3.8-.9 1.5-1.2 1.5s-.6.1-.6.4-.9 4.3-2.1 5.9a8.5 8.5 0 0 0-1.2 2.9c-.1.7-.3 1.3-.5 1.3s-.9 1.3-1.5 2.9c-1.2 3.4-1.9 5.1-2.8 7.1a5.4 5.4 0 0 0-.3 2.8c.1.7 0 1.5-.3 1.7a.6.6 0 0 0-.3.9c.2.4.1.6-.2.6s-.9 1.2-1.3 2.6c-1.3 5.4-2.1 8.3-3 10.2a5.3 5.3 0 0 0-.5 2.7 2.1 2.1 0 0 1-.3 1.8 45.3 45.3 0 0 0-2.1 8.7 12.1 12.1 0 0 1-.5 1.8c-.5 1.7-1.8 7.2-2 8.6a14.1 14.1 0 0 1-.9 3.2 6.2 6.2 0 0 0-.5 2.7 1.4 1.4 0 0 1-.2 1.4c-.3.3-.7 2.4-.8 4.6s-.6 6-1 8.5-.5 10.5-.3 19.8.4 15.7.3 16.3a83.9 83.9 0 0 0 .2 9.7c.2 2.9.6 6.4.8 7.8s.3 4.5.3 6.8a68.4 68.4 0 0 0 .6 8.1c.3 2.1.7 4.7.8 5.6a56.8 56.8 0 0 0 1.7 8.2 54 54 0 0 1 .8 6.2 40 40 0 0 0 1 6.8c.3 1.1.7 2.7.8 3.4a50.5 50.5 0 0 0 2.7 8.1 12.5 12.5 0 0 1 .8 2.8 21.6 21.6 0 0 0 1.8 4.5 36 36 0 0 1 2.1 5.9c.7 3.3 8.1 18.7 10.1 20.9a7.3 7.3 0 0 1 1.7 2.9 24.1 24.1 0 0 0 2.5 4.5 47.2 47.2 0 0 1 3.7 6.1c.9 1.8 2.3 3.7 3.2 4.2a3.2 3.2 0 0 1 1.5 1.9c0 .5.3.9.6.9s.6.4.6.9a1.5 1.5 0 0 0 1.1 1.2c1 .3 3 3 4.8 6.2a28.3 28.3 0 0 0 3.5 4.1 29.4 29.4 0 0 1 3.9 4.8c.7 1.1 1.4 2 1.7 2a43.1 43.1 0 0 1 5.1 4.6c2.5 2.5 5 4.6 5.5 4.6s1.2.7 1.6 1.5a5.9 5.9 0 0 0 2.4 2.3 20.6 20.6 0 0 1 3.1 2.3 5.2 5.2 0 0 0 2.4 1.3 5.4 5.4 0 0 1 2.3 1.5 18.8 18.8 0 0 0 5.1 3.2l4.6 2.2a6.3 6.3 0 0 0 2 .6 13.4 13.4 0 0 1 3.9 1.5 16.3 16.3 0 0 0 4 1.6 20.3 20.3 0 0 1 4.1 1.2c8.6 3.3 26.1 6.7 39 7.7a30.6 30.6 0 0 1 5.9.9 51.5 51.5 0 0 0 7.3.9 26.8 26.8 0 0 1 5.5.8 35.6 35.6 0 0 0 7.7.8 15.9 15.9 0 0 1 3.9.9 7 7 0 0 0 3 .7c.7-.4 5.7 1 5.7 1.5s2.9 1.4 4.6 1.5a15.7 15.7 0 0 1 3.5 2.1 13.8 13.8 0 0 0 3.6 2 .6.6 0 0 1 .6.6c0 .4 1.2 1.9 2.6 3.3a107.3 107.3 0 0 1 10.4 12.1c1.6 2.1 3.6 7.7 3.2 8.9a1.5 1.5 0 0 0 .4 1.2 15.9 15.9 0 0 1 1 3.9 18.8 18.8 0 0 0 1.3 5.1c.9 1.9 1.3 3.7 1.9 9.9.2 1.8.6 3.2.9 3.2s1.1 1.5 1.6 4.2a7.2 7.2 0 0 0 1.1 3.1 25.3 25.3 0 0 1 2.5 6.6c.1 1.1 1.2 3.3 4.1 8.3a10.8 10.8 0 0 1 1.2 3.6 2.5 2.5 0 0 0 1.2 2 2.1 2.1 0 0 1 1.2 1.5 4.5 4.5 0 0 0 1.6 2.3 4.2 4.2 0 0 1 1.5 2.3 3.5 3.5 0 0 0 1.1 1.9 14.5 14.5 0 0 1 2.5 3.1 30.2 30.2 0 0 0 2.9 4.1 9.5 9.5 0 0 1 1.6 2.3c0 .7 3.4 4.1 4.1 4.1s.9.7 1.3 1.6 7.5 8.9 8.5 8.9 1.8 1 2.9 2.1a29.4 29.4 0 0 0 5.1 3.8 38.5 38.5 0 0 1 4.3 2.9 28.7 28.7 0 0 0 4 2.5 11.7 11.7 0 0 1 3.5 2.2c.4.5 1 .8 1.3.6s2.1.5 4.1 1.7a52.7 52.7 0 0 0 6.4 3.1 10.2 10.2 0 0 1 3.3 1.5c.4.5 10.5 4.3 13 4.8a13 13 0 0 1 3.2 1.5 6.2 6.2 0 0 0 2.9 1.1 23.5 23.5 0 0 1 4.5 1.2 31.5 31.5 0 0 0 6.4 1.6c1.7.3 3.4.7 3.8 1.1s1 .5 1.2.3 1.2 0 2.3.6a12.2 12.2 0 0 0 3.4 1.1l4.7.7a22.5 22.5 0 0 0 3.6.3 17.1 17.1 0 0 1 3.2.8 8.8 8.8 0 0 0 3.9.6 4.3 4.3 0 0 1 2.5.3 23.4 23.4 0 0 0 6.7 1l8.9.7c5 .6 47 .7 47.3.1a11.2 11.2 0 0 1 4.1-.1 22.1 22.1 0 0 0 4.5.3l6.9-.3c3.5-.1 6.8-.5 7.3-.8s2.2-.4 3.6-.2a9.3 9.3 0 0 0 2.9.3c.6-.3 12-1.6 17.2-1.9 2.9-.1 5.6-.5 6-.9a6.3 6.3 0 0 1 2.5-.7l2.4-.4a12.9 12.9 0 0 1 3.5-.5 26.9 26.9 0 0 0 5.3-.8l4.8-1a8.9 8.9 0 0 0 3.4-1.1c.5-.4.8-.6.9-.5s1.5-.2 3.3-.8a39.2 39.2 0 0 1 5.2-1.3 4.9 4.9 0 0 0 2.6-.9 3.4 3.4 0 0 1 2-.6c.9 0 1.5-.2 1.5-.5s1.1-.7 2.4-.9a7.3 7.3 0 0 0 3.4-1.3 4.3 4.3 0 0 1 2.1-1.1c3.5-.1 9.3-2.3 9.9-3.8a6.4 6.4 0 0 1 2.6-.8c1.3-.3 2.4-.7 2.4-.9s.9-.7 2-.9 3.4-1.1 6.9-3.5a9.7 9.7 0 0 1 3.1-1.8c1.3 0 7-3.1 8.4-4.5a4.7 4.7 0 0 1 2.6-1.6c.6 0 1.1-.3 1.1-.6s.7-.7 1.4-.9a9.9 9.9 0 0 0 2.7-1.4 27.5 27.5 0 0 1 3.7-3c6-4.4 18.8-19.1 18.8-21.5a3.3 3.3 0 0 1 .9-1.6 38.5 38.5 0 0 0 2.8-6.3c1.1-2.9 2.3-5.7 2.6-6.3a5 5 0 0 0-.5-5.1c-1.1-1.5-1.1-2.3-.1-1.9s.8-1.4.7-7-.4-8.1-2-13a56.3 56.3 0 0 0-4.2-9.5 13.5 13.5 0 0 1-2.5-7.7c-.2-2.5 0-4.2.5-4.8a1.5 1.5 0 0 0 .3-1.5c-.5-.8.9-5 1.6-5s.5-.4.5-.9 7.4-9 8.4-9a10.6 10.6 0 0 0 3.1-1.2c4.2-2.1 7.6-2 13.1.4a10.7 10.7 0 0 0 2.7.8 9.5 9.5 0 0 1 2.8 1.6c1.1.9 2.1 1.4 2.1 1.2s.8.2 1.8.9a7.1 7.1 0 0 0 2.7 1.3c.6 0 1 .2 1 .5s5.2 5.7 9 8.5a20.6 20.6 0 0 1 3.3 2.8.9.9 0 0 0 .8.5c.6 0 1.8.9 5.3 3.8a2.8 2.8 0 0 0 1.4.6.5.5 0 0 1 .6.6c0 .3.7.8 1.6 1s1.5.5 1.5.8 3.7 1.9 5.1 1.9a2.6 2.6 0 0 1 1.7.9c.4.5 1 .8 1.3.6s1.1.1 1.9.6a16.2 16.2 0 0 0 4.6 1.3l5 .6c2 .3 15 .9 26.3 1.2 4 .1 7.4 0 7.6-.3s1-.4 2-.2c3.7.8 14.2.1 17.5-1.2a15.1 15.1 0 0 1 3.4-.6 69.2 69.2 0 0 0 7.4-1.6l5.7-1.5c.4 0 .8-.2.8-.6s.2-.4.6-.1.6.1.6-.3.9-.7 2-1a11.9 11.9 0 0 0 3.2-1.3 4.3 4.3 0 0 1 2.1-.8c2.4 0 13.7-9.7 17.2-14.9a40.6 40.6 0 0 1 3.3-3.7 12.4 12.4 0 0 0 2.8-3.8 22.6 22.6 0 0 1 1.8-3.3 10.2 10.2 0 0 0 1.8-3.4 8.4 8.4 0 0 1 1.6-2.9c.7-.8 1.2-1.4 1-1.4a8.1 8.1 0 0 1 .7-2.4 84.8 84.8 0 0 0 3.5-12.8 4.3 4.3 0 0 1 .6-2c1.6-2.5 2.3-24.2 1.1-32.6-.3-2.4-.6-8-.6-12.6-.1-6.8.1-8.7 1.1-10.9s1.1-2.7.9-2.7a5.3 5.3 0 0 1 1-1.8 6.6 6.6 0 0 0 1.2-2.5.7.7 0 0 1 .7-.7.6.6 0 0 0 .6-.6c0-1 4.3-6.8 5.1-6.8s.5-.2.3-.4 1.1-2.1 2.2-2.1 1.2-.7 1.4-1.5.6-1.4.8-1.4 3.3-1.5 4.4-2.6 7.4-5.9 7.9-5.9a5 5 0 0 0 1.8-1.4 5.6 5.6 0 0 1 2.4-1.4c.4 0 .9-.3.9-.7s.2-.5.4-.3.8-.2 1.2-.8a10.1 10.1 0 0 1 2.9-2.3 15.9 15.9 0 0 0 3.6-2.8 5.1 5.1 0 0 1 2.3-1.7.7.7 0 0 0 .7-.6.8.8 0 0 1 .9-.7 4.4 4.4 0 0 0 2.2-1.6c.7-.9 1.2-1.4 1.2-1.1s.4-.1.8-.9 1.1-1.5 1.4-1.5 2.8-1.7 2.8-2.7a.9.9 0 0 1 .9-.8c.9 0 2.6-2.4 2.3-3.3s.3-.4.9-.4 1.6-1 2.4-2.3a13.4 13.4 0 0 1 2.1-3.1c.5-.4.7-.8.4-.8s0-.5.8-1a6.9 6.9 0 0 0 1.9-2.3l1.2-2.3c.9-1.4 2.6-5.5 2.4-5.7s.4-.9 1.1-2a15.7 15.7 0 0 0 2.2-4.5c.5-1.4 1.1-2.4 1.4-2.2s.2 0 0-.6-.1-1 .3-1a.6.6 0 0 0 .6-.8 4.5 4.5 0 0 1 .6-2.2c.4-.7.6-1.4.4-1.4s-.1-.4.4-1a5.5 5.5 0 0 0 1-2.2c.1-.7.9-3.3 1.7-5.8a37.2 37.2 0 0 0 1.8-7.2 16.3 16.3 0 0 1 .6-3.5 50.5 50.5 0 0 0 1.3-10.2c.2-2.8.5-6.1.6-7.5s-.2-6.3-.8-11.1c-.9-6.5-1.6-9.6-2.9-12.5s-2-3.9-2.3-3.9a6.5 6.5 0 0 1-1.7-2.3 7.7 7.7 0 0 0-3.4-3.5 8.9 8.9 0 0 1-3.1-2.5c-.6-.8-1.5-1.6-2-1.6a6.4 6.4 0 0 1-2.5-.8c-2.8-1.5-15.4-4.8-21.8-5.7-4.2-.6-15.7-.7-16.1-.1s-1.1.2-2-.1a10.1 10.1 0 0 0-4-.4c-1.2.2-5.7.5-10 .7-9.4.4-10.6.6-17.3 1.9a60.3 60.3 0 0 1-6.5 1.1c-2.6.3-6.2 1.2-6.9 1.7a1.1 1.1 0 0 1-1.3.3.6.6 0 0 0-.9.4c-.3.5-.4.5-.4 0s-.6-.5-2.2.2a15 15 0 0 1-3.9.8 18.6 18.6 0 0 0-4.5 1c-1.5.5-5.4 1.7-8.6 2.5l-8.1 2.2a30.6 30.6 0 0 1-4.1 1 4.3 4.3 0 0 0-2.4.8 2.4 2.4 0 0 1-1.7.6 3.4 3.4 0 0 0-2 .5 80.2 80.2 0 0 1-8.9 3.2c-4.6 1.4-10.2 3.4-12.4 4.4a29.1 29.1 0 0 1-4.9 1.8c-1.4 0-5.6 1.5-5.6 2s-.4.4-.9.2-.9 0-.9.3-.5.6-1 .6c-2.4 0-12.5 3.4-13.3 4.4s-10 3-10.5 2.6a.6.6 0 0 0-.7.4c-.3 1-3 1.3-10.1 1.4-3.1 0-5.7.3-5.9.7s-.7.4-1.3 0-2-.7-3.6-.8c-5.1-.2-12-1.5-14.5-2.6a21.6 21.6 0 0 0-4-1.4c-.9-.2-3-1.7-4.8-3.5a20.2 20.2 0 0 0-3.7-3.1 3.1 3.1 0 0 1-1.2-1c-1.1-1.5-5.8-11-5.8-11.9a.7.7 0 0 0-.6-.7c-.3 0-.4-.4-.2-.9a3.1 3.1 0 0 0-.5-2.3 16.3 16.3 0 0 1-.9-4.8 63.4 63.4 0 0 0-.8-7.2 35.3 35.3 0 0 1-.1-8c.5-4.9.5-5.9-.2-7a15.4 15.4 0 0 1-.5-4.8 15.4 15.4 0 0 0-.5-5.2c-.4-.6-.7-3.4-.8-6.3a23.5 23.5 0 0 0-.5-5.7 11.1 11.1 0 0 1-.8-3.4 26.5 26.5 0 0 0-1.8-6.8c-2.4-6.3-3-8.2-3.2-10s-1.6-4.2-2.3-4.2-.5-.5-.5-1.1a16.5 16.5 0 0 0-1.5-4.2 16.9 16.9 0 0 1-1.6-4.3 5.8 5.8 0 0 0-1.5-2.9 11.7 11.7 0 0 1-2.1-3.8 12.9 12.9 0 0 0-1.9-3.9 6 6 0 0 1-1.3-2.5c0-.4-.3-.8-.6-.8s-.9-.8-1.3-1.7c-1.8-4.4-2.7-5.8-5.7-8.9a3.9 3.9 0 0 1-1-1.7c0-1.2-10.6-12.1-14.1-14.5l-3.7-2.8a9 9 0 0 0-3-1.7 7.5 7.5 0 0 1-2.7-1.2 9.1 9.1 0 0 0-2.8-1.2 12.3 12.3 0 0 1-2.7-1.1c-.7-.6-6.4-1.9-7.8-1.7l-10.8.4c-10.8.3-12.3.4-16.7 1.1s-20.7 1.7-24.3 1.7c-.9 0-1.7.2-1.7.5s-7.2 1.5-16.4 2.1a11.1 11.1 0 0 0-3 .5 13.1 13.1 0 0 1-3.8.4c-2.6 0-5.5.4-5.5.7l-2.2.4-8.9 1.2a32.9 32.9 0 0 1-4 .3 16.2 16.2 0 0 0-4 .7 1.4 1.4 0 0 1-1.8 0 1.3 1.3 0 0 0-1.7-.1 6.5 6.5 0 0 1-2.9.6c-.9 0-4.9.5-8.9 1.1a62.2 62.2 0 0 1-11.2.9c-2.3-.1-4.2 0-4.2.3s-1 .4-2.3.3l-9.1-.4c-8-.3-12.2-.8-12.6-1.4s-5.8-4.5-6.4-4.5a14.7 14.7 0 0 1-3.1-1.7 56.6 56.6 0 0 1-7.3-5.9 29.6 29.6 0 0 0-4.3-3.3c-1.5-1.1-3.7-2.8-4.9-3.9a8.5 8.5 0 0 0-3-1.9.7.7 0 0 1-.7-.8c0-.4-.8-1.2-1.9-1.9s-1.8-1.3-1.8-1.6-.3-.6-.7-.6a8.2 8.2 0 0 1-2.5-1.9 6.9 6.9 0 0 0-2.8-1.8 2.2 2.2 0 0 1-1.3-.9c-.5-.9-10.3-7.2-11.2-7.2s-.7-.5-1.1-1.1-2.8-2.2-5.4-3.5-4.7-2.5-4.7-2.8-1.5-1.2-3.4-2.1a68.8 68.8 0 0 1-6.6-3.5 14.2 14.2 0 0 0-3.9-1.8 1.3 1.3 0 0 1-1-.4c-.4-.8-11.3-6.1-12.1-5.9a5.9 5.9 0 0 1-2.9-1.2 5.3 5.3 0 0 0-3.5-.9c-.6.3-1.2.2-1.2-.1s-2.5-1.8-4.7-2.2-5-1.2-5.6-1.7a16.2 16.2 0 0 0-5.1-.8 25.2 25.2 0 0 1-5.5-.9 6.6 6.6 0 0 0-2.6-.6 26.5 26.5 0 0 1-4.5-.3c-1.8-.3-3-.2-3.3.2s-.5.5-.9-.1-15.7-1.1-27.8-.5zm66.7 14.2a.9.9 0 0 1-.8.7 1.1 1.1 0 0 1-.9-.7c-.1-.3.3-.6.8-.6s1 .3.9.6zm-64.4 6.9a1.2 1.2 0 0 1-1 .8 1.2 1.2 0 0 1-1.1-.8c-.2-.4.3-.7 1.1-.7s1.2.3 1 .7zm50.3 11.6c0 .4-.2.6-.3.6s-.4-.2-.7-.6-.1-.6.3-.6a.7.7 0 0 1 .7.6zm-70.5 2.5c0 .3-.4.6-.9.6s-1-.3-1-.6.5-.6 1-.6.9.3.9.6zm36.5 14.8q0 .6-.3.6c-.2 0-.4-.2-.7-.6s-.1-.6.3-.6a.7.7 0 0 1 .7.6zm97.6 3.7a.6.6 0 1 1-1.2 0 .6.6 0 1 1 1.2 0zm-46 1.5c1.3 1 .8 2.2-1 2.2s-1.2-.4-1.2-1.5.5-1.9 2.2-.7zm45.7 1a.6.6 0 0 1-.3.9c-.3.2-.6 0-.6-.5s.3-1.3.9-.4zm.9 2.8c0 .5-.3.9-.6.9s-.6-.4-.6-.9.3-.9.6-.9.6.4.6.9zm-237.4.3c.5.3.8.7.7.9s-.9-.1-1.5-.6-.6-1.3.8-.3zm182.1.6a.6.6 0 0 1-.3.9c-.3.2-.6 0-.6-.5s.4-1.3.9-.4zm-178.3 4c0 .5-.3 1-.6 1s-.6-.5-.6-1 .3-.9.6-.9.6.4.6.9zm367.4 1.6a1.3 1.3 0 0 1-.9.6.6.6 0 0 1-.6-.6c0-.4.4-.6 1-.6s.8.2.5.6zm34.3 1.8a.5.5 0 0 1-.6.6.6.6 0 0 1-.6-.6.6.6 0 0 1 .6-.6.6.6 0 0 1 .6.6zm-8.1 5.5c.1.4-.2.7-.8.7a.9.9 0 0 1-.9-1c0-1.1 1.3-.9 1.7.3zm-219.9 2.4c0 1-3 3-3.6 2.4s2.8-3.5 3.3-3.5.3.5.3 1.1zm69.2 5.7c0 .4-.4.6-.9.6s-.9-.2-.9-.6.4-.6.9-.6.9.3.9.6zm-14.8 1.3a.6.6 0 0 1-.6.6.7.7 0 0 1-.7-.6.7.7 0 0 1 .7-.7.7.7 0 0 1 .6.7zm159.4.6a.6.6 0 1 1-.6-.6.5.5 0 0 1 .6.6zm-77.2 1.6c0 1.2-1.7 1-2-.3s-.1-1.1.8-.9 1.2.7 1.2 1.2zm-145.9.9c0 .3-.5.6-1.2.6s-1.3-.3-1.3-.6.6-.7 1.3-.7 1.2.3 1.2.7zm146.5 5.2c0 .6-.3.8-.6.6a1.1 1.1 0 0 1-.6-.9.5.5 0 0 1 .6-.6c.3 0 .6.4.6.9zm65.2 5.2c0 1.1-1.2.9-1.5-.3s.1-.9.7-.7a1.2 1.2 0 0 1 .8 1zm-109.2.6c.1.4-.2.7-.8.7a.9.9 0 0 1-.9-1c0-1.1 1.3-.9 1.7.3zm62.5-.2c0 .5-.3.9-.6.9s-.6-.4-.6-.9.3-1 .6-1 .6.5.6 1zm-234 2.4c-.2.5-.6.8-.9.6s-.1-1.5.7-1.5.4.4.2.9zm71.5 3.2c0 .5-.3.8-.6.5a1.2 1.2 0 0 1-.7-.9c0-.4.3-.6.7-.6s.6.4.6 1zm-76 3.3a4.9 4.9 0 0 0 .3 1.5c.3.7 0 1-.8 1s-2.2-.8-1.6-2.1 2.1-1.4 2.1-.4zm-89.2 7c-.4 1.1-1.7 1.3-1.7.2a.9.9 0 0 1 1-1c.6 0 .9.3.7.8zm193.5.3c-.3 1.3-1.3 1.2-1.6-.2a.7.7 0 0 1 .8-.9c.6 0 .9.4.8 1.1zm141 4.8a.9.9 0 0 1-.8.9c-1.1 0-1.8-.9-1.2-1.5s2-.3 2 .6zm53.8 0a.9.9 0 0 1-.9.9c-1 0-1.3-.7-.5-1.5s1.4-.4 1.4.6zM331.4 208a.9.9 0 0 1-.9.9c-.9 0-1.3-1.3-.5-2.1s1.4.2 1.4 1.2zm110 2.3c.1.9-.2 1.1-1.3 1a2.1 2.1 0 0 1-1.6-1.4c-.2-.9.1-1.1 1.2-.9a2.1 2.1 0 0 1 1.7 1.3zm108.2.1a.9.9 0 1 1-1.8 0 .9.9 0 1 1 1.8 0zm-340.9 3.7a1.6 1.6 0 0 1-1.4.9c-.9 0-.8-.1.2-.9s1.6-1.1 1.2 0zm221.8.8c1.6 1.5 1.3 2-1.1 2s-2.8-.9-1.4-2.3 1-1 2.5.3zm-16.9.2a.6.6 0 0 1-.6.6c-.4 0-.5-.3-.3-.6s.5-.7.7-.7.2.3.2.7zm47.3 1.8a.7.7 0 1 1-.3-.9.6.6 0 0 1 .3.9zm-15.7.6c0 .7-1.2 1.5-1.7 1.1s.4-1.7 1.1-1.7a.6.6 0 0 1 .6.6zm-25.4.7c0 .3-.4.6-.9.6s-.9-.3-.9-.6a.9.9 0 0 1 1.8 0zm158.1 3.2a1.2 1.2 0 0 1-2.2 0c-.1-.5.3-.8 1.1-.8s1.3.3 1.1.8zm-209.4 3.2a.9.9 0 1 1-1.8 0 .9.9 0 1 1 1.8 0zm144 1.5a1 1 0 0 1-1.3 1c-.6-.5-.1-1.5.8-1.5a.5.5 0 0 1 .5.5zm38.8 2.1c-.4 1.1-1.7 1.3-1.7.2a1 1 0 0 1 1-1c.6 0 .9.3.7.8zm-148.2 3.2c0 .2-.2.4-.6.7s-.6.1-.6-.3a.7.7 0 0 1 .6-.7q.6 0 .6.3zm-11.7 1.6a1.3 1.3 0 0 1-.6.9.6.6 0 0 0-.3.9c.6 1-.8 1.3-1.6.3a1.1 1.1 0 0 1 0-1.8c.9-1.1 2.5-1.3 2.5-.3zm95.8 1.2c0 .6-1.9 1.4-2.3 1s-.1-.6.1-1 2.2-.8 2.2 0zm-147 2.7c-.9.8-2.3-.5-1.6-1.4s.6-.5 1.3 0 .7 1 .3 1.4zm37.4.6a1.1 1.1 0 0 1-1 .7 1.1 1.1 0 0 1-1.1-.7c-.2-.5.3-.8 1.1-.8s1.2.3 1 .8zM188.5 243c-.2.5-.3.4-.4-.4s.1-1 .3-.8a1.6 1.6 0 0 1 .1 1.2zm-55.6 4.9c-.4 1.2-1.7 1.4-1.7.3a.9.9 0 0 1 1-1c.5 0 .9.3.7.7zm500 0c-.4 1.2-1.7 1.4-1.7.3a.9.9 0 0 1 1-1c.5 0 .9.3.7.7zM152.2 250c0 .5-.3.8-.6.6a.6.6 0 0 1-.3-.9c.5-.9.9-.8.9.3zm500 0c0 .5-.3.8-.6.6a.6.6 0 0 1-.3-.9c.5-.9.9-.8.9.3zm-177.4 6.5a.6.6 0 1 1-1.2 0 .6.6 0 0 1 1.2 0zm84.7.3c0 .5-.3.9-.6.9s-.6-.4-.6-.9.3-.9.6-.9.6.4.6.9zm-280.6 4.6a.6.6 0 1 1-.6-.6.5.5 0 0 1 .6.6zm23.6 6.4c1.4 1.1.3 2.1-2 1.8s-2.3-1.2-1.4-2.2 2.3-.4 3.4.4zm117-.1c.6.9-.1 1.4-1.2.9s-.8-.7-.6-1 1.3-.7 1.8.1zm153.6.5c0 .7-.3 1.2-.6 1.2a1.3 1.3 0 0 1-1-1.8c.7-1 1.6-.7 1.6.6zm-346.1.3c0 .5-.3.9-.6.9s-.6-.4-.6-.9.2-.9.6-.9.6.4.6.9zm-58.7.2c0 .7-3.1 2.2-3.5 1.7s1.6-2.1 2.7-2.2.8.2.8.5zm148.9 1.2c0 1.2-1.4.7-1.7-.6s.1-1 .8-.7a1.4 1.4 0 0 1 .9 1.3zm-67.3.8c0 .4-.3.6-.7.6a.6.6 0 1 1 0-1.2c.4 0 .7.2.7.6zm62.4 6.8a.7.7 0 0 1-.7.6c-.3 0-.5-.3-.2-.6s.4-.6.6-.6.3.2.3.6zm-88.4.6a.6.6 0 1 1-.6-.6.5.5 0 0 1 .6.6zm-114.3 11.4c0 .5-.3 1-.7 1s-.6-.5-.6-1 .3-.9.6-.9a.8.8 0 0 1 .7.9zm500 0c0 .5-.3 1-.7 1s-.6-.5-.6-1 .3-.9.6-.9a.8.8 0 0 1 .7.9zm-240.5 4.7c0 .3-.4.6-.9.6s-.8-.3-.6-.6a1.1 1.1 0 0 1 1-.6c.3 0 .5.2.5.6zm500 0c0 .3-.4.6-.9.6s-.8-.3-.6-.6a1.1 1.1 0 0 1 1-.6c.3 0 .5.2.5.6zm-640.9 2.6c0 1-.2 1.1-.7.6a1.2 1.2 0 0 1-.2-1.3c.6-1 .9-.8.9.7zm-9.9 2.3c0 .4-.4.6-.9.6s-.8-.2-.6-.6a1.1 1.1 0 0 1 .9-.6.5.5 0 0 1 .6.6zm51.8.5c.2.4-.2.8-.7.8a1 1 0 0 1-1-1c0-1.2 1.3-1 1.7.2zm500 0c.2.4-.2.8-.7.8a1 1 0 0 1-1-1c0-1.2 1.3-1 1.7.2zm-570.9 1.1c0 .5-.3.8-.6.6a1.2 1.2 0 0 1-.7-1 .7.7 0 0 1 .7-.6c.3 0 .6.4.6 1zm78.7.9c.3.3.1.7-.2.9s-.6 0-.6-.5.3-1.3.8-.4zm500.4.3c0 .5-.3.9-.6.9s-.6-.4-.6-.9.2-.9.6-.9.6.4.6.9zm-402.4 1.9c0 .4-.3.9-.6.9s-.6-.5-.6-.9.3-1 .6-1 .6.5.6 1zm500 0c0 .4-.2.9-.6.9s-.6-.5-.6-.9.3-1 .6-1 .6.5.6 1zm-772.1 1.3c.1.4-.5.9-1.3 1.2s-2.4.2-1.9-1.3 2.8-1.1 3.2.1zm499.5-.5c1.2.8.3 1.9-1.5 1.9s-1.7 0-1.1-1.5 1.3-1.2 2.6-.4zm-401.7 1.9a1.2 1.2 0 0 1-.6 1c-.3.2-.6-.1-.6-.6s.3-1 .6-1a.5.5 0 0 1 .6.6zm212.3 2.5a1.1 1.1 0 0 1-.9.6.5.5 0 0 1-.6-.6c0-.4.4-.6 1-.6s.8.2.5.6zm-319.8 1c0 1.1-1.3.9-1.7-.3s.2-.7.7-.7a.9.9 0 0 1 1 1zm500-.1c0 .5-.2 1-.5 1s-.8-.5-.9-1 0-.9.5-.9a.9.9 0 0 1 .9.9zm-99.8 1.6a1.3 1.3 0 0 1-1 .6c-.4 0-.5-.3-.2-.6a1.1 1.1 0 0 1 .9-.6q.6 0 .3.6zm-318.6 2.4c0 .4-.1.7-.3.7s-.4-.3-.6-.7-.1-.6.2-.6a.7.7 0 0 1 .7.6zm500 0c0 .4-.1.7-.3.7s-.4-.3-.6-.7-.1-.6.2-.6a.7.7 0 0 1 .7.6zM481 321.4c0 .3-.1.6-.3.6s-.4-.3-.6-.6-.1-.7.3-.7a.7.7 0 0 1 .6.7zm-391.2 3.7c0 .3-.6.6-1.3.6s-1.2.4-1.2.9a.9.9 0 1 1-.9-.9c.5 0 .9-.3.9-.6s.6-.6 1.2-.6 1.3.2 1.3.6zm500 0c0 .3-.6.6-1.3.6s-1.2.4-1.2.9a.9.9 0 0 1-.9.9c-1.4 0-1.1-1.4.4-2.2s3-1 3-.2zM371 326.4c0 1.5-1.4 1.3-1.7-.3s.2-1 .7-1 1 .5 1 1.3zm500-.1c0 .7-.3 1.2-.6 1.2s-.6-.1-.6-.2a7.9 7.9 0 0 0-.4-1.2c-.2-.7 0-1 .6-1s1 .5 1 1.2zM419.9 329c-.5.5-.7.4-.7-.3a2 2 0 0 1 .5-1.4c.2-.2.5-.1.6.3s-.1 1-.4 1.4zm-104.5.5c0 .3-.6.5-1.3.5s-1.2-.2-.6-.9 1.9-.7 1.9.4zm500 0c0 .3-.6.5-1.3.5s-1.2-.2-.6-.9 1.9-.7 1.9.4zm-42.1.4a1 1 0 0 1-1.3 1c-.6-.4-.1-1.5.8-1.5a.5.5 0 0 1 .5.5zm-643.3.7a.7.7 0 0 1-.7.7c-.4 0-.5-.3-.3-.7s.5-.6.7-.6.3.3.3.6zm143.3 0c0 .4-.2.7-.5.7a1.2 1.2 0 0 1-1-.7c-.2-.3 0-.6.6-.6s.9.3.9.6zm356.7 0a.7.7 0 0 1-.7.7c-.4 0-.5-.3-.3-.7s.5-.6.7-.6.3.3.3.6zM79.6 335a1.3 1.3 0 0 1-1 .6.6.6 0 0 1-.6-.6c0-.4.4-.7 1-.7s.8.3.6.7zm499.7 0a.6.6 0 0 1-.6.6.7.7 0 0 1-.7-.6.7.7 0 0 1 .7-.7.7.7 0 0 1 .6.7zm-159.5 5.5a.6.6 0 1 1-1.2 0 .6.6 0 1 1 1.2 0zm120.5 9a.9.9 0 1 1-.9-.9.9.9 0 0 1 .9.9zm-457.9 1.7c-.1.7-.9.6-1.2-.2s.1-.7.5-.5.8.4.7.7zm500.3-.2c.2.4-.1.7-.6.7s-1-.3-1-.7a.6.6 0 0 1 .6-.6 1.3 1.3 0 0 1 1 .6zm-471.9 10.8c0 .5-.3 1-.6 1s-1.3-1-.8-1.5 1.4-.4 1.4.5zm500 .1c0 .6-.3.9-.7.7s-1.4-1.7-.3-1.7a1 1 0 0 1 1 1zm-530.7 2.4c.3.7.1 1-.6.8a1.6 1.6 0 0 1-1.3-1c-.4-1.1 1.5-.9 1.9.2zm96.8-.3a.6.6 0 1 1-.6-.6.5.5 0 0 1 .6.6zm402.9 0c.5.3.8.8.5 1s-2.3-.2-2.3-1 .7-.8 1.8 0zm97.1 0a.6.6 0 1 1-.6-.6.5.5 0 0 1 .6.6zm-362.8 3.1a.6.6 0 1 1-.6-.6.5.5 0 0 1 .6.6zm194.1 2.1c0 1.1-1.7 1.8-2.2 1a1.3 1.3 0 0 1 0-1.2c.6-1 2.2-.8 2.2.2zm-395.6 1a.5.5 0 0 1-.6.6.6.6 0 0 1 0-1.2.5.5 0 0 1 .6.6zm500.1 0c0 .4-.2.6-.3.6a1 1 0 0 1-.7-.6q-.3-.6.3-.6c.4 0 .7.2.7.6zM450 374.5c.2 1.1 0 1.4-.8 1l-1.3-.4c-.2 0-.3-.5-.3-1.3s2.1-1.3 2.4.7zm-339.2.3c0 .2-.3.4-.6.6s-.6.1-.6-.2.2-.7.6-.7.6.1.6.3zm172 1.4c1.3 1.5.8 2-1.9 2s-2.6-.9-.9-2.2 1.6-1.1 2.8.2zm500.1.2c1.3 1.4 1.3 1.3-1.6 1.5s-3-.6-1.3-1.9 1.6-1 2.9.4zm-484.8 1.9c0 .7-1.7.7-2.2-.1s.4-2 1.3-1.2a2.4 2.4 0 0 1 .9 1.3zm499.3.5c-.9.3-2-1-1.5-1.8s.7-.3 1.3.4.6 1.2.2 1.4zm-358.1.4c1.3 1.3.7 2.1-1.6 2.1s-2.5-2.7.2-3c.2-.1.8.4 1.4.9zm-17 .3a.6.6 0 0 1-.6.6.6.6 0 0 1-.6-.6c0-.4.2-.7.6-.7a.7.7 0 0 1 .6.7zm6.2 2.7a1.1 1.1 0 0 1-1 1c-.9 0-1.2-.8-.5-1.5s1.5-.4 1.5.5zm25.2-.1c-.4 1.1-1.7 1.3-1.7.2a.9.9 0 0 1 .9-1c.6 0 .9.3.8.8zM223 388.7c-.3.4-.6.7-1 .7a.7.7 0 0 1-.6-.7c0-.3.4-.6 1-.6s.8.3.6.6zm500 0a1.2 1.2 0 0 1-1 .7.7.7 0 0 1-.6-.7c0-.3.4-.6 1-.6s.8.3.6.6zm-537.2 4.4c-.6 1-1.5.6-1.5-.7s.2-1.2 1-.6.7 1 .5 1.3zm500.1 0c-.7 1-1.6.6-1.6-.7s.2-1.2 1-.6a1.4 1.4 0 0 1 .6 1.3zm-274.1 2.4a.7.7 0 0 1-.6.7.7.7 0 0 1-.7-.7.7.7 0 0 1 .7-.6.6.6 0 0 1 .6.6zm-12.2 1.9a1.9 1.9 0 0 0-.4 1.6c.2.5 0 .9-.6.9a1.7 1.7 0 0 1-1.3-1c-.4-1.1 1.5-3.4 2.4-2.7s.3.8-.1 1.2zm-309.8.6a.6.6 0 0 1-.6.6c-.4 0-.7-.2-.7-.6s.3-.6.7-.6a.6.6 0 0 1 .6.6zm500 0a.6.6 0 0 1-.6.6c-.4 0-.7-.2-.7-.6s.3-.6.7-.6a.6.6 0 0 1 .6.6zM350 402.7c0 .5-.5.8-1.1.7s-1.7-1.7-.2-1.7 1.3.4 1.3 1zm500-.1a1.2 1.2 0 0 1-1.3 1 1.2 1.2 0 0 1-1.2-1c0-.5.6-.9 1.2-.9s1.3.4 1.3.9zm-600 6c-.5.5-.9.6-1.1.4a1.9 1.9 0 0 1 0-1.5c.3-.8.6-.9 1.1-.3a.8.8 0 0 1 0 1.4zm500 0c-1 1-1.6.3-1.1-1.1s.6-.9 1.1-.3a.8.8 0 0 1 0 1.4zm-491 1.6c.1.5-.2.8-.7.8a.9.9 0 0 1-1-1c0-1.1 1.3-.9 1.7.2zm499.8.2a1.1 1.1 0 0 1-.8 1c-.4.2-.7-.2-.7-1s.3-1.3.7-1.1a1.1 1.1 0 0 1 .8 1.1zm-402 2.1a1 1 0 1 1-1.9 0 1 1 0 0 1 1-.9 1 1 0 0 1 .9.9zm209.2.3c.2.4 0 .7-.6.7s-1-.3-1-.7a.6.6 0 0 1 .6-.6 1.3 1.3 0 0 1 1 .6zm-171.5 4.7a1 1 0 0 1-.9.9 1 1 0 0 1-1-.9 1 1 0 1 1 1.9 0zm80.9 2.4a.9.9 0 1 1-1.8 0 .9.9 0 0 1 1.8 0zm-327.4 4c1.2 1.5.9 1.9-1.8 1.9s-2.5-.3-1-2 1.5-1.3 2.8.1zm500 0c1.3 1.5.9 1.9-1.8 1.9s-2.5-.3-1-2 1.5-1.3 2.8.1zm-484.7 2.6c0 .3-.4.6-.9.6s-.9-.2-.9-.3a12.8 12.8 0 0 0-.4-1.3c-.4-.9-.3-1 .9-.3s1.3.9 1.3 1.3zm500-.3a1 1 0 0 1-.9.9c-.5 0-.9-.2-.9-.3s-.2-.6-.4-1.2-.1-.9.9-.6 1.3.7 1.3 1.2zm-127.3.2c0 .4-.2.7-.6.7s-.6-.3-.6-.7a.6.6 0 1 1 1.2 0zm-74.2 3.1c0 .4-.4.6-.9.6s-.9-.2-.9-.6.4-.6.9-.6.9.3.9.6zm-85.9 4.4c0 .3-.4.6-.9.6s-.8-.3-.6-.6a1.2 1.2 0 0 1 1-.7c.3 0 .5.3.5.7zm25.4 2.5a.6.6 0 0 1-.6.5.8.8 0 0 1-.7-.9c0-.6.3-.8.7-.6a1.3 1.3 0 0 1 .6 1zm-18.2 9.9c.6 1-.1 1.2-1 .2s-.5-.9-.1-.9a1.4 1.4 0 0 1 1.1.7zm92.6 2.1c.2.5 0 .9-.6.9s-1.6-.9-1.1-1.4 1.3-.5 1.7.5zm-38 1.2a.9.9 0 1 1-.9-.9.9.9 0 0 1 .9.9zm-169.3 2.7c0 .9-1.7 2.9-2.2 2.4s.8-2.9 1.6-2.9.6.2.6.5zm500-.2c0 1-1.4 2.8-1.9 2.4s.4-2.7 1.3-2.7.6.1.6.3zm-637.2.9a.6.6 0 0 1-.6.6.6.6 0 1 1 0-1.2.6.6 0 0 1 .6.6zm500 0a.6.6 0 0 1-.6.6.6.6 0 1 1 0-1.2.6.6 0 0 1 .6.6zm-16.1 1.9a.6.6 0 1 1-1.2 0c0-.4.2-.7.6-.7s.6.3.6.7zm-11.7 3.1c0 .3-.1.6-.3.6s-.4-.3-.6-.6-.1-.7.2-.7a.7.7 0 0 1 .7.7zm-310.9 4.9c0 .7-.5.7-2.2 0s-1-.6.5-.6 1.7.3 1.7.6zm500 0c0 .7-.7.7-1.8 0s-.7-.6.4-.6 1.4.3 1.4.6zm-414 2.7c-.8.7-1.6.1-1.1-.8a.8.8 0 0 1 1.1-.3c.4.2.4.6 0 1.1zm227.4 1c0 .4-.3.6-.7.6a.6.6 0 0 1 0-1.2c.4 0 .7.2.7.6zm-192.9.6a.6.6 0 1 1-1.2 0 .6.6 0 1 1 1.2 0zm-8.1 5.4c-.3 1.3-1.4 1.2-1.6-.1a.7.7 0 0 1 .8-.9c.6 0 .9.3.8 1zm-250.8 3a.8.8 0 0 1-.7.9c-.3 0-.6-.4-.6-.9s.3-1 .6-1 .7.5.7 1zm500-.3a.7.7 0 0 1-.7.6.6.6 0 0 1-.6-.6.7.7 0 0 1 .6-.7.7.7 0 0 1 .7.7zM147 476.4c-.2.2-.7 0-1.1-.4s-.6-.7.3-.4 1 .6.8.8zm500 0c-.2.2-.7 0-1.1-.4s-.6-.7.3-.4 1 .6.8.8zM298.7 480c0 1.1-1.4.9-1.7-.3s.1-.7.7-.7a1 1 0 0 1 1 1zm500-.1a.9.9 0 0 1-.9.9.9.9 0 1 1 0-1.8.9.9 0 0 1 .9.9zm-177.5.3c1.2.7.4 2.5-1.1 2.5s-1.5-.5-.9-2.1.8-1.2 2-.4zm-222.6 2.9c-.7.6-1.2-.3-.7-1.1s.6-.6.8 0a1.3 1.3 0 0 1-.1 1.1zm214.1 2.4a.8.8 0 0 1-.7.9c-.3 0-.6-.4-.6-.9s.3-1 .6-1 .7.5.7 1zm-265.2 8.9c0 .7-.4 1.3-.9 1.3s-.9-.6-.9-1.3.4-1.2.9-1.2.9.5.9 1.2zm39.9 1.9c-.3.5-.7.5-1.1.1a1.4 1.4 0 0 1-.2-1.4c.3-.5.7-.5 1.1-.1a1.4 1.4 0 0 1 .2 1.4zm220.9 4.6c0 .5-.5.9-1.2.9s-1.2.3-1.2.7-.5.6-1 .6-.9-.3-.9-.6a.8.8 0 0 1 .9-.7 1 1 0 0 0 1-.9c0-.5.5-.9 1.2-.9s1.2.4 1.2.9zm-116.2 6.5c0 .3-.4.6-.9.6s-.9-.3-.9-.6.4-.6.9-.6.9.3.9.6zm-28.4 2.5a.6.6 0 1 1-1.2 0 .6.6 0 1 1 1.2 0zm21-.4c0 .7-1.2 1-1.5.4s0-.6.6-.6.9.1.9.2zm113.7 1c0 .3-.4.6-.9.6s-.9-.3-.9-.6.4-.6.9-.6.9.3.9.6zM356.8 513a.6.6 0 0 1-.6.6.7.7 0 0 1-.7-.6.7.7 0 0 1 .7-.7.7.7 0 0 1 .6.7zm44.5 4c0 .5-.3.9-.6.9s-1.4-1-.8-1.5 1.4-.4 1.4.6zm-105.2 8.8c.1.4-.2.8-.8.8a1 1 0 0 1-.9-1c0-1.1 1.3-1 1.7.2zm500 0c.1.4-.2.8-.8.8a1 1 0 0 1-.9-1c0-1.1 1.3-1 1.7.2zm-194.6 1.1a.9.9 0 0 1-1.8 0 .9.9 0 1 1 1.8 0zm-274.4 1.5q0 .6-.3.6a1.1 1.1 0 0 1-.6-.6c-.2-.3-.1-.6.3-.6a.6.6 0 0 1 .6.6zM575 534a.7.7 0 0 1-.7.6.6.6 0 0 1-.6-.6.6.6 0 0 1 .6-.6c.4 0 .7.2.7.6zm54.3 4c0 1-.9 1.2-1.5.3s.3-2 1-1.5a1.5 1.5 0 0 1 .5 1.2zm-89.9.7c1.2.4 1.3 2.1.1 2.1s-1-.6-1.2-1.3-.3-1.4 1.1-.8zm-1.5 3.7a.7.7 0 0 1-.7.8c-.3 0-.6-.1-.6-.2a4.9 4.9 0 0 0-.3-1.2c-.3-.8-.2-.9.6-.7s1 .8 1 1.3zm64.9 2.1c0 .4-.3.6-.7.6a.6.6 0 1 1 0-1.2c.4 0 .7.2.7.6zm161.6 0a1.1 1.1 0 0 1-1 .6.6.6 0 0 1-.6-.6c0-.4.4-.6 1-.6s.8.2.6.6zm-375.5.9a.9.9 0 1 1-.9-.9.9.9 0 0 1 .9.9zm249.7 4.6c0 .4-.2.7-.6.7s-.6-.3-.6-.7a.6.6 0 0 1 1.2 0zm-91 4.2c.1.9-.1 1.4-.7 1.4s-1.8-1-1.4-2.2 1.9-.8 2.1.8zM345 555c0 .3.5.6 1 .6s.9.2.9.5-1.4 2-2.3 2-2.1-2.5-1.6-3.3 2-.6 2 .2zm295.5 6.5a1 1 0 0 1-1 .9.9.9 0 0 1 0-1.8 1 1 0 0 1 1 .9zm-217.6 7.1c0 .3-.4.6-.9.6s-.9-.3-.6-.6a1.1 1.1 0 0 1 .9-.6.5.5 0 0 1 .6.6zm110 1.2a.6.6 0 1 1-1.2 0 .6.6 0 1 1 1.2 0zm45.8 0c0 .4-.3.6-.7.6a.6.6 0 0 1-.6-.6.6.6 0 0 1 .6-.6.7.7 0 0 1 .7.6zm-217.6 3.4a.9.9 0 1 1-.9-.9.9.9 0 0 1 .9.9zm138.7 2.5q.3.9-.9.9c-.7 0-1.2-.4-1.2-.9a.9.9 0 0 1 .9-.9 1.5 1.5 0 0 1 1.2.9zm65 .4c1.7.8 2 1.8.4 1.8s-2.6-1.1-2.6-2 .2-.7 2.2.2zm-94.3 2.7a.9.9 0 0 1-.9.9c-1 0-1.3-.7-.6-1.4s1.5-.5 1.5.5zm-47.6.6q0 .9-.6.6a1.1 1.1 0 0 1-.6-.9.5.5 0 0 1 .6-.6c.4 0 .6.4.6.9zm27.2.2a1.4 1.4 0 0 1-.9 1c-.9.3-1.3-.4-.5-1.1s1.4-.5 1.4.1zm85.9 6.9a.5.5 0 0 1-.6.6 1.1 1.1 0 0 1-.9-.6c-.2-.3 0-.6.6-.6s.9.3.9.6zm-119.3 1.2c0 .4-.2.7-.6.7s-.6-.3-.6-.7a.6.6 0 0 1 1.2 0zm96.4 1.6a.9.9 0 1 1-.9-.9.9.9 0 0 1 .9.9zm-171.8 1.4a3 3 0 0 1-.6 1.4c-.4.7-.7.7-1.3.2a1.5 1.5 0 0 1-.3-1.4c.5-.7 2.2-.9 2.2-.2zm182.7 4.5c.2.3-.1.6-.6.6s-1-.3-1-.6a.7.7 0 0 1 .6-.7c.4 0 .7.3 1 .7zm-53.6 4.1c-.3 1.3-1.3 1.2-1.6-.1a.7.7 0 0 1 .8-.9c.6 0 .9.3.8 1zM346 603.2c-.3.5-.7.5-1.1.1a1.2 1.2 0 0 1-.2-1.3c.3-.5.7-.6 1.1-.2a1.4 1.4 0 0 1 .2 1.4zm43.5 1.6c0 .5-.4.8-1 .7s-1.8-1.7-.3-1.7 1.3.4 1.3 1zm234.3 3.3c0 .4-.5.7-1 .7s-.9-.3-.9-.7.5-.6.9-.6 1 .3 1 .6zm-63.1 4.1c-.4.5-1 .7-1.3.5s-.3-.7.1-1.2 1-.7 1.3-.5.3.7-.1 1.2zm-228.6 8.9c0 .4-.2.6-.3.6s-.4-.2-.7-.6-.1-.6.3-.6a.7.7 0 0 1 .7.6zm234.1 2.1a.8.8 0 0 1-.8 1c-1 0-1.8-1.5-1.1-2.1s1.6-.1 1.9 1.1zM400 641c0 .3-.4.5-.9.5s-1.3-.7-.5-1.4 1.4.1 1.4.9zm-3.7 1.1a.9.9 0 0 1-1.8 0c0-.3.4-.6.9-.6s.9.3.9.6zm2.1 2.2c-.4 1-1.4 1.3-1.4.4a1.4 1.4 0 0 1 1.2-1.3c.3 0 .4.4.2.9zm-3 .3a.6.6 0 0 1-.3.9c-.3.2-.6 0-.6-.5s.3-1.3.9-.4zm63 2.5c.3.3.1.7-.5 1s-2.9-.7-2.9-1.8 2.5-.1 3.4.8zm-62.1.3c0 .5-.3.9-.6.9s-.6-.4-.6-.9.3-.9.6-.9.6.4.6.9zm69.9 3.7a1 1 0 0 1-1 .9.9.9 0 1 1 0-1.8 1 1 0 0 1 1 .9zm63.6 2.8a.6.6 0 1 1-1.2 0 .6.6 0 0 1 1.2 0z" fill="#f1b0be"></path><g fill="#e8392f"><path d="M717.2 511.5c-1.7 6 6.2 12.8 11.5 9.8s5-10 .2-14.3-9.9-1.2-11.7 4.5z"></path><path d="M707.6 553.2c-4.2 1.2-6.4 3.5-7.4 7.5s0 6.3 4.1 10.1 7.6 4 12.2 1.1 6-10.3 1.7-15.5c-3-3.6-6-4.5-10.6-3.2zm-1.3 14.1c-1.6-1.3-2.5-7.1-1.3-8.4s1-.5 1.1 1.4a35.6 35.6 0 0 0 .7 5.2c.5 2 .4 2.6-.5 1.8zm11.5.5c-1.4 1.5-1.4 1.5-.7-1.1a14.4 14.4 0 0 0-.3-6.1c-1.1-4-1-4.2.3-2.9s2.2 8.5.7 10.1z"></path><path d="M751.2 545.6c-2.7.9-3 1.4-3.4 4.5s3 6.6 5.8 5.6 3.4-1.8 3.2-4.9-3-6.1-5.6-5.2z"></path></g><g fill="#e8392f"><path d="M741.2 111.2c-3.1-.1-6 3.8-4.8 6.6 1.9 4.5 6 4.5 8.4 0 1.4-2.6-.7-6.4-3.6-6.6z"></path><path d="M769.4 94.4c-1.2-.2-4.2 2.6-4.2 4a6.8 6.8 0 0 0 1.8 2.6c1.3 1.2 2.2 1.1 3.4-.3s1.1-5.9-1-6.3z"></path><path d="M775.3 150.4a8.2 8.2 0 0 0 2.2 4.8c2.2 2.1 7.6 2 9.6-.2s1.3-7.5-1.4-9.9a6.2 6.2 0 0 0-10.4 5.3z"></path><path d="M814.4 144.6c-2.6.1-3.5 1.8-2.3 4.5s3.4 4.1 5.6 3 .7-7.7-3.3-7.5z"></path><path d="M800.9 186.5c-2.3-.9-5.1 2.7-3.8 4.9s3 2.6 4.6.9 1.1-5-.8-5.8z"></path></g><g fill="#e8392f"><path d="M134.7 88.1a3.8 3.8 0 0 0 1.9-5.7c-1.6-1.9-5.4-1.5-6.4.8s.6 5.9 4.5 4.9z"></path><path d="M158.5 94c2 0 4.1-2.6 3.2-4s-3.8-1.1-4.6-.3a4.4 4.4 0 0 0-.6 2.4c0 1.4.5 1.9 2 1.9z"></path><path d="M53.1 113.7c4.3 1.5 8.8-2.5 8.8-7.9s-4.8-6.7-9.2-4.5-4.4 10.8.4 12.4z"></path><path d="M15.4 134.4c5 1.4 9.7-2 10.5-7.6.5-3.8-.7-6.1-4-8.2a8.1 8.1 0 0 0-8.7-.3c-2.9 1.6-3.8 3.5-3.8 8.1s1.7 6.9 6 8zm7.1-6.1c1.9-2.8 2-2.9 2-1.4s-4 6-5.8 6-1.7 0 .2-1a10.3 10.3 0 0 0 3.6-3.6zm-5.5-8.1c.9 0 .9.3-.2 1.4A33.9 33.9 0 0 0 14 125c-1 1.4-1.4 1.6-1.4.7s3-5.5 4.4-5.5z"></path><path d="M131.9 123.6a6.4 6.4 0 0 0-1.6 3.8c0 2.4 2.9 5.5 5.2 5.5s5.1-3.2 5.1-6.1a4.9 4.9 0 0 0-8.7-3.2z"></path><path d="M46 148c2.1 1.2 3 1 4.8-.7s2-5.3 0-6.4-2.5-1-4.7.5-2.3 5.5-.1 6.6z"></path><path d="M153.7 149.4c2.8 1 4.9-3.7 2.7-6s-3-1.1-4 1.1-.5 4.2 1.3 4.9z"></path><path d="M121.5 161.6c1.9 0 3.6-2 3-3.6s-4.3-1.5-5 .4.1 3.2 2 3.2z"></path></g><g fill="#e8392f"><path d="M343.9 713.4c.1-2.3-2.8-4.3-4.9-3.3s-2.9 4.8-1 6.4 5.9 1 5.9-3.1z"></path><path d="M355.9 692c.5-2-1.5-4.6-3.1-4.1s-2 3.4-1.5 4.3a4.4 4.4 0 0 0 2.2 1.2c1.4.4 2 0 2.4-1.4z"></path><path d="M377.5 725.3a7.1 7.1 0 0 0 3.2 2.6c2.4.7 6.2-1.4 6.8-3.6s-1.8-5.8-4.6-6.5a4.9 4.9 0 0 0-5.4 7.5z"></path><path d="M408.1 711c1.7-2.4-2.3-5.7-5-4.1s-1.9 2.6-.1 4.1 4 1.5 5.1 0z"></path><path d="M411.5 745.3c.5-1.8-1-4-2.7-3.8s-2.6 3.8-.9 4.9 3.1.7 3.6-1.1z"></path></g><path d="M744.8 112.7a40.1 40.1 0 0 1-5.9 1.3l-6 .9c-5.7 1.3-8.5 2-9.1 2.4a38.6 38.6 0 0 1-5.9 2.2 73.6 73.6 0 0 0-8.5 3.5 28.3 28.3 0 0 1-6.1 2.4 12.9 12.9 0 0 0-3.9 1.9 4.6 4.6 0 0 1-1.8 1.2 7.1 7.1 0 0 0-2.4 1.4 38.9 38.9 0 0 1-4.5 3l-3.4 1.9-3.7 2.8-3.9 3.1-3.7 2.7a16.4 16.4 0 0 0-3.3 2.7 22.7 22.7 0 0 1-5.2 4.9c-3.3 2.5-5.6 4.8-6.1 6.1a7.1 7.1 0 0 1-2.5 2.3c-1.2.7-2.2 1.7-2.2 2.1a7.3 7.3 0 0 1-1.5 2.6 8.6 8.6 0 0 0-1.6 2.2 3.5 3.5 0 0 1-1.2 1.7c-1.6 1.6-4.4 6-6.2 9.5-.8 1.6-1.7 2.9-2 2.9s-.8.7-1.1 1.5a32 32 0 0 1-2.1 4 10 10 0 0 0-1.6 3.6 3.2 3.2 0 0 1-.6 1.8c-.8.9-3.8 8.7-4.1 10.9a26 26 0 0 1-1 4.8c-2.3 6.6-4.1 20-3.8 28.4s.7 15.4 1.2 16.1a14.2 14.2 0 0 1 .6 3.6c.6 6.4 1.7 12.1 2.6 12.8s1.1 2.5 1.3 4.7a14.3 14.3 0 0 0 1.7 5.8 32.1 32.1 0 0 1 2.7 6c.8 2.3 1.7 4.2 2 4.2s.5.5.5 1.2a6.7 6.7 0 0 0 1.5 3.3 15.3 15.3 0 0 1 1.9 3.5 9.2 9.2 0 0 0 2.2 3.5 28.9 28.9 0 0 1 3.3 4.8 35.5 35.5 0 0 0 5.1 6.5c5.7 5.8 7.6 7.9 7.6 8.2s4.2 4.6 7.7 7.2a57.5 57.5 0 0 1 4.6 3.8 2.7 2.7 0 0 0 1.6 1.2c.7 0 8.9 4.9 10.2 6.1a10.5 10.5 0 0 0 3.1 1.8l4 1.7c3.4 1.6 10.3 4 11.3 4a3.9 3.9 0 0 1 2 .9 7.9 7.9 0 0 0 3.5 1.2 8.8 8.8 0 0 1 3.4.8 11.2 11.2 0 0 0 3.6.7c14.4 1.1 26.7 1.1 31.2.1 8-1.9 18.9-5.8 23.2-8.4l4.8-2.8c1.8-1 3.2-2.1 3.2-2.4s.6-.7 1.4-.9a14.5 14.5 0 0 0 3.4-2.6 27.1 27.1 0 0 1 4.1-3.2c1.8-.9 5.4-4.3 11-10.3l3.9-4a12.7 12.7 0 0 0 2.5-3.2 1.6 1.6 0 0 1 1.3-1.1c.5 0 .9-.3.9-.6s3.9-7.1 5.4-8.4a4 4 0 0 0 1.4-2 10.7 10.7 0 0 1 2.1-3.1 11.2 11.2 0 0 0 2.2-3c0-.8 6.6-13.5 8.1-15.7s2.9-6.2 4.2-10.6a17.7 17.7 0 0 1 1.5-3.1 5.5 5.5 0 0 0 1-3.1 2.9 2.9 0 0 1 .7-2.1c.4-.2.5-.9.4-1.5s-.1-1.2.2-1.2.6-.5.6-1.1a4.7 4.7 0 0 1 1-2.5c.5-.8.8-1.6.6-1.8s-.1-.8.3-1.5a17.2 17.2 0 0 0 .9-4 39.8 39.8 0 0 1 .9-4.9 34.5 34.5 0 0 0 1-4.3c.1-1.4.7-4.4 1.2-6.8 1.6-8.1 1.5-34.2-.2-35.5s-.5-1.6-.5-3.1c-.1-3.7-1.4-9.6-2.1-9.8a.5.5 0 0 1-.3-.8c.5-.8-1-6.9-1.9-7.7a5.2 5.2 0 0 1-1.2-2.8 39.3 39.3 0 0 0-2.6-6.7c-1.2-2.6-2.2-4.9-2.1-5.2a2.4 2.4 0 0 0-.5-1.2 79.2 79.2 0 0 1-5.1-9.2c-.4-.9-1-1.7-1.4-1.7s-4.1-5.1-4.1-6a4.4 4.4 0 0 0-1.1-1.4 23.3 23.3 0 0 1-2.6-3.1 18.5 18.5 0 0 0-5.4-5.4 2.8 2.8 0 0 1-1.4-1.8.8.8 0 0 0-.8-.9 4.6 4.6 0 0 1-2-1c-1.3-1.2-2.8-2-7.7-4a24.7 24.7 0 0 1-3.7-1.8 19.6 19.6 0 0 0-5.9-2.6c-.5 0-.9-.2-.9-.5s-8.2-3-12.4-3.4a207.2 207.2 0 0 0-24.8-.9 21.8 21.8 0 0 1-5.3-.2 9 9 0 0 0-2.9.5zm-2.2 7.7c0 .4-.2.7-.6.7s-.6-.3-.6-.7a.6.6 0 1 1 1.2 0zm43.1 5.1c-.2.5-.3.4-.4-.4s.1-1 .3-.8a1.2 1.2 0 0 1 .1 1.2zM682 173c0 .3-.4.6-.9.6s-.9-.3-.9-.6.4-.6.9-.6.9.2.9.6zm80.1 2.4a1.2 1.2 0 0 1-1 .7c-.4 0-.5-.3-.3-.7a1.8 1.8 0 0 1 1-.6c.4 0 .5.3.3.6zm-13 9.9a1.2 1.2 0 0 1-1 .7c-.3 0-.5-.3-.5-.7s.4-.6.9-.6.8.3.6.6zm-61.1 7.3c-.6.6-1.2-.3-.7-1.1s.6-.7.8-.1a1.5 1.5 0 0 1-.1 1.2zm-4.1 8.8a.6.6 0 0 1-.6.6.6.6 0 1 1 0-1.2.6.6 0 0 1 .6.6zm3.7 3.1a.6.6 0 1 1-.6-.6.5.5 0 0 1 .6.6zm120.4 8.8c-.4 1.1-1.7 1.3-1.7.2a1 1 0 0 1 1-1 .7.7 0 0 1 .7.8zm-32 19.9a1.2 1.2 0 0 1-1.3 1 1.2 1.2 0 0 1-1.2-1c0-.5.6-.9 1.2-.9s1.3.4 1.3.9zm-58.2 5.2c.2 1.2 0 1.4-.8 1.1l-1.3-.4c-.2 0-.3-.5-.3-1.3s2.1-1.3 2.4.6zm103.3 2.2c0 .2-.2.4-.6.7s-.6.1-.6-.3.2-.7.6-.7.6.2.6.3zm-114 2.6c1.3 1.3.6 2.1-1.6 2.1s-2.5-2.7.1-3.1a3.1 3.1 0 0 1 1.5 1zm-17 .2a.7.7 0 0 1-.6.7.7.7 0 0 1-.7-.7.7.7 0 0 1 .7-.6.6.6 0 0 1 .6.6zm47.3 1.3a.4.4 0 0 1-.3.6.7.7 0 0 1-.7-.6q0-.6.3-.6c.2 0 .4.2.7.6zm-40.8 1.2c.2.4-.1.8-.7 1s-1.8 0-1.2-.9a1.1 1.1 0 0 1 1.9-.1zm25-.1c0 .8-1.2 1.6-1.7 1.1s.4-1.6 1.1-1.6.6.2.6.5zm-42 13.7c0 .4-.3.6-.7.6a.6.6 0 1 1 0-1.2c.4 0 .7.2.7.6zm-11.8 1.2a1.4 1.4 0 0 1-.6 1 1 1 0 0 0-.2 1.2q.3.9-.6.9c-1.4 0-1.8-1.9-.6-2.8s2-1.1 2-.3zm-5.5 20.7a1.1 1.1 0 0 1-1 1 1 1 0 0 1-.9-1 1 1 0 0 1 .9-.9 1.1 1.1 0 0 1 1 .9zm80.8 2.3c-.4 1.2-1.7 1.4-1.7.3a.9.9 0 0 1 1-1c.5 0 .8.3.7.7zm60.7 6.7a.6.6 0 0 1-.6.6.6.6 0 1 1 0-1.2.6.6 0 0 1 .6.6zm-74.2 3.1c0 .3-.4.6-.9.6s-.9-.3-.9-.6.4-.6.9-.6.9.3.9.6zm-60.5 6.5c0 .1-.3.4-.7.6s-.6.1-.6-.3a.6.6 0 0 1 .6-.6c.4 0 .7.1.7.3zm74.3 12.3c.2.6 0 1-.5 1s-1.7-.9-1.1-1.5 1.3-.4 1.6.5zm-38 1.4c-.3 1.6-1.7 1.8-1.7.3s.4-1.3.9-1.3a.8.8 0 0 1 .8 1zm-24.6 17.5c0 .7-.3 1.1-.6.9a1.3 1.3 0 0 1-.6-1.2c0-.5.2-.9.6-.9s.6.5.6 1.2z" fill="#e95842"></path></g></g></svg>