<svg xmlns="http://www.w3.org/2000/svg" width="841.4" height="618.3" viewBox="-0.0048206946812570095 -0.017268160358071327 841.4048461914062 618.3060913085938" style=""><g><title>lovelic81_212665742</title><g data-name="Layer 2" style="isolation:isolate"><g fill="#a7aec4"><path d="M381.8 475.6a1.2 1.2 0 0 1-1.2-1.3V273.9a1.2 1.2 0 0 1 1.2-1.3 1.3 1.3 0 0 1 1.3 1.3v200.4a1.3 1.3 0 0 1-1.3 1.3z"></path><path d="M388 475.6a1.3 1.3 0 0 1-1.3-1.3V271.9a1.3 1.3 0 0 1 2.6 0v202.4a1.3 1.3 0 0 1-1.3 1.3z"></path><path d="M503.7 404.9a1.3 1.3 0 0 1-1.3-1.3v-197a1.3 1.3 0 0 1 2.6 0v197a1.3 1.3 0 0 1-1.3 1.3z"></path><path d="M509.9 404.9a1.3 1.3 0 0 1-1.3-1.3V201.2a1.3 1.3 0 0 1 2.6 0v202.4a1.3 1.3 0 0 1-1.3 1.3z"></path><path d="M633 335.3a1.2 1.2 0 0 1-1.3-1.2V136.6a1.3 1.3 0 0 1 2.6 0v197.5a1.2 1.2 0 0 1-1.3 1.2z"></path><path d="M639.2 335.3a1.2 1.2 0 0 1-1.3-1.2V135.3a1.3 1.3 0 1 1 2.6 0v198.8a1.2 1.2 0 0 1-1.3 1.2z"></path><path d="M809 335.3a1.2 1.2 0 0 1-1.2-1.2V136.6a1.2 1.2 0 0 1 1.2-1.2 1.2 1.2 0 0 1 1.3 1.2v197.5a1.2 1.2 0 0 1-1.3 1.2z"></path><path d="M815.2 335.3a1.2 1.2 0 0 1-1.2-1.2V135.3a1.2 1.2 0 0 1 1.2-1.3 1.3 1.3 0 0 1 1.3 1.3v198.8a1.2 1.2 0 0 1-1.3 1.2z"></path><path d="M246.7 548.8a1.2 1.2 0 0 1-1.3-1.2V347.1a1.2 1.2 0 0 1 1.3-1.2 1.2 1.2 0 0 1 1.2 1.2v200.5a1.2 1.2 0 0 1-1.2 1.2z"></path><path d="M252.8 548.8a1.2 1.2 0 0 1-1.2-1.2V345.2a1.2 1.2 0 0 1 1.2-1.3 1.3 1.3 0 0 1 1.3 1.3v202.4a1.2 1.2 0 0 1-1.3 1.2z"></path><path d="M119.9 564a1.3 1.3 0 0 1-1.3-1.3V412.2a1.3 1.3 0 0 1 1.3-1.3 1.2 1.2 0 0 1 1.2 1.3v150.5a1.2 1.2 0 0 1-1.2 1.3z"></path><path d="M126.1 566.6a1.3 1.3 0 0 1-1.3-1.3V410.2a1.2 1.2 0 0 1 1.3-1.2 1.2 1.2 0 0 1 1.2 1.2v155.1a1.2 1.2 0 0 1-1.2 1.3z"></path><path d="M3.2 480.9a3.4 3.4 0 0 1-2.8-1.7 3.1 3.1 0 0 1 1.3-4.3L634 132.5a2.6 2.6 0 0 1 1.5-.4h199.6l1.6 6.4H636.3L4.7 480.5a4.2 4.2 0 0 1-1.5.4z"></path></g><path d="M603.1 325.6v33.1h-63.2v33.7h-62.2V428h-60.5v36.9h-61v31.4h-59.8v32.8h-66.2v29h-56.6v24.4C332 633 565.3 645.8 732.5 514.4c61.4-48.3 95-117.2 108.9-188.8z" fill="#ffdfdd"></path><path d="M822.7 390.4l-219.6-64.8v33.1L806 426.6a320.4 320.4 0 0 0 16.7-36.2z" fill="#f4c1c1"></path><path d="M539.9 358.7v33.7l205 111.6a269.9 269.9 0 0 0 35.1-37.6z" fill="#f4c1c1"></path><path d="M477.7 392.4V428l172.6 137.6a456.7 456.7 0 0 0 44.2-24.5z" fill="#f4c1c1"></path><path d="M417.2 428v36.9l109.1 141.6c11.7-2.3 23.3-5 34.9-8.1z" fill="#f4c1c1"></path><path d="M356.2 464.9v31.4L391 618.2h23.8z" fill="#f4c1c1"></path><path d="M296.4 529.1h-2.1l3.4 81.6 4.6.7z" fill="#f4c1c1"></path><path d="M230.9 598.2l-.7-40.1v40z" fill="#f4c1c1"></path><g><path d="M612.6 379.9c10.2 9.1-1.2 7.7-4.5 9.4s1.4 41 1.4 41c-3.3 6.2-50.9 11.4-51.7 17s-15.8 32-15.8 32-51.3 14.9-76.8 5.5c0 0-3.4 2.7-5.7 2.1-5.8-1.3-3.1-12.6-3.1-12.6-2.6-8.3 49.7-18.9 61.4-14.5 0 0-3-37.2 1.3-39s34.3-14.8 45.7-14.8c0 0-1.6-33.5 6-33.5s32.3-1.1 41.8 7.4z" fill="#ffdfdd" opacity=".5" style="mix-blend-mode:multiply"></path><path d="M479.5 70c4.2 25.3-22.8 42.1-7.8 56.4s32.4-29.7 32.4-29.7z" fill="#133441"></path><path d="M479.2 34.1c-5.4-3.2-9.6-8.8-9.4-16.2S471 3.2 469.3.8s22.1 8.2 20.4 30.4z" fill="#fd9830"></path><path d="M472.7 28.1c-1.1.5-5.6-1.4-8.2-.6s-5 2.4-5 3.7 3.4 9.5 12.2 8.6 10-6.2 10-6.2z" fill="#fd9830"></path><path d="M471.3 70c-11.3-5.6-28.2-23.9-13.8-31.8 4.8-2.7 12 .6 15.6 0s8-10.3 15.3-9.2c16.4 2.4 22.7-8.4 32.1-2.3 22.7 14.8 5 44.8 11 50.9s22.5-.3 23.3 10.2-5.9 10.1-4.8 14.9c1.5 6.4 17.2 5.4 20 15.5 4.1 15.2-12 20.6-10.9 26.3s14.4 16.3-2 30.2c-11.9 10.2-24.6.3-28.8 1.1-6.2 1.2-6.6 16.7-25.9 13.8s-25.3-30.1-25.3-30.1l22.4-53.3L488.4 70z" fill="#133441"></path><path d="M497.4 121.5l29.4 64.3-9.5 4.8-36.8-60.1a9.6 9.6 0 0 1 3.2-13.1 9.4 9.4 0 0 1 13.1 3.1z" fill="#c12d65"></path><path d="M469.6 198.3l13.2-16.7s39.7 4.2 44.9 13c2.8 4.7-33.4 131-33.4 131l75.5 85-4.9 2.6-94.2-77z" fill="#ffb3b2"></path><path d="M482.9 482.1c1.4-3.3 6.4-13.2 8.4-15.4s7-1.3 7-1.3l-6.1 13.7-7.6 4.3z" fill="#ffb3b2"></path><path d="M470.2 277.7l.5 58.5 46.7 38.2 3.4-18.9-26.5-29.9s6.3-22 13.4-47.9z" fill="#fe748f"></path><path d="M471.7 180l19.5-8.5s33.1 22.5 33.5 32.7S498.2 466 498.2 466h-5.5z" fill="#ffa6a6"></path><path d="M482.9 482.1c9.1 2.4 8.3-10.8 15.4-16.7 3.1 1.5 4.2 5.3 3.9 6.5s-1.6 15.6-1.6 15.6h-1s.3-11.1-.6-11.4-1.8.6-1.9.7c-2.8 4.2-3.6 8.9-7.4 10.6-2 1-14.1-.1-14-1.8s2.5-.8 7.2-3.5z" fill="#133441"></path><path d="M557.1 427.4c1.4-3.3 6.4-13.3 8.4-15.4s7-1.3 7-1.3l-6.1 13.7-7.6 4.2z" fill="#ffb3b2"></path><path d="M557.1 427.4c9.1 2.3 8.3-10.9 15.4-16.7 3.1 1.5 4.2 5.2 3.9 6.5s-1.6 15.5-1.6 15.5h-1s.3-11.1-.6-11.4-1.8.7-1.9.7c-2.8 4.2-3.6 8.9-7.4 10.7-2 .9-14.1-.2-14.1-1.8s2.6-.8 7.3-3.5z" fill="#133441"></path><path d="M471.7 180c-7.2 11.1-54.6 88.2-58.2 93.3s2 10.5 5.6 12.1c15.3 6.8 52.6-105.4 52.6-105.4z" fill="#147d96"></path><path d="M471.7 180c-13.2-23.7-3.5-31.1-4.7-35.1s-6.3-14.5 2.8-20.2 23.3-12.7 24.4-31.8l9.7-9.5s3.2 34 2.2 44.5c-1.3 14.2-16.8 31.2-16.2 40.8S471.7 180 471.7 180z" fill="#ffb3b2"></path><path d="M471.7 180c-14.3 39.1-58.1 110.7-58.1 110.7s-2.9 22.5 38.1 33 20-143.7 20-143.7z" fill="#2b90af"></path><path d="M471.7 180c-13.2-23.7-3.5-31.1-4.7-35.1s-6.3-14.5 2.8-20.2a105.5 105.5 0 0 0 11.8-7.9c12.4 0 19.1-6 24.6-.5a86.5 86.5 0 0 1-.1 11.6c-1.3 14.2-16.8 31.2-16.2 40.8S471.7 180 471.7 180z" fill="#ee5885"></path><path d="M451.2 328.4h-.2c-17.9-3.7-29.7-10.6-35.2-20.4-4-7.2-3.3-14-2.2-17a1.2 1.2 0 0 1 1.6-.7 1.2 1.2 0 0 1 .8 1.6c-.9 2.5-1.5 8.5 2 14.8 5 9 16.6 15.7 33.5 19.2a1.3 1.3 0 0 1 1 1.5 1.3 1.3 0 0 1-1.3 1z" fill="#2b90af"></path><path d="M471.7 180c2.9 0 10.8-10.9 18.2-11.3 42.7 7.9 96 83.1 123.3 106.4-25.4 33.1-97.9 70-162.2 57.3 0-19.4 18.2-149.9 20.7-152.4z" fill="#32a9e3"></path><path d="M494.2 92.9a34.1 34.1 0 0 1-2.8 11.8c10.7-4.8 12.3-18.6 12.5-20.7l-.9.3z" fill="#fe748f"></path><path d="M480.1 100c3.8.7 22.8-7.3 25.2-20s1.9-50-26.4-34.4c-19.4 10.7-4.9 25.5-5.9 31.1s-4 6.9-4 6.9c2.1 3.9 4.4 2.8 4.4 2.8s2.6 12.9 6.7 13.6z" fill="#ffb3b2"></path><path d="M472.3 52.2l-1.5 10.2c6.8 9.9 25.5 2.6 27.1 3.6s-2.6-8.4-2.6-8.4z" fill="#fe748f"></path><path d="M471.3 70c-1.5-5.4-1.2-13.1 6.2-13.1s14.7 2.2 22.7-7.7-14.9-8.9-14.9-8.9l-24.4 8.5z" fill="#133441"></path><path d="M473.3 58.2c4.1 9.8 15.1 6.5 24.6 7.8 13.4 1.9 4.6 8.4 6.7 24l11.8-6.4.9-41.8-39 2.1z" fill="#133441"></path><path d="M503.9 84c.7-4.3 7.1-37.5-27.7-51.2l10.3-5.5s13.1 7.6 19.8 19.3c3.1 5.6 4.1 12.5 4.3 18.4a28.9 28.9 0 0 1-6.6 18.9z" fill="#fd9830"></path><path d="M510.6 119.1a1.1 1.1 0 0 1-.9-.4c-16.5-15.2-8.5-42.8-4.6-48.2a1.4 1.4 0 0 1 1.8-.3 1.3 1.3 0 0 1 .3 1.8c-2.6 3.5-11.6 30.3 4.2 44.9a1.3 1.3 0 0 1 .1 1.8 1.8 1.8 0 0 1-.9.4z" fill="#133441"></path><circle cx="501.9" cy="70" r="5.7" fill="#ffb3b2"></circle><circle cx="501.9" cy="70" r="2.7" fill="#fe748f"></circle><path d="M509.7 133a1 1 0 0 1-.9-.4c-20-19.7-7.9-51.2-7.4-52.6a1.4 1.4 0 0 1 1.6-.7 1.4 1.4 0 0 1 .8 1.7c-.2.3-12 31.3 6.7 49.8a1.4 1.4 0 0 1 .1 1.8 1.2 1.2 0 0 1-.9.4z" fill="#133441"></path><path d="M529.8 68.9h-.4a1.3 1.3 0 0 1-.8-1.6c8-24 3.6-33.9-1.4-38s-16-3.3-22.6.6a1.3 1.3 0 0 1-1.8-.4 1.4 1.4 0 0 1 .5-1.8c7.2-4.2 18.2-6.2 25.5-.4 5.6 4.6 10.2 15.4 1.8 40.8-.2.5-.3.8-.8.8z" fill="#133441"></path><path d="M546.8 224.7s-4-18.5-12.9-30.8a173.9 173.9 0 0 0-22.3-16.6 70.4 70.4 0 0 0-21.7-8.6c11.2 20.7 48.9 56 56.9 56z" fill="#0096d1"></path><path d="M504.3 121.5l44.3 96.8a3.2 3.2 0 0 1-5.6 3l-55.6-90.8a9.6 9.6 0 0 1 3.2-13.1 9.4 9.4 0 0 1 13.1 3.1z" fill="#ffb3b2"></path><path d="M486.1 126.8a70.3 70.3 0 0 0 6.1 33c2.2-4.8 5.5-10.3 8.3-15.9z" fill="#d13b6d"></path><path d="M488.7 36.3l-.6-.2a1.4 1.4 0 0 1-.5-1.8c2.7-4.5 3.9-12.7.5-19.9-2.2-4.5-7.1-10.3-17.9-11.9a1.2 1.2 0 0 1-1.1-1.4 1.2 1.2 0 0 1 1.4-1.1c12 1.8 17.4 8.2 19.9 13.3 3.8 8 2.4 17.2-.6 22.3a1.4 1.4 0 0 1-1.1.7z" fill="#fd9830"></path><path d="M504.3 121.5l29.4 64.3-9.5 4.8-36.8-60.1a9.6 9.6 0 0 1 3.2-13.1 9.4 9.4 0 0 1 13.1 3.1z" fill="#ee5885"></path><path d="M486.4 336.8c-15.7 0-28.2-2-34.4-4.1a1.2 1.2 0 0 1-.8-1.6 1.2 1.2 0 0 1 1.6-.8c10.3 3.5 38 6.7 68.7.6 26.6-5.3 63.6-19.4 88.8-56.5a1.3 1.3 0 0 1 2.1 1.4c-25.6 37.8-63.3 52.2-90.5 57.6a183.8 183.8 0 0 1-35.5 3.4z" fill="#32a9e3"></path><path d="M553.8 206.4a35.5 35.5 0 0 1-4.4-2.1 9.7 9.7 0 0 1-4.4-9.5 10.2 10.2 0 0 1 6.5-8.5 16.3 16.3 0 0 1 10.9-.4c7.7 2 13.9 6.5 19.1 12.4a2.8 2.8 0 0 1 .7 2.6 29.5 29.5 0 0 1-3.1 8.9 32.3 32.3 0 0 1-7.9 10.4c-3.3 2.9-7 4.9-11.5 4.9a10.3 10.3 0 0 1-6.5-18.2z" fill="#c12d65"></path><path d="M547.9 217.2l12.9 6.1h-1.2l8.9-2.3a1.3 1.3 0 0 1 1.6.9 1.4 1.4 0 0 1-.8 1.5l-8.5 3.5h-1.2l-14-2.4a3.9 3.9 0 0 1-3.1-4.5 3.7 3.7 0 0 1 4.4-3.1z" fill="#ffb3b2"></path><path d="M552.7 220.5l7.2-1.2-.9.7 3.7-5.8a1.4 1.4 0 0 1 1.8-.3 1.2 1.2 0 0 1 .4 1.6l-3.2 6.2a1 1 0 0 1-.6.5l-.3.2-6.6 3a2.6 2.6 0 0 1-3.4-1.3 2.6 2.6 0 0 1 1.3-3.4z" fill="#ffb3b2"></path><path d="M558.6 214.9l-2.3 6a1.2 1.2 0 0 1-.7.7h-.2l-4.2 1.8a1.9 1.9 0 0 1-1.5-3.5h.3l4.3-1.2-.9.9 2.9-5.8a1.2 1.2 0 0 1 1.7-.5 1.2 1.2 0 0 1 .6 1.6z" fill="#ffb3b2"></path></g><g><path d="M181.9 203.6c6.6-3.3 28.9-3.9 34 .5 0 6.6-6.4 17.3-17.9 21.8-3.7.3-16.2-13.3-16.1-22.3z" fill="#ee5885"></path><path d="M146.1 247.8c0-8.2 2.4-24 16.2-32.8 5.7 3.2 11.8 13.6 14.6 27.7-1.6 3.4-23.2 8.9-30.8 5.1z" fill="#ee5885"></path><path d="M213 223.4c7.8-2.6 23.5-5.3 36.2 5-1.1 6.5-9.2 15.5-21.6 22.6-3.7-.4-15.8-19.2-14.6-27.6z" fill="#ee5885"></path><path d="M235.1 301.1a1.3 1.3 0 0 1-1.2-.9c-1.5-4.6-6.3-10.2-11.9-16.6-11.8-13.6-27.9-32.2-25.3-57.8a1.2 1.2 0 0 1 1.4-1.1 1.3 1.3 0 0 1 1.2 1.4c-2.5 24.5 12.5 41.8 24.6 55.8 5.8 6.7 10.7 12.4 12.4 17.5a1.3 1.3 0 0 1-.8 1.7z" fill="#175384"></path><path d="M231.1 288.2a1.4 1.4 0 0 1-1-.5c-19.1-22-54-43.1-54.3-43.3a1.3 1.3 0 0 1-.4-1.8 1.2 1.2 0 0 1 1.7-.4c1.4.9 35.5 21.6 55 43.9a1.3 1.3 0 0 1-.2 1.8 1.1 1.1 0 0 1-.8.3z" fill="#175384"></path><path d="M189.2 220.2c3.3-1.8 7.1 1.7 7.1 1.7a6.7 6.7 0 0 1 3-5 8.6 8.6 0 0 1 2.4 5s4-3 6.8-2c-5.1 2.9-10.8 12.2-10.8 12.2s-1.2-8-8.5-11.9z" fill="#175384"></path><path d="M159.4 251.3c-.4-4.4 9.1-7.3 9.1-7.3a8.6 8.6 0 0 1-3.9-6.4c3.7-2.2 8.8 1.1 8.8 1.1s-2.7-6.6 1.2-10.6c3.9 14.9 10.3 20.6 10.3 20.6s-13.2-1.9-25.5 2.6z" fill="#175384"></path><path d="M208.4 203.1c8.3-3.4 8-21.1 8.7-30.1-9.7 6.7-14.2 24-8.7 30.1z" fill="#2e71b5"></path><path d="M251.7 343.6a1 1 0 0 1-1-.5c-43.4-57.4-51.5-133.3-37.7-158.3a1.3 1.3 0 0 1 1.7-.5 1.3 1.3 0 0 1 .5 1.8c-11.4 20.8-8.6 94.5 37.5 155.5a1.3 1.3 0 0 1-.3 1.8z" fill="#2e71b5"></path><path d="M237.5 346.3a1.2 1.2 0 0 1-1.2-1.3c.2-21.7-5.8-40-8.4-47.9l-.4-1.3c-2.5-7.9-8.7-21.8-20.8-25.2-10.3-2.9-23.1 2-38 14.6a1.2 1.2 0 1 1-1.6-1.9c15.5-13.2 29.1-18.3 40.3-15.2s19.2 16.7 22.5 27l.5 1.2c2.6 8 8.6 26.6 8.4 48.8a1.2 1.2 0 0 1-1.3 1.2z" fill="#2e71b5"></path><path d="M136.7 311.9s21.3-29.3 31.8-28.2c3.4 8.7-19.3 31.7-31.8 28.2z" fill="#2e71b5"></path><path d="M178.4 280.1c-1.9 5.2 1.5 28.2 19 32.4 2.6-14.4-11.3-30.3-19-32.4z" fill="#2e71b5"></path><path d="M186.4 272.8c0 4.1 11.4 13.3 20.5 12.4-.8-9-14.6-14.7-20.5-12.4z" fill="#2e71b5"></path><path d="M192.6 253.5c-2.4-3.2-17.1-3.4-23.7 2.8 6.1 6.6 20.5 2.7 23.7-2.8z" fill="#175384"></path><path d="M173.1 288.4c-6.1 3.4-2.9 29.8 9.6 35.8.5-7.9-5-30-9.6-35.8z" fill="#2e71b5"></path><path d="M178 316.9a1.4 1.4 0 0 1-1.1-.6c-7.1-13.2-5.7-34.4-4.2-37.3a1.2 1.2 0 0 1 1.7-.6 1.3 1.3 0 0 1 .6 1.7c-1 1.9-2.9 22 4.2 34.9a1.3 1.3 0 0 1-.6 1.8z" fill="#2e71b5"></path><path d="M190.6 305.1a1.4 1.4 0 0 1-.9-.3c-7.3-7.7-13.6-26.6-13.2-28.3a1.1 1.1 0 0 1 1.5-.9 1.3 1.3 0 0 1 1 1.3c.2 1.6 5.6 18.8 12.5 26.1a1.3 1.3 0 0 1 0 1.8 1.6 1.6 0 0 1-.9.3z" fill="#2e71b5"></path><path d="M188.1 211.9c6.8-3.3 19.3 3.9 20.4 11.4-8.1 1.9-14.8-5.5-20.4-11.4z" fill="#2e71b5"></path><path d="M208.9 222.3c7.4-.7 13.8-7.9 17.7-12.7-8.5-2.3-19.3 9-17.7 12.7z" fill="#2e71b5"></path><path d="M239.8 574.4c16.7 10.3 45 6.8 56.4 2 1.5-.6 2.3-5.2 3.2-5.6 7.3-3.6 63.6-1.6 78.2 0 3.8.4 4-18.7 11.5-20.2 21.5-4.2 54.5-3.8 41.3-25.4-5.5-8.8-28.4-13.9-55.3-10.8-4.4.5-5.3 12.8-9.9 13.5-21.6 3.5-47.6 1.1-68.3 8.2-.8.2-1.4 3.6-2.2 3.9-29 10-49.1 22-55 29.4z" fill="#ffdfdd" opacity=".5" style="mix-blend-mode:multiply"></path><path d="M207.3 273.9c-1 5.8 5.3 21.4 18.5 25 9.4 2.6 9.5-27 9.5-27z" fill="#ffb3b2"></path><path d="M407.3 249.7a54.9 54.9 0 0 1 17-3.8l-19.2 10.5z" fill="#ffb3b2"></path><path d="M364.5 237.7c3.1.2 4.3 30.3-3 30s-3.2-30.5 3-30z" fill="#e58a1f"></path><path d="M354 262.3c4.7-.8 50-2.7 50-2.7l3.3-9.9-50.3-13.2z" fill="#ffb3b2"></path><path d="M364.5 237.7c-10.2-3-22.3-7.2-25.5-11.4-5.8-7.5-15-54.9-27.8-67s-32-7.2-29.2 14.7c1.9 14 12.3 58.3 34.1 79.7 9.7 9.5 30.2 13 45.4 14 3.7-3.7-6.6-20.5 3-30z" fill="#faac3e"></path><path fill="#ffa6a6" d="M243.9 545.3l-.6 14.4 10.6 4.5 5-20.6-15 1.7z"></path><path fill="#ffa6a6" d="M383 498l1 13 9.6 2.6 3.1-15.5-13.7-.1z"></path><path d="M307.1 309.8c1.4 16.3-22.2 171.4-48.6 238.4h-15.2s-16.5-141.7-20.9-235.6z" fill="#175384"></path><path d="M222.4 312.6l61.4-4.7s92.6 21.9 108 57.2 4.6 138.5 4.6 138.5l-15.6.5s-18.3-96.2-26.7-103-140-8.5-131.7-88.5z" fill="#2e71b5"></path><path d="M302.5 147.1l5.4 5.1-1.2 1.5s7.8 16.1 8.3 72.5c.4 49.7-12.8-49.2-15.2-73.6-.3-3.2 2.7-5.5 2.7-5.5z" fill="#e58a1f"></path><path d="M290 309.5l-6.2-1.6s-61.2 2.7-61.4 4.7c2.4 13 31.1 23.8 59.7 23.8 2.9-9.4 5.5-18.4 7.9-26.9z" fill="#175384"></path><path d="M282 318.2c8.5.7 23.7-1 31.1-4s.3-153.7-12.5-160.5z" fill="#fff"></path><path d="M282 318.2a48.6 48.6 0 0 0 5.5.1c12.3-39.5 16.8-96 18.3-114.4z" fill="#c7e6ff"></path><path d="M301 154.8s7.9-15 10-26.5l-21.6-14a41.1 41.1 0 0 1-8.8 14z" fill="#ffb3b2"></path><path d="M388 504.5a1.2 1.2 0 0 1-1.2-1.1c-.1-1.1-8.2-107.7-14.4-121.7-2.6-5.9-16-10.6-32.9-16.6-22-7.8-52.2-18.5-75.5-38.1a1.3 1.3 0 0 1-.2-1.8 1.4 1.4 0 0 1 1.8-.2c23 19.3 52.9 29.9 74.7 37.7 18.3 6.4 31.4 11.1 34.4 17.9 6.4 14.5 14.3 118.2 14.6 122.6a1.2 1.2 0 0 1-1.2 1.3z" fill="#175384"></path><path d="M300.6 153.7c1.6 6.7 19.8 46.1-20.6 176.5-28.7 0-56.1-7.9-57.6-17.6 4.5-50.1-.7-166.5 58.2-184.3z" fill="#faac3e"></path><path d="M230.3 212.9c-4.4 27.7-5.5 57.2-6.6 80.2 54.1-27 65.5-127 50.2-133.8z" fill="#e58a1f"></path><path d="M207.3 273.9s.5-17.5 6.9-42.1c2.4-9.3 17-50.4 25.9-65.2s30.6-20.9 37.6.1c4.3 12.7-12.6 82.4-53.4 113.2z" fill="#faac3e"></path><g><path d="M379.9 521.6s.7 5.3 1.5 5.7c2.9 1.4 21.2-.2 22.9 1 3.2 2.3 24.3-.6 26.1-3.1s0-5.6 0-5.6z" fill="#fff"></path><path d="M380.3 522.1c-1.3-.4.3-10.4 3.2-12.2 1.2-.7 5.1 3.1 9.2.9s3.8-5.8 4.7-6.2c2.7-1.1 15.7 11.2 15.7 11.2s18.7 2.8 17.2 3.9c-9.4 7-45 4.1-50 2.4z" fill="#133441"></path><path d="M399.7 512.9a1.2 1.2 0 0 1-.9-.4 1.2 1.2 0 0 1 0-1.7l4.3-4.2a1.2 1.2 0 1 1 1.7 1.8l-4.2 4.2a1.6 1.6 0 0 1-.9.3z" fill="#fff"></path><path d="M404.5 517.2a1.6 1.6 0 0 1-.9-.3 1.4 1.4 0 0 1 0-1.8l4.3-4.2a1.3 1.3 0 0 1 1.8 1.8l-4.3 4.2a1.4 1.4 0 0 1-.9.3z" fill="#fff"></path></g><g><path d="M238.9 569.2s.5 5.3 1.3 5.7c2.9 1.4 21.3.3 22.9 1.6s24.3 0 26.1-2.4.3-5.7.3-5.7z" fill="#fff"></path><path d="M239.2 569.7c-1.2-.5.6-10.4 3.6-12.2 1.2-.7 5 3.2 9.1 1.2s4-5.7 4.9-6.1c2.8-1.1 15.4 11.6 15.4 11.6s18.6 3.3 17.1 4.3c-9.6 6.8-45.1 3-50.1 1.2z" fill="#133441"></path><path d="M258.9 561a1.8 1.8 0 0 1-.9-.4 1.3 1.3 0 0 1 .1-1.8l4.3-4.1a1.4 1.4 0 0 1 1.8.1 1.3 1.3 0 0 1 0 1.8l-4.4 4a1.2 1.2 0 0 1-.9.4z" fill="#fff"></path><path d="M263.6 565.4a1.2 1.2 0 0 1-.9-.4 1.3 1.3 0 0 1 .1-1.8l4.4-4a1.1 1.1 0 0 1 1.7 0 1.3 1.3 0 0 1 0 1.8l-4.4 4.1a1.6 1.6 0 0 1-.9.3z" fill="#fff"></path></g><path fill="#e58a1f" d="M273.9 130.8l16.3 31.1 10.4-8.2 1 3.3-11 8-16.7-34.2z"></path><path d="M401.5 254.8h2.4l5.3.3 2.8.5a14.9 14.9 0 0 1 2.5.7 2.3 2.3 0 0 1 1 .5 2 2 0 0 1 .8.4l.7.4a1.9 1.9 0 0 1 .6 2.6 2 2 0 0 1-2.3.8l-.3-.2h-.5l-.5-.2-.7-.2-1.9-.2H409a27.3 27.3 0 0 0-4.5.6l-1.5.3h-.6a3.2 3.2 0 0 1-1.5-6.2z" fill="#ffb3b2"></path><path d="M299.3 120.7l-11.4-2.8c4.2 8.6 13.1 17.4 20.1 20.9a61.7 61.7 0 0 0 3-10.5z" fill="#fe748f"></path><path d="M323.2 127.8c-2.3 3-21.4 2.7-38.8-12.8S281 73.9 300 75.1s28.4 13.8 28.4 13.8l1.9 25.2a12.1 12.1 0 0 1-5-.2c-2 2.5-.5 11.7-2.1 13.9z" fill="#ffb3b2"></path><path d="M328.4 88.9a33.2 33.2 0 0 0-7.4-6.6l-8.8 2.8c2.9 3.5 9.6 7.5 16.5 8.3z" fill="#fe748f"></path><path d="M286.6 120.3c9.9-13.7 21.4-12.5 24.4-34.3.5-3.9 8.8 5.7 21 2.2 17.5-5.1 13.5-30.3-4.6-30.3-6.8 0-7.1 5.1-9.2 5.2s-13.7-14.6-23.3-9.4c-6.6 3.6-3.6 11.4-7.2 13.5s-8.1-3.7-15.6 3.1-1.9 21.3.7 23.9c6.1 5.9 1.1 13 13.8 26.1z" fill="#133441"></path><path d="M292.5 99.6a6.6 6.6 0 1 0 8.2-4.4 6.5 6.5 0 0 0-8.2 4.4z" fill="#ffb3b2"></path><path d="M301.9 101.4a3.2 3.2 0 1 0-3.2 3.2 3.1 3.1 0 0 0 3.2-3.2z" fill="#fe748f"></path><path d="M287.7 68.5a1.2 1.2 0 0 1-1.3-1.2c-.5-10.1 1.7-16.1 6.7-18.1 8-3 20.3 6 26.1 13.1a1.3 1.3 0 0 1-.2 1.8 1.2 1.2 0 0 1-1.8-.2c-5.4-6.6-16.7-14.8-23.2-12.3-4.7 1.9-5.4 9.5-5.1 15.6a1.2 1.2 0 0 1-1.2 1.3z" fill="#133441"></path><path d="M276.9 100.6l-.9-.3c-12.6-11.5-13.8-19.6-12.6-24.4s5.5-8.4 11.6-9.9 13.1-.1 16.4 3.7a1.3 1.3 0 0 1-.1 1.8 1.3 1.3 0 0 1-1.8-.2c-2.6-3-8.3-4.1-13.9-2.8s-8.8 4.2-9.8 8.1.2 11.1 11.9 21.8a1.2 1.2 0 0 1 .1 1.8 1.1 1.1 0 0 1-.9.4z" fill="#133441"></path><path d="M328.4 88.9a13.1 13.1 0 0 1-5.9-1.3 1.2 1.2 0 0 1-.5-1.7 1.3 1.3 0 0 1 1.7-.6c5.3 2.7 13.2.2 17.9-5.7 2.2-2.7 6.7-10-.2-18.8a1.3 1.3 0 0 1 2-1.6c5.6 7.1 5.6 15.3.2 22.1-4 4.8-9.9 7.6-15.2 7.6z" fill="#133441"></path></g></g></g></svg>