<svg xmlns="http://www.w3.org/2000/svg" width="1057" height="1057" viewBox="0 0 1057 1057" style=""><g><defs><radialGradient id="a" cx="528.51" cy="528.51" r="528.51" gradientUnits="userSpaceOnUse"><stop offset="0" stop-color="#fcc519"></stop><stop offset=".57" stop-color="#fcc319"></stop><stop offset=".77" stop-color="#fabc1b"></stop><stop offset=".91" stop-color="#f8b11d"></stop><stop offset="1" stop-color="#f6a520"></stop></radialGradient></defs><title>licemoji14_107225338</title><g data-name="Layer 2"><path d="M1057 528.5c0 291.9-236.6 528.5-528.5 528.5S0 820.4 0 528.5 236.6 0 528.5 0 1057 236.6 1057 528.5z" fill="url(#a)"></path><path d="M385.8 636.1h.1a24.9 24.9 0 0 1 25-25 25.1 25.1 0 0 1 25.1 25c.3 56.8 41.7 81.1 91.5 82.7 50.4-1.2 93.4-28 93.5-79.8a25 25 0 0 1 25-25 25 25 0 0 1 25 25c-.1 86-75.8 129.7-143.5 129.8-67.3-.1-141.6-44.2-141.7-132.7z" fill="#422918"></path><g fill="#e62d4c"><path d="M240.8 350.2c-54.1-82.1-155.6-42.8-150 48s129.8 149.9 150 159.1c20.2-9.2 144.5-69.8 150-159.1s-96-130.1-150-48z"></path><path d="M816.2 350.2c-54.1-82.1-155.6-42.8-150 48s129.8 149.9 150 159.1c20.2-9.2 144.5-69.8 150-159.1s-95.9-130.1-150-48z"></path></g></g></g></svg>