<svg xmlns="http://www.w3.org/2000/svg" xmlns:xlink="http://www.w3.org/1999/xlink" width="1042.8" height="724.5" viewBox="0 0 1042.8 724.5">
  <defs>
    <linearGradient id="GradientFill_14" data-name="GradientFill 14" x1="955.91" y1="551.71" x2="905.08" y2="412.06" gradientUnits="userSpaceOnUse">
      <stop offset="0" stop-color="#c73d66"/>
      <stop offset="1" stop-color="#a02548"/>
    </linearGradient>
    <linearGradient id="GradientFill_14-2" x1="205.77" y1="551.7" x2="154.94" y2="412.05" xlink:href="#GradientFill_14"/>
  </defs>
  <title>banner142_31676249</title>
  <g id="Layer_2" data-name="Layer 2">
    <g id="Layer_2-2" data-name="Layer 2">
      <g id="banner142_31676249">
        <path d="M567.5,712.3a93.2,93.2,0,0,1-92.2,0,92.9,92.9,0,0,1-89.1-23.9,93.2,93.2,0,0,1-79.8-46,93.6,93.6,0,0,1-41.2-24,92.4,92.4,0,0,1-23.9-41.2,93.2,93.2,0,0,1-46.1-79.8,93.4,93.4,0,0,1-23.9-89,93.4,93.4,0,0,1,0-92.3,93.4,93.4,0,0,1,23.9-89,93.2,93.2,0,0,1,46.1-79.8,92.4,92.4,0,0,1,23.9-41.2,93.6,93.6,0,0,1,41.2-24,93.2,93.2,0,0,1,79.8-46,92.9,92.9,0,0,1,89.1-23.9,93.2,93.2,0,0,1,92.2,0,93.6,93.6,0,0,1,47.6.1,92.2,92.2,0,0,1,41.4,23.8,94.1,94.1,0,0,1,46,12.4,93.1,93.1,0,0,1,33.8,33.6,93.5,93.5,0,0,1,65.2,65.2,92.8,92.8,0,0,1,46,79.8,92.8,92.8,0,0,1,23.9,89,93.4,93.4,0,0,1,0,92.3,92.6,92.6,0,0,1-.1,47.6,93.5,93.5,0,0,1-23.7,41.4,94.2,94.2,0,0,1-12.5,46,93.1,93.1,0,0,1-33.6,33.8,93.6,93.6,0,0,1-24,41.2,92.5,92.5,0,0,1-41.2,24A93.1,93.1,0,0,1,702.5,676a94.1,94.1,0,0,1-46,12.4,92.8,92.8,0,0,1-89,23.9Z" fill="#e3e3e2" fill-rule="evenodd"/>
        <path d="M648.2,668.3a73.6,73.6,0,0,1-83.6,22.4,73.8,73.8,0,0,1-86.5,0,73.4,73.4,0,0,1-83.5-22.4A73.3,73.3,0,0,1,319.7,625a73.4,73.4,0,0,1-61.1-61.1A73.4,73.4,0,0,1,215.4,489,73.4,73.4,0,0,1,193,405.5a73.4,73.4,0,0,1,0-86.5,73.4,73.4,0,0,1,22.4-83.5,73.4,73.4,0,0,1,43.2-74.9,73.4,73.4,0,0,1,61.1-61.1,73.3,73.3,0,0,1,74.9-43.3,73.4,73.4,0,0,1,83.5-22.4,73.8,73.8,0,0,1,86.5,0,73.6,73.6,0,0,1,83.6,22.4,74.3,74.3,0,0,1,44.4,9.4A73.2,73.2,0,0,1,723,99.4a73.9,73.9,0,0,1,61.2,61.2,73.4,73.4,0,0,1,43.2,74.9A73.4,73.4,0,0,1,849.8,319a73.4,73.4,0,0,1,0,86.5A73.4,73.4,0,0,1,827.4,489a73.4,73.4,0,0,1-43.2,74.9A73.3,73.3,0,0,1,723,625a72.3,72.3,0,0,1-30.4,33.8A73.5,73.5,0,0,1,648.2,668.3Z" fill="#d4d4d3" fill-rule="evenodd"/>
        <polygon points="1042.8 313.3 848.2 313.3 848.2 512 1042.8 512 994 412.6 1042.8 313.3" fill="#e8c7a1"/>
        <rect x="848.2" y="313.3" width="120.7" height="198.67" fill="#e8b8a1"/>
        <polygon points="944.7 264.7 848.2 313.2 848.2 512 944.7 463.5 944.7 264.7" fill="url(#GradientFill_14)"/>
        <rect x="663.8" y="264.8" width="280.9" height="198.67" fill="#e8c7a1"/>
        <path d="M663.8,264.8H849.3a90.6,90.6,0,0,1,2.9,8.8,74.1,74.1,0,0,1-2.4,45.4,73.4,73.4,0,0,1,0,86.5,74.1,74.1,0,0,1,2.4,45.4,67.9,67.9,0,0,1-4.7,12.6H663.8Z" fill="#e8b8a1"/>
        <polygon points="0 313.3 194.5 313.3 194.5 512 0 512 48.8 412.6 0 313.3" fill="#e8c7a1"/>
        <rect x="73.9" y="313.3" width="120.7" height="198.67" fill="#e8b8a1"/>
        <polygon points="98.1 264.7 194.5 313.2 194.5 512 98.1 463.5 98.1 264.7" fill="url(#GradientFill_14-2)"/>
        <rect x="98.1" y="264.8" width="280.9" height="198.67" fill="#e8c7a1"/>
        <path d="M379,264.8H193.5a90.6,90.6,0,0,0-2.9,8.8A72.7,72.7,0,0,0,193,319a73.4,73.4,0,0,0,0,86.5,72.7,72.7,0,0,0-2.4,45.4,67.7,67.7,0,0,0,4.6,12.6H379Z" fill="#e8b8a1"/>
        <path d="M682.7,641.7a53.8,53.8,0,0,1-40.8,5.4,3.8,3.8,0,0,0-4.4,1.8,53.6,53.6,0,0,1-73.4,19.7,3.7,3.7,0,0,0-4.7.6,53.6,53.6,0,0,1-76,0,3.7,3.7,0,0,0-4.7-.6,53.8,53.8,0,0,1-73.5-19.7,3.7,3.7,0,0,0-4.4-1.8,53.9,53.9,0,0,1-40.8-5.4,53.3,53.3,0,0,1-25-32.6,3.8,3.8,0,0,0-3.8-2.9,53.8,53.8,0,0,1-53.7-53.8,3.8,3.8,0,0,0-2.9-3.8,53.1,53.1,0,0,1-32.7-25,53.9,53.9,0,0,1-5.3-40.8,3.9,3.9,0,0,0-1.9-4.4A53.5,53.5,0,0,1,215.1,405a3.7,3.7,0,0,0-.7-4.7,54,54,0,0,1,0-76.1,3.7,3.7,0,0,0,.7-4.7,53.5,53.5,0,0,1,19.6-73.4,3.9,3.9,0,0,0,1.9-4.4,53.9,53.9,0,0,1,5.3-40.8,52.9,52.9,0,0,1,32.7-25,3.8,3.8,0,0,0,2.9-3.8,53.6,53.6,0,0,1,53.7-53.8,3.8,3.8,0,0,0,3.8-2.9,53.8,53.8,0,0,1,65.8-38,3.7,3.7,0,0,0,4.4-1.8,53.8,53.8,0,0,1,73.5-19.7,3.7,3.7,0,0,0,4.7-.6,53.6,53.6,0,0,1,76,0,3.7,3.7,0,0,0,4.7.6,53.6,53.6,0,0,1,73.4,19.7,3.8,3.8,0,0,0,4.4,1.8,53.9,53.9,0,0,1,65.9,38,3.7,3.7,0,0,0,3.7,2.9,53.6,53.6,0,0,1,53.8,53.8,3.8,3.8,0,0,0,2.9,3.8,53.5,53.5,0,0,1,38,65.8,3.7,3.7,0,0,0,1.8,4.4,53.6,53.6,0,0,1,19.7,73.4,3.8,3.8,0,0,0,.6,4.7,53.7,53.7,0,0,1,0,76.1,3.8,3.8,0,0,0-.6,4.7A53.6,53.6,0,0,1,808,478.4a3.7,3.7,0,0,0-1.8,4.4,53.5,53.5,0,0,1-38,65.8,3.8,3.8,0,0,0-2.9,3.8,53.8,53.8,0,0,1-53.8,53.8,3.7,3.7,0,0,0-3.7,2.9A53.4,53.4,0,0,1,682.7,641.7Z" fill="#a4a4a4" fill-rule="evenodd"/>
        <path d="M490.3,62.2a43.9,43.9,0,0,1,62.2,0A13.6,13.6,0,0,0,569,64.4a43.7,43.7,0,0,1,60.1,16.1,13.4,13.4,0,0,0,15.4,6.3,43.9,43.9,0,0,1,33.4,4.4,44.5,44.5,0,0,1,20.5,26.7,13.5,13.5,0,0,0,13.2,10.2,43.7,43.7,0,0,1,43.9,44,13.6,13.6,0,0,0,10.2,13.2,43.9,43.9,0,0,1,31.1,53.9,13.3,13.3,0,0,0,6.4,15.3,44,44,0,0,1,16.1,60.1,13.5,13.5,0,0,0,2.1,16.5,43.8,43.8,0,0,1,0,62.3,13.5,13.5,0,0,0-2.1,16.5A44,44,0,0,1,803.2,470a13.4,13.4,0,0,0-6.4,15.3,43.8,43.8,0,0,1-4.4,33.4,43.2,43.2,0,0,1-26.7,20.5,13.5,13.5,0,0,0-10.2,13.2,43.5,43.5,0,0,1-12.8,31.2,44.2,44.2,0,0,1-31.1,12.8,13.5,13.5,0,0,0-13.2,10.2,44,44,0,0,1-53.9,31.1,13.4,13.4,0,0,0-15.4,6.3A43.7,43.7,0,0,1,569,660.1a13.6,13.6,0,0,0-16.5,2.2,43.9,43.9,0,0,1-62.2,0,13.6,13.6,0,0,0-16.5-2.2A43.7,43.7,0,0,1,413.7,644a13.5,13.5,0,0,0-15.4-6.3,44,44,0,0,1-53.9-31.1,13.5,13.5,0,0,0-13.2-10.2,43.9,43.9,0,0,1-44-44,13.5,13.5,0,0,0-10.1-13.2A43.8,43.8,0,0,1,246,485.3a13.5,13.5,0,0,0-6.4-15.3,43.8,43.8,0,0,1-20.5-26.7,43.3,43.3,0,0,1,4.4-33.4,13.5,13.5,0,0,0-2.2-16.5,44.1,44.1,0,0,1,0-62.3,13.5,13.5,0,0,0,2.2-16.5,43.3,43.3,0,0,1-4.4-33.4,43.8,43.8,0,0,1,20.5-26.7,13.5,13.5,0,0,0,6.4-15.3,43.8,43.8,0,0,1,31.1-53.9,13.6,13.6,0,0,0,10.1-13.2,43.9,43.9,0,0,1,44-44,13.5,13.5,0,0,0,13.2-10.2,44,44,0,0,1,53.9-31.1,13.5,13.5,0,0,0,15.4-6.3,43.7,43.7,0,0,1,60.1-16.1A13.6,13.6,0,0,0,490.3,62.2Z" fill="#c4c3c0" fill-rule="evenodd"/>
        <path d="M521.4,85.7a276.6,276.6,0,1,1-195.6,81,275.4,275.4,0,0,1,195.6-81Zm181.6,95a256.8,256.8,0,1,0,75.2,181.5A256.1,256.1,0,0,0,703,180.7Z" fill="#d9d9d9"/>
      </g>
    </g>
  </g>
</svg>
