<svg xmlns="http://www.w3.org/2000/svg" width="1002.8" height="1002.8" viewBox="0 0 1002.8 1002.8">
  <title>emoji31_292786352</title>
  <g id="Layer_2" data-name="Layer 2">
    <g id="emoji31_292786352">
      <g>
        <circle cx="501.4" cy="501.4" r="501.4" fill="#ffc905"/>
        <g>
          <path d="M802.5,760.5a12.9,12.9,0,0,0,2.9-.3,9.7,9.7,0,0,0,6.8-5.6c2-4.7-.5-8.6-1.3-10l-.9-1-1.9-1.5-1.2-.7-1.7-.5-1-.2h-3.1c-2.8.6-6.5,2.5-8.3,8.4v1.8l.6,3.3.8,1.6,1.4,1.8,1.5,1.2,3.1,1.4Z" fill="#fcba04"/>
          <path d="M826.9,721.1l-1,.2-1.9.8-1,.5-1.2.9-.7.8-1.3,1.6-.7,1.4a20.3,20.3,0,0,0-1.3,4.6,10.6,10.6,0,0,0,7.9,11.5h2l3.5-.8,1.8-1,1.1-1a10.5,10.5,0,0,0,4.6-5.4l.6-.4.9-.9.6-.9.4-1.1.5-2.1v-1.6a9,9,0,0,0-1.5-5.7,9.7,9.7,0,0,0,3.3-3.7,7.2,7.2,0,0,0,1-2.9h1.2l2.1-.6,1-.5,1.2-.9.8-.8,1.3-1.6.5-1a13.1,13.1,0,0,0,.9-4.6,14,14,0,0,0,11.5.8l1.2-.8,2-1.9.9-1.3.7-1.7.3-1.4v-2.8l-.2-1.5a8.3,8.3,0,0,0-.7-1.3,11.1,11.1,0,0,0-2.3-7.9l-.5-1.4-.5-.9-1.2-1.5-.7-.8a10,10,0,0,0-8.2-1.9h-.6l-2.1.2-1.5.6-2.6,1.6-1.2,1.2-.7,1.1a11.6,11.6,0,0,0-.9,9.9H846l-2.1-.2-1.3.4a10.1,10.1,0,0,0-6.8,6h-1.1l-1.6.4-2.7,1.2-1.3.9-1.7,1.9-.9,1.3a10,10,0,0,0-1.1,4.7l.3,1.3-.3,1.5a11.7,11.7,0,0,0,2.8,6.5l-.3.2A4.7,4.7,0,0,0,826.9,721.1Z" fill="#fcba04"/>
          <path d="M881.3,827.4l-1.1-1-1.5-.8-1.5-.4-3-.2-1.5.2-1.2.4a7.6,7.6,0,0,0-1.8-2.2l-.8-.5-1.4-.7-.9-.3-1.3-.3h-1.5a10.2,10.2,0,0,0,7.2-7.3,10.6,10.6,0,0,0-1.8-9.3,9.9,9.9,0,0,0,5.4-2.3l.6-.5.6-.7.8-.5,1.4-1.4,1.8-3.1.5-2v-2.3l-.6-1.9-1.9-3.2-1.5-1.3c-1.7-.9-4.5-4.6-5.6-6l-1.4-1.2-2.9-1.4-1.7-.4h-2.1l-1.9.5-2.9,1.7-1.4,1.3-.4.7a9.9,9.9,0,0,0-1,6.1l-1.4-.7-3.1-.8h-1.7a25.2,25.2,0,0,0-7.3,2.5l-1.1,1-.4.5v-1.3l-.4-1.3-1.1-2.2-.7-1.1c-3.7-3.5-7.8-4.6-12.2-3.1l-1.4,1.1a9.2,9.2,0,0,0-8.2-3.1l1.3-1.8a10.4,10.4,0,0,0,.7-7.6l1.1,2.6,1,1.3,1.8,1.6,1.3.8a10.3,10.3,0,0,0,4.6,1.1l1.6-.3,2.7-1.2,1.4-1,1.6-1.9.8-1.2a10,10,0,0,0,1.1-4.7l-.3-1.6-1.2-2.6-1-1.3-1.9-1.7-1.3-.8a9.7,9.7,0,0,0-4.4-1.2l-1.6.4-2.8,1.2-1.3.9-1.7,1.9-.8,1.2a10.1,10.1,0,0,0-1.2,4.8l.3,1.4a10.8,10.8,0,0,0-4.6-5.7l-1.6-.6-3.1-.4-1.8.2-1.9.7-1.2.7-.5.5h-.2a11,11,0,0,0-3.7,4l-.4,1.6-.2,2.9.2,1.5.6,1.7.7,1.3,1.1,1.1-.5.3a10.6,10.6,0,0,0-3.8,11.3l.4,1.1.5.9.7,1.1a10.1,10.1,0,0,0,10.4,3.8,10.2,10.2,0,0,0,2.9-1.1l.4.3a9.8,9.8,0,0,0,4.8,1.2l1.2.3h.5l.3.7,1.8,2.5L822,802l2,1.1,1.7.4h3.1l1.7-.3,1.9-.8,1.2-1,.6-.2,1.8-1.4,1.3-1.7v.4l.3,1.4,1,1.8c3,4.6,8.1,6,14.1,3.8a4.4,4.4,0,0,0-.8,1.1,11.1,11.1,0,0,0-.3,9.3l.3.7.7,1.1.4.6.7.7.5.5,1.1.8.6.4a11.1,11.1,0,0,0,6.9,1l-2.3.7-1.5.8-.9.9-.3.4-.2-.3a10,10,0,0,0-10.3-4.4l-1.3.6-2.3,1.4-1.1.9-1.5,2.1-.7.5-1.7,1.9-.8,1.2a9.2,9.2,0,0,0-1.1,4.7l.3,1.6,1.2,2.7,1,1.3,1.9,1.6,1.2.8a10,10,0,0,0,4.6,1.2l1.6-.4,2.8-1.2,1.1-.8,1.2-.4,1.1-.6.8-.6,1.2-1.1a12.8,12.8,0,0,0,3.1,2.6l1.5-1.9-.6,2.3,3.6.9h2l1.9-.7,1.3,1.1c4.2-4.5,8.2-9,12.2-13.7Zm-22.2-26.1-1.3.4.4-.5.8-1.5.4-1.2v.5l1.3,2.1Zm1.8-.3h0Z" fill="#fcba04"/>
          <path d="M864.9,846.7l-.5-.7-1.9-1.6-1.2-.8a10.1,10.1,0,0,0-4.7-1.2h-.3l-1.6-.4h-1.6l-3,.5-1.5.6-1.5,1-1.1,1-1.6,2.3-.6,1.3-.4,1.8V852l.4,2.6.4,1.4.7,1.2a17.8,17.8,0,0,0,2.9,3.2l-.4,1-.3,1v.9a7.1,7.1,0,0,0-.1,1.4C853,858.9,859,852.9,864.9,846.7Z" fill="#fcba04"/>
          <path d="M914,785.3h-1.8a9.7,9.7,0,0,0-8.5,5.2l-.5.9a9,9,0,0,0-1.8,1.6l-.5.8-.8,1.4-.3.8-.3,1v.2l-2.3-.3h-1.4a10.2,10.2,0,0,0-6.7,5.1,9.6,9.6,0,0,0-.7,1.8l-.3.2-1.8,1.5-1.2,1.6-1.2,3.4-.2,2v.2c-.3.8-.5,1.5-.7,2.1V817l.7,3.5.9,1.7,1.1,1.3c10.2-12.2,19.9-25,29-38.2Z" fill="#fcba04"/>
          <path d="M928.4,753.1v-.3l.3-.8.2-1.1v-2.5l-.2-.8a10.3,10.3,0,0,0-8.6-7.5,9.9,9.9,0,0,0-9.8,5.2,12.2,12.2,0,0,0-.7,1.7l-.2,1.2v2.2l.2,1.2.5,1.5.5,1.1,1.4,1.9.9.8a10.4,10.4,0,0,0,9.5,1.8,5.1,5.1,0,0,0-.7,1.7h-.1q-.1.6-.3,1.5l.4.9a8.2,8.2,0,0,0,.5,4.1l1.2,1.7.6.6h.1l.4.6h.2c3.3-5.1,6.4-10.3,9.5-15.6A9.7,9.7,0,0,0,928.4,753.1Z" fill="#fcba04"/>
          <path d="M861,626.1h-.2l-2.7-.8-1.6-.2-2.4.3-1.4.5a9.6,9.6,0,0,0-3.7,2.5l-.8,1.4-.9,2.8v1.6l.3,2.4.3,1.3a9.3,9.3,0,0,0,2.8,3.9l1.4.8,2.7.8,1.6.2,2.4-.4,1.4-.4a8.5,8.5,0,0,0,3.7-2.6l.8-1.4.6-1.9a4.7,4.7,0,0,0,.9.6,9.8,9.8,0,0,0,7.5.8l2.2-1.9.6-1.4a9.2,9.2,0,0,0-2.5-14.4l-.4-.2a8.4,8.4,0,0,0,2.7-.4,9.3,9.3,0,0,0,5.8-4.7l.3-2.9-1-3.2.7-.2,2.4-1.4.5-.4a9.3,9.3,0,0,0,4.4-7.2v-2.7l-.3-.9-.2-.7-.6-1.2-.4-.7a13.4,13.4,0,0,0-4.9-4.3l-1-.2v-.3a9.7,9.7,0,0,0-2.9-9.1,9.2,9.2,0,0,0-8.8-2.1,8.4,8.4,0,0,0-5.5,5.2l-.6,1.2-.3,1.2v3.3a9.6,9.6,0,0,0,1.7,3.7,8.4,8.4,0,0,0-3.5,2.1,8.1,8.1,0,0,0-1.8,7.9l.3.8.9,1.4.6.7.8.8.7.6h.3c-1.7,5,1.1,10.1,5.1,12.4l-1.2-.2A9.6,9.6,0,0,0,861,626.1Z" fill="#fcba04"/>
          <path d="M949.3,523.9a7.1,7.1,0,0,0-1.8.8l-1,.7-1.6,1.8-.7,1.1-.6,1.5-.3,1.2v2.3l.2,1.2.5,1.6.6,1.1,1.5,1.9.9.9,1.4.9,1.3.5,2.3.4h1.4l1.6-.4a9.7,9.7,0,0,0,7-10.8l-.5-1.3-1.3-2.1-.8-1.1-1.4-1-1.1-.6-2.2-.7-.3.9.2-1A10.2,10.2,0,0,0,949.3,523.9Z" fill="#fcba04"/>
          <path d="M962.2,494.2l-.5-1.8-.4-.9-.6-1.2-.7-.7-1.4-1.2-.8-.5a5.8,5.8,0,0,0-2.1-.7l-1-.2h-.1l-1.5-2-1-.8-1.4-.9-1.2,1-2.4,1.1h-1.3c-.5,0-.9-1.2-1.3-1.2l.4-2.4v-1.6l-.3-2-.5-1.4-1.5-2.4-1-1.1c-5.8-4-11.7-2.1-14.7,1.9l-.6,1.4-.6,2.6v1.5l.3,1.8.5,1.4,1.5,2.4,1,1.1a10.9,10.9,0,0,0,8.2,2.1h.4a11.2,11.2,0,0,0-.4,4.5l.5,1,1.4,2.2.9,1.1,1.2.8a9.7,9.7,0,0,0,5.7,2.2l.7.9.3-.3-.2.4a5.8,5.8,0,0,0,4.1,2h.1c.5,0,1.1,2.1,1.8,2.1h.7l1.1-1.1.6-.6.8-.5.5-.4.9-.6.5-.4a10,10,0,0,0,3.4-7.4Z" fill="#fcba04"/>
          <path d="M1002.7,493.7l-.2-.2h-5.9c-.2,0-.3-.6-.4-.6v-.4a8.6,8.6,0,0,0-5.2-3.8l-2.5.4-1.9,1.3-1.3.5a6.7,6.7,0,0,0-2.5,3.7l-.9.3-1.7.7-.8.5-.9.9-.7.8-.9,1.5-.4.9a10.3,10.3,0,0,0,.8,7.4l.7.9,1.5,1.4.9.6,1.3.5,1.1.3h.2l1,.2,1.2.2a13.4,13.4,0,0,0,7.3,8l1.4.3h2.6l1.4-.3,1.7-.7,1.2-.7,1.8-1.8q.3-7.7.3-15.3C1002.8,498.8,1002.7,496.2,1002.7,493.7Z" fill="#fcba04"/>
          <path d="M880.1,502.5l-1.3,1.2h-.1a9,9,0,0,0-2.3,6.3v.9l.5,1.7.4.8.7,1,.6.7,1.4,1.2.8.5,1.8.5a8.5,8.5,0,0,0,6.7-15.2l1.2-.7,2.2-1.7.9-1.1,1.1-2.1.4-1.4.3-2.7-.2-1.5-.5-1.8-.7-1.3-1.7-2.1-1.2-.9-1-.6-1.4-.4-2.7-.3h-.2a9.2,9.2,0,0,0,4-4.3,9.9,9.9,0,0,0,.1-8.1l-.6-.9-1.4-1.6-.9-.7-1.2-.8-1.1-.4-1.6-.4h0a9.2,9.2,0,0,0-5.2.2,13.2,13.2,0,0,0-1.9.8l-1,.8-1.6,1.7-.6,1-.6,1.5-.3,1.2V477l.7,2.1.6,1.2,1.5,1.9,1,.9,1.4.8,1.3.7,2.4.7h.7v-.2l-2.1,1.7-1,1-1,2.1-.5,1.4-.2,2.7v1.4l.5,1.8.7,1.3,1.8,2.1,1.1,1h.1Z" fill="#fcba04"/>
          <path d="M917.2,346.8l-1.5,1.5-.9.7a6,6,0,0,0-1.3,5.6,6.9,6.9,0,0,0,3.5,4.5l.8.8,2.1.8a6.7,6.7,0,0,0,4.9-2.1,7,7,0,0,0,2-4.9,7.1,7.1,0,0,0-.6-2.8l1,.6,1.3.5,2.4.3h1.3l1.2-.3a12.4,12.4,0,0,0,8.9-9.8v-1.1l-.3-2.2-.4-1.1-.6-1.3-.7-1-1.6-1.5-.9-.7a9.8,9.8,0,0,0-7.5-.7,11.7,11.7,0,0,0-5.2,3.5h.1l-.7.5-.9,1-.9,1.6-.5,1.5-.3,2.7V345l.5,1.6v.2a7.4,7.4,0,0,0-3.4-.8Z" fill="#fcba04"/>
          <path d="M893.6,366.4l-.5-.6-1.1-.9-.7-1-2.1-1.4a8.8,8.8,0,0,0-10.4,7,9.3,9.3,0,0,0,1.3,6.9,8.8,8.8,0,0,0,5.6,3.8l2.5-.5,1.1-.8a8,8,0,0,0,5.1-4.9A8.2,8.2,0,0,0,893.6,366.4Z" fill="#fcba04"/>
          <path d="M746.3,746.3l-1.4.9h-.2a11.1,11.1,0,0,0-3.6,4,12.9,12.9,0,0,0-.9,2v3.7l.3,1.3.6,1.5.7,1.1,1.6,1.8,1,.8,2.1,1.1,1.3.4,2.5-.6,1.4-1.1h0l.7,1.3,1.3,1,2.7.6h1.4l1.7-.3,1.4-.6.4-.3v.2l-.2,1.4v1.6a10.1,10.1,0,0,0,3.1,5.6h.1l.3.3,1.1,1.1,1.5.9,1.4.4h.7l.3.2.9.3,1.3.3h2.7l1-.2a6.2,6.2,0,0,0,1.8-.8l.6-.2,1.2-.8,1.7-1.7.8-1.2.6-1.4.3-1.1v-1h.1a9,9,0,0,0-1.3-7.8,13.5,13.5,0,0,0,6.8-3.3l.9-1.2,1.2-2.3.5-1.3.2-1.8v-1.4l-.6-2.5-.5-1.3-1.7-2.5-1-1.1-2.2-1.5-1.3-.7-1.8-.4h-1.5l-2.7.3-1.4.5a12.3,12.3,0,0,0-6,7.1,11.9,11.9,0,0,0,1.2,9l.2.3h-1.1l-1.6.5a14.4,14.4,0,0,0-3.1,1.4l.4-2.2v-1.5l-.4-1.7-.6-1.4-1.5-2.2-1-1-1.5-1-1.5-.6-2.7-.6H755l-1.6-.9-1.2-.2-2.2-.2h-1.1l-1.5.4Z" fill="#fcba04"/>
          <path d="M770.7,890.3l-.5,2.3v1.3c.7,7.2,6.3,10.5,11.4,10l.9-.2,1.5-.5.8-.3,1-.6.7-.6,1.2-1.1.6-.6a10.2,10.2,0,0,0,1.5-4.1l.9-.3,2.1-1.5,1-1c.3-.6.7-1.1,1-1.6a11.2,11.2,0,0,0,.4-9.6c-1.4-2.9-4-6-7.3-6h-.5l-.5.2-1.4-.2h-1.7a10.6,10.6,0,0,0-1.6-3.8,8.8,8.8,0,0,0-2.2-2.5l-.7-.5-1.4-.7-.8-.4-1.2-.3h-3.5a11.3,11.3,0,0,0-8.2,5.8,11.1,11.1,0,0,0,.3,10.3l.5.8,1,1.2.7.7.9.7.8.5,1.5.7.8.3h.9l-.3.4Z" fill="#fcba04"/>
          <path d="M924.9,415.5l-.4.7-.5,1.5-.2.8A9.9,9.9,0,0,0,936,429.7l.8-.2,1.4-.6.7-.4.9-.7.6-.5,1-1.2.5-.7a10.4,10.4,0,0,0-1.1-11.3,10.6,10.6,0,0,0-2-1.7,3.6,3.6,0,0,0,.4-.9l.2-1.3-.2-2.6-.4-1.3-.4-.7h-.1l-1-1.6-1-1-2.3-1.5-1.4-.5a8.4,8.4,0,0,0-6.8,2,8.2,8.2,0,0,0-2.7,6.3l.2,1.1.9,2.1.6,1.1.8.8-.2.2Z" fill="#fcba04"/>
          <path d="M767,846.4l-.3-2.2-.4-1.2-.8-1.4-.7-.9-1.7-1.6-1-.7a10.7,10.7,0,0,0-14.2,4.4l-.5,1.4-.4,2.9v1.5l.6,1.9.7,1.4,2.2,2.4,1.3,1.1a11.8,11.8,0,0,0-.7,2l.3-.3h-.1V860l.3,1.9.7,2,.8,1.4,2,2.2,1.3.9a12,12,0,0,0,7.7.6l2.1-.6,1-.6,1.8-1.5.8-.9.9-1.3.5-1.2.5-2.2v-1.3a12.1,12.1,0,0,0-4.3-8.8l-.6-.5-.4-.2a10.6,10.6,0,0,0,.5-2.3Z" fill="#fcba04"/>
          <path d="M719,938.3l.4.5a3.8,3.8,0,0,0,.1,1l.7,1.6,2,2.6,1.4,1.2,1.9.9,1.7.4h3.3l1.7-.4a13.1,13.1,0,0,0,3.7-2.6l.9.2a9.6,9.6,0,0,0,6.9-6.1l2.8-.6,1.4-.6,1.5-1,1.1-1,1.5-2.2.6-1.3.5-1.8v-1.6l.8.6,1.4.5,2.7.6h.1a10.8,10.8,0,0,0,3.4-.2c3.3-.8,7-3.6,7.4-9.3l-.2-1.5-.9-2.6-.8-1.3-1.2-1.5h-.5l-.4-1-1.7-1.2-1.5-.6-2.9-.6h-1.7l-1.1.3-1.4.6-2.2,1.5-1.1,1.1-.5.8v.3l-.6.7-.3.7-1.2-1.6-.9-1-.4-.2a9.9,9.9,0,0,0-9.8-3.1l-1,.2a10.9,10.9,0,0,0-2.6-.3h-.8l-1.6.4-.9.3-1,.5-.7.4-1.3,1-.6.6a9.7,9.7,0,0,0-1.5,2.4l-.6.7-1.4,2.6-.4,1.4a2.2,2.2,0,0,1,.1-.6,13.1,13.1,0,0,0-1.6,5l-.3.7-.7,2.4v1.3c0,.3.1.7.1,1a9.1,9.1,0,0,0-2.4,6.5Z" fill="#fcba04"/>
          <path d="M751,718.4l1.3,1.2,1.5.8,1.5.4,3,.2,1.5-.2,1.9-.7,1.3-.9,2.2-2.1.7-1c2.6-5.3.5-10-2.7-12.3l-1.4-.6-2.6-.6h-1.5l-2.2.3-.7.2a10.8,10.8,0,0,0-4.8,2.8l-.8,1.5-1,3.1v1.7l.4,2,.6,1.7Z" fill="#fcba04"/>
          <path d="M794.6,520.1l-1.1.2-1.2.6-.7.6-.6.3-1.6,1-1,1.2-1.4,2.5-.4,1.5a10.9,10.9,0,0,0,1.6,5.5l2-.8-1.4,1.5,2.4,2.3,1.6.8,2,.4,1.9-.2,3.1-1.2,1.4-1.2s3.7-5.7,1.8-10.4l-.3-.7-.9-1.2-.5-.6-.9-.8-1.4-.7-2.8-.7Z" fill="#fcba04"/>
          <path d="M798.8,447.8l-.6-.9-1.3-1.7-.9-.7-1.2-.8-1-.5-2-.5h-1.1a7.5,7.5,0,0,0-2.6.4,9.2,9.2,0,0,0-6.3,10.1l.2.8.6,1.6.5.8,1.3,1.9,1.7,1.4,3.7,1.3h2.8a9.9,9.9,0,0,0,6-5.1A9.7,9.7,0,0,0,798.8,447.8Z" fill="#fcba04"/>
          <path d="M952.1,671.2l-2.5.5-3.6,2.4-1.4,2-.2.6v.3a7.1,7.1,0,0,0-.2,2.9v.5l.4,2.5,2.4,3.6,2.1,1.4h.7l-.8.9-.6.9-2.1-.5a9.7,9.7,0,0,0-9.9,4.7l-.3.7-.5,1.4v.7l-.2,1v2.1h0l-1.1-.3h-3.4a9.8,9.8,0,0,0-6.3,5.8l-1.5-1.6-1.7-1.1-1.4-.5h-1.4l-2.7.2-1.3.3-1,.5-.9.6a13.1,13.1,0,0,0-2.7,2.5,13.4,13.4,0,0,0-1.6,11.4,10.6,10.6,0,0,0,6.6,6.1l1.2.3h3.5l1.5-.5,1-.5,1.9-1.3.8-.8a8.2,8.2,0,0,0,1.1-1.7,11.7,11.7,0,0,0,1.2-3.9l1,.8,1.5.9a9,9,0,0,0,4.2.7l1.5-.4,2.6-1.4,1.1-1,1.5-2.1.7-1.4a8.4,8.4,0,0,0,.5-4.1,11.6,11.6,0,0,0,8,0l1.2-.7,1.9-1.7.9-1.1h0l2.7.4h1.5l2.3-.5h.2c1.9-4.3,3.8-8.8,5.6-13.2l-1.6-2.3-1.1-1-1.6-1-1.5-.6-2.7-.4h-.5a8.8,8.8,0,0,0,1.7-3.5C959.4,677.3,957,672.2,952.1,671.2Z" fill="#fcba04"/>
          <path d="M995.5,577.6l-.9.7-1.6,1.5-.7.9-.6,1.4-.4,1.1-.3,2.2v1.1a10.5,10.5,0,0,0,3.4,6.4q1.5-7.9,2.7-15.9Z" fill="#fcba04"/>
          <path d="M971.3,557.1l.4,1.3.7,1.7.9,1.1,2,1.8,1.2.8a11.6,11.6,0,0,0,4.9.5,8,8,0,0,0,5.6,4.5,8.6,8.6,0,0,0,2.2.2l1-.2,1.9-.8,1-.6,1-.9.7-.8,1-1.7.4-1,.3-1.5v-1.4l-.6-2.4-.6-1.3-1-1.3-.9-.7a14.8,14.8,0,0,0,.1-2.1c-.3-3.5-2.5-7.5-6.9-8.5h-1.1l-2.1.2-1.1.3-1.2.7h-1.6l-1.6.4c-2,.6-6.5,2.7-6.8,9.4l.3.3h-.2Z" fill="#fcba04"/>
          <path d="M934,591.8h1.6l.8.2h2l3.3-.9,1-.6a9.2,9.2,0,0,0,4.7,2.9H951l1.2-.3,1.5-.6,1.1-.7,1.8-1.6.8-1.1.5-1,.4-1.3v-.9l1.5-.6,1.1-.8.9-.8,1-1.4.5-.7a9.1,9.1,0,0,0-3.6-12.5,8.4,8.4,0,0,0-5.4-.9,8,8,0,0,0-3.1.3l-.7.3-1.2.6-.7.4-.8.8-.6.5-.6.8-1-3-.7-1.6.3-.5h2.4l1.9.3,3.2-1.5,1.4-1.3.5-.9.3-.7.5-1.6v-2.8l-.3-1.6-.2-.9a9.6,9.6,0,0,0-16.1-2.6l-.8,1.5-1,3v1.8l.4,2.1.7,1.6,1,1.3-.6-.2h-1.8l-.7.2a9.3,9.3,0,0,0-6.1,5.8l-.9,1.4-.9,3.1-.7.9.4.3-1.8,3.4-.5,2.1h.3l-.3.4.5,2.5.5.3-.5,1.2C927.5,589.3,930.2,591.8,934,591.8Z" fill="#fcba04"/>
          <path d="M831.8,628.4a10,10,0,0,0-11.9-7.7l-2.4,1.8-.8,1.2a9.6,9.6,0,0,0-2.4,2.9l-.6.2a9.6,9.6,0,0,0-7.1,10.8l.6,1.5,1.7,2.5,1.2,1.1,1.7.9,1.6.5,2.9.2,1.6-.2a8,8,0,0,0,1.6-.8,10.5,10.5,0,0,0,1.9,4.6l1.2,1.3,2.8,1.6,1.7.5,2.2.2,1.8-.4,3.1-1.4,1.7-1.5a25,25,0,0,0,1.6-2.4,8.9,8.9,0,0,0,.2-8.5,9.2,9.2,0,0,0-5.8-4.9A10.8,10.8,0,0,0,831.8,628.4Z" fill="#fcba04"/>
          <path d="M907.1,297.6v1.3l.6,2.4.6,1.3,1,1.3,1,.8,2.1,1.2.9.3h1.7l-.5.7-.5.9a7.9,7.9,0,0,0,1.1,6.8l.3,1.2h.2v-.7l1,.5,1.1.4,2.2.4h.3v0a6.1,6.1,0,0,0,3.4-.4l.4-.2.8-.5.3-.3.6-.5.5-.8.7-1.6.2-1v-.7l-.2-.9-.6-1.5-.5-.7-.2-.2a7,7,0,0,0-4.1-3.3,6.6,6.6,0,0,0,1.7-2.3l.3-1.2v-1.4l.3.5.5.4v.2a9.1,9.1,0,0,0,7.6,3.3h.1l-.4.8-.2.9-.2,2.5.2,1.3.7,1.5.8,1.1,1.8,1.5.3-.3v1.3c.5.3,1.9,1.8,3.9,1.8h0c.5,0,1.1-.8,1.7-1l.5-.5.9-.6.5-.3.6-.5.4-.3.7-.7.4-.4a9.5,9.5,0,0,0,1.6-7l-.3-.9-.7-1.4-.5-.7-.8-.9-.6-.5-1.5-.8-.8-.3-1.9-.2h-.7l.2-.3.8-1.5a9.6,9.6,0,0,0-.5-7.3l-.8-1.1-1.9-1.7-1.2-.8-1.7-.6-1.4-.2h-2.6l-1,.2a9.1,9.1,0,0,0-6.5,7.2,8.4,8.4,0,0,0-5.5-4,8,8,0,0,0-7.7,2.7l-.7,1.4-.7,2.8v.4h0Z" fill="#fcba04"/>
          <path d="M796.7,672.5l-1,1.1-.3.6a9.9,9.9,0,0,0-.7,8.2,10.2,10.2,0,0,0,5.7,6l1.4.3h2.6l1.4-.2,1.7-.6,1.2-.7,2-1.7.9-1.1.8-1.5.4-1.4.3-2.8-.2-1.4-.5-1.8-.7-1.3-1.7-2.1-1.2-1-1.5-.8L806,670l-1.3-.2a10,10,0,0,0,2.1-1l.6-.6,1.1-1.2.6-.7.6-.9.3-.8.5-1.6.2-.8a9.6,9.6,0,0,0-3.4-8.4,10.6,10.6,0,0,0-9.5-2.5,9.6,9.6,0,0,0-7.5,10.2l.7,2,2.3,3,.3.3a9.5,9.5,0,0,0,6.2,3.6l-.9.5Z" fill="#fcba04"/>
          <path d="M864.2,535v-.3a9.4,9.4,0,0,0-8.9-2,9,9,0,0,0-6.1,6.7v2.1c-.1.3-.1.5-.2.8v1.2l.5,2.2.5,1.2.9,1.3.9.8,1.9,1.3,1.1.4,2,.4h3.2l1.1-.2h.5c4.5-1.4,7.2-5.1,6.9-9.4v-.2a8.5,8.5,0,0,0,3.4,1.4,9.3,9.3,0,0,0,9.7-4.9,8.6,8.6,0,0,0,.9-2.7l.2-.2,1.5-1.5.7-1,.3-.8v-3l-.2-1.1v-.2c-1-5.1-4.6-6.9-7.7-6.9a8.3,8.3,0,0,0-2.8.5l-1.1.5-.8.6-.9.8a8.3,8.3,0,0,0-.8,1.2l-1.7.5-1.2.8-1,.9-1.5,2.1-.7,1.2-.2,1-.2,1a14.2,14.2,0,0,0,.1,3.6h0l-.5-.4Z" fill="#fcba04"/>
          <path d="M870.6,314l-.5-2.3-.4-1.2-.9-1.3-.9-.9-2-1.4-1.2-.4-1.4-.3H862l-2.3.5-1.2.5-1.3.9-1,.9-1.3,1.9.5,1.2.6,1.5v.7l-1.2.7-.8,1.5-.2,1.2.3,2.1.3,1.1.7,1.3.8,1,1.7,1.4,1.1.5,1.6.4a8.4,8.4,0,0,0,7.6-1.9,8.7,8.7,0,0,0,2.7-7.3V314Z" fill="#fcba04"/>
          <path d="M892.5,409.4l1.6.7,1.6,1.4v.8l-1.5,1-.6.7v1.9a7.9,7.9,0,0,0,5.3,3.8c1.9.4,5.5.5,8.8-3.7l.6-1.4.5-2.8v-1.6l-.5-1.8-.8-1.3-1.9-2-1.3-.8-1.5-.4A8.6,8.6,0,0,0,892.5,409.4Z" fill="#fcba04"/>
          <path d="M965.1,492.7l.6.5.6.4,1.1.5.6.3.8.2a8.9,8.9,0,0,0,6.9-1.5,9.1,9.1,0,0,0,3.6-6.9V485l-.6-2.1-.5-1.1-.9-1.2-.6-.6v-1.4l-.3-1.4-.8-1.7-1-1.1-2.1-1.7h-.2a7.5,7.5,0,0,0,3-1.8,7.2,7.2,0,0,0,2.1-5.2,6.8,6.8,0,0,0-.2-1.4l.5-1,.2-.7,1-1.2.6-1,.3-.9.4-2v-2.4l-.2-1-.6-1.9-.5-.9a10.6,10.6,0,0,0-2.9-2.7l2.1.4,2-.3,1.9-.9,1.5-1.3.3-.6h0a9.2,9.2,0,0,0,3.5-5.7v-1.4l-.7-2.5-.6-1.3-1.1-1.3-.8-.8-.4-.2h.1a8.5,8.5,0,0,0-4.3-2.1h-1.6l-2.9.9-1.3.8-1.3,1.3-.8,1.3-.2.8-.2.3-.8,1.6-.4,3.2.3,1.7.8,1.9a9.1,9.1,0,0,0,1.7,2.7,13.6,13.6,0,0,0-2.9-.3c-3.1.2-7,1.9-8.8,5.3l-.4,1.1-.4,2.2v2.2a10.3,10.3,0,0,0,.5,6l.7,1.2,1.8,1.9,1.1.8h.2l.8,1.7,2.4,2.4-2.1.5-1.3.6-1.3,1-.9,1.1-1.2,2.3-.4,1a8.8,8.8,0,0,0,1.7,7,9.9,9.9,0,0,0,1.3,5.6l.3.5.7.8Z" fill="#fcba04"/>
          <path d="M902.3,332.7l-.9.8-.8.8-1,1.6-.5,1a8.4,8.4,0,0,0,6.5,10.4l1.8.2h.8l1.3-.3.7-.2.9-.4.6-.4,1.1-.8.6-.5a8.8,8.8,0,0,0,1.5-8.4,8.1,8.1,0,0,0-6-5.5A7.7,7.7,0,0,0,902.3,332.7Z" fill="#fcba04"/>
          <path d="M951,283.6l-1.3-.3h-1.3l-1.2.3-2,1-1,.7-1,1.2-.5,1-.7,2.2v.9a7.4,7.4,0,0,0,2.8,5.8,7.6,7.6,0,0,0,2.1,4.5l.3.4.8.6.5.2.6.4.6.2,1,.2h1.3a8.9,8.9,0,0,0,3.9-1.2l-1,1.7h-.1l-.6,1.2-.3,1-.2,1.3v1l.3,1.9.3,1a9,9,0,0,0,6.2,4.8,8.2,8.2,0,0,0,5.7-.9h.8c-2.1-5.4-4.3-10.6-6.6-15.9l-1.1.3-1.2.5a7,7,0,0,0,1.3-3l-5.4-11.7-.7-.5Z" fill="#fcba04"/>
          <path d="M922.6,564.4l.7-.4h.1l2.1-.7,2.3-1.8a9.7,9.7,0,0,0-.2-9.2,10,10,0,0,0-2.2-2.4h.1a7.8,7.8,0,0,0,3.4-5.1c.8-4.1-1.6-9.3-6.6-10.3l-2.5.5-1.9,1.3-1.3.5a7.4,7.4,0,0,0-2.8,5.9,1.3,1.3,0,0,1,.1.6h-.6l-4,.7-1.6.9h-.1l-.3.2h-1l-1.6.4-2.6,1.5-1.3,1-1.1,1.7-.6,1.5-.5,3v1.6l.6,2.2.9,1.4,2,2.2,1.4.9,1.8.7,1.4.2.6.3,2.2.3,3.9-.7.6-.4a8.3,8.3,0,0,0,3,2l2,.2h1.6l.9-.3Z" fill="#fcba04"/>
          <path d="M907.8,647.6l.7.2,1.3.2h2.3l1.3-.3.7-.2a10.8,10.8,0,0,0,5.5-4.8,10.2,10.2,0,0,0-.6-10.4,10.8,10.8,0,0,0-10.1-4.6l-.8.2-1.3.4-.7.3-1,.6-.6.4-1.1,1-.5.6-1.1,1.6a10.2,10.2,0,0,0,6,14.8Z" fill="#fcba04"/>
          <path d="M921.3,610.2l-.8-1.4-1.8-2.1-1.3-.9-1.7-.8-1.3-.3-2.4-.2-1.3.2a9,9,0,0,0-5.9,5.2,10,10,0,0,0,.5,8.4l.8,1,1.7,1.6,1.1.7,1.4.6,1.3.3h3.6l1-.3,1.3-.7,2-1.7.9-1.1.8-1.6.4-1.3.3-2.6-.2-1.5Z" fill="#fcba04"/>
          <path d="M788.1,794.3l-3-.9h-1.7l-1.4.2a12.4,12.4,0,0,0-8.4,6.2l-1.2,1.9a12.4,12.4,0,0,0-3.2,7.8,14,14,0,0,0,3,9.3,9.8,9.8,0,0,0,1.1,7.6l1.4,1.3,2.9,1.7h.5l1.1.6,1.6.4h2.8l1.6-.3,1.8-.7,1.2-.8,2-1.9.7-.9.3-.5a10,10,0,0,0,0-9.8,10.3,10.3,0,0,0,2.8-5.6l.7-1.3.4-1,.4-2v-1.1a10.3,10.3,0,0,0-4-7.6l-.4-.5-1.6-1.5Z" fill="#fcba04"/>
          <path d="M829.8,461.8l-3.2,1.7-1.5,1.3a4.1,4.1,0,0,0-.5.9c-2.5,4.6-1.6,9.3,2.7,13.7l1.5,1,3,1.1h1.8l2.1-.2,1.7-.7,1.8-1.2.7-.2,1.8-.7,1-.5,1-.9.8-.8,1-1.7.5-1a8.9,8.9,0,0,0-4.2-9.7l-1.7-.5h-2.2l-2.1-1.3-1.9-.6-2.2-.2Z" fill="#fcba04"/>
          <path d="M888.9,274.8h-1.3l-2.4.3-1.3.5-1.4.9-.9,1-1.5,2.4-.7,1.4-.2,1.3v1.7l.2,1.3,1,2.2.9,1.2a3.7,3.7,0,0,0,.9.9l1,1.4.9,1a7.2,7.2,0,0,0,3,1.5h1.3l2.2-.5,1.1-.5,1.6-1.2.8-.9a7.1,7.1,0,0,0,1.4-3.8l.2-.4.4-1A9.4,9.4,0,0,0,888.9,274.8Z" fill="#fcba04"/>
          <path d="M926.7,656.2a10.9,10.9,0,0,0-8.9-7.7,9.6,9.6,0,0,0-9.4,4.2l-2.2-.8h-1.7l-1.7.4a9.7,9.7,0,0,0-7,10.8l.2.8.6,1.5.4.7.7.9.5.6,1.1,1,.7.5a9.4,9.4,0,0,0,7.3.9,10,10,0,0,0,2.7-1.4l1,1,1.4.7,2.7.8,1.6.2,2.4-.4,1.4-.4a9.8,9.8,0,0,0,3.7-2.6l.8-1.4.9-2.8v-1.4l.4-1,.3-1.3v-3.7Z" fill="#fcba04"/>
          <path d="M785.8,697.9l-1.6.8-2.5,2-1.1,1.4-1.2,2.6-.4,1.7a10.1,10.1,0,0,0,.5,4.8l.9,1.4,2.2,2.2,1.4.9,2.6,1h.6a20.5,20.5,0,0,0,.5,2.4l.9,1.4,1,1.2,1.1,1.4,1.7,1.4,1.6.8,3.2.8H799a15.3,15.3,0,0,0,3.2-1.3,10.6,10.6,0,0,0,2.5,2.7l1.4.6,2.6.7h1.5l1.4-.2a9.7,9.7,0,0,0,7.9-5h0a14.8,14.8,0,0,0,1-2.7v-1.3l-.2-2.2-.3-1.2-.7-1.4-.7-1.1-1.5-1.6-1-.8-2.1-1.1-1.3-.4-2.5-.3h-1.4l-1.6.4-1.3.6-.7.4h0a10.2,10.2,0,0,0-6.6-4.6v-.4l-.6-2.4-.5-1.2A10.6,10.6,0,0,0,785.8,697.9Z" fill="#fcba04"/>
          <path d="M876.1,323.7l-1.6,1.1-1.1,1.1-1.4,2.5-.5,1.5a23.9,23.9,0,0,0,.4,7.1l.5,1.3,1.5,2.1.9,1,1.4.9,1.3.6,2.4.5h1.3l1.8-.4c5.4-1.6,8-6.5,6.8-13.3l-.5-1.6-1.6-2.5-1.2-1.1-1.7-1.1-1.4-.5-2.6-.3h-1l-2.2.4Z" fill="#fcba04"/>
          <path d="M850,447l-1.9-1.8-1.1-.8-1.6-.8-1.4-.3h-2.6l-1.4.2a10.5,10.5,0,0,0-7,8.1v1.8l1,3,.9,1.5,2,1.9,1.1.7a9.4,9.4,0,0,0,5.3,1.4l1.7-.5,2.8-1.6,1.3-1.2,1.1-1.8.5-1.7V454h.3a9.6,9.6,0,0,0-.5-5.8Z" fill="#fcba04"/>
          <path d="M871.7,408.3a10,10,0,0,0-4.2,9.9,8.2,8.2,0,0,0,6.6,6.8h1.2l2.2-.4h.2a8.3,8.3,0,0,0,6.7-5.5h1.7l1.4-.4.7-.4.9-.5.6-.5,1-1.1.4-.7a7,7,0,0,0-.3-7,7.4,7.4,0,0,0-6.3-3.4,7.7,7.7,0,0,0-5.8,2.8l-.4-.2h-.8l-1.3-.2h-2.5l-1.3.5Z" fill="#fcba04"/>
          <path d="M990.1,436.4l1.5,1.3h.2a8.6,8.6,0,0,0,5,4.6l1,.2h1.5c-.8-7.4-1.9-14.7-3-21.9l-2,.5h0l-.8.2-1.1.5-1.3.8-.8.8-1.3,1.8-.6,1.1c-.4,1.6-1.4,5.5.9,9.1Z" fill="#fcba04"/>
          <path d="M908.5,422.7h-.1l-1.4.2a10.3,10.3,0,0,0-7.6,6.4c-.7,1.9-1.3,5.6,1.4,10.1a1.3,1.3,0,0,0-.1.6,9.5,9.5,0,0,0,4.7,8l.8.3,1,.3-.3,2.2v1.6l.5,1.6.7,1.3,1.9,2.2,1.2.9,1.7.7,1.5.4h2.9l1.2-.2c5.4-1.9,7.1-6.5,6.4-10.2l-.5-1.3-1.3-2.2-1-1-1.8-1.3-.6-.4a12.7,12.7,0,0,0-2.5-.9,6.9,6.9,0,0,0,.2-1.3,9.9,9.9,0,0,0,3.9-3.7l.4-1,.4-2v-2.5l-.2-1.1-.7-1.9h0C918.8,422.5,913.3,421.2,908.5,422.7Z" fill="#fcba04"/>
          <path d="M916.2,519.5l-1.3-1-1.8-.8-1.3-.4h-.7v-.2a10.7,10.7,0,0,0-5.2.3l-1.4.7-2.1,1.9-.4.5h-.4l-1.1.8-1.7,1.7-.8,1.1-.7,1.5-.4,1.3-.3,2.4v1.3l.3,1.2.5,1.3,1.5,2.1.9,1,1.7,1.2.7.5a9.4,9.4,0,0,0,4.8,1.1l1.9-.5,3.1-1.7,1.4-1.4.4-.7a10,10,0,0,0,4.9-11.4l-.7-1.5Z" fill="#fcba04"/>
          <path d="M961.1,328.3a8.3,8.3,0,0,0-1.8-4.6l-1.6-1.2-3.4-1.2h-2l-.7-.5-1.5-.4h-2.7l-1.4.4-1.7.8-1.1,1-1.7,2.1-.6,1.4-.4,1.9v1.5l.7,2.6.7,1.3,1.2,1.4,1,.7c0,.1,0,.1.1.1a9.2,9.2,0,0,0,7,8.7,10.5,10.5,0,0,0,11.8-5,9.5,9.5,0,0,0-1.1-10.4Z" fill="#fcba04"/>
          <path d="M894.7,457.6l-.4,1.4-.3,2.7.2,1.4.9,2.1.8,1.4a8.3,8.3,0,0,0,3,3.1l1.4,1h2.6l1.3-1,2.1-1.4,1.2-1a8.6,8.6,0,0,0,2.8-6.2l-.2-1.2-.7-2.1-.6-1.1-1-1.2-.8-.7-1.7-1-1.1-.4A8.9,8.9,0,0,0,894.7,457.6Z" fill="#fcba04"/>
          <path d="M967.1,411.1a13.7,13.7,0,0,0,3.1-3.3,7.1,7.1,0,0,0,4.3-1.4c.1,0,.1-.2.2-.2l.4,1.7.4,1.2.9,1.3.8.9,1.9,1.3v.2a8.5,8.5,0,0,0,2.7,1,7.9,7.9,0,0,0,8.8-4.5l.4-1.2.2-2.3v-1.3l-.4-1.5-.4-.2v-.9l-.8-1.5-.9-1-2.1-1.5-1.3-.5-.9-.2H983l-2.2.4-1.2.4-.7.5v.2l-.7.3-.5.4-.4-1.6-.4-1-.2-.4a8.3,8.3,0,0,0-6.4-5.7l-.8-.2-1.8-1.1h-.3l.3-.6.5-1.2.3-1.6v-2a10,10,0,0,0-.4-4.6l-.7-1.2-1.5-2-1.1-.8-1.4-.9L962,374l-2.5-.4h-1.3l-1.4.4a10.5,10.5,0,0,0-6.7,5.5,9.8,9.8,0,0,0,.3,8.2l1,1.3,1.3,1a8.5,8.5,0,0,0,3.6,2.9l-.5.5.3-.4a11.1,11.1,0,0,0-3,3.3l-.4.4-1.4,1.6-.5,1-.3.8a7.4,7.4,0,0,0-4.1,4l-.2,1.9v.5l-.3.8v1.5l.6,2.6.7,1.4,1.1,1.4,1.2.9,2.5,1.1,1.4.3a12.1,12.1,0,0,0,3.7-.7l.7.4a7.9,7.9,0,0,0,7.5-2.4A8.8,8.8,0,0,0,967.1,411.1Z" fill="#fcba04"/>
          <path d="M926.2,385.9h1.3l2.3-.4,1.2-.5,1.3-.9.9-.9,1.3-1.9.5-1.2.3-1.5v-1.3l-.5-2.5-.6-1.3-1-1.3-.9-.8-1.9-1.2-1.1-.4a7.8,7.8,0,0,0-6.8,1.5,9.2,9.2,0,0,0-3.3,6.9l.2,1.1.7,2,.5,1,.9,1.2.9.7,1.8,1.1,1,.4Z" fill="#fcba04"/>
          <path d="M925.5,675.2a11.9,11.9,0,0,0-2.5,1.1l-1.1.9-.8.9-.9,1.1a9.7,9.7,0,0,0-.1,9.5,10.5,10.5,0,0,0,8.8,5.3h1l1.9-.4.9-.4,1.2-.6.8-.6,1.3-1.3.6-.7a10.5,10.5,0,0,0-.9-11.5A9.3,9.3,0,0,0,925.5,675.2Z" fill="#fcba04"/>
          <path d="M959.3,350.9l-1.4.7-2,2-.9.5.2.4-2.9,1.9-1.3,1.5h.2l-.3.2-.7,2.1.2.4-.9.8a8.3,8.3,0,0,0,3.7,8.1l.6.4.8.3a1.2,1.2,0,0,0,.5.5l1.5.9,3.1.7h1.7l1.9-.6,1.5-.9,2.1-2.4.8-1.6c.3-1.6,2.6-4.8,3.5-6l.6-1.5.5-2.6a9.5,9.5,0,0,0,1.7,1l.3.9.3.6h0a7.1,7.1,0,0,0,6.6,4.3l1.8-.3h.4c-2-7.1-4.1-14.1-6.5-21h-.7l-1,.2-1.7.6-.9.4-.9.8-.7.7-1,1.5-.3.9a8.8,8.8,0,0,0-.4,3.3l-.7-.6-1.4-.8-.6-.2A8.4,8.4,0,0,0,959.3,350.9Z" fill="#fcba04"/>
          <path d="M836,741.2a10.8,10.8,0,0,0-.8,1.9l-.2,1.4.2,2.4.3,1.3.6,1.6.7,1.1,1.6,1.7,1,.8,1.5.8,1.3.4,2.5.4h1.4l1.7-.4,1.2-.6,2.1-1.4,1-.9a6,6,0,0,0,.9-1.5,10.1,10.1,0,0,0-2.8-13.2l-1.2-.6-2.6-.6H845l-1.7.2-1.3.3-2.1,1.1.4.9-.6-.9A11.8,11.8,0,0,0,836,741.2Z" fill="#fcba04"/>
          <path d="M864.9,762.5v-.7l-.2-.9h-.3l.2-.2-.4-1.4-1.7-2.5-4.4-2.7-3-.5c-6.2,1.4-8.9,7.9-7.7,13a9.7,9.7,0,0,0,4.3,6.2,9.4,9.4,0,0,0,7.5,1.3l2.5-1.7,2.8-4.4.4-3-.2-1.3h.3Z" fill="#fcba04"/>
          <path d="M946.3,663a9.5,9.5,0,0,0-2.7-3.9l-1.4-.7-2.7-.8-1.5-.2-2.4.3-1.4.4a9.5,9.5,0,0,0-3.9,2.7l-.7,1.4-.9,2.7v1.6l.3,2.3.3,1.3a10.9,10.9,0,0,0,2.9,4.1l1.3.7,2.8.8,1.5.2,2.3-.3,1.3-.4a10,10,0,0,0,3.9-2.6l.8-1.4.9-2.8v-1.6l-.3-2.4Z" fill="#fcba04"/>
          <path d="M872.7,656.1l-2.5.7-1.1.6-1.7,1.4a11.4,11.4,0,0,0-2.1-3.7,10.7,10.7,0,0,0-11.4-3.2l-1.4.8-2.1,1.9-.9,1.3-.8,1.7-.4,1.5v1.1h-.2v.9a12.3,12.3,0,0,0,1.2,5.5,9.6,9.6,0,0,0,3.2,7.4,8.8,8.8,0,0,0,8.7,2.1,8.3,8.3,0,0,0,4.9-3.9l1.6,1.7,1,.7,1.4.8,1.2.4,2.3.4h.3A11.3,11.3,0,0,0,876,685a9.3,9.3,0,0,0,10.1,3.1l1.2-.6,2-1.6h.1a9,9,0,0,0,2.9-11.2l-.3-.6-.8-1.1-.5-.6-1.2-1-1.2-.7a10.8,10.8,0,0,0-3.8-1.6,10.8,10.8,0,0,0-.2-7.1l-.6-1.1-1.4-1.7-.9-.8-1.2-.8-.4-.6-.8-.5h0C879,656.1,875.4,655.5,872.7,656.1Z" fill="#fcba04"/>
          <path d="M899,726.6l-1.6.8-2.4,2.1-1.1,1.4-1.1,2.5-.4,1.7a9.7,9.7,0,0,0,.4,4.5l.9,1.5,2.2,2.3,1.5,1,2.6.9,1.7.4a10.5,10.5,0,0,0,7.8-2.9l.9-1.1,1.1-2.4.4-1.4v-3.1l-.6-2.4-.5-1.2A10.7,10.7,0,0,0,899,726.6Z" fill="#fcba04"/>
          <path d="M890.9,745.5a10.8,10.8,0,0,0,.8-1.9l.2-1.2v-2.2l-.2-1.2-.4-1.5-.5-1.1-1.3-1.8-.8-.9a12.2,12.2,0,0,0-9.3-2.5l-.7.2-1.3.4-.7.3-.9.6-.6.4-1,.9-.5.6-1,1.4a10.3,10.3,0,0,0-.4,8.4l-2.2,1.2-1.4,1.4-1.1,2-.5,1.4-.2,2.8.2,1.5c2.1,6.1,7.4,7.6,11.4,6.4l2-.9,1-.8,1.4-1.6.6-1.1.6-1.4.3-1.2V751l1-.3A12.3,12.3,0,0,0,890.9,745.5Z" fill="#fcba04"/>
          <path d="M896.5,700.6l-.2-.9L895,699l-2.9-.2-1.7.5v.4l-.7.3v-.5l-2.5.7-2.2,1.9a9.2,9.2,0,0,0-.7,7.1,9.7,9.7,0,0,0,5,5.9c4.9,2.6,10.7,1.1,13.1-3.5l.3-2.9-1.5-4.9-1.8-2.2-1.1-.6h-.1l-.8.3v-.3Z" fill="#fcba04"/>
          <path d="M671,675.5l1.2,1.8,1,.8h0l.6.8.7.3.9.6.9.4,1.8.9,2.8.3a9.2,9.2,0,0,0,4.7-3.3l.8.3.8.3a11.5,11.5,0,0,0,11.7-5,17.4,17.4,0,0,0,1.1-1.8,13,13,0,0,0,1.9-2.2,9.4,9.4,0,0,0,.2-9.6l-.9-1.2-2.1-1.8-.4-.2-1.6-1.2-1.5-.7-1.9-.5h-1.6l-2.9.5-1.4.5a12.4,12.4,0,0,0-4.8,5.6l-.2,1a9.1,9.1,0,0,0-1.3,1.6,10.3,10.3,0,0,0-6.5-.4l-2.1,1.8-2.3,4.2-.3,2.7v1.6Z" fill="#fcba04"/>
          <path d="M677,330.8l.5.6,1.2,1,.7.4.9.5,1.1.4,2,.3h2.1l.8-.2a10,10,0,0,0,6.5-11.7,8.9,8.9,0,0,0-10.1-6.9l-1.1.3-1.9,1-.9.7-1.3,1.3A9.3,9.3,0,0,0,677,330.8Z" fill="#fcba04"/>
          <path d="M725.4,65.4l-.2-.2h-.6l-.9.5-1.2,1.3-1,2.9v1.7a6.2,6.2,0,0,0,8,3.7,6.2,6.2,0,0,0,3.7-6.4,6,6,0,0,0-5.1-5.1h-.5v.5h-.2V64h-.7l-.4.5h-.4l.3.3-.5.6Z" fill="#fcba04"/>
          <path d="M681.6,112.5l.9,1.1.7.4h0l.5.4.4.2.6.4.7.2,1.2.5h1.8a5.8,5.8,0,0,0,3.4-3.3,6.4,6.4,0,0,0-8.2-8.3l-1.3,1.3-1.3,2.9v1.8h.1v.9Z" fill="#fcba04"/>
          <path d="M312.4,935.4l.6,2.1,1.4,2.1,1.8,1.4,3,1.3-.4.3-1,1.2a10,10,0,0,0-.8,8.7,9.4,9.4,0,0,0,6.1,5.7l1.3.2h2.4l1.2-.3,1.6-.6,1.1-.6,1.9-1.6.8-1,.6-1,.5-1.3.2-.9,1.5-.6,1.1-.7,1-.8,1.1-1.3.5-.7a9.3,9.3,0,0,0-3-12.9,9.5,9.5,0,0,0-3.7-1.2h0v-2.4l-.6-1.9-.5-.7.2-.4.5-1.6.2-.9v-2l-.2-1.7-.2-.8a9.7,9.7,0,0,0-16.2-3.5l-1,1.5-1.1,3.1v1.8l.2,2.1v.3a14.4,14.4,0,0,0-2.2,4.6l2.5,1h-2.6Z" fill="#fcba04"/>
          <path d="M630.2,189.5a6.2,6.2,0,0,0,5.5.2l1.1-.5.6-.5,1-1.1.4-.6.4-.9v-3a6.8,6.8,0,0,0-3.4-4.5,6.2,6.2,0,0,0-5.5-.2l-1.1.5-.6.5-.9,1.1-.5.6-.3.9-.2.7v2.2A6.8,6.8,0,0,0,630.2,189.5Z" fill="#fcba04"/>
          <path d="M651.8,94.4a6.9,6.9,0,0,0-6.7,6.5l.2,1.1.4,1.2a7.2,7.2,0,0,0,5.9,6h1.2l2-.5,1-.5,1.3-1,.5-.4a6.8,6.8,0,0,0,2.2-3.7v-1.6l-.9-2.8-1-1.3-1.4-1.1-.6-.4h0A7.3,7.3,0,0,0,651.8,94.4Z" fill="#fcba04"/>
          <path d="M675.3,197.2v1.3l.2,1.4a8,8,0,0,0,5.1,8.1l1.3.2h2.5l1.2-.3,1.7-.8.6-.4a9.2,9.2,0,0,0,3.3-3.5l.4-1.9-.4-3.3-.7-1.7-1.3-1.6-.6-.6h0a7.5,7.5,0,0,0-4.2-2.4A7.8,7.8,0,0,0,675.3,197.2Z" fill="#fcba04"/>
          <path d="M400.5,925.6a13.9,13.9,0,0,0,1.5,1.9l1.1.7,2.2,1,1.2.4h3l2.4-.6,1.3-.5a11.3,11.3,0,0,0,4.9-7.2,12,12,0,0,0,3.7-5.9V912l-.2-1.2-.3-.9-.7-1.5-.5-.8a12.5,12.5,0,0,0-12.6-4.1,10.4,10.4,0,0,0-7.6,8.9l.2,1.5.2,1A9.6,9.6,0,0,0,400.5,925.6Z" fill="#fcba04"/>
          <path d="M503.1,899.9l-.3-.5-.4.2h-.6l-1.6.5-2,1.6c-.2-.6-.4-1.3-.7-2l-.5-.8-1-1.3-.6-.6-1-.8-.7-.5-1.5-.7-.9-.3a12,12,0,0,0-12.1,4.8,10.5,10.5,0,0,0-1.9,6.5l-1.2-.5-3.4-.5-1.8.2-1.4.5a10.1,10.1,0,0,0-7.5,5.2,8.7,8.7,0,0,0-.7,1.7l-.2,1-.9.5a10.8,10.8,0,0,0-4,7.3l1,3,1.1,1.3a9.7,9.7,0,0,0,6.5,5.6,9.8,9.8,0,0,0,9.2-1.8l.7-.7,1-1.5,1.2-.9,1.4-2.7a7.6,7.6,0,0,0,.1-1.5,24.9,24.9,0,0,0,2.3-3.1,9.7,9.7,0,0,0,1.1-5.7l.5.3h.1a9.8,9.8,0,0,0,12.7-.3l.5-.6.6-.8a9.8,9.8,0,0,0,8.1,5.2h0l-.8,1.5-.3.9a10.4,10.4,0,0,0,1.4,7.9c1.3,2,4.4,5.2,10.9,4.4l1.7-.6,2.9-1.9,1.3-1.5,1-1.9.5-1.8v-3.4l-.4-1.8a11.4,11.4,0,0,0-.9-1.6,10.7,10.7,0,0,0-8.5-5,9,9,0,0,0,1.4-4.8,9.7,9.7,0,0,0-6.9-9.5H507l-.2.8h-.4V898l-.3.2-1-.2-.6.7h-.7l.3.4-.8.9Z" fill="#fcba04"/>
          <path d="M352,810.6a10.9,10.9,0,0,0-8.6,4.9l-.4,1.1-.5,2.2v2.8l.3,1.1.9,2.1.6,1a8.2,8.2,0,0,0,2.5,2l.4.3,1.4.8,2.8.7h2.5l.3-.3h.1l1.5-.2,1.6-.6,1.1-.8h.3l1.6.2h1.4l1-.2v.2c4.8-.3,7.2-2.8,8.4-5a10,10,0,0,0,1.2-5.4v-1.5l-.4-3-.6-1.6-1-1.5a12.4,12.4,0,0,0-8.5-5.8h-1.9l-1.5.2-1.7.6a11.4,11.4,0,0,0-4.9,4.9h.2l-.3.4Z" fill="#fcba04"/>
          <path d="M556.5,996.4l-1.2-.3h-2.9l-2.3.7-1.2.5a12.9,12.9,0,0,0-3.5,3.5c5.4-.5,10.8-1,16.2-1.7l-1.1-.8-2.5-1.2v-.2Z" fill="#fcba04"/>
          <path d="M492.8,798.6h2.4l.8-.2,1.1-.3,1-.5,1.8-1.3.8-.8.6-.8.5-.7a10.2,10.2,0,0,0-3.8-13.4,9.2,9.2,0,0,0-12.5,2.2l-.6,1.1-.7,2.1-.2,1.3V789A9.8,9.8,0,0,0,492.8,798.6Z" fill="#fcba04"/>
          <path d="M398.8,991.7l.5-.6a9.6,9.6,0,0,0,.4-8.6,10.7,10.7,0,0,0-9.1-6.7,9.8,9.8,0,0,0-9.1,4.8,9.1,9.1,0,0,0-1,7.4.1.1,0,0,1,.1.1c5.9,1.4,11.8,2.8,17.8,4Z" fill="#fcba04"/>
          <path d="M479.2,855l-1.7,1.3-1.2,1.4-1.5,2.8-.4,1.6-.7-.6A10.5,10.5,0,0,0,465,860l-1.5.4-1.3.7-2,1.7-.9,1.1-.8,1.6-.3.7a10.3,10.3,0,0,0-13.2-2.7l-.5.4a9.8,9.8,0,0,0-5.9,3.9,9.7,9.7,0,0,0-1.5,8.3l.5,1.1,1.3,2,.9.9,1.2,1,1.1.6,2.1.9,1.2.2a16.7,16.7,0,0,0,5.6-.6l1-.2,3.9-1.4,1.9-1.3,1.6-2,.6-1.6.4.6,1.1,1,1.6,1,1.4.6,2.8.4h1.5l2.3-.5,1.3-.6,2.2-1.5,1.1-1,1-1.4.6-1.3.4-1.6,1.9,1.5,1.8.6h1.1a9.6,9.6,0,0,0,1.3,7.7,9.1,9.1,0,0,0,6.1,4,9,9,0,0,0,2.7.7,10.5,10.5,0,0,0,8.5-3.6l.7-1,.9-2,.4-1.1.2-1.6v-1.3l-.4-2.3-.5-1.2-.4-.8a10.2,10.2,0,0,0-4.1-3.6l-.4-.3-1.3-.7-1.1-.4-1.3-.3a.4.4,0,0,0,.1-.3,10.7,10.7,0,0,0-8-11.9h-1.7l-3.3.6Z" fill="#fcba04"/>
          <path d="M624.9,544.9l1.1,3,.9,1.5,1.9,1.8,1.4,1a11.3,11.3,0,0,0,4.4,1.2l1.7-.3,2.8-1.3,1.4-1,1.8-2.1.9-1.5a10.2,10.2,0,0,0,.1-8.2l-.8-1.1-1.8-1.9-1.1-.8-1.7-.8-1.2-.4-2.4-.2H633a10.7,10.7,0,0,0-8.3,9.4Z" fill="#fcba04"/>
          <path d="M152.6,849.9l.6-1.4.7-2.6v-.6a9.1,9.1,0,0,0-2.1-8.1l-.5-.5-1-.8-.6-.4-.8-.4-.7-.3-1.2-.4-.7-.2a12.9,12.9,0,0,0-6.5.6l-1.2.7-1.9,1.7-.9,1.2-.8,1.5-.4,1.3-.2,1.8c3.4,3.6,6.8,7.2,10.3,10.7A9.5,9.5,0,0,0,152.6,849.9Z" fill="#fcba04"/>
          <path d="M167.4,686l.7,1.2,1.3,1.6.9.8,2.7,1.6,1.9.6h2.4l1.9-.5,3.2-1.8,1.5-1.4.6-1,.3-.6.4-.7.2-.7a9.5,9.5,0,0,0-1.2-7.9l-.2-.2-.7-1.5-1.2-1.4a9.8,9.8,0,0,0-7.9-1.7,10.1,10.1,0,0,0-6.5,4.8,17.2,17.2,0,0,0-.9,1.9l-.2,1.3V683l.2,1.4Z" fill="#fcba04"/>
          <path d="M164.1,745.3l-1.1.3-1.9.8-1,.6a11.3,11.3,0,0,0-3.9,7.2,9.6,9.6,0,0,0,2.9,8.2,10.6,10.6,0,0,0,9.2,2.8l1.3-.4,2.3-1.2,1.1-.9,1.2-1.3.7-1.1,1-2.1.3-1.3a10.8,10.8,0,0,0-6.2-11.1l-1.1-.4-2.1-.3h-1.2Z" fill="#fcba04"/>
          <path d="M197.3,898.4a10.7,10.7,0,0,0,1.2-9.2,10.1,10.1,0,0,0-5.9-6.1l-1.1-.3-2.2-.2h-1.1l-1.5.3-1.1.5-1.5.8H184a9.9,9.9,0,0,0-3.1,2.8c5.1,4.3,10.4,8.5,15.7,12.6Z" fill="#fcba04"/>
          <path d="M215.8,819.7l-1.9-.7-2.3-.2-1.9.3-3.3,1.5-1.6,1.3-.6.9c-2.7,4.5-2,9.4,2.2,14.1l1.4,1,3.1,1.2,1.8.3,2.1-.2,1.7-.6,2.8-1.7,1.3-1.3,1.2-2,.5-1.6.4-3-.2-1.6-.6-1.9L221,824l-1.8-1.8-1.7,1.3,1.2-1.7Z" fill="#fcba04"/>
          <path d="M51.5,719l1.4-.8.7-.4a11.3,11.3,0,0,0,2.2-2.7,10.1,10.1,0,0,0-.6-11.3A11.4,11.4,0,0,0,43,699.5l-1.6.6-.3.3c2.8,6.4,5.7,12.9,8.8,19.2l.9-.2Z" fill="#fcba04"/>
          <path d="M121,772.5l-1.7-2.3-1.2-1c-6.1-3.4-11.3-.7-13.6,3.1a7.2,7.2,0,0,0-.9,2l-.2,1.3v2.5l.3,1.3.6,1.5.6,1.2,1.6,1.8.9.9,1,.6,1.3.3,2.6.4h1.3l2-.3.8-.2a9.8,9.8,0,0,0,4.2-2.6l.9-1.6.8-3.4v-1.9l-.6-2.2Z" fill="#fcba04"/>
          <path d="M595.5,936.1l2,3.3,1.5,1.4,2.2,1.1,2.1.4,3.8-.2,2-.7c1.7-1.1,6.5-1.8,8.3-2.1l1.7-.7,2.8-2,1.2-1.4,1-1.9.4-2v-3.6l-.6-1.9-.4-.6a9.8,9.8,0,0,0-7.9-4.6l-1.8-.5h-3.4l-1.2-.4-.2.4-4.1-.8h-.6l.8-1.4.8-2.7.2-1.6-.3-2.4-.3-1.3a10.9,10.9,0,0,0-2.9-4.1l-1.4-.7-2.7-.8-1.6-.2-2.4.4-1.3.4a8.8,8.8,0,0,0-3.8,2.7l-.8,1.4-.8,2.7v1.6l.3,2.4.4,1.3a9.4,9.4,0,0,0,2.7,3.8l1.4.8,2.7.8,1.5.2h.3a10,10,0,0,0-2.7,9.1l.3.8.3.9v.9Z" fill="#fcba04"/>
          <path d="M545.3,935.5l.9-1.5.5-1.4.4-2.7v-1.5l-.5-1.9-.6-1.3-1.7-2.3-1.1-1-1-.6-1.3-.8-2.5-.7h-1.4l-2.1.7-.9.4a9.3,9.3,0,0,0-3.8,2.5l-.8,1.4-1.1,2.9-.2,1.6.3,2.7.5,1.8a9.8,9.8,0,0,0,5.8,5.5h.2l-.2.2-.8,1.2-1.1,2.5-.3,1.5v1.8l.3,1.5.9,2.6.5,1c3.7,5.2,9,5.3,12.3,3.7l1.4-1,2-2.3.5-.9a9.4,9.4,0,0,0,5.2,6.8l-.9,1-1.8,2.8-.6,1.7-.2,2.2v.9l-.8-1.3-1.8-1.9-1.1-.9-1.7-.8-1.3-.4-2.7-.3-1.5.2A11,11,0,0,0,533,974l.6,1.6,1.7,2.5,1.2,1.1,1.7,1.1,1.4.5,2.8.5h2.4l1.5-.4,1.6-.7,1.3-.8,1.9-1.9.8-1.2a11.9,11.9,0,0,0,.7-7.7l.7,1.9,1,1.5a21.9,21.9,0,0,0,3.7,2.6l.2.8a9.8,9.8,0,0,0,8.6,4.4,8.5,8.5,0,0,0,3.8-.9,20.6,20.6,0,0,0,4.3,0,9.9,9.9,0,0,0,3.6,4l1.4.7-.3.8-.4,1.8v1.5l.5,2.8v.2a11.9,11.9,0,0,0,1.4,3.1,9.1,9.1,0,0,0,2.1,2.3l14-2.5.8-1.4-.2-.5.8-.8.6-1.9v-1.7l-.4-3-.7-1.6-.6-1-1.1-1.1-2.2-1.5-1.3-.6h0l.5-3.1v-1.7l-.5-1.9v-.2a10.6,10.6,0,0,0-1.6-7.5,3.3,3.3,0,0,0-.6-.8,11.4,11.4,0,0,0-.6-2.5l-.4-.8-.9-1.4-.6-.7-.8-.8-.7-.5-1.3-.9-.8-.3a14,14,0,0,0-2.8-.6l-1-.3-2.9-.4h-.9a10.8,10.8,0,0,0-5.3.2h-2.8a9.7,9.7,0,0,0,2.9-5.8,10.1,10.1,0,0,0-4.2-9.1l-1.8-.8-3.6-.5h-1.9l-1.7.2-2.8,1-1.5.9-1.4,1.4-.9,1.3-.6,1.2-.4-1.9-.8-1.7a10.9,10.9,0,0,0-5.6-3.8h.2Z" fill="#fcba04"/>
          <path d="M517.2,737.3l-.3-.3h0l-.3-.3h0l-1-1.3-2.5-1.5-5.1-.8-2.8.6c-5.7,3.9-5.9,10.2-3.3,14.1a10,10,0,0,0,11.6,3.9,9.6,9.6,0,0,0,6.5-9.9v-.8l-.8.2v-.4l.8-.2-.3-.2v-1l-.9-.4-.2-.6-.3.4-1.2-.5v-.3Z" fill="#fcba04"/>
          <path d="M501.1,701.4l-1.1.6-.3.4a9.6,9.6,0,0,0-4.5-.4l-1.4.4-2.4,1.3-.3.3-1.7,1.1-1.2,1.1-1,1.6.5,1.4.6,2.8v1.6a8.5,8.5,0,0,0,2.4,6.3l.2.6c2.5,5.2,6.9,6.4,10.6,5.7l.7-.2,1.3-.6.7-.4.9-.6.6-.5,1.1-1.1.5-.7a11.1,11.1,0,0,0,1.4-4.1,10.6,10.6,0,0,0,8.4-9.1l-.9-3-3.2-4.1-2.7-1.5h-.2l-1.4-.7-2.4-.2-2.4.5-1.2.6h0l-1,.3Z" fill="#fcba04"/>
          <path d="M559.3,639.5l1,3,.9,1.5,2,2,1.4,1a9.2,9.2,0,0,0,4.6,1.2l1.6-.4,2.8-1.2,1.4-1,1.7-2.1.4-.5a8.5,8.5,0,0,0,2.3.3l1.6-.3,1.5-.5,1.7-.6,1.8-1,1.3-1.2,1.8-2.7.7-1.7a10,10,0,0,0-3-8.7,9.4,9.4,0,0,0-8.8-2.2,10.6,10.6,0,0,0-2.5.9,10.6,10.6,0,0,0-3.3-1.9h-3.8l-1.4.3-1.6.7-1,.7-1.8,1.6-.7,1a9.7,9.7,0,0,0-1.2,5.7,10.6,10.6,0,0,0-1.6,4.3Z" fill="#fcba04"/>
          <path d="M417.3,700.5l-.2.3-.8,2.1-.3,3.9.4,2.2,1.2,2.2,1.6,1.7,1.7.9-.3.5a10.8,10.8,0,0,0,5.9,2l1.5-.2,2.7-1,1.3-.7,1.4-1.3.9-1.1,1.3-2.5.4-1.4.3-2.5v-1.5l-.8-2.6-.6-1.4-1-1.3a12.6,12.6,0,0,0,3.4-1.5,10.5,10.5,0,0,0,3-14.5l-2.4-1.7-5.1-1.1-3,.5h-.1l-1.5.4-2,1.3-1.5,1.9-.5,1.3h0l-.6.9v.7l-.4,1.2v1.1l-.4,2.1.6,3a5.4,5.4,0,0,0,.9,1.2A11.6,11.6,0,0,0,417.3,700.5Z" fill="#fcba04"/>
          <path d="M275.4,786.3a9.5,9.5,0,0,0,9.8,4.2,10.3,10.3,0,0,0,18.7,7.7l.5-1,1.3-2,.9-1.1v-1.4l-.9-1.1-1-2.1h-.3v-.2a10,10,0,0,0-11.2-6.7,10.2,10.2,0,0,0-1.2-8.2l-2.5-1.7-2.9-.6-1.7-.6a8.2,8.2,0,0,0-7.2,2.7,9.7,9.7,0,0,0-2.5,7.5l-.4,1.5Z" fill="#fcba04"/>
          <path d="M253.9,823.9l-.8,2.1-.3,2.5.5,2.3,1.9,3.6,1.5,1.6c.1.1,7.5,3.9,13.1,1l.8-.5,1.3-1.2.7-.7.9-1.2.7-1.8.4-3.5-.2-1.9-.4-1.3-.9-1.4-.8-.9-.4-.7-1.4-1.7-1.6-1.2-3.2-1.3-1.9-.3a14.4,14.4,0,0,0-6.6,2.5l1.2,2.4-2-1.6Z" fill="#fcba04"/>
          <path d="M286.8,635.3l1,.8,2.1,1.1,1.2.5,1.6.3H294l2.3-.3,1.3-.3a11.7,11.7,0,0,0,6.2-7.1,10.9,10.9,0,0,0-1.5-8.9,18.3,18.3,0,0,0-1.3-1.6l-1-.8-2-1.2-1.2-.4-1.5-.3H294l-2.3.3-1.2.3a11.3,11.3,0,0,0-6.4,7,10.6,10.6,0,0,0,1.5,9.1A13.3,13.3,0,0,0,286.8,635.3Z" fill="#fcba04"/>
          <path d="M833,162.9l-1-1-.9-.7-2-.7-1.1-.2h-1.3l-1.1.2-1.9.8-.9.6-1,1-.6,1-.8,1.9-.2,1.1v3.9l.2,1.1.7,1.8.6.9.9.9.8.7,1.8.9,1,.2h1.4a7.7,7.7,0,0,0,7.5-9.8v-.8l-.4-1.1-.9-1.9Z" fill="#fcba04"/>
          <polygon points="595.7 863.9 595.7 863.9 595.7 863.9 595.7 863.9" fill="#fcba04"/>
          <path d="M606.6,810.3l1.1.6,2.3.7,1.2.3h1.7l1.2-.2,2.3-.8,1.1-.6a11.1,11.1,0,0,0,3.1-15.2l-1.1-1.2-2.4-1.8-1.5-.6-2-.4H612l-3.4.8-1.7.7-1.4.9-1.4,1.4-.9,1.3-1.1,2.8-.2,1.7a10.2,10.2,0,0,0,1.6,6.5A13.6,13.6,0,0,0,606.6,810.3Z" fill="#fcba04"/>
          <path d="M798.3,855.1l2.4-1.8,2.8-4.4.5-2.9-.3-.2v.9h0v-1.1l-.8-1,.3-.3-.4-1.1.5-.9-.4-1.5-1.7-2.4-1.5-1-.3.4-.6-.4.2-.4-2.2-1.4-3-.5a9.5,9.5,0,0,0-5.9,4.3,10.3,10.3,0,0,0-1.3,7.9C787.9,852.9,793,856.3,798.3,855.1Z" fill="#fcba04"/>
          <polygon points="676.9 644.8 676.9 644.8 676.9 644.8 676.9 644.8" fill="#fcba04"/>
          <path d="M629,961.8l-.9-.7-1.4-.7-1.2-.5-2.3-.4h-1.3l-.9.2a10.5,10.5,0,0,0-4.7,2.4l-.5.4-1.1.9-.7.9-1.1,1.7-.4,1.1a10.3,10.3,0,0,0,2.4,9.9,9.7,9.7,0,0,0,9.3,2.9,9.5,9.5,0,0,0,5.8-4.2,10,10,0,0,0,1.6-2.4,10.2,10.2,0,0,0-.4-9l-.7-1Z" fill="#fcba04"/>
          <path d="M654,900.8a10.4,10.4,0,0,0,0-2.5l-.4-1.3-.6-1.1a11.8,11.8,0,0,0,8.2-1.3l1.3-1.2,1.9-2.7.7-1.7.3-2.2v-1.4l-.2-.7h.2a10.9,10.9,0,0,0-1.9-5.4l-1.2-1.2-2.5-1.6-1.6-.6-1.8-.3h-1.6l-2.6.6h0l-1.5.5-1.1.6a9.3,9.3,0,0,0-14.6,3l-.7,1.3-.3,1.2-.4,2.3v1.3h0l-2.1-2.1-1.5-.9-2-.8h-1.8l-3.3.4-1.7.6-2,1.3-1.2,1.3-1.7,2.8-.5,1.8-.2,2.1.3,1.5a6.4,6.4,0,0,1-.2.7l.4,2.4,1.9,3.8,1.4,1.6.3.3.7.9,1.7,1.4,1,.6,1.7.7,1.3.3h2.6l1.4-.2a13.8,13.8,0,0,0,5.1-2.7l.4.8,1.6,1.9,1.2,1,2.7,1.3,1.6.5C649.8,910.1,653.5,905.3,654,900.8Z" fill="#fcba04"/>
          <path d="M596.1,845.3l.7,1.4,1.7,2.2,1.2,1a10.6,10.6,0,0,0,6.8,1.4l1-.2a9.2,9.2,0,0,0,11-4.2,9.2,9.2,0,0,0,8.4.9l1.2-.7,1.7-1.4h.2l2.8.2H634l.5-.2c4.9-1.1,8.1-4.8,8.2-9.5l-.3-1.4-.9-2.4-.7-1.2-1.1-1.3-.5-.5-.8-.6h-.1v-.3c-1.1-1-4.4-4-9.3-2.9a9,9,0,0,0-2.8,1.3,7.7,7.7,0,0,0-3-.3l-1.9.6-3,1.8-.3.4h-.1l-1.2.8-1.1,1.2-1.2,2.1-.7-.3.4-.4a10.9,10.9,0,0,0,2.9-6.4v-.9l-4-4.2h-.7v-.6l-3.6-4.4-1.8-.2h-1.6l-2.8.8-1.4.8-1.5,1.2-1,1.2-1.4,2.5-.4,1.3a11.8,11.8,0,0,0-5-.2l-1.5.6-2.4,1.7-1.2,1.1-1,1.7-.6,1.5-.5,3.4v1.8l.3,1.6.9,1.8.9,1.3,2.2,1.9,1.5.9a11.3,11.3,0,0,0,5.3.9Z" fill="#fcba04"/>
          <path d="M772.8,269.2l-.6,1.2.4,1.3.6.9,1.8,1.3,1.1.5,1.9.4h1.2l2.2-.4,1.1-.4,1.3-.8.9-.8,1.4-1.7.5-1a8.7,8.7,0,0,0-6.7-11.4l-1.4-.2h-1.1l-2.2.6-1.1.5-1.2.9-.8.9-1,1.8,1.6,1.1,1.8,1.5v1.3Z" fill="#fcba04"/>
          <path d="M708.7,895.2h1.7l.9.4h2.1l3.6-.7,1.9-1,1.8-1.6,1.1-1.7,1.1-3.7v-2.1c-.5-1.9.5-6.5.9-8.3v-1.8l-.9-3.3-.8-1.6-.7-.7a14.1,14.1,0,0,0,4-.5l1.1-.5v2.3l.9,3,.5,1.1c3.6,5.2,9,5.5,12.7,3.7l1.2-1,1.8-2.1.8-1.3.8-2.2.2-.7a10.8,10.8,0,0,0-.2-5.9l-1-1.5-2.3-2.4-1.5-.9-2.1-.7-1.8-.2v-.9l-.5-2.7-.2-.4-.4-2-.7-1.5-1.2-1.6-1.2-1.1-2.6-1.5-1.5-.5a12.1,12.1,0,0,0-7.3,1.3l-.8.6a10,10,0,0,0-9.3,8.7V861l.3,1.1.3.8.7,1.4.5.7a3.4,3.4,0,0,0,.8.9h-.9a10.4,10.4,0,0,0-7,5.8l-1,1.4-1.2,3.2-.8.9.4.4-2.3,3.5-.6,2.3h.3l-.3.4.3,2.6.5.4-.6,1.3A9.9,9.9,0,0,0,708.7,895.2Z" fill="#fcba04"/>
          <path d="M855.4,190.7l.6.7,1.2,1.2.7.5L859,192l.9-1.2h1.7l.9,1.2,1.3.2h.8l1.2-1,.5-.6.5-1,.2-.8v-1.6a7.3,7.3,0,0,0,3.6.8h1.6l.6-.2,1.1-.5.5-.3.7-.5.5-.4.8-.9.4-.5a7.6,7.6,0,0,0-.2-7.6,7.3,7.3,0,0,0-6.2-3.6,6.6,6.6,0,0,0-5.3,2.7l-.7.8-.5.8-.6,1.6-.2,1v.4l-1-.3h-1.6l-1.4.5-2.1,1.6.3.5-.6-.4-.2.3,1.5,1-1.6-.9A7.3,7.3,0,0,0,855.4,190.7Z" fill="#fcba04"/>
          <path d="M706.9,848.4l.9-1,1.2-1.9.5-1.1.4-1.5v-3h.1a10.2,10.2,0,0,0-1.7-5.3,11.9,11.9,0,0,0-1.5-1.8l-1.1-.8-2.3-1.1-1.3-.4-1.4-.2V830l-.8-1.3-1.8-2.2-.7-.5a11.4,11.4,0,0,0,.4-5.3l-.7-1.6-1.8-2.7-1.3-1.2-1.9-1.1-.8-.4H691v-.2c0-.3-3.3-.8-6.2-.1l-1.7.6-2.6,1.8-1.1,1.3-.9,1.6-.5.9-.3,2.1h-.2v3.6l.5,1.6.5,1.2,1.3,2,.9.9a13.7,13.7,0,0,0,2,1.3v.6l.2,2.4.3,1.2.7,1.5.7,1.1,1.6,1.7,1,.8.6.4h-1.9l-1.8.8h-1.4l-1.8.4-2.9,1.3-1.4,1.1-1.4,1.6-.8,1.6-.7,3.2v1.8l.5,2.3.8,1.6,2,2.5,1.4,1.1,1.9.9,1.5.3.6.3,2.3.5,4.2-.4,1.9-.8h.4l1.1-.4,1.8-1.1.9-.7,1.3-1.3.7-1.1,1-2.4.3-1.3a13.8,13.8,0,0,0-.1-2.9h.3A10.4,10.4,0,0,0,706.9,848.4Z" fill="#fcba04"/>
          <path d="M760.7,481.1l-1.8,1.8-.8,1.1-.7,1.6-.4,1.3-.2,2.6.2,1.3a11.7,11.7,0,0,0,8.8,7.8,9.3,9.3,0,0,0,9.2-4l.6-1.4.6-2.6V490a10.9,10.9,0,0,0,.1-1.8,3.6,3.6,0,0,0,1.4-.2,6.7,6.7,0,0,0,2.6-.9l-.2.9v3.4l.3,1.1.6,1.2,1.5,1.9,1,.9,1.7,1,.6.3a10.7,10.7,0,0,0,4.3.8l1.8-.6,2.9-1.9,1.2-1.4,1-2,.4-1.4.2-2.7-.2-1.5c-2.2-6-7.5-7.4-11.5-6.2l-.9.4a9.2,9.2,0,0,0,.2-5.2v-.5c-.1-5.3-2.8-8.9-7.5-9.9h-1.3l-2.5.5-1.2.6-1.3.9-.4.4a11,11,0,0,0-6.5,8.8v1.7l.3.9a11.7,11.7,0,0,0-3.3.9Z" fill="#fcba04"/>
          <path d="M828.1,253.4l.2-.9v-1.2l-.3-2.2-.5-1.2-.9-1.5-.5-.7a9.1,9.1,0,0,0-4.9-2.9h-.8l-3.7,2.9v.5h-.5l-3.9,2.6-.3,1.5v1.2l.4,2.3.5,1.2.9,1.4.9.9,2,1.3h.1a8,8,0,0,0-1.4,3.9v.5a6.9,6.9,0,0,0,.1,5,6.8,6.8,0,0,0,4.5,4.2l.9.2h1.6l.9-.2,1.1-.3.9-.5,1.3-.9.6-.7a10,10,0,0,0,1.8-3.6l.3-.7.8-2.9v-1.7l-.6-1.7-1-1.4-2-1.5,1.1-1.7Z" fill="#fcba04"/>
          <path d="M640.4,940.1l2.5-1.8.8-1.4a9.4,9.4,0,0,0,3.1-7.8,9.8,9.8,0,0,0-4.6-7.9l-.9-.4-1.6-.5-1.2-.7-3-.5a10.4,10.4,0,0,0-7.9,12.7,11.8,11.8,0,0,0,4.9,7A10.5,10.5,0,0,0,640.4,940.1Z" fill="#fcba04"/>
          <path d="M777.9,180l.3.7.4.9.5.7,1.1,1,.6.5a7.2,7.2,0,0,0,3.3.5h2l1-.4,1-.7,1.4-1.7.5-1.1.2-1.4v-.9l-.3-1.7-.4-.8c-2.1-3.3-5.2-4.4-8.5-3l-.8.5-1.3,1.3-.5.8-.4,1.1-.2.9v1.7h0Z" fill="#fcba04"/>
          <path d="M731.8,548.7l.5,1.5.7,1.3,1.7,2,1.1.9,1.5.9,1.4.4,2.6.2h1.4l1.6-.5,1.3-.7h.1a10.2,10.2,0,0,0,4.5,4.2l2,.5h1.6l1.5-.2h2.5v.2h-.3l1.2-.6c.2-.1,0-.3.2-.4l1.3-.5,2.1-1.8a9.8,9.8,0,0,0,0-9.1,10.2,10.2,0,0,0-4.4-4.3,9.7,9.7,0,0,0-9.2-.2l-1.4-1.6-1-.9-1.8-1-.8-.4a9.1,9.1,0,0,0-6.3-.2l-.8.3-2.1,4.8.3.6-.5.2Z" fill="#fcba04"/>
          <path d="M704,394.9l1.7.8,3.2.6,1.8-.2,1.8-.8,1.5-1.1.9-1.3.4.3a9.9,9.9,0,0,0,2-4.7v-1.3l-.6-2.2-.5-1.1-.9-1.2-.9-.9-1.9-1.2-1.1-.4-1.9-.4h-1.3l-2.2.4-1.1.5-1.3.8-.9.8-1.4,1.8-.6,1.1a9.4,9.4,0,0,0,3.1,9.7Z" fill="#fcba04"/>
          <polygon points="702.9 444.9 702.9 444.9 702.9 444.9 702.9 444.9" fill="#fcba04"/>
          <path d="M661.9,609.9a21.6,21.6,0,0,0-.1,7.6l.4,1.4,1.4,2.4,1,1.1,1.4,1.1,1.3.7,2.5.8,1.5.2,1.9-.3c3.2-.8,5.6-4.3,7-7v-1h.1l-.2,2.5v2.2l.5,2.3.7,1.6,1.8,2.4,1.2,1.1,1.5.8,1.4.5,2.6.3h1.4l1.7-.5,1.3-.6,2-1.5,1-1,.7-1.1a12.8,12.8,0,0,0-.7-13.7l-.8-.9-1.8-1.3-1.1-.6-1.5-.5-1.2-.2h-2.2l-1.2.2a10.3,10.3,0,0,0-5.9,4.7,20.1,20.1,0,0,0-.1-2.4l-.4-1.7-1.6-2.8-1.1-1.3-1.7-1.3-1.6-.6-2.7-.6h-1.1l-2.4.2-1.6.5-1.8,1.1-1.2,1.1-1.8,2.6Z" fill="#fcba04"/>
          <path d="M590.2,735.2l-.8,1a10.1,10.1,0,0,0,1.4,11.8l1.4,1,2.9,1.2,1.6.3,2.7-.2,1.7-.4a9.9,9.9,0,0,0,3.8-2.6l.8-1.4.8-2.9.2-1.6-.4-2.6-.2-.6,1.8-1.5.8-1.3.5-1.5.7-1.6.4-2v-1.7l-.8-3.1-.8-1.5a9.8,9.8,0,0,0-8.3-3.4,9.6,9.6,0,0,0-7.3,5.1,10.4,10.4,0,0,0-.8,7.7l-.3.2Z" fill="#fcba04"/>
          <path d="M680.5,469.7l2.1,1.4a7.8,7.8,0,0,0,9.4-6.2,9.7,9.7,0,0,0-.7-5.5,8.4,8.4,0,0,0-5.9-4.8l-2.5.5-2,1.3-1.3.6a6.9,6.9,0,0,0-2.7,5.9,8.1,8.1,0,0,0,2.9,5.8Z" fill="#fcba04"/>
          <path d="M700.3,579.4l-.7,1.5-.4,1.3V586l.5,1.6.7,1.2,1.6,2.1,1.1.9,1.6.8,1.4.4,2.6.2h1.4l2.1-.7,1.2-.6,1.9-1.5.9-1,.9-1.4.5-1.3.4-2.4v-1.3a9.6,9.6,0,0,0-4.5-6.6,9.7,9.7,0,0,0-8.2-.9l-1.4.5-1.1.7-1.8,1.7Z" fill="#fcba04"/>
          <path d="M674.7,471.6l-1.2-.6a8.1,8.1,0,0,0-4.5-.8l-1.4.4-2.4,1.4-1.2,1-1.3,1.8-.7,1.1a8.9,8.9,0,0,0-.7,4.5l.4,1.4,1.3,2.4.9,1.2,1.9,1.4,1.2.7a9.8,9.8,0,0,0,4.3.8l1.4-.4,2.5-1.3,1.2-1,1.4-1.8.6-1.1a8.7,8.7,0,0,0,.9-4.7l-.5-1.5-1.3-2.4-1-1.1Z" fill="#fcba04"/>
          <path d="M802.6,118.8l-.5-1.2-1-1.2-1.2-.8-2.4-.6h-1.4l-.9.3a6.3,6.3,0,0,0-4,8v.3a5.9,5.9,0,0,0,1.6,3.9,5.7,5.7,0,0,0,4.8,1.9h.7l1.3-.6.7-.3.7-.7.5-.5.8-1.2.2-.7a8.5,8.5,0,0,0,.3-3.4v-.6Z" fill="#fcba04"/>
          <path d="M670,926.6a9.6,9.6,0,0,0-1.3-1.7l-1.1-.8-2.4-1.1-1.3-.4-1.7-.2h-1.4l-2.4.6-1.2.6-1.5,1-1.1,1-1.5,2.1-.6,1.3-.5,1.7v1.4l.2,2.7.4,1.3.9,1.6a10.5,10.5,0,0,0,13.5,4l1.2-.9,1.9-2,.8-1.2.6-1.7.3-1.3v-2.6h.1A11.3,11.3,0,0,0,670,926.6Z" fill="#fcba04"/>
          <path d="M730.3,823.6l-1,.3a10.8,10.8,0,0,0-3.6-4.9,9.3,9.3,0,0,0-8.3-1.5l-2.2,1.7-1.2,2.4-1,1.3a7.8,7.8,0,0,0,.5,7.1,9.1,9.1,0,0,0,5.9,4.2l1.3.6,2.6.3.3,1.1.5,1.3,1.5,2.1.9,1,1.5,1.1,1.2.6,2.6.7h1.4l1.7-.3a10.3,10.3,0,0,0,8.3-11.1l-.3-1.4-1.2-2.4-.9-1.2-1.3-1.2-1.2-.7-2.3-1-.4,1,.3-1.1A11.8,11.8,0,0,0,730.3,823.6Z" fill="#fcba04"/>
          <polygon points="834 154.4 834 154.3 834 154.4 834 154.4" fill="#fcba04"/>
          <path d="M767.2,169.1v-.4h-1.9l-1.9.9-2.5,2.8-.7,2a7.2,7.2,0,0,0,14.2,2,7.1,7.1,0,0,0-3.4-7.9l-.6-.2-.2.5h-.3l.2-.6h-.2l-.7-.2-.6.4-.4-.2v.4l-.8.5Z" fill="#fcba04"/>
          <path d="M772.4,120.4v1.2l.2,1,.8,1.9.7.9,1,1,.9.6,1.9.8,1.1.2h1.3l1.1-.2,1.9-.8,1-.7,1-1,.6-.9.7-1.9.3-1.1v-.9l-.3-1.1-.7-1.8-.6-.9-1.1-1.2-.5-.4a7.1,7.1,0,0,0-4.8-1.6h-.6l-2.7,3.3v.8h-.5Z" fill="#fcba04"/>
          <path d="M573.6,875.6l-.5,1.5v.8a9.5,9.5,0,0,0-9.2,4.5,18.9,18.9,0,0,0-.9,2.1l-.2,1.3v2.4l.2,1.3.6,1.6.6,1.1,1.6,1.8,1,.9,1,.6,1.3.5,2.5.4H573l2-.4.7-.2a10.2,10.2,0,0,0,4.1-2.5l.3-.5,2.2.6h1.4a6.4,6.4,0,0,0,2-.3,10,10,0,0,0,6.6-15.2l-.3-.3V877l-.7-1.4-1.6-2.3-1-1a11,11,0,0,0,1.4-2.1,10,10,0,0,0-.5-9.9,9.5,9.5,0,0,0-7.2-4.1l-1.4-.2h-1.3l-2.3.4-1.2.5a10.1,10.1,0,0,0-3.4,14.5,11,11,0,0,0,1.4,1.8l.6.5h0Z" fill="#fcba04"/>
          <path d="M625.2,729.6l-1.5-.4-2.8-.3-1.5.2a11.1,11.1,0,0,0-8.1,8.1v1.9l.8,3.3.9,1.7,2,2.2,1.1.9a10.4,10.4,0,0,0,5.6,1.9l1.8-.4,3.1-1.6,1.5-1.2,1.3-1.8.7-1.8.2-1.2h.3a11.7,11.7,0,0,0,.3-4.7h.1a11.4,11.4,0,0,0,8.7,1.8,11.2,11.2,0,0,0,7-5.1l.4-.9.6-1.7v-3.2l-.3-1.7-.3-.9a12.5,12.5,0,0,0-7.2-6.3l-1.3-.2h-2.5l-1.4.3-1.5.6-1.2.7-1.8,1.6-.9,1.1-1.3,2.5-.4,1.4-.4,2.5v1.4l.2.6-.7-.6Z" fill="#fcba04"/>
          <path d="M704,45a6.4,6.4,0,0,0-5.4-.1l-.9.4-.7.5-1.1,1.3-.4.7-.4,1.1v2.4l.2.9.4,1,.5.8,1.2,1.2.8.5,1.1.5.9.2h1.7l.9-.2,1.4-.5.7-.5,1.2-1.1.5-.7.5-.9.2-.9.2-1.6v-.9A6.3,6.3,0,0,0,704,45Z" fill="#fcba04"/>
          <path d="M695.1,329.1a6.9,6.9,0,0,0,3.5,4.5l.8.8,2.1.8a6.9,6.9,0,0,0,6.9-7,8.3,8.3,0,0,0-1.6-4.7,7.6,7.6,0,0,0-6-3.1l-2,.9-1.5,1.5-1,.8A6,6,0,0,0,695.1,329.1Z" fill="#fcba04"/>
          <path d="M692.6,494.3h-1.7v-.2a11.5,11.5,0,0,0-7.4,3.4l-.6.8-1,1.8-.4,1-.3,1.5v3.1l.3,1.4.2.5a9.6,9.6,0,0,0-5.8,3l-.8,1.5-.6,2.3v.2a9.2,9.2,0,0,0,3,10.7l1.8.8,3.7.4h.5a9.3,9.3,0,0,0,8.9-4.8,10.8,10.8,0,0,0,1.1-3.6v-1.8a10.1,10.1,0,0,0,3.4-.9l1.5-1.3,2.2-2.8.7-1.8.2-1.6a10.1,10.1,0,0,0-1-9.4A7.9,7.9,0,0,0,699,497l-.8-.7-1.8-1.1-1.1-.4-1.4-.4Z" fill="#fcba04"/>
          <path d="M703.9,209.1a7.7,7.7,0,0,0,5.3-2.2,7.6,7.6,0,0,0,2-5.3,7.7,7.7,0,0,0-7.6-7.6l-2,.9-2.1,2.6-.2,2v.2l-1,1-.3,1.8.4,1.6.5.8h0l.3.7.4.4.5.7.6.5,1.2,1.1Z" fill="#fcba04"/>
          <path d="M715.1,254.9l-.7-.9-1-.9-.9-.5-1.8-.7-1.1-.2h-1.7l-1.1.2-1.8.7-.9.6-1,.9-.6.9-.9,1.8-.3,1.1a7.9,7.9,0,0,0,4.5,7.7h.2l1.5.4h2.9l1.5-.5,1.5-1,1-1.2.6-1.3h.3a7.5,7.5,0,0,0,.9-4.4l-.2-1Z" fill="#fcba04"/>
          <path d="M712.2,149l-1.2-1.1-.8-.5-1-.4-.9-.2h-1.6l-.9.2-1.4.6-.7.4-1.2,1.2-.5.7-.5,1-.2.9v2.5a6.6,6.6,0,0,0,5.8,4.7h1.5l2.1-1,1.1-.8.8-1.3.4-1.3v-1.1h.3a6.4,6.4,0,0,0-.6-3.7Z" fill="#fcba04"/>
          <path d="M660.7,351.7l-1.5.8-1.2.8-1.3,1.3a9.4,9.4,0,0,0-1.2,1.8,9.9,9.9,0,0,0-.1,9.6c1,1.9,3.6,5.2,9.6,5.7h.8l1.6-.2.8-.2,1-.4.7-.3,1.3-.8.7-.6a12.1,12.1,0,0,0,2-2.6,10,10,0,0,0-1-11.2A11.6,11.6,0,0,0,660.7,351.7Z" fill="#fcba04"/>
          <path d="M621.4,45.6l-1.5-1.9-1.2-.8-1.4-.4h-.6a6.5,6.5,0,0,0-3.6.2,5.8,5.8,0,0,0-3.2,7.1l.5.9.7.7a5.9,5.9,0,0,0,6.4,2.9l.9-.4,1.4-1,.6-.7.7-1.2.3-.5a6.3,6.3,0,0,0,.6-3.5Z" fill="#fcba04"/>
          <path d="M600.4,359.1l-1.1.2-1.8.5-1,.4-1.1.7-.7.7-1.2,1.5-.5.9a9.1,9.1,0,0,0,.4,7.9,8.7,8.7,0,0,0,6.1,4.3l1.6.2h1.1l1.9-.5.9-.4,1.1-.8.8-.7,1.2-1.6.5-.9a9.2,9.2,0,0,0-.5-7.7,8.4,8.4,0,0,0-6.1-4.3Z" fill="#fcba04"/>
          <path d="M589.9,388.5l-1.2-.5a9.6,9.6,0,0,0-8.6-1.6l-1.6.7-.9.5-1.4,1.3-.7.9-.7,1.1-.4,1.1-.4,1.5h-.1a10.8,10.8,0,0,0,1,7.4l.6.7,1.3,1.4.9.6,1.1.6.9.4,1.8.5h1.4a14.8,14.8,0,0,0,4.3-.5A9.5,9.5,0,0,0,594,394l-.7-1.7-2-2.6Z" fill="#fcba04"/>
          <path d="M607.9,254.9l-.7.6-.9.8-.5.7-.7,1.5-.3.9a8.2,8.2,0,0,0,1.7,6.7,8.1,8.1,0,0,0,6.1,2.7l1.5-.2.9-.3,1.5-.8.7-.5.9-.9.5-.7.7-1.6.3-.9a8.2,8.2,0,0,0-1.8-6.5,7.7,7.7,0,0,0-6.1-2.6h-1.5l-.8.3Z" fill="#fcba04"/>
          <path d="M712.3,317.4l-1.5,2v.2l-.6,1.1-.4,1.9.2,2,.4,1h.1v.8l.4.6.4.9.6.7,1,1.5,2.1,1.4a8.7,8.7,0,0,0,6.4-1.3,8.3,8.3,0,0,0,3.5-5.3,8.8,8.8,0,0,0-6.7-10.3l-2.4.5Z" fill="#fcba04"/>
          <path d="M641.1,640.5l-1.4.7-2.2,1.6-.7.8-1.4,1.9-.6,1.5-.4,2v1.6l.7,2.9.8,1.5a22.7,22.7,0,0,0,5.4,4.9l1.4.6,2.6.5h2.2a7.9,7.9,0,0,0,2.9,1.7l2.2.2,4.1-.8,2-1.1,1.8-1.7.6-.8h.1a10,10,0,0,0,2.4-5.5,9.4,9.4,0,0,0-7.9-10.3h-1.6l-1.7.4h-1a19.3,19.3,0,0,0-2.1-1.7l-1.6-.7-3-.7h-1.7Z" fill="#fcba04"/>
          <path d="M622.6,616.5l-.9,2.4-.4,1.5a9.7,9.7,0,0,0,.5,4.7l.9,1.4,2.1,2.2,1.3.9,2.4.9,1.4.4a9.4,9.4,0,0,0,5.1-.6l1.4-.9,2.1-2.1.9-1.4.9-2.4.3-1.4a9.7,9.7,0,0,0-.6-4.9l-.9-1.4-2.1-2.1-1.4-.9-2.4-.8-1.3-.4a10.1,10.1,0,0,0-4.9.6l-1.4.9-2.1,2.1Z" fill="#fcba04"/>
          <path d="M648.5,592.9l1.4.6,2.9.6h.7a9.1,9.1,0,0,0,8-3.1l.8-1.4.9-2.8v-1.6l-.4-2.7-.6-1.6a9.7,9.7,0,0,0-5.7-5.1l-1.5-.2h-2.6l-1.4.3-1.7.8-1.2.9-1.8,2-.7.9C643.1,585.9,645.2,590.6,648.5,592.9Z" fill="#fcba04"/>
          <path d="M800.5,101.6a6.2,6.2,0,0,0,4.9,1.1l-7.3-5.5A6.9,6.9,0,0,0,800.5,101.6Z" fill="#fcba04"/>
          <path d="M423,807.5l-1,.7-1.7,1.5-.8.9a10.2,10.2,0,0,0,.9,12l.8.8,1.7,1.2,1,.5,1.4.4,1.1.2h2.1l1.1-.2a10.1,10.1,0,0,0,6.3-4.7,9.4,9.4,0,0,0,.7-8.3,10.1,10.1,0,0,0-7-6.1h-3.7l-1.3.3Z" fill="#fcba04"/>
          <path d="M368.8,952.7a10.9,10.9,0,0,0-6.3-11.2l-1.7-.4h-3.3l-1.7.4-2.5,1.3-1.6,1.2a10,10,0,0,0-2.5,4l-.3,1.7.4,3.1.5,1.7,1.4,2.4,1.2,1.3a10.2,10.2,0,0,0,7.8,2.8l1.4-.4,2.5-1.1,1.2-.9,1.3-1.3.8-1.1,1-2.3Z" fill="#fcba04"/>
          <path d="M718.6,204.3l-.7,1.7-.6.9a5.1,5.1,0,0,0,.8,4.6,5.4,5.4,0,0,0,4.1,2.4l.8.4h1.9a5.8,5.8,0,0,0,3.2-7.6,7,7,0,0,0-2.6-3.1,6.2,6.2,0,0,0-5.6-.6Z" fill="#fcba04"/>
          <path d="M493.9,923.4l-1.3-.4-2.3-.3H489l-1.1.2a9.9,9.9,0,0,0-7.6,4.8,11.2,11.2,0,0,0-1.1,2.5V934l.3,1.3.7,1.6.7,1.1,1,1.1,1,.7,3.5,1.9,2.3.5,2.6-.4,1.5-.6,2.6-1.7,1.2-1.1,1.1-1.5a9.8,9.8,0,0,0,1-7.8A9.1,9.1,0,0,0,493.9,923.4Z" fill="#fcba04"/>
          <path d="M468.7,956.7l-1.6.8-2.4,2-1.1,1.4-.6,1.4h-.4l-1.4.3-2.3,1-1.2.8-1.3,1.3-.8,1.1-1.1,2.3-.4,1.4v2.7l.8,2.8.7,1.4,1.3,1.6,1.2,1,2.5,1.3,1.5.5,1.9.2,1.6-.2,3-.9,1.4-.9,1.6-1.4.9-1.1.9-1.8a10.2,10.2,0,0,0,5.8-2.8l.8-1.1,1.2-2.5.4-1.4v-3.1l-.6-2.4-.5-1.2A10.7,10.7,0,0,0,468.7,956.7Z" fill="#fcba04"/>
          <path d="M536,988.3l-1.1-1.9-1.3-1.3-2.8-1.8-1.8-.6-2.4-.3-1.8.3-3.1,1.1-1.5,1-1.6,1.6-.7,1.3-.6.5-1.2,2.1-1,4.2v3.7l.4,2.2.4,1.1.5,1c6.4-.2,12.8-.5,19.1-.9l.8-3-.2-2.1h.1v-.4a6.9,6.9,0,0,1,.4-1l.2-1.8-.3-3.3Z" fill="#fcba04"/>
          <path d="M340.6,864.3c-7.2-.5-10.9,4.2-11.4,8.9a9.6,9.6,0,0,0,0,2.4l.4,1.3,1,2.2.8,1,1.2,1.3,1.1.8,2.2,1.1,1.3.4a11,11,0,0,0,10.6-4.8l2.2,1.2,1.9.5h2.3l1.6-.3,2.6-1.1,1.2-.9c4.6-4.5,5.3-9.9,2.1-14.8l-1.2-1.2-2.5-1.6-1.5-.6-1.9-.3h-1.5l-2.8.6.2.5-.3-.6-1.5.6-1.2.6-1.3,1.1-.9.9-1.3,2.1h-.1l-1.7-.9Z" fill="#fcba04"/>
          <path d="M443.1,749.4l-1-1.3-1.9-1.7-1.2-.7a9.7,9.7,0,0,0-4.7-1.2l-1.6.4-2.7,1.2-1.3,1-1.6,1.8-.8,1.2a11.2,11.2,0,0,0-1.1,4.7l.3,1.6,1.2,2.7.9,1.3,1.9,1.6,1.3.9a9.4,9.4,0,0,0,4.5,1.1l1.6-.3,2.7-1.2,1.3-.9,1.7-1.8.8-1.2a10.6,10.6,0,0,0,1.3-5l-.4-1.5Z" fill="#fcba04"/>
          <path d="M760.8,100.5l-1.3-1-.7-.5-1.1-.3h-2.5l-.9.2a6.8,6.8,0,0,0-3.7,8.6l.5.9,1.3,1.4.8.5,1.1.5,1,.2h2.2l1-.2.8-.3,1-.6.6-.7,1-1.3.4-.8a7.7,7.7,0,0,0-.9-5.9Z" fill="#fcba04"/>
          <path d="M740.1,138.2l-.7,1.8-.2,1.1v1.3l.2,1.1.8,1.9.6.9,1,1,1,.6,1.9.8,1.1.2h1.8l1-.2,1.8-.7.9-.6,1-.8.6-.9.9-1.7.2-1a7.6,7.6,0,0,0-1.8-6.1,8.3,8.3,0,0,0-6.1-2.5h-1.1l-1,.3-1.7.9-.9.6-.9,1Z" fill="#fcba04"/>
          <path d="M366.1,983.5a10.9,10.9,0,0,0-8.9-8.1,10.3,10.3,0,0,0-9.2,3.4c6,2,12.1,3.8,18.2,5.5Z" fill="#fcba04"/>
          <path d="M737.6,416.9c-6.1-3-11.2-.2-13.2,3.7a12.1,12.1,0,0,0-.9,2v1.3l.2,2.4v.2h-.8l-1.3.5-2.1,1.4-.3.3-1.5,1.1-1,1.1-.9,1.5-.5,1.4-.3,2.7V438a10.3,10.3,0,0,0,3.7,5.6l.8.5a9,9,0,0,0,10.5,4.6l.7-.3,1.3-.6.6-.4.8-.6.6-.5.9-1.1.4-.7a10.5,10.5,0,0,0-.7-10.8l1.3-.3.8-.2a11.4,11.4,0,0,0,3.9-2.8l.8-1.7.7-3.4v-1.8l-.7-2.2-.7-1.3-1.8-2.2Z" fill="#fcba04"/>
          <path d="M837.2,132.3l-.8,2.3-.3,1.4v1.1l.3,1.4.5,1.1,1.2,1.8,1,.8a7.3,7.3,0,0,0,4.6,1.6,8.9,8.9,0,0,0,3.1-.7l.8-.4,1.4-1.1.6-.6v-.2l-11-10.4-.8.9Z" fill="#fcba04"/>
          <path d="M768.5,80.1l.5,1,1.2,1.5.9.6,1.2.6,1,.2h1.9l1.1-.3a5.7,5.7,0,0,0,1.3-.8l-9.1-5.8A7.6,7.6,0,0,0,768.5,80.1Z" fill="#fcba04"/>
          <path d="M577.6,560.9c-3.6,1.2-7.5,5.1-6.4,10.3l.2,1.4.8,1.2a8.9,8.9,0,0,0,9.2,5.2l1.4-.5,2.3-1.4,1-1,1.2-1.6.4-.7a9.7,9.7,0,0,0,1.4-5.3l-.6-1.9-2.2-3.1-1.6-1.3-.7-.8.4-.3h0C584.4,560.8,580.2,560.1,577.6,560.9Z" fill="#fcba04"/>
          <path d="M493.2,1000.1l-2-1.3v.3l-.3-.5-2.7-.5-.5.3-1-1a10.3,10.3,0,0,0-9.1,4.8c5.9.3,11.8.4,17.7.5Z" fill="#fcba04"/>
          <path d="M330.8,675.5a9.8,9.8,0,0,0-6.8,4.2l-1.2,1-1.5,2.7a9.6,9.6,0,0,0,8.7,10.7,6.7,6.7,0,0,0,2,0l-.3,1.2a9.5,9.5,0,0,0,6.8,9.9,10.6,10.6,0,0,0,12.2-4.5A9.7,9.7,0,0,0,350,690l-1.9-1.3-2.7-.8a9.6,9.6,0,0,0-4-1.1,10.5,10.5,0,0,0,.5-1.9l-.9-3-1.9-2.3-.9-1.6A8.4,8.4,0,0,0,330.8,675.5Z" fill="#fcba04"/>
          <path d="M290.3,928.6l-1.3,1.8-.5,1c-.2.8-.4,1.6-.5,2.3a10.5,10.5,0,0,0,20.7,3v-1.4l-.5-2.6-.5-1.3-.9-1.5-.9-1.1-1.7-1.4v-.2l-1.4-.9,1.8-1.3a9.8,9.8,0,0,0,.3-9.4,10.9,10.9,0,0,0-3.8-3.9c-5.1-3-11.1-1.7-13.9,2.9l-.4,3,.5,2a8.9,8.9,0,0,0,1.2,3.9l.2-.2v.2l-.2.2a4.7,4.7,0,0,0,.9,1.2l.8.3a14.1,14.1,0,0,0,1.8,1.7l-1.1.8Z" fill="#fcba04"/>
          <path d="M307.9,837.1l-.7,1.3-.7,2.7-.2,1.5.2,1.9.5,1.4,1.3,2.5,1,1.1a10.9,10.9,0,0,0,8.2,2.6,9.6,9.6,0,0,0,5.6-2.5,9.7,9.7,0,0,0,8.9,4.7l1.5-.4,2.6-1.4,1.2-.9,1.5-1.7.5-.7a11,11,0,0,0,1.8-5.5l-.5-2.2-2.1-3.4-1.6-1.5-2.2-1.1-.9-.3h0c0-.3-3-1.2-5.8-.5a8.8,8.8,0,0,0-4.1,2l-.9-.8C317.4,831.5,311.1,833.2,307.9,837.1Z" fill="#fcba04"/>
          <path d="M318.3,795.9l-.7,1.9-.2,1.8.3,2,1.4,3.3,1.2,1.6,1.8,1.5,1.4.8,2.8.8h1.5c6.5-.6,10.6-4.4,11.2-10.3l-.2-1.6-.9-2.9-.8-1.4-1.2-1.5-1.3-1-2.5-1.3-.3.6.2-.7-1.6-.6-1.3-.2h-1.7l-1.3.2-2.4.7-1.2.7a10,10,0,0,0-3.3,4.3Z" fill="#fcba04"/>
          <path d="M376,752.2l-1.3-.7-1.7-.7a11.8,11.8,0,0,0-7,.7v.2h-.5l-1.6.7-1.6,1.2-1,1.2-.5.7-.2.2-.7.7-.9,1.2-.5.9-.8,1.9-.2,1a7.9,7.9,0,0,0,0,2.2v.8l.3,1.4,1,2.6.8,1.3,1.1,1.2,1.1.8,1,.5v.2a9.8,9.8,0,0,0,9.8,1.6,9.5,9.5,0,0,0,4.4-3.5l1.1-1.1,1.6-2.7.6-1.6.2-1.8a12.7,12.7,0,0,0-3-10Z" fill="#fcba04"/>
          <path d="M357.3,652.3l-1.5-1.3-1.3-.7a9.8,9.8,0,0,0-9.1-2.3l-1.7.5-1,.6-1.6,1.3-.8.8-.8,1.2-.6,1.1-.5,1.6h-.1a10.7,10.7,0,0,0,.6,7.9l.5.9,1.3,1.5.8.8,1.2.8,1,.4,1.9.6,1.5.2a15.1,15.1,0,0,0,4.6-.2,10.2,10.2,0,0,0,8.1-10.9l-.6-1.8Z" fill="#fcba04"/>
          <path d="M378.7,734.4l-.6-1.4-1.3-2-1-1-2.3-1.6-1.3-.6-1.8-.5h-1.5l-2.7.3-1.5.5a11.3,11.3,0,0,0-5.6,11v.3l.8,2.1,2.2,3.2,1.7,1.3,2.3,1,2.2.3,1.9-.4v.6a11,11,0,0,0,5.8-2.2l1-1.2,1.4-2.3.5-1.4.3-1.9v-1.4Z" fill="#fcba04"/>
          <polygon points="273.8 848.5 272.2 846.2 271.1 845.2 270.1 844.6 268.6 844.1 265.9 843.7 264.4 843.8 262.5 844.3 261.2 844.9 259 846.6 257.9 847.7 256.7 849.7 256.2 851.2 255.8 853.9 255.9 855.4 256.4 857.3 257 858.6 258.7 860.8 259.8 861.9 260.8 862.5 262.3 863 265 863.3 266.5 863.3 268.3 862.8 269.7 862.2 271.9 860.5 272.9 859.4 274.1 857.3 274.6 855.9 275 853.2 275 851.7 274.5 849.8 273.8 848.5" fill="#fcba04"/>
          <path d="M753,68l.6,1,.6.7,1.2,1.1,1.1.7a11.7,11.7,0,0,0,3.6,1.4l2,.2c-3.1-1.9-6.2-3.8-9.4-5.6Z" fill="#fcba04"/>
          <path d="M737,59.2a7.6,7.6,0,0,0,3.1,1.6h.8l-4.8-2.6v.2Z" fill="#fcba04"/>
          <path d="M375.4,953.4l-.3,1.1-.4,2v2.6l.3,1,.7,1.9.5,1a11.4,11.4,0,0,0,12.1,4,10.3,10.3,0,0,0,7.7-8.9c0-.8,0-1.6-.1-3l-.5-1.6-.5-1.2-.8-1.3a10.9,10.9,0,0,0-9.5-4.3A12.1,12.1,0,0,0,375.4,953.4Z" fill="#fcba04"/>
          <path d="M499.4,559l.9,1.3,2.2,2,1.3.8,2.1.8.8.2a11.1,11.1,0,0,0,6-.2l1.8-1.3,2.6-3.1.8-2.1.3-2.4v-1.1h0a9.9,9.9,0,0,0-1.5-5.7,9.5,9.5,0,0,0-12.5-2.9l-1.3,1.1-1,1.3A9.7,9.7,0,0,0,499.4,559Z" fill="#fcba04"/>
          <path d="M249.1,884.1l-2.1.5-1.2.8-1.1.9-1.6,2-.7,1.2-.3,1-.2,1a14.7,14.7,0,0,0-.1,3.6,9.5,9.5,0,0,0,3.1,6l-.6,1.2-.4,1.4-.3,2.4.2,1.5.7,2.7.7,1.4,1.1,1.5,1.1,1,2.8,1.7a13.9,13.9,0,0,0,5.3,2l2.5-.4,3.9-2,1.8-1.8,1.2-2.4.4-2.5-.8-4.4-1,.2,1.1-.5-.3-.7-2.6,1.5,2.6-1.6a13.8,13.8,0,0,0-4.7-5.8,9.2,9.2,0,0,0-.4-8.1,4.7,4.7,0,0,0-.7-1.2l-.5-.7-1.1-1.2-.8-.6-1.3-.9-2-.6Z" fill="#fcba04"/>
          <path d="M239.7,765.9l-1.3-.4-2.4-.2h-1.3l-1.6.4-1.3.6-2.1,1.5-1,1-.5.7c-2.1,3.6-2.5,9,3.2,13.7l1.3.7,2.7.9h3.4l1.6-.5,2.5-1.4,1.2-1a8.3,8.3,0,0,0,.8-1.2,9.9,9.9,0,0,0,1-8.2A10.5,10.5,0,0,0,239.7,765.9Z" fill="#fcba04"/>
          <path d="M310.8,964.7l-1.5-.9-1.5-.5-2.2-.2,6.3,2.6Z" fill="#fcba04"/>
          <path d="M521.3,796.6c-6-3.4-11.5-.8-13.8,3.1a6.7,6.7,0,0,0-.9,2.1l-.2,1.2v2.2a10.8,10.8,0,0,0,.9,7.3l-1.3,1.1-2.1,2.5-.7,1.6-.5,2v1.8l.3,1h-.7l-.8.3-2.6,5,.2.6-.6.2-2.9,4.7.4,1.7.6,1.4,1.7,2.3,1.1,1,1.6,1.1,1.4.5,2.8.5h1.5l1.8-.4,1.3-.6,2.3-1.6,1.1-1.2,1-1.6.5-1.4.5-2.8v-1.3l1.3-.5,2.9-2,1.2-1.4,1.1-1.9.5-1.9v-3.4l-.4-1.8a10.9,10.9,0,0,0-.8-1.5l1.3-1.3,1.8-2.9h.1l.6-1,.5-1.4.5-2.7v-.3a9.6,9.6,0,0,0,4.3,3.1,9.8,9.8,0,0,0,11.5-3.5l.4-.7-.7-.4v-.4l.9.4-.2-.3.5-1-.4-.8.2-.6h-.5l-.6-1.1.3-.3h.6v-1h.1v-1.6l-1-2.8-3.5-3.9-.3-1.3c-6.9-.7-9.4,4.1-9.4,8.9h0l-3.6-1.8Z" fill="#fcba04"/>
          <path d="M545.6,870.4a10.6,10.6,0,0,0-14.9-2.9,11.2,11.2,0,0,0-4.9,7.1,5.3,5.3,0,0,0-.1,1.3l-.4.2-1.5,1.1-1.1,1-1.5,2.3-.5,1.4a17.7,17.7,0,0,0-.4,2,10.7,10.7,0,0,0,3.2,9.1,10.8,10.8,0,0,0,9.4,2.5l.4-.2h.7l1.5-.2,2.8-.8,1.4-.7,1.5-1.2,1-1.3,1.4-2.5.5-1.5.2-1.8-.2-1.6-.4-1.7a10.5,10.5,0,0,0,2.3-4.6v-2.7l.3-1.4Z" fill="#fcba04"/>
          <path d="M487.7,653.7l-.2-1.3-.4-1.4-1.3-2.5-1-1.1a10.7,10.7,0,0,0-8.9-2.5,10.2,10.2,0,0,0-7.2,5.1,8.9,8.9,0,0,0-.8,1.7l-.3,1v4.1l.2,1,.7,1.7.4.8a12,12,0,0,0,10,5,9.4,9.4,0,0,0,8.9-11.3Z" fill="#fcba04"/>
          <path d="M564.7,469.2a10.3,10.3,0,0,0,11.2,8.8l1.8-.7,2.9-1.9,1.2-1.4,1.1-2,.2-1a10.2,10.2,0,0,0,1.3-5.1l-.2-1.4-1-2.5-.7-1.2-1.2-1.3-1.2-.9-2.3-1.2-1.4-.4a10.9,10.9,0,0,0-3.6.2A10.4,10.4,0,0,0,564.7,469.2Z" fill="#fcba04"/>
          <path d="M797.7,874.1l1.4,1.8,1,.9,1.4.8,1.1.5,2.2.5h1.3a6.9,6.9,0,0,0,2-.3,10.5,10.5,0,0,0,7.1-5.3,10.8,10.8,0,0,0,.3-9.3l-.6-1.1-1.5-1.8-.9-.9-1.4-.8-1.2-.5-2.2-.5h-1.2a6.4,6.4,0,0,0-2,.3,10.5,10.5,0,0,0-7.1,5.3,11.1,11.1,0,0,0-.4,9.3Z" fill="#fcba04"/>
          <path d="M556.6,735.8l.5,1.7.4.9,1.2,2.2,1.8,1.5,3.8,1.8,2.4.3.7-.2a10.5,10.5,0,0,0,6.8-4.9,10.9,10.9,0,0,0,.8-8.5l-.6-1.1-1.3-1.9-.8-.9-1.3-.9-1-.6-2.1-.7-1.2-.2a8.8,8.8,0,0,0-2.8.2,9.8,9.8,0,0,0-7.5,10.3Z" fill="#fcba04"/>
          <path d="M550.9,806.6V808l.3,2.7.5,1.4a9.5,9.5,0,0,0,1,1.7,9.9,9.9,0,0,0,8.1,4.9,10.5,10.5,0,0,0,8.7-3.9l.2-.4.5-.4,1.1-1.1,1.6-2.3.6-1.5.4-1.9v-1.5l-.5-2.8-.6-1.5-1-1.5-1.1-1.1-2.3-1.6-1.5-.6-1.9-.4h-1.5l-2.8.6-1.5.5-1.5,1-.6.7-.9.3-1.5,1-1,1-1.6,2.2-.6,1.3Z" fill="#fcba04"/>
          <path d="M553.8,768.2l-.8,1.1-.7,1.5-.4,1.3-.3,2.4v1.3l.3,1.2.5,1.3,1.5,2.2,1,1,1.7,1.2.7.4a9.4,9.4,0,0,0,4.5,1.1l2-.5,3.2-1.8,1.4-1.4,1.2-2,.6-1.5.3-2.9v-1.6c-1.8-6.6-7.4-8.5-11.7-7.5a10.5,10.5,0,0,0-2.3.8l-1,.7Z" fill="#fcba04"/>
          <path d="M460.9,579.4l-1.2.3-2.2.9-1,.7-1.5,1.3a10.1,10.1,0,0,0-1.5,13.3l.5.6,1.2,1.2.7.5,1,.6,1.1.4,2.2.6h2.2l.9-.2c5.8-1.3,8.6-7.1,7.8-11.9A9.5,9.5,0,0,0,460.9,579.4Z" fill="#fcba04"/>
          <path d="M447.7,566.2l-.6-1.1-1-1.3-1-.8-1.9-1.3-1.1-.5a11,11,0,0,0-9.6,1.4,10.8,10.8,0,0,0-4.7,8,12.7,12.7,0,0,0-.1,2l.3,1.3.8,2.3.7,1.1,1,1.3,1,.8,2.1,1.3,1.2.5a11.7,11.7,0,0,0,9.4-1.5,11,11,0,0,0,4.6-8,13.3,13.3,0,0,0,0-2l-.2-1.3Z" fill="#fcba04"/>
          <path d="M407.2,734.4l-.4,2.9.5,2a8,8,0,0,0,1.1,4h.1a10.1,10.1,0,0,0,1.3,1.6l3.2,1-.2.4,1.1.6,2.9.4,2.3-.6v-.3h.5v.3l2.2-.5,2.3-1.8a9.6,9.6,0,0,0,1.1-7.2,9.7,9.7,0,0,0-4.5-5.9A9.9,9.9,0,0,0,407.2,734.4Z" fill="#fcba04"/>
          <path d="M403.4,853.3a9.6,9.6,0,0,0-7-.8,10,10,0,0,0-6.6,5.6l-.3,1.2-.3,2.3v1.3l.3,1.6.5,1.2,1.1,2,.8,1a16.5,16.5,0,0,0,4.8,3.1l.9.5,3.9,1.5H404l2.5-.5,2-1.2,2.9-3.1,1-2a10,10,0,0,0,.2-1.6c.8-7.2-3.9-11.4-8.5-12.2Z" fill="#fcba04"/>
          <path d="M484.7,624.9l-.6-.8a9.6,9.6,0,0,0-2.9-4.2l-1.2-.8-2.4-.8-1.4-.3h-1.8l-1.3.3-2.4.9-1.2.8a13.9,13.9,0,0,0-2.1,2.7,10.4,10.4,0,0,0,3.6,13.7,10.1,10.1,0,0,0,13.6-2.7l.6-1.7.5-3.3-.3-1.9Z" fill="#fcba04"/>
          <polygon points="472.4 720 472.4 720 472.4 720 472.4 720" fill="#fcba04"/>
          <path d="M383.2,889.4a3.4,3.4,0,0,0-.6,1.2l-.4,1.2-.2,2.5v1.3l.6,2,.2.6a10.2,10.2,0,0,0,5.8,5.7l1.1.2H393l1.4-.4,1-.3,1.6-.9h0a10.8,10.8,0,0,0,3.9-3.8,10.2,10.2,0,0,0,1-2.1l.2-1.2v-3.5l-.5-1.5-.5-1.1-1.3-1.8-.9-.9a10.7,10.7,0,0,0-8.8-2.3A10,10,0,0,0,383.2,889.4Z" fill="#fcba04"/>
          <path d="M451.5,808.5l-1,1.2-1.4,2.5-.3.8-.5,1.6-.2,1.5.2,1.9.3,1.5,1.3,2.5.9,1.2a13,13,0,0,0,9.5,3.3l1.4-.3,2.5-1.1,1.3-.8,1.3-1.3.9-1.2,1.1-2.5.4-1.5a12.5,12.5,0,0,0-2.1-7.5,14.2,14.2,0,0,0,3.8-2.4l.9-1.1,1.2-2.5.5-1.4.2-1.8-.2-1.5-.7-2.6-.6-1.3a11.3,11.3,0,0,0-15.2-3.2l-1.3,1.2-1.7,2.5.3,1.5.6,2v1.6l-.5,2.7v.8l.5,1.6h0l-1.6.7Z" fill="#fcba04"/>
          <path d="M540.3,686.1l-1.1-.9-2.4-1.3-1.3-.5-1.8-.3h-1.5l-2.6.6-1.3.5-1.5,1-1.1,1.1-1.6,2.4-.6,1.4-.4,1.9v1.6l.5,2.8.6,1.4,1.3,2,1,1.1,2.2,1.5,1.3.6,1.8.5h1.4l2.7-.3,1.4-.4a10.6,10.6,0,0,0,3.9-15.6Z" fill="#fcba04"/>
          <path d="M892.8,194.7l-.2.8-.2,1.5v.9l.2,2,.8,1.8,1.1,1.3a7.1,7.1,0,0,0-4.9,2.5A7.9,7.9,0,0,0,888,212l.3.8h-.2a5.9,5.9,0,0,0-3.8,4.6,1.7,1.7,0,0,0,0,1h-.1l-2-.2-1.1.3-1.9.7-.9.5-1.1.9-.7.9-1.1,1.7-.4,1-.2,1v1.2l.4,2.2.4,1.1.8,1.5.4.5a8.8,8.8,0,0,0,3.1,2.5l1.7.3,3-.3,1.6-.5,1.6-1.2,1-.9,1.3-2.1.4-1.2a9.6,9.6,0,0,0-.2-4.2H892l1-.5.6-.3.9-.7.5-.5.5-.7.3-.6.5-1.2v-.6a4.9,4.9,0,0,0-.1-1.7h.2l1.9-.8,1-.7,1-1,.6-.9.7-1.9.3-1.1v-1.4l-.2-1.1-.9-2-.5-.6a8.2,8.2,0,0,0,4.6-1.6h.2c-3.2-4.3-6.5-8.6-9.8-12.8A10.1,10.1,0,0,0,892.8,194.7Z" fill="#fcba04"/>
          <path d="M851.6,211.9a8.7,8.7,0,0,0,2.4,5.8,8.2,8.2,0,0,0,5.5,2.2l2.1-.9.8-.9a7.3,7.3,0,0,0,3.5-5.1,7.2,7.2,0,0,0-2.1-6.4l-.6-.4-1.1-.7-.7-.7-2.1-.8A7.7,7.7,0,0,0,851.6,211.9Z" fill="#fcba04"/>
          <path d="M821.1,883.1a10.8,10.8,0,0,0-8.5,2.7l-1,1.6-.7,1.6a9.8,9.8,0,0,0-1.8,8.2c5.4-4.2,10.6-8.4,15.8-12.8A11.4,11.4,0,0,0,821.1,883.1Z" fill="#fcba04"/>
          <path d="M771.8,205.8a9.5,9.5,0,0,0,11,7.3l1.6-.7,2.6-2,1.1-1.4.8-1.9v-.9a9.1,9.1,0,0,0,1-4.8l-.4-1.3-1-2.3-.8-1.1-1.2-1.1-1.1-.8-2.3-.9-1.3-.3a9.1,9.1,0,0,0-3.3.5A9.8,9.8,0,0,0,771.8,205.8Z" fill="#fcba04"/>
          <path d="M850.8,255.9a7.1,7.1,0,0,0,6.9,4.6l1.1-.2,1.8-.7h.1a7,7,0,0,0,4.8-7.8v-.5l-.4-1.1-.2-.5-.7-1-.7-.8a8.4,8.4,0,0,0-5.3-3h-2.5l-.8.3-.6.3-1,.6-.5.4A8.6,8.6,0,0,0,850.8,255.9Z" fill="#fcba04"/>
          <path d="M811.5,525.2l-1.5.4-1.1.4-1.4.9h-.1a12.1,12.1,0,0,0-3.6,4,7.6,7.6,0,0,0-.8,2l-.2,1V537l.4,1.3.5,1.1.8,1.3h-.1a10.6,10.6,0,0,0,6.1,4.6h4.3l.4,1,.8,1.6,1,1.2,2.1,1.6,1.5.7a9.3,9.3,0,0,0,6.1.3,12.1,12.1,0,0,0,3.6-2l.8-.8,1.3-1.8.5-1,.4-1.5.2-1.1v-2.2l-.2-1.2a10.1,10.1,0,0,0-10.8-6.9,10.6,10.6,0,0,0-.6-1.9,10,10,0,0,0-6.1-5.8l-1.1-.2h-3.2Z" fill="#fcba04"/>
          <path d="M786.5,588.1l.2,2.3.4,1.1.4,1,.5.8c3.3,5.1,9.8,5.6,14.2,3.2a9.7,9.7,0,0,0,4.9-7.1v.3l.4.7v.9l.5,1.5.6,1.2,1.5,1.9,1,.9.7.5a8,8,0,0,0,2,2.3l1.1.6,1,1.1a11,11,0,0,0,8.1,2.1l1.4-.5.7-.4,2.4-.7,2.3-1.9a9.7,9.7,0,0,0,.5-8.3,10.3,10.3,0,0,0-4.2-5,7,7,0,0,0-1.8-2l-.3-.2a5.6,5.6,0,0,0-.5-.8l-.3-.3v-.6l-.7-1.2-1.7-2.1-1.1-.9-1.6-.8-1.3-.4-2.6-.3-1.5.2-1.6.5-1.2.7-2,1.6-.9,1.1-.9,1.6-.4,1.4v.9a3.6,3.6,0,0,0-.4-1.1l-.7-1.1-1.6-1.7-1-.8-1.7-.9a10.2,10.2,0,0,0-13.2,3.3l-.5.7-.6,1.5-.3.9-.2,1.1Z" fill="#fcba04"/>
          <path d="M801,543.3l-1.7.4-2.2,1h-.2a9.5,9.5,0,0,0-6.4,9.5l.7,2,2.2,3.1.4.3a9.4,9.4,0,0,0,9.7,3.7,9.3,9.3,0,0,0,3.5-1.6l1-.8,1.4-2,.6-1.1.6-1.6v-3.4l-.2-1.1C809.3,545.5,804.8,543.3,801,543.3Z" fill="#fcba04"/>
          <path d="M791.8,224.8l-.4-1-.9-1.7-.7-.8-1.1-.9-.9-.5-1.9-.6h-1a8.1,8.1,0,0,0-7.9,8l.2,1.2.8,2.1.6,1,1.1,1,.9.6,1.9.8.6.3,1.2.4h1.1l1.3-.4,1-.5,1.7-1.1.8-.8A9.3,9.3,0,0,0,791.8,224.8Z" fill="#fcba04"/>
          <path d="M798.6,301.9l-.4.6h-.3l.4-.7H798l-.7-.5-.7.3-.5-.2v.4l-1,.4-.2-.2v-.5h-2.2l-2.4.6-3.4,2.4-1.3,2.1a8.4,8.4,0,0,0,6.4,10.1,8.3,8.3,0,0,0,9-4.5,8,8,0,0,0-2-9.6Z" fill="#fcba04"/>
          <path d="M801.5,169v-2.5l-.3-1.3-.9-1.9-.6-1a9.2,9.2,0,0,0-3.3-2.5l-1.3-.3h-2.5l-1.3.2-1.9.9-.9.6a8.8,8.8,0,0,0-2.6,3.2l-.3,1.3v2.5l.3,1.3.8,1.9.7,1.1a8,8,0,0,0,3.1,2.4l1.3.3h2.5l1.3-.3,1.9-.8,1-.6a8,8,0,0,0,2.7-3.4Z" fill="#fcba04"/>
          <path d="M775.8,320.1v2.1l.3,1,.7,1.6.5.8a7,7,0,0,0,3.4,2l.5.3v2.2l.3,1.3.7,1.6.7,1.1,1.4,1.5.9.7,2.7,1.6,1.9.5h2.3l1.9-.5,3.1-1.9,1.4-1.5.5-1,.3-.6.3-.8.2-.7a8.9,8.9,0,0,0-1.5-7.6l-.2-.2-.7-1.4-1.3-1.4a10.2,10.2,0,0,0-5.8-1.6c-1.3-3.8-4.1-6-8-6l-1.1.3-2,.9-.9.6-1,1.1-.6.9-.7,1.9.4.2H776Z" fill="#fcba04"/>
          <path d="M848.7,264.3l-1.8-1.6-1.1-.7-1.6-.6-1.2-.2h-3.4a9.8,9.8,0,0,0-7.1,9.3l.3,1.5,1.2,2.8.9,1.3,1.9,1.5,1.4.9a11.3,11.3,0,0,0,4.1.8l1.6-.4,2.6-1.4,1.2-1,1.5-2.1.8-1.4a9.6,9.6,0,0,0-.5-7.6Z" fill="#fcba04"/>
          <path d="M830.1,302.5l-.7,1-.8,2-.2,1.2c.2,5.1,3.9,7.4,7.2,7.4l1.8-.2.8-.4,1.5-.9.7-.6.8-1,.5-.8.6-1.7v-1a7.7,7.7,0,0,0-5.3-7.6h-1.6l-2.7.6-1.4.7Z" fill="#fcba04"/>
          <path d="M810.6,356.6h-2.5l-1.4.3-.6.3a8.9,8.9,0,0,0-3.3-6.7,9,9,0,0,0-8.3-1.4,9.8,9.8,0,0,0-5.8,4.7h-2.6l-1.2.2a9.6,9.6,0,0,0-7,9l.2,1.6,1.2,2.7.9,1.4,2,1.7,1.4.8a10,10,0,0,0,4.4.8l1.4-.4,2.5-1.4h.2v.4l.5,2.5.5,1.3.9,1.4.9.9,1.9,1.3.6.3,1.3.5,1.2.3h1.6l1.2-.2,2.1-.8,1-.6a10.4,10.4,0,0,0,3.1-5.1h1.4l1.5-.5,2.4-1.7,1.1-1.2c0-.1,2.1-5.6-.4-9.4l-.4-.5-1-.9-.5-.4-1-.5Z" fill="#fcba04"/>
          <path d="M782.7,664.2a10.5,10.5,0,0,0-6.7,12.6l.7,1.4,1.8,2.2,1.1,1,1.7.9,1.4.4,2.5.2h.8l1.5-.2,1.3-.3,1.5-.8,1.1-.9,1.7-1.9.7-1.2a12.1,12.1,0,0,0-.6-9.1l-.8-1.1-1.8-1.7-1.1-.7-1.6-.7-1.3-.2h-2.5Z" fill="#fcba04"/>
          <path d="M990.4,606.9l-.8-1.1-1.3-1.3h-.5l-.4-1-1.6-.9-1.4-.5-2.8-.4H980l-1,.4-1.2.6-2,1.6-.9,1.1-.5.8v.2l-.5.7-.3.7-1.2-1.4-.9-.9-.4-.2a9.4,9.4,0,0,0-9.3-2.2l-.9.3a9.7,9.7,0,0,0-2.4-.1h-.8l-1.5.5-.7.3h-.1l-.2-.2-.8-.6-1.3-.7-1.6-.5a8.5,8.5,0,0,0-8.9,3.7,9.5,9.5,0,0,0-1.4,3.5l-.6-1.2-.9-1v-.9l-.5-1.8-.7-1.3-1.7-2.1-1.2-.9-1.5-.8-1.5-.5-2.9-.2-1.6.2-1.8.7-1.2.7-2,1.7-.8,1.1a9.6,9.6,0,0,0-.6,8.1l.9,1.7v2.6l.4,1.9,1.7,3.1,1.4,1.4h.1a11.8,11.8,0,0,0,1.1,1.8l1.3,1.3,3,1.7,1.8.5h2.3l1.9-.4,3.1-1.8,1.5-1.5.2-.4a10.2,10.2,0,0,0,1.2-6.3l.5.5.9.7,1.2.7,1.6.5-.3,1.4v1.3a2.9,2.9,0,0,0,.2.9,7.5,7.5,0,0,0-1.7,3.8l-1.4.6-.8.6a8,8,0,0,0-1.3,1.3l-2.8-1.1-2.1-.3-1,.2a10.6,10.6,0,0,0-7.4,5.9,8.5,8.5,0,0,0-4.2,4.9,8.7,8.7,0,0,0,.7,7.5l.8,1.1,1.9,1.6,1.2.6,1.7.6h3.9l1-.2a10.2,10.2,0,0,0,2.1-1h.4l2.3-.6,1.5-.7,2.2-1.6a10.2,10.2,0,0,0-1,10.8l1.3,1.5,2.8,2,1.8.7,2.3.3h1a10.6,10.6,0,0,0,5.3-.6l1.3-.7,2-1.8.9-1.2.8-1.6.4-1.4.3-2.6v-1.5a9.9,9.9,0,0,0-1.5-3.3,11.2,11.2,0,0,0-4.8-4.1,4.2,4.2,0,0,0,.9-1.4,8.9,8.9,0,0,0,1.2-3.9,11.3,11.3,0,0,0,3-2.4h.8a9,9,0,0,0,6.1-6.3,9.2,9.2,0,0,0,.2-3.7,14.9,14.9,0,0,0,1.1-4l.2.5.2.8.8,1.5.5.7a11.2,11.2,0,0,0,8.7,4.3,10.2,10.2,0,0,0,5.9-2.4c1.5-5.8,2.9-11.7,4.2-17.5Z" fill="#fcba04"/>
          <path d="M918.9,225.2a6.8,6.8,0,0,0-2.7,4.3v2.7l.3,1.3,1,2.2.8,1,1.2,1,1.2.6,2.3.5h1.3a10.3,10.3,0,0,0,3.1-1.3h.2q-4.2-6.7-8.7-13.5v.4A2,2,0,0,1,918.9,225.2Z" fill="#fcba04"/>
          <path d="M971.7,669.6l-1.8.4a9.4,9.4,0,0,0-6.1,9.1v1.6l.3,1.7.5,1.2,1.2,2.1.8,1,.7.5q3.4-8.9,6.6-17.7h-.6Z" fill="#fcba04"/>
          <path d="M519.2,944.1a9.6,9.6,0,0,0-2.9-7.9l-1-1-1.1-.8-2.1-1.1-1.3-.5a11.2,11.2,0,0,0-8,1.9c-2.2,1.8-3.7,3.7-4,6.7v1.4h0c-3.7,0-7.4.7-9.9,3.3s-3.6,8.1-2.9,11.2l.4,1.2,1,1.8.7,1,1,1,.9.6,1.7,1,1,.4a11,11,0,0,0,11.7-4.5,10.5,10.5,0,0,0,1.9-7,11,11,0,0,0,6.9-.7A10,10,0,0,0,519.2,944.1Z" fill="#fcba04"/>
          <path d="M903.6,229.1a7.1,7.1,0,0,0-5.5,3,7,7,0,0,0-1.1,5.8l.4,1,1.1,1.7.8.7,1.1.8,1,.4,2,.5h.7a7.1,7.1,0,0,0,7.2-6v-1.3l-.6-2.1-.6-1.1,1.1-.5h1.3l-2.6-1.2-1.8-.7-2.7-.8Z" fill="#fcba04"/>
          <path d="M817.2,848.4l.7,1.1,1.4,1.7,1,.8a9.5,9.5,0,0,0,13.7-3.8,17.2,17.2,0,0,0,.9-1.9v-.8l.2-1.6v-.8L835,842l-.2-.9-.5-1.5-.4-.7a10.1,10.1,0,0,0-8.8-4.6,9.3,9.3,0,0,0-8.1,4.9,8.8,8.8,0,0,0-.3,7.9Z" fill="#fcba04"/>
          <path d="M834.8,869.4l-.8.3-1.3.5-.7.4-.9.5-.6.5-1,1-.4.6a10.1,10.1,0,0,0-1.5,8.3.8.8,0,0,0,.2.4c4.4-3.8,8.8-7.7,13.1-11.7A9.7,9.7,0,0,0,834.8,869.4Z" fill="#fcba04"/>
          <path d="M850.4,408.4l-1.2.7-2,1.5-1,1.1-.4.7c-1.9,3.6-2.1,8.9,3.7,13.3l1.3.7,2.7.7H855l1.9-.3,1.5-.5,2.4-1.5,1.1-1.1a4.9,4.9,0,0,0,.7-1.1,9.9,9.9,0,0,0,.7-8.2,10.5,10.5,0,0,0-6.5-6.3l-1.2-.3h-2.4l-1.2.2Z" fill="#fcba04"/>
          <path d="M890.5,259.6a6.3,6.3,0,0,0-2.1.4l-1.1.4-.8.5-.9.6a7.5,7.5,0,0,0-2.2,7.2,8.6,8.6,0,0,0,5.5,6h3l1-.3.8-.2,1.2-.7.7-.5a8.1,8.1,0,0,0,1.9-8.9A7.5,7.5,0,0,0,890.5,259.6Z" fill="#fcba04"/>
          <path d="M830.5,374.9l-1.7-1.7-1.1-.7-1.5-.7-1.3-.2-2.4-.2-1.2.2-2.7.8-1.2.6-1.9,1.5-.9,1.1-.8,1.4-.5,1.3-.4,2.4v1.4a11.1,11.1,0,0,0,4.8,7.1,10.5,10.5,0,0,0,8.2,1.3l.8-.3,1.6-.8.7-.6.9-.8.6-.7,1-1.4.4-.8a11.6,11.6,0,0,0-.7-9.1Z" fill="#fcba04"/>
          <path d="M826.5,417.2v.5a8.1,8.1,0,0,0-1.1,5.7,7.9,7.9,0,0,0,4,5.7l1,.4,1.8.4h2.4l1-.3,1.7-.8.9-.5a12.7,12.7,0,0,0,2.8-3.7l.5-.7,1.5-3,.3-1.9-.2-2.1-.8-1.7-2.3-2.6-1.6-1-1.2-.3C831.3,410,827.5,413.5,826.5,417.2Z" fill="#fcba04"/>
          <path d="M848.7,350.1l-.7-1.4-2-2-1.3-.8-1.4-.4c-4.6-.9-8.7,1.3-10.2,5.5l-.2,1.5.3,2.6.5,1.4.9,1.5,1,1,2.2,1.5,1.4.5a9.6,9.6,0,0,0,9-3.4l.6-1.4.6-2.8v-1.6Z" fill="#fcba04"/>
          <path d="M884.8,241.5l-.8-1.4-.9-1-2-1.4-1.2-.5h-1.4a7.6,7.6,0,0,0-7.7,6.6v2.6l.3.8.3.6.6,1,.4.5a7.2,7.2,0,0,0,5.3,2.3c1.8,0,4.9-.7,7-4.8l.3-1.4v-2.5Z" fill="#fcba04"/>
          <path d="M868,356.6h-1.8l-3.1.9.2.7-.5-.8-.4.3,1.3,1.7-1.4-1.7c-3.2,2-4.8,4.7-4.6,8.2l.2,1.1.9,1.8.6.9,1,1,1,.5,1.8.8,1.1.2H866l1.1-.2,1.9-.8.9-.6.9-.9.7-.9,1-2.1a11.7,11.7,0,0,0,.9-3.9l-.5-1.7-1.7-2.7-1.4-1.1Z" fill="#fcba04"/>
          <path d="M853.5,399.5a8,8,0,0,0,6,5.4,7.6,7.6,0,0,0,5.9-1.2,8.2,8.2,0,0,0,2-1.2,8.7,8.7,0,0,0,2.9-7l-.2-1-.6-1.7-.5-.9-.8-1-.8-.8-1.6-1.1-1-.4-.7-.2a10,10,0,0,0-4.5.2h-.4l-1.2.4-.8.4-1.5.9-.7.6A9,9,0,0,0,853.5,399.5Z" fill="#fcba04"/>
          <path d="M922.8,772.1l-1.9.5-1.5.7-2.3,1.8-1,1.2-.5,1-.5,1.4-.3,2.7.2,1.4.2.9.2.2v.2l7.9-11.9Z" fill="#fcba04"/>
          <path d="M598.5,653.3l-1,1.1-1.1,1.5-.6,1.3-.6,2.6v1.4a11,11,0,0,0,4.5,8,11.4,11.4,0,0,0,8.7,2l.9-.3,1.7-.7.9-.5,1-.8.7-.7,1.1-1.5.5-.8a12.8,12.8,0,0,0,0-9.8l-.7-1.2-1.7-1.9-1.1-.9-1.6-.8-1.3-.4-2.5-.4h-1.4l-2.9.7-1.3.5Z" fill="#fcba04"/>
          <path d="M621.9,487.6v-1l-.2-1.3a9.5,9.5,0,0,0-9-7h-.4l-1.4-.2-1.9.2-1.3.5-2.4,1.2-1.2,1a8.6,8.6,0,0,0-1.3,2c-1,1.8-2.9,6.7,1.5,12l1.4,1,3.7,1.8,2.3.3,3.2-.6,1.5-.6a10.3,10.3,0,0,0,4.4-4.3,11.1,11.1,0,0,0,1.1-3.5Z" fill="#fcba04"/>
          <path d="M573.4,773.4l-.4,1.5-.3,2.4v1.5l.7,2.6.6,1.3,1.1,1.5,1.1,1.1,2.3,1.4,1.3.6a11.3,11.3,0,0,0,6.6-.5,10.3,10.3,0,0,0,5.2-.2l1.7-.7,1-.7,1.6-1.5.7-.9.7-1.3,1.9-1.1,1.8-2.2V777c-4.1-4.3-4.7-6.4-6.1-7.3a12.3,12.3,0,0,0-6-1.4l-2.3-1-1.6-.4-1.9-.2-1.6.2-2.8.8-1.4.7-1.6,1.2-1,1.3Z" fill="#fcba04"/>
          <path d="M589.4,708.8l-5.7-.6-.5.4-.4-.5-5.5-1.1-1.5.9-1.1,1.1-1.6,2.4-.6,1.4-.4,1.9v1.6l.6,2.8.5,1.4,1,1.5,1.1,1.1,2.4,1.6,1.4.6,1.9.4h1.6l2.8-.5,1.4-.6,1-.7,1.1-1,1.5-2.2.6-1.3.6-2.2v-1a10.5,10.5,0,0,0-1.8-6.7Z" fill="#fcba04"/>
          <path d="M662.2,740.2l-2.3-1-1.3-.4h-3l-2.4.6-1.2.5-1,.7-1.1,1-1.5,2.1-.6,1.4-.6,1.9v.9a9.7,9.7,0,0,0,.5,4.7l1.2,1.7,2.8,2.4,1.9.9,1.8.3h-.1l-1.9,1.7-.8,1.1-.7,1.5-.4,1.3-.3,2.4v1.4l.5,2.3.6,1.3,1.4,2.2,1,1,1.5,1.1,1.3.5,2.5.7h1.5l1.5-.3a10.8,10.8,0,0,0,7.2-5.1,10.9,10.9,0,0,0,.6-8.7l-.6-1.1-1.3-1.8-.9-.8-1.2-.9-1.2-.6-1.6-.5h-.1l-1.7-.4c5.2-4.1,5-9.8,2.6-13.5l-1.5-1.9Z" fill="#fcba04"/>
          <path d="M735.4,597.3l-1-1.1-.8-.6-1.7-1-.9-.3a8.8,8.8,0,0,0-9.5,4.1l-.4.9-.4,1.7v2.1l.2,1,.5,1.6.4.8a9.1,9.1,0,0,0,5.6,3.8,8,8,0,0,0,6.8-1.8,8.4,8.4,0,0,0,2.9-7.2l-.2-1.1-.8-1.9Z" fill="#fcba04"/>
          <path d="M717.1,622.2l-1.1,1.7-.6,1.5-.6,2.9v1.6l.4,1.7.6,1.4,1.5,2.2,1.1,1,1.5,1.1,1.3.5,2.6.6h1.4l1.3-.3a12.9,12.9,0,0,0,5.2-2.3,10.2,10.2,0,0,0,5,3.9l1.8.2,1.7-.2a8.9,8.9,0,0,0,9.6-4.7,10.9,10.9,0,0,0,1.2-3.6v-1.3l-.6-2.5-.5-1.2-.8-1.2a9.3,9.3,0,0,0-1.5-17.6l-.7-1.3h-.4v.4l-.3.8-.9-1-.6-.2H744l.3,1.6-.7,1.4-.3.2-.3-.3-.3.3h-.2l-.3.2h-.1l-1.4.5-2,1.9-2,4.2-.2,2.7.6,1.2-.6.2-1.3.6h-.1l-1.5-1.7-.9-.8a10.3,10.3,0,0,0-8-1.3,12.1,12.1,0,0,0-5.9,3.3h.1l-.8.5Z" fill="#fcba04"/>
          <path d="M557,910.8l-1.1,2.2-.4,1.4-.2,1.7v1.4l.6,2.5.5,1.2.7,1,1.1,1.1,2.3,1.6,1.5.6,1.9.4h1.5l2.8-.5,1.5-.6,1.5-1,.9-1,1.2.3a11.5,11.5,0,0,0,12.3-10v-1.6l-.8-2.9-.7-1.5-1.3-1.6-1.3-1.1-3.1-1.6-1.8-.6h-1.7l-2,.2-1.5.5-2.7,1.4-1.3,1.2a5.9,5.9,0,0,0-.9,1.1,11,11,0,0,0-8.7,3.2Z" fill="#fcba04"/>
          <path d="M435.8,904.3l1.1-.3,2.1-1,1-.7,1.1-1,.9-1.1,1.1-2.1.5-1.3V896a11.9,11.9,0,0,0-.8-5.5l-.2-.5-.5-1.4-.6-1-1.3-1.6-.9-.8a10.7,10.7,0,0,0-10.5-1,9.6,9.6,0,0,0-5.9,8,9.8,9.8,0,0,0,2.1,7.2,9.6,9.6,0,0,0,1.8,2.2A10.5,10.5,0,0,0,435.8,904.3Z" fill="#fcba04"/>
          <path d="M420.4,933.1h-2.7l-1.2.2-.8.3-1.5.7-.8.4a10.2,10.2,0,0,0-4,7.1c-.3,2.4.1,6.9,5.6,10.5l1.8.6,3.5.4,1.9-.3,2.1-.9,1.5-1.1,2.3-2.5.8-1.7a16.2,16.2,0,0,0,.4-1.9,10.7,10.7,0,0,0-8-11.8Z" fill="#fcba04"/>
          <path d="M730.3,567.1h-4c-6,1.6-8.2,6.4-7.7,10.5l.7,1.5,1.9,2.6,1.1.5h0c0,2.7,4.1,4.1,7.2,4.1l1.3-.3,2.6-1.3,1.3-1,1.7-2.1.9-1.5a10.2,10.2,0,0,0,.1-7.9l-.8-1.3-1.9-2-1.3-.8-1.7-.8Z" fill="#fcba04"/>
          <path d="M446.8,891.6l-.8,1.9-.2,2.3.3,2.1,1.5,3.4,1.4,1.6c3.7,2.5,8.2,2.4,12.3-.5l.2-.9v.2l2-1.9,1-1.8.7-2.3v-2.3l-1.3-3.8-1.2-1.8c-3.2-2.5-8.4-3.7-13.5.4l.8,1.2-1-.7Z" fill="#fcba04"/>
          <path d="M426.1,990.6l2.8-.5,1.6-.6.8-.5v-.3h.1l1.7-1.3,1.2-1.4.5-1h1.9l1.7-.4,1.3-.6,2.1-1.5,1-1.1.4-.5a10.6,10.6,0,0,0,1.1-8.3,10.4,10.4,0,0,0-5.5-6.3l-1.2-.4a11.4,11.4,0,0,0,.6-6.4,10.4,10.4,0,0,0-12.4-7.8l-2.4,1.7-2.8,4.3-.6,2.9v.2l-.2,1.5.6,2.3,1.2,2.1,1,.9h0l.6.8.7.4.9.8,1,.5.9.5c0,.1-.1.1-.1.2h-1.6l-1.5.4-2.4,1.3-1.2.9-1.3,1.4-.7,1.3-1,2.7-.2,1.1a12.9,12.9,0,0,0,.1,2.8h-1.6a11,11,0,0,0-7.4,3.4l-.6.9-1,1.8-.4,1.1-.3,1.5v2.5c6.3,1.2,12.6,2.4,19,3.3A9.9,9.9,0,0,0,426.1,990.6Z" fill="#fcba04"/>
          <path d="M570.9,938.8l1.2,1.3,1.8,1.1,1.6.7,3.1.4h1.7c5.8-1.8,7.6-5.9,8.1-8.2v-1.8l-.8-3.3-.8-1.6-1.5-1.7-1.5-1.1-3.1-1.2-1.9-.3-1.7.3c-5.4,1.3-8.8,5.7-8.3,11.1l.5,1.6Z" fill="#fcba04"/>
          <path d="M682,968.2v-1.9l-.8-3.3-.9-1.7-1.4-1.6-1.5-1.1-3.1-1.2-1.8-.3-1.8.3a10.9,10.9,0,0,0-6.6,4.3l-.7-.6-1.9-.6-3.5-.3-1.9.3-1.3.6c-1.9-1.8-5.1-3.5-10.2-2.3l-.3.4h-.1l-2.1.7-1.3.8-1.5,1.3-.9,1.2-1.3,2.7-.4,1.5a12.3,12.3,0,0,0,2.2,7.6,8.3,8.3,0,0,0,1.2,1.6l-.4.4-.6.7a11.3,11.3,0,0,0-1.7,6.5c15-4.3,29.8-9.2,44.2-14.7Z" fill="#fcba04"/>
          <path d="M709.7,956.4a9.4,9.4,0,0,0,4.4-8.7l-.4-1.6-1.5-2.7-1.1-1.7-.7-1h-.3v.4l-1.8-1-1.6-.5-3.3-.4-1.7.2a9.7,9.7,0,0,0-6.2,13.7l.8,1.1.6.6a10.7,10.7,0,0,0-3.5,3.8l-.6,1.4-.3,1.2a15,15,0,0,0-3.9,5.4c7.4-3,14.6-6.1,21.7-9.4Z" fill="#fcba04"/>
          <path d="M760.9,576.5a10.8,10.8,0,0,0-8,5.5,9.4,9.4,0,0,0,2.8,12l1.9.7,3.6.3h.4a9.3,9.3,0,0,0,8.8-4.8,13.7,13.7,0,0,0,1.1-3.6v-.8l-.2-1.6v-.8l-.4-1.1-.3-.7-.8-1.4-.5-.6A9.7,9.7,0,0,0,760.9,576.5Z" fill="#fcba04"/>
          <path d="M667.7,795.3l-2.2-.2h-1.2l-1.5.4-1,.4-1.9,1-.9.7a15.3,15.3,0,0,0-1.6,2.2,9.5,9.5,0,0,0,2.7,12.1l.9.5,1.6.8.9.2,2.3.5,2.3-.3,3.7-1.7,1.7-1.6.4-.6a10,10,0,0,0,.7-8.1,10.2,10.2,0,0,0-5.7-6Z" fill="#fcba04"/>
          <path d="M682,928.1l1.3-.2,2.2-.6,1.2-.6.7-.5,1.3-.6L691,924l1.1-1.1,1-1.6.5-1.5v-.3l.5.3.2.3h0a13.7,13.7,0,0,0,2,2.2l1.1.7,2.2.9,1.2.2,1.7.2,1.3-.2,2.3-.6,1.1-.5,2.1-1.3,1-1,1.5-2.2.7-1.3.4-1.7v-1.5l-.2-2.6-.4-1.4-.9-1.4a10.7,10.7,0,0,0-7-4.9l-.6-.5-1.1-.5-1.3-.4L699,902h-1.4l-2,.6-.9.3a9.3,9.3,0,0,0-4.8,4.6l-.4.7.2.4-1.6-.8-1.3-.5-2.6-.3h-1.5a9.4,9.4,0,0,0-3.2,1.5l-1.7.3-2.2,1.2-2.9,3.1-1.1,2.2v.8A10.5,10.5,0,0,0,682,928.1Z" fill="#fcba04"/>
          <path d="M708.3,731.2l-1.3-.3-2.5-.2-1.3.2h-.3a10.2,10.2,0,0,0-10.3-1.2l-.9.5-1.4,1.1-.7.7-1.6,2-.9,2.2-.3,4.3.6,2.3.4.6a9.6,9.6,0,0,0,3.7,3.5h.1l1.8,2.4,1.2,1.1,1.8.9,1.6.5,3.1.2h1.2a9.9,9.9,0,0,0,5.9-3.8l1.1-.3,1.6-1.2,1.5-1.7.8-1.9.2-1.8h.5a10.1,10.1,0,0,0-.5-5.7l-.7-1.1-1.7-1.9-1.1-.8Z" fill="#fcba04"/>
          <path d="M718.7,701.3a9.1,9.1,0,0,0-3.1,1.2l-.7.5-1.2,1-.5.6-.7,1-.5.8-.6,1.5-.3.9a10.7,10.7,0,0,0,12.2,12.9l.8-.2,1.6-.6.8-.3,1-.7.7-.5,1.1-1.2.6-.6a11.2,11.2,0,0,0-.3-12.2A10.3,10.3,0,0,0,718.7,701.3Z" fill="#fcba04"/>
          <path d="M742.5,432.1l-.7,1.1-.6,1.3a9.5,9.5,0,0,0,0,5.7h.2v.3l.4,1.4.9,1.3.9,1,.5.4v.2l.6.7.9.8.7.5,1.4.7.9.3a5.3,5.3,0,0,0,1.7.1h1.8l2.2-.6,1.1-.6,1.1-.8.7-.8.5-.8h.1a11.3,11.3,0,0,0,1-1.3l.4.8.5.6a8.3,8.3,0,0,0,5.5,2.2,6.9,6.9,0,0,0,5.5-2.7,7.7,7.7,0,0,0,1.3-6.8l-.4-.9-1.1-1.5-.7-.7-1-.8-.8-.4-1.6-.5h-.9a7.6,7.6,0,0,0-6.2,3,9.2,9.2,0,0,0-1.9-2.5l-.8-1-2.1-1.5-1.2-.6-1.5-.3a9.8,9.8,0,0,0-8.3,1.6Z" fill="#fcba04"/>
          <path d="M736.4,781.1l-1.4-1-1.3-.6-2.6-.7h-1.4l-1.6.3a10.4,10.4,0,0,0-8.2,8.1,11.3,11.3,0,0,0-4.2-3.3l-.2-2-.5-1.6-1.2-2.2-.9-1.1a11,11,0,0,0-2.8-2,7.8,7.8,0,0,0,2.1-1.7l.9-1.6.8-3.3v-1.8l-.5-2.1-.9-1.7-.8-.8.3-.2a9.4,9.4,0,0,0-4.6-4l-1.4-.3h-2.7l-1.5.2-1.7.7-1.2.8-2,1.8-.9,1.2a10.9,10.9,0,0,0,.8,11.2l1.4,1.2,2.4,1.2-.5.3-1.2.9a9.4,9.4,0,0,0-2.6,4.1l-.3,1.6.3,3.1.4,1.6,1.2,2.2.9,1.2a10.3,10.3,0,0,0,2.9,2.2,10,10,0,0,0,.5,4l1,1.6,2.6,2.4,1.6,1,2.2.6h2l1.2-.3v.4a11,11,0,0,0,5.9-2.3l1-1.1,1.4-2.5.5-1.5v-.7l.6.7,1.1,1a10,10,0,0,0,9.2,2.7h.1a9.9,9.9,0,0,0,2.7-1l1-.8,1.6-1.7.7-1,.7-1.5.3-1.3.2-2.3v-1.3l-.6-2.3-.6-1.3-1.4-2.2Z" fill="#fcba04"/>
          <path d="M751.4,663.4l-1.6.3a10.9,10.9,0,0,0-6.3,3.7,11,11,0,0,0-5.5,7.4v3.1l.3,1.1.3.9.7,1.4.5.7a10.2,10.2,0,0,0,13.1,3.1,8,8,0,0,0,1.5-.3,11.1,11.1,0,0,0,3.6-1.5l.9-1,1.6-2.1.6-1.3.4-1.7v-2.1a12.5,12.5,0,0,0-.2-5l-.6-1.3-1.5-2.2-1-1-1.6-1-1.3-.6-2.6-.6Z" fill="#fcba04"/>
          <path d="M755.2,160.6l-.9-.2h-2.8l-1.1.4a7.4,7.4,0,0,0-4.4,4.4l-.2,1.1v2a7.3,7.3,0,0,0,2.3,3.4h.1l.2.3.8.6,1.1.5.9.2h.7l.5.2h1.6l1.1-.2h.7l1.1-.6.4-.3.7-.5,1.1-1.3.4-.7,1.3-1,1.1-.8v-.6h-.9a5.6,5.6,0,0,0-2.4-5.6A6.8,6.8,0,0,0,755.2,160.6Z" fill="#fcba04"/>
          <path d="M745.1,293a8.3,8.3,0,0,0,1.1,4.9h.1v.3l.7,1.1.9,1,1,.7.5.2.2.2.6.4.9.6.7.3,1.4.3h.7l1.6-.2h.5l1-.3,1.8-1,.8-.6.8-1,.5-.8.3-.7h.1a7.2,7.2,0,0,0,.3-7.1,7.5,7.5,0,0,0-2.8-2.8l-.9-.7-2.1-.9-1.1-.3h-1.3a9.3,9.3,0,0,0-6.9,2.9l-.7,1.2-.4,1Z" fill="#fcba04"/>
          <path d="M848.5,151l-1.4,2-.6,1.2a10,10,0,0,0,.5,6l.5.7a8.2,8.2,0,0,0,6.3,8.2h2.6l.9-.2.7-.2,1.2-.5.6-.3a9.6,9.6,0,0,0,3.9-5.7h.9l1.3-.4a6.3,6.3,0,0,0,2.6-1.9c-3.6-3.9-7.3-7.8-11-11.5h-3.7l-1.7.2-1.3.5-1.4.8Z" fill="#fcba04"/>
          <path d="M808,270.2l-1-.3h-2.9a6.5,6.5,0,0,0-4.1,6.4v.7l.4,1.2.3.6.5.7.5.5,1,.8.6.4a6.4,6.4,0,0,0,4.9,0,6,6,0,0,0,3.5-3.8,6.8,6.8,0,0,0-1.1-5.6l-.6-.6-1.3-.8Z" fill="#fcba04"/>
          <path d="M809,204.4v1.3l.7,2.2.7,1.1,1,1.1,1.1.7,2.2.8,1.2.2a8,8,0,0,0,7.1-4.5l.3-1.4v-2.5l-.4-1.3-.8-.6-.9-.3h0c-.3-2.1-.7-1.6-1.2-1.9l-.5-.7-1-.6-.5-.2-.9-.2H816l-.4.2A7.3,7.3,0,0,0,809,204.4Z" fill="#fcba04"/>
          <path d="M844,231.1l-.9-.2h-.6a8,8,0,0,0-3.8,1h-.4l-.9.6-.7.4-1.1,1.1-.4.7a7.6,7.6,0,0,0,.2,7.6,7.1,7.1,0,0,0,6.1,3.5,6.9,6.9,0,0,0,4.9-2.1,6.7,6.7,0,0,0,1.5-1.4,7.6,7.6,0,0,0,1.2-6.6l-.4-.8-.8-1.4-.6-.6-.8-.8-.8-.4Z" fill="#fcba04"/>
          <path d="M825.8,150a6.5,6.5,0,0,0-6.4-4.3l-1.3.4-1.9,1.3-.9,1-.6,1.4-.2,1v1.8l.2,1c1.7,3.9,5.3,4.6,7.9,3.5l1.2-.7.6-.5.9-1.2.3-.7.3-.9v-2.3Z" fill="#fcba04"/>
        </g>
        <g>
          <ellipse cx="675.8" cy="402.5" rx="47.5" ry="84.3" fill="#242424"/>
          <ellipse cx="326.9" cy="402.5" rx="47.5" ry="84.3" fill="#242424"/>
        </g>
        <path d="M497.5,810.2c-91.1,0-143.2-35.5-170.9-65.4-30.8-33.2-39-67.1-39.9-70.9l76.5-17.1v-.5c2,7.7,22.6,75.5,134.4,75.5s136.3-69,138.6-76.8l-.2.5,75.9,19.7C710.4,680.7,674.7,810.2,497.5,810.2Z" fill="#242424"/>
      </g>
    </g>
  </g>
</svg>
