<svg xmlns="http://www.w3.org/2000/svg" width="635.2" height="1002.8" viewBox="0 0 635.2 1002.8">
  <title>emoji83_211985758</title>
  <g id="Layer_2" data-name="Layer 2">
    <g id="emoji83_211985758">
      <g>
        <circle cx="172.5" cy="273.6" r="111.6" fill="#fff"/>
        <circle cx="120.5" cy="407.5" r="74.4" fill="#fff"/>
        <circle cx="98.2" cy="534" r="74.4" fill="#fff"/>
        <circle cx="90.7" cy="660.5" r="74.4" fill="#fff"/>
        <circle cx="90.7" cy="787" r="74.4" fill="#fff"/>
        <circle cx="105.6" cy="898.6" r="74.4" fill="#fff"/>
        <circle cx="194.9" cy="913.5" r="74.4" fill="#fff"/>
        <circle cx="321.4" cy="928.3" r="74.4" fill="#fff"/>
        <circle cx="447.9" cy="913.5" r="74.4" fill="#fff"/>
        <circle cx="514.8" cy="407.5" r="74.4" fill="#fff"/>
        <circle cx="537.2" cy="534" r="74.4" fill="#fff"/>
        <circle cx="544.6" cy="660.5" r="74.4" fill="#fff"/>
        <circle cx="544.6" cy="787" r="74.4" fill="#fff"/>
        <circle cx="529.7" cy="898.6" r="74.4" fill="#fff"/>
        <circle cx="462.7" cy="273.6" r="111.6" fill="#fff"/>
        <circle cx="317.6" cy="199.2" r="111.6" fill="#fff"/>
        <polygon points="90.7 407.5 90.7 913.5 544.6 913.5 544.6 407.5 321.4 221.5 90.7 407.5" fill="#fff"/>
        <path d="M337.7,381.9a78.1,78.1,0,0,0-51.3,3c-11.2,4.6-21,14.2-29.2,22.8-19.3,20.2-39.4,48.4-41.6,77.1-2.4,31.5,25.6,41.6,52.6,41.6,22,0,38.1-4.7,49.5-12.2,11.3,7.5,27.4,12.2,49.5,12.2,31.2,0,58.3-14,51.5-48.9C410.6,436,378.4,393.3,337.7,381.9Z" fill="#f7e4e4"/>
        <path d="M355.4,412.6c-2.7-12.6-37.7,5.4-37.7,5.4s-35.1-18-37.8-5.4,37.8,13.5,37.8,13.5S358.1,425.2,355.4,412.6Z"/>
        <rect x="314" y="418" width="7.4" height="56.55"/>
        <path d="M189,445.8a32.9,32.9,0,1,1-32.9-32.9A32.9,32.9,0,0,1,189,445.8Z" fill="#f7e4e4"/>
        <path d="M512.2,445.8a33,33,0,1,1-33-32.9A32.9,32.9,0,0,1,512.2,445.8Z" fill="#f7e4e4"/>
        <path d="M123.1,194.2V20.3C123.1,1,98.8-7.3,86.9,7.8c-59.8,76.1-158.3,238.1-6,334h42.2Z" fill="#fff"/>
        <path d="M84.6,303.3V87.6S-3.4,221.5,84.6,303.3Z" fill="#f7e4e4"/>
        <path d="M512.2,194.2V20.3c0-19.3,24.2-27.6,36.1-12.5,59.8,76.1,158.3,238.1,6,334H512.2Z" fill="#fff"/>
        <path d="M550.6,303.3V87.6S638.7,221.5,550.6,303.3Z" fill="#f7e4e4"/>
        <path d="M451.3,700.1a74.4,74.4,0,0,1-62.9,34.8,73.2,73.2,0,0,1-37.2-10.1,73.6,73.6,0,0,1-74.4,0,74.1,74.1,0,0,1-100.2-24.7,86.2,86.2,0,0,0,94.3,5.2,85.7,85.7,0,0,0,86.1,0,86.2,86.2,0,0,0,94.3-5.2Z" fill="#f2f2f2"/>
        <path d="M419.8,802.2a57.1,57.1,0,0,1-77.2,19,56.5,56.5,0,0,1-57.3,0,57.1,57.1,0,0,1-77.2-19,66.7,66.7,0,0,0,72.7,4,66.2,66.2,0,0,0,66.3,0,66.7,66.7,0,0,0,72.7-4Z" fill="#f2f2f2"/>
        <path d="M475.1,382.9a6.5,6.5,0,0,1-5.4-2.9c-.3-.3-7-9.5-16.4-10-6.3-.3-12.7,3.2-19.3,10.6a6.6,6.6,0,1,1-9.8-8.8q14.1-15.9,30-15c15.9,1,25.9,15.1,26.3,15.7a6.7,6.7,0,0,1-1.7,9.2A6.3,6.3,0,0,1,475.1,382.9Z" fill="#231f20"/>
        <path d="M205.9,384.5a6.8,6.8,0,0,1-5.4-2.8c-.2-.3-6.9-9.5-16.3-10-6.5-.3-12.7,3.2-19.3,10.6a6.6,6.6,0,0,1-9.9-8.8c9.5-10.6,19.7-15.7,30.1-15,15.9,1,25.8,15.1,26.3,15.7a6.6,6.6,0,0,1-5.5,10.3Z" fill="#231f20"/>
        <path d="M235.3,443.8s16,61,82.4,61,82.3-61,82.3-61Z" fill="#231f20"/>
        <path d="M260.6,443.8v7a14.6,14.6,0,0,0,14.6,14.6h85a14.7,14.7,0,0,0,14.6-14.6v-7Z" fill="#fff"/>
      </g>
    </g>
  </g>
</svg>
