<svg xmlns="http://www.w3.org/2000/svg" width="990" height="780.8" viewBox="0 0 990 780.8">
  <title>emoji66_240111076</title>
  <g style="isolation: isolate">
    <g id="Layer_2" data-name="Layer 2">
      <g id="emoji66_240111076">
        <g>
          <g>
            <path d="M423.1,774c-43.6,0-81.4-26.4-107.4-74.8-20.3,22.8-48.1,36-80.8,38.3-7.1.5-14,.7-20.6.7-40.9,0-74.2-9.4-98.9-28C73,678.3,55.1,620.8,67.3,555.9,13.8,508.8-5.8,445.3,14.8,385.4c19.1-55.6,66.1-91.6,119.7-91.6l6.8.2c-22.9-53.1-9.8-123.2,31.4-158.7,22-19,51.7-29.4,83.7-29.4,30.2,0,60.1,9.3,83.9,25.8,2.5-31.8,8.8-63.9,34.4-89.9,22.9-23.3,56.1-35.1,98.6-35.1,4.3,0,8.5.1,12.7.4,71.3,3.5,101.7,64.2,121.1,110.3,27.1-33.5,60-53.4,95.6-57.7a129.6,129.6,0,0,1,15.3-.9c33.9,0,67.8,13,95.4,36.7,32.9,28.2,53.3,66.7,55.8,105.5a129.4,129.4,0,0,1-16.8,72.5c20.5,6,38.4,17.2,43.9,20.9,49,32.7,85.6,95,86.9,148.1,1.3,54.6-23.4,102.4-66.1,127.7a152.7,152.7,0,0,1-77.9,21.6h0a142.9,142.9,0,0,1-32.1-3.6c-.4,2.4-.8,4.9-1.3,7.3-4.4,27-9.1,54.9-21.4,80.2-15.8,32.5-43.5,55.5-80.1,66.4a155.7,155.7,0,0,1-43.6,6.7c-23.4,0-44.1-6.3-61.6-18.5S566.4,702,551,679.8c-19,46-58,81.2-102.1,91.2A115.5,115.5,0,0,1,423.1,774Z" fill="#f3d1e5"/>
            <path d="M473.3,13.4c4.2,0,8.3.2,12.4.4,68.8,3.4,96.5,61,119.7,116.9,23.8-32.8,56.5-59.3,98.1-64.3a117.6,117.6,0,0,1,14.5-.9c33.2,0,65.7,13.4,91,35.1,29.5,25.2,51,61.6,53.5,100.9,1.9,28-6.1,54-20.6,76.4,18.7,3.6,38.4,13.9,50.6,22.1,44.2,29.4,82.6,88.7,84,142.6,1.1,48.7-20,96.4-62.8,121.9a147,147,0,0,1-74.5,20.6,136.8,136.8,0,0,1-37.5-5.2c-5.5,31.3-9.3,64-23.3,92.8-15.4,31.6-42.4,52.9-76,62.9a148.5,148.5,0,0,1-41.7,6.4c-20.3,0-40.3-5-57.7-17.2-22.4-15.7-39.2-37-53.7-59.8-15,46.7-53.8,88.5-101.9,99.5a109.9,109.9,0,0,1-24.3,2.8c-49.1,0-84.8-36-106.1-80.3-19.6,26.3-48.1,41.4-82.6,43.8-6.6.5-13.3.7-20.1.7-33.5,0-67.8-6.4-94.8-26.6-46.9-35.3-56.1-96.4-44.8-151.5-47.9-40.7-75.9-101-53.6-165.8,18.3-53,62.5-87.1,113.4-87.1a113.6,113.6,0,0,1,18.2,1.5c-27.8-49.8-18.8-124.5,24.3-161.6,22-18.9,50.5-27.8,79.4-27.8,32.5,0,65.4,11.2,89.8,32.1,1.8-34.3,5.8-70.3,33.3-98.2,25.1-25.5,59.8-33.1,93.8-33.1m0-13.4h0c-44.4,0-79.2,12.5-103.4,37.1s-32,53.6-35.3,83a156.2,156.2,0,0,0-78.2-21c-33.6,0-64.9,11.1-88.1,31.1-40.9,35.2-55.5,102.6-36.9,156.9-55.2,1.4-103.3,38.8-123,96.1-21.1,61.5-1.8,126.5,51.7,175.2-11.4,66,7.5,124.3,51.3,157.2,25.9,19.5,60.5,29.4,102.9,29.4,6.8,0,13.8-.3,21-.8,31.3-2.2,58.2-13.8,79-33.8,27,45.5,65.1,70.4,108.8,70.4a123.2,123.2,0,0,0,27.3-3.2c42.7-9.8,80.7-41.8,101.9-84.5,10.9,14.5,25.1,30.1,43,42.7s40.6,19.7,65.4,19.7a161.5,161.5,0,0,0,45.5-7c38.5-11.4,67.6-35.6,84.3-69.9,12.7-26.1,17.4-54.5,22-81.9a.7.7,0,0,1,.1-.5,156.6,156.6,0,0,0,26.6,2.3A159.6,159.6,0,0,0,920.5,576c44.9-26.6,70.8-76.6,69.4-133.7-1.3-55.1-39.2-119.7-89.9-153.5a182.8,182.8,0,0,0-38-19.2,135.4,135.4,0,0,0,13.9-69c-2.6-40.7-23.8-80.8-58.2-110.3C788.9,65.7,753.5,52.1,718,52.1a143.5,143.5,0,0,0-16.1.9c-34.3,4.2-66.1,21.9-92.9,51.8C588.7,58.8,556.6,3.9,486.3.3l-13-.3Z" fill="#734392"/>
          </g>
          <path d="M56,400.2c36.5-40.1,87.5-68.7,141.9-68.1-31.5-45.5-21.5-121.1,20.7-156.3,43.9-36.7,104-17.9,145.9,14.9C359.2,136.1,406.9,79.8,461.1,72c64-9.3,110.2,54.5,135.5,106.4,36.6-34.7,99.8-46.2,145-24.5,28.1,13.6,43.5,37.7,49.3,67.8,5,25.7-1.6,50.6-3,76.1-.5,8.6,0,10.3,8.4,11,6.4.5,13.1.9,19.3,2.6,35.8,9.7,71.8,24.8,100.6,48.7,31,25.6,47.2,57,53.1,96.6a173.7,173.7,0,0,1,2,29.4,154.3,154.3,0,0,0,5.2-43.5c-1.4-53.9-39.8-113.2-84-142.6-12.2-8.2-31.9-18.5-50.6-22.1,14.5-22.4,22.5-48.4,20.6-76.4-2.5-39.3-24-75.7-53.5-100.9S741.7,61.8,703.5,66.4c-41.6,5-74.3,31.5-98.1,64.3C582.2,74.8,554.5,17.2,485.7,13.8c-37.8-1.9-78.1,4.1-106.2,32.7s-31.5,63.9-33.3,98.2C300,105.3,223.7,100.2,177,140.4c-43.1,37.1-52.1,111.8-24.3,161.6-58.4-9.2-111.2,26.4-131.6,85.6a136.4,136.4,0,0,0-.5,89C24.2,447.1,35.9,422.3,56,400.2Z" fill="#59c0d3"/>
          <g opacity="0.7">
            <path d="M932.1,543.7c-18.7,15.6-43.9,28.3-69.1,25.1-13.2-1.7-25.8-5.2-38.6-8.8s-31.1-10.2-45.4-6.2c-30.4,8.7-8.4,48.2-7.5,69.2a109.3,109.3,0,0,1-18.2,64c-21.4,31.7-64.6,29.3-96,16.1-18.8-7.8-35.8-20-51.2-33s-34.2-39.5-54.3-39.5c-53.7,0-28.9,77.4-67.6,97.5-27.9,14.5-64.1,4.9-87.8-13.6-27.2-21.2-42.9-77.3-83.4-72-23.2,3.1-37.7,17.3-55.3,30.8-15.4,11.8-32.8,21.4-52.2,24-41.3,5.5-76.3-18.3-105.5-44.9a312.3,312.3,0,0,1-27.3-27.8c5.4,31.3,19.9,60,46.8,80.3,32.4,24.3,75.5,28.6,114.9,25.9,34.5-2.4,63-17.5,82.6-43.8,24.6,51.3,68.7,91.5,130.4,77.5,48.1-11,86.9-52.8,101.9-99.5,14.5,22.8,31.3,44.1,53.7,59.8,29.5,20.7,66.1,20.7,99.4,10.8s60.6-31.3,76-62.9c14-28.8,17.8-61.5,23.3-92.8,37.5,10.7,78.3,4.5,112-15.4s53.6-53.4,60.3-90.4C967,500.9,953.9,525.6,932.1,543.7Z" fill="#f3d1e5"/>
          </g>
          <path d="M134.6,284.9c6.1,20.9,28.1,32,44.8,43.4,2.2,1.5,5.6.4,6.9-1.8a5.2,5.2,0,0,0-1.8-6.9c-7.9-5.4-16.4-10.4-23.6-16.2s-14.1-12.7-16.6-21.2c-1.8-6.2-11.5-3.5-9.7,2.7Z" fill="#734392"/>
          <path d="M328.2,131.6c14.6,8.9,18.8,28.3,21.2,44,.4,2.7,3.8,4.2,6.2,3.6s3.9-3.5,3.5-6.2c-2.8-18.7-8.7-39.7-25.8-50.1-5.6-3.4-10.7,5.3-5.1,8.7Z" fill="#734392"/>
          <path d="M595.8,104.5c4.7,11.1,6.4,23.4,6.4,35.3.1,6.5,10.1,6.5,10.1,0a103,103,0,0,0-7.8-40.3c-1.1-2.6-4.8-3.1-6.9-1.9s-2.9,4.4-1.8,6.9Z" fill="#734392"/>
          <path d="M819.5,290.7c18.7-2.4,40.8-11.7,44.8-32.3a5.2,5.2,0,0,0-3.5-6.2c-2.5-.6-5.7.9-6.2,3.6-1.5,7.8-6.3,13.3-13,17.4a46.3,46.3,0,0,1-10.7,4.8,60.6,60.6,0,0,1-6.1,1.6,13.6,13.6,0,0,1-2.9.6l-1.5.3h-.9c-2.7.4-5,2.1-5,5.1s2.3,5.4,5,5Z" fill="#734392"/>
          <path d="M778.2,571.9c5.3,8.2,13.4,14.3,22.2,18.4s18.6,6.8,28.4,6.8c6.5.1,6.5-10,0-10.1a56.3,56.3,0,0,1-23.3-5.4c-7.2-3.4-14.3-8.2-18.6-14.8s-12.3-.3-8.7,5.1Z" fill="#734392"/>
          <path d="M565.8,688.3c-5-6.6-9.5-13.7-12.3-21.5a69.8,69.8,0,0,1-4.2-24.3c-.1-6.5-10.1-6.5-10.1,0,.1,18.8,6.5,36,17.9,50.9,1.7,2.2,4.4,3.3,6.9,1.8s3.5-4.7,1.8-6.9Z" fill="#734392"/>
          <path d="M327.1,706c-7.3-13.5-14.7-30.1-11.3-45.7,1.4-6.4-8.3-9.1-9.7-2.7-4.1,18.5,3.6,37.4,12.3,53.4,3.1,5.8,11.8.7,8.7-5Z" fill="#734392"/>
          <path d="M70.6,583.7c-.3-20.1,12.7-36.6,29-47,5.4-3.4.4-12.2-5.1-8.7-19.3,12.3-34.3,32-34,55.7,0,6.5,10.1,6.5,10.1,0Z" fill="#734392"/>
          <g>
            <path d="M88.5,643.8c17.3,32.3,47.9,61.3,84.6,69.3a90.6,90.6,0,0,0,32,1.1c2.7-.4,4.2-3.8,3.5-6.2s-3.4-3.9-6.2-3.5c-34.7,4.8-67.3-15.9-88.9-41.5a141.3,141.3,0,0,1-16.3-24.3c-3.1-5.7-11.8-.6-8.7,5.1Z" fill="#734392"/>
            <path d="M233.5,710a29.1,29.1,0,0,0,10.6-.1,22.7,22.7,0,0,0,9.5-4.6,5.1,5.1,0,0,0,1.5-3.5,5.1,5.1,0,0,0-5.1-5.1,5.8,5.8,0,0,0-3.5,1.5l-.2.2,1-.8a19.9,19.9,0,0,1-3.5,2l1.2-.5a20.4,20.4,0,0,1-5,1.3l1.4-.2a22.5,22.5,0,0,1-5.8,0l1.3.2h-.7a5,5,0,0,0-5.7,7.4,5.2,5.2,0,0,0,3,2.3Z" fill="#734392"/>
            <path d="M648.7,119.4c14.1-17.3,37.3-22.7,58.9-22.6a142.3,142.3,0,0,1,70.1,18.8c10.1,5.9,19.8,13.6,26.1,23,3.6,5.4,12.4.3,8.7-5.1-13.7-20.4-37.4-32.8-60.3-39.9-24.7-7.5-52.7-10.1-77.6-2.4-12.7,3.9-24.6,10.8-33.1,21.1-1.7,2.1-2,5.1,0,7.1s5.4,2.2,7.2,0Z" fill="#734392"/>
            <path d="M828.2,173.9a20.2,20.2,0,0,1,2.2,4.1c.2.3.6,1.6.1.1a3.7,3.7,0,0,0,.5,1.1c.2.7.5,1.4.7,2.2a91.3,91.3,0,0,1,2.7,8.9,5,5,0,1,0,9.7-2.6c-1.8-6.5-3.5-13.2-7.2-18.9a5,5,0,1,0-8.7,5.1Z" fill="#734392"/>
            <path d="M624.4,721.8c34.2,10.8,74.3,6.5,104.3-13.5a98.1,98.1,0,0,0,22.5-20.6c1.7-2.1,2.1-5.1,0-7.1s-5.4-2.2-7.1,0c-21.2,26.7-56,38.6-89.5,36.6a112.3,112.3,0,0,1-27.5-5.2c-6.2-1.9-8.8,7.8-2.7,9.8Z" fill="#734392"/>
            <path d="M768,657.4c3-2.9,4.9-6.6,6.7-10.2a5.4,5.4,0,0,0,.5-3.9,4.7,4.7,0,0,0-2.3-3,4.5,4.5,0,0,0-3.9-.5,4.6,4.6,0,0,0-3,2.3,50.3,50.3,0,0,1-4.3,7.5l.7-1.1a8.4,8.4,0,0,1-1.5,1.8,5.3,5.3,0,0,0-1.5,3.6,5.1,5.1,0,0,0,1.5,3.5,4.9,4.9,0,0,0,3.6,1.5,5.1,5.1,0,0,0,3.5-1.5Z" fill="#734392"/>
          </g>
          <g opacity="0.7">
            <path d="M61.7,358.6C39,381.4,23,414.1,26.7,445.8c3.2,26,37.3,75.1,60.1,33.3,4.5-8.1,5.5-17.8,6.3-26.7,1.9-19.8,4.5-33.5,17.9-48.9s22.9-29.8,22-50v-.2c-1.9-36.1-34.8-22.4-54.1-9.1A121.6,121.6,0,0,0,61.7,358.6Z" fill="#fff"/>
            <path d="M928.9,342.1C913.5,313,885,290.2,854.3,291c-13.4.3-32,15.5-31.8,30.3.4,21.9,21.5,32.1,37.1,42.8,23,15.9,16.1,49.6,38.2,64.6,9.9,6.8,22.7,9.6,30.8-1.3C946.7,403.2,943.7,369.8,928.9,342.1Z" fill="#fff"/>
          </g>
          <g>
            <g>
              <g>
                <path d="M291.6,403.9c-.6,12.9,2.7,26.3,10.5,36.8A64.4,64.4,0,0,0,332.5,463c22.7,8.2,50.5,4,68-13.1,11.6-11.2,16.9-26.8,17.7-42.7.3-5.2-4.8-10.3-10.1-10.1A10.4,10.4,0,0,0,398,407.2a38.9,38.9,0,0,1-.4,4.9c0,1.1.2-1.2.2-1.1s-.1.8-.2,1.2-.3,1.6-.4,2.4a52.7,52.7,0,0,1-2.5,8.6l-.3.8c-.6,1.5.3-.8.4-.9s-.6,1.3-.8,1.7-1.3,2.6-2.1,3.8-1.4,2.1-2.1,3.2.4-.5.2-.2l-1.5,1.7a43.4,43.4,0,0,1-5.4,5.1c-1.2,1.1,2-1.4.3-.2l-1.4,1-3.3,2.1-3.2,1.7-1.6.7c.1-.1,2.6-1,1.1-.5l-.9.4a61.4,61.4,0,0,1-7.3,2.2l-3.3.6c-1.8.3-.8,0,.5,0l-2.2.2a61.5,61.5,0,0,1-7.4.2l-3.8-.2-1.7-.2c-1.2-.1,2.5.4,1.2.2l-1.2-.2a57.7,57.7,0,0,1-7.2-1.6l-3.3-1.1-1.9-.7c-2.2-.8,1.4.7.2.1a51.3,51.3,0,0,1-6.6-3.4l-3-2a7.1,7.1,0,0,0-1.4-1c1,.2,1.8,1.4.9.7l-1-.8a41.6,41.6,0,0,1-5.2-5.1l-1.4-1.6c-.9-1,1.4,2,.1,0s-1.6-2.3-2.3-3.5-1.4-2.4-2-3.7a3.6,3.6,0,0,1-.4-.9c-.8-1.6.7,1.9.3.7l-.7-1.9c-.5-1.4-.9-2.8-1.3-4.3s-.3-1.4-.4-2.1-.5-3.2-.3-1.3-.1-1-.1-1.5a16.4,16.4,0,0,1-.2-2.2c-.1-1.8,0-3.6,0-5.3.3-5.3-4.8-10.4-10-10.1a10.2,10.2,0,0,0-10.1,10.1Z" fill="#734392"/>
                <path d="M288,438.5a64.5,64.5,0,0,1,5.9-2.9,30.9,30.9,0,0,0,6.3-4.1,5.1,5.1,0,0,0,1.5-3.5,5.1,5.1,0,0,0-5.1-5.1l-1.3.2a4.5,4.5,0,0,0-2.2,1.3l-.5.4,1-.8c-3.2,2.5-7.2,3.8-10.7,5.8a5.5,5.5,0,0,0-2.4,3,5.4,5.4,0,0,0,.6,3.9,5.1,5.1,0,0,0,6.9,1.8Z" fill="#734392"/>
                <path d="M312.5,462.4a88.2,88.2,0,0,0,9.2-12.8,4.9,4.9,0,0,0,.5-3.9,4.7,4.7,0,0,0-2.3-3,5.1,5.1,0,0,0-6.9,1.8,94.3,94.3,0,0,1-5.6,8.4l.7-1.1-2.7,3.4a5.1,5.1,0,0,0,0,7.2,5,5,0,0,0,3.5,1.4,4.7,4.7,0,0,0,3.6-1.4Z" fill="#734392"/>
                <path d="M351.9,479.7c1.8-5.3,2.9-10.8,4.5-16.2a5.1,5.1,0,0,0-3.5-6.2,5.2,5.2,0,0,0-6.2,3.5c-1.6,5.4-2.8,10.9-4.5,16.3a5.1,5.1,0,0,0,3.5,6.2,5.2,5.2,0,0,0,6.2-3.6Z" fill="#734392"/>
                <path d="M389.2,452.9a105.2,105.2,0,0,1,6.2,10.1,4.7,4.7,0,0,0,3,2.3,4.9,4.9,0,0,0,3.9-.5,5,5,0,0,0,2.3-3,5.9,5.9,0,0,0-.5-3.9,105.2,105.2,0,0,0-6.2-10.1A5.1,5.1,0,0,0,391,446a5,5,0,0,0-2.3,3,5.3,5.3,0,0,0,.5,3.9Z" fill="#734392"/>
                <path d="M405.7,428.7a40.4,40.4,0,0,0,5.4,3.8l4.6,2.6a4.8,4.8,0,0,0,3.9.5,5.2,5.2,0,0,0,3-2.3,5.3,5.3,0,0,0,.5-3.9,5.7,5.7,0,0,0-2.3-3,76.4,76.4,0,0,1-8.6-5.3l1,.8-.4-.3a4.6,4.6,0,0,0-1.6-1.1,4.3,4.3,0,0,0-1.9-.4,5.1,5.1,0,0,0-3.6,1.5,5.3,5.3,0,0,0-1.5,3.6,5.1,5.1,0,0,0,1.5,3.5Z" fill="#734392"/>
              </g>
              <g>
                <path d="M532.1,403.9c-.6,12.9,2.8,26.3,10.5,36.8A64.7,64.7,0,0,0,573.1,463c22.7,8.2,50.5,4,68-13.1,11.5-11.2,16.9-26.8,17.7-42.7.2-5.2-4.9-10.3-10.1-10.1a10.4,10.4,0,0,0-10.1,10.1c-.1,1.7-.3,3.3-.4,4.9s.2-1.2.2-1.1a2.3,2.3,0,0,0-.2,1.2c-.2.8-.3,1.6-.5,2.4a52.7,52.7,0,0,1-2.5,8.6l-.3.8c-.5,1.5.3-.8.4-.9s-.6,1.3-.8,1.7-1.3,2.6-2,3.8l-2.2,3.2c-1.1,1.7.5-.5.2-.2s-.9,1.1-1.4,1.7a51.8,51.8,0,0,1-5.4,5.1c-1.3,1.1,2-1.4.3-.2l-1.4,1-3.3,2.1L616,443l-1.5.7c0-.1,2.5-1,1.1-.5l-1,.4a54.8,54.8,0,0,1-7.2,2.2l-3.4.6c-1.8.3-.7,0,.5,0l-2.2.2a61,61,0,0,1-7.4.2l-3.7-.2-1.7-.2c-1.3-.1,2.4.4,1.2.2l-1.2-.2a59.3,59.3,0,0,1-7.3-1.6l-3.3-1.1-1.8-.7c-2.3-.8,1.3.7.1.1a57.5,57.5,0,0,1-6.5-3.4,32.8,32.8,0,0,1-3.1-2,7.1,7.1,0,0,0-1.4-1c1.1.2,1.8,1.4.9.7l-.9-.8a42.3,42.3,0,0,1-5.3-5.1l-1.4-1.6c-.8-1,1.5,2,.1,0s-1.6-2.3-2.3-3.5-1.4-2.4-2-3.7a3.6,3.6,0,0,0-.4-.9c-.7-1.6.7,1.9.3.7l-.7-1.9a30.3,30.3,0,0,1-1.2-4.3,16,16,0,0,1-.5-2.1c-.1-.5-.5-3.2-.3-1.3s-.1-1-.1-1.5a16.2,16.2,0,0,1-.1-2.2,46.8,46.8,0,0,1,0-5.3c.2-5.3-4.8-10.4-10.1-10.1a10.3,10.3,0,0,0-10.1,10.1Z" fill="#734392"/>
                <path d="M528.5,438.5a64.5,64.5,0,0,1,5.9-2.9,26.3,26.3,0,0,0,6.3-4.1,4.7,4.7,0,0,0,1.5-3.5,4.9,4.9,0,0,0-1.5-3.6,5.1,5.1,0,0,0-3.5-1.5l-1.4.2a5,5,0,0,0-2.2,1.3l-.5.4,1-.8c-3.2,2.5-7.2,3.8-10.7,5.8a5,5,0,0,0-2.3,3,5.3,5.3,0,0,0,.5,3.9,5.1,5.1,0,0,0,6.9,1.8Z" fill="#734392"/>
                <path d="M553.1,462.4a96.4,96.4,0,0,0,9.2-12.8,5.9,5.9,0,0,0,.5-3.9,5.2,5.2,0,0,0-2.4-3,5.1,5.1,0,0,0-6.9,1.8,64.6,64.6,0,0,1-5.6,8.4l.8-1.1c-.9,1.2-1.8,2.3-2.8,3.4a5.1,5.1,0,0,0,0,7.2,5.2,5.2,0,0,0,3.6,1.4,4.8,4.8,0,0,0,3.6-1.4Z" fill="#734392"/>
                <path d="M592.5,479.7c1.7-5.3,2.8-10.8,4.4-16.2a5.1,5.1,0,0,0-3.5-6.2,5.2,5.2,0,0,0-6.2,3.5c-1.6,5.4-2.7,10.9-4.5,16.3a5.1,5.1,0,0,0,3.6,6.2,5.3,5.3,0,0,0,6.2-3.6Z" fill="#734392"/>
                <path d="M629.8,452.9a104.2,104.2,0,0,1,6.1,10.1,5.2,5.2,0,0,0,3,2.3,4.8,4.8,0,0,0,3.9-.5,5,5,0,0,0,2.3-3,4.9,4.9,0,0,0-.5-3.9,87.4,87.4,0,0,0-6.1-10.1,5.7,5.7,0,0,0-3-2.3,5.2,5.2,0,0,0-3.9.5,5.1,5.1,0,0,0-2.4,3,5.3,5.3,0,0,0,.6,3.9Z" fill="#734392"/>
                <path d="M646.2,428.7a49.1,49.1,0,0,0,5.5,3.8l4.5,2.6a4.9,4.9,0,0,0,3.9.5,4.7,4.7,0,0,0,3-2.3,4.9,4.9,0,0,0,.5-3.9,5.2,5.2,0,0,0-2.3-3,76.4,76.4,0,0,1-8.6-5.3l1,.8-.3-.3a5,5,0,0,0-1.7-1.1,4.1,4.1,0,0,0-1.9-.4,5.5,5.5,0,0,0-3.6,1.5,5.2,5.2,0,0,0-1.4,3.6,4.6,4.6,0,0,0,1.4,3.5Z" fill="#734392"/>
              </g>
            </g>
            <path d="M389.6,509.1c.1,17.5,4.1,35.6,13.2,50.7a72.8,72.8,0,0,0,18.7,20.4c7.1,5.2,15.6,8.4,24,10.7,29.7,8.2,66.3,5.7,88.5-18a69.5,69.5,0,0,0,14.7-24.8c4.1-11.8,4.1-23.9,4-36.2,0-5.2-4.6-10.3-10.1-10.1s-10.1,4.5-10.1,10.1.3,10.6,0,15.9c-.1,1.3-.2,2.6-.4,3.9.2-1.3-.2,1.3-.3,1.6a52.6,52.6,0,0,1-1.5,6c-.5,1.8-1.1,3.5-1.7,5.2s-.3.7-.4,1.1c.7-2.1.3-.8.1-.3a21,21,0,0,1-1.3,2.6,57.5,57.5,0,0,1-5.3,8.5c1.6-2.1,0-.1-.4.4l-1.6,1.8c-1.1,1.2-2.4,2.4-3.6,3.5l-1.8,1.6c-1.4,1.1,1.6-1.2-.4.2l-4.2,2.8a37.2,37.2,0,0,1-3.9,2.1l-2.1,1c-.4.2-.9.6-1.3.6s1.8-.7.6-.2a81.5,81.5,0,0,1-9.6,2.9l-4.4,1-2.5.4c-1.4.2,2-.2.6-.1h-1.4a90.5,90.5,0,0,1-10.4.5c-3.5,0-6.9-.3-10.3-.6l-1.5-.2h.9l-2.6-.4-5.5-1.1c-3.4-.8-6.8-1.7-10.1-2.8-1.8-.5-3.5-1.2-5.3-1.8l.5.2-1.5-.7-2.9-1.5c-1.6-.9-3.1-1.9-4.7-3s-1.7-1.5-.4-.3l-2.4-2.1c-1.3-1.2-2.6-2.5-3.8-3.8s-1.2-1.4-1.8-2.1l-.8-.9c1.5,1.7.3.3,0-.1a79.7,79.7,0,0,1-6.4-10.9,4.7,4.7,0,0,0-.5-1c0-.1-.9-2.4-.4-1s0-.1-.1-.3l-.7-1.8c-.7-2-1.4-4.1-2-6.1s-1.1-4.2-1.5-6.3l-.6-3.1c-.1-.4-.1-.8-.2-1.2s-.4-2.6-.2-1,0,0,0-.3-.1-1.3-.2-1.9l-.3-3.2c-.1-2.2-.2-4.4-.2-6.7,0-5.2-4.6-10.3-10.1-10.1s-10.1,4.5-10.1,10.1Z" fill="#734392"/>
            <path d="M645.2,489.4c-18.4,4.2-36.5,2.8-54.9,5.8-11.8,2-17.7,11.7-17,23,.9,13.5,10.1,21.9,22.3,26.3,22.8,8.1,62.9,6,76.5-17.9C682.4,508.3,667.5,484.2,645.2,489.4Z" fill="#ef8ba9"/>
            <path d="M296.5,489.4c18.4,4.2,36.5,2.8,54.8,5.8,11.9,2,17.8,11.7,17.1,23-.9,13.5-10.1,21.9-22.3,26.3-22.8,8.1-62.9,6-76.5-17.9C259.3,508.3,274.2,484.2,296.5,489.4Z" fill="#ef8ba9"/>
          </g>
          <g>
            <g style="mix-blend-mode: multiply">
              <path d="M319.1,539.5h.9c4.6,0,4.6-7.3,0-7.3h-.9c-4.6,0-4.6,7.3,0,7.3Z" fill="#f9d6d7"/>
            </g>
            <g style="mix-blend-mode: multiply">
              <path d="M349.9,500.7c4.7,0,4.7-7.3,0-7.3s-4.7,7.3,0,7.3Z" fill="#f9d6d7"/>
            </g>
            <g style="mix-blend-mode: multiply">
              <path d="M383.8,513.6c4.7,0,4.7-7.3,0-7.3s-4.7,7.3,0,7.3Z" fill="#f9d6d7"/>
            </g>
            <g style="mix-blend-mode: multiply">
              <path d="M312.7,511.2c4.7,0,4.7-7.3,0-7.3s-4.7,7.3,0,7.3Z" fill="#f9d6d7"/>
            </g>
            <g style="mix-blend-mode: multiply">
              <path d="M249.6,513.6c4.7,0,4.7-7.3,0-7.3s-4.7,7.3,0,7.3Z" fill="#f9d6d7"/>
            </g>
            <g style="mix-blend-mode: multiply">
              <path d="M284.4,529.8c4.7,0,4.7-7.3,0-7.3s-4.7,7.3,0,7.3Z" fill="#f9d6d7"/>
            </g>
            <g style="mix-blend-mode: multiply">
              <path d="M254.5,573.5c4.7,0,4.7-7.3,0-7.3s-4.7,7.3,0,7.3Z" fill="#f9d6d7"/>
            </g>
            <g style="mix-blend-mode: multiply">
              <path d="M626.4,531.4c4.7,0,4.7-7.3,0-7.3s-4.7,7.3,0,7.3Z" fill="#f9d6d7"/>
            </g>
            <g style="mix-blend-mode: multiply">
              <path d="M598.1,516c4.7,0,4.7-7.2,0-7.2s-4.7,7.2,0,7.2Z" fill="#f9d6d7"/>
            </g>
            <g style="mix-blend-mode: multiply">
              <path d="M615.1,501.5h.8c4.7,0,4.7-7.3,0-7.3h-.8c-4.7,0-4.7,7.3,0,7.3Z" fill="#f9d6d7"/>
            </g>
            <g style="mix-blend-mode: multiply">
              <path d="M569,498.2c4.7,0,4.7-7.2,0-7.2s-4.7,7.2,0,7.2Z" fill="#f9d6d7"/>
            </g>
            <g style="mix-blend-mode: multiply">
              <path d="M656.3,512h-.8c-4.7,0-4.7,7.3,0,7.3h.8c4.7,0,4.7-7.3,0-7.3Z" fill="#f9d6d7"/>
            </g>
            <g style="mix-blend-mode: multiply">
              <path d="M689.1,491.4V493c0,4.7,7.3,4.7,7.3,0v-1.6c0-4.7-7.3-4.7-7.3,0Z" fill="#f9d6d7"/>
            </g>
            <g style="mix-blend-mode: multiply">
              <path d="M690.3,516.8h-.6c-4.7,0-4.7,7.3,0,7.3h.6c4.7,0,4.7-7.3,0-7.3h-.6c-4.7,0-4.7,7.3,0,7.3h.6c4.7,0,4.7-7.3,0-7.3Z" fill="#f9d6d7"/>
            </g>
            <g style="mix-blend-mode: multiply">
              <path d="M683.8,567.8c4.7,0,4.7-7.3,0-7.3s-4.7,7.3,0,7.3Z" fill="#f9d6d7"/>
            </g>
            <g style="mix-blend-mode: multiply">
              <path d="M599.3,540.7a4.3,4.3,0,0,0,4.5,4.5c4.7,0,4.7-7.3,0-7.3-.8-.1-.4.1,1.1.4l1.3,1.3c.3,1.5.4,1.8.4,1.1,0-4.7-7.3-4.7-7.3,0Z" fill="#f9d6d7"/>
            </g>
            <g style="mix-blend-mode: multiply">
              <path d="M343.4,519.3h-.8c-4.7,0-4.7,7.2,0,7.2h.8c4.7,0,4.7-7.2,0-7.2Z" fill="#f9d6d7"/>
            </g>
            <g style="mix-blend-mode: multiply">
              <path d="M320.4,476.8v.8c0,4.7,7.2,4.7,7.2,0v-.8c0-4.7-7.2-4.7-7.2,0Z" fill="#f9d6d7"/>
            </g>
          </g>
        </g>
      </g>
    </g>
  </g>
</svg>
