<svg xmlns="http://www.w3.org/2000/svg" width="841.4" height="634.7" viewBox="-0.05200004577636719 -0.009639739990234375 841.4752197265625 634.7654418945312" style=""><g><title>lovelic82_221142998</title><g data-name="Layer 2"><path d="M617.2 413.9h3.6a15.1 15.1 0 1 0 0-30.2h-3.7c11.4-15.3 44-63.3 38.9-105-2.1-17.3-10.4-31.5-24.7-42.2-11.9-8.9-25.2-11.7-39.8-8.5-39.4 8.6-78.2 61.9-97.8 92.8-3.2-29.4-13-77.4-42.9-107-17.8-17.7-40.3-26.4-66.6-26-45.9.8-81.7 27.3-103.3 76.8a239.2 239.2 0 0 0-15.8 52.1c-19.1-28.6-59-81.7-96.4-88.5-12.6-2.3-24 .5-33.8 8.5-49.5 40.1-5 127 6.2 147h-3.7a15.1 15.1 0 0 0 0 30.2h14c-11 14.6-28.6 41.6-30.4 67-2.5 37.4.6 38 6.4 39.3s13-5.8 18.1-27.7c4.7-19.9 12.6-64.7 41.9-78.6h393.7c29.4 13.9 37.2 58.7 41.9 78.6 5.2 21.9 12.3 29 18.1 27.7s9-1.9 6.4-39.3c-1.8-25.4-19.3-52.4-30.3-67zm-462.7-38c-9.9-17.9-49.3-95.2-9.9-127.2a25 25 0 0 1 21.3-5.3c8.7 1.6 17.9 6.7 27.2 13.8a53 53 0 0 0-26.2 5.5c-15.8 7.5-24.9 20.4-26.3 37.1-2.4 26.8 16.4 59.3 35.5 72.8a49.1 49.1 0 0 0 5.3 3.3zm94.4-31.7c-1.5 13.3-6.3 21.6-14.8 25.3-15.4 6.9-39.6-2.8-49.1-9.5-13.4-9.6-31-36.6-29-58.9.9-11.3 6.7-19.3 17.6-24.5 18.7-8.9 35.1-1.6 43.1 9.7s10.1 27.1-4.9 42.3c-8.8 8.9-20.8-1.5-22.1-2.8a7.7 7.7 0 0 0-10.6 11.3c8.3 7.8 28.1 18.2 43.7 2.4 10.7-10.8 15-22.9 15.2-34.4 9.5 12.7 17.5 24.8 22.9 33.5a9.8 9.8 0 0 0-3.5-1.3 7.8 7.8 0 0 0-8.5 6.9zm76.1 31.7a16.9 16.9 0 0 0 5.2-5.1c6.3-9.6.8-21.9.1-23.3a7.7 7.7 0 0 0-10.2-3.7 7.9 7.9 0 0 0-3.8 10.3c1.1 2.3 2 6.6.9 8.3s-3.2 2.1-8.5 1.9c-8.5-.2-15.9-5.1-17-11.4s5.6-14.3 18.4-19.4a19.6 19.6 0 0 1 16.1.4c14.2 6.5 26.1 27.5 32.6 42zm42.3-17.8c-7.7-14.3-19.4-31.2-34.6-38.2a34.5 34.5 0 0 0-28.3-.7c-29.8 11.9-28.9 30.9-27.9 36.4 1.6 8.8 7.7 16.1 16.2 20.3h-41.2c5.9-6 11.1-15.4 12.7-30a7.4 7.4 0 0 0 0-2.1 7.7 7.7 0 0 0 13.3-4.7 242.8 242.8 0 0 1 13.4-57.6c3.3 13.4 12.5 24.4 26.8 31.5a27.1 27.1 0 0 0 27.4-2.9c6.3-5 12.9-15.3 8.3-36.3a7.7 7.7 0 1 0-15.1 3.3c2.3 10.3 1.3 17.7-2.8 20.8s-9 2.2-11 1.2c-18.3-9.1-20.6-23.5-19.3-34 2-16.2 12.5-28 17.5-29.1 14.7-3.2 25.6-.8 33.5 7.1 20.7 21.2 17 77.9 11.1 115zm-.1-125.8c-8.6-8.7-19.5-13.1-32.6-13.1 13.3-9.5 29.7-15.6 49.8-15.9s36.3 5.3 50.1 16.6c-17.5-2.5-31.7 1.6-42.3 12.4a57.9 57.9 0 0 0-12.5 20.5 57.9 57.9 0 0 0-12.5-20.5zm36 10.8c7.8-7.9 18.8-10.3 33.4-7.1 5.1 1.1 15.5 12.9 17.6 29.1 1.3 10.5-1 24.9-19.4 34-1.9 1-7.3 1.7-11-1.2s-5-10.5-2.7-20.8a7.7 7.7 0 1 0-15.1-3.3c-4.7 21 1.9 31.3 8.3 36.3a27.1 27.1 0 0 0 27.4 2.9c15.6-7.8 25.1-20.2 27.6-35.3 7.4 24.3 9.6 48.2 10.3 60.4-3.7-6.5-10.9-13.5-24.6-18.9a34.5 34.5 0 0 0-28.3.7c-15.2 7-27 23.9-34.6 38.2-5.9-37.1-9.6-93.8 11.1-115zm47.4 121.2c-5.2.2-7.8-.9-8.4-1.9s-.2-6 .8-8.3a7.7 7.7 0 0 0-3.7-10.3 7.9 7.9 0 0 0-10.3 3.7c-.6 1.4-6.1 13.7.2 23.3a16.9 16.9 0 0 0 5.2 5.1h-33.8c6.5-14.5 18.3-35.5 32.5-42a19.9 19.9 0 0 1 16.2-.4c12.7 5.1 19.6 12.4 18.4 19.4s-8.5 11.2-17.1 11.4zm83.9 5.2c-8.5-3.7-13.3-12-14.8-25.3a7.8 7.8 0 0 0-8.5-6.9 7.7 7.7 0 0 0-6.8 8.6c1.6 14.6 6.8 24 12.7 30h-50.4c8.5-4.2 14.6-11.5 16.2-20.3.1-.7.2-1.7.3-2.9a6.6 6.6 0 0 0 2.4 1.1 7.8 7.8 0 0 0 8.8-3.8 428.2 428.2 0 0 1 37.5-56.5c-3.5 14.4-.5 31.4 13.9 46s35.4 5.4 43.7-2.4a7.7 7.7 0 0 0-10.6-11.3c-.5.5-13 12-22.1 2.8-15-15.2-12.1-32.3-4.9-42.3s24.4-18.6 43.1-9.7c10.9 5.2 16.7 13.2 17.6 24.5 2 22.3-15.6 49.3-29 58.9-9.5 6.7-33.7 16.4-49.1 9.5zm52.7 6.4a49.1 49.1 0 0 0 5.3-3.3c19-13.5 37.9-46 35.5-72.8-1.4-16.7-10.5-29.6-26.3-37.1-13.3-6.4-25.9-6.9-36.6-3.7 9.7-7.9 19.8-13.8 29.8-15.9s18.9-.3 27.2 5.8c10.8 8.1 16.9 18.5 18.5 31.6 4.7 37.2-28.1 83.6-37 95.4z" fill="#baa4ff"></path><path d="M517.7 142.6s-8.2-7-4.7-17.5 13.6-21.5 33.1-17.7c17.8 3.4 22.4 26.1 20.1 34s-48.5 1.2-48.5 1.2z" fill="#357a5f"></path><path d="M209.7 610.2c3.4-.9 1.8-7.4 2.5-7.7s7.5-.1 7.5-.1 3.5 7.5 3 15.4c-.2 2.5-27.9 3.7-28.7-1.1-1.1-6.8 10.1-4.9 15.7-6.5z" fill="#30193b"></path><path d="M351.3 620.5c1.9-2.7 1.3-10.2 1.6-10.7s5.4-4.5 5.4-4.5 3.7 6.9 6.8 13.6c1.1 2.7-17.8 18.4-21.2 15.5s4.4-9.5 7.4-13.9z" fill="#30193b"></path><path d="M225.3 599.4l-1.2-190.9s57.3 10.7 96.4-12.8c36.9-22.2 50.6-45.5 33.6-90.4-33.9 6.2-46.5 5.9-86.8 12.5-18.6 3.7-98.8 17-98.8 86.4 0 29.6 33.7 175.2 39.1 198.4a3.8 3.8 0 0 0 4 3l8.4-.6a5.6 5.6 0 0 0 5.3-5.6z" fill="#c43b72"></path><path d="M362.3 609.5s-25.5-94.9-45.6-130.7c-5.3-9.5-30.4-46.5-30.4-46.5s76-3.1 105.7-37.7c28-32.7 28.8-65.3-1.6-102.6-30.1 16.7-41.8 31.2-78 50.2-16.4 9.4-94.3 51.4-76.6 106 10 30.6 117 165.1 117 165.1z" fill="#ff5e4d"></path><path d="M270.6 272.6s-74.3 53.3-95.2 78.3-15.1 44.6-15.1 44.6 59.3-12.2 91.2 0c0 0 18.1-15.2 34.9-23.6l5.2 32.9s58.1 31.4 70.8 48.6 79.2-90.1 86.5-115.9S388 289 388 289z" fill="#3b2b5b"></path><path d="M530.6 127.2s3.1-11.8 17.7-8.8c20.6 4.2 15.4 28 40 31.9 30.6 4.9 23.9 40.7 6.8 49.9-25 13.4-66.1-.4-75.6-13.2s-15-66.2 11.1-59.8z" fill="#3b2b5b"></path><path d="M448.8 216c.5-19.5-1.2-59.2-1.2-59.2-8.1-11.2-35.8-25.4-43.2-27.5-53.6-15.1-91.6-10-110.8 7.7-31 28.6-41.5 114.1-24.9 158.6 16.4 11.6 68.9 35.7 151 32.8 0-.3 25.9 6.4 29.1-112.4z" fill="#3b2b5b"></path><path d="M416.9 134.8s166.4 51.5 174.7 67-66.8 31.7-87.1 28.8c-42.8-6.1-74.8-65.6-74.8-65.6z" fill="#30193b"></path><path d="M435 312.5c6.2-14.6 12.3-42.7 13.8-96.5.5-19.5-1.2-59.2-1.2-59.2-8.1-11.2-35.8-25.4-43.2-27.5l-8.2-2.1c2.1 17.4 8.5 72.6 9.9 92.3s-38.6 167.5-70.2 212c11.5 7.7 21.9 15.7 26.5 21.9 12.6 17.2 79.2-90.1 86.5-115.9 2.5-9-4.2-17.6-13.9-25z" fill="#30193b"></path><path d="M492.6 189s-80.3 54.4-88.6 74 4.8 58.4 30.5 52.1c17.3-4.2 72.9-75 72.9-84.8S492.6 189 492.6 189z" fill="#ffcb48"></path><path d="M378.8 111.9s-6.7 14.2-5.6 16.2 6.2 5.4 10.3 2.4 3.9-16.6 3.9-16.6z" fill="#ff97a6"></path><path d="M374.4 122.3a17.9 17.9 0 0 0 11.8 3.3 41.2 41.2 0 0 0 1.1-8.2l-10-2.2c-.9 2-2 4.7-2.9 7.1z" fill="#c95d77"></path><path d="M411.7 92.5c-1.2-9.1-17.8-14.9-21.4-14.5s-6.3 4.7-8 7.8-6.6 18 2.7 25.1c17.5 13.3 26.7-18.4 26.7-18.4z" fill="#ff97a6"></path><path d="M371.5 95.3c-.2.8-3.1 12.3 1.7 21.4 2.3 4.3 13.7 7.8 19 7.5 13.8-.7 14.8-20.9 13.4-18.5a59.7 59.7 0 0 1-5 5.7l-2.7 1.7c-9.1 4.2-14.5-4.8-16.1-9.5 0-.1-.1-.2-.1-.3s-.7-2.9-1-4.4c-.5-3.4-.8-7.2.9-10.2 2.7-4.6-9.6-3.1-10.1 6.6z" fill="#3b2b5b"></path><path d="M384.2 109.8s6.7-5.4 14 4.1l2.6-1.6s1.3-3.2-6.3-7.2-13.1 1.1-13.1 1.1z" fill="#3b2b5b"></path><path d="M588.3 150.3c-24.6-3.9-19.4-27.7-40-31.9-10.7-2.2-15.2 3.6-16.9 6.8l6 5.3 28.6 75.1c10.3.6 20.6-.9 29.1-5.4 17.1-9.2 23.8-45-6.8-49.9z" fill="#30193b"></path><path d="M441.6 595.8L404.2 361s70.1 34.2 109.2 10.7c36.9-22.2 50.5-45.4 33.5-90.4-33.9 6.3-46.4 6-86.7 12.5-18.6 3.8-98.9 17.1-98.9 86.5 0 32.1 74.6 217.1 74.6 217.1z" fill="#c43b72"></path><path fill="#3b2b5b" d="M548.2 156.2z"></path><path d="M483.4 584.6s-5.9-110.7-13.6-151c-2.1-10.7-12.1-42-12.1-42s61.2 7.4 100.3-16.1c36.9-22.1 48-52.8 31-97.7-33.9 6.2-49.6 16.3-89.9 22.9-18.6 3.7-105.7 18.9-106.2 76.3-.3 32.2 87.9 222.7 87.9 222.7z" fill="#ff5e4d"></path><path d="M492.6 189c7.8-8.9 40.9-21.8 75.7-21.4 17.8.3 36.9 5.8 42.2 16.1 11.6 23-1.2 118.2-8.6 128.6-35.4 16.1-102.4-18.7-104.4-24.7-22.2-80.5-21.5-79.8-4.9-98.6z" fill="#ffcb48"></path><path d="M589 277.8a266.1 266.1 0 0 0-27.5 6.6c1.5 17.1 1 43.7-13.7 55.9C525.2 359 441 374.6 441 374.6L482.4 590l1-5.4s-5.9-110.7-13.6-151c-2.1-10.7-12.1-42-12.1-42s61.2 7.4 100.3-16.1c36.9-22.1 48-52.8 31-97.7z" fill="#c43b72"></path><g fill="#3b2b5b"><path d="M436.4 600.8c-.6.8-1.4 1.7-2.3 3h.1c-3.9 3.6-13.1 20.3-10.7 23.2 5.6 6.6 26.3-15.2 25.2-18.3s-13.1-65.4-13.1-65.4c-7.7.9-17.9 3.2-22.5 3.6 9.3 24.5 19.8 45.1 23.3 53.9z"></path><path d="M480.7 603.4l-2.1 2.7c-3.9 3.7-13 20.4-10.6 23.2 5.6 6.7 26.2-15.2 25.1-18.3a30.5 30.5 0 0 0-4-8.1c-.5-.7-5-38.1-7.6-67.4a182.3 182.3 0 0 1-27.6 7.2c12.8 29.6 23.5 53.3 26.8 60.7z"></path></g><path d="M477.5 292.8s-4.4 3.5-15.8 3.5-15.8-3.5-15.8-3.5v-36.3h31.6z" fill="#fff"></path><path d="M477.5 256.5c0 2.1-7 3.8-15.8 3.8s-15.8-1.7-15.8-3.8 7.1-3.7 15.8-3.7 15.8 1.7 15.8 3.7z" fill="#a9c9e5"></path><path d="M472.7 267s5.6-6.5 12.2-4.8 3.1 20 1.6 22.6-12.6 4.6-13.8 4.2-.9-3.1-.9-3.1 10.3-3 11.1-5.4 2.2-11.6-.5-12.3-8.2 5.9-8.2 5.9z" fill="#fff"></path><path d="M544.7 150.3s5.4 20.4 4.7 22.9-4.3 6.2-7.4 1.3-3.5-23.3-3.5-23.3z" fill="#ff97a6"></path><path d="M548.3 165.3c-2.1 2.1-5.3 3.5-8.4 2a99.1 99.1 0 0 1-1.2-11.3l7.2-1c.7 2.9 1.6 6.8 2.4 10.3z" fill="#c95d77"></path><path d="M527.7 153.7c-2-2.7-3.2-14.9-3.2-14.9 7.1-1.3 12.3-7.5 12.9-8.3 3.4 0 7.4-.6 10.6.7s4.5 6 5.2 9.4.9 9.6-.6 12.8-6.3 6.2-9.4 6.7c-9.3 1.6-12.3-.3-15.5-6.4z" fill="#ff97a6"></path><path d="M529.6 159.7a45.3 45.3 0 0 0 20.6-3.6 10.1 10.1 0 0 1 10.7 1.3c4.7 4 10.2 10 6.9 14.4-5.5 7.1-15.6 9.3-27.9 8.9s-20.4-3-20.3-7.4-1.7-16.1 10-13.6z" fill="#ff5e4d"></path><path d="M611.3 304.2c-15.9 25.8-93.6 38.2-118 14.1-9-9-5.9-30.8-5.9-30.8l90.5-9.8s10.5-59.9 12.6-87.9c1.2-14.7 12.3-12.5 18.3-9.5 9.6 4.8 23.9 89.3 2.5 123.9z" fill="#ff9a2e"></path><path d="M492.2 286.8s2.2-15.4-2.7-17.3-12.9-5.1-14.2-3.2 4.5 4.1 4.5 4.1-5.4 1.4-6.3 2.1 1.8 2.5 1.8 2.5a2.9 2.9 0 0 0-2.1 2.1c-.4 1.9 4.4 1.1 6.4 2.4s4 9.9 8 12.6c1.4 1.1 4.2-1 4.6-5.3z" fill="#ff97a6"></path><path d="M436.6 284.2s-2.1-15.4 2.8-17.3 12.9-5.1 14.2-3.3-4.5 4.2-4.5 4.2 5.4 1.4 6.3 2.1-1.8 2.5-1.8 2.5a2.7 2.7 0 0 1 2.1 2.1c.4 1.9-4.4 1.1-6.4 2.4s-4 9.9-8 12.6c-1.4 1.1-4.3-1-4.7-5.3z" fill="#ff97a6"></path><path d="M304 167.2c-15.5 32-41.4 69.9-41.4 69.9s70.1 45.3 78 58.7c9.2 15.4-1 35.8-18.2 39.4-13.1 2.8-102.5-48.1-96.8-98.1 3.2-29.1 58.5-114 93.1-111 20 1.7-13.7 39-14.7 41.1z" fill="#4e3e75"></path><path d="M378.1 80.9c-6.5-1.4-4.9-7.9-2.7-14s-2.2-10.5-1.3-14.4 5.9-4.8 13.2-3.6 12.2 6.3 18.1 10.6c13.2 9.5 10.1 22.6 10.1 22.6s-21.3 2.1-37.4-1.2z" fill="#c43b72"></path><path d="M374.4 83.7s26.9.6 36.6 10.8c0 0 3-2.7 4.5-10.4s-5.6-9.8-13.4-12.2c-12.1-3.8-28.5 1.6-28.6 3.7s.9 8.1.9 8.1z" fill="#ff5e4d"></path><path d="M372.2 92l2.2-8.3s9.6-1.2 10.9 0-5.5 5.4-5.8 8.3-7.3 0-7.3 0z" fill="#3b2b5b"></path><g><path d="M365.1 325.1s4.4 3.6 15.8 3.6 15.8-3.6 15.8-3.6v-36.2h-31.6z" fill="#fff"></path><path d="M365.1 288.9c0 2 7 3.7 15.8 3.7s15.8-1.7 15.8-3.7-7.1-3.8-15.8-3.8-15.8 1.7-15.8 3.8z" fill="#a9c9e5"></path><path d="M369.9 299.3s-5.6-6.5-12.2-4.8-3.1 20-1.6 22.6 12.6 4.7 13.8 4.2.9-3 .9-3-10.3-3.1-11.1-5.5-2.2-11.6.5-12.2 8.2 5.9 8.2 5.9z" fill="#fff"></path></g><path d="M340.6 310.1s7.4-13.6 12.5-12.2 13.3 3.5 13.3 5.8-6.1.6-6.1.6 3.5 4.4 3.9 5.5-3 .9-3 .9a2.7 2.7 0 0 1 .4 3c-.8 1.8-4.1-1.7-6.5-1.9s-9.2 5.6-14 5.4c-1.7 0-2.7-3.4-.5-7.1z" fill="#ff97a6"></path><path d="M197.2 160.8c-6 20.8-36.9 37.2-36.9 37.2s-30.9-16.2-37-37 5.4-29 10.6-31.2 20.9.4 26.4 14.4c5.4-14 21.2-16.5 26.3-14.4s16.7 10.2 10.6 31z" fill="#ff5e4d"></path><path d="M703.6 110c-4.3 14.7-26.1 26.2-26.1 26.2s-21.9-11.4-26.2-26.1 3.9-20.5 7.5-22 14.8.3 18.7 10.1c3.8-9.8 15-11.6 18.6-10.1s11.8 7.1 7.5 21.9z" fill="#ff5e4d"></path><path d="M772.5 271.3c-3 10-17.8 17.9-17.8 17.9s-14.8-7.8-17.8-17.8 2.7-13.9 5.1-15 10.1.2 12.7 6.9c2.6-6.7 10.2-7.9 12.7-6.9s8 4.9 5.1 14.9z" fill="#ff5e4d"></path><path d="M278.6 15.2c-2.9 10-17.7 17.9-17.7 17.9s-14.9-7.8-17.8-17.8 2.6-14 5.1-15 10.1.2 12.7 6.9C263.5.5 271.1-.7 273.5.3s8 4.9 5.1 14.9z" fill="#ff5e4d"></path><path d="M36.3 296.4c-2.9 10-17.7 17.9-17.7 17.9S3.8 306.5.8 296.5s2.7-13.9 5.1-14.9 10.1.2 12.7 6.9c2.6-6.7 10.2-7.9 12.6-6.9s8.1 4.8 5.1 14.8z" fill="#ff5e4d"></path><path d="M840.6 153.8c-3 10-17.8 17.9-17.8 17.9s-14.8-7.8-17.8-17.8 2.7-13.9 5.1-14.9 10.1.1 12.7 6.8c2.6-6.7 10.2-7.9 12.7-6.8s8 4.8 5.1 14.8z" fill="#ff5e4d"></path><path d="M94 64c-3.5 11.9-21.1 21.2-21.1 21.2S55.3 76 51.8 64.1s3.1-16.5 6.1-17.8 11.9.3 15 8.2c3.1-7.9 12.1-9.4 15-8.2S97.5 52.1 94 64z" fill="#ff5e4d"></path></g></g></svg>