<svg xmlns="http://www.w3.org/2000/svg" width="517.2" height="817.8" viewBox="0.027400970458984375 -0.007142901420593262 517.2213745117188 817.8110961914062" style=""><g><title>love128_351669756</title><g data-name="Layer 2"><path d="M33.8 304a21.2 21.2 0 0 1 3.4-.2c3.6 0 7.3.1 10.9.3a7.8 7.8 0 0 1 3.2 1.2c1.8 1.1 1.8 3-.1 4.2a13.4 13.4 0 0 1-3.9 1.6l-11.7 2.5-2.3.5c-.1 2.4-.2 4.9-.4 7.3-.5 6.3-1 12.6-1.7 18.8a20.7 20.7 0 0 1-1.2 4.9 5.6 5.6 0 0 1-1.1 2c-1.2 1.5-2.8 1.5-3.9 0a10.8 10.8 0 0 1-1.3-2.9 64.5 64.5 0 0 1-3-13.7c-.5-4.7-.9-9.4-1.3-14.4l-3 .3a53.5 53.5 0 0 1-11.3.2 13.5 13.5 0 0 1-2.9-.5c-2.5-.8-2.9-2.9-.9-4.6a11.8 11.8 0 0 1 3.2-1.9 56.7 56.7 0 0 1 6.6-2.2c2.8-.9 5.7-1.5 8.6-2.3.3-3.9.7-7.7 1-11.6a91.8 91.8 0 0 1 2.6-16.4 31 31 0 0 1 1.3-4 9.4 9.4 0 0 1 1.2-2.2 3.4 3.4 0 0 1 3.3-1.4 3.1 3.1 0 0 1 2.6 2.5 50.5 50.5 0 0 1 1.2 5.3 69.2 69.2 0 0 1 1 13.6c0 3.5-.1 6.9-.1 10.4a24.2 24.2 0 0 0 0 2.7z" fill="#d27a22"></path><path d="M135.3 593.9l.9 1.1a94.2 94.2 0 0 1 11.7 15.7c.7 1.2 1.5 2.3 2.1 3.6a3.7 3.7 0 0 1-.9 4.8 4 4 0 0 1-4.4.7l-8-3.4-12.5-5.3-1.4-.4-.3 3.4c-1 8.9-2 17.7-3.1 26.5-.5 3.4-1.2 6.8-1.9 10.2a5.7 5.7 0 0 1-2 3.3c-1.3 1.2-2.7 1.2-3.8-.2a11.4 11.4 0 0 1-1.6-3.1 49.8 49.8 0 0 1-2-10.2c-.6-5.4-.9-10.9-1.4-16.4-.4-3.4-.9-6.7-1.3-10-.1-.5-.3-1-.4-1.6l-1 .4-5.2 3.3a85 85 0 0 1-20.9 10.4l-4.1 1.2c-3.3.9-4.9-2.3-4.3-4.5a6.8 6.8 0 0 1 1.2-2.6 40.1 40.1 0 0 1 3.1-4.1A163.4 163.4 0 0 1 92.3 598l2.9-2.6-.8-.5c-1.9-1-3.9-2-5.8-3.2l-9.9-6.8a31.1 31.1 0 0 1-2.8-2.3l-1.3-1.2a3.5 3.5 0 0 1 1-5.3 11.8 11.8 0 0 1 4.6-1.4 32.1 32.1 0 0 1 10.7.7 74.3 74.3 0 0 1 13.9 4.2l.7.3h.3a1.3 1.3 0 0 0 .1-.6 224.3 224.3 0 0 1 1.7-23.1c.2-2.1.6-4.3 1-6.4a18.7 18.7 0 0 1 .7-2.2 2.8 2.8 0 0 1 4.9-.7 7.8 7.8 0 0 1 1.7 2.6c1.1 2.5 2.1 5 3 7.6a81 81 0 0 1 4.1 20.6 3.1 3.1 0 0 0 .1 1l.2.3 1.4-.7a184.5 184.5 0 0 1 18.9-8 64 64 0 0 1 12.2-3 7.1 7.1 0 0 1 2.9.2 3.7 3.7 0 0 1 2.8 4.7 7.7 7.7 0 0 1-2.3 3.6 32.9 32.9 0 0 1-4.9 4.2c-4.6 3.4-9.4 6.7-14.1 10.1l-3.9 2.9-1 .9z" fill="#d27a22"></path><path d="M459.7 731.3l2.6-.3 12.7-1a12.2 12.2 0 0 1 2.7.1c.7.2 1.3.5 1.4 1.3a1.5 1.5 0 0 1-.9 1.6 45.8 45.8 0 0 1-5.6 2.5c-4 1.3-8.2 2.4-12.3 3.5l-1.5.4c-.2 1.4-.4 2.8-.5 4.2-.7 6.2-1.3 12.4-2 18.6-.4 3-1 6-1.6 8.9a7.2 7.2 0 0 1-1 2.4 1.8 1.8 0 0 1-3.3.1 10.4 10.4 0 0 1-1.1-2.4 47.5 47.5 0 0 1-1.9-9.1 108.6 108.6 0 0 1-.6-18.9v-1.6l-4.6.2-7 .2a7.4 7.4 0 0 1-2.5-.5 1.7 1.7 0 0 1-.5-3.1 23.8 23.8 0 0 1 4.1-2.3c3.2-1.3 6.5-2.4 9.8-3.6l.7-.2a1.2 1.2 0 0 0 1.1-1.3l.6-7.1c.6-6.9 1.3-13.8 3.3-20.4a23.2 23.2 0 0 1 1.6-4.4 11.7 11.7 0 0 1 1.7-2.8 3 3 0 0 1 3.3-1.3c1.3.4 1.6 1.6 1.7 2.8a21.9 21.9 0 0 1 .3 3.6c.1 4.5.3 8.9.2 13.4s-.6 10.1-.9 15.1v1.4z" fill="#d27a22"></path><path d="M464.7 386.8a82 82 0 0 0-19.4-13.4l-1.3-.7a1.8 1.8 0 0 1-.7-2.4c.3-.9 1.1-1 2-.8a89.4 89.4 0 0 1 15.6 4.1c4.3 1.5 8.7 2 13.4 2.7.1-2.5.2-4.9.2-7.2a93.7 93.7 0 0 1 1.5-16.8 7.2 7.2 0 0 1 .8-2.6 3 3 0 0 1 1.8-1.5c1-.3 1.5.6 1.7 1.4.8 2.4 1.6 4.7 2.2 7.1 1.4 6.5 2.8 13 4.1 19.4a9.7 9.7 0 0 0 .5 1.1l4-2 15.6-6.4c1.5-.6 2.9-1.3 4.4-1.8s2.2-.6 2.9.5a2.7 2.7 0 0 1-.4 3.2 81.5 81.5 0 0 1-13.6 15.1c-1.1.9-2.1 1.9-3.2 3l6.4 3.6c4.9 2.6 8.8 6.5 13.2 9.7 1.4 1.1 1 2.6-.7 2.9a20.1 20.1 0 0 1-4.9.1l-16.6-1.2H493a10.9 10.9 0 0 0 .4 2.2l4.2 18.7c.5 2.4 1 4.8 1.6 7.2a1.9 1.9 0 0 1-.9 2.4 2 2 0 0 1-2.6-.8c-1.9-2.5-4-5-5.8-7.7-3.5-5-6.7-10.2-10.1-15.5l-.6.6a193 193 0 0 1-14 17.1c-2.2 2.6-4.2 5.4-6.3 8a20.9 20.9 0 0 1-2 2.2 2.1 2.1 0 0 1-2.5.4 2 2 0 0 1-1-2.4 41.5 41.5 0 0 1 1.9-6.9 164.4 164.4 0 0 1 12.1-26.7l1-2.2a20.3 20.3 0 0 0-4.1-.4c-5.3.4-10.7.8-16 1.4-3 .4-5.8 1.3-8.7 1.9l-1.2.4c-1.1.3-2.1.1-2.5-1a1.6 1.6 0 0 1 .9-2.3l8-5a85.5 85.5 0 0 1 18.9-8.1l1-.6z" fill="#d27a22"></path><path d="M391.9 561.6l-11.6-5.3-20.1-9.1c-1.2-.5-2.2-1.4-2-2.8s1.5-1.9 2.7-2 2.9 0 4.4 0c5.9-.1 11.8-.3 17.7-.1s13.6.8 20.4 1.2h1.4a22.9 22.9 0 0 0 .7-3.6c1.4-12 4.9-23.4 8.6-34.8.5-1.6 1-3.2 1.6-4.8s.9-1.8 2.1-1.7a2.4 2.4 0 0 1 2.3 2.1 25.1 25.1 0 0 1 .4 2.7c.4 6.6 1 13.1 1.1 19.7s-.2 14.3-.4 21.5v3.2l10.9-.6 20.1-.2a13.6 13.6 0 0 1 4 .4c.8.2 2 1 2.1 1.7a5 5 0 0 1-1.1 2.9 5.5 5.5 0 0 1-2.2 1.4l-18.7 8.3a51.5 51.5 0 0 1-6.2 1.9c1.5 2.4 2.8 4.7 4.2 6.8 5.5 8.3 10.8 16.5 14.2 25.8.3.8.7 1.5.9 2.2s.6 2.6-.8 3.3a2.9 2.9 0 0 1-3.4-.4c-1.2-1-2.5-2-3.6-3.1L428 584.8c-2.7-2.7-5.2-5.5-8.1-8.5a12 12 0 0 0-.5 2.3c-.6 9-1.2 18-1.7 27.1s-1.2 21-1.9 31.5a11.3 11.3 0 0 1-.6 3.2c-.3.6-1.1 1.5-1.7 1.4a2.8 2.8 0 0 1-2.1-1.3 10.2 10.2 0 0 1-1.1-3.5c-2.3-9.7-4.8-19.5-6.7-29.4-1.2-6.2-1.5-12.6-2-18.9-.2-3.5 0-7 0-11.1l-2.4 1.5c-4.3 3.1-8.7 6-12.9 9.1L370.9 600l-5 4a2.7 2.7 0 0 1-3.4.3 2.6 2.6 0 0 1-.9-3.3 61 61 0 0 1 3.8-8.2c4.2-7 9.7-13 15.1-19.1 3.5-4 7.2-7.7 11.4-12.1z" fill="#d27a22"></path><path d="M33.6 460.2c4.2 1.1 8.2 2.2 12.1 3.4a20.2 20.2 0 0 1 4.1 1.5c2 1.2 2 3.3-.1 4.5a14 14 0 0 1-4.1 1.3c-3.3.8-6.5 1.5-9.8 2.1a2.6 2.6 0 0 0-2.3 2.5c-.8 3.9-1.5 7.9-2.2 11.8-.4 2.4-.9 4.9-1.3 7.3s-.9 2.4-2.4 2.4a2.7 2.7 0 0 1-2.6-2.2l-3.6-14.3c-.7-2.7-1.2-5.4-1.8-8.5l-14.2-1.1c-1.5-.1-3.4.5-4-1.6s1.3-2.9 2.8-3.5l10.5-4.3 6.2-2.2c1-5.1 1.9-10.1 3-15a15.4 15.4 0 0 1 1.9-4.6 3 3 0 0 1 2.6-1.4c.7 0 1.7 1.1 2 1.9a17 17 0 0 1 .9 3.9c.8 5.3 1.5 10.6 2.3 16.1z" fill="#d27a22"></path><path d="M233.7 670.7c-.7-13.9-1.5-32.1-2.4-50.2-.5-9.5-1-18.9-1.6-28.4-.8-13.3-1.4-26.6-2.5-39.9-1.3-17.1-3.5-34-7.7-50.6-1.2-4.7-2.9-9.2-4.5-13.8a27 27 0 0 0-11.6-14.2c-6.5-4.1-12.8-8.4-19.1-12.9a304.5 304.5 0 0 1-27.2-21.1c-18.1-16.3-31.3-36-40.9-58.3A320.4 320.4 0 0 1 98.3 325a640.4 640.4 0 0 1-11.2-64.3c-1.7-13.7-2.8-27.5-3.6-41.3s-1.6-29.1-1.2-43.6c.5-18.5 1-36.9 2-55.3.7-14.7 2.5-29.2 4.4-43.7 1.2-8.7 2-17.5 3.2-26.3.7-5.2 1.7-10.5 2.5-15.7q.6-3.1.9-6.3c.3-3.7 2-6 5.5-7.1a203 203 0 0 1 33.4-7.2c10.2-1.2 20.5-1.5 30.8-1.9 13.6-.5 27.1-1.7 40.6-3.2C215.8 7.9 226 7 236.2 6l30.7-2.8 27.1-2Q316.3-.1 338.7 0c10 .1 20 .3 30 .7A84 84 0 0 1 392.5 5a39.1 39.1 0 0 1 7.5 3.4 21.2 21.2 0 0 1 5.3 4.6c3.4 4.2 3.8 8.9 1.5 13.8a8.6 8.6 0 0 0-1.1 2.9c-.8 5.8-1.4 11.6-2.3 17.4a101.1 101.1 0 0 0-.7 22c.5 7.6 1.1 15.1 1.7 22.7s1.6 15.3 2.1 23 1.3 18.1 1.3 27.1c0 31.6-.1 63.3-.6 94.9-.3 21.1-1.9 42.2-4 63.2a337.3 337.3 0 0 1-9.8 53.8 195.6 195.6 0 0 1-16.3 39.9 221 221 0 0 1-15.1 25.2c-8.9 12.7-20.2 23.1-32.2 32.7a122.8 122.8 0 0 1-16.5 11.2l-22.2 12.9-7.9 4.3a3.6 3.6 0 0 0-2.1 3.7c.3 6.8.3 13.7.9 20.6 1.2 13.4 2.5 26.9 4.1 40.3 2.6 21.4 3.6 43 4.4 64.6a494.8 494.8 0 0 0 4.2 50.2c1.5 10.8 2.8 21.7 4.5 32.5.7 4.4 1.8 8.8 2.9 13.2s1.3 3.9 5.2 4.2a66.5 66.5 0 0 1 14.7 2.5 69.3 69.3 0 0 1 10.2 3.9 127.1 127.1 0 0 1 24.2 14.7c5.4 4.2 10.7 8.5 15.8 12.9a38.6 38.6 0 0 1 12.5 19.8 22 22 0 0 1 .4 10.8A40.1 40.1 0 0 1 381 785a25.1 25.1 0 0 1-8.9 9.4 68 68 0 0 1-20.2 8.6c-6.5 1.7-13 3.2-19.6 4.6-8.5 1.8-17.1 3.3-25.7 5.1a224.7 224.7 0 0 1-29.5 3.9 303 303 0 0 1-38.1 1c-18.9-.9-37.8-2.5-56.1-7.8a126.8 126.8 0 0 1-18.7-6.8 41.5 41.5 0 0 1-10.1-6.5 16.5 16.5 0 0 1-5.5-8.7c-.9-4 0-7.7 1.7-11.3a37.2 37.2 0 0 1 8.7-11 88.3 88.3 0 0 1 17.4-12.3c8.3-4.6 16.7-8.8 25.1-13.2l10.9-5.7c5.5-3 10.9-6.2 16.5-8.9 3.6-1.7 5-4.1 4.8-7.9s0-10.2 0-15.3zM105.2 50.4l-.3 1.7-5.4 47.4c-1.6 14.7-2.6 29.4-3.2 44.1-.3 7.7-.5 15.5-.7 23.3-.7 20.5 0 41 1.3 61.6 1 15.8 2.8 31.5 5.1 47.2a530.5 530.5 0 0 0 10.3 54.6c4.3 17.4 9.7 34.5 17.4 50.8 9.1 19.5 21.4 36.7 37.6 51a306.8 306.8 0 0 0 24.9 19.3c6.6 4.7 13.4 9.1 20.1 13.7a35 35 0 0 1 13.2 16.9c1.3 3.7 2.7 7.5 3.7 11.3 3.1 10.8 4.9 21.9 6.5 33 2.3 14.8 3.7 29.7 4.7 44.7.6 8.8 1.1 17.6 1.7 26.4.7 11.5 1.5 23 2.1 34.6s1 20.4 1.2 30.5c.4 18.5.6 36.9.8 55.4a26.9 26.9 0 0 1-.7 5.7 16.8 16.8 0 0 1-8.9 11.8l-17.6 9.8c-4.8 2.5-9.6 5.1-14.4 7.4-9.4 4.6-18.9 9-27.7 14.6a53.6 53.6 0 0 0-11.3 8.8 27.8 27.8 0 0 0-4.1 5.6c-1.3 2.3-1 3.8.9 5.7a19.6 19.6 0 0 0 3.2 2.5 67.6 67.6 0 0 0 7.1 3.6 117.6 117.6 0 0 0 27.1 7.6c9 1.5 18.1 2.6 27.2 3.3a267.7 267.7 0 0 0 26.9.7c9.3-.2 18.7-.9 28.1-1.6 5.4-.5 10.9-1.2 16.3-2.2 10-1.8 20-4 30-5.8a200 200 0 0 0 24-5.9 68.5 68.5 0 0 0 11.8-5 14.6 14.6 0 0 0 5.8-6 55.5 55.5 0 0 0 2.4-5.6 11 11 0 0 0-.1-7.6 27.8 27.8 0 0 0-8.7-12.4c-6.5-5.2-13-10.4-19.7-15.4-4-3-8.5-5.6-12.8-8.2a59.7 59.7 0 0 0-25.9-8.2c-7-.6-11.8-3.9-13.8-10.7-1.4-5-2.9-9.9-3.8-15-1.6-9.5-2.9-19-4.2-28.6s-2.6-20-3.4-30.1c-1.1-14.3-1.7-28.6-2.6-42.9-.6-10-1.2-20.1-2.2-30.2-1.2-12.1-2.7-24.1-4.2-36.1a443.5 443.5 0 0 1-3.1-44.5 15 15 0 0 1 6.2-13.1l2.4-1.7c8.2-5.1 16.3-10.5 24.7-15.3a141.9 141.9 0 0 0 22.9-16.3c10.1-8.7 19.3-18.2 26.5-29.5a238.5 238.5 0 0 0 21-41.2c6.7-17.3 10.3-35.4 13-53.6s3.9-34.9 4.8-52.4 1.2-32.7 1.4-49c.3-22.2.3-44.4.4-66.5 0-12.1-.5-24.1-1.3-36.2s-2-23.8-2-35.8c0-8.6 0-17.2 1.7-25.6.4-2.4.8-4.7 1.2-7.3l-2.3.6-9.3 2.8a581.6 581.6 0 0 1-91.5 16.6 455.8 455.8 0 0 1-54.8 2.3l-52.4-1.4c-14.9-.3-29.8-.7-44.6-2.5-10.2-1.2-20.3-2.9-29.7-7.3zm3.8-18a10.7 10.7 0 0 0 8.6 12.9 259.2 259.2 0 0 0 32.9 2.8c16.5.5 33.1.7 49.7 1.1l35.6.9a420.8 420.8 0 0 0 46.3-2.1c7.7-.7 15.5-1.5 23.1-2.5 9.6-1.4 19-3 28.5-4.6a408.8 408.8 0 0 0 43.7-9.2c4-1.2 8-2.4 12-3.8a13.4 13.4 0 0 0 6.4-4.6c1.5-2.1 1.5-3.2-.8-4.5a34.7 34.7 0 0 0-7.1-3.1c-7.5-2.3-15.2-3-23-3.4s-17.7-.5-26.6-.2c-15.8.5-31.7.9-47.5 2.1L265 16.4q-14.2 1.2-28.5 2.7c-9.9 1-19.7 1.9-29.5 3.1-12.1 1.5-24.2 2.6-36.4 3.1s-24.1.6-36.1 2a149.6 149.6 0 0 0-25.5 5.1z" fill="#379d8f"></path><path d="M130.6 177.9c7.6-.2 15 .8 22.5 2 12.3 1.9 24.7 3.7 37.2 4.8s26.2 2.2 39.3 2.2c7.1 0 14.2-.5 21.3-1.1 20.1-1.7 39.9-5.2 59.8-8.3 12.5-2 25.1-3.5 37.9-3.3a67.6 67.6 0 0 1 11.8 1.3c6.5 1.4 10.4 6.2 10.6 12.9a172.7 172.7 0 0 1-1.6 28.8c-2.3 15.2-4.7 30.4-7.1 45.6-3.2 20.3-6.9 40.6-11.9 60.6-2.6 10.2-4.6 20.6-7.6 30.6a171.8 171.8 0 0 1-30.5 57.8 72.8 72.8 0 0 1-16.7 15.1 104.7 104.7 0 0 1-27 13.4 66.5 66.5 0 0 1-46.1-2c-14.9-6.1-27.9-14.9-38.3-27.3-5.7-6.8-11.1-13.8-16.4-20.8a94.1 94.1 0 0 1-12.8-22.7c-5.2-12.9-10.9-25.5-15.4-38.5a553 553 0 0 1-19.6-69q-5.4-25.5-9.5-51.3c-1-6.4-1.6-12.8-.2-19.3a35.7 35.7 0 0 1 1-3.5c2.1-5 5.7-7.9 11.3-8z" fill="#ec1c23"></path><path d="M260.2 784.3c-5.5-.6-11-.9-16.4-1.9-10.2-1.7-19-6.5-27-12.9a19.9 19.9 0 0 1-3.4-3.7c-.7-.9-1.1-2.1-.1-3.1s1.9-.5 2.9-.1c6.4 2.5 12.8 5.1 19.2 7.4s14.5 3.2 22 3.3a152 152 0 0 0 35.6-3.5l13.1-2.4 1.2-.2c2.7-.1 4 .7 4.9 3.1a4.8 4.8 0 0 1-1.6 5.8 17.4 17.4 0 0 1-4.7 2.4 107.8 107.8 0 0 1-12.3 2.6c-9.9 1.1-19.8 1.9-29.7 2.8-1.2.1-2.5 0-3.7 0z" fill="#379d8f"></path><path d="M247.2 264.4l2.8-5.3c5.9-11.2 12.7-21.8 21.9-30.6a91.6 91.6 0 0 1 8.5-6.9 18.6 18.6 0 0 1 8.6-3.4 14.3 14.3 0 0 1 15.1 7.8 28 28 0 0 1 2.8 12.3c.3 9.6-1.7 18.9-4.4 28.1a313.2 313.2 0 0 1-16.3 41.9c-10.6 23.2-20.4 46.8-28.3 71.2a36.2 36.2 0 0 1-3.7 7.7c-3.3 5.6-9.1 6.4-13.7 1.7a20.4 20.4 0 0 1-4.2-6.3c-3-7.4-5.9-14.9-8.3-22.5s-4.7-13.4-7.4-19.9c-7.7-18-14.3-36.3-18.5-55.4-2.6-11.5-4.2-23.2-3.2-35.1.5-5 1.3-10 3.4-14.6a36 36 0 0 1 3.1-5.4c4.8-6.2 12.2-7.6 19-3.9a29.9 29.9 0 0 1 9.4 9c4 5.6 6.8 11.9 9.3 18.3 1.3 3.5 2.6 7 4.1 11.3z" fill="#f28d7c"></path></g></g></svg>