<svg xmlns="http://www.w3.org/2000/svg" width="348.8" height="851" viewBox="-0.004058627877384424 -0.006711006164550781 348.8354797363281 851.0081176757812" style=""><g><title>fol59_273512156</title><g fill="#dcc9b8" data-name="Layer 2"><path d="M84.9 533.7a3.1 3.1 0 0 1-2.6-1.5c-2.8-5.3-5.4-10-7.9-14.5-10.4-18.3-18.6-32.8-23.9-62-4.9-26.9-2.3-60.8-.3-85.5.7-8.7 1.3-16.1 1.4-21.7.7-24.9 2.1-28.3 3.9-30a4 4 0 0 1 4.4-1.4c2.4.9 4.4 3 6.5 21.6 1 9.6 4.6 25.9 8.5 43.2 4.9 21.6 10.4 46.2 11.7 62.3 2.3 27.1 3.6 59.7 3 71.3s-1.8 15.8-1.9 16a2.8 2.8 0 0 1-2.4 2.2zm-26.2-207c-.5 3.6-.9 10.2-1.3 21.9-.1 5.8-.7 13.3-1.4 22-1.9 24.5-4.6 57.9.2 84 5.2 28.3 12.7 41.7 23.2 60.3q1.9 3.3 3.9 6.9c.2-1.9.4-4.1.5-6.6.6-10.1-.5-40.9-3-70.5-1.3-15.7-6.7-40.1-11.6-61.5-3.9-17.5-7.5-33.9-8.6-43.9a118.2 118.2 0 0 0-1.9-12.6z"></path><path d="M121.2 437.2a3.1 3.1 0 0 1-2.4-1.3 3 3 0 0 1 .1-3.3 282.2 282.2 0 0 1 51.8-55.3c17.6-14.3 39.6-25.6 67-34.5 18.3-6 33.6-11.3 47.1-16.1l15.4-5.3 10.4-3.7c10.9-3.9 16.4-5.9 20.5-4.7a3.3 3.3 0 0 1 2.5 2.8c.3 3.1-2.3 4.8-19 13.8-7.3 4-15.7 8.6-20.1 11.8-2.8 2-8.7 6.7-16.1 12.7-20.1 16-53.7 42.8-73.5 54.1-29.2 16.8-80.8 28.5-83 29zm196.4-115.8l-5.1 1.8-10.4 3.7-15.3 5.3c-13.6 4.8-28.9 10.1-47.3 16.1-26.8 8.7-48.1 19.7-65.2 33.5a275.3 275.3 0 0 0-46 47.8c15.7-3.9 51.8-13.9 73.7-26.4 19.4-11.1 52.8-37.8 72.7-53.7 7.5-6 13.5-10.7 16.4-12.8 4.7-3.5 12.9-7.9 20.8-12.2z"></path><path d="M141.5 632.6a2.8 2.8 0 0 1-2.8-3.5c.8-3.8 1.3-7.9 1.9-12.3 2-15.4 4.5-34.6 20.4-65.8 20.3-40.1 39.1-63.2 58.1-85.2 7.4-8.6 12.3-14.5 15.7-18.6 6.1-7.5 7.5-9.2 10.4-9.2a3.1 3.1 0 0 1 2.5 1.3c1.7 2.5.8 5.9-15.4 47.1l-7.1 18.1c-3.3 8.4-5.9 16-8.5 23.2-7.2 20.2-12.8 36.1-25.7 54.8-17.4 25.1-46.5 48.5-47.7 49.5a3 3 0 0 1-1.8.6zm98.6-182.7a3.9 3.9 0 0 0-.8 1c-3.4 4.1-8.3 10.1-15.8 18.7-18.8 21.7-37.4 44.5-57.4 84-15.4 30.3-17.8 49-19.8 64l-.6 4.8c9.5-8.3 28.3-25.5 40.5-43.2s18-33.7 25-53.4c2.6-7.3 5.3-14.9 8.6-23.4l7.1-18.2c5.1-12.8 10.2-26 13.2-34.3z"></path><path d="M155.2 334.8a2.9 2.9 0 0 1-2.8-2c-11.6-36.1-17.7-68.7-10.2-110.5 8.3-45.7 24.6-84.5 26.4-88.8s3.5-7.1 6-7.4 3.3 1.4 3.9 2.1c3.3 3.4 2.8 77.9 2.2 92.4-1.1 31.5-21.8 108.7-22.7 112a2.9 2.9 0 0 1-2.7 2.2zM174.3 135l-.3.8c-1.8 4.3-17.9 42.5-26.1 87.6-6.6 36.8-2.3 66.4 7.1 97.9 5.7-22.3 19-76.6 19.9-100.9 1.1-27.3.3-72.2-.6-85.4z"></path><path d="M210.6 226.9a2.6 2.6 0 0 1-1.5-.4 2.8 2.8 0 0 1-1.3-3.1c1.5-6.6 2.6-12.9 3.8-19.5 3.3-19.1 7.2-40.6 21.9-76.9s36.2-67.3 51.5-89.4c4.7-6.8 8.8-12.7 11.9-17.6l3.8-6.1C309.6-.3 309.6-.3 312.8.1a3.9 3.9 0 0 1 2.7 1.3c1.6 2.1 1.4 3.5-9.5 38.5-5.4 17.1-12.7 40.6-20.5 67.6-13.7 47.2-35.9 82.1-50.8 97.7a244.7 244.7 0 0 1-22.3 21.1 2.8 2.8 0 0 1-1.8.6zM308.1 13l-2.5 4-3.8 6.1c-3.1 5-7.3 10.9-12 17.8-15.2 21.9-36 51.9-50.9 88.3s-18.3 56.9-21.6 75.7l-2.1 11.3c3.9-3.6 9.3-8.7 15.3-15 11.7-12.2 35.1-45.9 49.4-95.3 7.8-27.1 15.2-50.6 20.5-67.8 3-9.7 5.8-18.7 7.7-25.1z"></path><path d="M198.7 274.6a2.9 2.9 0 0 1-2.5-1.4 2.8 2.8 0 0 1 0-2.9l.8-1.5c5.9-10.5 18.2-32.6 37.9-49.9 14-12.4 28.6-20.4 45.4-29.7 8.1-4.4 16.5-9 25.9-14.7 15.9-9.5 25.1-15.8 30.6-19.5s7.7-5.3 9.9-4.6a3.2 3.2 0 0 1 2.1 2.3c1.3 6.4-38.2 42.2-38.6 42.5a257.7 257.7 0 0 0-20.8 21.5c-10.9 12-22.1 24.5-42.1 37.2-31.3 19.8-47.8 20.7-48.5 20.7zM334 163.8c-5.6 3.8-13.6 8.9-24.8 15.7-9.5 5.7-18.3 10.5-26.1 14.8-17.2 9.5-30.8 17-44.4 28.9-16.7 14.8-28.1 33.4-34.5 44.6 7.1-1.8 20.5-6.5 40-18.8s29.8-23.9 40.8-36.2a271.3 271.3 0 0 1 21.4-21.9c11.3-10.1 21-19.9 27.6-27.1z"></path><path d="M140.7 676.3c-9.9 0-17.4-.5-25.1-.9-5.4-.4-11.1-.7-17.9-.9a3 3 0 0 1-2.7-2.2 2.8 2.8 0 0 1 1.3-3.2c1.1-.7 5.6-2.3 18.9-7l12.9-4.6 4.9-1.8c11.6-4.3 23.6-8.7 35.6-12.7 24.9-8.1 37.9-8.6 55.8-9.2l11.1-.4c25.2-1.2 63.1 1.2 67.8 1.8s4 2.8 4.1 3.5c.2 4.8-10.9 8.1-15.7 9.3l-9.1 2.7c-21.6 6.5-72.3 21.6-108.1 24.2-14.4 1-25 1.4-33.8 1.4zm-28.5-7l3.8.3c14.9.9 27.9 1.7 58.1-.5 35.2-2.5 85.4-17.6 106.8-24l9.4-2.7a45.4 45.4 0 0 0 6.2-2c-12.7-.8-40.7-2.2-60.7-1.2l-11.2.4c-18.1.6-30.1 1.1-54.2 9-11.9 3.8-23.9 8.3-35.4 12.6l-4.9 1.8-13 4.6zm16.9-9.1z"></path><path d="M189.6 287.5a3.5 3.5 0 0 1-1.4-.3 2.9 2.9 0 0 1-1.4-3.5c.7-2.1 17.2-52 23.2-62.9a2.9 2.9 0 0 1 5.1 2.9c-3.6 6.5-11.7 29.2-17.2 45.2a3.2 3.2 0 0 1 2.5.4 3 3 0 0 1 .7 4.1l-9.2 12.9a2.7 2.7 0 0 1-2.3 1.2z"></path><path d="M157.8 363.4h-.5a2.8 2.8 0 0 1-2.4-2.7l-1.2-32.7a2.8 2.8 0 0 1 2.8-3 2.9 2.9 0 0 1 3 2.8l.7 19.3c4.9-11.9 12.3-30.1 16.7-42.8 7.4-21.5 27.9-75.9 31.4-85.1a2.9 2.9 0 0 1 5.4 2.1c-3.4 9.1-23.9 63.5-31.3 84.9s-21.8 55-21.9 55.4a3 3 0 0 1-2.7 1.8z"></path><path d="M147.5 404.8h-.8a3 3 0 0 1-2.1-3.6c2.8-10.9 7.3-28.9 7.5-30.6s-.7-16.6-1.3-28.2l-.7-16.3a2.9 2.9 0 0 1 5.8-.2l.7 16.2c.8 16.9 1.3 28 1.3 28.8s0 1.5-7.6 31.8a3 3 0 0 1-2.8 2.1z"></path><path d="M156.2 397.3l-5.6-1.4s4-16.3 5.5-23 16.8-49.6 21.6-61.9c1.2-3 2.1-5.5 2.9-7.9 2.7-7.5 4.6-12.9 10.5-21.4 7.2-10.2 10.1-12.3 11.1-12.8a3 3 0 0 1 3.9 1.3 3 3 0 0 1-1.2 3.8c-.2.2-2.7 2.1-9 11.1s-7.2 12.6-9.8 20c-.9 2.3-1.8 5-3 8-4.6 11.9-19.8 54.6-21.3 61.1s-5.6 23.1-5.6 23.1z"></path><path d="M103 593.3a2.8 2.8 0 0 1-2.8-2.2c-.1-.4-8.8-35.8-12.3-46.3a142.5 142.5 0 0 1-4.1-16.5 16.4 16.4 0 0 0-.3-1.8 3.3 3.3 0 0 1-.4-2.6 3.2 3.2 0 0 1 3.1-2c2.4.1 2.7 2 3.3 5.3a130.2 130.2 0 0 0 3.9 15.8c2.3 6.9 6.6 23.6 9.5 35 3.5-15 9.4-40 10.7-46.2 2-9 4.8-42 5.1-48.8s.8-35.5-.7-48.3a2.9 2.9 0 1 1 5.7-.7c1.6 13.2 1.3 41.8.8 49.3s-3.1 40.2-5.2 49.7-13.4 57.6-13.5 58.1a2.9 2.9 0 0 1-2.8 2.2z"></path><path d="M126 482.5h-.2a2.9 2.9 0 0 1-2.7-2.7c-.5-6.9-3.1-41.5-2.3-45.7a2.9 2.9 0 0 1 5.7 1.2c-.3 1.8.2 13.1 1.1 26.3 3.3-12.9 7.4-28.9 8.1-31.8a2.9 2.9 0 0 1 3.5-2.2 3 3 0 0 1 2.2 3.5c-1.2 5.1-12.1 47.4-12.6 49.2a2.9 2.9 0 0 1-2.8 2.2z"></path><path d="M9.7 851H2.9a2.7 2.7 0 0 1-2.1-.9 3 3 0 0 1-.8-2.2 329 329 0 0 1 15.2-73c10-29.3 39.5-84.5 55.4-114.2 4.5-8.5 8.1-15.1 9.9-18.8 8-15.9 14-33.7 14.8-43.4.6-7.1-2-18.3-4.4-29.2-.8-3.4-1.6-6.9-2.3-10.1-1.6-7.1-6.4-26.7-9.2-31.3a2.9 2.9 0 0 1 1-3.9 2.8 2.8 0 0 1 4 1c3.7 6.1 9.3 30.2 9.9 33s1.4 6.6 2.2 10c2.6 11.3 5.3 23 4.6 31-.8 10.5-7 28.8-15.4 45.5-1.8 3.7-5.4 10.4-10 19-15.8 29.5-45.1 84.4-55 113.3-2.6 7.8-4.8 15.4-6.6 22.7.7-2.6 1.5-5.4 2.3-8.2 9.9-32.8 38.7-86.8 43.8-93.5s18-16.2 27.1-21.4a110.9 110.9 0 0 1 15.4-7.4 2.9 2.9 0 0 1 2 5.4 115.2 115.2 0 0 0-14.6 7.1c-8.8 5-20.4 13.4-25.3 19.9S31.4 761.4 22 793s-9.4 54.9-9.4 55.1a2.9 2.9 0 0 1-2.9 2.9zm-3.6-5.8h.7a202.7 202.7 0 0 1 2.4-22.5c-1.8 10.3-2.7 18.4-3.1 22.5z"></path><path d="M71.6 686.2a2.7 2.7 0 0 1-2.1-.9 3 3 0 0 1-.4-3.5c.2-.3 15.1-24.4 27.6-59.4 13.9-39.1 22.7-86.5 27.6-119.4s17.9-74.8 18-75.2a2.9 2.9 0 0 1 3.6-1.9 2.8 2.8 0 0 1 1.9 3.6c-.1.4-12.7 41.3-17.7 74.4s-13.9 80.9-28 120.4a356.9 356.9 0 0 1-23.2 52.1c8.7-4.9 32.8-20.9 38.1-25.5s20.5-20.9 22.6-28.5a2.9 2.9 0 0 1 3.6-2.1 3 3 0 0 1 2 3.6c-2.6 9.6-18.3 26.1-24.4 31.4s-33.1 23.2-40.7 27l-7.2 3.6a3.1 3.1 0 0 1-1.3.3z"></path><path d="M113.2 668.7h-.1l-6.3-.3a2.7 2.7 0 0 1-2.7-2.6 3 3 0 0 1 1.8-3c.4-.2 3.1-1.7 13.5-10.2 7.9-6.4 11.5-11.2 16-17.3 2.6-3.4 5.5-7.3 9.6-11.9a2.9 2.9 0 0 1 4.3 3.9c-3.9 4.4-6.6 8-9.2 11.5-4.6 6.1-8.6 11.4-17 18.3-3.4 2.8-6.1 4.9-8.1 6.4a3 3 0 0 1-1.8 5.3z"></path></g></g></svg>