<svg xmlns="http://www.w3.org/2000/svg" width="527.7" height="817.8" viewBox="-0.03439765423536301 -0.003240032587200403 527.72119140625 817.8031616210938" style=""><g><title>love101_338900530</title><g data-name="Layer 2"><path d="M183 32.6l3.6-4 1.1-1.2 2.1-2.2a11.2 11.2 0 0 0 1.8 2 9.1 9.1 0 0 0 2.1 1.8l2.3 1.7a28.2 28.2 0 0 1 3.1 2.1l.9 1.2 1.1 1.3.4.6a3 3 0 0 1 .4 1v.3c0 .2-.1.5-.1.7-.7 2.7-1.5 5.3-2.3 7.9s-1.4 4.1-2 6.2a.8.8 0 0 0-.1.4c-.4 1.2-.6 2.3-.9 3.5a36.1 36.1 0 0 0-2.2 4.4 23.5 23.5 0 0 0-1.7 5.1 24.9 24.9 0 0 0-.4 4.7 36.8 36.8 0 0 0 .6 6.6l.9 3.7a38.6 38.6 0 0 0 3 8c.6 1 1.2 2.1 1.9 3.1l.3.5a22.2 22.2 0 0 0 2.8 3.3 27.1 27.1 0 0 0 5.4 4.2 41 41 0 0 1 4.8 3.7l-.4.7a3.9 3.9 0 0 1-.8 1l-1.3.9-.9.4a49.1 49.1 0 0 0-5.1 1.5l-2.1.8-.4.2-1.5.8a14.9 14.9 0 0 0-3.5 2.7 5.8 5.8 0 0 0-1 1.2 8.7 8.7 0 0 0-1 1.9 5.4 5.4 0 0 0-.5 2.2 6.1 6.1 0 0 0-.1 1.4c0 .3.1.6.1.9a3.1 3.1 0 0 1 .2.8 7.9 7.9 0 0 0 4.5 5.1 16.5 16.5 0 0 0 7.3.9 44.5 44.5 0 0 0 8.1-1.5l3.9-1.1h1.6l2.1.4h.3l1.4 1.2a22 22 0 0 1 2.1 3.2c2.3 4.6 3.3 9.6 5.2 14.3a24.4 24.4 0 0 0 1.4 2.8 31.7 31.7 0 0 0 3.6 5.4c1.9 2.2 3.9 4.3 5.9 6.4l.9 1 2.2 3.8a21 21 0 0 1 1.3 2.6c.4 1 .8 2 1.1 3s1.4 4.8 2 7.2 1.5 7.6 2.4 11.4c.5 1.9 1 3.8 1.6 5.7l1.3 3.3a14.6 14.6 0 0 1 .7 1.9c1.2 3.3 2.3 6.6 3.6 9.8l.8 1.7c.5 1.1 1.1 2.3 1.7 3.4a14.8 14.8 0 0 0 3.5 4.4 2.4 2.4 0 0 0 2.9.1 2.1 2.1 0 0 0 .9-1.5c0-.2.1-.4.1-.6a3.1 3.1 0 0 0-.5-1.2 32.6 32.6 0 0 0-2.2-3.4l-1.9-3.2c-.6-1.2-1.1-2.3-1.6-3.5s-2.1-4.8-3.2-7.3l-2.1-5.1-.3-.8c-.7-2.1-1.4-4.2-2-6.4s-2-7.1-3.1-10.6c1.3 2.7 2.6 5.4 4 8.1s2.1 4.3 3.2 6.4a13 13 0 0 0 .8 1.7c.9 1.7 1.8 3.4 2.8 5.1l1 1.6.6 1.9.3.8.9 2.2a44.3 44.3 0 0 0 3.5 6.1 21.2 21.2 0 0 0 4.6 4.8 11.1 11.1 0 0 0 2.9 1.4 8.8 8.8 0 0 0 2.4.3h.4a6.7 6.7 0 0 0 3-.8 13.8 13.8 0 0 0 3.1-2.2 15.4 15.4 0 0 0 2.9-3.5 10.5 10.5 0 0 0 1.5-4.3 21.7 21.7 0 0 0-.9-7.6l-.3-1.4a14.7 14.7 0 0 1-.5-2.6 13.1 13.1 0 0 1 0-2.8c0-1.4.2-2.9.3-4.2a15.3 15.3 0 0 0 .3-3 25.4 25.4 0 0 0-.4-8.4 3.1 3.1 0 0 0-.2-.8 22.6 22.6 0 0 1 2.6 3.7 11.7 11.7 0 0 1 1 2.6 20.4 20.4 0 0 1 .3 3.4 31.1 31.1 0 0 1-.7 4.4 10.5 10.5 0 0 0-.5 1.9 8.6 8.6 0 0 0-.2 2.3 12.6 12.6 0 0 0 .4 2.7 12.9 12.9 0 0 0 .8 2.6 42.3 42.3 0 0 0 2.2 4.2 19.9 19.9 0 0 1 1.3 3.4c.1.3.1.6.2.9a1.8 1.8 0 0 0 .8 1.5 2.3 2.3 0 0 0 1.6.6 3.1 3.1 0 0 0 1.5-.8 2.4 2.4 0 0 0 .5-1.6 13.1 13.1 0 0 0-1.2-4.8c-.6-1.4-1.4-2.7-2.1-4s-.5-1-.7-1.6a6 6 0 0 1-.6-1.9 9.9 9.9 0 0 1-.2-1.7 15.9 15.9 0 0 1 .8-3.3 25.4 25.4 0 0 0 .9-5.4 15.5 15.5 0 0 0-.1-2.2 15 15 0 0 0-.4-2.4 22.7 22.7 0 0 0-1.6-3.9 29.3 29.3 0 0 0-4.1-5.2h1a19.9 19.9 0 0 1 3.4.5l.7.3 1.1 1a17.7 17.7 0 0 1 1.7 2.4 19.8 19.8 0 0 1 1.4 4.1c.8 3.9.9 7.8 1.5 11.6a31.5 31.5 0 0 0 1.6 6.9 21.1 21.1 0 0 0 1.6 3.4 12.7 12.7 0 0 0 1.8 2.7 3.8 3.8 0 0 0 4.6 1.4 3.4 3.4 0 0 0 2.2-2l.3-1a3.8 3.8 0 0 0-.2-2.1 40.1 40.1 0 0 1-3.1-8.8l-2.1-9.9a37.3 37.3 0 0 0-1.4-4.4 21.6 21.6 0 0 0-2.4-4.8 17.2 17.2 0 0 0-3.1-4l-1.7-1.4-1.2-.8a10.4 10.4 0 0 0-1.6-.6 12 12 0 0 0-3.8-.5 18.7 18.7 0 0 1-3.2-.4h-.3c0-.1 0-.1-.1-.1h-.1c0-.2-.1-.4-.1-.6 0-.2.2-.4.3-.6a25.9 25.9 0 0 1 3.1-3.5l3.9-3.8 1.4-1.5a17.8 17.8 0 0 0 1.7-3 32.4 32.4 0 0 0 2.8-7.3 17.3 17.3 0 0 0 .3-3.2 10.5 10.5 0 0 0-.1-2.5 24.6 24.6 0 0 0-.7-2.9c-.4-1-.9-1.8-1.3-2.7a26.6 26.6 0 0 0-2.8-3.8c-1.3-1.4-2.6-2.7-3.8-4.1l-2.1-2.3c-.9-1.1-1.7-2.1-2.6-3a10.7 10.7 0 0 0-2.2-1.5h-.2a8.6 8.6 0 0 1 .1-1.6 7.6 7.6 0 0 1 .1-1.5 2.9 2.9 0 0 1 .2-.9 22.7 22.7 0 0 1 2.1-4.1c1.3-2.1 2.8-4 4.1-6.1s1.3-2 1.9-3 1.1-2.7 1.6-4.1a43.4 43.4 0 0 0 2-9.5 51.3 51.3 0 0 0-.1-9.6 48.7 48.7 0 0 0-2.2-9.5 49.3 49.3 0 0 0-4-9.1 28 28 0 0 0-5.4-6.9 58 58 0 0 0-6.2-4.9 66.2 66.2 0 0 1-9.2-7.4l-1.7-2.1c-.2-1-.4-1.9-.7-2.9s-1.1-4.8-1.8-7.1h-.2l-2.1.7-4.7 1.1a91 91 0 0 1-9.1 1.6c-5.9.7-11.9 1.4-17.7 2.6l-4.8 1.4a2 2 0 0 1-2.5-1.1 2.5 2.5 0 0 1-.1-1.2 1.1 1.1 0 0 1-.3-.6 2.3 2.3 0 0 1 0-1.8 2.1 2.1 0 0 1 1.4-1.2l5.2-1.6 4.7-1.6 10-3.3c3.3-1.1 6.6-2.3 9.9-3.2a49.9 49.9 0 0 1 5.3-1.1h1.3a24.6 24.6 0 0 0-2.8-4.1 26 26 0 0 0-5.2-4.8 30.3 30.3 0 0 0-7.2-3.6c-1.3-.4-2.3-.8-3.3-1l-2.6-.5-2.8-.2-.7-.3A35.4 35.4 0 0 0 231 0h-.9a42.2 42.2 0 0 0-4.9.4h-.2l-4.5.2a100.9 100.9 0 0 0-10.9 1.2 52.6 52.6 0 0 0-10.3 2.9l-2.4.6a23 23 0 0 0-7.5 4.2 30.8 30.8 0 0 0-6.1 6.9 39.5 39.5 0 0 0-4.4 8.7 29.1 29.1 0 0 0-1.5 5.8 40.7 40.7 0 0 0-.6 6 15.5 15.5 0 0 0 .1 2.2l1.9-2.7a13.8 13.8 0 0 1 4.2-3.8zm97.2 24.8a44.5 44.5 0 0 1 3.3 5.1 27.5 27.5 0 0 1 1.5 3.6 22.3 22.3 0 0 1 1.3 4.4 52.5 52.5 0 0 1 1.1 13.7c-.1 1.6-.3 3.3-.5 5a30.6 30.6 0 0 1-1 5.1c-.2.4-.3.9-.5 1.3.1-1.6.1-3.3.1-4.9a73.9 73.9 0 0 0-.4-9.3 92 92 0 0 0-3.9-17.7c-1-2.8-2.1-5.6-3.4-8.6l-1.2-2.3zm3.4 73.4a31.8 31.8 0 0 0-1-3.3 30 30 0 0 1 2.5 3.7 14 14 0 0 1 1.3 3.4 15.3 15.3 0 0 1 .3 3 14.5 14.5 0 0 1-.6 3 28.4 28.4 0 0 1-2.3 5 25.6 25.6 0 0 1 .5-2.7 40.1 40.1 0 0 0 .4-4.2 37.6 37.6 0 0 0-1.1-7.9zM199.3 24.9zm-4.8 42.6a26.3 26.3 0 0 1 1-5.6l.3-.6a29.5 29.5 0 0 0-.1 4.2 54.3 54.3 0 0 0 .9 6.9c.2 1 .3 1.9.5 2.8a59.9 59.9 0 0 0 2.7 11.1 22.5 22.5 0 0 1-1.2-2.1 33.3 33.3 0 0 1-3.3-8.6c0-.1-.1-.2-.1-.3a34.3 34.3 0 0 1-.7-7.8zm92.6 56.5c.9 1.2 1.9 2.3 2.9 3.4a41.8 41.8 0 0 1 4.5 5.7 20.9 20.9 0 0 1 .8 2.3 9.3 9.3 0 0 1 .2 2.3 13.5 13.5 0 0 1-.7 3.6 16.9 16.9 0 0 1-1.1 2.7 14.7 14.7 0 0 1-1.4 2.8 22 22 0 0 1-2 2.3c-1 1.1-2.1 2.1-3.2 3.1s-2 2.1-2.9 3.2l-.5.7.3-1.5a62.8 62.8 0 0 1 4.3-8.1 20.6 20.6 0 0 0 2.1-4.8 17.7 17.7 0 0 0 .8-5.6 29.3 29.3 0 0 0-.5-2.9 14.2 14.2 0 0 0-.7-2.2 21.8 21.8 0 0 0-2.2-4.3c-1.6-2.4-3.5-4.4-4.8-6.9-.1-.1-.1-.1-.1-.2l1 .5a1.7 1.7 0 0 1 .6.6l1.1 1.3zm-12.2-79.4c2.7 2.7 5.7 5 8.3 7.8a25.8 25.8 0 0 1 4.1 5.7 53.5 53.5 0 0 1 4.5 12.1 46.4 46.4 0 0 1 1 11.1 41.9 41.9 0 0 1-1.8 10.1c-.2.5-.3.9-.5 1.3a4.3 4.3 0 0 0 .2-1.1 50.7 50.7 0 0 0 .7-8.6 51.4 51.4 0 0 0-2.4-17 29.2 29.2 0 0 0-3.3-6.9 48 48 0 0 0-4.5-5.6l-4.2-4.3-2.5-2.9-2.2-3-.7-.9-.6-2a38.8 38.8 0 0 0 3.9 4.2zm-49.1 6.9a6.4 6.4 0 0 1-.2 4.3 8.6 8.6 0 0 1-.1 1.6l-.5 1.7a22.9 22.9 0 0 1-.9 2.8 9.6 9.6 0 0 1-2.6 3.7 5.1 5.1 0 0 1-2.4 1 .1.1 0 0 0-.1.1 3.9 3.9 0 0 1-1.4.5 2.6 2.6 0 0 1-1.7-.3h-.2a2.9 2.9 0 0 1-1.6-1.1 5.2 5.2 0 0 1-.8-3 5.9 5.9 0 0 1-.2-1.4 17 17 0 0 1 .1-3.9c0-.3.1-.6.1-.9a1.4 1.4 0 0 1 .2-.6 9.7 9.7 0 0 1 .8-2.2 10 10 0 0 1 2.5-3.3l1.8-1.1h.4a4.6 4.6 0 0 1 2.4-1.2h.4a3.3 3.3 0 0 1 2.3.9 6.5 6.5 0 0 1 1.7 2.4zm-37.5-35.9a.8.8 0 0 0-.1.4l-.4.5-.6.9z" fill="#fff"></path><path d="M201.1 794.6h3.7l8 .2a50.7 50.7 0 0 1 5.5.3c5.5.3 11.2.6 16.8.6l6.3-.2c-10.4-4.2-20.5-8.6-30.4-13.6a237.4 237.4 0 0 1-20.8-12c-4-2.6-7.4-5-10.4-7.3l-4.7-3.7c-1.2-.9-2.7-2.2-4.3-3.3a38.8 38.8 0 0 0-5-2.5l-1.3-.5-.6-.2-.7.3a6.1 6.1 0 0 1-1.7.7l-1.7.4h-2.6l-1.7-.5a7.7 7.7 0 0 1-2.4-1.6h-.2l-.7.2q.9 2.3 1.8 5.1l.3 1 .9 2.8c.4.8.7 1.6 1.2 2.5a71.3 71.3 0 0 0 8.1 11.5l1.8 2.2 3.1 3.8c1.4 1.9 2.8 3.5 3.9 5.3a15.3 15.3 0 0 1 2.6 6.2c7.3 2.2 14.9 2.3 21.6 2.3z" fill="#717688"></path><path d="M497.9 750.4l-.2-.5c0 .1 0 .1-.1.2z" fill="#717688"></path><path d="M482.1 743.7z" fill="#717688"></path><path d="M418.4 799h-3.3a4.8 4.8 0 0 1-1.8-.3 7.6 7.6 0 0 1-3-1.4 5.8 5.8 0 0 1-1.8-2.3 5.3 5.3 0 0 1-.5-2v-.3a3.7 3.7 0 0 1 .1-1.1l.3-1.2v-.4a5.5 5.5 0 0 1 .8-1.5 17 17 0 0 1 1.5-2.2c1.1-1.3 2.2-2.4 3.2-3.4 6.1-5.6 12.9-10.3 19.6-14.9l.3-.2 5.5-3.9 5-3.5h.2l1.6-.9c3.5-2.1 7-4.1 10.3-6.5 1.5-1.1 3-2.2 4.5-3.5l2.6-1.9a22.8 22.8 0 0 0 5.7-5.9 5.2 5.2 0 0 0 .6-1.6 5.7 5.7 0 0 0 .3-1.8 5.2 5.2 0 0 0-1.2-3.1 4.8 4.8 0 0 0-2.4-1.8 5.2 5.2 0 0 0-2.1-.4h-1a16.7 16.7 0 0 0-6.7 2.9 55.7 55.7 0 0 0-6.8 5.2c-2.2 2-4.3 4.1-6.4 6.2l-4.4 4.6c-2.1 2.3-4.4 4.3-6.7 6.4s-6.7 6.1-10.1 9l-10.1 8.9c-3.4 3.1-6.8 6.2-10.1 9.5-1.6 1.6-3.1 3.2-4.6 4.9h-.1a113.5 113.5 0 0 1-12.4 8.1 142.2 142.2 0 0 1-13.3 6.9l2-.4a20.9 20.9 0 0 0 3.9.7h3.5a26.9 26.9 0 0 0 4.9.3 53.9 53.9 0 0 0 8-.6c3.2-.5 6.4-1.2 9.6-2s6.7-1.7 10-2.7l7.1-2.3zm24-45.3h-.2a.2.2 0 0 0 .2 0z" fill="#717688"></path><path d="M81.5 113.6a11.8 11.8 0 0 1 3.1.8 22.2 22.2 0 0 1 5.9 3.3 87.3 87.3 0 0 1 7.3 6.1l4.3 3.8a132.1 132.1 0 0 0 13.1 9.9 55.7 55.7 0 0 0 12.3 6h.1l4 1.2a13.8 13.8 0 0 0 2.6.4h1.1l.8-.3.9-.7a14.3 14.3 0 0 0 2-2.3l2.8-2.2a65.5 65.5 0 0 0 7.4-7.5c1.2-1.3 2.4-2.6 3.5-4l3.1-4.1a21.9 21.9 0 0 0 2.6-4.1 18 18 0 0 0 .8-2.1 2.2 2.2 0 0 0-.4-1.7v-.2c.1 0 .1-.1.1-.2l.8.7c-.2-.9-.5-1.9-.8-2.9a47.8 47.8 0 0 0-4.7-9.8 42.9 42.9 0 0 0-4-5.5l-.6.5a18.5 18.5 0 0 0-1.4 1.4l-1.4 1.6c-.8.9-1.5 2-2.3 3.1a78.4 78.4 0 0 0-5.1 10c-.5.9-.9 1.9-1.4 3s-2.3 3.2-3.4 4.9l-1.8 2.7a.1.1 0 0 1-.1-.1h-.1a22.5 22.5 0 0 1-3-2.4 8 8 0 0 1-1.3-1.3 2.1 2.1 0 0 1-.4-.6h-.1l-.3-.5h-.1l-.3-.5c-2.8-2.4-5.7-4.7-8.7-7l-.2-.2a102.8 102.8 0 0 0-9.3-6.5l-2-1.2-1-.8-2.6-1-2.5-1.3-2.4-1.7-2.2-2.2a16.4 16.4 0 0 1-1.4-2.2l-.3-.5-.4-.2a7.5 7.5 0 0 0-.7-1.2l-.3-.8-1 1-.6.7-1.8 1.1a22 22 0 0 0-2.7 2l-1.2 1.7-.2.3-.7 1.3a5.3 5.3 0 0 0-.4 2.5 54.4 54.4 0 0 0-5.2 9.6h.4z" fill="#fff"></path><path d="M178.7 272.6a6.7 6.7 0 0 1-.6-1.2v-.3a4.1 4.1 0 0 1-.3-1.6v-.5H175a54.4 54.4 0 0 1-5.7-.3 37.7 37.7 0 0 1-7-1.4 29.9 29.9 0 0 1-3.8-1.5 33.7 33.7 0 0 1-3.2-1.9 25.9 25.9 0 0 1-2.3-1.9 14.1 14.1 0 0 0-.5 2.7 12.3 12.3 0 0 0 .2 2 4.4 4.4 0 0 0 .6 1.6l.9 1.4 1.7 1.3a21.6 21.6 0 0 0 3.4 1.6 37.9 37.9 0 0 0 9.2 1.4h3a75.1 75.1 0 0 0 8-.4 2.4 2.4 0 0 1-.6-.8z" fill="#fff"></path><path d="M58 337h3.1c3.1 0 6.2.2 9.3.5l17.2 1.8h2.1a63.9 63.9 0 0 0 9.9-1.6l3.2-.7 8.8-2h.9l-5.8-.5-1.8-.2c-2.5-.3-5.1-.6-7.6-.7h-2.5l-7.4.3h-.6l-4.5.2-10.4.4h-5.4c-3.3 0-6.4-.1-9.5-.3h-.5c-5.4-.4-11-.7-16.2-2.5l-1.9-.8c-.1 1.5-.1 3.1-.1 4.6a47.1 47.1 0 0 0 .3 5.3c.1.7.3 1.5.4 2.2a25.2 25.2 0 0 1 7.7-3.8A48.6 48.6 0 0 1 58 337z" fill="#0d5044"></path><path d="M169.4 780.8l-3.1-3.8-1.8-2.2a71.3 71.3 0 0 1-8.1-11.5c-.5-.9-.8-1.7-1.2-2.5l-.9-2.8-.3-1q-.9-2.8-1.8-5.1l-3.1.5a18.4 18.4 0 0 1-3.3.3h-1.6a43.6 43.6 0 0 0-5.1.3l-3.1.7-2.7.6-7.9 1.7a68.3 68.3 0 0 1-10.9 1.6h-2.2a14.8 14.8 0 0 1-6.2-1.1h.1v1.9a27.7 27.7 0 0 0 .9 4.3c.5 3.3 1.1 6.2 1.7 8.9a48.1 48.1 0 0 0 2.9 8.6 21.6 21.6 0 0 0 4.7 6.8 18.6 18.6 0 0 0 3.2 2.3 28.5 28.5 0 0 0 3.9 1.9c6.3 2.5 13.1 3.6 19.6 4.6l6.4.8 2.9.4 3.8.5 1.8.3 3.2.5 4.9.4h.8a11.8 11.8 0 0 0 2.7-.2 7.4 7.4 0 0 0 5.2-2.5 5 5 0 0 0 1.1-4 15.3 15.3 0 0 0-2.6-6.2c-1.1-1.5-2.5-3.1-3.9-5z" fill="#0d5044"></path><path d="M114.5 757.7a68.3 68.3 0 0 0 10.9-1.6l7.9-1.7 2.7-.6 3.1-.7a43.6 43.6 0 0 1 5.1-.3h1.6a18.4 18.4 0 0 0 3.3-.3l3.1-.5.7-.2h.2l-.4-.3a13.1 13.1 0 0 1-2.3-3.1c-.6-1.2-1.2-2.3-1.7-3.4l-1.8-4.8-.2-.5-.4-1.1c-.7-1.8-1.5-3.5-2.2-5.1s-.9-1.8-1.3-2.7c-1.5-3.4-2.7-6.4-3.8-9.2-2.5-6.4-4.6-12.8-6.5-18.9-6.7-22.7-11.2-47.7-14.6-81-1.2-12.2-2.3-24.7-3.3-36.7v-.4l-.2-2.4c-.3-3.6-.7-7.3-1-10.9-1.5-17.5-3.1-35.7-4.2-53.7-1.3-21-1.8-38.2-1.7-54.1a444.8 444.8 0 0 1 3.6-53.5c.6-4.1 1.2-8.3 1.8-12v-.5c.4-2.9.9-6 1.3-9s1.3-9.3 1.8-13.2l.9-6.3.4-3.2c.8-5.4 1.6-11.4 2.5-17.3 1.2-7.8 2.4-14.6 3.7-20.8l.9-4.4a255.8 255.8 0 0 1-26.3.8c-5-.1-10-.3-14.9-.6l-7.4-.6-6.7-.7c-4.2-.6-8.5-1.1-12.7-2.1l-5.2-1.4a42.8 42.8 0 0 1-4.6-1.7 34.1 34.1 0 0 1-7.8-4.6l-5-4.1a3.5 3.5 0 0 1-1.4.6 4.9 4.9 0 0 1-2.4.4h-1l-.8-.3.3.6c.1 2.5.3 4.5.5 6.4a26.7 26.7 0 0 0 2 7 16.3 16.3 0 0 0 3.9 5.4 12 12 0 0 0 2.7 1.9l.8.4 1.9.8c5.2 1.8 10.8 2.1 16.2 2.5h.5c3.1.2 6.2.3 9.5.3h5.4l10.4-.4 4.5-.2h.6l7.4-.3h2.5c2.5.1 5.1.4 7.6.7l1.8.2 5.8.5h-.9l-8.8 2-3.2.7a63.9 63.9 0 0 1-9.9 1.6h-2.1l-17.2-1.8c-3.1-.3-6.2-.5-9.3-.5H58a48.6 48.6 0 0 0-11.3 1.9 25.2 25.2 0 0 0-7.7 3.8l-.4.3a19.3 19.3 0 0 0-3.1 3.3 13.4 13.4 0 0 0-3.1 3.6 14.4 14.4 0 0 0-1.9 9.7 15.9 15.9 0 0 0 .7 3.8c-.1.7-.1 1.4-.2 2.1-.1 2.8-.3 5-.3 7-.2 6.5-.2 12.6 0 18.6.4 11.5 1.5 23.8 3.5 39.9 1.8 13.6 4 27.1 6.1 39.7l.7 4c2.9 17.1 5.8 34.7 7.9 52.2.6 4.8 1.3 9 2.1 13s1.8 7.7 2.9 11.8 2.2 6.9 3.6 11c.3 1 .7 1.9 1 2.8 1 2.8 2 5.7 2.8 8.7a35 35 0 0 1 .5 5.4c-.2 2.2-.6 4.3-1 6.5l-.6 2.9a83.3 83.3 0 0 0-1.1 15.4c0 11.5 2.7 22.8 4.7 30.3 2.3 9 5.4 18 8.4 26.7l1 2.8c1.4 4.1 3.1 9.1 4.6 14 .7 2.3 1.5 4.9 2.2 7.7 1 4.3 1.8 8.8 2.6 13.1.4 2.3.8 4.5 1.3 6.8 1.4 7.3 3.2 15.9 5.6 24.2a94.1 94.1 0 0 0 3.8 10.7 48.2 48.2 0 0 0 4.9 9.1 28.3 28.3 0 0 0 3 3.5 23.3 23.3 0 0 0 3.6 2.8l1.3.6a14.8 14.8 0 0 0 6.2 1.1zm-75.6-386zM109.2 752c0-.1 0-.2-.1-.2a6.4 6.4 0 0 1-.3-2c-.8-4.5-1.4-9.1-2.1-13.6l-1.8-13.6c-1.1-9.1-2.2-18.2-3.4-27.3-1.7-12.7-3.8-25.2-5.6-37.8s-3.7-25.2-5.3-37.9c-.8-6.3-1.5-12.6-2.2-19-.2-2.3-.5-4.7-.6-7.1s-.1-3.4-.2-5c0-8.8.6-17.5 1-26.2.3-6.3.5-12.5.4-18.8a85.1 85.1 0 0 0-1.6-16.7 28.5 28.5 0 0 0-2.2-6.4 9.1 9.1 0 0 0-1.1-1.6l-.6-.5-.3-.2h-.6l-2 .2a13.4 13.4 0 0 1-2.8.1h-2.4l-2.2-.6-1.3-.7a10.4 10.4 0 0 1-3.6-3.2 9.5 9.5 0 0 1-1-1.7 10.2 10.2 0 0 1-.9-2.2 26.6 26.6 0 0 1-.7-3.7c-.1-1.1-.2-2.2-.2-3.3a104.9 104.9 0 0 1 1.1-16l.9-7c.2-1.7.4-3.3.5-5s.1-4 .2-6.1.2-5.2.4-7.8c.2-4.9.5-9.8.8-14.7.6-9.7 1.3-19.4 1.7-29.1.1-1.1.1-2.3.2-3.4.4-8.7.6-17.3.7-26s-.1-17.1-.8-25.6a1.7 1.7 0 0 1 1.5-1.8h.2a1.6 1.6 0 0 1 1.6 1.5c.2 2.4.4 4.8.7 7.2.5 6.1.9 12.2 1.3 18.3s.7 12.3.9 18.5.3 12.4.4 18.6.1 12.3.1 18.5 0 12.3-.1 18.4c0 3.2-.1 6.3-.1 9.5s-.1 4.4-.2 6.5-.8 6.6-1.2 9.9-.9 7.4-1.1 11.1a35.5 35.5 0 0 0 .4 8c.2.4.3.9.5 1.3l.2.3.3.3h.8c1 0 2-.2 3-.3a20.5 20.5 0 0 1 3.5 0 10.5 10.5 0 0 1 2.9.8 10.8 10.8 0 0 1 2.8 1.5 14.8 14.8 0 0 1 2.5 2.5 23.8 23.8 0 0 1 2.5 4.4 11.9 11.9 0 0 1 .8 2 21.3 21.3 0 0 1 1.3 4.5 82.1 82.1 0 0 1 1.8 12.1c.3 4.3.3 8.6.3 13-.1 9-.7 18-1 27-.2 4-.3 7.9-.3 11.9 0 1.8.1 3.6.2 5.4s.5 4.7.7 7.1c2.8 25.4 6.7 50.6 10.6 75.7 2 12.6 3.7 25.2 5.2 37.9.8 6.3 1.6 12.6 2.5 18.9.4 3.3.9 6.6 1.3 9.8l.6 4.6.3 2.2a5.9 5.9 0 0 1-.5 2.7 5.3 5.3 0 0 1-1.6 2l-1.2.6a4.6 4.6 0 0 1-2.6.2 4.1 4.1 0 0 1-2.3-1.1 4.3 4.3 0 0 1-1.5-1.8z" fill="#013032"></path><path d="M134.6 245.5c-2.9 3-5.9 5.7-9 8.4a101.3 101.3 0 0 1-9 7.2 89.5 89.5 0 0 1-9.7 6.3l-5.4 2.9-5.1 2.3-5.5 2.6a24.2 24.2 0 0 1-5.1 1.9h-.4a63.5 63.5 0 0 1-6.5 2.3c6.2.3 11.7.9 16.9 1.6s12.9 2.1 21.5 3.8l16.8 3.8h.4c.1-.4.3-.8.4-1.1a144.5 144.5 0 0 1 8.6-18c2.2-3.7 4.4-7.2 6.8-10.5a26.8 26.8 0 0 1-2.7-6.4 77.6 77.6 0 0 1-2.8-15.4c-.1-.7-.1-1.4-.2-2.1l-1.7 1.9c-2.8 2.9-5.5 5.8-8.3 8.5z" fill="#013032"></path><path d="M40.2 143.3a17.5 17.5 0 0 0 1.1 2.4c.8 1.8 1.8 3.6 2.6 5.2a87.9 87.9 0 0 0 5.4 8.7c.9 1.5 1.9 2.9 2.9 4.3a112 112 0 0 1 7.9 12.3 43.5 43.5 0 0 1 4 10.4c.2 1.1.4 2.2.5 3.2a37.2 37.2 0 0 1 1.7 9.2 99.2 99.2 0 0 1 .3 10.9c-.2 3.9-.4 7.8-.7 11.7-.6 7.3-1.5 14.6-1.9 22 0 2-.1 4 0 6l2.1-.2h5.3a40.9 40.9 0 0 0 5.8-.9 41.8 41.8 0 0 0 10.4-3.8 48.6 48.6 0 0 0 10-7.2c7-6.5 12.4-14.5 16.9-21.4h.2l4.8-7.8.2-.2 2.7-4.4 3.6-5.8.7-1.1 4.9-8c7.7-12.2 13.8-21.3 19.9-29.5l6.1-7.9 2.5-3.1a62.9 62.9 0 0 1 2.6-5.8 36.6 36.6 0 0 1 3.7-5.8 34.8 34.8 0 0 1 6.5-6.1 30.5 30.5 0 0 0-2.7-3.6c-2.2-2.5-4.6-4.8-6.9-7a15.4 15.4 0 0 1-1.9-1.7l-1.6-1.4-.8-.7c0 .1 0 .2-.1.2v.2a2.2 2.2 0 0 1 .4 1.7 18 18 0 0 1-.8 2.1 21.9 21.9 0 0 1-2.6 4.1l-3.1 4.1c-1.1 1.4-2.3 2.7-3.5 4a65.5 65.5 0 0 1-7.4 7.5l-2.8 2.2a14.3 14.3 0 0 1-2 2.3l-.9.7-.8.3h-1.1a13.8 13.8 0 0 1-2.6-.4l-4-1.2h-.1a55.7 55.7 0 0 1-12.3-6 132.1 132.1 0 0 1-13.1-9.9l-4.3-3.8a87.3 87.3 0 0 0-7.3-6.1 22.2 22.2 0 0 0-5.9-3.3 11.8 11.8 0 0 0-3.1-.8l-1.8-.2h-1.7c-3.8.5-7.2 2.4-10.1 4.2a111.3 111.3 0 0 0-15.3 11.8l-6.8 6.1-1.8 1.9h-2a3 3 0 0 0-1.3.9l-.3.3a4 4 0 0 0-.8 1.6v.5a5.3 5.3 0 0 0 .5 2.1z" fill="#013032"></path><path d="M115.6 754.9l1.2-.6a5.3 5.3 0 0 0 1.6-2 5.9 5.9 0 0 0 .5-2.7l-.3-2.2-.6-4.6c-.4-3.2-.9-6.5-1.3-9.8-.9-6.3-1.7-12.6-2.5-18.9-1.5-12.7-3.2-25.3-5.2-37.9-3.9-25.1-7.8-50.3-10.6-75.7-.2-2.4-.5-4.7-.7-7.1s-.2-3.6-.2-5.4c0-4 .1-7.9.3-11.9.3-9 .9-18 1-27 0-4.4 0-8.7-.3-13a82.1 82.1 0 0 0-1.8-12.1 21.3 21.3 0 0 0-1.3-4.5 11.9 11.9 0 0 0-.8-2 23.8 23.8 0 0 0-2.5-4.4 14.8 14.8 0 0 0-2.5-2.5 10.8 10.8 0 0 0-2.8-1.5 10.5 10.5 0 0 0-2.9-.8 20.5 20.5 0 0 0-3.5 0c-1 .1-2 .3-3 .3h-.8l-.3-.3-.2-.3c-.2-.4-.3-.9-.5-1.3a35.5 35.5 0 0 1-.4-8c.2-3.7.7-7.4 1.1-11.1s.9-6.6 1.2-9.9.1-4.3.2-6.5.1-6.3.1-9.5c.1-6.1.1-12.2.1-18.4s-.1-12.4-.1-18.5-.2-12.4-.4-18.6-.5-12.4-.9-18.5-.8-12.2-1.3-18.3c-.3-2.4-.5-4.8-.7-7.2a1.6 1.6 0 0 0-1.6-1.5h-.2a1.7 1.7 0 0 0-1.5 1.8c.7 8.5.9 17 .8 25.6s-.3 17.3-.7 26c-.1 1.1-.1 2.3-.2 3.4-.4 9.7-1.1 19.4-1.7 29.1-.3 4.9-.6 9.8-.8 14.7-.2 2.6-.3 5.2-.4 7.8s-.1 4.1-.2 6.1-.3 3.3-.5 5l-.9 7a104.9 104.9 0 0 0-1.1 15.8c0 1.1.1 2.2.2 3.3a26.6 26.6 0 0 0 .7 3.7 10.2 10.2 0 0 0 .9 2.2 9.5 9.5 0 0 0 1 1.7 10.4 10.4 0 0 0 3.6 3.2l1.3.7 2.2.6h2.4a13.4 13.4 0 0 0 2.8-.1l2-.2h.6l.3.2.6.5a9.1 9.1 0 0 1 1.1 1.6 28.5 28.5 0 0 1 2.2 6.4 85.1 85.1 0 0 1 1.6 16.7c.1 6.3-.1 12.5-.4 18.8-.4 8.7-1 17.4-1 26.2.1 1.6.1 3.3.2 5s.4 4.8.6 7.1c.7 6.4 1.4 12.7 2.2 19 1.6 12.7 3.4 25.3 5.3 37.9s3.9 25.1 5.6 37.8c1.2 9.1 2.3 18.2 3.4 27.3l1.8 13.6c.7 4.5 1.3 9.1 2.1 13.6a6.4 6.4 0 0 0 .3 2c.1 0 .1.1.1.2a4.3 4.3 0 0 0 1.5 2 4.1 4.1 0 0 0 2.3 1.1 4.6 4.6 0 0 0 2.6-.2z" fill="#0d5044"></path><path d="M262.9 196.5l-1-1.6c-1-1.7-1.9-3.4-2.8-5.1a13 13 0 0 1-.8-1.7c-.4.9-.9 1.7-1.3 2.5l-.5.8 2.1 5.1c1.1 2.5 2.1 4.9 3.2 7.3.7-1.5 1.4-3.1 2-4.6l-.3-.8z" fill="#9fa5be"></path><path d="M254.5 197.8a14.6 14.6 0 0 0-.7-1.9c-1 1.6-1.8 3-2.8 4.5-2.7 4.3-5.4 8.5-9 12a28.3 28.3 0 0 1-5.1 4l-2.4 1.1a17.3 17.3 0 0 1-3.7 1.1 8.1 8.1 0 0 1-3.1-.2l-1.6-.5-1.6-1a6.9 6.9 0 0 1-1.3-1.1l-1.2-1.4a10.5 10.5 0 0 1-1.3-2.6 22 22 0 0 1-1-5.8 35.7 35.7 0 0 1 .6-6.5l.6-3.2.9-2.9c.6-2.1 1.2-4.2 1.9-6.2l.3-1.2c.3-.9.5-1.8.8-2.7a19.7 19.7 0 0 0 .7-2.6 31.2 31.2 0 0 0 .9-4.4c.1-.3.2-.4.4-.4a.5.5 0 0 1 .5.5c-.2 1.8-.5 3.6-.7 5.4v.3l1.2-5.3 1.2-5.3a100.1 100.1 0 0 0 2.8-17.1v-3.2c0-.5-.1-1.1-.1-1.6v-1.1a.8.8 0 0 0-.1-.4v-.6a6.1 6.1 0 0 1 .1-1.4 24.4 24.4 0 0 1-1.4-2.8c-1.9-4.7-2.9-9.7-5.2-14.3a22 22 0 0 0-2.1-3.2l-1.4-1.2h-.3l-2.1-.4h-1.6l-3.9 1.1a44.5 44.5 0 0 1-8.1 1.5 16.5 16.5 0 0 1-7.3-.9 7.9 7.9 0 0 1-4.5-5.1 3.1 3.1 0 0 0-.2-.8l-3.6 1.4a79.8 79.8 0 0 0-13.1 6.4 35.7 35.7 0 0 0-3.8 2.5 34.8 34.8 0 0 0-6.5 6.1 36.6 36.6 0 0 0-3.7 5.8 62.9 62.9 0 0 0-2.6 5.8 1.8 1.8 0 0 1 .5-.7c2.1-2.8 4.5-6 7-8.8s3.1-3.3 4.7-4.8l1.5-1.2v-.2l1.8-1.6a28.8 28.8 0 0 1 3.3-2.8 9.9 9.9 0 0 1 3.1-1.5 5.8 5.8 0 0 1 1.8-.4h2a8.9 8.9 0 0 1 3.2.8 6.9 6.9 0 0 1 1.9 1l1.2 1.1a18.1 18.1 0 0 1 2.5 3 31.9 31.9 0 0 1 3.5 7.5 42.6 42.6 0 0 1 1.8 11.7 36.4 36.4 0 0 1-.4 5.7 54.2 54.2 0 0 1-2.5 9.8 52.8 52.8 0 0 1-3.8 8.4 68.7 68.7 0 0 1-5.1 8.1c-.9 1.3-1.9 2.6-2.9 3.8l-2.9 3.4-3.3 3.6a32.8 32.8 0 0 0-3.1 3.4h-.2c-1 1.6-2.1 3.1-3.2 4.6q-6.1 8.7-12.9 16.8c-2.6 3.3-5.4 6.5-8.2 9.6l-6.8 7.2c.1.7.1 1.4.2 2.1a77.6 77.6 0 0 0 2.8 15.4 26.8 26.8 0 0 0 2.7 6.4c-2.4 3.3-4.6 6.8-6.8 10.5a144.5 144.5 0 0 0-8.6 18c-.1.3-.3.7-.4 1.1l4.1.9 10.6 2.4 1.5.3 3.9.8 4.1.4h1.6a108.7 108.7 0 0 0 12.8-1.1 108.6 108.6 0 0 1 12.8-1 44.1 44.1 0 0 1 5.2.3l4.2.7a35.6 35.6 0 0 1 3.9 1.3 17.6 17.6 0 0 1 5.6 3.9 16 16 0 0 1 2.6 3 23.3 23.3 0 0 1 1.7 2.6c.9 1.6 1.8 3.2 2.6 4.8l.6 1.2.4.8a31.7 31.7 0 0 1 2.3 4.5 21.8 21.8 0 0 1 1.3 5 12.8 12.8 0 0 1 .1 1.9 9.7 9.7 0 0 1-2 6.3 11.4 11.4 0 0 1-4.2 3.4 16.9 16.9 0 0 1-5.2 1.5 26 26 0 0 1-4 .3h-1.4a39.2 39.2 0 0 1-6.5-.7 36.5 36.5 0 0 1-5.7-1.4l-2.8-.9-2-.3-3.3-.8-6.7-2.5c-4.1-1.7-8-3.8-12.1-5.2a27.6 27.6 0 0 0-7-1.1 73 73 0 0 0-13.1 1c-4.7.7-9.3 1.4-14 1.8l-1.9.2-.9 4.4c-1.3 6.2-2.5 13-3.7 20.8-.9 5.9-1.7 11.9-2.5 17.3l-.4 3.2-.9 6.3c-.5 3.9-1.1 8.7-1.8 13.2s-.9 6.1-1.3 9v.5c-.6 3.7-1.2 7.9-1.8 12a444.8 444.8 0 0 0-3.6 53.5c-.1 15.9.4 33.1 1.7 54.1 1.1 18 2.7 36.2 4.2 53.7.3 3.6.7 7.3 1 10.9l.2 2.4v.4c1 12 2.1 24.5 3.3 36.7 3.4 33.3 7.9 58.3 14.6 81 1.9 6.1 4 12.5 6.5 18.9 1.1 2.8 2.3 5.8 3.8 9.2.4.9.8 1.8 1.3 2.7s1.5 3.3 2.2 5.1l.4 1.1.2.5 1.8 4.8c.5 1.1 1.1 2.2 1.7 3.4a13.1 13.1 0 0 0 2.3 3.1l.4.3a7.7 7.7 0 0 0 2.4 1.6l1.7.5h2.6l1.7-.4a6.1 6.1 0 0 0 1.7-.7l.7-.3.6.2 1.3.5a38.8 38.8 0 0 1 5 2.5c1.6 1.1 3.1 2.4 4.3 3.3l4.7 3.7c3 2.3 6.4 4.7 10.4 7.3a237.4 237.4 0 0 0 20.8 12c9.9 5 20 9.4 30.4 13.6l13.2 5.2 3.2 1.3 7.7 3 5.2 2.1h.4l.3.2 6.2 2.4a118.5 118.5 0 0 0 25.6 6.9c4.4.7 8.9.9 12.2 1.1h3.8c2.9 0 5.8-.1 9.1-.4a120.8 120.8 0 0 0 25-4.9 138.8 138.8 0 0 0 17-6.2l1.5-.6a142.2 142.2 0 0 0 13.3-6.9 113.5 113.5 0 0 0 12.4-8.1h.1c1.5-1.7 3-3.3 4.6-4.9 3.3-3.3 6.7-6.4 10.1-9.5l10.1-8.9c3.4-2.9 6.8-5.9 10.1-9s4.6-4.1 6.7-6.4l4.4-4.6c2.1-2.1 4.2-4.2 6.4-6.2a55.7 55.7 0 0 1 6.8-5.2 16.7 16.7 0 0 1 6.7-2.9h1a5.2 5.2 0 0 1 2.1.4 4.8 4.8 0 0 1 2.4 1.8 5.2 5.2 0 0 1 1.2 3.1 5.7 5.7 0 0 1-.3 1.8 5.2 5.2 0 0 1-.6 1.6 22.8 22.8 0 0 1-5.7 5.9l-2.6 1.9c-1.5 1.3-3 2.4-4.5 3.5-3.3 2.4-6.8 4.4-10.3 6.5l-1.6.9h-.2l-5 3.5-5.5 3.9-.3.2c-6.7 4.6-13.5 9.3-19.6 14.9-1 1-2.1 2.1-3.2 3.4a17 17 0 0 0-1.5 2.2 5.5 5.5 0 0 0-.8 1.5v.3l-.3 1.2a3.7 3.7 0 0 0-.1 1.1v.3a5.3 5.3 0 0 0 .5 2 5.8 5.8 0 0 0 1.8 2.3 7.6 7.6 0 0 0 3 1.4 4.8 4.8 0 0 0 1.8.3h3.3l2.4-.2a34 34 0 0 0 4.6-.9l1.2-.2a35.2 35.2 0 0 0 4.5-1.3 22.7 22.7 0 0 0 3.9-1.6 49.3 49.3 0 0 0 7.3-4.1l4.7-5.4q2.7-3.3 5.4-6.9c1.7-2.3 3.4-4.6 5.2-6.8 3.4-4.5 6.9-9 10.6-13.3a80.3 80.3 0 0 1 8.2-8.3 26.8 26.8 0 0 1 5.2-3.6 13.9 13.9 0 0 1 2.6-1 9.3 9.3 0 0 1 2.9-.5h.5a7.2 7.2 0 0 1 2.5.3l1.7.6a6 6 0 0 1 1.5.9 14.3 14.3 0 0 1 2.6 2.3 12.8 12.8 0 0 1 1.5 2.5 8 8 0 0 1 .3 5.1 5.2 5.2 0 0 1-.6 1.6l-.8 1.3a6.1 6.1 0 0 1-1.7 1.5 20.2 20.2 0 0 1-4.2 3.4c-1.6 1-3.3 1.9-5.1 2.8l-4.7 2.1a24.8 24.8 0 0 0-3.7 1.7l-5.6 3.1c-1.8 1.1-3.7 2.2-5.4 3.4l-1.4.9-.3.3a19.4 19.4 0 0 0-3.3 4.4 17.3 17.3 0 0 0-1 2.4 10.2 10.2 0 0 0-.3 3 38.4 38.4 0 0 1 8.3.1c5.4.8 10.7 2.2 16.1 2.5a50.5 50.5 0 0 0 11.6-1.5c4.9-1.1 9.8-2.7 14.8-3.5a33.1 33.1 0 0 1 5.5-.5h2l1.5.2-.4-.9a16.2 16.2 0 0 0-1-1.8c-.5-.8-1.2-1.5-1.7-2.2l-3-3a79.5 79.5 0 0 0-6.7-5.6c-3.7-2.7-7.7-5.4-12.2-8.3l.3-.3a36.5 36.5 0 0 0 3-5l.8-2.3a8 8 0 0 0 .3-2.6 7.7 7.7 0 0 0-1.3-3.5l-.3-.3c.1-.1.1-.1.1-.2a2.5 2.5 0 0 0 0-1.7l-.3-.7-.6-1.1-.5-.6-1.2-1.2a21.6 21.6 0 0 0-3.3-2.7 49.6 49.6 0 0 0-7.6-4.6c-2.4-1.1-4.9-2-7.4-2.9l-2.4-.8a6.6 6.6 0 0 0-.1-1.4 13.3 13.3 0 0 0-1.2-3.2 12.2 12.2 0 0 0-2-2.5 18.9 18.9 0 0 0-2.5-2.3 41.9 41.9 0 0 0-7-4.3c-2.8-1.3-5.7-2.3-8.6-3.4a48.4 48.4 0 0 1-4.9-1.8c-1.6-.6-3.2-1.4-4.7-2.1l-6-3.2c-4.4-2.4-8.6-5.1-12.2-7.4l-3-2c-5.4-3.4-10.9-7-16.6-10.2-3.1-1.8-6.7-3.6-10.8-5.5a47.7 47.7 0 0 0-5.7-2 14.9 14.9 0 0 0-3.6-.5h-.2v-.4c0-.4.1-.6.1-.9a2.5 2.5 0 0 1 .4-.7l.8-1 3.1-2.2a29.4 29.4 0 0 0 4.1-3.1 10.7 10.7 0 0 0 2.8-4.2c.3-.8.5-1.7.8-2.8a25.8 25.8 0 0 0 .3-2.9 11.5 11.5 0 0 0-.7-3.9l-.9-1.8h-.1l-.2-.3-.9 2.2c-.5 1.7-.8 3.4-1.2 5.2a26.1 26.1 0 0 1-.6 2.7 20.6 20.6 0 0 1-1.2 3.5 23 23 0 0 1-2.1 3.3 22.7 22.7 0 0 1-3 3.2 26.8 26.8 0 0 1-6.6 4.3c-2.2 1-4.6 1.9-6.9 2.7l-5.4 1.9c-1.9.5-3.8 1.2-5.7 1.9l-4.7 2.1-1.1.7a32.5 32.5 0 0 0-2.3 2.9c-2.7 4.6-4.5 9.7-6.9 14.5a67.3 67.3 0 0 1-4.4 7.8 31.4 31.4 0 0 1-6.2 6.4 63.6 63.6 0 0 1-16.9 8.9l-8.9 3.3a72.6 72.6 0 0 0-8.6 3.8 37.6 37.6 0 0 0-5 3.1c-.4.2-.7-.3-.4-.5a83 83 0 0 1 9.8-6l5.1-2.6 4.9-2.5a74.9 74.9 0 0 0 7.2-4.2 48.3 48.3 0 0 0 6.8-5.1 40.4 40.4 0 0 0 4.8-5.4 40.9 40.9 0 0 0 3.4-7.7c1.1-3.5 2-7 3.2-10.5a41.4 41.4 0 0 1 1.9-4.9 31 31 0 0 1 2.6-4.7 13.7 13.7 0 0 1 1.6-1.8 20.9 20.9 0 0 1 2.2-2 9.2 9.2 0 0 1 2.4-1.3l2.6-.7a35.5 35.5 0 0 1 4.7-.6l4.2-.5a21.5 21.5 0 0 0 2.7-1l3-1.8 3.8-2.5a69.1 69.1 0 0 0 6.2-4.4 18.4 18.4 0 0 0 2.3-2.7 13.4 13.4 0 0 0 1.2-2.4c.5-2.1.8-4.3 1.4-6.5a27 27 0 0 1 1.6-4.8 14.5 14.5 0 0 1 2-3.4 32.7 32.7 0 0 1 4.4-4.7l4.9-4.5a46.1 46.1 0 0 0 6.3-6.9 22.1 22.1 0 0 0 1.6-3.5 16.3 16.3 0 0 0 .8-4.3 19 19 0 0 0-.1-3.4.8.8 0 0 1 .7-.8.7.7 0 0 1 .7.4 20.9 20.9 0 0 1 .8 2.3 34.9 34.9 0 0 0-1.6-4.9l-2.5-5.1-.3-.5-1.5-2.7-1.3-2.4c-1.4-2.7-2.6-5.1-3.6-7.5l-.8-1.7c-1.2-2.6-2.4-5.4-3.6-8.1-2.7-5.6-5.7-11.6-9.6-18.8-7.1-13.1-15-25.9-21-35.5l-10.8-17c-11-17.3-22.4-35.1-32.3-53.4l-1.3-2.5c-3.2-6.1-6.2-12.1-8.8-17.9-1.4-2.9-2.7-5.9-4-9.2s-1.6-3.8-2.3-5.7l-2-4.8c-5.8-14-12.4-27.8-18.7-40.8l-3.3-6.7c-5.4-11-10.9-22.4-16.1-33.8-3.1-7-6.1-13.9-8.7-20.6-1.2-3.1-2.5-6.4-3.7-10l-.4-1.2c-1.1-2.9-2.1-5.9-3.3-8.8s-3.5-8.7-5.3-12.9c-2.7-6.3-5.5-12.7-7.8-19.3l-3.3 2.7-4.1 2.4a31.7 31.7 0 0 1-8.4 2.6 43.8 43.8 0 0 1-5.2.4l-3.9-.2a70.1 70.1 0 0 1-9.3-1.4l-6.4-1.3-.6-.2a53.2 53.2 0 0 1-7.2-1.7 14.8 14.8 0 0 1-2.9-1.2 12.4 12.4 0 0 1-2.5-1.8h-.1l-.5-.6a75.1 75.1 0 0 1-8 .4h-3a37.9 37.9 0 0 1-9.2-1.4 21.6 21.6 0 0 1-3.4-1.6l-1.7-1.3-.9-1.4a4.4 4.4 0 0 1-.6-1.6 12.3 12.3 0 0 1-.2-2 14.1 14.1 0 0 1 .5-2.7 25.9 25.9 0 0 0 2.3 1.9 33.7 33.7 0 0 0 3.2 1.9 29.9 29.9 0 0 0 3.8 1.5 37.7 37.7 0 0 0 7 1.4 54.4 54.4 0 0 0 5.7.3h2.8a6.1 6.1 0 0 1 .1-1.4 14.9 14.9 0 0 1 .8-2.3l1.2-2a14.9 14.9 0 0 1 2.3-2.7 19.1 19.1 0 0 1 3.4-2.8 34.4 34.4 0 0 1 3.9-2.1l4-1.8 4-1.3 1-.3 3.5-1 1.1-.3 3.2-.8c3.3-.6 5.8-1.1 8.2-1.3l1.9-.2.4-.2 2-.6 2-.6 3.3-1.4a35.9 35.9 0 0 0 6.3-4.6c2-1.9 3.9-3.9 5.3-5.4l1.6-1.8 1.3-1.4 1.1-1.2 1.7-1.8a2.7 2.7 0 0 1 1.8-.8 1.6 1.6 0 0 1 1 .2 2.2 2.2 0 0 1 1 .9c2.6-3.6 4.8-6.7 6.8-9.7s4.9-7.6 6.9-11l-.8-1.7c-1.3-3.5-2.4-6.8-3.6-10.1zm241 576.8l1.9-.3h2.3l2 .4a10.3 10.3 0 0 1 2.1.7 11.7 11.7 0 0 1 2 1.2 6.7 6.7 0 0 1 1.4 1.6l.6 1.2a5 5 0 0 1 .4 1.3v1a1.7 1.7 0 0 1-.1.7 3 3 0 0 1-.8 1.7 4.1 4.1 0 0 1-1 .9 9.9 9.9 0 0 1-2.8 1.2 22.5 22.5 0 0 1-3.6.6h-4.4c-2.4 0-4.9-.1-7.3-.3h-.2a39.7 39.7 0 0 1-4.8-.7l-.7-.4a1.8 1.8 0 0 1-.5-.7 1.1 1.1 0 0 1 0-.8 1.3 1.3 0 0 1 .3-.8 17.1 17.1 0 0 1 6.4-5.4 25.1 25.1 0 0 1 5.7-2.2l.3-.5a1.6 1.6 0 0 1 .8-.4zm-13.4-30.9zm-125.3 53.6a2.5 2.5 0 0 1-1.9 1.1 3.1 3.1 0 0 1-2.1-.7 3.1 3.1 0 0 1-1.1-2 3.3 3.3 0 0 1 .7-2.1 3 3 0 0 1 2-1 2.9 2.9 0 0 1 3.1 2.6 3 3 0 0 1-.7 2.1zm7.6-105.1a2.4 2.4 0 0 1 1.8-.9 2.8 2.8 0 0 1 2 .6 2.5 2.5 0 0 1 1 1.8 3.1 3.1 0 0 1-.7 2 2.5 2.5 0 0 1-1.8 1 3.1 3.1 0 0 1-2-.7 2.4 2.4 0 0 1-.9-1.8 2.5 2.5 0 0 1 .6-2zm-42.5 63.7c.9-4.5 3-8.9 6.7-13.9a.7.7 0 0 1-.6-.4.8.8 0 0 1 .2-1.2l3.6-3.2.9-.7 1.4-1.1a97.7 97.7 0 0 1 9.8-9.3c2.1-1.7 4.1-3.4 6.2-4.9s4.9-4.3 7.1-5.9a76.4 76.4 0 0 1 14.2-9 42.7 42.7 0 0 1 7.5-2.7 37.5 37.5 0 0 1 8.2-1.3h1.5a35.4 35.4 0 0 1 7.3.7c2.7.7 5.3 1.6 7.5 2.4a194.8 194.8 0 0 1 21.8 9.5c2 1.1 3.8 2.2 5.5 3.3a37 37 0 0 1 5.3 3.8 23.4 23.4 0 0 1 4.2 4.1 16.7 16.7 0 0 1 1.3 2h.1a25.6 25.6 0 0 1 1.1 2.4 19.5 19.5 0 0 1 .6 2.7 11.4 11.4 0 0 1-.2 2.7 12 12 0 0 1-2.4 5.3 22.8 22.8 0 0 1-2.2 2.2 15.6 15.6 0 0 1-2 1.6 55.5 55.5 0 0 1-6.1 3.5c-4.3 2.2-8.9 4.1-13.3 6h-.3l-1.8.7c-3.3 1.4-6.8 2.9-10.1 4.5l-3.2 2-.8.5-6.3 3.8a125.2 125.2 0 0 1-13.2 7 73.9 73.9 0 0 1-18.7 5.8 54.7 54.7 0 0 1-9 .8 50 50 0 0 1-10.3-1.1c-5.4-1.1-13.1-3.2-18-8.9a16.3 16.3 0 0 1-2.2-3.2 12.8 12.8 0 0 1-1.1-3.1 13.2 13.2 0 0 1-.5-3.7 23.8 23.8 0 0 1 .3-3.7zM118 454.9a3.1 3.1 0 0 1 .8-2.4 3.1 3.1 0 0 1 2.2-1.1 3.4 3.4 0 0 1 2.4.7 3.9 3.9 0 0 1 1.1 2.2 3.3 3.3 0 0 1-2.9 3.6 3.5 3.5 0 0 1-2.4-.8 3 3 0 0 1-1.2-2.2zm8.9 88.6a3 3 0 0 1-2.3 1.3 4 4 0 0 1-2.6-.8 3.3 3.3 0 0 1-1.2-2.4 3.5 3.5 0 0 1 .8-2.6 3.5 3.5 0 0 1 2.4-1.2 3.3 3.3 0 0 1 2.5.8 3.6 3.6 0 0 1 1.3 2.4 3.8 3.8 0 0 1-.9 2.5zm5-156.9a4.6 4.6 0 0 1-1.5-2.8 4.5 4.5 0 0 1 1-3.1 4 4 0 0 1 2.8-1.4 4.6 4.6 0 0 1 3 .9 4.3 4.3 0 0 1 1.5 2.8 4.5 4.5 0 0 1-1 3.1 4 4 0 0 1-2.8 1.4 4.6 4.6 0 0 1-3-.9zm44.1 199a2.6 2.6 0 0 1-2 1 3.1 3.1 0 0 1-2.1-.6 2.6 2.6 0 0 1-1-2 3.1 3.1 0 0 1 .6-2.1 2.8 2.8 0 0 1 2-1 2.9 2.9 0 0 1 3.2 2.6 3.1 3.1 0 0 1-.7 2.1zm17.3 152.5a3.2 3.2 0 0 1-2.2 1.2 3.9 3.9 0 0 1-2.5-.8 3 3 0 0 1-1.1-2.2 3.3 3.3 0 0 1 .7-2.4 3.1 3.1 0 0 1 2.3-1.2 3.5 3.5 0 0 1 2.4.8 3 3 0 0 1 1.2 2.2 3 3 0 0 1-.8 2.4zm94.7 34.8a17.1 17.1 0 0 1-3.1 7.5 11.3 11.3 0 0 1-2.6 2.8 12.9 12.9 0 0 1-3.2 1.8 19.1 19.1 0 0 1-6.3 1.3h-.9a50.9 50.9 0 0 1-5.6-.4 83.7 83.7 0 0 1-14.1-3.8l-6.3-2.4c-2.1-.9-4.2-1.7-6.3-2.7a70.2 70.2 0 0 1-13.9-8.9 72.7 72.7 0 0 1-19.9-25.3 74 74 0 0 1-5.1-15.7c-.8-3.4-1.5-7-2.1-10.5v-.4l-1.9-10.5c-4.7-27.1-8.3-55.8-11.1-87.9-1.2-14-2.3-28.4-3.2-44-.5-8-.9-15.2-1.3-22.1s-.7-14.8-1-21.4v-1.5c-.3-6.6-.6-14.1-.9-21.3 0-1.7-.1-3.3-.2-4.9s-.1-4.4-.2-6.6v-3.2l-.3-7.5c-.4-13.6-1-28.1-1.9-44.3-.2-4.1-.4-8.3-.7-12.5l-.6-5.7v-.8c-.2-1.6-.3-3.3-.5-5-.8 5.7-1.6 11.9-2.7 19.4s-2.3 15.7-3.5 23.4c-.7 4.2-1.3 8.4-1.9 12.6l-.2 1.4c-.5 2.9-.9 6-1.3 9s-.4 4.5-.6 6.7a10.3 10.3 0 0 1-.1 1.7c-.4 6.7-.8 13.5-1.1 20.1-1.2 26.3-1.3 53.1-.3 79.9.5 13.5 1.2 27 2.2 40.1v1.3c.4 5.4.8 11.1 1.6 16.6s1.6 10.6 2.7 16.8l.6 3.4c.8 4.7 1.7 9.7 2.5 14.5s1.6 11.3 2 17.7a89.5 89.5 0 0 1-.2 15.7 28.2 28.2 0 0 1-.7 4.7 10.2 10.2 0 0 1-1.1 2.9 4.1 4.1 0 0 1-2.3 2.1 3.4 3.4 0 0 1-1.4.2l-1.6-.3a6.7 6.7 0 0 1-2.3-1.9 19.2 19.2 0 0 1-1.6-2.1 63.4 63.4 0 0 1-3.7-7.4c-1.1-2.7-2.2-5.6-3.3-8.8s-1.9-5.9-2.6-8.7-1.3-4.7-1.8-7.1l-.9-5.5-.3-1.6c-.5-3.2-.9-6.4-1.4-9.3-.9-6.5-1.8-13-2.6-19.5-3.2-26-5.4-52.5-6.5-78.8s-1.3-53.5-.4-79.1c.3-7.5.5-13.7.9-19.4.2-4.1.5-8.3.7-12.3l.3-4.4.3-4.8c0-1 .1-2 .2-3 .6-11.3 1.4-21.6 2.5-31.3a313 313 0 0 1 6.3-38.7 156.8 156.8 0 0 1 5.2-17.4 60.7 60.7 0 0 1 6.9-13.3 21.6 21.6 0 0 1 8.8-7.5 9.4 9.4 0 0 1 1-1 5.7 5.7 0 0 1 1.6-1.1 7.9 7.9 0 0 1 3.2-.7h.9a5.8 5.8 0 0 1 1.9.3h.1l2.3.8a20.1 20.1 0 0 1 2.9 1.7l1.3 1a14.6 14.6 0 0 1 2.6 3.2 32.4 32.4 0 0 1 4 9.2 83.2 83.2 0 0 1 2.6 11.8 241.8 241.8 0 0 1 2.3 25.6c.2 3.6.3 7.2.4 11.1v1.3l.3 6.7c.2 2 .4 4 .6 5.8v1c.4 3.7.8 7.2 1.3 10.5.9 7.1 1.9 14.5 3.1 21.9 2.1 13.4 4.5 27 6.8 40.2l.6 3.2c2.6 14.7 5.1 29.1 7.2 43.4 1.2 8.1 2.1 15.2 2.9 21.9l.6 5.5c.6 5.1 1.2 10.9 1.9 16.4 3.9 30.8 8.7 59.2 14.8 86.6v.3h.1l1.8 7.8 1.5 6.6c.8 3.6 1.8 7.9 2.8 12.1s2 7.5 3.4 11.5a90.8 90.8 0 0 0 4.5 10.7 49.6 49.6 0 0 0 3.9 6.3 40.2 40.2 0 0 0 4.4 5.6c1.5 1.6 3.1 3.2 4.6 4.6l.4.4h.1c2.1 2 4.1 4 6.1 6.1s4.2 4.3 6.3 6.9a64.1 64.1 0 0 1 5 7.2 31.1 31.1 0 0 1 3.4 7.8 35.8 35.8 0 0 1 .6 3.7 14.7 14.7 0 0 1-.2 4zm-54.2-222a3.5 3.5 0 0 1 5.1-.4 3.8 3.8 0 0 1 1.3 2.4 3.4 3.4 0 0 1-.8 2.6 3.6 3.6 0 0 1-2.5 1.3 4 4 0 0 1-2.6-.8 3.8 3.8 0 0 1-1.3-2.5 3.5 3.5 0 0 1 .8-2.6zm32.7 158a3.2 3.2 0 0 1 2.4-1.3 3.6 3.6 0 0 1 2.6.9 3.1 3.1 0 0 1 1.2 2.4 3.5 3.5 0 0 1-.8 2.6 3.2 3.2 0 0 1-2.4 1.3 3.6 3.6 0 0 1-2.6-.9 3.8 3.8 0 0 1-1.3-2.4 3.6 3.6 0 0 1 .9-2.6zm31.2 44.8a3.1 3.1 0 0 1-2.8 3.3 3.2 3.2 0 0 1-2.3-.7 3.3 3.3 0 0 1-1.1-2.1 3.2 3.2 0 0 1 .7-2.3 3.1 3.1 0 0 1 2.1-1.1 3.5 3.5 0 0 1 2.3.7 2.8 2.8 0 0 1 1.1 2.2zm-73.2-450.4a2.4 2.4 0 0 1 2.3-1.4 2 2 0 0 1 1 .2 10.5 10.5 0 0 1 2.7 2 2.2 2.2 0 0 1 .9 1.7 2.2 2.2 0 0 1-.5 1.7 2.5 2.5 0 0 1-3.5.4 7.9 7.9 0 0 0-1.5-1.2l-.2-.2a2.7 2.7 0 0 1-1.3-1.3 2.5 2.5 0 0 1 .1-1.9zm-6.8 40.3a.9.9 0 0 1 .6-.3 1.3 1.3 0 0 1 .1-.6c.3-1.3.6-2.6 1-3.8a18.5 18.5 0 0 1 1.2-3.3 20 20 0 0 1 1.5-2.6 7.9 7.9 0 0 1 1.2-1.5l1.7-1.4 1.1-.5 1.2-.3h2l1.8.4 1.7.8a11.5 11.5 0 0 1 1.9 1.4 25.1 25.1 0 0 1 3.2 3.3 51.8 51.8 0 0 1 6.1 9.8l.4.9a111.8 111.8 0 0 1 11.4 14.3 222.5 222.5 0 0 1 13.4 22.3c4.1 7.8 8 15.7 11.6 23.2l.3.7c3.5 7.1 7 14.5 10.8 21.7 1.2 2.3 2.4 4.5 3.5 6.8l3.2 6.1h.1v.2h.1c5.4 10.1 11.3 21 18.2 33.3 5.1 9 10.4 18.3 16.2 28.3l1.4 2.4c2.1 3.7 4.3 7.6 6.5 11.3s4.7 7.8 7.8 12.7l7 11.1c8.5 13.4 17.3 27.2 24.8 41.4 2.7 5.1 4.9 9.5 6.8 13.7s4.1 9.5 5.5 13.6a30 30 0 0 1 1.9 11 34.4 34.4 0 0 1-.6 5.3 19.7 19.7 0 0 1-1.4 4.3 17.5 17.5 0 0 1-4.7 6.6l-1.5 1-1.7.8-1.8.4h-1.8l-1.7-.3a5.3 5.3 0 0 1-1.7-.8 6.2 6.2 0 0 1-1.7-1.1l-.4-.3.6 3.3c1 5.2 1.9 10.7 1.4 16.2a23.7 23.7 0 0 1-1.8 7.2 18.3 18.3 0 0 1-4.5 6.1 27 27 0 0 1-3.3 2.2 21 21 0 0 1-3.9 1.7 21.4 21.4 0 0 1-5.4.8h-1.8a15.8 15.8 0 0 1-7.5-3.1 21 21 0 0 1-5-4.9c0 2.6-.1 5.2-.2 7.8a65.3 65.3 0 0 1-2 12.6 66.9 66.9 0 0 1-4.2 11.1 77.6 77.6 0 0 1-6.8 11.5 52 52 0 0 1-8.6 9.3 40.4 40.4 0 0 1-5 3.4 22 22 0 0 1-4.9 2.2 22.7 22.7 0 0 1-5.7 1.1h-.8a21.9 21.9 0 0 1-4.7-.5 21.4 21.4 0 0 1-6-2.3A29 29 0 0 1 284 710c-3.5-6.1-6.1-13.2-8.4-23s-3.4-17.9-4.6-26.3l-.5-3.2v-.4q-.5-4.2-1.2-8.4c-.4-2.9-.9-6.2-1.6-9.5-.4-1.3-.7-2.7-1-4l-.2-.7c-.1-.6-.3-1.2-.4-1.8L264 624c-1.3-5.5-2.5-11.1-3.7-16.6-2.5-11.6-4.9-23.1-7-34.3-4-20.9-7.8-43.2-11.8-68.1s-7.3-48.3-10.7-71.8v-.7l-1.2-8c-.6-4.6-1.3-9.1-2-13.7-1.2-8.7-2.5-17.7-3.8-26.6-.4-2.1-.7-4.2-1-6.3l-.2-1.7-.7-5a.6.6 0 0 1-.1-.4c-.4-3-.9-5.9-1.5-8.9-.2-1.5-.6-3.3-.8-5a17 17 0 0 1-.4-2.2v-.4l-.2-1.3-.2-.9c-.1-.9-.3-2-.4-3s-.1-1.6-.2-2.4-.3-1.8-.4-2.7a.9.9 0 0 1 0-.4zm-.4 87.8a2.9 2.9 0 0 1 2.2-1.2 3.5 3.5 0 0 1 2.4.8 3 3 0 0 1 1.2 2.2 3.2 3.2 0 0 1-.8 2.4 3.1 3.1 0 0 1-2.2 1.1 3.4 3.4 0 0 1-2.4-.7 3.4 3.4 0 0 1-1.1-2.3 3.2 3.2 0 0 1 .7-2.3zm-32.5-211.6a3 3 0 0 1 2.3-1.3 3.8 3.8 0 0 1 3.9 3.2 3.9 3.9 0 0 1-.9 2.6 3.2 3.2 0 0 1-2.3 1.3 3.6 3.6 0 0 1-3.9-3.2 3.9 3.9 0 0 1 .9-2.6zm-14.9 18.7a3.2 3.2 0 0 1 2.2-1.2 3.6 3.6 0 0 1 2.5.8 3.5 3.5 0 0 1 1.2 2.3 3.4 3.4 0 0 1-3.1 3.6 3.4 3.4 0 0 1-2.4-.7 3.5 3.5 0 0 1-1.2-2.3 3.3 3.3 0 0 1 .8-2.5zm44.2-83.5a2.3 2.3 0 0 1 1.6-.8 2.6 2.6 0 0 1 1.7.5 2.6 2.6 0 0 1 .9 1.7 2.7 2.7 0 0 1-.6 1.7 2.4 2.4 0 0 1-3.3.3 2.6 2.6 0 0 1-.9-1.6 2.8 2.8 0 0 1 .6-1.8zm-7.1 50.2a3.6 3.6 0 0 1-2.7 1.4 4.4 4.4 0 0 1-2.9-.9 4 4 0 0 1-1.4-2.7 3.9 3.9 0 0 1 .9-2.9 4 4 0 0 1 2.7-1.4 3.9 3.9 0 0 1 4.3 3.6 3.8 3.8 0 0 1-.9 2.9zm3.1-24.5a2.7 2.7 0 0 1-1.1-2.2 3.1 3.1 0 0 1 2.9-3.5 3.4 3.4 0 0 1 2.4.7 3.5 3.5 0 0 1 1.2 2.2 3.3 3.3 0 0 1-.8 2.4 3.2 3.2 0 0 1-2.2 1.2 3.5 3.5 0 0 1-2.4-.8zm8.5 55.8a2.5 2.5 0 0 1-1.8 1 3.3 3.3 0 0 1-1.9-.6 2.6 2.6 0 0 1-.9-1.8 2.5 2.5 0 0 1 .6-2 2.4 2.4 0 0 1 1.8-.9 2.7 2.7 0 0 1 1.9.6 2.4 2.4 0 0 1 .9 1.8 2.2 2.2 0 0 1-.6 1.9z" fill="#9fa5be"></path><path d="M442.5 753.8h-.1a.2.2 0 0 1-.2.2z" fill="#9fa5be"></path><path d="M94.2 94.8l.4.2.3.5a16.4 16.4 0 0 0 1.4 2.2l2.2 2.2 2.4 1.7 2.5 1.3 2.6 1h.2a12.2 12.2 0 0 0 2.6.6 12.4 12.4 0 0 0 5.4-.4 8.1 8.1 0 0 0 3.1-2.1l.4-.6a8.2 8.2 0 0 0 1.2-2c.4-.8.6-1.6.9-2.3s0-.2.1-.2a44.1 44.1 0 0 0 1.5-10.2l.3-4.6c.1-1.7.3-3.5.3-5.2a11.7 11.7 0 0 0-.8-4.6 13.2 13.2 0 0 0-1.6-2.5l-.8-1a6.1 6.1 0 0 1-.7-1.4l-.6-.5a8.6 8.6 0 0 1-1.4-1.8l-.9-1.5a15.7 15.7 0 0 1-1.6-5.2 10.1 10.1 0 0 1-.2-2.5 9.9 9.9 0 0 1 .3-2.4 6.2 6.2 0 0 1 1-2.2 4.5 4.5 0 0 1 1.7-1.3 3.2 3.2 0 0 1 1.4-.2 5.9 5.9 0 0 1 2.3.5h.3c.1.1.1.2.2.2l.5.3a17.6 17.6 0 0 1 3 2.4 30 30 0 0 1 3 3.2.3.3 0 0 0 .1.2c.7 3.3 1.1 6.7 1.6 10a.9.9 0 0 1 .1.5c.3 1.5.7 3.1 1.1 4.6a46 46 0 0 0 1.9 5.2 2 2 0 0 0 1.6 1.3 1.9 1.9 0 0 0 2.2-1.2 25.4 25.4 0 0 0 1.7-6.7c.3-2.3.5-4.7.6-7a12.1 12.1 0 0 1 .1-1.9v-4.3a43.4 43.4 0 0 0-.1-5.1l1.3-2c1.2-1.9 2.3-3.9 3.4-5.9l2.4-4.3 2.2-2.3.8-.4.9-.5 3.2-1.6 2-1.1 1.5-.9a37.5 37.5 0 0 0 4.4-2.4l1.1-.9 1-.9a5.4 5.4 0 0 0 1.5-2.1 1.9 1.9 0 0 0 .1-.8 1.4 1.4 0 0 0-.2-.6 1.7 1.7 0 0 0 0-1 59 59 0 0 0-5.3-10.3 29.1 29.1 0 0 0-3.3-3.7 25.5 25.5 0 0 0-3.9-2.8 20.4 20.4 0 0 0-4.7-1.7 27 27 0 0 0-4.1-.5 56.8 56.8 0 0 0-8-.8H133a56 56 0 0 0-8.9.7 66.9 66.9 0 0 0-9.7 2l-4 1.3c-1.3.5-2.6 1.2-4.2 2a43.4 43.4 0 0 0-12.1 9 34 34 0 0 0-6.6 11A39.4 39.4 0 0 0 85 43.3c-.5 9.3 1.3 18.4 3.3 27.7.3 1.7.7 3.4 1 5.1v.7c.3 1.5.5 3 .8 4.6s.9 4.4 1.4 6.5a40.3 40.3 0 0 0 1.6 4.9l.3.8a7.5 7.5 0 0 1 .8 1.2zm31-43.8z" fill="#013032"></path><path d="M155.7 33l-1.5.9-2 1.1-3.2 1.6c-.4 1.4-.7 2.8-1 4.1s-.7 2.8-1.1 4.1l-.6 2a12.2 12.2 0 0 1 2.4-1 11.5 11.5 0 0 1 3.1-.4h.9a6.1 6.1 0 0 1 1.8.5 6 6 0 0 1 1.6.8.7.7 0 0 1 .3.8c0 .3-.2.4-.3.6l-1.3 1-1.8 1.1a34.1 34.1 0 0 1-4.4 2.1l-2.3.6-1.4.2h-.9l-.3.6a38.3 38.3 0 0 1-2.5 4.4 10.1 10.1 0 0 1-1.3 1.6c-.6.7-1.2 1.2-1.8 1.8a12.1 12.1 0 0 0-.1 1.9c-.1 2.3-.3 4.7-.6 7a25.4 25.4 0 0 1-1.7 6.7 1.9 1.9 0 0 1-2.2 1.2 2 2 0 0 1-1.6-1.3 46 46 0 0 1-1.9-5.2c-.4-1.5-.8-3.1-1.1-4.6a6 6 0 0 1-1.3 3.2 4.4 4.4 0 0 1-1.7 1.2l-1.5.2h-.6a3.8 3.8 0 0 1-1.9-.6 6.6 6.6 0 0 1-2.1-1.2h-.2a13.2 13.2 0 0 1 1.6 2.5 11.7 11.7 0 0 1 .8 4.6c0 1.7-.2 3.5-.3 5.2l-.3 4.6a44.1 44.1 0 0 1-1.5 10.2c-.1 0-.1.1-.1.2a43.7 43.7 0 0 0 5-.9c2.3-.5 4.7-1.1 7.1-1.5l6.6-1.4c2.8-.6 5.5-1.4 8.3-2.2a36.1 36.1 0 0 1 4.4-3.3 37.3 37.3 0 0 1 6.9-3.5 57.6 57.6 0 0 1 11.6-3.5h.7l4.2-.7c2.8-.4 5.6-.6 8.5-.8l3-.2 2.2-.7 2.7-.8.7-.2 1.1-.6a36.8 36.8 0 0 1-.6-6.6 24.9 24.9 0 0 1 .4-4.7 23.5 23.5 0 0 1 1.7-5.1 36.1 36.1 0 0 1 2.2-4.4c.3-1.2.5-2.3.9-3.5a2.8 2.8 0 0 1-.1-.9V50a19.6 19.6 0 0 1 .1-3.4 43.4 43.4 0 0 1 1.4-6 35.4 35.4 0 0 1 2.3-5.3L200 34l-.9-1.2a28.2 28.2 0 0 0-3.1-2.1l-2.3-1.7a9.1 9.1 0 0 1-2.1-1.8 11.2 11.2 0 0 1-1.8-2l-2.1 2.2-1.1 1.2-3.6 4 .4-.2h.5a1.5 1.5 0 0 1 .9.4 1.2 1.2 0 0 1 .5 1 7.6 7.6 0 0 1-.2 2.6 16.9 16.9 0 0 1-1 2.7 26.1 26.1 0 0 1-1.7 2.8h-.1a20.5 20.5 0 0 1 6.4-1.1h.1a21.5 21.5 0 0 1 4.3.4l4.2.8h.1a.7.7 0 0 1 .6.7.6.6 0 0 1-.3.7 12 12 0 0 1-4 1.6 19.6 19.6 0 0 1-4.1.7h-4.2l-1.6-.2-2.6-.2h-.3l-.5-.2c-1.2 2.3-2.6 4.4-4 6.6s-2.3 3.4-3.5 5l-2.4 3.1-1.3 1.2a.8.8 0 0 1-.2.4 3.1 3.1 0 0 1-.5 1c-.1.1-.2.2-.2.3a2.2 2.2 0 0 1-.5.8 2.4 2.4 0 0 1-1.5.9l-.9.3a2.4 2.4 0 0 1-1.6-.5 3.1 3.1 0 0 1-.9-1.1 10.1 10.1 0 0 1-.7-1.5 24.7 24.7 0 0 1-1.1-3.6 47.7 47.7 0 0 1-1.7-9.3 29.4 29.4 0 0 1 0-4.2 26.8 26.8 0 0 1-.2-4.9c0-.5.1-1 .1-1.4a.1.1 0 0 0 .1-.1h.7l.8.2 1.2.9 1.1 1 1.4 2.1 1.2 2.5c.4.6.9 1.2 1.3 1.9s.1.2.2.4c-.5-2.8-1.1-5.4-1.8-7.9A44.9 44.9 0 0 0 162 31a8.3 8.3 0 0 0-.8-1.2l-1.1.9a37.5 37.5 0 0 1-4.4 2.3zm-5.2 26.2l-1.7.3a4.8 4.8 0 0 1-1.7 0c-.3 0-.6-.3-.8-.5a1 1 0 0 1-.2-.9 1.2 1.2 0 0 1 1.1-1 19.7 19.7 0 0 0 2.4-.3l2.2-.7a13.6 13.6 0 0 0 2.1-1 11.8 11.8 0 0 0 1.9-1.1l1.8-1.3.4-.2a.9.9 0 0 1 .7.3.9.9 0 0 1-.2 1.1L156 56a15 15 0 0 1-2.5 1.9 8.1 8.1 0 0 1-3 1.3zm26.8-8.5a1.1 1.1 0 0 1 1.5-.2l.4.3 1 .5 1.5.3a13.3 13.3 0 0 0 2.8-.3c2.1-.5 4.1-1.4 6.2-2h1a1.1 1.1 0 0 1 .6.7 1 1 0 0 1 0 .9 1 1 0 0 1-.4.5 22 22 0 0 1-7.4 2.7 9.7 9.7 0 0 1-3.8-.3 8.7 8.7 0 0 1-3.3-1.7 1 1 0 0 1-.1-1.4zm-8.4 16.9h3.1a2 2 0 0 1 1.1.2l.5.3a2.3 2.3 0 0 1 .7 1 2.4 2.4 0 0 1-.4 2.3 7.3 7.3 0 0 1-3 2.2 13.5 13.5 0 0 1-3.3.9 13.1 13.1 0 0 1-3.4.3 16.2 16.2 0 0 1-3.1-.2 2.2 2.2 0 0 1-1.3-1l-.6-.5a1.4 1.4 0 0 1-.2-1.1 1 1 0 0 1 .6-.9 26.9 26.9 0 0 1 2.9-1.6 16.3 16.3 0 0 1 3.1-1.1 19.4 19.4 0 0 1 3.3-.8z" fill="#e9aa58"></path><path d="M169.7 51.3l.7-1.4a3 3 0 0 0-.9 1c-.1.1-.1.3-.2.4s.1.4.2.5z" fill="#e9aa58"></path><path d="M121.9 105.6a24.3 24.3 0 0 1 1.4-2l.7-.8-2.9-.2a23.2 23.2 0 0 1-3.8-.6 8.1 8.1 0 0 1-3.1 2.1 12.4 12.4 0 0 1-5.4.4 12.2 12.2 0 0 1-2.6-.6h-.2l1 .8 2 1.2a102.8 102.8 0 0 1 9.3 6.5c0-.2.1-.3.1-.5a21.4 21.4 0 0 1 3.5-6.3z" fill="#e9aa58"></path><path d="M195.3 75.6h.6l1.2-.3c-.2-.9-.3-1.8-.5-2.8a54.3 54.3 0 0 1-.9-6.9 29.5 29.5 0 0 1 .1-4.2l-.3.6a26.3 26.3 0 0 0-1 5.6 34.3 34.3 0 0 0 .7 7.8s.1.1.1.2z" fill="#e9aa58"></path><path d="M258.3 188.1c-1.1-2.1-2.1-4.3-3.2-6.4s-2.7-5.4-4-8.1c1.1 3.5 2 7.1 3.1 10.6s1.3 4.3 2 6.4l.3.8.5-.8c.4-.8.9-1.6 1.3-2.5z" fill="#e9aa58"></path><path d="M231.4 148.1a.8.8 0 0 1 .1.4v1.1c0 .5.1 1.1.1 1.6v3.2a100.1 100.1 0 0 1-2.8 17.1l-1.2 5.3-1.2 5.3c-.2 2-.4 4.1-.5 6.1 0 .8-.1 1.6-.1 2.3s-.1.9-.1 1.3-.1 2.9 0 4.4 0 2.8.1 4.2a45.3 45.3 0 0 0 .8 7.4 16.9 16.9 0 0 0 1.5 4.3 5.1 5.1 0 0 0 .9 1.3l.7.6 1.2.6 1.5.3a6.4 6.4 0 0 0 2-.3 14.5 14.5 0 0 0 3.5-1.2 27 27 0 0 0 3.9-2.7l1.3-1.5a.3.3 0 0 1 .5.4 33.1 33.1 0 0 1-3 3.4 19.8 19.8 0 0 1-4.6 3.6 9.5 9.5 0 0 1-1.7 1l2.4-1.1a28.3 28.3 0 0 0 5.1-4c3.6-3.5 6.3-7.7 9-12 1-1.5 1.8-2.9 2.8-4.5l-1.3-3.3c-.6-1.9-1.1-3.8-1.6-5.7-.9-3.8-1.6-7.6-2.4-11.4s-1.2-4.8-2-7.2-.7-2-1.1-3a21 21 0 0 0-1.3-2.6l-2.2-3.8-.9-1c-2-2.1-4-4.2-5.9-6.4a31.7 31.7 0 0 1-3.6-5.4 6.1 6.1 0 0 0-.1 1.4z" fill="#e9aa58"></path><path d="M244.2 229.1a1.6 1.6 0 0 0-1-.2 2.7 2.7 0 0 0-1.8.8l-1.7 1.8-1.1 1.2-1.3 1.4-1.6 1.8c-1.4 1.5-3.3 3.5-5.3 5.4a35.9 35.9 0 0 1-6.3 4.6l-3.3 1.4-2 .6-2 .6-.4.2-1.9.2c-2.4.2-4.9.7-8.2 1.3l-3.2.8-1.1.3-3.5 1-1 .3-4 1.3-4 1.8a34.4 34.4 0 0 0-3.9 2.1 19.1 19.1 0 0 0-3.4 2.8 14.9 14.9 0 0 0-2.3 2.7l-1.2 2a14.9 14.9 0 0 0-.8 2.3 6.1 6.1 0 0 0-.1 1.4v.4a4.1 4.1 0 0 0 .3 1.6v.3a6.7 6.7 0 0 0 .6 1.2l.2.4a2.4 2.4 0 0 0 .6.8l.5.6h.1a12.4 12.4 0 0 0 2.5 1.8 14.8 14.8 0 0 0 2.9 1.2 53.2 53.2 0 0 0 7.2 1.7l.6.2 6.4 1.3a70.1 70.1 0 0 0 9.3 1.4l3.9.2a43.8 43.8 0 0 0 5.2-.4 31.7 31.7 0 0 0 8.4-2.6l4.1-2.4 3.3-2.7.8-.8a34.6 34.6 0 0 0 6.1-7.9 40.8 40.8 0 0 0 3.8-9.3 51.2 51.2 0 0 0 1.8-12.7 40.3 40.3 0 0 0-.4-6c-.1-.4-.1-.7-.2-1.1a11.1 11.1 0 0 1-.2-1.9 6.5 6.5 0 0 1 0-1.4 14.8 14.8 0 0 0-.1-2.1 1.7 1.7 0 0 0-.3-1 2.2 2.2 0 0 0-1-.7z" fill="#e9aa58"></path><path d="M40.3 308.6l4 1.5a51.2 51.2 0 0 0 6.8 1.4l3.8.6 4.4.3 10.4.8 10.7.6a355.7 355.7 0 0 0 41.3-.3c6.7-.5 13.3-1.4 20-1.3a66.2 66.2 0 0 1 9.9.9c3.2.7 6.4 1.6 9.6 2.6h-.3l13.9 4.3 1.7 1.1c1.8 1.1 3.5 2.4 5.3 3.6a37.7 37.7 0 0 0 5.4 3.4l2 1a2.6 2.6 0 0 1-2.7 1.2l-1.9-.2 2.8.9a36.5 36.5 0 0 0 5.7 1.4 39.2 39.2 0 0 0 6.5.7h1.4a26 26 0 0 0 4-.3 16.9 16.9 0 0 0 5.2-1.5 11.4 11.4 0 0 0 4.2-3.4 9.7 9.7 0 0 0 2-6.3 12.8 12.8 0 0 0-.1-1.9 21.8 21.8 0 0 0-1.3-5 31.7 31.7 0 0 0-2.3-4.5l-.4-.8-.6-1.2c-.8-1.6-1.7-3.2-2.6-4.8a23.3 23.3 0 0 0-1.7-2.6 16 16 0 0 0-2.6-3 17.6 17.6 0 0 0-5.6-3.9 35.6 35.6 0 0 0-3.9-1.3l-4.2-.7a44.1 44.1 0 0 0-5.2-.3 108.6 108.6 0 0 0-12.8 1 108.7 108.7 0 0 1-12.8 1.1h-1.6l-4.1-.4-3.9-.8-1.5-.3-10.6-2.4-4.1-.9h-.4l-16.8-3.8c-8.6-1.7-15.2-2.9-21.5-3.8s-10.7-1.3-16.9-1.6a63.5 63.5 0 0 0 6.5-2.3.5.5 0 0 1-.5-.4.8.8 0 0 1 .4-1l.8-.3c1.9-1.1 3.6-2.5 5.5-3.6a52.8 52.8 0 0 0 5.6-3.5 118.9 118.9 0 0 0 10.2-8.3c3-2.9 6-5.8 8.8-8.8l4.5-4.6 4.4-4.8c2.6-2.9 5.3-5.7 8-8.6s5.7-5.9 8.4-8.9c4.6-5 9.1-10.2 13.3-15.5a62.1 62.1 0 0 0 8.6-8.4l3.6-4.2 3.2-4.2 3-4.2a24.3 24.3 0 0 0 1.4-2l1.5-2.1c1.8-2.7 3.9-5.2 5.9-7.7s4-5.1 5.9-7.8l.7-1.1c.6-2.2 1.1-4.4 1.6-6.5s1.2-5.7 1.4-8.5a45.3 45.3 0 0 0-1-10.4 34 34 0 0 0-2.4-7 31.8 31.8 0 0 0-2.7-3.7l-1-.9-1.1-.5-1.3-.2a7.5 7.5 0 0 0-2.1.2 12.4 12.4 0 0 0-3.2 1.2 14.4 14.4 0 0 0-2.5 1.8c-.2.3-.6-.1-.5-.3l-1.5 1.2c-1.6 1.5-3.2 3.1-4.7 4.8s-4.9 6-7 8.8a1.8 1.8 0 0 0-.5.7l-2.5 3.1-6.1 7.9c-6.1 8.2-12.2 17.3-19.9 29.5l-4.9 8-.7 1.1-3.6 5.8-2.7 4.4-.2.2-4.8 7.8h-.2c-4.5 6.9-9.9 14.9-16.9 21.4a48.6 48.6 0 0 1-10 7.2 41.8 41.8 0 0 1-10.4 3.8 40.9 40.9 0 0 1-5.8.9h-5.3l-2.1.2v.9l.3 3.5c.2 1.8.3 3.5.5 5.3.3 3.8.7 7.5 1.1 11.2.1 1.8.3 3.5.5 5.3v3.1a6.1 6.1 0 0 1-.8 2.7 1.8 1.8 0 0 1-.8.9 2.2 2.2 0 0 1-1.1.5 2.1 2.1 0 0 1-1.2-.3 2.3 2.3 0 0 1-1-.7 3.5 3.5 0 0 1-.5-.8 38.9 38.9 0 0 0-4.9 2l-1.8 1.5-2.2 1.9-4.8 3.7-.7.6a3.5 3.5 0 0 0-.5.8l-3.8 6.6c-1 1.5-2 3.1-3.1 4.5a26 26 0 0 1-3 3.6h-.1a42.3 42.3 0 0 0 4.2 2.4z" fill="#e9aa58"></path><path d="M121.9 71.1a3.8 3.8 0 0 0 1.9.6h.6l1.5-.2a4.4 4.4 0 0 0 1.7-1.2 6 6 0 0 0 1.3-3.2.9.9 0 0 0-.1-.5c-.5-3.3-.9-6.7-1.6-10a.3.3 0 0 1-.1-.2 30 30 0 0 0-3-3.2 17.6 17.6 0 0 0-3-2.4l-.5-.3c-.1 0-.1-.1-.2-.2h-.3a5.9 5.9 0 0 0-2.3-.5 3.2 3.2 0 0 0-1.4.2 4.5 4.5 0 0 0-1.7 1.3 6.2 6.2 0 0 0-1 2.2 9.9 9.9 0 0 0-.3 2.4 10.1 10.1 0 0 0 .2 2.5 15.7 15.7 0 0 0 1.6 5.2l.9 1.5a8.6 8.6 0 0 0 1.4 1.8l.6.5a6.1 6.1 0 0 0 .7 1.4l.8 1h.2a6.6 6.6 0 0 0 2.1 1.3zm1.5-6.2a1 1 0 0 1-.7-.7l-.7-1.4a18.1 18.1 0 0 0-1.8-2.7L119 59a1.3 1.3 0 0 1-.1-.6l-.2-.5.2-.3a1.2 1.2 0 0 1 .8-.4.9.9 0 0 1 .6.3 18 18 0 0 1 2.9 2.6 11.6 11.6 0 0 1 2 3.2 1.3 1.3 0 0 1-.8 1.7 1.2 1.2 0 0 1-1-.1z" fill="#ce803e"></path><path d="M139.9 59.6a10.1 10.1 0 0 0 1.3-1.6 38.3 38.3 0 0 0 2.5-4.4l.3-.6a2.6 2.6 0 0 1-1.3-.6 3.1 3.1 0 0 1-1-1.5 1.3 1.3 0 0 1 .2-1.2.9.9 0 0 1 .7-.3 11.2 11.2 0 0 1 2.4-1.9l1.3-.7.6-2c.4-1.3.7-2.7 1.1-4.1s.6-2.7 1-4.1l-.9.5-.8.4-2.2 2.3-2.4 4.3c-1.1 2-2.2 4-3.4 5.9l-1.3 2a43.4 43.4 0 0 1 .1 5.1v4.3c.6-.6 1.2-1.1 1.8-1.8z" fill="#ce803e"></path><path d="M193.2 89.2h-.1a49.7 49.7 0 0 0-6.9-1.7l1 .9a13.6 13.6 0 0 1 2.1 2.9 64 64 0 0 1 2.9 7.5c.7 2.3 1.3 4.6 1.9 6.8l.4 1.4v.4c.4 1.6.8 3.1 1.3 4.7a14.9 14.9 0 0 1 3.5-2.7l1.5-.8.4-.2 2.1-.8a49.1 49.1 0 0 1 5.1-1.5l.9-.4 1.3-.9a3.9 3.9 0 0 0 .8-1l.4-.7a41 41 0 0 0-4.8-3.7 27.1 27.1 0 0 1-5.4-4.2 22.2 22.2 0 0 1-2.8-3.3l-.3-.5a33.7 33.7 0 0 0-5.4-2.3z" fill="#ce803e"></path><path d="M126.5 116.5a12.6 12.6 0 0 1 .4-2.8 25.2 25.2 0 0 1 1-2.9 48.1 48.1 0 0 1 2.2-4.6 14.2 14.2 0 0 0 .8-1.8 17.4 17.4 0 0 0 1-1.9l.7-1.5a21.6 21.6 0 0 1 2.1-2.9 20.5 20.5 0 0 1 5.3-4.2 29.5 29.5 0 0 1 6.5-2.7c.1 0 .2 0 .2-.1l-.4.4a84.8 84.8 0 0 1 9.9-2.6h-.3c1.1-.3 2.3-.5 3.4-.9l.9-.2 1-.3a5.3 5.3 0 0 1 2-.7h.5a1 1 0 0 1 .7.7.1.1 0 0 0 .1.1v.4l5.3-1.9h-1.5l4.1-1.9 2.4-1.1h.4l3.1-.6.9-.2 1-.5 5.3-2.3.6-.2-3 .2c-2.9.2-5.7.4-8.5.8l-4.2.7h-.7a57.6 57.6 0 0 0-11.6 3.5 37.3 37.3 0 0 0-6.9 3.5 36.1 36.1 0 0 0-4.4 3.3c-2.8.8-5.5 1.6-8.3 2.2l-6.6 1.4c-2.4.4-4.8 1-7.1 1.5a43.7 43.7 0 0 1-5 .9c-.3.7-.5 1.5-.9 2.3a8.2 8.2 0 0 1-1.2 2l-.4.6a23.2 23.2 0 0 0 3.8.6l2.9.2-.7.8a24.3 24.3 0 0 0-1.4 2 21.4 21.4 0 0 0-3.5 6.3c0 .2-.1.3-.1.5l.2.2c3 2.3 5.9 4.6 8.7 7a1.4 1.4 0 0 1-.2-.6 7.4 7.4 0 0 1-.5-2.7z" fill="#ce803e"></path><path d="M128.4 121.5a2.1 2.1 0 0 1-.4-.6 2.1 2.1 0 0 0 .4.6 8 8 0 0 0 1.3 1.3 8 8 0 0 1-1.3-1.3z" fill="#ce803e"></path><path d="M127.9 120.8l-.3-.5z" fill="#ce803e"></path><path d="M127.5 120.2l-.3-.5z" fill="#ce803e"></path><path d="M199.5 45.8c.8-2.6 1.6-5.2 2.3-7.9 0-.2.1-.5.1-.7v-.3a3 3 0 0 0-.4-1l-.4-.6a35.4 35.4 0 0 0-2.3 5.3 43.4 43.4 0 0 0-1.4 6 19.6 19.6 0 0 0-.1 3.4v1.5a2.8 2.8 0 0 0 .1.9.8.8 0 0 1 .1-.4c.6-2.1 1.3-4.1 2-6.2z" fill="#ce803e"></path><path d="M175.5 196.6c.7-1.1 1.5-2.2 2.2-3.4a74.6 74.6 0 0 0 5.5-10.5 98.8 98.8 0 0 0 3.9-10.3 52.6 52.6 0 0 0 1.5-5.3l-.7 1.1c-1.9 2.7-3.9 5.2-5.9 7.8s-4.1 5-5.9 7.7l-1.5 2.1a24.3 24.3 0 0 1-1.4 2l-3 4.2-3.2 4.2-3.6 4.2a62.1 62.1 0 0 1-8.6 8.4c-4.2 5.3-8.7 10.5-13.3 15.5-2.7 3-5.6 6-8.4 8.9s-5.4 5.7-8 8.6l-4.4 4.8-4.5 4.6c-2.8 3-5.8 5.9-8.8 8.8a118.9 118.9 0 0 1-10.2 8.3 52.8 52.8 0 0 1-5.6 3.5c-1.9 1.1-3.6 2.5-5.5 3.6l-.8.3a.8.8 0 0 0-.4 1 .5.5 0 0 0 .5.4h.4a24.2 24.2 0 0 0 5.1-1.9l5.5-2.6 5.1-2.3 5.4-2.9a89.5 89.5 0 0 0 9.7-6.3 101.3 101.3 0 0 0 9-7.2c3.1-2.7 6.1-5.4 9-8.4s5.5-5.6 8.3-8.4l1.7-1.9 6.8-7.2c2.8-3.1 5.6-6.3 8.2-9.6q6.8-8.1 12.9-16.8c1.1-1.5 2.2-3 3.2-4.6-.2.1-.4-.2-.2-.4z" fill="#ce803e"></path><path d="M140.4 321.1a73 73 0 0 1 13.1-1 27.6 27.6 0 0 1 7 1.1c4.1 1.4 8 3.5 12.1 5.2l6.7 2.5 3.3.8 2 .3 1.9.2a2.6 2.6 0 0 0 2.7-1.2l-2-1a37.7 37.7 0 0 1-5.4-3.4c-1.8-1.2-3.5-2.5-5.3-3.6l-1.7-1.1-13.9-4.3h.3c-3.2-1-6.4-1.9-9.6-2.6a66.2 66.2 0 0 0-9.9-.9c-6.7-.1-13.3.8-20 1.3a355.7 355.7 0 0 1-41.3.3l-10.7-.6-10.4-.8-4.4-.3-3.8-.6a51.2 51.2 0 0 1-6.8-1.4l-4-1.5a42.3 42.3 0 0 1-4.2-2.2 12.8 12.8 0 0 1-2.2 1.7l5 4.1a34.1 34.1 0 0 0 7.8 4.6 42.8 42.8 0 0 0 4.6 1.7l5.2 1.4c4.2 1 8.5 1.5 12.7 2.1l6.7.7 7.4.6c4.9.3 9.9.5 14.9.6a255.8 255.8 0 0 0 26.3-.8l1.9-.2c4.7-.3 9.3-1 14-1.7z" fill="#ce803e"></path><path d="M156.3 94.2l.6-.3h.1c2.6-1.4 5.4-2.9 7.3-5.2a.7.7 0 0 0 .2-.6v-.3a.1.1 0 0 1-.1-.1 1 1 0 0 0-.7-.7h-.5a5.3 5.3 0 0 0-2 .7l-1 .3-.9.2c-1.1.4-2.3.6-3.4.9h.3a84.8 84.8 0 0 0-9.9 2.6l.4-.4c0 .1-.1.1-.2.1a29.5 29.5 0 0 0-6.5 2.7 20.5 20.5 0 0 0-5.3 4.2 21.6 21.6 0 0 0-2.1 2.9l-.7 1.5a17.4 17.4 0 0 1-1 1.9 14.2 14.2 0 0 1-.8 1.8 48.1 48.1 0 0 0-2.2 4.6 25.2 25.2 0 0 0-1 2.9 12.6 12.6 0 0 0-.4 2.8 7.4 7.4 0 0 0 .5 2.5 1.4 1.4 0 0 0 .2.6l.3.5h.1l.3.5h.1a2.1 2.1 0 0 0 .4.6 8 8 0 0 0 1.3 1.3 22.5 22.5 0 0 0 3 2.4h.1a.1.1 0 0 0 .1.1l1.8-2.7c1.1-1.7 2.2-3.3 3.4-4.9s.9-2.1 1.4-3a78.4 78.4 0 0 1 5.1-10c.8-1.1 1.5-2.2 2.3-3.1l1.4-1.6a18.5 18.5 0 0 1 1.4-1.4l.6-.5 2.6-2z" fill="#013032"></path><path d="M125.2 63.3a11.6 11.6 0 0 0-2-3.2 18 18 0 0 0-2.9-2.6.9.9 0 0 0-.6-.3 1.2 1.2 0 0 0-.8.4l-.2.3.2.5a1.3 1.3 0 0 0 .1.6l1.2 1.1a18.1 18.1 0 0 1 1.8 2.7l.7 1.4a1 1 0 0 0 .7.7 1.2 1.2 0 0 0 1 .1 1.3 1.3 0 0 0 .8-1.7z" fill="#013032"></path><path d="M142.6 49.4a.9.9 0 0 0-.7.3 1.3 1.3 0 0 0-.2 1.2 3.1 3.1 0 0 0 1 1.5 2.6 2.6 0 0 0 1.3.6h.9l1.4-.2 2.3-.6a34.1 34.1 0 0 0 4.4-2.1l1.8-1.1 1.3-1c.1-.2.3-.3.3-.6a.7.7 0 0 0-.3-.8 6 6 0 0 0-1.6-.8 6.1 6.1 0 0 0-1.8-.5h-.9a11.5 11.5 0 0 0-3.1.4 12.2 12.2 0 0 0-2.4 1l-1.3.7a11.2 11.2 0 0 0-2.4 2z" fill="#013032"></path><path d="M165.8 44.7l-1.2-2.5-1.4-2.1-1.1-1-1.2-.9-.8-.2h-.7a.1.1 0 0 1-.1.1c0 .4-.1.9-.1 1.4a26.8 26.8 0 0 0 .2 4.9 29.4 29.4 0 0 0 0 4.2 47.7 47.7 0 0 0 1.7 9.3 24.7 24.7 0 0 0 1.1 3.6 10.1 10.1 0 0 0 .7 1.5 3.1 3.1 0 0 0 .9 1.1 2.4 2.4 0 0 0 1.6.5l.9-.3a2.4 2.4 0 0 0 1.5-.9 2.2 2.2 0 0 0 .5-.8c0-.1.1-.2.2-.3a3.1 3.1 0 0 0 .5-1 .8.8 0 0 0 .2-.4l1.3-1.4 2.4-3.1c1.2-1.6 2.3-3.3 3.5-5s2.8-4.3 4-6.6l-.3-.3c-.2-.2-.2-.5-.2-.9v-.2a.6.6 0 0 1 .3-.8l2.1-.9h.1a26.1 26.1 0 0 0 1.7-2.8 16.9 16.9 0 0 0 1-2.7 7.6 7.6 0 0 0 .2-2.6 1.2 1.2 0 0 0-.5-1 1.5 1.5 0 0 0-.9-.4h-.5l-.4.2a13.8 13.8 0 0 0-4.2 3.8l-1.9 2.7a33.8 33.8 0 0 0-2.4 4.1 12.9 12.9 0 0 0-.9 1.6 34.2 34.2 0 0 0-2.6 4l-.6 1.1-.7 1.4-.2.5c-.1-.1-.1-.3-.2-.5a20.3 20.3 0 0 0-2-4.2c-.1-.2-.2-.3-.2-.4s-.9-1.2-1.3-1.8z" fill="#ce803e"></path><path d="M162.5 69.4a26.9 26.9 0 0 0-2.9 1.6 1 1 0 0 0-.6.9 1.4 1.4 0 0 0 .2 1.1l.6.5a2.2 2.2 0 0 0 1.3 1 16.2 16.2 0 0 0 3.1.2 13.1 13.1 0 0 0 3.4-.3 13.5 13.5 0 0 0 3.3-.9 7.3 7.3 0 0 0 3-2.2 2.4 2.4 0 0 0 .4-2.3 2.3 2.3 0 0 0-.7-1l-.5-.3a2 2 0 0 0-1.1-.2h-3.1a19.4 19.4 0 0 0-3.3.7 16.3 16.3 0 0 0-3.1 1.2z" fill="#ce803e"></path><path d="M180.2 81.5l-1 .5-.9.2-3.1.6h-.4l-2.4 1.2-4.1 1.9h1.5l2.3.2 3.2.2h1.6a67 67 0 0 1 8.2.8l1.1.2a49.7 49.7 0 0 1 6.9 1.7h.1a33.7 33.7 0 0 1 5.4 2.3c-.7-1-1.3-2.1-1.9-3.1a38.6 38.6 0 0 1-3-8l-.9-3.7-1.1.6-.7.2-2.7.8-2.2.7-.6.2z" fill="#013032"></path><path d="M195.3 75.6a33.3 33.3 0 0 0 3.3 8.6 22.5 22.5 0 0 0 1.2 2.1 59.9 59.9 0 0 1-2.7-11.1l-1.2.3z" fill="#013032"></path><path d="M180.2 42.7a.6.6 0 0 0-.3.8v.2c0 .4 0 .7.2.9l.3.3.5.2h.3l2.6.2 1.6.2h4.2a19.6 19.6 0 0 0 4.1-.7 12 12 0 0 0 4-1.6.6.6 0 0 0 .3-.7.7.7 0 0 0-.6-.7h-.1l-4.2-.8a21.5 21.5 0 0 0-4.3-.4h-.1a20.5 20.5 0 0 0-6.4 1.1z" fill="#013032"></path><path d="M177.4 52.2a8.7 8.7 0 0 0 3.3 1.7 9.7 9.7 0 0 0 3.8.3 22 22 0 0 0 7.4-2.7 1 1 0 0 0 .4-.5 1 1 0 0 0 0-.9 1.1 1.1 0 0 0-.6-.7h-1c-2.1.6-4.1 1.5-6.2 2a13.3 13.3 0 0 1-2.8.3l-1.5-.3-1-.5-.4-.3a1.1 1.1 0 0 0-1.5.2 1 1 0 0 0 .1 1.4z" fill="#013032"></path><path d="M158.5 53.9a.9.9 0 0 0 .2-1.1.9.9 0 0 0-.7-.3l-.4.2-1.8 1.3a11.8 11.8 0 0 1-1.9 1.1 13.6 13.6 0 0 1-2.1 1l-2.2.7a19.7 19.7 0 0 1-2.4.3 1.2 1.2 0 0 0-1.1 1 1 1 0 0 0 .2.9c.2.2.5.5.8.5a4.8 4.8 0 0 0 1.7 0l1.7-.3a8.1 8.1 0 0 0 3-1.3A15 15 0 0 0 156 56z" fill="#013032"></path><path d="M30.1 309.1a4.9 4.9 0 0 0 2.4-.4 3.5 3.5 0 0 0 1.4-.6 12.8 12.8 0 0 0 2.2-1.7h.1a26 26 0 0 0 3-3.6c1.1-1.4 2.1-3 3.1-4.5l3.8-6.6a3.5 3.5 0 0 1 .5-.8l.7-.6 4.8-3.7 2.2-1.9 1.8-1.5a38.9 38.9 0 0 1 4.9-2 3.5 3.5 0 0 0 .5.8 2.3 2.3 0 0 0 1 .7 2.1 2.1 0 0 0 1.2.3 2.2 2.2 0 0 0 1.1-.5 1.8 1.8 0 0 0 .8-.9 6.1 6.1 0 0 0 .8-2.7v-3.1c-.2-1.8-.4-3.5-.5-5.3-.4-3.7-.8-7.4-1.1-11.2-.2-1.8-.3-3.5-.5-5.3l-.3-3.5v-.9c-.1-2 0-4 0-6 .4-7.4 1.3-14.7 1.9-22 .3-3.9.5-7.8.7-11.7a99.2 99.2 0 0 0-.3-10.9 37.2 37.2 0 0 0-1.7-9.2c-.1-1-.3-2.1-.5-3.2a43.5 43.5 0 0 0-4-10.4 112 112 0 0 0-7.9-12.3c-1-1.4-2-2.8-2.9-4.3a87.9 87.9 0 0 1-5.4-8.7c-.8-1.6-1.8-3.4-2.6-5.2a17.5 17.5 0 0 1-1.1-2.4 5.3 5.3 0 0 1-.5-2h-.4c-2.8 1.2-5.6 2.5-8.3 3.9a45.5 45.5 0 0 0-8.1 5 38.3 38.3 0 0 0-7.3 7.2c-4.2 5.8-6.5 12.6-8.7 19.6a132.9 132.9 0 0 0-4.5 19.7 188.2 188.2 0 0 0-2.3 22.4A177.5 177.5 0 0 0 .6 241a159.9 159.9 0 0 0 3.6 22 112.6 112.6 0 0 0 6.4 19.6 92.2 92.2 0 0 0 10.1 17.5l1.3 1.7c.2.5.5.9.7 1.3h.1c1 2.3 2.6 4.7 5.1 5.6h.3l.8.3z" fill="#fff"></path><path d="M138 63.1z" fill="#013032"></path><path d="M221.8 48h-.4a4.6 4.6 0 0 0-2.4 1.2h-.4l-1.8 1.1a10 10 0 0 0-2.5 3.3 9.7 9.7 0 0 0-.8 2.2 1.4 1.4 0 0 0-.2.6c0 .3-.1.6-.1.9a17 17 0 0 0-.1 3.9 5.9 5.9 0 0 0 .2 1.4 5.2 5.2 0 0 0 .8 3 2.9 2.9 0 0 0 1.6 1.1h.2a2.6 2.6 0 0 0 1.7.3 3.9 3.9 0 0 0 1.4-.5.1.1 0 0 1 .1-.1 5.1 5.1 0 0 0 2.4-1 9.6 9.6 0 0 0 2.6-3.7 22.9 22.9 0 0 0 .9-2.8l.5-1.7a8.6 8.6 0 0 0 .1-1.6 6.4 6.4 0 0 0 .2-4.3 6.5 6.5 0 0 0-1.7-2.6 3.3 3.3 0 0 0-2.3-.7z" fill="#e9aa58"></path><path d="M174.3 132.6a14.4 14.4 0 0 1 2.5-1.8 12.4 12.4 0 0 1 3.2-1.2 7.5 7.5 0 0 1 2.1-.2l1.3.2 1.1.5 1 .9a31.8 31.8 0 0 1 2.7 3.7 34 34 0 0 1 2.4 7 45.3 45.3 0 0 1 1 10.4c-.2 2.8-.9 5.6-1.4 8.5s-1 4.3-1.6 6.5a52.6 52.6 0 0 1-1.5 5.3 98.8 98.8 0 0 1-3.9 10.3 74.6 74.6 0 0 1-5.5 10.5c-.7 1.2-1.5 2.3-2.2 3.4s0 .5.2.4h.2a32.8 32.8 0 0 1 3.1-3.4l3.3-3.6 2.9-3.4c1-1.2 2-2.5 2.9-3.8a68.7 68.7 0 0 0 5.1-8.1 52.8 52.8 0 0 0 3.8-8.4 54.2 54.2 0 0 0 2.5-9.8 36.4 36.4 0 0 0 .4-5.7 42.6 42.6 0 0 0-1.8-11.7 31.9 31.9 0 0 0-3.5-7.5 18.1 18.1 0 0 0-2.5-3l-1.2-1.1a6.9 6.9 0 0 0-1.9-1 8.9 8.9 0 0 0-3.2-.8h-2a5.8 5.8 0 0 0-1.8.4 9.9 9.9 0 0 0-3.1 1.5 28.8 28.8 0 0 0-3.3 2.8l-1.8 1.6v.2c-.1.3.3.7.5.4z" fill="#c3cae9"></path><path d="M240.8 212.9a33.1 33.1 0 0 0 3-3.4.3.3 0 0 0-.5-.4l-1.3 1.5a27 27 0 0 1-3.9 2.7 14.5 14.5 0 0 1-3.5 1.2 6.4 6.4 0 0 1-2 .3l-1.5-.3-1.2-.6-.7-.6a5.1 5.1 0 0 1-.9-1.3 16.9 16.9 0 0 1-1.5-4.3 45.3 45.3 0 0 1-.8-7.4c-.1-1.4-.1-2.8-.1-4.2v-4.4c0-1.4.1-.9.1-1.3s.1-1.5.1-2.3c.1-2 .3-4.1.5-6.1v-.3c.2-1.8.5-3.6.7-5.4a.5.5 0 0 0-.5-.5c-.2 0-.3.1-.4.4a31.2 31.2 0 0 1-.9 4.4 19.7 19.7 0 0 1-.7 2.6c-.3.9-.5 1.8-.8 2.7l-.3 1.2c-.7 2-1.3 4.1-1.9 6.2l-.9 2.9-.6 3.2a35.7 35.7 0 0 0-.6 6.5 22 22 0 0 0 1 5.8 10.5 10.5 0 0 0 1.3 2.6l1.2 1.4a6.9 6.9 0 0 0 1.3 1.1l1.6 1 1.6.5a8.1 8.1 0 0 0 3.1.2 17.3 17.3 0 0 0 3.7-1.1 9.5 9.5 0 0 0 1.7-1 19.8 19.8 0 0 0 4.6-3.5z" fill="#c3cae9"></path><path d="M287.5 765.5a31.1 31.1 0 0 0-3.4-7.8 64.1 64.1 0 0 0-5-7.2c-2.1-2.6-4.4-4.9-6.3-6.9s-4-4.1-6.1-6.1h-.1l-.4-.4c-1.5-1.4-3.1-3-4.6-4.6a40.2 40.2 0 0 1-4.4-5.6 49.6 49.6 0 0 1-3.9-6.3 90.8 90.8 0 0 1-4.5-10.7c-1.4-4-2.5-8.1-3.4-11.5s-2-8.5-2.8-12.1l-1.5-6.6-1.8-7.8h-.1v-.3c-6.1-27.4-10.9-55.8-14.8-86.6-.7-5.5-1.3-11.3-1.9-16.4l-.6-5.5c-.8-6.7-1.7-13.8-2.9-21.9-2.1-14.3-4.6-28.7-7.2-43.4l-.6-3.2c-2.3-13.2-4.7-26.8-6.8-40.2-1.2-7.4-2.2-14.8-3.1-21.9-.5-3.3-.9-6.8-1.3-10.5v-1c-.2-1.8-.4-3.8-.6-5.8l-.3-6.7v-1.3c-.1-3.9-.2-7.5-.4-11.1a241.8 241.8 0 0 0-2.3-25.6 83.2 83.2 0 0 0-2.6-11.8 32.4 32.4 0 0 0-4-9.2 14.6 14.6 0 0 0-2.6-3.2l-1.3-1a20.1 20.1 0 0 0-2.9-1.7l-2.3-.8h-.1a5.8 5.8 0 0 0-1.9-.3h-.9a7.9 7.9 0 0 0-3.2.7 5.7 5.7 0 0 0-1.6 1.1 9.4 9.4 0 0 0-1 1 21.6 21.6 0 0 0-8.8 7.5 60.7 60.7 0 0 0-6.9 13.3 156.8 156.8 0 0 0-5.2 17.4 313 313 0 0 0-6.3 38.7c-1.1 9.7-1.9 20-2.5 31.3-.1 1-.2 2-.2 3l-.3 4.8-.3 4.4c-.2 4-.5 8.2-.7 12.3-.4 5.7-.6 11.9-.9 19.4-.9 25.6-.8 52.2.4 79.1s3.3 52.8 6.5 78.8c.8 6.5 1.7 13 2.6 19.5.5 2.9.9 6.1 1.4 9.3l.3 1.6.9 5.5c.5 2.4 1.1 4.9 1.8 7.1s1.6 5.6 2.6 8.7 2.2 6.1 3.3 8.8a63.4 63.4 0 0 0 3.7 7.4 19.2 19.2 0 0 0 1.6 2.1 6.7 6.7 0 0 0 2.3 1.9l1.6.3a3.4 3.4 0 0 0 1.4-.2 4.1 4.1 0 0 0 2.3-2.1 10.2 10.2 0 0 0 1.1-2.9 28.2 28.2 0 0 0 .7-4.7 89.5 89.5 0 0 0 .2-15.7c-.4-6.4-1.2-12.5-2-17.7s-1.7-9.8-2.5-14.5l-.6-3.4c-1.1-6.2-2-11.5-2.7-16.8s-1.2-11.2-1.6-16.6v-1.3c-1-13.1-1.7-26.6-2.2-40.1-1-26.8-.9-53.6.3-79.9.3-6.6.7-13.4 1.1-20.1a10.3 10.3 0 0 0 .1-1.7c.2-2.2.3-4.5.6-6.7s.8-6.1 1.3-9l.2-1.4c.6-4.2 1.2-8.4 1.9-12.6 1.2-7.7 2.4-15.6 3.5-23.4s1.9-13.7 2.7-19.4c.2 1.7.3 3.4.5 5v.8l.6 5.7c.3 4.2.5 8.4.7 12.5.9 16.2 1.5 30.7 1.9 44.3l.3 7.5v2.9c.1 2.2.2 4.4.2 6.6s.2 3.2.2 4.9c.3 7.2.6 14.7.9 21.3v1.5c.3 6.6.7 14.1 1 21.4s.8 14.1 1.3 22.1c.9 15.6 2 30 3.2 44 2.8 32.1 6.4 60.8 11.1 87.9l1.9 10.5v.4c.6 3.5 1.3 7.1 2.1 10.5a74 74 0 0 0 5.1 15.7 72.7 72.7 0 0 0 19.9 25.3 70.2 70.2 0 0 0 13.9 8.9c2.1 1 4.2 1.8 6.3 2.7l6.3 2.4a83.7 83.7 0 0 0 14.1 3.8 50.9 50.9 0 0 0 5.6.4h.9a19.1 19.1 0 0 0 6.3-1.3 12.9 12.9 0 0 0 3.2-1.8 11.3 11.3 0 0 0 2.6-2.8 17.1 17.1 0 0 0 3.1-7.5 14.7 14.7 0 0 0 .1-3.7 35.8 35.8 0 0 0-.5-3.7zm-98.8-376.6a2.5 2.5 0 0 1-1.8 1 2.9 2.9 0 0 1-2-.7 2.2 2.2 0 0 1-1-1.8 2.6 2.6 0 0 1 2.5-3 2.7 2.7 0 0 1 3 2.5 3.1 3.1 0 0 1-.7 2z" fill="#c3cae9"></path><path d="M218.2 349.2c.1 1 .3 2.1.4 3l.2.9.2 1.3v.4a17 17 0 0 0 .4 2.2c.2 1.7.6 3.5.8 5 .6 3 1.1 5.9 1.5 8.9a.6.6 0 0 0 .1.4l.7 5 .2 1.7c.3 2.1.6 4.2 1 6.3 1.3 8.9 2.6 17.9 3.8 26.6.7 4.6 1.4 9.1 2 13.7l1.2 8v.7c3.4 23.5 6.9 47.9 10.7 71.8s7.8 47.2 11.8 68.1c2.1 11.2 4.5 22.7 7 34.3 1.2 5.5 2.4 11.1 3.7 16.6l2.1 8.7c.1.6.3 1.2.4 1.8l.2.7c.3 1.3.6 2.7 1 4 .7 3.3 1.2 6.6 1.6 9.5s.9 5.6 1.2 8.4v.4l.5 3.2c1.2 8.4 2.6 17.4 4.6 26.3s4.9 16.9 8.4 23a29 29 0 0 0 11.8 11.6 21.4 21.4 0 0 0 6 2.3 21.9 21.9 0 0 0 4.7.5h.8a22.7 22.7 0 0 0 5.7-1.1 22 22 0 0 0 4.9-2.2 40.4 40.4 0 0 0 5-3.4 52 52 0 0 0 8.6-9.3 77.6 77.6 0 0 0 6.8-11.5 66.9 66.9 0 0 0 4.2-11.1 65.3 65.3 0 0 0 2-12.6c.1-2.6.2-5.2.2-7.8a21 21 0 0 0 5 4.9 15.8 15.8 0 0 0 7.5 3.1h1.8a21.4 21.4 0 0 0 5.4-.8 21 21 0 0 0 3.9-1.7 27 27 0 0 0 3.3-2.2 18.3 18.3 0 0 0 4.5-6.1 23.7 23.7 0 0 0 1.8-7.2c.5-5.5-.4-11-1.4-16.2l-.6-3.3.4.3a6.2 6.2 0 0 0 1.7 1.1 5.3 5.3 0 0 0 1.7.8l1.7.3h1.8l1.8-.4 1.7-.8 1.5-1a17.5 17.5 0 0 0 4.7-6.6 19.7 19.7 0 0 0 1.4-4.3 34.4 34.4 0 0 0 .6-5.3 30 30 0 0 0-1.9-11c-1.4-4.1-3.2-8.5-5.5-13.6s-4.1-8.6-6.8-13.7c-7.5-14.2-16.3-28-24.8-41.4l-7-11.1c-3.1-4.9-5.5-9-7.8-12.7s-4.4-7.6-6.5-11.3l-1.4-2.4c-5.8-10-11.1-19.3-16.2-28.3-6.9-12.3-12.8-23.2-18.2-33.3h-.1v-.3h-.1l-3.2-6.1c-1.1-2.3-2.3-4.5-3.5-6.8-3.8-7.2-7.3-14.6-10.8-21.7l-.3-.7c-3.6-7.5-7.5-15.4-11.6-23.2a222.5 222.5 0 0 0-13.4-22.3 111.8 111.8 0 0 0-11.4-14.3l-.4-.9a51.8 51.8 0 0 0-6.1-9.8 25.1 25.1 0 0 0-3.2-3.3 11.5 11.5 0 0 0-1.9-1.4l-1.7-.8-1.8-.4h-2l-1.2.3-1.1.5-1.7 1.4a7.9 7.9 0 0 0-1.2 1.5 20 20 0 0 0-1.5 2.6 18.5 18.5 0 0 0-1.2 3.3c-.4 1.2-.7 2.5-1 3.8a1.3 1.3 0 0 0-.1.6.9.9 0 0 0-.6.3.9.9 0 0 0-.1.5c.1.9.3 1.8.4 2.7s.2 1.6.3 2.4zm123.4 200.2a3.1 3.1 0 0 1 2.3-1.2 3.5 3.5 0 0 1 2.6.8 3.5 3.5 0 0 1 1.2 2.3 3.4 3.4 0 0 1-.8 2.6 3.5 3.5 0 0 1-2.3 1.2 4 4 0 0 1-2.6-.8 3.5 3.5 0 0 1-1.2-2.4 3.3 3.3 0 0 1 .8-2.5zm-31.2 50.3a3.1 3.1 0 0 1 2.2-1.1 3.3 3.3 0 0 1 2.3.7 2.9 2.9 0 0 1 1.1 2.2 2.8 2.8 0 0 1-.7 2.3 3 3 0 0 1-4.5.4 3 3 0 0 1-1.2-2.1 3.5 3.5 0 0 1 .8-2.4zm-37.5-94.6a3.7 3.7 0 0 1 2.4-1.2 3.9 3.9 0 0 1 2.5.8 3.5 3.5 0 0 1 1.2 2.3 3.4 3.4 0 0 1-.8 2.6 3.5 3.5 0 0 1-2.3 1.2 3.6 3.6 0 0 1-3.8-3.2 3.8 3.8 0 0 1 .8-2.5zm-15.3-66a3.6 3.6 0 0 1 2.5-1.3 3.9 3.9 0 0 1 2.8.8 4 4 0 0 1 1.4 2.6 4.7 4.7 0 0 1-.9 2.8 3.6 3.6 0 0 1-2.6 1.3 4.8 4.8 0 0 1-2.8-.8 4.3 4.3 0 0 1-1.3-2.6 3.7 3.7 0 0 1 .9-2.8z" fill="#c3cae9"></path><path d="M323.2 766.6a16.3 16.3 0 0 0 2.2 3.2c4.9 5.7 12.6 7.8 18 8.9a50 50 0 0 0 10.3 1.1 54.7 54.7 0 0 0 9-.8 73.9 73.9 0 0 0 18.7-5.8 125.2 125.2 0 0 0 13.2-7l6.3-3.8.8-.5 3.2-2c3.3-1.6 6.8-3.1 10.1-4.5l1.8-.7h.3c4.4-1.9 9-3.8 13.3-6a55.5 55.5 0 0 0 6.1-3.5 15.6 15.6 0 0 0 2-1.6 22.8 22.8 0 0 0 2.2-2.2 12 12 0 0 0 2.4-5.3 11.4 11.4 0 0 0 .2-2.7 19.5 19.5 0 0 0-.6-2.7 25.6 25.6 0 0 0-1.1-2.4h-.1a16.7 16.7 0 0 0-1.3-2 23.4 23.4 0 0 0-4.2-4.3 37 37 0 0 0-5.3-3.8c-1.7-1.1-3.5-2.2-5.5-3.3a194.8 194.8 0 0 0-21.8-9.5c-2.2-.8-4.8-1.7-7.5-2.4a35.4 35.4 0 0 0-7.3-.7h-1.5a37.5 37.5 0 0 0-8.2 1.3 42.7 42.7 0 0 0-7.5 2.7 76.4 76.4 0 0 0-14.2 9c-2.2 1.6-4.4 3.5-7.1 5.9s-4.1 3.2-6.2 4.9a97.7 97.7 0 0 0-9.8 9.3l-1.4 1.1-.9.7-3.6 3.2a.8.8 0 0 0-.2 1.2.7.7 0 0 0 .6.4c-3.7 5-5.8 9.4-6.7 13.9a23.8 23.8 0 0 0-.3 3.9 13.2 13.2 0 0 0 .5 3.7 12.8 12.8 0 0 0 1.1 3.1zm79.2-33.5a2.7 2.7 0 0 1 1.9-1 3.1 3.1 0 0 1 2.1.7 3.5 3.5 0 0 1 1 1.9 3.1 3.1 0 0 1-.7 2.1 2.7 2.7 0 0 1-1.9 1 3.1 3.1 0 0 1-2.1-.7 2.6 2.6 0 0 1-1-1.9 3.3 3.3 0 0 1 .7-2.1z" fill="#c3cae9"></path><path d="M494.4 775.7a25.1 25.1 0 0 0-5.7 2.2 17.1 17.1 0 0 0-6.4 5.4 1.3 1.3 0 0 0-.3.8 1.1 1.1 0 0 0 0 .8 1.8 1.8 0 0 0 .5.7l.7.4a39.7 39.7 0 0 0 4.8.7h.2c2.4.2 4.9.3 7.3.3h4.4a22.5 22.5 0 0 0 3.6-.6 9.9 9.9 0 0 0 2.8-1.2 4.1 4.1 0 0 0 1-.9 3 3 0 0 0 .8-1.7 1.7 1.7 0 0 0 .1-.7v-1a5 5 0 0 0-.4-1.3l-.6-1.2a6.7 6.7 0 0 0-1.4-1.6 11.7 11.7 0 0 0-2-1.2 10.3 10.3 0 0 0-2.1-.7l-2-.4h-2.3l-1.9.3a1.6 1.6 0 0 0-.8.6z" fill="#c3cae9"></path><path d="M216.1 158.9a2.5 2.5 0 0 0 1.6-.8 2.7 2.7 0 0 0 .6-1.7 2.6 2.6 0 0 0-.9-1.7 2.6 2.6 0 0 0-1.7-.5 2.3 2.3 0 0 0-1.6.8 2.8 2.8 0 0 0-.6 1.8 2.6 2.6 0 0 0 .9 1.6 2.5 2.5 0 0 0 1.7.5z" fill="#fff"></path><path d="M214.7 180.3a3.3 3.3 0 0 0 .8-2.4 3.5 3.5 0 0 0-1.2-2.2 3.4 3.4 0 0 0-2.4-.7 3.1 3.1 0 0 0-2.9 3.5 2.7 2.7 0 0 0 1.1 2.2 3.5 3.5 0 0 0 2.4.8 3.2 3.2 0 0 0 2.2-1.2z" fill="#fff"></path><path d="M206.5 199.6a4.2 4.2 0 0 0-2.9-.9 4 4 0 0 0-2.7 1.4 3.9 3.9 0 0 0-.9 2.9 4 4 0 0 0 1.4 2.7 4.4 4.4 0 0 0 2.9.9 3.6 3.6 0 0 0 2.7-1.4 3.8 3.8 0 0 0 .9-2.9 4.2 4.2 0 0 0-1.4-2.7z" fill="#fff"></path><path d="M185.2 224.8a3.8 3.8 0 0 0 2.6.8 3.2 3.2 0 0 0 2.3-1.3 3.9 3.9 0 0 0 .9-2.6 3.8 3.8 0 0 0-3.9-3.2 3 3 0 0 0-2.3 1.3 3.9 3.9 0 0 0-.9 2.6 3.8 3.8 0 0 0 1.3 2.4z" fill="#fff"></path><path d="M172.7 244a3.4 3.4 0 0 0 3.1-3.6 3.5 3.5 0 0 0-1.2-2.3 3.6 3.6 0 0 0-2.5-.8 3.2 3.2 0 0 0-2.2 1.2 3.3 3.3 0 0 0-.8 2.5 3.5 3.5 0 0 0 1.2 2.3 3.4 3.4 0 0 0 2.4.7z" fill="#fff"></path><path d="M216.4 232.2a2.4 2.4 0 0 0-1.8.9 2.5 2.5 0 0 0-.6 2 2.6 2.6 0 0 0 .9 1.8 3.3 3.3 0 0 0 1.9.6 2.5 2.5 0 0 0 1.8-1 2.2 2.2 0 0 0 .6-1.9 2.4 2.4 0 0 0-.9-1.8 2.7 2.7 0 0 0-1.9-.6z" fill="#fff"></path><path d="M137.7 386.1a4.5 4.5 0 0 0 1-3.1 4.3 4.3 0 0 0-1.5-2.8 4.6 4.6 0 0 0-3-.9 4 4 0 0 0-2.8 1.4 4.5 4.5 0 0 0-1 3.1 4.6 4.6 0 0 0 1.5 2.8 4.6 4.6 0 0 0 3 .9 4 4 0 0 0 2.8-1.4z" fill="#fff"></path><path d="M123.8 456.7a3.3 3.3 0 0 0 .7-2.4 3.9 3.9 0 0 0-1.1-2.2 3.4 3.4 0 0 0-2.4-.7 3.1 3.1 0 0 0-2.2 1.1 3.2 3.2 0 0 0 .4 4.6 3.5 3.5 0 0 0 2.4.8 3.2 3.2 0 0 0 2.2-1.2z" fill="#fff"></path><path d="M126.5 538.6a3.3 3.3 0 0 0-2.5-.8 3.5 3.5 0 0 0-2.4 1.2 3.5 3.5 0 0 0-.8 2.6 3.3 3.3 0 0 0 1.2 2.4 4 4 0 0 0 2.6.8 3 3 0 0 0 2.3-1.3 3.8 3.8 0 0 0 .9-2.5 3.6 3.6 0 0 0-1.3-2.4z" fill="#fff"></path><path d="M266.9 713.9a3.6 3.6 0 0 0 2.6.9 3.2 3.2 0 0 0 2.4-1.3 3.5 3.5 0 0 0 .8-2.6 3.1 3.1 0 0 0-1.2-2.4 3.6 3.6 0 0 0-2.6-.9 3.2 3.2 0 0 0-2.4 1.3 3.6 3.6 0 0 0-.9 2.6 3.8 3.8 0 0 0 1.3 2.4z" fill="#fff"></path><path d="M313.1 605a3.2 3.2 0 0 0 2.2-1.2 2.8 2.8 0 0 0 .7-2.3 2.9 2.9 0 0 0-1.1-2.2 3.3 3.3 0 0 0-2.3-.7 3.1 3.1 0 0 0-2.2 1.1 3.5 3.5 0 0 0-.8 2.4 3 3 0 0 0 1.2 2.1 3.2 3.2 0 0 0 2.3.8z" fill="#fff"></path><path d="M366.7 696.7a2.5 2.5 0 0 0 1.8-1 3.1 3.1 0 0 0 .7-2 2.5 2.5 0 0 0-1-1.8 2.8 2.8 0 0 0-2-.6 2.4 2.4 0 0 0-1.8.9 2.5 2.5 0 0 0-.6 2 2.4 2.4 0 0 0 .9 1.8 3.1 3.1 0 0 0 2 .7z" fill="#fff"></path><path d="M190.5 732.7a3.1 3.1 0 0 0-2.3 1.2 3.3 3.3 0 0 0-.7 2.4 3 3 0 0 0 1.1 2.2 3.9 3.9 0 0 0 2.5.8 3.2 3.2 0 0 0 2.2-1.2 3 3 0 0 0 .8-2.4 3 3 0 0 0-1.2-2.2 3.5 3.5 0 0 0-2.4-.8z" fill="#fff"></path><path d="M275.9 510.8a3.5 3.5 0 0 0 2.3-1.2 3.4 3.4 0 0 0 .8-2.6 3.5 3.5 0 0 0-1.2-2.3 3.9 3.9 0 0 0-2.5-.8 3.7 3.7 0 0 0-2.4 1.2 3.8 3.8 0 0 0-.8 2.5 3.6 3.6 0 0 0 3.8 3.2z" fill="#fff"></path><path d="M234.3 556a4 4 0 0 0 2.6.8 3.6 3.6 0 0 0 2.5-1.3 3.4 3.4 0 0 0 .8-2.6 3.8 3.8 0 0 0-1.3-2.4 3.5 3.5 0 0 0-5.1.4 3.5 3.5 0 0 0-.8 2.6 3.8 3.8 0 0 0 1.3 2.5z" fill="#fff"></path><path d="M173.5 580.9a2.8 2.8 0 0 0-2 1 3.1 3.1 0 0 0-.6 2.1 2.6 2.6 0 0 0 1 2 3.1 3.1 0 0 0 2.1.6 2.6 2.6 0 0 0 2-1 3.1 3.1 0 0 0 .7-2.1 2.9 2.9 0 0 0-3.2-2.6z" fill="#fff"></path><path d="M258 444.5a4.8 4.8 0 0 0 2.8.8 3.6 3.6 0 0 0 2.6-1.3 4.7 4.7 0 0 0 .9-2.8 4 4 0 0 0-1.4-2.6 3.9 3.9 0 0 0-2.8-.8 3.8 3.8 0 0 0-3.4 4.1 4.3 4.3 0 0 0 1.3 2.6z" fill="#fff"></path><path d="M220.1 436.7a3.1 3.1 0 0 0 2.2-1.1 3.2 3.2 0 0 0 .8-2.4 3 3 0 0 0-1.2-2.2 3.5 3.5 0 0 0-2.4-.8 2.9 2.9 0 0 0-2.2 1.2 3.2 3.2 0 0 0-.7 2.3 3.4 3.4 0 0 0 1.1 2.3 3.4 3.4 0 0 0 2.4.7z" fill="#fff"></path><path d="M186.4 384.4a2.6 2.6 0 0 0-2.5 3 2.2 2.2 0 0 0 1 1.8 2.9 2.9 0 0 0 2 .7 2.5 2.5 0 0 0 1.8-1 3.1 3.1 0 0 0 .7-2 2.7 2.7 0 0 0-3-2.5z" fill="#fff"></path><path d="M225.7 306.5l.2.2a7.9 7.9 0 0 1 1.5 1.2 2.5 2.5 0 0 0 3.5-.4 2.2 2.2 0 0 0 .5-1.7 2.2 2.2 0 0 0-.9-1.7 10.5 10.5 0 0 0-2.7-2 2 2 0 0 0-1-.2 2.4 2.4 0 0 0-2.3 1.4 2.5 2.5 0 0 0-.1 1.9 2.7 2.7 0 0 0 1.3 1.3z" fill="#fff"></path><path d="M344.6 555.1a3.5 3.5 0 0 0 2.3-1.2 3.4 3.4 0 0 0 .8-2.6 3.5 3.5 0 0 0-1.2-2.3 3.5 3.5 0 0 0-2.6-.8 3.1 3.1 0 0 0-2.3 1.2 3.3 3.3 0 0 0-.8 2.5 3.5 3.5 0 0 0 1.2 2.4 4 4 0 0 0 2.6.8z" fill="#fff"></path><path d="M294.3 750.8a3.1 3.1 0 0 0-2.1 1.1 3.2 3.2 0 0 0-.7 2.3 3.3 3.3 0 0 0 1.1 2.1 3.2 3.2 0 0 0 2.3.7 3.1 3.1 0 0 0 2.8-3.3 2.8 2.8 0 0 0-1.1-2.2 3.5 3.5 0 0 0-2.3-.7z" fill="#fff"></path><path d="M404.8 737.8a2.7 2.7 0 0 0 1.9-1 3.1 3.1 0 0 0 .7-2.1 3.5 3.5 0 0 0-1-1.9 3.1 3.1 0 0 0-2.1-.7 2.7 2.7 0 0 0-1.9 1 3.3 3.3 0 0 0-.7 2.1 2.6 2.6 0 0 0 1 1.9 3.1 3.1 0 0 0 2.1.7z" fill="#fff"></path><path d="M354.4 792.6a3 3 0 0 0-2 1 3.3 3.3 0 0 0-.7 2.1 3.1 3.1 0 0 0 1.1 2 3.1 3.1 0 0 0 2.1.7 2.5 2.5 0 0 0 1.9-1.1 3 3 0 0 0 .7-2.1 2.9 2.9 0 0 0-3.1-2.6z" fill="#fff"></path><path d="M516.3 785.7a33.1 33.1 0 0 0-5.5.5c-5 .8-9.9 2.4-14.8 3.5a50.5 50.5 0 0 1-11.6 1.5c-5.4-.3-10.7-1.7-16.1-2.5a38.4 38.4 0 0 0-8.3-.1 10.2 10.2 0 0 1 .3-3 17.3 17.3 0 0 1 1-2.4 19.4 19.4 0 0 1 3.3-4.4l.3-.3 1.4-.9c1.7-1.2 3.6-2.3 5.4-3.4l5.6-3.1a24.8 24.8 0 0 1 3.7-1.7l4.7-2.1c1.8-.9 3.5-1.8 5.1-2.8a20.2 20.2 0 0 0 4.2-3.5 6.1 6.1 0 0 0 1.3-1.5l.8-1.3a5.2 5.2 0 0 0 .6-1.6 8 8 0 0 0-.3-5.1 12.8 12.8 0 0 0-1.5-2.5 14.3 14.3 0 0 0-2.6-2.3 6 6 0 0 0-1.5-.9l-1.7-.6a7.2 7.2 0 0 0-2.5-.3h-.5a9.3 9.3 0 0 0-2.9.5 13.9 13.9 0 0 0-2.6 1 26.8 26.8 0 0 0-5.2 3.6 80.3 80.3 0 0 0-8.2 8.3c-3.7 4.3-7.2 8.8-10.6 13.3-1.8 2.2-3.5 4.5-5.2 6.8s-3.6 4.7-5.4 6.9l-4.7 5.4a49.3 49.3 0 0 1-7.3 4.1 22.7 22.7 0 0 1-3.9 1.6 35.2 35.2 0 0 1-4.5 1.3l-1.2.2 5.9-.2h2l4.7.3c3.2.3 6.4.5 9.7.5a61.9 61.9 0 0 0 6.3-.3l3.2-.6h5l6.6 1.6 7.8 1.4 8.6 1.2q4.8.4 9.6.6a81.9 81.9 0 0 0 8.6-.1 68.2 68.2 0 0 0 7.9-.8 40.9 40.9 0 0 0 7.5-1.8 20.8 20.8 0 0 0 4.7-2.4 10.7 10.7 0 0 0 3.7-4.2 4 4 0 0 0 .2-3.4 4.3 4.3 0 0 0-2.3-2.5 31.8 31.8 0 0 0-5.3-1.4l-1.5-.2z" fill="#717688"></path><path d="M407 623.3a.8.8 0 0 0-.7.8 19 19 0 0 1 .1 3.4 16.3 16.3 0 0 1-.8 4.3 22.1 22.1 0 0 1-1.6 3.5 46.1 46.1 0 0 1-6.3 6.9l-4.9 4.5a32.7 32.7 0 0 0-4.4 4.7 14.5 14.5 0 0 0-2 3.4 27 27 0 0 0-1.6 4.8c-.6 2.2-.9 4.4-1.4 6.5a13.4 13.4 0 0 1-1.2 2.4 18.4 18.4 0 0 1-2.3 2.7 69.1 69.1 0 0 1-6.2 4.4l-3.8 2.5-3 1.8a21.5 21.5 0 0 1-2.7 1l-4.2.5a35.5 35.5 0 0 0-4.7.6l-2.6.7a9.2 9.2 0 0 0-2.4 1.3 20.9 20.9 0 0 0-2.2 2 13.7 13.7 0 0 0-1.6 1.8 31 31 0 0 0-2.6 4.7 41.4 41.4 0 0 0-1.9 4.9c-1.2 3.5-2.1 7-3.2 10.5a40.9 40.9 0 0 1-3.4 7.7 40.4 40.4 0 0 1-4.8 5.4 48.3 48.3 0 0 1-6.8 5.1 74.9 74.9 0 0 1-7.2 4.2l-4.9 2.5-5.1 2.6a83 83 0 0 0-9.8 6c-.3.2 0 .7.4.5a37.6 37.6 0 0 1 5-3.1 72.6 72.6 0 0 1 8.6-3.8l8.9-3.3a63.6 63.6 0 0 0 16.9-8.9 31.4 31.4 0 0 0 6.2-6.4 67.3 67.3 0 0 0 4.4-7.8c2.4-4.8 4.2-9.9 6.9-14.5a32.5 32.5 0 0 1 2.3-2.9l1.1-.7 4.7-2.1c1.9-.7 3.8-1.4 5.7-1.9l5.4-1.9c2.3-.8 4.7-1.7 6.9-2.7a26.8 26.8 0 0 0 6.6-4.3 22.7 22.7 0 0 0 3-3.2 23 23 0 0 0 2.1-3.3 20.6 20.6 0 0 0 1.2-3.5 26.1 26.1 0 0 0 .6-2.7c.4-1.8.7-3.5 1.2-5.2l.9-2.2a5.9 5.9 0 0 1 .4-.8 24.4 24.4 0 0 1 1.4-2.8c1.4-2 2.9-3.9 4.4-5.9a48.5 48.5 0 0 0 4.7-7.1 19 19 0 0 0 2.4-12.2l-.6-2.7a20.9 20.9 0 0 0-.8-2.3.7.7 0 0 0-.7-.4z" fill="#717688"></path><path d="M256.5 16.3c-3.3.9-6.6 2.1-9.9 3.2l-10 3.3-4.7 1.6-5.2 1.6a2.1 2.1 0 0 0-1.4 1.2 2.3 2.3 0 0 0 0 1.8 1.1 1.1 0 0 0 .3.6 2.5 2.5 0 0 0 .1 1.2 2 2 0 0 0 2.5 1.1l4.8-1.4c5.8-1.2 11.8-1.9 17.7-2.6a91 91 0 0 0 9.1-1.6l4.7-1.1 2.1-.7h.2l1.3-.7a4 4 0 0 0 1.2-1 2.8 2.8 0 0 0 .5-2.9 3.2 3.2 0 0 0-1-1.3V18a2.9 2.9 0 0 0-.5-1.4 5.2 5.2 0 0 0-1.1-1l-1.2-.3-1.8-.2h-2.4a49.9 49.9 0 0 0-5.3 1.2z" fill="#f6b707"></path></g></g></svg>