<svg xmlns="http://www.w3.org/2000/svg" width="583.1" height="1013.9" viewBox="-0.0058861286379396915 0.009387493133544922 583.0790405273438 1013.8582763671875" style=""><g><title>licfloral41_101332744</title><g data-name="Layer 2" style="isolation:isolate"><path d="M419 401.3c-12.7 37-117.1 5-120.1-42.1s-7.2-57.2 16.8-54 36.6-48.7 52.7-10.4 60 78.9 50.6 106.5z" fill="#edb0a2"></path><path d="M419.8 404.6c-6.4 13.1-25.2 18-50.4 13-34.3-6.7-70.7-30.4-72.4-58.2-.4-6.2-.9-11.7-1.2-16.6-1.3-18.1-2.1-28.1.8-34s9.9-6.8 19.4-5.6 16.7-6.7 23.4-13.6 11.8-11.9 18-10.8 8.8 5.8 12.9 15.3c5.8 14 15.5 28.4 25 42.3 16.4 24.3 31.8 47.3 25.5 65.6a13.9 13.9 0 0 1-1 2.6zm-119.6-94.1c-2.4 5-1.6 15.2-.4 32 .3 4.9.8 10.4 1.1 16.6 1.7 26 36.6 48.1 69.2 54.6 24.3 4.8 42.6-.1 47-13 5.6-16.4-9.3-38.6-25.2-62.1-9.4-14.1-19.3-28.6-25.3-43-3.4-7.9-6.7-12.2-10-12.8s-9.1 4.2-14.3 9.6c-7.5 7.6-15.9 16.1-26.8 14.7s-13.8.3-15.3 3.4z" fill="#fff"></path><path d="M408.6 404c-5.8 17.3-54.6 2.3-56-19.7-.3-4.8 15.5 6.3 15.4 3-.8-11.8-16.4-29.4-7.6-28.3 3.7.5 14.8 19.6 17.6 17 5.7-5.5 2-33.9 7.1-21.8 7.5 17.8 28 36.9 23.5 49.8z" fill="#edb0a2" style="mix-blend-mode:multiply"></path><path d="M431.6 413.8c8.7 29.6 103 51.7 130.9 34.5s19.3-37.4 6.9-56.8-23.4-11.9-27.3-36.1-28.2-20.3-62.2 5.9-57.5 21.4-48.3 52.5z" fill="#edb0a2"></path><path d="M580.4 433.1c-3.1 6.2-8.6 11.8-16.8 16.9-18.8 11.5-64.1 5.8-95.4-6.1-12.5-4.8-34.3-15.1-38.6-29.6-2.7-9.2-2.7-15.6-.2-20.8 3.3-6.8 10.5-10.7 20.6-15.9 7.9-4.3 17.8-9.5 28.7-17.8 23.8-18.4 42.4-25.8 53.9-21.2q9.3 3.6 11.4 16.5c2.1 13.3 6.4 16.2 12.2 20.3a48.5 48.5 0 0 1 14.9 15c8.8 13.9 16.1 28.7 9.3 42.7zM433 395.2c-2.1 4.2-1.9 10 .5 18s15.9 19.2 36.2 27c30.5 11.6 74.6 17 91.8 6.4 7.5-4.6 12.7-9.7 15.3-15.3 6-12.1-.9-25.8-9.1-38.8a43.9 43.9 0 0 0-13.8-13.9c-6.1-4.2-11.4-7.9-13.9-22.9-1.1-7-4.1-11.5-8.8-13.4-10-4-27.8 3.4-50.1 20.6-11.1 8.6-21.2 13.9-29.3 18.2s-16 8.4-18.8 14.1z" fill="#fff"></path><path d="M440.4 413.5c4.8 16.3 55.9 31.9 71.2 22.4 5.5-3.3-20-5.8-18.6-10.1 2.2-7.7 31-7.6 26.6-14.5-6.8-10.7-44.3 11.1-16.2-17.5 9.4-9.6-10.9-18.3-29.6-3.9s-38.4 6.6-33.4 23.6z" fill="#edb0a2" style="mix-blend-mode:multiply"></path><path d="M440.7 412.7c17.1 14.4 51.8 5.5 78.2-31.7s18.4-53.6 3.7-64.8-38.1-42.5-54.4-2.6-59.3 72.5-27.5 99.1z" fill="#edb0a2"></path><path d="M531.9 363.3a135.4 135.4 0 0 1-11.4 18.9c-15.6 22.1-35.6 36.2-54.8 38.7-10.3 1.3-19.6-1-26.3-6.7-17.5-14.6-12.7-30.9-6.5-43.5a237.9 237.9 0 0 1 14-23.6c7.1-10.8 14.5-22.2 19.4-34.3s11.2-19.1 18.8-20.6c11-2.1 22.1 7.9 31.2 16 2.7 2.4 5.3 4.7 7.5 6.4 10.8 8.3 21.5 21.2 8.1 48.7zm-95.5 9.1c-8.2 17-6.6 28.6 5.6 38.8 5.9 4.9 13.9 7 23.2 5.7 18.1-2.3 37.1-15.8 52.1-37a130.8 130.8 0 0 0 11-18.4c12.1-24.7 3.3-35.9-6.9-43.7-2.4-1.8-5-4.2-7.8-6.7-8.3-7.4-18.7-16.7-27.7-15-6.1 1.2-11.2 7.2-15.9 18.2s-12.5 24-19.7 35a214.2 214.2 0 0 0-13.9 23.1z" fill="#fff"></path><path d="M447.4 411.1c5.9 4 23.8 6 42.8-14 8.2-8.7-7-.7-11.2-2.7-1.8-.9-.6-3.7 2.5-8.9 5.1-8.9-.1-15-9.8-3.1-2 2.4-21.8 26.9-1.5-18.4 7.1-15.7 2.7-21.6-8-6.9-14 19.1-25.9 46.5-14.8 54z" fill="#edb0a2" style="mix-blend-mode:multiply"></path><path d="M441.4 404c-16.8 13.8-57.8-3.5-79.6-46.9s-6.1-87.1 16.6-79 70.9-24.9 77.2 10.6 1.9 102-14.2 115.3z" fill="#edb0a2"></path><path d="M449.1 396.5c-1.9 4-4.1 7.1-6.5 9-5.8 4.8-14.4 6.3-24.1 4.2-16.8-3.5-42.1-19.2-58.4-51.7-14.6-29.1-12-55.3-5.4-68.9 5.6-11.6 14.7-16.4 24.4-12.9 7.9 2.8 19.8.1 31.5-2.5 14.2-3.2 28.9-6.5 38.3-.3 4.4 3 7.4 8 8.6 15 5.3 31 2.9 85-8.4 108.1zm-90.8-105.7c-6.7 13.8-7.7 39.4 5.3 65.4 15.7 31.3 39.8 46.3 55.7 49.6 8.6 1.9 15.9.6 20.8-3.3a23.5 23.5 0 0 0 5.5-7.7c10.9-22.5 13.2-75.3 8-105.7-1.1-6-3.4-10-7-12.4-7.8-5.3-21.8-2.1-35.1.9s-24.7 5.5-33.7 2.3-14.8 1.3-19.5 10.9z" fill="#fff"></path><path d="M433 399.7c-7.4 6.1-30.8-5.1-42.6-23-19.6-30-7.1-41.7 6.9-20.7s12.2-4.4 17.8-6.2c8.9-2.9 8.2 27.5 12.5 27.2 5.9-.4 7.4-20.1 12.2-18.1 9.6 4.2.3 34.8-6.8 40.8z" fill="#edb0a2" style="mix-blend-mode:multiply"></path><path d="M413.6 435.3c-25.7-9.5-36.1-28.6-37.6-36.7 1.6-2.9 13 3.8 22.5 6.5 4.3 1.1 1.4-13.9 5.2-17.3s14.1 9.4 17.8 16.9c8.5-4 20.8-16.4 20.4-7.6-.2 5.4.9 17.8-.2 21.5 11.2-2.9 25.8-3.7 27.6.8-3.2 14.7-33.4 21.4-55.7 15.9z" fill="#b5c673"></path><g><path d="M138.5 273.1C102.2 294.3 2.3 262.8 2 227.8s29.7-28.4 66.9-2.4 99.3 30.4 69.6 47.7z" fill="#edb0a2"></path><path d="M147.6 267.6c-1.1 2.4-3.7 4.7-8.1 7.2-25.5 14.9-79.3 4.8-111.7-13.6C9.9 251.1.1 239.2 0 227.9c-.2-14.3 4.7-23 14.2-25.4 15.3-4 38.9 9.4 55.8 21.3 14.6 10.2 33.3 17.1 48.4 22.7s27.1 10 29.4 15.9a5.9 5.9 0 0 1-.2 5.2zm-141.1-54c-1.8 3.5-2.6 8.3-2.6 14.3.1 9.8 9.3 20.4 25.8 29.8 31.4 17.8 84.2 27.4 107.8 13.6 4.4-2.5 6-4.3 6.5-5.5a2.2 2.2 0 0 0 .2-1.9c-1.8-4.2-14.1-8.8-27.1-13.7-15.3-5.6-34.4-12.7-49.3-23.2-23.1-16.1-41.8-23.5-52.6-20.7a12.7 12.7 0 0 0-8.7 7.3z" fill="#fff"></path><path d="M133.5 276.2c-8.8 5-61.4-1.9-77-9.7-11.9-5.8-2.5-6.2 17.1 0 3.2 1 6.6 1.7 8-1s-21.5-11.2-19.2-15.3 20.9 6.6 27.3 8.5c24.1 6.7 55.2 10.8 43.8 17.5z" fill="#edb0a2" style="mix-blend-mode:multiply"></path><path d="M153.7 187.4c-2.4-29.8-15.2-86.6 5.1-86.7s43.2 32.9 31.9 92.4c-8.4 44.4-29 67-43 74 14.7-31.6 7.8-56.8 6-79.7z" fill="#edb0a2"></path><path d="M180.2 232.5c-12 24.4-26.1 33.6-31.6 36.5l-5.2 2.6 2.5-5.3c11.8-25.5 9.3-47.1 7.1-66.2-.5-4.3-1-8.4-1.3-12.5-.5-6.3-1.5-13.8-2.5-21.7-2.9-22.7-6.2-48.5-.5-60.3 2.8-5.7 7-6.8 10.1-6.9 7.6 0 15.3 4.1 21.5 11.6 14.4 17.2 19 48.4 12.4 83.2a162.2 162.2 0 0 1-12.5 39zM152 262.2c6.5-4.7 16-13.9 24.6-31.4a151.2 151.2 0 0 0 12.1-38c6.4-33.8 2.2-63.6-11.4-79.9-5.5-6.6-12.1-10.3-18.4-10.2-3 0-5.1 1.5-6.6 4.7-5.2 10.7-1.8 36.9.9 58 1 8 1.9 15.5 2.4 21.8.3 4.1.9 8.2 1.4 12.5 2.1 18.1 4.5 38.5-5 62.5z" fill="#fff"></path><path d="M160.4 225.4c1.7-16.5-3.1-53.6 8.2-53.7 5.8 0-4.3 38.7.5 47.6s10.8-20.7 10.1-7.6c-1.2 24.9-20.3 46.6-23.6 44.7s2.9-12.1 4.8-31z" fill="#edb0a2" style="mix-blend-mode:multiply"></path><path d="M155.2 258.6c-1.3 16.5-41.4 26.7-74.1-1.1s-79.7-78.1-43.6-94.1 42.4-56.5 58.4-57.2c28.5-1.4 65.6 75 59.3 152.4z" fill="#edb0a2"></path><path d="M155.9 263.4c-2.9 5.9-10 10.3-19.5 12.3-18.5 3.9-39.8-2.3-56.6-16.7s-67.9-60.8-55.4-86.6q3.5-6.9 12.3-10.8c19.8-8.8 30.4-25.1 38.8-38.1 6.9-10.6 12.3-19 20.4-19.3s14.6 3.6 22.1 11.4c22.7 23.5 44.1 81.7 39.2 143.2a15.9 15.9 0 0 1-1.3 4.6zM28 174.2c-8.9 18.4 22.2 54.3 54.4 81.8 23.6 20.1 46.7 17.2 53.2 15.8 10-2 17-7.4 17.6-13.4 4.7-58.1-15.6-116.8-38-140.1-6.7-6.9-13.3-10.4-19.2-10.2s-10.9 7.9-17.1 17.5c-8.8 13.6-19.7 30.3-40.6 39.6-5 2.2-8.4 5.3-10.3 9z" fill="#fff"></path><path d="M147.6 268.9c-.6 7.8-12 9.3-34.7-3.9-17.6-10.2-31.1-34-15.4-23.8 25.1 16.1 2.6-19.7 6.2-27.1 5-10.3 23.2 22.8 27.1 19.3 9.9-8.9-12.7-49.3-7.4-55.2 9-10.2 27.1 53.9 24.2 90.7z" fill="#edb0a2" style="mix-blend-mode:multiply"></path><path d="M140.9 277.8c-4.3 2.7-28.9 8.3-44.2-.3-4.7-2.7-.3-7.5 11.5-10.5s7.3-11 5.7-20.6 11.6-4.2 20 4.1 4.4-7.4 15.1-19 19.8 28.3-8.1 46.3z" fill="#b5c673"></path></g><g><path d="M293.3 180.9c27.1-6.4 52.6-19.6 71.2-64.8s3.2-101.6-27.7-92.8-43.5 157.6-43.5 157.6z" fill="#edb0a2"></path><path d="M361.9 126.9c-19.3 39.7-45.3 50.6-68.1 55.9l-2.8.7.3-2.7c.3-4.2 8.8-100.5 28.6-141.4 5.2-10.5 10.5-16.4 16.4-18.1 9.2-2.6 17.8.1 24.6 7.8 15.7 17.6 18.1 57 5.4 87.8-1.4 3.4-2.9 6.8-4.4 10zm-66.4 51.4c22.2-5.6 45-16.5 62.8-53.2 1.5-3.1 3-6.3 4.4-9.7 13.6-33.1 8.1-69.2-4.7-83.7-5.8-6.4-12.9-8.7-20.7-6.5-4.6 1.3-9.3 6.7-13.8 15.9-17.7 36.4-26.4 120.9-28 137.2z" fill="#fff"></path><path d="M299.6 173.3c12.6-5.3 17.2-3.9 34.7-21.5 22.1-22.1 27.2-70.5 14.8-46-26.8 52.4-49.5 67.5-49.5 67.5z" fill="#edb0a2" style="mix-blend-mode:multiply"></path><path d="M280 176.2c-24.3-12.1-73.5-54.1-42.7-117.2S280 176.2 280 176.2z" fill="#edb0a2"></path><path d="M282.2 179.5l-3.1-1.5c-28.3-14.2-74-57.4-43.7-119.6 5.3-11 10.5-15.7 15.8-14.7 21.7 4.3 30 119.3 30.8 132.4zM239.1 59.9c-28 57.4 11.5 97.9 38.7 112.8-3.4-48.4-13.6-122.3-27.3-125.1-3.2-.6-7.3 3.8-11.4 12.3z" fill="#fff"></path><path d="M280 175.7c-6.7-22.7-22.4-73.2-27-66.5-11.5 16.6-6.1 35.5 3.6 50.5a104.9 104.9 0 0 0 23.4 16.5z" fill="#edb0a2" style="mix-blend-mode:multiply"></path><path d="M325.7 145.4c-12 24.4-36.9 68-65.7.5S264.9-8.5 296.2 5.7c5.8 2.7 9 5.6 19.6-1.8 22.6-15.7 46.6 66.9 9.9 141.5z" fill="#edb0a2"></path><path d="M327.8 145.3l-.4.9c-8.7 17.8-20.7 38.1-36.1 37.7-11.7-.3-22.6-12.5-33.1-37.2-18-42-11.7-90.8 1.7-118.3C270.2 7.2 284.1-2 297 3.9l1.8.8c4.5 2.2 7.3 3.5 15.8-2.4 4.9-3.4 10.2-3 15.1 1.1 16.7 14.3 28.8 79-1.9 141.9zM263.5 30.1c-13 26.8-19.2 74.2-1.7 115 9.7 22.8 19.7 34.6 29.6 34.8 13.2.4 24.9-20.1 32.5-35.4l.4-.9c29.2-60.2 18.3-123.9 2.8-137.2-3.4-2.9-6.8-3.2-10.2-.8-10.4 7.2-14.8 5.1-19.9 2.7l-1.7-.8c-10.6-4.8-22.5 3.6-31.8 22.6z" fill="#fff"></path><path d="M305 164.6c-5.5 11.4-17 31.6-30.5.3s6.8-63.6 10.7-48.1c7 28.7 5 24.6 25.7-11.8 6.4-11 30.9-16.6-5.9 59.6z" fill="#edb0a2" style="mix-blend-mode:multiply"></path><path d="M286.2 186c-13.9 3.2-24.9-35.7-26.2-40.1s8.2-6 16.1 4.9 7.8.6 25.7-3.1 6.6 33-15.6 38.3z" fill="#b5c673"></path></g><g><path d="M158.3 467.1c15.7-12.5 9.2-91.4-5-113.2s-18.7-17.6-48.5-20.6-46.1 8.2-17.6 53.8 56.9 91.3 71.1 80z" fill="#edb0a2"></path><path d="M164 462.8a16.5 16.5 0 0 1-4.5 5.9 9.8 9.8 0 0 1-8 2c-16.3-2.9-40.4-41.6-66-82.5-13.6-21.9-18-37.2-13.3-46.8s15.2-11.9 32.8-10.1l13.6 1.1c18 1.3 24 1.7 36.4 20.4s20.3 86.7 9 110zM75.8 343.1c-4 8.2.4 22.6 13.1 43 24 38.4 48.8 78.2 63.2 80.6a5.7 5.7 0 0 0 5-1.2 12.8 12.8 0 0 0 3.3-4.5c10.7-21.9 3.4-87.3-8.8-106-11.2-17.1-15.5-17.4-33.3-18.6l-13.7-1.1c-15.8-1.7-25.5 1-28.8 7.8z" fill="#fff"></path><path d="M153.7 459.8c7.9-4.9 9.3-41.3 3.9-52s-3.7 41.4-25.8-3.2c-6.1-12.3-16.7-7.7-6.2 14.7s21 44.9 28.1 40.5z" fill="#edb0a2" style="mix-blend-mode:multiply"></path><path d="M128.6 497.1c14.4 17.7-75.7 73.4-105.1 53.3s2-28.7-10.8-62.1 90.2-22.9 115.9 8.8z" fill="#edb0a2"></path><path d="M130.5 507.9c-7.8 16.1-42.5 38.4-71.3 46-16.1 4.2-28.8 3.6-36.8-1.8-17.3-12-14.6-20.9-11.5-31.3 2.5-8.2 5.4-17.5-.1-31.8-4.5-11.9 4-20.5 23-22.7 30.7-3.5 79.4 8.6 96.3 29.5 1.9 2.3 3.3 6.1.4 12.1zM14.4 479.2c-1.2 2.3-1.1 5.1.1 8.3 6 15.6 2.8 26 .2 34.5s-5 16.5 10 26.8c7 4.8 18.5 5.2 33.4 1.3 27.5-7.3 61.6-29 68.8-43.9 1.6-3.4 1.7-6 .1-7.8-15.9-19.7-63.7-31.5-92.8-28.1-10.6 1.2-17.6 4.4-19.8 8.9z" fill="#fff"></path><path d="M118.6 501.9c7.5 6.6-27.2 37.6-41.4 31.1-9-4 21.1-16.9 21.6-22.7.3-3.3-28.1 1.6-31.1-3.3-8.2-13.5 37.3-16.8 50.9-5.1z" fill="#edb0a2" style="mix-blend-mode:multiply"></path><path d="M136.4 485.6c-18.8 26.5-137.2 23.6-130.5-20s18.1-33.5 9.3-60.4 16.6-19.8 38.2-27.7 41-15.8 71.5 32.1 24.9 57.3 11.5 76z" fill="#edb0a2"></path><path d="M145.9 474.4a92.9 92.9 0 0 1-7.9 12.4c-14.4 20.3-77.1 23-110.4 9.5-17.5-7.1-25.7-17.8-23.7-31 2.9-19.2 6.9-28.3 9.5-34.4 3.3-7.8 4.7-10.7-.1-25.1-2.3-7-2.5-12.4-.5-16.3 3.2-6.8 11.9-8.2 21.9-9.7 5.6-1 12.1-2 18-4.1l.9-.4c21.6-7.8 42.1-15.3 73 33.2 24.6 38.6 25.8 52.5 19.3 65.9zM16.3 391.2c-1.4 3-1.1 7.4.8 13.3 5 15.3 3.7 19.4 0 28.1-2.7 6.2-6.4 14.7-9.2 33.4-2.2 14 10.4 22.3 21.3 26.7 33.2 13.4 93.5 8.8 105.6-8.3a78.5 78.5 0 0 0 7.5-11.8c5.9-12 4.5-24.9-19.1-62C94 364.8 75.9 371.4 54.9 379l-.8.4c-6.3 2.3-13 3.4-18.8 4.3-8.9 1.4-16.6 2.6-19 7.5z" fill="#fff"></path><path d="M140.8 483.1c-8.6 12.1-63.1 13.4-60.1-6.4.9-5.7 21.3-4.4 22.3-7.1 2.3-6.5-19.3-20.4-22.1-29.2s6.8-3.6 29.5 9.7c4.9 2.8 14.6 5 9.9-5.2-6.2-13.4-5.5-24.8 11.3-4s15.3 33.7 9.2 42.2z" fill="#edb0a2" style="mix-blend-mode:multiply"></path><path d="M160.8 489.6c-2.8 13.1-37.2 36.3-45.6 33.8-6.1.2 14.4-16.2 16.6-21.2-9.6 1.6-16.3-1.5-19.5-10.2 6.4-3.6 22.4-11.8 22.4-11.8s-5-13.7-4.8-22.2c4.5-6.3 17.1 2.4 22.3 5.8-1.9-8.6 4.9-19 9.4-23.1s4.2 25.6-.8 48.9z" fill="#b5c673"></path></g><path d="M281.4 174.8c-5.1 30.1-14.9 61.6-14.3 92.5s8.7 60.3 16.3 90.2c8.7 35 10.4 71.2 17.4 106.5s21.7 68.4 34.2 101.2c26.8 70.3 68.7 133.7 96.7 203.7 31.1 78.2 47.8 161.7 72.9 241.8 1.9 5.9 10.9 2.8 9.1-3.1-22.4-71.3-39.4-144.1-63.2-215s-65-135.6-95.8-204.7c-28.2-63.1-45.2-126.6-55-194.7-4.9-34.2-15.6-67.1-21.4-101.1-6.6-38.3 6.1-78.1 12.4-115.6 1-6.1-8.3-7.8-9.3-1.7z" fill="#b5c673"></path><path d="M143.5 277.9c28.4 21.7 52.1 48.6 80.7 70.3 22.4 17.1 50.3 35.2 65.5 59.2 3.3 5.3 11.3-.1 8-5.2-14.6-22.9-39.6-39.7-60.7-56.1-30.4-23.7-56.6-52.1-87.2-75.3-4.9-3.7-11.3 3.5-6.3 7.1z" fill="#b5c673"></path><path d="M152.3 497.3c32.1 16.5 61.5 37.1 91.9 56.3 38.5 24.4 80.8 41.3 117.7 68.3 5 3.7 11.3-3.5 6.2-7.1-30.4-22.4-64-38.6-97.2-56.5-39.3-21.2-74.6-49.1-114.5-69.6-5.4-2.8-9.6 5.8-4.1 8.6z" fill="#b5c673"></path><path d="M412.5 427.1c-5.8 65.2-60.6 120.5-50.4 188 .9 6 10.4 5.4 9.5-.8-10-66.2 44.6-121 50.2-185.4.6-6.1-8.9-7.9-9.3-1.8z" fill="#b5c673"></path><path d="M334.3 720.5c20 14.8 36.3 33.3 54.3 50.4 20.4 19.5 47.4 31.9 63.3 55.7 3.5 5.1 11.5-.3 8-5.4-13-19.2-32.1-30.5-50.1-44.4-24.9-19.2-43.8-44.7-69.2-63.5-4.9-3.6-11.3 3.5-6.3 7.2z" fill="#b5c673"></path><g><path d="M277 697.3c-19.3 21-41.2 48.5-86.4 40.6s-48.4-30.6-40.2-51.2 1-38.2-2.7-59.3 33.2-57.6 78.1-30.5 84.7 64 51.2 100.4z" fill="#edb0a2"></path><path d="M287.5 685.8a58 58 0 0 1-9 12.9l-3.5 3.7c-18.2 20.1-41 45.1-84.8 37.4-21.7-3.9-35.6-11.3-41.8-22.4-4.8-8.6-4.7-19.2.2-31.4 6.3-15.7 3.3-29.5-.2-45.3-1-4.2-1.9-8.6-2.7-13s.1-10.1 2.8-15.6c5.5-11.4 17.2-20.8 30.4-24.7 10.7-3.2 27.8-4.4 47.9 7.7 53.7 32.5 74.2 63 60.7 90.7zm-135.4-71.9c-2.3 4.6-3.2 9.2-2.5 13.1s1.8 8.7 2.7 12.8c3.4 15.8 6.7 30.8 0 47.6-4.5 11.1-4.6 20.6-.5 28.1 5.6 9.9 18.7 16.8 39.1 20.3 41.6 7.4 62.6-15.8 81.2-36.1l3.5-3.7c26.2-28.6 9-61.3-50.9-97.5-18.9-11.3-34.7-10.3-44.6-7.3-12.3 3.6-23 12.3-28 22.7z" fill="#fff"></path><path d="M281 691.4c-11.6 12.6-37.9 10.6-65 5.8s29.1-11.1 34-23.4-34.4-15.9-36.7-28.6 15.6-6.1 42.4 10c9 5.4-18.6-23.2-12.6-20.3 9 4.5 41.7 18.6 47.4 35.2 1.8 5.4-6.3 17.8-9.5 21.3z" fill="#edb0a2" style="mix-blend-mode:multiply"></path><path d="M299.8 648.4c23.1-16.6-3-84-18.8-102.2s-37.9-44.8-67.5-27.5-56.9 19.7-27.7 39.2 24 62.6 57.3 77 37.8 27.2 56.7 13.5z" fill="#edb0a2"></path><path d="M307.5 642.1a20.8 20.8 0 0 1-6.6 8c-14.3 10.3-21.4 6.3-35.6-1.7a237.5 237.5 0 0 0-22.9-11.6c-18.6-8-25.7-24.7-32.7-40.7-5.8-13.7-11.9-27.8-25-36.6-7.6-5.1-16-11.8-12.6-18.8 2.4-5 10-8.5 20.4-13.4 6.1-2.9 13-6.2 20.1-10.3 30.4-17.8 53.7 9.1 69.1 27l.8.9c13.8 16 37.3 71.9 25 97.2zm-131.8-99.6c-1 2-.9 5.7 11.2 13.7 14 9.4 20.3 24.1 26.5 38.3 6.9 16.1 13.5 31.2 30.5 38.6a221.5 221.5 0 0 1 23.3 11.9c13.9 7.8 19.2 10.7 31.4 1.9a17.9 17.9 0 0 0 5.3-6.5c10.8-22.3-9.7-75.9-24.4-92.9l-.8-.9c-15.4-17.8-36.6-42.3-64.1-26.2-7.2 4.2-14.2 7.5-20.4 10.5-8.9 4.2-16.7 7.9-18.5 11.6z" fill="#fff"></path><path d="M296.4 646.1c11.9-8.6-22.6-52.6-30.7-62s-6.4 13-2.1 26.3c5.2 16.9-35.2-34.4-32.4-18.4 3.1 17.9 18.6 39.6 35.9 47.1s19.5 14 29.3 7z" fill="#edb0a2" style="mix-blend-mode:multiply"></path><path d="M294.1 651.2c17.7 15.5 69.9-17 84.2-53.9s18.4-66.6-14.8-70.5-36.9-10.9-55.4-23.4-76.7 92.7-14 147.8z" fill="#edb0a2"></path><path d="M378 603.2c-12 24.5-40.9 48.4-64.4 53.2-8.8 1.8-16 .4-20.8-3.7-39.1-34.4-33-87.7-15.8-123 7.7-15.8 17.3-26.9 25-29a8.5 8.5 0 0 1 7.2 1c3.3 2.3 6.1 4.4 8.8 6.2 11.7 8.6 18.9 13.8 45.7 16.9 11.1 1.3 19 5.6 23.3 12.7 7.1 11.8 4.9 30.5-6.8 60.5-.6 1.7-1.4 3.4-2.2 5.2zm-97.5-71.7c-16.5 33.9-22.5 85.3 15 118.2 4.8 4.2 12 3.8 17.3 2.8 19.7-4 49.1-25.5 61.6-51.1a50 50 0 0 0 2.1-4.8c11.1-28.5 13.4-46.5 7.1-57-3.7-6.1-10.4-9.7-20.4-10.8-27.8-3.3-35.2-8.7-47.6-17.6-2.5-2-5.3-3.9-8.6-6.2a4.9 4.9 0 0 0-4-.5c-6.4 1.8-15.5 12.6-22.5 27z" fill="#fff"></path><path d="M291.4 650.1c7.1 11.8 21.3-12.5 35.2-31 23-30.8 15.7-58.2 5.3-41.7-31.2 49.8-26.3 10.2-37.1 2.9s-21 40.5-3.4 69.8z" fill="#edb0a2" style="mix-blend-mode:multiply"></path><path d="M286.2 700c20.8 27.1-29.4 89.4-60.5 88.4s-50.9-7.3-53.3-31.3-23.2-53.5 10.8-51 81.5-34.1 103-6.1z" fill="#edb0a2"></path><path d="M286.6 740.2c-11.8 24.3-39.8 50.9-60.9 50.1-27.1-.9-52.6-5.6-55.3-33-.6-6.3-2.5-13-4.5-19.6-2.9-10.3-5.8-20-2.6-26.5s9.2-7.9 20-7.1c12.6.9 27.4-3.8 41.8-8.3 23.9-7.6 48.5-15.5 62.7 3 7.5 9.8 7.1 24.5-1.2 41.4zm-119.7-27.3c-2.5 5.2.1 14.2 2.9 23.7 1.9 6.7 3.9 13.7 4.6 20.3 2.3 23 22.2 28.4 51.4 29.4 17.8.6 44.5-21.7 57.2-47.8 4.3-9 10.4-25.8 1.7-37.3-12.5-16.2-34.8-9.1-58.4-1.7-14.7 4.7-30 9.5-43.3 8.6-8.9-.7-14.2.9-16.1 4.8z" fill="#fff"></path><path d="M293.6 702.1c10.9 14.2-29.3 54.6-45.6 54s16.5-18.7 15.2-31.3c-.6-5.7-39.1 9.9-47.3 8.3-9.9-2 20.2-12.6 32.7-19.3 15.7-8.5 33.8-26.4 45-11.7z" fill="#edb0a2" style="mix-blend-mode:multiply"></path><path d="M296.4 691c23.4-5.8 77.8 54.5 81.4 77.7s-28.9 33.5-51.9 29.3-67.4 20.7-50.5-20.5-11.8-78.4 21-86.5z" fill="#edb0a2"></path><path d="M377.9 781.7c-7.4 15.3-33 21.8-52.4 18.2-6.8-1.3-15.9.2-24.7 1.7-12.3 2-24 4-28.9-2.2-3.5-4.3-2.9-11.5 1.7-22.6 7.1-17.5 5.9-34.1 4.8-48.7-.9-11.1-1.6-20.6 1.9-27.9 2.7-5.6 7.9-9.2 15.7-11.1s15.4 1.2 26.3 8.4c25.2 16.8 54.7 53.2 57.5 70.9a22.2 22.2 0 0 1-1.9 13.3zm-94-79.7c-3.1 6.2-2.3 15.3-1.5 25.8 1 14.3 2.3 32.1-5.1 50.5-3.9 9.4-4.7 15.7-2.3 18.6 3.4 4.4 14.5 2.5 25.2.8 9.1-1.5 18.5-3.1 26.1-1.8 17.8 3.4 41.4-2.2 48-15.9a17.8 17.8 0 0 0 1.6-11c-2.6-16.5-31.8-52.2-55.9-68.2-9.7-6.5-17.7-9.2-23.2-7.9s-10.7 4.6-12.9 9.1z" fill="#fff"></path><g style="mix-blend-mode:multiply"><path d="M286.3 685.6c10.8-4.5 40.4 34.6 36.7 50.4-2.5 11.1-15.2-12.8-17.1-12.8-3.9-.1-5.5 25.9-6.8 32.3-2.5 11.5-13-10.8-11.9-36.8.8-18.1-7.9-30.2-.9-33.1z" fill="#edb0a2"></path></g><g><path d="M304.3 673.7c3.3 19.5 69.5 81.2 98.3 72.4s38.5-28.7 31.3-46.2 62.4-38.2 23.2-73.1-46-75.1-80.2-40.8-80.1 41.8-72.6 87.7z" fill="#edb0a2"></path><path d="M307.6 645.6c11.2-23.2 43.5-33.8 69.3-59.6 34.2-34.3 40.9 5.9 80.2 40.8 13.1 11.7 14.1 21.8 9.7 30.7-6.9 14.3-27.6 25.6-32.4 35.6-1.1 2.4-1.4 4.6-.5 6.8a27.8 27.8 0 0 1-.6 23.6c-4.5 9.5-14.6 17.7-30.7 22.6-28.8 8.8-95-52.9-98.3-72.4-1.9-11.4-.4-20.5 3.3-28.1zm-3.6-1.8c-4.4 9-5.6 18.9-3.6 30.6 2.4 14.5 32.5 46 60.9 63.5 12.2 7.6 29.6 15.9 42.5 12 20.5-6.2 29.3-16.9 33.1-24.7a32.4 32.4 0 0 0 .7-26.9c-.3-.7-.6-1.6.3-3.4 1.9-3.8 7.2-8.5 12.8-13.4 7.3-6.4 15.6-13.7 19.7-22.3 5.9-12 2.3-23.9-10.6-35.3s-19.9-20.5-27.3-29.7c-11.2-13.8-20-24.6-31.8-25.2-8.1-.4-16.6 4.1-26.7 14.2s-22.2 18.5-33.4 26.1c-15.3 10.4-29.6 20.2-36.6 34.5z" fill="#fff"></path></g><g style="mix-blend-mode:multiply"><path d="M293.4 669.3c2.1 10.3 41.9 30.6 58.3 34s-10.4-14.9-14.2-24.3c-2.4-5.6 42.3-12.9 45.1-18.7 1.7-3.9-34.4-7.5-45.7-7.6-16.7 0 8-14.4 14.1-17.2 13.3-6.1 7.9-17.5-6.7-11.8-23.9 9.6-53.2 35.5-50.9 45.6z" fill="#edb0a2"></path></g><path d="M277.7 660.6c-8.2 13.4-12.4 22.7-2.4 33 7.2 7.6 20.9 4.8 29.1-3.6 8.7-6.7 15.6-23.8 10-34.7-10.1-18.6-28.5-8-36.7 5.3z" fill="#b5c673"></path></g></g></g></svg>