<svg xmlns="http://www.w3.org/2000/svg" width="741.4" height="936.9" viewBox="0.01290285587310791 -0.04238394647836685 741.3871459960938 936.9009399414062" style=""><g><title>floral44_304747366</title><g data-name="Layer 2"><path d="M452.4 324.6c-7.2 25.9-10.6 52.8-11.3 80.3-.6 21.6-.7 43.3-.5 64.9 8-7.8 14.8-14.1 18.3-17.5 6.1-42.1 1.4-85.3-6.5-127.7z" fill="#155469"></path><path d="M176.6 278.2c-7.2-19.1-6.4-37.2-6.2-55.5 9.1-.9 17.5-7.8 18.1-17.4s4.1-21.1-4.4-30.3a21.2 21.2 0 0 0-10.8-6.4c-7.9-5.3-18.8-3.7-25.5 3.7-14.1 15.7-7.3 41.3 11.2 48.5-.5 23 4.9 44.3 12 68l10 6.2a116.2 116.2 0 0 0-4.4-16.8z" fill="#155469"></path><path d="M245.4 265.3c-4.3-27.7-4.2-56.3-4.4-84.3-.1-11.2-2.1-26.5-1.5-40 10.2-3.4 16.2-11.3 17.7-22 1.4-8.9-4.5-14.9-11.7-16.9a19.9 19.9 0 0 0-3.6-2.9c-10.9-6.5-25.1-.6-29.4 11.1a25.9 25.9 0 0 0 4.4 25 21.3 21.3 0 0 0 16.9 6.8c-1.5 32.9 1.8 97.8 2.4 104.3 3 34.3 10.1 72.9 26 105.7 5.9 4 11.7 8.2 17.5 12.5-16.6-31.2-28.5-62-34.3-99.3z" fill="#155469"></path><path d="M383.1 509.1c17.6-87.3-39.2-167-66-246.1-12.9-38-24.6-73.1-20.2-113.7.9-7.8 4.1-22.5 2.6-34.1a23.6 23.6 0 0 0 6.6-13.8c1.6-14.6-14.5-18.6-21.8-10.7a12 12 0 0 0-9 9.4h-.3c.1 1.1.3 2 .4 2.9a14.7 14.7 0 0 0 0 2.1h.2a15.8 15.8 0 0 0 4.6 8 13.1 13.1 0 0 0 11.7 6.1c.4 14.7-5 34.9-6 45.2-3.2 34.7 10.2 69.6 21.1 101.8 13.4 39.6 30.3 77.2 46.7 115.6 15.5 36.2 16.1 69.9 21.1 106.1 2.9 7 5.7 14.1 8.2 21.3z" fill="#155469"></path><path d="M404.5 332.7c-10-38.4-27.8-73.8-36.7-112.9s-9.7-80.7-12.3-121.4a23.2 23.2 0 0 0 15.5-5.3c12.4-10.2 7.3-27.3-4.7-34.7-6.2-3.8-14-1.4-18.9 3.2A27.4 27.4 0 0 0 343 67a13.9 13.9 0 0 0-6.4 13.3c.9 9.3 6.7 15.2 13.8 17.3a512.1 512.1 0 0 0 33.4 197.5c26.1 67.4 31.5 138 24.9 208.6 4.3-5.1 9-10.3 13.8-15.4 4.4-52.4-6.4-110.6-18-155.6z" fill="#155469"></path><path d="M440.6 469.8c-.2-21.6-.1-43.3.5-64.9.7-27.5 4.1-54.4 11.3-80.3 7.9 42.4 12.6 85.6 6.5 127.7a6 6 0 0 0 .8-.8c2-1.9 4.2-3.7 6.2-5.5 6-36.8 4.3-76-1.6-112.5-1.5-9.7-3.5-19.2-5.5-28.7a233.4 233.4 0 0 1 21-43.3c40.8-64.8 103.1-120.3 124.6-195.1 7.1-.1 14.3-3.8 17.2-10 4.4-9.4 5.8-18.3 2.9-28.4-2.2-7.9-10.3-12.5-18.2-12.5l-1.6-.8c-10.5-4.7-24.2 4.7-24.3 16s3.7 21.6 11.6 30.7c.6.6 1.3 1 1.9 1.5-16.1 42.9-36.4 82.1-64.6 120.1-26 35.1-55.5 66.5-74 106.1-7.9-34.4-16.6-68.2-18-104.4-1.9-47.2 4.1-94.2 4.7-141.2a16 16 0 0 0 4.9-.5c7 0 11.8-6 13.6-12.3 4.3-9.5 4-20.8-5.4-27.5A18 18 0 0 0 441.3.3c-8.6-1.5-19.2 7.1-19.3 15.8s1.1 14.9 7 21.1a19.2 19.2 0 0 0 6.9 4.8c-7.2 70.9-13.9 143 1.7 213.3 3.7 16.4 7.5 33.2 11 50.1-15.1 41.6-16.2 88.2-16.1 131.8 0 8.8-1.9 25.8-1.4 42.2z" fill="#155469"></path><path d="M500.1 366.8c9.9-39.5 33.4-74.2 59.8-104.4 30.9-35.6 61.5-73.6 73.6-119.9a22.9 22.9 0 0 0 4.7.4c6.7.2 11.5-8.3 8-14a23.3 23.3 0 0 0-4.7-9.9c-3.4-4.7-11.2-4.1-15-.5a9.5 9.5 0 0 0-3.2 6.8 11.2 11.2 0 0 0-.7 5.5 12.5 12.5 0 0 0 3.7 7 11.9 11.9 0 0 0 .8 1.6c-5.2 9.6-8.2 19.9-12.9 30-7.7 16.9-18.5 33.4-29.1 48.6-23.9 33.9-52.4 61.6-72.8 98.1-15.3 27.4-22.7 58-25.9 88.9-.7 7.2-3 16.8-3.8 26.2l4.7-3.8c1.8-21.8 9.8-48.8 12.8-60.6z" fill="#155469"></path><path d="M593.4 325.3c16.7-29.6 45.8-53 65.4-81a16.6 16.6 0 0 0 12.3 5.4c9.8-.3 16.3-6.3 19.6-15.2 2.7-7.4-1.1-16.6-6.2-21.9s-14.2-8.1-22.1-6.8-14.8 8.6-14.4 17.8c.2 5.3 2.3 9.1 5.2 13.3a4.7 4.7 0 0 0 1.4 1.4l.4.8c-26.1 20.1-50.3 55-67.7 82.4-8.9 14-16.8 33.6-20.4 51.1l7.4-4.4a248.5 248.5 0 0 1 19.1-42.9z" fill="#155469"></path><path d="M574.3 368.2l-7.4 4.4-20.6 12.6a596.9 596.9 0 0 0-59 42.2l-4.7 3.8c-5.7 4.8-11.2 9.7-16.7 14.8-2 1.8-4.2 3.6-6.2 5.5a6 6 0 0 1-.8.8c-3.5 3.4-10.3 9.7-18.3 17.5l-9.5 9.6c-2.9 2.9-5.7 5.9-8.6 8.9-4.8 5.1-9.5 10.3-13.8 15.4-11 13.2-18.9 25.4-17.1 31.6-2.6-8.9-5.5-17.5-8.6-26.1s-5.3-14.3-8.2-21.3a316.1 316.1 0 0 0-46.5-78.1c-14.1-17.2-30.8-31.9-48.6-45.2-5.8-4.3-11.6-8.5-17.5-12.5s-11.4-7.6-17.2-11.2c-18.7-14.8-40.6-30.9-64-45.9l-10-6.2c-19.5-11.9-39.9-22.8-60.5-31.3-37.1-15.1-70.4-41.6-109.1-53.9C6 303.8-9.3 396 10.3 496.1a676.2 676.2 0 0 0 16.9 92.8c1.7 7 3.2 14 4.8 21.3 18.7 84.4 42.8 144.9 99.9 210.8 52.9 61 130.8 110.8 212.6 115.5 76 4.4 146.5-32.2 202.8-82a330.2 330.2 0 0 0 114.4-123.3c39.4-73.3 53.5-157.9 57.8-240.1 2.1-38.9.4-75.6 9.7-113.4 1.3-5.3 3.7-25.8 6-45.9 2.6-22.2 5.1-43.9 6.2-44.3-56.2 19.3-114.4 49.3-167.1 80.7z" fill="#c5ddd5"></path><path d="M70.1 355.8c-.1-21.1.4-42.4-3.3-63.2-2.7-14.4-21.3-10.8-23.8 1.6-4.1 20.6-2.9 42.3-3.1 63.3-.1 16.7-1.7 30.6 9.2 43.9 2.8 3.5 9.5 3 12.1-.3 11-13.5 9-28.6 8.9-45.3z" fill="#155469"></path><path d="M120.7 338.4c-2.6-4.4-8.9-3.9-11.3.3-8.7 15.1-8.5 32.1-8.9 49.3-.5 20.1-.2 38.3 7.7 57.1 2.7 6.5 11.7 5.3 14.1-.6 6.8-16.3 7.4-31.2 7.5-48.7.1-19.6.9-40-9.1-57.4z" fill="#155469"></path><path d="M197.1 481.5c-.2-25.5.9-51.5-6.7-76-2.2-7-14.1-8.4-16.6-.8-6.4 19.5-6.7 39.6-6.9 60-.2 22.3-4.2 47.6 6.3 68 4 7.9 13.9 7 17.7-.5 8-15.7 6.4-33.4 6.2-50.7z" fill="#155469"></path><path d="M274.4 560c-2.2-29.3-1.9-59.6-14.1-86.7a5.3 5.3 0 0 0-9.8.1c-12.5 28.8-8.6 60.3-7.4 91s-.2 60.3 10.4 88c2.8 7.1 14.2 8.1 17 .4 10.9-29.5 6.2-62 3.9-92.8z" fill="#155469"></path><path d="M347 586c-.2-4.2-2-8.7-6-10.8-1.8-.9-4.1-2.8-6.3-2.2l-3.3.9c-3.8 1-8.1 4.4-8.8 8.5-9.5 57.3-6.9 133.6 9.6 189.6 2.9 9.7 17.4 10.3 20.1.1 15.3-57.7-2.7-127.1-5.3-186.1z" fill="#155469"></path><path d="M443.7 597.9c-1.3-17.7-5-40.8-23.5-48.3-5.4-2.2-11.8 3.8-10.1 9.3 4.9 16.3 5.7 33.9 5.6 50.8s-3.6 36.2 5.9 51.7c3.1 5 11.7 4.8 14.9.1 12-17.8 8.8-43.3 7.2-63.6z" fill="#155469"></path><path d="M501.2 481.3c-1.1-4.5-8.7-6.9-10.2-1.2-4.7 18.2-11.4 34.2-14.3 53s-5.7 38.9 5.1 54.5c3.2 4.7 11.1 5.3 14.6.5 10.5-14.6 9.1-32.7 10.8-50 2-20.3-1.6-37.2-6-56.8z" fill="#155469"></path><path d="M568.7 501.3c-3.5-18.5-3.9-38.2-12.7-55.1-2.7-5.3-10.3-6.6-13.1-.4-7.1 15.5-6.4 31.7-4.3 48.5 2.2 18.4 4.4 39.8 18.2 53.5a8.3 8.3 0 0 0 13.9-3.4c4.5-14.2.6-28.9-2-43.1z" fill="#155469"></path><path d="M642.4 473.6c-8-24.1-5.7-50.1-12.9-74.2-1.7-5.6-11.2-6.3-13.1-.4-7.4 22.9-8.9 69.7 16.8 82 4.8 2.3 11.1-1.9 9.2-7.4z" fill="#155469"></path><path d="M698.8 367.4c-2.5-10.3-15.4-10.6-18.2-.3-7.2 25.7-15.3 59.6-6.4 85.4 2.9 8.2 14.9 6.9 17.7-.4 5.7-14.4 6.5-28.9 7.8-44.3 1.2-13.6 2.3-27-.9-40.4z" fill="#155469"></path></g></g></svg>