<svg xmlns="http://www.w3.org/2000/svg" width="423.8" height="960.7" viewBox="0 0.01477813720703125 423.7999572753906 960.6852416992188" style=""><g><title>rating15_343763324</title><g data-name="Layer 2"><path fill="#ffbfaa" d="M24.6 827.6L9 898.5h67.5l37.4-90.7-89.3 19.8z"></path><path d="M198.8 220.6c-11.7 17.9-24.4 32.3-18.6 52.8l23.3 99.2a27.6 27.6 0 0 0 22.8 21.1l157.5-24.3-10.9-57-101.3 4.4-18-112.8c-3.6-22.6-5.3-37.8-27.7-42z" fill="#aa5fff"></path><path fill="#ffbfaa" d="M197 832.5l26.2 66.4 59.3 2.8-7-91.3-78.5 22.1z"></path><path fill="#aa5fff" d="M376.4 373.1h-82.7l35.7-101.5h71l-24 101.5z"></path><path fill="#2a0055" d="M378.9 372.9H308l35.8-101.5h70.9l-35.8 101.5z"></path><path fill="#2a0055" d="M193.5 847.9l90.4-1-55-348.5-62.7-89.4-115.6 24.8 142.9 414.1z"></path><path fill="#2a0055" d="M72.7 441.3l-62 405.6 110.7 1L235.9 389l-85 22.4-78.2 29.9z"></path><path fill="#2a0055" d="M228.9 510.9H103.8v-97.97h125.1z"></path><path fill="#fff" d="M213.8 870.1l7.5 86.9 154.4.3-21.1-34.2-45.4-33.1 1.5-32.2-32.7-.1-14.2 22.4-50-10z"></path><path d="M381.7 960.7l-163.4-.4-8.2-94.4 52.1 10.5 14-22.1h37.9l-1.5 33.9 44.5 32.5zm-157.3-7.1l145.3.4-17.6-28.6-46.3-33.8 1.4-30.5h-27.3l-14.5 22.8-47.9-9.6z" fill="#aa5fff"></path><path d="M365.7 943.9l-100.8-.2a3 3 0 0 1-2-.8 3.2 3.2 0 0 1-.8-2.1 25 25 0 0 0-7.3-16.1c-7-7-18.2-10.6-33.3-10.7a2.7 2.7 0 0 1-2.8-2.8 2.7 2.7 0 0 1 2.8-2.8c16.8 0 29.4 4.2 37.4 12.5a30.4 30.4 0 0 1 8.6 17.2l98.2.2a2.8 2.8 0 1 1 0 5.6z" fill="#2a0055"></path><path d="M354.6 925.9H288a2.8 2.8 0 0 1-2.4-1.5l-24.3-42.8a3 3 0 0 1 1.1-3.9 2.9 2.9 0 0 1 3.9 1.1l23.4 41.4 64.9.2a2.8 2.8 0 0 1 2.8 2.8 2.7 2.7 0 0 1-2.8 2.7z" fill="#2a0055"></path><path d="M330.2 909.2h-23.4a2.9 2.9 0 0 1-2.9-2.8 2.8 2.8 0 0 1 2.9-2.8h23.4a2.9 2.9 0 0 1 0 5.7z" fill="#2a0055"></path><path d="M313.9 895.8h-23.4a2.8 2.8 0 0 1-2.8-2.8 2.9 2.9 0 0 1 2.8-2.8h23.4a2.8 2.8 0 0 1 2.9 2.8 2.9 2.9 0 0 1-2.9 2.8z" fill="#2a0055"></path><path fill="#fff" d="M5.2 863.6l-1.8 93.1h135v-34.2l-45.5-33 21-32.2h-40l-26.4 22.4-42.3-16.1z"></path><path d="M141.7 960.1H0l2-101.3 44.8 17.1 25.9-22H120l-22.5 34.7 44.2 32.2zM6.8 953.4H135v-29.2l-46.6-33.9 19.3-29.7H75.2l-27.1 22.9-39.6-15.1z" fill="#aa5fff"></path><path d="M138.4 943.3H48.8a2.8 2.8 0 0 1-2-.8 2.8 2.8 0 0 1-.9-2 24.6 24.6 0 0 0-7.3-16.1c-7-7.1-18.2-10.6-33.4-10.6a2.9 2.9 0 0 1 0-5.7c16.8 0 29.4 4.2 37.5 12.4a31.4 31.4 0 0 1 8.7 17.2h87a2.8 2.8 0 1 1 0 5.6z" fill="#2a0055"></path><path d="M138.4 925.3H71.8a2.9 2.9 0 0 1-2.5-1.4L45 881.1a2.7 2.7 0 0 1 1.1-3.8 2.8 2.8 0 0 1 3.8 1l23.5 41.4h65a2.8 2.8 0 1 1 0 5.6z" fill="#2a0055"></path><path d="M113 907.6H89.6a2.9 2.9 0 1 1 0-5.7H113a2.9 2.9 0 0 1 0 5.7z" fill="#2a0055"></path><path d="M96.4 895.3H73a2.9 2.9 0 1 1 0-5.7h23.4a2.9 2.9 0 0 1 0 5.7z" fill="#2a0055"></path><path d="M151.6 729.4a2.8 2.8 0 0 1-2.6-1.9L60.4 477.6a2.8 2.8 0 0 1 5.3-1.9l88.6 250a2.9 2.9 0 0 1-1.7 3.6z" fill="#fff"></path><path d="M122.1 154c33.3 47.1 74.8 152 74.8 152s-9.9-122.5-17.4-151.8l-29.5-4.6z" fill="#fff"></path><path d="M54.5 159l-3.9 274.8h185.3l7.4-253.5a16.7 16.7 0 0 0-14-17.7l-49.6-8.3h-.2C187 183.5 197 307.1 197 307.1s-41.6-106-74.9-153.1h-.6z" fill="#aa5fff"></path><path d="M204 246.7l-1.1-.2a2.9 2.9 0 0 1-1.5-3.8c6.6-15.1 11.7-28.9 14.7-40.1l-24.4-18.8a2.5 2.5 0 0 1-1-2.8 2.9 2.9 0 0 1 2.1-2.2l15.2-3.2-13.8-8.8a2.9 2.9 0 0 1-.9-3.9 2.8 2.8 0 0 1 3.9-.8l19.6 12.5a2.7 2.7 0 0 1 1.3 2.8 2.8 2.8 0 0 1-2.2 2.3l-15.9 3.4 21.1 16.2a2.7 2.7 0 0 1 1 2.9c-3.1 11.8-8.5 26.6-15.5 42.8a2.8 2.8 0 0 1-2.6 1.7z" fill="#2a0055"></path><path d="M155.4 249.8a2.9 2.9 0 0 1-1.9-.8c-16.3-15-30.5-26.1-43.4-33.7a2.8 2.8 0 0 1-1.3-2.3 2.6 2.6 0 0 1 1.1-2.4l12.2-9.4-14.3-.2a2.7 2.7 0 0 1-2.2-1.1 2.8 2.8 0 0 1-.4-2.5l11.8-40.5a2.8 2.8 0 0 1 1.9-1.9 2.5 2.5 0 0 1 2.6.6l.5.3a2.8 2.8 0 0 1 .2 4l-.3.4-10.3 35.1 18.7.2a2.8 2.8 0 0 1 1.7 5.1l-15.4 11.9c12.2 7.7 25.6 18.3 40.7 32.3a2.8 2.8 0 0 1 .2 4 2.9 2.9 0 0 1-2.1.9z" fill="#2a0055"></path><path d="M147.3 343.9a11 11 0 1 1 11-10.9 10.9 10.9 0 0 1-11 10.9zm0-16.2a5.3 5.3 0 1 0 5.3 5.3 5.3 5.3 0 0 0-5.3-5.3z" fill="#2a0055"></path><path d="M235.8 436.7H50.6a2.9 2.9 0 0 1 0-5.7h185.2a2.9 2.9 0 0 1 0 5.7z" fill="#fff"></path><path fill="#ff5c5c" d="M240.8 263l59.6 82.1 101.3-2.5-59.7 82 33.7 95.6-96.4-31.4-80.5 61.6.1-101.4-83.5-57.6 96.5-31.2 28.9-97.2z"></path><path d="M136.5 382.6l27.3 3.1a75 75 0 0 0 25.8 14.2l8.7 2.8 15.2 5.6c5.4 2-.3 0 4.9 2.4a15.2 15.2 0 0 0 15-1.3 14.9 14.9 0 0 0 5.2-6.2l2.1-4.8a9.2 9.2 0 0 0 10.3-2l3.3-3.6c4.7-4.9 17.8-7.2 17-13.9l26.4 6.5a6.7 6.7 0 0 0 8.2-5.3 7.1 7.1 0 0 0-.6-3.8c-4.2-8.9-36.8-22.7-46.3-25.2 0 0-40.6-11.7-51.7-9.4l-56.3-5.6z" fill="#ffbfaa"></path><path d="M272.7 380.8a1.8 1.8 0 0 1-1-.2l-28.7-12a2.9 2.9 0 0 1-1.5-3.7 2.8 2.8 0 0 1 3.7-1.5l28.6 12a2.8 2.8 0 0 1 1.5 3.7 2.7 2.7 0 0 1-2.6 1.7z" fill="#2a0055"></path><path d="M255.7 393.5a2.5 2.5 0 0 1-1.2-.2L229.1 382a2.8 2.8 0 0 1 2.3-5.2l25.4 11.3a2.8 2.8 0 0 1-1.1 5.4z" fill="#2a0055"></path><path d="M239.5 403.6l-1-.2-18.6-7.6a2.7 2.7 0 0 1-1.6-3.6 2.8 2.8 0 0 1 3.7-1.6l18.6 7.5a3 3 0 0 1 1.6 3.7 2.9 2.9 0 0 1-2.7 1.8z" fill="#2a0055"></path><path d="M172 339.2c13.3-1.3 23.5-10 32-22.5a8.8 8.8 0 0 1 14.5 1.6 9 9 0 0 1-.2 8.6l-5.3 25.2z" fill="#ffbfaa"></path><path d="M46.9 162.2a73.8 73.8 0 0 0-30 53.3L3.6 316.6a27.5 27.5 0 0 0 13.9 27.7l137.6 48.2a38.3 38.3 0 0 0 20.4 4.9l3.2-62.3-96.8-41.9L98 231.5a64.5 64.5 0 0 0-24.5-68.6 23.5 23.5 0 0 0-26.6-.7z" fill="#aa5fff"></path><path d="M204.6 345.3a2.8 2.8 0 0 1-2.8-2.4 2.9 2.9 0 0 1 2.4-3.3l11.7-1.8a2.8 2.8 0 0 1 3.2 2.4 2.7 2.7 0 0 1-2.3 3.2l-11.7 1.8z" fill="#2a0055"></path><path d="M74.2 309.7a2.9 2.9 0 0 1-2.8-2.8c0-15.2 21.8-18.5 22.7-18.6a2.7 2.7 0 0 1 3.2 2.3 2.8 2.8 0 0 1-2.4 3.2c-.2.1-17.9 2.8-17.9 13.1a2.8 2.8 0 0 1-2.8 2.8z" fill="#fff"></path><path d="M93.4 253a2 2 0 0 1-1.3-.4 2.8 2.8 0 0 1-1.3-3.8 66 66 0 0 0 6.1-24.9c.9-18.7-6.6-34.1-22.2-45.9a2.8 2.8 0 1 1 3.4-4.5c21.4 16.2 25.1 36.6 24.5 50.8a74.9 74.9 0 0 1-6.7 27.1 2.8 2.8 0 0 1-2.5 1.6z" fill="#fff"></path><path d="M173.2 401.6l-1-.2L33.8 353a2.7 2.7 0 0 1-1.7-3.6 2.9 2.9 0 0 1 3.6-1.7l135.1 47.2 7.4-64.6L94.1 294a2.8 2.8 0 0 1-1.4-3.7 2.8 2.8 0 0 1 3.7-1.5l86 37.2a2.7 2.7 0 0 1 1.6 2.9l-8 70.2a3 3 0 0 1-1.3 2.1 2.8 2.8 0 0 1-1.5.4z" fill="#fff"></path><path d="M279.1 810.6h-60.8a2.9 2.9 0 0 1-2.6-1.7l-119.1-297a2.8 2.8 0 0 1 1.6-3.7 2.7 2.7 0 0 1 3.6 1.6L220.2 805h58.9a2.9 2.9 0 0 1 2.8 2.8 2.8 2.8 0 0 1-2.8 2.8z" fill="#00c9b9"></path><path d="M248.5 810.6a2.8 2.8 0 0 1-2.7-1.9l-64.6-208.6a2.8 2.8 0 0 1 1.9-3.5 2.7 2.7 0 0 1 3.5 1.8L251.2 807a2.7 2.7 0 0 1-1.9 3.5z" fill="#00c9b9"></path><path d="M115.6 812.9H52.3a2.5 2.5 0 0 1-2-.9 2.4 2.4 0 0 1-.8-2l5.7-210.8a2.9 2.9 0 0 1 2.8-2.8h.1a2.9 2.9 0 0 1 2.8 2.9l-5.7 207.9h60.4a2.9 2.9 0 0 1 0 5.7z" fill="#00c9b9"></path><path d="M84 812.9a3 3 0 0 1-2.9-2.8l-2.3-98a2.8 2.8 0 1 1 5.6-.2l2.4 98.1a2.9 2.9 0 0 1-2.8 2.9z" fill="#00c9b9"></path><path d="M151.1 479.5l-4.7-.3a60.9 60.9 0 0 1-20.3-5.9 2.8 2.8 0 0 1-1.1-3.8 2.8 2.8 0 0 1 3.8-1.2c1.3.7 32 16.5 47.5-8.4a2.9 2.9 0 0 1 3.9-.9 2.7 2.7 0 0 1 .9 3.9c-6.8 10.9-17.1 16.6-30 16.6z" fill="#00c9b9"></path><path fill="#ffbfaa" d="M121.9 154.2l54.5 47.4 2.9-47.4-1.4-102.1h-56v102.1z"></path><path d="M193.8 147.8h-48.2a16.7 16.7 0 0 1-16.7-16.7V52.2h81.6v78.9a16.7 16.7 0 0 1-16.7 16.7z" fill="#ffbfaa"></path><path d="M120 63.1a82.5 82.5 0 0 0 35.1 15.6 264.4 264.4 0 0 0 30.6 4.1c8.6.6 17.7 1.2 26.2-.9 5.8-1.3 11.2-4.3 12.4-10.7s-4.5-14.2-10.5-17.3c0 0 21.1-6.9 5.4-20.1-.4-.4 1.7-10.4 1.8-11.5.8-14.6-11-24.9-25.3-21.7-27.5 6.1-41.1 38.1-69.9 41-24.3 2.5-16.9 12.9-5.8 21.5z" fill="#2a0055"></path><path d="M173.8 23.5S118.4.2 104.4 27.6s11.1 77.6 18.6 84.6 22.8-49 22.8-49z" fill="#2a0055"></path><path d="M127.2 121.5a16.1 16.1 0 0 0 16.1-16.1v-5.7a16.1 16.1 0 0 0-16.1-16.1 16.1 16.1 0 0 0-16.1 16.1v5.7a16.1 16.1 0 0 0 16.1 16.1z" fill="#ffbfaa"></path><path d="M131.8 110.3a3 3 0 0 1-2.1-.9l-9.3-10.5a2.8 2.8 0 0 1 4.2-3.8l9.3 10.5a2.7 2.7 0 0 1-.2 4 2.6 2.6 0 0 1-1.9.7z" fill="#2a0055"></path><path d="M180.9 121.7h-3a2.9 2.9 0 0 1-2.9-2.8 2.8 2.8 0 0 1 2.9-2.8h3l.4-.2a.7.7 0 0 0 .1-.5c0-.1-.1-.2-.1-.3l-3-15.5a2.8 2.8 0 0 1 2.2-3.3 2.8 2.8 0 0 1 3.3 2.2l3 15.4a6.3 6.3 0 0 1-.9 5.3 6.2 6.2 0 0 1-5 2.5z" fill="#2a0055"></path><path d="M194.9 98.6a3.5 3.5 0 0 0 3.5 3.5 3.5 3.5 0 0 0 3.5-3.5 3.5 3.5 0 0 0-3.5-3.5 3.4 3.4 0 0 0-3.5 3.5z" fill="#2a0055"></path><path d="M164.8 98.9a3.5 3.5 0 0 0 3.5 3.5 3.5 3.5 0 0 0 3.5-3.5 3.4 3.4 0 0 0-3.5-3.5 3.5 3.5 0 0 0-3.5 3.5z" fill="#2a0055"></path><path d="M200 114.4a18 18 0 1 1 18-18 18 18 0 0 1-18 18zm0-30.3a12.4 12.4 0 0 0 0 24.7 12.4 12.4 0 1 0 0-24.7z" fill="#fff"></path><path d="M162.4 114.7a18 18 0 1 1 18-18 18.1 18.1 0 0 1-18 18zm0-30.3a12.4 12.4 0 1 0 12.3 12.3 12.3 12.3 0 0 0-12.3-12.3z" fill="#fff"></path><path d="M185 101h-7.5a2.8 2.8 0 0 1-2.8-2.8 2.7 2.7 0 0 1 2.8-2.8h7.5a2.8 2.8 0 0 1 2.8 2.8 2.9 2.9 0 0 1-2.8 2.8z" fill="#fff"></path><path d="M213.8 56.7a3 3 0 0 1-1.5-.5c-2-1.3-8.6-4.8-12.3-3.6a2.7 2.7 0 0 1-3.6-1.7 2.9 2.9 0 0 1 1.7-3.6c7.1-2.4 16.3 3.5 17.3 4.2a2.8 2.8 0 0 1 .8 3.9 2.9 2.9 0 0 1-2.4 1.3z" fill="#9960f4"></path><path d="M214.5 44a2.9 2.9 0 0 1-2.7-2.1 2.8 2.8 0 0 1 2-3.5c2.4-.7 2.6-4.7 2.6-4.7a2.9 2.9 0 0 1 2.9-2.7 2.8 2.8 0 0 1 2.8 2.9c-.1 3-1.6 8.5-6.8 10z" fill="#9960f4"></path><path d="M123 61.2h-.8C106.8 56.6 97.8 47.9 96.3 36a2.8 2.8 0 1 1 5.6-.7c1.2 9.6 8.6 16.5 22 20.5a2.9 2.9 0 0 1 1.9 3.5 2.8 2.8 0 0 1-2.8 1.9z" fill="#9960f4"></path><path d="M112.1 69.5l-1-.2a26 26 0 0 1-14.5-12.1 2.9 2.9 0 0 1 1.1-3.8 2.8 2.8 0 0 1 3.9 1.1A20 20 0 0 0 113 64a2.8 2.8 0 0 1 1.7 3.6 2.9 2.9 0 0 1-2.6 1.9z" fill="#9960f4"></path><path d="M177.9 31.9a2.9 2.9 0 0 1-2.6-1.6c-2.6-5.6-12-9.1-15.4-10a2.9 2.9 0 0 1 1.5-5.5c.6.1 14.8 4 19 13a2.8 2.8 0 0 1-1.3 3.8 2.7 2.7 0 0 1-1.2.3z" fill="#9960f4"></path><path d="M175.4 150.7c-7.6 0-23.9-1-32.1-8.9a2.8 2.8 0 0 1-.1-4 2.9 2.9 0 0 1 4-.1c7.4 7.2 25.6 7.6 31.9 7.2a2.9 2.9 0 0 1 .4 5.7z" fill="#2a0055"></path><path d="M173.8 174.5a2.7 2.7 0 0 1-1.2-.3l-10.5-4.9a2.9 2.9 0 1 1 2.4-5.2l9 4.3 3.4-2.3a2.8 2.8 0 0 1 3.1 4.7l-4.6 3.2a3.3 3.3 0 0 1-1.6.5z" fill="#2a0055"></path><path d="M172.3 132.7c-8.9 0-11.5-5.8-11.6-8.8a2.9 2.9 0 0 1 5.7-.3c0 .6.6 3.5 5.9 3.5a2.8 2.8 0 0 1 0 5.6z" fill="#2a0055"></path><path d="M411 335.1h-29.6a12.8 12.8 0 1 1 0-25.6H411a12.8 12.8 0 0 1 0 25.6z" fill="#ffbfaa"></path><path d="M406.4 350.7h-34.1a12.9 12.9 0 0 1 0-25.7h34.1a12.9 12.9 0 0 1 0 25.7z" fill="#ffbfaa"></path><path d="M399.3 368.1h-23.2a12.9 12.9 0 0 1 0-25.7h23.2a12.9 12.9 0 1 1 0 25.7z" fill="#ffbfaa"></path><path d="M381.8 383.7h-14.5a12.9 12.9 0 0 1 0-25.7h14.5a12.9 12.9 0 0 1 0 25.7z" fill="#ffbfaa"></path><path d="M409.7 351.7h-.4l-24.2-3.5a3 3 0 0 1-2.4-3.2 2.9 2.9 0 0 1 3.2-2.4l24.2 3.5a2.9 2.9 0 0 1 2.4 3.2 2.8 2.8 0 0 1-2.8 2.4z" fill="#2a0055"></path><path d="M394.7 370.9h-.6l-19.6-4.7a2.8 2.8 0 0 1-2.1-3.4 2.7 2.7 0 0 1 3.4-2.1l19.6 4.7a2.9 2.9 0 0 1 2.1 3.4 2.9 2.9 0 0 1-2.8 2.1z" fill="#2a0055"></path><path d="M418 334.6h-.3l-27.7-3.2a3 3 0 0 1-2.5-3.2 2.8 2.8 0 0 1 3.2-2.4l27.6 3.2a2.8 2.8 0 0 1-.3 5.6z" fill="#2a0055"></path></g></g></svg>