<svg xmlns="http://www.w3.org/2000/svg" width="1080" height="602.4" viewBox="0.0363372266292572 0.010161399841308594 1079.9654541015625 602.3899536132812" style=""><g><title>hdrawn102_278716790</title><g data-name="Layer 2"><path d="M1066.2 560.6c.1 3.9.3 7.8.6 11.5.5 6.9.1 13.8.6 20.6.3 4.4-18.5 2.2-22.1 2.2-6.9 0-14.3-1.4-21.2-1.6-10.1-.2-20.3 1.7-30.5 2-13.1.5-29.3-1.6-42.9 1.2a3.2 3.2 0 0 0-4.5-.8c-3.9 3.1-24.5-1.8-29.7-1.9-15.3-.5-30.6-1.7-46-1.7-31.1 0-62.8 3.4-93.7.9-32.6-2.7-66.3.4-98.9.2-29.3 0-59.3-2.3-88.6-.6l-.9-.3c-40.5-1.9-81.4-.4-121.9-.3-20.7 0-41.5.2-62.2.5-6.5.1-14.2-.9-21.5-.5l-.6-.3c-25.6-3.6-54.1-.4-80-.3-35.2 0-70.3-.6-105.5-.6H84.5c-11.9.1-24-1.5-35.9-.5s-27.4 2.1-40.1.3c-.9-2.4-.3-6.1-.6-8.7-.8-4.7-.2-9.7-.7-14.5s.9-11-.5-15.9c30-.1 59.9-1.8 90-1.8 11.7 0 23 2.3 34.8 1.7 14.4-.9 29-.9 43.5-1.4a4.4 4.4 0 0 0 4.5.8h.4c22 .8 43.5 3.1 65.8 3.1 24.5 0 49.4-4.4 73.8-3.3 27.1 1.2 54.3-.8 81.4.6s56.3 1.8 84.6 1.8c20.6-.1 40.9 2.8 61.7 1.7 26.4-1.4 52.9-3.1 79.2.1 14.6 1.7 30.6 0 45.4 0 12.5 0 25 .9 37.5.9 24.3 0 48.8 3.8 73.2 2.4l.8-.2c40.4 3.7 81.4 2.6 122.5 2.6h160.4z" fill="#fff7f0"></path><path d="M1071.1 357.3v-58.8c-13.3 0-26.6 0-39.9-.2a381.8 381.8 0 0 0-13.2 38.6 175.9 175.9 0 0 1-8.4 22.7zm-1.8 66.2c.9-20.5 1.8-36.5 1.8-41.2v-19.2l-63.3.8c-2.6 6.3-5.2 12.6-7.2 19.1-4.3 14.1-10.5 27.8-15.8 41.8 28.1.2 56.3-.6 84.5-1.3zm1.8-130.9v-3.9c0-28.3-1.7-57.3.2-85.7-4.5 11.7-11.1 23-15.4 34.8-5.7 15.7-11.7 31.4-18.7 46.6-1.3 2.8-2.5 5.8-3.8 8.7 12.6-.3 25.1-.4 37.7-.5zm-14.4 201.7c-32.1-.9-64.8 1.7-96.7-.9-2.7 8.1-5.2 16.3-7.9 24.3-3.8 11.4-9.2 22.6-12.7 34.1h127c.1-2.4.3-4.9.6-7.2-1.1-9.6-1.1-28.4-.5-50.1zm-74.1-63.5c-5.1 14.5-10 29.3-15.8 43.6-1.8 4.4-3.4 8.8-4.9 13.3 31.3-2.5 64.1-1.3 95.4-.2l9.4.2c.5-19.7 1.5-41.1 2.4-59.5h-8.8c-25.6-.1-51.5 1.3-77.2 1.4a6.9 6.9 0 0 1-.5 1.2zM875.9 226.6c-19.8.8-39.7 1.8-59.5 1.3H811c-.2 20.1-1.7 40.3-2.4 60.4 13-.2 26-.8 39-.8s25.3-.3 38.1-.6v-.2c-3.6-20-6.3-40-9.3-60zm-71.1 260.5c31 .1 62 .2 93-.5l20.4-.2c-2.7-16.6-5.8-33.2-8.1-49.9l-2.4-16.9q-4.4-30-9.3-60.1c-30.3.5-60.6.1-90.8-.3-.4 20.6-.8 41.3-.9 61.9 33.5 0 67.2-.9 100.8-1.4a14.8 14.8 0 0 0-.1 6.3c-33.6.7-67.2 1.2-100.8.7 0 3.7-.1 7.4-.1 11.2.1 16.4-.7 32.8-1.7 49.2zm2.9-131.3l63.7-1.3 26-.9q-5.1-30-10.4-59.9c-11.2-.2-22.3-.5-33.3-.5h-45.3c-.1 5.3-.2 10.6-.2 15.8 0 15.6-.3 31.2-.5 46.8zm89.6 136.9c-31 .6-61.9 1-92.8.7-1 16.9-2.2 33.7-2.9 50.5-.1 2.2-.2 4.5-.4 6.7 10.5.3 20.7 1.3 31.8 1.3h95.5c-3-14.3-5-29.4-6.9-43.1-.7-5.4-1.5-10.9-2.4-16.3zM812.4 48.1c-7.6 14.2-14.1 29-21 43.5 18.6-.3 37.3-.7 55.9-.6-2.5-11.8-4.8-23.5-7.1-35.3s-3.3-21.5-6.1-32c-.9-3.6-2.3-7.3-3.3-11.1-4.7 12.3-12.4 24.2-18.4 35.5zm50.2 110.1c-34.3 1.2-68.6 2.1-102.7 1.8-1.8 4.3-3.4 8.6-5.1 12.9a92.5 92.5 0 0 1-4.3 9.7l10.5.2c13.8 0 30.5-3.8 43.6.2a4.2 4.2 0 0 1 2.7 2.2 2.5 2.5 0 0 1 2.1 2.2 304.2 304.2 0 0 1 1.7 34.5c8.3.1 16.9-.8 24.5-.8 13.3-.1 26.5-.7 39.8-1.2-.6-4.3-1.3-8.6-2-12.9-2.7-16.6-6.8-32.7-10.8-48.8zm-74.2-60.4c-1.6 3.4-3.2 6.8-5 10.2-7.7 14.8-14.5 29.8-20.7 45.1q49-1.3 98.3-1c-1.6-6.5-3.1-13-4.6-19.5-2.6-11.4-5.1-22.9-7.6-34.4q-9.6-.3-19.2-.3c-13.8.2-27.5.1-41.2-.1zm5.1 434.1c3.8-33.1 4.5-67.6 4.6-100.9.1-40.9 1.9-81.8 1.9-122.7.1-19.9-.5-40.9 1.9-60.7s.3-37.8 1.9-56.7a3 3 0 0 1-3.1-.4c-9.6-2.5-24.8.5-34.4.5h-8.2c-1.6 31.3-.3 63-.2 94.2.1 36.3-.7 72.8-1.5 109.1-.4 20.8 1.4 41.8-.2 62.6-1.3 16.5-1.2 33.6-3.1 49.9-1.6 13.9-1.8 28-2 42.1 8.9.4 17.8.8 26.8 1.4a3.8 3.8 0 0 1 1.6-.4 5.8 5.8 0 0 1 3.8.9c3.2-.2 6.2-.4 9.2-.4.1-6.1.3-12.3 1-18.5zm-91.4-142.5c2.8-33.9 2.9-69 2.9-103.1 0-20.6.3-41.4 2.2-61.9 1-11.5.7-23.1.8-34.6-4.9-.1-9.9-.3-14.8-.6s-26.9-3.2-34-.7c3.1 6.1-.1 16.5-.1 22.6-.1 14.6-2.2 29.1-2 43.8.5 31.4-2.8 63-2.9 94.5s-.8 65.7-3.8 98.1-1.8 66.3-3.2 99.4c15.1 0 30.2.2 45.2.4.6-14.5 1.4-29 2.9-43.5 3.9-38.1 3.6-76.2 6.8-114.4zm6.2.6c-3.9 40.3-2.8 80.9-6.9 121.3-1.2 12-1.7 24.1-2.1 36.2 14.7.2 29.3.6 43.9 1.2 1.2-14.3 2.7-28.6 3.1-42.4.7-19 3.2-37.8 3.7-56.8s-1.8-37.4.2-55.7c4.1-37.7 1.9-77.4 2.1-115.3 0-29-.9-58.3 1.1-87.3a183.7 183.7 0 0 1-21-.2c-6.3-.5-12.6-.8-18.9-1 .6 32.2-2.8 64.5-2.8 96.8 0 33.9.8 69.5-2.4 103.2zM553.9 151.7c-2.5-10.7-4.9-21.5-7.1-32.3s-5.1-22.1-7.3-33.2c-.3-1.8-.5-3.8-.7-5.8-10.5 22.3-16.2 47.1-22.2 71.4zm13.8 57.1c-2.1-7.9-4.3-15.9-6.2-23.9-2.3-9.6-4.5-19.2-6.6-28.9l-39.1-.7c-2.4 9.8-5 19.5-7.9 29s-4.9 16.8-7.2 25.3l48.4-.6zm15.3 70.8c-1.8-10.8-3.5-21.5-5.6-32.2s-4.9-21.5-7.9-32.1c-11.5-.1-23-.2-34.5-.1s-23.9.2-35.9.2c-5.6 21.7-10.6 43.5-15.9 65.2 33.2-.6 66.5-1 99.8-1zm7.1 40.8c-2.4-11.3-4.3-22.8-6.1-34.2-34.1.3-68.1.2-102.2-.2-2.8 11.2-5.8 22.4-9 33.4s-6 19.6-9 29.4c31.6-.8 63.3-.3 94.5-.3l38.2.2c-2.2-9.4-4.4-18.8-6.4-28.3zm-38.6 175.5c-43.5.1-87 .2-130.5 0-4.1 15.8-5.9 33.1-14.1 47.5l-.3.3c26.5 2.4 53.4-1.6 79.7 1.3a350.4 350.4 0 0 0 70.2.9c23.7-1.9 47.2.9 70.6.9h9c-2.7-12.3-1.5-26.8-3.9-38.7-.8-3.7-1.5-7.4-2.2-11.1-26.2-.5-52.3-1.1-78.5-1.1zm18.8-66.9c-43.5 0-87.4-.8-131.1-.6-1.3 4.4-2.6 8.8-4 13.1-4.9 16.9-9.1 34.2-13.4 51.2 43.4-1.1 86.9-2.6 130.3-2.7 25.6-.1 51.2.3 76.7 1-2.8-14.6-5.6-29.2-8.7-43.6-1.4-6-2.7-11.9-4.1-17.9-15.2-.3-30.4-.5-45.7-.5zm-129.6-5.5c43.4-.8 86.9-.5 130.2-.5 14.5 0 29.1 0 43.6.2-5.4-22.9-11.2-45.6-16.6-68.4l-40.1-.2c-31.8 0-63.7-.8-95.4-.1h-.3c-7.1 23-14.4 46-21.4 69zM396 542.9a3.6 3.6 0 0 1 1.6-2.9c1-9.2-1.1-18.6.3-27.6a201.7 201.7 0 0 0 2.7-31c.3-21.3 1.8-42.5 1.8-64 0-44.6-3.3-91.1 1.3-135.6a6.1 6.1 0 0 0 .1-1.4l.3-1.9a2 2 0 0 1-.2-2.5c.2-.1.3-.3.4-.4v-.5c.6-26.4.3-52.8 1.5-79.1.8-18.4.4-36.8 2.4-55.1 2.6-22.9-.3-46.1 1.9-69.2h-.1a152.4 152.4 0 0 0-18-1.4 4 4 0 0 1-1.9.2c-12.1.1-24.2-.1-36.3-.5.2 3.9.3 7.7.2 11.6-.5 25.9-2.1 51.7-2.1 77.7.1 47.9-.9 95.7-.8 143.6.2 54.4 1.9 108.8 1.5 163.3-.2 25.8.4 51.3-.2 76.8 14.5-.5 29.2-1.3 43.6-.1zM270.5 330.4c.5 52.9-.6 106-1.5 158.8-.3 18.4-.5 37.2-1.5 55.7 17.6-1.4 35.5-3.8 52.7-2.2a202 202 0 0 0 24.6.5c.3-3.1.5-6.3.5-9.5.1-21-1-41.8-.6-62.7.7-52.4-.5-104.5-.4-156.8.2-47.6 1-95.1 1.1-142.7 0-25.9.9-51.7 2-77.6.3-8.1.1-16-.1-24-20.5-.7-41-1.5-61.6-1.5l-10.6-.2c.2 10.3.2 20.5-.4 30.8-1.5 24.4-3.9 48.7-3.8 73.1.2 52.8-.9 105.5-.4 158.3zm-90.2-28.7c.2-2.4.3-4.9.5-7.4l-30.1-1.2c-7.7 12-14.2 24.6-21.9 36.5l-10 15.6c19.7-.8 39.6-.2 59.1-.1.7-14.5 1.4-29.1 2.4-43.4zM97.4 541.4c25.4 0 50.6.5 76.1.1-.2-21.2.7-42.3 1.5-63.4-18.6.7-37.2 1.7-55.7 1.4-25.1-.4-50.2-1.1-75.3-1.3-6.4 13.1-12.5 26.4-19.4 39.4-4.6 8.6-11.9 17.7-16.7 26.7 29.7-3.8 59.6-2.9 89.5-2.9zm83.7-253.1c.7-15 .8-30.1.9-45.1-6.4 12.4-13.6 25.8-21.8 36.2-2.2 2.9-4.3 5.9-6.4 8.9zM84.5 590.8h112.2c35.2 0 70.3.6 105.5.6 25.9-.1 54.4-3.3 80 .3l.6.3c7.3-.4 15 .6 21.5.5 20.7-.3 41.5-.5 62.2-.5 40.5-.1 81.4-1.6 121.9.3l.9.3c29.3-1.7 59.3.6 88.6.6 32.6.2 66.3-2.9 98.9-.2 30.9 2.5 62.6-.9 93.7-.9 15.4 0 30.7 1.2 46 1.7 5.2.1 25.8 5 29.7 1.9a3.2 3.2 0 0 1 4.5.8c13.6-2.8 29.8-.7 42.9-1.2 10.2-.3 20.4-2.2 30.5-2 6.9.2 14.3 1.6 21.2 1.6 3.6 0 22.4 2.2 22.1-2.2-.5-6.8-.1-13.7-.6-20.6-.3-3.7-.5-7.6-.6-11.5H905.8c-41.1 0-82.1 1.1-122.5-2.6l-.8.2c-24.4 1.4-48.9-2.4-73.2-2.4-12.5 0-25-.9-37.5-.9-14.8 0-30.8 1.7-45.4 0-26.3-3.2-52.8-1.5-79.2-.1-20.8 1.1-41.1-1.8-61.7-1.7-28.3 0-56.4-.4-84.6-1.8s-54.3.6-81.4-.6c-24.4-1.1-49.3 3.3-73.8 3.3-22.3 0-43.8-2.3-65.8-3.1h-.4a4.4 4.4 0 0 1-4.5-.8c-14.5.5-29.1.5-43.5 1.4-11.8.6-23.1-1.7-34.8-1.7-30.1 0-60 1.7-90 1.8 1.4 4.9.1 11.7.5 15.9s-.1 9.8.7 14.5c.3 2.6-.3 6.3.6 8.7 12.7 1.8 28.4.7 40.1-.3s24 .5 35.9.4zm1.6-185.3l81.1-2.1 9.2-.3c.2-16.7.6-33.5 1.2-50.3-20.9.1-42.3.8-63.3-.2a178.8 178.8 0 0 0-10.6 19.8c-5.2 11.3-11.2 22.2-17.6 33.1zm90.1 21.9c0-5.7.1-11.6.1-17.4l-9.7.3c-22.3.5-44.6.6-66.9.8l-17.1.4c-11.1 18.5-22.8 36.7-32.9 55.6-.7 1.3-1.4 2.8-2.1 4.2h6.9c25.9.4 51.9 1.6 77.8 1.1 14.2-.3 28.5-1 42.9-1.8.6-14.3 1-28.8 1-43.2zM182 226c0-20.5.2-40.9 1.8-61.2 1.8-22.8 3.7-45.6 4.3-68.5 0-1.2.2-2.8.4-4.6a143.7 143.7 0 0 1 .5-21.8 3 3 0 0 0-.4-1 1.3 1.3 0 0 1 .5-1.9 2.1 2.1 0 0 1 .6-2c6.7-5.1 16.4-4.5 24.7-4.7 20.1-.3 40.2.8 60.4.7 38.4 0 76.7 3.2 115.1 1.5h.6c2.2-.3 4.5-.3 6.8-.4a82.8 82.8 0 0 1 14.1.8 4.7 4.7 0 0 1 2.9 1.4 2.7 2.7 0 0 1 2.6 2.5c2.4 19.3-.4 40 .3 59.6.5 14.9-1.8 29.9-2.7 44.7-2.1 39.5-2.1 79.4-3 118.9a5.4 5.4 0 0 1-.4 1.5c1.3 16.9-.4 34.6-.4 51.2 0 25.2 0 50.3.1 75.5 0 23.3-.2 46.1-2 69.3-1 12.4-.5 25.8-1.2 38.7 4.4-14.5 7.2-29.6 11.1-44.2 4.7-17.8 9.7-35.6 14.5-53.4 11.1-41.2 26.7-81.4 36.7-122.8 5.8-24 10.3-48.3 16.4-72.2 5.6-21.8 13.1-43 18.5-64.7 7.7-30.7 15.3-62.1 27-91.6a3 3 0 0 1 .3-3c.9-1.7 2-3.3 3-4.9a4.7 4.7 0 0 1 1.7-1.5c-.4-2.5 2.9-4.8 4.7-2.3 8.4 11.2 9.3 32.5 12.2 45.8q7 33 14.9 65.9c5.4 23.1 13 45.4 17.4 68.7s6.8 44.8 11.4 66.9 11.8 44.9 17 67.7 8.3 44.1 14.4 65.4c3 10.5 3.7 21.7 5.8 32.4s5.4 18.9 6.3 28.3c.4 4.1 1 8.3 1.6 12.4 0-7.9-.1-15.8-.1-23.7 0-14.4 0-29.2 1.3-43.5 2.6-29.9 3.8-60.3 3.7-90.3s-.6-61 1.8-91.5c1.3-16.6-.7-33.3 1.4-49.9.2-1.4.7-4.4 1.2-7.8a44.9 44.9 0 0 1-.3-5.1c0-4.8-1.2-9.2-.7-13.9.2-1.4.3-2.8.4-4.2a3.9 3.9 0 0 1 3.1-3.5c.9-3.6 4.5-4.3 8.9-4.8 15.5-2 31.9 1 47.6.8 10.9-.1 21.9.4 32.9.7 1.7-3.9 3.4-7.8 5-11.7 8.2-20.9 16.7-40.8 26.4-61.1 8.8-18.4 15.9-38.1 26.1-55.8s19.4-33.6 25.2-51.5c1-2.7 4.1-2.8 5.9-1.4a2.6 2.6 0 0 1 3.2 2.2c1.6 9.3 6 18.8 8.1 28.1 2.6 11.4 4.7 22.8 7 34.2 4.8 24 10 48.1 15.4 72.1s13 48.8 16.3 74 6.9 49.2 11.7 73.7c9.7 49.7 15.2 100.1 25.1 149.8 4.8 23.8 8.4 48.1 11.7 72.2 1.4 11 2.9 23.3 5.1 35.2 2.9-9.1 6.9-18 9.7-27 4.7-14.4 8.5-29.5 14.5-43.4 6.7-16.1 12.3-33.3 17.6-49.9 4.5-14.3 10.8-27.6 15.8-41.7 6.3-17.5 14-34 18.9-52a305.2 305.2 0 0 1 17.6-46.6c8-17.2 13.2-35.6 20.9-52.8l5.1-10.9c4.9-9 9.6-18.3 14.1-27.5.7-.7 1.3-1.5 2-2.1l.3.2c0-.1 0-.2.1-.2s.1-.4.1-.6l1.3-1.1a21 21 0 0 1 2.4.6c-.2 0 .5.4 1.3.8 3.7 33.3 1.4 67.7 1.4 101.2s2.5 66.1-.4 98.4c-2.6 29.1-3.1 59.4-3.1 88.6.1 15.7-.8 31.6-.8 47.4 0 7.5 1 15.7.5 23.4.8 10.9-1.3 23.7-1.4 32.9 0 4 3.2 21-5.6 20.7-18.5-.7-38.8-1.2-57.3 0-21.7 1.6-45.3-2.2-66.6 1.6l-1.1-.2c-4.5.1-9.6-.8-12.5-1.1-14.8-1.6-30.3-2.2-45.2-2.9-33.9-1.6-68 1.2-101.9 1.2s-66.7.1-100.1 0c-18.8-.1-37.6-.6-56.5-.6-8.4 0-17-.4-25.5-.2a53.4 53.4 0 0 1-11.3-.2 2.8 2.8 0 0 1-2.4.7c-40.6-.1-81.2-.7-121.9-.8-20.7 0-41.4.3-62.1.5-2.1 0-11.2-.7-19.4-1.1a3.7 3.7 0 0 1-1.9.8h-1.8a3.5 3.5 0 0 1-2.7-.8l-4.5-.7c-2 0-3.4 0-3.5.2s-.9.4-1.1 0l-.2-.4c-.1-.1 0-.1-.1-.2-13.6-1-29.4.6-41.4 1.3s-25.8-.3-38.6-.3c-35.3 0-70.6-.6-105.8-.6h-60.7c-15.8 0-33.2 2-48.8.1s-29.6.3-44.4-.4c-7.1-.3-16.2.8-23.5-1a3.3 3.3 0 0 1-2.7-.9l-.8-.3a2.4 2.4 0 0 1-1-3.9c-1.4-6-.1-13.2-.7-19.2s.7-14.4-.1-21.3a2.9 2.9 0 0 1 .2-1.6 6.4 6.4 0 0 0 .2-.7 4.4 4.4 0 0 1 .2-1c2.3-9.8 10.4-19.3 15-28.2 8.7-16.9 16-34.4 24.9-51.1 18.6-34.7 40.4-67.9 58.4-103 16.6-32.5 40.7-61.4 57.1-93.9 7.6-15.2 16.6-30 25.9-44.6zm82.5-73.1c1.2-24.5 5.3-49.1 4.8-73.6 0-3-.4-6.9-.8-11.1-14.7-.3-29.4-.8-44.1-.8-9-.1-20.7-1.5-30.1.2a138.5 138.5 0 0 1-.8 39.1c-.4 12.8-.9 25.5-1.9 38.3-3.6 47.9-2.7 96.2-3.8 144.2-2 84.1-5.5 168.1-6.2 252.2h3.4a3.3 3.3 0 0 1 3.3 2.2c19.3 0 38.6 2.4 58 2.4 4.2 0 8.3-.2 12.5-.5.1-6.6.2-13.2.5-19.9 1.1-22.4 2.4-44.7 2.4-67.2.1-51.7.1-103.6 1-155.3.4-24.9 2.2-49.6 2.2-74.6s-1.7-50.5-.4-75.6z" fill="#fff"></path></g></g></svg>