<svg xmlns="http://www.w3.org/2000/svg" width="810" height="1080" viewBox="0.01566791534423828 0 809.9138793945312 1079.9639892578125" style=""><g><title>hdrawn12__387886560</title><g data-name="Layer 2"><path d="M798.2 0C660.7.4 524.1 17 387.5 33.1c-45.3 5.4-90.5 10.7-135.9 15.5-21.9 2.3-44 5.2-66 6.6l-7.7 1.1-19 3.1c-30.3 4.8-63 10.9-95.5 13 22.7 151.1 45.3 303 57.7 455.4 3.5 72.2 6.9 144.4 9.6 216.6.2 36.9-.7 73.9-2.5 110.8a26.9 26.9 0 0 0-7.7 19.7C95.4 930.9 57.8 981 9.3 1018.5c-15.4 11.9-11.4 36.8 10.2 37.8 147.7 6.8 295.4 12.3 443.1 18.1 36.2 1.4 72.3 2.5 108.5 3.7 18.9.6 39.1 2.7 58.6 1.5a830.4 830.4 0 0 0 50.1-74.6c36.9-61.6 56.1-126.2 69.1-200.3 6.3-36.2 9.1-61.7 12.7-100.6 3.5-36.7 6.1-73.6 9.1-110.4 5.2-64.7 13.4-129.1 21.3-193.4 1.3-26 2.7-52.1 4-78.2q4.5-85.8 8.9-171.6c1.3-27.1 2.7-54.1 4.1-81.2 1.2-23.4 3.5-48.3-10.3-68.7z" fill="#edeff4"></path><path d="M713.9 200.6c-18.9-9.3-40.3-7.5-61-8.3s-41.3-1.7-62-1.9c-45.7-.6-91.7.5-137.4 1.8-44.2 1.3-88.9 2.6-132.8 8.1s-87.2 8.1-129.4 19.7c-5.4 1.5-4 9 1.2 9.4 44.1 3.3 88.4-.6 132.6-.6s85.6-1.9 128.4-2.4 85.7.4 128.5 1.9l62.1 1.8c21.2.8 45.8 6.1 66.1-1.3 11.4-4.1 16.5-21.9 3.7-28.2z"></path><path d="M665.5 293.8c-40.4-4.8-81.1 1.6-121.6-4.5-36.6-5.6-74.8-4.1-111.7-3.1-74.1 2-154.6 2.6-226.2 22.8-9.1 2.6-6.5 14.8 2.1 15.6 74.9 7.4 153.3-.9 228.6-2.2 35.6-.6 71.8.6 107.2-3.9 40.9-5.1 80.8 4.2 121.6 3.4 18.5-.4 17.5-26 0-28.1z"></path><path d="M532.8 393.5c-21.2-9.9-45.8-8.2-68.8-8.1-28 .1-56.1 1.3-84 3.1-52.6 3.5-104.8 11.1-156.6 20.8-9.9 1.9-7.8 18.9 2.4 17.9 51.3-5.2 102.7-7.7 154.2-8.3 25-.3 50.1 0 75.1 1s51.3 6.3 74.4-1.3c10.2-3.4 14.7-19.7 3.3-25.1z"></path><path d="M702.6 554.4c-33.8-15-77.9-14.5-114.4-16.4a954.5 954.5 0 0 0-129.9 1.9c-40.3 3.3-80.8 8.6-120.2 17.7-36.2 8.3-81 15.7-110.8 39.1-5.8 4.6-.6 13.7 5.8 13.9 35.9.8 73.9-15.3 109.1-22.2 39.8-7.8 79.8-14.2 120.3-17.6a956.7 956.7 0 0 1 117.3-2.8q29.4 1.2 58.5 4c19.3 2 38.9 6.8 58.2 4.9 10.5-1 18.3-17.1 6.1-22.5z"></path></g></g></svg>