<svg xmlns="http://www.w3.org/2000/svg" width="1072.1" height="1072.1" viewBox="-0.0004193534259684384 0 1072.1009521484375 1072.0999755859375" style=""><g><title>afro28_299023604</title><g data-name="Layer 2"><path d="M210.6 788.5v-1.1l14.8-2.6c9.9-2.3 20.2-4.2 30.8-5.6l21.5-3.8a1.5 1.5 0 0 0-.1.9l122.2-17.2c29.5-6.5 34.8-26.7 35.6-36.5v-31.7c-6.5 1.1-21.2 1-28.2-20-9.1-27.6-30.6-17.4-30.6-17.4s-17.4 12.3-35.6 6.1-25-32.8-29.8-41.5-16.5-10.6-23.1-10-19.9 1.3-30-8.1-9.5-30.1-8.7-35.8-7.4-26.2-20.6-28.3-19.9-13.3-19.9-13.3-11.9-14.8-3.9-37.8-6.2-33.8-20.1-51-.4-34.3-.4-34.3 22.7-30 10.1-47.1-10.5-26.2-10.5-26.2-2.5-12.5 20.8-32.3 13.8-46.1 14.7-58.9 15.8-19.2 35.5-29.4 18.3-38 23.5-48 15.3-19 31.1-18.1 25.6-6.7 25.6-6.7l3.3 3.1.6-6.9s5.2-23.3 33.2-16.1 31.2-16.5 31.2-16.5-1-21.2 14-33.2 41.1-3.4 51.1-2.7 17.8-8.2 20.9-14.1 9.5-17.4 22.9-20.9 30.5 8.3 34.9 12 26.1 7.9 35-2 21.9-9.6 21.9-9.6 18.8-2.1 33.9 17.1S670 56 692 53.6s29.1 18.2 29.1 18.2 13 35.2 34.2 33.9S783 111 783 111s11.9 4.6 16 34.9 31.3 36.5 41.6 44.2 7.7 23.6 5.6 45.7 22.1 36 27.8 45.7 4.5 21.4-1.6 36c-4.5 10.9-9 17.6-11.9 21.3s-3.6 5-5.7 7.6c-13.5 16.5 8.5 53.1 8.5 53.1s13.4 17.1-.4 34.3-28.1 28-20.1 51-3.9 37.8-3.9 37.8-6.7 11.1-19.9 13.3-21.3 22.5-20.6 28.3 1.4 26.4-8.7 35.8-23.4 8.6-30 8.1-18.3 1.3-23.1 10-11.6 35.3-29.8 41.5-35.6-6.1-35.6-6.1-21.5-10.2-30.6 17.4c-5.4 16.4-15.6 20.1-22.9 20.4v31.8c.7 9.6 5.4 28.1 31 35.3l126.9 18a1.8 1.8 0 0 0-.1-1l21.5 4.1q9.3 1.7 18.3 3.6l28.5 5.5a11.5 11.5 0 0 0-.1 1.9c48.5 14.7 89.1 38.5 118.8 70.3A533.7 533.7 0 0 0 1072.1 536c0-296-240-536-536.1-536S0 240 0 536a534.4 534.4 0 0 0 100.7 312.9c28.9-27.6 66.2-48.2 109.9-60.4z" fill="#a9c5cc"></path><path d="M854.8 346.4c-13.5 16.5 8.5 53.1 8.5 53.1s13.4 17.1-.4 34.3-28.1 28-20.1 51-3.9 37.8-3.9 37.8-6.7 11.1-19.9 13.3-21.3 22.5-20.6 28.3 1.4 26.4-8.7 35.8-23.4 8.6-30 8.1-18.3 1.3-23.1 10-11.6 35.3-29.8 41.5-35.6-6.1-35.6-6.1-21.5-10.2-30.6 17.3c-5.5 16.5-15.6 20.2-22.9 20.5v-124c13-19.9 23.8-43.5 31.9-69.3 17.8-2.2 35.9-21.7 42.5-45.2 7.8-27.8-2.3-54.9-22.5-60.9a55.7 55.7 0 0 0-1.1-11.6l.4-.9 11.1-2.6c10.1-9.1 1.3-19.5 1.3-19.5s-7.7-2.5-18.3-5.4c-.9-8-2.2-15.7-3.7-23.3a32.2 32.2 0 0 0 4.5-3.3l-5.5-1.8c.3 1.7.7 3.4 1 5.1a28.2 28.2 0 0 1-10.1 3.5s-16.5 4-32.1-11.2-29.8-7.8-49-3.2a17 17 0 0 1-3.1.6c-17 2.2-24.8-13.3-24.8-13.3s-15.7-29.8-34.4-26.1-25.2-1.4-25.2-1.4-3.8-1-8.5-7.2c-3.1-4.2-6.6-11-9.6-21.5a.9.9 0 0 0-.1-.5 38.8 38.8 0 0 0-16.3-22.8 61.2 61.2 0 0 0-5.6-3.1c-25.8 31.8-44.2 77.6-50.5 130.1-9.3 2.7-15.8 4.8-15.8 4.8s-8.8 10.4 1.2 19.5l11.2 2.6.3.9a59 59 0 0 0-1 12.6c-18.4 7.5-27.3 33.4-19.8 59.9 5.9 21.1 21.1 39 37 44 8.1 26.3 19.1 50.3 32.3 70.5v123.6c-6.5 1.1-21.2 1-28.2-20.1-9.1-27.5-30.6-17.3-30.6-17.3s-17.4 12.3-35.6 6.1-25-32.8-29.8-41.5-16.6-10.6-23.1-10-19.9 1.3-30-8.1-9.5-30-8.7-35.8-7.4-26.2-20.6-28.3-19.9-13.3-19.9-13.3-11.9-14.8-3.9-37.8-6.2-33.8-20.1-51-.4-34.3-.4-34.3 22.7-30 10.1-47.1-10.5-26.2-10.5-26.2-2.5-12.5 20.8-32.3 13.8-46.1 14.7-58.9 15.8-19.2 35.5-29.4 18.4-38 23.5-48 15.3-19 31.1-18.1 25.6-6.7 25.6-6.7l3.3 3.1.6-6.9s5.2-23.3 33.2-16.1 31.2-16.5 31.2-16.5-1-21.2 14-33.2 41.1-3.4 51.1-2.7 17.8-8.3 20.9-14.1 9.5-17.4 22.9-20.9 30.5 8.3 34.9 12 26.1 7.9 35-2 21.9-9.6 21.9-9.6 18.8-2.1 33.9 17.1 31.8 13 53.7 10.6 29.2 18.2 29.2 18.2 13 35.3 34.2 33.9 27.8 5.3 27.8 5.3 11.8 4.6 15.9 34.9 31.3 36.5 41.6 44.2 7.7 23.6 5.6 45.7 22.1 36 27.8 45.7 4.5 21.4-1.6 36c-4.5 10.9-9 17.6-11.9 21.3s-3.6 5-5.7 7.6z" fill="#332427"></path><path d="M210.6 788.5c-43.7 12.2-81 32.8-109.9 60.4a542.4 542.4 0 0 0 93 99.6l11.5 3c4.1-54.4 5.9-111.5 5.4-163z" fill="#ce4115"></path><path d="M225.4 784.8l30.8-5.6c-10.6 1.4-20.9 3.3-30.8 5.6z" fill="#ce4115"></path><path d="M797 779.5l18.3 3.6q-9-2-18.3-3.6z" fill="#ce4115"></path><path d="M843.7 790.5a1023.8 1023.8 0 0 0 3.8 159l38.4-7.4a536.1 536.1 0 0 0 76.6-81.3c-29.7-31.8-70.3-55.6-118.8-70.3z" fill="#ce4115"></path><path d="M775.6 776.4a2.5 2.5 0 0 1-.7 1.5c-147 138.1-285.1 209.5-496.6 0a2.5 2.5 0 0 1-.7-1.6l122.2-17.2c29.5-6.5 34.8-26.7 35.6-36.5v-84l25.5 10.1 156.8 61.9v12.5c.7 9.6 5.4 28.1 31 35.3z" fill="#ce4115"></path><path d="M617.7 567.3v143.3l-156.8-61.9-25.5-10.1v-71.3c10.3 15.6 21.8 28.9 34.4 39.1 17.3 14 36.5 22 56.8 22 18.4 0 36-6.7 52.1-18.5 14.3-10.5 27.5-25.1 39-42.6z" fill="#9e2912"></path><path d="M560.6 477c-.3-3.7-.6-7.4-.8-11.1a47.1 47.1 0 0 1-8.4 11.1z" fill="#db5a2c"></path><path d="M496.5 340.9c1.7 4.1 1 8.6 0 12a7.2 7.2 0 0 1-1.4 2.4 61.1 61.1 0 0 1 5.3 4.7c7.1-1.8 26.3-3 27.3-2.9s20.3 1.1 27.3 2.9l2.6-2.4a6.7 6.7 0 0 1-4.6-4.2c-1-3.3-1.8-7.8-.1-12 .8-2 4.5-3.8 9.6-5.5.8-5.9 1.6-11.7 2.5-17.6-17 2.2-24.8-13.3-24.8-13.3s-15.7-29.8-34.4-26.1-25.2-1.4-25.2-1.4-3.8-1-8.5-7.2c1 2.7 1.8 5.5 2.6 8.3a464.4 464.4 0 0 1 10.5 56.4c6 1.7 10.4 3.7 11.3 5.9z" fill="#db5a2c"></path><path d="M503.6 390.4c-1-11.2-7-20.3-15.7-26.9.9 12.3 1.5 24.8 1.7 37.2a9.7 9.7 0 0 1 0 3.4c.1 8.8.1 17.6-.1 26.4 9.8-11.4 15.5-26.1 14.1-40.1z" fill="#db5a2c"></path><path d="M446.1 225.6a145 145 0 0 1 16.4 23.2c0-.2-.1-.3-.1-.5a37.9 37.9 0 0 0-16.3-22.7z" fill="#db5a2c"></path><path d="M512 380.9l.3.2a10.6 10.6 0 0 1 1.9 1.1 54.2 54.2 0 0 0 .5-10.5 49.6 49.6 0 0 0-4.5 2.8c-.7 1.9-1.3 5 1.8 6.4z" fill="#db5a2c"></path><path d="M558.1 419.1c-.1-15.8.3-31.7 1.2-47.5a36.1 36.1 0 0 0-7.5 18.8c-.9 9.7 1.5 19.7 6.3 28.7z" fill="#db5a2c"></path><path d="M538.9 371.4c.1 4.5.3 8.7.5 12.6a8.7 8.7 0 0 1 3.7-2.9l.4-.2c3.1-1.4 2.5-4.5 1.8-6.4a52.9 52.9 0 0 0-6.6-3.8 1.4 1.4 0 0 1 .2.7z" fill="#db5a2c"></path><path d="M489.6 404.1c-.2 1-.8 1.6-1.9 1a56.7 56.7 0 0 0-10.4-7.5c0 .4-1.4 17.8-16.1 17.2-12.2-.5-19.2-12.2-21.3-16.4a111.9 111.9 0 0 0-11.2 7 6.7 6.7 0 0 1-2.1 1 66.6 66.6 0 0 1 13.5 25.6 79 79 0 0 1 2.8 18.6 52.6 52.6 0 0 0 9.7-.1c14.5-1.4 27.6-9.2 36.9-20 .2-8.8.2-17.6.1-26.4z" fill="#db5a2c"></path><path d="M416.3 397.2c14-9.9 32.6-16.5 44-16.5a37.7 37.7 0 0 1 8.3 1 29.1 29.1 0 0 1 20 15.9 11.3 11.3 0 0 1 1 3.1c-.2-12.4-.8-24.9-1.7-37.2a56.9 56.9 0 0 0-15.6-8.4c-10.1-1.2-21.8-2.4-30.9-2.8s-17.9 2.5-25.4 5.7c-11.6 6.7-18.9 17.8-20.3 32.8 7.1-.2 14.1 2.1 20.6 6.4z" fill="#db5a2c"></path><path d="M438.9 330.3c5.5-1.7 31 .5 46.3 4.7a464.4 464.4 0 0 0-10.5-56.4c-.8-2.8-1.6-5.6-2.6-8.3-3.1-4.2-6.6-11-9.6-21.5a145 145 0 0 0-16.4-23.2 44.8 44.8 0 0 0-5.6-3.2c-25.8 31.8-44.2 77.6-50.5 130.2 4.9-1.4 10.5-3 16.3-4.5 10.8-10.8 26.9-16 32.6-17.8z" fill="#db5a2c"></path><path d="M659.7 390.8a38 38 0 0 0-20.7 8.4 2.1 2.1 0 0 0-1-1.7c-14-10.1-32.9-16.7-44.5-16.7a38.4 38.4 0 0 0-8.3.9 29.3 29.3 0 0 0-19.9 15.8 12.8 12.8 0 0 0-1.2 5.2c0 1.5.4 2.6 1.3 2.6a1.3 1.3 0 0 0 .8-.2 55 55 0 0 1 10.2-7.5c1.6 3.3 8.7 16.7 21.7 17.2s15.5-12.7 16-16.3a99.2 99.2 0 0 1 11.1 6.9c2.1 1.6 4.6 1.2 7 .2A67.7 67.7 0 0 0 618 432a77.3 77.3 0 0 0-2.8 18.3l-3.4.4a66.5 66.5 0 0 1-8.9-.2c-19.2-1.8-36-14.9-44.7-31.4-.1-5.4-.1-10.9 0-16.4v-1.3c0-1.3.1-2.7.1-4v-1.5c0-.7.1-1.4.1-2.1s0-2.1.1-3.1v-1.1l.3-7.1a13.4 13.4 0 0 1 .1-2v-.2c.1-2.9.2-5.8.4-8.7 6.1-7.9 15.4-13.8 25.9-17.2 8-1 16.2-1.8 22.9-2.1 16.9-.9 35.7 10 40.9 13.2 6 6.5 9.8 15 10.7 25.3z" fill="#db5a2c"></path><path d="M617.1 320.9c-15.6-15.3-29.8-7.8-49-3.2a17 17 0 0 1-3.1.6c-.9 5.9-1.7 11.7-2.5 17.6 14.9-4.7 42.2-7.4 47.8-5.7s20.5 6.3 31.3 16.1c7.5 1.7 15 3.7 21.4 5.6-.9-8-2.2-15.7-3.7-23.3a28.2 28.2 0 0 1-10.1 3.5s-16.5 4.1-32.1-11.2z" fill="#db5a2c"></path><path d="M480.2 543.4c-.2 1.1-.4 2.3-.5 3.5h3.2z" fill="#db5a2c"></path><path d="M564 533.8l2.3-.6a9.9 9.9 0 0 1-.2-1.7z" fill="#db5a2c"></path><path d="M481.8 530.8c0 .4-.1.7-.1 1l4.6 1.2-2.1-1.9z" fill="#db5a2c"></path><path d="M474.3 529.9l7.4 1.9c0-.3.1-.6.1-1z" fill="#db5a2c"></path><path d="M566.1 531.5a9.9 9.9 0 0 0 .2 1.7l12.6-3.3-12.7 1.4a.3.3 0 0 1-.1.2z" fill="#db5a2c"></path><path d="M615.4 458c1.4 19 10.1 35.3 24.2 39.3a25.9 25.9 0 0 0 10 .7 357.9 357.9 0 0 0 14.9-78c-8.3 20.2-26.5 35.2-49.1 38z" fill="#db5a2c"></path><path d="M659.3 405.7a58.2 58.2 0 0 1-3.2 12.6 50.4 50.4 0 0 1-40.9 32A77.3 77.3 0 0 1 618 432a67.7 67.7 0 0 1 14.2-26.4l1.7-.8c2.7-1.4 5.1-3.7 5.1-5.6a38 38 0 0 1 20.7-8.4 62.9 62.9 0 0 1-.4 14.9z" fill="#db5a2c"></path><path d="M669.6 391.9a95.1 95.1 0 0 1-.9 12.8 66.7 66.7 0 0 1-4.2 15.3l-8.4-1.7a50.4 50.4 0 0 1-40.9 32l-3.4.4.6 7.6a55.8 55.8 0 0 1-10.8-.1c-16.9-1.6-32.3-10.8-43.2-23.6a72 72 0 0 1-13.3-23v.3s-3-9-4.8-17.5c3.5 33.5 13.4 41.8 18.9 58.1a79.4 79.4 0 0 1 2.1 8.1c.2 1.4-.4 3.2-1.4 5.3a47.1 47.1 0 0 1-8.4 11.1c-2.5 2.6-5 4.7-6.7 5.4-5.7 2.4-12.6 5-15 5H523c-2.2.1-9.2-2.6-15-5-1.7-.7-4.1-2.7-6.6-5.4-5.1-5.3-10.4-13.1-9.8-17 2.1-9.9 4.8-19.2 7.5-27.9a70.8 70.8 0 0 1-10 10.5c-9.9 8.5-22.1 14.4-35.3 15.6a58.9 58.9 0 0 1-11.1.1l-2.5-.2-2.5-.4c-24.7-4-43.7-22.8-49.6-46.6a45.3 45.3 0 0 1-1.3-6.4 80.2 80.2 0 0 1-.9-11.8c-18.4 7.5-27.3 33.4-19.8 59.9 5.9 21.1 21.1 39 37 44 8.1 26.3 19.1 50.3 32.3 70.5 10.3 15.6 21.8 28.9 34.4 39.1 17.3 14 36.5 22 56.8 22 18.4 0 36-6.7 52.1-18.5 14.3-10.5 27.5-25.1 39-42.6 13-19.9 23.8-43.5 31.9-69.3 17.8-2.2 35.9-21.7 42.5-45.2 7.8-27.8-2.3-54.9-22.5-60.9zm-88.4 138.4a109.7 109.7 0 0 1-11 16.6 17.4 17.4 0 0 1-1.8 2.2c-7.8 9.3-18.6 18.6-30.7 18.9-4.6.1-8.2 0-11.1-.2s-6.6.3-11.2.2c-13-.3-24.6-11.2-32.6-21.1h-3.1c.2-1.2.3-2.4.5-3.5a111 111 0 0 1-8.3-13.1l-1-1.2 1.8.4 10.1-6.6 11.7-7.7s15.8-9 25.1 0a12.2 12.2 0 0 0 7 2.6 11.3 11.3 0 0 0 6.9-2.6 14.8 14.8 0 0 1 6.5-3.5c8.7-2.1 18.6 3.5 18.6 3.5l6 3.9 15.8 10.4 1.8-.4z" fill="#db5a2c"></path><path d="M396.2 405.7c3.3 24.2 21.8 43 46.7 44.9a79 79 0 0 0-2.8-18.6 66.6 66.6 0 0 0-13.5-25.6c-2.1.4-4.5-.4-6.6-1.6s-6.8-5.4-4.1-7.3l.4-.3c-6.5-4.3-13.5-6.6-20.6-6.4a63.1 63.1 0 0 0 .5 14.9z" fill="#db5a2c"></path><path d="M435.4 477v6.2a39.9 39.9 0 0 0 3.1-6.2z" fill="#db5a2c"></path><path d="M552.9 341.4c-1.7 4.2-.9 8.7.1 12a6.7 6.7 0 0 0 4.6 4.2l2.9-2.4c.6-6.5 1.3-12.9 2-19.3-5.1 1.7-8.8 3.5-9.6 5.5z" fill="#9e2912"></path><path d="M616.1 351a76.4 76.4 0 0 0-30.9 3.4c8-1 16.2-1.8 22.9-2.1 16.9-.9 35.7 10 40.9 13.2-7.6-8.2-19-13.2-32.9-14.5z" fill="#9e2912"></path><path d="M616.2 341.7c6.9.5 16.1 2.4 25.4 4.6-10.8-9.8-25.8-14.5-31.3-16.1s-32.9 1-47.8 5.7c-.7 6.4-1.4 12.8-2 19.3 13.9-10.4 34-15.2 55.7-13.5z" fill="#9e2912"></path><path d="M495.1 355.3a7.2 7.2 0 0 0 1.4-2.4c1-3.4 1.7-7.9 0-12-.9-2.2-5.3-4.2-11.3-5.9.6 5 1.1 10 1.6 15.1a64.3 64.3 0 0 1 8.3 5.2z" fill="#9e2912"></path><path d="M486.8 350.1c-.5-5.1-1-10.1-1.6-15.1-15.3-4.2-40.8-6.4-46.3-4.7s-21.8 7-32.6 17.8c11.7-3 24.1-5.7 32.9-6.4 17.8-1.4 34.5 1.6 47.6 8.4z" fill="#9e2912"></path><path d="M441.4 352.3c9.1.4 20.8 1.6 30.9 2.8a75.7 75.7 0 0 0-32.9-4.1c-9 .9-16.9 3.2-23.4 7 7.5-3.2 16.7-6 25.4-5.7z" fill="#9e2912"></path><path d="M769.2 157.6c-5.2-10-15.3-19-31.1-18.1s-25.6-6.7-25.6-6.7l-8 7.4a554.6 554.6 0 0 1 68.7 32c-1.3-5.9-2.3-11.3-4-14.6z" fill="#332427"></path><path d="M659.3 328.6a32.2 32.2 0 0 0 4.5-3.3l-5.5-1.8c.3 1.7.7 3.4 1 5.1z" fill="#332427"></path><path d="M792.7 205.6l9.5 4.9a23.1 23.1 0 0 0 1.8-6.1l-.6-13.9s-11-7.6-30.2-18.3c2.6 12 6.4 26.6 19.5 33.4z" fill="#332427"></path><path d="M849.8 970.7c12.4-9 24.5-18.5 36.1-28.6l-38.4 7.4c.7 7.1 1.4 14.2 2.3 21.2z" fill="#ce4115"></path><path d="M193.7 948.5c3.6 3.1 7.3 6 11 9 .2-2 .3-4 .5-6z" fill="#ce4115"></path><path d="M797 779.5l-21.5-4.1a1.8 1.8 0 0 1 .1 1l13.6 1.9z" fill="#f9f4e4"></path><path d="M843.8 788.6l-28.5-5.5c9.7 2.1 19.2 4.6 28.4 7.4a11.5 11.5 0 0 1 .1-1.9z" fill="#f9f4e4"></path><path d="M277.6 776.3a1.5 1.5 0 0 1 .1-.9l-21.5 3.8 7.7-.9z" fill="#f9f4e4"></path><path d="M210.6 787.4v1.1c4.9-1.3 9.8-2.6 14.8-3.7z" fill="#f9f4e4"></path><path d="M847.5 949.5a1023.8 1023.8 0 0 1-3.8-159c-9.2-2.8-18.7-5.3-28.4-7.4l-18.3-3.6-7.8-1.2-13.6-1.9a2.5 2.5 0 0 1-.7 1.5c-147 138.1-285.1 209.5-496.6 0a2.5 2.5 0 0 1-.7-1.6l-13.7 2-7.7.9-30.8 5.6c-5 1.1-9.9 2.4-14.8 3.7.5 51.5-1.3 108.6-5.4 163l60.6 15.4-8.7 27c8.9 5.4 18 10.6 27.2 15.5a185.6 185.6 0 0 1 71.7-14.2c62.8 0 117.6 30.6 146.5 75.8 11.1.7 22.3 1.1 33.5 1.1l14-.2c28.8-45.7 83.8-76.7 147.1-76.7a185.3 185.3 0 0 1 81.8 18.8c9.5-4.8 18.8-9.9 28-15.3l-18.5-37.9z" fill="#f9f4e4"></path><path d="M788.4 960.8l18.5 37.9q22.2-13.1 42.9-28c-.9-7-1.6-14.1-2.3-21.2z" fill="#f9f4e4"></path><path d="M205.2 951.5c-.2 2-.3 4-.5 6a543.6 543.6 0 0 0 52.4 36.4l8.7-27z" fill="#f9f4e4"></path><path d="M550 1071.9a532.2 532.2 0 0 0 228.9-57.9 185.3 185.3 0 0 0-81.8-18.8c-63.3 0-118.3 31-147.1 76.7z" fill="#f9f4e4"></path><path d="M356 995.2a185.6 185.6 0 0 0-71.7 14.2 533 533 0 0 0 218.2 61.6c-28.9-45.2-83.7-75.8-146.5-75.8z" fill="#f9f4e4"></path><path fill="#332427" d="M566.2 405.1z"></path><path d="M639 399.3a2.1 2.1 0 0 0-1-1.8c-14-10.1-32.9-16.8-44.5-16.8a38.5 38.5 0 0 0-8.3 1 29.1 29.1 0 0 0-19.9 15.9c-1.5 2.8-2 8.9.9 7.5a60.8 60.8 0 0 1 10.2-7.5l-.3-.7s13.7-24.4 38.1.6a6.7 6.7 0 0 1-.1 1 99.2 99.2 0 0 1 11.1 6.9c2.1 1.6 4.6 1.2 7 .2a44.6 44.6 0 0 1 6.8-6.3z" fill="#332427"></path><path d="M639 399.3a44.6 44.6 0 0 0-6.8 6.3l1.6-.8c2.8-1.5 5.2-3.7 5.2-5.5z" fill="#332427"></path><path d="M489.6 400.7v3.4a9.7 9.7 0 0 0 0-3.4z" fill="#332427"></path><path d="M439.9 398.4a9.9 9.9 0 0 1-.7-1.5s13.7-24.4 38.1.6a56.7 56.7 0 0 1 10.4 7.5c1.1.6 1.7 0 1.9-1v-3.4a11.3 11.3 0 0 0-1-3.1 29.1 29.1 0 0 0-20-15.9 37.7 37.7 0 0 0-8.3-1c-11.4 0-30 6.6-44 16.5a52 52 0 0 1 10.3 9.2 6.7 6.7 0 0 0 2.1-1 111.9 111.9 0 0 1 11.2-6.9z" fill="#332427"></path><path fill="#332427" d="M487.7 405.1z"></path><path d="M416.3 397.2l-.4.3c-2.7 1.9.5 5.3 4.1 7.3s4.5 2 6.6 1.6a52 52 0 0 0-10.3-9.2z" fill="#332427"></path><path d="M559.8 465.9a47.1 47.1 0 0 1-8.4 11.1h-50c-5.1-5.3-10.4-13.1-9.8-17 2.1-9.9 4.8-19.2 7.5-27.9a71.1 71.1 0 0 0 11.3-20.5v.3s6-17.7 6.1-26.7c0 0 0-1.4-2.3-3a54.2 54.2 0 0 0 .5-10.5 60.6 60.6 0 0 1 7.5-3.4 17.6 17.6 0 0 1 11.1 0 45.8 45.8 0 0 1 5.4 2.4 1.4 1.4 0 0 1 .2.6c.1 4.6.3 8.8.5 12.7a2.3 2.3 0 0 0-.5 1.2 50.5 50.5 0 0 0 1.3 9.2c3.5 33.5 13.4 41.8 18.9 58.1.2 4.5.4 8.9.7 13.4z" fill="#ce4115"></path><path d="M561.2 460.6a79.4 79.4 0 0 0-2.1-8.1c.2 4.5.4 8.9.7 13.4a10 10 0 0 0 1.4-5.3z" fill="#ce4115"></path><path d="M508 482.4c5.8 2.4 12.8 5.1 15 5h6.6c2.2.1 9.3-2.6 15.1-5 1.7-.7 4.2-2.8 6.7-5.4h-50c2.5 2.7 4.9 4.7 6.6 5.4z" fill="#ce4115"></path><path d="M669.3 391.8h.3a55.7 55.7 0 0 0-1.1-11.6l.4-.9 11.1-2.6c10.1-9.1 1.3-19.5 1.3-19.5s-7.7-2.5-18.3-5.4a333.6 333.6 0 0 1 2.5 39.1z" fill="#f9f4e4"></path><path d="M551.8 390.4a36.1 36.1 0 0 1 7.5-18.8c.3-4.6.6-9.3 1-13.9a6.2 6.2 0 0 1-2.7-.1L555 360l.9.3c8.2 2.7-10.6 14.2-10.6 14.2.7 1.9 1.3 5-1.8 6.4l-.4.2a8.7 8.7 0 0 0-3.7 2.9c.2 3.7.5 7.2.8 10.4 1.8 8.5 4.8 17.5 4.8 17.5v-.3a69.2 69.2 0 0 0 13.3 23l-.3-15.5c-4.7-9-7.1-19-6.2-28.7z" fill="#f9f4e4"></path><path d="M651.5 360s-.4 6.9-1.1 6.4l-1.4-.9c6 6.5 9.8 15 10.7 25.3a37.1 37.1 0 0 1 5.8.2 333.6 333.6 0 0 0-2.5-39.1c-6.4-1.9-13.9-3.9-21.4-5.6a35.1 35.1 0 0 1 9.9 13.7z" fill="#f9f4e4"></path><path d="M615.2 450.3a56.7 56.7 0 0 1-12.4.2c-19.1-1.8-35.9-14.9-44.7-31.4l.3 15.5c10.9 12.8 26.3 22 43.2 23.6a57.6 57.6 0 0 0 13.8-.2c-.2-2.5-.2-5.1-.2-7.7z" fill="#f9f4e4"></path><path d="M585.2 354.4c-9.9 1.1-19.3 2.5-24.9 3.3-.4 4.6-.7 9.3-1 13.9 6.1-7.9 15.4-13.8 25.9-17.2z" fill="#f9f4e4"></path><path d="M665.5 391v1.9c0 9.1-.3 18.1-1 27.1a66.7 66.7 0 0 0 4.2-15.3 95.1 95.1 0 0 0 .9-12.8h-.3z" fill="#f9f4e4"></path><path d="M659.3 405.7c-3.2 23.3-20.6 41.6-44.1 44.6 0 2.6 0 5.2.2 7.7 22.6-2.8 40.8-17.8 49.1-38 .7-9 1-18 1-27.1V391a37.1 37.1 0 0 0-5.8-.2 62.9 62.9 0 0 1-.4 14.9z" fill="#f9f4e4"></path><path d="M560.3 357.7a21.1 21.1 0 0 0 .2-2.5l-2.9 2.4a6.2 6.2 0 0 0 2.7.1z" fill="#f9f4e4"></path><path d="M560.5 355.2a21.1 21.1 0 0 1-.2 2.5c5.6-.8 15-2.2 24.9-3.3a76.4 76.4 0 0 1 30.9-3.4c13.9 1.3 25.3 6.3 32.9 14.5l1.4.9c.7.5 1.1-6.4 1.1-6.4a35.1 35.1 0 0 0-9.9-13.7c-9.3-2.2-18.5-4.1-25.4-4.6-21.7-1.7-41.8 3.1-55.7 13.5z" fill="#f9f4e4"></path><path d="M540.2 394.4c-.3-3.2-.6-6.7-.8-10.4a2.3 2.3 0 0 0-.5 1.2 61.2 61.2 0 0 0 1.3 9.2z" fill="#f9f4e4"></path><path d="M390 352.6c-9.3 2.6-15.8 4.7-15.8 4.7s-8.8 10.4 1.2 19.5l11.2 2.6.3.9a59 59 0 0 0-1 12.6l1.7-.6a320.7 320.7 0 0 1 2.4-39.7z" fill="#f9f4e4"></path><path d="M499.1 432.1c6.3-19.6 13-36 15.1-49.9a10.6 10.6 0 0 0-1.9-1.1l-.3-.2c-3.1-1.4-2.5-4.5-1.8-6.4 0 0-18.9-11.5-10.7-14.2l.9-.3a61.1 61.1 0 0 0-5.3-4.7 6.9 6.9 0 0 1-5.8 2l-1.9-.3c.2 2.2.4 4.3.5 6.5 8.7 6.6 14.7 15.7 15.7 26.9 1.4 14-4.3 28.7-14.1 40.1-.1 4-.2 8-.4 12.1a70.8 70.8 0 0 0 10-10.5z" fill="#f9f4e4"></path><path d="M472.3 355.1a56.9 56.9 0 0 1 15.6 8.4c-.1-2.2-.3-4.3-.5-6.5z" fill="#f9f4e4"></path><path d="M453.8 458.2c13.2-1.2 25.4-7.1 35.3-15.6.2-4.1.3-8.1.4-12.1-9.3 10.8-22.4 18.6-36.9 20a52.6 52.6 0 0 1-9.7.1 65.4 65.4 0 0 1-.2 7.7 58.9 58.9 0 0 0 11.1-.1z" fill="#f9f4e4"></path><path d="M388.9 391.8a31 31 0 0 1 6.8-1c1.4-15 8.7-26.1 20.3-32.8a100.4 100.4 0 0 0-16.7 9c-.7.5-1.2-6.5-1.2-6.5a34.9 34.9 0 0 1 8.2-12.4c-5.8 1.5-11.4 3.1-16.3 4.5a320.7 320.7 0 0 0-2.4 39.7z" fill="#f9f4e4"></path><path d="M388.1 411.1c-.4-6-.5-12.1-.5-18.2v-.6l-1.7.6a80.2 80.2 0 0 0 .9 11.8 45.3 45.3 0 0 0 1.3 6.4z" fill="#f9f4e4"></path><path d="M442.9 450.6c-24.9-1.9-43.4-20.7-46.7-44.9a63.1 63.1 0 0 1-.5-14.9 31 31 0 0 0-6.8 1l-1.3.5v.6c0 6.1.1 12.2.5 18.2 6.4 25.4 27.5 45.1 54.6 47.2a65.4 65.4 0 0 0 .2-7.7z" fill="#f9f4e4"></path><path d="M495.1 355.3a64.3 64.3 0 0 0-8.3-5.2l.6 6.9 1.9.3a6.9 6.9 0 0 0 5.8-2z" fill="#f9f4e4"></path><path d="M472.3 355.1l15.1 1.9-.6-6.9c-13.1-6.8-29.8-9.8-47.6-8.4-8.8.7-21.2 3.4-32.9 6.4a34.9 34.9 0 0 0-8.2 12.4s.5 7 1.2 6.5a100.4 100.4 0 0 1 16.7-9c6.5-3.8 14.4-6.1 23.4-7a75.7 75.7 0 0 1 32.9 4.1z" fill="#f9f4e4"></path><path d="M510.4 411.6v.3s6-17.8 6.1-26.7c0 0 0-1.4-2.3-3-2.1 13.9-8.8 30.3-15.1 49.9a69.9 69.9 0 0 0 11.3-20.5z" fill="#f9f4e4"></path><path d="M510.2 374.5a49.6 49.6 0 0 1 4.5-2.8c4.5-11.7 10.6-12.4 11.6-11.5 1-.9 8.3 0 12.4 10.6a52.9 52.9 0 0 1 6.6 3.8 6.1 6.1 0 0 1 .5-1.2A45.3 45.3 0 0 1 555 360c-7-1.8-26.2-3-27.3-2.9s-20.2 1.1-27.3 2.9a45.6 45.6 0 0 1 9.3 13.3z" fill="#f9f4e4"></path><path d="M526.3 360.1c-1-.9-7.1-.2-11.6 11.5a68.2 68.2 0 0 1 7.5-3.4 17.6 17.6 0 0 1 11.1 0 45.8 45.8 0 0 1 5.4 2.4c-4.1-10.5-11.4-11.4-12.4-10.5z" fill="#f9f4e4"></path><path d="M545.3 374.5s18.8-11.5 10.6-14.2l-.9-.3a45.3 45.3 0 0 0-9.2 13.3 6.1 6.1 0 0 0-.5 1.2z" fill="#f9f4e4"></path><path d="M510.2 374.5l-.5-1.2a45.6 45.6 0 0 0-9.3-13.3l-.9.3c-8.2 2.7 10.7 14.2 10.7 14.2z" fill="#f9f4e4"></path><path d="M532.3 542l31.7-8.2 2.1-2.3-40.6 4.5-41.3-4.9 2.1 1.9 34.5 9z" fill="#f9f4e4"></path><path d="M566.1 531.5a.3.3 0 0 0 .1-.2h-.1z" fill="#f9f4e4"></path><path d="M484.2 531.1l-1.5-1.6 82.9-1.5c-.3-3-.7-5.9-1-8.9l-6-3.9s-15.8-9-25.1 0a11.3 11.3 0 0 1-6.9 2.6 12.2 12.2 0 0 1-7-2.6c-9.3-9-25.1 0-25.1 0l-11.7 7.7c-.3 2.7-.7 5.3-1 7.9z" fill="#b53716"></path><path d="M481.8 530.8c.3-2.6.7-5.2 1-7.9l-10.1 6.6 1.6.4z" fill="#b53716"></path><path d="M569.2 527.9l-3 3.4 12.7-1.4 1.5-.4-15.8-10.4c.3 3 .7 5.9 1 8.9z" fill="#b53716"></path><path d="M566.1 531.4c-.2-1.2-.3-2.3-.5-3.4l-82.9 1.5 1.5 1.6 41.3 4.9z" fill="#b53716"></path><path d="M566.2 531.3l3-3.4h-3.6c.2 1.1.3 2.2.5 3.4z" fill="#b53716"></path><path d="M546.5 546.9h21.6l-1.8-13.7-2.3.6a60.5 60.5 0 0 1-17.5 13.1z" fill="#b53716"></path><path d="M486.3 533l-4.6-1.2-1.5 11.6 2.7 3.5h24.7a78.9 78.9 0 0 1-21.3-13.9z" fill="#b53716"></path><path d="M474.3 529.9l-1.9-.2.3-.2-1.8-.4 1 1.2a104.8 104.8 0 0 0 8.3 13.1l1.5-11.6z" fill="#b53716"></path><path d="M582.2 529.1l-1.8.4.3.2-1.8.2-12.6 3.3 1.8 13.7h2.1a109.7 109.7 0 0 0 11-16.6z" fill="#b53716"></path><path d="M546.5 546.9c-14.3 6.8-27.9 4.7-38.9 0h-24.7c7.9 10 19.5 20.8 32.5 21.1 4.6.1 8.3 0 11.1-.2s6.6.3 11.2.2c12.1-.3 22.9-9.6 30.7-18.9l-.3-2.2z" fill="#b53716"></path><path d="M568.4 549.1a17.4 17.4 0 0 0 1.8-2.2h-2.1z" fill="#b53716"></path><path d="M564 533.8l-31.7 8.2h-11.5l-34.5-9a78.9 78.9 0 0 0 21.3 13.9h38.9a60.5 60.5 0 0 0 17.5-13.1z" fill="#b53716"></path><path d="M546.5 546.9h-38.9c11 4.7 24.6 6.8 38.9 0z" fill="#b53716"></path><path fill="#b53716" d="M474.3 529.9l-1.6-.4-.3.2 1.9.2z"></path><path fill="#b53716" d="M580.7 529.7l-.3-.2-1.5.4 1.8-.2z"></path><path d="M588 393a46.8 46.8 0 0 0-11.6 4.6c1.6 3.3 8.7 16.7 21.7 17.2s15.5-12.7 16-16.3c-9.8-5.3-18.7-7.2-26.1-5.5z" fill="#332427"></path><path d="M576.1 396.9l.3.7A46.8 46.8 0 0 1 588 393c7.4-1.7 16.3.2 26.1 5.5a6.7 6.7 0 0 0 .1-1c-24.4-25-38.1-.6-38.1-.6z" fill="#332427"></path><path d="M439.9 398.4c2.1 4.2 9.1 15.9 21.3 16.4 14.7.6 16.1-16.8 16.1-17.2a42.5 42.5 0 0 0-11.5-4.6c-7.3-1.7-16.1.2-25.9 5.4z" fill="#332427"></path><path d="M439.2 396.9a9.9 9.9 0 0 0 .7 1.5c9.8-5.2 18.6-7.1 25.9-5.4a42.5 42.5 0 0 1 11.5 4.6c-24.4-25.1-38.1-.7-38.1-.7z" fill="#332427"></path></g></g></svg>