<svg xmlns="http://www.w3.org/2000/svg" width="561.7" height="1072.1" viewBox="0.000003814697265625 -0.028545379638671875 561.7000122070312 1072.1234130859375" style=""><g><title>afro42_299023604</title><g data-name="Layer 2"><path d="M530.5 912.6l-53.9 14.2s45.5 66.4 37.2 85.7a254.4 254.4 0 0 1-19.8 36.4s-2.1 8.5 48.1-23.1c15.3-8.4 6.4-11.5 6.4-11.5s-4.6-6.1-6.9-9.8c-16.6-26.4-.2-83.8-11.1-91.9z" fill="#804342"></path><path d="M337.3 7.2S311.6-7.6 296 23.5s3.9 15.5-19.4 38.8 3.9 31.1-7.8 46.6 7.4 23.4 7.4 23.4h50.9l11.7-38.9z" fill="#332427"></path><path d="M550.1 368.2c-3.5-76.2-48.7-191.8-89.7-199.1l-68.8-12.9-116.9 6.4-.4 1.1a40 40 0 0 0-11.7.4c-37.2 3.9-55 47-55 47l-25.5 66.5c-6.8-39.6-14.9-80.5-14.9-80.5l-17.5-23.4-25.3 153c-3.1 18.9 0 37.6 9.7 52.5s20.5 28.8 39.2 15.5l1.5-1.6c26.7-16.1 55.8-51.1 79.5-88.6l3.5 95.6 168.6-.7 13.6-113 49.9 86.5c1.5 12.1 4.6 36.5 9.9 77 6.2 46.5 20.8 118.3 20.8 118.3l18.8 25 14.9-152.9c1.3-12.8 0-46.8-4.2-72.1z" fill="#6d67b9"></path><path d="M317.7 82.5l6.7 74.6-22 3.2c3.7 43.8 106.5 25.6 114.3 1.7l-37.6-11.3L361 81.8z" fill="#804342"></path><path d="M324 152.5l-3.7-36.1s21.3-.6 30.5-32.9c1.6-3.1 6.5 25.2-1 39.3-6 11.3-25.8 29.7-25.8 29.7z" fill="#5e3232"></path><path d="M372.3 12.4c14.4 9.1-46.4-18.2-69.2 24.6 0 0-8.1 15.9-5.3 23 0 0-8.5 9.9-12.9 14.1-2.5 2.4-.7 8 4 8.4 6.8.6 0 9.4 0 9.4h-.8l4.6 5.7s-3.2 4.4-.5 6.1a2.9 2.9 0 0 0 2 .5l.9 7.9s.6 6.7 5.7 8.5 23.8-4.1 30.7-8.7c8.7-5.8 17.9-13.1 19.2-23.2l.8 2.2.6 2.2c5.5 2.8 19.8-12.6 22.8-18.6 6.3-12.7 29.4.5 30-12.9.8-19.1-5.9-37.8-32.6-49.2z" fill="#804342"></path><path d="M300 49.6l.5 5.5s11.6-5.5 19.1 3c0 0 3-3.8-6.2-8.5 0 0-10.7-1.3-13.4 0z" fill="#332427"></path><path d="M315.2 65s-9.5-2.6-10.6-4.5-1 5.3 1 7.6 9.6-3.1 9.6-3.1z" fill="#332427"></path><path d="M287.8 91.5s5.1.2 7.2 1.6 2.7 3.3 8.2 5.5l-10.6-1.3z" fill="#5e3232"></path><path d="M292.3 104s7.4 1 10.5-5l-10.2-1.3s-3.2 4.1-.3 6.3z" fill="#5e3232"></path><path d="M314 65.5s-7 .7-11.2-3.8c0 0-1.7-2.7-1.1-3.1s9.8 4.6 15.4 5c1.8.2-3.1 1.9-3.1 1.9z" fill="#332427"></path><path d="M392.5 24.7c15.3 11.6 19.9 11.5 19.9 37.8 0 29 14.8 1.8 17.8 40.6 1.1 15.3-10.2 24.5-10.2 24.5 0 1.7-68.5 1.7-64.8 0 0 0-12.7-8.7-3.5-27.7 4.6-9.5-5.4-15.2-8.9-19.9-9.1-11.7-4-21.3-6.5-23.3-9.7-7.9-23.7-17.4-27.9-32 0 0 26.3-40.9 66.7-17.5 11.3 6.5 11.9 13.3 17.4 17.5z" fill="#332427"></path><path d="M44.6 1016.9s45.3-88.1 60.9-151.2S145.2 765 145.2 765l42 21.3c23.6 33.5-6 111.2-85 188.4-33.6 28.4-25.4 29.7-24.4 38.9 2.2 19.5-10 23.5-10 23.5s-12 2.2-21.6 9.6-30.9 17.6-34.5 16.1c-6.5-2.8 21.5-29.1 32.9-45.9z" fill="#804342"></path><path d="M561.7 967.3s.3-104.4-60-226.8c-41.6-84.5-50.3-177.9-51.6-227.8a8.8 8.8 0 0 1 .2-1.6 150.9 150.9 0 0 0 0-34.3v-.2h-.1c-6.8-55.3-45.2-78.7-45.2-78.7l-131.8 1.9a412.2 412.2 0 0 0-48.1 93L52.3 968.7h85.5s87.5-95.7 128.7-199.2c16.4-41.1 40.5-77.1 65.9-108.8l148 311.9z" fill="#332427"></path><g><path d="M551.5 594.7s-4.2 16.8-6.8 20.2-2.9-.4-2.9-.4-.9 6.1-3 6.2a23 23 0 0 1-4.7-.8s-3.7 2.7-3.9-.8c0-.3-1.8 1.5-2.1 1.7s-3.3.8-2.6-4.6-2.5-19.9-1.4-28.2c.4-3.2-2.7 6.6-2.7 6.6s.2 9.8-2.2 11.1-2.3-3.1-3.2-7c-1.5-7-1.2-16.2 1.5-22.8 1.7-4 5.4-8.8 9.2-14.3 5.5-8 18-4.8 18.5-2.9 3.9 13.2 6.3 36 6.3 36z" fill="#804342"></path><path d="M530.2 619.1s.8-13.7.2-15.3-.9-3.1.5-2.8 1 15.7-.7 18.1z" fill="#5e3232"></path><path d="M534.1 619.9s3.8-12.1 2.5-18.8 4.3 4.9-.6 19.4z" fill="#5e3232"></path><path d="M541.8 614.5s2.3-12 1.8-14.2a13.7 13.7 0 0 1-.5-3.9s1.1-1.1 1.8.9-.1 11.2-2.8 17.9z" fill="#5e3232"></path></g><g><path d="M140.4 167.1s2.4-17.1 4.6-20.8 3 .1 3 .1.2-6.1 2.3-6.5a25.1 25.1 0 0 1 4.7.3s3.4-3.1 4 .4c0 .3 1.6-1.7 1.9-1.9s3.2-1.2 3 4.3 4.7 19.5 4.5 27.8c-.1 3.3 2-6.8 2-6.8s-1.3-9.7.9-11.3 2.7 2.8 4 6.7c2.2 6.7 2.8 15.9.8 22.8-1.2 4.2-4.4 9.3-7.6 15.2-4.5 8.5-17.3 6.7-18.1 4.8-5.2-12.7-10-35.1-10-35.1z" fill="#804342"></path><path d="M159 140.6s.6 13.7 1.4 15.2 1.2 3-.2 2.9-2.7-15.6-1.2-18.1z" fill="#5e3232"></path><path d="M155 140.2s-2.5 12.4-.5 19-4.8-4.4-1.5-19.3z" fill="#5e3232"></path><path d="M148 146.4s-1.1 12.1-.3 14.3a12.3 12.3 0 0 1 .8 3.8s-.9 1.2-1.9-.7-1.1-11.1 1-18.1z" fill="#5e3232"></path></g><path fill="#718dcf" d="M349.8 90.6l-6.8 27.5h18.5l-11.7-27.5z"></path><path d="M331.1 660.3s-18.9-54.5-21.1-85.7l-10-26.7 3.3 150.3z" fill="#132435"></path><g><path d="M57.7 979.9l30.2 12.5s-7.4 11.5-7.5 18.3 7.3 16.8 3.4 23.5c-6.7 11.7-18.6 1.4-23.8 15.3-4.5 12-53.6 19.2-60 11.8 0 0 23.9-17.8 33.9-33.8s23.8-47.6 23.8-47.6z" fill="#f9f4e4"></path><path fill="#132435" d="M67.7 1040.5l1 12.1 10.3-.5 3.6-16.6-14.9 5z"></path></g><g><path d="M507.1 983.4l34.1-4.3s0 16.2 1.6 22.8 11.3 14.4 9.2 21.9c-3.6 13-17.6 6-19.2 20.8-1.3 12.8-47 32.1-55.1 26.5 0 0 20.1-24.4 25.8-42.5s3.6-45.2 3.6-45.2z" fill="#f9f4e4"></path><path fill="#132435" d="M538 1033.9l4 11.5 9.9-3.1-.7-16.9-13.2 8.5z"></path></g></g></g></svg>