<svg xmlns="http://www.w3.org/2000/svg" width="1013.9" height="788.6" viewBox="0.017904281616210938 -0.01874828338623047 1013.8768920898438 788.6259765625" style=""><g><title>licfloral48_98466484</title><g fill="#fc9797" data-name="Layer 2"><path d="M984.9 258.2c-31-35.4-78.2-37-120.6-47.2-30.8-7.4-46.6-25.8-47.7-57.9-.8-23.6 3.6-46.9-9.7-68-23.1-36.6-83-30.8-118.8-24.6S618 79.8 585.2 95.6c-19.3-26.9-23.3-60.3-51.5-81.1-25.5-18.7-62.3-16.2-91.3-9.8-35.2 7.7-70.7 27.4-99.4 48.7s-44.5 48.3-65.1 76.9c-26.2 36.4-72.2 15.2-108.3 29.1-27.5 10.6-53 31.4-64.8 59.1-23.7 55.8-4.2 128.1 36.5 171.5-22.9 7.3-47.4 4-70.8 9.2-14.5 3.2-28.4 10.3-40.7 18.4-24.7 16.1-37.6 43.9-24.7 72.2 15.4 34 44.4 65.1 74 87.2 31.7 23.8 75.8 33 115.9 35.3-39.4 46.4 29.9 116.6 72.1 138.7 29 15.1 63.2 19.7 93.8 7 15.3-6.4 30.2-20.1 40.4-32.8 6.6-8.2 12.6-16.7 18.5-25.4 7.4-10.8 17.9-18.1 29-24.3 4 28.9 24.1 49.3 47.1 67.6 32.6 26.1 67.1 47.2 110.3 45.4 73.7-3.1 136.3-49.8 154.5-118.2 13.4 29.1 38.7 48.9 74.4 48.4 45.1-.6 80-40.2 101.2-75.8 25.5-42.9 39.4-96.7 19.1-144.5-6-14.1-13.5-27.1-21.6-40-5.6-8.9-15.1-23.3-5.8-34.2 4.3-5 13.7-7.8 19.5-10.9 18.8-10 40.3-21.4 52.9-39.2 25.6-35.9 11.6-85-15.5-115.9zm-10.1 122.5c-17 14-38.8 20.3-56 33.6-14.9 11.5-7.6 30.6-.7 44 14.9 29.1 31.6 52.5 33.6 86.5 2.8 49.3-27.5 104.1-63.2 136.5-20.2 18.4-47.9 28.1-74.9 21.7-28.8-6.8-43.2-36-48.3-62.4-1.5-7.8-12.7-6-13.3 1.3-2.8 34.5-15.4 65.4-40.1 89.9s-65.5 36.2-99.6 42.5c-37.5 7-71.4-14.1-99.9-35.5-24.9-18.6-51.1-40-50.8-73.9a6.9 6.9 0 0 0-10-6.2c-26.5 13.7-39.6 29.6-56.9 53.3-24.3 33.3-58.2 45.3-97.7 36.3-45.8-10.5-141-93.9-80.8-137.2 5-3.6 1.1-11.6-4.3-11.7-39.7-.6-77.9-8.8-113.7-26-30.3-14.5-57.2-49.5-74.8-77.1-22.8-35.9-.3-62.5 32.5-77.8 30.3-14.3 64.8-6.2 95.9-18.1a5.5 5.5 0 0 0 2.7-1.9c4.6-1.1 8-6.7 3.5-10.9-45.4-42.4-68.6-125.4-31.2-180 21.3-31.2 57-41.8 92.9-40.8 25.8.8 46.7-3.8 64.8-23.3s29.4-46.9 50.6-66.6c26.3-24.5 61.6-42.4 95.2-54.6s76.2-14.7 104.5 10.4c21.6 19 25.5 53.4 43.4 76 1.9 2.4 5.6 2.6 8.1 1.3C634.9 86.1 688.2 67.3 743 70c32.2 1.6 58.6 16.9 60.5 51.3 1.1 21.5-2.6 42.3 5 63.1 12.4 34.3 52.4 40.4 83.7 45.7 48.7 8.3 92.8 29.5 105.7 81.3 7 28.2-1.2 51.1-23.1 69.3z"></path><path d="M454.9 349.9c-.2-1.2-.8-3.9-1-5.7 2.6-3.7-.5-9.6-5.2-10.3a6.5 6.5 0 0 0-4.9-2.4c-14.2-.3-25.5 1.1-33.8 14.2-5.7 9-7.1 22.2 1.3 30.1s26.4 7.2 34.9-.4a25.9 25.9 0 0 0 8.6-16.1 32.9 32.9 0 0 0 .1-9.4zm-28.6 17.8c-7.7.1-8.4-6-6.3-12 3.3-9.4 10.6-10.7 18.7-10.8a4.8 4.8 0 0 0 2 1.4c.3 2.4.9 4.9 1 6.9.7 10.4-6 14.3-15.4 14.5z"></path><path d="M523 295.3c-.3-3.9.5-10.3-2.5-13.5-5.1-5.5-13.9-8.9-20.9-10.8s-10.2 5.2-8.1 9.7c-4.3 1.3-8.6 4.9-11.4 8.6-8.3 10.6-6 24.6 4.9 32.1 13 9 30.6 4.4 36.2-10.5a33.1 33.1 0 0 0 1.8-15.6zm-17.2 15.1c-3.9 4.3-11.4 1.7-15.1-1.5s-2.5-6.8-.7-10.1a18.8 18.8 0 0 1 2.9-3.9l.9-.8c4.8 3 12-1.2 10.5-6.7 1.7.9 3.3 1.9 4.9 2.9.7 7 1.8 14.6-3.4 20.1z"></path><path d="M514.3 347.6c-7.7-17.6-30.2-7.7-37.1 5.9s-9.7 39.7 8.1 45.7c15.3 5.1 39.2 1.3 41.3-18.1 1.2-11.6-2.3-27.4-12.3-33.5zm-1 31c-.3 10.2-14.7 10-22 8.3s-5.6-15.8-4.1-21.8c.9-3.6 6.1-12.2 10.5-13.6a7.6 7.6 0 0 0 8.2 6.8h.2a4.1 4.1 0 0 0 1.6.3c4.8 2.4 5.7 16.4 5.6 20z"></path><path d="M444.7 402.2c-3.5-5.1-8.9-7.5-14.8-4.4s-8.6 9.3-11 14.6-4.4 10.2-4.6 15.6c-.3 7.1 4.3 13.7 9.4 18 9.7 8.1 25.6 4.1 30.9-7s1.2-29.2-9.9-36.8zm-1.8 30.2c-1.5 4.9-7.4 5.1-11.1 2.8-5.4-3.3-3.9-8.8-2.3-13.4a48.7 48.7 0 0 1 4.3-8.9l.6-.9.4.2c7.4 2.3 10.2 13.3 8.1 20.2z"></path><path d="M551.3 405.4a6.8 6.8 0 0 0-2.8-5.4c-6.8-4.9-17.3-3.6-25.2-2.4a24.6 24.6 0 0 0-18.5 12.5c-8.1 14.9 2.3 32.3 16.2 39.2s27.7.2 33.4-14.2c3.6-9.1 5.9-24.4-3.1-29.7zm-7.2 16c-.3 3.7-1.7 7.5-3.1 11-2.9 7.3-9.3 7.5-15.6 3.9s-12.6-12.7-8.3-20.6c2.2-4 10.3-6.3 16.9-6.1a6 6 0 0 0 6 5.1 6.6 6.6 0 0 0 4.1 2.2 13.6 13.6 0 0 1 0 4.5z"></path><path d="M504.8 472.6a37.1 37.1 0 0 0-2.9-10.2 13.8 13.8 0 0 0-2-3.8c-.5-.8-3.1-4.8-2.5-2.6a6.7 6.7 0 0 0-6.3-5.2h-2.3a6.3 6.3 0 0 0-6 3.8 17.4 17.4 0 0 0-6.9-1.5 19.7 19.7 0 0 0-9 3c-5.3 3.4-8.5 9.3-9.8 15.3-2.7 13 3.8 25 15.6 30.4s22.7-.6 28.4-10c3.5-5.8 4.4-12.5 3.7-19.2zm-23.9 17.3c-6 0-9.7-5.2-10.8-10.6-.7-3 .3-6.7 1.8-9.3 2.8-5 6-2.4 10.1-1.5a6.7 6.7 0 0 0 6.6-2.1c.2.1.2 0 .2-.2 1.2 3.8 2.9 7.2 3 11.4.1 6.1-4.6 12.3-10.9 12.3z"></path><path d="M400.8 389.4c-.3-8-6-8.3-10.9-13s-9.4-1.5-11.2 2.3c-7-1.8-15.1 2.7-19.7 8.3-8.7 10.4.6 23.5 10.7 27.9s25.1 2.8 30-9.4c1.9-4.9 1.2-10.9 1.1-16.1zm-13.7 10.8c-.9 4.8-6.8 4-10.4 2.9s-8.2-3.5-7.4-7c.4-1.8 2.2-3 3.7-3.8a6.6 6.6 0 0 1 2-.6h.1a2.3 2.3 0 0 0 .5.7c3.4 4.3 8.6 2.2 10.6-1.7l.3.2.9.6a32.5 32.5 0 0 1-.3 8.7z"></path><path d="M569.9 306.7a6.8 6.8 0 0 0-6.4 4.7 17.2 17.2 0 0 0-9.5 3.8c-6 4.9-7.3 14.7-6.9 21.9.9 15 13.2 27.3 28.6 21 11.1-4.6 17.8-17 18.8-28.5 1.3-14.8-11-23.5-24.6-22.9zm5.3 35.5c-3.6 3.8-7.7 5.3-12.3 2.3-2.3-1.5-2.4-7.6-2.4-10s1.4-7.8 2.4-9.5c4 3.5 11.6 1.1 11.3-4.6 3.6.5 6.2 2.2 6.9 6.6s-2.6 11.6-5.9 15.2z"></path><path d="M638.6 382.3c-2-4.9-5.1-6.9-8.9-7.6-2.1-3.7-5.3-6.6-9.7-7.4-6.6-1.1-12.6 1.8-17 6.6-10.6 11.8-8.6 30.9 5 39.4 11.5 7.1 26.6.2 31.4-11.5 2.7-6.5 1.8-13.2-.8-19.5zm-11.7 14.5a9 9 0 0 1-10.4 5.6c-6.5-1.8-8.3-10.7-5.8-16a13.1 13.1 0 0 1 2.1-3.3 5.7 5.7 0 0 0 6.1 4.6h1.9a6.6 6.6 0 0 0 6.2 2 11.1 11.1 0 0 1-.1 7.1z"></path><path d="M585.6 444a6.2 6.2 0 0 0-6.3 4.4 7.8 7.8 0 0 0-2.2.3c-6.1 1.4-8.3 11.3-9.1 16.5-1.8 12.8 5.2 29.1 20.5 27.5 12.7-1.3 19.6-16.3 19.4-27.6-.3-13.6-9.2-20.8-22.3-21.1zm5.7 31.8c-3 4.7-6.9 4.2-9.4-.6s-1.1-8.2.4-12.1c3.9 1.9 9.3.1 10-4a6.4 6.4 0 0 1 1.7 2.8c1.3 4.8-.1 9.8-2.7 13.9z"></path></g></g></svg>