<svg xmlns="http://www.w3.org/2000/svg" width="1080" height="546.2" viewBox="-0.0099639892578125 -0.023804664611816406 1079.9920654296875 546.224365234375" style=""><g><title>hdrawn35_386127302</title><g data-name="Layer 2"><path d="M3.2 535.4c14.2 14.2 902.5 14.6 912.2 0s-4.9-87.8-78-107.3-122 9.7-122 9.7S739.8 350 691 330.5s-78 34.2-78 34.2 24.4-63.5-24.4-87.8-82.9 19.5-82.9 19.5 0-83-102.5-68.3-126.8 141.4-126.8 141.4-39-58.5-146.4-29.2S-11.4 520.8 3.2 535.4z" fill="#76a8da"></path><path d="M548.6 273.4C562.8 134 673.3 26.3 812.9 15.2c-1.3-4.7-2.5-9.4-3.8-14.1-99.4 68.9-155.3 209.6-62.7 308.3 85.9 91.7 235.7 98.6 331.4 18.2l-12.7-7.4a229.6 229.6 0 0 1-162.6 164.3c-9.4 2.6-5.4 17.3 4 14.7a244.7 244.7 0 0 0 173.2-175c2-7.7-7.1-12.1-12.7-7.4-87 73.2-221.2 67.3-302.7-10.9-94.1-90.1-42.2-226 52.5-291.7 5.6-3.9 4.3-14.8-3.9-14.2-148.5 11.8-264.4 125.3-279.5 273.4-1 9.8 14.2 9.7 15.2 0z" fill="#f8ad00"></path><path d="M871.4 185.9a120.1 120.1 0 0 0 38.1-66.2l-14.7-4.1c-4.1 28.5 23.9 55.4 51.2 42.6l-7.6-13.1c-35.1 25.4-55.9 61.6-60.4 104.6h15.2c.5-27.3 6.2-61.6-24.6-73.6-9.1-3.6-13.1 11.1-4 14.6 19.8 7.8 13.8 42 13.4 59-.1 10 14.3 9.5 15.2 0a127.6 127.6 0 0 1 52.8-91.5c8-5.7 1.3-17.3-7.6-13.1-13.9 6.5-30.7-12.7-28.9-25.4 1.4-9.4-12.6-13.8-14.7-4.1-5.1 24.2-15.8 43-34.1 59.6-7.3 6.6 3.5 17.3 10.7 10.7z" fill="#fff"></path><path d="M93.4 459.3a57.9 57.9 0 0 1 45.1-47c9.6-2.1 5.5-16.7-4-14.7a72.6 72.6 0 0 0-55.8 57.7c-1.7 9.6 13 13.7 14.7 4z" fill="#fffaf3"></path><path d="M175.6 404.8h1.6c9.8 0 9.8-15.2 0-15.2h-1.6c-9.8 0-9.8 15.2 0 15.2z" fill="#fffaf3"></path><path d="M803.3 467.6a43.3 43.3 0 0 1 32.3 21.2c5.1 8.4 18.2.8 13.2-7.6-10-16.6-26.4-26.7-45.5-28.8-9.7-1.1-9.7 14.1 0 15.2z" fill="#fffaf3"></path></g></g></svg>