<svg xmlns="http://www.w3.org/2000/svg" width="398.1" height="917.8" viewBox="0.020916402339935303 0.0012044906616210938 398.0790710449219 917.6988525390625" style=""><g><title>floral53_304747366</title><g data-name="Layer 2"><path d="M319.7 122.1c.1-.1.2-.2.2-.3h-.1l-.7 1.3c.5-.9-.3 2-.2 1.1a1.6 1.6 0 0 0 0 .7l2.3-.7-1.2-2.3c-.2.2-.4.4-.3.2z" fill="none"></path><path d="M126.1 57.6a109.5 109.5 0 0 0-6.9-16.2c5.3-1.9 9.6-6 10-12.2a15.9 15.9 0 0 0-2-8.5 15.2 15.2 0 0 0-12.1-8.1 14.5 14.5 0 0 0-8.7 1.4c-3.7.6-6.7 3.4-8.9 6.4s-2.6 6.9-2.1 10.5c.8 5.8 6.1 9.2 11.1 10.8a19.1 19.1 0 0 0 8.9.6 173.4 173.4 0 0 1 7 16.7c1.8 5.4 3.2 11.6 5.8 16.9l4.7-1.5c-2.4-5.5-4.8-11-6.8-16.8z" fill="#155469"></path><path d="M176.9 30.5a13.4 13.4 0 0 0 3.5-.4c4-.9 7-4.8 8.5-8.3a15.2 15.2 0 0 0 1.2-8.4 14.4 14.4 0 0 0-3.1-7 5.5 5.5 0 0 0-1.8-2.2c-3.3-2.6-7.4-4.9-11.8-4a11.5 11.5 0 0 0-7.6 5 13.2 13.2 0 0 0-4.3 9.4c0 4.1 1.9 7.9 5.4 9.7l1.7 2.5a8.2 8.2 0 0 0 3.2 2.4c-.8 13 0 26.3 0 39.1h3.9c1.6-12.3 1.3-25.2 1.2-37.8z" fill="#155469"></path><path d="M215.6 54.1c1.2-6.8 3.5-12.3 6-18.2a17.2 17.2 0 0 0 4.6-.3c7.2-1.5 11.6-6.7 12.8-13.8.1-.6-.1-2.9-.1-3.9a14.6 14.6 0 0 0-2-6.8 12.1 12.1 0 0 0-11.3-5.7c-4.4.4-7.6 2.3-10.9 5.2l-.2.2a13 13 0 0 0-4.4 4 13.2 13.2 0 0 0 2 17.3 12.1 12.1 0 0 0 3.2 2.2c-1.6 3.1-2.4 7-3 9.5a90.9 90.9 0 0 0-2.2 13.7 45.2 45.2 0 0 1-2.5 8.9c-.7 2.1-1.3 4.2-1.8 6.4-.2.2-.2.5-.3.8l3.4 1.1c2.7-6.7 5.4-13.3 6.7-20.6z" fill="#155469"></path><path d="M238.9 17.9v.3c-.1-1-.1-.9 0-.3z" fill="#155469"></path><path d="M250.2 74.3a182.8 182.8 0 0 1 9.4-16.7 15.9 15.9 0 0 0 6.9 2.5 14.4 14.4 0 0 0 12.9-5.5c3.2-3.9 3.6-10.1 2.3-14.8-1.9-6.8-7.2-11.9-14.4-12.3a14.3 14.3 0 0 0-8.1 1.9c-4.1 2.4-6 5.7-6.9 10.3a7.5 7.5 0 0 0 .6 3.9 14.7 14.7 0 0 0 2.6 10c-2.4 4-4.3 8.4-6.1 12.2-4 8.3-7.7 16.7-11.8 24.9l2.5 2.1c4.2-5.6 7.1-12.1 10.1-18.5z" fill="#155469"></path><path d="M280.7 101.2a64.1 64.1 0 0 1 8.5-11h.1c4.8 3.6 11.7 2.2 16.3-1a12.5 12.5 0 0 0 5.2-6.7 16.8 16.8 0 0 0-.5-12.9c-2.1-5-7.9-7.8-13-8a15.2 15.2 0 0 0-13 7.6 9 9 0 0 0 0 9.1 14.6 14.6 0 0 0 1.3 7.4 86 86 0 0 0-6.2 9c-3.4 5.3-5.9 10.2-10.5 14.7-1.5 1.5-5.6 4.8-8.3 7.8l2.4 4.1c6.4-6.4 13.1-12.1 17.7-20.1z" fill="#155469"></path><path d="M332.1 118.2a8 8 0 0 0-1.5-1.7 17.3 17.3 0 0 0-8.3-5.2 13.2 13.2 0 0 0-11.1 1.9c-4.6 3.6-6 8.6-6.1 14.2a7.8 7.8 0 0 0 2.9 5.9c-6.1 3.2-12 8.6-17.2 12.2-3.3 2.3-6.7 4.3-9.6 7.1s-3.3 3.4-5.1 4.9a37.3 37.3 0 0 1 .9 4.6c4.5-2.6 7.8-7.2 12.3-10s8.8-5.8 13.2-8.8 7.4-4.4 10.6-7.2a14.1 14.1 0 0 0 18.9-4.4c3.5-3.8 2.9-9.4.1-13.5zm-13.2 6.7a1.6 1.6 0 0 1 0-.7c-.1.9.7-2 .2-1.1l.7-1.3h.1c0 .1-.1.2-.2.3s.1 0 .3-.2l1.2 2.3z" fill="#155469"></path><path d="M85.8 91.9c-2.6-2.8-4.8-6-7.3-8.9s-6.5-8-9.8-12.1a13.7 13.7 0 0 0 4.5-7.9 1.3 1.3 0 0 1 .1-.6 16.3 16.3 0 0 0 .1-7.3c-1.2-5.8-7.1-11.5-13.1-11.3-4.5.1-8.6 2.8-11.4 6.3a7.7 7.7 0 0 0-2.8 5 16.4 16.4 0 0 0 .4 8.8c1.4 3.9 4.2 6.6 7.6 8.7s7.3 1.8 10.8.5c3.9 5.2 8.1 10.2 12.2 15.4 2.1 2.7 5.6 8.5 9.7 11.6l4.3-3.5a33 33 0 0 1-5.3-4.7z" fill="#155469"></path><path d="M52.3 115.7a63.7 63.7 0 0 0-14.4-8.1v-1.2a20.8 20.8 0 0 0-.3-2.3v-.3a10.9 10.9 0 0 0-.8-3.9c-2.3-5.5-7.6-8.2-13.5-7.6l-1.1.2a16.9 16.9 0 0 0-3.8.4 10.7 10.7 0 0 0-6.7 5.1c-2.8 2.6-4.8 6-4.8 9.8-.3 11.8 14.9 17.2 24.4 12.8a10.7 10.7 0 0 0 6-8.3 89.2 89.2 0 0 1 18 11.9c1.9 1.6 4.2 3.8 6.8 5.8.8-1.4 1.6-2.8 2.5-4.2-4.3-3.1-8.2-6.8-12.3-10.1z" fill="#155469"></path><path d="M32.6 164.9a34.8 34.8 0 0 1-4.1-1 2.2 2.2 0 0 0 .1-.8 14.2 14.2 0 0 0-2.6-11.6c-2.5-3.2-5.7-6.3-10-6.8a13.6 13.6 0 0 0-8.6 1.5 10 10 0 0 0-2.5 2.1l-.6.8a12.7 12.7 0 0 0-3.4 4.7c-2.8 6.7 1.5 14.1 7.1 17.6l1 .4a14.6 14.6 0 0 0 8.1 3.3c4.3.4 7.9-2.3 9.9-5.9l8.1 1.6a77.1 77.1 0 0 0 15.3 1.8c0-2 .2-3.9.3-5.8a99.2 99.2 0 0 1-18.1-1.9z" fill="#155469"></path><path d="M27 209.3a11.7 11.7 0 0 0-6.2-10.1c-9.2-4.9-22.3 4.8-20.2 15s10.6 14.1 18.8 9.6a13.3 13.3 0 0 0 6.4-8.8 6.4 6.4 0 0 1 .2-.7 95 95 0 0 0 20.8-5.5 68.6 68.6 0 0 1 8.4-2.1l-1.5-5.3a247.7 247.7 0 0 1-26.7 7.9z" fill="#155469"></path><path d="M72.4 243.3c-8.6 5-17.4 8.6-26.3 12.4a15.6 15.6 0 0 0-1.9-6c-2.9-5.2-10.3-7.2-15.7-5.4s-7 5.3-8.3 9.4c-2.7 8.1-.6 19.3 8.6 22 5.3 1.5 10.1-2 13.5-5.5a14.2 14.2 0 0 0 4.1-9.7c6.7-1.1 12.8-3.6 19.2-7l10-5.4-3.2-4.8z" fill="#155469"></path><path d="M265.2 125.6l-2.2-4.2-2.4-4.1a98.6 98.6 0 0 0-20.5-24.5l-2.5-2.1a99 99 0 0 0-28.7-16l-3.4-1.1a110.9 110.9 0 0 0-29.8-5.2h-3.9a124 124 0 0 0-38.9 6.1l-4.7 1.5a136.8 136.8 0 0 0-15.2 6.5 129.1 129.1 0 0 0-21.9 14l-4.3 3.5a109.2 109.2 0 0 0-22.2 25.8c-.9 1.4-1.7 2.8-2.5 4.2a88.7 88.7 0 0 0-7.5 17.3 96.3 96.3 0 0 0-3.9 19.5c-.1 1.9-.3 3.8-.3 5.8a104.1 104.1 0 0 0 3.3 28.8l1.5 5.3a151 151 0 0 0 13.3 30.1l3.9 6.5 3.2 4.8c21.8 32.5 52.9 56.5 86.1 76.2 14.8 8.8 31.7 21.3 49.2 23.4 26.2 3 32.8-21.8 41.3-42.5 18.6-45.1 33.7-95.1 24.8-143.1a37.3 37.3 0 0 0-.9-4.6 145.1 145.1 0 0 0-10.9-31.9z" fill="#f15936"></path><path d="M249.2 194.3c-19.4-6.8-23.7 22.1-24.6 33.7-1.8 23.1-3.4 45.9-6.6 68.6-3.3-34.7-6.7-69.9-15.2-103.4-6.3-25.1-25-61-55.8-49.5-29 10.9-8.8 64-.6 81.3 9.8 20.9 22.5 40.9 34.3 60.7l7.5 12.6q-17.5-15.7-35.2-31.4c-3.3-5.7-7.3-10.9-13-14s-16-9.9-23.8-4.6c-38.9 26.3 88.9 82 105.5 89.6 5.2-19.6 17.7-36.2 23.7-55.4 4.9-15.5 7.4-29.5 13.7-44.9 5.6-13.5 6.8-37.4-9.9-43.3z" fill="#fff"></path><g><path d="M309.3 561.3z" fill="#fff"></path><path d="M383 545.2c-6.4 1.3-12.8 3-19.1 4.6-12.3 3.2-24.5 6.4-36.9 8.7-25.5 4.7-50.9 10.3-71 27.8a86.4 86.4 0 0 0-18 22c-9.3 16.4-12.7 36.2-6.6 54.3l-9.8 8.5a234.3 234.3 0 0 1-32.1 23.3c-3.8 2.3-7.5 3.9-10.9 6 1.2-3.1 2.2-6.2 3.3-9.3 20.5-57.6 41.6-115.4 48-176.6 2.8-26.7 4.7-54.6 3.8-81.4-.4-14.6-.4-29.1-1.7-43.6s-8.3-29.6-10.9-44.8c-.6-3.5-5.7-2.4-5.3 1 1 9.7 4 18.7 6.6 28 4.2 15.2 3.7 32 4 47.6a862.3 862.3 0 0 1-3.2 86.5c-5.1 60.8-26.2 118.1-46.4 175.3S135 795.6 102.5 846.9c-4.6 7.4-9.6 14.5-14.8 21.3-.2-12.4-.6-24.9-.7-37.3 10.7-3.3 16.4-14.6 20.8-24.2 9.3-20 13.1-38.8 12.4-61a147.5 147.5 0 0 0-3.9-28q-1.8-7.5-4.2-15a295.6 295.6 0 0 0-11.6-29.2c-7.9-17.2-17.5-32.7-27.3-48.6-4.2 6.9-2.5 16-4.5 23.6-2.4 9.1-6.3 17.7-9.1 26.6-.5 1.8-1 3.7-1.6 5.5a1.1 1.1 0 0 0-.2.8c-2.7 9.4-5.3 18.8-7.5 28.4a.8.8 0 0 0-.2.5c-3 12.7-5.5 25.5-7.6 38.2a120.3 120.3 0 0 0 2.4 48.9c5.1 19.4 21.6 25.1 35.8 36h.3c0 14.1.9 28.2 1 42.2-9.9 12.6-20.6 24.5-31.5 36.2 1.9 1.9 3.7 3.9 5.6 5.9C75.5 897 94 875.4 109.9 851c29.1-45 48.6-94.7 66.7-144.8 5.3-1.2 17.4-8.7 20.1-10.4a183.9 183.9 0 0 0 23.9-17.3l12.9-11a1.3 1.3 0 0 0 2-.6 12.4 12.4 0 0 0 .4 1.6c.9 2.5 2.9 4.2 4.7 6 5.1 5.1 14.4 6.1 21 6.7a99.2 99.2 0 0 0 29.3-1.4c9.3-1.8 14-5.8 22.1-9.6s12.5-5.8 18.4-11.6c12.2-11.9 20.5-26.9 28.6-41.7 6.9-12.7 13.8-25.2 19.5-38.6s11.1-25.5 18.2-36.5a2.1 2.1 0 0 1 .4-.6c-4.7.2-10.4 2.9-15.1 4zM113 727.9c.3 1.6.6 3.3.8 4.9-5.2 3.8-8.4 11.1-11.2 16.5s-8.4 19.8-16.9 22.1c-.3-5.9-.5-11.8-.4-17.7s.3-13.9.4-20.9c3.4-5.6 6.7-11.3 10.5-16.7s6.8-8.6 9.8-13.2a204.9 204.9 0 0 1 7 25zm-16.1-48c2.7 6.2 5.2 12.4 7.5 18.7-4.2 4.8-7.7 10.4-11.3 15.5a86.1 86.1 0 0 0-7.4 11.8c0-9.9-.2-20-.6-30a58.6 58.6 0 0 0 5.9-8.2c1.5-2.2 3-4.4 4.7-6.5zm-1.4-3.1c-3.5 3.2-7.6 9.5-10.6 14.4-.7-15-2-29.9-4-44.5 5.1 10 10.1 20 14.6 30.1zm-31.7-.5c2.2-7.6 4.8-15 7.1-22.6 1.4-4.5 2.5-12.5 4-18.8l.2.4c-.3 19.7 1 39.5 2.3 59.3l-1.4-1a22.3 22.3 0 0 1-5-5.6c-1.4-1.8-2.4-3.4-4.5-4.5a29.9 29.9 0 0 0-4.2-1.5zm-2.3 8.5l1.9 1.1c2.6 1.5 3.9 4.1 5.7 6.5s5.2 6.3 8.7 6.9c.6 9.8 1.2 19.7 1.6 29.6a55.2 55.2 0 0 0-9-5.7c-5.5-3-11.8-5.6-15.9-10.4 2.1-9.4 4.5-18.7 7-28zm-9.6 40c.5-2.7 1.1-5.4 1.7-8.1 3.3 3.5 7.9 6 12.1 8.3a79.2 79.2 0 0 1 9.2 5.8c1.8 1.3 3 3.2 4.6 4.6.2 8.2.2 16.4-.1 24.6-.2 3.7-.2 7.4-.2 11.1-5.4-7.4-13-12.7-20.1-18.4-2.9-2.3-6.9-7.3-11-9.1 1.2-6.5 2.5-12.9 3.8-18.8zm-4.5 22.5c3.5 3.5 6.9 6.9 10.8 10.1 6.1 5.1 13.1 9.4 17.8 16 2.7 3.7 3.3 6.2 3.7 10.7.2 2.4-.8 14.2.9 15.5-12.2-9.6-23.6-19.8-35.3-29.8a141.6 141.6 0 0 1 2.1-22.5zm2.3 48.7a62.5 62.5 0 0 1-4.2-19.8c10.1 11.4 23.3 21 35.4 29.7.2 5.7.3 11.5.1 17.2v4.3c-12.3-9.9-24.4-14.3-31.3-31.4zm36.2-21.2c6.6-.1 11-7 14.3-12.1 4.1-6.7 7.9-18.7 14.4-24.9 2.4 19.7 2 38.3-11.8 53.3-3.9 4.3-9.6 9.5-15.4 12-.1-9.5-.9-18.9-1.5-28.3zm1.4 36.4v-5.9c6.7-1.3 12.1-6 17-10.7a92.9 92.9 0 0 0 6.5-6.8c-3.9 13.7-12.1 31.7-23.8 40.1 0-5.6 0-11.1.3-16.7zm256.6-250.4c13.4-3.2 26.6-6.9 39.9-9.9-13.8 9-26.2 18.6-39.6 29.3-1.6 1.3-3.2 2.4-4.8 3.6 1.8-7.6 3.4-15.3 4.5-23zm-33.3 6.4c9.5-1.9 19.2-3.1 28.6-5.2-1.4 8.4-3.7 16.8-4.5 25.3-9.5 6.8-19.5 12.9-29.4 19 1.6-9.2 2.3-18.6 3.4-27.8.1-.9 1.5-6.7 1.9-11.3zm-20.5 5.6a104.9 104.9 0 0 1 15.7-4.6c-.4 2.6-.4 5.4-.7 7.5-1.3 10.7-2.3 21.5-2.6 32.4-7.8 4.8-15.4 9.6-22.8 14.9l-1.5 1.1a168.5 168.5 0 0 0 .9-18.9c.2-9 1.1-18.5.7-27.6a106.4 106.4 0 0 1 10.3-4.8zm-14.6 7.1c-.6 5.6-.3 11.3-.3 16.8l-.3 30c-7 5.2-13.9 10.7-20.6 16.3-1-6.5.6-14.1 1.3-20 1.3-10.1 1.5-20.3 2.4-30.4a95.4 95.4 0 0 1 17.5-12.7zm-40.4 79.5c-.4-3.3-1-6.5-1.6-10-2.1-11.5 2.5-23.6 7.2-33.8a72 72 0 0 1 13.4-19.2c-.8 10-1.1 20.1-2.2 30.1-.6 6 .6 14.1-2 19.5s-10.1 9.3-14.8 13.4zm4 3.3l14.2-12.1c7.7 3.7 15.4 7.1 22.9 11.2s17.7 4.2 25.9 8.2c-23.7 9.7-53.4 13-63-7.3zm68.5 4.9a2.5 2.5 0 0 0-1.3-1.8c-7.7-4.3-16.4-5.8-24.8-8s-15.9-7.4-24.1-10.6c5.7-4.7 11.4-9.3 17.2-13.8 6.7 7.3 19 9.7 28.1 13s17 7 26 7.7c-4.9 4.6-12.4 9.4-21.1 13.5zm24.5-17.3h-.4c-10.6-.4-20.5-5.1-30.3-8.5-5.7-2-11.3-3.9-16.9-6l-6.9-2.8a3.7 3.7 0 0 0-1.6-.2.2.2 0 0 0-.2-.2l.7-.6.3-.2c1.9-1.5 3.7-3 5.7-4.4 6.4-4.8 13.1-9.3 19.8-13.6l.5.4c15.1 4.4 30.5 9.7 46 12.1a149.9 149.9 0 0 1-16.7 24zm18.6-27.6l-.7-.3c-3.6-.5-37.2-8.4-44.9-10.5 10.2-6.5 20.5-12.9 30.5-19.7h.9a57.5 57.5 0 0 1 16 7.2 49.7 49.7 0 0 0 8.2 4.4c-3.2 6.3-6.5 12.7-10 18.9zm28.5-58c-5.2 11-9.8 22.2-15.4 33.1l-1.2 2.3c-7.6-3.6-15.1-9.4-23.2-10.6l2.7-1.9c8.8-6.4 16-14.6 24.3-21.6a126.3 126.3 0 0 1 19.6-13.1 113.3 113.3 0 0 0-6.8 11.8z" fill="#155469"></path></g></g></g></svg>