<svg xmlns="http://www.w3.org/2000/svg" width="1080" height="993.5" viewBox="0.0031660795211791992 -0.00516980467364192 1080.005615234375 993.4862060546875" style=""><g><title>hdrawn83_330238218</title><g data-name="Layer 2"><path d="M803.6 984.3c65.5-77.3 117.7-181.6 168.1-269.6 28-49 51.9-100.1 74.4-151.8 11.1-25.6 20.9-51.7 31-77.8 8.4-21.8-3-85-13.8-107.1s-18.5 4.4-38.8-8.6a765.4 765.4 0 0 0-66.7-37.6c-47.3-23.9-96.2-44.6-144.6-66-96.1-42.5-192.2-84.6-289.5-124.1-54.5-22.2-109.2-45-164.9-64-26.2-8.9-52.7-17.3-79.5-23.9-13.6-3.3-27.1-6.5-40.9-8.9-15.7-2.8-31.1-2.8-47.1-2.9a10.8 10.8 0 0 0-8.8 3.7 12.5 12.5 0 0 0-5.9 5.3c-54.4 93.1-79.9 202.2-106.2 306-22.8 89.8-41 154.4-57.6 248.5-3.9 22.6 2.8 46.3 9 68.4 7.4 26.6 21.2 47.5 42.8 64.8 37 29.6 83 51.4 125.8 71.2 83.6 38.8 184.8 94.4 274.1 116.4 54.3 13.3 112.3 35.9 169.1 42.7 30.3 3.6 67.3 13.8 97.6 17.2 19.8 2.2 56.8 16.3 72.4-1.9z" fill="#5169b3"></path><path d="M791.9 942.3C857.5 865 909.7 760.7 960 672.7c28.1-48.9 52-100.1 74.4-151.8 11.2-25.6 21-51.7 31-77.7 8.5-21.9 13.4-44.1 2.6-66.2s-34.9-36.6-55.1-49.5a755.9 755.9 0 0 0-66.8-37.6c-47.3-23.9-96.1-44.7-144.6-66.1-96-42.4-192.2-84.5-289.4-124.1-54.5-22.1-109.2-45-165-63.9-26.2-8.9-52.6-17.4-79.5-24-13.5-3.3-27.1-6.5-40.8-8.9C211 .2 195.6.1 179.7 0a11.5 11.5 0 0 0-8.8 3.7 13.3 13.3 0 0 0-6 5.3c-54.4 93.2-79.8 202.3-106.1 306C36 404.9 17.7 469.4 1.2 563.6c-4 22.5 2.8 46.3 9 68.4 7.4 26.5 21.2 47.5 42.8 64.7 37 29.6 82.9 51.5 125.7 71.3 83.6 38.7 184.8 94.3 274.2 116.3 54.2 13.4 112.3 36 169.1 42.8 30.3 3.6 67.2 13.8 97.6 17.1 19.8 2.2 56.8 16.4 72.3-1.9z" fill="#9daad7"></path><path d="M288.1 643.9c16-43.8-15.4-89.6-58.9-100-30.4-7.3-67 1.3-83.3 30.4a64.9 64.9 0 0 0-8.2 24.8c-8.8 26.7-3.5 59.2 17.4 80.1 39 39.2 114.9 14 133-35.3z" fill="#eb5d41"></path><path d="M510.7 747c14.4-21 15.1-45.1 5.4-68.2-12.2-28.9-37.1-53.5-70.5-52.6-19.6.5-39.2 9.5-52.7 23.7-21.3 22.2-26.1 58.3-14.1 86.1a60.1 60.1 0 0 0 6 14.2c12.3 19.8 36.3 32.4 59.6 32.2a82.1 82.1 0 0 0 66.3-35.4z" fill="#eb5d41"></path><path d="M733.2 817.2c18.5-20.1 21.3-46.6 10.2-71.2-18.1-40.4-62.8-65.3-105.4-46.2-15.1 6.7-26.8 18.7-34.4 32.8-6.4 6.6-10.5 14.8-12.6 26.4s-.7 23 2.9 34c10.7 32.5 39.4 51.6 72.8 52.8 24.7 1 50-10.6 66.5-28.6z" fill="#eb5d41"></path><path d="M820.5 543.2a21 21 0 0 0 6.8-6.8c15.1-23.6 29.5-47.8 41.9-73 10.2-20.7 29.4-49.7 19.4-74-9.3-22.7-38.4-32.4-58.8-42.8q-33.4-17.1-67.7-33c-94.3-43.6-192.2-79-292.1-107.2-27.3-7.7-54.8-15.1-82.5-21.1-15.6-3.4-31.3-6.5-47-9.6-13.5-2.7-27.1-5.6-40.8-5.1-4.9-2.9-12-2.6-15 3.5a352.1 352.1 0 0 0-25.8 65.9c-5.8 20.8-13.4 45.6-11.9 67.4 1.8 25.2 23.6 34.4 43.3 44.7 22.8 11.9 45.9 22.9 69.3 33.6 91.9 42.1 185.2 81.2 280.1 116 51 18.7 102.3 37.5 154.6 52.3 12 3.4 21.5-2.4 26.2-10.8z" fill="#fff"></path><path d="M288.8 630.2c16-43.8-15.4-89.7-58.9-100.1-30.4-7.2-67 1.4-83.3 30.4a65.5 65.5 0 0 0-8.2 24.8c-8.8 26.8-3.5 59.3 17.4 80.2 39 39.1 114.9 14 133-35.3z" fill="#f8a4e0"></path><path d="M255.3 619.1c2.3-2.7 1.5-6.1-.7-8.5-6.9-7.4-13.8-14.8-21-21.9L221.5 577l-6.6-5.8c-2.5-2.1-5.4-4.9-8.8-5.1-10.5-.7-15.2 26.3-16.9 33.1s-13.2 41.5-3.7 39.9a307.9 307.9 0 0 0 63.2-17.2 5.7 5.7 0 0 0 1.3-.8 6.3 6.3 0 0 0 5.3-2z" fill="#050700"></path><path d="M511.4 733.3c14.4-21.1 15.1-45.1 5.4-68.2-12.2-28.9-37.1-53.5-70.5-52.6a76.9 76.9 0 0 0-52.7 23.6c-21.3 22.3-26.1 58.3-14.1 86.1a60.9 60.9 0 0 0 6 14.3c12.3 19.8 36.3 32.4 59.6 32.2 26-.3 51.6-13.8 66.3-35.4z" fill="#f8a4e0"></path><g fill="#050700"><path d="M435.2 713.8q1.9-12.9 4.5-25.8c.8-3.9 1.5-7.9 2.2-11.8 1.2-6.7 3.6-13.7 3.4-20.6-.1-3.1-3.6-6.1-6.6-6.4s-6.8 1.5-7.9 4.7c-6.7 19.2-11.1 39-14.4 59.1-.4 2.2 1 5.3 2.5 6.8a9.3 9.3 0 0 0 6.5 3c5.5 0 9-3.8 9.8-9z"></path><path d="M464 724.3c.7-8.2 2-16.3 3.3-24.5.9-5.5 2-11 3.4-16.4s4.3-14 2-21c-1.2-3.6-6.7-4.6-9.3-2.1-6.9 6.5-9.2 15.1-11.9 23.8-1.3 4.3-2.5 8.6-3.5 13a192.9 192.9 0 0 0-4 25.1c-.5 5.2 3.5 10.7 9 11s10.5-3.3 11-8.9z"></path></g><path d="M733.9 803.5c18.5-20.1 21.3-46.6 10.2-71.3-18.1-40.4-62.8-65.3-105.4-46.2-15.1 6.8-26.8 18.7-34.4 32.8-6.4 6.6-10.5 14.9-12.6 26.5s-.7 23 2.9 33.9c10.7 32.5 39.4 51.7 72.8 52.9 24.7.9 50-10.7 66.5-28.6z" fill="#f8a4e0"></path><path d="M690.5 791.9c4.7-9.2 8.4-19 12.6-28.4 2.1-4.8 3.9-9.6 5.7-14.6s4.1-10.5.5-15.4-7.4-5.1-11.5-6.8-9.4-3.5-14.2-5.1a145.7 145.7 0 0 0-27.6-6.5 6.6 6.6 0 0 0-2 .1 7.3 7.3 0 0 0-8.4 3c-3.2 4.6-5.1 10.3-7 15.5a107.7 107.7 0 0 0-3.8 12.6c-1 4.1-1.8 8.2-2.6 12.4s-1.8 9.2-1.3 13.7c1.3 11 10.9 14.8 20.1 18a154.5 154.5 0 0 0 26 6.5 14.5 14.5 0 0 0 3.6-.1 8.8 8.8 0 0 0 9.9-4.9z" fill="#050700"></path><path d="M836.1 545.7c6.7-11.7 11.3-24.9 16.6-37.3l16.1-37.2c5-11.5 9.9-23 14.7-34.6s11.7-25.4 15.7-38.5c1.2-4.1-1.7-7.2-5.1-8-34.2-25.5-73-46.4-110.4-66.8s-74.9-38.9-113.4-56a1522.8 1522.8 0 0 0-240.9-83.7q-35.4-9-71.1-16.4c-22.3-4.5-45.2-9.9-67.9-11.6a7 7 0 0 0-7.8 6.7 6.8 6.8 0 0 0-2.5 2.3C247.6 216 242.8 278.7 249 337.8c.6 5.8 5.7 8.3 10.2 7.6 33.2 20.8 69.1 37.1 104.8 53.1s71.2 30.7 107.2 44.9q106.1 42 215 75.4 31.2 9.6 62.5 18.6c19.7 5.6 40.4 13.5 60.7 15.7 9.5 1 14.2-12.3 4.9-16.4-15.7-6.8-33.4-9.9-49.8-14.5q-28.2-8-56.2-16.4-53.8-16.4-107-34.6c-73.2-25.1-145.4-53-216.8-83-39.5-16.6-78.6-35.1-119-49.4 0-.5.2-.9.2-1.4-1.1-28.3-4.3-56.2-1.1-84.6a189 189 0 0 1 9-40.6c4.9-14.4 12-27.9 17.2-42.2 39 9.5 78.8 15.6 117.8 25.4 41.2 10.4 82 22.4 122.2 36.3a1584.3 1584.3 0 0 1 232.1 100.5c40.8 21.8 79.2 47.1 119 70.4-4.4 8.9-8.2 18.4-12.3 27.3-5.5 12-11 24-16.3 36.1s-10.4 23.1-15.5 34.6-12.4 25.4-16.7 38.6c-2.8 8.8 10.3 14.6 15 6.5z" fill="#5169b3"></path><path d="M92.4 309.2c3-11.8 5.6-23.7 8.6-35.5q10.9-44.1 24.1-87.4c7.5-24.9 15.5-49.7 24.1-74.2 7.6-21.9 16.9-43.5 22.8-65.8 1.3-4.9-5.7-9.3-8.5-4.3-13.7 24.8-22.5 53-31.8 79.6-8.6 24.6-16.7 49.3-24.1 74.2S94 243.6 87.9 267.7c-2.9 11.7-5.9 23.4-8.4 35.2-2.2 10.2-6.8 22.8-3.1 32.9a3.5 3.5 0 0 0 6 1.2c6.9-7.1 7.7-18.5 10-27.8z" fill="#bdc6e4"></path><path d="M72.8 382.8l.7-1.8c.2-.7.3-1.4.5-2.1s.7-3 1.1-4.5c.8-3.7 1.7-7.4 2.6-11.1.4-1.9-1.3-3.8-3-4.2s-4 .5-4.5 2.3c-1 3.6-1.9 7.2-2.8 10.8l-1.5 5.3c-.2 1-.4 2-.5 3s-.1 1.4-.1 2.1a5.4 5.4 0 0 0 1 3 2.1 2.1 0 0 0 1.4 1.2 2.3 2.3 0 0 0 2-.2c2.1-2 2.2-1.8 3.1-3.8z" fill="#bdc6e4"></path><path d="M910.6 702.6c8.5-14.3 16.5-28.8 24.5-43.3q22.2-40.5 42.1-82c3.4-7.1-7.3-12.1-11-5.2-14.5 26.2-29.3 52.2-44 78.3-7.1 12.5-14.4 24.9-21.4 37.5-4.4 7.8-9.2 15.4-13.4 23.4-2.6 5.1-5.9 9.9-3.6 15.6a4.7 4.7 0 0 0 4.5 3c10.7-1.2 17.3-18.9 22.3-27.3z" fill="#bdc6e4"></path><path d="M874.5 769.3l1.3-1.7a10.5 10.5 0 0 0 1.7-2.1c.5-.9.8-1.9 1.3-2.8l.3-.8a6.1 6.1 0 0 0 .2-4.6 9.1 9.1 0 0 0-.7-1.4 3.7 3.7 0 0 0-1.7-1.6 2.6 2.6 0 0 0-1.5-.7 4.5 4.5 0 0 0-2.3-.3 6.4 6.4 0 0 0-4.1 2l-.8.9a13.1 13.1 0 0 0-2.6 3.2l-.4.7c0 .2-.1.3-.1.4l-1.6 3a6 6 0 0 0 0 4.8l.3.5a5.9 5.9 0 0 0 3.2 3l1.4.2a6.4 6.4 0 0 0 5.8-2.3z" fill="#bdc6e4"></path><path d="M177.8 522a3.9 3.9 0 0 0-4.4-2.7c-8 1.5-15.4 5.2-22.5 9.2a72.9 72.9 0 0 0-10.1 6.6c-3 2.4-7.3 5.4-7.2 9.6a2.7 2.7 0 0 0 1.9 2.5c3.2.9 5.9-1 8.5-2.5s3.5-1.9 5.3-3.1a96.1 96.1 0 0 1 8.7-5.3c5.9-3.3 12.1-6 17.8-9.5 1.6-1.1 2.7-2.8 2-4.8z" fill="#bdc6e4"></path><path d="M380.7 636.5c2.3-2.2 4.3-4.6 6.5-6.8 5.2-5.2 10.3-10.5 15.8-15.4 3.1-2.8-1.3-7.5-4.6-5.4a123.3 123.3 0 0 0-18.2 13.9 72.1 72.1 0 0 0-8 8.6c-2.1 2.7-4.4 5.4-5.3 8.8s2 5.2 4.5 4.1 6.4-5.1 9.3-7.8z" fill="#bdc6e4"></path><path d="M366 662.2l.2-.5a.3.3 0 0 1 .1-.2l.3-.7.3-1.3a5.6 5.6 0 0 0 .4-1.2 13.2 13.2 0 0 0 .2-2.8v1c0-1 .1-1.9.1-2.9a3.2 3.2 0 0 0-.5-1.9 2.7 2.7 0 0 0-1.5-1.3 2.9 2.9 0 0 0-1.6-.1 2.8 2.8 0 0 0-2 1.2l-1.4 2.3a11.9 11.9 0 0 0-1.3 2.5c-.3 1-.7 2-.9 3a3.7 3.7 0 0 0 .3 3.1 4 4 0 0 0 2.4 2 3.7 3.7 0 0 0 3.1-.3l.9-.6a2.8 2.8 0 0 0 .9-1.3z" fill="#bdc6e4"></path><path d="M612.1 700.5l3-3a51.1 51.1 0 0 0 4.5-5.9c.9-1.2.4-3.3-.7-4.3a3.5 3.5 0 0 0-4.2-.3 40.3 40.3 0 0 0-6.2 3.9l-3.8 3.1-1.9 1.6a24.6 24.6 0 0 0-3.1 3.3l-1.4 1.9c-.8 1.6-.7 4.1.7 5.3s1.9.9 3.4.7a3.7 3.7 0 0 0 2.9-.6l.6-.5a22.7 22.7 0 0 0 3.2-2.2z" fill="#bdc6e4"></path><path d="M866.6 643.8L853 632.6c13.6-7.4 27.3-14.5 41.4-20.9 5.3-2.4 6.4-10.2 3.7-14.8-6.1-10.3-13.2-20.9-24.4-26.3s-22-3.9-32.3.4-20.1 11.6-29.6 18.3c-12.4 8.7-24.9 17.4-37.2 26.3a9.7 9.7 0 0 0-4.2 7.5c-5.2 4.6-5.8 15 3 16a133.8 133.8 0 0 1 28.3 6.5l-46 42.4c-7 6.5-2.8 20.9 8.1 18.4a310.2 310.2 0 0 0 103.8-46c6.1-4.2 3.7-12.8-1-16.6z" fill="#fcb116"></path><path d="M173.4 419.6c-.5-2.4-.9-5-1.3-7.5l1.3 2a24.2 24.2 0 0 0 5 5.1c5.3 4.5 14-2 12.3-8.4s-7.2-13.4-11.5-19.1l-.3-.4 11.3.5 10 .6 4.6.4c3.7.2 5.9-.8 8.7-3.2a5.5 5.5 0 0 0 1.1-7.6c-2.8-3.6-4.9-4.9-9.3-5.4l-5.2-.6q-5.4-.6-10.8-.9c-3.6-.2-7.2-.2-10.8-.2 2.8-2.9 5.7-5.8 8.4-8.7s-2.1-11.4-6.9-7.8c-3.3 2.4-6.4 5-9.7 7.5a187.1 187.1 0 0 1 3.8-27.9c.8-4-5.4-6.2-6.9-2.2a169.4 169.4 0 0 0-8.6 32.7 99.5 99.5 0 0 0-15.9-13.2 6.5 6.5 0 0 0-8.6 1.6c-2.1 2.8-1.7 5.9.4 8.6a136.7 136.7 0 0 0 9.4 10.6c-9.2 1.3-18.2 2.9-27.3 5-6 1.4-3.7 10.4 2 10.2 7.2-.3 14.4-.4 21.6-.5a159.9 159.9 0 0 0-18.3 17.5c-4.6 5.5 3.6 14.5 9.5 10.5s11.9-9.9 17.6-15.1l7.8-7.2a147.1 147.1 0 0 0 1 14.8c.5 3.8 1.1 7.7 1.8 11.5s1.3 9.7 6.1 12.1a6.5 6.5 0 0 0 7.3-1.7c3.2-4.3 1.3-8.8.4-13.6z" fill="#fcb116"></path><path d="M1005 433.3a12.1 12.1 0 0 0 1.6-1.6 19.8 19.8 0 0 0 2.6-4.2c3.1-3.1 5.9-6.4 8.8-9.6s6.1-7.1 9-10.8 7.2-9 10.8-13.6 5.6-7.9 4.9-12.9c-1-7.5-8.9-10.7-14.5-14.3l-12-7.5c-4.3-2.7-8.6-5.5-13-8s-9.2-5.3-14.3-6.7c-.2-.2-.3-.5-.6-.7a6.4 6.4 0 0 0-8.4-.3c-7.8 7.1-14.8 15-22.7 21.9l-4.3 3.5a15.2 15.2 0 0 0-5.8-4.6 15.8 15.8 0 0 0-11.5-.6 18 18 0 0 0-9.1 7.7 5.9 5.9 0 0 0-.6 1.4 16.7 16.7 0 0 0-2.6 6.7 22.2 22.2 0 0 0 4.9 17.3 9.8 9.8 0 0 0 4.4 3.1 7.7 7.7 0 0 0 5.4 0c3.4-1.4 7-2.9 9.9-5.3a24.7 24.7 0 0 0 4.6-5.1 15 15 0 0 0 3.2-1.9l.5-.6 3.6-3c3-2.5 5.9-5.1 8.7-7.7s6.9-6.8 10.1-10.4a79.6 79.6 0 0 0 7.4-9.1c5.7 5.8 13.1 10.2 19.6 14.7l10.8 7.4 6.2 4.3.7.5c-1.2 1.4-2.3 2.8-3.6 4.2-2.8 3.3-5.6 6.5-8.5 9.7s-7.8 8.4-11.6 12.7l-1.3-.5-2.6-1.8a20.4 20.4 0 0 0-15.7-1.2c-4.8 1.6-8.7 6-10.5 10.6s-1.8 10.5.8 14.8a15.8 15.8 0 0 0 7.5 6.5 13.6 13.6 0 0 0 6.3 1.1 20.7 20.7 0 0 0 5.5-1.1h2.8a21.8 21.8 0 0 0 5.1-.9 21.1 21.1 0 0 0 7.5-4.1z" fill="#5169b3"></path><path d="M318.1 786.8c1.6-8.1 3.2-16.2 4.9-24.3 1.1-5.7 2.3-13.8-5.5-15.1-2.9-.6-5.6.7-8.3 1.7l-10.6 3.9-13.7 5.1c2-9.2 4-18.3 6.1-27.4.5-2.5-2-5.6-4.5-5.6-16.3.1-34.2 2.2-48.8 10-3.8 2.1-2.1 8.8 2.5 7.6 7.4-2 14.5-4.4 22-5.8a122.2 122.2 0 0 1 17.2-1.6c-2.6 10-5.1 19.9-7.7 29.8-1.5 5.2 3.1 8.7 7.9 7.1l18.6-6.4 9.7-3.3 2.6-1c-.5 2.2-.9 4.3-1.4 6.5-1.1 5-2.2 10-3.2 15-1.8 8.1 10.7 11.8 12.2 3.8z" fill="#5169b3"></path><path d="M398.1 128.4c.8-4.3 4.3-6.8 6.9-10a20.9 20.9 0 0 0 5.1-11.3c.6-7.7-4.2-14.7-10.5-18.8-11.4-7.4-22.6-3.8-32.3 3.1a32.1 32.1 0 0 0-1.9-9.7 22.5 22.5 0 0 0-19.5-14.4c-14.2-.7-26.5 9-37.3 18.7a30.8 30.8 0 0 0-6.2-15.1c-6.4-8.2-17-11.3-26.5-6.9s-51.1 42.1-26.7 51c4.2 1.5 9.5-3.5 6.8-7.7s8.6-14.1 10.6-16.2c4.3-4.8 9.5-10.1 15.4-13 12.4-6 13 15.8 12.8 22.5s6.5 10.8 11.5 6.4 12.6-11.2 19.2-16.5c4.3-3.4 9.1-6.9 14.4-8.5 16.5-4.7 13.7 16.2 11.4 26-1.6 7 8 10.5 12.2 5.5 6.6-7.4 18.1-21.3 29.2-13.9 4.6 3 5.2 6.5 1.6 10.7s-8.7 9-9.4 16.6 11.8 8.9 13.2 1.5z" fill="#f8a4e0"></path><path d="M885 319.4c.4.1.5-.3.1-1.2l-.3-1.2a10.4 10.4 0 0 0-1.5-3.8l2.3.4c2.8.7 5.5 1.3 8-.5a2.8 2.8 0 0 0 1.2-2.3 2 2 0 0 0-.2-1.1 2.5 2.5 0 0 0-.8-1.2l-1.7-1.9-1.3-.5-1.4-.5-2.9-.7-5.8-1.2h-1.1a68.2 68.2 0 0 1 15.5-13.3c3.5-2.1.2-8.4-3.6-6.4a77 77 0 0 0-17 12c-.5-5.4-.9-10.8-1.4-16.3-.4-3.5-5.6-3.3-5.5.3s.2 5.5.2 8.3a4.9 4.9 0 0 0-6-1.2c-2.6 1.3-3 4.2-2 6.7a80.3 80.3 0 0 0 3.9 8.4 177.9 177.9 0 0 0-21.9.3c-3.8.3-3.1 5.7.5 5.7a160.4 160.4 0 0 1 20.8 1.5c-2.1 3.4-4.3 7.4-4.8 11.3s4.5 5.5 6.9 2.8l.7-.9c.7-1 1.2-2.1 1.9-3.1l1.8-3a9 9 0 0 0 1.3 2.8 2 2 0 0 0 3.3-.1l.2.2c1.8 2.2 3.7 2.8 6.3 3.6s4.5-1.8 4.3-3.9z" fill="#f8a4e0"></path><path d="M854.6 679.9c-8.4 4.3-16.9 8.4-25.4 12.5l-11.3 5.4c-4.3 2.2-10.3 4-12.4 8.7a3 3 0 0 0 1.4 3.9c4.9 2 10.3-.7 14.9-2.5a125.7 125.7 0 0 0 11.8-5.4c4.2-2.3 8.7-4.5 12.7-7.1s8.2-5.9 12.3-8.9-.1-8.6-4-6.6z" fill="#fff"></path><path d="M685.4 632.1c-6.4-1.9-13.1-.6-19.7-1.8-8.1-1.5-15.5-5.3-20.2-12.3a20.3 20.3 0 0 1-2.6-5.6c11-3.6 20.7-10.9 23.2-22.9a3.3 3.3 0 0 0-2.2-4.1c-14.6-6-28.3 6.5-29.2 20.6-11.1 2.4-26 3.1-33.9-6.1a18.4 18.4 0 0 1-4.4-10.1 45 45 0 0 0 13.5-3.6c12.9-5.8 25.6-19.3 23.4-34.5a1.6 1.6 0 0 0-1.8-1.2c-14.3 2.1-30.4 7.2-37.8 20.6a36.9 36.9 0 0 0-3.1 8 31.1 31.1 0 0 1-8.9-1.4c-9.6-2.9-15.8-11.1-13.3-21.2s9-14.7 15.4-20.6c4.8-4.3-2.1-10.3-6.8-7.8-22.5 11.8-30.4 47.1-3.7 58.9a41.9 41.9 0 0 0 16.5 3.3 26.6 26.6 0 0 0 6.5 15.4c9.5 10.4 25.6 10.7 38.6 8.6l.9-.2a33.7 33.7 0 0 0 17.9 20.7c8.8 4.3 23.1 7.6 32.2 2.8a2.9 2.9 0 0 0-.5-5.5zm-83.5-62.3c6.8-8.9 16.3-13.5 26.9-15.6-6.6 11.9-18.1 22-31.4 24.4a27.2 27.2 0 0 1 4.5-8.8zm56.7 21.3c-2.8 6.8-9.5 10.5-16.5 12.9a15.4 15.4 0 0 1 2-5.8 15 15 0 0 1 14.5-7.1z" fill="#fff"></path><path d="M193.1 248.6c-1.5-2.8-4.7-3.7-7.7-2.7s-5.6 2.7-8.4 3.9l-4 1.7-1.9.8c-1.9 1-3.4 1.4-4.9 2.8a10.9 10.9 0 0 0-2.1 2.7 4.3 4.3 0 0 0 1.7 5.8 9.9 9.9 0 0 0 7.7.7l2.9-.7a47.8 47.8 0 0 0 4.8-1.9l4.6-2c1.9-.9 4.1-1.7 5.6-3.1s3.3-5.1 1.7-8z" fill="#fff"></path><path d="M90.2 685.3a5.3 5.3 0 0 0-1.6-2l-1.1-.9-2.3-1.7-4.6-3.3a2.1 2.1 0 0 0-2.9.2 2.2 2.2 0 0 0 .3 2.9l4.9 3.7 2.5 1.8 1.1.8a4.4 4.4 0 0 0 2.2.7 1.6 1.6 0 0 0 1.5-2.2z" fill="#fff"></path><path d="M582.7 186.5c-1-1.7-2.8-3-4.1-4.5a36.8 36.8 0 0 1-3-3.9c-1.9-2.8-3.4-5.7-5.3-8.4a4.7 4.7 0 0 0-5.8-1.4 4.5 4.5 0 0 0-2.1 5.5 13.8 13.8 0 0 0 1.3 3.9 21.2 21.2 0 0 0 1.1 2.1 39.9 39.9 0 0 0 2.7 4.4 49.6 49.6 0 0 0 3.4 4.6 21.1 21.1 0 0 0 5 4.9 5.2 5.2 0 0 0 6.1-1 5.5 5.5 0 0 0 .7-6.2z" fill="#5169b3"></path><path d="M786.7 887.4a11.6 11.6 0 0 0 2.5-9.9 17.4 17.4 0 0 0-2.7-9.2 13.6 13.6 0 0 0-10.4-5.7 15.5 15.5 0 0 0-10.7 3.7c-.2.1-.2.3-.4.4a12.7 12.7 0 0 0-5.2 3.4c-2.7 3-3.1 7.9-1.4 11.5a10.5 10.5 0 0 0 2.5 3.7l.8.4 1.2 1.7a16.6 16.6 0 0 0 11.4 5.2 15.1 15.1 0 0 0 12.4-5.2z" fill="#5169b3"></path></g></g></svg>