<svg xmlns="http://www.w3.org/2000/svg" width="626.2" height="1072.1" viewBox="0.0018124545458704233 -0.007874011993408203 626.1425170898438 1072.1240234375" style=""><g><title>afro18_302265640</title><g data-name="Layer 2"><path d="M429 230.2c-11.3-14.5-22.7-31.8-37.1-43.4-20.1-16.2-8 23.6-5 32.8A728.6 728.6 0 0 1 410 309c.4 2.1.8 4.2 2.1 5.8 3 3.5 8.5 2.7 12.9 1.6a405.9 405.9 0 0 0 42.8-14.4c4.4-1.7 9.5-4.9 8.8-9.6-.2-1.8-1.4-3.3-2.5-4.8z" fill="#a9c5cc"></path><path d="M596.9 258.6c-5-11.3-9.1-9.1-21.6-8-28.1 2.4-56.2 5.3-84.3 8.3q-74.4 7.8-148.6 17.8a23.9 23.9 0 0 0-20.8 24.1c1.2 69 8.5 137.7 15.9 206.2l9.4 87.3a8.9 8.9 0 0 0 1.2 4.5c1.3 1.9 3.8 2.5 6 3 45.6 9.7 219.8-21.9 260.2-28.8 2-.3 4.2-.7 5.5-2.2s1.8-4.9 1.6-7.5q-10.2-133.5-20.3-266.9c-.9-11.1.3-27.5-4.2-37.8z" fill="#e0d7c6"></path><path d="M605.4 286.4c-.3-10-.5-21.3-4.2-29.7-5.8-13-12.6-12.2-22-11.2l-4.3.4c-28.9 2.5-57.6 5.5-84.4 8.3-49.4 5.2-99.5 11.2-148.8 17.8a28.8 28.8 0 0 0-24.8 28.9c1.2 69.2 8.7 139.1 15.9 206.6l9.4 87.3c.2 1.7.4 4.4 2.1 6.7s6.7 4.5 8.8 4.9c6.3 1.4 14.9 1.9 25.1 1.9 60.1 0 177.4-20.3 226-28.7l10.9-1.9c2.1-.4 5.6-1 8.2-3.7s3-8.5 2.8-11.1L605.7 296c-.2-2.9-.2-6.1-.3-9.6zm11 281.2a8.2 8.2 0 0 1-2.9.8l-10.9 1.9c-51 8.8-206.1 35.7-247.5 26.9-2.4-.5-3-.9-3.1-1.1a6.6 6.6 0 0 1-.5-2.3l-9.3-87.3c-7.3-67.3-14.7-137-15.9-205.7a19.2 19.2 0 0 1 16.7-19.4c49.2-6.6 99.2-12.6 148.5-17.8 26.7-2.9 55.4-5.8 84.2-8.3l4.5-.5 5.7-.4c3.7 0 4.5 1.3 6.7 6.1 2.9 6.7 3.1 17 3.4 26.1 0 3.6.1 7 .4 10.1l20.3 266.9c.2 2.8 0 3.7-.3 4z" fill="#eb5425"></path><path d="M527.3 330.8a17.3 17.3 0 0 1-4.5 1l-21.5 2.4a3.2 3.2 0 0 1-1.7-.2 2.4 2.4 0 0 1-.9-1.3c-3-6.7-5.9-13.4-8.8-20.2a249.9 249.9 0 0 0-3.1 34.5c-.2 10 .3 20.5 5.1 29.3a26 26 0 0 0 7 8.1 22.7 22.7 0 0 0 10.1 3.9c12.8 2 26-5.2 33.2-16 13.9-20.9 3.1-40.5-1.8-62.1-7.7 3.4-5.5 17.1-13.1 20.6z"></path><path d="M535.5 549.5c.9-5.5-1-10.9-2.8-16.1-5.7-16.6-10.9-34-9.1-51.5 1-9.3 3.8-18.3 6.1-27.4a209.6 209.6 0 0 0 5.6-36.9c.5-8.7-2.9-34.5-7.4-42.4-9.2-16.4-37.7 4.7-50 11.4-18 9.9-31.4 26.6-41.7 44.4-19.9 34.4-29.7 77-16.3 114.4 1 3.1 2.4 6.2 4.9 8.1s5.8 2.4 9 2.7a182 182 0 0 0 60.2-3.8c1.5-.3 3.2-1 3.4-2.4a3.5 3.5 0 0 0-1.1-2.7 19.2 19.2 0 0 0-13-6.3c-1.9-.2-4.3-.2-5.3-1.9s.1-3.7 1.1-5.4c3.4-5.2 6.8-10.4 8.7-16.3s2.1-12.6-.8-18c3.8-4 10.9-1.6 13.8 3.1s2.8 10.4 3.1 15.8a101.2 101.2 0 0 0 4.6 24.9c.9 3 2.6 6.5 5.8 6.9 7.7-17.4-8.2-38.7-.4-56 7.6 18.5 7.9 40.9 21.6 55.4z"></path><path d="M433.9 384.9c3.6-12 4.8-25.2 0-36.7-3-7.4-8.2-13.5-13.9-19.1s-10.7-9.8-17.5-11.5c-4.6-1.2-9.4-.9-14-.5s-10.5 1.4-14.9 4.1-7.9 8-10.3 13.1-3.6 9.1-2.3 13.7a11.9 11.9 0 0 0 12.4 8.3c2.9-.3 6.2-2.8 5.5-5.7s-2.6-3.1-3.7-4.9-.2-7 2.6-8.9 6.5-2.2 9.9-2c7.4.4 15 2.8 20 8.2a27.4 27.4 0 0 1 6.4 12.7c3.1 13.3-1 27.1-5 40.1l-11 35.1c-4 12.8-8 25.8-9.8 39.1a123.4 123.4 0 0 0 2.6 45.7c2 7.6 4.7 15.1 9.4 21.3s10.3 10.3 17.2 11.7 7.1-2.1 4.2-7.4-8.6-12.1-11.3-19.5-4-18.2-4.3-27.4a186.4 186.4 0 0 1 13.6-74.9c4.7-11.6 10.6-22.7 14.2-34.6z"></path><path d="M488.2 1030.4c4.9 2.7 11 1.9 16.5.8 19-3.7 37.6-8.8 56.3-14 2.1-.5 4.5-1.5 4.8-3.7s-2.1-3.7-4.2-4.5c-14.3-5.5-31.5-1.9-44.7-9.7-9.5-5.6-11.6-20.4-17.1-30-3.8-6.7-7.6-13.4-10.3-20.7s-4.8-17.8-6.4-26.9l-6.6-39.5c-18.9-1.4-37.6 2.6-55.5 8.3 5.2 17 9.9 34.9 6.9 52.4-1.1 6.5-3.2 12.7-4.4 19.2-5 25.7 4.1 51.9 13 76.6 4.6-.3 9.4-.2 14-.6a42.8 42.8 0 0 0 8-1.1c3.2-.9 6.4-2.7 9.8-2.5a175.1 175.1 0 0 1-1.6-26.1c4.8 5.5 10.5 10.9 15.4 16.4a25 25 0 0 0 6.1 5.6z"></path><path d="M331.2 353c-21-3.6-43.1 6.4-54.5 21.3s-38.8 1.5-38.4 20.9a498.8 498.8 0 0 0 14.5 109.2c31.9 129 89.1 122.2 136.2 418 43.4-3.5 87-6.2 130.5-7.9-7.1-45-45.4-199.5-72-277.2-13.2-38.5-62-167.5-73.3-206.5-7-24.2-5.6-71.5-43-77.8z" fill="#f6a8b2"></path><path d="M189.7 976.1c1.7-9.1 5-17.8 8.3-26.4 4.9-12.5 9.7-24.9 14.5-37.4-15.5-10.7-33.7-16.9-52-21.1-4.2 17.3-9.3 35-20.8 48.6-4.2 5-9.2 9.3-13.6 14.2-17.4 19.6-23 46.7-27.9 72.5 4.1 2.1 8.2 4.6 12.3 6.7a44 44 0 0 0 7.5 3.1c3.3.8 6.9.9 9.7 2.9a182.4 182.4 0 0 1 11.9-23.3c1.4 7.2 3.5 14.7 4.9 21.9a24 24 0 0 0 2.4 8c2.9 4.8 8.5 7.2 13.8 9.1 18.2 6.5 36.9 11.6 55.5 16.7 2.1.6 4.7 1 6-.7s.1-4.3-1.2-6.1c-9.5-12-26.2-17.7-33.5-31.1-5.3-9.7.4-23.5.6-34.5a147.8 147.8 0 0 1 1.6-23.1z"></path><path d="M299.9 373.6c-19.2 7.7-34.1-18.5-43.7-1.6A501.4 501.4 0 0 0 213 473.3c-38.5 127.2 14.2 150.5-96.3 429Q175.5 931 233 962.1c16.8-42.4 62.8-194.7 79.6-275.1 8.3-39.9 32.1-175.7 42.3-215 6.3-24.4 31.7-64.3 2.8-88.9-16.3-13.8-40.4-16.4-57.8-9.5z" fill="#f6a8b2"></path><path d="M321.5 170.8c-13.1 5.1-23.7 15-32.8 25.7-39.3 46.2-53.7 112.4-37.3 170.8 3.8 13.6 9.6 27.2 20.5 36 14.2 11.5 33.9 12.5 52.1 12.6 12.6 0 25.3-.1 37.4-3.6s23.5-10.9 29.4-22 5.5-23.8 5.1-36.1c-1.4-43.3 7.3-215.1-74.4-183.4z" fill="#eb5425"></path><path d="M32.8 506.7a29.5 29.5 0 0 0 6-5.6c4.7-5.9 7.2-7.3 13.5-11.3s24.2-18 26.9-20.7c8.7-8.9 20-14 31.2-19-3.6-7.3-8.9-16.3-12.5-23.6-7.5 3.6-15.1 7.1-22.8 10.3-3.6 1.5-7.3 3-11.2 3.1s-8.1-.1-13-.3-8.2 1.1-12.2 2.3L15 449.1a3 3 0 0 0-1.6 4.8A7.3 7.3 0 0 0 17 456c2.6.6 5.2-.2 7.7-.7a31.7 31.7 0 0 1 13.7.4L5.9 475.4c-2.3 1.4-4.8 3.3-5.8 5.8a2.2 2.2 0 0 0 2.9 2.7l2.9-1.3L30.6 471 6.5 487.2a17.3 17.3 0 0 0-4.1 3.5 2.4 2.4 0 0 0 2.4 3.7 15.9 15.9 0 0 0 4.3-1.6c7.5-3.6 19.1-10 26.6-13.6-7.3 5.2-17.9 12.6-24.4 20.1A1.7 1.7 0 0 0 13 502c9.8-2.4 21.9-14.9 30.6-16.8-4.3 5.3-10.1 10.7-14.6 18.2a2.6 2.6 0 0 0 3.8 3.3z" fill="#603813"></path><path d="M37.1 464.4v1.9h.6a24.3 24.3 0 0 0 19.7-10.5l-1.6-1a22 22 0 0 1-18.7 9.6z"></path><path d="M45.463 467.505l1.656-.933 5.184 9.2-1.656.933z"></path><path d="M54.3 475l1.7-.9c-1.6-2.9-3.1-5.9-4.5-8.9l-1.7.7c1.4 3.1 2.9 6.1 4.5 9.1z"></path><path d="M409.2 85c3.7-4.3 4.5-10.7 2.9-16.1A27.1 27.1 0 0 0 402 55.4c-2-1.4-4.4-3-4.5-5.4a8 8 0 0 1 .7-3.4 25.3 25.3 0 0 0-5.2-24.3c-6.1-6.6-15.3-5.7-20.2-12.8C366.1-.4 356.5-.6 346.3 5c-1.1.6-2.3 1.3-3.6.9a4.6 4.6 0 0 1-2-1.4c-7.9-7.1-21.9-5.6-28.2 3-1.4 2-2.8 4.5-5.2 4.8a7.4 7.4 0 0 1-3.3-.5c-5-1.4-10.4-1.9-15.3-.3s-9.1 6-9.6 11.1c-.3 3.1.5 6.8-1.8 8.9s-2.9 1.5-4.5 1.9a19.3 19.3 0 0 0-9.9 5.8c-2.4 3-3.4 7.4-1.8 10.9s6 6.4 5.8 10.4-2.5 4.9-4.1 7.2c-4.4 6.4-2 16.4 4.8 20.1 2.1 1.3 4.8 2.1 5.8 4.4s.1 3.3-.3 4.9c-1.4 5.7-2.6 11.8-1.2 17.5s5.9 11.2 11.8 11.6a8.8 8.8 0 0 1 3.6.6c2 .9 2.5 3.4 3.2 5.4a16.3 16.3 0 0 0 26.1 6.9c1.2-1.1 2.7-2.5 4.2-1.9a3.9 3.9 0 0 1 1.9 1.7 19.3 19.3 0 0 0 10.6 7.6c8.3 2.1 17-3 22-10 2.1-2.8 3.9-6.2 7.2-7.5s5.5-.5 8.3-.3a39.6 39.6 0 0 0 11.4-.7c3.5-.8 7.1-2.1 9.4-4.8 5.9-7.2.1-19 4.9-27 3-4.8 9-6.9 12.7-11.2z"></path><path d="M341.1 125.4A112.6 112.6 0 0 1 328 111c-1.3-1.6-8.5-15.8-8.5-14s-1.3 20-1.5 22.8a85.3 85.3 0 0 1-3.4 16.7 58.2 58.2 0 0 1-3 7.9c-.7 1.6-3.6 5.5-3.6 7.1a7.9 7.9 0 0 0-1.3 3.3c0 1.8 1.2 3.3 2.4 4.5 6.4 6.8 13.1 13.8 21.5 16.4s20.1-.4 29.3-4.9a2.3 2.3 0 0 0 .9-.8 3 3 0 0 0-.2-1.3 65.4 65.4 0 0 1-4.4-33.9 54.4 54.4 0 0 1-15.1-9.4z" fill="#603813"></path><path d="M357.9 42.2c-13-.4-27.2.4-36.9 8.9-7.1 6.1-10.5 15.5-10.8 24.7s2.3 18.3 5.7 26.9c6.6 16.4 18.3 32.7 35.8 37a21.9 21.9 0 0 0 10.5.3c4.6-1.2 8.4-4.6 11.4-8.3 6.5-8.3 9.5-18.7 11.2-28.9a131.9 131.9 0 0 0-.1-41.6c-.6-3.6-1.4-7.3-3.5-10.3-4.8-7-14.6-8.4-23.3-8.7z" fill="#603813"></path><path d="M309.3 87c-5-2.7-11.5-4.1-16.3-1.1a5.6 5.6 0 0 0-2.2 2.4 5.9 5.9 0 0 0-.5 3.2c.3 6.9 5.5 12.5 11.1 16.4a19.9 19.9 0 0 0 8.2 3.8c3 .5 6.3-.2 8.3-2.5a10.3 10.3 0 0 0 2.2-5 13.5 13.5 0 0 0-.7-6.6c-1.6-4.7-5.7-8.2-10.1-10.6z" fill="#603813"></path><path d="M339.7 101.7a9.2 9.2 0 0 0-11.3-.1 6.1 6.1 0 0 0-1.8 2.1 10.7 10.7 0 0 0-.8 2.7c-.3 1.9-.5 4.1.5 5.7a6.7 6.7 0 0 0 3 2.5 11.7 11.7 0 0 0 6.1 1.2 8 8 0 0 0 5.5-2.6 7.3 7.3 0 0 0 1.9-6 8.1 8.1 0 0 0-3.1-5.5z" fill="#5e2313"></path><path d="M386.6 100.5a9.3 9.3 0 0 0-11.3-.1 9.1 9.1 0 0 0-1.8 2.1 9 9 0 0 0-.7 2.7c-.4 2-.6 4.1.4 5.8a7.1 7.1 0 0 0 3 2.4 12.9 12.9 0 0 0 6.1 1.3 8.6 8.6 0 0 0 5.5-2.6 7.4 7.4 0 0 0 1.9-6 8.4 8.4 0 0 0-3.1-5.6z" fill="#5e2313"></path><path d="M360.4 114a4.2 4.2 0 0 0-5.1-1.5 9.8 9.8 0 0 0-2.3 1.7 20.4 20.4 0 0 1-5.5 3.7 12.7 12.7 0 0 0 6.8 6.3 9.8 9.8 0 0 0 9.1-1c2.2-1.5 3.6-4 5.5-5.9-1.5-1.5-3-2.9-4.4-4.4l-.9-.6c-1.2-.3-2 1.5-3.2 1.7z" fill="#5e2313"></path><path d="M361.9 106.3l1.8-.5a124 124 0 0 1-2.7-13.5l-1.9.3a127.9 127.9 0 0 0 2.8 13.7z"></path><path d="M358.294 107.605l.942-3.371 1.81.506-.94 3.37z"></path><path d="M355.73 108.581l1.003-4.181 1.828.439-1.004 4.181z"></path><path d="M348.2 116.5l-.4 1.8a36.8 36.8 0 0 0 8 .8 66.9 66.9 0 0 0 10.3-.9l4.2-.7-.3-1.8-4.2.6c-5.3.8-11.6 1.5-17.6.2z"></path><path d="M344.1 87.5c-2.5-.6-5.2.5-7.5 1.6a1.1 1.1 0 0 0-.7.6c-.3.4 0 .9.2 1.3a10 10 0 0 0 11.7 3.4 2.5 2.5 0 0 0 1.7-1.6 2.7 2.7 0 0 0-.8-2.2 9 9 0 0 0-4.6-3.1z" fill="#f1f1f1"></path><path d="M344.3 86.8c-2.9-.7-5.6.5-8 1.6a1.9 1.9 0 0 0-1.1.9 2.1 2.1 0 0 0 .3 2.1 10.8 10.8 0 0 0 8.8 4.5 10 10 0 0 0 3.8-.8 3.1 3.1 0 0 0 2.1-2.1 3.3 3.3 0 0 0-1-2.9 9.5 9.5 0 0 0-4.9-3.3zm4.5 5.8c-.1.5-.8.9-1.3 1.1a8.9 8.9 0 0 1-10.7-3.2l-.3-.5.4-.2c2.2-1.1 4.7-2.1 7-1.5a8 8 0 0 1 4.2 2.8c.5.7.8 1.2.7 1.5z"></path><path d="M338.9 89.5a3 3 0 0 0 .6 2.6 3.4 3.4 0 0 0 1.9.9c2.8.7 6.2-2 4.2-4.9s-5.9-1.3-6.7 1.4z"></path><path d="M373.3 86.3c-2.5.4-4.6 2.3-6.3 4.2-.2.3-.5.5-.5.8a1.3 1.3 0 0 0 .8 1.1 9.7 9.7 0 0 0 12.1-1.2 2.2 2.2 0 0 0 .9-2.1c-.1-.8-.8-1.3-1.6-1.7a8.4 8.4 0 0 0-5.4-1.1z" fill="#f1f1f1"></path><path d="M379.1 86.7a10.1 10.1 0 0 0-5.9-1.2c-2.9.5-5 2.6-6.8 4.5a2.3 2.3 0 0 0-.6 1.3 1.8 1.8 0 0 0 1.1 1.8 9.9 9.9 0 0 0 5.6 1.6 10.6 10.6 0 0 0 7.4-2.9 3.3 3.3 0 0 0 1.2-2.8 3.6 3.6 0 0 0-2-2.3zm-.3 4a9.2 9.2 0 0 1-11.1 1.1c-.4-.2-.4-.4-.4-.4l.2-.3c1.6-1.8 3.6-3.7 5.9-4.1a7.9 7.9 0 0 1 5 1.1 2.6 2.6 0 0 1 1.2 1.1c.1.5-.4 1.1-.8 1.5z"></path><path d="M369.3 90a2.9 2.9 0 0 0 1.5 2.2 3.8 3.8 0 0 0 2.1.2c2.9-.5 5-4.3 2-6.2s-5.9 1-5.6 3.8z"></path><path d="M367.5 97.5l1.7-.7-2.3-5.6-1.8.6z"></path><path d="M349.6 98.9a13.5 13.5 0 0 0 1.3-6.6l-1.9.2a10.8 10.8 0 0 1-1.1 5.6z"></path><path d="M379.4 87.6l1.1 1.5a6.8 6.8 0 0 0 2.7-4.3l-1.8-.4a5.4 5.4 0 0 1-2 3.2z"></path><path d="M377.8 87.5a7.8 7.8 0 0 0 2-3.8l-1.9-.3a5.5 5.5 0 0 1-1.5 2.8z"></path><path d="M375.3 87.1a12.9 12.9 0 0 0 1.2-3.8l-1.9-.2a7.5 7.5 0 0 1-1 3.1z"></path><path d="M372.1 88a7.6 7.6 0 0 0 .5-4.5l-1.8.3a8.9 8.9 0 0 1-.4 3.6z"></path><path d="M343 83.9a16.2 16.2 0 0 0 .3 4.9l1.8-.4a15.5 15.5 0 0 1-.2-4.3z"></path><path d="M339.9 83.9a8.2 8.2 0 0 0 .3 4.4l1.8-.6a6.9 6.9 0 0 1-.3-3.5z"></path><path d="M337.3 89.1l1.7-.7a9.2 9.2 0 0 1-.7-3.6h-1.9a10.7 10.7 0 0 0 .9 4.3z"></path><path d="M335.9 91.2l1.4-1.2a10.1 10.1 0 0 1-2.2-3.9l-1.8.5a11.7 11.7 0 0 0 2.6 4.6z"></path><path d="M350.3 71.4a18.5 18.5 0 0 0-11.1-2.1 32.8 32.8 0 0 0-11.1 3.1 3.1 3.1 0 0 0-1.5 1 1.4 1.4 0 0 0-.2 1.6c3.4.4 6.9-.3 10.4-.5a32.5 32.5 0 0 1 9.8 1.2c2.4.7 5 1.6 7.1.3a1 1 0 0 0 .5-.6.8.8 0 0 0-.3-.8 11.1 11.1 0 0 0-3.6-3.2z"></path><path d="M376.6 69.3a19 19 0 0 0-11.2 2.1 12.2 12.2 0 0 0-3.6 3.2 1.1 1.1 0 0 0-.2.8.6.6 0 0 0 .5.6c2 1.3 4.7.4 7.1-.3a31.5 31.5 0 0 1 9.7-1.2c3.5.2 7 .9 10.5.5a1.4 1.4 0 0 0-.3-1.6 2.8 2.8 0 0 0-1.4-1 34.1 34.1 0 0 0-11.1-3.1z"></path><path d="M297.1 92.4a31.8 31.8 0 0 1 16.7 12.3l1.5-1a32.5 32.5 0 0 0-17.6-13.1z"></path><path d="M321.2 115.3l-1.6.9a47 47 0 0 0 16.7 17.6 93.9 93.9 0 0 0 14.8 6.8l.7-1.7a86.5 86.5 0 0 1-14.5-6.7 45.8 45.8 0 0 1-16.1-16.9z"></path><path d="M361.8 56.6c3.4 2.8 8.9 3.6 11.9.5 3.9 8.5 17.2 27.6 22.1 8.4 3-11.7-5.6-25.4-15.6-30.9-8.5-4.7-18.7-5.3-28.4-5a206.2 206.2 0 0 0-20.7 1.7c-4.5.7-9.2 1.5-13 4-6 4-8.8 11.3-11.9 17.7s-5.4 10-6.7 15.4-.9 11.7 2.8 15.9c1.7 1.8 4.1 3.2 6.5 2.8s4.5-3 3.7-5.3c4 2.1 9.1-1.1 10.6-5.4s0-8.9-1.8-13c3 4.8 10.8 4.2 14.7 0s4.5-10.2 4.3-15.9c2.2 2.6 5.3 4.8 8.8 4.7s6.8-3.3 6.1-6.6c1.6 4 3.3 8.3 6.6 11z"></path><path d="M309.1 157.3c-14.1-5.9-46.7 10.5-59.6 16.4-6.4 3-12.8 6.3-17.6 11.5-6.6 7.3-9.3 17.3-11.7 26.9q-18.7 75.6-34 151.8c-.5 2.6-1 5.3-.2 7.8s3 4.6 5.1 6.4c16.2 14.1 32.6 28.3 51 39.4s39.3 18.9 60.8 19.2c12.4-75.9 24.8-152.4 22.9-229.3-.4-13.3-1.3-43.7-16.7-50.1z" fill="#a9c5cc"></path><path d="M372.7 427.5a145 145 0 0 0 27.6-18.9c8.3-7.2 16-15.8 18.4-26.5 1.2-5.3 1-10.9.8-16.3-.7-16.5-1.4-33-2-49.4-1.3-31.6-2.7-63.4-10.7-94-3.8-14.5-9.3-28.9-19.3-40.1-7.4-8.2-19.5-9.4-29.2-14.7a828.3 828.3 0 0 1 15.8 252.2 49.7 49.7 0 0 1-1.4 7.7z" fill="#a9c5cc"></path><path d="M237.6 181.9c-12.9 4.7-26.1 32.9-32.7 44.1-10 16.8-18.6 34.3-27 51.8-5 10.4-9.9 20.9-15.5 30.9-18.8 33.7-45.5 52.7-71.3 81.4-5.8 6.4-40.2 32.4-50.7 46 1.7 2.2 10 8.3 11.6 10.5s4.5 5.5 6.7 8.2l4.5 5.4c4.8 5.3 9.5 10.8 13.9 16.4 60.2-34 118-78.4 146.9-141.1 8.4-18.4 14.2-38 19.2-57.6 3.1-12.1 23.4-106.5-5.6-96z" fill="#a9c5cc"></path><path d="M319.1 654.5l1.8.7c13.2-33.8 18-70.5 22.6-105.9 3.6-27.4 7.3-55.8 14.9-82.6l-1.8-.6c-7.6 27.1-11.3 55.4-14.9 82.9-4.7 35.4-9.4 71.9-22.6 105.5z"></path><path d="M415.6 252.2l1.8-.3a267 267 0 0 0-17-54.5l-1.7.8a268.6 268.6 0 0 1 16.9 54z"></path><path d="M213.9 351c-2 4.4-4.1 8.9-6.2 13.3l1.7.8 6.3-13.3c11.2-24.1 22.9-48.9 30.6-74.7 10.5-35.1 11.9-66.9 4.3-94.6l-1.8.4c7.5 27.4 6 58.9-4.3 93.6-7.7 25.7-19.3 50.5-30.6 74.5z"></path><path d="M257.8 375.9l-7.2-4.3c-17.9-11-19.7-11.7-20.7-11-3.3 2.2-3.5 7.1-1.7 10.3s4.9 5.1 7.9 6.9a259.1 259.1 0 0 0 23.7 12.1 19 19 0 0 0 7.3 2 6.5 6.5 0 0 0 1.9-.2c3.3-.8 5-2 5.2-3.7.4-3.8-7.5-8-15.2-11.5zm14.6 11.9c-.1.8-1.5 1.5-3.9 2.1s-5.2-.5-7.9-1.7c-8.9-4-16.6-8-23.6-12-2.8-1.7-5.6-3.5-7.1-6.2s-1.3-6 .8-7.7c2.1.6 13 7.3 19 10.9 3.5 2.2 6.4 4 7.3 4.4l1.2.6c12.6 5.8 14.3 8.5 14.2 9.6z"></path><path d="M46.5 426.2a158.6 158.6 0 0 1 41.1 46.7l1.6-.9a158.5 158.5 0 0 0-41.6-47.3z"></path><path d="M337.1 182.4l-.2 1.9a63.4 63.4 0 0 0 7.6.4 69.3 69.3 0 0 0 16.3-2l-.5-1.9a62.6 62.6 0 0 1-23.2 1.6z"></path><path d="M307 295h-.9v.4a6.1 6.1 0 0 0 .5 6.7 6.4 6.4 0 0 0 5.1 2.8h1.6l.3-1.2 1.2-.3.5-.2v-.5a6.4 6.4 0 0 0-2.3-6.2 6.8 6.8 0 0 0-6-1.5zm6.3 5.1l-.8-.2-.5 2a5.8 5.8 0 0 1-2.6-1.3 4.3 4.3 0 0 1-1.7-3.8 4.7 4.7 0 0 1 4.7 2.8l.6-.2z"></path><path d="M298.3 343.5l.3.3a5.9 5.9 0 0 0 3.3 1.1 5.8 5.8 0 0 0 1.9-.3 6.3 6.3 0 0 0 3.8-2.2l.3-.5-1.3-2.7a4.6 4.6 0 0 0-.7-1.6v-.2l-.6-.8a5.8 5.8 0 0 0-5.9-1.9h-.4a5.5 5.5 0 0 0-1.6 4.3 5.7 5.7 0 0 0 1 3.1 1.1 1.1 0 0 0 0 .8zm5.5-5.6l.5.6.5 1.3a3.4 3.4 0 0 1 0 2 4.2 4.2 0 0 1-1.4.9 3.5 3.5 0 0 1-3-.8h-.1a4.2 4.2 0 0 1 3-2.9l-.3-1.8zm-3.7-1.5a3.5 3.5 0 0 1 2.8.7 5.7 5.7 0 0 0-3.7 2.5v-.5a3.7 3.7 0 0 1 .9-2.7z"></path><path d="M292.2 475.7a241.9 241.9 0 0 0-39.2-11.3c-1.6-.3-3.3-.5-4.6.7a5.1 5.1 0 0 0-1.5 2.9 163.5 163.5 0 0 0-4.7 38.8c-.1 3.8.1 8.1 2.6 11.3s8.9 4.9 13.5 4.9h1.6c6-.2 13.6-.9 20.3-4.6s12.6-12.1 15.1-17.8l.5-1c3.2-7.2 5.7-12.9 3.8-17.6-1.1-2.6-3.5-4.7-7.4-6.3zm1.9 23.1l-.5 1c-2.4 5.5-6.8 12.8-14.3 16.9s-13.7 4.2-19.5 4.4c-4.3.1-10.4-.2-13.5-4.2s-2.3-6.6-2.3-10.1a171.7 171.7 0 0 1 4.7-38.4 3.4 3.4 0 0 1 .9-1.9 2.4 2.4 0 0 1 1.5-.4l1.6.2a218.8 218.8 0 0 1 38.8 11.2c3.4 1.4 5.5 3.1 6.4 5.2 1.6 3.9-.8 9.3-3.8 16.1z"></path><path d="M130.7 889.8l-.9 1.6c23.5 12.7 47.8 25.7 73.1 35.6l3.6 1.4c10.1 3.8 20.5 7.8 28.3 15.1l1.3-1.4c-8.1-7.5-18.7-11.5-28.9-15.5l-3.6-1.4c-25.2-9.8-49.5-22.8-72.9-35.4z"></path><path d="M399.9 907.3l.2 1.8 66.3-7c15.2-1.6 31-3.3 46.6-2.1v-1.8c-15.7-1.2-31.6.4-46.9 2.1z"></path><path d="M485.4 525.7c35.8-37.1 71-75.7 104.6-114.9l-1.4-1.2C555 448.7 519.9 487.3 484 524.4z"></path><path d="M495.3 490.5l1.3 1.3a65.8 65.8 0 0 0 15.5-21.8l-1.7-.8a65.2 65.2 0 0 1-15.1 21.3z"></path></g></g></svg>