<svg xmlns="http://www.w3.org/2000/svg" width="894.6" height="1034.5" viewBox="0.05451521277427673 0 894.5567016601562 1034.5" style=""><g><title>hdrawn72_372222972</title><g data-name="Layer 2"><g fill="#82aed9"><path d="M72.9 816.7c5.8-3.2 11.6-6.3 17.5-9.3s10.8-5.2 16.3-7.7c2.4-.9 4.7-1.9 7.1-2.7l8.1-2.6 4.3-1.1 5.4-1.2c2.2-.5 4.5-.8 6.8-1.2l3.7-.3 2.7-.2c2.3-.1 4.6-.3 6.9-.2s4.7.1 7 .3l6.7.6 5.6.7 6.9 1.3c4.7 1 9.4 2 13.9 3.4s9.4 2.7 14 4.4 8.8 3.3 13.1 5.1l22 9.7 11.8 5 6 2.4c2 .7 4 1.6 6.1 2.2l6.5 2.2 6 1.7a120.1 120.1 0 0 0 11.9 2.6c2.5.5 5 .8 7.5 1.1a54.1 54.1 0 0 0 5.8.7l4.3.2 3 .2 7-.2a55.1 55.1 0 0 0 7.1-.6q3.6-.3 7.2-.9c2.2-.4 4.5-.7 6.7-1.2l8-1.9c2.3-.5 4.5-1.3 6.7-2l4.9-1.6 8.2-3c2.4-.9 4.7-2.1 7.1-3.1l5.9-2.6 7.6-3.6 12.7-6.2c7.9-3.8 15.9-7.6 24-11.2l6.9-2.9 6.5-2.6 7.2-2.6 9.1-2.9 3.2-.9 5.4-1.4 6.4-1.4 7.3-1.4 7.4-1.2c3.5-.4 6.9-.9 10.3-1.1l8.2-.6H512l7.7.4c3.3.2 6.4.6 9.6 1s6.8 1.2 10.1 2.1 5.2 1.4 7.7 2.3l7.7 2.8 3.4 1.5c1.1.5 2.3.9 3.4 1.5 2.7 1.3 5.5 2.6 8.1 4.1 5.5 3 10.9 6 16.1 9.3s10.9 7.2 16.3 10.8c2.5 1.8 5 3.5 7.6 5.1a81.8 81.8 0 0 0 6.9 4.5c2.3 1.3 4.6 2.6 7 3.8a68.3 68.3 0 0 0 12.5 5.1 58.6 58.6 0 0 0 19.1 2.4 83.7 83.7 0 0 0 18.5-3.4 131.3 131.3 0 0 0 13.6-5.2c2.4-1 4.7-1.9 7-3l12.1-5.9c8.3-4.3 16.4-8.7 24.7-12.9l13.3-6.5 11.1-4.9c2.9-1.2 5.8-2.4 8.8-3.4s6.9-2.4 10.4-3.4c1.8-.5 3.6-1.2 5.4-1.6l5.8-1.3c3-.8 6.1-1.3 9.1-1.8l6.2-.7 3.4-.2h3.9c1.1-.1 2.2 0 3.3 0h3.8l3.5.4 2.5.2c2.7.5 5.3.9 7.9 1.5l4.5 1.1 5.2 1.5c2.6.7 5.2 1.7 7.7 2.6l8.1 3.2 13.8 6.1 14.4 6.5a7.2 7.2 0 0 0 5.7.8 7.7 7.7 0 0 0 4.5-3.4 7.6 7.6 0 0 0-2.7-10.3l-1.7-1.1c-2-1.2-4.1-2.3-6.2-3.4a56.9 56.9 0 0 0-5.6-2.6L864 777c-4.3-1.6-8.7-3.3-13.1-4.8s-8.6-2.7-13-4-8.8-1.8-13.3-2.6a85.5 85.5 0 0 0-8.7-.9h-2.5l-4.3-.2-7.3.3c-2.2 0-4.4.4-6.6.6a115.4 115.4 0 0 0-14.1 2.4l-6.5 1.5-6.8 1.9-8 2.7c-1.9.6-3.8 1.4-5.8 2.2-8.7 3.3-17.2 7.1-25.5 11.2L704 799.7q-6.9 3.6-13.8 6.9c-3.7 1.8-7.5 3.5-11.3 5.1a94.2 94.2 0 0 1-20.5 6 42.4 42.4 0 0 1-23.5-3.4c-8.9-4-16.8-9.7-24.7-15.2-3.9-2.7-7.7-5.5-11.7-8.1l-6.4-4.2-5.9-3.6c-3.6-2.2-7.3-4.3-11.1-6.2-2-1.1-4-2.2-6.1-3.1l-7.3-3.4c-2.8-1.2-5.7-2.2-8.6-3.3a90.4 90.4 0 0 0-12.2-3.8 75.5 75.5 0 0 0-8-1.6l-3.9-.5-4.4-.6-3.3-.5-8.9-.6a29.4 29.4 0 0 0-4.2 0h-1.6c-2.1 0-4.2-.1-6.3 0l-8.6.5c-2.3.1-4.5.4-6.8.7s-4.6.4-6.9.8l-8.9 1.3c-1.8.2-3.6.7-5.4 1s-4.1.7-6.1 1.3l-8.5 2.1c-2 .5-4 1.2-5.9 1.8l-5.9 1.9c-4.4 1.6-8.7 3.1-13 4.9l-7.9 3.4-7 3.1c-8.9 4.1-17.6 8.5-26.3 12.8l-12.6 6.3c-3.4 1.7-7 3.2-10.5 4.8l-8.8 3.5-4 1.3-5.2 1.7-3.6 1-5.6 1.5c-1.5.4-3 .6-4.5.9l-4.2.8-2.6.3-3.7.5-4 .2-4 .2h-7.7l-7.2-.6c-2.9-.5-5.9-.9-8.8-1.5s-6.9-1.5-10.4-2.4a85.2 85.2 0 0 1-8.6-2.6l-10.1-3.6c-12.1-4.4-23.8-9.8-35.8-14.2-4.4-1.6-8.7-3.2-13.1-4.5s-9-2.8-13.6-3.8c-2.3-.5-4.7-1.2-7.1-1.6s-4.4-.9-6.6-1.2-5.5-.9-8.3-1.2l-6.8-.6c-2.3-.3-4.7-.3-7-.4s-4.5.1-6.7.1-4.6.3-6.9.4-4.9.7-7.4 1-4.7 1-7 1.5-4.3 1.2-6.5 1.8-4.5 1.5-6.8 2.3-4.1 1.6-6.2 2.5a120.2 120.2 0 0 0-12.5 6.1 231 231 0 0 0-10.9 6c-8 4.6-16 9.4-23.7 14.7-3.8 2.5-7.5 5.1-11.1 7.9s-7.3 5.6-10.8 8.7c-1.9 1.8-3.8 3.5-5.7 5.4l-4.2 4.4-2.1 2.5c-.5.7-1.4 1.8-1.2 2.8a1.1 1.1 0 0 0 1 .8l.5-.2a1 1 0 0 0 .4-.9 6.7 6.7 0 0 1 .9-1.4 44.7 44.7 0 0 1 4.2-4.5c1.6-1.5 3.3-2.9 4.9-4.2 4.9-3.7 9.8-7.4 14.9-10.7s11.3-7 17.1-10.3z"></path><path d="M94.1 917.1l6.6-4.3 5.3-3.2c1.9-1.1 3.8-2.3 5.7-3.3s5.4-2.8 8-4.3l5.5-2.7 5.7-2.7 6.9-2.9c2.8-1.1 5.6-2.3 8.6-3.2l6.2-2a72.5 72.5 0 0 1 11.4-2.6 60.5 60.5 0 0 1 14.1 0 69.3 69.3 0 0 1 15.6 4.3 116.4 116.4 0 0 1 19.5 11c5.7 3.8 11.3 7.9 17.1 11.5l5 3.2 5.3 3 3.6 1.9 5.8 2.8c3.1 1.3 6.1 2.6 9.2 3.7l5.5 1.9a96.9 96.9 0 0 0 31.1 4.2 109.1 109.1 0 0 0 14-1.6l8.1-1.5 5.5-1.4 5.4-1.4 7.8-2.4 5.2-1.8 5.8-1.9c4.1-1.5 8.1-2.9 12.1-4.5s8.9-3.5 13.3-5.4c7.9-3.2 15.7-6.6 23.5-10l17.6-7.1c5.5-2.1 11.2-4 16.8-5.8s11.7-3.4 17.5-4.8 10.8-2.2 16.3-3.1c2.5-.4 5-.7 7.6-.9l10.2-.7a78.5 78.5 0 0 1 8.4.1l4.4.2 3.1.4a64.2 64.2 0 0 1 9.6 2.4l3.7 1.4 4.8 2.3 5.7 3.1c3.6 2 6.9 4.4 10.4 6.6 1.8 1.1 3.5 2.2 5.4 3.2a79.8 79.8 0 0 0 11.5 5.3A70.4 70.4 0 0 0 567 908a77 77 0 0 0 17.3 0 106.3 106.3 0 0 0 19.3-3.8c3.1-.9 6.3-2 9.4-3.2l6.9-2.7c2.6-1 5.1-2.2 7.7-3.3l21.7-9.4c3.7-1.5 7.5-3.1 11.3-4.5 2.2-.8 4.4-1.7 6.6-2.4l7.2-2.3c3.6-1.2 7.4-2.1 11.1-3l6-1.4 6.7-1.2 5.8-.7c2.8-.2 5.5-.4 8.3-.4h4.6l4.9.3c2.6.1 5.1.4 7.6.6 5.6.8 11.1 1.7 16.6 2.9s13.1 3.3 19.6 5.3c4.1 1.1 8.1 2.4 12.1 3.7s7.8 2.5 11.8 3.4a130.2 130.2 0 0 0 14.1 2.8l6.4.8c2.1.1 4.2.3 6.3.3 4.2 0 8.5.1 12.8-.2s8.3-.7 12.5-1.3 9.7-1.2 14.6-2l13.2-2.2a8.7 8.7 0 0 0 5.4-4.2 9.1 9.1 0 0 0-3.2-12.4 9.7 9.7 0 0 0-4.6-1.3l-2.4.4h-.8l-13.9 1.7-15.1 1.8-8.2.7c-2.8.2-5.5.3-8.3.3l-8.3-.2a46 46 0 0 1-5.2-.6c-3.6-.6-7.1-1.1-10.6-2l-10.4-2.9c-7.5-2.2-15.1-4.4-22.7-6.4s-14.4-3.2-21.7-4.4c-4.1-.7-8.2-1.2-12.2-1.6s-7.2-.6-10.8-.6h-2c-1.5 0-3.1-.1-4.7 0l-6.5.4-7 .9c-2.8.3-5.6.8-8.3 1.3s-7.8 1.6-11.6 2.6l-6.1 1.6-7.4 2.4c-2.1.6-4.2 1.4-6.3 2.2l-4.6 1.7q-7.4 2.8-14.7 6l-22.8 10-8.6 3.4a83.1 83.1 0 0 1-9.6 3.2 117.8 117.8 0 0 1-11.8 2.5 86.2 86.2 0 0 1-19 .2 70.4 70.4 0 0 1-14.3-3.9c-6.8-3.1-13.1-7.3-19.5-11a84.4 84.4 0 0 0-8.9-4.7 107.3 107.3 0 0 0-11.8-4.7 79.6 79.6 0 0 0-11.8-2.4 39.1 39.1 0 0 0-4.8-.5 100.3 100.3 0 0 0-11-.3c-3.7.1-7.3.3-11 .7l-4.4.4-7.3 1-7.3 1.2-5.8 1.2c-3.8.8-7.6 1.7-11.4 2.8l-7.7 2.3c-1.9.5-3.9 1.3-5.8 1.9-4 1.3-8 2.8-11.9 4.3s-8.2 3.2-12.2 4.9l-12.9 5.6-22.9 9.9c-4.9 2.1-9.9 4.1-14.8 6l-6.4 2.4-7.8 2.9-8.7 2.9-6.9 1.9a135.1 135.1 0 0 1-17.6 3.9 86.7 86.7 0 0 1-21.6.1 84.1 84.1 0 0 1-11.1-2.3l-6-1.9c-2.7-.8-5.2-1.9-7.8-2.9a85.9 85.9 0 0 1-8.1-3.9c-1.6-.8-3.3-1.6-4.9-2.6l-5-3c-5.8-3.4-11.3-7.2-17-10.7-2.6-1.7-5.4-3.3-8.2-4.8s-2.8-1.6-4.3-2.3l-4.8-2.3a64.1 64.1 0 0 0-12.5-4.4 67.6 67.6 0 0 0-13.4-1.9 66.9 66.9 0 0 0-25 4.4l-7.1 2.7c-1.9.7-3.9 1.7-5.8 2.5s-3.4 1.5-5.1 2.4l-6.2 3c-3.4 1.9-6.9 3.7-10.2 5.7s-7.8 4.6-11.6 7.1c-1.8 1.1-3.6 2.2-5.3 3.4l-6.6 4.7-4.7 3.7-4.4 3.5a178.8 178.8 0 0 0-18.3 17.6 1.6 1.6 0 0 0 0 2.3 1.7 1.7 0 0 0 1.2.5 1.2 1.2 0 0 0 1-.5 106.5 106.5 0 0 1 9.6-9.4c3.3-2.9 6.7-5.6 10.1-8.2z"></path><path d="M892.3 960.3a7.3 7.3 0 0 0-3.4-2c-8.1-1.1-16-2.8-24-4.5-3.3-.7-6.7-1.4-10-2.4l-6-1.9-4.2-1.6c-4.1-1.8-8.2-3.7-12.4-5.4l-6.6-2.4a39.2 39.2 0 0 0-5.9-1.5 53.2 53.2 0 0 0-8.8-1.2 76 76 0 0 0-20.7 2.3c-3.9 1-7.8 2-11.7 3.2-2.1.7-4.3 1.3-6.4 2.1l-7.3 2.8c-1.9.6-3.7 1.5-5.5 2.2l-6.3 2.7-11.8 5.5-12.5 6.2-12.5 6.3c-3.4 1.7-6.8 3.2-10.3 4.8s-6.2 2.4-9.5 3.4-6.2 1.6-9.4 2.2a61.1 61.1 0 0 1-12.1-.1 151.6 151.6 0 0 1-18.8-4.6l-17.6-5.3c-5.7-1.7-11.4-3.1-17.2-4.4-2.9-.6-5.8-1-8.7-1.5l-6.4-.7-3-.3c-2.2-.1-4.4-.3-6.6-.3h-6.1c-2.2.1-4.5.1-6.7.4l-6.8.7a126.6 126.6 0 0 0-13.7 2.4l-6.1 1.3-5.6 1.5-6.9 2.2-6.7 2.5-5.6 2.3-6.3 2.6-22.8 10.2-7.2 2.8a72.4 72.4 0 0 1-15.2 4 54.5 54.5 0 0 1-9.9.1 41.3 41.3 0 0 1-9-2.4l-2.4-.9c-8.7-4-17.1-8.3-26-11.9-2.3-1-4.6-1.8-7-2.6l-6.8-2.2a125.6 125.6 0 0 0-13.5-3.1c-2.3-.5-4.7-.8-7-1.1s-5-.6-7.5-.8a76.1 76.1 0 0 0-13.5-.3 101.5 101.5 0 0 0-17.4 2.6 168.4 168.4 0 0 0-28.6 10.4l-5.6 2.6-6.9 3.5c-3.9 2-7.7 4.2-11.6 6.3-8.5 4.6-16.9 9.5-25.8 13.3a87.5 87.5 0 0 1-20 5.6 71.8 71.8 0 0 1-16.7.1c-12.7-1.9-24.8-6.6-36.6-11.5l-9.8-4.3-11.4-5-3.7-1.5-3.1-1.1c-2.2-.7-4.4-1.5-6.7-2.1a52 52 0 0 0-18-1.5 54.9 54.9 0 0 0-8.1 1.4 68.6 68.6 0 0 0-8 2.8c-4.2 1.7-8.3 3.8-12.3 5.8-1.9 1-3.8 2.3-5.7 3.4a58 58 0 0 0-5.2 3.4 99.3 99.3 0 0 0-9.7 7.4l-5.1 4.5-4.5 4.7-2 2.4a24 24 0 0 0-1.8 2.6c-.9 1.5-1.8 3.3-1.3 5.1a2.6 2.6 0 0 0 2 2h1.6l.6-.2a2 2 0 0 0 .7-2.7l.7-.9a87 87 0 0 1 10.9-10.1c1.9-1.5 3.9-2.9 5.9-4.3l4.6-3a33.7 33.7 0 0 1 3.2-1.9l3.4-1.9 4.7-2.4c2.1-1.1 4.2-2 6.4-2.9l4.9-1.9a68.5 68.5 0 0 1 11-2.9 57.8 57.8 0 0 1 11-.1 52.5 52.5 0 0 1 8.7 2.1l4.3 1.4 5.2 2.1c8.7 3.9 17.3 8.1 26.1 12 4.2 1.9 8.5 3.6 12.7 5.3s8.2 2.9 12.4 4.2a84.7 84.7 0 0 0 15.8 3 78.6 78.6 0 0 0 16.1-.4 87.4 87.4 0 0 0 18.2-4.2c4.3-1.6 8.6-3.3 12.7-5.3l12.1-6.1 12.4-6.4c4-2.1 8.1-4.1 12.2-6.1s6.2-2.9 9.4-4.2 6.8-2.7 10.3-3.9l6.7-2.1a118.1 118.1 0 0 1 13.4-2.9 82.6 82.6 0 0 1 16.5-.4l6.6.7 7.9 1.3 4.9 1 5.4 1.4a129 129 0 0 1 15.8 5.6c6 2.7 11.8 5.6 17.7 8.5l4.6 2.1 4 1.7 3.8 1.4a50 50 0 0 0 14.4 2.5 57.9 57.9 0 0 0 7.2-.4 72.2 72.2 0 0 0 7.9-1.3c9.8-2.2 18.9-6.2 28-10.1l17.1-7.7c3.2-1.3 6.3-2.6 9.6-3.8s3.5-1.4 5.4-2l6.6-2.1 5.9-1.6 5.3-1.3 5.4-1 5.4-1c2.1-.2 4.2-.5 6.4-.6s6-.4 9-.4h4.1l5.3.3c2 .1 4 .4 5.9.6l8.6 1.6c3.3.7 6.5 1.6 9.8 2.4 5.9 1.5 11.7 3.5 17.5 5.4 8.8 2.8 17.6 5.7 26.7 7.1a50.5 50.5 0 0 0 10.3.7 74.5 74.5 0 0 0 9.5-.9 75.9 75.9 0 0 0 16.3-4.6l10.2-4.4 5.3-2.5 23.5-12 12.6-6.1c3.3-1.6 6.6-3 10-4.5 5.2-2.1 10.5-4.2 15.9-5.9a125 125 0 0 1 18.9-4.9 49.7 49.7 0 0 1 10.2-.1 71.9 71.9 0 0 1 8 2l3.5 1.2 5.8 2.8 6.6 3.6c2.9 1.4 5.7 2.7 8.7 3.8l3.8 1.4 4 1.2a86.1 86.1 0 0 0 14.1 2.9c5.9.9 11.9 1.6 17.9 2.3a7.7 7.7 0 0 0 5.4-13.2z"></path></g><path d="M519.5 617.4c-1.1-6-3.6-11.5-5.8-16.5a40.2 40.2 0 0 0-3.9-6.6 88.2 88.2 0 0 0-6.1-7.6 84.4 84.4 0 0 0-12.1-11.2 145.3 145.3 0 0 0-13.6-9.6c-4.9-3-9.7-5.8-14.5-8.2l-14.7-7.9a220 220 0 0 1-26.6-17.8l-.4-.3-.8-.6c-6.3-5-12.5-10.2-18.6-15.3l-6.5-5.5-4.7-3.9c-7-5.9-14.3-11.9-21.3-17.9-19.5-16.7-34.1-31.4-46.2-46.1-5-6.7-9.8-13.6-14.3-20-6.5-9.5-13.3-18.7-20.2-27.4-3.4-4.2-6.9-8.2-10.4-12a157.9 157.9 0 0 0-11.4-11 135.3 135.3 0 0 0-14.3-11.2l-1.3-.8-2.6-1.8a66.4 66.4 0 0 0-11-5.5l-1.2-.5-6.1-2.3-1.3-.5-2.7-.9-4.6-1.2a65.6 65.6 0 0 0-7.4-1.8l-8.3-1.5-5.5-.8h-1.4a12.4 12.4 0 0 0-2.7-.3l-1.4-.2h-7.8a53.9 53.9 0 0 0-15 2c-3.1.9-6 2.1-8.5 3.1a39.6 39.6 0 0 0-4.7 2.1l-1.3.6-2.4 1.1-1.1.6-6.1 3.5-.9.6-2.4 1.4a4.1 4.1 0 0 1-1.1.7l-2.2 1.5-2 1.5-1.9 1.4-3.6 3-.5.5-2.6 2.3-1.1 1.1-2 1.9-.7.8c-1.6 1.7-3.2 3.4-4.7 5.2l-5.9 7.1c-3.8 4.8-7.4 9.5-10.5 14.1s-6.8 9.9-9.4 14.1-5.7 9.5-8.2 14.2-4.3 8.2-6.3 12.3l-1.3 2.7c-1.3 2.6-2.6 5.1-3.8 7.7l-2.9 5.9-8.4 16.9-6.1 12.4-3.2 6.1L45.3 515c-2.5 5.3-4.7 10-6.6 14.4l-.8 1.7c-1 2.3-2 4.6-2.9 6.9s-1.9 5.3-3 8.3c-1.8 5-3.2 10.1-4.9 15.7s-2.8 10.1-4.1 15.1c-1.6 6.5-3.2 13-4.7 19.4l-3 12.4-.6 2.5-3.3 13-1.7 6.1L7 640.7c-1.2 4.6-2.6 10-3.8 15.6S1.1 667.6.4 673.6a50 50 0 0 0-.3 8 52.7 52.7 0 0 0 1.2 9 54.9 54.9 0 0 0 2.8 8.4 43.4 43.4 0 0 0 5.1 8.6 37.6 37.6 0 0 0 11.7 9.3 65.1 65.1 0 0 0 8.2 3.8 69.6 69.6 0 0 0 7.7 2.5l8.2 1.5c10.5 1.8 21.2 2.5 32.1 3.1 7.2.4 14.7.8 22.2.8 3.5 0 6.8-.1 10.1-.3 7.8-.4 15.7-1 23.4-1.5l9.2-.6c11.4-.8 22.6-1.9 32-2.9l10.2-1.1c7.6-.8 15.4-1.7 23.1-2.3l12.8-.9c6.3-.5 12.8-.9 19.2-1.6 11.8-1.3 23.8-2.9 35.2-4.5s22.2-3.2 32.4-4.9c8.2-1.3 15.4-2.5 21.9-3.7l7.9-.3 19.4-1 20.2-1.5 12-1 19.4-1.2 13.7-.7c13.9-.9 24.5-2 34.4-3.4 3.1-.4 5.6-.9 7.9-1.4l1.7-.4c2-.4 4.1-.8 6.1-1.4l7.7-2.2c4.7-1.6 8.9-3 12.7-5.4a61 61 0 0 0 10.2-8c2.2-2.2 4.2-4.4 5.8-6.3a52.6 52.6 0 0 0 5.3-7.4 43.2 43.2 0 0 0 4.4-11.5 73.2 73.2 0 0 0 1.5-7.9c.5-3.3.9-6 1.1-8.5a58.6 58.6 0 0 0 .2-8.4 65.3 65.3 0 0 0-.9-9z" fill="#c76b4f"></path><path d="M643.1 259.4v2.9a3 3 0 0 1 .4 1c-.1-1.3-.3-2.6-.4-3.9zm34.6 418.1h-.9a7.9 7.9 0 0 1-4.2-3.8c-.6-1.1-1.2-2.5-1.8-3.9a13.4 13.4 0 0 1-.7-1.8c-.7-2.1-1.3-4.2-2-6.9s-1.5-5.6-2-8.2-1.2-6.8-1.6-9.9c-1.1-7-2.1-14.1-3-21v-1.2c-.9-6.3-1.8-13.2-2.7-20-1.3-10.5-2.8-21.2-4.1-31.5l-1.3-9.4c-1.6-11.9-3.2-24.9-4.9-40.7-1.5-13.4-2.7-26.8-3.9-39.8v-.6c-1.2-13.3-2.4-27.1-3.4-40.8-.5-6.4-.7-12.7-1-20.2v-1.6l-.6-18.7v-7.2l-.2-2c-.4-6.4-.7-13.1-1-19.5l-.2-2.9-.9-19.9c-.7-15.7-1.2-30.2-1.7-44.1-.2-5.7-.4-11.8-.5-19.8v-1.3c-.2-3.4-.4-6.9-.4-10.4a14.9 14.9 0 0 1 .2-2.1c-.3-13-.2-26 .1-38.9.1-6 .4-12.1.6-18v-2.1c.1-2.5.3-4.7.5-6.8l.3-2.4c.6-3.7 2-7.5 3.9-7.8h.7a3.1 3.1 0 0 1 2.1 1.7 9.1 9.1 0 0 1 1.6 4c.3 1.3.5 2.7.7 4.1v.9l.6 5.2c1 8.3 1.9 16.7 2.7 24.9.6 5.2 1.1 10.5 1.7 15.7l4.5 41.1c1.4 12.6 3 27.5 4.3 42.2s2.4 26.9 3.6 40.1v1.9c.7 7.4 1.3 14.9 1.9 22.3 1.7 20.1 3.5 40.8 5.5 61.1 1.4 15.1 2.8 28.8 4 42.9s2.3 26.2 3.4 38.9l.2 3.4c2.3 27.1 4.6 54.6 6.8 82 .6 7.9 1 15.1 1.1 22 .1 2.7.1 6.2-.1 9.6-.4 5.3-.8 9.5-1.9 13.3a24.8 24.8 0 0 1-1.3 3.5 15 15 0 0 1-1.9 3.1l-.3.2a2.8 2.8 0 0 1-1.6 1.1 2 2 0 0 1-.9 0z" fill="#c76b4f"></path><g fill="#82aed9"><path d="M668.8 101.5a184.5 184.5 0 0 1 9.3-16c5-7.3 10.6-14.3 16.2-21.2a249.9 249.9 0 0 1 18-20.4c3.4-3.4 6.7-6.7 10.3-9.8a98.6 98.6 0 0 1 10.3-7.7l8.6-6.3c-4-.3-8-.7-12.1-.8a85.5 85.5 0 0 0-12.4.1c-3.2.4-6.5 1-9.7 1.7a73.2 73.2 0 0 0-17.7 6.3C676.9 34 666 42.9 658.3 54.2c-3 4.5-6 8.9-8.6 13.5l-4.6 8.3c-2.3 4.1-4.2 8.4-6.2 12.7a79.7 79.7 0 0 0-5.2 13.3 108.1 108.1 0 0 0-3.9 21.9c-.3 8.6.6 17.1 1.5 25.7.6 4.6 1.1 9.3 1.9 13.9a129 129 0 0 0 4.4 17.3c1-3.4 1.8-6.9 3.1-10.2l3.3-8.8c2.8-7.4 4.9-15.1 7.7-22.6a335.4 335.4 0 0 1 17.1-37.7z"></path><path d="M817.5 115.7a53 53 0 0 0-13.2-1.6 124.5 124.5 0 0 0-18.3 1.7q-10.2 1.4-20.1 3.6c-4.8 1-9.5 2.1-14.2 3.5s-10.6 3.2-15.9 4.9c-8.4 2.7-16.9 5.5-25.2 8.4-10.4 3.6-20.8 7.2-30.6 11.9s-21.5 11.5-28.6 20.8a20.9 20.9 0 0 0-2.7 3.9 10.8 10.8 0 0 0-1.3 2.9c-.4 1.2-.8 2.8 0 4.1s2.5 1.6 4.1 1.6h-.8l-1.5-.5-.7-.4-.7-.9a4.4 4.4 0 0 0-.2-1c.1-.4.1-.8.2-1.2a10.1 10.1 0 0 1 1.2-2.4 32.7 32.7 0 0 1 8.3-7.4c6.4-4 13.6-6.4 21-8.4 5.1-1.4 10.2-2.5 15.3-3.7s9.3-2.4 13.9-3.6l16-3.9c9.3-2.3 18.6-4.3 27.8-6.6s17.6-4.5 26.3-7.2c4.7-1.4 9.3-2.9 14-4.6 8.4-3 16.6-6.7 25.4-8.6a29.4 29.4 0 0 1 7.8-.6 10.2 10.2 0 0 1 2.5.6 19.1 19.1 0 0 0-9.8-5.3z"></path><path d="M770.3 179.2c-4.5-.7-8.9-1.8-13.2-2.9s-10.3-2.5-15.5-3.4a100.9 100.9 0 0 0-16.5-1.1 95.9 95.9 0 0 0-14.2 1c-10.3 1.6-20 4.7-29.8 7.8l-7.5 2.4c-2.3.7-4.7 1.3-7 2.2a34.5 34.5 0 0 0-6.3 2.5 18.2 18.2 0 0 0-2.3 1.5 3 3 0 0 0-1 2.8 9.8 9.8 0 0 0 1.6 4.1 7 7 0 0 0 3.2 2.4l-1.5-.9-.7-.7-.6-1-.5-1.2a4.7 4.7 0 0 1-.3-1.7v-.7c.1-.1.1-.3.2-.4l.3-.3 1.3-.4c6.3-1.1 13-.1 19.5 0s11 .1 16.6-.1c9.9-.2 19.8-.3 29.7-1.1l13.3-.9c4.8-.3 9.6-.6 14.4-1.1a60.9 60.9 0 0 0 12.7-2.6 35.2 35.2 0 0 0 10-5.2z"></path><path d="M684.2 246.2c-6.5-4.8-12-10.6-18.1-15.8s-11.6-9.4-17.1-14.5l-.5-.7a.4.4 0 0 1 .1-.3h1l-1.1-.4h-.2c-.3.9.5 1.7 1.1 2.5s2.3 3.2 3.5 4.7 2.9 3.9 4.3 5.8c2.5 3.4 5 6.9 7.7 10.2a61.5 61.5 0 0 0 10.7 10.3c4.8 3.6 10.7 5.2 16.7 5.6h-.1l1.5.3c-2.3-3.1-6.2-5.4-9.5-7.7z"></path><path d="M650.2 215z"></path><path d="M649.6 215z"></path><path d="M493.2 82.2h1a33.3 33.3 0 0 1 6.3 2.1 142.8 142.8 0 0 1 23 11.9c3.2 2 6.4 3.9 9.4 6l9.6 6.2c3.2 2.3 6.6 4.5 9.9 6.7 6.1 3.8 12.2 7.5 18.5 11.1 8.4 4.8 16.9 9.6 24.8 15.2a81.8 81.8 0 0 1 10.9 9.4 80.2 80.2 0 0 1 8.3 11.1 52.3 52.3 0 0 1 3.5 7.6c.5 1.3.9 2.6 1.3 4l.3.8a6.5 6.5 0 0 1 .4 1.9v.4l-.2-.2a.2.2 0 0 0-.2-.2v-.3h-.1l.6.8h.1c.3-1.1-.2-2.1-.4-3.2s-.7-3.5-1.2-5.3a73.2 73.2 0 0 0-6.6-15.9 81.6 81.6 0 0 0-9.4-14 116.5 116.5 0 0 0-13.6-13.6c-2-1.8-4.2-3.4-6.3-5-8-6.1-16.2-12-24.5-17.7-3.8-2.6-7.7-5-11.6-7.4s-7.8-4.3-11.8-6.3c-2.2-1.1-4.6-2-6.9-2.9a58.2 58.2 0 0 0-8.3-2.9 61.7 61.7 0 0 0-18.2-2.7l-4.1.2a14.7 14.7 0 0 0-2.9.5 6.6 6.6 0 0 0-1.9.9 10.1 10.1 0 0 0-.9 1.3z"></path><path d="M613.4 191.8z"></path><path d="M569.7 184.4a83.4 83.4 0 0 1 22.9-1.3 53.4 53.4 0 0 1 11.8 2.8 34.5 34.5 0 0 1 5.4 2.8 21.7 21.7 0 0 1 3.6 3.1 14.4 14.4 0 0 1 1.8 2.5 28.8 28.8 0 0 1 1.3 3.1 14.6 14.6 0 0 0-2.1-5.2 25.5 25.5 0 0 0-6.8-6.7 54.7 54.7 0 0 0-11.9-5.8 77.3 77.3 0 0 0-13.6-3.4 91 91 0 0 0-29 .1 122.2 122.2 0 0 0-14.8 3.4 115.8 115.8 0 0 0-13.2 5 186.1 186.1 0 0 0-23.9 13.5 72.1 72.1 0 0 0-8.8 6.6 53 53 0 0 0-5.3 5.3 27.5 27.5 0 0 0-3.6 5.3 31.6 31.6 0 0 0-2.4 9.5c1-1.2 1.9-2.5 2.9-3.6a20.5 20.5 0 0 1 4.2-3.6 86.1 86.1 0 0 1 12.2-6l6.3-2.8c3.6-1.4 7-3.1 10.6-4.6 7-3.1 13.9-6.6 21-9.6 5.3-2.3 10.7-4.6 16.3-6.4s10-2.9 15.1-4z"></path><path d="M630.2 215.2l-.8-.4h-.3a3.9 3.9 0 0 1 1.1.6z"></path><path d="M612 215a84.9 84.9 0 0 0-19 8.3c-6.2 3.6-12.5 7.1-18.3 11.2l-5.4 4a25.8 25.8 0 0 0-4.8 4.5 75.9 75.9 0 0 0-6.6 10.4c-1.8 3.6-3.4 7.2-5 10.9s-3.5 7.5-4.9 11.3c-.8 2.1-1.4 4.4-2.1 6.5a16.1 16.1 0 0 0-1.4 6.4c.2 3.4.6 6.7 1.1 10s1.2 7.5 1.9 11.2h.1c.8-2.6 1.5-5.2 2.2-7.8s1.2-6.4 2-9.6a28 28 0 0 1 2.2-5.7l2.7-4.6 5.4-9.1c3.7-6.2 7-12.6 10.9-18.7a9.9 9.9 0 0 0 1.1-1.7c2.1-2.8 4.5-5.5 6.8-8.2s2.3-2.7 3.5-3.9 3.6-3.9 5.6-5.6l5.7-5.3a90.9 90.9 0 0 1 10.5-8 48.2 48.2 0 0 1 8.4-4.5 54.1 54.1 0 0 1 8.1-2.4 26.3 26.3 0 0 1 4.9-.3l1.5.4a10.7 10.7 0 0 0-5.3-1.3A47.2 47.2 0 0 0 612 215z"></path><path d="M542.3 46.3a42 42 0 0 1 9.3 2.2 40.6 40.6 0 0 1 7.4 4 77.8 77.8 0 0 1 10.8 9.9c5 5.6 9.5 11.5 14.1 17.4 1.4 1.8 2.9 3.6 4.2 5.5 3.4 4.7 6.6 9.4 9.6 14.3a134.3 134.3 0 0 1 6.8 13.7c.8 2 1.6 4 2.3 6.1l3.8 10.2c1 2.8 2.1 5.6 3.2 8.4a57.1 57.1 0 0 0 3 6.7 15.3 15.3 0 0 0 1.6 2.5 4.7 4.7 0 0 0 1.2.9l-.9-1.1a11.2 11.2 0 0 1-1.1-2.5 119.9 119.9 0 0 1-3-13.2c-.6-3-1.1-6.1-1.7-9.2-1.3-6.8-2.6-13.6-5-20.1a112.1 112.1 0 0 0-12.2-24.5l-8-11.7a119.6 119.6 0 0 0-7.9-9.7 72.3 72.3 0 0 0-11.4-10.7 36.1 36.1 0 0 0-7.2-4.5 40.1 40.1 0 0 0-6.5-2.6 31.4 31.4 0 0 0-14.2-.4c-6.9 1.3-13 5.2-18.8 8.8-.1 0 0 .1 0 .1 6.8-.4 13.7-1 20.6-.5z"></path><path d="M713.9 89.5a48.8 48.8 0 0 0-11.7 5.7c-8.5 5.7-15.2 13.3-21 21.3-3.9 5.3-7.7 10.7-11.7 15.9l-5.8 7.4c-1.6 1.9-3.2 3.7-4.7 5.7a42.5 42.5 0 0 0-3.1 4.3 9 9 0 0 0-1.6 4.1 7.5 7.5 0 0 1 1-2c2.7-3.7 6.4-6.6 9.7-9.7 1.7-1.5 3.4-3 5-4.6l9.7-9.8 4.2-4.4c1.4-1.6 2.8-3.2 4.4-4.7s3.8-3.6 5.7-5.4a65 65 0 0 1 6.9-5.9c2.2-1.8 4.4-3.5 6.8-5.1a83.6 83.6 0 0 1 10.6-5.8c3.9-1.7 8-3.3 12-4.9s7.1-2.8 10.5-4.4c-4.8-.1-9.5-.1-14.2.2a54.4 54.4 0 0 0-12.7 2.1z"></path><path d="M747 221.9c-4.4-.1-8.8-.4-13.2-.4l-11.5-.3c-8.6-.2-17.3-.2-25.8-1.1a88.7 88.7 0 0 1-19.8-4.4 28.7 28.7 0 0 1-3.9-2l-2.5-2.2a24.3 24.3 0 0 1-1.4-2 15.1 15.1 0 0 1-1.1-2.2 4.7 4.7 0 0 0-.5-1 .2.2 0 0 0-.2-.2h.2c1.2 3.1 2.5 6 5 8.4a40.1 40.1 0 0 0 8.4 5.7c4.2 2.2 8.5 4.1 12.8 6a76.4 76.4 0 0 0 21.1 6.1 113.4 113.4 0 0 0 13 .8l4.8-.3 3.4-.4a82.9 82.9 0 0 0 9.9-2.1 44.9 44.9 0 0 0 16.2-8.1c.1 0 0-.1 0-.1-4.9.1-9.9-.2-14.9-.2z"></path></g><path d="M230.1 189.7h-7.5a68.3 68.3 0 0 1-19.6-3.4 83.2 83.2 0 0 1-10.1-4.4l-2.1-1.1a111.2 111.2 0 0 1-14.6-8.4 51.8 51.8 0 0 1-6.7-5.7l-.9-.8c-1.4-1.3-2.7-2.7-3.9-4l-.7-.7c-1.2-1.2-2.2-2.4-3.3-3.6l-.9-1.1a72.6 72.6 0 0 1-8.6-11.5c-4.3-7.5-5.6-15.9-6.8-24l-.5-2.9c-.7-4.6-1.2-8.7-1.4-12.6a55.2 55.2 0 0 1-.2-5.8 73.6 73.6 0 0 1 1.3-12.5c.5-1.9 1.1-3.9 1.7-5.8l.6-1.7.9-2.8 1.1-3.6c3.5-10.9 7.6-18.9 13-25.4a122.1 122.1 0 0 1 10.1-11 73.7 73.7 0 0 1 6.1-5l1.5-1.3 9.6-7.4c3.9-2.8 7.7-5.5 11.9-8.1 1.7-1.1 3.5-2.1 5.2-3l.5-.3 4.7-2.3 1.1-.5 1.2-.6 2.4-1.1c2.8-1.2 5.8-2.4 8.8-3.4a75.3 75.3 0 0 1 14.9-2.6C244.2.7 250.5.1 256.8 0h7.1a77.4 77.4 0 0 1 18.4 3.2c7.7 2 15.4 6.2 23.7 12.5a100.9 100.9 0 0 1 12.5 11.1A73.1 73.1 0 0 1 328 40a63.7 63.7 0 0 1 4.5 9.7 49.3 49.3 0 0 1 2.3 10.1l.2 1.4a49.3 49.3 0 0 1 .7 6.6l.2 2a64.5 64.5 0 0 1-.3 15.2l-.6 3.3a55.6 55.6 0 0 1 0 16.3 69.6 69.6 0 0 1-3 11.5c-1.6 5-3.7 10-5.6 14.4l-1.1 3.2-2.1 5.6v.3a90 90 0 0 1-4 9.1 49.4 49.4 0 0 1-3.2 5.1 60.7 60.7 0 0 1-11.5 12.5 72.6 72.6 0 0 1-10 6.7c-8.5 5-18.1 8.6-27.1 11.8a67 67 0 0 1-13.6 3c-5.6.7-11.5 1.4-17.5 1.7z" fill="#f2e5c8"></path></g></g></svg>