<svg xmlns="http://www.w3.org/2000/svg" width="910" height="759.9" viewBox="-0.027369022369384766 0.011096954345703125 909.9609375 759.888916015625" style=""><g><title>event14_255316312</title><g data-name="Layer 2"><path d="M885.4 522.8c-12 29.5-29 56.6-49.7 81a384.1 384.1 0 0 1-74.1 66.6c-52.2 36.4-113.9 62.3-176.7 76.5C351.6 799.5 131 664 149.1 574.8c23.2-114.4 67.7-134.7 1.2-226.9s14.1-191.4 87.3-245c6-4.3 11.9-8.5 17.9-12.3C362 21.1 469 24.7 534.6 32.2c100.1 11.2 92.1 71.8 151.3 113.3 80.8 56.4 200.1 30.9 221.9 217.4 6.5 56-2.1 110.3-22.4 159.9z" fill="#c5c7dc"></path><path d="M885.4 522.8c-.3-.7-1-1.2-1.1-2-25.5-131.3-170.2-206.7-303.1-135.6s-242.5 46.5-224.6 7c68.1-150.3-44.1-109.3-87.4-168.9-23.4-32.2-20.7-91.3-13.7-132.7C362 21.1 469 24.7 534.6 32.2c100.1 11.3 92.1 71.8 151.3 113.2 80.8 56.5 200.1 31 221.9 217.5 6.5 56-2.1 110.3-22.4 159.9z" fill="#c5c7dc"></path><path d="M831.2 503.3a107.5 107.5 0 0 0-11.7-7.6c-66.7-37.6-87.3-97.2-92.9-140.5 11.2-68.7 43.6-103.1 51.1-116.2 1.2-2 4-3.2 5.7-1.6 138.5 132.6 6 218.3 47.8 265.9z" fill="#fdd5b7"></path><g fill="#fff"><path d="M765.8 453.4l-1-.2a2.7 2.7 0 0 1-1.6-3.5c4.7-12.7 8.9-25.6 12.5-38.4a438.9 438.9 0 0 0 12.4-60.9 333.8 333.8 0 0 0 2.6-48.4 275.2 275.2 0 0 0-2.6-31.2 215.8 215.8 0 0 0-7.3-32.6 2.8 2.8 0 0 1 1.8-3.4 2.6 2.6 0 0 1 3.4 1.8 203.5 203.5 0 0 1 7.4 33.4 265.2 265.2 0 0 1 2.7 31.9 330.8 330.8 0 0 1-2.6 49.2 432.1 432.1 0 0 1-12.6 61.6c-3.6 13-7.8 26.1-12.6 38.9a2.7 2.7 0 0 1-2.5 1.8z"></path><path d="M778.3 414.7a2.7 2.7 0 0 1-1.7-.6c-1.5-1.2-35.6-29.6-45.9-88.9a2.7 2.7 0 0 1 2.3-3.1 2.7 2.7 0 0 1 3.1 2.2c9.9 57.3 43.6 85.3 43.9 85.6a2.7 2.7 0 0 1 .4 3.8 2.5 2.5 0 0 1-2.1 1z"></path><path d="M779.4 468.4a2.6 2.6 0 0 1-2.1-1.1 2.8 2.8 0 0 1 .4-3.8c14.4-11.6 41.6-34.5 62.3-57.2a2.8 2.8 0 0 1 3.9-.2 2.7 2.7 0 0 1 .1 3.9c-20.9 23-48.4 46-62.9 57.8a2.7 2.7 0 0 1-1.7.6z"></path><path d="M790.8 353.4a2.7 2.7 0 0 1-2.7-2.7 2.4 2.4 0 0 1 .7-1.8l.4-.4c.2-.2 18.9-14.2 35.5-58.4a2.6 2.6 0 0 1 3.5-1.6 2.7 2.7 0 0 1 1.6 3.5c-16.2 43.3-34.6 58.7-37.1 60.7a3.2 3.2 0 0 1-1.9.7z"></path><path d="M793.4 304.7l-1-.2c-.8-.3-20.3-8.2-32.3-42.6a2.7 2.7 0 0 1 1.7-3.4 2.7 2.7 0 0 1 3.5 1.6c11 31.8 28.9 39.2 29.1 39.3a2.8 2.8 0 0 1-1 5.3z"></path><path d="M790.8 273.1a2.8 2.8 0 0 1-2.3-1.3 2.6 2.6 0 0 1 .8-3.7s4.6-3.4 6.6-15.6a2.7 2.7 0 0 1 3.1-2.3 2.8 2.8 0 0 1 2.3 3.1c-2.4 14.7-8.4 18.9-9.1 19.4a3.3 3.3 0 0 1-1.4.4z"></path></g><path d="M835.7 603.8a384.1 384.1 0 0 1-74.1 66.6c-6.8-29-24.7-111.1-36.8-227-3.5-34.2-2.3-63.5 1.8-88.1 3.7 28.3 13.8 63.7 39.2 95.3a185.4 185.4 0 0 0 53.8 45.1 105.9 105.9 0 0 1 11.6 7.6c37 28 27.8 65.9 4.5 100.5z" fill="#fdcda9"></path><path d="M123.7 539.3c.5-2.8-2.2-4.5-4.1-2.2-23.2 27.6-30.9 66.7-2.2 113.6 17 27.8 49.2 56.1 88.8 67.5 4.3 1.2 6-4.2 2.4-6.9-34.6-27-97.8-88.6-84.9-172z" fill="#fff6ef"></path><path d="M548.7 18c33.9-1.7 79.3 10 105.1 73.8 1.7 4 7.9 3.6 7.2 0-3.8-19.7-7.8-51.5-40.4-75C585.9-8.2 542.3 0 540 7.9c-1.7 5.9 4 10.3 8.7 10.1z" fill="#fff9f5"></path><path d="M406.4 455.4c-3.8-22.9-15.9-36.7-34-39-41.1-5.2-59.9 19.8-72.3 36.4-5.1 6.9-9.6 12.8-13.2 13.1q-2.2.2-5.1-2.7c-11.6-11.7-.4-27.9 12.6-46.6 6.7-9.7 13.7-19.7 17.5-29.6 7.2-18.9 7.9-60.6-9.9-86.4-8.9-12.9-21.5-19.8-36.5-19.8h-.1c-30.9 0-35.7 26.6-39.8 50.1-2.9 16.1-5.5 31.3-15.4 38.3-5.1 3.7-9.1 4.9-11.7 3.6-7.2-3.7-7.3-25.9-7.4-42.1 0-3.6 0-7-.1-10.2-1-41.3-36.6-76.7-105.8-105.3-15-6.1-29.7-4.1-42.5 5.8C19 239.5 6.8 282.4 13 325.3c7.9 54.6 23.4 62.3 42.9 71.9 11.7 5.8 24.9 12.3 39.5 30.5a131.4 131.4 0 0 1-13.1-2.4c-24.6-5.2-70.4-14.8-79.8 20.8-4.3 16.2-3.1 30 3.5 41 13 21.5 44.7 28.9 72.7 35.4 20.5 4.7 39.8 9.2 47.1 18.2 9.4 11.5 12.4 22 8.5 29.6s-12.8 10.7-23.7 10a99.8 99.8 0 0 1-12.5-2.4c-16-3.8-37.9-8.9-47 1.8-5.7 6.6-5.3 17.5 1.2 33.5 20.8 51.5 78 64.4 130.2 64.4 50 0 95.2-11.8 99-12.8l.5-.2c91.3-45.4 134-152.5 124.4-209.2zM57.3 611.2c-5.5-13.7-6.2-23.2-2.1-28s7.9-4.4 14-4.4c8.7 0 19.5 2.5 27.7 4.4a126.6 126.6 0 0 0 13.4 2.6c13.2.8 24.2-4.1 28.9-13 2.8-5.6 5.4-17.5-9.1-35.5-8.6-10.5-27.8-15-50.1-20.2-27-6.2-57.5-13.3-69.3-32.9-5.9-9.7-6.9-21.7-2.9-36.7 8-30.6 48.9-22 73.3-16.9 12.5 2.7 18.2 3.9 20.3.5s-.7-5.5-1.5-6.6c-15.5-19.3-29.3-26.1-41.6-32.1-18.8-9.4-32.4-16.1-39.9-67.9-6-41 5.4-81.8 27.7-99.2l3.8-2.6v.4c4.8 23.2 16 77.7 61.1 126.8l12 13c42.6 45.5 79.3 84.9 95.1 190.1 10.2 68 29.2 94.7 43.3 105.1a40.7 40.7 0 0 0 7 4.1c-40.8 8.7-177.9 31.2-211.1-51zM280 659.5c-4 .1-40.5-1.7-56.4-107.3s-53.3-146.8-96.5-193l-12-13C71 298.2 60 244.8 55.3 222l-.4-1.9c8.9-3.9 18.5-3.8 28.2.2 66.1 27.2 101.6 61.9 102.5 100.4 0 3.1.1 6.5.1 10 .1 20.5.2 41.7 10.3 46.9 4.7 2.4 10.3 1.1 17.4-3.9 11.6-8.4 14.6-25.4 17.5-41.8 4.2-23.5 8.1-45.7 34.5-45.7h.1c13.3 0 24 5.9 32 17.5 16.1 23.4 16.2 63.1 9.3 81.4-3.6 9.2-10.3 19-16.9 28.4-13.2 19-26.8 38.6-11.9 53.5 3 3.1 6.1 4.5 9.2 4.3 6.2-.4 11.1-7 17.3-15.3 12.3-16.5 29.3-39.1 67.2-34.2 19.9 2.5 26.9 20.1 29.4 34.5 9.2 55-32.3 158.7-121.1 203.2z" fill="#313781"></path><path d="M281.7 538.3c-2.9-3.4-9.9-3.1-30.4 18.8-16.2 17.4-19.4 34.4-20 40.7a186.3 186.3 0 0 1-26.2-30.9c6.4-.2 18.7-7.6 29.6-17.2 14.1-12.5 26-35.5 23.6-39.2s-24 8.1-34.5 17.7c-8.7 7.9-21.4 22.5-23.1 31.9a169.6 169.6 0 0 1-17.8-39.6c3.2 0 10.5-1.7 27.4-9.4 28.5-13 46.7-40 42.5-44.2s-20.4-3.5-44.1 13.3c-20.3 14.5-26.1 26.7-27.7 33.6a175 175 0 0 1-5.5-46.1c5.4-.4 21.6-2.4 36.4-12.3 18.2-12.1 36.7-29.5 33.4-35.8s-56.4 14-69.6 42.4a206.9 206.9 0 0 1 3-27.3 1.6 1.6 0 0 0-.2-1.2c5.1-2.8 16.2-12.5 24-34.9 9.3-26.4 7.9-46.7 2.2-47.7s-18.8 16.5-27.1 37.7c-7.1 18.1-4.3 39.1-2.1 44.4a3.1 3.1 0 0 0-.5 1c-1.2 6.7-2 13.2-2.6 19.6-1.5-8-5.5-18.4-10.1-28.6-6.1-13.7-31.3-38.6-35.8-36.2s-.4 24.8 12.9 46.5c11.6 18.7 28.2 24.1 32.6 25.3a181.3 181.3 0 0 0 1.7 36.6c-16.1-28.3-67.9-52.8-70.9-50s6.3 22 26.1 41.3 41.8 23.2 47.8 23.8a172.9 172.9 0 0 0 16.9 43.1c-6.3-4.3-20.9-13.7-37.9-19.4-22.7-7.5-34.4-7.6-38.7-1.5s13.3 21.2 37.6 25.6c20.1 3.7 37.6 2.9 41.5-.2a191.6 191.6 0 0 0 29.7 37.9c-6.7-1.7-42.7-9.9-57.6 4.7-10.3 10.2 34 11.3 50.3 3.9 4.8-2.2 8.5-4.6 9.7-6.3 13.2 12.7 23.7 19.1 24 19.3a2.7 2.7 0 0 0 1.2.3 2 2 0 0 0 1.5-.9 1.9 1.9 0 0 0-.7-2.6 150.8 150.8 0 0 1-19.9-15.6c5.2-1.7 14.6-11 25.5-24 13.7-16.3 24.8-34.9 21.9-38.3z" fill="#fdcda9"></path><path d="M372.3 625.4a230.5 230.5 0 0 1-34.1 19.1c-5.8-6.2-35.7 13.9-51 17.4.2-6.7-1.9-31.8-20.8-43.5-21.6-13.6-28.4-12.9-28.7-5.3s7 22.4 20.6 35.2c9.6 8.9 16.4 13.6 22.1 15.1a228.9 228.9 0 0 1-53.8 4.3c3.1-4.8 9.2-18.5-3.2-36.9-15.4-23.2-23.5-29.4-28.4-28.1s-6.1 12.8 3.7 35.1c6.9 15.9 14.1 25.3 20.1 29.4a193.4 193.4 0 0 1-62.4-15.6h.1c0 .1 11.8-10.9 15.5-32.2s.2-38.5-6.2-38.3-12.6 20.9-15.5 39.3c-1.8 12-2.3 23 0 28.4a191.1 191.1 0 0 1-38.1-24.8 64.1 64.1 0 0 0 15.6-41.7c.1-28-1.1-28.9-6.4-29.1s-13.6 17.5-17.5 34.4c-2.5 11.1-2.3 21.5.3 29.2a199.5 199.5 0 0 1-14.3-14.7l-.3-.2c1.8-6.5-1.9-16-12.9-38-12.3-24.7-23.6-35.8-27.2-33.2s-7.1 8.9 2.9 36.1c7.9 21.7 25.8 32.7 33.2 36a2.1 2.1 0 0 0 .1 2.3 223.3 223.3 0 0 0 16.5 17.1c-6.8-3.4-24.5-10.2-50.7-10.8-33.9-1.4-33.7 4.2-35.1 9.2s16.9 13.1 51.4 14.2c29.1.6 35.9-7.8 37.2-10.2a188.6 188.6 0 0 0 35.4 25c-7.1-1.4-19-2.3-36.7.2-31.2 4.4-48 9.6-50.1 14s22.3 12.3 52.1 5.8c27.2-6 38.8-11.6 41.9-16.3a189.2 189.2 0 0 0 49.1 16c-8.6 2.6-29.4 9-47.1 20-22.8 14.3-37.8 21.5-37.6 27.2s35.6-4.7 57.9-19.6c19.8-13 32.1-21.5 31.6-26.7a220.5 220.5 0 0 0 63.3.5c-13.9 9.3-43.4 29.8-59 43.9-21.2 19.1 5.5 13.4 24.5-.7 16.9-12.3 37.8-34.5 41.7-44.3a256.8 256.8 0 0 0 46.2-12c-3 3.3-8.4 9.8-17.2 21.5-14.2 19.3 48.9-35.1 57.6-40a164.2 164.2 0 0 0 15.7-9.8c1.6-1.1 2.3-2.9 1.7-3.9s-2.2-1.1-3.7 0z" fill="#fdd5b7"></path><path d="M639.6 468.4a2.3 2.3 0 0 1-1.4-.4 2.7 2.7 0 0 1-.9-3.7 41.4 41.4 0 0 0 2.3-3.9 2.7 2.7 0 0 1 3.6-1.1 2.6 2.6 0 0 1 1.1 3.7c-1.4 2.6-2.3 4.1-2.3 4.1a2.8 2.8 0 0 1-2.4 1.3z" fill="#fff"></path><path fill="#333982" d="M394.1 264.9z"></path><g><g fill="#fff"><path d="M359.9 234a3 3 0 0 0-.2 1l1.6.7 1.3-1 .2-1.3-.4-.6c-1.3-1.6-2.4-1.2-2.9-.8l-.2 1.5z"></path><path d="M386.1 74.2a2 2 0 0 0-.1-2h-1.6l-.5.3c-.4.3-1.1.7-1.2 1.4a1.9 1.9 0 0 0 .3 1l.7.4a2.7 2.7 0 0 0 2.4-1.1z"></path><path d="M535.9 172.8a.7.7 0 0 0-.5.4 3 3 0 0 0-2 1.1v1.2a1.4 1.4 0 0 0 1.3.6l.5-.9h.3c-.1.3-.3.4-.4.4h.4a2 2 0 0 0 1.5-.4l.2-1a.6.6 0 0 0-.1-.4 1.4 1.4 0 0 0-.2-.6z"></path><path d="M370.2 118.5a1.7 1.7 0 0 0-.2-1.5l-1.2-.3h-.6c-.5-.1-1.3-.3-1.8.3s-.5.8-.3 1.5l.7.4.2.7a1.2 1.2 0 0 0 1.6.2v-.6a1.6 1.6 0 0 0 1.6-.7z"></path><path d="M472.2 153v-.3l.2-1.3a2.8 2.8 0 0 0-2.7-1l-.7.9a1.8 1.8 0 0 0 .7 1.5 1.4 1.4 0 0 0 .2 1.3l.6.3h.5a1.7 1.7 0 0 0-1.6.2l-.9 1.5a2.4 2.4 0 0 0 3 .6h.8l.9-.8h.3v-.5a.4.4 0 0 1 0 .5.7.7 0 0 1-.4.4 3.6 3.6 0 0 0 1.3-.6l-.7-1.9a2 2 0 0 0-1.5-.8z"></path><path d="M404.3 237.9l.3.5a2.2 2.2 0 0 0 2.3.3l.5-.2.8-1.3a1.4 1.4 0 0 0-1.2-1 1.2 1.2 0 0 0-1.1.4c-.3-.2-.7-.5-1.2-.1a1.1 1.1 0 0 0-.4 1.4z"></path><path d="M516.8 293.5c.5-.4 1.1-.8 1.2-1.5a1.4 1.4 0 0 0-.9-1.5h-1c-1.5 1-1.7 2.2-1.5 2.9l1.7.4z"></path><path d="M832.9 237.5a1.4 1.4 0 0 0-.9 1.6l1.3.8h.8a2.5 2.5 0 0 0 1.9 0l.4-1.5a3.4 3.4 0 0 0-3.5-.9z"></path><path d="M625.6 116.5l-.4-.4-.8-.4a2.2 2.2 0 0 0-.2-2.4l-.3-.3h-1.2l-.7-.2c-.5-.1-1.3-.4-1.9.1a1.1 1.1 0 0 0-.5.9 1.4 1.4 0 0 0-.8.9 1.3 1.3 0 0 0 .2 1.3h.9l.4.8.5.4h.1a1.3 1.3 0 0 0 .3.7 1.3 1.3 0 0 0-.2 1.7 1.2 1.2 0 0 0 1.5.2h.2c.9-.7 1-.8 1.4-.8l1.1-.3.7-.9a2.1 2.1 0 0 0-.3-1.3z"></path><path d="M648.7 70.2a2.9 2.9 0 0 0-.9-1.6h-1.2a1.6 1.6 0 0 0-.8 1.4 1.7 1.7 0 0 0 .4 1.5 1.6 1.6 0 0 0 2.3.2l.3-1.2c-.1 0-.1-.1-.1-.3z"></path><path d="M550.7 128.6h-1.5l-.3.3a1.7 1.7 0 0 0-.9 2.2h.3c-.3.7-.7 1.6-.1 2.3a2 2 0 0 0 1.8.5l.7-.6.2-.5a3.8 3.8 0 0 0-.2-4.2z"></path><path d="M600.8 15.6a.7.7 0 0 1 .8-.4 2.5 2.5 0 0 0 1.8-.6l.3-1-.3-.7c-.3-.4-1-.9-2.3 0l-1-.2a2.7 2.7 0 0 0-1.1 2.6z"></path><path d="M499.8 264.8h-1.7a2 2 0 0 0-1.7 1v1.2l.8 1 .6.4a2.6 2.6 0 0 0 2.2-1.3 2 2 0 0 0-.2-2.3z"></path><path d="M722.7 303.9h-.5l.2-.2v-1.4a2.5 2.5 0 0 0-2.6-1.1l-.2 1.5-.4.2a4.6 4.6 0 0 0-1.3.8v1.3a2.3 2.3 0 0 0 .2 2.1l1.5.3a1.9 1.9 0 0 0 .7-.8c1.2 1.2 2.7.1 3.6-.4l.2-1.3a1.8 1.8 0 0 0-1.4-1z"></path><path d="M736.1 175.4l.2-.2a1.7 1.7 0 0 0 .3-2.3l-.2-.2-1.4.2c-.8.8-1.9 2.1-1.1 3.1a1.3 1.3 0 0 0 1.5.4l.7-1.4c.1.1 0 .3 0 .4z"></path><path d="M665.2 159.5a3 3 0 0 0-.2 1l1.6.7 1.3-1 .2-1.3a2.1 2.1 0 0 1-.4-.6c-1.3-1.6-2.4-1.2-2.9-.8l-.2 1.5z"></path><path d="M752.1 213.6a1.7 1.7 0 0 0-.1-2h-1.5l-.5.3a2.1 2.1 0 0 0-1.2 1.4 1 1 0 0 0 .3 1l.6.4a2.5 2.5 0 0 0 2.4-1.1z"></path><path d="M727.7 251.3l-1.2-.8c.9-.8 1.6-1.9.9-3.2h-1.6c-.3.5-.4.5-.9.4a2.3 2.3 0 0 0-1.9.3v1.8a1.9 1.9 0 0 0 .3 1.7l-.3.3-.2.5a2.6 2.6 0 0 0 .8 2 1.9 1.9 0 0 0 2.7.6v-1.1a2.3 2.3 0 0 0 1.4-2.5z"></path><path d="M475.6 107.3l-1.2-.7c.9-.9 1.6-1.9.9-3.2h-1.6c-.3.4-.4.4-.9.3a2.3 2.3 0 0 0-1.9.3v1.8a1.9 1.9 0 0 0 .3 1.7l-.3.4-.2.4a2.6 2.6 0 0 0 .8 2.1 1.8 1.8 0 0 0 2.7.5v-1.1a2.3 2.3 0 0 0 1.4-2.5z"></path><path d="M423 253.1v-.3l.2-1.3a2.6 2.6 0 0 0-2.6-1l-.8.9a1.8 1.8 0 0 0 .7 1.5 1.4 1.4 0 0 0 .2 1.3l.7.3h.5v.2a1.7 1.7 0 0 0-1.6.2l-.9 1.5c1 1.2 2.2.8 3 .6s.7-.2.8-.1l.9-.8h.3l.2-.5a1.1 1.1 0 0 1-.1.5l-.3.4a3.3 3.3 0 0 0 1.2-.6l-.7-1.9a1.7 1.7 0 0 0-1.7-.9z"></path><path d="M634.6 359a2.6 2.6 0 0 0-.9-1.6h-1.2a1.8 1.8 0 0 0-.8 1.4 1.7 1.7 0 0 0 .4 1.5 1.7 1.7 0 0 0 2.3.3l.3-1.2c0-.2-.1-.3-.1-.4z"></path><path d="M823.2 274.1a2.2 2.2 0 0 0-1.2 1.4l.3 1a1.3 1.3 0 0 0 1.5.4l-.3 1.2.2.2c.5.4 1.8 1.6 3.1.2v-1.4a2.2 2.2 0 0 0-2.1-.8 1.9 1.9 0 0 0-.1-1.9z"></path><path d="M785.8 218c.3-.4.4-.4.9-.4a2.5 2.5 0 0 0 1.8-.6l.3-1.1a1.6 1.6 0 0 0-.4-.7c-.3-.3-.9-.8-2.2.1l-1-.3a2.9 2.9 0 0 0-1.1 2.7z"></path><path d="M819.3 259.4c.3-.5.4-.5.9-.5a2.5 2.5 0 0 0 1.8-.6l.3-1a1.6 1.6 0 0 0-.4-.7c-.3-.4-1-.9-2.2 0l-1-.2a2.5 2.5 0 0 0-1.1 2.6z"></path><path d="M320.6 134.4c.3-.5.4-.5.8-.5a2.6 2.6 0 0 0 1.9-.6l.3-1a4.3 4.3 0 0 0-.4-.7c-.3-.4-1-.9-2.3 0l-1-.2a2.6 2.6 0 0 0-1 2.6z"></path><path d="M673.5 211.6a.7.7 0 0 1 .8-.4 2.6 2.6 0 0 0 1.9-.6l.3-1.1a1.6 1.6 0 0 0-.4-.7c-.3-.3-1-.8-2.2.1l-1-.3a2.7 2.7 0 0 0-1.1 2.7z"></path><path d="M593 347.6c-1.3-1.6-2.4-1.2-2.9-.8v1.6l.5.4a3.2 3.2 0 0 0 2.2.9l.6-1.6z"></path><path d="M470.4 291.7a1.6 1.6 0 0 0-1 1.7l1.4.8h.7a3.1 3.1 0 0 0 1.9 0l.4-1.5a3.4 3.4 0 0 0-3.4-1z"></path><path d="M481.3 301.9a1.6 1.6 0 0 0-1 1.7l1.4.8h.7a3.4 3.4 0 0 0 2 0l.3-1.5a3.4 3.4 0 0 0-3.4-1z"></path><path d="M709.7 241.3h-.5a1.7 1.7 0 0 0-1.5.6 2 2 0 0 0 0 1.7l1.2.5c.7-.2 2-.6 2-1.9z"></path><path d="M673.8 349.8a1.4 1.4 0 0 0 1.2-.6v-1.3a2.6 2.6 0 0 0-2.6-1l-.7.6v.3c-.3.8-.7 2 0 2.9a1.6 1.6 0 0 0 1.5.5l.3-1.4z"></path><path d="M453.9 223.1l-1.2.4-.2.4a3.4 3.4 0 0 0-.4 3.9l1.1.4a3.4 3.4 0 0 0 2.2-2 2.4 2.4 0 0 0-1.5-3.1z"></path><path d="M545.7 43.4a.2.2 0 0 1 .2-.2 1.7 1.7 0 0 0 .3-2.3l-.2-.2h-1.4c-.8.9-1.9 2.2-1.1 3.2a1.5 1.5 0 0 0 1.5.4l.6-1.5a1.1 1.1 0 0 1 .1.6z"></path><path d="M550.6 8.5a.4.4 0 0 1-.1-.3l.2-1.2a2.9 2.9 0 0 0-2.7-1.1l-.7.9a2.2 2.2 0 0 0 .7 1.6 1.2 1.2 0 0 0 .2 1.2l.6.4h.5a2.6 2.6 0 0 0-1.6.2l-.9 1.6a2.6 2.6 0 0 0 3 .7c.4-.1.7-.2.8-.1l.9-.9.3.2v-.6a.4.4 0 0 1 0 .5c-.1.3-.3.4-.4.4a1.8 1.8 0 0 0 1.3-.6l-.7-1.9a1.8 1.8 0 0 0-1.4-1z"></path><path d="M587.6 86.9a2.8 2.8 0 0 0-1-1.7h-1.1a1.9 1.9 0 0 0-.9 1.4 2 2 0 0 0 .4 1.5 1.6 1.6 0 0 0 2.3.2l.3-1.2z"></path><path d="M514.1 49c-1.2-1.5-2.3-1.1-2.8-.7v1.6l.5.3a2.4 2.4 0 0 0 2.2.9l.6-1.5z"></path><path d="M558.2 15h-.4a1.7 1.7 0 0 0-1.6.6 1.6 1.6 0 0 0 .1 1.7l1.1.6c.7-.3 2-.7 2-2z"></path><path d="M575.6 90.3a1.7 1.7 0 0 0 1.2-.6v-1.3a2.6 2.6 0 0 0-2.6-1l-.7.6v.3c-.3.8-.8 2-.1 2.9a1.9 1.9 0 0 0 1.6.5l.3-1.4c-.1 0 .1.1.3 0z"></path><path d="M489.2 99.3l-.3-.5-.4-.6a1.8 1.8 0 0 0-2.3-.5l-.5 1.3v.3a1.9 1.9 0 0 0 .3 2.1l.2.3h1.5a1.9 1.9 0 0 0 2.1-.7z"></path></g><path d="M315.6 144.1c-10.2 1.5-18.2 4.4-19.7 6.9-3.9 6.4 15 25.9 23.4 30.9 2.4 1.5 16.4 4.2 34.9 7.3-8.3-3.5-16-7.1-22.4-10.6-13.2-7.2-16.7-20.8-16.2-34.5z" fill="#313781"></path><path d="M338.5 144.3a80 80 0 0 0-22.9-.2c-.5 13.7 3 27.3 16.2 34.5 6.4 3.5 14.1 7.1 22.4 10.6 21.2 3.5 48.2 7.5 71 10.7a78.9 78.9 0 0 1 6.3-20.8c-35.6-14.4-82-32.8-93-34.8z" fill="#373d85"></path><path d="M431.5 179.1a78.9 78.9 0 0 0-6.3 20.8l45.4 6.3 4.2-9.2z" fill="#fff"></path><path d="M656.2 310.8c-30.6 53.1-130.8 36-137-31.4-1.8-19.4 2.4-39.5 9.8-58.4a201.2 201.2 0 0 1 15.9-31c21-33.6 49.4-57.6 64.1-56.2 23.8 2.2 43.1 32.2 52.8 68.4a212.3 212.3 0 0 1 5.5 28.6c3.6 29.6.6 59.7-11.1 80z" fill="#fff"></path><path d="M667.3 230.8a10.2 10.2 0 0 0-7.2 5.7c-5.7 10.4-15.5 24-20.8 22.6-9.1-2.4-9.1-19.1-17.4-13.7s-18.9 22.7-33.7 15.1-6.7-24.3-19.3-30.9-17.5 4.6-27.1 7.6c-4.4 1.3-9-6.9-12.8-16.2a201.2 201.2 0 0 1 15.9-31c7.9-2.3 13.9-6.1 19.5-3.6 7.8 3.4-.7 15.9 12.2 23.7 10.8 6.5 17.8-11.6 29.3-9.7 8.4 1.3 11 23.6 21.1 23.7 13.6.1 16-30.4 34.8-21.9a212.3 212.3 0 0 1 5.5 28.6z" fill="#fcb683"></path><path d="M538.3 216.2s-7.7 8.9-16.7 13.4a39.2 39.2 0 0 1-15.8 4c-7.6.3-15.5-1.8-21.9-8.2s-13.3-19.2-13.3-19.2l4.2-9.2s16.2-1.1 27.9 1.4a27.4 27.4 0 0 1 6.3 2c10.9 5 24.3 15.8 29.3 15.8z" fill="#97a584"></path><path d="M296.7 203.2s11.9-33.9 27.3-47.2c12.5-10.8 29.3-12.6 37.7-7s7.1 7.5 5.3 8.1-8 .3-10.2-.7c0 0 14.3 4.5 10.5 8.4s-15.4-1.4-21.3 2.1-11.2 11.1-10.9 17.4 4.6 4.2 13 4.9 10.8 5.6 5.2 7-21.3 2.1-29.3 5.2-11.2 9.8-11.2 9.8z" fill="#ffe1a5"></path><path d="M702.4 327.6s-3.8-18-2.7-26.6c.5-4.3 1.8-10.5 0-18.5-2.5-11.3-9.6-23.8-15.5-24.4 0 0-11.1-11.8-18.2-12.2-9.4-.4 14.1 15 12.5 20.7 0 0-11.3-17.6-22.3-20.8-6-1.8-3.2 5.7 2.3 11.7s12.5 12 10.4 15.2c0 0-6.8-10-16.1-14.3s-6.4 4.3-1 8.6 13.6 17.5 14.2 23.9-.7 11-8.9 7.4-8.7-7.3-11.4-6.4c-5 1.7 3.2 14.8 15 17.8 10 2.6 16.4 7.2 19.9 11.5 2.2 2.6 2.9 12.1 2.9 12.1z" fill="#ffe1a5"></path><path d="M524 358.2c13.4 12.7 23.4 33 17 56.3-4.1 14.6-18.4 24.2-44.2 9.4s-24.7-51.6-14.2-55.2 33-18.4 41.4-10.5z" fill="#ffe1a5"></path><path d="M704.3 432.1a178.2 178.2 0 0 1-18 46.9c-2.1 3.7-4.3 7.3-6.5 10.7h-.1c-47 71-132.2 85.4-132.2 85.4v.2c2.1 8.1 5.6 31.4 9.2 59.4l.6 4.6c4.9 37.5 9.8 82.2 11.8 110.6-6.6 1.3-13.1 2.4-19.6 3.3-2 3.2-4.7 6.5-5.8 6.5s-3.5-2.3-5.7-4.9c-13.6 1.7-27.2 2.8-40.6 3.3a493.3 493.3 0 0 1-80.2-3.5 5.6 5.6 0 0 1-2 1.9h-.4c-.7 0-2.1-1.1-3.7-2.7-15.5-2.1-30.7-4.9-45.4-8.3a485.9 485.9 0 0 1-55.9-16.5c-31.4-11.4-59.6-25.4-83.3-40.9 3.2-10.1 9.2-22.6 17.5-35.4 6.3-9.6 20.8-34.7 36.5-62.1 1.3-2.5 2.8-5 4.2-7.6h.1l29.4-52c2.6-4.6 5-8.9 7.1-12.8 7.2-12.7 11.8-21 11.8-21-4.7-2.4-9.1-4.9-13.3-7.5l-3.2-2.1c-1-.7-2.1-1.3-3.1-2.1s-3-2-4.4-3.1l-2.3-1.7a148.3 148.3 0 0 1-19.4-17.3 128.4 128.4 0 0 1-13.8-17l-1.6-2.2-.9-1.4-1.3-2.2a141.1 141.1 0 0 1-7-12.5l-1.1-2.4-1.1-2.3c-1.7-4-3.3-8-4.7-12l-1.5-4.9c-.5-1.3-.8-2.7-1.2-4a25 25 0 0 1-.7-2.6l-.6-2.6c-.2-.9-.5-1.8-.7-2.8s-.3-1.4-.4-2.1-.1-.5-.2-.7l-.9-4.7a25.1 25.1 0 0 0-.4-2.7c-.1-.8-.3-1.7-.4-2.6s-.4-2.8-.5-4.2a1.9 1.9 0 0 1-.1-.8c-.2-1.2-.3-2.3-.4-3.4s-.3-2.8-.4-4.2-.1-2.8-.2-4.2-.1-2.2-.2-3.3v-2.5a20.9 20.9 0 0 1-.1-2.5c0-3.6 0-7.2.2-10.7 0-1.4.1-2.6.2-3.9s.1-3.1.2-4.6l.3-3.8c.2-1.6.3-3.1.5-4.7s.1-.6.1-1c.2-2 .5-4 .7-6s.5-3.3.7-5l.6-3.6.6-3.6c1.3-7.1 2.8-14.2 4.5-21 .4-1.4.7-2.8 1.1-4.2 1-3.9 2.1-7.8 3.2-11.5.4-1.4.8-2.7 1.3-4a6.1 6.1 0 0 1 .3-1.1l.9-3 1.8-5.2c4.4-13 9.1-24.7 13.3-34.3a17.6 17.6 0 0 0 .9-2l1.1-2.4c.6-1.3 1.1-2.5 1.7-3.6 2.1-4.6 4.1-8.6 5.7-11.8.9-1.5 1.6-2.9 2.2-4.1s1.5-2.8 2-3.6a2.9 2.9 0 0 1 .4-.8.3.3 0 0 0 .1-.2v.1l6.2 3.1 16.8 8.4 2.1 1c-.5 2.1-.9 4.2-1.2 6.4a117.2 117.2 0 0 0-1.5 11.9c-2.6 28 1.4 61.1 13.7 93.4 1.4 3.5 2.8 7 4.3 10.4a212.1 212.1 0 0 0 30.9 50c2.3 2.9 4.8 5.7 7.4 8.5a198 198 0 0 0 24.2 22.2c24.4 19.2 55.1 34.3 92.9 42.5a61.9 61.9 0 0 0 6.2 1.3h.1c7.9 1.6 16.3 2.9 24.9 3.8l5.7.6c53.6 4.8 88.7-7.3 111.8-25.9 2.8-2.3 5.5-4.7 8-7.2 30.2-30 35-71.7 35.5-90.7.1-4.2 0-7.4-.1-8.9v-1.2l2.8-.9 18.6-5.6h.1l1.9-.6c9.4 44.8 8.6 81.9 1.4 112.6z" fill="#fdc7a0"></path><path d="M704.3 432.1a176.2 176.2 0 0 1-18.1 46.9c-2 3.7-4.2 7.3-6.4 10.7v.2c-47 71-132.2 85.4-132.2 85.4l-1.7-37.2s127-3.4 158.4-106z" fill="#fcb785"></path><path d="M333.1 497.5C167.5 411 291.7 197 291.7 197s-47.2 94.5-15.9 184.8c10.6 30.5 51.4 56.1 80.5 78.7-19 30.1-23.2 37-23.2 37z" fill="#fcb785"></path><g fill="#fff"><path d="M338.8 708.2c-2.3 1.4 7.1 12.2 9.1 12.2s8.7-10.3 8.4-11.8-15.4-1.5-17.5-.4z"></path><path d="M557.3 639.4c-2 3.6-5.5 8.5-6.9 8.5s-11.4-10.9-9.1-12.2 11.2-1.7 15.4-.8z"></path><path d="M552.1 748.1c.1.6-1.1 2.9-2.6 5.3s-4.7 6.5-5.8 6.5-3.5-2.3-5.7-4.9-4.6-6.5-3.4-7.2 17-2.2 17.5.3z"></path><path d="M255.8 671.6c-2.3 1.3 7 12.1 9.1 12.1s8.6-10.3 8.4-11.8-15.5-1.5-17.5-.3z"></path><path d="M429.4 671.6c-2.3 1.3 7 12.1 9.1 12.1s8.6-10.3 8.4-11.8-15.5-1.5-17.5-.3z"></path><path d="M423.2 745c.2 1.1-3.2 6.8-6 9.8a5.6 5.6 0 0 1-2 1.9h-.4c-.7 0-2.1-1.1-3.7-2.7-3.2-3.4-6.9-8.6-5.4-9.5s6.2-1.2 10.6-1.2 6.7.6 6.9 1.7z"></path><path d="M488.9 708.2c-2.3 1.4 7.1 12.2 9.1 12.2s8.7-10.3 8.4-11.8-15.5-1.5-17.5-.4z"></path><path d="M316 652c-2.2 1.3 7.1 12.2 9.2 12.2s8.6-10.4 8.3-11.9-15.4-1.5-17.5-.3z"></path><path d="M295 584.7c.3 1.6-6.3 11.9-8.3 11.9s-3.9-2.8-6.2-5.7l4.2-7.6h.1c4.7-.3 10 0 10.2 1.4z"></path><path d="M475.6 597.6c-2.3 1.3 7 12.1 9.1 12.1s8.6-10.3 8.4-11.8-15.5-1.5-17.5-.3z"></path><path d="M515 477.1c-2.3 1.3 7 12.2 9.1 12.2s8.6-10.3 8.4-11.9-15.5-1.5-17.5-.3z"></path><path d="M668.8 478.8c-2.3 1.3 7.1 12.2 9.1 12.2s8.7-10.3 8.4-11.9-15.4-1.5-17.5-.3z"></path><path d="M596.9 490.5c-2.3 1.3 7.1 12.2 9.1 12.2s8.7-10.3 8.4-11.9-15.4-1.5-17.5-.3z"></path><path d="M680.5 395.2c-2.3 1.3 7.1 12.2 9.1 12.2s8.7-10.3 8.4-11.9-15.4-1.5-17.5-.3z"></path><path d="M693 328.9c.2 1.6-6.4 11.9-8.4 11.9s-2.9-1.8-4.9-4.1c.1-4.2 0-7.4-.1-8.9 5.1-.6 13.1-.6 13.4 1.1z"></path><path d="M561.8 532.3c-2.3 1.3 7.1 12.2 9.1 12.2s8.7-10.3 8.4-11.9-15.4-1.5-17.5-.3z"></path><path d="M651.2 429c.3 1.5-6.4 11.8-8.4 11.8s-4.3-3.1-6.6-6.2c2.8-2.3 5.5-4.7 8-7.2 3.6 0 6.8.4 7 1.6z"></path><path d="M365.4 606.2c-2.3 1.3 7.1 12.1 9.1 12.1s8.7-10.3 8.4-11.8-15.4-1.5-17.5-.3z"></path><path d="M282.9 429.4c-2.2 1.3 7.1 12.2 9.1 12.2s8.7-10.3 8.4-11.9-15.4-1.5-17.5-.3z"></path><path d="M252.8 357.5c-2.2 1.3 7.1 12.2 9.2 12.2s8.6-10.3 8.3-11.9-15.4-1.5-17.5-.3z"></path><path d="M315.6 215.9a117.2 117.2 0 0 0-1.5 11.9c-.8.9-1.5 1.4-2 1.4-2.1 0-11.4-10.8-9.1-12.1s7.8-1.5 12.6-1.2z"></path><path d="M329.7 385.9c-2.2 1.3 7.1 12.2 9.2 12.2s8.6-10.3 8.3-11.9-15.4-1.5-17.5-.3z"></path><path d="M277.6 280.1c-2.3 1.3 7 12.2 9.1 12.2s8.6-10.3 8.3-11.9-15.4-1.5-17.4-.3z"></path><path d="M332.1 331.6c-1.3 1.7-2.5 3-3.2 3s-11.5-10.9-9.2-12.2 4.5-1 8.2-1.2c1.3 3.5 2.7 7 4.2 10.4z"></path></g><path d="M519.9 362.5c3.8 11.8-5 18.4-9.6 18s-10.1 2.5-10.1 2.5c7.6 7.6 2.2 12.2 2.2 16.3-.2 16.9 17.1 21.1 22.1 35.3 7.1 20.1-8.4 39.7-4.6 56.7s23.2 20 25.7 51.4-28.2 57-45.2 51.4c-13.5-4.5-26.6-3.8-35.8 9.8a52.6 52.6 0 0 0-6.1 12.8c-8.8 25.7-43.3 18.1-52.7 1.2s-9.4-30.1-42.6-31.9-41.4-35.8-27.6-35.8 2.5-10.7-26.4-20.7-38.8-33.2-32.6-51.4 19.5-16.9 32.6-22.5-3.7-16.4 8.8-42.1 60.2-35.6 70-42.6l.9-.6c7.5-6.9-10-17 7.5-32.6s37-3.2 49.5-3.2 6-19.6 24.6-21.3c9.4-.8 13 4.2 18.5 11.3s13 10 31.8 5 29.6 8.8 26.3 22.2-27.2 10.8-27.2 10.8z" fill="#3d4389"></path><path d="M538.3 216.2s-7.7 8.9-16.7 13.4a39.2 39.2 0 0 1-15.8 4c3.6-6.4 4.9-13.2-1.3-17.4s-9.3-5.4-9.3-11.3c0-2.8 3.6-5 7.5-6.5a27.4 27.4 0 0 1 6.3 2c10.9 5 24.3 15.8 29.3 15.8z" fill="#fcb683"></path><path d="M541.9 392.6a2 2 0 0 1-1.9-1.2l-3.8-8.7a1.9 1.9 0 0 1 1.1-2.6 2 2 0 0 1 2.7 1l3.7 8.6a2 2 0 0 1-1 2.7 1.3 1.3 0 0 1-.8.2z" fill="#313781"></path><g fill="#fff"><path d="M486.6 460.9a2.7 2.7 0 0 1-2.6-2 2.8 2.8 0 0 1 1.8-3.4 5.5 5.5 0 0 0 4-3.5c2.5-6.1-1-18.8-9.1-33.3-5.7-10-6.8-15.4-4.8-22.3a2.8 2.8 0 0 1 3.4-1.8 2.7 2.7 0 0 1 1.8 3.4c-1.4 4.8-1.1 8.5 4.3 18 9.2 16.4 12.7 30.3 9.4 38.1a10.8 10.8 0 0 1-7.5 6.7z"></path><path d="M483.1 388.8a3.3 3.3 0 0 1-1.4-.4 2.8 2.8 0 0 1-.9-3.8 18.1 18.1 0 0 1 2.2-2.9 2.7 2.7 0 0 1 4 3.6l-1.6 2.2a2.8 2.8 0 0 1-2.3 1.3z"></path></g><path d="M440 83.1s1.6.2 2.2 7c.4 5.1 1 8.7 5 9.1s8.4.8 8.6 2.4c.5 3.4-10.7 2.2-11 5.5-.6 4.9-.2 10.5-2.6 10.5s-3.5-8.2-5.4-10.6-7.9-3.5-10.5-4.1-4-4.3 2.6-3.7 9-2.4 9.5-6.3-.2-9.8 1.6-9.8z" fill="#fff"></path><path d="M722.5 202.2s1.2.2 1.7 5.6.8 7 4 7.3 6.7.6 6.9 1.9-8.5 1.8-8.8 4.4-.2 8.4-2.1 8.4-2.8-6.6-4.3-8.4-6.3-2.9-8.4-3.3-3.2-3.5 2.1-3 7.1-1.9 7.5-5.1-.1-7.8 1.4-7.8z" fill="#fff"></path><path d="M465.1 598l-.5 5.9a52.6 52.6 0 0 0-6.1 12.8c-8.8 25.7-43.3 18.1-52.7 1.2s-9.4-30.1-42.6-31.9-41.4-35.8-27.6-35.8 2.5-10.7-26.4-20.7-38.8-33.2-32.6-51.4 19.5-16.9 32.6-22.5-3.7-16.4 8.8-42.1 60.2-35.6 70-42.6c-5.1 4.4-32 27.9-28.6 55.2 3.8 30.1 1.3 36.3-20.1 58.9s24.4 28.4 33.7 34.1 18.9 7.5 43.3 63.9 48.8 15 48.8 15z" fill="#353b84"></path></g><g><path d="M681.3 692.4h-.9a2.8 2.8 0 0 1-1.7-3.5c18.4-51.7 49.8-83.5 50.1-83.8a2.8 2.8 0 0 1 3.9 3.9c-.3.3-30.9 31.3-48.8 81.7a2.8 2.8 0 0 1-2.6 1.7z" fill="#313781"></path><g fill="#373d85"><path d="M752.5 608.8a2 2 0 0 1-1.6-.7 2.1 2.1 0 0 1 .3-2.9c4.4-3.7 19.1-15.8 23.4-16.5a2.1 2.1 0 0 1 .6 4.1c-2.1.3-12.8 8.3-21.4 15.6a2 2 0 0 1-1.3.4z"></path><path d="M743.9 597.9a1.9 1.9 0 0 1-1.4-.5 2 2 0 0 1-.1-2.9l18.8-19.8a2 2 0 0 1 2.9-.1 2.1 2.1 0 0 1 .1 2.9l-18.8 19.8a2.4 2.4 0 0 1-1.5.6z"></path><path d="M732.1 589.2a2.3 2.3 0 0 1-1.1-.3 2.2 2.2 0 0 1-.6-2.9l14-20.9a2 2 0 0 1 2.8-.5 2 2 0 0 1 .6 2.8l-14 20.9a2 2 0 0 1-1.7.9z"></path></g><path d="M767.8 598.9a4.2 4.2 0 0 1 2.7 7.2c-11.3 10.7-34.7 28.9-50.6 14.4s1.4-39.2 11.8-51.3a4.2 4.2 0 0 1 7.3 2.4l.2 2a4.2 4.2 0 0 0 5.3 3.7l2.8-.7a4.2 4.2 0 0 1 5.3 4.4v1.1a4.2 4.2 0 0 0 4.8 4.5l2.3-.4a4.2 4.2 0 0 1 4.8 4.9l-.5 2.9a4.2 4.2 0 0 0 3.8 4.9z" fill="#fff"></path><path d="M778.7 593.4a4.2 4.2 0 0 1-5.9-1.8 4.3 4.3 0 0 1 1.7-5.9 4.4 4.4 0 0 1 6 1.8 4.2 4.2 0 0 1-1.8 5.9z" fill="#fff"></path><path d="M766.1 579.2a4.4 4.4 0 1 1 1.7-5.9 4.3 4.3 0 0 1-1.7 5.9z" fill="#fff"></path><path d="M749.3 569.3a4.4 4.4 0 1 1-4.2-7.7 4.2 4.2 0 0 1 5.9 1.8 4.3 4.3 0 0 1-1.7 5.9z" fill="#fff"></path><path d="M681.3 689.7c8.7-11.5 50.4-29.6 62.9-34.9a2.1 2.1 0 0 1 2.9 2.4c-4.3 23.2-16.6 32.6-33.1 45-25.2 19-64.3 28-64.3 28-19.8-68.3 16.4-116.1 23.7-124.9a1.8 1.8 0 0 1 2.7-.2c16.6 17.1 5.2 84.6 5.2 84.6z" fill="#373d85"></path><g><path d="M661.5 662.5a2.7 2.7 0 0 1-2.6-2.1c-11.2-53.7-.9-97.2-.8-97.6a2.7 2.7 0 0 1 3.3-2 2.6 2.6 0 0 1 2 3.3c-.1.4-10.1 42.8.8 95.1a2.8 2.8 0 0 1-2.1 3.3z" fill="#313781"></path><g fill="#373d85"><path d="M679.3 554h-.7a2.1 2.1 0 0 1-1.3-2.6c1.9-5.4 8.1-23.5 11.4-26.2a2.1 2.1 0 0 1 2.7 3.1c-1.7 1.4-6.6 13.8-10.2 24.4a2 2 0 0 1-1.9 1.3z"></path><path d="M666.2 549.2h-.4a2.2 2.2 0 0 1-1.6-2.5L670 520a2.1 2.1 0 0 1 2.4-1.6 2.1 2.1 0 0 1 1.6 2.4l-5.8 26.8a2 2 0 0 1-2 1.6z"></path><path d="M651.7 547.9h-.1a2.1 2.1 0 0 1-2-2.2l1.1-25.1a2 2 0 0 1 4 .2l-1 25.1a2.1 2.1 0 0 1-2 2z"></path></g><path d="M688.2 537.2a4.3 4.3 0 0 1 6.1 4.8c-4.1 15-14.6 42.8-35.8 38.7s-19.1-34.3-16.6-50a4.2 4.2 0 0 1 7.5-1.8l1.2 1.7a4.3 4.3 0 0 0 6.5.4l2-2.1a4.2 4.2 0 0 1 6.8 1l.5 1a4.2 4.2 0 0 0 6.4 1.4l1.9-1.6a4.3 4.3 0 0 1 6.6 1.6l1.1 2.8a4.1 4.1 0 0 0 5.8 2.1z" fill="#fff"></path><path d="M694.7 526.9a4.4 4.4 0 1 1-1.6-6 4.4 4.4 0 0 1 1.6 6z" fill="#fff"></path><path d="M676.5 521.4a4.4 4.4 0 1 1-1.6-6 4.4 4.4 0 0 1 1.6 6z" fill="#fff"></path><path d="M657 521.7a4.3 4.3 0 0 1-6 1.5 4.4 4.4 0 0 1 4.4-7.6 4.5 4.5 0 0 1 1.6 6.1z" fill="#fff"></path><path d="M661.5 659.8c1.5-14.3 40.3-36 40.3-29-.1 1.7-9.9 32.9-17.5 52-11.7 29.4-28.7 28-28.7 28-52.4-48-20.5-115-19.4-114.6 20.1 7.2 25.3 63.6 25.3 63.6z" fill="#313781"></path></g><g><path d="M622.4 690.5a2.7 2.7 0 0 1-2.6-1.8c-17.8-50.3-34.6-64.9-34.7-65a2.7 2.7 0 0 1-.4-3.8 2.8 2.8 0 0 1 3.9-.4c.7.6 18 15.7 36.4 67.4a2.8 2.8 0 0 1-1.7 3.5z" fill="#313781"></path><g fill="#373d85"><path d="M565.9 614.8a2 2 0 0 1-1.5-.6c-7.6-8.3-17.1-17.6-19.2-18.2a2.1 2.1 0 0 1-1.4-2.6 1.9 1.9 0 0 1 2.5-1.3c4.1 1.1 17.2 15.1 21.1 19.3a2.1 2.1 0 0 1-.1 2.9 1.9 1.9 0 0 1-1.4.5z"></path><path d="M575.9 605.1a1.9 1.9 0 0 1-1.7-.8l-16.1-22.1a2.1 2.1 0 0 1 .4-2.9 2.2 2.2 0 0 1 2.9.5l16.1 22.1a2.1 2.1 0 0 1-.4 2.9 2.7 2.7 0 0 1-1.2.3z"></path><path d="M588.6 598a2 2 0 0 1-1.8-1.1l-11.1-22.6a2 2 0 1 1 3.6-1.8l11.1 22.6a2 2 0 0 1-.9 2.7z"></path></g><path d="M551.7 602.9a4.3 4.3 0 0 0-3.6 6.9c9.8 12 30.7 33.2 48.4 20.8s3.6-39-5.1-52.4a4.2 4.2 0 0 0-7.6 1.4l-.4 2a4.3 4.3 0 0 1-5.8 3l-2.6-1.1a4.2 4.2 0 0 0-5.8 3.7v1.1a4.2 4.2 0 0 1-5.3 3.9l-2.3-.7a4.2 4.2 0 0 0-5.4 4.2v2.9a4.1 4.1 0 0 1-4.5 4.3z" fill="#fff"></path><path d="M541.6 596.1a4.4 4.4 0 1 0 5.1-7.1 4.4 4.4 0 0 0-5.1 7.1z" fill="#fff"></path><path d="M556 583.7a4.3 4.3 0 0 0 6.1-1 4.3 4.3 0 0 0-1-6.1 4.4 4.4 0 0 0-5.1 7.1z" fill="#fff"></path><path d="M573.9 576.1a4.4 4.4 0 1 0-1-6.2 4.6 4.6 0 0 0 1 6.2z" fill="#fff"></path><path d="M622.4 687.8c-8.7-11.4-50.4-29.6-62.9-34.8a2.1 2.1 0 0 0-2.9 2.3c4.3 23.2 15.9 44.3 32.4 56.8 25.2 18.9 60.7 18.1 60.7 18.1 19.9-68.3-28.3-96-38.2-101.8-7.9-4.7 10.9 59.4 10.9 59.4z" fill="#373d85"></path></g></g></g></g></svg>