<svg xmlns="http://www.w3.org/2000/svg" width="1013.9" height="466.9" viewBox="-0.025718929246068 -2.5629998390286346e-7 1013.9348754882812 466.9056701660156" style=""><g><title>licfloral71_92926990</title><g data-name="Layer 2"><path d="M617.5 255.5c-5.9-1.9-11.9-3.5-17.9-5.3-12.8-3.8-25.4-8.5-38.6-10.9-6.4-1.2-12.9-1-19.4-1.7s-13.6-2.8-20.6-3.2c-5.4-.2-10.9 1.6-16.3.9a23.6 23.6 0 0 0-3.7-.2l2.9-1.8c6.7-4.1 14.3-6.4 20.9-10.6a231.1 231.1 0 0 1 21.8-12c4.2-2.1 8.7-6.1 13.4-7.7a4.2 4.2 0 0 0 4.2-.6l1.1-.9a4.6 4.6 0 0 0-3.1-8.2c-5 .3-10 3.3-13.9 6.1-5.9 4.2-13.2 7-19.5 10.5s-14.5 8.2-22.1 11.8a92.1 92.1 0 0 0-10.3 5.5c-1.8 1.1-3.8 3.1-5.8 3.9v-.2c.9-6.8-7.7-10.5-12-5.3-2.2 2.6-4.9 4.8-6.8 7.6a10.7 10.7 0 0 0-3.8 1.3 6.5 6.5 0 0 0-5.5 6.1 3.8 3.8 0 0 0-.3 1 17 17 0 0 0-3.2 1 16.4 16.4 0 0 0-7.5 2.9c.1-4-.3-8.2-1.9-11.4a7.1 7.1 0 0 0-1-1.4l-.5-1.1c4.5-3.5 1.7-11.3-4-11.9a7.5 7.5 0 0 0-.5-2.6c.3-2.6-.1-5.4.1-7.9.4-7.3-9-9.9-12.4-5.4-5.1-4.2-11.2-7.7-15.8-10.9s-11.4-7.8-17.9-9.1-10.4-3-15.6-4.5a4.2 4.2 0 0 0-4.2-2 5.3 5.3 0 0 0-4.1 2.5 4.6 4.6 0 0 0 2.8 7.4c4.6 1 8.5 3.1 13.1 3.9a49 49 0 0 1 18.1 7.5c5.8 3.7 15.8 8.8 21.2 15.3a8.6 8.6 0 0 0-2.7 2c-2.3 2.9-2.9 7.8-.7 10.8a8.7 8.7 0 0 0 1.6 1.7 6.7 6.7 0 0 0 1 2.9c-1.1 3.9 1 7.6 5.4 8.8a10.7 10.7 0 0 0 2.7.6 13.2 13.2 0 0 0 .8 4.4l.6 1.1a20.1 20.1 0 0 0 .1 2.5c.2 2.2-.7 5-1 7.3s.5 2.4.6 3.6a5.7 5.7 0 0 0-1.5 3.4l-.2 1c-.5 4 3.1 7.5 6.7 7.9a.1.1 0 0 1-.1.1c-4.6 5-8.5 10.5-13.1 15.6-9.3 10.1-17.5 21.1-26 31.8-4.2 5.3-7.7 11.1-11.6 16.6l-2.5 3.4a6.8 6.8 0 0 0-1.4-4.1l1.4-1.7c3-4.1.2-9.8-3.7-11.2a9 9 0 0 0-2.8-1.8l-.6-1.2a10.9 10.9 0 0 0-1.5-4.5 15.7 15.7 0 0 0-3.3-3 14.2 14.2 0 0 1-2-2.8 7 7 0 0 0-9.5-1.5c-3.3 2.4-3.4 6.3-1.6 9.5s3.2 8.7 4.4 13.3c-.1.6-.1 1.2-.2 1.8a8.1 8.1 0 0 0 .7 3.8 6.6 6.6 0 0 0 2.5 4.5 4.6 4.6 0 0 0 .6 2.3 15.4 15.4 0 0 0-.5 3.1c-1.9 4-2.3 8.5.2 11.9a5.2 5.2 0 0 0 1 1.1c-.6 3.8-2.9 7.7-4.3 11.2s-3.2 7.7-4.6 11.6a62 62 0 0 0-2.7 9.6c-1.5 8.6 11.9 10.6 13.5 2s6-14.8 9.9-22.1 8.7-15.6 14.5-22.6 8.7-12.6 13.2-18.8 9.7-11.8 14.2-18a455.3 455.3 0 0 1 30-35.1 36.1 36.1 0 0 0 6-8.7 15.1 15.1 0 0 0 7.2-2.6c3.5-2.3 4.4-6.3 3.7-10.1 2.3 1.2 5 1 7.8.3a5.8 5.8 0 0 0 5.6 0c2.5-1.3 5-2.5 7.3-3.9l2.5-.9c3.8-1.1 4.9-4 4.3-6.9h.5a101.7 101.7 0 0 0 14.6-.3c6.6-.5 12.6.6 19 1.9s12.8 1.2 19.2 1.8c13.7 1.3 26.4 6.6 39.5 10.3l16 4.9c1.7.5 4.5.9 7.1 1.4a30.9 30.9 0 0 1 6.8-7.2c-2-.3-3.9-.6-6-1.2z" fill="#534741"></path><path d="M355.4 194.3h.5c4.7.1 8.8-.2 12-4.2s4.4-8.7 3.6-12.4a25.1 25.1 0 0 0-4.1-10.3c10.8-.2 22.2-2.1 31.9-6s21.5-14.6 19.4-26.8a31 31 0 0 0-7.4-14.8c-5.4-5.9-11.4-7-18.7-9.1-9.3-2.6-19.2.1-27.6 4.9l.3-.9c3-8.9 7.3-15.6 5.9-25.4-1.1-7.7-7.3-15.3-15.8-14.4a14.3 14.3 0 0 0-9.8 4.9l-.9 1.3c-2.7-1.8-5.4-3.5-8.7-4.1a20.8 20.8 0 0 0-18.1 4.6 23.1 23.1 0 0 0-8 16.3c-3.5-3.1-7.2-5.8-12.3-7-6.6-1.5-15.4-2-21.2 2.5s-8.1 9.9-7.3 16.3l-2.5.7c-3 .8-6.8 2.8-8.7 5.4-9.8 12.7 3.1 27.1 14.8 32.3a52.2 52.2 0 0 0 10.6 3.2 26.6 26.6 0 0 0-16.5 11.6c-3.8 5.8-5.2 12.3-1.2 18.4a11.2 11.2 0 0 0 5.5 4.1 22 22 0 0 0 2 4.9c3.9 6.7 14.4 7.2 21 5.5 8.7-2.3 15.2-9.6 21.5-15.7l5.3-5.1c-.1 1.3-.1 2.6-.2 3.9s-.7 4.9-.8 7.3c5.5-1.6 11.6-2.4 16.9-1.6a34 34 0 0 1 18.6 9.7zm-61.6-29.6c-2.9-.4-2.2-4.9.6-4.5s2.3 4.8-.6 4.5zm6-27.5c-2.9-.4-2.2-4.9.7-4.5s2.2 4.9-.7 4.5zm58.1-10.4c2.9.4 2.2 4.9-.7 4.5s-2.2-4.9.7-4.5zm-12.2 5.2a2.3 2.3 0 0 1 2.5-2 2.5 2.5 0 0 1 2 2.6l-.2.8a2.2 2.2 0 0 1-2.5 1.9 2.3 2.3 0 0 1-1.9-2.6zm-7.5-7.1c3 .4 2.3 4.9-.6 4.4s-2.2-4.8.6-4.4zm-3.7 16.3v.7a2.4 2.4 0 0 1-2.6 2 2.3 2.3 0 0 1-1.9-2.6v-.8a2.2 2.2 0 0 1 2.5-1.9 2.4 2.4 0 0 1 2 2.6zm-2.8-30.2h.8a2.3 2.3 0 0 1 1.9 2.6 2.4 2.4 0 0 1-2.6 1.9h-.7a2.3 2.3 0 0 1-1.9-2.6 2.1 2.1 0 0 1 2.5-1.9zm-7.6 33.4v.7a2.3 2.3 0 0 1-2.6 1.9 2.3 2.3 0 0 1-1.9-2.6v-.7a2.3 2.3 0 0 1 2.6-1.9 2.3 2.3 0 0 1 1.9 2.6zm-5-13.9l.8-.6a2.3 2.3 0 0 1 3.2.5 2.5 2.5 0 0 1-.5 3.2l-.9.6a2.3 2.3 0 1 1-2.6-3.7zm-4.9 24.7a2.4 2.4 0 0 1-2.6 2h-.7a2.4 2.4 0 0 1-2-2.6 2.3 2.3 0 0 1 2.6-1.9h.8a2.3 2.3 0 0 1 1.9 2.5zm-11.4 16a2.2 2.2 0 0 1-1.9-2.5 2.1 2.1 0 0 1 1.3-1.8 2.4 2.4 0 0 1 2.1-.8 2.4 2.4 0 0 1 2 2.6 2.8 2.8 0 0 1-3.5 2.5zm8.1-28.3a2.2 2.2 0 0 1 2.1-.9 2.3 2.3 0 0 1 1.9 2.6 3.1 3.1 0 0 1-3.5 2.6c-1.2 0-2-1.5-1.9-2.6a2.4 2.4 0 0 1 1.4-1.7zm23.2 26.5a18.5 18.5 0 0 1-3.7-1.9c-5.4 2.3-15.3 4.7-22.2 3.8l-1.7-.3.8-3c5.2 1.3 14.4-.6 20.2-2.7a28.8 28.8 0 0 1-7.1-9.3h-1c-2.8-.4-2.2-4.6.4-4.5h.2v-.5c.1 0 0-.1.1-.2a2.3 2.3 0 1 1 4.5.6 6.9 6.9 0 0 1-1.6 3.2c2.2 5 7.3 10.3 12 12zm3.4-17.1a2.1 2.1 0 0 1-1.7-1.3 2.3 2.3 0 0 1-2 .8h-.4a29.1 29.1 0 0 0 2.3 6.4 27.1 27.1 0 0 1 2.8 9.3l-3 .2c-.2-2.8-1.4-5.5-2.6-8.3a33.2 33.2 0 0 1-2.4-6.9 2.3 2.3 0 0 1-1.4.2 2.3 2.3 0 0 1-2-2.5l.2-1.5a2.3 2.3 0 0 1 2.6-1.9 2.1 2.1 0 0 1 1.9 2.5v.8h.2a2.5 2.5 0 0 1-.1-.8l.2-.8a2.2 2.2 0 0 1 2.5-1.9 2.4 2.4 0 0 1 1.9 1.8l.6-.3a1.9 1.9 0 0 1 2-.8l.8.2c0-.1 0-.4.1-.5s-.1-.3 0-.4v-.8a1.3 1.3 0 0 1 .1-.6h.1a2.4 2.4 0 0 1 2.3-1.2 2.1 2.1 0 0 1 1.9 1.9 2.3 2.3 0 0 1 1 3.2 2.3 2.3 0 0 1 1.2-.6 2 2 0 0 1 .6-.7v-.2h.1l.7-.4h.9l.8.2a2 2 0 0 1 .7-.9l.9-.7a2.4 2.4 0 0 1 3.2.6 2.2 2.2 0 0 1-.6 3.1l-.8.7a2.5 2.5 0 0 1-2.5.1c0 .1 0 .2-.1.2h2.5c-.3 5.8-5.9 15.3-10.7 18.3l-1.6-2.6c3.6-2.2 8.1-9.5 9-14.3a2.2 2.2 0 0 1-2.5 1.7 3.1 3.1 0 0 1-2.6-3.4 1.4 1.4 0 0 1 .2-.7l-.5.3a1.7 1.7 0 0 1 .2 1.2v.7a2.4 2.4 0 0 1-2.2 2c-.5 4.6-1.2 7.9-2.8 9.1l-1.9-2.4c.9-.7 1.5-5 1.8-8.4a3 3 0 0 1-1.9.3z" fill="#f9ad81"></path><path d="M344.6 288.9l-2.4-2.8c.1 0 .2 0 .2-.1 10.6 11.3 21.3 22.7 35.6 14a19.5 19.5 0 0 0 6.1-5.7c1.5-2.1 1.4-4.2 3.3-5.5 5.9-3.9 9.2-7.1 10.6-14.3 2.1-11.2-5-24.4-12.3-32.3s-14.2-10.6-22.6-9.7a35.8 35.8 0 0 0 3-12.2c.5-9.8-3.8-19.3-10.7-26a34 34 0 0 0-18.6-9.7c-5.3-.8-11.4 0-16.9 1.6a48.3 48.3 0 0 0-7.3 2.9c-7.1 3.6-9.9 10.2-11.1 17.8a28 28 0 0 0-13.8-9c-7.1-2-13.1-.9-19.9 1.4s-10.2 10.4-15 16.3-12.6 7.5-13.4 16 2.3 15.9 9.2 21.6a45.3 45.3 0 0 0 15.3 7.8 53.1 53.1 0 0 0-7.1-.8c-7.5-.3-12.7 3.6-16.4 9.8s1.8 14.3.6 21-1.4 12.5 2.4 18.9 15.6 9 23.6 8.1a51.8 51.8 0 0 0 19.1-6.8 30.2 30.2 0 0 0 3.9 23c5 8.4 15.4 14.2 24.9 14.1 4.8 0 11.4-4.3 13-8.9.8-2.1 2.9-5.4 1-5.7 2 .1 4.3 1.1 6.3.9 9.9-.8 16.5-8.8 18.9-18 3-11.2-2.8-19.3-9.5-27.7zm8.2-19.1c-2.9-.4-2.3-4.9.7-4.5s2.2 4.9-.7 4.5zm-.9-26.9h.8a2.3 2.3 0 1 1-.7 4.5h-.8a2.4 2.4 0 0 1-1.9-2.6 2.4 2.4 0 0 1 2.6-1.9zm-12.5-9.3h.8a2.2 2.2 0 0 1 1.9 2.6 2.4 2.4 0 0 1-2.6 1.9h-.7a2.3 2.3 0 0 1-1.9-2.6 2.2 2.2 0 0 1 2.5-1.9zm-22-6.9a2.4 2.4 0 0 1 2 2.6v.8a2.3 2.3 0 0 1-2.6 1.9 2.3 2.3 0 0 1-1.9-2.6v-.7a2.3 2.3 0 0 1 2.5-2zm-8.1-1.8c2.9.4 2.2 4.9-.7 4.4s-2.2-4.8.7-4.4zm-14.9 24.7c-2.9-.4-2.3-4.9.7-4.5s2.2 4.9-.7 4.5zm1.9-18.9c2.9.4 2.2 4.9-.7 4.5s-2.3-4.9.7-4.5zm-19.9 21.8l.3-2.3a2.3 2.3 0 0 1 4.6.7l-.4 2.2a2.2 2.2 0 0 1-2.6 1.9 2.3 2.3 0 0 1-1.9-2.5zm-.3 41.2h-.7a2.3 2.3 0 0 1-1.9-2.6 2.2 2.2 0 0 1 2.6-1.9h.7a2.3 2.3 0 0 1 1.9 2.6 2.3 2.3 0 0 1-2.6 1.9zm8.7-18.6a2.2 2.2 0 0 1-2.6 1.8 2.3 2.3 0 0 1-1.9-2.5l.2-1.5a2.3 2.3 0 0 1 2.6-1.9 2.2 2.2 0 0 1 1.9 2.5zm17.8 26.4c-.4 2.9-4.9 2.2-4.5-.7v-.3c.4-2.9 4.8-2.2 4.4.7zm22-15.7l-2.2-.3a1.9 1.9 0 0 1-1.3-.7c-.1 2.7-.3 5.2-.4 7.2l-3-.2c.1-1.4.2-3.2.3-4.9a2.5 2.5 0 0 1-1.2.1l-3.8-.5a2.2 2.2 0 0 1-1.9-2.6 2.4 2.4 0 0 1 2.6-1.9h-.1a2.2 2.2 0 0 1-1.9-2 40.4 40.4 0 0 0-1.5 3.9 1.7 1.7 0 0 1 .1.7 2.9 2.9 0 0 1-.8 1.4c-1.4 4.6-2.8 10-3.8 14.9l-2.9-.6c.6-3.3 1.9-8.9 3.5-14.3a5.5 5.5 0 0 1-1-1.1l-1.1-1.8a2 2 0 0 1-.3-1.1 1.4 1.4 0 0 1-.9.1 4.3 4.3 0 0 1-3.1-2.9 47.9 47.9 0 0 0-10.2 8.8l-2.3-2a54.4 54.4 0 0 1 11.6-9.8 1.6 1.6 0 0 1-.3-.9h-.9a2.4 2.4 0 0 1-2-2.6c.1-.1.1-.9.1-.5a.1.1 0 0 1-.1-.1 2.5 2.5 0 0 1-.1-2.5 2.3 2.3 0 0 1-1.4-2.4l.4-2.6-4.8-1.4-2.8-.8.9-2.9 2.8.8 3.6 1.1v-.4l.2-1.5a2.3 2.3 0 0 1 4.5.7v.9a2.2 2.2 0 0 1 1.2 1.7 59.7 59.7 0 0 0 6.1 1l-.6-.9a1.9 1.9 0 0 1-.5-.9l-1.2-2.7h-1a2.3 2.3 0 0 1-1.9-2.6c0-.1 0-.1.1-.1a2.4 2.4 0 0 1-1.3-2.4 4.3 4.3 0 0 1 1.5-2.6l-.3-1.3-1.4-4.6 2.9-1 1.4 4.8c.2.6.3 1.3.5 1.9l.4.4a2.7 2.7 0 0 1 .5 1.1v1l.6 1.7a2.3 2.3 0 0 1 .4 1.4l.9 2h.5a2.3 2.3 0 0 1 1.4 3.6l1.1 1.3 3-.3a44.3 44.3 0 0 1-.5-9.4 1.9 1.9 0 0 1-.4-.9h-1.6a2.6 2.6 0 0 0-2.2-.3h-.8a2.2 2.2 0 0 1-1.9-2.6 2.4 2.4 0 0 1 2.6-1.9h.7l1.1.5 1.2-.2c.1.1.8 0 .4.1h.2l.8-.4.3-3.7c.1-1.9.2-3.5.2-4.6h3c0 1.1-.1 2.7-.2 4.7s-.2 3.6-.3 6.1a2.3 2.3 0 0 1 1.8 2.5 2.3 2.3 0 0 1-1.9 1.9 50.9 50.9 0 0 0 .3 7.1l3-6.1 2-4a2.3 2.3 0 0 1-1.4-2.5 2.3 2.3 0 0 1 2.6-1.9h1a95.3 95.3 0 0 1 5.8-9.9l2.5 1.8c-3.7 5.3-6.8 11.6-9.7 17.6l-3.6 7.1-1.3-.7.5 1.4h-.3v.2l-1.5 2.6a3.4 3.4 0 0 1-1.6-1.9l-3.1.4-.4.9a4.2 4.2 0 0 1-1.4-.9 45.3 45.3 0 0 1-5.2-.3l-3.8-.7a.3.3 0 0 1 .1.2 10.5 10.5 0 0 1 .3 5 2.4 2.4 0 0 1-.2.8v.8a2.1 2.1 0 0 1 2.3.9h.1l6.2-4.1 1.8 2.4-6.5 4.3a1.1 1.1 0 0 0 .3.6.6.6 0 0 1 .1.4l.5-.4a2.1 2.1 0 0 1 1.9-.3h.5a2.2 2.2 0 0 1 1.7 1.4 28 28 0 0 1 2.7-4.7l2.4 2a13 13 0 0 0-1.7 2.6 2.2 2.2 0 0 1 1.6-.4h.8a2.3 2.3 0 1 1-.7 4.5l3.1.4.6.2a31 31 0 0 0-1.5-9.5l2.8-1.1a2.1 2.1 0 0 1 1.9-.6c2.9.4 2.2 4.9-.7 4.5h-.1a50.5 50.5 0 0 1 .6 5.6 2.3 2.3 0 0 1 1.9-.7l2.3.3a2.3 2.3 0 0 1-.7 4.5zm2.5-29.5c-2.9-.4-2.2-4.8.7-4.4s2.2 4.8-.7 4.4zm.8 22.3a2.2 2.2 0 0 1 2.4-1.9 2.3 2.3 0 0 1 1.8-.6 2.3 2.3 0 0 1 1.9 2.6c-.5 2.1-2.2 2.7-4.2 2.5a2.3 2.3 0 0 1-1.9-2.6zm2.5-7.3a2.3 2.3 0 0 1 2.6-1.9c2.1.5 2.8 2.2 2.5 4.2a2.3 2.3 0 0 1-2.6 1.9 2.2 2.2 0 0 1-1.9-2.4 2.3 2.3 0 0 1-.6-1.8zM332 299a2.2 2.2 0 0 1 .6-4.4 2.2 2.2 0 0 1-.6 4.4zm2.1-38v.2a2.4 2.4 0 0 1-2.6 1.9h-.4a74.5 74.5 0 0 1-9.4 4.7l-.2-.7a2.2 2.2 0 0 1-1.6-2.5l.2-1.5a2.3 2.3 0 0 1 4.5.1 35.3 35.3 0 0 0 5-2.8l.2-1.3a2.3 2.3 0 0 1 2.6-1.9 1.7 1.7 0 0 1 1.2.5 35.8 35.8 0 0 0 3.6-3h-.7l-1.5-.2a2.3 2.3 0 0 1-1.9-2.6 2.3 2.3 0 0 1 2.6-1.9l1.5.2a2.3 2.3 0 0 1 1.9 2.5 20.5 20.5 0 0 0 5.1-9.3l3 .6c-1.5 6.9-7 12.7-13.1 17z" fill="#f9d8b1"></path><path d="M716.5 287.2a10.7 10.7 0 0 0-2.8-1.9c11.2-4.3 21.7-14.2 23.2-26.3 1.9-15.4-14.8-20.6-26.8-19.9a55.2 55.2 0 0 0-19.3 4.7l-1.1.5a20.1 20.1 0 0 0 2.1-9.9c-.9-12.2-13.1-16.1-23.3-12s-18.7 13.9-15.4 24.8a14.2 14.2 0 0 0-4.1 5.2 16.6 16.6 0 0 0-2.9-1c-6.5-1.6-13-.3-18.9 2.9a34.1 34.1 0 0 0-3.7 2.5 30.9 30.9 0 0 0-6.8 7.2 47.8 47.8 0 0 0-6.5 15.7c-2.3 9.7 4.1 23.6 16 21.5a30.9 30.9 0 0 0 8.1-2.7c-4 12.8-5.7 26.6-1.1 39.7 4 11.2 17.6 16.6 27.9 10.8a18.8 18.8 0 0 0 9.1-13.1c.1-1.4.4-2.8.6-4.2-.3 1.7 3.5 1.7 4.6 1.9a14.6 14.6 0 0 0 10.4-2c10.3-5.9 12.5-17.6 7.9-27 7.8 4.1 27 10.7 29.1-3.3.8-5.7-2.3-10.3-6.3-14.1zM697.2 255l-.3 3c-13.4-1.8-24 .4-36.9 7.6l-1.4-2.6c13.2-7.4 24.8-9.9 38.6-8zm-45 16.7a2.2 2.2 0 0 1 2.6-1.9 2.4 2.4 0 0 1 1.9 2.6v.7a2.4 2.4 0 0 1-2.6 2 2.3 2.3 0 0 1-1.9-2.6zm3.1 49.4h-.7a2.3 2.3 0 0 1-1.9-2.6 2.3 2.3 0 0 1 2.6-1.9h.7a2.3 2.3 0 0 1-.7 4.5zm10.4-7h-1a2.3 2.3 0 0 1 .7-4.5h1a2.4 2.4 0 0 1 1.9 2.6 2.3 2.3 0 0 1-2.6 1.9zm9.7 13l-.4.4a2.2 2.2 0 0 1-2.4 1.3 2.3 2.3 0 0 1-1.9-2.6 3 3 0 0 1 .8-1.6c.1-.2.3-.3.4-.4a2.2 2.2 0 0 1 2.3-1.3 2.4 2.4 0 0 1 2 2.6 4 4 0 0 1-.8 1.6zm5.4-24.6a2.3 2.3 0 0 1-2.5 1.9 2.4 2.4 0 0 1-2-2.6v-.8a2.3 2.3 0 0 1 2.6-1.9 2.4 2.4 0 0 1 2 2.6zm8.1-14.3l-1.5-.2-2.1 1.5c-2.7-3.8-7.7-6.8-14.7-9a7.9 7.9 0 0 1-.1 2.2 2.4 2.4 0 0 1-1.2 1.7 2.5 2.5 0 0 1 .7 2l-.2 1.5a2.3 2.3 0 0 1-2.6 2 2.4 2.4 0 0 1-1.4-.9 2.8 2.8 0 0 1-.8 1.5h-.1l-.3.7a36.3 36.3 0 0 1 5.2 5.7l-2.6 1.6a46.6 46.6 0 0 0-6-6.4l-3.4-3.3a3.2 3.2 0 0 1 .3 1.4v.7a3.3 3.3 0 0 1-.7 1.3l-.3.2a12.8 12.8 0 0 1-3.8 2.1c0 .1-.1.1-.2.1s.1.2.2.4l.4-.3a2.3 2.3 0 0 1 2.6 3.7l-.6.4c2.1 3 4.5 5.2 6.7 5.7l-.6 2.9c-3.2-.6-6.3-3.5-8.8-7.1a2.4 2.4 0 0 1-3.2-.6 2.2 2.2 0 0 1 .6-3.1c0-.1.1-.1.2-.2a43.7 43.7 0 0 1-3.9-10 36.8 36.8 0 0 0-1.9 8.6 2 2 0 0 1 2.2-1c2.9.3 2.2 4.8-.7 4.5a2.4 2.4 0 0 1-1.6-1.1c0 7.1 2.6 13.8 9.1 17.5l-1.5 2.6c-12.7-7.1-12.9-24.1-6.6-36.5l2.7 1.4v.2h.8c0 .3.1.7.1 1.1h.6c2.5.4 2.4 3.8.4 4.5v.3h.3a2.3 2.3 0 0 1 3.2.5 2.4 2.4 0 0 1 2.1-1.3l-.3-1a31.8 31.8 0 0 1-5.3-7.4 2.2 2.2 0 0 1 .7-4.4h.8a2.3 2.3 0 0 1 1.9 2.6 3 3 0 0 1-.4 1 29.7 29.7 0 0 0 4.2 5.7h.7a2.2 2.2 0 0 1 1.8 2.7l1.2 1.1a11.3 11.3 0 0 1 1.1-1.1 2.3 2.3 0 0 1 3 .4l.2-1.3a2.1 2.1 0 0 1 1.3-1.7 2.6 2.6 0 0 1-.7-2.1v-1.5c0 .1-.2-.3 0 0a3 3 0 0 1-.4-1 2.1 2.1 0 0 1-2.3-.7l-4.9-.8h-.3l.4-3h.4l3.5.5a2.7 2.7 0 0 1 .7-.8 2.3 2.3 0 0 1 3.2.5l.6.8c.1.2.2.3.2.5q12.4 2.8 18.3 8.7a2.4 2.4 0 0 1 2.5-1.7l1.5.2a2.4 2.4 0 0 1 2 2.6 2.3 2.3 0 0 1-2.6 1.7zm-26.5-7.4c2.9.4 2.3 4.9-.6 4.5s-2.3-4.9.6-4.5zm19.1-5.9l.9-.7a2.3 2.3 0 0 1 3.1.5 2.2 2.2 0 0 1-.5 3.2 2.7 2.7 0 0 0-.8.7 2.4 2.4 0 0 1-3.2-.6 2.1 2.1 0 0 1 .5-3.1zm12.3-.8c-6.3-5.5-15.7-4.2-24.8-3-3.2.4-6.2.8-9 .9v-3c2.7-.1 5.6-.5 8.7-.9 9.3-1.2 19.8-2.6 27.2 3.7zm5.4-7.8a2.2 2.2 0 0 1-2.1.9 2.3 2.3 0 0 1-1.9-2.6 2.8 2.8 0 0 1 3.4-2.6 2.3 2.3 0 0 1 1.9 2.6 2 2 0 0 1-1.3 1.7zm5.3 24.8h-.7a2.2 2.2 0 0 1-1.9-2.6v-.7a2.2 2.2 0 0 1 2.6-1.9 2.3 2.3 0 0 1 1.7 1.3 2.4 2.4 0 0 1 .8 2.1 2.3 2.3 0 0 1-2.5 1.8zm9.4 4.5l-1.7 1.3a2.3 2.3 0 0 1-3.2-.5 2.4 2.4 0 0 1 .6-3.2l1.7-1.3a2.3 2.3 0 0 1 3.1.5 2.2 2.2 0 0 1-.5 3.2z" fill="#f9d8b1"></path><path d="M567.6 193a15.7 15.7 0 0 0 8.5-3.3c1.8 2.7 3.5 5.3 3.2 6.6-1.8 5.6-3.6 10.7-1.9 16.7a24.5 24.5 0 0 0 11.1 14.5c8.7 5.2 18.2 1.2 22.5-6.5l1 .6a13 13 0 0 0 10.4 1 30.5 30.5 0 0 0 15.8-12c6.6-9.9 4-26.1-7.5-31.3a30.6 30.6 0 0 0-18.2-2 15.5 15.5 0 0 0 1.4-4.3 56.4 56.4 0 0 1-9.1 7 2.6 2.6 0 0 1-1.4.9l-.9.5a2 2 0 0 1 .6 1.9 5 5 0 0 1-.5 1.3c6 .1 12.1-.4 16.7-2l1.1 2.8c-7.4 2.7-18 2.5-26.6 1.7l-.4.3h-.1a29.7 29.7 0 0 0 6.7 6.1 1.8 1.8 0 0 1 .7.5 30.1 30.1 0 0 0 14 4.5l-.3 3-2.1-.2a32.9 32.9 0 0 1-11.8-3.9h-.1a2.7 2.7 0 0 1-.8.7 2.4 2.4 0 0 1-3.2-.5 2.3 2.3 0 0 1 .2-2.8 41.4 41.4 0 0 1-5.3-5 2.1 2.1 0 0 1-2.3 1.4c-2.7-.4-2.3-4.2 0-4.5l-1.1-1.6 2.1-1.3h.2l.3-.2c0 .1.1.1.1.2h.2l.8-.6a2.3 2.3 0 0 1 2.9.2l-.4-1.1a57.7 57.7 0 0 0 6.6-3.3v-.6c0-.1.1-.9.1-.5h-.1a2.2 2.2 0 0 1 .5-3.1 2.2 2.2 0 0 1 3.2.5 3.4 3.4 0 0 1 .6 1.2 47.1 47.1 0 0 0 9.4-8c0-4.5-1.2-8-4.5-11a4.9 4.9 0 0 1-1.7 0 2.3 2.3 0 0 1-1.9-2.6l-.2-.2a18.4 18.4 0 0 0-5.4-2.1c-1.1-4.2-3.1-7.8-6.3-10-.6 1.2-1.2 2.5-1.8 3.6-2.1 4.3-4.1 8.2-4.5 13.1-.3 2.8-.2 7.4-.2 10.4v2.4h-1.5c2.9.4 2.2 4.9-.7 4.5s-2.3-4.3.1-4.5h-1v-2.4c0-3 0-7.7.3-10.6.4-5.5 2.6-9.9 4.8-14.2l1.8-3.7a16.7 16.7 0 0 0-6.1-.8 14 14 0 0 0-9.6 5 24.6 24.6 0 0 0-12.2-1.9c-12.3 1.4-19 16-18.6 26.9s8.9 23.9 22.4 22.6zm54.6 2a2.2 2.2 0 0 1 2.5-1.9 2.3 2.3 0 0 1 1.8 1.3 2.4 2.4 0 0 1 .8 2.1 2.3 2.3 0 0 1-2.6 1.9h-.7a2.2 2.2 0 0 1-1.9-2.6zm-17.9-39.1v3.1c-1.5.3-4.2 6.1-6.3 11.2h.1a6.3 6.3 0 0 1 1.5 4.1 2.1 2.1 0 0 1-2.5 1.9 2.3 2.3 0 0 1-1.4-.7 4.3 4.3 0 0 0-.1.5l-2.4 5.5-2.7-1.3c.4-.8.8-1.9 1.4-3.2h-.3c-2.9-.4-2.2-4.9.7-4.5a3.3 3.3 0 0 1 1.2.5 6.1 6.1 0 0 1 .5-1.2 2.4 2.4 0 0 1 .8-2.1c4-9.2 6.7-13.7 9.5-13.8zm-9.1-4.3h.8a2.3 2.3 0 0 1 1.9 2.6 2.3 2.3 0 0 1-2.6 1.9h-.7a2.3 2.3 0 0 1-1.9-2.6 2.2 2.2 0 0 1 2.5-1.9zm-9.9 27.7c3 .4 2.3 4.9-.6 4.5s-2.2-4.9.6-4.5zm-7.2-25.6l.8-.7a2.4 2.4 0 0 1 3.2.6 2.2 2.2 0 0 1-.5 3.1l-.9.7a2.3 2.3 0 1 1-2.6-3.7z" fill="#f9d8b1"></path><path d="M597.8 183.9l-.9.4h.8a4.3 4.3 0 0 1 .1-.4z" fill="#f9d8b1"></path><path d="M244.3 220.6a37.3 37.3 0 0 0 6.5-8.7 26.5 26.5 0 0 0 3.2-14.3l.8-1.7c2.9-6.2 2.2-14.7.4-21-2.2-7.8-12.1-12.2-19.2-8.3-2.3-5.9-5.9-11.7-10-15.2a18.6 18.6 0 0 0-8.6-4.1 22.5 22.5 0 0 0-17.4-5.1c-10.8 1.3-23.7 14.9-21.2 26.4a31.7 31.7 0 0 0 6.5 13.3c.1.4.1.9.2 1.3.5 3.1 1.9 5.7 3.3 8.5l.2.5h-1.3c-6.1.7-11.3 2-16.6 5.5-10.7 7-9 21.9-6.3 32.4 1.3 5.1 5.9 10.9 11.3 11.7l2.6.2a8.4 8.4 0 0 0 4.9 5.2 8.6 8.6 0 0 0 4 .9c-3.1 8.2-2.4 16.3 6.7 20.8s17.5-.7 22.7-6.5a33.4 33.4 0 0 0 4-5.5l2.2-.8a25.8 25.8 0 0 0 9.4-7c5.1-5.5 6-14.2 6.9-21.3.6-3.9 2-4.4 4.8-7.2zm-56 16.8h-.8a2.3 2.3 0 0 1-1.9-2.6 2.3 2.3 0 0 1 2.6-1.9h.8a2.2 2.2 0 0 1 1.9 2.5 2.4 2.4 0 0 1-2.6 2zm44.8-48.2a2.4 2.4 0 0 1 2 2.6v.7a2.4 2.4 0 0 1-2.6 2h-.8a2.3 2.3 0 0 1-1.9-2.6 2.2 2.2 0 0 1 1.4-1.7 2.1 2.1 0 0 1 1.9-1zm-5.8-7.7a2.3 2.3 0 0 1 2.6-1.9 2.4 2.4 0 0 1 1.9 2.6v.7a2.3 2.3 0 0 1-2.6 1.9 2.2 2.2 0 0 1-1.9-2.5zm-10.5 1.2a2.3 2.3 0 0 1 2-.8 2.4 2.4 0 0 1 2 2.6 2.9 2.9 0 0 1-3.5 2.6 2.3 2.3 0 0 1-1.9-2.6 2.5 2.5 0 0 1 1.4-1.8zm-3 19.9c2.8.4 2.2 4.9-.7 4.5s-2.3-4.9.7-4.5zm-3.7 4.1c3.9.7 7 3 10 5.4a2.9 2.9 0 0 1 1.7-1.4 2.3 2.3 0 0 1 2.6-1.9h.9c-2.3-2.5-5-4.5-7.8-4.9h-.1l.3-3c7.5.9 13.2 9.4 17.3 16.7l-2.6 1.5a63.3 63.3 0 0 0-5.3-8.2.6.6 0 0 1-.1.4 2 2 0 0 1-1.9 1.9 1.4 1.4 0 0 1 0 .9 1.9 1.9 0 0 1-.7 1.4 16.7 16.7 0 0 0 7 3.3l-.5 3c-4.4-.6-8-3.5-11.4-6.4s-6.3-5.1-9.9-5.7zm7 15.5a2 2 0 0 1-1.5-.9 2.1 2.1 0 0 1-2.5 1.9c-2.9-.4-2.2-4.9.7-4.5a2.2 2.2 0 0 1 1.5.8 2.2 2.2 0 0 1 2.5-1.8c2.9.4 2.2 4.9-.7 4.5zm-8.9-51.7c2.9.4 2.2 4.9-.7 4.5s-2.2-4.9.7-4.5zm-6.5 41.5a2.2 2.2 0 0 1-2.5 1.6 2.2 2.2 0 0 1-1.9-2.6v-.7a2.4 2.4 0 0 1 1.4-1.8l1.2-1a2.3 2.3 0 0 1 3.2.5 2.5 2.5 0 0 1-.5 3.2 2.2 2.2 0 0 0-.9.7zm-2 24.7a2.4 2.4 0 0 1 .6-3.2l.8-.6a2.3 2.3 0 0 1 3.2.5 2.5 2.5 0 0 1-.5 3.2l-.9.6a2.4 2.4 0 0 1-3.2-.5zm32.9-8.6c-1.6 3.1-3.4 6.7-5.7 9-5.4 5.6-15.6 10.4-23.7 9.3l-1.7-.4.7-2.9c6.9 1.8 17.4-2.8 22.5-8.1a16.9 16.9 0 0 0 2.7-3.6 2.5 2.5 0 0 1-1.7.4 2.5 2.5 0 0 1-1.9-1.9 17.2 17.2 0 0 1-4.5-.2c-4.1-.5-8-2.2-9.8-4.4l2.4-1.9a8.8 8.8 0 0 0 4.2 2.5 2.2 2.2 0 0 1 2.5-2.7 2.2 2.2 0 0 1 1.4 3.6 12.9 12.9 0 0 0 4.4-.1 2.6 2.6 0 0 1 2.2-.9h.5a4.3 4.3 0 0 0 2.2-2.9l2.4.5a15.6 15.6 0 0 1 2-3l2.2 2.1a32.7 32.7 0 0 0-3.3 5.6zm-20.8-.5c2.9.4 2.3 4.9-.6 4.5s-2.3-4.9.6-4.5zm24.9-8.5c-.3-3-1.8-6.7-3.8-10.3a1.6 1.6 0 0 1-1 .1h-.7a2.2 2.2 0 0 1-1.9-2.6 2 2 0 0 1 1-1.5 31.7 31.7 0 0 0-2.8-3.4 2.3 2.3 0 0 1-2.4 1.4 2.4 2.4 0 0 1-1.9-2.6v-.8a2.7 2.7 0 0 1 .7-1.3 10.4 10.4 0 0 0-1.7-1.2l1.5-2.6c7.2 4.2 15 16.2 15.9 24.6z" fill="#f9ad81"></path><path d="M228.3 229.7l.9-1.6-.7.5z" fill="#f9ad81"></path><path d="M323.1 154.5l-1.2 1.1a2.1 2.1 0 0 1-1.5.4 28.8 28.8 0 0 0 7.1 9.3l2.2-.9 1.3 2.8-.6.3a18.5 18.5 0 0 0 3.7 1.9l1-2.9c-4.7-1.7-9.8-7-12-12z" fill="#736357"></path><path d="M331.9 150h-.2v.8a2.3 2.3 0 0 1-1.1 1.6 33.2 33.2 0 0 0 2.4 6.9c1.2 2.8 2.4 5.5 2.6 8.3l3-.2a27.1 27.1 0 0 0-2.8-9.3 29.1 29.1 0 0 1-2.3-6.4 2.2 2.2 0 0 1-1.6-1.7z" fill="#736357"></path><path d="M340.1 145a1.3 1.3 0 0 0-.1.6 1.4 1.4 0 0 1 .2-.6z" fill="#736357"></path><path d="M339.9 146.9c-.1.1-.1.4-.1.5h.2a1.3 1.3 0 0 1-.1-.5z" fill="#736357"></path><path d="M337.6 160.4l1.9 2.4c1.6-1.2 2.3-4.5 2.8-9.1h-.4a2.4 2.4 0 0 1-1.9-2l-.6.3c-.3 3.4-.9 7.7-1.8 8.4z" fill="#736357"></path><path d="M349.8 151.8c-.9 4.8-5.4 12.1-9 14.3l1.6 2.6c4.8-3 10.4-12.5 10.7-18.3h-2.5a3.7 3.7 0 0 1-.5 1.1z" fill="#736357"></path><path d="M329.7 164.4l-2.2.9c-5.8 2.1-15 4-20.2 2.7l-.8 3 1.7.3c6.9.9 16.8-1.5 22.2-3.8l.6-.3z" fill="#736357"></path><path d="M228.5 228.4v.2l.7-.5c.3-.4.5-.9.8-1.4a31 31 0 0 1 1.7-3.2l-2.4-.5a4.3 4.3 0 0 1-2.2 2.9 2.3 2.3 0 0 1 1.4 2.5z" fill="#736357"></path><path d="M224 227.7a3 3 0 0 1 .4-1 12.9 12.9 0 0 1-4.4.1 2.2 2.2 0 0 1-2.1.9 2.1 2.1 0 0 1-1.8-1.8 8.8 8.8 0 0 1-4.2-2.5l-2.4 1.9c1.8 2.2 5.7 3.9 9.8 4.4a17.2 17.2 0 0 0 4.5.2v-.7z" fill="#736357"></path><path d="M230.9 221.8l.5-3a16.7 16.7 0 0 1-7-3.3 2.6 2.6 0 0 1-1.9.6 2.4 2.4 0 0 1-1.7-1.4 2.4 2.4 0 0 1-.8-2.1c0-.2.1-.3.1-.5-3-2.4-6.1-4.7-10-5.4l-.5 3c3.6.6 6.6 3.1 9.9 5.7s7 5.8 11.4 6.4z" fill="#736357"></path><path d="M227.1 210.9a63.3 63.3 0 0 1 5.3 8.2l2.6-1.5c-4.1-7.3-9.8-15.8-17.3-16.7l-.3 3h.1c2.8.4 5.5 2.4 7.8 4.9a2.3 2.3 0 0 1 1.8 2.1z" fill="#736357"></path><path d="M223.8 194.2l-1.5 2.6a10.4 10.4 0 0 1 1.7 1.2 2.2 2.2 0 0 1 1.9-.6 2.3 2.3 0 0 1 1.9 2.6v.7a1.4 1.4 0 0 1-.2.6 31.7 31.7 0 0 1 2.8 3.4 2.6 2.6 0 0 1 1.5-.4h.8a2.3 2.3 0 0 1 1.9 2.6 2.1 2.1 0 0 1-1.6 1.8c2 3.6 3.5 7.3 3.8 10.3l3-.3c-1-8.3-8.8-20.3-16-24.5z" fill="#736357"></path><path d="M303.4 274.4a13 13 0 0 1 .8 1.7.3.3 0 0 1 .1.2l6.5-4.3-1.8-2.4-6.2 4.1a.8.8 0 0 1 .2.4z" fill="#736357"></path><path d="M299.3 277.1l-.3-.8a54.4 54.4 0 0 0-11.6 9.8l2.3 2a47.9 47.9 0 0 1 10.2-8.8c0-.1-.1-.2-.1-.4a8.4 8.4 0 0 1-.5-1.8z" fill="#736357"></path><path d="M312.7 277.9a13 13 0 0 1 1.7-2.6l-2.4-2a28 28 0 0 0-2.7 4.7 2.3 2.3 0 0 1 .2 1.2 3.1 3.1 0 0 1-1.1 2l.3.5a2.5 2.5 0 0 0 .4.7 1.9 1.9 0 0 1 1.1 1.5 40.4 40.4 0 0 1 1.5-3.9v-.6a2.5 2.5 0 0 1 1-1.5z" fill="#736357"></path><path d="M307.7 286.6l-1.4-.6c-1.6 5.4-2.9 11-3.5 14.3l2.9.6c1-4.9 2.4-10.3 3.8-14.9a2 2 0 0 1-1.8.6z" fill="#736357"></path><path d="M320.4 282.9a1.9 1.9 0 0 1 .7-1.2 50.5 50.5 0 0 0-.6-5.6 2.3 2.3 0 0 1-1.1-3.9l-2.8 1.1a31 31 0 0 1 1.5 9.5 2.5 2.5 0 0 1 1.3 2.4 2.2 2.2 0 0 1-1.4 1.8c-.1 1.7-.2 3.5-.3 4.9l3 .2c.1-2 .3-4.5.4-7.2a2.3 2.3 0 0 1-.7-2z" fill="#736357"></path><path d="M329.6 260.5v-.2a35.3 35.3 0 0 1-5 2.8v.6l-.2 1.5a2.3 2.3 0 0 1-2.6 1.9h-.3l.2.7a74.5 74.5 0 0 0 9.4-4.7 2.4 2.4 0 0 1-1.5-2.6z" fill="#736357"></path><path d="M339.1 252.6a2.5 2.5 0 0 1-1.9 1.9 35.8 35.8 0 0 1-3.6 3 2.6 2.6 0 0 1 .7 2.1l-.2 1.3c6.1-4.3 11.6-10.1 13.1-17.1l-3-.6a20.5 20.5 0 0 1-5.1 9.4z" fill="#736357"></path><path d="M317.1 265.6h.3l-.5-1.4-.7-.3a3 3 0 0 0 .9 1.7z" fill="#736357"></path><path d="M311 266.9l3.1-.4a11 11 0 0 1-.9-2.9l-3 .3a4.5 4.5 0 0 0 1.7 1.1z" fill="#736357"></path><path d="M295.2 263.1a2.3 2.3 0 0 1-.8-1.8l-3.6-1.1-2.8-.8-.9 2.9 2.8.8 4.8 1.4v-.4a3.1 3.1 0 0 1 .5-1z" fill="#736357"></path><path d="M300.1 264.1a3.7 3.7 0 0 1-.5 1.1l.6.7 3.8.7a45.3 45.3 0 0 0 5.2.3 12.3 12.3 0 0 1-2.9-3.1 59.7 59.7 0 0 1-6.1-1v1.3z" fill="#736357"></path><path d="M305 254.9l.9.7-.6-1.7v.2z" fill="#736357"></path><path d="M303 250.8h.4a2.2 2.2 0 0 1 1.1.5c-.2-.6-.3-1.3-.5-1.9l-1.4-4.8-2.9 1 1.4 4.6.3 1.3.4-.3a1.7 1.7 0 0 1 1.2-.4z" fill="#736357"></path><path d="M307.2 259l-.9-2c0 .1.1.2.1.4a2.5 2.5 0 0 1-2.4 1.9l1.2 2.7a2.3 2.3 0 0 1 2-3z" fill="#736357"></path><path d="M309.2 266.9a4.2 4.2 0 0 0 1.4.9l.4-.9.9-1.9a4.5 4.5 0 0 1-1.7-1.1l-1.1-1.3a2 2 0 0 1-2.1.9 2.2 2.2 0 0 1-1.3-.6l.6.9a12.3 12.3 0 0 0 2.9 3.1z" fill="#736357"></path><path d="M315.2 249.3a2 2 0 0 1 .4 1.6h.2c.1-2.5.2-4.7.3-6.1s.2-3.6.2-4.7h-3c0 1.1-.1 2.7-.2 4.6l-.3 3.7a2.6 2.6 0 0 1 2.4.9z" fill="#736357"></path><path d="M315.7 268.4l1.5-2.6v-.2a3 3 0 0 1-.9-1.8l-.7-.4a4.1 4.1 0 0 0 .5-.9 50.9 50.9 0 0 1-.3-7.1h-.8l-.7-.2a1.8 1.8 0 0 1-1.6-1.1 44.3 44.3 0 0 0 .5 9.4 11 11 0 0 0 .9 2.9 3.4 3.4 0 0 0 1.6 2z" fill="#736357"></path><path d="M315.5 263.4l.7.4.7.3 1.3.7 3.6-7.1c2.9-6 6-12.3 9.7-17.6l-2.5-1.8a95.3 95.3 0 0 0-5.8 9.9 2.4 2.4 0 0 1 1.7 2.5 2.3 2.3 0 0 1-2.6 1.9H321l-2 4-3 6.1a4.1 4.1 0 0 1-.5.7z" fill="#736357"></path><path d="M595.3 174.1l-.2-.2-.6-1a1.3 1.3 0 0 1-.4-1 6.1 6.1 0 0 0-.5 1.2c1.3 1.3.5 4.1-1.6 4-.6 1.3-1 2.4-1.4 3.2l2.7 1.3 2.4-5.5a4.3 4.3 0 0 1 .1-.5 2.5 2.5 0 0 1-.5-1.5z" fill="#736357"></path><path d="M595 169.8a2.3 2.3 0 0 1 3.1.4c2.1-5.1 4.8-10.9 6.3-11.2v-3.1c-2.8.1-5.5 4.6-9.4 13.9z" fill="#736357"></path><path d="M600.7 178.9a57.7 57.7 0 0 1-6.6 3.3l.4 1.1.3.3.3.6h1.8l.9-.4.6-1 .3-.4a2.2 2.2 0 0 1 2.5-1.8 2.4 2.4 0 0 1 1.3.7l.9-.5h-.8a2.5 2.5 0 0 1-1.9-1.9z" fill="#736357"></path><path d="M605 176.2a5.3 5.3 0 0 1 .2 2.8 1.8 1.8 0 0 1-.4 1 56.4 56.4 0 0 0 9.1-7 32 32 0 0 0 3.6-3.9 2.3 2.3 0 0 1-1.2-1.2 2 2 0 0 1-.8-1.2l-1.1 1.5a47.1 47.1 0 0 1-9.4 8z" fill="#736357"></path><path d="M602 185.6a2.2 2.2 0 0 1-2.5 1.7 2.2 2.2 0 0 1-1.9-2.6.4.4 0 0 1 .1-.3h-2.6a2.4 2.4 0 0 1-.8 2.6l-.5.3c8.6.8 19.2 1 26.6-1.7l-1.1-2.8c-4.6 1.6-10.7 2.1-16.7 2l-.3.6z" fill="#736357"></path><path d="M590.7 183.8z" fill="#736357"></path><path d="M590 183.8z" fill="#736357"></path><path d="M590.3 186.9a2.3 2.3 0 0 1 .4-3.1h-.1c0-.1-.1-.1-.1-.2l-.3.2h-.2l-2.1 1.3 1.1 1.6a.8.8 0 0 1 .7 0z" fill="#736357"></path><path d="M600.5 197.5a32.9 32.9 0 0 0 11.8 3.9l2.1.2.3-3a30.1 30.1 0 0 1-14-4.5l.3.3a2.3 2.3 0 0 1-.5 3.1z" fill="#736357"></path><path d="M591.1 187.6a2.3 2.3 0 0 1 .2 2.3 41.4 41.4 0 0 0 5.3 5l.3-.4.9-.6a2.2 2.2 0 0 1 2.2-.3 29.7 29.7 0 0 1-6.7-6.1 2.4 2.4 0 0 1-2.2.1z" fill="#736357"></path><path d="M653.3 300l-.4.2c2.5 3.6 5.6 6.5 8.8 7.1l.6-2.9c-2.2-.5-4.6-2.7-6.7-5.7l-1.4.8z" fill="#736357"></path><path d="M650.3 293.2a.4.4 0 0 1-.1-.3h-.2a2.2 2.2 0 0 1-1.9-2.5 2.2 2.2 0 0 1 2.2-1.9v-.3h-1.1c-2.7-.3-2.3-4.2.1-4.4 0-.4-.1-.8-.1-1.1h-.8a25.9 25.9 0 0 0-1.7 3.8 43.7 43.7 0 0 0 3.9 10l1.8-1 .9-.4c-.2.1-.1 0 0 0s-.1-.3-.2-.4a2.3 2.3 0 0 1-2.8-1.5z" fill="#736357"></path><path d="M662.3 292.2a2.2 2.2 0 0 1-1.9-2.6 3.7 3.7 0 0 1 .8-1.8l-1.2-1.1a2.1 2.1 0 0 1-2.3 1.8.4.4 0 0 0 .1.3l3.4 3.3a46.6 46.6 0 0 1 6 6.4l2.6-1.6a36.3 36.3 0 0 0-5.2-5.7 2.2 2.2 0 0 1-2.3 1z" fill="#736357"></path><path d="M657.5 284a29.7 29.7 0 0 1-4.2-5.7 2.1 2.1 0 0 1-2.2.9h-.8a31.8 31.8 0 0 0 5.3 7.4 2.4 2.4 0 0 1 1.9-2.6z" fill="#736357"></path><path d="M685.5 285.4v-.2q-5.8-5.8-18.3-8.7a1.4 1.4 0 0 1 .2.6 2.2 2.2 0 0 1 2.4.8 5 5 0 0 1 .8 2.6c7 2.2 12 5.2 14.7 9l2.1-1.5a2.2 2.2 0 0 1-1.9-2.6z" fill="#736357"></path><path d="M662.7 277.8a2.1 2.1 0 0 1-.2-2.3l-3.5-.5h-.4l-.4 3h.3l4.9.8a.1.1 0 0 0-.1-.1z" fill="#736357"></path><path d="M668.6 268.1c-3.1.4-6 .8-8.7.9v3c2.8-.1 5.8-.5 9-.9 9.1-1.2 18.5-2.5 24.8 3l2-2.3c-7.3-6.3-17.8-4.9-27.1-3.7z" fill="#736357"></path><path d="M696.9 258l.3-3c-13.8-1.9-25.4.6-38.6 8l1.4 2.6c12.9-7.2 23.5-9.4 36.9-7.6z" fill="#736357"></path><path d="M648.3 282.4l-2.7-1.4c-6.3 12.4-6.1 29.4 6.6 36.5l1.5-2.6c-6.5-3.7-9.1-10.4-9.1-17.5a2.5 2.5 0 0 1 .1-2.4 36.8 36.8 0 0 1 1.9-8.6 25.9 25.9 0 0 1 1.7-3.8z" fill="#736357"></path><path d="M231.7 223.5a31 31 0 0 0-1.7 3.2c-.3.5-.5 1-.8 1.4l-.9 1.6v.2a2.4 2.4 0 0 1-.9 1.5 16.9 16.9 0 0 1-2.7 3.6c-5.1 5.3-15.6 9.9-22.5 8.1l-.7 2.9 1.7.4c8.1 1.1 18.3-3.7 23.7-9.3 2.3-2.3 4.1-5.9 5.7-9a32.7 32.7 0 0 1 3.3-5.5l-2.2-2.1a15.6 15.6 0 0 0-2 3z" fill="#736357"></path><path d="M585.1 158.8c-.3 2.9-.3 7.6-.3 10.6v2.4h3.1v-2.4c0-3-.1-7.6.2-10.4.4-4.9 2.4-8.8 4.5-13.1.6-1.1 1.2-2.4 1.8-3.6a14.2 14.2 0 0 1 .8-1.8l-2.8-1.2-.7 1.6-1.8 3.7c-2.2 4.3-4.4 8.7-4.8 14.2z" fill="#736357"></path><path d="M311.5 152.6a2.3 2.3 0 0 0-2.6 1.9 2.4 2.4 0 0 0 2 2.6h.7a2.4 2.4 0 0 0 2.6-2 2.3 2.3 0 0 0-1.9-2.6z" fill="#f7931e"></path><path d="M311.4 147.2a3.1 3.1 0 0 0 3.5-2.6 2.3 2.3 0 0 0-1.9-2.6 2.2 2.2 0 0 0-2.1.9 2.4 2.4 0 0 0-1.4 1.7c-.1 1.1.7 2.6 1.9 2.6z" fill="#f7931e"></path><path d="M319.6 143.7v.7a2.3 2.3 0 0 0 1.9 2.6 2.3 2.3 0 0 0 2.6-1.9v-.7a2.3 2.3 0 0 0-1.9-2.6 2.3 2.3 0 0 0-2.6 1.9z" fill="#f7931e"></path><path d="M330 140.5v.8a2.3 2.3 0 0 0 1.9 2.6 2.4 2.4 0 0 0 2.6-2v-.7a2.4 2.4 0 0 0-2-2.6 2.2 2.2 0 0 0-2.5 1.9z" fill="#f7931e"></path><path d="M321.7 134.2l.9-.6a2.5 2.5 0 0 0 .5-3.2 2.3 2.3 0 0 0-3.2-.5l-.8.6a2.3 2.3 0 1 0 2.6 3.7z" fill="#f7931e"></path><path d="M337.6 129.3c2.9.5 3.6-4 .6-4.4s-3.5 4.1-.6 4.4z" fill="#f7931e"></path><path d="M347.5 135.3a2.2 2.2 0 0 0 2.5-1.9l.2-.8a2.5 2.5 0 0 0-2-2.6 2.3 2.3 0 0 0-2.5 2v.7a2.3 2.3 0 0 0 1.8 2.6z" fill="#f7931e"></path><path d="M357.2 131.3c2.9.4 3.6-4.1.7-4.5s-3.6 4.1-.7 4.5z" fill="#f7931e"></path><path d="M304.3 166.1a2.4 2.4 0 0 0-2.1.8 2.1 2.1 0 0 0-1.3 1.8 2.2 2.2 0 0 0 1.9 2.5 2.8 2.8 0 0 0 3.5-2.5 2.4 2.4 0 0 0-2-2.6z" fill="#f7931e"></path><path d="M294.4 160.2c-2.8-.4-3.5 4.1-.6 4.5s3.6-4.1.6-4.5z" fill="#f7931e"></path><path d="M314.8 229.4a2.3 2.3 0 0 0 1.9 2.6 2.3 2.3 0 0 0 2.6-1.9v-.8a2.4 2.4 0 0 0-2-2.6 2.3 2.3 0 0 0-2.5 2z" fill="#f7931e"></path><path d="M308.6 229.3c2.9.5 3.6-4 .7-4.4s-3.6 4.1-.7 4.4z" fill="#f7931e"></path><path d="M295.6 235.2c2.9.4 3.6-4.1.7-4.5s-3.6 4.1-.7 4.5z" fill="#f7931e"></path><path d="M294.4 249.6c2.9.4 3.6-4.1.7-4.5s-3.6 4.1-.7 4.5z" fill="#f7931e"></path><path d="M306.4 257.4c0-.2-.1-.3-.1-.4a2.3 2.3 0 0 0-.4-1.4l-.9-.7.3-.8v-1.2a2.7 2.7 0 0 0-.5-1.1l-.4-.4a2.2 2.2 0 0 0-1.1-.5h-.3a1.7 1.7 0 0 0-1.2.4l-.4.3a4.3 4.3 0 0 0-1.5 2.6 2.4 2.4 0 0 0 1.3 2.4c-.1 0-.1 0-.1.1a2.3 2.3 0 0 0 1.9 2.6h1a2.5 2.5 0 0 0 2.4-1.9z" fill="#f7931e"></path><path d="M309.1 262.6a2.3 2.3 0 0 0-1.4-3.6h-.5a2.3 2.3 0 0 0-2 3 1.9 1.9 0 0 0 .5.9 2.2 2.2 0 0 0 1.3.6 2 2 0 0 0 2.1-.9z" fill="#f7931e"></path><path d="M314.3 255.3l.7.2h.7a2.3 2.3 0 0 0 1.9-1.9 2.3 2.3 0 0 0-1.8-2.5h-.2a2 2 0 0 0-.4-1.6 2.6 2.6 0 0 0-2.4-.9l-.8.4h-.2c.4-.1-.3 0-.4-.1l-1.2.2-1.1-.5h-.7a2.4 2.4 0 0 0-2.6 1.9 2.2 2.2 0 0 0 1.9 2.6h.8a2.6 2.6 0 0 1 2.2.3h1.6a1.9 1.9 0 0 0 .4.9 1.8 1.8 0 0 0 1.6 1z" fill="#f7931e"></path><path d="M324.4 265.2l.2-1.5v-.6a2.3 2.3 0 0 0-4.5-.1l-.2 1.5a2.2 2.2 0 0 0 1.6 2.5h.3a2.3 2.3 0 0 0 2.6-1.8z" fill="#f7931e"></path><path d="M320.5 276.1h.1c2.9.4 3.6-4.1.7-4.5a2.1 2.1 0 0 0-1.9.6 2.3 2.3 0 0 0 1.1 3.9z" fill="#f7931e"></path><path d="M317 280.2a2.3 2.3 0 0 0-1.9-2.6h-.8a2.2 2.2 0 0 0-1.6.4 2.5 2.5 0 0 0-1 1.5v.6a2.2 2.2 0 0 0 1.9 2h.8a2.3 2.3 0 0 0 2.6-1.9z" fill="#f7931e"></path><path d="M309.1 282.4a2.5 2.5 0 0 1-.4-.7l-.3-.5a3.1 3.1 0 0 0 1.1-2 2.3 2.3 0 0 0-.2-1.2 2.2 2.2 0 0 0-1.7-1.4h-.5a2.1 2.1 0 0 0-1.9.3l-.5.4a.6.6 0 0 0-.1-.4 1.1 1.1 0 0 1-.3-.6.3.3 0 0 0-.1-.2 13 13 0 0 0-.8-1.7l-.4-.3a.8.8 0 0 0-.2-.4h-.1a2.1 2.1 0 0 0-2.3-.9v-.8a2.4 2.4 0 0 0 .2-.8 10.5 10.5 0 0 0-.3-5 .3.3 0 0 0-.1-.2l-.6-.7a3.7 3.7 0 0 0 .5-1.1v-1.3a2.2 2.2 0 0 0-1.2-1.7v-.9a2.3 2.3 0 0 0-4.5-.7l-.2 1.5v.3a2.3 2.3 0 0 0 .8 1.8 3.1 3.1 0 0 0-.5 1v.4l-.4 2.6a2.3 2.3 0 0 0 1.4 2.4 2.5 2.5 0 0 0 .1 2.5.1.1 0 0 0 .1.1c0-.4 0 .4-.1.5a2.4 2.4 0 0 0 2 2.6h.9a1.6 1.6 0 0 0 .3.9l.3.8a8.4 8.4 0 0 0 .5 1.7c0 .2.1.3.1.4a4.3 4.3 0 0 0 3.1 2.9 1.4 1.4 0 0 0 .9-.1 2 2 0 0 0 .3 1.1l1.1 1.8a5.5 5.5 0 0 0 1 1.1l1.4.6a2 2 0 0 0 1.8-.6 2.9 2.9 0 0 0 .8-1.4 1.7 1.7 0 0 0-.1-.7 1.9 1.9 0 0 0-.9-1.4z" fill="#f7931e"></path><path d="M322.3 252.6a2.3 2.3 0 0 0 2.6-1.9 2.4 2.4 0 0 0-1.7-2.5h-1a2.3 2.3 0 0 0-2.6 1.9 2.3 2.3 0 0 0 1.4 2.5h1.3z" fill="#f7931e"></path><path d="M327.8 251.9c-2.9-.4-3.6 4-.7 4.4s3.6-4.1.7-4.4z" fill="#f7931e"></path><path d="M333.6 257.6a1.7 1.7 0 0 0-1.2-.5 2.3 2.3 0 0 0-2.6 1.9l-.2 1.3v.2a2.4 2.4 0 0 0 1.5 2.5h.4a2.4 2.4 0 0 0 2.6-1.9v-.1l.2-1.3a2.6 2.6 0 0 0-.7-2.1z" fill="#f7931e"></path><path d="M332.9 275.5a2.3 2.3 0 0 0 2.6-1.9c.3-2-.4-3.7-2.5-4.2a2.3 2.3 0 0 0-2.6 1.9 2.3 2.3 0 0 0 .6 1.8 2.2 2.2 0 0 0 1.9 2.4z" fill="#f7931e"></path><path d="M334 278.7a2.3 2.3 0 0 0-1.9-2.6 2.3 2.3 0 0 0-1.8.6 2.2 2.2 0 0 0-2.4 1.9 2.3 2.3 0 0 0 1.9 2.6c2 .2 3.7-.4 4.2-2.5z" fill="#f7931e"></path><path d="M325.3 281.3l-2.3-.3a2.3 2.3 0 0 0-1.9.7 1.9 1.9 0 0 0-.7 1.2 2.3 2.3 0 0 0 .7 1.9 1.9 1.9 0 0 0 1.3.7l2.2.3a2.3 2.3 0 0 0 .7-4.5z" fill="#f7931e"></path><path d="M319.4 285.1a2.5 2.5 0 0 0-1.3-2.4l-.6-.2-3.1-.4h-.7a2.4 2.4 0 0 0-2.6 1.9 2.2 2.2 0 0 0 1.9 2.6l3.8.5a2.5 2.5 0 0 0 1.2-.1 2.2 2.2 0 0 0 1.4-1.9z" fill="#f7931e"></path><path d="M323.1 154.5a6.9 6.9 0 0 0 1.6-3.2 2.3 2.3 0 1 0-4.5-.6c-.1.1 0 .2-.1.2v.2h-.2c-2.6-.1-3.2 4.1-.4 4.5h1a2.1 2.1 0 0 0 1.5-.4z" fill="#f7931e"></path><path d="M331.6 150.8v-1.6a2.1 2.1 0 0 0-1.9-2.5 2.3 2.3 0 0 0-2.6 1.9l-.2 1.5a2.3 2.3 0 0 0 2 2.5 2.3 2.3 0 0 0 1.4-.2 2.3 2.3 0 0 0 1.3-1.6z" fill="#f7931e"></path><path d="M341.9 153.7h.4a2.4 2.4 0 0 0 2.2-2v-.7a1.7 1.7 0 0 0-.2-1.2l.5-.3a1.4 1.4 0 0 0-.2.7 3.1 3.1 0 0 0 2.6 3.4 2.2 2.2 0 0 0 2.5-1.7l.3-.4a3.7 3.7 0 0 0 .5-1.1c.1 0 .1-.1.1-.2a2.5 2.5 0 0 0 2.5-.1l.8-.7a2.2 2.2 0 0 0 .6-3.1 2.4 2.4 0 0 0-3.2-.6l-.9.7a2 2 0 0 0-.7.9l-.8-.2h-.9l-.7.4h-.1v.2a2 2 0 0 0-.6.7 2.3 2.3 0 0 0-1.2.6 2.3 2.3 0 0 0-1-3.2 2.1 2.1 0 0 0-1.9-1.9 2.4 2.4 0 0 0-2.3 1.2 1.4 1.4 0 0 0-.2.6v.8c-.1.1-.1.2 0 .4a1.3 1.3 0 0 0 .1.6h-.2l-.8-.2a1.9 1.9 0 0 0-2 .8l-.6.3a2.4 2.4 0 0 0-1.9-1.8 2.2 2.2 0 0 0-2.5 1.9l-.2.8a2.5 2.5 0 0 0 .1.8 2.2 2.2 0 0 0 1.5 1.7h.4a2.3 2.3 0 0 0 2-.8 2.1 2.1 0 0 0 1.7 1.3 3 3 0 0 0 1.9-.3l.6-.3a2.4 2.4 0 0 0 1.8 2z" fill="#f7931e"></path><path d="M351.2 247.4h.8a2.3 2.3 0 1 0 .7-4.5h-.8a2.4 2.4 0 0 0-2.6 1.9 2.4 2.4 0 0 0 1.9 2.6z" fill="#f7931e"></path><path d="M338.8 238.1h.7a2.4 2.4 0 0 0 2.6-1.9 2.2 2.2 0 0 0-1.9-2.6h-.8a2.2 2.2 0 0 0-2.5 1.9 2.3 2.3 0 0 0 1.9 2.6z" fill="#f7931e"></path><path d="M339.1 252.7a2.3 2.3 0 0 0-1.9-2.5l-1.5-.2a2.3 2.3 0 0 0-2.6 1.9 2.3 2.3 0 0 0 1.9 2.6l1.5.2h.7a2.5 2.5 0 0 0 1.9-2z" fill="#f7931e"></path><path d="M352.8 269.8c2.9.4 3.6-4.1.7-4.5s-3.6 4.1-.7 4.5z" fill="#f7931e"></path><path d="M332.6 294.6a2.2 2.2 0 0 0-.6 4.4 2.2 2.2 0 0 0 .6-4.4z" fill="#f7931e"></path><path d="M298.2 300.5v.3c-.4 2.9 4.1 3.6 4.5.7v-.3c.3-2.9-4.1-3.6-4.5-.7z" fill="#f7931e"></path><path d="M276.8 289.2h-.7a2.2 2.2 0 0 0-2.6 1.9 2.3 2.3 0 0 0 1.9 2.6h.7a2.3 2.3 0 0 0 2.6-1.9 2.3 2.3 0 0 0-1.9-2.6z" fill="#f7931e"></path><path d="M283.1 271a2.3 2.3 0 0 0-2.6 1.9l-.2 1.5a2.3 2.3 0 0 0 1.9 2.5 2.2 2.2 0 0 0 2.6-1.8l.2-1.6a2.2 2.2 0 0 0-1.9-2.5z" fill="#f7931e"></path><path d="M280.9 253.1l.4-2.2a2.3 2.3 0 0 0-4.6-.7l-.3 2.3a2.3 2.3 0 0 0 1.9 2.5 2.2 2.2 0 0 0 2.6-1.9z" fill="#f7931e"></path><path d="M234.5 207a2.3 2.3 0 0 0-1.9-2.6h-.8a2.6 2.6 0 0 0-1.5.4 2 2 0 0 0-1 1.5 2.2 2.2 0 0 0 1.9 2.6h.7a1.6 1.6 0 0 0 1-.1 2.1 2.1 0 0 0 1.6-1.8z" fill="#f7931e"></path><path d="M220.8 214.7a2.4 2.4 0 0 0 1.7 1.4 2.6 2.6 0 0 0 1.9-.6 1.9 1.9 0 0 0 .7-1.4 1.4 1.4 0 0 0 0-.9 2 2 0 0 0 1.9-1.9.6.6 0 0 0 .1-.4 2.3 2.3 0 0 0-1.8-2.1h-.9a2.3 2.3 0 0 0-2.6 1.9 2.9 2.9 0 0 0-1.7 1.4c0 .2-.1.3-.1.5a2.4 2.4 0 0 0 .8 2.1z" fill="#f7931e"></path><path d="M215.3 219.5a2.2 2.2 0 0 0-1.5-.8c-2.9-.4-3.6 4.1-.7 4.5a2.1 2.1 0 0 0 2.5-1.9 2 2 0 0 0 1.5.9c2.9.4 3.6-4.1.7-4.5a2.2 2.2 0 0 0-2.5 1.8z" fill="#f7931e"></path><path d="M217.9 227.7a2.3 2.3 0 0 0 .7-4.5 2.2 2.2 0 0 0-2.5 2.7 2.1 2.1 0 0 0 1.8 1.8z" fill="#f7931e"></path><path d="M228.3 229.9v-.2l.2-1.1v-.2a2.3 2.3 0 0 0-1.4-2.5h-.5a2.6 2.6 0 0 0-2.2.9 3 3 0 0 0-.4 1l-.2 1.5v.7a2.5 2.5 0 0 0 1.9 1.9 2.5 2.5 0 0 0 1.7-.4 2.4 2.4 0 0 0 .9-1.6z" fill="#f7931e"></path><path d="M227.8 200a2.3 2.3 0 0 0-1.9-2.6 2.2 2.2 0 0 0-1.9.6 2.7 2.7 0 0 0-.7 1.3v.8a2.4 2.4 0 0 0 1.9 2.6 2.3 2.3 0 0 0 2.4-1.4 1.4 1.4 0 0 0 .2-.6z" fill="#f7931e"></path><path d="M229.7 191.8a2.3 2.3 0 0 0 1.9 2.6h.8a2.4 2.4 0 0 0 2.6-2v-.7a2.4 2.4 0 0 0-2-2.6 2.1 2.1 0 0 0-2 .9 2.2 2.2 0 0 0-1.3 1.8z" fill="#f7931e"></path><path d="M217.3 187.1a2.9 2.9 0 0 0 3.5-2.6 2.4 2.4 0 0 0-2-2.6 2.3 2.3 0 0 0-2 .8 2.5 2.5 0 0 0-1.4 1.8 2.3 2.3 0 0 0 1.9 2.6z" fill="#f7931e"></path><path d="M207.5 175c2.9.4 3.6-4.1.7-4.5s-3.6 4.1-.7 4.5z" fill="#f7931e"></path><path d="M213.1 207.1c2.9.4 3.5-4.1.7-4.5s-3.6 4.1-.7 4.5z" fill="#f7931e"></path><path d="M203.2 208a2.3 2.3 0 0 0-3.2-.5l-1.2 1a2.4 2.4 0 0 0-1.4 1.8v.7a2.2 2.2 0 0 0 1.9 2.6 2.2 2.2 0 0 0 2.5-1.6h.1a2.2 2.2 0 0 1 .9-.7 2.5 2.5 0 0 0 .4-3.3z" fill="#f7931e"></path><path d="M211.8 227.6c-2.9-.4-3.5 4.1-.6 4.5s3.5-4.1.6-4.5z" fill="#f7931e"></path><path d="M203.8 236.6a2.5 2.5 0 0 0 .5-3.2 2.3 2.3 0 0 0-3.2-.5l-.8.6a2.3 2.3 0 1 0 2.6 3.7z" fill="#f7931e"></path><path d="M189 232.9h-.8a2.3 2.3 0 0 0-2.6 1.9 2.3 2.3 0 0 0 1.9 2.6h.8a2.4 2.4 0 0 0 2.6-2 2.2 2.2 0 0 0-1.9-2.5z" fill="#f7931e"></path><path d="M585.7 176.3c2.9.4 3.6-4.1.7-4.5h-.6c-2.4.2-2.8 4.1-.1 4.5z" fill="#f7931e"></path><path d="M584.7 183.8c2.9.4 3.6-4.1.6-4.5s-3.5 4.1-.6 4.5z" fill="#f7931e"></path><path d="M595.1 184.2l-.3-.6-.3-.3a2.3 2.3 0 0 0-2.9-.2l-.8.6h-.1a2.3 2.3 0 0 0-.4 3.1h-.6a.8.8 0 0 0-.7 0c-2.3.3-2.7 4.1 0 4.5a2.1 2.1 0 0 0 2.3-1.4 2.3 2.3 0 0 0-.2-2.3 2.4 2.4 0 0 0 2.2-.1h.1l.4-.3.5-.3a2.4 2.4 0 0 0 .8-2.7z" fill="#f7931e"></path><path d="M598.7 182.5l-.3.4-.6 1a4.3 4.3 0 0 0-.1.5.4.4 0 0 0-.1.3 2.2 2.2 0 0 0 1.9 2.6 2.2 2.2 0 0 0 2.5-1.7l.3-.4.3-.6a5 5 0 0 0 .5-1.3 2 2 0 0 0-.6-1.9 2.4 2.4 0 0 0-1.3-.7 2.2 2.2 0 0 0-2.5 1.8z" fill="#f7931e"></path><path d="M605 176.2a3.4 3.4 0 0 0-.6-1.2 2.2 2.2 0 0 0-3.2-.5 2.2 2.2 0 0 0-.5 3.1h.1c0-.4-.1.4-.1.5v.6a2.5 2.5 0 0 0 1.9 2h.8a2.6 2.6 0 0 0 1.4-.9 1.8 1.8 0 0 0 .4-1 5.3 5.3 0 0 0-.2-2.6z" fill="#f7931e"></path><path d="M595 169.8h-.1a2.4 2.4 0 0 0-.8 2.1 1.3 1.3 0 0 0 .4 1l.6 1 .2.2a2.5 2.5 0 0 0 .5 1.5 2.3 2.3 0 0 0 1.4.7 2.1 2.1 0 0 0 2.5-1.9 6.3 6.3 0 0 0-1.5-4.1h-.1a2.3 2.3 0 0 0-3.1-.5z" fill="#f7931e"></path><path d="M593.6 173.1a3.3 3.3 0 0 0-1.2-.5c-2.9-.4-3.6 4.1-.7 4.5h.3c2.1.1 2.9-2.7 1.6-4z" fill="#f7931e"></path><path d="M597.8 193.9l-.9.6-.3.4a2.3 2.3 0 0 0-.2 2.8 2.4 2.4 0 0 0 3.2.5 2.7 2.7 0 0 0 .8-.7h.1a2.3 2.3 0 0 0 .5-3.1l-.3-.3a1.8 1.8 0 0 0-.7-.5 2.2 2.2 0 0 0-2.2.3z" fill="#f7931e"></path><path d="M624 198.3h.7a2.3 2.3 0 0 0 2.6-1.9 2.4 2.4 0 0 0-.8-2.1 2.3 2.3 0 0 0-1.8-1.3 2.2 2.2 0 0 0-2.5 1.9v.7a2.2 2.2 0 0 0 1.8 2.7z" fill="#f7931e"></path><path d="M624.1 174.7a2.3 2.3 0 0 0 2.6-2v-.7a2.3 2.3 0 0 0-1.9-2.6 2.3 2.3 0 0 0-2.6 1.9v.8a2.4 2.4 0 0 0 1.9 2.6z" fill="#f7931e"></path><path d="M616.3 167.9a2.3 2.3 0 0 0 1.2 1.2h.5a2.3 2.3 0 0 0 2.6-1.9 2.9 2.9 0 0 0-2.6-3.4 2.3 2.3 0 0 0-2.6 1.9 2.8 2.8 0 0 0 .1.9 2 2 0 0 0 .8 1.3z" fill="#f7931e"></path><path d="M608.2 157.2a4.9 4.9 0 0 0 1.7 0 4.1 4.1 0 0 0 2.3-.9 2.2 2.2 0 0 0 .5-3.1 2.3 2.3 0 0 0-3.2-.5h-.2c.4-.1-.3-.1-.5-.1a2.2 2.2 0 0 0-2.5 1.9 2.3 2.3 0 0 0 1.9 2.7z" fill="#f7931e"></path><path d="M594.6 156.1h.7a2.3 2.3 0 0 0 2.6-1.9 2.3 2.3 0 0 0-1.9-2.6h-.8a2.2 2.2 0 0 0-2.5 1.9 2.3 2.3 0 0 0 1.9 2.6z" fill="#f7931e"></path><path d="M580.7 157.4l.9-.7a2.2 2.2 0 0 0 .5-3.1 2.4 2.4 0 0 0-3.2-.6l-.8.7a2.3 2.3 0 1 0 2.6 3.7z" fill="#f7931e"></path><path d="M654 275.1a2.4 2.4 0 0 0 2.6-2v-.7a2.4 2.4 0 0 0-1.9-2.6 2.2 2.2 0 0 0-2.6 1.9v.8a2.3 2.3 0 0 0 1.9 2.6z" fill="#f7931e"></path><path d="M651.1 279.2a2.1 2.1 0 0 0 2.2-.9 3 3 0 0 0 .4-1 2.3 2.3 0 0 0-1.9-2.6h-.8a2.2 2.2 0 0 0-.7 4.4h.8z" fill="#f7931e"></path><path d="M649.1 288.1h1.1c2-.7 2.1-4.1-.4-4.5h-.6c-2.4.3-2.8 4.2-.1 4.5z" fill="#f7931e"></path><path d="M666.1 280.5c-.2-.3 0 .1 0 0z" fill="#f7931e"></path><path d="M667.4 277.1a1.4 1.4 0 0 0-.2-.6c0-.2-.1-.3-.2-.5l-.6-.8a2.3 2.3 0 0 0-3.2-.5 2.7 2.7 0 0 0-.7.8 2.1 2.1 0 0 0 .2 2.3l.6.9a.1.1 0 0 1 .1.1 2.1 2.1 0 0 0 2.3.7 3 3 0 0 0 .4 1v1.5a2.6 2.6 0 0 0 .7 2.1 2.1 2.1 0 0 0-1.3 1.7l-.2 1.3a2.3 2.3 0 0 0-3-.4 11.3 11.3 0 0 0-1.1 1.1 3.7 3.7 0 0 0-.8 1.8 2.3 2.3 0 0 0 4.2 1.6l.3-.7h.1a2.8 2.8 0 0 0 .8-1.5 2.4 2.4 0 0 0 1.4.9 2.3 2.3 0 0 0 2.6-2l.2-1.5a2.5 2.5 0 0 0-.7-2 2.4 2.4 0 0 0 1.2-1.7 7.9 7.9 0 0 0 .1-2.2 5 5 0 0 0-.8-2.6 2.2 2.2 0 0 0-2.4-.8z" fill="#f7931e"></path><path d="M661.8 285.3c2.9.4 3.5-4.1.6-4.5s-3.6 4.1-.6 4.5z" fill="#f7931e"></path><path d="M660 286.7a2.2 2.2 0 0 0-1.8-2.7h-.7a2.4 2.4 0 0 0-1.9 2.5l.3 1a2.4 2.4 0 0 0-2.1 1.3 2.3 2.3 0 0 0-3.2-.5h-.3a2.2 2.2 0 0 0-2.2 1.9 2.2 2.2 0 0 0 1.9 2.5h.2a.4.4 0 0 0 .1.3 2.3 2.3 0 0 0 2.7 1.4c.1 0 .2 0 .2-.1a12.8 12.8 0 0 0 3.8-2.1l.3-.2a3.3 3.3 0 0 0 .7-1.3v-.7a3.2 3.2 0 0 0-.3-1.4.4.4 0 0 1-.1-.3 2.1 2.1 0 0 0 2.4-1.6z" fill="#f7931e"></path><path d="M644.6 297.4a2.4 2.4 0 0 0 1.6 1.1c2.9.3 3.6-4.2.7-4.5a2 2 0 0 0-2.2 1 2.5 2.5 0 0 0-.1 2.4z" fill="#f7931e"></path><path d="M653.2 295l-.9.4-1.8 1c-.1.1-.2.1-.2.2a2.2 2.2 0 0 0-.6 3.1 2.4 2.4 0 0 0 3.2.6l.4-.2.9-.4 1.4-.8.6-.4a2.3 2.3 0 0 0-2.6-3.7l-.4.3z" fill="#f7931e"></path><path d="M698.6 262a2.8 2.8 0 0 0-3.4 2.6 2.3 2.3 0 0 0 1.9 2.6 2.2 2.2 0 0 0 2.1-.9 2 2 0 0 0 1.3-1.7 2.3 2.3 0 0 0-1.9-2.6z" fill="#f7931e"></path><path d="M684.2 278.6a2.7 2.7 0 0 1 .8-.7 2.2 2.2 0 0 0 .5-3.2 2.3 2.3 0 0 0-3.1-.5l-.9.7a2.1 2.1 0 0 0-.5 3.1 2.4 2.4 0 0 0 3.2.6z" fill="#f7931e"></path><path d="M689.5 283.7l-1.5-.2a2.4 2.4 0 0 0-2.5 1.7v.2a2.2 2.2 0 0 0 1.9 2.6l1.5.2a2.3 2.3 0 0 0 2.6-1.9 2.4 2.4 0 0 0-2-2.6z" fill="#f7931e"></path><path d="M706.3 287.1a2.3 2.3 0 0 0-1.7-1.3 2.2 2.2 0 0 0-2.6 1.9v.7a2.2 2.2 0 0 0 1.9 2.6h.7a2.3 2.3 0 0 0 2.6-1.9 2.4 2.4 0 0 0-.9-2z" fill="#f7931e"></path><path d="M711.3 291.9l-1.7 1.3a2.4 2.4 0 0 0-.6 3.2 2.3 2.3 0 0 0 3.2.5l1.7-1.3a2.2 2.2 0 0 0 .5-3.2 2.3 2.3 0 0 0-3.1-.5z" fill="#f7931e"></path><path d="M679 299.1a2.3 2.3 0 0 0-2.6 1.9v.8a2.4 2.4 0 0 0 2 2.6 2.3 2.3 0 0 0 2.5-1.9l.2-.8a2.4 2.4 0 0 0-2.1-2.6z" fill="#f7931e"></path><path d="M666.4 309.6h-1a2.3 2.3 0 0 0-.7 4.5h1a2.3 2.3 0 0 0 2.6-1.9 2.4 2.4 0 0 0-1.9-2.6z" fill="#f7931e"></path><path d="M656 316.6h-.7a2.3 2.3 0 0 0-2.6 1.9 2.3 2.3 0 0 0 1.9 2.6h.7a2.3 2.3 0 0 0 .7-4.5z" fill="#f7931e"></path><path d="M674.2 322.9a2.2 2.2 0 0 0-2.3 1.3c-.1.1-.3.2-.4.4a3 3 0 0 0-.8 1.6 2.3 2.3 0 0 0 1.9 2.6 2.2 2.2 0 0 0 2.4-1.3l.4-.4a4 4 0 0 0 .8-1.6 2.4 2.4 0 0 0-2-2.6z" fill="#f7931e"></path><path d="M229.1 184.8a2.3 2.3 0 0 0 2.6-1.9v-.7a2.4 2.4 0 0 0-1.9-2.6 2.3 2.3 0 0 0-2.6 1.9v.8a2.2 2.2 0 0 0 1.9 2.5z" fill="#f7931e"></path><path d="M300.5 132.7c-2.9-.4-3.6 4.1-.7 4.5s3.6-4.1.7-4.5z" fill="#f7931e"></path><path d="M331.1 115.5h.7a2.4 2.4 0 0 0 2.6-1.9 2.3 2.3 0 0 0-1.9-2.6h-.8a2.1 2.1 0 0 0-2.5 1.9 2.3 2.3 0 0 0 1.9 2.6z" fill="#f7931e"></path><g><path d="M531.3 225.6c-1.6-.1-1.7-1.5-3.6-1.2a8.1 8.1 0 0 0-1.2 5.9c4 .8 4.3-2 4.8-4.7zm-26.1 11.8c1.6-1.1 2.4-3.2 3.6-4.7s6.2 1.2 6-1.5a3.7 3.7 0 0 0 1.5-.8 4.5 4.5 0 0 0 1-3v-.4l.3-1.6c1.3-4.8-.8-8.8.7-12.8 2.6-1 4.1-3.1 8.3-2.4 2.3 4.1 1.4 11.2 7.1 11.8 6.3-3.3-.5-12.4 7.1-14.1 1 2.6 5.5 1.5 5.9 4.7-1.5 3.6-3.2 8.4-4.7 10.6s-3 1.1-2.4 3.6 3 1.6 4.8 2.3 2.7-.5 3.5 0-.2 2.8 1.2 2.4c-1.4 1.8-1.5 4.9-3.6 5.9-3.6 3.1-4.7-4-10.6-2.4-2.6 4.2.9 7.2-1.2 11.9-3.3 1.2-11 2.3-14.2 0 0-3.7 2.8-7.7 0-10.6-2.8.6-6.1.9-5.9 4.7-4.6.5-7.5-.6-8.4-3.6z" fill="#b2c1df"></path><path d="M564.3 341.4c-.5 1.8-1.7 3-2.3 4.8-3 .2-4.9-.6-5.9-2.4-.4-4.1 6.2-4.3 8.2-2.4z" fill="#b2c1df"></path><path d="M556.1 343.8c1 1.8 2.9 2.6 5.9 2.4.6-1.8 1.8-3 2.3-4.8-2-1.9-8.6-1.7-8.2 2.4zm-6 5.9c-1.8-3.6-9.6-1.3-10.6-5.9.7-6 9.6-3.7 13-7.1-.5-2.2-2.5-2.9-2.4-5.9 4.3-2.9 8-9.7 15.4-5.9.8 4.3-2.5 4.5-2.3 8.3a5.4 5.4 0 0 1 1.1 3.5c1.9.1 4.5-.5 4.8 1.2 3.6-.7 3.3-5.4 5.9-7.1 5.7.3 4.5 4.9 3.5 9.5-3 3.3-8.1 4.4-11.8 7 1 3.7 2.6 6.9 8.3 6 .9 7.3-4.5 7.3-9.5 5.9-1.6-1.5-.5-5.8-3.5-5.9-.1 1.2-3.2.4-3.6 1.2s.7 3.5 0 4.7-2.7 2.8-3.5 4.7c-1.9-1.6-6.1-1-7.1-3.5-3.1-3.7 4-4.8 2.3-10.7z" fill="#b2c1df"></path><path d="M524.1 362.8c.4-4.5 6-9 10.7-8.3 3.8 5.1.5 12.7-2.4 17.7-6.2-.3-8.7-4.3-8.3-9.4z" fill="#6ac955"></path><path d="M514.7 268.2c-3.7.1-5.7-1.5-8.3-2.4.2-1.4-.2-2.1-1.2-2.4-1.4-9.3 6.6-11.1 10.7-5.9a27 27 0 0 1-1.2 10.7z" fill="#6ac955"></path><path d="M449.7 214.9c-2.4-1.9-2.8-5.9-2.4-10.6 4.6-.5 8.4-2.6 5.9-7.1-1-1.7-3.8-1.7-5.9-2.3-.5-2.3-2.6-3-2.4-5.9h8.3c2.2-.3-1-1.9 0-3.6s3.1-.8 3.5-1.2 3.1-5.9 4.8-7 5.7-.3 7.1 1.1c.7 5-3.9 4.8-3.6 9.5 2.7 5.6 6.6 1.7 11.8 1.2 2.9 3.1-1.5 6.2-2.3 9.4-4.2-.3-7.1.8-8.3 3.6s3.5 5.1 8.3 4.7v5.9c-3.4-1-3.1 1.7-5.9 1.2-.5-1.5-2.6-1.4-3.6-2.4s-.1-3.8-2.3-3.5c-5.8.9-4.2 9.2-13 7z" fill="#b2c1df"></path><path d="M442.6 441.9c2.7-2.6 5.6-5.4 8.2-8.2s6.1-5.5 7.1-9.5c4.2-.2 4.5-4.2 8.3-4.7-.1-2.2 1.6-4.6 3.5-4.7.2-.1 5.9-5.8 7.1-7.2s3-4.1 4.8-5.9 4-3 5.9-4.7 1.3-2.7 2.4-3.5 2.5-.4 3.5-1.2 1.4-2.9 2.4-3.6 2.5-.3 3.5-1.1 4.1-3.1 5.9-4.8 2.7-5.2 5.9-4.7c-1.1.6-.5 2.3-1.1 3.6s-2 1.6-2.4 2.3-.5 2.4-1.2 3.6-1.8 1.6-2.3 2.3-1.8 1.5-2.4 2.4-2.1 3.6-3.6 5.9c-.4.7-1.1-.2-1.1 1.2s-3.1 3.8-4.8 5.9-.3 2.6-1.1 3.5-4.8 3.6-7.2 6-3.4 3.9-7.1 5.9c-.5.3.2 1.1-1.1 1.2s-2.9 2.3-4.8 3.5-2.4.5-3.5 1.2.1 1.1-1.2 1.2-3 2.3-4.7 3.5-6.4 3.9-9.5 5.9c-.9.6-1.2 1.7-2.3 2.4s-4.4 2.1-7.1 3.5c-1.4-.2-.7-1.2 0-1.2z" fill="#6ac955"></path><path d="M430.8 225.6c-3.5-7.3.3-14.7 9.4-13-.1 4.8 3.9 5.6 2.4 11.8-4.1.3-6.8 1.9-11.8 1.2z" fill="#6ac955"></path><path d="M439 407.6a77.8 77.8 0 0 0-7.1 11.9c-2.8-1.4 1.1-4.4 1.2-5.9s2.6-5.7 3.6-8.3.4-2.9 1.1-4.7 1.1.1 1.2-1.2 2.2-2.6 2.4-4.8c0-.5.9-1.7 1.2-2.3s-.4-2.1 0-2.4 1.1.2 1.2 0-.4-2.1 0-2.3 1 .1 1.1 0-.4-2.1 0-2.4 2.3-.9 2.4-1.2-.3-2 0-2.3 1.1.1 1.2 0-.4-2.1 0-2.4 1.1.1 1.2 0-.4-2.1 0-2.4 1.1.2 1.1 0-.3-2 0-2.3 1.1.1 1.2 0-.3-2.1 0-2.4c1.8-1.5 1.9-2.2 3.6-4.7.2-.4.8-3.3 1.1-3.6s1.2.2 1.2 0-.3-2.1 0-2.3 4.7-5.8 4.8-8.3 2.3-5.2 3.5-7.1 1.1.2 1.2-1.2 2.2-2.6 2.3-4.7a4.8 4.8 0 0 1 0-1.2c.7-1.2 2.9-2.4 3.6-3.6s-.4-2 0-2.3 2.2-.9 2.4-1.2-.4-2.1 0-2.4 1.1.2 1.1 0-.3-2 0-2.3 3.7-6.2 4.8-9.5a57.6 57.6 0 0 1 2.3-7.1c.3-.6 1.2.1 1.3-1.2a5.6 5.6 0 0 1 1.1-3.5c.3-.4.8-3.2 1.2-3.5s1.1.1 1.2 0-.3-2.2 0-2.4a10.9 10.9 0 0 0 2.4-2.4c.9-1.5 2.9-5.4 4.7-8.3.2-.4.8-3.2 1.2-3.5s1 .1 1.1 0-.3-2.1 0-2.4a6.2 6.2 0 0 0 2.4-2.4c.6-.9 1.4-2.7 2.4-4.7 1.3-.2 2.1.3 2.3 1.2-.6 3.6-2.3 7.3-3.5 10.6s-1.2 6.1-2.4 8.4c-.3.4-.8.2-1.2 1.1-2.4 6.8-4.5 13.6-7 20.1-1.5 3.6-2.1 7.3-3.6 10.6-.3.6-2.2.8-2.3 1.2s.4 2.6 0 3.6-1.2-.1-1.3 1.2a7.3 7.3 0 0 1-1.2 2.3c-.2.5.4 2.1 0 2.4s-1.9 2.1-3.5 4.7c-.2.4-.8 3.3-1.2 3.5s-1.1-.1-1.2 0 .4 2.2 0 2.4-1.1-.1-1.1 0 .4 2.1 0 2.4-2.3.9-2.4 1.2.4 2.6 0 3.5-2.1.7-2.4 1.2.4 2.1 0 2.4-1.1-.2-1.2 0 .4 2.1 0 2.4-1-.2-1.1 0 .3 2 0 2.3-1.1-.1-1.2 0 .3 2.1 0 2.4a8.7 8.7 0 0 0-2.4 2.3c-.4.6-.9.8-1.2 1.2-3.5 5.6-6.8 11-10.6 16.6-.9 1.3-2.7 2.3-3.5 3.5s-1.9 4.5-3.6 7.1c-.4.7-1.1-.2-1.2 1.2s-1.9 1.5-2.3 2.3.3 1.9 0 2.4-2.5 2.1-3.6 3.5z" fill="#6ac955"></path><path d="M430.8 441.9c.2-1.1.9-.6 1.1-1.1 1.2-2.8 3.7-5.4 5.9-8.3s5.4-7.3 8.3-10.6c.6-.7 1.1.2 1.2-1.2s3.3-2 4.7-3.6.5-2.6 1.2-3.5 5-4.5 7.1-7.1c.7-.9 1.8-1.6 2.4-2.4s.4-2.8 1.1-3.5 2.1.3 2.4 0c2.2-2.8 6.1-6.2 9.5-9.5s5.7-8 10.6-9.4c.3-1.6 2.3-1.9 2.4-3.6s2.8-.5 3.5-3.5c1.1-.3 2.5.3 3.6 0s4.7-1.2 5.9-2.4 2.2.9 2.4 2.4c-7.2 6.2-14.7 11.3-22.5 17.7-1.3 1-2.4 2.5-3.6 3.5-4.7 4.3-9.4 7.1-11.8 14.2-7.3 3.9-12.2 10.7-17.7 16.6-1.6 1.6-3.2 2.9-4.7 4.7s-2.2 3.3-3.6 4.7-2.7.5-3.5 1.2-3 4.8-4.8 7.1c-.7.1-1.3-1.6-1.1-2.4z" fill="#3e77a1"></path><path d="M428.4 306c.9-10.9 2-21.7 4.7-30.8.1-12.5 2.1-23 2.4-35.4 2.3 2.6 1.9 6.2 2.3 9.5 1.6 10.5.6 22-1.1 34.2-.2 1.2-1 2.6-1.2 4.7s.2 4 0 5.9c0 0-1.1.4-1.2 1.2s.5 5.1 0 8.3c-1 6.7-3.2 13.4-4.7 21.3-.6 2.8-.1 5.6-1.2 9.5a53 53 0 0 0-2.4 7c-.2.9.6 4.2 0 4.8s-1.1-.1-1.2 0c-.8 3-.6 5.6-2.4 8.3s-2.2 7.8-3.5 11.8c-.1.4-1.1 0-1.2 1.2s.4 3.3 0 3.5c-2.5 2.1-2.4 9.6-4.7 14.2-2.8-1 1-5.2 1.2-7.1-.7-7.4 1.7-11.7 3.5-16.5a145.1 145.1 0 0 1 3.6-23.7c.2-.7-.2-1.6 0-2.4s1.1-.9 1.1-1.1c.7-2.7-.2-6.6 2.4-8.3a44.7 44.7 0 0 1 3.6-20.1z" fill="#6ac955"></path><path d="M430.8 382.8c.4-1 2.1-1.7 2.3-2.3s-.4-2.6 0-3.6 1.1.1 1.2-1.2 1.8-2.6 2.4-4.7c.1-.6-.4-1.8 0-2.3s2-.7 2.3-1.2-.4-2.1 0-2.4 1.1.2 1.2 0-.3-2.1 0-2.3 1.1.1 1.2 0c1.8-3.2 3-6.4 4.7-9.5.4-.8 2-1.7 2.4-2.4s-.4-2.1 0-2.4 1.1.2 1.2 0 .4-4 1.1-5.9 2.3-1.9 2.4-2.3-.4-2.6 0-3.6 1.1.1 1.2-1.2 1.8-2.6 2.3-4.7c1.5-5.9 5-12.9 8.3-18.9.5-.8 2-1.7 2.4-2.4s-.4-2 0-2.3 1.1.1 1.2 0-.4-2.1 0-2.4a10 10 0 0 0 2.3-2.3c.7-1.1 1.8-1.6 2.4-2.4s-.4-2.1 0-2.4 3.4-1.3 3.5-3.6 3.5-2.3 3.6-4.7 8.8-7.1 11.8-10.6c2.3.6.2 1.9 0 2.3s.3 2.2 0 2.4-1 3.3-2.3 5.9c-.4.7-1.8 1.5-2.4 2.4s-1.1 2.8-2.3 4.8-1.2-.2-1.3 1.1-2.4 3.7-3.5 5.9c-.2.4.4 2.1 0 2.4s-1.1-.1-1.2 0 .3 2.1 0 2.4c-2 1.6-2.7 7.4-4.7 11.8-.4.8-2 1.7-2.4 2.3s.4 2.1 0 2.4-1.1-.1-1.2 0 .4 2.1 0 2.4-1.5.9-2.3 2.3-1.8 1.5-2.4 2.4.4 2.1 0 2.4-1.1-.2-1.2 0-.3 4.3-1.2 5.9-1.7 1.4-2.3 2.3c-1.9 3.2-4.4 10-7.1 14.2-.5.7-1.1-.1-1.2 1.2s.2 1 0 1.2-2 1.7-2.4 2.4.4 2 0 2.3-1.1-.1-1.1 0c-.7 1.6-.4 4.3-1.2 5.9s-2 1.7-2.4 2.4.4 2.1 0 2.4a12.9 12.9 0 0 0-3.5 4.7c-.7 1.2-1.7 1.4-2.4 2.4s.4 2 0 2.3-1 3.4-2.4 5.9c-.3.8-1.7 1.5-2.3 2.4s-1.6 1.9-2.4 4.7c-.1.4.3 2.1 0 2.4s-1.1-.2-1.2 0c-.8 1.9-1.4 3.6-2.3 5.9-.1.1-1.1 4.6-1.2 4.7s-.8.9-1.2 2.4-1.1 3.5-1.2 3.6-1.1-.2-1.2 0 .3 2 0 2.3-1.1-.1-1.2 0 .4 2.1 0 2.4-1.1-.2-1.2 0c-.9 2-3.3 5-3.5 7.1a20.8 20.8 0 0 1-1.2 3.5 69.9 69.9 0 0 1-4.7 9.5c-.6 1.8-1.2 0-1.2-1.2 3.3 1.1-.3-4.7 1.2-5.9s2.4-8.6 3.5-13c.1-.3 1.2-.2 1.2-1.2s-.3-3.3 0-3.5 2.2-6.7 3.6-9.5c.3-.6 1.1.1 1.1-1.2s1.8-3.8 2.4-5.9.5-4.1 1.2-5.9 2.3-2 2.4-2.4-.4-2.5 0-3.5 1.1 0 1.2-1.2.6-2.2 1.2-3.6z" fill="#3e77a1"></path><path d="M427.2 251.6c0-.4 2.7-9.2 3.6-4.7a61 61 0 0 0-2.4 13c-.9 7.5-.6 15.2-2.4 22.4a2.2 2.2 0 0 1-1.2 1.2c-.6 4.4 0 7.9-1.2 11.8-.1.5.3 2.2 0 2.4s-.5 4-1.2 8.3-1.3 10.4-2.3 15.4a2.9 2.9 0 0 0-1.2 1.1c-.4 1.9.4 4.1 0 5.9s-1.9 4-2.4 6c-1.4 6.7-1.6 12.7-3.5 18.9-.3.9-1 1.1-1.2 2.3s1.5 1.9 1.2 3.6c0 .1-1.1.3-1.2 1.2-.1 3.2-2.4 10-3.5 14.2s-2.9 7.9-3.6 11.8c-.2 1.5.4 3.2 0 4.7s-1.1 1.2-1.2 2.4 2.4 3.8 1.2 4.7-1.6 9.6-2.3 14.2c-.2 1.1-1 1.9-1.2 3.6-.7 6.8-2.8 14.5-4.7 21.2-2.2-1.6-1.3-5-1.2-7.1a13.7 13.7 0 0 1 0-3.5c.2-1 1-1.2 1.2-2.4 1.2-10.5 1.9-20.4 2.3-33.1.1-.8-.5-5.5 0-5.9 2.9-2.4 1.5-20.6 2.4-27.2.1-1.3.6-2.6 1.2-5.9s1.5-7.4 2.3-11.8c.3-1.2-.2-2.5 0-3.6s1-1.2 1.2-2.3-.4-5.8 0-8.3c.1-.1 1.1-.3 1.2-1.2s-.3-3.3 0-3.5 1.2.1 1.2 0c.3-1.8-1.2-1.8-1.2-2.4s1.7-5 2.3-8.3c1.2-5.7 2.1-11.4 3.6-17.7.5-2.2.7-4.3 1.2-5.9s1.1-.1 1.2-1.2.7-2.1 1.1-3.6c1.6-4.6 2.9-11.1 4.8-16.5.1-.5 1.1 0 1.1-1.2s.8-2.1 1.2-3.5.9-5.9 2.4-8.3c.4-.6 1.1.1 1.2-1.2z" fill="#3e77a1"></path><path d="M388.2 183.1c-.3-8.2 3.7-12.2 11.8-11.9a3.2 3.2 0 0 0 3.5 2.4c1.2 5.3 4.3 11 0 15.4-4.7 1.1-3.5-3.6-8.2-2.4-1.6-2-5.3-1.9-7.1-3.5z" fill="#6ac955"></path><path d="M385.8 136.9c7.1-1.1 6.7 5.2 13 4.8 2.7-.5.5-5.8 1.2-8.3 3.3-2.3 8.7-7.2 14.2-3.6.9 5.5-5.6 7.7-2.4 11.9-.4 1.6 3.8 1.7 5.9 1.1a8.2 8.2 0 0 1 7.1 1.2c-.8 1.3-.1 3.7-1.2 4.7s-6.4.2-9.4 2.4c-.9.6-.8 2.5-2.4 2.4.6 3.4 5.1 2.8 5.9 5.9.2 5.6-3.2 7.8-7.1 9.4-7.2.2-4.4-9.7-9.4-11.8-2.8-.6-3.5 2.4-4.7 3.6a24.7 24.7 0 0 1-4.8 3.5c-4.9 1-5.5-2.3-9.4-2.4 1.2-5 3.4-9.1 10.6-8.2v-5.9c.6-3.3-6.4.9-5.9-2.4-1.7-1-3.7-1.8-3.5-4.7a10.1 10.1 0 0 0 2.3-3.6z" fill="#b2c1df"></path><path d="M386.9 267c.1.1.1.1.1 0s0-.1-.1 0-2.9-9.2-1.1-10.7 1.3-5.1 1.2-9.4a36.8 36.8 0 0 0 0-4.7c-.4-2.8-1.6-2.3 0-4.8.4-.6 1.1.2 1.2-1.1a114 114 0 0 1 1.2-11.9c.1-1.1-.4-2.5 0-3.5 1.4-4.7 1.5-16.1 3.5-23.7v-3.5c1 .5 2.1 1 2.4 2.4 2.3 2.3 1.7 5.4 2.3 8.2.1.3 1.2.1 1.2 1.2s-.2 2.5 0 3.5c2 10.8 1.5 32.6 0 45 0 .3.3 2.1 0 2.3-2.2 1.9-1.6 16.5-2.3 21.3a2.3 2.3 0 0 0-1.2 1.2c-.9 3.5-.4 5.5-1.2 9.4-.1.4.2 2.2 0 2.4-1.7 1.4-.4 4-1.2 8.3s-1.8 4.4-2.3 7.1.3 3.2 0 4.7-1.1 1.2-1.2 2.4c0-.5 1.2.6 1.2 1.2s-1.1 2.8-1.2 4.7c-.3 5.2-.2 10.2-1.2 15.4a2.4 2.4 0 0 0-1.2 1.1c-1.4 5.7-.4 13.4-1.2 20.1-.6 4.7-1.9 6.8-2.3 13.1-.1.7.1 1.6 0 2.3-1 3.7-2.5 11.8-3.6 17.7-1.9 10.4-4.3 21-7.1 30.8-3.3-1.7-.2-3.7 0-5.9s-.2-5.6 0-8.3c.3-4.3.9-7.7 1.2-11.8.9-12.6.3-27 2.4-39 .2-1.1.9-1.9 1.2-3.6.7-5.2 1.2-13.6 2.3-20.1.2-1.1 1-1.9 1.2-3.5a66.4 66.4 0 0 1 1.2-8.3c0-.4-.3-2.2 0-2.4s1.2.1 1.2 0c.8-5.1.8-11 1.1-16.5 0 .1-1.3-.4-1.1-1.2s1-.3 1.1-1.2-.1-3.2 0-4.7 1.3-2.3 1.2-3.6-1.1-.3-1.2-1.2 1-5.6 1.2-9.4-.9-7 0-10.6a2.6 2.6 0 0 1 1.1-1.2z" fill="#6ac955"></path><path d="M385.8 200.8c2.7 1.9.5 5.1 0 7.1s-.8 2.1-1.2 3.5.3 2.1 0 2.4c-2.2 1.8.1 1.7 0 5.9 0-.3-1.1.5-1.1 1.2-.9 16.1-2 37.8-3.6 55.5-.2 2.2.3 4.7 0 7.1s-.9 6.5-1.2 11.8a14.5 14.5 0 0 1 0 3.6c-.8 2.8 0 1.9 0 7.1 0 .2-1.6 1.2-1.1 2.4s2.3 2.6 1.1 3.5-1.1-.1-1.1 0 .3 2.1 0 2.4c-2.1 1.6-1.2 9-2.4 13-.2.4-1.1 0-1.2 1.1s0 2.2-1.2 2.4c1.8 5.3-.6 10.1-1.1 15.4s-.3 8.2-1.2 13c-.1.4.2 2.1 0 2.4s-.6 2.3-1.2 4.7.8 6.2 0 9.4a83 83 0 0 0-1.2 10.7c-.1 1.4.3 3.3 0 4.7s-1.1 1.2-1.2 2.4 1.3 1.9 1.2 3.5-1.1 1.9-1.2 3.6c-.1 3.5.8 1.5 0 4.7s-.5 13.1-1.2 18.9c-.1 1-.9 2-1.2 3.6-.4 3.5-.6 7.6-1.2 11.7a2.5 2.5 0 0 0-1.1 1.3c-.3 1.3.2 4.3 0 7.1s1.8 6.3-2.4 5.9-2.5-4.8-2.4-7.1 1-7.3 1.2-10.7c.6-9 0-17.2 1.2-24.8.6-3.8 1.4-7.9 2.4-13 .2-1.1-.3-2.4 0-3.6 1.5-7.2 1.8-20.9 2.3-31.8 0 .4 1.2-.9 1.2-1.2.9-3.4-.2-8.3 0-13.1 1.3-21.7 2.9-49.1 4.8-72.1 1.1-14.5 2-28.2 4.7-41.4a43.2 43.2 0 0 1 2.4-9.4c.1-.4-.4-2.1 0-2.4s1.5-3.7 2.3-7.1 1.3-5.9 2.4-8.2c.2-.6 1.1.1 1.2-1.2s2.5-2.5 2.3-5.9z" fill="#3e77a1"></path><path d="M330.3 302.5c0-2-1.2-2.1-1.2-3.6s1.4-2.5 1.2-4.8c0 .4-1.1-.7-1.2-1.1-.7-2.6.1-8.3 0-13-.1-1.9-1.2-2.1-1.2-3.6s1.3-1.8 1.2-3.5-1-6.7-1.2-9.5a8.8 8.8 0 0 0 0-2.3c-1.5-1.3.2-1.4 0-5.9 0-.3-1.6-1.2-1.2-2.4s1.3.1 1.2-1.2-1.1-1.9-1.2-3.5c-.2-4.7.6-9.2-1.2-13.1 3.6 1.5 2.6 5.5 3.6 8.3.1.4 1.1 0 1.2 1.2a4.8 4.8 0 0 0 0 1.2c1 2.7 2.6 10 3.5 14.2 1.3 6.1 1.7 12.7 2.4 20.1 0 .3-.3 2.1 0 2.3h1.1a1.3 1.3 0 0 1-1.1 1.3c.2 1.7 1.1 2 1.1 3.5.6 12.7-.2 24.7 1.2 37.8 0 .1 1.2.2 1.2 1.2s-1.1 1.4-1.2 1.2c.3 2.2 1.7 5.5 2.4 9.4s.7 6.3 1.2 9.5c1 6.3 2.7 12.7 3.5 18.9.5 3.4.7 7.3 1.2 10.6s.9 3.1 1.2 4.8c-.1-.4-1.3.4-1.2 1.2s1.1.2 1.2 1.1c.5 6.8-1.6 14.3 0 21.3.6 2.7.2 1.3 0 5.9s-.2 13.5 0 20.1c.1 4.5 1.4 8.6 0 13-1.3-.8-1.9-4.4-2.4-7.1s-.7-5.5-1.2-8.2c-.8-5-1.9-10.4-2.3-15.4-.5-6.7.1-12.8-1.2-18.9-.1-.4.2-2.1 0-2.4h-1.2c-.2-1.4 1.2-2.2 1.2-2.4-.7-4.4-2-6.9-2.4-10.6s1.4-9.6 0-14.2c-.1-.4-1.2-1.5-1.2-1.1 0-1.9 1.4-2.2 1.2-3.6s-1.1-.3-1.2-1.2c-.2-4.8-1.4-9.7-2.3-15.4s-2-8.8-2.4-14.2c-.1-1.5.2-3.1 0-4.7 0 0-1.1-.3-1.2-1.2-.2-4.3.1-9.1-1.1-14.1-.2-.6-1.2-1.4-1.2-1.2-.2-2.6 1.2-3.1 1.2-4.7z" fill="#6ac955"></path><path d="M331.4 393.5c-.8-5.1.1-8.3-1.1-13-.7-2.3-1.5-7.3-2.4-11.8-.2-.8.2-1.7 0-2.4s-.8-2-1.2-3.5-1.2-1.1-1.2-1.2c-1-5 .3-8.3-1.1-13.1-.1-.1-1-.3-1.2-1.2a17.6 17.6 0 0 1 0-2.3q-1.3-8.5-2.4-17.7c-1.4-11.7-2.1-24.8-4.7-35.5-.4-1.3.2-4.3 0-7.1-.6-6.3-2.4-14.3-1.2-23.6 0-.1 1.2-.3 1.2-1.2s-1.2-1.3-1.2-1.2c.2-2.6.4-2.6 1.2-5.9.1-.7 1.2-1.2 1.2-1.2.9-5.5-.3-8.1 1.1-13 .1-.2 1-.4 1.2-1.2a19.2 19.2 0 0 0 0-2.4c2.3 1.5 1.1 4.6 1.2 7.2.2 5.7.5 11.8 1.2 17.7.3 2.7-1.3 7.8 2.4 8.3-3.9 7.3-1.8 14.8-1.2 24.8.1 1.6 1.2 4 1.2 5.9 0-.2-1.2.5-1.2 1.2-.2 3.5.7 4.4 1.2 9.4a14.5 14.5 0 0 0 0 3.6c2.1 7.1 2.6 21.5 4.7 30.7 1.1 4.8 1.4 12.6 2.3 20.1.1.4-.2 2.2 0 2.4s.6 1.6 1.2 3.5 1.2 1.4 1.2 1.2c.2 2-1.1 2.6-1.2 4.7s1.2 3.1 1.2 4.8-1.3 1.2-1.2 2.3a30.9 30.9 0 0 1 1.2 5.9c.7 6.7 1.7 13.4 2.4 20.1-1.3 0-.9-1.5-1.2-2.3a18.9 18.9 0 0 1-1.2-3.6 24.4 24.4 0 0 1-1.2-5.9 9.6 9.6 0 0 0 0-2.4c-.2-.7-1.2-1.1-1.2-1.1z" fill="#3e77a1"></path><path d="M320.8 204.3c3.5 1.7 3.6 6.6 3.6 11.8-4 3.5-10.1 6.5-15.5 2.4-.4-5.2.4-9.1 2.5-11.8 3.5-.4 9.1 1.3 9.4-2.4z" fill="#6ac955"></path><path d="M327.9 173.6c.9 2.8 2.3 8.1 0 10.6-4.7 1-8.8-1.7-10.6 0-2.5 7.6 6.3 3.9 5.9 9.5-2.9 2.2-10 .3-11.8 3.5-2.8-.4-2.7-3.6-4.8-4.7-5.2 1.1-4.5 8.1-13 5.9.1-1.7.2-3.3-1.2-3.5.3-5.3 5.8-5.3 8.3-8.3.7-8.3-5.7-3.6-9.5-5.9.8-1 .3-4 1.2-4.7s1.3-2.7 2.4-3.6 2.6.4 2.3-1.2c2.3.5 1 4.6 4.8 3.5s.4-6.6 1.1-9.4c1.2 0 1-1.4 1.2-2.4 3.4-1.7 4.7-5.5 10.7-4.7 1.3 1.8 3.8 2.5 3.5 5.9s-5.5 3.2-4.7 8.3c.3 2.4 4.4 1.1 4.7 3.6 2.6-1.4 4.9-3.1 9.5-2.4z" fill="#b2c1df"></path><path d="M305.5 376.9c4.3 9.5 8.6 18.1 12.9 27.2-4-3.5-5.7-9.4-8.2-14.2-.2-.2 0-.9 0-1.2s-1.8-1.4-2.4-2.3c-2.7-4.2-3.7-10.6-8.3-13 1.8-3.5-2.2-5.4-2.4-8.3s-1.9-1.5-2.3-2.3c-1.7-3.6-2-7.5-3.6-10.7-.2-.5-.9-.1-1.1-1.2s-.4-3.3-1.2-4.7-2-.6-2.4-1.2.4-2 0-2.4-1.1.2-1.2 0 .4-2 0-2.3-1.1.1-1.2 0 .4-2.1 0-2.4a56.4 56.4 0 0 0-4.7-3.5c-1.3-2.1-1.3-7-3.5-9.5-.4-.3-2.2-.8-2.4-1.2s-1.6-4.1-2.4-5.9.4-2.1 0-2.3-1.1.1-1.1 0 .3-2.1 0-2.4-.4-2.1-1.2-5.9c-.1-.3-1.1-.2-1.2-1.2a4.8 4.8 0 0 0 0-1.2c-.4-1.1-1.3-3.4-2.4-5.9-.1-.4-.9-.2-1.1-1.2a19.2 19.2 0 0 1 0-2.4c1.2.8 1.5 2.4 2.3 3.6s1.9 1.6 2.4 2.4.6 1.5 1.2 2.3.9.9 1.1 1.2.5 2.4 1.2 3.6 2.2.8 2.4 1.1-.4 1.8 0 2.4 1.9 1.7 2.4 2.4.5 2.2 1.1 3.5 2.1 1.8 2.4 2.4.6 3.3 1.2 4.7.6 2.2 1.2 3.5.6 2.5 1.1 3.6 2.1 1.8 2.4 2.4.3 3.2 1.2 4.7 1.7 1.1 2.4 2.3.6 2.4 1.1 3.6 1 .1 1.2 1.2a40.5 40.5 0 0 0 1.2 4.7c.4 1.1 1.4 2.7 2.4 4.7s1.1-.1 1.1 1.2 1.3 3.3 2.4 6 .4 3 1.2 4.7 2.1 1.8 2.3 2.3c1.1 2.3 1.4 4.9 2.5 7.1z" fill="#6ac955"></path><path d="M317.3 417.1c1.6 1.4.1.5-1.2 0-6.4-7.4-12.9-15.4-19-23.6-.5-.7-1 .2-1.1-1.2s-3.1-4.6-4.8-7.1a14.3 14.3 0 0 0-1.1-1.2c-.5-.9-.5-2.5-1.2-3.5s-2.2-.8-2.4-1.2a17.4 17.4 0 0 0-2.4-4.7c-.8-1.3-1.4-2.4-2.3-3.6s-1.9-1.7-2.4-2.3-.2-3.3-1.2-4.8-1.6-1.2-2.3-2.3-.7-1.6-1.2-2.4-1-.9-1.2-1.2-.5-2.3-1.2-3.5-1.5-2.2-2.3-3.6-2.3-3-2.4-4.7-.9-1.8-1.2-2.4a127.3 127.3 0 0 1-7.1-18.9c-1.2-4.5-1.2-8-2.3-13s-1.7-12.6-1.2-20.1c1.2 0 .8 1.5 1.2 2.3s.5 2.8 1.1 4.8.6 2.9 1.2 4.7 4.2 10.1 5.9 14.2c.5 1.1.5 3.2 1.2 4.7s2.2.8 2.4 1.2c1.3 3 1.5 5.1 3.5 8.3a30.7 30.7 0 0 0 2.4 3.5c.9 1.1 1.4 2.6 2.4 3.6s3.4 5.4 3.5 7.1 2.3 1.8 2.4 3.5 2.2 6.2 3.5 8.3 3.4 5.2 3.6 7.1 1.3 3.1 2.3 4.7 1.1 3.2 2.4 5.9 1.6 2.1 2.3 3.6c1.5 3.1 2.1 5.7 3.6 8.3.4.6 1.1-.2 1.2 1.1s4.6 4.5 4.7 7.1a12.3 12.3 0 0 0 2.3 4.8c1.1 1 2.1 5.8 3.6 8.2a51.1 51.1 0 0 1 4.8 8.3z" fill="#3e77a1"></path><path d="M251.1 283.5c-8.1-.7-9.1-14.7-3.6-18.9 5.9.1 7.3 4.6 9.5 8.3.3 5.8-6 5-5.9 10.6z" fill="#6ac955"></path><path d="M233.4 251.6a5.3 5.3 0 0 1 5.9-8.3c-.1 3.2.4 6.8-1.2 8.3z" fill="#b2c1df"></path><path d="M229.8 252.8c-2.7 2.5-1.5 8.8-3.6 11.8-3.3 1-3-1.7-5.9-1.2-.3-6.6 2.9-9.7 8.3-10.6 1.6-1.5 1.6-5.6 0-7.1-4.3.6-6.8 1.9-10.7 0-.2-1.7-3.5-.4-3.5-2.4-.7-6.6 5.9-5.9 11.8-5.9.9-4.1-1.8-4.5-1.2-8.3 2.9-1.9 5.8-3 9.5-1.2.9 3.7-2 3.5-1.2 7.1-.8 3.3 5.6-.8 4.7 2.4 4.3-3.9 10.1-9.7 16.6-4.7 1 5.4-2 6.7-2.4 10.6-3.8.5-6.4 2.3-10.6 2.4.2 1.4-.3 2.1-1.2 2.4-.1 4.4 5.9 2.7 7.1 5.9-1.2 5.1-5.8 6.7-11.8 7.1.5-2.9-2.2-2.6-1.2-5.9-3.7 1.3-2.9-1.9-4.7-2.4zm9.5-9.5a5.3 5.3 0 0 0-5.9 8.3h4.7c1.6-1.5 1.1-5.1 1.2-8.3z" fill="#b2c1df"></path></g><g fill="#58595b"><path d="M758.1 466.9H200.9a4.3 4.3 0 0 1-3.1-1.4L1.5 250a6.4 6.4 0 0 1-.2-8L197.6 1.7a4.3 4.3 0 0 1 3.3-1.7h567.8a4.8 4.8 0 0 1 2.8 1l240.4 202.3a6 6 0 0 1 2 4.3 6.4 6.4 0 0 1-1.7 4.5L761.1 465.6a4.1 4.1 0 0 1-3 1.3zm-555.3-11.1h553.5l245.2-247.5L767.2 11.2H202.9L11.4 245.7z"></path><path d="M758.1 466.9a4.8 4.8 0 0 1-4.5-3.8l-34.2-127.6a5.2 5.2 0 0 1-.2-1.7V100.1a6.3 6.3 0 0 1 .6-2.7l44.9-94.5c1.2-2.7 4.1-3.7 6.4-2.2a6.2 6.2 0 0 1 1.7 7.6l-44.2 93.3v231.3l33.9 126.8c.8 2.9-.5 6-3 7a3.6 3.6 0 0 1-1.4.2z"></path><path d="M200.9 466.9a4.7 4.7 0 0 1-4.3-3.5l-41.3-127.6a7.9 7.9 0 0 1-.4-2V119.2a8.5 8.5 0 0 1 .4-2.3L196.6 3.4c1.1-2.8 3.8-4.2 6.2-2.9s3.5 4.5 2.5 7.3l-40.9 112.5v212.4l40.9 126.7c1 2.8-.2 6.1-2.7 7.2a4.7 4.7 0 0 1-1.7.3z"></path><path d="M723.9 339.3H159.6a3.7 3.7 0 0 1-2-.5L2.7 250.9a5.6 5.6 0 0 1-2.7-4.6 5.9 5.9 0 0 1 2-5l155-126.7a3.9 3.9 0 0 1 2.5-1l564.2-19a3 3 0 0 1 1.6.2l285.3 107.8a5.6 5.6 0 0 1 3.3 5.1 5.7 5.7 0 0 1-3.1 5.4L725.5 339a4.5 4.5 0 0 1-1.6.3zm-563.2-11.1H723l271.8-119.9-271.6-102.6-562 19L14.1 245z"></path></g></g></g></svg>