<svg xmlns="http://www.w3.org/2000/svg" width="912.3" height="875.3" viewBox="0.09999999403953552 -0.006940126419067383 912.2037963867188 875.3468017578125" style=""><g><title>nholiday70_228635716</title><g data-name="Layer 2"><path d="M342 820.4l-13.1-.5 26.5 2.7z" fill="none"></path><path d="M209.4 799.4a64.1 64.1 0 0 0 1.8 9.5l.6-1.2c-.9-2.7-1.7-5.5-2.4-8.3z" fill="none"></path><path d="M608.5 781.4a4.2 4.2 0 0 1 3.1 2.2c.2-1 .4-2.1.7-3.1l-3.8-.4c0 .2.1.3.1.5a2.2 2.2 0 0 0-.1.8z" fill="none"></path><path d="M421 850.7l-4.6-.5-73-8.4c22.8 3.1 45.6 5.9 68.6 8.1z" fill="none"></path><path d="M267.7 29.4c26.2-6.7 52.5-13.4 79.3-17.7-27.2 2.5-53.8 7.9-79.3 17.7z" fill="#dbe7e2"></path><path d="M498.3 69.7l115 12c21.9 2.3 44.2 4.7 66.3 4.6l2.2-.5c-53.7-4.7-107.5-9.6-161.2-14.2z" fill="#dbe7e2"></path><path d="M763.3 102.7c-4.7-11.7-13.7-23.6-25.1-30.1a49.1 49.1 0 0 0-7.6-5.8 3.1 3.1 0 0 0-3.3.3l4.7 2.1c5.5 2.5 6.4 8 4.6 12.3 5.5 3.6 6.9 12.8-1 14.9-5.5 1.4-11.1 2.6-16.6 3.5l8.4.9c9 1.1 8.5 14.9-.4 15.8-27 2.8-55.9-.7-83.1-2.1s-55.4-3.4-83.1-6.1-56.8-6.5-85-10.7c-25.8-3.9-52.8-6.6-77-16.8a.7.7 0 0 1 .2-1.4c27-2.1 54.4 3.3 81.2 6.1 23.8 2.5 47.6 4.5 71.5 6.4l-59-6.5c-42.6-4.7-85.2-9.4-127.6-15.2-15-2-29.9-4.5-44.8-7.3 7.8-.4 15.5-1 23.2-1.8s18-2.2 27-3.6q30.6 2.4 61.1 5.4h-.6c-15-1.7-29.8-3.4-44.8-4.7-13.2-1.1-27.3-1-39.8-5.7-.9-.4-.5-1.6.3-1.8 13.9-2.8 29-.1 43.1 1s30 1.8 45.1 2.5c5.8.2 11.6.6 17.4.9 28.6-1.4 55.8-5 79.1-22.7-13.8-2.6-27.7-4.7-41.8-6.3a720.4 720.4 0 0 0-112.8-3.9c-36.9 1.4-73.9 2.9-110 10.3-1.3.3-1.9-1.4-1.3-2.2l-7 2.9c-2.2.9-3.4-2.4-1.3-3.5a194.8 194.8 0 0 1 19.3-8.5c-4.8 1.2-9.7 2.4-14.4 3.9-34.5-4-56.8 41.2-65.7 68.7-16.1 49.2-20.6 100.9-21.9 152.3-2.8 106.8-1.3 213.7-1.8 320.4-.1 28.4-3.4 58.7.7 86.8a63.4 63.4 0 0 0 6.6 20.1c-5 15.3 7.4 26.3 22.3 28.9 10 1.8 20.6.2 30.7-.8.1 3.8.3 7.7.6 11.6s-.5 9.4-.7 14.1c19.8 1.1 39.7 3.7 59.3 6.1a2.5 2.5 0 0 1 .6-1.4c3.9-3.7 8.8-2.2 13.7-1.6s10.7.8 15.1 4.4a2.1 2.1 0 0 1 .8 2l95.2 10 88.1 9.1 21.2 1.5c26.8 2 53.6 1.5 80.4 2.1 1.3-5.1 2.4-10.3 3.4-15.5 19.2 7.1 38.4 20.1 58.6 8.6 8.6-5 14.4-13.6 17.4-23.5 7.8-12.4 12.2-27.4 15.2-41.4 6.9-32.4 10-65.9 14.7-98.7 2.3-16.3 4.5-32.7 6.7-49q9.5-45.6 16.5-91.7c8.8-56.8 14.7-113.9 18.1-171.1a847.1 847.1 0 0 0 10.2-86.9c1.9-28.4 5.9-60.7-4.8-87.6zm-477.6-2.6c.2-2 1-3.6 1.5-5.5s2.7-2.7 4.1-1.8a5.9 5.9 0 0 1 6.8.9 19.6 19.6 0 0 1 5.1 21.7c-1.3 3.7-7.3 5.3-10.1 2.4s-5.5-6.7-6.7-11.1a18.4 18.4 0 0 1-.7-6.6zm-38.3-58.8c3.6.9 7.2 1.2 10.9 1.8a40.8 40.8 0 0 1-3.9-3.1c-1.3-1.1-.5-3.7 1.4-3.2 15.5 4.3 30.1 10.1 45.6 13.9l-12 .4c-3.4.1-6.9-.1-10.5-.3a7.7 7.7 0 0 1 2.7 6.8c-.2 2.1-1.3 3.2-2.9 4.6a6.8 6.8 0 0 1-7.1.7 109.6 109.6 0 0 1-13.5-8.1c-4.5-3.1-7.7-7.3-12-10.6-1.2-1-.3-3.3 1.3-2.9zm-9.6 112a26.9 26.9 0 0 0 9.7 12.1 1.5 1.5 0 0 0 2.2-2.1c-6.2-11-11.9-21.1-8.9-33.6 2-5.5 5.3-10.3 11.2-13.2 29.6-14.6 46.4 34.5 46.3 55.1 0 22.7-19.1 71.7-50.4 55-13.3-7.2-13.8-24.4-13.8-37.6a148.6 148.6 0 0 1 3.7-35.7zm356.4 590.1c.3 5.2-3.5 11-10.2 10.4-55.9-5.2-111.6-11.5-167.3-17.5s-112.3-8.9-167-19.5l-1-.4c-2.4.7-5.6-.8-5.7-3.5-1.2-37.1 29.3-70.9 58.5-89.6 21.5-13.8 45.9-22.6 71.1-26.9a274.6 274.6 0 0 0-53.1 24.5c-19.9 11.9-36.2 28.6-51.6 45.9-.8.9.6 2 1.5 1.1 15.7-15 33.9-26.2 52.4-37.3a244.6 244.6 0 0 1 60.1-26 256.8 256.8 0 0 1 55.1-9.1c74.5 10.6 138 63.9 162.4 135.6 2 5.6-1 10.2-5.2 12.3zm9-41.6a4.2 4.2 0 0 1-6.5 1.5c-4.6-4.3-5.5-9.2-7.7-15a95.2 95.2 0 0 0-11.5-21.3 138.3 138.3 0 0 0-33.1-32.1c-2-1.4-.4-5.2 2-4.5 8.4 2.6 15.3 3.8 22.5 9.2a98 98 0 0 1 18.3 18.1c8.5 10.5 21.6 30.2 16 44.1zm8.6-20.4a17.2 17.2 0 0 1-1.1-6.7 49.2 49.2 0 0 0-.4-6.7c-.4-3 4-4.1 5.1-1.3a47.8 47.8 0 0 0 2.6 6.2 16.6 16.6 0 0 1 2.1 6.5c.4 4.9-6.5 6.6-8.3 2zm86.4-158.7a7.9 7.9 0 0 1-8.9 6.4c-4.1-.5-6.9-4.8-6.4-8.8a35.8 35.8 0 0 1 2.3-7.9c.9-2.4 2.5-4.1 3.8-6.2s6.9-1.8 7.7 1.3 1.7 4.5 1.8 7a37.3 37.3 0 0 1-.3 8.2zm23.2-267.1q-3.6 36.6-6.6 73.3c-4.2 50.4-7.4 101.1-9.6 151.6-.4 10.7-16.7 7.9-16.3-2.5 2.1-50.7 6.2-100.9 12.7-151.2q4.6-36.4 11-72.6c4.6-25.8 7.6-51.8 15-77a1.4 1.4 0 0 1 2.8.4c-1.4 26.2-6.4 51.9-9 78z" fill="#dbe7e2"></path><path d="M437 595.5a256.8 256.8 0 0 0-55.1 9.1 244.6 244.6 0 0 0-60.1 26c-18.5 11.1-36.7 22.3-52.4 37.3-.9.9-2.3-.2-1.5-1.1 15.4-17.3 31.7-34 51.6-45.9a274.6 274.6 0 0 1 53.1-24.5c-25.2 4.3-49.6 13.1-71.1 26.9-29.2 18.7-59.7 52.5-58.5 89.6.1 2.7 3.3 4.2 5.7 3.5l1 .4c54.7 10.6 111.6 13.4 167 19.5s111.4 12.3 167.3 17.5c6.7.6 10.5-5.2 10.2-10.4 4.2-2.1 7.2-6.7 5.2-12.3-24.4-71.7-87.9-125-162.4-135.6zM352.3 677a4.2 4.2 0 0 1 1.7-3 3.6 3.6 0 0 1 2.1-1.1 6 6 0 0 1 1.9 0 4.9 4.9 0 0 1-1.6 9.7 5 5 0 0 1-4.1-5.6zm-11.8 8.6a9.5 9.5 0 0 1 5.5 7.8 6.9 6.9 0 0 1-2.1 5.4 6.2 6.2 0 0 1-5.5 1.7c-2.1-.5-5.1-1.1-6.7-2.8a6.2 6.2 0 0 1-1.4-1.8l-.5-.5a6.5 6.5 0 0 1 .2-7.8 9 9 0 0 1 10.5-2zM319 662.8a7.7 7.7 0 0 1 4.5-5.7c5.1-2.1 10.1 2.6 9.4 7.7a7.1 7.1 0 0 1-3.7 5.4 6.2 6.2 0 0 1-4.4.6 5.7 5.7 0 0 1-3.3-1.3 7.5 7.5 0 0 1-2.5-6.7z" fill="#fff"></path><path d="M568.9 639.6c-7.2-5.4-14.1-6.6-22.5-9.2-2.4-.7-4 3.1-2 4.5a138.3 138.3 0 0 1 33.1 32.1 95.2 95.2 0 0 1 11.5 21.3c2.2 5.8 3.1 10.7 7.7 15a4.2 4.2 0 0 0 6.5-1.5c5.6-13.9-7.5-33.6-16-44.1a98 98 0 0 0-18.3-18.1z" fill="#fff"></path><path d="M615.4 666.7c-1.1-2.8-5.5-1.7-5.1 1.3a49.2 49.2 0 0 1 .4 6.7 17.2 17.2 0 0 0 1.1 6.7c1.8 4.6 8.7 2.9 8.3-2a16.6 16.6 0 0 0-2.1-6.5 47.8 47.8 0 0 1-2.6-6.2z" fill="#fff"></path><path d="M277.5 50l1.4.8c3.6.2 7.1.4 10.5.3l12-.4c-15.5-3.8-30.1-9.6-45.6-13.9-1.9-.5-2.7 2.1-1.4 3.2a40.8 40.8 0 0 0 3.9 3.1c1.3.3 2.6.5 3.8.9a96.3 96.3 0 0 1 15.4 6z" fill="#fff"></path><path d="M258.5 33.2l7-2.9a1 1 0 0 1 .6-.5l1.6-.4c25.5-9.8 52.1-15.2 79.3-17.7 10.1-1.5 20.2-2.8 30.4-3.5a631.1 631.1 0 0 1 112.5 2.1c75.9 8.2 151.7 29.1 220.4 62.5a8.5 8.5 0 0 1 4.7 5.4c-11 2.8-22 5.3-33.2 7.6l-2.2.5c-22.1.1-44.4-2.3-66.3-4.6l-115-12c-22.3-2-44.5-4.1-66.7-6.7q-30.5-3-61.1-5.4c-9 1.4-17.9 2.6-27 3.6s-15.4 1.4-23.2 1.8c14.9 2.8 29.8 5.3 44.8 7.3 42.4 5.8 85 10.5 127.6 15.2l59 6.5 9.2.7c27.7 2.1 55.4 4 83.2 5.3 24.7 1.1 50.2-.3 74.9 1.9 5.5-.9 11.1-2.1 16.6-3.5 7.9-2.1 6.5-11.3 1-14.9 1.8-4.3.9-9.8-4.6-12.3l-4.7-2.1A764.6 764.6 0 0 0 489 3.3c-40.4-3.9-81.1-4.7-121.5-.5-31.1 3.2-62 7.4-91 18.4a194.8 194.8 0 0 0-19.3 8.5c-2.1 1.1-.9 4.4 1.3 3.5z" fill="#fff"></path><path d="M247.9 226.6c31.3 16.7 50.4-32.3 50.4-55 .1-20.6-16.7-69.7-46.3-55.1-5.9 2.9-9.2 7.7-11.2 13.2-3 12.5 2.7 22.6 8.9 33.6a1.5 1.5 0 0 1-2.2 2.1 26.9 26.9 0 0 1-9.7-12.1 148.6 148.6 0 0 0-3.7 35.7c0 13.2.5 30.4 13.8 37.6z" fill="#fff"></path><path d="M293.1 117.8c2.8 2.9 8.8 1.3 10.1-2.4a19.6 19.6 0 0 0-5.1-21.7 5.9 5.9 0 0 0-6.8-.9c-1.4-.9-3.6.1-4.1 1.8s-1.3 3.5-1.5 5.5a18.4 18.4 0 0 0 .7 6.6c1.2 4.4 3.6 7.7 6.7 11.1z" fill="#fff"></path><path d="M727.6 177.2c-7.4 25.2-10.4 51.2-15 77q-6.3 36.2-11 72.6c-6.5 50.3-10.6 100.5-12.7 151.2-.4 10.4 15.9 13.2 16.3 2.5 2.2-50.5 5.4-101.2 9.6-151.6q3-36.7 6.6-73.3c2.6-26.1 7.6-51.8 9-78a1.4 1.4 0 0 0-2.8-.4z" fill="#fff"></path><path d="M696.7 507.5c-.8-3.1-5.9-4-7.7-1.3s-2.9 3.8-3.8 6.2a35.8 35.8 0 0 0-2.3 7.9c-.5 4 2.3 8.3 6.4 8.8a7.9 7.9 0 0 0 8.9-6.4 37.3 37.3 0 0 0 .3-8.2c-.1-2.5-1.1-4.7-1.8-7z" fill="#fff"></path><path d="M572 821.6c-1.7.7-3.4 1.5-5.1 2.1l4.8.4a3.7 3.7 0 0 1 .3-2.5z" fill="#e2caaa"></path><path d="M209.2 769.8a143.5 143.5 0 0 0 .2 29.6c.7 2.8 1.5 5.6 2.4 8.3l-.6 1.2c2 7.3 5.5 12.2 11.4 10.3a4.1 4.1 0 0 1 4.2 1.3c11 0 23.2 2.9 33.2 4l51.8 5.7 103.4 11.5 116.9 13.1c16.9-2.4 32-7.7 44.3-20.6-15.2-1.1-30.5-3.1-45.6-4.4l-71.7-5.9-71.7-5.9c-22.8-1.9-47.2-1.8-69.2-8.4-1.2-.4-.7-2.2.4-2.3 22.9-3.1 47.2 1.1 70 2.9l69.3 5.5 69.3 5.5 18.7 1.3c13.8-2.5 26.8-7.7 38.1-16.4l-15.4-.9a33.3 33.3 0 0 1-15.6-1c-103.4-6.8-207.7-16.8-308.4-39.4a.8.8 0 1 1 .2-1.5c59.7 6.4 119.2 15.2 178.9 21.5q74.9 8 150 12.2a31.6 31.6 0 0 0 15.7-19q-85.7-9.6-171.3-19l-106.5-11.6c-34.8-3.8-71.7-5.2-105.6-14a158.7 158.7 0 0 0-.7 45.1q1-4.5 2.4-9c.2-.9 1.7-.7 1.5.3zM342 820.4l13.4 2.2-26.5-2.7zm-76.6-18.7c8.3.9 17.8.4 25.3 4.3 2.1 1.1 1.4 3.7-.7 4.2-8.2 2-17.4-.7-25.7-1.8s-16.8-2.2-24.7-5.5c-.9-.3-.6-1.5.2-1.7 8.6-1.3 17-.4 25.6.5z" fill="#e2caaa"></path><path d="M528.6 762.8c-18.3-1.3-36.6-2.9-54.9-3.7s-36.5-1.1-54.5-5.5c-1.4-.4-1.6-2.5 0-2.7 17.9-1.8 35.1.1 53 2 11.1 1.3 22.3 2.1 33.5 2.9l-88.1-9.1-95.2-10a2.6 2.6 0 0 1-1.4 2c-4.9 2.4-9.8 1.5-15 1s-10.5.2-13.3-4.1a3.6 3.6 0 0 1-.5-2.3c-19.6-2.4-39.5-5-59.3-6.1-9.2-.5-18.3-.6-27.4-.2-3.8.2-3.4 5.4-.1 6.3h.6c33.9 8.8 70.8 10.2 105.6 14L418.1 759q85.6 9.3 171.3 19a31.6 31.6 0 0 1-15.7 19q-75.2-4.2-150-12.2c-59.7-6.3-119.2-15.1-178.9-21.5a.8.8 0 1 0-.2 1.5c100.7 22.6 205 32.6 308.4 39.4a33.3 33.3 0 0 0 15.6 1l15.4.9c-11.3 8.7-24.3 13.9-38.1 16.4l-18.7-1.3-69.3-5.5-69.3-5.5c-22.8-1.8-47.1-6-70-2.9-1.1.1-1.6 1.9-.4 2.3 22 6.6 46.4 6.5 69.2 8.4l71.7 5.9 71.7 5.9c15.1 1.3 30.4 3.3 45.6 4.4-12.3 12.9-27.4 18.2-44.3 20.6l-116.9-13.1-103.4-11.5-51.8-5.7c-10-1.1-22.2-4-33.2-4a4.1 4.1 0 0 0-4.2-1.3c-5.9 1.9-9.4-3-11.4-10.3a64.1 64.1 0 0 1-1.8-9.5 143.5 143.5 0 0 1-.2-29.6c.2-1-1.3-1.2-1.5-.3q-1.3 4.5-2.4 9c-2.7 12.2-3.6 25 .3 37.1a20.4 20.4 0 0 0 3.7 6.8c15.6-1.1 33.1 4.7 48.6 7.2 17.6 2.8 35.3 4.7 52.9 7.4 10.9 1.7 21.7 3.3 32.6 4.8l73 8.4 4.6.5a1602.4 1602.4 0 0 0 202 5.3 10.8 10.8 0 0 1 4.6.9c2.5-25 5.1-50 7.6-74.9a7.7 7.7 0 0 0 3.9-6.8h-1.6c-36.5-2.4-72.4-9.8-108.9-12.4zm43.1 61.3l-4.8-.4c1.7-.6 3.4-1.4 5.1-2.1a3.7 3.7 0 0 0-.3 2.5zm40.6-43.6c-.3 1-.5 2.1-.7 3.1a4.2 4.2 0 0 0-3.1-2.2 2.2 2.2 0 0 1 .1-.8c0-.2-.1-.3-.1-.5z" fill="#d8ad79"></path><path d="M239.6 802.9c7.9 3.3 16.2 4.4 24.7 5.5s17.5 3.8 25.7 1.8c2.1-.5 2.8-3.1.7-4.2-7.5-3.9-17-3.4-25.3-4.3s-17-1.8-25.6-.5c-.8.2-1.1 1.4-.2 1.7z" fill="#d8ad79"></path><path d="M324.8 670.8a6.2 6.2 0 0 0 4.4-.6 7.1 7.1 0 0 0 3.7-5.4c.7-5.1-4.3-9.8-9.4-7.7a7.7 7.7 0 0 0-4.5 5.7 7.5 7.5 0 0 0 2.5 6.7 5.7 5.7 0 0 0 3.3 1.3z" fill="#dbe7e2"></path><path d="M329.8 695.4l.5.5a6.2 6.2 0 0 0 1.4 1.8c1.6 1.7 4.6 2.3 6.7 2.8a6.2 6.2 0 0 0 5.5-1.7 6.9 6.9 0 0 0 2.1-5.4 9.5 9.5 0 0 0-5.5-7.8 9 9 0 0 0-10.5 2 6.5 6.5 0 0 0-.2 7.8z" fill="#dbe7e2"></path><path d="M362 678.5a4.9 4.9 0 0 0-4-5.6 6 6 0 0 0-1.9 0 3.6 3.6 0 0 0-2.1 1.1 4.2 4.2 0 0 0-1.7 3 5 5 0 0 0 4.1 5.6 4.9 4.9 0 0 0 5.6-4.1z" fill="#dbe7e2"></path><path d="M421 850.7l-9-.8c-23-2.2-45.8-5-68.6-8.1-10.9-1.5-21.7-3.1-32.6-4.8-17.6-2.7-35.3-4.6-52.9-7.4-15.5-2.5-33-8.3-48.6-7.2h-.1c-2.8.2-2.9 3.9-.8 5.1 13.7 7.7 32.5 9.7 47.8 13.2 17.4 4 34.6 8.5 52.2 11.5 35.1 6 70.5 10.6 105.9 14.2a1746 1746 0 0 0 210.9 8.6c10.4-.3 10.4-14.4 2.4-18.1a10.8 10.8 0 0 0-4.6-.9 1602.4 1602.4 0 0 1-202-5.3z" fill="#403d33"></path><path d="M505.7 755.8c-11.2-.8-22.4-1.6-33.5-2.9-17.9-1.9-35.1-3.8-53-2-1.6.2-1.4 2.3 0 2.7 18 4.4 36 4.8 54.5 5.5s36.6 2.4 54.9 3.7c36.5 2.6 72.4 10 108.9 12.4h1.6c7.9-1 9.5-13.7.7-14.3-10.8-.9-21.7-1.3-32.5-1.5-26.8-.6-53.6-.1-80.4-2.1z" fill="#403d33"></path><path d="M292.7 735.6c2.8 4.3 8.7 3.7 13.3 4.1s10.1 1.4 15-1a2.6 2.6 0 0 0 1.4-2 2.1 2.1 0 0 0-.8-2c-4.4-3.6-9.6-3.7-15.1-4.4s-9.8-2.1-13.7 1.6a2.5 2.5 0 0 0-.6 1.4 3.6 3.6 0 0 0 .5 2.3z" fill="#403d33"></path><path d="M520.6 71.6c53.7 4.6 107.5 9.5 161.2 14.2C693 83.5 704 81 715 78.2a8.5 8.5 0 0 0-4.7-5.4c-68.7-33.4-144.5-54.3-220.4-62.5a631.1 631.1 0 0 0-112.5-2.1c-10.2.7-20.3 2-30.4 3.5-26.8 4.3-53.1 11-79.3 17.7l-1.6.4a1 1 0 0 0-.6.5c-.6.8 0 2.5 1.3 2.2 36.1-7.4 73.1-8.9 110-10.3a720.4 720.4 0 0 1 112.8 3.9c14.1 1.6 28 3.7 41.8 6.3-23.3 17.7-50.5 21.3-79.1 22.7-5.8-.3-11.6-.7-17.4-.9-15.1-.7-30.1-1.3-45.1-2.5s-29.2-3.8-43.1-1c-.8.2-1.2 1.4-.3 1.8 12.5 4.7 26.6 4.6 39.8 5.7 15 1.3 29.8 3 44.8 4.7h.6c22.2 2.6 44.4 4.7 66.7 6.7z" fill="#95d3ca"></path><path d="M560.9 92.7l-9.2-.7c-23.9-1.9-47.7-3.9-71.5-6.4-26.8-2.8-54.2-8.2-81.2-6.1a.7.7 0 0 0-.2 1.4c24.2 10.2 51.2 12.9 77 16.8 28.2 4.2 56.6 7.9 85 10.7s55.4 4.6 83.1 6.1 56.1 4.9 83.1 2.1c8.9-.9 9.4-14.7.4-15.8l-8.4-.9c-24.7-2.2-50.2-.8-74.9-1.9-27.8-1.3-55.5-3.2-83.2-5.3z" fill="#95d3ca"></path><path d="M258.1 54.8a109.6 109.6 0 0 0 13.5 8.1 6.8 6.8 0 0 0 7.1-.7c1.6-1.4 2.7-2.5 2.9-4.6a7.7 7.7 0 0 0-2.7-6.8l-1.4-.8a96.3 96.3 0 0 0-15.4-6c-1.2-.4-2.5-.6-3.8-.9-3.7-.6-7.3-.9-10.9-1.8-1.6-.4-2.5 1.9-1.3 2.9 4.3 3.3 7.5 7.5 12 10.6z" fill="#95d3ca"></path><g><path d="M370.8 445a157.3 157.3 0 0 0 85.7 6.4c22.9-4.7 44.9-14.3 62.1-30l-2.1-12.8a12.8 12.8 0 0 0 6-3.9 1 1 0 0 0-.7-1.6c-2.3-4.6-5.7-8.6-8.2-13.1-.2-1.3-.4-2.6-.7-4l-2.3.4a116.7 116.7 0 0 1-45.3-2.3 116.4 116.4 0 0 1-29-11.3c-8.8-4.8-17.5-10.6-23.6-18.8-1.1-1.6 1.2-3.4 2.4-1.9 6.1 8.3 15.1 14.2 24.1 18.9a117.8 117.8 0 0 0 28.1 10.6 128.8 128.8 0 0 0 28.4 3.2 118.7 118.7 0 0 0 15.8-1.1h1.1c-.6-3.2-1.1-6.3-1.6-9.5-1.1-7-2.2-14-3.4-20.9-.2-1.8-.3-3.5-.5-5.2s-.3-2.9-.5-4.3c-.8 2.4-1.3 4.9-2 7.4-1.7 6.2-3.1 12.5-5.2 18.6-.1-.6-.1-1.2-.2-1.8s-.3-3-.5-4.5a28.2 28.2 0 0 0-.7-3.1 27.1 27.1 0 0 0-1.3-7 40.2 40.2 0 0 0-2.6-6l3.7 3.6c.2.2.5 0 .4-.3a22.4 22.4 0 0 0-8-8.3l-1.9-2.3-.2-.2-.5-.8c-.6-.5-.6-1.5.3-1.6l2.5-.4a20.5 20.5 0 0 0 8-9.9 24.2 24.2 0 0 0 1.2-5l.3-7.6c-.9-4-1.8-8-2.6-12.1a.4.4 0 0 0-.1-.3c-17.7-6.5-32.8-20.4-42.3-36.5-.1-.1-.1-.2-.2-.2a102.9 102.9 0 0 1-12-2.6c-1.7-.5-.7-3 1-2.6a102.8 102.8 0 0 0 24 3.9c7.3.2 14.5-1.2 21.8-1.2l4.4-.5a1.4 1.4 0 0 0 1-2.1 1.3 1.3 0 0 0 .1-.6c-.6-4-3.5-7.8-5.2-11.5s-3.4-7.6-4.9-11.5a3.1 3.1 0 0 1-.2-.8c-.2-.8-.3-1.6-.5-2.4-9.7 1.1-23.6-6.9-26-16.4-.4-1.2 1.4-1.8 2.1-.9 3.4 3.9 5.6 7.9 10.2 10.8s8.6 3.4 13.4 4.2q-4.5-26.1-8.4-52.4v-1.5c.1-2.6.1-5.3.1-8h.2a14.7 14.7 0 0 1 5.3 2.7c3 2.2 5.2 5.4 7.6 8.7.1.2.3.1.4 0s.1-.1.1-.2c-.9-6.9-8.4-12.3-14.7-13.7a22.8 22.8 0 0 0-14.8 2.1 5.1 5.1 0 0 0-1.3.9 8.6 8.6 0 0 0-3.2 3.6.8.8 0 0 0 1 1c2.7-1.3 4.7-3.5 7.5-4.5a12.9 12.9 0 0 1 2.6-.8h.3c-.5 2.5-1 5.1-1.4 7.6a2.1 2.1 0 0 0-.7 1.1l-.3 1.3a79.5 79.5 0 0 0-2.4 8.8 50.7 50.7 0 0 1-12 19.2 1.8 1.8 0 0 0-.3 2.5 10.6 10.6 0 0 0 5.5 3.2c-.9 3.1-1.9 6.2-2.9 9.3-3.4 10.8-6.7 21.5-10.3 32.1-2.9 8.3-5.9 16.5-9 24.7a.3.3 0 0 0-.6-.3 259.1 259.1 0 0 1-26.9 44.6 1.2 1.2 0 0 0 .1 1.7l-.3.6c-.6 1 .6 2.1 1.6 2a11.8 11.8 0 0 0 6 2.7c-4.9 12.1-9.7 24.3-14.3 36.5-1.2 3.2-2.4 6.3-3.5 9.5-3.7 2.1-7.4 4.3-10.9 6.6a1.8 1.8 0 0 0-.3 2.5 13 13 0 0 0 6.3 4.3c-4 11.4-7.7 22.8-11.1 34.4-5.8 5-10.7 11.3-15.9 16.7-.9.9-.1 2.2.7 2.7a19.7 19.7 0 0 0 5.5 1.9 1.5 1.5 0 0 1 1.6-.4zm119.6-10.2h-.1l.3-.7a.4.4 0 0 1-.2.7zm-9-2.9a34.5 34.5 0 0 1 1.2-4.6 1.1 1.1 0 0 1 0-.8l.3-.3a65.6 65.6 0 0 1 5.4-12.5c2.4-4.3 5.6-10.2 10.6-12 8.9-3.2 15.6 7.8 9.6 14.6a.5.5 0 0 1-.9-.5c-.1-.1-.2-.2-.2-.3s.2-2.8.1-4.2a8.5 8.5 0 0 0-1.2-3.8c-.2 0-.4-.1-.3-.2v-.2l-.4-.4a9.5 9.5 0 0 0-3.5 1c-2.5.6-4 4.3-5.1 6.6-2.4 5-4.7 10.1-7.1 15.2l-2.1 4.6c-.2.4-.3.8-.5 1.3a10.8 10.8 0 0 1-5.2-1.3.9.9 0 0 1-.4-1.1.9.9 0 0 1-.3-1.1zm-13.5-34.7c2-.8 4.6.5 4.4 2.9s-3.3 4-5.3 2.4a1.9 1.9 0 0 1-.7-1.4 2.9 2.9 0 0 1 1.6-3.9zm-22 14.6c-5.8-4.1-15.1-2.4-20.7 1.1l-2 1.4c4-4.8 11.2-7.1 17.6-6.2l1.2.3a1.4 1.4 0 0 1-.1-.9c.6-2-1.3-3.9-.3-6a2.5 2.5 0 0 1 3.2-1.5c1.2.6 1.4 2.1 1.2 3.3a28.5 28.5 0 0 1-1.8 5.4 23.9 23.9 0 0 1 9 4.2 23.1 23.1 0 0 1 5.6 7.5 18 18 0 0 1 .8 2.1 20.5 20.5 0 0 1 .5 2.4v.3a6.6 6.6 0 0 1 .1 1.4c-.1.3-.4.3-.6 0a.1.1 0 0 0-.1-.1c.3 3.1-2 5.4-4.8 6.8s-5 1.5-7.5 2.4-5.4 3.2-7.6 5.8a1.2 1.2 0 0 1-1.3.3 1 1 0 0 1-1-.3 1.1 1.1 0 0 1-1.6-1.2 5.9 5.9 0 0 0-.6-4.5 6.4 6.4 0 0 0-1.1-1.6c-3.3-1.5-7.7-2.1-9.9-4.2a10.1 10.1 0 0 1-2.9-5.7 1.2 1.2 0 0 1-.9-1 19.3 19.3 0 0 1 .1-2.4 20.6 20.6 0 0 1 5.2-5.4l1.2-.8a11.9 11.9 0 0 1 2.5-1.3l1.3-.6a23.1 23.1 0 0 1 5.2-1.2h2a42.3 42.3 0 0 1 5 .5l2 .2h1.1a.3.3 0 0 0 0-.5zm-27.1-37.2a3 3 0 0 1 2.8.9 2.3 2.3 0 0 1 .8 1.7 3 3 0 0 1-1.2 2.5c-1.9 1.3-4.3-.4-4.3-2.6a2.5 2.5 0 0 1 1.9-2.5zM471 210.3c1.6.2 1.2 3.6-.4 3.5a1.8 1.8 0 0 1 .4-3.5zm17.9 49c.1.1.1.2.2.2h-.2a.7.7 0 0 1-.1-.5c0 .1.1.2.1.3zm-31.6-54.2v.3h-.1zm-.5 31.7a2.4 2.4 0 0 1 1.5.9 1.6 1.6 0 0 1-.3 2.1 1.4 1.4 0 0 1-2-.2 2.1 2.1 0 0 1-.6-1.7 1.3 1.3 0 0 1 1.4-1.1zm-10 17a62.8 62.8 0 0 0 38.8-10c1.2-.8 2.6.9 1.4 1.8-11 8.6-26.6 13-40.5 11a1.4 1.4 0 0 1 .3-2.8zm15.3 109.4a17.4 17.4 0 0 1-8-1.9 27.7 27.7 0 0 1-1.7-12.4c0-.2-.1-.2-.2-.1a16.8 16.8 0 0 0-.8 10.4 3.1 3.1 0 0 1-.9-1.1c-2.3-3.4-2.1-8.1-.6-11.7 3-7.7 13.1-12 19.9-6.2a6.7 6.7 0 0 1 1.4 1.5 12.1 12.1 0 0 1 4 5.6c3 8.7-4.6 16.2-13.1 15.9zm15.5-59.5l.2-.3a1.4 1.4 0 0 1 2.7.3v.4a1.5 1.5 0 0 1-1.6 1.7 1.5 1.5 0 0 1-1.3-2.1zm-42.4-11.3a90.4 90.4 0 0 1 2.2-9.4c.1 0 .1-.1.1-.2a16 16 0 0 1 5.7-5.6l3.2-1.6a.6.6 0 0 0-.2-1.1 9.3 9.3 0 0 0-4.4 1.1c-.5-.6.3-1.4.9-1.1h.2c4.1-1.9 8.9-1.8 12.2 1.5.1 0 .1 0 .1.1s.4.3.3.6a19.8 19.8 0 0 1 5.2 7.7 10 10 0 0 1 1 2.9 32.8 32.8 0 0 1 1.5 7.9 32.4 32.4 0 0 1-3.2 15.1l-3.2 2.9-.6.4-.9.5h-.2c-1.7 1-3.7 1.6-5.2 2.8a.4.4 0 0 0 .2.8c2.5.1 5.1-1.7 7-3.1l.4-.3c.2.5-.1.9-.6 1.1a.6.6 0 0 1-.6.6c-3.8 3.4-9.9 3.2-14.2.7a.8.8 0 0 1-.4-.4l-.3-.2a.7.7 0 0 1-.8-.5c-6.2-4.9-6.8-15.7-5.4-23.2zm-13.8 15.7zm-6.2 22.4a89 89 0 0 0 34.5 1.1 91.4 91.4 0 0 0 16.9-4.4c5.4-2 10.4-5 15.8-6.8.3-.1.5.2.2.4-4 4.2-9.6 6.7-14.9 8.8a83.7 83.7 0 0 1-16.9 4.9 89.1 89.1 0 0 1-36-.8c-2-.5-1.6-3.7.4-3.2zm-8.9 66.7a1.8 1.8 0 0 1 .8-.9 1.5 1.5 0 0 1 1.3-.2 1.7 1.7 0 0 1 1.2 2.3 1.6 1.6 0 0 1-2.2.9 1.5 1.5 0 0 1-1-.9 1.6 1.6 0 0 1-.1-1.2zM392 384v.2h.1zm-7.2 50.1l.7-.4a12 12 0 0 1 5.9-1.1c1.3.1 1.9.4 3.1 0a.4.4 0 0 0 .1-.6c-1.3-1.8-4.1-1.8-6.7-1.3l.7-.4c6.2-1.6 13.7 3 13.7 9.9s-9.1 9.3-14.7 6.3-5.8-8.7-2.8-12.4z" fill="#403d33"></path><path d="M408.1 571.5a6.9 6.9 0 0 0-4.5.3 13 13 0 0 0 0 4.4c2.7 1.3 5.4-.8 4.6-3.9a2.2 2.2 0 0 1-.1-.8z" fill="#403d33"></path><path d="M572.6 643.5c-3.7-5.3-7-11-10.2-16.7-5.6-21.3-10.8-42.7-15.8-64.2l-5.4-24.1a18.3 18.3 0 0 1-7.9-9.4c-8.4 18.7-31.1 30-49.5 35.7-22.4 7-45.5 5.3-65-8.3-10.8-7.5-19.6-17.3-27.7-27.6a16.7 16.7 0 0 0 1.8-2.8l.5.4c8.3 10.7 17.5 21 28.9 28.5a64.5 64.5 0 0 0 41.6 10.6c14.1-1.2 27.8-6.1 40.1-12.9s22.1-15.1 28.5-27.3a4.9 4.9 0 0 1-.1-1.2 1.9 1.9 0 0 1 .2-.8 53.2 53.2 0 0 0 3.7 6.6 14.9 14.9 0 0 0 4.1 5.4.1.1 0 0 1 .1.1v-.2a7.7 7.7 0 0 0 3 1.5l.6.6a40.7 40.7 0 0 0 5 1.3c-.9-4.6-4.2-8.9-6.3-13s-4.3-8.5-6.3-12.9c-.5-1.3-1.1-2.7-1.7-4s-.4-2.4-.7-3.6a13.9 13.9 0 0 1-1.2 2.8 16 16 0 0 1-23.4 4.2 15.8 15.8 0 0 1-5.5-9.5 18.3 18.3 0 0 1 2.8-6.9 14.7 14.7 0 0 0 1-1.3 17.8 17.8 0 0 1 3.5-3.2 19.2 19.2 0 0 1 3.1-1.8h.2a20 20 0 0 1 7.9-1.4h1.6c.2 0 .3-.4.1-.5-6.2-3.5-14.6 1.1-18.6 6.1a8.3 8.3 0 0 0-1.3 1.8 16.3 16.3 0 0 1 3.8-6.6c4.8-5 16.6-6.6 21.1-.2a10.7 10.7 0 0 1 1.9 1.8c-1.9-9.7-3.8-19.3-5.6-29a13 13 0 0 1-11.7 8.1c-7.7.2-16-4.4-15-13.1a12.2 12.2 0 0 1 2.9-6.3l1.3-.7c6.2-2.9 11.3-.8 17.3 1a.4.4 0 0 0 .4-.6 12.8 12.8 0 0 0-9.4-4.3h1.3a11.9 11.9 0 0 1 10.8 3.9c-.8-4.2-1.5-8.4-2.3-12.7s-1.3-7.9-1.9-11.8c-11.9 11.2-27.8 18.9-42.5 24a158 158 0 0 1-68.2 8.1 150.2 150.2 0 0 1-36.4-8.2 105 105 0 0 0 15.3 14.5 67.4 67.4 0 0 0 10.1 6.6c3.2 1.8 6.8 2.8 10 4.5a.8.8 0 0 1-.4 1.5c-7.3-.6-15-5.8-20.7-10.1a110.6 110.6 0 0 1-17.6-16.6l-3.3 7.6q-11 26.1-21.6 52.4a172 172 0 0 1-21.5 15.7c-1.1.6-.8 2.1 0 2.8a25.6 25.6 0 0 0 11 5.3c-1.1-1.2.7-3.2 2.2-2.2a44.4 44.4 0 0 0 31.1 6.7 45.1 45.1 0 0 0 13.8-4.7c4.1-2.2 7.3-5.4 11.2-7.8a.4.4 0 0 1 .5 0c-2.7 3.1-5.2 6.5-8.2 9.4a48.2 48.2 0 0 1-18 6.4 47.2 47.2 0 0 1-32.1-7.3 3.6 3.6 0 0 1-.4.9l-16.2 40-7.8 19.3c-1.5 3.7-3 7.6-4.3 11.6a18.2 18.2 0 0 1-3.1 3.1 48.3 48.3 0 0 1-9.2 6.3 3.2 3.2 0 0 0 .9 6.1c6 1.2 11.6.5 16.8-2.9h.2a1.4 1.4 0 0 1 .2.6c1.7 3.5 5.5 5.7 9.1 6.9a33.8 33.8 0 0 0 18.6 1.2 15 15 0 0 0-.2 2c-.3 3.8 5.2 5.4 6.6 1.7.4-1.1.9-2.2 1.3-3.4a21.6 21.6 0 0 0 3.4 1.7c2.7 3.1 6.1 5.4 10.5 5.7a10.5 10.5 0 0 0 7.2-2.4 15.4 15.4 0 0 0 .8 1.9c2.1 4.4 9.1 1.3 7-3.1l-1.1-1.9.6.4a173 173 0 0 0 17.1 10.4 139.9 139.9 0 0 0 24.3 10.1l1.5 19.3c.5 6.3.8 12.6 1.2 18.9s.5 13.3 1.4 19.9a2.9 2.9 0 0 0 1.4 2.2 2.7 2.7 0 0 0 2.6 1.2c5.1-.4 10.2-.5 15.2-1.2 3.4-.5 3.6-5.2 1.3-6.9a13.5 13.5 0 0 0 1-4.7c.2-2.7.2-5.4.3-8.1.1-5.3.3-10.5.4-15.8l.6-18.9c20.9 2.6 42.7.5 61.6-8.9a31.1 31.1 0 0 0 4 2.2 4.5 4.5 0 0 0 3.2 2.9c4.6 1.1 10.4-1.7 14-4.6a26.7 26.7 0 0 0 4.6-4.9c2.8 5.2 7.1 9.1 13.5 7.2a9.9 9.9 0 0 0 4.8-3.4 52.1 52.1 0 0 0 4.7 4.7c2.5 2.3 7.1-.5 6.3-3.8-.3-.9-.5-1.9-.8-2.9 3.8 1.9 8 3.1 11.7 2.1a1.3 1.3 0 0 0 .9-.7 1.2 1.2 0 0 0 1-2.1zm-34.3-118.7h-.1a.3.3 0 0 0 .1 0zm-58.7-54.4a3.4 3.4 0 0 1 4.7-1.6 3.2 3.2 0 0 1-.8 5.9 3.3 3.3 0 0 1-2.2-.1 3.2 3.2 0 0 1-1.7-4.2zm-6.3 67.8c.4-3.8 3-6.1 6.4-7.4s7.1-2.2 9.5 1a5 5 0 0 1 1 1.9 7.4 7.4 0 0 1 1.6 3.2c.8 3.6-1.3 7.3-4.3 9.2-6.1 3.8-14.8-.4-14.2-7.9zm-42.4-45.4c.5-1.3 1.6-3.2 3.1-3.6s.3-.6.6-.6a24.3 24.3 0 0 1 2-2.5c-1.4-.5-1.1-2.8.5-2.5l1.9.3a21.4 21.4 0 0 1 12.8-4.5 8.5 8.5 0 0 1 1.3-4.7 1.2 1.2 0 0 1 1.3-.4 1 1 0 0 1 1.1.7c0 .2.1.4.1.6a4.3 4.3 0 0 1 .2 3.7l1.9.3-2.5.2a.7.7 0 0 0 0 1.4c4.9 1.1 9.3 2 13 5.3a14.1 14.1 0 0 1 2.2 4c.1 0 .2.2.2.3a15.4 15.4 0 0 1 .9 3.7l.4.2c.4.2.1.8-.2.9v.3a8.2 8.2 0 0 1 .5 3.8c-.1 1.5-.5 3.7-2 4.4h-.1l.9.2a1.1 1.1 0 0 1-.2 2.2l-1.8-.2a16.8 16.8 0 0 1-4 4.4l.9.5a.4.4 0 0 1-.2.8 13.6 13.6 0 0 1-2.9.3 20.8 20.8 0 0 1-10.1 2.9l-.2.3-1.2 3.2c3.7.6 8 3.2 6.5 7.6s-6.4 4.2-10.4 3.6c-1.3 6.8-3.2 13.6-4.8 20.4-.3 1.6-2.9 1.3-2.5-.3a87.6 87.6 0 0 0 2.5-20.4 7.3 7.3 0 0 0 3.4-1.3.5.5 0 0 0-.3-.9c-2.6-.1-5.1.4-7.7-.2a3.7 3.7 0 0 1-1.2-4.3c.9-2.9 3.9-4.4 7.1-4.8a.8.8 0 0 1-.2-.5 7.4 7.4 0 0 1 0-2.1 34 34 0 0 0 4.6-.6 16.9 16.9 0 0 0 2.7-1c.3-.2.3-.7-.1-.7-3-.1-6 .1-8.9-.2a18.9 18.9 0 0 1-7.4-5.9l-2.3-.6c-1.3-.3-.7-2.4.6-2.2a25.2 25.2 0 0 1-1.2-3.9h-.3a1.1 1.1 0 0 1-.2-1.9c-1.3-1.2-.9-4-.3-5.7zm-16.3-16.2c1.6.2 3.8.1 5.1 1.2a.7.7 0 0 1-.1 1.1c-1.5.8-3.7.2-5.2.1s-1.3-2.7.2-2.4zm-5.2 47.5a1.8 1.8 0 0 1 2.1-1.6l3 .3a1.7 1.7 0 0 1 1.5 1.1 4.3 4.3 0 0 1-2.9 5.8 3.5 3.5 0 0 1-1.1.3c-1.4.1-3-.8-2.9-2.3s.2-2.4.3-3.6zm-67.8-9.4h-.3l.4-.3zm46-10.8a25 25 0 0 1-11.8 6.2 1.2 1.2 0 0 1-1.4-1.7 27.1 27.1 0 0 1 2.1-3.7 50.3 50.3 0 0 1 8.1-7.2c.2-.2 0-.5-.3-.4a26.1 26.1 0 0 0-4.3 2.4 27.1 27.1 0 0 1-9.7-5.3 1.2 1.2 0 0 1 .5-2.2c4.2-.5 9-.5 13 1 .5-2.2 2.1-4.4 3.1-6.3s1.8-4.1 3.4-5.5a14.3 14.3 0 0 1 2 5.1v1.4c.1 1.4.1 2.9.1 4.3s-.5 4.4-.5 6.7c0 .3.5.5.6.1a19.1 19.1 0 0 0 1.4-4.6c1.3.1 2.6.5 3.9.7l7.9 1.3a1.1 1.1 0 0 1 .4 2.1 28.8 28.8 0 0 1-11.7 3.8c1.9 3.4 2 8.1 1.9 11.8 0 1.1-1.3 1.2-1.9.6a30.6 30.6 0 0 1-6.8-10.6zm-24.2 68.2a3.4 3.4 0 0 1-2.9 1 3.6 3.6 0 0 1-3.3-4.2 3.5 3.5 0 0 1 5.2-2.5 3.9 3.9 0 0 1 1.7 2.6 3.6 3.6 0 0 1 .2 1.1 2.1 2.1 0 0 1-.9 2zm11 10.1h-.2c-2-1.6 1.3-4.3 2.4-1.9a.3.3 0 0 1 .1.2 1.5 1.5 0 0 1-2.3 1.7zm63.2 8.8a1.6 1.6 0 0 1 2.7.3 1.5 1.5 0 0 1 .1 1.6 1.7 1.7 0 0 1-1.8 1.1 1.7 1.7 0 0 1-1.4-1.3 1.6 1.6 0 0 1 .4-1.7zm-40.1 14.9l-.3.2a1 1 0 0 1-.5.6 2.2 2.2 0 0 1-3.1-.3 2.5 2.5 0 0 1-.5-2.7 2 2 0 0 1 2.1-1.3.1.1 0 0 1 .1.1h1.3a2.2 2.2 0 0 1 1.6 1.4 2 2 0 0 1-.7 2zm7.9-18.3c-5.8-2.2-9.3-8.7-8.8-14.7v-.3a13 13 0 0 1 4-6 18.2 18.2 0 0 1 4.5-1c6.3-.6 11.7 2.1 16 6.2l-.3-.2c-3.4-1.9-6.8-4-10.6-4.4a9.5 9.5 0 0 1 2.4 1.4c4.5 1.3 8.7 4.3 9.9 8.3a10.5 10.5 0 0 1-1.8 6c-3.1 5-9.9 6.6-15.3 4.7zm27.9 115.3a5.1 5.1 0 0 0 .2-1.3 5 5 0 0 0 .4 1.3zm.3-36c-.1-4.3-.2-8.6-.2-12.9h.4c0 4.4-.1 8.6-.2 12.9zm46.9-61.6c-.9 1.6-3.3 2.6-4.9 1.3a1.8 1.8 0 0 1-.5-.7l-.5-.4a3.2 3.2 0 0 1-.2-3 3.9 3.9 0 0 1 4.6-2.1 3.3 3.3 0 0 1 1.5 4.9zm44.5-26.9c-2.8 2.9-5.6 5.8-8.6 8.6a106.9 106.9 0 0 1-12 9.3l-.4-.3-5.3-3.4a1.3 1.3 0 0 1 0-1.9c4.6-4.3 9-8.7 13.6-13.1 2.3-2.2 5.1-4.4 7-7 .1-.3.3-.7.6-.8a6.6 6.6 0 0 0 1.2-3.3 2.6 2.6 0 0 0 .3-2.3 4.1 4.1 0 0 0-3.8-2.8 9.3 9.3 0 0 0-3.3.4 10.2 10.2 0 0 0-2.2.9l-2 1.2a4.3 4.3 0 0 1-1.4-2.3c-.2-.2-.4-.4-.2-.7 4.7-10 19.2-6.7 21.8 3.1 1.5 5.5-1.6 10.4-5.3 14.4z" fill="#403d33"></path><path d="M442.5 280.5a19 19 0 0 0-2.4 5 17.8 17.8 0 0 1 2.1-4.4z" fill="#403d33"></path><path d="M467.4 266.4c-3.2 0-6.4-.3-9.5-.6 9.3 15.3 22.8 26.1 38.8 33.6-2.5-11.8-4.8-23.6-7-35.5-6.9 2.7-15.1 2.7-22.3 2.5zm16.5 17.6a2.1 2.1 0 0 1 2.6-.7 1.3 1.3 0 0 1 1.4.4 1.9 1.9 0 0 1 .5.9c.1.1.1.3.2.4a1.3 1.3 0 0 1-.2 1.3l-.2.2a.9.9 0 0 1-.3.5 2.4 2.4 0 0 1-3.4.4 2.6 2.6 0 0 1-.6-3.4z" fill="#403d33"></path><path d="M448.3 515.2a34 34 0 0 1-4.6.6 7.4 7.4 0 0 0 0 2.1.8.8 0 0 0 .2.5c-3.2.4-6.2 1.9-7.1 4.8a3.7 3.7 0 0 0 1.2 4.3c2.6.6 5.1.1 7.7.2a.5.5 0 0 1 .3.9 7.3 7.3 0 0 1-3.4 1.3 87.6 87.6 0 0 1-2.5 20.4c-.4 1.6 2.2 1.9 2.5.3 1.6-6.8 3.5-13.6 4.8-20.4 4 .6 8.8.7 10.4-3.6s-2.8-7-6.5-7.6l1.2-3.2.2-.3a21.6 21.6 0 0 1-4.4-.3zm4.1 7h.2a1.2 1.2 0 0 1 1 1.2 1.2 1.2 0 0 1-1.3 1h-.1a1.1 1.1 0 0 1-1-1.3 1.1 1.1 0 0 1 1.2-.9z" fill="#dd3114"></path><path d="M452.2 524.5h.1a1.2 1.2 0 0 0 1.3-1 1.2 1.2 0 0 0-1-1.2h-.2a1.1 1.1 0 0 0-1.2 1 1.1 1.1 0 0 0 1 1.2z" fill="#fff"></path><path d="M515.8 577.5l-3.4 3.1a26.5 26.5 0 0 0 1.1 3 11.6 11.6 0 0 1 .4 1.8l.9-.8 4.4-4c-.8-.6-1.5-1.4-2.3-2.1z" fill="#fff"></path><path d="M516.5 557.1c-.1 1.2-.3 2.5-.4 3.8a3.3 3.3 0 0 1 1.2-.5 2.9 2.9 0 0 1 1.6-.1 38.5 38.5 0 0 1 2.7-3 8.9 8.9 0 0 0-5.1-.2z" fill="#fff"></path><path d="M511.1 581.8l-4.2 4.1a44.2 44.2 0 0 1 1 5l5.2-4.8a10.4 10.4 0 0 1-1-1.8 26 26 0 0 0-1-2.5z" fill="#fff"></path><path d="M517.2 576.1l1 1.1 2.2 2.4a35.6 35.6 0 0 0 5.8-6.5c0-.1 0-.1.1-.2a23.6 23.6 0 0 1-5.1-1.2 23.8 23.8 0 0 1-4 4.4z" fill="#fff"></path><path d="M522.3 562.3a24.2 24.2 0 0 1 4.6-.6 9.7 9.7 0 0 0-2.9-3.2l-1.1-.7a22.5 22.5 0 0 1-2.4 3 4.3 4.3 0 0 1 1.8 1.5z" fill="#fff"></path><path d="M523.2 564.2a7.4 7.4 0 0 1-.9 5.8 21.6 21.6 0 0 1 4.5 1.5h.2a11 11 0 0 0 .6-8.3 21.5 21.5 0 0 1-4.4 1z" fill="#fff"></path><path d="M501.3 591.4c1.2.8 2.5 1.5 3.7 2.4l1.6-1.7a16.9 16.9 0 0 1-1.4-4.5z" fill="#fff"></path><path d="M510 560.8a2.7 2.7 0 0 0 2.1 1.8 10.2 10.2 0 0 1 2.2-.9c.2-1.4.3-2.7.5-4.1a17.5 17.5 0 0 0-4.8 3.2z" fill="#fff"></path><path d="M508.5 560.8c-.2.3 0 .5.2.7a4.3 4.3 0 0 0 1.4 2.3l2-1.2a2.7 2.7 0 0 1-2.1-1.8 17.5 17.5 0 0 1 4.8-3.2c-.2 1.4-.3 2.7-.5 4.1a9.3 9.3 0 0 1 3.3-.4 4.1 4.1 0 0 1 3.8 2.8 2.6 2.6 0 0 1-.3 2.3 6.6 6.6 0 0 1-1.2 3.3c-.3.1-.5.5-.6.8-1.9 2.6-4.7 4.8-7 7-4.6 4.4-9 8.8-13.6 13.1a1.3 1.3 0 0 0 0 1.9l5.3 3.4.4.3a106.9 106.9 0 0 0 12-9.3c3-2.8 5.8-5.7 8.6-8.6s6.8-8.9 5.3-14.5c-2.6-9.7-17.1-13-21.8-3zm10.4-.5a2.9 2.9 0 0 0-1.6.1 3.3 3.3 0 0 0-1.2.5c.1-1.3.3-2.6.4-3.8a8.9 8.9 0 0 1 5.1.2 38.5 38.5 0 0 0-2.7 3zm1.6.5a22.5 22.5 0 0 0 2.4-3l1.1.7a9.7 9.7 0 0 1 2.9 3.2 24.2 24.2 0 0 0-4.6.6 4.3 4.3 0 0 0-1.8-1.5zm-15.5 33c-1.2-.9-2.5-1.6-3.7-2.4l3.9-3.8a16.9 16.9 0 0 0 1.4 4.5zm2.9-2.9a44.2 44.2 0 0 0-1-5l4.2-4.1a26 26 0 0 1 1 2.5 10.4 10.4 0 0 0 1 1.8zm6.9-6.3l-.9.8a11.6 11.6 0 0 0-.4-1.8 26.5 26.5 0 0 1-1.1-3l3.4-3.1 1.1 1c.8.7 1.5 1.5 2.3 2.1zm11.4-11.5a35.6 35.6 0 0 1-5.8 6.5l-2.2-2.4-1-1.1a23.8 23.8 0 0 0 4-4.4 23.6 23.6 0 0 0 5.1 1.2c-.1.1-.1.1-.1.2zm.8-1.5h-.2a21.6 21.6 0 0 0-4.5-1.5 7.4 7.4 0 0 0 .9-5.8 21.5 21.5 0 0 0 4.4-.9 11 11 0 0 1-.6 8.2z" fill="#dd3114"></path><path d="M484.5 287.4a2.4 2.4 0 0 0 3.4-.4.9.9 0 0 0 .3-.5l.2-.2a1.3 1.3 0 0 0 .2-1.3c-.1-.1-.1-.3-.2-.4a1.9 1.9 0 0 0-.5-.9 1.3 1.3 0 0 0-1.4-.4 2.1 2.1 0 0 0-2.6.7 2.6 2.6 0 0 0 .6 3.4z" fill="#40b3b8"></path><path d="M421.2 379.7a3 3 0 0 0 1.2-2.5 2.3 2.3 0 0 0-.8-1.7 3 3 0 0 0-2.8-.9 2.5 2.5 0 0 0-1.9 2.5c0 2.2 2.4 3.9 4.3 2.6z" fill="#40b3b8"></path><path d="M481.3 474.6a3.3 3.3 0 0 0 2.2.1 3.2 3.2 0 0 0 .8-5.9 3.4 3.4 0 0 0-4.7 1.6 3.2 3.2 0 0 0 1.7 4.2z" fill="#40b3b8"></path><path d="M487.5 546.1c3-1.9 5.1-5.6 4.3-9.2a7.4 7.4 0 0 0-1.6-3.2 5 5 0 0 0-1-1.9c-2.4-3.2-6.3-2.3-9.5-1s-6 3.6-6.4 7.4c-.6 7.5 8.1 11.7 14.2 7.9zm-1.3-6.6c-1.6-.1-1.4-1.6.2-1.4a.7.7 0 1 1-.2 1.4zm1.4-5.7a1.2 1.2 0 0 1 .6 1.5h-.1v.6a.9.9 0 0 1-1.1.9h-1.1a1.3 1.3 0 0 1-1-.9c-.2-1.3 1.3-2.8 2.7-2.1z" fill="#40b3b8"></path><path d="M486.4 538.1c-1.6-.2-1.8 1.3-.2 1.4a.7.7 0 1 0 .2-1.4z" fill="#fff"></path><path d="M485.9 536.9h1.1a.9.9 0 0 0 1.1-.9v-.6h.1a1.2 1.2 0 0 0-.6-1.5c-1.4-.7-2.9.8-2.7 2.2a1.3 1.3 0 0 0 1 .8z" fill="#fff"></path><path d="M507.2 503.3l12.5 1.7c3.4.5 7.6.4 10.7 1.8a11.4 11.4 0 0 0 2-6.4c-8.4 0-17.2-1.1-25.6-2.1a14 14 0 0 0 .4 5z" fill="#e2caaa"></path><path d="M519.4 507.4l-11.2-1.6a15.9 15.9 0 0 0 2.5 3.3 13.1 13.1 0 0 0 18.4-.5c-3.2.1-6.7-.8-9.7-1.2z" fill="#e2caaa"></path><path d="M528.7 491.4c-2.2-1.2-4-2.6-6.2-3.4a20 20 0 0 0-7.9 1.4h-.2c5.3 1.2 10.6 2.4 15.9 3.8-.5-.5-1-1.2-1.6-1.8z" fill="#e2caaa"></path><path d="M532.3 498.3a12 12 0 0 0-.8-2.7c-6.8-1.3-13.5-2.8-20.2-4.3a17.8 17.8 0 0 0-3.5 3.2 12.1 12.1 0 0 0-.5 1.4c8.2.5 16.9.9 25 2.4z" fill="#e2caaa"></path><path d="M529.2 488.5c-4.5-6.4-16.3-4.8-21.1.2a16.3 16.3 0 0 0-3.8 6.6 8.3 8.3 0 0 1 1.3-1.8c4-5 12.4-9.6 18.6-6.1.2.1.1.5-.1.5h-1.6c2.2.8 4 2.2 6.2 3.4.6.6 1.1 1.3 1.6 1.9-5.3-1.4-10.6-2.6-15.9-3.8a19.2 19.2 0 0 0-3.1 1.8c6.7 1.5 13.4 3 20.2 4.3a12 12 0 0 1 .8 2.7c-8.1-1.5-16.8-1.9-25-2.4a12.1 12.1 0 0 1 .5-1.4 14.7 14.7 0 0 1-1 1.3 18.3 18.3 0 0 0-2.8 6.9 15.8 15.8 0 0 0 5.5 9.5 16 16 0 0 0 23.4-4.2 13.9 13.9 0 0 0 1.2-2.8 13.7 13.7 0 0 0 .8-5.3.8.8 0 0 0 0-.7 15.3 15.3 0 0 0-3.8-8.9 10.7 10.7 0 0 0-1.9-1.7zm-18.5 20.6a15.9 15.9 0 0 1-2.5-3.3l11.2 1.6c3 .4 6.5 1.3 9.7 1.2a13.1 13.1 0 0 1-18.4.5zm19.7-2.3c-3.1-1.4-7.3-1.3-10.7-1.8l-12.5-1.7a14 14 0 0 1-.4-5c8.4 1 17.2 2.1 25.6 2.1a11.4 11.4 0 0 1-2 6.4z" fill="#ff4217"></path><path d="M396.3 513.9c.1-3.7 0-8.4-1.9-11.8a28.8 28.8 0 0 0 11.7-3.8 1.1 1.1 0 0 0-.4-2.1l-7.9-1.3c-1.3-.2-2.6-.6-3.9-.7a19.1 19.1 0 0 1-1.4 4.6c-.1.4-.6.2-.6-.1 0-2.3.4-4.5.5-6.7s0-2.9-.1-4.3v-1.4a14.3 14.3 0 0 0-2-5.1c-1.6 1.4-2.4 3.6-3.4 5.5s-2.6 4.1-3.1 6.3c-4-1.5-8.8-1.5-13-1a1.2 1.2 0 0 0-.5 2.2 27.1 27.1 0 0 0 9.7 5.3 26.1 26.1 0 0 1 4.3-2.4c.3-.1.5.2.3.4a50.3 50.3 0 0 0-8.1 7.2 27.1 27.1 0 0 0-2.1 3.7 1.2 1.2 0 0 0 1.4 1.7 25 25 0 0 0 11.8-6.2 30.6 30.6 0 0 0 6.8 10.6c.6.6 1.9.5 1.9-.6z" fill="#ff4217"></path><path d="M467.7 264.1a102.8 102.8 0 0 1-24-3.9c-1.7-.4-2.7 2.1-1 2.6a102.9 102.9 0 0 0 12 2.6c.1 0 .1.1.2.2 9.5 16.1 24.6 30 42.3 36.5a41.1 41.1 0 0 0 4.6 1.5.9.9 0 0 0 .7-1.7l-5.8-2.5c-16-7.5-29.5-18.3-38.8-33.6 3.1.3 6.3.6 9.5.6 7.2.2 15.4.2 22.3-2.5l1-.5c.3-.1.3-.5 0-.5h-1.2c-7.3 0-14.5 1.4-21.8 1.2z" fill="#e2caaa"></path><path d="M414.8 333.7a89.1 89.1 0 0 0 36 .8 83.7 83.7 0 0 0 16.9-4.9c5.3-2.1 10.9-4.6 14.9-8.8.3-.2.1-.5-.2-.4-5.4 1.8-10.4 4.8-15.8 6.8a91.4 91.4 0 0 1-16.9 4.4 89 89 0 0 1-34.5-1.1c-2-.5-2.4 2.7-.4 3.2z" fill="#d8ad79"></path><path d="M495.7 384.8a128.8 128.8 0 0 1-28.4-3.2 117.8 117.8 0 0 1-28.1-10.6c-9-4.7-18-10.6-24.1-18.9-1.2-1.5-3.5.3-2.4 1.9 6.1 8.2 14.8 14 23.6 18.8a116.4 116.4 0 0 0 29 11.3 116.7 116.7 0 0 0 45.3 2.3l2.3-.4c4.2-.6 8.8-1.3 12.4-3.3.4-.2.5-1.1-.2-1.1-4.2 0-8.4 1.3-12.5 2h-1.1a118.7 118.7 0 0 1-15.8 1.2z" fill="#d8ad79"></path><path d="M386.4 465.8c5.7 4.3 13.4 9.5 20.7 10.1a.8.8 0 0 0 .4-1.5c-3.2-1.7-6.8-2.7-10-4.5a67.4 67.4 0 0 1-10.1-6.6 105 105 0 0 1-15.3-14.5 150.2 150.2 0 0 0 36.4 8.2 158 158 0 0 0 68.2-8.1c14.7-5.1 30.6-12.8 42.5-24a64.9 64.9 0 0 0 11.6-14.5c.4-.8-.6-1.6-1.1-.9a96.5 96.5 0 0 1-11.1 11.9c-17.2 15.7-39.2 25.3-62.1 30a157.3 157.3 0 0 1-85.7-6.4 1.5 1.5 0 0 0-1.6.2 1.6 1.6 0 0 0-.5 1.1 1.4 1.4 0 0 0-.6 2.1 2.7 2.7 0 0 1 .7.8 110.6 110.6 0 0 0 17.6 16.6z" fill="#e2caaa"></path><path d="M414.4 479c1.5.1 3.7.7 5.2-.1a.7.7 0 0 0 .1-1.1c-1.3-1.1-3.5-1-5.1-1.2s-1.8 2.2-.2 2.4z" fill="#e2caaa"></path><path d="M540.5 535.5a.1.1 0 0 0-.1-.1 14.9 14.9 0 0 1-4.1-5.4 53.2 53.2 0 0 1-3.7-6.6 1.9 1.9 0 0 0-.2.8 4.9 4.9 0 0 0 .1 1.2c-6.4 12.2-16.5 20.8-28.5 27.3s-26 11.7-40.1 12.9a64.5 64.5 0 0 1-41.6-10.6c-11.4-7.5-20.6-17.8-28.9-28.5l-.5-.4a16.7 16.7 0 0 1-1.8 2.8c8.1 10.3 16.9 20.1 27.7 27.6 19.5 13.6 42.6 15.3 65 8.3 18.4-5.7 41.1-17 49.5-35.7a18.3 18.3 0 0 0 7.9 9.4 16.2 16.2 0 0 0 10.6 2.3c.6-.1.8-1.1.2-1.3l-2.9-.7a40.7 40.7 0 0 1-5-1.3 16.2 16.2 0 0 1-3.6-2z" fill="#e2caaa"></path><path d="M366 540.9a48.2 48.2 0 0 0 18-6.4c3-2.9 5.5-6.3 8.2-9.4a.4.4 0 0 0-.5 0c-3.9 2.4-7.1 5.6-11.2 7.8a45.1 45.1 0 0 1-13.8 4.7 44.4 44.4 0 0 1-31.1-6.7c-1.5-1-3.3 1-2.2 2.2l.3.3c.1.1.2.1.2.2a47.2 47.2 0 0 0 32.1 7.3z" fill="#e2caaa"></path><path d="M440.6 315.7a1.3 1.3 0 0 1 .1-.6c6.1-9.8 10.2-27.7 2.5-37.9a16 16 0 0 0-5.7 5.6c0 .1 0 .2-.1.2a90.4 90.4 0 0 0-2.2 9.4c-1.4 7.5-.8 18.3 5.4 23.3zm1.9-35.2l-.3.6a17.8 17.8 0 0 0-2.1 4.4 19 19 0 0 1 2.4-5zm-3.1 13.6a2.4 2.4 0 0 1 .9-.8 1.3 1.3 0 0 1 1.2 0 1.2 1.2 0 0 1 1 .4 2 2 0 0 1 .1 2.2c0 .2-.1.3-.3.4a1.8 1.8 0 0 1-2.3.2 1.8 1.8 0 0 1-.6-2.4z" fill="#e2caaa"></path><path d="M453.3 278.9z" fill="#e2caaa"></path><path d="M456.8 313.2l3.2-2.9a32.4 32.4 0 0 0 3.2-15.1 32.8 32.8 0 0 0-1.5-7.9 10 10 0 0 0-1-2.9 19.8 19.8 0 0 0-5.2-7.7c-4.5 12.1-5.2 24.9 1.3 36.5zm-.8-18a1.9 1.9 0 0 1 2.4-1.2 1.9 1.9 0 0 1 1.4 2 2 2 0 0 1-1.8 1.7 1.4 1.4 0 0 1-.9 0 2 2 0 0 1-1.1-2.5z" fill="#e2caaa"></path><path d="M451.1 287.2h-.1v.4c0-.2.1-.3.1-.4z" fill="#e2caaa"></path><path d="M448.8 292.1c0 .5-.1.9-.1 1.3h.2c0-.9-.1-1.9-.2-2.9a10.3 10.3 0 0 1 .1 1.6z" fill="#e2caaa"></path><path d="M441.4 316.2l.3.2c0-.1-.1-.1-.1-.2z" fill="#e2caaa"></path><path d="M455.1 314.2h.2a.8.8 0 0 0-.2-.4c.1.1 0 .3 0 .4z" fill="#e2caaa"></path><path d="M440.7 315.1a1.3 1.3 0 0 0-.1.6.7.7 0 0 0 .8.5h.2c0 .1.1.1.1.2a.8.8 0 0 0 .4.4c4.3 2.5 10.4 2.7 14.2-.7a.6.6 0 0 0 .6-.6c.5-.2.8-.6.6-1.1l-.4.3c-1.9 1.4-4.5 3.2-7 3.1a.4.4 0 0 1-.2-.8c1.5-1.2 3.5-1.8 5.2-2.8 0-.1.1-.3 0-.5a.8.8 0 0 1 .2.4l.9-.5.6-.4c-6.5-11.6-5.8-24.4-1.3-36.5.1-.3 0-.6-.3-.6s0-.1-.1-.1c-3.3-3.3-8.1-3.4-12.2-1.5h-.2c-.6-.3-1.4.5-.9 1.1a9.3 9.3 0 0 1 4.4-1.1.6.6 0 0 1 .2 1.1l-3.2 1.6c7.7 10.2 3.6 28.1-2.5 37.9zm12.6-36.2zm-4.6 14.5c0-.4.1-.8.1-1.3a10.3 10.3 0 0 0-.1-1.7c.1 1 .2 2 .2 2.9zm2.7 17.2a1.2 1.2 0 0 1-1.3 1 1.2 1.2 0 0 1 .2-2.4 1.2 1.2 0 0 1 1.1 1.4zm-.3-23.4c0 .1-.1.2-.1.4v-.4zm-2.3-9.5a1 1 0 0 1 1.7.4c.1.1.1.3.2.4a1 1 0 0 1-1.4 1.1l-.4-.2a1.1 1.1 0 0 1-.1-1.7z" fill="#d8ad79"></path><path d="M457.1 297.7a1.4 1.4 0 0 0 .9 0 2 2 0 0 0 1.8-1.7 1.9 1.9 0 0 0-1.4-2 1.9 1.9 0 0 0-2.4 1.2 2 2 0 0 0 1.1 2.5z" fill="#fff"></path><path d="M440 296.5a1.8 1.8 0 0 0 2.3-.2c.2-.1.3-.2.3-.4a2 2 0 0 0-.1-2.2 1.2 1.2 0 0 0-1-.4 1.3 1.3 0 0 0-1.2 0 2.4 2.4 0 0 0-.9.8 1.8 1.8 0 0 0 .6 2.4z" fill="#fff"></path><path d="M499.6 341.1c-.1-1.1-.1-2.3-.1-3.4l-11.3 1.4h-.6l.5.8.2.2 1.9 2.3a22.4 22.4 0 0 1 8 8.3c.1.3-.2.5-.4.3l-3.7-3.6a40.2 40.2 0 0 1 2.6 6 27.1 27.1 0 0 1 1.3 7 28.2 28.2 0 0 1 .7 3.1c1.1-7.5 1-15.1.9-22.4z" fill="#fff"></path><path d="M508.2 336.6l-6.6.9c-.1 1.5-.1 3.1-.1 4.6-.3 8.8-.5 17.3-2.3 25.8.1.6.1 1.2.2 1.8 2.1-6.1 3.5-12.4 5.2-18.6.7-2.5 1.2-5 2-7.4l.6-1.6c1.2-3 3.1-4.1 5.1-6.2l.6.2a.8.8 0 0 0 .7-.1c-1.4-.4-4.5.5-5.4.6z" fill="#fff"></path><path d="M501.5 311.9c.4 7.8.3 15.6.1 23.4l11.7-1.4c-8.3-2.4-8-13.5-11.1-20.5a10.5 10.5 0 0 0-.5-1.9.5.5 0 0 0-.9-.1.5.5 0 0 1 .7.5z" fill="#fff"></path><path d="M499.6 322.1a24.2 24.2 0 0 1-1.2 5 20.5 20.5 0 0 1-8 9.9l9.1-1.4c0-4.5 0-9 .1-13.5z" fill="#fff"></path><path d="M499.5 335.6l-9.1 1.4-2.5.4c-.9.1-.9 1.1-.3 1.6h.6l11.3-1.4c0 1.1 0 2.3.1 3.4.1 7.3.2 14.9-.9 22.3.2 1.5.4 3 .5 4.5 1.8-8.5 2-17 2.3-25.8 0-1.5 0-3.1.1-4.6l6.6-.9c.9-.1 4-1 5.4-.6a.5.5 0 0 1 .5.3h.1l.8-.9c.5-.7-.2-1.6-1-1.6h-.7l-11.7 1.4c.2-7.8.3-15.6-.1-23.4a.5.5 0 0 0-.7-.5c-.4 0-.7.2-.7.6a21.1 21.1 0 0 0-.2 2.5l-.3 7.6c-.1 4.7-.1 9.2-.1 13.7z" fill="#e2caaa"></path><path d="M471.2 341.7a6.7 6.7 0 0 0-1.4-1.5c-6.8-5.8-16.9-1.5-19.9 6.2-1.5 3.6-1.7 8.3.6 11.7a3.1 3.1 0 0 0 .9 1.1 16.8 16.8 0 0 1 .8-10.4c.1-.1.2-.1.2.1a27.7 27.7 0 0 0 1.7 12.4 17.4 17.4 0 0 0 8 1.9c8.5.3 16.1-7.2 13.1-15.9a12.1 12.1 0 0 0-4-5.6zm-3.7 10.3c-1.6-.1-1.4-2.1.2-1.9s.5 2-.2 1.9zm3.4-3.8a1.4 1.4 0 0 1-2.4.6 1.3 1.3 0 0 1 1.1-2.2h.1a1.2 1.2 0 0 1 1.2 1.6z" fill="#dd3114"></path><path d="M469.7 346.6h-.1a1.3 1.3 0 0 0-1.1 2.2 1.4 1.4 0 0 0 2.4-.6 1.2 1.2 0 0 0-1.2-1.6z" fill="#fff"></path><path d="M467.7 350.1c-1.6-.2-1.8 1.8-.2 1.9s.9-1.8.2-1.9z" fill="#fff"></path><path d="M450.3 309.2a1.2 1.2 0 0 0-.2 2.4 1.2 1.2 0 0 0 1.3-1 1.2 1.2 0 0 0-1.1-1.4z" fill="#fff"></path><path d="M448.9 279.4l.4.2a1 1 0 0 0 1.4-1.1c-.1-.1-.1-.3-.2-.4a1 1 0 0 0-1.7-.4 1.1 1.1 0 0 0 .1 1.7z" fill="#fff"></path><path d="M498 409.1a13.5 13.5 0 0 0-3.4.6l-1.5.8c-1.1 1.7-2.2 3.5-3.2 5.3a17.6 17.6 0 0 1 4.9-1.6 23.3 23.3 0 0 1 3.2-5.1z" fill="#fff"></path><path d="M494 415.9l-2.2.7a20.7 20.7 0 0 0-3.2 1.9 42.5 42.5 0 0 0-2.1 4.9 14.9 14.9 0 0 1 5.3-1.7 45.8 45.8 0 0 1 2.2-5.8z" fill="#fff"></path><path d="M499.1 407.8a8.4 8.4 0 0 1 3-1.9 8 8 0 0 0-4.8-.5 21.3 21.3 0 0 0-2.9 3.1 10.8 10.8 0 0 1 4.7-.7z" fill="#fff"></path><path d="M488.9 423.8a17.7 17.7 0 0 0-3.2 2.1 48.5 48.5 0 0 0-1.6 6.3c-.1.3-.2.6-.4.7a10.2 10.2 0 0 0 4.1 1.2l2.1-4.6a32.5 32.5 0 0 1 1.5-6.5z" fill="#fff"></path><path d="M506.9 405a3.9 3.9 0 0 1-.5 2.4h-.1a8.5 8.5 0 0 1 1.2 3.8c.1 1.4-.2 2.7-.1 4.2s.1.2.2.3 0-.1.1-.2a7.7 7.7 0 0 0-.8-10.5z" fill="#fff"></path><path d="M505.6 406.7l.4.4a4.3 4.3 0 0 0 .1-.5z" fill="#fff"></path><path d="M503.5 405.6a5.6 5.6 0 0 1 2.6.8 5.8 5.8 0 0 0-.3-1.9l-.2-.3a8.1 8.1 0 0 0-2.2-.7 6.2 6.2 0 0 0-4.1.6 7.5 7.5 0 0 1 4 1.2c.1.1.2.2.2.3z" fill="#fff"></path><path d="M482.1 434.1a10.8 10.8 0 0 0 5.2 1.3c.2-.5.3-.9.5-1.3a10.2 10.2 0 0 1-4.1-1.2c.2-.1.3-.4.4-.7a48.5 48.5 0 0 1 1.6-6.3 17.7 17.7 0 0 1 3.2-2.1l2.5-.8a32.5 32.5 0 0 0-1.5 6.5c2.4-5.1 4.7-10.2 7.1-15.2 1.1-2.3 2.6-6 5.1-6.6a9.5 9.5 0 0 1 3.5-1h.5a4.3 4.3 0 0 1-.1.5v.2c-.1.1.1.2.3.2h.1a3.9 3.9 0 0 0 .5-2.4 7.7 7.7 0 0 1 .8 10.6c-.1.1-.1.1-.1.2a.5.5 0 0 0 .9.5c6-6.8-.7-17.8-9.6-14.6-5 1.8-8.2 7.7-10.6 12a65.6 65.6 0 0 0-5.4 12.5l-.3.3a1.1 1.1 0 0 0 0 .8 34.5 34.5 0 0 0-1.2 4.6.9.9 0 0 0 .3 1.1.9.9 0 0 0 .4.9zm21.3-30.6a8.1 8.1 0 0 1 2.2.7l.2.3a5.8 5.8 0 0 1 .3 1.9 5.6 5.6 0 0 0-2.6-.8c0-.1-.1-.2-.2-.3a7.5 7.5 0 0 0-4-1.2 6.2 6.2 0 0 1 4.1-.6zm-6.1 1.9a8 8 0 0 1 4.8.5 8.4 8.4 0 0 0-3 1.9 10.8 10.8 0 0 0-4.7.7 21.3 21.3 0 0 1 2.9-3.1zm-4.2 5.1l1.5-.8a13.5 13.5 0 0 1 3.4-.6 23.3 23.3 0 0 0-3.2 5.1 17.6 17.6 0 0 0-4.9 1.6c1-1.8 2.1-3.6 3.2-5.3zm-4.5 8a20.7 20.7 0 0 1 3.2-1.9l2.2-.7a45.8 45.8 0 0 0-2.2 5.8 14.9 14.9 0 0 0-5.3 1.7 42.5 42.5 0 0 1 2.1-4.9z" fill="#dd3114"></path><path d="M490.3 434.9h.1a.4.4 0 0 0 .2-.6z" fill="#dd3114"></path><path d="M456.2 174.4a.8.8 0 0 1-1-1 8.6 8.6 0 0 1 3.2-3.6c-.8-.1-1.4-.7-1-1.6a12.5 12.5 0 0 1 1.9-3.4 8.9 8.9 0 0 0-2.8-9.7 1.2 1.2 0 0 1 .2-2 22.7 22.7 0 0 0 9.9-6.7c2.3-2.7 3.2-5.8 4.6-8.9a22.5 22.5 0 0 1 .3-7.4c.1-.5 1.1-.7 1.1 0 1 10.4 3.7 25.4 17.6 23.7a1.1 1.1 0 0 1 1 1.8.7.7 0 0 1-.6.4c-6.3.8-9.8 6.6-7.4 12.4a1.1 1.1 0 0 1-1.9.9 11.5 11.5 0 0 0-19.9-3.5 10.5 10.5 0 0 1-1.7 3.1 22.8 22.8 0 0 1 14.8-2.1c6.3 1.4 13.8 6.8 14.7 13.7 0 .1 0 .2-.1.2a10.7 10.7 0 0 0 2.6 2.6.9.9 0 0 0 1.3-1.1c-1.3-3.3-3.7-6-4.9-9.5s-.8-6.8-1.9-9.8c2-1.4 3.7-3.4 5.9-4.6s5.2-2.1 7.8-3.2l1.1-.2c.5-.2.7-1 .1-1.2-4.2-1.7-9.1-1.7-13.5-3.2l-2.4-.8a11.2 11.2 0 0 1-5.8-3.2 12.5 12.5 0 0 1-2.3-2.3c0-.2-.1-.4-.1-.6s-2-3.6-1.5-5.2l-.3-1.2-.6-3.2h-.1a6.2 6.2 0 0 1-1.6-3 .8.8 0 0 1 1-1.1c-.3-2.8-.6-5.5-1.1-8.2a11 11 0 0 0-.2-1.8c-.2 7.1-2.4 15.5-6.2 21.4s-8.3 9.5-14.2 9.4a.9.9 0 0 1-.8-1.2 51.7 51.7 0 0 1-11.8.8 1.2 1.2 0 0 0-.5 2.3 1.1 1.1 0 0 0 1 1.1 25.3 25.3 0 0 1 12.9 4.2c4.3 5.7-2 15.8-5.8 21.4l-.9.9c-1.3 1.4.5 3.6 1.8 2.3a73.3 73.3 0 0 1 10.4-8.8c2.4-1.6 5.2-2.9 7.8-4.4a12.9 12.9 0 0 0-2.6.8c-2.8.8-4.8 3-7.5 4.3z" fill="#40b3b8"></path><path d="M481.1 172a14.7 14.7 0 0 0-5.3-2.7 24.1 24.1 0 0 1 5.3 2.7z" fill="#40b3b8"></path><path d="M471.3 120.3c0 .1-.1.1-.1.2-1.8 4.5-2.4 9.5-4.2 14a56.2 56.2 0 0 1-3.4 6.4 31.6 31.6 0 0 0 1.8-2.7c3.4-5.7 4.1-11.8 5.9-17.9z" fill="#40b3b8"></path><path d="M481.3 169.3a1.1 1.1 0 0 0 1.9-.9c-2.4-5.8 1.1-11.6 7.4-12.4a.7.7 0 0 0 .6-.4 1.1 1.1 0 0 0-1-1.8c-13.9 1.7-16.6-13.3-17.6-23.7 0-.7-1-.5-1.1 0a22.5 22.5 0 0 0-.3 7.4c-1.4 3.1-2.3 6.2-4.6 8.9a22.7 22.7 0 0 1-9.9 6.7 1.2 1.2 0 0 0-.2 2 8.9 8.9 0 0 1 2.8 9.7 12.5 12.5 0 0 0-1.9 3.4c-.4.9.2 1.5 1 1.6a5.1 5.1 0 0 1 1.3-.9 10.5 10.5 0 0 0 1.7-3.1 11.5 11.5 0 0 1 19.9 3.5zm-6.5-20.3h.4c2.2.2 3.4 2.4 3.9 4.2a1.1 1.1 0 0 1-1 1.3c-1.9.3-4.2.2-5-1.9a2.5 2.5 0 0 1 1.7-3.6zm-3.3 6.5c.1-.4.4-.9.9-.9a1.1 1.1 0 0 1 1.2.5 1.1 1.1 0 0 1-.2 1.3 1.1 1.1 0 0 1-1.9-.9z" fill="#95d3ca"></path><path d="M478.1 154.4a1.1 1.1 0 0 0 1-1.3c-.5-1.8-1.7-4-3.9-4.2h-.4a2.5 2.5 0 0 0-1.7 3.5c.8 2.2 3.1 2.3 5 2z" fill="#fff"></path><path d="M473.4 156.4a1.1 1.1 0 0 0 .2-1.3 1.1 1.1 0 0 0-1.2-.5c-.5 0-.8.5-.9.9a1.1 1.1 0 0 0 1.9.9z" fill="#fff"></path><path d="M459 425.7v-.2a48.2 48.2 0 0 0-4.5-6.9c-.5 4.7-2.4 9.4-3.7 13.9 4.1-.8 7.9-2 8.2-6.8z" fill="#95d3ca"></path><path d="M449.2 422.5a60.9 60.9 0 0 1-2.7 11l2.1-.5a.1.1 0 0 1 .1-.1c3.2-4.9 3.5-10.3 4.5-15.8a26 26 0 0 0-3.6-3c.4 2.8-.1 5.8-.4 8.4z" fill="#95d3ca"></path><path d="M439.9 437.3a14 14 0 0 1 4.2-3 .4.4 0 0 0 .1-.3 58.6 58.6 0 0 0 3.1-12.5c.3-2.7 0-5.7.4-8.5a7.5 7.5 0 0 0-1.8-.8h-1.1c.8 8.5-1.9 17.2-4.9 25.1z" fill="#95d3ca"></path><path d="M437 420.2a48.3 48.3 0 0 1-3.4 11.2 12.1 12.1 0 0 1 2 .9 8 8 0 0 1 3.2 3.1c2.6-7.7 3.1-15.4 4-23.4a42.3 42.3 0 0 0-5-.5 31.4 31.4 0 0 1-.8 8.7z" fill="#95d3ca"></path><path d="M423.5 419.9l.3.5c.5 3.2-.2 6.1 2.8 8.4l.3.2c1.5-5.1 1.9-10.4 2.4-15.6a11.9 11.9 0 0 0-2.5 1.3 12.6 12.6 0 0 0-3.3 5.2z" fill="#95d3ca"></path><path d="M428.3 429.7a20.6 20.6 0 0 0 3.5 1.2 66.7 66.7 0 0 0 3.3-11.6c.5-2.5.5-5.2 1-7.7h-.3a23.1 23.1 0 0 0-5.2 1.2c.6 5.8-.7 11.3-2.3 16.9z" fill="#95d3ca"></path><path d="M459 425.7c-.3 4.8-4.1 6-8.1 6.8 1.3-4.5 3.2-9.2 3.7-13.9l-1.4-1.5c-1 5.5-1.3 10.9-4.5 15.8a.1.1 0 0 0-.1.1l-2.1.5a60.9 60.9 0 0 0 2.7-11c.3-2.6.8-5.6.4-8.4l-1.9-1.1c-.4 2.8-.1 5.8-.4 8.5a58.6 58.6 0 0 1-3.1 12.5.4.4 0 0 1-.1.3 14 14 0 0 0-4.2 3c3-7.9 5.7-16.6 4.9-25.1l-2-.2c-.9 8-1.4 15.7-4 23.4a8 8 0 0 0-3.2-3.1 12.1 12.1 0 0 0-2-.9 48.3 48.3 0 0 0 3.4-11.2 31.4 31.4 0 0 0 .8-8.7h-1.7c-.5 2.5-.5 5.2-1 7.7a66.7 66.7 0 0 1-3.3 11.6 20.6 20.6 0 0 1-3.5-1.2c1.6-5.6 2.9-11.1 2.3-16.9l-1.3.6c-.5 5.2-.9 10.5-2.4 15.6l-.3-.2c-3-2.3-2.3-5.2-2.8-8.4l-.3-.5a16 16 0 0 0-.7 3.3c0 .9-.9 1.2-1.6 1.1a10.1 10.1 0 0 0 2.9 5.7c2.2 2.1 6.6 2.7 9.9 4.2a6.4 6.4 0 0 1 1.1 1.6 5.9 5.9 0 0 1 .6 4.5 1.1 1.1 0 0 0 1.6 1.2 1 1 0 0 0 1 .3 1.2 1.2 0 0 0 1.3-.3c2.2-2.6 4.3-4.7 7.6-5.8s5.1-1.2 7.5-2.4 5.1-3.7 4.8-6.8l-.4-1z" fill="#ff4217"></path><path d="M444.2 408.7a28.5 28.5 0 0 0 1.8-5.4c.2-1.2 0-2.7-1.2-3.3a2.5 2.5 0 0 0-3.2 1.5c-1 2.1.9 4 .3 6a1.4 1.4 0 0 0 .1.9h.3z" fill="#ff4217"></path><path d="M447.7 413l1.9 1.1a26 26 0 0 1 3.6 3l1.4 1.5a48.2 48.2 0 0 1 4.5 6.9l.4 1a.1.1 0 0 1 .1.1c.2.3.5.3.6 0a6.6 6.6 0 0 0-.1-1.4v-.3a20.5 20.5 0 0 0-.5-2.4 18 18 0 0 0-.8-2.1 23.1 23.1 0 0 0-5.6-7.5 23.9 23.9 0 0 0-9-4.2l-1.9-.3h-.3l-1.2-.3c-6.4-.9-13.6 1.4-17.6 6.2l2-1.4c5.6-3.5 14.9-5.2 20.7-1.1a.3.3 0 0 1 0 .4 7.5 7.5 0 0 1 1.8.8z" fill="#dd3114"></path><path d="M422.8 423.2a16 16 0 0 1 .7-3.3 12.6 12.6 0 0 1 3.3-5.2l-1.2.8a20.6 20.6 0 0 0-5.2 5.4 19.3 19.3 0 0 0-.1 2.4 1.2 1.2 0 0 0 .9 1c.7.1 1.6-.2 1.6-1.1z" fill="#dd3114"></path><path d="M512.6 445.5h-1.3a12.8 12.8 0 0 1 9.4 4.3.4.4 0 0 1-.4.6c-6-1.8-11.1-3.9-17.3-1l-1.3.7a12.2 12.2 0 0 0-2.9 6.3c-1 8.7 7.3 13.3 15 13.1a13 13 0 0 0 11.7-8.1 11 11 0 0 0 .2-7.8 12.7 12.7 0 0 0-2.3-4.1 11.9 11.9 0 0 0-10.8-4zm-10.2 14.8a1.5 1.5 0 0 1-1.3 0 1.5 1.5 0 0 1-.7-1.4 1.5 1.5 0 0 1 2.3-.9 1.2 1.2 0 0 1-.3 2.3zm2.9-7.5a1.4 1.4 0 0 1-1.8-.2c0-.1-.1-.1-.1-.2a1.3 1.3 0 0 1 .2-1.8 1.4 1.4 0 0 1 1.8.2v.2a1.3 1.3 0 0 1-.1 1.8zm2.2 12.7a1.2 1.2 0 1 1 .2-2.4 1.2 1.2 0 1 1-.2 2.4zm4.1-7.9a1.5 1.5 0 1 1 .3-3c1.6.2 1.3 3.2-.3 3zm1.3-6h-.2a1.3 1.3 0 0 1 .3-2.4h.1a1.4 1.4 0 0 1 1.6 1.5 1.3 1.3 0 0 1-1.8.9zm2.2 12.3c-1.6-.1-1.3-3.1.3-2.9a1.5 1.5 0 1 1-.3 2.9zm7-2h-.1a1.2 1.2 0 0 1-1.3-1.3 1.1 1.1 0 0 1 1.5-.9h.1a1.1 1.1 0 0 1-.2 2.2zm1.3-6.9a1.3 1.3 0 0 1-1.6.9 1.4 1.4 0 0 1-1-1.9 1.4 1.4 0 0 1 1.8-.7 1.3 1.3 0 0 1 .8 1.7z" fill="#dd3114"></path><path d="M520.8 454a1.4 1.4 0 0 0 1 1.9 1.4 1.4 0 0 0 .8-2.6 1.4 1.4 0 0 0-1.8.7z" fill="#fff"></path><path d="M515.4 461c-1.6-.2-1.9 2.8-.3 2.9a1.5 1.5 0 1 0 .3-2.9z" fill="#fff"></path><path d="M511.9 454.6a1.5 1.5 0 1 0-.3 3c1.6.2 1.9-2.8.3-3z" fill="#fff"></path><path d="M502.7 458a1.5 1.5 0 0 0-2.3.9 1.5 1.5 0 0 0 .7 1.4 1.5 1.5 0 0 0 1.3 0 1.2 1.2 0 0 0 .3-2.3z" fill="#fff"></path><path d="M514.7 450.5a1.4 1.4 0 0 0-1.6-1.5h-.1a1.3 1.3 0 0 0-.3 2.4h.2a1.3 1.3 0 0 0 1.8-.9z" fill="#fff"></path><path d="M505.4 450.8a1.4 1.4 0 0 0-1.8-.2 1.3 1.3 0 0 0-.2 1.8c0 .1.1.1.1.2a1.4 1.4 0 0 0 1.8.2 1.3 1.3 0 0 0 .2-1.8z" fill="#fff"></path><path d="M507.7 463.1a1.2 1.2 0 1 0-.2 2.4 1.2 1.2 0 1 0 .2-2.4z" fill="#fff"></path><path d="M522.3 459.8h-.1a1.1 1.1 0 0 0-1.5.9 1.2 1.2 0 0 0 1.3 1.3h.1a1.1 1.1 0 0 0 .2-2.2z" fill="#fff"></path><path d="M387.6 446.5c5.6 3 14.7 1.3 14.7-6.3s-7.5-11.5-13.7-9.9l-.7.4c2.6-.5 5.4-.5 6.7 1.3a.4.4 0 0 1-.1.6c-1.2.4-1.8.1-3.1 0a12 12 0 0 0-5.9 1.1l-.7.4c-3 3.7-1.9 9.8 2.8 12.4zm11-9.3a1.2 1.2 0 1 1-.2 2.3 1.2 1.2 0 1 1 .2-2.3zm-3.3 2.7h.1c1.1 0 .9 1.8-.1 1.6h-.2a.8.8 0 0 1 .2-1.6z" fill="#ff4217"></path><path d="M398.4 439.5a1.2 1.2 0 1 0 .2-2.3 1.2 1.2 0 1 0-.2 2.3z" fill="#fff"></path><path d="M395.1 441.5h.2c1 .2 1.2-1.6.1-1.6h-.1a.8.8 0 0 0-.2 1.6z" fill="#fff"></path><path d="M434.2 492l-.5.6.3-.2c.1-.2.2-.3.2-.4z" fill="#fff"></path><path d="M471.6 495.7c0 .1.1.2.1.3v-.3z" fill="#fff"></path><path d="M470.4 490.5a14.1 14.1 0 0 0-2.2-4c-3.7-3.3-8.1-4.2-13-5.3a.7.7 0 0 1 0-1.4l2.5-.2-1.9-.3a4.3 4.3 0 0 0-.2-3.7c0-.2-.1-.4-.1-.6a1 1 0 0 0-1.1-.7 1.2 1.2 0 0 0-1.3.4 8.5 8.5 0 0 0-1.3 4.7 21.4 21.4 0 0 0-12.8 4.5l16.3 3.1c4.6.9 11.1.9 15.1 3.5z" fill="#fff"></path><path d="M469.9 504.3h0z" fill="#fff"></path><path d="M434.6 507.4a18.9 18.9 0 0 0 7.4 5.9c2.9.3 5.9.1 8.9.2.4 0 .4.5.1.7a16.9 16.9 0 0 1-2.7 1 21.6 21.6 0 0 0 4.4.2 20.8 20.8 0 0 0 10.1-2.9c-4.5-.1-9.6-1.7-13.8-2.5s-9.6-1.6-14.4-2.6z" fill="#fff"></path><path d="M444.2 489.6l9.9 1.6 9.9 1.7c2.6.4 5.2.5 7.5 1.7a15.4 15.4 0 0 0-.9-3.7.4.4 0 0 1-.4.4c-2.5.6-4.8-.2-7.3-.6l-8.7-1.5-17.4-3h-.2a24.3 24.3 0 0 0-2 2.5c.1 0 .1 0 .1-.1 3.1-.4 6.4.5 9.5 1z" fill="#fff"></path><path d="M431.7 500.7a25.2 25.2 0 0 0 1.2 3.9c6 .7 12 2.1 18 3.2 4.4.8 10.1 1 14.1 3.1a16.8 16.8 0 0 0 4-4.4c-6.2-.7-12.4-1.8-18.6-2.7s-12.6-1.5-18.7-3.1z" fill="#fff"></path><path d="M431.4 500.6h.3c6.1 1.6 12.6 2.1 18.7 3.1s12.4 2 18.6 2.7l1.8.2a1.1 1.1 0 0 0 .2-2.2l-.9-.2h-.2c.1 0 .2 0 .2-.1h.1c1.5-.7 1.9-2.9 2-4.4a8.2 8.2 0 0 0-.5-3.8c0-.1-.1-.2-.1-.3h.1c.3-.1.6-.7.2-.9l-.4-.2c-2.3-1.2-4.9-1.3-7.5-1.7l-9.9-1.7-9.9-1.6c-3.1-.5-6.4-1.4-9.5-1.1 0 .1 0 .1-.1.1s-.5.3-.6.6-2.6 2.3-3.1 3.6-1 4.5.3 5.9a1.1 1.1 0 0 0 .2 2zm37.7 3.5zm-2.5-5.2l.7-.2.7-.2a1 1 0 0 1 1.1 1 6.4 6.4 0 0 1-.2.7v.2a1.3 1.3 0 0 1-.4 1 1.4 1.4 0 0 1-1.1.3 1.6 1.6 0 0 1-1.3-1.5 1.5 1.5 0 0 1 .5-1.3zm-10.8-2.1a1.8 1.8 0 0 1 2.2 0l.5.7a.9.9 0 0 1 0 1 .5.5 0 0 1-.3.5l-.3.4a1.6 1.6 0 0 1-2.3-.3 1.8 1.8 0 0 1 .2-2.3zm-10-1.9a1.9 1.9 0 0 1 1.9.5.7.7 0 0 1 .9.8 1.9 1.9 0 0 1-1.4 1.6 2.8 2.8 0 0 1-2.2 0 1 1 0 0 1-.6-.8 1.9 1.9 0 0 1 1.4-2.1zm-11.6-3c0 .1-.1.2-.2.3l-.3.2zm.2 1.5h.9a1.1 1.1 0 0 1 1.3.9.4.4 0 0 1 .1.3c.1 1.9-2.6 2.1-3.2.5a1.2 1.2 0 0 1 .9-1.7zm-1.3 5.1z" fill="#d8ad79"></path><path d="M454.2 489.2l8.7 1.5c2.5.4 4.8 1.2 7.3.6a.4.4 0 0 0 .4-.4c0-.1-.1-.3-.2-.3-4-2.6-10.5-2.6-15.1-3.5l-16.3-3.2-1.9-.3c-1.6-.3-1.9 2-.5 2.5h.2z" fill="#e2caaa"></path><path d="M432.9 504.6c-1.3-.2-1.9 1.9-.6 2.2l2.3.6c4.8 1 9.6 1.7 14.4 2.6s9.3 2.4 13.8 2.5a13.6 13.6 0 0 0 2.9-.3.4.4 0 0 0 .2-.8l-.9-.5c-4-2.1-9.7-2.3-14.1-3.1-6-1.1-12-2.5-18-3.2z" fill="#e2caaa"></path><path d="M467.4 501.7a1.4 1.4 0 0 0 1.1-.3 1.3 1.3 0 0 0 .4-1v-.2a6.4 6.4 0 0 0 .2-.7 1 1 0 0 0-1.1-1l-.7.2-.7.2a1.5 1.5 0 0 0-.5 1.3 1.6 1.6 0 0 0 1.3 1.5z" fill="#dd3114"></path><path d="M457.9 499.5l.3-.4a.5.5 0 0 0 .3-.5.9.9 0 0 0 0-1l-.5-.7a1.8 1.8 0 0 0-2.2 0 1.8 1.8 0 0 0-.2 2.4 1.6 1.6 0 0 0 2.3.2z" fill="#dd3114"></path><path d="M445 497.8a2.8 2.8 0 0 0 2.2 0 1.9 1.9 0 0 0 1.4-1.6.7.7 0 0 0-.9-.8 1.9 1.9 0 0 0-3.3 1.6 1 1 0 0 0 .6.8z" fill="#dd3114"></path><path d="M436.7 494.5a.4.4 0 0 0-.1-.3 1.1 1.1 0 0 0-1.3-.9h-.9a1.2 1.2 0 0 0-.9 1.6c.6 1.7 3.3 1.5 3.2-.4z" fill="#dd3114"></path><path d="M460.3 216.1c-.7-.9-2.5-.3-2.1.9 2.4 9.5 16.3 17.5 26 16.4l1.3-.2a.9.9 0 0 0 0-1.8l-1.6-.3c-4.8-.8-9.2-1.5-13.4-4.2s-6.8-6.9-10.2-10.8z" fill="#d8ad79"></path><path d="M446.5 256.6c13.9 2 29.5-2.4 40.5-11 1.2-.9-.2-2.6-1.4-1.8a62.8 62.8 0 0 1-38.8 10 1.4 1.4 0 0 0-.3 2.8z" fill="#d8ad79"></path><path d="M470.6 213.8c1.6.1 2-3.3.4-3.5a1.8 1.8 0 0 0-.4 3.5z" fill="#95d3ca"></path><path d="M467 402.5c2 1.6 5 0 5.3-2.4s-2.4-3.7-4.4-2.9a2.9 2.9 0 0 0-1.6 3.9 1.9 1.9 0 0 0 .7 1.4z" fill="#95d3ca"></path><path d="M412 530a3.5 3.5 0 0 0 1.1-.3 4.3 4.3 0 0 0 2.9-5.8 1.7 1.7 0 0 0-1.5-1.1l-3-.3a1.8 1.8 0 0 0-2.1 1.6c-.1 1.2-.3 2.4-.3 3.6s1.5 2.4 2.9 2.3z" fill="#95d3ca"></path><path d="M364.1 569a3.9 3.9 0 0 0-1.7-2.6 3.5 3.5 0 0 0-5.2 2.5 3.6 3.6 0 0 0 3.3 4.2 3.4 3.4 0 0 0 2.9-1 2.1 2.1 0 0 0 .9-2 3.6 3.6 0 0 0-.2-1.1z" fill="#95d3ca"></path><path d="M479 600.4a3.9 3.9 0 0 0-4.6 2.1 3.2 3.2 0 0 0 .2 3l.5.4a1.8 1.8 0 0 0 .5.7c1.6 1.3 4 .3 4.9-1.3a3.3 3.3 0 0 0-1.5-4.9z" fill="#95d3ca"></path><path d="M420.7 582.9a10.5 10.5 0 0 0 1.8-6c-1.2-4-5.4-7-9.9-8.3a9.5 9.5 0 0 0-2.4-1.4c3.8.4 7.2 2.5 10.6 4.4l.3.2c-4.3-4.1-9.7-6.8-16-6.2a18.2 18.2 0 0 0-4.5 1 13 13 0 0 0-4 6v.3c-.5 6 3 12.5 8.8 14.7s12.2.3 15.3-4.7zm-17.1-6.7a13 13 0 0 1 0-4.4 6.9 6.9 0 0 1 4.5-.3 2.2 2.2 0 0 0 .1.8c.8 3.1-1.9 5.2-4.6 3.9z" fill="#fff"></path><path d="M438.6 594a1.7 1.7 0 0 0 1.8-1.1 1.5 1.5 0 0 0-.1-1.6 1.6 1.6 0 0 0-2.7-.3 1.6 1.6 0 0 0-.4 1.7 1.7 1.7 0 0 0 1.4 1.3z" fill="#fff"></path><path d="M396.6 602.5h-1.3a.1.1 0 0 0-.1-.1 2 2 0 0 0-2.1 1.3 2.5 2.5 0 0 0 .5 2.7 2.2 2.2 0 0 0 3.1.3 1 1 0 0 0 .5-.6l.3-.2a2 2 0 0 0 .7-2 2.2 2.2 0 0 0-1.6-1.4z" fill="#fff"></path><path d="M376.6 580.2c-1.1-2.4-4.4.3-2.4 1.9h.2a1.5 1.5 0 0 0 2.3-1.8.3.3 0 0 0-.1-.1z" fill="#fff"></path><path d="M407.4 399.3a1.6 1.6 0 0 0 2.2-.9 1.7 1.7 0 0 0-1.2-2.3 1.5 1.5 0 0 0-1.3.2 1.8 1.8 0 0 0-.8.9 1.6 1.6 0 0 0 .1 1.2 1.5 1.5 0 0 0 1 .9z" fill="#fff"></path><path d="M478.9 305.8a1.5 1.5 0 0 0 1.6-1.7v-.4a1.4 1.4 0 0 0-2.7-.3l-.2.3a1.5 1.5 0 0 0 1.3 2.1z" fill="#fff"></path><path d="M458 239.8a1.6 1.6 0 0 0 .3-2.1 2.4 2.4 0 0 0-1.5-.9 1.3 1.3 0 0 0-1.4 1.1 2.1 2.1 0 0 0 .6 1.7 1.4 1.4 0 0 0 2 .2z" fill="#fff"></path><path d="M452.2 150.5c5.9.1 11.1-4.8 14.2-9.4s6-14.3 6.2-21.4v-.4a.5.5 0 0 0-.9-.2c-.1.4-.3.8-.4 1.2-1.8 6.1-2.5 12.2-5.9 17.9a31.6 31.6 0 0 1-1.8 2.7c-3.1 3.8-7 5.9-11.7 7.9l-.5.5a.9.9 0 0 0 .8 1.2z" fill="#403d33"></path><path d="M477 143.6l1.5 2 .9.9a11.2 11.2 0 0 0 5.8 3.2h.3c.2.1.4-.3.2-.4a32.4 32.4 0 0 1-5.9-5.2 18 18 0 0 1-2.1-3.5 9.5 9.5 0 0 0-1.4-2.4.6.6 0 0 0-.8.1c-.5 1.7.4 3.7 1.5 5.3z" fill="#403d33"></path><path d="M472.9 130.8a6.2 6.2 0 0 0 1.6 3h.1a.4.4 0 0 0 .4-.2 6.7 6.7 0 0 0-.4-3.4.7.7 0 0 0-.7-.6.8.8 0 0 0-1 1.2z" fill="#403d33"></path></g><g><path d="M690.8 374.7a4.6 4.6 0 0 0 .9 7.6 4.5 4.5 0 0 0 6-3.9 2.8 2.8 0 0 0 .1-.9c0-3.6-4.5-4.8-7-2.8z" fill="#fff"></path><path d="M733.7 347.5a3.5 3.5 0 0 0-1.4-.3h-.5a1.4 1.4 0 0 0-1.5.4h-.2c-.1.2-.3.3-.4.6a3 3 0 0 0-.2 1 2.7 2.7 0 0 0 1.7 2.4 2.8 2.8 0 0 0 3.4-.8 2.5 2.5 0 0 0-.9-3.3z" fill="#fff"></path><path d="M781.2 420.3a2.3 2.3 0 0 0-2.1-.4l-1.8.5h-.6l-.8.4a2.2 2.2 0 0 0-.9 1 4.1 4.1 0 0 0-.4 2.2 3.9 3.9 0 0 0 7.4 1.4 4.4 4.4 0 0 0-.8-5.1z" fill="#fff"></path><path d="M789.5 393.4a2 2 0 0 0-1.3 2.5 2 2 0 0 0 2.5 1.2 2 2 0 0 0 1.3-2.5 1.9 1.9 0 0 0-2.5-1.2z" fill="#fff"></path><path d="M812.1 433.4c-2 .7-1 3.9 1 3.2s1-4-1-3.2z" fill="#fff"></path><path d="M734.2 439.1a1.6 1.6 0 0 0-.4-.7 2.4 2.4 0 0 0-1.4-.5h-.6l-.6.4-.5.6-.2.5v.8l.3.7a2.4 2.4 0 0 0 1.3.9 1.7 1.7 0 0 0 1-.1l.8-.5a2 2 0 0 0 .6-1.5.9.9 0 0 0-.3-.6z" fill="#fff"></path><path d="M669.7 415l-1-.2-.8.2a1.5 1.5 0 0 0-.6.5 1.6 1.6 0 0 0-.4.7 1.1 1.1 0 0 0-.1.8 1.9 1.9 0 0 0 .3 1 1.8 1.8 0 0 0 1.4 1.1h1.1a2.2 2.2 0 0 0 1.3-1.5v-.5a1.7 1.7 0 0 0-.1-.7v-.2a2.5 2.5 0 0 0-1.1-1.2z" fill="#fff"></path><path d="M839.7 344.1a4.4 4.4 0 0 0-2.8-2 5.5 5.5 0 0 0-5.9 1.5 5.1 5.1 0 0 0-.8 5.3 4.3 4.3 0 0 0 3.7 2.7 4.6 4.6 0 0 0 2.6.1 5.2 5.2 0 0 0 3.7-4.3 5.4 5.4 0 0 0-.5-3.3z" fill="#fff"></path><path d="M760.7 319.4c-2.2.8-1.1 4.3 1.1 3.5s1.1-4.3-1.1-3.5z" fill="#fff"></path><path d="M847.4 430a5.1 5.1 0 0 0-6 .7 5 5 0 0 0-1.4 3.5 5.1 5.1 0 0 0 6 5.1 5.5 5.5 0 0 0 4-3.9 4.8 4.8 0 0 0-2.6-5.4z" fill="#fff"></path><path d="M908.4 434a1.2 1.2 0 0 0-.2 1 1 1 0 0 0 .2.7.9.9 0 0 0 .4.6l.7.4h.7a1.9 1.9 0 0 0 1-.3c0-.1.1-.1.2-.2l.4-.3a1.2 1.2 0 0 0 .4-.8.9.9 0 0 0 .1-.5 1.4 1.4 0 0 0-.2-.6c-.1-.2-.1-.3-.3-.4a1.2 1.2 0 0 0-.5-.5h-.1l-.7-.2h-1" fill="#fff"></path><path d="M754.3 588.5a1.5 1.5 0 0 0-.5-.6l-.6-.4h-.8a1.7 1.7 0 0 0-1 .3l-.3.2a1.2 1.2 0 0 0-.5.5l-.3.7v.5a1.9 1.9 0 0 0 .2.7c0 .2.1.3.3.4s.3.4.6.5l.4.2a1.6 1.6 0 0 0 1-.1h.3a2.9 2.9 0 0 0 1.2-1 4.4 4.4 0 0 0 .2-1 1.9 1.9 0 0 0-.2-.9z" fill="#fff"></path><path d="M752.1 624.1a5.4 5.4 0 0 0-3.7-.9 3.8 3.8 0 0 0-2.7 1.4 3.4 3.4 0 0 0-.5 1.4c-.1.1-.1.3-.2.5a2.4 2.4 0 0 0 0 1.2 4.2 4.2 0 0 0 2.1 4 4.4 4.4 0 0 0 6-1.6 4.5 4.5 0 0 0-1-6z" fill="#fff"></path><path d="M814.8 462.6a6.5 6.5 0 0 0-6.3-4.1 2.6 2.6 0 0 0-1.5.7h-.2c-2.4.7-3.7 3.4-3.6 5.7a5.8 5.8 0 0 0 3.7 5.4 6.7 6.7 0 0 0 6.6-1.5 5.9 5.9 0 0 0 1.3-6.2z" fill="#fff"></path><path d="M836.3 464.4a1.8 1.8 0 0 0-1.2 2.4 1.9 1.9 0 0 0 2.4 1.3 2.1 2.1 0 0 0 1.3-2.5 2 2 0 0 0-2.5-1.2z" fill="#fff"></path><g fill="#fff"><path d="M829.5 503.9z"></path><path d="M829.5 503.8z"></path><path d="M831.7 500.1a4.9 4.9 0 0 0-2.2-1 4.5 4.5 0 0 0-5.2 3.7c-.6 2.3.5 5.1 3 5.6a2 2 0 0 0 1.1 0h.8a4.9 4.9 0 0 0 4.7-3.6 4.4 4.4 0 0 0-2.2-4.7zm-2.1 3.8z"></path></g><path d="M879 463.3l-.5-.2a1.4 1.4 0 0 0-1.1.1l-.5.2a1 1 0 0 0-.7.4 1 1 0 0 0-.5.6 1.9 1.9 0 0 0-.2.7 2.8 2.8 0 0 0 .1.9 2.1 2.1 0 0 0 1 1.1 2.3 2.3 0 0 0 1.6.2l.5-.2.7-.4.5-.6a2.4 2.4 0 0 0 .2-.8 1.9 1.9 0 0 0-.1-.8 2 2 0 0 0-1-1.2z" fill="#fff"></path><path d="M686.3 458a2.4 2.4 0 0 0-1.5 3 2.4 2.4 0 0 0 3 1.6 2.6 2.6 0 0 0 1.5-3.1 2.6 2.6 0 0 0-3-1.5z" fill="#fff"></path><g fill="#fff"><path d="M774.9 499.2z"></path><path d="M774.9 499.1c.1 0 .1 0 0 .1z"></path><path d="M777.1 495.4a7 7 0 0 0-2.3-1.1 4.7 4.7 0 0 0-5.2 3.8c-.5 2.3.6 5.1 3.1 5.6a2.1 2.1 0 0 0 1.1 0h.7a4.7 4.7 0 0 0 4.7-3.6 4.4 4.4 0 0 0-2.1-4.7zm-2.2 3.8c.1-.1.1-.1 0 0z"></path></g><path d="M736.1 476.9a3.8 3.8 0 0 0-5.1-1 3.7 3.7 0 1 0 5.1 1z" fill="#fff"></path><path d="M727.4 539.4a3 3 0 0 0 3.4 5 3 3 0 0 0 .8-4.2 3.1 3.1 0 0 0-4.2-.8z" fill="#fff"></path><path d="M763.6 546.9a1.7 1.7 0 1 0 1.9 2.9c1.9-1.2-.1-4.2-1.9-2.9z" fill="#fff"></path><path d="M627.6 441.4a3 3 0 0 0-2.9.3 2.6 2.6 0 0 0-1.3 2.6 2.4 2.4 0 0 0 .5 1.4 2.1 2.1 0 0 0 1.1 1l.6.3a2.1 2.1 0 0 0 1.1.1h.7l.6-.3a2.8 2.8 0 0 0 1.2-1.8 1.7 1.7 0 0 0 0-1 2.4 2.4 0 0 0-.5-1.4 2.3 2.3 0 0 0-1.1-1.2z" fill="#fff"></path></g><g><path d="M219.3 458.3a4.5 4.5 0 0 0-.7-7.6c-2.7-1.3-5.9.9-6.1 3.7a2.8 2.8 0 0 0-.1.9c-.2 3.6 4.3 4.9 6.9 3z" fill="#fff"></path><path d="M175.5 484l1.4.4h.5a1.4 1.4 0 0 0 1.5-.4h.1a1.2 1.2 0 0 0 .5-.5 3.6 3.6 0 0 0 .2-1 2.6 2.6 0 0 0-1.6-2.5 2.8 2.8 0 0 0-3.4.7 2.4 2.4 0 0 0 .8 3.3z" fill="#fff"></path><path d="M130.5 409.6a2.3 2.3 0 0 0 2.1.5l1.8-.4h.6a1.1 1.1 0 0 0 .8-.3 2.2 2.2 0 0 0 .9-1 3.1 3.1 0 0 0 .5-2.1 3.9 3.9 0 0 0-7.3-1.7 4.4 4.4 0 0 0 .6 5z" fill="#fff"></path><path d="M121.3 436.3a2 2 0 0 0 1.3-2.5 1.9 1.9 0 0 0-2.4-1.3 2 2 0 0 0-1.4 2.4 2.1 2.1 0 0 0 2.5 1.4z" fill="#fff"></path><path d="M100.1 395.5c2-.7 1.1-3.9-.9-3.2s-1.2 3.9.9 3.2z" fill="#fff"></path><path d="M178.1 392.5a.9.9 0 0 0 .4.6 2 2 0 0 0 1.4.6h.5l.7-.4a1.2 1.2 0 0 0 .5-.5l.2-.5a1.1 1.1 0 0 0 0-.8 1.4 1.4 0 0 0-.2-.7 1.5 1.5 0 0 0-1.2-.9 1.4 1.4 0 0 0-1.1 0l-.8.5a2 2 0 0 0-.6 1.4 1.9 1.9 0 0 0 .2.7z" fill="#fff"></path><path d="M241.7 418.7a1.9 1.9 0 0 0 1 .3l.8-.2a1.2 1.2 0 0 0 .7-.5 2.1 2.1 0 0 0 .4-.6 2.4 2.4 0 0 0 .2-.8 2.9 2.9 0 0 0-.3-1l-.5-.7a2 2 0 0 0-.9-.5H242a2 2 0 0 0-1.3 1.4.7.7 0 0 0-.1.5c0 .2.1.4.1.6v.2a2 2 0 0 0 1 1.3z" fill="#fff"></path><path d="M69.4 483.8a4.7 4.7 0 0 0 2.7 2.1 5.8 5.8 0 0 0 6-1.3 5.2 5.2 0 0 0 1-5.3 4.6 4.6 0 0 0-3.6-2.9 4.9 4.9 0 0 0-2.7-.1 5.3 5.3 0 0 0-3.8 4.1 5.7 5.7 0 0 0 .4 3.4z" fill="#fff"></path><path d="M147.5 511.2c2.3-.8 1.2-4.3-1-3.5s-1.2 4.2 1 3.5z" fill="#fff"></path><path d="M64.7 397.7a5.1 5.1 0 0 0 6-.6 4.5 4.5 0 0 0 1.5-3.4 4.8 4.8 0 0 0-.7-2.9 4.8 4.8 0 0 0-5.1-2.4 5.3 5.3 0 0 0-4.1 3.8 4.9 4.9 0 0 0 2.4 5.5z" fill="#fff"></path><path d="M3.9 391.5a1.5 1.5 0 0 0 .2-.9 1.2 1.2 0 0 0-.2-.8c0-.2-.2-.4-.4-.6l-.6-.4h-.7a1.7 1.7 0 0 0-1 .3H.9l-.4.3a2 2 0 0 0-.4.8v.5a2.5 2.5 0 0 0 .2.7c0 .1.1.2.2.4l.5.4.7.2h1" fill="#fff"></path><path d="M163.2 242.4a1.2 1.2 0 0 0 .5.7c.1.2.4.3.6.4h.7a2 2 0 0 0 1.1-.3h.2c.3-.1.4-.3.6-.5l.3-.7v-.5a1.4 1.4 0 0 0-.2-.7l-.3-.5c-.1-.2-.3-.3-.6-.5h-1.7a1.8 1.8 0 0 0-1.2 1 1.7 1.7 0 0 0-.3 1 1.4 1.4 0 0 0 .3.6z" fill="#fff"></path><path d="M166.7 206.9a4.7 4.7 0 0 0 3.6 1 3.3 3.3 0 0 0 2.7-1.2 3.5 3.5 0 0 0 .6-1.4c.1-.1.1-.3.2-.5a2.5 2.5 0 0 0 .1-1.2 4.3 4.3 0 0 0-2-4.1 4.6 4.6 0 0 0-6.1 1.4 4.5 4.5 0 0 0 .9 6z" fill="#fff"></path><path d="M98.4 366.2c1 2.5 3.4 4.5 6.1 4.3a2.8 2.8 0 0 0 1.6-.6h.2c2.4-.5 3.7-3.2 3.8-5.5a5.8 5.8 0 0 0-3.6-5.5 6.4 6.4 0 0 0-6.6 1.3 5.6 5.6 0 0 0-1.5 6z" fill="#fff"></path><path d="M77 363.7a2.1 2.1 0 0 0 1.3-2.5 2 2 0 0 0-2.4-1.3 2.1 2.1 0 0 0-1.4 2.4 2.1 2.1 0 0 0 2.5 1.4z" fill="#fff"></path><g fill="#fff"><path d="M85.1 324.4z"></path><path d="M85.1 324.5c-.1 0-.1 0 0-.1z"></path><path d="M82.8 328.1a3.9 3.9 0 0 0 2.2 1.1 4.5 4.5 0 0 0 5.3-3.5c.6-2.3-.4-5.1-2.8-5.8a2 2 0 0 0-1.1.1h-.8a4.7 4.7 0 0 0-4.8 3.5 4.2 4.2 0 0 0 2 4.6zm2.3-3.7H85a.1.1 0 0 1 .1 0z"></path></g><path d="M34.3 363.3l.5.2a2 2 0 0 0 1.1 0l.4-.2a2 2 0 0 0 .8-.4l.5-.6a1.9 1.9 0 0 0 .2-.8 2.5 2.5 0 0 0-.1-.8 2.2 2.2 0 0 0-.9-1.2 3 3 0 0 0-1.6-.2l-.5.2-.7.4a1 1 0 0 0-.5.6c-.2.2-.2.5-.3.7a2.8 2.8 0 0 0 .1.9 2.3 2.3 0 0 0 1 1.2z" fill="#fff"></path><path d="M226.7 375.2a2.4 2.4 0 0 0 1.6-3 2.4 2.4 0 0 0-4.6 1.4 2.4 2.4 0 0 0 3 1.6z" fill="#fff"></path><g fill="#fff"><path d="M139.6 331z"></path><path d="M137.2 334.7a5.3 5.3 0 0 0 2.2 1.2 4.7 4.7 0 0 0 5.4-3.6c.6-2.3-.4-5.1-2.9-5.8a2.1 2.1 0 0 0-1.1.1h-.8a4.8 4.8 0 0 0-4.8 3.5 4.5 4.5 0 0 0 2 4.6zm2.3-3.7z"></path></g><path d="M177.5 354.6a3.7 3.7 0 1 0 6.3-3.9 3.7 3.7 0 0 0-5.1-1.2 3.8 3.8 0 0 0-1.2 5.1z" fill="#fff"></path><path d="M188.3 292.4a3 3 0 1 0-3.1-5.1 3.1 3.1 0 0 0-1 4.2 3 3 0 0 0 4.1.9z" fill="#fff"></path><path d="M152.5 283.7c2-1.2.1-4.2-1.9-3s0 4.2 1.9 3z" fill="#fff"></path><path d="M284.8 393.8a2.9 2.9 0 0 0 3.8-4.2 2.7 2.7 0 0 0-1.1-1l-.6-.3-1-.2h-.8l-.6.3a2.9 2.9 0 0 0-1.3 1.8 3.3 3.3 0 0 0 0 1 3.3 3.3 0 0 0 .4 1.4 3.2 3.2 0 0 0 1.2 1.2z" fill="#fff"></path></g></g></g></svg>