<svg xmlns="http://www.w3.org/2000/svg" width="875.3" height="98.6" viewBox="0.023606780916452408 -0.0062803844921290874 875.31787109375 98.62681579589844" style=""><g><title>nholiday55_309541642</title><g data-name="Layer 2"><path d="M218.5 3.7a.3.3 0 0 0-.4 0c-.2.1-24.9 17.8-64 35.3-36 16-91.9 35.2-154 35.3v.6a351 351 0 0 0 84.8-11.1 432.3 432.3 0 0 0 69.5-24.3c39.1-17.5 63.8-35.2 64-35.4s.2-.2.1-.4z" fill="#fff"></path><path d="M218.2 4c-.1-.2-.2-.3-.4-.2C202 9 190.2 18.3 177.7 28.2l-4.6 3.6a38.7 38.7 0 0 1-9.3 4.7 23.2 23.2 0 0 1-5.9.7c-2.5.1-5.1.2-7.3 1.3a15.1 15.1 0 0 0-4.3 3.2 21.8 21.8 0 0 1-3.8 3 21.9 21.9 0 0 1-6.2 1.7l-3.2.5a47 47 0 0 0-6.6 2.4l-1.4.6c-2.1.9-5.4 1.4-8.6 2s-5.3 1-7 1.5a152.1 152.1 0 0 0-14.6 5.9c-4.4 1.9-9 3.9-14.5 5.8a47 47 0 0 1-6.7 1.8 31.4 31.4 0 0 1-6.3-.5l-4.6-.4c-7.4.1-13.3 2-19.5 4a91.3 91.3 0 0 1-15 3.8 33.7 33.7 0 0 1-9.5-.5 42.5 42.5 0 0 0-8-.7 32 32 0 0 1-6.4-.5c-1.4-.2-2.8-.5-4.3-.6v.6a28.3 28.3 0 0 1 4.2.6 33.4 33.4 0 0 0 6.6.5 41.9 41.9 0 0 1 7.8.7 39.5 39.5 0 0 0 9.7.5 86.2 86.2 0 0 0 15-3.9c6.2-1.9 12.1-3.8 19.4-3.9l4.5.4a32.3 32.3 0 0 0 6.5.4 37.7 37.7 0 0 0 6.8-1.8 136.6 136.6 0 0 0 14.5-5.8 145.8 145.8 0 0 1 14.5-5.8 59.2 59.2 0 0 1 7-1.5 48.3 48.3 0 0 0 8.7-2.1l1.5-.6a34.8 34.8 0 0 1 6.4-2.3l3.1-.6a18.4 18.4 0 0 0 6.5-1.7 23.1 23.1 0 0 0 3.9-3.1 17 17 0 0 1 4.1-3.1c2.2-1.1 4.6-1.1 7.1-1.2a21.3 21.3 0 0 0 6.1-.8 36 36 0 0 0 9.4-4.7l4.7-3.7c12.4-9.8 24.2-19.1 39.9-24.3.2 0 .2-.2.2-.3z" fill="#fff"></path><path d="M187.9 47.8c-10.4.5-13.4-12.3-5.2-18.1 2.9-2 .5-2.8 4.1-3s1.7.9 4.5 2.6c8.3 5 7.1 17.9-3.4 18.5z" fill="#ffd336"></path><path d="M186.6 21.6a.5.5 0 0 1 .4.2c0 .1 1.8 6.8 2.6 8.9s2.4 6.7 2.4 6.8 0 .4-.2.4-.3 0-.4-.2-1.7-4.3-2.5-6.8-1.6-5.2-2.2-7.3c-.3 2-.8 5.4-1.2 6.9s-2 7.6-2.1 7.6-.2.3-.4.3a.4.4 0 0 1-.2-.5s1.4-4.9 2-7.6 1.5-8.3 1.5-8.4a.3.3 0 0 1 .3-.3z" fill="#1e1e1e"></path><path d="M190.5 35.3h.1a.1.1 0 0 1 .1.1c0 .1 0 .1-.2.5l-.6 1.1a4.5 4.5 0 0 1 .6 1.2 1.7 1.7 0 0 1-.1.7.5.5 0 0 1-.5.3h-.5a.6.6 0 0 1-.3-.6 2.3 2.3 0 0 1 .4-1.4l-1-1.1h-.1l-.8 1.5a3.6 3.6 0 0 1 .6 1.3c0 .3 0 .6-.2.7a.5.5 0 0 1-.5.3l-.4-.2a1.1 1.1 0 0 1-.3-.7 4.3 4.3 0 0 1 .4-1.4l-1-1.3h-.1l-.7 1.1a3.4 3.4 0 0 1 .4 1.2 1.1 1.1 0 0 1-.3.8l-.4.2c-.2 0-.3-.1-.4-.3a.8.8 0 0 1-.2-.8 2.1 2.1 0 0 1 .5-1.1l-.9-1.3-.2-.3h.5a8.3 8.3 0 0 0 .8 1.2c.2-.4.5-.7.6-1s.2-.1.2-.2h.3l.2.3.9 1.2a6 6 0 0 1 .7-1.4c.1-.1.2-.2.2-.3h.3a.1.1 0 0 1 .1.1l.9 1 .6-1c0-.1.1-.2.1-.3h.2zm-.7 3.5h.3a.6.6 0 0 0 .1-.4 4.1 4.1 0 0 0-.5-.9 3 3 0 0 0-.3 1.1c0 .1.1.2.2.3a.1.1 0 0 0 .2-.1zm-4.7.3h.1a.9.9 0 0 0 .3-.6l-.3-.8a2.5 2.5 0 0 0-.4.7c0 .3 0 .5.1.6zm2.4.4c.1 0 .2 0 .2-.1a.8.8 0 0 0 .2-.5l-.5-.9a5.4 5.4 0 0 0-.3 1 1.1 1.1 0 0 0 .2.5z" fill="#1e1e1e"></path><path d="M186.3 19.5a1.1 1.1 0 0 1 1 .9l.2 3.5a.9.9 0 0 1-.9.9.8.8 0 0 1-.9-.8l-.2-3.5a1 1 0 0 1 .8-1z" fill="#c8c8c8"></path><path d="M185.6 22.8h2a1.6 1.6 0 0 1 1.7 1.3l.6 3.3c.2 1-.6.5-1.6.6h-2.9c-1 .1-1.7.6-1.7-.3l.3-3.4a1.6 1.6 0 0 1 1.6-1.5z" fill="#c8c8c8"></path><path d="M61.8 93.1c-10.2 2.2-15.3-9.9-8.2-16.9 2.5-2.5.1-2.9 3.6-3.7s1.8.6 4.9 1.8c8.9 3.6 9.9 16.6-.3 18.8z" fill="#ff4596"></path><path d="M56.2 67.5a.4.4 0 0 1 .4.2c0 .1 2.9 6.3 4 8.3s3.5 6.2 3.5 6.3.1.4-.1.5a.4.4 0 0 1-.5-.2s-2.3-3.9-3.5-6.3-2.5-4.8-3.4-6.8c0 2 0 5.4-.1 6.9s-.7 7.9-.7 7.9-.2.4-.4.3-.4-.1-.3-.3.5-5.1.7-7.9.1-8.5.1-8.6a.3.3 0 0 1 .3-.3z" fill="#1e1e1e"></path><path d="M62.2 80.3h.2c.1.1.1.1-.1.6s-.2.7-.4 1.2a2.1 2.1 0 0 1 .8 1.1.6.6 0 0 1 0 .6.8.8 0 0 1-.4.4.6.6 0 0 1-.6 0 .9.9 0 0 1-.3-.5 4.1 4.1 0 0 1 .1-1.5l-1.1-.9h-.1l-.5 1.6a4.9 4.9 0 0 1 .8 1.2 1.1 1.1 0 0 1-.1.8l-.5.3h-.4a1 1 0 0 1-.4-.7 2.6 2.6 0 0 1 .2-1.4L58.2 82h-.1l-.6 1.2a4.9 4.9 0 0 1 .7 1.1 2.4 2.4 0 0 1-.2.9l-.4.2-.5-.2a1 1 0 0 1-.3-.8 6.1 6.1 0 0 1 .3-1.1 5.6 5.6 0 0 0-1.1-1.1l-.2-.3a.1.1 0 0 1 .1-.1h.3a.1.1 0 0 0 .1.1 9.4 9.4 0 0 1 1 1 4.6 4.6 0 0 1 .5-1c0-.1.1-.2.1-.3h.3l.3.2 1 1 .5-1.4a.8.8 0 0 0 .1-.3h.5l1 .8.4-1c0-.2.1-.3.1-.4 0-.1.1-.1.1-.2zm-.1 3.7h.1c.1-.1.2-.1.2-.2a.3.3 0 0 0 0-.4 2.1 2.1 0 0 0-.6-.8 5.4 5.4 0 0 0-.1 1.1l.2.3zm-4.5 1h.1a1.3 1.3 0 0 0 .1-.6 2 2 0 0 0-.4-.8 3.1 3.1 0 0 0-.2.8 1.4 1.4 0 0 0 .2.6zm2.4.1l.2-.2a.4.4 0 0 0 0-.5c0-.2-.3-.5-.5-.8a4.4 4.4 0 0 0-.2 1l.3.4z" fill="#1e1e1e"></path><path d="M55.6 65.5a.9.9 0 0 1 1 .7l.8 3.4a.9.9 0 0 1-.7 1.1.8.8 0 0 1-1-.7l-.8-3.4a.9.9 0 0 1 .7-1.1z" fill="#c8c8c8"></path><path d="M55.3 68.8l2-.4a1.7 1.7 0 0 1 1.9 1l1.2 3.2c.3 1-.6.6-1.5.8L56 74c-.9.2-1.6.9-1.7-.1l-.2-3.3a1.6 1.6 0 0 1 1.2-1.8z" fill="#c8c8c8"></path><path d="M18.8 98.6c-10.4.6-13.6-12.1-5.5-18 2.8-2.1.4-2.9 4-3.1s1.7.9 4.6 2.5c8.3 4.9 7.4 17.9-3.1 18.6z" fill="#28dcc8"></path><path d="M17.1 72.4a.3.3 0 0 1 .3.3s2 6.6 2.8 8.8 2.5 6.7 2.6 6.7a.8.8 0 0 1-.2.5c-.2 0-.4 0-.5-.2s-1.7-4.3-2.6-6.8-1.6-5.2-2.3-7.3c-.3 2.1-.8 5.4-1.1 6.9S14.2 89 14.2 89a.5.5 0 0 1-.5.3c-.1-.1-.3-.3-.2-.5s1.3-4.9 1.9-7.7 1.3-8.3 1.3-8.4.2-.3.4-.3z" fill="#1e1e1e"></path><path d="M21.2 86h.2c0 .1 0 .1-.2.6a5.4 5.4 0 0 0-.6 1.1 3.4 3.4 0 0 1 .6 1.2.7.7 0 0 1-.1.6.5.5 0 0 1-.4.3c-.3.1-.5.1-.6-.1a.5.5 0 0 1-.3-.5 3 3 0 0 1 .4-1.4l-1-1.1h-.1l-.8 1.5a3.6 3.6 0 0 1 .6 1.3.8.8 0 0 1-.1.7.7.7 0 0 1-.6.3l-.4-.2a1.1 1.1 0 0 1-.3-.7 4.3 4.3 0 0 1 .4-1.4c-.3-.5-.8-1-1-1.3h-.1a4.3 4.3 0 0 0-.7 1 4.1 4.1 0 0 1 .4 1.2 1 1 0 0 1-.3.9h-.4l-.4-.2c-.2-.2-.2-.5-.2-.9a3.4 3.4 0 0 1 .5-1.1l-.9-1.2c-.2-.2-.2-.2-.2-.3h.3c.1.1.1.1.1.2l.9 1.1.6-.9c.1-.1.2-.2.2-.3h.2c.1 0 .1 0 .1.1s.1.1.2.2l.9 1.2a6 6 0 0 1 .7-1.4l.2-.3h.2a.1.1 0 0 1 .1.1h.1l.9 1a4.7 4.7 0 0 0 .5-1l.2-.3h.2zm-.7 3.6h.3a.8.8 0 0 0 .1-.4 4.1 4.1 0 0 0-.5-.9 6.1 6.1 0 0 0-.3 1.1l.2.3zm-4.6.4h.1a1.1 1.1 0 0 0 .2-.5 3.2 3.2 0 0 0-.3-.9 1.6 1.6 0 0 0-.3.8.4.4 0 0 0 .1.5c0 .1.1.1.2.2zm2.3.3h.3a.7.7 0 0 0 .1-.5 2.1 2.1 0 0 0-.5-.9 4.4 4.4 0 0 0-.2 1c0 .1 0 .4.1.5z" fill="#1e1e1e"></path><path d="M16.8 70.3a.9.9 0 0 1 .9.9l.3 3.5a.9.9 0 0 1-.9.9.8.8 0 0 1-.9-.8l-.3-3.5a1.1 1.1 0 0 1 .9-1z" fill="#c8c8c8"></path><path d="M16.1 73.6h2a1.6 1.6 0 0 1 1.7 1.3l.7 3.3c.2 1-.6.5-1.6.6L16 79c-1 0-1.8.6-1.7-.4l.2-3.4a1.6 1.6 0 0 1 1.6-1.6z" fill="#c8c8c8"></path><path d="M158.5 63.6c-10.4.7-13.5-12.1-5.4-17.9 2.8-2.1.4-2.9 4-3.1s1.7.8 4.6 2.5C170 50 169 63 158.5 63.6z" fill="#28dcc8"></path><path d="M156.9 37.5c.1 0 .3.1.3.2s2 6.7 2.8 8.9 2.5 6.7 2.5 6.7a.4.4 0 0 1-.2.5c-.2 0-.4-.1-.4-.2s-1.7-4.3-2.6-6.8-1.6-5.2-2.3-7.3c-.3 2-.8 5.4-1.1 6.8s-1.9 7.7-2 7.8a.3.3 0 0 1-.4.2c-.2 0-.3-.2-.2-.4s1.3-4.9 1.9-7.7 1.3-8.4 1.4-8.4a.3.3 0 0 1 .3-.3z" fill="#1e1e1e"></path><path d="M160.9 51.1h.1a.1.1 0 0 1 .1.1c.1.1 0 .1-.2.5l-.5 1.2a6.7 6.7 0 0 1 .6 1.2 1.5 1.5 0 0 1-.1.6.5.5 0 0 1-.5.3.4.4 0 0 1-.5-.1.5.5 0 0 1-.3-.5 2.4 2.4 0 0 1 .4-1.5l-1-1.1h-.1l-.8 1.6a3 3 0 0 1 .6 1.3.8.8 0 0 1-.2.7c-.1.2-.3.2-.5.3l-.4-.2a1.1 1.1 0 0 1-.3-.7 4.3 4.3 0 0 1 .4-1.4l-1-1.3h-.1l-.7 1.1a3.4 3.4 0 0 1 .4 1.2 1.1 1.1 0 0 1-.3.8l-.4.2c-.2 0-.3-.1-.4-.3a.8.8 0 0 1-.2-.8 3 3 0 0 1 .4-1.1l-.9-1.2v-.3c0-.1 0-.1.1-.2s.2 0 .2.1h.1a8.3 8.3 0 0 1 .8 1.2l.7-1 .2-.2h.3l.2.3.9 1.1a7.6 7.6 0 0 1 .7-1.3.8.8 0 0 0 .1-.3.1.1 0 0 0 .1-.1c.1-.1.1-.1.2 0s.1 0 .1.1a.1.1 0 0 1 .1.1 4.7 4.7 0 0 1 .9 1l.5-1 .2-.4zm-.6 3.6h.1c.1 0 .1-.1.2-.2a.4.4 0 0 0 .1-.3 4.1 4.1 0 0 0-.5-.9 2.6 2.6 0 0 0-.3 1c0 .2.1.3.2.3s.1.1.2.1zm-4.7.3h.1a.9.9 0 0 0 .3-.6 5.9 5.9 0 0 0-.4-.8l-.3.7c0 .3 0 .5.1.6zm2.4.4h.3a4.3 4.3 0 0 0 .1-.5l-.5-.9a2.2 2.2 0 0 0-.3 1 .8.8 0 0 0 .2.4z" fill="#1e1e1e"></path><path d="M156.6 35.4a.8.8 0 0 1 .9.8l.3 3.6a.9.9 0 0 1-.8.9 1 1 0 0 1-1-.8l-.2-3.5a.8.8 0 0 1 .8-1z" fill="#c8c8c8"></path><path d="M155.9 38.6h2a1.7 1.7 0 0 1 1.7 1.3l.7 3.4c.2 1-.6.5-1.6.5l-2.9.2c-1 .1-1.8.7-1.7-.3l.2-3.4a1.9 1.9 0 0 1 1.6-1.7z" fill="#c8c8c8"></path><path d="M218.8 73a348.8 348.8 0 0 1-85.1-11 442.3 442.3 0 0 1-69.5-24.3C25.1 20.2.4 2.5.1 2.3a.3.3 0 0 1 0-.4c0-.1.2-.2.4-.1s24.9 17.9 63.9 35.3c36.1 16.1 92.2 35.3 154.4 35.3s118.4-19.2 154.4-35.3C412.3 19.7 437 2 437.2 1.8s.3 0 .4.1a.2.2 0 0 1-.1.4c-.2.2-24.9 17.9-64 35.4A439.8 439.8 0 0 1 303.9 62a348.2 348.2 0 0 1-85.1 11z" fill="#fff"></path><path d="M182.3 72.7a44.4 44.4 0 0 1-5.5-.3 88.2 88.2 0 0 1-15.8-3.6 80.6 80.6 0 0 0-15.7-3.6L144 65c-4-.5-11.5-1.5-13.4-3.4a10.1 10.1 0 0 1-1.3-1.6 6.9 6.9 0 0 0-2.2-2.3c-1.8-.9-3.7-.2-5.8.6s-4.2 1.5-6.2.6a8.1 8.1 0 0 1-2.9-2.9c-.5-.6-.9-1.2-1.4-1.7-2.8-2.9-7-2.7-11.5-2.5s-7.5.4-10.7-1.3a21.3 21.3 0 0 1-4-3.3 34.5 34.5 0 0 0-2.8-2.6c-3-2.2-6.8-2.8-10.5-3.4l-4.4-.9c-3-.7-4.6-3-6.2-5.4a19.1 19.1 0 0 0-4.2-4.8c-3.8-2.6-8.1-3.8-12.2-4.9s-8.1-2.2-11.9-4.6-8.2-4-12.5-5.6C12.2 12.3 4.3 9.5.7 2.7c-.1-.1-.1-.3.1-.3a.2.2 0 0 1 .4.1C4.7 9 12.5 11.8 20 14.5c4.5 1.6 9 3.2 12.7 5.6s7.8 3.4 11.7 4.5S53 27 56.9 29.7a17.3 17.3 0 0 1 4.2 4.8c1.6 2.4 3.1 4.6 6 5.3l4.3.8c3.8.6 7.7 1.3 10.8 3.6a22.7 22.7 0 0 1 2.8 2.6 17.1 17.1 0 0 0 3.9 3.2c3 1.7 6.8 1.4 10.4 1.2s8.9-.4 11.9 2.7a7.5 7.5 0 0 1 1.4 1.7 7.5 7.5 0 0 0 2.8 2.8c1.7.7 3.6.1 5.7-.7s4.3-1.5 6.2-.5a8.5 8.5 0 0 1 2.5 2.5l1.2 1.5c1.8 1.8 9.4 2.8 13.1 3.2l1.2.2a86.1 86.1 0 0 1 15.8 3.6 75 75 0 0 0 15.8 3.6c5.8.9 15.3-.1 24.5-1 6.3-.6 12.2-1.2 16.4-1.2 2.1.1 3.9.4 5.7.6a25.8 25.8 0 0 0 6.4.6 41.5 41.5 0 0 1 7.9.7c3.2.4 6.5.9 9.6.4 5.5-.7 10.3-2.3 15-3.7 6.2-2 12.1-3.9 19.5-4a29.3 29.3 0 0 1 4.5.4 31.4 31.4 0 0 0 6.4.4 30.1 30.1 0 0 0 6.7-1.8 136.6 136.6 0 0 0 14.5-5.8c4.4-1.9 9-4 14.5-5.8a61.4 61.4 0 0 1 7.1-1.5 58.2 58.2 0 0 0 8.6-2l1.4-.7a36.8 36.8 0 0 1 6.6-2.3l3.1-.6a18.9 18.9 0 0 0 6.3-1.6 21.8 21.8 0 0 0 3.8-3 17.6 17.6 0 0 1 4.3-3.3c2.2-1.1 4.8-1.2 7.3-1.2a23.9 23.9 0 0 0 5.9-.8 38.4 38.4 0 0 0 9.3-4.6l4.6-3.7c12.5-9.8 24.3-19.1 40.1-24.3.2-.1.3 0 .4.1s-.1.4-.2.4c-15.7 5.2-27.5 14.5-39.9 24.3l-4.7 3.6a39.7 39.7 0 0 1-9.4 4.8 21.2 21.2 0 0 1-6.1.7 18.6 18.6 0 0 0-7.1 1.2 18.1 18.1 0 0 0-4.1 3.2 20.4 20.4 0 0 1-4 3.1 19.5 19.5 0 0 1-6.4 1.7c-1 .2-2.1.3-3.1.6a34.8 34.8 0 0 0-6.4 2.3l-1.5.6a48.3 48.3 0 0 1-8.7 2.1 44.2 44.2 0 0 0-7 1.5 145.8 145.8 0 0 0-14.5 5.8c-4.4 1.9-9 3.9-14.5 5.8a37.7 37.7 0 0 1-6.8 1.8 32.3 32.3 0 0 1-6.5-.4 32 32 0 0 0-4.5-.5c-7.3.2-13.2 2-19.4 4a86.4 86.4 0 0 1-15 3.8 31.7 31.7 0 0 1-9.7-.5 52.5 52.5 0 0 0-7.9-.6 26.1 26.1 0 0 1-6.5-.6 32 32 0 0 0-5.6-.6 138.6 138.6 0 0 0-16.4 1.2c-6.7.6-13.6 1.3-19.1 1.3z" fill="#fff"></path><path d="M62.4 62.9c-10.2-2.2-9.8-15.3-.5-18.8 3.3-1.2 1.2-2.7 4.7-1.9s1.4 1.3 3.7 3.6c6.8 6.9 2.3 19.2-7.9 17.1z" fill="#28dcc8"></path><path d="M67.8 37.2c.1 0 .2.2.2.3s.1 7 .3 9.3.7 7.1.7 7.2a.3.3 0 0 1-.3.3c-.2.1-.4-.1-.4-.3s-.5-4.5-.7-7.2-.2-5.4-.2-7.6c-.9 1.9-2.3 5-3 6.3s-3.9 6.9-3.9 6.9-.3.2-.5.1-.2-.3-.1-.5 2.6-4.3 3.9-6.8 3.5-7.7 3.6-7.8.2-.2.3-.2z" fill="#1e1e1e"></path><path d="M68 51.4h.1c.1.1.1.1.1.2s0 .1-.3.4a4.5 4.5 0 0 0-.9 1 3.1 3.1 0 0 1 .3 1.3.9.9 0 0 1-.3.6l-.5.2c-.2-.1-.4-.1-.5-.3a1.1 1.1 0 0 1-.2-.6 5.1 5.1 0 0 1 .8-1.3 5 5 0 0 0-.7-1.3h-.1L64.6 53a3.9 3.9 0 0 1 .3 1.3.7.7 0 0 1-.4.7.4.4 0 0 1-.5.1.5.5 0 0 1-.4-.2.8.8 0 0 1-.1-.8 3.7 3.7 0 0 1 .7-1.2l-.5-1.6h-.1l-1 .9a3 3 0 0 1 .1 1.3l-.5.7c-.2 0-.3.1-.5 0s-.2-.2-.3-.3a1.4 1.4 0 0 1 0-.9l.8-.9a7.7 7.7 0 0 0-.6-1.5c-.1-.2-.1-.2 0-.3a.1.1 0 0 1 .1-.1c.1 0 .2 0 .2.1v.2a6.9 6.9 0 0 0 .5 1.3l.8-.7.2-.2h.3a.1.1 0 0 1 .1.1.4.4 0 0 0 .1.3 7.8 7.8 0 0 1 .5 1.4l1.1-1.2.2-.2h.4a9.7 9.7 0 0 1 .7 1.2l.7-.8.2-.3h.1a.1.1 0 0 1 .2 0zm-1.5 3.3h.3a.4.4 0 0 0 .1-.3 1.8 1.8 0 0 0-.2-1c-.2.4-.5.7-.5 1a.4.4 0 0 0 .1.3zm-4.6-.9h.1a.9.9 0 0 0 .3-.5 1.4 1.4 0 0 0 0-.9 1 1 0 0 0-.5.7 1.1 1.1 0 0 0-.1.5.2.2 0 0 0 .2.2zm2.1 1h.3c.1 0 .2-.2.3-.4a5.8 5.8 0 0 0-.2-1 2.4 2.4 0 0 0-.6.9 1.1 1.1 0 0 0 .1.5z" fill="#1e1e1e"></path><path d="M68 35.1a.9.9 0 0 1 .7 1.1l-.7 3.5a.9.9 0 0 1-1 .6.8.8 0 0 1-.7-1l.7-3.5a.8.8 0 0 1 1-.7z" fill="#c8c8c8"></path><path d="M66.5 38.1l1.9.4a1.6 1.6 0 0 1 1.3 1.7l-.2 3.4c-.1 1-.7.3-1.7.1l-2.8-.6c-1-.2-1.9.2-1.6-.8l1.2-3.2a1.6 1.6 0 0 1 1.9-1z" fill="#c8c8c8"></path><g><path d="M407.3 47.7c-10.4.5-13.4-12.3-5.2-18.1 2.8-2 .5-2.8 4.1-3s1.6.9 4.5 2.6c8.3 5 7.1 18-3.4 18.5z" fill="#ffd336"></path><path d="M406 21.5a.3.3 0 0 1 .3.3c.1 0 1.9 6.7 2.6 8.8l2.5 6.8a.4.4 0 0 1-.2.5c-.2 0-.4-.1-.4-.2s-1.7-4.3-2.5-6.8l-2.2-7.4c-.3 2.1-.9 5.4-1.2 6.9s-2.1 7.6-2.1 7.7a.3.3 0 0 1-.4.2c-.2-.1-.3-.2-.3-.4s1.4-4.9 2.1-7.7 1.4-8.3 1.5-8.4a.3.3 0 0 1 .3-.3z" fill="#1e1e1e"></path><path d="M409.9 35.2h.1c.1.1.1.1-.2.5l-.5 1.2a6.7 6.7 0 0 1 .6 1.2 1.5 1.5 0 0 1-.1.6c-.2.2-.3.3-.5.3h-.6l-.3-.6a3.9 3.9 0 0 1 .5-1.4l-1-1.1h-.1l-.8 1.5a6.9 6.9 0 0 1 .6 1.3 1.9 1.9 0 0 1-.2.8l-.5.2a.6.6 0 0 1-.5-.2c-.2-.1-.2-.5-.2-.7a2.4 2.4 0 0 1 .4-1.3l-1-1.4h-.1a4.3 4.3 0 0 0-.7 1 4.1 4.1 0 0 1 .4 1.2c0 .3-.1.7-.3.8s-.3.2-.4.2a.5.5 0 0 1-.5-.3 1.1 1.1 0 0 1-.1-.8 3 3 0 0 1 .4-1.1l-.8-1.2-.2-.3c0-.1 0-.1.1-.2s.2 0 .2.1a.1.1 0 0 1 .1.1l.9 1.2a3.5 3.5 0 0 1 .6-.9l.2-.3c.1-.1.2-.1.2 0h.1c.1 0 .1.1.2.2a8.3 8.3 0 0 1 .8 1.2l.8-1.4.2-.3h.3a.1.1 0 0 0 .1.1l.9 1a4.1 4.1 0 0 0 .5-.9c.1-.2.2-.3.2-.4h.2zm-.7 3.6l.3-.2c0-.1.1-.3 0-.4a2.3 2.3 0 0 0-.4-.9 3.6 3.6 0 0 0-.3 1.1c0 .1.1.2.1.3zm-4.7.2h.1a1.1 1.1 0 0 0 .2-.6 1.6 1.6 0 0 0-.3-.8 4.1 4.1 0 0 0-.3.8.7.7 0 0 0 .1.5zm2.4.5c.1-.1.2-.1.2-.2s.1-.2.1-.4a2.6 2.6 0 0 0-.4-1 2.6 2.6 0 0 0-.3 1 .8.8 0 0 0 .2.5z" fill="#1e1e1e"></path><path d="M405.7 19.4a.9.9 0 0 1 .9.9l.2 3.5a.9.9 0 0 1-.8 1 .9.9 0 0 1-.9-.9l-.2-3.5a.9.9 0 0 1 .8-1z" fill="#c8c8c8"></path><path d="M405 22.7h2a1.6 1.6 0 0 1 1.7 1.3l.6 3.4c.2.9-.6.4-1.6.5h-2.9c-1 .1-1.8.7-1.7-.3l.3-3.4a1.6 1.6 0 0 1 1.6-1.5z" fill="#c8c8c8"></path></g><g><path d="M266.7 91.3c-10.1 2.2-15.2-10-8.1-17 2.5-2.4.1-2.9 3.6-3.6s1.8.6 4.9 1.8c8.9 3.5 9.9 16.5-.4 18.8z" fill="#28dcc8"></path><path d="M261.2 65.7c.1-.1.3 0 .3.2s3 6.3 4.1 8.3 3.5 6.2 3.5 6.2.1.4-.1.5-.4.1-.5-.1l-3.6-6.3c-.7-1.4-2.4-4.9-3.3-6.9 0 2.1 0 5.5-.1 7s-.7 7.9-.7 7.9-.2.3-.4.3-.4-.2-.3-.4.5-5 .7-7.9.1-8.4.1-8.5a.3.3 0 0 1 .3-.3z" fill="#1e1e1e"></path><path d="M267.2 78.5h.2c.1.1.1.1-.1.5s-.2.8-.4 1.3a2.4 2.4 0 0 1 .8 1 .9.9 0 0 1 0 .7.8.8 0 0 1-.4.4h-.6a.9.9 0 0 1-.3-.5 4 4 0 0 1 .1-1.5l-1.1-1v.2l-.5 1.6a4.9 4.9 0 0 1 .8 1.2.8.8 0 0 1-.1.7 1 1 0 0 1-.5.4h-.4a.9.9 0 0 1-.4-.7 2.4 2.4 0 0 1 .2-1.4l-1.2-1.2h-.1a6.7 6.7 0 0 0-.6 1.2c.3.4.6.7.6 1.1a.8.8 0 0 1-.2.8c-.1.2-.2.2-.3.2s-.3 0-.5-.1a1.1 1.1 0 0 1-.3-.8 3 3 0 0 1 .3-1.2 11.3 11.3 0 0 0-1.1-1.1l-.2-.2v-.2h.4l1 1a3.7 3.7 0 0 1 .5-1.1v-.2c.1 0 .2-.1.2 0h.1a.2.2 0 0 1 .2.2l1.1 1 .5-1.5a.4.4 0 0 0 .1-.3h.5l1 .9c.1-.4.3-.7.4-1.1v-.3h.1zm-.1 3.7a.1.1 0 0 0 .1-.1h.2c.1-.2 0-.3 0-.4a1.6 1.6 0 0 0-.6-.8 2.2 2.2 0 0 0-.1 1.1l.2.2zm-4.5 1h.1c.1-.1.1-.4.1-.5a1.8 1.8 0 0 0-.4-.9 5.1 5.1 0 0 0-.2.9c0 .2 0 .4.2.5s.1.1.2.1zm2.4 0h.2a.5.5 0 0 0 0-.5 2.8 2.8 0 0 0-.5-.9 5.8 5.8 0 0 0-.2 1c.1.2.1.4.3.5z" fill="#1e1e1e"></path><path d="M260.6 63.7a.9.9 0 0 1 1 .6l.8 3.5a1 1 0 0 1-.7 1.1.8.8 0 0 1-1-.7l-.8-3.5a.8.8 0 0 1 .6-1z" fill="#c8c8c8"></path><path d="M260.3 67l2-.5a1.8 1.8 0 0 1 1.9 1.1l1.2 3.2c.3.9-.6.6-1.5.8l-2.9.6c-1 .2-1.6.9-1.7-.1l-.3-3.4a1.7 1.7 0 0 1 1.3-1.7z" fill="#c8c8c8"></path></g><g><path d="M168.8 94.8c-10.2-1.8-10.3-14.9-1.1-18.7 3.3-1.3 1.2-2.7 4.7-2s1.4 1.2 3.8 3.5c7 6.7 3 19.1-7.4 17.2z" fill="#ff4596"></path><path d="M173.4 69a.5.5 0 0 1 .2.4c.1 0 .4 6.9.6 9.2s.9 7.1.9 7.1-.1.4-.3.4-.3-.1-.4-.3-.6-4.5-.9-7.1-.4-5.5-.5-7.7a68.8 68.8 0 0 1-2.7 6.4c-1.2 2.6-3.7 7-3.7 7.1a.4.4 0 0 1-.6-.4s2.4-4.4 3.7-7 3.2-7.8 3.3-7.8.2-.3.4-.3z" fill="#1e1e1e"></path><path d="M174.1 83.2h.1a.1.1 0 0 1 .1.1l-.4.4-.8 1a3.8 3.8 0 0 1 .4 1.3.7.7 0 0 1-.3.6.6.6 0 0 1-.5.2l-.5-.2a.7.7 0 0 1-.2-.6 2.8 2.8 0 0 1 .7-1.3 3.7 3.7 0 0 0-.7-1.3h-.1l-1.1 1.3a4.4 4.4 0 0 1 .3 1.4.9.9 0 0 1-.4.6c-.1.2-.3.2-.5.2s-.3-.1-.4-.3a.8.8 0 0 1-.1-.8 4 4 0 0 1 .7-1.2c-.3-.6-.5-1.2-.7-1.5h-.1l-.9.9a3 3 0 0 1 .1 1.3 1 1 0 0 1-.5.7.3.3 0 0 1-.4 0c-.2 0-.3-.1-.4-.3a1 1 0 0 1 .1-.9l.7-.9a11.3 11.3 0 0 0-.6-1.4v-.4a.1.1 0 0 0 .1-.1h.2c.1 0 .1 0 .1.1a6.9 6.9 0 0 1 .5 1.3l.9-.8h.5l.2.2a12.1 12.1 0 0 1 .5 1.4l1.1-1.2.2-.2h.3v.2h.1l.7 1.2.7-.9c.1-.1.2-.2.2-.3h.2zm-1.5 3.4h.3a.4.4 0 0 0 .2-.4 2.9 2.9 0 0 0-.2-.9 3.5 3.5 0 0 0-.6.9c0 .2.1.3.1.4zm-4.6-.8h.1a1 1 0 0 0 .4-.5 3.1 3.1 0 0 0-.1-.9l-.5.7a.4.4 0 0 0 0 .5c0 .1 0 .2.1.2zm2.2.9h.3a.8.8 0 0 0 .2-.5 5.8 5.8 0 0 0-.2-1l-.5.9a.7.7 0 0 0 .1.5.1.1 0 0 0 .1.1z" fill="#1e1e1e"></path><path d="M173.6 67c.4 0 .7.5.7 1l-.6 3.5a.9.9 0 0 1-1 .7 1 1 0 0 1-.8-1l.6-3.5a.9.9 0 0 1 1-.7z" fill="#c8c8c8"></path><path d="M172.1 69.9l2 .4a1.6 1.6 0 0 1 1.3 1.7v3.4c0 1-.7.3-1.7.1l-2.9-.5c-.9-.1-1.8.3-1.5-.7l1-3.2a1.8 1.8 0 0 1 1.8-1.2z" fill="#c8c8c8"></path></g><g><path d="M111 84c-10.4-.2-12.5-13.2-3.9-18.4 3-1.8.7-2.8 4.3-2.7s1.6 1 4.3 2.9c7.9 5.5 5.8 18.4-4.7 18.2z" fill="#ffd336"></path><path d="M111.5 57.8c.2 0 .3.1.4.3s1.4 6.8 2 9 1.9 6.9 2 6.9-.1.4-.3.4-.4 0-.4-.2-1.4-4.4-2-6.9-1.2-5.4-1.7-7.5a65 65 0 0 1-1.7 6.7c-.8 2.7-2.5 7.5-2.6 7.6s-.2.2-.4.2a.4.4 0 0 1-.2-.5s1.7-4.8 2.6-7.5 2-8.2 2-8.3.2-.2.3-.2z" fill="#1e1e1e"></path><path d="M114.5 71.7h.1c.1.1 0 .1-.2.5l-.7 1.1a4.5 4.5 0 0 1 .6 1.2 1.9 1.9 0 0 1-.2.7l-.5.3-.5-.2a.6.6 0 0 1-.3-.6 3.9 3.9 0 0 1 .5-1.4l-.9-1.2v.2a11.6 11.6 0 0 0-.9 1.4 3.6 3.6 0 0 1 .5 1.3 1.5 1.5 0 0 1-.2.8l-.6.2-.4-.2a1.1 1.1 0 0 1-.2-.8 3.1 3.1 0 0 1 .5-1.3l-.9-1.4h-.2l-.8 1.1a2.8 2.8 0 0 1 .4 1.2 1.2 1.2 0 0 1-.4.8h-.4c-.2 0-.3-.1-.4-.3a1.1 1.1 0 0 1-.2-.8 4.1 4.1 0 0 1 .6-1.1L108 72v-.3c0-.1 0-.1.1-.1s.2 0 .2.1h.1l.6 1.3.8-.9v-.2a.1.1 0 0 0 .1-.1c.1 0 .2 0 .2.1h.1a.3.3 0 0 1 .1.2l.8 1.3a7.3 7.3 0 0 1 .9-1.3.4.4 0 0 1 .1-.3h.3a.1.1 0 0 1 .1.1h.1l.8 1.1.6-1c.1-.1.2-.2.2-.3h.2zm-1 3.5h.1c.1 0 .2 0 .2-.1a.6.6 0 0 0 .1-.4 1.8 1.8 0 0 0-.4-.9 2.6 2.6 0 0 0-.3 1c0 .1 0 .3.1.3s.1.1.2.1zm-4.7 0a.1.1 0 0 0 .1-.1.5.5 0 0 0 .3-.5 2.9 2.9 0 0 0-.2-.9c-.2.3-.4.5-.4.8a.4.4 0 0 0 .1.5v.2zm2.4.5c.1 0 .2 0 .2-.1a.5.5 0 0 0 .2-.4 2.6 2.6 0 0 0-.4-1 6.9 6.9 0 0 0-.4 1l.2.5z" fill="#1e1e1e"></path><path d="M111.4 55.7a.9.9 0 0 1 .9.9v3.5a.9.9 0 0 1-.9.9.9.9 0 0 1-.8-.9v-3.5a.9.9 0 0 1 .9-.9z" fill="#c8c8c8"></path><path d="M110.4 58.9h2.1a1.6 1.6 0 0 1 1.6 1.5l.3 3.3c.1 1-.6.5-1.6.5h-2.9c-1 0-1.8.5-1.6-.5l.5-3.3a1.5 1.5 0 0 1 1.6-1.5z" fill="#c8c8c8"></path></g><g><path d="M227.1 97.2c-10.4.7-13.6-12-5.6-17.9 2.9-2.1.5-2.9 4.1-3.1s1.7.9 4.5 2.5c8.4 4.8 7.4 17.8-3 18.5z" fill="#ffd336"></path><path d="M225.3 71.1l.4.2c0 .1 2 6.7 2.7 8.9l2.6 6.7a.4.4 0 0 1-.2.5c-.2 0-.4-.1-.4-.2s-1.7-4.3-2.6-6.8-1.7-5.2-2.3-7.3c-.3 2-.8 5.4-1.1 6.9s-2 7.6-2 7.7-.2.3-.4.2-.3-.2-.3-.4 1.4-4.9 2-7.7 1.3-8.3 1.3-8.4a.3.3 0 0 1 .3-.3z" fill="#1e1e1e"></path><path d="M229.4 84.7h.2c0 .1 0 .1-.2.5a6.6 6.6 0 0 1-.6 1.2 3.7 3.7 0 0 1 .7 1.2 1.5 1.5 0 0 1-.1.6.5.5 0 0 1-.5.3.4.4 0 0 1-.5-.1 1 1 0 0 1-.4-.5 5.6 5.6 0 0 1 .4-1.5 5.5 5.5 0 0 0-1-1.1l-.8 1.6a4.9 4.9 0 0 1 .6 1.3.8.8 0 0 1-.2.7c-.1.2-.3.2-.5.3l-.4-.2a1.1 1.1 0 0 1-.3-.7 2.7 2.7 0 0 1 .4-1.4l-1-1.3h-.1l-.8 1.1a2.4 2.4 0 0 1 .5 1.2 1.1 1.1 0 0 1-.3.8l-.4.2c-.2 0-.3-.1-.4-.3a.8.8 0 0 1-.2-.8 3 3 0 0 1 .4-1.1l-.9-1.2c-.1-.2-.1-.2-.1-.3h.1c0-.1.1-.1.2 0a.3.3 0 0 1 .1.2 4.4 4.4 0 0 1 .8 1.1l.7-1c0-.1.1-.1.1-.2h.4c0 .1.1.2.2.3l.8 1.2.8-1.4a.4.4 0 0 1 .1-.3h.5l.9 1 .5-1c.1-.2.1-.3.2-.4h.1zm-.6 3.6l.3-.2c0-.1.1-.2 0-.3a1.8 1.8 0 0 0-.4-.9 2.6 2.6 0 0 0-.3 1c0 .2.1.3.2.3zm-4.7.3h.1a.5.5 0 0 0 .2-.6 1.6 1.6 0 0 0-.3-.8c-.1.3-.3.5-.3.8a.7.7 0 0 0 .1.5zm2.4.4h.2a.4.4 0 0 0 .1-.5 2.3 2.3 0 0 0-.4-.9 2.2 2.2 0 0 0-.3 1 .8.8 0 0 0 .2.4z" fill="#1e1e1e"></path><path d="M225 69a1.1 1.1 0 0 1 1 .8l.2 3.6a.8.8 0 0 1-.8.9.8.8 0 0 1-.9-.8l-.3-3.5a1 1 0 0 1 .8-1z" fill="#c8c8c8"></path><path d="M224.3 72.3l2-.2a1.7 1.7 0 0 1 1.8 1.3l.6 3.4c.2 1-.6.5-1.6.5l-2.9.2c-1 .1-1.7.7-1.6-.3l.2-3.4a1.5 1.5 0 0 1 1.5-1.5z" fill="#c8c8c8"></path></g><g><path d="M370.8 64.4c-10.4.7-13.5-12.1-5.4-18 2.8-2 .4-2.8 4-3s1.7.8 4.6 2.5c8.3 4.9 7.3 17.9-3.2 18.5z" fill="#28dcc8"></path><path d="M369.2 38.3c.1 0 .3.1.3.2s2 6.7 2.8 8.8 2.5 6.8 2.5 6.8a.4.4 0 0 1-.2.5c-.2 0-.4-.1-.4-.2s-1.7-4.3-2.6-6.8-1.7-5.2-2.3-7.3c-.3 2-.8 5.4-1.1 6.8s-2 7.7-2 7.8a.3.3 0 0 1-.4.2c-.2 0-.3-.2-.2-.4s1.3-5 1.9-7.7 1.3-8.4 1.4-8.4a.3.3 0 0 1 .3-.3z" fill="#1e1e1e"></path><path d="M373.2 51.9h.1a.1.1 0 0 1 .1.1c0 .1 0 .1-.2.5l-.5 1.2a6.7 6.7 0 0 1 .6 1.2 1.5 1.5 0 0 1-.1.6.5.5 0 0 1-.5.3.4.4 0 0 1-.5-.1 1 1 0 0 1-.4-.5 5.6 5.6 0 0 1 .4-1.5l-.9-1.1h-.1l-.8 1.6a4.9 4.9 0 0 1 .6 1.3.8.8 0 0 1-.2.7l-.5.2c-.2.1-.3 0-.4-.1a1.1 1.1 0 0 1-.3-.8 2.7 2.7 0 0 1 .4-1.3l-1-1.2h-.1l-.8 1.1a2.1 2.1 0 0 1 .5 1.2 1.1 1.1 0 0 1-.3.8l-.4.2c-.2 0-.3-.1-.4-.3a.8.8 0 0 1-.2-.8 3 3 0 0 1 .4-1.1l-.9-1.3c-.1-.2-.1-.2-.1-.3h.1s.2 0 .2.1h.1a8.3 8.3 0 0 1 .8 1.2l.7-1a.3.3 0 0 0 .1-.2.1.1 0 0 0 .1-.1h.3c0 .1.1.2.2.3a7.6 7.6 0 0 1 .8 1.1l.8-1.3a.8.8 0 0 0 .1-.3h.1c0-.1.1-.1.2 0h.2a13.5 13.5 0 0 1 .9 1.1l.5-1c.1-.2.2-.3.2-.4a.1.1 0 0 1 .1-.1zm-.6 3.6l.3-.2c0-.1.1-.3 0-.4a2 2 0 0 0-.4-.8 2.6 2.6 0 0 0-.3 1c0 .2.1.3.2.3s.1.1.2.1zm-4.7.3h.1c.2-.2.3-.4.2-.6a2.3 2.3 0 0 0-.3-.9l-.3.8c0 .3 0 .5.1.6zm2.4.4h.2a.4.4 0 0 0 .1-.5 2.3 2.3 0 0 0-.4-.9 1.9 1.9 0 0 0-.3.9.8.8 0 0 0 .2.5z" fill="#1e1e1e"></path><path d="M368.9 36.2a.8.8 0 0 1 .9.8l.3 3.6a.9.9 0 0 1-.8.9h-.1a.9.9 0 0 1-.9-.8l-.2-3.6a.8.8 0 0 1 .8-.9z" fill="#c8c8c8"></path><path d="M368.2 39.4h2a1.7 1.7 0 0 1 1.7 1.3l.7 3.4c.1 1-.7.5-1.6.5l-2.9.2c-1 .1-1.8.7-1.7-.3l.2-3.4a1.7 1.7 0 0 1 1.6-1.7z" fill="#c8c8c8"></path></g><g><path d="M328.7 79.3c-10.4.8-13.8-11.9-5.8-17.9 2.8-2.1.4-2.8 4-3.1s1.7.8 4.6 2.4c8.4 4.8 7.6 17.8-2.8 18.6z" fill="#ff4596"></path><path d="M326.6 53.2c.1 0 .3.1.3.2s2.1 6.7 2.9 8.8 2.7 6.7 2.7 6.7a.4.4 0 0 1-.2.5c-.2 0-.4 0-.5-.2s-1.7-4.3-2.7-6.7l-2.4-7.3c-.2 2-.7 5.4-1 6.9s-1.8 7.7-1.8 7.7-.2.3-.4.3a.5.5 0 0 1-.3-.4c0-.1 1.3-5 1.8-7.8s1.2-8.3 1.2-8.4.2-.3.4-.3z" fill="#1e1e1e"></path><path d="M330.9 66.7h.2c0 .1 0 .1-.2.6a5.4 5.4 0 0 0-.6 1.1 3.7 3.7 0 0 1 .7 1.2 1.7 1.7 0 0 1-.1.7l-.5.3h-.5a.9.9 0 0 1-.4-.6 6.3 6.3 0 0 1 .4-1.4l-1-1.1h-.1l-.8 1.6a4 4 0 0 1 .7 1.2 1.1 1.1 0 0 1-.2.8l-.5.2c-.2.1-.3 0-.4-.1a1.1 1.1 0 0 1-.3-.7 3.9 3.9 0 0 1 .3-1.4 7.3 7.3 0 0 0-1-1.3h-.1a4.9 4.9 0 0 1-.7 1.1 2.8 2.8 0 0 1 .5 1.2c0 .3-.1.7-.3.8a.4.4 0 0 1-.4.2.5.5 0 0 1-.4-.2.9.9 0 0 1-.2-.9 3 3 0 0 1 .4-1.1 7.4 7.4 0 0 0-.9-1.2l-.2-.3h.5l.8 1.1c.2-.4.5-.7.6-1a.2.2 0 0 0 .2-.2h.3l.2.3.9 1.1.7-1.3.2-.3h.4l1 1a10.4 10.4 0 0 0 .4-1l.2-.3h.2zm-.6 3.6h.3c0-.1.1-.3 0-.4a1.8 1.8 0 0 0-.4-.9 3 3 0 0 0-.3 1.1l.2.3zm-4.7.5h.1c.2-.1.2-.4.2-.5a1.6 1.6 0 0 0-.3-.9 4.1 4.1 0 0 0-.3.8.7.7 0 0 0 .1.5c.1.1.1.2.2.2zm2.4.3h.3c0-.1.1-.3 0-.5a2.3 2.3 0 0 0-.4-.9 2.2 2.2 0 0 0-.3 1 .8.8 0 0 0 .2.4z" fill="#1e1e1e"></path><path d="M326.2 51.1a1.1 1.1 0 0 1 1 .8l.3 3.6a.8.8 0 0 1-.8.9.9.9 0 0 1-1-.8l-.3-3.5a1 1 0 0 1 .8-1z" fill="#c8c8c8"></path><path d="M325.6 54.4l2-.2a1.6 1.6 0 0 1 1.7 1.3l.7 3.3c.3 1-.6.5-1.5.6l-2.9.3c-1 0-1.8.6-1.7-.4l.2-3.4a1.5 1.5 0 0 1 1.5-1.5z" fill="#c8c8c8"></path></g><g><path d="M28 43.7c-10.4.5-13.4-12.3-5.2-18.1 2.8-2 .5-2.8 4.1-3s1.6.9 4.5 2.6c8.3 5 7.1 18-3.4 18.5z" fill="#ffd336"></path><path d="M26.7 17.5c.2 0 .3.1.4.3s1.8 6.7 2.6 8.8 2.4 6.8 2.4 6.8a.4.4 0 0 1-.2.5l-.4-.2c0-.1-1.7-4.3-2.5-6.8s-1.6-5.2-2.2-7.4c-.3 2.1-.9 5.4-1.2 6.9s-2 7.6-2.1 7.7a.3.3 0 0 1-.4.2c-.2 0-.3-.2-.2-.4s1.4-4.9 2-7.7 1.5-8.3 1.5-8.4a.3.3 0 0 1 .3-.3z" fill="#1e1e1e"></path><path d="M30.6 31.2h.2l-.2.5A6.7 6.7 0 0 0 30 33a3.4 3.4 0 0 1 .6 1.2 1.5 1.5 0 0 1-.1.6.5.5 0 0 1-.5.3h-.5a.6.6 0 0 1-.3-.6 2.3 2.3 0 0 1 .4-1.4l-1-1.1h-.1l-.8 1.5a6.9 6.9 0 0 1 .6 1.3 1.1 1.1 0 0 1-.2.8l-.5.2c-.2 0-.3 0-.4-.2s-.3-.5-.3-.7a3.8 3.8 0 0 1 .4-1.3l-1-1.4h-.1a4.3 4.3 0 0 0-.7 1 4.1 4.1 0 0 1 .4 1.2c0 .3-.1.7-.3.8l-.4.2c-.2 0-.3-.1-.4-.3a.8.8 0 0 1-.2-.8 2.1 2.1 0 0 1 .5-1.1l-.9-1.2c-.2-.2-.2-.3-.2-.3s.1-.1.1-.2.2 0 .2.1h.2a8.3 8.3 0 0 0 .8 1.2c.2-.4.5-.7.6-.9s.2-.2.2-.3h.3l.2.2.9 1.2c.2-.5.5-1 .7-1.4s.2-.2.2-.3h.4l.9 1 .6-.9c0-.2.1-.3.1-.4h.2zm-.7 3.6l.3-.2a.6.6 0 0 0 .1-.4l-.5-.9a3.6 3.6 0 0 0-.3 1.1c0 .1.1.3.2.3zm-4.7.2h.1a.7.7 0 0 0 .3-.5l-.3-.9a5.9 5.9 0 0 0-.4.8.7.7 0 0 0 .1.5zm2.4.5c.1-.1.2-.1.2-.2s.2-.2.1-.4a2.6 2.6 0 0 0-.4-1 9.3 9.3 0 0 0-.3 1 .8.8 0 0 0 .2.5z" fill="#1e1e1e"></path><path d="M26.4 15.4a1.1 1.1 0 0 1 1 .9l.2 3.5a1.1 1.1 0 0 1-.9 1 .9.9 0 0 1-.9-.9l-.2-3.5a1 1 0 0 1 .8-1z" fill="#c8c8c8"></path><path d="M25.7 18.7h2a1.6 1.6 0 0 1 1.7 1.3l.6 3.4c.2.9-.6.4-1.6.5h-2.9c-1 .1-1.7.7-1.7-.3l.3-3.4a1.7 1.7 0 0 1 1.6-1.5z" fill="#c8c8c8"></path></g><path d="M656.5 73a348.2 348.2 0 0 1-85.1-11 435.3 435.3 0 0 1-69.5-24.3C462.7 20.2 438 2.5 437.8 2.3a.2.2 0 0 1-.1-.4c.1-.1.3-.2.4-.1s24.9 17.9 64 35.3c36.1 16.1 92.1 35.3 154.4 35.3s118.3-19.2 154.4-35.3c39-17.4 63.7-35.1 64-35.3s.3 0 .4.1 0 .3-.1.4-25 17.9-64.1 35.4A438.7 438.7 0 0 1 741.6 62a348.8 348.8 0 0 1-85.1 11z" fill="#fff"></path><path d="M619.9 72.7a45.6 45.6 0 0 1-5.5-.3 90.4 90.4 0 0 1-15.8-3.6 78.8 78.8 0 0 0-15.7-3.6l-1.2-.2c-4.1-.5-11.6-1.5-13.5-3.4L567 60a7.2 7.2 0 0 0-2.3-2.3c-1.7-.9-3.7-.2-5.8.6s-4.1 1.5-6.1.6a8.3 8.3 0 0 1-3-2.9 10.9 10.9 0 0 0-1.3-1.7c-2.9-2.9-7.1-2.7-11.5-2.5s-7.6.4-10.7-1.3a18.5 18.5 0 0 1-4-3.3 34.5 34.5 0 0 0-2.8-2.6c-3-2.2-6.9-2.8-10.6-3.4-1.4-.3-2.9-.5-4.3-.9-3.1-.7-4.6-3-6.3-5.4a16.9 16.9 0 0 0-4.1-4.8c-3.8-2.6-8.1-3.8-12.3-4.9s-8.1-2.2-11.8-4.6-8.2-4-12.6-5.6c-7.6-2.7-15.5-5.5-19.2-12.3a.2.2 0 0 1 .1-.3c.2-.1.3-.1.4.1 3.6 6.5 11.4 9.3 18.9 12 4.4 1.6 9 3.2 12.7 5.6s7.7 3.4 11.7 4.5 8.5 2.4 12.4 5.1a17.7 17.7 0 0 1 4.3 4.8c1.6 2.4 3.1 4.6 5.9 5.3l4.3.8c3.8.6 7.7 1.3 10.8 3.6a18 18 0 0 1 2.9 2.6 19 19 0 0 0 3.8 3.2c3.1 1.7 6.8 1.4 10.5 1.2s8.9-.4 11.9 2.7a11.5 11.5 0 0 1 1.4 1.7 8.1 8.1 0 0 0 2.7 2.8c1.8.7 3.7.1 5.7-.7s4.3-1.5 6.3-.5a8.5 8.5 0 0 1 2.5 2.5l1.1 1.5c1.8 1.8 9.5 2.8 13.1 3.2l1.3.2a88.2 88.2 0 0 1 15.8 3.6 72.3 72.3 0 0 0 15.7 3.6c5.9.9 15.4-.1 24.5-1 6.3-.6 12.3-1.2 16.4-1.2 2.2.1 4 .4 5.7.6a26.6 26.6 0 0 0 6.5.6 42.2 42.2 0 0 1 7.9.7c3.2.4 6.4.9 9.6.4a87.7 87.7 0 0 0 14.9-3.7c6.3-2 12.2-3.9 19.5-4a29.5 29.5 0 0 1 4.6.4 31 31 0 0 0 6.4.4 31.6 31.6 0 0 0 6.7-1.8 145.8 145.8 0 0 0 14.5-5.8c4.4-1.9 9-4 14.5-5.8a59.2 59.2 0 0 1 7-1.5 55.3 55.3 0 0 0 8.6-2l1.5-.7a38.7 38.7 0 0 1 6.5-2.3l3.2-.6a18.9 18.9 0 0 0 6.2-1.6 18.6 18.6 0 0 0 3.8-3 19.7 19.7 0 0 1 4.3-3.3 16.5 16.5 0 0 1 7.3-1.2 22.7 22.7 0 0 0 5.9-.8 36.7 36.7 0 0 0 9.3-4.6l4.7-3.7C847 16.5 858.8 7.2 874.6 2a.2.2 0 0 1 .3.1c.1.2 0 .4-.1.4-15.7 5.2-27.5 14.5-40 24.3l-4.6 3.6a40.4 40.4 0 0 1-9.5 4.8 20.4 20.4 0 0 1-6.1.7c-2.5.1-4.9.2-7 1.2a18.7 18.7 0 0 0-4.2 3.2 19.7 19.7 0 0 1-3.9 3.1 20.2 20.2 0 0 1-6.4 1.7c-1 .2-2.1.3-3.1.6a35.8 35.8 0 0 0-6.5 2.3l-1.5.6a46.3 46.3 0 0 1-8.7 2.1 40.4 40.4 0 0 0-6.9 1.5 136.6 136.6 0 0 0-14.5 5.8c-4.4 1.9-9 3.9-14.5 5.8a40.1 40.1 0 0 1-6.8 1.8 33.2 33.2 0 0 1-6.6-.4 32 32 0 0 0-4.5-.5c-7.2.2-13.1 2-19.3 4a91.3 91.3 0 0 1-15 3.8 32.2 32.2 0 0 1-9.8-.5 51.2 51.2 0 0 0-7.8-.6 27.5 27.5 0 0 1-6.6-.6 31 31 0 0 0-5.6-.6 138.6 138.6 0 0 0-16.3 1.2c-6.7.6-13.6 1.3-19.2 1.3z" fill="#fff"></path><g><path d="M471.2 48.8c-10.1-2.2-9.8-15.3-.4-18.8 3.2-1.2 1.2-2.6 4.7-1.9s1.4 1.3 3.7 3.7c6.8 6.9 2.3 19.1-8 17z" fill="#28dcc8"></path><path d="M476.6 23.1c.2.1.3.2.3.4s.1 6.9.3 9.2.6 7.1.6 7.2-.1.4-.3.4-.3-.1-.4-.3-.4-4.6-.6-7.2-.2-5.5-.3-7.7c-.8 1.9-2.2 5-2.9 6.3s-3.9 6.9-3.9 6.9a.4.4 0 0 1-.5.2.3.3 0 0 1-.1-.5c0-.1 2.5-4.4 3.9-6.9s3.5-7.7 3.5-7.8l.4-.2z" fill="#1e1e1e"></path><path d="M476.9 37.3h.2c0 .1 0 .1-.4.5l-.8.9a7.9 7.9 0 0 1 .3 1.3.7.7 0 0 1-.3.6.6.6 0 0 1-.5.2.7.7 0 0 1-.6-.3c-.1-.1-.1-.3-.1-.6a5.1 5.1 0 0 1 .8-1.3 8.8 8.8 0 0 1-.7-1.3h-.1l-1.2 1.3a5 5 0 0 1 .3 1.4.9.9 0 0 1-.4.6.5.5 0 0 1-.6.1c-.1 0-.3-.1-.3-.2a.8.8 0 0 1-.1-.8 5.2 5.2 0 0 1 .7-1.2 7.7 7.7 0 0 0-.6-1.5v-.2h-.1l-1 .8a3.4 3.4 0 0 1 .2 1.3 1.1 1.1 0 0 1-.6.7.3.3 0 0 1-.4 0 .3.3 0 0 1-.3-.3 1.4 1.4 0 0 1 0-.9l.7-.9a5.3 5.3 0 0 0-.5-1.4c-.1-.3-.1-.3-.1-.4h.2l.2.2a6.9 6.9 0 0 1 .5 1.3l.9-.7.2-.2h.1a.1.1 0 0 1 .2 0l.2.3a5.8 5.8 0 0 0 .5 1.4 11.3 11.3 0 0 1 1.1-1.1c.1-.1.2-.2.2-.3h.1c0-.1.1-.1.2 0h.1c.1.3.4.7.6 1.2a6 6 0 0 0 .8-.8c.1-.1.2-.2.2-.3h.2zm-1.6 3.3h.1a.1.1 0 0 0 .2 0l.2-.4a4.4 4.4 0 0 0-.2-1 6.4 6.4 0 0 0-.6 1c0 .1.1.2.1.3zm-4.6-.9h.2a.9.9 0 0 0 .3-.5c.1-.2 0-.5-.1-.9l-.5.7a.6.6 0 0 0 0 .6zm2.2 1h.3a.8.8 0 0 0 .2-.5 2.2 2.2 0 0 0-.2-1 4.1 4.1 0 0 0-.5.9c0 .1 0 .4.1.5s0 .1.1.1z" fill="#1e1e1e"></path><path d="M476.9 21.1a.8.8 0 0 1 .7 1l-.7 3.5a.9.9 0 0 1-1.1.7.9.9 0 0 1-.7-1.1l.7-3.4a.9.9 0 0 1 1.1-.7z" fill="#c8c8c8"></path><path d="M475.3 24l2 .4a1.6 1.6 0 0 1 1.3 1.7l-.2 3.4c-.1 1-.8.3-1.7.1l-2.9-.6c-1-.2-1.8.2-1.5-.7l1.1-3.2a1.6 1.6 0 0 1 1.9-1.1z" fill="#c8c8c8"></path></g><g><path d="M853.5 39.7c-10.4.5-13.4-12.3-5.3-18 2.9-2.1.5-2.9 4.1-3.1s1.7.9 4.6 2.6c8.2 5 7 18-3.4 18.5z" fill="#ffd336"></path><path d="M852.2 13.5a.3.3 0 0 1 .3.3s1.9 6.7 2.6 8.8l2.5 6.8a.4.4 0 0 1-.2.5c-.2 0-.4 0-.5-.2l-2.5-6.8c-.5-1.5-1.5-5.2-2.1-7.4-.3 2.1-.9 5.4-1.2 6.9S849 30 849 30.1s-.2.3-.4.2-.3-.2-.3-.4 1.4-4.9 2.1-7.7 1.4-8.3 1.4-8.4.2-.3.4-.3z" fill="#1e1e1e"></path><path d="M856 27.2h.1a.1.1 0 0 1 .1.1c.1.1 0 .1-.2.5l-.6 1.2a3.7 3.7 0 0 1 .7 1.2.8.8 0 0 1-.2.6c-.1.2-.2.3-.4.3a.7.7 0 0 1-.6-.1.6.6 0 0 1-.3-.6 6.3 6.3 0 0 1 .4-1.4 5.9 5.9 0 0 0-.9-1.1h-.1a6.8 6.8 0 0 0-.8 1.5l.6 1.3a1.9 1.9 0 0 1-.2.8l-.6.2h-.4a1.3 1.3 0 0 1-.3-.8 4.6 4.6 0 0 1 .4-1.3 11.6 11.6 0 0 0-.9-1.4h-.1l-.8 1a5.1 5.1 0 0 1 .5 1.2 1.5 1.5 0 0 1-.4.9h-.4l-.4-.2a1.3 1.3 0 0 1-.2-.9l.5-1.1a7.4 7.4 0 0 0-.9-1.2c-.1-.2-.1-.2-.1-.3v-.2s.2 0 .2.1a.3.3 0 0 1 .1.2 4.4 4.4 0 0 1 .8 1.1l.7-.9v-.2h.3c.1 0 .1 0 .1.1l.2.2a8.3 8.3 0 0 1 .8 1.2l.8-1.4v-.2h.4c0 .1 0 .1.1.1a5.9 5.9 0 0 1 .9 1.1 9.3 9.3 0 0 1 .5-1l.2-.4a.1.1 0 0 1 .4-.2zm-.7 3.6h.1l.2-.2a.6.6 0 0 0 .1-.4l-.4-.9a3.6 3.6 0 0 0-.3 1.1c0 .1 0 .3.1.3zm-4.6.3a.1.1 0 0 1 .1-.1 1.1 1.1 0 0 0 .2-.5 1.6 1.6 0 0 0-.3-.9 1.6 1.6 0 0 0-.3.8.4.4 0 0 0 .1.5c0 .1.1.1.2.2zm2.3.4l.3-.2c.1-.1.1-.2.1-.4a2.6 2.6 0 0 0-.4-1 2.6 2.6 0 0 0-.3 1c0 .2 0 .4.2.5z" fill="#1e1e1e"></path><path d="M851.9 11.5a.8.8 0 0 1 .9.8l.2 3.5a1 1 0 0 1-.8 1 .9.9 0 0 1-.9-.9l-.2-3.5a.8.8 0 0 1 .8-.9z" fill="#c8c8c8"></path><path d="M851.1 14.7h2.1a1.5 1.5 0 0 1 1.6 1.3l.7 3.4c.1 1-.7.5-1.6.5l-3 .2c-.9 0-1.7.6-1.6-.4l.3-3.4a1.5 1.5 0 0 1 1.5-1.6z" fill="#c8c8c8"></path></g><g><path d="M712.1 91.4c-10.2 2.3-15.2-9.9-8.1-16.9 2.4-2.5 0-2.9 3.5-3.7s1.8.6 4.9 1.9c9 3.5 9.9 16.5-.3 18.7z" fill="#28dcc8"></path><path d="M706.5 65.8l.4.2c0 .1 2.9 6.3 4 8.3a69 69 0 0 0 3.6 6.3.4.4 0 0 1-.2.5c-.1.1-.4 0-.5-.1s-2.3-4-3.5-6.3-2.4-4.9-3.4-6.9c0 2.1.1 5.5 0 7s-.8 7.8-.8 7.9-.2.3-.4.3-.3-.2-.3-.4.5-5.1.8-7.9 0-8.5 0-8.5.1-.3.3-.4z" fill="#1e1e1e"></path><path d="M712.6 78.7h.2c0 .1 0 .1-.2.5s-.2.8-.3 1.2l.8 1.1a1.7 1.7 0 0 1-.1.7c0 .2-.2.3-.4.4h-.5c-.2-.1-.4-.2-.4-.5a3 3 0 0 1 .2-1.5l-1.2-.9a10.7 10.7 0 0 0-.6 1.7 3.3 3.3 0 0 1 .8 1.1.8.8 0 0 1-.1.8c-.1.2-.2.3-.4.3a.4.4 0 0 1-.5-.1.8.8 0 0 1-.4-.6 7.8 7.8 0 0 1 .2-1.4l-1.2-1.2h-.1l-.6 1.1a2.5 2.5 0 0 1 .7 1.2 2.4 2.4 0 0 1-.2.8l-.4.2a.4.4 0 0 1-.4-.2.8.8 0 0 1-.4-.7 5.3 5.3 0 0 1 .3-1.2l-1-1.1-.2-.3h.3c0 .1 0 .1.1.1l1 1 .5-1a.3.3 0 0 1 .1-.2h.1c0-.1.1-.1.2 0h.1l.2.2 1 1.1c.2-.6.4-1.1.5-1.5a.5.5 0 0 0 .1-.3h.4a.1.1 0 0 0 .1.1l1.1.9.3-1.1a.6.6 0 0 0 .1-.4h.2zm-.1 3.6a.2.2 0 0 0 .2-.2c.1-.1.1-.3 0-.3a2.4 2.4 0 0 0-.6-.9 5.4 5.4 0 0 0-.1 1.1c.1.2.1.3.2.3s.2.1.3 0zm-4.6 1.1h.1a.6.6 0 0 0 .1-.6 2 2 0 0 0-.4-.8 2.9 2.9 0 0 0-.2.9.8.8 0 0 0 .2.5zm2.4 0l.2-.2a.7.7 0 0 0 .1-.5l-.6-.8a1.9 1.9 0 0 0-.1 1 .8.8 0 0 0 .2.5z" fill="#1e1e1e"></path><path d="M705.9 63.8a.9.9 0 0 1 1 .7l.8 3.5a.9.9 0 0 1-.7 1 .9.9 0 0 1-1-.6l-.8-3.5a1 1 0 0 1 .7-1.1z" fill="#c8c8c8"></path><path d="M705.7 67.2l1.9-.5a1.6 1.6 0 0 1 1.9 1.1l1.2 3.2c.3.9-.5.5-1.5.8l-2.9.6c-.9.2-1.6.9-1.6-.1l-.3-3.4a1.6 1.6 0 0 1 1.3-1.7z" fill="#c8c8c8"></path></g><g><path d="M606.5 94.8c-10.3-1.8-10.3-14.9-1.1-18.7 3.2-1.3 1.1-2.7 4.7-2s1.4 1.2 3.8 3.5c6.9 6.7 2.9 19.1-7.4 17.2z" fill="#ff4596"></path><path d="M611 69c.2.1.3.2.3.4s.3 6.9.6 9.2.9 7.1.9 7.1-.1.4-.3.4-.4-.1-.4-.3-.7-4.5-.9-7.1-.4-5.5-.5-7.7c-.8 1.9-2.1 5.1-2.7 6.4s-3.7 7-3.7 7.1a.4.4 0 0 1-.5.1.4.4 0 0 1-.2-.5c.1 0 2.5-4.4 3.7-7s3.3-7.8 3.3-7.8.2-.3.4-.3z" fill="#1e1e1e"></path><path d="M611.8 83.2h.1l-.3.4-.8 1a3.5 3.5 0 0 1 .3 1.3.7.7 0 0 1-.3.6c-.1.2-.3.2-.5.2l-.5-.2a1.4 1.4 0 0 1-.2-.6 5.1 5.1 0 0 1 .8-1.3l-.7-1.3h-.1a7.9 7.9 0 0 0-1.2 1.3 2.7 2.7 0 0 1 .3 1.4.6.6 0 0 1-.3.6.7.7 0 0 1-.6.2c-.1-.1-.3-.1-.4-.3a1.9 1.9 0 0 1-.1-.8 8.8 8.8 0 0 1 .7-1.2l-.6-1.5h-.1l-1 .9a3.2 3.2 0 0 1 .2 1.3l-.5.7c-.2.1-.3.1-.4 0s-.3-.1-.4-.3a1.4 1.4 0 0 1 0-.9l.7-.9a4.8 4.8 0 0 0-.6-1.4c-.1-.3-.1-.3 0-.4h.4a6.9 6.9 0 0 0 .5 1.3l.9-.8h.4c.1 0 .1 0 .1.1v.2l.6 1.4 1-1.2.2-.2h.3c.1.1.1.1.1.2h.1l.6 1.2.7-.9.3-.3h.2zm-1.5 3.4h.3a.8.8 0 0 0 .2-.4 1.6 1.6 0 0 0-.3-.9 2.8 2.8 0 0 0-.5.9c0 .2 0 .3.1.4zm-4.6-.8h.1a.9.9 0 0 0 .3-.5 1.5 1.5 0 0 0-.1-.9l-.5.7c0 .2-.1.4 0 .5a.2.2 0 0 0 .2.2zm2.2.9h.3a.8.8 0 0 0 .2-.5 5.8 5.8 0 0 0-.2-1 2.1 2.1 0 0 0-.5.9.4.4 0 0 0 0 .5z" fill="#1e1e1e"></path><path d="M611.2 67a.8.8 0 0 1 .7 1l-.6 3.5a.8.8 0 0 1-1 .7.8.8 0 0 1-.7-1l.6-3.5a.8.8 0 0 1 1-.7z" fill="#c8c8c8"></path><path d="M609.8 69.9l1.9.4a1.6 1.6 0 0 1 1.4 1.7v3.4c-.1 1-.7.3-1.7.1l-2.9-.5c-1-.1-1.8.3-1.5-.7l1-3.2a1.8 1.8 0 0 1 1.8-1.2z" fill="#c8c8c8"></path></g><g><path d="M558.8 84.5c-10.4-.2-12.5-13.2-3.9-18.3 3-1.8.7-2.8 4.3-2.8s1.6 1 4.3 3c7.9 5.5 5.8 18.4-4.7 18.1z" fill="#28dcc8"></path><path d="M559.3 58.3c.2 0 .3.2.4.3s1.4 6.8 2 9 2 6.9 2 7-.1.4-.3.4-.4 0-.4-.2-1.3-4.4-2-7-1.2-5.3-1.7-7.4a65 65 0 0 1-1.7 6.7c-.8 2.7-2.5 7.5-2.6 7.5s-.2.3-.4.2-.3-.2-.2-.4 1.7-4.8 2.6-7.5 2-8.2 2-8.3a.5.5 0 0 1 .3-.3z" fill="#1e1e1e"></path><path d="M562.3 72.2h.1c.1.1.1.1-.2.5s-.4.7-.7 1.1a3.4 3.4 0 0 1 .6 1.2 1 1 0 0 1-.2.7l-.5.2h-.5a.9.9 0 0 1-.3-.6 3.9 3.9 0 0 1 .5-1.4l-.9-1.2a6.5 6.5 0 0 0-1 1.5 3.1 3.1 0 0 1 .5 1.3c0 .3 0 .6-.2.7a.4.4 0 0 1-.5.2h-.5a1.2 1.2 0 0 1-.2-.8 2.7 2.7 0 0 1 .5-1.3 11.6 11.6 0 0 0-.9-1.4h-.1l-.8 1a3.8 3.8 0 0 1 .4 1.3.8.8 0 0 1-.4.7l-.4.2-.4-.3c-.2-.2-.2-.5-.1-.9s.3-.6.5-1a6 6 0 0 0-.8-1.3.8.8 0 0 1-.1-.3h.1c.1-.1.2-.1.2 0s.1.1.1.2l.7 1.2.8-.9a.3.3 0 0 1 .1-.2h.4v.3l.9 1.1a7.3 7.3 0 0 1 .9-1.3.3.3 0 0 1 .1-.2h.1c.1-.1.2-.1.2 0h.2l.8 1 .6-.9.2-.3h.2zm-1 3.6h.1a.2.2 0 0 0 .2-.2.4.4 0 0 0 .1-.3 2.6 2.6 0 0 0-.4-1 3.6 3.6 0 0 0-.3 1.1.4.4 0 0 0 .1.3zm-4.6-.1h.1a1.1 1.1 0 0 0 .2-.5 2.9 2.9 0 0 0-.2-.9 1.3 1.3 0 0 0-.4.7.6.6 0 0 0 .1.6h.2zm2.3.6h.2a.8.8 0 0 0 .2-.5 3.1 3.1 0 0 0-.4-.9 1.9 1.9 0 0 0-.3.9.4.4 0 0 0 .1.5z" fill="#1e1e1e"></path><path d="M559.2 56.3a.9.9 0 0 1 .9.9v3.5a.9.9 0 0 1-.9.9.9.9 0 0 1-.8-.9v-3.6a.8.8 0 0 1 .9-.8z" fill="#c8c8c8"></path><path d="M558.2 59.4h2.1a1.6 1.6 0 0 1 1.6 1.4l.3 3.4c.1 1-.6.4-1.6.4h-2.9c-1-.1-1.8.5-1.6-.5l.5-3.4a1.6 1.6 0 0 1 1.6-1.3z" fill="#c8c8c8"></path></g><g><path d="M664.7 97.2c-10.4.7-13.6-12-5.5-17.9 2.8-2.1.5-2.9 4-3.1s1.7.9 4.6 2.5c8.3 4.8 7.4 17.8-3.1 18.5z" fill="#ffd336"></path><path d="M663 71.1l.3.2c.1.1 2 6.7 2.8 8.9l2.6 6.7c0 .2 0 .4-.2.5l-.5-.2c0-.1-1.7-4.3-2.6-6.8s-1.6-5.2-2.3-7.3c-.3 2-.8 5.4-1.1 6.9s-1.9 7.6-1.9 7.7-.3.3-.4.2-.3-.2-.3-.4 1.3-4.9 1.9-7.7 1.3-8.3 1.4-8.4a.3.3 0 0 1 .3-.3z" fill="#1e1e1e"></path><path d="M667.1 84.7h.2c0 .1 0 .1-.2.5a6.7 6.7 0 0 0-.6 1.2 3.4 3.4 0 0 1 .6 1.2.5.5 0 0 1-.1.6c-.1.2-.2.3-.4.3a.7.7 0 0 1-.6-.1.5.5 0 0 1-.3-.5 3.4 3.4 0 0 1 .4-1.5l-1-1.1h-.1a11.8 11.8 0 0 1-.8 1.6 3.3 3.3 0 0 1 .7 1.3 1.4 1.4 0 0 1-.2.7c-.1.2-.3.2-.5.3l-.5-.2a1.1 1.1 0 0 1-.3-.7 4.3 4.3 0 0 1 .4-1.4 7.3 7.3 0 0 0-1-1.3h-.1a4.9 4.9 0 0 1-.7 1.1l.5 1.2a1.2 1.2 0 0 1-.4.8l-.4.2a.5.5 0 0 1-.4-.3 1.1 1.1 0 0 1-.2-.8l.5-1.1-.9-1.2c-.2-.2-.2-.2-.2-.3h.1a.2.2 0 0 1 .3 0v.2l.8 1.1c.2-.4.5-.7.6-1s.2-.1.2-.2h.3l.2.3.9 1.2c.3-.6.5-1.1.7-1.4l.2-.3h.3c.1 0 .1 0 .1.1a9.1 9.1 0 0 1 1 1 3.1 3.1 0 0 1 .5-1c0-.2.1-.3.1-.4h.2zm-.7 3.6h.1a.2.2 0 0 0 .2-.2.4.4 0 0 0 .1-.3 2 2 0 0 0-.5-.9c-.1.4-.3.8-.2 1s0 .3.1.3zm-4.6.3h.1a1.1 1.1 0 0 0 .2-.6 1.6 1.6 0 0 0-.3-.8 1.3 1.3 0 0 0-.3.8.4.4 0 0 0 .1.5zm2.3.4h.3a.7.7 0 0 0 .1-.5 2.3 2.3 0 0 0-.4-.9 2.2 2.2 0 0 0-.3 1 .4.4 0 0 0 .2.4z" fill="#1e1e1e"></path><path d="M662.7 69a.9.9 0 0 1 .9.8l.3 3.6a.9.9 0 0 1-.8.9.9.9 0 0 1-1-.8l-.2-3.5a.9.9 0 0 1 .8-1z" fill="#c8c8c8"></path><path d="M662 72.3l2-.2a1.7 1.7 0 0 1 1.7 1.3l.7 3.4c.2 1-.6.5-1.6.5l-2.9.2c-1 .1-1.7.7-1.7-.3l.2-3.4a1.7 1.7 0 0 1 1.6-1.5z" fill="#c8c8c8"></path></g><g><path d="M815.3 61.8c-10.4.6-13.6-12.1-5.5-18 2.9-2 .5-2.8 4.1-3.1s1.7.9 4.5 2.6c8.4 4.8 7.3 17.8-3.1 18.5z" fill="#28dcc8"></path><path d="M813.6 35.6c.2 0 .3.1.4.3s1.9 6.7 2.7 8.8 2.6 6.7 2.6 6.8a.4.4 0 0 1-.2.4.4.4 0 0 1-.5-.2L816 45c-.5-1.6-1.6-5.2-2.2-7.4-.3 2.1-.8 5.5-1.2 6.9s-1.9 7.7-1.9 7.7a.5.5 0 0 1-.4.3.5.5 0 0 1-.3-.5l2-7.6c.4-2.1 1.3-8.4 1.3-8.5a.5.5 0 0 1 .3-.3z" fill="#1e1e1e"></path><path d="M817.7 49.3h.1a.1.1 0 0 1 .1.1c0 .1 0 .1-.2.5l-.6 1.1a3.4 3.4 0 0 1 .6 1.2.6.6 0 0 1-.1.7c-.1.2-.2.3-.4.3h-.6a.6.6 0 0 1-.3-.6 3.3 3.3 0 0 1 .4-1.4l-1-1.1h-.1c-.1.3-.5.9-.8 1.5a2.8 2.8 0 0 1 .6 1.3 1.1 1.1 0 0 1-.1.8l-.5.2h-.5a1.1 1.1 0 0 1-.3-.8 4.6 4.6 0 0 1 .4-1.3 8.5 8.5 0 0 0-1-1.4h-.1l-.7 1.1a6.1 6.1 0 0 1 .5 1.2 1.2 1.2 0 0 1-.4.8h-.4l-.4-.2a1.1 1.1 0 0 1-.2-.8l.5-1.1a5.6 5.6 0 0 0-.9-1.3c-.2-.2-.2-.2-.2-.3h.1c.1-.1.2 0 .3.1h.1l.8 1.1.6-.9.2-.2c0-.1 0-.1.1-.1h.2a.2.2 0 0 1 .2.2l.9 1.2.7-1.4c.1-.1.2-.2.2-.3h.3a.1.1 0 0 1 .1.1l1 1 .5-1a1 1 0 0 1 .1-.3h.2zm-.7 3.6a.1.1 0 0 0 .1-.1h.2a.6.6 0 0 0 .1-.4 2 2 0 0 0-.5-.9c-.1.5-.3.9-.2 1.1a.4.4 0 0 0 .1.3zm-4.6.3h.1a.8.8 0 0 0 .2-.5 1.6 1.6 0 0 0-.3-.9 1.6 1.6 0 0 0-.3.8.7.7 0 0 0 .1.6zm2.3.4l.3-.2c.1-.1.1-.2.1-.4a2.6 2.6 0 0 0-.4-1 2.6 2.6 0 0 0-.3 1c0 .2 0 .4.2.5z" fill="#1e1e1e"></path><path d="M813.3 33.6a.9.9 0 0 1 1 .8l.2 3.5a.9.9 0 0 1-.8 1 .9.9 0 0 1-.9-.8l-.3-3.6a.8.8 0 0 1 .8-.9z" fill="#c8c8c8"></path><path d="M812.6 36.8h2a1.7 1.7 0 0 1 1.8 1.3l.6 3.4c.2.9-.6.4-1.6.5l-2.9.2c-1 0-1.7.6-1.6-.4l.2-3.4a1.6 1.6 0 0 1 1.5-1.6z" fill="#c8c8c8"></path></g><g><path d="M766.3 79.3c-10.3.8-13.7-11.9-5.7-17.9 2.8-2.1.4-2.8 4-3.1s1.7.8 4.6 2.4c8.4 4.8 7.6 17.8-2.9 18.6z" fill="#ff4596"></path><path d="M764.2 53.2l.4.2c0 .1 2.1 6.7 2.9 8.8s2.6 6.7 2.6 6.7a.4.4 0 0 1-.1.5c-.2 0-.4 0-.5-.2s-1.8-4.3-2.7-6.7-1.7-5.2-2.4-7.3c-.3 2-.7 5.4-1 6.9s-1.8 7.7-1.8 7.7a.5.5 0 0 1-.5.3c-.1-.1-.3-.3-.2-.4s1.2-5 1.8-7.8 1.2-8.3 1.2-8.4a.3.3 0 0 1 .3-.3z" fill="#1e1e1e"></path><path d="M768.5 66.7h.2c0 .1 0 .1-.2.6l-.5 1.1a3.4 3.4 0 0 1 .6 1.2.6.6 0 0 1-.1.7l-.4.3h-.6a.6.6 0 0 1-.3-.6 3.3 3.3 0 0 1 .4-1.4l-1-1.1h-.1c-.2.3-.5 1-.8 1.6a3.3 3.3 0 0 1 .6 1.2 1.1 1.1 0 0 1-.1.8l-.5.2c-.2.1-.3 0-.5-.1a1.1 1.1 0 0 1-.3-.7 4.3 4.3 0 0 1 .4-1.4l-1-1.3h-.1l-.7 1.1a4.1 4.1 0 0 1 .4 1.2.8.8 0 0 1-.3.8c-.1.2-.2.2-.3.2l-.5-.2c-.2-.2-.2-.5-.2-.9a3.4 3.4 0 0 1 .5-1.1l-1-1.2v-.3a.1.1 0 0 1 .1-.1h.3l.9 1.1.6-1c.1 0 .1-.1.1-.2s.1 0 .1-.1h.3l.2.3.9 1.1a7.6 7.6 0 0 1 .7-1.3.4.4 0 0 1 .1-.3.1.1 0 0 1 .1-.1h.3c0 .1 0 .1.1.1l.9 1 .5-1c.1-.1.1-.3.2-.3h.1zm-.6 3.6h.3a.6.6 0 0 0 .1-.4 4.1 4.1 0 0 0-.5-.9 3 3 0 0 0-.3 1.1l.2.3zm-4.6.5h.1a1.1 1.1 0 0 0 .2-.5 3.2 3.2 0 0 0-.3-.9 1.6 1.6 0 0 0-.3.8.4.4 0 0 0 .1.5.2.2 0 0 0 .2.2zm2.3.3h.3a.7.7 0 0 0 .1-.5 1.6 1.6 0 0 0-.5-.9 4.4 4.4 0 0 0-.2 1 .4.4 0 0 0 .2.4z" fill="#1e1e1e"></path><path d="M763.9 51.1a.9.9 0 0 1 .9.8l.3 3.6a.8.8 0 0 1-.8.9.8.8 0 0 1-.9-.8l-.3-3.5a.9.9 0 0 1 .8-1z" fill="#c8c8c8"></path><path d="M763.2 54.4l2-.2a1.7 1.7 0 0 1 1.8 1.3l.7 3.3c.2 1-.6.5-1.6.6l-2.9.3c-1 0-1.7.6-1.7-.4l.2-3.4a1.6 1.6 0 0 1 1.5-1.5z" fill="#c8c8c8"></path></g><g><path d="M516.1 68.8c-10.4.5-13.4-12.3-5.2-18.1 2.8-2 .5-2.8 4.1-3s1.7.9 4.5 2.6c8.3 5 7.1 17.9-3.4 18.5z" fill="#ffd336"></path><path d="M514.8 42.6c.2 0 .3.1.4.3s1.8 6.7 2.6 8.8 2.4 6.8 2.4 6.8 0 .4-.2.4-.3 0-.4-.2-1.7-4.3-2.5-6.8-1.6-5.2-2.2-7.3c-.3 2-.8 5.4-1.2 6.9s-2 7.6-2.1 7.6-.2.3-.4.3-.3-.3-.2-.4 1.4-5 2-7.7 1.5-8.3 1.5-8.4a.3.3 0 0 1 .3-.3z" fill="#1e1e1e"></path><path d="M518.7 56.3h.1a.1.1 0 0 1 .1.1c0 .1 0 .1-.2.5l-.6 1.1a4.5 4.5 0 0 1 .6 1.2 1.7 1.7 0 0 1-.1.7.5.5 0 0 1-.5.3h-.5a.6.6 0 0 1-.3-.6 2.3 2.3 0 0 1 .4-1.4l-1-1.1h-.1l-.8 1.5a3.6 3.6 0 0 1 .6 1.3c0 .3 0 .6-.2.7a.5.5 0 0 1-.5.3.5.5 0 0 1-.4-.2 1.1 1.1 0 0 1-.3-.7 4.3 4.3 0 0 1 .4-1.4l-1-1.3h-.1l-.7 1.1a3.4 3.4 0 0 1 .4 1.2 1.1 1.1 0 0 1-.3.8l-.4.2c-.2 0-.3-.1-.4-.3a.8.8 0 0 1-.2-.8 2.1 2.1 0 0 1 .5-1.1l-.9-1.3-.2-.3h.5a8.3 8.3 0 0 0 .8 1.2c.2-.4.5-.7.6-1s.2-.1.2-.2h.3l.2.3.9 1.2a9.1 9.1 0 0 1 .7-1.4c.1-.1.2-.2.2-.3h.3a.1.1 0 0 1 .1.1l.9 1 .6-1c0-.1.1-.2.1-.3h.2zm-.7 3.6h.3a.6.6 0 0 0 .1-.4 4.1 4.1 0 0 0-.5-.9 3.6 3.6 0 0 0-.3 1.1c0 .1.1.2.2.3zm-4.7.2h.1a.7.7 0 0 0 .3-.6l-.3-.8-.4.8a.7.7 0 0 0 .1.5zm2.4.4c.1 0 .2 0 .2-.1a.4.4 0 0 0 .1-.5 3.1 3.1 0 0 0-.4-.9 5.4 5.4 0 0 0-.3 1 1.1 1.1 0 0 0 .2.5z" fill="#1e1e1e"></path><path d="M514.5 40.5a1.1 1.1 0 0 1 1 .9l.2 3.5a.9.9 0 0 1-.9.9.8.8 0 0 1-.9-.8l-.2-3.5a1 1 0 0 1 .8-1z" fill="#c8c8c8"></path><path d="M513.8 43.8h2a1.6 1.6 0 0 1 1.7 1.3l.6 3.4c.2.9-.6.4-1.6.5h-2.9c-1 .1-1.7.6-1.7-.3l.3-3.4a1.6 1.6 0 0 1 1.6-1.5z" fill="#c8c8c8"></path></g><g><path d="M437.8 28.8c-10.4.4-13.2-12.5-4.9-18.1 2.9-2 .5-2.8 4.1-3s1.7 1 4.5 2.7c8.2 5.1 6.8 18.1-3.7 18.4z" fill="#ff4596"></path><path d="M436.9 2.6c.2 0 .3.1.4.3s1.7 6.7 2.4 8.9 2.4 6.8 2.4 6.8a.4.4 0 0 1-.2.5c-.2 0-.4 0-.5-.2s-1.5-4.4-2.3-6.9-1.5-5.2-2.1-7.3c-.3 2-.9 5.4-1.3 6.8s-2.2 7.6-2.2 7.6a.5.5 0 0 1-.4.3.5.5 0 0 1-.3-.5s1.5-4.9 2.2-7.6 1.6-8.3 1.6-8.4a.5.5 0 0 1 .3-.3z" fill="#1e1e1e"></path><path d="M440.6 16.4h.1a.1.1 0 0 0 .1.1c0 .1 0 .1-.2.5l-.6 1.1a3.5 3.5 0 0 1 .5 1.3.5.5 0 0 1-.1.6.5.5 0 0 1-.5.3h-.5a.9.9 0 0 1-.3-.6 6.3 6.3 0 0 1 .4-1.4l-.9-1.2v.2l-.8 1.5a3.1 3.1 0 0 1 .5 1.3.6.6 0 0 1-.2.7c-.1.2-.3.2-.5.2h-.4a1.1 1.1 0 0 1-.3-.8 4.6 4.6 0 0 1 .4-1.3l-.9-1.4h-.1l-.8 1a2.4 2.4 0 0 1 .4 1.2 1 1 0 0 1-.3.9h-.4c-.2 0-.3-.1-.4-.3a1.1 1.1 0 0 1-.2-.8l.5-1.1a11.7 11.7 0 0 1-.8-1.3c-.2-.2-.2-.2-.2-.3h.3a.1.1 0 0 1 .1.1 8.3 8.3 0 0 1 .8 1.2l.7-.9.2-.2c.1-.1.2-.1.2 0h.1c.1 0 .1.1.2.2a8.3 8.3 0 0 1 .8 1.2l.8-1.3.2-.3h.3a.1.1 0 0 1 .1.1l.9 1a3.1 3.1 0 0 0 .5-1c.1-.1.2-.2.2-.3h.2zm-.8 3.6a.1.1 0 0 1 .1-.1h.2a.6.6 0 0 0 .1-.4 3.6 3.6 0 0 0-.4-.9 1.7 1.7 0 0 0-.3 1.1.4.4 0 0 0 .1.3zm-4.6.1h.1a1.1 1.1 0 0 0 .2-.5 1.6 1.6 0 0 0-.3-.9 1.3 1.3 0 0 0-.3.8.4.4 0 0 0 .1.5c0 .1.1.1.2.1zm2.3.5h.3a.7.7 0 0 0 .1-.5 2.3 2.3 0 0 0-.4-.9 1.9 1.9 0 0 0-.3.9.7.7 0 0 0 .1.5z" fill="#1e1e1e"></path><path d="M436.7.6a.8.8 0 0 1 .9.8l.2 3.6a.9.9 0 0 1-.9.9.9.9 0 0 1-.9-.9l-.2-3.5a.9.9 0 0 1 .9-.9z" fill="#c8c8c8"></path><path d="M435.9 3.8h2a1.8 1.8 0 0 1 1.7 1.4l.5 3.4c.2.9-.6.4-1.6.5h-2.9c-1 .1-1.7.6-1.6-.3l.3-3.4a1.6 1.6 0 0 1 1.6-1.6z" fill="#c8c8c8"></path></g><g><path d="M437.7 73.8a349.6 349.6 0 0 1-85.2-11A442.3 442.3 0 0 1 283 38.5C243.9 21 219.2 3.3 218.9 3.1a.3.3 0 0 1 0-.4c.1-.1.3-.2.4-.1s24.9 17.9 64 35.3c36 16.2 92.1 35.4 154.4 35.4S556 54.1 592 37.9c39.1-17.4 63.8-35.1 64-35.3s.3 0 .4.1a.3.3 0 0 1 0 .4c-.3.2-25 17.9-64.1 35.4a442.3 442.3 0 0 1-69.5 24.3 349.4 349.4 0 0 1-85.1 11z" fill="#fff"></path><path d="M401.1 73.5a45.6 45.6 0 0 1-5.5-.3 80.2 80.2 0 0 1-15.8-3.6 86.7 86.7 0 0 0-15.7-3.6l-1.3-.2c-4-.5-11.5-1.4-13.4-3.4a7.9 7.9 0 0 1-1.2-1.5 6.3 6.3 0 0 0-2.3-2.3c-1.8-1-3.7-.3-5.8.5s-4.2 1.5-6.1.6a8.3 8.3 0 0 1-3-2.9 11.5 11.5 0 0 0-1.4-1.7c-2.8-2.9-7-2.7-11.4-2.5s-7.6.5-10.8-1.3a17.5 17.5 0 0 1-3.9-3.3 34.5 34.5 0 0 0-2.8-2.6c-3-2.2-6.9-2.8-10.6-3.4l-4.3-.8c-3.1-.8-4.7-3.1-6.3-5.5a18.5 18.5 0 0 0-4.1-4.7c-3.9-2.7-8.2-3.9-12.3-5s-8.1-2.2-11.9-4.6-8.1-4-12.5-5.5c-7.7-2.8-15.6-5.6-19.2-12.3-.1-.2 0-.4.1-.4a.2.2 0 0 1 .4.1c3.5 6.5 11.3 9.3 18.9 12 4.4 1.6 8.9 3.2 12.6 5.6a41 41 0 0 0 11.7 4.5c4.2 1.2 8.6 2.4 12.5 5.1a16.7 16.7 0 0 1 4.3 4.9c1.5 2.3 3 4.5 5.9 5.2l4.3.8c3.8.6 7.7 1.3 10.8 3.6a23.5 23.5 0 0 1 2.9 2.6 16.6 16.6 0 0 0 3.8 3.2c3 1.7 6.8 1.5 10.4 1.3s8.9-.5 12 2.6c.5.5.9 1.2 1.4 1.8a7.8 7.8 0 0 0 2.7 2.7c1.8.7 3.7.1 5.7-.7s4.3-1.5 6.3-.5a9.5 9.5 0 0 1 2.4 2.5l1.2 1.5c1.8 1.8 9.4 2.8 13.1 3.3h1.3A88.2 88.2 0 0 1 380 69a77.4 77.4 0 0 0 15.7 3.7c5.9.8 15.3-.2 24.5-1.1 6.3-.6 12.2-1.2 16.4-1.2a44.4 44.4 0 0 1 5.7.7 32 32 0 0 0 6.4.5 42.5 42.5 0 0 1 8 .7 37.9 37.9 0 0 0 9.5.5 96.5 96.5 0 0 0 15-3.8c6.2-2 12.1-3.9 19.5-4l4.6.4a30.7 30.7 0 0 0 6.4.4 33.3 33.3 0 0 0 6.7-1.8 143.5 143.5 0 0 0 14.4-5.8c4.5-1.9 9-3.9 14.6-5.8a55.1 55.1 0 0 1 7-1.5 58.2 58.2 0 0 0 8.6-2l1.5-.6a36.1 36.1 0 0 1 6.5-2.4l3.2-.6a18.9 18.9 0 0 0 6.2-1.6 21.8 21.8 0 0 0 3.8-3 19.7 19.7 0 0 1 4.3-3.3c2.3-1.1 4.8-1.1 7.3-1.2a23.2 23.2 0 0 0 5.9-.7 38.7 38.7 0 0 0 9.3-4.7l4.7-3.7c12.4-9.8 24.2-19.1 40-24.3.2-.1.4 0 .4.1s0 .4-.2.4c-15.7 5.2-27.4 14.5-39.9 24.3l-4.6 3.7a40.1 40.1 0 0 1-9.5 4.7 25.5 25.5 0 0 1-6.1.8 16.1 16.1 0 0 0-7 1.1 18.7 18.7 0 0 0-4.2 3.2 23.1 23.1 0 0 1-3.9 3.1 20.9 20.9 0 0 1-6.4 1.7l-3.2.6a37.7 37.7 0 0 0-6.4 2.3l-1.5.6a48.3 48.3 0 0 1-8.7 2.1 40.4 40.4 0 0 0-6.9 1.5 136.6 136.6 0 0 0-14.5 5.8c-4.5 1.9-9 4-14.6 5.8a37.7 37.7 0 0 1-6.8 1.8 32.3 32.3 0 0 1-6.5-.4 32 32 0 0 0-4.5-.5c-7.3.2-13.1 2-19.3 4a90 90 0 0 1-15.1 3.8 31.7 31.7 0 0 1-9.7-.5 51.2 51.2 0 0 0-7.8-.6 27 27 0 0 1-6.6-.6 31 31 0 0 0-5.6-.6c-4.1 0-10.1.6-16.3 1.2s-13.6 1.3-19.2 1.3z" fill="#fff"></path><path d="M252.4 49.6c-10.2-2.1-9.8-15.3-.5-18.8 3.3-1.2 1.3-2.6 4.8-1.9s1.4 1.3 3.7 3.7c6.7 6.9 2.3 19.1-8 17z" fill="#28dcc8"></path><path d="M257.8 23.9c.2.1.3.2.3.4s.1 6.9.2 9.2.7 7.2.7 7.2-.1.4-.3.4-.4-.1-.4-.3-.5-4.6-.7-7.2-.2-5.5-.2-7.7c-.8 1.9-2.2 5-2.9 6.3s-3.9 6.9-4 6.9-.3.3-.4.2a.4.4 0 0 1-.2-.5l4-6.9c1-1.9 3.5-7.7 3.5-7.8l.4-.2z" fill="#1e1e1e"></path><path d="M258.1 38.1c0 .1 0 .1.1.1 0 .1 0 .1-.3.5l-.9.9a3.5 3.5 0 0 1 .3 1.3.7.7 0 0 1-.3.6c-.1.2-.3.2-.5.2a.5.5 0 0 1-.5-.3.6.6 0 0 1-.1-.6 2.6 2.6 0 0 1 .7-1.2c-.2-.6-.5-1.1-.6-1.4h-.1l-1.2 1.3a2.6 2.6 0 0 1 .2 1.4.9.9 0 0 1-.3.7h-.6l-.4-.3a2.2 2.2 0 0 1-.1-.8 3.5 3.5 0 0 1 .8-1.2l-.6-1.5h-.1l-1 .8a3.1 3.1 0 0 1 .1 1.3.9.9 0 0 1-.5.7h-.4a.8.8 0 0 1-.4-.4.8.8 0 0 1 .1-.8 3 3 0 0 1 .7-1l-.5-1.4c-.1-.3-.1-.3-.1-.4h.1c.1-.1.2 0 .2.1a.1.1 0 0 1 .1.1 5.8 5.8 0 0 1 .5 1.4l.9-.8c.1-.1.2-.1.2-.2h.3v.2a.3.3 0 0 1 .1.2l.6 1.4 1-1.1.3-.3c.1-.1.2-.1.2 0a.1.1 0 0 1 .1.1.1.1 0 0 0 .1.1c.1.3.4.7.6 1.3l.7-.9.3-.3h.2zm-1.6 3.3a.1.1 0 0 0 .1.1h.2a.8.8 0 0 0 .2-.4 4.4 4.4 0 0 0-.2-1 6.4 6.4 0 0 0-.6 1 .4.4 0 0 0 .1.3h.2zm-4.6-.9h.1a1 1 0 0 0 .4-.5 3.4 3.4 0 0 0-.1-.9l-.5.7a.6.6 0 0 0 0 .6.1.1 0 0 0 .1.1zm2.2 1h.3a.8.8 0 0 0 .2-.5 5.8 5.8 0 0 0-.2-1l-.5.9a.5.5 0 0 0 0 .5z" fill="#1e1e1e"></path><path d="M258.1 21.9a.8.8 0 0 1 .6 1l-.7 3.5a.8.8 0 0 1-1 .7.9.9 0 0 1-.7-1.1l.7-3.4a.9.9 0 0 1 1-.7z" fill="#c8c8c8"></path><path d="M256.5 24.8l2 .4a1.7 1.7 0 0 1 1.3 1.8l-.3 3.3c0 1-.7.4-1.7.2l-2.8-.6c-1-.3-1.8.1-1.5-.8l1.1-3.2a1.6 1.6 0 0 1 1.9-1.1z" fill="#c8c8c8"></path><path d="M625.8 46.7c-10.4.6-13.3-12.3-5.2-18 2.9-2 .5-2.9 4.1-3s1.7.9 4.5 2.6c8.3 4.9 7.1 17.9-3.4 18.4z" fill="#ffd336"></path><path d="M624.5 20.6a.5.5 0 0 1 .4.2c0 .1 1.8 6.7 2.6 8.9s2.4 6.7 2.5 6.8a.8.8 0 0 1-.2.4.4.4 0 0 1-.5-.2l-2.5-6.8c-.5-1.5-1.6-5.2-2.2-7.3-.3 2-.8 5.4-1.2 6.8s-2 7.7-2 7.7a.5.5 0 0 1-.5.3.4.4 0 0 1-.2-.5s1.4-4.9 2-7.6 1.5-8.4 1.5-8.4a.3.3 0 0 1 .3-.3z" fill="#1e1e1e"></path><path d="M628.4 34.2h.1c0 .1.1.1.1.2l-.2.5a5.4 5.4 0 0 0-.6 1.1 3.4 3.4 0 0 1 .6 1.2.9.9 0 0 1-.1.7l-.5.3c-.2 0-.4 0-.5-.2a.5.5 0 0 1-.3-.5 3 3 0 0 1 .4-1.4l-1-1.2v.2a14.6 14.6 0 0 0-.9 1.5 3.6 3.6 0 0 1 .6 1.3.6.6 0 0 1-.2.7c-.1.2-.3.2-.5.3l-.4-.2a1.1 1.1 0 0 1-.3-.8 4.6 4.6 0 0 1 .4-1.3l-.9-1.3h-.2a4.9 4.9 0 0 1-.7 1.1 2.8 2.8 0 0 1 .4 1.2 1.1 1.1 0 0 1-.3.8c-.1.1-.3.2-.4.1a.5.5 0 0 1-.4-.2 1.1 1.1 0 0 1-.2-.8 3.4 3.4 0 0 1 .5-1.1 5.6 5.6 0 0 0-.9-1.4l-.2-.3a.1.1 0 0 0 .1-.1c.1-.1.2 0 .3.1h.1l.8 1.1.7-.9a.3.3 0 0 1 .1-.2h.4c0 .1.1.2.1.3l.9 1.1.7-1.3.2-.3a.1.1 0 0 1 .1-.1.1.1 0 0 1 .2 0h.1l1 1a4.7 4.7 0 0 1 .5-1 1 1 0 0 1 .1-.3.1.1 0 0 0 .1-.1zm-.7 3.6h.3a.6.6 0 0 0 .1-.4 4.1 4.1 0 0 0-.5-.9 6.1 6.1 0 0 0-.3 1.1c0 .1.1.2.2.3zm-4.6.3h.1a.8.8 0 0 0 .2-.5 4.7 4.7 0 0 0-.3-.9 5.9 5.9 0 0 0-.4.8 1.1 1.1 0 0 0 .2.6h.2zm2.3.4h.3a.7.7 0 0 0 .1-.5 2.8 2.8 0 0 0-.5-.9l-.3 1c.1.1.1.3.2.4z" fill="#1e1e1e"></path><path d="M624.3 18.5a.9.9 0 0 1 .9.8l.2 3.6a.9.9 0 0 1-.8.9h-.1a.9.9 0 0 1-.9-.8l-.2-3.6a.9.9 0 0 1 .8-.9z" fill="#c8c8c8"></path><path d="M623.5 21.7h2a1.7 1.7 0 0 1 1.7 1.4l.6 3.3c.2 1-.6.5-1.6.5l-2.9.2c-1 0-1.7.6-1.6-.4l.2-3.4a1.8 1.8 0 0 1 1.6-1.6z" fill="#c8c8c8"></path><g><path d="M395.7 96.3c-10.2-2.1-10-15.2-.7-18.8 3.3-1.3 1.2-2.7 4.7-2s1.4 1.3 3.8 3.7c6.8 6.8 2.5 19.1-7.8 17.1z" fill="#28dcc8"></path><path d="M400.8 70.5c.1.1.3.2.3.4s.1 6.9.3 9.2.8 7.1.8 7.2-.1.4-.3.4-.4-.1-.4-.3-.6-4.6-.8-7.2-.2-5.5-.3-7.7l-2.8 6.4-3.9 6.9a.4.4 0 0 1-.5.2.3.3 0 0 1-.1-.5c0-.1 2.5-4.4 3.8-7s3.5-7.7 3.5-7.7.2-.3.4-.3z" fill="#1e1e1e"></path><path d="M401.2 84.7h.2l-.4.5-.8.9a3.5 3.5 0 0 1 .3 1.3.7.7 0 0 1-.3.6c-.1.2-.3.2-.5.2l-.5-.2a1.4 1.4 0 0 1-.2-.6 3.8 3.8 0 0 1 .8-1.3 3.7 3.7 0 0 0-.7-1.3h-.1l-1.2 1.3a5 5 0 0 1 .3 1.4 1.1 1.1 0 0 1-.3.7h-.6c-.2 0-.3-.1-.4-.3a1.9 1.9 0 0 1-.1-.8 4.9 4.9 0 0 1 .7-1.1 9.1 9.1 0 0 0-.6-1.6h-.1l-.9.9a3 3 0 0 1 .1 1.3l-.5.7h-.4c-.2 0-.3-.2-.4-.3a1.4 1.4 0 0 1 0-.9 3.2 3.2 0 0 1 .8-.9c-.2-.6-.5-1.2-.6-1.5s-.1-.2-.1-.3h.4a6.9 6.9 0 0 1 .5 1.3l.9-.7.2-.2h.1c.1 0 .2 0 .2.1h.1a.4.4 0 0 0 .1.3c.2.4.3.9.5 1.3l1.1-1.1.2-.2h.4a8.1 8.1 0 0 1 .6 1.8l.8-.9c.1-.1.2-.2.2-.3h.2zm-1.5 3.4h.3a.8.8 0 0 0 .2-.4 1.6 1.6 0 0 0-.3-.9 2.8 2.8 0 0 0-.5.9c0 .1 0 .3.1.3zm-4.6-.9h.1a.5.5 0 0 0 .3-.5 1.4 1.4 0 0 0 0-.9 1 1 0 0 0-.5.7 1.1 1.1 0 0 0-.1.5.2.2 0 0 0 .2.2zm2.2 1h.3l.2-.4a5.8 5.8 0 0 0-.2-1 1.5 1.5 0 0 0-.5.8.6.6 0 0 0 0 .6z" fill="#1e1e1e"></path><path d="M401 68.5a.8.8 0 0 1 .7 1l-.6 3.5a.9.9 0 0 1-1.1.7.9.9 0 0 1-.7-1l.7-3.5a.8.8 0 0 1 1-.7z" fill="#c8c8c8"></path><path d="M399.5 71.4l2 .4a1.6 1.6 0 0 1 1.3 1.7l-.2 3.4c-.1 1-.7.3-1.7.2l-2.9-.6c-.9-.2-1.8.2-1.5-.8l1.1-3.2a1.8 1.8 0 0 1 1.9-1.1z" fill="#c8c8c8"></path></g><g><path d="M492 92.5c-10.2 2.1-15-10.2-7.8-17.1 2.6-2.4.1-2.8 3.6-3.5s1.8.6 4.9 1.9c8.9 3.7 9.6 16.7-.7 18.7z" fill="#ff4596"></path><path d="M486.9 66.8a.5.5 0 0 1 .4.2c0 .1 2.8 6.4 3.9 8.4s3.4 6.3 3.4 6.4 0 .4-.1.5a.4.4 0 0 1-.5-.2s-2.3-4-3.5-6.3l-3.2-7c0 2.1-.1 5.5-.2 7s-.9 7.8-.9 7.9-.2.3-.4.3-.3-.2-.3-.4.6-5.1.9-7.9.2-8.5.2-8.5.1-.3.3-.4z" fill="#1e1e1e"></path><path d="M492.7 79.8h.1c.1 0 .1 0 .1.1s.1.1-.1.5l-.4 1.2.8 1.1c0 .2.1.5-.1.7s-.2.3-.4.4h-.5a.7.7 0 0 1-.4-.5 2.6 2.6 0 0 1 .2-1.4 8.2 8.2 0 0 0-1.1-1h-.1c-.1.4-.4 1-.6 1.6a4.9 4.9 0 0 1 .8 1.2 1.1 1.1 0 0 1-.1.8.5.5 0 0 1-.5.3h-.4a1.3 1.3 0 0 1-.4-.7 11.5 11.5 0 0 1 .2-1.4l-1.1-1.2h-.1a6.7 6.7 0 0 0-.6 1.2 4.1 4.1 0 0 1 .6 1.1 1.9 1.9 0 0 1-.2.8.4.4 0 0 1-.4.2c-.2.1-.3 0-.5-.1a1.1 1.1 0 0 1-.3-.8 3.4 3.4 0 0 1 .4-1.2l-1.1-1.1-.2-.3a.1.1 0 0 1 .1-.1h.4l.9 1.1.5-1.1.2-.2h.3c.1 0 .1.1.2.2a9.4 9.4 0 0 1 1 1 9.8 9.8 0 0 1 .6-1.4.4.4 0 0 1 .1-.3h.3c0 .1 0 .1.1.1h.1l1 .9a4.9 4.9 0 0 1 .4-1.1V80h.1zm-.1 3.7h.2c.1-.2.1-.3 0-.4a4.1 4.1 0 0 0-.5-.9 8.9 8.9 0 0 0-.2 1.1c.1.2.1.3.2.3zm-4.6.9h.1c.1-.1.2-.4.1-.5a1.8 1.8 0 0 0-.4-.9 3.7 3.7 0 0 0-.2.9.8.8 0 0 0 .2.5c0 .1.1.1.2.1zm2.4.1c.1-.1.2-.1.2-.2a.7.7 0 0 0 .1-.5l-.6-.8a4.4 4.4 0 0 0-.2 1l.3.4z" fill="#1e1e1e"></path><path d="M486.4 64.8a.9.9 0 0 1 1 .7l.7 3.5a.8.8 0 0 1-.7 1 .8.8 0 0 1-1-.7l-.7-3.4a.9.9 0 0 1 .6-1.1z" fill="#c8c8c8"></path><path d="M486.1 68.1l2-.4a1.6 1.6 0 0 1 1.8 1.1l1.1 3.3c.3.9-.5.5-1.5.7l-2.9.6c-.9.2-1.6.8-1.6-.2l-.3-3.4a1.8 1.8 0 0 1 1.4-1.7z" fill="#c8c8c8"></path></g><g><path d="M217.8 29.6c-10.4-.2-12.5-13.2-4-18.4 3-1.8.7-2.8 4.3-2.7s1.6 1 4.4 2.9c7.9 5.5 5.8 18.4-4.7 18.2z" fill="#ff4596"></path><path d="M218.3 3.4c.2 0 .3.1.4.3s1.3 6.8 1.9 9l2 6.9a.4.4 0 0 1-.2.5c-.2 0-.4-.1-.4-.3s-1.4-4.4-2.1-6.9-1.2-5.3-1.6-7.5c-.5 2-1.3 5.3-1.7 6.8s-2.6 7.4-2.6 7.5-.3.3-.4.2a.5.5 0 0 1-.3-.5c.1 0 1.8-4.8 2.6-7.5s2-8.2 2.1-8.2a.3.3 0 0 1 .3-.3z" fill="#1e1e1e"></path><path d="M221.2 17.3h.2c0 .1 0 .1-.2.5l-.7 1.1a2.4 2.4 0 0 1 .5 1.3c.1.1 0 .4-.1.6s-.3.3-.5.3l-.6-.2a.8.8 0 0 1-.2-.6 3.9 3.9 0 0 1 .5-1.4 5.9 5.9 0 0 0-.9-1.1h-.1l-.9 1.4a3.4 3.4 0 0 1 .5 1.4 1.4 1.4 0 0 1-.2.7l-.6.2-.4-.2a1.1 1.1 0 0 1-.2-.8 3.1 3.1 0 0 1 .5-1.3l-.9-1.4h-.1l-.8 1a3 3 0 0 1 .3 1.2.9.9 0 0 1-.4.8h-.3a.5.5 0 0 1-.5-.3 1.9 1.9 0 0 1-.1-.8 4.1 4.1 0 0 1 .6-1.1l-.8-1.3c-.1-.2-.2-.2-.1-.3h.4l.7 1.2a2.8 2.8 0 0 0 .7-.9.2.2 0 0 0 .2-.2h.1c0-.1.1-.1.2 0h.1v.2l.8 1.3.8-1.3.2-.3a.1.1 0 0 1 .1-.1h.3a5.9 5.9 0 0 1 .9 1.1l.6-1 .2-.3h.1zm-.9 3.5h.3a.6.6 0 0 0 .1-.4 3.6 3.6 0 0 0-.4-.9 3.4 3.4 0 0 0-.4 1c0 .2.1.3.2.3h.2zm-4.7 0a.1.1 0 0 0 .1-.1.5.5 0 0 0 .3-.5 3.7 3.7 0 0 0-.2-.9 2 2 0 0 0-.4.8.4.4 0 0 0 0 .5l.2.2zm2.3.5h.3c.1-.1.2-.2.1-.4a2.6 2.6 0 0 0-.3-1l-.4 1 .2.5z" fill="#1e1e1e"></path><path d="M218.2 1.3a.9.9 0 0 1 .9.9v3.5a.9.9 0 0 1-.9.9.9.9 0 0 1-.9-.9V2.2a.9.9 0 0 1 .9-.9z" fill="#c8c8c8"></path><path d="M217.2 4.5h2a1.6 1.6 0 0 1 1.6 1.5l.4 3.4c.1.9-.6.4-1.6.4h-2.9c-1 0-1.8.5-1.7-.5l.6-3.3a1.6 1.6 0 0 1 1.6-1.5z" fill="#c8c8c8"></path></g><g><path d="M445.9 98c-10.4.7-13.6-12-5.5-17.9 2.8-2.1.4-2.9 4-3.1s1.7.9 4.6 2.5c8.3 4.9 7.3 17.9-3.1 18.5z" fill="#ffd336"></path><path d="M444.2 71.9l.3.2c0 .1 2 6.7 2.8 8.9s2.5 6.7 2.5 6.7a.4.4 0 0 1-.2.5l-.4-.2c0-.1-1.7-4.3-2.6-6.8s-1.7-5.2-2.3-7.3c-.3 2-.8 5.4-1.1 6.9s-1.9 7.6-1.9 7.7a.4.4 0 0 1-.5.2c-.2 0-.3-.2-.2-.4s1.3-4.9 1.9-7.7 1.3-8.3 1.3-8.4a.3.3 0 0 1 .3-.3z" fill="#1e1e1e"></path><path d="M448.3 85.5h.1c.1.1.1.1-.2.5l-.5 1.2a3.4 3.4 0 0 1 .6 1.2.7.7 0 0 1-.1.6.5.5 0 0 1-.5.3.4.4 0 0 1-.5-.1.5.5 0 0 1-.3-.5 2.4 2.4 0 0 1 .4-1.5l-1-1.1v.2l-.8 1.5a3.6 3.6 0 0 1 .6 1.3.6.6 0 0 1-.2.7.5.5 0 0 1-.5.3l-.4-.2a1.1 1.1 0 0 1-.3-.7 4.3 4.3 0 0 1 .4-1.4l-1-1.3h-.1a4.3 4.3 0 0 0-.7 1 4.1 4.1 0 0 1 .4 1.2c0 .3-.1.7-.3.8a.4.4 0 0 1-.4.2l-.4-.2c-.2-.2-.2-.5-.2-.9a2.1 2.1 0 0 1 .5-1.1l-.9-1.2c-.2-.2-.2-.2-.2-.3h.3c0 .1.1.1.1.2l.9 1.1.6-1 .2-.2h.3c0 .1.1.2.2.3l.9 1.2a6 6 0 0 1 .7-1.4c.1-.1.1-.3.2-.3h.2c.1 0 .1 0 .1.1h.1a4.7 4.7 0 0 1 .9 1 4.7 4.7 0 0 0 .5-1c.1-.2.2-.3.2-.4h.2zm-.7 3.6h.1c.1 0 .1-.1.2-.2a.4.4 0 0 0 .1-.3 4.1 4.1 0 0 0-.5-.9 2.6 2.6 0 0 0-.3 1c0 .2.1.3.2.3zm-4.6.3h.1a1.1 1.1 0 0 0 .2-.6 4.1 4.1 0 0 0-.3-.8 5.9 5.9 0 0 0-.4.8.8.8 0 0 0 .2.5.1.1 0 0 0 .1.1zm2.3.4h.3a.7.7 0 0 0 .1-.5 4.4 4.4 0 0 0-.5-.9 4.4 4.4 0 0 0-.2 1c0 .1 0 .4.1.5z" fill="#1e1e1e"></path><path d="M443.9 69.8a1 1 0 0 1 .9.8l.2 3.6a.8.8 0 0 1-.8.9.8.8 0 0 1-.9-.8l-.3-3.5a1.1 1.1 0 0 1 .8-1z" fill="#c8c8c8"></path><path d="M443.1 73.1l2.1-.2a1.8 1.8 0 0 1 1.7 1.4l.6 3.3c.2 1-.6.5-1.5.6h-3c-.9.1-1.7.7-1.6-.3l.2-3.4a1.6 1.6 0 0 1 1.5-1.4z" fill="#c8c8c8"></path></g><g><path d="M596.4 62.6c-10.3.7-13.5-12.1-5.4-18 2.8-2 .5-2.8 4.1-3.1s1.6.9 4.5 2.6c8.3 4.8 7.3 17.8-3.2 18.5z" fill="#28dcc8"></path><path d="M594.8 36.4c.2 0 .3.1.4.3s1.9 6.7 2.7 8.8l2.5 6.8c.1.2 0 .4-.2.4s-.3 0-.4-.2-1.7-4.2-2.6-6.7-1.6-5.2-2.3-7.3c-.2 2-.8 5.4-1.1 6.8s-1.9 7.7-1.9 7.7a.5.5 0 0 1-.5.3.4.4 0 0 1-.2-.5s1.3-4.9 1.9-7.6 1.4-8.4 1.4-8.4.1-.3.3-.4z" fill="#1e1e1e"></path><path d="M598.9 50.1h.1c.1.1.1.1-.2.5l-.5 1.2a3 3 0 0 1 .6 1.1.9.9 0 0 1-.1.7.5.5 0 0 1-.5.3h-.5a.6.6 0 0 1-.3-.6 2.3 2.3 0 0 1 .4-1.4l-1-1.1h-.1l-.8 1.6a3.3 3.3 0 0 1 .6 1.2.8.8 0 0 1-.2.8l-.5.2h-.4a1.1 1.1 0 0 1-.3-.8 4.6 4.6 0 0 1 .4-1.3l-1-1.3h-.1a5.2 5.2 0 0 0-.7 1.1 2.8 2.8 0 0 1 .4 1.2 1.1 1.1 0 0 1-.3.8c-.1.1-.3.2-.4.1a.5.5 0 0 1-.4-.2.8.8 0 0 1-.2-.8 2.1 2.1 0 0 1 .5-1.1 6.1 6.1 0 0 1-.9-1.3c-.2-.2-.2-.2-.2-.3a.1.1 0 0 1 .1-.1c.1 0 .2 0 .2.1.1 0 .1 0 .1.1l.9 1.1.6-.9c.1-.1.1-.2.2-.2h.2a.1.1 0 0 1 .1.1l.2.2.9 1.2.7-1.4c.1-.1.1-.2.2-.2h.3a.1.1 0 0 0 .1.1l.9 1a3.1 3.1 0 0 0 .5-1l.2-.3c0-.4.1-.4.2-.4zm-.7 3.6h.1l.2-.2a.6.6 0 0 0 .1-.4 4.1 4.1 0 0 0-.5-.9 3.6 3.6 0 0 0-.3 1.1c0 .1.1.2.2.3s.1.1.2.1zm-4.6.3h.1a.8.8 0 0 0 .2-.5 4.7 4.7 0 0 0-.3-.9 5.9 5.9 0 0 0-.4.8 1.1 1.1 0 0 0 .2.6h.2zm2.3.4h.3a.9.9 0 0 0 .1-.5 4.5 4.5 0 0 0-.5-1 6.2 6.2 0 0 1-.3 1c.1.2.1.4.2.5z" fill="#1e1e1e"></path><path d="M594.5 34.4a.8.8 0 0 1 .9.8l.3 3.5a.9.9 0 0 1-.8 1 1 1 0 0 1-1-.8l-.2-3.6a.8.8 0 0 1 .8-.9z" fill="#c8c8c8"></path><path d="M593.8 37.6h2a1.6 1.6 0 0 1 1.7 1.3l.7 3.4c.2.9-.6.4-1.6.5l-2.9.2c-1 .1-1.7.6-1.7-.4l.3-3.4a1.6 1.6 0 0 1 1.5-1.6z" fill="#c8c8c8"></path></g><g><path d="M658.7 28.2c-10.3.8-13.7-11.9-5.7-17.9 2.8-2.1.4-2.9 4-3.1s1.7.8 4.6 2.4c8.4 4.7 7.6 17.7-2.9 18.6z" fill="#ff4596"></path><path d="M656.6 2.1c.2-.1.3 0 .4.2s2.1 6.7 2.9 8.8 2.6 6.6 2.7 6.7-.1.4-.2.4a.4.4 0 0 1-.5-.1c0-.1-1.8-4.3-2.7-6.8s-1.7-5.1-2.4-7.2c-.3 2-.7 5.4-1 6.9s-1.8 7.6-1.8 7.7a.5.5 0 0 1-.4.3c-.2-.1-.4-.3-.3-.5s1.2-4.9 1.8-7.7 1.2-8.4 1.2-8.4a.3.3 0 0 1 .3-.3z" fill="#1e1e1e"></path><path d="M660.9 15.6h.2c0 .1 0 .1-.2.5l-.5 1.2a3.4 3.4 0 0 1 .6 1.2.5.5 0 0 1-.1.6c-.1.2-.2.3-.4.3a.5.5 0 0 1-.6-.1.5.5 0 0 1-.3-.5 3.3 3.3 0 0 1 .4-1.4l-1-1.1h-.1l-.8 1.5a8.8 8.8 0 0 1 .7 1.3 1.9 1.9 0 0 1-.2.8l-.5.2h-.5a1.1 1.1 0 0 1-.3-.8 4.6 4.6 0 0 1 .4-1.3l-1-1.3h-.1l-.7 1.1.5 1.2a1.2 1.2 0 0 1-.4.8l-.3.2a.5.5 0 0 1-.5-.3 1.9 1.9 0 0 1-.2-.8 3.4 3.4 0 0 1 .5-1.1l-1-1.2v-.3c0-.1 0-.1.1-.1h.2c0 .1.1.1.1.2l.9 1.1.6-1v-.2a.1.1 0 0 0 .1-.1h.2a.1.1 0 0 1 .1.1.2.2 0 0 0 .2.2l.9 1.2.7-1.4a.4.4 0 0 0 .1-.3h.4a.1.1 0 0 0 .1.1l.9 1c.2-.3.3-.7.5-1s.2-.3.2-.4h.1zm-.6 3.6h.3a.8.8 0 0 0 .1-.4 4.1 4.1 0 0 0-.5-.9 6.1 6.1 0 0 0-.3 1.1l.2.3zm-4.6.4h.1a1.4 1.4 0 0 0 .2-.6 1.6 1.6 0 0 0-.3-.8 1.3 1.3 0 0 0-.3.8.4.4 0 0 0 .1.5c0 .1.1.1.2.1zm2.3.4c.2 0 .3-.1.3-.2s.1-.2.1-.4a1.9 1.9 0 0 0-.5-1 5.8 5.8 0 0 0-.2 1 .8.8 0 0 0 .2.5.1.1 0 0 0 .1.1z" fill="#1e1e1e"></path><path d="M656.3 0a.8.8 0 0 1 .9.8l.4 3.5a1 1 0 0 1-.8 1h-.1a.9.9 0 0 1-.9-.8l-.3-3.5a.8.8 0 0 1 .8-1z" fill="#c8c8c8"></path><path d="M655.6 3.3l2-.2a1.7 1.7 0 0 1 1.8 1.3l.7 3.3c.2 1-.6.5-1.6.6l-2.9.2c-1 .1-1.7.7-1.6-.3V4.8a1.6 1.6 0 0 1 1.6-1.5z" fill="#c8c8c8"></path></g><g><path d="M297.3 69.6c-10.4.5-13.4-12.3-5.2-18.1 2.8-2 .5-2.8 4.1-3s1.6.9 4.5 2.6c8.2 5 7.1 18-3.4 18.5z" fill="#ffd336"></path><path d="M296 43.4a.3.3 0 0 1 .3.3s1.9 6.7 2.6 8.8l2.5 6.8a.4.4 0 0 1-.2.5c-.2 0-.4-.1-.4-.2s-1.7-4.3-2.5-6.8-1.6-5.3-2.2-7.4c-.3 2-.9 5.4-1.2 6.9s-2.1 7.6-2.1 7.7a.3.3 0 0 1-.4.2.5.5 0 0 1-.3-.4c.1-.1 1.4-4.9 2.1-7.7s1.4-8.3 1.4-8.4.2-.3.4-.3z" fill="#1e1e1e"></path><path d="M299.9 57.1h.1c.1.1.1.1-.2.5l-.5 1.2a4.5 4.5 0 0 1 .6 1.2.8.8 0 0 1-.2.6c-.1.2-.2.3-.4.3h-.6l-.3-.6a6.3 6.3 0 0 1 .4-1.4 5.9 5.9 0 0 0-.9-1.1h-.1l-.8 1.5a6.9 6.9 0 0 1 .6 1.3 1.9 1.9 0 0 1-.2.8l-.5.2c-.2 0-.4 0-.5-.2a1.1 1.1 0 0 1-.3-.7 4.3 4.3 0 0 1 .5-1.3l-1-1.4h-.1l-.8 1a2.8 2.8 0 0 1 .5 1.2 1 1 0 0 1-.4.8c-.1.2-.2.2-.3.2a.5.5 0 0 1-.5-.3 1.9 1.9 0 0 1-.2-.8l.5-1.1-.8-1.2c-.2-.2-.2-.3-.2-.3s0-.1.1-.2.2 0 .2.1h.1a8.3 8.3 0 0 1 .8 1.2l.7-1c.1 0 .1-.1.2-.2s.2-.1.2 0 .1 0 .1.1l.2.2a8.3 8.3 0 0 1 .8 1.2l.8-1.4.2-.3h.4l.9 1 .5-1 .2-.3c0 .2.1.2.2.2zm-.7 3.6l.3-.2v-.4a2.3 2.3 0 0 0-.4-.9 3.6 3.6 0 0 0-.3 1.1c0 .1.1.2.1.3zm-4.7.2h.1a1.1 1.1 0 0 0 .2-.6 1.6 1.6 0 0 0-.3-.8c-.1.3-.3.5-.3.8a.7.7 0 0 0 .1.5c0 .1.1.1.2.1zm2.3.4h.3c.1-.1.1-.2.1-.4a2.6 2.6 0 0 0-.4-1 2.2 2.2 0 0 0-.3 1 .8.8 0 0 0 .2.5z" fill="#1e1e1e"></path><path d="M295.7 41.3a.9.9 0 0 1 .9.9l.2 3.5a.8.8 0 0 1-.8.9.8.8 0 0 1-.9-.8l-.2-3.5a.9.9 0 0 1 .8-1z" fill="#c8c8c8"></path><path d="M294.9 44.6h2.1a1.6 1.6 0 0 1 1.7 1.3l.6 3.4c.2.9-.6.4-1.6.5h-2.9c-1 .1-1.8.7-1.7-.3l.3-3.4a1.6 1.6 0 0 1 1.5-1.5z" fill="#c8c8c8"></path></g></g><g><path d="M875.3 72.5h-.4c-62.3 0-118.3-19.2-154.4-35.3-39-17.4-63.7-35.1-64-35.3a.2.2 0 0 0-.4.1c-.1.1 0 .3.1.4s25 17.9 64.1 35.3A419.6 419.6 0 0 0 789.8 62a344.2 344.2 0 0 0 85.1 11.1h.4z" fill="#fff"></path><path d="M875.2 69.8h-1.3a137.2 137.2 0 0 0-16.4 1.2c-9.2.9-18.7 1.8-24.5 1a80.2 80.2 0 0 1-15.8-3.6 86.1 86.1 0 0 0-15.8-3.6l-1.2-.2c-3.7-.4-11.4-1.4-13.1-3.3a8.1 8.1 0 0 1-1.2-1.4 7.5 7.5 0 0 0-2.5-2.5c-1.9-1-4.1-.2-6.2.5s-4 1.4-5.7.6a7.2 7.2 0 0 1-2.8-2.7 11.5 11.5 0 0 0-1.4-1.7c-3-3.2-7.5-2.9-11.9-2.7s-7.4.4-10.4-1.2a17.5 17.5 0 0 1-3.9-3.3 34.5 34.5 0 0 0-2.8-2.6c-3.2-2.2-7.1-2.9-10.8-3.5l-4.4-.8c-2.8-.7-4.3-2.9-5.9-5.3a18.1 18.1 0 0 0-4.3-4.9c-3.8-2.6-8.2-3.8-12.4-5s-8-2.2-11.7-4.6a63.2 63.2 0 0 0-12.7-5.5c-7.5-2.7-15.3-5.5-18.9-12.1 0-.1-.2-.1-.3-.1a.4.4 0 0 0-.2.4c3.7 6.8 11.6 9.6 19.2 12.3 4.4 1.6 8.9 3.2 12.6 5.5s7.9 3.6 11.9 4.7 8.4 2.3 12.2 4.9a16.5 16.5 0 0 1 4.1 4.7c1.7 2.5 3.2 4.8 6.3 5.5a31.1 31.1 0 0 0 4.4.8c3.7.7 7.5 1.3 10.5 3.5a22.7 22.7 0 0 1 2.8 2.6 21.3 21.3 0 0 0 4 3.3c3.2 1.7 7 1.5 10.7 1.3s8.7-.5 11.5 2.5c.5.5.9 1.1 1.4 1.7a8.1 8.1 0 0 0 2.9 2.9c2 .8 4.1.1 6.2-.7s4-1.4 5.8-.5a8.1 8.1 0 0 1 2.2 2.3l1.2 1.5c2 2 9.5 3 13.5 3.5l1.2.2a73.5 73.5 0 0 1 15.8 3.6 86.1 86.1 0 0 0 15.8 3.6 44.4 44.4 0 0 0 5.5.3c5.5 0 12.4-.7 19.1-1.4a160 160 0 0 1 16.4-1.1h1.3z" fill="#fff"></path><path d="M689.7 48.9c-10.2-2.2-9.8-15.3-.5-18.8 3.3-1.2 1.2-2.7 4.7-1.9s1.4 1.3 3.7 3.6c6.8 6.9 2.3 19.2-7.9 17.1z" fill="#28dcc8"></path><path d="M695.1 23.2c.1 0 .2.2.2.3s.1 7 .3 9.3.7 7.1.7 7.2-.1.3-.3.4a.4.4 0 0 1-.4-.4s-.5-4.5-.7-7.2-.2-5.4-.2-7.6c-.9 1.9-2.3 5-3 6.3s-3.9 6.9-3.9 6.9-.3.2-.5.1a.2.2 0 0 1-.1-.4c0-.1 2.6-4.4 3.9-6.9s3.5-7.7 3.6-7.8l.3-.2z" fill="#1e1e1e"></path><path d="M695.3 37.4c.1 0 .1 0 .1.1s.1 0 .1.1 0 .1-.3.4a4.5 4.5 0 0 0-.9 1 3.1 3.1 0 0 1 .3 1.3.9.9 0 0 1-.3.6l-.5.2c-.2-.1-.4-.1-.5-.3a1.1 1.1 0 0 1-.2-.6 5.1 5.1 0 0 1 .8-1.3 7.6 7.6 0 0 0-.7-1.3h-.1l-1.2 1.4a3.9 3.9 0 0 1 .3 1.4.7.7 0 0 1-.4.6.4.4 0 0 1-.5.1l-.4-.2a.8.8 0 0 1-.1-.8 3.7 3.7 0 0 1 .7-1.2l-.5-1.6h-.1a3.5 3.5 0 0 0-1 .8 3 3 0 0 1 .1 1.3 1.8 1.8 0 0 1-.5.7c-.2 0-.3.1-.5 0s-.2-.2-.3-.3a1.4 1.4 0 0 1 0-.9l.8-.9a7.7 7.7 0 0 0-.6-1.5c-.1-.2-.1-.2 0-.3a.1.1 0 0 1 .1-.1c.1 0 .2 0 .2.1h.1a6.9 6.9 0 0 0 .5 1.3l.8-.7.2-.2h.4a.4.4 0 0 0 .1.3 7.8 7.8 0 0 1 .5 1.4l1.1-1.2.2-.2a.1.1 0 0 0 .1-.1h.3a9.7 9.7 0 0 1 .7 1.2l.7-.8c.1-.1.2-.2.2-.3h.1a.1.1 0 0 1 .1.5zm-1.5 3.3h.3a.4.4 0 0 0 .1-.3 1.3 1.3 0 0 0-.2-1c-.2.4-.5.7-.5 1a.4.4 0 0 0 .1.3h.2zm-4.6-.9h.1a.9.9 0 0 0 .3-.5 1.4 1.4 0 0 0 0-.9 1 1 0 0 0-.5.7 1.1 1.1 0 0 0-.1.5.2.2 0 0 0 .2.2zm2.1 1h.3c.1 0 .2-.2.3-.4a5.8 5.8 0 0 0-.2-1 2.4 2.4 0 0 0-.6.9 1.1 1.1 0 0 0 .1.5z" fill="#1e1e1e"></path><path d="M695.3 21.1a.9.9 0 0 1 .7 1.1l-.7 3.5a.9.9 0 0 1-1 .6.8.8 0 0 1-.7-1l.7-3.5a.8.8 0 0 1 1-.7z" fill="#c8c8c8"></path><path d="M693.8 24.1l1.9.4a1.6 1.6 0 0 1 1.3 1.7l-.2 3.4c-.1 1-.7.3-1.7.1l-2.8-.6c-1-.2-1.9.2-1.6-.8l1.2-3.2a1.7 1.7 0 0 1 1.9-1z" fill="#c8c8c8"></path><g><path d="M854.3 98.1c-10.4.7-13.7-12-5.7-18 2.8-2 .4-2.8 4-3.1s1.7.9 4.6 2.5c8.4 4.8 7.5 17.8-2.9 18.6z" fill="#ff4596"></path><path d="M852.3 71.9c.2 0 .3.1.4.3s2 6.6 2.8 8.8 2.6 6.6 2.6 6.7 0 .4-.1.4a.4.4 0 0 1-.5-.2s-1.8-4.2-2.7-6.7-1.7-5.2-2.3-7.3c-.3 2.1-.7 5.5-1.1 6.9s-1.8 7.7-1.8 7.7a.5.5 0 0 1-.5.3c-.2-.1-.3-.3-.2-.4s1.3-5 1.9-7.7 1.2-8.4 1.2-8.5a.5.5 0 0 1 .3-.3z" fill="#1e1e1e"></path><path d="M856.5 85.5h.2c0 .1 0 .1-.2.5l-.5 1.2a3.4 3.4 0 0 1 .6 1.2c.1.1 0 .4-.1.6a.5.5 0 0 1-.4.3.6.6 0 0 1-.6-.1.5.5 0 0 1-.3-.5 3.4 3.4 0 0 1 .4-1.5l-1-1.1v.2l-.8 1.5a3.6 3.6 0 0 1 .6 1.3.8.8 0 0 1-.1.7.7.7 0 0 1-.6.3l-.4-.2a1.1 1.1 0 0 1-.3-.7 5.1 5.1 0 0 1 .4-1.4l-1-1.3h-.1a3.5 3.5 0 0 0-.7 1.1 2.8 2.8 0 0 1 .4 1.2 1.3 1.3 0 0 1-.3.8h-.4l-.4-.2a1.1 1.1 0 0 1-.2-.8 3.4 3.4 0 0 1 .5-1.1l-1-1.3c-.1-.2-.1-.2-.1-.3h.3a.1.1 0 0 1 .1.1l.9 1.1.6-.9c.1-.1.1-.2.2-.2h.2c.1 0 .1 0 .1.1l.2.2.9 1.2a6 6 0 0 1 .7-1.4.5.5 0 0 0 .1-.3.1.1 0 0 0 .1-.1h.2c.1 0 .1 0 .1.1h.1a4.7 4.7 0 0 1 .9 1c.2-.3.3-.7.5-1s.2-.3.2-.4h.1zm-.6 3.6h.1l.2-.2a.4.4 0 0 0 .1-.3 4.1 4.1 0 0 0-.5-.9 2.6 2.6 0 0 0-.3 1c.1.2.1.3.2.3zm-4.6.4h.1a.8.8 0 0 0 .2-.5 3.2 3.2 0 0 0-.3-.9l-.4.8a1.4 1.4 0 0 0 .2.6zm2.3.3h.3a.7.7 0 0 0 .1-.5 4.4 4.4 0 0 0-.5-.9 4.4 4.4 0 0 0-.2 1c0 .1 0 .4.1.5z" fill="#1e1e1e"></path><path d="M852 69.9a.9.9 0 0 1 1 .8l.2 3.5a.9.9 0 0 1-.8 1 .9.9 0 0 1-.9-.9l-.3-3.5a.8.8 0 0 1 .8-.9z" fill="#c8c8c8"></path><path d="M851.3 73.1h2a1.7 1.7 0 0 1 1.8 1.3l.7 3.3c.2 1-.6.5-1.6.6l-2.9.2c-1 0-1.7.6-1.7-.4l.2-3.4a1.7 1.7 0 0 1 1.5-1.6z" fill="#c8c8c8"></path></g><g><path d="M807.2 91.1c-10.4.8-13.8-11.9-5.8-17.9 2.8-2.1.4-2.8 4-3.1s1.7.8 4.6 2.4c8.4 4.7 7.6 17.7-2.8 18.6z" fill="#ffd336"></path><path d="M805 65c.2 0 .4.1.4.2s2.1 6.7 2.9 8.8 2.7 6.6 2.7 6.7 0 .4-.2.5l-.5-.2c0-.1-1.8-4.3-2.7-6.8l-2.4-7.2c-.2 2-.7 5.4-1 6.9s-1.8 7.7-1.8 7.7-.2.3-.4.3a.5.5 0 0 1-.3-.5s1.3-4.9 1.8-7.7 1.2-8.4 1.2-8.4a.3.3 0 0 1 .3-.3z" fill="#1e1e1e"></path><path d="M809.4 78.5h.1c.1.1.1.1-.2.5l-.5 1.2a7.5 7.5 0 0 1 .7 1.2.7.7 0 0 1-.2.6.8.8 0 0 1-.4.4h-.6l-.3-.6a3.3 3.3 0 0 1 .4-1.4l-1-1.1h-.1a11.6 11.6 0 0 0-.8 1.6 4 4 0 0 1 .7 1.2 1.1 1.1 0 0 1-.2.8l-.5.2h-.4a.8.8 0 0 1-.3-.8 3.9 3.9 0 0 1 .3-1.3c-.3-.5-.8-1-1-1.3h-.1l-.7 1.1a3.8 3.8 0 0 1 .5 1.2 1.1 1.1 0 0 1-.3.8l-.4.2-.5-.2a2.4 2.4 0 0 1-.2-.9l.5-1.1a7.4 7.4 0 0 0-.9-1.2l-.2-.3c0-.1 0-.1.1-.1h.2v.2l.9 1.1c.2-.4.5-.7.6-1s.1-.2.2-.2h.3l.2.3.9 1.1.7-1.4.2-.3h.4l1 1 .4-1 .2-.3h.2zm-.6 3.6h.2a.8.8 0 0 0 .1-.4 2 2 0 0 0-.5-.9c-.1.4-.3.8-.2 1.1a.4.4 0 0 0 .1.3zm-4.7.4h.1a1.1 1.1 0 0 0 .2-.6.5.5 0 1 0-.6 0 .7.7 0 0 0 .1.5zm2.4.4l.2-.2c.1-.1.1-.2.1-.4a2.6 2.6 0 0 0-.4-1 2.6 2.6 0 0 0-.3 1 .8.8 0 0 0 .2.5c0 .1.1.1.2.1z" fill="#1e1e1e"></path><path d="M804.7 62.9a1 1 0 0 1 1 .8l.3 3.5a.9.9 0 0 1-.8 1 1 1 0 0 1-1-.8l-.3-3.5a1 1 0 0 1 .8-1z" fill="#c8c8c8"></path><path d="M804.1 66.2l2-.2a1.6 1.6 0 0 1 1.7 1.3l.7 3.3c.2 1-.6.5-1.6.6l-2.9.2c-1 .1-1.7.7-1.6-.3v-3.4a1.6 1.6 0 0 1 1.7-1.5z" fill="#c8c8c8"></path></g><g><path d="M734.5 68.8c-10.3.6-13.3-12.2-5.2-18 2.9-2 .5-2.8 4.1-3s1.7.9 4.5 2.6c8.3 4.9 7.1 17.9-3.4 18.4z" fill="#ffd336"></path><path d="M733.2 42.7l.4.2c0 .1 1.9 6.7 2.6 8.9s2.5 6.7 2.5 6.8 0 .4-.2.4a.4.4 0 0 1-.5-.2l-2.5-6.8c-.5-1.5-1.5-5.2-2.1-7.3-.4 2-.9 5.4-1.3 6.8s-2 7.7-2 7.7a.5.5 0 0 1-.5.3c-.1-.1-.3-.3-.2-.5s1.4-4.9 2.1-7.6 1.4-8.4 1.4-8.4a.3.3 0 0 1 .3-.3z" fill="#1e1e1e"></path><path d="M737.1 56.3c.1 0 .1 0 .1.1s.1 0 .1.1a1.6 1.6 0 0 1-.2.5l-.6 1.1a3.4 3.4 0 0 1 .6 1.2.9.9 0 0 1-.1.7l-.5.3h-.5a.9.9 0 0 1-.3-.6 3.3 3.3 0 0 1 .4-1.4l-1-1.2v.2a14.6 14.6 0 0 0-.9 1.5 3.6 3.6 0 0 1 .6 1.3.6.6 0 0 1-.2.7c-.1.2-.3.2-.5.3l-.4-.2a1.1 1.1 0 0 1-.3-.7 4.3 4.3 0 0 1 .4-1.4l-.9-1.3h-.1l-.8 1.1a2.8 2.8 0 0 1 .4 1.2 1.1 1.1 0 0 1-.3.8l-.4.2-.4-.3a1.1 1.1 0 0 1-.2-.8l.5-1.1-.9-1.3c-.1-.2-.2-.2-.1-.3.1-.1.2 0 .3.1h.1a10.5 10.5 0 0 1 .8 1.1l.7-.9a.3.3 0 0 1 .1-.2h.3a.1.1 0 0 0 .1.1c0 .1.1.2.1.3l.9 1.2.8-1.4a1 1 0 0 1 .1-.3.1.1 0 0 1 .1-.1h.4l.9 1 .5-1c.1-.1.1-.3.2-.3h.1zm-.7 3.6h.1c.1 0 .2 0 .2-.1a.6.6 0 0 0 .1-.4 2 2 0 0 0-.5-.9 6.1 6.1 0 0 0-.3 1.1l.2.3zm-4.6.3h.1a.8.8 0 0 0 .2-.5 2.3 2.3 0 0 0-.3-.9 1.6 1.6 0 0 0-.3.8.6.6 0 0 0 .1.6zm2.3.4h.3a.7.7 0 0 0 .1-.5 4.4 4.4 0 0 0-.5-.9 4.4 4.4 0 0 0-.2 1 .6.6 0 0 0 .1.4z" fill="#1e1e1e"></path><path d="M733 40.6a.9.9 0 0 1 .9.8l.2 3.6a.8.8 0 0 1-.8.9 1 1 0 0 1-1-.8l-.2-3.6a.9.9 0 0 1 .9-.9z" fill="#c8c8c8"></path><path d="M732.2 43.8h2a1.7 1.7 0 0 1 1.7 1.4l.6 3.3c.2 1-.6.5-1.6.6H732c-1 0-1.7.6-1.6-.4l.3-3.4a1.6 1.6 0 0 1 1.5-1.5z" fill="#c8c8c8"></path></g></g></g></g></svg>