<svg xmlns="http://www.w3.org/2000/svg" width="527.4" height="875.3" viewBox="-0.0235443115234375 0.09023284912109375 527.3466186523438 875.2097778320312" style=""><g><title>nholiday83_189553604</title><g data-name="Layer 2"><path d="M255.2 350.3s-1.5 525 8.8 525 8.3-422.7 8.8-525z" fill="#fff"></path><path d="M316.5 162.9S516 80.5 463.9 22.7s-165.6 81-165.6 81 .1-2.1.1-3.1c1.5-56.4-27.2-52.4-27.2-52.4s-30.1-5.5-31.6 50.9c-.1 1-.1 2.1-.1 3.1s-106-144.7-161-89.7 139.6 147.8 139.6 147.8-240.7 22-216.4 151C25.1 435.2 228 260.1 244.8 209.4c-5 26.7-24.3 140.4 17.4 143 45.4 3.3 28.7-115.1 25-142 14.1 51.6 207.4 237.3 237.3 114.8 31.3-127.5-208-162.3-208-162.3z" fill="#f6cec7"></path></g></g></svg>