<svg xmlns="http://www.w3.org/2000/svg" width="910" height="610.1" viewBox="-0.0020825304090976715 -0.007602503057569265 909.9908447265625 610.1730346679688" style=""><g><title>event43_58900129</title><g data-name="Layer 2"><path d="M909.5 130.6C906.3 76.7 888.2 5 830.6.2c-13.8-1.3-30.7 4.6-34.4 6.6-104 33.5-105.7 287.4 19.2 289.1 85.9 1.3 97.4-108.5 94.1-165.3zM818 242.1c-45.7 6.1-45.6-82.8-43.4-110.7s9.3-55.8 28.4-75c33.2-25.4 50.2 42.9 53.1 65.5 4.8 37.4 10.7 113.8-38.1 120.2z" fill="#ffa8a4"></path><path d="M723.1 293.7c-.3-9.8-.9-19.5-1.1-29.3-.2-4.1-2.5-7-6.4-7.6-28.7-3.5-54.7-3.1-83.4-3.4.8-10.7-1.2-206.8-.8-238.4a6.8 6.8 0 0 0-7.1-7.2c-12.6-.7-27.2-1-40 .4-4.3.4-6.3 5.4-6.4 7.1-1.3 55.7.1 235.4 5.4 280.3a4.8 4.8 0 0 0 .7 1.8 4.8 4.8 0 0 0 4.9 4c42.4 1.5 86.7 3.9 128.9-1.4a6.6 6.6 0 0 0 5.3-6.3z" fill="#ffa8a4"></path><path d="M359.6 273.7c-.1-9.1-5.1-9.6-7.6-9.9-27.2-3.3-53.4-2.1-78.8-1.1.2-14.7.4-74.8-1.6-92.7 16.9-1.2 36.5-2.4 53.4-2.9 5.7-.2 7.6-3.6 7.8-7 1.2-27.9-2.5-30.5-6.5-31.7-9.2-2.8-46.4-2.3-54.6-.9-1.4-11.8.7-54.5-.5-65.4 13.6-.5 70-.8 85.5-.6 1.6 0 7.3.3 7.8-8.2s.7-22.6-1.1-31.1c-.5-2.4-4.8-4.1-5.4-4.2-20.2-2-107.7-7.7-127-.2a7.1 7.1 0 0 0-4.7 7.1 3.4 3.4 0 0 0-.6 1.5c-7.4 45.1-5.3 229.6-5.7 275.3 0 6.3 11 6.2 11.3 6.2 39.3 1 81.6 3.3 120.7-.2h.2c2.7.4 5.6-.6 6.7-3.7 2.1-5.5 1-21.2.7-30.3z" fill="#ffa8a4"></path><path d="M179.4 15.9c-.2-3.6-3.7-4.6-6.4-3.7-11.4-2.3-30.3-2.3-41.5.7a6.4 6.4 0 0 0-4.9 5.8c-1.4 34.9-.6 64.9-.5 98.9-14.2-.3-58.4-.8-70.9 0-.9-37.6-.7-65.7-1.1-99.1 0-3-2.1-5.7-4.8-5.9-12-.8-25.5-1.5-37-.3-4.7 0-9.3 4-9.4 7.6C.1 114.2 2.3 202.3 0 298.6c-.1 6.7 3.4 8.2 10.8 9.1 4.8.3 31.9-.3 38.3-3.4a7.4 7.4 0 0 0 4.4-5.9c2.7-44.5 3.2-85.9 2-130.6 6.5.9 60.4.9 67 0-1.2 44.7-.7 86.1 2 130.6a7.4 7.4 0 0 0 4.4 5.9c6.4 3.1 33.9 2.8 38.6 2.5 7.6-.9 11-2.4 10.9-9.2-2.3-96.2 3.5-190.3 1-281.7z" fill="#ffa8a4"></path><path d="M552.2 292.7c-.3-9.7-.9-19.5-1.1-29.3-.2-4-2.5-7-6.5-7.5-28.6-3.6-54.6-3.1-83.3-3.4.7-10.8-1.2-206.9-.8-238.4a6.9 6.9 0 0 0-7.1-7.3c-12.6-.6-27.2-1-40 .4-4.3.4-6.4 5.4-6.4 7.1-1.3 55.7.1 235.5 5.4 280.3a7.6 7.6 0 0 0 .6 1.8 4.9 4.9 0 0 0 5 4c42.3 1.5 86.7 4 128.9-1.3 2.7-.3 5.4-3.5 5.3-6.4z" fill="#ffa8a4"></path><g fill="#f95b3e"><path d="M225 31.3q-.5 3.7-.9 8.4c11.4-8.7 22.6-17 33.5-25.4l-12.7.8c-6.6 5.3-13.4 10.7-19.9 16.2z"></path><path d="M310.4 126.6l-10.6-.2-79.7 72.6v7.9c24.6-21.1 61.5-53.6 90.3-80.3z"></path><path d="M258.7 33.6a412.4 412.4 0 0 0-36.3 32.3c-.1 3.1-.3 6.4-.4 9.7 13-12.7 26.8-24.4 41-35.8 11.1-8.9 22.8-17.1 34.5-25.4l-14.1-.3c-8.4 6.4-16.6 13-24.7 19.5z"></path><path d="M327 15.7c-16.3 13.5-32.1 27.6-47.9 41.5l-5.3 4.9 11.5-.3 1.3-1.1c17.1-15.1 34.9-29.5 52.3-44.2z"></path><path d="M220.9 113.7c0 2.8-.1 5.6-.1 8.5 16.4-16.5 33.5-32.5 50.8-48.1 0-3.9-.1-7.3-.3-9.8q-26.1 23.7-50.4 49.4z"></path><path d="M271.2 108c-16.8 17.1-33.7 34.2-50.9 50.8 0 2.6 0 5.2-.1 7.9 17.5-15.8 34.4-32.1 51.1-48.7-.1-3-.1-6.4-.1-10z"></path><path d="M297.6 168.3l13.8-.7 21.6-18.3a92.1 92.1 0 0 0-.5-10.2c-10.2 8.4-22.3 18.4-34.9 29.2z"></path><path d="M359.7 274.7a484.2 484.2 0 0 0-39.6 34.7l10.3-.4c9.9-8.3 20.1-16.5 29.6-25.4-.1-3.2-.2-6.2-.3-8.9z"></path><path d="M363 21.3c-15.9 12.2-30.7 26.1-45.1 40.2h12.2Q347 46.1 364.5 31a68 68 0 0 0-1.1-8.8z"></path><path d="M341.6 262.8c-3-.3-6.1-.5-9.1-.6-18.2 13.8-36.2 29.6-51 47.1h9.3c16.4-16.1 33.7-30.5 50.8-46.5z"></path><path d="M220.1 284.2c15.8-13.2 35-29 53.2-43.9v-9.2c-18 14.5-37.2 30.3-53.2 44.1z"></path><path d="M282.2 262.3c-17.5 14.6-34.5 29.8-50.7 45.6l9.9.3c17.6-15.8 35.6-31.1 53.7-46.3z"></path><path d="M220 246.3c15.7-13.8 34.4-29.9 53-45.9-.1-3.7-.2-7.3-.3-10.6-19.3 16.8-38.3 33.7-52.7 47.1z"></path></g><path d="M35.2 40.8c-.2 5.2.1 11.3-3.9 15.3-1.6 1.6-4.7 1.8-6.1-.3-3.3-5.3-1.8-12.1-1.6-18s0-10.4 3.3-14.3a3.5 3.5 0 0 1 5.5.3c3.7 4.3 3 11.7 2.8 17zm-.5 52.4c-.3-3.7-.7-9.4-4.2-11.7a3.5 3.5 0 0 0-3.9-.2c-3.8 2.5-3.5 7.5-3.5 11.4s.7 9.8 3.4 13.7 5 1.6 6.4-.6c2.5-3.8 2.1-8.3 1.8-12.6zm-3.4 34.9c-1-1.1-3-.6-4 .3-3 3.4-3.1 7.7-3.2 11.9s-.5 8.5.6 12.7 4.8 2.9 6.7 1.2c6.4-5.8 5.7-20.1-.1-26.1zm2.3 48.6c-1.4-2.6-5.1-1.5-6.3.5-2.5 4.5-2.5 9.8-2.8 14.7s-1.1 9.9 2 13.6a3.8 3.8 0 0 0 5.9.3c3.2-3.8 2.9-9.1 3.2-13.8s.7-10.5-2-15.3zm0 49.6a3.8 3.8 0 0 0-5.8-.3c-3.2 3.6-3 9-3.3 13.6s-.9 9.5 1.9 13.4c1.4 1.8 4.5 2.2 6 .2 3-3.9 3-8.9 3.3-13.6s1.1-9.7-2.1-13.3zm.5 59.5c0-5 .1-10-1.7-14.7s-6.5-3.8-7.9-.3-1.7 9.5-1.8 14.4-.8 9.5 4 12.4a4.1 4.1 0 0 0 4-.4c4.2-2.4 3.5-7.3 3.4-11.4zm42.8-149.2c-3.1-3.6-8-2.8-12.4-2.8a17 17 0 0 0-6.3 1l-2.7 1.3c-.7.5-1.1 1.9-1.6 2.2-2.3 1.3-.5 4.7 1.9 4.3 2.6 1.2 5.5 1.3 8.5 1.4s9.2 1.6 12.4-1.9a4.5 4.5 0 0 0 .2-5.5zm42.5-.6c-3.1-3.3-8.3-2-12.3-1.7s-8.6 1-12.1 3.6c-1.4 1-1.8 3.5-.2 4.6 3.6 2.5 7.4 2.7 11.6 2.6s10.3.4 13.5-3.3c1.6-1.9 1-4.1-.5-5.8zm42.1-97c.1-5-.1-9.6-2.4-13.5a4 4 0 0 0-3.8-1.8l-1.3.2a1.7 1.7 0 0 0-1.3 1 2.7 2.7 0 0 0-.9 1.2c0 .1-.1.3-.1.4a4.8 4.8 0 0 0-.8 1.8 45.8 45.8 0 0 0-.9 8.3c-.2 5.3-1.9 13.2 2.7 17.2a4.8 4.8 0 0 0 6.8-.6c3-3.8 2-9.6 2-14.2zm-.8 50.8c-.3-4.2.3-9.6-1.5-13.5s-6.8-4.4-8.6-.4-1.2 8.9-1.1 13-.3 12 5.5 13.1 6-8.1 5.7-12.2zm-2 35.7c-1.4-3.3-6.2-3.9-7.7-.4s-1.7 8.6-1.8 13.1-.3 10.3 2.5 14.3c1.3 1.9 4.6 2.4 6 .3 2.5-3.6 2.6-7.7 2.7-12s.4-10.5-1.7-15.3zm-2 49.6c-1.6-2.6-5-1.6-6.3.6-2.3 3.8-2 8.8-2.1 13.1s-.7 10.4 3.1 13.4a3.6 3.6 0 0 0 4.3.2c3.9-3.1 3.3-8.3 3.4-13s.1-10.1-2.4-14.3zm1.4 47.5c-1.3-3.6-7.3-4.4-8.6-.4s-1.4 8.9-1.4 13.6-.9 10.7 3.2 13.5a3.8 3.8 0 0 0 4.5.2c3.8-2.6 3.4-7.4 3.5-11.6s.5-10.5-1.2-15.3zm2.1 55.9c-.1-4.5 0-9-1.5-13.3s-6.3-3.8-7.6-.3-1.5 7.5-1.6 11.4-1.2 9.6 1.8 12.8 4.7 2.6 6.8.4 2.1-7.1 2.1-11z" fill="#f95b3e"></path><g fill="#f95b3e"><path d="M858.7 180.2a363.9 363.9 0 0 0 49.1 3.9c.3-2.5.6-4.9.8-7.3-16.5-.5-33.1-.3-49.6-2.2z"></path><path d="M836.8 64.2a63.6 63.6 0 0 1 3.5 5.8 316.3 316.3 0 0 0 29.5-52.3l-4.4-3.8c-9.6 16.8-18.5 33.9-28.6 50.3z"></path><path d="M822.2.2c-.9 17-1.6 34-1.5 51.1a18.3 18.3 0 0 1 5.3 2.1L827.8 0a53.3 53.3 0 0 0-5.6.2z"></path><path d="M854.2 110.7c.4 2 .8 3.9 1.1 5.6 17.1-3.2 34.6-10.1 50.7-17.2-.4-2.4-.8-4.7-1.3-7-17.1 4.5-34.3 11.6-50.5 18.6z"></path><path d="M785.7 11.1a135.1 135.1 0 0 0 14.5 48.3l2.8-3a29.2 29.2 0 0 1 3.2-2.1 208 208 0 0 1-14.9-45.8z"></path><path d="M860.8 257.3c-7.4-8.1-14.5-16.4-21.2-25.1a28.4 28.4 0 0 1-4.7 3.7 281.9 281.9 0 0 0 33.8 41.1c1.9-1.8 3.8-3.6 5.6-5.6-4.5-4.7-9.2-9.3-13.5-14.1z"></path><path d="M909.9 140.3c-.1-2.8-.2-5.4-.3-8-7 .3-13.9 1.2-20.6 1.8a232.7 232.7 0 0 0-31 5c.2 1.9.3 4 .5 6 10.3-1.9 20.7-3 31.1-3.9 6.7-.6 13.5-.7 20.3-.9z"></path><path d="M774.1 162.5c-17.7-3.6-36.2-3.8-54.3-5.7.1 1.9.1 3.9.2 5.8 17.9 3.2 36.3 5 54.4 6.6z"></path><path d="M849.7 93.3C865 81.2 880.5 69.1 894 55.1c-.9-2.2-1.9-4.4-2.9-6.6-14.7 12.5-29.3 25.2-43.5 38.4.8 2.2 1.5 4.3 2.1 6.4z"></path><path d="M783.7 217.2a49.6 49.6 0 0 1-2.1-5.8c-15.9 7.6-32.5 14.1-46.2 25.1.8 1.8 1.6 3.6 2.5 5.3 14.2-10 30.5-16.4 45.8-24.6z"></path><path d="M829.4 295.1c-1.1-8.6-2.8-17.2-3.8-25.8s-2.1-18.7-3.5-27.9l-4.1.7-2.2.2c.8 17.7 1.5 36.7 6.1 53.5 2.6-.1 5.1-.4 7.5-.7z"></path><path d="M769.1 280.7c8.6-15.1 18.4-29.8 26.6-45.1a33.5 33.5 0 0 1-4.7-5.2c-9.9 14.8-19.6 30.2-26.9 46.4a61.2 61.2 0 0 0 5 3.9z"></path><path d="M755.1 36.8a248.7 248.7 0 0 0 16 19.6c5.6 6.2 11.5 13 17.9 19 1.4-2.4 2.8-4.8 4.3-7.1-4.7-4.7-9.7-9.2-14.2-13.8-7-7.2-13.6-14.8-20-22.5-1.4 1.5-2.7 3.1-4 4.8z"></path><path d="M854.1 207.1c-.6 1.9-1.3 3.8-2 5.6 13.3 9.7 29 15 44.4 20.6.9-2.4 1.8-4.8 2.5-7.3-15-6-31.4-9.3-44.9-18.9z"></path><path d="M777 192.6c-.3-2.3-.7-4.6-1-6.9-17.5 3.1-34.9 8.3-52.2 12.8.4 2.1.8 4.1 1.3 6.1 17.4-3.2 34.8-7.6 51.9-12z"></path><path d="M778.1 106.1c.5-2.3 1-4.6 1.6-6.8-9-3.4-18.1-6.3-26.9-10.3-6.9-3.2-13.5-6.8-20.2-10.4l-2.2 6.6c14.5 9.2 31.6 17.2 47.7 20.9z"></path><path d="M774.6 131.4c-17.6-4.5-33.9-12-51-18.5l-.9 5.5c16.1 8.2 33.6 17.1 51.5 20.2.1-2.7.2-5.1.4-7.2z"></path></g><path d="M442.9 39.8a9.2 9.2 0 0 1-8.1 7.5 8.6 8.6 0 0 1-5.2-.9 7.7 7.7 0 0 1-2.4-1.6 10 10 0 0 1-3.3-10 9.5 9.5 0 0 1 10.8-7.7 9.4 9.4 0 0 1 6.1 3.9 11.4 11.4 0 0 1 1.5 3.4c.1.2.2.3.2.5a9.1 9.1 0 0 1 .4 4.9zM439.4 68a10.1 10.1 0 0 0-7.1-2.3c-2.5 0-5.1 1.7-6.6 3.5a9.7 9.7 0 0 0-2.3 7.1 9.4 9.4 0 0 0 3.5 6.6 10.1 10.1 0 0 0 7.1 2.3c2.4 0 5.1-1.7 6.6-3.5a9.6 9.6 0 0 0 2.2-7.1 9.3 9.3 0 0 0-3.4-6.6zm1 41.3c-2.2-1.8-4.5-2.1-7.2-2.2h-.9a9.9 9.9 0 0 0-8.7 8 9.6 9.6 0 0 0 7.9 11.1 13 13 0 0 0 3.4.2c5.4-.1 9.4-5.5 8.9-10.5a10.1 10.1 0 0 0-3.4-6.6zm-7 38.8c-13.1 0-11.2 20.1 1.7 20.1s11.2-20.1-1.7-20.1zm1.1 41.2c-13.2 0-11.3 20.4 1.8 20.4s11.3-20.4-1.8-20.4zm8.1 42a10.2 10.2 0 0 0-4.6-2.1 10.5 10.5 0 0 0-5.5.7h-.2a8.4 8.4 0 0 0-4 2.7 9.3 9.3 0 0 0-2.1 6.8 9.1 9.1 0 0 0 6.1 7.8 9.6 9.6 0 0 0 10.3-16zm3.1 35.8a10.2 10.2 0 1 0-1.3 15.6 6.4 6.4 0 0 0 1.5-1.3 9.6 9.6 0 0 0 3.1-5.4 10 10 0 0 0-3.3-8.9zm45.3 8.4a9.4 9.4 0 0 0-.6-2.9 12.8 12.8 0 0 0-3.2-4.5c-1.9-2-5.2-2.5-7.9-2.3a9.9 9.9 0 0 0-8.9 8.1 10.4 10.4 0 1 0 20.6 1.6zm41.4-.6a11.3 11.3 0 0 1-3 8.4c-3 3.2-7.9 4.9-12.1 2.9a10.8 10.8 0 0 1-6.2-6.2 10.1 10.1 0 0 1 3.7-11.6l.5-.3h.2c1.9-1 3.7-2.4 6-2.3a8.8 8.8 0 0 1 5 .9l2.3 1.4a9.8 9.8 0 0 1 3.6 6.8z" fill="#f95b3e"></path><path d="M709.7 287.1c-7.3-16.7-22.3-17.8-32-5.9-2.6-6.9-6.5-12.1-15.3-12.5-5.1-.3-9.9 2.6-13.9 5.4-2.4 1.8-3.7 4.2-5.1 6.5-5.2-10.7-15.8-13.4-26.4-10.5a23.2 23.2 0 0 0 2.3-15.1c-1.1-6.3-4.6-12.5-9.7-15.5 4.8-3.6 7.8-9.8 8.4-16.1a24.3 24.3 0 0 0-11.9-23.3c11.9-9.9 11.8-26.3-1.2-35.3 5-3.6 9.1-8.6 8.6-15.2s-3.5-12.4-8.6-15.9c14.5-9 13.7-28.8-.2-38.5 7.3-6.2 14.4-13.4 14.5-23.4 0-7.8-6.5-13.1-13.6-15.2 5.4-5.3 10.3-12.4 8.5-19.7-2.3-9.5-9.3-15.4-18.6-10.6-2.8 1.5-.3 5.6 2.5 4.7 14.5-4.4 8.9 13.9 6 18a30.2 30.2 0 0 1-7.6 7.1 3.2 3.2 0 0 0 2.1 5.7c12.7-.4 17.4 11 10.3 20.5-3.1 4.2-7.3 7.5-11.3 10.7a3.2 3.2 0 0 0 .5 5.4c16.5 7.8 14.3 24.9-.8 32.3-3.4 1.6-1.9 6.6 1.6 5.8 7.6 8.8 12.4 18-1.8 25.1-2.5 1.3-3.3 5.1-.2 6.4 14.3 6.3 16 22.2 1.4 29.5-2.3 1.1-3.5 5.2-.3 6.2 17.1 5.5 18.5 28.7.4 33.2a2.5 2.5 0 0 0-1.9 3.2 2.3 2.3 0 0 0 2.4 2.7h2.4c8 .5 12 9.2 12.5 16.8s-6.9 12.3-12.3 16.7a2.9 2.9 0 0 0 .3 4.8 2 2 0 0 0 2.9 1.3c13.4-6.5 30-14 34.9 6.2.6 2.6 4 2.6 5.5 1s3-5.9 5.2-8.7c10.5-12.9 20.5-2.7 23.7 8.4.8 2.7 4.5 2.5 5.7.3 6.5-12.6 17.7-13.6 23.9-.2 1.8 3.7 7.9 1.6 6.2-2.3z" fill="#f95b3e"></path><g><g fill="#84ccca"><path d="M774.3 417.3c-.1-1.9-1.6-5.7-7.1-6.1s-14.3-.5-21.3-.6c-4.8-.7-7.7 2.3-8.2 8.1-1.3 15 .4 90.9-19.1 88.3-15-2-15.2-24-13.6-90.9.1-2.9-2.5-4.5-5.3-4.9s-19.1-.2-22.1.2-4.9 5.3-5 7.1c-7.2 117.3 13.1 141.7 60.9 123.6-.5 25.6-10 35.1-37.7 34.4-6.2-.1-8.2 3.2-8.1 6.4.3 8.9-.3 15.9 2.5 24.4a4.3 4.3 0 0 0 4.8 2.8h.3c74.8.3 81.5-26.6 79-192.8z"></path><path d="M169.5 411.3c-38.9.2-49.1 36.7-51.4 64s12 76.1 46.6 72.2c57.4-6.6 57.9-132.3 4.8-136.2zm-4.9 102.2c-12.9 4.9-13-30.7-12.9-34.4.5-11.6 2-33.9 12.8-35.1s11.4 12 12.1 23c.7 14.4.7 41.7-12 46.5z"></path><path d="M524.9 352.6a6 6 0 0 0-4.4-5.6c-5.3-1-13.9-.1-21.3-.1-4 0-6.9 2-7 6.2-1.1 21.5.6 47.7-1.4 69.2-11.4-14.2-33-15.8-49.7-5.6-21.3 12.9-33.1 32.1-34.8 57.8-1.5 22.9 5.1 47.6 22.2 62.8 21.5 19.1 45.2 4.3 62.3-12.9.5 3.3 1.2 14.4 1.3 17.8s3.2 4.8 5.9 3.9c.3.4 19.5-.9 20.1-1.3a4.9 4.9 0 0 0 3.2-4.3c4.5-58.4 4.5-129.4 3.6-187.9zm-57.3 145.2c-4.1 7.1-12.7 17.6-19.7 8.3s-7.5-28.6-3.5-40.8c4.9-14.9 18.3-23.6 27.8-9.7 5.1 13.8 2.6 29.7-4.6 42.2z"></path><path d="M857.5 452.4c-3.7-1.7-28-8.1-14.7-10.2 9.1-1.5 19.2.5 28.3 1.8a4 4 0 0 0 3.9-1.9 4.1 4.1 0 0 0 2-2.7c1.6-7.1-.1-15.5-.3-22.7a5.9 5.9 0 0 0-.6-2 3.4 3.4 0 0 0-2.1-3.2c-22.6-9.8-67.7-6.7-76.3 22.3-5.4 18.2 11.5 34.4 26.1 39.1 12 3.9 38.2 2.3 37 22.5-.6 12-23.1 10.8-30.4 11-2.2.1-26 1.3-27.4 1.8 1.4-.5-11.1.2-11 4.2s-.3 7.8-.2 11.6c.4 11.4 2 13.7 4.5 14.3 33.7 8.3 95.5 10.3 96.3-39.4.4-23.5-16.6-37.9-35.1-46.5z"></path><path d="M92.4 431.7c-6.4-14.8-25.7-28.5-55-20.5-1.4-21.9-.3-37.9-1.7-59.9-.1-.4-1.2-4.2-3.4-4.7-8.2-1.7-18.3-1.3-25.4-1-2.3.1-4.1 2.7-4.1 5-.5 61 .3 129.1.2 188.6a5 5 0 0 0 1.9 4.2 4 4 0 0 0 4.1 2c3.9-.7 19.4.2 23.3-.3s5.9-.9 6-4.8c1.1-40.7 1.5-88 11.6-91.6 18.1-5.2 16.3 43.2 18.4 87.4.2 4.7.9 8.9 4.6 8.4s17.3-.6 20.7-1.1a6.7 6.7 0 0 0 6.1-6.7c1.7-29.1 4.2-78.5-7.3-105z"></path><path d="M367.8 399.6c10.8 1.3 19.7-8.3 20-19.3.2-13.1-9-19.7-20.3-19-7.1.1-16.1 8.8-16.5 17-.5 10.3 6.9 20.2 16.8 21.3zm20.9 24.3c0-3.1-1.5-6.3-4.2-6.8-8.1-.9-20-1-27.4 0-2.3.3-6.3 2.6-6.3 8.3-.1 35.9-1.9 83.9.4 121 .1 2.8 2.2 4.4 4.3 5.1a3.8 3.8 0 0 0 2.7.8c7-.2 15.8 1.1 23-.5 2.5-.6 6.5-2.4 6.7-6 1.2-20.3 1.2-99.8.8-121.9z"></path><path d="M652.8 539.5c-11.3-122.5-8.1-124.1-14.5-127.3-3.6-1.8-7.7-1.3-11.7-1.4l-12.3.3c-3.2.2-4.9 2.7-5.2 5.6 0 .9-.1 1.9-.1 2.8-17.6-12.6-37.3-6.3-51.2 13.5s-17.3 46.7-14 71.6c2 14.6 8.6 38.8 27.1 39.6 23.3 1 35.7-20.7 43.5-40.9.1 2.3 3.5 26.7 5.3 35.9 1.4 7.5 7.6 8 12.3 7.7 20.5-1.2 21.1-3.5 20.8-7.4zm-64.2-57.9c-9.9 45.3-17.7 34.5-16.7 16.2.9-15.5 7.8-62.6 18.1-60.8s1 33.4-1.4 44.6z"></path><path d="M337.6 524.6a5.3 5.3 0 0 0-.3-1.2c.6-3.2-1.2-6.8-5-6-18.9 3.9-45.3 5.5-59.4-11-9.1-10.5-9.2-28-9.6-41.3-1.2-39.8 2.3-64.3 2.3-104.1a3.9 3.9 0 0 0-2.6-4 4.5 4.5 0 0 0-2.9-1.7c-7.2-.9-16.9-1.3-24-.1a4.7 4.7 0 0 0-3 1.8 3.8 3.8 0 0 0-2.8 3.5c-2.6 33.4-5.9 130.4-.1 151.7 13.3 49.2 59.9 43.3 99.5 40.1h.2c1.9.2 3.9-.4 4.7-2.6a60.9 60.9 0 0 0 3-25.1z"></path></g><g fill="#fff"><path d="M19 360.7c-4.8 0-4.1 7.3.6 7.3s4.1-7.3-.6-7.3z"></path><path d="M19.7 382.3c-4.6 0-3.9 7.2.7 7.2s3.9-7.2-.7-7.2z"></path><path d="M17.5 411.9c-4 0-3.4 6.2.6 6.2s3.4-6.2-.6-6.2z"></path><path d="M19 436.3c-4.2 0-3.6 6.5.6 6.5s3.6-6.5-.6-6.5z"></path><path d="M19.4 460.7l-.3-.2a3.3 3.3 0 0 0-4.5 2.4c-.3 2.2 2 4.6 4.3 3.6l1-.6a2.9 2.9 0 0 0 1.3-2.7 3.1 3.1 0 0 0-1.8-2.5z"></path><path d="M21.5 485.8c-.9-2.4-4.9-2.9-5.8-.3a4.8 4.8 0 0 0-.4 2 3.4 3.4 0 0 0 2.7 2.9 3.1 3.1 0 0 0 3.6-2.6 4.5 4.5 0 0 0-.1-2z"></path><path d="M21.4 509.4c-1-2.2-4.5-2.7-5.5-.2a4.1 4.1 0 0 0-.4 2.2c.4 3.4 5.7 3.8 6.1.2a4.2 4.2 0 0 0-.2-2.2z"></path><path d="M22.8 529.6a.1.1 0 0 0-.1-.1 3.2 3.2 0 0 0-4.2-2.1l-.9.5a3 3 0 0 0-1.2 3.4 4.4 4.4 0 0 0 .5 1.3 3.5 3.5 0 0 0 3 1.4 3.4 3.4 0 0 0 2.9-4.4z"></path><path d="M16.4 531.6v-.3c-.2-.4-.3-.7 0 .3z"></path><path d="M38.3 427.6a2.8 2.8 0 0 0-2.5 2.9 2.9 2.9 0 0 0 3 2.5 2.8 2.8 0 0 0 2.5-2.9 2.9 2.9 0 0 0-3-2.5z"></path><path d="M57.1 423.2c-3.4 0-2.9 5.2.4 5.2s2.9-5.2-.4-5.2z"></path><path d="M74.6 431.2c-3.7 0-3.2 5.6.5 5.6s3.1-5.6-.5-5.6z"></path><path d="M80.1 450a3 3 0 0 0-2.7 3.3 3.1 3.1 0 0 0 3.3 2.7 3 3 0 0 0 2.7-3.3 3.1 3.1 0 0 0-3.3-2.7z"></path><path d="M85 473.3c-3.7 0-3.1 5.6.5 5.6s3.1-5.6-.5-5.6z"></path><path d="M85.7 493.9a2.9 2.9 0 1 0 .5 5.7 2.9 2.9 0 0 0 2.6-3.1 3 3 0 0 0-3.1-2.6z"></path><path d="M86.7 510.7c-3.8 0-3.2 5.7.5 5.7s3.2-5.7-.5-5.7z"></path><path d="M86.5 529c-3.9 0-3.3 5.9.5 5.9s3.3-5.9-.5-5.9z"></path><path d="M369.8 429.3c-4.1 0-3.5 6.4.6 6.4s3.5-6.4-.6-6.4z"></path><path d="M370.4 452a3 3 0 0 0-2.1 4.5c.1 0 .1.1.1.2 1.2 1.9 3.8 1.2 4.7-.4s.1-.2.1-.3c1.1-1.9-.8-4.1-2.8-4z"></path><path d="M369 473.2h-.2a3.6 3.6 0 0 0-2.3 3.5 3.4 3.4 0 0 0 3.7 3.1h.3a3.5 3.5 0 0 0 3.1-3.7c-.2-2-2.5-3.8-4.6-2.9z"></path><path d="M369.8 495.1c-4.6 0-4 7.1.6 7.1s3.9-7.1-.6-7.1z"></path><path d="M370.2 517.5a3.1 3.1 0 0 0 .5 6.2 3.1 3.1 0 1 0-.5-6.2z"></path><path d="M370.4 537.2c-3.3 0-2.8 5.2.5 5.2s2.8-5.2-.5-5.2z"></path><path d="M164.1 422.3c-1.9 0-3.3 2-3.2 3.8a3.6 3.6 0 0 0 3.8 3.2 3.4 3.4 0 0 0 3.2-3.8c-.1-2.1-1.9-3.2-3.8-3.2z"></path><path d="M144.5 436.4a2.6 2.6 0 0 0 .9 4.1 2.7 2.7 0 0 0 3.8-2 2.7 2.7 0 0 0-4.7-2.1z"></path><path d="M137.4 452.6a2.8 2.8 0 1 0 .4 5.6 2.8 2.8 0 0 0 2.6-3 2.9 2.9 0 0 0-3-2.6z"></path><path d="M132.9 472.7c-3.7 0-3.1 5.6.5 5.6s3.1-5.6-.5-5.6z"></path><path d="M136.1 492.2a3.2 3.2 0 0 0-3.8.8c.8-.7.6-.4.3-.3a3 3 0 0 0-.2 4.6l.3.3c2.1 2 5.5-.1 5.3-2.8a3.1 3.1 0 0 0-1.9-2.6z"></path><path d="M141.3 513.4h-.2a3.3 3.3 0 0 0-2 2.3 3 3 0 0 0 1.7 3.2h.2a3.2 3.2 0 0 0 4.4-2.2c.3-1.9-2-4.3-4.1-3.3z"></path><path d="M154.7 528.7a2.8 2.8 0 0 0-2.5 3 2.9 2.9 0 0 0 3 2.4 2.7 2.7 0 0 0-.5-5.4z"></path><path d="M174.8 525.9c-3.5 0-3 5.4.5 5.4s3-5.4-.5-5.4z"></path><path d="M188.2 506c-4 0-3.4 6.1.5 6.1s3.4-6.1-.5-6.1z"></path><path d="M191 484.1a3.2 3.2 0 1 0 3.4 2.9 3.3 3.3 0 0 0-3.4-2.9z"></path><path d="M191.6 462.7c-3.6 0-3.1 5.6.5 5.6s3-5.6-.5-5.6z"></path><path d="M189.3 444.3c-3.5 0-3 5.4.5 5.4s3-5.4-.5-5.4z"></path><path d="M181.5 429.1c-2.9 0-2.5 4.6.5 4.6s2.5-4.6-.5-4.6z"></path><path d="M247.4 365.2c-1.6 0-2.8 1.8-2.7 3.3a3.1 3.1 0 0 0 3.3 2.7 3 3 0 0 0 2.7-3.2 3.1 3.1 0 0 0-3.3-2.8z"></path><path d="M246.9 384.1c-4.1 0-3.5 6.3.5 6.3s3.5-6.3-.5-6.3z"></path><path d="M245.8 405.8c-3.5 0-3 5.3.5 5.3s2.9-5.3-.5-5.3z"></path><path d="M245.8 429.3c-3.4 0-2.9 5.2.5 5.2s2.8-5.2-.5-5.2z"></path><path d="M244.6 448.5c-1.9 0-3.4 2.1-3.2 3.9a3.6 3.6 0 0 0 3.8 3.2 3.6 3.6 0 0 0 3.2-3.8 3.6 3.6 0 0 0-3.8-3.3z"></path><path d="M245.9 471.7h-1.3a3.5 3.5 0 0 0-3 2.8 3.4 3.4 0 0 0 2.7 3.9h1.4a3.4 3.4 0 0 0 3-2.8 3.3 3.3 0 0 0-2.8-3.9z"></path><path d="M246.9 495.7c-3.6 0-3.1 5.5.5 5.5s3.1-5.5-.5-5.5z"></path><path d="M255.2 516a2.8 2.8 0 0 0-1.3.3c-2.3 1-2.8 4.5-.2 5.6l1.2.4a3.3 3.3 0 0 0 3.7-2.6c.3-2-1.4-4.1-3.4-3.7z"></path><path d="M269.8 528.7a3.3 3.3 0 1 0 .5 6.6 3.4 3.4 0 0 0 3.1-3.6 3.4 3.4 0 0 0-3.6-3z"></path><path d="M289.9 534.3a2.8 2.8 0 0 0-2.4 2.9 2.7 2.7 0 0 0 2.9 2.5 2.8 2.8 0 0 0 2.5-2.9 2.9 2.9 0 0 0-3-2.5z"></path><path d="M311.6 533.9c0-.1-.1-.1-.2-.2a4 4 0 0 0-3.4-.6 3.7 3.7 0 0 0-2.3 2.8 3.6 3.6 0 0 0 5.5 3.5c0-.1.1-.1.2-.2a3.4 3.4 0 0 0 .2-5.3z"></path><path d="M325.4 532.5c-1.9 0-3.2 2-3.1 3.7a3.5 3.5 0 0 0 3.7 3.1 3.4 3.4 0 0 0 3.1-3.7c-.1-2-1.8-3.1-3.7-3.1z"></path><path d="M509.8 355.5a3.2 3.2 0 0 0-1.9-.3 3 3 0 0 0-2.7 2.5 2.9 2.9 0 0 0 2.4 3.4 3.4 3.4 0 0 0 2-.2c2.3-1.1 2.7-4.2.2-5.4z"></path><path d="M508.5 372.7c-3.6 0-3.1 5.5.4 5.5s3.1-5.5-.4-5.5z"></path><path d="M511.3 392.1a.3.3 0 0 0-.1-.2c-.7-1.4-2.8-1.5-3.9-.7s-1.8 3.5-.2 4.5h.1a2.9 2.9 0 0 0 3.4.2c1.4-.8 1.4-2.4.7-3.8z"></path><path d="M509 409.5a2.8 2.8 0 0 0-2.6 3.1 2.9 2.9 0 0 0 3.1 2.7 2.9 2.9 0 0 0-.5-5.8z"></path><path d="M509 433.8c-3.6 0-3.1 5.6.5 5.6s3.1-5.6-.5-5.6z"></path><path d="M506.6 456.2a6.8 6.8 0 0 0 .2 2c.7 2.3 4.8 2.8 5.6.2a6.3 6.3 0 0 0 .3-1.9c-.4-3.4-5.7-3.8-6.1-.3z"></path><path d="M509.6 475.9a2.8 2.8 0 0 0-3.3 3v.2c.4 2.6 4.3 3.6 5.3.9 0-.1 0-.1.1-.1a2.9 2.9 0 0 0-2.1-4z"></path><path d="M507.6 495.5a2.8 2.8 0 0 0-2.5 3 2.9 2.9 0 0 0 3 2.6 2.8 2.8 0 1 0-.5-5.6z"></path><path d="M511.5 517.1a2.7 2.7 0 0 0-.3-1.2c-.9-2.2-4.3-2.7-5.3-.2a4.9 4.9 0 0 0-.4 1.1 3.2 3.2 0 0 0 2.5 3.6c1.8.3 3.9-1.3 3.5-3.3z"></path><path d="M507.9 532.6c-2.8 0-2.4 4.4.4 4.4s2.5-4.4-.4-4.4z"></path><path d="M491.5 446.3a3 3 0 1 0 3.2 2.7 3 3 0 0 0-3.2-2.7z"></path><path d="M479.2 432.3h-.1a2.7 2.7 0 0 0-4.3-.2h-.2a2.9 2.9 0 0 0 1.8 4.7c2.3.4 4.5-2.4 2.8-4.5z"></path><path d="M455.2 426a4.9 4.9 0 0 0-1.7.1 2.8 2.8 0 0 0-1.8 2.9 2.8 2.8 0 0 0 2.3 2.5h1c3.1-.4 3.5-5 .2-5.5z"></path><path d="M437.3 438a2.8 2.8 0 0 0-2.4 2.9 2.7 2.7 0 0 0 2.9 2.5 2.6 2.6 0 0 0 2.4-2.9 2.7 2.7 0 0 0-2.9-2.5z"></path><path d="M427.1 454.9c-2.8 0-2.4 4.3.4 4.3s2.4-4.3-.4-4.3z"></path><path d="M423.1 470.9c-3.5 0-3 5.5.5 5.5s3-5.5-.5-5.5z"></path><path d="M425.2 492c-3.5 0-3 5.4.5 5.4s2.9-5.4-.5-5.4z"></path><path d="M432.2 511.2l-1 .2a2.8 2.8 0 0 0-1.9 2.9 2.9 2.9 0 0 0 2.3 2.6h.3c1.6 0 3.1-.7 3.4-2.4a3 3 0 0 0-3.1-3.3z"></path><path d="M443.4 525.8c-3.6 0-3.1 5.6.5 5.6s3.1-5.6-.5-5.6z"></path><path d="M460.2 526.9c-3.2 0-2.8 5 .5 5s2.7-5-.5-5z"></path><path d="M476.1 513.9a2.6 2.6 0 0 0-4.1-.2h-.2a2.6 2.6 0 0 0-.1 3.1 2.5 2.5 0 0 0 3.5.7c.1-.1.2-.1.2-.2a2.6 2.6 0 0 0 .7-3.4z"></path><path d="M485.4 497.1c-3.6 0-3 5.5.5 5.5s3.1-5.5-.5-5.5z"></path><path d="M491.8 476.8a2.7 2.7 0 0 0 .5 5.3 2.6 2.6 0 0 0 2.4-2.8 2.7 2.7 0 0 0-2.9-2.5z"></path><path d="M688.2 422.3c-4 0-3.4 6.2.5 6.2s3.5-6.2-.5-6.2z"></path><path d="M687.4 441c-4.9 0-4.2 7.6.7 7.6s4.2-7.6-.7-7.6z"></path><path d="M688.2 464.8c-4 0-3.4 6.2.5 6.2s3.5-6.2-.5-6.2z"></path><path d="M689.7 488.5c-4.2 0-3.6 6.5.5 6.5s3.6-6.5-.5-6.5z"></path><path d="M694.9 510.8c-4.3 0-3.7 6.6.6 6.6s3.7-6.6-.6-6.6z"></path><path d="M707.6 524.9c-4.3 0-3.7 6.7.5 6.7s3.7-6.7-.5-6.7z"></path><path d="M730.3 522.3a3 3 0 0 0-3.2-1 2.6 2.6 0 0 0-1.7 2.8 1.6 1.6 0 0 0 .2 1 3.1 3.1 0 0 0 .8 1.1 2.6 2.6 0 0 0 1.9.6 2.5 2.5 0 0 0 2.4-2.2 3.8 3.8 0 0 0-.4-2.3z"></path><path d="M758.3 438.1c-3.9 0-3.3 5.9.5 5.9s3.3-5.9-.5-5.9z"></path><path d="M759.1 455.6a3.4 3.4 0 0 0-3.9 3.6 5.2 5.2 0 0 0 .7 2.1c1.2 2.4 4.5 1.5 5.5-.5a2 2 0 0 0 .4-1.3 3.4 3.4 0 0 0-2.7-3.9z"></path><path d="M757.5 477.8c-4.1 0-3.5 6.3.5 6.3s3.5-6.3-.5-6.3z"></path><path d="M756.6 497.5c-3.4 0-2.9 5.3.5 5.3s2.9-5.3-.5-5.3z"></path><path d="M757.9 519.5c-4.2 0-3.6 6.4.5 6.4s3.6-6.4-.5-6.4z"></path><path d="M754.8 540.4c-4.7 0-4 7.3.7 7.3s4-7.3-.7-7.3z"></path><path d="M751.7 561.5a3.2 3.2 0 0 0-2.9 3.6 3.2 3.2 0 0 0 3.5 2.9 3.2 3.2 0 0 0 2.9-3.5 3.3 3.3 0 0 0-3.5-3z"></path><path d="M739.8 580.1l-.5.2c-2.2 1.1-2.7 4.2-.2 5.4l.4.2a3.2 3.2 0 0 0 4.4-2.3c.4-2.2-2-4.6-4.1-3.5z"></path><path d="M722.1 587.5c-4.1 0-3.5 6.3.6 6.3s3.5-6.3-.6-6.3z"></path><path d="M700.9 590.9c-3.8 0-3.3 5.9.5 5.9s3.2-5.9-.5-5.9z"></path><path d="M757.9 419.7c-3.6 0-3.1 5.5.5 5.5s3.1-5.5-.5-5.5z"></path><path d="M745.2 512.6c-1.1-1.9-3.8-1.2-4.7.4a3.1 3.1 0 0 0-.1 2.3 2.6 2.6 0 0 0 2.8 1.8 2.8 2.8 0 0 0 2.5-2.3 2.9 2.9 0 0 0-.5-2.2z"></path><path d="M628.2 419.4h-.1a2.9 2.9 0 0 0-3.5-.2h-.1a3.3 3.3 0 0 0-1.3 2.8 3 3 0 1 0 5-2.6z"></path><path d="M626.7 435.3a3.2 3.2 0 1 0 3.5 2.9 3.3 3.3 0 0 0-3.5-2.9z"></path><path d="M629.3 453.8c-4.2 0-3.6 6.6.6 6.6s3.6-6.6-.6-6.6z"></path><path d="M633.9 473.6c-.4-3.1-5.2-3.5-5.6-.2v.3a2.8 2.8 0 0 0 2.3 3.2 2.8 2.8 0 0 0 3.3-3z"></path><path d="M632.7 488.8c-3.3 0-2.8 5.1.5 5.1s2.8-5.1-.5-5.1z"></path><path d="M637.1 507.2h-.2a2.5 2.5 0 0 0-4-.2h-.2a2.8 2.8 0 1 0 4.4.2z"></path><path d="M635.7 520.5c-4.2 0-3.6 6.5.5 6.5s3.6-6.5-.5-6.5z"></path><path d="M637.6 534.7a2.5 2.5 0 0 0-2.3 2.7 2.7 2.7 0 0 0 2.7 2.3 2.5 2.5 0 0 0 2.3-2.7 2.6 2.6 0 0 0-2.7-2.3z"></path><path d="M863.7 422.2c-3.7 0-3.2 5.7.5 5.7s3.2-5.7-.5-5.7z"></path><path d="M848.5 420.6c-3.4 0-2.9 5.2.4 5.2s2.9-5.2-.4-5.2z"></path><path d="M834.8 422.4a2.4 2.4 0 0 0-.6-.8 2.5 2.5 0 0 0-3.6.3 2.6 2.6 0 0 0 .3 3.6l.9.5a2.3 2.3 0 0 0 2.9-.6 2.6 2.6 0 0 0 .1-3z"></path><path d="M817.7 430.8h-.3c-3.8-.5-3.8 5.6-.2 5.1h.3c2.8-.5 3.2-4.7.2-5.1z"></path><path d="M820.1 449.8a2.7 2.7 0 0 0-4.8-1.5c-1.5 1.7-.1 5 2.3 4.5h.2a2.8 2.8 0 0 0 2.4-2.9z"></path><path d="M836.1 456.8a3 3 0 0 0-2.6 3.1 2.8 2.8 0 0 0 .6 1.6 2.8 2.8 0 0 0 4.4.2 3 3 0 0 0 .7-2.3 2.9 2.9 0 0 0-3.1-2.6z"></path><path d="M854.8 464.6c-3.3 0-2.8 5.1.4 5.1s2.9-5.1-.4-5.1z"></path><path d="M871.8 474.4a2.6 2.6 0 0 0-2.9 2.7.3.3 0 0 1 .1.2c.3 2.7 4.5 3.1 4.8.2 0-.1 0-.2.1-.2a2.6 2.6 0 0 0-2.1-2.9z"></path><path d="M880 489.9c-2.7-2.2-5.7 2.6-2.5 4a2.4 2.4 0 0 0 2.5-4z"></path><path d="M877.5 504.4c-3.8 0-3.3 5.9.5 5.9s3.3-5.9-.5-5.9z"></path><path d="M865.2 517.6a3.2 3.2 0 0 0-2.9 3.5 3.2 3.2 0 0 0 3.4 2.9 3.2 3.2 0 0 0 2.9-3.5 3.2 3.2 0 0 0-3.4-2.9z"></path><path d="M848.9 523.5a.1.1 0 0 1-.1-.1c-1-1.4-3.5-1.8-4.5-.2h-.1a2.8 2.8 0 0 0-.5 2.9 3 3 0 0 0 5.4.2 3 3 0 0 0-.2-2.8z"></path><path d="M825.1 521.9c-3.8 0-3.3 6 .6 6s3.3-6-.6-6z"></path><path d="M803.8 522.1a2.5 2.5 0 0 0-2.3 2.6 2.6 2.6 0 0 0 2.7 2.2 2.4 2.4 0 0 0-.4-4.8z"></path><path d="M609.6 433.8a2.6 2.6 0 0 0-2.3 2.8 2.7 2.7 0 0 0 2.8 2.4 2.6 2.6 0 0 0 2.3-2.8 2.7 2.7 0 0 0-2.8-2.4z"></path><path d="M592.5 421.5h-.3a2.7 2.7 0 0 0-1.3 4 2.6 2.6 0 0 0 4.6-.4l.2-.3c.8-1.8-1.1-4.3-3.2-3.3z"></path><path d="M563.2 445.4c-3.5 0-3 5.5.5 5.5s3-5.5-.5-5.5z"></path><path d="M558.4 466a2.9 2.9 0 0 0-2.9 4.5h.2a2.6 2.6 0 0 0 4.2.2h.2a2.9 2.9 0 0 0-1.7-4.7z"></path><path d="M556.5 487.3c-3.5 0-3 5.5.5 5.5s3.1-5.5-.5-5.5z"></path><path d="M558.2 508.4a2.4 2.4 0 0 0 .4 4.7 2.4 2.4 0 0 0 2.2-2.6 2.5 2.5 0 0 0-2.6-2.1z"></path><path d="M583.8 526.5l-.2-.3a1.8 1.8 0 0 0-2.5.3.2.2 0 0 0-.2.2 2.1 2.1 0 1 0 2.9-.2z"></path><path d="M594.5 507.8a2.5 2.5 0 0 0-.8 4.3 2.5 2.5 0 1 0 .8-4.3z"></path><path d="M600.6 488.5l-1.1.2a2.5 2.5 0 0 0-1.8 2.7 2.7 2.7 0 0 0 2.2 2.4h.5a2.8 2.8 0 0 0 3.1-2.3 2.7 2.7 0 0 0-2.9-3z"></path><path d="M607.5 471.6a2.1 2.1 0 0 0-1.7-.5l-1.3.2a2.7 2.7 0 0 0-1.8 2.8 2.7 2.7 0 0 0 2.2 2.4h1.1a2.8 2.8 0 0 0 2.5-2.3 2.8 2.8 0 0 0-1-2.6z"></path><path d="M610.2 452.3c-3.3 0-2.8 5.1.4 5.1s2.9-5.1-.4-5.1z"></path><path d="M574.7 428.6a2.8 2.8 0 0 0-2.5 3 2.9 2.9 0 0 0 3 2.5 2.8 2.8 0 0 0 2.5-3 2.9 2.9 0 0 0-3-2.5z"></path><path d="M564.9 524.3c-3.2 0-2.7 4.9.5 4.9s2.7-4.9-.5-4.9z"></path><path d="M369.9 376.4c-1.8 0-3.2 2-3.1 3.7a3.5 3.5 0 0 0 3.7 3.1 3.4 3.4 0 0 0 3.1-3.7 3.5 3.5 0 0 0-3.7-3.1z"></path></g></g></g></g></svg>