<svg xmlns="http://www.w3.org/2000/svg" width="495.3" height="875.3" viewBox="0.03271709382534027 -0.004287660121917725 495.3260192871094 875.2042846679688" style=""><g><title>nholiday126_235965926</title><g data-name="Layer 2"><path d="M311 759.4c-.1.5-.1.9-.2 1.4a3.4 3.4 0 0 0 .2-1.4z" fill="#e2794b"></path><path d="M286.3 777.3H285l-.3.4c-.1-.1-.2-.2-.2-.3l-2.1.2c-1.1 15.1-2.2 30.3-3.4 45.5-.6-3.9-1.3-7.9-2-11.8-1.1-6.4-1.7-13.7-3.4-20.4l.9-12.9a71.8 71.8 0 0 1-8-.2 18 18 0 0 1-6.5-.6l-8-.8a18.6 18.6 0 0 1-1 9c-2.2 6-6.7 7.7-11.5 11.1-7.9 5.6-5.5 13.9.8 19.7 9.3 8.5 18 15.9 24 27.3a76.9 76.9 0 0 1 8.9 31.7 73.2 73.2 0 0 1 8.1-.4c3.2-11 5.2-22.3 10.6-32.8a57.5 57.5 0 0 1 11.2-15.2c4.1-3.9 9.1-6.2 13.4-9.8 6.6-5.6 6.9-13.1 2-20-3.9-5.4-8.3-9.6-9.9-16.3a25.2 25.2 0 0 1-.8-5.3c-6.5 2.5-14.7 1.6-21.5 1.9zm-39.1 33.5a3.3 3.3 0 0 1-4.6-.6l-1.3-2a2.4 2.4 0 0 1-.5-1c-.1-.2-.1-.4-.2-.5s-.1-.5 0-.3 0 .2-.1-.2a2 2 0 0 1 0-1.1 1.1 1.1 0 0 1 .3-.8 2.7 2.7 0 0 1 2.8-1.4l.9.4.7.4a4.1 4.1 0 0 1 1.2 1.1l.5.4c.2.3.4.4.1.1l.9 1a3.2 3.2 0 0 1-.7 4.5zm49.1-.4a27.2 27.2 0 0 0-.1-2.8c.2.8.3 1.6.5 2.4a.8.8 0 0 1-.4.4zm14.7-3.7c1.5.9 2.2 3.4.8 4.8l-1.9 2.1a3 3 0 1 1-4.6-3.8l.7-1h.1l.3-.6a3.2 3.2 0 0 1 4.6-1.5z" fill="#e2794b"></path><path d="M109.3 441.6c-11.1-.6-21.5-7.4-25.6-18-3.5-8.8-4.9-19.6-15.3-22.7s-20.1 3.2-29.9 3.6c-13.1.4-25.5-4.9-35-13.6-1.2-1.1-2.8 0-3 1.2a1 1 0 0 0-.3 1.4A290.4 290.4 0 0 0 54 440.4c9.6 6.6 19.6 12.8 29.8 18.5l11.7 6.6z" fill="#ff9a66"></path><path d="M454.8 742l.4-.2a6.7 6.7 0 0 1-.6-1.2 6.8 6.8 0 0 1 .2 1.4z" fill="#ff9a66"></path><path d="M464 745.5c-4.5 3-9.1 6.4-14 9a2.5 2.5 0 0 1-1.4.4 3.4 3.4 0 0 1-3.1 0 82.4 82.4 0 0 1-9-5.4c8.5 12.6 27.9 20.2 24.7 37.4-1.7 9.2-9.6 15.8-14.7 23.2s-7.4 13.2-6.5 21a3.2 3.2 0 0 0 5 2.2l33.1-25.6c6.3-4.8 15.7-10.4 17.1-19 1.6-10.1-9.3-20.3-14.6-27.6s-9.8-13.7-14.7-20.6a3.4 3.4 0 0 0-1.8-2.3l-1.2-1.6c.2.7.5 1.5.7 2.3 2.2 1.4 3.2 4.8.4 6.6z" fill="#ff9a66"></path><path d="M306.4 808.1l-.3.6h-.1l-.7 1a3 3 0 1 0 4.6 3.8l1.9-2.1c1.4-1.4.7-3.9-.8-4.8a3.2 3.2 0 0 0-4.6 1.5z" fill="#ff9a66"></path><path d="M245 803.6z" fill="#ff9a66"></path><path d="M247 805.3c.3.3.1.2-.1-.1l-.5-.4a4.1 4.1 0 0 0-1.2-1.1l-.7-.4-.9-.4a2.7 2.7 0 0 0-2.8 1.4 1.1 1.1 0 0 0-.3.8 2 2 0 0 0 0 1.1c.1.4.2.5.1.2s-.1-.2 0 .3.1.3.2.5a2.4 2.4 0 0 0 .5 1l1.3 2a3.3 3.3 0 0 0 4.6.6 3.2 3.2 0 0 0 .7-4.5z" fill="#ff9a66"></path><path d="M260.4 193.9a8.3 8.3 0 0 1-.4-1.5 147.9 147.9 0 0 1-8-42.7c-.4-11.2-1.1-28.8 6-39.4 3.7-8.4 13.1-13 21.9-14.9a49.7 49.7 0 0 1 10.9-.9 19 19 0 0 0 4.6 1.5 10.9 10.9 0 0 0 9.6-3l.5-.6c3.1-3.5 3.4-7.7 3.4-12s-.2-8.1 1.2-11.8a3 3 0 0 0-2.3-4 3.2 3.2 0 0 1-3.6-2.7c-1-6.7-2-13.4-2.7-20.2a2.3 2.3 0 0 1 1.8-2.7l.3-.3c1.5 4.6 3.3 9 4.8 13.5.9 2.7 4.6 1.4 4.6-1.1a36.3 36.3 0 0 1 5-18.4c2.5-4.2 6.3-7 9.5-10.4a23.2 23.2 0 0 1 14.2-2.5c10.8 1.6 20.6 12.4 18.7 23.7a3.3 3.3 0 0 1-.1 3.3h-.1c-.1.1-.3.2-.4.4a19.4 19.4 0 0 1-3.1 2.6 31.7 31.7 0 0 1-4 1.4c-2.3.9-2 4.5.5 4.8a10.4 10.4 0 0 0 3.9-.4c-.9 4.4-1.3 8.9-1.9 13.4l.8.2 1.1.5a67.7 67.7 0 0 1 7.5-2.8 6.1 6.1 0 0 0-.5-1.2c1.4-1.6 2.4-3.4 4.4-4.2a7.6 7.6 0 0 1 4.7-.3l1.2 3a3.2 3.2 0 0 1 1 1 118.7 118.7 0 0 1 5.4 11.4c1.1 2.8 2.8 5.7 3 8.7a211.5 211.5 0 0 0 23-8.5c.3-4.8-.4-9.9.3-14.7a5 5 0 0 1 .2-4.6c-1.9-8.4-5.6-16.2-12.7-22-9.2-7.3-24.1-8.9-33.9-2.1-1.9-17.4-20.1-31-36.6-33.1-19.9-2.5-35.9 10.8-47.6 25.4-15.7 19.5-29.7 40.6-44 61-7.5 10.7-14.9 21.4-22.3 32.2s-15.7 21.7-21.9 33.3a2.6 2.6 0 0 0 0 2.7c.1.3.1.6.2.9 3.7 9.7 14.3 18.4 22.5 24.5a116.6 116.6 0 0 0 13.4 8.5c4.5 2.4 9.8 5.9 15.1 5.5a2.4 2.4 0 0 0 2.8-.6c1.6-1.7 3.5-3.1 5-5 .2 2.1.6 4.1.7 5.8a3.3 3.3 0 0 0 1.9 2.8 2 2 0 0 0 .4.8 13.3 13.3 0 0 0 5.2 3.3 45.6 45.6 0 0 1 2.6-5.9 2.9 2.9 0 0 1 2.3-1.6z" fill="#403d33"></path><path d="M349.6 84.5a19.5 19.5 0 0 1-12.9 7.3 8.1 8.1 0 0 1 .1 2.2l-5.2.7a199.6 199.6 0 0 0 30.8-3.9c7.2-1.5 14.4-3.4 21.4-5.5-.2-3-1.9-5.9-3-8.7a118.7 118.7 0 0 0-5.4-11.4 3.2 3.2 0 0 0-1-1c1.3 3.3 2.5 6.6 3.7 9.9s-3.5 7.1-6.2 4.8a3.8 3.8 0 0 1-3-2.4c-1.4-3.2-2.8-6.4-4.3-9.6a67.7 67.7 0 0 0-7.5 2.8l-2.1 1c-.9 4.9-2.2 9.7-5.4 13.8z" fill="#ff9a66"></path><path d="M312.6 79.9l.4.2c4.3 4.4 13.8 6.2 18.7 5.2l3-1c5.7 0 9.4-4.4 11.3-9.9h-.2a7.7 7.7 0 0 1-6.3.2c-2.2-.9-3.9-2.9-2.9-5.3a1.2 1.2 0 0 1 1-.8 4.9 4.9 0 0 1 2.4.4l1.2.4a3.1 3.1 0 0 0 2.5-.3 2.9 2.9 0 0 1 3.4 1.1 4.7 4.7 0 0 0 .3-1.7c.2-1.2.4-2.4.5-3.6-1.5 1.4-4.1.8-5.6-.8a3.3 3.3 0 0 1-1.7-3.4c.2-2.9 1.6-5.7 2.6-8.3l1.2-3.3c1.1-1 2.2-2 3.4-2.9 2.7-2 6.1-2.6 8.8-4.5.2-.1.3-.3.4-.4a4.2 4.2 0 0 1 3.4 2.1c1.9-11.3-7.9-22.1-18.7-23.7a23.2 23.2 0 0 0-14.2 2.5c-3.2 3.4-7 6.2-9.5 10.4a36.3 36.3 0 0 0-5 18.5c0 2.5-3.7 3.8-4.6 1.1-1.5-4.5-3.3-8.9-4.8-13.5l-.3.3a2.3 2.3 0 0 0-1.8 2.7c.7 6.8 1.7 13.5 2.7 20.2a3.2 3.2 0 0 0 3.6 2.7 3 3 0 0 1 2.3 4c-1.4 3.7-1.2 7.8-1.2 11.8l.4.2a3.1 3.1 0 0 1 3.3-.6zm16.1-29.8a7 7 0 0 1-3.1-.7 1.8 1.8 0 0 1-.2-3.1 6.6 6.6 0 0 1-.6-3.9 3.4 3.4 0 0 1 .6-1.6 4.6 4.6 0 0 1 1.8-2.1 4 4 0 0 1 3.2-.2h.3a3.1 3.1 0 0 1 1 .5c0 .1.1.1.1.2s.5.4.7.6l1.5 1.9h.3a2.7 2.7 0 0 1 2.2 3.8v.4l-.3.9a3.3 3.3 0 0 1-.4 1.7 4 4 0 0 1-7.1 1.6z" fill="#ff9a66"></path><path d="M306.5 95c8.3.4 16.8 0 25-.3h.1l5.2-.7a8.1 8.1 0 0 0-.1-2.2 19.5 19.5 0 0 0 12.9-7.3c3.2-4.1 4.5-8.9 5.4-13.8a11.1 11.1 0 0 1 .2-1.7c.6-4.5 1-9 1.9-13.4a10.4 10.4 0 0 1-3.9.4c-2.5-.3-2.8-3.9-.5-4.8a31.7 31.7 0 0 0 4-1.4 19.4 19.4 0 0 0 3.1-2.6c.1-.2.3-.3.4-.4h.1a3.3 3.3 0 0 0 .1-3.3 4.2 4.2 0 0 0-3.4-2.1c-.1.1-.2.3-.4.4-2.7 1.9-6.1 2.5-8.8 4.5-1.2.9-2.3 1.9-3.4 2.9l-1.2 3.3c-1 2.6-2.4 5.4-2.6 8.3a3.3 3.3 0 0 0 1.7 3.4c1.5 1.6 4.1 2.2 5.6.8-.1 1.2-.3 2.4-.5 3.6a4.7 4.7 0 0 1-.3 1.7.9.9 0 0 1 .3.6 2.9 2.9 0 0 1-1.4 3.6c-1.9 5.5-5.6 9.9-11.3 9.9l-3 1c-4.9 1-14.4-.8-18.7-5.2l-.4-.2a3.1 3.1 0 0 0-3.3.7l-.4-.2c0 4.3-.3 8.5-3.4 12a3.2 3.2 0 0 1 1 2.5z" fill="#e2794b"></path><path d="M336.5 46.1v-.4l-.3.6a9.9 9.9 0 0 1-7.5 3.8 4 4 0 0 0 7.1-1.4 3.3 3.3 0 0 0 .4-1.7z" fill="#e2794b"></path><path d="M331.9 42.8a2.7 2.7 0 0 1 2.4-.9h-.3l-1.5-1.9c-.2-.2-.4-.5-.7-.6s-.1-.1-.1-.2a3.1 3.1 0 0 0-1-.5h-.3a4 4 0 0 0-3.2.2 4.6 4.6 0 0 0-1.8 2.1 3.4 3.4 0 0 0-.6 1.6 6.6 6.6 0 0 0 .6 3.9l.3-.2a14.3 14.3 0 0 0 6.2-3.5z" fill="#e2794b"></path><path d="M368.9 76.5a3.8 3.8 0 0 0 3 2.4c2.7 2.3 7.6-1.1 6.2-4.8s-2.4-6.6-3.7-9.9l-1.2-3a7.6 7.6 0 0 0-4.7.3c-2 .8-3 2.6-4.4 4.2a6.1 6.1 0 0 1 .5 1.2c1.5 3.2 2.9 6.4 4.3 9.6z" fill="#e2794b"></path><path d="M305.4 97.2h.1l.9-.2h-.9s-.1.1-.1.2z" fill="#f4c3be"></path><path d="M312.1 329.8c1-5.4 2.2-10.8 3.6-16.1-.1-.9-.3-1.7-.4-2.6a2.6 2.6 0 0 1-.3-3.8c-.3-6.7.5-13.7 1.1-20 .4-4.4 1-8.7 1.7-13-15.7 11.6-36 24-55.8 18.8a34.4 34.4 0 0 1-10.4-4.9 58.1 58.1 0 0 0-1.1 6.9c-.4 2.3-1.1 4.8-1.4 7.4a225.2 225.2 0 0 1 62.7 27.1z" fill="#f4c3be"></path><path d="M293.2 102.3a19 19 0 0 1 2.2-3.8c.5-.8 1-1.6 1.7-1.7l-1.2.2c-.5 0-.7-.7-.5-1.2a14.3 14.3 0 0 1-4.6-1.3 39.9 39.9 0 0 0-10.9.9c-8.8 1.8-18.2 6.5-21.9 14.9-7.1 10.6-6.4 28.2-6 39.4a148.6 148.6 0 0 0 8 42.7 8.3 8.3 0 0 0 .4 1.5c.6 2.9 1.1 5.8 1.9 8.7-1.9 9.6-3.7 19.1-2.2 29.1a15.1 15.1 0 0 0 1.7 6.1 14.4 14.4 0 0 1-12.1-2.1 1.2 1.2 0 0 0-1.7 1.6c7.1 9.7 20.4 5.2 27.6-1.7a74.7 74.7 0 0 0 9.3-11.7l.5-.6a375.7 375.7 0 0 0 40.5-54.1 4 4 0 0 1-1.2-3.4c.8-3.6 3.8-6.9 7.5-7.3a48.7 48.7 0 0 1 6.4-8.9l-8.9 2.9c-19.3 5.6-41.7 9.4-61.6 4.4a.9.9 0 0 1 .1-1.7c9.5-.9 18.9-1.5 28.3-2.5-12.4-14.2-13.9-35.3-3.3-50.4z" fill="#f4c3be"></path><path d="M357.3 251.5a11.7 11.7 0 0 0-.5 1.1l.6-1.2z" fill="#ff4217"></path><path d="M401.7 290.9a4.4 4.4 0 0 1 1 1.9l.6-2.2h-.2z" fill="#ff4217"></path><path d="M348.1 145.9c-3.2 1.3-6.3 2.6-9.5 3.7a48.7 48.7 0 0 0-6.4 8.9h1.8a3.5 3.5 0 0 1 2 1 2.8 2.8 0 0 1 2.3 1.4c2.1 3.1 4.3 6.2 6.4 9.4l1.4 1.8c10.1 12.6 20 25.3 30 38a3.3 3.3 0 0 1 2.9 1.9l4.6-4.7a193.5 193.5 0 0 0 13.1-15.4c3.9-5.3 7.2-11.4 11.6-16.2 1.1-1.3 3.8-.5 3.3 1.4-3.7 12.5-14.1 24.9-22.5 34.6a141.5 141.5 0 0 1-10.8 11.1c-1.5 6.1-4.3 12.4-6.4 17.4a176.4 176.4 0 0 1-13.4 26.8 180.2 180.2 0 0 1-17 23.5c-2.4 2.8-5 6-7.9 8.9 22.1-7.9 46-12.6 68.8-15.6a3 3 0 0 1 2.5.6l14.4-54.7c5.5-20.8 13-41.8 15.9-63.1 2.1-15.4-.2-32.8-14.7-41.6l-3.6-1.9c-14.5 5.9-29.2 11-43.9 15.6q-12.5 3.9-24.9 7.2zm39.8 114a20.2 20.2 0 0 1-2.1 3 3.9 3.9 0 0 1-.8 1l-.3.3h-.1a4.6 4.6 0 0 1-2.3 1.4 2.7 2.7 0 0 1-3.9-2.5 5.4 5.4 0 0 1 .2-2.8c-.1.6.3-.9.3-.8l.3-.7a33.7 33.7 0 0 1 1.9-3.2c1.2-2.1 3.6-3.2 5.8-1.8a4.1 4.1 0 0 1 1 6.1z" fill="#ff4217"></path><path d="M315.7 313.7l.6-2.2a1.8 1.8 0 0 1-1-.4c.1.9.3 1.7.4 2.6z" fill="#e0391e"></path><path d="M324.7 165.8a4 4 0 0 0 1.2 3.4l.2-.2a4.1 4.1 0 0 0 2.1 2.4c.9 2.6 3 4.7 4.9 7.2l11.4 14.6c7.1 9.2 13.8 19.8 22.4 27.6a3.4 3.4 0 0 0 1.1.7 5.7 5.7 0 0 1-1.2 1.8 201.3 201.3 0 0 1-46 48.8c-.9.7-1.9 1.5-3 2.2-.7 4.3-1.3 8.6-1.7 13-.6 6.3-1.4 13.3-1.1 20l.9-.6c5.7-2.7 11.7-5.1 17.7-7.3 2.9-2.9 5.5-6.1 7.9-8.9a180.2 180.2 0 0 0 17-23.5 176.4 176.4 0 0 0 13.4-26.8c2.1-5 4.9-11.3 6.4-17.4a141.5 141.5 0 0 0 10.8-11.1c8.4-9.7 18.8-22.1 22.5-34.6.5-1.9-2.2-2.7-3.3-1.4-4.4 4.8-7.7 10.9-11.6 16.2a193.5 193.5 0 0 1-13.1 15.4L379 212a3.3 3.3 0 0 0-2.9-1.8c-10-12.7-19.9-25.4-30-38l-1.4-1.8c-2.1-3.2-4.3-6.3-6.4-9.4a2.8 2.8 0 0 0-2.3-1.4 3.5 3.5 0 0 0-2-1h-1.8c-3.7.3-6.7 3.6-7.5 7.2zm32.6 85.7l3.6-7.5c-1.1 2.5-2.3 4.9-3.5 7.4l-.6 1.2a11.7 11.7 0 0 1 .5-1.1z" fill="#e0391e"></path><path d="M381.1 255.7a33.7 33.7 0 0 0-1.9 3.2l-.3.7c0-.1-.4 1.4-.3.8a5.4 5.4 0 0 0-.2 2.8 2.7 2.7 0 0 0 3.9 2.5 4.6 4.6 0 0 0 2.3-1.4h.1l.3-.3a3.9 3.9 0 0 0 .8-1 20.2 20.2 0 0 0 2.1-3 4.1 4.1 0 0 0-1-6c-2.2-1.5-4.6-.4-5.8 1.7z" fill="#e0391e"></path><path d="M306.9 602.6a139 139 0 0 1-11-24c-.1 1.8-.3 3.5-.4 5.2-.7 11.6-1.4 23.2-2.2 34.9-1.5 22.7-2.9 45.5-4.5 68.3q-3.2 45.3-6.4 90.7l2.1-.2h1.8c6.8-.3 15 .6 21.5-1.8l.7-.2a3.4 3.4 0 0 0 1.1-5.6 63.6 63.6 0 0 1 1.2-8.9c.1-.5.1-.9.2-1.4 5.7-28.5 24.3-51.9 35.2-79.1a104.9 104.9 0 0 0 6-20c-.7-.7-1.3-1.5-2-2.3-15.4-17.9-31.6-35.3-43.3-55.6z" fill="#4c5b31"></path><path d="M342.4 637.1a.1.1 0 0 0-.1-.1z" fill="#4c5b31"></path><path d="M359 298.9c-14 3.5-27.4 8.4-41.2 12.6a3.8 3.8 0 0 1-1.5 0l-.6 2.2c-1.4 5.3-2.6 10.7-3.6 16.1a2.9 2.9 0 0 1 .4 3.8 7.7 7.7 0 0 1 .7 1.7c2.5 11.9-13.2 188-16.4 222.9a154 154 0 0 1-.9 20.4 139 139 0 0 0 11 24c11.7 20.3 27.9 37.7 43.3 55.4.7.8 1.3 1.6 2 2.3 15.3 17.7 30.6 35.3 46.1 52.8 11.4 12.9 23.6 26.7 38.2 36.4a82.4 82.4 0 0 0 9 5.4 3.4 3.4 0 0 0 3.1 0 2.5 2.5 0 0 0 1.4-.4c4.9-2.6 9.5-6 14-9 2.8-1.8 1.8-5.2-.4-6.6-.2-.8-.5-1.6-.7-2.3-2.7-8.3-6-16.2-8-24.8s-3.8-18.2-5.7-27.3c-3.6-17.7-8-35.7-18.1-50.9S408 611 394.5 601.7l-3.6-3.4c-9.6-9-19.4-17.9-24.1-30.5-9.6-25.4.8-53.6 13-76.2 22.8-41.8 61.3-81.7 57.3-132.9-2-24.8-14.6-49.1-34.3-64.5a3.4 3.4 0 0 0-.1-1.4 4.4 4.4 0 0 0-1-1.9 386.8 386.8 0 0 0-42.7 8zm-16.6 338.2h-.1a.1.1 0 0 1 .1 0zM453.8 739l-.7-.9c0-.1.1-.2.1-.3zm-30.2-70.2a4.6 4.6 0 0 1-7.5 5.4c-2-3-5.1-6.8-4.3-10.6a3.2 3.2 0 0 1 3.6-2.6c3.8.7 6.2 4.7 8.2 7.8zm31.2 73.2a6.8 6.8 0 0 0-.2-1.4 6.7 6.7 0 0 0 .6 1.2zm-50.9-388a42.1 42.1 0 0 1-.4 6.2l.4-6.1zm14.3 9.2c-.5 1.8-1.3 3.6-2 5.4s-1.3 3.8-3 5.2-5.3-.1-5.8-2.6.5-3.9 1.1-5.7a38.6 38.6 0 0 1 1.6-4.8 4.2 4.2 0 0 1 5.1-2.3c1.9.5 3.6 2.7 3 4.8zm-56.6 146.7a13.4 13.4 0 0 0-.7 1.8l.3-1.2a2.1 2.1 0 0 1 .4-.6z" fill="#68794b"></path><path d="M227 499.5a33.4 33.4 0 0 0 5.4-12 36.8 36.8 0 0 0 .4-12.4c-.5-3.5-1.8-7-1.5-10.5 0-.1 0-.2.1-.2-6.3-20-17.2-51-28-64.8a38.6 38.6 0 0 1-6.2-12.1.9.9 0 0 1 .1.5 2.4 2.4 0 0 0-1.1 2c.1 15.8 4.4 32 7.8 47.4s6.9 29.4 11.1 43.9c2.1 7.4 4.4 14.8 6.8 22.2l1.8-.4a37 37 0 0 0 3.3-3.6z" fill="#32443b"></path><path d="M266.5 777.9a71.8 71.8 0 0 0 8 .2l-.9 12.9c1.7 6.7 2.3 14 3.4 20.4.7 3.9 1.4 7.9 2 11.8 1.2-15.2 2.3-30.4 3.4-45.5q3.3-45.5 6.4-90.7c1.6-22.8 3-45.6 4.5-68.3.8-11.7 1.5-23.3 2.2-34.9.1-1.7.3-3.4.4-5.2a154 154 0 0 0 .9-20.4c-.3 3.9-.5 6.1-.5 6.1s-7.4 23-55.8 1l.9 6.7c1.2 13.5-.3 27.6-6.7 39.7s-16.6 19.4-19.2 32.8.8 24.8 4.2 36.5c4.4 15.4 9.2 30.8 13.8 46.3 2.5 8.4 5 16.9 7.6 25.3 1.8 6 3.8 12 7.6 17-3.3 1-3.9 6.3.1 6.6l3.2.3 8 .8a18 18 0 0 0 6.5.6zm-34.7-117.3a12.4 12.4 0 0 1-1.8-3.4 5.5 5.5 0 0 1-.2-2.2l.3-.9c-.1.2-.1.4-.2.6-.4-1.9 2-3.4 3.6-2.6h.1c1.9.2 3.3 1.6 4.8 3.1a24.1 24.1 0 0 1 4.5 6.1c1.8 4-3.5 7.6-6.7 4.9a24.2 24.2 0 0 1-4.4-5.6z" fill="#32443b"></path><path d="M296.3 564.3s.2-2.2.5-6.1c3.2-34.9 18.9-211 16.4-222.9a7.7 7.7 0 0 0-.7-1.7 3 3 0 0 1-3.9 1.3 303.8 303.8 0 0 0-63.1-27.9l-.6-.3a136.4 136.4 0 0 1-26.7 23.8c-16.4 11.3-27 36.6-21 57a38.6 38.6 0 0 0 6.2 12.1c10.8 13.8 21.7 44.8 28 64.8-.1 0-.1.1-.1.2-.3 3.5 1 7 1.5 10.5a36.8 36.8 0 0 1-.4 12.4 33.4 33.4 0 0 1-5.4 12 37 37 0 0 1-3.3 3.6l-1.8.4a17.4 17.4 0 0 1-6.7-.4c-18.8-4.6-43.7-40.1-57.9-50.8s-47-12.4-47-12.4l-1 1.7-13.8 23.9-.5 1c20.6 17.9 81.8 66.5 137.4 94.9 2.9 1.5 5.5 2.7 8.1 3.9 48.4 22 55.8-1 55.8-1zm-78.2-194.1a36.2 36.2 0 0 1 3.7 5.6c1.3 2.3 1 5.1-1.5 6.5s-5.1.1-6.3-2.2l-1.5-3c-.4-1.1-.8-2.2-1.1-3.2-1.1-4.2 3.8-7.1 6.7-3.7z" fill="#4c5b54"></path><path d="M317.8 274.3c1.1-.7 2.1-1.5 3-2.2a201.3 201.3 0 0 0 46-48.8 5.7 5.7 0 0 0 1.2-1.8 3.4 3.4 0 0 1-1.1-.7c-8.6-7.8-15.3-18.4-22.4-27.6l-11.4-14.6c-1.9-2.5-4-4.6-4.9-7.2a4.1 4.1 0 0 1-2.1-2.4l-.2.2a375.7 375.7 0 0 1-40.5 54.1l-.5.6a74.7 74.7 0 0 1-9.3 11.7c-7.2 6.9-20.5 11.4-27.6 1.7a1.2 1.2 0 0 1 1.7-1.6 14.4 14.4 0 0 0 12.1 2.1 15.1 15.1 0 0 1-1.7-6.1c-1.5-10 .3-19.5 2.2-29.1-.8-2.9-1.3-5.8-1.9-8.7a2.9 2.9 0 0 0-2.3 1.6 45.6 45.6 0 0 0-2.6 5.9l-.9 2.6c-11 14.7-20.7 30.9-20.1 50 .5 13.2 6.4 26.7 17.1 34.2a34.4 34.4 0 0 0 10.4 4.9c19.8 5.2 40.1-7.2 55.8-18.8zm-65.3-5.9a3.9 3.9 0 0 1 3.8-1.7c2.3.2 4.7 1.4 6.8 2.4a4.5 4.5 0 0 1 2.2 5.8 4.4 4.4 0 0 1-5.7 2.1 21.3 21.3 0 0 1-7-4.4c-1-1.1-.8-3-.1-4.2z" fill="#ff9a66"></path><path d="M463.1 71.5c-10.6-19-34.1-18.1-52.7-15.8a4.2 4.2 0 0 0-3.1 1.8 5 5 0 0 0-.2 4.6c-.7 4.8 0 9.9-.3 14.7 4.9-2.1 9.6-4.4 14.4-6.9a128.7 128.7 0 0 1-17.6 11.8 159.2 159.2 0 0 1-16.1 7.8c-2.7 1.1-5.5 1.9-8.2 3.1-4.6 1.2-9.3 2.3-14 3.2a222.5 222.5 0 0 1-34.5 3.2 163.9 163.9 0 0 1-24.4-2l-.9.2h-.1a6.1 6.1 0 0 1-.7 1 35.4 35.4 0 0 0-6 7 5.4 5.4 0 0 1-1.6 2.5c-8 14.3-6 32.3 7.5 44.1l-8.1.9c-9.4 1-18.8 1.6-28.3 2.5a.9.9 0 0 0-.1 1.7c19.9 5 42.3 1.2 61.6-4.4l8.9-2.9c3.2-1.1 6.3-2.4 9.5-3.7q12.4-3.3 24.9-7.2c14.7-4.6 29.4-9.7 43.9-15.6 8.8-3.5 17.5-7.4 26-11.6 15.1-7.6 30.1-22 20.2-40zm-25.5 18.2a2.5 2.5 0 0 1-2.1-2.2c-.3-2.2.8-3.9 2.3-5.4a33.2 33.2 0 0 1 3.8-3.7c3.6-2.9 8.7 2.4 5.6 5.8-1.3 1.3-2.7 2.4-4.1 3.6s-3.4 2.4-5.5 1.9z" fill="#ff9a66"></path><path d="M362.4 90.8a199.6 199.6 0 0 1-30.8 3.9h-.1c-8.2.3-16.7.7-25 .3a3.2 3.2 0 0 0-1-2.6l-.5.6a10.8 10.8 0 0 1-9.6 2.8c-.2.5 0 1.2.5 1.2l1.2-.2c-.7.1-1.2.9-1.7 1.7a18.1 18.1 0 0 0-2.2 3.7c-10.7 15.1-9.1 36.3 3.3 50.5l8.1-.9c-13.5-11.9-15.5-29.8-7.5-44.1a5.4 5.4 0 0 0 1.6-2.5 35.4 35.4 0 0 1 6-7 6.1 6.1 0 0 0 .7-1c0-.1.1-.2.1-.3h.9a163.9 163.9 0 0 0 24.4 2 222.5 222.5 0 0 0 34.5-3.2c4.7-.9 9.4-2 14-3.2 2.7-1.2 5.5-2 8.2-3.1a159.2 159.2 0 0 0 16.1-7.8 128.7 128.7 0 0 0 17.6-11.8c-4.8 2.5-9.5 4.8-14.4 6.9a211.5 211.5 0 0 1-23 8.5c-7 2.2-14.2 4.1-21.4 5.6z" fill="#fff"></path><path d="M333.6 299.4c-6 2.2-12 4.6-17.7 7.3l-.9.6a2.6 2.6 0 0 0 .3 3.8 1.8 1.8 0 0 0 1 .4 3.8 3.8 0 0 0 1.5 0c13.8-4.2 27.2-9.1 41.2-12.6a386.8 386.8 0 0 1 42.7-8l1.4-.2h.2c3.2-.6 3.5-4.5 1.6-6.2a3 3 0 0 0-2.5-.6c-22.8 2.9-46.7 7.6-68.8 15.5z" fill="#403d33"></path><path d="M308.6 334.9a3 3 0 0 0 3.9-1.3 2.9 2.9 0 0 0-.4-3.8l-.3-.2a225.2 225.2 0 0 0-62.7-27.1l-2-.6c-2.7-.7-4.2 3.3-2.2 4.8l.6.3a303.8 303.8 0 0 1 63.1 27.9z" fill="#fff"></path><path d="M336.2 46.3l.3-.6a2.7 2.7 0 0 0-2.2-3.8 2.7 2.7 0 0 0-2.4.9 14.3 14.3 0 0 1-6.2 3.3l-.3.2a1.8 1.8 0 0 0 .2 3.1 7 7 0 0 0 3.1.7 9.9 9.9 0 0 0 7.5-3.8z" fill="#403d33"></path><path d="M212.5 377.1l1.5 3c1.2 2.3 3.8 3.6 6.3 2.2s2.8-4.2 1.5-6.5a36.2 36.2 0 0 0-3.7-5.6c-2.9-3.4-7.8-.5-6.7 3.7.3 1 .7 2.1 1.1 3.2z" fill="#32443b"></path><path d="M415.2 358.4a4.2 4.2 0 0 0-5.1 2.3 38.6 38.6 0 0 0-1.6 4.8c-.6 1.8-1.5 3.7-1.1 5.7s3.5 4.5 5.8 2.6 2.3-3.2 3-5.2 1.5-3.6 2-5.4-1.1-4.3-3-4.8z" fill="#4c5b31"></path><path d="M411.8 663.6c-.8 3.8 2.3 7.6 4.3 10.6a4.6 4.6 0 0 0 7.5-5.4c-2-3.1-4.4-7.1-8.2-7.8a3.2 3.2 0 0 0-3.6 2.6z" fill="#4c5b31"></path><path d="M242.9 661.3a24.1 24.1 0 0 0-4.5-6.1c-1.5-1.5-2.9-2.9-4.8-3.1h-.1c-1.6-.8-4 .7-3.6 2.6.1-.2.1-.4.2-.6l-.3.9a5.5 5.5 0 0 0 .2 2.2 12.4 12.4 0 0 0 1.8 3.4 24.2 24.2 0 0 0 4.4 5.6c3.2 2.7 8.5-.9 6.7-4.9z" fill="#4c5b54"></path><path d="M252.6 272.6a21.3 21.3 0 0 0 7 4.4 4.4 4.4 0 0 0 5.7-2.1 4.5 4.5 0 0 0-2.2-5.8c-2.1-1-4.5-2.2-6.8-2.4a3.9 3.9 0 0 0-3.8 1.7c-.7 1.2-.9 3.1.1 4.2z" fill="#e2794b"></path><path d="M447.2 84.2c3.1-3.4-2-8.7-5.6-5.8a33.2 33.2 0 0 0-3.8 3.7c-1.5 1.5-2.6 3.2-2.3 5.4a2.5 2.5 0 0 0 2.1 2.2c2.1.5 3.9-.6 5.5-1.9s2.8-2.3 4.1-3.6z" fill="#e2794b"></path><path d="M343.7 69.1a3.1 3.1 0 0 1-2.5.3L340 69a4.9 4.9 0 0 0-2.4-.4 1.2 1.2 0 0 0-1 .8c-1 2.4.7 4.4 2.9 5.3a7.7 7.7 0 0 0 6.3-.2h.2a2.9 2.9 0 0 0 1.4-3.6.9.9 0 0 0-.3-.6 2.9 2.9 0 0 0-3.4-1.2z" fill="#ff4217"></path></g></g></svg>