<svg xmlns="http://www.w3.org/2000/svg" width="609.3" height="953.7" viewBox="-0.012650728225708008 0.010789871215820312 609.3203125 929.4890747070312" style=""><g><title>love71_334403110</title><path fill="#3D3F4C" d="M345.2 426c-1.3-21.7-2.9-43.3-4.6-65-3.3-43.3-7.2-86.6-12.4-129.7-2.9-23.7-5.7-47.6-11.3-70.8-.1-.5-.9-.3-.9.2.5 42.7 6.6 85.7 10.4 128.3s7 85.8 9.5 128.7c.7 11.9 1.3 23.7 1.6 35.5s-.4 25.3 1 37.9c.7 7.1 11.1 7.4 11.2 0 .6-21.6-3.2-43.5-4.5-65.1z"></path><path fill="#3D3F4C" d="M318.3 492.4c-1.1-6.8-5.4-13.4-8.7-19.4-3.7-6.6-7.7-13-12.2-19.1-8.3-11.6-18.2-21.9-29.4-30.6-22.1-17-52.5-28.5-80.5-22-.4.1-.7.4-.6.8.1.4.4.7.8.6 29.1.2 56.4 8.4 79.2 26.8 10.7 8.8 20.1 19 28 30.4 3.8 5.4 7.2 11 10.4 16.8 3.2 5.8 5.5 12.4 9.6 17.7 1.4 1.7 3.7-.3 3.4-2z"></path><path fill="#3D3F4C" d="M441.4 332c-13.4-1.4-25.2 7.2-33.2 17.3-9.9 12.2-14.7 27.4-17.7 42.6-3.5 18-6.4 36.1-9.5 54.2-1.6 8.8-3.1 17.7-4.6 26.5s-5.1 16.8.2 23.4c1 1.1 2.6 1.3 3.8.5 6.5-4.1 6-12.7 7.1-19.6s2.4-16.3 3.7-24.4l7.5-49.6c2.1-14.5 4.1-30.3 11.1-43.4s18.1-21.3 31.8-26.1c.4-.1.7-.4.6-.8s-.4-.7-.8-.6z"></path><path fill="#FAD3CD" d="M609.1 291.8c-1-3.9-4.7-5.4-8.4-4.9-27.9 3.7-55.7 8-83.4 12.8 18.7-8.6 38.6-14.5 59-17.4 2.9-.4 1.8-4.8-1.1-4.4-9 1.3-17.9 3.1-26.6 5.5 16.7-7.1 33.5-13.9 50.6-20.4 3.5-1.3 6-4.5 5-8.4s-4.9-6.2-8.4-4.9c-9.5 3.6-19 7.3-28.5 11.1 7.6-5 15.1-10.2 22.5-15.4 2.4-1.6.2-5.6-2.2-4-14 9.8-28.2 19.3-42.5 28.6l-12.7 5.5 15.7-11.2 50.5-36c3-2.2 4.5-5.9 2.6-9.4s-6.4-4.8-9.4-2.6L531.9 259c13.8-14.6 26.6-30.3 42.6-42.8 2.3-1.8-.9-5.1-3.2-3.3-7 5.6-13.6 11.6-19.7 18.1l9.8-13.5c5.2-7.2-6.6-14.3-11.8-7.2-14.8 20.7-30 41.1-45.5 61.2 11.6-21.5 21.2-44.2 36.7-63.3 2.4-2.9 2.9-6.8.2-9.7s-7.4-3.1-9.8-.2c-18.6 22.9-28.9 51.3-44.2 76.4l26.4-80.2c2.8-8.5-10.4-12.3-13.2-3.9l-21.6 65.7c2.7-20.1 5.9-40.2 9.6-60.1.5-2.9-3.9-4.2-4.4-1.3-2.9 15.8-5.5 31.6-7.8 47.4-1.7-17.6-4.5-35.2-8.3-52.5-2-8.7-15.3-5.2-13.4 3.4 4.6 21.1 7.8 42.4 9.4 63.9-5.2-18.6-10.7-37.1-16.3-55.6-.9-2.8-5.3-1.7-4.5 1.2 5.4 17.4 10.5 34.9 15.4 52.4-8.2-17.1-15.2-34.8-25.4-50.8-1.6-2.5-5.6-.3-4 2.2 7.3 11.6 13 24 18.7 36.4l-2.4-3.7c-9.2-14.4-18.4-28.8-27.7-43.1-4.7-7.4-16.8-.7-12 6.7l8.2 12.7c-2.2-3.2-4.5-6.3-6.9-9.4s-5.1.8-3.3 3.2c9.6 12.5 17.9 26 25.7 39.8l-.9.9c-3.8-5.6-7.5-11.3-11.1-17s-13.6-4-12.9 3.2c.2 1.4.3 2.7.4 4s.1.7.2 1l-12.6-19.9c-1.6-2.5-5.6-.2-4 2.3l17.5 27.5c-7.5-7.6-14.4-15.7-20.8-24.2-2.3-3-5.9-4.6-9.4-2.6s-4.9 6.4-2.6 9.4c9.9 13.3 21.1 25.7 33.3 37-12.4-5.2-24.3-11.4-35.1-19.8-3-2.2-7.7-.5-9.5 2.4-1.8 2.9-.6 7.2 2.3 9.4 18.7 14.5 40.6 22.4 62.7 29.9l-24.8-6.1c-17.8-4.3-35.9-8.1-54.3-8.2-8.8-.1-9.1 13.7-.2 13.7 16 .2 31.7 3.2 47.2 6.9l10.8 2.6c-7.8-.3-15.7.5-23.6.4-14.7-.2-29.6-2.7-44.2-4.3-3-.3-3 4.3-.1 4.6l24.8 2.9c-5.2.7-10.5 1.4-15.6 2.3-8.8 1.5-5.3 14.9 3.4 13.4 22.6-3.9 45.7-5.1 68.6-3.6l7.4.7c-7.1 1.5-14.2 3.2-21.3 4.8-18.5 4.4-36.9 9-55.3 13.8-8.6 2.3-5.1 15.6 3.5 13.4 17-4.5 34-8.8 51.2-12.8-14.6 7.9-29.4 15.6-44.2 23-2.7 1.3-.4 5.3 2.2 4 19.7-9.8 39.2-20.1 58.5-30.9l11-2.5c-5.2 3.9-10.5 7.9-15.6 11.9-15.4 11.7-30.1 24.2-44.2 37.4-6.5 6.1 3.1 16 9.5 9.9s11.3-10.4 17.1-15.4c-6.6 7.6-13.1 15.3-19.6 23.1-1.8 2.2 1.3 5.6 3.2 3.3 12.7-15.4 25.8-30.4 39.3-45.1l5.8-4.5c-11.5 17.9-22.9 35.9-34 54.1-4.6 7.6 7.2 14.7 11.8 7.1 9.7-15.9 19.5-31.6 29.6-47.3-6.8 13.7-12.5 28-17 42.7-.9 2.9 3.5 4.1 4.4 1.3 6.3-20.3 14.8-39.8 25.4-58.2-6.8 20.8-13.7 41.6-20.5 62.4-2.5 7.4 8.6 12.3 12.5 5.5l2.9-5.2c1-1.6 1.3-3.5.7-5.3 8.3-25.1 16.5-50.2 24.8-75.3 0 .9.1 1.9.1 2.8-4.2 20.5-9.7 40.7-16.5 60.5-.9 2.8 3.5 4.1 4.4 1.3 4.4-12.8 8.2-25.7 11.5-38.8-1.1 12.9-2.6 25.7-4.6 38.5-.4 2.9 4 4.2 4.4 1.3 1.3-8.4 2.4-16.8 3.4-25.2 1.1 13.2 2.7 26.3 4.9 39.4 1.5 8.7 14.8 5.2 13.4-3.5-4.4-25.8-6.3-51.8-7.6-77.9 7.8 27.9 10 57.3 20.7 84.4 1.4 3.4 4.5 6 8.4 4.9s6.3-4.9 4.9-8.4c-7.6-19.4-11.2-40-15.4-60.3 7.9 12.8 15.6 25.7 23.3 38.7v1.2c.1 2.3 1.1 4.9 3.3 6s5.7 1.7 8.5 0 3.7-3.5 3.5-5.9-2-5.8-3.6-8.6l-6-10.1c-3.8-6.4-7.7-12.8-11.6-19.2-1.1-2-2.3-3.9-3.5-5.8 10.2 12.2 20.7 24.1 31.6 35.7 2 2.1 5.3-1.1 3.3-3.2-12.9-13.7-25.3-27.8-37-42.3 3.8 2.8 7.5 5.7 11.2 8.7l46.7 38.5c2.9 2.4 6.8 3 9.7.2s3-7.4.2-9.7l-40.9-33.8-8-6.5c17.3 7.2 34.3 14.8 51.4 22.2 2.7 1.2 3.9-3.2 1.3-4.4l-41.8-18.2 53.2 13.4c8.6 2.1 12.5-11.1 3.9-13.3l-71.1-17.9 13.7.3 47.7 1c3 0 3.1-4.6.1-4.6l-44.2-.9-21.6-.4h-2.6l27.3-4.6c18.8-3 37.6-5.8 56.4-8.3 3.7-.5 5.8-5.2 4.9-8.5zm-189.7-27.7l-11.4-18c.5.4 1.1.7 1.8.9 4.6 7.3 9.6 14.4 14.7 21.4l-5.1-4.3zm13.9-18l-.4.2-5.7-9.7 6.1 9.5z"></path><path fill="#4371AC" d="M487.8 282.1c-15.6-3-31.3-2.6-42.2 6.1-8.9 7-9.9 16.8-3 24.8s22.9 13.3 38.2 11.8 24.9-10.5 25.6-20.9c.5-7.6-6-20.2-18.6-21.8z"></path><path fill="#FFF" d="M456.7 300.1h-.2c-.7.2-1.2.7-1.4 1.4-.4 1 .1 2.1 1.1 2.5.5.2 1 .2 1.5-.1.8-.3 1.3-1 1.3-1.8v-.1c0-1-.8-1.9-1.9-1.9h-.4z"></path><path fill="#FFF" d="M461.9 305.7c-.3-.4-.7-.6-1.2-.6-.4 0-.8.1-1.1.3-.3.1-.5.3-.6.6l-.3.9c0 .4.2.9.5 1.2.3.3.7.5 1.1.5.9.1 1.7-.6 1.9-1.5.1-.5 0-1-.3-1.4z"></path><path fill="#FFF" d="M467.5 308.6c-.5-.4-1.1-.5-1.7-.4-.5 0-.9.2-1.2.6-.8.8-.8 2.1 0 2.8 0 0 .1 0 .1.1.4.3 1 .5 1.5.4.6-.1 1.1-.4 1.4-.9l.3-.8c.2-.6.1-1.3-.4-1.8z"></path><path fill="#FFF" d="M472.9 309.8l-.7.2c-.8.5-1.1 1.6-.6 2.5 0 .1.1.1.2.2.7.6 1.8.6 2.4-.1.1-.1.1-.2.2-.2.1-.3.3-.5.3-.7.2-.8-.2-1.6-1-1.9-.3-.1-.5-.1-.8 0z"></path><path fill="#FFF" d="M480.6 311.8v-.3c-.1-.4-.1-.9-.5-1.2-.3-.3-.7-.5-1.2-.6h-.3l-1 .2c-1 .6-1.3 1.9-.6 2.9.1.1.1.2.2.3.8.8 2 .8 2.8 0l.2-.2c.3-.3.4-.7.4-1.1z"></path><path fill="#FFF" d="M486.2 308.4c-.2-.7-.8-1.2-1.5-1.2-.3 0-.7.1-.9.3l-.3.3h-.2c-.7.7-.6 1.9.1 2.5.1.1.2.2.4.3.5.2 1 .2 1.5-.1.5-.3.9-.8.9-1.4v-.7z"></path><path fill="#FFF" d="M489.2 303.4v-.3c0-.3-.1-.6-.4-.8-.3-.3-.8-.4-1.2-.3h.1c.2-.1.1 0-.3 0l-.5.2-.6.5c-.6.7-.6 1.8.1 2.4.2.2.4.3.7.4.6.2 1.2 0 1.6-.4.5-.4.7-1.1.5-1.7z"></path><path fill="#FFF" d="M488 296.8c-.1-.2-.1-.4-.2-.6-.2-.3-.5-.6-.8-.6h-.2c-.4-.2-.9-.1-1.3.2-.5.3-.9.9-.9 1.5 0 .7.4 1.3 1 1.6.6.2 1.3.2 1.8-.2.2-.2.4-.4.5-.7.2-.4.2-.8.1-1.2z"></path><path fill="#FFF" d="M481.4 291.7c-.9 0-1.7.7-1.8 1.6s.7 1.7 1.6 1.8c.9.1 1.6-.6 1.7-1.5v-.2c.1-.9-.6-1.6-1.5-1.7z"></path><path fill="#FFF" d="M476 291c-.4-.3-1-.4-1.5-.3h-.2c-.6.2-1 .6-1.2 1.2-.2.6 0 1.3.4 1.8.5.4 1.1.6 1.7.5.6-.2 1.1-.7 1.3-1.3.1-.2.1-.4.1-.6 0-.5-.2-1-.6-1.3z"></path><path fill="#FFF" d="M470.5 292.2c0-.2-.1-.4-.2-.6-.4-.7-1.2-.9-1.9-.7-.6.2-1.1.7-1.2 1.4-.1.7.2 1.4.8 1.8.5.3 1.2.3 1.7 0 .7-.4 1-1.2.8-1.9z"></path><path fill="#FFF" d="M464.6 293.9c-.1-.6-.6-1-1.2-1l-.8.2c-.3.2-.5.3-.6.6-.2.2-.2.5-.2.8-.1.2 0 .5.1.7.2.3.4.5.7.6.5.3 1.2.1 1.6-.3.3-.3.5-.7.5-1.1 0-.2 0-.3-.1-.5z"></path><path fill="#FFF" d="M460.8 295.7c-.2-.5-.6-.9-1.1-1.1-.5-.1-1-.1-1.5.2l-.5.4c-.3.4-.5.8-.5 1.3 0 .6.2 1.1.7 1.4.4.3 1 .4 1.5.3.8-.2 1.3-.9 1.4-1.7v-.8z"></path><path fill="#EFCA6F" d="M476.2 281.6c-.2-.2-.4-.2-.6-.1-.8.4-1 1.2-1.3 2-.4 1-.8 2-1 3.1-.1.8.4 1.5 1.1 1.6.7.1 1.3-.3 1.6-.9.3-1 .5-2.1.6-3.2.2-.9.1-1.8-.4-2.5z"></path><path fill="#EFCA6F" d="M469.7 284.8c-.1-1.3-.1-2.7-.9-3.7-.3-.2-.6-.2-.9 0-.9 1.1-.8 2.5-.9 3.8s-.3 2.8 1 3.8c.4.3.9.2 1.2-.1 1.1-1.1.7-2.5.5-3.8z"></path><path fill="#EFCA6F" d="M461.8 286.3c-.5-1.2-1.1-2.9-2.3-3.5-.3-.2-.8-.1-.9.3 0 0 0 .1-.1.1-.5 1.3.2 2.9.6 4.1s.6 2.9 1.9 3.5c.4.2.9.1 1.2-.3.9-1.3.1-2.9-.4-4.2z"></path><path fill="#EFCA6F" d="M455.6 288.3c-1-.9-2.3-1.5-3.6-1.5-.4 0-.8.3-.9.7 0 .3.1.5.3.7.7.8 1.4 1.5 2.2 2.2.7.7 1.3 2 2.4 2.2.6.2 1.2-.1 1.4-.7v-.1c.4-1.4-.9-2.7-1.8-3.5z"></path><path fill="#EFCA6F" d="M452.5 295.1c-1.6-1.1-4-1-5.9-1.2s-3.4-.3-4.8.5c-.2.1-.3.4-.2.5 0 .1.1.1.2.2 1.7.6 3.4 1.1 5.2 1.5 1.6.4 3.5 1 5.2.5.6-.2.9-.8.8-1.3-.1-.3-.3-.6-.5-.7z"></path><path fill="#EFCA6F" d="M450.3 301.1c-1.6-.8-3.4-.5-5.2-.4-1.5.1-2.9.6-4.2 1.4-.2.2-.2.7.1.8 1.3.5 2.7.8 4.1.7 1.6.1 3.4.4 4.9-.1s1.4-1.9.3-2.4z"></path><path fill="#EFCA6F" d="M455.2 307.2c-1.7-.2-3.2.8-4.6 1.7-1.5 1-2.9 2.1-4.2 3.4-.2.3-.1.8.2 1 .1.1.3.1.4.1 1.8-.4 3.5-1 5.1-1.8 1.5-.7 3.1-1.4 3.9-3 .3-.4.2-1-.2-1.2-.2-.2-.4-.2-.6-.2z"></path><path fill="#EFCA6F" d="M459.6 312.7c-1.3.2-2 1.3-2.8 2.3-.9.9-1.5 2-1.8 3.2-.1.4.2.7.6.8h.3c1-.6 2-1.3 2.8-2.2.9-.9 2-1.6 2.1-2.9s-.6-1.2-1.2-1.2z"></path><path fill="#EFCA6F" d="M468.5 315.1c-.2-.5-.7-.7-1.1-.6-.1 0-.1 0-.2.1-1.4.8-2 2.5-2.6 3.9s-1.3 3-.5 4.3c.1.2.4.3.6.3 1.5-.4 2.1-2.2 2.7-3.4.9-1.4 1.2-3 1.1-4.6z"></path><path fill="#EFCA6F" d="M476.8 317.8c-.3-.7-1.1-1.1-1.8-.9-.4.1-.7.4-.8.8-.5 1.8-.3 3.7.4 5.4.3.5 1 .7 1.5.4.2-.1.3-.2.4-.4.8-1.4.7-3.8.3-5.3z"></path><path fill="#EFCA6F" d="M485.7 318.1c-.7-1.1-1.8-3.1-3.3-3-.6 0-1.1.5-1.2 1.1 0 1.3 1.4 2.2 2.1 3.3s1.1 2.5 2.2 3c.4.3.9.2 1.1-.2l.1-.1c.6-1.3-.3-2.9-1-4.1z"></path><path fill="#EFCA6F" d="M484.9 282.7c-.9-.3-2 1-2.5 1.6-1 1-1.9 2.1-2.7 3.3-1 1.5 1.4 2.9 2.5 1.5s4.3-5.7 2.7-6.4z"></path><path fill="#EFCA6F" d="M494.9 285.5c-1.5-.3-3.1.5-4.4 1.2s-3.5 1.5-4.5 3 .2 1.8 1 1.7 3.4-1.3 4.8-2.3 2.8-1.8 3.3-3.2c.1-.2 0-.3-.2-.4z"></path><path fill="#EFCA6F" d="M502.1 293.4c-1.3-.9-3.1-.6-4.7-.4-1.9.2-3.7.7-5.3 1.7-.4.3-.5.9-.2 1.3.1.2.3.3.6.3 1.8 0 3.6-.2 5.3-.7 1.5-.3 3.2-.3 4.5-1.3.2-.2.3-.5.1-.7-.1-.1-.2-.2-.3-.2z"></path><path fill="#EFCA6F" d="M503.7 302.5c-2.6-1.8-6.9-3.4-10-2.8-.5.1-.8.5-.8 1 0 .3.2.6.5.7 1.5.6 3.1.9 4.7 1.1 1.8.3 3.6.5 5.4.5.3-.1.3-.3.2-.5z"></path><path fill="#EFCA6F" d="M501.8 311.1c-1.3-1.4-2.7-2.6-4.2-3.7-1.4-1.2-3-2.2-4.7-3-.8-.3-1.2.7-.8 1.3 1.2 1.3 2.6 2.5 4.1 3.4 1.5 1.1 3.2 2 4.9 2.8.5.2 1.1-.3.7-.8z"></path><path fill="#EFCA6F" d="M495.6 316.8c-.8-1.2-1.7-2.3-2.7-3.3-.9-1.1-2-2.1-3.2-2.9-.4-.2-.9 0-1.1.4-.1.2-.1.3 0 .5.5 1.5 1.4 2.8 2.6 3.7 1.1 1.1 2.4 1.9 3.8 2.4.3 0 .6-.2.6-.6v-.2z"></path><g fill="#3D3F4C"><path d="M467.8 276.6c-.6-.8-1.7-1-2.5-.5-.1 0-.1.1-.2.2-.4.4-.6 1.1-.3 1.7l.4.3c.4.7 1.3 1 2 .6h.1c.7-.5.9-1.5.5-2.3z"></path><path d="M465.2 278.3c-.1 0-.1 0-.1-.1 0 .1 0 .1.1.2v-.1z"></path></g><g fill="#3D3F4C"><path d="M455.5 278.4c-.7-.8-1.9-.8-2.7-.1l-.1.1c-.4.5-.5 1.1-.3 1.7l.3.4.3.6c.8.7 2 .6 2.7-.2.6-.8.5-1.8-.2-2.5z"></path><path d="M452.7 280.5z"></path></g><path fill="#3D3F4C" d="M442.5 287.1c-.4-.6-1.1-.9-1.8-.7-.8.3-1.3 1-1.3 1.8-.1.7.5 1.3 1.2 1.4h.3c.9.2 1.7-.4 1.9-1.3 0-.4 0-.8-.3-1.2z"></path><path fill="#3D3F4C" d="M435.3 298.9c-.8-.9-2.2-1.1-3.1-.3l-.1.1c-.5.5-.6 1.3-.2 1.9.2.3.6.4.9.5.8.5 1.9.4 2.5-.4.4-.5.4-1.3 0-1.8z"></path><path fill="#3D3F4C" d="M439.6 311.1c-.3-.3-.8-.5-1.2-.5-.6 0-1.1.3-1.4.7-.1.2-.2.5-.2.7-.1.2-.2.5-.1.8.1.4.5.7.9.8.8.3 1.8-.1 2.1-.9.3-.5.2-1.1-.1-1.6z"></path><path fill="#3D3F4C" d="M447.9 318.3c-.5-.2-1.1 0-1.4.5-.5.6-.5 1.6 0 2.2.4.4.9.5 1.4.2h.4c.5-.2.8-.7.8-1.3 0-.7-.5-1.4-1.2-1.6z"></path><path fill="#3D3F4C" d="M476.6 276.7c-.2-.9-1.1-1.5-2-1.3-.4.1-.8.4-1.1.8-.3.6-.3 1.3.2 1.8.3.4.8.5 1.3.3h.5c.7-.1 1.2-.7 1.1-1.5v-.1z"></path><path fill="#3D3F4C" d="M485.5 278c-.8-.5-1.8-.3-2.5.3-.6.5-.6 1.4 0 2 .1.2.4.3.6.4h.1c.6.3 1.4.2 1.9-.2.7-.5.8-1.4.3-2.1-.1-.2-.2-.3-.4-.4z"></path><path fill="#3D3F4C" d="M498.3 281.1c.1-.9-.7-1.7-1.6-1.8-.3 0-.6 0-.9.2-.8.5-1.1 1.7-.5 2.5.1.2.3.4.5.5.6.3 1.3.2 1.7-.3h.1c.4-.2.7-.6.7-1.1z"></path><path fill="#3D3F4C" d="M505.3 288c-.2-.3-.5-.6-.8-.8-.4-.3-1-.4-1.5-.1h-.2c-.4.3-.7.7-.7 1.2-.1.5.1 1.1.6 1.4l1.1.5c.7.2 1.4-.1 1.7-.8v-.1c.1-.4 0-.9-.2-1.3z"></path><path fill="#3D3F4C" d="M509.7 295.3c-.5-.4-1.2-.5-1.7-.2-.4.3-.7.6-1 1-.2.4-.3.9-.1 1.3 0 .2.1.5.2.7.6.9 1.8 1.1 2.6.5.1 0 .1-.1.2-.1.8-.9.7-2.4-.2-3.2z"></path><path fill="#3D3F4C" d="M510.7 306.4c-.8-.7-2.1-.6-2.8.2-.3.4-.5.8-.5 1.3s.3 1 .8 1.2h.6c.2.1.5.2.8.1.9-.1 1.6-.9 1.5-1.9 0-.3-.2-.6-.4-.9z"></path><path fill="#3D3F4C" d="M505.6 314.6c-1-.3-2.1.3-2.3 1.3 0 .2-.1.3-.1.5 0 .6.4 1.2 1 1.4.8.6 1.9.5 2.5-.3s.5-1.9-.3-2.5c-.2-.2-.5-.4-.8-.4z"></path><path fill="#3D3F4C" d="M498.5 321l-.9-.3h-.4c-.3 0-.5.1-.7.3h-.2c0 .1 0 .1-.1.1l-.2.3c-.5 1-.1 2.2.9 2.7.1 0 .2.1.2.1 1 .3 2-.3 2.2-1.2.1-.2.1-.5.1-.7 0-.6-.4-1.1-.9-1.3z"></path><path fill="#3D3F4C" d="M487.1 324.8c-.6-.6-1.5-.7-2.2-.4-.8.4-1.2 1.3-1 2.1.1.5.5.9 1 1.1.4.2.8.3 1.2.3 1-.1 1.7-1 1.6-2-.1-.4-.3-.8-.6-1.1z"></path><path fill="#3D3F4C" d="M474.9 325.8c-.5-.5-1.2-.6-1.8-.5-.8.2-1.3.9-1.3 1.7 0 .6.3 1.1.8 1.3.4.1.8.1 1.2-.1.3 0 .6-.1.9-.3.6-.5.8-1.3.3-2l-.1-.1z"></path><path fill="#3D3F4C" d="M462.2 325.5c-.1-.9-.9-1.6-1.8-1.6-.7-.1-1.4.4-1.5 1.1-.1.4-.1.8 0 1.2.2.6.7 1.1 1.4 1.1h.5c.9-.1 1.5-.9 1.4-1.8z"></path><g><path fill="#4671AA" d="M518.2 9.1c-.5-.9-1.3-1.6-2.3-1.9-4.7-1.4-24.6 16.9-29 20-10.1 6.9-20.1 13.9-29.4 21.7-15.3 13-28.7 28.1-39.6 44.9-11 16.9-20.7 34.6-30.1 52.4s-18.4 37.6-21.4 58.4c-1.9 12.7-2 25.6-.5 38.3 1.5 12.3 8.3 22.2 13.4 33.4.9 1.9 2 4 4 4.6s5-1.1 7-2.9c14.1-12.6 23.5-29 34.4-44.5s23.8-33.6 35.6-50.5c22.8-32.4 46-69.4 53.7-108.8 1.4-7.4 10.5-54.6 4.2-65.1z"></path><path fill="#3D3F4C" d="M361.8 572.1c2.4 0 4.7.1 7.1.3 4.6-28.3 5-57.4 6-85.9 1.1-33.9 1.8-67.9 3.6-101.8 3.3-63.5 10.5-127.6 30.4-188.3 10.7-32.6 25.2-64.2 40.8-94.7.3-.6-.5-1-.9-.6-39.7 47.7-57.5 111.2-68.3 171.3-11.9 66.3-13.8 133.9-15.7 201-1 32.8-3.4 65.9-3 98.7z"></path></g><g><path fill="#4671AA" d="M324.6 362c-2.1-12.5-4.7-24.9-7.6-37.3-5.5-24.1-12.3-47.8-20.6-71.1-8.3-23.4-17.5-47.1-29.2-69.1-10.4-19.5-25.2-35.6-40.2-51.7-7.6-8.2-15.4-16.4-22.6-25.1-3.5-4.4-6.9-8.9-10.1-13.5s-5.3-9.1-9.8-12.1l-.5-.7c-1.1-.9-2.6-1-3.8-.2-8 7.1-7.2 21.4-8.2 31.2-1.1 12.4-2.3 24.8-2.9 37.2-1 24.4-.6 48.9 4 72.9s12.2 44 24.3 63.6c10.9 17.9 25 33.8 40 48.3 17.2 16.6 36.1 31.2 55.1 45.6 2.1 1.6 4.7 2.6 7.4 2.8 1.4 1 3 1.8 4.7 2.4 5.8 1.8 12.5-.8 16.4-5.3s4.6-11.7 3.6-17.9z"></path><path fill="#3D3F4C" d="M268.9 265.4c13 29.5 24 59.9 32.8 91 17.7 61.3 27.6 125.6 28.1 189.4.1 18.1-.5 36.1-1.9 54.1-1 11.9-2.6 23.9-3.4 35.9l10-2.6c1.5-8.4 2.4-17.1 3.2-25.6 1.6-16.4 2.5-32.8 2.9-49.3.6-32.7-.6-65.6-4.9-98.1-8.5-64.5-26.3-127.8-54.2-186.7-15.7-33.2-33.2-65.2-55.7-94.4-.4-.6-1.5 0-1.1.7 15.7 27.9 31.1 56.3 44.2 85.6z"></path></g><g><path fill="#FAD3CD" d="M449.7 107.1c-1.1-4-4.7-5.5-8.4-5-27.9 3.7-55.7 8-83.4 12.9 18.7-8.7 38.6-14.6 59-17.4 2.9-.4 1.7-4.9-1.2-4.5-9 1.3-17.9 3.1-26.6 5.5 16.8-7.1 33.6-13.9 50.7-20.3 3.4-1.3 5.9-4.6 4.9-8.4s-4.9-6.3-8.4-5c-9.5 3.6-19 7.3-28.4 11.2l22.5-15.4c2.4-1.7.2-5.7-2.3-4-14 9.7-28.1 19.2-42.4 28.5l-12.8 5.5 15.8-11.2 50.4-36c3.1-2.2 4.6-5.9 2.6-9.4s-6.3-4.7-9.3-2.6l-60 42.8c13.8-14.7 26.7-30.4 42.6-42.9 2.4-1.8-.9-5.1-3.2-3.3-6.9 5.6-13.5 11.6-19.6 18.1l9.8-13.5c5.1-7.2-6.7-14.3-11.8-7.1-14.9 20.6-30.1 41-45.6 61.1 11.6-21.5 21.2-44.2 36.7-63.3 2.4-2.9 3-6.8.2-9.7s-7.4-3-9.7-.2c-18.7 23-29 51.4-44.2 76.4L354 9.7c2.8-8.4-10.5-12.3-13.2-3.9-7.3 21.9-14.5 43.8-21.7 65.8 2.8-20.2 6-40.2 9.7-60.2.5-2.9-3.9-4.2-4.5-1.3-2.8 15.8-5.5 31.6-7.8 47.5-1.7-17.7-4.4-35.3-8.3-52.6-2-8.6-15.3-5.2-13.3 3.5 4.8 21.1 7.5 42.4 9.3 63.8-5.2-18.6-10.6-37.1-16.3-55.6-.9-2.8-5.3-1.7-4.4 1.2 5.3 17.4 10.4 34.9 15.3 52.4-8.2-17.1-15.2-34.8-25.4-50.8-1.6-2.5-5.6-.3-4 2.2 7.4 11.6 13.1 24 18.7 36.4l-2.3-3.7-27.7-43.1c-4.8-7.4-16.8-.7-12 6.8l8.1 12.7c-2.2-3.2-4.5-6.4-6.9-9.5s-5 .9-3.3 3.2c9.7 12.6 17.9 26.1 25.7 39.8l-.9.9c-3.8-5.5-7.5-11.2-11.1-17s-13.6-4-12.8 3.3c.1 1.3.2 2.6.4 3.9s.1.7.1 1l-12.6-19.9c-1.6-2.4-5.6-.2-4 2.3l17.5 27.6c-7.5-7.6-14.4-15.7-20.8-24.3-2.2-3-5.8-4.5-9.4-2.6s-4.8 6.4-2.6 9.4c9.9 13.4 21.1 25.8 33.4 37-12.5-5.2-24.4-11.4-35.2-19.7-3-2.3-7.7-.6-9.5 2.3s-.6 7.2 2.4 9.5c18.7 14.4 40.6 22.4 62.6 29.8l-24.8-6.1c-17.8-4.3-35.9-8-54.2-8.2-8.9-.1-9.1 13.7-.3 13.8 16.1.1 31.7 3.1 47.2 6.8l10.8 2.7c-7.8-.3-15.7.4-23.5.3-14.8-.1-29.7-2.7-44.3-4.3-2.9-.3-3 4.3-.1 4.6 8.3.9 16.5 2.1 24.8 3-5.2.6-10.4 1.4-15.6 2.3-8.7 1.5-5.2 14.8 3.5 13.3 22.6-3.9 45.6-5.1 68.5-3.5l7.5.6-21.4 4.9c-18.5 4.3-36.9 8.9-55.3 13.8-8.5 2.2-5.1 15.6 3.5 13.3 17-4.5 34.1-8.7 51.2-12.8-14.6 7.9-29.3 15.5-44.2 23-2.6 1.4-.4 5.4 2.3 4 19.7-9.8 39.1-20.1 58.4-30.8l11.1-2.5-15.7 11.8c-15.4 11.7-30.1 24.2-44.2 37.4-6.4 6.1 3.1 16 9.6 9.9s11.3-10.4 17.1-15.4c-6.7 7.6-13.2 15.3-19.6 23.1-1.9 2.3 1.3 5.6 3.2 3.3 12.7-15.4 25.8-30.4 39.2-45.1l5.8-4.5c-11.5 17.9-22.9 35.9-33.9 54.1-4.6 7.6 7.2 14.7 11.8 7.1 9.6-15.9 19.5-31.6 29.6-47.3-6.8 13.8-12.5 28.1-17.1 42.8-.8 2.8 3.6 4.1 4.4 1.3 6.3-20.3 14.9-39.9 25.5-58.3-6.9 20.8-13.7 41.6-20.6 62.4-2.4 7.4 8.6 12.3 12.5 5.5l3-5.1c1-1.6 1.2-3.5.6-5.3 8.3-25.1 16.6-50.2 24.8-75.3.1.9.1 1.8.2 2.7-4.3 20.5-9.8 40.7-16.5 60.6-1 2.8 3.4 4 4.4 1.2 4.3-12.7 8.1-25.7 11.4-38.7-1.1 12.8-2.6 25.7-4.5 38.5-.5 2.8 3.9 4.2 4.4 1.2 1.3-8.3 2.4-16.7 3.3-25.2 1.2 13.2 2.7 26.4 5 39.4 1.4 8.8 14.8 5.3 13.3-3.4-4.4-25.8-6.2-51.9-7.5-78 7.8 27.9 10 57.3 20.7 84.4 1.3 3.5 4.4 6 8.3 5s6.4-4.9 5-8.4c-7.7-19.5-11.2-40-15.4-60.4 7.8 12.8 15.6 25.7 23.2 38.7v1.2c.1 2.3 1.1 4.9 3.3 6s5.6 1.8 8.5 0c2.1-1.2 3.5-3.4 3.5-5.9-.2-3.3-2-5.8-3.7-8.6l-5.9-10-11.6-19.3-3.5-5.8c10.1 12.2 20.6 24.2 31.5 35.7 2 2.2 5.3-1 3.3-3.2-12.9-13.6-25.3-27.7-37-42.3 3.8 2.8 7.6 5.7 11.3 8.8 15.6 12.7 31.1 25.6 46.6 38.5 2.9 2.4 6.9 2.9 9.8.1s3-7.4.1-9.7L379 157.8l-8-6.6c17.2 7.2 34.2 14.8 51.3 22.3 2.7 1.1 4-3.3 1.3-4.4-13.9-6.1-27.8-12.3-41.7-18.2l53.1 13.3c8.6 2.1 12.5-11.1 3.9-13.2l-71-17.9 13.6.2 47.8 1c2.9 0 3-4.5 0-4.6l-44.1-.9-21.6-.4H361l27.3-4.6c18.7-3 37.5-5.7 56.3-8.2 3.8-.6 5.9-5.2 5.1-8.5zM259.9 79.3l-11.3-17.9 1.7.8c4.7 7.3 9.6 14.5 14.8 21.5l-5.2-4.4zm14-17.9l-.5.2c-1.8-3.3-3.7-6.5-5.6-9.7l6.1 9.5z"></path><path fill="#4371AC" d="M328.3 97.3c-15.6-2.9-31.3-2.6-42.2 6.1-8.8 7.1-9.9 16.8-3 24.8s23 13.4 38.2 11.8 24.9-10.4 25.6-20.9c.5-7.6-6-20.2-18.6-21.8z"></path><path fill="#FFF" d="M297.2 115.4h-.2c-.7.2-1.2.7-1.4 1.4-.2.8.1 1.6.7 2.1.5.5 1.3.6 2 .3s1.2-1 1.3-1.8v-.2c0-1-.9-1.9-1.9-1.9-.2 0-.3.1-.5.1z"></path><path fill="#FFF" d="M302.5 121c-.3-.4-.7-.6-1.2-.7-.4 0-.8.1-1.1.3l-.7.6c-.1.3-.2.6-.2.9-.1.4.1.9.4 1.2.3.3.8.5 1.2.5.9.1 1.7-.6 1.8-1.5.2-.4.1-.9-.2-1.3z"></path><path fill="#FFF" d="M308 123.9c-.4-.5-1.1-.7-1.7-.5-.4.1-.8.3-1.2.6-.7.8-.7 2.1.1 2.8l.1.1c.4.4.9.5 1.4.4.6 0 1.2-.3 1.4-.9l.4-.8c.2-.6 0-1.3-.5-1.7z"></path><path fill="#FFF" d="M313.4 125l-.7.3c-.8.5-1.1 1.5-.6 2.3.1.1.1.2.2.3.7.7 1.9.6 2.5-.1l.2-.2.3-.7c.2-.9-.4-1.7-1.2-1.9h-.7z"></path><path fill="#FFF" d="M321.2 127v-.3c0-.5-.2-.9-.5-1.2-.3-.4-.7-.6-1.2-.5h-.2l-1 .2c-.4.2-.7.6-.9 1-.3.7-.2 1.6.4 2.2.5.5 1.3.7 2 .6.4-.2.7-.5 1-.8.3-.3.4-.8.4-1.2z"></path><path fill="#FFF" d="M326.7 123.6c-.2-.6-.7-1.1-1.4-1.2-.4 0-.7.1-1 .3l-.3.3c-.1.1-.1.1-.1.2-.6.7-.6 1.8.1 2.4.1.1.3.2.4.3.8.4 1.8.1 2.1-.7.1-.2.2-.5.2-.8.1-.3.1-.5 0-.8z"></path><path fill="#FFF" d="M329.7 118.7h.1c-.1-.1-.1-.3-.1-.4 0-.3-.1-.5-.3-.7-.3-.4-.8-.5-1.2-.4h-.3l-.4.2-.6.5c-.7.6-.8 1.6-.2 2.3.2.3.6.5.9.5.6.2 1.2 0 1.7-.4.4-.4.6-1 .4-1.6z"></path><path fill="#FFF" d="M328.6 112c-.1-.2-.1-.4-.3-.6-.2-.3-.5-.6-.8-.7h-.1c-.5-.1-1 0-1.4.2-.5.3-.8.9-.8 1.5-.1.7.4 1.3 1 1.6.6.3 1.2.2 1.7-.2.3-.2.5-.4.6-.7.1-.4.2-.7.1-1.1z"></path><path fill="#FFF" d="M321.9 106.9c-.9 0-1.7.8-1.7 1.7 0 .9.8 1.7 1.7 1.7.9 0 1.6-.7 1.7-1.6 0-1-.7-1.7-1.7-1.8z"></path><path fill="#FFF" d="M316.5 106.2c-.4-.3-1-.5-1.5-.3h-.1c-.6.2-1.1.7-1.3 1.3-.2.6 0 1.3.4 1.7.5.5 1.2.7 1.8.5.6-.1 1.1-.6 1.3-1.2v-.6c.1-.5-.1-1.1-.6-1.4z"></path><path fill="#FFF" d="M311.1 107.4l-.2-.5c-.4-.7-1.3-1-2-.7-.6.2-1.1.7-1.2 1.4-.1.7.2 1.3.8 1.7.5.3 1.2.3 1.7 0 .7-.4 1-1.1.9-1.9z"></path><path fill="#FFF" d="M305.2 109.1c-.2-.5-.6-.9-1.2-1-.3 0-.6.1-.9.3l-.6.5c-.1.3-.2.5-.2.8 0 .2.1.5.2.7.1.3.4.5.7.6.5.3 1.2.2 1.6-.2.3-.3.4-.7.5-1.1 0-.2-.1-.4-.1-.6z"></path><path fill="#FFF" d="M301.3 110.9c-.1-.5-.5-1-1-1.1-.5-.1-1-.1-1.5.2l-.5.4c-.4.3-.6.8-.6 1.3s.3 1.1.7 1.4c.4.3 1 .5 1.5.3.8-.2 1.3-.9 1.4-1.7.1-.3.1-.5 0-.8z"></path><path fill="#EFCA6F" d="M316.7 96.8c-.1-.2-.4-.2-.6-.1-.6.5-1.1 1.2-1.3 2-.4 1-.7 2-1 3.1-.2.7.2 1.5 1 1.8.7.2 1.5-.2 1.8-1 .4-1.1.6-2.2.7-3.3 0-.9-.1-1.8-.6-2.5z"></path><path fill="#EFCA6F" d="M310.3 100c-.2-1.2-.1-2.6-1-3.6-.2-.2-.6-.3-.8-.1l-.1.1c-.8 1-.8 2.5-.9 3.8s-.2 2.8 1 3.7c.4.3.9.2 1.2-.1 1.1-1 .7-2.4.6-3.8z"></path><path fill="#EFCA6F" d="M302.3 101.6c-.4-1.2-1-3-2.2-3.5-.3-.2-.7-.2-1 .1-.1.1-.1.2-.1.3-.4 1.2.3 2.8.6 4s.7 2.9 2 3.5c.4.2.9.1 1.1-.3.9-1.3.2-2.8-.4-4.1z"></path><path fill="#EFCA6F" d="M296.1 103.5c-1-.9-2.3-1.4-3.6-1.4-.4 0-.8.3-.9.7 0 .3.1.5.3.7.7.8 1.5 1.4 2.2 2.1s1.3 2 2.4 2.2c.6.2 1.3-.2 1.5-.8.4-1.3-.9-2.6-1.9-3.5z"></path><path fill="#EFCA6F" d="M293 110.3c-1.6-1-4-1-5.8-1.2s-3.4-.3-4.9.5c-.2.1-.2.4-.1.6 0 .1.1.1.2.1 1.7.5 3.3 1.2 5.1 1.6s3.6.9 5.2.4c.6-.2.9-.8.8-1.3-.1-.3-.3-.6-.5-.7z"></path><path fill="#EFCA6F" d="M290.9 116.3c-1.7-.5-3.5-.7-5.2-.3-1.5 0-3 .5-4.3 1.4-.2.1-.1.6.1.7 1.3.5 2.7.8 4.1.8 1.6 0 3.4.4 4.9-.2s1.5-1.8.4-2.4z"></path><path fill="#EFCA6F" d="M295.8 122.4c-1.8-.2-3.2.9-4.7 1.8s-2.9 2-4.1 3.3c-.3.2-.4.5-.3.8s.5.4.9.3c1.7-.4 3.4-1 5-1.8 1.6-.7 3.2-1.4 4-2.9.3-.5.1-1.1-.4-1.4-.1 0-.2-.1-.4-.1z"></path><path fill="#EFCA6F" d="M300.2 128c-1.4.1-2.1 1.2-2.9 2.3-.9.9-1.5 2-1.8 3.2-.1.6.4 1 .9.7 1.1-.5 2-1.3 2.8-2.2.9-.8 2-1.5 2.1-2.8.1-.6-.4-1.1-1-1.2h-.1z"></path><path fill="#EFCA6F" d="M309 130.4c-.1-.5-.6-.8-1.1-.7-.1 0-.2 0-.2.1-1.3.8-2 2.5-2.5 3.9s-1.4 3.1-.6 4.3c.1.3.4.4.7.3 1.4-.3 2.1-2.1 2.6-3.3s1.5-3.1 1.1-4.6z"></path><path fill="#EFCA6F" d="M317.3 133c-.3-.7-1.1-1.1-1.8-.9-.4.1-.7.4-.8.8-.3 1.6-.4 4 .4 5.4.3.5.9.8 1.5.5.2-.1.3-.2.4-.4.7-1.7.8-3.6.3-5.4z"></path><path fill="#EFCA6F" d="M326.2 133.3c-.7-1.1-1.7-3.1-3.3-3-.6 0-1.1.5-1.1 1.1-.1 1.4 1.3 2.3 2 3.3s1.2 2.5 2.2 3.1 1 .1 1.2-.3-.3-3-1-4.2z"></path><path fill="#EFCA6F" d="M325.4 98c-.9-.4-1.9.9-2.5 1.5-.9 1.1-1.8 2.2-2.6 3.3-1.1 1.5 1.3 3 2.4 1.5s4.4-5.7 2.7-6.3z"></path><path fill="#EFCA6F" d="M335.4 100.7c-1.5-.3-3.1.6-4.4 1.2s-3.4 1.5-4.4 3c-.3.5-.2 1.2.3 1.5.2.1.4.2.6.2 1.8-.1 3.4-1.3 4.9-2.3s2.8-1.7 3.2-3.2c.1-.2 0-.3-.2-.4z"></path><path fill="#EFCA6F" d="M342.7 108.6c-1.4-.9-3.2-.5-4.7-.3-1.9.1-3.8.6-5.4 1.6-.4.3-.5.9-.2 1.3.1.2.3.3.6.3 1.8 0 3.6-.2 5.3-.7 1.5-.3 3.2-.3 4.5-1.2.2-.3.2-.7-.1-1z"></path><path fill="#EFCA6F" d="M344.2 117.8c-2.5-1.9-6.8-3.5-10-2.9-.8.1-.9 1.3-.2 1.7 1.5.6 3 .9 4.6 1.1 1.8.4 3.7.5 5.5.5.1 0 .2 0 .3-.1s-.1-.3-.2-.3z"></path><path fill="#EFCA6F" d="M342.3 126.3c-1.2-1.4-2.6-2.6-4.1-3.7-1.4-1.2-3.1-2.3-4.8-3-.8-.3-1.2.8-.8 1.3 1.2 1.3 2.6 2.5 4.1 3.4 1.6 1.1 3.2 2.1 5 2.9.3 0 .6-.2.7-.5 0-.1 0-.3-.1-.4z"></path><path fill="#EFCA6F" d="M336.1 132.1c-.7-1.2-1.6-2.3-2.7-3.3-.9-1.2-2-2.2-3.2-2.9-.3-.2-.7-.2-1 .1-.2.2-.2.5-.1.7 1.2 2.8 3.6 5 6.5 6.1.2.1.5.1.6-.1.1-.2.1-.5-.1-.6z"></path><g fill="#3D3F4C"><path d="M308.4 91.9c-.6-.8-1.8-1-2.7-.4-.1 0-.1.1-.1.1-.4.4-.5 1.1-.2 1.6l.3.4c.1 0 .1.1.1 0 .3.7 1.2 1 1.9.7 0 0 .1 0 .1-.1.8-.5 1.1-1.5.6-2.3z"></path><path d="M305.7 93.6z"></path></g><g fill="#3D3F4C"><path d="M296.1 93.6c-.8-.8-2.1-.8-2.8 0 0 0 0 .1-.1.1-.4.5-.5 1.1-.2 1.7l.3.3.3.6c.7.7 1.9.7 2.5 0l.1-.1c.6-.8.6-1.9-.1-2.6z"></path><path d="M293.3 95.7z"></path></g><path fill="#3D3F4C" d="M283.1 102.3c-.4-.6-1.2-.8-1.9-.6-.8.2-1.3.9-1.3 1.7 0 .7.5 1.3 1.2 1.4h.2c.1 0 .1 0 .1.1.9.1 1.8-.5 1.9-1.4.1-.4 0-.8-.2-1.2z"></path><path fill="#3D3F4C" d="M275.8 114.2c-.7-1-2.1-1.1-3.1-.4l-.1.1c-.5.5-.5 1.3-.1 1.9.2.3.5.5.8.5.8.5 1.9.4 2.5-.4.5-.5.5-1.2 0-1.7z"></path><path fill="#3D3F4C" d="M280.1 126.4c-.2-.4-.7-.6-1.2-.5-.5 0-1 .3-1.3.7-.2.2-.2.4-.2.6-.2.2-.3.5-.2.8.2.4.5.7.9.9.8.3 1.8-.1 2.1-.9.3-.5.3-1.2-.1-1.6z"></path><path fill="#3D3F4C" d="M288.4 133.5c-.5-.2-1.1 0-1.4.5-.5.7-.4 1.6.1 2.2.3.4.9.5 1.4.3h.3c.6-.2.9-.8.8-1.4 0-.7-.5-1.4-1.2-1.6z"></path><path fill="#3D3F4C" d="M317.2 91.9c-.1-.9-1-1.6-1.9-1.4-.5.1-1 .4-1.3.9-.3.6-.2 1.3.2 1.9.4.3.9.4 1.4.3h.4c.8-.2 1.3-.9 1.2-1.7z"></path><path fill="#3D3F4C" d="M326.1 93.2c-.9-.5-1.9-.3-2.6.4-.5.5-.6 1.3-.1 1.8l.1.1c.1.2.4.3.6.4h.1c.6.4 1.4.4 1.9-.1.7-.5.9-1.5.4-2.2-.1-.2-.3-.3-.4-.4z"></path><path fill="#3D3F4C" d="M338.8 96.3c0-.9-.7-1.7-1.6-1.8-.3 0-.5 0-.8.2-.9.5-1.1 1.6-.6 2.5.2.3.4.5.6.6.6.3 1.3.2 1.7-.3v-.2c.4-.2.7-.6.7-1z"></path><path fill="#3D3F4C" d="M345.9 103.2c-.2-.3-.5-.6-.9-.8-.4-.3-1-.3-1.4 0h-.2c-.5.3-.8.8-.8 1.3-.1.5.2 1 .6 1.3.3.3.7.5 1.2.6.7.1 1.5-.3 1.7-1 0-.5 0-1-.2-1.4z"></path><path fill="#3D3F4C" d="M350.2 110.5c-.4-.4-1.1-.5-1.6-.2-.4.3-.8.6-1.1 1-.2.4-.2 1 0 1.4 0 .2 0 .4.1.6.6.9 1.8 1.1 2.6.5.1 0 .1-.1.2-.1.8-.9.8-2.3-.1-3.1l-.1-.1z"></path><path fill="#3D3F4C" d="M351.3 121.6c-.8-.7-2.1-.6-2.8.2-.3.4-.5.8-.5 1.3-.1.5.2 1 .7 1.2h.6l.8.2c1-.1 1.7-1 1.6-2-.1-.3-.2-.6-.4-.9z"></path><path fill="#3D3F4C" d="M346.2 129.9c-1-.3-2.1.2-2.4 1.2-.1.2-.1.4-.1.6 0 .6.4 1.1 1 1.3.7.4 1.6.4 2.2-.2.7-.7.6-1.9-.1-2.5-.2-.2-.4-.3-.6-.4z"></path><path fill="#3D3F4C" d="M339 136.2c-.3-.2-.6-.2-.9-.2h-.4l-.7.4h-.2c-.1.1-.2.1-.2.3-.5.8-.3 1.9.5 2.5.1.1.3.2.5.2 1 .3 2.1-.3 2.3-1.3 0-.2.1-.3.1-.5-.1-.6-.5-1.1-1-1.4z"></path><path fill="#3D3F4C" d="M327.6 140c-.6-.5-1.4-.7-2.1-.3-.8.3-1.3 1.2-1.1 2 .1.5.5 1 1 1.1.9.5 2 .2 2.5-.7.3-.7.2-1.5-.3-2.1z"></path><path fill="#3D3F4C" d="M315.4 141c-.4-.5-1.1-.6-1.7-.4-.8.2-1.3.8-1.4 1.6 0 .6.4 1.1.9 1.3h1.1c.3 0 .7-.1.9-.3.7-.5.8-1.4.2-2.2.1.1 0 0 0 0z"></path><path fill="#3D3F4C" d="M302.7 140.7c-.1-.9-.9-1.6-1.8-1.6-.7 0-1.3.5-1.5 1.1-.1.4-.1.8 0 1.2.2.6.8 1.1 1.5 1.1h.4c.9-.1 1.5-.9 1.4-1.8z"></path></g><g><path fill="#FAD3CD" d="M401.6 494.9c2.6-8.4 5.5-16.7 7.8-25.2 1.2-4.2 4.7-13-2.1-14.2-3.1-.6-6.2.9-9 2.4-6 3.3-12 6-18 8.2 3.1 4 6.4 7.7 9.2 11.2 4.6 5.6 8.8 11.3 12.1 17.6z"></path><path fill="#FAD3CD" d="M288.7 468.8c-2.4.1-4.3.7-5.4 2.1-2.4 2.9.4 9.3 1.4 12.1 3.3 9.5 8.6 18.2 12.9 27.2 1.5-14.5-1.8-28.4-8.9-41.4z"></path><path fill="#FAD3CD" d="M307.8 897.6c-4.2-19.3-26-28.6-27.9-49.3-1.7-18.5 13.7-30.6 19.3-46.7 5.1-14.3-3.3-27.1-11.4-39.4-8.1-12.3-17.1-25-18.6-40.1-1.8-17.5 8.5-29.9 18.6-42.8 5.3-6.8 10.3-13.3 10.7-23.1.4-9.8-4.3-19.3-8.4-27.6-.9-1.9-1.9-3.8-2.8-5.7-16.6 12.8-31.3 28.3-43.7 45.6-1.2 4.2-1.6 8.7-1 13.4.8 5.8 2.2 11.5 1.9 17.5-.4 5.2-1.5 10.4-3.2 15.4-3.1 9.5-7.7 17.6-9.4 28.7-1.7 11.1 4.1 20.9 8 29.9 3.9 9 5.9 17.9 4.3 27.5s-6 18.7-9.2 27.7-4.7 18.9-1 27.3 10 15.4 14.8 23.2c5 8.2 8.1 17.2 8.1 26.9 5.3 3 10.8 5.6 16.7 7.8 9.2 3.5 19.4 6.6 30.4 9.1 4.1-7.3 5.9-15.5 3.8-25.3z"></path><path fill="#FAD3CD" d="M377.3 913.3c-3-10.4-10.4-18.4-16-26.7s-8.7-18.3-7.6-27.7c1.1-9.4 5.6-18 10.4-26.1 9.1-15.7 18.6-30.4 13.1-49.3-2.6-8.5-7.6-15.9-14.6-21.4-6.5-5.3-14-9.5-19.7-15.8-13.7-14.8-9.5-34.7.1-49.9 9.6-15.2 29.1-33.3 16.7-52.5-9.2-14.2-30.3-13.8-38-30-9.2-19.3 6.9-36.6 15-52.7 8.8-17.7 8.1-39.9-1.3-57.1-4.4-8.1-10.6-14.9-15.8-22.5-2-2.9-3.6-6-4.9-9.2-2.6-.3-5.2-.6-7.7-1-2.9-.4-8.6-1.9-13.8-2.4 11.5 12.8 14.8 30.4 11.8 49-.4 2.3-.8 4.5-1.3 6.8 2.9 8 5.3 16.2 7.1 24.5 5.3 24.2 3.2 50-15.4 67.1 3.8 7.8 8 15.6 10.8 24 2.9 8.7 3.5 18.7.6 27s-8.2 15.2-13.6 22.1c-5.4 6.9-11.5 14.4-13 23.3-1.2 7.1 1.1 14 4.5 20.2 7.5 14 19 25.5 25.7 40 7.6 16.5 5.5 31.8-3.8 47.1-4.3 7.2-10.5 14.4-11.5 23.4s4.8 15.3 11 22.3 12 13.9 15.2 22.7c2.7 7.9 3.3 16.4 1.9 24.7-.7 4.1-1.9 8.4-3.6 12.6 14.1 2.3 28.9 3.6 43.9 3.7 5.1 0 10.4-.1 15.7-.4.2-5.3-.4-10.6-1.9-15.8z"></path><path fill="#FAD3CD" d="M218.4 842.8c.7-9.8 4.6-18.8 8.3-27.7s7.9-17.9 5.6-28.4-9-19.5-11-30.1c-3.9-21 11.6-37.4 13.6-57.3.6-5.8-.2-11.5-.5-17.2-19.5 31.5-32.2 67.6-36.3 103.5-5.1 43.3 10.5 83.4 42.3 109.1-3-9.3-10.3-17.8-14.7-25.3-4.7-8.1-8-16.8-7.3-26.6z"></path><path fill="#FAD3CD" d="M486.1 693.6c-.5 2.6-1.2 5.1-2 7.6-3.2 9.5-7.9 17.6-9.5 28.7-1.6 11.1 4 20.9 8 29.9s5.8 17.9 4.3 27.5-5.9 18.7-9.1 27.7-4.8 18.9-1.1 27.3c3.7 8.4 10.1 15.4 14.8 23.1 1.7 2.8 3.2 5.8 4.4 8.8 3.1-5 5.8-10.4 8.1-16.3 20.2-53.3 10.6-114.7-17.9-164.3z"></path><path fill="#FAD3CD" d="M468.5 855.9c-4.8-8.1-8.2-17-7.4-26.7s4.7-18.7 8.4-27.6 7.7-17.9 5.5-28.4-9-19.5-10.9-30.1c-3.9-21 11.6-37.4 13.6-57.3.2-1.8.2-3.6.2-5.5-10.6-15.7-23.1-29.9-37.2-41.8-16.2-13.7-35.4-26.9-43.6-47.3-2.2-5.6-3.7-11.4-4.5-17.4-3.4 5.8-6.2 12-6.4 18.6-.2 10.4 8.3 15.7 15.8 19.3s15.2 7 20.6 13.5c5.9 6.9 9.1 15.7 8.9 24.8-.7 20.8-18.2 34-26.2 51.8-4 8.9-3.5 20.1 2 26.4s13.1 10.6 19.6 15.8c14.2 11.2 21.9 28.6 20.8 46.6-1.4 18.2-12.8 31.9-20.9 47.5-4 7.6-6.8 15.6-3.7 24.5 3.1 8.9 10.5 15.7 15.5 23.5 5.3 8.6 8.4 18.2 9.1 27.9 13.9-6.1 26.5-14.3 36.7-25.1-.1-1.9-.3-3.7-.8-5.6-2.3-10.1-10.3-19.3-15.1-27.4z"></path><path fill="#FAD3CD" d="M417.3 877.9c-5.6-8.2-8.8-18.1-7.6-27.6 1.2-9.5 5.7-18.1 10.4-26.2 9.1-15.6 18.7-30.4 13.2-49.2-2.6-8.5-7.7-16-14.7-21.5-6.5-5.2-13.9-9.5-19.7-15.7-13.7-14.9-9.6-34.7.1-49.9s29.1-33.4 16.7-52.6c-9.1-14.2-30.3-13.8-37.9-29.9-8.8-18.6 4.7-33.8 13.7-50.5.3-14.1 2.8-28.4 5.3-41.5.1-.8.3-1.6.5-2.3-1.3-5.4-3.2-10.7-5.9-15.6-4.4-8.1-10.6-14.9-15.7-22.5-1-1.4-1.9-2.9-2.7-4.4-11.5 3.4-23.5 5-36.3 5-4.6 0-9.2-.2-13.7-.4 3.4 4.6 7.3 8.9 10.5 12.8 6.5 7.9 12.2 16 15.7 25.7 7.4 20.3 4 42.9-6.9 61.2-5.1 8.8-11.8 17.9-12.1 28.3-.3 10.4 8.4 15.5 15.8 19.2 7.4 3.7 15.1 7.1 20.6 13.5 5.9 6.9 9.1 15.7 8.9 24.8-.8 20.9-18.2 34.1-26.3 51.9-4 8.9-3.6 20.1 2 26.4 5.6 6.3 13.2 10.5 19.7 15.7 13.9 11.1 22 28.5 20.7 46.7s-12.7 31.9-20.8 47.4c-4 7.6-7 15.6-3.8 24.5s10.5 15.7 15.5 23.6c6.4 9.9 9.5 21.6 9.4 33.3 14.6-1.6 29.4-4.5 43.4-9.2 0-4.8-.6-9.6-1.9-14.3-3.1-10.3-10.5-18.5-16.1-26.7z"></path><path fill="#4671AA" d="M367 871.2c-3.2-8.9-.2-16.9 3.8-24.5 8.1-15.5 19.5-29.2 20.8-47.4s-6.8-35.6-20.7-46.7c-6.5-5.2-14.1-9.4-19.7-15.7-5.6-6.3-6-17.5-2-26.4 8.1-17.8 25.5-31 26.3-51.9.2-9.1-3-17.9-8.9-24.8-5.5-6.4-13.2-9.8-20.6-13.5-7.4-3.7-16.1-8.8-15.8-19.2.3-10.4 7-19.5 12.1-28.3 10.9-18.3 14.3-40.9 6.9-61.2-3.5-9.7-9.2-17.8-15.7-25.7-3.3-4-7.1-8.2-10.5-12.8-2.8-.2-5.5-.4-8.3-.7 1.3 3.2 2.9 6.3 4.9 9.2 5.2 7.6 11.4 14.4 15.8 22.5 9.4 17.2 10.1 39.4 1.3 57.1-8.1 16.1-24.2 33.4-15 52.7 7.7 16.2 28.8 15.8 38 30 12.4 19.2-7.1 37.3-16.7 52.5-9.6 15.2-13.8 35.1-.1 49.9 5.7 6.3 13.2 10.5 19.7 15.8 7 5.5 12 12.9 14.6 21.4 5.5 18.9-4 33.6-13.1 49.3-4.8 8.1-9.3 16.7-10.4 26.1-1.1 9.4 2 19.4 7.6 27.7s13 16.3 16 26.7c1.5 5.2 2.1 10.5 1.9 15.8 4.2-.2 8.5-.6 12.7-1 .1-11.7-3-23.4-9.4-33.3-5-7.9-12.3-14.7-15.5-23.6z"></path><path fill="#4671AA" d="M391.4 495.4c2.6 4.9 4.6 10.1 5.9 15.6 1.1-5.4 2.7-10.8 4.3-16.1-3.3-6.3-7.5-12-12.1-17.6-2.9-3.5-6.2-7.2-9.2-11.2-2.4.9-4.8 1.7-7.2 2.4.8 1.5 1.7 3 2.7 4.4 5 7.6 11.2 14.4 15.6 22.5z"></path><path fill="#4671AA" d="M423.1 862.6c-3.1-8.9-.3-16.9 3.7-24.5 8.1-15.6 19.5-29.3 20.9-47.5 1.1-18-6.6-35.4-20.8-46.6-6.5-5.2-14.1-9.5-19.6-15.8s-6-17.5-2-26.4c8-17.8 25.5-31 26.2-51.8.2-9.1-3-17.9-8.9-24.8-5.4-6.5-13.1-9.9-20.6-13.5s-16-8.9-15.8-19.3c.1-6.7 3-12.8 6.4-18.6-.9-6.2-1.2-12.6-1-19-9 16.7-22.5 32-13.7 50.5 7.6 16.1 28.8 15.7 37.9 29.9 12.4 19.2-7 37.4-16.7 52.6s-13.8 35-.1 49.9c5.8 6.2 13.2 10.5 19.7 15.7 7 5.5 12.1 13 14.7 21.5 5.5 18.8-4.1 33.6-13.2 49.2-4.7 8.1-9.2 16.7-10.4 26.2-1.2 9.5 2 19.4 7.6 27.6 5.6 8.2 13 16.4 16 26.7 1.3 4.7 2 9.5 1.9 14.3 4.2-1.4 8.4-3.1 12.5-4.8-.8-9.8-3.8-19.4-9.1-27.9-5.1-7.9-12.5-14.7-15.6-23.6z"></path><path fill="#4671AA" d="M293.2 469c-1.5-.2-3.1-.2-4.4-.1 7.1 13 10.4 26.8 8.9 41.4.7 1.4 1.3 2.8 2 4.3 1.5 3.4 2.8 6.8 4.1 10.3.5-2.2 1-4.5 1.3-6.8 2.9-18.7-.5-36.4-11.9-49.1z"></path><path fill="#4671AA" d="M321.3 888.5c-3.2-8.8-9-15.7-15.2-22.7s-12-13.3-11-22.3 7.2-16.2 11.5-23.4c9.3-15.3 11.4-30.6 3.8-47.1-6.7-14.5-18.2-26-25.7-40-3.4-6.2-5.7-13.1-4.5-20.2 1.5-8.9 7.6-16.4 13-23.3 5.4-6.9 10.7-13.8 13.6-22.1 2.9-8.3 2.3-18.3-.6-27-2.8-8.4-7.1-16.1-10.8-24-1.4 1.3-2.9 2.6-4.6 3.8-1.2.9-2.3 1.8-3.5 2.7.9 1.9 1.9 3.8 2.8 5.7 4.1 8.3 8.8 17.8 8.4 27.6-.4 9.8-5.4 16.3-10.7 23.1-10.1 12.9-20.4 25.3-18.6 42.8 1.5 15.1 10.5 27.8 18.6 40.1 8.1 12.3 16.5 25.1 11.4 39.4-5.6 16.1-21 28.2-19.3 46.7 1.9 20.7 23.7 30 27.9 49.3 2.1 9.8.3 18-3.8 25.2 5 1.1 10.3 2.1 15.6 3 1.7-4.1 2.9-8.4 3.6-12.6 1.4-8.3.8-16.8-1.9-24.7z"></path><path fill="#4671AA" d="M234 855.8c-3.7-8.4-2.2-18.3 1-27.3s7.6-18.1 9.2-27.7-.4-18.5-4.3-27.5-9.7-18.8-8-29.9c1.7-11.1 6.3-19.2 9.4-28.7 1.7-5 2.8-10.2 3.2-15.4.3-6-1.1-11.7-1.9-17.5-.7-4.7-.2-9.1 1-13.4-3.2 4.4-6.2 9-9.1 13.7.3 5.7 1.1 11.5.5 17.2-2 19.9-17.5 36.3-13.6 57.3 2 10.6 8.7 19.6 11 30.1s-1.9 19.5-5.6 28.4-7.6 17.9-8.3 27.7 2.6 18.5 7.3 26.6c4.4 7.5 11.7 16 14.7 25.3 5.1 4.1 10.6 7.9 16.5 11.2 0-9.6-3.1-18.7-8.1-26.9-4.9-7.8-11.2-14.8-14.9-23.2z"></path><path fill="#4671AA" d="M476.7 842.3c-3.7-8.4-2.1-18.3 1.1-27.3s7.6-18.1 9.1-27.7-.3-18.5-4.3-27.5-9.6-18.8-8-29.9c1.6-11.1 6.3-19.2 9.5-28.7.8-2.5 1.5-5 2-7.6-2.6-4.5-5.3-8.9-8.2-13.2 0 1.8 0 3.6-.2 5.5-2 19.9-17.5 36.3-13.6 57.3 1.9 10.6 8.7 19.6 10.9 30.1 2.2 10.5-1.8 19.5-5.5 28.4s-7.6 17.9-8.4 27.6 2.6 18.6 7.4 26.7 12.8 17.3 15.2 27.5c.5 1.9.7 3.7.8 5.6 4.3-4.5 8.1-9.4 11.5-14.8-1.2-3-2.7-6-4.4-8.8-4.8-7.8-11.2-14.8-14.9-23.2z"></path></g><g><path fill="#FAD3CD" d="M273.8 395.7c-1-3.9-4.7-5.4-8.4-4.9-27.9 3.7-55.7 8-83.4 12.8 18.7-8.6 38.6-14.5 59-17.4 2.9-.4 1.7-4.8-1.2-4.4-8.9 1.2-17.8 3.1-26.5 5.5 16.7-7.2 33.5-14 50.6-20.4 3.5-1.3 6-4.5 4.9-8.4s-4.8-6.2-8.4-4.9c-9.5 3.6-19 7.3-28.4 11.1l22.5-15.4c2.4-1.6.2-5.7-2.2-4-14.1 9.8-28.2 19.3-42.5 28.6l-12.7 5.5 15.7-11.3 50.5-35.9c3-2.2 4.5-5.9 2.6-9.4s-6.4-4.8-9.4-2.6l-60 42.7c13.9-14.7 26.7-30.4 42.7-42.8 2.3-1.8-.9-5.1-3.2-3.3-7 5.5-13.6 11.5-19.7 18 3.3-4.4 6.5-8.9 9.8-13.4 5.2-7.3-6.7-14.3-11.8-7.2-14.8 20.7-30 41.1-45.5 61.2 11.5-21.5 21.2-44.2 36.7-63.3 2.3-2.9 2.9-6.8.1-9.7s-7.4-3.1-9.7-.2c-18.6 22.9-28.9 51.3-44.2 76.4l26.4-80.2c2.8-8.5-10.5-12.3-13.2-3.9-7.2 21.9-14.4 43.8-21.7 65.7 2.8-20.1 6-40.2 9.7-60.1.5-2.9-3.9-4.2-4.4-1.3-2.9 15.7-5.5 31.6-7.9 47.4-1.6-17.7-4.4-35.2-8.3-52.5-1.9-8.7-15.3-5.2-13.3 3.4 4.8 21.1 7.5 42.4 9.3 63.9-5.2-18.6-10.6-37.1-16.3-55.6-.8-2.8-5.3-1.7-4.4 1.1C112.9 324 118 341.4 123 359c-8.2-17.1-15.3-34.8-25.5-50.9-1.5-2.4-5.6-.2-4 2.3 7.4 11.5 13.1 24 18.8 36.4l-2.4-3.7c-9.2-14.4-18.4-28.8-27.7-43.1-4.8-7.5-16.8-.8-12 6.7 2.7 4.3 5.4 8.5 8.2 12.7l-6.9-9.5c-1.8-2.3-5.1.9-3.3 3.2 9.6 12.6 17.8 26.1 25.7 39.9l-.9.9c-3.9-5.6-7.6-11.3-11.1-17.1-3.3-5.3-13.6-3.9-12.9 3.3.1 1.3.3 2.7.4 4s.1.7.1 1l-12.6-19.9c-1.5-2.5-5.6-.3-4 2.2L70.4 355c-7.4-7.6-14.4-15.7-20.8-24.2-2.2-3-5.8-4.6-9.4-2.6s-4.8 6.4-2.6 9.3c10 13.4 21.2 25.8 33.4 37.1-12.4-5.2-24.4-11.4-35.2-19.8-2.9-2.3-7.6-.5-9.4 2.4s-.6 7.2 2.3 9.4c18.7 14.5 40.6 22.4 62.7 29.9l-24.9-6.1c-17.8-4.4-35.8-8.1-54.2-8.2-8.9-.1-9.1 13.6-.2 13.7 16 .2 31.6 3.2 47.2 6.9l10.8 2.6c-7.8-.3-15.8.5-23.6.4-14.7-.2-29.6-2.7-44.3-4.3-2.9-.3-3 4.3 0 4.6L27 409c-5.3.7-10.5 1.4-15.7 2.3-8.7 1.5-5.2 14.9 3.5 13.4 22.6-3.9 45.7-5.1 68.6-3.6l7.4.6-21.4 4.9c-18.5 4.4-36.9 9-55.2 13.8-8.6 2.3-5.2 15.6 3.4 13.3 17-4.4 34.1-8.7 51.2-12.7-14.6 7.9-29.3 15.5-44.1 23-2.7 1.3-.4 5.3 2.2 4 19.7-9.8 39.2-20.1 58.4-30.9l11.1-2.5-15.7 11.8c-15.3 11.8-30.1 24.2-44.2 37.5-6.4 6.1 3.2 16 9.6 9.8s11.3-10.4 17.1-15.4c-6.6 7.7-13.2 15.4-19.6 23.2-1.9 2.2 1.3 5.5 3.2 3.3 12.7-15.4 25.8-30.4 39.3-45.1l5.8-4.5c-11.6 17.9-23 35.9-34 54.1-4.6 7.6 7.2 14.7 11.8 7.1 9.6-15.9 19.6-31.7 29.6-47.3-6.8 13.7-12.5 28-17 42.7-.9 2.9 3.5 4.1 4.4 1.3 6.3-20.3 14.8-39.8 25.4-58.2-6.9 20.8-13.7 41.6-20.6 62.4-2.4 7.4 8.7 12.2 12.5 5.5l3-5.2c1-1.6 1.3-3.5.7-5.3 8.2-25.1 16.5-50.2 24.8-75.3 0 .9.1 1.8.1 2.8-4.3 20.5-9.8 40.7-16.5 60.5-1 2.8 3.4 4.1 4.4 1.3 4.3-12.8 8.2-25.7 11.5-38.8-1.1 12.9-2.6 25.7-4.6 38.5-.5 2.9 3.9 4.2 4.4 1.3 1.3-8.4 2.4-16.8 3.3-25.2 1.2 13.2 2.8 26.3 5 39.4 1.5 8.7 14.8 5.2 13.3-3.5-4.4-25.8-6.2-51.8-7.5-77.9 7.8 27.8 10 57.3 20.7 84.4 1.3 3.4 4.5 5.9 8.4 4.9s6.3-4.9 4.9-8.4c-7.6-19.4-11.2-40-15.4-60.3 7.8 12.8 15.6 25.7 23.3 38.7v1.1c.1 2.3 1.1 5 3.3 6s5.7 1.8 8.5.1c2.1-1.2 3.5-3.5 3.5-5.9-.2-3.4-2-5.8-3.6-8.6l-6-10.1c-3.8-6.4-7.7-12.8-11.6-19.2l-3.5-5.8c10.1 12.2 20.6 24.1 31.5 35.7 2.1 2.1 5.4-1.1 3.3-3.2-12.8-13.7-25.2-27.8-36.9-42.4l11.2 8.8 46.7 38.5c2.8 2.4 6.8 2.9 9.7.2s3-7.4.1-9.8l-40.8-33.7-8-6.5c17.2 7.2 34.2 14.8 51.3 22.2 2.8 1.2 4-3.2 1.3-4.4-13.9-6-27.7-12.2-41.7-18.2l53.2 13.3c8.6 2.2 12.4-11 3.8-13.2l-71-17.9 13.6.3 47.8.9c2.9.1 3-4.5.1-4.5l-44.2-.9-21.6-.4h-2.6l27.3-4.6c18.8-3 37.5-5.8 56.4-8.3 3.6-.6 5.8-5.2 4.9-8.5zM84 367.9L72.7 350c.5.4 1.1.7 1.7.8 4.7 7.4 9.6 14.5 14.8 21.5l-5.2-4.4zM98 350l-.4.2-5.7-9.7L98 350z"></path><path fill="#4371AC" d="M152.4 386c-15.6-3-31.3-2.6-42.2 6.1-8.8 7-9.8 16.8-3 24.8s23 13.3 38.2 11.8 24.9-10.5 25.6-20.9c.5-7.7-5.9-20.2-18.6-21.8z"></path><path fill="#FFF" d="M121.4 404h-.2c-.7.2-1.3.7-1.5 1.4-.2.8.1 1.6.7 2.1.5.5 1.3.6 2 .3.8-.3 1.3-1 1.3-1.8v-.2c0-1-.9-1.9-2-1.8h-.3z"></path><path fill="#FFF" d="M126.6 409.6c-.3-.3-.7-.7-1.2-.6-.4 0-.8.1-1.1.3-.3.1-.5.3-.7.6-.1.3-.2.6-.2.9 0 .4.2.9.5 1.2.3.3.7.5 1.1.5.9 0 1.7-.6 1.9-1.5.1-.5 0-1-.3-1.4z"></path><path fill="#FFF" d="M132.2 412.5c-.5-.4-1.2-.6-1.8-.4-.4.1-.8.3-1.1.6-.8.7-.8 1.9-.1 2.7.1.1.1.2.2.2.4.3.9.5 1.4.4.6-.1 1.1-.4 1.4-.9.2-.3.3-.5.4-.8.2-.6 0-1.3-.4-1.8z"></path><path fill="#FFF" d="M137.5 413.6l-.6.3c-.8.5-1.1 1.5-.6 2.3.1.1.1.2.2.3.6.7 1.6.7 2.3.1.1-.1.3-.3.3-.4l.3-.6c.2-.8-.2-1.7-1.1-2-.3-.1-.5-.1-.8 0z"></path><path fill="#FFF" d="M145.3 415.7v-.3c0-.4-.2-.9-.5-1.2-.4-.3-.8-.6-1.3-.6h-.2c-.3 0-.7.1-1 .3-.4.2-.7.6-.8 1-.4.7-.2 1.6.3 2.2.6.5 1.3.6 2 .5.8-.3 1.4-1 1.5-1.9z"></path><path fill="#FFF" d="M150.8 412.2c-.1-.7-.7-1.1-1.4-1.1-.4 0-.7.1-1 .3l-.2.3-.2.2c-.7.7-.6 1.9.1 2.5.1.1.2.2.4.3.5.2 1 .2 1.5-.1.5-.3.9-.8.9-1.4 0-.3 0-.7-.1-1z"></path><path fill="#FFF" d="M153.9 407.3c0-.1 0-.2-.1-.3 0-.3-.1-.6-.3-.8-.3-.3-.8-.4-1.2-.3h-.2l-.5.2-.6.4c-.7.7-.7 1.8-.1 2.4.7.7 1.8.7 2.4.1.5-.5.7-1.1.6-1.7z"></path><path fill="#FFF" d="M152.7 400.7c-.1-.2-.1-.4-.2-.6-.1 0-.1 0-.1-.1-.1-.3-.4-.5-.7-.6h-.2c-.5-.1-.9 0-1.3.3-.6.3-.9.9-.9 1.5 0 .7.4 1.3 1 1.6.6.2 1.2.1 1.7-.2.3-.2.5-.4.6-.7.1-.4.2-.8.1-1.2z"></path><path fill="#FFF" d="M146 395.6c-.9 0-1.7.8-1.7 1.7 0 .9.8 1.7 1.7 1.7.9 0 1.7-.8 1.7-1.7 0-.9-.8-1.7-1.7-1.7z"></path><path fill="#FFF" d="M140.6 394.9c-.4-.4-1-.5-1.5-.4 0 .1 0 .1-.1.1-.6.2-1.1.6-1.3 1.2a2 2 0 0 0 1.4 2.3c.3.1.5.1.8 0 .6-.2 1.1-.7 1.3-1.3 0-.2.1-.4.1-.6 0-.5-.3-1-.7-1.3z"></path><path fill="#FFF" d="M135.2 396c-.1-.1-.1-.3-.2-.5-.4-.6-1.3-.9-2-.7-.6.2-1.1.8-1.2 1.4-.1.7.2 1.4.8 1.8.6.2 1.2.2 1.8 0 .7-.4 1-1.2.8-2z"></path><path fill="#FFF" d="M129.3 397.8c-.1-.6-.6-1-1.2-1-.3-.1-.6.1-.9.2l-.5.5-.3.9c0 .2.1.5.2.7.2.3.4.5.7.6.5.3 1.2.1 1.6-.3.3-.3.5-.7.5-1.1 0-.2 0-.3-.1-.5z"></path><path fill="#FFF" d="M125.5 399.6c-.2-.5-.6-.9-1.1-1.1-.5-.1-1-.1-1.5.2l-.5.4c-.4.3-.6.8-.5 1.3 0 .5.2 1 .6 1.4.4.3 1 .4 1.5.3.8-.2 1.4-.9 1.5-1.7v-.8z"></path><path fill="#EFCA6F" d="M140.8 385.4h-.5c-.7.4-1.2 1.2-1.3 2-.4 1-.8 2-1 3-.2.7.2 1.5.9 1.8.7.2 1.5-.2 1.8-1 .4-1.1.6-2.2.6-3.3.2-.9.1-1.8-.5-2.5z"></path><path fill="#EFCA6F" d="M134.4 388.7c-.1-1.3-.1-2.7-.9-3.7-.3-.2-.6-.2-.9 0-.7 1.1-1.1 2.5-.9 3.8-.1 1.5-.3 2.8 1 3.8s.9.1 1.2-.1.7-2.5.5-3.8z"></path><path fill="#EFCA6F" d="M126.5 390.2c-.5-1.2-1.1-2.9-2.3-3.5-.3-.2-.8-.1-.9.3 0 0 0 .1-.1.1-.5 1.2.2 2.9.6 4.1s.6 2.8 1.9 3.5c.4.2.9.1 1.2-.3.8-1.3.1-2.9-.4-4.2z"></path><path fill="#EFCA6F" d="M120.2 392.2c-.9-1-2.2-1.5-3.6-1.5-.5.1-.8.5-.7 1 0 .1.1.3.1.4.7.8 1.5 1.4 2.3 2.2s1.3 2 2.3 2.2c.6.1 1.3-.2 1.5-.8.4-1.4-.9-2.7-1.9-3.5z"></path><path fill="#EFCA6F" d="M117.1 399c-1.5-1.1-4-1-5.8-1.2s-3.4-.3-4.9.5-.2.6.1.7 3.4 1.1 5.1 1.5 3.6 1 5.2.5c.6-.2.9-.8.8-1.3-.1-.3-.3-.6-.5-.7z"></path><path fill="#EFCA6F" d="M115 405c-1.6-.8-3.5-.6-5.2-.4-1.5 0-3 .5-4.2 1.4-.2.2-.3.5-.1.7l.1.1c1.3.5 2.8.8 4.2.7 1.6.3 3.3.2 4.9-.1.9-.4 1.4-1.9.3-2.4z"></path><path fill="#EFCA6F" d="M119.9 411c-1.8-.1-3.2.9-4.7 1.8s-2.9 2.1-4.1 3.4c-.5.4 0 1.2.6 1.1 1.7-.4 3.4-1 5-1.8 1.6-.7 3.2-1.4 4-3 .3-.5.1-1.1-.4-1.4-.1 0-.2-.1-.4-.1z"></path><path fill="#EFCA6F" d="M124.3 416.6c-1.4.2-2.1 1.3-2.9 2.3-.8.9-1.4 2-1.8 3.2-.1.4.1.8.5.9.2 0 .3 0 .5-.1 1-.6 1.9-1.3 2.7-2.2.9-.9 2-1.6 2.2-2.9 0-.6-.6-1.2-1.2-1.2z"></path><path fill="#EFCA6F" d="M133.1 419c-.1-.4-.5-.7-1-.6-.1 0-.2.1-.2.1-1.4.8-2 2.5-2.6 3.9s-1.3 3-.6 4.3c.2.2.4.3.7.3 1.4-.4 2.1-2.2 2.7-3.4s1.4-3 1-4.6z"></path><path fill="#EFCA6F" d="M141.5 421.6c-.4-1.2-2.4-1.3-2.7 0s-.4 4 .5 5.4c.2.5.8.7 1.3.5.2-.1.4-.3.5-.5.7-1.7.9-3.6.4-5.4z"></path><path fill="#EFCA6F" d="M150.4 422c-.7-1.2-1.8-3.1-3.4-3-.5-.1-1 .3-1.1.9v.2c0 1.3 1.3 2.2 2.1 3.3s1.1 2.5 2.2 3c.3.2.7.2 1-.1 0-.1.1-.1.1-.2.6-1.3-.2-2.9-.9-4.1z"></path><path fill="#EFCA6F" d="M149.6 386.6c-.9-.3-2 1-2.5 1.5-1 1.1-1.9 2.2-2.7 3.4-1.1 1.5 1.4 2.9 2.4 1.5s4.4-5.8 2.8-6.4z"></path><path fill="#EFCA6F" d="M159.5 389.4c-1.4-.4-3.1.5-4.4 1.2s-3.4 1.5-4.4 2.9c-.3.6-.1 1.3.4 1.6.2.1.4.2.6.2 1.8-.2 3.3-1.4 4.8-2.3s2.8-1.8 3.3-3.2-.1-.4-.3-.4z"></path><path fill="#EFCA6F" d="M166.8 397.2c-1.4-.8-3.1-.5-4.7-.3-1.9.1-3.8.7-5.4 1.7-.4.3-.5.9-.2 1.3.1.2.3.3.6.3 1.8 0 3.6-.3 5.3-.7 1.6-.3 3.3-.3 4.5-1.3s.2-.8-.1-1z"></path><path fill="#EFCA6F" d="M168.3 406.4c-2.5-1.9-6.8-3.4-10-2.9-.5.2-.8.7-.6 1.3.1.2.2.4.4.5 1.5.6 3 .9 4.6 1.1 1.8.3 3.7.4 5.5.4.2 0 .3-.2.1-.4z"></path><path fill="#EFCA6F" d="M166.4 415c-1.3-1.4-2.6-2.6-4.1-3.8-1.4-1.2-3-2.2-4.7-2.9-.9-.3-1.3.7-.8 1.3 1.1 1.3 2.5 2.5 4 3.4 1.6 1.1 3.2 2 5 2.8.5.2 1.1-.3.6-.8z"></path><path fill="#EFCA6F" d="M160.3 420.7c-.8-1.2-1.7-2.3-2.7-3.3-.9-1.1-2-2.1-3.2-2.9-.4-.2-.9 0-1.1.4-.1.2-.1.3 0 .5.5 1.5 1.4 2.7 2.6 3.7 1.1 1.1 2.4 1.9 3.8 2.4.3 0 .6-.2.6-.6v-.2z"></path><g fill="#3D3F4C"><path d="M132.5 380.5c-.6-.8-1.8-1-2.7-.4-.1 0-.1.1-.1.1-.4.4-.5 1.1-.2 1.6l.4.4c.4.7 1.3 1 2 .6h.1c.7-.5.9-1.5.5-2.3z"></path><path d="M129.9 382.2h-.2l.2.2v-.2z"></path></g><g fill="#3D3F4C"><path d="M120.2 382.3c-.7-.8-1.9-.8-2.7-.1l-.1.1c-.5.4-.6 1.1-.3 1.7l.3.4.3.6c.7.7 1.9.6 2.5-.1l.1-.1c.6-.7.6-1.8-.1-2.5z"></path><path d="M117.4 384.4z"></path></g><path fill="#3D3F4C" d="M107.2 390.9c-.5-.5-1.2-.8-1.9-.6-.7.3-1.2 1-1.3 1.8 0 .7.5 1.3 1.2 1.4h.3c.9.2 1.8-.5 1.9-1.4.1-.4 0-.8-.2-1.2z"></path><path fill="#3D3F4C" d="M100 402.8c-.9-.9-2.3-1-3.3-.2-.5.5-.5 1.3-.1 1.8.2.3.5.5.8.6.8.5 1.9.4 2.5-.4.5-.5.5-1.3.1-1.8z"></path><path fill="#3D3F4C" d="M104.2 415c-.3-.3-.7-.5-1.2-.5s-1 .3-1.3.7c-.1.2-.2.5-.2.7-.2.2-.2.4-.2.7.1.4.5.8.9.9.9.3 1.8-.1 2.2-.9.2-.5.2-1.1-.2-1.6z"></path><path fill="#3D3F4C" d="M112.6 422.1c-.6-.2-1.2.1-1.5.6-.5.7-.4 1.6.1 2.2.4.4.9.4 1.4.2h.4c.5-.2.8-.7.8-1.3-.1-.7-.5-1.4-1.2-1.7z"></path><path fill="#3D3F4C" d="M141.3 380.6c-.2-.9-1.1-1.5-2-1.4-.5.1-.9.4-1.1.8-.4.6-.3 1.4.2 1.9.3.4.8.5 1.3.3.1.1.3.1.4 0 .7 0 1.3-.6 1.2-1.4v-.2z"></path><path fill="#3D3F4C" d="M150.2 381.9c-.8-.5-1.9-.4-2.5.3-.5.5-.6 1.4-.1 2l.6.4h.2c.6.3 1.4.2 1.9-.2.7-.6.7-1.6.2-2.3-.1 0-.2-.1-.3-.2z"></path><path fill="#3D3F4C" d="M162.9 385c.1-.9-.5-1.7-1.4-1.8-.4-.1-.7 0-1 .2-.8.4-1.1 1.5-.7 2.3.2.3.4.5.7.7.6.3 1.3.2 1.7-.3 0-.1 0-.1.1-.1.3-.2.6-.6.6-1z"></path><path fill="#3D3F4C" d="M170 391.9c-.2-.3-.5-.6-.8-.9-.5-.2-1-.2-1.5 0h-.2c-.5.2-.7.7-.7 1.2-.1.5.1 1 .5 1.3.4.3.8.5 1.2.6.7.2 1.5-.2 1.7-.9.1-.4 0-.9-.2-1.3z"></path><path fill="#3D3F4C" d="M174.3 399.2c-.4-.5-1.1-.6-1.6-.2-.4.2-.8.6-1 1-.3.4-.3.9-.1 1.3 0 .3 0 .5.2.7.6.8 1.7 1 2.5.5.1 0 .1-.1.2-.2.8-.8.8-2.2-.1-3 0 0 0-.1-.1-.1z"></path><path fill="#3D3F4C" d="M175.4 410.3c-.8-.7-2.1-.6-2.8.2-.3.4-.5.8-.5 1.3s.3 1 .8 1.2h.6c.2.1.5.2.7.1.9-.1 1.7-.9 1.6-1.8 0-.4-.2-.7-.4-1z"></path><path fill="#3D3F4C" d="M170.3 418.5c-1.1-.3-2.2.4-2.4 1.4 0 .1-.1.2-.1.4 0 .6.4 1.1 1 1.3.7.5 1.6.4 2.2-.1.7-.8.6-2-.2-2.7-.1-.1-.3-.2-.5-.3z"></path><path fill="#3D3F4C" d="M163.1 424.9c-.2-.2-.5-.3-.8-.3h-.5l-.7.3c0 .1 0 .1-.1.1h-.1c-.1.1-.2.2-.2.3-.5.9-.2 2.1.7 2.6.1.1.3.1.4.2 1 .3 2-.3 2.2-1.2.1-.2.1-.5.1-.7-.1-.6-.5-1-1-1.3z"></path><path fill="#3D3F4C" d="M151.8 428.7c-.7-.8-1.9-.9-2.7-.3-.6.5-.8 1.2-.6 2 .1.5.6 1 1.1 1.1.3.2.7.3 1.1.3 1-.2 1.7-1.2 1.5-2.2 0-.3-.2-.6-.4-.9z"></path><path fill="#3D3F4C" d="M139.5 429.7c-.4-.5-1.1-.6-1.7-.5-.8.2-1.3.9-1.3 1.7-.1.5.3 1.1.8 1.2.4.2.8.2 1.2 0 .3 0 .6-.1.9-.3.6-.5.7-1.4.2-2l-.1-.1z"></path><path fill="#3D3F4C" d="M126.8 429.4c-.1-.9-.8-1.6-1.7-1.6-.7 0-1.4.4-1.6 1.1-.1.4-.1.8 0 1.2.2.6.8 1.1 1.5 1.1h.5c.8-.2 1.4-.9 1.3-1.8z"></path></g></g></svg>