<svg xmlns="http://www.w3.org/2000/svg" width="1001.2" height="455" viewBox="1.4888805150985718 1.4506733417510986 998.256591796875 452.1573181152344" style=""><g><title>newarrow153_97993632</title><g data-name="Layer 2" style="isolation:isolate"><g style="mix-blend-mode:lighten" fill="#0f3"><path d="M897.3 247.4c5.6 3.3 22.3-14.7 37.3-40.2s22.7-48.8 17-52.1l-49.1-29-152.9-89.9c-7.7-3.6-15.9-7.4-23.3-9.6s-14.4-2.6-21.4-2a74.6 74.6 0 0 0-42.5 15.1c-12.6 9.3-19 19.7-25 32.7-1.8 2.5-2.7 7.9-4.1 11.8l-1.2 7.5-.6 3.8 2 .2h3.5c10.7 8-23.6-18.1 24.1 18.1-.2 0-.2-.1-.2-.1v.2c.2.2 0 .3.2-.7l4.1-29h-1.1l-1.7-.2-3.4-.5-6.9-1-27.4-4-55-7.9-219.6-31.5L113 5C95 2.1 76.1-.2 62.7 3c-6.1 2-13.6 3.2-18.5 5.8a102.1 102.1 0 0 0-16.1 10.5C17.4 28.5 8.6 41.9 4.8 54.8c-1.9 6.7-3.3 11.7-3.3 18.1S1.8 86 2.7 93.1c3 7.9 4.6 15.6 8.6 23.8l12.1 24.6 18.2 36.8L65.7 227c.1.3.3.6.2.8l-8.9 18-41.2 83.3c-6.6 12-10 23.4-13.5 34.7l-.6 14.4c-.4 5.2-.3 9.2.9 13.4 2 17.4 16.3 39.1 32.4 49.3a96.3 96.3 0 0 0 11.4 6.5c4.3 1.5 9.2 2.7 13.7 4l7 2c2.6.4 5.9.1 8.8.1 6.2-.3 11.7.6 18.5-.7l66.3-9.5 159-22.8 313.6-45.1c.7-.3 1.7 0 1.4.9l1.7 3.8c2.2 4.9 3.9 9.8 6.5 14.5a80.4 80.4 0 0 0 23.9 24 77.4 77.4 0 0 0 65.7 8.2 104.3 104.3 0 0 0 15.1-6.7l4.5-2.6 9-5.3 18-10.6L923 317l38.7-22.8 6.3-4.3.2-.2.6-.4 1-.9 2.1-1.6 1.4-1.2 4.4-4.2a78.3 78.3 0 0 0 7.8-9.3c5.4-7.2 7.1-12 9.3-17.6a60.5 60.5 0 0 0 4.2-17c2.5-16.8-1.4-34.2-10-49.2-5.8-9.5-17.4-13-27.9-8.4s-19.1 14.6-26.5 27.3c-3.5 6.2-7 12.1-10.5 18.2l-2.1 3.2.3-.3c.8-.9.5-.7.7-.8s-1.4.1-.5.2a1.3 1.3 0 0 0 .6.2 2.8 2.8 0 0 1 1.8-2c1.1-.4-.6.3-1.2.6l-2.5 1-1.3.5-.6.2h-.2l-11.6-26.4h-.1l-.3.2-2.2 1.3-49.1 28.9-137.5 80.9-17.2 10.1-4.3 2.6-2.1 1.2-1.1.7h-.4c-12.9-21.8 17.4 29.8 14.3 24.5h.1a2.6 2.6 0 0 1 .6 1.3c.2.7.1-.1.1.2s.6-1.2.1-.4l-.3.3h-.2c-23.3 14 31.7-19.2 26.1-15.7l.8 1.1 1.8 2.1a17.2 17.2 0 0 0 1.7 1.9l-.4-5.1c-.4-3.2-.1-7.2-1-9.8l-4.9-16.4c-1.8-5.6-4.7-9.8-7.8-14.7a78.4 78.4 0 0 0-25.9-23.3c-10.4-5.8-21-8.3-32.7-9.4s-25.4 1.7-38.4 3.7l-322.7 46.4-159.1 22.9-13.2 1.9h-1c-.9-.3-.3-1.2 0-1.7l21.8-44.2 7.9-15.9 7-14.1a125.6 125.6 0 0 0 6-16.1c6.4-22.2 0-45.2-11.1-65.6l-31.9-64.4c-.9-1.2.7-1.6 1.5-1.2l202.4 29.1 219.8 31.6 54.9 7.9 27.5 3.9 15.1 2.1a77.6 77.6 0 0 0 44.1-7.9 79.3 79.3 0 0 0 18.3-13.1 98.2 98.2 0 0 0 7.6-8.3c1.9-2.7 3.1-5.1 4.7-7.6l2.3-3.7v-.2c0-.2 0-.5.1-.6s.9-.1 1.3.1l117.6 69.3z" opacity=".03"></path><path d="M898 246.2c5.6 3.3 22-14.1 36.6-39s21.9-47.6 16.3-50.9l-49.1-29-152.4-89.7c-7.7-3.5-15.7-7.3-23.1-9.5s-14.2-2.7-21.1-2.1a72.8 72.8 0 0 0-42 14.9c-12.6 9.2-18.8 19.7-24.6 32.5-1.7 2.6-2.7 7.9-4 11.7l-1.2 7.4-.5 3.8h1.9l1.9.2h1.4c10.2 7.7-22.4-17.2 23 17.3-.2 0-.2-.1-.2-.1v.2c.2.2 0 .3.2-.7l3.9-27.6h-1l-1.7-.3-3.4-.5-6.9-1-27.4-3.9-55-7.9-219.7-31.6-236.7-34c-17.7-2.8-36.4-5.1-49.7-2-6 1.9-13.4 3.1-18.3 5.6a95.3 95.3 0 0 0-16 10.3c-10.7 9-19.4 22.4-23.1 35.1-1.8 6.7-3.2 11.7-3.1 18s.3 13 1.4 20c2.9 7.8 4.5 15.5 8.5 23.5l11.9 24.3 18.1 36.4L67 226.4c.2.5.6 1.1.3 1.7l-9.1 18.4-40.9 82.7c-6.5 11.8-9.9 23.1-13.4 34.3.1 9.2-2.2 19.8.1 27.5 1.8 17.3 16 38.9 32 48.8a95 95 0 0 0 11.4 6.4c4.2 1.5 9.1 2.6 13.6 3.9l6.9 1.8c2.6.4 5.8.1 8.7.2 6.1-.3 11.6.5 18.3-.7l65.6-9.5 159-22.8L633.2 374c1.4-.5 3.3 0 2.8 1.8l.2.3 1.5 3.6c2.2 4.8 3.9 9.6 6.4 14.3a78.6 78.6 0 0 0 23.5 23.5 76.5 76.5 0 0 0 64.5 8 101.4 101.4 0 0 0 14.8-6.6l4.5-2.7 9-5.2 18-10.6 143.9-84.8L961 293l6.1-4.2.3-.2.5-.4 1.1-.9 2.1-1.6 1.4-1.2 4.2-4.1a68.2 68.2 0 0 0 7.7-9.2c5.3-7.1 7-11.7 9.2-17.2a65.8 65.8 0 0 0 4.1-16.7c2.4-16.5-1.5-33.6-9.9-48.3-5.7-9.3-17.1-12.7-27.3-8.4s-18.7 14.2-25.9 26.6c-3.4 6.1-6.8 11.8-10.2 17.7l-2.4 3.7.3-.3c.8-.9.5-.7.7-.8s-1.4.1-.5.2l.6.2a3 3 0 0 1 1.8-2c1-.3-.6.3-1.2.5l-2.5 1-1.2.5-.7.3h-.2L908.2 203h-.1l-.3.2-2.2 1.3-49 28.8-137.5 81-17.2 10.1-4.3 2.5-2.2 1.3-1 .6-.3.2h-.1c6 10.4-13.8-23.2 13.5 23.3h.1a2.6 2.6 0 0 1 .6 1.3c.2.8.1-.1.1.2s.6-1.2.1-.4l-.3.3h-.2l24.8-15 .9 1 1.7 2a16 16 0 0 0 1.6 1.9l-.3-5c-.4-3.2-.2-7.1-1.1-9.8l-4.7-16.6c-1.7-5.5-4.6-9.7-7.7-14.6a74.7 74.7 0 0 0-25.6-23c-10.2-5.7-20.7-8.1-32.3-9.2s-25 1.7-37.9 3.7l-322.6 46.7-159.1 22.8-13.9 2-2 .3c-1.8-.6-.6-2.4 0-3.4l22.1-44.8 7.9-15.9 6.9-14a137.4 137.4 0 0 0 5.9-15.8c6.4-22 0-44.6-11-64.8l-32.3-65.4c-.5-.7-.8-1.9.2-2.4s1.8.2 2.8.2L335 143.7l219.8 31.6 54.9 7.9 27.5 4 15 2a76.8 76.8 0 0 0 43.4-7.7 79 79 0 0 0 18-12.9c2.6-2.6 5.1-5.4 7.4-8.2s3.1-4.9 4.6-7.4l2.2-3.6h.1v-.5a2.2 2.2 0 0 1 .3-1.4c.8-.9 1.8-.1 2.5.4l118.1 69.5z" opacity=".06"></path><path d="M898.7 245c5.6 3.3 21.7-13.6 35.9-37.8s21.2-46.4 15.6-49.7l-49.1-29-152-89.4c-7.5-3.5-15.4-7.2-22.7-9.4s-14.1-2.8-20.9-2.3c-13.9.2-29.9 5.4-41.6 14.7s-18.4 19.6-24.1 32.4c-1.6 2.5-2.6 7.7-3.9 11.5l-1.1 7.3-.6 3.7 1.8.2 1.9.2h1.4c9.7 7.4-21.4-16.3 21.8 16.5-.2 0-.2-.1-.2-.1v.2c.2.2 0 .3.2-.7l3.7-26.2h-.2l-.8-.2-1.8-.2-3.4-.5-6.9-1-27.4-3.9-55-7.9-219.6-31.6L113.5 7.9C96 5 77.6 2.9 64.4 5.8c-6 1.8-13.4 3-18.2 5.4a87.7 87.7 0 0 0-16 10.1A73.7 73.7 0 0 0 7.4 56.1c-1.8 6.5-3 11.5-2.9 17.8S4.9 86.8 6 93.7c2.9 7.7 4.5 15.3 8.4 23.2l11.8 24L44.1 177l24.1 48.8c.4.8 1 1.7.5 2.6l-9.2 18.7-40.7 82.2C12.4 341 9 352.2 5.6 363.1c-.1 9.2-2.4 19.7-.2 27.4C7 407.6 21.1 429 37 438.8a107 107 0 0 0 11.3 6.2c4.2 1.4 9.1 2.4 13.6 3.7l6.8 1.8c2.6.4 5.8.1 8.6.1 6.1-.3 11.5.5 18-.7l65-9.3 159-22.9 313.9-45.1c1 0 2.1-.5 3.1-.1s1 1.8 1 2.8v.2c0 .1-.2-.3.1.4l1.5 3.5c2.2 4.6 3.8 9.3 6.4 14a76.4 76.4 0 0 0 23 23c18.2 11.7 42.3 15 63.3 7.8a97.3 97.3 0 0 0 14.5-6.4l4.5-2.7 9-5.3 18-10.6 144-84.7 38.6-22.8 6-4 .2-.2.6-.4 1-.9 2.1-1.6 1.5-1.2 4.1-4a91.7 91.7 0 0 0 7.5-9c5.2-7 6.8-11.6 9-17a61.7 61.7 0 0 0 4-16.3c2.4-16.2-1.4-33-9.7-47.4-5.6-9.2-16.7-12.5-26.7-8.3s-18.3 13.7-25.3 25.8c-3.3 5.9-6.6 11.5-9.9 17.3l-2.4 3.7c-.6.8-.2.2-.3.3l.3-.3c.8-.9.5-.7.7-.8s-1.4.1-.5.2l.6.2a3 3 0 0 1 1.8-2c1-.3-.5.3-1.2.5l-2.5 1-1.2.5-.6.3h-.3c2.2 5.2-19.4-45.5-10.2-24h-.3l-2.3 1.4-48.9 28.8-137.6 81-17.2 10.1-4.3 2.5-2.1 1.3-1.1.6-.5.3 12.9 22.1h.1a4.4 4.4 0 0 1 .7 1.5c0-.2.6-1.2.1-.4l-.3.3h-.2c47.3-28.6 13.1-7.9 23.7-14.2h.1l.2.3.4.4 1.7 1.9 1.6 1.9-.4-5c-.4-3.2-.2-6.9-1-9.6l-4.7-16.5c-1.6-5.5-4.4-9.6-7.4-14.4a74 74 0 0 0-25.3-22.8c-10.1-5.6-20.5-8-31.9-9s-24.8 1.7-37.5 3.7l-322.4 46.9L145.8 340l-14.6 2.1a15.3 15.3 0 0 1-3 .3c-2.7-.8-.8-3.5 0-5l22.3-45.3 7.9-16 6.8-13.7a158.1 158.1 0 0 0 6-15.7c6.3-21.7-.1-44-10.9-64l-32.8-66.2c-.7-1.1-1.3-2.9.2-3.6s2.8.2 4.2.3l203.3 29.2L555 173.9l54.9 7.9 27.5 4 15 2.1a74.7 74.7 0 0 0 60.2-20.3c2.6-2.6 5-5.3 7.3-8.1s3-4.8 4.6-7.2l2.1-3.6h.1v-.8c0-.7-.1-1.5.4-2s2.7-.2 3.8.5l118.5 69.8z" opacity=".1"></path><path d="M899.4 243.8c5.6 3.3 21.4-13 35.2-36.6s20.5-45.2 14.9-48.5l-49.1-29-151.5-89.1c-7.5-3.5-15.3-7.2-22.5-9.4s-13.9-2.8-20.6-2.4a70 70 0 0 0-41.2 14.5c-12.2 9.1-18 19.6-23.6 32.2-1.5 2.5-2.5 7.6-3.7 11.4l-1.2 7.2-.6 3.7 1.8.2 1.8.2h1.3c9.2 6.9-20.3-15.5 20.7 15.6-.2 0-.2-.1-.2-.1v.2c.2.2 0 .3.2-.7l3.5-24.8h-1l-1.8-.2-3.4-.5-6.9-1-27.4-3.9-55-7.9-219.6-31.7L113.7 9.3C96.5 6.5 78.3 4.4 65.2 7.2 59.3 9 52 10 47.1 12.4a87.9 87.9 0 0 0-15.9 9.8C20.7 31 12.1 44.1 8.7 56.7 7 63.2 5.8 68.2 6 74.4S6.5 87.2 7.6 94c2.9 7.7 4.5 15.1 8.4 23l11.6 23.6 17.8 35.8 24.1 48.8c.5 1.1 1.2 2.2.6 3.4l-9.4 19.1-40.4 81.7C14 340.9 10.6 352 7.2 362.8c-.1 9.1-2.5 19.5-.4 27.1 1.4 17 15.3 38.3 31.2 47.8a90.3 90.3 0 0 0 11.3 6.1c4.2 1.3 9 2.3 13.4 3.5l6.8 1.8c2.5.3 5.7 0 8.6.1 5.9-.3 11.3.4 17.7-.8l64.3-9.2 159-22.9 314-45.1c1.4 0 2.8-.7 4.2-.1s1.3 2.3 1.3 3.7v.2c0 .2-.2-.2.1.5l1.5 3.4c2.1 4.6 3.7 9.2 6.3 13.8a76.1 76.1 0 0 0 22.6 22.6 73.5 73.5 0 0 0 62.2 7.6 110.1 110.1 0 0 0 14.2-6.3l4.5-2.7 9-5.3 18-10.6 144-84.7 38.6-22.8 6.1-4.1.5-.4 1.1-.9 2.1-1.6 1.5-1.3 4-3.9a90.6 90.6 0 0 0 7.4-8.8c5-6.8 6.5-11.3 8.7-16.6a60.1 60.1 0 0 0 3.9-16.1c2.3-15.8-1.4-32.3-9.5-46.4-5.5-9-16.3-12.3-26.1-8.2s-17.9 13.3-24.7 25L925 224c-4.6 7.2-2.4 3.6-2.7 4.2s.5-.7.7-.8-1.4.1-.5.2l.6.2a2.9 2.9 0 0 1 1.8-2c1-.3-.4.2-1.2.5l-2.5 1-1.2.5-.6.3h-.3l-9.5-22.8h-.3l-2.2 1.3-48.9 28.8-137.6 81-17.2 10.2-4.3 2.5-2.2 1.3-1.1.6-.5.3c-2.7-4.5 23.2 39.5 12.2 20.9h.1c.5.5.8 2.1.7 1.5s.6-1.2.1-.4l-.3.2-.2.2c-4.9 2.9 42.6-25.7 22.5-13.5h.1l.2.2.4.5 1.6 1.8 1.5 1.7-.4-4.8c-.3-3.2-.2-6.9-1-9.5l-4.5-16.3c-1.6-5.5-4.2-9.6-7.3-14.3a71.2 71.2 0 0 0-24.9-22.6c-10.1-5.5-20.3-7.8-31.6-8.8s-24.5 1.8-37.1 3.7l-322.3 46.7L146 341.4l-15.3 2.2a28.5 28.5 0 0 1-4 .4c-3.5-1-1.1-4.7 0-6.7l22.6-45.8 7.9-16 6.7-13.6a131.6 131.6 0 0 0 5.9-15.4c6.3-21.5-.1-43.5-10.8-63.2l-33.2-67.1c-1-1.5-1.7-3.9.3-4.9s3.7.3 5.5.4L335.4 141l219.8 31.6 54.9 7.9 27.5 3.9 15 2.1a74.5 74.5 0 0 0 41.7-7.5 71 71 0 0 0 17.3-12.4 88.6 88.6 0 0 0 7.2-7.9c1.8-2.5 3-4.8 4.5-7.2l2.1-3.5v-1.2a4.3 4.3 0 0 1 .6-2.7c1.5-1.7 3.6-.2 5 .7l119 70.1z" opacity=".13"></path><path d="M900.1 242.6c5.6 3.3 21.1-12.5 34.5-35.4s19.8-44 14.2-47.3l-49.1-29L748.6 42c-7.3-3.4-15-7.1-22.1-9.3s-13.8-2.8-20.4-2.5a67.9 67.9 0 0 0-40.7 14.3c-12.1 9-17.7 19.5-23.1 32-1.5 2.5-2.5 7.6-3.7 11.3l-1.2 7.1-.6 3.6 1.7.3 1.7.2h1.3c8.7 6.6-19.2-14.7 19.6 14.8-.2 0-.2-.1-.2-.1v.2c.2.2 0 .3.2-.7l3.3-23.4h-1l-1.8-.2-3.4-.5-6.9-1L624 84l-55-7.9-219.7-31.5L114 10.8C96.9 8 79 5.9 66.1 8.6c-5.9 1.7-13.1 2.7-18 5a79.5 79.5 0 0 0-15.8 9.6c-10.5 8.6-19 21.6-22.3 34.1-1.7 6.5-2.7 11.5-2.5 17.6s.6 12.7 1.7 19.4c2.9 7.6 4.5 14.9 8.3 22.7L29 140.3l17.6 35.5 24.1 48.8c.7 1.3 1.6 2.8.9 4.3L62 248.3l-40.2 81.2c-6.2 11.4-9.6 22.3-13 33-.2 9-2.6 19.2-.6 26.8 1.2 16.9 15 38 30.8 47.4a109.6 109.6 0 0 0 11.2 5.8c4.2 1.3 9 2.3 13.4 3.5l6.7 1.6c2.5.4 5.7.1 8.5.1 5.9-.3 11.1.4 17.5-.8l63.6-9.1 159-22.8L633 369.8c1.7 0 3.5-.9 5.2-.2s1.7 3 1.7 4.6v.4c.1.2-.2-.3.2.5l1.4 3.4c2.1 4.5 3.7 9 6.2 13.5a73.4 73.4 0 0 0 22.3 22.2 72.6 72.6 0 0 0 61 7.4 113.3 113.3 0 0 0 13.9-6.2l4.5-2.7 9-5.3 18-10.6 144-84.8 38.5-22.7 5.9-4 .6-.5 1-.8 2.1-1.6 1.5-1.3 4-3.8a99.3 99.3 0 0 0 7.2-8.6c4.9-6.7 6.4-11.1 8.5-16.3a55.2 55.2 0 0 0 3.8-15.8c2.3-15.5-1.3-31.7-9.3-45.5a20.5 20.5 0 0 0-25.6-8.2c-9.6 3.5-17.4 12.9-24 24.3s-15.4 26-12.3 21c.8-.9.5-.7.7-.8s-1.4.1-.5.2l.6.2a3 3 0 0 1 1.7-2c1.1-.3-.3.2-1.1.5l-2.4 1-1.3.5-.6.3h-.3l-8.8-21.6h-.3l-2.2 1.3-48.8 29-137.7 81-17.2 10.1-4.3 2.6-2.1 1.2-1.1.7-.6.3 11.5 19.7h.1c.5.5.8 2.1.7 1.5s.6-1.2.1-.4l-.3.2-.2.2c-19 11.5 25.9-15.7 21.3-12.8h.1l.2.2.4.4 1.4 1.7 1.5 1.7-.3-4.8c-.4-3.1-.3-6.7-1-9.4l-4.4-15.9c-1.5-5.4-4.1-9.5-7.1-14.2a69.5 69.5 0 0 0-24.6-22.3c-10-5.5-20.2-7.6-31.3-8.6s-24.2 1.8-36.6 3.7l-322.2 46.3-159.1 22.9-16 2.3a42.3 42.3 0 0 1-5 .5 3 3 0 0 1-2.2-3.9l2.2-4.6 22.8-46.3 7.9-15.9 6.7-13.4a141.3 141.3 0 0 0 5.8-15.3c6.3-21.1-.1-42.9-10.7-62.3l-33.6-68c-1.2-1.8-2.2-4.9.4-6.1s4.6.4 6.9.5l204.2 29.3 219.8 31.6 54.9 7.9 27.5 3.9 14.9 2.1a72.9 72.9 0 0 0 41-7.4 72.1 72.1 0 0 0 17-12.1c2.4-2.5 4.8-5.1 7-7.8s2.9-4.6 4.4-7l2.1-3.5v-1.5c0-1.1-.1-2.4.7-3.3s4.5-.3 6.3.9l119.4 70.3z" opacity=".16"></path><path d="M900.8 241.4c5.6 3.3 20.8-12 33.8-34.2s19.1-42.8 13.5-46.1l-49.1-29-150.6-88.6c-7.3-3.4-14.9-7-21.9-9.2s-13.6-3-20.1-2.6a65.4 65.4 0 0 0-40.3 14c-11.9 9-17.4 19.4-22.6 31.9-1.5 2.5-2.4 7.4-3.6 11.1l-1.2 7-.5 3.5 1.6.3 1.6.3.8.2h.4c8.2 6.2-18.1-13.8 18.5 14-.2 0-.2-.1-.2-.1v.2c.2.2 0 .3.2-.7l3.1-22.1h-1l-1.8-.3-3.4-.5-6.9-.9-27.4-4-55-7.9-219.6-31.8-234.9-33.7C97.4 9.5 79.8 7.4 66.9 10c-5.9 1.6-13 2.6-17.8 4.8a73.7 73.7 0 0 0-15.8 9.4c-10.4 8.5-18.8 21.4-22 33.8C9.7 64.4 8.7 69.3 9 75.4s.7 12.5 1.8 19.2c2.8 7.5 4.5 14.7 8.3 22.4l11.3 23 17.5 35.2L72 224c.8 1.6 1.9 3.4 1 5.1l-9.8 19.8-39.9 80.7c-6.2 11.2-9.5 22-12.9 32.6-.2 8.9-2.7 19-.8 26.5 1 16.8 14.7 37.8 30.4 46.9a98.8 98.8 0 0 0 11.2 5.7c4.2 1.2 8.8 2.2 13.2 3.3l6.7 1.6c2.5.3 5.6 0 8.4.1 5.8-.4 11 .3 17.3-.8l62.9-9.1 159-22.8 314.2-45.2c2.1 0 4.3-1.1 6.3-.2s2 3.5 2.1 5.5v.4l.2.6 1.4 3.3c2.1 4.4 3.6 8.9 6.1 13.3a72.7 72.7 0 0 0 21.8 21.7 70.6 70.6 0 0 0 59.8 7.2 108.6 108.6 0 0 0 13.6-6l4.5-2.7 9-5.3 18-10.6 144-84.8 38.6-22.7 5.7-3.9.5-.4 1.1-.9 2.1-1.6 1.5-1.3 3.8-3.8a82.8 82.8 0 0 0 7.1-8.4c4.8-6.5 6.2-10.8 8.3-15.9a56.7 56.7 0 0 0 3.8-15.5c2.2-15.2-1.4-31-9.2-44.6a20.1 20.1 0 0 0-25-8.1c-9.4 3.3-17 12.4-23.4 23.5l-9 15.9c-1.2 1.8-2.3 3.6-3.6 5.4l.3-.3c.8-.9.5-.7.7-.8s-1.4.1-.5.2l.6.2a2.8 2.8 0 0 1 1.7-2c1.1-.3-.2.2-1 .5l-2.5 1-1.3.5-.6.3h-.3c1.8 4.4-15.3-38.7-8.1-20.4h-.3l-2.2 1.3-48.7 28.7L722.1 319l-17.2 10.1-4.4 2.5-2.1 1.3-1.1.6-.5.4c4.8 8.2-11-18.4 10.7 18.5h.1c.5.5.8 2.1.7 1.5s.6-1.2.1-.4l-.3.2-.2.2c-18 10.8 24.4-14.8 20.1-12.1h.1l.2.2.3.4 1.4 1.5 1.4 1.6-.3-4.6c-.3-3.1-.2-6.6-1-9.3-2.8-10.7-4.8-21.5-11.2-30a68.1 68.1 0 0 0-24.3-22.1c-9.8-5.4-19.9-7.5-30.9-8.3s-23.9 1.7-36.1 3.6l-322.1 46.5-159.1 22.8-16.7 2.4c-2 .2-4 .8-6 .7a3.6 3.6 0 0 1-2.7-4.7l2.7-5.5 23.1-46.8 7.9-15.9 6.6-13.3a144 144 0 0 0 5.7-15c6.4-20.9-.1-42.3-10.5-61.5l-34.1-69c-1.5-2.1-2.6-5.8.4-7.2s5.6.4 8.3.5l204.7 29.4 219.8 31.6 54.9 7.9 27.5 3.9 14.9 2.1a70.1 70.1 0 0 0 56.8-19.1 98.6 98.6 0 0 0 6.9-7.6c1.7-2.4 2.9-4.6 4.3-6.9l2.1-3.5v-.2l.2-.5a3.4 3.4 0 0 0 0-1c0-1.4-.1-3 .9-4 2.2-2.7 5.4-.3 7.5 1l120 70.6z" opacity=".19"></path><path d="M901.5 240.2c5.6 3.3 20.5-11.4 33.1-33s18.4-41.6 12.8-44.9l-49.1-29L748.2 45c-7.2-3.4-14.7-7-21.6-9.2s-13.4-3-20-2.7c-13.3-.3-28.7 4.8-39.8 13.8s-17 19.4-22.1 31.7c-1.4 2.5-2.3 7.4-3.5 11l-1.1 6.9-.6 3.5 1.5.3 1.6.3.7.2h.4c7.7 5.8-17-13 17.4 13.1-.2 0-.2-.1-.2-.1v.2c.2.2 0 .3.2-.7l2.9-20.7h-1l-1.8-.3-3.4-.5-6.9-1-27.4-3.9-55-7.9-219.6-31.7-234.4-33.7c-16.6-2.6-34-4.7-46.7-2.2-5.9 1.5-12.9 2.5-17.8 4.5a75.6 75.6 0 0 0-15.6 9.2C24 33.5 15.7 46.3 12.6 58.6 11 65 10.1 69.9 10.5 76s.8 12.3 1.9 18.9c2.8 7.4 4.5 14.5 8.2 22.1l11.2 22.6 17.3 35 24.2 48.9c.9 1.8 2.2 3.8 1.1 5.9l-9.9 20.1-39.7 80.3c-6.1 11-9.4 21.6-12.8 32.1-.3 8.8-2.8 18.7-1 26.3.8 16.6 14.3 37.4 30 46.4a88.9 88.9 0 0 0 11.2 5.5c4.1 1.2 8.7 2.1 13.1 3.1l6.7 1.6a74.7 74.7 0 0 0 8.2 0c5.7-.3 10.9.4 17.1-.8l62.2-8.9 159-22.9 314.4-45.1c2.4-.2 4.9-1.3 7.2-.4s2.4 4.2 2.5 6.5v.5c.1.2-.1-.3.2.6l1.5 3.3c2 4.3 3.4 8.7 5.9 13a71.3 71.3 0 0 0 21.4 21.3 69.7 69.7 0 0 0 58.6 7 97.7 97.7 0 0 0 13.3-6l4.5-2.6 9-5.3 18-10.6 144.1-84.8 38.5-22.7 5.5-3.8.6-.5 1-.8 2.1-1.6 1.6-1.3 3.7-3.7a77.9 77.9 0 0 0 6.9-8.3c4.7-6.3 6.1-10.5 8.1-15.6a56.6 56.6 0 0 0 3.7-15.1c2.2-14.9-1.4-30.4-9-43.7a19.6 19.6 0 0 0-24.4-8c-9.2 3.2-16.6 11.9-22.8 22.7-2.9 5.2-5.7 10.2-8.7 15.4-1.3 2.1-3.3 5.2-3.9 5.9l.3-.3c.8-.9.5-.7.7-.8s-1.4.1-.5.2l.6.2a2.8 2.8 0 0 1 1.7-2c1-.3-.2.2-1 .5l-2.5 1-1.2.5-.7.3h-.3l-7.4-19.1h-.3l-2.2 1.3-48.6 28.7-137.8 81.1-17.2 10.2-4.3 2.5-2.2 1.3-1 .6-.6.3h-.1c-2.3-3.7 19.2 32.7 10.1 17.3h.1c.5.5.8 2.3.7 1.6s.6-1.2.1-.4l-.3.2-.2.2 18.9-11.4h.2l.4.4 1.3 1.5 1.4 1.4-.3-4.5c-.4-3-.3-6.5-1-9.1-2.8-10.6-4.7-21.3-10.9-29.8a67.2 67.2 0 0 0-24-21.8c-9.7-5.3-19.7-7.3-30.6-8.1s-23.6 1.7-35.6 3.6l-322 46.3-159.1 23.1-17.4 2.5c-2.3.2-4.7 1-7 .8a4.1 4.1 0 0 1-3.1-5.5c.9-2.2 2.1-4.2 3.1-6.4l23.4-47.3 7.8-15.9 6.5-13.2a132.8 132.8 0 0 0 5.7-14.8c6.4-20.6-.2-41.7-10.4-60.6l-34.5-69.9c-.7-1.5-1.7-2.9-1.8-4.5a4.1 4.1 0 0 1 2.3-4c3.2-1 6.5.5 9.7.7L336 136.9l219.8 31.5 54.9 7.9 27.5 4 14.8 2a68 68 0 0 0 55.7-18.7 95.9 95.9 0 0 0 6.8-7.5c1.7-2.3 2.8-4.5 4.3-6.8l2-3.3v-.3l.2-.6c0-.4.1-.8.1-1.2s-.1-3.4 1-4.7c2.6-3.1 6.3-.3 8.8 1.2l120.4 70.9z" opacity=".23"></path><path d="M902.2 239c5.6 3.3 20.2-10.9 32.4-31.8s17.7-40.4 12.1-43.7l-49.2-29-149.6-88.1c-7.1-3.3-14.5-6.8-21.3-9.1s-13.2-3-19.7-2.8a62.2 62.2 0 0 0-39.3 13.6C656 57 650.9 67.4 646 79.6c-1.4 2.5-2.3 7.3-3.5 10.9l-1.1 6.8-.6 3.4 1.5.4 1.4.3.8.2h.3c7.3 5.5-15.8-12.1 16.3 12.3-.2 0-.2-.1-.2-.1v.2c.2.2 0 .3.2-.7l2.8-19.3h-.2l-.8-.2-1.8-.2-3.4-.5-6.9-1-27.4-3.9-55-7.9-219.7-31.6-234-33.6c-16.3-2.6-33.5-4.7-46.1-2.3-5.8 1.5-12.8 2.3-17.6 4.3a76.8 76.8 0 0 0-15.6 9C25.1 34.3 16.9 47 13.9 59.2c-1.5 6.4-2.3 11.3-1.9 17.3s.9 12.2 2.1 18.7c2.7 7.3 4.4 14.3 8.1 21.8l11 22.3 17.1 34.6 24.2 49c1.1 2 2.5 4.4 1.3 6.7l-10.1 20.5-39.4 79.8c-6 10.9-9.3 21.3-12.7 31.6-.4 8.7-2.8 18.6-1.3 26.1.7 16.5 14.1 37.2 29.7 45.9a93.7 93.7 0 0 0 11.1 5.4c4.1 1.1 8.7 2 13.1 3l6.6 1.4a72.9 72.9 0 0 0 8.1 0c5.7-.3 10.8.4 16.9-.8l61.5-8.8 159-22.9 314.5-45.1c2.7-.2 5.6-1.5 8.3-.4s2.7 4.8 2.8 7.4v.5l.3.7 1.4 3.2c1.9 4.3 3.4 8.6 5.8 12.8a68.3 68.3 0 0 0 21 20.8 67.4 67.4 0 0 0 57.4 6.8 94.6 94.6 0 0 0 13-5.8l4.5-2.6 9-5.3 18-10.6 144.1-84.9 38.5-22.6 5.4-3.7.5-.4 1.1-.9 2.1-1.6 1.5-1.3 3.7-3.7a86 86 0 0 0 6.7-8c4.6-6.3 5.9-10.3 7.9-15.3a51.7 51.7 0 0 0 3.6-14.8c2.1-14.6-1.3-29.8-8.8-42.8a19.4 19.4 0 0 0-23.8-8c-9 3.1-16.1 11.6-22.2 22l-8.4 15c-1.4 2.3-2.8 4.4-4.1 6.3l.2-.3c.8-.9.5-.7.7-.8s-1.4.1-.5.2l.6.2a2.8 2.8 0 0 1 1.7-2c1-.3-.1.2-1 .5l-2.5 1-1.2.5-.7.2-.3.2c1.4 3.9-12.7-34.2-6.7-18h-.2l-2.2 1.3-48.6 28.6-137.8 81.2-17.3 10.2-4.3 2.5-2.1 1.3-1.1.6-.5.3h-.2c-8.5-14.3 11.5 19.6 9.4 16.1h.1c.5.5.8 2.3.7 1.6s.6-1.2.1-.4l-.3.2-.2.2c35.4-21.4 9.8-5.9 17.8-10.6h.1l.3.4 1.3 1.3 1.3 1.3c0-.9-.2-2.9-.3-4.3-.4-3-.3-6.4-1-9-2.7-10.6-4.5-21.1-10.6-29.5a63.8 63.8 0 0 0-23.6-21.6c-9.6-5.3-19.6-7.1-30.3-7.9s-23.2 1.7-35.1 3.6L305.9 324l-159.1 22.9-18.1 2.6c-2.7.2-5.3 1.1-8 .9a4.8 4.8 0 0 1-3.5-6.3c1-2.5 2.3-4.8 3.5-7.3l23.6-47.8 7.9-15.9 6.4-13a137.7 137.7 0 0 0 5.7-14.6c6.3-20.3-.3-41.2-10.3-59.8l-35-70.8c-.8-1.7-1.9-3.3-2.1-5.2a4.8 4.8 0 0 1 2.7-4.5c3.6-1.1 7.3.6 11 .7l205.6 29.6L556 167.1l54.9 7.8 27.5 4 14.8 2a68.1 68.1 0 0 0 38.6-6.9 66.6 66.6 0 0 0 16-11.4c2.3-2.3 4.5-4.8 6.6-7.3s2.8-4.5 4.2-6.7l2-3.3v-.3l.2-.7a3.3 3.3 0 0 0 .1-1.4c0-1.8-.1-3.9 1.2-5.3 3-3.5 7.2-.4 10 1.4L853 210.1z" opacity=".26"></path><path d="M902.9 237.8c5.6 3.3 19.9-10.4 31.7-30.6s17-39.2 11.4-42.5l-49.2-29-149.1-87.8c-7-3.3-14.3-6.8-21-9s-13.1-3.1-19.5-3a60.7 60.7 0 0 0-38.9 13.4c-11.4 8.8-16.4 19.2-21.1 31.4-1.3 2.4-2.2 7.2-3.3 10.7l-1.2 6.7-.6 3.3 1.4.5 1.4.4.7.2h.4c6.7 5-14.8-11.3 15.1 11.4-.2 0-.2-.1-.2-.1v.2c.2.2 0 .3.2-.7l2.5-17.9h-1l-1.8-.2-3.4-.5-6.9-1-27.4-4-55-7.9-219.6-31.7L115 16.5c-16.1-2.6-33-4.6-45.5-2.4-5.8 1.5-12.7 2.3-17.5 4.2l-7.7 3.6c-2.6 1.7-5.4 3.2-7.9 5.2-10.2 8.1-18.3 20.7-21.2 32.8A53.1 53.1 0 0 0 13.4 77c.8 6.2 1.1 12.1 2.3 18.5 2.7 7.2 4.4 14.1 8 21.5l10.9 22 17 34.3 24.2 49c1.2 2.3 2.8 5 1.5 7.6L67 250.8 27.8 330c-5.9 10.7-9.2 21-12.5 31.2-.5 8.6-3 18.4-1.6 25.8.5 16.4 13.8 36.9 29.3 45.5a90 90 0 0 0 11.1 5.1c4.1 1.1 8.6 1.9 12.9 2.9l6.6 1.4a71.1 71.1 0 0 0 8 0c5.6-.3 10.7.3 16.7-.9l60.8-8.7 159-22.8 314.6-45.2c3.1-.2 6.3-1.7 9.4-.4s3 5.3 3.1 8.3v.6c.1.3-.2-.3.2.7l1.4 3.2c1.9 4.1 3.3 8.4 5.7 12.5a67.9 67.9 0 0 0 20.6 20.4 66.7 66.7 0 0 0 56.3 6.6 108.6 108.6 0 0 0 12.6-5.7l4.5-2.6 9-5.3 18.2-10.6 144.1-84.9 38.4-22.6 5.2-3.6.6-.5 1-.8 2.1-1.6a12.1 12.1 0 0 0 1.6-1.3l3.5-3.6a70.8 70.8 0 0 0 6.6-7.9c4.5-6.1 5.8-10.1 7.7-14.9a49.4 49.4 0 0 0 3.5-14.6c2.1-14.2-1.3-29.1-8.5-41.8-5.1-8-14.6-11.3-23.3-7.9s-15.7 11.1-21.6 21.2l-8.1 14.5c-1.4 2.2-2.7 4.3-4 6.2s-.1.1-.2.3.5-.7.7-.8-1.4.1-.5.2l.6.2a2.8 2.8 0 0 1 1.7-2c1-.3-.1.2-1 .5l-2.5 1-1.2.5-.6.2-.3.2h-.1c1.3 3.7-11.3-31.9-6-16.8h-.2l-2.2 1.3-48.5 28.5-137.9 81.3-17.2 10.1-4.3 2.6-2.2 1.2-1.1.7-.5.3h-.1c3.8 6.6-8.9-14.8 8.6 14.9h.1c.5.5.8 2.3.7 1.6s.6-1.2.1-.5 0 .1-.3.3l-.2.2c-3.6 2.1 31.3-18.9 16.6-9.9h.1l.3.3 1.2 1.2 1.2 1.3a37.3 37.3 0 0 0-.3-4.3c-.3-2.9-.3-6.3-.9-8.9-2.7-10.4-4.4-20.8-10.3-29.1a63.1 63.1 0 0 0-23.3-21.4c-9.6-5.2-19.4-7-30-7.7s-22.9 1.8-34.7 3.6l-321.7 46.4L147 348.3l-18.8 2.7c-3 .3-6 1.2-9 .9a5.3 5.3 0 0 1-4-7c1.2-2.8 2.7-5.4 4-8.2l23.9-48.3 7.8-16 6.4-12.8a147.9 147.9 0 0 0 5.6-14.4c6.3-20-.3-40.6-10.2-58.9l-35.4-71.7c-.9-1.9-2.2-3.7-2.4-5.8a5.7 5.7 0 0 1 3-5.2c4.1-1.2 8.3.7 12.5.9l206 29.6 219.8 31.6 54.9 7.9 27.5 3.9 14.8 2.1a66 66 0 0 0 53.4-18 88 88 0 0 0 6.5-7.2c1.6-2.3 2.7-4.3 4.1-6.5l2-3.3v-.3l.3-.8c0-.5.1-1 .1-1.6s-.2-4.3 1.3-6a5.5 5.5 0 0 1 5.8-1.5c1.9.8 3.6 2.1 5.5 3.1l121.3 71.4z" opacity=".29"></path><path d="M903.6 236.6c5.6 3.3 19.5-9.8 31-29.4s16.3-38 10.7-41.4l-49.2-28.9-148.7-87.5c-6.9-3.3-14-6.8-20.7-9s-12.9-3.2-19.2-3.1A59.1 59.1 0 0 0 669 50.5c-11.2 8.8-16 19.2-20.6 31.2-1.3 2.5-2.1 7.1-3.2 10.7l-1.2 6.5-.6 3.3 1.4.4 1.3.5.7.2h.3c6.2 4.7-13.7-10.5 14 10.6-.2 0-.2-.1-.2-.1v.2c.2.2 0 .3.2-.7l2.3-16.6h-1l-1.8-.3-3.4-.5-6.9-.9-27.4-4-54.9-8-219.7-31.6L115.2 18c-15.9-2.6-32.5-4.6-44.9-2.5-5.7 1.4-12.5 2.2-17.4 4L45.3 23c-2.6 1.7-5.3 3.1-7.8 5.1-10.2 7.9-18.3 20.4-21 32.4a55.4 55.4 0 0 0-1.6 17c.9 6.1 1.2 11.9 2.4 18.3 2.7 7.1 4.4 14 8 21.2L36 138.7l16.8 34 24.2 49c1.4 2.6 3.2 5.5 1.7 8.4l-10.5 21.3-38.9 78.7c-5.8 10.6-9.1 20.8-12.4 30.8-.6 8.5-3.1 18.1-1.8 25.6.3 16.2 13.5 36.6 28.9 44.9a71.9 71.9 0 0 0 11.1 5c4 1 8.5 1.8 12.8 2.7l6.5 1.4c2.4.2 5.3-.1 7.9-.1 5.5-.3 10.5.3 16.5-.8l60.1-8.7L318 408.1l314.6-45.2c3.5-.2 7.1-1.9 10.4-.5s3.4 6 3.5 9.3v.7c.1.3-.2-.3.2.8l1.4 3c1.9 4.1 3.2 8.3 5.6 12.3a64.9 64.9 0 0 0 75.3 26.3 89.8 89.8 0 0 0 12.3-5.5l4.6-2.6 9-5.3 18-10.7L917 305.9l38.4-22.6 5.1-3.5.5-.4 1.1-.9 2.1-1.6 1.5-1.4 3.5-3.4a79.2 79.2 0 0 0 6.4-7.7c4.4-6 5.6-9.9 7.5-14.6a55.4 55.4 0 0 0 3.5-14.3c2-13.9-1.4-28.4-8.4-40.8a18.7 18.7 0 0 0-22.7-7.9c-8.5 2.7-15.3 10.6-21 20.4l-7.9 14.1c-1.2 2.1-2.5 4.1-3.7 5.9l-.9 1.2.2-.2c.8-.9.5-.7.7-.8s-1.4.1-.5.2l.6.2a2.7 2.7 0 0 1 1.7-1.9l-1 .4-2.4 1-1.3.5-.6.2-.3.2h-.1c1.1 3.4-10-29.6-5.3-15.6h-.2l-2.2 1.3-48.3 28.6-137.9 81.2-17.3 10.1-4.3 2.5-2.1 1.3-1.1.7-.6.3h-.2l8 13.7h.1c.5.4.8 2.3.7 1.6s.6-1.2.1-.5 0 .1-.3.3l-.2.2 15.3-9.2h.2l.3.3 1.1 1.1 1.1 1.1c.1-.7-.2-2.8-.2-4.1-.4-2.9-.4-6.2-.9-8.8-2.6-10.3-4.2-20.6-10.1-28.9a60.7 60.7 0 0 0-23-21.1c-9.4-5.1-19.1-6.8-29.6-7.5s-22.6 1.8-34.2 3.6l-321.6 46.4-159.1 22.9-19.5 2.7c-3.3.4-6.7 1.4-10 1.1a5.9 5.9 0 0 1-4.4-7.8c1.3-3.1 2.9-6.1 4.4-9.1l24.1-48.8 7.9-16 6.3-12.6c2.1-4.7 3.9-9.4 5.5-14.2 6.3-19.8-.3-40.1-10.1-58.1l-35.8-72.6c-1-2.2-2.4-4.1-2.7-6.5a6.2 6.2 0 0 1 3.4-5.7c4.5-1.4 9.2.8 13.8 1l206.5 29.6 219.8 31.6 54.9 7.9 27.5 3.9 14.7 2.1a65.1 65.1 0 0 0 37-6.7 63.6 63.6 0 0 0 15.3-10.9 84.2 84.2 0 0 0 6.4-7c1.6-2.3 2.7-4.3 4-6.5l2-3.2v-.4l.3-.8a10.3 10.3 0 0 0 .1-1.7c0-2.3-.1-4.9 1.5-6.7a5.9 5.9 0 0 1 6.4-1.7 59.8 59.8 0 0 1 6.1 3.4l121.8 71.7z" opacity=".32"></path><path d="M904.3 235.4c5.6 3.3 19.2-9.3 30.3-28.2s15.6-36.8 10-40.2l-49.2-28.9-148.2-87.3c-6.8-3.2-13.9-6.6-20.4-8.9s-12.8-3.2-19-3.1c-12.8-.7-27.6 4.1-38 12.9s-15.7 19.1-20.1 31c-1.3 2.5-2.1 7.1-3.2 10.6l-1.2 6.4-.5 3.2 1.2.5 1.3.5.6.2h.3l12.9 9.8c-.2 0-.2-.1-.2-.1v.2c.2.2 0 .3.2-.7l2.1-15.2h-1l-1.7-.3-3.5-.5-6.9-1-27.4-3.9-55-7.9-219.6-31.7-232.6-33.4c-15.7-2.5-32.1-4.5-44.4-2.5-5.6 1.3-12.4 2-17.2 3.8L46.3 24c-2.6 1.7-5.3 3.1-7.8 5-10.1 7.9-18.1 20.2-20.7 32.1A51.8 51.8 0 0 0 16.4 78c.9 6 1.3 11.8 2.5 18.1 2.7 7 4.4 13.8 8 20.9l10.5 21.4 16.7 33.7 24.2 49c1.4 2.8 3.5 6.1 1.8 9.3L69.4 252l-38.6 78.2c-5.7 10.4-9 20.5-12.3 30.4-.6 8.4-3.2 17.9-2 25.3.1 16.1 13.1 36.3 28.5 44.4a74.5 74.5 0 0 0 11 4.9c4 1 8.5 1.7 12.8 2.6l6.4 1.2a67.6 67.6 0 0 0 7.8 0c5.5-.4 10.4.2 16.3-.9l59.4-8.5 159.1-22.9 314.7-45.2c3.8-.2 7.8-2.1 11.5-.5s3.8 6.5 3.8 10.2c-1.2-2.1 3.3 9.1 7.2 16.5a63.2 63.2 0 0 0 73.7 25.8 100.6 100.6 0 0 0 12.1-5.4l4.5-2.7 9-5.3 18-10.6 144.2-84.8 29-17.1 4.6-2.8 2.4-1.3 1.1-.7.6-.4 5-3.3 4.2-3.3a9.2 9.2 0 0 0 1.6-1.4l3.4-3.4a74.8 74.8 0 0 0 6.2-7.5c4.3-5.8 5.5-9.6 7.3-14.2a49.4 49.4 0 0 0 3.4-14c2-13.6-1.3-27.8-8.2-39.9-4.9-7.8-13.9-10.9-22.1-7.9s-14.9 10.3-20.4 19.7l-7.6 13.6c-2 3.8-6.1 9.3-4.7 7.4s.5-.7.7-.8-1.4.1-.5.2l.5.2a3.1 3.1 0 0 1 1.8-1.9l-.9.4-2.5 1-1.3.5-.6.2h-.4c1 3.1-8.7-27.4-4.6-14.4h-.2l-2.2 1.3-48.4 28.4-137.9 81.5-17.2 10.2-4.3 2.5-2.2 1.3-1.1.6-.5.3-.3.2c-1.6-2.7 13.9 23.6 7.3 12.5.6.4.9 2.3.8 1.6s.6-1.2.1-.5 0 .1-.3.3l-.2.2 14.1-8.5h.2l.2.2 1.1 1 1 1a19.9 19.9 0 0 0-.2-4c-.3-2.8-.3-6.1-.9-8.6-2.5-10.2-4-20.4-9.7-28.6a58.6 58.6 0 0 0-22.7-20.8c-9.3-5.1-19-6.7-29.3-7.3s-22.3 1.8-33.7 3.6l-321.5 46.2L147.4 351l-20.1 2.9c-3.7.4-7.4 1.5-11.1 1.2s-6.4-5-4.9-8.6 3.3-6.7 4.9-10l24.4-49.3 7.8-16 6.2-12.5a119.5 119.5 0 0 0 5.5-14c6.3-19.4-.3-39.4-9.9-57.2l-36.4-73.6c-1-2.3-2.6-4.5-2.8-7.1a6.5 6.5 0 0 1 3.6-6.2c5-1.6 10.2.8 15.3 1l206.9 29.8 219.8 31.5 54.9 7.9 27.5 4 14.7 2a65 65 0 0 0 36.2-6.5 66.1 66.1 0 0 0 15-10.7 80.5 80.5 0 0 0 6.2-6.9c1.6-2.2 2.6-4.2 4-6.3l1.9-3.1v-.5l.3-.9a12.3 12.3 0 0 0 .2-1.9c-.1-2.5-.2-5.4 1.6-7.3a6.4 6.4 0 0 1 7-1.9 65.2 65.2 0 0 1 6.8 3.8l122.2 71.9z" opacity=".35"></path><path d="M905 234.2c5.7 3.3 18.9-8.7 29.6-27s14.9-35.6 9.3-39l-49.2-28.9-147.8-87c-6.7-3.2-13.6-6.6-20.1-8.8s-12.5-3.3-18.7-3.3a56.1 56.1 0 0 0-37.6 12.7c-11 8.6-15.3 19-19.6 30.9-1.2 2.4-2.1 6.9-3.1 10.4l-1.1 6.3-.6 3.2 1.2.5 1.1.5.6.2.3.2c5.2 3.9-11.5-8.8 11.8 8.9-.2 0-.2-.1-.2-.1v.2c.2.2 0 .3.2-.7l1.9-13.8h-.2l-.8-.2-1.7-.2-3.5-.5-6.8-1-27.5-3.9-55-7.9-219.6-31.7-232.2-33.4c-15.4-2.4-31.5-4.4-43.7-2.5-5.7 1.2-12.3 1.9-17.1 3.6l-7.6 3.2c-2.6 1.7-5.3 3-7.8 4.9-10 7.7-17.9 19.9-20.4 31.8a50.2 50.2 0 0 0-1.2 16.7c.9 6 1.3 11.7 2.6 17.9s4.4 13.6 7.9 20.6l10.4 21.1 16.5 33.4 24.3 49c1.5 3.1 3.7 6.7 1.9 10.1l-10.8 22-38.4 77.7c-5.6 10.3-8.9 20.2-12.2 29.9-.7 8.4-3.3 17.8-2.2 25.1-.1 16 12.8 36 28.1 44a68.6 68.6 0 0 0 11 4.7c4 .9 8.4 1.6 12.6 2.4l6.4 1.2c2.3.2 5.2-.1 7.7-.1 5.4-.3 10.3.2 16.1-.9l58.7-8.4 159.1-22.9 314.9-45.2c4.1-.2 8.4-2.2 12.5-.5a7.1 7.1 0 0 1 3.8 4.8c.4 2 0 4.2.3 6.3-1.1-1.9 3.3 9 7.1 16.3a61.9 61.9 0 0 0 72.1 25.2 113.1 113.1 0 0 0 11.8-5.3l4.5-2.7 9-5.3 18-10.6 144.2-84.9 29-17 4.6-2.8 2.4-1.3 1.1-.7.6-.4 4.9-3.2 4.2-3.3 1.5-1.4 3.3-3.3a84.2 84.2 0 0 0 6.1-7.3c4.1-5.7 5.3-9.4 7.2-14a49 49 0 0 0 3.2-13.6c1.9-13.3-1.3-27.2-8-39-4.8-7.6-13.5-10.7-21.6-7.8s-14.4 9.8-19.7 18.9l-7.3 13.2c-1.1 2-2.3 3.8-3.4 5.6l-1.8 2.4.2-.2c.8-.9.5-.7.7-.8s-1.4.1-.5.2l.5.2a3.1 3.1 0 0 1 1.8-1.9l-.9.4-2.5 1-1.2.5-.7.2h-.4c3.4 11.8-4.7-16.1-3.9-13.2h-.1l-2.3 1.4-48.3 28.4L726.6 326l-17.3 10.2-4.3 2.5-2.2 1.3-1 .6-.6.3-.2.2c-6-10.1 7.9 13.7 6.5 11.3.6.4.9 2.3.8 1.6s.6-1.2.1-.5 0 .1-.3.3l-.2.2 12.9-7.8h.2l.2.2 1 .9 1 .8a34.6 34.6 0 0 0-.3-3.8c-.3-2.9-.3-6-.8-8.6-2.5-10-3.9-20.1-9.5-28.3a59.2 59.2 0 0 0-22.3-20.7c-9.2-4.9-18.8-6.4-29-6.9s-22 1.7-33.2 3.5l-321.4 46.3-159.1 22.8-20.8 3c-4.1.4-8.1 1.6-12.1 1.3s-6.9-5.5-5.3-9.3 3.5-7.4 5.3-11l24.6-49.9 7.9-15.9 6.1-12.3a131.1 131.1 0 0 0 5.4-13.8c6.3-19.2-.3-38.9-9.8-56.4l-36.8-74.5c-1.1-2.5-2.8-4.9-3.1-7.7a7.4 7.4 0 0 1 4-6.9c5.4-1.7 11.1.9 16.6 1.2L337 130l219.8 31.5 54.9 7.9 27.5 4 14.7 2a62.7 62.7 0 0 0 35.3-6.3 63.5 63.5 0 0 0 14.7-10.5c2.2-2.2 4.2-4.4 6.1-6.7s2.6-4.2 3.9-6.2l1.9-3.1v-.5l.4-1a14.8 14.8 0 0 0 .1-2.1c0-2.7-.2-5.8 1.8-8a7.1 7.1 0 0 1 7.7-2 65.1 65.1 0 0 1 7.3 4.1l122.7 72.2z" opacity=".39"></path><path d="M905.7 233c5.7 3.3 18.6-8.2 28.9-25.8s14.2-34.4 8.5-37.8L894 140.5 746.7 53.8c-6.6-3.2-13.5-6.6-19.8-8.8s-12.4-3.3-18.6-3.4a54.3 54.3 0 0 0-37.1 12.5c-10.8 8.6-15 19-19.1 30.7-1.1 2.5-2 6.9-3 10.3l-1.1 6.2-.6 3.1 1.1.6 1.1.5.6.3h.2l10.7 8.1c-.2 0-.2-.1-.2-.1v.2c.2.2 0 .3.2-.7l1.7-12.4h-1l-1.7-.2-3.5-.5-6.8-1-27.5-4-55-7.8-219.6-31.8L116 22.3c-15.2-2.4-31.1-4.4-43.2-2.6S50.9 23 40.6 31 22.8 50.7 20.4 62.4a49.6 49.6 0 0 0-1 16.6c.9 5.9 1.4 11.6 2.8 17.7s4.3 13.4 7.8 20.3l10.2 20.8 16.4 33.1 24.2 49c1.7 3.4 4.1 7.2 2.2 11l-11.1 22.3-38.1 77.2c-5.5 10.1-8.8 19.9-12.1 29.5-.8 8.3-3.4 17.5-2.4 24.8-.3 16 12.5 35.8 27.7 43.5a61.4 61.4 0 0 0 10.9 4.5l12.6 2.4 6.3 1.1c2.3.2 5.1-.1 7.7-.1 5.3-.4 10.1.1 15.8-1l58-8.3L317.4 404l315-45.3c4.5-.2 9.2-2.4 13.5-.6a7.8 7.8 0 0 1 4.2 5.2c.4 2.3 0 4.6.3 6.9-1.1-1.8 3.3 9 7 16.1a62.4 62.4 0 0 0 18.9 18.7 60.8 60.8 0 0 0 51.6 5.8 108.1 108.1 0 0 0 11.5-5.1l4.5-2.7 9-5.3 18-10.6 144.3-84.9 28.9-17 4.6-2.8 2.4-1.3 1.1-.7.6-.4 4.7-3.1 4.2-3.3a62.3 62.3 0 0 0 4.8-4.6 80.6 80.6 0 0 0 5.9-7.2c4-5.5 5.1-9.1 7-13.6a43.7 43.7 0 0 0 3.1-13.3c1.9-13-1.2-26.5-7.8-38.1-4.7-7.4-13.2-10.5-21-7.7s-14 9.3-19.1 18.1l-7 12.7-3.3 5.4c-1 1.6-2.6 3.7-2 2.9s.5-.7.7-.8-1.4.1-.5.2l.5.2a2.8 2.8 0 0 1 1.8-1.9l-.9.4-2.5 1-1.2.5-.7.2h-.4c2.8 10.8-3.9-14.7-3.2-12.1h-.1l-2.2 1.3-48.3 28.4-138 81.3-17.2 10.1-4.4 2.6-2.1 1.2-1.1.7-.5.3-.3.2c2.6 4.5-6-10 5.8 10.1.6.4.9 2.3.8 1.6s.6-1.2.1-.5 0 .1-.3.3h-.2l11.8-7.1.3.2.9.7.9.8c.1-.4-.2-2.6-.2-3.8-.3-2.8-.4-5.9-.9-8.4-2.3-9.9-3.7-19.9-9.1-28a57.1 57.1 0 0 0-22-20.5c-9.2-4.8-18.6-6.2-28.7-6.7s-21.7 1.8-32.7 3.5l-321.3 46.7-159.1 22.9-21.5 3.1c-4.4.4-8.7 1.7-13.1 1.4s-7.5-5.9-5.7-10.1 3.8-8 5.7-11.9l24.9-50.4L146 270l6-12.2a141.5 141.5 0 0 0 5.3-13.6c6.3-18.9-.4-38.3-9.6-55.6l-37.3-75.3c-1.2-2.8-3.1-5.4-3.4-8.4a7.8 7.8 0 0 1 4.4-7.4c2.8-1.5 6-.3 8.9-.1l9.1 1.3 207.8 29.9L557 160.2l54.9 7.9 27.5 3.9 14.6 2a60.8 60.8 0 0 0 49-16.4c2-2.1 4.1-4.3 5.9-6.6s2.5-4 3.8-6.1l1.8-3 .2-.5.4-1.1c0-.8.2-1.5.2-2.3-.1-2.9-.2-6.3 1.9-8.6a7.5 7.5 0 0 1 8.3-2.2c2.8 1.1 5.3 3 8 4.4l123.1 72.5z" opacity=".42"></path><path d="M906.4 231.8c5.7 3.3 18.3-7.7 28.2-24.6s13.5-33.2 7.8-36.6l-49.1-28.9-146.9-86.5c-6.5-3.1-13.2-6.4-19.5-8.7s-12.2-3.4-18.3-3.5c-12.3-.9-26.7 3.7-36.6 12.3s-14.7 18.9-18.7 30.5c-1.1 2.5-1.9 6.8-2.8 10.2l-1.2 6.1-.6 3 1.1.6 1 .6.5.3h.2l9.6 7.3c-.2 0-.2-.1-.2-.1v.2c.2.2 0 .3.2-.7l1.5-11.1h-1l-1.7-.3-3.5-.4-6.8-1-27.5-4-55-7.9L347.5 57 116.2 23.7c-14.9-2.3-30.6-4.3-42.5-2.6s-21.9 3-32.1 10.8S24 51.4 21.7 63a46.2 46.2 0 0 0-.8 16.5c1 5.8 1.5 11.5 2.9 17.5s4.4 13.2 7.7 20l10.1 20.5 16.2 32.7 24.3 49.1c1.8 3.6 4.4 7.8 2.3 11.9l-11.2 22.6-37.9 76.7c-5.4 10-8.7 19.6-12 29.1-.8 8.2-3.5 17.3-2.6 24.6-.5 15.8 12.1 35.4 27.3 43a64.8 64.8 0 0 0 10.9 4.3l12.5 2.2 6.2 1c2.3.2 5.1-.1 7.6-.1 5.2-.4 10 .1 15.5-.9l57.4-8.3 159.1-22.8 315.1-45.3c4.8-.2 9.9-2.6 14.6-.6a8.7 8.7 0 0 1 4.5 5.6c.5 2.4 0 4.9.3 7.4-1-1.6 3.2 9 6.9 15.9a60.6 60.6 0 0 0 18.5 18.2 59.5 59.5 0 0 0 50.4 5.7 94.2 94.2 0 0 0 11.2-5l4.5-2.7 9-5.3 18.1-10.6L914.5 301l28.9-17 4.6-2.8 2.4-1.3 1.1-.7.6-.4 4.5-3 4.3-3.3s2.6-2.3 4.7-4.5 3.9-4.6 5.7-7c3.9-5.4 5-8.9 6.8-13.3a49.3 49.3 0 0 0 3.1-13c1.8-12.7-1.3-25.9-7.7-37.2-4.6-7.2-12.8-10.3-20.4-7.7s-13.6 9-18.5 17.4-9.3 17.6-12.3 21c.8-.9.5-.7.7-.8s-1.4.1-.5.2l.5.2a3.1 3.1 0 0 1 1.7-1.9l.5-.2-1.3.5-2.5 1-1.2.5-.6.3h-.5c2.2 9.7-3-13.2-2.5-10.9h-.1l-2.2 1.3-48.2 28.4-138 81.3-17.3 10.1-4.3 2.6-2.2 1.2-1 .7-.6.3h-.4l5.2 8.9c.5.3.9 2.3.8 1.6s.6-1.2.1-.5 0 .1-.3.3h-.2l10.6-6.4h.2l.9.7.8.6c.2-.3-.1-2.5-.2-3.7s-.4-5.8-.8-8.3c-2.3-9.7-3.6-19.6-8.9-27.7a54.9 54.9 0 0 0-21.7-20.2c-9-4.8-18.3-6.1-28.3-6.5s-21.4 1.8-32.3 3.5l-321.1 47L148 355.2l-22.2 3.2c-4.7.4-9.4 1.8-14.1 1.4s-8.1-6.3-6.2-10.8 4.2-8.6 6.2-12.9l25.1-50.8 7.9-15.9 5.9-12.1A115.8 115.8 0 0 0 156 244a55.8 55.8 0 0 0 1-28.1c-1.8-9.2-6.3-17.9-10.6-26.7L108.7 113c-1.3-3-3.3-5.8-3.6-9.1a8.3 8.3 0 0 1 4.6-7.9c3.1-1.7 6.5-.4 9.7-.1l9.7 1.4 208.3 29.9 219.8 31.6 54.9 7.9 27.5 3.9 14.6 2.1a61 61 0 0 0 33.8-6.1 62.7 62.7 0 0 0 14-10c2-2.1 4-4.2 5.8-6.4s2.5-4 3.7-6l1.8-3 .2-.5.4-1.2a9.7 9.7 0 0 0 .2-2.4c0-3.2-.2-6.8 2.1-9.4a8.2 8.2 0 0 1 9-2.3c3 1.2 5.7 3.2 8.5 4.8l123.6 72.7z" opacity=".45"></path><path d="M907.1 230.6c5.7 3.3 18-7.1 27.5-23.4s12.8-32 7.1-35.4l-49.1-28.9-146.4-86.2a201 201 0 0 0-19.3-8.6c-6-1.5-12-3.5-18-3.7a51.1 51.1 0 0 0-36.2 12.1c-10.5 8.5-14.3 18.8-18.1 30.4-1.1 2.4-1.9 6.7-2.8 10l-1.2 6-.5 3 .9.6 1 .6.4.3.3.2 8.4 6.4c-.2 0-.2-.1-.2-.1v.2c.2.2 0 .3.2-.7l1.4-9.7h-1.1l-1.7-.3-3.5-.5-6.8-1-27.4-4.1-54.9-7.9-219.8-31.6-230.8-33.1c-14.8-2.4-30.1-4.3-42-2.7s-21.7 2.7-31.9 10.4S25.2 52.1 23 63.7a47.3 47.3 0 0 0-.6 16.3c1 5.8 1.6 11.3 3 17.3s4.4 13 7.7 19.7l9.9 20.2 16.1 32.4 24.2 49.1c2 3.9 4.8 8.3 2.5 12.7l-11.4 23.1-37.6 76.1c-5.3 9.8-8.6 19.3-11.8 28.7-1 8.1-3.7 17.1-3 24.3-.7 15.7 11.9 35.2 27 42.5a56.7 56.7 0 0 0 10.9 4.2l12.3 2 6.3 1c2.2.2 4.9-.1 7.4-.1 5.1-.4 9.8 0 15.3-1l56.7-8.2L317 401.2l315.2-45.3c5.2-.2 10.6-2.8 15.6-.6a9 9 0 0 1 4.9 6c.5 2.6-.1 5.2.3 7.9-1-1.4 3.2 8.9 6.8 15.7a60.2 60.2 0 0 0 18.1 17.8 58.2 58.2 0 0 0 49.2 5.5 107.2 107.2 0 0 0 10.9-4.9l4.5-2.7 9.1-5.3 18-10.6 144.3-85 28.8-16.9 4.7-2.8 2.3-1.3 1.1-.7.6-.4h.3l4.1-2.8 4.2-3.3a39.3 39.3 0 0 0 4.6-4.5 61.3 61.3 0 0 0 5.6-6.8c3.8-5.1 4.8-8.6 6.6-12.9a47 47 0 0 0 3-12.7c1.8-12.4-1.3-25.3-7.5-36.3-4.4-7-12.5-10.1-19.8-7.6s-13.2 8.5-17.9 16.6-8.4 16.2-12.3 21c.8-.9.5-.7.7-.8s-1.4.1-.5.2l.5.2a3.1 3.1 0 0 1 1.7-1.9l.5-.2-1.2.5-2.5 1-1.3.5-.6.3h-.5c1.6 8.6-2.1-11.8-1.8-9.7h-.1l-2.2 1.3-48.1 28.3-138.1 81.5-17.3 10.2-4.3 2.5-2.1 1.3-1.1.6-.5.4h-.4c-1.1-1.6 8.5 14.5 4.4 7.7.5.3 1 2.3.8 1.6s.5-1.2.1-.5 0 .1-.2.3h-.3l9.4-5.7h.2l.8.5.8.6a33.7 33.7 0 0 0-.3-3.6 71.2 71.2 0 0 0-.8-8.2c-2.2-9.6-3.3-19.5-8.6-27.4a54 54 0 0 0-21.3-20c-8.9-4.7-18.2-5.9-28-6.3s-21 1.8-31.8 3.5l-321 46.1-159.1 23.4-22.9 3.3c-5 .5-10.1 2-15.1 1.6s-8.7-6.8-6.6-11.6 4.4-9.2 6.6-13.8l25.4-51.3 7.9-16 5.8-11.8a133 133 0 0 0 5.3-13.1 54.2 54.2 0 0 0 1-27.7c-1.8-9.1-6.3-17.6-10.5-26.3L107 112.7c-1.4-3.2-3.6-6.2-3.9-9.7a9.2 9.2 0 0 1 5-8.6c3.3-1.7 6.9-.4 10.3 0l10.5 1.5 208.7 29.9 219.8 31.6 54.9 7.9 27.5 4 14.5 2a58.9 58.9 0 0 0 33-5.9 61 61 0 0 0 13.7-9.8q3-3 5.7-6.3c1.5-2 2.4-3.9 3.7-5.8l1.7-2.9.2-.6.5-1.3c0-.9.2-1.7.2-2.6-.1-3.4-.3-7.3 2.2-10a8.7 8.7 0 0 1 9.6-2.5c3.2 1.3 6.1 3.4 9.2 5.1l124 73z" opacity=".48"></path><path d="M907.8 229.4c5.7 3.3 17.7-6.6 26.8-22.2s12.1-30.8 6.4-34.2l-49.1-28.9-146-85.9c-6.3-3.1-12.8-6.3-18.9-8.6s-11.9-3.5-17.8-3.8a50.4 50.4 0 0 0-35.8 11.9c-10.3 8.4-14 18.8-17.6 30.2-1 2.4-1.8 6.6-2.7 9.9l-1.1 5.9-.6 2.9.9.7 8.8 6.6c-.2 0-.2-.1-.2-.1v.2c.2.2 0 .3.2-.7l1.2-8.3h-.3l-.8-.2-1.7-.2-3.5-.5-6.8-1-27.5-3.9-54.9-7.9-219.7-31.6-230.3-33.1c-14.6-2.3-29.7-4.2-41.4-2.7s-21.6 2.4-31.7 10-17.4 19-19.4 30.4a44.4 44.4 0 0 0-.4 16.2c1 5.7 1.7 11.2 3.1 17.1s4.4 12.8 7.6 19.4l9.8 19.9L60.3 169l24.3 49.1c2.1 4.2 5 8.9 2.6 13.6l-11.5 23.4-37.4 75.6c-5.2 9.7-8.5 19-11.7 28.2-1 8.1-3.8 16.9-3.2 24.1-.9 15.6 11.6 34.9 26.6 42.1a65 65 0 0 0 10.8 4l12.3 1.9a47.9 47.9 0 0 0 13.5.7c5.1-.4 9.7 0 15.1-1l56-8 159.1-22.9 315.3-45.3c5.6-.2 11.4-3 16.7-.7a9.4 9.4 0 0 1 5.1 6.4c.6 2.8 0 5.7.4 8.5-.9-1.2 3.2 8.9 6.7 15.5a56.2 56.2 0 0 0 65.7 22.6 71.7 71.7 0 0 0 10.6-4.8l4.6-2.6 9-5.3 18-10.6 144.3-85 28.8-16.9 4.7-2.8 2.3-1.3 1.1-.7.6-.4h.3l3.9-2.7 4.3-3.3a48.5 48.5 0 0 0 4.5-4.4 66.6 66.6 0 0 0 5.3-6.6c3.8-5 4.8-8.4 6.5-12.6a41.5 41.5 0 0 0 2.9-12.4c1.7-12.1-1.2-24.7-7.3-35.4-4.3-6.9-12.1-9.9-19.2-7.5s-12.8 8-17.3 15.8-8 15.6-11.7 20.2c-1.2 1.4.5-.4.1 0-.6.4-1.4.1-.5.2l.5.2a3.1 3.1 0 0 1 1.7-1.9l.5-.2-1.2.5-2.5 1-1.3.5-.6.3h-.5c.9 7.5-1.3-10.3-1.1-8.5l-2.3 1.3-48 28.3-138.1 81.5-17.3 10.2-4.3 2.5-2.2 1.3-1.1.6-.5.3-.3.2h-.1c-3.5-5.8 4.5 7.9 3.7 6.5.5.3 1 2.3.8 1.6s.5-1.2.1-.5 0 .1-.2.3h-.3l8.2-5h.2l.7.4.7.4c.2-.1-.2-2.4-.2-3.5s-.4-5.6-.8-8c-2.2-9.6-3.2-19.3-8.3-27.1a52.1 52.1 0 0 0-21-19.8c-8.8-4.6-18-5.7-27.7-6.1s-20.7 1.8-31.3 3.5l-320.9 46.6-159.1 22.8-23.6 3.4c-5.4.5-10.7 2.1-16.1 1.7s-9.2-7.3-7.1-12.4 4.8-9.8 7.1-14.7l25.6-51.8 7.9-16 5.8-11.7c1.9-4.2 3.7-8.5 5.2-12.9a51.3 51.3 0 0 0 1-27.2c-1.8-9-6.2-17.4-10.3-25.9l-38.6-78.1c-1.5-3.4-3.8-6.5-4.2-10.3a9.7 9.7 0 0 1 5.4-9.1c3.4-1.9 7.4-.4 11-.1l11.1 1.6 209.2 30.1L557.5 156l55 7.9 27.5 4 14.5 2a57.1 57.1 0 0 0 32.2-5.8 60.3 60.3 0 0 0 13.4-9.5c1.9-2 3.8-4 5.5-6.1s2.4-3.8 3.6-5.8l1.7-2.8.2-.7.5-1.3a13.2 13.2 0 0 0 .2-2.8c0-3.7-.3-7.8 2.4-10.6a9.2 9.2 0 0 1 10.2-2.7c3.5 1.4 6.5 3.6 9.8 5.4l124.5 73.3z" opacity=".52"></path><path d="M908.5 228.2c5.7 3.3 17.4-6.1 26.1-21s11.4-29.6 5.7-33l-49.1-28.9-145.5-85.7c-6.2-3-12.6-6.2-18.7-8.5s-11.7-3.5-17.5-3.8c-12-1.2-25.8 3.2-35.3 11.6s-13.7 18.7-17.2 30c-.9 2.5-1.7 6.6-2.6 9.8l-1.1 5.8-.6 2.9.8.7.8.6.4.4.2.2 6.2 4.7c-.2 0-.2-.1-.2-.1v.2c.2.2 0 .3.2-.7l1-6.9H661l-1.7-.2-3.5-.5-6.8-1-27.5-3.9-54.9-7.9-219.7-31.9-229.9-33c-14.3-2.3-29.2-4.1-40.8-2.8s-21.5 2.1-31.5 9.5S27.5 53.6 25.6 65a43.1 43.1 0 0 0-.2 16c1.1 5.6 1.8 11.1 3.2 16.9s4.4 12.6 7.6 19.1l9.6 19.6 15.8 31.8 24.3 49.2c2.2 4.3 5.3 9.4 2.8 14.3l-11.8 23.8-37.1 75.2c-5.1 9.5-8.4 18.6-11.6 27.7-1.1 8-3.9 16.7-3.4 23.8-1.1 15.5 11.3 34.7 26.2 41.6a61.3 61.3 0 0 0 10.8 3.9l12.1 1.7a47.9 47.9 0 0 0 13.4.6c5-.3 9.6 0 14.9-1l55.3-7.9 159.1-22.9 315.5-45.3c5.8-.2 12-3.1 17.7-.7a9.8 9.8 0 0 1 5.4 6.8c.6 3 0 6 .5 9-.9-1 3.1 8.9 6.5 15.3a86.4 86.4 0 0 0 7.7 9.5 86.2 86.2 0 0 0 9.5 7.4 55.2 55.2 0 0 0 46.9 5.1 87.5 87.5 0 0 0 10.4-4.7l4.5-2.6 9-5.3 18-10.7 144.4-84.9 28.7-17 4.7-2.7 2.3-1.4 1.1-.6.6-.4h.3l3.8-2.6 4.2-3.4a32.6 32.6 0 0 0 4.4-4.2 54.9 54.9 0 0 0 5.2-6.5c3.7-4.8 4.6-8.1 6.3-12.2a42.6 42.6 0 0 0 2.8-12.1c1.7-11.8-1.2-24-7.1-34.5-4.2-6.7-11.7-9.6-18.6-7.5s-12.4 7.7-16.7 15.1-7.6 15-11.1 19.4l-1.1 1.4.2-.3.4-.3c-.6.4-1.4.1-.5.2l.5.2a3.1 3.1 0 0 1 1.7-1.9l.5-.2-1.2.5-2.5 1-1.2.5-.7.3h-.5c.3 6.5-.4-8.8-.4-7.3l-2.2 1.3-48 28.2-138.2 81.6L713 342l-4.3 2.6-2.1 1.3-1.1.6-.6.3-.2.2h-.2c1.4 2.4-3.2-5.2 3 5.4.5.2 1 2.3.8 1.6s.5-1.2.1-.5 0 .1-.2.3h-.3l7-4.2h.2l.6.3.6.3c.2-.1-.1-2.4-.2-3.4-.3-2.7-.4-5.5-.8-8-2-9.4-3-19-8-26.8a50 50 0 0 0-20.7-19.5c-8.6-4.6-17.7-5.6-27.3-5.8a256.1 256.1 0 0 0-30.8 3.3l-320.8 46.4-159.1 22.9-24.3 3.5c-5.7.5-11.4 2.3-17.1 1.8s-9.8-7.7-7.5-13.2 5-10.4 7.5-15.6l25.9-52.3 7.9-16 5.7-11.5c1.9-4.2 3.6-8.5 5.1-12.7a51.2 51.2 0 0 0 1.1-26.9c-1.8-8.8-6.2-17-10.3-25.4l-39-79c-1.6-3.6-4.1-7-4.5-11a10.5 10.5 0 0 1 5.7-9.7c3.7-1.9 7.9-.4 11.7 0l11.9 1.7L338 123.1l219.7 31.6 55 7.9 27.5 3.9 14.5 2a56 56 0 0 0 31.4-5.6 57.1 57.1 0 0 0 13-9.3 77 77 0 0 0 5.4-6 57.2 57.2 0 0 0 3.5-5.6l1.7-2.8.3-.7.4-1.4c.1-1 .3-2 .3-3-.1-3.9-.3-8.2 2.5-11.3a10.2 10.2 0 0 1 10.9-2.9c3.6 1.6 6.9 3.9 10.4 5.8l124.9 73.6z" opacity=".55"></path><path d="M909.3 227c5.6 3.3 17-5.5 25.3-19.8s10.7-28.4 5-31.8l-49.1-28.9-145.1-85.4c-6.1-3-12.4-6.2-18.3-8.4s-11.5-3.7-17.3-4c-11.8-1.3-25.6 3-34.9 11.4S661.6 78.7 658.3 90c-.9 2.4-1.7 6.4-2.6 9.6l-1.1 5.7-.6 2.8.8.7.7.8.3.3.2.2 5.1 3.9c-.2 0-.2-.1-.2-.1v.2c.2.2 0 .3.2-.7l.8-5.5h-1.1l-1.7-.2-3.5-.5-6.8-1-27.5-4-54.8-8.2-219.8-31.5-229.4-33c-14.1-2.2-28.7-4-40.3-2.8s-21.3 1.8-31.3 9.1-17 18.5-18.9 29.8a44.6 44.6 0 0 0 .1 15.9c1.1 5.6 1.9 11 3.3 16.7 4.2 12.4 10.5 25.2 17 38.1l15.6 31.5L87.1 217c2.4 4.6 5.7 9.9 3 15.2l-11.9 24.1L41.3 331c-5 9.3-8.3 18.4-11.5 27.3-1.2 7.9-4 16.4-3.6 23.6-1.3 15.3 10.9 34.3 25.8 41.1a58.6 58.6 0 0 0 10.7 3.6l12.1 1.6a46.5 46.5 0 0 0 13.2.6c4.9-.4 9.5-.1 14.7-1l54.6-7.9 159.1-22.8L632 351.7c6.2-.3 12.7-3.3 18.7-.8a10.7 10.7 0 0 1 5.8 7.3c.6 3.1 0 6.3.5 9.5-.9-.8 3 8.8 6.4 15a84.7 84.7 0 0 0 7.5 9.3 82.3 82.3 0 0 0 9.3 7.2 53.9 53.9 0 0 0 45.7 5 100.5 100.5 0 0 0 10.1-4.6l4.5-2.6 9-5.4 18.1-10.6 144.3-85 28.7-16.9 4.7-2.7 2.3-1.4 1.1-.6.6-.4.3-.2 3.6-2.4 4.3-3.3c.2-.1 2.5-2.3 4.3-4.2a60.1 60.1 0 0 0 5-6.3c3.5-4.7 4.4-7.9 6.1-11.9a44.1 44.1 0 0 0 2.8-11.8c1.6-11.5-1.2-23.4-7-33.6-4.1-6.5-11.4-9.4-18.1-7.4s-11.8 7.2-16 14.3-7.2 14.4-10.5 18.7-.9 1.2-1.1 1.5c-.6.4-1.4.1-.5.2l.5.2a3.4 3.4 0 0 1 1.7-1.9l.6-.2-1.3.5-2.5 1-1.2.5-.7.3h-.5c-.3 5.4.4-7.4.4-6.1h-.1l-2.2 1.3-47.9 28.2L731.1 333l-17.3 10.2-8.7 5.1 2.4 4.1h.2l.2.2.3.8c.2 1 .1.2.1.4s.5-1.2.1-.5 0 .1-.2.3h-.3l5.8-3.5h.2l.5.2.6.2a31.9 31.9 0 0 0-.3-3.3c-.2-2.6-.4-5.4-.7-7.8-2-9.3-2.9-18.8-7.7-26.5a49.3 49.3 0 0 0-20.4-18.9c-8.6-4.5-17.6-5.4-27-5.6s-20.1 1.8-30.3 3.3l-320.7 46.1-159.1 22.9-25 3.6c-6 .5-12 2.4-18.1 1.9s-10.4-8.2-7.9-14 5.3-11 7.9-16.5l26.1-52.9 7.9-15.9c3.2-6.4 8.1-15.9 10.7-23.9a49.3 49.3 0 0 0 1.1-26.4c-1.8-8.7-6.2-16.8-10.1-25l-39.5-79.9c-1.7-3.8-4.3-7.4-4.7-11.6a10.9 10.9 0 0 1 6-10.3c3.9-2.1 8.3-.4 12.4-.1l12.5 1.8 210.1 30.2 219.7 31.6 55 7.9 27.5 3.9 14.4 2a53.8 53.8 0 0 0 43.3-14.5 71.3 71.3 0 0 0 5.3-5.8c1.4-1.9 2.3-3.7 3.5-5.5l1.6-2.8.3-.7.5-1.5c0-1 .3-2.1.2-3.1 0-4.2-.3-8.8 2.7-12a10.4 10.4 0 0 1 11.5-3.1c3.9 1.6 7.3 4.2 11 6.2l125.4 73.8z" opacity=".58"></path><path d="M910 225.8c5.6 3.3 16.6-5 24.6-18.6s10-27.2 4.3-30.6l-49.1-28.9-144.6-85.1c-6-3-12.2-6.1-18.1-8.4s-11.3-3.7-17.1-4.1c-11.6-1.4-25.2 2.9-34.4 11.2S662.7 79.9 659.5 91c-.9 2.4-1.6 6.4-2.4 9.5l-1.2 5.6-.5 2.7.6.8.6.8.4.3v.2c1.8 1.4-3.8-2.8 4 3.1-.2 0-.2-.1-.2-.1v.2c.2.2 0 .3.2-.7l.6-4.2h-1.1l-1.7-.3-3.5-.5-6.8-.9-27.5-4-54.9-7.9-219.6-31.8-229-32.9C103.7 28.8 89.3 27 77.9 28s-21.2 1.6-31.1 8.8S29.9 55 28.1 66.2s1.3 20.8 3.8 32.3c4.1 12.2 10.3 24.8 16.7 37.5l15.5 31.2 24.3 49.2c2.5 4.9 6 10.5 3.1 16l-12.1 24.5-36.6 74.2c-4.9 9.2-8.2 18.1-11.4 26.9-1.2 7.8-4.1 16.2-3.8 23.3-1.5 15.2 10.6 34.1 25.4 40.6a58 58 0 0 0 10.7 3.5l12 1.5a49.6 49.6 0 0 0 13 .4c4.9-.4 9.4-.1 14.5-1l53.9-7.8 159.1-22.8 315.7-45.4 10-1.4c3.2-.6 6.8-1 9.8.6a11.4 11.4 0 0 1 6.1 7.6c.6 3.3 0 6.7.5 10.1-.8-.6 3 8.8 6.3 14.8a90.9 90.9 0 0 0 7.3 9.1 77.7 77.7 0 0 0 9.1 6.9 52 52 0 0 0 44.5 4.8 77.9 77.9 0 0 0 9.8-4.4l4.5-2.7 9-5.3 18.1-10.6 144.4-85 28.6-16.9 4.7-2.7 2.3-1.4 1.2-.6.5-.4.3-.2 3.5-2.3 4.2-3.4c.3 0 2.5-2.2 4.2-4.1a55.8 55.8 0 0 0 4.9-6c3.4-4.6 4.3-7.7 5.9-11.6a38.5 38.5 0 0 0 2.7-11.5c1.6-11.2-1.2-22.8-6.8-32.7-4-6.3-11-9.2-17.5-7.3s-11.4 6.7-15.4 13.5-6.8 13.7-9.9 17.9a21.3 21.3 0 0 1-2.1 2.6l.4-.3c-.6.4-1.4.1-.5.2l.5.2a3.4 3.4 0 0 1 1.7-1.9l.6-.2-1.3.5-2.5 1-1.2.5-.6.3h-.6c-1 4.3 1.3-5.9 1.1-4.9h-.1l-2.2 1.3-47.8 28.1-138.3 81.7-17.3 10.2-8.6 5.1a30.1 30.1 0 0 0 1.6 2.9h.2v.2a2 2 0 0 1 .4.8c.2 1 .1.3.1.4s.5-1.2.1-.5 0 .1-.2.3h-.3l4.6-2.8h1.1c.2 0-.2-2.3-.2-3.3s-.4-5.3-.8-7.7c-1.9-9.1-2.7-18.5-7.4-26.2a47.1 47.1 0 0 0-20-19c-8.5-4.5-17.4-5.2-26.7-5.4a287.6 287.6 0 0 0-29.9 3.3l-320.4 46.7L149 362l-25.7 3.7c-6.3.6-12.7 2.6-19.1 2.1s-11-8.7-8.4-14.8 5.6-11.6 8.4-17.4l26.4-53.4 7.9-15.9c3.1-6.3 7.9-15.6 10.6-23.5a48.9 48.9 0 0 0 1-26c-1.8-8.5-6.1-16.5-10-24.6l-39.9-80.8c-1.8-4.1-4.6-7.8-5-12.3a11.4 11.4 0 0 1 6.3-10.8c4.2-2.3 8.8-.5 13.2-.1l13.2 1.9 210.5 30.2 219.7 31.6 55 7.9 27.5 3.9 14.4 2a53 53 0 0 0 29.8-5.3 54.6 54.6 0 0 0 12.4-8.8c1.8-1.9 3.5-3.7 5.1-5.7s2.3-3.6 3.4-5.4l1.6-2.6.3-.8.5-1.6c.1-1.1.3-2.2.3-3.3-.1-4.4-.4-9.3 2.8-12.6a11 11 0 0 1 12.1-3.3c4.1 1.7 7.8 4.4 11.7 6.5l125.8 74.1z" opacity=".61"></path><path d="M910.7 224.6c5.6 3.3 16.3-4.4 23.9-17.4s9.2-26 3.6-29.4l-49.1-28.9L744.9 64c-5.9-2.9-12-6-17.7-8.3S716 52 710.3 51.5a44.2 44.2 0 0 0-33.9 11c-9.7 8.2-12.7 18.5-15.7 29.5-.8 2.4-1.5 6.3-2.3 9.4l-1.2 5.5-.5 2.7.5.8.6.8.3.4v.2l2.9 2.2c-.2 0-.2-.1-.2-.1v.2c.2.2 0 .3.2-.7l.4-2.8h-1.1l-1.7-.3-3.5-.5-6.8-1-27.3-4.1-54.9-7.9-219.8-31.6-228.5-32.8c-13.7-2.1-27.7-3.9-39.1-3s-21.1 1.3-30.9 8.4a45.2 45.2 0 0 0-18.4 29.1c-1.7 10.6 1.6 20.6 4.1 31.9 4.1 12 10.3 24.4 16.5 36.8l15.3 30.9 24.3 49.3c2.7 5.1 6.3 11.1 3.3 16.9l-12.2 24.8-36.4 73.7c-4.9 9-8.1 17.8-11.3 26.5-1.3 7.7-4.2 16-4 23-1.7 15.1 10.3 33.8 25 40.1a57.5 57.5 0 0 0 10.7 3.4l11.8 1.3a49.2 49.2 0 0 0 12.9.4c4.8-.4 9.2-.2 14.3-1.1l53.2-7.6L316 394.3l315.8-45.4 10.5-1.5c3.4-.6 7.2-1 10.4.7a11.8 11.8 0 0 1 6.4 8c.7 3.5-.1 7.1.5 10.6-.8-.4 2.9 8.7 6.1 14.6a86.4 86.4 0 0 0 7.2 8.8 85.6 85.6 0 0 0 8.8 6.8 51.3 51.3 0 0 0 43.4 4.6 89.3 89.3 0 0 0 9.5-4.3l4.5-2.7 9-5.3 18.1-10.6 144.4-85 28.6-16.9 4.7-2.7 2.3-1.4 1.2-.7.5-.3.3-.2 3.3-2.2 4.3-3.4a32.2 32.2 0 0 0 4.1-4 71.6 71.6 0 0 0 4.7-5.9c3.3-4.4 4.1-7.4 5.7-11.2a39.7 39.7 0 0 0 2.6-11.2c1.5-10.9-1.2-22.1-6.6-31.8-3.9-6.1-10.7-9-16.9-7.3s-11 6.4-14.8 12.8-6.4 13.1-9.3 17.1a35.3 35.3 0 0 1-2.3 3.1c-.6.4-1.4.1-.5.2l.5.2a3.4 3.4 0 0 1 1.7-1.9l.6-.2-1.2.5-2.5 1-1.3.5-.6.2-.3.2h-.3l1.8-3.7h-.1l-2.2 1.4-47.7 28.2-138.3 81.4-17.3 10.2-8.7 5.1c-.9-1.5 1.1 2.1.9 1.7h.2v.2a1.6 1.6 0 0 1 .4.7 3.7 3.7 0 1 1 .1.5l.2-.5-.3.3h-.3c-.8.4 6.5-3.9 3.4-2.1h.9c.2.1-.1-2.2-.2-3.1l-.7-7.6c-1.9-9-2.6-18.3-7.1-25.9a46.9 46.9 0 0 0-19.8-18.9c-8.3-4.3-17.1-5-26.3-5.1a275.5 275.5 0 0 0-29.4 3.3l-320.3 46.4-159.1 22.8-26.4 3.8c-6.7.6-13.4 2.7-20.1 2.1s-11.5-9-8.8-15.5 5.9-12.2 8.8-18.3l26.6-53.9 7.9-15.9c3.1-6.3 7.8-15.4 10.5-23.2a47 47 0 0 0 1-25.5c-1.8-8.4-6-16.3-9.9-24.2L98.4 111c-1.8-4.2-4.7-8.2-5.2-12.9a12.3 12.3 0 0 1 6.7-11.4c4.4-2.3 9.3-.5 13.8 0l13.9 1.9 211 30.4 219.7 31.5 55 7.9 27.4 4 14.5 2a52.1 52.1 0 0 0 29-5.2 57.1 57.1 0 0 0 12-8.6c1.8-1.8 3.4-3.6 5-5.5s2.2-3.5 3.3-5.3l1.6-2.6.3-.8.5-1.7a20.7 20.7 0 0 0 .3-3.5c0-4.6-.3-9.7 3-13.3a11.7 11.7 0 0 1 12.8-3.4c4.3 1.8 8.1 4.6 12.2 6.8l126.3 74.4z" opacity=".65"></path><path d="M911.4 223.4c5.6 3.3 16-3.9 23.2-16.2s8.5-24.8 2.9-28.2l-49.1-28.9-143.7-84.6c-5.8-2.9-11.8-6-17.5-8.2s-11-3.9-16.6-4.4c-11.3-1.5-24.6 2.6-33.5 10.8S664.8 82.1 662 93.1c-.8 2.4-1.5 6.1-2.3 9.2l-1.1 5.3-.6 2.7.5.9.5.8.2.4.2.2c.7.6-1.6-1.2 1.7 1.4-.2 0-.2-.1-.2-.1v.2c.2.2 0 .3.2-.7l.2-1.4h-.3l-.8-.2-1.7-.2-3.5-.5-6.8-1-27.5-3.9-54.9-7.9-219.7-31.7L118 33.8c-13.4-2.1-27.2-3.8-38.4-3s-21 1-30.8 7.9-16.6 17.8-18.1 28.8 1.8 20.4 4.4 31.6c4.1 11.8 10.2 24 16.3 36.2l15.2 30.6 24.3 49.3c2.7 5.4 6.6 11.6 3.5 17.7l-12.5 25.3-36.1 73.1c-4.8 8.9-7.9 17.5-11.1 26-1.4 7.7-4.3 15.8-4.3 22.8-1.9 15 9.9 33.6 24.6 39.7a55.6 55.6 0 0 0 10.6 3.2l11.8 1.1a53.3 53.3 0 0 0 12.8.3c4.6-.4 9-.2 14-1.1l52.5-7.5 159.1-22.9 315.9-45.4 11.1-1.5c3.6-.7 7.5-1.1 10.8.6a12.9 12.9 0 0 1 6.8 8.5c.7 3.6-.1 7.4.5 11.1-.7-.2 2.9 8.7 6 14.4 2.2 2.9 4.5 5.8 7 8.5a78.4 78.4 0 0 0 8.6 6.6 49.8 49.8 0 0 0 42.1 4.5 77.6 77.6 0 0 0 9.3-4.2l4.5-2.7 9.1-5.3 18-10.6L910 292.3l28.5-16.8 4.7-2.7 2.3-1.4 1.2-.7.5-.3.3-.2 3.2-2.1 4.2-3.4c.3 0 2.5-2.2 4-3.9a63.6 63.6 0 0 0 4.6-5.7c3.2-4.2 4-7.2 5.5-10.9a37.5 37.5 0 0 0 2.5-10.9c1.5-10.6-1.1-21.5-6.4-30.9-3.8-5.9-10.3-8.8-16.3-7.2s-10.6 5.9-14.2 12-6 12.5-8.6 16.4a25.3 25.3 0 0 1-3 3.8c-.6.4-1.4.1-.5.2l.5.2a3.4 3.4 0 0 1 1.7-1.9l.6-.2-1.2.5-2.5 1-1.3.5-.6.2-.3.2h-.3l2.5-2.5-2.3 1.3-47.6 28.1-138.4 81.6-17.3 10.1-8.6 5.1a12.7 12.7 0 0 1 .9 2.2l.2-.5-.3.3h-.3l2.2-1.4h.1l.3-.2h.4c.1.1-.2-2.2-.2-3.1l-.8-7.4c-1.7-9-2.4-18.1-6.8-25.7a44.7 44.7 0 0 0-19.4-18.6c-16.2-8-35.1-4.5-54.9-1.6l-320.4 46-159 22.9-27 3.9c-7.1.6-14.1 2.8-21.2 2.2s-12.1-9.5-9.2-16.3 6.2-12.8 9.2-19.2l26.9-54.3 7.9-16c3.1-6.2 7.7-15.1 10.3-22.7a46 46 0 0 0 1-25.2c-1.8-8.2-6-15.9-9.7-23.7l-40.9-82.7c-1.9-4.4-5-8.6-5.4-13.5a12.4 12.4 0 0 1 7-12c4.5-2.5 9.7-.5 14.5-.1l14.6 2.1 211.4 30.4 219.7 31.6 55 7.8 27.4 4 14.4 2a50 50 0 0 0 28.2-5.1 48.2 48.2 0 0 0 11.7-8.4c1.7-1.7 3.4-3.5 4.9-5.3a47.6 47.6 0 0 0 3.2-5.1l1.6-2.6.3-.9.6-1.7c.1-1.2.3-2.4.3-3.7-.1-4.8-.4-10.2 3.1-13.9a12.4 12.4 0 0 1 13.4-3.6c4.6 1.9 8.6 4.8 12.9 7.2l126.7 74.6z" opacity=".68"></path><path d="M912.1 222.2c5.6 3.3 15.7-3.4 22.5-15s7.8-23.6 2.2-27l-49.1-28.9L744.4 67c-5.7-2.9-11.6-5.9-17.1-8.2s-10.9-3.9-16.4-4.4c-11.2-1.7-24.4 2.3-33.1 10.5s-11.9 18.4-14.6 29.2c-.7 2.4-1.5 6.1-2.2 9.1l-1.1 5.2-.6 2.7.4.8c.5.7.1.9 1.4 2-.2 0-.2-.1-.2-.1v.2c.2.2 0 .3.2-.7l-13.1-1.9-27.5-4-54.9-7.9L345.9 68 118.3 35.3c-13.2-2.1-26.8-3.8-37.9-3.1s-20.8.7-30.5 7.5S33.4 57.2 32 68.1s2.1 20.3 4.7 31.3S46.8 123 52.8 135l15 30.3 24.4 49.3c2.8 5.7 6.9 12.2 3.6 18.6l-12.6 25.6-35.9 72.6c-4.7 8.7-7.8 17.2-11 25.6-1.5 7.5-4.4 15.6-4.5 22.6-2.1 14.8 9.6 33.2 24.2 39.1a46.9 46.9 0 0 0 10.6 3l11.7 1.1c7.3 1.1 17.3-.1 26.4-.9l51.8-7.5 159.1-22.8 316.1-45.5 11.5-1.6c3.8-.7 7.9-1.2 11.4.7a13 13 0 0 1 7 8.8c.8 3.9 0 7.8.6 11.7-.7 0 2.9 8.6 5.9 14.1a91 91 0 0 0 6.8 8.3 88 88 0 0 0 8.3 6.5 48.1 48.1 0 0 0 41 4.2 81.1 81.1 0 0 0 9-4l4.6-2.7 9-5.3 18-10.6 144.5-85.1 28.5-16.8 4.7-2.7 2.3-1.4 1.2-.7.5-.3.3-.2 3-2 4.3-3.4a29.7 29.7 0 0 0 3.9-3.8c1.5-1.8 3-3.6 4.4-5.5 4.9-7.6 6.9-13.7 7.7-21.2 1.5-10.3-1.1-20.9-6.2-29.9-3.7-5.8-9.9-8.7-15.7-7.2s-10.2 5.4-13.6 11.2-5.7 11.8-8 15.6-4.5 5.3-3.6 4.6-1.4.1-.5.2l.5.2c.2-.4.7-1.6 1.6-1.9l.7-.2-1.2.5-2.5 1-2 1.6 2.7-1.9h-.3l-.3.2-.5.3-1.1.6-47.6 28.1-138.4 81.6-17.3 10.2-8.7 5.1c-.6-.9.6 1.9.2 1l.2-.5-.3.3h-.2l.9-.6h.1l.3-.3.2-.3c.2.2-.1-2.1-.2-3l-.8-7.3c-1.6-8.8-2.1-17.8-6.5-25.3a43.3 43.3 0 0 0-19-18.4c-16.1-7.8-34.6-4.2-54.1-1.4l-320.3 46-159 22.9-27.7 4c-7.4.6-14.8 2.9-22.2 2.3s-12.7-9.9-9.7-17 6.5-13.4 9.7-20.1l27.2-54.9 7.8-16c3.1-6.1 7.6-14.8 10.2-22.4a44.2 44.2 0 0 0 1.1-24.7c-1.9-8.1-6-15.6-9.7-23.4L95 110.4c-2-4.7-5.2-9-5.7-14.2a13.1 13.1 0 0 1 7.3-12.5c4.8-2.6 10.2-.6 15.2-.1l15.3 2.2L339 116.2l219.7 31.6 55 7.9 27.4 3.9 14.4 2a49 49 0 0 0 27.4-4.9c7.9-4 16.2-11.8 19.3-18.4l1.5-2.5.3-.9.6-1.8a25.3 25.3 0 0 0 .3-3.8c0-5.1-.4-10.7 3.3-14.7a13 13 0 0 1 14-3.7c4.8 2 9 5 13.5 7.5l127.2 74.9z" opacity=".71"></path><path d="M912.8 221c5.6 3.3 15.4-2.8 21.8-13.8s7.1-22.4 1.5-25.8L887 152.5l-142.8-84c-5.6-2.9-11.4-5.9-16.9-8.2s-10.6-3.9-16.1-4.5c-11.1-1.8-24.1 2.2-32.6 10.3s-11.7 18.3-14.2 29l-2.1 9-1.1 5.1-.5 2.6.3.9.6 1.7c-.1-.1-.1 0-.1 0h-.2l-95.8-13.6-219.8-31.5-227.2-32.6c-12.9-2-26.2-3.7-37.2-3.1s-20.7.4-30.4 7.1S34.6 58 33.3 68.8s2.4 20.1 5 30.9c4.1 11.5 10 23.2 15.9 35l14.9 30L93.4 214c3 5.9 7.3 12.8 3.8 19.5l-12.8 25.9-35.6 72.1c-4.6 8.6-7.7 16.9-10.9 25.2-1.6 7.4-4.5 15.4-4.8 22.3-2.2 14.7 9.4 33 23.9 38.7 6.9 2.9 14.1 3.2 22.1 3.7s17.1-.2 26.1-1l51.1-7.4 159.1-22.8 316.2-45.4 12.1-1.8c3.9-.7 8.2-1.2 11.9.8a13.6 13.6 0 0 1 7.3 9.2c.8 4 0 8.1.6 12.2-.6.2 2.8 8.5 5.8 13.9a100.2 100.2 0 0 0 6.5 8.1 97.9 97.9 0 0 0 8.2 6.2 46.8 46.8 0 0 0 39.8 4.1c2.9-1.1 6.9-2.9 8.8-3.9l4.5-2.7 9-5.3 18.1-10.6 144.5-85.1 28.4-16.8 4.7-2.7 2.3-1.4 1.2-.7.6-.3.2-.2 2.9-1.9 4.2-3.4a23.4 23.4 0 0 0 3.8-3.7c1.5-1.7 2.9-3.5 4.2-5.3 4.8-7.4 6.8-13.3 7.6-20.6 1.4-9.9-1.1-20.2-6.1-29-3.6-5.7-9.6-8.5-15.1-7.2s-9.8 5.1-13 10.5-5.3 11.2-7.4 14.8a16.6 16.6 0 0 1-4 5.3c-.2.1-.1.3 0 .5s-.2 0 0 .1a3 3 0 0 1 1.6-1.8c1.8-.8-6.8 5.7-4 3.3l-47.5 28-138.5 81.5-17.3 10.2-8.7 5.1c-.7-.2-.3.4-.4 0s-.4.3-.5-.1-.4.3.1-.5c.6 1.5-.4-6.7-.8-10.5-1.6-8.7-2-17.6-6.2-25.1a42.2 42.2 0 0 0-18.8-18.1c-15.8-7.6-34.1-3.9-53.3-1.2l-320.1 46-159 22.9-28.4 4c-7.8.8-15.4 3.1-23.2 2.5S85 363.6 88.1 356.2s6.8-14 10.1-21l27.4-55.4 7.9-16c3-6.1 7.4-14.6 10-22a42.8 42.8 0 0 0 1.1-24.3c-1.9-8-5.9-15.4-9.5-23l-41.8-84.4c-2.1-4.9-5.5-9.5-6-14.9A13.9 13.9 0 0 1 95 82.1c5-2.7 10.6-.6 15.9-.1l16 2.3 212.3 30.5 219.7 31.6 55 7.9 27.4 3.9 14.4 2a46.5 46.5 0 0 0 26.6-4.8c7.6-3.9 15.7-11.3 18.7-17.8l1.5-2.4.3-1 .6-1.9a26.9 26.9 0 0 0 .3-4c0-5.3-.3-11.2 3.5-15.3a13.4 13.4 0 0 1 14.7-3.9c5 2 9.4 5.3 14.1 7.8l127.6 75.2z" opacity=".74"></path><path d="M913.5 219.8c5.6 3.4 15.1-2.3 21.1-12.6s6.4-21.2.8-24.6l-49.1-28.9-142.4-83.8c-11.3-5.9-21.8-11-32.4-12.7s-23.8 2.1-32.2 10.1-11.3 18.2-13.7 28.9l-1.9 8.8-1.2 5-.5 2.5.2 1a6.4 6.4 0 0 1 .5 1.7.2.2 0 0 0-.2.2c-.1.2-.4.2-.5.4s-.7.1-1.1.2l-13.2-1.9-27.5-3.9-54.9-7.9-219.8-31.6-226.7-32.6C106.1 36.2 93 34.5 82.1 35s-20.6.1-30.2 6.6-16.1 17.1-17.3 27.8 2.6 19.9 5.4 30.7 9.8 22.7 15.6 34.3l14.7 29.7 24.4 49.3c3.1 6.2 7.5 13.3 3.9 20.3L85.7 260l-35.4 71.6c-4.5 8.4-7.6 16.6-10.8 24.8-1.6 7.3-4.6 15.1-5 22-2.4 14.6 9.1 32.7 23.5 38.2 6.9 2.8 14 3 22 3.4s16.8-.3 25.7-1.1l50.4-7.2 159.1-22.9 316.3-45.4 12.6-1.9c4.1-.7 8.6-1.2 12.5.8a14.4 14.4 0 0 1 7.6 9.7c.8 4.2 0 8.5.6 12.7-.6.4 2.8 8.5 5.7 13.7q3 4.1 6.3 7.8a92.7 92.7 0 0 0 8 6 45.2 45.2 0 0 0 38.6 4 69.6 69.6 0 0 0 8.5-3.9l4.5-2.6 9-5.3 18.1-10.7 144.5-85 28.4-16.8 4.7-2.7 2.3-1.4 1.2-.7.6-.3 2.9-2 4.3-3.4a48.7 48.7 0 0 0 7.7-8.8 42.2 42.2 0 0 0 7.3-19.9c1.4-9.6-1.1-19.6-5.9-28.1-3.5-5.5-9.2-8.3-14.6-7.1s-9.3 4.6-12.3 9.7-4.9 10.6-6.8 14.1-3.7 5.3-3.4 5.3.2 1 .2 1.6-.3.2-.2.4a2.5 2.5 0 0 1 1.4-1.5c1.6-.6-6.8 5.7-4.3 3.5l-47.4 28-138.5 81.5-17.4 10.2-8.6 5.1c-.9-.1-.7.5-1.1.2s-1.2.2-1.5-.4-.6-.1-.3-1c.4 1.2-.5-6.6-.9-10.5-1.5-8.5-1.8-17.3-5.9-24.7a40.4 40.4 0 0 0-18.4-17.9c-15.7-7.5-33.7-3.5-52.5-1l-320 46-159 22.8-29.1 4.2c-8.1.8-16.1 3.2-24.2 2.6S82.9 364.8 86.1 357s7.1-14.6 10.6-22l27.7-55.9 7.8-15.9c3-6.1 7.3-14.4 10-21.7a41.9 41.9 0 0 0 1-23.8c-1.8-7.9-5.9-15.1-9.4-22.6l-42.2-85.3c-2.2-5.1-5.7-9.9-6.3-15.5a14.5 14.5 0 0 1 8.1-13.7c5.2-2.8 11.1-.6 16.5-.1l16.7 2.4 212.8 30.6L559.1 145l55 7.9 27.4 4 14.3 1.9a45.2 45.2 0 0 0 25.8-4.6c7.5-3.8 15.3-11 18.2-17.3l1.5-2.4.3-1 .7-2a29.7 29.7 0 0 0 .3-4.2c-.1-5.5-.4-11.7 3.6-15.9a13.9 13.9 0 0 1 15.3-4.1c5.2 2.1 9.8 5.5 14.7 8.2l128.2 75.4z" opacity=".77"></path><path d="M914.2 218.6c5.6 3.4 14.8-1.7 20.4-11.4s5.7-20.1.1-23.4l-49.2-28.9-141.8-83.5c-11.1-5.9-21.5-11-32-12.8s-23.4 1.9-31.7 9.9-10.9 18.2-13.1 28.7l-1.9 8.7-1.1 4.9-.6 2.5.2 1a13.5 13.5 0 0 1 .3 1.8c-.2 0-.3.1-.4.3s-.6.4-.8.6a5.8 5.8 0 0 1-1.9.4l-13.2-1.9-27.5-3.9-54.9-7.9-219.8-31.6L119 39.6c-12.4-1.9-25.3-3.6-36-3.2s-20.5-.2-30 6.2S37 59.4 35.9 70s2.9 19.8 5.7 30.4 9.7 22.3 15.4 33.7l14.5 29.4 24.4 49.3c3.3 6.5 7.9 13.9 4.1 21.2l-13.1 26.6-35.1 71.1c-4.4 8.3-7.5 16.4-10.7 24.3s-4.7 15-5.2 21.8c-2.6 14.5 8.7 32.5 23.1 37.8 6.9 2.7 14 2.7 21.8 3.1s16.7-.4 25.3-1.3l49.8-7.1L315 387.4 631.4 342l13.1-1.9c4.3-.8 9-1.3 13 .8a14.9 14.9 0 0 1 8 10c.8 4.4-.1 8.9.6 13.3-.5.6 2.8 8.4 5.6 13.4a92.1 92.1 0 0 0 6.1 7.6c2.5 2.1 5.1 4.1 7.7 5.9a44.4 44.4 0 0 0 37.5 3.8 82.1 82.1 0 0 0 8.2-3.8l4.5-2.6 9-5.3 18.1-10.7 144.6-85.1 28.3-16.7 4.7-2.7 2.3-1.4 1.2-.7.6-.3 2.8-1.9 4.2-3.4c1.5-1 5.4-5.4 7.5-8.5 4.3-6.8 6.3-12.4 7-19.3 1.3-9.3-1.1-19-5.7-27.2-3.4-5.3-8.9-8-14-7s-8.9 4.1-11.7 8.9-4.5 10-6.2 13.3-3.2 5.2-2.9 5.4a5.5 5.5 0 0 1 .4 2.6.6.6 0 0 0-.2.7c0-.1.3-1 1-1.1s-6.6 5.6-4.5 3.7l-47.4 27.9-138.5 81.6-17.3 10.2-8.7 5.1c-1.1 0-1.1.7-1.6.4a2.9 2.9 0 0 1-2.7-.8c-.1-.6-.8-.4-.6-1.5.3 1-.5-6.5-.9-10.3-1.4-8.4-1.7-17.1-5.6-24.5a40.6 40.6 0 0 0-18.1-17.6c-15.6-7.3-33.3-3.2-51.7-.8l-319.9 46-159 22.8-29.8 4.3c-8.4.8-16.8 3.3-25.2 2.7s-14.4-11.4-11-19.5 7.4-15.2 11-22.9l27.9-56.4 7.9-15.9c3-6 7.2-14.2 9.8-21.3a40.9 40.9 0 0 0 1-23.5c-1.8-7.6-5.8-14.8-9.3-22.1l-42.6-86.3c-2.3-5.3-6-10.2-6.5-16.1A15.1 15.1 0 0 1 91.7 79c5.5-2.9 11.6-.6 17.3-.1l17.3 2.5 213.3 30.7 219.7 31.5 55 7.9 27.4 4 14.3 2a46 46 0 0 0 25-4.5c7.2-3.8 14.8-10.7 17.6-16.9l1.4-2.3.4-1 .7-2.1a32.5 32.5 0 0 0 .3-4.4c0-5.7-.4-12.1 3.8-16.6a14.5 14.5 0 0 1 15.9-4.2c5.5 2.2 10.2 5.7 15.4 8.5l128.6 75.7z" opacity=".81"></path><path d="M914.9 217.4c5.6 3.4 14.5-1.2 19.7-10.2s5-18.9-.6-22.2l-49.2-28.9-141.4-83.2c-10.9-5.8-21-11-31.4-12.9s-23.1 1.8-31.2 9.7-10.7 18.1-12.7 28.5l-1.8 8.6-1.1 4.8-.6 2.4v1a6.8 6.8 0 0 1 .2 1.9l-.5.5a5.4 5.4 0 0 1-1.2.9 5.7 5.7 0 0 1-2.6.4l-13.3-1.8-27.5-4-54.8-7.9-219.8-31.5L119.3 41c-12.3-1.9-24.8-3.5-35.5-3.2s-20.3-.5-29.8 5.8a37.5 37.5 0 0 0-16.8 27.1c-.9 10.2 3.1 19.5 6 30s9.6 21.9 15.2 33.1l14.4 29.1 24.4 49.4c3.4 6.7 8.2 14.3 4.3 21.9l-13.3 27-34.9 70.6c-4.3 8.1-7.4 16.1-10.6 23.9s-4.8 14.7-5.4 21.6c-2.8 14.3 8.4 32.1 22.7 37.2 6.8 2.6 13.9 2.6 21.7 2.8s16.4-.5 24.9-1.3l49.1-7.1 159.1-22.8 316.5-45.5 13.7-2c4.5-.8 9.3-1.3 13.5.9a15.6 15.6 0 0 1 8.3 10.4c.9 4.6-.1 9.2.6 13.8-.4.8 2.7 8.3 5.5 13.2a81.9 81.9 0 0 0 5.9 7.3q3.6 3 7.5 5.7a42.3 42.3 0 0 0 36.2 3.6 56.5 56.5 0 0 0 8-3.6l4.5-2.6 9.1-5.4 18-10.6 144.6-85.1 28.3-16.7 4.7-2.7 2.3-1.4 1.2-.7.6-.3 2.6-1.8 4.3-3.4c1.5-1 5.1-5.3 7.2-8.2 4.1-6.5 6.1-12 6.7-18.7 1.3-9-1-18.3-5.5-26.3-3.3-5.1-8.5-7.8-13.4-7s-8.5 3.8-11.1 8.2-4.1 9.3-5.6 12.5-2.7 5.1-2.3 5.4a8 8 0 0 1 .6 3.8 1.3 1.3 0 0 0-.4 1s.2-.8.7-.7-6.4 5.5-4.6 3.8l-47.4 27.8-138.5 81.6-17.4 10.2-8.6 5.1c-1.3.2-1.5.9-2.2.7a4.4 4.4 0 0 1-3.8-1.2c-1.2-1.2-.7 0-2-12.2-1.3-8.3-1.5-16.8-5.3-24.1a38.5 38.5 0 0 0-17.8-17.4c-15.3-7.1-32.8-2.9-50.8-.6l-319.8 45.9-159 22.9-30.5 4.4c-8.7.8-17.4 3.4-26.2 2.7s-15-11.8-11.4-20.2 7.6-15.8 11.4-23.8l28.2-56.9 7.8-15.9c3-6 7.1-13.9 9.7-21a39.2 39.2 0 0 0 1-23c-1.8-7.5-5.7-14.5-9.1-21.7l-43.1-87.2c-2.4-5.5-6.2-10.7-6.8-16.8a15.7 15.7 0 0 1 8.7-14.8c5.6-3 12-.7 17.9-.1l18.1 2.6 213.7 30.7 219.7 31.6 55 7.9 27.4 3.9 14.2 2a43.5 43.5 0 0 0 24.3-4.4c7-3.6 14.3-10.3 17.1-16.3l1.3-2.3.4-1 .7-2.2a34.2 34.2 0 0 0 .4-4.5c-.1-6-.4-12.7 3.9-17.3a15.1 15.1 0 0 1 16.6-4.4c5.6 2.3 10.6 5.9 15.9 8.8l129.1 76z" opacity=".84"></path><path d="M915.6 216.2c5.6 3.4 14.2-.7 19-9s4.3-17.7-1.3-21l-49.2-28.9-140.9-83c-10.7-5.6-20.7-10.8-30.9-12.9s-22.9 1.6-30.8 9.5-10.3 18-12.2 28.4l-1.7 8.5-1.1 4.6-.6 2.4v1a13.3 13.3 0 0 1 0 2l-.7.6c-.3.5-1 .7-1.4 1.1a7 7 0 0 1-3.5.6l-13.3-1.8-27.5-4-54.9-7.9-219.7-31.5-225.4-32.4c-12-1.9-24.3-3.5-34.9-3.3s-20.2-.8-29.6 5.4-15.7 16.3-16.5 26.7 3.4 19.4 6.3 29.7 9.5 21.6 15 32.5L74 162.2l24.5 49.5c3.5 6.9 8.5 14.9 4.4 22.8l-13.5 27.4L54.8 332a236.7 236.7 0 0 0-10.4 23.4c-1.9 7.1-5 14.5-5.7 21.3-3 14.2 8.1 31.9 22.3 36.8 6.8 2.4 13.9 2.3 21.6 2.4s16.1-.6 24.5-1.4l48.4-7 159.1-22.8 316.7-45.5 14.1-2.1c4.7-.8 9.7-1.4 14.1.9a16.4 16.4 0 0 1 8.6 10.9c.9 4.7-.1 9.6.7 14.3-.5 1 2.6 8.2 5.2 13 1.8 2.4 3.8 4.8 5.8 7.1s4.7 3.7 7.2 5.4a41.3 41.3 0 0 0 35.1 3.5 57.3 57.3 0 0 0 7.7-3.5l4.5-2.6 9.1-5.4 18-10.6L906.1 285l28.2-16.7 4.7-2.7 2.3-1.4 1.2-.7.6-.3 2.5-1.7 4.2-3.4a44.5 44.5 0 0 0 6.9-7.9 40 40 0 0 0 6.6-18c1.2-8.8-1.1-17.8-5.4-25.5-3.2-4.9-8.1-7.6-12.8-6.9s-8.1 3.3-10.5 7.4c-4.3 9-6.8 16.5-6.7 17.2a8.1 8.1 0 0 1 .7 4.9 2.2 2.2 0 0 0-.5 1.2c-.1.1.1-.5.5-.3s-6.4 5.4-4.9 4L876.4 262l-138.6 81.6-17.3 10.2-8.7 5.1c-1.5.3-1.8 1.1-2.8.8s-3.6 0-4.8-1.4-1.2-.8-2.4-12.6c-1.3-8.2-1.4-16.6-5.1-23.8a37 37 0 0 0-17.4-17.3c-15.2-6.8-32.3-2.5-50-.3l-319.7 45.9-159 22.9-31.2 4.4c-9.1.9-18.1 3.7-27.2 2.9s-15.5-12.3-11.9-21 8-16.4 11.9-24.7l28.4-57.4 7.9-16c2.9-5.9 6.9-13.6 9.5-20.5a37.9 37.9 0 0 0 1-22.6c-1.8-7.4-5.6-14.3-9-21.3l-43.5-88.1c-2.5-5.7-6.5-11.1-7.1-17.4A16.1 16.1 0 0 1 88.5 76c5.8-3.2 12.4-.7 18.6-.1l18.7 2.7L340 109.3l219.7 31.6 55 7.9 27.4 3.9 14.2 2a41.9 41.9 0 0 0 23.4-4.2c6.8-3.5 13.8-9.9 16.6-15.8l1.3-2.2.4-1.2.8-2.2a37.1 37.1 0 0 0 .3-4.7c0-6.2-.4-13.1 4.1-18a16 16 0 0 1 17.2-4.6c5.9 2.5 11 6.2 16.6 9.3l129.5 76.2z" opacity=".87"></path><path d="M916.3 215c5.6 3.4 13.9-.1 18.3-7.8s3.6-16.5-2-19.8l-49.2-28.9-140.5-82.7c-10.5-5.6-20.2-10.8-30.3-12.9s-22.6 1.4-30.4 9.2-9.9 18-11.6 28.2l-1.7 8.4-1.1 4.5-.5 2.3v1.1a6.4 6.4 0 0 1-.1 2l-.8.8a7.5 7.5 0 0 1-1.8 1.3 8.9 8.9 0 0 1-4.3.8l-13.3-1.9-27.5-3.9-54.9-7.9-219.9-31.6-224.9-32.3c-11.8-1.8-23.9-3.4-34.3-3.3s-20.1-1.1-29.4 4.9-15.6 16.1-16.3 26.4 3.6 19.2 6.6 29.4 9.4 21.2 14.8 31.9l14.1 28.4 24.4 49.5c1.8 3.8 4 7.4 5.4 11.4a17.2 17.2 0 0 1-.8 12.2l-13.7 27.8-34.3 69.6c-4.1 7.8-7.2 15.4-10.3 23s-5.1 14.3-5.9 21c-3.2 14.2 7.7 31.6 21.9 36.3 6.8 2.3 13.8 2.1 21.4 2.2s16-.7 24.2-1.6l47.7-6.8 159.1-22.9 316.8-45.5 14.7-2.1c4.8-.9 10-1.5 14.5.9a16.8 16.8 0 0 1 9 11.3c.9 4.9-.1 9.9.7 14.8-.4 1.2 2.5 8.1 5.1 12.7 1.8 2.4 3.6 4.7 5.6 6.9s4.6 3.6 7 5.3a39.9 39.9 0 0 0 33.9 3.3 67.2 67.2 0 0 0 7.4-3.4l4.5-2.7 9.1-5.3 18.1-10.6 144.6-85.2 28.2-16.6 4.7-2.7 2.3-1.4 1.2-.7.6-.3 2.3-1.6 4.3-3.4c1.5-1.1 4.7-4.9 6.6-7.6a38 38 0 0 0 6.3-17.4c1.2-8.5-1-17.1-5.2-24.6-3.1-4.7-7.8-7.4-12.2-6.8s-7.7 2.8-9.9 6.6c-4 8.3-5.9 15.4-5.5 16.5a9.9 9.9 0 0 1 .9 5.9 3.4 3.4 0 0 0-.7 1.5c-.1.3-.1-.2.2.1s-6.2 5.3-5.1 4.2l-47.2 27.7-138.6 81.7-17.4 10.2-8.7 5.1c-1.6.3-2.1 1.2-3.3 1a6.6 6.6 0 0 1-5.9-1.8c-1.8-1.7-1.8-1.6-2.9-13-1.2-8-1.2-16.4-4.7-23.5a36.2 36.2 0 0 0-17.1-17c-15-6.6-31.9-2.2-49.3-.1l-319.5 45.9-159 22.8-31.9 4.6c-9.4.9-18.7 3.8-28.2 3s-16.1-12.7-12.3-21.8 8.3-17 12.3-25.6l28.7-57.9 7.8-16c3-5.9 6.8-13.4 9.4-20.2a37.1 37.1 0 0 0 1.1-22.1c-1.9-7.3-5.7-14-8.9-20.9l-44-89c-2.6-6-6.7-11.5-7.3-18.1a16.8 16.8 0 0 1 9.3-16c6.1-3.2 13-.7 19.3-.1l19.5 2.8 214.6 30.8 219.7 31.6 55 7.9 27.4 4 14.2 1.9a41 41 0 0 0 22.6-4c6.5-3.5 13.3-9.6 16-15.4s2.6-6.7 2.9-10.5c-.1-6.4-.5-13.6 4.2-18.6a16.4 16.4 0 0 1 17.9-4.8c6 2.5 11.4 6.5 17.1 9.6l130 76.5z" opacity=".9"></path><path d="M917 213.8c5.7 3.4 13.5.4 17.6-6.6s2.9-15.3-2.7-18.6l-49.2-28.9-140-82.4c-10.3-5.5-19.9-10.7-29.8-13a33.1 33.1 0 0 0-29.9 9c-8.3 7.7-9.6 17.9-11.2 28l-1.5 8.3c-.6 2.4-2 7-1.8 7.8.1 3.6-2.1 3.2-3.4 4.6a10.6 10.6 0 0 1-5 .9l-13.4-1.9-27.5-3.9-54.9-7.9-219.8-31.6L120 45.4c-11.5-1.8-23.3-3.4-33.7-3.5s-19.9-1.3-29.2 4.6-15.4 15.8-16 26.1 3.9 19 6.9 29 9.4 20.8 14.6 31.3L76.5 161l24.5 49.5c1.8 3.9 4.1 7.7 5.5 11.8a17.5 17.5 0 0 1-.8 12.7l-13.8 28.1-34.2 69.1c-3.9 7.6-7 15.1-10.1 22.5s-5.2 14.1-6.1 20.8c-3.4 14.1 7.4 31.3 21.5 35.8 6.8 2.3 13.8 1.9 21.3 1.9s15.7-.8 23.8-1.7l47-6.7 159.1-22.9 316.9-45.5 15.2-2.2c5-.9 10.5-1.5 15.1 1a17.1 17.1 0 0 1 9.2 11.6c1 5.1 0 10.3.8 15.4-.4 1.4 2.5 8.1 5 12.5q2.6 3.4 5.4 6.6c2.2 1.8 4.4 3.5 6.7 5.1a38.7 38.7 0 0 0 32.7 3.2 73.2 73.2 0 0 0 7.2-3.3l4.6-2.7 9-5.3 18.1-10.6 144.7-85.2 28.2-16.6 4.6-2.7 2.3-1.4 1.2-.7.6-.3 2.2-1.5 4.2-3.4c1.5-1.1 4.5-4.7 6.4-7.3a37.6 37.6 0 0 0 6-16.8c1.1-8.1-1-16.5-5-23.7-3-4.5-7.4-7.2-11.6-6.8s-7.2 2.5-9.3 5.9c-3.6 7.6-4.9 14.3-4.3 15.8a10.6 10.6 0 0 1 1 7 3.6 3.6 0 0 0-.7 1.8c-.2.3-.3 0-.1.4s-6.1 5.3-5.4 4.4L878 264.3 739.3 346 722 356.2l-8.7 5.1c-1.8.4-2.5 1.4-3.9 1.2a8.3 8.3 0 0 1-7-2.1c-2.1-2-2.3-2.4-3.4-13.4-1-8-1-16.2-4.4-23.2a34.7 34.7 0 0 0-16.8-16.8c-14.8-6.5-31.4-1.9-48.4.1L310 353l-159 22.8-32.6 4.7c-9.7.9-19.4 3.9-29.2 3.1S72.5 370.4 76.5 361s8.5-17.6 12.7-26.5l28.9-58.4 7.9-16c2.9-5.8 6.7-13.2 9.2-19.8a35.4 35.4 0 0 0 1.1-21.8c-1.9-7.1-5.6-13.6-8.8-20.4l-44.5-90c-2.6-6.1-6.9-11.9-7.5-18.7a17.3 17.3 0 0 1 9.7-16.5c6.3-3.4 13.4-.7 20-.1l20.1 2.9 215.1 30.9 219.7 31.5 55 7.9 27.4 4 14.1 1.9a38.5 38.5 0 0 0 21.9-3.9c6.3-3.3 12.8-9.2 15.5-14.8s2.6-6.9 2.8-10.8c0-6.6-.5-14.1 4.4-19.2a16.9 16.9 0 0 1 18.5-5c6.3 2.6 11.8 6.7 17.8 9.9l130.4 76.8z" opacity=".94"></path><path d="M917.7 212.6c5.7 3.4 13.2.9 16.9-5.4s2.2-14.1-3.4-17.4L882 160.9 742.4 78.7c-10-5.3-19.4-10.6-29.2-13s-22 1.1-29.5 8.8-9.3 17.8-10.7 27.9l-1.4 8.1c-.6 2.4-1.9 6.8-1.9 7.6-.1 3.7-2.4 3.6-3.9 5.1a10.8 10.8 0 0 1-5.9 1.1l-13.4-1.9-27.5-4-54.9-7.8L344.3 79l-224-32.2c-11.3-1.7-22.9-3.3-33.1-3.5s-19.9-1.6-29.1 4.2-15.2 15.6-15.7 25.7 4.2 18.8 7.3 28.7 9.2 20.4 14.3 30.7l13.8 27.8 24.4 49.5c1.9 4.1 4.3 7.9 5.8 12.2a18.5 18.5 0 0 1-.8 13.1l-14.1 28.5-33.9 68.6c-3.8 7.5-6.9 14.8-10 22.1s-5.3 13.9-6.3 20.6c-3.6 13.9 7.1 31 21.1 35.3 6.8 2.1 13.7 1.6 21.2 1.6s15.4-1 23.4-1.8l46.3-6.7L314 380.5 631 335l15.8-2.3c5.2-.9 10.8-1.5 15.6 1a18.2 18.2 0 0 1 9.5 12.1c1 5.3-.1 10.7.8 15.9-.3 1.6 2.4 8 4.9 12.3a37.9 37.9 0 0 0 11.7 11.2 37 37 0 0 0 31.5 3 60.1 60.1 0 0 0 7-3.1l4.5-2.7 9-5.3 18.1-10.7 144.7-85.1 28.2-16.6 4.6-2.7 2.3-1.4 1.2-.7.6-.3 2-1.4 4.3-3.4c1.5-1.1 4.3-4.6 6.1-7.1a34.8 34.8 0 0 0 5.7-16.1c1.1-7.8-.9-15.9-4.8-22.8-5.9-9.5-16.8-7.9-19.7-1.6s-4 13.1-3.1 15.1a12.3 12.3 0 0 1 1.2 8 7.8 7.8 0 0 0-.9 2.1c-.3.5-.4.3-.3.8s-6.1 5.2-5.7 4.5l-47 27.7L740 347.1l-17.3 10.2-8.7 5.1c-1.9.6-2.8 1.6-4.4 1.5a9.5 9.5 0 0 1-8.1-2.5c-2.4-2.2-2.8-3.2-3.8-13.8-1-7.8-.9-15.9-4.2-22.9a33.3 33.3 0 0 0-16.4-16.5c-14.7-6.3-31-1.6-47.6.3l-319.3 45.8-159 22.9-33.3 4.8c-10 .9-20.1 4-30.2 3.2s-17.3-13.7-13.2-23.4 8.9-18.2 13.2-27.4l29.2-59 7.9-15.9c2.8-5.8 6.5-12.9 9.1-19.5a34.5 34.5 0 0 0 1-21.3c-1.9-7-5.5-13.4-8.7-20l-44.9-90.9c-2.7-6.3-7.1-12.3-7.8-19.3a18 18 0 0 1 10-17.1c6.6-3.6 13.9-.8 20.7-.2l20.9 3 215.5 31 219.7 31.6 55 7.9 27.4 3.9 14.1 2a38.1 38.1 0 0 0 21-3.8c6.1-3.2 12.4-8.8 15-14.3s2.7-7.1 2.9-11c-.1-6.9-.5-14.6 4.5-20a17.5 17.5 0 0 1 19.1-5.1c6.5 2.7 12.3 6.9 18.4 10.3l130.9 77z" opacity=".97"></path><path d="M934.6 207.2c-3 6.2-3 12-1.9 14.4 2.8 3.5 1.4 10.1-.2 12.2-.2.3.3.5-.5 1.1l-2.7 2.1-1.3 1.1-.4.3h-.3l1.3-.9-.7.5-3 1.7-11.9 7-155.5 91.8-38.9 22.9c-1.5.8-3.4 2.1-4.6 2.6a11.9 11.9 0 0 0-2.6 1.1 16.9 16.9 0 0 1-5.5.1 11.3 11.3 0 0 1-8.2-7.1l-.4-1.5-.4-3.4-.7-6.8-1.3-12.9a32.6 32.6 0 0 0-13.6-21.3c-7.3-5.3-16.3-6.5-24.8-5.6s-17.9 1.9-26.9 3.3l-319.2 45.8-159.1 22.9-33.9 4.8c-10.4 1-20.7 4.2-31.2 3.4s-17.8-14.1-13.6-24.1 9.1-19 13.6-28.4l29.4-59.5 7.9-15.9c2.8-5.8 6.4-12.7 9-19.1a33.2 33.2 0 0 0 1-20.9c-1.8-6.8-5.5-13.1-8.5-19.6l-45.4-91.8c-2.8-6.6-7.4-12.7-8.1-20a19 19 0 0 1 10.4-17.7c6.7-3.6 14.3-.8 21.4-.1l21.5 3.1 216 31 219.7 31.6 55 7.9 27.4 3.9 14.1 2a35.5 35.5 0 0 0 20.2-3.7c5.9-3.1 11.9-8.4 14.4-13.8s2.8-7.2 2.9-11.2c0-7.1-.5-15.1 4.7-20.6a18.1 18.1 0 0 1 19.8-5.3c6.7 2.8 12.6 7.1 19 10.6l131.3 77.3 49.1 28.9a11.8 11.8 0 1 0 12-20.4l-49.1-28.9-139.1-81.9c-9.9-5.3-19.1-10.6-28.8-13.1s-21.7 1-29 8.6-8.9 17.8-10.2 27.7l-1.3 8-1.9 7.5c-.3 3.8-2.8 4-4.6 5.5a11.8 11.8 0 0 1-6.7 1.2l-13.4-1.8-27.5-4-54.9-7.9-219.8-31.5-223.6-32.2C109.4 46.6 98.1 45 88 44.7s-19.7-1.9-28.8 3.7-15.1 15.4-15.5 25.4 4.4 18.7 7.6 28.4 9.1 20 14.1 30.1L79 159.8l24.5 49.5c1.9 4.2 4.4 8.2 5.9 12.6a18.8 18.8 0 0 1-.8 13.6l-14.2 28.8-33.7 68.1c-3.7 7.3-6.8 14.5-9.9 21.7s-5.4 13.7-6.5 20.3c-3.8 13.8 6.7 30.7 20.7 34.8 6.7 2 13.7 1.4 21 1.3s15.3-1 23.1-1.9l45.6-6.6 159.1-22.8 317.1-45.6 17.6-2.5c5.7-1.2 12-1.1 16.9 2.5a18.4 18.4 0 0 1 8.2 14.9v8.8a21.8 21.8 0 0 0 .4 4.4l.3 2.2 1.6 3.8c4 10.2 13.9 18.3 24.8 20.6a37.1 37.1 0 0 0 16.9-.4c2.6-.9 5.2-2 7.8-3.2s3.4-1.9 5.1-2.9l38.9-22.9L925 267.3l11.9-7 3-1.7.7-.4 2-1.5 1.4-1 2.7-2.2a34.8 34.8 0 0 0 3.8-4.3c9.4-12.4 9.8-27.4 2.6-39.7-5.6-9.1-15.9-7.9-18.5-2.3z"></path></g><path d="M934.6 207.2c-3 6.2-3 12-1.9 14.4a13.5 13.5 0 0 1 1.7 6.3 12.6 12.6 0 0 0-.4 2.7 20 20 0 0 0-1 2.6 1.4 1.4 0 0 0-.6 1.2c-.1.6-2.5 2.1-3.7 3.1l-1.1.9-.2.2h-.1l1.3-.9h-.2l-.6.3-2.4 1.4-4.8 2.8-22.3 13.2-148.2 87.4c-12.1 7-25.2 15-36.5 21.3-3.2 2-6.9 1.7-10.2.2s-5.7-3.4-6.3-9.4C695.7 346 696 338 694 330a32.3 32.3 0 0 0-14.8-19.3c-7.3-4.4-15.8-4.7-23.9-4s-17.1 1.9-25.7 3.2l-319.2 45.8-159.1 22.9-33.9 4.8c-10.4 1-20.7 4.2-31.2 3.4s-17.8-14.1-13.6-24.1 9.1-19 13.6-28.4l29.4-59.5 7.9-15.9c2.8-5.8 6.4-12.7 9-19.1a33.2 33.2 0 0 0 1-20.9c-1.8-6.8-5.5-13.1-8.5-19.6l-45.4-91.8c-2.8-6.6-7.4-12.7-8.1-20a19 19 0 0 1 10.4-17.7c6.7-3.6 14.3-.8 21.4-.1l21.5 3.1 216 31 219.7 31.6 55 7.9 27.4 3.9 14.1 2a35.5 35.5 0 0 0 20.2-3.7c5.9-3.1 11.9-8.4 14.4-13.8s2.8-7.2 2.9-11.2c0-7.1-.5-15.1 4.7-20.6a18.1 18.1 0 0 1 19.8-5.3c6.7 2.8 12.6 7.1 19 10.6l131.3 77.3 49.1 28.9a11.8 11.8 0 1 0 12-20.4l-49.1-28.9-139.1-81.9c-9.9-5.3-19.1-10.6-28.8-13.1s-21.7 1-29 8.6-8.9 17.8-10.2 27.7l-1.3 8-1.9 7.5c-.3 3.8-2.8 4-4.6 5.5a11.8 11.8 0 0 1-6.7 1.2l-13.4-1.8-27.5-4-54.9-7.9-219.8-31.5-223.6-32.2C109.4 46.6 98.1 45 88 44.7s-19.7-1.9-28.8 3.7-15.1 15.4-15.5 25.4 4.4 18.7 7.6 28.4 9.1 20 14.1 30.1L79 159.8l24.5 49.5c1.9 4.2 4.4 8.2 5.9 12.6a18.8 18.8 0 0 1-.8 13.6l-14.2 28.8-33.7 68.1c-3.7 7.3-6.8 14.5-9.9 21.7s-5.4 13.7-6.5 20.3c-3.8 13.8 6.7 30.7 20.7 34.8 6.7 2 13.7 1.4 21 1.3s15.3-1 23.1-1.9l45.6-6.6 159.1-22.8 317.1-45.6 16.7-2.4c5.5-1 11.5-1.5 16.5 1.4a18.5 18.5 0 0 1 9.2 13.4c.9 5.5-.3 11.2.9 16.8 1.9 8.1 9.4 18.9 19.1 22.9s21.8 4.8 31.1-.5c13.7-7.6 25.1-14.6 37.8-22L910.3 276l22.4-13.2 4.7-2.8 2.4-1.4.6-.3 1.9-1.3 1.1-.9c1.6-1.4 2.6-1.7 4.7-4a47.8 47.8 0 0 0 5.8-7.8c1.1-2.5 2.2-5.1 3.1-7.7s.8-5.5 1.1-8.2a37.1 37.1 0 0 0-5-18.9c-5.6-9.1-15.9-7.9-18.5-2.3z" fill="#92278f"></path><path d="M935.2 207.7c-3 5.8-3.3 11.5-2.1 13.8s.7 2 1.3 3 .3 2.3.3 3.4a14.9 14.9 0 0 1-1.4 5.5 1.5 1.5 0 0 0-.6 1.3c-.3.6-2.6 2.1-3.8 3.1l-1.1.9-.2.2 1.2-.9h-.3l-.6.4-2.3 1.4-4.8 2.8-22.5 13.4-148.1 87.2c-12.1 7-25.2 15-36.5 21.3-3.2 2-7.1 1.7-10.5.1s-5.8-3.5-6.5-9.7c-1.3-8.8-1.1-16.8-3-24.7A32 32 0 0 0 679 311c-7.4-4.4-15.8-4.7-23.9-3.9s-16.9 1.9-25.5 3.1l-319.1 45.9-159.1 22.8-34.1 4.9c-10.5 1-20.9 4.2-31.5 3.4S67.8 373 72 362.9s9.3-19.1 13.8-28.7l29.5-59.5 7.9-16c2.8-5.7 6.3-12.6 8.9-19a32.2 32.2 0 0 0 1-20.8c-1.8-6.8-5.4-13-8.5-19.5l-45.4-92c-2.9-6.6-7.5-12.8-8.2-20.2a18.9 18.9 0 0 1 10.5-17.8c6.8-3.7 14.4-.8 21.5-.1l21.8 3.1 216 31L560.6 135l54.9 7.9 27.5 4 14 1.9a35.5 35.5 0 0 0 20-3.6c5.8-3.1 11.8-8.3 14.3-13.7s2.7-7.3 2.9-11.3c-.1-7.1-.5-15.2 4.7-20.8a18.4 18.4 0 0 1 20-5.3c6.7 2.8 12.7 7.2 19.1 10.7l131.5 77.4 49 28.8a11.4 11.4 0 0 0 11.6-19.7l-49-28.9-139-81.8c-9.8-5.2-18.9-10.5-28.6-13.1a30.7 30.7 0 0 0-28.8 8.5c-8 7.6-8.9 17.8-10.1 27.7l-1.3 7.9-2 7.5c-.3 3.8-2.9 4.1-4.7 5.7a12.5 12.5 0 0 1-6.9 1.2l-13.5-1.8-27.4-4-55-7.9-219.7-31.5-223.5-32.1a298.1 298.1 0 0 0-32.3-3.6c-10.1.1-19.7-2-28.8 3.6S44.4 64 44.1 74s4.5 18.6 7.6 28.3 9.1 19.8 14.1 29.9l13.6 27.4 24.5 49.5c1.9 4.3 4.4 8.3 5.9 12.8a19.1 19.1 0 0 1-.8 13.7l-14.3 28.9-33.5 67.9c-3.8 7.3-6.8 14.5-9.9 21.6s-5.4 13.6-6.7 20.2c-3.8 13.8 6.8 30.7 20.6 34.7 6.8 2 13.8 1.4 21.1 1.2s15.1-1.1 22.9-1.9l45.5-6.6 159-22.8 317.2-45.6 16.9-2.4c5.5-1.1 11.5-1.6 16.5 1.4a18.6 18.6 0 0 1 9.4 13.5c.9 5.6-.4 11.3.9 16.9 1.9 8.1 9.3 18.8 18.9 22.8s21.5 4.7 30.8-.6c13.6-7.5 25-14.6 37.7-21.9l148.1-87.2 22.4-13.2 4.7-2.8 2.4-1.4.6-.4 1.9-1.2 1-.9c1.6-1.4 2.6-1.7 4.7-4a52.7 52.7 0 0 0 5.8-7.6c1.1-2.6 2.1-5.1 3-7.7s.8-5.4 1.1-8.1a62.7 62.7 0 0 0-1.1-9.6 57.6 57.6 0 0 0-3.7-8.9c-5.2-8.5-14.9-7.6-17.7-2.2z" fill="#9b3996"></path><path d="M935.8 208.2c-3 5.4-3.6 10.9-2.3 13.1.2-.1.5 1.7 1.3 3.2s.6 3.4.3 3.4a17.7 17.7 0 0 1-1.4 5.7 1.8 1.8 0 0 0-.8 1.4c-.3.7-2.6 2.1-3.8 3.2l-1.1.8h-.2l1.2-.8-.3.2-.6.3-2.4 1.4-4.7 2.8-22.7 13.4-148 87.1c-12.1 7-25.2 15-36.4 21.2-3.4 2.1-7.4 1.8-10.9.1s-6-3.7-6.7-9.9c-1.3-8.8-1-16.7-2.9-24.6a31.5 31.5 0 0 0-14.7-19.1c-7.3-4.4-15.7-4.6-23.7-3.8s-16.9 1.8-25.4 3.1l-319.1 46.1-159 22.8-34.3 4.9c-10.6 1-21.2 4.3-31.8 3.4s-18.2-14.3-13.9-24.5 9.3-19.2 13.9-28.9l29.6-59.7 7.8-16c2.8-5.7 6.4-12.5 8.9-18.8a32.7 32.7 0 0 0 1.1-20.7c-1.9-6.8-5.5-13-8.5-19.4l-45.6-92.3c-2.9-6.7-7.5-12.9-8.2-20.3A18.9 18.9 0 0 1 81 69c6.9-3.7 14.6-.8 21.8-.1l21.9 3.1 216.2 31.1 219.7 31.5 55 7.9 27.4 4 14 1.9a35.9 35.9 0 0 0 19.9-3.5c5.7-3.1 11.6-8.3 14.1-13.6s2.7-7.3 2.9-11.3c-.1-7.3-.5-15.4 4.8-21a18.4 18.4 0 0 1 20.1-5.4c6.8 2.8 12.8 7.3 19.3 10.8l131.6 77.5 48.8 28.7c5 3 11.6 1.1 14.7-4.2s1.7-11.5-3.5-14.9l-48.8-28.7L742 81c-9.7-5.2-18.8-10.5-28.4-13.1s-21.5.9-28.7 8.5-8.8 17.7-10 27.6c-.2 2.3-.8 5.3-1.2 7.9l-2 7.4c-.4 3.8-3 4.3-4.9 5.9a13.6 13.6 0 0 1-7.2 1.2l-13.4-1.8-27.5-4-54.9-7.9L344 81.2 120.7 49.1a296.4 296.4 0 0 0-32.2-3.6c-10 0-19.6-2.1-28.8 3.5s-15 15.2-15.3 25.2 4.6 18.6 7.8 28.2 9 19.7 14 29.7l13.5 27.3 24.5 49.6c2 4.3 4.5 8.3 6 12.8a18.8 18.8 0 0 1-.8 13.8l-14.3 29.1-33.5 67.8c-3.7 7.2-6.8 14.3-9.9 21.4s-5.4 13.6-6.7 20.2c-3.8 13.7 6.7 30.6 20.5 34.5 6.8 2 13.7 1.3 21 1.1s15.1-1.1 22.9-2l45.2-6.5 159.1-22.8 317.2-45.6 17-2.4c5.5-1.1 11.6-1.6 16.7 1.4a18.7 18.7 0 0 1 9.5 13.6c.9 5.7-.4 11.5.9 17.1 1.9 8.1 9.2 18.5 18.7 22.5s21.2 4.7 30.4-.5c13.6-7.6 25-14.6 37.7-22l148.1-87.2 22.4-13.1 4.7-2.8 2.4-1.5.6-.3 1.8-1.2 1.1-.9c1.6-1.4 2.6-1.7 4.7-4a50.4 50.4 0 0 0 5.6-7.5c1.1-2.5 2.1-5.1 3-7.6s.8-5.4 1.1-8c.2 0-.3-4.7-1-9.4s-3.4-8.8-3.6-8.7c-4.9-7.9-14-7.3-16.9-2.1z" fill="#a34b9c"></path><path d="M936.4 208.7c-3 5-3.8 10.3-2.5 12.5.1 0 .5 1.7 1.3 3.2s.5 3.6.3 3.6a16.6 16.6 0 0 1-1.5 5.8 2.6 2.6 0 0 0-.9 1.5c-.4.7-2.6 2.1-3.8 3.2l-1.1.8h-.2l1.2-.8-.3.2-.6.4-2.4 1.4-4.8 2.8-22.8 13.4-147.9 87c-12.1 7.3-25.2 15.3-36.4 21.5a12 12 0 0 1-11.2.1c-3.5-2.3-6.1-3.9-6.9-10.2-1.3-8.7-.9-16.7-2.8-24.5a31.5 31.5 0 0 0-14.6-19c-7.3-4.3-15.6-4.5-23.6-3.8s-16.8 1.9-25.2 3.2l-319.1 45.8-159.1 22.9-34.5 4.9c-10.6 1-21.3 4.3-32 3.4s-18.3-14.4-14-24.7 9.4-19.4 14-29.1l29.6-59.9 7.9-15.9c2.8-5.7 6.3-12.5 8.9-18.8a32.3 32.3 0 0 0 1-20.6c-1.9-6.7-5.4-12.9-8.5-19.3l-45.7-92.5c-2.9-6.7-7.6-13-8.3-20.5a19.1 19.1 0 0 1 10.7-18.1c6.9-3.8 14.7-.8 21.9-.2l22.1 3.2 216.3 31.1 219.8 31.6 54.9 7.9 27.5 3.9 14 1.9a34.9 34.9 0 0 0 19.6-3.5c5.7-3 11.5-8.1 13.9-13.4s2.8-7.4 3-11.4c-.1-7.3-.5-15.5 4.8-21.2a18.7 18.7 0 0 1 20.3-5.4c6.9 2.9 12.9 7.3 19.5 10.9l180.3 106.2c4.8 2.8 11.1.9 14-4.2s1.9-10.8-3.2-14.2L742 81.5c-9.7-5.2-18.7-10.5-28.3-13.2a30.3 30.3 0 0 0-28.6 8.4c-7.9 7.5-8.7 17.8-9.8 27.6-.2 2.3-.8 5.2-1.3 7.9l-1.9 7.4c-.5 3.8-3.2 4.3-5.1 5.9a13.6 13.6 0 0 1-7.4 1.3l-13.5-1.8-27.4-4-55-7.9L344 81.5l-223.2-32a292.9 292.9 0 0 0-32-3.6c-10 0-19.7-2.2-28.8 3.4a31 31 0 0 0-15.2 25.1c-.2 9.8 4.7 18.5 7.9 28s9 19.7 13.9 29.6l13.5 27.2 24.5 49.6c2 4.3 4.5 8.4 6 13a18.6 18.6 0 0 1-.8 13.9l-14.3 29.2L62 332.5c-7.3 14.6-13.1 28.3-16.6 41.4s6.6 30.5 20.4 34.4c6.8 1.9 13.7 1.2 21 1s15-1.1 22.7-2l45-6.5L313.6 378l317.3-45.6 17.1-2.5c5.6-1 11.8-1.5 16.9 1.5a19.2 19.2 0 0 1 9.6 13.7c.9 5.7-.4 11.6.8 17.3 1.9 8 9.2 18.3 18.5 22.2s21.1 4.7 30.1-.5c13.6-7.5 25-14.6 37.7-21.9L909.7 275l22.4-13.2 4.7-2.8 2.4-1.4.6-.3 1.8-1.3 1-.8c1.6-1.4 2.7-1.8 4.7-4a55.4 55.4 0 0 0 5.6-7.4c1-2.5 2-5 2.9-7.5s.8-5.3 1.1-7.9c.2 0-.3-4.6-1-9.1s-3.4-8.6-3.4-8.6c-4.6-7.4-13-7-16.1-2z" fill="#ac5ea3"></path><path d="M937 209.2c-3 4.6-4.1 9.8-2.7 11.9l1.2 3.3c.1 1.8.6 3.6.3 3.6a15.2 15.2 0 0 1-1.5 6 2.4 2.4 0 0 0-.9 1.6c-.5.8-2.6 2.1-3.9 3.2l-1.1.9h-.1l1.1-.8h-.1l-.3.2-.6.3-2.4 1.6-4.7 2.8-23 13.6-147.8 86.9c-12.1 7-25.2 15.1-36.4 21.2a12 12 0 0 1-11.5.1c-3.6-2.3-6.3-4.1-7-10.5-1.4-8.6-1-16.5-2.8-24.3a31.3 31.3 0 0 0-14.6-18.9c-7.2-4.3-15.5-4.5-23.5-3.7s-16.6 1.9-25 3.2l-319.1 45.8-159 22.9-34.7 4.9c-10.8 1-21.5 4.3-32.3 3.5s-18.5-14.6-14.1-25 9.4-19.5 14.1-29.3l29.7-60 7.9-16c2.8-5.7 6.2-12.4 8.8-18.7a31.7 31.7 0 0 0 1-20.4c-1.8-6.7-5.4-12.8-8.4-19.2l-45.8-92.7c-3-6.9-7.7-13.2-8.4-20.8a19.4 19.4 0 0 1 10.7-18.3c7-3.7 14.9-.8 22.2-.1l22.3 3.2L341 102.3l219.7 31.6 55 7.9 27.4 3.9 14 2a35.1 35.1 0 0 0 19.4-3.5c5.6-3 11.4-8 13.8-13.3s2.8-7.4 3-11.5c-.1-7.3-.6-15.6 4.8-21.3a18.9 18.9 0 0 1 20.5-5.5c6.9 2.9 13 7.4 19.6 11l180.3 106.2c4.5 2.6 10.5.7 13.3-4.2s2-10.1-2.8-13.6L741.9 81.9c-9.6-5.2-18.6-10.5-28.1-13.2s-21.4.8-28.5 8.4-8.6 17.7-9.6 27.5c-.3 2.3-.9 5.2-1.3 7.8l-2 7.4c-.5 3.8-3.2 4.4-5.3 6.1a13.8 13.8 0 0 1-7.5 1.3l-13.5-1.8-27.5-4-54.9-7.9-219.8-31.6-223.1-32C110 48.3 99 46.8 89 46.3S69.4 44 60.3 49.6a30.5 30.5 0 0 0-15.1 25c-.1 9.8 4.7 18.4 7.9 27.9s9 19.6 13.9 29.4l13.5 27.2 24.5 49.5c2 4.4 4.5 8.5 6.1 13.1a19.6 19.6 0 0 1-.9 14.1L95.8 265l-33.3 67.5c-7.3 14.5-13.1 28.2-16.7 41.2s6.5 30.5 20.3 34.3c6.8 1.9 13.7 1.2 20.9.9s15-1.1 22.6-2l44.9-6.5 159.1-22.8L630.9 332l17.3-2.5c5.6-1 11.8-1.6 17 1.5a19.1 19.1 0 0 1 9.6 13.8c.9 5.8-.4 11.7.9 17.4 1.9 8 9 18.2 18.3 22.1s20.8 4.6 29.7-.5c13.6-7.5 25-14.6 37.7-22l148.1-87.2 22.4-13.1 4.7-2.8 2.4-1.4.6-.4 1.7-1.2 1.1-.8a36 36 0 0 0 4.6-4 53.7 53.7 0 0 0 5.5-7.3c1.1-2.4 2-4.9 2.9-7.4s.8-5.2 1.1-7.8c.2 0-.3-4.5-1-8.9a64.6 64.6 0 0 0-3.3-8.4c-4.1-6.9-11.9-6.7-15.2-1.9z" fill="#b570aa"></path><path d="M937.6 209.7a15.4 15.4 0 0 0-3 6.4c-.6 2.2-.9 3.9 0 4.9s.6 1.7 1.3 3.4.6 3.7.3 3.7a18.4 18.4 0 0 1-1.6 6.1 3.2 3.2 0 0 0-1 1.7 29.1 29.1 0 0 1-3.9 3.2l-1.1.9h-.1l1.1-.8h-.1l-.3.2-.6.3-2.4 1.4-4.8 2.8-23.1 13.7-147.7 87.1c-12.1 7-25.2 15.1-36.4 21.2a12.4 12.4 0 0 1-11.8 0c-3.7-2.3-6.4-4.2-7.2-10.7-1.4-8.6-.9-16.5-2.8-24.2a30.2 30.2 0 0 0-14.4-18.8c-7.2-4.3-15.5-4.4-23.4-3.6s-16.6 1.9-24.9 3.2l-319 45.8-159.1 22.8-34.8 5c-10.9 1.1-21.7 4.4-32.6 3.5s-18.7-14.7-14.3-25.2 9.6-19.7 14.3-29.6l29.7-60.1 7.9-16c2.8-5.6 6.2-12.3 8.8-18.6a31.4 31.4 0 0 0 1-20.3c-1.8-6.6-5.4-12.7-8.3-19l-46-93c-3-6.9-7.7-13.3-8.4-20.9a19.5 19.5 0 0 1 10.8-18.5c7-3.8 15-.8 22.3-.1l22.5 3.2L341 101.9l219.8 31.6 54.9 7.9 27.5 4 14 1.9a34.9 34.9 0 0 0 19.1-3.4c5.6-3 11.3-8 13.7-13.1s2.8-7.6 3-11.6c-.1-7.4-.6-15.8 4.9-21.5a18.6 18.6 0 0 1 20.6-5.5c7 2.8 13.2 7.4 19.8 11l180.3 106.1c4.1 2.5 9.8.7 12.5-4.1s2.1-9.4-2.5-12.9l-186.8-110c-9.5-5.1-18.4-10.5-27.9-13.1s-21.3.7-28.4 8.2-8.5 17.7-9.5 27.5c-.2 2.3-.8 5.2-1.2 7.8l-2 7.3c-.6 3.8-3.4 4.5-5.5 6.2a14 14 0 0 1-7.8 1.4l-13.5-1.9-27.5-3.9-54.9-7.9-219.8-31.6-222.9-32c-10.8-1.6-21.7-3.1-31.7-3.6s-19.5-2.4-28.6 3.1-14.8 15-15 24.9 4.8 18.4 8 27.9 8.9 19.4 13.8 29.2l13.4 27.1 24.5 49.6c2 4.4 4.6 8.6 6.2 13.2a19.9 19.9 0 0 1-.9 14.2l-14.4 29.3-33.3 67.4c-7.3 14.3-13 27.9-16.7 41s6.4 30.3 20.2 34.1c6.7 1.9 13.6 1.1 20.9.8s14.9-1.1 22.5-2l44.6-6.5 159.1-22.8 317.3-45.6 17.5-2.5c5.7-1.1 11.9-1.6 17.2 1.5a19.5 19.5 0 0 1 9.7 13.9c.9 5.9-.4 11.8.9 17.6 1.9 8 8.9 18 18.1 21.8s20.5 4.5 29.3-.5c13.5-7.5 25-14.6 37.7-21.9l148.1-87.2 22.3-13.2 4.8-2.8 2.4-1.4.6-.3 1.7-1.2 1.1-.8c1.5-1.4 2.6-1.8 4.6-4a54.1 54.1 0 0 0 5.4-7.2c1-2.4 2-4.9 2.8-7.3s.8-5.2 1.1-7.8c.2.1-.3-4.3-.9-8.6a70.4 70.4 0 0 0-3.2-8.2c-1.9-2.9-4.8-4.8-7.3-5.1a8.5 8.5 0 0 0-7.1 3.3z" fill="#bd82b1"></path><path d="M938.2 210.1c-3 4-4.5 8.9-3.2 10.8l1.3 3.5c.1 1.9.5 3.7.3 3.7a18.9 18.9 0 0 1-1.6 6.3 3.1 3.1 0 0 0-1.1 1.8 39.1 39.1 0 0 1-4 3.3l-1.1.8h-.1l1.1-.7h-.5l-.6.4-2.4 1.4-4.7 2.8-23.3 13.7-147.6 87.2c-12.1 7-25.1 15.1-36.3 21.1a12.6 12.6 0 0 1-12.2 0c-3.8-2.4-6.6-4.4-7.4-11-1.4-8.4-.8-16.3-2.7-24.1a30.2 30.2 0 0 0-14.3-18.6c-7.2-4.2-15.5-4.3-23.3-3.5s-16.5 1.9-24.8 3.1l-319 45.9-159 22.8-35.1 5c-10.9 1.1-21.8 4.4-32.8 3.5S65 374.5 69.4 364s9.6-19.9 14.4-29.9l29.8-60.3 7.9-15.9c2.8-5.7 6.2-12.3 8.7-18.5a31.2 31.2 0 0 0 1.1-20.2c-1.9-6.6-5.4-12.7-8.4-19L76.8 107c-3-7-7.8-13.4-8.5-21.1a19.8 19.8 0 0 1 10.9-18.6c7.1-3.8 15.1-.8 22.5-.1l22.7 3.2 216.7 31.2 219.7 31.5 55 7.9 27.4 4 14 1.9a33.7 33.7 0 0 0 19-3.4c5.5-2.9 11.1-7.8 13.5-12.9s2.8-7.6 3-11.7c-.1-7.5-.6-15.9 4.9-21.7a18.8 18.8 0 0 1 20.8-5.5c7 2.9 13.3 7.5 20 11.1l180.2 106.1c3.9 2.3 9.2.5 11.9-4.1 3.1-3.2 2.1-8.7-2.3-12.3L741.8 82.7c-9.6-5.1-18.4-10.4-27.9-13.1a29 29 0 0 0-28.2 8.2c-7.7 7.4-8.4 17.6-9.3 27.4a75 75 0 0 1-3.3 15c-.6 3.9-3.4 4.7-5.6 6.4a14.8 14.8 0 0 1-8 1.4l-13.5-1.9-27.5-3.9-55-7.9-219.7-31.6-222.8-32c-10.7-1.6-21.6-3.1-31.5-3.6s-19.5-2.5-28.6 3-14.8 14.9-15 24.8 4.9 18.4 8.2 27.8 8.9 19.3 13.7 29l13.4 27 24.5 49.6c2 4.4 4.6 8.7 6.2 13.3a19.1 19.1 0 0 1-.9 14.3l-14.5 29.5-33.2 67.2c-7.2 14.3-13 27.8-16.7 40.8s6.3 30.3 20.1 34c6.7 1.8 13.6 1 20.8.7s14.8-1.2 22.4-2.1l44.5-6.3 159.1-22.9 317.3-45.6 17.6-2.5c5.8-1.1 12.1-1.6 17.4 1.5a19.5 19.5 0 0 1 9.8 14c.9 5.9-.4 11.9.9 17.8 1.8 7.9 8.8 17.7 17.8 21.5s20.3 4.5 29.1-.4c13.4-7.5 25-14.6 37.6-21.9l148.1-87.3 22.3-13.1 4.8-2.8 2.4-1.4.6-.4 1.6-1.1 1.1-.9c1.6-1.3 2.7-1.7 4.6-3.9a45.2 45.2 0 0 0 5.3-7.1c1-2.4 2-4.8 2.8-7.2s.8-5.1 1.1-7.7c.2 0-.3-4.2-.9-8.4a71.9 71.9 0 0 0-3-8.1c-3.6-5.7-10.2-6-13.6-1.7z" fill="#c694b7"></path><path d="M938.8 210.6c-3 3.7-4.8 8.4-3.4 10.2l1.2 3.6c.2 1.9.6 3.8.4 3.8a19.5 19.5 0 0 1-1.7 6.4 4.1 4.1 0 0 0-1.2 1.9c-.8.9-2.7 2.2-4 3.3l-1.1.8 1-.7h-.2l-.3.2-.6.3-2.4 1.4-4.7 2.8-23.6 13.9-147.4 87c-12.1 6.9-25.1 15-36.3 21.1a13.2 13.2 0 0 1-12.5 0c-3.9-2.5-6.8-4.6-7.6-11.3-1.3-8.4-.8-16.3-2.6-24a29.8 29.8 0 0 0-14.3-18.5c-7.1-4.2-15.3-4.3-23.2-3.4s-16.3 1.9-24.6 3.1l-318.9 45.8-159.1 22.9-35.2 5c-11 1.1-22 4.4-33.1 3.6s-19-15-14.5-25.6 9.7-20.1 14.5-30.1l29.9-60.4 7.8-16c2.8-5.6 6.2-12.2 8.8-18.4a30.8 30.8 0 0 0 1-20.1c-1.9-6.5-5.4-12.6-8.3-18.8l-46.2-93.5c-3.1-7-7.9-13.5-8.6-21.3a19.9 19.9 0 0 1 11-18.7c7.1-3.8 15.2-.8 22.7-.1l22.9 3.3 216.7 31.1 219.8 31.6 54.9 7.9 27.5 3.9 14 2a33.7 33.7 0 0 0 18.7-3.4c5.4-2.9 10.9-7.7 13.4-12.8s2.8-7.6 2.9-11.8c0-7.5-.5-16 5-21.8a19 19 0 0 1 21-5.6c7.1 2.9 13.4 7.5 20.1 11.2l180.2 106.1c3.6 2.1 8.6.3 11.2-4.1 3.1-2.8 2.3-8-1.9-11.7L741.7 83.1c-9.5-5-18.3-10.4-27.7-13.1s-21.1.6-28.1 8.1-8.2 17.7-9.2 27.4a69.9 69.9 0 0 1-3.2 15c-.7 3.8-3.5 4.7-5.8 6.4a14.9 14.9 0 0 1-8.3 1.5l-13.5-1.9-27.5-3.9-54.9-7.9-219.8-31.6-222.7-32c-10.6-1.6-21.4-3-31.3-3.6S70.2 45 61.2 50.4 46.4 65.3 46.3 75.1s5 18.3 8.2 27.7 8.9 19.2 13.7 28.8l13.3 26.9 24.5 49.6c2.1 4.5 4.7 8.8 6.3 13.5a19.9 19.9 0 0 1-.8 14.4l-14.6 29.6-33.2 67c-7.1 14.2-12.9 27.7-16.7 40.6s6.2 30.2 20 33.9c6.7 1.8 13.6 1 20.8.6s14.7-1.2 22.3-2.1l44.2-6.3 159.1-22.9 317.4-45.6 17.7-2.5c5.9-1.1 12.2-1.7 17.5 1.4a19.7 19.7 0 0 1 9.9 14.3c1 5.9-.4 12 .9 17.9 1.9 7.8 8.8 17.5 17.7 21.3s20.1 4.4 28.7-.5c13.4-7.4 25-14.6 37.5-21.9l148.2-87.2 22.3-13.2 4.8-2.8 2.4-1.4.6-.3 1.6-1.1 1.1-.9a34.2 34.2 0 0 0 4.5-3.9 58.5 58.5 0 0 0 5.3-7c1-2.3 1.9-4.7 2.8-7.1s.7-5.1 1-7.6c.2 0-.3-4.1-.9-8.2a59.1 59.1 0 0 0-2.9-7.9c-3.3-5.1-9.3-5.6-12.7-1.6z" fill="#cea6be"></path><path d="M939.4 211.1c-3.1 3.5-4.9 7.9-3.7 9.6a30 30 0 0 1 1.3 3.6c.2 2 .6 3.9.3 3.9a16.5 16.5 0 0 1-1.7 6.6 5.3 5.3 0 0 0-1.3 2 37.1 37.1 0 0 1-4 3.3c-1 .8-5.7 3.4-8.4 5.1l-23.7 13.9-147.3 86.8c-12.1 6.9-25.1 15-36.3 21a13.5 13.5 0 0 1-12.8 0c-4-2.5-6.9-4.8-7.8-11.5-1.3-8.4-.7-16.2-2.5-23.9a30 30 0 0 0-14.2-18.4c-7.1-4.2-15.3-4.2-23.1-3.3s-16.2 1.9-24.4 3.1l-318.9 45.8-159.1 22.9-35.4 5-16.7 2.4c-5.6.8-11.2 2.1-16.7 1.2-11.2-2-19.1-15.1-14.6-25.8S78.2 344.2 83 334l29.9-60.5 7.9-16c2.8-5.6 6.1-12.1 8.7-18.3a30.2 30.2 0 0 0 1-19.9c-1.8-6.6-5.4-12.5-8.3-18.8l-46.3-93.7c-3.1-7-7.9-13.6-8.6-21.4a19.9 19.9 0 0 1 11.1-18.9c7.2-3.9 15.3-.9 22.8-.1l23.1 3.3 216.9 31.1 219.7 31.6 55 7.9 27.5 3.9 13.9 2a33.8 33.8 0 0 0 18.5-3.3c5.4-2.9 10.8-7.7 13.3-12.7s2.8-7.7 2.9-11.8c0-7.6-.5-16.2 5-22.1a19.3 19.3 0 0 1 21.2-5.6c7.2 2.9 13.5 7.6 20.3 11.3l180.1 106.1c3.3 1.9 8 .1 10.5-4.1 3.1-2.4 2.4-7.3-1.6-11L741.6 83.6c-9.4-5.1-18.1-10.4-27.5-13.2a28.7 28.7 0 0 0-28 8.1c-7.6 7.4-8.1 17.6-9 27.3a62.4 62.4 0 0 1-3.3 14.9c-.7 3.9-3.6 4.8-5.9 6.6a16.7 16.7 0 0 1-8.5 1.5l-13.6-1.9-27.4-3.9-55-7.9-219.7-31.6-222.6-32c-10.6-1.5-21.3-3-31.1-3.6s-19.5-2.6-28.5 2.8a29.5 29.5 0 0 0-14.8 24.6c0 9.7 5 18.2 8.3 27.6s8.8 19 13.6 28.7l13.3 26.8 24.5 49.6c2.1 4.5 4.7 8.8 6.3 13.5a20.5 20.5 0 0 1-.8 14.6l-14.7 29.6-33 67c-7.1 14-13 27.4-16.8 40.4s6.1 30.1 19.9 33.7c6.7 1.8 13.6.9 20.7.6s14.7-1.3 22.2-2.2l44.1-6.3 159-22.9 317.5-45.6 17.9-2.6c5.8-1.1 12.3-1.6 17.6 1.5a20.2 20.2 0 0 1 10 14.4c.9 6-.4 12.1.9 18 1.8 7.9 8.7 17.4 17.5 21.1s19.8 4.4 28.3-.5c13.4-7.4 25-14.5 37.5-21.8l148.2-87.2 22.3-13.2c3.6-2.3 5.6-2.9 10.4-6.5a29 29 0 0 0 4.6-3.9 49.2 49.2 0 0 0 5.1-6.9l2.8-7c.4-2.5.7-5 1-7.5.2 0-.3-4-.9-8a49.4 49.4 0 0 0-2.8-7.7c-2.9-4.7-8.5-5.2-11.8-1.5z" fill="#d7b8c5"></path><path d="M939.9 211.7c-3.2 3.3-4.9 7.3-3.8 8.9a27.9 27.9 0 0 1 1.3 3.7c.2 2 .5 4 .3 4a19 19 0 0 1-1.8 6.7 5.7 5.7 0 0 0-1.3 2.1c-.9 1-2.8 2.2-4.1 3.3s-5.7 3.5-8.4 5.1l-23.9 14.1L751 346.2c-12.1 7-25.1 15.1-36.3 21.1a13.8 13.8 0 0 1-13.1-.1c-4.2-2.5-7.1-5-7.9-11.8s-.7-16-2.5-23.7a29.2 29.2 0 0 0-14.2-18.3c-7-4.2-15.2-4.1-22.9-3.3s-16.2 2-24.3 3.2l-318.9 45.8-159.1 22.8-35.6 5.1-16.8 2.5c-5.6.7-11.2 2-16.8 1.1-11.3-2-19.3-15.2-14.8-26s9.9-20.4 14.8-30.6l30-60.7 7.9-15.9c2.7-5.6 6-12.1 8.6-18.2a30.2 30.2 0 0 0 1-19.9c-1.8-6.5-5.3-12.4-8.2-18.6l-46.4-94c-3.1-7.1-8-13.7-8.8-21.6a20.1 20.1 0 0 1 11.2-19c7.3-3.9 15.5-.9 23.1-.2l23.2 3.4 217 31.2L561 132l54.9 7.9 27.5 4 14 1.9a33.3 33.3 0 0 0 18.3-3.3c5.3-2.9 10.6-7.5 13-12.5s2.9-7.7 3-11.9c-.1-7.6-.5-16.2 5.1-22.2a19.3 19.3 0 0 1 21.3-5.7c7.2 3 13.6 7.7 20.5 11.4l180.1 106c3 1.8 7.3 0 9.7-3.9 3.1-2.1 2.5-6.8-1.3-10.5L741.5 84c-9.3-5-18-10.4-27.3-13.2s-21 .5-27.9 8-8 17.6-8.9 27.3a62.7 62.7 0 0 1-3.2 14.8c-.8 3.9-3.7 5-6.2 6.7a16.2 16.2 0 0 1-8.7 1.6l-13.5-1.9-27.5-3.9-54.9-7.9-219.8-31.6L121.2 52c-10.5-1.6-21.2-3.1-31-3.7S70.8 45.6 61.8 51 47.1 65.7 47.1 75.5s5 18.2 8.4 27.5 8.8 18.9 13.5 28.5l13.2 26.7 24.6 49.6c2.1 4.6 4.7 8.9 6.3 13.7a20.2 20.2 0 0 1-.8 14.7l-14.7 29.7-33 66.8c-7 14-12.9 27.3-16.8 40.2s6 30 19.7 33.6c6.8 1.7 13.6.8 20.8.5s14.6-1.3 22.1-2.2l43.8-6.3 159.1-22.9L630.7 330l18.1-2.6c5.9-1.1 12.4-1.6 17.8 1.5a20.3 20.3 0 0 1 10.1 14.5c.9 6-.4 12.2.9 18.2 1.8 7.8 8.5 17.1 17.2 20.9s19.6 4.3 28-.5c13.3-7.4 25-14.6 37.5-21.9l148.2-87.2 22.3-13.1c3.6-2.3 5.6-3 10.4-6.5 1.5-1.3 2.7-1.8 4.5-3.9a44.9 44.9 0 0 0 5-6.7l2.8-7c.4-2.4.7-4.9 1-7.4.2 0-.3-3.9-.8-7.9a44.1 44.1 0 0 0-2.8-7.4 6.8 6.8 0 0 0-11-1.3z" fill="#e0cbcc"></path><path d="M940.4 212.3c-3.3 3.1-4.9 6.7-3.9 8.3.3-.2 2.3 7.6 1.6 7.7a19.6 19.6 0 0 1-1.9 6.9 8.3 8.3 0 0 0-1.4 2.2c-1 1-2.8 2.2-4.1 3.4s-5.8 3.4-8.5 5.1l-24 14.1-147.1 86.6c-12.1 7-25.1 15.1-36.3 21.1-8.5 4.3-20.1-.5-21.5-12.2-1.4-8.2-.7-16-2.4-23.6a29.2 29.2 0 0 0-14.1-18.2c-7.1-4.1-15.2-4.1-22.9-3.2s-16 1.9-24.1 3.1L311 359.4l-159.1 22.9-35.8 5.1-17 2.5c-5.6.7-11.3 2.1-16.9 1.1-11.4-2-19.5-15.3-14.9-26.2s10-20.5 14.9-30.8l30-60.8 7.9-16c2.8-5.6 6.1-12 8.6-18.1a30.3 30.3 0 0 0 1.1-19.7c-1.9-6.5-5.4-12.4-8.2-18.5L75 106.6c-3.1-7.1-8.1-13.8-8.8-21.7a20.5 20.5 0 0 1 11.3-19.3c7.3-3.9 15.6-.8 23.2-.1l23.5 3.4 217.1 31.2 219.8 31.6 54.9 7.8 27.5 4 13.9 1.9a32.4 32.4 0 0 0 18.1-3.2c5.2-2.9 10.5-7.5 12.9-12.4s2.9-7.8 3-12c-.1-7.7-.6-16.3 5.1-22.4a19.6 19.6 0 0 1 21.5-5.7c7.3 3 13.7 7.7 20.6 11.5l180.1 106c2.7 1.6 6.7-.2 9-3.9 3-1.7 2.6-6.1-.9-9.8L741.5 84.4c-9.3-5-17.9-10.4-27.2-13.2s-20.9.5-27.8 7.9-7.9 17.6-8.7 27.2a57.2 57.2 0 0 1-3.2 14.8c-.9 3.9-3.9 5.1-6.4 6.9a16.9 16.9 0 0 1-8.9 1.6l-13.6-1.9-27.4-3.9-55-7.9-219.7-31.6-222.3-31.9c-10.5-1.6-21.1-3-30.9-3.7s-19.3-2.8-28.3 2.5a29.2 29.2 0 0 0-14.7 24.5c.1 9.6 5.2 18.1 8.5 27.3s8.8 18.9 13.5 28.4L82.6 158l24.5 49.6c2.1 4.6 4.8 9 6.5 13.8a20.5 20.5 0 0 1-.9 14.8L98 266.1l-33 66.6c-6.9 13.9-12.8 27.2-16.8 40.1s5.9 29.9 19.6 33.4c6.8 1.7 13.6.8 20.7.4s14.6-1.4 22-2.3l43.7-6.2 159-22.9 317.5-45.6 18.2-2.6c6-1.1 12.5-1.7 18 1.5a20.3 20.3 0 0 1 10.1 14.6c1 6.1-.4 12.3 1 18.4 1.8 7.7 8.4 16.9 17 20.6s19.3 4.3 27.6-.5c13.3-7.3 25-14.5 37.5-21.8l148.2-87.2 22.3-13.2c3.5-2.2 5.7-2.9 10.3-6.4 1.5-1.3 2.8-1.8 4.5-3.9a52.1 52.1 0 0 0 5-6.6l2.7-6.9c.5-2.4.7-4.9 1-7.3.2 0-.3-3.8-.8-7.7a53.2 53.2 0 0 0-2.6-7.2c-2.1-3.9-7.2-4.1-10.3-1.1z" fill="#e8ddd2"></path><path d="M940.8 212.9c-3.2 2.8-4.7 6-4 7.6.4-.1 2.4 7.8 1.6 7.9a16.6 16.6 0 0 1-1.9 7 9.1 9.1 0 0 0-1.5 2.3 37 37 0 0 1-4.1 3.4c-1.2 1-5.8 3.5-8.5 5.1l-24.2 14.2-147 86.6c-12.1 6.9-25.1 15.1-36.3 21-8.7 4.4-20.6-.5-22-12.4-1.4-8.2-.6-15.9-2.4-23.5a28.6 28.6 0 0 0-14-18.1c-7-4.1-15-4-22.7-3.1s-15.9 1.9-24 3.1L311 359.8l-159.1 22.9-35.9 5.1-17.1 2.5c-5.7.7-11.5 2.1-17.1 1.2-11.5-2-19.6-15.5-15-26.4s10-20.8 15-31.2l30.1-60.9 7.9-16c2.7-5.5 6-11.9 8.6-18a29.3 29.3 0 0 0 1-19.6c-1.9-6.4-5.3-12.3-8.2-18.4l-46.7-94.5c-3.1-7.2-8.1-13.9-8.8-21.9A20.4 20.4 0 0 1 77 65.2c7.4-3.9 15.7-.8 23.5-.1l23.6 3.4 217.2 31.2 219.8 31.6 54.9 7.9 27.5 3.9 13.9 2a32.6 32.6 0 0 0 17.9-3.3c5.2-2.8 10.4-7.3 12.8-12.2s2.9-7.8 3-12c-.1-7.8-.6-16.5 5.1-22.6a19.8 19.8 0 0 1 21.7-5.8c7.3 3.1 13.8 7.8 20.8 11.6l180 106c2.4 1.4 6.1-.3 8.3-3.9 3-1.3 2.8-5.4-.6-9.2l-185-108.9c-9.2-4.9-17.8-10.3-27.1-13.2s-20.7.4-27.5 7.9-7.9 17.6-8.7 27.1a49.3 49.3 0 0 1-3.2 14.7c-.9 4-3.9 5.2-6.5 7.1a18 18 0 0 1-9.2 1.6l-13.5-1.9-27.5-3.9-54.9-7.9-219.8-31.6-222.2-31.9c-10.3-1.6-20.9-3-30.6-3.7s-19.3-2.9-28.3 2.4-14.6 14.6-14.6 24.3 5.2 18.1 8.6 27.3 8.7 18.8 13.4 28.2L83 157.8l24.5 49.6c2.1 4.7 4.8 9.1 6.5 14a20.8 20.8 0 0 1-.9 14.9l-14.8 30-32.8 66.4c-6.9 13.9-12.9 27-16.9 39.9s5.8 29.9 19.5 33.3c6.7 1.7 13.6.7 20.7.3s14.5-1.4 21.8-2.3l43.5-6.2 159.1-22.9 317.5-45.6 18.4-2.6c6-1.2 12.6-1.7 18.1 1.5a20.6 20.6 0 0 1 10.2 14.7c1 6.2-.4 12.4 1 18.5 1.7 7.8 8.3 16.8 16.8 20.4s19 4.3 27.2-.4c13.3-7.4 25-14.6 37.5-21.9l148.2-87.2 22.3-13.1c3.5-2.2 5.7-3 10.3-6.4a35.3 35.3 0 0 0 4.5-3.9 49.5 49.5 0 0 0 4.8-6.5l2.7-6.8c.5-2.4.7-4.8 1-7.2.2 0-.3-3.8-.8-7.5a47.2 47.2 0 0 0-2.5-7.1c-1.7-3.4-6.5-3.5-9.6-.8z" fill="#f1efd9"></path></g></g></svg>