<svg xmlns="http://www.w3.org/2000/svg" width="1002.8" height="873.4" viewBox="0 0 1002.7999877929688 873.3699951171875" style=""><g><title>emoji120_99606890</title><g data-name="Layer 2"><path fill="#ffef00" d="M0 0h1002.8v873.37H0z"></path><path fill="#f4a582" d="M711.6 549.9H841v64.69H711.6z"></path><path fill="#f4a582" d="M161.7 549.9h129.4v64.69H161.7z"></path><path d="M549.9 485.2h32.3v64.69h-32.3z"></path><path d="M452.9 549.9h97v32.35h-97z"></path><path d="M420.5 485.2h32.3v64.69h-32.3z"></path><path d="M873.4 323.5H97v97h32.4v64.7h32.3v32.4h32.4v32.3h161.7v-32.3h32.4v-32.4h32.3v-64.7h32.4v-64.7h97v64.7h32.3v64.7h32.4v32.4h32.3v32.3h161.8v-32.3H841v-32.4h32.4v-64.7h32.3v-97h-32.3z"></path><g fill="#fff"><path d="M291.1 355.8v32.4h-32.3v32.3h-32.4v32.4h-32.3v64.7h64.7v-32.4h32.3v-32.3h32.4v-32.4h32.3v-32.3h32.4v-32.4h-97.1z"></path><path d="M841 355.8h-97v32.4h-32.4v32.3h-32.3v32.4h-32.4v64.7h64.7v-32.4H744v-32.3h32.3v-32.4h32.4v-32.3H841v-32.4z"></path></g></g></g></svg>