<svg xmlns="http://www.w3.org/2000/svg" width="691.7" height="1080" viewBox="0.023185687139630318 0 691.6795043945312 1080.0001220703125" style=""><g><title>hlwnlic39_81386072</title><g data-name="Layer 2"><path d="M680.6 966.5l.6-.3-228.1-394.9V35.6h27.5a17.8 17.8 0 0 0 0-35.6H211.1a17.8 17.8 0 1 0 0 35.6h27.5v535.8L8.8 969.2l.5.3A74.5 74.5 0 0 0 73.9 1080h543.3a74.4 74.4 0 0 0 63.4-113.5z" fill="#1357bd"></path><path d="M73.9 1080h543.3a74.4 74.4 0 0 0 63.4-113.5l.6-.3-83.8-145.1a182.9 182.9 0 0 0-91.6-24.9h-3.9a183.7 183.7 0 0 0-128 50.6l-1.1.9a184 184 0 0 1-124.1 47.1H247a183.7 183.7 0 0 1-123.6-48.3l-1.1-.9a185.8 185.8 0 0 0-28.9-22.8L8.8 969.2l.5.3A74.5 74.5 0 0 0 73.9 1080z" fill="#d94631"></path><path d="M347.9 576.2a24.3 24.3 0 1 0-24.3 24.3 24.3 24.3 0 0 0 24.3-24.3z" fill="#d94631"></path><path d="M432.6 636.6a40.8 40.8 0 1 0-40.7 40.7 40.7 40.7 0 0 0 40.7-40.7z" fill="#d94631"></path><path d="M380.1 752.2a67 67 0 1 0-67 67 67 67 0 0 0 67-67z" fill="#d94631"></path></g></g></svg>