<svg xmlns="http://www.w3.org/2000/svg" width="829.2" height="1062.7" viewBox="-0.0000021472055777849164 -0.000002053167008853052 829.2999877929688 1062.800048828125" style=""><g><title>banner167_212961928</title><g fill="#fe92fe" data-name="Layer 2"><path d="M363 2.8a1 1 0 0 0 1-.9 1 1 0 0 0-1-1 .9.9 0 0 0-.9 1 .9.9 0 0 0 .9.9z"></path><path d="M388.8 2.8a1 1 0 0 0 1-.9 1 1 0 0 0-1-1 .9.9 0 0 0-.9 1 .9.9 0 0 0 .9.9z"></path><path d="M414.6 3.7a1.9 1.9 0 0 0 1.9-1.8 1.9 1.9 0 0 0-1.9-1.9 1.8 1.8 0 0 0-1.8 1.9 1.8 1.8 0 0 0 1.8 1.8z"></path><path d="M440.4 2.8a.9.9 0 0 0 .9-.9.9.9 0 1 0-1.8 0 .9.9 0 0 0 .9.9z"></path><path d="M466.4 1.9c0-.2-.1-.3-.2-.3s-.2.1-.2.3a.2.2 0 1 0 .4 0z"></path><path d="M492.2 1.9a.2.2 0 0 0-.2-.2c-.1 0-.1.1-.1.2a.1.1 0 0 0 .1.1z"></path><path d="M363 30.8a3.2 3.2 0 1 0-3.1-3.1 3.1 3.1 0 0 0 3.1 3.1z"></path><path d="M388.8 32.6a5 5 0 1 0 0-9.9 5 5 0 0 0 0 9.9z"></path><circle cx="414.6" cy="27.7" r="5.6"></circle><path d="M440.4 33.1a5.5 5.5 0 0 0 5.5-5.4 5.5 5.5 0 0 0-5.5-5.5 5.5 5.5 0 0 0-5.4 5.5 5.4 5.4 0 0 0 5.4 5.4z"></path><path d="M466.2 29.5a1.9 1.9 0 1 0 0-3.7 1.8 1.8 0 0 0-1.8 1.9 1.8 1.8 0 0 0 1.8 1.8z"></path><path d="M492.3 27.7a.3.3 0 0 0-.3-.3.3.3 0 0 0-.3.3c0 .1.2.2.3.2s.3-.1.3-.2z"></path><path d="M337.2 56.5a3 3 0 0 0 3-3 2.9 2.9 0 0 0-3-3 3 3 0 0 0-3 3 3.1 3.1 0 0 0 3 3z"></path><path d="M363 56.6a3.2 3.2 0 1 0-3.1-3.1 3.1 3.1 0 0 0 3.1 3.1z"></path><path d="M388.8 62.3a8.8 8.8 0 1 0-8.8-8.8 8.8 8.8 0 0 0 8.8 8.8z"></path><path d="M414.6 63.4a10 10 0 1 0-9.9-9.9 10 10 0 0 0 9.9 9.9z"></path><path d="M440.4 60.3a6.9 6.9 0 1 0-6.8-6.8 6.8 6.8 0 0 0 6.8 6.8z"></path><path d="M466.2 60.3a6.9 6.9 0 1 0-6.9-6.8 6.9 6.9 0 0 0 6.9 6.8z"></path><path d="M492 56.2a2.8 2.8 0 1 0 0-5.5 2.8 2.8 0 1 0 0 5.5z"></path><path d="M517.8 54.6a1.2 1.2 0 0 0 1.2-1.1 1.2 1.2 0 0 0-1.2-1.2 1.1 1.1 0 0 0-1.1 1.2 1.1 1.1 0 0 0 1.1 1.1z"></path><path d="M311.4 80.2a1 1 0 0 0 1-.9 1 1 0 0 0-1-1 .9.9 0 0 0-.9 1 .9.9 0 0 0 .9.9z"></path><circle cx="337.2" cy="79.3" r="5.6"></circle><path d="M363 88.1a8.8 8.8 0 1 0-8.8-8.8 8.8 8.8 0 0 0 8.8 8.8z"></path><path d="M466.2 88.1a8.9 8.9 0 1 0-8.9-8.8 8.8 8.8 0 0 0 8.9 8.8z"></path><path d="M492 85a5.8 5.8 0 0 0 0-11.5 5.8 5.8 0 0 0 0 11.5z"></path><path d="M517.8 82a2.7 2.7 0 0 0 2.7-2.7 2.7 2.7 0 1 0-5.4 0 2.7 2.7 0 0 0 2.7 2.7z"></path><path d="M285.6 105.6a.5.5 0 0 0 .5-.5.6.6 0 0 0-.5-.6.6.6 0 0 0 0 1.1z"></path><path d="M311.4 108.2a3.2 3.2 0 1 0-3.1-3.1 3.1 3.1 0 0 0 3.1 3.1z"></path><path d="M337.2 113.3a8.3 8.3 0 1 0-8.2-8.2 8.3 8.3 0 0 0 8.2 8.2z"></path><path d="M492 113.8a8.8 8.8 0 1 0-8.8-8.7 8.7 8.7 0 0 0 8.8 8.7z"></path><path d="M517.8 108.2a3.2 3.2 0 1 0 0-6.3 3.2 3.2 0 0 0 0 6.3z"></path><path d="M543.6 106a.9.9 0 0 0 .9-.9.9.9 0 1 0-1.8 0 .9.9 0 0 0 .9.9z"></path><path d="M569.5 105.1c0-.1 0-.2-.1-.2s-.1.1-.1.2a.1.1 0 0 0 .2 0z"></path><path d="M259.8 131.8a1 1 0 0 0 1-1 1 1 0 0 0-1-.9.9.9 0 0 0-.9.9.9.9 0 0 0 .9 1z"></path><path d="M285.6 134.2a3.4 3.4 0 1 0 0-6.7 3.4 3.4 0 0 0 0 6.7z"></path><path d="M311.4 138.1a7.3 7.3 0 1 0-7.3-7.3 7.2 7.2 0 0 0 7.3 7.3z"></path><path d="M517.8 138.5a7.7 7.7 0 1 0 0-15.3 7.7 7.7 0 0 0 0 15.3z"></path><path d="M543.6 134.9a4.1 4.1 0 1 0 0-8.1 4.1 4.1 0 1 0 0 8.1z"></path><path d="M569.4 132a1.2 1.2 0 0 0 1.2-1.2 1.2 1.2 0 0 0-1.2-1.1 1.1 1.1 0 0 0-1.1 1.1 1.1 1.1 0 0 0 1.1 1.2z"></path><path d="M234 157.6a.9.9 0 0 0 1-1 .9.9 0 0 0-1-.9.9.9 0 0 0-.9.9.9.9 0 0 0 .9 1z"></path><path d="M259.8 159.8a3.2 3.2 0 1 0 0-6.3 3.2 3.2 0 0 0 0 6.3z"></path><path d="M285.6 162.7a6.1 6.1 0 1 0-6-6.1 6.1 6.1 0 0 0 6 6.1z"></path><path d="M311.4 166.6a10 10 0 1 0 0-19.9 10 10 0 0 0 0 19.9z"></path><path d="M517.8 166.9a10.3 10.3 0 1 0-10.2-10.3 10.2 10.2 0 0 0 10.2 10.3z"></path><circle cx="543.6" cy="156.6" r="6.9"></circle><path d="M569.4 159.8a3.2 3.2 0 1 0 0-6.3 3.2 3.2 0 0 0 0 6.3z"></path><path d="M595.2 157.6a.9.9 0 0 0 .9-1 .9.9 0 1 0-1.8 0 .9.9 0 0 0 .9 1z"></path><path d="M208.2 182.9a.5.5 0 0 0 .5-.5.5.5 0 0 0-.5-.4.4.4 0 0 0-.4.4.5.5 0 0 0 .4.5z"></path><circle cx="234" cy="182.4" r="2.3"></circle><circle cx="259.8" cy="182.4" r="5.6"></circle><path d="M285.6 191.2a8.8 8.8 0 0 0 0-17.6 8.8 8.8 0 0 0 0 17.6z"></path><path d="M543.6 191.5a9.1 9.1 0 1 0-9.1-9.1 9.1 9.1 0 0 0 9.1 9.1z"></path><path d="M569.4 188.2a5.8 5.8 0 1 0-5.8-5.8 5.8 5.8 0 0 0 5.8 5.8z"></path><path d="M595.2 185.2a2.8 2.8 0 0 0 2.7-2.8 2.7 2.7 0 1 0-5.4 0 2.8 2.8 0 0 0 2.7 2.8z"></path><path d="M621 183a.6.6 0 0 0 .6-.6.6.6 0 0 0-1.2 0 .6.6 0 0 0 .6.6z"></path><path d="M182.7 208.2c0-.1-.1-.2-.3-.2l-.2.2c0 .2.1.3.2.3a.3.3 0 0 0 .3-.3z"></path><circle cx="208.2" cy="208.2" r="1.9"></circle><path d="M234 212.6a4.4 4.4 0 1 0 0-8.7 4.4 4.4 0 0 0 0 8.7z"></path><path d="M259.8 216.5a8.3 8.3 0 1 0-8.2-8.3 8.3 8.3 0 0 0 8.2 8.3z"></path><path d="M569.4 217a8.8 8.8 0 1 0-8.8-8.8 8.7 8.7 0 0 0 8.8 8.8z"></path><path d="M595.2 213.2a5 5 0 1 0-4.9-5 4.9 4.9 0 0 0 4.9 5z"></path><path d="M621 210.1a1.9 1.9 0 1 0-1.9-1.9 1.9 1.9 0 0 0 1.9 1.9z"></path><circle cx="182.4" cy="234" r="1"></circle><path d="M208.2 237.3a3.2 3.2 0 0 0 3.3-3.3 3.3 3.3 0 0 0-3.3-3.3 3.3 3.3 0 0 0-3.3 3.3 3.3 3.3 0 0 0 3.3 3.3z"></path><path d="M234 241.1a7.1 7.1 0 0 0 7.1-7.1 7 7 0 0 0-7.1-7 7 7 0 0 0-7 7 7 7 0 0 0 7 7.1z"></path><path d="M595.2 241.6a7.6 7.6 0 0 0 7.6-7.6 7.6 7.6 0 0 0-15.2 0 7.6 7.6 0 0 0 7.6 7.6z"></path><path d="M621 238a4 4 0 1 0-3.9-4 3.9 3.9 0 0 0 3.9 4z"></path><path d="M156.6 260.8a1 1 0 0 0 1-1 .9.9 0 0 0-1-.9.9.9 0 0 0-.9.9 1 1 0 0 0 .9 1z"></path><path d="M182.4 262.6a2.7 2.7 0 0 0 2.8-2.8 2.8 2.8 0 1 0-5.5 0 2.7 2.7 0 0 0 2.7 2.8z"></path><path d="M208.2 265.9a6.1 6.1 0 1 0-6-6.1 6.1 6.1 0 0 0 6 6.1z"></path><path d="M234 269.8a10 10 0 1 0 0-19.9 10 10 0 0 0 0 19.9z"></path><path d="M595.2 270.4a10.6 10.6 0 0 0 0-21.2 10.6 10.6 0 0 0 0 21.2z"></path><path d="M621 266.7a6.9 6.9 0 0 0 6.9-6.9 6.9 6.9 0 0 0-13.8 0 6.9 6.9 0 0 0 6.9 6.9z"></path><path d="M646.8 263.1a3.3 3.3 0 1 0-3.2-3.3 3.2 3.2 0 0 0 3.2 3.3z"></path><path d="M672.6 260.8a1 1 0 0 0 1-1 1.1 1.1 0 0 0-1-1 1 1 0 0 0-1 1 .9.9 0 0 0 1 1z"></path><path d="M156.6 288.1a2.5 2.5 0 0 0 2.5-2.5 2.5 2.5 0 0 0-2.5-2.5 2.6 2.6 0 0 0-2.5 2.5 2.5 2.5 0 0 0 2.5 2.5z"></path><circle cx="182.4" cy="285.6" r="5.6"></circle><path d="M208.2 294.9a9.3 9.3 0 1 0 0-18.6 9.3 9.3 0 0 0 0 18.6z"></path><path d="M621 295.1a9.5 9.5 0 1 0-9.4-9.5 9.5 9.5 0 0 0 9.4 9.5z"></path><path d="M646.8 291.3a5.7 5.7 0 0 0 0-11.3 5.7 5.7 0 1 0 0 11.3z"></path><path d="M672.6 288.2a2.6 2.6 0 1 0-2.6-2.6 2.6 2.6 0 0 0 2.6 2.6z"></path><path d="M698.6 285.6a.2.2 0 1 0-.4 0c0 .2.1.2.2.2s.2 0 .2-.2z"></path><path d="M130.8 313.3a1.8 1.8 0 0 0 1.9-1.9 1.8 1.8 0 0 0-1.9-1.8 1.8 1.8 0 0 0-1.8 1.8 1.8 1.8 0 0 0 1.8 1.9z"></path><path d="M156.6 316.1a4.7 4.7 0 1 0-4.6-4.7 4.7 4.7 0 0 0 4.6 4.7z"></path><path d="M182.4 319.7a8.3 8.3 0 1 0-8.2-8.3 8.3 8.3 0 0 0 8.2 8.3z"></path><path d="M646.8 320.2a8.8 8.8 0 1 0-8.8-8.8 8.7 8.7 0 0 0 8.8 8.8z"></path><path d="M672.6 316.4a5 5 0 0 0 5-5 5 5 0 0 0-10 0 5 5 0 0 0 5 5z"></path><path d="M698.4 313.5a2.1 2.1 0 1 0 0-4.1 2 2 0 0 0-2.1 2 2.1 2.1 0 0 0 2.1 2.1z"></path><path d="M724.5 311.4a.3.3 0 0 0-.3-.3c-.2 0-.4.1-.4.3a.4.4 0 0 0 .4.4c.2 0 .3-.2.3-.4z"></path><path d="M105 338.2a1 1 0 0 0 1-1 .9.9 0 0 0-1-.9.9.9 0 0 0-.9.9 1 1 0 0 0 .9 1z"></path><path d="M130.8 340.9a3.7 3.7 0 0 0 3.7-3.7 3.7 3.7 0 0 0-7.3 0 3.7 3.7 0 0 0 3.6 3.7z"></path><path d="M156.6 344.6a7.4 7.4 0 1 0-7.3-7.4 7.4 7.4 0 0 0 7.3 7.4z"></path><path d="M672.6 345a7.8 7.8 0 1 0-7.8-7.8 7.8 7.8 0 0 0 7.8 7.8z"></path><path d="M698.4 341.2a4 4 0 1 0-3.9-4 3.9 3.9 0 0 0 3.9 4z"></path><path d="M724.2 338.5a1.3 1.3 0 1 0-1.3-1.3 1.3 1.3 0 0 0 1.3 1.3z"></path><path d="M79.3 364a1 1 0 0 0 .9-1 .9.9 0 0 0-.9-.9.9.9 0 0 0-1 .9 1 1 0 0 0 1 1z"></path><path d="M105 366a3 3 0 0 0 3.1-3 3.1 3.1 0 0 0-6.1 0 3 3 0 0 0 3 3z"></path><path d="M130.8 369.4a6.4 6.4 0 0 0 6.4-6.4 6.4 6.4 0 1 0-6.4 6.4z"></path><path d="M156.6 373.3a10.3 10.3 0 1 0-10.3-10.3 10.3 10.3 0 0 0 10.3 10.3z"></path><path d="M672.6 373.8a10.8 10.8 0 1 0-10.8-10.8 10.8 10.8 0 0 0 10.8 10.8z"></path><path d="M698.4 369.9a6.9 6.9 0 0 0 6.9-6.9 6.9 6.9 0 0 0-13.8 0 6.9 6.9 0 0 0 6.9 6.9z"></path><path d="M724.2 366.2a3.2 3.2 0 0 0 0-6.3 3.2 3.2 0 1 0 0 6.3z"></path><path d="M750 364a1 1 0 0 0 .9-1 .9.9 0 0 0-1.8 0 1 1 0 0 0 .9 1z"></path><path d="M53.7 388.8a.2.2 0 0 0-.2-.2c-.2 0-.3.1-.3.2s.1.2.3.2a.2.2 0 0 0 .2-.2z"></path><path d="M79.3 390.9a2 2 0 0 0 2-2.1 2.1 2.1 0 1 0-4.1 0 2.1 2.1 0 0 0 2.1 2.1z"></path><circle cx="105" cy="388.8" r="5.6"></circle><path d="M130.8 397.9a9.1 9.1 0 1 0-9-9.1 9.1 9.1 0 0 0 9 9.1z"></path><path d="M698.4 398.6a9.8 9.8 0 1 0-9.7-9.8 9.7 9.7 0 0 0 9.7 9.8z"></path><path d="M724.2 394.7a5.9 5.9 0 1 0-5.9-5.9 5.9 5.9 0 0 0 5.9 5.9z"></path><path d="M750 391.5a2.7 2.7 0 1 0-2.7-2.7 2.7 2.7 0 0 0 2.7 2.7z"></path><path d="M775.8 389.5a.7.7 0 0 0 .6-.7.6.6 0 0 0-.6-.6.7.7 0 0 0-.7.6.7.7 0 0 0 .7.7z"></path><path d="M27.8 414.6a.1.1 0 0 0-.1-.1c-.1 0-.2 0-.2.1l.2.2z"></path><path d="M53.5 416.5a1.9 1.9 0 0 0 1.8-1.9 1.8 1.8 0 0 0-1.8-1.8 1.8 1.8 0 0 0-1.9 1.8 1.9 1.9 0 0 0 1.9 1.9z"></path><path d="M79.3 418.8a4.2 4.2 0 0 0 4.2-4.2 4.3 4.3 0 1 0-4.2 4.2z"></path><path d="M105 423a8.4 8.4 0 0 0 8.4-8.4 8.4 8.4 0 1 0-8.4 8.4z"></path><path d="M724.2 423.4a8.8 8.8 0 1 0-8.8-8.8 8.7 8.7 0 0 0 8.8 8.8z"></path><path d="M750 419.6a5 5 0 0 0 4.9-5 4.9 4.9 0 1 0-9.8 0 5 5 0 0 0 4.9 5z"></path><path d="M775.8 416.5a1.9 1.9 0 0 0 1.8-1.9 1.8 1.8 0 0 0-1.8-1.8 1.9 1.9 0 0 0-1.9 1.8 2 2 0 0 0 1.9 1.9z"></path><path d="M27.7 441.4a1 1 0 0 0 1-1 1.1 1.1 0 0 0-1-1 1 1 0 0 0-1 1 .9.9 0 0 0 1 1z"></path><path d="M53.5 443.6a3.2 3.2 0 1 0-3.3-3.2 3.2 3.2 0 0 0 3.3 3.2z"></path><path d="M79.3 447.4a7 7 0 1 0-7.1-7 7 7 0 0 0 7.1 7z"></path><path d="M750 448a7.6 7.6 0 1 0-7.6-7.6 7.6 7.6 0 0 0 7.6 7.6z"></path><path d="M775.8 444.4a3.9 3.9 0 0 0 3.9-4 3.9 3.9 0 0 0-7.8 0 3.9 3.9 0 0 0 3.9 4z"></path><path d="M801.6 441.3a.9.9 0 1 0-.9-.9.9.9 0 0 0 .9.9z"></path><path d="M1.9 466.9a.7.7 0 1 0 0-1.4.7.7 0 1 0 0 1.4z"></path><circle cx="27.7" cy="466.2" r="2.6"></circle><path d="M53.5 472.3a6 6 0 0 0 6-6.1 6.1 6.1 0 1 0-6 6.1z"></path><path d="M79.3 476.2a10 10 0 1 0-10-10 10 10 0 0 0 10 10z"></path><path d="M750 476.2a10 10 0 1 0-10-10 9.9 9.9 0 0 0 10 10z"></path><path d="M775.8 462.6a3.7 3.7 0 0 0-3.7 3.6 3.8 3.8 0 0 0 3.7 3.7 3.7 3.7 0 0 0 3.6-3.7 3.6 3.6 0 0 0-3.6-3.6z"></path><path d="M801.6 469.4a3.2 3.2 0 1 0-3.2-3.2 3.2 3.2 0 0 0 3.2 3.2z"></path><path d="M827.4 467.1a.9.9 0 1 0-.9-.9.9.9 0 0 0 .9.9z"></path><path d="M1.9 492.9a.9.9 0 1 0 0-1.8.9.9 0 1 0 0 1.8z"></path><path d="M27.7 495.2a3.2 3.2 0 1 0-3.2-3.2 3.1 3.1 0 0 0 3.2 3.2z"></path><path d="M53.5 499.6a7.6 7.6 0 1 0-7.6-7.6 7.6 7.6 0 0 0 7.6 7.6z"></path><path d="M775.8 501.1a9.1 9.1 0 1 0-9.1-9.1 9.1 9.1 0 0 0 9.1 9.1z"></path><path d="M801.6 489.2a2.8 2.8 0 0 0-2.8 2.8 2.7 2.7 0 0 0 2.8 2.8 2.8 2.8 0 0 0 2.8-2.8 2.9 2.9 0 0 0-2.8-2.8z"></path><path d="M827.4 493.2a1.2 1.2 0 0 0 1.1-1.2 1.1 1.1 0 0 0-1.1-1.1 1.1 1.1 0 0 0-1.2 1.1 1.2 1.2 0 0 0 1.2 1.2z"></path><path d="M1.9 516a1.8 1.8 0 0 0-1.9 1.8 1.9 1.9 0 0 0 1.9 1.9 1.9 1.9 0 0 0 1.8-1.9 1.8 1.8 0 0 0-1.8-1.8z"></path><circle cx="27.7" cy="517.8" r="5.6"></circle><circle cx="53.5" cy="517.8" r="9.9"></circle><path d="M775.8 506.5a11.3 11.3 0 0 0-11.1 9.4 14.8 14.8 0 0 0-10.9-12.4 12.1 12.1 0 1 0-13.8-18.4 16.5 16.5 0 0 0-6.3-7.5 14.8 14.8 0 0 0-6.4-25.9 11.7 11.7 0 1 0-14.4-14.4 14.7 14.7 0 0 0-9.8-10.9 12.8 12.8 0 0 0 8-11.8 12.6 12.6 0 0 0-12.7-12.6 12.5 12.5 0 0 0-11 6.5 15.4 15.4 0 0 0-7.1-7.8 14.1 14.1 0 0 0-7.7-26 14.1 14.1 0 0 0-11.1 5.4 15.8 15.8 0 0 0-5.3-5.6 14.8 14.8 0 0 0-6.3-26 11.7 11.7 0 0 0-3.1-23 11.8 11.8 0 0 0-10.9 7.3 15.7 15.7 0 0 0-8.6-9.9 13 13 0 0 0 6.9-11.5 13.2 13.2 0 0 0-24.5-6.7 15.3 15.3 0 0 0-6.8-7.2 14.1 14.1 0 0 0-7.7-26 14.1 14.1 0 0 0-11.1 5.4 16.7 16.7 0 0 0-5.3-5.6 14.8 14.8 0 0 0-5.6-25.8 12.1 12.1 0 1 0-15-16.1 15.2 15.2 0 0 0-8.9-9.6 13 13 0 0 0 7.2-11.6 12.9 12.9 0 0 0-23.8-6.8 16.2 16.2 0 0 0-6.8-7.4 14 14 0 0 0 6.1-11.6 14.2 14.2 0 0 0-25.3-8.7 16.7 16.7 0 0 0-5.3-5.6 14.8 14.8 0 0 0-6-25.9A11.8 11.8 0 0 0 492 119a11.8 11.8 0 0 0-11.3 8.4 14.8 14.8 0 0 0-9.7-10.6 12.7 12.7 0 1 0-15.7-18.1 16 16 0 0 0-9.8-8.9 11.7 11.7 0 1 0-10.2 0 16.7 16.7 0 0 0-7.4 5.1 17.5 17.5 0 0 0-5.7-4.7 13.2 13.2 0 0 0 5.8-10.9 13.4 13.4 0 0 0-26.3-3.4 13.4 13.4 0 1 0-16.2 16.3 13.2 13.2 0 0 0-9.9 11.7 12.6 12.6 0 1 0-17.3 12.9 14.8 14.8 0 0 0-9.8 10.9 11.7 11.7 0 0 0-23 3.1 11.6 11.6 0 0 0 11.2 11.7 14.2 14.2 0 0 0-7.2 26 16.2 16.2 0 0 0-6.7 7 13.3 13.3 0 1 0-18.3 18.3 16.8 16.8 0 0 0-7.9 8.3 12.4 12.4 0 0 0-11-6.5 12.5 12.5 0 0 0-12.6 12.6 12.7 12.7 0 0 0 7.9 11.8 14.6 14.6 0 0 0-9.8 11 11.8 11.8 0 0 0-11.3-8.6 11.7 11.7 0 0 0-2.2 23.1 14.6 14.6 0 0 0-12.4 14.3 14.2 14.2 0 0 0 5.9 11.6 16.8 16.8 0 0 0-6.1 6.6 13.3 13.3 0 1 0-17.9 19 16.4 16.4 0 0 0-7.9 8.3 12.4 12.4 0 0 0-11-6.5 12.5 12.5 0 0 0-12.6 12.6 12.8 12.8 0 0 0 7.3 11.5 15.3 15.3 0 0 0-9.6 11 11.4 11.4 0 0 0-10.9-8 11.4 11.4 0 0 0-.1 22.7 14.4 14.4 0 0 0-8.3 26.1 17.1 17.1 0 0 0-6 6.5 13.7 13.7 0 0 0-25 7.6 13.7 13.7 0 0 0 6.4 11.6 16.2 16.2 0 0 0-7.5 8 12.7 12.7 0 0 0-23.8 6.2 13 13 0 0 0 7.6 11.7 15 15 0 0 0-9.7 11.5 11.3 11.3 0 1 0 0 5.2 14.9 14.9 0 0 0 5.1 8.9 16.8 16.8 0 0 0-5.1 5.5 14.1 14.1 0 0 0-25.1 8.8 14.3 14.3 0 0 0 6.3 11.8 15.8 15.8 0 0 0-6.5 6.8 13.6 13.6 0 0 0-25 7.2 13.6 13.6 0 0 0 8.6 12.6 14 14 0 0 0-9.2 13.2 14.3 14.3 0 0 0 7.5 12.5 14.8 14.8 0 0 0-.8 26.2A14.9 14.9 0 0 0 76 584a11.7 11.7 0 1 0 14.5 14.3 14.9 14.9 0 0 0 9.9 11 12.5 12.5 0 0 0-8 11.7 12.6 12.6 0 0 0 23.7 6.1 15.8 15.8 0 0 0 7.2 7.9 14 14 0 1 0 18.6 20.4 16.1 16.1 0 0 0 5.3 5.7 15 15 0 0 0-5.4 11.5 14.8 14.8 0 0 0 11.7 14.5 11.7 11.7 0 0 0 3.1 23 11.7 11.7 0 0 0 10.8-7.1 16.1 16.1 0 0 0 8.6 9.8 13.1 13.1 0 1 0 17.7 18.1 16.7 16.7 0 0 0 7 7.4 13.9 13.9 0 0 0 7.5 25.6 13.7 13.7 0 0 0 11-5.4 17.7 17.7 0 0 0 5.4 5.8 15 15 0 0 0-5.4 11.5 14.8 14.8 0 0 0 11.7 14.5 11.7 11.7 0 0 0 3.1 23 11.6 11.6 0 0 0 11-7.8 15.5 15.5 0 0 0 9 10.3 13 13 0 1 0 16.8 18.6 16.3 16.3 0 0 0 7.2 7.5 13.6 13.6 0 1 0 18.5 19.5 16.2 16.2 0 0 0 5.5 6.1 14.9 14.9 0 0 0 5.8 25.9 12 12 0 1 0 14.9 15.3 14.8 14.8 0 0 0 9.4 10.2 12.7 12.7 0 1 0 16.1 18.1 16 16 0 0 0 7.6 8 13.5 13.5 0 1 0 19.4 17.2 14.5 14.5 0 0 0 6.3 7.1 14.7 14.7 0 0 0-7.6 12.9 15 15 0 0 0 13 14.7 11.3 11.3 0 1 0 3.8 0 14.7 14.7 0 0 0 10.7-6.9 15.6 15.6 0 0 0 9 6.9 11.9 11.9 0 1 0 8.4 0 15.5 15.5 0 0 0 8.9-6.7 15.1 15.1 0 0 0 10.1 6.8 11.3 11.3 0 1 0 5.2 0 15 15 0 0 0 5.2-27.7 14.6 14.6 0 0 0 5.6-6.2 14.2 14.2 0 0 0 26.6-6.7 14.4 14.4 0 0 0-6.4-11.9 16 16 0 0 0 6.6-7 13.5 13.5 0 0 0 11.4 6.4 13.3 13.3 0 0 0 6.9-24.8 15.7 15.7 0 0 0 7.9-8.5 12.4 12.4 0 0 0 11 6.7 12.5 12.5 0 0 0 4.5-24.2 14.8 14.8 0 0 0 10.2-12.2 11.3 11.3 0 1 0 0-3.8 14.7 14.7 0 0 0-5.3-9.6 15.8 15.8 0 0 0 5.3-5.6 14.2 14.2 0 0 0 25.3-8.7 14.3 14.3 0 0 0-6.5-11.9 15.6 15.6 0 0 0 6.7-7 13.3 13.3 0 1 0 17.9-18.5 15.6 15.6 0 0 0 8.2-9.1 12.2 12.2 0 0 0 23.3-5.1 12 12 0 0 0-8.2-11.5 15 15 0 0 0 10.7-12.4 11.3 11.3 0 1 0 0-3.8 14.7 14.7 0 0 0-5.3-9.6 17.5 17.5 0 0 0 5.2-5.3 14.1 14.1 0 0 0 11.2 5.4 14.3 14.3 0 0 0 8.5-26 16 16 0 0 0 6.2-6.7 13.5 13.5 0 0 0 11.1 5.9 13.4 13.4 0 0 0 6.1-25.3 15.2 15.2 0 0 0 8.5-9.7 11.8 11.8 0 0 0 11.2 7.8 12 12 0 0 0 12-12 11.8 11.8 0 0 0-7.8-11.2 15.1 15.1 0 0 0 10.7-11.5 11.4 11.4 0 1 0 0-6.2 15.5 15.5 0 0 0-5-8.4 16.2 16.2 0 0 0 4.9-5.2 14.3 14.3 0 0 0 25.3-9.1 13.9 13.9 0 0 0-6.2-11.7 16.5 16.5 0 0 0 6.4-6.7 13.5 13.5 0 0 0 24.8-7.4 13.5 13.5 0 0 0-7.6-12.1 14.8 14.8 0 0 0 8.6-10.2 11.9 11.9 0 1 0 14.8-14.8 14.9 14.9 0 0 0 4.2-27.2 15.1 15.1 0 0 0-.1-26.2 14.9 14.9 0 0 0 7.1-10.8 11.3 11.3 0 1 0 11.1-13.2zM740 499a12.4 12.4 0 0 0 6.1 4.5 14.3 14.3 0 0 0-7 4.3 19 19 0 0 0-3-3.3 16.3 16.3 0 0 0 3.9-5.5zm-1.4 60.8a14.8 14.8 0 0 0-2.6-3 19.9 19.9 0 0 0 2.8-3 14.2 14.2 0 0 0 3.5 2.9 13.9 13.9 0 0 0-3.7 3.1zm-25.4 25.3a20.9 20.9 0 0 0-2.4-2.8 7.6 7.6 0 0 0 .9-.9 16.8 16.8 0 0 0 2.9 2.4zm-25.8 52.6a23.3 23.3 0 0 0-2.7-3.5l1.9-2a17 17 0 0 0 3.6 2.9 16.9 16.9 0 0 0-2.8 2.6zm-26.3 25a14.4 14.4 0 0 0-2.2-2.7l1.1-1.1a14.4 14.4 0 0 0 2.7 2.2 12.1 12.1 0 0 0-1.6 1.6zM635.7 688a13.3 13.3 0 0 0-2.1-2.6l.6-.7a14.4 14.4 0 0 0 2.7 2.2zm-25.9 53a21 21 0 0 0-2.6-3.3l1.9-2a18.4 18.4 0 0 0 3.4 2.7 13.3 13.3 0 0 0-2.7 2.6zM584 766.1a16.1 16.1 0 0 0-2.4-2.8l1.3-1.4a21.7 21.7 0 0 0 2.9 2.4zM557.9 791c-.6-.7-1.2-1.5-1.8-2.1l.8-.9 2.2 1.9zm-25.4 53.5a15.2 15.2 0 0 0-2.6-3.5 17.1 17.1 0 0 0 2.2-2.5 12.9 12.9 0 0 0 3.8 2.8 17.2 17.2 0 0 0-3.4 3.2zM506.8 869a27.5 27.5 0 0 0-2.2-2.6l1-1.2a14.9 14.9 0 0 0 2.8 2.3zm-26.5 25c-.5-.6-1-1.3-1.5-1.8l.6-.7 1.8 1.6zm-25.6 25.4a11.5 11.5 0 0 0-1.4-1.7l.3-.4a8.4 8.4 0 0 0 1.8 1.5zm-27 54.7a20.2 20.2 0 0 0-2.6-3.2 19.5 19.5 0 0 0 4.3-4.3 17.6 17.6 0 0 0 3.3 2.7 14.4 14.4 0 0 0-5 4.8zm-28-27.8a3 3 0 0 0-.8-.8 18.6 18.6 0 0 0 2.6-2.3l.4.5a27.5 27.5 0 0 0-2.2 2.6zm-77-77l-1.9-1.8a14.2 14.2 0 0 0 3-2.5 18.5 18.5 0 0 0 1.4 1.4 16.8 16.8 0 0 0-2.5 2.9zm-26.2-24.4a15.2 15.2 0 0 0-3.2-3 19.2 19.2 0 0 0 4.3-3.2l2 2.1a15.3 15.3 0 0 0-3.1 4.1zm-51.3-78.8a15.3 15.3 0 0 0-1.8-1.8 13.7 13.7 0 0 0 2.9-2.4l1.3 1.4a16.1 16.1 0 0 0-2.4 2.8zm-26-24.6a12.9 12.9 0 0 0-3.4-3.2 14.9 14.9 0 0 0 4-3.1 17.9 17.9 0 0 0 2.3 2.5 18.2 18.2 0 0 0-2.9 3.8zm-51.1-78.3a13.9 13.9 0 0 0-2.1-2.1 15.8 15.8 0 0 0 2.9-2.2 10.6 10.6 0 0 0 1.5 1.5 15.6 15.6 0 0 0-2.3 2.8zm-26.2-25a15.3 15.3 0 0 0-3.5-3.2 13.9 13.9 0 0 0 3.9-2.8 26.1 26.1 0 0 0 2.3 2.4 15.4 15.4 0 0 0-2.7 3.6zm-25.8-52.9a19.3 19.3 0 0 0-3.5-2.9 13.5 13.5 0 0 0 3.3-2.6 20.9 20.9 0 0 0 2.4 2.8 14.4 14.4 0 0 0-2.2 2.7zm-24-23.5a15.2 15.2 0 0 0-5.4-5.3 12.7 12.7 0 0 0 3.4-2.7 18.3 18.3 0 0 0 4.6 4.6 17 17 0 0 0-2.6 3.4zm-2.2-34.7a22.4 22.4 0 0 0 2.7 3.4 17.4 17.4 0 0 0-2.5 2.9 14.3 14.3 0 0 0-4.2-3.1 15.7 15.7 0 0 0 4-3.2zm26.1-52a19.9 19.9 0 0 0 2.9 3.6 11.5 11.5 0 0 0-2.1 2.3 14.5 14.5 0 0 0-3.9-3 14.2 14.2 0 0 0 3.1-2.9zm26-24.6a14.9 14.9 0 0 0 2.3 2.7l-1 1.1a15.5 15.5 0 0 0-2.7-2.4 18.5 18.5 0 0 0 1.4-1.4zm26.3-24.9l1.7 1.9-.5.6a15.1 15.1 0 0 0-2-1.7 6 6 0 0 1 .8-.8zm25.2-53.3a14 14 0 0 0 2.7 3.3 15.7 15.7 0 0 0-1.8 1.9 19.3 19.3 0 0 0-3.6-2.8 15.5 15.5 0 0 0 2.7-2.4zm26.1-24.7a14.3 14.3 0 0 0 2 2.3l-.9 1a12.1 12.1 0 0 0-2.4-2.1zm26-25.1a13.7 13.7 0 0 0 1.6 1.8l-.4.5-1.9-1.6a4.6 4.6 0 0 1 .7-.7zm25.5-53.5a19.4 19.4 0 0 0 2.6 3.1 10.7 10.7 0 0 0-1.8 1.9 21 21 0 0 0-3.3-2.6 11.4 11.4 0 0 0 2.5-2.4zm25.5-25a20.9 20.9 0 0 0 2.4 2.8l-1.1 1.1a13.7 13.7 0 0 0-2.9-2.4zm26.6-24.9c.5.6.9 1.2 1.5 1.8l-.6.6-1.8-1.5zm25.1-53.7a21.9 21.9 0 0 0 2.7 3.5 13.1 13.1 0 0 0-2.3 2.4 20 20 0 0 0-3.7-2.8 14 14 0 0 0 3.3-3.1zm25.7-24.6a27.6 27.6 0 0 0 2.3 2.7 11.4 11.4 0 0 0-1.1 1.1 15.6 15.6 0 0 0-2.8-2.3zm25.8-28.1a18.9 18.9 0 0 0 3.4 4.6l-1.5 1.3a16.4 16.4 0 0 0-4.4-3.3 12.3 12.3 0 0 0 2.5-2.6zm28.1 2.5c.5.5.9 1.1 1.5 1.6l-2 1.7-1.4-1.2zm52.8 51a17 17 0 0 0 1.9 1.9 18.1 18.1 0 0 0-3 2.5l-1.4-1.5a34.7 34.7 0 0 0 2.5-2.9zm26 25a19.9 19.9 0 0 0 3 2.8 15.7 15.7 0 0 0-3.8 3 14.5 14.5 0 0 0-2.1-2.2 14.3 14.3 0 0 0 2.9-3.6zm51.5 78.3a15.3 15.3 0 0 0 1.8 1.8 21.7 21.7 0 0 0-2.9 2.4 8.6 8.6 0 0 0-1.3-1.4 16.1 16.1 0 0 0 2.4-2.8zm25.9 24.9a16.7 16.7 0 0 0 3.4 3.1 18 18 0 0 0-3.9 2.9 17.1 17.1 0 0 0-2.2-2.5 19.1 19.1 0 0 0 2.7-3.5zm51.6 78.4a13.7 13.7 0 0 0 1.7 1.7 12.3 12.3 0 0 0-2.8 2.3 6.5 6.5 0 0 0-1.1-1.2 30.1 30.1 0 0 0 2.2-2.8zm25.8 24.7a14.7 14.7 0 0 0 3.4 3.2 12.9 12.9 0 0 0-3.8 2.8 26.2 26.2 0 0 0-2.2-2.5 15.2 15.2 0 0 0 2.6-3.5zm25.9 52.8a12.1 12.1 0 0 0 1.6 1.6 12.3 12.3 0 0 0-2.8 2.3l-1-1.2a19.9 19.9 0 0 0 2.2-2.7zm25.3 25.3a18.9 18.9 0 0 0 2 2 15.1 15.1 0 0 0-2.8 2.2l-1.4-1.4a15.1 15.1 0 0 0 2.2-2.8zm-1 81.9a4.3 4.3 0 0 0-.9-1l.6-.6a4.3 4.3 0 0 0 1 .9 2.3 2.3 0 0 0-.7.7zm-26.2 25.3l-.2-.3.4-.4.2.2zm-51.3 77.7l-.7-.8.4-.5.8.8a1.2 1.2 0 0 1-.5.5zm-26.1 25.2h-.1l.3-.3h.1zm-51.2 77.9l-.6-.7.2-.2.7.6zM531 789l-.4-.4h.1l.5.4zm-51.6 77.4l-.3-.3.4.3zm-25.8 25.8l-.3-.3.4.3zm-156.8-76.8c.5-.5 1.1-.9 1.5-1.4l.6.6a9.3 9.3 0 0 0-1.3 1.5zm-77.7-103l1.9-1.6a1 1 0 0 0 .4.5l-1.6 1.8a4.6 4.6 0 0 1-.7-.7zm-77.4-103.1l1.8-1.5.2.3c-.5.5-.9 1.1-1.4 1.7zm-24-78.9l.2.3-.4-.3zm51.8-77.6l.5.5-.5.5-.5-.6zm25.8-25.7l.3.2-.4.4-.3-.2zm25.4-51.9a4.6 4.6 0 0 0 .7.7l-.4.4a4.6 4.6 0 0 0-.7-.7zm26.1-25.5c.1.1.2.3.4.4l-.3.3-.4-.5zm25.9-25.6h.1a.2.2 0 0 1-.2.2h-.1a.2.2 0 0 0 .2-.2zm25.2-52.3l.9.9-.3.3-.9-.9zm26.2-25.2l.2.3h-.1l-.3-.2s.1 0 .2-.1zm25.7-25.8l.3.3-.3-.2zm25.4-52.1l.7.8-.8-.6c0-.1.1-.1.1-.2zm26.5-25.6l.4.4-.4.2-.3-.2zm104.8 77.1l-1.5 1.3-.4-.5a9.3 9.3 0 0 0 1.3-1.5zm77.9 103l-1.9 1.6-.4-.5a13 13 0 0 0 1.5-1.8zm77.4 103.2a8.4 8.4 0 0 0-1.8 1.5l-.3-.4a11.5 11.5 0 0 0 1.4-1.7zm50.4 78.1l-.7.6c-.1 0-.1-.1-.2-.2l.6-.7zm-.8 26.8l-.3-.4c.1-.1.2-.3.4-.4l.4.3zm-25.7 25.4c-.1 0-.1-.1-.2-.2l.2-.2c.1.1.2.1.2.2s-.1.1-.2.2zm-25.8 25.8c-.1 0-.1-.1-.2-.2s.2.1.2.2zm-26 51.8c-.1 0-.1-.1-.2-.2a.8.8 0 0 1 .4-.4c.1.1.2.1.2.2zm-25.6 25.6l-.2-.2.2-.2c.1.1.2.1.2.2zm-25.9 25.7zm-25.9 51.7h-.1c.1-.1.1-.2.2-.2a.1.1 0 0 1 .1.1s-.1 0-.2.1zm-25.8 25.8h-.1l.2-.2a.1.1 0 0 1 .1.1s-.1 0-.2.1zm-25.8 25.6zm-206.8.2l.4-.4.3.2-.5.4c0-.1-.1-.1-.2-.2zm-77.3-103.1l.4-.4h.2c-.2.1-.3.3-.4.4zm-51.3-207.1l.3.2-.4.4-.3-.2zm25.7-25.6c0 .1.1.1.1.2v.2l-.3-.2zm25.8-51.7l.3.2c-.2.1-.2.2-.3.3l-.3-.2zm25.9-25.7a.1.1 0 0 1 .1.1.2.2 0 0 1-.2.2h-.1c.1-.2.2-.2.2-.3zm25.7-25.7a.1.1 0 0 1 .1.1h-.2c.1 0 .1 0 .1-.1zm25.9-51.7h.1a.2.2 0 0 1-.2.2.1.1 0 0 1-.1-.1zm25.7-25.7h.1c0 .1 0 .1-.1.1a.1.1 0 0 1-.1-.1zm181-25.8a.2.2 0 0 1-.2.2c-.1 0-.1-.1-.2-.2l.2-.2zm77.6 103.1l-.5.5-.2-.3c.1-.1.2-.3.4-.4zm102.9 181c-.1 0-.1-.1-.2-.2l.2.2zm-77.4 103.2c-.1 0-.1-.1-.2-.2s.2.1.2.2zm-77.5 103.1h-.1a.1.1 0 0 1 .1.1zM505 763h-.1a.1.1 0 0 1 .1.1zm-206.7-.1a.1.1 0 0 1 .1-.1.2.2 0 0 1 .2.2.1.1 0 0 1-.1.1c0-.1-.1-.1-.2-.2zm-103.1-284c0 .1.1.1.1.2s-.1-.1-.2-.2zm51.6-77.3zm25.8-25.8zm51.6-77.4zm180.9-25.7a.1.1 0 1 1-.2 0h.2zm77.4 103.2a.1.1 0 0 1-.1.1c-.1 0-.1-.1-.2-.2h.1zM298.4 737.2h.1a.1.1 0 0 1-.1.1zM505 298.4a.1.1 0 0 1-.1.1.1.1 0 0 0 .1-.1zm77.4 103.2zM375.9 814.5zm25.8 0zm25.8 0zm129.1-438.7zm-309.8 284zM324.2 763h.1a.1.1 0 0 1-.1.1zm129.1 51.5zm103.4-464.4h-.1a.1.1 0 0 0 .1 0zm-25.9-25.9a.1.1 0 0 1-.1.1.1.1 0 0 0 .1-.1zm-51.6-77.4zM453.5 221h-.2l.2-.2zm-25.8-25.8h-.2c.1 0 .1-.1.2-.2zM221.1 659.7zm25.6 25.8a.1.1 0 0 0 .1-.1.1.1 0 0 1 0 .2.1.1 0 0 0-.1-.1zm25.9 25.9a.1.1 0 0 0 .1-.1.1.1 0 0 1-.1.1zm51.5 77.3a.1.1 0 0 1 .2 0h-.2zm25.8 26c.1-.1.2-.1.2-.2 0 .1-.1.1-.2.2zm25.8 25.8l.2-.2-.2.2zm232.4-438.8zm-51.4-77.4h-.1c-.1 0-.1-.1-.2-.2h.1zm-25.8-25.8a.1.1 0 0 1-.1.1l-.2-.2h.1zM479.5 221l-.3.3c-.1-.2-.2-.2-.3-.3l.2-.3zm-25.7-25.7l-.3.3-.4-.4.2-.3zM428 169.5l-.3.3-.2-.3c.1 0 .1-.1.2-.2zM298.4 324.2zM221 427.3v.2l-.2-.2zm-51.6 77.4c0 .1.1.1.1.2l-.2-.2zm77.3 206.6h.1a.2.2 0 0 1 .2.2.1.1 0 0 1-.1.1c0-.2-.1-.2-.2-.3zm25.8 25.8h.1a.2.2 0 0 1 .2.2h-.1zm51.5 77.5l.2-.2.4.3-.3.2zm25.7 25.7l.2-.2.5.4-.3.2zm25.8 25.8l.2-.2a.2.2 0 0 1 .2.2l-.2.2zm26.1 25.9a.1.1 0 0 1 .1-.1.1.1 0 0 1-.1.1zm77.5-77.5zm77.5-103.1zm77.5-103.1l-.2-.2.2.2zm52.2-129.9a2.7 2.7 0 0 1-.8.7c.3-.2.4-.6.7-.8zm-26.6-25.1l.3-.3zm-25-52.3a2.7 2.7 0 0 1-.8.7 2.7 2.7 0 0 0 .7-.8zm-26.2-25.4l-.5.4a.1.1 0 0 1-.1-.1l.5-.5a.3.3 0 0 1 .1.2zm-51-77.7l-1 .9-.2-.3.8-.9zm-26.1-25.6a4.6 4.6 0 0 0-.7.7l-.2-.3.6-.7zm-51.2-77.5a10.9 10.9 0 0 0-1.1 1l-.4-.5.9-1zm-25.9-25.7l-1 .9-.4-.5.8-.9zM428 143.7l-.3.3-.5-.5.2-.3zm-284 361l-.3.2-.2-.2.2-.2zm-28.6 53.7a15.7 15.7 0 0 0 2.5-2 24.3 24.3 0 0 0-2 2.5zm28.3 23.9l-.2.3h-.1zm25 52.3a2.7 2.7 0 0 0 .8-.7l-.6.8zm25.8 25.8c.3-.3.6-.4.8-.7a2.7 2.7 0 0 1-.7.8.1.1 0 0 0-.1-.1zm51.5 77.3l.9-.8.3.2-.9.9zm26.1 25.6l.6-.6.3.2a2 2 0 0 0-.6.7zm51.2 77.5a9.4 9.4 0 0 0 1-1l.5.5a9.4 9.4 0 0 0-1 1c-.2-.1-.3-.3-.5-.5zm26 25.6l.8-.8.5.5a6 6 0 0 0-.8.8zm26.2 25.5l.2-.2.3.3-.2.2zm25.9 25.9l.2-.2c.1 0 .1 0 .1.1l-.2.2a.1.1 0 0 0-.1-.1zm103.5-103.3zm77.3-103.1c.1-.1.1-.2.2-.2h.1c0 .1-.1.1-.2.2zm77.3-103.1l.4-.4c.1.1.2.1.2.2l-.4.4c-.1 0-.1-.1-.2-.2zm-48.9-259.5a13.7 13.7 0 0 0-2.2 1.9l-.7-.8 1.8-2.1zm-77-103.2a16.4 16.4 0 0 0-2.5 2.1l-.7-.9a22 22 0 0 0 2-2.3 6.5 6.5 0 0 0 1.2 1.1zm-77-103.4a22.6 22.6 0 0 0-2.9 2.5l-.8-1a13.1 13.1 0 0 0 2.4-2.8 15.9 15.9 0 0 0 1.3 1.3zm-107.9 51.4c.5.6.9 1.2 1.4 1.7s-.1.3-.3.4a12.2 12.2 0 0 0-1.7-1.5zm-76.8 103.6a6.9 6.9 0 0 0 1.1 1.3l-.3.3a6.9 6.9 0 0 0-1.3-1.1zm-77.5 102.9a10.7 10.7 0 0 0 1.4 1.6l-.5.5a10.7 10.7 0 0 0-1.6-1.4 4.6 4.6 0 0 1 .7-.7zm-51.1 78.1l.9.9-.5.5-.9-.9zm-26.5 24.9l1.4 1.6-.5.5a10.9 10.9 0 0 0-1.7-1.3zm75.8 183.3l2-1.7a11.4 11.4 0 0 1 1.1 1.1l-1.7 1.9a8.6 8.6 0 0 0-1.4-1.3zm77.3 103.7a16.4 16.4 0 0 0 2.5-2.1l.8.9a11.6 11.6 0 0 0-2 2.4 4.9 4.9 0 0 0-1.3-1.2zM347 893.4a13.1 13.1 0 0 0 2.8-2.4l.8.9a14.9 14.9 0 0 0-2.3 2.7 7.4 7.4 0 0 0-1.3-1.2zm27.1 25.4a8 8 0 0 0 1.7-1.5l.5.5a8 8 0 0 0-1.5 1.7 2.3 2.3 0 0 1-.7-.7zm55.3 27.4a17.3 17.3 0 0 0-2.1-2.5l.2-.2a24.3 24.3 0 0 0 2.5 2zm76.2-105.1a2.7 2.7 0 0 0-.7-.8l.9.7zm26.5-24.9a11.5 11.5 0 0 0-1.4-1.7l.3-.4a8.4 8.4 0 0 0 1.8 1.5zm50.8-78.2l-.8-.9c.1-.1.1-.2.2-.2l1 .8zm26.2-25.3l-1.2-1.4c.1-.1.1-.2.2-.2l1.4 1.2c-.1.1-.3.2-.4.4zm50.9-78l-.8-.8.5-.4.8.7a1.2 1.2 0 0 1-.5.5zm26.6-24.9a12.9 12.9 0 0 0-1.6-1.7l.5-.4 1.7 1.5zm52.2-76.4a18.6 18.6 0 0 0-2.3-2.6 23.5 23.5 0 0 0 2.6-2.9 13.5 13.5 0 0 0 3.2 2.6 16.4 16.4 0 0 0-3.5 2.9zm-25.9-89.9a11.7 11.7 0 0 0 8.2 8.2 15 15 0 0 0-8.4 5.1 16.4 16.4 0 0 0-4.9-4.9 15 15 0 0 0 5.1-8.4zm-25.5-22.7a12.8 12.8 0 0 0 6.3 5.6 14.1 14.1 0 0 0-6.3 4.1 17.3 17.3 0 0 0-4-4.1 16.9 16.9 0 0 0 4-5.6zm-51.5-79.1a12 12 0 0 0 7.8 6.8 15.2 15.2 0 0 0-8 4.7 19.9 19.9 0 0 0-4.3-4.4 14.5 14.5 0 0 0 4.5-7.1zm-26.2-23.6a12.8 12.8 0 0 0 5 4.8 15.2 15.2 0 0 0-5.2 3.8 19.3 19.3 0 0 0-3.5-3.5 15.5 15.5 0 0 0 3.7-5.1zm-51.5-79.4a11.9 11.9 0 0 0 7.4 6.8 14.8 14.8 0 0 0-7.4 4.7 17.9 17.9 0 0 0-4.5-4.6 16.3 16.3 0 0 0 4.5-6.9zm-25.5-23.6a13.4 13.4 0 0 0 5.3 4.7 13.6 13.6 0 0 0-5.6 3.8 21.3 21.3 0 0 0-3.3-3.4 18.2 18.2 0 0 0 3.6-5.1zm-52-80.8a11.9 11.9 0 0 0 8 7.9 14.5 14.5 0 0 0-8 4.9 19 19 0 0 0-4.9-4.9 14.3 14.3 0 0 0 4.9-7.9zm-25.4-22.9a12.8 12.8 0 0 0 6.1 5.4 14 14 0 0 0-6.1 3.9 20.1 20.1 0 0 0-3.8-3.9 17.1 17.1 0 0 0 3.8-5.4zm-53.6-28.8a13.3 13.3 0 0 0 5.3 7.6 16.7 16.7 0 0 0-7.2 7.2 13.2 13.2 0 0 0-7.6-5.2 13.4 13.4 0 0 0 9.5-9.6zm-26.1 23.6a13.3 13.3 0 0 0 4.7 9.1 18.9 18.9 0 0 0-6.3 5.6 14.1 14.1 0 0 0-6.3-4.1 12.7 12.7 0 0 0 7.9-10.6zM348.5 134a15 15 0 0 0 5.1 8.3 17.7 17.7 0 0 0-5.3 5.6 14.5 14.5 0 0 0-10.6-5.4 11.6 11.6 0 0 0 10.8-8.5zm-25.7 55.4a16.8 16.8 0 0 0 3.6 4.8 16.2 16.2 0 0 0-3.2 3.2 16 16 0 0 0-4.9-3.6 12.7 12.7 0 0 0 4.5-4.4zm-26.2 25a16.9 16.9 0 0 0 4 5.6 19.4 19.4 0 0 0-4 4.1 14.1 14.1 0 0 0-6.3-4.1 12.8 12.8 0 0 0 6.3-5.6zM271.1 237a15.2 15.2 0 0 0 5.1 8.5 18.1 18.1 0 0 0-5.1 5.2 14.3 14.3 0 0 0-9-5.2 11.8 11.8 0 0 0 9-8.5zm-22.9 60.7a22.3 22.3 0 0 0-2.6 2.7 17.2 17.2 0 0 0-4.6-3.4 12.8 12.8 0 0 0 4-3.7 19.8 19.8 0 0 0 3.2 4.4zm-29 19.9a16.9 16.9 0 0 0 4 5.6 15.8 15.8 0 0 0-3.6 3.7 15.1 15.1 0 0 0-6-4 12.5 12.5 0 0 0 5.6-5.3zm-25.9 23a15.4 15.4 0 0 0 4.9 8.2 16 16 0 0 0-4.7 5 14.3 14.3 0 0 0-10.9-5.2 11.5 11.5 0 0 0 10.7-8zm-22.1 60.2a13.3 13.3 0 0 0-2.9 2.9 15.4 15.4 0 0 0-4.4-3.3 13.8 13.8 0 0 0 4.1-3.9 16.6 16.6 0 0 0 3.2 4.3zm-29.3 20.1a17.8 17.8 0 0 0 3.9 5.5 17.6 17.6 0 0 0-3.8 3.9 14.4 14.4 0 0 0-6-4 13.4 13.4 0 0 0 5.9-5.4zm-51.2 78.3a15.7 15.7 0 0 0 3.4 4.7 15.8 15.8 0 0 0-4.2 4.7 13.5 13.5 0 0 0-5.7-4 14.3 14.3 0 0 0 6.5-5.4zm-.2 92.9a11.7 11.7 0 0 0-8-8.1 15 15 0 0 0 9.6-7 14.7 14.7 0 0 0 5.4 5.4 15.2 15.2 0 0 0-7 9.7zm25.6 22.8a12.5 12.5 0 0 0-6.4-5.6 15.6 15.6 0 0 0 6.4-4.2 17.3 17.3 0 0 0 3.9 4.2 14.9 14.9 0 0 0-3.9 5.6zm51.3 78.8a11.9 11.9 0 0 0-7.6-6.6 15 15 0 0 0 8.3-5.1 16 16 0 0 0 4.2 4.4 15.3 15.3 0 0 0-4.9 7.3zm26.3 23.8a12.1 12.1 0 0 0-4.8-4.7 15.9 15.9 0 0 0 5.1-3.7 17.7 17.7 0 0 0 3.4 3.3 18.5 18.5 0 0 0-3.7 5.1zm51.3 80.1a11.6 11.6 0 0 0-7.8-7.3 14.4 14.4 0 0 0 8-4.8 19.7 19.7 0 0 0 4.5 4.6 15.1 15.1 0 0 0-4.7 7.5zm25.8 22.8a13.3 13.3 0 0 0-5.1-4.6 16.3 16.3 0 0 0 5.5-3.9 15.6 15.6 0 0 0 3.3 3.5 15.2 15.2 0 0 0-3.7 5zm51.9 80.4a11.8 11.8 0 0 0-7.7-7.4 15.1 15.1 0 0 0 7.7-4.8 16.5 16.5 0 0 0 4.7 4.8 15.2 15.2 0 0 0-4.7 7.4zm25.5 23.4a13.2 13.2 0 0 0-5.9-5.3 15.2 15.2 0 0 0 6-3.9 16.7 16.7 0 0 0 3.7 3.8 16 16 0 0 0-3.8 5.4zm27 26.3a12.7 12.7 0 0 0-5-5.5 17.2 17.2 0 0 0 4.6-3.4 16.5 16.5 0 0 0 4 3.9 13.6 13.6 0 0 0-3.6 5zm26.2 23.9a13.7 13.7 0 0 0-5.3-5.1 12.8 12.8 0 0 0 3.6-2.9 17.5 17.5 0 0 0 4.5 4.5 16 16 0 0 0-2.8 3.5zm52.4-24.8a14.6 14.6 0 0 0-2.9-4.1 17.1 17.1 0 0 0 3.8-3.8 12.9 12.9 0 0 0 3.8 2.8 15.3 15.3 0 0 0-4.7 5.1zm26.8-25.9a16 16 0 0 0-3.6-4.9 12.9 12.9 0 0 0 3.3-3.3 16 16 0 0 0 4.9 3.6 13.5 13.5 0 0 0-4.6 4.6zm26.2-24.8a16.7 16.7 0 0 0-4-5.8 19.9 19.9 0 0 0 4-4.2 14.4 14.4 0 0 0 6.6 4.2 12.6 12.6 0 0 0-6.6 5.8zm51.2-78.4a16 16 0 0 0-3.6-4.9 16.6 16.6 0 0 0 3.5-3.5 15.2 15.2 0 0 0 5 3.7 13 13 0 0 0-4.9 4.7zm26.1-24.1a15.4 15.4 0 0 0-4.4-6.5 16.3 16.3 0 0 0 4.3-4.4 14.9 14.9 0 0 0 7.2 4.6 12.3 12.3 0 0 0-7.1 6.3zm48.4-84.1a17.8 17.8 0 0 0 3.2-3.5 14.6 14.6 0 0 0 5 3.5 14.1 14.1 0 0 0-5 4.4 14.3 14.3 0 0 0-3.2-4.4zm28.9-18.1a15.7 15.7 0 0 0-4.7-7.3 18.4 18.4 0 0 0 4.4-4.4 15.7 15.7 0 0 0 7.3 4.7 11.8 11.8 0 0 0-7 7zm48.2-85a19 19 0 0 0 3.6-3.9 14.9 14.9 0 0 0 5 3.6 14.1 14.1 0 0 0-5.3 4.7 18.1 18.1 0 0 0-3.3-4.4zm29.1-17.5a15.2 15.2 0 0 0-4.9-7.9 18.3 18.3 0 0 0 4.8-4.8 14.6 14.6 0 0 0 7.9 4.9 11.9 11.9 0 0 0-7.8 7.8z"></path><path d="M801.6 511.7a6.1 6.1 0 0 0-6.1 6.1 6.1 6.1 0 0 0 6.1 6.1 6.1 6.1 0 0 0 6.1-6.1 6.2 6.2 0 0 0-6.1-6.1z"></path><path d="M827.4 519.7a1.9 1.9 0 0 0 1.8-1.9 1.8 1.8 0 0 0-1.8-1.8 1.9 1.9 0 0 0-1.9 1.8 2 2 0 0 0 1.9 1.9z"></path><path d="M1.9 541.7a1.9 1.9 0 1 0 0 3.8 1.9 1.9 0 0 0 0-3.8z"></path><circle cx="27.7" cy="543.6" r="5.6"></circle><circle cx="53.5" cy="543.6" r="9.9"></circle><path d="M775.8 533.4a10.2 10.2 0 1 0 10.2 10.2 10.2 10.2 0 0 0-10.2-10.2z"></path><circle cx="801.6" cy="543.6" r="6.1"></circle><path d="M827.4 541.7a1.9 1.9 0 0 0 0 3.8 1.9 1.9 0 0 0 0-3.8z"></path><path d="M1.9 568.5a.9.9 0 1 0 0 1.8.9.9 0 1 0 0-1.8z"></path><path d="M27.7 564.1a5.3 5.3 0 1 0 0 10.6 5.3 5.3 0 0 0 0-10.6z"></path><path d="M53.5 559.5a9.9 9.9 0 1 0 9.9 9.9 9.9 9.9 0 0 0-9.9-9.9z"></path><path d="M775.8 561.2a8.2 8.2 0 1 0 8.2 8.2 8.2 8.2 0 0 0-8.2-8.2z"></path><path d="M801.6 563.8a5.6 5.6 0 1 0 5.6 5.6 5.6 5.6 0 0 0-5.6-5.6z"></path><path d="M827.4 568.1a1.3 1.3 0 1 0 1.3 1.3 1.3 1.3 0 0 0-1.3-1.3z"></path><path d="M1.9 594.3a.9.9 0 1 0 0 1.8.9.9 0 0 0 0-1.8z"></path><path d="M27.7 591.8a3.4 3.4 0 1 0 3.3 3.4 3.4 3.4 0 0 0-3.3-3.4z"></path><path d="M53.5 588.3a6.9 6.9 0 1 0 6.9 6.9 6.9 6.9 0 0 0-6.9-6.9z"></path><path d="M775.8 587.6a7.6 7.6 0 1 0 7.6 7.6 7.6 7.6 0 0 0-7.6-7.6z"></path><path d="M801.6 592.4a2.8 2.8 0 0 0 0 5.6 2.8 2.8 0 0 0 0-5.6z"></path><path d="M27.3 621a.4.4 0 0 0 .4.4c.2 0 .3-.2.3-.4s-.1-.4-.3-.4a.4.4 0 0 0-.4.4z"></path><path d="M53.5 616.1a4.9 4.9 0 1 0 4.9 4.9 4.9 4.9 0 0 0-4.9-4.9z"></path><path d="M79.3 612.2a8.8 8.8 0 1 0 8.8 8.8 8.7 8.7 0 0 0-8.8-8.8z"></path><path d="M750 612.1a8.9 8.9 0 1 0 8.9 8.9 8.9 8.9 0 0 0-8.9-8.9z"></path><path d="M775.8 615.6a5.4 5.4 0 0 0 0 10.8 5.4 5.4 0 1 0 0-10.8z"></path><path d="M801.6 619.1a1.9 1.9 0 0 0 0 3.8 1.9 1.9 0 0 0 0-3.8z"></path><path d="M53.5 644.2a2.6 2.6 0 1 0 2.5 2.6 2.6 2.6 0 0 0-2.5-2.6z"></path><path d="M79.3 641.2a5.6 5.6 0 1 0 5.5 5.6 5.6 5.6 0 0 0-5.5-5.6z"></path><path d="M105 636.9a9.9 9.9 0 1 0 9.9 9.9 9.8 9.8 0 0 0-9.9-9.9z"></path><path d="M724.2 636.6a10.2 10.2 0 1 0 0 20.4 10.2 10.2 0 1 0 0-20.4z"></path><path d="M750 640.6a6.2 6.2 0 0 0 0 12.4 6.2 6.2 0 0 0 0-12.4z"></path><path d="M775.8 643.9a2.9 2.9 0 1 0 0 5.8 2.9 2.9 0 0 0 0-5.8z"></path><path d="M801.5 646.8a.1.1 0 0 0 .1.1h-.1z"></path><path d="M53.5 671.7a.9.9 0 1 0 0 1.8.9.9 0 1 0 0-1.8z"></path><path d="M79.3 669.4a3.2 3.2 0 0 0-3.2 3.2 3.2 3.2 0 0 0 6.3 0 3.2 3.2 0 0 0-3.1-3.2z"></path><circle cx="105" cy="672.6" r="6.9"></circle><path d="M130.8 661.7a10.9 10.9 0 1 0 10.9 10.9 10.8 10.8 0 0 0-10.9-10.9z"></path><path d="M724.2 665.6a7 7 0 1 0 7 7 7 7 0 0 0-7-7z"></path><path d="M750 669.4a3.2 3.2 0 1 0 3.2 3.2 3.2 3.2 0 0 0-3.2-3.2z"></path><path d="M775.8 671.5a1.1 1.1 0 1 0 1.1 1.1 1.1 1.1 0 0 0-1.1-1.1z"></path><path d="M79.3 696.9a1.5 1.5 0 1 0 0 3 1.5 1.5 0 0 0 0-3z"></path><path d="M105 694.5a3.9 3.9 0 1 0 4 3.9 3.9 3.9 0 0 0-4-3.9z"></path><path d="M130.8 690.8a7.6 7.6 0 1 0 7.6 7.6 7.6 7.6 0 0 0-7.6-7.6z"></path><path d="M698.4 690.6a7.8 7.8 0 1 0 7.8 7.8 7.8 7.8 0 0 0-7.8-7.8z"></path><path d="M724.2 694.2a4.2 4.2 0 0 0-4.2 4.2 4.1 4.1 0 0 0 4.2 4.1 4.1 4.1 0 0 0 4.1-4.1 4.1 4.1 0 0 0-4.1-4.2z"></path><path d="M750 697.3a1.1 1.1 0 1 0 1.1 1.1 1.1 1.1 0 0 0-1.1-1.1z"></path><path d="M775.6 698.4c0 .1.1.1.2.1s.1 0 .1-.1 0-.1-.1-.1-.2 0-.2.1z"></path><path d="M105 722.3a1.9 1.9 0 1 0 1.9 1.9 1.9 1.9 0 0 0-1.9-1.9z"></path><path d="M130.8 719.3a4.9 4.9 0 1 0 5 4.9 4.9 4.9 0 0 0-5-4.9z"></path><path d="M156.6 715.5a8.7 8.7 0 1 0 8.7 8.7 8.7 8.7 0 0 0-8.7-8.7z"></path><path d="M672.6 715a9.2 9.2 0 1 0 9.2 9.2 9.2 9.2 0 0 0-9.2-9.2z"></path><path d="M698.4 718.9a5.3 5.3 0 1 0 5.3 5.3 5.3 5.3 0 0 0-5.3-5.3z"></path><path d="M724.2 722.1a2.1 2.1 0 0 0-2.1 2.1 2.1 2.1 0 0 0 2.1 2.1 2.2 2.2 0 0 0 2.1-2.1 2.1 2.1 0 0 0-2.1-2.1z"></path><path d="M749.8 724.2a.2.2 0 1 0 .2-.2.2.2 0 0 0-.2.2z"></path><path d="M104.7 750a.3.3 0 0 0 .3.3c.2 0 .4-.1.4-.3a.4.4 0 0 0-.4-.4.4.4 0 0 0-.3.4z"></path><path d="M130.8 747.3a2.7 2.7 0 0 0-2.6 2.7 2.7 2.7 0 0 0 5.3 0 2.7 2.7 0 0 0-2.7-2.7z"></path><path d="M156.6 744.3a5.7 5.7 0 0 0-5.7 5.7 5.8 5.8 0 1 0 5.7-5.7z"></path><path d="M182.4 740.5a9.5 9.5 0 1 0 9.6 9.5 9.5 9.5 0 0 0-9.6-9.5z"></path><circle cx="646.8" cy="750" r="9.9"></circle><path d="M672.6 743.8a6.2 6.2 0 1 0 6.2 6.2 6.2 6.2 0 0 0-6.2-6.2z"></path><path d="M698.4 747.1a2.9 2.9 0 1 0 2.9 2.9 2.9 2.9 0 0 0-2.9-2.9z"></path><path d="M723.9 750a.3.3 0 0 0 .3.3.5.5 0 0 0 .3-.3.3.3 0 0 0-.3-.3.3.3 0 0 0-.3.3z"></path><path d="M130.8 774.9a.9.9 0 0 0 0 1.8.9.9 0 1 0 0-1.8z"></path><circle cx="156.6" cy="775.8" r="3.3"></circle><circle cx="182.4" cy="775.8" r="6.9"></circle><path d="M208.2 765.1a10.7 10.7 0 1 0 10.7 10.7 10.7 10.7 0 0 0-10.7-10.7z"></path><path d="M646.8 768.6a7.2 7.2 0 1 0 7.2 7.2 7.2 7.2 0 0 0-7.2-7.2z"></path><path d="M672.6 772.4a3.4 3.4 0 1 0 3.4 3.4 3.4 3.4 0 0 0-3.4-3.4z"></path><circle cx="698.4" cy="775.8" r="1.3"></circle><path d="M156.6 800.5a1.1 1.1 0 0 0 0 2.2 1.1 1.1 0 0 0 0-2.2z"></path><path d="M182.4 797.6a4 4 0 1 0 0 8 4 4 0 0 0 0-8z"></path><path d="M208.2 794a7.6 7.6 0 1 0 7.6 7.6 7.6 7.6 0 0 0-7.6-7.6z"></path><path d="M621 793.6a7.9 7.9 0 0 0-7.9 8 7.9 7.9 0 0 0 15.8 0 7.9 7.9 0 0 0-7.9-8z"></path><path d="M646.8 797.2a4.4 4.4 0 0 0-4.4 4.4 4.4 4.4 0 0 0 8.8 0 4.4 4.4 0 0 0-4.4-4.4z"></path><path d="M672.6 800.3a1.3 1.3 0 1 0 1.3 1.3 1.3 1.3 0 0 0-1.3-1.3z"></path><path d="M156.6 827.4a.1.1 0 0 0 .1-.1c0-.1 0-.1-.1-.1z"></path><path d="M182.4 826.4a1 1 0 0 0-1 1 1.1 1.1 0 0 0 1 1 1 1 0 0 0 1-1 .9.9 0 0 0-1-1z"></path><path d="M208.2 822.4a5 5 0 0 0-4.9 5 5 5 0 0 0 9.9 0 5 5 0 0 0-5-5z"></path><path d="M234 818.8a8.6 8.6 0 1 0 8.6 8.6 8.5 8.5 0 0 0-8.6-8.6z"></path><path d="M595.2 818.6a8.8 8.8 0 1 0 8.8 8.8 8.7 8.7 0 0 0-8.8-8.8z"></path><path d="M621 822.1a5.3 5.3 0 1 0 5.3 5.3 5.3 5.3 0 0 0-5.3-5.3z"></path><path d="M646.8 825.2a2.2 2.2 0 1 0 2.2 2.2 2.2 2.2 0 0 0-2.2-2.2z"></path><path d="M672.6 827a.4.4 0 0 0-.4.4.4.4 0 0 0 .8 0 .4.4 0 0 0-.4-.4z"></path><path d="M208.2 850.6a2.6 2.6 0 1 0 2.6 2.6 2.6 2.6 0 0 0-2.6-2.6z"></path><circle cx="234" cy="853.2" r="5.9"></circle><path d="M259.8 844a9.2 9.2 0 1 0 9.3 9.2 9.2 9.2 0 0 0-9.3-9.2z"></path><circle cx="569.4" cy="853.2" r="9.9"></circle><path d="M595.2 847.1a6.1 6.1 0 0 0-6.1 6.1 6.1 6.1 0 1 0 12.2 0 6.1 6.1 0 0 0-6.1-6.1z"></path><circle cx="621" cy="853.2" r="2.8"></circle><circle cx="646.8" cy="853.2" r=".5"></circle><path d="M208.2 878a1 1 0 0 0-.9 1 .9.9 0 0 0 .9.9.9.9 0 0 0 1-.9 1 1 0 0 0-1-1z"></path><path d="M234 875.8a3.2 3.2 0 1 0 3.2 3.2 3.1 3.1 0 0 0-3.2-3.2z"></path><circle cx="259.8" cy="879" r="6.9"></circle><path d="M285.6 868.7a10.3 10.3 0 1 0 10.3 10.3 10.3 10.3 0 0 0-10.3-10.3z"></path><circle cx="569.4" cy="879" r="6.9"></circle><path d="M595.2 875.3a3.7 3.7 0 0 0-3.6 3.7 3.6 3.6 0 0 0 3.6 3.6 3.7 3.7 0 0 0 3.7-3.6 3.8 3.8 0 0 0-3.7-3.7z"></path><path d="M621 878a1 1 0 0 0-.9 1 .9.9 0 0 0 1.8 0 1 1 0 0 0-.9-1z"></path><path d="M234 903.6a1.2 1.2 0 0 0-1.2 1.2 1.3 1.3 0 0 0 1.2 1.2 1.3 1.3 0 0 0 1.3-1.2 1.2 1.2 0 0 0-1.3-1.2z"></path><path d="M259.8 900.7a4 4 0 0 0-4 4.1 4.1 4.1 0 1 0 8.1 0 4.1 4.1 0 0 0-4.1-4.1z"></path><path d="M285.6 897.2a7.6 7.6 0 1 0 7.6 7.6 7.6 7.6 0 0 0-7.6-7.6z"></path><circle cx="543.6" cy="904.8" r="8.2"></circle><path d="M569.4 900.8a4 4 0 1 0 3.9 4 3.9 3.9 0 0 0-3.9-4z"></path><path d="M595.2 903.2a1.6 1.6 0 0 0-1.6 1.6 1.6 1.6 0 0 0 3.2 0 1.6 1.6 0 0 0-1.6-1.6z"></path><path d="M233.9 930.6a.1.1 0 0 0 .1.1c.1 0 .2 0 .2-.1a.2.2 0 0 0-.2-.2.3.3 0 0 0-.1.2z"></path><path d="M259.8 929.6a1 1 0 0 0-1 1 1.1 1.1 0 0 0 1 1 1 1 0 0 0 1-1 .9.9 0 0 0-1-1z"></path><path d="M285.6 927.6a3 3 0 0 0-2.9 3 3 3 0 0 0 5.9 0 3 3 0 0 0-3-3z"></path><path d="M311.4 922.2a8.4 8.4 0 1 0 8.4 8.4 8.3 8.3 0 0 0-8.4-8.4z"></path><path d="M517.8 921.8a8.8 8.8 0 1 0 8.8 8.8 8.8 8.8 0 0 0-8.8-8.8z"></path><path d="M543.6 925.3a5.3 5.3 0 0 0-5.3 5.3 5.3 5.3 0 1 0 10.6 0 5.3 5.3 0 0 0-5.3-5.3z"></path><path d="M569.4 928.7a1.9 1.9 0 1 0 1.9 1.9 1.9 1.9 0 0 0-1.9-1.9z"></path><path d="M285.6 953.7a2.7 2.7 0 0 0 0 5.4 2.7 2.7 0 1 0 0-5.4z"></path><path d="M311.4 950.6a5.8 5.8 0 1 0 5.8 5.8 5.8 5.8 0 0 0-5.8-5.8z"></path><path d="M337.2 947.4a9 9 0 1 0 9 9 9 9 0 0 0-9-9z"></path><path d="M492 946.4a10 10 0 1 0 10 10 9.9 9.9 0 0 0-10-10z"></path><path d="M517.8 950.3a6.1 6.1 0 1 0 0 12.1 6.1 6.1 0 1 0 0-12.1z"></path><path d="M543.6 953.6a2.8 2.8 0 0 0-2.8 2.8 2.8 2.8 0 0 0 5.6 0 2.8 2.8 0 0 0-2.8-2.8z"></path><path d="M569.4 955.7a.7.7 0 1 0 .7.7.7.7 0 0 0-.7-.7z"></path><path d="M285.6 981.1a1 1 0 0 0-1 1.1.9.9 0 0 0 1 1 1 1 0 0 0 1.1-1 1.1 1.1 0 0 0-1.1-1.1z"></path><path d="M311.4 978.9a3.3 3.3 0 0 0 0 6.5 3.3 3.3 0 0 0 0-6.5z"></path><circle cx="337.2" cy="982.2" r="6.9"></circle><path d="M363 972.1a10.1 10.1 0 1 0 10.1 10.1 10.1 10.1 0 0 0-10.1-10.1z"></path><path d="M466.2 973.4a8.8 8.8 0 1 0 8.8 8.8 8.8 8.8 0 0 0-8.8-8.8z"></path><circle cx="492" cy="982.2" r="6.9"></circle><path d="M517.8 979a3.2 3.2 0 0 0 0 6.3 3.2 3.2 0 1 0 0-6.3z"></path><path d="M543.6 981.2a1 1 0 0 0-.9 1 .9.9 0 1 0 1.8 0 1 1 0 0 0-.9-1z"></path><path d="M337.2 1004.6a3.4 3.4 0 1 0 3.4 3.4 3.4 3.4 0 0 0-3.4-3.4z"></path><path d="M363 1003a5 5 0 1 0 5 5 4.9 4.9 0 0 0-5-5z"></path><circle cx="466.2" cy="1008" r="5.3"></circle><path d="M492 1005.2a2.8 2.8 0 0 0-2.8 2.8 2.9 2.9 0 0 0 2.8 2.8 2.8 2.8 0 0 0 2.8-2.8 2.7 2.7 0 0 0-2.8-2.8z"></path><path d="M517.8 1007a1 1 0 0 0-.9 1 .9.9 0 0 0 1.8 0 1 1 0 0 0-.9-1z"></path><path d="M311.2 1033.8a.2.2 0 0 0 .4 0c0-.2-.1-.3-.2-.3s-.2.1-.2.3z"></path><path d="M337.2 1032.6a1.1 1.1 0 0 0-1.1 1.2 1.1 1.1 0 0 0 1.1 1.1 1.1 1.1 0 0 0 1.2-1.1 1.2 1.2 0 0 0-1.2-1.2z"></path><path d="M363 1029.8a4 4 0 1 0 4 4 4 4 0 0 0-4-4z"></path><path d="M388.8 1026.8a7 7 0 1 0 7 7 7 7 0 0 0-7-7z"></path><path d="M414.6 1026.2a7.6 7.6 0 1 0 7.6 7.6 7.6 7.6 0 0 0-7.6-7.6z"></path><path d="M440.4 1026.8a7 7 0 1 0 7 7 6.9 6.9 0 0 0-7-7z"></path><path d="M466.2 1028.8a5 5 0 0 0 0 9.9 5 5 0 1 0 0-9.9z"></path><path d="M492 1033.1a.7.7 0 0 0-.6.7.6.6 0 0 0 .6.6.7.7 0 0 0 .7-.6.7.7 0 0 0-.7-.7z"></path><path d="M363 1058a1.6 1.6 0 0 0-1.5 1.6 1.5 1.5 0 0 0 1.5 1.5 1.6 1.6 0 0 0 1.6-1.5 1.6 1.6 0 0 0-1.6-1.6z"></path><path d="M388.8 1056.4a3.2 3.2 0 1 0 3.2 3.2 3.1 3.1 0 0 0-3.2-3.2z"></path><path d="M414.6 1056.4a3.2 3.2 0 1 0 3.2 3.2 3.1 3.1 0 0 0-3.2-3.2z"></path><path d="M440.4 1056.4a3.2 3.2 0 1 0 3.2 3.2 3.1 3.1 0 0 0-3.2-3.2z"></path><path d="M466.2 1057.7a1.8 1.8 0 0 0-1.8 1.9 1.8 1.8 0 0 0 1.8 1.8 1.9 1.9 0 1 0 0-3.7z"></path></g></g></svg>