<svg xmlns="http://www.w3.org/2000/svg" width="1080" height="1072.4" viewBox="0.0181276798248291 -0.023273468017578125 1080.0162353515625 1072.4549560546875" style=""><g><title>hlwnlic117_150017236</title><g data-name="Layer 2"><path d="M611.8 152.3l1.7-3.8c4-9.6-4.2-21-13.3-23.4s-22.6-1.4-27.5 8.9a27.5 27.5 0 0 0-1.5 3.6c-8.8-2.9-19.7-.3-24.1 10.1l-3.4 2.1c-11.7 7.7-12.9 30.3 2.7 34.3a39.7 39.7 0 0 0 19.6 23c17.3 9 48.4 7.9 58.2-11.9 8-16.1 0-32.2-12.4-42.9z" fill="#fc9723"></path><path d="M763.7 171.2c9-20.6 4.2-46.1-20.2-55.2-17.7-6.6-43-3.7-54.1 13.1-7.9 12.1-5 26.1 2.8 36.8.3 10 3.7 19.5 11.6 26.2 14.1 12 31.7 9.4 45.4-1.6a51.4 51.4 0 0 0 12.4-15.1 16.5 16.5 0 0 0 2.1-4.2z" fill="#fc9723"></path><g fill="#050505"><path d="M269.2 1026.8h2v-.4z"></path><path d="M1041.6 435.3c-33.5-37.1-78.6-58.3-126.4-69.9-37.3-9-83.8-15.2-100.4-55.2-12.6-30.6-7.2-67.1-3.1-98.9 4.5-34.9 10-69.9 4-105s-27.2-64.8-56.2-84.2-65.6-24-99.6-21.5c-54.7 5-112.1 25.7-153.3 62.8-32.5 29.2-53.4 68.9-71.2 108.2s-33.4 80.7-57.2 117.3c-11.8 18.1-26.1 34.6-43.3 47.7-19.6 15.1-43.1 23.8-65.5 33.6-51.3 22.6-102.5 46.1-146.9 80.7-35.7 27.7-61.9 62.8-81.9 103-18.9 38-34.5 79.1-39.5 121.4-4 32.9 2 75.2 36.6 89.7 25.1 10.5 42.1-12.2 53-31.7 9.2-16.3 16.2-35.9 26.3-52.6.7 11.4 3.3 22.9 7.5 32.1s10.5 12.7 18.3 15.1a5.7 5.7 0 0 0 7.8 1.6 44.2 44.2 0 0 0 19.6-2.4l4.3-1.7c16.8-5.7 32.9-18.6 45.8-31.1 5.7-4 11.3-8.3 16.7-12.9 9.1 18.3 27.6 24.9 49.1 21.1 6.1-1 22.1-5.1 31.9-11.8 2.8 15.9-.9 32.2-6.4 47.8a372.4 372.4 0 0 0-22.5 41.7c-4 5.8-7.6 11.2-10.7 15.8-15.1 22.5-27.5 46.5-40.5 70.1a311.2 311.2 0 0 1-42.2 39c-23.7 18.2-49.6 28-76.6 39.9-16.8 7.4-39.1 17.7-46.2 36.2a25.5 25.5 0 0 0-1.8 9.2c-10.6 18.7 6.7 39.8 24.7 48.2l.7.3a87.6 87.6 0 0 0 21.3 8.7c25.4 14.3 57.5 19.5 84.9 23 40.3 5 79.3-.4 117.5-14.2a225.3 225.3 0 0 0 52.7-26.7 463.3 463.3 0 0 0 59-38.5c12.2-7 24.2-14.3 36.1-21.9 25.5-16.5 51.3-33.8 74-54.1l15-13.3c6.4-4.7 12.6-9.5 18.6-14.5s13.9-11.7 19.5-19.7c29.7-27.3 58.4-55.9 82-87.9 27-36.4 48.6-80.4 84.7-108.9l6.7-3.9c-3 13.2-5.4 26.8-2.1 40.1 4.5 18.5 24 20.8 38.4 12.6 9.7-5.4 17.4-13.7 24.4-22.5a182.6 182.6 0 0 0 18-18.4c1.4-1.5 2.7-3.1 4.1-4.7a46.6 46.6 0 0 0 1.2 6.3c3.8 13.3 15.5 18.4 28.5 17.3 16.6-1.5 28.9-11.4 38.1-24.6 10.3-14.7 16.1-32.3 23.3-48.5 5.9-13.3 13.5-30.5 28.9-34.6 8.3-2.2 16.5 1.4 23.8 5.4 4.6 4.1 9.6 7.1 14.7 7.9 6.4 2.9 13.1 4.7 20.6 4.2 22.6-1.4 35.6-22.8 42.5-41.8 17.3-47.7 1.7-93.9-31.3-130.4zM11.5 678.5c.1-1.9.3-3.8.5-5.6.1.2.1.5.2.8s-.5 3.2-.7 4.8zm131.2-229.2l-3.9 4.5c-2.4 1.8-4.7 3.7-6.9 5.6s-6.8 4.1-10.1 6.3c6.7-5.8 13.7-11.2 20.9-16.4zM41.1 700.7c-.4 1.1-.8 2.6-1.2 4.2a10.2 10.2 0 0 0-2.2-.9c1.2-1.1 2.3-2.2 3.4-3.3zm-3.8 25.7l.3-1a34.1 34.1 0 0 0 .9 4.8 13 13 0 0 1-2.6-1.7 11 11 0 0 0 1.4-2.1zm-6.9-119.1c-.5 1.8-1 3.6-1.4 5.4s-1.6 4-2.3 6.1c1.1-3.9 2.4-7.8 3.7-11.5zm-6.5 127.3a5.7 5.7 0 0 0 2.9-.1 22.5 22.5 0 0 0 8.1 6.3c-4.7 1.1-8.5-2-11-6.2zm11.5 16.5a23.1 23.1 0 0 0 6.9-1.6 21.9 21.9 0 0 0 11.1 4.6 5.9 5.9 0 0 0 3.1.9c-6.4 2-13.4 1-21.1-3.9zm20.8-27.5c-.2-.8-.4-1.6-.7-2.5a20.2 20.2 0 0 1-.6-3.4c.4-2.6 1-5.2 1.6-7.8a.5.5 0 0 0 .4-.2c1.4-.9 2.8-1.8 4.1-2.8a106.5 106.5 0 0 0 0 11.3 61.7 61.7 0 0 1-4.8 5.4zm7.6-35.1l-1 1.1 1.8-4.2c-.3 1-.5 2.1-.8 3.1zm9.9 6.6l.8-.7a6.3 6.3 0 0 0 1.3-1.1 75.7 75.7 0 0 0 5.3-6c-.2 1.2-.5 2.3-.7 3.4a26.8 26.8 0 0 1-.7 2.7c-2.4 3.4-5 6.8-7.3 9.8.3-2.7.8-5.4 1.3-8.1zm4.6 37.4a5.3 5.3 0 0 0-4.2-2h-.6a50.3 50.3 0 0 0 7.9-11c0-.1.1-.2.1-.3a231.2 231.2 0 0 0 14.6-23.9c.7-1 1.4-2 2-3-6.5 13.5-12.4 27.5-19.8 40.2zM92.8 530l-.9.3 13.2-17.5 2.6-1.5A222 222 0 0 0 92.8 530zm36.7-40.9l-9.8 9.5a22.8 22.8 0 0 0-3.7 0c5.2-5.2 10.4-10.2 15.8-15.2l3.4-1zm1.6 114.6c.2-1.2.5-2.4.8-3.6l.5.6zm3.4-71.7c.4-1.3.8-2.6 1.1-4l10-8.6zm9.4 150.5v-.6a35.7 35.7 0 0 0 2.7 2.8h-.3a14.1 14.1 0 0 1-2.4-2zm4.5 24.3a21.1 21.1 0 0 1-3.1-2.1h-.1a21.6 21.6 0 0 0 3.4 1.7 2 2 0 0 0 .1.7zm3.3-33.1a27.7 27.7 0 0 1-4-6.6 37.6 37.6 0 0 1 3.2-5.5 5.8 5.8 0 0 1 1.9-.2 71.2 71.2 0 0 1-1.1 12.3zm2.5 19.5a16.3 16.3 0 0 0 2.2-2.3c0 .1.1.1.2.1l.3 1.7a6.2 6.2 0 0 1-2.7.5zm3.2-187.4q7.3-6.9 14.4-14.1l3.3-1.8a226.4 226.4 0 0 0-17.5 16.5c-.1-.2-.1-.4-.2-.6zm2.3 70.2l1-.3c-.3 1.1-.7 2.2-1 3.3v-3zm-.5 29.2l2.6-4.5a25.3 25.3 0 0 0 .1 2.8l-2.7 2.3zm.2 14.5l3.2-2.5-1.1 3.5-2 1.8c0-.9-.1-1.9-.1-2.8zm10.8 87.2c-3.5.4-7.1.6-10.7.8a22.6 22.6 0 0 0 7-2.5 18.8 18.8 0 0 0 3.8 1.8zm2.3-142.4l-.9 1.2a4.1 4.1 0 0 0-1.3-1l2.8-2.3zm4.9 103.7a32.2 32.2 0 0 1-2.5 7.6c-.1-1.2-.3-2.4-.5-3.7s2-3.5 2.5-4.4l.7-.9c-.1.5-.1.9-.2 1.4zm6.8-236l-10.8 6.4-.3-.3c4.5-3.1 9.2-5.9 14-8.6zm7.9 235.1l4.5-7a38.6 38.6 0 0 0 4.9.6 65 65 0 0 1-9.4 6.4zM218 448.9c4.1-3.2 8.1-6.3 12.1-9.6a4.4 4.4 0 0 0 2.4-.7l5.7-3.7-3 2.5c-5.7 3.9-11.4 7.8-17.2 11.5zm14.5 128.7l6.5-6.3c0 .2.1.3.1.5-2.9 3.9-5.8 7.8-8.8 11.5s-4.5 5.5-6.8 8.2c3.2-4.5 6.2-9.2 9-13.9zm5.9 40a3.5 3.5 0 0 1-.5.8 109.7 109.7 0 0 1-10.9 9.7l-2.1 1.5a89.4 89.4 0 0 1 5.1-8.4c3.4-2.9 6.8-5.6 10.3-8.2l2.5-1.8zm3.4-223l18.8-8.4-9.2 5.2zm6.9 275.6l2.4-2.6a47.4 47.4 0 0 0 3.4 7.2 61.5 61.5 0 0 1-5.8-4.6zm6.2-97.9c-.6.9-1.2 1.9-1.9 2.8l-1 .6a11.8 11.8 0 0 0-.7-2 180 180 0 0 0 10.8-17l.9 2.2c-2.4 5.3-6.2 10.6-8.1 13.4zm13.1 79.8a22.5 22.5 0 0 1-2.2-7.4l1.6 1a76.4 76.4 0 0 0 2.9 8zm8.2-124.7l1.6-1.2c.1.5.1 1.1.2 1.6s-1.3 3.8-1.9 5.7c.1-2.3.1-4.4.1-6.1zm3.8 156.2l-2.4-2.4a41.5 41.5 0 0 0 4.3 3zm526.4-555.8c.3-1.3.6-2.6.8-4a194 194 0 0 1 .5 30.5v-.4c-.3-4.2-.9-8.4-1.6-12.5zm-64-41.4l1.3 1.2-3.1.7zm-12.6-48.2l2.8 1.6-5.3-.7zm-28.5-12.8a148.9 148.9 0 0 1 14.9 5.9l-7.2 2-3.7-.7h-.3c-8.1-2.9-16.2-6-24.4-7.6a94.9 94.9 0 0 1 20.7.4zm-27.8 175.8c.1.1.1.2.1.4s.2.7.2 1.1l-2.7-1.3a6.3 6.3 0 0 0 2.4-.2zm7 104.1a41.8 41.8 0 0 0 5 .2c-6.1 2.4-12.3 5-18.6 7h-.5a67.6 67.6 0 0 0 14.1-7.2zM630.2 69.4q7-.7 14.1-1.2l4.1 1.1-8.3 3.6-1.4.2-.8-.3a26 26 0 0 0-7.5-.6l-2.8-1.3zm19.7 156.3l-2.2.7-1.4-.6 2.1-1.6zm-51.5 108.9c-13.5-4.6-11.3-18.1-5.9-28.5a39.2 39.2 0 0 0 2.7-3.3c9.3 6.3 19 12.2 29.2 16.4-.7 1.8-1.3 3.6-1.9 5.5-5 8.4-13.1 13.7-24.1 9.9zm12.8 25.5l-.3 2.2a.4.4 0 0 0-.1-.3c-.1-.6-.3-1.2-.4-1.8zm-2.8 28.2l-1.3 1-.9.4a5 5 0 0 0-1.2.8h-.4c0-.1.1-.3.1-.4a6 6 0 0 0 2-2.4zm-11 19.8c-.7.7-1.4 1.3-2 2-.1-1.1-.1-2.2-.3-3.3l1 .3a4.5 4.5 0 0 0 1.3 1zm-38.8-114.7a38.6 38.6 0 0 0 7.3-10.6l7.7 4.6 12 8.6c-.9 1.4-1.8 2.9-2.6 4.4-4.4 4.5-10.2 7.1-17.3 5.2s-8.2-6.8-7.1-12.2zm-2.3-101l4.8 1.8-2.3.8zm4.9 37.1a6.1 6.1 0 0 0 .6-2.4l7.5 4.1a6.2 6.2 0 0 0-1.2.8zm16.4 29.4a4.3 4.3 0 0 0 0-1.6 47.9 47.9 0 0 0 11.4 7.2l.4.3a7.5 7.5 0 0 0-1.6 1.5zm3.6-38.6l4.2 1.3a5 5 0 0 0-.9 2.3l-.9.3-.9-.4a21.7 21.7 0 0 1-1.5-3.5zm13.3 7.9l1.4-1 2.9 2.2zm13.4-5.4a38.8 38.8 0 0 0-3.1-2.6l2.1-1.7a3.9 3.9 0 0 0 1.7 1.9l.3.4zm14.4 80.4l1.2.5c-.6.8-1 1.5-1.5 2.3a136.6 136.6 0 0 1-15.3-8.7 66.8 66.8 0 0 0 15.6 5.9zm-2.5-64a5 5 0 0 0 .2-1.2c5.3 2.4 10.8 4.6 16.4 6.5l1.2 1.8a103.2 103.2 0 0 0-17.8-7.1zm16.3 66.8a24 24 0 0 0 4.1 3.8 21.3 21.3 0 0 1-7.1-.9 11.7 11.7 0 0 1 3-2.9zm.4-214.4c-3.4 6.3-8 12.2-13.5 15.3a88.7 88.7 0 0 1 13.5-15.3zm-14.1 36.1a49 49 0 0 0-2.4 5.2 5.7 5.7 0 0 0-2.9-.1 24.4 24.4 0 0 0-.6-2.6 61.4 61.4 0 0 0 5.9-2.5zm-10.9-33.9c-1.2 1.9-2.4 3.7-3.5 5.7l-.8-.2a8.5 8.5 0 0 1 2.3-5zm-3.4-13.2a47 47 0 0 0-4.3 3.5q-4 .8-8.1 1.2c4.2-1.4 8.3-3 12.4-4.7zm-19.2-46.3a6.5 6.5 0 0 0 .1 3.4l-4 2.2c-7.6 2.4-15.3 4.4-22.8 7a103.5 103.5 0 0 1 26.7-12.6zm-13.1 102.1c17.7.1 30.9 13.4 24.9 30.9-4.2 9-11.1 14.9-19.8 17a185.2 185.2 0 0 1-26.5-5.2c-5.9-3.8-10.4-9.4-11-16.4-1.2-16.5 18.6-26.5 32.4-26.3zm-52 155.3c-14.3-6.3-4.9-14.5-2.2-23.5 10-.7 21.8 3.4 32.4 8.4a41.3 41.3 0 0 0-5.2 10.8c-6.7 5.8-16.1 8.3-25 4.3zm24.7 10.9l-1.8-.8 1.4-.7c.1.5.3 1 .4 1.5zm-5.7 96.4a193.4 193.4 0 0 1-18.5-24.4c4.6-2.7 11.1-6.2 16.3-6 2.8 8.8 5.5 17.5 3.8 27.4a26.9 26.9 0 0 1-1.6 3zm1 155.1c-.8 1.9-1.7 3.7-2.6 5.5l-1.1-.4zM535 408.3c-3.8-4.7-7.6-9.2-11.6-13.7-.5-1-.9-2.1-1.3-3.1a177.9 177.9 0 0 0 13.5 16.6zm.4 160.8c-4.6 4.2-9.3 8.5-13.8 12.9 4-4.5 7.8-9.2 11.6-13.9zm1.7-213.3l.2.3.3 1.8-1.2.3c.2-.8.5-1.6.7-2.4zm-.1-21.1l1.6 1a17 17 0 0 0-.6 3.1c-.1-.3-.1-.6-.2-.9a12.5 12.5 0 0 0-.8-3.2zM522.4 303a8.3 8.3 0 0 0-.4 1.5l-1.9-.7a8.1 8.1 0 0 0-1-2.1 25.2 25.2 0 0 0 3.3 1.3zm-7.2-83.3l2.9 1.1 1.5 1.2a45.3 45.3 0 0 0-7.3-.4zm21.1 15.9l3.3-.8 2 1.5-.7.8a35.3 35.3 0 0 0-4.6-1.5zm4.4-97.5l2.8-1a34.9 34.9 0 0 0-9.8 15.9c-.2-1-.5-2-.8-3a5.4 5.4 0 0 0-.5-1.1c-.1-1.1-.2-2.2-.4-3.3zm-9.1-80.7c-3.3 3.3-6.5 6.9-9.6 10.6-4.7 3-9.3 6.1-13.9 9.3a185.9 185.9 0 0 1 23.5-19.9zm-4.5 283.5c2.3 8.7-1.6 18.5-8.6 24a176.2 176.2 0 0 1-13.7-31.9c9.6-3.1 19-4.7 22.3 7.9zm-8.8 181.8l1 .7c-2.7 2.3-5.3 4.7-7.9 7.1l-.4-.2c2.5-2.5 4.9-5.1 7.3-7.6zm-7.8-149.3c1.6 2.8 3.2 5.5 4.9 8.2a4.1 4.1 0 0 0-1.9.1l-.7-1.1c-.8-2.4-1.5-4.8-2.3-7.2zm0 261.3l-.3.9-1-.5a5.6 5.6 0 0 0 .5-.8zM500.3 651a62.8 62.8 0 0 1-2.5 7.3l-3.1 4.3c1.8-3.9 3.6-7.8 5.6-11.6zm-5.2-56.5l2.9-2.7-2.9 3.2zm7.4 80.1l1.8-3.5-3.6 11.9c-2.6 5.1-5.1 10.3-7.6 15.5 2.7-8.1 5.9-16.1 9.4-23.9zm3.8 59.6a2.1 2.1 0 0 0 .4.6c-1.6 3.5-3.3 6.9-5 10.4 1.5-3.7 3-7.4 4.6-11zm-3.5-242.9l2.8 3.8-1.2 1c-2.7-1.9-5.4-3.9-8-6l-4.3-3.9c3.6 1.8 7.1 3.5 10.7 5.1zm-15.1-183.4h.8c.4 4 1 8 1.8 12.1l-2.7-7.3c0-1.6 0-3.2.1-4.8zm0 100.3c1.5 2.4 3 4.7 4.6 7h-1.6c-1.1-2-2.1-4.1-3.1-6.2a1.7 1.7 0 0 1 .1-.8zm3.8 99.6l-1 .9-.6-1zm-3.8 26.8l.9 2.4-3.8 3.7-2.1-1.6zm-5.4 24l3.3-3.2 1.8 1.1-5.6 6.6c.2-1.5.4-3 .5-4.5zm-16-201.8c.7 2.8 1.4 5.5 2.2 8.3a10.1 10.1 0 0 0-1.3 1.6l-.5-.4a66.1 66.1 0 0 1-.8-9.9zM463 578.5c-.4 1.5-.7 2.9-1.2 4.3l-.3-2.7zm-30.6 74.3l-.8 1c-.1-.4-.3-.7-.4-1.1zm-1.3 136.7l1.1-.5c.1 0 .1.1.2.2a4.1 4.1 0 0 0 .7 1.1l-1.5 1.2a12.7 12.7 0 0 1-.6-1.8c0-.1 0-.1.1-.2zm-2.4-385.1l-1.3 4.6c0-.6-.1-1.2-.1-1.9s1-1.8 1.4-2.7zm-4.5 221.4h1.2l-1.2 1.3zm-.1 72.5l.7-1.2c-.2 2.2-.5 4.4-.7 6.6zM409.2 507l2.2-2.4.4.6-.6 1.6-2.9 2.7zm1.5 147.4a3.1 3.1 0 0 1-.1 1l-.6 2.3c.1-.9.2-1.9.4-2.9zm-10.5-173a4.3 4.3 0 0 0 1.6 0l-1.5 1.3a5 5 0 0 0-.2-1.2c.1 0 .1 0 .1-.1zm-1.1 51l3.9-3.4a16 16 0 0 1-1 2.3c-2 2.5-3.9 5.1-5.8 7.6zm-8.7-121l3-2.9-2.1 7-2.3 1.8c.5-2 .9-4 1.4-5.9zm-12 426.5c0 .6-.1 1.2-.1 1.9l-12.2 10.1 3.2-3.4c2.9-3 6-5.8 9.1-8.6zM376 426.8a3.4 3.4 0 0 0-.1 1l-4 3.3zm-15.7 52.3c5.9-5.4 11.9-10.6 17.9-15.8-.1.4-.3.7-.4 1.1-4.7 4.9-9.4 9.8-14.2 14.6l-3.7 1a3.6 3.6 0 0 0 .4-.9zm-3.2 100.1l-2.6 4.8-2.2-3.9a44.6 44.6 0 0 1 1.1-4.4c.7-2.3 1.6-4.6 2.5-6.9.5 3.5.9 6.9 1.2 10.4zm-6.3-114.4l3.2-1-1.5 3.5-3.2 3.2c.6-1.9 1-3.8 1.5-5.7zm-11.7 129c.1.7.1 1.4.2 2.2l-.8-.5zm-6.9-241.7l.2-.2-2.7 3.7-7.5 2.4c3.4-1.8 6.7-3.8 10-5.9zm-.6 74.8a27.4 27.4 0 0 1 5.4-2.1l-4 4.5c-4 3.9-8.1 7.8-12.4 11.6a123.1 123.1 0 0 1 11-14zm1.6 149.5c-.9 2-1.7 4-2.5 6-.1-.7-.3-1.5-.4-2.2zm-34-157.9h.7l-4.1 3.9-2.9 1.2zm-12.3 245.7a70.7 70.7 0 0 1 6.4 9.7 52.6 52.6 0 0 1-6.4-9.7zm6.6-184.4l-.9-.2h-.7l.3-.3 1.5-1a8.8 8.8 0 0 0-.2 1.5zm.5 38.5c.4-1.2.9-2.4 1.4-3.6 1 2.1 2 4.3 2.9 6.4a18.8 18.8 0 0 0-4.3-2.8zm4.8-59a3.5 3.5 0 0 0-.9.7l1.5-4.5 1.3-1.1c-.7 1.6-1.3 3.2-1.9 4.9zm2.3 127.6a5.2 5.2 0 0 0 .2-1.1h.1l.9.6.3 1.3zm10.8 55l1.3-.4c.3 1 .5 2 .8 3zm9.8-145.6h.2c-.3.7-.5 1.5-.8 2.2l-3.7 3.7c-.7-2.3-1.3-4.6-1.9-6.9 2 .4 4.1.8 6.2 1zm-4.1 112.1a19.5 19.5 0 0 1-.2-2.5 12.5 12.5 0 0 0 1.6 2.4zM223 1061.2l2.1-.2c4 .3 8 .4 12.1.4-4.8.1-9.5 0-14.2-.2zm114.5-23.8l-6.3 2.8a61.2 61.2 0 0 0 6.9-4.3 4.7 4.7 0 0 0-.6 1.5zm241-174.3c-1.2 2.2-12.4 20.1-18.4 20.4l-8.6 4.8c-45.8 40.1-97.7 73.4-148.3 107-9.1 6-18.4 12-28 17.6s-17.8 10.5-27 15.1c-21.7 11.1-46.7 22.2-71.2 24.8-18.4 1.9-37.3.7-55.7-.8-25.4-2-51-5.3-75.7-11.8-17.6-4.6-40.6-10.8-52.5-26a.1.1 0 0 1-.1-.1c-10.5-3.9-14-13.7-12.4-23.3l-1.6 2.3c-5.3 8.5 0 13.7 6.9 18.9a1.1 1.1 0 0 1-.9 1.9c-4.4-1.2-8.6-3.1-11.2-7.1-6.8-10.1 2.3-20.8 12.3-28.9a23.9 23.9 0 0 1 10.4-7.9h.3a62.1 62.1 0 0 1 5.2-4.1c9.3-6.5 19.6-11.6 29.9-16.3l10.9-4.6 20.2-10c38-18.9 68-52 93.4-85.3 12.3-15.9 23.7-32.3 34.5-49.2 1.3-2 10.9-17.7 15.1-13.8l3.6-4.9c1.9-2.5 6.1-.1 4.3 2.6-5.6 8.2-8.4 19.1-9.3 28.8s-1.2 24.2 9.2 27.6c14.1 4.6 29.5-7.9 39.5-20.8a73 73 0 0 1 8.2-13.1 2.7 2.7 0 0 1 4.5 2.8 68.8 68.8 0 0 1-7.7 12.3c-11.2 22.1-16.7 55.1 8 66.8s50.4-1.1 68.8-20.1a130.8 130.8 0 0 1 20.7-32.2c1.8-2 5.3.3 4.4 2.8-3.7 10.5-10.7 21.6-19.8 31.4-9.3 21.2-12.1 45 13 50.6 18.9 4.2 38.9-6 53.4-17.3s28.3-25.6 35.3-42.9c1.4-3.3 6.6-1.8 5.5 1.7-2.5 7.6-1.5 18.8 7.1 16.7 7-6.2 13.9-12.5 20.6-19.1 1.7-1.7 4.3.6 3.2 2.7zm-20.4-313l-1.1.9c.8-2.2 1.5-4.5 2.1-6.7l4 1-2.3 2.7zm1.4 145.1c-.9 1-1.7 2.1-2.5 3.1.5-.8 1-1.6 1.4-2.4zm19-216.4l-3.6-1.9a9.7 9.7 0 0 0 .1-1.7l1-.2 1.4.3q2.3 1.9 4.5 4.2zm-8.3-55.9a132 132 0 0 1-18.6-14.9c6.3-6.9 14.8-14 23.9-12.4 12 2 9.2 20.7 7.2 29.9a106.7 106.7 0 0 0-12.5-2.6zm22 298.8c-2.6 3.2-5.2 6.5-7.7 9.8l-.3.2 8.4-10.9zm1-323.7c0 .1-.1.1-.2.2a14.3 14.3 0 0 0-1.3-2.8h1.5c0 .8.1 1.6.1 2.5a.1.1 0 0 1-.1.1zm11.7 402.9l-2.6 3.3-3.1 3.9-1.3 1.1c3.5-4.7 7.1-9.4 10.6-13.9zm13.6 12a3.9 3.9 0 0 0-1.8.4c1.7-2 3.5-3.9 5.3-5.8-1.1 1.8-2.3 3.6-3.5 5.4zM631 437a72.3 72.3 0 0 1-13 1.2c-7.9-3.1-15.8-6.3-23.7-9.1 5.8-8.9 14.4-19.3 25.3-20.6 13-1.5 12 19.8 11.4 28.5zm1.7-108.1a61.9 61.9 0 0 0 2.8-5.8 70 70 0 0 0 12.9 2.5 55 55 0 0 0 18.6-1.4 39.8 39.8 0 0 0-.3 8.4c-3.3 9.7-10.9 17.5-22.2 18.8-15.5 1.8-15.3-11.3-11.8-22.5zm23.3 85.6a41.5 41.5 0 0 1 11-11.1c6.8-4.3 10.8 4.5 13 9.6a6.4 6.4 0 0 0 .8 1.4 146.4 146.4 0 0 1-35.9 18.8 135.4 135.4 0 0 1 11.1-18.7zm6.4 243.4l-.8.6c1.6-2.8 3.4-5.6 5-8.5a.2.2 0 0 0 .2-.2c-1.4 2.7-2.9 5.4-4.4 8.1zm9.2 63a126.8 126.8 0 0 0 6.7-11.8l6.2-3.4zm6.4-387.5a41.5 41.5 0 0 0 1.8-13.1c8.3-3 16.5-6.5 25-9a20.6 20.6 0 0 0 .3 11.1c-2.2 7.7-6.9 14.3-15.5 16.9s-10.6-1-11.6-5.9zm20.9-145.8a34.4 34.4 0 0 0 3.6 2.8l-2-.8zm6.5 308.6q-5.7 4.8-11.7 9l-2.4 1.1 5.7-5.8a115.9 115.9 0 0 1 9.8-6.3zm-14.5-89.5c.2-7.4.8-15 3.8-21.8 4.6-10.6 15.6-8.8 24.7-5.8h.1a248.7 248.7 0 0 1-28.6 27.6zM706.4 243l1.2.3a6.1 6.1 0 0 0-.7 1.4zm3.3 106.6h.1l6.1-.5-1.2.7a13.9 13.9 0 0 0-3.6 3.1l-.3-.4a5.7 5.7 0 0 0-1.1-2.9zm16.3 22.2a5.9 5.9 0 0 0-1.2-2c-12.5-13.2 2.3-13.2 13.5-15.4a10 10 0 0 1 .2 1.6c-3.9 5.6-8.3 10.9-12.5 15.8zm-9.4-50.9a50.3 50.3 0 0 0 1-12.2 51.6 51.6 0 0 1 10.4-.1c6 .5 11.7 1.9 15.9 4.7-2.7 13.6-21.9 15.7-27.3 7.6zM718 247a16.8 16.8 0 0 1 2.2-3.2 12.3 12.3 0 0 1 2.6 3.1zm22.3 8.4a4.6 4.6 0 0 0 1.3-2.1l.6 1.5zm8 333c-2.7 1.9-5.4 3.8-8 5.8l15-15.2c-2.4 3.1-4.7 6.2-7 9.4zm7.8-340.3c.2-1.3.4-2.5.7-3.8.2 1.7.4 3.3.7 5zm5 23.9c-.8-1.7-1.5-3.5-2.3-5.3l1.7-1.1.6 2.6zm1.1-106.3c-3.8 16.7-15.7 25.2-32.6 23.7-13.6-1.1-28.3-10.4-32.8-23.6-6-18 11.8-33.3 28.3-34.1 18.7-.8 40.5 13.2 37.1 34zm-11.5-68.8l1.5-.6 1 1.9zm7.9-34.4c-.2-1.2-.4-2.4-.5-3.6l1.7.2c1.3 2.2 2.6 4.4 3.8 6.7-1.7-1.1-3.3-2.3-5-3.3zm9.3 59.5a4.7 4.7 0 0 0-2.9-2.3l.2-.3a39.1 39.1 0 0 1 12.9 13c-2.1-1.4-4.1-2.9-6.3-4.2a64.9 64.9 0 0 1-3.9-6.2zm7.1 506.3a5 5 0 0 0 2-.8l2.5-1.7c-.1.8-.1 1.7-.2 2.5s0 .1-.1.1a6.7 6.7 0 0 0-2 0l-3.2.7zm-2.4-482.1c-.3-.8-.5-1.6-.7-2.3a40.5 40.5 0 0 0 3.4 2.3l-.3.7a6.7 6.7 0 0 0-2.4-.7zm-2.4 297.6l-.7.5c0-2.1.1-4.2.1-6.3.2 2 .3 3.9.6 5.8zm6.4 204.6a5.7 5.7 0 0 0-2.2.7l-5.7 3.4c3.2-3 6.3-6 9.1-9.2l1.6-.6.3 3.2zm4.3 62.4a16.1 16.1 0 0 0 8.2.7 8.4 8.4 0 0 0 1.8 2.4 11 11 0 0 1-10-3.1zM748.1 28.9l-1.8-.5c0-.4.1-.8.1-1.2a114.7 114.7 0 0 1 47.5 49.3c-10.6-18.2-26.6-38.3-45.8-47.6zm47.4 197.4l-1.3-.2c.5-1.6.9-3.2 1.3-4.8zm4 76.2l.3-3.4c.4 1.7.9 3.4 1.4 5.2a5.8 5.8 0 0 0-1.7-1.8zm3.4 124.5l.6 2-1 1.1c.2-1 .3-2.1.4-3.1zm4.3 258.9l-1.7 1.7c-.5.5-1.3 1.4-2.5 2.5 1.7-4.2 3.8-9 5.6-14 .4-.9.8-1.7 1.3-2.6l1-1.1a35 35 0 0 1-3.7 13.5zM825 368.5l-.9-.3c-.9-1-1.7-2.1-2.5-3.1zm-4.2 19.8c1.3 2.8 2.7 5.5 4 8.2-1.3-1.7-2.6-3.5-3.8-5.3l-.6-2.5zm3.7 296.7c-1.2 1.7-3 3.9-5.1 6.5s-2.9 2.3-4.3 3.3a174.3 174.3 0 0 0 12-14l.7-.3a43.8 43.8 0 0 1-3.3 4.5zm14.8-252.1a.8.8 0 0 1-.2.4 4.8 4.8 0 0 0-5.5.1l-.7.5 3.9-4.5.6-.3 1.8 1.9a2.7 2.7 0 0 0 .8.7 7.5 7.5 0 0 1-.7 1.2zm.2-30.6l-.8-1.6 1.4 1.4zm7.4 158.1h-.6l4.8-5.6 2-2.2h.1zM870 411.3c0 .6-.1 1.2-.1 1.8l-.7-.9zm-8.6 19.4a52.5 52.5 0 0 0 1.8-6.5l2.7 2.4.2.2-4.8 4.8c0-.3.1-.6.1-.9zm5.6 249.4a6.3 6.3 0 0 0-1.2 1.1 23.7 23.7 0 0 1-3.9-10.2 11.1 11.1 0 0 0 3.7 4.4 17.8 17.8 0 0 0 4.4 2.1 23.2 23.2 0 0 1-3 2.6zm16-1.8l.4-.8a7.6 7.6 0 0 0 2.1-.3zm16.4-22.6l-2.4 4.2a48.9 48.9 0 0 0-.3-5.4c1.9-3.2 3.9-6.4 5.9-9.5a4.6 4.6 0 0 0 1.1 1.6c-1.4 3.1-2.8 6.1-4.3 9.1zm16.7-62.6a1.5 1.5 0 0 1 .1-.7l4.2-8.6c-1.4 3.1-2.8 6.2-4.3 9.3zM928.5 455a20.2 20.2 0 0 1 1.8-3.2l.6.2zm11.6 76.8a11.3 11.3 0 0 0-1-1.3l4.7-5.7c-1.2 2.4-2.5 4.7-3.7 7zm26.4-35.7a3.6 3.6 0 0 1-.2-1l2.4-2.9.9 1.2a7.8 7.8 0 0 0 .2 1.6zm3.8 37.7c.1-.4.1-.9.2-1.3l4.4-2.6a55.8 55.8 0 0 1-4.6 3.9zm18.1-60.4l-2.5-3a27.5 27.5 0 0 0 2.6 2.2 2.5 2.5 0 0 0-.1.8zm41-23l1.5 2.4a20.9 20.9 0 0 0-2.2-2zm-26.3 80.1h-3.2c-.4-1.6-.7-3.2-1-4.8h.2a34.8 34.8 0 0 0 4.7 4.7 1.6 1.6 0 0 0-.7.1zm4.5 2.4l1.3.7c.7 1.8 1.4 3.6 2 5.5l-1.7 1.5-1.9-.9a5.2 5.2 0 0 0 .3-6.8zm6.1 59.9h-.5l-4.3-2 5.1-.4 1.7 1.2zm3.6-68.1h-.4c-1-2.5-2.1-5.1-3.2-7.6l4.1 2.3c-.1 1.7-.3 3.5-.5 5.3zm23.9 67.8a23.8 23.8 0 0 1-14.8 3.9l1.2-1.4a20.3 20.3 0 0 0 8.1-1.7 18.5 18.5 0 0 0 7-1.8zm8.2-6.9a27.2 27.2 0 0 0 3.4-7.3 62.9 62.9 0 0 0 11.1-18.6c-3.3 9.8-8 18.9-14.5 25.9zm9.5-100.9c-.4-.6-.9-1.4-1.6-2.3-1.3-3.4-2.8-6.9-4.3-10.3s-3.6-8.1-5.8-12.5c9.8 14 17.1 29.4 20.3 46a64.3 64.3 0 0 0-8.6-20.9z"></path><path d="M221.4 898.3c1.3-1.2 2.7-2.3 3.9-3.5l.4.3a304.8 304.8 0 0 0 28.5-33.6c-4.4 5.5-8.8 10.9-13.4 16.2-6.1 7-12.6 13.9-19.4 20.6z"></path><path d="M298.3 849.6l.8-1.1-.6.7c-.1.1-.1.2-.2.4z"></path></g></g></g></svg>