<svg xmlns="http://www.w3.org/2000/svg" width="842.9" height="1080" viewBox="-41.060672760009766 0.0005974769592285156 883.960693359375 1079.99951171875" style=""><g><title>hlwnlic67_84586316</title><g data-name="Layer 2"><circle cx="99" cy="352.2" r="99" transform="rotate(-45 99.02 352.284)" fill="#fdbb15"></circle><g fill="#7b3588"><path d="M115.6 254.7L99 352.2l49.6-85.6a98.2 98.2 0 0 0-33-11.9z"></path><path d="M179.8 295L99 352.2l95.6-25.4a98.7 98.7 0 0 0-14.8-31.8z"></path><path d="M41.8 271.5L99 352.2l-25.5-95.6a96.4 96.4 0 0 0-31.7 14.9z"></path><path d="M1.4 335.6L99 352.2l-85.6-49.6a98.4 98.4 0 0 0-12 33z"></path><path d="M156.2 433L99 352.2l25.4 95.6a98.7 98.7 0 0 0 31.8-14.8z"></path><path d="M196.6 368.9L99 352.2l85.6 49.6a97.8 97.8 0 0 0 12-32.9z"></path><path d="M18.2 409.4L99 352.2 3.4 377.7a98.2 98.2 0 0 0 14.8 31.7z"></path><path d="M82.3 449.8L99 352.2l-49.6 85.6a98.6 98.6 0 0 0 32.9 12z"></path></g><path d="M331.7 586.9a23.9 23.9 0 0 0 6.4-4.7 24.3 24.3 0 0 0 4.9-7.1L175.3 414.2a33.8 33.8 0 0 0-6.3 5.2 35.6 35.6 0 0 0-5 6.6z" fill="#e96311"></path><path d="M57.8 433.2l-2.7-1.1c-.9-.3-1.9-.9-3.2-1.5a44.1 44.1 0 0 1-4.2-2.2 76.8 76.8 0 0 1-22.4-19.7 81.2 81.2 0 0 1-10.5-17.6 88.2 88.2 0 0 1-6.6-22 97.4 97.4 0 0 1-.8-24.8 110 110 0 0 1 2-12.6c.6-2.1 1.1-4.2 1.7-6.2l.5-1.6.2-.7v-.4l.2-.5 1-2.9 1.2-3c.5-1 .9-2.1 1.4-3.1s1.8-3.9 2.9-5.8a86.1 86.1 0 0 1 6.9-10.8l4-5c1.4-1.5 2.8-3.1 4.3-4.6A77.3 77.3 0 0 1 43 279a99 99 0 0 1 9.8-6.6c3.4-1.8 6.7-3.6 10.1-5a88.6 88.6 0 0 1 19.6-5.6 82.3 82.3 0 0 1 29.8.3l2.5.5 2.2.5 3.3 1 2.8.9h-2.9l-3.4.2-4.6.3a78.7 78.7 0 0 0-12.2 1.7 107.9 107.9 0 0 0-15.1 4.1 98.8 98.8 0 0 0-16.4 7.5 96.1 96.1 0 0 0-16 11.7 94.1 94.1 0 0 0-13.7 15.7 77.1 77.1 0 0 0-5.5 9.2c-.9 1.6-1.6 3.2-2.4 4.8s-.6 1.6-1 2.4-.6 1.5-1 2.5a100.4 100.4 0 0 0-5.3 21.1 94.7 94.7 0 0 0-.9 10.6c-.1 3.5 0 7 .2 10.4s.8 6.8 1.4 10a88 88 0 0 0 2.3 9.5 93.9 93.9 0 0 0 6.8 16.7 84.6 84.6 0 0 0 8.4 13.1 104.2 104.2 0 0 0 8 9.3c2.4 2.4 4.4 4.3 5.8 5.5z" fill="#fff" opacity=".48"></path><circle cx="743.9" cy="351" r="99" fill="#fdbb15"></circle><g fill="#7b3588"><path d="M839.9 374.9l-96-23.9 81.7 55.9a96.8 96.8 0 0 0 14.3-32z"></path><path d="M720 447.1l23.9-96.1-55.9 81.7a101 101 0 0 0 32 14.4z"></path><path d="M794.9 435.8l-51-84.8 18.3 97.3a97.7 97.7 0 0 0 32.7-12.5z"></path><path d="M659.1 402l84.8-51-97.3 18.3a99.9 99.9 0 0 0 12.5 32.7z"></path><path d="M647.9 327.1l96 23.9-81.6-55.9a98.8 98.8 0 0 0-14.4 32z"></path><path d="M743.9 351l97.3-18.2a98.2 98.2 0 0 0-12.5-32.8z"></path><path d="M767.8 255l-23.9 96 55.9-81.6a97 97 0 0 0-32-14.4z"></path><path d="M692.9 266.2l51 84.8-18.2-97.2a98.1 98.1 0 0 0-32.8 12.4z"></path></g><path d="M515.8 588.7a24.7 24.7 0 0 1-6.5-4.6 23.7 23.7 0 0 1-5-7l165.1-163.6a35.8 35.8 0 0 1 6.4 5.1 32.4 32.4 0 0 1 5 6.5z" fill="#e96311"></path><path d="M814.3 294.5l-2.3-1.7c-1.5-1.2-3.8-2.7-6.7-4.6a98.8 98.8 0 0 0-10.7-5.9 89.7 89.7 0 0 0-14.5-5.5 94.4 94.4 0 0 0-17.7-3.2 79.6 79.6 0 0 0-9.8-.3 87.6 87.6 0 0 0-10.1.8 90.9 90.9 0 0 0-10.2 1.8c-3.4.9-6.8 1.9-10.2 3.1a100.8 100.8 0 0 0-19.5 9.6 21 21 0 0 0-2.2 1.5c-.7.5-1.5.9-2.2 1.5a43.5 43.5 0 0 0-4.2 3.3 83.5 83.5 0 0 0-20.4 23.9 87.6 87.6 0 0 0-8.1 18.1 92.2 92.2 0 0 0-4 17.6 109.9 109.9 0 0 0-1 15.6c.1 4.7.5 8.9.9 12.3a43 43 0 0 0 .7 4.5c.2 1.4.3 2.5.5 3.4l.6 2.9-1.5-2.5c-.4-.9-1-1.9-1.6-3.1l-1-2-1-2.4a86.7 86.7 0 0 1-4.9-49.4 76 76 0 0 1 2.8-10.9 78.8 78.8 0 0 1 4.4-11 87.8 87.8 0 0 1 6-10.7c1.1-1.8 2.4-3.5 3.6-5.2s2.6-3.3 4.1-4.9a86 86 0 0 1 9.1-9l5.1-4 2.7-2 2.8-1.8 2.5-1.5.5-.3.3-.2.7-.4 1.5-.8a61 61 0 0 1 5.7-2.9 95.4 95.4 0 0 1 59.3-7.1 82.7 82.7 0 0 1 19.3 6.7 76.4 76.4 0 0 1 23.9 17.9l3.1 3.6 2.1 2.8z" fill="#fff" opacity=".48"></path><path d="M416.7 461.9s-13.1 39.3-99.3 31.8-189.8-64-258.5 16.9C6.5 572.4 29 623 40.2 682.9c9.8 52.3 2.5 77.5-8.2 88 10.7 10.6 18 35.8 8.2 88.1C29 918.9 6.5 969.5 58.9 1031.3c68.7 80.9 172.3 24.4 258.5 16.9s99.3 31.8 99.3 31.8 13.1-39.3 99.2-31.8 189.9 64 258.5-16.9c52.5-61.8 30-112.4 18.8-172.3-9.8-52.3-2.5-77.5 8.2-88.1-10.7-10.5-18-35.7-8.2-88 11.2-59.9 33.7-110.5-18.8-172.3-68.6-80.9-172.3-24.4-258.5-16.9s-99.2-31.8-99.2-31.8z" fill="#421c2e"></path><path d="M676.9 490.7c34.8 0 59.4 10.7 79.9 34.9 37.3 44 29.7 78.6 19.2 126.5-1.9 8.6-3.9 17.4-5.6 26.6-7.5 40.4-6.4 71.3 3.3 92.2-9.7 21-10.8 51.9-3.3 92.3 1.7 9.2 3.7 18 5.6 26.6 10.5 47.9 18.1 82.5-19.2 126.5-20.5 24.2-45.1 34.9-79.9 34.9-27.1 0-57.3-6.7-86.6-13.2-23.9-5.3-48.6-10.8-72.3-12.9-8-.7-15.6-1-22.9-1-39.3 0-63.6 10-78.4 21-14.9-11-39.2-21-78.4-21-7.3 0-15 .3-22.9 1-23.8 2.1-48.5 7.6-72.4 12.9-29.2 6.5-59.5 13.2-86.6 13.2-34.7 0-59.4-10.7-79.8-34.9-37.4-44-29.8-78.6-19.2-126.5 1.9-8.6 3.8-17.4 5.5-26.6 7.6-40.4 6.5-71.3-3.3-92.3 9.8-20.9 10.9-51.8 3.3-92.2-1.7-9.2-3.6-18-5.5-26.6-10.6-47.9-18.2-82.5 19.2-126.5 20.4-24.2 45.1-34.9 79.8-34.9 27.1 0 57.4 6.7 86.6 13.2 23.9 5.3 48.6 10.8 72.4 12.9 7.9.7 15.6 1 22.9 1 39.2 0 63.5-10 78.4-21 14.8 11 39.1 21 78.4 21 7.3 0 14.9-.3 22.9-1 23.7-2.1 48.4-7.6 72.3-12.9 29.3-6.5 59.5-13.2 86.6-13.2m-260.2-28.8s-11 32.8-78.4 32.8c-6.5 0-13.4-.3-20.9-1-51.1-4.4-108.5-26.1-161-26.1-35.9-.1-69.6 10.1-97.5 43C6.5 572.4 29 623 40.2 682.9c9.8 52.3 2.5 77.5-8.2 88 10.7 10.6 18 35.8 8.2 88.1C29 918.9 6.5 969.5 58.9 1031.3c27.9 32.9 61.6 43 97.5 43 52.5 0 109.9-21.7 161-26.1 7.5-.7 14.4-1 20.9-1 67.5 0 78.4 32.8 78.4 32.8s10.9-32.8 78.4-32.8c6.4 0 13.4.3 20.8 1 51.2 4.4 108.5 26.1 161 26.1 36 0 69.6-10.1 97.5-43 52.5-61.8 30-112.4 18.8-172.3-9.8-52.3-2.5-77.5 8.2-88.1-10.7-10.5-18-35.7-8.2-88 11.2-59.9 33.7-110.5-18.8-172.3-27.9-32.9-61.5-43-97.5-43-52.5 0-109.8 21.7-161 26.1-7.4.7-14.4 1-20.8 1-67.5 0-78.4-32.8-78.4-32.8z" fill="#903e64"></path><path d="M676.9 480.2c37.7 0 65.6 12.2 87.9 38.6 40.7 47.9 32.2 86.6 21.4 135.6-1.8 8.4-3.8 17.2-5.4 26.2-7.8 41.5-6.2 71.8 4.8 90.3-11 18.6-12.6 48.9-4.8 90.4 1.6 9 3.6 17.7 5.4 26.2 10.8 49 19.3 87.7-21.4 135.6-22.3 26.4-50.2 38.6-87.9 38.6-28.2 0-59-6.8-88.8-13.4-23.6-5.3-48-10.7-71.1-12.7-7.6-.7-14.9-1-21.9-1-30.7 0-55 6.3-72 18.8a60.4 60.4 0 0 0-6.4 5.4 62.1 62.1 0 0 0-6.5-5.4c-17-12.5-41.2-18.8-71.9-18.8-7 0-14.4.3-22 1-23.1 2-47.4 7.4-71 12.7-29.8 6.6-60.6 13.4-88.9 13.4-37.6 0-65.5-12.2-87.9-38.6-40.7-47.9-32.2-86.6-21.4-135.6 1.9-8.5 3.8-17.2 5.5-26.2 7.8-41.5 6.2-71.8-4.8-90.4 11-18.5 12.6-48.8 4.8-90.3-1.7-9-3.6-17.8-5.5-26.2-10.8-49-19.3-87.7 21.4-135.6 22.4-26.4 50.3-38.6 87.9-38.6 28.3 0 59.1 6.8 88.9 13.4 23.6 5.3 47.9 10.7 71 12.7 7.6.7 15 1 22 1 30.7 0 54.9-6.3 71.9-18.8a62.1 62.1 0 0 0 6.5-5.4 60.4 60.4 0 0 0 6.4 5.4c17 12.5 41.3 18.8 72 18.8 7 0 14.3-.3 21.9-1 23.1-2 47.5-7.4 71.1-12.7 29.8-6.6 60.6-13.4 88.8-13.4m-260.2-18.3s-11 32.8-78.4 32.8c-6.5 0-13.4-.3-20.9-1-51.1-4.4-108.5-26.1-161-26.1-35.9-.1-69.6 10.1-97.5 43C6.5 572.4 29 623 40.2 682.9c9.8 52.3 2.5 77.5-8.2 88 10.7 10.6 18 35.8 8.2 88.1C29 918.9 6.5 969.5 58.9 1031.3c27.9 32.9 61.6 43 97.5 43 52.5 0 109.9-21.7 161-26.1 7.5-.7 14.4-1 20.9-1 67.5 0 78.4 32.8 78.4 32.8s10.9-32.8 78.4-32.8c6.4 0 13.4.3 20.8 1 51.2 4.4 108.5 26.1 161 26.1 36 0 69.6-10.1 97.5-43 52.5-61.8 30-112.4 18.8-172.3-9.8-52.3-2.5-77.5 8.2-88.1-10.7-10.5-18-35.7-8.2-88 11.2-59.9 33.7-110.5-18.8-172.3-27.9-32.9-61.5-43-97.5-43-52.5 0-109.8 21.7-161 26.1-7.4.7-14.4 1-20.8 1-67.5 0-78.4-32.8-78.4-32.8z" fill="#3a1b2a"></path><path d="M66.3 703.8c5 38.6-1.4 58.3-10.3 67.1 8.6 8.6 14.8 27.1 10.8 63h699.8c-4-35.9 2.2-54.4 10.7-63-8.9-8.8-15.2-28.5-10.2-67.1z" fill="#fc931e"></path><g><path d="M363.5 279.2s30.5-3.4 59.4-3.6a325.7 325.7 0 0 1 55.4 4.8s-91.2 8.3-114.8-1.2z" fill="#e96311"></path><path d="M418.5 283.4a174.4 174.4 0 0 0-42.6-5.3c-80.8 0-146.3 55-146.3 122.9s65.5 123 146.3 123a174.4 174.4 0 0 0 42.6-5.3 174.4 174.4 0 0 0 42.6 5.3c80.8 0 146.3-55.1 146.3-123s-65.5-122.9-146.3-122.9a174.4 174.4 0 0 0-42.6 5.3z" fill="#e96311"></path><path d="M388.9 281.1s15.9-3 16.6-14.7 5.4-28.7 14.6-40.1 25.9-13.5 31.9-4.6l-4.2 8.2s-6.1-3.9-10.7 2.8-5.3 26.2-3.5 33.3 15.6 14.9 15.6 14.9-17 4-30.4 3.9c-7.8 0-17.7-2.1-29.9-3.7z" fill="#6e6901"></path><path d="M420.3 282.4a48.1 48.1 0 0 0-12.8-3.2 63.8 63.8 0 0 0-18.6 0c-63.2 7.9-112 59.4-112 121.8 0 67.9 57.8 123 129 123q6.5 0 12.6-.6t12.6.6c71.2 0 128.9-55.1 128.9-123 0-61.8-45.1-113.1-106.9-121.7-6.1-.8-12.6-.1-18.5.4a59.2 59.2 0 0 0-14.3 2.7z" fill="#fa7d08"></path><path d="M419.6 278.1c-43.2.2-81.1 57.7-81.1 122.9s34.6 124.6 80 124.6 80-59.4 80-124.6-35.6-123.1-78.9-122.9z" fill="#ffa20d"></path><path fill="#3a1b2a" d="M417.8 369.5l-25 45.7h46.8l-21.8-45.7z"></path><path d="M484.6 433.3l-3.7 23.2-32.5 4.4-2.3-21.2c-10.9 1.1-22.3 1.9-34.1 2s-21-.4-30.8-1.2l2.2 22.1-32.8-5.9c-2.9-6.6-6.5-15-8.5-21.8a307 307 0 0 1-87-31.8c2.7 3.7 19.4 30 46.1 49.6l1.8-9.1 13.8 4.7 8.6 16.5c19.2 8.7 43.1 15.5 72.6 17.5l3.6-24.1 27.5 3.3 1.3 21.1c37.8-2.1 66.4-12.8 87.7-25.9l2.4-21.6 12.7-5 2.6 14.1c24.1-19.8 34.8-40.5 37.6-44.4-16.5 9.5-47.5 24.3-88.8 33.5z" fill="#3a1b2a"></path><path d="M322.8 360.2l16 2.2-2.3 14.2c20.5 1.7 37.6 2.6 37.6 2.6l-26.8-52.4-74.6 41.7c7.5 2.5 26.4 4.8 45.9 6.6z" fill="#3a1b2a"></path><path d="M495.7 365.1l11.6-1.6 7.2 11.7c19.8-1.8 39.2-4.2 46.7-6.7l-74.5-41.7-26.8 52.4s16.8-.9 37-2.5z" fill="#3a1b2a"></path></g><g><path d="M230.2 225.4s91 27.3 111.9 20.1l39.2-75.6 33.1-10.9-3.4-31.2 25.6-12.3 7-23.4s90.3-77.5 123.6-89.4S631 22.1 631 22.1s27.8 28.3 21.7 52.6-16.2 37.6-16.2 37.6a10.3 10.3 0 0 1-4-11.1c11.6-47.7-26.7-50.6-26.7-50.6s-54.2 32.5-64.3 59.3-11.9 43.1-11.9 43.1 10.5 25.1 6.8 26.5-21.9 11.3-21.9 11.3l15 99.4s7.9 11 38.9 17.6 65.3 4.1 65.3 4.1 2.4 26.4-21.4 31.7-24.4 20.9-49.8 23.5-145-9.3-157.4-22.6-28.3-35.2-52.1-34.4-72.8-5.9-97.2-30-25.6-54.7-25.6-54.7z" fill="#3b1929"></path><g fill="#903e64"><path d="M437.5 112.6l-.9 2.9-25.6 12.3 33.4 14.1z"></path><path d="M530.1 154.2c-17.9 2.7-42.4 2.9-76-1.3 0 0 42.1 19.1 83 25.8 1.2-3.9-5.2-19.9-7-24.5z"></path><path d="M379.6 173.3c30.7 10.6 77.4 25.6 87.4 20.9 0 0-29.8-18.2-53.4-34.9l-32.3 10.6z"></path></g><path d="M357.8 214.6s26.4 20.1 78.4 32.6 72.8 8.1 89.1 6l5.5 36.2s-49.8 14.6-126-10.9c-60.9-20.4-63.1-33.6-63.1-33.6z" fill="#c8b89f"></path><path d="M412.3 289.3a11.4 11.4 0 0 1-4.1-.7l-17.7-5.9a13 13 0 0 1-8.3-16.4l9.5-28.4a13 13 0 0 1 12.4-8.9 14 14 0 0 1 4.1.6l17.7 5.9a13.1 13.1 0 0 1 8.2 16.5l-9.4 28.4a13.1 13.1 0 0 1-12.4 8.9zm-8.2-51.6a4.3 4.3 0 0 0-4.1 2.9l-9.5 28.4a4.3 4.3 0 0 0 2.7 5.4l17.8 6a4.4 4.4 0 0 0 5.4-2.8l9.5-28.4a4.5 4.5 0 0 0-.3-3.2 4.2 4.2 0 0 0-2.5-2.2l-17.7-5.9z" fill="#e96311"></path></g><g fill="none" stroke="#903e64" stroke-miterlimit="10" stroke-width="4.2"><path d="M84.5 545.2l17.7 17.7"></path><path d="M84.5 562.9l17.7-17.7"></path><path d="M105.3 554.1h46.9"></path><path d="M226.9 545.2l17.7 17.7"></path><path d="M226.9 562.9l17.7-17.7"></path><path d="M247.7 554.1h46.8"></path><path d="M298.1 545.2l17.7 17.7"></path><path d="M298.1 562.9l17.7-17.7"></path><path d="M318.9 554.1h46.8"></path><path d="M369.3 545.2l17.7 17.7"></path><path d="M369.3 562.9l17.7-17.7"></path><path d="M390 554.1h46.9"></path><path d="M440.5 545.2l17.7 17.7"></path><path d="M440.5 562.9l17.7-17.7"></path><path d="M461.2 554.1h46.9"></path><path d="M511.6 545.2l17.7 17.7"></path><path d="M511.6 562.9l17.7-17.7"></path><path d="M532.4 554.1h46.9"></path><path d="M582.8 545.2l17.7 17.7"></path><path d="M582.8 562.9l17.7-17.7"></path><path d="M603.6 554.1h46.9"></path><g><path d="M654 545.2l17.7 17.7"></path><path d="M654 562.9l17.7-17.7"></path></g><path d="M674.8 554.1h46.8"></path><g><path d="M725.2 545.2l17.7 17.7"></path><path d="M725.2 562.9l17.7-17.7"></path></g><g><path d="M155.7 545.2l17.7 17.7"></path><path d="M155.7 562.9l17.7-17.7"></path></g><path d="M176.5 554.1h46.8"></path></g><g><path d="M721.7 634.8c.1-1.5.2-2.9.2-3.8a2.7 2.7 0 0 1 1-1.9l18.5-15a2.6 2.6 0 0 1 4.2 2v37.6a2.6 2.6 0 0 1-4.2 2l-18.5-15a3 3 0 0 1-1-1.9c0-.9-.1-2.3-.2-3.8z" fill="#7b3588"></path><path d="M656.6 634.8a36.3 36.3 0 0 0-.2-3.8 2.3 2.3 0 0 0-.9-1.9l-18.5-15a2.6 2.6 0 0 0-4.2 2v37.6a2.6 2.6 0 0 0 4.2 2l18.5-15a2.5 2.5 0 0 0 .9-1.9 36.3 36.3 0 0 0 .2-3.8z" fill="#7b3588"></path><ellipse cx="689.2" cy="634.9" rx="36.2" ry="22.7" fill="#7b3588"></ellipse><g fill="#fdbb15"><path d="M662.5 650.2A42.7 42.7 0 0 0 676 656l-13.8-36.2a24.3 24.3 0 0 0-7.7 8.4z"></path><path d="M715.3 619.2a40.8 40.8 0 0 0-12.7-5.3l13.2 36.3a22.5 22.5 0 0 0 8-8.6z"></path><path d="M675.4 613.9l15.8 43.6a61.7 61.7 0 0 0 12.5-1.8l-16.5-43.4a55.1 55.1 0 0 0-11.8 1.6z"></path></g><g opacity=".48"><path d="M721.8 630.3l-.8-.3-2-.9-3-1.3-4-1.5a59.8 59.8 0 0 0-10-2.8l-5.6-1a54.6 54.6 0 0 0-5.8-.4 28.1 28.1 0 0 0-2.9 0h-3a53.2 53.2 0 0 0-5.6.6 64.6 64.6 0 0 0-10 2.2c-2.9.9-5.4 1.8-7.2 2.5l-2.7 1.2a13.7 13.7 0 0 1 1.8-2.5c.7-.7 1.5-1.6 2.5-2.5a28.2 28.2 0 0 1 3.6-2.8 41.7 41.7 0 0 1 4.7-2.8 43.7 43.7 0 0 1 5.8-2.2l3.1-.8a18.6 18.6 0 0 1 3.4-.6l3.3-.3c1.2-.1 2.3 0 3.5 0a38.2 38.2 0 0 1 6.8.7 57.9 57.9 0 0 1 6.3 1.8 41.3 41.3 0 0 1 5.6 2.6 40.3 40.3 0 0 1 4.6 2.9c1.3 1.1 2.5 2.1 3.4 3l2.4 2.6a25.4 25.4 0 0 1 1.8 2.6z" fill="#fff"></path></g></g><g><path d="M113.3 634.8c-.1-1.5-.2-2.9-.2-3.8a2.7 2.7 0 0 0-1-1.9l-18.5-15a2.6 2.6 0 0 0-4.2 2v37.6a2.6 2.6 0 0 0 4.2 2l18.5-15a3 3 0 0 0 1-1.9c0-.9.1-2.3.2-3.8z" fill="#7b3588"></path><path d="M178.4 634.8a36.3 36.3 0 0 1 .2-3.8 2.6 2.6 0 0 1 .9-1.9l18.5-15a2.6 2.6 0 0 1 4.3 2v37.6a2.6 2.6 0 0 1-4.3 2l-18.5-15a2.8 2.8 0 0 1-.9-1.9 36.3 36.3 0 0 1-.2-3.8z" fill="#7b3588"></path><ellipse cx="145.8" cy="634.9" rx="36.2" ry="22.7" fill="#7b3588"></ellipse><g fill="#fdbb15"><path d="M119.7 619.2l-8.5 22.4a22.5 22.5 0 0 0 8 8.6l13.2-36.3a42.9 42.9 0 0 0-12.7 5.3z"></path><path d="M131.4 655.7a59.7 59.7 0 0 0 12.5 1.8l15.7-43.6a54.2 54.2 0 0 0-11.8-1.6z"></path><path d="M172.6 650.2l7.9-22a23.4 23.4 0 0 0-7.7-8.4L159.1 656a42.7 42.7 0 0 0 13.5-5.8z"></path></g><g opacity=".48"><path d="M113.3 630.3a15.9 15.9 0 0 1 1.7-2.5l2.4-2.6c1-.9 2.1-1.9 3.5-3a31.8 31.8 0 0 1 4.5-2.9 41.3 41.3 0 0 1 5.6-2.6 53.8 53.8 0 0 1 6.4-1.8 38.2 38.2 0 0 1 6.8-.7c1.1 0 2.2-.1 3.5 0l3.2.3a18.6 18.6 0 0 1 3.4.6l3.2.8a48.2 48.2 0 0 1 5.7 2.2 29.2 29.2 0 0 1 4.7 2.8 28.2 28.2 0 0 1 3.6 2.8 19.5 19.5 0 0 1 2.5 2.5 13.7 13.7 0 0 1 1.8 2.5l-2.7-1.2c-1.8-.7-4.2-1.6-7.2-2.5a62.1 62.1 0 0 0-10-2.2 53.2 53.2 0 0 0-5.6-.6h-3a28 28 0 0 0-2.9 0 56.5 56.5 0 0 0-5.8.4l-5.6 1a61.3 61.3 0 0 0-9.9 2.8l-4 1.5-3.1 1.3-2 .9z" fill="#fff"></path></g></g><path d="M480.3 931.7c-.7-34.5-33.8-67.7-62.3-67.7h-1.5c-28.5 0-61.7 33.2-62.3 67.7-.9 47.7 35 25.1 37.1 40.4 1 7.3-11.2 5.3-12.6 26.9-.1 1.7 5 4.2 13.3 6 .3-8.3 2.3-16.8 4.6-20.3a3 3 0 0 1 5 3.3c-1.7 2.5-3.5 10.5-3.6 18.1a133.3 133.3 0 0 0 16.6 1.3v-19.8a3 3 0 0 1 3-3 3.1 3.1 0 0 1 3 3v19.8a121.1 121.1 0 0 0 17.2-1.5c-.2-7.5-1.9-15.4-3.6-17.9a3 3 0 0 1 5-3.3c2.2 3.4 4.2 11.8 4.6 20 7.5-1.8 12.1-4 11.9-5.7-1.3-21.6-13.5-19.6-12.6-26.9 2.1-15.3 38.1 7.3 37.2-40.4zm-87.4 12.6a15.3 15.3 0 1 1 15.3-15.3 15.3 15.3 0 0 1-15.3 15.3zm25.2 16.4l-.9-1.2c0 .1-.7 1-.8 1.2-4.3 4.7-9.4-.3-8-5.8s8.2-10.2 8.8-10.6 7.2 4.6 8.9 10.6-3.7 10.5-8 5.8zm23.2-16.4a15.3 15.3 0 1 1 15.2-15.3 15.3 15.3 0 0 1-15.2 15.3z" fill="#baad8a"></path></g></g></svg>