<svg xmlns="http://www.w3.org/2000/svg" width="821" height="1080" viewBox="0.022984961047768593 0.20000000298023224 820.9542846679688 1079.699951171875" style=""><g><title>hlwnlic53_81386072</title><g data-name="Layer 2"><path d="M566.8 867.5l-54.8-282H307.7l-60.4 310.6h.7a166.8 166.8 0 0 0-1.3 20.1c0 90.4 73.3 163.7 163.8 163.7a163.8 163.8 0 0 0 156.3-212.4z" fill="#ffefcf"></path><path d="M804.6 611h1.4l-20.9-10.4s-162.8-66.6-167-387.9C618.1 99.1 528.9 6.4 416.8.4V.2h-12.6v.2C292 6.4 202.9 99.1 202.9 212.7c-4.2 321.3-167 387.9-167 387.9L15 611h1.4a23.1 23.1 0 0 0 6.7 45.2h774.7a23.1 23.1 0 0 0 6.8-45.2z" fill="#d94631"></path><path d="M1.1 625.8a55 55 0 0 0-.8 9.1 53.5 53.5 0 0 0 104.4 16.3 53.5 53.5 0 0 0 101.9 0 53.6 53.6 0 0 0 102 0 53.5 53.5 0 0 0 101.9 0 53.5 53.5 0 0 0 101.9 0 53.5 53.5 0 0 0 101.9 0 53.5 53.5 0 0 0 101.9 0 53.5 53.5 0 0 0 104.5-16.3 55 55 0 0 0-.8-9.1z" fill="#fcaf17"></path></g></g></svg>