<svg xmlns="http://www.w3.org/2000/svg" viewBox="-0.000415802001953125 0.0000457763671875 1080.000732421875 1039.7750244140625" style=""><g><g data-name="Layer 2"><path d="M655.58 71.85l67 135.79a128.89 128.89 0 0 0 97 70.51l149.92 21.77c105.72 15.37 147.94 145.29 71.43 219.86L932.5 625.47a128.91 128.91 0 0 0-37.07 114.09L921 888.81c18.06 105.29-92.46 185.59-187 135.87l-134-70.46a128.9 128.9 0 0 0-120 0l-134 70.46c-94.56 49.72-205.08-30.58-187-135.87l25.6-149.25a128.91 128.91 0 0 0-37.1-114.09L39.07 519.78c-76.51-74.57-34.29-204.49 71.43-219.86l149.85-21.77a128.89 128.89 0 0 0 97-70.51l67-135.79c47.35-95.8 183.95-95.8 231.23 0z" fill="#f6887e" data-name="Layer 1"></path></g></g></svg>