<svg xmlns="http://www.w3.org/2000/svg" width="909.3" height="1080" viewBox="0 0 909.2999877929688 1079.9951171875" style=""><g><title>icons171_386127264</title><g data-name="Layer 2"><path d="M672.1 0C624.7 0 0 221.4 0 276.7s221.4 743.3 237.2 774.9c0 0-15.8-79 260.9-229.3s411.2-158.1 411.2-181.8S719.5 0 672.1 0z" fill="#24b2aa"></path><path d="M233.1 1057.6c94.5 60.1 231.3-15.3 320.4-56.3C669.5 948.1 783.6 887.5 897 829c5.1-2.6 6.7-8.7 5.7-13.9-10.5-52.2-12.2-100.2-4.5-152.8 2.3-15.5-21.5-22.2-23.7-6.5-4.9 33.4-7.9 66.5-5.3 100.3s15.4 52-18.4 68.8c-62.2 30.9-124.6 61-186.1 93.2-58.2 30.5-116.6 60.6-177.5 85.4-70.7 28.8-169.5 78.7-241.7 32.8-13.4-8.5-25.8 12.8-12.4 21.3z" fill="#fff"></path><path d="M255.8 1052.3c168-178.2 398.9-267.6 623.4-351.8 14.7-5.5 8.4-29.3-6.5-23.8-228.4 85.7-463.4 176.9-634.3 358.2-10.9 11.5 6.5 29 17.4 17.4z" fill="#fff"></path><path d="M302.2 1063.6a1700.7 1700.7 0 0 1 573.7-312.9c15.1-4.8 8.7-28.6-6.5-23.8a1736.3 1736.3 0 0 0-584.6 319.2c-12.3 10.2 5.3 27.5 17.4 17.5z" fill="#fff"></path><path d="M310.5 1078.2c39.6-.2 75.8-40.9 108.4-61 50.6-31.3 103.4-58.9 156.8-85.1 100.5-49.4 203.9-92.9 304.2-142.6 14.3-7.1 1.8-28.3-12.4-21.3-92.6 45.9-187.8 86.4-280.9 131.2-46.4 22.4-92.4 45.6-137.2 71.1-23.9 13.6-47.4 27.7-70.3 42.8-19.6 13-44.3 40.1-68.6 40.3-15.9.1-15.9 24.7 0 24.6z" fill="#fff"></path><path d="M856 420.3c-36.8 15.5-73.7 31-111.7 43.4-17.3 5.7-34.7 11.2-52.6 14.7a151.6 151.6 0 0 1-38.6 4.6c-29.1 2.5-44.3-10-45.6-37.3-13.5-38.3 0-58.3 29.6-85 14.9-13.6 32.7-24.4 49.9-34.8 23-13.9 69.8-49.9 97-48.7 33.1 1.4-5.6-14.2 8.9-2.4 2.2 1.7 5.3 15.5 6 17.6 6.2 18.2 12.3 36.3 18.5 54.4l30 88.6c5.1 15 28.9 8.5 23.8-6.5l-56.8-167.3c-1.9-5.7-6.1-8.3-11.8-9-51.5-6.7-115.5 41.6-155.2 69.3-37.4 26-77.7 64.5-76.5 114 3.3 141.6 233.7 32.5 291.7 8.1 14.4-6 8-29.9-6.6-23.7z" fill="#fff"></path><path d="M675.7 364.4c-15.2 7.8-26.1 25.6-20.7 42.8s25.6 27.6 42.2 18.8 25.6-29.8 18-46.5-28.3-20.4-40.4-8 6.3 28.7 17.4 17.4c-1.3 1.3-.7-.9.3.5a5 5 0 0 1 .7 3.5c-.3 3.8-4.9 11.9-9.1 12s-6-4.5-5.9-7.7c.4-5.5 5.5-9.2 9.9-11.5 14.1-7.2 1.7-28.5-12.4-21.3z" fill="#fff"></path><path d="M292.5 408.7c34.8-37.7 64.8 25.9 83.3 50.7 8.1 10.9 25.7 4.9 22.5-9.5-4.9-22.1-3-46.3 1.4-68.4 2.5-11.9 5.5-28.5 13.8-37.8 12.1-13.7 15.1-10.4 22.4.6 18 27.2 3.8 93.6-2.6 122.3-3.3 14.6-7.7 42.3-19.9 51.9-15.9 12.5-37.6 1.4-53.5-7.2-30.6-16.7-92.4-64.7-65.4-105.1 8.8-13.2-12.5-25.5-21.3-12.4C234 452.4 314.3 519 362 539.7c62.7 27 85.9-19 96.8-74.9 6.4-33 25.8-141.8-22.8-156.2-64-18.9-68.9 114.1-61.4 147.8l22.5-9.5c-29.4-39.2-70.3-111.7-122-55.6-10.7 11.7 6.7 29.1 17.4 17.4z" fill="#fffaf3"></path><path d="M178.2 670q13.4 50.8 29.6 100.8c4.8 15.1 28.6 8.6 23.7-6.5q-16-50.1-29.6-100.8c-4-15.3-27.8-8.8-23.7 6.5z" fill="#fffaf3"></path><path d="M255.7 847.8h2.6c15.9 0 15.9-24.6 0-24.6h-2.6c-15.9 0-15.9 24.6 0 24.6z" fill="#fffaf3"></path></g></g></svg>