<svg xmlns="http://www.w3.org/2000/svg" width="1080" height="692" viewBox="-0.017948150634765625 -0.014972686767578125 1080.035400390625 692.0525512695312" style=""><g><title>icons85_327518226</title><g data-name="Layer 2"><path d="M1079.3 505.8c-7.6-68.3-50.1-121.2-98.1-168.3-103.8-101.8-228.7-177-358.7-236.4C547.1 66.6 465 31.7 383.7 14.2 272.1-9.8 149.8-9.1 54.3 61.4-14.1 111.9-17.6 180.3 42.1 291c35.3 65.5 92.2 115 208.2 181.2 79.6 45.5 150.3 77.8 233.4 113.5C548 613.5 641 650 667.1 658.1c47.3 14.4 116.1 28.1 165.3 33.1 21.8 2.2 85.3-.2 105.1-4.1 34.6-6.5 76.4-31.6 103.2-61.9s43-79.4 38.6-119.4zm-472.8-57.2a345.2 345.2 0 0 1-88.4-29.8c-38.7-19.2-75.8-41.5-113-63.4-48.7-28.7-120.3-123.7-43.2-164.6 43.3-23 107.1-7.2 149.9 8.5 58.9 21.5 120.7 59.9 170.8 98.8l5.8 4.5c42.8 33.9 75.2 81.2 50.3 136.4-18.1 40.2-101.3 15.6-132.2 9.6z" fill="#1a171b"></path><path d="M688.4 302.6l-5.8-4.5c-50.1-38.9-111.9-77.3-170.8-98.8-42.8-15.7-106.6-31.5-149.9-8.5-77.1 40.9-5.5 135.9 43.2 164.6 37.2 21.9 74.3 44.2 113 63.4a345.2 345.2 0 0 0 88.4 29.8c30.9 6 114.1 30.6 132.2-9.6 24.9-55.2-7.5-102.5-50.3-136.4zm-179.3 36.2c-18.1-13.5-34.7-22-23.4-45.9 14.6-31.1 56.9-26.5 76.3-2.7 11.1 13.5 11.8 27.3 6.6 38-9.2 18.6-36.4 28-59.5 10.6z" fill="#98bdd6"></path><path d="M318.7 325.4c-11.7-12.3-33.2-22.3-34.6-41.4-.3-5.1-7.4-6.2-8.9-1.1-6.4 21.4 18.5 43.7 35.1 53 5.9 3.2 13.1-5.5 8.4-10.5z" fill="#d9d6d0"></path><path d="M291.4 359.9c-.8-7.7-10.4-13.3-16-17.3-7.6-5.6-15.1-11.4-22.4-17.4-12-10.1-33.9-28.1-29.9-46.1 1.2-5.2-6.6-8-8.8-3.1-8.5 19.2 8.2 37.8 20.7 50.7 9.2 9.5 19.6 18 30.1 26.2 5.6 4.4 14.9 13.3 22.8 11.5a4.2 4.2 0 0 0 3.5-4.5z" fill="#d9d6d0"></path><path d="M285.1 388c-12.9-6.9-27-10.1-39.7-17.8s-26.7-18.7-39.7-28.5-24.3-19.7-33.7-33.2-17.3-30-26.8-44.5c-2.5-3.7-8.3-.4-6 3.6 8.2 14 14.9 28.8 22.9 43 9.2 16.4 21.7 28.7 36.2 40.4 12.3 9.9 24.4 20 37.5 28.9s31.5 20.6 48 17.6c5.2-.9 5.7-7.2 1.3-9.5z" fill="#d9d6d0"></path><path d="M788.6 420.9c.9-11.7 1.3-23.5 2.2-35.2.3-3.3-5.1-4.9-6.5-1.7-4.9 11.1-6.2 23.1-7.4 35.1s-5.2 23.4-3.6 34.9c.4 2.5 4 3.5 5.7 1.6 8.4-9.2 8.6-22.7 9.6-34.7z" fill="#d9d6d0"></path><path d="M832.8 458.5c2.8-11.8 2.9-23.6 4-35.6 1.6-16.9 6.9-44.6-7.7-57.6-3.5-3.1-11.2-.7-9.1 4.9 6.1 16.8 3.1 35.4 1.1 52.8-1.4 11.4-1.7 22.5-4.7 33.8s-8.5 22.1-4.2 32.6a4.1 4.1 0 0 0 6.1 1.7c9.4-7 11.9-21.7 14.5-32.6z" fill="#d9d6d0"></path><path d="M895.9 438.8c.5-31.4-7.7-56.9-22.5-84.5-2.5-4.7-10.6-.6-8.5 4.4 5.1 11.5 9.9 23 13.1 35.2 3.8 14.7 3.3 29.5 3.1 44.6a196.5 196.5 0 0 1-5.6 41.8c-3.2 13.8-9.8 25.2-15.4 37.9-2.5 5.8 4.9 13.3 10.3 8.5 21.9-19.7 25.1-60.5 25.5-87.9z" fill="#d9d6d0"></path><path d="M943.5 520.2c5.9-19.6 8.4-39.9 9.6-60.4.9-17.3.4-35.3-2.9-52.4s-7.7-36.6-19.7-49.4c-2.9-3.1-9.2-.1-6.9 4.1 15.8 28.3 15.6 63.3 14.3 94.7a264.4 264.4 0 0 1-6.6 49.3 130.2 130.2 0 0 1-8 23.5c-2.7 6.3-6.7 11.9-5.6 18.9a4.2 4.2 0 0 0 4.8 3.4c12.9-2.2 17.8-21 21-31.7z" fill="#d9d6d0"></path></g></g></svg>