<svg xmlns="http://www.w3.org/2000/svg" width="200" height="68.91" viewBox="0 0 200.00450134277344 68.9000015258789" style=""><g><g data-name="Layer 2"><g data-name="Layer 1"><circle cx="180.58" cy="23.72" r="4.38" fill="#ff4500"></circle><path d="M118.36 42.32a3.08 3.08 0 0 0 3.28-3.16 10.3 10.3 0 0 0-.22-1.77c-1.3-5.66-5.91-9.84-11.39-9.84-6.49 0-11.75 5.88-11.75 13.13S103.54 53.8 110 53.8a11.66 11.66 0 0 0 9.09-3.8 2.53 2.53 0 0 0-.41-3.78 2.67 2.67 0 0 0-3.27.33 8.09 8.09 0 0 1-5.41 2.33c-3.3 0-6.06-2.82-6.7-6.56zM110 32.47c3 0 5.51 2.29 6.45 5.47h-12.86c.94-3.18 3.47-5.47 6.41-5.47z" fill="#fff"></path><path d="M98.55 30.09a2.45 2.45 0 0 0-2.06-2.42 9.52 9.52 0 0 0-8.88 3.22v-.33a2.46 2.46 0 0 0-4.92 0V50.7A2.52 2.52 0 0 0 85 53.25a2.46 2.46 0 0 0 2.61-2.46V40.4c0-4.59 3.46-8.37 8.2-7.85a2.66 2.66 0 0 0 .49 0 2.45 2.45 0 0 0 2.25-2.46z" fill="#fff"></path><path d="M183.05 32.75a2.47 2.47 0 1 0-4.93 0v18a2.47 2.47 0 0 0 4.93 0z" fill="#fff"></path><path d="M146.4 19.07a2.46 2.46 0 0 0-2.46-2.46 2.46 2.46 0 0 0-2.46 2.46v11a8.61 8.61 0 0 0-6.29-2.51c-6.49 0-11.76 5.88-11.76 13.13s5.27 13.11 11.76 13.11a8.74 8.74 0 0 0 6.34-2.54 2.46 2.46 0 0 0 4.87-.47zm-11.21 29.81c-3.77 0-6.84-3.67-6.84-8.2s3.07-8.21 6.84-8.21 6.81 3.68 6.81 8.21-3 8.2-6.81 8.2z" fill="#fff"></path><path d="M172.11 19.07a2.46 2.46 0 0 0-2.46-2.46 2.46 2.46 0 0 0-2.46 2.46v11a8.63 8.63 0 0 0-6.29-2.51c-6.5 0-11.76 5.88-11.76 13.13S154.4 53.8 160.9 53.8a8.7 8.7 0 0 0 6.33-2.54 2.46 2.46 0 0 0 4.88-.47zM160.9 48.88c-3.78 0-6.84-3.67-6.84-8.2s3.06-8.21 6.84-8.21 6.83 3.68 6.83 8.21-3.06 8.2-6.83 8.2z" fill="#fff"></path><path d="M195.55 50.79V32.47h2.19a2.25 2.25 0 0 0 2.26-2 2.19 2.19 0 0 0-2.19-2.33h-2.26v-3.51a2.52 2.52 0 0 0-2.3-2.54 2.45 2.45 0 0 0-2.62 2.45v3.56h-2a2.24 2.24 0 0 0-2.26 2 2.19 2.19 0 0 0 2.18 2.33h2.12v18.36a2.46 2.46 0 0 0 2.46 2.46 2.46 2.46 0 0 0 2.42-2.46z" fill="#fff"></path><circle cx="34.45" cy="34.45" r="34.45" fill="#ff4500"></circle><path d="M57.42 34.45a5 5 0 0 0-8.51-3.61 24.58 24.58 0 0 0-13.44-4.26l2.29-10.77 7.48 1.59a3.57 3.57 0 1 0 .36-1.76l-8.35-1.77a.88.88 0 0 0-.67.12.89.89 0 0 0-.39.57l-2.56 12A24.67 24.67 0 0 0 20 30.83a5 5 0 0 0-3.47-1.4A5 5 0 0 0 14.47 39a9.64 9.64 0 0 0-.12 1.52c0 7.73 9 14 20.1 14s20.1-6.27 20.1-14a10.85 10.85 0 0 0-.12-1.52 5 5 0 0 0 2.99-4.55zM23 38a3.59 3.59 0 1 1 3.59 3.59A3.59 3.59 0 0 1 23 38zm20 9.49c-2.45 2.44-7.14 2.63-8.52 2.63s-6.08-.19-8.52-2.63a.93.93 0 0 1 1.31-1.32c1.55 1.54 4.85 2.09 7.21 2.09s5.66-.55 7.21-2.09a.93.93 0 0 1 1.31 0 .94.94 0 0 1 0 1.36zm-.63-5.9A3.59 3.59 0 1 1 45.94 38a3.59 3.59 0 0 1-3.59 3.63z" fill="#fff"></path></g></g></g></svg>