<svg xmlns="http://www.w3.org/2000/svg" width="727.5" height="1080" viewBox="0.009357839822769165 0.02926778793334961 727.4948120117188 1079.9996337890625" style=""><g><title>icons127_349001438</title><g data-name="Layer 2"><path d="M228.4 1002.7a3.4 3.4 0 0 0-4.4-2.3c-10.8 3.6-21.4 12.5-27.9 21.7-2.3 3.2-5.6 8-3 11.8s6.4 2.5 9.5 1.5c5.6-1.8 10.4-5.6 15.7-8.1s11.5-3.9 15.2-7.6-.7-13.6-5.1-17zm-12 9.6l-1.6 1.5a.5.5 0 0 0-.3-.5l2.5-1.7z" fill="#5d52d1"></path><path d="M424.8 1055.3c-1-3.2-2.4-8.5-6.3-9.4s-7.9 3.4-10.2 5.8a2.6 2.6 0 0 0-.7 1.5c-2.6 0-4.9 3.8-2.5 6.3 4.6 4.7 10.1 12 11.8 18.2a3.5 3.5 0 0 0 5.3 1.7c3.5-2.6 3.2-7.1 3.7-11.1a33.6 33.6 0 0 0-1.1-13z" fill="#5d52d1"></path><path d="M477.4 1035.6c-1.9-5.8-5.8-13.1-11.2-16.3-1.9-1.1-4.8.4-4.9 2.5a9.9 9.9 0 0 0 .4 3.5 4.5 4.5 0 0 0-4.2.2 5.8 5.8 0 0 0-2.1 2l-.7.3a2.1 2.1 0 0 0-1 1.1c-2.2-.8-5.1.5-4.7 3.4s3 6.8 4.9 10.2a84.2 84.2 0 0 0 7.2 11.4c4.1 5.1 9.5 8.1 14.2 2.1s4.5-13.2 2.1-20.4z" fill="#5d52d1"></path><path d="M512.6 1027c-.5-6.1-2.4-12-6.6-16.6s-7.3-8-11.9-8.4a3.7 3.7 0 0 0-3.9 4.3 8.4 8.4 0 0 0-2.7.8c-8.9 4.9 8.9 20.6 11.9 24.5s4.1 6.9 8.1 6 5.4-6.7 5.1-10.6z" fill="#5d52d1"></path><path d="M531.8 1002.2c-3.3-5.3-6.4-10.4-11.9-13.7-2.2-1.3-4.8.8-4.9 3.1a6.6 6.6 0 0 0-2-.6 3.5 3.5 0 0 0-4.1 3.7l.3 1.5a3.7 3.7 0 0 0-3.9 2.9c0 .2-.1.3-.1.5a2.9 2.9 0 0 0 2.7 3.8 96.9 96.9 0 0 0 13.6 9.4c3.4 1.8 8.9 6.7 12.2 2.1s.3-9.4-1.9-12.7z" fill="#5d52d1"></path><path d="M551.4 977.5a34.8 34.8 0 0 0-9.3-13.7c-3.2-3.2-13.4-12.6-17.5-6-1.3 2-.8 3.8.3 5.5a2.8 2.8 0 0 0-.5 4.3l2.2 2.7a2.4 2.4 0 0 0-.7 2.2c-1.6 1.7-1.8 4.5.9 5.4s4.5 3 6.7 4.4l1 .6a22 22 0 0 0 3.2 2.1l4.7 3.4c2.6 2.2 6.2 5.2 9.2 1.5s.9-9.3-.2-12.4z" fill="#5d52d1"></path><path d="M514.3 938.9c-13.5-4-25.9 5.2-37.6 10.5-6.2 2.9-12.6 3.9-19.2 5s-11 1.7-17.2-.9c-3.6-1.6-9.4-3.4-12-6.4-5.9-7.1-4.2-20.9-2.6-29.2s3.3-16.1 5.5-23.9c2.8-10.1 10.7-27.4 3.8-37.2s-22.6-12-34.4-10.8c-15.7 1.6-31.8 6.1-46.5 11.6-9.1 3.4-17.9 7.6-26.8 11.4s-15.7 6.4-22.9 11.1-10.1 9.2-15.4 13.7-8.7 8.2-10.2 14.4a3.3 3.3 0 0 0-1 2.6c.8 11.5 1.3 23.1 3.1 34.5 1.5 9 4.1 20.9 3.5 30.7-2.6-.7-5.2-2-7.8-2.3a65.8 65.8 0 0 0-16 .5c-9.5 1.4-18.6 4.1-25.5 11-13.8 13.7-7.2 36.9 11 42.7 11.9 3.8 23.7 3.8 35.9 2.7 13.9-1.3 30.8-7.1 44.2-2.6s22.2 13 33.2 20.6c8.9 6.2 17.7 12.3 28.8 12.6 14.7.5 28.6-10.4 34.3-24a18.2 18.2 0 0 0 6 1.3c9.2.7 18.5-.3 26.7-4.6a29.4 29.4 0 0 0 14-15.8l1.5.4c5.4 1.3 10.9 1 15.8-1.9a22.5 22.5 0 0 0 7.6-8c6.1 1.1 12.7.2 16.8-4.9a30.8 30.8 0 0 0 5.5-11.9c9.7-2 14.4-16.9 14.9-25.6.7-12.7-4.4-23.5-17-27.3z" fill="#8193ca"></path><path d="M724.2 327.3a141.5 141.5 0 0 1-2.2-27.6c.3-8.6.5-16.9-2.4-25.2s-6.9-14.2-10.4-21.2a126.5 126.5 0 0 1-7.7-20.7c1.2.4 2.3.9 3.2 1.1 3.8 1.2 7.7 2.3 11.5.8 10.2-4.1 2-14.7-1.8-20.1-8.1-11.5-12.9-24.4-16.9-37.7s-8.6-24.4-12.6-36.9-7-23.9-12-35.4c-2.2-4.9-5.4-7.7-8.5-11.9s-6.5-9.4-9.9-14C641.8 61 629.2 40.8 611.9 27c-9.1-7.3-18.6-14.4-29.7-18.2a97.1 97.1 0 0 0-23.5-7.3C546.1-1 533 .4 520.3.6s-26.6 2.7-39.9 5.6c-24.9 5.4-43.6 22.3-64.2 36.4-10.4 7.1-15.8 15.3-22.5 25.7-2.6 4-4.9 7.9-7 11.9s-5.1 8-7.6 12.1c-5.2 8.4-9.5 17.2-14.2 25.8-3.7 6.9-8 15-8 23a3.8 3.8 0 0 0 .6 2.2c-.7 6.6-1 13.4-2.8 20a224.3 224.3 0 0 1-6.9 21.5c-2.6 7.4-4 15-6.3 22.4s-4.7 11.3-7 17-6.6 12.7-7.4 19.7c0 .2 0 .3-.1.4-1.2 5-1.3 10.9 3.5 14.2s7.4 1.6 11.2 1c-3.1 4.6-7.8 8.9-10.9 12.6-4.8 5.6-10 10.6-14.8 16.3-8.8 10.4-19.3 20.2-29.2 29.6a167.8 167.8 0 0 1-14.8 13c-4 3.1-8 5.7-10.9 9.9-4.6 6.8-7.9 14.6-12.1 21.6s-9.4 15.5-14.3 23.1c-9.1 14.1-20.9 23.9-32.5 35.6-9.6 9.7-21.3 18.4-29.5 29.2-4.3 5.8-7.7 12.2-11.1 18.6s-9.4 13-14.5 19.7c-6.3 8.4-13.2 16.1-19.3 24.5-11.2 12.2-15 27.3-22.9 41.7s-19.3 29.8-25.5 46.6-10.5 36.1-16 54.2c-2.6 8.5-6.6 16.3-9.3 24.8-1.2 3.5-1.4 7.1-2.2 10.7s-2.7 8.2-2.6 12.6c0 6.7 5.5 10.5 5.3 17.3-.2 9-6.8 17.5-10.4 25.6s-6 17.8-9.9 26.4-8.9 19.7-12.8 29.7c-2.9 7.3-5.9 14.9-7.6 22.6-2.2 9.7-6.5 18.7-8.7 28.4a269.1 269.1 0 0 0-5 33.4c-.6 7.2-.1 13.4 6.2 17.8 9.3 6.6 18.7 4.1 27.1-1.3-2.3 8.7-5.5 17.5-7.6 26.1s-8.5 19.9-3.6 28.6c2.6 4.5 7.2 5.3 11.4 3.3l-.9 2.3c-3.5 9.1-8.6 16.5-14 24.7-3.8 5.8-10 11.8-8.2 19.5 1.4 6.1 7.6 7.3 12.9 8.7 13.3 3.4 29.3 9.6 39.6-2.6a5.1 5.1 0 0 0 1.7.3c9.4-.2 18.5 2.5 28.1 1.3s13.1-9.4 19.6-13.8c17.7-12.1 29-30.8 44.5-45.1 8.7-8.1 17-16.3 26.2-23.9a152.9 152.9 0 0 0 20.9-20.9l.4-.5a12.1 12.1 0 0 0 1.4 2c4.8 5.7 11.9 6 18.6 7.1 4.3.8 8.2 1.9 12.5 1.3s9.5-3.2 14.2-4.8 11.6-3.8 17-6.1v.3a9.9 9.9 0 0 0 4.6 6.3c5.7 3.8 12.6 2.4 18.6 0 8.6-3.4 15.8-9.5 24.3-13s19.2-9.5 28.3-10.1c15.7-1.1 30.6 5.7 44.6-4.8 9.3-6.9 17.1-16.2 25.9-23.8a44.6 44.6 0 0 0 5.1.7c6.5.2 13.3.5 19.7.2s10.7-3.3 16-6.1 11-5.4 15.7-9.1 7.5-8.2 10.8-12.3c9.8-12.2 20.1-24.4 30.8-35.8s23.2-16.9 35.8-23.8 24.4-13 35.8-20.9 19.9-16 27.3-28.6a85.7 85.7 0 0 0 6.1-13.4 52.5 52.5 0 0 0 10.8-6c8.5-6.4 14.8-17.6 20.3-26.6 6.3-10.6 12.2-21.5 15.9-33.3 2-6.5 2.8-13.1 5-19.7l6.6-20c3.8-11.8 9.4-22.4 14.8-33.6s9.1-24.5 12.8-37 2.3-25.7 5.6-38.4c1.5-5.9 1-11.1 1.4-17.1s1.4-14 2.2-20.9c1.6-14.8-1.6-28.6-3.2-43.1-.9-8.3 1-15 3.9-22.7a59.7 59.7 0 0 0 3-10.2 11.2 11.2 0 0 0 7.3-6.3c3.5-6.7 3.5-16.2 3.5-23.6.1-10.5-1.6-20.9-3.3-31.2z" fill="#fff"></path><path d="M473.6 152.6c-9.6-9.7-28.2-10.8-40.8-8.9s-24 11.2-26.4 24.4a5 5 0 0 0-.3 2.4 4.7 4.7 0 0 0 2.8 4.5 5.8 5.8 0 0 0 1.5 1.1c7.3 3.9 13.1 6.6 21.8 6.6s17.6-.8 26.1-4.2 25.8-15.3 15.3-25.9z" fill="#fff"></path><path d="M672.1 314.9c-1.6-14.8-2.9-29.9-5.1-44.5a386.5 386.5 0 0 0-8.8-42.8c-2.7-9.4-3.8-25-14.2-29.4-5.3-2.3-11.6-1.7-17.2-1.3l-4.1.3c-9.2 2.1-17.9 5.2-27.4 6.1-21.2 2-42.7 2.3-64 4.3-36.5 3.2-74.3 7.7-109.8 17.9l-.6.6c-8.1 8.3-6.4 21.2-4.3 32.3.2 2.4.4 4.8.6 7 .6 10.5 1.9 20.8 3.4 31.2.8 5.3 2.1 10.6 2.9 15.9s.6 9.2 1.4 13.7c.3 1.6.5 3.1.8 4.6l.3 2.5c1.7 10.3 2.6 21.8 5.7 31.8s10.2 11.3 19.7 11.4c14.6.1 29.3-3.7 43.5-6.7 15.7-3.3 31.8-5 47.6-7.3s29.4-5 44.2-6.1 29.2-1.8 43.8-2.6c7.6-.5 15.2-.8 22.9-.8 5.8.1 11.5 1 16-3.6 7.5-7.6 3.7-25 2.7-34.5z" fill="#f5d7cf"></path><path d="M535 182.5c-1.7-2.7-5.6-4.5-9.4-5.8-6.4-4.1-14.8-6.1-20.8-1.5s-7.8 6.8-10.4 11.9c-3.1 3.3-6.9 7.4-5.2 12.1s5.5 7.2 8.8 10.3c.4.7.7 1.5 1.1 2.3 1.8 3.3 3.9 6.1 6 9.2s8.4 13.3 14.7 13.4 7-6.4 8.3-10.9a193.4 193.4 0 0 0 5.7-22.4c.7-4.4 3.9-14.2 1.2-18.6z" fill="#8193ca"></path><path d="M474.9 153.5a18.5 18.5 0 0 0-5.7-5c-6.5-4.9-16.1-7.3-22.5-7.2a23.1 23.1 0 0 0-8.3 1.6c-4.3.8-8.4 2.6-10 6.7s-1 6.8-.2 10.6c.1 1.2.2 2.4.4 3.6s.6 3 1 4.6a2.6 2.6 0 0 0 .5.9c3.1 8.5 9.7 15.2 19.9 14.3s21.6-7.9 25-17.7a10.3 10.3 0 0 0-.1-12.4z" fill="#5d52d1"></path><path d="M599.9 128.1c-4.4-6.3-15.1-6.8-22.1-5.8a29.5 29.5 0 0 0-18.5 11.2l-.9 1.2c-3.6 4.1-5.4 8.5-3.1 15.2s7.9 14.3 15.7 17a26.8 26.8 0 0 0 19.5-.5c7.8-3 10.8-5.4 12.2-13.9s1.9-17.8-2.8-24.4z" fill="#5d52d1"></path><path d="M479.2 158.3c-4.1-19.7-27.6-20.9-43.3-19.6-8.4.7-16.6 1.4-22.5 8.2s-11.5 15.6-12.2 24.6a3.7 3.7 0 0 0 4.5 3.8 2.7 2.7 0 0 0 2.2-1.9c2.8-4 4.2-9.3 7.1-13.4s7.5-7 13.2-8.3a80.1 80.1 0 0 1 15.5-1.9 20.9 20.9 0 0 0 .4 3.4 3.5 3.5 0 0 0 .6 1.4 8.6 8.6 0 0 0 1.1 2.8 6.6 6.6 0 0 0 2.4 2.3 5.8 5.8 0 0 0 5.5 2.3 8.5 8.5 0 0 0 7.4-9 5.1 5.1 0 0 0-.3-1.7c3.9 1.3 7.3 3.5 11.3 6.7a3.1 3.1 0 0 1 .2.8c.9 4.5 7.8 3.9 6.9-.5z" fill="#5d52d1"></path><path d="M619.6 134.9a3.3 3.3 0 0 0-1.1-2.4c-11-11.1-31.7-14.9-46.4-10.2s-25.2 18.1-28 33.2a28.3 28.3 0 0 0-1 4.7c-.5 3.6 4 5.1 5.9 3.1a3 3 0 0 0 1.3-2.4c.1-1.1.3-2.3.5-3.4a35.3 35.3 0 0 1 7.6-12.5c3.9-4.2 7.3-7.3 11.4-9.4-.2 6.4 7.2 9.6 12.7 8.5s7-7.1 5.3-11.8a33.7 33.7 0 0 1 11.3 1.4c5.8 1.9 11 5.7 17.1 6.7 3.3.5 4.8-3.3 3.4-5.5z" fill="#5d52d1"></path><path d="M581.9 292.5c-.7-5.8-3.2-18-9.4-20.5s-11.4 7-14.1 11c-6.1 9-13.2 16.9-24.7 11.7-8.3-3.7-14.9-12.4-23.5-15a4.4 4.4 0 0 0-4.6 2c-5.2 11.4-9.5 26.1-3.1 37.6 5.4 9.6 14.5 15.1 24.7 16.6a37.6 37.6 0 0 0 27.6.1c18.1-6.7 29.7-24.2 27.1-43.5z" fill="#ef8074"></path><path d="M640.8 198.3c-9.3 4.9-14.9 14.5-22.6 21.4s-15.8 15.2-23.2 23.4-16.4 17.8-25.8 25.9a127.7 127.7 0 0 0-10.7 10.1c-2.9 3-5.4 7.3-8.7 9.7-8.9 6.4-13.5-1.1-20.7-4.5a133.7 133.7 0 0 0-13.7-5.3c-12.5-4.5-24.9-8.4-36.6-14.8-9.4-5.1-18-11.7-27.2-17.2-5.4-3.2-11.1-6.2-16.5-9.4-3.5-2-10.1-4.6-12.4-8.1s-8.2.3-5.8 4c4.8 7.1 17 11.4 24.2 15.4 11.2 6.2 21.3 14 32.4 20.3s25.6 11.4 39 16.1c5.2 1.8 11 3.6 15.7 6.3s9 7.1 15.2 7.5c9.3.7 15.6-10.2 21.1-16.1 8-8.5 17.4-15.7 25.6-24s17.2-19.4 26.6-28.4c4.3-4.2 9.1-7.9 13-12.5s8.8-10.8 15-14.1c4-2.1 0-7.8-3.9-5.7z" fill="#fff"></path><path d="M565.5 292.4c-.3-4.5-7.2-3.9-6.9.6s1.3 11.5-3.5 15.6-10.8 5.3-15.9 4.4a25 25 0 0 1-10.3-4.8c-5.9-4.7-6.7-9.1-5.5-15.8.8-4.4-6-5.6-6.8-1.2-1.3 7.3-1.2 12.8 4 18.6a33.6 33.6 0 0 0 19.8 10.6c6.4.8 15.2-2.5 19.9-7 6.3-6 5.8-12.9 5.2-21z" fill="#fff"></path><path d="M488.6 130.2a17.1 17.1 0 0 0-1.3-2.3c-1.1-1.6-2.1-3.2-3.3-4.7a32.6 32.6 0 0 0-3.1-3.3c-1-1-2.8-2-3.6-3.1-2.4-3.8-8.1.1-5.7 3.9s4.8 4 6.7 6.5 2.1 2.9 3.1 4.3 1.3 2.7 2.3 3.8 5.4 1.6 6.2-1.4v-.3a2.8 2.8 0 0 0-1.3-3.4z" fill="#8193ca"></path><path d="M510.3 107.7c-2.3 6.9-2.4 14-2.4 21.3 0 4.5 6.9 3.8 6.9-.6 0-6-.1-12.1 1.9-17.8 1.4-4.2-4.9-7.1-6.4-2.9z" fill="#8193ca"></path><path d="M546.1 112.9c-.3 1.2-1.8 2.8-2.5 3.9s-1.6 3.2-2.5 4.8c-1.6 3.1-4.1 5.6-1.8 9.1s7.1.4 6.1-3c.4-.8 1.2-1.7 1.6-2.4s1.4-2.9 2.2-4.3 3.1-4.4 3.7-6.9c1.1-4.3-5.7-5.5-6.8-1.2z" fill="#8193ca"></path><path d="M643.3 107.3c-.1 2.4-1.6 7.8-4.6 7.9s-6.2-3.8-6.4-6.8-7.1-3.8-6.9.6a14.2 14.2 0 0 0 13.1 13.1c6.7.4 11.4-7.8 11.6-13.6s-6.7-5.7-6.8-1.2z" fill="#8193ca"></path><path d="M667.1 142.9c-1.2 10.7-16.2 6.5-15.7-2.3.2-4.4-6.6-5.7-6.8-1.2s.5 6.4 2.9 9.7 5.3 6 9.3 7c8 2.1 16.2-3.7 17.2-12.1.4-4.4-6.4-5.6-6.9-1.1z" fill="#8193ca"></path><path d="M677.5 202.7c-.5 1.8-2.1 3.9-3.1 5.5a20.6 20.6 0 0 1-3 4.1c-.8.7-.6.6-1.2.4a8.7 8.7 0 0 1-2-2.3c-1.7-2.3-1.6-4.6-1.6-7.4.1-4.5-6.8-3.8-6.9.6s.6 8.1 3.5 11.7 4.8 5.3 8.6 4.6 5.1-3.3 6.9-5.8 4.6-6.6 5.7-10.2-5.6-5.4-6.9-1.2z" fill="#8193ca"></path><path d="M391.1 133.3c-.8 1.7-1.3 3.8-2.8 5s-3.2 1.8-4.4.9-1.4-4.1-1.7-5.4-.7-3.8-.2-5.8c1.2-4.3-5.7-5.5-6.8-1.2s0 7.7.9 11.3 2.3 6.3 5.3 7.7 6.6.6 9.3-.9 4.9-5 6.7-8.7-4.4-6.9-6.3-2.9z" fill="#8193ca"></path><path d="M385.8 162c-.4 1.2-2.1 7.3-4.2 4.7s-1.4-5.1-1-7.5a3.2 3.2 0 0 0 .6-2.2 3.4 3.4 0 0 0-3.8-3.1h-.3a3.7 3.7 0 0 0-3.1 2.9c-1.2 5.4-.6 13.4 4.7 16.5a7.8 7.8 0 0 0 8.4-.5c2.9-2.1 4-4.7 5.1-8s-4.9-7.1-6.4-2.8z" fill="#8193ca"></path><path d="M402.9 259.8c-1.6-.2-3.4-3.5-3.8-5.5s.7-1.8 1.2-2.7c1.3-2.9-2.5-6.7-5.2-4.3a8.7 8.7 0 0 0-2.9 6.3c-.8 1.9-1.6 3.7-2.4 4.2-9.1 6-5.7-4.4-5.2-6.7s-4.1-5.7-6.1-2.8-5.9 10.3-9.8 8.4-1.7-7-.4-9.9-4.4-6.9-6.3-2.9-4.3 15.7 1.8 19 9.4.7 13.1-2.4c.6 3.2 2.4 5.7 7 6.8s8.7-1.3 11.2-4.9c2.5 3.2 6.4 5.2 10.6 4a3.9 3.9 0 0 0 2.3-2.7v-.4c.7-3.2-2.8-4.7-5.1-3.5z" fill="#8193ca"></path><path d="M370.4 350.2c-2.6 14.3-24.4 9.6-32.3 3.4s-6.2-14.3-4.7-23.5c.8-4.4-6.1-5.6-6.8-1.1-1 6.2-3.4 11.3-1.7 17.8s8.9 13.6 15.9 16.8c12.6 5.8 33.4 4 36.4-12.2.9-4.4-6-5.6-6.8-1.2z" fill="#8193ca"></path><path d="M714.9 382.9c-8.3-1.2-9.8-21-10.9-27-1.7-8.6-3.9-17.7-6.3-26.2-1.3-4.3-7.8-2-6.6 2.3 3.5 12.2 5.3 24.9 8.4 37.2 1.9 7.5 5.2 19.2 14.3 20.6 4.4.7 5.6-6.2 1.1-6.9z" fill="#8193ca"></path><path d="M434.8 410.8c-2.6 1.7-3.9 4.3-6.2 6.3s-8.4 4.4-12.7 4.8a17.3 17.3 0 0 1-6-.2c-5.3-1.6-5.8-4.4-5.4-9a25.1 25.1 0 0 1 4.1-10.7c2.5-3.6-2.8-8.1-5.3-4.4-5.6 8.1-10.5 22.9.3 29 5.5 3.1 12.4 2.7 18.3 1.2a30.8 30.8 0 0 0 9.8-4.4c2.7-1.9 4.3-5 7-6.8s-.2-8.2-3.9-5.8z" fill="#8193ca"></path><path d="M510.8 411a62.6 62.6 0 0 1-14.4 15.1c-3.8 2.8-8.4 6.1-13.3 4s-3.8-4.4-3-7.6-5.8-5.5-6.9-1.1-1.5 7.3 1.3 10.7 8.1 6.4 12.8 6.3 10.8-4.9 15-8.1a63.1 63.1 0 0 0 13.9-14.8c2.5-3.6-2.8-8.1-5.4-4.5z" fill="#8193ca"></path><path d="M278.7 408.8c-1.9 3.2-3.8 6.1-7.4 7.4s-10.1.7-14.4 0-6.7-1.5-6.9-6.7a31.1 31.1 0 0 1 1.5-10c1.3-4.2-5-7.1-6.3-2.9-3 9.6-5.2 22.5 6.8 25.8 6.1 1.7 15 2.4 21.2.5s8.8-6.2 11.8-11.2-4-6.7-6.3-2.9z" fill="#8193ca"></path><path d="M339.9 416.7c-5.4 5-12.5 7.7-19.9 5.9s-14.6-8.8-8.9-16.5c2.7-3.6-2.6-8.1-5.3-4.5a20.3 20.3 0 0 0-3.5 15.7c1 5 6.5 7.8 10.7 10 11.1 5.9 23.5 1.9 32.2-6.2 3.3-3-2-7.4-5.3-4.4z" fill="#8193ca"></path><path d="M339.4 457.9c-4.1 8.9-17.5 12.4-26.2 11.9-3.3-.2-8.1-.3-10.9-2.3-4.8-3.5-6.5-13.5-1.6-18 3.3-3.1-2.1-7.5-5.3-4.5s-5.6 14.1-4.2 19.4 7.3 9.7 13.2 11.2c13.9 3.5 34.7-.5 41.3-14.8 1.9-4-4.4-6.9-6.3-2.9z" fill="#8193ca"></path><path d="M461.4 481.5c-4.4 4.3-9.3 8.4-15.3 10.5-3 1-6.4 2.2-7.9-1.3s-.4-5.5.2-8 .3-6-3-5.4h-.5a3.7 3.7 0 0 0-3.1 2.9c-1.7 7-1.6 19.3 8 20.1s20.4-8 26.9-14.5c3.2-3-2.2-7.5-5.3-4.3z" fill="#8193ca"></path><path d="M407 517.3c-5.8 6-10.8 12.1-18.3 16.2-2 1.2-8.9 5.4-11.5 4.5s-3-8.1-2.2-10.6 1.4-3.4 2-5.3c1.4-4.1-4.9-7.1-6.3-2.8-2.2 6.5-4.6 11.8-2.4 19 1.3 4.4 3.9 6.7 8.6 6.7 14.6-.1 26.3-13.7 35.4-23.2 3.1-3.2-2.2-7.7-5.3-4.5z" fill="#8193ca"></path><path d="M494.4 527.1c-3.4 4.3-4.9 9.4-8.1 13.7a49.4 49.4 0 0 1-11.5 11.3c-6.7 4.9-27.6 15-26.4-.7.3-4.5-6.5-5.7-6.9-1.2s-1.7 10.2 3.3 13.8 13.1 3.5 18.8 1.6a57.4 57.4 0 0 0 20.2-11.9 52.3 52.3 0 0 0 8.6-9.6c2.8-4 4.3-8.7 7.3-12.5s-2.6-8-5.3-4.5z" fill="#8193ca"></path><path d="M357.7 572.7c-2.6 10.3-17.9 19.2-27.5 20.6-6.7 1-14.7-2.3-17.2-9.3-.9-2.3.5-12.8 3.6-14.3s1.7-8.5-2.4-6.6-9 12.5-8.8 18.3c.4 8 7.8 16.1 15.4 18.5 15.8 4.8 39.8-10.4 43.7-26 1.1-4.3-5.7-5.5-6.8-1.2z" fill="#8193ca"></path><path d="M305.2 636.5c-4.9 5-14.4 10.3-21.6 7.1s-6.4-13.6-2-19.5c2.7-3.5-2.6-8-5.3-4.4-6.7 8.8-8.1 22 2 28.8s24.5.3 32.2-7.6c3.2-3.2-2.2-7.6-5.3-4.4z" fill="#8193ca"></path><path d="M388 637.2c-2.6 6.3-14.8 13.8-21.1 15.7s-11.3 1.6-15.3-2.3-3-8.9-1.2-13.9-4.9-7.2-6.3-2.9c-2.1 6-4 11.3-.7 17.4a18.7 18.7 0 0 0 13.6 9.3c7 1.1 13.8-1.2 19.8-4.7s14.7-8.9 17.5-15.7c1.8-4.1-4.5-7-6.3-2.9z" fill="#8193ca"></path><path d="M340 667.6a26.5 26.5 0 0 1-15.5 6.9c-3.2.3-6.5.2-8-2.8s-.4-6.6 1.6-8.8-2.4-7.8-5.4-4.5c-5.2 5.8-5.4 18 2.4 22.1 4.1 2.1 10.3 1 14.6.2a32.5 32.5 0 0 0 14.3-7.3c3.3-2.9-.6-8.7-4-5.8z" fill="#8193ca"></path><path d="M261.8 484.9c-6.5 6.6-13.8 14.9-22.8 18a29.4 29.4 0 0 1-11.8 1.6c-7.2-.7-8.5-9-5.2-14.7 2.1-3.9-4.2-6.8-6.3-2.9-5.7 10.1-1.6 24.7 11 24.6 17.9-.1 28.4-10.1 40.5-22.1 3.1-3.2-2.2-7.6-5.4-4.5z" fill="#8193ca"></path><path d="M239.3 538.1c-5.7 7-11.8 10.5-20.2 13.4-4.4 1.5-10.6 3.2-13.8-1.8-1.9-3-1.8-11 .6-14s-2.6-8-5.4-4.5c-5.9 7.4-4.7 25.3 5.8 28.5 6.4 1.9 13.5-1 19.4-3.3a42.9 42.9 0 0 0 18.9-13.8c2.8-3.5-2.5-7.9-5.3-4.5z" fill="#8193ca"></path><path d="M193 584.8l-.3-.2c-2-1.9-4.4-.6-5.3 1.3-4.8 5.1-12 8.8-18.8 10.5-4.6 1.2-8.9 1.1-10.9-3.7-1.1-2.8-1.3-9.1.7-11.9s-2.6-8.1-5.3-4.5c-5.3 7.3-4.3 23 5 26.9 11.2 4.6 28.2-5.4 35.3-13.5a3.6 3.6 0 0 0-.4-4.9z" fill="#8193ca"></path><path d="M215 634.1a63.2 63.2 0 0 1-26.2 15.9c-14 4.3-27.6-2.4-27.3-18 .1-4.4-6.8-3.8-6.9.6-.3 15.3 10.2 25.5 25.5 25.7s30.3-9.6 40.2-19.7c3.1-3.2-2.2-7.6-5.3-4.5z" fill="#8193ca"></path><path d="M208.7 668.8c-6.3 4.6-9.9 12.1-16.8 16.3a24.9 24.9 0 0 1-19.2 3.3c-7.5-1.7-9.6-4.7-8.3-12.1.7-4.4-6.1-5.6-6.8-1.2s-2.6 10 1.9 14.6 12.6 6.2 18.9 6.3a31.4 31.4 0 0 0 18.7-6c6.1-4.2 9.7-11.3 15.6-15.5 3.6-2.6-.3-8.3-4-5.7z" fill="#8193ca"></path><path d="M127.2 712.4c-3 5.2-8.3 7.9-13.5 10.5-7.8 4-15.1 2.2-15.8-7.6-.3-4.4-7.2-3.8-6.9.6.6 8.7 7 17.2 16.4 16.4s21.2-8.5 26.1-17c2.2-3.8-4.1-6.7-6.3-2.9z" fill="#8193ca"></path><path d="M150.3 748c-9.8 7.8-16 20.1-26.1 27.8-6.4 4.9-13.8 6.1-21.7 6.3s-15.2-2.7-13-12.7c.5-2.2 1.5-4.2 2-6.3 1.1-4.4-5.8-5.5-6.8-1.2-1.9 7.4-5.4 14.8-.1 21.9s16.8 5.5 24.2 4.8a39.1 39.1 0 0 0 24.2-11.3c3.7-3.6 6.9-7.6 10.4-11.3s7-9.2 10.9-12.2-.5-8.5-4-5.8z" fill="#8193ca"></path><path d="M91.3 811.9c-5.9 16.7-11.2 33.1-19.9 48.7-4.6 8.4-9.8 16.6-17.4 22.8s-14.2 12.3-21.7 16.2c-3.9 2 .1 7.7 4 5.7s6.9-5.1 10.3-7.8 8.5-6 12.5-9.4c6.8-5.7 11.1-12.3 15.8-19.7 10.4-16.8 16.2-35.2 22.7-53.6 1.5-4.2-4.8-7.1-6.3-2.9z" fill="#8193ca"></path><path d="M141.5 833.7c-5.4 6.6-10.6 13.4-17 19.3s-26.5 16-24.9-1.5c.4-4.4-6.4-5.6-6.8-1.1s-1.4 11.4 4 15.4 10.8 3.1 15.9 2c14.7-3.1 25.3-18.9 34.2-29.6 2.8-3.5-2.5-8-5.4-4.5z" fill="#8193ca"></path><path d="M274.6 715.7c-6.8 7.4-13.4 14.7-18.4 23.4a273.9 273.9 0 0 1-17.3 26.5c-6.3 8.5-13.7 16.4-22.5 22.3-4.5 2.9-11.1 7.1-16.8 5.6-7.7-2-6.4-5.9-5.1-11.4s-5.9-5.5-6.9-1.1c-1.8 8.2-1.2 15.1 7.9 18.6 11.7 4.6 24.4-5 32.7-12.1 10.2-8.9 17.7-19.6 24.9-30.8 8.4-12.9 16.4-25.2 26.8-36.5 3-3.3-2.3-7.8-5.3-4.5z" fill="#8193ca"></path><path d="M266.6 679.2c-3.2 2.1-4.2 5.4-6.3 8.5s-7.8 8.1-11.8 12-10 10.2-16.2 13.2c-2.5 1.2-6 2.9-8.8 1.8s-3.8-1.1-2-4.6a25 25 0 0 0 .7-2.6c1.1-4.3-5.7-5.5-6.8-1.1s-2.9 10.4 1.5 13.7 12.7 1.6 17.7-.7c7.1-3.2 12.8-9 18.3-14.3 3.3-3.2 7-6.1 10-9.6s4.8-8.7 7.6-10.6-.2-8.2-3.9-5.7z" fill="#8193ca"></path><path d="M203.4 814.6c-10.9 12.1-17.8 27.2-29.4 38.9a286.7 286.7 0 0 1-48.6 38.5c-16.6 10.5-32.1 23-47.8 35-7.2 5.5-14.7 9.7-22.4 14.6s-13.8 11.5-21.7 15.8c-3.9 2.2.1 7.9 3.9 5.7 7.9-4.3 14.2-11 21.8-15.8s15.2-9.1 22.4-14.6c16.5-12.6 32.9-25.6 50.5-36.7a275 275 0 0 0 46.3-37.1c6.1-6.1 10.4-13 15.7-19.6s9-14 14.6-20.2c3.1-3.3-2.3-7.8-5.3-4.5z" fill="#8193ca"></path><path d="M148.8 895.7c-3.8 1.9-5.9 6.3-8.3 9.8-4 5.6-7.5 11.5-11.8 16.9-7.3 9.4-14.4 18.9-21 28.7a291 291 0 0 1-22.4 29.6c-4.8 5.6-9.3 11.3-14 17-3.3 4.2-6.8 7.4-9.5 12s4.1 6.7 6.3 2.9 6.9-8.4 10.1-12.5 8.2-10 12.5-14.9c7.4-8.6 14.6-17.3 20.6-26.9a320.9 320.9 0 0 1 19.9-27.9 167.2 167.2 0 0 0 10.5-14.5c1.8-2.8 6.5-12.2 9.5-13.7s1.6-8.5-2.4-6.5z" fill="#8193ca"></path><path d="M507.2 605.4c-6.9 14.2-14.5 28.3-22.7 41.7s-18.5 24.5-28.3 35.7-17 21.1-25.5 31.5c-9.7 12-21.3 22.5-31.8 33.8s-21.3 20-31.9 30.2-20.9 22.7-32.9 32.2-23.5 18.1-36.7 24.3a152.1 152.1 0 0 1-16.7 7.1c-2.3.8-8.9 2.8-11.7 1.7s-2.7-2.8-1.9-5.8a3.9 3.9 0 0 0 .6-3.1l18.3-26c12.2-17.3 27.7-32.3 40.6-49.2 6.4-8.4 13-16.7 19.6-24.9s10.4-14.6 16.2-21.4c4.4 5 12.5 4 19.2 2.8 9.9-1.7 17.5-8.8 24.4-15.4 8.6-8.2 14.7-19.2 20.3-29.5s11.5-21.2 14.8-32.7c1.7-2.2.6-6.2-2.8-5.5h-.5a3.7 3.7 0 0 0-3.1 2.9c-2.3 8.5-6.5 15.6-10.5 23.4s-8 16.4-13.2 24-10.6 14.7-17.9 19.9c-4.1 2.9-23.3 12.4-26.4 3.9a3.5 3.5 0 0 0-3.5-2.2 3.3 3.3 0 0 0-3.6 1c-6.9 7.4-12.4 16.3-18.8 24.2s-13.7 17.4-20.5 26.2c-13.2 17.2-28.7 32.6-41.2 50.2s-25.4 35.5-38.2 53.2a299.5 299.5 0 0 1-22.1 26.8 90.1 90.1 0 0 0-9.6 12.7c-2.1 3.2-5.4 6.4-6.8 9.9s4.6 7 6.3 2.9 4.7-6.4 6.6-9.4a85.4 85.4 0 0 1 10.8-13.8 337.9 337.9 0 0 0 21.4-26.4c4.4-5.8 8.7-11.8 13-17.7 3.5 10.1 22.4 4.1 32.3.1 22.7-9.4 44.1-25.5 61-43.2 19-19.6 39.4-37.4 58.1-57.3 9.7-10.4 19.5-20.4 28.8-31.2 7.8-9 14.7-18.8 22.5-27.7 20.6-23.6 36.6-48.9 50.3-77.1 1.9-3.9-4.4-6.8-6.3-2.8z" fill="#8193ca"></path><path d="M249.1 812.3c-1.9 2.7-5.3 4.9-7.8 7.2s-8.2 6.6-13.5 5.4c-7.6-1.9.8-14.9 2.7-19.3s-3.1-6.5-5.8-3.6l-.4.5a2.6 2.6 0 0 0-.9 2.2c-3.9 8.2-10.9 21 .2 26a18 18 0 0 0 15.8-1.1 36.1 36.1 0 0 0 7.2-5.7c2.5-2.3 5.9-4.4 7.8-7.1s-2.7-8.2-5.3-4.5z" fill="#8193ca"></path><path d="M313.1 737.6c-1.7 5.9-7.8 11.2-12.1 15.4a78.7 78.7 0 0 1-13.6 10.8c-4.1 2.8-7.8 6.1-11.9 8.8s-7.3 5.2-12.2 4.8c-2.8-.2-5.3-1-2.5-4.6s-2.6-8-5.3-4.5-4.3 10.5.1 13.8c6.5 4.9 15.3 1.6 21.3-2.1a175.9 175.9 0 0 0 26.6-19.7c6.4-5.9 13.9-13 16.5-21.5 1.2-4.3-5.6-5.5-6.9-1.2z" fill="#8193ca"></path><path d="M460 973c-16.2-11.3-33.8-6.1-51.3-.9-9.9 2.9-19.9 4.8-30 6.8-15.3 2.9-14.2-11.1-12.6-22.1s3-19.9 4.9-29.8 4.9-17.9 6.2-26.9c.7-4.4-6.1-5.6-6.8-1.1-1.4 9-4.5 17.9-6.2 26.8s-3.3 18.4-4.6 27.5c-1.8 13.1-4.7 31.2 13.2 33 8.1.8 17.2-2.6 25-4.2s18.1-4.8 27.2-7c12.8-3.1 26.4-3.5 35.7 7.9 6.6 7.9 7.7 18.4 5.7 28.2-.9 4.3 6 5.5 6.9 1.1 2.9-14.3-.7-30.5-13.3-39.3z" fill="#5d52d1"></path><path d="M411.1 1008.3c-11.3-3.4-27.8-5.8-38.7 0-3.9 2.1.1 7.8 4 5.7 6.3-3.4 16.1-2 22.9-.9 4.6.7 10.1 1.1 14.1 3.7s8.3 11.6 5.3 17.8c-2 4 4.3 6.9 6.3 2.9 6.1-12.4-1.5-25.5-13.9-29.2z" fill="#5d52d1"></path><path d="M497.1 991.8c-2.1-4.9-5.7-8.5-11.1-9.5s-5.5 6-1.1 6.8 6.4 5.1 6.8 9-1 5.4-1 8.2c-.1 4.4 6.8 3.8 6.9-.6 0-2.1 1.1-4 1.1-6.2a17.2 17.2 0 0 0-1.6-7.7z" fill="#5d52d1"></path><path d="M518.4 987.7c-1.4-7.2-4.1-17.6-10.2-22.3s-13.7-6.4-22.8-4.3c-4.3 1-1.9 7.5 2.4 6.5s7.6-1.9 10.9-.2a26.4 26.4 0 0 1 6.7 5.1c3.1 4 5.1 10.9 6.1 15.8s7.8 3.8 6.9-.6z" fill="#5d52d1"></path></g></g></svg>