<svg xmlns="http://www.w3.org/2000/svg" width="1019.7" height="1080" viewBox="0.023512959480285645 0.009222984313964844 1019.6513061523438 1079.9912109375" style=""><g><title>icons157_385825214</title><g data-name="Layer 2"><path d="M993.4 811.2c-4.7-10.2-18.6-12.7-26.9-5.8-10.2 8.6-20.5 17.3-30.5 26.2a22.5 22.5 0 0 0-3.6 2.4c-87.9 70.5-204 101.9-315.7 94.1s-216.9-57.4-291.2-141.6C254.1 705.7 213 597.9 211.1 490.2c-2-110.4 39.5-216.2 114.4-297.1A478.4 478.4 0 0 1 474.4 84.8C531 58.5 590.8 46.7 652.7 41.9c17.2-1.3 17.7-25 1.2-27.2a12 12 0 0 0-6.5-3.5c-148.7-32.4-305.7 7.3-427.7 96.5C95.9 198.2 13.4 334 1.6 487.9-9.9 636.4 42.1 788.3 138.5 901.2c98.9 115.9 244.1 179 395.8 178.8 148.5-.2 299.8-58.9 402.9-167.2 19.3-20.3 35.7-49.7 49.7-75 4.3-7.8 10.6-17.6 6.5-26.6z"></path><path d="M1009.1 514.7c-29.6-.4-56.1-12.8-75.7-35.1s-24-49.4-28-76.6c-1.1-7.2 1.5-19.2-9-18.4-7.9.6-14.5 18.5-15.5 24.6-2.2 12.7.8 25.1.1 37.7-.8 14.9-7.2 28-15.4 40.3-16.5 24.9-41.8 47-69.8 58-2.6.8-5.3 1.8-7.9 2.8-13.5 5.5-7.9 27.7 6.1 22.4 29.1-10 63.5-5 86.9 15.7 26.8 23.7 26.2 51.2 27.5 83.9.5 11.6 18.2 15 21 2.8 7.7-33.2-1.5-64.5 15.1-96.2 13.1-25 35.9-40.8 64.6-39.9 14.1.4 14.1-21.7 0-22z" fill="#fb493f"></path><path d="M705.8 363a126.2 126.2 0 0 1-89.9-85.2c-2.6-8.2-15.6-4.7-13 3.6.3 1 .7 1.9 1 2.9.3 3.2.5 6.3.6 9.6a3.1 3.1 0 0 0 1.4 2.8c2.6 38.8-16.9 74.4-51.2 90.9a56.5 56.5 0 0 0-26.2 8.6c-5.7 3.5-1.9 11.6 4.4 10.4A104.1 104.1 0 0 0 557 399c17.8-1 36.2 7.3 48.6 20.6s19.2 29 23.6 46c1.7 12.7 4.3 25.4 6.9 37.8 1.5 7 13.7 5.6 12.8-1.7a268.5 268.5 0 0 0-7.7-40.8c-1.7-15.1-1.5-30.3 3-45.1 7.6-25 30.5-46.5 58.2-40.4 8 1.7 11.4-10.4 3.4-12.4z" fill="#fb493f"></path><path d="M174.1 231.7c4.9-6.8-5.8-14.8-11.4-8.8-55 58.1-88.4 136.9-101.3 215.2s-9.7 164.4 24.5 236.1c4.3 9.1 18.5 2.7 16-6.7-10.1-36.8-19.6-73.4-23-111.6a444.9 444.9 0 0 1 4.5-115.8c13.1-76.6 45.6-145.6 90.7-208.4z" fill="#fff"></path><path d="M145.3 767.1c-5.9-8.4-12-16.9-19.3-24.3-4.3-4.4-13.8.1-11.1 6.5 4 9.5 9.2 18.3 14.7 27s9.9 18.6 18.6 22.8c4.4 2.1 10.7-.3 10.5-6-.6-10-7.8-18.1-13.4-26z" fill="#fff"></path><path d="M934.4 512c-3.9-4.9-10.9-6.5-15.3-11.1a26.5 26.5 0 0 1-7.7-17.1c-.7-8.6-13.6-8.8-13.6 0a44.9 44.9 0 0 0 9 26.7c5.4 7.1 14.9 15.7 24.5 12.9 5.4-1.5 6.2-7.5 3.1-11.4z" fill="#fff"></path><path d="M641.3 349.8c-5.7-4.6-11.5-9.2-18-12.5s-11.9 4.3-7.5 9.7a105.3 105.3 0 0 0 16 15.3c5.4 4.4 10.4 9.8 17.8 8.8 2.4-.4 4.5-3.4 4.3-5.7-.3-7.3-7.3-11.4-12.6-15.6z" fill="#fff"></path></g></g></svg>