<svg xmlns="http://www.w3.org/2000/svg" width="850" height="1080" viewBox="-0.0032935221679508686 0.008362770080566406 850.0801391601562 1079.9984130859375" style=""><g><title>icons15_196193828</title><g data-name="Layer 2"><path d="M219.2 1049.6C175.9 945.9 153.1 833 119.3 726 84.4 615.5 61 500.6 17.5 392.8a8 8 0 0 0 1.6-3.2c9.8-35.6 9.3-74.4 26.1-107.3 46.9 240.5 128.7 471.9 198.7 706.2 0 .1-.1.1-.1.2-8.6 20.1-14.1 41.7-24.6 60.9zm556.9-121.9a12.8 12.8 0 0 0-1.5 2.3c-88.6 27.6-177.6 50.1-268.1 70.5s-177.7 55.8-271.4 60.3c10.1-17.2 15.5-37.3 21.7-56.3a9.8 9.8 0 0 0 7.2-4c86.6-30.5 179.5-33.8 267.9-57.5q146-39.3 291.4-80.8c-13.6 23.6-27.6 45.7-47.2 65.5zm-236.9-6.2c-91.5 24.6-188 28.6-277.6 59.6-70.5-236.2-152.2-469.3-200.3-711.6 36.8-15.6 74.1-29.7 111.7-42.9a163.5 163.5 0 0 1-9.9 64.4c-3 8.1 10.1 13.5 13.9 5.9 11.7-22.9 16.1-50.3 12.9-76.1 41.2-14 82.9-26.7 124.7-38.8-3.6 28.2-17.9 55.8-38.4 68.9-7.8 5-1 16.5 7.3 12.4 32.2-16 48.1-50.9 48.4-86.3q52.4-14.9 105-28.7c-5.2 25-18.3 49.1-34.1 64.3-7.1 6.7 3.2 16.5 10.5 10.5 22.8-19.1 37.3-49 40.8-79.4 37.5-10 75.1-19.9 112.6-30.1-8.5 22.8-23.2 43.9-37.5 56.2-6.4 5.6 2 16.3 9 11.7 24.4-15.6 41.7-43.6 48.3-73.2 13.9-3.8 27.9-7.5 41.8-11.4 30.4 125.7 72.5 248.2 100.4 374.7s87.4 242.5 101.4 370.7c-97.4 24.7-193.9 53.1-290.9 79.2z" fill="#fff"></path><g fill="#9f1c40"><path d="M752.6 490.2c-34.7-134.8-69.9-269.1-109-402.9-.1 0-.1-.1-.1-.2.3-5-3.9-10.4-10.4-9l-43.9 9.8C590.6 58.6 580.7 30 556 12c-51.4-37.5-101.8 20.2-110.5 73.3a86.1 86.1 0 0 0-25.5-32c-24.8-19-60.4-5.3-80.1 13.5-14.3 13.6-20 34.8-20.8 55.9-6.7-12.8-16-24-28-32.1-67.6-45.7-108.8 30.4-113 91-12.8-25.3-35.4-44.3-68.2-48.5-76.6-9.8-132.8 84.6-83.1 145.2C10.4 310.6 9.9 349.4.5 384.4a10.1 10.1 0 0 0-.3 3.8 8 8 0 0 0 .2 4.3C37.6 504.4 66.9 618.3 102 730.8s58.7 232.6 106.6 341.1a7.3 7.3 0 0 0 5.9 4.7 8.6 8.6 0 0 0 7.2 3.4c91.8-1.8 178.6-32.7 266.3-56.4 98.9-26.7 200.9-42.1 296.3-80.7a9.7 9.7 0 0 0 2.4-1.5c29-15.9 45.6-57.2 60.1-85.1l.2-.5a7.8 7.8 0 0 0 3-7.3c-12.1-124.2-66.6-238.5-97.4-358.3zM556.2 34.6c16.2 14.9 19.9 35.8 16.4 57.2q-54.1 12.5-108.2 26.2c-16.7-50.3 39.8-131.2 91.8-83.4zM345.7 89.1c13.7-29.5 53.6-34.1 75-12.1 12.6 12.9 18 29.8 18.4 47.5q-50.2 13.2-100.2 27.8c-2.9-21.2-2.3-43.5 6.8-63.2zm-63.5 16.7c20.7 10.7 30.7 31.1 32.8 53.6-40.1 12.1-80 24.9-119.4 38.8-5-52 24-125.2 86.6-92.4zm-160.4 48.1c28.1 8 42.6 28.8 48.4 53.3-41.5 15-82.6 31-122.9 48.3a7 7 0 0 0-7.1 2.4c-1.1 1.3-2.1 2.7-3.2 4.1-39.8-54.9 24-125.5 84.8-108.1zm97.4 895.7C175.9 945.9 153.1 833 119.3 726 84.4 615.5 61 500.6 17.5 392.8a8 8 0 0 0 1.6-3.2c9.8-35.6 9.3-74.4 26.1-107.3 46.9 240.5 128.7 471.9 198.7 706.2 0 .1-.1.1-.1.2-8.6 20.1-14.1 41.7-24.6 60.9zm556.9-121.9a12.8 12.8 0 0 0-1.5 2.3c-88.6 27.6-177.6 50.1-268.1 70.5s-177.7 55.8-271.4 60.3c10.1-17.2 15.5-37.3 21.7-56.3a9.8 9.8 0 0 0 7.2-4c86.6-30.5 179.5-33.8 267.9-57.5q146-39.3 291.4-80.8c-13.6 23.6-27.6 45.7-47.2 65.5zm-236.9-6.2c-91.5 24.6-188 28.6-277.6 59.6-70.5-236.2-152.2-469.3-200.3-711.6 36.8-15.6 74.1-29.7 111.7-42.9a163.5 163.5 0 0 1-9.9 64.4c-3 8.1 10.1 13.5 13.9 5.9 11.7-22.9 16.1-50.3 12.9-76.1 41.2-14 82.9-26.7 124.7-38.8-3.6 28.2-17.9 55.8-38.4 68.9-7.8 5-1 16.5 7.3 12.4 32.2-16 48.1-50.9 48.4-86.3q52.4-14.9 105-28.7c-5.2 25-18.3 49.1-34.1 64.3-7.1 6.7 3.2 16.5 10.5 10.5 22.8-19.1 37.3-49 40.8-79.4 37.5-10 75.1-19.9 112.6-30.1-8.5 22.8-23.2 43.9-37.5 56.2-6.4 5.6 2 16.3 9 11.7 24.4-15.6 41.7-43.6 48.3-73.2 13.9-3.8 27.9-7.5 41.8-11.4 30.4 125.7 72.5 248.2 100.4 374.7s87.4 242.5 101.4 370.7c-97.4 24.7-193.9 53.1-290.9 79.2z"></path><path d="M699.3 719.7c-66.4 31.9-139.9 44.4-211.2 60.8-36.2 8.3-72.4 16.7-108.6 24.9-18.2 4.2-44.1 6.5-60.5 16.5-7 4.3-2.2 14.2 5.4 12.8 60-11.2 119.4-26.5 178.9-40.1 69.5-16 140-29 204.7-60 10.1-4.8 1.3-19.7-8.7-14.9z"></path><path d="M646.6 564.8c-64.6 19.1-129.2 38.6-194.1 56.7-55.4 15.5-110.1 42.2-167.5 48.3-9.8 1-10.2 15.3 0 15.5 54.5 1 108.1-29.4 159.9-43.5 69.2-18.8 137.7-39.7 206.4-60 10.9-3.2 6.3-20.3-4.7-17z"></path><path d="M590.2 310.1c-58.2 20.1-119.5 27.5-179.4 41.1-67.5 15.2-134.9 35.1-201.3 54.4-7.7 2.2-6.5 15.5 2 14.4 65-8.6 127.7-33.1 191.2-48.9s129.8-22.4 192.2-43.9c10.7-3.7 6.2-20.8-4.7-17.1z"></path><path d="M624.5 435.3c-122.6 49.8-260.5 52-385.9 93.4-9 2.9-5.3 15.8 3.9 14 67.3-12.9 133.9-30.9 201.1-44.8 62.5-13 126-21.6 185.4-46.4 9.9-4.1 5.6-20.4-4.5-16.2z"></path></g></g></g></svg>