<svg xmlns="http://www.w3.org/2000/svg" width="610.7" height="1080" viewBox="-0.004405021667480469 0.000006198883056640625 610.7044067382812 1080.025634765625" style=""><g><title>icons115_337173006</title><g data-name="Layer 2"><path d="M610.7 1014.8c-.1 40.2-524.9 77.3-598.6 61.5-14.5-3.1-14.5-2.9-7.7-42.6 2.3-13.8 11.1-45.9 24.2-89.7 1.3-4.6 2.9-9.2 4.2-14 5.1-16.3 10.5-34.1 16.7-53.2l3.1-9.4c10.3-32.4 22.1-67.8 34.8-105 1.2-4 2.5-7.9 4.1-11.9 22.9-66.8 48.6-138.3 75.4-206.8 1.5-3.6 2.8-7.1 4.3-10.7 16.2-41.5 32.7-81.5 48.8-118.6 1.6-3.9 3.4-7.4 5.2-11.2C276.8 286.8 326 202.1 358.7 203.7l7.6.6c3.5 9.9 33.1 104.3 70.4 225.6 1 3.5 2.3 7.1 3.3 10.9 17.6 57.2 36.8 119.7 55.7 182 1 2.8 1.8 5.9 2.8 8.7 13.9 45.6 27.5 90.8 40.3 133.4 1.3 3.9 2.3 7.7 3.6 11.5 8.3 27.6 16.1 53.9 23.4 78.4 1.3 4.6 2.6 8.9 4.1 13.5 9 30.9 17.1 58.4 23.7 81.1 1.2 4.6 2.5 9.2 3.7 13.3 8.4 29.9 13.4 48.7 13.4 52.1z" fill="#5864ef"></path><path d="M454.6 267c53 67.5 6.4 63.8-43.4 8.3-4.6-5.1-62.2-69.8-66.8-64.7-2.3 2.5-174.4 151.3-185.3 142.1-13.5-11.2 31.2-48.8 73.5-96.1 72.1-81.1 69.5-59.2 13.4-46.9-73.3 15.9-249.3-16.1-5-50.2-44.8-18.5-106.1-58.2-102.5-71.7 5.7-21.4 112.3 41.4 132.2 55C285.9 153.5 213.4 24 236.2 4.2c2.5 0 5.9-10.4 19.4 1.6 20.3 17.9 55.4 125.6 55.5 100.9 0-5.1 14-87.7 32.9-102.6l5.4-4.1c18.5 19.2-1.7 113.7-2.4 116.2 1.5.1 87.3-108 104.1-108 25.7.1-18.1 79.5-34.5 101.4-26.1 35.1-14.6 15 38.5-11.4 19.2-9.3 70.7-27.3 78.4-27.2 5.3 0 8.9 8.4 6.1 13.8-12.6 23.1-71.1 50.7-90 59.1-69.7 30.8-10.4 4 54.5 17.5 174.8 36.5-8.4 68-106.5 49.8-28-5.1 21.4 11.1 57 55.8z" fill="#db5b23"></path><path d="M440 440.8c-39.3 14.2-91.4 21.4-118.6 16.2-31.1-5.9-70.6-22.4-101.4-42.6 1.6-3.9 3.4-7.4 5.2-11.2 37.9 25.1 89.8 42.3 123.2 42.2 38.5-.1 67.1-7.2 88.3-15.5 1 3.5 2.3 7.1 3.3 10.9z"></path><path d="M498.5 631.5c-78.6 24.4-166.3 15.2-234-13.8-34.4-14.9-70-43.8-97.6-74 1.5-3.6 2.8-7.1 4.3-10.7l12.2 13c82.8 85.5 217.7 102.7 312.3 76.8 1 2.8 1.8 5.9 2.8 8.7z"></path><path d="M542.4 776.4c-44.5 27.9-106 52.2-187.9 60.6-28.3 2.7-65.8 7.9-113.1-4-38-9.5-101.1-38-154-70.6 1.2-4 2.5-7.9 4.1-11.9 51.9 31.7 110.9 61.5 166.5 72.4 68.5 13.5 195.8-14.4 252.5-42.5 10.5-5.1 19.9-10.4 28.3-15.5 1.3 3.9 2.3 7.7 3.6 11.5z"></path><path d="M569.9 868.3A679.2 679.2 0 0 1 406 913.1c-139 20.5-248.4 25.5-356.5-36.3l3.1-9.4A385.3 385.3 0 0 0 160 907.2c95.6 20.5 257.8 9 405.8-52.4 1.3 4.6 2.6 8.9 4.1 13.5z"></path><path d="M597.3 962.7c-46.9 19-100.8 35.9-156.9 46.1-170.9 31.6-322.2-12.7-411.8-64.8 1.3-4.6 2.9-9.2 4.2-14a439.3 439.3 0 0 0 60.8 30.3c196.8 81.7 376.1 41.3 500-10.9 1.2 4.6 2.5 9.2 3.7 13.3z"></path></g></g></svg>