<svg xmlns="http://www.w3.org/2000/svg" width="857.7" height="1080" viewBox="-0.012781143188476562 -0.01358342170715332 857.7154541015625 1080.024658203125" style=""><g><title>icons136_380324632</title><g fill-rule="evenodd" data-name="Layer 2"><path d="M640.3 644c9-2.4 18.9 9.1 26.1 16.5 11.8 12.3 24.1 31.9 32.2 49.6 6.6 14.7 13.8 28.8 10.4 51.3-2.7 17.2-17.8 33.2-39.1 23.5-25.6-11.7-37.6-51.9-40-87.9-1.2-17.5-2.2-49.7 10.4-53z" fill="#538bc8"></path><path d="M777.7 691c8.3-1.7 21.8 11.4 27.8 18.2 11.2 12.8 21.3 33.2 31.3 53.9s21.1 41.7 20.9 64.4c-.2 14.9-8.1 29.2-17.4 31.3-11.4 2.4-25.1-7.4-32.2-15.7-13.8-16-22.8-45.4-28.7-68.7a404.2 404.2 0 0 1-7.8-40.8c-2.3-15-7.5-40 6.1-42.6zM405.6 971.8a174.7 174.7 0 0 0 0 26.1c2.6 32.5 18.5 87.4 48.6 81.7 22-4.1 14.7-40.9 8.7-58.3s-17.5-39.2-26-53.9c-5.2-8.9-10.9-22.6-21.8-19.1-6.8 2.2-8.8 14.7-9.5 23.5z" fill="#ffc124"></path><path d="M442.1 701.4c9.7-2.5 17.7 11.2 23.4 20.9 10.4 17.5 18.8 40.6 25.3 61.7 5.5 17.9 11 37.3 7.8 60.8-1.9 13.9-13 26-21.8 27-13.8 1.6-24.9-11.6-31.3-24.3-12.8-25.9-14.1-57.9-13.9-97.4.1-16.2-.7-45.9 10.5-48.7z" fill="#ffa6bc"></path><path d="M517.7 61.5c21.9-14 50.2-28.8 84.3-28.7s64.7 11.4 81.8 30.4c13.6 15.2 23.6 38.7 32.1 63.5 17 49 19.6 113.2 3.5 165.2-11.2 36.2-30.7 63.2-57.4 83.5 20.1 72.1-10.1 138.4-44.3 184.3-26.2 35.1-59.3 61.5-107.8 74.7-78.6 21.5-167.4-9.5-200-61.7-22.6 21.1-51.8 45.8-94.8 46.1-27.4.2-53.1-6.3-76.5-16.5-62.9-27.5-104.2-83-126-150.4-16.4-50.7-17.5-113.5.8-159.1a198.5 198.5 0 0 1 35.7-56.6c14.4-15.7 33-31.9 51.3-40.8 15.2-7.5 33.6-11.7 53-11.3-.3-48.3 11.8-90.3 33.9-122.6 19.2-28 48.6-49.8 87.8-49.6 29.3.2 50.1 10.8 67 25.2C360.4 20.5 380.2 3.5 410.8.6c56.2-5.2 91.3 23.3 106.9 60.9zm150.4 286.9c3.8-3.8 8.1-7.8 11.3-12.2 32.1-44.1 43.5-123.7 24.4-190.4-7.4-25.4-15.6-50-27.9-66.1-15.2-19.9-49-34.2-88.6-29.5-11.8 1.4-24.6 5.9-36.6 11.3-6.1 2.7-27.1 11.7-28.6 19.1-.9 4 3.2 16 3.4 20 1.9 27.1-6.3 66.7-31.3 65.2-6.7-.4-13.7-7.1-15.6-10.4-10.4-18.7 2.8-51.9 11.3-65.2 4-6.3 14.6-14 14.8-20s-6.4-14.4-10.5-20-9.5-12.2-14.7-16.5C442.2 3.2 374.8 16.2 354.3 50.2c14.7 13 16.9 58.2-7.9 58.2S323 68.9 334.3 51.9c-19.4-22.3-66-30.5-96.5-15.6-22.6 11-38.2 33.3-49.6 58.2s-20.1 55.9-19.1 88.7c6.6 1.4 14.5 2.8 20.8 6.1 17.5 9.1 36.4 32.6 32.2 55.6-1.6 8.9-9.5 19.3-18.3 20.9-20.7 3.9-31.3-13.8-38.2-26.9s-9.3-26.4-11.3-39.2c-40.6.4-55.4 13.8-75.7 31.3s-41.4 44.1-51.3 72.2c-14.6 41.5-14.1 98 0 144.3 12.7 41.4 33.3 75 61.8 103.5a171.1 171.1 0 0 0 48.7 33.9c24 11.4 51.6 21.2 85.2 18.2 19.6-1.7 40.9-12.1 55.6-22.6 6.4-4.5 22.2-16.6 22.6-24.3.3-5-6.9-14.9-9.5-21.7-9.7-24.8-8.8-76.2 22.6-75.7 8.9.2 17.9 8.3 21.7 15.7 10.6 20.9-1 51.9-8.7 68.7-2.8 6.1-7.2 11.9-7 15.6s5.9 10.2 9.6 14.8c25.2 30.8 73 49.5 120 53a134.9 134.9 0 0 0 19.1 0c27.4-2.2 52.3-11.2 73.9-22.6 42.6-22.5 70.3-57.1 90.4-102.6 10.3-23.2 20.1-50 20-77.4 0-13.8-3.9-25.9-5.2-39.1-7.7 1-12.3 5.1-20 6.1-30.5 4.2-65.5-13.4-67.8-42.6-1.3-17.4 6.4-29.2 18.3-34.8 27.3-12.9 58.1 5.7 69.5 24.4 3.8 6.2 5.7 13.1 8.7 20 5.1-.9 7.8-6 11.3-9.6zM347.3 91.9c2.2-6.9 3.3-20.6-2.6-24.3-1.5 7.3-6.1 21.4 2.6 24.3zm143.5 49.6c.4 2.6 1.2 7.1 5.2 7.8 12.7-8.9 16.3-34.6 12.1-54.8 0-.5-.1-1-.8-.8-6.5 10.2-19.3 30.7-16.5 47.8zm-311.3 90.4c5.3 10.4 24.4 29.7 27 8.7 2.1-17.7-19.4-38.5-35.7-40.9 1.9 10.1 3.1 21.2 8.7 32.2zm410.4 94.8c-8.2 1.6-14.5 9.3-13.9 20 1.4 26.2 44 36.3 66.9 21.7-3.8-21.5-24.2-47.3-53-41.7zM324.7 489.3c-.5-4-3.8-13-7.8-14-16.5-3.9-16.5 30.9-13.9 42.6 1.8 8.4 6 17.2 9.5 20 3.8-12.7 14.6-30 12.2-48.6zm46.1-212.2c9.1-.7 18.3 5.2 20.9 12.2 5.5 15.3-4.5 33.4-18.3 34.8-30.7 2.9-33.1-44.7-2.6-47zm-1.8 32.2c7.8 1.2 10.6-6.8 7.9-15.7-13.5-8.9-19.2 13.9-7.9 15.7zm112.2-13.1c-2.1 16.1 25.2 6.3 11.3-6-7.8-.6-10.6 1.1-11.3 6zm-228.7 23.5c-10-11.7-25.1 16.3-2.6 13.9 4.4-2.7 6-9.9 2.6-13.9zM376 341.4c-9.5 1.3-13.2-13.3-22.6-10.4a7.6 7.6 0 0 0-4.4 5.2c-1.8 11.4 19.2 22.3 32.2 20 9.9-1.7 18.9-16.3 19.1-26.9-12.4-13.4-14.6 10.9-24.3 12.1zm342.6 132.2c8.1-2.4 19.7 11.9 26.9 19.1 12.3 12.3 28.3 35.1 37.4 52.2 6 11.3 15.2 28.4 12.2 48.7-2.2 14.5-15.1 27.3-33.1 24.3-15.8-2.6-28.6-22.5-35.6-40.8-6.1-16-12.4-42.9-13.9-61.8-.4-4.1-1.7-38.1 2.6-40.8 1-.7 2.2-.5 3.5-.9zm8.6 26.1c.9 5.7 1.2 10.9 1.8 16.5 1.8 17 4.7 29.4 9.5 45.2 3.9 12.3 13.7 44.2 32.2 40 11.2-2.6 9.1-24 6.1-33.9-3.9-13.1-13-26-20.9-37.4a249.6 249.6 0 0 0-26-32.2c-1.2 0-1.3-1.1-2.7-.8zM276 683.1c9.8-2.5 19.9 15.6 25.2 24.4 10.8 17.6 23.4 43.2 29.6 66.1 3.5 13 6.9 27 6.9 40.8 0 19.1-7.9 37.6-21.7 39.1-29 3.2-42.5-39.7-46.9-66-4-23.9-4-52.3-1.8-79.2 1-12.3 0-22.9 8.7-25.2zm7.8 103.5c4.5 22.9 11 46.7 30.5 51.3 6-5.3 7.6-13.2 7.8-22.6.4-20.6-6.5-41.5-13.9-59.1S292.6 721 283 708.3c-.1-.5-.2-1-.9-.8-2.4 24.7-3 54.8 1.7 79.1zm295.6 26.1c10.5-3.3 24 21.3 28.7 27.8 11.3 15.5 30.7 49.3 40 71.3 6.2 14.5 19.8 49.7 10.5 74.8-6.8 18.2-27.4 28.1-47.9 17.4-34.6-18.2-46.1-84.1-42.6-138.3.8-11.1.6-49.7 11.3-53zm6.1 26.1c-6.1 49-1.7 114.1 20.9 141.7 4.8 5.8 14.8 14.5 25.2 13s14.4-15.1 14.8-27.8c.7-25.9-12.7-49.7-23.5-71.3a355.1 355.1 0 0 0-36.5-58.3c-1 .2-.9 1.4-.9 2.7z" fill="#a484d1"></path></g></g></svg>