<svg xmlns="http://www.w3.org/2000/svg" width="1080" height="847.9" viewBox="0 0 1080 847.9">
  <title>icons119_349001438</title>
  <g id="Layer_2" data-name="Layer 2">
    <g id="_349001438">
      <g id="icons119_349001438">
        <path d="M928.8,469.1c-37.4-13.5-75.8-27.8-114.5-36.9-31.3-7.3-64-14.2-94.1-25.7-4-1.5-1.9-8.4,2.3-7.3,33.4,9,67.9,15.2,101.6,23.3,32.1,7.7,63.8,19.4,95,30.3s63.9,23.2,96,34.1c21.8,7.3,43.2,8.8,64.9,9.6.9-51.5-38.7-106.2-56.9-152.2-17.3-43.7-36.7-87-58.1-128.9-14.3-28.3-39.2-64.7-51.8-98.3-.5,1.3-.9,2.6-1.5,3.9-14.4,33.6-45.3,52.2-64.4,82.4s-43.8,55.4-65.4,82.9c-23.8,30.2-45.7,61.9-74,88.1-3.7,3.4-9.7-1.2-6.2-5.2,24.9-27.7,45.4-58.9,68.6-87.9,21.7-27.3,46.4-53.8,65.3-83.2,9.6-14.9,17.9-26,31.1-38s25.1-25.5,32.5-42.3S911,81.9,914.5,63.1c-2.2-27.4-15.8-49.5-49-59.3-41.8-12.2-79.7,7.6-117.9,21.8C698.7,43.9,649.4,58,599.8,74.3c-54.2,17.9-110.8,25.5-165.4,43-52.5,16.8-103,38.3-154.7,56.6-48.3,17.1-96.5,34-142.1,57.4-16.2,8.3-38.2,16.6-57.2,27.7C36.9,263.6-9,311.7,1.5,354.5c4.9,20,16.8,35.1,32.3,46l6.4,2.7c17.9,8.2,36.1,11.2,54.9,16.4,43.6,12,90,10.8,134.9,16.1s89.3,5.5,134.1,8.6c18.2,1.2,36.6,3.3,54.8,5.2,12.3,1.3,31.5-.6,42.2,6.2,4.9,3.1,1.8,9.9-3.7,8.1-8.3-2.6-21.7-.6-30.3-1.3s-17.3-1.5-25.9-2.4c-20.3-2.2-40.4-3.3-60.7-5-48.9-3.9-97.8-4.8-146.8-10.9-24.1-3-48.9-1.4-72.7-6-20.4-4-42-8.7-61.9-14.5l-1.4-.4c2.6,5.6,5.1,11.1,7.2,16.2,17.8,43.2,31.3,87.6,45.9,131.9s38.7,82.2,64.7,121.1,62.2,106.4,109.9,138c5.9-20.3,13.1-40.5,20-59.5,11.4-31,27.9-61.1,44.7-89.4s40.1-51,60.3-75.2C433.3,579.2,455,550.1,479,524c3.4-3.8,9.1,1,6,5-21.8,28.5-41.9,57.8-64.7,85.7-20,24.3-43.7,48-59.6,75.4-27.3,47.1-45,97-63.1,147.5,12.6,6.4,25.9,10.2,40,10.3,48.6.3,94.1-23.2,137.3-42.1,45-19.6,92.3-39.4,140.4-51.6,32.4,2.4,77.6-17.9,103.7-29.7s47.4-29.1,72.1-42.2c29.3-15.6,59-29,88.9-43.2,28.3-13.4,54.8-30.3,83.1-43.7s59.7-19.5,85.5-35.9c14.5-9.1,22.7-21.2,26.4-34.6a93.5,93.5,0,0,0,3.7-14.5,240.8,240.8,0,0,1-56.2-8.4C990.9,492.9,959.8,480.3,928.8,469.1Z" fill="#fff"/>
        <path d="M609.8,521.2c15.5-3.9,28.7,2.5,44,4.6a81.2,81.2,0,0,0,19.6.5,48,48,0,0,0,14.3-21.4c2.3-7.2,2-13.8-.1-21.1s-3.1-9.2-3.6-16.7c-.8-11.8,4.7-16.2,11.6-24.9,11.9-15.1,14.5-29.9,8.3-48.6s-18.7-25.8-36.5-26.7c-8-.4-18.8.4-27.4,4-.9-19.3-12-36.2-34-36.5s-46,11.3-56.3,30.5c-12-13.7-31-21.7-47.6-7-13.4,11.8-6,28,3.6,40-10.3.4-20,2.4-22.8,14.6-2.2,9.4,1.6,20.2,7.1,29.5-9.8,9-15.1,23.8-14.1,36.6,1.7,22.8,16.2,31.8,35.2,34.3-2,14.5-2,30.9,11.5,40.3,11.7,8.1,32,.6,44.8-6.8,3-2.3,6-4.8,8.8-7.3A85.4,85.4,0,0,1,609.8,521.2Zm-87.7-86c3.2-33,42.8-52.2,72.9-50.7,37.9,1.7,65.2,41.5,60.6,78.4-5.3,42.6-55.8,49.7-90,43.7S513.5,467.3,522.1,435.2Z" fill="#ef8074"/>
        <path d="M646.5,455.6c1.1-15.6-6.4-30.4-15.5-42.6-12.5-17-29.6-22-50.5-20s-37.3,15.5-46.7,33c-4,14.5-5.2,30.6-.5,45,5.9,18.4,22.5,25.3,40.4,27.3C605.4,501.9,643.8,493.9,646.5,455.6Z" fill="#ef8074"/>
        <path d="M572.4,543.2c-1.5,1.1-3.2,2.1-5,3.2-10.6,8.1-22.3,14.8-35.2,18.8-3,.9-1.7,5.1,1.1,5.1,15.2-.3,27.7-7.7,39.7-16-.5,3.7-1.1,7.4-1.6,11.1-.6,5.3-3,10.7-.8,15.8.7,1.8,3.6,2.3,4.4.2a68.1,68.1,0,0,0,4.3-17.8c-1.8-7.4-3.8-14.6-4.9-22C573.7,542.1,573.1,542.8,572.4,543.2Z" fill="#fff"/>
        <path d="M720.3,506.5c-15.4,10.8-30,18.1-46.9,19.8-1.8,1.5-3.7,3-5.7,4.4l18.1,21c3.5,2.6,7.3,4.5,12.1,4.3,3-.2,3-4.4.2-5-5.6-1.3-9.7-5.9-13.6-9.9l-3.5-3.2h1.9c17.2-2.2,32.3-11.5,44.4-23.5C731.5,510,725,503.2,720.3,506.5Z" fill="#fff"/>
        <path d="M673.4,526.3a81.2,81.2,0,0,1-19.6-.5c-15.3-2.1-28.5-8.5-44-4.6a85.4,85.4,0,0,0-33.6,17.9c-2.8,2.5-5.8,5-8.8,7.3,1.8-1.1,3.5-2.1,5-3.2s1.3-1.1,2-1.6c1.1,7.4,3.1,14.6,4.9,22a95,95,0,0,0,.5-14.1c15-10.6,29.9-20.7,48.9-17.9,13.9,2.1,26.3,5.8,39.6,6.6a33.1,33.1,0,0,0,4.6,2.9c3.3,1.9,6,4.6,8.8,7.1a44.7,44.7,0,0,0,4.1,3.5l-18.1-21C669.7,529.3,671.6,527.8,673.4,526.3Z" fill="#fff"/>
        <path d="M655.6,462.9c4.6-36.9-22.7-76.7-60.6-78.4-30.1-1.5-69.7,17.7-72.9,50.7-8.6,32.1,8.8,65.4,43.5,71.4S650.3,505.5,655.6,462.9Zm-81.9,35.4c-17.9-2-34.5-8.9-40.4-27.3-4.7-14.4-3.5-30.5.5-45,9.4-17.5,26.5-31.1,46.7-33s38,3,50.5,20c9.1,12.2,16.6,27,15.5,42.6C643.8,493.9,605.4,501.9,573.7,498.3Z" fill="#fff"/>
        <path d="M672.4,539.5a40.4,40.4,0,0,1-5.1-3c-14.7-1-28.2-4.9-43.4-7.2-21-3.1-37.4,7.3-53.9,18.2a103.5,103.5,0,0,1-.8,14.7c2.1,8.1,3.8,16.3,3.6,25-.2,14.6-1.7,29.6-3.2,44.2-1.7,17.2-.1,38,24.7,32.4,9.8-2.3,12.5-8,19.3-14.3,14.7-13.3,17.1-5.5,33.3-2.2,8.4,1.7,18.1,1.9,24.9-3.9,8.7-7.4,6.8-19.2,6.4-29.8,17.7,5.5,44.8,11.5,48.6-9.2,2-11.2-8.5-20.3-15.7-27.6s-16.7-17.3-24.7-26.1l-4.5-3.7C678.9,544.4,676,541.6,672.4,539.5Z" fill="#ef8074"/>
      </g>
    </g>
  </g>
</svg>
