<svg xmlns="http://www.w3.org/2000/svg" width="644.1" height="1080" viewBox="0.02752542495727539 -0.03886985778808594 643.8738403320312 1080.03857421875" style=""><g><title>icons83_327518226</title><g data-name="Layer 2"><path d="M642.3 1039.7a6.1 6.1 0 0 0-2.8-2l-2.7-.9c-6.8-2.6-19.3-5.8-43.1-10.8-15.4-3.4-26-6.2-28-7.2v-.6c-.5-2.3-1.9-9-3.6-16.3l-4.8-20.7c-4.4-18.8-11.1-47.3-17.8-76.2l-15.6-66.6c-4.6-19.7-8.3-35.8-10.2-43.7-2.4-10.4-5.1-21.9-7.1-30.7-1.1-4.8-2.1-8.7-2.6-11.3l-2.7-11.2c.2-.6.8-1.3 2.8-2.7l4.3-2.3c5.2-2.8 9.7-6.1 12.1-8.8a35.1 35.1 0 0 0 3.9-5.7 17.1 17.1 0 0 0 1.4-2.7l.7-1.4c5.1-10.9 9-25.9 10.1-39 1.6-17.1-.2-55.9-5.3-118.4-.9-10.8-2.1-26.7-2.7-34.8s-3.4-29.8-5.9-45.3-5.5-36.9-6.7-47.1c-1.5-13.9-2.6-18.7-4.6-20.5-3.8-3.5-6.5-4-9.7-2-1.1.7-7.6 2.5-15.1 4a567.6 567.6 0 0 0-66.3 17.5c-11.1 3.7-28.8 8.7-38.9 11.1-21.9 5.3-47 13.4-49.7 17.2-4.2 6.5 9 54.3 23.9 98.8 32.9 99 56 144.5 85.2 168 12.2 9.8 20.7 14.1 31.6 15.9l8.3 1.3 4.6 20.4c4.2 17.9 14.2 61.1 29.2 124.9l4.4 18.7 4.7 20.2c4.4 19.2 7.5 32.4 9.9 42.5 3.7 16.1 5.5 24 8 34.5s4 18.1 4.1 19.2c-2.3 2.6-35.5 32.7-46.8 42.1-6.7 5.6-8.2 7.1-7.5 9.7s1.2 3.2 4.1 3.2a18.4 18.4 0 0 0 6.4-1.6 52.8 52.8 0 0 1 8-2.7c1.7-.2 8.3-1.8 13.5-3.2s28.8-6.6 55.3-12.1l53.6-11.2 6.3-1.3 2.7-.6h.2l.3-.2c.3-.2 1.5-1.8 1.7-2s1.5-3.4-1.1-5.4zM508.7 711.9a58.5 58.5 0 0 1-3.8 5.2 25.4 25.4 0 0 1-5.3 3.4c-6.1 2.1-17.7 4.7-22.2 4.7h-.2c-11-.3-29-13.2-42.8-30.6l-1.2-1.5-6.4-9.8c-2-3.1-4-6.4-6.2-10s-2.4-4.7-3.9-7.6c-10.5-20.5-23.9-51.6-32.7-75.7l-14.7-40v-.3c-13.7-36.8-25.5-75.3-25.1-79.7 3.1-1 28-7 48.6-11.5 6.8-1.5 22.4-5.8 34.9-9.7 22.6-7 49.5-13.8 62.6-15.7l6.8-.9 6.4 39.6c8.5 52 15.8 141.1 15.3 186.9-.3 23.1-4.2 44-10.1 53.2z" fill="#1a171b"></path><path d="M234.6 349.3c0-.6-1.8-8.3-3.3-7.5s-11.7-26.5-12.1-29.3c-1.8-10.8 1.5-19.2 3.8-29.4-.6 2.6 1.1-2.7 1.5-3.6a34.4 34.4 0 0 1 2.9-4.9l2.1-3.2a46.8 46.8 0 0 0 17.5 12.5c16.5 6.7 37.8-3.3 45.9-18.3 6.7-12.6 2.2-32.4-7.9-42.2-8.6-8.4-21.6-6.9-31.7-2.4a83.5 83.5 0 0 0-18.5 12.2c-2.8-11.6-1.9-23.8 5-34.2a65.1 65.1 0 0 1 9.8-11.2l3.1 3.6c11.4 12.3 27.2 20 44.1 16.2s31.6-18.6 38.6-32.7c4.1-8.2 5.6-17.5.3-25.4s-13.5-11.8-23.1-13.1c-14.6-2.1-30.4 5.6-43.2 11.8a143.1 143.1 0 0 0-13.8 7.5 99.7 99.7 0 0 1-6.6-19.5c-2.3-10.7 4.1-24.5 8.2-34.3 5-12 11.9-22.9 19.3-33.5a183.3 183.3 0 0 1 55.6-51.8c8.6-5.1 2.1-19.6-7.4-16.1-38.9 14.5-69 52.6-86.3 89-8.2 17.1-15.1 37.1-10.2 56a114.7 114.7 0 0 0 9 23.6c-19.3 16.7-32.5 39.3-24.3 65.9 1.7 5.4 3 10.5 4.6 15.5-6.3 7.4-12.1 15.8-15.3 24.8-10.4 28.9-5.9 58.2 14.3 82 3.8 4.5 11.5 3.6 15.2-.3a11 11 0 0 0 2.9-7.7zM282.7 167c6.7-3.2 26.8-13.5 33.4-5.7a13.8 13.8 0 0 1-.8 2.7c-.7 2.1-2.4 4.1-3.7 5.9-3 4.2-7.5 7.7-11.5 10.9-5.7 4.4-12.8 6.8-19.6 3.6a42.2 42.2 0 0 1-12.7-9.6c5-2.9 10-5.4 14.9-7.8zm-13.5 72.5h.1l1.2.7c-.5-.3.9 1.8 1.6 3.7a27.7 27.7 0 0 1 1.7 9.8c-.5 5.8-9.1 8.8-13.7 9.6-6.6 1.1-12-3.7-15.8-9.1 6.4-6.2 13.8-11.7 22-14.4z" fill="#f15a37"></path><path d="M365.8 107.6c-1.9-2.9-6.6-4-17.4-6.1-8.2-1.5-20.6-4.3-27.6-6.2-19.1-5.1-72.8-15-85.8-15.8l-4.8-.3-12.9-.8h-3.7c-3.5 0-5.8.6-7.5 3.8a14.6 14.6 0 0 0-1.7 4.7c-.3 1.1-.6 2.4-1 3.8-1.4 5.6-5.2 18.5-8.3 28.1s-6.7 22-7.8 26.4c-5 19.3-17.4 81.3-20.9 103.6l-6.6 40c-4.7 25.9-7.9 50.3-8.4 63.6-.5 15.8 2.1 41.7 5.6 54.4a102.7 102.7 0 0 0 6 16 74.8 74.8 0 0 0 7.8 14.2 51.3 51.3 0 0 0 4.4 5.8l5 5.7-44.3 153.3c-19.4 67.4-37.3 128.9-43.4 149.5l-2.1 6.8c-1.2 1.3-8.4 5.6-35.2 18.3-20.1 9.5-35.7 16.7-41.8 19.3a71.4 71.4 0 0 0-8.3 3.5c-4.2 2.1-5.4 3.7-5 6.6s3.8 4.2 10.3 5.3a27.8 27.8 0 0 1 5.3 1.4c1.2.9 10 1 10.4 1 4.9.1 19.1 2.1 31 4.5 29.3 5.8 62.2 10.7 79.9 11.9 4.8.3 10 .5 15.1.5 9.2 0 20.9-.6 24-2.1a4.9 4.9 0 0 1 2-.6h.1a1.7 1.7 0 0 0 1 .3 2.9 2.9 0 0 0 2-1.2c1.2-1.6-1-5.3-3.1-8.2a45.6 45.6 0 0 0-3.6-4.3l-1.5-1.4c-4.1-3.8-11.1-9.3-24.3-19.3l-32.1-24.5-6.5-5c.2-.7.4-1.6.7-2.6l43.6-151.1c19.9-68.7 38.5-133.6 43.2-150.9l1.2-4.1a30.1 30.1 0 0 1 6-1 39.6 39.6 0 0 0 7.7-1c12-2.4 22.1-9.3 34.9-23.7 14.5-16.4 24.7-35.3 42-77.5s40.5-109.4 62.3-180.9c4.6-14.8 12.4-44.6 14.3-54 .8-4.2 1.3-7.4-.2-9.7zm-15.5 11.8a8.2 8.2 0 0 1-.2 1.8c-1.6 7.9-8.4 32-13.8 48-3.5 10.8-11.2 34.3-16.7 51.7-24.3 77.3-45.2 135.8-57.3 160.4-16.5 33.5-34.7 52.9-52.6 56.3a33.2 33.2 0 0 1-7.2.7 15 15 0 0 1-3.5-.3c-6.4-1.6-10-3.9-14.4-9.3-11.4-13.5-18.8-41-19.4-71.7-.3-15.3 1.6-33.5 6.9-67.2 2.1-12.8 4.8-30.3 6.2-40.4 2.9-19.4 18.2-94.9 23.5-115.1 1.8-6.6 5.6-19.8 8.3-28.7l5-16.1 14.6 2.7c8.8 1.7 21.1 4.3 27.2 5.9l30.2 6.8c10.2 2.3 24.8 5.7 32.4 7.7s18.3 4.4 23 5.2a65.2 65.2 0 0 1 7.8 1.6z" fill="#1a171b"></path></g></g></svg>