<svg xmlns="http://www.w3.org/2000/svg" width="978.3" height="903.9" viewBox="0 0 978.3 903.9">
  <title>love2_134712796</title>
  <g id="Layer_2" data-name="Layer 2">
    <g id="love2_134712796">
      <g>
        <g>
          <g>
            <path d="M396.1,637.8c0,5.1-1.7,10.5-2.9,15.4s-3.3,11.9-5.2,17.7a306.9,306.9,0,0,1-13.4,33.7c-5.7,12.3-12.6,24-19.6,35.6-3.5,5.8-7.1,11.6-10.7,17.4s-8.6,12.3-10,19h.1a12.2,12.2,0,0,0,1.1,9.3c4.1,7.4,13.4,8,19.5,2.9s8.6-12,12.1-17.8,7.5-12.9,11.2-19.4c7.5-13.2,14.7-26.9,19.7-41.3s8.6-25.9,11.3-39.4c2.2-11.3,4.7-27.7-3.8-36.9C402.2,630.5,396,633,396.1,637.8Z" fill="#422929"/>
            <path d="M375.1,782.6h.6l-2.3-.9Z" fill="#422929"/>
            <path d="M331.3,788a12.8,12.8,0,0,0,2.6.2A10.6,10.6,0,0,0,331.3,788Z" fill="#422929"/>
            <path d="M335,798.2l2.8-2.4A11.2,11.2,0,0,0,335,798.2Z" fill="#422929"/>
            <path d="M355.5,783.8l-16.6-6.7c-4.8-2.7-15.8-10.5-23-6.8-12.8,6.5,6.3,16.3,15.4,17.7a10.6,10.6,0,0,1,2.6.2,12.8,12.8,0,0,1-2.6-.2c-6.2.6-15.6,6.9-15.8,12.6-.3,10.5,13,2.6,19.5-2.4a11.2,11.2,0,0,1,2.8-2.4l-2.8,2.4c-4.5,5-10,15.6-5.4,19.1s12.6-8.9,15.2-13.9l.5-1a9.3,9.3,0,0,1-.5,1c-2.4,5.3-4.9,20.2,3.4,19.3,4.5-.4,5.6-6.5,5.7-11.7-1.1-1.2-1.4-3.2-.3-6.1.1,1.4.3,3.7.3,6.1,1.8,2,5.8,1.6,8.9-1.2C371,802.3,362.8,789.4,355.5,783.8Z" fill="#422929"/>
            <path d="M309.4,802.8a52.6,52.6,0,0,0-.2-6.1C308.1,799.6,308.4,801.6,309.4,802.8Z" fill="#422929"/>
            <path d="M300.9,794.2a3.1,3.1,0,0,0-.5,1A9.3,9.3,0,0,1,300.9,794.2Z" fill="#422929"/>
            <path d="M576.1,771.8l1.4.2A2.1,2.1,0,0,0,576.1,771.8Z" fill="#422929"/>
            <path d="M577.5,799.2c.5-3.4.6-6.6,0-8.1C576.7,793,576.7,796.1,577.5,799.2Z" fill="#422929"/>
            <path d="M646.6,723.8c-1.5,3.3-1.7,6.6-2.2,10l-38.1,19.1c-1.3,26.4,12.9,56.5,19.4,81.8,2,7.6,10.8,29.4,8.1,37.6-3.7,11.8-20.4,16.2-27.3,26.3,10,1.2,46.2,2.4,52.9-5.3,10.1-11.8-4.8-68.9-6.3-79.7C649,783.7,649.2,753.8,646.6,723.8Z" fill="#422929"/>
            <path d="M701.6,708.4l-44.5,17c6.9,34.1,24.4,67.2,33.6,101.2,4.7,17.4,4.8,36,10.6,52.9a91,91,0,0,0-20.2,21.8c10.4,5,40.5,2.1,51.9-2.6,8.3-64.3-22.4-134.9-29.2-198.2A35.6,35.6,0,0,0,701.6,708.4Z" fill="#422929"/>
            <path d="M427.4,688.4c0,21.9-10.3,47.7-15.6,69.2-6,24.3-11,63.7-25.1,84.6-8.3,12.2-17.7,10.1-29.9,17.9a350.9,350.9,0,0,0,35.7,15.2c23.1-50.8,57.5-97.8,84.8-146.5-.7.7-1.7,1.1-2.8,2.1Z" fill="#422929"/>
            <path d="M480.1,736.8a18.3,18.3,0,0,1-.8,2.5A4.1,4.1,0,0,0,480.1,736.8Z" fill="#422929"/>
            <path d="M432,886.3c12.2,5,23.1,10.9,35.9,14.7-.5-10.9-6.1-22.9-5.6-33.7.7-12.9,6.8-18.3,13.9-32.1,17.6-34.2,34.9-95.3,44-121.3l-34-3.1C465.9,768.6,449,827.6,432,886.3Z" fill="#422929"/>
            <path d="M887,258.4a155.6,155.6,0,0,0-47.7-.2c-29.4,4.3-103.6,27.4-105.1,66.2,2.2-58.9-32.2-130.3-83.6-159.5C562.1,114.4,471.7,206.6,435,279.7c-31.2,62.1-3.4,136,16,197.6,23.1,73.3,52.7,144.3,89.5,211.8,15.1,27.7,45,101.5,82.7,101.9,8.3.1,35-30.9,43-37.3,14-11.1,28.5-21.6,43.1-31.9,30.1-21.2,61-41.2,90.9-62.5,69.4-49.5,141.4-118.1,168-201.3,14.9-46.4,14.1-103.8-7.9-147.7C944.9,279.6,917.5,263.6,887,258.4Z" fill="#c93535"/>
            <path d="M572,739.2a197.1,197.1,0,0,1-17.4-36.5c-4.7-12.8-9-25.6-12.7-38.7s-5.9-24.8-11.3-35.8c-2.5-5.2-10.6-3.8-12.1,1.5s-1.2,10.9-.5,16.4c.9,7.1,1.7,14.2,3.1,21.1a375.6,375.6,0,0,0,11.3,43.2,225.8,225.8,0,0,0,16.9,39.5c3.4,6.4,7.2,12.6,11,18.7s6.1,10.7,9.7,15.6v.2h.1l1.9,2.6.2-.2c4.2,4,10,5.6,15.7,2.4s8.6-11.9,4.9-17.9C586.1,760.5,578.6,750.2,572,739.2Z" fill="#422929"/>
            <g>
              <path d="M658.7,409.2c-2.5,2.4-4.2,5.7-6.4,8.4A91.1,91.1,0,0,1,642,427.9a28.8,28.8,0,0,1-3.8,2.8l-.4.2-.8.3h-.9a2.4,2.4,0,0,1-1.3-.2c.3.1-1-.7-1.2-1l-.4-.3-.3-.5c-2.2-3.2-2.4-4.3-3.5-8s-1.7-6.5-2.4-9.7c-1.1-5.3-4.8-8.2-9.9-8.8l-2.4.4-2.7,1.6a13.5,13.5,0,0,0-2.4,2.8c-3.4,5.7,1.2,17.3,3.5,23.1,3.2,8.2,8.7,16.4,17.9,18.3s18-3.9,24.4-10.9c5.1-5.5,15.1-16,14-24.3C668.8,408.4,663,405,658.7,409.2Z" fill="#382626"/>
              <path d="M612,404.7l1.2-1Z" fill="#382626"/>
              <path d="M614.7,403.1h.3C614.3,403.1,614.4,403.2,614.7,403.1Z" fill="#382626"/>
            </g>
            <path d="M599.2,214.5c-53-34.2-123.7-20.4-157.4,44.5-22,42.3-19.1,80.2-7.2,125.4-23.1-68.8-133.3-201.7-223.8-162.6-70.1,30.4-98.9,116.1-85.2,185.3C146,510.3,216,572.7,294.3,637.9c22.6,18.8,181,136.6,185.4,144.7,4,3.6,33.1-42.8,39.7-52,13.8-19.2,25.2-38.7,36.9-59.2,32.4-56.6,79.8-110.2,102-171.7C692.9,403.5,693.6,275.5,599.2,214.5Z" fill="#ef4848"/>
            <path d="M289.4,441.2c-58.1-.5-60,112.8,1.4,106.9,37.9-3.6,44.3-60.4,26.2-89.7C310.7,448.2,301.4,441.3,289.4,441.2Z" fill="#fff"/>
            <path d="M587.4,413.4c-8.7-3.6-28.5-2.5-35.7,4.3-19.8,18.7-25.2,61.4-9.4,83.6,13.7,19.4,43.8,17.7,59.2,2.6,17.7-17.4,19.7-51.3,6-73.2A43,43,0,0,0,587.4,413.4Z" fill="#fff"/>
            <path d="M582.3,471.4c0,4.2.9,10,3.9,13.2,10.6,11.5,20.8-3.8,20.8-13.4a26.5,26.5,0,0,0-.8-6.6C602,448.7,582,450.6,582.3,471.4Z" fill="#382626"/>
            <path d="M312.8,500.2c.1-.3.1-.6.2-.9a.7.7,0,0,0-.1-.5A7.1,7.1,0,0,1,312.8,500.2Z" fill="#382626"/>
            <path d="M291.1,489c-7.3,5.8-4.6,19.1.5,25.5,9,11.5,20.4-3.2,21.3-13.9,0-.4.1-.9.1-1.3s-.1.6-.2.9a7.1,7.1,0,0,0,.1-1.4.7.7,0,0,1,.1.5C314.2,489.3,297.8,483.7,291.1,489Z" fill="#382626"/>
            <path d="M580.5,786.6a18.3,18.3,0,0,0-1.6,6.4A27,27,0,0,0,580.5,786.6Z" fill="#422929"/>
            <path d="M231.7,366.3c-4.4,5.1-6.5,13.1-12.4,16.8s-1.9,12.2,4.2,11.6c8.4-.9,13.9-7.4,19.6-13,1.3-1.2,1.7-1.8,3.1-2.9l1.8-1.1c-1.5.9,2-.3-.2.1,5.6-1,13.7-6.7,10.3-13.5C251.9,351.8,238.5,358.2,231.7,366.3Z" fill="#382626"/>
            <path d="M586.4,769.1l.7.3-18.3,5.4c-5.7,3.7-23.1,16.7-18.7,25.2,8.6,1.7,17.9-12.9,22.8-18.7-1.4,3.6-11.4,22.5-4.9,25.4,3.8,1.7,8.4-7,10.9-13.7a18.3,18.3,0,0,1,1.6-6.4,27,27,0,0,1-1.6,6.4c-.8,6.9.1,16.3,5.8,16.3s6.1-7.1,6.1-13.3c-1.2-3-1.7-6.1-1.3-8.1.8,1.5,1.3,4.6,1.3,8.1,2.2,5.3,6.6,10.1,11.2,6.9,8.2-5.6-6-19.4-9.8-23.1,3,1.5,14.4,10.9,17.4,4.3C613.8,775.2,593.2,769.6,586.4,769.1Z" fill="#422929"/>
            <path d="M577.8,343.9c-11.4-4.8-19.4-17.5-32.5-17.3-3.6,0-7,2.8-8.5,5.9-2.2,4.6-.6,9,2.7,12.5s10.5,6.5,15.7,9.3,13,5.4,19.9,4.6S585.3,347.1,577.8,343.9Z" fill="#382626"/>
            <path d="M838.1,470.1c.1-2.4-.1.1-.2.7a27.6,27.6,0,0,1-.8,2.7c-.1.1-.1.2-.1.4a2.1,2.1,0,0,0-.5.8,25.4,25.4,0,0,1-1.6,2.8,39.4,39.4,0,0,1-7.9,8.4l-2.8,1.7a17.4,17.4,0,0,0-1.9,1l-2.4.7-.6.2h-2.2l-1-.3-.6-.5c0-.2-.8-1.4-.6-.5-2.5-7.3-1.6-17.1-2.6-25.6-.5-4.4-1.1-7.9-3.8-11.5-4.3-5.4-12.4-.5-12.6,5.3-.3,8.4-.7,17.1-.6,25.5.2,10.4,2.7,20.5,12.9,25.3,20.5,9.7,42.7-10.8,49-29.1,1.7-5,1.8-12.4-2.2-16.4C847.7,454.2,838.4,461.5,838.1,470.1Z" fill="#382626"/>
            <path d="M721.9,536.2c-1.3,2.3-1.8,4.8-3,7.1a10.2,10.2,0,0,0-1.2,6.4c-.5,1.7-1,3.3-1.6,5a101.3,101.3,0,0,1-7.3,15.8c-3.2,5.8-4.7,8.1-9.8,12.5h0l-1.5,1-1.4.8H696l-1.5.4H693a10.4,10.4,0,0,1-5-2.4,29.4,29.4,0,0,1-6.6-7.5c-3.7-6.2-5.2-13.3-6.3-20.4-.8-5.3-1.3-41.6-13.9-34.1-6,3.7-4.1,15.1-4.1,21.1-.1,8.9-.1,17.7,1.2,26.5,2.5,16.5,13.5,35.8,31.6,38.6s29.3-9.4,37.6-22.7,13.6-27.9,14.9-42.5C743.3,530.6,727.1,527.2,721.9,536.2Z" fill="#382626"/>
            <path d="M331.9,559.6a29.7,29.7,0,0,0-7.2,1c-7.4-2.4-16.1.5-22,6.6a30.5,30.5,0,0,0-7.4,12.1,27.3,27.3,0,0,0-2.4,8.9c-1.7,5.7-1.5,11.6,2.4,16.3a16.8,16.8,0,0,0,4.1,3.6,26.3,26.3,0,0,0,12.4,8.3A26.2,26.2,0,0,0,318,619c10.7,2.9,20.9-3.6,27.6-11.3a42.2,42.2,0,0,0,10.3-28.1C355.5,566.4,343.8,559.6,331.9,559.6Z" fill="#d13333"/>
            <path d="M549.7,540.9a38.5,38.5,0,0,0-13.2,15.9c-3.9,8.9-4.4,21.4,4.4,27.6a13.5,13.5,0,0,0,3.4,1.7,20.3,20.3,0,0,0,17.6,7.5h1.7a27.5,27.5,0,0,0,16.9-6.3c13.6-11.4,20-34.2,6.9-48.1C577.6,528.7,559.6,534,549.7,540.9Z" fill="#d13333"/>
            <path d="M836,531.4a32.6,32.6,0,0,0-15.5-12.1c-22.5-8.2-45.5,18.5-35.8,39.6-.4,5.6.6,11.3,3.5,15.4,8.5,11.8,22.7,10.8,34.5,5.1,7.3-1.8,13.9-6.2,17.1-12.9.5-1.2,1-2.3,1.4-3.5a27.9,27.9,0,0,0,3.7-13.5C845.1,541.9,841.3,535.9,836,531.4Z" fill="#ef4848"/>
            <path d="M651.6,626.3c-15.4,3.9-31.2,5.5-47,7.2s-31.8,3.4-47.9,3.8-31.1-.2-46.1-4c-12.5-3.2-26.9-6.3-36.8-14.2-5.7-4.5-13.3-5.6-18.9,0s-5.1,15.9,1.5,20.4a12.6,12.6,0,0,0,4.4,2.8c12,7.3,26.5,11,40.1,14.1,17,3.9,34.4,4.9,51.9,4.1s35.2-3.6,52.6-7,33.9-6.5,50.2-12.7C664.5,637.5,661.2,623.9,651.6,626.3Z" fill="#422929"/>
            <path d="M327.6,663.8a85.7,85.7,0,0,1-8.6,2.7,44.1,44.1,0,0,1-12,1.8c-2.1-.1-6-.7-7.3-2.5s3.7-5.9,5.6-7.2,3.2-2.1,4.8-3.1l.6-.4.4-.2,3-1.3a52.5,52.5,0,0,1,5.5-2.2l1.8-.5a10.8,10.8,0,0,0,2.9-.9c4.9-2.6,8.4-6.6,7.9-12.6a12.5,12.5,0,0,0-10-11c-11-1.9-24.9,6.7-33.3,12.9-10.8,7.8-19.4,19.4-15.4,33.3,4.7,16,28.5,21,42.5,18.4a83.9,83.9,0,0,0,30.5-12.8c-3.6-3.3-7.6-5.6-11.8-9C332.6,667.5,330.3,665.8,327.6,663.8Z" fill="#422929"/>
            <path d="M453.1,620.7a10.8,10.8,0,0,0-1.2-4.5A16.8,16.8,0,0,0,453.1,620.7Z" fill="#422929"/>
            <path d="M468.8,638l-4.5-13.6c2.4-6.1,3.6-29.3-6.7-29.6-6.1-.2-6.9,13.5-5.7,21.4a10.8,10.8,0,0,1,1.2,4.5,16.8,16.8,0,0,1-1.2-4.5c-3.3-7.4-13.3-17.4-19.7-13.2-8.9,5.8,1.1,22.8,7.3,26.9-4.9-.3-22.5-.7-22,8.6s16.5,2.7,21,.5l.4-.2-.4.2c-4.4,2.4-14.1,13.8-10,18.7s13.5-4.8,16.7-7.4c-.1,3.8-2.3,11.2.6,14.6,8.3,9.3,25.6-13.1,26.2-20.7C470.1,645.4,470,636.1,468.8,638Z" fill="#422929"/>
            <path d="M438.5,639l.4-.2Z" fill="#422929"/>
            <path d="M317.1,629.1c0,.2-.1.3-.1.5A4.3,4.3,0,0,1,317.1,629.1Z" fill="#422929"/>
            <path d="M332.2,629.4a10.3,10.3,0,0,0-1.8,4C330.9,632.5,331.5,631,332.2,629.4Z" fill="#422929"/>
            <path d="M331.1,644.1a15.6,15.6,0,0,0,5.6-.4A9.1,9.1,0,0,0,331.1,644.1Z" fill="#422929"/>
            <path d="M332.2,629.4c-.7,1.6-1.3,3.1-1.8,4a10.3,10.3,0,0,1,1.8-4c2.9-7.1,6.8-19,1.3-22.5-8.2-5.2-14.9,16.2-16.4,22.2a4.3,4.3,0,0,0-.1.5,4.3,4.3,0,0,1,.1-.5c1.3-6.2-2.5-20-7.6-17.8-9.8,5.2-3.9,22.1-2.7,30.5,1.3.5.6-.4,1.2-.8l8.7,10.6a18.8,18.8,0,0,1-.2-3.3c5,4.6,15.6,10.2,22.1,4.2,4.2-3.9,2-7.7-1.9-8.8a15.6,15.6,0,0,1-5.6.4,9.1,9.1,0,0,1,5.6-.4c7.2-1.6,14.8-7.5,10.6-15S335.8,624.3,332.2,629.4Z" fill="#422929"/>
            <path d="M493.8,497.7c-3.9-1.1-8.6,1.3-9.5,5.4a112.5,112.5,0,0,1-4,13.7l-1,2.7a1.8,1.8,0,0,0-.4.9l-.8,1.6c-1,2.2-2.2,4.5-3.4,6.7s-2.4,3.8-3.8,5.7c0,.1-.2.3-.4.5l-.8,1a34,34,0,0,1-3.4,3.2l-1.5,1.2h-.1l-.3.2-2.8,2-2.9,1.6-.6.3-1.4.5c-.9.4-1.9.6-2.8.9l-2.2.4a40.1,40.1,0,0,1-4.9,0l-1.3-.3-2.6-.7c-.4-.1-2.1-.8-2.1-.7l-2.3-1.2a38.4,38.4,0,0,1-5-3.2h-.2l-1.2-1-2.8-2.5c-1.7-1.6-3.2-3.3-4.7-5l-2.3-2.7c-.2-.2-1.2-1.5-.6-.7l-.8-1.1c-.1,0-.1-.1-.2-.2a84.7,84.7,0,0,1-7.3-12.8l-3.4-6.5a17.4,17.4,0,0,0-1.5-2.6,14.5,14.5,0,0,0-4-3.8c-4.6-3-10.5,2-9.1,7.1s3.4,7.4,5.1,11,3.6,7.9,5.7,11.6l1.5,2.5.8,1.2.9,1.2c1.8,2.4,3.7,4.7,5.7,7a70.1,70.1,0,0,0,11,10.1c7,5.4,15.8,8.8,24.7,8.5,10.6-.4,19.9-5.9,27.7-12.8,5.7-5.2,9.9-12.4,13.1-19.3a111.1,111.1,0,0,0,5.3-13.5,24.4,24.4,0,0,0,2.6-10.6A7.8,7.8,0,0,0,493.8,497.7Z" fill="#382626"/>
          </g>
          <path d="M488.9,25.2c-7.7-18.7-45.4-30.1-49.6-4.5-3.7,22.9,28.8,52.9,46.3,57.3,13.9-8.6,33.3-32.4,40-46.6C544.4-8.3,487.5-10.3,488.9,25.2Z" fill="#ef4848"/>
        </g>
        <path d="M134,141.4c-22.7-19.4-36.3-47-56.1-69.1-5.2-5.8-15.4,1.9-10.8,8.4,17.9,25.5,32.6,53.2,57.8,72.6C131.7,158.5,140.5,147,134,141.4Z" fill="#382626"/>
        <path d="M29.8,213.5c-9.6,0-9.6,14.9,0,14.9S39.3,213.5,29.8,213.5Z" fill="#382626"/>
        <path d="M60.7,231.9c-.9-.3-1.7-.5-.5-.3-.3,0-1.8-.6-1.5-.4-1.8-.8-3.5-1.8-5.2-2.7-5.1-2.9-9.9-6.7-14.7-10.1s-9.7-7.6-14.8-11.8c-2.6-2.1-5.1-4.4-7.7-6.4L16,200a21.6,21.6,0,0,0-2.9-2.1A20,20,0,0,0,8.3,196a6.8,6.8,0,0,0-8.1,8.2c1.6,6.3,6.9,10.4,11.8,14.4a189.8,189.8,0,0,0,17.9,13A86,86,0,0,0,47,240.3c4.3,1.7,9.3,2.8,13.9,1.3a5.1,5.1,0,0,0,3.6-4,6.6,6.6,0,0,0,.9-1.9C66.3,233.1,63,230.7,60.7,231.9Z" fill="#382626"/>
        <path d="M870.8,81.9c-14.7,16.2-19.7,37.6-28.8,56.9-3.5,7.5,7.3,14.1,11.2,6.6s8.3-17.9,12.4-26.9A318.3,318.3,0,0,1,881,89.7C884.7,83.5,875.9,76.4,870.8,81.9Z" fill="#382626"/>
        <path d="M944.7,104.7c-11.8,14.6-23.8,28.5-36.8,42.1-5.8,6.1,3.2,15,9.2,9.2,13.6-13,29.3-26.2,38.6-42.8C959.4,106.5,949.8,98.4,944.7,104.7Z" fill="#382626"/>
      </g>
    </g>
  </g>
</svg>
