<svg xmlns="http://www.w3.org/2000/svg" width="903.9" height="712.9" viewBox="-0.0204925537109375 0 903.9515380859375 712.9125366210938" style=""><g><title>love14_219092498</title><g data-name="Layer 2"><path d="M85.5 288c22.6 16 24.7 16.5-15 37.9-28.6 15.3-53.2 29.2-52.7 29.7s62.3 32.1 94.5 48.3c24.4 12.2 43.6 18.2 29.1 30.3-5.1 4.2-42 22.8-54.5 27.4-10.6 4-12.8 2.5 16.2 17.7 19 9.9 37 17.1 19.6 29.5-4.3 3.1-32.3 27.1-31.9 27.3s373.4-37.7 763.3-37.7c-80-104.9-116.7-91.5-73.6-109.1s105.6-46.6 105.6-48.8c0-9.5-69.2-50.8-73.9-55-11.8-10.8 14.9-14.8 60.8-61.4-24.1.1-821.9 6.2-841.5 25.1-1.4 1.4 25.5 18.6 54 38.8z" fill="#fff"></path><path d="M680 216.5c29.3-.9 32.1-1.6 32.6-2.2s1.5-13.6 2-28.9c1.4-44.3.6-90-39.5-109.4 1.7 0-30.9-15.2-52.7 13.6-23.9 31.5-27.2 84.4-87.8 129.1 35 0 38 .4 43.6-2.5 26-13.3 35.4-67.6 56.5-90.4 15-16.2 30.4-15.8 38.1 1s7.1 31.7 7.2 89.7z" fill="#ff6064"></path><path d="M596.4 546.1c-4.5 0-4.7-4.9-4.7-24.7-17.5 0-19.4-.2-32.2 1.6 0 56.2.2 62.3-1.9 64.5-10.5 10.1-7.9-21-7.9-64.9-16.1 0-16.7-.1-34.4 1.7-.3 36.2-.5 67.4-.9 103.6-15.1 12.2-10.7 9.6-8.8-104.4-17.3 1.3-19.5 1.6-31.3 1.6 0 7.7.9 23-7.2 20.5-3.1-1-2.7-2.2-2.7-19.2-17.5 0-18.3-.2-28.7 1.6.6 22.1 3.1 42.6-5.6 37.1-3.9-2.4-3.3-35.7-4.4-37.1s-145.6 8.2-146.5 9 32 46.6 43.1 59.7c22.9 27 93.8 87.7 124.8 98.3 99.7 33.8 150.3-61.9 212.6-174.8-33.1.5-34.5.6-58.2 1.3 0 18.4.8 24.6-5.1 24.6zm-127 51.9c-4.8-4.8-1.2-28.9-1.8-28.9 1-2.3 5.9-2.7 7.6-.5.5.5 6.9 42.2-5.8 29.4z" fill="#ff6064"></path><path d="M626.3 161.3c-14.5 32.2-19.4 42-32.8 56.3 11.1-.1 73-.5 74.1-1.6s5.6-72.2-6.8-88c2 0-11.2-18.7-34.5 33.3z" fill="#ff6064"></path><path d="M168.1 224.8c-3.3-86.1-1.7-90.7.1-91.8 7.9-5 7 13.2 7.4 23.5 1 27.6 3.2 67.3 3.7 67.8s34.5-1 35.1-1c-.1-6.7-1.3-117.1-.2-121.3s6.1-4.3 8-.6 1.5 117.9 4.1 120.5c.8.8 22.2-.1 45.1-1-1.6-48.9-2.3-47.2 8.3-46 1.2 28.2 1.4 33.5 1.9 46.7 1.1-.1 34.9-1.5 35.5-2.1 2.7-3.2-8.9-91 1.7-91 9 0 3 32.5 10 91.5h30.6c0-35.3-.5-39.9 6.1-37.8 4.1 1.3 3.8 5.4 3.8 37.1 128.4-.7 132.4-.2 142.7-3.2 64-18.8 78.7-112.3 108.3-140.3 42.4-40.1 125-3.5 103.3 139.6-.5 0 55.8-1 57.1-2.4s7.6-43.2 8.3-61.5c2.1-55.7-10.2-87.9-44.8-116.5-30.6-25.4-71.9-31.1-107.9-18.9-99.2 33.5-76.6 127.6-158.1 158.3-57.1 21.5-99.8-25.2-133.9-75.5-23.1-34.3-50.1-60-91.3-64.2-63-6.5-119.9 24.3-134.7 92.7-6.3 28.9-1.2 94.7 2 100 .4.6 29.5-.4 47.8-2.6zm104.1-110.7c3 2.1 2.3 25.3-.9 27.3-9.1 5.6-10.6-35.5.9-27.3z" fill="#ff6064"></path><path d="M52.4 285.5c16.2 9.8 30.3 19.4 30.3 20.7s-9.7 6-21.4 12.3C-2.1 352.6-.4 352 .1 357.5c1.2 12.2 117.3 64.6 128.9 69.6-73.1 36.9-115.1 30.8-19 77.8-42.8 37.8-49.4 38-45 44.8 3 4.5 44.6.2 148.6-8 61.4-4.8 50.1-7.5 60.8 8.5 30.8 45.9 64.7 85.3 118.2 124 131.8 95 194.8 4.2 278.9-153.4 196.7-9.9 218.6 10.3 195-24.7-39.1-58.3-82.1-87.8-79.9-89.7 5.7-4.6 112.2-46.2 116.3-53.3 8.8-15.3-41.2-49.7-56.2-59-16.9-10.5-15.9-8.3-9.4-12.7s67.4-54.6 57.8-62.7c-7.7-6.5-60.9-4.9-102.8-4.9 13.4-81.1 17.3-143.7-48.4-193C718.1 1.5 691.5 0 663.3 0 530.9 11.1 553.7 149.3 461.6 167.6c-69.5 13.8-101.9-84.2-149.5-120.2-68.6-51.7-233-29.9-205.5 163.7 2.9 20.5 4.1 18-12.5 19.2-15.1 1.2-43.3 5.3-62.5 7-8.5.7-25.5 1.7-25.5 10.2a13.4 13.4 0 0 0 2.3 7.2c3.1 4 25.3 19.5 44 30.8zM447.1 695c-31-10.6-101.9-71.3-124.8-98.3-11.1-13.1-44.1-58.8-43.1-59.7s145.8-9.7 146.5-9 .5 34.7 4.4 37.1c8.7 5.5 6.2-15 5.6-37.1 10.4-1.8 11.2-1.6 28.7-1.6 0 17-.4 18.2 2.7 19.2 8.1 2.5 7.2-12.8 7.2-20.5 11.8 0 14-.3 31.3-1.6-1.9 114-6.3 116.6 8.8 104.4.4-36.2.6-67.4.9-103.6 17.7-1.8 18.3-1.7 34.4-1.7 0 43.9-2.6 75 7.9 64.9 2.1-2.2 1.9-8.3 1.9-64.5 12.8-1.8 14.7-1.6 32.2-1.6 0 19.8.2 24.7 4.7 24.7s5.1-6.2 5.1-24.6c23.7-.7 25.1-.8 58.2-1.3C597.4 633.1 546.8 728.8 447.1 695zM118.3 127.4C133.1 59 190 28.2 253 34.7c41.2 4.2 68.2 29.9 91.3 64.2 34.1 50.3 76.8 97 133.9 75.5 81.5-30.7 58.9-124.8 158.1-158.3 36-12.2 77.3-6.5 107.9 18.9 34.6 28.6 46.9 60.8 44.8 116.5-.7 18.3-6.3 59.5-8.3 61.5s-57.6 2.4-57.1 2.4C745.3 72.3 662.7 35.7 620.3 75.8c-29.6 28-44.3 121.5-108.3 140.3-10.3 3-14.3 2.5-142.7 3.2 0-31.7.3-35.8-3.8-37.1-6.6-2.1-6.1 2.5-6.1 37.8h-30.6c-7-59-1-91.5-10-91.5-10.6 0 1 87.8-1.7 91-.6.6-34.4 2-35.5 2.1-.5-13.2-.7-18.5-1.9-46.7-10.6-1.2-9.9-2.9-8.3 46-22.9.9-44.3 1.8-45.1 1-2.6-2.6-2.1-116.9-4.1-120.5s-7.1-3.3-8 .6.1 114.6.2 121.3c-.6 0-34.6 1.5-35.1 1s-2.7-40.2-3.7-67.8c-.4-10.3.5-28.5-7.4-23.5-1.8 1.1-3.4 5.7-.1 91.8-18.3 2.2-47.4 3.2-47.8 2.6-3.2-5.3-8.3-71.1-2-100zM667.6 216c-1.1 1.1-63 1.5-74.1 1.6 13.4-14.3 18.3-24.1 32.8-56.3 23.3-52 36.5-33.3 34.5-33.3 12.4 15.8 8.2 86.6 6.8 88zm-32.9-90.2c-21.1 22.8-30.5 77.1-56.5 90.4-5.6 2.9-8.6 2.5-43.6 2.5 60.6-44.7 63.9-97.6 87.8-129.1C644.2 60.8 676.8 76 675.1 76c40.1 19.4 40.9 65.1 39.5 109.4-.5 15.3-1.4 28.3-2 28.9s-3.3 1.3-32.6 2.2c-.1-58 .7-72.4-7.2-89.7s-23.1-17.2-38.1-1zm-602.3 123c19.6-18.9 817.3-25 841.4-25.1-45.9 46.6-72.5 50.6-60.7 61.4 4.6 4.2 73.8 45.5 73.8 54.9 0 2.3-63.6 31.6-105.6 48.8s-6.4 4.3 73.6 109.1c-389.8 0-762.7 38.1-763.2 37.8s27.5-24.3 31.8-27.3c17.4-12.4-.6-19.6-19.6-29.5-29-15.2-26.8-13.8-16.2-17.7 12.5-4.6 49.5-23.2 54.5-27.4 14.6-12.1-4.6-18.1-29-30.4-32.3-16.2-93.9-47.6-94.5-48.2s24-14.4 52.6-29.7c39.7-21.4 37.6-21.9 15.1-37.9-28.6-20.2-55.5-37.4-54-38.8z"></path><path d="M271.3 141.4c3.2-2 3.9-25.2.9-27.3-11.5-8.2-10 32.9-.9 27.3z"></path><path d="M716.2 262.2c.8-5.4-3.9-8.2-7.7-4.4-6 6 6.7 11.5 7.7 4.4z"></path><path d="M755.4 282.3c3.4 0 3.7-.3 3.7-4.3s-.4-4.3-3.4-4.7-5.3.5-4.5 6.2c.4 2.3 1.2 2.8 4.2 2.8z"></path><path d="M713.7 302.1c-3.3 7.3 7.9 8.9 8.7 3.4s-6.2-8.9-8.7-3.4z"></path><path d="M467.6 569.1c.6 0-3 24.1 1.8 28.9 12.7 12.8 6.3-28.9 5.8-29.4-1.7-2.2-6.6-1.8-7.6.5z"></path></g></g></svg>