<svg xmlns="http://www.w3.org/2000/svg" width="677.6" height="903.9" viewBox="-0.03270721435546875 -0.010074615478515625 677.62353515625 903.9468383789062" style=""><g><title>love21_224035102</title><g data-name="Layer 2"><path d="M40.4 895.5c.5 4.2 3.4 8.9 8.4 8.4 42.9-4.1 626.9-73.2 628.7-111.8 1.1-21.8-8.1-48-11.3-69.4-17.4-115.4-29.7-231.4-45.7-346.9a5.2 5.2 0 0 0-3.8-4.3 7.6 7.6 0 0 0-1.7-1.3C478.6 290 303.6 146.8 260.3 170.9c-30.7 17-196.7 198.5-249.9 278.5a5.8 5.8 0 0 0-5.8 6.2v.9c-2-.1-2.1.8 0 3.1-.2 144.9 18.7 292.2 35.8 435.9z" fill="#fff"></path><g fill="#333"><path d="M4.6 455.6c-.5 146.2 18.6 294.9 35.8 439.9.5 4.2 3.4 8.9 8.4 8.4 42.9-4.1 626.9-73.2 628.7-111.8 1.1-21.8-8.1-48-11.3-69.4-17.4-115.4-29.7-231.4-45.7-346.9-1-7.4-13.9-5.7-13.1 1.8 1.4 14.5 41.9 410.4 56.3 412.3 0 0-347.8 71.8-614.9 97.2l8.3 8.4C39.8 749.2 33.6 601.9 17.6 455.6c-.9-8.1-12.9-8.5-13 0z"></path><path d="M52 896.4c62.4-47.9 118.8-102.2 175.6-156.5 21-20 339-279.2 387.4-360 2.8-4.7-3.9-10.2-7.6-5.9-70 80.3-216.9 203.6-560.2 516.2-3.2 3 1.2 8.9 4.8 6.2z"></path><path d="M7.6 462.3c60.6 51.9 645.7 323 651.8 326.1s14.1-7.3 6.6-11.3C539.4 708 404 657 276.2 590.3c-53.4-27.9-310-163.3-268.6-128z"></path><path d="M13.9 458.4c43.3-52 227.1-287.3 268.8-276.1 48 12.9 278.7 175.9 323.9 202.3 9.3 5.5 17.7-8.9 8.4-14.4C478.6 290 303.6 146.8 260.3 170.9 229.1 188.2 57.7 375.8 7.7 453.6c-2.5 3.7 3.3 8.3 6.2 4.8z"></path></g><g fill="#ffadae"><path d="M220.7 107.4c-11.8-6-23.5 2.1-27 15.1-34.6-24.7-60.6 26-9.4 74.8 7.1 6.7 38.6 41.2 49.5 32.2 12 1.4 5.1-31.1 5-44.7-.1-15.5 5.9-65.2-18.1-77.4z"></path><path d="M360.9 426.5c-15.6-7.2-36.4-2.4-49 16-33.7-34-93.5-.1-62.3 51.6 13.5 22.4 32.3 31.8 56.4 56.2 7.8 7.9 16.9 20.3 28.4 20.2 26.9 11.6 83.1-117.9 26.5-144z"></path><path d="M314.2 13.2c-18-34.8-72.8 5.6-20.8 46.7 8.2 6.4 16.7 20.4 22.5 21.1 6.8 10.4 17.1-11.8 20.2-16.7 25.9-41.5-2.8-66-21.9-51.1z"></path><path d="M29 170.4c-22.8-11.3-41 11.9-19.3 32.7 11.5 11 28.7 24.2 44.2 27.7 5 1.2 7.5-4.8 5.3-8.6 5.5-3 5.4-21.5 5.4-25.3 1.2-57.8-32.7-52.7-35.6-26.5z"></path><path d="M478.1 364.8c7.4-3.7 14.6 1.3 16.9 9.4 21.5-15.4 37.7 16.2 5.8 46.6-4.4 4.2-24 25.7-30.8 20.1-7.6.8-3.2-19.4-3.2-27.9s-3.7-40.6 11.3-48.2z"></path><path d="M343.4 202c13.7-6.3 31.9-2.1 42.9 14 29.4-29.7 81.7-.1 54.5 45.1-11.8 19.6-28.3 27.8-49.3 49.2-6.9 6.9-14.8 17.8-24.9 17.6-23.5 10.2-72.7-103-23.2-125.9z"></path><path d="M179.7 319.9c1.2-42.5 73.8-28.7 42.1 35.8-4.9 10.1-6.7 27.8-12.1 31.1-1.7 13.4-22.2-3.5-27.5-6.8-44.7-28.5-28.2-65.8-2.5-60.1z"></path><path d="M524.2 137.7c19.7-15.8 42.3 2.8 25.7 27.7-8.7 13.1-22.7 29.6-37 36.3-4.6 2.2-8.3-3.1-6.9-7.2-6.1-1.8-9.9-19.7-10.7-23.5-13.5-55.8 20.5-58.1 28.9-33.3z"></path></g></g></g></svg>