<svg xmlns="http://www.w3.org/2000/svg" width="798.5" height="952.3" viewBox="0.000713348388671875 0 798.5127563476562 952.3548583984375" style=""><g><title>fol124_365716498</title><g data-name="Layer 2"><path d="M492.6 401.7c38 4.4 84.9-8.7 122.9-14.1 40-5.7 92.3-10 130.3-17.2-17.2 95.7-85.1 106.6-134 111.6-41.8 4.3-160.5-5-119.2-80.3z" fill="#d5db90"></path><g fill="#f7f7f7"><path d="M603.1 459.3c-5.4-6-10.5-11.7-14.3-15.2l-8.7-7.5c-7.8-6.5-15.9-13.3-21.2-21.1L554 419c5.7 8.4 14.1 15.4 22.1 22.2 3 2.5 5.9 4.9 8.6 7.3s8.7 8.9 14 14.8 11.4 12.8 17.1 18.3l7.9-.9c-6.6-5.9-14.1-14.2-20.6-21.4z"></path><path d="M626.8 405.1l-4.7 3.8c8.9 11.6 22.4 20.6 35.4 29.3 10.8 7.2 21.9 14.6 30.5 23.6l5.3-3.2c-9.1-9.8-20.9-17.7-32.3-25.3-13.3-8.9-25.7-17.2-34.2-28.2z"></path><path d="M689.9 395.4l-2.4 5.5c12.8 4.7 26.4 10.1 39.6 15.4l3.2 1.3 2.7-5.4-3.4-1.3c-13.2-5.3-26.8-10.8-39.7-15.5z"></path></g><g fill="#575992"><path d="M393.3 583.9l-6.3-.8c1-8.9 1.5-17.9 2-26.6.7-12.7 1.4-25.8 3.9-39 8.7-47 19.1-97.1 41.6-146.8 9.6-21.4 22.1-40.3 34.2-58.6 7.2-11 14.6-22.3 21.2-33.7l5.5 3.1c-6.7 11.6-14.2 23-21.4 34-12 18.2-24.3 36.9-33.8 57.8-22.2 49.1-32.5 98.7-41.1 145.4-2.4 12.7-3.1 25.7-3.8 38.1-.5 8.8-1 17.9-2 27.1z"></path><path d="M358 583.5l-6.3-.5c2.1-28.6 8.2-59.5 14.1-89.3.6-2.7 1.1-5.4 1.6-8.1 11.5-58 22.4-120.2 24.7-181.1.6-16 .6-70.5-24.1-96.5l4.6-4.3c26.4 27.8 26.4 84.4 25.8 101.1-2.3 61.3-13.3 123.7-24.8 182.1-.5 2.6-1 5.3-1.6 8-5.8 29.7-11.9 60.3-14 88.6z"></path><path d="M368.2 587.1l-6.3-.4c.6-13.4 4.8-27.5 8.8-41.1 2-7 4.2-14.2 5.7-21.1 4.4-19.3 24.5-116.9-9.4-149.5-10.9-10.3-26.6-12.8-46.8-7.3l-1.6-6.1c22.5-6.1 40.2-3.1 52.7 8.9 14.4 13.7 21.5 39 21.3 75-.3 34-7.1 67.5-10 80.4-1.6 7.1-3.8 14.4-5.9 21.5-3.9 13.3-7.9 27-8.5 39.7z"></path><path d="M302 457.5l-5.9-2.3c7.2-18.8 19.1-34.2 34.4-44.6s33.3-15.6 53-15.6v6.3c-38.1.1-67.9 20.5-81.5 56.2z"></path><path d="M378 587.8l-6.2-.8c1.8-14.5 3.2-30.3 4.5-45.5s2.4-28.5 4-42.3c1.4-11.3 2.3-23 3.3-35.4 3.1-38.7 6.3-78.7 22.2-112 6.2-13.2 17.1-20.2 29.9-19.4s25.9 10.8 30.2 24.2l-6 2c-3.6-11-13.7-19.2-24.6-19.9s-18.7 5.1-23.8 15.8c-15.4 32.3-18.5 71.7-21.6 109.8-1 12.4-1.9 24.2-3.3 35.7-1.6 13.7-2.8 28.1-4 42s-2.7 31.2-4.6 45.8z"></path></g><path d="M88.9 604.1c162-44.5 336.1-18.7 498.1-11.4 99.4 4.5 150.5 104.7 112.6 220.9-13.8 42.3-33.8 93.6-66.6 111.1-78.9 42.2-546.1 39.3-603.4-31-66.7-81.7-9.2-270.8 59.3-289.6z" fill="#c3d4ee"></path><g fill="#f7f7f7"><path d="M96.6 693.1a2.2 2.2 0 0 1-2.1-1.6 3.5 3.5 0 0 1 1.4-3.9c4.9-2.7 10.7-5.4 16.9-8.2s13.8-6.3 20.1-9.8a2.2 2.2 0 0 1 3.2 1.3 3.5 3.5 0 0 1-1.5 3.9c-6.4 3.6-13.5 6.9-20.4 10s-11.9 5.4-16.5 8z"></path><path d="M213.4 716.6a2.4 2.4 0 0 1-2.2-2.2 3.2 3.2 0 0 1 2.1-3.5 131.5 131.5 0 0 0 18-7.1 134.8 134.8 0 0 1 18.7-7.4c1.3-.4 2.5.5 2.7 2.1a3.2 3.2 0 0 1-2 3.5 158.6 158.6 0 0 0-18.1 7.2c-6.1 2.7-12.3 5.5-18.6 7.3z"></path><path d="M404.4 700.5h-.7l-2.2-.9c-14.3-5.3-29.1-10.9-38.4-24.2a3.3 3.3 0 0 1 .4-4.1 2.3 2.3 0 0 1 3.5.1c8.5 12.2 22.7 17.5 36.4 22.7l2.2.8a2.7 2.7 0 0 1 1.3 3.6 2.7 2.7 0 0 1-2.5 2z"></path><path d="M330.2 817.6a2.2 2.2 0 0 1-2-1.4 3.4 3.4 0 0 1 1.2-4 209.4 209.4 0 0 1 18.7-10.8c6.1-3.3 12.5-6.7 18.5-10.7a2.1 2.1 0 0 1 3.3 1 3.3 3.3 0 0 1-1.2 3.9c-6.3 4.2-12.7 7.7-18.9 11a211.3 211.3 0 0 0-18.3 10.6 3.3 3.3 0 0 1-1.3.4z"></path><path d="M561.5 702.4a2.1 2.1 0 0 1-1.6-.8c-6.2-7.6-9.6-15.8-13.2-24.5a151.8 151.8 0 0 0-10.2-21.4 3.3 3.3 0 0 1 .7-4.1 2.1 2.1 0 0 1 3.4.5c4.7 7.8 7.6 15 10.5 22 3.7 8.7 6.8 16.2 12.5 23.3a3.5 3.5 0 0 1-.3 4.1 2.4 2.4 0 0 1-1.8.9z"></path><path d="M479.7 801.9a2.1 2.1 0 0 1-1.7-.8c-6.6-8.6-10.6-19.3-14.4-29.6-1.2-3.2-2.4-6.4-3.7-9.6a3.4 3.4 0 0 1 1.2-4 2.2 2.2 0 0 1 3.3 1.1c1.3 3.2 2.5 6.5 3.7 9.7 3.8 10.4 7.5 20.2 13.7 28.2a3.3 3.3 0 0 1-.3 4.1 2.4 2.4 0 0 1-1.8.9z"></path><path d="M559.6 804.6a2.1 2.1 0 0 1-2-1.3 3.5 3.5 0 0 1 1.1-4c3.4-2.5 6.9-5.4 10.5-8.4 7.8-6.4 15.8-13 24.5-16.9a2.1 2.1 0 0 1 3 1.6 3.4 3.4 0 0 1-1.7 3.8c-8 3.6-15.8 10-23.3 16.2-3.7 3-7.2 5.9-10.8 8.5a1.8 1.8 0 0 1-1.3.5z"></path><path d="M519.6 939a2.3 2.3 0 0 1-1.1-.3c-9.8-5.9-17.7-15.1-25.4-24a159.7 159.7 0 0 0-13.5-14.6 3.3 3.3 0 0 1-.2-4.1 2.3 2.3 0 0 1 3.5-.6 180.4 180.4 0 0 1 13.8 15c7.4 8.6 15.1 17.6 24.4 23.1a3 3 0 0 1 .8 3.8 2.6 2.6 0 0 1-2.3 1.7z"></path><path d="M366.9 919.4a2.1 2.1 0 0 1-1.9-1.1 3.5 3.5 0 0 1 .8-4.1c10-8.2 20.7-18.9 31.8-31.7a2.2 2.2 0 0 1 3.4-.2 3.3 3.3 0 0 1-.2 4.1 274.3 274.3 0 0 1-32.5 32.4 2 2 0 0 1-1.4.6z"></path><path d="M308.4 638a2.7 2.7 0 0 1-1.2-.3c-7.6-5.5-12.5-13-18-21.7-2.9-4.4-5.8-9-9.4-13.8a3.3 3.3 0 0 1 .3-4.1 2.3 2.3 0 0 1 3.5 0c3.7 5 6.7 9.6 9.6 14.1 5.3 8.3 9.9 15.5 16.8 20.4a3.1 3.1 0 0 1 .6 4 2.5 2.5 0 0 1-2.2 1.4z"></path><path d="M216.6 906.5a2.2 2.2 0 0 1-1.3-.4c-10.9-8.7-17-22.3-22.5-34.3q-1.8-4.2-3.6-7.8a3.5 3.5 0 0 1 1-4.1 2.1 2.1 0 0 1 3.3.8l3.7 8c5.2 11.5 11.1 24.5 21.1 32.4a3.2 3.2 0 0 1 .5 4 2.8 2.8 0 0 1-2.2 1.4z"></path><path d="M261.8 820.1l-.9-.2c-13.4-6.7-24-19.9-33.3-31.6-2.1-2.6-4-5.1-6-7.4a3.3 3.3 0 0 1 .2-4.1 2.3 2.3 0 0 1 3.5-.2l6 7.5c9.1 11.3 19.3 24.2 31.9 30.4a2.8 2.8 0 0 1 1 3.7 2.9 2.9 0 0 1-2.4 1.9z"></path><path d="M44.7 827.6a1.7 1.7 0 0 1-1.3-.5 3 3 0 0 1-.3-4C54 806.2 69.3 788.3 82.8 773a2.1 2.1 0 0 1 3.4-.2 3.3 3.3 0 0 1-.2 4.1c-13.4 15.2-28.4 32.9-39.2 49.4a2.4 2.4 0 0 1-2.1 1.3z"></path><path d="M657.5 881.1h-.8c-3.6-1.5-7.1-3.2-10.5-4.9-8.6-4.3-16.7-8.3-26.3-8.7-1.4 0-2.3-1.4-2.1-3a3 3 0 0 1 2.7-2.8c10.5.4 19.4 4.8 28 9.1 3.3 1.6 6.7 3.3 10.2 4.8 1.3.5 1.8 2.1 1.2 3.7a2.6 2.6 0 0 1-2.4 1.8z"></path><path d="M668.9 694.2h-.5c-10-2.4-19.4-7.8-28.5-12.9-4.8-2.7-9.8-5.6-14.8-7.9a2.9 2.9 0 0 1-1.1-3.7c.6-1.5 2.1-2.3 3.3-1.7 5.1 2.4 10.1 5.2 15 8 8.9 5 18.1 10.2 27.5 12.6 1.3.3 2 1.8 1.6 3.4a2.8 2.8 0 0 1-2.5 2.2z"></path><path d="M131.4 886.6a2.5 2.5 0 0 1-2.2-2.9c.3-3.5.6-7.2.8-10.8.9-14.6 1.9-29.6 6.4-43 .6-1.5 2-2.4 3.3-1.9a2.9 2.9 0 0 1 1.3 3.6c-4.3 12.5-5.2 27.1-6.1 41.2-.3 3.6-.5 7.3-.8 10.9a2.9 2.9 0 0 1-2.7 2.9z"></path></g><path d="M473.8 232.3c12-29.5 86-94.7 111.4-115.5C639.3 72.3 717.7-10.6 791.5 3.5c41.1 159.7-105.9 286.3-246.3 341.4-30.2-21.5-81.8-86.8-71.4-112.6z" fill="#f7bc70"></path><g fill="#f7f7f7"><path d="M511.7 266.5l-1 5.8c6.3.5 12.7.7 19.1.7 29.7 0 60.3-4.8 90-9.4 25.1-3.9 50.9-7.9 76-9l6.8-6c-27.6.6-55.8 5-83.2 9.3-35.8 5.5-72.8 11.3-107.7 8.6z"></path><path d="M684.7 206.5l-27.5 4.1c-15.9 2.5-32.4 5-48.2 6.5v5.8c16-1.5 32.6-4.1 48.6-6.6 9-1.4 18.3-2.8 27.4-4s19.1-2.2 29.4-3.1 18.6-1.7 27.8-2.8l4.9-6.5c-10.7 1.5-21.8 2.5-32.7 3.5s-20.2 1.8-29.7 3.1z"></path><path d="M685.8 150.5c22.1-1.4 59.7-5 97.5-14.1l2.4-6.5c-38.5 9.7-77.2 13.4-99.8 14.9z"></path><path d="M768.5 89.4a180.8 180.8 0 0 1-18.3 4.7c-10.9 2.6-22.2 5.2-32 10.5l2.4 5c9.1-4.9 19.9-7.4 30.5-9.8 6.2-1.5 12.7-2.9 18.8-4.9l11.1-3.8 15.6-5.2c.3-2 .5-4.1.7-6.1-6 1.8-11.9 3.8-17.7 5.8z"></path><path d="M542.7 194.4c-2.8 9.7-7 19.1-11 28.2-3.3 7.4-6.4 14.3-8.8 21.4l5.5 1.4c2.3-6.8 5.3-13.6 8.6-20.9 4.1-9.3 8.4-18.9 11.3-29 1.5-5.4 2.9-11.1 4.5-17.1 3.9-15.5 8.2-32.5 15.2-47.1l-9.8 8.7c-4.7 12.2-8 25.3-11.1 37.5-1.5 5.9-2.9 11.5-4.4 16.9z"></path><path d="M590.3 203.2c13.1-34.1 24.8-76 33.4-119.5l-7.1 6.1c-8.4 40.8-19.4 79.7-31.7 111.7z"></path><path d="M650.4 121.9c-4 14.1-9.4 33.5-18.9 41.2l3.4 4.4c11.1-9.1 16.7-28.7 21.1-44.5.9-3.1 1.7-6 2.5-8.6C666.3 89.3 676 63 688 33.9l-.5-.2-7.7 5.3C669 65.6 660.2 89.9 653 113.2c-.8 2.6-1.7 5.5-2.6 8.7z"></path><path d="M704.6 85.1c-3.5 12.8-7.2 26.1-13.7 36.5l4.8 2.7c7.1-11.1 10.8-24.9 14.5-38.1 2-7.3 3.9-14.2 6.3-20.7 7.7-20.6 18.4-40.4 29-59.5-2.6.7-5.1 1.4-7.7 2.3-9.8 17.9-19.6 36.3-26.7 55.7-2.5 6.7-4.5 14-6.5 21.1z"></path></g><path d="M397.5 384.6c27.3-16.4 67.1-32.9 101.3-39.3 10.8-2 21 3.2 25.1 12.7 29.6 68.6 41 138.6 16.9 213.7-3.1 9.8-5.5 41.9-16.7 47.7-30 15.5-66.4-24.8-79-40.7-29.2-36.5-101-153.7-47.6-194.1z" fill="#90afdb"></path><g fill="#f7f7f7"><path d="M438.3 391c-17.9 20-34.7 49-50.1 86.5 1 2.6 1.9 5.2 3 7.8 15.7-39.7 33-70.1 51.3-90.6z"></path><path d="M456.3 444.7l-5.4-1.4c-2.2 6.1-11.2 23.5-20.7 41.9-7 13.7-14.3 27.8-19.6 38.8a11.7 11.7 0 0 1-.5 1.1q1.6 3.1 3.3 6c5.5-11.7 14.6-29.4 22-43.6 9.6-18.6 18.7-36.2 20.9-42.8z"></path><path d="M465.5 502.6l-5.7-.7c-1.9 9.1-6 19.7-10.4 31s-9.2 23.3-12.2 35.5l4.5 6c2.6-13.1 7.9-26.6 13.1-39.8 4.5-11.5 8.7-22.4 10.7-32z"></path><path d="M493.3 548l-5.8.2c-.8 13.3-5.4 27.5-9.8 41.1-1.9 5.7-3.7 11.5-5.4 17.2l4.9 3.7c1.8-6.5 3.9-13.1 6-19.5 4.6-14.1 9.3-28.6 10.1-42.7z"></path><path d="M515.7 407.6c-5.2-.5-10.8-.8-16.7-1.2-14.1-.8-28.7-1.6-38.8-5.7l-2.6 5.4c10.9 4.4 26 5.3 40.6 6.1 5.8.3 11.3.7 16.4 1.2 8.5.9 17.4 2.9 26.1 4.9l4.2 1c-.5-2.1-1.1-4.3-1.7-6.4l-.7-.2c-8.9-2.1-18-4.2-26.8-5.1z"></path><path d="M534.8 469.6c-14.2-2.3-25.4-4.1-49.7-12.5l-2.3 5.5c24.7 8.6 36.7 10.5 50.6 12.7l3.7.6c5.8 1 11.3 2 16.5 3.2l-.3-6.1c-4.7-1-9.6-2-14.8-2.8z"></path><path d="M502 525.9l-2.2 5.5c6.5 2.3 13.6 5.6 21 9.1s17.2 8.1 25.7 10.8c.5-1.9.9-3.8 1.3-5.8-7.9-2.6-16.1-6.5-24.1-10.3s-14.8-7-21.7-9.3z"></path></g><g><path d="M269.3 433c25.4 1.7 80.2-3.7 90.2 7.5s-9.2 58.2-14.1 72.3c-12 34.9-41.1 132.9-84.8 141.8a10.5 10.5 0 0 1-11.6-4.9c-29.3-51.6-68-206.6 20.3-216.7z" fill="#f7bc70"></path><g fill="#f7f7f7"><path d="M240.8 497.4c15.3-12.7 32.3-24.8 47.1-35.2l-3-4.6c-14.9 10.4-32.1 22.6-47.6 35.5a258.5 258.5 0 0 0-22.5 21.9c0 2.6 0 5.3.1 8l.3-.3c8.1-8.7 16.5-17.7 25.6-25.3z"></path><path d="M272.6 509.5c-15.8 21.6-33.4 40.3-52 58.6.5 2.2.9 4.3 1.4 6.5 19.8-19.3 38.4-39 55.2-62z"></path><path d="M262 587.9l-5.2-2.1c-2.4 5.2-8.2 12.9-13.8 20.3-3.1 4.3-6 8.1-8.4 11.6.8 2.1 1.6 4.3 2.5 6.3 3.1-4.8 7.1-10.1 10.5-14.7 6-8 11.7-15.6 14.4-21.4z"></path><path d="M329.8 514.4c-6.6-8.8-10.6-16.2-15.3-24.8-2.9-5.4-6.3-11.6-10.8-19l-5 3.3c4.4 7.3 7.7 13.4 10.7 18.8 4.7 8.8 8.8 16.3 15.6 25.4 2.1 2.9 4.7 8.3 7.4 14 1.3 2.9 2.6 5.5 3.8 7.9l2.8-8c-.5-.9-.9-1.8-1.3-2.7-2.8-6-5.5-11.6-7.9-14.9z"></path><path d="M292.6 554.9l-4.6 4c2.4 2.9 5.9 13.1 9.4 22.9s7 19.8 10.1 26.1l3.6-6.6c-2.8-6.3-5.5-14.2-8.2-21.8-3.9-11.2-7.3-20.9-10.3-24.6z"></path></g></g><g><path d="M140.6 393.7c-39.8 23.6-88.8 76.6-92.3 124.9a14.3 14.3 0 0 0 8.1 14.1c38.5 17.8 102.1-2.9 142.8-12 65.3-14.5 119.6-64.9 149-125.4-17.9-15.8-30-36-47.8-53.1 5.2-6.1-108.9 21.4-159.8 51.5z" fill="#d5db90"></path><g fill="#f7f7f7"><path d="M269.2 388.8h4.1l.3-5.8c-17.9.6-35.7-3.1-54.5-7-9-1.9-18.3-3.8-27.6-5.2-3.9 1.5-7.8 2.9-11.6 4.5 12.7 1.2 25.3 3.9 37.6 6.4 16.9 3.4 34.4 7.1 51.7 7.1z"></path><path d="M120.5 423.6c11.3-.6 23.1-1.3 34.4.3a310 310 0 0 0 46.1 3.6l.5-5.8a312.5 312.5 0 0 1-45.3-3.5c-11.9-1.7-23.9-1-35.5-.4-4.3.3-8.7.5-13.1.6l-6.3 5.9c6.5 0 12.9-.3 19.2-.7z"></path><path d="M86.9 483.9l4.3-.8c14.6-2.8 29.6-5.7 43.4-4.4l1-5.8c-14.6-1.3-30.8 1.8-45 4.5l-4.3.8-6.2 1.1c-5.9 1.1-14.1 2.5-22.2 4.2l-2.7 6.3c9.1-1.9 18.7-3.6 25.4-4.8z"></path><path d="M152.7 506.9c2.1-5 4-10.5 6-16.3 3.9-11.3 8-23 13.7-30.9l-4.6-3.1c-6.3 8.7-10.5 20.8-14.5 32.5-2 5.7-3.9 11.2-5.9 15.9-2.8 6.4-6.2 13.1-9.8 20.1l-5.4 10.8 6.9-1.2c1.2-2.5 2.4-4.9 3.7-7.3 3.6-7.1 7.1-13.9 9.9-20.5z"></path><path d="M227.5 440.7l-5.8-.4c-3.7 23.3-13.3 47-22.6 69.9-1.6 3.9-3.2 7.7-4.7 11.7l4.8-1.2 1.9-.4 3.3-8.4c9.5-23.2 19.2-47.2 23.1-71.2z"></path><path d="M273.9 472.5c1.9-10.1 4.2-20.3 6.5-30.2s4-17.5 5.7-26.2l-5.8-.6c-1.6 8.6-3.6 17.4-5.6 26s-4.6 20.2-6.5 30.5c-.7 3.8-1.3 8.2-1.8 12.9l-.9 7 6.3-4.5.3-2.3c.6-4.6 1.2-8.9 1.8-12.6z"></path></g></g><g><path d="M371.9 207.6c-8.4-38.3-60.9-70.4-87.5-97.9-19.7-20.5-41.3-40.4-61.8-60C206.5 34.1 194.1 6.8 172.2 0c-48.3 45.3-18.5 147.8 9.8 190.8 21.6 32.7 58.4 51.2 98 59.3 48.4 9.9 59.2-19.4 91.9-42.5z" fill="#90afdb"></path><g fill="#f7f7f7"><path d="M259 210c9.9-3 20.1-6.1 30-9.9 5.5-2.1 11.5-3.9 17.8-5.9 14.7-4.6 29.9-9.4 41.4-17.8l-3.2-4.6c-10.6 7.8-25.3 12.4-39.5 16.9-6.4 2-12.5 3.9-18.2 6-9.6 3.7-19.8 6.8-29.6 9.8-8.1 2.5-16.4 5-24.5 7.9-5.5 1.9-14.6 6.4-20.7 9.4h-.3l5.4 3.7c5.6-2.8 12.8-6.2 17.2-7.8 7.9-2.7 16.2-5.2 24.2-7.7z"></path><path d="M238.4 158l16.4-4c16.7-4.2 34-8.6 48.5-8.7l.5-5.8c-15.3.1-32.9 4.6-50 8.9-5.7 1.4-11 2.8-16.2 3.9l-14.6 3.2c-17.3 3.6-36.6 7.7-52.8 14l2.5 5.1c15.6-6 34.2-9.9 51-13.4z"></path><path d="M247.7 113.5h.1l.5-5.8h-.1c-18.9 0-38 1.4-56.5 2.7-13.3.9-26.9 1.8-40.5 2.3.4 1.9.8 3.8 1.3 5.7 13.2-.4 26.3-1.4 39.1-2.3 18.4-1.3 37.4-2.6 56.1-2.6z"></path><path d="M211.2 54.9a367.2 367.2 0 0 0-62.6-7.8 54 54 0 0 0-.9 5.8 365.7 365.7 0 0 1 61.8 7.6z"></path></g></g></g></g></svg>