<svg xmlns="http://www.w3.org/2000/svg" width="374" height="875.3" viewBox="0.04740394279360771 -0.0037260055541992188 373.9529724121094 875.3037109375" style=""><g><title>nholiday117_150983240</title><g data-name="Layer 2"><path d="M5.1 413.4s7.1-36.6 179.2-35.9 179.8 31.5 180 36.1z" fill="#ecc3b6"></path><path d="M362.5 2.3c-3.8-.3-6.7.8-10 2.5-2.7 4.7-4.3 10.2-5.9 15.4-.3.7-3.9 12.6-10 32.4a22 22 0 0 1 1.7-2.5 62.2 62.2 0 0 1 7.8-9.2c5.9-5.5 12-9.7 19.7-11.9 3.8-12.5 6-20.1 6.4-21.4a13.8 13.8 0 0 0-9.7-5.3z" fill="#fad88a"></path><path d="M347.1 42.9a62.9 62.9 0 0 0-7.8 8.5 71.7 71.7 0 0 0-4.6 7.5c-4.9 15.6-10.9 35.2-17.9 57.8l2-3a69.7 69.7 0 0 1 7.9-9.2c5.9-5.5 12-9.8 19.8-12l18.4-60.4c-6.8 2.1-12.4 5.9-17.8 10.8z" fill="#fff"></path><path d="M308.3 171.2a62.9 62.9 0 0 0-7.8 8.5c-2.2 2.8-3.7 6.2-5.7 9l-.2.2-18.1 58.7a44.3 44.3 0 0 1 3.5-5.6 57.4 57.4 0 0 1 7.9-9.2c5.8-5.4 11.7-9.6 19.3-11.8 6.4-21 12.7-41.3 18.5-60.5-6.6 2.1-12.1 5.9-17.4 10.7z" fill="#fff"></path><path d="M327.7 106.5a68.7 68.7 0 0 0-7.8 8.4c-1.9 2.6-3.3 5.5-5 8.1l-18.6 60.2c1-1.7 2.1-3.3 3.1-4.8a57.4 57.4 0 0 1 7.9-9.2c5.8-5.4 11.8-9.6 19.4-11.8 6.8-22.4 13.2-43.2 18.8-61.8-6.8 2.2-12.4 6-17.8 10.9z" fill="#fad88a"></path><path d="M288.9 234.7a69.6 69.6 0 0 0-7.8 8.5c-2.2 2.9-3.7 6.2-5.8 9.1-.1.2-.2.2-.3.1l-14.3 46.3c1.1-1.9 2.3-3.8 3.5-5.5a57.4 57.4 0 0 1 7.9-9.2c5.8-5.4 11.8-9.6 19.4-11.8 5-16.3 9.9-32.4 14.8-48.1-6.7 2.1-12.2 5.9-17.4 10.6z" fill="#fad88a"></path><path d="M253.7 349.6a57.7 57.7 0 0 0-7.9 8.5c-2.1 2.9-3.6 6.2-5.7 9-.2.3-.4.1-.4-.1-6.1 19.5-12 38.8-17.7 57.4l2-3.1a58.8 58.8 0 0 1 7.9-9.2c6-5.6 12.2-9.9 20.1-12.1h.2c6.1-20 12.5-40.5 18.8-61.2a47.3 47.3 0 0 0-17.3 10.8z" fill="#fad88a"></path><path d="M273.1 286a57.7 57.7 0 0 0-7.9 8.5c-2.1 2.9-3.6 6.2-5.7 9.1h-.3c-6.1 19.9-12.3 39.8-18.4 59.6a47.1 47.1 0 0 1 4-6.5 57.4 57.4 0 0 1 7.9-9.2c5.7-5.4 11.7-9.6 19.3-11.8l18.5-60.5c-6.6 2.2-12.2 6-17.4 10.8z" fill="#fff"></path><path d="M232.9 414a62.9 62.9 0 0 0-7.8 8.5c-1.9 2.6-3.3 5.5-5.1 8.1-6.1 20-12 39.1-17.6 57.1l1.7-2.5a57.4 57.4 0 0 1 7.9-9.2c6-5.6 12.1-9.9 20.1-12.1.1 0 .2.2.3.4 6-19.5 12.4-40.1 18.9-61.3-7.1 2.2-12.9 6-18.4 11z" fill="#fff"></path><path d="M177.3 596.1a62.9 62.9 0 0 0-7.8 8.5c-2.2 2.9-3.7 6.2-5.7 9.1-.2.2-.3.2-.4 0-.8 2.4-1.2 3.8-1.3 4-2.1 5.5-4 13.1-6 18.7a23.9 23.9 0 0 1-1 2.9c.3 3.4 6.4 5.1 9 5.6a28.4 28.4 0 0 0 7.7.1c1.5-.2 4.7-.1 4.9-2a4.3 4.3 0 0 1 .1-.5c1.5-5.7 4-14.5 6.2-19.7.7-1.7 5-15.3 11.9-37.4-6.7 2.1-12.3 5.9-17.6 10.7z" fill="#fad88a"></path><path d="M213 478a62.9 62.9 0 0 0-7.8 8.5c-1.8 2.3-3.1 5-4.7 7.5-5.9 18.8-11.2 36.3-16 51.7a44.4 44.4 0 0 1 3.9-6.3 62.2 62.2 0 0 1 7.8-9.2c5.9-5.4 11.9-9.6 19.5-11.8 4.9-16 10.3-33.3 15.9-51.5-7.2 2.1-13.1 6-18.6 11.1z" fill="#fad88a"></path><path d="M197.2 532.2a62.9 62.9 0 0 0-7.8 8.5c-2.1 2.9-3.6 6.2-5.7 9.1-.2.2-.4.1-.4-.1-8.6 27.5-15 48.4-18.5 59.4a61.9 61.9 0 0 1 3.6-5.7 49.8 49.8 0 0 1 7.9-9.2c5.9-5.5 11.9-9.7 19.6-11.9l18.8-60.8c-6.7 2.1-12.2 5.9-17.5 10.7z" fill="#fff"></path><path d="M352.2 3.6a127 127 0 0 0-6.7 15c-2 6.1-183 592.9-185.4 598.9s-4.1 13.5-6.2 19.3c-.9 2.4-.7 3.7-.3 4.5.6 2.4 4.8 4.1 7.9 5.1a30.8 30.8 0 0 0 12.1.6c2.1-.2 4.2-.9 4.8-2.9a13.1 13.1 0 0 0 .5-1.5 191.1 191.1 0 0 1 6.2-20.3c2.1-5.3 44-141.3 87.9-284 .1-.1.1-.4.2-.7 11.7-38.4 23.7-77.2 35-114.1a1.3 1.3 0 0 0 .2-.8l19.3-62.9c0-.1.1-.2.1-.4C354.5 72.3 374.1 7.8 374 7.6c-2.6-8.1-16.4-10.2-21.8-4zM183 622.8c-2.2 5.2-4.7 14-6.2 19.7a4.3 4.3 0 0 0-.1.5c-.2 1.9-3.4 1.8-4.9 2a28.4 28.4 0 0 1-7.7-.1c-2.6-.5-8.7-2.2-9-5.6a23.9 23.9 0 0 0 1-2.9c2-5.6 3.9-13.2 6-18.7.1-.2.5-1.6 1.3-4 .1.2.2.2.4 0 2-2.9 3.5-6.2 5.7-9.1a62.9 62.9 0 0 1 7.8-8.5c5.3-4.8 10.9-8.6 17.6-10.7-6.9 22.1-11.2 35.7-11.9 37.4zm12.9-40.5c-7.7 2.2-13.7 6.4-19.6 11.9a49.8 49.8 0 0 0-7.9 9.2 61.9 61.9 0 0 0-3.6 5.7c3.5-11 9.9-31.9 18.5-59.4 0 .2.2.3.4.1 2.1-2.9 3.6-6.2 5.7-9.1a62.9 62.9 0 0 1 7.8-8.5c5.3-4.8 10.8-8.6 17.5-10.7zm19.8-63.9c-7.6 2.2-13.6 6.4-19.5 11.8a62.2 62.2 0 0 0-7.8 9.2 44.4 44.4 0 0 0-3.9 6.3c4.8-15.4 10.1-32.9 16-51.7 1.6-2.5 2.9-5.2 4.7-7.5a62.9 62.9 0 0 1 7.8-8.5c5.5-5.1 11.4-9 18.6-11.1-5.6 18.2-11 35.5-15.9 51.5zm16.7-54.1c-.1-.2-.2-.4-.3-.4-8 2.2-14.1 6.5-20.1 12.1a57.4 57.4 0 0 0-7.9 9.2l-1.7 2.5c5.6-18 11.5-37.1 17.6-57.1 1.8-2.6 3.2-5.5 5.1-8.1a62.9 62.9 0 0 1 7.8-8.5c5.5-5 11.3-8.8 18.4-11-6.5 21.2-12.9 41.8-18.9 61.3zm19.8-64.2h-.2c-7.9 2.2-14.1 6.5-20.1 12.1a58.8 58.8 0 0 0-7.9 9.2l-2 3.1c5.7-18.6 11.6-37.9 17.7-57.4 0 .2.2.4.4.1 2.1-2.8 3.6-6.1 5.7-9a57.7 57.7 0 0 1 7.9-8.5 47.3 47.3 0 0 1 17.3-10.8c-6.3 20.7-12.7 41.2-18.8 61.2zm19.8-64.3c-7.6 2.2-13.6 6.4-19.3 11.8a57.4 57.4 0 0 0-7.9 9.2 47.1 47.1 0 0 0-4 6.5c6.1-19.8 12.3-39.7 18.4-59.6h.3c2.1-2.9 3.6-6.2 5.7-9.1a57.7 57.7 0 0 1 7.9-8.5c5.2-4.8 10.8-8.6 17.4-10.7zm19.5-63.6c-7.6 2.2-13.6 6.4-19.4 11.8a57.4 57.4 0 0 0-7.9 9.2c-1.2 1.7-2.4 3.6-3.5 5.5l14.3-46.3c.1.1.2.1.3-.1 2.1-2.9 3.6-6.2 5.8-9.1a69.6 69.6 0 0 1 7.8-8.5c5.2-4.7 10.7-8.5 17.4-10.6-4.9 15.7-9.8 31.8-14.8 48.1zm15.7-51.2c-7.6 2.2-13.5 6.4-19.3 11.8a57.4 57.4 0 0 0-7.9 9.2 44.3 44.3 0 0 0-3.5 5.6l18.1-58.7.2-.2c2-2.8 3.5-6.2 5.7-9a62.9 62.9 0 0 1 7.8-8.5c5.3-4.8 10.8-8.6 17.4-10.7-5.8 19.2-12.1 39.5-18.5 60.5zm19.5-63.6c-7.6 2.2-13.6 6.4-19.4 11.8a57.4 57.4 0 0 0-7.9 9.2c-1 1.5-2.1 3.1-3.1 4.8l18.6-60.2c1.7-2.6 3.1-5.5 5-8.1a68.7 68.7 0 0 1 7.8-8.4c5.4-4.9 11-8.7 17.8-10.9-5.6 18.6-12 39.4-18.8 61.8zm19.8-64.9c-7.8 2.2-13.9 6.5-19.8 12a69.7 69.7 0 0 0-7.9 9.2l-2 3c7-22.6 13-42.2 17.9-57.8a71.7 71.7 0 0 1 4.6-7.5 62.9 62.9 0 0 1 7.8-8.5c5.4-4.9 11-8.7 17.8-10.8zM365.8 29c-7.7 2.2-13.8 6.4-19.7 11.9a62.2 62.2 0 0 0-7.8 9.2 22 22 0 0 0-1.7 2.5c6.1-19.8 9.7-31.7 10-32.4 1.6-5.2 3.2-10.7 5.9-15.4 3.3-1.7 6.2-2.8 10-2.5a13.8 13.8 0 0 1 9.7 5.3c-.4 1.3-2.6 8.9-6.4 21.4z" fill="#ddb860"></path><path d="M5.1 413.4s18.4 41 175.4 41.9c165.1.9 183.8-41.7 183.8-41.7l.4 367.6s-8.5 89.9-179.8 86.9S4.7 785.4 4.7 785.4z" fill="#f6e2dc"></path><path d="M5.1 413.4s7.5 42.4 179.5 41.8 179.5-38 179.7-42.6z" fill="#ecc3b6"></path><path d="M161.1 875.3a1.7 1.7 0 0 0-1.7-.7c-5.8-.1-11.6-.7-17.4-1.3a314.5 314.5 0 0 1-35.9-5.5 237.1 237.1 0 0 1-35-10.1c-15.4-5.9-29.8-13.5-42.3-24.3S8.8 812.7 4 798.6a54.9 54.9 0 0 1-3.1-18Q1.1 629 1 477.4C1 464.6.3 451.8.1 439c-.2-10.4.2-20.8.7-31.2a239.7 239.7 0 0 1 6.5-43.9 226.1 226.1 0 0 1 11.4-34.3c2.6-6.1 5.9-12 7.7-18.4.9-3.3 1.8-6.7 2.5-10a2.5 2.5 0 0 0-1.2-3.2 10.9 10.9 0 0 1-4.9-7.6c-.8-5.1 1.2-8.1 6.2-9.1 2.8-.6 2.8-.6 3-3.3s.3-4.5.5-6.7a4.1 4.1 0 0 0-1.6-4 20.6 20.6 0 0 1-5.4-6.3c-2.2-4.4-1.7-7.3 1.9-10.6a11.4 11.4 0 0 1 3.2-2.2c1.8-.6 2.1-1.8 2-3.5a253.4 253.4 0 0 0-1.9-28.9c-.8-7.5 2.2-13.2 7.6-17.9S52 189 59.7 186.1c14.1-5.2 28.6-8.4 43.4-11 10.7-1.8 21.4-3.2 32.2-4.2 7.2-.7 14.4-1.2 21.6-1.6 15.1-.8 30.3-.8 45.5-.4 10.8.3 21.6 1.1 32.4 2.2s20.5 2.4 30.7 4.1c17.4 3.1 34.5 7 50.8 14.2a57.5 57.5 0 0 1 15.2 9.6c5.1 4.8 7.9 10.5 6.8 17.9-.6 4-.3 8.1-.4 12.2a45.3 45.3 0 0 1-.4 7.4 4.3 4.3 0 0 0 1.4 4.1 9.8 9.8 0 0 1 3 4.2c1.5 3.7 1 7.3-2 10a6 6 0 0 0-1.9 5.2c.5 7.7 1.2 15.4 2 23.1.1 1.3.7 1.8 2 2a19.8 19.8 0 0 1 5.2 1.7c3.6 1.9 4.8 5.2 3.1 9a18.6 18.6 0 0 1-4.9 5.9c-1.4 1.1-1.6 2.1-1.1 3.9a108 108 0 0 0 6.4 17.2 198.4 198.4 0 0 1 15.8 50.6 214.5 214.5 0 0 1 3.3 33v17.4c-.1 7.4.2 14.9-.3 22.3-.7 10.7-1.5 21.4-1.5 32.2q-.2 150.3-.1 300.6v4.5c0 9.1-2.8 17.4-7 25.2-6.8 12.8-16.7 22.8-28.5 31.1s-24.8 14.6-38.4 19.5a253.1 253.1 0 0 1-42.8 10.8q-12.1 2.1-24.6 3.3c-7.2.7-14.5 1.3-21.8 1.4a2.1 2.1 0 0 0-1.8.6zM9.2 624.7v155.7a51.6 51.6 0 0 0 7 25.4c6.5 11.4 15.6 20.2 26.2 27.7 12.1 8.5 25.4 14.5 39.3 19.2a265.5 265.5 0 0 0 42.3 10 373.9 373.9 0 0 0 43.6 4.1c13 .5 26 .5 39-.3 8.3-.5 16.5-1.1 24.7-2a276.7 276.7 0 0 0 32.8-5.3c17.1-3.8 33.8-9.1 49.4-17.4 12.6-6.7 24.1-15 33.1-26.3s13.5-22.7 13.5-36.8q-.3-150.2-.1-300.2v-5.2c.3-12.4 1.4-24.7 1.8-37s.4-21.8-.2-32.6a277.4 277.4 0 0 0-3.5-30.1 184.8 184.8 0 0 0-13-43.1c-3.3-7.6-7-15-8.8-23.2-.4-1.5-1.1-1.8-2.5-1.5l-13.9 3q-19.8 4.2-39.9 7.5c-9.9 1.7-19.9 3.3-29.9 4.7s-19.5 2.6-29.4 3.5c-8.3.8-16.7 1.5-25.1 1.8a353.4 353.4 0 0 1-57.2-3.2c-10.7-1.4-21.3-3-31.8-4.9q-33.4-6.3-66.3-15.4c-3.1-.8-3.2-.8-3.8 2.3a96.4 96.4 0 0 1-7.6 21.9 192.5 192.5 0 0 0-7.4 18.2c-7.5 21-11.4 42.7-12.7 64.9-.6 11-1.2 22.1-.5 33.2s.9 22.6.9 33.9c.1 49.1 0 98.3 0 147.5zm320.4-398.2a5.2 5.2 0 0 0-2.8.8 73.2 73.2 0 0 1-14.1 5.4c-19.4 5.5-39.4 7.9-59.3 10.2-9.1 1-18.2 1.8-27.3 2.5-11.3.8-22.7 1.5-34.1 2a208.3 208.3 0 0 1-20.9-.4c-12.8-.6-25.5-1.6-38.3-2.6-7.4-.6-14.7-1.4-22.1-2.3-12.3-1.4-24.5-3.1-36.6-5.6s-22.1-4.8-32.3-9.8a1 1 0 0 0-1.6.1v1.7c0 6.8 1 13.5.7 20.3-.1 2.4.7 3.6 2.9 4.7 16 8 32.9 13.8 50.1 18.5a438.3 438.3 0 0 0 46.5 10.2q14.7 2.6 29.4 4.2a67.8 67.8 0 0 1 11 1.6c-4.3-.1-8.6.8-12.9.8-10.5-.1-21 .1-31.6-.4s-21.8-1.4-32.7-2.7a342.5 342.5 0 0 1-39-7c-7.3-1.8-14.5-3.9-21.7-6.3-2.1-.7-2.4-.5-2.5 1.7s0 5.6-.6 8.3a1.6 1.6 0 0 0 1.2 2l2.1.8c10.7 4 21.6 7.4 32.6 10.4a424.5 424.5 0 0 0 43.4 9.5c8.4 1.3 16.8 2.5 25.2 3.3s14.3 1.5 21.5 1.7c19.6.5 39.2.4 58.7-1.8 6.7-.7 13.4-1.2 20.1-2.1 10.5-1.5 20.8-3.1 31.2-5.1 18.2-3.5 36.3-7.6 54.2-12.8 2.3-.7 2.4-.9 2.1-3.1a189.7 189.7 0 0 1-1.9-21.2c-.1-3.3-.4-3.5-3.7-2.4-5.4 1.8-10.8 3.5-16.4 5-9.5 2.4-19.1 4.7-28.9 6.2-7.7 1.2-15.3 2.1-23 2.6a194.9 194.9 0 0 1-35-.5 7.5 7.5 0 0 1 2.4-.8l11.1-2c24.1-4.6 47.8-10.7 70.7-19.5a168.3 168.3 0 0 0 20.3-9.2c1.1-.6 1.9-1.2 1.9-2.6-.1-4.8 0-9.5 0-14.3zm-145.2-49.4a405.4 405.4 0 0 0-45.4 1.8c-9.8.9-19.6 2-29.4 3.5a265.1 265.1 0 0 0-40.2 9c-8.1 2.6-16 5.7-23 10.6a21.3 21.3 0 0 0-6.3 6.4c-2.1 3.6-1.6 5.9 1.5 8.5l2.1 1.4c6 3.6 12.6 5.6 19.3 7.3 21.5 5.6 43.6 8 65.8 10.2 9.5.9 19 1.7 28.5 2.2 3.9.3 7.8.3 11.6.7a175.6 175.6 0 0 0 29 .2c11.2-.6 22.3-1.1 33.5-2.3 5.9-.6 12-.8 17.9-1.5 9.8-1.1 19.7-2.2 29.4-3.7a249 249 0 0 0 34.3-7.3c5-1.6 10-3.4 14.3-6.6s3.9-4.7 1.8-8.3a19.2 19.2 0 0 0-5.6-6.1c-4.8-3.8-10.3-6.3-15.9-8.5-17.7-6.8-36.1-10.3-54.7-13-8.2-1.2-16.4-2-24.7-2.8s-17.1-1.3-25.7-1.7c-6-.2-12 0-18.1 0z" fill="#59b7c8"></path></g></g></svg>