<svg xmlns="http://www.w3.org/2000/svg" width="476.9" height="952.3" viewBox="-0.029972434043884277 -0.016091525554656982 476.91455078125 952.369873046875" style=""><g><title>fol155_367688380</title><g data-name="Layer 2"><path d="M475.1 354c1.7-15.7 5.3-39.8-7.6-52-6.3-5.9-15.2-6.7-23.4-5.2a130.5 130.5 0 0 0-19.5 5.1c7.5-16.7 13.3-34.4 18.6-51.7a529.4 529.4 0 0 0 15.8-68.1 531.4 531.4 0 0 0 4.4-139.7c-1.5-14.7-4-36.7-21-41.7-9.5-2.7-18.1 2.8-26.2 7.1-10.5 5.6-21 11.3-31.3 17.2-39.9 22.8-78.6 48.6-111.7 80.7-29.5 28.5-57.4 63.9-72 103.1-8.2-12-21.9-20.5-35.9-13.5-9.5 4.8-16.6 15.4-23 23.6a276.8 276.8 0 0 0-19.6 28.5c-11.8 19.8-21.2 41.4-26.7 63.9a187 187 0 0 0-5 33.4 163.3 163.3 0 0 0-.3 19.9 30.4 30.4 0 0 0-24.9-1.4c-17.5 6.9-25.7 27.1-32.7 43a393.9 393.9 0 0 0-31.4 123C-6 612.9 12.4 696.9 49 772.1a519.9 519.9 0 0 0 34.7 60.7c12.5 19.1 26 38.3 41.7 54.9a5.1 5.1 0 0 0 2.4 1.5c-1.1 5.7 4.6 12.1 10.5 7.9l138-98.3c41-29.1 82.7-58 109.7-101.5a223.1 223.1 0 0 0 29.5-74.6c.7-3.3-.9-7.7-4.8-8.4l-12.3-2c12-11.7 21.8-27 30.9-40.4 11.7-17.2 22.5-35.3 30.6-54.5 6.7-15.9 13.9-37.5 8.4-54.8-4-12.7-16.5-14.3-28.6-12 8.2-11.5 14.5-25.1 19.6-37.2a210.4 210.4 0 0 0 15.8-59.4z" fill="#ff9181"></path><path d="M323.9 254.5c29.9-48.4 61-95.8 87.6-146.2C425.9 81 441.4 51.2 448 20.8c1.4-6.2-6.9-8.2-9.2-2.6-5.3 12.9-9.4 26.2-14.8 39s-12 26.9-18.7 39.9-14.5 26.2-22.3 38.9c.9-5.7 1.5-11.4 2-17.1 1.6-18.9 3.3-36.8 7.8-55.2 1.2-4.7-6-8.2-8.1-3.4-7.1 15.7-8.2 34-9.6 50.9s-3.3 35.5-9.7 52.3l-4.1 6.4c-31.7 48.3-64.6 95.8-91.4 147.2-2.1 4.1-4.3 8.3-6.3 12.4.3-10.9.8-21.9 1.7-32.9A376.1 376.1 0 0 1 277 230a636 636 0 0 1 20.6-62.1c7.7-20.3 17.4-40.2 23.7-61 1.5-4.9-5.8-8-8.3-3.5-10.4 18.9-18 40-25.8 60.1a588.8 588.8 0 0 0-20.8 63.5 407.3 407.3 0 0 0-11.5 63.7c-1.2 11.8-2 23.7-2.5 35.6-.4 9.1-1.2 18.7-.9 28.1l-4.2 8.9c-7 15.3-15.9 31.6-19.2 48.1-1.4 6.5 7.1 10.4 10.8 4.5 8.4-13 13.4-28.5 19.9-42.5.7-1.5 1.4-2.9 2-4.3a170.3 170.3 0 0 1 13.3-13.6c7.9-6.9 16.2-13.2 24.6-19.5 16.6-12.7 32.8-26.1 48.1-40.4a608.2 608.2 0 0 0 43.6-45.8c13.9-16.3 27.9-33.2 38.7-51.7 2.5-4.4-4-9.8-7.2-5.6-13.3 17-25.5 34.7-39.4 51.2a563.1 563.1 0 0 1-44.7 46.7c-15.6 14.5-32.2 27.9-49.1 40.9-4.8 3.7-10 7.5-15 11.5l5.4-10.4c13.9-26.6 29-52.4 44.8-77.9z" fill="#470f31"></path><path d="M211.9 448c-11.7 14.9-18.3 37.4-20.1 56-.5 5.2 6.8 5.3 8.4 1.2 3.5-8.7 6.4-17.7 9.7-26.5s7.6-17.1 9.9-26.1c1.1-4.2-4.8-8.5-7.9-4.6z" fill="#470f31"></path><path d="M409.1 368.4c-14.4 16.4-28.6 33-44.4 48.2s-32 28.7-48.7 42.2c-34.8 28.2-70 55.7-102.1 87-10.1 9.8-20.6 19.9-30 30.8 2.9-10.9 5.8-21.9 7.1-33.1.5-4.5-6.8-6.4-8.7-2.3a278 278 0 0 0-13.6 40.1c-.7-3.9-1.3-7.9-1.9-11.8-2.3-15.3-4.1-30.7-5.9-46-3.6-31.2-6.2-62.4-7.9-93.8s-2.8-61.5-2.1-92.2a358.7 358.7 0 0 1 4.1-46.3c2.5-15.3 7.2-30.1 9.7-45.4.8-5.1-6.8-9.7-9.3-3.9-9.2 20.9-12.1 45.4-14.3 67.9-2.4 24.4-2 49.1-1.2 73.7 1.6 50.2 5.1 100.5 11.5 150.4 1.7 13.3 3.6 26.6 5.6 39.8 1.7 11 2.8 22.4 5.2 33.3-.9 3.8-1.9 7.6-2.9 11.4-6.8 26.1-13.1 52.3-18.7 78.7-5 23.4-9.3 47.1-12.7 70.8-3.6-9.9-7.8-19.6-12-29.4-9.7-22.7-18.6-45.7-27.1-69S73.4 624.8 66.9 602s-11.2-46.8-16.7-70.3c-1.2-5-9.8-4-9.2 1.3 5.3 46.6 21.1 92.7 37.2 136.5 8.1 22.3 17 44.3 25.9 66.2 7.5 18.3 15.5 36.6 20.7 55.7-2.5 22.1-4.2 44.3-4.6 66.6-.2 15 0 30 .9 44.9s1.7 30.6 6.3 45.1c2.1 6.6 11.9 5.4 12-1.6.4-13.1-1.5-26.1-2.5-39.1s-1.4-26.9-1.4-40.3c6-8.4 10.3-18.8 15.8-27.4 6.6-10.2 13.7-20 21.1-29.6 15.3-19.8 32.5-38 49.8-56 34-35.3 70.3-70.1 95.8-112.4 3.1-5.1-4.6-9.4-7.9-4.6-29 41.1-64 76.8-98.5 113.2-16.8 17.8-33.5 35.9-48.8 55.2a350.3 350.3 0 0 0-20.7 28.8l-6.1 9.2c.6-18.4 2-36.7 4-54.9 5.8-53.4 17.2-106 30.1-158l6.6-25.9c23.8-36.3 58.1-66 91.2-93.7s68.4-54 100.6-83.3c17.8-16.2 35.3-32.8 49.2-52.6 3.5-5-4.5-11.3-8.6-6.6z" fill="#470f31"></path><path d="M52.8 437.6c-.1-4.7-7.4-6.1-8.4-1.2-3.8 19.7-4.5 40.9-.8 60.7 1 5.4 9.1 3.9 9.3-1.3.7-19.3.2-38.9-.1-58.2z" fill="#470f31"></path></g></g></svg>