<svg xmlns="http://www.w3.org/2000/svg" width="771.9" height="952.3" viewBox="0 0 771.9110107421875 952.3344116210938" style=""><g><title>fol119_361547352</title><g data-name="Layer 2"><g fill="#f0e4e5" fill-rule="evenodd"><path d="M259.1 480.1c-17-9.7-1.9 7.8-15.4 1.4-40.8 73.6-84.4 147.3-129.8 224 28.2-103.3 77.2-198.1 135.8-303.9 23.4-42.3 60-132.8 112.7-96.7-27.7 60.7-74.2 123.7-107.2 163.6-6.8 13 10.8-1.4 3.9 11.6z"></path><path d="M691.7 538.2c7.6 26-24.5 48.4-38.4 75.3 1.8-25.5 28.2-48.8 38.4-75.3z"></path><path d="M583.6 342.5c1.8-20.2 22.2-37.2 37-58.7-1.7 32.4-58.1 84.7-62 114.8 21.9-23.3 40.2-53.1 56.7-85.9-1.6 34.1-30.1 72.7-43.1 114.6 17.8-10.6-2.1 19.8-5.2 29 18.2-31.7 51.6-85.3 75.5-86 17.6 3.8-11.1 20.9-7.1 35-37.9 36.4-40.3 82.9-67.7 133.3-24.6 45-52.1 91.7-74 141.2-8.8 20-15.1 43.7-32.6 56.8 7.9-79.4 73-195.6 104.5-263.7-18.4 6.1-12.7 17.9-18.3 34.5-2.4-3.4-3.4-7.4-3.9-11.6-23.9 36.1-46.6 98-63.3 131.3-3.9-3.6-4.3-8.8-3-14.7-22.8 37.5-25.2 91.2-46.4 137.3 19 17.4.9 72 13.8 100.7-6.4-5.9-11.3-3.9-18.4-13.4-17.2 39.6-33.5 80.8-66.3 92.7-47.8-3-62.9-39.3-55.8-74.5-29.4 14.2-26.7 56-50.4 77.8-9.5-17.7-3.5-39-1.6-55.3 2.5 6 7.4 11 5.3 19 9.8-15.5 26.2-41.6 28.4-54.9-10.2 7.5-15.8 23.1-25 32.1.4-22.4 3-29.7 3.7-60.2-6.6-2 .7 11.7-5.8 18.5-11.1-.5-3.9-9-2.9-14.7-19.1 13.7 3.1 20.3 1.5 31.3-9.9-1.1-4.9-8.6-11.6-11-2.8 35.9-3.7 62.1-10.3 105.8-11.8-3.4-18.7 2-32.4-4.7-18.7 23.2-71.9 15.9-80.6-18.4 27.3-65.9 79.9-223.9 94.8-280.9 1.6-6.4 5.2-3.9 10.6-9.9 2.9-20.4.5-34.4 15.3-49.3 5.9 7-15.2 23.6-9.6 30.8 10.9-17.4 29.4-41.9 18.2-58.5 16.4 20.5 5.5-10.7 11-23.4 9.9 1-6.9 13.6 2.9 14.7 11.7-62.7 60.7-155.5 99.8-224.4-2.2 64.3-55.6 121.1-67.1 167.6 26-26.9 55-90.2 75.9-123.5 12.8 30.7-7.1 51.4-29.1 105.9 16-8.2 23-32.4 31.7-53.7 6.1 1 5.6 4.7 4.8 8.6 21.6-14.4 34.4-44.3 63.1-45.9 33.6-30.1 101.7-173.9 174-112.6-7.6 34.6-46.5 49.7-35 76.5zm-40.4 81.4c-2.4-14.2 23.9-16.4 7.7-24.7-2.6 5.5-15.1 17.3-7.7 24.7zm-267.6 281c41.9-96.9 102.8-185.3 135.9-280-51.3 94.7-106.6 161.4-135.9 280zm2.3 137.6c8.3-22 21.6-35 31.8-53.7-15.9 7.7-32.4 38.7-31.8 53.7z"></path><path d="M771.8 341c1.6 19.9-14.6 48.8-15.8 62.8-87.2 84.5-147.8 209.4-228.4 312 8.3 16.6-31.3 43-39.3 78.4 28.1-140.5 105-250.9 162.6-366.2-15.4 11.9-29.7 36.9-46.2 51.9-2.4-1.3 10-34.3 7.6-24.6 20.7-12.7 21-58.3 42.3-87.6 8.9-12.2 66.8-55.6 77.1-54.6 15.5 1.4 31.6 12.5 40.1 27.9z"></path><path d="M653.7 576c8.3 10.4-8.6 16.2-8.6 27.7-10.5 1 8.3-17.3 8.6-27.7z"></path><path d="M635.5 610.6c-28.1 64.4-64.3 122.3-113 182.1 17.9-66.4 68.8-111.5 113-182.1z"></path><path d="M124 842.4c-10.7-4.5-16 .4-28-6.5-8.3 18.8-11 47.3-32.3 43.2 20.2-73.4 78.3-138.4 104.2-202.3.9-2.1-4.7-8.7-4.8-8.5 1.9-3.6 20.7-10.2 9.6-6.9-.9-8.5 28.8-26.1 16.8-41.9 2.5 1.6 2.4 4.3 5.8 5.5 13.2-44.6 40.6-83.1 70.1-128.9-11.6 33.4-20.7 69.7-42.2 87.5 13.8.7-21.2 59.9-40.3 105.4C160 743.6 148 787 124 842.4z"></path><path d="M601.9 694.4c-3.5 35.2-36.8 70-45.1 96.8-2.3 7.4-7.5 28.2-17.7 44.9-11.6 19-24.9 43.7-53.5 39.2 11.9-42.6 53.8-73.4 74-117.3 3.8 1.9 1.1 6.6.5 10.4 15.1-3.3-3.5-14.2 3.3-22.8 13.7 19.3 23.4-42.1 38.5-51.2z"></path></g><path d="M245.4 574.8a464.6 464.6 0 0 0 52.7 54.5c19 16.7 31.6 38 59.2 29.1-28.7-39.7-86.4-51.5-92.9-113.8 12.8-25.1 31.6-46.1 52.3-65.9 8.9 31.1 28.6 61.4 43.3 89.6 10.3 20 15.9 47.7 40.4 44.8-12.7-54.4-56-89.1-62.4-154.3 16.2-13.8 32.7-27.5 51-40 1.7 63.8 36.9 106.2 59.2 155 14.6-9.2 2.6-26.4-3-37.5-17.7-34.6-47.3-84.4-34.2-133.9 17.4-8.2 30.9-18.9 50.8-25.4-.8 31.1 12.6 76.2 22.3 118.6 5.5 23.7 14.4 45.1 25.3 53.9-3.5-10.4-7.1-20.4-10.2-39.4-7.1-43.6-33-105.8-23.3-131.1 8.9-23.2 41.9-17.8 64.7-32.4-6.2 24.1-13.8 62.1-13.3 96.3.2 13.7 1.6 31.5 12.2 40.8 11.3-25.1 5.2-56.4 9.1-84.4s17.6-47.7 33.3-66.6c22.9-8.5 47.9-11.9 66.1-25.5 13.3-9.9 19.7-33.6 38.6-18.7 17.2 29.7-5.3 44.5-17.5 60.9-5.6 7.5-5 17.1-9.7 26.1-14.3 27.7-53.3 52-40.9 86.8 13.6-1.8 12.3-17 16.5-26s11.3-14 15.7-22.1c10.3-18.9 12-49.6 35.2-58 2.9 16.3 16.6 35.9 16.1 50.7-.4 12.4-27.6 41.4-34.7 52.4-10.9 16.9-25.6 38.8-39.1 48-16.7 11.4-46.4 10.8-43.3 36.3 8.1 7.7 21.3-2.5 27.5-6.8 40.4-27.5 67.8-79.5 95.4-111.2 1.8 26.2 23.8 41.8 23.6 61.6-.1 10.6-22.7 33.2-33 44.7s-28 29.4-43 38c-33 19.2-75.6 19.2-90.2 47.9 12.6 22 38.2 1.6 54.5-8 25.2-14.8 36.7-31 58.8-43.8 17.9-22.1 38.5-42.4 55.9-64.9 23 55.1 36.5 115 2.1 143.6-12 10-28.1 8-50.6 10.7-31.5 3.9-60.7 14.5-86.2 19.6 1.6 8.9 14.3 17.2 23.9 15.9 38.6-4.9 112.2-19.4 138.1-39.7-6.6 39.1-21.5 72.6-34.7 107.2-29.4 6.5-58.1 4.3-85.5-.7s-52-19.5-79.2-11.4c9.2 20 33.1 16.7 51.7 18.2 31.3 2.5 62.6 17.3 100.1 13.5 4.3 4.4-3.4 11.1-6.7 16.3-10.3 16.2-23 38.4-36.3 52.8-69.8 25.5-96.2-23.4-139.2-44-5.7 1.1-4 7.2-8.2 9.3 15 19.5 37.1 30.9 57 42.5s40.7 25.5 66.9 25.4c-22.4 19-83.9 62-112.3 40.6-8.2-10-20.6-22.3-28.8-38.5-7.4-14.5-10.8-42.6-29.3-32.9 2.5 30.9 30.9 70.2 47.4 85-47.5 8.6-75.8-15.7-101.7-44.2-2-31-17.1-58.4-15.5-87.4 1-19.2 20.9-30.5 30.6-47.7 6.1-10.9 4.1-20.2 10.5-30-41.9-2.6-36.3 65-75 78.8-24.8 8.9-75.3-4.5-92.8-18.9-13.7-11.3-23.8-26.1-33.2-42.9 20.5-5.1 56.1 10 53.2-22.3-7.2-12.3-29.2-4.6-40.4 2.7-10.6-3.3-18.9-10.3-27.5-16.9-17.2-57.9-2.4-94.4 12.6-130.9zm153.9 151.7c14.6-4.6 14.3-19.2 19.1-30.3-17.3-20-40.4 16.5-19.1 30.3zm47.8-63c15.4-4.6 5.8-43.5-11.4-44.6-17.6 9.3-3.8 49.2 11.4 44.6zm25.3-64.6c10.4-1 10.8-8.6 13.9-14.4-6.7 1.4-.3-19.9-11.8-15.3-4.2 6.9-9.3 20-2.1 29.7zm55.8 84.7c-2.8 9.9-8-9.6-18.9-.8-14.3 26.1 31.3 25 18.9.8zm.5-29.3c17.4-2.6 13.8-17.3 14.6-27.4-12.6-7.5-33.8 14.8-14.6 27.4z" fill="#ffbebb" fill-rule="evenodd"></path><path d="M197.4 0c18.7 54.5 25.3 115.8 33.2 178.6 4.1 33.5 9.3 64.6 9.2 96.4s-7 60.3-11.9 93.5 2.6 74.6 10.6 102.1c11.8-30.2.5-72.3 4-102.1 7.5-1 5.7 8.1 9.3 11.4 3.6-70.7 15-123.2 43.7-165.9 20.4-30.3 44.8-57.4 67.6-86.4 7.2-9.3 13.6-20.7 23.8-27 .7 29.3-9.5 56.6-19.9 82.2-25.2 62.4-51.9 121.8-86.1 178.6-6.1 10.2-17.9 25.9-18.5 34.1-1.7 20.8 21.4 45.7 22.5 66.6 9-84.7 41.1-144.1 78.2-199.9 12.1-18.3 24.3-36.2 37.1-53.8 1.5 29.3-7.2 58-12 86.4s-8.3 58.9-14.5 86.5c-12.4 54.6-37.9 98.5-62.3 137.5 8.7 26.7 21.5 51.4 22.5 82.2.5 16.1-4.7 31.7-5.3 48.2-.3 8.8 2.5 18.1 2.7 25.5.8 49.6-4.5 92.6-18.6 127.6-4.4 10.9-12.1 19.4-17.2 31.1-6.2 14.3-9.3 26.4-17.2 39.7-6.9 11.5-12.4 23.8-19.9 35.5 9.3-24.6 22.9-56.8 33.1-85.1 15.7-102-28.7-162.5-68.9-214C128.7 581.8 74.8 512 42.4 416.7c-5.4-15.8-9.3-31.9-14.6-48.2S15.6 339 13.2 323.2c12.2 8.6 19 22.4 27.9 34 26.4 34.7 57.6 64.9 88.8 96.4 40.8 41.2 82 83.3 96.7 151.6 25.1 26.6 44.1 59.6 59.6 96.4-12.2-95.5-36.7-182.6-79.5-249.4-6.3-10-11.1-21.5-17.2-29.8-8.3-11.2-22.8-20.7-34.5-29.8C71.8 327.5 14.6 232.6 0 95c11.4 12.3 16.9 28.5 25.2 42.5 23.6 39.8 50.7 83.4 80.8 119.1s66.2 65.2 79.5 120.4c4 16.5 5.6 35.7 13.3 53.9 9 21.6 28.6 33.9 35.7 59.5 1.1.3 1.4 1.4 2.7 1.4-33.9-111.1-66.4-245.6-57-395.4C182.3 62.4 195 35 197.4 0zm68.9 569.8c6.8 25.8 12.4 50.4 19.9 75.1 1-17.9 9.2-32.8 6.6-48.2-1.3-7.7-9.6-16.5-14.5-25.5-16.1-29.2-26.6-56.2-31.8-93.5-1.4 35.3 11.8 61.5 19.8 92.1zm22.6 90.7c-1.4 19.6 6.8 41.5 9.2 63.8 3.4 30.6 2.9 66.8 1.4 89.3 26.2-48.9 37.7-171.5-1.4-209.8 1.8 20.4-7.8 37-9.2 56.7z" fill="#ddf1f2" fill-rule="evenodd"></path><path d="M417.2 398.1c11.3-63 3.5-120.8 6.3-178.8 1-21.3-15.4-48.9-24.2-68.9s-24.8-44-13.5-68c13.2 2.5 22.6 13.9 27.9 23.8 22.3 41.2 17.1 102.8 14.7 157.4 5.2-18.4 6.4-38.8 12-60.5 6.7-26.3 18.4-52 23.8-75.8 7.7-34 30-66.6 50-82.4 9.4-7.5 23.4-15.2 37.7-9.1 10.2 19-6.3 35.9-15.8 48.9s-20.4 29.7-30 44c-19.8 29.3-46.3 57.8-59 92.3-13.6 36.9-10.7 76.8-19 116.2 28.9-76.1 62.8-153.1 112-193 10.5-8.5 36.3-30.5 49.2-23.3 9.8 5.5 3.8 26.8-2.4 36.6-16.8 26.7-43.3 39.8-64.8 59.3-34.4 31.2-70.9 63.2-90.6 129.3-10.7 36-8.7 74.9-11.4 111.1s-4.8 73.3-8.2 108.4c29.5-83.3 15-180.4 63.5-261.3 7.3-12.2 33.5-53.9 53-44s-6 56.8-15.9 73.4c-22.8 38.7-48.6 72.9-66.9 123.2-17.2 47.2-20 97.5-35.7 148 46.9-51.4 50.8-192 106.1-226 12.8 30.3-19.5 64.4-35.7 95-13.3 25.3-25.2 50.7-33.9 81.5 33.2-43 70.4-80.8 113.7-105.9 13.8-8 30.7-18 48.3-12 4 24.5-16.1 37.5-29.3 45.6-17.7 10.8-37.6 14.4-54.3 24.1-62.4 36.2-118.3 91-147.2 201.7 35.9-46 67.8-96 115-126.1 7.5-4.8 37.8-23.4 48.9-14.3 14.8 12.1-11.9 41.8-19.4 48.9-15.3 14.5-27.8 20.9-41.5 29.8s-28.3 19.2-42.3 28.2-30.1 15.7-42.9 26.7c-28.7 24.4-47.8 66.1-72.4 100.6-7.8 11-15.5 22.9-25.8 29.9 15.6-27 31.9-43.4 39.8-80.7 7.1-33.3 0-68.4-8.4-97.2s-23.7-59.7-10.2-91.4c18.1 2.6 25.9 22.1 28.8 37 4.3 21.6 4.5 51.7 3.1 78.6s-3 57.7-11 85.4c18.3-28.8 45.6-71.9 43.8-110.4-2.4-55-45.8-108.1-68.1-156.3-7.8-17.1-18.4-36.9-10.8-56.7 22.5-12.7 35.1 19.5 40.8 33.3 22.4 54.6 35 118.1 43.2 178.9a196.8 196.8 0 0 0 13.3-80.8c-2.5-46.5-18.3-103.8-44.3-143-13-19.6-29.1-39.5-41.1-60.6-8.4-14.6-31.3-55.4-17.3-71.8 12.2-14.2 34 11.2 38.1 18.2 9.4 16.1 16.2 38.5 23.6 58.5 21.3 57.5 43.3 121.2 43.8 189.4 2.6-38 11.1-88.4 11.5-131.8.7-87.2-57.6-147-96.5-215.1a205.2 205.2 0 0 1-15.7-36.4c-1.5-4.7-10.2-35.3 4.3-38.6s32.6 35.6 34.7 41.6c4.7 12.9 6.6 26.9 11 39.9 12.6 37 33.2 75.3 47.6 111.9 2.3 1.4 0-5 1.4-.8 9.5 18.9 12.1 41.6 14.6 64.4zM520.4 48.3c-35.2 25.7-57.1 97.4-71.7 155.1 25.9-41.4 52.5-81.8 80.2-118.6 9.2-12.4 23-25.5 20.2-43.5-10.5-3.9-21.9 2-28.7 7zm-55.7 214.8c1.7 2.8 4.7-2.6 6.2-4.3 24.6-28.8 47.1-50.8 74.8-72.7 17.4-13.6 39.6-30.2 40.1-57.3-55.4 13.6-89.8 70.8-121.1 134.3zm-40.9-73.4c-4.5-37.6-3.1-78.5-36.5-100.3 2.1 39 26.9 65.5 36.5 100.3zm-85.3 47.1c15 23.3 28.2 46.7 41.6 67.2 1 .9 2.2 2.3 1.1.4-6.4-22.6-18-43.4-27-67.4s-12.4-50.6-23.8-70.1c-4.9-8.4-11.6-18.7-23.2-19.6-7.3 34.9 14.4 63.4 31.3 89.5zm186 61c5.3-13.8 8.7-35.7-5.5-30.3-42.6 16-73.8 122.6-76.8 180.5 17.1-58.8 63.3-101 82.3-150.2zm-190.4 91.3c18.4 26.2 40.5 49.2 49.8 80.3 3 4.8.4-4.4.3-5.1-5.3-23.6-14.1-45.1-22.3-67-9.7-25.8-17.2-54.5-28.2-75.5-5.6-10.6-16.3-28.7-32.3-21.4-3 35.3 15.5 64.2 32.7 88.7zM466 489.7c12.7-35.1 51.9-68.5 48.2-105-21.7 21.1-42.9 62.6-48.2 105zm135.5-49.3c-23.3 2.2-38.1 15.1-56.8 28.4-28.3 20.2-63.2 45.7-80.3 74.7 22.8-18.6 45.5-36.1 72.6-48.9 23.7-11.2 60.7-18.7 66.7-53.5zm-278 61.4c12.4 26.7 30.9 52.2 42.7 75.3-5.2-23.1-12.1-47.5-19.8-71.4-6.8-21.5-11.5-53.6-36-61.4-3.4 20 5.1 40.4 13.1 57.5zm213 71.4c-56.5 12.1-93.7 64-133.4 110.8 1.8 3.3 6.2-.4 7.7-1.2 22.6-13 43.2-28.8 64.6-42.6 23.9-15.3 56.9-29.6 62.9-65.1-1.1-.3-1-1.4-1.8-1.9zM343.6 693.4c1.4-21.1-.1-46.4-1.2-68.9s.1-48.7-23.2-55.7c-4.9 48.3 17.4 87.1 24.4 124.6z" fill="#aa935a" fill-rule="evenodd"></path><g fill="#383838" fill-rule="evenodd"><path d="M244.7 657.1c112.9 6.4 203.2 43.3 322.9 38.7-11.1 9.1-27.5 6.3-40.5 5.7-42-1.9-82.4-8.1-123.7-13.6-23.1-3.2-49.7-11.8-75.6-16s-68.3-.3-83.1-14.8z"></path><path d="M601.7 725.5c-11.8 8.7-27.8 4.2-40.5 2.2-38.6-6-78-16.8-120.4-20.5-55.5-4.8-111.4-13.3-159.9-27.3q-1.8.1-2.1-1.2c-.2-1.3.2-2 1-2.3 71.6 18.8 151.3 17.7 227 34.2 32.1 7.1 59.8 17.2 94.9 14.9z"></path><path d="M210.6 692.4c-.2-1 .4-1.1 1-1.1 97.7 15.4 201.5 29.2 302.7 43.3 5.1.7 13 .9 17 5.7-75.8-3-163.7-20.8-240.8-30.8-28.1-3.6-59.8-8.5-79.9-17.1z"></path><path d="M244.7 735.7c-.2-.9.4-1.1 1-1.1 48.1 8.9 103.3 18.9 156.7 27.4s109.2 7.5 156.6 26.2c-4.2 7.1-12.3 1.1-17 0-42.9-10.3-93-11-141.7-19.4-26.4-4.5-53.1-8.9-78.9-13.7s-53.8-11.4-76.7-19.4z"></path><path d="M628.3 777.9c-74.3-.4-139.5-23.4-212.1-28.5-21.7-1.5-41.8-3.6-60.7-9.1-16.3-4.8 2.7-2.3 9.6-1.2 17.7 3 38.1 3.3 55.4 4.6 22.7 1.7 50.1 7.6 69.3 11.4 46.3 9.1 97.8 10.8 138.5 22.8z"></path><path d="M621.9 807.6c-10.4 8.7-25 4.1-36.2 3.4-64-4.2-121.1-17.7-184.4-25.1-24.3-2.9-47.9-10.7-71.4-12.6-16.5-1.2-33.7 2.2-49-4.5-1.8.4-2-.9-2.1-2.3 122.7-.5 222 39.9 343.1 41.1z"></path><path d="M299 789.3c-.2-1 .4-1.1 1.1-1.1 50.5 8.3 107.2 19.5 164.1 25s112.1 13.1 164.1 24c-12.3 6.6-27.3 1.1-40.5-1.2-64.5-10.8-142.4-12.5-209.9-26.2-28.2-5.7-56.1-13.6-78.9-20.5z"></path><path d="M610.2 850.9c-30.8 2.1-62.1-2-92.7-5.7-89.7-11-180.1-24.6-261.1-46.8-.9-.2-1.1-1.1-2.2-1.1.5-1 1-2 2.2-2.3 111.9 25.1 230.2 43.3 353.8 55.9z"></path><path d="M252.1 821.2c-.2-1 .4-1.1 1.1-1.1 103.2 13.8 199.8 37.7 308 49 7.5.8 15.9 1.2 23.4 2.3s14.5-.4 19.2 5.7c-86.7-3.2-181.1-22-264.3-36.5-29.2-5.1-59.1-7.8-83.1-17.1a8.7 8.7 0 0 1-4.3-2.3z"></path><path d="M599.5 888.5c-55 3.7-110.4-12.4-165.1-19.4s-111.5-11-163.1-25.1c-.5-1-.9-2-2.1-2.3.4-1 .9-2 2.1-2.2 111.1 14.5 217.3 34.3 328.2 49z"></path><path d="M290.5 866.8c92 21.3 204.5 20.7 298.4 39.9-23.7 2.6-49.3-2.6-75.7-4.5-50.9-3.8-99.9-8.1-151.3-16-25.2-3.8-57-7.4-71.4-19.4z"></path><path d="M547.3 927.2c-35.1 5.7-70.2-6.1-105.5-10.2s-71.3-6.6-104.4-14.8a6.1 6.1 0 0 1-1.1-3.5c70.1 5.2 143.5 16.8 211 28.5z"></path></g><g fill="#fff"><path d="M312.4 755.9l-5.7-.2a4.8 4.8 0 0 0-5.2 3.4c-.5 1.8.5 4.6 3 4.7l5.7.3a5 5 0 0 0 5.2-3.5c.5-1.8-.5-4.5-3-4.7z"></path><path d="M307.2 796.4l.3.4.3-3.9a.3.3 0 0 1-.1.2l1.5-1.7-1.1.7c-1.8 1.2-2.7 3.8-1.8 5.6s3.5 1.7 5.1.6 4.6-4.4 2.7-7-9.3 1.8-6.9 5.1z"></path><path d="M282.2 777.7a9.4 9.4 0 0 1 2.9-.1c4.6.2 7.5-7.8 2.4-8a19.5 19.5 0 0 0-6.8.8c-4.4 1.3-4.2 9.1 1.5 7.3z"></path><path d="M272.8 802.6v1.4a3.5 3.5 0 0 0 4.1 3.5 4.9 4.9 0 0 0 4.2-4.6c0-.4.1-.9.1-1.4a3.6 3.6 0 0 0-4.2-3.5 4.9 4.9 0 0 0-4.2 4.6z"></path><path d="M291 822.2h2.4c2.9.2 6.4-7.5 3.1-7.7h-2.4c-2.9-.2-6.4 7.5-3.1 7.7z"></path><path d="M324.9 851.3l-4.8-.3c-3.2-.1-6.6 7.6-3 7.8l4.8.2c3.2.2 6.6-7.6 3-7.7z"></path><path d="M275.7 843.4a21 21 0 0 1 5.6.8c4.2 1.3 8.3-6.2 4.3-7.5a25.4 25.4 0 0 0-7.3-1.2c-4.1-.2-7.3 7.7-2.6 7.9z"></path><path d="M309 837.2a8.2 8.2 0 0 0 3.9-.7 7.9 7.9 0 0 0 3.7-4.9c.2-.9 0-3.6-1.9-2.5a4.5 4.5 0 0 1-2.6.4c-2.9-.1-6.4 7.5-3.1 7.7z"></path><path d="M346.8 805.6h-3.2c-4.8-.3-7.6 7.8-2.3 8l3.2.2c4.8.2 7.6-7.8 2.3-8.1z"></path><path d="M346.4 787.7c0-1 .1-1.9.1-2.8a3 3 0 0 0-3.6-3.3 5.1 5.1 0 0 0-4.1 4.6 26.2 26.2 0 0 0-.1 2.8 3.1 3.1 0 0 0 3.6 3.3 5.1 5.1 0 0 0 4.1-4.6z"></path><path d="M342.5 744.2a8 8 0 0 0-4.8 1.1 6.5 6.5 0 0 0-3 5.3c0 1.8 1.5 2.3 3.1 1.4a3.3 3.3 0 0 1 1.7 0c3.3.1 6.7-7.7 3-7.8z"></path><path d="M309.3 742.1h1.6c4.2.3 7.3-7.7 2.6-7.9h-1.6c-4.2-.2-7.3 7.7-2.6 8z"></path><path d="M336.7 717.3c-1 .6-2.3.7-3.3 1.3a6.2 6.2 0 0 0-3.1 5.3c.1 1.8 1.7 2.5 3.4 1.5s2.3-.7 3.3-1.3a6 6 0 0 0 3-5.3c-.1-1.8-1.7-2.4-3.3-1.5z"></path><path d="M273.4 729.9a17.2 17.2 0 0 0 6.2 3.5c3.6 1.3 7.7-6.3 4.3-7.5a14.2 14.2 0 0 1-5-2.7c-3-2.7-7.9 4.4-5.5 6.7z"></path><path d="M246.7 745.4l2.3 2.3c3.3 3.1 8.5-3.9 5.7-6.6l-2.3-2.2c-3.3-3.1-8.5 3.9-5.7 6.5z"></path><path d="M244 772.8a6.3 6.3 0 0 0 2.2 4.4c3.1 3 8.3-4 5.6-6.6-.6-.6-.8-.6-.8-1.4s-2.2-2.7-4-1.8a5.7 5.7 0 0 0-3 5.4z"></path><path d="M284.6 746.2h-2.4c-3.9-.2-7.1 7.7-2.7 7.9h2.4c3.9.2 7.2-7.7 2.7-7.9z"></path><path d="M222.1 823.7a35.6 35.6 0 0 0 9.8 1.3c4.1.2 7.3-7.7 2.5-7.9a36.3 36.3 0 0 1-8-.9c-4.2-1.4-8.3 6.2-4.3 7.5z"></path><path d="M235.1 799.7a4.5 4.5 0 0 1 3.7 2.6c1 1.6 3.4-1.1 3.8-1.6s2.3-3.6 1.4-5.2a7 7 0 0 0-5.8-3.5c-2.7-.3-6.4 7.3-3.1 7.7z"></path><path d="M256.2 838.6c1.3-.5 2.7-.8 4.1-1.2 4.5-1.6 3.9-9.4-1.8-7.5-1.3.5-2.7.8-4.1 1.2-4.5 1.6-3.9 9.4 1.8 7.5z"></path><path d="M254.5 860.6c-2.4-.8-3.3-2.8-4.6-4.6-3.1-4.5-10.2.8-7.5 4.8s4 6.1 7.9 7.3a4.7 4.7 0 0 0 5.8-2.1c.9-1.6.8-4.7-1.6-5.4z"></path><path d="M255.3 810.7a.9.9 0 0 0 .6.8c3.6 3.3 9.1-3.5 5.9-6.5a7.6 7.6 0 0 0-4.1-2.3c-2.3-.6-4.4 2-4.9 3.6a3.3 3.3 0 0 0 2.5 4.4z"></path><path d="M359.6 775.6a9.5 9.5 0 0 0 5.2 1.7 4.8 4.8 0 0 0 5.3-3.4c.5-1.8-.6-4.6-3.1-4.7-.6 0-2-.5-1.2 0-4.5-3.1-10.4 3.4-6.2 6.4z"></path><path d="M309.8 878.1c-.4 0-.7-.1-.7-.5s-2.9-.8-3.8 0-2.6 3.6-2.2 5.5a3.2 3.2 0 0 0 2.4 2.5c3.5.9 7.3-6.7 4.3-7.5z"></path><path d="M285.9 875.2l5-1.9c3.9-1.5 4.3-9.2-1.2-7.2l-4.9 1.9c-3.9 1.5-4.3 9.2 1.1 7.2z"></path><path d="M370.9 749.4a3.4 3.4 0 0 1 2.1.8c4 3.2 9.6-3.5 6-6.5a11.9 11.9 0 0 0-5.9-2.4c-4.9-.6-7.7 7.4-2.2 8.1z"></path><path d="M348 762.5c-.2 4.6 5.8-1.7 5.9-4.1.2-4.5-5.8 1.7-5.9 4.1z"></path><path d="M230.8 734.5a18.2 18.2 0 0 0 6.5 1.2c4.1.2 7.3-7.7 2.6-7.9a15.6 15.6 0 0 1-4.8-.8c-4-1.7-8.2 5.9-4.3 7.5z"></path><path d="M216.7 759.9c2.7.9 5.6 1.1 8.1 2.5s4.6-.8 5.4-2.2.9-4.1-1.2-5.3-5.3-1.7-8-2.5a4.7 4.7 0 0 0-5.5 2.3c-.8 1.4-1.1 4.5 1.2 5.2z"></path><path d="M221.6 791.7a2.9 2.9 0 0 1-1.4-.8c-3.8-3.1-9.2 3.7-5.9 6.5a10.7 10.7 0 0 0 4.9 2.4c4.5.7 7.6-7.2 2.4-8.1z"></path><path d="M196.5 777.3c1 .8 2.2 1.4 3.2 2.3s6.7-5.5 4.2-7.6c-.9-.8-2.1-1.4-3.1-2.3s-6.7 5.5-4.3 7.6z"></path><path d="M192.3 804.2c1.1 1.7 3.4 2.5 5.3 3.5 3.6 1.7 8-5.8 4.3-7.6-1.5-.7-3.2-1.2-4.1-2.6s-4 .3-4.8 1.2-1.9 3.7-.7 5.5z"></path><path d="M212.2 839.9l-4.8-.2c-4.8-.2-7.6 7.8-2.4 8l4.9.3c4.7.2 7.5-7.8 2.3-8.1z"></path><path d="M231.9 898.9a17.4 17.4 0 0 1 2.6 1.9c2.6 2.5 7.5-4.6 5.3-6.7a16.1 16.1 0 0 0-3.6-2.7c-2.9-1.5-7.4 5.9-4.3 7.5z"></path><path d="M293.5 902.3c0 .2-.1.4-.1.7-.1 2.1 2.1 3.9 4.5 3.7a4.6 4.6 0 0 0 4.3-4.6 1.5 1.5 0 0 0 .1-.7c.1-2.1-2.1-3.9-4.5-3.7a4.7 4.7 0 0 0-4.3 4.6z"></path><path d="M266.6 902.2c2.3 0 3.9-.8 5.9-1.6 3.5-1.5 4.5-9.2-.8-7.1a5.3 5.3 0 0 1-2.4.8c-3.9.1-7 8-2.7 7.9z"></path><path d="M206.1 875.8a19.5 19.5 0 0 0 5.9 1.3c2.6.1 4.8-1.2 5.3-3.5s-.6-4.6-3.2-4.7a11.5 11.5 0 0 1-3.7-.6c-5.1-2.2-9.4 5.4-4.3 7.5z"></path><path d="M278.3 921.9l1.6.2c.8.2.9.1.4-.2 4.5 3.3 10.5-3.3 6.1-6.3a10.4 10.4 0 0 0-6-1.8 5 5 0 0 0-5.4 3.4c-.4 1.9.7 4.6 3.3 4.7z"></path></g></g></g></svg>