<svg xmlns="http://www.w3.org/2000/svg" width="459.1" height="952.3" viewBox="-0.031558550894260406 0.6257390975952148 459.1676025390625 951.7138061523438" style=""><g><title>fol142_367688380</title><path d="M274.8 378.7c16.4 3 32.9-2.2 47.5-9.4a253.3 253.3 0 0 0 42.2-26.5c3.2-2.5 6.5-5.1 9.6-7.8 22.7-18.9 42.8-40.7 62-63.1a184.2 184.2 0 0 0 16.3-21c3.5-5.4 9.6-13.7 5.2-20.1s-13.8-4.7-19.9-3.9a101.4 101.4 0 0 0-23.6 6.2 260 260 0 0 0-78.8 47.1 271.9 271.9 0 0 0-28.7 29.1c11.1-24.8 21.7-49.9 31.8-75.1 29.8-13.1 48.7-44.9 64.2-71.9 18.2-31.9 32.2-67 36.7-103.6 2-16 4.6-36.4-2.5-51.6s-26.3 0-33.8 8.6c-11.7 13.2-21.8 28.1-31.3 43a318.9 318.9 0 0 0-26.3 49.7c-15.6 37.5-23.5 79.8-15.6 120.2-11.1 25.1-22.2 50.1-33.6 75 .8-7 1.5-13.9 2.2-20.9 2-19 3.7-38.2 4.8-57.3 2.2-34.8 1.9-71-13.2-103.2-3.5-7.5-15.8-34.7-25.5-19.6s-14.4 33.7-18.2 50.7c-7.9 35.8-12.4 73.6-10.5 110.2a216.9 216.9 0 0 0 7.8 48.9c5.2 18.4 13 36 24.2 51.8-14.8 30.6-30 61-45.9 91 .3-9.4.1-18.9-.1-28.1-.5-18.5-2.5-37.1-7.5-54.9a175.9 175.9 0 0 0-40.7-71.9q-4.7-4.9-9.6-9.6c-9.3-8.4-25.9-21.5-37.2-8.4a22.2 22.2 0 0 0-4.5 9.1 47.1 47.1 0 0 0-1.1 9.1c-.4 8.3-.2 16.6.2 24.9a337 337 0 0 0 19.2 96.2 326.3 326.3 0 0 0 50.1 91.5c-18.4 34.5-35.7 69.4-50.8 105.5-.5-6.6-1.2-13.1-1.8-19.5a417.1 417.1 0 0 0-6.7-48.4c-6.1-30.3-16.7-60.3-35.7-85-11.1-14.5-25-27.1-42.5-33.1-2.9-1-5.9.2-6.6 3.4C31.8 502.9 58 569.3 91.4 626.3c8.9 15.3 18.4 30.5 28.3 45.3a1052 1052 0 0 0-30.2 102.8q-1.9 7.8-3.6 15.6l-.6-6a317.5 317.5 0 0 0-8.1-48.4c-7.2-28.2-19.4-55.6-38-78.1-6.1-7.5-19.6-26.9-30.9-17.9-4 3.2-5.2 8.7-6 13.5A158.9 158.9 0 0 0 0 677.9c-.6 31.6 7.4 63.1 20.2 91.8 13.5 30.4 32.3 58.8 53.5 84.4-.3 2.3-.7 4.5-1 6.7-4.3 28.5-8.8 58-8.4 87 .1 5.9 9.4 6.1 10.4.3 4.1-25.3 5.9-51.1 9.8-76.6l.3-2.2h.4c65.1-11.3 129.6-42.5 168.6-97.4A146.7 146.7 0 0 0 268 748c3.2-6.8 7.1-15.7 3.6-23.1s-11.9-8-18.8-6.7a207.5 207.5 0 0 0-23.2 5.9 253.8 253.8 0 0 0-86.4 47.5 247 247 0 0 0-51.7 59.5c2.3-11.9 4.8-23.7 7.5-35.5A1063.4 1063.4 0 0 1 130.5 685c17.8 3.2 35.6.2 53.1-3.8 15.7-3.6 31.4-7.4 46.8-12.1 29.7-9.2 59-22 82.2-43.2 10.8-9.9 24.8-24.3 24.6-40.1-.2-17.8-25.8-16-37.9-14.7-32 3.6-64.1 16.4-92.2 31.5a301.7 301.7 0 0 0-45.9 30c-5.6 4.5-11.3 9.2-16.7 14.1 13.5-35.1 29.3-69.1 46.2-102.7 70.4 4.6 143.6-13.4 194.4-64.8a175.4 175.4 0 0 0 30.3-40.7c3.3-6.2 5.6-13.4-.7-18.6s-13-4.1-19.5-3.5c-36.7 3.5-71.1 18.3-103.2 35.8a614.1 614.1 0 0 0-54 32.6 332.8 332.8 0 0 0-27 19.8q32.9-62.4 63.4-126.1z" fill="#6d88e0" data-name="Layer 2"></path></g></svg>