<svg xmlns="http://www.w3.org/2000/svg" width="522.6" height="1038.5" viewBox="0.0094146728515625 0.007539518177509308 522.58544921875 1038.4339599609375" style=""><g><title>iconsl111_341898466</title><g data-name="Layer 2"><path d="M522.5 939c6.4 23.3-313.1 106.2-323.5 99-.3 0-16-56.3-56.8-214.3C97.6 651.5 40 421.7 20.3 317c-5.9-30.9-8.4-51-6.2-55.3 14.2-29.1 32.6-57.8 56.3-87.6 0-.4.4-.9 1-1.4 11-8.8 107.3-39.6 115.3-31.3l.9.4c29.4 11.3 65.3 29.5 90.4 48.5 1.6 1.2 8.4 19.1 18.8 48.6C331 336.7 404 562.2 458 732.2c10.5 32.9 55 173.1 64.5 206.8z" fill="#f97253"></path><path d="M458 732.2c-19.4 18.8-284.5 73.3-315.8 91.5C97.6 651.5 40 421.7 20.3 317c94-21 184.4-54.5 276.5-78.1C331 336.7 404 562.2 458 732.2z" fill="#d8462a"></path><path d="M255.1 624.7c-.3 1.2 6.7 35.4 12.2 37a4.1 4.1 0 0 0 5-2.9c.5-1.8-28.6-98.7-23.6-136.4 4.3-26.8 27.4-60.3 11.2-86.2-5-8-26.5 9-26.8 54.8-8.8-28.3-2.4-1.5-20.3-70.8-16.8-65-41.2-38.2-33.2-8.6s37.4 68.2 46.6 90.1c3.4 8.5 9.2 31.8 9.6 33.3-25.3-67-72.3-54.4-20.7 16.4 23.1 31.8 32 38.5 40 73.3z" fill="#ffdfd2"></path><path d="M172.5.1C169 .1 182.9-3 70.2 26.7 25.2 38.6-3.2 42.6.3 57.9S4 84.8 13.4 95.2c7.6 8.3 21.3 1.7 31-.9.8 2.6 16.2 57.7 18 63.9 3.3 16 7.7 31.6 119-10.6 9.1-3.4 6.5-11.4 5.5-14.5s-2.2-6.3-20.6-72.3c6.2-1.8 23-5.1 25.8-11.8 3.6-8.7-5-23.4-7.3-33.5C183.4 9 180.7.2 172.5.1z" fill="#006f77"></path><path d="M514.2 911.2c-105.7 39.2-215.7 66.7-324.6 93l-2.7-10c108-26.1 218.6-53.7 324.2-92.9z" fill="#d8462a"></path></g></g></svg>