<svg xmlns="http://www.w3.org/2000/svg" width="534.5" height="1038.5" viewBox="0 0 534.5782470703125 1038.5" style=""><g><title>iconsl9_75615409</title><g fill="#e74c3c" data-name="Layer 2"><path d="M151.1 704.4a13.8 13.8 0 0 1-5.6-1.2C0 639.8 0 554.1 0 485.2c0-89.1 28.4-135.4 29.6-137.3l24.8-39.3 1.3 46.4c.6 19.5 6.7 33.6 14.2 43.5-8.7-62.3 14-132.7 37.8-170 11.7-18.4 26.8-37.1 41.4-55.3s29.8-37 39.6-53.4c16.2-27.1 2.6-67.5 2.5-67.9L173.3 0 214 36.8c56.4 51 82.8 110.6 80.8 182.3-1.2 43-22.8 78.9-47.8 120.6-10.2 16.9-20.7 34.3-31.2 54.3-21.7 40.9-13.8 67.4-7.1 79.6s17.4 20.2 28.2 21.1c8.9.7 12.7-2.6 14.9-5.2 6.6-7.7 10.7-27.3 2.7-59.1-14.4-56.9 19.6-88.3 21.1-89.7l29.1-26.1-5.7 38.7c-4.3 30 10.4 47.5 25.2 57.4-5.7-19.2-12.4-44.8-15.1-68.2-5.5-47.2 33.3-113.6 34.9-116.4l33.4-56.5-7.1 65.2c-3.3 29.8 11.9 49.8 31.2 75.2 6 7.9 12.2 16.1 18.3 25.1 4.1 6.1 9.4 12.7 15 19.6 28.6 35.7 67.9 84.6 51.5 188.2-9.2 57.9-43 100-116.5 145.2a14.1 14.1 0 1 1-14.8-24c76.7-47.3 96.8-84.4 103.4-125.6 14.4-91.2-18.9-132.7-45.7-166-6-7.5-11.6-14.5-16.4-21.7s-11.6-16.1-17.3-23.7c-11.2-14.7-22.5-29.6-29.7-46.8-7.8 19.7-14.1 42.1-12.1 58.9 4.7 40.8 23.3 91.3 23.5 91.8l9.1 24.3-25.4-5.6c-19.7-4.3-50-18.9-65.1-47.3a78.2 78.2 0 0 0 2.6 21c9.4 36.9 6.3 66.9-8.5 84.4-9.5 11.2-23 16.4-38.8 15.1-20.2-1.7-39.6-15.4-50.7-35.8-9.4-17.1-21-53.7 6.9-106.4 10.9-20.6 22.1-39.2 31.9-55.6 24-39.8 42.9-71.2 43.8-106.8 1.4-49.5-12-91.3-41.7-128.9-.3 14.6-3.3 30.7-11.9 45-10.8 18-25.8 36.7-41.8 56.5-14.1 17.6-28.7 35.7-39.6 52.8-25.1 39.4-50.3 125.2-24.5 184.5l12.4 28.5-29.6-9.4c-1.8-.5-33.8-11.1-51.2-45.4-5.5 20.2-10.3 48-10.3 83.3 0 66.9 0 136.1 128.5 192.1a14.1 14.1 0 0 1-5.7 27.1z"></path><path d="M520.4 1038.5a14 14 0 0 1-11.4-5.9L244 666.8a14.1 14.1 0 0 1 22.9-16.6l265 365.8a14.2 14.2 0 0 1-11.5 22.5z"></path><path d="M228.1 672.9a60.1 60.1 0 1 1 60-60.1 60.1 60.1 0 0 1-60 60.1zm0-91.8a31.8 31.8 0 1 0 31.7 31.7 31.7 31.7 0 0 0-31.7-31.7z"></path></g></g></svg>