<svg xmlns="http://www.w3.org/2000/svg" width="691.8" height="1038.5" viewBox="0 -0.00004579511733027175 691.7999877929688 1038.5" style=""><g><title>iconsl208_378303070</title><g data-name="Layer 2"><path d="M505.2 264.3a159.3 159.3 0 0 1-159.3 159.3c-88 0-159.4-71.3-159.4-159.3H.4c-.3 5.1-.4 10.3-.4 15.5 0 191 154.9 345.9 345.9 345.9s345.9-154.9 345.9-345.9c0-5.2-.2-10.4-.4-15.5z" fill="#877960"></path><path d="M478.5 1038.5a132.6 132.6 0 1 0-265.2 0h-155c-.2-4.3-.3-8.6-.3-13 0-159 128.9-287.9 287.9-287.9s287.9 128.9 287.9 287.9c0 4.4-.1 8.7-.3 13z" fill="#c68a59"></path><path d="M446.9 101a101.1 101.1 0 1 1-101-101 101 101 0 0 1 101 101z" fill="#c68a59"></path></g></g></svg>