<svg xmlns="http://www.w3.org/2000/svg" width="942.5" height="831.7" viewBox="0 0 942.5297241210938 831.699951171875" style=""><g><title>sml4_358058766</title><g data-name="Layer 2"><rect x="497.5" y="16.5" width="209.7" height="284.93" rx="13.6" fill="#bfc3ff"></rect><path d="M673.7 119.8a70.6 70.6 0 0 1-11.3 38.3 37.8 37.8 0 0 1-2.2 3.3c-1.4 1.9-2.8 3.6-4.3 5.3l-1.7 1.9-.2.2a29.5 29.5 0 0 1-2.5 2.5 59.5 59.5 0 0 1-5.4 4.6l-1.5 1.2a70.6 70.6 0 0 1-30.3 12.7l-2.1.3a63.1 63.1 0 0 1-7.6.7h-2a71.5 71.5 0 0 1-30.3-6.8c-2.2-1.1-4.4-2.2-6.5-3.5l-1.7-1.1a71.3 71.3 0 0 1-21.3-21.4l-.6-1a65.5 65.5 0 0 1-5.5-10.9 71 71 0 1 1 137-26.3z" fill="#fff"></path><g fill="#fff"><path d="M677 217.9H529.9a1.1 1.1 0 0 1 0-2.2H677a1.1 1.1 0 1 1 0 2.2z"></path><path d="M640.3 238.4H529.9a1.1 1.1 0 0 1 0-2.2h110.4a1.1 1.1 0 1 1 0 2.2z"></path><path d="M640.3 258.9H529.9a1.1 1.1 0 0 1 0-2.2h110.4a1.1 1.1 0 0 1 0 2.2z"></path></g><path d="M654.2 168.6v.5l-.2-.3a29.5 29.5 0 0 1-2.5 2.5l-6.5.7-1.9.2-18.1 2-15.2-11.5-2.6-2.1c-2.5-2-4.4-3.5-4.6-3.8v-1.3c.1-1.1.3-2.8.5-4.9l.6-4.2c1.3-8.9 3.1-20.2 3.1-20.2h4l20.3-.6v.3c0 1.9.6 13 12.6 22.2 9.6 7.4 10.7 16.3 10.5 20.5z" fill="#ff7867"></path><path d="M612.5 148.6l-.5 2.3-1.6 8.6-.2 1v.8l-.3 1.4-3 16.5-.5 2.5-1.7 9.1h-2a71.5 71.5 0 0 1-30.3-6.8c-2.2-1.1-4.4-2.2-6.5-3.5l-1.7-1.1a71.3 71.3 0 0 1-21.4-21.4l-.6-1a65.5 65.5 0 0 1-5.5-10.9 38.4 38.4 0 0 1 9-9c23.7-16.7 30.2-35.6 31-37.9V99l2.6 1 2.2.9 5.8 2.2 4.5 1.8.7.2.3.2 17 6.6 1 14.2.6 8.2v1l.8 11.1z" fill="#ff7867"></path><path d="M637.8 96.4L634.4 82a28.4 28.4 0 0 0-23.7-21.5l.4-2.8a31.2 31.2 0 0 1 26 23.6l3.4 14.5z" fill="#545ed7"></path><path d="M634.7 90.8a15.7 15.7 0 0 1 2.9 31.2z" fill="#545ed7"></path><path d="M635.1 126.9a2.8 2.8 0 0 0 2.9-2.6 91.4 91.4 0 0 0-2.8-34.3 2.6 2.6 0 0 0-3.2-1.8 2.7 2.7 0 0 0-1.7 3.3 83.3 83.3 0 0 1 2.6 32.4 2.6 2.6 0 0 0 2.2 3z" fill="#545ed7"></path><path d="M632.5 101.7s6.9 26.1-11 32.7l2.2 16.8-23.6-.7-9.4-51.8 34.1-15.9s4.9 2.1 7.7 18.9z" fill="#ffcec8"></path><path d="M629.6 87.7c-4.2-13.3-15.4-19-29.7-15.1s-19.4 15-22.8 24.9a11.8 11.8 0 0 0 11.1 15.5 15.4 15.4 0 0 1 5.2.8l-1.7-15.5a20.8 20.8 0 0 0 26.3.5 32.6 32.6 0 0 0 6.4-6.6c2 3.6 7.2 4.5 7.2 4.5a48.3 48.3 0 0 0-2-9z" fill="#ff7867"></path><path d="M654 168.8a29.5 29.5 0 0 1-2.5 2.5 59.5 59.5 0 0 1-5.4 4.6l-1.5 1.2a70.6 70.6 0 0 1-30.3 12.7l-2.1.3a63.1 63.1 0 0 1-7.6.7h-2a71.5 71.5 0 0 1-30.3-6.8c-2.2-1.1-4.4-2.2-6.5-3.5l-1.7-1.1v-.6a25.5 25.5 0 0 1 10.2-23.8 48.8 48.8 0 0 1 22.5-8.4h24.6l1.8.6 3.1 1.2.9.3.8.4 6.3 2.3a36.3 36.3 0 0 1 14.1 10.7z" fill="#545ed7"></path><path d="M646.1 175.9l-1.5 1.2c-.6-1.7-1.1-3.3-1.5-4.9a28.2 28.2 0 0 1-.7-4.7.9.9 0 0 1 .8-1 1 1 0 0 1 1 .9 20.2 20.2 0 0 0 .8 4.6c.3 1.3.7 2.6 1.1 3.9z" fill="#3944c7"></path><path d="M587.9 118.5a7.7 7.7 0 1 0 6.1-9.1 7.8 7.8 0 0 0-6.1 9.1z" fill="#ffcec8"></path><path d="M621.5 134.4s-8.7 2.3-14.6-2.5c0 0 4 5.7 15 5.2z" fill="#ff9d91"></path><path d="M597.8 146.5a14.8 14.8 0 0 0 14.8 14.2 15 15 0 0 0 14.6-12.2l-5.8-2.1h-23.6z" fill="#ffcec8"></path><path d="M612.6 161.6a15.8 15.8 0 0 0 15.5-12.9 1 1 0 0 0-.8-1.1.9.9 0 0 0-1 .8 13.9 13.9 0 0 1-27.6-1.9.9.9 0 0 0-1-.9.8.8 0 0 0-.8 1 15.7 15.7 0 0 0 15.7 15z" fill="#fff"></path><path d="M606.8 179.2l7.5 10.6-2.1.3-5.9-8.4-7.1-10c-10.1-14.1-18.6-12-18.7-11.9a.9.9 0 0 1-1.1-.7.9.9 0 0 1 .6-1.1c.4-.1 9.7-2.6 20.7 12.7z" fill="#3944c7"></path><path d="M580.2 109.9l-3.4-14.4a31.1 31.1 0 0 1 23.1-37.2 23.4 23.4 0 0 1 4.5-.7l.2 2.7-4.1.7A28.1 28.1 0 0 0 583 73.6a27.7 27.7 0 0 0-3.4 21.2l3.4 14.5z" fill="#545ed7"></path><path d="M584.2 77.2l-7.5-3.7a33.6 33.6 0 0 1 22.5-17.9 27.8 27.8 0 0 1 4.9-.8h1.3a37.5 37.5 0 0 1 5.8.2 32.9 32.9 0 0 1 15.9 6.5l-5 6.7a26 26 0 0 0-12-4.9 30.9 30.9 0 0 0-4.3-.1h-.9a22 22 0 0 0-3.7.6 25.7 25.7 0 0 0-17 13.4z" fill="#ff7867"></path><path d="M586.6 99a15.6 15.6 0 0 0 5.2 30.8z" fill="#545ed7"></path><path d="M594.8 132.3a2.4 2.4 0 0 1-2.9-2l-5.2-31.2a2.4 2.4 0 0 1 2-2.9 2.7 2.7 0 0 1 3 2.1l5.2 31.1a2.5 2.5 0 0 1-2.1 2.9z" fill="#545ed7"></path><path d="M605.7 331l22.4-29.8h-51.4l22.4 29.8a4.1 4.1 0 0 0 6.6 0z" fill="#bfc3ff"></path><g><rect width="209.7" height="284.93" rx="13.6" fill="#bfc3ff"></rect><path d="M176.1 103.2a70.8 70.8 0 0 1-11.2 38.4l-.4.6-1.9 2.7-.7.9-1 1.4c-1 1.2-2 2.5-3.1 3.7a72.7 72.7 0 0 1-5.6 5.5c-1.3 1.1-2.6 2.2-4 3.2a70.3 70.3 0 0 1-43.1 14.7 73.8 73.8 0 0 1-21.1-3.2l-.8-.3H83l-3.3-1.1h-.3l-3.1-1.3a73.4 73.4 0 0 1-9.6-5.2 64.2 64.2 0 0 1-5.3-3.8 73.2 73.2 0 0 1-6.6-5.9c-1-1-2-2-2.9-3.1a8.6 8.6 0 0 1-1.3-1.4l-.8-1a13.3 13.3 0 0 1-1.4-1.9l-.5-.5-.2-.4-.8-1c-.8-1.1-1.5-2.3-2.3-3.5l-.7-1.2c-.6-1-1.1-2-1.6-3a69 69 0 0 1-7.9-26.7c-.2-2.1-.3-4.2-.3-6.4v-.4a71 71 0 0 1 142 .4z" fill="#fff"></path><g fill="#fff"><path d="M179.4 201.4h-147a1.1 1.1 0 1 1 0-2.2h147a1.1 1.1 0 1 1 0 2.2z"></path><path d="M142.8 221.9H32.4a1.1 1.1 0 1 1 0-2.2h110.4a1.1 1.1 0 0 1 0 2.2z"></path><path d="M142.8 242.4H32.4a1.1 1.1 0 1 1 0-2.2h110.4a1.1 1.1 0 0 1 0 2.2z"></path></g><path d="M142.8 76.5L139 60.9A31.1 31.1 0 0 0 101.6 38a27.1 27.1 0 0 0-4.3 1.4l-.7-1.7a27.6 27.6 0 0 1 4.6-1.5 32.9 32.9 0 0 1 39.6 24.3l3.8 15.5z" fill="#545ed7"></path><path d="M137.1 69.3a16.9 16.9 0 0 1 7.4 33z" fill="#ff9e70"></path><path d="M142.6 106a2.7 2.7 0 0 0 2.1-3.2l-7.6-33.3a2.8 2.8 0 0 0-3.3-2.1 2.7 2.7 0 0 0-2 3.3l7.5 33.3a2.7 2.7 0 0 0 3.3 2z" fill="#545ed7"></path><path d="M76.3 168.2a73.4 73.4 0 0 1-9.6-5.2 64.2 64.2 0 0 1-5.3-3.8 73.2 73.2 0 0 1-6.6-5.9c-1-1-2-2-2.9-3.1a6.5 6.5 0 0 1-3.8-4.1c-.1-.2-.1-.5-.2-.7l-.2-.4-.8-1c-.8-1.1-1.5-2.3-2.3-3.5l-.7-1.2c-.6-1-1.1-2-1.6-3l32.7-13 .3 10.8v1.8z" fill="#ff7867"></path><path d="M140.5 86.1s7.4 31.7-15.1 35.3l.6 11.8-29.4 1.3-3-57.2 42.5-2.3z" fill="#ffcec8"></path><path d="M164.5 142.2l-1.9 2.7-.7.9-1 1.4c-1 1.2-2 2.5-3.1 3.7l1.1-12.3h.2l2.1 1.3 1 .7z" fill="#ff9e70"></path><path d="M162.3 140.4v.2l-.3 5.2-1 1.4c-1 1.2-2 2.5-3.1 3.7a72.7 72.7 0 0 1-5.6 5.5c-1.3 1.1-2.6 2.2-4 3.2a70.3 70.3 0 0 1-43.1 14.7 73.8 73.8 0 0 1-21.2-3.2l-.8-.3H83l-3.3-1.1h-.3l-3.1-1.3a73.4 73.4 0 0 1-9.6-5.2 64.2 64.2 0 0 1-5.3-3.8l-.3-21.4v-1h.4a57.2 57.2 0 0 1 5.9-1.7l1.4-.3c2.2-.4 4.4-.6 6.6-.8h7.2l14-.3 28.9-.7h19.9a45.6 45.6 0 0 1 13.6 5h.2z" fill="#ff9e70"></path><path d="M141.1 85.3h-.8a7 7 0 0 1-5.6-1.9 16.7 16.7 0 0 1-3.9-6s-12.5 20.8-30 16.1l-5.9.3h-.4l.2 5.1.3 4.8.2 5 .3 4.2v1.4l.9 18.9-16 .5h-6.3l-2.6.3a50.5 50.5 0 0 0-10.4 3 33.5 33.5 0 0 0-8.2 4.6l-4.5 3.5-.3.2c-.1-.2-.1-.5-.2-.7l-.2-.4-.8-1c-.8-1.1-1.5-2.3-2.3-3.5l-.7-1.2c-.6-1-1.1-2-1.6-3a69 69 0 0 1-7.9-26.7c-.2-2.1-.3-4.2-.3-6.4v-.4c13.3-2.7 25.6-7.4 32.7-20.2a90.1 90.1 0 0 1 10.1-14h.1c11.3-13.2 26.9-22.2 43.4-14.8a35 35 0 0 1 17 16.3 37.2 37.2 0 0 1 3.2 9.2c.6 3.2.9 2.9.5 6.8z" fill="#ff7867"></path><path d="M87.4 101.8a7.5 7.5 0 0 0 7.8 7.1 7.5 7.5 0 0 0-.7-14.9 7.5 7.5 0 0 0-7.1 7.8z" fill="#ffcec8"></path><path d="M79.5 134c2.8 22 17.6 36.4 34.6 35.5s29.1-15 30.6-36a43.7 43.7 0 0 0-7.2-.6h-12.1l-42.9 1z" fill="#ffcec8"></path><path d="M125.4 121.4s-10.4.5-18.1-5.2c0 0 3.6 8.7 18.3 9.8z" fill="#ff9d91"></path><g fill="#ac9af0"><path d="M47.8 144.9a.9.9 0 0 1 .1.5l-.2-.4z"></path><path d="M54.8 153.3c-1-1-2-2-2.9-3.1a6.4 6.4 0 0 0 2.8.6z"></path></g><path d="M110.8 170.4c-16.6-.9-29.6-15.1-32.1-35.6a.8.8 0 0 1 .8-1 1 1 0 0 1 1.1.8c2.5 20.9 16.3 34.9 33.5 34a28.8 28.8 0 0 0 21.2-11.1 40.4 40.4 0 0 0 2.8-4 43.6 43.6 0 0 0 5.6-19.2.9.9 0 0 1 1-.9 1 1 0 0 1 .9 1 46.4 46.4 0 0 1-5.9 20.1 44.3 44.3 0 0 1-2.9 4.2 30.3 30.3 0 0 1-22.6 11.7z" fill="#fff"></path><path d="M79.7 169.6h-.3l-3.1-1.3a73.4 73.4 0 0 1-9.6-5.2 64.2 64.2 0 0 1-5.3-3.8 73.2 73.2 0 0 1-6.6-5.9c-1-1-2-2-2.9-3.1a6.5 6.5 0 0 1-3.8-4.1c-.1-.2-.1-.5-.2-.7l-.2-.4-.8-1a40.4 40.4 0 0 1 15.4-7.6 42.7 42.7 0 0 1 6.4-1.5h2.8l1.1.2a14.1 14.1 0 0 1 2.7.9h.1z" fill="#ff9e70"></path><path d="M80.7 91.5l-3.8-15.6a33.1 33.1 0 0 1 13.4-34.8l1 1.5a31.2 31.2 0 0 0-12.6 32.8L82.5 91z" fill="#545ed7"></path><path d="M85.6 80.9a16.9 16.9 0 0 0 9.9 32.3z" fill="#ff9e70"></path><path d="M100.1 117.1a3 3 0 0 1-4-1.4 96.7 96.7 0 0 1-11.2-35.5 2.6 2.6 0 0 1 2.4-3 2.9 2.9 0 0 1 3 2.5 92.4 92.4 0 0 0 10.7 33.5 2.8 2.8 0 0 1-.9 3.9z" fill="#545ed7"></path><path d="M80.3 56.7a3.1 3.1 0 0 1-1.3-.3 2.7 2.7 0 0 1-1.2-3.7 34.7 34.7 0 0 1 11.6-13.3 39.2 39.2 0 0 1 5.3-2.9l1.2-.5a38.6 38.6 0 0 1 4.8-1.6 34.9 34.9 0 0 1 29 6 2.8 2.8 0 0 1-3.3 4.5 29.2 29.2 0 0 0-24.4-5.1l-4.1 1.3-.9.5a20.6 20.6 0 0 0-4.4 2.4 28.6 28.6 0 0 0-9.8 11.2 2.7 2.7 0 0 1-2.5 1.5z" fill="#ff9e70"></path><path d="M108.2 312.8l22.4-29.9H79.1l22.5 29.9a4.1 4.1 0 0 0 6.6 0z" fill="#bfc3ff"></path></g><g><path d="M403.9 700.5h-.2l-180-65.5a.6.6 0 0 1-.3-.7.5.5 0 0 1 .7-.3l180 65.5a.5.5 0 0 1 .3.7.5.5 0 0 1-.5.3z" fill="#ff9e70"></path><path d="M211.5 700.5c-.3 0-.5-.1-.5-.3a.5.5 0 0 1 .3-.7l87.9-32a.5.5 0 0 1 .4 1l-88 32z" fill="#545ed7"></path><path d="M316.5 662.3c-.3 0-.5-.1-.5-.3a.5.5 0 0 1 .3-.7l75-27.3a.5.5 0 0 1 .7.3.6.6 0 0 1-.4.7l-75 27.3z" fill="#545ed7"></path><path d="M435.1 831.5a5.4 5.4 0 0 1-5.3-4.4l-60.1-326h21.4l49.3 324.2a5.3 5.3 0 0 1-4.4 6.1zm-63.2-328.6l59.8 323.9a3.4 3.4 0 0 0 4 2.8 3.5 3.5 0 0 0 2.9-4l-49.1-322.7z" fill="#545ed7"></path><path d="M180.1 831.5h-.9a5.4 5.4 0 0 1-4.4-6.1l49.4-324.2h21.3l-.2 1.1-59.9 324.8a5.4 5.4 0 0 1-5.3 4.4zm45.7-328.6l-49.1 322.7a3.4 3.4 0 0 0 2.8 4 3.6 3.6 0 0 0 4.1-2.8l59.7-323.9z" fill="#545ed7"></path><path d="M154.3 513.8h328.4a17.4 17.4 0 0 0 17.4-17.4H136.9a17.4 17.4 0 0 0 17.4 17.4z" fill="#ff9d5a"></path><g><path d="M342.8 485.3H180.2L157 397.4a5.6 5.6 0 0 1 5.6-7h150.6a5.6 5.6 0 0 1 5.6 4.2z" fill="#545ed7"></path><rect x="178.6" y="483.7" width="222.8" height="13.21" rx="5.9" fill="#545ed7"></rect><path d="M298 485H185.4a1.3 1.3 0 0 1 0-2.6H298a1.3 1.3 0 0 1 0 2.6z" fill="#fff"></path></g><g><path d="M430.9 480h-1.5a31.7 31.7 0 0 1-31.6-31.6v-.9h10.3v1.7h-8.6a30 30 0 0 0 29.9 29.1h1.5a30 30 0 0 0 30-29.1h-8.7v-1.7h10.4v.9a31.7 31.7 0 0 1-31.7 31.6z" fill="#545ed7"></path><path d="M408.1 427.6h44.1v20.7a21.3 21.3 0 0 1-21.3 21.3h-1.5a21.3 21.3 0 0 1-21.3-21.3v-20.7z" fill="#545ed7"></path><path d="M430.2 378.4a18 18 0 0 1 18 18.1v31.1h-36.1v-31.1a18.1 18.1 0 0 1 18.1-18.1z" fill="#ff7867"></path><path d="M417.4 427.6c-.1-9.4-.2-18.8-.2-28.2v-7.1a12.8 12.8 0 0 1 1.4-6.9 12.9 12.9 0 0 1 23.2 0 15 15 0 0 1 1.4 6.9v7.1c0 9.4 0 18.8-.2 28.2-.1-9.4-.1-18.8-.1-28.2v-7.1a13 13 0 0 0-1.3-6.7 12.7 12.7 0 0 0-11.2-6.9 12.5 12.5 0 0 0-11.2 6.9 13.1 13.1 0 0 0-1.4 6.7v7.1c-.2 9.4-.3 18.8-.4 28.2z" fill="#fff"></path><path d="M422.9 427.6c-.1-8.7-.2-17.4-.2-26.2v-6.5a48.5 48.5 0 0 1 .2-6.6 17.2 17.2 0 0 1 2-6.3c1-1.9 2.8-3.8 5.3-3.8s4.2 1.9 5.3 3.8a17.2 17.2 0 0 1 2 6.3 48.5 48.5 0 0 1 .1 6.6v6.5c0 8.8-.1 17.5-.2 26.2-.1-8.7-.1-17.4-.2-26.2v-6.5a48.5 48.5 0 0 0-.2-6.6 16.9 16.9 0 0 0-2-6.1c-1-1.8-2.7-3.5-4.8-3.5s-3.8 1.7-4.9 3.5a16.9 16.9 0 0 0-2 6.1c-.3 2.2-.1 4.4-.2 6.6v6.5c0 8.8-.1 17.5-.2 26.2z" fill="#fff"></path><path d="M422.9 427.6c-.1-8.7-.2-17.4-.2-26.2v-6.5a48.5 48.5 0 0 1 .2-6.6 17.2 17.2 0 0 1 2-6.3c1-1.9 2.8-3.8 5.3-3.8s4.2 1.9 5.3 3.8a17.2 17.2 0 0 1 2 6.3 48.5 48.5 0 0 1 .1 6.6v6.5c0 8.8-.1 17.5-.2 26.2-.1-8.7-.1-17.4-.2-26.2v-6.5a48.5 48.5 0 0 0-.2-6.6 16.9 16.9 0 0 0-2-6.1c-1-1.8-2.7-3.5-4.8-3.5s-3.8 1.7-4.9 3.5a16.9 16.9 0 0 0-2 6.1c-.3 2.2-.1 4.4-.2 6.6v6.5c0 8.8-.1 17.5-.2 26.2z" fill="#fff"></path><path d="M441.4 496.6H419v-.8a10.7 10.7 0 0 1 10.6-10.7h1.1a10.7 10.7 0 0 1 10.7 10.7zm-20.7-1.7h19a9 9 0 0 0-9-8.1h-1.1a9 9 0 0 0-8.9 8.1z" fill="#545ed7"></path><path fill="#545ed7" d="M429.9 479.2h1.7v6.75h-1.7z"></path><path d="M434.6 457.5a3.9 3.9 0 1 1-3.9-3.8 3.9 3.9 0 0 1 3.9 3.8z" fill="#fff"></path><path d="M430.2 378.5c.2 8.1.1 16.3.2 24.5s0 16.4-.2 24.6c-.2-8.2-.2-16.4-.2-24.6s0-16.4.2-24.5z" fill="#fff"></path><path d="M412.1 423.5c6-.3 12-.2 18.1-.3s12 0 18 .3l-18 .3c-6.1-.1-12.1-.1-18.1-.3z" fill="#fff"></path><path d="M412.1 416.1c6-.3 12-.2 18.1-.3s12 0 18 .3c-6 .2-12 .2-18 .3s-12.1-.1-18.1-.3z" fill="#fff"></path><path d="M412.1 408.7c6-.3 12-.2 18.1-.3s12 0 18 .3l-18 .3c-6.1-.1-12.1-.1-18.1-.3z" fill="#fff"></path><path d="M412.1 401.3c6-.3 12-.2 18.1-.3s12 0 18 .3l-18 .3c-6.1-.1-12.1-.1-18.1-.3z" fill="#fff"></path><path d="M412.1 393.9c6-.3 12-.2 18.1-.3s12 0 18 .3c-6 .2-12 .2-18 .3s-12.1-.1-18.1-.3z" fill="#fff"></path><path d="M412.1 386.5c6-.3 12-.2 18.1-.3s12 0 18 .3l-18 .3c-6.1-.1-12.1-.1-18.1-.3z" fill="#fff"></path></g></g><g><rect x="248.8" y="64.3" width="209.7" height="284.93" rx="13.6" fill="#bfc3ff"></rect><path d="M424.9 167.6a70.7 70.7 0 0 1-11.2 38.3l-2.3 3.3a55.2 55.2 0 0 1-4.3 5.3 70.6 70.6 0 0 1-53.2 24.1 71.7 71.7 0 0 1-30.4-6.8c-2.2-1.1-4.4-2.2-6.5-3.5a72.7 72.7 0 0 1-23-22.5l-.6-1a71 71 0 1 1 131.5-37.2z" fill="#fff"></path><g fill="#fff"><path d="M428.2 265.7H281.1a1.1 1.1 0 0 1 0-2.2h147.1a1.1 1.1 0 0 1 0 2.2z"></path><path d="M391.6 286.2H281.1a1.1 1.1 0 0 1 0-2.2h110.5a1.1 1.1 0 0 1 0 2.2z"></path><path d="M391.6 306.7H281.1a1.1 1.1 0 0 1 0-2.2h110.5a1.1 1.1 0 0 1 0 2.2z"></path></g><path d="M388.3 145.6c10.2.8 18.7 9.5 17.9 19.7s-11 18-21.2 17.4z" fill="#ff7867"></path><path d="M385.7 186.7a3.1 3.1 0 0 0 2.5-3.5 103.1 103.1 0 0 1 2.9-38.2 3.1 3.1 0 0 0-2.1-3.8 3.1 3.1 0 0 0-3.8 2.3 108.5 108.5 0 0 0-3 40.4 3.1 3.1 0 0 0 3.5 2.8z" fill="#545ed7"></path><path d="M407.1 214.5a70.6 70.6 0 0 1-53.2 24.1 71.7 71.7 0 0 1-30.4-6.8c-2.2-1.1-4.4-2.2-6.5-3.5a72.7 72.7 0 0 1-23-22.5 23.6 23.6 0 0 1 5.3-.3l29.7.2h1.3l1.3.2 6 .5 31 2.9 6 .5h2.6z" fill="#ff7867"></path><path d="M336.5 169.8l.7-9.3 7.6-15.9 20.4-1.4 20 1.9-2.4 19.9-.7 11.6a20.9 20.9 0 0 1-13.8 18.3l.4 15.8h-31.1l-.2-25.6z" fill="#ffcec8"></path><path d="M330.3 205.7a23.8 23.8 0 0 0 45.6 4.2z" fill="#ffcec8"></path><path d="M348.9 225.9a25.1 25.1 0 0 0 28.2-15.5 1.2 1.2 0 0 0-.7-1.7 1.4 1.4 0 0 0-1.7.7 22.6 22.6 0 0 1-43.2-3.9 1.2 1.2 0 0 0-1.5-1 1.3 1.3 0 0 0-1 1.5 25.2 25.2 0 0 0 19.9 19.9z" fill="#fff"></path><path d="M329.4 176.6a7.8 7.8 0 0 0 7 8.5h1v-15.4a7.7 7.7 0 0 0-8 6.9z" fill="#ffcec8"></path><path d="M323.4 150.2c-4.7-14.9 6.4-9.9 6.4-9.9s-3.2-11.4 8.7-19.5a20.6 20.6 0 0 1 18-2.6 18.2 18.2 0 0 1 12.3 14.4s10.5-7.7 16.4 1.8c3.9 6.2.4 13.8.4 13.8s-6.9 17.4-26 14.5a9.7 9.7 0 0 1-5.2-5.6c-1.5-4.2-10.8-6.2-13.5 1.8 0 0-3.8 11.2-4.8 11.3a6.5 6.5 0 0 0-2.8.8 9.5 9.5 0 0 0-1.6 1.2z" fill="#464646"></path><path d="M368.3 194.9s-8.6 2.3-19-5.7c0 0 2.1 9.7 19.2 12.6z" fill="#ff9d91"></path><path d="M345.2 110.1l-3.5-7.8a38.3 38.3 0 0 1 6.5-2.2l1.4-.4 1.8 8.4-1.1.2z" fill="#545ed7"></path><path d="M322.5 158.6l-1.2-17.7a37 37 0 0 1 21.4-35.9l1.2 2.6a34 34 0 0 0-19.7 33.1l1.2 17.7z" fill="#ff7867"></path><path d="M393 153.9l-1.2-17.7a33.9 33.9 0 0 0-36.1-31.6 26.3 26.3 0 0 0-4.9.7l-.6-2.8a30.7 30.7 0 0 1 5.3-.7 36.7 36.7 0 0 1 39.1 34.2l1.2 17.7z" fill="#ff7867"></path><path d="M332.9 120.1l-6.8-5.1a39.4 39.4 0 0 1 15.6-12.7l3.5 7.8a32.2 32.2 0 0 0-12.3 10z" fill="#545ed7"></path><path d="M380.6 117.1a30.9 30.9 0 0 0-24.7-9.6 34.7 34.7 0 0 0-4.5.6l-1.8-8.4a54 54 0 0 1 5.8-.8 39.3 39.3 0 0 1 31.4 12.4z" fill="#545ed7"></path><path d="M330.9 148.7a18.7 18.7 0 0 0 2.5 37.3z" fill="#ff7867"></path><path d="M333.2 190.5a3.1 3.1 0 0 1-2.6-3.5 105.8 105.8 0 0 0-2.4-38.1 3.2 3.2 0 0 1 2.2-3.8 3.1 3.1 0 0 1 3.7 2.3 115.8 115.8 0 0 1 2.6 40.3 3.1 3.1 0 0 1-3.5 2.8z" fill="#545ed7"></path><path d="M356.9 377.1l22.5-29.9h-51.5l22.4 29.9a4.1 4.1 0 0 0 6.6 0z" fill="#bfc3ff"></path></g><g><path d="M872.5 831.7H734a1.1 1.1 0 0 1 0-2.2h138.5a54.6 54.6 0 0 0 53.4-66l-39.6-185.8a1.3 1.3 0 0 1 .9-1.4 1.1 1.1 0 0 1 1.3.9L928.1 763a56.9 56.9 0 0 1-55.6 68.7z" fill="#ff9e70"></path><path d="M899.9 577.4s77.7-105 23.3-198.7l-47.9 25.6-39.7 107.1 22.1 66z" fill="#ff9e70"></path><path d="M884.4 593H754.7l5.1-15.6h140.1a15.5 15.5 0 0 1-15.5 15.6z" fill="#464646"></path><path d="M923.9 390.4a34.5 34.5 0 0 1-13.4 3.8l2.1-8.6a16.1 16.1 0 0 1 11.3 4.8z" fill="#464646"></path><path d="M766.8 211.9l-2.2-.2L766 193a38.4 38.4 0 0 1 41.1-35.4 32.8 32.8 0 0 1 5.6.8l-.5 2.2a29.7 29.7 0 0 0-5.2-.8 36.2 36.2 0 0 0-38.8 33.4z" fill="#ff7867"></path><path d="M776 198.6a21.3 21.3 0 0 0-3.2 42.4z" fill="#ff7867"></path><path d="M674.4 358.8a18.8 18.8 0 0 0 9.4 5.5l.8-7.4a12.1 12.1 0 0 0-10.2 1.9z" fill="#464646"></path><path d="M684.2 334.8l-6.9 44.2-56.1-53.1-17.2 11.3 51.2 81.2a42.9 42.9 0 0 0 45.5 17.2l13.1-3.3 5.1-87.4z" fill="#ffcec8"></path><path d="M783.5 254.8s-18.3-.1-17-19.9 7-40.8 7-40.8l56.8 9.5-5.4 64.3-43.1-2z" fill="#ffcec8"></path><path d="M820.9 220.2a17.7 17.7 0 0 0 .2-3.7 7.9 7.9 0 0 0-13.4-5.5l-3.6 3.5c-8 8.3-15.4.2-14.1-5.9a5.7 5.7 0 0 0-.9-4.6 4.6 4.6 0 0 0-5.3-2 7.4 7.4 0 0 0-4.7 3.2c-.9 1.4-3.3 3.5-9.2 4.8l-2.5 15s-15 6.6-18.1-13.1a10.7 10.7 0 0 1 1.2-7.2c2.2-3.7 5-3.3 7.9-4.2a7.1 7.1 0 0 0 4.5-5.4 15.8 15.8 0 0 0-.5-5.7 23.2 23.2 0 0 1-.6-4.5c.2-4.3 4-7.9 8.1-8.7 2.1-.5 4.4-.3 6.3-1.4a5.9 5.9 0 0 0 2.7-5.1c-.1-1.4-.6-2.7-.4-4s3.5-4.1 5.8-4.2 5.4 1.9 6.8 4.2 1.6 4 2.6 5.8 1.3 1.6 2.2 1.5a3 3 0 0 0 1.1-.6 50.2 50.2 0 0 0 4.3-4.9c1.5-1.6 3.4-3.1 5.5-3.2 5.6-.4 5.9 8.6 7 12.4a5.5 5.5 0 0 0 1.7 2.7 3.6 3.6 0 0 0 3.2 0c4.9-1.9 9-5.6 14.1-6.8s11.2 1.3 15 6c8.8 10.4 1.1 20.8-3.4 25.3s-1.9 9.8 3 10.7h.2c7.1 1.2 16 7.2 8.3 18.9s-29.2 13.1-29.2 13.1l2.1-25.4z" fill="#464646"></path><path d="M822 230.3a9 9 0 0 0 9.7 8.3 9.1 9.1 0 0 0-1.6-18.2 9.1 9.1 0 0 0-8.1 9.9z" fill="#ffcec8"></path><path d="M674.4 358.8c4.3-2.4 9.7-2.5 14.6-1.2s11 4.7 16.4 7.1a16.5 16.5 0 0 0 7.1 2 12.8 12.8 0 0 0 3.4-.6l-22.7 132.4L877.4 514l-.6-64.5-18.9-63.4.3-3.8c5.2-.8 10.9 1 15.8 3.2 6.6 2.9 13.4 6.6 20.6 6s8.5-5.4 15.9-5.9a18 18 0 0 1 13.4 4.8s-1.8-13.4-4-28.8c-1-6.8-2.1-13.9-3.1-20.4-1.8-11.5-3.4-21.1-4.2-23.6-4.1-13.1-11.8-25.1-23.1-33.3l-2.3-1.7a53.9 53.9 0 0 0-10.5-6.1c-5.6-2.5-11.4-4-18.4-5.6l-4.9-.8L834 267l-7.2-.8-45.9-1.9-9.3.2-26.2.5c-17.1 1-24.6 4.7-37.2 15.9l-1.5 1.4c-4.6 4.1-10.5 16.5-16.1 30.4-3 7.5-5.8 15.3-8.4 22.6-3.5 10-6.3 18.8-7.8 23.5z" fill="#545ed7"></path><path d="M858.4 381.3h-.1a1.2 1.2 0 0 1-1.1-1.2l5.1-64.2a1.1 1.1 0 0 1 2.2.2l-5 64.1a1.3 1.3 0 0 1-1.1 1.1z" fill="#3944c7"></path><path d="M716.2 365h-.2a1 1 0 0 1-.9-1.2l9-59.4a1.2 1.2 0 0 1 1.2-1 1.1 1.1 0 0 1 1 1.3l-9 59.4a1.2 1.2 0 0 1-1.1.9z" fill="#3944c7"></path><path d="M771.8 267.9a31.2 31.2 0 0 0 62.2-.9l-7.2-.8-45.9-1.9-9.3.2a19.4 19.4 0 0 0 .2 3.4z" fill="#ffcec8"></path><path d="M802.8 297.7a32.5 32.5 0 0 1-32.2-29.7c-.1-1.3-.1-2.4-.1-3.5h2.2c0 1 .1 2.1.2 3.3a30.1 30.1 0 0 0 10.7 20.6 29.6 29.6 0 0 0 21.9 6.9 30.3 30.3 0 0 0 27.4-28.4h2.2a32.5 32.5 0 0 1-29.4 30.5z" fill="#fff"></path><path d="M531.8 795.5s7.4-.6 12 8.6 12.8 10.4 12.8 10.4H569v-57.7l-37.2.4z" fill="#ffcec8"></path><path d="M520.4 795.9a15.2 15.2 0 0 1-1.9 6.8l-.3.5h-.6c-.2-.1-6.3-1.4-8.2-5.8a11.7 11.7 0 0 1-1.1-6.2 5.1 5.1 0 0 1 2.6-4.2c2.9-1.3 6.8 1.2 8.8 5.7a7.8 7.8 0 0 1 .7 3.2zm-3 5.4c.6-1.4 2.1-5.1.8-8s-4.6-5.8-6.6-4.9a3.6 3.6 0 0 0-1.7 2.9 10.4 10.4 0 0 0 1 5.3c1.2 2.9 5 4.3 6.5 4.7z" fill="#545ed7"></path><path d="M481 823.4h88v-15.8c-.8 3-7.2 4.3-11.3 5a12.6 12.6 0 0 1-12.4-5.6 13.2 13.2 0 0 1-1.5-2.9c-4.3-9.8-12-8.6-12-8.6a5.8 5.8 0 0 1-1.4.9l-1.2.8-4.3 2.1a3.5 3.5 0 0 1-1.4.6c-1.5.7-3.2 1.3-5.1 2l-1.4.5h-.1a125.7 125.7 0 0 1-21.5 4.8 16.2 16.2 0 0 0-3.5 1l-1.9.7a15.3 15.3 0 0 0-9 14.5z" fill="#545ed7"></path><path d="M517.9 802.3a.9.9 0 0 1-.8.8H501a.9.9 0 0 1-.8-.8.9.9 0 0 1 .8-.9h16.1a.9.9 0 0 1 .8.9z" fill="#545ed7"></path><g fill="#fff"><path d="M522.5 811.2h-.3a.8.8 0 0 1-.7-.4l-4.5-8.4 1.4-.5 4.4 8.2a.8.8 0 0 1-.3 1.1z"></path><path d="M529.1 808.8h-.3a1 1 0 0 1-.7-.4l-4.6-8.5a6.1 6.1 0 0 0 1.4-.7l4.5 8.4a.8.8 0 0 1-.3 1.2z"></path><path d="M534.9 806.2h-.4a.8.8 0 0 1-.7-.4l-4.6-8.7a6.2 6.2 0 0 0 1.2-.8l4.8 8.8a.8.8 0 0 1-.3 1.1z"></path></g><path d="M629.6 792.1s7.3 1.5 9 11.7 9.2 13.7 9.2 13.7l12 3.6 16.6-55.2-35.8-10.5z" fill="#ffcec8"></path><path d="M618.6 789.1a14 14 0 0 1-3.8 5.9l-.4.5-.5-.3c-.3-.2-5.7-3.2-6.3-8a11.3 11.3 0 0 1 .8-6.2 5 5 0 0 1 3.7-3.3c3.2-.4 6.2 3.2 6.8 8.1a9.1 9.1 0 0 1-.3 3.3zm-4.5 4.3c1.1-1.2 3.5-4.3 3.1-7.4s-2.7-6.9-4.9-6.6a3.4 3.4 0 0 0-2.4 2.3 9.1 9.1 0 0 0-.6 5.3c.4 3.1 3.5 5.5 4.8 6.4z" fill="#545ed7"></path><path d="M572.9 803.9l84.3 25.8 4.6-15.2c-1.7 2.6-8.2 2.1-12.3 1.4a12.5 12.5 0 0 1-10.3-8.9 16.5 16.5 0 0 1-.6-3.2c-1.3-10.6-9-11.7-9-11.7l-1.6.4-1.4.4a32.9 32.9 0 0 1-4.6.8l-1.6.2a43.9 43.9 0 0 1-5.4.3h-1.6a128.5 128.5 0 0 1-22-1.7 13.6 13.6 0 0 0-3.6-.1l-2 .2a15.2 15.2 0 0 0-12.9 11.3z" fill="#545ed7"></path><path d="M614.4 794.4a.9.9 0 0 1-1.1.6l-15.3-4.7a.9.9 0 0 1-.6-1 .9.9 0 0 1 1.1-.6l15.3 4.7a.9.9 0 0 1 .6 1z" fill="#545ed7"></path><g fill="#fff"><path d="M616.2 804.3h-.3a.9.9 0 0 1-.6-.6l-1.9-9.4h1.6l1.8 9.2a.8.8 0 0 1-.6.8z"></path><path d="M623.3 803.9c-.2.1-.3.1-.4 0a.5.5 0 0 1-.5-.5l-2-9.5 1.5-.2 1.9 9.4c.1.4-.1.8-.5.8z"></path><path d="M629.5 803.2h-.4a.6.6 0 0 1-.5-.6l-2-9.7 1.5-.4 1.9 9.8a.7.7 0 0 1-.5.9z"></path></g><path d="M723.1 482.1l-153.4-31.9a41.6 41.6 0 0 0-26 3 42.2 42.2 0 0 0-24.2 39l5.3 287.8h48.1l27.6-234.3 72 20.7s48-84.3 50.6-84.3z" fill="#ff7867"></path><path d="M877.4 514a162.5 162.5 0 0 1 1 40.3c-1.3 13.2-7.4 23.1-20.6 23.1H765l-91.8 224-46.4-14.8 43.1-220.2s5.3-27.2 16.2-52.6a55.3 55.3 0 0 1 64.3-31.8z" fill="#ff7867"></path><path d="M671.3 565.5h-.3a1.1 1.1 0 0 1-.7-1.4l14.3-48.4a41 41 0 0 1 3.6-8.8c5.9-10.7 16.6-19.1 30.7-24.3l3.8-1.5a1.2 1.2 0 0 1 1.5.7 1.1 1.1 0 0 1-.7 1.4l-3.8 1.4c-13.7 5.1-23.9 13.2-29.5 23.3a38.5 38.5 0 0 0-3.4 8.5l-14.4 48.4a1.1 1.1 0 0 1-1.1.7z" fill="#d95b4a"></path><path d="M765.8 577.1h-.5a1 1 0 0 1-.5-1.4l13.5-30.5a1.2 1.2 0 0 1 1.5-.6 1.1 1.1 0 0 1 .5 1.5l-13.5 30.5a1.1 1.1 0 0 1-1 .5z" fill="#d95b4a"></path><path d="M783.5 254.8s11.7 1.9 25.8-4.4c0 0-10.8 11.2-26.6 9.8z" fill="#ff9d91"></path><path d="M726.9 358.5a2.2 2.2 0 0 0 .8 2.8l16.6 12.2-23.8-7.8a2.2 2.2 0 0 0-2.8 1.4 2.4 2.4 0 0 0 1.4 2.9h.2a1.7 1.7 0 0 0-1.8 1.1 2 2 0 0 0 .6 2.3l22.1 11.7-18-.8c-1.1 0-1.8.3-2 1.3v.7a2.1 2.1 0 0 0 1.7 1.7l40.9 13.8 12.8-15.6a99.3 99.3 0 0 0-6-9.1c-4-5.5-10.6-21.3-10.6-21.3a4.9 4.9 0 0 0-3 5.5l.5 10.4-26.4-14.4a2.3 2.3 0 0 0-3.2 1.2z" fill="#ffcec8"></path><path d="M742.2 379h-.2l-22.9-8.5a.5.5 0 0 1-.2-.6c.1-.2.3-.4.5-.3l22.9 8.6a.5.5 0 0 1 .3.6z" fill="#ff9c91"></path><path d="M597.1 328.8l-10.8-14.3a3.7 3.7 0 0 1 .8-2.9 3.3 3.3 0 0 1 3.7-.8l-.8-1.1a3 3 0 0 1 .9-3.2 3.2 3.2 0 0 1 3-.4c-.6-.7 1.2 1.5.6.7a2.9 2.9 0 0 1-.5-3 2.7 2.7 0 0 1 .6-1 3.5 3.5 0 0 1 4.1-.7c-1.9-2.8-6.3-8.4-8.2-11.2a2.4 2.4 0 0 1 .1-2.7 2 2 0 0 1 3.2-.1l19.9 19.8 4-13.6a4.3 4.3 0 0 1 5.8-2.8l-2.3 34.4 6.2 6.2-15.9 14.4z" fill="#ffcec8"></path><path d="M599.7 311.8a3.7 3.7 0 0 1-2.9-1.3l-3.3-4.1c-.1-.2-.1-.5.1-.6a.4.4 0 0 1 .6.1l3.3 4a2.7 2.7 0 0 0 3.6.6 2.7 2.7 0 0 0 .7-4.1l-3.4-4a.4.4 0 0 1 .1-.6c.1-.2.4-.2.6 0l3.3 4a3.4 3.4 0 0 1 .8 2.9 3.3 3.3 0 0 1-1.6 2.5 3.5 3.5 0 0 1-1.9.6z" fill="#ff9c91"></path><path d="M595.3 315.4h-.3a3.2 3.2 0 0 1-2.2-1.2l-1.5-1.9a.5.5 0 0 1 .1-.6c.2-.1.5-.1.6.1l1.5 1.8a2.6 2.6 0 0 0 1.6.9 2.3 2.3 0 0 0 1.6-.6 2.2 2.2 0 0 0 .3-3.2l-1.2-1.4a.6.6 0 0 1 .1-.7c.2-.1.5-.1.6.1l1.2 1.5a3.2 3.2 0 0 1-2.4 5.2z" fill="#ff9c91"></path><path d="M590.9 318.6h-.3a3.6 3.6 0 0 1-2.2-1.1l-1.5-1.9c-.1-.2-.1-.5.1-.6a.5.5 0 0 1 .6 0l1.5 1.9a2.1 2.1 0 0 0 1.6.8 1.8 1.8 0 0 0 1.6-.5 2.2 2.2 0 0 0 .3-3.2l-1.2-1.5a.5.5 0 0 1 .1-.6.4.4 0 0 1 .6.1l1.2 1.5a3.2 3.2 0 0 1-.4 4.4 3.1 3.1 0 0 1-2 .7z" fill="#ff9c91"></path><path d="M524.4 762.1z" fill="#fff"></path><g fill="#bbbdfa"><path d="M900 353.6l4.4 7.6a5.4 5.4 0 0 0 5.8 2.6l8.5-1.8 1.2-.4c-1-6.8-2.1-13.9-3.1-20.4l-4-1.8a5.4 5.4 0 0 0-6.3 1.3l-5.8 6.5a5.6 5.6 0 0 0-.7 6.4z"></path><path d="M853.6 272.9l3 8.3a5.6 5.6 0 0 0 5.3 3.6l8.7-.4a5.2 5.2 0 0 0 5-3.9l1.1-4c-5.6-2.5-11.4-4-18.4-5.6l-4.9-.8a5.4 5.4 0 0 0 .2 2.8z"></path><path d="M835.6 395.4l-.9 8.8a5.5 5.5 0 0 1-4.3 4.7l-8.5 1.8a5.3 5.3 0 0 1-5.8-2.6l-4.4-7.6a5.4 5.4 0 0 1 .7-6.3l5.8-6.6a5.5 5.5 0 0 1 6.3-1.3l7.9 3.6a5.2 5.2 0 0 1 3.2 5.5z"></path><path d="M733 452.2l-1 8.8a5.3 5.3 0 0 1-4.2 4.8l-8.5 1.8a5.6 5.6 0 0 1-5.9-2.6l-4.3-7.6a5.6 5.6 0 0 1 .6-6.4l5.9-6.5a5.4 5.4 0 0 1 6.3-1.3l7.9 3.5a5.6 5.6 0 0 1 3.2 5.5z"></path><path d="M809.2 496.8l23.6 6 1-6.8a5.4 5.4 0 0 0-2.9-5.7l-7.8-4a5.5 5.5 0 0 0-6.2 1l-6.2 6.2a5.3 5.3 0 0 0-1.5 3.3z"></path><path d="M682.2 335.3l5.8 1a5.4 5.4 0 0 0 5.8-2.7l4.1-7.7a5.4 5.4 0 0 0-.8-6.4l-6-6.4-.5-.4c-3 7.5-5.8 15.3-8.4 22.6z"></path><path d="M777.3 340.2l-6-6.4a5.3 5.3 0 0 1-.8-6.3l4.1-7.7a5.5 5.5 0 0 1 5.8-2.8l8.5 1.6a5.4 5.4 0 0 1 4.4 4.6l1.2 8.8a5.5 5.5 0 0 1-3.1 5.6l-7.8 3.8a5.5 5.5 0 0 1-6.3-1.2z"></path></g><path d="M754.8 399.2c.3 0 4.3 3.3 4.6 3.5l38.9 29.4 20.7 15.4c6.5 4.8 12.4 10.5 19.1 14.9 11.2 7.4 24.9 10.1 37.7 5.8l.9-.3c12-4.3 18.9-15 22.6-26.7l13.3-55.6a7.4 7.4 0 0 0-2.1 0c-7.4.5-8.5 5.3-15.8 5.9s-14-3.1-20.7-6c-4.9-2.2-10.7-3.9-15.8-3.2l-3.8 30.2-81.1-29.9z" fill="#ffcec8"></path><path d="M818.5 165a37.3 37.3 0 0 0-5.6-2l-1.2-.3 1.5-6.5 1.4.4a53 53 0 0 1 6.7 2.3z" fill="#545ed7"></path><path d="M841.2 217.4l-2.2-.2 1.4-18.7a36.4 36.4 0 0 0-20.8-35.4l1-2a38.6 38.6 0 0 1 22 37.6z" fill="#ff7867"></path><path d="M831.8 176a34.7 34.7 0 0 0-13.3-11l2.8-6.1a41.8 41.8 0 0 1 16 13.2z" fill="#545ed7"></path><path d="M779.8 172.4l-4.9-4.6a40.4 40.4 0 0 1 32.4-12.4 38.1 38.1 0 0 1 5.9.8l-1.5 6.5a38.5 38.5 0 0 0-4.9-.7 34.1 34.1 0 0 0-27 10.4z" fill="#545ed7"></path><path d="M832.8 203.4a21.1 21.1 0 0 1 19.4 22.7 21.4 21.4 0 0 1-22.6 19.7z" fill="#ff7867"></path><path d="M825.9 249.6a3.5 3.5 0 0 0 3.7-3.2l3.1-42.8a3.3 3.3 0 0 0-3.1-3.7 3.3 3.3 0 0 0-3.7 3.1l-3.2 42.9a3.5 3.5 0 0 0 3.2 3.7z" fill="#545ed7"></path><path fill="#fff" d="M631.777 760.669l.752-2.068 49.785 18.12-.752 2.068z"></path><path fill="#fff" d="M524.3 752.1h51.8v2.23h-51.8z"></path></g></g></g></svg>