<svg xmlns="http://www.w3.org/2000/svg" width="1080" height="397.3" viewBox="0.016908764839172363 0.007065534591674805 1079.951171875 397.27001953125" style=""><g><title>sm56_316644278</title><g data-name="Layer 2"><path d="M283 5.1c-16.5-.7-37.8-4.9-40.6 15.8s-10.8 39-16.6 57.7-12 39.2-17.7 58.9c-10.6 37.1-18.6 75-28.9 112.2-2.9 10.3-5.5 20.6-8.1 31-6.8-10.4-9-23.4-12.7-35.1-4.6-14.9-11.5-29.4-16.3-44.3-9.6-29.7-16.2-59.9-23.1-90.2-3.5-15.6-8.6-30.5-13.8-45.3-3.8-21-9.1-52.3-27.8-54.6-13.6-1.7-30.5-.8-43.9 1.8-5.1.9-12 .7-17.9 2.1S4.8 17.3 1.5 23C-4.4 33.1 9 56.2 12.1 64.8c8.4 23.7 16.7 47.4 24.4 71.3 25.7 80.1 46.2 160.2 90.2 232.8 5.2 8.6 25.7 38.9 39.4 24.6 9.3-9.8 14.7-25 19.8-37.1 9.3-22.4 20.3-43.9 29.2-66.4 18.1-45.3 34.3-90.6 45-138.1S274.8 57 287.7 11.2a4.9 4.9 0 0 0-4.7-6.1zM165.5 303.5c-.7 2.9-3.4 17.5-6.3 14.7s-5.5-7.6-7.6-11.5c-19.9-35.5-31.2-78.3-43.1-117.1-11-35.9-16.9-72.6-25.4-109.1-4.2-18-8.9-41.6-21.4-57 9.9-.9 19.1-.5 23 12.6 3.3 11.5 8.7 22.3 12.7 33.6 9.4 26.6 14.3 54.9 20.5 82.4a616.3 616.3 0 0 0 25.6 84c5.6 14.5 8.8 31.3 16.3 45.2.5 1.8 1 3.6 1.6 5.4 1.4 4.5 3.2 8.8 5 13.1z" fill="#fff"></path><path d="M501.4 346.4c-16.2-8.2-42.1-9.2-60-9.2-12.3-.1-24-1.5-36.2-2.5a80.3 80.3 0 0 1-13.3-2.7c.5-24.4-2.3-49-2.3-73.4 0-36.1-2.3-72.1-3-108.1-.7-34.1 1.4-68.2-.7-102.3-.2-3.3-.4-6.7-.6-9.9V38c3.2-12.8-4.3-26-14.3-33.5A20.2 20.2 0 0 0 358.1.4a3.6 3.6 0 0 0-1.8-.3c-8.2.3-16.2 1.9-24.4 2.4S315.3-1.1 306.1.3a4.5 4.5 0 0 0-3.4 3.4c-3.4 23.3-.2 48.3-.1 71.8s2.8 44.7 4.9 67.1c.3 11 .4 22 .4 33 0 54.3 1.1 108.9 4.2 163.1.8 13.2-.5 27.3 2.5 40.3 2.3 9.5 20.9 8.8 28.1 9.4 21.1 1.6 41.6 6.1 62.9 6.2a211.6 211.6 0 0 0 33.7-2.6c15-2.3 30.5 1.3 45.4-.9 7.2-1.1 26.5-3.7 27.7-13.2 1.6-11.7.7-25.7-11-31.5zm-123.1-16.7a14.5 14.5 0 0 1-5.6-1.2c-1.1-6.2-2.1-12.5-2.7-18.8s-.8-11.4-1.3-17.1a9.7 9.7 0 0 0 .1-1.7c.5-12.5-1.9-25.9-2.2-38.6-.4-15.3-.1-30.7-.5-46.1-1.2-56.4-10.2-112.4-6.9-169 .4-8.1 2.1-15.5 2.4-23.3 24.6 9.4 17.5 60.9 17.4 82.1-.3 29.7-.7 59.2 1 88.9 2.9 48.4 2 96.9 4.2 145.4a38 38 0 0 0-5.9-.6z" fill="#fff"></path><path d="M1079.5 268.2c-4-27-36.3-18.5-55.8-22.7-9.4-2-19.1-.7-28.5-2.6-3.5-.6-7.4-2.4-10.9-.9-9.2 3.8-10.9 10.8-11.4 20.2-.3 7.8-1.3 21.4 7.7 25.7s22-2.4 20.4 13.8c-1.1 11.1-6.3 23.1-12.4 32.2a19.6 19.6 0 0 1-1.8 2.1c-23.2 14.8-48-38.3-52.7-54-7.4-24.4-11.2-51.4-13.2-76.7s-4.5-53.4-2.5-79.7c2.2-29 21-77.7 55.9-79.7h.3c18 7.4 28.4 21.4 41.8 34.7 7.5 7.5 18.7 1.5 26.6-1.7a4.2 4.2 0 0 0 2.1-2.7c2.2-4.3-.4-12-4.5-19.9a80.9 80.9 0 0 0-13.1-20.9c-1.4-1.8-2.4-3.1-3-3.7-12.6-13.7-33.3-21.9-51.2-24.4-15.9-2.3-38.6-5.6-53.4 2.6a73 73 0 0 0-32.5 19.9c-55.9 58.6-51.4 152.5-41.5 226.5 4.9 36.2 13.8 74 39.8 101.2s72.5 41.6 109.9 35.5a46.2 46.2 0 0 0 26.2-14.1c13-6.4 22.4-16.7 29.8-29.5 5.1-8.8 7.8-18.5 9.7-28.4.1-.4.1-.9.2-1.4s.1-.2.2-.4c2.4-5.7 2.6-11.6 3.8-17.7l1.4-6.5c12.1-3.3 14.2-16.1 12.6-26.8zm-147.9 62c-26.9-17.7-28.5-57.9-35.4-86.2-10.1-41.2-15.1-84.8-3-126 9.1-30.7 29.9-78 66.1-75.9-20.4 7.2-35.9 36.1-42.5 53-7.4 18.9-7.4 41.1-6.5 61s1.6 41.7 3.9 62.2c3.7 32.9 8.6 69.2 26 97.9 5.1 8.4 14.4 19.3 24.6 25.5a81.9 81.9 0 0 1-33.2-11.5zm101.9 32.3c6.4-12.4 10.1-26.6 12-39.4 1.1-7.1-.6-14.4-.4-21.6 0-3.3 4.3-4.6 9.1-5.2.2 2.8.4 5.5.5 8.3-1.6 8.7-1.3 19-3.1 26.1-3.1 12.2-9.7 22.8-18.1 31.8z" fill="#fff"></path><path d="M735.2 26.5A260 260 0 0 0 706.5 15C641.9-17.6 559.4 16.6 516 70.3c-17.5 21.6-26.6 45.7-29.8 71.8-4.8 24.2-6.4 50.5-1.8 74.5 3.1 16.2 9.7 32.1 14.1 48.1 3.8 14.4 7.4 29 14.7 42.1 12 21.4 32.7 40.9 54.5 51.6l3.9 1.9A197.1 197.1 0 0 0 616 382c29.4 10.3 55.1 8 84.6 1.3s58-19.1 76.3-41.8 25.8-51.7 30.5-79.6c10-58.9 13.7-125.5-12-181.1-12-25.8-35.1-42.8-60.2-54.3zM546.7 330.1a3.9 3.9 0 0 0-3.1-.6 201.1 201.1 0 0 1-22.9-27.1 49.4 49.4 0 0 1-5.6-10.7l.6-.2c1.4 2 2.9 3.9 4.4 5.8 9.2 11.6 18.1 23.5 28.3 34zm212.2-42.4c-6.1 20.4-19.2 38.1-33.1 53.9a372.2 372.2 0 0 0 33.1-53.9zm-73-61c-9.4 7.2-20.6 11.6-30 18.9-11 8.5-22.4 17.3-34 25-16.4 10.9-19.3-5.7-20.5-18.6 0-2.4 0-4.8-.1-6.8-.9-14.3-1.6-28.5-2.2-42.7-1.1-30.6-3.6-61.6-2.5-92.3.2-4.5-1.2-8.3 4.4-6.3a129.4 129.4 0 0 1 17.9 8.2c12.3 6.6 23.9 14.4 35.7 21.9 20.7 13 37.6 30.8 57 45.7a60.2 60.2 0 0 1 9.4 8.8c10.1 10.6-4.4 16.5-9.8 19.9-8.8 5.6-17 12-25.3 18.3zm111.5 25.7c-3.5 26-10.7 49.5-23.2 72.6s-33.6 32.6-56.2 40.5c20.4-17.5 37-41 47.4-65.5 4.7-11.2 7.3-23.2 8.8-35.5a289.5 289.5 0 0 0 4.1-36c4.9-31.7 3.1-64.8-.4-96-4.2-35.9-14.4-68.4-39.1-93.7 20.4 11.1 36.5 25.8 47.5 47.3 25.4 49.1 18.2 113.8 11.1 166.3z" fill="#eb4343"></path></g></g></svg>