<svg xmlns="http://www.w3.org/2000/svg" width="1038.5" height="1038.5" viewBox="-0.024999618530273438 -0.024999618530273438 1038.4752197265625 1038.4752197265625" style=""><g><title>iconsl217_378303070</title><g data-name="Layer 2"><path d="M7.4 509l101.9.3 244.8.6 132.1.3-84.6-19.1-234-52.7L90 420.9c-12-2.7-24.9-4.4-36.6-8.3l-1.7-.3c-9.6-2.2-5.5-16.9 4.1-14.8l93 21 224.6 50.6 84.8 19.2-48.1-20.7-218.3-93.7-71.6-30.7c-11-4.7-23.7-8.5-34-14.6a9.4 9.4 0 0 0-1.5-.6c-9-3.9-1.2-17.1 7.7-13.2l86.4 37 207.5 89.1 46.8 20.1-16.7-11.6-198.2-137.3c-32.1-22.3-66.3-43.1-97-67.3l-1.5-1c-8-5.6-.4-18.8 7.8-13.2l79.2 54.9L397 417.4l27.1 18.8-3.9-4-179.8-182.3-58.8-59.6c-9.3-9.4-19.6-18.4-28.2-28.6l-1.2-1.2c-6.9-7 3.9-17.8 10.8-10.8l71.8 72.7 171.3 173.8 69.3 70.3-29.9-45.5-132.3-201.4-43.7-66.5c-6.8-10.4-15.2-20.7-20.8-31.7l-1-1.5c-5.4-8.2 7.8-15.9 13.2-7.7q26.4 40.1 52.6 80.1 63.3 96.1 126.4 192.4l44.5 67.7c-5.6-14.1-11.2-28.1-16.9-42.2q-44-110.2-88.1-220.6-14.4-36.2-28.9-72.4c-4.4-11.1-10.7-22.7-13.7-34.3a6.7 6.7 0 0 0-.6-1.5c-3.6-9.2 11.1-13.1 14.7-4.1q17.6 43.7 34.9 87.3l83.8 209.7c7.4 18.7 14.9 37.3 22.3 56-1.8-9.7-3.5-19.5-5.3-29.2Q464.9 282.6 443.2 164c-7-38.5-16.5-77.3-21.2-116.2l-.3-1.7c-1.8-9.6 12.9-13.7 14.7-4q8.7 47.4 17.3 94.8l41.7 227.6 16.2 88.7V49.3c0-13.2-1.1-27 0-40.2V7.4c0-9.9 15.3-9.9 15.3 0v416.7c1.8-9.3 3.7-18.7 5.6-28q23.6-118.7 47.3-237.3c5.2-26 10.3-51.9 15.5-77.9 2.4-12.1 3.7-25.3 7.4-37.1.2-.6.2-1.2.4-1.7 1.9-9.7 16.6-5.6 14.7 4q-9.4 47-18.7 93.8-22.6 113.4-45.2 226.7c-3.8 18.8-7.5 37.6-11.3 56.4l8.1-19.2 91.8-219c14.8-35.2 28.1-71.5 44.4-106a10.1 10.1 0 0 0 .7-1.5c3.7-8.9 18.5-5 14.7 4.1L666 168l-87.4 208.3-40.2 96 41.1-59.9 136.4-198.5c22.1-32.2 42.8-66.5 66.8-97.3l1-1.4c5.5-8.1 18.8-.4 13.2 7.7l-54.6 79.4-130.9 190.6-40.1 58.4 34-33.4 182.6-179.7 60.3-59.2c9.4-9.3 18.4-19.6 28.5-28.1l1.3-1.2c7-6.9 17.8 3.9 10.8 10.8L816 232 641.4 403.8l-76.6 75.3 52.6-34.2 202.1-131.6L886 270c10.3-6.7 20.5-14.9 31.4-20.4l1.5-1c8.2-5.4 15.9 7.9 7.7 13.2l-80.5 52.4-192.3 125.2-95.5 62.2 71.7-29.8 219.4-91 72-29.9c11-4.5 22.6-11 34.2-14.1l1.5-.7c9-3.7 13 11 4 14.8l-86.8 36-208.6 86.5-47.4 19.7 19.3-3.9 236.2-47.8c38.1-7.7 76.7-18.2 115.2-23.3l1.7-.3c9.6-2 13.7 12.7 4.1 14.7l-94 19-225.6 45.6-66.3 13.4h40l256 .7 84.4.2c13.2 0 26.9-1.1 40 .1h1.8c9.8 0 9.8 15.3 0 15.3l-102-.3-244.7-.5h-59.5l19.1 4.3L878.1 583l77.5 17.5c12 2.7 24.9 4.4 36.6 8.3l1.7.3c9.6 2.2 5.5 16.9-4.1 14.8l-93-21-224.6-50.7-56.2-12.7 21.6 9.3 218.3 93.7 71.5 30.7c11.1 4.7 23.7 8.5 34.1 14.6a6.7 6.7 0 0 0 1.5.6c9 3.9 1.2 17.1-7.7 13.2l-86.4-37.1-207.6-89-95.4-41 61.2 42.4 198.2 137.4c32.1 22.3 66.3 43.1 97.1 67.3l1.4.9c8 5.6.4 18.9-7.7 13.2l-79.3-54.9-190.2-131.9-97-67.1 63.6 64.4L793 788.6l58.7 59.6c9.3 9.4 19.7 18.4 28.2 28.5l1.2 1.3c7 7-3.8 17.8-10.8 10.8L798.6 816 627.3 642.3 573 587.2c6.6 10.1 13.2 20.2 19.9 30.3l132.3 201.4 43.7 66.5c6.8 10.3 15.2 20.7 20.8 31.7l1 1.4c5.4 8.3-7.8 16-13.2 7.8q-26.4-40-52.6-80.1-63.3-96.2-126.4-192.4l-44.1-67.1 16.6 41.5q43.9 110.4 88.1 220.7 14.4 36.1 28.9 72.3c4.4 11.1 10.7 22.7 13.7 34.4a9.4 9.4 0 0 0 .6 1.5c3.7 9.1-11.1 13.1-14.7 4l-34.9-87.3Q610.8 769 568.9 664.1l-34.6-86.8 11.4 62.6q21.8 118.5 43.4 237.1c7 38.5 16.5 77.3 21.2 116.2l.3 1.6c1.8 9.7-12.9 13.8-14.7 4.1q-8.7-47.4-17.3-94.8l-41.7-227.6c-3.3-18.4-6.7-36.7-10-55.1v367.8c0 13.2 1.1 26.9 0 40.1a10.8 10.8 0 0 0 0 1.8c0 9.8-15.3 9.8-15.3 0V578.7c-4.1 20.3-8.1 40.6-12.2 61q-23.5 118.5-47.3 237.2c-5.2 26-10.3 52-15.5 77.9-2.4 12.1-3.7 25.4-7.4 37.2-.2.5-.2 1.1-.4 1.6-1.9 9.7-16.6 5.6-14.7-4 6.2-31.3 12.5-62.6 18.7-93.8q22.6-113.4 45.2-226.6l20.1-100.8-25.2 60-91.8 219.1c-14.8 35.2-28.1 71.5-44.5 106l-.6 1.5c-3.7 8.9-18.5 5-14.7-4.1l36.3-86.7L445 655.9l22.2-53.1-14.2 20.7-136.4 198.6c-22.1 32.2-42.8 66.5-66.8 97.3a7.1 7.1 0 0 0-1 1.4c-5.5 8.1-18.8.4-13.2-7.7l54.6-79.4L421.1 643l47.9-69.6-38 37.3-182.7 179.6-60.2 59.3c-9.4 9.2-18.4 19.6-28.6 28.1a13.6 13.6 0 0 0-1.2 1.2c-7 6.9-17.8-3.9-10.8-10.8l72.7-71.6 174.7-171.7 50.7-49.9-25.4 16.6L218.1 723l-66.5 43.3c-10.3 6.7-20.5 14.9-31.5 20.5a11 11 0 0 0-1.4.9c-8.3 5.4-15.9-7.8-7.7-13.2l80.5-52.4L383.7 597l27.9-18.2-217.8 90.4-72 29.8c-11 4.6-22.6 11.1-34.2 14.2l-1.5.7c-9 3.7-13-11.1-4-14.8l86.8-36 208.6-86.5 90.4-37.6-65.8 13.4-236.2 47.7c-38.1 7.7-76.6 18.2-115.2 23.3l-1.7.4c-9.6 1.9-13.7-12.8-4-14.8l93.9-19 225.6-45.6 93.8-19h-68.7l-256-.7-84.4-.2c-13.2 0-26.9 1.1-40.1-.1H7.4c-9.9-.1-9.9-15.4 0-15.4z" fill="#c68a59"></path><circle cx="520.5" cy="518" r="164.3" transform="rotate(-45 520.554 517.98)" fill="#725447"></circle><circle cx="520.5" cy="518" r="137.5" transform="rotate(-45 520.554 517.98)" fill="#e8dddb"></circle></g></g></svg>