<svg xmlns="http://www.w3.org/2000/svg" width="906.9" height="1038.5" viewBox="-0.01295459270477295 0 906.9215087890625 1038.5858154296875" style=""><g><title>iconsl76_256409264</title><g data-name="Layer 2"><path d="M229.4 674.8l6.6-4.6c8.5-5.4 18.3-7.5 27.8-10a70.6 70.6 0 0 1 10.3-1.2c4-.4 8.1-.8 12.1-.9s7.9.5 11.9.5c2 0 4-.6 6-.5 5.6.3 11.2 1.1 16.9 1.4s9.9-.3 14.9 0a31.7 31.7 0 0 0 8.7-.7c1.7-.4 3-1 3.4-3s.3-1.5.8-1.8c3.2-2.3 1.7-4.9.3-7.1a57.1 57.1 0 0 0-6.2-7.6c-3.2-3.6-6.6-7.2-9.9-10.7-1.7-1.8-3.5-3.4-5.2-5.2s-5.8-6-8.4-9.3-5.5-7.5-5.8-12.6 2.1-6.4 5.1-7.9a44.5 44.5 0 0 1 10.7-3.4c5.1-1 10.3-1.9 15.3-1.7s10.9-1 16.2.9c.2.1.5 0 .8 0 9.1-.3 18 1.6 26.9 3.1 6.1 1 12.3 1.9 18.4 3.1 3.9.8 7.9 1.9 11.8 2.9l14 4 15.4 5c1.7.5 3.4.8 5.1 1.4 6.1 2 12.2 4 18.3 6.2s15 5.9 22.5 8.8c3.6 1.4 7.4 2.4 11.1 3.7 1.4.5 2.7 1.3 4 1.9 4.3 1.7 8.6 3.2 12.9 5.1 5.9 2.5 11.8 5.2 17.7 7.9.3.1.6.5 1 .6 8 1.4 14.3 6.9 22 9.3 1.4.4 2.6 1.3 4 1.8l15.8 6.7 5.9 2.8 15.6 6.7c2.3 1.1 4.5 2.6 6.8 3.4 7.2 2.6 13.6 6.8 20.4 10.1 4.1 1.9 8.4 3.7 12.4 5.7s7.3 3.4 10.6 6 6.8 3.8 10.2 5.7 4.9 2.2 7.2 3.6 6.8 3 9.5 6 4.2 2.1 6.3 3.3l8.9 4.9c.9.6 2.2 1 2.7 1.8 2 3.1 5.4 4.3 8.3 5.6 4.6 2.2 7.8 5.9 12 8.3 2.2 1.3 4 3.2 6.2 4.4 3.9 2 7.1 5 10.3 7.8 5.6 5 11.1 10.3 16.7 15.3.8.8 1.9 1.1 2.7 1.8s2.4 1.3 2.8 2.3c1.9 4.3 5.9 6.6 9.1 9.6s6.1 5.1 9 7.8 8 6.9 12.8 8.2c7.3 2 14.6 1.3 19.8-5.4a51.5 51.5 0 0 0 4.7-7.9 27.6 27.6 0 0 0 3-8.3c.6-3.8 2.5-7.4 2.3-11.5s.7-5.5.9-8.3.5-8.1.7-12.2.5-8.8.6-13.2c.1-2-.3-4-.4-6.1-.3-6.3-.3-12.7-.7-19s-1.8-13.5-1.9-20.3c-.1-5.2-1.9-10.3-1.1-15.7.2-1.3-.8-2.8-.9-4.3s0-4.8-.4-7.2c-1-6.7-2.2-13.4-3.3-20.1-.4-2.6-.8-5.3-1-8a38.5 38.5 0 0 0-2.3-11.1c-.9-2.6-1.1-5.5-1.7-8.3-1.1-5.1-2.1-10.2-3.3-15.3s-2.8-11.9-4.4-17.8c-.8-3.1-1.9-6.2-2.9-9.3l-6.9-21.1a15.1 15.1 0 0 0-1.2-2.6l-2.7-6.7a15.6 15.6 0 0 0-1.1-2.6 31.7 31.7 0 0 1-3.2-7.3c-1.4-4.5-3.9-8.6-6-12.9s-4-8.1-6.1-12.2-3-5.1-4.4-7.7-4.3-7.7-6.2-11.7-5.9-10.4-8.8-15.5-5.5-8.5-7.4-13.2c-1.2-2.8-3.1-5.3-4.5-8s-4-7.7-6.1-11.5-4.3-7.7-6.5-11.6l-10.2-19.3c-1.1-2.1-2.1-4.2-3.1-6.4s-2.1-5.2-3.2-7.7c-1.9-4.3-3.9-8.4-5.8-12.6s-3.6-7.9-5.3-11.9c-3.2-8-6.9-15.8-9.6-24-1.2-3.7-3.1-7.2-4.5-10.9-3.4-9.3-6.9-18.5-9.9-28a233.9 233.9 0 0 1-6.4-24.6c-1.4-6.4-1.9-13-2.7-19.5-.5-4.1-.9-8.1-1.2-12.2s-.3-7.5-.2-11.2c.2-9-.1-18 1.3-26.9s2.3-15.2 3.7-22.8c1.1-5.9 2.3-11.9 3.9-17.8s4.2-13.9 6.7-20.8 4.8-12.2 7.3-18.3a41 41 0 0 1 3-5.4c5.5-8.8 11.1-17.6 19-24.6a33.5 33.5 0 0 1 8-5.5c5.9-2.8 11.7-5.8 18.3-6.4l3.2-.2 12.9-.5a67.9 67.9 0 0 1 7.8.4l14.7 2c2.8 2.8 7.4.8 10.1 3.8a1.7 1.7 0 0 0 1.2.4c5.8.5 10.4 4 15.7 5.9s10.1 4.9 15.2 7.4c3.1 1.5 6.2 3 9.3 4.7 5.2 2.8 6.8 8 7.5 13.2a31.2 31.2 0 0 1-1.1 9.6c-1.1 5.4-5.7 8.1-9.6 11.1a4.4 4.4 0 0 1-2.8.4l-10-1a9.9 9.9 0 0 0-2.4-.3c-7.8.8-15.5-.2-23.2-.4s-13.3-.8-19.8 0a43.4 43.4 0 0 0-21 7.8 29.7 29.7 0 0 0-7.5 8.3c-4.7 7.9-9.2 15.8-12.2 24.6-1.4 4.2-2.1 8.6-3.3 12.9-.6 1.9-.4 4-.4 6.1s.1 5.1.1 7.6a9.2 9.2 0 0 0-.1 1.6c1 9.8 1.8 19.6 4 29.2 1.7 7 2.6 14.1 3.9 21.1.1.6.4 1 .5 1.5.6 2.2 1.1 4.4 1.6 6.6s.2 2.2.5 3.3c.9 3.5 1.9 7 2.9 10.5 2 7.3 3 15 6.8 21.8a10.1 10.1 0 0 1 .8 3.1 46.1 46.1 0 0 0 3.9 12.6 78.7 78.7 0 0 1 3.2 9.7c.4 1.2.6 2.5 1 3.8 1.7 5.2 2.8 10.7 5.3 15.4s3.5 10.7 6.5 15.6 4.5 10.6 6.9 15.9 5.6 12 8.3 18c1.7 3.6 3.2 7.2 4.9 10.8 2.9 6.2 5.9 12.4 8.9 18.6 2.3 4.6 4.5 9.2 6.7 13.8 1.3 2.5 2.6 5 3.8 7.5 2.9 5.7 5.9 11.2 8.7 16.9.9 1.7 1.1 3.8 2.2 5.2s3.3 6.4 5.1 9.5 4.5 8.1 6.7 12.2l4.5 8.5c.7 1.2 1.2 2.4 1.8 3.7s.4 2.3 1.1 3c3.3 3.3 4.3 7.8 6.3 11.7 2.9 5.8 4.9 12 7.4 18s4.2 9.6 6.3 14.4l1.1 3 2.7 7.6 4.7 13.2c1.1 2.8 2.3 5.5 3.4 8.2s3.8 7.6 4.4 11.6 3.2 6.1 3.8 9.6 2.6 6.5 3.5 9.9c2.5 8.8 6.5 16.9 9.5 25.5l.6 1.5c2.2 7.3 4.4 14.5 6.5 21.8s4.1 14 5.7 21.1 3.5 14.9 5.2 22.4c.5 2.6.4 5.3.7 8s.8 4.5 1.1 6.7c.8 5.5 1.7 10.9 2.3 16.4s.7 8.9 1.1 13.3a144.9 144.9 0 0 1 .8 22.8c-.4 4.9.4 9.7.3 14.6-.4 8.8-.6 17.6-1.8 26.3-.6 4.4-1.1 8.7-1.5 13.1-.1.6-.4 1.3-.5 1.9-.5 3.6-1 7.1-1.6 10.7-1.6 10.3-3.9 20.3-8.3 29.9-1.7 3.8-3 7.8-4.8 11.6s-4.2 8.1-6.5 12.1-5.4 9.7-8.6 14.2c-4.6 6.5-9.1 12.9-14.8 18.6s-10 9-15 13.5a86.1 86.1 0 0 1-27.5 17 77.3 77.3 0 0 1-21.8 5.9c-2.7.4-5.5 1.1-8.3 1.4l-15.3 1.4c-7.3.5-14.5 1.3-21.8 1.6-9.1.4-18.3.2-27.4.5s-19.1 0-28.7-.2a152.2 152.2 0 0 1-16.5-1 61.1 61.1 0 0 0-7.5-.3c-4.5-.1-9 0-13.5 0h-15.6l-29-.2c-5.8 0-11.5.2-17.3.5s-13.4 1-20.1 1.3c-3.3.2-6.7 0-10 .2-5.2.2-10.5.2-15.6 1.1s-11.1 1-16.6 1.2c-3.5.1-7-.1-10.4.1s-7 .7-10.5.9a32.7 32.7 0 0 1-4.4.1 27.4 27.4 0 0 1-6.4 0c-4.3-.6-8.5 1.2-12.8.4-1-.2-2.3.7-3.4.7a124.4 124.4 0 0 0-19.3 1.3c-5.4.7-11 .5-16.6.9-7.8.6-15.6 1.4-23.4 2.1-6.1.6-12.2 1-18.3 1.7-4 .5-8 1.4-12 2a29.2 29.2 0 0 1-5.1.4c-2.4-.2-4.5 1.3-7.1.8s-5 .9-7.5 1.3l-13.7 1.8-12.7 1.7-16.5 1.4c-1.7.2-3.5.3-5.2.6s-4.9 1.2-7.4 0c-.5-.3-1.3 0-2 0-2.3-.1-4.5 1.5-6.8-.1-.2-.1-.8.2-1.1.4-4.1 2.6-8.9 1.6-13.3 2.5s-9.9 1.5-14.9 2.1-10.7 1.3-16 2.1c-2.1.3-4.1 1.1-6.2 1.5-9.3 1.7-18.6 3.2-27.8 5-4.1.8-8.1 2.9-12.2 3s-8.9 2.5-13.6 3.1-10.8 2.4-16.2 3.6c-3.5.8-7.3.9-10.6 2.3s-8.1 2.1-12.1 3.3-7.7 1.5-11.3 2.9a103.6 103.6 0 0 1-17.1 4.8c-2.1.4-4.1 1.4-6.2 1.9-3.7 1-7.5 1.8-11.2 2.7-.3 0-.7-.2-.8 0-3.2 2.6-7.2 1.6-10.8 2.3s-7.1 2.1-10.7 3c-1.4.4-2.9.6-4.4.9-5.1.9-10.4 1.1-15.4 2.8a27.4 27.4 0 0 1-6.4.9c-6.3.5-12.7 1.6-19 1.2-8.2-.5-16.6-1.4-23.9-5.5-4.9-2.7-10.3-5.4-13.6-10.6-1.1-1.7-3.1-2.7-4.3-4.3s-2-4.1-3.1-6.1a53.9 53.9 0 0 1-6.8-22c-.5-5.4-1-10.8.4-16 1.7-7.1 4.1-13.9 8.4-20 5.8-8.3 12.9-15.3 20.2-22.2 2.9-2.9 6.5-5.1 9.7-7.7s3.9-3.4 6-4.8c5.6-4 11.3-7.9 17.1-11.6s10.1-6.3 15.3-9.1c8.4-4.6 16.9-9.3 25.8-13 3.2-1.4 6.2-3.4 9.4-4.9l24.5-11.6c6.6-3 13-6.3 19.6-9.2 4.1-1.8 7.9-4.2 11.9-6.4s9.3-4.2 13.8-6.7c8.6-4.7 17.3-9.5 25.7-14.7a97.2 97.2 0 0 0 13.2-10.8c4.2-4.1 1.7-13.3-3.8-15.6a70.3 70.3 0 0 0-18.6-5.1c-5.5-.6-10.9-2.3-16.3-3.7a118.1 118.1 0 0 1-13.3-3.5 32.9 32.9 0 0 1-10.1-5c-3.4-2.7-4-4.6-.7-8.1a39.2 39.2 0 0 1 8.5-6.7 128.2 128.2 0 0 1 29.2-12.6c7.8-2.2 15.5-5.1 23.3-7.6s13.8-3.6 20.4-6.1a197.2 197.2 0 0 0 22.5-10 98.5 98.5 0 0 0 12.2-8c4.2-3.3 7-7.5 7.6-13a6.5 6.5 0 0 0-.4-3.1c-1-2.4-2.4-4.6-3.5-6.9s-4.8-4.9-7.5-6.7a172.8 172.8 0 0 0-16.8-9.5c-6.4-3.3-13-6.1-19.3-9.5-2-1.1-3.3-3.4-5.5-5.8z" fill="#202123"></path><path d="M737.3 9.5a17 17 0 0 1 0-3.9c.6-1.9 1.6-3.7 2.4-5.6a3.1 3.1 0 0 1 2.8 3.2c.2 4.4.5 8.8.8 13.2.5 7.8 1 15.5 1.6 23.3a26.7 26.7 0 0 0 .8 4.8c.5 2.2 1.8 3.5 3.9 3.4s3.9-.5 4.7-2.6c2.1-5.8 4.1-11.7 6.3-17.5 1.3-3.1 3-6 4.5-9l5.7-10.7c.7 1.1 1.6 2 1.6 2.9-.1 3.1-.4 6.2-.7 9.3-.8 6.6-1.7 13.1-2.3 19.7a85.1 85.1 0 0 0 0 10.1c.2 2.4 1.4 4.2 3.9 4.7s4-.6 5.1-2.6l9.9-17.7a3.4 3.4 0 0 0 .4-1.2c-1.1-5 2-7.9 5.1-11 .5-.6.7-1.4 1.2-2.1s1.6-2.7 2.4-2.7c3.1.2 3.7-2.7 5.8-4.6.2 1.3.6 2.1.4 2.9-2 9.4-4.1 18.8-6.1 28.2-1 4.7-1.8 9.5-2.8 14.2l-.6 3.7c-.7 3.4-1.4 6.8-2.2 10.5-1.5.7-3.2.3-5.1-.1a89.3 89.3 0 0 0-10.4-.7 132.7 132.7 0 0 0-14.1.2c-4 .1-8 .4-11.8-.4s-9.5-.6-14.1-1.5-7.9.1-11.4-2.4a218.7 218.7 0 0 0 5.5-26.5c1.4-9.6 4-19.1 6.1-28.6a24.6 24.6 0 0 1 .7-2.9z" fill="#aa9066"></path><path d="M904.6 153.7c-22.2-5-43.5-13.1-65.8-18.8.9-6.1 1.7-12.1 2.6-18.6 1.5 1 2.7 1.8 3.8 2.7a71.4 71.4 0 0 0 18.3 11.5c6.5 3 13.4 4.5 20 6.8s13 5.4 18.4 10.2c1.5 1.3 2.3 3.5 3.4 5.3z" fill="#ef8d6a"></path><path d="M786.6 115.2c-2.6.9-6.9-1.5-7.3-4.2a7.7 7.7 0 0 1 2.1-4.1c2.4-1.4 4.9-.9 7.2.2s2.2 2.7.8 4.3a1.6 1.6 0 0 0-.5 1.1c0 1.5-1.2 2.1-2.3 2.7z" fill="#fff"></path><path d="M331.2 790.6h.3c-.1-.4-.3-.8-.4-1.2a.7.7 0 0 0 .2-.8 7.5 7.5 0 0 1 0-1.5.3.3 0 0 0 .1-.2 1.1 1.1 0 0 1 0-1.1c.1-.3.1-.7.2-1.1a2 2 0 0 1 .2-1.1c.1-.1.1-.4.1-.5s-.1-.5.1-.6l.2-.2c-.1-.4.2-.7.3-1s.1-.4 0-.6h.4l-.2-.3a8.3 8.3 0 0 0 .8-1.2 3 3 0 0 1 .7-1l.5-.2a.3.3 0 0 1 .1-.5c.3-.3.6-.8 1.1-.8s.7-.6 1.1-.6l1.2-.4.9-.2.5.2a1 1 0 0 0 .5.4c.6.2.8.6 1 1.2l.4.5c0 .1-.3.4.1.6s.1.4.1.5a3.9 3.9 0 0 1 .2 1.5 3.2 3.2 0 0 1-.1 1.7c-.1.3-.1.6-.2.9s.1.3.1.4-.5.9-.1 1.4c-.2.3-.4.6-.3.9s0 .5-.2.6-.1.4-.2.6-.3.4-.1.7c-.3.4-.3.9-.6 1.3a.3.3 0 0 0-.1.2 14.5 14.5 0 0 1-1.1 2.9c-.1.2 0 .5-.1.7l-1.2 2.3h.1l.5-.4c.6-.4 1.4-.7 1.8-1.4s.6-.2.7-.1h.3c.1-.4.6-.4.9-.7a3 3 0 0 1 1.1-.6c.5-.1.8-.5 1.3-.6s1-.5 1.6-.6h.1c.2-.5.6-.3.9-.6h.5l.2-.4a.8.8 0 0 0 .9.1c.3-.3.6 0 .9.1s.2.4.5.2.3.1.5 0a.7.7 0 0 1 .7.4 1.9 1.9 0 0 1 .9 1.1 4 4 0 0 1 .8 2.6 12.5 12.5 0 0 1-.3 1.9 5.6 5.6 0 0 1-.7 1.6c-.1.2-.3.2-.5.4s0 .4-.3.5-.8.7-1.3 1l-.3.2c0 .5-.5.5-.9.7l-.4.4a3.1 3.1 0 0 1-.9.7h-.2a6.4 6.4 0 0 1-1.9.8h-.2a10.9 10.9 0 0 1-2.5 1 8.8 8.8 0 0 1-1.7.2h-.3c-.2.1-.4.3-.2.4s.2.8.6 1.1.4.9.8 1.1.1.1.1.2.2.4.6.3a.9.9 0 0 1-.1.5c-.1.2 0 .3.1.4s.5.9.7 1.2l.5.7a.3.3 0 0 1 .1.2c0 .2.1.4.3.4s.2.2.2.3a.7.7 0 0 0 .4.7c.1.7.9 1.2.8 2a1 1 0 0 0 .1.3c.3.4.2.8.3 1.2a3.1 3.1 0 0 1-.6 1.6 6 6 0 0 1-.8.8l-.9.4c-.3.1-.6.3-.9.2s-1.1.1-1.5-.4h-1.2l.2-.4v-.2l-.7.3-.9-1.4h-.5c-.2 0-.5-.1-.5-.3a1.8 1.8 0 0 0-.7-1l-.3-.5a3.4 3.4 0 0 0-1.2-1.2l-.3-.5a11.7 11.7 0 0 1-.5-1.1l-.5-.7-.6-1a8.3 8.3 0 0 1-.4-1.5 10.4 10.4 0 0 1-.4-1l-2.2 2.2-.6.2c-.3.2-.4.6-.8.5s-.6.6-.9.9l-1.6 1a3.9 3.9 0 0 0-1.4.8l-.7.4-2.4.9h-.1c-.6-.2-1.2.1-1.7 0a3.9 3.9 0 0 1-2-1.3c-.1-.2-.4-.3-.3-.6h-.2c0-.5.1-.9.1-1.4s0-.7.1-1.1.2-.6.2-.9a2.7 2.7 0 0 1 .7-1.3c0-.5.7-.7.7-1.2s.5-.3.2-.7.8-.3.9-.7h.2l.9-1a3.1 3.1 0 0 1 1.1-.9l1.1-.8c.5-.3.8-.9 1.4-.9s.2 0 .2-.1a8.3 8.3 0 0 1 1.5-1.1l-2.3-.8-.3-.3a13.2 13.2 0 0 1-2-1.2l-.3-.2c-.1-.2-.2-.5-.4-.6s-1.4-1.4-2.1-2a5.6 5.6 0 0 1-.5-.8c-.1-.2-.1-.4-.3-.5a10.1 10.1 0 0 1-.7-1.5c-.1-.1 0-.2-.1-.2s-.4-.7-.6-1.1a5.2 5.2 0 0 0-.6-1.3c-.1-.2-.1-.5-.2-.8h-.2c0-.3-.1-.6-.1-.9h-.2a1.2 1.2 0 0 1 0-1.6c.2-.2 0-.4-.2-.6s.7-1.1 1.3-1.4h.2a1.2 1.2 0 0 1 1.2-.3h.7c.2 0 .4.2.7.1s.6.1.9.1.6.2.9.5h.2c.6-.1 1 .4 1.5.6l1.2.7 1.9 1.3c.1.4.6.3.7.7s.3 0 .5.3.7.7 1 1.1l.4.3c0 .1.1.1.2.2l.4.2c.2.2.2.6.5.7a4.6 4.6 0 0 0 .7.7h.2c-.1.5-.1.5.3.5l-.3-.5zm19.7.4l-.4-.3.2.3z" fill="#ef8d6a"></path><path d="M332.1 800.4c.1-.2.3-.2.4-.4s.3-.4.6-.4h.9c.1 0 .1 0 .1.1s.3 0 .5 0h.7c-.1.2.1.3.2.4s0 .1.1.2l.2.2v.3a1.3 1.3 0 0 1-.1.6c0 .3-.2.4-.3.6l-.2.3-.9.7h-.2l-.3.2c0-.1 0-.1-.1-.1h-.6c-.1 0-.1-.1-.2 0a414651801674.7 414651801674.7 0 0 0-.2-.2c-.2 0-.3-.2-.4-.3l-.3-.4c-.2-.2-.2-.3-.2-.6h.1c-.2-.4.1-.7.2-1v-.2z" fill="#aa9066"></path><g><path d="M437.7 825.1l.8-.2-1.2-3a1.8 1.8 0 0 0 .5-2.1 14.5 14.5 0 0 1 .1-3.6c0-.2.2-.4.1-.6a2.9 2.9 0 0 1 0-2.7 12.6 12.6 0 0 0 .5-2.8c.2-.9 0-1.9.7-2.8s.1-.9.1-1.3-.1-1.1.4-1.5a.5.5 0 0 0 .3-.5c-.2-1 .7-1.6.9-2.5a1.6 1.6 0 0 0-.1-1.5h1l-.3-.9a28.2 28.2 0 0 0 1.8-2.9 15 15 0 0 1 1.8-2.4 3.4 3.4 0 0 1 1.2-.6 1 1 0 0 1 .3-1.4c.9-.7 1.6-1.9 2.7-1.9s1.7-1.4 3-1.4a19 19 0 0 0 2.8-1 4.3 4.3 0 0 1 2.3-.5 2 2 0 0 1 1.3.4 3.5 3.5 0 0 0 1.1 1c1.6.4 2.2 1.6 2.7 2.9a9.1 9.1 0 0 0 1 1.3c-.1.4-.8 1.1.2 1.5s.2.9.3 1.4.3 2.5.5 3.7a9 9 0 0 1-.3 4.3 14.2 14.2 0 0 0-.5 2.2 5.4 5.4 0 0 0 .3 1c-.5 1-1.2 2.1-.3 3.4a.6.6 0 0 1-.1.4c-.5.7-1 1.3-.6 2.3s-.1 1-.5 1.3-.4 1-.6 1.5-.7 1.1-.2 1.8a.3.3 0 0 1 0 .4c-.8.8-.7 2.2-1.4 3a1 1 0 0 0-.4.7 36.7 36.7 0 0 1-2.7 7.2 12.8 12.8 0 0 0-.2 1.7l-3 5.9c.1.1.2.1.2.2l1.2-1c1.5-1.1 3.4-1.7 4.5-3.4s1.5-.5 1.9-.5.5 0 .5-.1 1.7-1.1 2.5-1.8a6.8 6.8 0 0 1 2.6-1.5c1.2-.3 2-1.3 3.2-1.5s2.6-1.3 4.1-1.4.3 0 .3-.1 1.6-.8 2.3-1.4.6 0 1.1.1l.6-1c.7.5 1.5.9 2.1.3s1.6 0 2.3.2.4 1.1 1.3.6.8.1 1.2.1 1.5 0 1.8.9a.3.3 0 0 0 .1.2 6.1 6.1 0 0 1 2.3 2.7c1.1 2 2.2 4.1 1.8 6.5a37 37 0 0 1-.6 4.8 28.3 28.3 0 0 1-1.7 4c-.3.5-1 .7-1.4 1.1s-.1 1.1-.8 1.2-2 1.8-3.2 2.6l-.6.3c-.2 1.4-1.5 1.3-2.3 1.9a9.4 9.4 0 0 0-1 1 9.4 9.4 0 0 1-2.3 1.6c-.2.2-.5.1-.7.3a8.7 8.7 0 0 1-4.5 2l-.6.2c-1.8 1.5-4.2 1.9-6.3 2.6s-2.8.3-4.2.5a2.7 2.7 0 0 0-.9 0c-.5.2-.8.8-.5 1.1s.7 2 1.6 2.7.9 2.1 2.1 2.8.3.3.3.4.5 1 1.3.8a4.5 4.5 0 0 1-.1 1.2c-.2.5 0 .7.3 1.2s1.1 2 1.7 3l1.1 1.5.4.6a1.2 1.2 0 0 0 .8 1.1.9.9 0 0 1 .5.7c0 .7 0 1.4.8 1.6.4 1.9 2.3 3.1 2.2 5.1a1.3 1.3 0 0 0 .2.9 4 4 0 0 1 .6 2.8 8.7 8.7 0 0 1-1.4 4 8 8 0 0 1-2.1 2 7.6 7.6 0 0 1-2.2 1.1 4.6 4.6 0 0 1-2.2.6c-1.3-.1-2.8.2-3.7-1l-.5-.4-2.6-.3.6-1c0-.1-.1-.2-.2-.3l-1.6.5-2.3-3.2h-1.3c-.5 0-1.2-.2-1.2-.8s-1.1-1.8-1.8-2.6l-.7-1.1a9.9 9.9 0 0 0-3-3.1c-.4-.2-.6-.8-.8-1.2s-.7-1.8-1.2-2.7a17.7 17.7 0 0 0-1.2-1.7c-.5-.9-1.1-1.8-1.5-2.7s-.8-2.4-1.2-3.7a14.4 14.4 0 0 0-.9-2.4l-5.6 5.5c-.4.2-1 .2-1.4.5s-1 1.3-1.9 1.3-1.6 1.3-2.4 2.1a19.9 19.9 0 0 1-3.9 2.5 12.5 12.5 0 0 0-3.5 2.1 3.4 3.4 0 0 1-1.8.9l-6 2.2-.4.2c-1.4-.6-2.8.2-4.1-.2s-3.8-1.5-5-3.2-1.1-.7-.8-1.5-.5-.3-.5-.3l.3-3.4c.1-.9 0-1.9.1-2.8s.5-1.5.7-2.3.6-2.4 1.7-3.1 1.7-1.8 1.6-3.2 1.4-.7.7-1.7a2.9 2.9 0 0 0 2.3-1.8c0-.1.2-.2.3-.3a8.8 8.8 0 0 0 2.3-2.4 10.4 10.4 0 0 1 2.8-2.3 28.3 28.3 0 0 0 2.8-2c1.2-.8 2-2.2 3.6-2.2s.3 0 .3-.1 2.6-1.9 3.7-2.9a.1.1 0 0 0 .1-.1l-5.8-2.2c-.3-.1-.5-.5-.8-.6a51.9 51.9 0 0 1-5-3.1l-.6-.6c-.4-.5-.6-1.1-1.1-1.4-2.2-1.3-3.5-3.5-5.3-5.1a8.6 8.6 0 0 1-1.1-1.9 9.1 9.1 0 0 0-.7-1.4 10.7 10.7 0 0 1-2-3.8.6.6 0 0 0-.1-.4c-1-.6-1.1-1.7-1.5-2.7s-1-2.1-1.5-3.2-.3-1.2-.6-1.9l-.4.2a17 17 0 0 0-.4-2.2c0-.2-.2-.3-.3-.4a2.8 2.8 0 0 1-.1-3.9c.5-.7-.1-1-.5-1.5 1.3-1.1 1.7-3 3.3-3.7l.4-.3a3.4 3.4 0 0 1 3.1-.7 4.9 4.9 0 0 0 1.7-.1c.6-.1 1 .5 1.7.2s1.5.2 2.3.2a3.5 3.5 0 0 1 2.3 1.2c.1.1.2.3.4.3s2.7 1 3.9 1.6l2.8 1.7c1.8.9 3.2 2.4 5 3.4.1.8 1.4.5 1.6 1.5s.9.2 1.3.9a10.7 10.7 0 0 0 2.6 2.6l.9 1 .5.3 1 .5c.4.6.4 1.4 1.2 1.9s1.2 1.1 1.7 1.6l.7-.2c-.4 1.1-.4 1.1.6 1.4a4.2 4.2 0 0 1-.6-1.4zm49.2.9v-.2l-1-.6.5.7z" fill="#ef8d6a"></path><path d="M440 849.6c.2-.4.7-.5.8-1s.8-1 1.6-.9.6-.3 1-.3h1.5c.4.3.8.1 1.1.1s.3.3.5.3l1.4.2c-.2.6.2.8.5.9s0 .5.3.6.3.4.4.6v.7a7.6 7.6 0 0 1-.1 1.5c-.1.7-.6 1.1-.9 1.6l-.6.6a6.8 6.8 0 0 1-2.1 1.7h-.5l-.7.4c0-.1-.2-.1-.3-.2h-.5v.2h-.7l-.5-.2c-.1-.1-.3-.3-.4-.1s-.2 0-.3 0l-.3-.3c-.5 0-.7-.5-.9-.8l-.9-1.1c-.5-.5-.5-.7-.3-1.4a.1.1 0 0 0 .1-.1c-.4-1 .4-1.6.5-2.4s.1-.4.2-.6z" fill="#aa9066"></path></g><g><path d="M416.3 700.3l.6-.2-.9-2a1.2 1.2 0 0 0 .4-1.5 9.6 9.6 0 0 1 0-2.4c0-.2.2-.3.1-.4a2.5 2.5 0 0 1 0-1.9 12.9 12.9 0 0 0 .4-1.9 4.3 4.3 0 0 1 .4-1.9c.2-.2.1-.6.1-.9s-.1-.8.3-1a.8.8 0 0 0 .2-.4c-.1-.6.5-1 .6-1.7a.9.9 0 0 0-.1-1h.7l-.2-.6c.4-.7.9-1.2 1.3-1.9a7.4 7.4 0 0 1 1.2-1.7l.8-.4a.8.8 0 0 1 .2-1c.6-.4 1.1-1.3 1.9-1.3s1.1-.9 2-.9a7.3 7.3 0 0 0 1.9-.7 2.9 2.9 0 0 1 1.6-.4 1.6 1.6 0 0 1 .9.3 1.6 1.6 0 0 0 .7.7c1.1.3 1.5 1.1 1.9 2s.4.5.6.9-.5.7.2 1 .1.6.2 1a21.3 21.3 0 0 1 .3 2.5 5.7 5.7 0 0 1-.1 2.9 8.3 8.3 0 0 0-.4 1.5 1.9 1.9 0 0 0 .2.7c-.3.7-.8 1.5-.2 2.3v.3c-.4.5-.8.9-.5 1.6s0 .7-.3.9-.3.7-.4 1-.5.8-.2 1.2a.2.2 0 0 1 0 .3c-.5.6-.4 1.5-1 2.1a.5.5 0 0 0-.2.4 27 27 0 0 1-1.8 5c-.2.4-.1.8-.2 1.1l-2 4v.2l.8-.7c1.1-.7 2.4-1.2 3.1-2.3s1-.4 1.3-.4h.3s1.2-.8 1.7-1.2a4.4 4.4 0 0 1 1.8-1.1c.8-.2 1.4-.9 2.3-1s1.7-.9 2.8-1h.1c.3-.8 1.1-.6 1.6-1s.4 0 .8.1.2-.4.4-.7 1 .6 1.4.2 1.1 0 1.6.1.3.8.9.4.5.1.8.1 1 0 1.2.6 0 .1.1.2a3.8 3.8 0 0 1 1.5 1.8 7.2 7.2 0 0 1 1.3 4.5 18.8 18.8 0 0 1-.5 3.3 15.3 15.3 0 0 1-1.1 2.7c-.2.3-.7.4-.9.7s-.1.7-.6.8-1.4 1.3-2.2 1.8-.4.1-.4.2-1 .9-1.6 1.3l-.6.7a7.6 7.6 0 0 1-1.6 1.1l-.5.2a7.3 7.3 0 0 1-3.1 1.4h-.4a13 13 0 0 1-7.2 2.1h-.6c-.3.2-.6.6-.3.8s.5 1.3 1.1 1.8.6 1.5 1.4 1.9l.2.3c.1.6.4.7.9.6a2.2 2.2 0 0 1-.1.8.8.8 0 0 0 .2.8 21.2 21.2 0 0 1 1.2 2l.7 1.1c.1.1.3.3.3.4a1 1 0 0 0 .6.8.4.4 0 0 1 .3.4c0 .5 0 .9.6 1.1s1.5 2.1 1.5 3.5 0 .5.1.6a2.6 2.6 0 0 1 .4 1.9 5.6 5.6 0 0 1-1 2.8 4.4 4.4 0 0 1-1.4 1.3 3.6 3.6 0 0 1-1.5.8 4.2 4.2 0 0 1-1.5.4c-.9-.1-1.9.1-2.5-.7l-.4-.2-1.8-.3.5-.7v-.2l-1.2.4-1.5-2.2h-.9c-.4 0-.8-.1-.9-.5s-.7-1.3-1.1-1.8l-.6-.8a6.4 6.4 0 0 0-2-2 1.6 1.6 0 0 1-.5-.9 15.1 15.1 0 0 0-.9-1.8 5 5 0 0 0-.8-1.2 16.2 16.2 0 0 1-1-1.8c-.3-.9-.5-1.7-.8-2.5l-.6-1.7-3.9 3.8a3.2 3.2 0 0 0-.9.3c-.5.3-.7.9-1.4.8s-1.1 1-1.6 1.5a10.6 10.6 0 0 1-2.6 1.7 12 12 0 0 0-2.4 1.5 3.9 3.9 0 0 1-1.3.6l-4.1 1.5h-.2c-1-.4-2 .1-2.9-.2a6.1 6.1 0 0 1-3.4-2.1c-.2-.3-.7-.5-.5-1.1h-.4c.1-.9.2-1.6.3-2.4a12 12 0 0 1 0-1.9c.1-.5.4-1 .5-1.5s.4-1.7 1.2-2.2 1.1-1.2 1.1-2.2.9-.4.4-1.1 1.4-.5 1.6-1.2a.2.2 0 0 1 .2-.2 6.5 6.5 0 0 0 1.6-1.8 5.5 5.5 0 0 1 1.9-1.5l1.9-1.4c.8-.6 1.4-1.5 2.4-1.5h.3c.6-1 1.7-1.3 2.5-2s0 0 .1-.1c-1.4-.5-2.7-.9-4-1.5s-.3-.3-.5-.4a19.4 19.4 0 0 1-3.4-2.1l-.5-.4a3.6 3.6 0 0 0-.7-1c-1.5-.8-2.4-2.3-3.6-3.5s-.5-.8-.8-1.2-.2-.7-.5-1a9.1 9.1 0 0 1-1.3-2.6c-.1-.1 0-.2-.1-.3s-.8-1.2-1-1.9l-1-2.1a5 5 0 0 1-.4-1.3h-.3l-.3-1.5a.2.2 0 0 0-.2-.2 2.1 2.1 0 0 1-.1-2.8c.3-.4-.1-.6-.3-.9s1.1-2.1 2.3-2.6.1-.1.2-.2a2.6 2.6 0 0 1 2.1-.5 2.4 2.4 0 0 0 1.2 0c.4-.1.6.3 1.1.1a4.4 4.4 0 0 1 1.6.2 2.5 2.5 0 0 1 1.6.8h.2a5.1 5.1 0 0 1 2.7 1.2l2 1.1c1.2.6 2.1 1.6 3.3 2.3s1 .4 1.1 1.1.7.1 1 .6 1.1 1.2 1.7 1.8l.6.6.4.2c.2.2.5.2.6.4s.3 1 .9 1.3.8.7 1.2 1.1h.4c-.3.7-.3.7.4.9a7.9 7.9 0 0 0-.4-.9zm33.7.6v-.2l-.6-.3.3.4z" fill="#ef8d6a"></path><path d="M417.9 717c.1-.3.5-.3.5-.7s.6-.6 1.1-.6l.7-.2h1.1c.2.2.5.1.7.1a.5.5 0 0 0 .4.2l.9.2c-.1.3.2.5.3.6s0 .3.2.4.2.2.3.4v.5a1.7 1.7 0 0 1-.1 1c0 .4-.4.7-.6 1.1l-.3.4a5.3 5.3 0 0 1-1.5 1.1h-.3l-.5.3h-1.3c-.1-.1-.2-.2-.3-.1h-.2c-.1-.1-.1-.2-.2-.2s-.5-.3-.6-.6l-.6-.7c-.4-.4-.4-.5-.2-1-.2-.6.3-1.1.4-1.6s.1-.3.1-.4z" fill="#aa9066"></path></g><path d="M535.9 711.3h.2l1.1.2h1.8c.7.1 1.8 1.1 1.8 1.8s-.6.9-.1 1.5-.6.1-.3.4 0 .4-.1.6-.3.5-.2.5-.4.9-.2 1.2-.1.9-.1 1.3a25 25 0 0 1-.5 2.9 30.4 30.4 0 0 1-1.2 3.6l4.3-1.4 1.7-.4 3-.9 2.4-.6c.3-.1.5-.2.7-.1s1.1-.2 1.7 0 .9-.2 1.2-.4.6-.9 1-1.2a13 13 0 0 1 3.3-2.3 9.1 9.1 0 0 0 2.2-1.1 18.9 18.9 0 0 1 3.5-1.7 51.6 51.6 0 0 0 4.9-2.1 10.4 10.4 0 0 1 1.6-.6c.8-.2 1.7-.1 2.3-.8h.6l2.7-.8c.8-.3 1.5-.8 2.3-.2a9 9 0 0 1 1.8 1.5c.6.6.3 1.3.4 1.9a1 1 0 0 1-.4.9c-.7 0-.8.5-1 .9a1 1 0 0 1-.1.3c-1-.1-1 1.2-1.8 1.3s-.6.8-1.2.7h-.5l-2 1.5-.4-.5-1.3.6a9.4 9.4 0 0 0-.3.9l-.6-.7c-.3 1.3-.3 1.4.8 1.5h1.8l2.8.5 4.2.7c1.5.2 2.9.8 4.3.9s1.9.9 2.5 1.8a.7.7 0 0 1-.6 1.2 4.8 4.8 0 0 1-1.2 0l-5-.4h-8.1a9.9 9.9 0 0 0-4.1.4 7 7 0 0 1 2.8 1.7l.6.4 1.9 1.1c.7.4 1.1 1.3 2 1.6s.1.2.2.4a4.6 4.6 0 0 0 .7.7c1 .7 1.1 1.8 1.3 2.8s-.2.6-.4.9l.8 1c-.4 1.2-1.4 1.4-2.2 1.9s-1.4.9-2.1 0h-.3a4.2 4.2 0 0 1-1.2-.4 7 7 0 0 0-2-.8.5.5 0 0 1-.5-.3 3.5 3.5 0 0 0-1.4-1.3 10.2 10.2 0 0 0-3.1-.9 1.9 1.9 0 0 1-1.1-.6h-.8c-.1 0-.1-.2-.1-.2a7.8 7.8 0 0 0-2.7-1.4 6.1 6.1 0 0 1-2.4-2.1c-.1-.1-.3-.3-.4-.2s-.6-.2-.7-.5-.3-1.2-.5-1.8-.4-1.3-1.5-1.1l-.7.2c-1 .1-1.9.8-3 .5s-.9.2-1.3.3l-.6.2-5.7 1.1-.5.2-1.7.6-1.7.8c-.4.2-.7.6-1.1.5a1.2 1.2 0 0 0-1.2.8 3.4 3.4 0 0 0-2.8 1.2c-.6.4-.8 1.3-1.2 2a2.5 2.5 0 0 0 1.9.2l3-.5h2a2.5 2.5 0 0 1 1.2.1 3.9 3.9 0 0 0 3 .2.6.6 0 0 1 .6 0l2.9.7c.1.1.3.2.4.1s.9-.1 1.4 0a10.9 10.9 0 0 1 2.5 1l1.3.7c.7.3 1.3.6 1.5 1.5s.2.4.4.6a2.5 2.5 0 0 1 1.2 1.9c0 .2.2.6.1.7s-.2 1.2 0 1.6a1.3 1.3 0 0 1-.2 1.1 8.1 8.1 0 0 1-1 .9c-.9.8-2.1 1-3 1.7s-1.1.2-1.6.3h-.9c-1.5.5-3 .2-4.5.2h-3.3a1.5 1.5 0 0 1-.1-.6l-.9.5-.6-.5a6.5 6.5 0 0 0-1.3-.4c-.2 0-.4.5-.8.1s-.7 0-.8-.1-1.8-.2-2.3-1.1h-.2c-1.2.3-2.1-.4-3.2-.7l-1.9-.7-.6-.4a2.4 2.4 0 0 1-1.8-1.2c-.3-.5-.5-.8-1-.6a1.8 1.8 0 0 1 0-2c-.2-.5-.8-.5-.7-1.2s-.2-.8-.4-1.3l-1.5 1.1a5.2 5.2 0 0 0-1.9 1.4l-.7.2c-.2.1-.5.2-.5.3a.9.9 0 0 1-1.2.5 3.7 3.7 0 0 1-1.4.9c-.8.4-1.1 1.5-2.2 1.3l-4.5 2.7v.2l-1.2.6.6.2c.7-.8 1.8-.2 2.6-.6h.2c.1.2.1.4.4.2a.6.6 0 0 1 .6 0c.3.4.5.3.9.2a2.5 2.5 0 0 1 1.2-.2 5.8 5.8 0 0 1 1.9.3c1.5.4 3 0 4.4.8h.1a11.4 11.4 0 0 1 3.7.5h1.3l.6.2a4.1 4.1 0 0 0 2.6.9 1.8 1.8 0 0 1 1 .4 9.1 9.1 0 0 1 1.6 1.1 4.7 4.7 0 0 1 1.5 1.7 3.3 3.3 0 0 1-.5 3.4.8.8 0 0 0-.2.5 4.6 4.6 0 0 1-1.8 2.3c-.7.5-1.5 1.3-2.6 1.1h-.2l-2 .4c-.7.1-1.4-.1-2 .2a2.3 2.3 0 0 1-1.8 0h-1.3a3.8 3.8 0 0 1-1-.3l-.9-.2a1.7 1.7 0 0 1-1.1-.3l-.5-.2c-.7.4-1.4-.4-2.1-.1l-.4-.2-1.4-.9a12 12 0 0 1-3-1.5 5.7 5.7 0 0 0-3.9-1.6h-.6l-1.4-1.1a12.7 12.7 0 0 0-1.2-1c-.1-.1-.1-.3-.2-.4s-.8-1.5-1.5-2l-2.3.9q0-1.1-.9-.6l-1.3.8-1.7.7-2.7 1.2a11.5 11.5 0 0 1-5.1 1.4 3.6 3.6 0 0 1-3-.7l.4-.3-1.1-.8a8.9 8.9 0 0 1 1.9-.7l2.9-1a15.9 15.9 0 0 0 3.7-1.8l2.8-1.7c.6-.3 1-1 1.7-1.2s.7-.6 1-.8a4.8 4.8 0 0 1-.7-1.5c0-.9-.3-1.8-.3-2.6s.2-1.2-.4-1.6-.5-1 .3-1.3a.1.1 0 0 0 .1-.1c-.1-.5-.3-.9-.4-1.4s.5-.3.5-.4a16.4 16.4 0 0 0 .2-2.2 13.2 13.2 0 0 0-.6-3.9v-.3a17.1 17.1 0 0 0 0-3.2c-.2-1.4-.1-2.8-.3-4.1a3.5 3.5 0 0 1 .3-2.3v-.4a4.1 4.1 0 0 1 1.5-2.3 3.5 3.5 0 0 1 3.3-.5c0-.2.1-.3.1-.5s1.5 1.1 2.5 1 1.4 1.3 1.3 2.3h.6c.1.4.1.9.3 1.1s.3 1.2.6 1.7a13.4 13.4 0 0 1 .7 1.8v.4c.1.5.1.9.2 1.4.6 2.2.6 4.5 1 6.7a.7.7 0 0 1-.1.6 8.2 8.2 0 0 0-.1 2.7v.8c0 .3.1.7.1 1.1l2.4-1.5 1-.4a8.5 8.5 0 0 1 2.7-1.8c.9-.3 1.7-1.1 2.7-1.5s.9-.9 1.7-1.1 1-.6.7-1.7a.7.7 0 0 1 .1-.5 3.4 3.4 0 0 0 .5-1.7 4.5 4.5 0 0 1 .4-2c.6-1 1.4-1.9 2-2.9a17.1 17.1 0 0 1 2.9-4c1.2-1.1 2.6-2 3.1-3.6.1-.1.1-.3.2-.3s2.1-2.9 3.3-4.3 1-1 1.5-1.5zm33.5 9.2l-.6.8c.8.1.8.1.6-.8z" fill="#709ca0"></path><path d="M286.7 944.8l-.4-.3h-4.5a3.7 3.7 0 0 1-3.2-2.4c-.2-.8.6-1.6-.3-2.4s1-.3.4-.7 0-.7.1-1 .2-.7.1-.8.5-1.6.1-1.9-.1-1.4-.1-2.1-.1-3.1 0-4.6.7-3.8 1.1-6l-6.4 3.1-2.5 1.2-4.5 2-3.8 1.5a2.1 2.1 0 0 1-1 .4c-.9-.2-1.7.5-2.7.3s-1.3.5-1.7.9-.7 1.5-1.3 2.1a19.3 19.3 0 0 1-4.7 4.3 32.9 32.9 0 0 0-3.3 2.3 29.3 29.3 0 0 1-5 3.4c-2.5 1.3-4.8 3.1-7.2 4.6l-2.5 1.2c-1.1.5-2.6.5-3.4 1.8s-.6.2-.9.3l-4.1 2c-1.1.6-2.2 1.5-3.5.8a21.4 21.4 0 0 1-3.2-2c-1-.7-.7-1.9-1-3s.1-1.2.4-1.3 1.1-1 1.3-1.7.1-.5.2-.5 1.2-2.1 2.5-2.5.8-1.3 1.8-1.4.5 0 .6-.2l2.9-2.7.7.7 1.9-1.4.4-1.4 1 .9c.2-2.1.1-2.2-1.7-2.1l-2.7.2h-11.4c-2.3-.1-4.6-.7-6.9-.4s-3.2-1.2-4.3-2.4-.3-1.8.7-2.1l1.9-.2c2.7-.2 5.3-.3 7.9-.6l3.9-.5 4.3-.6 4.5-.6a19.2 19.2 0 0 0 6.3-1.5 11.8 11.8 0 0 1-4.8-2.2 2.5 2.5 0 0 0-.9-.4l-3.3-1.3c-1.3-.5-2-1.9-3.4-2.1s-.3-.3-.5-.5a6.4 6.4 0 0 0-1.3-1c-1.7-.8-2-2.5-2.7-4s.3-1 .5-1.6l-1.5-1.4c.3-1.9 2-2.5 3-3.5s2.1-1.7 3.4-.4h.5a5.2 5.2 0 0 1 1.8.3 10.3 10.3 0 0 0 3.4.7 1.3 1.3 0 0 1 .9.5 4.9 4.9 0 0 0 2.4 1.6 14.7 14.7 0 0 0 5.1.8 2.3 2.3 0 0 1 1.9.8h1.3c.1 0 .1.2.2.2a15 15 0 0 0 4.6 1.7 9.5 9.5 0 0 1 4.2 2.7c.2.1.6.4.7.3s.9.2 1.1.5a23.6 23.6 0 0 1 1.2 2.8c.7 1.7 1 1.9 2.7 1.4a9.3 9.3 0 0 0 1-.5c1.6-.5 2.8-1.7 4.6-1.5s1.3-.5 2-.8l.9-.4 8.7-3.1.7-.4c.8-.4 1.8-.8 2.6-1.3a20.7 20.7 0 0 0 2.4-1.7c.6-.4 1-1 1.6-1a1.8 1.8 0 0 0 1.8-1.5c2 0 3.1-1.4 4.1-2.5s1-2.2 1.4-3.4a3.6 3.6 0 0 0-2.9.1l-4.7 1.4-3.1.7a6.1 6.1 0 0 1-1.9.1 6.1 6.1 0 0 0-4.8.4 1.3 1.3 0 0 1-.9.1l-4.7-.5c-.2 0-.6-.1-.6 0s-1.5.3-2.3.3a16.3 16.3 0 0 1-4.2-1.1l-2.2-.8c-1.1-.3-2.2-.6-2.6-1.9a1.4 1.4 0 0 0-.9-.8 3.9 3.9 0 0 1-2.2-2.8c-.1-.4-.5-.9-.4-1s.1-1.9-.3-2.7a1.7 1.7 0 0 1 .1-1.7 10.7 10.7 0 0 1 1.4-1.6c1.2-1.4 3-2.1 4.3-3.4a5.7 5.7 0 0 1 2.5-.8c.4-.1 1 .1 1.3-.1 2.3-1 4.7-.9 7-1.2l5.3-.7.3 1 1.3-1c.4.2.6.5 1 .6a4.2 4.2 0 0 0 2.2.3c.3 0 .5-.8 1.2-.3s1-.1 1.3.1 2.8-.2 3.8 1.1.2.1.3 0c1.8-.6 3.5.3 5.2.5a18 18 0 0 1 3.2.6c.3.1.7.5 1.1.5a4.2 4.2 0 0 1 3.1 1.3c.4.8.9 1.1 1.6.8a3 3 0 0 1 .5 3.1c.4.7 1.4.6 1.4 1.7s.5 1.2.8 1.9l2.2-2.1c.9-.8 2.1-1.3 2.6-2.5s.7-.4 1.1-.6.7-.3.8-.6 1.2-1 1.6-1a26.8 26.8 0 0 1 2-1.8c1.3-.7 1.5-2.5 3.3-2.5l6.4-5.2-.3-.3a14 14 0 0 0 1.8-1.2l-.9-.2c-1 1.5-2.8.7-4 1.5s-.3 0-.4-.1-.3-.5-.6-.2a1 1 0 0 1-.9.1c-.6-.5-1-.3-1.5 0a12.7 12.7 0 0 1-1.8.6 11.3 11.3 0 0 1-3.2-.2c-2.3-.2-4.7.7-7-.1h-.2c-1.9.6-3.9.1-5.9 0a7.5 7.5 0 0 0-2.1.2l-1-.2a7.8 7.8 0 0 0-4.3-.9 2.4 2.4 0 0 1-1.6-.4 13.4 13.4 0 0 1-2.7-1.3c-1-.7-2.4-1.4-2.8-2.4s-1.4-3.6 0-5.4a1.1 1.1 0 0 0 .3-.8 6.2 6.2 0 0 1 2.2-4c1.1-1.1 2.1-2.4 3.9-2.4l.5-.2 3-1a15.7 15.7 0 0 0 3.1-.8 3.9 3.9 0 0 1 2.8-.5 14.7 14.7 0 0 0 2.1 0h1.6a1.7 1.7 0 0 0 1.4.1c.5-.2 1.2.1 1.8.2s.7.3.8.2 2.3.4 3.4-.2.4.1.7.2l2.4 1.1c1.6.6 3.5.6 5 1.7a8.8 8.8 0 0 0 6.5 1.5 1.7 1.7 0 0 1 1 .1l2.5 1.3a7.2 7.2 0 0 0 2 1.4c.2.1.3.4.4.6s1.6 2.2 2.9 2.7l3.3-1.9c.3 1.2.7 1.4 1.6.9l1.9-1.6c.8-.7 1.8-.9 2.6-1.5l3.8-2.6a20.7 20.7 0 0 1 7.8-3.3 5.8 5.8 0 0 1 4.8.4l-.6.6 1.9 1.1a23.4 23.4 0 0 1-2.7 1.4 21.3 21.3 0 0 0-4.5 2.3 26.1 26.1 0 0 0-5.3 3.6l-4 3.3c-.8.7-1.4 1.9-2.3 2.2s-1.1 1.2-1.5 1.6 1.4 1.5 1.5 2.2.8 2.7 1 4.1 0 1.8 1 2.3 1 1.5-.2 2.1-.1.2-.1.3l.9 1.9c-.2.3-.7.6-.7.9a13.1 13.1 0 0 0 .3 3.4 20.6 20.6 0 0 0 1.7 6 .9.9 0 0 1 .1.5 27.4 27.4 0 0 0 .7 5c.7 2.1.9 4.3 1.5 6.5a5.5 5.5 0 0 1 0 3.6v.7a5.7 5.7 0 0 1-6.8 5.3 1.7 1.7 0 0 1-.1.8c-1.6 1-2.5-1.2-4-.9-.5-1.5-2.6-1.7-2.6-3.4h-1.1c-.2-.6-.3-1.4-.7-1.6s-.7-1.8-1.3-2.6-1-1.8-1.5-2.7a1.5 1.5 0 0 1-.1-.7 11.7 11.7 0 0 0-.6-2c-1.5-3.3-1.9-7-3.1-10.3a2 2 0 0 1 0-1.1 10 10 0 0 0-.4-4.2c-.1-.4-.1-.8-.2-1.3a14.2 14.2 0 0 0-.5-1.6l-3.4 2.8a11 11 0 0 0-1.4.9c-1.2 1.2-2.2 2.6-3.8 3.4s-2.6 2.1-4 3-1.2 1.6-2.3 2.1-1.5 1.1-.8 2.9a1.1 1.1 0 0 1 0 .8 5.3 5.3 0 0 0-.4 2.8 6.6 6.6 0 0 1-.3 3.1 47.4 47.4 0 0 1-2.4 5.1 29.3 29.3 0 0 1-3.7 7c-1.6 2-3.5 3.7-4 6.3a1.4 1.4 0 0 1-.2.6c-1.4 2.4-2.7 4.9-4.2 7.3s-1.4 1.9-2.1 2.9zm-54.6-6.9l.7-1.5c-1.2 0-1.2 0-.7 1.5z" fill="#709ca0"></path></g></g></svg>