<svg xmlns="http://www.w3.org/2000/svg" width="1080" height="987.2" viewBox="-0.03805321455001831 -0.02457379549741745 1080.0499267578125 987.2213134765625" style=""><g><title>sm51_316644278</title><g data-name="Layer 2"><path d="M1071.1 720.2c-7.7-61.1-9.1-123.4-9.7-185-1.1-135.1-5.8-270-5.8-405.2 0-28.9 1.9-58.5-.9-87.2-1.3-13.9-6.9-31.9-21.1-37.7-11.9-4.7-21.6-1.1-34.1-3S974.4.2 961.9 0c-32.6-.4-64.9 4.2-97.5 5.3-64.2 2.2-129-3-193.3-2.3-68 .7-136 2.7-204 4.7S332 7.5 264.3 5.9c-30.9-.7-61.6-.6-92.4 1s-61.6-2.2-91.9 1c-13.5 1.4-27.7 6.5-39.8 13.8-8.7 4.5-16 10.3-21 17.7C9.9 53.3 4.5 70.6 3 87.3c-.4 3.6-.6 7.1-.9 10.7a209.7 209.7 0 0 0-1.5 26.5c-.9 22.3-.8 44.6 0 67 1.2 32.2 5 64.2 6.7 96.3 1.8 34.9 1.1 69.9 1.3 104.8.3 66.7 6.6 133.4 9.3 200s5 131.7 6.9 197.6c.9 31.4 2 62.8 4.1 94.1 1.5 22.8 1.7 50.9 13.9 70.9 7.7 12.8 33.4 18.7 46.8 19.6 32.1 2.3 64.3.7 96.4 2.3 67.5 3.5 134.9 7.7 202.5 9.4 136.6 3.4 272.8-6.7 409.4-7.6 66-.4 133.1 5.1 198.9 1.3 19.2-1.1 38.2-6.8 53.5-18.6 18.5-14.2 22.2-38.3 25.4-59.9 8.6-59 2.9-122.7-4.6-181.5z" fill="#eb4343"></path><path d="M993.4 879c.3-8.4.3-16.8-.1-25.2a1.4 1.4 0 0 0-1.4-1.4 960 960 0 0 0-127.9-6.8c-.2-10.8-.5-21.7-.7-32.5a295.3 295.3 0 0 0 .4-31.2c-.1-4.1-.3-8.1-.4-12.1a205.6 205.6 0 0 1 27.2-1.2c8.5.1 18.6 1.5 26.8-.4 2.8-.6 3.8-1.3 4.6-4s-.2-8.2-.6-11.9c0-1.6-.1-3.2-.1-4.6.1-4.6.2-9.1.1-13.7 0-2.2.6-5.8-.3-7.9-2.3-4.9-10.3-2.8-14.6-2.7l-44.5.3-.6-18.2-.5-16.1a184.3 184.3 0 0 1 .8-21c3.5-3.6 14-3.5 18.6-3.8 6.2-.3 12.3-.4 18.5-.5l47.6-1.4q17.1-.2 34.2 0a1.4 1.4 0 0 0 1.4-1.4c.2-12 .5-24.1.8-36.1.2-1.1.5-2.1.8-3.2a2 2 0 0 0-1.8-2.4 1250.2 1250.2 0 0 0-172 4.4 1.9 1.9 0 0 0-1 .5c-4 .1-4.2 12.3-4.4 14.4-1.7 18-1.2 36.3-1.2 54.4q.1 55.2 3.1 110.2a1.9 1.9 0 0 0 .2.8c.8 32.3 2.2 64.7 4.3 97a1.9 1.9 0 0 0 3.4 1c3.6 2.5 9.6 1.8 13.4 1.9q27.3.6 54.6.3c27.1-.2 54.3-1.2 81.3-2.8a56.9 56.9 0 0 0 8.3-.5c7-.4 14-.8 21-1.4a1.4 1.4 0 0 0 1.4-1.4c-.2-6.5-.5-12.9-.7-19.4zm-182.8-55.7c-.6-19.3-1-38.6-1.2-58-.2-22 0-44.1.4-66.1.2-11.7.5-23.4 1-35 .1-5.5.4-11 .6-16.5.1-3.4-.5-8.4.4-12.4a2.3 2.3 0 0 0 1.4.1q-2.7 93.9-2.6 187.9zm52.5-59.7c10.8-.4 21.5-.3 32.3.3 6.6.3 16.3 1.9 22.3-1.6l.5-.3v.7a12.2 12.2 0 0 1-8.4 2.2 91.7 91.7 0 0 1-10.5.1c-12.1-.1-24.1-.4-36.1 1a19.3 19.3 0 0 0-.1-2.4z" fill="#fff"></path><path d="M545.3 875.9c.4-8.4.3-16.8-.1-25.2a1.4 1.4 0 0 0-1.4-1.4 975.2 975.2 0 0 0-127.9-6.8l-.6-32.5c.7-10.4.6-20.8.3-31.2-.1-4-.2-8.1-.4-12.1a207.1 207.1 0 0 1 27.3-1.2c8.4.1 18.5 1.5 26.8-.4 2.7-.6 3.7-1.3 4.5-4s-.2-8.2-.5-11.9a36.1 36.1 0 0 1-.1-4.6c0-4.6.1-9.1.1-13.7 0-2.1.6-5.8-.4-7.9-2.3-4.9-10.3-2.8-14.6-2.7l-44.5.3-.6-18.2-.5-16.1a207.5 207.5 0 0 1 .8-20.9c3.6-3.7 14.1-3.6 18.6-3.8 6.2-.4 12.4-.4 18.5-.6l47.7-1.4c11.3-.1 22.7 0 34.1.1a1.5 1.5 0 0 0 1.4-1.5c.3-12 .5-24.1.8-36.1.3-1.1.6-2.1.8-3.2a1.9 1.9 0 0 0-1.8-2.4 1250.6 1250.6 0 0 0-172 4.4 1.9 1.9 0 0 0-1 .5c-4 .2-4.2 12.3-4.4 14.4-1.6 18-1.2 36.3-1.2 54.4.1 36.8 1.2 73.5 3.1 110.2a1.1 1.1 0 0 0 .3.8q1.1 48.6 4.2 97c.2 1.9 2.7 2.3 3.4 1 3.6 2.6 9.6 1.8 13.4 1.9 18.2.4 36.4.5 54.6.4 27.2-.3 54.3-1.3 81.4-2.8a56.9 56.9 0 0 0 8.3-.6c6.9-.4 13.9-.8 20.9-1.4a1.4 1.4 0 0 0 1.4-1.4c-.2-6.5-.5-12.9-.7-19.4zm-182.7-55.7c-.7-19.3-1.1-38.6-1.3-57.9q-.2-33.1.4-66.2c.2-11.7.6-23.3 1-34.9l.6-16.6c.2-3.4-.5-8.4.4-12.4a2.3 2.3 0 0 0 1.4.1q-2.6 93.9-2.5 187.9zm52.5-59.7c10.7-.4 21.5-.3 32.3.3 6.5.3 16.2 1.9 22.3-1.6l.4-.3v.7a11.8 11.8 0 0 1-8.3 2.2 93.7 93.7 0 0 1-10.6.1c-12.1-.1-24.1-.4-36.1 1.1z" fill="#fff"></path><path d="M313.3 750.7c-1.1-25.6-1.5-51.3-1.4-77 0-11.6.4-23.1.1-34.7-.1-2.2.1-5 .1-7.9.5-4.7.7-9.8-1.6-12.1h-.2a1.8 1.8 0 0 0-1-.9h-.2c-4.7-3.1-13-3.1-18-3.4-8.8-.3-20.8-1.2-29.4 1.1-.8.2-1.2.9-1.7 1.5l-.4.4a3 3 0 0 0-1.5 2.4c-.7 26.5 1 52.9 1 79.4 0 3.9-.1 7.9-.1 11.9-14 1-28.1 2.7-41.9 3.3-8.7.4-17.4 1.1-26.2 1.7a128.9 128.9 0 0 0-20.5.9c0-15-.2-30 .5-45s.2-32.2-.6-47.9c-.2-3.6-1.2-6.7-4.4-8.4-1.4-.8-3.1-.2-4.7.2a103.7 103.7 0 0 0-25.5.5c-4.7.6-10.7-1.5-14.7 1.2h-.7a2.3 2.3 0 0 0-2.1 1.5 2.2 2.2 0 0 0-1.9 2.1c-.8 16.2 1.3 32.2 1.6 48.4.3 18.6.3 37.2.5 55.7.3 27.6-1.2 55.9 1.2 83.7-.3 5.1-.4 10.2-.4 15.2-.2 24.7.2 49.5 1.2 74.1a5.3 5.3 0 0 0 2.8 2.6c8.1 1.5 16.4 1 24.8.7 3.5.4 7.1.6 10.6.9a5.8 5.8 0 0 0 2.3-.2 7.1 7.1 0 0 0 2.9 0 57 57 0 0 0 8.3.4 3.1 3.1 0 0 0 3.1-3.1c1.3-17-.1-34.7-.3-51.7-.3-19.1-.8-38.1-1-57.1 0-12-.5-23.8-1.2-35.7l14.7-.5c11.8-.4 23.8-.1 35.6-.8s21.9-1.9 32.6-3.2l2.9-.2c-.1 9.9-.2 19.9.1 29.9.6 27.1 2.1 54.3 2.3 81.5 0 10.9 1.3 21.7 1.5 32.6a6.9 6.9 0 0 0 1.1 3.8h-.4a1.3 1.3 0 0 0 .3 2.6c3 .2 5.9-.1 8.9-.1h1.7c8.1.3 16.1-.8 24.2-.2 5.1.3 12.3-.8 17.1.9a2.1 2.1 0 0 0 2.7-.8 2.1 2.1 0 0 0 1.1-1.7c3.2-49.4-3.7-99.2-5.8-148.5zm-144 141.7c0-.1-.2-.1-.3-.2s.4-2.4.5-3.5c-.1 1.2-.1 2.5-.2 3.7zm-.5-50.2c-1-19.9-1-39.8-1-59.7q.3 8.3.3 16.5c.2 20 1.3 40.4 1.7 60.7-.3-5.9-.7-11.7-1-17.5zm94.6-219.6l2.1-.2a19.1 19.1 0 0 0-.1 7.9c.3 1.8.5 3.6.7 5.4.1 4.7.3 9.5.4 14.3.1 12.2 1.4 24.4 1.3 36.7 0 8-.2 16-.4 24l-3.2.2q.2-9.7 0-19.5c-.2-23-1.3-45.9-.8-68.8zm6.3 273.2c-4.2 0-3.1-16.6-3.3-20-1-12.3-.2-24.7-1-37-1.4-24.6-1.8-49.4-2-74 0-4.9 0-9.9.1-14.8l2.9-.2c0 3.3-.1 6.5 0 9.8.2 22.7.8 45.4 2 68.1.3 16.8 0 33.6.3 50.4.1 3.3-.9 12.6 1.4 17.7z" fill="#fff"></path><path d="M779.5 894.2c-4.6-6.3-9.3-12.4-14-18.4v-.3c-18.7-21.2-36.7-42.9-51.6-67-1.3-1.5-2.7-2.9-3.9-4.5l-3.3-4.5a77.7 77.7 0 0 0 31.6-16.3c27.2-22.9 42.3-71.8 27.8-103.9a101 101 0 0 0-38.9-45 133.6 133.6 0 0 0-38.5-13.1c-20.6-3.7-40.3-3.2-61-4l-6.1-.4-10 1c-9.9.9-26.5-3-34.4 4.5a2.2 2.2 0 0 0-1.1-.5c-.2 20.8-.7 41.7-1.3 62.5s.6 42.7.9 64.1c.8 41.2 3.1 82.5 5 123.7a3.8 3.8 0 0 0 .1 1c-.1 6 .1 12.1.2 18.2a20.9 20.9 0 0 1-.1 2.5 3.3 3.3 0 0 0 3.1 3.2c8.6.4 17.2 1.2 25.8 1 4.8-.1 9.8.8 14.7 1s8.8-1.9 13.6-1.7a2.8 2.8 0 0 0 2.9-2.9c-.5-4.6-.6-9.3-.7-14h.7c-.8-16.3-1.7-32.7-2.1-49 .3-8 1-15.8 1.1-23.8 10.6 12.8 21 25.8 31.7 38.5 12.7 15 26.8 28.2 37.8 44.5 2 3.3 4.4 6.9 7.3 7.2a2 2 0 0 0 1.4-.5c4.6 1.1 9 .6 14.2.7 14.2.2 29.1 2.9 43.2 1.9a3 3 0 0 0 2.7-2c1.3-.7 2.1-2.5 1.2-3.7zm-187.4-17.8v.2a6.5 6.5 0 0 1-4.7-5.7c-.6-7.7.7-15.7 1-23.5.6 4.2 1.2 8.5 1.7 12.7.7 6.4 3.2 9.9 5.6 15.9a1.9 1.9 0 0 0-3.6.4zm35.2-208.2h.3c.1 1.7.3 3.2.3 4.3-.2 10.9.6 21.7 1.3 32.6-1.2-12.4-1.6-24.6-1.9-36.9zm5.6 22c-.4-5.9-.3-11.8-.3-17.7 0-1-.2-2.6-.4-4.5 36.1-1 77.3-2.7 87.6 34.3 2.7 9.7.9 19.1-2.1 28.4-3.5 11-11.1 16.2-20.7 20.6-4.4 1.5-8.8 2.9-13.4 4-8.9 2-18 1.6-27.1 2.2-2.4.2-4.9.5-7.5.6l-12.7-1.4c-.4-9.7-.9-19.5-1.3-29.2-.5-12.5-1.2-24.9-2.1-37.3zm65.8 176.1c-1.8-2.7-3.8-5.3-5.7-7.9 5.5 5.1 12.6 10.1 18.1 15.6-4.8-.5-8.8-2.7-12.4-7.7z" fill="#fff"></path><g fill="#333"><path d="M500.6 241.7l2.6.8a6.5 6.5 0 0 0 7.1-2.9c4.3-8.5 11.3-25.2 8.7-34.6s-22.4-12.4-37.7-13a109.3 109.3 0 0 0-17.2-.4c-45.3-1.6-80.2 25-102 61.6-.5-7.5-1-15-1.4-22.5s-1.9-17.6-1.3-26.4c.4-4.3.3-8.8-3-12.1-9.7-9.7-28.7-3-39.8-1.1a3.6 3.6 0 0 0-2.7 3.5c.5 13.1 1.8 26.1 3.2 39.1.1 29 1.2 58.1.9 87.1-.6 43.9-.5 87.5 2 131.4 2 36 1.8 72.7 6.2 108.5.9 7.4 2.5 11.7 10.2 11.7 11.5 1.6 27.2 0 37.5-4.5 6.3-2.8 5.9-15.1 5.2-23.8 0-5.1-.3-10.3-.7-15.5-.1-7.7-.5-15.3-1-23-.7-29-1.9-58-2.2-87-.4-23.8-4.7-47.3-5.4-71-.4-10.2.3-21.7-.4-32.8 7.2-15.3 16.2-29.7 28.3-42.6s27-22.3 43.7-28.4c18.3-6.6 40-3.2 59.2-2.1z"></path><path d="M595.4 472c-10.2-.2-20.1-1.3-30.1.2-1.9.2-2.9 2.2-3 3.8-1.6 22.6-2.1 43.9-23.5 57-27 16.4-53.8-19.9-61.5-40.7s-9.4-44.9-10.9-67.6c-.5-8.3-2.8-13.4 6.7-14.6 6.8-.9 13.8-.8 20.6-.8 23.8-.1 47.5 3.6 71.4 3.6 8.9 0 27.5 3.7 29.9-8.8 1.2-6.1-1.4-13.9-2.1-19.8-1.4-10.8-3.2-21.4-6.6-31.8a68.1 68.1 0 0 0-10.4-19.5 102.8 102.8 0 0 0-37.5-43.5c-18-11.8-37.9-15-56.1-11h-3.5c-27.8 2-45.7 27.1-55.2 50.7-12.3 30.4-12.4 66.9-12.9 99.1s-.2 69.2 11.5 100.1 44.7 43.4 73.6 49.2c25.1 5 58.1 1 78.4-16 26.5-22 25.5-54 25.2-85.7a4.1 4.1 0 0 0-4-3.9zm-89.3-142.9c14.6 2.5 18.2 27.7 21.2 41.9-12.7.3-25.5-2.3-38.3-2.3-6.7 0-13.8.8-20.7.9 7.2-18.1 15.3-44.3 37.8-40.5z"></path><path d="M815.3 368.5c-4.9-25.3-19-48.4-35.5-67.8-18-21.1-44.4-31.9-67.9-45.6-27.5-16.1-50.1-42.4-36.2-71.2a42.6 42.6 0 0 1 5.3-8c6-7.2 19.5-10.1 28.2-12.9 17.5-5.8 37.1-5.6 55.2-3.4 9.1 1.2 12.8-5.9 13.9-15.5 1.6-5.2-.1-11.7-.1-17.2s.2-14.7-2.1-21.3a36.9 36.9 0 0 0 0-4.7c-.1-3-1.9-4.9-4.5-5.9-19.7-7.7-53.5-1.4-72.1 7.1-3.3 1.5-6.7 3.1-10 4.9a117.1 117.1 0 0 0-34.9 20.1c-39 32.5-65.8 98.3-26.7 140.5S744 327.4 751.5 393.4c.1 1 .2 2 .2 3-.3 4.5-.8 8.9-1.3 13.3-5.2 17.5-13.6 32.6-30.5 45.6-27.2 21-68.8 17.5-101.1 20a4.5 4.5 0 0 0-2.9 1.2 3.8 3.8 0 0 0-2.6 3.4c-1.1 28.7-2.8 61.7 4.4 89.6a4.9 4.9 0 0 0 5.5 3.9 1.6 1.6 0 0 0 1.2.2c51.9-5.5 104.7-11.4 143.3-50.3 18.8-19.1 33-46.6 42.4-71.4s10.2-56.7 5.2-83.4z"></path><path d="M964.1 323.3c-19.4-22.9-48.8-33.3-72.4-50.7-25.6-18.9-46.6-49.3-39.6-82.6s51.8-35.1 78.5-40.2c5.3-1 15-2.9 14.4-9.9-1.1-14.4-6.4-27.2-10.7-40.7a3.9 3.9 0 0 0-3.8-3c-15.8 1-30.2 7.9-45.2 12.3s-26.2 10.3-38.4 18.1a134.9 134.9 0 0 0-54.2 67c-9 25.1-4 53.6 10.8 75.3 15.7 23.2 45.3 37.2 67.4 53.4 27 19.7 51.1 43.7 53.4 78.8s-16.7 71.5-51.3 82.7c-13.8 4.5-28.3 3.1-42.6 2.2-3.4-.3-7.6-.5-11 .6h-2.8a5.1 5.1 0 0 0-4.8 3.6c-2.5 13.2.3 26.9.8 40.2.2 9.1-.4 21.1 3 30.2.1 6.2 4.5 6.9 12.9 8.2 24.6 3.7 54.1-3.7 76.6-15.8l3.8-1.9c26.1-13.6 46.5-37.5 61-62.7 27.2-47 30.8-121.9-5.8-165.1z"></path><path d="M170.5 180.9l.2-.3-1.2-1a4.5 4.5 0 0 1 1 1.3z"></path><path d="M181.3 190.3l1.3-.7-1.5-1a11.1 11.1 0 0 0 .2 1.7z"></path><path d="M252.1 147.9c-16.3-20-34.7-32.1-60.4-35.9-12.7-1.9-26.2-1.6-39-1.1l-16.9-.9c-5.6-.3-25.4-2.2-30 3.4-6.1 7.6-2.1 17-1.5 26.2 2.6 40.2 5.4 80.3 7.2 120.6 1.3 28.5-.9 59.4 3.1 88.3.5 14.2 2 28.4 2.3 42 .8 31.4 3.1 62.6 5 93.9 1.6 25 .8 51 5.5 75.7 1.8 9.6 8.6 11.3 16.6 10.8s14.8-1.1 20.8-2c3.1.2 6.5.2 8.8-2l.5-.9a5.6 5.6 0 0 0 1.8-4.3l.3-3.3c.5-10.3-.1-20.7-.1-31 0-28.4 0-56.8-.6-85.2 17-3.5 32.2-10 47.6-20 43.3-28.4 67.1-80.5 70.8-130.9 3.5-48.4-10.9-105.4-41.8-143.4zm-22.6 144.6c-10.1 17-20.6 33.6-30.5 50.7-3.4 6-13.8 31.7-24.8 20.6-4.9-4.8-4.2-15.5-4.3-21.7a52.4 52.4 0 0 1-.8-12.6c.1-2.7 0-5.4-.1-8l-.6-7.1c-1-10.9-3-21.8-3.2-32.7-.5-20.3-.6-40.5-1.9-60.6-.9-13.6-5.6-30.7-2.9-44.2 4.3-21.8 26.3.3 34.1 7.1 11 9.4 24.7 18.1 32.3 30.8 6.1 10.4 18.9 22.8 18.9 35.5s-9.2 30.6-16.2 42.2z"></path></g></g></g></svg>