<svg xmlns="http://www.w3.org/2000/svg" width="1038.5" height="1021.8" viewBox="-0.0003337860107421875 0.006320953369140625 1038.4151611328125 1021.782958984375" style=""><g><title>iconsl85_324803502</title><path d="M355.3 298.1c14.4-9.1 22.2-24.1 30.8-38.4 35.2-57.6 69.6-116.4 108.6-171.6 12.6-17.9 26.7-36.3 44.5-49.5 6.4-4.7 13.4-8.9 21-11.3a59.3 59.3 0 0 1 14.5-2.3c2.1-.1 7.6 1 3 0 3.7.8 4.4 1.4 8.7 5.7 18.4 18.7 30.2 48.6 40.4 73.2 32.1 77.1 55 158.2 77.3 238.5 1.6 5.6 6.6 8.9 12.2 9.2 42 2.6 84.9 18.2 124.4 31.6 48 16.4 96.8 34.7 140.4 60.9 9.7 5.9 27.6 14.8 31.9 26.3.4 1.1 2-1.2-1.9 2.7s-11.3 9.4-17.4 13.6c-41 27.6-86.2 49.6-129.8 72.7-51 26.9-104.3 52.6-151.2 86.4-4.2 3-7.9 8.7-5.8 14.2a786.9 786.9 0 0 1 47.6 188.7c3.8 30.7 8 61.8 8.5 92.7.2 15.8 1.6 40.4-12.4 51.4-8.6 6.8-25.6 3.5-38.7-.6-30.4-9.6-58.3-27.6-84.4-45.2-59.1-39.6-113.6-85.9-166.9-132.7a13 13 0 0 0-15.2-2c-65.9 31.9-134.3 54.8-204.8 74.1-30.6 8.4-61.8 17.8-93.5 21.3-13.7 1.5-34.9 1.7-42.3-6.9s-5.6-28.1-2.4-42.5c7.9-35.5 24.6-69.1 41.4-101.2 35.6-67.8 77.8-132.2 120.8-195.5 3.8-5.7.9-13.8-4.6-17.1-61.1-38-122.8-76.9-178.2-123.1-19.7-16.4-48.6-38.9-56.7-63.1-1.6-4.8-.6-2.8-1.2-6.9-.1-1.1 1.1-2.2.5-1.9s-1.4.3 2.4-1c6.2-2.2 12.3-4.5 18.8-6.2 66.6-17.2 138-21.7 206.5-25 35.5-1.7 71.9.2 103.2-19.2 13.7-8.5 1.1-30.2-12.7-21.7-30.6 19-69.5 14.6-104 16.5-41.6 2.4-83.1 6.6-124.3 12-28.3 3.8-57.7 7.1-84.9 15.8C-31.8 340.3 17 396.9 46 423.5c60.5 55.4 132 99.6 201.4 142.6l-4.5-17.1c-43 63.3-85.2 127.6-120.8 195.5-18.2 34.7-36.8 71.8-44.7 110.5-3.8 19.1-5.8 41.5 5.7 58.4 24.7 36.2 87.1 16.9 120.5 8.7 87.6-21.4 173.2-48.8 254.5-88.1l-15.3-2c52.7 46.2 106.5 91.7 164.2 131.4 30.3 20.9 62.8 41.8 98.2 53 17.5 5.5 38.7 8.9 55.7-.5 39.3-21.7 27.4-87.5 23.8-123.2-8.5-82.2-23.7-162.1-53.6-239.4l-5.7 14.2c46.2-33.3 98.6-58.7 148.9-85.2 47.5-25.1 98.3-48.4 141.5-80.6 9.7-7.3 22.1-16.2 22.6-29.5s-11.8-26.1-22.1-34.4c-39.4-31.4-90.5-50.1-137.2-67.5-51.4-19.1-107.6-40.4-162.8-43.8 4 3.1 8 6.2 12.1 9.2-21.7-77.9-44.2-156.4-74.5-231.5-12.2-30.2-25-64.1-47.3-88.6-20.6-22.8-50.4-18.1-75.4-1.9-34.1 22.2-57.2 59.1-78.8 92.5q-34.8 54-68.4 108.8c-10.3 16.8-20.1 33.9-30.9 50.3-4.6 7-5.3 7.8-10.5 11.1-13.6 8.7-1 30.5 12.7 21.7z" fill="#dfa843" data-name="Layer 2"></path></g></svg>