<svg xmlns="http://www.w3.org/2000/svg" width="1062.3" height="547.6" viewBox="0 0 1062.3 547.6">
  <title>banner28_168777900</title>
  <g id="Layer_2" data-name="Layer 2">
    <g id="Layer_2-2" data-name="Layer 2">
      <g id="banner28_168777900">
        <rect x="20.4" y="482.3" width="32.6" height="32.63" fill="#0f3"/>
        <rect x="45.1" y="367.4" width="139.9" height="32.63" fill="#0f3"/>
        <rect y="184" width="139.9" height="32.63" fill="#0f3"/>
        <rect x="1029.7" y="482.3" width="32.6" height="32.63" fill="#90c"/>
        <rect x="888" y="437.3" width="139.9" height="32.63" fill="#90c"/>
        <rect x="888" y="224.1" width="139.9" height="32.63" fill="#90c"/>
        <path d="M985.9,168.6V334.8h-56v32.6h56V507a40.6,40.6,0,0,1-40.7,40.6H166.5A40.5,40.5,0,0,1,125.9,507V483.1h13.9V450.5H125.9V168.6A40.6,40.6,0,0,1,166.5,128H268.9L221.1,0H249L419.5,128H945.2A40.7,40.7,0,0,1,985.9,168.6Z" fill="#90c"/>
        <path d="M889.3,128H363.5L221.1,0h-28L213,128H110.6a40.7,40.7,0,0,0-40.7,40.6V450.5h69.9v32.6H69.9V507a40.6,40.6,0,0,0,40.7,40.6H889.3A40.5,40.5,0,0,0,929.9,507V168.6A40.6,40.6,0,0,0,889.3,128Z" fill="#0f3"/>
        <path d="M957.9,168.6V334.8h-28v32.6h28V507a40.6,40.6,0,0,1-40.6,40.6H138.5A40.6,40.6,0,0,1,97.9,507V483.1h41.9V450.5H97.9V168.6A40.6,40.6,0,0,1,138.5,128H241L221.1,0,391.5,128H917.3A40.6,40.6,0,0,1,957.9,168.6Z" fill="#fff"/>
        <rect x="409.6" y="55.8" width="32.6" height="32.63" fill="#90c"/>
      </g>
    </g>
  </g>
</svg>
