<svg xmlns="http://www.w3.org/2000/svg" width="1062.3" height="763.6" viewBox="0.04481840133666992 -0.004153367131948471 1062.255126953125 763.5912475585938" style=""><g><title>banner36_128330006</title><g fill="#c3b4d2" fill-rule="evenodd" data-name="Layer 2"><path d="M580.7 2.8c-.6.9-1.2 1.7 0 1.9-6.9 1-6.4 3.4-11.4 1 3.2 1.9.8 2-2.8 1.8 0-.9 1.2-.7 1.9-.9s-1.2-.7-1.9-.9c1.3-3.7 7.4.4 12.3-1-.2-1.1-1.7-.8-2.9-.9-3-1.3 3.4-1 4.8-1z"></path><path d="M550.5 6.6c-.2-2 3.3-.4 4.7-.9.2 2-3.3.4-4.7.9z"></path><path d="M540.1 7.5c-.1 2.1-2.3 2.1-4.7 1.9.8-1.4 2.4-2 4.7-1.9z"></path><path d="M551.4 7.5c-9 2.8-12.5-1 0 0z"></path><path d="M584.4 9.4c3.1.4 5.1 1.8 8.5 1.9-1 1.2-10.2 2.7-8.5-1.9z"></path><path d="M594.8 11.3c2.9-3.5 3.2 2.9 0 0z"></path><path d="M575 11.3c-.1 4-7.2.9-10.4 1.9 2.6-3 5.7-.4 10.4-1.9z"></path><path d="M633.4 16c-3.5 3.3-4.7-2.5 0 0z"></path><path d="M558 17c.4-2.1 4.7-.4 6.6-1-.4 2.1-4.6.4-6.6 1z"></path><path d="M591 17c1.9 1.6 1.9-.7 3.8.9.3 1.7-5.3 1.7-3.8-.9z"></path><path d="M594.8 20.7c-3.6 3.1-7.7.8-13.2 1-1-2 9.5-.5 13.2-1z"></path><path d="M565.6 22.6c6-3.3 5.7 2.3 0 0z"></path><path d="M983.1 26.4c-2 .6-3-2.7-2.8.9-6.7-.3-6-1.1-11.3 1 1-1.2.8-2-1-1.9 0-3.1 3.6-.9 5.7-.9s8.3-3.5 9.4.9z"></path><path d="M537.3 26.4c.4-2.1 4.6-.4 6.6-.9-.4 2.1-4.6.3-6.6.9z"></path><path d="M961.4 26.4c-.1-2 3.4-.4 4.8-.9-.9 1.6-3.3 2.4-4.8.9z"></path><path d="M984.1 27.3c.1-.2 2-1.7 2.8-.9s-3.7 2.6-2.8.9z"></path><path d="M558 27.3c3.3 2.5-4.8 2.3 0 0z"></path><path d="M962.4 29.2c0 .9-1.2.8-1.9 1s1.2.7 1.9.9c-1 2.8-8.4-.9-9.4 1.9-2.3-2.9 7.8-1.6 9.4-3.8z"></path><path d="M972.8 30.2c-2.4 1.4-5.8 1.8-9.5 1.8-.1-3.9 6.6-.9 9.5-1.8z"></path><path d="M616.5 32c-8.4 3.4-4.2-2.1 0 0z"></path><path d="M606.1 33c2.9-3.5 3.2 2.9 0 0z"></path><path d="M986.9 33.9c-.3-1.5 5.1-1.3 2.8 1 .4-.4-2.8-1-2.8-1z"></path><path d="M972.8 34.9c-.3-2.3 2.7.3 2.8.9s-2.6 1.2-2.8-.9z"></path><path d="M972.8 35.8c.9 3.2-3 1.5-4.8 1.9.8-1.4 3.1-1.4 4.8-1.9z"></path><path d="M945.4 38.6c-5.5 3.3-6.6-2.2 0 0z"></path><path d="M995.4 40.5c-10 3.2-9.3-1.8 0 0z"></path><path d="M887 48.1c.2-1.1 1.9-.7 1.9-1.9 31.6-1.6 54.8-3.9 82.9-5.7.4 4.1-9.1 2.7-12.2 2.9-6.5.4-13.9 1.2-19.8.9-.2.9-4.2 2.5-1.9 2.8-.1 2.1-4 .4-5.7 1 .3-1.3 2.4-.8 3.8-1-1.3-3.3-6.6-.2-8.5 0a12.1 12.1 0 0 0 0-1.9c-1.2.1-2.7 3.6-3.8 1-1.3.2-.3 2.8-1.8 2.8-3.4-.1.1-1.7-2.9-2.8a39.9 39.9 0 0 1-21.7.9c.4 2.3-8 3.6-10.3 1z"></path><path d="M980.3 40.5c.8.6 1.7 1.2 1.9 0 3.9 1.1-3.4 4-1.9 0z"></path><path d="M615.5 43.4h-6.6c.8-1 6.9-4 6.6 0z"></path><path d="M620.2 41.5c-2 2.9-6-1.1 0 0z"></path><path d="M597.6 43.4c.1-2.1 4-.4 5.7-1-.1 2.1-4 .4-5.7 1z"></path><path d="M608 42.4c-2.1 2.9-6-1.1 0 0z"></path><path d="M608 44.3c1.2.3 1.5 1.7 2.8 1.9s-1.1.7-1.9.9c2.4 3.2 8.3-2.7 8.5 2.9-2.2 0-2.8-1.7-5.6-1-.2 3.9 6.5 1 9.4 1.9.2 3-9.6 0-12.3 1.9-2.3-.4 0-3.7 1.9-2.8a6.5 6.5 0 0 0-6.6 0c-3.3-1.6 1.9-2.5 3.8-1.9-.2-1.1-1.7-.8-2.8-1-.4-2.2 4.3.5 2.8-2.8z"></path><path d="M592 46.2c.9-2.1 6.3-.8 5.6 1.9-2.9.4-2.1-2.9-5.6-1.9z"></path><path d="M586.3 50c.1-.1-.1-1 0-1 4.5-.8-4.5 6.1 0 1z"></path><path d="M891.7 50.9c-2.1 2.3-6.5 2.3-9.4 3.8.3-4.1 4.7-4.1 9.4-3.8z"></path><path d="M889.8 57.5c-.6 1.3-2 1.8-3.8 1.9-.9-2.9 2.1-1.7 3.8-1.9z"></path><path d="M854.9 61.3c-3.8 1.5-8.7 1.9-14.1 1.9 2.7-3.7 9.9-2 14.1-1.9z"></path><path d="M930.3 61.3C928 64 922 63 917.1 63.2c2.3-2.8 8.4-1.7 13.2-1.9z"></path><path d="M901.1 63.2c-.8 1.4-2.4 2-4.7 1.8.1-2 2.4-2 4.7-1.8z"></path><path d="M845.5 64.1c1.8 1.8 3.5.3 5.7 0 .5 2.1-6.6 3.4-5.7 0z"></path><path d="M894.5 64.1c-2 2.9-6-1.1 0 0z"></path><path d="M810.6 65c-4.6 2.6-4.9 1.1-12.2 1.9 1-2.9 6.7-1.4 12.2-1.9z"></path><path d="M874.7 66.9c2.9-3.9 13-1.5 3.8-.9-1.7.1-2 1-3.8.9z"></path><path d="M866.2 66.9c-.1 2.1-4 .4-5.6 1 1.3-2.4 3.2-1.7 5.6-1z"></path><path d="M954.8 66.9c-4-.8-5.3 1-5.6 1-3.9-1.1 11.2-3.8 5.6-1z"></path><path d="M885.1 67.9c-6.8 2.8-10.8-1.1 0 0z"></path><path d="M924.7 68.8c.7-2.1 5.3-.4 7.5-.9-1.8 3-4.2.6-7.5 2.8.6-.8 1.1-1.7 0-1.9z"></path><path d="M805.9 68.8c-1.4 1.4-.3 5.4-3.7 4.7 13.2 1.6-4.6 3.1-7.6 2.8 2.6-2.3 3.7-.7 6.6-1.8-4-2.7-10.4.2-15.1 0-.1 2 3.4.4 4.7.9-.9 1.9-3.6 2-6.6 1.9 1.5-2.5 1.1-2.9-1.8-1.9.6-3.1 3.7-2.3 1.8-5.7 2.8.1 2.8 2.9 4.8 3.8-.4-3.2 2.8-.3 5.6-.9s6.8-5.5 11.3-3.8z"></path><path d="M810.6 69.7c.4 2.7-3.5.9-3.7 2.9-2.3-2.9 1.5-2.2 3.7-2.9z"></path><path d="M860.6 69.7c-4 2.9-8.1-1.1 0 0z"></path><path d="M888.9 70.7c.2 2.9-4.7 1.4-6.6 1.9s-.8 1.8-1 1.9-3.4-1.9-6.6-1-5.6 2.8-5.6-1.9c7.6.7 12.7-1.1 19.8-.9z"></path><path d="M930.3 71.6c-2 2.9-6-1.1 0 0z"></path><path d="M808.8 73.5c1.8 1.6 1.1-.1 3.7 0 .5 1.9-4.7 3.4-3.7 0z"></path><path d="M792.7 74.5c1.7.7.2 1.7 0 2.8-1.7-.7-.1-1.7 0-2.8z"></path><path d="M772.9 77.3c1-2.1 6-.4 8.5-1-1 2.2-5.9.4-8.5 1z"></path><path d="M859.6 78.2c-.1-2 3.4-.4 4.8-.9.1 2-3.4.4-4.8.9z"></path><path d="M870 80.1c-.1 2.1-2.4 2-4.7 1.9.8-1.4 2.4-2 4.7-1.9z"></path><path d="M887.9 82.9c-.8 2-2.8 2.9-5.6 2.9.8-2 2.8-2.9 5.6-2.9z"></path><path d="M827.6 88.6h2.8v1.9h-2.8z"></path><path d="M926.6 90.5c.9 3.2-3 1.5-4.7 1.9.8-1.4 2.3-2.1 4.7-1.9z"></path><path d="M956.7 92.4c-4.7 1.9-9.1.9-13.2 1.9 2.1-3.7 10.3-1.7 13.2-1.9z"></path><path d="M953.9 97.1c3-1.1 2.3 1.5 3.8 1.9-.6 2.3-4.8.5-3.8-1.9z"></path><path d="M960.5 99c-.3-1.7 5.3-1.7 3.8.9-1.7.1-2-1.1-3.8-.9z"></path><path d="M970.9 98c-4 2.9-8.1-1.1 0 0z"></path><path d="M972.8 101.8c7.6.1-10.3 1.5 0 0z"></path><path d="M915.3 102.7c.4-2.1 4.6-.3 6.6-.9-1.8.8-2.6 2.4-4.8 2.8.4-1.6-.7-1.8-1.8-1.9z"></path><path d="M937.9 104.6c-.2-2 3.3-.4 4.7-.9-.2 2.9-3.4 2.9-5.7 3.8-.5-1.9 5.6-2.6 1-2.9z"></path><path d="M987.8 105.6c3.3 2.4-4.8 2.2 0 0z"></path><path d="M974.6 106.5h1.9v1.9h-1.9z"></path><path d="M977.5 107.5c9.6-3.3 4.7 2 0 0z"></path><path d="M961.4 108.4c.7-1.8 11.9-1.3 9.5 0-5.9-.1-5.4 1.3-9.5 0z"></path><path d="M991.6 115.9h-7.5c-4-1.3 8.3-.9 1.9-1.9 1.6-1.9 6.6-3.1 5.6 1.9z"></path><path d="M959.6 114c1.3-2.4 5.7-.2 7.5 0-1.7 2.9-4.5-1-7.5 0z"></path><path d="M942.6 115h1.9v1.9h-1.9z"></path><path d="M982.2 115c.9 3.4-3.7 1.3-5.7 1.9 1.2-1.4 3.3-1.8 5.7-1.9z"></path><path d="M956.7 129.1c2.3-4 15.7-1.3 3.8-.9-1.7 0-2 1-3.8.9z"></path><path d="M948.2 129.1c-.1-2 3.4-.4 4.8-.9.1 2-3.4.4-4.8.9z"></path><path d="M989.7 132.9c.4 3.8-5.9 1-8.5 1.9-1.6-1.5 6.6-.9 8.5-1.9z"></path><path d="M958.6 148.9c-2.1 2.9-6-1.1 0 0z"></path><path d="M938.8 149.9h1.9v1.9h-1.9z"></path><path d="M944.5 167.8c-6.8 2.8-10.8-1.1 0 0z"></path><path d="M962.4 170.6c3 1.1 2.1.1 5.6 0 1.4 2.9-7 2.9-5.6 0z"></path><path d="M972.8 170.6c-.3 1.4-2.9.3-2.9 1.9-3-1.1.9-2.7 2.9-1.9z"></path><path d="M977.5 170.6c-2.1 2.9-6.1-1.1 0 0z"></path><path d="M963.3 179.1c10.5.2-13 1.4 0 0z"></path><path d="M972.8 180c-1.7-1.7-2.4.8-5.7 0-1.4-2.9 7-2.9 5.7 0z"></path><path d="M953.9 195.1c-2.1 2.9-6-1.1 0 0z"></path><path d="M1055.7 196c.6-2 5.8-.8 6.6 0-1.1 2.6-4.9 0-6.6 0z"></path><path d="M987.8 209.2c1.6-.2 1.7.9 2.9 1 .3 1.8-4.3 1.4-2.9-1z"></path><path d="M992.5 211.1c.9-.1.9.4 1 1 4.2-.3 8.2-1 12.2.9h-7.5c-1.9-.6-6.5 1.5-5.7-1.9z"></path><path d="M1047.2 211.1c-2.1 2.9-6-1.1 0 0z"></path><path d="M1048.2 212.1c-.2-2.1 3.3-.5 4.7-1 .1 2.1-3.4.5-4.7 1z"></path><path d="M194.2 215.8c-1.5 1.7-2.6 3.7-6.6 2.9.2-3 3.7-2.6 6.6-2.9z"></path><path d="M59.4 219.6c2.9 3.2-4.4 1.5-4.7 2.8-4.1-2.9 4.8-.7 4.7-2.8z"></path><path d="M198 220.6c-3 .6-7 3.6-9.4 1.8 1.3-2.2 8-2.6 9.4-1.8z"></path><path d="M147.1 220.6c2.7 2.1-4.1 2.7-6.6 2.8-.4-3.5 5.9-.4 6.6-2.8z"></path><path d="M170.7 220.6c-2.1 2.8-6.1-1.1 0 0z"></path><path d="M172.5 222.4c-3.1 1.7-6.9 2.5-11.3 2.9.2-1.1-.2-1.7-.9-1.9 1.6-2.6 6.8 1.2 12.2-1z"></path><path d="M134.8 223.4c.3 2.5-1.3 3.1-3.7 2.8-.3-2.5 1.3-3.1 3.7-2.8z"></path><path d="M151.8 224.3c2.3 2.6-2.1 2.8-4.7 1.9-.4-2.6 5.1.7 4.7-1.9z"></path><path d="M972.8 224.3c-2.1 2.9-6.1-1.1 0 0z"></path><path d="M171.6 225.3c-3.5 2.8-8.6 3.9-15.1 3.7 3.6-2.6 10.1-2.4 15.1-3.7z"></path><path d="M116.9 227.2c-1.5 2.2-6.7.8-8.5 2.8-2.4-2.5 5.2-3 8.5-2.8z"></path><path d="M996.3 230.9c.7-2.1 5.3-.3 7.6-.9-.7 2.1-5.3.3-7.6.9z"></path><path d="M1011.4 230.9c.2 2.1-3.3.5-4.7 1 .6-3 2.5-1.3 4.7-1z"></path><path d="M106.6 232.8c-1 2.2-4.4 2-7.6 1.9 1.8-1.4 4.5-1.8 7.6-1.9z"></path><path d="M992.5 232.8a2.6 2.6 0 0 1-2.8 1.9c-.4-2 1.4-1.8 2.8-1.9z"></path><path d="M976.5 233.8h4.7c1.5 2.8-6.1 2.8-4.7 0z"></path><path d="M71.7 236.6c-2.2 1.8-6 2.2-9.4 2.8 2-2.1 5.1-3 9.4-2.8z"></path><path d="M972.8 240.3c-.2-2 3.3-.4 4.7-.9.1 2.1-3.4.4-4.7.9z"></path><path d="M178.2 242.2c-.8 1.4-2.4 2.1-4.7 1.9.8-1.4 2.4-2 4.7-1.9z"></path><path d="M171.6 243.2c-.1 2-2.4 2-4.7 1.9.8-1.4 3-1.4 4.7-1.9z"></path><path d="M990.7 244.1c2.1-.5 1.3 1.8 2.8 1.9-.4 2.3-4.3.7-2.8-1.9z"></path><path d="M162.2 246c.3-1.3 2.3-.8 3.7-.9-.3 1.2-2.3.7-3.7.9z"></path><path d="M969 250.7c.1-2.1 4-.4 5.6-.9-.1 2.1-4 .4-5.6.9z"></path><path d="M938.8 251.7c.1-2.1 4-.4 5.7-1-.1 2.1-4 .4-5.7 1z"></path><path d="M946.4 251.7c.4-2.1 4.6-.4 6.6-1-.4 2.1-4.7.4-6.6 1z"></path><path d="M86.8 252.6c-1.3 2.2-5.1 1.8-7.6 2.8.4-3.1 4.6-2.3 7.6-2.8z"></path><path d="M890.8 252.6c-.2 2.1-2.4 2-4.8 1.9.8-1.4 3.1-1.4 4.8-1.9z"></path><path d="M900.2 253.5c.1-2 4-.4 5.6-.9-.1 2.1-4 .4-5.6.9z"></path><path d="M875.7 254.5c-.2-2.1 3.3-.4 4.7-1 .1 2.1-3.4.5-4.7 1z"></path><path d="M864.4 254.5c-3.1 2.9-7.1-1.1 0 0z"></path><path d="M841.7 257.3c-1 1.9-7.2 1.1-8.4 0 1-1.9 7.2-1.1 8.4 0z"></path><path d="M1007.6 258.3h2.9v1.8h-2.9z"></path><path d="M973.7 261.1c.5-3.2 4.5-1.5 6.6-1-1.8 2.4-4.1-1.1-6.6 1z"></path><path d="M1034 272.4c-2.1 2.9-6-1.1 0 0z"></path><path d="M1012.3 277.1c7.4.9 21.1-.2 28.3 0-4.9 4.2-11.7 1-16 .9s-9 3.7-12.3-.9z"></path><path d="M1045.3 280.9c-2 2.9-6-1.1 0 0z"></path><path d="M969 293.1a4.5 4.5 0 0 0 2.8 1c-.2.7-.9.9-.9 1.9H969z"></path><path d="M969 305.4c1 3.2-2.9 1.5-4.7 1.9.1-2.1 2.3-2.1 4.7-1.9z"></path><path d="M1012.3 308.2c-2.1 4.3-7.3 1.6-11.3 1.9s-9.7 2.1-14.1.9c-.6-.8-1.1-1.6 0-1.8 6.7-2.2 17.2-.4 25.4-1z"></path><path d="M1015.2 309.2c3.5-3.3 4.8 2.5 0 0z"></path><path d="M969.9 317.6c-6.7 2.9-10.8-1 0 0z"></path><path d="M920.9 324.2c0 1.3-12.1 1.4-12.2 2.9-2.7-2.4 4.3-3.2 7.5-2.9-.9-3.1-1.8-.4-4.7-.9-1.4-3.6 4.2-.2 2.8-3.8 3.1.7 1.3 6.2 6.6 4.7z"></path><path d="M920.9 321.4c-3.1 3-5.8-2.3 0 0z"></path><path d="M906.8 325.2c-2.9 3.5-3.2-2.9 0 0z"></path><path d="M927.5 325.2c0-1.5 7-2.1 5.7.9-1.1-1.1-3.4-1-5.7-.9z"></path><path d="M924.7 337.4c-4.2 3.5-3.6-2.6 0 0z"></path><path d="M868.1 338.4h3.8v1.9h-3.8z"></path><path d="M876.6 338.4c-.2 1.6-1.6 2.1-3.8 1.9-.9-2.9 2.1-1.7 3.8-1.9z"></path><path d="M969 338.4c-.6.9-2.2.9-1.9 2.8h-1.9c.2-.8-.4-.9-.9-.9.1-2.1 2.3-2.1 4.7-1.9z"></path><path d="M864.4 339.3c1.5-.2 1.6.9 2.8 1 .4 1.8-4.3 1.3-2.8-1z"></path><path d="M862.5 340.3c-2.1 2.8-6.1-1.1 0 0z"></path><path d="M883.2 344c-2.1 2.9-6-1.1 0 0z"></path><path d="M919 345c.2 2-3.3.4-4.7.9.9-1.6 3.3-2.4 4.7-.9z"></path><path d="M100 347.8c.1-2.1 4-.4 5.6-.9-.1 2-4 .4-5.6.9z"></path><path d="M686.2 349.7a2.7 2.7 0 0 1-2.8 1.9c-.4-2 1.3-1.8 2.8-1.9z"></path><path d="M875.7 350.6c-.2-1.5 6.1-1.9 4.7 1a6 6 0 0 1-4.7-1z"></path><path d="M888.9 350.6c-2.3 3.1-4.5-2.6 0 0z"></path><path d="M683.4 352.5c-2.1 2.9-6-1.1 0 0z"></path><path d="M834.2 353.5c-2.1 2.8-6-1.1 0 0z"></path><path d="M904 355.3c-2.1 2.9-6.1-1 0 0z"></path><path d="M914.3 355.3c-2.1 2.9-6-1 0 0z"></path><path d="M775.8 357.2c-2.1 2.9-6.1-1.1 0 0z"></path><path d="M917.1 359.1c5.1-.4-2.7 2.9-1.8 1-5.8.3-10.8.9-18.9.9-2.2-.6-6.8 1.2-7.5-.9 9.1-.3 19.9-1.6 28.2-1z"></path><path d="M886 361.9h-11.3c3.2-2.9 9.5-4.6 11.3 0z"></path><path d="M968 361c1 1.3-9 1.5-10.3.9 2.1-3.6 6-.4 10.3-.9z"></path><path d="M695.6 361a2.5 2.5 0 0 1 1.9 2.8c-1.3-.1-2.6-.1-2.8 1-3.4-1.5 2.2-1.4.9-3.8z"></path><path d="M915.3 361.9c-2.1 2.9-6.1-1.1 0 0z"></path><path d="M920.9 361.9c-3 2.9-7-1.1 0 0z"></path><path d="M949.2 363.8c.4-2.1 4.6-.4 6.6-.9-.4 2.1-4.7.4-6.6.9z"></path><path d="M970.9 364.8a3.5 3.5 0 0 0-4.7 0c.2 1.2 2.3.7 3.7.9-1.4 1.1-2.3 2.7-4.7 2.8 2.4-4.8-5.3-.2-3.8 0-1.2-.2-.2-1.2-.9-1.9s-4.8 1.1-3.8-1.8c6.5 3.5 10.2-5.1 14.2 0z"></path><path d="M929.4 364.8c8-3.2 6.7 1.9 0 0z"></path><path d="M935.1 366.6c-2.9 3.7-10.5 4.1-12.3 0 5.5 1.1 5.2-1.1 12.3 0z"></path><path d="M988.8 366.6c-8.2 2.8-11.5-1 0 0z"></path><path d="M947.3 372.3c-3 2.9-7-1.1 0 0z"></path><path d="M938.8 375.1c.4-2.1 4.7-.3 6.6-.9-.4 2.1-4.6.4-6.6.9z"></path><path d="M1000.1 380.8c3.3 1.6-1.9 2.4-3.8 1.9.3-3.8 2.9.7 3.8-1.9z"></path><path d="M972.8 382.7c.1-2.1 4-.4 5.6-1-.1 2.1-4 .4-5.6 1z"></path><path d="M1015.2 385.5c-2.1 2.9-6.1-1.1 0 0z"></path><path d="M1019.9 385.5c-2.1 2.9-6.1-1.1 0 0z"></path><path d="M934.1 399.6c1-2.1 5.9-.3 8.5-.9-.8 2.3-6.6 2.6-8.5.9z"></path><path d="M950.1 404.4c-2 2.8-6-1.1 0 0z"></path><path d="M960.5 404.4c-2.1 2.8-6-1.1 0 0z"></path><path d="M904 412.8c1.3.5 2.3 1.4 3.7 1.9-.6 2.3-4.7.5-3.7-1.9z"></path><path d="M482.6 463.7c3.3 2.5-4.8 2.3 0 0z"></path><path d="M478.9 465.6c-.9 2.6-7.8-.9-7.6 2.8 6.5.8 23-4.9 27.4-.9a152.8 152.8 0 0 1-36.8 4.7c.9-1.6 2.9-2.1 5.7-1.9-4.5-4.1 7.6-5.9 11.3-4.7z"></path><path d="M499.6 469.4c4.1-3.5 3.6 2.6 0 0z"></path><path d="M432.7 471.3c-.3 1.6-1.6 2.1-3.8 1.9.2-1.7 1.6-2.2 3.8-1.9z"></path><path d="M425.1 473.2c-.2 1.6-1.6 2.1-3.7 1.8.6-1.2 2-1.7 3.7-1.8z"></path><path d="M417.6 475c-.4 2.1-4.6.4-6.6 1 1.3-1.5 4.9-2.7 6.6-1z"></path><path d="M405.3 476c-.9 2.8-5.6 1.8-8.4 2.8.6-3.2 5-2.4 8.4-2.8z"></path><path d="M394 477.9a2.7 2.7 0 0 1-2.8 1.9 2.5 2.5 0 0 1 2.8-1.9z"></path><path d="M554.3 479.8h1.9v1.8h-1.9z"></path><path d="M424.2 481.6c-2.1 2.9-6-1 0 0z"></path><path d="M371.4 483.5c1.9 3.9-14.3 2.1-16 4.7 7.4.8 18.4-2.9 27.3-3.7.6 2-2.3 2.6-2.8 2.8-6.7 2.3-14.6 2.7-23.6 3.8-.6-1-2.1-1-1.9-2.9-4.8 2.1-7-.1-.9-.9 2.2-.6 2.5-3.1 4.7-3.8 5.4.1 13-.3 13.2 0z"></path><path d="M350.7 486.4c-2.1 2.8-6.1-1.1 0 0z"></path><path d="M341.3 488.2c2.8-3.4 3.1 2.9 0 0z"></path><path d="M466.6 488.2c1.7.7.1 1.8 0 2.9a4.5 4.5 0 0 0-2.8-1c.2-1.3 2.8-.3 2.8-1.9z"></path><path d="M327.1 490.1c-.1 2.1-2.4 2-4.7 1.9.8-1.4 3-1.4 4.7-1.9z"></path><path d="M461.9 490.1c-3.2 1.6-7.4 2.1-11.3 2.9 1.4-3.4 7.2-2.3 11.3-2.9z"></path><path d="M416.7 496.7c-1-2.1-4.4 1.3-7.6 0 5-3 13.7-2.8 17.9-1.9-4.2 4.9-16.7 1.5-20.7 6.6-.7-1.5-4.6.2-3.8-2.8a103.6 103.6 0 0 0 14.2-1.9z"></path><path d="M384.6 501.4c-3.3-1.6 1.9-2.4 3.8-1.9.7 2.6-4.5-.6-3.8 1.9z"></path><path d="M398.7 504.3c.4-1.3 1.7-1.5 1.9-2.9 5.7 1.7 13.7.8 2.9 1.9-1.4.2-3.2 1.8-4.8 1z"></path><path d="M411 504.3c2.9-3.5 3.2 2.8 0 0z"></path><path d="M311.1 505.2c.1-2.1 4-.4 5.6-.9-.1 2-4 .4-5.6.9z"></path><path d="M370.5 505.2c3.5-3.3 4.8 2.6 0 0z"></path><path d="M347.8 509.9c-.1-2 3.4-.4 4.8-.9.1 2-3.4.4-4.8.9z"></path><path d="M297.9 516.5c-2.1 2.9-6-1.1 0 0z"></path><path d="M313 532.5c-2.1 2.9-6.1-1.1 0 0z"></path><path d="M931.3 540.1c-3.3-2.4-8.4 0-12.3 0 5.1 3.2-6 1.4-9.4 1.9 4.2-1.3 2.1-3.5-2.8-2.9 1.2-2.8 4.6-.3 8.5-.9-.4.1 6.1-3.1 8.4-2.8s6.6 2.3 7.6 4.7zm-13.2 0a6 6 0 0 1-4.7-1c-1.5 2.9 4.9 2.5 4.7 1z"></path><path d="M933.2 546.7c-9.4.3-21.2.8-24.5-2.9 6.3-.8 17.7 1.1 24.5 2.9z"></path><path d="M918.1 553.3c-4.2 3.4-3.6-2.6 0 0z"></path><path d="M920.9 552.3c1 .3.7 1.9 1.9 1.9s-.4.9-.9 1H920a4.4 4.4 0 0 0 .9-2.9z"></path><path d="M886 553.3c-.8 1.4-2.3 2-4.7 1.9-.9-3.2 3-1.5 4.7-1.9z"></path><path d="M853.1 557c.2-1.2 2.3-.7 3.7-.9-.2 2.2-2.5 2.2-3.7.9z"></path><path d="M879.4 558c2-1.9 9.5-1.3 9.5 1.9-3-2-7.4-1.2-9.5-1.9z"></path><path d="M882.3 561.8c-1.1.1-.6.9 0 .9-5.4 3.1-9.3-2.7-15.1 0 4.6-4.8 8.5-.2 17-1.9-.4 1.1-1.7 2.4-1.9 1z"></path><path d="M913.4 563.6c-2.4 4.5-7.5-1.5-11.3 1 1.8-4.4 6.9.2 11.3-1z"></path><path d="M853.1 565.5c3.1 2.1 4.3-1.1 7.5 1-.5 1.3-8.5 2.3-7.5-1z"></path><path d="M927.5 574c-2.9 2.9-7.3-.8-11.3 0-1.4-1.8 9.5-1.1 11.3 0z"></path><path d="M901.1 580.6c-1 1.3-10.3 1.2-13.2.9 4.1-4.6 6.8-.6 13.2-.9z"></path><path d="M911.5 580.6a6.1 6.1 0 0 0 4.7.9c-.1 2.9-5.6 2.6-4.7-.9z"></path><path d="M923.7 583.4c1.3-2.1 6.6-.3 9.5-.9-.8 2.9-3.2 2.8 1.9 2.8-2 2.6-7-1.4-11.4-1.9z"></path><path d="M891.7 584.4c4.8.3 7.3 2 10.4 1.9a4.5 4.5 0 0 0-1 2.8c-.9 0-.7-1.2-.9-1.9-3 1.1-4.2-.6-7.6.9.2-1.6-1.1-1.9-.9-3.7z"></path><path d="M925.6 587.2a5.7 5.7 0 0 0 6.6.9c.8-.1.9.4 1 1s.3.9.9.9c-1.4 1.4-9.3 1.3-8.5-2.8z"></path><path d="M550.5 589.1a3.9 3.9 0 0 0-.9 2.8c-4.2-.6-5.4 1.6-9.5 1 1.2-5.2 7.3-.1 10.4-3.8z"></path><path d="M897.3 591.9c1.6-1.5 3-.4 4.8 0-.3 2.2-4.2.6-4.8 0z"></path><path d="M493 595.7c.2-1.4 7.8-2.2 6.6.9-2.9 1.4-4.2.5-6.6-.9z"></path><path d="M921.9 613.6c.7-2.1 5.2-.4 7.5-.9-.7 2.1-5.3.3-7.5.9z"></path><path d="M906.8 617.4c.6-3.5 3.7.2 7.5-1 2.5 1.7-5.5.7-7.5 1z"></path><path d="M495.8 619.2a2.7 2.7 0 0 0-3.7 0h-9.5c1-2.1 6-.3 8.5-.9.8.2.9-.4 1-.9s4.7-1 3.7 1.8z"></path><path d="M846.5 624c-.9 3.4-5.4-2-5.7.9-3.7-2.4 5.1-2.5 5.7-.9z"></path><path d="M882.3 627.7c.1-2.3 3.2-.2 3.7 0-.6 2.9-2-.9-3.7 0z"></path><path d="M260.2 628.7c-.6 1.2-2 1.7-3.8 1.9-.9-2.9 2.1-1.7 3.8-1.9z"></path><path d="M251.7 634.3c-4.6 3-13.2 1.9-19.8 2.9 5.5-2.1 12.3-2.9 19.8-2.9z"></path><path d="M867.2 640c-.6.8-11.8 3-12.3 0 3.5-2.6 7.9.5 12.3 0z"></path><path d="M874.7 640c2.7 2.6 12.2-1.5 13.2 2.8-5.9-1.5-11 1.5-13.2-2.8z"></path><path d="M843.6 643.8c-1.8 2.3-8 1.3-12.2.9 4-1.9 7.8-1.4 12.2-.9z"></path><path d="M847.4 645.6c.7-1.6 1.7-.1 2.8 0-.7 1.7-1.7.2-2.8 0z"></path><path d="M833.3 645.6c.9 2.9-2.1 1.7-3.8 1.9.2-1.6 1.6-2.1 3.8-1.9z"></path><path d="M839.9 649.4c.2-2.2 4.1-.5 4.7 0-.8 2.8-3.1-.6-4.7 0z"></path><path d="M848.3 649.4c1-2.9 3.2.4 3.8 1-1.5 3.4-1.4-2.2-3.8-1z"></path><path d="M256.4 652.2c-2.8 1.7-6.8 2-11.3 1.9 3-1.4 7-1.8 11.3-1.9z"></path><path d="M253.6 664.5c-2.1 2.9-6-1.1 0 0z"></path><path d="M838 667.3c-.8 1.4-2.4 2-4.7 1.9-1-3.2 2.9-1.5 4.7-1.9z"></path><path d="M786.1 673.9c2.4-.1 4.6-.1 5.7 1s-7 2-5.7-1z"></path><path d="M793.7 675.8c.1-2.1 4-.4 5.6-.9-.1 2-4 .4-5.6.9z"></path><path d="M832.3 676.7c-.1-2 3.4-.4 4.7-.9.2 2-3.3.4-4.7.9z"></path><path d="M231.9 684.3c-.8 1.4-2.4 2-4.7 1.9.1-2.1 2.4-2.1 4.7-1.9z"></path><path d="M787.1 684.3c2-.2 3 .8 2.8 2.8-.9-1-3.5-.3-2.8-2.8z"></path><path d="M858.7 685.2c.1-2.1 4-.4 5.7-.9-.2 2.1-4 .4-5.7.9z"></path><path d="M220.6 686.2c.3-1.3 2.4-.8 3.8-1-.3 1.3-2.4.8-3.8 1z"></path><path d="M801.2 685.2c-.9 1.9-3.6 2.1-6.6 1.9.9-1.9 3.6-2 6.6-1.9z"></path><path d="M248.9 689c-1.4.7-7 2.7-1 2.8-5.1.6-10.4-.9-18.8 0 1.9-1.5 12.9-3.1 19.8-2.8z"></path><path d="M818.2 690.9c-3-1.5-3.3-.3-6.6 0-1.2-3 7.8-3 6.6 0z"></path><path d="M858.7 691.8c-1.2 4.6-6.4-1.3-10.4 0-2.1-1.3 9.5-1.7 10.4 0z"></path><path d="M822.9 693.7c.3-1.3 2.4-.8 3.8-.9-.3 1.2-2.4.8-3.8.9z"></path><path d="M828.5 694.7c-2.8 3-9.9.7-12.2 1.8 1.1-3.6 8.3-1.1 12.2-1.8z"></path><path d="M838 696.5c-.3-1.6 5.3-1.6 3.7 1-1.7.1-1.9-1.2-3.7-1z"></path><path d="M789.9 697.5a2.7 2.7 0 0 1-2.8 1.9 2.5 2.5 0 0 1 2.8-1.9z"></path><path d="M237.6 704.1c.3-1.3 2.3-.8 3.7-1-.2 1.3-2.3.8-3.7 1z"></path><path d="M841.7 704.1c-4.1 3.4-3.5-2.6 0 0z"></path><path d="M793.7 705c1.8-.4 1.3 4.3-1 2.8V706c.8.1.9-.4 1-1z"></path><path d="M795.6 706c.3-2.4 4.3-.8 2.8 1.8-1-.6-1-2.1-2.8-1.8z"></path><path d="M846.5 707.8c3.2 2.5-4.9 2.3 0 0z"></path><path d="M795.6 710.7c.1-2.4 3.1-.3 3.7 0-.1 2.3-3.2.3-3.7 0z"></path><path d="M803.1 709.7h1.9v1.9h-1.9z"></path><path d="M185.7 710.7c-2 2.9-6-1.1 0 0z"></path><path d="M851.2 713.5c-.2-2 3.3-.4 4.7-.9.1 2-3.4.4-4.7.9z"></path><path d="M222.5 713.5c1.2 1.3-6.9 1.3-9.4 1.9 1.7-2 5.5-2 9.4-1.9z"></path><path d="M834.2 715.4c.1-2.1 4-.4 5.7-1-.2 2.1-4 .4-5.7 1z"></path><path d="M224.4 716.3c1.7-2.8 4.5 1.1 7.5 0-1.4 2.9-4.9.9-7.5 0z"></path><path d="M220.6 716.3c.2 5.1-5.1-.3-7.5 2.9-2.7-2.4 4.3-3.2 7.5-2.9z"></path><path d="M218.7 722a2.7 2.7 0 0 1-2.8 1.9c-.4-2 1.3-1.8 2.8-1.9z"></path><path d="M834.2 728.6c-.2 1.3-2.8.3-2.8 1.9-3.1-1.1.9-2.7 2.8-1.9z"></path><path d="M859.6 730.5c-2 2.8-6-1.1 0 0z"></path><path d="M814.4 737.1c2.6 1.7-6.3-.1-5.6 2.8-4.1-.4-9.8.9-12.3-.9-1.9.5-7.4-.7-2.8-1 10.3-.6 9.8-2 20.7-.9z"></path><path d="M816.3 738c2.4-2.7 6.3.9 8.5-.9v2.8c5.8 1 5.2-2.9 8.5 0-5.9 3.4-11.7-1.5-17-1.9z"></path><path d="M839.9 739c-.3-1.7 5.2-1.7 3.7.9-1.9.4-2.5-.7-3.7-.9z"></path><path d="M858.7 739c-6.7 2.8-10.8-1.1 0 0z"></path><path d="M741.8 742.7c1.6 1.3 6-.3 5.7 2.9-1.9-3.1-7 2.5-5.7-2.9z"></path><path d="M760.7 744.6c-6.7 3.9-8.8-3.8 0 0z"></path><path d="M264.9 763.5c-.2-2.1 3.4-.5 4.7-1 .2 2.1-3.3.4-4.7 1z"></path><path d="M528.8 3.8c10.9 2.4-5.6 1.8-6.6 2.8s.1-.8 0-1.9h-5.6c1.1 1.4 5 1.8 0 1.9.3 2.1 5.8-.1 2.8 2.8 2.8-1.4 2.6-2 5.6 0 1.2-.1.8-1.7 1-2.8 3 1.1 2.1.1 5.6 0-3 3 2.9.4 1.9 3.8-7.3-2.7-10.9 2.6-17.9.9 2.9 4.3 7.5.2 10.4 0s2.2 1.9 2.8 1.9 1.5-2 2.8-1.9 6 4.1 9.5 1c-.3-1.3-2.4-.8-3.8-1 .1-2.1 4-.4 5.7-.9-.2.7-1 .9-1 1.9 3 2 7.6-1.9 8.5-1.9-1.4 0 6.9 4.2 13.2.9-3.1 4.7-13.3 1.9-17 1.9a15 15 0 0 1-5.6 3.8c-2.2.3-1.1-2.8-2.9-2.9a2.6 2.6 0 0 0-1.8 2.9c1.3 2.4 5.7.2 7.5 0s2.5 1.9 3.8 2.8c9.6-.3 15-1.2 26.4-.9-1.9 2.5-9.4-.6-11.3 1.8.6 1 2.1 1 1.8 2.9-5.7.1-11.7-2.3-14.1 2.8-2.2-3.1-9.2-1.5-14.1-1.9-1.4 1.1-1 4.1-4.8 2.8.7-.9 2.2-.9 1.9-2.8-2.4 3-14 4.5-16 1.9-1 2.1.2.8-2.8 1.9.4 1 7.1 1.9 1.9 2.8 5.9 4.5 13.4-1.9 22.6 0 2 4 8.6 1.5 11.3 2.8 1.1 1.3.4 1.5 0 2.9 3.9-3.4 7.1-1.7 14.1-1.9.2-2.7-6.1 1.1-4.7-2.9 10.5-1.5 16.7 3.5 25.5-.9 3.8 4.3 9.7-2.1 15 1.9-5.5 2.3-23.1.9-24.5 2.8s-9.2 1.6-5.6-.9c-5.8.5-3.9 5-8.5.9-1.1.9.6 2.6-3.8 1.9 2.9-5.1-2.8 2.5-3.7-1.9-1.2.3-1 1.9 0 1.9-2.1.2-12.3 2.1-10.4-.9a2.6 2.6 0 0 0-1.9 2.8c20.4 2 53.7-1.6 77.3-1.9-.7 2.8-8.2 3.7-10.4 1.9-2.1 2.3-15.6 2.5-23.5.9.5 2 1.4 3.6 4.7 2.9-3 3.5-9.8-.4-17.9.9 1.2-1.3 2.8-1.9 0-2.8s-.8 2.3-1 3.7c-7.6.7-18.2-1.6-20.7 1.9 4.8-1.2 12.8.4 19.8-.9-.6 2 2.7 3-1 2.8 1.2 1.4 3.6 2.2 4.8 1 1.3-3.6-4.3-.2-2.9-3.8h3.8c-.5 2.6 1.4 10.5-1.9 7.5 2.1 3.9 17.9 1.4 16 1 8.9.7 30.6-.7 46.2-1.9 7.5-.6 14.9-3.1 18.9-1.9-.2-.1-.9 1.9-1 1.9 2.2-.2 4.6-2.5 6.6-2.8 8.7-1.6 19.2-.9 29.2-1.9 35.9-3.8 78.1-6.6 113.2-10.4 1.9.3.2 4.2 2.8 3.8s-2.9-.8-1-3.8c67.8-4.5 91.9-8.3 153.7-11.3-4 1.7-8.2 3.1-10.4 6.6 3.9 6 17.2-2.9 20.7 2.8-2.4-1.7-8-.4-8.4 2.8-10.1 1.6-13.2-1.8-19.8-.9-1.2-1.2-.4-1.5 0-2.8-11.3.2-15.8-3.5-24.5 1.9-5-2.1-7.9 1.5-9.5-1-.8.4-1.7.8-1.8 1.9 6.7 1.6 17.7-2.5 26.3 0-3.7 3.4.9-.1 2.9 1.9-.4 2.1-4.7.4-6.6.9.2-.7.9-.9.9-1.9h-4.7c4.6 3.3-6.5 2.4-11.3 2.9-1.3.1-2.5 1.7-3.8 1.9-5.4.5-12.2-.6-17.9 0-20.6 2.1-47.5 4.9-68.8 5.6-.9 0-.7 1.2-.9 1.9-3.3-.8-3.6 0-6.6-1.9-1.8 1.4-4.7 1.6-6.6 2.8-3.5-1.4 2.2-1.4.9-3.7s-5.2 1.5-2.8 1.9c-13.5 3.4-29.9 2.6-45.3 5.6 29.8 1.4 59.4-4.8 95.2-6.6 4.9-.2 8.5 0 12.3-.9s17-3.2 19.8 1.9c-1.7-.6-3.9-.5-4.7-1.9.1 1.5-8.9 3-12.3 2.8s-.7-1.1-4.7 0c-7.1 2-12.9-.5-19.8 2.8 2.2 1.8 5.1-.8 8.5 1-3.4 2.5-7.4 2.1-13.2 3.7-.2 2.1 3.3.5 4.7 1s-6.2.6-8.5.9c4-2.7-5.6-3.8-6.6-.9 1 1.1 2.9.6 5.7 0-.1 2.7-3.9 1.7-6.6 1.9 1.3 2.1 6.5.3 9.4.9-4.9 2.5-12 2.3-20.7 2.8-4.4.7-4.4-1.6 0-.9 2.3-1.4 7.3-.2 9.4-1.9s-.1-2.1 1.9-3.8c-6.3 1.1-19 .3-25.5 2.9 1-3.1 3.6-4.6 8.5-3.8-7.3-2.6-11 .8-19.8 0 3.7 2.5 6.1.6 11.3.9-7.3 6.2-16.5.2-23.5 4.8-2.4 0-1.2-.8-1-1.9-2.9-.7-1.8 2.6-4.7 1.9 2.5 3.9 7.2-.1 12.3.9-3.4 2.8-5.8.9-10.4 1.9 5.1 2.9 11.7-.9 17.9 0 3 .8-1.7 1.2-2.8.9-9.9 2.2-16 2.3-26.4 3.8 2.7 2.9 6.5-1 10.4 0-.3 1.3-2.4.8-3.8.9 0 2.8 5.3 2.3 6.6 1-3.2-.8-1-1.3 1.9-2.9 1.3.3.3 2.9 1.9 2.9-2.7 4.7-7.6 1.7-14.2 2.8 1.4 3 3.8 2.1 1 5.7 8.6-1.9 20.7-2.3 28.2-1.9.4 2.8-3 1.9-4.7 2.8.7-4.1-1.8.8-1.9-1.9-6.5 2.6-10.5 1.2-14.1 3.8.4 3.2 3.7-2.5 2.8 1.9 4.2-3.4 12.5-2.6 19.8-2.9 1.5 1-5.3 1.6-6.6 2.9 2.2 1.1 5.9 1.6 7.6.9s1.2-1.9.9-1.9c1.3 0 .4 1.8 1 1.9 2.3.5 7-1.4 11.3-1.9-1.2-1.3-4.5-2.8-4.7 0-2.2-.7 1.6-3.3 1.8-4.7h-4.7c-2.2-.4.5 4.3-2.8 2.8 3.9-3.9-6 .5-4.7-3.7 14.5-1.1 24.4-3.2 37.7-3.8-2.8 2.4-2.2 2.4-1.9 7.5 6.1.2 12.2-.5 13.2-2.8 1.9 1.6 2.2 4.8 6.6 3.8 1.4-.4-.4-1.2 0-2.8 4.8-1.3 15.6 1.2 13.2 4.7 1.9-1 5-3.4 7.5-1-6.2 1.1-7.4 3.4-16.9 3.8-.4-1.6.7-1.8 1.8-1.9s-1.7-.8-2.8-.9.4 1.2 0 2.8c-2.8 1.4-5.7-3.3-5.6.9-4.4-.4-.2-3.5-4.7-3.7.1-1.8 3.1-.7 2.8-2.9-7.6 1.1-13 5.9-21.7 4.8-1.4 1.1-.9 4.1-4.7 2.8.2-1.4 2.8-.3 2.8-1.9-4.7-.5-8.2.4-10.4 0s0 1.7 1 1.9c-5.4 1.9-7.2 1.5-14.1 1.9 4.9-1 4.9-4.3 8.4-4.7-6.1-1.2-7.5 4.8-15 5.6.2-1.6 1.6-2.1 3.7-1.9-1.9-2.4-6.5.4-7.5 1.9 3.6 1.9 3.8.7.9 3.8 7.6-1.2 11.5-2.6 20.8-3.8-2.6 2.5 5.3 4.1 4.7 0 2.7 2.2 10.5 2.6 15.1 0 2.7 1.4 6.5 1.6 7.5 4.7 1.1.3 3.2-2.7.9-2.8 8.8-2.5 10.5-.9 17-1.9.6 3-3.4 1.3-.9 3.8 1.6-.9 1.7-3.3 2.8-4.7 2.8 1.3 4.1-.6 8.5 0-1.1 3.5-4.1-.7-5.7 1.9 2.8 4.5 9.8-1.8 11.3-1.9s-.4 1.7 0 1.9c4 1.1 11.3.2 16.1 0 7.9-.4 14.8-1.9 20.7-1.9a4.5 4.5 0 0 0-1 2.8c6.3-1.6 22.1-.6 29.3-1.9-4.1 3.5-12.5 2-18.9 2.8-4.4.6-10.6.9-17.9 1.9-12 1.7-22 2.2-35.8 3.8.2 1 1.9.6 1.9 1.9 16.6-1.8 31.4-5.4 45.2-1.9-2 1.1-7.2 1.4-11.3 2.8 1.7 1.2 5.5-.7 7.5 1.9-.5-3.6 6.8.2 12.3-.9-.2 1.2-3.9 1.7 0 1.9-.3 2.2-3.5-.1-3.8-1-3.5 1.9-8.6-1.6-12.2 2.8a37 37 0 0 1-2.8-2.8 1 1 0 0 0 0 1.9c-2.8 2-9.1 0-13.2.9-1.1.3-.7 1.8-1.9 1.9s-10 .2-6.6-1.9c-2.3 1.9-6.3 1.9-9.5 2.9 2.2 2.7 7.5 0 11.4 0s5.2 1.4 6.6-1c3.5.7 6.4 1 9.4-.9.9 0 .7 1.1.9 1.9 4.5-1.8 11.7-3.5 15.1-1-4.7-3.7 9.8.1 15.1-.9.6-.1.9-1.9.9-1.9s.5 1.8 1 1.9.3-1.8.9-1.9c2.1-.5 8.7 1.3 10.4.9s.9-2.4 2.8-1.8c-.5 3.3 5.9-.4 9.4.9-9.3 5.3-20.5-1.4-27.3 5.6h-6.6c3.8 2.7 10.7 2.4 10.4 1 1.6.8 3.6 2.1 1.9 3.8 2.9.3 4.5-2.2 6.6 0-6.9 2.4-14.5 1.8-20.8 2.8.3-1.2 1.7-1.5 1.9-2.8-2.9 1.2-4.9 4.4-7.5.9-1.1.2-.8 1.7-1 2.8-4.2-.6-6.9.1-11.3-1.9 0 1 1.2.8 1.9 1-2.1 2.6-4.4-2.4-5.7-3.8 6-1.2 9.7 2.8 11.3-1.9 3.7-.8 1.6 4.1 5.7 2.9.2-2.7.9-2.5 4.7-2.9s-2.5-3.6 1.9-2.8c-1.5-1.1-16.3-.2-17 1.9s-1.4-2.2-3.7-1c-3.9 0-2.9 4.7-5.7 5.7.4 1.4 1.2-.4 2.8 0s-1.6 2.4 0 2.8c-4.8-.7-8.6 2.6-16 1.9 1.1 1.3.4 1.5 0 2.8 6.1-2.8 9.4-.2 16-2.8-5.8 3.2 2.9.1 5.7 2.8s-2.5 2.6 0 4.8c2.8-.1 2.7-6.7-.9-5.7 3.6-4.3 11-.2 16-1.9-.9 3.2-1.4.2-1.9 2.8s5-3.7 4.7 1.9c-2.5 0-5.4-.3-6.6 1 8.3.8 19.9-2.4 27.3-1-7.9 1.7-12.5 1.4-20.7 1.9 6.7 6.7 18-4.9 24.5 2.8-4.1 1.1-7.6-2.2-15.1 1.9 2.3 1.2 5.9 1.9 8.5 1s-.8-1.2 2.8 0 4.6-1.8 7.6-1c-.8 3.4-5.2 2.4-12.3 2.9a524.9 524.9 0 0 0-56.5 6.6c5.6 4.3 12.8.1 14.1 5.6h-6.6c5.5 4.9 17.9.7 24.5 0-.1 3-3.7 2.6-6.6 2.8 1 .9.3 3.5 2.8 2.9-5.7 5.4-12.6.7-19.7 2.8 1.3 2.1 6.5.3 9.4.9.2 1.6-1.6 2.5 0 2.9-.1 2.4-3.2 1.8-5.7 1.8.8 3.4 2.3.2 5.7 1 .7-2.8 4.1-2.8 4.7-5.7 4.2 2.8-.5 3.6-1.9 5.7.8 1.4 3 1.4 4.7 1.9-4.1-3.7 2-3.4 4.7-1.9.2-1.7-1.1-2-.9-3.8 5.4-1.6 18.9 2.9 10.4 1-3.6 1.2-4.6-.4-7.6 1.8.5 1.1 6.2-.6 9.4 0-.8 2-5.3.4-5.6 2.9s3-4.3 2.8.9c.7 1.9 3-2.5 6.6-.9.5 2-1.3 1.8-2.8 1.9 2.9 1.9 18 4 20.7 0 2.4 4.4 13.4 0 16 1.8-5 1.6-11.2 2-17.9 1.9 3.5 2.9 9-.3 14.2 1.9-.4 2.1-4.7.4-6.6 1-2.6-1.3 6.6 6.5 1.9 3.7 7 4.2 24.6-1.2 33 1-4.7 1.6-7.7.7-9.5 3.7-1.9-.2 1.4-2.5-1.9-2.8-1.1.2-.8 1.7-.9 2.8-18.9 1.4-28.7 2.5-49 1.9 9.9 3.3 22.5 1.3 33 1-1.4 1.6-.9 2.1 1.9 1.9-4 3.7-10.8 3.6-17 2.8.2 3 3.7 2.5 6.6 2.8-5.1 4.4 9.8 2.3 16 1.9 3.3-.2 8.1-1.1 9.4-1s1 1.9 1 1.9c12.1-.4 24-2.4 35.8-2.8 16.6-.5 28.4 1.6 40.5.9-2.7 3.7-10.5 2.7-17.9 3.8-1.1 3 1.5 2.3 1.9 3.8 5.6-1.3 14-1.1 17 0 3.2-.8 5.4 1.4.9.9s-12.8.3-18.8 1-11.3-1.4-13.2 1.9c-2.9-1.3-7.6-1.3-9.5.9-2.4-.1-1.3-4.4-3.7-1.9-1.3.3-.1 1.7.9 1.9-4.7 1.7-6.3 2.3-11.3 1.9 2-2 .1-3.2-1.9-3.8s-.8 1.7-.9 2.8c-1.8-1.6-7.8.9-6.6-3.7-5.4-1.3-5.7 2.4-10.4 1.9a6.8 6.8 0 0 0 2.8 1.8c-4.6 3.4-6.3-4.2-12.2-2.8v2.8c4.3 3.8 8.9 1.9 16 1.9 1 2.9-2.1 1.7-3.8 1.9 11 1.5 22 4.4 29.3 0 1.3.2.3 2.8 1.8 2.8-16.3 3.3-27.5 7.1-45.2 5.7-.5-2.1 1.8-1.3 1.9-2.8-1.6-2.5-4.9 1.3-8.5 0a2.6 2.6 0 0 0 1.9 2.8c-.6 2.2-5.8-.1-6.6 1.9s6.2-1.2 4.7 2.8c-8.9-.4-1.9 2.9-9.4 2.8 3.6 2.3 7.4-.2 10.3 0-.9 3.7-4.3 1.2-5.6 2.9 9.7 1.3 25.8-1.4 38.6-1.9-6.4 4.6-16.5-.3-21.6 5.6 4-3.9-1.6-1.8-2.9 0-1.7-.7-.1-1.7 0-2.8-2.6.8-5.7 1.2-7.5 2.8 4.8-.5 3.7 6.5 8.5 6.6-2.7 2.3-4.4-.6-9.5 1 .2 1.2 4 1.7 0 1.9 7.1 2.1 9.1-2.5 14.2.9.1-1.1-.2-1.7-1-1.9 3.6 1.3 9.5-3.1 13.2 3.8-11 .3-19.6-1.2-28.2-1 1.3-1.6.8-2.1-1.9-1.8-.4-2 .6-2.5.9-3.8-6 2.1-14.8 1.5-21.7 2.8 1 1.3 3.2 1.2 3.8 2.8.5-1.4.6-1.4 2.8-2.8 2.4 4.9 5-1.5 12.3 0-1.6 1.9.1 1.2 0 3.8-8.3.5-17.5 2.8-26.4 0-.2-2.1 3.3-.4 4.7-1 .6-3.3-2.8-2.8-5.6-2.8a6.6 6.6 0 0 0-3.8 6.6c-3.6.5-6-.2-7.6-1.9-2.4 3.9-11.1 1.5-14.1 0-15.5 6.5-30-.8-47.1 1.9-2.7-.1 1.1 6.2-2.8 4.7 1.8-3.5-7.3-1.2-8.5-.9 2.1 3.1 4.9-.3 7.5 1.9-2.5 2.9-4.6.3-9.4.9-3.7-6.5-10.1-.5-18.9-1.9 1.8 2 7.6.1 8.5 2.9-1.9 2.2-6.5 1.6-9.4 2.8.6.9 2.2 1 1.9 2.8 1.5-1.6 5.5-.7 8.5-.9 1.1 1.2.3 1.5 0 2.8 24.2-.9 43.5-4.1 61.2-4.7 7.1-.3 14.2 1.8 20.8.9 1.9-.2 3.6-1.8 5.6-1.9s4.3 1.8 6.6 1.9c4.7.3 9.2-2.5 14.2-2.8s10 1.7 15 0c1.7 1.9-.7 1.8 1 3.8.8-.8 2.1-1 3.7-1-4.1-3.1 9.5-3.5 12.3-2.8-1.1 1.2-.4 1.5 0 2.8 2.9.5 12.8-.3 7.5-1.9.2-2 4-.4 5.7-.9-3.3 3 .2.6 2.8 1.9-3.5-4.1 6.1-2.1 10.4-1.9-4.9 4.2 5.2 4 8.5 5.7 1.3-.4.1-1.7-1-1.9 2.7-1.4 4.4-1.5 7.6-1 0 0-1.2 1.4-1.9 1 2.9 1.7 7.1.6 11.3 0 .4 1.9-.7 2.5-.9 3.7 2.9 1 6.4-5.1 7.5 0 1.1-.1.8-1.7.9-2.8h5.7c.4 2.6-5.1-.7-4.7 1.9.7 1.1 9.2-1.5 11.3.9-7 2.9-8.7.6-17 2.9.2-.8 1-1 1-1.9-9 .1-19 4.1-23.6 2.8-.9-.3-.2-1.9 0-1.9s-1.9 1.7-3.8 1.9c.1 0-.1-1.9 0-1.9-1.6.3-3.3 2-5.6 1.9s-3.5-1.1-5.7-.9a82.1 82.1 0 0 0-13.2 1.9c5.6.2 13.3 1.9 20.8.9 1.9-.3 2.1-1.9 3.7-1.9s5.3.7 7.6 1 6.6 0 7.5 2.8c-5.7-1.3-15.1 0-23.6.9 2.9 2.7 10.3 1.9 17 2.8-8.6 3.5-16.6 1.6-27.3 2.9 2.5 1.6 8.2 1.9 14.1 1.9 13.7-.1 32.5-2.3 41.5-1-4.2 2.7 2.8 1.7 2.8 1.9.5 1.8-4.8.4-7.5 2.8-1.9-4.1-7.9-4.1-12.3-1.9 3.3 1.6 5.9.4 11.3 1-5.8 2.6-12.5 1.2-21.6 1.9 1.3-1.4-3.2-3.2-6.6-4.7-7 2.8-8.2 2.3-16.1 2.8 1.6 2.1 7.2.3 10.4.9-.7 2.3-10.9 3-13.2 2.9a30.5 30.5 0 0 1-11.3-2.9c-1.2.3-1 1.9 0 1.9-9.1 4.4-15.4 0-24.5 1.9 1.2 1.4 4.3 2.4 1.9 4.7-3.2-.8-.1-2.1-1.9-3.8-8.5.2-17.6-2.3-27.3 1.9 3.3 4.4 12.6-3.7 17.9 1.9 1-.2.6-1.9 1.9-1.9 5.9 2.1 9.6 5.1 19.7 4.7-.2-1.2-2.3-.7-3.7-.9 4.4-2.3 6.5 2.1 11.3.9-4.4 3.7-16.4.9-19.8 2.9.6.9 2.2.9 1.9 2.8h-18.9c.4-1.2 1.7-1.5 1.9-2.8-4.6-1.2-3.7 3.2-7.5 2.8 6.1-6.3-12.1 1.8-17 1.9 1.7 1.7 8.5 1.3 5.7 4.7a5.1 5.1 0 0 1 3.7-.9c1.2-3.1-3-.8-1.9-3.8 7.7-1.1 10-.2 15.1.9-1.4 4.2-6.7-1.2-7.5 2.9 2.4 1.3 9.1-1 12.2 0-2.9-4.9 7.7-4.7 8.5-1 1.2 1.8-.2-4.3 1.9-1.9.1.2-.2 1.9 0 1.9 8.2 1.9 21.8-.9 32.1 1-4.5 5.4-12.2 1.7-18 1.8s-9.4 2-14.1 1.9-13.5-1.3-19.8 1c-.1 2 3.4.4 4.7.9-.6 1.9-2.5 2.5-4.7 2.8-1-2.6-8-3.4-14.1-3.7 6.5 3 12.3 2.5 18.8 6.6 5.2-1.1 9.6-7.8 20.8-5.7-.7 1.3-2.1 1.8-3.8 1.9 2.8 2.2 10.7-.6 11.3 3.8 2.3.5 8.4-2.4 6.6 0-3.3.4-6.1 1.4-10.4.9 1.1-1.4 1-2.3-.9-2.8s-.1 1 .9.9c-.9 2.2-4.3 2-7.5 1.9 3.6 2.7 13.3-.7 17 1.9-12.8 4-35.1 2.9-41.5-5.7-2.9 1.2.5 3.8 1.9 3.8-.3 3.3-3.5-2.4-3.8 1-1.5-1.6-.4-3 0-4.8-3.5-.9-2.1 4.7-4.7 1.9 3.8-4.2-8.6.4-12.3-1.9-1 .9-.3 1.8-.9 4.8-2.2.3-3.5 1.4-6.6.9-.3 2.5 5.3-.9 3.8 2.8-5.3.7-7.5.3-16.1-1.9a2.7 2.7 0 0 0 1.9 2.9c-.9 1.2-8.3.8-13.2.9 5.6-2 2.6-3 0-4.7 5.5-2 10.1.8 13.2-3.8-.1-1.8-3.7.6-3.7 1.9-2-.5-2-1.5-1-2.8a3.9 3.9 0 0 1-2.8.9c0 .9 1.1.8 1.9 1-2.3 3.3-2.8-2.8-6.6-1 8.5-4.1 17.6-.3 24.5-3.7a286 286 0 0 0-32.1.9c1.5 1.6 4.1-1 5.7 1.9-1.2 3.5-5.8 3.6-9.4 4.7 9.9 1-4.4 3.1 7.5 3.8 1.2 1.3-6.9 1.2-9.4 1.8-1.9-1.9.4-1.8.9-3.7s-6.7.2-6.6 2.8c-4.3 1.2-1.5-4.7-6.6-2.8-3.6-1.6 3.7 0 2.9-1.9-1.7-5-6 3-8.5 0 .2 3.2 3.1 2.8 0 4.7 1 1.6 4.5-2.4 8.5-.9-2.5 5.2-12 0-14.2 3.7-1.7-.7-.1-1.7 0-2.8s-4.8 1.1-6.6.9c.8 2.8 1.4 1.1 3.8 1-4.3 3.1-4.3 5.3-5.7 10.4 2.1.8 6.3.8 11.3.9-.6 1.3-2 1.8-3.7 1.9 6.5 2.7 12.6-1.6 16.9 1.9 4.3-3.6 13.1-2.6 20.8-2.9.4 2.1-1.4 1.8-2.9 1.9 2.9 3.3 5.6 1.2 9.5 2.9-9 4.9-19.5-2.1-27.4 0a2.6 2.6 0 0 0 1.9 2.8c-3.2 3.3-8.1-4-8.5.9-1.2-1.6-3.6-2-2.8-5.6a6.1 6.1 0 0 1-4.7.9c-2.4-.5 2.6 4.7-1.9 3.8-.2-.8.4-.9 1-1-3 .1-14.5-2.2-16.1 7.6.9 1.9 3.7 2 6.6 1.9-.1-2.1-2.3-2.1-4.7-1.9 5.7-.3 11.2-3.7 15.1-2.8-1.4 2-2.3-.7-4.7.9-.3 2.5 5.3-.9 3.8 2.8-1.5.1-3.6-.4-3.8 1 8.9 1.8 19.1-3.2 32-1-4.6 2.6-19.1 2.1-30.1 2.9 8.7 3.8 20.9-.6 29.2.9 3.4 2-2.7 2.2-4.7 1.9 3.6 2.8 13.6 2.5 19.8 2.8-.1-.9-1.2-.7-1.9-.9 7.6-4.5 24.1-.1 35.8 0-1.7 1.6.2 2.9 1.9 3.7-2.7 1.5-6.5 1.7-10.4 1.9 4.1 3.5 10.3-.4 13.2 4.7 4.1-2.5 9.8-1.4 14.2 0-1.3 2.8-6.6 1.7-10.4 1.9.6 2.9 11.6 7.2 5.6 7.6 7.1 4.1 7.1.8 16.1 2.8-1.3-5.2-6.7-3.6-12.3-2.8 10.8-4.3 27-.6 35.8-2.9 3.5 1.2-6.9 1-2.8 2.9-.4 2.1-4.6.3-6.6.9-.4-2.6 5.1.7 4.7-1.9-3.2-.3-13.5.3-19.8 0 2.8 1.9 5.3 1.4 8.5 1-2.7 4.1 11.9 1.9 17.9 1.8-6.8-2.2.1-1.4 3.8-2.8.2 1.5-.9 1.6-1 2.8 11.4.8 20.2-1.1 31.1-.9a6.1 6.1 0 0 0 1.9-2.8 25.9 25.9 0 0 0 1.9 5.6c3.2-1.2 6.6 2.1 7.6 0 1.3 3.4-10.1 1.9-14.2 1.9-17.2.2-40.4 1.6-61.2 2.8-4.9.3-11.7-1.3-15.1 1.9 2.3.3 10 .6 14.1 1.9-3.5 1.5-8.6.6-15.1 1-.8 3.2 4.8 1.5 5.7 1.8s-.2 1.9 0 1.9c5.2 1.2 14.8-.6 24.5-.9 17.6-.7 32.4 0 44.3-1-3.3 4.7-9.2 1.8-14.1 1.9-15.8.5-34.4 2.3-48.1 2.9-1.1.1-.5.9 0 .9-6.6 2.1-16.1 2.5-24.5 1.9.3 1.3 2.3.8 3.7.9-5 3.2-15.7 5.1-16-.9-3-.5-3.3 1.7-6.6.9.2 2.7 4.5 1.2 3.8 4.7-6.3 1.1-15.9 2-20.7-.9-1.5.5-.1 1 .9.9-.4 3.1-9 2.7-8.5-.9-4.6-.2-7.1 1.7-12.2.9.6 1 2.1 1 1.8 2.9-9.2 1.8-16.6.5-23.5 0-1.5.5-.1.9.9.9-10.2 9.2-32.9-5.1-35.8 11.3 9.9.9 21.5 1.2 33 2.8-.9 3.2 1.3 3.1 3.8 2.9-.4.8-.9 1.7-1.9 1.9 3.2 1.8 7.9 2.1 11.3 3.7-7 4.8-16.6 1.6-24.5 3.8a6.7 6.7 0 0 0 5.6 3.8c-14.5 3.4-24.1.1-33.9 1.9-2 1.4.7 2.3-.9 4.7s-4.2.3-7.6 0c.6 2.2 3.6 2.1 5.7 2.8.6 4.7-3.5 2.4-5.7 2.8s-2.2 1.8-3.7 1.9c-4.8.2-11.2-2.5-17-1.9 7 3.7 15.4 6 20.7 11.3.5 3-2.5 2.5-2.8 4.7s1.7.8 2.8 1c-4 .3-1.8 6.1-1.9 7.5-1.5 3-4.8.8-6.6-.9-.7.8 1.4 7.6-4.7 5.6 1.7 4.1 2.7 8.7 6.6 10.4 4.7-2.2 7.3-3.7 12.3-3.8.4-2.6-3.5-.8-3.8-2.8s1.5-4.2 4.7-3.8c2.5-1.3-3.4-2.1-1.9-5.6 8.1-2 17.6-2.1 22.7 2.8-.3 5.3-3.5 9.3-1 17-4.2-.1-7.7 1.1-5.6 4.7-4.3.9-6.3.8-11.3 0 .9 3.8 6.9 2.5 10.3 3.8.5 3.6-4 2.2-4.7 4.7s3.7.7 2.8 3.7c-4.6.9-6.2-1.2-9.4-1.8s-2.9 1.4-3.8 2.8c13.9 3.3 34.7 1.8 55.7 2.8s39.4 3.1 58.4 4.7c4.8.4 9.4-.7 14.1 0s8.8 1.2 14.2 1.9 14.9-1.2 18.8 3.8c-7.5-1.3-11.8-.6-22.6-1a2.6 2.6 0 0 0-1.9 2.9c-9.9-5.5-20.3-1.3-33-3.8-3.3-.5-2.3 3.3-5.6 2.8s-2.6-3.1-5.7-2.8c-.9 2.1 4.1 2.6 2.8 6.6h3.8c1.3-.3.8-2.4 1-3.8 8.5-1.8 9.1 1.6 15 3.8-4.4 1.1-7.4 3.6-12.2 1.9-.4 2.2 4.3-.5 2.8 2.8 4.5.4 7.1-2.2 9.4.9-6.6 1.6-11.3.9-16.9 0 .3 5.3 6.5 2.2 9.4 2.9s6.5 4.8 12.2 1.9c2.1.1-1.2 2.3 0 4.7 2.1.6 3-2.7 2.9.9h-6.6c.1 1.1 1.7.8 2.8 1-2.7 2.4-5.2.3-4.7-1.9a7 7 0 0 0-1.9 2.8c-2.9.3 2.4-2.7-.9-2.8-.2-2.1 3.3-.5 4.7-1-6.6-.1-16 1.5-25.5 0-1.5-.2-1.8-.3-1.9-1.9s-3.2 2.8-.9 2.9c-10 4.3-23.5-2.1-34.9.9.8 1.4 2.4 2 4.7 1.9-.1 2.1-4 .4-5.6.9 3.5 1.6 8.9 1.2 13.2 1.9s.3-4.6 3.7-3.7c-2.9 3.9 8.4-1.7 9.5 2.8-3.5 3.5-6.1-2.9-9.5 0 1.2 1.3 3.3 1.8 5.7 1.9-3 3.2-10.6.9-9.4 3.7-2.3-2.1-6.7-2.1-11.3-1.8 2.2 1.2 5.3 1.5 7.5 2.8.3 1.9-.2 2.9-1.9 2.8.4 2.1 4.7.4 6.6 1 .4 5.5-3.6 1.7-5.6 3.7.7 1 6.8.2 9.4 1.9-2.3 3.1-1.3.7.9 4.7-2.2.3-3.5 1.5-6.6 1 .1 4 5.9 2.3 8.5 3.7a5 5 0 0 1-6.6 2.9c-.8 4.1 3.5.7 4.7.9s1.5 1.6 2.9 1.9c4.5.8 10.4-1.1 15 .9-.7-4.6-3.7-3.3-6.6-1.9-2.1-2.2-6.2-3.5-8.4-.9-.5-4.7 3.8-4.2 8.4-2.8-.8-3.2-1.4-.2-1.8-2.9s3.6 0 2.8 1.9c8.8 1.3 9.5 2.7 17 0-2.6 3.7-6.8 4.3-10.4 4.7 5.7 3.7 19.6 3.3 22.6 6.6 1.1-.1.8-1.7 1-2.8 1.2 1.9 2.6 3.7 6.5 2.8.5 2.1-1.3 1.8-2.8 1.9 1.9 2.3 6.3 1.9 10.4 1.9-5.6 6.4-11.6.7-20.8 2.8-3.2-3-2.9-2.5-7.5-.9 5 4.4 15.5 2.5 22.6 6.6-8.2 2.6-18.7-3-26.4.9 5.4 3.1 12.5 2.7 24.5 2.9-10.5 4.7-27.1-1.5-37.7 1.9 9 2.3 17.6 2.1 33 2.8 0 .9-1.1.7-1.8.9.1 2.4 1.3 3.7 3.7 3.8-.1 2.1-4 .4-5.6.9v-3.7c-2.6 0-2.1 2.9-4.8 2.8 1.1-.9.3-3.5 2.9-2.8-1-2.2-5.9-.4-8.5-1-1.2 3.1 3 .7 1.9 3.8-15 0-29.7-.9-38.7 2.8 5.9 3.1 23.3-1.7 24.5 7.6-2.4-2.9-2.3-2.2-7.5-1.9 1.9-2-.4-1.9-1.9-2.9-6.7 2.7-2.6 1.5-12.2 1-.4 1.6.7 1.8 1.8 1.9-4.9 3.5-11.9 1.4-16 2.8-1.7-.7-.1-1.7 0-2.8-3 .5-4.4-.7-6.6-1-.9 2.9 2.1 1.7 3.8 1.9 3.5.8-6.6 2.6-4.7-.9-3.4 5.3-9.9.2-16 1.9.1-.8.9-1 .9-1.9-5.5-.8-6.1 3.3-11.3 2.8 13 3.2 29.9 1.1 48.1 3.8-5 1.5-10.3 2.3-14.2 1.9s-5.8-3.2-8.5-2.9-3 2-4.7 1.9-6.4-1.9-10.3-1.9-9.6 1.9-16.1 1c13.4 3.4 30.6 2.4 49.1 3.7-1.3 2.7-5 .8-8.5 2.9 3.3-1.3-3.8-2-7.6-1.9-6.6.1-15.5.9-19.8.9-.9 0-.7-1.1-.9-1.9-6.7 3.4-18.4-1.7-25.5 1.9-.7-.8-2.5-.5-2.8-1.9-1.2 1-3.5.9-3.8 2.9 8.5 1.1 12.5.9 22.7-1 2.5 5.5 8.9-1.2 12.2 4.7 2.6-3.2 4.3-.8 9.4-.9 1.2 2.5-4.5 2.4 0 2.8.7 2.6-4.4-.6-3.7 1.9-2-.5-2-1.5-1-2.8-2.2 1.8-7.5.6-11.3.9 5.2 3 8.7 3.5 15.1 3.8-10.6 4.9-25.7-1.9-37.7.9 6.4-2-3-1.2-8.5-.9s-12.3 1.2-15.1.9c5 8.9 19.2 1.9 31.1 5.7-7.6 3.7-8.1 0-16 1.9 7.6 3.9 17.4-3 17.9 3.7h7.6c-.3 1.6.9 1.7.9 2.9 6.7.6 14.8-.4 18.9 2.8 4 0 2.7-3 5.6 0-1.3 3.3-9 1.4-12.2-.9-1.6-.4-1.8.7-1.9 1.8-3.6-2.7-28.9-.2-29.2 1-2.6 2.2-9.1.3-13.2.9 2.3 3.7 6.7-.5 9.4 2.9a88.1 88.1 0 0 0-20.7 3.7c6.1-.4 15.9 2.3 25.4 2.9-3.6 2.4-6.4 1-11.3.9 2.6 2.2 2.8 1.4 4.7 4.7-6.4-2.5-14.7 2-17.9-2.8-1.9.5-.2 4.4-2.8 1.9 5.6 4.2 16.1.3 20.7 3.7 1.3-3.8 13.8-.9 17.9-.9-1.7 3.7-4.6 2.4-7.5.9-.2 2.4 1.4 3 2.8 3.8 3.9-3.7 8.4-1.5 16-1.9-.7 2.9 2.6 1.8 1.9 4.7-5.3 0-5.8-1.2-10.4 0-.2-2.1 2.8-1 2.9-2.8-3.4-.5-2.4 3.3-5.7 2.8-20.5-1.2-28.9-1-46.2-.9 1.6 3.8 9.6 1.1 14.2 1.9-2.6 2.8-11.6-.9-14.2 1.9 6.3 2.8 19.4-1.7 24.5.9a7 7 0 0 0-2.8-1.9c.4-2.7 5.5 2.5 6.6-.9 2.8 5.5 9.1 3.8 15.1 4.7-3 2.7-12.3-.4-14.2.9-4.4 1.8 3 4.2-2.8 3.8.9 1.3 2.5 1.9 3.8 2.8 2.8-.6-.9-2 0-3.7 3.5.1 2.7 1 5.6 0-.6 1.2-2 1.7-3.7 1.8-.5 2.7 5.1-.7 4.7 1.9s-4.9 1.3-7.6 1c2.3 4.1-1.7 0-5.6 2.8 5.5-1.9.1-3.5-4.7-2.8.2 3.2 5.9 1 3.7 6.6 2.6.6 1.9-2 2.9-2.9 7.2 1.7 9.9-3.2 13.2 2.9 7.8-4.2 15.9 2.1 20.7-1.9-.2.8-.9.9-.9 1.9a4.4 4.4 0 0 0 3.7-3.8c1.6.7 8.6 3.8 4.7 3.8.1 2.8 6-.7 2.9-1-.4-2.6 6.4 2.2 1.9 1 2.4.7 9.2-.2 11.3 4.7h-9.5c-1.1 3 3.1.7 1.9 3.8-5.9-.6-8.7 5-12.2-1.9 3.8.6 5.4-.9 8.5-1-6-1.9-11.7-1.1-17.9-.9.6 2.2 4.9.7 3.7 4.7-8.6-2.8-11.6 1.7-19.8.9-2.7.6 1.5 1.5 1 2.9 6 .3 12.9-2.4 18.8.9.9 0 .8-1.1 1-1.9 12.5 3.9 26.1 1.2 41.4 3.8h4.7c-.2 1.3-2.3.8-3.7.9a74.9 74.9 0 0 1-15.1-.9c-2.9.3-3.4 2.9-7.5 1.9 0-.9 1.1-.7 1.8-1-4.3-2-18-1.5-17.9 0-13.9 2.1-24-2.2-35.8 0v-2.8c-2.6 1.5-4-1.6-3.8 2.8-11.7-.7-19.3.3-29.2 0 6.2 4.6 21.9-.6 33 3.8-1-2.6 5.2-1.8 9.4-1.9 2.7 1.5-5.3.3-4.7 2.9-15.8 1.3-21.5-1.8-33.9 1.8-.3-1-1.3-3.3-2.8 0-1.4-.4.1-.8 0-1.8-4.8 3.2-10.7 0-17 0-2.4-.1-4.9 1.7-7.5 1.8-20.9 1.4-44-2.5-62.2 0 13.7 4.2 25.1.7 43.3 1.9-3.2 3.6-8 2.1-12.2 1.9-20.1-1.1-40.6.9-67 1.9-10.3.4-22.7-1.5-34.8 0-1.1.1-.6 1 0 .9-1 3.2-1.9-1-2.9-.9s1.3 1.6 0 3.8c-1.9-3.8-5.1 2.3-8.4-1.9-.6 3.4 2.7 2.8 5.6 2.8-1.2 3.7-3.8-.5-5.6 1.9-2-.5-2-1.5-1-2.8-2-.2-3 .7-2.8 2.8-13.2-1.8-33.2 3.2-43.4-1l-2.8 2.9c-4.6-2.4-7.1-2.3-12.3-2.9-.3 2.3 4.3-.5 2.9 2.9h-7.6v-2.9c-3.9 1.1-8.5 1.6-12.2 2.9-1.4-.4.1-.9 0-1.9-24.3 4.7-58.2 2.2-81.1 4.7-3.3-2-5.5-1.7-9.4 0 .2-1 1.9-.6 1.9-1.9a42.3 42.3 0 0 0-13.2 2.8c-8.2-4.9-12 5.9-20.7-.9-4 2-15.1 4.4-17 0-2.1.5 1.1 1.5-1 2.8-13.3.9-28.9.3-45.2 0-.8 0-2.5 1.9-2.8 1.9-2.2.2-4.7-1.5-7.6-1.9-6.4-.8-14.9.6-20.7 0-2.9-.2-5.8-1.6-8.5-1.9-5-.4-8.1.6-12.2-2.8v-3.8c-9.9-1.2-4.3-22.3-5.7-26.3-.1-.5-3.7-1.5-3.8-1 .2-1.9 4.4.3 3.8-3.8-2.1-5.9-12.4 2.9-13.2-1.8a48.4 48.4 0 0 1-18.8 2.8c-3.3.7-5.4-1.4-1-1 9.2-2.2 19.7-3.5 32.1-4.7-2.2-2.1-8.9-.7-11.3 0 .3-2.7 3.2-3 4.7-4.7 2.6 1.3 5.5 1.7 8.5-.9-3.4-2.3-10.4 1.6-16.1 0 2.6-1.6 7-1.2 10.4-1.9-22.5-1.8-39.5 4.9-63.2 5.6 12.2-5.4 29.9-5.3 44.3-8.4-12.4-.9-28.2 3.1-41.4 4.7-4.2.7-6.4-1.5-1-1 14.2-2.4 28.9-4.4 44.3-5.6-.1.7-.9.9-.9 1.9 2.8-1.2 7.2-.1 11.3-1.9-.3-3.2-4.5 2.8-3.8-1.9 6.5.3 9.2-1.3 13.2.9-3.1-1.9-.7-2 2.9-1.8.3-2.6 1.8-6.1 1.8-11.4-4.9.7-3.5.7-8.4 0 1.1-2.5 5.1-2.4 8.4-2.8 1.7-1.3 4.8-12.1-1.8-10.4 8.2-2.6 1.4-9.7 4.7-16-6.8.9-7.5 2.5-16.1 1.9 3.4-4.5 15.6-.1 17-6.6.5-1.8-4.3-3-4.7-.9-3-1.1.9-2.7 2.8-1.9-5.6-2.1-1.9-1.2 1.9-2.8-3.5-6.3.7-9.5 0-17-3-.2-4 1.7-7.5.9 1.6-1.8 4.8-2 8.4-1.9.9-3-1.4-2.9-2.8-3.7 3.8-2 4.2-7.7 2.8-12.3-6.6-.1-16.8 4-17.9 4.7s-4.1.6-4.7 0c-3.7 4.2-15.8-.1-17.9 5.7-31.6 1.9-64.2 14-94.2 15.1.4 2.1 4.6.4 6.6.9-1.8 5.1-9.2 4.7-16.1 4.7-.3-4.7 6.8-2 8.5-4.7-3.2-1.3-11.6 2.6-15.1-.9-.7-5.5 2.3-9 0-13.2 2.4-.5 1.6-3.2 4.8-4.7-1.4-4.9-3.1-16.4 5.6-14.2-5.2-8.1 1.9-15.1-2.8-22.6 3.7.6 1.1-5.2 1.9-7.5 4.5-1.4 5.4-8 2.8-11.3 3.1-1 2.4-5.8 6.6-5.7.4-2.3-4.3.5-2.8-2.8 6.4 1.1 9.2-1.5 13.2-2.9-1.2-3.7 5.6-5 7.5-8.4-4-.2-13.1 3.4-15.1-1h6.6c1.3-.9 1.9-2.5 2.8-3.8-4.7-.3-10.2-.2-16-.9 0-3.5 1.5-5.5 2.9-7.5 10.7-3.1 17.1-6.4 26.3-9.5-5.6-3.5-10.8.5-19.8 0 2.9-4.3-3-2.3-6.5-2.8v-8.5c1.3-1.8 4.5-1.7 6.5-2.8-.6-1-2.1-1-1.8-2.8 2.3.1 4.5.1 5.6-1-2.6-1.8-6.5 1.1-8.5-.9-.1-4 4.5-3.1 6.6-4.7s-3-.7-1.9-3.8c6.6-1.6 9.1-7.3 16.1-8.5-.6-3.4-4.4 2.2-4.7-.9 3.9-7.7 18.7-4.5 23.5-11.3-.1-2.1-2.4 1.2-4.7 0 15.4-6.1 30.4-5.7 49-6.6 1.4-.4-.4-1.2 0-2.9 6.7-1.8 15.6-1.4 22.6-2.8-2.1-2.6-11.9 2.5-9.4-2.8-14.7 2-22.9 2.4-38.6 1.9-.3 4 7.7-.2 5.6 5.6-16.5.5-26.8 7.2-44.3 6.6 9.7-6.4 23.7-8.3 36.8-11.3-1.3-.6-9 .5-13.2 0a5.4 5.4 0 0 0-3.8-3.8c.3-2.2 1.5-3.5 1-6.6 2.8-.5 4.9-2 7.5-2.8-.1-1.7-3.2-.6-3.8-1.9 1.1-2.4 4.2-2.7 7.6-2.8-2.7-3.1-8.9-4.7-15.1-6.6 16.2-7.2 36.2-2.3 54.7-7.5-15.2-2-33 2.7-45.3 1.9 12.1-6.3 22.1-4.7 34.9-5.7-.4-2.1-4.7-.4-6.6-.9 5-5.4 13.3-2.9 22.6-4.8-3.2-4.3-10.4-.5-15.1 0-7.4.9-17.9.1-26.4 1.9-.6.2-.8 1.9-.9 1.9s-.4-1.7-.9-1.9c-4.4-1-14.1 1.8-18.9-.9 1.7-6.8 13.5-1.8 16-5.7-4.6-2.9-12.2.4-16-4.7 1-2.2 3.3-3 6.6-2.8 0-2.8-4.4-1.2-5.6-2.8 3.1-4.7 9.3-2.4 14.1-2.9 16.2-1.4 34.7-3.1 49-4.7-14.9-1-35.1 2.5-49 2.9.1-2.5 3.1-1.9 5.6-1.9-8.8-2.3-24 3-30.1-3.8.5-3.6 5.8-2.3 8.5-3.8-1.8-1-3.3-2.3-5.7-2.8 5-12.9 29.3-6.5 41.5-12.3-8.9-1.2-35 6-50.9 1 .2-1.9 2.5-1.9 3.8-2.8a11 11 0 0 0-6.6-4.8c.1-5.8-1.7-9.6-7.6-9.4 3-5.9 2.2-8.3 2.8-14.1-5.3.2-13 2.4-17.9 0-1.1.3-5.8-.2-2.8-1a136.8 136.8 0 0 0 22.6-.9 7.3 7.3 0 0 0-4.7-5.7c-4-1.2-8 1.6-12.2 1.9a45.4 45.4 0 0 1-22.7-3.7c-1 .2-.6 1.8-1.8 1.8.6 1.3 2 1.8 3.7 1.9a54.7 54.7 0 0 1-10.3 1.9c1-4.8 5.2-.6 6.6-4.7.3-1.8-4.3-1.4-2.9.9-3.3-4.8-8.5-7.8-11.3-13.2-.8-11.9.6-29.7 0-49 6.8-9.3 27.1-4.9 35.8-12.2 4.8.6 7.3-.9 11.3-1 3-5.3 9.8-3.3 17-5.6 1.5-4-5.2.2-3.8-3.8h3.8c-.1-1.1-1.7-.8-2.8-.9 6.6-9.4 28.4-3.7 36.7-11.3-.1-1.1-1.7-.8-2.8-1 4.2-4.3 14.4-2.5 20.8-4.7.9-2.8-2.1-1.7-3.8-1.9s4.3-1.9 6.6-1.9c-.6-2.2-5.8.2-6.6-1.8s3.7-1.4 3.8-3.8c-37.3 7.4-74.5 14.7-112.2 21.7.6-3.4 5.2-2.3 7.5-2.9 6.1-1.5 12.8-3 17.9-4.7-3.9-1.3-10.7 3.4-16.9 1 10.6-2.9 26.6-9.4 37.7-5.7 3.7-5.8 18.7-5.7 29.2-7.5v2.8c4.7.3 8.6-.2 10.4-2.8-.2-2.8-7 3.1-6.6-1.9 9.1 1.9 17.8-7.4 22.6-1 3.5-3.6 9.5-4.9 15.1-6.6-2.8-3.2-9.1 1.7-11.3-.9 1.1-5.1 13.1-4.2 16.9-9.4-5.7 1.4-13.6 1-14.1 2.8-1.5-.9-2.2-2.5-1-3.8-3-.2-3.9 1.7-7.5 1 3.5 2.4-3.3 2-5.7 1.9-.3-1.6.8-1.8 1.9-1.9-3.2-3.7-7.8.3-11.3.9-9.8 1.8-16.8 2.2-26.4 3.8-29.1 4.9-62.6 14.4-94.2 18.8 2.6-2 7.1-2.3 11.3-2.8-3.4-2.8-11.1 2.3-14.2 0 4.9-6.1 17.7-4.3 24.6-8.5 1.8 0 1.2 2.6 3.7 1.9-3.8-2.2.4-1.9 3.8-1.9-3.8 2 1.1 3.4 3.8 1.9-.4-1.8-3.7-.7-2.9-3.8 1.4 1.4 3 .8 2.9-1.8 6.6 2.5 13.7-.9 18.8-2.9-8.6-2.1-21.1 2.6-32 3.8-.4-4.5-5.7-1.3-9.5-3.8 5.9-2.6 13.3-3.7 19.8-5.6-15.1-.4-44.7 10.5-59.3 13.2-.8.1-5 1.4-1 0s9.8-3.4 13.2-6.6c4 1.2 4.7-.1 9.4 0 .3-1.7-.9-2-.9-1-2.6-2.3 5.5-2 6.6-3.7-8.2.2-21.1 4-31.1 5.6 3.2-2.1 7.7-3 12.2-3.8-2.1-4.2-12 4.9-16-.9 2.9-2.8 7.4-3.9 12.3-4.7-4.8-3.2-10.2 1.1-15.1.9 4.6-1.3 9-5.8 13.2-4.7 1.8-1.8-.6-1.7 0-4.7 5.2-2 17.3-2.1 16-7.5 10.6-5.1 23.4-6.7 34.9-7.6l3.8-.9c12.5-5.3 26.6-8.4 39.5-6.6.8-.8 2.6-.6 2.9-1.9s-4.2 1.8-1.9-1.9c-5.4-.2-13.9 1.8-14.2-.9-7.2 5-19.7 4.8-29.2 7.5.2-.8 1-.9 1-1.9-6.7 2.1-11.3.6-17 3.8 2.1 2 6.6-3.1 9.4-.9-13.1 5.3-26.4 5.1-41.4 7.5.6-1.3 2-1.8 3.7-1.9-2.2-2.5-5.9 1.5-9.4 1 4-5 12.1-.7 17.9-2.9-1.6-2.8-5 .6-7.5 0 10.7-5.3 25.3-6.7 37.7-10.3-5-2.2-11 1.9-17.9 2.8v-2.8c-1.2.2-1.3 2.8 0 2.8-5.1.5-8.4 3.8-14.2.9 3.7 3.6 2.6 2.7-4.7 3.8.3-1.9 4.2-.2 3.8-2.8-2.9.9-10.7 1.8-9.4 3.7s-3.2-1.1-5.7 0c2.2-1.8 5.9-2.2 9.4-2.8-7.9-1-22.3 4.7-12.2 1 5.1-2 13-4.8 16.9-7.6-6.5-.6-18.4 1.7-25.4 3.8 3.4-3.8 10.1-4.4 16-5.7-1.4-2.8-4.1.8-6.6 0 .7-1.8 2.5-2.5 4.7-2.8-6.1-.9-13.9 2.5-21.7 4.7 1.5-4.2 8.8-3.2 7.6-7.5a6 6 0 0 0 4.7-1c-4.8-2.2-10.3 2.9-16 2.9 1.5-2.3 5.5-2 7.5-3.8-1.5-3.9-6.3 1.5-11.3 0 2.5-2.3 7.2-2.2 10.4-3.8-.8-2.7-2.4 1.2-4.7 0 .8-1.6 2.9-2.1 5.6-1.9-4.4-2-7.9 1.6-12.2 1 7.1-4.3-5.7-5.6-4.7-12.3 30.9-14.1 64-21 101.7-27.3.6-3.9.2-8-1.8-10.4 2.8-16.8-7.6-37.5.9-49.9 46.8-6.1 96.7-17.8 143.3-27.4 8.6-1.7 15.9-1.7 26.4-3.7 5.4-1.1 8.5-3 16-3.8 23.1-2.5 48.7-9.9 73.5-12.3 52.3-5 104.7-9.9 157.4-11.3 22.4-.6 40.3-2.7 66-2.8 8.9-.1.8 1.6-3.8.9-16.1 3.7-35.3.9-50.9 2.9zm295 51.8c-2.8.3-6.4-.1-6.6 2.8a17.1 17.1 0 0 0 6.6-2.8zm80.2 80.1c-1.3 0-.9 1.7-1.9 1.9s-1.1-1.5-1.9-1.9c-1.2 3.1 3 .7 1.9 3.8 10.8-.2 18.1-1.2 28.2-1.9.5-4.5-6.6-5.6-5.6-2.8-3.5 1-1.9-3.2-3.8-3.8-.2 1.4-2.3.9-3.8 1 .3 2.9 4.1 2.2 4.8 4.7-3.2-.3-8.1-2.5-9.5.9-1-4.2-4 .8-6.6-1.9a5 5 0 0 0 1 2.9c-1.3-2.4-2.9 1.7-3.8-1 1.5.2 2.2-4.8 1-1.9zM926.6 296c-.2 3.8 6.1.5 7.5 0-3.4-.4-4.5-1.5-7.5 0zm-42.4 303.5c.6 3.1-2 1.5-2.9.9 1 4.5 4.6.9 8.5 2.8.3-3.4-3.4-2.8-5.6-3.7zM782.4 704.1c-3-.5-3.7 2-5.7 0-1.8 1.6 1.3 2.9-1.9 3.7 0-1.2-2.6-1.2-2.8 0 2.6.6 8 3.3 10.4 1-3.9-1.7-2-2.6 0-4.7zm-11.3 4.7v1.9h1.8v-1.9zm20.7 17.9c-2.9 0-3.7 2-5.7 2.8-.3-4.2-4.4 1.1-5.6-1.9.2-1.4 2.3-.8 3.7-.9.4-2.9-3-2-4.7-2.8 1.9 6.1-4.4 3-5.6 5.6 5.7.7 11.8.4 17.9 1 .1-2.6-1.6-1.9 0-3.8zM517.5 9.4c-1.2 0-1.3-1.2-2.8-.9-1.5 2.3 3.2 2.8 2.8.9zm13.2 6.6c-3.2-2.8-2.9 3.5 0 0zm-3.8 2.9c-8.3-.7-8.3 1.5 0 .9.6.5 4.5 2.2 4.7 0-1.8.3-1.8-1.3-2.8-1.9s-.8 1.1-1.9 1zm-28.2 2.8c2.4-.1 4.4-.6 5.6-1.9-1.9.6-6.5-1.5-5.6 1.9zm60.3-1c-6.1-1.1-2.1 2.9 0 0zm-61.3 13.2c8.5 0 11.8-2 15.1-5.6-6.2 1.3-11.9-2.5-17 2.8 4.3-.6 8.2-.6 10.4 0-1.1 2.7-8.9-1.4-8.5 2.8zm-13.2-2.8c1.2.5 8.2.6 10.4-.9-3.2-.4-7.1-.8-10.4.9zM930.3 33c.4-2.7 5.6 2.4 6.6-1-1.6-.8-4.7-.3-5.6-1.8s-.2-1.2-1-1c.9 1.8-2.8 3.2 0 3.8zm-22.6.9c-.3-2.1 2.7-1 2.8-2.8-2.3-1-5.3 2-2.8 2.8zM492.1 32c2.2 4.1 5.6-.6 0 0zM904 33c-1 0-1.2-.8-1.9-1-2.6 1.6 1.3 3.2 1.9 1zm-31.2 4.7c.2-1.1 7.5.3 2.9 1.9.8.9 6 2 6.6 0a2.7 2.7 0 0 1-2.9-1.9c2.2-1 7.3-1.9 8.5-.9s4.2-5.5 1-2.9c1.2 2.7-18.6-3.2-16.1 3.8zm72.6-2.8c-6-1.1-2 2.9 0 0zm-416.6 2.8c2-.6 6.2 1.2 6.6-.9s-8.5.2-6.6.9zm8.5-1.9c3.2 4.1 6.7-.5 0 0zm363.8 0c-.7 5.7 4.3.6 0 0zm-377 2.8h2.8v-1.8h-2.8zm-1.9-.9c-1.6.5-5.5-1.1-5.6.9 1.6-.5 5.5 1.2 5.6-.9zm13.2 2.8c.8 2.2 4.4-.5 4.7-1.9h-4.7zm333.7 1c2.7 1.4 2.7-4.2 0-2.9zm-343.1-1c-2.4 1.1-4.5-2.8-5.7 0 .7.8 5.3 2.1 5.7 0zm292.2 1c2.3.1 4.6.1 4.7-1.9-1.7.5-3.9.5-4.7 1.9zm11.3-1.9c-1.7.5-5.5-1.2-5.7.9 1.7-.5 5.6 1.2 5.7-.9zm1.9.9c.2 4 5 4.5 5.6 1-1.6-.4-2.4 1.4-2.8 0s.8-1.1.9-1.9c-1.7-.2-2 1-3.7.9zm24.5 1c-2.9-2-9.4-1.1-11.3.9 0-.5-.8-1.1-1 0 2.8 1.6 9.1.1 12.3-.9zm-295 1.9c1.4-.1 3.2.1 2.8-1.9h-1.9c0 .9-.8 1.1-.9 1.9zM805 46.2c2.3-.2 10.9 1 7.5-1.9-1.1 2-6-2-7.5 1.9zm-257.3 0c-1.4.5-4.9-1.1-4.7.9 1.3-.5 4.8 1.1 4.7-.9zm233.7 1.9c2.2.2 3.6-.3 3.8-1.9-2.2-.3-3.6.2-3.8 1.9zm-43.3-1c-6.1-1.1-2.1 2.9 0 0zm41.4 1c-4.2-1.4-5.8.3-9.4-1-.4 4.6 7 .8 9.4 1zm13.2-1c-6-1.1-2 2.9 0 0zM559.9 49a5.1 5.1 0 0 1-3.7-.9c-.4 3.5 2.8 2.9 3.7.9zm187.6 1c2.5-.6 5.9 2.7 7.5 0-3.9.4-5.4-3.7-7.5 0zm10.4 0h1.8v-1.9h-1.8zm11.3-1c-.8-.9-6-2-6.6 0 2.1 1.6 6.2.6 6.6 0zm-64.1 2.8c2.1.3 3.5-.2 3.7-1.8-2.1-.3-3.5.2-3.7 1.8zM559 55.6c3.3.1 11.7-3.4 8.5-3.8-1.7 2.3-9.4-2.7-8.5 3.8zm15.1-3.8c-2.2 1.3-3.6-2.4-3.8 0 .6.3 3.6 2.4 3.8 0zm141.3 1.9c6.3 1.5 9.1-4.4 9.5 0 2.3.2 2.3-2.1 3.7-2.8-5.7-.4-10.5.1-13.2 2.8zm21.7-.9h1.9v-1.9h-1.9zm-35.8 1.9c-.4-2.3 4.3.5 2.8-2.9-2.4-1-5.3 2-2.8 2.9zm-159.3.9c-.7.2-1.8 0-1.9 1a28.6 28.6 0 0 1 11.3 0c-.1-3.7-4.1-3.5-7.5-3.8 1.5 4.4-7.3-1.4-4.7 1.9 1.1.1 2.7-.2 2.8.9zm16-1.9c-2.6.8-2.4-1.3-4.7-.9-1.4 2.8 4.9 2.5 4.7.9zm276.2 1.9c2.9-1.1 4.1.5 6.6-1.9-3.7.4-5.9-2.3-6.6 1.9zm7.5-.9h2.9v-1.9h-2.9zm-314.8 2.8c2.7.2 4.8-.2 5.7-1.9-2.7-.2-4.8.2-5.7 1.9zm226.2 0c1.8-.4 5.7 1.3 4.8-1.9-1.7.5-4 .5-4.8 1.9zm60.4 0h1.8v-1.9h-1.8zm-71.7.9c2-.5 6.2 1.2 6.6-.9-1.7-1.7-5.3-.5-6.6.9zm40.6-.9c-.2 3.9 6.5 1 9.4 1.9.8-3.1-3.1-1.3-3.8-2.8.4 3.9-4.1.8-5.6.9zm-48.1 1.9h1.9v-1.9h-1.9zm2.8 0a2.6 2.6 0 0 0 2.8-1.9c-1.4.1-3.2-.1-2.8 1.9zM664.5 65c15.1-.4 34.9-3.4 52.8-4.7 4.8-.3 10.3 1.5 13.2-1.9-21.2 1.8-47.9 2.9-66 6.6zm113.1-4.7c1.7-.2 4.8 1 3.8-1.9-1.7.2-3.1.7-3.8 1.9zM755 62.2c3.4 1.2 8.7-.5 11.3-2.8-3.3 1.4-8.8.6-11.3 2.8zm8.5 3.8c2.5-1 5.8-1.1 9.4-1-.4-2.4-7.6-1.9-9.4 1zm-100.8-1.9c-6.1-1.1-2.1 2.9 0 0zm-6.6.9c-2 .6-6.2-1.1-6.6 1 1.9-.6 6.2 1.1 6.6-1zm83.8 2.9c2.8-1.4 3.5 1 4.8-1.9-1.7 0-3-.2-3.8-1a5 5 0 0 1-1 2.9zm26.4 0c1.4-.6 4.9 1.1 4.8-1-3 .5-3.9-2.2-4.8 1zm-34.8.9c2.4-.4 5.1-.5 6.6-1.9-2.2.7-7.4-1.7-6.6 1.9zm-14.2 0a5.1 5.1 0 0 1-3.7-.9c-1.6 2.6 4 2.6 3.7.9zm28.3 4.7c4.7-1.5 8.5 1.2 13.2-2.8-3.7 1.3-10.3-1.2-13.2 2.8zm-58.4-1.9c-.2 1.2-1.1.6-1.9 0-1.5 4 5.7 1.1 1.9 0zm-32.1 2.9c-1.6.5-5.5-1.2-5.6.9 1.6-.5 5.5 1.1 5.6-.9zm39.6 1.8c-.8-.8-2.7.7-2.8 1s3.5-.3 2.8-1zm-5.7 1c-10.5-.9-4.5 4.1 0 0zm54.7 1.9c1.4 1 2.3 1 2.8-1a4.1 4.1 0 0 1-2.8-.9zm89.6 0c-1.1-.2-1.5-1.1-1.9-1.9-8.6 1.5-10.8 2.2-17.9 1.9-1.3 2.2.4 2.1-1.9 3.7 2.9-.3 4.8 2.5 5.6-.9-1.1-.1-2.6.2-2.8-.9 1.4.5 4.9-1.1 4.7.9-2.2-.8-2.1 4.8-.9 1.9 2.6 1.8 4.5-4.2 7.5 0a9.2 9.2 0 0 0 7.6-2.8c-4.1.1-6.9 1-10.4-1 8.3.2 6.3-1.4 10.4-.9zM680.6 82c2.5-2.4-2.6-1.3 0-3.8-3.6-.7-1.1 3.5 0 3.8zm-14.2-1.9c5.3-1.3 2.5-.8 0-.9-4.6-.3-10.9.5-13.2 1.9 6.9.3 9.9-.2 13.2-1zm83.9 1.9c7.1-1.2 9 1.1 12.3-1.9 0 1.5 7 2.1 5.6-.9-9.4 1.1-13.9-1.7-17.9 2.8zm-4.7 0c5.9.9-1.6-.2 0 0zm24.5 2.8h4.7c.8-3-1.4-2.9-2.8-3.7-.5 1.4-1.4 2.3-1.9 3.7zm-75.4-.9a2.6 2.6 0 0 0 2.8-1.9 2.6 2.6 0 0 0-2.8 1.9zm10.4 1.9c1.3-.4 1.6-1.2 2.8 0-.2-1.4.3-3.5-.9-3.8 1.5 3-4.7 2.7-1.9 3.8zm64.1-1.9c-3.2-2.9-2.9 3.5 0 0zm-10.4.9c-3.8.1-9.3-.1-12.3 1.9 6.9.6 11-1.6 18-.9.3-3-4.2-1-5.7-1zm-72.6 2.9c1.4-.3 6.8-1.3 3.8-2.9-1 2.3-4.2-1.8-3.8 2.9zm13.2-2.9c-1.4.5-4.9-1.1-4.7 1s3.9.7 4.7-1zm133.9 0c-1.7.6-5.6-1.1-5.7 1 1.7-.6 5.5 1.1 5.7-1zm-155.6 2.9c2.7-.8 2.5 1.3 4.8.9v-1.9c-1 0-1.2-.7-1.9-.9 0 1.5-2.6.5-2.9 1.9zm107.5 0c1.7-1.8 2.4.7 5.6 0 1-4.3-8.7-.8-5.6 0zm38.6-1.9c-6-1.1-2 2.8 0 0zm-147 2.8c1.3-3-5.6-2.4-5.7-.9 2.9-.7 2.8 1.6 5.7.9zm-13.2.9c-1.5-.4-.8-2.9-3.8-1.8-1 2.3 3.2 4.1 3.8 1.8zm1.9 1c0-1.6 2.6-.5 2.8-1.9-1.7.6-3.9-2.8-4.7 0 1.2 0 .9 1.7 1.9 1.9zm-7.6-1.9c-1.4.2-3.4-.3-3.7.9s3.5 1.3 3.7-.9zm126.3 1.9c-2.5-1.2-4.2 1.4-1.8 3.8-3.1-.3-4 1.6-7.6.9-.4 1.8-2 2.4-1.9 4.7 2.5-.9 11.1 2.3 9.5-2.8-.5 1.5-7.2 1.5-7.6 0 4.9-1.1 11-1 16-1.9.1-2.6-1.5-1.9 0-3.8-3.5-.6-9.2 4.4-6.6-.9zm-105.5 1.9c-4.2-2.4-5.4 3.4 0 0zm230.9 1.9c-8.1-1.2-4 2.8 0 0zm-58.4 1.8c-3.6-2.6-4.2 3.5 0 0zm42.4-.9c-1.7.5-5.6-1.1-5.7.9 1.5 1.6 4.9.9 5.7-.9zm-86.7.9c-.8-.8-2.7.7-2.9 1s3.5-.3 2.9-1zm-41.5 1c-11.5-1.1-8.1 2.8 0 0zm113.1 0c-2.6.6-7.5-1.2-8.5.9 2.6-.6 7.5 1.2 8.5-.9zM859.6 99c3.6 2.6 4.2-3.5 0 0zm2.9 5.6h3.7c.9-3-1.4-2.9-2.8-3.7-.3 1.2-1.3 1.8-.9 3.7zm-9.4 0c3.7.7 11.6-.4 6.5-2.8-.2 2.9-7.7-1.5-6.5 2.8zm-25.5 0c.1 3.4 5.4 1.6 6.6 3.8.6-5.1 7.7.3 9.4-4.7-7.1-.1-8.3.9-16 .9zm43.4 2.9c-.9 3.4 4 .9 4.7 2.8 0-1.6.3-1.7 1.9-1.9 4.4-.6 8.7-1.8 10.3-1.9 4.7-.3 10.6 2.8 13.2-.9-12.3-1.9-15.6 1.9-30.1 1.9zm-7.6 1.8c1.6 1.7 3.2-.8 6.6 0v-1.8c-.9 0-1.1-.8-1.9-1-.6 1.9-4.4.6-4.7 2.8zm-6.6-1.8c.3 1.8-1.3 1.8-1.9 2.8 1.5.9 7.1 0 7.6-2.8h-2.9c.2 3.9-1.4-.1-2.8 0zm-21.7 2.8c-4.8 2.3 3.3 2.4 0 0zm-23.5.9c.3 1.9-1.3 1.9-1.9 2.8 2.4.5 6.8-1.8 4.7-2.8-.2 1.5-2.1.7-2.8 0zm47.1 2.8c4.7.6 6.4-1.8 8.5 1-1.2-6.5-8.7.1-11.3-2.8.8 3-2.5 1.9-2.8 3.7 3.8-.6 7.8.8 5.6-1.9zm-17.9 1c-3.2-2.9-2.9 3.5 0 0zm-6.6.9c-.3-.7-2.5-1.1-2.8 0s3.7 2.1 2.8 0zm60.3 1.9c2.1-4.1 1.1-1.4-.9-2.8-3.1 3.2-17.3.3-16 4.7 4.8-1.5 10.7-1.8 16.9-1.9zm-19.8 1c.2-2.1-.7-3-2.8-2.9-.2 2.1.8 3 2.8 2.9zm-18.8 1.8h3.7c-.3-1.6 1.4-2.4 0-2.8-.2 2-3.5.9-3.7 2.8zm7.5 0c-.1-1.8 7.8-.2 3.8-2.8-.2 1.5-7 1-3.8 2.8zm17.9 7.6c1.8-3.2-3.4-4-3.7-1.9 2.5-.7 1.9 1.9 3.7 1.9zm15.1 1.9c.7 2.1.6 5.1 2.8 5.6.2-.7.1-1.8 1-1.9 10.9-.2 2.6-.4-1.9-1.8 1.4-.6 4.9 1.1 4.7-1-2.1-.6-4.1-3.4-6.6-.9zm11.3.9c2.4.2 4.6.2 4.7-1.9-1.6.6-3.9.5-4.7 1.9zm-32 1c1.2 3.9 5.7 6.8.9 9.4 6.8-.4 14-2.5 17.9-2.8-5.6-2.5-9 .4-13.2-1.9-.4-.3 1.2-1.8 1-1.9s-5.2 1.4-3.8-1.9c2.6-1 4.4 4.4 7.5 1.9-3.7 1.5-2.4-6.9-4.7-3.8 2.9 1.5-4.1.8-5.6 1zm-63.2 0v1.8c2.3 1.5 2.8-3.2 1-2.8-.1.6-.2 1.1-1 1zm75.4.9c1.8-1.8 1.7.6 4.7 0 1.1-4.3-7.7-.5-4.7 0zm22.6.9c.1-1.5 2.7-.5 2.9-1.8-1.9-.8-5.9.8-2.9 1.8zm-65.9 10.4c1.7-.1 3.1-.6 3.7-1.9-2.1-.2-3.5.3-3.7 1.9zm24.5 4.7c4 .1 6.9 1.9 9.4-.9-4.3.4-6 .9-2.8-1.9a8.9 8.9 0 0 0-6.6 2.8zm-24.5 0c1.3 3.5 13.3.7 7.5 5.7 1.8.2 2.1-1.1 3.8-1 1.1-2.9-1.5-2.3-1.9-3.7h10.4c-2.3-2.5-7.1 0-9.5-1-.2-.1 1.9-2.7-.9-1.9-1 6.7-5.9-2.2-9.4 1.9zm13.2 3.8h1.8v-1.9h-1.8zm8.4-.9c-1.6.5-5.5-1.2-5.6.9 3.3-.8 4.8 2.4 5.6-.9zm-30.1 3.7c2.9.1 5.2-.4 6.6-1.9-2.9-.1-5.2.5-6.6 1.9zm13.2-1.9c-1.7.6-5.6-1.1-5.7 1 1.5 1.6 4.9.8 5.7-1zm35.8 3.8c-1.3.1-3.5-3.2-3.8-.9 1.3-.2 2.9 3.8 3.8.9zm-70.7.9h2.8v-1.8h-2.8zm3.8 0h1.9v-1.8h-1.9zm-800.2 1a2.6 2.6 0 0 0 2.8-1.9 2.6 2.6 0 0 0-2.8 1.9zm755.9-1.9c-6.1-1.1-2.1 2.9 0 0zm117.8 4.7c-1.5-.2-6.2-4.6-4.7-1.9 1.7 0 2.7 5.3 4.7 1.9zm-701.3 4.7c3.1-.4 5.8-1.1 6.6-3.7-3.1.3-4.7 2.2-6.6 3.7zm-147 1c-1 0-.7 1.2 1 .9 8.8-2.9 5.9-3.3-1-.9zm107.5 4.7c.1-2.7-7.1.2-1.9 0 2.4 2.6 9.2 2 11.3-1-1.1-.1-2.7.2-2.8-.9 6.1-1.1 13.5-.9 17.9-3.8-9.2.9-17.7 2.5-24.5 5.7zm-113.1-4.7c-4.9 2.3 3.2 2.4 0 0zm1.8 1.9h1.9v-1.9h-1.9zm49.1 3.7c1.2 1.3 2.8.6 3.7-.9-1.2-1.2-2.8-.6-3.7.9zm-5.7 1.9h2.8v-2.8h-1.9c0 1.2-1.2 1.3-.9 2.8zm63.1-2.8c-6-1.1-2 2.9 0 0zm776.7 2.8c3.2 1.7 4.8-.6 9.4 0 1.7 1.9-.7 1.9 1 3.8 3.7-4.5 5 4.1 7.5-1.9-2.4.6-3.4-.4-2.8-2.8-5.1-.1-10.1-1-15.1.9zm-817.2 1c-6-1.1-2.1 2.8 0 0zm-18.8.9c-6.1-1.1-2.1 2.9 0 0zm-4.7.9c-6.1-1-2.1 2.9 0 0zm14.1 0c-1.4.6-4.9-1.1-4.7 1 1.3-.5 4.9 1.1 4.7-1zm-34.9 4.8c4.5-.9 2.6 2.3 3.8 2.8 2.5-3.4 7.7-4.2 11.3-6.6-5.4.9-11.1 1.5-15.1 3.8zm-5.6 1.8c1.7-.1 3.1-.6 3.7-1.8-2.1-.3-3.5.2-3.7 1.8zm-2.9-.9c-4.8 2.3 3.3 2.4 0 0zm868.1 3.8c-1.6.5-5.5-1.2-5.6.9 1.6-.5 5.5 1.1 5.6-.9zm-863.4 5.6c3.5.7 7.6 2 8.5-1.9-3.5 0-6.5.4-8.5 1.9zm849.3 1.9c1.3 1.3 5.7.9 5.6-1.9-2.7-.2-4.8.3-5.6 1.9zm-9.5.9c2.6-.6 5.9-.3 7.6-1.8-2.9.3-7.3-1.1-7.6 1.8zm34-1.8c-.6 2.2-5.7-1.2-7.6.9.8 1.5 11.2 1.8 7.6-.9zM165.9 197c2.5-.1 4.5-.5 5.7-1.9-2.7-.2-4.8.2-5.7 1.9zm719.2-1c-6-1-2.1 2.9 0 0zm94.3 5.7c-2.1-2.6-8.4-4-9.5.9 10.4-1 26.5 1.1 39.6 1 4.9-.1 10.2-1.1 13.2-2.8-15.6-3.1-29.3.9-43.3.9zm45.2.9c.4-2.4 6.3 2.4 7.5-.9-1.8.3-1.8-1.3-2.8-1.9.1 2.1-8.8-.1-4.7 2.8zm-898.2 1.9c3.1-.6 6.8-.6 8.4-2.8-2.8 1-7.5 0-8.4 2.8zm818.1-.9c2.4.2 7.5-.8 4.7 1.9 2.9.4 2.6-2.4 3.8-3.8-3.2-.3-9.9.7-8.5 1.9zm9.4-1c3.2 2.9 2.9-3.4 0 0zm8.5 1c1.4-2.9-4.9-2.5-4.7-1 2.2-.3 2 1.8 4.7 1zm-926.5.9c1 2.5 3.6-1.2 4.7-1.9h-4.7zm865.2-.9c-1.3 4.1 7.4.1 3.8-1-.9 1.6-2.5 2.2-3.8 1zm22.6 1.9h1.9c1.5-2.3-3.2-2.8-2.8-1 .6.1 1.1.2.9 1zm-712.5 1.9c4-.4 8.3-.5 11.3-1.9-3.7-.8-8.2-.4-11.3 1.9zm656-1.9c-.8 3.6 4.4 1.2 6.6 1.9-1.4-5.4-3.5.2-6.6-1.9zm16 .9c6.5 1 3.1-3.7 0 0zm-768.2 0c-6-1.1-2 2.9 0 0zm48.1 0c-6-1.1-2.1 2.9 0 0zm30.2 3.8c4.5 0 17.5 1.4 16.9 0s-5.1 2.2-5.6-1c2.9 1 6.7-1.9 4.7-2.8-4.2 2.4-11.4 1.8-16 3.8zm770 1.9c.6 0 1.1.7 0 .9a3.5 3.5 0 0 1 0-4.7c-4.2-2.3-13.2-1.2-13.2.9-2.2-3.2-9.7 1.4-15 1v-2.8c-5 1.3-5.1 3.2-11.4 1.8.8 7.4 8.4 1.9 10.4 5.7.1-4.4 2.1 1.9 5.7 0 .8-4.4-2.5 1.3-2.9-1.9 1.3 0 .9-1.6 1.9-1.9 2.7.8 4.3 2.6 6.6 3.8s-2.4-2.7 1-2.8c1.7 4.1 4.6 1.5 7.5 1.9-3.6.7-1.3-4.6.9-3.8v4.7h4.8c.1-2.7-3.2-1.8-1.9-5.7 1.4.2 3.5-.3 3.7 1-1.4.1-3.2-.1-2.8 1.9 3.7-1.5 2 2.4 3.8 2.8 1.1-1.2 6.2.5 7.5-.9-6 .6-.7-5.9-2.8-4.8.4 2.6-3.5.9-3.8 2.9zm40.6-4.7c-1.3-.3-1.8-1.4-3.8-1-1.5 2.6 4.1 2.6 3.8 1zm-912.4 3.7c5.7-.5 11.6-.9 15.1-3.7a65.5 65.5 0 0 0-15.1 3.7zm125.3-.9a2.6 2.6 0 0 0 2.9-1.9 2.6 2.6 0 0 0-2.9 1.9zm10.4.9c3-1.1 7.1-1 9.4-2.8-3.4.7-8.1 0-9.4 2.8zm643.8-.9c1.9.5 7-.3 3.7-1.9-.3 1.6-2.9-.9-3.7 1.9zm32 1.9v1.9c.1.5.1 1.1 1 .9-.9-3.9 4.6-2 4.7-.9s-2.6.6-1.9.9c2.6 1.1 5.9-1.5 6.6 2.8 1.1-3.7 4.6.5 6.6-2.8-1.4-.5-4.9 1.1-4.7-.9 4.2.1 6.2-2 7.5-4.8-4.2-2.8-3.9 4.7-6.6 0-1.3.6-.1 3.7-1.9 3.8a4.5 4.5 0 0 0-2.8 1c1.2-3.1-3.1-.8-1.9-3.8.9.6 3.5 2.2 2.8-1-4.4-.3-4.3 3.9-9.4 2.9zm-837.9.9c2.7-1 6.6-.9 8.5-2.8-3 .8-8-.4-8.5 2.8zm154.6-.9c2.9.1 5.2-.5 6.6-1.9-3-.1-5.3.4-6.6 1.9zm-80.2.9c1.7-.5 4-.5 4.8-1.9-1.8-.1-6.9 1.2-4.8 1.9zm-77.2 0zm60.3 2.8c2.1-2.2 7.9-.9 9.4-3.7-4-.3-11.2 1.3-9.4 3.7zm757.8-1.8c.9 1.4 11.6 1.4 9.4 0s-2.7.1-2.8-1 1.8 0 1.9-.9c-4.5 2.9-5.8-1.6-8.5 1.9zm-723.9 0zm1.9 0c3.6 2.6 4.1-3.5 0 0zm-5.7.9c-1.6.5-5.5-1.1-5.6.9 1.6-.5 5.5 1.2 5.6-.9zm768.2.9c4.2 2.4 5.4-3.3 0 0zm-784.2 2.9c2.5-.4 5.2-.5 6.6-1.9-3-.2-5.7 0-6.6 1.9zm790.8 2.8c-.7.2-1.8 0-1.9.9 3.3 2.5 8.1 1.5 8.5-3.7-7.8-.9-13.9 1.9-18.8-1-3.1 3.4-8.9 1.8-12.3 0a2.6 2.6 0 0 1-1.9 2.9c-.1-1.8-.6-3.2-1.9-3.8-.1 1.4-2.2.8-3.7.9.6 6.2 8.9 2.1 10.3 5.7-1.5.1-8.5-.5-5.6.9 5 1 5.7 2.2 9.4-1.9-1 .1-2.4-.4-.9-.9s3.6 2 6.6 1.9c-.2-4.3 9.8-3.3 12.2-1.9zm8.5.9c-.2-2.6 5.8.8 5.7-1.8-1.6-2.5-8 .7-5.7 1.8zm0-4.7c-.7 3.6 3.5 1.1 3.8 0-2.6-.1-1.9 1.6-3.8 0zm23.6 0c-1.4.5-4.9-1.1-4.8 1s3.9.7 4.8-1zm-828.5 2.9c0-1.6 2.6-.6 2.8-1.9-1.9-.8-5.9.8-2.8 1.9zm-11.3.9c3.6.1 6.8-.1 8.4-1.9-4.6 1-6.7-1.2-8.4 1.9zm730.4.9c-1.3.6-4.8-1.1-4.7 1 1.4-.5 4.9 1.1 4.7-1zm90.5 3.8h2.8v-1.9h-2.8zm-14.1 4.7c5.1-.3 7.1 1.3 11.3-2.8-2.3-.6-6.9 1.2-7.6-.9 1.8-.2 3.2-.7 3.8-1.9-5.8-1.5-5 3.8-7.5 5.6zm-5.7-3.7c10.1-.4 1.1-3-2.8.9 1.3.4 2-.9 2.8-.9zm24.5.9a6.3 6.3 0 0 0 2.8-1.9c-1.2-.1-5.1 1.5-2.8 1.9zm-136.6.9c1.6-.2 4.7 1 3.7-1.8-1.7.1-3.1.6-3.7 1.8zm15-1.8c-1.4.1-3.4-.4-3.7.9 1.4-.2 3.4.3 3.7-.9zm83.9 1.8h1.9v-1.8h-1.9zm-105.5 0c6.6 2.3 5.5-3.2 0 0zm-16.1 1c-4.8-2.6-3.5 3.3 0 0zm5.7.9a2.5 2.5 0 0 0 2.8-1.9c-1.5.1-3.3-.1-2.8 1.9zm146.1 0c3.4.9 5-1.6 6.6 0 .3-3.9-5.5-.6-6.6 0zm-864.3 1c1.6-.6 3.9-.5 4.7-1.9-1.8-.1-6.9 1.1-4.7 1.9zm701.2.9c2.2.3 3.6-.2 3.8-1.9-2.2-.2-3.6.3-3.8 1.9zm153.7 0c3.1 4.8 16.3-2 18.8 1.9 1.8-1.7-.2-2.9-1.9-3.8-4.2 2.4-10.8 1.7-16.9 1.9zm-5.7 2.8c2.3.2 4.6.2 4.7-1.8-1.8.4-5.7-1.3-4.7 1.8zm19.8 4.7c6.6-.8 8.5.2 11.3 0-.7-.1-2.9-3.1-.9-2.8a2.5 2.5 0 0 0 2.8 1.9c-.3-3.8 1.3.2 3.8-.9-1.2-3.1 3-.8 1.8-3.8-2.2 2.9-12.1.6-11.3 3.8-.8-2.1-6 .3-6.6-1.9 0-.6-.1-1.1-.9-1 3.3 4.3.8 3 0 4.7zm-44.3-3.7c-6-1.1-2.1 2.9 0 0zm26.4 4.7c5.7-1.4 9.4 1.1 13.2-1.9-3.7-1.4-10.9-1-13.2 1.9zm-2.8-1c-1.4.6-4.9-1.1-4.8 1 1.4-.5 4.9 1.1 4.8-1zm-796.5 3.8c1.8-2 6.9-.6 8.5-2.8-3.7-.5-10.4.9-8.5 2.8zm816.3-2.8c-1.7.5-5.6-1.1-5.7.9 1.7-.5 5.5 1.2 5.7-.9zm-90.5 6.6c6.4-1.2 10.3 1 16-2.8-6.3 0-13.2-.7-16 2.8zm70.7.9c0-1.8 2.5-1.2 1.8-3.7H920c.1 1.7.6 3.1 1.9 3.7zm-86.8 0c2.5.5 3.3 1.3 4.8-.9-1.2-1.2-3.6-.4-4.8.9zm115-1.9c-1.4.2-3.4-.3-3.7 1 1.4-.2 3.4.3 3.7-1zm-172.5 7.6h2.9v-1.9h-2.9zm30.2 5.6c3.2.8 3.7-3.6 1-3.7a5.6 5.6 0 0 1-1 3.7zm-24.5-.9c5.3 2.2-6.3-.6-5.7.9a1 1 0 0 1 0 1.9c-.9-1.7-7.8-1.6-7.5 1 2.2 3 6.7-2.1 8.5.9a7 7 0 0 0-2.8 1.9c7.3-.7 14.6 2.8 17.9-2.8-4.8.1-5.2-.3-1.9-1.9-2.5 0-5.9.9-4.7-2.8-1.4.1-3.5-.4-3.8.9zm17.9 1.9c2-.6 6.6 1.5 5.7-1.9-3.8 0-10.4 1.3-10.4 5.7 3.6-1.7 9-1.3 12.3-1V262c-1 0-1.2-.7-1.9-.9-1.9 1.9-4.5 2.5-5.7 0zm191.3.9c.1-1.5 2.7-.5 2.9-1.9-1.9-.8-5.9.9-2.9 1.9zm-180 0c-4.5-2.6-2.3 3.1 0 0zm-67.8 1c4 5.9 10.8-.5 16.9 1.9-.1-1 4.1-2 1-2.9-5.4.3-12 2.5-17.9 1zm25.4 3.7h1.9v-1.8h-1.9zm-8.5 0c-4.1-2.3-5.4 3.4 0 0zm25.5 1c1.3 1 8.3.4 5.6-1.9.2 2.7-5.8-.8-5.6 1.9zm225.2 0c2.3-2.3-3.1-2.5-2.8-1s3.2.6 2.8 1zm-61.2 6.6c1.5-2.3 7.9.4 8.5-2.8-1.1-1.2-10.4 1.1-8.5 2.8zm-30.2 0c2.4-.1 4.9-.2 4.7-2.8-1.6.8-5-.1-4.7 2.8zm24.5-1.9c-2.9.7-2.8-1.6-5.6-.9-1.4 3 5.6 2.3 5.6.9zm-15.1 5.6c8.5-.3 8-.3 17-.9-3.9-4.9-12.1.3-17 .9zm48.1-1.8c3.7 1.8 7.7-1.3 13.2.9-.9-4.6-10.8-2-13.2-.9zm-54.7.9c0-.6-.1-1.1-.9-.9.2 3.2 6.8 3.8 6.6 0-3.3-.1-4.1-1.8-5.7.9zm32.1-.9c-1-1-6.7-2-7.6 0 1.5 2.1 5.1 1.6 7.6 0zm16 0c-9.3-.2 4.6 0 0 0zm1.9.9h3.8v-1.9h-3.8zm-10.4-.9c-6-1.1-2 2.8 0 0zm-54.6 1.8c-9.8.9 7.5 2.8 12.2-.9-2 1.1-13.3 1-12.2.9zm-6.6 0c-1.7.6-5.6-1.1-5.7 1 1.7-.5 5.5 1.1 5.7-1zm37.7 5.7c5.2-1.8 8.9 1 8.4-2.8-1 3.2-.2-2.6-2.8-1-.7 2.5-5.4.9-5.6 3.8zm10.3-.9h1.9v-1.9h-1.9zm26.4-1c9.5-.7-1.7-2.9-4.7 1 3.1.1 2.7-.8 4.7-1zm-12.2 1.9c2.2-2.3-3.1-2.4-2.9-.9 0-.1 3.2.5 2.9.9zm-39.6-.9c-.2 2.3-3.2.2-3.8 0-1.6 3.8 8.1 1.6 3.8 0zm-25.5 2.8c2.5 0 5.6.5 5.7-1.9-2.4.1-4.5.5-5.7 1.9zm50 2.8h2.8v-1.9h-2.8zm-28.3 6.6c-.1-1.4.4-3.5-.9-3.8-.6 2.9-2-.9-3.8 0-.1 3 2.4 3.3 4.7 3.8zm-9.4-.9c1.4-.2 3.5.3 3.8-1-1.3-1.2-3.5-1.2-3.8 1zm-3.8-1c-1.6.6-5.5-1.1-5.6 1 1.6-.6 5.5 1.1 5.6-1zm-3.7 12.3c-10.9-1.1-6.8 2.8 0 0zm35.8 3.8c1.6-.3 4.7.9 3.7-1.9-1.7.1-3.1.6-3.7 1.9zM810.6 312c3.8.4 4.2-1.8 5.7.9-.4-2.6 3.5-.9 3.8-2.8-4.3-.5-7.6-.5-9.5 1.9zm16.1-1h1.8v-1.8h-1.8zm-22.7 1c.7.7 5.7 2.4 4.8-1s-5.2-.9-4.8 1zm-5.6 3.8h1.9c.5-.1 1.1-.2.9-1s-1.6-1.5-2.8-1.9zm90.5 6.6c7.2-.1 7.6-1.2 15.1-1 1.1-4.2-7.9-3.1-2.9-.9-3.2-1.1-6-1.9-8.5-1 4.3 2.2-7.1 1.5-3.7 2.9zm-88.6.9c.8 3.5 11.7 2 14.1.9-4-1.6-8.6 1.4-14.1-.9zm8.5-1.9c-1.3-.8-4.3-2.7-5.7-1.9s1.4 1.2-1.9 0c-1.3-.4-4.3.9-5.6 1.9 3.4.2 8.4 2.8 13.2 0zm-19.8 3.8c1.5-2.4 3.3 1.9 7.5.9-1.9-2.8-.5-3.2-2.8-5.6-.7 1.2-2.5-.5-4.7.9-.1-.6-.2-1.1-1-.9s-.3 7.7 1 4.7zm-23.6-1.9c2.9 0 7.7 2.9 7.5-1.9-1.7 1.4-6.2 0-7.5 1.9zm7.5 1.9c2.7 1.5 2.6-4.1 1-3.8a5.5 5.5 0 0 1-1 3.8zm-11.3-1h2.9v-1.8h-2.9zm15.1 2.9c3 .4 2.7-2.4 3.8-3.8a4.5 4.5 0 0 0-3.8 3.8zm-48.1 0c3.2-1.1 4.1.6 5.7-1-.7-.8-6.5-2.5-5.7 1zm7.6 11.3c3 1.6-4.9 0-3.8 2.8 10.1 1.5 19.3 3.3 29.2 1.9a5.4 5.4 0 0 0-.9-3.8c6-2.5 10.3.5 14.1 2.8 4.6-1.1 9.6-4.1 14.2-4.7 1.8-.2 4.2 2.5 4.7-.9-3.9-1.1-6.2-3.9-10.4-4.7-1.1 3.6-4.6.9-6.6-1 0-1.5 2.6-.5 2.8-1.9-1.9-1.5-6.5.5-4.7 1.9.6-1.8.2 2.2 1.9 3.8-4.2 1-4.7-1.6-7.5-1.9.3 2.7-9.9 4.1-6.6 1-8.4 4-21 3.9-26.4 4.7zm36.7-5.7c-.1-1.4.4-3.5-.9-3.8-.1 3.4-3.1-2-2.8 1 1.2.9 1.8 2.5 3.7 2.8zm-125.3 1a4.1 4.1 0 0 1 2.8.9c.4-2.9-2.5-3.5-2.8-.9zm-34.9 5.6c1.8-1 5.3-1 8.5-2.8-3.9-1.1-11.8-.5-17 1.9 4.7 2.2 7.9-2.3 8.5.9zm102.7 3.8c8.1-1.3 10.2 1.9 16.1-1.9-3.3-1.2-5.1-.4-9.5 0 .3-1.3 1.6-1.6 1.9-2.8-9.5 3.2-26.5.1-37.7.9.3 0-.6 1.8-.9 1.9-4.1 1.7-12.7-2.4-8.5 1.9-2.7-.5-4-2.3-6.6-2.8-3.3 3.5-10.5 4.9-13.2 1.8-2 5.4-15.2-.9-17.9 5.7-2.2-2.5-8.9 2.2-6.6-1.9-3.2-.7-1.2 3.8-4.7 2.8-.4-1.4-3-.8-1.9-3.7-2.9 1.2-5.2-2.8-6.6 0a2.5 2.5 0 0 1 2.8 1.9c-1.8-.3-1.8 1.2-2.8 1.8-2.9-3.4-10.2-.3-13.2 1.9-1.1-.1-2.2-.3-1.9-1.9-4.2.3-3.9 1.7-4.7 3.8-3.3.5-2.3-3.3-5.6-2.8-.2 3.9-.7.2-1.9 0 1.4 3.3-3.2.6-2.9 2.8 5.1-1 5.4 1.6 2.9 3.8 2.6 1 6.7.5 9.4-1-2.4-.1-4.5-.5-5.7-1.8 6.2 1.4 13-4.2 16.1 1.8 8.3-1.6 13.5-1.1 18.8-4.7v2.9c3.5.9 1.9-3.2 3.8-3.8 4.2-.3 8-.1 5.6 3.8 2.2-.7 4.9-.9 6.6-1.9s-1.2-1.9-1.8-2.9c10.6.4 22.9-5.3 24.5 1.9 3.2-3.3 12.2 2.5 11.3-1.9 1.3.3 1 2.1 1.9 2.9-4.9-2.6-5.5 3-3.8 1.9-5 3.4-8.2-2.3-15.1 0 .7.2 1.1.7.9 1.8s-2.6-.1-2.8 1c9.3-.6 28.6-.5 23.6-3.8h4.7c0 1-.8 1.1-1 1.9 8.6-.9 13.2 1.5 18-4.7-4.5.8-8.8-1.9-6.6-4.7 5 5.2 8.2-.8 14.1-2.9-1.5 0-3.3.2-2.8-1.8 2.6-.1 5.8.8 3.7 2.8zM614.6 345h1.9v-1.9h-1.9zm51.8 4.7zm-89.5 1.9h1.9v-1.9h-1.9zm148 0c1.9.5 7-.3 3.7-1.9-.3 1.6-2.9-.9-3.7 1.9zm7.5 0h1.9v-1.9h-1.9zm50.9-1c-1.2 0-1.3-1.2-2.8-.9-1.5 2.3 3.2 2.8 2.8.9zm-197 1c-1.6.2-4.7-2.7-5.6 0 2 .5 4.5 3.8 5.6 0zm-20.7 4.7c3.4-.2 3.6-1.3 6.6 0-.3-1.9 1.2-1.9 1.9-2.8-5.5-1.4-3.9.1-6.6-1.9.7 2.9-2.6 1.8-1.9 4.7zm187.5-2.8c.5 3.2-.3 5.2-.9 7.5 3.9 1.9 12.6-2.5 17 0a6.2 6.2 0 0 1-4.7.9c-2.1-.6-6 1-1.9 1s8.6 0 13.2-1c-1.5-9 11.7-3.3 12.2-10.3-7.5 2.5-12.9 1.3-20.7 3.7 1.1.2 1 1.5.9 2.9-3-.1-9.7 2.4-14.1 0 4.4.8 1-1.5 2.8-1.9 1.2 1.3 5.6 1.6 5.7-1-6.2 1-1.2-1.9-2.9-2.8-.4 2.1-4.6.4-6.6 1zm-190.3.9a2.6 2.6 0 0 0 2.8-1.9c-1.5.1-3.3-.1-2.8 1.9zm16.9 2.8c1.6-1.8-.1-1.2 0-3.7.7-.3 1.9-.1 1.9-1h-5.7c-.1 3 1.6 4.1 3.8 4.7zm-26.4-3.7c-7.4 1.9-12.2 1-16.9 1.8-.2.1-.3 1.7-1 1.9-2.4.7-11.9-2.7-14.1 2.9 2.7.4 10.3-3.6 7.5 0 3.9-.3 5.5-2.7 9.4-2.9-.2 1.4-1.5 1.6-1.8 2.9 3.3-.4 4.4-1.5 4.7-2.9h4.7v2.9c3.9-1.7 9.5-1.8 11.3-5.7-3.1-.8-5.9 2.4-3.8-.9zm51.9 1.8c1.3-.5 4.8 1.1 4.7-.9-3 .5-3.9-2.2-4.7.9zm27.3 3.8c-2.4.8-8.1-1.8-7.5 1.9 9.8-2.2 19.3-1.5 27.3-3.8-4.5-2.6-8.2-.1-12.3-2.8-.2 1.8 1.3 1.9 1.9 2.8-5 .6-8.4-.4-10.3-2.8-.8 2.7 1.3 2.4.9 4.7zm48.1 2.8c3.7 2.4 7.9-1.1 11.3 1.9-7.1 1.1-12.8 2.9-18.9 1 2.2 0 2.8-1.7 5.7-1-2.5-3.4-1.5-3.1 1.9-4.7-6.6 1.5-11.1-.8-16.1 1.9 2.5.7 5.4.9 6.6 2.8-3.2-1.4-8.6-.8-13.2-.9.4 4.9 10 .3 11.4 2.8-3.9 2.7-9.9-.6-11.4 2.8-18.6-1.2-42.8 3.6-65 5.7-10.6 1-24 1.2-29.2 3.8 12.3-1.1 23.9-2 37.7-2.9 9.3-.6 21-5.2 28.3-.9.6-3.4 17.4-5.5 13.2-1.9 5.4-.4 9.6.3 10.3-2.8 4.8 0 10.5.1 15.1 0s8.8-2.4 13.2-2.9c11.2-1 21.4 1.5 26.4-3.7-2.5.2-7.5.7-9.4 0 3-1.7 9.4 0 10.3-3.8-13.7 4.5-18.6-3.9-28.2 2.8zm-192.3 1c4.9.5 12.2 1.2 15.1-2.8-5.5 2.4-11 .3-15.1 2.8zm115-2.8c-1 1.5-4 1-5.7 1.8s-6 1-1.9 1c7.2-.3 10 .3 14.2-1.9-2.5 0-5.4.4-6.6-.9zm16 0c-1.4.5-4.9-1.2-4.7.9 1.4-.5 4.9 1.1 4.7-.9zm4.7 0c-6-1.1-2.1 2.8 0 0zm9.4 2.8c.2 6.2-6.3-1.1-7.5 3.7a20.1 20.1 0 0 0 5.7 1.9c.1-1.1.2-2.2 1.8-1.9 6.2-.3 20.9 1.4 23.6-4.7-6.3-.3-12.2 1.2-23.6 1zM739 361c-1.7.5-5.5-1.1-5.7.9 1.7-.5 5.6 1.2 5.7-.9zm-254.5 2.8h1.9v-1.9h-1.9zm226.2 0h10.4c-.2-4.3-11.8-.2-10.4 0zm-99.9 4.7c1.8-.1 3.2-.6 3.8-1.9-2.2-.2-3.6.3-3.8 1.9zm-66-.9c-1.3.5-4.8-1.1-4.7.9 1.4-.5 4.9 1.1 4.7-.9zm54.7 2.8c2.9-.3 7.3 1.1 7.5-1.9-2.3.8-8.1-1.8-7.5 1.9zm-10.4 1h1.9v-1.9h-1.9zm-31.1 1.8c-7.6 2.5 6.3-1.6 0 0zm3.8 1c2.7-.2 6.5.8 6.6-1.9-2.1.7-7.3-1.7-6.6 1.9zm-7.5-1c-1.4.6-4.9-1.1-4.7 1 1.3-.5 4.8 1.1 4.7-1zm-347.8 7.6c4.5.7 6-1.5 10.3-1-.7-3.9-9.3-1-10.3 1zm13.2-1c1.4 0 3.2.2 2.8-1.8h-1.9c0 .9-.8 1.1-.9 1.8zm342.1-1.8c-6-1.1-2.1 2.8 0 0zm12.3 3.7c4.5-1.7 12.6.1 15-3.7-5.3.9-11.6.9-15 3.7zm-65.1 7.6c2.6 1.5 4.3-2.5 1.9-2.9.3 1.9-1.3 1.9-1.9 2.9zm20.8-1.9c3.5 2.6 4.1-3.5 0 0zm451.4 0c-6-1.1-2 2.9 0 0zm27.4 0c-10.8-1.1-6.8 2.8 0 0zm-67.9 2.8c2 .2 5.9 2.1 6.6-1.9-3.8 1-4.3-.6-6.6 1.9zm-728.6 10.4c5.5-2.3-13.5-1.7-15.1.9 5.8.5 9-1.7 15.1-.9zm30.2-1c-1.4.6-4.9-1.1-4.7 1s3.8.7 4.7-1zm681.4 2.9c2.5-.1 4.5-.6 5.7-1.9-2.5 0-5.6-.5-5.7 1.9zm-47.1 1.9c3.9.2 3.7-1.3 6.6 0 1.2-3-7.8-3-6.6 0zm7.6 0c2.9-.7 1.8-.7 4.7 0 .9-3.5-5.3-2.1-4.7 0zm50.9 0c-6.1-1.1-2.1 2.8 0 0zm-53.8 1.8c-10.5.4 1.3 2.2 5.7 0-2 .1-3.9 0-5.7 0zm-7.5 2.9c-6-1.1-2.1 2.8 0 0zm-7.6.9c-7-1.1-3 2.9 0 0zm-623 12.3c8.2.4 14.1.5 19.8-2.9-7.6 0-15.1 0-19.8 2.9zm238.5 9.4c-.7-2.6 4.4.7 3.8-1.9-2.8-.9-6.2-.6-3.8 1.9zm-247 .9c5.9 1.3 13.3-1 19.8-1.9-5.3-.3-16.1-1.2-19.8 1.9zm-7.5 1.9c2.7-.2 6.5.8 6.6-1.9-1.2-1.1-6.5-.9-6.6 1.9zm386.4 0c2.3-2.3-3-2.4-2.8-.9 0-.1 3.2.6 2.8.9zm-27.3 3.8c.1-2.7 6.5.8 6.6-1.9-2-.6-8.8-2-6.6 1.9zm2.8 3.8c-6.2-.2-7.5 1.7-12.2-1 .5-1-1.5-2.1 1.9-3.8-4.1.2-9 2.4-11.3-.9-1.8 1.7 1.2 2.9-1.9 3.8-10.6.4-14.7-.2-20.8 2.8 9.5 1.1 17.8-3.3 29.3 0-2.8.7-6.7.3-7.6 2.8 3.9-.8 5.2-1.8 2.8 1.9 5.8-3.4 14-1.2 19.8-5.6zm-350.6-1.9c-6-1.1-2.1 2.8 0 0zm299.7 3.7a2.6 2.6 0 0 0 2.9-1.8 2.6 2.6 0 0 0-2.9 1.8zm270.6-.9c-6.1-1.1-2.1 2.9 0 0zm6.5 0c-1.3.5-4.8-1.1-4.7.9 1.4-.5 4.9 1.1 4.7-.9zM493 447.7c-.8 4.2 10.5 0 4.7 3.8 6.2-.1 8.6-4 13.2-5.7-6.6 0-10.5 2.7-17.9 1.9zm21.7 0h1.9v-1.9h-1.9zm14.1 5.7c5.3-.8 12.5-1.7 17.9-4.7-2.3 1.2-3.9-2.8-4.7 0s-15.3-3.7-13.2 4.7zm-89.5 3.7c7.3.3 15.9.1 22.6-2.8-9.4-1.5-15.4-1.4-22.6 2.8zm-29.2 12.3c-3-.1-5.3.4-6.6 1.9 4.2.7 5.7.8 6.6-1.9zm-99 37.7c5.8.4 19.8-3.8 10.4-3.8 7.5-.5 9.6-3.9 16.9-2.8 1-.9.3-3.5 2.9-2.8 7.7 2.2 14.9-2.4 22.6-3.8 3.8-.7 7 .9 7.5-1.9.2.7 1.1 1.9 1.9 1.9 7.3-.3 21.1-5.7 25.4-7.5-5-.7-9.4-1.9-14.1-2.9 12.9-3.4 31.7-5.9 44.3-6.6.2 3.7-4.7 2.3-6.6 3.8 1.7-3.4-1.9 1.3-4.7-1.9-.2 2.9-3.4 2.9-4.7 4.7 5 2 14.9-1.1 22.6-.9-.5 0 1.1 1.7 1.9 1.9 2.9.7 4.9.5 5.6-1.9-1.3-.5-4.8 1.1-4.7-1 29.7-4.7 47.7-8.5 80.1-12.2-.2-1.9 1.3-1.9 1.9-2.8-8.2-1.2-18.1 3.9-22.6-1.9 10.6-3.7 22.8-4.8 32.1-7.6.4 2.6-3.6.9-3.8 2.9 4.6-.3 7.1-.6 11.3-2.9a6.1 6.1 0 0 1-2.8-1.9c1.9.9 5.8-.8 2.8-1.8-9.3 2.7-13 1.1-23.6 3.7.1-1.2 1.2-1.3 1-2.8-8.3.8-14.1-.2-18.9 0a1 1 0 0 1 0 1.9c-7.2 1.3-15.8 1.1-20.7 4.7 12.3-.4 27.3-5.5 35.8-3.8-27 3.4-51.5 9.3-78.2 10.4 2.4-1 6.3-.6 7.5-2.8-6-.6-7.7.7-14.1 2.8 2.3-.1 4.6-.2 4.7 1.9-6.2 2-15.9 1.7-19.8.9 1.2.1 2.2.3 1.9 1.9-18.6 3.2-32.1 4.6-48.1 7.6-11.5 2.1-24 4.6-31.1 8.4-.9-1.6-2.6-2.4-5.6-1.8-15.1 6.3-31.5 5.5-47.2 11.3 2.9.3 7.4-1.1 7.6 1.8-22.6 7-46 1.5-63.2 11.4-1.4.1-3.5-.4-3.8.9 7.1 1.5 7.4 1.9 12.3 0 0 1.2-1.2 1.3-.9 2.8 5.6.6 7.5-2.5 11.3-3.7 3.2 1 1 2.3 3.7 2.8 7.4-2.2 20.1-6.3 28.3-3.8 2.7-.5-1.4-1.5-.9-2.8 4.9-1.9 5-1.2 9.4.9.1-1.1.3-2.2 1.9-1.9 5 2.7 6.2-.8 10.4 1-2.4-.2-4.6-.2-4.8 1.9 7.1.7 9.9-6.1 15.1-1.9 2.3-3 .8-.2 3.8 0zm0-19.8c7 1.5 13.5-.6 18.8-2.8-7.9-.7-10.7 3.7-18.8 2.8zm-93.3 24.5c-.1 3.5 4.2 2.7 7.5 2.8.2-3.6-5.9-1-7.5-2.8zm302.5-58.4c-6-1.1-2 2.8 0 0zm-91.4 5.6c6.8 1.9 8-3.1 0 0zm-25.4 2.8c2.7.2 4.7-.2 5.6-1.8-2.5 0-5.5-.6-5.6 1.8zm151.7 0c4.6 1.8 7.4 0 13.2 1-1.4-4.8-9.6-2-13.2-1zM443 464.7c6.9-1.7 18.3 1.3 21.7-3.8-7.4 2.8-15.2-.3-21.7 3.8zm-47.1.9c.7-2.7 7.8.9 8.5-1.9-1-1.3-10.9 0-8.5 1.9zm-16-1.9c-.8-.8-2.7.7-2.8 1s3.4-.3 2.8-1zm166.8 1.9c2-2.3 1.3-.9-.9-.9-3.9 0-15.2.3-17 2.8 7.6 1 10.9-2.3 17.9-1.9zm-157.4 1c1.7-.3 4.7.9 3.8-1.9-2.2-.3-3.6.2-3.8 1.9zm-6.6 0c-1.3.5-4.8-1.1-4.7.9 1.4-.5 4.9 1.1 4.7-.9zm32.1 2.8c1.8-.4 5.6 1.3 4.7-1.9-1.7.5-3.9.5-4.7 1.9zm246-1c-10.2-.2-18.7-3-23.6 2.9 5.8-.2 2.2.6 1 2.8 3.8.7 4.2-2 5.6-3.8 4.8.1 9.7-2.7 11.3 1.9 4.8-2.4 8.9-1.3 13.2-2.8-1.4-3.6-5-.9-7.5-1zm-132 9.5c1.7.4-.4 1-.9 1.9 3.9.7 4.8-1.5 8.5-1-.3 1.4-1.6 1.6-1.9 2.8 1.6.6 5.5-1.1 5.6 1-2.3-.2-4.5-.2-4.7 1.9 1.5.2.7 2 0 2.8 7.2-3 18.2-1.3 25.5-5.7-1.6-.9-2.2-2.5-1-3.7-2.8-.6-8.1 1.2-9.4-1 1.7-.7 3.8-1.2 4.7-2.8 3.1 4.7 14.8-1.8 17.9-3.8-13.4 1.1-31.2 3.3-44.3 7.6zm77.3-5.7c3.1-.6 1.5 2 .9 2.8 4.8-1.5 10.4-2.2 15.1-3.7-4.8-1.4-12.2-1.4-16 .9zm-214 1c1.2 1.1 10.5-1.1 9.5-1.9-3.7 0-7.1.4-9.5 1.9zm-65 1.8c-.2-1.5 6.7-.6 2.8-2.8.2 1.6-6.6.7-2.8 2.8zm-5.6-.9c-6.3.7-15 3.9-18.9 3.8 1.4-2.7 6.4-1.8 8.5-3.8-8.1-.2-18.3 6.4-23.6 2.8-1.4-3.3 3.2-.5 2.9-2.8-6.6 1-13.9 1.2-18.9 3.8 5.1.6 11.2-2.6 14.1-1 0 1 .8 1.1 1 1.9-7.6 1.4-22.2 4.5-30.2 7.6-.8.3-5.8-1.1-2.8 1.8 2.6-1.3 7.4-.6 13.2-.9.3 2.5-3.7.7-2.8 3.8 8.2-1.5 20.3-5.1 25.4-6.6-3.8-1.2-6.9 2.5-7.5-1 7.1-1 13.5-2.8 20.7-3.7.3 2.1-2.7 1-2.8 2.8 12.7-1.6 27.1-3.8 35.8-6.6-5.4-1.3-10.8 2.3-14.1 0 .2-1.3 3.9-1.8 0-1.9zm42.4 3.8c1.9-.6 6.5 1.5 5.6-1.9-1.6.8-4.7.3-5.6 1.9zm156.4.9c2.2.3 3.6-.2 3.8-1.9-1.7.2-4.7-.9-3.8 1.9zm-253.5 0c3.3-.6 2.5-1.4-1 0-1.5.6-.1.2 1 0zm-33 1c-6 2.7 3.6-1.7 0 0zm101.8 2.8c0-1 .8-1.1.9-1.9-3.5-.7-4 1.6-7.5.9 3.5 5.2 12.9 1.2 18.8 0 1.9-.3 4.6 2 4.8-1.8-5.2 1.4-11.9 1.3-17 2.8zm138.6 15.1c1.4-3.6 8.6-1.4 11.3-3.8-3.6.8-3.7-2-4.8-3.8 1.5-.1 3.5.4 3.8-.9-3.5-1.3-7.5 1-10.3-1 4-2.2 10.7-1.8 15-3.7-4.2-2.7 10.1-2.3 13.2-3.8 1.2.3 5.8-.2 2.9-.9h-2.9c-17.4 2.2-39.1 6.2-59.4 8.4.3-1.1 1.5-1.9-.9-1.8-11.1 1.4-21 6.6-32 7.5-3.3.2-6.8-3.1-9.5.9 1.7.3 4.8-.9 3.8 1.9-.9 0-1.1.8-1.9 1s-2.4-4.5-5.6-2.9c-1.5 4 5.2-.2 3.7 3.8-1.8-1.8-1.7.6-4.7 0v-3.8c-9 .7-16 2.3-24.5 3.8-3.9.7-10.5 5.7-10.4 1.9-21.1 5.9-46.2 7.7-66.9 14.1 2 1.3-1.3-.5-1.9 1.9-4.4-3.8-6.6 1.8-10.3 2.8 2.6 3.6 9.8.5 15.1 0a12.1 12.1 0 0 0 0 1.9c7.5-.3 35.7-2 38.6-4.7-.5.5-3.1-.3-2.8-.9 11.9 1.7 33.8 0 45.2-4.7-12-3.5-21.7 5-30.2 0 4.8 0 9.7.2 12.3-1.9-1.7-.2-4.7.9-3.8-1.9 2.5 0 5.9-.9 4.7 2.8 11.5.3 23-4.5 29.3-3.8-.7 0-1.9.3-1.9 1 31.8 1.9 54.9-7.3 85.8-9.4zm-26.4-16.1c-6.5-.5-2.5 3.5 0 0zm-41.5 4.8c3.6.9 7.8-1.6 3.8-2.9-.3 2-4.2.3-3.8 2.9zm87.6-2.9c-6-1.1-2 2.9 0 0zm123.5 6.6c5.8-1.9 12.2 1.7 15.1-3.7-5.4 2-12.4 1.1-15.1 3.7zm-59.4 5.7c-6 3.6-16.6 2.8-24.5 4.7 5.2 2.4 26.3-2.5 33-4.7a15.4 15.4 0 0 1-8.5 0zm-309.1 6.6c1.7-.5 3.9-.5 4.7-1.9-2.3-.1-4.6-.2-4.7 1.9zm214.9 1.9c-8.6 1.4-19.3-.3-27.4 3.7 11.8 0 25.4-3.6 35.9-1.9a.9.9 0 0 1 0-1.8c2.9 1.7 9.7.6 11.3-1.9-7.1-3.9-12.7.7-19.8 1.9zm311 4.7c2.8-1.1 3.5-.6 4.7 1.9-3.2-.7-1.2 3.8-4.7 2.8-.3 1.8 1.3 1.9 1.9 2.8a1 1 0 0 0 0 1.9c6.5-3.7 9.5-10.7 2.8-17-.7 4.8-2.4 3.6-4.7 7.6zm-269.5-3.8c-4.3 1.9-1.5 1.1 1.8.9 1.1 0 10.9-1.3 12.3-3.7-6.7 1.2-11.5 1.7-14.1 2.8zm-108.4 16c-14.1 3.8-26.9 5.4-38.7 7.6-10.2 1.9-22.4 5.5-29.2 2.8 1.5.6-1.6-.7-1.9-.9 3.2-2.8 5.8-2.1 5.7.9 4.5-.8 8.3-5.8 11.3-2.8.7-3 3.1-1.9 2.8-3.8 2.2.3 1.8 3.3 4.7 2.8.9-4.9 5.8-5.1 9.4-2.8 5.6-5.3 15.1-1.1 21.7-5.7-6.5-3.6-12.5.6-18.8 1.9-10.3 2.1-16.4 1.9-23.6 3.8s-15.4-.4-21.7 4.7c1.1.2 2.7-.2 2.9 1-7-.7-11.6 1-17.9.9 5.1 7.6 16.1-.7 23.5 1.9-3.6 2-9.9 1.4-13.2 3.7 5.9 1.8 15.1.5 18.9-2.8 9.8 1.1 19.8-3.5 26.4-4.7 2.4-.4 5 .4 7.5 0 5.2-.8 10.6-2.7 16-3.8 14.2-2.7 32-3.8 46.2-6.6 20-3.9 40.4-8.1 58.4-10.3 5-.7 14.3-1 13.2-3.8-12 .3-23.5 4.1-39.5 4.7-1.3 1-1.9 2.6-3.8 2.8-14.5.3-33.1 2.8-48.1 7.6-4.4-1.4-8.5-.1-12.2.9zm400.5-9.4c-3-1.9-3.3-1.1-6.6-1.9-1.2 3.5 5.6 3.8 6.6 1.9zm-592.8 2.8c1.5-.1 3.3.2 2.8-1.9h-1.9c0 1-.7 1.2-.9 1.9zm-17 3.8c2.4-.1 4.5-.5 5.7-1.9-2.5 0-5.6-.5-5.7 1.9zm103.7 5.7c2.6 1.8 9.8-1 8.5 4.7 5.1-1.4 15.1-1.2 15.1-4.7 3.3-1.7 6.7-.5 9.4-1s9.5-4.2 10.4-.9c2.3-2.7 9.7-.4 10.3-4.7-17.3 2.7-37.7 2.4-53.7 6.6zm-35.8-1c3.9.1.2.6 0 1.9 3.2 1 6.2-1.3 9.4-1.9s9.3.6 11.3-2.8c-4.3-.2-15.3 1-20.7 2.8zm180.9-1.9c-9.3-.1 4.6.1 0 0zm-275.2 4.7h2.9v-1.8h-2.9zm100.9 1c1 .2 2.2 1.5.9 1.9-6.6-.7-15.7 4-23.5 2.8 4.8-2.4 11-3.5 17.9-3.8-2.6-4.8-7.5-.4-9.5 0s-10.3-.4-13.2 2.9c2.8 1.3-1.6 3.2-.9 5.6 8.6-1.4 18.1-.2 20.7-3.8 3.8 3.2 13.4-.8 19.8-.9-.7-2.3 3.5-6.5-.9-6.6-1.6 2.8-9.7-.9-11.3 1.9zm208.3 1.9c-10.1 1.9-23.2 3.2-31.1 5.6 12.6.2 24-3.8 38.6-5.6-1-3.4-5.3-.5-7.5 0zm296.9 2.8c2.1.3 3.5-.2 3.8-1.9-1.7.2-4.8-.9-3.8 1.9zM361 534.4c5.7-.2 13.1 1.2 15.1-2.8-5.3.6-11.3.6-15.1 2.8zm77.3 0c-1.6.6-5.5-1.1-5.6 1 1.6-.6 5.5 1.1 5.6-1zm429.8 0c-.4 4 6.6.4 5.7 4.7-2.1-1.6-8.3-1.3-8.5 1.9 3.7.4 9-.8 11.3 1-.6-4.6 3.1-2.7 4.7-6.6-3.9 2.7-7.4-1.7-13.2-1zm-69.7 3.8c4.4.7 4.4-1.6 0-1s-5.3-.3-7.6-.9a2.5 2.5 0 0 1-1.8 2.8c-6.6-2.7-19.9-3.8-24.5-2.8v2.8c14.3-.8 24.4 2.5 33.9-.9zm-454.3 0a2.6 2.6 0 0 0 2.8-1.9 2.6 2.6 0 0 0-2.8 1.9zm-145.2 0c4.8 2.6 3.5-3.3 0 0zm604.2.9h2.8v-1.9h-2.8zm-605.1-.9c-6.1-1.1-2.1 2.9 0 0zm64.1 3.8c.6-3.4 5.6.6 7.5-2.9-3.7-1-9.8-.7-7.5 2.9zm149.8-1.9c.1-1.6 2.7-.5 2.9-1.9-1.9-.8-5.9.8-2.9 1.9zm419.5 0h1.9c1.4-2.3-3.2-2.8-2.9-1 .6.1 1.1.2 1 1zm-429.8.9h6.6c.2-3.9-5.9-1-6.6 0zm-226.2 1.9c3.1-.3 6.4-.5 8.4-1.9-3.4.1-7.4-.5-8.4 1.9zm210.2.9c4.8.8 6.8-1.3 11.3-.9-.8-2.7-9.2-2.1-11.3.9zm-3.8 0c-6.1-1-2.1 2.9 0 0zm-227.2 2.9h1.9v-1.9h-1.9zm11.3-1.9c-6-1.1-2 2.9 0 0zm107.5 0c-4.9 2.3 3.2 2.4 0 0zm582.5 0c-4.9 2.3 3.2 2.4 0 0zm3.7.9c.1-.5-.7-1-.9 0 3.2 2.6 8.7-.7.9 0zm-157.4 1.9c2.1 1.8 7 .7 10.4 1 3-5.6-21.7-.3-10.4-1zm13.2 1c2.3-1.1-1-4.5-1.8-1.9 1.2 0 .8 1.6 1.8 1.9zm4.8 0c.8-2-2.5-4.3-2.9-1.9 1.5.1.8 2.4 2.9 1.9zm153.6-2.9c-2.3.6-6.9-1.2-7.6 1 1.4 1.2 7.5 1.9 7.6-1zm-3.8 6.6c2.3-.1 4.6-.1 5.7 1 .1-2.6-1.6-1.9 0-3.8-2.4.5-3.9 1.8-5.7 2.8zm-174.4 0c5.2 1.5 15 5 18.9-.9-3.2-.8-13.9.1-4.7 1.9h-6.6c3.1-3.9-9.1-2.4-7.6-1zm172.5-.9c-2.9.4-3.3-1.7-6.6-1-1.1 3.2 6.4 2.4 6.6 1zm-525 0c-1.3.5-4.8-1.1-4.7.9 1.4-.5 4.9 1.1 4.7-.9zm350.7 0c-6.1-1.1-2.1 2.9 0 0zm104.6 1.9c5 .4 13.1 1 14.1-1-2.9.7-3.4-.9-5.6-.9-.3 3.9-6.5-2.6-8.5 1.9zm-171.6 1.9c-1.1-.3-5.8.1-2.8.9 9.6-1 13.4.7 20.8-1.9-6.1-1.5-11.2-.1-18 1zm204.6-1.9c-7.1-1.2-3.1 2.9 0 0zm-22.6 12.2c-.8.2-1.9.1-1.9 1 4.2-.7 1.5-3.3 6.6-3.8-4.7-.5.9-.5.9-1.9-5-1.3-11.4-1.1-16-2.8-.7-2.6 4.4.7 3.8-1.9-1.4-.9-9.7-2.7-9.5.9 2.3.4 2.1-1.7 4.7-.9-.4 1.4-1.4 2.4-1.8 3.8 2.4.1 4.4.5 5.6 1.9-1.1-.3-5.8.1-2.8.9s9.2-.4 10.4 2.8zM615.5 557c-.9 0-1.1-.7-1.9-.9-2.5 1.5 1.4 3.2 1.9.9zm-7.5 2.9c-4.4-.8-14.1-2.6-17 .9 2.9.6 8.1-1.2 9.4 1-5.2 1-13.8 3.3-18.8.9.3-2.2 4.1-.9 4.7-2.8-2.6-.5-11.5 1-10.4 4.7-2.2.6-6.8-1.2-7.5.9 12.6.9 28 2.6 38.6-3.7 1.7-.6 5.6 1.1 5.7-1-2.7.4-2.6-6.8-5.7-2.8.8.2 1.1.8 1 1.9zm33-1c1.4-.1 3.5.4 3.8-.9h-5.7c-9.3 1.3-19.3-3.7-23.6 2.8 5.9 2.2 18-.1 25.5-1.9zm184.7 2.9c4.2 2.3 5.4-3.4 0 0zm15.1.9h2.8v-1.9h-2.8zm-25.5 2.8c-3.5-2.6-4.1 3.5 0 0zm-18.8 6.6h6.6c-.3-1.8 1.3-1.8 1.9-2.8-5.2 1.6-12.4-2.8-12.3 1.9.9-.8 6.5-1.4 3.8.9zm11.3-2.8c-1 3.5 2.7.7 3.8.9s5.7 3.4 7.5 1c-1.8-2.9-7.5-3.8-11.3-1.9zm-166.8.9a6.1 6.1 0 0 1-4.7-.9c-1.5 2.8 4.8 2.5 4.7.9zm97.1 1.9c-4.1.6-10.7-1.2-13.2 1 4.1-.6 10.6 1.2 13.2-1zm-145.2 3.8c.5-5.5-15.1-2.6-12.2 0 0-1.3 2.4-1 1.8.9 3.6 1 2.7-2.3 5.7-1.8-3.1 1.8 2.5 3 2.8.9-4-.9.3-.9 1.9 0zm247.9.9c1.7-.2 4.7 1 3.8-1.8-1.8.1-3.2.6-3.8 1.8zm-50.9 1.9c3.6 1 8.5 1.9 10.4-.9-1.9-.1-8.2-2.5-10.4.9zm36.8 6.6c-5.8.8-5.7-1.9-8.5-.9a5 5 0 0 0-1-2.9 7.1 7.1 0 0 0 2.9-1.8c-1-1.1-4.1-4.7-5.7-1.9 1.7 2.7-.6 1.5-1.9 5.6-.6-1-8.1-.7-3.7 1.9-2.9-.1-6.3-4.9-7.6-.9 1.5.1 3.3-.2 2.8 1.9 8.7.1 7.1-1 13.2-2.9.3 4 7.2 5.4 9.5 1.9zm7.5-4.7c-.7-.2-1.1-.8-.9-1.9-1.5.2-3.5-.3-3.8 1 2.2-.8 4 3.3 4.7.9zm-325.2 0c-6-1.1-2 2.9 0 0zm291.3 2.8c-1.7.3-4.7-2.6-5.7 0 1.7-.2 4.7 2.7 5.7 0zm-231.9 0c-1.4.6-4.9-1.1-4.7 1 1.4-.5 4.9 1.1 4.7-1zm41.5 1.9c3.9 1.9 8.4 0 11.3-1.9-4.5-.1-8.5.3-11.3 1.9zm-55.6 1a2.7 2.7 0 0 0 2.8-1.9 2.5 2.5 0 0 0-2.8 1.9zm35.8 0c.8.8 6 2 6.6 0-4 1.3-4.9-4.6-6.6 0zm-70.7 1.8c3.5-.6 9.4 1.3 11.3-.9-3.1-1.3-9.3-1.5-11.3.9zm18.8-1.8c-1.6.5-5.5-1.2-5.6.9 1.6-.5 5.5 1.1 5.6-.9zm-16 7.5c-.6.1-1.1.1-.9.9 11.9-1.9 24.8 2.4 32-4.7-1.3 4.6 14.6 2.7 9.5-.9 3.2.4 5.2-.4 7.5-1s3.4-1.6 0-.9c-4.9-1.1-6.5.4-9.4.9-12.5 2.2-27.2-1.7-35.9 3.8-.1-.2.2-1.8 0-1.9-5.1-1.1-18 .2-23.5 1-2.9.4-4.5 2.5-7.6 2.8-10 .9-24.3 0-33.9 2.8 2.2-4.4-7.4 1-12.2 0-.6-.1.3-2-1-1.9s-.4 1.8-.9 1.9a41.8 41.8 0 0 1-10.4 1.9c-2.2 0-8.7-2.3-6.6 1.9 1.3-.8 8.1-1.1 13.2-.9-.2 1.1-1.5 1.9.9 1.8-1.1-1.7 5.7-4.6 8.5-1.8-2.3.8-6.5-.3-6.6 2.8 3.2-.4 7.8.7 13.2-1 .4-.1.1-1.6 1-1.8 3.3-1 7.1-2.8 7.5-2.9s8.4-1.2 9.4-.9-.3 2 1 1.9c5.7-.5 9.9-4.7 14.1-1.9.2 2.7-5.8-.8-5.6 1.9 6.6 2.3 20.6.4 20.7-3.8 5.4.8 10.5-1.2 16 0zm63.2-5.7a6.8 6.8 0 0 0 2.8-1.8c-1.3-.2-5.2 1.4-2.8 1.8zm-83.9 0c-5.2 2.7 8.6 2.4 10.4-.9-2.7 1.1-6.6 1-10.4.9zm73.5 0c4-1.2 7.5 2.9 8.5-.9-2.3.3-10.8-.8-8.5.9zm316.7 5.7c1.4-2.8-4.9-2.5-4.7-.9a6.1 6.1 0 0 1 4.7.9zm14.1 2.8c-2.8.9-7.3-1.3-7.5 0 2 .7 6.6 3.7 7.5 0zm-58.4 4.7c2.9-1.3 3.4.5 7.5 0-1-3.2-7.3-3.3-7.5 0zm.9-2.8c-1.7.2-2-1-3.7-.9-2.8 4.4-1.2.2-1.9-1-.9 2.6-5.4 1.5-5.7 4.7 2.9-.5 8.1 1.2 9.5-.9-.6 0-1.1-.8 0-.9s1.8-.1 1.8-1zm-298.7 1c1.6-.3 4.7.9 3.7-1.9-1.7.1-3.1.6-3.7 1.9zm-132.9 2.8c2.1.4 5.6-2.4 2.8-3.8.3 2.5-3.7.8-2.8 3.8zm106.5-1c7.1 1 16.7.6 19.8-2.8-7.6 0-15.2 0-19.8 2.8zm-112.2-.9c-1.4 3.1-2.3-2-4.7-.9-1.9 6.8-8.4-2.5-11.3 2.8 6.8-.6 2.2 4.5 6.6 5.6-.3-3.8 1.3.2 3.7-.9s-2.1-4.6 0-4.7 8.5-.3 5.7-1.9zm468.4 0c-1.3 1.5-4.8.8-7.5.9.8-1.8-5.7-3-5.7 0 1.5 1.3 13.8 2.8 13.2-.9zM427 605.1c2.5-2 9.2.3 11.3-1.9-3.9-1.7-12.9-3.4-16.9-1.9 2.9.2 5.6.7 5.6 3.8zm63.2-.9c-8.3.4-19.4-2.6-22.6 2.8 9.1.6 28.6-2 41.4-3.8-4.6-1.6-11.8.6-18.8 1zm-45.3 1.9c.9 2 6.6.1 3.8-1-.3 3.3-3.5-2.4-3.8 1zm8.5 2.8c5.7-.5 7.3.5 10.4-2.8-3.4-2.2-10.1-1.1-10.4 2.8zm-26.4 1.9c4.4.5 5.7-1.3 8.5 0-2.5-4-.3-1 .9-4.7h-3.7c2.3 5.1-7.9 2.7-5.7 4.7zm456.2-1.9c-.2-3.3-5.2-1.7-7.5-2.8.4 5.1 5.2.3 7.5 2.8zm-324.2-1h-9.4c1.6 3.7 8 3 9.4 0zm-157.4 2.9c-1.4.5-4.9-1.1-4.7.9 1.3-.5 4.8 1.1 4.7-.9zm451.5 0c-6.1-1.1-2.1 2.8 0 0zm-362 4.7c-1.2 4-7.2-3.9-14.1-1-.2 1.1.1 2.7-1 2.9-9 .3-13 0-20.7 1.8-1.3 0-3.6.3-1.9 1 7.3 1.1 15.7-2.1 20.8-1.9s6.6 3.7 10.3 1.9c-.5 3.4 7.2 4 7.6.9-1 .1-2.4-.4-1-.9 3.1-1.2.7 3 3.8 1.9 1.2-4.8 7.7 1.4 8.5-3.8-3.4-.8-5.7 2.7-6.6-.9 8-1 13.2 3.7 18.8 0-9.3-4-18.6-2-24.5-1.9zm61.3 0c1.5 4.7 11.3 2.2 12.2.9-5.9.4-6.2 0-12.2-.9zm-34.9 2.8c3.7-.6 10.4 1.7 11.3-1.9-5.8.7-8.5-.9-11.3 1.9zm49 0a2.5 2.5 0 0 0 2.8-1.9 2.6 2.6 0 0 0-2.8 1.9zm-58.4 1.9c6.7 5.1-4.3-3.2 0 0zm323.3 1.9c-.8.2-1.9 0-1.9.9 7-1.5 14 6.8 21.7 1.9-1.5-.3-5.7-.7-2.9-3.8.3.8.1 1.9 1 1.9.8-4-6.2-5-8.5-2.8a2.5 2.5 0 0 1 2.8 1.9c-3.2-.4-5.3.4-7.5.9 1.6-1.9-.7-1.8.9-3.8-3.3 1.5-6.4 0-8.5 1a5.9 5.9 0 0 1 2.9 1.9zm-3.8 0c1.5-2.6-4.1-2.6-3.8-1s1.8 1.4 3.8 1zm24.5.9c2.5.7 1.8-1.9 2.8-2.8-2.5-.7-1.8 1.9-2.8 2.8zm-650.3 2.8c3.9-.8 11.5 2.2 11.3-2.8-3.9.8-9.2.2-11.3 2.8zm648.4 2.9c-1.3.5-4.8-1.1-4.7.9 1.4-.5 4.9 1.1 4.7-.9zm-361 4.7c3.5-1 1.5 3.5 4.7 2.8.2-1.1-.1-2.7 1-2.8 2.6 1.2 3.2-3.7 1.9-1a7.7 7.7 0 0 0-7.6 1zm294.1 2.8c1.8-.4 5.7 1.3 4.7-1.9-2.3-.1-3.9.5-4.7 1.9zm6.6 0a20.3 20.3 0 0 1 8.5 1c1.2-3.7-11.3-1.9-8.5-1zm13.2-.9c-6-1.1-2.1 2.9 0 0zM504.3 639c8.7.7 15.6.1 22.6-2.8-9.4 0-18.9-.5-22.6 2.8zm-77.3 1.9c5.8.8 8.8-1.2 14.2-.9-2.6-4.7-11.2-.2-14.2.9zm61.3-.9c1.5 1 2.3-1.9 4.7 0-.8-3.7-6.2-1-4.7 0zm-82 2.8c2-5 10.2 1.9 10.4-1.9-3.9 1.3-3-2-5.7-1.9-11.4 3.1-24.5-1.4-30.2 4.8 9.4-.7 17.1 0 18.9-2.9 1.8 1.1 4.4 1.2 6.6 1.9zm14.1-1.9c-.6 0-1.1-.1-.9-.9s2.7.1 2.8-1c-1.6.6-5.5-1.1-5.6 1 .5.5 2.8 3.8 3.7.9zm356.3-.9c-2.6 2.2-6-1.9-8.5.9 2.8 0 7.6 2.8 8.5-.9zm2.8 2.8c1.8-.1 3.2-.6 3.8-1.9-2.5-2.4-.7 1.6-3.8 1-.1-1.2-.2-2.3-1.9-1.9s1.3 1.9 1.9 2.8zm-400.5 1c1.4-.3.2-1 0-1-9.3-.5-3 1.6 0 1zm409 4.7h3.8v-1.9H788zm14.2 1.9a2.7 2.7 0 0 0 2.8-1.9c-1.5.1-3.3-.2-2.8 1.9zM772 662.6c3.4.8 4.6-2.1 6.6 0-1.1-3 1.5-2.3 1.9-3.8-2.9 1.2-7.2 1.1-8.5 3.8zm-6.6 0h2.8v-2.8h-1.9c0 1.2-1.2 1.3-.9 2.8zm8.5 1.9c3.2 2.9 2.8-3.5 0 0zm-5.7 11.3a5.1 5.1 0 0 1-3.7-.9c-1.6 2.6 4 2.6 3.7.9zm1.9 17.9c4.6-1 6.4.9 9.4-.9-4.1 0-7.3-2.2-9.4.9zm-7.5 11.3c2.6 1.5 4.2-2.4 1.9-2.8.2 1.8-1.3 1.9-1.9 2.8zm-5.7 0c1.9.6 7.1-.3 3.8-1.9-.9 2.6-3.5-1.8-3.8 1.9zm-9.4 1c-1 5.4 4.1.4 0 0zm-491.1.9c-.1 0 .1.9 0 .9-5.1 3.7 6.7-3.1 0-.9zm510.9 7.5c-.6-3.3 3.4-1.6.9 0 1.4-.5 4.9 1.1 4.7-.9s-5.1-3.7-8.4-4.7c.7 2.7-1.4 2.4-1 4.7 3.5 1 1.5-3.5 4.7-2.8.2 1.2-3.8 2.8-.9 3.7zm-14.2-3.7c-1.7.1-14.5-.6-12.2 2.8 3.5-3.5 15.8 1.2 18.8-2.8-.7-.4-4.9-.1-6.6 0zm30.2 10.3c-4.8-2.5-3.5 3.3 0 0zm6.6-.9c-4.8 2.3 3.2 2.4 0 0zm-38.6 6.6c3.1-.2 5.9-2 7.5.9-2.4.8-8.1-1.8-7.5 1.9 5-1.1 7 .3 13.2 0-3.4-4.3.8-.8 1.8-4.7-3.7.8-6.3 1.5-6.6-.9-1.1 2.6-8.6-1.1-8.4 2.8zm-15.1.9c-1.7.6-5.6-1.1-5.7 1s4.4.3 5.7-1zm-9.4 7.6c4-.4 11 .3 18.8.9-2.3-5.4-15.5-3.1-18.8-.9zm-8.5-1c-1.1-1-3.4-1-5.7-.9-1.3 3 5.7 2.4 5.7.9zm-61.3 8.5c2.3-2.2-3.1-2.4-2.8-.9 0-.1 3.2.6 2.8.9zm-99 6.6c1.5-2.8-4.8-2.5-4.7-.9a6.2 6.2 0 0 0 4.7.9zm4.8 0c2.7-.8 2.8-.8 5.6 0 .9-3.4-6.2-2.1-5.6 0zm-139.5 3.8c.5.5 4.4 2.2 4.7 0-1.8-1.4-3.2-2.5-4.7 0zm5.6.9c2.8-1.8 4.7 1.3 5.7-1.9-3.6.7-5.6-2.6-5.7 1.9zm-14.1-1.9c-3.2.6-8.8-1.2-10.4 1 2.7.4 6.8 1.1 10.4-1zm-34.9 1c-2.6-.1-1.9 1.6-3.8 0-1.4 2.8 5.3 2.8 3.8 0zm18.8 0c-3.1.6-8.7-1.2-10.3.9 3.2-.6 8.7 1.2 10.3-.9zm548.6-432.6c1.4-.3.2-1 0-1-9.3-.5-2.9 1.6 0 1zm1.9-1c4.8 2.6 3.5-3.3 0 0zM864.4 84.8c-.8-.8-2.7.7-2.9 1s3.5-.3 2.9-1z"></path><path d="M930.3 127.2c3.5-.9-5.8 3-7.5 0 .1-2.3 3.2-.2 3.8 0-1.1-1.1-.9-1.9.9-1.8.4-2.3-4.3.5-2.8-2.9 5.8 2 5.3-1.8 14.1-.9a10.6 10.6 0 0 1-8.5 2.8c-.9.6-.9 2.2-2.8 1.9.2 1.1 1.7.8 2.8.9z"></path><path d="M557.1 3.8c-.6-.2 1.2 1.2.9.9 1.5 2-7.8-3.1-.9-.9z"></path><path d="M552.4 3.8c1.1.1-5.3 3.9-6.6 1.9 1.4-1.4 4.1-1.6 6.6-1.9z"></path><path d="M581.6 18.9c-1.5.3 8.2-4.3 8.5.9-3.7-1.5-5.5.9-8.5-.9z"></path><path d="M536.4 28.3c-4.1 4.3-7.5-.5 0 0z"></path><path d="M615.5 45.2c3-1.4 3.8 1.4 9.5 0 1.6-.2 1.9.9.9 1-3.2-.4-5.3.4-7.5.9a7.3 7.3 0 0 0-2.9-1.9z"></path><path d="M589.1 50c1.4 2.7 3.3-1.7 5.7-1-1.6 1.3-2 3.7-5.7 2.8a5.1 5.1 0 0 1-.9-3.7c-3.9-.1-7.7-.2-10.4.9.6-.8 1.2-1.7 0-1.9 5.5-3.4 5.6.5 14.2 0 3 .8-1.7 1.3-2.9 1s4 1.7 0 1.9z"></path><path d="M623.1 47.1c-2.2 4.5-5.9.7 0 0z"></path><path d="M597.6 50c6.1-2.3 4.4 1.8 0 .9-1.2-.2-.4-.8 0-.9z"></path><path d="M856.8 54.7c-1.3-.6.1-1.2 0 0z"></path><path d="M882.3 59.4c-4.5-.7-6.5 1-10.4.9-1.4-.5 11.1-4.1 10.4-.9z"></path><path d="M835.1 70.7c-3.7-.2-3.8-.1-2.8 2.8-1.7-.1-2 1.2-3.8 1 .1-4.3-4.2-4-8.4-2.9-.5-3.7 9.7-1.4 7.5-3.7.1-.4 8.7-1.2 7.5 2.8z"></path><path d="M851.2 68.8c.1 1.1 1.7.8 2.8.9-.7 3.5-7.7.5-9.4 2.9 4.1 1.8 9.4.1 11.3 0 3.8-.3 7.1 0 11.3-1 1.8 4.4-10.6 4.5-14.1 3.8-3.1 1.9-1 4.3 0 7.5-2.5-3-6.2-4.9-11.4-2.8.4-4.7-.2-3.1-3.7-2.8-.2-2.9 3.3-4.2 4.7-2.8-1.2-4.4-5.6 0-8.5-1.9 2.7-7.5 17-4.8 23.6-5.7-1.4 2.7-2.5 1.1-6.6 1.9zm-1.9.9c-6.1-1-2.1 2.9 0 0zm.9 7.6c-1.3.5-4.8-1.1-4.7.9 1.4-.5 4.9 1.1 4.7-.9z"></path><path d="M888.9 75.4c3.8-2-5.3 4.4-4.7-.9a6.1 6.1 0 0 0 4.7.9z"></path><path d="M879.4 85.8c-3.6-2.2 1.2-1.1 1 0s-.8.1-1 0z"></path><path d="M930.3 100.9a4.5 4.5 0 0 1 1 2.8c-2.3-4.9-5.5-.1-8.5-1.9 4-2.1 12.5-4.1 17-2.8-.7 2.1-5.3.3-7.6.9.6 1 2.2 1 1.9 2.8-1.9 0-1.2-2.5-3.8-1.8z"></path><path d="M960.5 120.6c1.7 1.1.7 5 4.7 3.8-4.1 3.8-17.3.1-18.8 4.7-.9-2-5.8-2.1-11.3-1.9 2.6-4 14.4-1.6 16.9-1.8s3.3-2.8 1-2.9c-2.4-2.2 8.1 1.3 7.5-1.9z"></path><path d="M969 127.2c.1 0-.1-.9 0-.9 6.7-2.2-5.2 4.6 0 .9z"></path><path d="M883.2 137.6c-.6-.2 1.2 1.3 1 1 1.5 1.9-7.9-3.2-1-1z"></path><path d="M908.7 147c4.7-3.3-5.8 4.2 0 0z"></path><path d="M1015.2 214.9c2.5-.8 6.3-3.2 0-2.8-2-1.5 9.1-1.5 10.3 0-2.8-.5-3.9 2.7-10.3 2.8z"></path><path d="M181 214.9c.9-2.8 6.8.8 1 0-1.1 1.1-2.4.4-1 0z"></path><path d="M149.9 221.5c5.4-3.1 13.3-3.7 20.8-4.7-8.1 3.5-10.4 2.6-20.8 4.7z"></path><path d="M138.6 223.4c2 0-.8 2.1-.9 1.9s3.5 1.9 3.7.9c-.3 1.5-3.9 1-9.4 2.8.4-3.4 6.8-.2 3.8-4.7 1.3.1 2.6.2 2.8-.9z"></path><path d="M124.5 225.3c1.3.3-6.2 3.1-6.6 1.9 1.3-1.5 3.6-2 6.6-1.9z"></path><path d="M972.8 226.2c.9 0 .7 1.2.9 1.9 19.5-.5-4.4 3.3-8.5 1.9-.7.2-.9.9-1.9.9-1.5-4 10.9.5 9.5-4.7z"></path><path d="M106.6 229c-1.5 2.4-6.4 1.2-8.5 2.9-1.3-1.4 4.9-3.3 8.5-2.9z"></path><path d="M94.3 231.9c-1.2 1.3-3.2 1.8-5.6 1.9s3.9-1.7 5.6-1.9z"></path><path d="M81.1 234.7c.9-2.9 6.8.8 1 0-1.1 1.1-2.4.4-1 0z"></path><path d="M76.4 235.6c.1-.1-.1-.9 0-.9 6.7-2.2-5.2 4.6 0 .9z"></path><path d="M910.5 254.5v-2.8c1.3 1.6 5.5-1.6 7.6.9-1.9 1.3-4.3-.3-7.6 1.9z"></path><path d="M891.7 252.6c1 .8 11.4-.5 4.7.9-1.6-.2-5 3.1-4.7-.9z"></path><path d="M980.3 295c1.4.1 4.7-1.1 6.6 0-1.7-1-1.1 6.6 0 1.9 2.7 2.2-4.8 2-7.5 1.9.6-1.3 2-1.8 3.7-1.9-2.3-1.7-2.2.7-2.8-1.9z"></path><path d="M912.4 337.4c.7-1.2 2.5.5 4.7-.9.9 3.4-4 1.7-4.7.9z"></path><path d="M911.5 339.3c-.6-.5-4.5-2.2-4.7 0-3.7-1.1 5.9-4.1 4.7 0z"></path><path d="M908.7 342.1c3.4 3.4-4 .1-2.9 3.8-6.5-3.1-6.1 3.8-9.4-1.9-.9 3.2-5 3.2-9.4 2.9 2.1-3.1 5.3-.2 7.5-1.9-1.8-2-5.7-1.8-8.5-2.9 9.3-1.7 25.2-4.2 33 0 2.4-4.3 31.7-3.5 39.6-2.8-3 2.7-17.1-.8-16.9 1.9-3.4 1.5-14.7-2.9-18.9 1.9-6.4-2.4-10.5 2.4-14.1-1z"></path><path d="M687.2 345c3.4 1.5-8.6 3.8-5.7 1.9s3.7-.9 5.7-1.9z"></path><path d="M697.5 345.9c.2.8-.3.9-.9 1s1.7.8 2.8.9c-2.9 2.5-8.2 2.7-11.3 2.8.6-2.8 6.3-.6 6.6-3.7-.2-1.2-2.8-1.3-2.8 0-2.2-2.5 3.3-1.6 5.6-1z"></path><path d="M623.1 346.9c1.6-3.6 1.5 2 2.8 1.8-.9 2.9-1.6-2-2.8-1.8z"></path><path d="M616.5 352.5c7-2.6 5.4 2.3 0 0z"></path><path d="M849.3 353.5c.2-1.1.9-.6.9 0 1.7.1 2-1.2 3.8-1-.1 1.8-3.1.7-2.8 2.8-1.1-.2-.7-1.8-1.9-1.8z"></path><path d="M876.6 355.3c4.3.6 7.3-.3 9.4-1.8-1.3 1.6-.8 2.1 1.9 1.8-2.6 4.7-9.7.4-11.3 3.8-2.9.7-3.4-1-5.6-.9 1.6-3.1 6.2 2.5 5.6-2.9z"></path><path d="M171.6 458.1c-.8 1.4-3 1.3-4.7 1.9s2.9-2 4.7-1.9z"></path><path d="M437.4 474.1c-1.5-2.7 2.6 2.2 5.6.9-.2 3.2-6.1 3.8-8.4 1.9s5.8-1.5 2.8-2.8z"></path><path d="M475.1 495.8c-2.6.6-7.5-1.2-8.5.9-2.2-.2-.5-4.1 0-4.7 3.1 2 3-.8 5.7 0 .9.3-3 1.4-2.9 1-.7 3.1 6.4-1.7 5.7 2.8z"></path><path d="M429.9 493.9c-1.8-.7 1-1.5.9 0 7.1.2 11.6-2.3 18.8-1.9-.7 2.7-6.8.1-6.6 3.8-3.8-3-7.2-.7-12.2 0 .1-1.1-.2-1.7-.9-1.9z"></path><path d="M385.6 498.6c1-2.1 6.2-.1 6.5-2.8.9 1.6 3.5 1.5 2.9 4.7 2.2-.3 3.5-1.5 6.6-1-6.2 4.8-14.8 2.7-24.5 4.8 3.6-3 10.4-2.8 16-3.8v-1.9c-1-2.1-4.3 1.2-7.5 0z"></path><path d="M303.6 518.4c-1-3.5 3.1-1.9 3.7-3.8 1.3.4.1 1.7-.9 1.9 6.3-3.4 21.3-1.1 29.2-6.6 1.6-.3 1.8.8 1.9 1.9 3 .5 2.1-2.9 5.6-1.9-.3 1.6.8 1.8 1.9 1.9-9.3.9-19.6 4.7-26.4 2.8-2.7 3.6-9.6 3-15 3.8z"></path><path d="M863.4 575h3.8c-.2 1.7-3.2.5-3.8 1.8s2.4.8 3.8 1c-1.4 2.2-2.3 1.4-4.7.9-.1-1.7 1.1-2 .9-3.7z"></path><path d="M887 576.8c-1.5-4.8 3.7.1 2.8 0 1.6.1 7.4-3.3 7.5 1-5.3-.5-7.7-.1-10.3-1z"></path><path d="M904.9 575.9c1.1.2.5.9 0 .9s.4.9.9 1c-.6 2.8-2-.9-3.7 0 .2-1.4 2.8-.4 2.8-1.9z"></path><path d="M910.5 586.3c5.2-.5 8.7 2.5 12.3.9-.7 2-11.5 3.9-12.3-.9z"></path><path d="M932.2 601.3c-2.3 2.6-6.4-1-9.4-.9s-.7 2.8-2.8.9c3-4.2 7.6-1.3 12.2 0z"></path><path d="M862.5 646.6c3.9 1.4-2.2.2-2.9.9s1.3 5.6-.9 0a5.3 5.3 0 0 1 3.8-.9z"></path><path d="M828.5 675.8c6.5-.4-6.9 1.8 0 0z"></path><path d="M256.4 681.5c1.3 1.2-6.8 1.2-9.4 1.8-1.1-1.1 6.1-2 9.4-1.8z"></path><path d="M232.9 692.8c-.3 2.2-4.2.9-4.8 2.8-3.2-2.1 3.5-2.1 4.8-2.8z"></path><path d="M818.2 698.4c-.2 1.4-2.8.4-2.9 1.9-2.3-.4 1-2.7 2.9-1.9z"></path><path d="M858.7 719.2c-3.9-4 4 3.9 0 0z"></path><path d="M869.1 718.2c6.6 2 11.9 3.4 20.7 5.7-6.1 2.9-13.4-1.1-20.7 0-3-1.3 3.3-1 4.7-1-.9-2.2-4.7-1.5-4.7-4.7z"></path><path d="M847.4 715.4c1.1.2.5.9 0 .9 3.2 3.9 8.8 6.9 17.9 4.7 2.9 3.4-18.4 2.9-18.8 0-1.4 1.5-4.9.9-7.6 1 .3-1.1 3.8-3.6 1-4.7 1.7-2.4 3.4.7 1.8 2.8 1.1-.2 1.7.2 1.9.9 2.5-.6 1.9-4.4 3.8-5.6z"></path><path d="M888.9 720.1c-1.5 3-5.7-1.2-6.6.9-1-2 4.1-1.5 6.6-.9z"></path><path d="M891.7 720.1c-3.5-.3 2.8-2.3 1.9 0 2.2 1.6-.4-.1-1.9 0z"></path><path d="M863.4 734.2c.1-1.6 11.4 1 17 0-1.6 2.7-12.5.5-17 0z"></path><path d="M718.3 744.6c4.5-2.9 15.6-3 16.9 1-5.7-2-10.5-1.5-16.9-1z"></path><path d="M961.4 118.8c-2.8-1.1-7.1.6-12.2 0 1.7-1.7.1-3.3-2.8-2.9 7.2-1.4 10.8-3.1 15 2.9z"></path><path d="M873.8 573.1c.4 4.5 5.2.4 6.6 0 .2 3 1.6.6 4.7 1.9-.3 1.9-3.5.8-3.8 2.8s3.7-.3 4.7 1.9c-.5 4.3-5.8-1.1-8.4 1.8-.7-2.5 1.9-1.8 2.8-2.8s-2.8-.3-2.8-1.9c-1.6-.4-3.2 3.6-1 3.8-.6 2.8-2-.9-3.8 0-.3-1.9.2-2.9 1.9-2.8-1.5-3.1-3.5.1-5.6-1.9.4-1.8 3.6-.8 2.8-3.8-.8-.9-2.3-.6-5.7-.9 4.9-4.1-3.2-1.1-2.8-5.7 9.3-.5 17.6-1.6 31.1 1.9.3 2.5-3.6.8-2.8 3.8.9.8 7.6-.6 11.3 0 0 .9-1.1.7-1.9.9s-.8 1.7-.9 2.9c-5.3.2-8.4-1.7-14.2-1-8.2 3.3 1-3.2 2.9-.9-3.1-3.8-13.6 1.5-15.1 0zm.9-4.7c-1.6.5-5.5-1.2-5.6.9 2.1.4 5.1 2.2 5.6-.9zm11.3.9c-10.8-1.1-6.7 2.8 0 0zm4.8 0c-6.1-1.1-2.1 2.9 0 0z"></path></g></g></svg>