<svg xmlns="http://www.w3.org/2000/svg" viewBox="0 0 1080 280.75"><defs><style>.cls-1{fill:#bddbec;}.cls-1,.cls-2,.cls-3{fill-rule:evenodd;}.cls-2{fill:#e3f1f9;}.cls-3{fill:#fff;}</style></defs><g id="Слой_2" data-name="Слой 2"><g id="Слой_1-2" data-name="Слой 1"><path class="cls-1" d="M12.57,28.49C28.69,7.71,62.25-5.53,109,12.55c65.51,25.35,92-52.29,230.57,17.5C424.93,73.05,456-57.21,598,32c85.06,53.44,209.11-80.82,284.74-5.2C929.15,73.18,1072.85-80.92,1080,100.41c.16,4-9,100.36-8.34,116.68.4,9.27-8.61,100.11-27.42,47.22-6.74-19,2.27-74.71-10.49-124.35-52.25-10.81-43.2,7.23-98.21-14.19-45.7-17.8-95.82,70.46-177.79-3.25-21-18.88-49,31.23-77.78,9.84C606,77.43,630,245.69,555.31,133.63,523.4,85.71,508.05,206.7,480,207.36c-20.63.49,31.53-99.69-54.6-62.72-40.92,17.56-37.82-63-56.4,28.12-7.85,38.46-32.41-54.1-59.49-39-37,20.63-16.21-26.34-94.81,55.56C160.58,245.65,194.92,99.48,56.31,106,.6,108.57-13.34,61.88,12.57,28.49Z"/><path class="cls-2" d="M12.57,28.49C28.69,7.71,62.25-5.53,109,12.55c65.51,25.35,92-52.29,230.57,17.5C424.93,73.05,456-57.21,598,32c85.06,53.44,209.11-80.82,284.74-5.2C929.15,73.18,1072.85-80.92,1080,100.41c0,.46-.09,2.14-.29,4.75-4.67,18.78-10.57,40.94-11.21,48.83-6.16,75.87-8.93,23.17-19.5-18-1.53-6-8.08-6.57-14.11-7.82-23.67-4.89-22.83-8.38-49.34-7.13-15.82.75-29.69-4.3-44.29-10a51.5,51.5,0,0,0-14.83-3.35c-26.59-2-31.14,5.53-55.93,13.51-32.23,10.38-77.57,11.72-102.22-10.44a31.65,31.65,0,0,0-17.48-8.15c-14.72-1.81-27.42,6.91-39.67,13.63-4.13,2.27-10.25,5.51-15,5.73a9.9,9.9,0,0,1-6.73-2.31c-15.44-11.46-33.94-14.8-52.62-5.69-41.87,20.41-40.62,52.48-68.32,10.88-6.86-10.3-15.93-13.16-29.24-11.88-12.61,1.22-17,8-25.81,19.26-10.16,13-5.94,27.16-30-.33-26.65-30.48-43.83,24.36-75.14-3.21-7.85-6.9-12.21-16.52-24.76-16-11.68.47-17.4,10.22-20.82,20-15.65,44.54-2.56-14.53-45.87-16.35a28.2,28.2,0,0,0-15,3.65c-6.95,3.87-8.25,4.37-15.39,3.26-11.94-1.86-20.83,1.29-30.86,7.75a169.85,169.85,0,0,0-21.24,16.87c-52.3,33-80-62.25-178.74-57.64C41.59,90.89,6.1,77.36,0,62.86,0,51.42,4.21,39.26,12.57,28.49Z"/><path class="cls-3" d="M12.57,28.49C28.69,7.71,62.25-5.53,109,12.55c65.51,25.35,92-52.29,230.57,17.5C424.93,73.05,456-57.21,598,32c85.06,53.44,209.11-80.82,284.74-5.2C925,69.07,1045.32-54.47,1075,59.72c10.68,41-42.92,75.62-77,50.42-93.7-69.29-127.27,41.56-178.51,1C701.8,17.77,714.37,128.78,662.62,95.54c-58-37.27-99.74,26.32-120.41,3.73-55.61-60.78-91,66.5-128.26,16.43C319.31-11.44,246,170.77,199.8,119.43,141.41,54.53,42.2,55.87,7.17,36.63A65.19,65.19,0,0,1,12.57,28.49Z"/></g></g></svg>