<svg xmlns="http://www.w3.org/2000/svg" viewBox="0.024434566497802734 0.03018951416015625 1079.9464111328125 1037.8658447265625" style=""><g><g data-name="Слой 2"><g data-name="Слой 1"><path d="M115.2 672.66c12.53-17 26.26-33.22 38.18-50.68 2.32-3.38 6.86-9.59 4.29-13.87-1.5-2.5-5.12-3-7.72-2.29-3 .76-5.58 2.84-7.85 4.8-5.53 4.76-10.18 10.62-14.83 16.23a290.26 290.26 0 0 0-19.77 27.24c-7 10.74-13.62 21.74-19.77 33-3.18 5.81-6.2 11.72-8.93 17.76s-5.43 12.23-6.8 18.74a.94.94 0 0 0 1.76.6c4.6-9.92 8.51-20.06 13.63-29.75s10.67-19 16.42-28.17c10.31-16.53 21.47-32.6 34.59-47a57.76 57.76 0 0 1 7.87-7.53c2-1.51 4.71-3.31 7.37-2.54 4.23 1.22-2 9.8-3.28 11.66-11.44 16.9-24.69 32.55-36.84 48.94-6.77 9.14-13.86 17.87-21.13 26.63-7 8.38-13.81 17.17-17.7 27.46-.7 1.87 2.27 2.78 3 .91 3.67-9.72 10.23-18.1 16.78-26 7.07-8.69 14.12-17.17 20.73-26.14z" fill="#b36e33"></path><path d="M143.16 704.51c-3-11.77-20.22-9.13-28.85-7.28-12.21 2.62-23.38 8.59-34 15.16 1.07-9.38 5.09-18.48 5.87-27.94.74-9.07-1.25-27-12.78-29-10.66-1.79-18.07 12.42-22 20a120 120 0 0 0-12.17 39 104.8 104.8 0 0 0-.64 22.55c.8 9.49 1.16 32 13.35 30.8 12-1.21 27.22-9.15 38.39-13.77 13.57-5.61 26.73-12.59 37.68-22.48 6.69-6.05 17.74-16.83 15.15-27.04z" fill="#f3c1bf"></path><path d="M133 720.31c.84-1.89-1.95-3.3-3.29-2a74 74 0 0 1-10.28 8.49c-3.64 2.4-7.48 4.46-11.21 6.7s-7.64 4.61-11.48 6.88c-2.25 1.33-4.55 2.54-6.87 3.75-1.89 1-3.82 1.86-4.75 3.88a1.15 1.15 0 0 0 .62 1.49c4 1.48 9.16-2.09 12.59-3.84 4.37-2.23 8.42-5 12.6-7.55 7.52-4.68 18.26-9.24 22.07-17.8z" fill="#d3a1ac"></path><path d="M80.39 753.68a2.32 2.32 0 0 0-.31-1 1.94 1.94 0 0 0-.72-.85 1.82 1.82 0 0 0-1.59-.14 1.22 1.22 0 0 0-1.07.35c-.16.16-.32.33-.47.5l.42-.45a9.39 9.39 0 0 1-.91.76l-.8.46-.46.26-.24.12a4.15 4.15 0 0 0-1.17 1 2.14 2.14 0 0 0-.41 2.1 2.1 2.1 0 0 0 1.65 1.42 5.63 5.63 0 0 0 1.36 0 3.71 3.71 0 0 0 .77-.27l.47-.21a5.8 5.8 0 0 0 .9-.54 10.24 10.24 0 0 0 2.18-2 2.22 2.22 0 0 0 .4-1.51z" fill="#d3a1ac"></path><path d="M77.72 757.19l.5-.37-.41.3z" fill="#f4888a"></path><path d="M47.8 706.49c.78-2.52 1.47-5.06 2.15-7.61 1.55-5.83 2.86-11.69 4.84-17.39.44-1.27-1.4-2.2-1.94-.91-1.11 2.63-2.19 5.26-3.43 7.83a90.14 90.14 0 0 0-3.55 8.35 72.23 72.23 0 0 0-2.35 7.76c-.42 1.78-1.76 5.43 0 6.79a2 2 0 0 0 2.66-.55c.94-.95 1.24-3.03 1.62-4.27z" fill="#fff"></path><path d="M929 422a69.14 69.14 0 0 0-5.7 6.28c-1.26 1.72-3 4.69-.77 6.43s5.3.14 7.31-.81c2.63-1.24 5.15-2.79 7.68-4.23a129 129 0 0 0 12.48-8.13c8.76-6.44 17.62-13.93 23.72-23 .55-.81-.69-1.88-1.36-1.11A148.84 148.84 0 0 1 953.54 416a162.13 162.13 0 0 1-20.32 13.51 31.32 31.32 0 0 1-7 3.4c-.65.18-2.08.65-2.52-.12-.52-.92.86-2.67 1.34-3.34a54.69 54.69 0 0 1 4.84-5.37 110.37 110.37 0 0 1 11.77-10.58c8.74-6.89 17.26-14.28 27.18-19.45 1.2-.63.39-2.6-.83-2-9.69 5.08-18 12.18-26.54 18.91A111.36 111.36 0 0 0 929 422z" fill="#a98587"></path><path d="M962.49 392.78a3.12 3.12 0 0 0 2.58 4.17 53.4 53.4 0 0 0 8.8.29 36.41 36.41 0 0 0-4 4.77c-1.55 2.35 1.46 5.48 3.86 3.95a21.51 21.51 0 0 0 5.12-4.91 28 28 0 0 0 1.88-2.63c.27-.43.52-.86.75-1.3a8.17 8.17 0 0 0 .66-1.58l.71-1.37a2.91 2.91 0 0 0 .16-.5 3.75 3.75 0 0 0 2-3.78c-.32-1.84-2.15-3.67-4.18-3.22a20.4 20.4 0 0 1-3.31.33c-2.07.11-4.09.14-6.15.42-3.7.5-7.23 1.74-8.88 5.36z" fill="#2e384e"></path><path d="M997 335.11a65.67 65.67 0 0 0-14.18 19.13c-3.93 8.05-7.1 18.42-3 27 2.39 5 6.7 8.19 11.68 9.91a22.56 22.56 0 0 0 4.81 1.8c11.09 2.71 21.88-.12 31.55-5.83a104.59 104.59 0 0 0 20-15.12c.53-.52 1.05-1.06 1.57-1.6a33.77 33.77 0 0 0 7.33-8.4 23.13 23.13 0 0 0 1.15-2.28 37.13 37.13 0 0 0 3.95-8.76 28.7 28.7 0 0 0-4.38-25.07 24.43 24.43 0 0 0-19.56-10.39c-7.82-.14-15.49 2.59-22.3 6.24A90.46 90.46 0 0 0 997 335.11zm43.29-10.35l.54.1c.48.11.94.26 1.41.4a32 32 0 0 0-3.19.5 5.23 5.23 0 0 0-1-1.13l-.13-.08c.43 0 .87 0 1.3.07z" fill="#b36e33"></path><path d="M983.76 348.09a55.26 55.26 0 0 0-11.18 21.82c-1.75 7.24-1.38 15.65 3.36 21.74 6.26 8 16.86 10.65 26.64 10a31.38 31.38 0 0 0 14.29-4c3.26-2 7.28-5.14 7.1-9.35a14.19 14.19 0 0 0-1.06-4.25 54 54 0 0 0-3.73-8.54 78.42 78.42 0 0 0-6.19-9c-4.86-6.33-11-13.28-18.47-16.51a12.53 12.53 0 0 0-1.49-.53c-1.85-3.47-6.47-4.78-9.27-1.38z" fill="#d7c2b9"></path><path d="M1026.58 371.63a1.19 1.19 0 0 0-.11 1.44 1.17 1.17 0 0 0 1.36.48c.57-.26 1.12-.59 1.71-.81l.35-.11h.07l.7-.1h.4a4 4 0 0 1 .59.08c-.1.27-.2.53-.32.79a14.77 14.77 0 0 1-1.35 2.22c-.36.53-.76 1-1.16 1.53a14.77 14.77 0 0 0-1.19 1.45.9.9 0 0 0-.29.59.77.77 0 0 0-.07.16h.07a1 1 0 0 0 .14.57 1.05 1.05 0 0 0 1.45.31 14.7 14.7 0 0 0 1.86-1.66 15.81 15.81 0 0 0 2-2.29 12.08 12.08 0 0 0 1.88-4.26 1.4 1.4 0 0 0-.82-1.45 6 6 0 0 0-7.27 1.06z" fill="#231f20"></path><path d="M1019.07 362.93a1 1 0 0 0 .82 1.07 2.64 2.64 0 0 0 1.61-.49 5.89 5.89 0 0 1 .63-.29 5.43 5.43 0 0 1 .53-.17h1.04l.16.05.33.17.12.09.12.12c.06.09.11.19.16.28l.06.2a.13.13 0 0 0 0 .06v-.05.06a.13.13 0 0 1 0 .06v.22a.15.15 0 0 0 0 .07c-.05.11-.07.25-.11.35a1.08 1.08 0 0 1-.08.19v.06l-.07.11a8.26 8.26 0 0 1-2.22 2.15.75.75 0 0 0-.11.9.77.77 0 0 0 .83.35 6 6 0 0 0 3.3-2.16 4 4 0 0 0 .76-2.73 3.3 3.3 0 0 0-1.18-2.21 4.13 4.13 0 0 0-2.73-.85 5.59 5.59 0 0 0-1.75.37 5.36 5.36 0 0 0-1 .49c-.54.39-1.21.86-1.22 1.53z" fill="#231f20"></path><path d="M1024.65 364.41c-.05.1 0 .1 0 0z" fill="#231f20"></path><path d="M1024.66 364v.06-.06z" fill="#231f20"></path><path d="M1011.71 354.62a1.06 1.06 0 0 0 .57 1.73 1.67 1.67 0 0 0 .94 0h.12l.68-.14a9 9 0 0 1 1.26-.15 5.81 5.81 0 0 1 2.08.21l.44.14.2.1.32.2-.06-.06.11.1.06.07a.52.52 0 0 0 0 .11l-.09.18-.12.17-.12.14a6 6 0 0 1-.46.42c-.58.46-1.19.89-1.81 1.3s0 1.4.6 1.23a6.51 6.51 0 0 0 3.5-2 2.51 2.51 0 0 0 .48-2.59 3.41 3.41 0 0 0-2-1.71 8 8 0 0 0-2.83-.54 9.3 9.3 0 0 0-1.67.08 3.66 3.66 0 0 0-2.2 1.01z" fill="#231f20"></path><path d="M1018.55 356.85z" fill="#231f20"></path><path d="M1017.88 356.39c.16.1.09 0 0 0z" fill="#231f20"></path><path d="M1018.44 356.73l.11.1z" fill="#231f20"></path><path d="M1003.63 347.5a1.1 1.1 0 0 0 .36.44 1.33 1.33 0 0 0 .85.18 4.48 4.48 0 0 0 1.65-.49c.32-.14.65-.27 1-.42a16.33 16.33 0 0 1 1.91-.73 8.82 8.82 0 0 1 .89-.2h1.22a16.41 16.41 0 0 1-1 1.8 24.14 24.14 0 0 1-1.59 2.17.76.76 0 0 0 1.12 1 27.76 27.76 0 0 0 4-5 1.17 1.17 0 0 0-.39-1.58 5.61 5.61 0 0 0-4.65-.67 19.54 19.54 0 0 0-2.88 1 8.18 8.18 0 0 0-2.21 1.16 1.12 1.12 0 0 0-.28 1.34z" fill="#231f20"></path><path d="M997 341.19a1 1 0 0 0 .57 1.24 3.18 3.18 0 0 0 2.2-.25l.75-.33c.46-.19.92-.37 1.39-.54a12.61 12.61 0 0 1 1.32-.37 4.76 4.76 0 0 1-1.61 2.81.75.75 0 0 0 0 1 .77.77 0 0 0 1 .19 6.47 6.47 0 0 0 2.13-1.72 5.87 5.87 0 0 0 1.22-3.87 1.33 1.33 0 0 0-1.35-1.27 12 12 0 0 0-3.55.71c-.53.17-1 .36-1.57.57l-.78.33a3 3 0 0 0-1.72 1.5z" fill="#231f20"></path><path d="M1009.93 333.89a1.16 1.16 0 0 0 0 1.25 1.12 1.12 0 0 0 1.17.47 6.5 6.5 0 0 0 1.76-.85l.15-.08.31-.13c.21-.09.43-.17.65-.24l.3-.08h.06c.11 0 0 0 0 0h.1a5.36 5.36 0 0 1 .69-.06h.32a.86.86 0 0 0 .16 0c.11 0 .21.07.32.1a6.67 6.67 0 0 1-.63 2.08 17.58 17.58 0 0 1-1.08 1.83c-.2.31-.58.83-.54 1.2a.84.84 0 0 0 .48.65.87.87 0 0 0 .69 0l.12-.07.08-.06a1.18 1.18 0 0 0 .19-.11 2.88 2.88 0 0 0 .35-.26c.28-.24.54-.51.8-.78a7.66 7.66 0 0 0 .91-1.21 9.37 9.37 0 0 0 1.21-3.31 4.41 4.41 0 0 0 .09-.73 1.76 1.76 0 0 0-1.25-1.52 5 5 0 0 0-1.21-.33 7.09 7.09 0 0 0-3 .17 6.84 6.84 0 0 0-1.3.5 4 4 0 0 0-1.9 1.57z" fill="#231f20"></path><path d="M1014.32 334.22z" fill="#231f20"></path><path d="M1015.6 334.16c-.18-.02-.18.04 0 0z" fill="#231f20"></path><path d="M1019.36 342.06a1.14 1.14 0 0 0-.11.73c.19.88 1.45.77 2.17.51.24-.09.47-.2.71-.3a10.18 10.18 0 0 1 1.42-.45l.35-.07h.14a6.33 6.33 0 0 1 .76 0h.44a5.62 5.62 0 0 1 .55.15h.06l.16.1s0-.06 0 0h.06l.08.08.06.07a1.74 1.74 0 0 1 .1.19v.05a.25.25 0 0 1 0 .07.24.24 0 0 1 0-.07v.07a.59.59 0 0 0 0 .08c-.12.19-.25.38-.38.56-.29.38-.6.74-.9 1.11-.42.53-.86 1-1.31 1.55a6 6 0 0 0-.82 1 1 1 0 0 0 1.36 1.33l.17-.13c.12-.09.23-.19.34-.29l.79-.7c.49-.42 1-.86 1.42-1.31a7.17 7.17 0 0 0 1.88-2.7 3.1 3.1 0 0 0-1.56-3.36 5.53 5.53 0 0 0-3.6-.53 11.36 11.36 0 0 0-2.16.53 6.32 6.32 0 0 0-1.1.48 1.58 1.58 0 0 0-.24.15 1.49 1.49 0 0 0-.84 1.1z" fill="#231f20"></path><path d="M1026.28 343.2s.01-.02 0 0z" fill="#231f20"></path><path d="M1026.05 342.74h.06z" fill="#231f20"></path><path d="M1027.47 350.68a1.15 1.15 0 0 0 .93 1.75h.47l.55-.19.28-.09.34-.12.32-.09h1.02l.35.08H1032.02l.18.09a3.94 3.94 0 0 1 .55.35 2.72 2.72 0 0 1 .61.7 9.84 9.84 0 0 1-3.9 4.63.74.74 0 0 0 .75 1.28 12.41 12.41 0 0 0 3-2.07 11.62 11.62 0 0 0 1.2-1.33c.19-.24.36-.48.52-.72l.22-.35a4.45 4.45 0 0 0 .64-1.22 3 3 0 0 0-.71-2.06 4.88 4.88 0 0 0-1.31-1.33 5.16 5.16 0 0 0-2.67-.81 4.11 4.11 0 0 0-3.63 1.5z" fill="#231f20"></path><path d="M1034.33 364.06a1.22 1.22 0 0 0 1.7 1.73c.7-.5 1.4-1 2.15-1.47l.12-.06.43-.19a4.76 4.76 0 0 1 .61-.19 3.08 3.08 0 0 1 .68-.07 1.88 1.88 0 0 1 .33 0l.12.06.06.12a.3.3 0 0 0 0 .1 3.21 3.21 0 0 1-.9 2.12 10.87 10.87 0 0 1-1.88 1.77.75.75 0 0 0 0 1 .76.76 0 0 0 1 .19 13 13 0 0 0 1.9-1.3c.12-.1.24-.2.35-.31s-.12.12.06 0l.18-.17a6.55 6.55 0 0 0 .64-.65 4.32 4.32 0 0 0 1.17-3.28 2.74 2.74 0 0 0-1.62-2.05 4.47 4.47 0 0 0-3.08 0 9 9 0 0 0-4 2.7z" fill="#231f20"></path><path d="M1045 359.35a1 1 0 0 0 .93 1.29 1.57 1.57 0 0 0 1.31-.36l.31-.19c.22-.13.45-.25.68-.36l.55-.23.27-.09h.08a3.5 3.5 0 0 1 .45-.07h.32l.15.08.06.1v.1a.57.57 0 0 0 0 .14 3.68 3.68 0 0 1-.21 1.68 7.93 7.93 0 0 1-.48 1.07c-.2.37-.38.74-.61 1.09a3.62 3.62 0 0 0-.49.86.74.74 0 0 0 .89.91 4.87 4.87 0 0 0 1.81-1.57 6.62 6.62 0 0 0 .82-1.38 5.7 5.7 0 0 0 .62-2.68 3.1 3.1 0 0 0-1-2.18 3.23 3.23 0 0 0-2.51-.66 6.89 6.89 0 0 0-1.77.51 9.37 9.37 0 0 0-.9.44c-.16.09-.32.18-.47.28s-.28.16-.39.24a1.61 1.61 0 0 0-.42.98z" fill="#231f20"></path><path d="M1037.46 348.22a1.39 1.39 0 0 0-.39 1.1.79.79 0 0 0 .45.66c1.11.54 2.68-.51 3.73-1a14.35 14.35 0 0 1 1.81-.63 9.25 9.25 0 0 1 2.44-.33 6.42 6.42 0 0 1-.27 1.44 8.58 8.58 0 0 1-2 3 .78.78 0 0 0 .81 1.25c2.59-.88 4-3.79 4-6.38a1.76 1.76 0 0 0-.46-1.35 2.1 2.1 0 0 0-1.35-.48 8.64 8.64 0 0 0-1.76-.05 13.28 13.28 0 0 0-3.68.83 18.29 18.29 0 0 0-1.7.75 7.94 7.94 0 0 0-1 .54 4.23 4.23 0 0 0-.63.65z" fill="#231f20"></path><path d="M1029.62 338.62c0 .16.35.6.55.53.56-.2 1.19.12 1.75-.11l.23-.1.55-.25c.28-.11.55-.21.83-.3a8 8 0 0 1 .84-.22l.41-.07h.17a5.62 5.62 0 0 1 .82 0 3.4 3.4 0 0 1 .45 0h.38l.2.05.27.07a6.21 6.21 0 0 1-.93 2.42 9 9 0 0 1-1.83 2 .82.82 0 0 0-.2 1.09.79.79 0 0 0 1.09.2 12.81 12.81 0 0 0 3.23-2.82 7.82 7.82 0 0 0 1.55-3.69 1.35 1.35 0 0 0-.63-1.26 8.31 8.31 0 0 0-4.77-.91 10.13 10.13 0 0 0-2.38.53c-1.2.48-2.84 1.29-2.58 2.84z" fill="#231f20"></path><path d="M1022.31 328.07a1.19 1.19 0 0 0 .92 2 8.78 8.78 0 0 0 1.39-.3c.19 0 .38-.08.57-.14.39-.12.77-.22 1.17-.31s.63-.13 1-.18v.23a6 6 0 0 1-1.22 2.07 1.07 1.07 0 0 0 .22 1.25 1.1 1.1 0 0 0 1.27.11 5.19 5.19 0 0 0 2.27-2.47 4.74 4.74 0 0 0 .18-3 1.41 1.41 0 0 0-1.27-1.12 16.84 16.84 0 0 0-3 .36 6.7 6.7 0 0 0-3.5 1.5z" fill="#231f20"></path><path d="M1017.52 322.71a1.72 1.72 0 0 0-.25.43 1.13 1.13 0 0 0 0 .83c.1.23.31.54.57.59H1019.34a1.31 1.31 0 0 0 .27-.06c.09 0 .18-.07.27-.09h.19c-.11.11-.22.21-.31.32.06-.07.12-.15.19-.22a3.15 3.15 0 0 1-.36.37 1.93 1.93 0 0 0-.26.49l.12-.23a1.54 1.54 0 0 0-.23.58.22.22 0 0 0 0 .08.68.68 0 0 0 .08.65.69.69 0 0 0 .58.27h.06a1.3 1.3 0 0 0 .51-.06 5.49 5.49 0 0 0 .57-.2l.54-.28-.27.13a11.17 11.17 0 0 0 1.78-1l.24-.27a1 1 0 0 0 .19-.5 1.4 1.4 0 0 0-.11-.9 3.89 3.89 0 0 0-1.29-1.5 3 3 0 0 0-1.06-.5 3.56 3.56 0 0 0-1.49 0 2.73 2.73 0 0 0-.41.1l-.23.08a2.36 2.36 0 0 0-.85.46z" fill="#231f20"></path><path d="M1008.05 330.08l.2-.19c-.45.41-.91.83-1.35 1.25a1 1 0 0 0-.2.69.92.92 0 0 0 .26.54.94.94 0 0 0 1.23.12l.34-.23-.22.14c.51-.32 1-.63 1.51-1l-.24.14a4.87 4.87 0 0 0 1-.67 1.14 1.14 0 0 0-1.3-1.84 7.15 7.15 0 0 0-1.23 1.05z" fill="#231f20"></path><path d="M1043.39 370.08a12.84 12.84 0 0 0-1.09 1.78l.16-.29a7.27 7.27 0 0 0-.68 1.44l.09-.31c-.17.52-.35 1-.48 1.57a1 1 0 0 0 .46 1.18 1 1 0 0 0 1.23-.28l.64-.93c.14-.21.29-.41.41-.63l.29-.48c.34-.57.72-1.11 1-1.7l-.15.29.24-.45a1.19 1.19 0 0 0 0-1 1.32 1.32 0 0 0-.53-.57 1.24 1.24 0 0 0-1.59.38z" fill="#231f20"></path><path d="M1052 348.16a2.47 2.47 0 0 0-.18.52 1.53 1.53 0 0 0-.1.76.71.71 0 0 0 .58.59 2.48 2.48 0 0 0 1.57-.46l.12-.08h.06l.53-.26.17-.08.09-.05.22-.05h.55-.08.36l.23.11.2.13s.07.07.1.11l.13.17.07.15a2.72 2.72 0 0 1 .13.49 3.61 3.61 0 0 1-1.3 2.58.8.8 0 0 0 .09 1.06.81.81 0 0 0 1.07.07c1.61-1.22 3-3.33 2.15-5.4a3.52 3.52 0 0 0-1.56-1.76 4 4 0 0 0-2.56-.31 4.54 4.54 0 0 0-1.29.47 3.07 3.07 0 0 0-.72.52 3.74 3.74 0 0 0-.63.72z" fill="#231f20"></path><path d="M1055.64 349h.15-.14z" fill="#231f20"></path><path d="M1047.31 336.17l.09.08z" fill="#231f20"></path><path d="M1043 334.63a1.53 1.53 0 0 0-.52 1.26c.13 1.06 1.35 1.1 2.21.79a6.89 6.89 0 0 0 .73-.34l.3-.14.12-.05a7.06 7.06 0 0 1 .89-.19H1047.08l.2.14-.08-.1.1.1s.09.1 0 .06l.06.08a.41.41 0 0 1 .07.11s.08.17 0 .08a2.79 2.79 0 0 1 .19 1.31 1.92 1.92 0 0 1-.19.71 2.06 2.06 0 0 1-.17.33 1.34 1.34 0 0 1-.11.14 1.14 1.14 0 0 0-.24.38c-.36.16-.45.74 0 .85h.12a.85.85 0 0 0 .82.25 2.52 2.52 0 0 0 1.44-1.05 4.19 4.19 0 0 0 .39-.72 4.91 4.91 0 0 0 .28-2.68 3.56 3.56 0 0 0-.83-1.8 3.42 3.42 0 0 0-2.18-1.07 5.69 5.69 0 0 0-2.78.56 3.53 3.53 0 0 0-1.17.99z" fill="#231f20"></path><path d="M1047 336z" fill="#231f20"></path><path d="M1038.75 326.59l.09.06z" fill="#231f20"></path><path d="M1039.13 326.89l.07.11v-.06z" fill="#231f20"></path><path d="M1032.61 325.8a1 1 0 0 0 .78 1.24 1.62 1.62 0 0 0 1.36-.1l.32-.14.32-.12s.29-.12 0 0 .06 0 .11 0a9.48 9.48 0 0 1 1.17-.28 2.3 2.3 0 0 0 .26 0 5.23 5.23 0 0 1 .56 0l.5.05.21.05.41.13-.13-.06.17.08c.07 0 .13.08 0 0a1.5 1.5 0 0 1 .23.15l.08.09v-.06a.16.16 0 0 1 0 .07c.07.09.09.15 0 .09s0 .12.08.17a.57.57 0 0 0 0 .13 1.38 1.38 0 0 1-.09.27 5 5 0 0 1-1.52 1.75.94.94 0 0 0-.24 1.29 1 1 0 0 0 1.29.24 5.92 5.92 0 0 0 3.08-3.05 2.87 2.87 0 0 0-.53-2.76 5.23 5.23 0 0 0-4.44-1.52 7.77 7.77 0 0 0-1.72.31 7.19 7.19 0 0 0-1 .4c-.26.13-.52.28-.77.43a1.66 1.66 0 0 0-.49 1.15z" fill="#231f20"></path><path d="M1031.84 318.26c-.73.64-1.44 1.32-2.16 2a1 1 0 0 0 1.16 1.63c.93-.59 1.87-1.17 2.76-1.81.35-.25.7-.5 1-.78l.32-.3a1.46 1.46 0 0 0 .55-.83 1.43 1.43 0 0 0-.09-.74 1 1 0 0 0-.43-.49l-1.48.11-.15.1c-.22.15-.43.28-.64.44s-.56.41-.84.67z" fill="#231f20"></path><path d="M1055.74 337.08a3 3 0 0 0-.26.46 1.27 1.27 0 0 0-.22.72.83.83 0 0 0 .23.54l.15.12a.74.74 0 0 0 .36.09h.2-.11a1.39 1.39 0 0 0 .7 0h.19l.24-.08.45-.17-.31.11.29-.11h.19v.24a4.71 4.71 0 0 1-.58 1.22c-.16.23-.31.47-.49.68a2.62 2.62 0 0 1-.22.25c-.17.18-.32.35-.48.55a.91.91 0 0 0-.11 1.08.93.93 0 0 0 1 .39 3 3 0 0 0 .85-.37 5.92 5.92 0 0 0 .48-.35 4.78 4.78 0 0 0 .82-.8 6.64 6.64 0 0 0 1-1.86 3.77 3.77 0 0 0 .17-2 2.08 2.08 0 0 0-1.5-1.58 3 3 0 0 0-1.4 0 5.46 5.46 0 0 0-.77.28l-.12.05a3.74 3.74 0 0 0-.53.35 2.5 2.5 0 0 0-.22.19z" fill="#231f20"></path><path d="M1045.54 325.66a1 1 0 0 0 .78 1.24 1.43 1.43 0 0 0 .74 0l.59-.2a4.62 4.62 0 0 0 .47-.19 6.07 6.07 0 0 1 .79-.34 13.22 13.22 0 0 1 1.52-.44l.38-.06a1.35 1.35 0 0 1 .39-.05h.8v.33a5.37 5.37 0 0 1-.31 1.24 6.93 6.93 0 0 1-1.8 2.57.9.9 0 0 0 1.13 1.38 7.51 7.51 0 0 0 3.11-3.13 7.15 7.15 0 0 0 .67-3.91 1.41 1.41 0 0 0-1.25-1.13 10.06 10.06 0 0 0-3.71 0 8.67 8.67 0 0 0-1.92.58c-.99.45-2.12 1.04-2.38 2.11z" fill="#231f20"></path><path d="M1038.87 318.54a1.47 1.47 0 0 0-.4.86.71.71 0 0 0 .61.76 3.2 3.2 0 0 0 1.73-.27l.34-.13a2 2 0 0 0 .26-.08l.29-.08.5-.09H1042.86c-.14.26-.3.51-.45.77a1 1 0 0 0 .21 1.35 1 1 0 0 0 1.34-.21c-.07.08-.06.08 0 0s.21-.2.31-.31l.24-.25c.13-.14.26-.29.38-.44a3.69 3.69 0 0 0 .77-1.87 1.3 1.3 0 0 0-.87-1.27 7.33 7.33 0 0 0-1.56-.33 5.42 5.42 0 0 0-1.45.05 5.64 5.64 0 0 0-1.15.26 3 3 0 0 0-1.76 1.28z" fill="#231f20"></path><path d="M983.08 359.83a19.13 19.13 0 0 0-2.41 4.59c-.73 1.65-1.43 3.31-2 5a39 39 0 0 0-1.6 6c-.32 2-.34 4.28 1.09 5.84.64.7 1.77-.22 1.47-1-.57-1.5-.07-3.54.28-5.05a37.14 37.14 0 0 1 1.61-4.95c.66-1.67 1.35-3.33 2.1-5a25 25 0 0 0 1.91-4.47c.33-1.39-1.65-1.91-2.45-.96z" fill="#231f20"></path><path d="M986.72 353.77c0 .1-.07.21-.11.31a9 9 0 0 1-.81 1.54 4.28 4.28 0 0 1-.56.64 1.27 1.27 0 0 0-.5.79.86.86 0 0 0 .49.81.88.88 0 0 0 .93-.13 5.72 5.72 0 0 0 2.46-3.36 1 1 0 1 0-1.9-.6z" fill="#231f20"></path><path d="M991.34 505.6c-21.63 34.63-49.5 65.33-80.16 92.14-4.33 3.79-9 7.16-13.51 10.7a366.61 366.61 0 0 0 19.15-164l8.1-10.27.94-4.82c.27-1.55.49-3.11.72-4.66q.78-5.44 1.37-10.93c.77-7.12 1.43-14.27 1.6-21.44.34-14 .24-28.09.38-42.14.13-13.38.41-26.78 1.61-40.11 1.43-15.85 5.56-32.11 5.51-47.93 0-11.64-13.34-14.82-21.2-8.53-13.69 11-18 33.89-20.27 50.34-1.91 14.09-2.88 28.28-3.66 42.47-13.15-32.27-31.62-62.34-53.76-89.7-.82-2.61-2.4-4.45-3.72-7.74q4 1.46 2.7-.66l-.6-1.48A20.58 20.58 0 0 0 835 243c-1.73-4.2-3.32-8.45-5-12.68-4.35-11.17-10.29-21.68-15.31-32.57-5.79-12.54-11.36-25.19-16.51-38-4.42-11-8.77-22.2-12.55-33.47-3.5-10.43-4.1-22-8.42-32-4-9.34-19.48-10.7-24.52-1.49-8.83 16.14-2.67 37.91 1.42 54.66 3.48 14.32 8.9 28.26 14.36 42a405.32 405.32 0 0 0-91.47-51.8 17 17 0 0 0-4.28-4.49c-1.86-1.3-3.81-2.46-5.73-3.67q-10.2-6.38-20.55-12.53c-11.31-6.72-22.7-13.32-34-20.1-14-8.42-28.64-15.84-42.15-25.1-4-2.73-7.78-5.62-11.49-8.7-1.16-1-2.37-1.92-3.52-2.92 1-9.13-11.07-16.81-19.58-11.75-14.07 8.39-9.07 25.14-1.62 35.91 6.08 8.78 15.5 15.81 23.77 22.39 1.88 1.5 3.84 2.85 5.74 4.3a318.22 318.22 0 0 0-72.95 3.65c-1.29.22-2.57.54-3.85.76-.54-7.16-4.34-14-11.7-15.72-18.61-4.46-36.87-.31-55.36 3.14-11.81 2.2-23.52 4.88-35.22 7.56-27.79 6.38-56.41 10.64-83.7 18.68-13.09 3.85-9.78 22.58 2.17 25.19 18.9 4.14 38.3 2.75 57.49-.26a346.16 346.16 0 0 0-79.28 51.17c-4.76 1.11-9.38 2.4-13.56 3.6a279.27 279.27 0 0 0-42.15 16.45 212.77 212.77 0 0 0-42.46 27c-10.93 8.88-24.17 20.81-28.15 34.85-2.67 9.45 7.38 20.81 16.71 13.08a233.58 233.58 0 0 1 55.56-33.86c-28.29 42.59-48.75 93.89-55.87 145.56-.17.86-.25 1.73-.42 2.59q-6.21 8.93-12.16 18c-11.37 17.25-21.62 35.16-31.49 53.32-9.28 17.06-18.78 34.89-25.44 53.13-2.84 7.77-9.33 21-6.79 29.62a13.89 13.89 0 0 0 11.83 9.7c3.08.29 15.76-3.36 14.31-8.89-.19-.72 6-10.1 7.24-12.14 2.31-3.88 4.51-7.56 6.65-11.58q5.44-10.23 11.17-20.31c5.64-9.93 11.92-19.45 18-29.06a389.91 389.91 0 0 0 7 60.64c-.26.18-.63.19-.87.39-15.1 12.42-15.44 35.2-18.45 52.92-1.8 10.65-3.45 21.33-4.86 32-1.32 10-2.31 20-2.77 30.07-.35 7.79-1 15.66-.87 23.47.1 9.13 2 19.11 3.36 28.1 2.26 15.25 24.51 15 26.89-.13 2.73-17.36 5.43-34.6 7.82-52 1.54-11.16 2.91-22.33 4.6-33.46.98-5.75 1.98-11.49 2.98-17.22a430.45 430.45 0 0 0 35.54 73.72c-6.16 2.63-11.22 7.78-12.14 14.81-5.26 39.93 13.53 79.44 31.56 113.92 10.18 19.48 20.85 38.62 31.22 58 3.68 6.84 6.55 16.32 14.12 19.64 13.11 5.75 25.62-7.69 21.13-20.54-3.24-9.26-5.24-19.21-8.37-28.6-3.24-9.73-7.7-19-11.87-28.4-5.71-12.81-11.48-25.6-16.82-38.57-2.14-5.2-3.95-10.43-5.71-15.68a57.36 57.36 0 0 0 12 6.37 107.28 107.28 0 0 0 11.23 3.09A381.59 381.59 0 0 0 340 819.92a313.79 313.79 0 0 0 68 35.81c2.54 3.88 5.1 7.75 7.72 11.59a220 220 0 0 0 16.34 21 290.42 290.42 0 0 0 22.31 22.76 69.65 69.65 0 0 0 15.73 11.35c3.54 1.83 7.13 3.7 10.8 5.21 6.35 2.63 13 3.28 19.78 3.86 7.14.62 15-4.72 16.93-11.7a19.91 19.91 0 0 0 .4-8.82c-.86-5-3.81-6.94-7-10.13.21.16-1.64-1.91-1.94-2.21-1.21-1.24-2.38-2.52-3.61-3.74-2.34-2.32-5-4.28-7.32-6.62-3.88-3.87-7.74-7.7-11.78-11.4-.83-.76-1.65-1.54-2.47-2.31-.12-.13-.45-.41-.77-.69h.06c1.31 1.1.84.64.16 0a312.35 312.35 0 0 0 77.24-.88 348.62 348.62 0 0 0 43.37-9 88.86 88.86 0 0 0 7.75 8.07 139.47 139.47 0 0 0 24.36 17.43 180.61 180.61 0 0 0 43.53 17.5c13.5 3.38 27.19 5.9 40.88 8.32 19.54 3.46 41.17 11.1 58.29-2.42 3.91-3.08 7.21-11 5.12-15.92l-27-22.15-3.57-.61-4.78-.79-10.81-1.72c-7.22-1.13-14.45-2.24-21.66-3.47-13.91-2.36-27.56-5.66-41.34-8.62a159.7 159.7 0 0 1-29.35-9.28 500.3 500.3 0 0 0 92.4-48.62c30.91 6.45 64.14-2.89 92.86-14.94a327.09 327.09 0 0 0 48.5-25.39c15-9.52 34.88-21.73 43.51-37.76A17.7 17.7 0 0 0 907 697.69l-4.64.71a17.32 17.32 0 0 0-7.81 4.78l1.68-2.2a18 18 0 0 0-5.1 3.48c-1.46 1.15-2.81 2.54-4.21 3.75q-4 3.48-8.2 6.78c-5.91 4.69-12 9.08-18.25 13.39a284.56 284.56 0 0 1-50.58 28.14c-7.05 3-14.39 5.74-21.89 8.16a356.3 356.3 0 0 0 69.94-77.43l.27-.13A270.81 270.81 0 0 0 882.44 673c19.74-12.87 37.76-28.81 54.45-45.36 31.59-31.31 60.32-67.19 77.68-108.42 5.78-13.76-14.87-26.99-23.23-13.62zm-210.78-91.75a86.19 86.19 0 0 0 2.89 10.1 107.41 107.41 0 0 0 10 19.87c8.12 13.24 17.68 25.58 27.33 37.73 9.49 11.94 19.51 23.45 28.91 35.46 2.07 2.65 4.08 5.36 6.11 8 .45.6.49.63.65.83s.1.18.43.68c1 1.41 1.92 2.81 2.85 4.25 2.74 4.21 5 8.18 7.73 11.65a309.21 309.21 0 0 1-42.35 111.66l-.56.26a35.1 35.1 0 0 0-8.76 5.35c-.16-7.7-.33-15.39-.39-23.09-.33-42.77 1.87-87-5.5-129.29-1.74-10-18.66-13.83-21.53-2.39-10.18 40.53-10.61 84.32-11.71 125.94-.48 18.21-.16 36.49.35 54.7.21 7-.35 17.2.71 26.76a454.65 454.65 0 0 1-70.25 55.81c18.56-41.8 26.77-88.31 44-130.77 7.29-18-16.61-31.17-26.94-14.19-30.84 50.72-30.1 112.95-54.17 166.32-35.34 18.12-73.09 31.09-111.46 37.09 4.69-4.4 9.28-8.9 13.6-13.65 12-13.17 23.14-26.53 32.91-41.4C616 755.49 623.58 735 615.89 716.4c-3.83-9.26-15.49-7-20.6-.89-5.72 6.85-9.36 15-14.51 22.18-1.95 2.73-4 5.42-5.89 8.18-.41.58-1.1 1.49-1.38 1.86-1 1.27-2 2.54-3 3.79q-3.13 3.81-6.41 7.49c-2.25 2.54-4.53 5-6.85 7.5l-.48.51c-.26.22-.65.57-1.38 1.26-1.26 1.18-2.49 2.41-3.74 3.6-5.32 5.08-10.83 10-16.2 15q-14.1 13.2-28.33 26.26c-4.43 4.06-8.85 8.14-13.2 12.3-1.27 1.22-2.44 2.5-3.62 3.78a255.38 255.38 0 0 1-52.76-9.65 32.67 32.67 0 0 0-10.81-8 19.76 19.76 0 0 0-13.8-.92c-3.86-1.62-7.73-3.21-11.55-5a291.13 291.13 0 0 1-35-20.35c8.49-.51 17.05-.82 25.51-1.71 12.06-1.27 24-4.5 36-6.33 7.31-1.12 14.48-2.55 17.83-10.19 4.29-9.78-4.26-25.5-16.4-22.19a11.19 11.19 0 0 0-6.35-1.47c-3.13-.51-6.27-1-9.42-1.39-6.5-.86-12.87-2.39-19.38-3.14-8.34-1-16.78-1.37-25.15-2-14.35-1.15-28.73-1.55-43-3.41-8.13-1-16.16-2.62-24.18-4.23a404.53 404.53 0 0 1-64.56-97.41c22.9 13.81 47.5 24.46 74.34 27.58 7.52.88 14.84-1.91 17.55-9.55 2.46-6.95-.12-15.23-7-18.71-16.3-8.22-31.48-18.75-46.78-28.67-8.48-5.49-17.08-10.76-25.59-16.21-12.38-7.93-24.68-16.36-37.31-24.11a411.72 411.72 0 0 1-9.94-61.3 14.36 14.36 0 0 0 4.14-7.3c5.15-23.68 8.14-47.76 12.23-71.64.42-6.51 1-12.84 1.59-18.75 0-.33.07-.69.1-1a166.43 166.43 0 0 1 .87 45c-1.6 14-6.31 30.19 7.36 39.52 4.63 3.16 10.6 3.75 15.3.29 12-8.84 12.34-25.8 13.55-39.72 1.34-15.57.12-31.26-2.33-46.66-3-19-9.66-37.88-14.63-56.7a293.1 293.1 0 0 1 26.54-50 251.18 251.18 0 0 1 45-50.83 32.54 32.54 0 0 0 8.47-4c-2.46 14.21-3.49 28.81-4.38 43.7-.77 12.92-1.06 25.88-2.28 38.78-1.17 12.24-6.87 28.91-2.64 40.7 4.46 12.4 17.91 14.35 27.89 5.24 7.65-7 9.33-18.84 11.12-28.59 2.27-12.41 2.84-25.22 3.36-37.81 1.25-30.8 1.08-61.31 6.88-91.63 23.28-12.81 48.49-23 75.33-31.63q15.68-5 31.34-8.75-6.31 9.13-12.16 18.56c-12.78 20.65-22.12 43.55-32.75 65.35-3.07 6.3 1.58 14.59 7.3 17.27 6.6 3.09 13.8 1 18.12-4.83 14.38-19.56 28.24-39.53 42.74-59 12-16.16 25.73-30.17 39.91-44.39a13.33 13.33 0 0 0 1.48-2.44c48.93-2.55 97.27 6 144.11 29.57 2 1 4 2.17 6.06 3.22-4.23.72-8.46 1.4-12.72 2.2-10.7 2-21.31 4.34-31.91 6.83-17.76 4.16-34.54 10.35-51.54 16.64-10.8 4-7.2 21.37 3.89 21.82a333.54 333.54 0 0 0 55.19-2.16c12.59-1.6 25.14-3.09 37.78-4.18 11.52-1 23-2.22 34.56-3 8.3-.53 16.59-.52 24.88-.64 27 20.05 51.64 43.39 71.23 70.18-1.45-.47-2.87-1-4.32-1.46-25.71-7.87-52.35-12.65-77.75-21.45-7.14-2.47-15.41 3.48-17.57 10A15.45 15.45 0 0 0 721.3 306c23.79 12.74 49.05 20.47 74.42 29.23a238.06 238.06 0 0 1 33.57 14.24c4.94 2.6 9.94 5.11 14.71 8 .81.5 1.6 1 2.39 1.58a332.72 332.72 0 0 1 25.81 124.24c-8.55-10.49-17.4-20.71-26.28-30.93-9-10.42-18-21.05-25.45-32.71-6.8-10.67-10.82-21.47-15.77-33-1.23-2.88-10.84-9.3-14.06-5.64-11.77 13.41-13.03 19.66-10.08 32.84z" fill="#fff"></path><path d="M250.17 283q-.9-3.37-1.78-6.74A27.27 27.27 0 0 0 240 265.1l-6.31-3.73a27.13 27.13 0 0 0-14.13-1.92l-6.75 1.78a20.42 20.42 0 0 0-8.61 5.89 20.57 20.57 0 0 0-6.26 8.77A27.29 27.29 0 0 0 196 290l37.33 21.76 3-1.71a24.47 24.47 0 0 0 11.46-12.33 1.63 1.63 0 0 0 .11-.17 8.06 8.06 0 0 0 1.22-4 20.22 20.22 0 0 0 1.05-10.55z" fill="#f3c1bf"></path><path d="M245.12 534.41a9.38 9.38 0 0 0-2.7-3.9 18.48 18.48 0 0 0-8-5.21 13.88 13.88 0 0 0-2.8-.38l-3.62-2.59-4.61-1.75-4.92-.46a13.79 13.79 0 0 0-6.83 1.79 18.15 18.15 0 0 0-7.19 5.89 9.18 9.18 0 0 0-2.25 4.2 14 14 0 0 0-1.34 7.22q.09 3.48 0 7a28.58 28.58 0 0 0 0 3.07 9.65 9.65 0 0 0-.33 1.58c-.06.36.13.71.11 1.07a14 14 0 0 0-.35 2.32c.34 1.58.67 3.15 1 4.73a13.79 13.79 0 0 0 1.92 3.11l.11.23.11.13A13.74 13.74 0 0 0 205 565a9.27 9.27 0 0 0 3.59 3.13 14 14 0 0 0 6.74 2.94l5 .29a18.63 18.63 0 0 0 7.6-2.45 43.06 43.06 0 0 0 4.55-2 19.52 19.52 0 0 0 6.64-6.22c.24-.24.58-.31.81-.57l2.76-3.91c.27-.47.19-1 .4-1.51.81-1.22 1.61-2.45 2.41-3.67l1.56-4.77c.07-1.67.16-3.34.23-5a14.09 14.09 0 0 0-2.17-6.85z" fill="#f3c1bf"></path><path d="M329.31 770.56a34.84 34.84 0 0 0-9.37-15.67l-7.54-5.55a35 35 0 0 0-17.33-4.25l-2.95.15a26.05 26.05 0 0 0-13 2.74A31.51 31.51 0 0 0 260 766.8a26.1 26.1 0 0 0-2.91 13q.53 4.41 1.07 8.83a34.61 34.61 0 0 0 8.94 15.82l7.38 5.71a34.77 34.77 0 0 0 7.41 3.08l.46.19a34.56 34.56 0 0 0 4.68.74h.17c.36.09.74.08 1.1.15 1.12.11 2.17.43 3.31.45h-.25H293.64l2.61.09a26.27 26.27 0 0 0 13-3.07A31.63 31.63 0 0 0 328 792.5a26 26 0 0 0 2.61-13.1z" fill="#f3c1bf"></path><path d="M639.55 808a29.7 29.7 0 0 0-7.2-13.31l-5.85-4.81a29.46 29.46 0 0 0-14.81-4.52 28.58 28.58 0 0 0-27.64 17.35 22.43 22.43 0 0 0-2.91 11.29l.81 7.9a29.65 29.65 0 0 0 7.2 13.31L595 840a29.55 29.55 0 0 0 14.82 4.51 28.58 28.58 0 0 0 27.63-17.35 22.19 22.19 0 0 0 2.91-11.32z" fill="#f3c1bf"></path><path d="M871.4 252.28a29.63 29.63 0 0 0-7.21-13.3l-5.85-4.82a29.46 29.46 0 0 0-14.81-4.52 32.95 32.95 0 0 0-21.22 8 22.21 22.21 0 0 0-6.42 9.33 22.43 22.43 0 0 0-2.89 11.35l.81 7.9a29.65 29.65 0 0 0 7.2 13.31l5.85 4.82a29.48 29.48 0 0 0 14.82 4.51 33 33 0 0 0 21.21-8 22.33 22.33 0 0 0 6.43-9.33 22.32 22.32 0 0 0 2.9-11.33c-.28-2.65-.56-5.28-.82-7.92z" fill="#f3c1bf"></path><path d="M847.71 665.57a26.91 26.91 0 0 0-4.29 4.31c-.1.13-.21.19-.31.32s-.08.12-.13.17c-.29.38-.58.76-.85 1.17a21.14 21.14 0 0 0-4.31 8.4c-1.11 5.2-1.26 8.15-.65 9.33.87 13.92 12 26.42 27.43 26.42 54.29 0 17.15-81.39-16.89-50.12z" fill="#f3c1bf"></path><path d="M664.68 105.09a11.93 11.93 0 0 0-2.56-5.77 12.17 12.17 0 0 0-4-5 18 18 0 0 0-7.89-5.17c-5.8-4.86-20.86-3.17-29.3 1.57a15.61 15.61 0 0 0-3 2.63 13.42 13.42 0 0 0-4.51 5.47 20.5 20.5 0 0 0-4 10.05l-.18 7 1.59 6.75a20.38 20.38 0 0 0 5.64 8.71 13.53 13.53 0 0 0 5.46 4.51 20.58 20.58 0 0 0 10.06 4l7 .18 6.75-1.59a27.21 27.21 0 0 0 11.29-8l.11-.16 4.23-4.48c1-1.84 2-3.68 2.95-5.53a18.3 18.3 0 0 0 1.35-9.1 12.09 12.09 0 0 0-.99-6.07z" fill="#f3c1bf"></path><path d="M428.57 137c-36.87 0-31.58 57.16 5.17 57.16S465.32 137 428.57 137z" fill="#f3c1bf"></path><path d="M183.35 358.2c-32.39 0-30.17 50.16 2.11 50.16s30.16-50.16-2.11-50.16z" fill="#a1b4c2"></path><path d="M695.33 152.78c-34.92 0-41.21 54.58-5.82 54.58 34.92 0 41.21-54.58 5.82-54.58z" fill="#a1b4c2"></path><path d="M926.08 417c-38.32 0-38.82 59.56-.42 59.56s38.81-59.56.42-59.56z" fill="#a1b4c2"></path><path d="M452.38 817.07a26.89 26.89 0 0 0-7.71-11.41l-6.05-4a26.74 26.74 0 0 0-13.86-2.58 26 26 0 0 0-23.27 18.62 20.13 20.13 0 0 0-1.49 10.44c.48 2.25 1 4.5 1.43 6.75a27 27 0 0 0 7.71 11.41l6.05 4a26.85 26.85 0 0 0 13.86 2.59 26 26 0 0 0 23.26-18.63 20.09 20.09 0 0 0 1.47-10.42c-.45-2.27-.92-4.52-1.4-6.77z" fill="#a1b4c2"></path><path d="M230.54 683.94a11.57 11.57 0 0 0-2.83-5.39 11.34 11.34 0 0 0-4.08-4.39 11.41 11.41 0 0 0-5-3.11 11.49 11.49 0 0 0-5.55-1.73 11.5 11.5 0 0 0-5.85-.25 11.34 11.34 0 0 0-5.85 1.3 11.58 11.58 0 0 0-5.4 2.84 22.43 22.43 0 0 0-7.49 9 11.45 11.45 0 0 0-1.72 5.56 22.56 22.56 0 0 0 1 11.69 11.74 11.74 0 0 0 2.83 5.4 11.48 11.48 0 0 0 4.08 4.39 11.48 11.48 0 0 0 5 3.1 17.33 17.33 0 0 0 6.84 1.81h-.35l-4.77-1 .95.37 5.77 1 5.92-.5 5.78-2.11 5-3.56 3.77-4.6q1.23-2.65 2.44-5.33l1-5.77a17.13 17.13 0 0 0-1.49-8.72z" fill="#a1b4c2"></path><path d="M168.49 516.67a22 22 0 0 0-2.9-5.77 7.3 7.3 0 0 0-1.11-2.31 1.27 1.27 0 0 1-.13-.19c-.07-.1-.14-.21-.22-.31l-.47-.7-1-1.38a22.76 22.76 0 0 0-38.56 7.86q6.74 14.31 13.48 28.6a21.76 21.76 0 0 0 29.39-9.2 24.31 24.31 0 0 0 1.49-16.6z" fill="#ce7e2d"></path><path d="M309 176.55l-.06.59v.19c.06-.26.06-.52.06-.78z" fill="#ce7e2d"></path><path d="M308.38 181.86c.18-1.57.37-3.15.56-4.72l-.06-.46a16 16 0 0 1-.5 5.18z" fill="#ce7e2d"></path><path d="M308.6 174l.06.16c-.15-.7-.29-1.39-.38-2.1 0 .13 0 .25.05.37-.12-.57-.19-1.16-.31-1.73a18.47 18.47 0 0 0-5-7.9 38.71 38.71 0 0 0-6.76-4.61l-.26-.13h-.09L290.8 157l-.44-.07a6.17 6.17 0 0 0-2.69.2l-2.69.22H284.51l-4.75 1.84h-.11c-1.65.69-2.9 2.08-4.32 3.16l-.33.26-.09.09-3.09 4-.16.23a14.8 14.8 0 0 0-2.24 7.46 15.07 15.07 0 0 0 .5 7.95c.69 1.58 1.4 3.16 2.09 4.73a20.16 20.16 0 0 0 7.29 7c.73.42 1.46.84 2.2 1.25a18.56 18.56 0 0 0 9.51 2.25 20.47 20.47 0 0 0 12.62-5.57 18.33 18.33 0 0 0 4.58-8.45c.88-7.7.64-9-.89-13.17.39 1.09.77 2.19 1.16 3.28l.4 3c0-.26.1-.5.07-.75-.09-.63-.24-1.27-.35-1.91z" fill="#ce7e2d"></path><path d="M809.73 180.93q-.76-3.17-1.55-6.34a25.45 25.45 0 0 0-7.89-10.77l-5.88-3.53a25.58 25.58 0 0 0-12.9-1.9 28.47 28.47 0 0 0-17.12 9.44 19.27 19.27 0 0 0-4.39 9.07 19.17 19.17 0 0 0-1 9.72l1.55 6.34a25.36 25.36 0 0 0 7.9 10.78l5.87 3.52a25.49 25.49 0 0 0 12.91 1.9 28.47 28.47 0 0 0 17.12-9.44 19.34 19.34 0 0 0 4.42-9.07 19.06 19.06 0 0 0 .96-9.72z" fill="#ce7e2d"></path><path d="M935.25 579.65a24.16 24.16 0 0 0-5.11-11.56l-4.71-4.45a24.07 24.07 0 0 0-11.54-4.38 18 18 0 0 0-9.19 1A21.86 21.86 0 0 0 890.22 572a17.94 17.94 0 0 0-2.9 8.77q.06 3.09.14 6.18a24.05 24.05 0 0 0 5.1 11.56l4.71 4.45a24.18 24.18 0 0 0 11.54 4.38 23.34 23.34 0 0 0 23.67-12.72 17.94 17.94 0 0 0 2.9-8.77c-.04-2.08-.09-4.14-.13-6.2z" fill="#ce7e2d"></path><path d="M517.65 867.75a20.68 20.68 0 0 0-6.65-8.28c-4.05-4.48-15.7-6.73-23.4-5.25-.3.06-.58.12-.87.2-5.26 1.43-7 3.64-11.18 7a26 26 0 0 0-6.55 16.3l.81 6a17.55 17.55 0 0 0 4.36 8.18 11.57 11.57 0 0 0 4.34 4.25 17.48 17.48 0 0 0 8 4l5.89.74a23.06 23.06 0 0 0 11.72-3.24c.32-.18.62-.39 1-.57a48.14 48.14 0 0 0 6.62-4.66 20.87 20.87 0 0 0 6.28-8.48 15.51 15.51 0 0 0 1.3-8 15.84 15.84 0 0 0-1.67-8.19z" fill="#ce7e2d"></path><path d="M377.15 801.71c-4.57-1.77-8.86 1.27-12.28 5.12-.56-4.09-.81-9.72-3.87-12.53-3.77-3.46-7.6 1.54-9.36 4.55-3.84 6.54-6.05 14-7.94 21.34-2.33 9-4.73 18.27-5.89 27.51-2.1 16.84-.31 34.33-4.71 50.86-.24.89 1.17 1.34 1.53.5 5.05-11.78 5-24.58 5.64-37.15a145.06 145.06 0 0 1 1.84-18.5c1.25-6.85 3-13.69 4.66-20.45.57-2.26 8.34-29.23 12.4-26.21 1.57 1.17 1.86 4.92 2.19 6.65.37 2 .73 4 1 6l.06.38c-1.2 1.63-2.22 3.22-3 4.5a45.87 45.87 0 0 0-6.52 18c-.33 2.31-.93 6.11 1.14 7.85 2.31 1.93 5.53-.57 7.18-2.21 6.51-6.51 5.62-17.87 4.31-26.78.43-.55.83-1.14 1.29-1.66 1.93-2.2 5.05-5.54 8.32-5.09 8.26 1.12 3.19 16.12 1.71 20.51-3.83 11.38-10.37 21.68-16.43 32-7.94 13.47-16.09 26.87-22.11 41.34-.82 2 2.34 3 3.15 1 6.46-15.55 15.5-29.72 23.87-44.27 5.8-10.09 11.61-20.29 15-31.49 1.85-6.22 5.15-18.48-3.18-21.77zm-13.86 23.1c-.36 4.41-1.47 9.32-5.23 12.11-.51.38-1.81 1.31-2.2 1-.72-.52-.3-2.9-.22-3.64a41.55 41.55 0 0 1 5.09-16.09c.72-1.26 1.51-2.48 2.31-3.68a54.24 54.24 0 0 1 .25 10.3z" fill="#b36e33"></path><path d="M336.67 951.31c23.29-7.44 30.37-46.68.88-56.54-30.34-10.14-48.21 27.7-31.86 47.28-9.84 7.66-7.55 23.33-6.65 34.91 1.48 19-6 37.71-6 56.79 0 3.51 5.43 5.8 7.59 2.66 10.55-15.28 9-36.31 21.95-50 9.09-9.6 21.24-21.41 14.09-35.1z" fill="#ce7e2d"></path><path d="M350.32 921a18.28 18.28 0 0 0 .06-7.22c-.61-2.73-2.38-5.83-5.56-5.88a1.54 1.54 0 0 0-1.43 2.4 12.64 12.64 0 0 1 1.12 1.94 6.29 6.29 0 0 1 .48 1.11.58.58 0 0 0 0 .1 4.1 4.1 0 0 1 .1.48 10.41 10.41 0 0 1 .12 1.47 26.62 26.62 0 0 1-.58 5.34c-.85 4.21-2.45 8.24-3.73 12.33a7.09 7.09 0 0 0-.37 3.76c.13.63-.19-.23.15.61a2.14 2.14 0 0 0 .35.58 1.45 1.45 0 0 0 1.82.51c.34-.16.43-.41.68-.65l.12-.35.28.27-.36.33a1.81 1.81 0 0 0 .79-.5 3.17 3.17 0 0 0 .8-1.08c.57-1.12 1.05-2.3 1.55-3.46a54.77 54.77 0 0 0 3.61-12.09z" fill="#231f20"></path><path d="M340.39 943.91a2.3 2.3 0 0 0-.05-1.73l-.3-.48a1.65 1.65 0 0 0-.67-.53 2.13 2.13 0 0 0-1.42-.26l-.55.17a2.22 2.22 0 0 0-.87.71c-.22.25-.46.47-.67.72a6.52 6.52 0 0 0-.67 1.06l-.63 1.18a1.69 1.69 0 0 0-.31.83 1.75 1.75 0 0 0 0 .91 2.35 2.35 0 0 0 1 1.42 2.31 2.31 0 0 0 1.74.32 2.53 2.53 0 0 0 1.42-1l.64-.89.29-.39c.05-.07.11-.13.15-.2a3.36 3.36 0 0 0 .63-1.25c-.07.2-.14.39-.22.58.1-.38.31-.78.49-1.17z" fill="#231f20"></path><path d="M324 973.06c-3.51 6.74-6.38 13.77-9.26 20.8-1.5 3.65-3 7.31-4.42 11-1.28 3.32-3.38 7-3.19 10.61a1 1 0 0 0 1.69.77c2.68-2.72 3.67-7.14 5-10.65s2.61-6.73 3.94-10.09c2.84-7.2 5.86-14.31 8.53-21.57.62-1.54-1.56-2.26-2.29-.87z" fill="#231f20"></path><path d="M307.9 1022.36a1.05 1.05 0 0 0-.07-.76 1 1 0 0 0-.59-.49 1 1 0 0 0-.77.07 1.24 1.24 0 0 0-.49.59c-.24.56-.51 1.1-.71 1.67l-.23.7-.12.35a1.74 1.74 0 0 0-.11.39 2.09 2.09 0 0 0 .15.95.92.92 0 0 0 .43.44.57.57 0 0 0 .23.08.72.72 0 0 0 .36 0c.11.11.52-.26.61-.33a1.43 1.43 0 0 0 .42-.53c.05-.14.09-.29.14-.43l.29-.87a16.49 16.49 0 0 0 .46-1.83z" fill="#231f20"></path><path d="M811 227.07c0 6.23 6.18 10 11.37 6 3.08-2.39 5.2-5.94 7.18-9.23.95-1.59 1.87-3.21 2.83-4.79-.17 3.92-.46 7.86.32 11.71.37 1.85 1.25 4 3.43 4.23 2.5.22 4.73-2.41 6-4.24 4.71-6.8 5.42-16.32 6.11-24.31a247.52 247.52 0 0 0 .66-31.64c-.28-6.78-.7-13.56-1-20.33-.36-7.51-.07-15-.42-22.52-.05-1.31-2.06-1.27-2.25 0-1.6 10.7-.52 22 0 32.81s1.07 21.69.36 32.53c-.49 7.54-1 15.21-2.72 22.59-.77 3.24-1.75 6.69-3.78 9.4-.4.54-1.75 2.44-2.56 2.39-.12 0-.45-.84-.57-1.23-1.58-5.06-.16-11-.31-16.19a1.6 1.6 0 0 0-2.42-1.3c-2 1.33-3.14 3.75-4.31 5.72a80.43 80.43 0 0 1-5.61 8.84c-1.37 1.74-3.66 4.71-6.24 4-2.78-.72-2.94-3.77-2.66-6.1.92-7.65 5.06-15.07 8.45-21.86a202.54 202.54 0 0 0 10.53-26.19c4.82-14.32 8.34-29.05 9.39-44.15.16-2.25-3.33-2.19-3.49 0-1.73 24.56-9.77 49.07-20.55 71.1-3.37 6.9-7.74 14.92-7.74 22.76z" fill="#b36e33"></path><path d="M832.57 116v.41c0 2.39-.15 4.78-.19 7.16v-1.71l-.05 2.51.45 2.87v.27c0 .09.06.39.11.59a14.81 14.81 0 0 0 .89 2.76 11.17 11.17 0 0 0 3.31 4.24 14.39 14.39 0 0 0 11.91 2.14 11.23 11.23 0 0 0 6.94-5.37 19.08 19.08 0 0 0 1.95-10.11 26.52 26.52 0 0 0-1.78-8.43 5.52 5.52 0 0 0-5.82-3.25l-.17.06a5.3 5.3 0 0 0-1.8-.19 6 6 0 0 0-3.6 1.62 7.22 7.22 0 0 0-2.15-2.38 6.56 6.56 0 0 0-10 6.81z" fill="#2e384e"></path><path d="M837.83 118.82a44.19 44.19 0 0 0 31-5.52 35.59 35.59 0 0 0 4.31-1.22c9.71-3.55 16.86-11.76 21.36-20.81 6.85-13.75 8-30.91 4-45.67-10.8-40.3-59.12-47.45-85.83-17.76-27.67 30.79-19.21 82.72 25.16 90.98z" fill="#d3a1ac"></path><path d="M793 74.32c1.35 11.94 5.65 23.76 14.21 32.43a35.9 35.9 0 0 0 15.6 9.48c7.24 2.16 15 2.66 21.53 6.77a2.51 2.51 0 0 0 3.38-.82 18 18 0 0 0 9.62-3.13c8.57-2.92 16.85-8.55 23.48-14.51 7.45-6.7 12.43-15.37 15.39-24.9 6.51-21 .23-45-16.21-59.81a40.18 40.18 0 0 0-13.08-7.89 19.28 19.28 0 0 0-2.24-1.35 2.5 2.5 0 0 0-2.29 0c-15.88-3.83-33.52 1.87-47.92 10.41C796 32 790.72 54.11 793 74.32zm99.78-4.09A52.8 52.8 0 0 1 880 97.94a62.78 62.78 0 0 1-12.22 9.75 84.87 84.87 0 0 0 7.8-18.69c5.3-17.18 7.36-34.72 4-52.52a62.64 62.64 0 0 0-3.75-12.92c13.05 11.06 19.37 30.07 16.96 46.67zm-27.61-53c5 4.28 7.29 11.38 8.73 17.55a93.89 93.89 0 0 1 2.1 26.7 104 104 0 0 1-3.6 19.93c-2 7.62-4.43 15.24-8.24 22.16a35.76 35.76 0 0 1-7.55 9.89c-3.41 3-6.94 3.67-11 4a12.3 12.3 0 0 0-1.17-.68c-.16-.3-.32-.6-.47-.9 11-12.67 13.85-31.71 16.53-47.63 2.89-17.12 5.83-35.88-.56-52.58a34.14 34.14 0 0 1 5.24 1.51zm-20.33 21.51c1-5.15 1.94-10.3 2.7-15.49A57.38 57.38 0 0 0 848.7 15a44.87 44.87 0 0 1 5.68-.08c6.4 17.7 4 35.5.9 53.6-2.58 15-5.72 29.7-13.32 42.85-5.11-13.85-3.57-29.67-1.86-44.09 1.13-9.59 2.9-19.06 4.74-28.54zm-2.28-16.65c-.86 6.25-2.07 12.45-3.24 18.65-1.81 9.58-3.49 19.15-4.52 28.85a148.83 148.83 0 0 0-.87 26.61c.34 4.68 1 10.56 3 15.44-7-2.18-10.7-11.42-12.68-17.76a101.54 101.54 0 0 1-4.14-23.66A80.4 80.4 0 0 1 823 44.77a56.4 56.4 0 0 1 7.09-16.58c3.11-4.69 7.28-7.75 11.35-11.49a2.36 2.36 0 0 0 .52-.7c.45-.09.89-.2 1.33-.28q-.29 3.2-.73 6.37zm-34.09 10.67c5.38-6 13.59-10.22 21.49-13.19a49.66 49.66 0 0 0-9.51 15.23 88.15 88.15 0 0 0-5.89 28.39c-.7 13.08 2 28 7.78 39.76a25.36 25.36 0 0 0 7 9 44.44 44.44 0 0 1-10.59-3.42c-8.55-4.36-14.58-13.24-17.7-22.07-5.96-16.87-5-39.75 7.42-53.7z" fill="#2e384e"></path><path d="M361.36 61.81a1.7 1.7 0 0 0 1.76 2.44c9.68-1.63 19.78.54 29.13 3a299.48 299.48 0 0 1 28.6 9.52c11.83 4.46 23.92 8.91 35.5 14.31a72.73 72.73 0 0 1 16.45 19c4.69 8 11.66 17.55 22.42 15.82 9.18-1.47 1.88-11.94-1.37-15.55-7.78-8.63-18.86-14.66-29.1-19.82-1.77-.89-3.58-1.7-5.37-2.54a116 116 0 0 0-16.23-11 244 244 0 0 0-28.8-14.17c-19-7.66-44.71-11.62-63.5-1.24-2.08 1.16-.58 4.4 1.61 3.37a55.18 55.18 0 0 1 8.9-3.14zm124.21 46.69a35.37 35.37 0 0 1 8.55 9.21c.43.71 1.91 2.85 1.4 3.73-.68 1.17-5.41-.08-6.1-.28-5.45-1.54-8.81-6.19-11.59-10.81a97.5 97.5 0 0 0-8.34-12.54 127.12 127.12 0 0 1 16.08 10.69zm-45.82-28.83q-5.43-2.11-10.9-4.14c-11.06-4.1-22.11-8.31-33.51-11.4-8.88-2.41-18.39-4.4-27.69-3.74 15.83-2.54 32.86.88 47.23 7.14a254.59 254.59 0 0 1 24.87 12.14z" fill="#b36e33"></path><path d="M294.27 85c25.85 4.26 51.08-18 48.62-44.47-2.52-27-30.34-46.81-56.53-38.64-22.95 7.11-36.64 33.02-26.44 55.52A46.33 46.33 0 0 0 269.36 71c6.64 7.19 15.5 12.42 24.91 14z" fill="#a1b4c2"></path><path d="M357.66 80.28a20.84 20.84 0 0 0 4.76-1.73 18.69 18.69 0 0 0 10-15.52c.48-6.48-3.19-12.38-7.34-17a13.86 13.86 0 0 0-11.48-4.15 19.49 19.49 0 0 0-6.68-.23 12.9 12.9 0 0 0-8.66 2.63 12.1 12.1 0 0 0-4 5.21 21.08 21.08 0 0 0-2.82 19.2c3.8 10.48 16.44 15.69 26.22 11.59z" fill="#2e384e"></path><path d="M298.9 76.45a41.58 41.58 0 0 0 6.07.92c5.62.35 11.88-.8 15.88-5a3.35 3.35 0 0 0 .37-4.35A3.31 3.31 0 0 0 317 67a14.05 14.05 0 0 1-2.49 1.23l-.68.26h-.16a17.46 17.46 0 0 1-2.68.6 28.12 28.12 0 0 1-6.08-.16c-4.62-.5-8.81-2.21-13.61-2.35a3.39 3.39 0 0 0-3.21 2.45 3.47 3.47 0 0 0 1.5 3.76c2.68 2.02 6.08 2.96 9.31 3.66z" fill="#d3cfc6"></path><path d="M276.91 67.21l2 .75a2.75 2.75 0 0 0 2.07-.17 2.8 2.8 0 0 0 1.23-1.29 2.74 2.74 0 0 0-1-3.48l-1.52-1a27.76 27.76 0 0 0-4.54-2.83 3.63 3.63 0 0 0-2.63-.27 3.41 3.41 0 0 0-.64 6.25 29.33 29.33 0 0 0 5.03 2.04z" fill="#d3cfc6"></path><path d="M351.14 79.21a16.15 16.15 0 0 0 3.4-.27c2.37-.48 5.2-1.56 6-4a3.19 3.19 0 0 0-1-3.65l-3.05-1a6.17 6.17 0 0 0-.86 0 7.31 7.31 0 0 0-1.05.07l-.62.06a32.46 32.46 0 0 1-4.52 0c-.86-.16-1.71-.34-2.56-.49l-1.17-.26a5.23 5.23 0 0 0-3.76.8 2.82 2.82 0 0 0-1.35 2.65 5.48 5.48 0 0 0 3.24 4.45 12 12 0 0 0 3.78 1.32 24.43 24.43 0 0 0 3.52.32z" fill="#6d773f"></path><path d="M344.46 77.87l-.62-.35c-.11-.06-.21-.09-.33-.15z" fill="#6d773f"></path><path d="M770.41 859.64c-22.79-8.52-47.43-2.54-63 16.23a49.83 49.83 0 0 0-3.79 57.49c10.53 16.89 32.62 25 52 23.48 21.94-1.75 37.93-17.79 43.23-38.64 5.73-22.66-5.85-50.13-28.44-58.56z" fill="#d3a1ac"></path><path d="M773.08 814c1.64-5.2 3.82-10.42 4.33-15.9.23-2.65.34-6.55-2.1-8.32-2.27-1.64-5.22-.33-7.18 1.48a14.72 14.72 0 0 0-.79-1.76c-1.23-2.3-3.78-3.88-5.84-1.47a14.67 14.67 0 0 0-2.55 5.71 47.87 47.87 0 0 0-1.7 11.28 67 67 0 0 0 2.31 18.24c.26 1 .53 2.07.81 3.11.73 0 1.45 0 2.18.07-.23-1.09-.47-2.17-.71-3.25a84.91 84.91 0 0 1-2.13-13.19c-.37-6.05.08-12.75 2.47-18.41a9 9 0 0 1 1-1.81 5.12 5.12 0 0 1 .42-.45l.24-.15h.19s.08 0 .17.1a2.29 2.29 0 0 1 .23.21 1.89 1.89 0 0 1 .32.39 11.56 11.56 0 0 1 1.58 3.56c-2.05 3.36-3 8-1.68 11.69a1.24 1.24 0 0 0 1.45.86c3-.55 3.41-4.45 3.4-6.88a23.54 23.54 0 0 0-.64-5.43c1.51-1.75 4.44-3.87 5.76-1.42 1.22 2.28.74 5.62.26 8-.95 4.82-2.82 9.42-4.27 14.1a44.89 44.89 0 0 0-1.93 9.36 29 29 0 0 0-.12 3.37c.72.12 1.49.27 2.28.46a26.15 26.15 0 0 1 .08-3.43 45.45 45.45 0 0 1 2.16-10.12zm-6.54-11.2a12.1 12.1 0 0 1 .47-5.5v.15a14 14 0 0 1-.16 4.33 5.31 5.31 0 0 1-.31.99z" fill="#6c525b"></path><path d="M776.92 867.33a11.56 11.56 0 0 0 2.73-6.46c.08-.56.14-1.13.19-1.7.11-1 .22-2.07.42-3.1.16-.82.34-1.63.53-2.44s.37-1.61.52-2.42c.62-3.17 1-6.46 1.28-9.64v-.27c.26-2.51.61-5.94-.61-8.85-.8-1.91-2.78-3.34-6.23-4.51a52.17 52.17 0 0 0-11.18-2.36c-4.23-.43-10.14-.58-14.3 1.2s-5.18 5.92-6.07 9.28l-.2.75a70.34 70.34 0 0 1-2.67 7.51c-.8 2-1.63 4.07-2.28 6.15-.52 1.69-.93 3.44-1.32 5.14l-.15.63a12.15 12.15 0 0 0-.48 3.64 4.37 4.37 0 0 0 2 3.23 6 6 0 0 0 4.39.8 8 8 0 0 0 3.8-1.89l.61-.55.23.77a5.89 5.89 0 0 0 5.38 4.33 5.53 5.53 0 0 0 5.48-2.41l.54-.7.34.83a3.51 3.51 0 0 0 3.49 2.16 6.81 6.81 0 0 0 5.16-2.53l.61-.69.28.87a6.44 6.44 0 0 0 1.8 2.94 4.82 4.82 0 0 0 3.2 1.44 3.34 3.34 0 0 0 2.51-1.15z" fill="#2e384e"></path><path d="M755.92 875.73l3.26 18a1.25 1.25 0 0 0 1.37 1 124.5 124.5 0 0 1 21-.86 1.25 1.25 0 0 1 1 1.91c-3.25 5.18-7.24 8.42-11.39 14.46-.83 1.2-2.47 2.85-2.81 4.27a41 41 0 0 0-.39 6.07c.07 7.11 1.38 12.8 1.64 19.69a1.25 1.25 0 0 1-1.63 1.25 73 73 0 0 1-24.4-13.72 2.55 2.55 0 0 0-3.13-.73 161.9 161.9 0 0 1-21.42 5 1.25 1.25 0 0 1-1.26-1.88l10.93-18a2.83 2.83 0 0 0 .51-1.28 2.92 2.92 0 0 0-.64-1.64 86.14 86.14 0 0 1-11.25-24.89 1.26 1.26 0 0 1 1.64-1.48 149.49 149.49 0 0 1 14.46 5.63c2.53 1.13 4.93 2.2 6.61 1.17 1.91-1.17 3.16-3.24 4.64-5 1.73-2 3.48-4 5.27-6 .41-.45 2.37-2.19 3.82-3.68.76-.66 2.04-.92 2.17.71z" fill="#6c525b"></path><path d="M742 900.53l-.08.13.06-.09c.08-.04.09-.07.02-.04z" fill="#050700"></path><path d="M743.27 901.17v-.15a.68.68 0 0 1 0-.14v-.14s-.05-.08-.06-.09l-.07-.07h-.48a.67.67 0 0 0-.28 0l-.13.07a.72.72 0 0 0-.19.24v.15a.76.76 0 0 0 0 .15.83.83 0 0 0 0 .15l.08.13a.27.27 0 0 0 .07.08l.08.08.16.1.15.05h.34l.13-.06s.18-.15.13-.1v-.11l.06-.13a.59.59 0 0 0 .01-.21z" fill="#050700"></path><path fill="#050700" d="M754.89 905.07z"></path><path d="M754.73 905.16a.5.5 0 0 0 .14-.08l-.17.09z" fill="#050700"></path><path d="M755.17 904.69a.5.5 0 0 0 0-.21v-.14a.39.39 0 0 0-.12-.19.31.31 0 0 0-.11-.09.39.39 0 0 0-.21-.08h-.14a.63.63 0 0 0-.27.1l-.15.1a.49.49 0 0 0-.14.18.57.57 0 0 0-.07.22.42.42 0 0 0 0 .22.44.44 0 0 0 .1.19l.11.11a.51.51 0 0 0 .29.1h.14a.66.66 0 0 0 .27-.12 1.53 1.53 0 0 0 .18-.18.47.47 0 0 0 .12-.21z" fill="#050700"></path><path d="M749.59 908.91c-.64 1.28-1.18 2.62-1.89 3.87-.48.86-1.53 2.41-2.7 1.61-.93-.62-1-2-.87-3 .14-1.41.6-2.79.64-4.2 0-.26-.41-.37-.51-.12a12.75 12.75 0 0 0-.56 2.1c-.12.57-.25 1.14-.35 1.71a5.44 5.44 0 0 0 .19 3.07 2.33 2.33 0 0 0 2.44 1.55 3.83 3.83 0 0 0 2.53-2.17 18.67 18.67 0 0 0 1.87-4.09.43.43 0 0 0-.79-.33z" fill="#050700"></path><path d="M758.73 907.49a1.41 1.41 0 0 0-1-.76 3.57 3.57 0 0 0-2 .13 2.91 2.91 0 0 0-.48.21 1.54 1.54 0 0 0-.81.24 2.66 2.66 0 0 0-.46.35 2.76 2.76 0 0 0-.69 1 1.23 1.23 0 0 0 0 1.27 1.57 1.57 0 0 0 1.13.47 4.74 4.74 0 0 0 4-1.55 1.34 1.34 0 0 0 .31-1.36z" fill="#f3c1bf"></path><path d="M740.78 903.47a4 4 0 0 0-.72-1.79 1.6 1.6 0 0 0-.93-.74.88.88 0 0 0-.79.23 1.69 1.69 0 0 0-.37.7 5.17 5.17 0 0 0-.21 2.14 5.3 5.3 0 0 0 .25 1.1 2.4 2.4 0 0 0 .55 1 1 1 0 0 0 .74.28.77.77 0 0 0 .27.07c.52 0 .8-.38 1-.81a4.37 4.37 0 0 0 .21-2.18z" fill="#f3c1bf"></path><path d="M796.69 905.74c.27-7.24-2.3-14.49-5.8-20.75a.79.79 0 0 0-1.48.52c.83 3.69 2.23 7.21 3.15 10.87a32.17 32.17 0 0 1 .92 9.82 54.27 54.27 0 0 1-1.63 9.82c-.42 1.67-.92 3.31-1.42 5-.46 1.48-1.52 3.42-.82 4.92a.93.93 0 0 0 1 .44c1.61-.59 2.15-2.83 2.72-4.28a43.48 43.48 0 0 0 1.65-5.15 52 52 0 0 0 1.71-11.21z" fill="#dab0b9"></path><path d="M789.45 930.54c-.11-.22-.42-.52-.7-.48-.93.14-1.32 1.28-1.63 2-.2.45-.42.9-.65 1.34l-.56 1.06a2.71 2.71 0 0 0-.58 1.51 1.09 1.09 0 0 0 1.36 1l.71-.38.05-.07a.76.76 0 0 0 .11-.14 5.39 5.39 0 0 0 .33-.5l.32-.55a16 16 0 0 0 .72-1.64c.15-.36.29-.73.41-1.11.06-.22.12-.44.16-.67a2.23 2.23 0 0 0-.05-1.37z" fill="#dab0b9"></path><path d="M777.85 844.59q.36-4.33.85-8.65a.32.32 0 0 0-.61-.16 51 51 0 0 0-1.28 8.87c-.12 1.36-.26 2.73-.45 4.08s-.54 2.81-.79 4.22a.52.52 0 0 0 1 .27 39.79 39.79 0 0 0 1.28-8.63z"></path><path d="M775.07 858.73c0-.34.09-.69.11-1a.29.29 0 0 0-.24-.34.3.3 0 0 0-.33.24c-.09.35-.18.7-.26 1 0 .15-.07.3-.09.45a.67.67 0 0 0 0 .46.35.35 0 0 0 .48.08.31.31 0 0 0 .13-.17v-.09a1.05 1.05 0 0 0 .06-.24c.07-.12.12-.26.14-.39z"></path><path d="M745.61 845.05a.44.44 0 0 0-.85-.15 27.69 27.69 0 0 1-1 2.64c-.15.37-.3.75-.43 1.14a2.83 2.83 0 0 0-.23 1.62.42.42 0 0 0 .71.11 4.37 4.37 0 0 0 .55-1.36c.13-.38.28-.76.42-1.13a10.72 10.72 0 0 0 .83-2.87z"></path><path d="M916 511.85c-7.13-4.58-14.41-.36-16.1 7.4-1.77 8.16 2.35 17.37 6.16 24.38 4.48 8.24 10.34 15.64 16.45 22.72a146.28 146.28 0 0 0-1.89 21.5 57.05 57.05 0 0 0 9.73 31.58 93.42 93.42 0 0 0 10.8 13c4.25 4.39 8.79 8.35 13.2 12.56.76.73 2-.44 1.37-1.27-1.55-1.89-3-3.93-4.62-5.72-2.13-2.26-4.36-4.42-6.51-6.66a99.36 99.36 0 0 1-11.43-13.8 53.61 53.61 0 0 1-8.94-30.68 129 129 0 0 1 1.6-16.72c7.23 8.14 14.74 16 22 24.17 4.6 5.16 8.92 10.76 11.41 17.27s3.07 13.6 4.48 20.4c.48 2.33 4 1.33 3.56-1-2-10.12-2.88-19.81-8.49-28.78s-13.91-16.64-21.11-24.56c-3.61-4-7.42-8-11.15-12.21 1.64-11 3.17-22 .71-32.8-1.64-7.16-4.72-16.63-11.23-20.78zm7.87 23.09c1.7 8.44.52 17.49-.6 25.93 0 .25-.07.5-.1.75-7.85-9.14-14.93-19-18.42-30.32-1.2-3.91-2.16-8.16-1-12.18s4.33-6.54 8.49-4.9c3.76 1.47 6 5.45 7.67 8.92a51.09 51.09 0 0 1 3.97 11.8z" fill="#b36e33"></path><path d="M1034.82 614c-.16-5.31-7.94-8.91-11.93-5.13-12.23 11.59-25.39 22.36-38.4 33.28a242.25 242.25 0 0 0-27.1-17.9c-4.31-2.41-9.35-.48-10.17 4.63-1.27 7.89 2.37 16.36 5 23.61 1.25 3.4 2.43 6.8 3.62 10.2-10.19 6.88-19.41 15.71-28.64 23.81a159 159 0 0 0-18.64 18.78c-4.35 5.32-2.09 11.74 4.08 14.06 11.57 4.35 24.5 2 36.14-.78 7.22-1.75 14.53-4.07 21.93-5.34.11.44.17.9.28 1.34q1.49 6 3.52 11.74c5.7 16.36 14.37 31.55 24.63 45.5 3.18 4.32 11.16 2 12.13-3 2.18-11.1 2.94-22.42 3.6-33.7.32-5.47.61-10.94 1.16-16.4.11-1.12.36-2.27.54-3.4 2.82-.53 5.65-1.2 8.47-1.55 2.39-.3 4.78-.54 7.19-.64 4.94-.22 9.89-.22 14.83-.18 9 .06 18-.22 26.85-2.17 5.9-1.31 8.3-10.22 3.51-14.13-9.06-7.39-18.9-13.76-28.83-19.91-7.19-4.44-14.33-9.08-21.61-13.41 4.53-16.11 8.35-32.39 7.84-49.31z" fill="#d7c2b9"></path><path d="M1027.36 617c-2.15 2-3.36 5-5 7.43s-3.52 4.82-5.07 7.39c-3.44 5.71-7 11.31-10.71 16.88-5.45 8.29-10.92 16.51-15.92 25.07q.15-4 .29-8a107.89 107.89 0 0 1 1.05-11.45c.31-2.23.9-5.74-1.17-7.32a2.29 2.29 0 0 0-1.52-.53 2.1 2.1 0 0 0-.74.17 16.87 16.87 0 0 0-2.67 3.2 16.17 16.17 0 0 0-.7 3.08 114.44 114.44 0 0 0-1 12.26c0 1 .1 2 .12 2.94q-3.81-5.39-7.64-10.75c-2.69-3.77-5.32-7.59-8-11.34s-5.47-8.71-9.59-10.83a.54.54 0 0 0-.77.5c.34 3.86 2.79 6.85 4.78 10.1 2.49 4.07 5.27 8 7.95 11.92s5.5 8.12 8.23 12.2c1.42 2.12 2.88 4.21 4.37 6.29-1.19-.37-2.45-.6-3.59-.86-1.85-.4-3.7-.83-5.54-1.31-3.35-.86-6.74-1.88-10-3a35.27 35.27 0 0 1-6.79-3.17c-1.16-.7-2.23 1.1-1.27 1.95a42.78 42.78 0 0 0 14.81 8.35c2.39.81 4.81 1.53 7.24 2.22 1.12.32 2.25.59 3.39.83l1.72.36a3.81 3.81 0 0 0 1.61 0c-3.79 1.83-7.82 2.83-12 4.15-5.74 1.81-11 4.84-16.82 6.45-12.11 3.35-25.48 5.92-36.56 12.06a1.4 1.4 0 0 0 .85 2.62c6-1.08 11.79-3 17.63-4.66 6.81-1.9 13.81-3.24 20.58-5.28 6-1.81 11.49-4.9 17.54-6.55 2.52-.69 5-1.44 7.34-2.3-.27.53-.53 1.06-.8 1.55-1.12 2-2.23 4.09-3.42 6.09-1.09 1.83-2.12 3.71-3.24 5.52-.86 1.4-3.5 3.9-2.58 6a2.43 2.43 0 0 0 1.92 1.44c.27 0 2.54-.34 2.26-.95.09.2 2.46-2.2 2.74-2.5.74-.84 1.46-1.7 2.15-2.57a52.65 52.65 0 0 0 3.81-5.76c.78-1.31 1.54-2.63 2.3-3.95.26 1.72.6 3.44.78 5.18.65 6.27.85 12.57 1 18.86.31 13.25 1.63 27.35 5.15 40.15.84 3 5.93 2.15 5.51-1-.94-7.06-2.53-14-3.31-21.11-.76-6.89-.62-13.79-.78-20.71-.15-6.22-.4-12.45-1.14-18.64-.12-1-.28-2.14-.43-3.22 1.18 1.55 2.34 3.1 3.46 4.69 1.52 2.17 3.09 4.29 4.73 6.36 1.46 1.86 4.7 6.28 7.12 3.06 1.19-1.59.12-3-.67-4.4a38 38 0 0 0-2.34-3.31c-1.5-2.1-3-4.19-4.59-6.21-1.8-2.26-3.65-4.46-5.6-6.58-.61-.66-1.31-1.3-2-1.95 2.66.79 5.38 1.46 8 2.31 6.22 2 12.51 3.56 18.89 5s12.91 3.1 19.26 5.06c3.17 1 6.3 2.09 9.47 3.09 2.91.92 6.69 2 9.75 1.84a1.24 1.24 0 0 0 .64-2.17c-2-1.9-5.28-3.27-7.82-4.31-3.18-1.3-6.61-2.18-9.89-3.17-6.38-1.92-12.83-3.52-19.33-4.94s-13.17-2.66-19.7-4.22c-2.77-.66-5.75-1.1-8.66-1.7.59-.24 1.21-.41 1.8-.68 2-.92 4-1.8 6.12-2.53a46.66 46.66 0 0 1 15.44-3.1 3.11 3.11 0 0 0 3.36-2.61 3.06 3.06 0 0 0-2.6-3.36c-5.58-1-11.11.2-16.37 2.13a55.63 55.63 0 0 0-7.75 3.61c-.63.35-1.18.78-1.77 1.16 6.16-8.67 12.28-17.35 18.23-26.17 3.43-5.08 6.86-10.17 10-15.41a82.14 82.14 0 0 0 3.71-7.53c1.18-2.5 3-5.11 3.41-7.86a1.61 1.61 0 0 0-2.65-1.55z" fill="#a98587"></path><path d="M210.42 256.31c4.09-3.08 8.39-5.87 12.46-9 3-2.29 7.58-5.68 7.79-9.86.22-4.39-4.16-5.81-7.75-5.09-4.14.84-7.8 3.16-11.48 5.11-7.64 4.06-15.27 8.07-22.7 12.5a220.4 220.4 0 0 0-24.84 16.64c-8.06 6.43-16.14 13.07-23.89 19.87-.9.78.2 2.19 1.22 1.66 7.34-3.79 13.51-9.73 19.84-15a206.71 206.71 0 0 1 19.71-14.32c11.64-7.5 23.81-14.16 36.12-20.49 1.78-.91 10.48-5.43 10.54-.93.05 3.37-5.62 6.87-7.91 8.53-10.79 7.77-21.49 15.69-32.39 23.31-15.52 10.85-31.52 20.92-47.18 31.55-1.67 1.13.39 3.51 2 2.39 15.32-10.41 31-20.28 46.18-30.89 7.53-5.18 14.97-10.49 22.28-15.98z" fill="#b36e33"></path><path d="M169.53 381.2c-2.69-8.45-6.92-16.3-11.28-24-2.18-3.85-4.4-7.67-6.44-11.6-2.16-4.13-4.28-8.31-6.7-12.3a45.46 45.46 0 0 0-8.43-10.81c.8-3 3.34-5.47 5.26-7.8a117.08 117.08 0 0 0 7.26-10.53c2.61-3.95 5.52-7.73 8.36-11.51 1.76-2.34 3.67-4.38 5.63-6.54 2.24-2.47 5-5.36 4.8-8.93a2.08 2.08 0 0 0-1.35-1.67c-4.28-1.37-8.75-1-13.14-.72q-8.5.49-17 1.07c-4.89.34-9.77.67-14.67.91-2.59.13-5.19.29-7.77.67-1.41.2-2.82.45-4.21.78a18.2 18.2 0 0 0-2.78.95c-2.88-3.18-5.94-6.21-8.92-9.3s-6-6.25-9.08-9.28-6.15-5.79-9.39-8.5c-3.06-2.55-6.32-4.89-9.3-7.54-2.81-2.49-5.58-5.66-9.37-6.62a2.34 2.34 0 0 0-3 1.29c-1.48 3.76-1.23 7.69-1 11.64.26 4.25 0 8.47.44 12.71.51 4.74 1.09 9.49 1.65 14.23a90.29 90.29 0 0 0 2.81 14.2c.56 1.93 1 3.91 1.52 5.87a17.91 17.91 0 0 0-4.32 1.05c-2.36.84-4.73 1.55-7.13 2.28q-8.16 2.47-16.24 5.24a173.93 173.93 0 0 0-29.21 13.23c-3.18 1.8-8.1 4.78-6 9.18a8.42 8.42 0 0 0 3.56 3.43 42.71 42.71 0 0 0 6.09 2.85c8.64 3.34 17.85 4.28 27 5.14a108.51 108.51 0 0 0 16.32.46 132.26 132.26 0 0 0 14.34-1.68c-3.32 7.35-4.32 15.84-5.3 23.73-1 8.48-2.57 17-2.53 25.6a46.41 46.41 0 0 0 2.21 14.71 2.39 2.39 0 0 0 2.78 1.79c9.67-2.54 17.32-9.07 24.38-15.84 6.07-5.82 10.79-10.66 16.52-16.82 2.51-2.69 6.57-6.24 8.43-9.41 2.06.73 4.13 1.4 6.14 2.27 2.34 1 4.63 2.14 6.94 3.24 4.56 2.16 9.25 4 13.9 6 4.17 1.78 8.17 3.81 12.21 5.87 4.35 2.22 9 4.16 13.91 4.14a2.42 2.42 0 0 0 2.1-3.13z" fill="#434c60"></path><path d="M153 367.94c-.63-2.88-2.75-5.37-4.5-7.69-2.16-2.89-4.48-5.67-6.87-8.37a136.65 136.65 0 0 0-15.11-14.65c-5.38-4.45-11.43-8-16.81-12.45-1.16-1-2.51-2.4-4-3.7 1.09 0 2.18 0 3.27.08 2.62.19 5.24.58 7.85.95 2.44.35 4.89.7 7.35.88 1.27.1 2.54.15 3.8.13 1.63 0 3.66-.06 5-1 1.8-1.25.79-3.48-.92-4.07-1.38-.49-3.45 0-4.93 0-1.17 0-2.34-.06-3.52-.15-2.46-.2-4.9-.56-7.34-.88a63 63 0 0 0-9.93-.74c1.83-1.13 3.64-2.28 5.43-3.35 4.78-2.85 9.52-5.79 14.26-8.7 8.64-5.33 17.73-10.6 25.39-17.31 1.09-.95-.28-2.63-1.49-2-9.23 4.9-17.95 10.86-26.92 16.24-4.48 2.68-9 5.28-13.47 8-3 1.78-6.21 3.47-9.13 5.49.19-.48.37-.95.52-1.4a39.52 39.52 0 0 0 1.59-7.37c.32-2.15.49-4.3.73-6.45.14-1.27.35-2.54.57-3.79.15-.85.33-1.74.53-2.58a5.51 5.51 0 0 0 .37-2.23 1.07 1.07 0 0 0-1.5-.69 4.3 4.3 0 0 0-1.64 1.95 14.14 14.14 0 0 0-1.21 2.51 30 30 0 0 0-1.18 4.06c-.51 2.22-.89 4.46-1.31 6.7-.22 1.14-.47 2.28-.76 3.41-1.09-2.72-2.32-5.38-3.47-8-2.45-5.53-5.13-11-8.1-16.27-3.17-5.62-6.56-11.1-9.53-16.84-2.21-4.27-5.15-8.22-6.55-12.86-.48-1.57-3.06-1.78-3.11.15-.13 4.59 2.78 9 4.85 12.87 2.9 5.46 5.79 10.91 8.79 16.32s5.7 11 8.22 16.64c1.88 4.23 3.42 8.77 5.34 13-2.47-.57-5-1.08-7.43-1.6-2.67-.56-5.35-1.11-8-1.82-1.22-.34-2.46-.66-3.67-1a41.87 41.87 0 0 0-4.58-1.56c-1-.2-2.39.83-1.68 2 1.79 2.87 5.86 4.29 8.94 5.26 2.86.91 5.78 1.66 8.71 2.34l3.49.83c-2.65.3-5.3.55-8 .8-5.31.48-10.63.79-16 1.06s-10.62.45-15.93.75c-4.9.28-11.21-.06-15.76 1.95-1.48.66-1.91 3.15.07 3.54 3 .58 5.95.19 8.94 0s5.75-.32 8.62-.5c5.67-.36 11.33-.63 17-1 5.3-.35 10.61-.75 15.89-1.41 3.24-.4 6.87-.73 10.32-1.44-1.22 2.84-2 6.19-2.54 7.65-2.63 7.25-5.63 14.37-8.16 21.66-2.21 6.39-4.57 12.71-6.84 19.07-1.07 3-2.09 6-3 9.08-1 3.5-2.53 7.61-1.9 11.27.34 2 3.3 2 4.1.4 1.48-3 1.81-6.64 2.73-9.85 1-3.52 2.19-7 3.43-10.42 2.37-6.63 4.66-13.27 6.93-19.93 2.17-6.35 4.76-12.58 6.77-19 .27-.84.51-1.69.75-2.54v.63c.37 2.94.75 5.84.94 8.8.23 3.47.37 6.95.39 10.42 0 3.71-.43 7.64.23 11.3a2.44 2.44 0 0 0 4.81.32c1.11-3.91.81-8.49.73-12.53-.06-3.41-.2-6.82-.51-10.22-.28-3-.79-6-1.29-9a47.92 47.92 0 0 1-.81-6.35c.72.73 1.4 1.5 2 2.19a54.4 54.4 0 0 0 7 6.36c4.52 3.6 9.38 6.75 13.77 10.52a151.8 151.8 0 0 1 13.28 13.08q3.21 3.53 6.16 7.25c2 2.46 3.72 5.74 6.3 7.54 1.33.7 3.63.02 3.24-1.74z" fill="#a1b4c2"></path></g></g></g></svg>