<svg xmlns="http://www.w3.org/2000/svg" viewBox="0.0001621246337890625 -0.005018711090087891 1080.0037841796875 2563.989501953125" style=""><g><g data-name="Слой 2"><g data-name="Слой 1"><path d="M609.31 2053.32c-15.94-10.85-41.48-15-60-18.78-24.26-5-48.88-7-73.61-7.15-5.86 0-9.89 5.1-11.52 11.14a17.15 17.15 0 0 0-1.78 7.58q-1 146 9.69 291.75 5.54 74.31 14.27 148.34c3.41 28.93.35 72.67 37.94 76.71 21.26 2.28 43.85.37 65.16-.6 22.83-1 48.19-.47 70.14-7.5 29.85-9.56 37.2-36.93 33-65.34-7.2-49-19.5-97.65-28.2-146.45q-13.38-75-24.55-150.44-6.33-42.72-12-85.55c-2.4-18.72-1.23-41.94-18.54-53.71z" fill="#435ec9"></path><path d="M1079 2101.29c-24.18-98.5-81.87-184.15-135.33-268.78-10.1-16-79.66-146.84-92.37-145.17 27-3.55 53.87-10.36 69-29.59 24.23-30.83 12.86-78.44 4.45-113-35.41-145.59-156.86-339.45-231.34-467.38-5.42-9.3-10.94-18.54-16.39-27.82q61.83-9.49 123.23-21.91c13.2-2.68 19.66-22.43 18.94-33.65-6.1-94.69-432.77-891.62-529-856.65-37.82 13.74-52.76 92.92-62.2 126.47C168.52 469.74 112 676.54 54.07 882.88c-19.72 70.19-73.89 208.86 35.46 233.89a402.76 402.76 0 0 0 52.14 7.91C97.77 1305 52.54 1485 8.53 1665.36c-7.14 29.24-18.16 71.27 7.88 95 13.36 12.15 30.93 11.48 47.72 10.58 28.48-1.53 57-3.63 85.4-5.67 3.09-.22 6.17-.48 9.25-.7l-124.57 453.2c-2.91 10.61-2.16 35.88 15.79 33.49q501.5-66.78 1005.82-108.89c19.18-1.59 27.18-24.92 23.18-41.08z" fill="#efb4d3"></path><path d="M225.07 632q-57.6 180.67-100.82 365.4c-4.29 18.34 17 26 21.37 7.16q43.19-184.62 100.81-365.38c5.81-18.18-15.51-25.52-21.36-7.18z" fill="#fff"></path><path d="M300.73 928.31l-8.79 75.88c-2.33 20.12 21.21 16.41 23.22-.88l8.84-75.87c2.28-20.12-21.27-16.44-23.27.87z" fill="#fff"></path><path d="M456.41 612.91c-6.13-18.11-26.7 1.88-22.05 15.64A1981.15 1981.15 0 0 1 520.2 990.4c2.78 20 25.58 7 23.4-8.59a2019.62 2019.62 0 0 0-87.19-368.9z" fill="#fff"></path><path d="M672 867.64q-16.87-41.24-33.76-82.46c-7.26-17.73-27.59 2.11-22.05 15.64l33.76 82.45c7.22 17.73 27.55-2.1 22.05-15.63z" fill="#fff"></path><path d="M197.64 1352.91q-21.33 137.53-49.25 273.92c-4.08 19.9 19.79 15.86 23.21-.87q27.93-136.37 49.25-273.93c3.15-20.03-20.57-16.19-23.21.88z" fill="#fff"></path><path d="M340.91 1564.58q-3 31.34-5.93 62.67c-1.91 20.13 21.57 16.51 23.21-.87q3-31.34 5.93-62.67c1.88-20.13-21.57-16.51-23.21.87z" fill="#fff"></path><path d="M608.07 1660.82q-35.24-129.35-72.84-258c-5.34-18.29-26.1 1.78-22.05 15.63q37.61 128.68 72.83 258c4.99 18.35 25.83-1.75 22.06-15.63z" fill="#fff"></path><path d="M797.93 1505.36q-22.15-50.8-48.48-99.54c-8.24-15.19-26 9.33-19.26 21.67q24.82 45.79 45.69 93.5c7.65 17.56 27.9-2.21 22.05-15.63z" fill="#fff"></path><path d="M264.74 1913.93q-22.35 116.5-44.68 233c-3.83 20 20 16 23.21-.87q22.35-116.51 44.68-233c3.83-19.96-19.95-15.96-23.21.87z" fill="#fff"></path><path d="M509.47 2030.6c-6.87-2.43-14 5-15.59 11.05-5 19.17-6.64 38.47-3.78 58.12 2.9 20 25.68 7 23.41-8.59-2.08-14.24-1.9-28.37 1.74-42.36 1.63-6.3 1.68-15.59-5.78-18.22z" fill="#fff"></path><path d="M776.38 1801.17c-6.87-17.88-27.29 2-22 15.63a1150.76 1150.76 0 0 1 68.06 270.57c2.51 20 25.36 7 23.41-8.58a1181.16 1181.16 0 0 0-69.47-277.62z" fill="#fff"></path><path d="M384.32 84a492.8 492.8 0 0 0-58.94 18.68 676.93 676.93 0 0 0-18.76-95.35c-1-3.64-4.89-8-9.13-7.25-17.2 3-23.37 17.08-24 33.67-1 24.31 2.61 49.81 5.42 74.59a336.24 336.24 0 0 0-55.08-1.83c-17.7.92-43-.65-49.78 19.67-5.26 15.68 3.75 27.79 19.18 30.72 14.15 2.69 31 .24 45.41.19l30.56-.11c-18.69 23-34.7 47.69-42.51 77.09-2 7.49-1 18.09 8.79 18.64 16.82 1 27.24-10 36.2-23.16 11-16.11 20.74-33.29 30.6-50.26a303.68 303.68 0 0 0 71.57 61c11.44 7 23.36-10.58 18.6-21-12.25-26.75-28.49-49.65-49.61-68.91A186.72 186.72 0 0 0 392.22 109c6.78-8 7.36-28.77-7.9-25z" fill="#f25c4b"></path></g></g></g></svg>