<svg xmlns="http://www.w3.org/2000/svg" viewBox="-0.017425537109375 -0.017279544845223427 1080.0816650390625 1025.4541015625" style=""><g><g data-name="Слой 2"><g data-name="Слой 1"><path d="M1080 425.9c-4.88-21.79-27.38-34.1-48.43-34.88-7.22-.27-15.72 2.94-22.62 5.09 10.36-11.57 20.73-25 27.24-39.53 6.21 10 22.12 1.39 30.33-1.9a2.15 2.15 0 0 0 1.49-2.13c-1.89-13.13-19.49-9.52-28.72-3.87a71.76 71.76 0 0 0 2.82-11.11c7.57-7.76 9.5-20.43 10.23-30.74 1.25-17.67-10-32.77-19.91-46.17a2.15 2.15 0 0 0-3-.6 2.21 2.21 0 0 0-.71.78c-5.59 12.49-9.92 25.17-10.06 39-.15 15 9 26.28 18 37.21l.09.07a2.36 2.36 0 0 0 .66 2.7c-2.62 12.77-9.2 25-17.37 36.33.92-4.8 0-10.69-.55-14.32-1.79-11.73-8.56-23.24-19-29.12-1.52-.86-3 .51-3.08 2-1.07 18.23.1 34.7 15 46.56a2.32 2.32 0 0 0 2.15 2c-4.42 5.5-9.12 10.73-13.8 15.65-2 1-3.63 2.34-4.08 4.17-3.34 3.4-6.65 6.69-9.79 9.73-4.73 4.59-10.11 9.07-15.69 13.6 1.86-5.25 2.09-11.53 2.38-16.46.9-15.27-6.56-28.29-13.14-41.52-.77-1.54-3-1.09-3.69.18-9.57 16.92-19.11 54.88 4.11 66.2-8 6.61-15.88 13.56-22.38 21.23.61-7.36 1-14.8 1-22.34 0-19-2.16-38.61-7.39-57.15a225.56 225.56 0 0 0-14.05-37.46 130.1 130.1 0 0 1 3.19-34.63c18.73 2.72 42.11-8.09 48.24-25.16a2.22 2.22 0 0 0-1.63-2.67 2.48 2.48 0 0 0-.54-.06c-13.69.72-30.85 4.5-42.21 13.36.45-1.45.89-2.9 1.36-4.34 4.32-13.21 10.73-26.11 12.91-39.85 1.1-7 1.61-14.07 2.33-21.12 31.24-16 18.08-48.93 3-72.51a2.36 2.36 0 0 0-3.26-.72 2.48 2.48 0 0 0-.26.19c-13.41 11.08-19.86 33.57-14.37 49.95.84 2.49 5.46 18.24 10.71 21.57-.89 9.45-1.43 19-3.9 28.13-.43 1.56-1 3.08-1.45 4.63-3.34-14.88-18.44-22.38-31.66-30a2.21 2.21 0 0 0-3 .72 2.17 2.17 0 0 0-.29 1.59c3.29 17 15.52 28.76 32.56 34.4h.33c-3.88 11.22-8.53 22.22-11.5 33.76v.07a29 29 0 0 0-1.78 2.64 2 2 0 0 0 .54 2.63A148.33 148.33 0 0 0 913.5 330c-1.16-2.22-2.27-4.47-3.48-6.63a464.85 464.85 0 0 0-29.31-46.6c-5.43-7.11-10.44-14.34-15.93-21l-8.1-9.62c0-1.26.05-2.59 0-3.8-.24-16-.27-32.06-.63-48.09v-3.18c6.78 2.27 14.52.73 20.33-3.3 3.65-2.54 8.1-8.41 4.38-12.71-3.24-3.75-9.14-3.74-13.59-2.85a17.5 17.5 0 0 0-11.46 8.23c-.24-5.08-.62-10.84-1.28-16.17 8.37-3.43 7.85-13.14 6.33-21-2.6-13.37-13.37-24.15-25-30.32a2.15 2.15 0 0 0-2.93.83 2.08 2.08 0 0 0-.27 1c-.77 17.62-.89 39 16.79 48.44a2.44 2.44 0 0 0 .46.14c.59 4.24 1.17 8.3 1.24 9.62.72 11.73.89 23.5 1 35.25-8.3-11.29-20.27-24.49-35.3-18.86a2.14 2.14 0 0 0-1.49 2.61c5 13.86 21.37 30.81 36.88 22.43q.15 13.35.33 26.71l-3.94-4.69c-10.74-12.1-21.11-23.68-31.5-33.57-5.12-5-10.61-9.26-15.52-13.59l-15.14-10.68-14.27-8.21c-4.21-2.37-8.32-3.95-12-5.67 6.45-14.52-3.65-30.52-16.13-38.16-16-9.8-37.75-2-52.94 5.43a2.9 2.9 0 0 0-1.49 3.81 3.07 3.07 0 0 0 .31.53c13.06 20 39.91 51.2 64.47 29.93l.43.24a3 3 0 0 0 1.9 1c.37.21.71.37 1.09.59 3.55 2 7.7 4 11.78 6.68l13.26 8.59 14.34 11.19c3 2.79 6.16 5.6 9.35 8.53-6.46.38-12.87.91-19.44.27a49 49 0 0 1-5.4-.89 2.43 2.43 0 0 0-1.65-1.24 1.83 1.83 0 0 0 .09-2.57l-.09-.09c-15-16.63-33-16-52.82-8a2.4 2.4 0 0 0-1.52 2.49 475.78 475.78 0 0 1-11.26-4.13q-16.9-8.68-34.66-15.78a387.16 387.16 0 0 0-46.8-18.81 98.15 98.15 0 0 1-10.76-29.15c14.1-4.13 27.07-19.46 25.84-33.66a1.74 1.74 0 0 0-2-1.39 1.87 1.87 0 0 0-.4.13c-9.42 5-20.3 13.24-25.43 23.27-.15-1.19-.31-2.37-.45-3.56-1.25-10.83-.92-22.14-3.85-32.68-1.5-5.37-3.44-10.6-5.23-15.88 16.83-21.59-3.17-40.9-21.47-52.89a1.83 1.83 0 0 0-2.52.51 1.57 1.57 0 0 0-.14.25c-5.85 12.28-3.08 30.48 6.12 40.42 1.41 1.51 9.79 11.29 14.58 12 2.45 7 5.16 14 6.4 21.4.21 1.26.32 2.53.49 3.79-7.2-9.58-20.3-10-32.11-11.22a1.73 1.73 0 0 0-1.91 1.53 1.69 1.69 0 0 0 .32 1.21c7.87 11.13 20.31 15.55 34.16 14.07a1.21 1.21 0 0 0 .25-.08c.91 9.3 1.22 18.68 2.88 27.9v.06c-.17.81-.3 1.64-.39 2.47a1.57 1.57 0 0 0 1.23 1.71 108 108 0 0 0 9.81 28.3 370.54 370.54 0 0 0-43.74-11q-8.22-1.42-16.51-2.32c-7-7.25-13.07-15.71-18.52-23.78a356.19 356.19 0 0 0-26.33-34c10.77-7.9 18.8-16.4 23.35-29.17 5.6-15.74 2.53-33.81 2.79-50.11A2.15 2.15 0 0 0 547.49 0a2.19 2.19 0 0 0-.92.08c-22.11 3.17-36.12 24.66-38.52 45.59-.83 7.17 1.72 15.9 3.33 22.94C500.64 57.44 488 46.1 474.06 38.45c10.45-5.42 3.11-22 .46-30.39a2.15 2.15 0 0 0-2-1.64c-13.24.87-11 18.69-6.08 28.33a70.71 70.71 0 0 0-10.86-3.65c-7.16-8.15-19.64-11-29.87-12.58-17.52-2.61-33.45 7.45-47.56 16.29a2.14 2.14 0 0 0-.85 2.91 2.05 2.05 0 0 0 .74.78c12 6.54 24.33 11.84 38.09 13 14.91 1.31 26.89-7 38.48-15.07l.08-.08a2.37 2.37 0 0 0 2.74-.45C470 39.5 481.66 47 492.31 56c-4.71-1.28-10.65-.84-14.32-.56-11.83.88-23.83 6.75-30.5 16.67-1 1.45.28 3 1.76 3.22 18.09 2.48 34.6 2.59 47.58-11.38A2.31 2.31 0 0 0 499 62c5.13 4.82 10 9.91 14.53 15 .84 2.09 2 3.8 3.84 4.39 3.13 3.6 6.16 7.15 8.94 10.51 4.22 5.08 8.27 10.79 12.36 16.7-5.1-2.27-11.34-3-16.23-3.65-15.16-2.08-28.71 4.36-42.41 9.89-1.6.65-1.32 2.88-.11 3.7 16.13 10.85 53.24 23.29 66.32 1a203.75 203.75 0 0 0 15 19.3q-11.81-1-23.67-.87a475.72 475.72 0 0 0-52 3.29q-17 1.07-33.81 3.62a233.85 233.85 0 0 0-29.08 6.7c-3.19-.74-6.36-1.58-9.49-2.57 4.16-18.46-4.82-42.6-21.36-50a2.22 2.22 0 0 0-2.83 1.39 2.35 2.35 0 0 0-.1.58c-.34 13.71 2.1 31.1 10.06 43.12-1.41-.56-2.83-1.12-4.22-1.7-12.78-5.42-25.17-12.81-38.7-16-6.88-1.64-13.91-2.7-20.88-4-13.53-32.38-47.39-21.8-72.06-8.61a2.38 2.38 0 0 0-1 3.21 2.33 2.33 0 0 0 .17.26c10 14.22 31.95 22.4 48.7 18.19 2.55-.65 18.6-4 22.33-9 9.35 1.61 18.78 2.89 27.74 6.07 1.53.54 3 1.2 4.51 1.8-15.1 2.18-23.74 16.65-32.37 29.25a2.21 2.21 0 0 0 2.05 3.49c17.24-2 29.87-13.25 36.82-29.8a1.91 1.91 0 0 0 .06-.33c10.9 4.74 21.51 10.22 32.78 14.08h.11a28.29 28.29 0 0 0 2.49 2 2 2 0 0 0 2.67-.33c1.52.48 3.05.93 4.58 1.37-30.08 9.75-58.19 23.78-75 32.92a281.64 281.64 0 0 0-30.37 19.17l-11-.66-3.18-.2c2.79-6.59 1.85-14.42-1.72-20.52-2.25-3.84-7.76-8.73-12.33-5.36-4 2.95-4.44 8.83-3.89 13.34a17.43 17.43 0 0 0 7.32 12.06c-5.09-.16-10.86-.22-16.22 0-2.78-8.62-12.5-8.85-20.42-7.93-13.52 1.56-25.11 11.45-32.15 22.58a2.14 2.14 0 0 0 .6 3 2 2 0 0 0 1 .35c17.36 2.11 38.41 3.85 49.3-12.58-.06.2-.14.38-.19.58-.37 1-.31 2.8-.68 4.54-.18 3.46-1.62 9.09-4.71 15.48a119.63 119.63 0 0 1-14.42 21.82c-6.42 8-14.13 16.61-22.64 26.52s-17 20.69-26 32.49c-1.87 2.43-3.81 5-5.71 7.54-11.69 3.64-24.07 3.91-36.3 2.25.79-13.34-8.36-29.15-20.9-32.45a1.58 1.58 0 0 0-1.8 1.31 1.6 1.6 0 0 0 0 .38c1.35 9.59 5.1 21.43 12.12 28.9-1.06-.22-2.12-.45-3.18-.7-9.66-2.25-19.25-6-29.17-6.72-5-.36-10.14-.3-15.2-.39-13.33-21-36-9.82-51.87 2.16a1.65 1.65 0 0 0-.35 2.31 1.12 1.12 0 0 0 .18.2c8.72 8.78 25.16 12 36.49 7.16C84 322.8 95 318.62 97 314.72c6.79.07 13.59-.11 20.29 1.09 1.14.2 2.26.5 3.39.74-10.41 3.23-14.82 14.3-19.45 24a1.58 1.58 0 0 0 1.86 2.21c11.94-3.33 19.54-12.62 22.52-24.94v-.24c8.24 2.07 16.37 4.69 24.77 6.09a20.34 20.34 0 0 0 2 1.1 1.4 1.4 0 0 0 1.84-.54c11.81 1.66 23.64 1.6 35-1.19-6.34 8.38-12.73 17-19 26.3-4.24 6.31-8.3 12.76-12.24 19.48-10 5.71-21.65 9.07-32.5 11.85a323.59 323.59 0 0 0-37.24 12.11c-3.43-11.68-8.26-21.13-17.8-28.94-11.75-9.63-28.17-12.53-42-17.76a2 2 0 0 0-2.54 1.25 2 2 0 0 0-.08.33c-4.06 19.9 10 38.49 27.23 47 5.88 2.9 14.14 3.4 20.67 4.18-12.91 5.75-26.53 13.08-37.32 22.69-1.44-10.61-17.84-9.39-25.88-9.71a2 2 0 0 0-2 1.22c-3.31 11.6 12.64 15.15 22.4 13.89a65.85 65.85 0 0 0-6.55 8.17c-9.17 3.6-15.48 13.4-19.92 21.69-7.61 14.2-3.88 30.92-.64 45.72a2 2 0 0 0 2.33 1.6 2 2 0 0 0 .84-.37c9.28-8.29 17.59-17.21 22.84-28.62 5.69-12.37 2.29-25.17-1.1-37.58a.11.11 0 0 0 0-.09 2.17 2.17 0 0 0 .45-2.48C36 425.34 46 417.62 57 411.26c-2.54 3.65-4 8.87-4.87 12.09-2.87 10.41-1.53 22.48 4.92 31.23a2 2 0 0 0 2.82.14 2.07 2.07 0 0 0 .48-.65c7.67-14.74 12.82-28.84 4.85-44.24a2.12 2.12 0 0 0-1-2.44c5.71-2.92 11.56-5.52 17.28-7.86 2-.08 3.87-.59 4.93-1.95 4-1.57 8-3.07 11.74-4.43 5.64-2 11.77-3.77 18.09-5.46-3.5 3.67-6 8.8-8.1 12.78-6.43 12.34-5.07 25.92-4.53 39.35.06 1.57 2.06 2 3.13 1.23C121 430.56 143 402.6 127.93 384.57c9.13-2.49 18.21-5.35 26.46-9.3-3.24 5.88-6.35 11.9-9.14 18.16a192.94 192.94 0 0 0-15.12 50.2 204.4 204.4 0 0 0-2.26 36.37 118.09 118.09 0 0 1-15.53 27.57c-14.53-9.23-38-8.95-49.39 2.94a2 2 0 0 0 .34 2.81 1.76 1.76 0 0 0 .44.26c11.63 4.5 27.28 7.74 40 4.61-.91 1-1.82 2.08-2.75 3.1-8.47 9.33-18.59 17.65-25.5 28.25-3.52 5.39-6.58 11.08-9.8 16.66-31.88 1.66-33.19 34-29.46 59.07a2.15 2.15 0 0 0 2.45 1.73l.27-.06c15.25-4.22 29-20.49 30.5-36.13.23-2.38 2.25-17.17-.87-21.89 4.25-7.51 8.23-15.19 13.7-21.89.93-1.14 2-2.2 2.92-3.31-2.76 13.6 7 25.44 15.13 36.69a2 2 0 0 0 2.77.56 2 2 0 0 0 .85-1.25c3.61-15.37-2.19-29.64-14.23-40.66a2.26 2.26 0 0 0-.26-.16c7.4-7.88 15.34-15.28 22.1-23.75v-.05a24.1 24.1 0 0 0 2.45-1.5 1.78 1.78 0 0 0 .53-2.38 135.46 135.46 0 0 0 13.7-22.05c.14 2.27.22 4.55.42 6.8a422.48 422.48 0 0 0 7 49.58c.24 1 .48 2.08.71 3.12a367.29 367.29 0 0 0 3.9 40.15c-5 11.44-10 22.84-14.84 34.33l-1.14 2.65a21.29 21.29 0 0 0-18.1-4.8c-4 .74-9.85 4-8.36 8.91 1.29 4.32 6.19 6.51 10.22 7.43a15.87 15.87 0 0 0 12.57-2.58c-1.69 4.31-3.51 9.24-5 13.9-8.22-.26-11.4 8-13 15.05-2.82 12.06 2.11 25 9.48 34.46a2 2 0 0 0 3.33-.33c7.19-14.34 15.22-32 4.07-46.45a3.11 3.11 0 0 0-.33-.29c1.09-3.74 2.12-7.32 2.55-8.44 3.77-10 8-19.84 12.26-29.65 2.4 11.19 6.71 24.74 18.11 28.07a402.17 402.17 0 0 0 25.21 63.46 122.77 122.77 0 0 0-13.43-10.72c-6.83-4.45-12.73-6.94-17.4-7.8a10.72 10.72 0 0 0-4.91 0 15.8 15.8 0 0 0-1.7.48l-.24 1.53a12.5 12.5 0 0 0 1.49 1c.91.63 2.7 1 4.33 1.85 3.39 1.08 8.61 4 14.15 8.7s11.65 11.56 17.92 20S190.35 737.91 198 749a933.042 933.042 0 0 0 25.5 34.27c1.92 2.49 4 5.1 6 7.64.58 12.54-2.36 24.91-7.19 36.62-13-4.24-31.11.74-37.64 12.33a1.61 1.61 0 0 0 .82 2.13 1.66 1.66 0 0 0 .38.11c9.88 1.14 22.61.49 31.85-4.54-.5 1-1 2-1.52 3-4.75 9-11 17.55-14.25 27.22-1.67 4.92-2.93 10-4.34 15-24.34 7.77-19.09 33.19-11.31 52.07a1.7 1.7 0 0 0 2.21.94 1.34 1.34 0 0 0 .24-.12c11-6.39 18.43-21.87 16.57-34.38-.28-1.9-1.59-13.85-4.93-16.9 1.83-6.72 3.42-13.53 6.35-19.87.5-1.07 1.08-2.11 1.61-3.17.51 11.17 10.35 18.43 18.84 25.55a1.6 1.6 0 0 0 2.27-.15 1.64 1.64 0 0 0 .4-1.12c-.2-12.72-7.46-22.68-18.92-28.83l-.23-.07c4.19-7.65 8.9-15 12.48-23v-.05a21.66 21.66 0 0 0 1.61-1.7 1.46 1.46 0 0 0 0-2c4.71-11.3 7.72-23.06 7.89-35 6.68 8.47 13.6 17.06 21.19 25.68 5.09 5.78 10.45 11.53 16.08 17.16 3.08 11.39 3.39 23.85 3.33 35.35a331.31 331.31 0 0 0 2.29 40c-12.45.41-23.12 2.73-33.35 10.18-12.62 9.17-19.77 24.72-28.55 37.14a2 2 0 0 0 .49 2.79 1.83 1.83 0 0 0 .39.21c18.71 9.2 40.82 0 53.7-14.84 4.42-5.09 7.05-13.16 9.52-19.44 2.36 14.31 6.1 29.73 12.84 42.94-10.9-1.33-13.95 15.28-16.35 23.18a2 2 0 0 0 .68 2.33c10.66 6.3 18.32-8.61 19.61-18.63a66 66 0 0 0 6.44 8.47c1.22 10 9.31 18.86 16.39 25.42 12.12 11.24 29.7 11.88 45.23 12.51a2 2 0 0 0 2.16-1.83 2.14 2.14 0 0 0-.16-1c-5.82-11.37-12.52-21.94-22.49-30.11-10.81-8.87-24.39-8.81-37.6-8.66h-.1a2.24 2.24 0 0 0-2.35-1.1c-7.76-9.37-12.83-21.32-16.28-33.88 2.95 3.47 7.77 6.26 10.73 8 9.59 5.55 21.93 7.35 32.29 3.22a2 2 0 0 0 1-2.66 2.11 2.11 0 0 0-.61-.75c-12.64-11.44-25.31-20.22-42.67-16.3a2.17 2.17 0 0 0-2.7.4c-1.41-6.42-2.47-12.9-3.31-19.19.45-2 .41-4-.65-5.4-.52-4.42-1-8.75-1.36-12.81-.57-6.13-.69-12.67-.72-19.38 2.73 4.43 7.17 8.27 10.58 11.36C299 905 312.8 907.18 326.27 910.1c1.57.34 2.53-1.53 2-2.8-6.72-16.85-28.76-46-50.57-35.71-.11-9.72-.59-19.48-2.37-28.7 5 4.75 10.17 9.4 15.66 13.8 13.84 11.1 29.36 21 45.92 28a209.62 209.62 0 0 0 35.48 11.68 120.85 120.85 0 0 1 23.34 22.57c-12.94 12-18.74 35.37-9.91 49.81a2.07 2.07 0 0 0 2.9.36 2.45 2.45 0 0 0 .36-.36c7.48-10.38 14.76-25.08 15-38.53.8 1.17 1.59 2.35 2.36 3.53 7.06 10.94 12.69 23.15 21.42 32.76 4.44 4.89 9.3 9.41 14 14-6.63 32.09 25 41.76 51 44.6a2.22 2.22 0 0 0 2.44-2 2.44 2.44 0 0 0 0-.27c-.22-16.24-12.82-34.09-27.94-39.67-2.31-.85-16.47-6.69-22-4.81-6.35-6.17-12.95-12.12-18.18-19.3-.89-1.22-1.68-2.51-2.53-3.75 12.79 6.27 27.08-.34 40.36-5.5a2.06 2.06 0 0 0 .26-3.77c-14.32-7.57-30-5.52-44.07 3.57-.1.07-.14.15-.23.22-5.9-9.39-11.18-19.2-17.84-28.11a28.24 28.24 0 0 0-.88-2.84 1.84 1.84 0 0 0-2.23-1.15 139.07 139.07 0 0 0-18.34-19.32c2.29.45 4.57 1 6.86 1.34q21.36 3.76 43 5.39a349 349 0 0 0 57.25 11.17c8.37 6.58 16.71 13.18 25.15 19.66l2.34 1.82a21.8 21.8 0 0 0-9.48 16.73c-.29 4.14 1.38 10.81 6.68 10.62 4.62-.16 8.07-4.46 10-8.23a16.3 16.3 0 0 0 .71-13.15c3.84 2.81 8.26 5.9 12.52 8.53-2.4 8.1 5 13.39 11.55 16.86 11.25 5.92 25.39 4.4 36.68-.47a2 2 0 0 0 1.11-2.6 2 2 0 0 0-.57-.79c-12.37-10.87-27.84-23.43-45.07-16.11a2.45 2.45 0 0 0-.37.26c-3.43-2.05-6.72-4-7.72-4.72-9-6.34-17.62-13.1-26.26-19.87 9.95.44 21.95 0 29.19-6.58a335.79 335.79 0 0 0 61.38-7.27c3.36-.5 6.71-1 10.06-1.61a316 316 0 0 0 63-18.45c7.64-1 15.55-2.29 23.91-3.67 2.61-.43 5.38-.94 8-1.39 9.19 5 16.71 12.63 22.94 21.46C716 915.72 711.61 932 717 942.1a1.26 1.26 0 0 0 1.77.34 1.14 1.14 0 0 0 .35-.34c5.13-7.22 10.23-17.45 10.69-26.84.49.83 1 1.65 1.45 2.48 4.34 7.6 7.71 16.15 13.16 22.9 2.77 3.44 5.83 6.61 8.78 9.88-5.11 22.37 15.29 29.27 32.13 31.36a1.52 1.52 0 0 0 1.64-1.4.86.86 0 0 0 0-.16c.25-11.34-7.51-23.86-17.23-27.82-1.48-.6-10.56-4.75-14.19-3.46-4-4.34-8.14-8.52-11.37-13.55-.55-.85-1-1.76-1.56-2.63 8.18 4.43 17.65-.12 26.43-3.66a1.49 1.49 0 0 0 .84-1.93 1.55 1.55 0 0 0-.58-.71c-9.14-5.35-19.41-4-28.8 2.31-.06 0-.1.1-.15.14-3.61-6.58-6.82-13.45-10.94-19.7-.14-.67-.31-1.34-.51-2a1.15 1.15 0 0 0-1.41-.81c-6-8.56-13-16-21.5-21.32 9-1.55 18.09-3.25 27.54-5.44 6.34-1.48 12.78-3.18 19.24-5.14 9.47 2.51 18.47 7.67 26.63 12.69A257.78 257.78 0 0 0 809 902.8c-5.16 9.91-8.16 19.24-7.33 30.46 1 13.82 9 26.13 14 38.37a1.59 1.59 0 0 0 2.06.9 1.75 1.75 0 0 0 .47-.29c14.73-10.63 17.86-31.88 12.91-48.37-1.7-5.65-6.3-11.19-9.69-15.84 11.23 4.34 23.84 8.09 36.19 8.54-5.71 7.95 4.79 17.51 9.36 22.81a1.57 1.57 0 0 0 2 .47c9.14-5.6 1.87-18-4.7-23.38a53.43 53.43 0 0 0 8.89-1.32c7.7 3.39 17.5.88 25.27-1.81 13.31-4.61 21.44-18.06 28.68-29.92.66-1.09.24-2.75-1.1-2.8-10.64-.37-21.09.29-31.27 4.54-11 4.61-16.93 15.25-22.6 25.63a.14.14 0 0 0 0 .09 2 2 0 0 0-1.81 1.35c-10.07 2-20.79.81-31.24-1.93 3.76-.81 7.85-3.37 10.37-4.94 8.15-5.09 14.82-13.94 16.41-23.83a1.64 1.64 0 0 0-2.28-1.74c-13.67 4.92-25.46 11-30.25 26.28a2.07 2.07 0 0 0-.9 2.28c-5.19-1.68-10.27-3.65-15.11-5.71-1.26-1.24-2.67-2.06-4.13-1.83-3.38-1.51-6.66-3-9.72-4.49-4.61-2.2-9.32-4.94-14.11-7.81 4.35-.22 9-2 12.71-3.35 11.46-4.13 19.06-14 27-23.24a1.76 1.76 0 0 0-1.11-2.79c-14.94-2-45.32 2.56-47.53 24A125.1 125.1 0 0 0 759 872.61c5.57-1.85 11.14-3.87 16.67-6.26a172.29 172.29 0 0 0 40-23.74 192.64 192.64 0 0 0 23.8-22.61 100.24 100.24 0 0 1 26.27-8.47c2.92 15.32 17 29.94 31.14 29.28a1.91 1.91 0 0 0 1.51-2.25 1.43 1.43 0 0 0-.07-.28c-4.12-10.34-11.4-22.38-20.9-28.35 1.19-.12 2.37-.23 3.55-.32 10.79-.83 21.95.05 32.61-2.6 5.42-1.36 10.76-3.2 16.12-4.87 20 19.06 40.69-1.49 54-20.54a2 2 0 0 0-.4-2.8l-.13-.09c-11.66-6.84-29.88-4.73-40.46 4.67-1.61 1.44-12 10-13 15.08-7.17 2.29-14.29 4.87-21.68 5.85-1.26.17-2.52.23-3.78.35 10-7.27 11.59-21.29 13.72-33.9a1.67 1.67 0 0 0-2.57-1.83c-11.65 7.91-17 21-16.72 36a1.31 1.31 0 0 0 .06.27c-9.27.54-18.57.43-27.82 1.77a20 20 0 0 0-2.41-.54 1.61 1.61 0 0 0-1.79 1.24 113.38 113.38 0 0 0-21.78 6c1.32-1.6 2.68-3.16 4-4.78a413.55 413.55 0 0 0 26.52-37.31c3.79-6.43 7.79-12.58 11.21-18.9 1.68-3.17 3.29-6.19 4.94-9.29.93-.39 1.91-.78 2.79-1.17 11.71-5.25 23.48-10.33 35.16-15.65l2.32-1a18.75 18.75 0 0 0 7.75 14.58c2.82 2 8.3 3.6 10.48-.63 1.91-3.68.35-8.23-1.47-11.38a12.85 12.85 0 0 0-9.06-6.25c3.68-1.79 7.81-3.9 11.54-6.09 4.72 5.38 11.71 1.91 17.06-1.73 9.13-6.22 14.23-17.93 15.7-28.85a1.64 1.64 0 0 0-1.24-2 1.71 1.71 0 0 0-1 .07c-13.14 5-28.84 11.61-31.16 28.24a1.34 1.34 0 0 0 0 .4c-3 1.79-5.79 3.51-6.74 4-8.43 4.25-17 8.09-25.62 11.91 6.12-10 12.66-23.36 4.58-33.19a1.58 1.58 0 0 0-2.2-.4l-.11.08c-8.85 8.26-17 26.21-6.79 35.53q-9.76 4.32-19.52 8.68l2.4-4.52c6.07-12.11 11.85-23.75 16.39-34.89 2.34-5.53 4-11.11 5.9-16.26 1.36-5.29 2.64-10.32 3.85-15 .81-4.85 1.58-9.4 2.28-13.6.63-4 .72-7.66 1-11 12.35.4 21.46-12.44 23.79-24.48 3-15.44-8.47-29.74-17.89-39.13a2.18 2.18 0 0 0-3.08-.07 2.29 2.29 0 0 0-.41.53c-11.23 16.36-27.13 46.94-5.06 59.18l-.06.41a2.69 2.69 0 0 0-.26 1.78c-.06.36-.09.67-.15 1-.57 3.38-.89 7.19-1.81 11.19s-1.82 8.32-2.83 12.94q-2.1 6.87-4.45 14.59c-1.27 3.18-2.5 6.52-3.8 9.91a99.47 99.47 0 0 1-5.31-14.91 39.42 39.42 0 0 1-.77-4.45 2.14 2.14 0 0 0 .48-1.67 1.43 1.43 0 0 0 1.92-.62 1.08 1.08 0 0 0 .08-.19c8-16.33 3.51-29.54-6.64-41.89q.74-3.28 1.63-6.75c2.83-10.89 6.69-23 10.8-36.85 3.91-13.75 7.75-28.39 11.51-44.29.79-3.28 1.56-6.77 2.35-10.13 10.08-8.91 22.39-14.75 35.4-18.58 5.21 13.74 21.49 25.49 35.56 23.16a1.72 1.72 0 0 0 1.23-2.08 1.94 1.94 0 0 0-.17-.42c-5.67-9-14.76-19.22-25.16-23.56l3.51-.72c10.71-2.08 22-2.63 32.29-6.37 5.23-1.91 10.31-4.25 15.43-6.44 22.82 15.12 40.53-6.32 51.07-25.48a1.82 1.82 0 0 0-.72-2.47l-.28-.13c-12.7-4.88-30.63-.72-39.83 9.23-1.4 1.51-10.5 10.62-10.8 15.45-6.84 3-13.59 6.23-20.85 8-1.23.3-2.49.51-3.73.78 9-7.92 8.44-21 8.69-32.88a1.73 1.73 0 0 0-2.85-1.38c-10.49 8.71-13.93 21.45-11.38 35.15 0 .1.07.16.09.24-9.19 1.63-18.53 2.66-27.59 5h-.06q-1.24-.17-2.49-.21a1.57 1.57 0 0 0-1.61 1.37c-12.59 3.64-24.44 9-34.56 16.92 2.59-11.26 5.12-22.8 7.23-34.92 1.4-8.13 2.61-16.47 3.53-24.94 7.44-10.22 17.64-18.84 27.29-26.5A357.48 357.48 0 0 0 997 408.75c8.7 10.12 17.8 17.47 30.89 21 16.12 4.37 33.9-.09 50.17-1.09a2.14 2.14 0 0 0 2-2.27 2.64 2.64 0 0 0-.06-.49zm-195.27-91.32c8.74-9.08 7.27-22.13 2.1-32.92 5.18 8.44 10.21 17.12 15 26.27 2.76 5.17 5.3 10.49 7.71 15.87q-12.39-4.65-24.81-9.22zm-90.7-126h4.53c-4.47 12.23-5.47 25.78 2.54 36.86.82 1.13 2.85 1.47 3.74.18 6.3-9.19 9.36-27.83 1.62-37.57 1.61-.13 3.21-.25 4.81-.35.2.2.4.36.6.57 10.08 9.72 20.2 21.07 31 33.27l15.72 19.14c5.27 6.6 10.06 13.81 15.26 20.87C876 284.67 878 288 880 291.1a45.92 45.92 0 0 0-3.54-3.71c-1-.84-2.28-.24-3 .73-10.57 14.27-2.31 31.57 5.44 44.28-5.91-2.2-11.85-4.42-17.76-6.73-13.19-20.49-28.92-39.56-43-55a309.45 309.45 0 0 0-55.54-52.29c6.28-1.93 11.49-7.21 17.29-11.75a75.85 75.85 0 0 0 14.11 1.96zM138.46 510.65q.85-13.5 2.74-26.94l1 .94a406.151 406.151 0 0 0-3 32.6q-.4-3.25-.74-6.6zm45.42-159.24l.23-.31q-3.68 7.39-7 15-2.21 4.62-4.27 9.31c-.08-.27-.15-.54-.23-.81.2-.44.39-.89.59-1.33q5.01-11.09 10.68-21.86zm281.36-205.67c6.35-1 12.72-1.93 19.1-2.71q3.86-.25 7.69-.42c-2 .33-4.09.7-6.12 1.11a226 226 0 0 0-30.59 8.28q-6.06 1.23-12.1 2.65-6.2-.42-12.31-1.43a316.43 316.43 0 0 1 34.33-7.48zm386.35 176.08l-2.52-1.06a385.93 385.93 0 0 0-59.85-66.67 516.34 516.34 0 0 0-44.64-39.46l-.09-.07a37.51 37.51 0 0 0 5.92 3 19 19 0 0 0 7.38 1.51 337.28 337.28 0 0 1 49.47 42.4c3 3.1 6.31 6.68 9.93 10.67a352.51 352.51 0 0 1 34.4 49.68zm-15.11-27.07c7.36 9.17 14.87 19.23 21.82 29.79-1.38-.54-2.76-1.08-4.12-1.63q-8.29-14.62-17.7-28.16zm-98.86-85.49c-1.3-1-2.61-2-3.92-2.93l1.2.2c.87.94 1.78 1.85 2.72 2.73zm112.2 118.3l-1.11-1.68c.91.39 1.81.78 2.69 1.14-.54.15-1.06.34-1.58.54zm-3.83-8.1c-.5-.21-1.41-.67-2.56-1.28q-3.67-5.25-7.54-10.44a30.86 30.86 0 0 0-1.76-4.33q6.38 8 12.21 16.2zm-9-7.18q1.46 2 2.87 4l-2.55-1.39a4.86 4.86 0 0 0 0-.54c-.05-.7-.15-1.35-.31-2.07zm-14.57-21.71q-6.15-7.49-12.68-14.79 8 8.19 15.31 16.72c-.81-.67-1.69-1.32-2.59-1.93zm-4.38-2.64c-6.48-3.5-13.75-5.83-20.5-7.83a2.41 2.41 0 0 0-2.85 1.85 2.31 2.31 0 0 0 0 1c1.74 14.58 8.15 29.77 19.85 37.05 6.86 4.26 15.83 8.08 22 .24 2.9 1.51 6 2.95 9 4.3q1.27 1.89 2.52 3.78a19.09 19.09 0 0 0-8.49 8.28c-2.41 4.49-4.48 10.82-2.08 15.57 2.76 5.44 9.86 2.63 13.53-.45a28.81 28.81 0 0 0 6.64-8.1 393.69 393.69 0 0 1 28 56.43c.29.92.59 1.83.88 2.75q5.17 17 9 34.23l-.25-.18a2 2 0 0 0-1.4-2.26c-1-.32-2-.6-3-.82h-.06c-9.92-6.59-20.66-11.73-31-17.52l.21-.24c8.21-14.85 8.9-31.12-.33-45.68a2.15 2.15 0 0 0-2.91-.83 2.12 2.12 0 0 0-1 1.22c-4.17 13.91-9.76 28.9-2 41.91-1.38-.84-2.8-1.61-4.16-2.49-8-5.17-14.8-11.79-21.83-18.16 1.46-5.75-6-20.19-7.05-22.55-7.23-15.45-27-27.88-44-27.57a2.16 2.16 0 0 0-2.18 2.15 1.8 1.8 0 0 0 0 .46c5.35 26.74 18.38 59.16 51.3 51.24 5.28 4.71 10.45 9.59 16 14 10.85 8.71 24.12 14.12 36.1 21.07 1.31.76 2.61 1.54 3.92 2.33-14 .65-28.73 8.66-38.89 16.74a2.15 2.15 0 0 0-.09 3 1.74 1.74 0 0 0 .42.34c15.89 8.65 39.74 1.88 51.13-11.89l2.26 1.66a435.47 435.47 0 0 1 8.81 85.31q-4.27-2.1-8.7-3.9c-6.7-2.8-13.55-5.23-20.23-8.07 3.64-15.49-2.19-28.18-11.6-40.54-1.21-1.6-3.55-.29-3.68 1.39-1 11.81-1.94 24.09 4.26 33.74-8.45-4.71-16.28-10.48-24.59-15.42-5.18-19.22-3.54-39.1-23.69-49.37a2.14 2.14 0 0 0-3.24 1.75c-.2 15.2 2.18 48.6 22.66 49.94 14.91 8.27 28.12 18.46 44.15 24.85 3.43 1.37 7.36 2.74 11.44 4.24-17 5.72-30.71 20.9-31.38 39.32-.07 1.75 1.69 2.47 3.12 1.93 15-5.63 29.62-19 33.08-35.09a1.9 1.9 0 0 0 1.83-2 1.69 1.69 0 0 0-.08-.5q-.16-.62-.39-1.23v-.05c2.4 1 4.75 2.08 7.06 3.27 0 3.07-.06 6.15-.14 9.22s-.22 6.31-.37 9.44c-2.64 10.09-5 19.85-6.94 29-3.08 13.6-6.2 26.54-7.89 38.2a131.42 131.42 0 0 0-1.6 18.61 39.44 39.44 0 0 0-4 15.35 17.36 17.36 0 0 0 .08 2.53 415.52 415.52 0 0 1-35.7 79.34c2.76-8.19 2.55-17.54 2.16-25.87a1.79 1.79 0 0 0-2.83-1.31c-10.25 5.94-19.72 15.68-22 27-1.33 6.64-1.77 14.76 5.61 17-.46 3.51-.75 7.23-1 10.72-.38.52-.77 1-1.16 1.55a13.93 13.93 0 0 0-9.1-4.77c-3.93-.43-9.13 0-12 3.32-3.27 3.84.66 8.43 3.88 10.29a20.94 20.94 0 0 0 8.29 2.64q-8.64 10.65-18 20.74-11.07 11.41-23.06 21.91c-2.25 1.78-4.52 3.54-6.82 5.25-3.33 2.47-6.71 4.88-10.12 7.26 0-.36-.07-.72-.11-1.08v-.06c2.26-9.81 3.26-19.71 4.76-29.5l.23.08c13.07 1.65 25.2-2.95 33.47-14.66.87-1.23.22-3.06-1.32-2.9-11.31 1.17-23.78 1.59-31.31 11.66.25-1.33.45-2.67.74-4 1.7-7.78 4.77-15.13 7.6-22.57 4.6-.69 13.27-11 14.71-12.55 9.45-10.45 13.38-29.66 8.69-42.66a1.59 1.59 0 0 0-2-1.06 1.49 1.49 0 0 0-.49.24c-18.24 12.57-38.63 32.84-24.17 55.74-2.07 5.57-4.29 11.09-6.1 16.74-3.54 11.12-4 23.07-6 34.5-.21 1.25-.45 2.5-.68 3.76-4.14-10.63-13.87-19.43-22.49-24.72a1.71 1.71 0 0 0-2.26.88 1.62 1.62 0 0 0-.12.43c-2.14 14.74 8.61 30.69 21.46 35.45-12.83 8.71-26 16.88-39 24.85l-.75.46q-10.31 6.36-20.67 12c.33-3.07.53-6.13.68-9.07.29-6 .28-12.1.61-18.15 12.33-2.08 20.12-10.58 26.73-21.74a1.67 1.67 0 0 0-.63-2.27 1.69 1.69 0 0 0-1.37-.13c-8.92 3-18.2 6.1-23.66 13.93 1.24-8 3.42-15.86 4.87-23.84 12.75-10 27.78-15.06 30-33.84.15-1.29-.87-2.48-2.14-2-11.21 4.63-35.12 17-30.72 33.23-2.16 14.11-6.18 27.52-6.66 41.91-.11 3.07-.08 6.54-.12 10.16-8.66-11.32-23.4-17.1-37.11-11.81a1.89 1.89 0 0 0-.95 2.49 2 2 0 0 0 .35.51c8.06 9.77 21.69 16.88 34.46 14.46a1.4 1.4 0 0 0 1.8.86 1.32 1.32 0 0 0 .48-.29 7.56 7.56 0 0 0 .8-.7 80 80 0 0 1-.75 8c-1.77 1-3.53 1.87-5.3 2.79-11.1 1.44-21.78 3-31.47 4.92-4.76.84-9.41 1.64-13.91 2.48 6.72-8.86 10.43-20.81 12.68-30.69a2.69 2.69 0 0 0-1.9-3.3 2.62 2.62 0 0 0-.56-.09c-22.16-2.17-60.6-.9-59.49 29.41l-.42.18a2.88 2.88 0 0 0-1.85.77l-1.08.45c-3.56 1.38-7.38 3.29-11.74 4.67l-14 4.63-16.53 3.88c-3.76.54-7.67 1.22-11.67 1.83 3.5-4.93 6.86-9.9 11.17-14.31a47.51 47.51 0 0 1 3.81-3.41 2.24 2.24 0 0 0 1.86-.48 1.7 1.7 0 0 0 1.81 1.6h.11c21.06-1.2 31.09-14.68 36.88-33.75a2.23 2.23 0 0 0-1.47-2.8 2.52 2.52 0 0 0-.46-.1c-10.46-1.79-22-1.25-31.37 4-11.15 6.23-9.09 17.07-9.23 27.88a73.78 73.78 0 0 0-9.75 9.11c-.92 1.07-1.79 2.18-2.63 3.31-6.29-10.41-15.56-19.06-28.31-19.7a2.22 2.22 0 0 0-2.35 2.08 2.33 2.33 0 0 0 0 .53c3 10 14.78 23.09 26.39 23.14-.84 1.25-1.7 2.48-2.55 3.71-.26 0-.51.08-.77.1-13 1.65-27.15 2.39-42.33 3.1l-23.12.24c-7.89 0-15.93-.74-24.11-1.09-3.47-.27-7-.75-10.52-1.1a33.12 33.12 0 0 0 4.76-.41c1.17-.19 1.51-1.51 1.23-2.59-4.21-16-21.63-20.14-35.41-21.93 9.44-5.64 18.9-11.27 28.66-16.39 1.09-.58 4.66-2.06 8.37-3.62a2.05 2.05 0 0 0 .38.34c17.75 11 34.67.4 48.26-8.92a2.23 2.23 0 0 0 .33-3.13 2.15 2.15 0 0 0-.72-.59c-11.67-7.24-26.46-11.44-38.61-7.2-7.11 2.49-15.14 6.79-13 15.87-4.62 2-9.42 4.51-13.61 6.8a17.83 17.83 0 0 0-.07-14.16c-1.86-4.38-5.26-9.59-10.12-10.61-5.57-1.18-7.67 5.63-7.58 10.11a27 27 0 0 0 9.11 19.57c-1.28.76-2.22 1.33-2.56 1.52-11.36 6.6-22.52 13.4-33.75 20.09l-2.29-.92a423.52 423.52 0 0 1-85.17-52.68 135.24 135.24 0 0 0 26.78-5.23 1.86 1.86 0 0 0 2.47.3 25 25 0 0 0 2.38-1.74h.06c10.6-3.37 20.62-8.18 30.88-12.33a.51.51 0 0 0 .06.29c6 14.65 17.44 24.68 33.43 26.47a2 2 0 0 0 2-3.08c-7.68-11.16-15.32-24-29.31-26 1.42-.52 2.81-1.1 4.25-1.58 8.42-2.78 17.23-3.87 26-5.27 3.33 4.42 18.17 7.48 20.53 8 15.46 3.79 36.1-3.36 45.8-15.9a2 2 0 0 0-.26-2.81 2 2 0 0 0-.39-.26c-22.59-11.75-53.8-21.22-67.29 7.36-6.52 1.09-13.08 2-19.53 3.43-12.68 2.8-24.38 9.29-36.44 14-1.32.51-2.65 1-4 1.48 7.74-10.59 10.5-26 10.56-38.08a2 2 0 0 0-2.16-1.83 2 2 0 0 0-.48.1c-15.59 6.51-24.61 27.82-21.25 44.16a132.47 132.47 0 0 1-28.37 5.07 422.52 422.52 0 0 1-39.23-36.4q-3.51-4.68-6.91-9.32a131.55 131.55 0 0 0 12.69-6.19c6-3.25 11.73-6.81 17.7-10 9.15 11.7 21.79 14.88 36.28 15.27 1.88 0 2.29-2.42 1.15-3.5-8-7.59-16.4-15.5-27-16.63 8.38-3.39 17.14-5.71 25.6-8.88 17 7.47 30.52 20.3 49.78 11.64a2 2 0 0 0 1.18-2.57 2.07 2.07 0 0 0-.56-.81c-10.94-9-36.64-26.83-49.59-12.71-14.73 6-29.88 9.67-43.9 17.59-3 1.7-6.3 3.75-9.77 5.84 5.78-15.71 2.75-34.56-10.26-45.82a1.94 1.94 0 0 0-1.15-.44c-5.07-20.57-16.4-44.53-40.07-37.41l-.27-.35a2.85 2.85 0 0 0-1.19-1.56l-.69-.9c-2.18-3-4.92-6.15-7.29-9.92l-7.82-12.07-7.73-14.62c-1.44-3.42-3-6.94-4.6-10.55 5.51 2.09 11 4 16.24 7a45.86 45.86 0 0 1 4.15 2.75 2.15 2.15 0 0 0 .91 1.64 1.67 1.67 0 0 0-1 2.11.36.36 0 0 0 0 .09c6.32 19.55 21.5 25.69 40.9 26.45a2.17 2.17 0 0 0 2.28-2.06 2.57 2.57 0 0 0 0-.48c-.89-10.3-4.23-21-11.52-28.58-8.63-9-18.33-4.36-28.56-1.82a70.76 70.76 0 0 0-11-6.95c-1.23-.6-2.49-1.15-3.77-1.67 8.26-8.49 14.14-19.37 11.6-31.54-.26-1.24-1.82-2.29-3-1.54-8.65 5.29-18.13 19.62-15.32 30.58l-4.12-1.49c-.09-.24-.2-.46-.29-.7-4.75-11.82-8.93-25-13.35-39.14L148.03 567c-1.1-4.27-2-8.64-2.88-13.06q-.37-7.44-.49-14.9a2.83 2.83 0 0 0 1.2-.32c14.09-7.92 13.66-25.35 12-38.78 7.65 7.51 15.28 15 22.52 23 .81.89 3.09 3.89 5.47 7a1.94 1.94 0 0 0-.22.43c-6 19.44 8.17 32.79 20.3 43.3a2.16 2.16 0 0 0 3-.46 2.25 2.25 0 0 0 .38-.83c4-12.75 4.31-27.74-2.7-38.14-4.1-6.08-10.13-12.59-18.18-8.37-3-3.86-6.57-7.78-9.76-11.16a17.36 17.36 0 0 0 13.33-3.48c3.67-2.83 7.74-7.32 7.51-12.16-.26-5.54-7.2-5.84-11.4-4.65a26.28 26.28 0 0 0-16.21 13.41l-2.06-2c-7.39-7.42-14.9-14.72-22.39-22.05A412.12 412.12 0 0 1 168.69 392q1.58-3.82 3.24-7.63a130.56 130.56 0 0 0 11.15 23 1.83 1.83 0 0 0 .33 2.41c.71.64 1.45 1.24 2.22 1.81v.06c5.78 9.15 12.79 17.41 19.23 26.07-.09.05-.17.06-.26.12-12.34 9.28-19 22.53-16.72 38a2 2 0 0 0 3.4 1.13c8.63-10 18.84-20.36 17.26-34 .84 1.21 1.73 2.38 2.53 3.61 4.7 7.26 7.9 15.3 11.37 23.19-3.34 4.23-2.56 19-2.52 21.34.24 15.52 12.07 33.2 26.28 39.26a2 2 0 0 0 2.65-1 1.69 1.69 0 0 0 .15-.43c5.51-24.19 6.75-55.95-23.52-61.62-2.64-5.87-5.11-11.84-8-17.56-5.77-11.26-14.77-20.7-22.13-30.92-.81-1.12-1.6-2.25-2.38-3.39 11.89 4.69 27.06 3.5 38.49.57a2 2 0 0 0 1.23-2.45 2.56 2.56 0 0 0-.23-.47c-10-13.09-32.29-16.34-46.86-9.14a127.84 127.84 0 0 1-11.51-24.49 411.22 411.22 0 0 1 27.75-51.23l3.67-4.54a125.79 125.79 0 0 0 9 10.43c.59.63 1.19 1.25 1.79 1.87.51 8.64 3 17.44 5.77 25.11-2 7.95-1.28 16.37.79 25.24.42 1.78 2.84 1.56 3.58.22 4.32-7.88 8.77-16 9.22-24.51.78-.49 1.56-1 2.34-1.5 4.16 6 7.89 12.37 12.12 18.36-2.85 17.87-11.61 33.76 1.3 49.79a2 2 0 0 0 2.8.38 2.06 2.06 0 0 0 .54-.63c5.82-12.54 16.26-41.16-.24-49.88-4.89-6.52-9.19-13.29-13.75-19.88 18.79-12.94 37.49-32.9 21.89-54 .08-.13.18-.27.26-.41a3.05 3.05 0 0 0 1.18-1.81c.24-.35.43-.68.68-1 2.31-3.38 4.54-7.37 7.56-11.23l9.59-12.56 12.27-13.43c3-2.75 6.06-5.71 9.22-8.67-.12 6.48-.09 12.9-1.23 19.41a53.58 53.58 0 0 1-1.3 5.32 2.35 2.35 0 0 0-1.36 1.54 1.83 1.83 0 0 0-2.57-.31l-.09.07c-17.9 13.79-18.62 31.78-12.22 52.14a2.41 2.41 0 0 0 3 1.6 2.67 2.67 0 0 0 .46-.2c10.32-4.74 20.16-12.17 25.3-22.52 6.1-12.25-2.27-20.59-8.69-30.24a77.2 77.2 0 0 0 3.12-13.94c.17-1.5.27-3 .33-4.52 11.85 5.4 25.28 7.45 36.95.31 1.18-.73 1.69-2.73.47-3.71-8.68-7-27-11.49-37.34-4.52v-4.82c.22-.18.4-.38.62-.56 10.47-9.3 22.57-18.51 35.57-28.32l20.29-14.19c7-4.75 14.54-9 22-13.61 3.23-1.86 6.66-3.59 10-5.39a37.74 37.74 0 0 0-4 3.24c-.92.88-.42 2.25.49 3 13.41 11.64 31.3 4.75 44.57-2-4.94 10.69-9.91 21.38-15.44 31.81-.62 1.17-2.88 4.64-5.22 8.27a2.5 2.5 0 0 0-.54-.07c-22.33 1-30.91 20.6-37.29 37a2.39 2.39 0 0 0 1.62 3 2.32 2.32 0 0 0 1 .08c14.67-.61 30.32-5.83 38.48-16.93 4.77-6.5 9.27-15.15 1.93-21.92 2.86-4.58 5.61-9.69 7.93-14.24a19.07 19.07 0 0 0 8.61 12.48c4.3 2.75 10.45 5.3 15.37 3.27 5.64-2.32 3.38-9.62.6-13.52a29.06 29.06 0 0 0-19.9-11.81c.68-1.44 1.17-2.51 1.35-2.89 6.9-14.51 13.46-29.17 20.25-43.73.38-.81.75-1.74 1.13-2.59a210.74 210.74 0 0 1 29.92-7.57c18.28-3.14 36.71-3.18 54.78-1.31a269.69 269.69 0 0 1 30 5 143.65 143.65 0 0 0-29.18 27.5 2 2 0 0 0-2.37 1.23 23.45 23.45 0 0 0-1 3v.06c-7.34 9.38-13.29 19.69-19.86 29.57-.09-.07-.13-.16-.23-.22-14.17-9.33-30.34-11.28-45.57-3.21a2.15 2.15 0 0 0-1 2.86 2.11 2.11 0 0 0 1.14 1.08c13.54 5.23 28 12 41.62 5.25-.94 1.32-1.82 2.67-2.8 4-5.78 7.55-12.91 13.84-19.8 20.36-5.61-1.89-20.59 4.38-23 5.3-16 6-29.89 24.8-30.9 41.75a2.15 2.15 0 0 0 2 2.33 1.85 1.85 0 0 0 .47 0c27.08-3.27 60.41-13.75 55.06-47.18 5.1-4.91 10.36-9.68 15.2-14.84 9.52-10.15 15.94-23 23.8-34.37.85-1.25 1.73-2.49 2.62-3.72-.44 14 6.41 29.3 13.69 40.06a2.12 2.12 0 0 0 3 .33 1.85 1.85 0 0 0 .39-.4c9.85-15.18 5-39.47-7.91-51.89 8.82-10.62 18.82-20.18 30.28-27.43 5.73 1.36 11.41 2.79 17 4.37 15.05 4.26 29.4 9.14 43.22 14a144.48 144.48 0 0 0-7.48 13.15c-3.3 6.47-6.25 13.12-9.6 19.56-15.17-4.83-28.27 0-41.32 8.43-1.69 1.09-.56 3.51 1.1 3.78 11.71 1.86 23.88 3.79 34-1.64-5.36 8.06-11.71 15.41-17.28 23.32-19.56 3.68-39.25.5-51 19.8a2.14 2.14 0 0 0 1.49 3.37c15.14 1.38 48.63 1.58 51.54-18.73 9.4-14.23 20.58-26.62 28.19-42.1 1.63-3.32 3.3-7.13 5.11-11.08 4.39 17.39 18.46 32.23 36.78 34.32 1.74.2 2.59-1.49 2.17-3-4.46-15.35-16.61-31-32.44-35.69a1.91 1.91 0 0 0-1.83-2 2.07 2.07 0 0 0-.5 0c-.51.1-.9.2-1.26.3a87.4 87.4 0 0 1 6.24-10.54l1.1.38c15.18 5.51 29.92 10.55 43.42 14.5 9.66 3 19 6 27.75 8.36a451.94 451.94 0 0 1 71.39 51q17.19 16.87 32.27 34.95zm75.83 134.79q2.69 8.28 4.94 16.63l-1.25-.89q-1.65-7.9-3.65-15.74zm14 111.09c-.21 3.14-.44 6.28-.7 9.4l-.11.38c0-.59.05-1.17.07-1.76.07-2.79.11-5.57.13-8.36zM547.49 913.45c-2.74 0-5.48.08-8.21.07H539a19.91 19.91 0 0 0 1.44-3.31 2 2 0 0 0-1-2.61c-10-3.41-25.2-3-33.08 4.65q-9.4-.72-18.74-1.84L482 906l5.71-.13c15.09-.74 29.57-1.51 42.85-3.29 6.64-.8 12.94-2.31 19-3.35l16.6-4.79 14.32-5.58c4.19-1.68 7.75-3.74 11.12-5.38a22.86 22.86 0 0 0 13.51 11.17l-1.21.61c-6.16 3.41-10.51 6.94-13.15 10.22a10 10 0 0 0-1.69 2.62 401.57 401.57 0 0 1-41.57 5.35zm-284.84-102q-4.45-5.37-8.68-10.75 12.72 12.43 26.61 23.9h-2.73q-7.78-6.35-15.2-13.14zm19.73 16.86c.85 0 1.7-.11 2.55-.17q3.52 2.82 7.1 5.59A425.84 425.84 0 0 0 332 861a378.94 378.94 0 0 1-38.71-24.32q-5.54-4.07-10.91-8.36zM413.71 895q-16.95-5-33.25-11.4 7.37-4.38 14.71-8.78c1.5 11.66 11.85 18.23 22.73 20.77-1.39-.17-2.79-.37-4.19-.59zm36.91 11.06q15.84 3.27 32 5.38l.43.34q-18.19-2.09-36-5.86zm10.27.27h3.22l11.75-.27c.91.75 1.85 1.55 2.74 2.24l1.42 1.12q-9.61-1.32-19.13-3.06zm29.3 6q4.05.47 8.12.85c-2.64-.19-5.27-.42-7.9-.67zM606.08 901a99.51 99.51 0 0 1 22.06-5.35c6.42-1 13.47-1.65 21.2-2.41a526.77 526.77 0 0 1-53.79 13.55 39.47 39.47 0 0 1 10.53-5.79zm90.73-27.91q11-6 21.85-12.65l.73-.45c11.76-7.26 23.78-14.69 35.53-22.53a407.3 407.3 0 0 1-58.16 36c.02-.09.03-.21.05-.34zm189.08-213.45q-5.7 15.74-12.69 30.91 6.67-15.62 12.23-32.11c.14.41.29.82.46 1.2zm-50.15 95.56l-.6.83c.21-1.59.53-3.76.85-6a1.49 1.49 0 0 0 .4-.15 28.62 28.62 0 0 0 5.66-4.32q-3.05 4.9-6.31 9.64zM142 535.22v1.58c-.14-1-.28-1.93-.44-2.89.17.44.32.87.44 1.31zm80.27-223.32a32.1 32.1 0 0 0-5.67 14.76 1.72 1.72 0 0 0-1.41 1.06 1.67 1.67 0 0 0-.11.44c-.06.46-.1.83-.12 1.17h-.05a79.8 79.8 0 0 1-7.11-8.57l.66-.83c9.37-11.31 18.21-22.38 25.73-32.73 5.36-7.14 10.59-14 15.24-20.6a428 428 0 0 1 46.49-43.21c-5 5.79-7.8 12.69-5.44 20.85a2.14 2.14 0 0 0 2.49 1.68c14.21-4 32.37-18.93 25.21-35l26.65 1.73-5 3.56C327 226 314.63 235.41 304 245c-5.39 4.72-10 9.87-14.74 14.43l-11.83 14.27-9.29 13.59c-2.68 4-4.58 8-6.57 11.48-14-7.55-30.72 1.28-39.3 13.13zm46.88-68.11c-1.07 1-2.14 2-3.19 3q-5 4.81-9.85 9.78c.24-.38.49-.76.72-1.14 1.64-1.76 3.29-3.49 4.93-5.21q3.64-3.22 7.39-6.43zM146.86 489.24l7 6.86a20 20 0 0 0-8.12 6q.47-6.43 1.12-12.86zm260.9-306.18c8.81-4.51 17.86-8.86 27.35-12.92 5.37-2.36 10.87-4.48 16.41-6.47q-5.58 12-11.11 24c-8.36-9.39-21.49-8.98-32.65-4.61zm311.78 20.24c1.52.38 3 .75 4.52 1.08 2 .48 4 .9 6 1.29 4.56 3.35 9.09 6.78 13.54 10.27q12.91 10.14 24.93 20.87a472.4 472.4 0 0 0-48.99-33.51zm-284.25-45q1.4.19 2.79.36c-2.3 1-4.63 1.92-6.88 3a463.09 463.09 0 0 0-48.72 25.62c-7.5 4.86-15.1 9.3-22.12 14.26l-10.23 7.33c-1.25-.1-2.57-.24-3.78-.32-8.65-.54-17.3-1.13-26-1.71a422 422 0 0 1 114.94-48.56zM144.46 480.85l-.08-.08c.13-.89.28-1.78.42-2.68-.12.91-.23 1.84-.34 2.76zm-.58 5.48q-1.08 10.76-1.57 21.66a28.35 28.35 0 0 0-1.07 3.06c.55-8.31 1.36-16.65 2.43-24.92zm14.63 149.78a40.9 40.9 0 0 0-4.23-16.47q-2.4-10.17-4.27-20.4c3.52 11 7.06 21.58 11 31.24 2.39 6.07 5.37 11.64 7.84 17l8.6 14.47 8.8 12.12c2.61 3.54 5.43 6.38 7.81 9.15-10.75 9.66-8.32 26.7-.81 37.68 8.77 12.81 26.9 15.28 41.69 15.26-.78 11.2 1.77 23 8.69 31.51a1.8 1.8 0 0 0 .37 2.51 1.62 1.62 0 0 0 .41.22c.44.19.79.32 1.12.43a83.44 83.44 0 0 1-10.37 4.84l-.65-.88c-8.79-12.24-17.49-23.89-25.82-34-5.33-6.7-10.44-13.24-15.45-19.23a409.64 409.64 0 0 1-34.73-85.45zm419.28 275.54c3.5-.54 7-1.15 10.6-1.78 0 .1-.06.21-.08.31-1.87.34-3.75.66-5.62 1-1.63.14-3.26.31-4.9.47zm14.94-2.57c8.3-1.56 16.74-3.39 25.26-5.46q-12.75 3.36-25.66 5.81zM909.08 502c-.06 9.17-.34 18.41-.86 27.56l-.88-.46a437.76 437.76 0 0 0-8.48-84.63l1.68 1.31q1.71 6.85 3.15 13.75a372.62 372.62 0 0 1 5.39 42.47zm-22.83-105.91q-1.71-5.26-3.55-10.46 2.44 6.06 4.62 12.19c.87 2.47 1.72 5 2.55 7.48q-1.75-4.62-3.62-9.21zm-9-20.17q-6.51-13.59-14.21-27a393.88 393.88 0 0 0-4.36-7.35c.29-.65.56-1.3.81-2q5.46 9 10.28 18.15 3.99 9 7.52 18.2zm-17.1-38.3zM684 177.1a402.58 402.58 0 0 0-46.34-15.56l-.73-1a406.27 406.27 0 0 1 43 14.56q2.07.98 4.07 2zm-51.34-16.88l-1.12-.29q-7.06-2.2-14.33-4.36 7.44 1.68 14.8 3.63l.66 1.02zm-201.92-2.62a384.38 384.38 0 0 0-44.3 13.22c-10.74 3.93-21.53 8.52-32.2 13.63a360.89 360.89 0 0 1 67.6-28.63c2.95.68 5.91 1.28 8.9 1.78zm-69.81 25.56q-18.18 8.49-35.5 18.69l2.14-1.4a397.8 397.8 0 0 1 33.36-17.29zm-67.87 37.77q6.79-5.66 13.66-10.77l1.75.12q-7.89 5.18-15.41 10.65zM170.59 380.54a354.54 354.54 0 0 0-13.9 39.28q-3.21 9.94-5.83 20a367.41 367.41 0 0 0-8 39.52l-.91-.9q1.88-12.1 4.61-24.12a444.16 444.16 0 0 1 23.73-74.53c.12.21.21.5.3.75zm-26.36 199.32c-.27.56-.55 1.16-.82 1.76-.39-2.78-.74-5.55-1.06-8.33.65 2.2 1.25 4.37 1.88 6.57zm.23 8.88l1.38-3.19c.11.4.23.82.34 1.23q1.81 13.86 4.53 27.46a24.31 24.31 0 0 0-1.72-1.79q-2.66-11.78-4.53-23.71zm2.41 22c-.32-.23-.65-.44-1-.64q-1.83-8.57-3.24-17.16c.19-.43.37-.87.56-1.3q1.6 9.6 3.68 19.1zm10.35 30.92c.88 3.17 1.78 6.32 2.73 9.46q-1.59-4.67-3.06-9.36zm9.47 24.48q5.2 14.4 11.44 28.38-1.15-2.32-2.28-4.66-4.98-11.67-9.16-23.72zm541 204.61q-2.65 1.51-5.35 3l-.68.09c2-1.02 4-2.05 6.01-3.09zm127.1-109.89q4.07-5.42 7.94-11c1-1.44 2-2.93 3-4.43q-5.26 7.95-11 15.5zm34.4-56.94a339 339 0 0 1-18.35 33.59 371.26 371.26 0 0 0 18.33-33.59zm-19.74 35.78l-1.25 2zm54.67-286.87l-1-5c.51.41 1 .84 1.5 1.25 1.24 7.23 2.24 14.36 3 21.33q-1.53-8.82-3.5-17.58zm-2.41-11.33a407.16 407.16 0 0 0-12.79-44.29 301.6 301.6 0 0 0-17.35-39.65q-5.05-11.47-10.77-22.45a30.11 30.11 0 0 0 .51-4.16l1.42.53A231.71 231.71 0 0 1 877 358a388.74 388.74 0 0 1 26.47 84.87zm-245.9-277.06q-10.11-3.31-20.4-6.13c-.4-.59-.78-1.18-1.15-1.78 7.28 2.47 14.49 5.08 21.55 7.91zM629.47 155c.4.7.8 1.4 1.22 2.1q-18.11-4.69-36.7-7.76c-6.58-1.59-13.3-3.08-20.12-4.36a81.793 81.793 0 0 1-3.9-3.56c4.78.56 9.56 1.25 14.31 2.08a369.75 369.75 0 0 1 45.19 11.5zm-66.56-14.32c.91 1 1.82 1.9 2.75 2.82-7.3-1.18-14.68-2.18-22.19-2.74a239.57 239.57 0 0 0-24-.64q9-.42 18.1-.49 12.7-.14 25.34 1.01zm-113.28 6.28q-11.43 2.37-22.73 5.54l-.77-.15a229 229 0 0 1 23.5-5.43zm-109 41.49c17.21-9.35 46.31-23.86 77.17-33.59l.59.15a367.84 367.84 0 0 0-101 49.69c-.95.58-1.9 1.17-2.84 1.77l-2.39-.16a278.39 278.39 0 0 1 28.42-17.9zm-73.13 44.87c2.52-7.54 3.41-13.72 3.07-18.33a10.43 10.43 0 0 0-1.21-4.63c-.21-.4-.45-.78-.69-1.16 3.67-.23 7-.42 8.12-.4 9.12.15 18.23.63 27.34 1.2a352.32 352.32 0 0 0-32.46 27.88l-.08.07q-5.11 4.47-10.06 9.11a119.55 119.55 0 0 0 5.97-13.74zM177.35 360.6q-2.81 5.68-5.43 11.46c-.21-.82-.41-1.65-.59-2.48 1.97-3.04 3.99-6.02 6.02-8.98zm-37.93 84.78a182.79 182.79 0 0 1 15.67-47.31 243.31 243.31 0 0 1 13.45-24.14c.32 1.15.67 2.3 1 3.44A443.47 443.47 0 0 0 145 453.92q-2.62 11.49-4.47 23.06l-1.93-1.9c-.58-.57-1.25-1.17-1.87-1.76a188.51 188.51 0 0 1 2.69-27.94zm.31 36.88q-1.33 9.18-2.17 18.39c-.14-1.79-.27-3.58-.38-5.39-.38-5.32-.5-10.68-.51-16zm-1.09 76.66c.35 1.59.72 3.16 1.1 4.73.23 3 .49 5.88.8 8.78q.68 6.09 1.57 12.14l-.57 1.3q-1.95-13.45-2.9-26.95zm-2.45 48.92q2.61-6 5.21-12 1.14 6.66 2.54 13.3a16.37 16.37 0 0 0-7.75-1.3zm18.89 33.84a369.16 369.16 0 0 0 12.82 34.9q3.1 7.26 6.57 14.39 3.66 8.53 7.75 16.86c.51 1 1 2.08 1.56 3.11-.91-1-1.84-1.93-2.78-2.87a399.83 399.83 0 0 1-27-66.56c.35.07.71.12 1.08.17zm213.07 244.16a195.53 195.53 0 0 1-27-9.93 187.71 187.71 0 0 1-43-27.81 251.27 251.27 0 0 1-20.48-19.62h.7q15.76 12.16 33.3 23.1a399.22 399.22 0 0 0 59.95 32.14l-1.24.74c-.72.4-1.5.92-2.23 1.38zm5.81 1.64l2.73-1.63q6.74 2.79 13.58 5.34l-.26-.05c-5.38-1-10.73-2.27-16.01-3.66zm122.16 29.57c2.2.2 4.4.36 6.59.52a17.83 17.83 0 0 0-1.13 3.75zm127-12.8l2.63-.8q17.07-4.8 33.82-11.22l3.38-.39a321.63 321.63 0 0 1-39.88 12.41zm108.79-35.48c-8.45 1.72-16.75 3.08-24.88 4.28.7-.39 1.4-.76 2.09-1.16A403.29 403.29 0 0 0 745.88 848c2.85-1.93 5.67-3.88 8.43-5.87l2-1.43a119.28 119.28 0 0 1-10.92 25c-4.56 1.11-9.05 2.16-13.53 3.07zm98.65-92.61c-.29 13.39-.29 26.77-.49 40.15v2.35a176.32 176.32 0 0 1-18.89 16.83 161.52 161.52 0 0 1-38.56 21.61 203.21 203.21 0 0 1-22.92 7.51 130.34 130.34 0 0 0 10.89-27.08A334.19 334.19 0 0 0 802 800.4a308.64 308.64 0 0 0 24.07-25.73 21.4 21.4 0 0 0 4.41-1.16zm12.86 27.76c-3.07 3.76-6.31 7.39-9.63 11 .11-7.35.18-14.7.26-22 9 3.88 18.16-1.36 24.72-8.76-4.88 6.55-9.94 13.18-15.4 19.76zm59.26-120.82c.36 1.18.77 2.34 1.21 3.49-10.16.41-20.38 3.91-26.41 13.59-.61 1-.33 2.67.85 2.94 8.41 2 22.9-1.56 28-10.6.52 1.2 1 2.4 1.52 3.6-.09.22-.16.43-.26.64-4.5 10.85-10.17 22.24-16.3 34.41l-9.93 18.16c-3.46 6.15-7.49 12.12-11.32 18.36-1.71 2.6-3.6 5.16-5.38 7.75a38.31 38.31 0 0 0 1.8-3.9 1.64 1.64 0 0 0-1.12-2h-.2c-13.26-3.66-23.79 8.18-31.09 18.17.09-7.86.2-15.73.55-23.61 22.64-29.63 40.53-63.8 53-101.54a22.61 22.61 0 0 0 5.63 4.84c.28.6.56 1.18.85 1.71a11.07 11.07 0 0 0 3.3 4.1 12.78 12.78 0 0 0 1.54 1.11l1.43-.83a15.26 15.26 0 0 0-.18-1.9l.24.14a66.83 66.83 0 0 0 2.27 11.37zm18.53-196.46c-2.64 13.09-5.77 25.69-9 37.92v-4.25q-.23-12.55-1.39-25a294.09 294.09 0 0 0-4.19-44.52 118.47 118.47 0 0 1 17.58 18.61c-.91 5.79-1.9 11.6-3 17.24zm6.33-53.12a269 269 0 0 1-2.64 30.26 144.84 144.84 0 0 0-19.36-19.24 390.53 390.53 0 0 0-27-87.32 232.77 232.77 0 0 0-13.13-24.73c14.64 5.6 29.39 10.89 44.07 16.39.84.32 1.79.62 2.67.93A211.34 211.34 0 0 1 922 379c4.54 18 6 36.36 5.54 54.52z" fill="#fff" data-name="Слой 2"></path></g></g></g></svg>