<svg xmlns="http://www.w3.org/2000/svg" viewBox="-0.0019066333770751953 0.0016353552928194404 1080.002197265625 1781.4898681640625" style=""><g><g data-name="Слой 2"><path d="M512.4 829.36q9.84-1 19.65-2.16c-11.78-30.49-9.46-66.23 12-91.64a11.42 11.42 0 0 1 2.87-4.28C564.46 715 589 705.61 613.83 704q11.63-26.29 23.22-52.62 46.51-105.15 93.06-210.23Q777 334.85 823.9 228.58c28.34-64.21 70.28-133.67 81.39-203.11 1.24-7.76-5.74-10.66-11.88-9.45v-1.25c-.54-5.34-5.73-10.6-11.39-10.1A15.86 15.86 0 0 0 867.67.31L844.45 5.4c-9.08 2-12.1 9.63-10.69 16.58a11.67 11.67 0 0 0-3.11 3.49c-34.95 58-57.06 126.14-83.12 188.48q-43.59 104.25-86.88 208.61-44.58 107.07-89.19 214.11-31.29 74.91-62.67 149.79c6.52 13.3 8.37 28.67 3.61 42.9z" fill="#75cdc5"></path><path d="M168.35 808.35c23.65 5.38 47.65 9.7 71.65 13.29a14.11 14.11 0 0 0-1.22-2.95c-13.08-23-34.32-40.91-61.56-43.37-19.78-1.79-40.93 4.34-54.89 18.1A79 79 0 0 0 140 801c9.26 3.33 18.84 5.2 28.35 7.35z" fill="#fff"></path><path d="M368.82 833.72c9.1-14.68 12.12-33.4 5.29-52.83a65.64 65.64 0 0 0-13.8-22.89 60.57 60.57 0 0 0 9.24-42.69c-8-50.79-74.13-67.33-111.76-37.56-19.23 15.21-31.29 42-21.17 65.91 4.66 11 15.83 21.85 27.9 25.24a64.26 64.26 0 0 0-10.4 33.36 58.48 58.48 0 0 0 3.51 21.84c1.63.22 3.26.47 4.9.68q52.94 6.96 106.29 8.94zM270.42 709a18.81 18.81 0 0 0-.87 4.88 48.64 48.64 0 0 0-5.55 15.76c-1-7.37 1.38-14.57 6.42-20.64z" fill="#fff"></path><path d="M427.16 834.31q42.51-.75 84.79-5c4.76-14.23 2.91-29.6-3.63-42.9a63.58 63.58 0 0 0-27.14-28.25c-17.69-9.27-41.41-8.81-59.64.58-5.65-7.06-19.62-5.8-22.14 4.1-3.94 15.47-4.45 31.58-5.53 47.45-.55 8.1-1.7 16.11-1.76 24 11.68.2 23.36.23 35.05.02z" fill="#fff"></path><path d="M405.36 722c25.82 20.86 71.16 31.16 98.92 9.08 24.86-19.79 23.05-56 .23-76.7-24.91-22.6-63.6-14.31-84.25 9.7-23.19 6.47-35.97 40.92-14.9 57.92z" fill="#fff"></path><path d="M600.24 816.77c28.13-5.26 56.44-11.19 84-18.91 8.66-2.43 18.12-4.74 26.76-8.34a75.3 75.3 0 0 0 .28-13.84 73.78 73.78 0 0 0-2.56-14.46 72.49 72.49 0 0 0-25.16-37.36c-19.25-15.16-44.93-21.49-70.18-19.89-24.88 1.61-49.35 11-66.86 27.28a11.42 11.42 0 0 0-2.87 4.28c-21.51 25.41-23.83 61.15-12 91.64q34.35-4.05 68.59-10.4z" fill="#fff"></path><path d="M453.47 558.83c14.19-27.24 28.06-89.65-13.09-101.84-8-2.36-16.32-1.61-24 1.14-.23 0-.44-.09-.67-.08l-8.24.35c-3.84.17-7 3.53-7.71 7.05-31.1 20.25-54.05 60.23-38.05 96.06 19.4 43.54 71.55 36.12 91.76-2.68z" fill="#fff"></path><path d="M437.09 1524.84q.91 11.16 1.91 22.38c6.44-.54 12.91-1.34 19.42-2.45-7.3-6.46-14.42-13.07-21.33-19.93z" fill="#7f3a28"></path><path d="M617 1369.68c-.41 1.22-.83 2.43-1.25 3.65l.36.72c1.1-1.15 2.12-2.34 3.19-3.51z" fill="#7f3a28"></path><path d="M248.11 1408.54c-36.77-52.66-59.77-117.3-59.16-181.34-12.17.56-24.36.81-36.36.41a7.73 7.73 0 0 1-6.29-3.55c11.81 65.39 25 129.69 58.34 187.78 14.14-2.25 29.22-2.57 43.47-3.3z" fill="#7f3a28"></path><path d="M226.48 1445c2.35-4.74 4.85-9.44 7.6-14.06-5.58.54-11.18 1-16.76 1.32q2.72 4 5.58 8c1.17 1.53 2.38 3.11 3.58 4.74z" fill="#7f3a28"></path><path d="M267.76 1489.14c-2.81-15.65-4.47-31.3-6.21-47-6.18 7.57-12.48 15-19 22.31a278.46 278.46 0 0 0 25.21 24.69z" fill="#7f3a28"></path><path d="M617.63 1427.35a10.32 10.32 0 0 1-5-3.49 94.9 94.9 0 0 1-24.83 5.1c-.14.22-.26.46-.41.67-3.15 18.82-15.52 35.46-34.41 40.21a217.88 217.88 0 0 1-23 18.69c-21.46 15-43.65 24.24-65.91 28.55 9.08 6.24 18 12.74 26.76 19.59 55.56-18.41 100.54-58.45 126.8-109.32z" fill="#7f3a28"></path><path d="M409.67 1526.05c-6.79 6.74-13.75 13.25-20.79 19.7 6.9 1 13.88 1.64 20.93 2-.02-7.25-.05-14.47-.14-21.7z" fill="#7f3a28"></path><path d="M393.75 1515.21c-41.57-9.86-80.75-34.32-112.85-67 5.26 16.44 10.31 32.92 13.65 50.15a11.82 11.82 0 0 1-2.08 9.69 235.61 235.61 0 0 0 77 34c7.99-9.05 15.98-18.05 24.28-26.84z" fill="#7f3a28"></path><path d="M656.51 1179a196.12 196.12 0 0 1-25.44-4.86 278.53 278.53 0 0 1 33.55 64.86c1.61-21.39 2-42.89 2.09-63.64-2.13 2.53-5.49 4.12-10.2 3.64z" fill="#7f3a28"></path><path d="M831.28 1220q5.72-89.82 7.51-179.8c.05-2.73.07-5.47.12-8.2q1.08-62.7.1-125.36c-.07-4.2-.1-8.4-.18-12.6-.85-44.12 1.43-91-8.12-134.28a12.49 12.49 0 0 0-3.22-6c-1-7.09-4.91-11.16-9.85-12.82-13.33-28.46-39.63-51.3-70.83-56.73a13.14 13.14 0 0 0-9.45 2.17c-6.07 4-9.23 12-3.62 17.28 20.09.14 38.89 13.85 45.94 34.56a77.23 77.23 0 0 1 10.76 18.55c-.08.41-.22.79-.28 1.21-3.07 22.64-13.74 38.32-28.77 49.33a12.69 12.69 0 0 1-3.73 9.07c-37.56 38.51-109.5 55.79-160.33 68.26a689.9 689.9 0 0 1-177 19.32 673.66 673.66 0 0 1-181.92-28.38c-32.9-10-75.94-22.64-109.73-43-2.67-1.13-5.41-2.16-8-3.39-23.84-11.3-46.77-33.54-49.68-60.46-3.62-4.68-7.15-9.7-10.58-15.14a.47.47 0 0 0-.09-.12 58.74 58.74 0 0 1 13-7c7.63-23.08 31.43-36.19 54.7-28.16 7.76 2.69 5.24 13.08-2.32 13.55a46.3 46.3 0 0 0-14.71 3.59c24.36-5.47 53.76-8.53 72.48-24.62 5.86-5 3.85-16.68-4.17-18.38-27.56-5.85-59.2 8.64-85.94 15.57-7.76 2-15.84 4-23.71 6.52-11.79 3.78-23.09 8.83-32.14 17.12a54.48 54.48 0 0 0-4.75 4.86C29 740.92 26.42 747.15 25 754a9.85 9.85 0 0 0-1.83 1.18 11.08 11.08 0 0 0-3.52 5.58C6.65 804.53 6 852.89 3.43 898.26q-4.2 74.93-3.26 150.09a2394.7 2394.7 0 0 0 20.7 286.93c16.73 126.14 60.54 268.24 171.37 335.25 1.39 1.88 2.9 3.66 4.47 5.41a11.55 11.55 0 0 1 1.18-.79 6.32 6.32 0 0 1 1.6-1c32.37-13 72.21 1.49 106.06 5.29q58.33 6.57 117 8.07c84.06 2.19 165-9.59 248.35-17 7.34-.65 12.39 2.72 15.2 7.68a10.38 10.38 0 0 1 4.5 4.42c111.9-63.61 121.69-219.43 131.29-340.72.68-8.63 1.36-17.09 2.08-25.32q4.24-48.27 7.31-96.57zm-151 125.41c-.5 6.57-1.27 13.09-2.26 19.56a19.27 19.27 0 0 1-2.52 13.78c-18.06 86.51-79.47 161.37-163.62 192.13a255.57 255.57 0 0 1-71.68 15.05c-5.66 12-24.47 12.54-29.4.15-72.86-3.85-142.34-38.78-191.39-96.93-75.34-89.3-104-217.95-102.31-332.31.14-9.43 14.65-10.9 16.51-1.65 4.08 20.38 7.67 40.83 11.32 61.19a6.81 6.81 0 0 1 6-5.34c12.81-1.68 25.88-2.65 39-3.34 0-.35.07-.7.1-1.05a142.31 142.31 0 0 1-17.65-11.84c-5.95-4.8-4.1-15.34 4.65-15.06a142.67 142.67 0 0 1 16.63 1.61 231.93 231.93 0 0 1 6.62-25.58c-2.3-4.78-4.53-9.6-6.56-14.5-3.23-7.82 7.26-13.79 11.73-6.31.53.88 1 1.78 1.53 2.67 1.48-3.53 3-7 4.7-10.53 21.31-44.4 56.61-82.5 99.76-106.39 25.55-14.15 71.47-34.58 101-20 68.38 4.41 132.7 37.54 173.64 91.33.93-4.84 2-9.68 3.26-14.52 1.49-5.68 10.84-5.55 11.78.41a258.7 258.7 0 0 1 2.84 41.71c.44.81.87 1.63 1.3 2.45q11.26-9.69 22.25-19.75c15.13-14 37.07 9.59 21.78 23.35-9.44 8.5-19.11 16.66-28.88 24.69 12.33.09 24.64.32 37 2.41a13.86 13.86 0 0 1 9 5.43c-3.52-87.21-39.56-176.11-138.19-184.68-14.27-1.24-18.08-23.88-2.62-26.23 112.62-17.14 170 107.39 175.42 200.06 2.75 47.38 2.88 133.36-20.76 198z" fill="#7f3a28"></path><path d="M613.21 1368.27c.88 1.67 1.65 3.38 2.5 5.06.42-1.22.84-2.43 1.25-3.65z" fill="#93472e"></path><path d="M236.31 1192c.32.24.5.49.79.74 20 7 39.57 15.69 58.58 22.65q51.21 18.77 102.37 37.68c-3-42.62-6.63-85.78-7.45-128.41a5.47 5.47 0 0 1-1-.11c-14.28-4.89-18.29-23.34-23.67-36-4.8-11.27-16.2-27.78-8.24-39.49 1.72-2.53 4.28-3.12 7.15-2.63 13.6 2.32 17.93 22.42 22.76 33.35.93 2.12 2.06 4.41 3.23 6.75.32-11.7.84-23.36 1.83-34.9.92-10.75 17.6-13.44 19.61-2 2.34 13.3 4.05 26.79 5.5 40.37 10.46-10.5 21-20.89 32.4-30.62 10.83-9.21 26 7.07 15.06 16.15-14.71 12.23-30.16 22.8-45.63 33.69 4 48.8 3.86 98.74 5 147.7 52.52-37.62 106.05-73.88 156.25-114.47.69-17 2.08-33.76 5.29-50.46-40.94-53.79-105.26-86.92-173.64-91.33-29.57-14.62-75.49 5.81-101 20-43.15 23.89-78.45 62-99.76 106.39-1.68 3.48-3.22 7-4.7 10.53 4.88 8.47 9.24 17.28 13.76 26 3.79 7.42 8.67 23.03 15.51 28.42zm246.6-46.51a8.1 8.1 0 0 1 2.6 0 12.27 12.27 0 0 1 11.58 12.41c.06 7-6.18 11.06-12.41 11.57a8.78 8.78 0 0 1-2.61 0 12.26 12.26 0 0 1-11.58-12.47c-.07-6.93 6.17-11.1 12.42-11.54zm-134.09 25.18c18.31 0 17.23 28.35-1 28.35s-17.22-28.38 1-28.38z" fill="#93472e"></path><path d="M207.5 1170.62c-2.4-5-4.87-9.92-7.26-14.91a231.93 231.93 0 0 0-6.62 25.58A195.89 195.89 0 0 1 216 1186c-3-5.61-6.49-11.21-8.5-15.38z" fill="#93472e"></path><path d="M657.28 1384.79l-38-14.25c-1.07 1.17-2.09 2.36-3.19 3.51 5.92 11.64 11.45 23.49 16.33 35.65 4.37 10.88-6.3 20.23-14.77 17.65-26.26 50.87-71.24 90.91-126.73 109.32 4.73 3.7 9.46 7.45 14.14 11.37 12 10-5.19 30.5-17.44 21-10.18-7.85-19.85-16-29.23-24.31-6.51 1.11-13 1.91-19.42 2.45.84 9.53 1.74 19 2.78 28.55a18.43 18.43 0 0 1-1.55 10.09 255.57 255.57 0 0 0 71.68-15C596 1540 657.44 1465.15 675.5 1378.64c-3.5 5.73-10 9.22-18.22 6.15z" fill="#93472e"></path><path d="M410 1547.73c-7-.34-14-1-20.93-2-8.19 7.5-16.49 14.92-24.83 22.47-6.43 5.82-14.48-3.37-9-9.64 4.85-5.54 9.64-11 14.43-16.52a235.71 235.71 0 0 1-77-34c-5.5 7.19-19 7.39-21.67-4-1.16-5-2.15-9.93-3-14.89a278.66 278.66 0 0 1-25.22-24.7c-3.84 4.28-7.73 8.5-11.79 12.59-6.06 6.1-16.48-.85-13.92-8.77a168.6 168.6 0 0 1 9.65-23.3c-1.2-1.59-2.41-3.17-3.58-4.79q-2.86-4-5.58-8a132.15 132.15 0 0 1-26.15-.86v-.32c-8.61-.66-11-13-1.62-15.87a112.5 112.5 0 0 1 15.08-3.37c-33.29-58.09-46.52-122.39-58.33-187.78a9.87 9.87 0 0 1-1.39-7.75c-3.65-20.36-7.24-40.81-11.32-61.19-1.86-9.25-16.37-7.78-16.51 1.65-1.67 114.36 27 243 102.3 332.31 49.05 58.15 118.53 93.08 191.39 96.93a17.82 17.82 0 0 1-1.21-7q.28-15.56.2-31.2z" fill="#93472e"></path><path d="M525.6 947.29c-15.46 2.35-11.65 25 2.62 26.23 98.63 8.57 134.67 97.47 138.19 184.68 3.87 5.19 4 12.67.3 17.12-.06 20.75-.48 42.25-2.09 63.64a278.67 278.67 0 0 0-33.55-64.88c-10.07-2.52-20-5.47-30.1-8.07-48.39 37.78-99.81 71.41-150.31 106.47q73.71 27.19 147.33 54.58c16.29-22 40.27-37.16 68.07-40 14.87-1.52 21.14 20.27 5.57 23.34-20 4-38.48 11.62-54.61 23.7l50.31 18.63A16.13 16.13 0 0 1 678 1364.9q1.5-9.7 2.26-19.56c23.64-64.63 23.51-150.61 20.76-198-5.39-92.66-62.8-217.19-175.42-200.05zM554.91 1278c-19.45 0-18.31-30.13 1.06-30.13s18.31 30.13-1.06 30.13z" fill="#93472e"></path><path d="M393.75 1515.21c5-5.3 10.12-10.53 15.45-15.63-1.52-61.46-5.34-123-7.59-184.26-.1-2.51-.26-5-.37-7.56-27.83 20.61-54.92 42.24-80.15 66-17.4 16.35-32.3 34.65-47.06 53 2.25 7.19 4.58 14.33 6.87 21.48 32.1 32.65 71.28 57.11 112.85 66.97zm-37.11-102.48c18.57 0 17.48 28.77-1 28.77s-17.48-28.77 1-28.77z" fill="#93472e"></path><path d="M248.11 1408.35h1c36.82-49.21 92.85-91.11 138.62-124.76-36.21-13.63-72.45-27.2-108.62-41-16.19-6.17-33.7-11.78-50.79-18.3a8.74 8.74 0 0 1-1.5.4c-12.48.87-25.17 1.76-37.87 2.33-.61 64.03 22.39 128.67 59.16 181.33zm46-120c17.86 0 16.81 27.67-1 27.67s-16.79-27.67 1-27.67z" fill="#93472e"></path><path d="M552.93 1469.84c18.89-4.75 31.26-21.39 34.41-40.21.15-.21.27-.45.41-.67a94.9 94.9 0 0 0 24.83-5.1 14.13 14.13 0 0 1-1.67-2.59 449.27 449.27 0 0 1-26-63.6q-79.53-29.76-159-59.59c0 .86.06 1.74.1 2.6 3.28 65.59 4.89 131.81 9.17 197.61 9.95 6 19.54 12.29 29 18.79 22.26-4.31 44.45-13.5 65.91-28.55a217.65 217.65 0 0 0 22.84-18.69zm-76.51-51c-3.7.3-6.79-1-9.91-2.82-9.84-5.82-8.26-19.89.88-25.29a16.46 16.46 0 0 1 10.09-2.3 15.53 15.53 0 0 1 14.67 15.73c.09 8.92-7.83 14.07-15.73 14.71z" fill="#93472e"></path><path d="M1079.49 916.26a58.36 58.36 0 0 0-3.6-14.18 15.69 15.69 0 0 0-1.43-6.54c-46.14-101.23-176.25-53-235.45 11q1 62.67-.1 125.36c47.23-32.72 89.69-73.42 135.92-107.07 22.39-16.3 57.53-33.18 62 8.56.85 8-1.26 17.27-4 26.31-13.61 29.26-34.37 59.18-39.64 67.28-18.94 29.13-39.16 57.43-60.85 84.59-31 38.84-65 74.54-101 108.33q-3.09 48.36-7.27 96.65c-.72 8.23-1.4 16.69-2.08 25.32 108.89-87.81 192.9-203.4 235.41-338.43 1.94-6.17 4-13.41 5.91-21.21 11.15-21.91 18.78-44.69 16.18-65.97z" fill="#6d2d21"></path><path d="M179.29 692.45c8 1.7 10 13.34 4.17 18.38C164.74 727 135.34 730 111 735.45q-24.62 11.55 6.75 55.11c1.51 1 3 2 4.61 2.86 14-13.76 35.11-19.89 54.89-18.1 27.24 2.46 48.48 20.33 61.56 43.37a14.11 14.11 0 0 1 1.22 2.95c5.86.88 11.73 1.69 17.6 2.48a58.48 58.48 0 0 1-3.51-21.84 64.3 64.3 0 0 1 10.4-33.28c-12.07-3.39-23.24-14.22-27.9-25.24-10.12-23.87 1.94-50.7 21.17-65.91 37.63-29.85 103.72-13.28 111.76 37.51a60.57 60.57 0 0 1-9.24 42.64 65.64 65.64 0 0 1 13.8 22.87c6.83 19.43 3.81 38.15-5.29 52.83q11.64.42 23.29.59c.06-7.86 1.21-15.87 1.76-24 1.08-15.87 1.59-32 5.53-47.45 2.52-9.9 16.49-11.16 22.14-4.1 18.23-9.39 42-9.85 59.64-.58a63.58 63.58 0 0 1 27.14 28.25Q539.7 711.58 571 636.67c-30.66-4.77-61.49-7.22-90.2-8.87-142.3-8.18-284.4 22.64-411.15 86.74 7.87-2.53 16-4.5 23.71-6.52 26.73-6.93 58.37-21.42 85.93-15.57zm241-28.1c20.65-24 59.34-32.3 84.25-9.7 22.82 20.7 24.63 56.91-.23 76.7-27.76 22.08-73.1 11.78-98.92-9.08-21.1-17-8.32-51.47 14.87-57.92z" fill="#6d2d21"></path><path d="M683.56 723.86a72.49 72.49 0 0 1 25.16 37.36c.33-.46.69-.9 1-1.39a27.38 27.38 0 0 1 4.2 12.95l-2.62 2.9a75.3 75.3 0 0 1-.28 13.84 65.55 65.55 0 0 0 10.3-5.31c17-11.09 28.32-46.31-2.45-45.78-15.83.27-20.06-22.29-6.86-29.37a44.73 44.73 0 0 1 21.75-5.43c-5.61-5.23-2.45-13.32 3.62-17.28-19.15-11.3-42.4-17.84-64.48-21.48a310.41 310.41 0 0 0-36.27-13.52L613.38 704c25.25-1.63 50.93 4.7 70.18 19.86z" fill="#6d2d21"></path><path d="M761 803.85a13.22 13.22 0 0 1 .43 3.43c15-11 25.7-26.69 28.77-49.33.06-.42.2-.8.28-1.21a77.23 77.23 0 0 0-10.76-18.55c.21.6.46 1.18.65 1.79 6.99 23.34-3.08 46.82-19.37 63.87z" fill="#6d2d21"></path><path d="M686.14 1678.2c-2.81-5-7.86-8.33-15.2-7.68-83.36 7.45-164.29 19.23-248.35 17q-58.69-1.53-117-8.07c-33.85-3.8-73.69-18.25-106.06-5.29a6.32 6.32 0 0 0-1.6 1 11.55 11.55 0 0 0-1.18.79 12.05 12.05 0 0 0-5 12 142.38 142.38 0 0 0 4.13 16.64c1.34 4.44 1.76 8.86 2.64 13.26a159.94 159.94 0 0 0 14 15.1 189.52 189.52 0 0 0 18.8 16.09c20.36 10.84 44.91 15.22 67.28 19.3 41.62 7.6 84.33 11.12 126.58 12.54 74.4 2.51 148.77-2.79 222.23-14.38a177.39 177.39 0 0 0 37.47-37 276 276 0 0 0 8.89-26.72 150.33 150.33 0 0 0-1.81-16.67 11.51 11.51 0 0 0-1.28-3.5 10.35 10.35 0 0 0-4.54-4.41z" fill="#6d2d21"></path><path d="M477.81 1388.46a16.46 16.46 0 0 0-10.09 2.3c-9.14 5.4-10.72 19.47-.88 25.29 3.12 1.85 6.21 3.12 9.91 2.82 7.9-.64 15.82-5.79 15.73-14.68a15.53 15.53 0 0 0-14.67-15.73z" fill="#d7f4f0"></path><path d="M355.64 1441.5c18.48 0 19.57-28.77 1-28.77s-19.57 28.77-1 28.77z" fill="#d7f4f0"></path><path d="M293.13 1315.89c17.78 0 18.83-27.67 1-27.67s-18.86 27.67-1 27.67z" fill="#d7f4f0"></path><path d="M347.83 1199c18.22 0 19.3-28.35 1-28.35s-19.31 28.35-1 28.35z" fill="#d7f4f0"></path><path d="M482.07 1169.46a8.78 8.78 0 0 0 2.61 0c6.23-.51 12.47-4.57 12.41-11.57a12.27 12.27 0 0 0-11.58-12.41 8.1 8.1 0 0 0-2.6 0c-6.25.44-12.49 4.61-12.42 11.58a12.25 12.25 0 0 0 11.58 12.4z" fill="#d7f4f0"></path><path d="M556 1247.91c-19.37 0-20.51 30.13-1.06 30.13s20.48-30.13 1.06-30.13z" fill="#d7f4f0"></path><path d="M667.82 1352.51q-25.16-9.33-50.34-18.63c16.14-12.08 34.61-19.75 54.64-23.7 15.58-3.07 9.3-24.86-5.57-23.34-27.82 2.83-51.81 18-68.11 40q-73.7-27.33-147.4-54.58c50.53-35.06 102-68.69 150.38-106.47 10.1 2.6 20 5.55 30.12 8.07a195 195 0 0 0 25.45 4.88c4.71.54 8.07-1 10.21-3.62 3.67-4.45 3.57-11.93-.3-17.12a13.91 13.91 0 0 0-9-5.43c-12.37-2.09-24.69-2.32-37-2.41 9.78-8 19.45-16.19 28.9-24.69 15.29-13.76-6.66-37.31-21.79-23.35q-11 10.11-22.26 19.75c-.44.38-.86.78-1.3 1.16v-3.61a257.65 257.65 0 0 0-2.85-41.71c-.94-6-10.29-6.09-11.78-.41-1.27 4.84-2.33 9.68-3.26 14.52-3.21 16.7-4.61 33.45-5.3 50.46-50.22 40.59-103.78 76.85-156.32 114.47-1.12-49-1-98.9-5-147.7 15.48-10.89 30.94-21.46 45.66-33.69 10.93-9.08-4.23-25.36-15.07-16.15-11.43 9.73-21.95 20.12-32.42 30.62-1.46-13.58-3.17-27.07-5.51-40.37-2-11.48-18.7-8.79-19.62 2-1 11.54-1.51 23.2-1.83 34.9-1.17-2.34-2.3-4.63-3.23-6.75-4.83-10.93-9.16-31-22.77-33.35-2.87-.49-5.43.1-7.15 2.63-8 11.71 3.44 28.22 8.24 39.49 5.38 12.64 9.39 31.09 23.68 36a4.86 4.86 0 0 0 1 .11c.82 42.63 4.44 85.79 7.46 128.41l-102.42-37.68c-19-7-38.64-15.6-58.61-22.65-.29-.25-.47-.5-.79-.74-6.85-5.36-11.73-21-15.62-28.45-4.52-8.67-8.88-17.48-13.77-26-.51-.89-1-1.79-1.53-2.67-4.47-7.48-15-1.51-11.73 6.31 2 4.9 4.26 9.72 6.56 14.5 2.39 5 4.86 9.94 7.26 14.91 2 4.17 5.55 9.77 8.47 15.42a198.7 198.7 0 0 0-22.35-4.75 145 145 0 0 0-16.64-1.61c-8.76-.28-10.61 10.26-4.65 15.06a140 140 0 0 0 17.73 11.8c.53.3 1 .64 1.57 1-.56 0-1.11.08-1.67.1-13.08.69-26.16 1.66-39 3.34a6.84 6.84 0 0 0-6 5.34 9.91 9.91 0 0 0 1.39 7.75 7.75 7.75 0 0 0 6.3 3.55c12 .4 24.2.15 36.37-.41 12.71-.57 25.41-1.46 37.89-2.33a8.74 8.74 0 0 0 1.5-.4c17.1 6.52 34.62 12.13 50.82 18.3 36.19 13.76 72.44 27.33 108.67 41-45.79 33.65-101.85 75.55-138.69 124.76h-1c-14.25.73-29.34 1-43.49 3.3a114.71 114.71 0 0 0-15.1 3.37c-9.38 2.85-7 15.21 1.63 15.87v.28a131.59 131.59 0 0 0 26.17.86c5.58-.29 11.18-.78 16.77-1.32-2.76 4.62-5.26 9.32-7.61 14.06a167.88 167.88 0 0 0-9.65 23.3c-2.56 7.92 7.86 14.87 13.92 8.77 4.07-4.09 8-8.31 11.8-12.59 6.53-7.27 12.84-14.74 19-22.31 1.74 15.71 3.4 31.36 6.21 47 .89 5 1.88 9.92 3 14.89 2.69 11.41 16.18 11.21 21.68 4a11.78 11.78 0 0 0 2.09-9.69c-3.35-17.23-8.4-33.71-13.66-50.15-2.29-7.15-4.62-14.29-6.87-21.48 14.76-18.36 29.67-36.66 47.08-53 25.24-23.72 52.34-45.35 80.19-66 .11 2.52.27 5 .37 7.56 2.25 61.22 6.07 122.8 7.59 184.26-5.33 5.1-10.44 10.33-15.46 15.63-8.3 8.76-16.29 17.74-24.27 26.85-4.79 5.47-9.58 11-14.44 16.52-5.49 6.27 2.57 15.46 9 9.64 8.34-7.55 16.65-15 24.84-22.47 7-6.45 14-13 20.8-19.7.09 7.23.12 14.45.14 21.68 0 10.42 0 20.84-.24 31.25a17.82 17.82 0 0 0 1.21 7c4.93 12.39 23.76 11.9 29.43-.15a18.62 18.62 0 0 0 1.55-10.09q-1.5-14.25-2.78-28.55-1-11.18-1.87-22.38c6.94 6.86 14 13.47 21.29 19.93 9.39 8.36 19.06 16.46 29.25 24.31 12.25 9.46 29.46-11 17.45-21-4.68-3.92-9.42-7.67-14.15-11.37-8.76-6.85-17.69-13.35-26.77-19.59-9.44-6.5-19-12.78-29-18.79-4.28-65.8-5.89-132-9.17-197.61 0-.86-.06-1.74-.1-2.6q79.5 29.92 159.08 59.59a446 446 0 0 0 26 63.6 12.59 12.59 0 0 0 1.67 2.59 10.21 10.21 0 0 0 5 3.49c8.48 2.58 19.15-6.77 14.78-17.65-4.88-12.16-10.42-24-16.34-35.65l-.36-.72c-.85-1.68-1.62-3.39-2.5-5.06l3.75 1.41 2.3.86 38 14.25c8.23 3.07 14.7-.42 18.21-6.11a19.25 19.25 0 0 0 2.52-13.78 16.15 16.15 0 0 0-10.56-12.15z" fill="#d7f4f0"></path><path d="M712 709.06c-13.2 7.08-9 29.64 6.86 29.37 30.77-.53 19.49 34.69 2.45 45.78a65.55 65.55 0 0 1-10.3 5.31c-8.64 3.6-18.1 5.91-26.76 8.34-27.56 7.72-55.87 13.65-84 18.91q-34.15 6.39-68.64 10.43-9.81 1.17-19.65 2.16-42.25 4.17-84.79 5c-11.69.21-23.37.18-35.05 0q-11.65-.18-23.29-.59-53.31-1.93-106.29-8.92c-1.64-.21-3.27-.46-4.9-.68-5.87-.79-11.74-1.6-17.6-2.48-24-3.59-48-7.91-71.68-13.29-9.51-2.15-19.09-4-28.3-7.31a79.37 79.37 0 0 1-17.69-7.62c-1.56-.91-3.1-1.85-4.61-2.86Q86.35 747 111 735.45a46.1 46.1 0 0 1 14.64-3.64c7.56-.47 10.08-10.86 2.32-13.55-23.27-8-47.07 5.08-54.7 28.16-.45 1.38-.87 2.78-1.2 4.22A53.76 53.76 0 0 0 71 768.7c2.91 26.92 25.84 49.16 49.69 60.43 2.6 1.23 5.34 2.26 8 3.39 33.79 20.39 76.83 33.05 109.73 43A673.91 673.91 0 0 0 420.31 904a689.9 689.9 0 0 0 177-19.32c50.83-12.47 122.77-29.75 160.33-68.26a12.69 12.69 0 0 0 3.73-9.07 13.22 13.22 0 0 0-.43-3.43c16.33-17 26.4-40.53 19.37-63.87-.19-.61-.44-1.19-.65-1.79-7-20.71-25.85-34.42-45.94-34.56a44.78 44.78 0 0 0-21.72 5.36z" fill="#51a89d"></path><path d="M263 588.38a17.42 17.42 0 0 0 16-10 17.07 17.07 0 0 0-5-20.57 12.39 12.39 0 0 0-10-5.28 14.11 14.11 0 0 0-11.63 6.12c-4.51 4.25-7.1 9.86-5.51 16.56 1.8 7.07 8.72 13.24 16.14 13.17z" fill="#fff"></path><path d="M435 379.4c21.3 0 22.56-33.14 1.16-33.14S413.63 379.4 435 379.4z" fill="#fff"></path><path d="M530.13 509.67c2 4.41 4.94 7.9 10 9.48a16.53 16.53 0 0 0 16.07-3.65c9-8.42 5.35-22.46-5.28-27.1a11.21 11.21 0 0 0-1-.73l-2.29-1.76c-5.79-4.45-14.75-2.05-19 3.11-4.94 6-4 13.41.47 19.29z" fill="#fff"></path><path d="M59.83 479.09c22.18 0 23.49-34.51 1.21-34.51s-23.49 34.51-1.21 34.51z" fill="#fff"></path><path d="M827 557.69c-6.65.06-14.53 4.24-16 11.33l-.51 2.44c-2.2 10.48 3.82 21.32 15.37 21.72 11 .38 19.09-10 16.85-20.59-.17-.83-.35-1.66-.52-2.48-1.46-6.67-8.31-12.49-15.19-12.42z" fill="#fff"></path><path d="M628.94 214c1.54 6.38 7.77 12 14.54 11.9 6.51-.07 13.7-4.08 15.33-10.85.63-2.63 1-5.31 1.37-8 1.4-9.76-9.06-17.37-17.75-16.51-10.25 1-15.52 10.06-14.15 19.7a37.64 37.64 0 0 0 .66 3.76z" fill="#fff"></path><path d="M294.38 399.08a15.74 15.74 0 0 0 15.95-14.87 23.21 23.21 0 0 0 0-3.91c-.42-4.27-1.07-7.76-4.12-11a15.66 15.66 0 0 0-10.72-4.88c-8.78.08-15.06 6.24-15.91 14.84a23.21 23.21 0 0 0 0 3.91c.42 7.99 5.9 16 14.8 15.91z" fill="#fff"></path></g></g></svg>