<svg xmlns="http://www.w3.org/2000/svg" viewBox="-0.00550079345703125 -0.00533294677734375 1079.9808349609375 1138.7733154296875" style=""><g><g data-name="Слой 2"><g data-name="Слой 1"><g data-name="Слой 2"><path d="M394.23 864.46c-9-.28-18.42 1-27.41 1.57-62 4.07-123.82 7.15-186 6.66-29.76-.23-59.48-.54-89.07-4.13-17-2.06-38.7-3.44-51.13-16.32-5.26-5.45-13.75-7.31-20.92-5.23-2.7.78-18.91 11.14-14.89 15.6-1.34-1.49 2 19.55 4.41 23.58a41.61 41.61 0 0 0 6 7.24C20.06 898.18 26 901.85 32 905a136.57 136.57 0 0 0 27.62 10.68c28.82 8.08 59.08 11.83 88.79 14.76 65 6.42 130.71 6.17 196 4.85 22.81-.45 56.38 2 76.28-10.07 11.3-6.87 19.19-19 17.08-32.42-3.14-19.62-25.77-27.8-43.54-28.34z" fill="#aa591e"></path><path d="M750.77 821.45c-30.26-10.12-45.4 28.65-56.47 49.83-17.81 34.09-32.55 69.82-52.66 102.72-14.32 23.41-29.62 46.64-48.14 67-19.31 21.2-45.11 34.09-65.29 54.34-11.4 11.44-20.4 23.86-3.32 34.5 56.33 35.08 99.87-42.14 130.43-77.46a414.59 414.59 0 0 0 38.69-51.8c22-35.39 38.91-73.6 59.22-110 5.09-9.13 11.91-17.9 16.11-27.46a30.79 30.79 0 0 0-15.77-40.59c-.92-.41-1.85-.77-2.8-1.08z" fill="#aa591e"></path><path d="M1018.52 689.19c-23.85-40.81-50.34-79.87-77-118.88 46.29-55.27 61.42-82.68 87.38-132.76a460.9 460.9 0 0 0 35.42-90.35c7.42-27.3 15.91-60.06-.25-85.42-12.26-19.25-37.49-14.41-48.51 2.62-10.58 16.35-9.4 38.34-14.4 56.62-3.91 14.28-8.94 28.23-14.21 42.06-8.46 22.22-17.39 44.46-27.36 66-16.92 36.58-39.34 86.32-74.5 108.81-12.71 8.14-20 27.92-10.08 41.24 29.41 39.62 58.49 79.48 85.6 120.73 23 35 45.11 71.2 61.72 109.78 6 13.83 18.22 39.18 7.61 53.36s7.11 29.29 21 23.81c71.96-28.18-9.7-158.74-32.42-197.62z" fill="#aa591e"></path><path d="M743.46 187.32c-22.87-31.1-41.37-65.09-65-95.7-19-24.63-40.7-49.73-66-68C596.52 12 578.64 1.36 558.46.36c-13.3-.66-31.57 3.09-38.2 16.23C517 23 516.11 34 521.86 39.53c8.39 8.08 23 6.84 30.16 10.34 6.24 3 11.9 7.47 17.07 12a228.31 228.31 0 0 1 23.4 24.77 467.73 467.73 0 0 1 39.74 57c17.61 29.92 33.27 61.25 52.73 90 8 11.88 17.3 22.87 25.81 34.39 4 5.48 7.8 11.06 11.4 16.83.7 1.13 3.81 5.95 2.57 3.66 3.52 6.17 6.45 11.74 11.52 17.47 22.08 24.91 78.27 47 80.12 17.14 2.33-37.57-52.71-108.34-72.92-135.81z" fill="#aa591e"></path><path d="M1067.15 322c11.4-28 16.66-61.09-6.45-85-20.4-21.14-52.8-25.41-80.65-26.14-68.6-1.82-137.16 15.55-204.16 27.31-14.13 2.48-51.39 7.91-51.39 7.91s-17-29.45-24.36-41.73c-14.53-24.27-26.85-49.79-41.43-74.06-14.85-24.71-30.51-49-46.59-72.91-12.51-18.59-25.91-41-46.47-51.86-51.18-27-94.35 51.94-114.39 86-15.29 26-28.77 53-44 79.05-12.51 21.37-22 44.24-33.1 66.33-60.69-5.13-107.52-.73-182.21-2-52.22-.89-102.28-6.55-153.48 6.18-64.73 16.16 30.78 177.5 44.32 200.78 27.78 47.76 56.75 95.27 90.29 139.27-5.68 13.08-21.44 31.66-27.16 39.52-9.66 13.3-19 26.81-28.48 40.25-16.11 22.83-31.61 45.47-49 67.43C39.59 764.85-17.13 844.9 5 883.37c14 24.35 77.06 22 110.57 24.35 44.75 3.1 66.5 3.9 140.16 0 28.33-1.51 73.68-4.81 101.6-10.06 26.1 41.4 49.23 71.71 69.7 102.14 28.48 42.33 44.48 71.17 70.7 104.31 10.06 12.71 20.32 26.74 37.7 28.69 18 2 35.27-9.17 46-22.1 38.94-46.89 59.42-81.34 85.43-117.13 22.46-30.92 58.5-103.73 68.52-110.2 15.44-10 106 14.83 147.69 19 43.17 4.31 198.47 43.92 186-46.75-5.64-41-36.74-71.86-58.57-104.8-26.25-39.61-51.33-79.51-79.14-118.08-12.1-16.79-38-46.65-44.93-66.23 32.1-41.47 63.29-67.46 88.76-104 32.81-47.01 70.3-87.25 91.96-140.51z" fill="#ce7e2d"></path><path d="M1050.68 867.5c-12-26.64-26.63-49.51-44.59-72.44-18.33-23.42-35.47-47.73-53.06-71.69-19.2-26.14-40-51-59.56-76.88-7.37-9.71-14.54-19.33-20.73-29.84-5.13-8.74-9.82-17-16.09-24.29a11 11 0 0 0 2.69-3.24C891 530 930.07 474.81 965.78 418.09c15.66-24.87 30.54-50.21 46-75.21 11.45-18.56 26.18-41.26 24.3-64.08-.46-5.51-4.81-11-10.88-10.53C973.87 272 922.86 279 872.06 287c-23.86 3.75-47.78 7.23-71.48 12-26.94 5.38-52.85 15-79.85 20-23.44-41.24-46.2-82.19-73-121.43Q614 148.12 581 98.37c-10.83-16.4-28.87-49-50.45-27.64-9.06 9-14.5 21.14-20.56 32.2-11.33 20.68-22.2 41.55-32.8 62.62-11.85 23.57-24.47 46.7-36.65 70.09-5.48 10.54-11.4 21-15.89 32-2.49 6.12-4.89 12.19-7.64 18.09h-.19c-27-.17-53.91-4.39-80.78-6.75-28.51-2.5-57.05-4.69-85.62-6.2-28.74-1.53-57.55-2.83-86.34-3.14-31.71-.33-64.93-2.92-96.17 3.21a4.42 4.42 0 0 0-1.91 1c-3.63-.55-7.82 2.93-5.83 6.72 6.84 13 14.84 25.44 21.71 38.51 6.18 11.76 12.3 23.53 18.91 35.06 15.64 27.3 32.5 53.88 50.21 79.88 18 26.31 36.49 52.2 55.36 77.85q14.2 19.32 28.6 38.51c4.91 6.53 9.9 13 14.87 19.49.88 1.15 1.73 2.41 2.58 3.63a35.42 35.42 0 0 0 3.57 6.28 48.45 48.45 0 0 0 4.06 5c-17.54 13.82-32.23 32.59-47.61 48.42-19.44 20-36.46 42.14-53.82 63.91-35.45 44.48-73.1 87.31-103.37 135.64C51 839.48 57 847.2 64 847.58c55.76 3 111.54 2.87 167.35 3.68 56.06.81 112.09 1.64 168.16 1.82a9.47 9.47 0 0 0 3.83-1 .2.2 0 0 0 .07.18c1.29 2.54 2.84 5 4.38 7.4s3.44 4.45 5.17 6.67c5.8 10.64 11.35 21.48 17.46 31.45q22.59 36.86 45.08 73.78c22.84 37.61 41.45 79.73 76.34 108.11 4.58 3.72 11.31 1.34 13.59-3.7 9.68-21.51 24.4-40 37.6-59.34 13.9-20.4 27.2-41.21 41.36-61.44 27.26-39 49.63-81.43 79.5-118.52a9.36 9.36 0 0 0 2-4.94c20.61 3.78 41 8.1 61.44 13.45 26.81 7 54.33 9.66 81.69 13.75 27.89 4.16 55.76 8.45 83.68 12.4 13.11 1.85 26.18 3.73 39.41 4.54 11.45.71 22.82 1.58 34 4a8.37 8.37 0 0 0 7.47 2.67c3.62-.45 7.05-1.54 10.64-2.15 5.98-1.05 8.78-7.65 6.46-12.89zm-93.49-16.44c-28.41-4-56.74-8.55-85.15-12.44-27.91-3.82-55.75-6.64-83.3-12.62-20.91-4.54-44.43-11.06-65.82-6.73-1.66-2.63-3.41-5.22-5-7.88-2.57-4.24-5.21-8.43-7.68-12.73-4.34-7.56-8.14-15.54-13.32-22.57a6.1 6.1 0 0 0-7-2c-2.27.9-4.36 3.72-3.76 6.26 1.36 5.86 3.93 11.34 6.28 16.85q2.85 6.69 5.94 13.29A107.58 107.58 0 0 0 704 821c1.33 2.18 2.69 4.38 4.19 6.47-29.81 36.53-51.78 78.78-78.56 117.43-14.52 21-28 42.55-42.37 63.62-11.12 16.36-23.17 32.27-32.6 49.69-30-28.39-47.73-68.79-69.08-103.44-14.62-23.73-29.92-47-45-70.45-9-14-16.88-29.07-27.71-41.71 0-.09.13-.1.16-.19 1.58-4.85 2.61-9.12 5.66-14.19a114.76 114.76 0 0 1 7.41-10.5c4.67-6.15 9.4-12.28 13.46-18.87 3.05-4.94 6.67-11.75 2.37-17.07a5.85 5.85 0 0 0-3.31-2.12c-.86-.18-9.07 4.77-9.69 5.61-.25.36-.43.79-.65 1.16-.68 1.19-1.42 2.34-2.12 3.51 0 0-.68 1.14-.27.48s-.77 1.19-.74 1.15c-4.09 6.28-9 12-13.16 18.18-4.59 6.8-9.53 14.2-11.28 22.28a1.88 1.88 0 0 0-.47-.1c-56.64.18-113.24-.28-169.88-.86-49.41-.5-98.71-.56-148.06-2.69 27.7-41.11 60.25-78.65 90.93-117.55 16.21-20.56 32.1-41.45 50.08-60.53 8.23-8.73 16.87-17 24.76-26 9.33-10.71 18.17-21.66 28.75-31.21a7 7 0 0 0 2-3.19l1.33.09a57.2 57.2 0 0 0 6-.23c4.13-.33 8.23-.9 12.3-1.62 3.76-.65 7.44-1.48 11.13-2.4 4.42-1.1 9.4-1.82 13.3-4.18a7.24 7.24 0 0 0 3.44-7.9c-.82-3.26-3.62-4.94-6.77-5.33 1.33.42.88.37-1.33-.16a13.23 13.23 0 0 0-2.51.22c-1.07.18-2.12.46-3.17.71l-5.34 1.29-11.26 2.73c-3.53.87-7.08 1.63-10.67 2.18s-7.23.7-10.72 1.46c-.89-1-1.79-2.07-2.69-3.09a81.27 81.27 0 0 0-6-8.69q-7-9.51-13.92-19c-9.53-12.93-19.18-25.76-28.71-38.69-18.6-25.25-36.93-50.71-54.66-76.58-16.56-24-32.75-48.09-48-72.76-9.36-15.18-17.81-30.77-26.46-46.35-5.38-9.68-11-20-18.16-28.8 26.44 4 53.67 3.34 80.29 4.64 30.43 1.49 60.86 2.88 91.26 4.9 27.57 1.83 55.13 3.85 82.64 6.38 12.12 1.12 52.58 5.48 77.12 2.87a27 27 0 0 0 1 3.59c.33 1 .73 2 1.11 3q1.1 3 2.21 6l4.22 11.57c3.19 8.8 5.73 19.12 11.63 26.5 3.89 4.87 12.4.87 12.14-5S437 335.69 435 330.15c-1.47-4-3.08-8-4.65-12s-3.15-7.9-4.76-11.84c-1.08-2.64-2.09-5.35-3.35-7.9-.05-.13-.12-.25-.18-.37a11.42 11.42 0 0 0 3.27-2.27c6-9.5 10-20.38 15.14-30.28 10.3-19.81 21.15-39.31 31.69-59 18.62-34.75 36.35-70 55-104.66a118.58 118.58 0 0 1 10.14-16.45c4.45-5.76 6.47-9.68 11.29-4.41 8 8.75 13.8 19.62 19.93 29.67 19.92 32.65 41.59 64.14 63.16 95.71 25.37 37.14 47.27 76 70 114.7a8 8 0 0 0-1 .93c-4.16 5.2-7.33 11.23-11.21 16.66-2.1 2.94-4.15 5.93-6.32 8.83-3.08 4.12-6.65 8-8 13.08-.76 2.77 2.3 5.69 5 5.22 6.27-1.1 10.42-6.07 14.35-10.48a107.36 107.36 0 0 0 7-8.64 138.05 138.05 0 0 0 8.5-13.3 7 7 0 0 0 5.71.86 6.58 6.58 0 0 0 2.95.45c25.91-1.75 50.44-10.61 75.83-15.37s51.22-8.38 76.92-11.84c47.35-6.39 94.66-13 142.3-16.76-3.5 17.68-16.54 35.2-25.4 49.33-15.52 24.76-30.17 50.06-45.75 74.8-34.26 54.42-71.69 107.3-102.05 164a8.57 8.57 0 0 0-.53 1.94 50.1 50.1 0 0 0-7.72-1 100.16 100.16 0 0 0-10.68-.15c-4.72.15-9.49.3-14.19.79-4.53.47-9.21.62-13.62 1.78a7.13 7.13 0 0 0-5.47 6.51c-.11 2.66 1.9 6.62 4.89 6.94 2.47.27 4.38.79 6.75.87l2.85.07c2.78 0 5.57.06 8.35 0 3.51-.11 7-.19 10.53-.18s7.17.14 10.74.47 7.82 1.39 11.33.61c.29-.07.48-.26.76-.34 7 10 12 21.73 17.75 32.35 7.1 13.11 16.17 25 25 37 17.3 23.47 35.19 46.5 52.36 70.08s34.1 47.64 52.16 70.71a363 363 0 0 1 34.32 51.6c-22.35-4.87-46.33-4.61-68.9-7.81z" fill="#aa591e"></path><path d="M912 726.78c-7.11-3.61-17.14-2.84-25-3.28-7-.39-14-.93-21.07-1-8.18 0-16.48 0-24.57 1.39-2.18.37-4.34 1-6.51 1.57l-6.52-4.63c-5.83-4.15-11.79-8.11-17.81-12a93.57 93.57 0 0 0 16.4.09c5.77-.5 11.5-1.4 17.22-2.24 6.19-.9 12.34-1.84 18.57-2.4 4-.35 6.14-1.13 9.12-4 2.36-2.23 1.82-5.82-.14-8-6.71-7.64-24.46-3.5-33.37-2-5.62 1-11.26 2-17 2.46-5.52.45-11.07 0-16.6.1a57.33 57.33 0 0 0-9.88.69 21.75 21.75 0 0 0-6.09 1.89c-14-8.2-28.22-16-42.47-23.52-55.87-29.69-108-65.52-164.39-93.76A46 46 0 0 0 586 566l2.54-.24a143.33 143.33 0 0 1 17.34-.27c9.66.23 19.2.86 28.89.63 13.26-.3 26.53-1 39.77-1.71 6.37-.33 12.72-.49 19.09-.63 5.88-.13 12.83.65 18-2.61 2.9-1.83 4.14-6.27 1.27-8.85-5.21-4.69-12.54-4.86-19.29-5.16-7.47-.32-15-.2-22.47.06-14.47.5-28.9 1.91-43.38 2.16-12 .2-28.13-1.46-41 2.37a57.34 57.34 0 0 0-1.53-7.81c14.19-6.15 29.63-19.45 37.39-24.68 29.75-20 62-37.61 94-53.77 14.2-7.18 28.43-14.25 42.64-21.39.38.23.56.6 1 .77 5.15 1.84 11 2.47 16.34 3.7 3.77.87 7.55 1.73 11.36 2.44a104.38 104.38 0 0 0 26 1.31c8.39-.57 16.74-1.7 25.12-2.46 7.48-.68 18.6.06 22.28-7.78.83-1.77.43-3.27.07-5.05-1.58-8.07-16.37-6.75-22.52-6-4.66.53-9.3 1.31-14 1.95-6.57.9-13.16 1.77-19.78 2.09a112.78 112.78 0 0 1-18.19-.57c-2.37-.27-4.84-.62-7.33-1 10.95-5.63 21.92-11.19 32.73-17.12 2.83-1.56 5.65-3.15 8.49-4.71 5.49 3.16 8.32 3.39 13.88 3.5 2.77.06 5.52.18 8.29.05 4.89-.23 9.78-.62 14.67-.9 3.86-.22 7.69-.53 11.53-.9 5.12-.5 10.36-.63 14.7-3.59a7.16 7.16 0 0 0 2.8-3.82c.26-.88 1-4 0-4.65-6.75-4.55-9.12-6.06-15.78-5.43l-5.9.57c-5.48.54-10.92 1.36-16.38 2-2 .24-3.91.53-5.87.78 6.59-3.78 13.17-7.57 19.6-11.6 14.91-9.32 36.94-18.83 45.48-34.67 2.58-4.78-2.74-8.88-7-8.7-14.78.61-28.51 12.11-41.29 19-12.11 6.57-24.2 13.18-36.32 19.73 2.74-3.47 5.44-6.95 8.23-10.39 4-4.92 7.84-10 11.72-15 2.31-3 4.45-6 6.54-9.12 2.59-3.9 5.16-7.58 4.35-12.45-.68-4.1-3.56-4.68-7-4.4-5.52.44-10.21 7.9-13.32 11.75-2.07 2.58-4 5.26-6 7.87-4.47 5.78-8.85 11.58-13.1 17.52-4 5.62-7.83 11.4-11.48 17.25a106.28 106.28 0 0 0-5.46 9.93l-.26.53c-9.23 4.71-18.43 9.44-27.71 14 6.37-9.36 12.75-18.71 18.77-28.29 3.84-6.11 7.6-12.27 11.17-18.54 1.78-3.12 3.53-6.26 5.18-9.46 1-2 1.84-4 2.72-6 1.72-4 1.83-6.2.42-10.47-1.18-3.56-6.06-4.7-9.13-3.32-2.24 1-5.57 5-6.86 7.15-.44.75-.84 1.54-1.24 2.32-.74 1.4-1.42 2.83-2.14 4.25-1.54 3-3.15 6.05-4.79 9-3.28 6-6.72 11.83-10.22 17.67-7.63 12.73-15.63 25.31-22.06 38.71a5.46 5.46 0 0 0 .51 5.77c-15.43 7.51-30.89 14.95-46.31 22.53a798 798 0 0 0-93.51 53.85c-10.35 7-20.13 14.79-30.5 21.73-2.45 1.64-5.48 3.24-8.52 4.92a34.42 34.42 0 0 0-3.81-3c1.23-3.29 2.41-6.6 3.9-9.81 4.52-9.68 9.82-19 15.15-28.27 5-8.61 10.06-17.15 14.8-25.89a133.34 133.34 0 0 0 7.42-15.89c1.82-4.78 3.38-9.7 1.12-14.57a4.73 4.73 0 0 0-6.22-2.28c-5.82 2.78-8.11 9.57-11 14.91-2.44 4.52-4.76 9.1-7.2 13.62-4.85 9-10 17.77-14.93 26.7a204.09 204.09 0 0 0-12.89 26.78c-.72 1.91-1.58 4.12-2.44 6.46-1.46-10.14-1.65-20.58-1.67-30.62 0-21.9 1.24-43.74 2.47-65.6.53-9.33.74-18.64.93-28a4.18 4.18 0 0 0 .56-.28c7.08-6.61 12.13-15.81 17.17-24 4.86-7.89 9.8-15.74 14.6-23.67 8.49-14.08 17.68-27.69 26.38-41.63 4.8-7.68-6.93-15.72-12.82-9.09-11.1 12.48-19.42 27.9-28 42.18-4.91 8.21-9.53 16.59-14.3 24.88-1.05 1.84-2.2 3.74-3.33 5.61 0-4.77.07-9.53.07-14.31 0-5.18.12-10.44.2-15.68 1-1.8 1.9-3.54 2.71-5 2.88-5.09 5.67-10.24 8.52-15.35 4.26-7.64 8.13-15.5 12.12-23.29s7.91-15.43 11.9-23.12c2.43-4.67 4.61-9.46 6.83-14.22 1.73-3.7 2.95-8.3 0-11.77a6.29 6.29 0 0 0-5.3-2.51c-7.35.06-12.79 12.37-15.79 18-2.07 3.91-4 7.89-6 11.85q-5.85 11.67-11.65 23.37c-1 2-1.92 4-2.9 6 0-19.39-.7-38.74-4-57.54-1.76-10-16.11-10.68-18-.34-3.31 17.78-4 36.25-4 54.74-5.69-18.3-11.54-36.67-17.9-54.75-1.78-5.07-7.2-5.63-11.2-3.55l.27-.51a7.51 7.51 0 0 0-3.27 2.89c-.09.12-.18.23-.26.35a7.62 7.62 0 0 0-.64 1.39 6.71 6.71 0 0 0-.5 1.47 7.27 7.27 0 0 0 0 2.79c4 20.13 12.51 39.34 19 58.72 2.63 7.83 4.58 15.78 6.67 23.75 1.91 7.26 4.07 15.12 8.36 21.4 0 7.17-.06 14.33-.11 21.49-3.33-5.55-6.54-11.18-9.42-17-4.42-9-9.13-17.83-13.92-26.62-5-9.18-9.84-20-17.19-27.48-3.3-3.37-7.71.42-7.09 4.29 1.65 10.16 7.6 20.36 11.88 29.63 5.07 11 9.46 22.3 14.72 33.18 4.4 9.12 9.89 17.65 15.13 26.29 1.75 2.89 3.48 5.79 5.22 8.69-.17 5.1-.21 10.2-.5 15.3-1.23 21.83-2.82 43.73-2.47 65.6.17 11 .6 22.72 2.37 34.13a39.75 39.75 0 0 0-4.49 2.21c-1.1-1.45-2.23-2.89-3.23-4.36-6-8.85-11.57-18-17-27.22s-10.54-18.52-15.67-27.88c-2.77-5-5.62-10.07-8.42-15.1s-5.49-10.43-9.8-14.16c-2.22-1.93-6.32.07-6.3 3 .09 10.53 6.69 21.72 10.81 31.22 4.61 10.66 10.12 21 15.7 31.2 4.41 8.08 9.41 15.86 14.41 23.59-2-.93-4-2-5.91-2.87-27.63-12.71-56.61-22.19-84.27-34.78-17.82-8.1-35.3-17.48-52.52-27.23-.9-4.77-3.1-9.39-4.82-13.88s-3.81-9-5.63-13.49c-3-7.46-6-14.91-9.14-22.32-3-7.17-6.08-14.33-9.33-21.41-3.52-7.7-7.16-16.91-13.37-22.78-4.75-4.48-14.54-.35-13.25 6.62 1.77 9.54 7.87 18.9 11.91 27.68 3.26 7.06 6.34 14.19 9.43 21.32 3.45 8 7.11 15.83 10.88 23.65.23.49.51 1.06.75 1.58-3.71-2.19-7.44-4.37-11.12-6.55-12.67-7.52-24.77-15.67-36.75-24-.12-1-.15-2.09-.31-3-.41-2.31-1-4.6-1.62-6.86a130.08 130.08 0 0 0-4.7-14.31 174.71 174.71 0 0 0-12.14-25.37c-3.07-5.09-7.56-13.59-14.11-14.42-4.33-.55-7.36 3.21-7 7.26.39 4.46 2.84 8.33 4.83 12.21 4.18 8.16 8.72 16.08 12.41 24.5.86 1.94 1.61 3.92 2.43 5.87-11.58-8.21-23.17-16.44-35.07-24.36-3.48-2.32-7.66 2.19-5.7 5.61 7.89 13.83 19 25.82 31.52 36.6l-.43-.06c-5.55-.75-11.12-1.39-16.7-2-6.28-.64-12.58-1-18.87-1.57-5.62-.48-12.21-1.9-17.74-.56a6.29 6.29 0 0 0-5.13 5.38c-.34 3.19 1.66 4.66 3.9 6.34 3.23 2.41 10.19 2.88 14.43 3.48 3 .43 5.94.82 8.92 1.2 5.84.75 11.67 1.53 17.53 2.22 5.41.63 10.83 1.33 16.22 2.18 2.39.38 4.78.75 7.19 1.05 1.72.21 3.51.64 5.24.69 2.4.08 4.12-1.1 5.84-2.47 9.55 6.79 19.32 13.11 28.7 19 5.85 3.68 11.77 7.31 17.7 10.93-9.92-.08-19.85 0-29.77.14-20.83.18-43-.84-63.38 4-4.92 1.16-4.36 9 .47 9.8 22.88 3.93 46.93 3 70.09 3.43 11.37.21 22.71.4 34.08.36 3.61 0 10.08-.26 14.33-2.38 14.94 8.57 30.1 16.76 45.4 24.26 33.25 16.3 68.86 27 101.57 43.21-.83 1.78-1.46 3.63-2.12 5.47-10.27-.29-20.54.08-30.8.37-14.12.41-28.23.17-42.35.64-14.91.5-31.19-.49-45.76 3-5.54 1.31-5.39 9.71.06 11 14.39 3.42 30.55 2.52 45.26 2.94 13.24.37 26.5.55 39.75.39 10.2-.12 20.41-.36 30.61-.07a48.66 48.66 0 0 0 .86 8.92c-14.31 7-27.35 17.11-40.52 26.43-26.87 19-57.41 32-86.3 47.51-23 12.35-46.75 23.89-69.77 36.53-5.12-1.06-11-.58-15.55-.5-5.8.1-11.6.16-17.4.09-13.24-.15-26.36-1.06-39.55-2-6.12-.46-8.19 8.29-2.37 10.49l3.17 1.21a40.89 40.89 0 0 0 5.32 1.64c3.56.81 7.17 1.39 10.77 2a204.68 204.68 0 0 0 21.82 2.37c2.64.13 5.29.12 7.93.2-6.18 3.9-12.44 7.7-18.36 12a5.93 5.93 0 0 0-2.6-1.53c-9.63-1.55-19.43-.89-29.15-.71a72.88 72.88 0 0 0-13.43 1.25c-3.14.64-6.73 1.61-7.18 5.36a5.26 5.26 0 0 0 .78 3.39c.43.71 2.81 3.31 3.9 2.56.32-.22 3.37.87 4.05 1 1.55.23 3.13.42 4.69.59s2.92.28 4.39.31c3.18.06 6.36.08 9.55.17 3 .08 6 .13 9.06.13a227.64 227.64 0 0 0-19.93 18.61c-5.8 6.21 1.91 15.53 8.79 10.1a239.34 239.34 0 0 1 21.1-14.68c-.29 1.85-.57 3.72-.86 5.57a79.66 79.66 0 0 0 .85 28.63c1 4.87 8.35 3.39 8.39-1.29.08-8.76 2.69-17.24 4.22-25.82.93-5.23 2.13-10.73 2.67-16.18 11.53-6.5 23.32-12.52 35-18.49-.23 4.54-.7 9-1.28 13.56s-1.13 8.87-1.77 13.29c-.52 3.61-1.27 7.2-1.65 10.82-.46 4.48-1.38 9.57-.31 14a5.78 5.78 0 0 0 4.51 3.84c.88.16 5.83-.33 5.57-2a16.93 16.93 0 0 0 2.47-5.72c.35-1.2.71-2.38 1.08-3.57.47-1.59.94-3.18 1.36-4.77 1-3.6 1.77-7.27 2.59-10.91 1.18-5.27 2.29-10.56 3-15.91.67-4.94 1.17-9.92 1.35-14.91a51.67 51.67 0 0 0-.15-6.1c22.17-11.09 44.63-21.56 66.49-33.28C414 653.64 441 641.86 465.57 625.8 482 615 497 602.27 514.32 593.89a45 45 0 0 0 5.38 3.7c-2.8 5.23-5.58 10.47-8.5 15.64-6.77 12-13.87 23.84-20 36.17-5.43 11-9.43 22.44-13.29 34-2.1 6.33-4.12 12.71-6.67 18.88-1.94 4.69-5.32 9.15-6.56 14-1.19 4.65 3.8 10.56 8.68 7.49 9-5.69 14.17-19.67 18-29.27 4.87-12.32 9.26-24.58 15.36-36.38 6.3-12.21 13.35-24 20.15-35.93 3.67-6.43 7.3-12.89 10.51-19.55.82 0 1.65.08 2.46 0 3.09 27 1.72 55.27 2.22 82.24.43 23.3 1.49 46.29 4.36 69.42 1.83 14.69 3.93 29.35 6 44l-.24.28c-8.53 9.67-17.35 19.21-25 29.58a129.35 129.35 0 0 0-12.3 20c-2.48 5-6.85 13.63-3.94 19a5.63 5.63 0 0 0 7.5 2.33c3.22-1.78 4-5.06 5.65-8.11 1.53-2.83 3.14-5.66 4.93-8.33a174.22 174.22 0 0 1 13-16.53c4.36-5 8.91-9.91 13.45-14.8.18 1.46.41 2.9.58 4.36.62 5.17 1 10.43 1.29 15.7a62.42 62.42 0 0 0-4.38 5.73c-1.3 1.86-2.68 3.67-4.1 5.45-3.11 3.9-6.4 7.66-9.6 11.48-7 8.29-14.6 18.42-16.1 29.42-.82 6 8.09 8.24 10.31 2.58 3.9-10 11.13-17.57 18.06-25.51 2.36-2.7 4.68-5.42 7-8.15.73 13.22 1.8 26.39 4.94 39 1.77 7.13 13.59 7.94 16.25 1 4.45-11.54 5.66-24 5.4-36.49 1.36 2.52 2.67 5.07 4.16 7.53 3.77 6.19 7.49 12.49 10 19.33A6.81 6.81 0 0 0 608 897c3.59-1.42 4.83-5.24 3.76-8.71-.13-.46-.28-.92-.44-1.38-.3-.92-.64-1.82-1-2.72a35.2 35.2 0 0 0-2.35-4.82 133.25 133.25 0 0 0-7.38-11.37c-3-4.18-6.28-8.29-9.17-12.57-2.2-3.25-3.88-7.6-7.52-9.36h-.2c-.6-5.62-1.3-11.2-2-16.66 2.22 3.65 4.24 7.42 6.73 10.93q5.66 8 11.87 15.59c4.25 5.19 8.57 10.86 14.2 14.57 3.37 2.23 7.61 2.5 10.65-.51a8.19 8.19 0 0 0 1-10.62c-4.5-6.68-10.82-12.34-15.93-18.62s-9.84-12.75-14.46-19.36a178.34 178.34 0 0 1-9.76-15.25c-1.6-2.87-3-5.85-4.47-8.76a8 8 0 0 0-4.61-3.94c-2.36-16.52-4.77-33-6.76-49.6-5.52-45.94-5.28-91.55-16.34-136.28 2.31 4.73 4.7 9.43 7.13 14.09 6.85 13.07 14.18 25.86 21.56 38.62 7.15 12.37 14.25 24.8 21.7 37 2.79 4.57 5.65 9.1 8.5 13.64 3.4 5.38 7.27 13.31 13.46 15.39 2.83 1 6.44-1.53 6.89-4.37 1-6.49-4.67-14.25-7.72-19.59s-6-10.63-9.1-15.91c-7.52-12.85-15.15-25.63-22.6-38.52q-10.64-18.39-21.12-36.86c-2.83-5-5.53-10-8.37-15a33 33 0 0 0 7.39-4.6c.75-.65 1.31-1.44 2-2.13 27.83 19.21 54.36 40.81 82.57 59.57 28.69 19.08 59 34.9 89 51.76q11.68 6.57 23.25 13.26a36.83 36.83 0 0 0 .85 5.32 193.66 193.66 0 0 0 6.26 20.36c2.58 7.48 5.46 14.85 7.6 22.47C787 776 790.36 790.37 800 801.58c2.47 2.86 6.52 2.44 9.54 1.08 8.12-3.63-2.48-20.17-4.66-25.94-2.57-6.76-4.45-13.78-6.55-20.69-2.37-7.81-5.23-15.41-8.36-22.93-1.14-2.72-2.09-5.5-3.13-8.24 8.52 5.18 16.77 10.79 25 16.38.65 7 2.92 13.57 5.37 20.15 2.56 6.91 5.29 13.76 8 20.62 2.23 5.71 4.73 11.3 7.17 16.93 2.62 6.06 5.62 19.22 14.5 17.37 10.56-2.2 4-15 1.42-21.1-2.43-5.73-4.78-11.51-7.44-17.13-3.21-6.75-6.26-13.59-9.33-20.41-.66-1.47-1.33-2.9-2-4.36 18.59 13.46 38.88 27.7 62.26 27.33 10.58-.16 14.29-14.18 3.92-18.43-15.4-6.32-29.67-15.15-43.52-24.58h.58c6.81.1 13.62.57 20.41.88 6.4.29 12.8.7 19.2 1s13.44 1 19.37-1.74c4.4-1.92 4.36-8.89.25-10.99z" fill="#aa591e"></path><path d="M903.33 726.78c-7.12-3.61-17.15-2.84-25-3.28-7-.39-14.05-.93-21.07-1-8.18 0-16.48 0-24.56 1.39-2.19.37-4.35 1-6.52 1.57l-6.52-4.63c-5.83-4.15-11.79-8.11-17.81-12a93.57 93.57 0 0 0 16.4.09c5.77-.5 11.5-1.4 17.22-2.24 6.19-.9 12.34-1.84 18.57-2.4 4-.35 6.14-1.13 9.12-4 2.36-2.23 1.82-5.82-.13-8-6.72-7.64-24.47-3.5-33.38-2-5.62 1-11.26 2-17 2.46-5.51.45-11.07 0-16.6.1a56.24 56.24 0 0 0-9.87.69 21.43 21.43 0 0 0-6.09 1.89c-14-8.2-28.23-16-42.48-23.52-55.86-29.69-108-65.52-164.39-93.76a46 46 0 0 0 4.1-12.22l2.54-.24a143.33 143.33 0 0 1 17.34-.27c9.66.23 19.2.86 28.89.63 13.26-.3 26.53-1 39.78-1.71 6.36-.33 12.71-.49 19.08-.63 5.88-.13 12.83.65 18-2.61 2.9-1.83 4.14-6.27 1.28-8.85-5.22-4.69-12.55-4.86-19.3-5.16-7.47-.32-15-.2-22.47.06-14.47.5-28.9 1.91-43.38 2.16-12 .2-28.13-1.46-41 2.37a57.34 57.34 0 0 0-1.53-7.81c14.19-6.15 29.64-19.45 37.39-24.68 29.75-20 62-37.61 94-53.77 14.2-7.18 28.44-14.25 42.64-21.39.38.23.56.6 1 .77 5.14 1.84 11 2.47 16.33 3.7 3.77.87 7.55 1.73 11.36 2.44a104.38 104.38 0 0 0 26 1.31c8.39-.57 16.74-1.7 25.12-2.46 7.48-.68 18.6.06 22.29-7.78.82-1.77.42-3.27.07-5.05-1.59-8.07-16.38-6.75-22.53-6-4.66.53-9.3 1.31-14 1.95-6.57.9-13.15 1.77-19.78 2.09a112.78 112.78 0 0 1-18.19-.57c-2.37-.27-4.84-.62-7.33-1 11-5.63 21.92-11.19 32.73-17.12l8.49-4.71c5.49 3.16 8.32 3.39 13.88 3.5 2.77.06 5.52.18 8.29.05 4.89-.23 9.78-.62 14.67-.9 3.86-.22 7.69-.53 11.53-.9 5.12-.5 10.36-.63 14.7-3.59a7.16 7.16 0 0 0 2.8-3.82c.26-.88 1-4 0-4.65-6.75-4.55-9.12-6.06-15.78-5.43l-5.9.57c-5.47.54-10.92 1.36-16.38 2-2 .24-3.91.53-5.87.78 6.59-3.78 13.17-7.57 19.6-11.6 14.91-9.32 36.94-18.83 45.48-34.67 2.58-4.78-2.74-8.88-7-8.7-14.78.61-28.51 12.11-41.29 19-12.11 6.57-24.2 13.18-36.32 19.73 2.74-3.47 5.44-6.95 8.23-10.39 4-4.92 7.84-10 11.72-15 2.31-3 4.45-6 6.54-9.12 2.6-3.9 5.16-7.58 4.35-12.45-.68-4.1-3.56-4.68-7-4.4-5.52.44-10.21 7.9-13.32 11.75-2.07 2.58-4 5.26-6 7.87-4.46 5.78-8.85 11.58-13.1 17.52-4 5.62-7.83 11.4-11.48 17.25a110 110 0 0 0-5.46 9.93c-.08.17-.17.36-.26.53-9.22 4.71-18.43 9.44-27.71 14 6.37-9.36 12.76-18.71 18.77-28.29 3.84-6.11 7.6-12.27 11.18-18.54 1.77-3.12 3.52-6.26 5.17-9.46 1-2 1.84-4 2.72-6 1.72-4 1.83-6.2.42-10.47-1.18-3.56-6.06-4.7-9.13-3.32-2.24 1-5.57 5-6.86 7.15-.44.75-.84 1.54-1.24 2.32-.74 1.4-1.42 2.83-2.14 4.25q-2.31 4.56-4.79 9c-3.28 6-6.72 11.83-10.22 17.67-7.63 12.71-15.67 25.29-22.06 38.69a5.46 5.46 0 0 0 .51 5.77c-15.43 7.51-30.89 14.95-46.31 22.53a798 798 0 0 0-93.51 53.85c-10.35 7-20.13 14.79-30.5 21.73-2.45 1.64-5.48 3.24-8.51 4.92a35.38 35.38 0 0 0-3.81-3c1.22-3.29 2.4-6.6 3.89-9.81 4.52-9.68 9.82-19 15.15-28.27 5-8.61 10.06-17.15 14.8-25.89a133.34 133.34 0 0 0 7.42-15.89c1.82-4.78 3.38-9.7 1.12-14.57a4.73 4.73 0 0 0-6.22-2.28c-5.81 2.78-8.11 9.57-11 14.91-2.44 4.52-4.75 9.1-7.2 13.62-4.84 9-10 17.77-14.93 26.7A204.14 204.14 0 0 0 551 504.79c-.72 1.91-1.58 4.12-2.43 6.46-1.47-10.14-1.66-20.58-1.68-30.62 0-21.9 1.24-43.74 2.47-65.6.53-9.33.74-18.64.93-28a4.18 4.18 0 0 0 .56-.28C558 380.18 563 371 568 362.77c4.86-7.89 9.8-15.74 14.6-23.67 8.5-14.1 17.69-27.69 26.4-41.63 4.79-7.68-6.93-15.72-12.83-9.09-11.1 12.48-19.42 27.9-28 42.18-4.91 8.21-9.54 16.59-14.3 24.88-1.06 1.84-2.21 3.74-3.34 5.61 0-4.77.07-9.53.07-14.31 0-5.18.12-10.44.2-15.68 1-1.8 1.9-3.54 2.71-5 2.88-5.09 5.67-10.24 8.52-15.35 4.26-7.64 8.13-15.5 12.12-23.29s7.91-15.43 11.9-23.12c2.43-4.67 4.61-9.46 6.83-14.22 1.73-3.7 3-8.3 0-11.77a6.29 6.29 0 0 0-5.3-2.51c-7.35.06-12.79 12.37-15.79 18-2.07 3.91-4 7.89-6 11.85q-5.85 11.67-11.65 23.37c-1 2-1.92 4-2.9 6 0-19.39-.7-38.74-4-57.54-1.76-10-16.11-10.68-18-.34-3.31 17.78-4 36.25-4 54.74-5.69-18.3-11.54-36.67-17.9-54.75-1.78-5.07-7.2-5.63-11.2-3.55l.27-.51a7.51 7.51 0 0 0-3.27 2.89l-.26.35a8.36 8.36 0 0 0-.64 1.39 6.71 6.71 0 0 0-.5 1.47 7.27 7.27 0 0 0 0 2.79c4 20.13 12.51 39.34 19 58.72 2.63 7.83 4.58 15.78 6.67 23.75 1.91 7.26 4.07 15.12 8.36 21.4 0 7.17-.06 14.33-.11 21.49-3.33-5.55-6.54-11.18-9.41-17-4.43-9-9.14-17.83-13.93-26.62-5-9.18-9.84-20-17.19-27.48-3.3-3.37-7.71.42-7.08 4.29 1.64 10.16 7.59 20.36 11.87 29.63 5.07 11 9.46 22.3 14.72 33.18 4.4 9.12 9.89 17.65 15.13 26.29q2.63 4.32 5.22 8.69c-.17 5.1-.21 10.2-.5 15.3-1.23 21.83-2.82 43.73-2.47 65.6.17 11 .6 22.72 2.37 34.13a35.81 35.81 0 0 0-4.48 2.21c-1.11-1.45-2.23-2.89-3.24-4.36-6-8.85-11.57-18-17-27.22s-10.51-18.49-15.67-27.85c-2.76-5-5.62-10.07-8.42-15.1s-5.49-10.43-9.79-14.16c-2.23-1.93-6.33.07-6.31 3 .09 10.53 6.7 21.72 10.81 31.22 4.61 10.66 10.12 21 15.7 31.2 4.42 8.08 9.38 15.86 14.41 23.59-2-.93-4-2-5.91-2.87-27.63-12.71-56.61-22.19-84.27-34.78-17.82-8.1-35.3-17.48-52.51-27.23-.91-4.77-3.11-9.39-4.83-13.88s-3.81-9-5.63-13.49c-3-7.46-6-14.91-9.14-22.32-3-7.17-6.08-14.33-9.32-21.41-3.53-7.7-7.16-16.91-13.38-22.78-4.75-4.48-14.54-.35-13.25 6.62 1.77 9.54 7.87 18.9 11.91 27.68 3.26 7.06 6.34 14.19 9.43 21.32 3.45 8 7.11 15.83 10.88 23.65.24.49.51 1.06.75 1.58-3.7-2.19-7.44-4.37-11.12-6.55-12.67-7.52-24.77-15.67-36.75-24-.12-1-.15-2.09-.3-3-.42-2.31-1-4.6-1.63-6.86a130.08 130.08 0 0 0-4.7-14.31 173.13 173.13 0 0 0-12.13-25.37c-3.08-5.09-7.57-13.59-14.12-14.42-4.33-.55-7.36 3.21-7 7.26.39 4.46 2.85 8.33 4.83 12.21 4.18 8.16 8.73 16.08 12.41 24.5.86 1.94 1.61 3.92 2.43 5.87-11.56-8.2-23.15-16.43-35.05-24.28-3.48-2.32-7.66 2.19-5.7 5.61 7.89 13.83 19.05 25.82 31.52 36.6l-.43-.06c-5.55-.75-11.12-1.39-16.7-2-6.27-.64-12.58-1-18.87-1.57-5.61-.48-12.21-1.9-17.73-.56a6.33 6.33 0 0 0-5.14 5.38c-.34 3.19 1.66 4.66 3.9 6.34 3.23 2.41 10.19 2.88 14.43 3.48 3 .43 5.94.82 8.92 1.2 5.84.75 11.67 1.53 17.53 2.22 5.41.63 10.83 1.33 16.22 2.18 2.39.38 4.78.75 7.19 1.05 1.72.21 3.51.64 5.24.69 2.4.08 4.12-1.1 5.84-2.47 9.55 6.79 19.32 13.11 28.71 19 5.84 3.68 11.76 7.31 17.7 10.93-9.92-.08-19.86 0-29.77.14-20.84.18-43-.84-63.38 4-4.93 1.16-4.37 9 .46 9.8 22.88 3.93 46.93 3 70.09 3.43 11.37.21 22.71.4 34.08.36 3.61 0 10.08-.26 14.33-2.38 14.94 8.57 30.1 16.76 45.4 24.26 33.25 16.3 68.86 27 101.57 43.21-.83 1.78-1.46 3.63-2.12 5.47-10.26-.29-20.54.08-30.8.37-14.11.41-28.23.17-42.34.64-14.92.5-31.2-.49-45.77 3-5.54 1.31-5.39 9.71.06 11 14.39 3.42 30.55 2.52 45.26 2.94 13.24.37 26.51.55 39.75.39 10.2-.12 20.41-.36 30.61-.07a48.66 48.66 0 0 0 .86 8.92c-14.31 7-27.35 17.11-40.52 26.43-26.87 19-57.4 32-86.3 47.51-23 12.35-46.74 23.89-69.77 36.53-5.12-1.06-11-.58-15.55-.5-5.8.1-11.6.16-17.4.09-13.24-.15-26.36-1.06-39.55-2-6.11-.46-8.19 8.29-2.37 10.49l3.17 1.21a40.89 40.89 0 0 0 5.32 1.64c3.56.81 7.17 1.39 10.77 2a206.09 206.09 0 0 0 21.76 2.1c2.64.13 5.29.12 7.94.2-6.19 3.9-12.45 7.7-18.37 12a5.93 5.93 0 0 0-2.6-1.53c-9.63-1.55-19.43-.89-29.15-.71a72.86 72.86 0 0 0-13.42 1.25c-3.15.64-6.74 1.61-7.19 5.36a5.26 5.26 0 0 0 .78 3.39c.43.71 2.81 3.31 3.9 2.56.32-.22 3.37.87 4 1 1.55.23 3.13.42 4.7.59s2.91.28 4.38.31c3.18.06 6.36.08 9.55.17 3 .08 6 .13 9.06.13a224.61 224.61 0 0 0-19.92 18.61c-5.81 6.21 1.9 15.53 8.78 10.1A239.34 239.34 0 0 1 246 736.71c-.29 1.85-.57 3.72-.86 5.57a79.66 79.66 0 0 0 .85 28.63c1 4.87 8.35 3.39 8.39-1.29.08-8.76 2.7-17.24 4.22-25.82.93-5.23 2.13-10.73 2.67-16.18 11.53-6.5 23.32-12.52 35-18.49-.22 4.54-.7 9-1.28 13.56s-1.13 8.87-1.77 13.29c-.52 3.61-1.27 7.2-1.65 10.82-.46 4.48-1.38 9.57-.31 14a5.78 5.78 0 0 0 4.51 3.84c.88.16 5.83-.33 5.57-2a17.16 17.16 0 0 0 2.48-5.72c.34-1.2.7-2.38 1.07-3.57.47-1.59.94-3.18 1.36-4.77 1-3.6 1.77-7.27 2.59-10.91 1.18-5.27 2.29-10.56 3-15.91a149.31 149.31 0 0 0 1.35-14.91 51.67 51.67 0 0 0-.15-6.1c22.17-11.09 44.63-21.56 66.49-33.28 25.79-13.83 52.79-25.61 77.33-41.67 16.43-10.74 31.43-23.39 48.72-31.77a45 45 0 0 0 5.38 3.7c-2.79 5.23-5.58 10.47-8.5 15.64-6.77 12-13.87 23.84-20 36.17-5.44 11-9.44 22.44-13.3 34-2.1 6.33-4.12 12.71-6.67 18.88-1.94 4.69-5.32 9.15-6.56 14-1.19 4.65 3.8 10.56 8.69 7.49 9-5.69 14.16-19.67 18-29.27 4.87-12.32 9.26-24.58 15.36-36.38 6.3-12.21 13.35-24 20.16-35.93 3.66-6.43 7.29-12.89 10.51-19.55.81 0 1.64.08 2.45 0 3.1 27 1.72 55.27 2.22 82.24.43 23.3 1.49 46.29 4.36 69.42 1.83 14.69 3.93 29.35 6 44l-.24.28c-8.53 9.67-17.35 19.21-25.05 29.58a130.13 130.13 0 0 0-12.3 20c-2.47 5-6.85 13.63-3.93 19a5.63 5.63 0 0 0 7.49 2.33c3.22-1.78 4-5.06 5.65-8.11 1.53-2.83 3.15-5.66 4.94-8.33a171.77 171.77 0 0 1 13.12-16.58c4.35-5 8.9-9.91 13.44-14.8.18 1.46.41 2.9.58 4.36.62 5.17 1 10.43 1.29 15.7a61 61 0 0 0-4.37 5.73c-1.31 1.86-2.69 3.67-4.11 5.45-3.11 3.9-6.4 7.66-9.6 11.48-7 8.29-14.6 18.42-16.1 29.42-.82 6 8.1 8.24 10.31 2.58 3.9-10 11.13-17.57 18.06-25.51q3.54-4 7-8.15c.73 13.22 1.81 26.39 4.94 39 1.78 7.13 13.59 7.94 16.25 1 4.45-11.54 5.66-24 5.4-36.49 1.36 2.52 2.67 5.07 4.17 7.53 3.76 6.19 7.48 12.49 10 19.33a6.81 6.81 0 0 0 8.71 3.76c3.59-1.42 4.83-5.24 3.76-8.71-.13-.46-.28-.92-.44-1.38-.3-.92-.64-1.82-1-2.72a35.2 35.2 0 0 0-2.35-4.82A131.31 131.31 0 0 0 592 868c-3-4.18-6.28-8.29-9.17-12.57-2.2-3.25-3.88-7.6-7.52-9.36h-.2c-.6-5.62-1.3-11.2-1.95-16.66 2.22 3.65 4.24 7.42 6.73 10.93q5.65 8 11.87 15.59c4.25 5.19 8.57 10.86 14.2 14.57 3.37 2.23 7.61 2.5 10.65-.51a8.17 8.17 0 0 0 1-10.62c-4.5-6.68-10.82-12.34-15.93-18.62s-9.88-12.75-14.51-19.4a178.79 178.79 0 0 1-9.73-15.25c-1.6-2.87-3-5.85-4.47-8.76a8 8 0 0 0-4.61-3.94c-2.36-16.52-4.77-33-6.76-49.6-5.52-45.94-5.28-91.55-16.34-136.28 2.31 4.73 4.7 9.43 7.13 14.09 6.85 13.07 14.18 25.86 21.56 38.62 7.15 12.37 14.25 24.8 21.7 37 2.79 4.57 5.65 9.1 8.5 13.64 3.4 5.38 7.27 13.31 13.46 15.39 2.83 1 6.44-1.53 6.89-4.37 1-6.49-4.67-14.25-7.72-19.59s-6-10.63-9.1-15.91c-7.52-12.85-15.14-25.63-22.6-38.52Q574.46 629.48 564 611c-2.83-5-5.52-10-8.37-15a33.44 33.44 0 0 0 7.4-4.6c.74-.65 1.3-1.44 2-2.13 27.84 19.21 54.36 40.81 82.57 59.57 28.69 19.08 59 34.9 89 51.76q11.69 6.57 23.25 13.26a38.5 38.5 0 0 0 .85 5.32 193.66 193.66 0 0 0 6.26 20.36c2.58 7.48 5.46 14.85 7.61 22.47 3.91 13.93 7.29 28.31 16.93 39.52 2.47 2.86 6.52 2.44 9.54 1.08 8.13-3.63-2.48-20.17-4.66-25.94-2.57-6.76-4.45-13.78-6.55-20.69-2.37-7.81-5.23-15.41-8.36-22.93-1.14-2.72-2.09-5.5-3.13-8.24 8.52 5.18 16.77 10.79 25 16.38.64 7 2.91 13.57 5.36 20.15 2.56 6.91 5.29 13.76 8 20.62 2.23 5.71 4.74 11.3 7.17 16.93 2.64 6.08 5.62 19.22 14.49 17.37 10.56-2.2 4-15 1.42-21.1-2.43-5.73-4.77-11.51-7.44-17.13-3.21-6.75-6.26-13.59-9.33-20.41-.66-1.47-1.33-2.9-2-4.36 18.59 13.46 38.88 27.7 62.26 27.33 10.58-.16 14.29-14.18 3.92-18.43-15.4-6.32-29.67-15.15-43.52-24.58h.58c6.81.1 13.62.57 20.41.88 6.41.29 12.8.7 19.2 1s13.44.95 19.37-1.74c4.28-1.87 4.24-8.84.1-10.94z" fill="#fff"></path><path d="M1042 867.5c-12-26.64-26.63-49.51-44.59-72.44-18.33-23.42-35.47-47.73-53.06-71.69-19.2-26.14-40-51-59.56-76.88-7.37-9.71-14.54-19.33-20.73-29.84-5.13-8.74-9.82-17-16.08-24.29a11.16 11.16 0 0 0 2.68-3.24c31.64-59.14 70.73-114.31 106.44-171 15.66-24.87 30.54-50.21 46-75.21 11.45-18.56 26.19-41.26 24.3-64.08-.46-5.51-4.81-11-10.88-10.53-51.29 3.7-102.3 10.7-153.1 18.7-23.86 3.75-47.78 7.23-71.48 12-26.94 5.38-52.85 15-79.85 20-23.44-41.24-46.2-82.19-73-121.43q-33.72-49.35-66.77-99.1c-10.83-16.4-28.87-49-50.44-27.64-9.07 9-14.51 21.14-20.57 32.2-11.32 20.68-22.2 41.55-32.8 62.62-11.85 23.57-24.47 46.7-36.64 70.09-5.49 10.54-11.4 21-15.9 32-2.49 6.12-4.89 12.19-7.64 18.09h-.19c-27-.17-53.91-4.39-80.78-6.75-28.5-2.5-57-4.69-85.62-6.2s-57.55-2.83-86.33-3.14c-31.71-.33-64.94-2.92-96.18 3.21a4.48 4.48 0 0 0-1.87 1.05c-3.62-.55-7.82 2.93-5.83 6.72 6.84 13 14.84 25.44 21.71 38.51 6.18 11.76 12.31 23.53 18.91 35.06 15.64 27.3 32.5 53.88 50.22 79.88 17.94 26.31 36.48 52.2 55.35 77.85q14.21 19.32 28.6 38.51c4.91 6.53 9.9 13 14.87 19.49.88 1.15 1.73 2.41 2.58 3.63a35.42 35.42 0 0 0 3.57 6.28 48.45 48.45 0 0 0 4.06 5c-17.54 13.82-32.23 32.59-47.61 48.42-19.44 20-36.46 42.14-53.82 63.91-35.45 44.48-73.1 87.31-103.37 135.64-4.21 6.73 1.75 14.45 8.79 14.83 55.76 3 111.54 2.87 167.35 3.68 56.06.81 112.09 1.64 168.16 1.82a9.47 9.47 0 0 0 3.83-1 .2.2 0 0 0 .07.18 84.7 84.7 0 0 0 4.39 7.4c1.52 2.38 3.43 4.45 5.16 6.67 5.81 10.64 11.35 21.48 17.46 31.45q22.59 36.86 45.08 73.78c22.84 37.61 41.45 79.73 76.34 108.11 4.58 3.72 11.32 1.34 13.59-3.7 9.68-21.51 24.4-40 37.6-59.34 13.9-20.4 27.2-41.21 41.36-61.44 27.27-39 49.63-81.43 79.51-118.52a9.36 9.36 0 0 0 2-4.94c20.61 3.78 41 8.1 61.44 13.45 26.81 7 54.33 9.66 81.69 13.75 27.89 4.16 55.76 8.45 83.68 12.4 13.11 1.85 26.18 3.73 39.41 4.54 11.45.71 22.82 1.58 34 4a8.39 8.39 0 0 0 7.47 2.67c3.62-.45 7-1.54 10.64-2.15 5.94-1.2 8.77-7.8 6.38-13.04zm-93.46-16.44c-28.4-4-56.73-8.55-85.15-12.44-27.9-3.82-55.74-6.62-83.29-12.62-20.91-4.54-44.43-11.06-65.82-6.73-1.66-2.63-3.41-5.22-5-7.88-2.58-4.24-5.21-8.43-7.69-12.73-4.34-7.56-8.14-15.54-13.32-22.57a6.1 6.1 0 0 0-7-2c-2.27.9-4.35 3.72-3.76 6.26 1.37 5.86 3.93 11.34 6.28 16.85q2.85 6.69 5.94 13.29a108.8 108.8 0 0 0 5.6 10.49c1.33 2.18 2.69 4.38 4.19 6.47C669.75 864 647.78 906.25 621 944.9c-14.52 21-28 42.55-42.37 63.62-11.12 16.36-23.17 32.27-32.6 49.69-30-28.39-47.73-68.79-69.08-103.44-14.62-23.73-29.92-47-45-70.45-9-14-16.88-29.07-27.71-41.71 0-.09.13-.1.16-.19 1.59-4.85 2.61-9.12 5.66-14.19a114.76 114.76 0 0 1 7.41-10.5c4.68-6.15 9.4-12.28 13.46-18.87 3.05-4.94 6.67-11.75 2.37-17.07a5.73 5.73 0 0 0-3.31-2.12c-.86-.18-9.07 4.77-9.68 5.61-.26.36-.44.79-.66 1.16-.68 1.19-1.42 2.34-2.12 3.51 0 0-.68 1.14-.27.48s-.77 1.19-.74 1.15c-4.09 6.28-9 12-13.16 18.18-4.59 6.8-9.53 14.2-11.28 22.28a1.8 1.8 0 0 0-.46-.1c-56.65.18-113.25-.28-169.89-.86-49.41-.5-98.71-.56-148.06-2.69 27.7-41.11 60.25-78.65 90.93-117.55 16.21-20.56 32.1-41.45 50.08-60.53 8.23-8.73 16.87-17 24.76-26 9.33-10.71 18.17-21.66 28.75-31.21a7 7 0 0 0 2-3.19l1.33.09a57.2 57.2 0 0 0 6-.23c4.12-.33 8.22-.9 12.3-1.62 3.75-.65 7.43-1.48 11.12-2.4 4.42-1.1 9.4-1.82 13.3-4.18a7.24 7.24 0 0 0 3.44-7.9c-.82-3.26-3.62-4.94-6.77-5.33 1.33.42.88.37-1.33-.16a13.23 13.23 0 0 0-2.51.22c-1.07.18-2.12.46-3.17.71l-5.34 1.29-11.26 2.73c-3.52.87-7.08 1.63-10.67 2.18s-7.23.7-10.72 1.46c-.89-1-1.79-2.07-2.69-3.09a79.84 79.84 0 0 0-6-8.69q-6.95-9.51-13.92-19c-9.53-12.93-19.18-25.76-28.71-38.69-18.6-25.25-36.92-50.71-54.66-76.58-16.42-24-32.63-48.08-47.87-72.8-9.36-15.18-17.82-30.77-26.47-46.35-5.38-9.68-11-20-18.16-28.8 26.44 4 53.68 3.34 80.29 4.64 30.44 1.49 60.86 2.88 91.27 4.9 27.56 1.83 55.12 3.85 82.63 6.38 12.13 1.12 52.58 5.48 77.12 2.87a30.38 30.38 0 0 0 1 3.59c.33 1 .74 2 1.11 3q1.09 3 2.21 6 2.12 5.79 4.22 11.57c3.2 8.8 5.73 19.12 11.63 26.5 3.89 4.87 12.4.87 12.14-5s-2.57-11.52-4.6-17.06c-1.47-4-3.08-8-4.65-12s-3.15-7.9-4.76-11.84c-1.08-2.64-2.09-5.35-3.34-7.9-.06-.13-.13-.25-.19-.37a11.42 11.42 0 0 0 3.27-2.27c6-9.5 10-20.38 15.14-30.28 10.3-19.81 21.15-39.31 31.7-59 18.61-34.75 36.34-69.95 55-104.66a117.11 117.11 0 0 1 10.15-16.45c4.45-5.76 6.47-9.68 11.28-4.41 8 8.75 13.8 19.62 19.94 29.67 19.91 32.65 41.58 64.14 63.15 95.71 25.37 37.14 47.27 76 70 114.7a6.77 6.77 0 0 0-1 .93c-4.17 5.2-7.34 11.23-11.22 16.66-2.1 2.94-4.14 5.93-6.32 8.83-3.08 4.12-6.65 8-8 13.08-.76 2.77 2.3 5.69 5 5.22 6.27-1.1 10.42-6.07 14.35-10.48a107.36 107.36 0 0 0 7-8.64 137.2 137.2 0 0 0 8.55-13.34 7 7 0 0 0 5.71.86 6.58 6.58 0 0 0 2.95.45c25.91-1.75 50.44-10.61 75.83-15.37s51.22-8.38 76.92-11.84c47.35-6.39 94.66-13 142.3-16.76-3.5 17.68-16.54 35.2-25.4 49.33-15.52 24.76-30.17 50.06-45.75 74.8-34.26 54.42-71.69 107.3-102 164a9.12 9.12 0 0 0-.53 1.94 50.1 50.1 0 0 0-7.72-1.05 100.16 100.16 0 0 0-10.68-.15c-4.72.15-9.49.3-14.19.79-4.53.47-9.21.62-13.62 1.78a7.13 7.13 0 0 0-5.47 6.51c-.11 2.66 1.9 6.62 4.89 6.94 2.47.27 4.38.79 6.75.87l2.85.07c2.78 0 5.58.06 8.36 0 3.5-.11 7-.19 10.53-.18s7.16.14 10.73.47 7.82 1.39 11.33.61c.29-.07.48-.26.76-.34 7 10 12 21.73 17.75 32.35 7.1 13.11 16.17 25 25 37 17.11 23.56 35 46.56 52.2 70.18s34.1 47.64 52.16 70.71a363.87 363.87 0 0 1 34.33 51.6c-22.39-4.89-46.37-4.63-68.94-7.83z" fill="#fff"></path><path d="M547 544.78a15.38 15.38 0 0 0-7.56-2.12 23 23 0 0 0-6.09-1.17c-7.83-.42-16.15 3.81-19.54 11.07a21 21 0 0 0-1.47 13.28c1.22 5.62 3.58 10.9 8.13 14.63 7.5 6.16 17.91 4.41 25.23-1 6.6-4.87 11.57-13.56 10-22a19 19 0 0 0-8.7-12.69z" fill="#aa591e"></path><path d="M543.35 200.69a20.12 20.12 0 0 0-9.64 3.71 22.19 22.19 0 0 0-6.59 6.64 18.34 18.34 0 0 0-3.11 9.48 20.54 20.54 0 0 0 2 9.53 25.79 25.79 0 0 0 5.6 7.2c.3.39.61.78.88 1.14a6.55 6.55 0 0 0 2.2 1.88 11.84 11.84 0 0 0 2 .78 21.9 21.9 0 0 0 8.78 2.71 15.12 15.12 0 0 0 8.43-1.87c5.62-3.32 7.82-9.58 7.78-15.84.13-.69.34-1.37.43-2.05 1.39-11.2-6.32-24.25-18.76-23.31z" fill="#aa591e"></path><path d="M916 366.64a17.69 17.69 0 0 0 11.55-11.91 20.65 20.65 0 0 0-.83-12.62 28.93 28.93 0 0 0-7.49-11.1c-7.24-6.72-19.37-8.17-26.5-.41-12.44 13.6 5.62 42.28 23.27 36.04z" fill="#aa591e"></path><path d="M910.24 763.87a17.14 17.14 0 0 0-17-2.47 20.57 20.57 0 0 0-10.2 8.11c-2.63 3.94-4.28 9.26-2.94 14a12.69 12.69 0 0 0-.72 2.44 12 12 0 0 0 1.24 7.71 16.09 16.09 0 0 0 10.38 7.92 26.49 26.49 0 0 0 13 0 21.78 21.78 0 0 0 11-6.58 18.62 18.62 0 0 0 4.31-14.7 25.94 25.94 0 0 0-9.07-16.43z" fill="#aa591e"></path><path d="M230.23 754.78a34.25 34.25 0 0 0-3.42-7.82 25.62 25.62 0 0 0-2.74-3.55 17.19 17.19 0 0 0-3.21-2.56 13 13 0 0 0-7.37-1.94 13.3 13.3 0 0 0-7 2.33 14.69 14.69 0 0 0-3.92 3.66 25.26 25.26 0 0 0-2.11 3.45 14.45 14.45 0 0 0-.79 1.69 15.16 15.16 0 0 0-.59 1.8 28.12 28.12 0 0 0-.84 4.08 19.83 19.83 0 0 0 .3 6 18.36 18.36 0 0 0 1.37 4 17.5 17.5 0 0 0 2.28 3.39 7 7 0 0 0 .58.51 18.47 18.47 0 0 0 1.1 1.57 11.12 11.12 0 0 0 1.09 1.08 22 22 0 0 0 2.85 2.13 21.22 21.22 0 0 0 3.35 1.46 16.48 16.48 0 0 0 10.25.19 13.9 13.9 0 0 0 8.73-8.07 20.13 20.13 0 0 0 .09-13.4z" fill="#aa591e"></path><path d="M583 908.58a16.33 16.33 0 0 0-1.33-3.53 21.89 21.89 0 0 0-6.31-7.41 20.17 20.17 0 0 0-8.67-3.49 18.06 18.06 0 0 0-13.62 3.68 13.62 13.62 0 0 0-3.51 3.67 21.43 21.43 0 0 0-2.05 3.69c-1.94 4.6-2.41 19.76-.18 24.09 3.52 6.84 15.84 9 22.51 6.26a18.42 18.42 0 0 0 5-3 27.29 27.29 0 0 0 7.3-9.85 22.53 22.53 0 0 0 1.62-10.29 17.13 17.13 0 0 0-.76-3.82z" fill="#aa591e"></path><path d="M238.28 358.88a16 16 0 0 0-7.2-4.36 19.52 19.52 0 0 0-10.26.13 16.72 16.72 0 0 0-10.26 8 17.92 17.92 0 0 0-2.15 9.84 22.13 22.13 0 0 0 3.24 10c.17.31.47.52.66.82a17.91 17.91 0 0 0 1 1.75c.12.18.26.34.39.51a17 17 0 0 0 9.39 7 14.31 14.31 0 0 0 8.66-.2 13.21 13.21 0 0 0 5.69-3.45 19.28 19.28 0 0 0 3.49-5.09 26.28 26.28 0 0 0 2.34-13.1 18.69 18.69 0 0 0-4.99-11.85z" fill="#aa591e"></path><path d="M545.31 541.62a15.36 15.36 0 0 0-7.56-2.13 23 23 0 0 0-6.09-1.16c-7.84-.42-16.15 3.8-19.54 11.06a21 21 0 0 0-1.47 13.28c1.22 5.62 3.58 10.9 8.13 14.63 7.5 6.16 17.91 4.41 25.23-1 6.6-4.87 11.56-13.56 10-22a19 19 0 0 0-8.7-12.68z" fill="#d3a1ac"></path><path d="M541.69 197.52a20.12 20.12 0 0 0-9.64 3.71 22.34 22.34 0 0 0-6.6 6.64 18.53 18.53 0 0 0-3.11 9.48 20.67 20.67 0 0 0 2 9.53 25.6 25.6 0 0 0 5.6 7.2l.88 1.14a6.55 6.55 0 0 0 2.2 1.88 11.84 11.84 0 0 0 2 .78 21.9 21.9 0 0 0 8.78 2.71 15.12 15.12 0 0 0 8.43-1.87c5.62-3.32 7.82-9.58 7.78-15.84.13-.69.34-1.36.43-2 1.4-11.24-6.31-24.3-18.75-23.36z" fill="#d3a1ac"></path><path d="M914.38 363.47a17.69 17.69 0 0 0 11.55-11.91 20.65 20.65 0 0 0-.83-12.62 28.93 28.93 0 0 0-7.49-11.1c-7.24-6.72-19.37-8.17-26.5-.41-12.48 13.57 5.58 42.28 23.27 36.04z" fill="#d3a1ac"></path><path d="M908.58 760.71a17.12 17.12 0 0 0-17-2.48 20.57 20.57 0 0 0-10.2 8.11c-2.64 3.94-4.28 9.27-2.94 14a13.68 13.68 0 0 0-.72 2.44 12.1 12.1 0 0 0 1.28 7.72 16.09 16.09 0 0 0 10.33 7.91 26.49 26.49 0 0 0 13 0 21.9 21.9 0 0 0 11-6.56 18.61 18.61 0 0 0 4.31-14.71 26.07 26.07 0 0 0-9.06-16.43z" fill="#d3a1ac"></path><path d="M228.57 751.62a34.69 34.69 0 0 0-3.42-7.88 25.51 25.51 0 0 0-2.75-3.55 16.38 16.38 0 0 0-3.2-2.55 13.06 13.06 0 0 0-7.38-1.95 13.3 13.3 0 0 0-7 2.33 14.69 14.69 0 0 0-3.92 3.66 26.47 26.47 0 0 0-2.12 3.46 12.81 12.81 0 0 0-.78 1.68 15.19 15.19 0 0 0-.6 1.8 29.5 29.5 0 0 0-.83 4.08 19.51 19.51 0 0 0 .3 6 18.36 18.36 0 0 0 1.37 4 16.85 16.85 0 0 0 2.28 3.4c.16.19.39.32.57.51.37.52.7 1.08 1.11 1.56a11 11 0 0 0 1.08 1.08 21.23 21.23 0 0 0 2.86 2.13 22.23 22.23 0 0 0 3.35 1.47 16.55 16.55 0 0 0 10.25.18 13.89 13.89 0 0 0 8.77-8.07 20.08 20.08 0 0 0 .06-13.34z" fill="#d3a1ac"></path><path d="M581.35 905.41a15.8 15.8 0 0 0-1.32-3.53 22.09 22.09 0 0 0-6.31-7.41A20.19 20.19 0 0 0 565 891a18 18 0 0 0-13.62 3.67 13.52 13.52 0 0 0-3.51 3.68 22.08 22.08 0 0 0-2.06 3.68c-1.93 4.6-2.4 19.76-.17 24.09 3.51 6.84 15.84 9 22.51 6.27a19.1 19.1 0 0 0 5-3 27.41 27.41 0 0 0 7.3-9.86 22.39 22.39 0 0 0 1.61-10.29 16.18 16.18 0 0 0-.71-3.83z" fill="#d3a1ac"></path><path d="M236.62 355.72a15.81 15.81 0 0 0-7.21-4.36 19.28 19.28 0 0 0-10.25.13 16.69 16.69 0 0 0-10.26 8 17.92 17.92 0 0 0-2.15 9.84 22.13 22.13 0 0 0 3.24 10c.17.31.47.52.66.82a17.91 17.91 0 0 0 1 1.75c.12.18.26.34.38.51a17.17 17.17 0 0 0 9.4 7 14.27 14.27 0 0 0 8.65-.2 13.09 13.09 0 0 0 5.7-3.45 19.28 19.28 0 0 0 3.49-5.09 26.22 26.22 0 0 0 2.34-13.09c-.31-4.24-1.92-8.84-4.99-11.86z" fill="#d3a1ac"></path></g></g></g></g></svg>