<svg xmlns="http://www.w3.org/2000/svg" viewBox="0.0502777099609375 0.0010833740234375 1079.9111328125 813.2713012695312" style=""><g><g data-name="Слой 2"><g data-name="Слой 6"><g data-name="Слой 2"><path d="M118 381.45c-100.58 7.13-170.75-137-66.18-169.86C81.64 202.2-36.63-67.31 237 15.94 459.67 83.66 418.17 63 575.75 28.71s135.24 59.21 223-3.3c68.94-49.12 460.84 73.71 182.64 356.07-22.58 22.92-133 744.31-133 271.47 0-49.77-18.84-436.33-103.21-239.77-19.8 46.13-17.82 178.88-70.72 17.88-2.66-8.12-31.26-144.65-34.16-30.37-.06 2.4 8.92 250.83-37.66 271.28-53.91 23.66-47.7-492.23-148.52-249.87-73 175.53-122.11-73.49-227.85-23-52.4 25-39.15 440.63-71 145.83-3.22-29.31-1.27-144.71-37.27-163.48z" fill="#bddbec"></path><path d="M.12 270.72c1.74-25.52 17.23-48.35 51.6-59.13C81.64 202.2-36.63-67.31 237 15.94 459.67 83.66 418.17 63 575.75 28.71s135.24 59.21 223-3.3c58.45-41.64 348.94 40.32 266.53 238.29-19 22-45 44.6-79.54 67.64C946.5 357.5 880.14 792.41 874 558.1c-1.3-49.75-35.44-393.25-121.25-196.68-65.82 150.75-73.85-61.64-105-64.32-47-4 .77 160.65-55.47 184.91-54.83 23.66-53-289.39-157.58-114.12-76.7 128.71-109.6-69.42-217.17-18.95C164.23 374 194 627 155.05 405.36c-5.09-29-11.06-55.28-47.71-74.05C60.3 334.59 19.81 305.87.12 270.72z" fill="#e3f1f9"></path><path d="M8.21 243.53c8-13.82 22.09-25.22 43.51-31.94C81.64 202.2-36.63-67.31 237 15.94 459.67 83.66 418.17 63 575.75 28.71s135.24 59.21 223-3.3c52.45-37.37 291.72 24.82 280.72 181-66.46 71.28-158.15 43.47-190.1 55.06C726.42 320.6 758.51 147.62 682 210.7c-166 136.94-105.7-56.58-212.77 9.51-236 145.68-178.32 41.44-259 32.13-76.59-8.83-106.37 75.22-152 38.75a374.66 374.66 0 0 1-50.02-47.56z" fill="#fff"></path></g></g></g></g></svg>