<svg xmlns="http://www.w3.org/2000/svg" width="1080" height="684.7" viewBox="0 0 1080 684.7000122070312" style=""><g><g data-name="Слой 2"><g data-name="Arrow_110" fill="#fc5e83"><path d="M1052.7 320.9l-27.4-21.3H0v21.3h1052.7z"></path><path d="M0 214v21.4h943.4L916 214H0z"></path><path d="M642.7 171.2v11.4H0v10h888.7l-27.3-21.4H642.7z"></path><path d="M670.1 21.4L642.7 0v21.4h27.4z"></path><path d="M0 256.8v21.4h998l-27.3-21.4H0z"></path><path d="M642.7 42.8v21.4h82l-27.3-21.4h-54.7z"></path><path d="M642.7 128.4v21.4H834l-27.3-21.4h-164z"></path><path d="M0 342.3V502l642.7.1v182.6L1080 342.3H0z"></path><path d="M642.7 85.6V107h136.7L752 85.6H642.7z"></path></g></g></g></svg>