<svg xmlns="http://www.w3.org/2000/svg" width="1080" height="101.1" viewBox="0 -0.01197094190865755 1080 101.11919403076172" style=""><g><g data-name="Слой 2"><path data-name="Line254_404391972" d="M760.7 101.1a27.5 27.5 0 0 1-4-.2c-6.4-.6-18.1-2.7-24.3-10.3a17.7 17.7 0 0 1-3.1-5.5l-22.1 1.8-23.2-9h-.3a53 53 0 0 1-10.3-9.2c-7.8.2-15.7-1.1-23.4-2.3l-10-1.5c-28-3.3-56.9-1.7-84.8-.2-31.2 1.7-63.5 3.5-95-1.6a245.5 245.5 0 0 0-25.7-2.4c-7.2-.5-14.8-1-22.1-2-19.6-2.5-40.7-5-62.2-5.6l-5.9-.3c-12.5-.5-26.6-1.1-37.3 4.3a72.7 72.7 0 0 0-10 6.7c-2.3 1.7-4.7 3.5-7.2 5-5.9 3.8-14.7 8.6-22.4 8a25.7 25.7 0 0 1-15.6-6.9 24.3 24.3 0 0 1-3.6 9c-4.9 7.3-15.1 10.2-21.8 12-16.9 4.7-31.9 5.6-45.8 2.7-5.8-1.2-13.4-3.3-18.7-8.3-2.6 2.2-5.1 3.7-7.7 4.1h-.6L139.9 86l-8.1-7.6a50.6 50.6 0 0 1-6.7-1.7l-8.7-2.1c-6-1.4-12.2-2.9-18.2-3.7-11.3-1.5-23.2-1.2-34.7-.9l-13.5.3H0v-6.5h18.1c10.6.1 21.3.1 31.9 0l13.3-.2c11.8-.3 23.9-.6 35.7.9 6.3.9 12.7 2.4 18.9 3.9l5 1.2a146.9 146.9 0 0 1-15.3-21.1c-6.4-10.5-8.6-19.3-6.4-26.3l.2-.7 11.8-14.1 10.5-3.5A28.9 28.9 0 0 1 145.8 1l10.9.8L171.2 12l2.3 9c.2 1.1.5 2.1.7 3.2 6.1-8.4 14-16 23.7-18.5l7.4-2 13.9 8.1c5.8 4.6 10.6 11.5 14.4 17.7a34.6 34.6 0 0 1 4.6 3.2c7.5 6.1 13.1 17.4 14 28.2 4.3 5.2 9.3 8.9 15.7 9.4 4.3.4 10.5-2 18.5-7 2.2-1.4 4.4-3 6.8-4.8a76 76 0 0 1 10.9-7.2c12.2-6.2 27.2-5.5 40.4-5l5.9.2c21.8.7 43 3.2 62.8 5.8 7.2.9 14.6 1.4 21.8 1.8s17.5 1.1 26.2 2.5c30.9 5 62.8 3.3 93.7 1.6 28.2-1.6 57.3-3.2 85.9.3 3.4.4 6.9.9 10.2 1.5 5.9.9 11.9 1.8 17.8 2.1a47.2 47.2 0 0 1-4.5-9.7c-3.3-5.4-3.8-11.1-1.4-16.6a10.7 10.7 0 0 1 2.1-7.4 9.8 9.8 0 0 1 6.8-3.2c7.3-2.6 13.8-.5 19.8 2.1 8.5 3.8 14.3 9.7 19 16.3l4-3.3c7.5-6.5 16.1-13.8 25.7-15.2a23 23 0 0 1 13.4 2c1.3-5.8 3.7-12 9.2-16.6 7.8-6.5 25.3-9.4 34.1-7.2s13.9 6.3 17.5 12.8c4.5 8.1 4.8 19.3 1 30.6-.9 2.6-2 5.4-3.2 8.2a27.5 27.5 0 0 1 13.7-3.2h.6a340.5 340.5 0 0 1 46 3.4c9.1 1.3 18 3.7 26.5 5.9 6.3 1.7 12.9 3.5 19.5 4.8 20.5 4 41.6 2.9 57.7 1.5s31.9-4.5 47.4-7.5l3.9-.7 9.3-2c11.4-2.5 23.1-5.1 35.6-3.6l7.5 1-8.1 6.5-1-1.2c-11.1-1.1-21.5 1.2-32.6 3.6l-9.5 2-3.9.7c-15.7 3.1-31.9 6.3-48 7.6s-38.3 2.6-59.6-1.6c-6.8-1.3-13.4-3.1-19.9-4.8a195.8 195.8 0 0 0-25.7-5.8 337.4 337.4 0 0 0-45.7-3.4c-11.5.1-15.6 5.4-22.4 14.3l-2.5 3.3c-10.2 12.9-21.7 25.4-40.4 25.4zm-23.3-14.6c3.5 4.3 10.7 7.2 19.9 8 14.1 1.3 23.7-5.6 32.1-14.9a32.8 32.8 0 0 1-6.7 1.8 41.7 41.7 0 0 1-6.1.4c-2.8 9.1-9.5 13.2-19.6 11.9a48.3 48.3 0 0 1-19.6-7.2zm-571-5.8c4.3 3.7 10.6 5.5 15.5 6.5 12.9 2.7 26.9 1.8 42.7-2.6 6.2-1.7 14.7-4 18.3-9.4a21 21 0 0 0 3.1-11.8c-4.2-5.5-7.6-11.9-10.6-17.7-1.6-2.9-3-5.7-4.4-8.1l-2-3.2a24.7 24.7 0 0 0-13.9-2.2c-8.2.8-14.2 5.1-20.5 11.3s-10.2 12.3-14.9 19.1c-1.7 2.6-3.3 5-5 7.3l-.7 1a97.6 97.6 0 0 1-7.6 9.8zm573.7-.1a43.4 43.4 0 0 0 17.7 6.7c6.4.9 10.1-.8 12.2-5.8-3.7-.3-7.2-1-10.7-1.6-5.5-.9-10.7-1.8-15.9-1.7zm-597-.4l10.6 2.7a12.8 12.8 0 0 0 4.2-2.7l-.5-.9-.9-2.3a18.1 18.1 0 0 1-11.8 1.5l-3.1.3zm543.9-8l21.2 8.2 19.1-1.6a58.2 58.2 0 0 1-11.2-13.7l-3-5.2-4-6.9-1.6 1.2c-6.7 5.1-13.7 10.4-22.1 12.7l-3.9.9a39.3 39.3 0 0 0 5.5 4.4zm72.6-41.4a27 27 0 0 1 3.1 2.8c11 11.2 16.2 29.6 15.2 41.8l3.9-.4c15.1-2.3 23.3-17.8 27.6-30.4 3.2-9.4 3-18.9-.6-25.4-2.6-4.9-7.1-8.2-13.3-9.7s-22.4.9-28.4 5.9-6.7 10.1-7.5 15.4zM749.2 72c3.8.3 7.5 1 11.2 1.6s7.4 1.3 11 1.6c1.1-10.4-3.6-26.8-12.8-36.6a11.1 11.1 0 0 1-.2 1.9c-.8 8.7-1.7 17.6-5.8 26a33.8 33.8 0 0 1-3.4 5.5zm-587.1.5a13.1 13.1 0 0 0 .6 2.7c2.5-3 4.7-6 5.9-7.8l-6.5 5zm552.1-23.4c1.6 2.5 3 5.1 4.5 7.7l2.9 5.1a54 54 0 0 0 9.6 11.8 37 37 0 0 1 9.7-1.9 28.2 28.2 0 0 0 5.9-8.1c3.6-7.4 4.4-15.4 5.2-23.8.2-2 .4-4 .7-6.1a17.4 17.4 0 0 0-11.5-2.3c-7.8 1.1-15.5 7.8-22.4 13.6zM134.7 72.3a30.4 30.4 0 0 0 9.5-.3h1.3c4 1 7.3.3 10-2 0-6.4 2.2-13 4.1-18.1a121.7 121.7 0 0 1 9.2-19.5 64.6 64.6 0 0 0-1.6-9.8l-1.6-6.8-11.1-7.7-9.8-.7h-.3a22.7 22.7 0 0 0-17.8 2.3l-.3.2-9.4 3.1-9.7 11.7c-1.3 5.1.7 12.1 5.9 20.6a137.5 137.5 0 0 0 17.6 23.4zm40.6-38.4a63.2 63.2 0 0 1-1.1 15.7v.4l-5.5 17.3.2-.2.7-.9 4.9-7.2c4.8-7.1 9.8-14.4 15.7-20.1s13.7-12 24.4-13.1a30 30 0 0 1 9 .2 44.3 44.3 0 0 0-8.1-9l-11-6.4-4.9 1.3c-10.2 2.7-18.4 12.3-24.3 22zm-7.5 14.7c-1 2.2-1.7 4.1-2.2 5.5a70.8 70.8 0 0 0-3 9.8l.5-.4zm510.8-18.2a14.1 14.1 0 0 0-4.9.9l-.5.2h-.4a4.3 4.3 0 0 0-2.8 1c-.7.8-.7 2.4-.6 3.5v1l-.4.8c-2 3.9-1.7 7.6.8 11.4l.3.4v.4a40 40 0 0 0 6.1 12 58.6 58.6 0 0 0 7.3-1.3c7.2-2 13.7-6.9 19.9-11.6l2-1.5c-4.3-6-9.3-11.2-16.6-14.4-3.5-1.7-6.9-2.8-10.2-2.8z" fill="#eebe64"></path></g></g></svg>