<svg xmlns="http://www.w3.org/2000/svg" width="1080" height="698.7" viewBox="-0.01898956298828125 -0.008922576904296875 1079.9970703125 698.699951171875" style=""><g><g data-name="Слой 2"><path data-name="Line222_315370648" d="M47.9 224.3c23.3-22.8 148.4-164 105.7-205.2-4.1-1.7-7.9.2-11.6 3.2-15.7 14-12.8 39.1-2.1 56.1C215.1 179.5 323.7 230 293.3 380.9c-10.6 50.4-39.4 98.4-82.2 128.7-69.4 45.7-40.4-48-20.8-79.4C255 314 405.3 283.9 525.6 320.7c105.2 26.2 190.9 99.8 294 130.9 163.1 46.3 274-50.1 250.7-218.3-15.4-130.5-144.9-234.7-271.5-173-148.8 85-136.7 364.4-81 501.7 44.1 115.2 196.1 170.3 252.5 40.2 31.3-61.6 19.1 29.2 1.8 46.4-20.1 28-49.8 44.8-88.6 49.8-247.4 13.4-262.1-439.7-154.6-588.7 80.7-119.6 255.6-89.2 318.6 32 33.6 62.3 41.6 138 21.8 206.2-27.4 99.9-127.7 135.2-222.4 116.2-65-12.1-123.4-46.5-180.5-77-88.5-49.4-190.5-87-292.8-70.6-72.2 10.8-140.2 54-175.9 117.9-15 27.5-47.3 112.8 14.6 62.3 68.7-55.4 94.3-158.6 57.4-238.6-16.3-34.9-43.3-64.1-70.2-90.9-34.2-38.7-95.2-75.3-83.7-134.1 25.3-71 109-21.8 36.8 90.4-32.9 56.2-55 82.8-87 117.9-56.9 58.3-105.1 66.1-17.7-17.1z" fill="#f49aa3"></path></g></g></svg>