<svg xmlns="http://www.w3.org/2000/svg" width="1080" height="799.8" viewBox="0.006542205810546875 0.014589309692382812 1080.01220703125 799.785400390625" style=""><g><g data-name="Слой 2"><g data-name="Line_74" fill="#49eef8"><path d="M340.9 661.1l-7-.3c-63.7-4.5-86.4-29.8-110.4-56.6-15.1-16.8-30.7-34.1-57.6-47.8s-39.1-25.8-41.1-39.5c-2.6-17.7 14.4-33.9 32.3-51s39.7-37.8 41.8-62.3c1.9-22.3-14.3-45-30-66.9-17.8-24.9-36.2-50.5-26.9-75.4 10.4-27.9 53.6-50.1 136.1-70 51.2-12.3 76.5-32.8 96.8-49.2s35.8-29.1 66.7-29.5 79.2 13.5 151.5 45C786.3 242 859.2 318.1 907.5 368.5c10.6 11.1 19.8 20.6 28.8 28.9 11.7 10.6 16.9 19.8 15.7 27.9-1.7 11.9-16 19-31.2 26.6s-33.7 16.7-36.7 31.4c-3.3 16.4-26.9 25.6-74.2 28.9-40.4 2.8-94 1-145.7-.7-21-.7-42.8-1.5-63.3-1.9h-2.6c-60.1 0-100.5 40.8-139.6 80.3-36.3 36.5-70.6 71.2-117.8 71.2zM202 403.9l3 .2c-2.3 26.8-24.3 47.8-43.7 66.3-17.5 16.6-32.6 31-30.4 45.6 1.6 11.5 14 22.9 37.7 34.9 28 14.2 44 32 59.4 49.3 24.2 26.9 45.1 50.2 106.4 54.5 2.1.2 4.2.2 6.3.2 44.8 0 78.3-33.7 113.6-69.4 40.6-40.9 82.6-83.2 146.7-82 20.6.4 42.3 1.1 63.4 1.8 97.3 3.3 207.7 6.9 213.7-23.2 3.5-17.7 22.9-27.3 40-35.7 13.7-6.8 26.6-13.2 27.9-21.9.8-5.9-3.8-13.5-13.8-22.6s-18.4-18-29.1-29.2c-47.9-50-120.4-125.6-312.4-209.5-150.9-65.8-173.9-47.2-212-16.4-20.8 16.9-46.6 37.8-99.2 50.5-79.2 19.1-122.3 40.7-131.7 66.1-8.2 21.8 8.4 45.1 26.1 69.7 16.3 22.9 33.2 46.5 31.1 71z"></path><path d="M334 677.2a98.7 98.7 0 0 1-13.2-.9c-62-7.6-86-35.8-111.5-65.7-16.1-18.9-32.6-38.4-59.9-53.3-24.4-13.4-37.1-26.5-38.9-40.2-2.3-18.5 15.4-34.9 34.1-52.3s39.7-37.1 41.2-60.2-14-41.4-30.1-62.3c-8.7-11.4-17.7-23.1-24.2-35.3-10.3-19.6-12-35.4-5.6-49.7 12-26.7 53.2-48 129.7-66.9 49.8-12.5 74.4-34.4 96-53.7 16.7-14.9 31.1-27.7 53.2-32.6 41.4-9 99.6 1.8 183.1 34.1 58.7 22.7 106.7 45.9 146.7 70.8 93.1 58.1 140 109.1 174.2 146.4 14.5 15.7 26.9 29.2 40 40.5s19.2 21.3 18.5 30.3c-1 12.6-14.8 21.1-29.3 30.1s-31 19.2-34.6 34.1c-1.6 6.7-6.3 12.6-14.2 18.1-29.9 20.8-110.8 20.1-205.6 17.1-27.7-.9-54.9.2-75.5 1.3-57.5 3.1-99.6 40.7-140.3 77.1-33.9 30.4-66 59.1-106.4 69.6a108.6 108.6 0 0 1-27.4 3.6zm101.5-570.7a143.5 143.5 0 0 0-29.6 2.9c-20.7 4.6-34.6 17-50.7 31.4-21 18.7-47.2 42.1-98.3 54.9-73.7 18.2-115 39.1-126.1 63.8-5.6 12.7-3.9 27 5.5 44.9 6.3 11.9 15.1 23.4 23.7 34.5 16.8 21.8 32.6 42.4 31.2 66-1.6 25.3-23.6 45.8-42.9 63.8-17.7 16.5-34.3 32-32.4 47.8 1.5 11.8 13.3 23.6 36.1 36 28.1 15.4 45.1 35.3 61.4 54.5 24.8 29.1 48.2 56.6 108.1 63.9a100.6 100.6 0 0 0 38.5-2.6c39.2-10.2 70.7-38.4 104.2-68.3 41.4-37.1 84.2-75.3 143.6-78.5 20.7-1.1 48.1-2.2 76-1.4 90.3 2.9 173.8 3.8 202.3-16.1 6.9-4.7 10.7-9.5 12-14.9 4.2-17.1 21.6-27.9 37-37.4 13.4-8.2 26-16 26.8-26 .5-7.1-4.9-15.5-16.6-25.6-13.4-11.5-25.9-25.2-40.5-41-34-37.1-80.6-87.8-173-145.5-39.7-24.7-87.5-47.8-145.9-70.3-64.1-24.8-112.9-36.8-150.4-36.8z"></path><path d="M328 693.7a115.8 115.8 0 0 1-20.2-1.8c-60.4-10.6-85.8-41.8-112.7-74.9-17-20.9-34.7-42.6-62.2-58.8-23.3-13.6-35.3-27-36.7-40.8-2-19.3 16.4-36.1 35.9-53.9s39.7-36.2 40.5-58-14.2-38.9-30.1-58c-9.8-11.8-19.9-24-27.2-37.8-11.3-21.2-13.5-38.2-6.7-53.5 11.7-26.7 51.3-47.9 124.6-66.7 48.7-12.5 73.5-36.7 95.5-58 18.2-17.8 33.9-33.1 59.1-38.2C439 83 500.9 91.1 582.7 118.8c64.4 21.8 114.1 44.9 156.5 72.5 92.4 60.5 137 111.4 172.9 152.4 17.3 19.8 32.3 36.9 49.3 50.9 14.6 12 21.6 22.7 21.4 32.6-.4 13.7-13.7 23.7-27.8 34.2s-28.1 21.1-32.3 36.1c-1.9 6.6-6 12.5-13.4 19.3-28.4 26.1-114.2 25.7-214.9 22.6-28-.8-54.5 1.8-79.1 4.8-53.4 6.5-95.6 40.8-136.3 73.9-38.8 31.5-78.8 64.1-128.8 73.4a112.9 112.9 0 0 1-22.2 2.2zm-94.2-501.9l.6 2.3c-70.8 18.2-110.5 39.1-121.5 64-6.1 13.8-4 29.5 6.6 49.3 7.1 13.4 17 25.4 26.7 37 16.4 19.8 32 38.5 31.1 61.3s-21.8 42.9-42 61.3c-18.6 17-36.1 33-34.4 49.9 1.3 12.2 12.5 24.4 34.4 37.2 28.3 16.6 46.2 38.6 63.5 59.9 26.3 32.4 51.2 62.9 109.8 73.2a111.4 111.4 0 0 0 40.7-.3c48.8-9.2 88.4-41.4 126.7-72.5 41.3-33.5 84-68.2 138.7-74.9 24.8-3 51.6-5.7 79.8-4.8 96.1 2.9 184.5 3.4 211.6-21.4 6.7-6.1 10.4-11.4 12-17.1 4.7-16.5 20.3-28.2 34.1-38.6s25.5-19.2 25.8-30.5c.2-8.4-6.2-17.8-19.7-28.9-17.2-14.2-32.3-31.4-49.8-51.4-35.7-40.7-80.1-91.4-171.9-151.5-42-27.4-91.4-50.3-155.5-72C500.2 95.8 439 87.8 388.8 98c-23.8 4.8-39.1 19.7-56.8 36.9-22.4 21.7-47.7 46.4-97.6 59.2z"></path><path d="M322.7 710.6a125.7 125.7 0 0 1-27.9-3.2c-58.9-13.3-86.8-49.1-113.9-83.8-18-23.1-36.7-47-64.5-64.5-22.1-13.9-33.4-27.4-34.6-41.4-1.7-20.1 17.5-37.3 37.8-55.5s39.6-35.3 39.8-55.8-13.8-36-30.1-54.1c-10.9-12.1-22.1-24.6-30.3-39.9-12.3-23-14.8-41.2-7.8-57.5 11.6-26.7 49.6-47.8 119.5-66.3l.6 1.9-.6-1.9c47.8-12.7 72.9-39 95.1-62.2 18.9-19.8 36.8-38.5 65.1-43.9 38.9-7.4 102.6-13.7 206.6 16.8 68.3 20.1 121.2 43.7 166.2 74.4 93 63.1 137.3 116.4 173 159.2 19.6 23.6 36.5 43.9 57.2 60.3 16.2 12.7 24.1 24.3 24.5 35.3.4 14.8-12.6 26.4-26.4 38.7s-25.4 22.6-30.1 37.4c-2.3 7.3-6.7 13.5-12.7 20.5-26.4 31.3-117.1 31.3-224.1 28.1-29.5-.8-57.2 3.5-82.7 8.3-49.1 9.2-88.7 39.1-130.6 70.7-45.3 34.2-92.1 69.5-152.7 77.3a130.3 130.3 0 0 1-16.4 1.1zM435 80.5a332.9 332.9 0 0 0-63.4 6c-27 5.1-43.6 22.5-62.9 42.7-22.5 23.6-48.1 50.3-96.9 63.3C143.2 210.7 106 231 95 256.6c-6.5 15-4.1 32.1 7.6 53.9 8 14.8 19 27.2 29.7 39.1 16.2 18 31.5 34.9 31.2 56.8s-21 40.9-41.2 58.9-38 33.9-36.5 52.1c1.1 12.6 11.8 25.1 32.8 38.3 28.4 17.8 47.3 42 65.5 65.4 27.9 35.7 54.1 69.4 111.6 82.3a121.3 121.3 0 0 0 42.9 2.1c59.5-7.7 105.9-42.7 150.8-76.6 42.3-31.9 82.2-62 132.2-71.4 25.8-4.8 53.7-9.2 83.6-8.3 106 3.1 195.7 3.2 220.9-26.7 5.6-6.6 9.8-12.4 12-19.2 5-15.8 18.3-27.7 31.1-39.1s25.5-22.7 25.1-35.6c-.3-9.7-7.8-20.3-22.9-32.2-21-16.6-38.1-37.1-57.9-60.9-35.4-42.6-79.6-95.6-172.1-158.5-44.7-30.4-97.1-53.8-165.1-73.7C516.9 85.8 470.8 80.5 435 80.5z"></path><path d="M317.4 727.9a135.6 135.6 0 0 1-35.5-4.9c-57.5-15.9-86.9-54.9-115.2-92.7-19.1-25.3-38.8-51.5-66.8-70.3-21-14.1-31.7-27.8-32.6-41.9-1.4-21.1 19.6-39.5 39.9-57.2s39.4-34.5 39.1-53.6-14.2-34-30.2-50.5c-11.4-11.6-24.3-24.8-33.4-41.7-13.4-24.7-16.2-44.3-8.8-61.5 11.4-26.8 47.8-47.7 114.4-66 46.9-12.8 72.3-41.2 94.7-66.2 20.3-22.7 39.4-44.1 70.9-49.8 53.4-9.5 121.1-16 218.4 8.3 71.8 18 127.7 42.2 176 76.1 94.2 66.1 138.4 122 173.9 166.8 21.5 27.1 40 50.5 64.3 69 17.7 13.5 26.7 26 27.7 38.2 1.2 16.2-11.7 29.6-25.4 43.8-11.1 11.5-22.5 23.4-27.6 37.8-2.7 7.7-7.2 14.4-11.5 21l-.6.9c-24.1 36.6-115.8 36.9-233.2 33.6-31.6-.9-61.4 5.4-86.5 11.7-44.8 11.3-82.9 38.5-123.2 67.3-52.1 37.2-105.9 75.6-178.1 81.3-3.6.3-7.2.5-10.7.5zM188.8 189.3l.4 1.6c-65.6 18-101.2 38.3-112.2 64-6.9 16.2-4.1 34.8 8.7 58.6 8.9 16.4 21 28.9 32.8 40.9 16.5 17 30.8 31.7 31.2 52.8s-20.3 38.8-40.2 56.2-40.1 35.1-38.8 54.5c.8 12.9 11 25.8 31.1 39.3 28.5 19.1 48.4 45.5 67.6 71.1 28 37.3 57 75.9 113.4 91.4a127.1 127.1 0 0 0 45 4.3c71.3-5.6 124.7-43.8 176.4-80.7 40.6-29 79-56.4 124.4-67.8 25.3-6.4 55.4-12.7 87.4-11.8 112.3 3.2 207.2 3 230.3-32l.6-1c4.2-6.4 8.6-13 11.1-20.2 5.3-15.1 17-27.3 28.4-39.1 13.1-13.6 25.5-26.5 24.4-41.2-.9-11.1-9.5-22.8-26.4-35.7-24.6-18.8-43.3-42.3-64.8-69.6-35.4-44.7-79.5-100.3-173.3-166.2-47.9-33.6-103.4-57.6-174.8-75.5-96.7-24.2-163.9-17.7-217-8.2-30.3 5.5-48.2 25.5-69 48.7-22.7 25.4-48.4 54.1-96.3 67.2z"></path><path d="M311.9 745.5a136.8 136.8 0 0 1-43-7c-56.1-18.3-86.8-60.5-116.6-101.4-20-27.5-40.7-56-68.8-76.1-20.1-14.4-30.1-28.3-30.8-42.5-.9-22.1 21-40.9 42.2-59s39-33.6 38.2-51.3c-.9-19.4-14.5-32.3-30.4-47.2-12.3-11.6-26.2-24.8-36.2-43.2-14.5-26.5-17.7-47.4-10-65.7 11.2-26.7 46-47.5 109.4-65.4 46.1-13.1 70.6-42.1 94.3-70.1 21.7-25.6 42.1-49.8 76.7-55.8h.2c50.8-8.7 127.5-21.8 230.1-.2 75 15.7 133.9 40.4 185.6 77.7 96 69.3 140.2 127.9 175.7 174.9 22.9 30.4 42.7 56.6 70.6 77.3 19.3 14.2 29.4 27.7 31 41.2 2.1 17.8-10.8 33.1-24.4 49.4-9.8 11.7-19.9 23.8-25.2 37.5a153.4 153.4 0 0 1-8.3 17.3c-1.2 2-2.3 4.1-3.3 6.1-21.5 41.7-118.2 42.3-242.3 38.9-33.7-.9-64.5 7.2-90.2 15.2-40.5 12.7-76.6 37.5-114.8 63.8-58.8 40.5-119.6 82.3-204.5 85.5zM166.6 189.3c-62.5 17.7-96.7 38-107.6 63.9-7.3 17.5-4.2 37.6 9.8 63.3 9.8 18 23.6 31 35.8 42.5 16.3 15.3 30.3 28.6 31.3 49s-18.7 35.8-39.3 53.5-42.1 36.2-41.2 56.8c.6 13.4 10.3 26.6 29.7 40.5 28.5 20.3 49.3 49 69.4 76.7 29.5 40.5 60 82.4 115.3 100.4a136.8 136.8 0 0 0 47.2 6.8c84.1-3.1 144.6-44.8 203.1-85.1 38.3-26.4 74.6-51.3 115.5-64.1 25.9-8.1 57-16.3 91.1-15.3 123.2 3.4 219 2.8 239.8-37.5 1-2 2.1-4.1 3.3-6.1a166.4 166.4 0 0 0 8.2-17c5.4-14.1 15.7-26.4 25.6-38.3 13.3-15.8 25.8-30.7 23.8-47.3-1.5-12.7-11.3-25.5-29.9-39.3-28.2-20.9-48.1-47.3-71.2-77.8-35.4-46.9-79.4-105.3-175.1-174.4-51.3-37.1-110-61.6-184.6-77.3-102.1-21.4-178.5-8.4-229 .2h-.2c-33.7 5.8-53.8 29.6-75.1 54.8-22.8 27.1-48.7 57.7-95.7 71z"></path><path d="M312.7 763.4h-6.6a150.6 150.6 0 0 1-50.1-9.2C201.1 733.6 169 688 137.9 644c-21.9-31.1-42.6-60.5-70.8-82-19.2-14.5-28.7-28.6-29-43-.6-23 22.3-42.3 44.4-60.9 19.9-16.7 38.7-32.5 37.5-49-1.5-18.9-15-30.6-30.7-44.2-13.2-11.4-28.2-24.4-39.1-44.3-15.4-27.9-19-50.8-11.1-69.9 11-26.7 44.2-47.3 104.4-64.8l.2.9-.2-.9c45.5-13.3 70.1-44.1 94-73.9s44.6-55.8 82.4-62l16-2.7c55.5-9.4 131.5-22.3 226.2-6.1 78 13.3 140 38.5 195.2 79.3 98.2 72.8 142.4 134.2 177.9 183.5 24.2 33.5 45.1 62.5 76.5 85.1 20.9 15.1 32.2 29.6 34.5 44.4 3.1 19.7-9.9 37.3-23.7 55.8-8.6 11.5-17.4 23.4-22.7 36.3-1.7 4.2-3.7 8.4-5.6 12.5s-3.9 8.3-5.6 12.4c-18.7 46.9-115.9 47.9-251.2 44.2-36-.9-67.8 8.9-94 18.7-36.2 13.4-69.7 36.3-105 60.6-64.2 43.9-130.6 89.4-225.7 89.4zM470.9 35.5c-53.3 0-98.4 7.7-134.7 13.8L320.3 52c-37.1 6.1-58.5 32.8-81.2 61.2-24.1 30-49 61-95.1 74.5-59.5 17.4-92.2 37.6-103 63.7-7.7 18.5-4.1 40.8 11 68.1 10.7 19.6 25.6 32.5 38.7 43.8 16 13.8 29.8 25.8 31.3 45.6 1.4 17.4-17.8 33.6-38.1 50.7-21.8 18.3-44.3 37.2-43.8 59.2.4 13.8 9.6 27.3 28.2 41.5 28.4 21.6 50.2 52.5 71.3 82.4 30.9 43.8 62.8 89.1 117.1 109.4a147.1 147.1 0 0 0 49.5 9.2c97.9 2.1 165.6-44.2 231-89 35.5-24.3 69-47.3 105.4-60.8 26.5-9.9 58.5-19.8 94.8-18.8 62 1.7 121.4 2.7 166.5-2.9 48-5.9 74.3-18.7 82.8-40 1.7-4.2 3.6-8.3 5.7-12.6s3.8-8.2 5.5-12.4c5.4-13.1 14.3-25.1 22.9-36.7 13.6-18.2 26.3-35.4 23.4-54.3-2.2-14.2-13.2-28.3-33.7-43-31.7-22.8-52.7-51.9-76.9-85.6C898.1 256 854 194.7 756 122.2c-54.9-40.7-116.6-65.8-194.2-79a533.5 533.5 0 0 0-90.9-7.7z"></path><path d="M306.1 781.4l-10.9-.2a140.2 140.2 0 0 1-52-11.6c-53.8-22.8-87.4-71.7-119.8-119-22.9-33.4-44.6-65-72.7-87.7-18.3-14.8-27.2-29-27.3-43.6-.1-24 24.9-44.6 46.9-62.8 19.6-16.2 38.2-31.5 36.5-46.6-2-18.6-15.4-29.2-30.9-41.5s-30.2-23.8-42-45.2c-16.4-29.7-20.4-54-12.2-74.2 10.8-26.6 42.4-47 99.3-64.2 44.9-13.5 69.8-46.1 93.8-77.5s47.1-61.7 88.2-68.2c9.7-1.5 20.3-3.4 31.4-5.4C391 23.7 468.5 10 557 21.8c80.1 10.7 147 37.2 204.8 81C862.7 178.9 907 243.3 942.6 295.1c25.1 36.6 46.8 68.2 81.7 92.7 60.5 42.5 38.3 75.6 14.9 110.7-7.4 10.9-14.9 22.2-20.1 34l-2.4 5.6c-3.2 7.2-6.3 14.1-8.4 21-15.7 51.9-117.8 53.2-260.2 49.5-30.1-.8-60.3 6-97.8 22.1-32.3 13.8-62.9 34.3-95.4 56-66.6 44.5-141.7 94.7-248.8 94.7zM121.2 185.5l.2.6c-56.5 17.1-87.8 37.2-98.5 63.4-8 19.8-4 43.7 12.2 73 11.7 21.3 27.6 33.8 41.6 44.9 15.8 12.4 29.4 23.2 31.5 42.3 1.7 15.9-17.1 31.4-37 47.8-21.9 18-46.6 38.4-46.4 61.8 0 14.1 8.8 28 26.7 42.5 28.4 22.9 50.1 54.6 73 88.1 32.3 47.1 65.7 95.8 119.2 118.5a143.7 143.7 0 0 0 51.6 11.5h10.8c106.7 0 181.6-50.1 248.1-94.4 32.5-21.7 63.2-42.3 95.5-56.1 37.8-16.2 68.1-23.1 98.5-22.3 141.8 3.9 243.3 2.6 258.8-48.4a211.7 211.7 0 0 1 8.4-21.2c.9-1.8 1.7-3.7 2.5-5.5 5.2-11.9 12.8-23.3 20.1-34.3 23.1-34.5 44.9-67-14.5-108.8-35-24.6-56.8-56.3-82.1-93-35.5-51.7-79.7-116-180.5-192-57.5-43.7-124.3-70.1-204.1-80.8-88.2-11.7-165.6 2-222.1 12l-31.5 5.4c-40.6 6.4-63.3 36.1-87.3 67.6s-49.1 64.3-94.5 78z"></path><path d="M307.3 799.8c-7.5 0-15.2-.2-23-.6a145.4 145.4 0 0 1-54-14c-52.8-25-87.8-77.3-121.5-127.9-23.9-35.7-46.4-69.4-74.5-93.4-17.5-15-25.9-29.4-25.7-44.1.4-25.2 26.5-46.3 49.5-64.9 20.2-16.3 37.6-30.4 35.6-44.2-2.7-18.3-16-27.8-31.4-38.9s-31.9-22.9-44.7-45.9C.1 294.3-4.3 268.5 4.2 247.2c10.5-26.2 41.4-46.9 94.4-63.3 44.3-13.9 69.3-48.1 93.5-81.1C217.5 67.9 241.6 35 286 28.3c14.2-2.2 30.1-5.2 46.8-8.3C393.3 8.5 468.5-5.7 552 2.4s152.7 35.1 214.2 82.7c103.5 79.6 147.9 147 183.5 201.1 27.3 41.3 48.8 74 87.2 100.3 30 20.6 43.7 40.8 43.1 63.4-.6 20-12.1 38.8-24.3 58.7-6.1 10-12.5 20.4-17.2 30.9s-8.3 18.7-10.5 28.3c-6 27-33.1 43.1-85.2 50.6-48 6.9-114.4 5.8-183.9 4-32.1-.8-63.5 7.1-101.7 25.6-28.4 13.8-55.8 32.2-84.9 51.7-70.4 47.1-149.5 100.1-265 100.1zM501.5.7C438.2.7 380.9 11.5 333 20.6c-16.8 3.2-32.7 6.2-46.9 8.4-44.1 6.7-68.1 39.5-93.5 74.2-24.2 33.1-49.3 67.3-93.8 81.3-52.8 16.4-83.5 37-93.9 63-8.5 21.1-4.1 46.6 13.3 78.1 12.7 22.8 29.6 34.9 44.5 45.6s28.9 20.8 31.7 39.4c2 14.2-15.5 28.4-35.9 44.9C35.6 474 9.7 494.9 9.3 519.8c-.2 14.5 8.1 28.7 25.4 43.5 28.2 24.2 50.7 57.9 74.6 93.7 33.8 50.5 68.6 102.7 121.3 127.6a143.8 143.8 0 0 0 53.7 13.9c7.9.4 15.5.7 23 .7 115.3 0 194.3-53 264.6-100.1 29.1-19.5 56.6-37.9 85-51.7 38.3-18.6 69.8-26.5 102-25.7 69.5 1.8 135.8 2.9 183.8-4 51.8-7.5 78.7-23.4 84.6-50.1 2.2-9.6 6.4-19.3 10.5-28.4s11.2-20.9 17.4-31c24-39.1 46.7-76.1-18.7-121.2-38.5-26.3-61.2-60.7-87.3-100.4-35.7-54.1-80-121.4-183.4-200.9-61.4-47.5-131.4-74.6-213.9-82.6-17.1-1.7-34-2.4-50.4-2.4z"></path></g></g></g></svg>