<svg xmlns="http://www.w3.org/2000/svg" width="1080" height="112.5" viewBox="0 -0.022630369290709496 1080.0206298828125 112.5034408569336" style=""><g><g data-name="Слой 2"><path data-name="Line241_43771471" d="M600.6 56.5c1.8-2.7 3.4-4 3.7-5.6 2.5-11.9-4.7-26.2-16.2-30.9-3.7-1.6-8.5-1.1-12.8-.6a119 119 0 0 0-17.8 3.4c-1.9.4-3.3 2.3-5 3.6s-1 1.2-1.6 1.2c-9 .5-13.8 8-20.4 12.6-10.7 7.4-21.4 14.8-32.3 21.9s-21.8 13.6-32.9 20-23.1 8.2-35.4 9.8c-10.7 1.4-21.2 1-30.5-5.6s-14-14.7-13.2-25.5a87.2 87.2 0 0 1 4.6-21.3c2.2-6.8 8.6-10.1 15-11.7a47.3 47.3 0 0 1 17.6-.9c11.5 1.6 16.4 8.4 17.8 22.5 5.4-1.9 8.7-9.2 6.9-15.2-1-3.5-4.4-5.7-5.7-8.3-2.3-4.5-5.8-5.4-9.4-7.1-10.8-4.9-21.1-1.8-31.3 1.9-15.7 5.7-29.9 14.1-43.5 23.9-7.9 5.7-17.6 8.9-26.3 13.5-13.8 7.3-27.3 15.1-41.3 21.9-11.5 5.6-23.2 11.4-35.5 14.8a73 73 0 0 1-29.8 1.7c-15.8-2.5-31.4-16.1-34.4-34-1.7-9.9 6.4-20.2 18-23.4 8.4-2.3 15.8 0 23.1 4.8-4-12.2-10.3-17-19.2-14.8a59.6 59.6 0 0 0-12.4 3.9c-12.4 5.9-24.9 11.9-37 18.5-15.5 8.4-30.4 18.1-46.2 25.9-9.8 4.9-20.9 7.3-31.4 10.6a202.4 202.4 0 0 1-66.5 9.9C10.8 97.7 2.2 92.1 0 85c2-.4 4.1-1.2 6-1 6.8 1 13.6 3 20.4 3.3s14.1.4 20.4-1.8a391 391 0 0 0 41.3-17.2c16.2-7.8 31.7-17.2 48-24.8s33.8-15.6 51.5-21c13-4 27.1-5.8 40.5 1.7 8.9 5.1 20.5 24.9 12.4 37.5-4.3 6.6-16.1 13.3-22.8 11.3a6.4 6.4 0 0 1-4.1-3.6c-.3-1 1.6-2.9 2.8-4.1 3-2.9 6.5-5.3 9.2-8.4s2.5-7.2-1.9-9.9-12.7-2.7-18.5 2.1-7.3 9.6-4 16.7c8.4 18.6 24.3 28.8 46.5 22.9 12.3-3.2 23.9-9.3 35.2-15.2 18.7-9.9 34.1-24.3 50.3-37.7 19.4-16.1 40-30.3 66-34.8a64.6 64.6 0 0 1 38.9 5.1c16.7 7.6 23.8 31.7 13.5 45.9-6.3 8.7-22.3 14.6-32.6 12.2-7-1.6-13.7-8.7-13.3-17.5.1-3.7 3.5-5.7 6.6-3.8a7.4 7.4 0 0 1 2.9 3.4c3.4 6.7 8 8.3 14.6 4.7 4-2.1 4.4-9 1.1-12.8-6.4-7.2-29.2-5.9-32.6 7.1-1.8 6.8-5.3 13.4-3.1 20.7a26.6 26.6 0 0 0 26.9 19c12.9-.4 24.4-5.7 35.1-12.6s23-16.1 34.8-23.8 20.2-16 30-24.3a33.4 33.4 0 0 1 9.1-6C542.5 13.7 553.8 8 565.7 6c9.7-1.8 20.4-.7 29.4 6.5s16.2 17.4 17.8 29.5-5.1 25.3-21.4 25.9c-6.1.3-11.4.2-15.6-4.5-1.2-1.4-1.1-3.9-1.7-5.8 2.4-.4 5.2-1.8 7-1s6.6 4.2 8.7.9 1.6-7.5.4-10.6c-4.1-10.3-9.5-12.1-21.2-8.4-7 2.2-10.9 10.7-9.6 19.3 1.9 13 19.4 25.4 29.3 26.7a52.2 52.2 0 0 0 21.9-2.4 5.3 5.3 0 0 0 2.4-1.1c7.8-10.1 20.8-12.6 30-20.6 6-5.2 12-10.5 18.3-15.4 11.7-9.2 23.5-18.3 35.7-26.8 6.9-4.8 14.7-8.4 22.2-12.4A21.1 21.1 0 0 1 737 5c9.1 3.6 18.8 6.6 25.1 14.8a35.9 35.9 0 0 1 5.4 10.7c4.1 12.5.7 24-6.5 34.4a9.3 9.3 0 0 1-5.6 3.5 35 35 0 0 1-23.3-3.5c-5.1-2.8-7.1-6.9-5.8-12.6.5-2.3.9-4.6 1.3-7.1-4.6.7-8.2 5.2-7.9 11.1.4 8.7 2.4 17.2 8 24.2 8.3 10.3 19.8 11.8 31.7 10.2s21.6-4 30.7-10.7a149.7 149.7 0 0 0 34.4-35.3c6.9-10 16.3-15.6 27.1-19s20.3-4.9 30.5-6.9c5-.9 9.9-1.4 14.3 3.3 2.5 2.6 7.1 3.4 10.9 4.5 5.7 1.7 9.9 4.8 12.3 10.3s5.8 10.5 6.7 16c1.4 8.7-8.1 21-16.5 23.4-11.2 3.1-16.5 1.3-23.4-8-.7-.9-1.5-1.7-2.2-2.5l-1.3.7c2.2 4.7 4.4 9.5 6.7 14.3.2.4.8 1 1.1 1 6-1.6 7 4.4 9.7 7 6.4 6.1 13.7 9 22.3 10.1 19.2 2.5 37-4.5 55.3-7.8 9.4-1.8 18.6-4.6 27.9-6.9 25-6 49-2.5 72 8.5 1 .5 2.3 2.4 2.1 3.3a4.6 4.6 0 0 1-3.2 2.5c-1.4.2-3-.5-4.6-.8-10.6-2.2-21.2-5.2-31.9-6.4a67.6 67.6 0 0 0-32.6 4.5c-10.8 4.3-21.5 8.8-32.5 12.2-17 5.2-34.2 5.7-51.8 2.4-13.6-2.5-24.1-10.2-34.7-17.9-8.2-6.1-12-15.8-14.2-25.5s3-19 12.2-24.4 24-1.3 28.7 10.6l1.2 3.2 1.6-.5c-1.4-4.4-1.8-9.7-4.6-13s-6.9-8.8-13-9.2c-2.1-.1-4.1.8-6.2 1.1s-3.5 1-3.9.4c-2.6-3.1-5.5-1.7-8.1-.8-17.7 6.1-35.3 11.9-49.1 25.9-6.6 6.6-15.5 11-23.3 16.5-12.2 8.4-24.6 15.9-39.2 19.9-16.4 4.6-31.6 3.3-45.3-6.7s-17.8-32.3-11.2-46.6c3.4-7.3 14.3-10.9 21.5-6.4 5.3 3.4 10.8 6.7 14 12.8 1.2 2.4 2.2 4.4-.2 5.6a9.1 9.1 0 0 1-6.9.2c-2.1-.8-2.8-4.9-6.2-2.9a5.9 5.9 0 0 0-1.9 2.6c2 1.6 3.9 3.8 6.3 4.6 10.6 3.3 19.9-3.4 19.8-15s-.8-16.5-14.7-20.7c-18.1-5.4-32.7 1.1-46.7 10.7-11.3 7.7-22 16.3-32.9 24.7-3.8 2.9-7 7-11.2 9.2-11.7 6.2-23.7 12.2-35.9 17.4-7.3 3-15.2 5.6-22.9 6-18 .9-32-7.5-41.9-22.4-6.1-9.2-5.4-27.4 3.2-35.3 5.7-5.2 27.7-7.9 33.3-.9 4.2 5.4 6.1 12.5 9.1 18.8.3.7.2 1.6.5 4.1zm283.3 5.9c4.7-2.9 4.7-2.9 9.8.6s8.7 3.3 12.4-1.5c1.9-2.5.4-8.3-2.6-11.3s-6.7-3-10.4-1.2c-6.6 3.3-9.6 7.6-9.2 13.4zM161.3 41.2l1.5 2.3 11.2-7.1-.8-1.2zm192.8-11.3c-5 3.4-6.3 8.1-3.1 11.9 1-4 1.9-7.3 3.1-11.9zm-13.9 11l-1.6-.4-3 6.6 1.1.9 5.4-2.4z" fill="#9fd8bc"></path></g></g></svg>