<svg xmlns="http://www.w3.org/2000/svg" width="1080" height="143.1" viewBox="-0.000087738037109375 -0.0000152587890625 1080.0001220703125 143.10000610351562" style=""><g><g data-name="Слой 2"><path d="M1080 8.8c-.4 12.2-13.4 11.9-26.3 11.6C999.1 31 952.4 49.5 890.3 52.6c-8 2.1-5.9-5.9-11.7-5.9-24-1.6-39.1 5.7-55.5 11.7-10 1.2-8.7-8.8-14.6-11.7-21.6 2.7-31.6 17-58.3 14.6-3.4-3.4-3.3-10.3-3-17.5-21.1 3.2-35 13.6-55.4 17.5-3.9-4.9-7.8-9.8-5.8-20.4-28.1 8.9-49.4 24.5-78.9 32.1-4-3.8-2.8-12.7-2.9-20.4-17.1 6.2-30.3 16.3-46.7 23.3-8.2-.5-12.4-5.1-11.7-14.6-17.5 1.9-22.5 16.4-43.7 14.6-2.4-5.4-4.9-10.7-5.9-17.5-16 8.3-33.2 15.4-46.7 26.3-8.2-.6-8-9.6-14.6-11.7-11.5 5.1-24.3 8.8-35 14.6-11.2 1.4-9.1-10.3-14.6-14.6-16.3-.7-40.9 34.1-43.8 2.9-21.4 1-28.2 16.6-49.6 17.5-2.4-3.4-3.9-7.8-2.9-14.6-36.8 6.1-55.9 29.8-90.5 38-4-3.8-2.9-12.7-2.9-20.4-33.3 9.5-50.8 34.8-87.6 40.8-4.2-3.9-4.2-16.5 0-20.4-24.1 4.1-34.4 22.1-58.4 26.3-6.5-8.8-3.4-10.2-2.9-23.4-16 4.1-27.2 23.1-46.7 14.6 10.7-29.2 46.6-33.2 75.9-43.8 4.3 3.4 4.5 11 8.8 14.6 20.7-2.6 30.5-16.2 49.6-20.4 8.9 1.8 14.9 6.5 14.6 17.5 26.1-14.7 52.5-29.3 81.7-40.9 5.8 4 11.3 8.1 8.8 20.5 25.6-11.4 47.1-26.9 75.8-35.1 1.7 7.2 11.3 6.2 8.8 17.5 6.8-7.8 20.9-8.3 29.2-14.6 5.8 3 12.5 5.1 14.6 11.7 13.5-6 24.5-14.4 40.9-17.5 2.5 5.2 8.1 7.4 5.8 17.5 11.6-4 25.3-5.8 32.1-14.6 8.9-.1 11.4 6.2 17.5 8.8 17.1-8.3 38.8-20.7 52.5-23.4 9.2-.4 10.1 7.5 11.7 14.6 11.2-3.5 21.5-7.7 32.1-11.7 10-1.2 8.8 8.8 14.6 11.7 22.4-5.9 33.9-22.5 61.3-23.3 1.7 6.1 7.3 8.3 5.9 17.5 22.8-8.3 41.6-20.6 67.1-26.3 5 4.7 10.6 8.8 8.8 20.4 17.4-3.9 29.6-13.1 49.6-14.6 2.6 5.2 8.1 7.4 5.8 17.5 18.7-.8 52.2-28.7 61.3-2.9 13-3.5 25.6-7.5 40.9-8.7 8.9.7 13.1 6.3 20.4 8.7 64.4-5.7 116.9-23.2 175.2-35a14.3 14.3 0 0 1 8.7 8.8z" fill="#5f3492" fill-rule="evenodd" data-name="Слой 1"></path></g></g></svg>