<svg xmlns="http://www.w3.org/2000/svg" width="1080" height="196.9" viewBox="0 0 1080 196.9">
  <g id="Слой_2" data-name="Слой 2">
    <g id="Слой_1-2" data-name="Слой 1">
      <path id="Line_263" d="M0,119A151.3,151.3,0,0,1,12.7,98.5a146.5,146.5,0,0,1,16-18.4A140.1,140.1,0,0,1,47.8,64.2,119,119,0,0,1,70.1,52.3a103,103,0,0,1,25.1-6.5,105.2,105.2,0,0,1,26.3,0c4.3.6,8.7,1.4,12.9,2.4s8.3,2.3,12.4,3.7,8,3,12,4.8,7.8,3.8,11.6,5.9a133.5,133.5,0,0,1,40,34.2,113.8,113.8,0,0,1,14.1,23.3,84.2,84.2,0,0,1,7.2,28.1,57.1,57.1,0,0,1-1.3,16.2,49.6,49.6,0,0,1-2.8,8.5,43.9,43.9,0,0,1-5,8.2,38.2,38.2,0,0,1-15.6,12,47.2,47.2,0,0,1-17.4,3.8h-4.2l-4-.2a44.8,44.8,0,0,1-9.1-1.9,40.2,40.2,0,0,1-17.1-10.6,39.2,39.2,0,0,1-6-8.2,42.2,42.2,0,0,1-3.7-8.8,54.7,54.7,0,0,1-2.2-17.1,70.7,70.7,0,0,1,2.1-15.5,102.9,102.9,0,0,1,4.6-13.9,124.2,124.2,0,0,1,13.7-24.2c10.6-14.8,23.6-27.1,37.6-37.5a249.4,249.4,0,0,1,44.4-26.1,309.6,309.6,0,0,1,47.7-17.3C325.8,6.7,359,2.1,391.9.7L404.3.3,416.4.1c8.1-.1,16.2-.2,24.3,0,16.3.1,32.5.7,48.8,1.8S522,4.5,538.2,6.5c8.1,1.1,16.2,2.2,24.2,3.5,4.1.6,8.1,1.4,12.1,2.1l12.1,2.3a655.3,655.3,0,0,1,94.6,26,709.4,709.4,0,0,1,89.6,39.4l10.7,5.7,10.4,5.4,21,10.5c14.1,6.8,28.3,13.4,42.6,19.4,28.7,12.1,58,22.4,87.8,28.8a234.6,234.6,0,0,0,44.5,5.6,127.4,127.4,0,0,0,21.5-1.3,83.4,83.4,0,0,0,19.8-5.1,48.2,48.2,0,0,0,15.9-9.9,31,31,0,0,0,9-14.2,28.8,28.8,0,0,0,.9-4c.1-1.4.2-2.5.3-4.4a93.7,93.7,0,0,0,0-10.6,63,63,0,0,0-4-20,47.3,47.3,0,0,0-4.5-9,48.8,48.8,0,0,0-6.4-8,59.9,59.9,0,0,0-17.5-12.3,92.8,92.8,0,0,0-21.8-7.1,121.7,121.7,0,0,0-23.5-2.7,96.6,96.6,0,0,1,24.1-3.3,91.4,91.4,0,0,1,24.8,2.6,72.3,72.3,0,0,1,23.9,10.8A62.9,62.9,0,0,1,1068.7,77a83.2,83.2,0,0,1,9.4,25.6,119.5,119.5,0,0,1,1.8,13.2,47.6,47.6,0,0,1-.1,7.5,52.9,52.9,0,0,1-1.3,7.8,58.7,58.7,0,0,1-14.9,26.4,78,78,0,0,1-23.8,16.2,113.9,113.9,0,0,1-26,7.8,164.1,164.1,0,0,1-26,2.3,260.8,260.8,0,0,1-50.3-4.5c-8.2-1.5-16.3-3.3-24.3-5.3s-16-4.2-23.8-6.6c-15.7-4.8-31.1-10.3-46.2-16.2s-30.1-12.3-44.8-19.1c-7.4-3.4-14.6-6.9-21.9-10.4l-10.9-5.4-10.5-5.2A770.1,770.1,0,0,0,669,75.9a660.9,660.9,0,0,0-89.8-23.1l-11.4-2-11.5-1.9c-7.6-1.1-15.3-2.2-23-3.1-15.4-1.9-30.8-3.3-46.4-4.2s-31-1.5-46.6-1.8H405.1l-11.5.4c-30.6,1.2-61,4.9-90.1,12.6a305.6,305.6,0,0,0-42.3,14.5A218.6,218.6,0,0,0,223,88.7c-11.7,8.4-22.3,18.1-30.6,28.9a91.1,91.1,0,0,0-10.3,16.9,50,50,0,0,0-4.6,16.8,25.6,25.6,0,0,0,.5,6.5,12.9,12.9,0,0,0,1.7,3.7,7.3,7.3,0,0,0,2.9,1.9,14.9,14.9,0,0,0,2.5.7l2,.2h1.8a15.6,15.6,0,0,0,5.8-.8,6.8,6.8,0,0,0,1.9-.8,5.7,5.7,0,0,0,1.4-1.3,10.4,10.4,0,0,0,1.4-1.9c.3-.8.7-1.7,1-2.7a27.8,27.8,0,0,0,1-7.5,52.1,52.1,0,0,0-3.8-18.2,84.1,84.1,0,0,0-9.5-18,109.3,109.3,0,0,0-13.7-16,121.9,121.9,0,0,0-16.8-13.4c-3-1.9-6.1-3.8-9.4-5.5s-6.5-3.3-9.8-4.7-6.8-2.7-10.3-4a87.3,87.3,0,0,0-10.3-3,92.3,92.3,0,0,0-10.5-1.9,97.7,97.7,0,0,0-10.8-.6,88.9,88.9,0,0,0-21.6,2.8C60.6,70.5,46.8,77.5,34.2,86.6a181.1,181.1,0,0,0-18.1,14.9A177.6,177.6,0,0,0,0,119Z" fill="#ff8d6e"/>
    </g>
  </g>
</svg>
