<svg xmlns="http://www.w3.org/2000/svg" width="1080" height="715.5" viewBox="0 0 1080 715.5103759765625" style=""><g><g data-name="Слой 2"><path data-name="Line31_344001602" d="M0 190.9c237.4 12.5 286.3 156.2 377.7 342.5 54.5 106.8 200.9 232.7 319.1 144.9 53.3-41.5 75.9-108.5 72.8-174.5-4.7-101.8 3.7-157.6 82.5-228.4C938.2 195 1021.4 107.7 1072.2 0h7.8c-42.6 92.9-110.2 172-183 242.7-31.9 32.1-68 60.8-92.9 99-34.4 51.5-27 115.6-27 174.4.9 67.7-27.4 134.3-83.6 173.9-134.6 87.4-290.1-68.3-340.1-187.7C276.1 329.9 208.5 207.5 0 198.8z" fill="#f476a9"></path></g></g></svg>