<svg xmlns="http://www.w3.org/2000/svg" width="796.5" height="1050" viewBox="-0.028481997549533844 0.027265071868896484 796.5509643554688 1050" style=""><g><title>chineseny7_416467724</title><g data-name="Layer 2"><path d="M783.1 476.7c-2.6 67.6-4.7 135.3-8.1 202.9-1.5 28.7-4.4 57.4-10.1 85.8-.7 3.8-.5 7.9-.4 11.8 1.1 24.2-10.2 41-31.3 51.5-12.7 6.2-26.6 8.6-40.3 11.3s-29.9 6.9-45 9.1c-17.5 2.6-34.8-2-52.1-3.5-13.2-1.2-26.4-2.4-39.2-5.7-9-2.3-17.7-5.3-25.6-10.4-11.9-7.7-18-18-18.1-32.9-.3-54.8-.3-109.5 1.1-164.2 1.5-62.1 4.1-124.2 9.2-186.2.9-11.3 2-22.6 3.1-33.9s3.6-12.4 14.6-12.7c4.9-.1 9.8-1.8 14.7-2.9 18.7-4.1 37.8-4.8 56.7-5.7 30.4-1.3 60.8-2.9 91.3-2.4a242.1 242.1 0 0 1 54.2 6.6c18.2 4.4 24.3 12.2 24.3 30.6v50.8z" fill="#f9cf6e"></path><path d="M662.7 506.5c-33-.1-62.3-3-91.2-10.2-6.9-1.8-14-2.5-21-3.9-25.5-5-32.7-22.1-31.7-43.8.6-12.1 2.8-24.1 2.9-36.3.2-14.1 11.5-20.8 21.8-27.1 18.8-11.6 40.1-16.4 61.8-18.4 43.1-4.1 85.9-1.1 128.4 7.6 11.2 2.4 21.6 7 31.7 12.2a26.8 26.8 0 0 1 14.6 18.9c3.9 19.4 6.5 39.1 6.5 58.9s-6.5 27.9-26.3 32.6-39.7 6-59.6 7.5c-13.7 1-27.4 2.6-37.9 2z" fill="#f15846"></path><path d="M734 359.5c3 1.9 5.6 0 8.3-.6 14.7-3.3 29.1-3.6 42 5.4 16.9 11.8 16 29.9-1 41.5s-33.7 11.9-51.8 9.4c-15.6-2.2-31.6-3.4-46.2-10.5a7.8 7.8 0 0 0-4.5-.7c-22.6 5.1-42.2-3.3-61-13.9s-31.6-27.1-40.1-46.8c-4.2-9.6-5.6-19.8-2.7-30.2 3.8-13.5 13.3-19.4 27.1-17.1s24.3 9.9 34.1 19.1c2.4 2.2 4.2 5.4 7.8 6.1 2.1-3.1-.2-5.3-1.1-7.6-4.9-13.7-9.9-27.4-10.3-42.2s1.6-27 12.2-37.3c8.6-8.4 16.1-9.1 26.5-3.1 12.1 7.1 18.8 18.2 23.3 31 5.1 14.6 6.6 29.8 8.5 45.1 3.5-.6 3.7-3.4 4.8-5.2 8.8-14.7 19-28 33-38.1a40.6 40.6 0 0 1 22.2-7.8c11.8-.4 19.5 6.3 20.8 18.2.9 9-1.7 17.2-5.2 25.3-9.4 21.3-24.2 38.4-41.4 53.6-2 1.8-5.1 2.9-5.3 6.4zm-53.6 3.4h2c.3-1.2.8-2.3 1.1-3.5 6-26.3 6.2-52.8 2.1-79.4a79.4 79.4 0 0 0-9.2-25.9c-2.2-4-5-8.2-10.1-7.8s-5.5 5.1-7.2 8.7c-2.6 5.6-2.8 11.7-2.9 17.8-.1 32.2 13.9 60.6 24.2 90.1zm-15.2 28.8c7.9 0 9.4-2.3 6.3-8.9a32.9 32.9 0 0 0-2.9-5.6c-12.1-18.5-26.4-35-42-50.5-4.3-4.1-9.8-6.1-15.2-8.2s-8.1 1-8.4 5.9a17.7 17.7 0 0 0 1.6 8.4c7 16.4 16 31.6 29.5 43.6 9 7.9 19.6 13.4 31.1 15.3zm33.9-28.8c6.3-5.2 10.9-9.5 15.9-13.2 16.9-12.8 30.1-28.8 41.9-46a37.4 37.4 0 0 0 6.4-13.5c.8-3.9 2.6-8.3-1.5-10.8s-7.1.8-9.9 3c-14.9 11.5-25.5 26.6-35.4 42.2-7.3 11.3-14.6 22.6-17.4 38.3zM746 403c8.8.1 17.5-.5 24.9-5.9s8.4-11.3-1.3-15.9c-2.8-1.3-5.8-2.8-8.9-3.2-22-2.7-42.8 2.9-63.5 9.4-1.9.6-4.3 1.6-4.2 4.1s2.7 2.2 4.3 2.8A168.6 168.6 0 0 0 746 403zm-98.7-80.6c-.1.2-.3.4-.3.6s.7.8 1 0-.1-.4-.2-.5z" fill="#f9cf6e"></path><path d="M715.3 437.5c-7.9 0-15.9-.3-23.4-.6l-9-.3a778.1 778.1 0 0 1-83.3-7.2c-32.1-4.3-54.9-13.1-69.9-27a1.1 1.1 0 0 1 1.5-1.5c14.6 13.5 37.1 22.1 68.7 26.4a774.6 774.6 0 0 0 83.1 7.2l8.9.3c22.6.8 48.1 1.7 68.7-5 3.3-1.1 14.2-5.2 14.9-14.2a1 1 0 0 1 1.2-.9 1 1 0 0 1 .9 1.1c-.8 10.3-12.7 14.9-16.3 16-14 4.6-30.1 5.7-46 5.7z"></path><g><path d="M569.6 676.9c16.4 1.2 32.8 2.3 49.3 3.3 40.4 2.7 80.8 4.8 121.3 6.6s57.2 6.7 53.6 53.1c-1.7 22.7-4 45.3-6.2 67.9-1.1 10.9-3.6 21.9-3.3 32.8.2 8.9-4.6 12.8-10.6 17a340.3 340.3 0 0 1-36.6 22.3c-24.9 13.6-49.6 27.7-75.5 39.6-14 6.4-28.4 7.8-43.3 6.3-24.5-2.3-49-4.1-73.5-6.3-55.6-4.9-111-11.2-166.6-16-27.7-2.3-55.6-4.3-83.4-5.6-24.1-1-51.2 2.5-74.8-2.2-8.7-1.8-14-8.9-14.4-17.9-.9-18.1.7-36.2 2.3-54.2 2.2-24.5 8.3-48.6 9.4-73.1.5-11.6 6.1-16.8 14.2-22.2 30.3-20.1 61.9-38 93.6-55.7a77.4 77.4 0 0 1 44.1-9.9h.1c66.8 4.3 133.6 9.5 200.3 14.2z" fill="#f15846"></path><path d="M648.2 775.7h-.1c-15.9-.4-391-10.1-429.1-34.4a1.1 1.1 0 1 1 1.2-1.8c37.2 23.8 417.4 33.8 427.8 34.1 5.4-1.8 128.6-43.3 136.6-66.7a1.1 1.1 0 0 1 1.4-.6 1 1 0 0 1 .7 1.3c-8.6 24.8-132.9 66.3-138.2 68.1z"></path><path d="M641.9 921.6h-.1a1 1 0 0 1-1-1.1c.1-1.2 7.4-118.1 4.8-145.7a1 1 0 0 1 .9-1.2 1.2 1.2 0 0 1 1.2 1c2.7 27.8-4.7 144.9-4.8 146a1 1 0 0 1-1 1z"></path><path d="M450.7 914.7a107.7 107.7 0 0 1-22.7-1.1c-7.5-1.1-10.1-4.1-10.6-11.5a375.2 375.2 0 0 1 .4-56.1c.8-10.1 1-20.2 1.6-30.3 1-17.3 2.7-34.6 3.2-51.9s10.6-27.1 22.1-36.9c21.7-18.5 45.4-34 68.8-50.1a15.7 15.7 0 0 1 9.2-2.9c11.3.1 22.7-1 33.8 2.5 6.6 2 7.9 7.2 3.2 12.2a31.7 31.7 0 0 1-3.7 3.6c-8.7 7-17.6 13.8-26.2 20.9-11.4 9.4-23.2 18.3-34 28.5a32.1 32.1 0 0 0-9.8 18.1c-5.3 28.4-10.1 56.7-12.3 85.5-1.6 19.9-2.2 39.8-3.6 59.6-.5 6.6-3.1 9.4-9.6 9.7z" fill="#f9cf6e"></path><path d="M708.6 884c.9-19.7 2.1-39.4 2.6-59.1.3-10.3.6-20.6 1.4-30.9 1.1-15.1 1.4-30.2 2.3-45.3.2-4.2-1.2-5.5-5.6-5.7-17.3-1-34.5-2.5-51.8-3.7l-37.5-2.5c-16.4-1.1-32.8-2.5-49.3-3.7l-35.4-2.5-50.8-3.8c-12.3-.9-24.7-1.6-37-2.4l-49.8-3.8-35.9-2.5-51.3-3.8-35.5-2.4c-1.2-.1-2.5.2-3.6-.2-3-1-6.9-1.4-7.5-5.3s2.6-5.5 5.2-6.9a239.4 239.4 0 0 0 21.2-12.9c6.1-4.2 12.4-1.1 18.5-.9 12.2.3 24.3 1.8 36.5 2.8l46.1 3.8c11.8.9 23.6 1.6 35.4 2.6l46.2 3.7 34.4 2.6 47.7 3.8 33.8 2.6 48.3 3.8 34.4 2.5 46.1 3.8 24.1 1.8c7 .4 9.1 1.9 8.7 9-.6 10.3-1.8 20.5-2.7 30.8l-3.9 39.9c-2.2 23.5-2.5 47-2.5 70.6-.1 8.9-4.3 15.2-12.4 18.9-3.4 1.6-6.7 3.7-10.3 4.7-5.4 1.6-10.6 1.4-10-6.8 0-.8-.1-1.7-.1-2.6z" fill="#f9cf6e"></path></g><g><path d="M539 119.9c-10.8-.3-20.5 2.4-30.3 5.1s-19.7 6.7-29.5 10.4-19 7-28.3 10.8c-12 4.8-23.2 11.1-32 20.9a24.4 24.4 0 0 0-4.2 5.9c-2.4 5.1 0 9 5.6 9.5s10.5-1 15.5-2.9c10.2-4 20.9-5.4 31.7-6.4 8.8-.7 17.6-.3 26.3-.9 15-1 30.1-1.4 44.9-4.4 7.4-1.5 14.8-3 21.7-6.4a45.1 45.1 0 0 0 14.1-11.2c4.3-5 3.9-13.6-.5-18.9s-8.8-6.7-14.2-8.4a80.8 80.8 0 0 0-8.8-2.2c-4.1-.7-8.3-1.3-12-.9z" fill="#ef7e70"></path><path d="M525.6 89.9c-17.8.6-35.9 5.5-48.4 12-18.8 9.7-35.3 23.4-51.1 37.5-3.2 2.8-6.4 5.7-7.9 9.6a10.4 10.4 0 0 0 9.7 14.4 35.2 35.2 0 0 0 13.6-3.2c4.6-2 9-4.3 13.5-6.6a252.1 252.1 0 0 1 68.5-24.3 166.8 166.8 0 0 1 19.8-2.3c6.5-.4 12.5-.2 18.5 2.7 1.4.7 3.1 1.5 4 2.9s1.7 4.5 2 6.8a24.8 24.8 0 0 0 2 8c.7 1.3 1.6 2.6 3 2.9a3.6 3.6 0 0 0 3.3-.9 9.3 9.3 0 0 0 2.1-2.7c6.8-11.6 4.2-28.4-3.6-39s-17.8-14.2-28.8-16.3a91.7 91.7 0 0 0-20.2-1.5z" fill="#f4c4ad"></path><path d="M31.3 310.5c1.9 5.9 1.6 12.5 1.2 18.6q-2.2 39.1-1.5 78.5c.1 9.1.2 19-5.2 26.4-4.2 5.8-13.6 8.9-18.4 14.2-2.5 2.6-5.5 8.9-2.8 11.3 5 4.5 20.7 3.4 27 3.3 10.6-.2 21.1-1.1 31.7-1.3 3.8-.1 8.5-.7 9.9-4.3s-.3-5.5-2-7.8c-4.6-6-11.6-9.7-17.4-14.5-11-9-9.2-19.5-9.2-32.3-.1-14.9 2.5-69.5 2.7-73.6.5-6.5-1.4-16.8 2.5-22.2a24.6 24.6 0 0 1 4.1-4.4c1.1-.9 2.1-1.9 3-2.8 6-6 9.5-14 12-22.1 5.2-17 6.7-34.5 6.9-52.2.1-5.3 0-10.6-.1-15.9l-.3-11.1c-.2-7.3.4-15.5-2.9-22.2s-11.6-9.1-18.7-9.9a102.6 102.6 0 0 0-29.8.8c-8 1.4-17.7 3-21.5 11.2a26.8 26.8 0 0 0-2 11.2c0 12.1.1 24.1.9 35.9 1.3 17.7 4 35.2 9.8 52.5 2.1 6.5 4.7 13.1 8.8 18.7a62.1 62.1 0 0 0 5.6 5.9c2.4 2.4 4.6 4.8 5.7 8.1z" fill="#f1f1f1"></path><path d="M30.9 189.2c-4.6 0-9.3-.1-13.9-.3h-2.4c-4.6 0-10.4 0-13.4-4a5.4 5.4 0 0 1-1.1-4.6c.7-3.4 4.2-6.4 6.3-7.6a1.1 1.1 0 0 1 1.5.4 1.2 1.2 0 0 1-.5 1.5c-2.1 1.2-4.7 3.8-5.2 6.2a3.1 3.1 0 0 0 .7 2.8c2.4 3.1 7.6 3.2 11.7 3.2h2.5c10.5.4 21.2.3 31.7-.2h2.8a50.5 50.5 0 0 0 11.7-1.2c3.5-.8 6.9-1.9 8.2-5a4.2 4.2 0 0 0-1.6-5.1 1.1 1.1 0 1 1 1.2-1.8 6.6 6.6 0 0 1 2.4 7.8c-1.9 4.3-6.6 5.4-9.7 6.2s-8.1 1.1-12.1 1.3h-2.8c-6 .3-12 .4-18 .4z"></path><path d="M1.4 225.3c1.3 17.7 4 35.2 9.8 52.5 2.1 6.5 4.7 13.1 8.8 18.7a62.1 62.1 0 0 0 5.6 5.9s17.4 3.2 28.3 0c1.1-.9 2.1-1.9 3-2.8 6-6 9.5-14 12-22.1 5.2-17 6.7-34.5 6.9-52.2 0 0-45.7 15.1-74.4 0z" fill="#f9c771"></path><path d="M4.8 461.3a.9.9 0 0 1-.9-.5c-.4-.5-1-2.6.9-10.1 1-3.8 5.3-6.7 10.3-9.9s12.5-8.3 14.8-15.2 1.3-53.3.6-77.3a1.2 1.2 0 0 1 1.1-1.1 1.3 1.3 0 0 1 1.1 1.1c0 2.8 2 69.6-.8 78s-9.5 12.2-15.7 16.2c-4.6 3.1-8.5 5.7-9.3 8.7-1.7 6.6-1.2 8.4-1.1 8.6a1.2 1.2 0 0 1-.4 1.4z"></path><path d="M60.7 381.9c.1 2.7.2 5.3.5 7.9a190.5 190.5 0 0 0 15.7 60.3c13.8 31.3 38.1 60.1 71 69.6 8 2.4 16.7 3.5 24.7 1 6.1-1.8 11.4-5.6 16.3-9.6 20.3-16.7 35.8-38.1 49.6-60.2s27.8-42.9 33.2-67.3a40.5 40.5 0 0 0 .5-16.6c-1.6-9-9.4-13.4-18.6-10.4-6 2-11.5 5.3-17 8.5-31.8 18-50.7 43.2-70.8 73.2-2.7 4-5.9 8.3-10.6 9.3-6.3 1.4-12.2-3.6-16.3-8.6-14.2-17.6-21.1-39.4-27.4-60.8-5.3-18.4-9.3-48-24.2-61.4-4.5-4-8.5-3.3-11.3 2.1s-2.3 12.7-3.6 19.3c-1.9 9.1-7.3 17.1-9.9 26a58.3 58.3 0 0 0-1.8 17.7z" fill="#f4c4ad"></path><path d="M520.2 661.3a13 13 0 0 0-5.8 2c-1.5-1.2-2.1-3.1-3.2-4.6s-3.3-2.7-4.9-1.6-.5 4.6.9 6.6c7.6 10.7-4.2 5-4.8 13-.1 2.4 1.1 4.6 2.1 6.8 4.2 9.2 4.3 19.8 3.5 29.9-2.4 29.5-11 58.1-14 87.5s.4 61.3 19.3 84c8.3 10 19.2 17.7 28.9 26.4 8 7.1 15.2 15.2 19.5 25.1 1.3 2.9 7.1 24.7 12 14.7 1.2-2.4.4-5.3-.4-7.8-5.5-16.1-15.2-30-26.6-42.4s-23.1-22.9-30.5-37.2c-8.5-16.6-9.6-36.1-7.9-54.7 1.9-21.3 4.6-43.7 9.3-64.5 6.7-29.1 13.8-55 8.8-85.3-1.1-6.5-2.5-13.1-5.5-19.1s-10-5.3-6.1 1.7a44.5 44.5 0 0 1 5.4 19.5z" fill="#f4c4ad"></path><path d="M132.8 876.2a72.8 72.8 0 0 0 2.6 13.3 8.7 8.7 0 0 0 6.6 6.3c15.1 3.6 30 4.2 36.2-12.4 2.6-6.8 3.1-14.2 3.8-21.5 2.2-23.6 7.6-47.8 21.8-66.8 18.8-25.3 51.8-37.7 66-66.5 6.9-14.1 4.8-27.8-6-39.3-12.9-13.5-33.5-33.7-53.9-27.5-9.1 2.7-16.7 9-23.4 15.8-24.4 25-38.5 58.5-45.6 92.8-4.3 20.3-6.2 41.1-7.1 61.9-.7 14-2.5 29.4-1 43.9z" fill="#f4c4ad"></path><path d="M160.6 167.8c9.6.2 19.2-1.3 28.6-2.8a140.9 140.9 0 0 1 56 2c6.1 1.5 18.4 6.4 22.7-1 2.1-3.7 1-7.7-1.3-11.1a45.1 45.1 0 0 0-9-9.5c-9.2-7.4-18.7-14.4-29.5-19.3a164.1 164.1 0 0 0-32.1-10.9 109.1 109.1 0 0 0-29-3.4c-13.3.4-26.1 2.7-37.9 9.2s-13.7 17.5-7.2 28.3 18.6 16.3 30.7 17.9a54.9 54.9 0 0 0 8 .6z" fill="#ef7e70"></path><path d="M205.4 898.4c6.8 3.7 15.7 4.1 23.7 3.9 5.6 0 11.3-.2 16.4-2.5 16.5-7.5 5.6-32.2 5.6-45.7 0-16.4 2.7-32 7.1-47.7 3.1-11 5.1-26.9 18.1-30.6 5.9-1.6 12.2-1 18.3-.4 26.3 2.6 52.9 3.7 79 .1 36.3-5 71.6-19.4 99.8-42.8 88.1-72.7 76.9-208.4 15.9-294.8-13.7-19.3-29.9-36.6-46.6-53.3-8.7-8.7-17.8-17.4-29-22.7-19.3-9.1-41-8.6-61.8-8.4a568.6 568.6 0 0 1-70.3-3.2c-5.8-.7-11.8-1.4-17.3.6-11.5 4.2-23.7 19.7-32.2 28.5a205.8 205.8 0 0 0-30.5 40.2c-17 29.1-27.1 62.1-30.3 95.6-4.7 50.5 6 101.8 27 147.9 7.4 16.3 17.3 33.1 33.9 39.9-6-2.5-20.7 31.4-22.4 35.5a210.8 210.8 0 0 0-13 49.9c-3.9 28.1-3.2 56.6-2.3 84.9.3 7 .7 14.4 4.9 19.9a16.5 16.5 0 0 0 6 5.2z" fill="#f4c4ad"></path><path d="M380.8 499.2c1.2 18.1-3.5 26-18.9 35.2-13.3 7.9-28.3 12.6-42.1 19.4-9.6 4.7-18.8 10.7-24.9 19.4-11 15.7-7.9 35.1.1 51.3 3.7 7.3 9.2 11.8 17.4 13 5.7.8 11.3 2 17 3a18.1 18.1 0 0 0 4 .4c6.7-.2 10.4-4.3 9.5-10.9a69.2 69.2 0 0 1 .1-21.3 27.7 27.7 0 0 1 1.1-4.8c1.5-4.5 4.4-7.4 9.3-8.3a85.6 85.6 0 0 1 31.1-.5 151.1 151.1 0 0 0 46.5 1.4c10.1-1.3 17.2-5.5 26.5-9.6 11.1-5 22.1-13.9 24-25.8a111.3 111.3 0 0 0 .1-33.6c-2-15.3-8.6-30-12.1-45-4.1-17.7-22-30.4-39.6-31.3-10.6-.6-21.2 2.4-30.6 7.5-5.6 3-10.9 6.9-14.4 12.3-5.7 8.7-4.8 18.6-4.1 28.2z" fill="#f4c4ad"></path><path d="M116.5 127.4a6 6 0 0 0 1.8 5 5.2 5.2 0 0 0 2.7 1.5 6.8 6.8 0 0 0 5.2-1.8c4.6-3.7 7.5-8 13.6-9.4 9.4-2.2 19-1.8 28.5-1.3a127.1 127.1 0 0 1 15.1 1.9 182.4 182.4 0 0 1 28.9 8.1c7.8 2.8 15.1 6.8 22.3 10.9s12 6.5 18.2 9.3a40.1 40.1 0 0 0 11.7 3.3c3 .4 5.9.1 7.7-2.6s1.4-5.7-.2-8.6a20.7 20.7 0 0 0-5.2-6.2c-8.9-7.3-17.2-15.3-26.6-21.8-19.5-13.4-40.7-22.6-64.3-25.5-7.1-.9-14.5-1.1-21.6.5-14.6 3.3-25.5 11.5-32.6 24.6-1.6 3.1-3.5 6-4.6 9.4a11.8 11.8 0 0 0-.6 2.7z" fill="#f4c4ad"></path><path d="M430.9 72.9a163 163 0 0 0-9.1-52c-1.3-3.6-3.7-13.4-6.5-16.1s-8.5-4.7-12.6-1.6-4.8 9.4-5 14.5-1.2 10.6-1.3 15.8-.5 11.6-1.1 17.4c-1.4 15.5-3.7 31.2-9.6 45.7-1.7 4.1-3 8.5-4.3 12.8-2.6 8.4 1.9 16 7 22.4 3.1 3.8 7 7 11.7 8.4a13 13 0 0 0 7.3.2 16 16 0 0 0 5.2-3c9.5-7.7 11.5-18.7 14.2-29.9a145.4 145.4 0 0 0 4.1-34.6z" fill="#9d5234"></path><path d="M195.1 890.1c.4 8.9.3 18.5 1.8 27.9a26 26 0 0 0 2.3 7.8c4 8.2 13 8.8 18.1 1.2.5-.8.9-1.6 1.4-2.3 3.7-5.7 9.4-7 15.2-3.5a26.7 26.7 0 0 1 4.8 4.1 30.5 30.5 0 0 0 5.7 4.5c3.2 1.7 5.9 1 7.9-2a19.1 19.1 0 0 0 2.9-8.5c1.4-11.1 1.3-22.3.9-33.5-.2-5.6-.4-11.2-1.8-16.7-1.9-7.4-5.4-10.3-13-11-5.4-.5-10.5 1-15.7 2-8 1.6-15.9 3.1-24.2 1.9-5.2-.8-6.8 1.1-7.1 6.2-.4 7.1.8 14.2.8 21.9z" fill="#b35d3b"></path><path d="M184 879.9c-.4-2.7-1-5.3-1.6-7.9s-1.3-4.9-3.5-6.1a9.6 9.6 0 0 0-4.8-.9c-6.8 0-13.5.7-20.3 1.3s-11.2 1-15.9 3.8-9.1 10.4-11.2 16.8c-4 12.2-5.7 25.5-1 37.3 1.5 3.7 5.3 8 9.9 7.2s6.9-8 12.7-8.2c10.8-.3 15.4 21.5 29 10.3a15 15 0 0 0 4.4-7.2c5.1-14.3 4.6-31.7 2.3-46.4z" fill="#b35d3b"></path><path d="M344.9 651.4c-.1-3.6-1.4-8-2.6-12.3s-2.9-10.2-4.8-15.1-4.6-5.9-8-7.5a121.9 121.9 0 0 0-21.7-7.7l-13.2-3.5a11.2 11.2 0 0 0-4.5-.2c-3.1.6-4.8 2.8-4.6 6.7.5 7 .5 13.9 2.3 20.7s3.9 15.2 7.2 22.4a32.1 32.1 0 0 0 5.8 9.1c4.8 4.8 9.8 4 12.6-2.2.8-1.8 1.2-3.7 1.9-5.5s1.8-3.3 4.6-1.4a38.1 38.1 0 0 1 5.9 5.5l.9 1c2.4 2.9 4.8 6 9 4.9s7.1-4.3 8.6-8.6c.6-1.7.6-3.5.6-6.3z" fill="#b35d3b"></path><path d="M253.2 74.7c-.2 15 1.3 29.1 6.3 42.6l1.2 3.4c4.6 12.7 18 19 30.9 17.7a30.1 30.1 0 0 0 16.9-7.3c4.6-4.2 10.7-13.3 5-18.7-14.8-14.3-23.1-31.8-26.8-51.9-2.3-12.1-2.7-24.3-3-36.5-.2-4.9.1-9.7-.5-14.6a13.6 13.6 0 0 0-2.4-6.7c-2.1-2.8-4.8-3.4-8-1.8s-4.5 3.9-6 6.6a104 104 0 0 0-8.8 24.7c-3.3 14.2-5.2 28.6-4.8 42.5z" fill="#9d5234"></path><path d="M234.7 391c.2-1.7.5-3.5.8-5.2 1.2-8 3.4-16.4 7.3-23.5 5.5-10.3 13.9-23 26.9-22.2 5.5.4 10.8 2.4 16 4.3 20.7 7.5 42.2 13.8 64.2 15.7s44.8-.9 64.7-10.4c4.6-2.3 9.3-4.9 14.4-4.6 14.5.8 17.1 22.8 17 33.9s-3.6 20.7-10.6 28.1-16 10.8-25.3 13.7c-33.1 10.5-73.8 13.1-106.7.2-4.9-2-9.8-3.9-14.2-6.7a2.7 2.7 0 0 0-.4 2.5c3.2 14.4 8.2 27.8 12.1 41.9 2.4 8.6 2.6 18.7-3 25.7s-12.7 8.4-20.3 9.5-18.4.9-26-3.7c-14.4-8.8-16.9-28.3-18.4-43.6a251.5 251.5 0 0 1 1.5-55.6z" fill="#f15846"></path><path d="M397.3 103.3a62.3 62.3 0 0 0 22.2-4 21.4 21.4 0 0 0 4-2 2.6 2.6 0 0 0 1.3-3.5c-.6-1.5-2-1.7-3.4-1.4l-1.3.4c-8.1 3.6-16.5 4.7-25.2 4.4h-1.4c-2.4.1-4 1.2-3.9 2.9s1.8 3 3.6 3.3a28 28 0 0 0 4.1-.1z" fill="#0f0d0d"></path><path d="M401.9 124.8a56.7 56.7 0 0 0 11.6-1.5 20.4 20.4 0 0 0 3.5-1.1c2.8-1.1 3.9-2.7 3.3-4.5s-1.9-1.8-5.1-.9c-7.3 2.1-14.7 3.2-22.2.6-1.5-.6-3-.6-3.9 1s0 3.2 1.3 4.4a7.9 7.9 0 0 0 4.2 1.5z" fill="#0f0b0b"></path><path d="M236.2 186.1c-2.9 22.1 2.3 44.9 10.9 65.6 4.9 12 11.2 23.9 20.6 32.9 20.7 19.9 51.9 22.7 80.6 23.7 19.9.6 41.5.4 57.6-11.4 11.1-8.1 18-20.7 23.3-33.4 9.6-23.2 14.9-48.6 12.4-73.7-7.7-75.2-86.2-108-151-76.2-26 12.7-46.8 36.8-53.1 65-.5 2.5-1 5-1.3 7.5z" fill="#f4c4ad"></path><path d="M359.7 398.4c6 .2 11.2-2.2 15.8-5.8a48.1 48.1 0 0 0 11.9-14.6 8 8 0 0 0 .9-2.6c.3-2.1-1.5-4.2-3.4-3.6s-3.8 0-5.7-.4a14.4 14.4 0 0 0-6.2-.2 70.5 70.5 0 0 1-12.9 1.9 54.3 54.3 0 0 1-18.7-2.6l-6-1.9c-2.2-.6-4.4-.7-5.9 1s-1.1 4.3-.2 6.5a37 37 0 0 0 5 8c5.3 7 12 12.2 20.9 14l1.8.3a24.3 24.3 0 0 0 2.7 0z" fill="#b05c3b"></path><path d="M362.4 378.5c6.1-.4 11.8-.9 17-1.5 14.7-1.7 29.5-5.1 41.9-13.2s21.9-21.6 22.3-36.3c.5-19.3-14.3-35.8-31.1-45.3-42.5-24-142.5-29.8-156.9 32.6-2.9 12.5-2 24.4 6 35 19.9 26.4 66.1 30.5 100.8 28.7z" fill="#b05c3b"></path><path d="M334.2 376a33.3 33.3 0 0 0 9.7-1.4c7.9-2.1 15.9-1.6 23.8-.1l5.3 1c12.9 3.1 24.6.6 35-7.6a39.2 39.2 0 0 0 3.2-2.5c1.3-1.2 1.6-2.7.4-4.1a2.5 2.5 0 0 0-3.6-.3c-2.3 1.4-4.6 2.9-6.8 4.5-7.5 5.1-15.7 5.9-24.3 4.3l-11.2-2c-8.4-1.7-16.8-1-25.1 1-10.1 2.4-18.9.2-26.3-7.1a7.5 7.5 0 0 0-1.7-1.4c-2.2-1.2-4.4.3-4.3 2.8a5 5 0 0 0 2 3.4c6.4 6 13.8 9.7 23.9 9.5z" fill="#0f0b0b"></path><path d="M376.4 333.6a2.8 2.8 0 0 0 3.2 2.9 8.8 8.8 0 0 0 2.8-1.2 46.9 46.9 0 0 1 8.9-5.4c1.6-.7 2.8-1.8 2.2-3.8s-2.1-2.1-4.5-1.3c-4.3 1.3-7.6 4.2-11.3 6.5a2.9 2.9 0 0 0-1.3 2.3z" fill="#0f0d0d"></path><path d="M316.5 328.6a3.2 3.2 0 0 0 2.4 2.9c3.4 1.5 6.9 3 9.8 5.4a2.4 2.4 0 0 0 3.6-.3 2.5 2.5 0 0 0 0-3.6c-3.4-3.9-8-5.7-12.7-7.2-1.8-.6-3.3.9-3.1 2.8z" fill="#0f0d0d"></path><path d="M605.9 1044.3l1.3.6c5.1 2.3 8.7.2 8-5.3-1.5-12.7.1-25.4-.4-38.1s-3.5-26.1-11.3-37.6c-5.6-8.2-10.9-16.3-19.3-21.9a51.8 51.8 0 0 0-11-6.2c-7.2-2.8-11.8-.2-13.1 7.4-1.8 9.7-.4 19.3 1.4 28.8a163.7 163.7 0 0 0 17.8 48.2 116.3 116.3 0 0 1 7.8 16.8c1.3 3.3 2.5 6.7 7.1 6.3.9-.1 1.3.6 1.5 1.3a25.9 25.9 0 0 0 1.4 2.9 4.3 4.3 0 0 0 4.4 2.5 4.4 4.4 0 0 0 3.7-3 17.6 17.6 0 0 0 .7-2.7z" fill="#c5552b"></path><path d="M315.7 72.4c-3.6.5-7.2 1.1-10.7 1.9-10.9 2.4-21.6 7.2-29.3 15.3-5.6 6.1-9.4 13.6-12.1 21.4s-2.4 14.6 3.1 21.6 11.6 10.8 18.6 14.2c19.5 9.3 42.7 10.8 59.8 24 9.1 7.2 15.5 17 21 27.1s9.5 20.7 17.8 28.5c1.5 1.5 1.1 2.5 3.4 1.5s3.8-7.2 4.5-9.2c3.2-9.2 4.7-18 13-24.1s16.9-7.8 24.4-13.3 18.6-15.3 16.8-26.2c-1-5.9.1-12.4-.2-18.3-.5-10.2-2.5-20.3-7.2-29.4-17-33.3-60.3-37.7-93.5-36.8a293.5 293.5 0 0 0-29.4 1.8z" fill="#c5552b"></path><path d="M35.1 331.3l6.4-2.3c-1.5-2.1-3.4-2.6-5-3.4a38.4 38.4 0 0 1-6.8-4.1c-5.2-4.2-4.8-11.4.9-15 3.2-2 7.2-2.5 10.9-2.7 10.6-.7 21.4.2 31.4 3.7s19.1 10 25 18.9c4.3 6.5 6.5 15.7 1.6 21.7-2.8 3.4-7.3 4.9-11.6 5.8a90.9 90.9 0 0 1-31.2 1.5c-8.9-1.2-21.2-3-27.8-9.9-3-3.1-3-6.9-.1-10.1a18.5 18.5 0 0 1 6.3-4.1z" fill="#b35d3b"></path><path d="M342.7 635.7a1 1 0 0 1-1-.8c-.3-1-5.8-24.4 3.5-35.6 7.4-8.8 24.8-9.9 60.2-4 29.5 5 64.1-9.8 74-31.7 12.3-27.1-16.7-93.1-17-93.8a1.1 1.1 0 0 1 .5-1.4 1.2 1.2 0 0 1 1.5.6c1.2 2.7 29.6 67.5 16.9 95.5-10.3 22.7-45.9 38.1-76.3 32.9-34.1-5.7-51.4-4.7-58.1 3.3-8.7 10.3-3.2 33.4-3.2 33.7a1.1 1.1 0 0 1-.7 1.3z"></path><path d="M287.7 607.1a1 1 0 0 1-1-.9c-3.1-27.6 13.1-47.9 48.1-60.3l2.3-.9 3.5-1.2c11.4-4 41.7-14.5 39.1-35.1-3-24.3 3.9-37.7 4.2-38.2a1.2 1.2 0 0 1 1.5-.5 1.1 1.1 0 0 1 .4 1.5c0 .1-6.9 13.3-3.9 36.9s-28.8 33.3-40.6 37.4l-3.4 1.2-2.4.9c-33.9 12-49.6 31.5-46.7 58a1 1 0 0 1-.9 1.2z"></path><path d="M194.6 811.5h-.1a1.1 1.1 0 0 1-1-1.1c1-16.3 5.7-63 15.2-82.9 5.6-11.8 13.6-21.2 23-27.3s18.9-8.4 28.7-11l11.2-3.1a123.1 123.1 0 0 1 20.7-4.3 1.1 1.1 0 0 1 .3 2.1 129.9 129.9 0 0 0-20.4 4.2c-3.7 1.2-7.5 2.2-11.2 3.2-9.7 2.6-19.7 5.2-28.1 10.7s-16.8 15-22.3 26.4c-8.4 17.5-13.5 58.7-14.9 82.1a1.1 1.1 0 0 1-1.1 1z"></path><path d="M232.3 702.1h-.6c-35.7-23.6-55.7-66.5-59.5-127.8-3.7-58.7 9.3-111.1 10.7-116.9 10.4-40.4 52.2-81.9 52.6-82.3a1.1 1.1 0 0 1 1.5 0 .9.9 0 0 1 0 1.5c-.4.4-41.7 41.5-52 81.4-1.5 5.7-14.3 57.8-10.7 116.2 3.8 60.5 23.5 102.9 58.6 126a1.1 1.1 0 0 1 .3 1.5 1 1 0 0 1-.9.4z"></path><path d="M389.7 774.4a1.1 1.1 0 0 1-1-.8 1 1 0 0 1 .8-1.3c49.1-11.7 90.8-39.4 114.4-76 14.1-21.9 24.4-48.8 30.5-80.1a1.1 1.1 0 0 1 1.3-.8 1 1 0 0 1 .8 1.2c-6.2 31.6-16.5 58.7-30.8 80.8-23.9 37.1-66.1 65.2-115.7 76.9z"></path><g fill="#0f0d0d"><path d="M412.8 209.3c6.8.7 9.1 4.4 6.7 10.8a23.7 23.7 0 0 1-4.4 7.3c-3.3 3.3-6.9 2.4-8.3-2a19.5 19.5 0 0 1 .1-12.4c1.1-3.5 2.1-4.1 5.9-3.7z"></path><path d="M285.1 222a14 14 0 0 1-1 5.7c-1.9 4.8-6.8 5.5-10 1.5s-2.7-12.3.5-15.8 5.6-2.6 7.8.1a11.8 11.8 0 0 1 2.7 8.5z"></path><path d="M419.2 211.5a2 2 0 0 1 1.3-.1l1.5.6a6.7 6.7 0 0 0 3.7-.2c3.5-.8 6.7-2.4 10-3.8a8.6 8.6 0 0 1 2.1-.7 2.9 2.9 0 0 1 2.1.6c1.1.8 1 2.5.3 3.6a6.5 6.5 0 0 1-3.1 2.3 32.3 32.3 0 0 1-14.8 4.1c-1.3 0-2.9-.1-3.8-1.1s-.6-2.8-.2-4a2.1 2.1 0 0 1 .7-1.2z"></path><path d="M419.7 211.1a10.7 10.7 0 0 1-4.1 1.5c-1.2.1-2.5 0-3.2-1.1a2.7 2.7 0 0 1 .2-3.3 7.2 7.2 0 0 1 1.9-1.1c4.4-1.9 7.9-5.5 11.5-8.8a4.9 4.9 0 0 1 2.8-1.7 2.8 2.8 0 0 1 3 2.7 5 5 0 0 1-1.8 3.3c-2.1 2.1-4.4 4.1-6.7 6a39 39 0 0 1-3.6 2.5z"></path><path d="M271.8 218.9l-12.1-1.3a6.9 6.9 0 0 1-5.4-3.7 3.1 3.1 0 0 1 .6-4.1 2.4 2.4 0 0 1 3.6.4c1.4 1.9 3.3 1.8 5.3 2s6.6.5 9.8 1c1.5.3 2.9 1.3 2.7 3.1s-1.8 2.6-3.6 2.7z"></path><path d="M265.6 201.1c0-1.6.5-2.9 2-3.3s2.7.1 3 1.4c1.2 4.7 5.3 7.2 8.1 10.7.7 1 1.6 1.8 2.2 2.8a2.6 2.6 0 0 1-.2 3.4 2.4 2.4 0 0 1-3.3.4c-4.6-4.1-9.4-8.1-11.6-14.2a6 6 0 0 1-.2-1.2z"></path></g><path d="M165.7 169a72.8 72.8 0 0 1-30.8-6.8c-11.9-5.5-18.5-17-16.9-29.3a1.1 1.1 0 0 1 2.1.3c-1.5 11.3 4.7 21.9 15.7 27.1a71.6 71.6 0 0 0 41.4 5.6l3.1-.5c12.9-2.2 26.2-4.4 39.2-3.2 11.3 1 21.9 2.9 22 2.9a1.1 1.1 0 0 1 .9 1.2 1.1 1.1 0 0 1-1.3.9c-.1 0-10.6-1.8-21.8-2.9-12.7-1.2-25.9 1.1-38.7 3.2l-3.1.5a77.2 77.2 0 0 1-11.8 1z"></path><path d="M287.7 414.9h-.4c-39-16.1-37.9-61.2-37.9-61.6a1.1 1.1 0 0 1 1.1-1.1 1.3 1.3 0 0 1 1.1 1.1c0 .5-1.1 44.1 36.6 59.7a1 1 0 0 1 .5 1.4.9.9 0 0 1-1 .5z"></path><path d="M445.2 388.2h-.1a1.2 1.2 0 0 1-1-1.2c2.5-32.8-7.6-37.7-7.7-37.7a1.1 1.1 0 0 1-.5-1.4 1 1 0 0 1 1.4-.6c.4.2 11.6 5.2 8.9 39.9a1.1 1.1 0 0 1-1 1z"></path><path d="M439.8 179.2a1.1 1.1 0 0 1-1.1-.9 1 1 0 0 1 .9-1.2c.4-.1 39.6-6.1 53-6.9l10.6-.5c13.9-.6 32.9-1.4 42-4.2l.9-.3c.2 0 20.1-4.5 26.4-14.6a1 1 0 0 1 1.4-.3 1.1 1.1 0 0 1 .4 1.5c-6.7 10.8-26.8 15.3-27.7 15.5l-.8.2c-9.4 2.9-28.5 3.7-42.5 4.3l-10.6.5c-13.3.8-52.4 6.8-52.8 6.9z"></path><g fill="#f1f1f1"><path d="M52.3 255a3.8 3.8 0 0 1-5.2.3 3.7 3.7 0 1 1 4.8-5.6 3.8 3.8 0 0 1 .4 5.3z"></path><circle cx="31" cy="267.4" r="2.5"></circle><circle cx="43.3" cy="281.9" r="2.5"></circle><path d="M43 268.8a2.1 2.1 0 1 1-.2-3 2.1 2.1 0 0 1 .2 3z"></path><path d="M39.4 257.8a2.1 2.1 0 1 1-.2-3 2.1 2.1 0 0 1 .2 3z"></path><path d="M41.5 248.3a2.1 2.1 0 1 1-.2-3 2.1 2.1 0 0 1 .2 3z"></path></g></g><g fill="#0f0d0d"><path d="M357.3 143.4a166.6 166.6 0 0 0-22.5-14.5l-5.4-2.9c-5.8-3.1-11.7-6.2-16.8-10.4-8.3-6.8-12.6-15.7-11.4-23.8a1.1 1.1 0 0 0-1-1.3.9.9 0 0 0-1.1.8c-1.1 7.4 1.8 15.4 7.9 22s13.2 10.2 20.5 14l.9.5c14.3 7.7 30.5 17 41.9 31.4a59.1 59.1 0 0 1 12.1 24.8 1.4 1.4 0 0 0 .4.7h.8a1.2 1.2 0 0 0 .9-1.3c-3.9-18.4-17-31.9-27.2-40z"></path><path d="M374.1 120a150 150 0 0 0-13.2-9.8l-1.4-1c-5.2-3.5-10-7.6-10.4-13.4a.9.9 0 0 0-.6-.9 1.1 1.1 0 0 0-1.1 0 1 1 0 0 0-.4.9c.3 4.5 2.8 8.6 7.8 12.6 2.3 1.9 4.9 3.6 7.4 5.3s4.7 3.2 6.9 5a113.9 113.9 0 0 1 14 12.9 95.3 95.3 0 0 1 11.7 15.1c4.6 7.4 6.4 14.1 5.7 20.4a1 1 0 0 0 .4.9l.6.2h.5a1.3 1.3 0 0 0 .7-.9c1.4-12.7-6.9-24.2-15.1-33.8a122 122 0 0 0-13.5-13.5z"></path><path d="M414.3 117.2a57.7 57.7 0 0 0-9.7-10.6 1.1 1.1 0 1 0-1.4 1.6A61 61 0 0 1 424 151a56.5 56.5 0 0 1-.8 13.7 1.1 1.1 0 0 0 1.1 1.4h.3a.9.9 0 0 0 .6-.7 63.1 63.1 0 0 0-10.9-48.2z"></path></g></g></g></svg>