<svg xmlns="http://www.w3.org/2000/svg" width="768.5" height="1080" viewBox="0 0 768.5 1080">
  <g id="Слой_2" data-name="Слой 2">
    <g id="Frame113_272946070">
      <g id="Frame113_272946070-2" data-name="Frame113_272946070">
        <path id="_272946070" data-name="272946070" d="M740.8,556.4c34.8-17.6,40.8-50.4-4.9-69.7,26.2-24.1,34.3-49.8-3.4-67.3,34.9-32.1,17-61.4-24-71.8,50-22.7,35.5-79.3-19.2-74.1,16.2-13.9,35-35.2,22.7-54.1-9.9-17.1-25.8-21-45.3-19.2,14.7-18.2,16.9-35.3,2.1-52.6s-34.1-11.1-52.5-5.6c12.3-50.6-18.3-89.1-67.8-56.8C555.7,35.5,507.3,21,473.7,51c0-48.9-62.9-63.9-82.5-18.8-17.9-40.1-57.7-42.9-88.6-7.5-22-39.3-75.1-23.4-81.3,18-.9,7.1-1.4,14.2-2.1,21.8-37.4-24-63.3,5.1-59,43.9-52.4-18.6-68.6,18-39.5,58.8-46-9.7-62.3,24.7-38.2,60.3-37.5,16-50.3,27.8-19.2,61.9-5.6,1.6-11.1,2.8-16.4,4.7-27.1,8-21,44.7,0,56.3-36.8,16.3-40.1,33-13.3,62.5-46.3,17.9-40.7,46.2-8,69.2-24.8,25-23.7,42,5.1,61-42.8,19.7-33.1,50.5,6.2,66-45.8,16.9-45,52.2.7,67.7-16.9,10.9-34,25.3-23.1,46.4,8.5,17.6,24.9,20.6,43,24.7-12.7,8.4-21.5,14.6-26.7,28.4-15.1,33.2,20.4,39.9,45.5,42.4-3.4,5.3-7.3,11-10.9,16.8C40.7,871.8,90.2,897,120.8,888c-5.3,10-11.2,19.7-15.6,30-10.5,30.5,42.7,49.1,65.7,33,1.2-.8,2.7-1.1,6-2.4-12,19.3-17.5,38.8.9,55.6,14.2,16,36.3,5.7,53.3-5.1-5.8,51.6,41.9,58.1,71.7,25.3.1,22.9,8.8,42.7,32.2,48.3,21.7,5.9,31.1-14.3,42.6-27.8,21.2,52.4,64.4,42.9,71.8-7.2,6.2,7.2,11.1,13.9,17.1,19.4,8,7.4,17.5,9.6,28.1,4.8,16.3-7.5,14.3-23.6,14.1-39.2,34.4,31.8,67.4,7.3,56.4-35.7,14.9,9.7,37.9,21,47.5-.1,11.3-20.7,9-32.6.1-54.2,17.3,9.2,32.6,8.1,46.4-2.4,16.1-12.3,10.1-28.6,5.8-44.7,45,5.2,54-41.6,21.5-66.7,18.7-1.1,50.2,3,48.3-23.5.1-16.5-9.9-28.4-20.8-39.8,40-1.8,54.2-36,20.6-60.7,44.1-12.3,30.9-47.5-1.2-65.3C772.2,615.6,776.2,575.9,740.8,556.4ZM327.2,979.5C228.8,938,217.7,927.8,154.5,841.7,103.3,770,101.2,677.4,88.5,593c-9.9-120.3,16.1-329,93.3-423.9,36.6-42.3,80.5-88.9,138-98.5,18.1-1.4,37,1.3,55.2,3.6a6.8,6.8,0,0,1,.2-1.4c151.6,7.7,245.4,119.6,297.6,252.6,12,26.7,12.6,55.7,15.1,84.1,11,96.7,4.8,193.4-5.6,289.9-8.1,91.2-66.4,168.9-131.7,229.6C491.6,986.3,404.8,1017,327.2,979.5Z" fill="#f371be"/>
        <path id="_272946070-2" data-name="272946070" d="M740.8,556.4c34.8-17.6,40.8-50.4-4.9-69.7,26.2-24.1,34.3-49.8-3.4-67.3,34.9-32.1,17-61.4-24-71.8,50-22.7,35.5-79.3-19.2-74.1,16.2-13.9,35-35.2,22.7-54.1-9.9-17.1-25.8-21-45.3-19.2,14.7-18.2,16.9-35.3,2.1-52.6s-34.1-11.1-52.5-5.6c12.3-50.6-18.3-89.1-67.8-56.8C555.7,35.5,507.3,21,473.7,51c0-48.9-62.9-63.9-82.5-18.8-17.9-40.1-57.7-42.9-88.6-7.5-22-39.3-75.1-23.4-81.3,18-.9,7.1-1.4,14.2-2.1,21.8-37.4-24-63.3,5.1-59,43.9-52.4-18.6-68.6,18-39.5,58.8-46-9.7-62.3,24.7-38.2,60.3-37.5,16-50.3,27.8-19.2,61.9-5.6,1.6-11.1,2.8-16.4,4.7-27.1,8-21,44.7,0,56.3-36.8,16.3-40.1,33-13.3,62.5-46.3,17.9-40.7,46.2-8,69.2-24.8,25-23.7,42,5.1,61-42.8,19.7-33.1,50.5,6.2,66-45.8,16.9-45,52.2.7,67.7-16.9,10.9-34,25.3-23.1,46.4,8.5,17.6,24.9,20.6,43,24.7-12.7,8.4-21.5,14.6-26.7,28.4-15.1,33.2,20.4,39.9,45.5,42.4-3.4,5.3-7.3,11-10.9,16.8C40.7,871.8,90.2,897,120.8,888c-5.3,10-11.2,19.7-15.6,30-10.5,30.5,42.7,49.1,65.7,33,1.2-.8,2.7-1.1,6-2.4-12,19.3-17.5,38.8.9,55.6,14.2,16,36.3,5.7,53.3-5.1-5.8,51.6,41.9,58.1,71.7,25.3.1,22.9,8.8,42.7,32.2,48.3,21.7,5.9,31.1-14.3,42.6-27.8,21.2,52.4,64.4,42.9,71.8-7.2,6.2,7.2,11.1,13.9,17.1,19.4,8,7.4,17.5,9.6,28.1,4.8,16.3-7.5,14.3-23.6,14.1-39.2,34.4,31.8,67.4,7.3,56.4-35.7,14.9,9.7,37.9,21,47.5-.1,11.3-20.7,9-32.6.1-54.2,17.3,9.2,32.6,8.1,46.4-2.4,16.1-12.3,10.1-28.6,5.8-44.7,45,5.2,54-41.6,21.5-66.7,18.7-1.1,50.2,3,48.3-23.5.1-16.5-9.9-28.4-20.8-39.8,40-1.8,54.2-36,20.6-60.7,44.1-12.3,30.9-47.5-1.2-65.3C772.2,615.6,776.2,575.9,740.8,556.4Zm9.8-48.8c18.8,15.4-3.6,38.5-21.9,39.8-7.2,1.2-14.7,1-22,1.3-.8-1-1.5-2.1-2.2-3.1,1.7-2,3-4.5,5.2-5.7,16-9.5,16.5-22.6.6-32-3.3-2-6.9-3.5-5.1-7.5C717.8,490,739.1,498.5,750.6,507.6Zm-10.2-41.9c-7.3,9.5-25.2,24.4-37.1,14.9,2.3-5,7.2-7.8,11.1-11.3,8-9.4,5.7-21-5.8-25.6-6.3-2.5-10-5-7.3-12.8C724.1,423.9,763.4,438,740.4,465.7Zm-9.7-97.2c24.3,20.5-2.2,48.9-31.1,48-.2-2.9-.4-5.8-.6-9.3,25.6-4.8,20.1-32.5-3.8-34.5-.5-4.2-.9-7.9-1.3-12.4C707.9,358.2,720.1,360.3,730.7,368.5Zm-29.3-83.9c23.5-1.5,38.1,27.8,16.6,43.7-8,6-17.1,10.4-28.4,17.1.6-5.9-.3-10,1.3-11.5,5.4-4.9,8.5-10.2,5.9-17.4-5.4-18.2-24.3-8.9-26.1-24.3A61.6,61.6,0,0,1,701.4,284.6Zm-20.9-73.8c17.5-.4,28.5,17.7,21.2,33-5.5,11.4-27.7,28.8-41.4,31.6,7.6-13.6,12.6-33.7-7.9-36.2-7.8-.7-12.1-3.3-14.4-11.8C650.3,217.8,664.5,211.3,680.5,210.8Zm-43.3-63.6c10.7-2.1,19.6,1.1,26.2,10.9,16.1,26.3-14.9,46.4-36.9,58.3,1.6-5.6,2-8.6,3.2-11.2,7.6-16.2-4.7-30.8-21.2-25.9-5.8,1.7-6,1.1-11.7-5.6A62.6,62.6,0,0,1,637.2,147.2ZM588,85.3c32.4,10.5,23,57.2-1,74.7-9.2-2.9-2.1-11.7-1.1-17.8,3.6-22.5-18.9-26.8-34.6-15.8l-10.7-7.8C546.7,95.8,569.1,80.5,588,85.3ZM519.5,47.8c28,7.3,20.3,43.2,6.8,61.7-6.5-4.1-5.7-7.9-6.6-14.2-4.2-17.9-16.8-23-32.5-13.2-5.8,3.6-5.8,3.6-13.6-.1C477.5,55.6,495.1,42.8,519.5,47.8ZM397.1,51.3c6.2-42.6,57.2-49.9,65.1-5.2.3,9.9-1.7,19.9-2.9,32.7-6.5-4.6-9.2-4.2-9.1-10.9-1.1-22.3-28.3-26.7-40.7-10.1-2.8,3.3-3.7,10.7-10.2,7.5S395.9,56.2,397.1,51.3Zm-72.9-32c18.3-15.9,50.4-8.3,55.5,17.1,1.6,8.5,3,17.2,4.6,26.1C370.4,69,373,49.2,364.1,41.9c-14.6-17.1-33.7-5.4-39.5,13.3-4.1.8-7.8,1.5-11.7,2.1C307.2,42,311.6,27.7,324.2,19.3ZM231.3,46.9C232.6,21,266.9-.4,286.4,21.7c9,7.8,18.9,36.9,7.9,44.6C271.6,38,250.9,52.4,257.4,85.6l-9.1,6C237.6,78,229.5,64.4,231.3,46.9ZM175.8,76.1c18-24.8,48.3,4.2,61.7,23.7-25.4-13.2-50.2-.7-34.7,33.7l-6.6,5.3C177.8,121.4,162.5,99,175.8,76.1Zm-58,58.5c-5.5-23.8,21.7-23.6,36.7-15.6,11.6,6.1,20.3,15.9,30.4,26.6-30.4-5.3-39.2,7.4-26.1,34.5C140.2,170.4,120.4,156.9,117.8,134.6ZM84.6,186.5c11-19.7,52.8-5.5,67.2,8.8-7.8,5.8-11.5,5.3-19.8,3.9-19.1.7-12.8,17.8-3.1,27,3.9,5.2-.2,8.6-4.9,8.7C101.4,231.8,72.7,212.2,84.6,186.5ZM60.8,269.1c-6.5-9.6-5.2-15.5,4.8-21.8,17.4-12.4,41.2-6.9,57,6.2-25.5-1.6-33.9,20.5-13.9,36.4C91,287.4,71.4,284.5,60.8,269.1ZM40.3,325.7c-8.7-31.8,48.7-30.5,66.3-15.5-25.2,4-39.9,21.6-8.9,40.9-3.2.7-5.6,1.9-7.4,1.4-12.6-3.8-25.3-7.7-37.6-12.2C46.3,337.9,42.1,332.6,40.3,325.7ZM29.1,388.1c-10.6-32.7,46-32.1,64-16.8-3.4,4.5-7.6,5.9-12.9,6.8-20.9,7.4-14.6,28.2,3.9,34.3v3.2c-2.6.7-5.6,2.5-7.7,1.8-11.2-3.8-22.4-7.7-33.2-12.5C36.1,401.8,31.8,395.4,29.1,388.1Zm-6.7,77.6C5.7,452.4,7.6,437.3,27,428.2s36.9-5.6,55.6,6.2c-28.6,11.7-33,26.7-7.6,45.9-1.7.2-3.7.9-5.5.5-13.1-3.3-26.2-6.6-39.3-10.3C27.4,469.7,24.8,467.6,22.4,465.7Zm4.1,30.7c10.4-8.6,35.7-8.6,49.2,1C65.3,499.8,56,503,55.4,514.9c-.6,13.7,11.3,14.7,19.9,17.6-.4,6.3-3.8,7.7-7.4,6.9-12.4-2.8-25.4-4.4-36.8-9.6C16.3,523.2,14.8,506,26.5,496.4ZM17.4,584c-13.7-15.1,9-27.5,21.7-30.3,10.7-1.5,21.9.2,32.8.8,1.3.1,2.5,1.8,4.8,3.6C67,563.6,56.4,569,58.2,581.6c2.2,10.2,12.7,8.5,20.1,13C60.6,604.7,29.2,598.9,17.4,584Zm17.7,79.7c-56.2-25,14.2-57.1,45-46.8C75.8,625,64.6,629,66.2,640.4s11,14.7,22,19C72.8,668.4,51.6,670.3,35.1,663.7Zm-.6,65.9c-11.7-5.7-19.6-25.4-2.8-35s36.2-16.4,57.8-18c.3,7.3.2,8.3-6,11.2-6.7,5.7-8.4,13.2-7.2,21.4,1.4,12,13.7,11.4,21.9,16.7l-.8,4C76.6,737.5,55.5,739.9,34.5,729.6Zm34.4,76.9C40.1,806.2,27,791,50.8,765.9c14.5-11.3,31.4-16.9,48.5-20.8,3.1,3.4,2.6,4.5,3.8,8.7-22.4,8.2-10.3,38,10.1,39.7C99.1,801.8,84.3,805.6,68.9,806.5Zm47.5,70.6c-13.8,5.1-26.9.6-38.6-7.2-22.1-16.2,6.7-48.7,25.9-54.6,5.8-1.9,11.3-4.8,18.3-7.8l6.1,12.6c-20.7,18.8-8.8,35.4,16.8,27.8l8.5,12.4C140.3,866.3,128.7,872.6,116.4,877.1Zm43.8,67.1c-12,5.7-34.2-.3-42.3-11-12.2-23.2,25.8-50,44.2-60.9l7.1,9c-17.5,21.2-3.4,32.3,19.7,23.6a59.1,59.1,0,0,1,9.6,11.5C186.6,927.3,174.4,937.4,160.2,944.2Zm48.6,54.7c-17.2,11.5-39.8-12.3-30.2-29.1s18.5-29.3,31.5-43.5c2.3,3.5,4.1,5.6,5,8.1-1.1,7.2-4.7,16.5,3.8,21.4,12.1,8.3,17.6-12.7,27.3-1.1C240.1,974.6,227.9,989.7,208.8,998.9Zm77.2,26.6c-51.4,33.5-55.3-36.3-25-63.7l9.6,5.1c1.5,11.8-2.3,22.2,7,24.6,12.7,3,13.2-6.2,20.8-11.7l11,4.6C304.5,1000.4,297.9,1014.5,286,1025.5Zm73.7,25.1c-5.4,6.7-10.8,14.5-21.5,11.9s-19.7-9.7-22.6-21.4c-3.3-17,1.8-33.8,6.4-50.3,16.6.7,9.5,11,13.4,21.6,6.5,15.7,20.8,5.9,24.6-6,2.5-4.7,5.8-4.6,10.2-1.6C371.8,1021.1,370.6,1037,359.7,1050.6Zm77-6.3c-2.2,10.9-8,23.1-20.3,24.8-26.9-.7-33.8-41-30.2-65.2,5.5,4.8,9.1,4.8,10.5,9.7s5.5,11.8,12.7,11.4c10.2-.7,9.4-10.1,11.9-17.7l10.8-2.5A83,83,0,0,1,436.7,1044.3ZM327.2,979.5C228.8,938,217.7,927.8,154.5,841.7,103.3,770,101.2,677.4,88.5,593c-9.9-120.3,16.1-329,93.3-423.9,36.6-42.3,80.5-88.9,138-98.5,18.1-1.4,37,1.3,55.2,3.6a6.8,6.8,0,0,1,.2-1.4c151.6,7.7,245.4,119.6,297.6,252.6,12,26.7,12.6,55.7,15.1,84.1,11,96.7,4.8,193.4-5.6,289.9-8.1,91.2-66.4,168.9-131.7,229.6C491.6,986.3,404.8,1017,327.2,979.5Zm167.3,69.1c-18.5,21.2-46.1-32-47.7-49.3,16.1,2.3,24.7,17.5,30.2-5.3.3-1.2,1.4-2.1,3-4.5C491.9,995.2,503.6,1037.5,494.5,1048.6Zm51.8-23.7c-25.3,8-39.2-23.6-49.3-43.1,5.8-1,8.8-2.1,13,1.6,11.8,5.2,20.3-.2,20.2-13.1-1.7-7.2-2.4-8.3,3.6-14.8C547,972.8,569.9,1010.3,546.3,1024.9Zm54.9-40.5c-15.9,14.3-44.5-24.9-57.3-34.1,8.1-12.2,11.6-6.8,21.1-4.4,16.7,3.3,18.6-12.6,11-24.1l6.5-7.3c6.7,1.5,20.4,28.1,24.7,35.2C613.5,962.1,607.8,973.8,601.2,984.4ZM656,919c-20,22.1-44.7-.9-63.2-13.5.1-1.4.3-2.7.4-4.1,5.3-3.7,10.6-3,16.5-2.1,15.3-.3,14.3-15,6.8-24.7l7.6-9.7C640.6,878.6,668.5,895.4,656,919Zm32.3-82.2c13.9,16.3,4.1,43.3-19.7,37.6-13.8-2.8-26.1-9.5-38.5-20.2,6.1-3.1,9.1-6.7,15.4-5,17.6.9,19.7-16.9,6.9-25.5,2.6-4.7,3.9-10.2,9.6-6.5A263.9,263.9,0,0,1,688.3,836.8Zm34.8-46.9c9.9,27.7-44.6,17.4-57.9,10.1,1-5.4,1.6-10,8.4-9.6s12.5-1.8,14.8-8.5c3.6-9.2-3.7-13.2-8.7-19.5l3.7-6.9C702.4,759.5,717.9,770.9,723.1,789.9Zm14.1-77.6c9,8.9,8.2,17.8-1.9,25.6-13.9,8.8-32.6,7.3-48,3.1-3.4-16,28.9-9.7,9.6-34-2.7-3.4-4.6-5.2-2.7-10C710.6,696.5,725.3,700.6,737.2,712.3Zm-.6-67.7c42.2,32.3-11.9,49.2-42.1,36.5,2.3-4.1,1.8-8.2,5.9-9.5,32.3-19.1-9-21,.5-36.4C713.2,635.8,725.8,637.2,736.6,644.6Zm1.2-29.1c-11.8,4.9-23.8,4.9-37,4.5-.2-4.4-.4-8.1-.6-12.5,31.1-4,32.4-24.1,3-33.9,0-2.9.2-6.7.3-12.1,14.6.1,27.1,1.4,38.1,9C760.2,583.5,758.5,605.8,737.8,615.5Z" fill="#fff"/>
      </g>
    </g>
  </g>
</svg>
