<svg xmlns="http://www.w3.org/2000/svg" width="737.6" height="1080" viewBox="0 0 737.6 1080">
  <g id="Слой_2" data-name="Слой 2">
    <g id="Frame186_4259671">
      <path id="Frame186_4259671-2" data-name="Frame186_4259671" d="M52.2,2.2c2-.7,3.9,1.2,6,.9S62.8,1.6,65.3,1s3.4,1.8,5.1,2.5c3.4,2,7.4.4,10.9,1.6,7.5,1.5,15-.1,22.3.7s14-1.9,21-1.1,14.3,1.6,21.1-.9A91.4,91.4,0,0,1,163,6.3a45.6,45.6,0,0,1,11.1,1.4c3.2,1.3,6.6-.7,9.8-.4H198c7.4,1.3,14.9.6,22.3.9s12.5.7,18.6-.9,12,.5,17.9-.7c7.5-1,15.1,1.7,22.5,0a48.3,48.3,0,0,1,7.6-.3c13.9.4,27.9,0,41.9,0,15.6-1.4,31.3-.3,47.1-.7,2.4-.2,4.9.9,7.5.7,13.4-.1,26.8,0,40.2,0,7.9.2,15.8.4,23.6-.6s17.7-.4,26.5-.1a116.5,116.5,0,0,0,26.4,0c3.6-.5,7.3,1.1,10.9.4s9.8-.4,14.6-.4c3.1,0,5.2-2.6,8.3-2.8s8-.4,11.9.6,6-1.3,8.8,0,4.8,2.2,7.4,2h30.2c3.2.2,6.1-1.1,9.1-1s8.5,1.9,12.7,1.9c8.5-1.3,17.1-1,25.6-.7,4.3,1,8.5-.3,12.7-.3s10.7-.3,15.9-1.5,10-1.1,15-1A68.9,68.9,0,0,0,700.7,0c1.9,1.6,3.3,4.5,6.2,3.8.5-1.3,1.1-2.6,1.6-3.8a15.3,15.3,0,0,1,3,.3c2.3,2.6,5.1,4.9,7.2,7.9,3.8,5.8,8.2,11.5,10.1,18.3,2.3,10.2,3.8,20.5,5.2,30.9a46,46,0,0,0,2.4,9.2c1.4,6.1-.8,12.1-.9,18.2-1.2,8.3-.7,16.7-.9,25.2s-.6,18.8.7,28.2c.3,2.9-.1,6.2,1.2,9.1s.7,8,1,11.9-2,8.5-2.6,12.8-1.2,6-1.9,9.1c0,12.8-2.8,25.4-3.8,38.1q0,31.5-.1,62.9c-1.3,13.2-.5,26.3-.7,39.2.2,10.7-.6,21.4.5,31.9s.2,18.2.3,27.4c-.4,20.4.2,40.8-.1,61.2.4,6.5.7,13.4-.5,19.9a22.5,22.5,0,0,0,.2,8.2c1.2,3.4-1,6.7.1,10.1,1.6,5.5-1.4,10.9.2,16.4,1,7.6-.9,15.5,1,22.9.6,9.6,0,19.4.1,28.8.2,2.8-1.1,5.4-.8,8.2.1,4.8-.3,9.6.1,14.3s.3,9.3.7,14.1.5,10.9-.7,16.3a118.1,118.1,0,0,0,0,11.9c1.3,5.1.5,10.4,1.6,15.5.6,2.7-.9,5.1-1.6,7.6-1.1,6.4,1.6,12.5,2.4,18.7-.9,4.3-2.2,8.5-2.5,12.9.3,2.7,1.1,5.4.8,8.1-.1,5.3.6,10.5-.7,15.6s1.9,11.7,0,17.3c-.1,5.7-.6,11.5.2,17.4,1.3,3.8,2.4,8,.1,11.8s-.4,9.3.9,13.8-.5,8.2-.5,12.4-1.3,5.5-.5,8.3,2,6.4.8,9.6c-2,7-.8,14.3-1.3,21.4s-.3,12.8-.7,19.2c-.3,3.4,1.2,6.6.9,10.1.3,6-1.9,11.9-1,17.9s-.2,9.2,0,13.9c.1,2.3,1.3,4.6.8,7.1-1.6,6.3-.4,13-.7,19.4-.4,11.2-.3,22.5,1.7,33.6.2,6.1,0,12.2.2,18.2-.3,4.4.3,8.8-.9,13a28.5,28.5,0,0,0,.5,10.5c.8,2.9-.9,5.6-.6,8.4-.8,7.7,2,15.2,2.6,22.7.1,12.1-1,24.2,1.3,36.2,1.5,4.9,2.8,10.9-.9,15.3s-4.2,10.2-8,14.4a44.7,44.7,0,0,1-13.2,6.8c-3.1.9-5.7,2.8-8.8,3.5s-5.4-1.9-8.3-1.9-7.6,2.5-11.6,2.8-7.3-.2-10.8.9c-7.4,2.4-15.4-.2-23,1.9-6.1,0-12.1.3-18.2,0s-9.8.5-14.6-.3a40.2,40.2,0,0,0-10.3-.6c-7.6.6-15.3-.7-22.8.4-4,.8-8.3.6-12.5.5H543.8c-3.2.1-5.8-2.4-8.9-2.5-6.7,2.2-13.8,3.8-20.8,1.9-3.2-1-6.1,1.1-9.3.6s-4.1-1.2-6.2-.6a34.1,34.1,0,0,1-8.5.6c-3.4.4-6.6-1.3-10-.9s-7.7,2-11.8,1.9c-9.4-.2-18.9.3-27.9-2.6-3.1-1.2-5.4,2.6-8.6,1.7s-5.7.3-8.3,1.8-7.9.1-11.8,0c-4.4-2.2-9.2-4.4-14.1-3.4-2.4.9-4.6,2.5-6.9,3.4a18.5,18.5,0,0,1-9.5-1.5,17.8,17.8,0,0,0-12,1.5c-2.2,1.3-4.9.8-7.3.8,1.6-1.4,3-2.9,4.5-4.3-1.9-.2-3.9-.6-5.7.4-4.5,2.6-9.8.1-14.6,1.6-8.1,2.2-16.3-1.3-24.3-.1-4.6,1.7-9.3,0-14-.3-7,.1-14.1-.6-20.9.8-11.8-1.6-23.8-.3-35.6-.8-7.9-.5-15.9.8-23.7-.8-9.4-.1-18.8-.1-28.3,0-49.1-.4-98.3.3-147.5.2-5-.3-10.1.9-14.6-1-2.6-1.1-5.5-.9-8.3-1.1-1.6-2-3.4-3.9-4.8-5.8s-7.2-3.2-9.2-6.5c-.1-8.8-1-17.8.9-26.4.6-2.5,2.5-4.7,2.6-7.3,0-5.5,2-11.4,0-16.9l-2.3-1.2c-4.5,2.7-4,8.4-5.9,12.6-.1,3.9.3,7.7,0,11.6l-1.7-.4c-.3-4.1,0-8,0-12.1s-4.4-5-4.8-8.2,2.5-8.3,1.2-12.6S-1,991.4.2,985.7a99.6,99.6,0,0,1,7.4-20.4c1.8-2.6-.3-5.5-.7-8.3-1.8-4.8-1.2-10.1-1.2-15s4.4-5.5,4.5-9.3,3.3-5.7,2.8-9.1-1.9-5.1-2.8-7.7,0-4.1,0-6.1c.9,1,1.6,2,2.5,3.1,3.4-4.4,3.2-10.4,3.2-15.8s-.1-13.8-.3-20.8a51.7,51.7,0,0,1-.1-18.4c.3-1.6-.4-3.2-.6-4.8-.6-4.8.9-9.6-.9-14.2.8-3.7,2.2-7.3,2.7-11,.1-1.6-1.4-2.6-1.9-3.9,1.1-3.1,2-7-.6-9.6,1.3-4.1,0-8.3,1.6-12.2a17.4,17.4,0,0,0,1-8.1,53.4,53.4,0,0,0-3.5-4.8c1.9-3.6,2.3-7.8,2.5-11.8s.4-9.6-.7-14.2.8-6.7.7-10.1a83.5,83.5,0,0,0-.3-10c-1.3-4.6-.2-9.1-.4-13.7a111.2,111.2,0,0,0,.5-20c-.3-5.2,3.5-9.5,2.9-14.6.5-3.2-1.7-5.5-2.7-8.3.1-4.6,3.5-8.7,2.6-13.6-1.5-6.5-.9-13.3-.9-19.9.2-4.5,2.5-8.8,1.8-13.5a38.8,38.8,0,0,1,.1-17.6c-1.3-3.2-3.8-6.3-3.6-10.1s1.6-7.3,2.5-10.9-.8-4.8-.8-7.3c1.9-7.7.6-15.6,1.2-23.4.7-2.5,1.3-5.1.1-7.5-1.7-4,1.8-7.8,1.5-11.9s.7-9.9-.6-14.6,2.2-9.6,1.3-14.4-.7-12.2-.7-18.4c-.3-3.9,1.2-7.7.9-11.6-.5-11.1.4-22,.1-32.9-.1-3.5,1.2-6.7,1.6-9.9s-.9-5.1-.9-7.7.8-4.1.9-6.2-1.3-4.2-1.6-6.4,1-4.6.9-7.1c-.3-5.8.1-11.7-.9-17.3s.9-8.6.7-12.9c0-8.8,0-17.6.2-26.5,1.9-7.3-1.8-14.8.6-22.1.6-7.7,0-15.6.3-23.3-.5-4.7,1.6-9.2.4-13.7-1.5-7-1.5-14-1.2-21,.6-4.2,1.8-8.4,1.6-12.8-.1-12.4-.1-24.9-.1-37.4-.6-3.2-.7-6.6-1.2-9.9-1.3-7.6.2-15.3-1.1-22.8s.1-13.7-.5-20.5c-.8-2.5-2.6-4.7-4.1-6.9-1.8,7.6-1.1,15.6-1,23.5,1.2,4.4-.8,8.6-1,13v34.6c.3,6.3-.6,12.7.2,19,.5,3,1,6.2.2,9.3s0,6.8-1,10.2.5,7.1.6,10.8c.2,14.8-.3,29.7-.1,44.5a37.7,37.7,0,0,1-.3,7.5c-.9,3.9-.2,8.1-.8,12.2a6.6,6.6,0,0,1-2.4-7c1.7-4.9.4-10.2.7-15.3s.4-13.1-.7-19.5c-.8-4.8,1.1-9.5.7-14.3-.3-10,.4-19.9,0-30s0-17.8-.2-26.5c-.8-4.5-.5-9.2-.7-13.7-.1-6.1,1.5-12.1,1-18.2.3-4.1-2.6-7.6-1.9-11.6.6-2.2,2.1-4.3,1.9-6.5-.3-11.6-.4-23.3-.1-34.8.1-3.5-1.6-6.5-2-9.7a27.2,27.2,0,0,1,.2-13A101.5,101.5,0,0,0,9.5,120c-.6-7.5.9-15.4-1-22.8,0-4.7-.1-9.4-.1-13.9.1-2.7-1.4-5.2-1.7-8A56.8,56.8,0,0,1,7,64.4C8.5,58.6,5,52.9,5.7,47s2.7-9.6,1.8-14.5c-.3-2.2-1.3-4.1-1.6-6.3a23.4,23.4,0,0,1,1.9-6l2,.2c1.3,2.5,2.5,5.1,4.5,7.1s5.3-1.9,7.2-4c-1.1-1.8-3-3.4-3-5.4,2.1-3.5,5.3-6,7.9-9.1a21.3,21.3,0,0,1,5.7-5.1c2.6-.4,5.2-.3,7.7-.7,4.1-.7,8.5.6,12.4-1ZM36.2,21a5.6,5.6,0,0,0-5.7,5.7V1058.8a5.7,5.7,0,0,0,5.7,5.7H707.1a5.8,5.8,0,0,0,5.8-5.7V26.7a5.7,5.7,0,0,0-5.8-5.7ZM12.4,371c-2,5.5-1.4,11.5,0,16.9,1.9-.7,1.5-2.9,1.6-4.5,0-4.2.2-8.3-.1-12.5Zm-.1,18.4a59.1,59.1,0,0,0-.2,10.3c.3,5.2-.3,10.6.2,15.9h1.4c0-6.4-.1-13,.3-19.5-.1-2.4.6-5.3-1.7-6.7Zm-.9,35.3A28.6,28.6,0,0,0,13.3,438c1.3-2-.6-4.2-.3-6.4s1.2-6.7.7-10.2a10.9,10.9,0,0,0-2.3,3.3ZM6.5,476.3v2.9c1.3,1.2,2.9,1.3,4.5,1.5a20.2,20.2,0,0,0,2.2-10.8c-3.5.3-4.4,4.4-6.7,6.4Zm1.9,27.1,2.4-.4c2.1-2.9,1.2-6.4,1.2-9.8-2.8,2.6-3.5,6.6-3.6,10.2Zm.2,19.1c-.4,1.7-1.4,3.3-1,5.1a5.1,5.1,0,0,0,3.4,2.5c.4-3.5-.5-7.3.8-10.7.6-1.9,2.1-4.2-.1-5.8-3.2,2-1.9,6-3.1,8.9Zm-3,26.6c.4.5,1,1.4,1.4,1.8,2.2-3.7,4.4-7.6,5-11.7l-1.3-3c-2.6,3.8-4.8,8.1-5.1,12.9Zm2.8,12.3a21.1,21.1,0,0,1,1.3,7l-4.1,4.5a10.5,10.5,0,0,1,2.6,1.3,24.4,24.4,0,0,0,1.9-12.7Zm.8,37.8a15.9,15.9,0,0,0,.9,12.3c.3-6.1,1.5-12.3.9-18.5-3.1,0-1,4.2-1.8,6.2ZM6.9,624.7c2.8-1,3.9-3.5,3.6-6.2-3.5-.8-6.7,3.6-3.6,6.2ZM9.4,872.2c-1.6,5.3-2.8,10.8-1,16.2s.7,9.2,1.1,13.7l1.6.7c.3-10.3-.4-20.7.2-31l-1.9.4ZM7,1043.5c-2.1,6.1-.8,12.5-1.1,18.8a17,17,0,0,0,2.3,9.5,3.1,3.1,0,0,0,3.9,1.9c.6-4-1.4-7.6-1-11.5a12.8,12.8,0,0,0-1.3-6.7c-1.7-4,1.9-8.2-.7-12Z" fill="#fff" fill-rule="evenodd"/>
    </g>
  </g>
</svg>
