<svg xmlns="http://www.w3.org/2000/svg" viewBox="-0.03128957748413086 0.002402782440185547 1080.041259765625 1458.3074951171875" style=""><g><g data-name="Слой 2"><g data-name="Слой 1"><path d="M1080 588.56c-1.69 4.39-1.11 9.09-1.85 13.63-8.93 54.36-21.86 107.61-43.29 158.54-12.65 30-28.38 58.29-49.26 83.48a212.9 212.9 0 0 1-28.47 29 66.87 66.87 0 0 0-20.27-32.78c-4.55-4-9.73-7.12-14.75-10.48a5.65 5.65 0 0 0 2-2.66c7.1-16.37 14.07-32.8 21.31-49.1q13.39-30.15 27.16-60.14 9.42-20.69 19.17-41.21c8.15-17.15 16.28-34.31 24.74-51.31q18.25-36.66 37-73.05c3-5.81 6-11.62 9.13-17.37 1.74-3.22 4-6.16 4.87-9.8 5.86 7.42 8.7 16.11 10.52 25.21a54.16 54.16 0 0 1 1.15 9.92c0 1.38-.26 2.9.85 4.08z" fill="#488154"></path><path d="M527.89 993.71c.71 1.52 2.07 2.28 3.41 3.14 6.37 4.06 12.69 8.2 19 12.31-7.33 15-19.29 25.21-33.86 32.76-17.89 9.26-37 15-56.63 18.91a649.78 649.78 0 0 1-76 9.86 697.15 697.15 0 0 1-73.84 1.5A712.89 712.89 0 0 1 215 1063c-19.07-3.15-38.17-6.2-56.73-11.79-23.51-7.1-45.12-17.93-64.2-33.5-12.9-10.55-21.7-23.71-24.7-40.41a30.48 30.48 0 0 1-.46-9.53c5.66.75 11.32 1.48 17 2.05 5.84.58 11.7 1.23 17.5 2.06 7.07 1 14.18 1.75 21.27 2.43 7.9.76 15.79 1.71 23.72 2.32 3.62.28 7.34.24 10.91 1 5.16 1.09 10.43.89 15.63 1.55 5 .64 10.18.75 15.2 1.32 9.63 1.12 19.31 1.48 28.95 2.5 7.88.84 15.83 1.32 23.75 1.89 9.67.7 19.35 1.3 29 2 10.3.72 20.63 1.29 30.95 1.87 12.23.69 24.48 1.08 36.7 2 6.34.49 12.73.49 19.08.76 9.7.41 19.41 1.15 29.13 1.19 13.41 0 26.76 1.63 40.18 1a3.85 3.85 0 0 1 1 0c6.79 1.55 13.66.76 20.51.76 1.2.4 2.43.74 3.61 1.2 19.17 7.51 38.74 8.53 58.69 3.71 5.6-1.33 10.77-3.88 16.2-5.67z" fill="#488154"></path><path d="M757.69 393.76c-11-13.38-17.26-29.06-21.35-45.64-1.53-6.18-2-12.61-3-18.93-2.47-16.74-1.14-33.5-.36-50.27q.94-19.89 3.25-39.67c6.06-52.83 17.53-104.3 39.37-153a239.69 239.69 0 0 1 34.72-55.58 95.46 95.46 0 0 1 27.45-23c9.78-5.34 20.12-8.25 31.31-7.57A27.61 27.61 0 0 1 878.4 2c-2.88 3.46-3.17 7.9-4.5 11.94-9.22 28-17.79 56.2-25.95 84.52-5.87 20.35-11.77 40.68-17.41 61.09-5.26 19-10.48 38.05-15.22 57.2-8 32.12-16.18 64.17-23.67 96.4q-7.65 33-15.43 66c-.76 3.24-1.7 6.47-1.64 9.86z" fill="#488154"></path><path d="M820.13 850.63c-9.22-1-18.41-1.91-27.47-4.08-12.23-2.93-23.47-8.29-34.8-13.45a108.48 108.48 0 0 1-12.17-6.72c-41.89-25.94-81.12-55.33-116.15-90.11C613.18 720 597.66 703 584 684.35c-14.9-20.36-27-42.28-35.41-66.15a92.79 92.79 0 0 1-5.35-36.3c.68-11.78 4.1-22.6 11.64-31.89 1.1-1.35 2.09-2.84 3.71-3.68A43.07 43.07 0 0 0 562 551c8.5 9.28 16.84 18.7 25.23 28.07q10 11.22 20.33 22.22c9 9.66 18.14 19.26 27.06 29.05 6 6.6 12.55 12.69 18.52 19.37 9.26 10.34 19.3 20 29 29.87 22.74 23.11 45.34 46.37 69 68.55C764.9 761 778 774.55 791.61 787.59c10.25 9.83 21 19.2 30.73 29.54a15.73 15.73 0 0 0 1.8 1.56 100.57 100.57 0 0 1 13.94 13.74 134.23 134.23 0 0 0-17.95 18.2z" fill="#488154"></path><path d="M72.94 945.69c4.68-12.7 13.17-22.5 23.78-30.55 18-13.68 38.42-21.94 60.56-26.1 19.16-3.6 38.42-6.46 57.81-8.34 29.76-2.89 59.58-4.09 89.49-2.56 16.6.84 33.15 2 49.6 4.41 3.29.93 6.67 1.31 9.71 3.3 15.9 10.44 31.92 20.7 47.9 31-.45 7.31-1.29 14.57-.19 22 1.7 11.35 4.76 22.13 11 31.88a3.12 3.12 0 0 0-.52-.08 226.52 226.52 0 0 1-23.88-.89c-6.83-.48-13.66-.06-20.53-.79-8.53-.9-17.18-.65-25.78-1-10.19-.39-20.35-1.78-30.58-1.2a3.42 3.42 0 0 1-1 0c-7.66-1.91-15.53-.83-23.3-1.57s-15.86-1.83-23.85-1.27a5.76 5.76 0 0 1-1.43-.12c-6.9-1.38-13.94-1.19-20.9-1.59-6.51-.37-13-1.06-19.53-1.42-4.42-.24-9-.06-13.31-.91-5.5-1.06-11.08-1-16.6-1.49-5.69-.47-11.4-1.11-17.12-1.43-3.77-.21-7.67-.14-11.39-.9-5.18-1.07-10.43-1-15.64-1.56-4.56-.49-9.18-1-13.75-1.41-3.47-.34-7-.41-10.45-.87q-10.85-1.42-21.73-2.65c-6.79-.76-13.6-1.28-20.37-2.17-5.94-.82-11.94-1.9-18-1.72z" fill="#488154"></path><path d="M897.78 13.22c6.11 5.19 10.22 11.86 13.22 19.1a129.89 129.89 0 0 1 10.61 48.38c.5 24.61.51 49.23-1.1 73.81-2.86 43.62-8.85 86.73-22 128.6-11.15 35.58-27.61 68.35-51.74 97a115.64 115.64 0 0 1-23.12 21.45c-4.78-2.7-9.22-6-14.52-7.73-3.58-2.06-7.66-2.71-11.46-4.14 3-13.51 5.77-27.05 8.94-40.51q8.6-36.46 17.57-72.85c7.43-30.3 15-60.55 23.36-90.63 4.45-16.11 8.57-32.32 13.11-48.4 4.67-16.56 9.74-33 14.52-49.53q9.43-32.62 20-64.88a61 61 0 0 0 2.61-9.67z" fill="#488154"></path><path d="M864 735.53c13.73-51 33.06-99.75 60.54-145a253.39 253.39 0 0 1 55.64-64.88c10.47-8.61 22.24-15.06 35.6-18.1 11.82-2.68 23.45-2.56 34.51 3.23-1.27.57-1.79 1.74-2.39 2.88-5.81 11-11.73 22-17.45 33q-12.11 23.42-24 47c-5.51 11-10.8 22.09-16.15 33.16q-5.1 10.58-10.23 21.13c-11 22.69-21.48 45.63-32.16 68.47q-5.48 11.72-10.73 23.52c-5.78 13-11.45 26-17.18 38.94-5.16 11.67-10.47 23.28-15.4 35-1.21 2.89-3.3 5.55-3.28 8.91a201 201 0 0 0-24.74-2.19c-.35-2.51-.14-5-.61-7.6-1.61-8.72-2.9-17.5-4.31-26.26-1.8-11.11-3.7-22.2-5.36-33.32-.87-5.94-2.64-11.79-2.3-17.89z" fill="#488154"></path><path d="M576.8 535.66c7.48-2.86 15.27-3.3 23.09-2.39A129 129 0 0 1 648 548.54c42.73 23.72 83.51 50.34 120.76 82.13a428.66 428.66 0 0 1 48.46 47.77c.51.61 1.11 1.14 1.67 1.71a126.48 126.48 0 0 1 2.8 15c1.43 9.1 2.75 18.22 4.17 27.32 1.79 11.45 3.63 22.9 5.45 34.34 1.2 7.53 2.7 15 3.52 22.59.7 6.48 2.68 12.81 2.29 19.41-6.78-5.35-12.35-12-18.89-17.62-8.45-7.29-15.88-15.71-24.21-23.21-11.27-10.15-21.78-21.14-32.61-31.76-22.48-22.06-44.95-44.13-66.62-67-15.8-16.7-32.25-32.8-47.72-49.82-4.62-5.08-9.56-9.83-14.17-14.94-7.8-8.64-15.88-17-23.63-25.72-4.67-5.24-9.85-10.05-14.27-15.49-3.32-4.09-7.2-7.65-10.4-11.85-1.91-2.55-3.81-5.77-7.8-5.74z" fill="#488154"></path><path d="M289.1 841.15c-13.71 4.35-27.5 3.05-41.26.35-20.86-4.08-40.31-12.25-59.54-21-54.4-24.61-103.07-57.83-146.79-98.38C25 706.84 12.11 688.92 4 667.75c-5.17-13.56-5.82-27.08.72-40.44a20.78 20.78 0 0 1 1.6-2.31 8.83 8.83 0 0 1 1.25.68c7.71 5.89 15.38 11.84 23.13 17.68q13.92 10.5 28 20.82c11.69 8.56 23.38 17.11 35.2 25.49 11 7.83 22.25 15.42 33.36 23.15Q159 734.9 191.45 756q30.44 19.85 61.07 39.4c10.48 6.67 21.17 13 31.59 19.81 7.33 4.77 15.13 8.83 22 14.27-4.18 6.08-10.56 8.91-17.01 11.67z" fill="#488154"></path><path d="M17 612.46c8.91-7.57 19.57-10.51 30.91-11.32a106.64 106.64 0 0 1 44.74 6.48c49.93 18.32 96 43.46 137.11 77.42A405.17 405.17 0 0 1 291 747.68a147.33 147.33 0 0 1 17.57 29.08c5.18 11.21 8.43 22.77 6.17 35.3a8.8 8.8 0 0 0 .07 1.91l-1 .21c-3.3-3.85-8-5.75-12.14-8.31-23.19-14.33-46.15-29-69.13-43.66-13.71-8.74-27.38-17.56-40.89-26.59-17.5-11.69-34.81-23.65-52.22-35.45-21.1-14.3-41.83-29.12-62.42-44.12-17.89-13-35.65-26.21-53.11-39.8-1.98-1.57-3.74-4.1-6.9-3.79z" fill="#488154"></path><path d="M672 418.44c-2.3-.21-4.39.8-6.58 1.21-10.89 2-21.67 1.13-32.35-1.34a120.81 120.81 0 0 1-31.28-11.83c-36.29-20-70.07-43.54-100-72.31-17.23-16.56-33.32-34.09-45.31-55-6.22-10.83-12.21-21.75-15.33-34-2.56-10.06-3.55-20.15-.61-30.3 1.65-5.73 4.09-11.06 8.63-15.17A19.46 19.46 0 0 0 453 204c31.77 31.51 62.76 63.8 95.75 94.07q10.92 10 21.68 20.29c4.14 4 8.33 7.9 12.59 11.75 8.26 7.48 16.68 14.8 25 22.24 7.24 6.49 14.28 13.21 21.66 19.54 3.27 2.81 6.36 5.8 9.6 8.63 6.47 5.67 13 11.21 19.54 16.84s12.73 11.09 19.08 16.64c-.9 2.89-4.29 2.51-5.9 4.44z" fill="#488154"></path><path d="M391.5 647c8-1.88 15.91-.73 23.56 1.8 17.47 5.76 31.72 16.35 43.73 30.06 9.38 10.71 18.07 22 26.39 33.54 33.15 46 57.4 96.21 71 151.38 3.34 13.5 6.42 27.07 7.78 40.92 1.34 13.7 1.46 27.45-1.46 41a9.8 9.8 0 0 1-1.25 3.58c.22-2.08.37-4.15.66-6.2a68.26 68.26 0 0 0 0-20.53 93.16 93.16 0 0 0-14.47-36.24c-5.89-9-12.88-17.09-22.37-22.62-1-1.35-2.55-1.87-3.92-2.67-10-5.88-21-8.05-32.49-8.44-.27-2.13-1.51-3.85-2.42-5.7-11.47-23.38-23.38-46.54-34.68-70-10.96-22.66-21.56-45.55-32.16-68.42-2.95-6.37-5.74-12.81-8.53-19.24q-8.64-20-17.16-40c-.49-1.14-.98-1.95-2.21-2.22z" fill="#488154"></path><path d="M462.49 191c6.62-3 13.64-3.19 20.64-2.38a105.84 105.84 0 0 1 36.45 11.15c34.09 17.47 66.72 37.21 96.51 61.42 20.58 16.72 39.21 35.29 54.16 57.33a196.49 196.49 0 0 1 20.62 39.42 72.27 72.27 0 0 1 4.83 32.88c-.74 2.25-1.33 4.56-2.26 6.72-.65 1.52-.91 3.53-3.08 3.91-7.41-6.26-14.89-12.44-22.2-18.8-10.93-9.51-21.76-19.12-32.6-28.73-9-8-18.19-16-27-24.22-7.34-6.85-14.85-13.5-22.22-20.3-8.81-8.13-17.45-16.4-26.34-24.4-6.17-5.54-11.86-11.58-18-17.17-10.37-9.46-19.87-19.84-30.3-29.26-6.52-5.89-12.55-12.31-18.69-18.6-8.48-8.67-16.86-17.42-25.27-26.16-1.46-1.49-2.89-3-5.25-2.81z" fill="#488154"></path><path d="M410.88 872.08c-.15-1.85-1.4-3.2-2.27-4.69a564.36 564.36 0 0 1-49.52-111.86 148.58 148.58 0 0 1-7.54-50.9 99.67 99.67 0 0 1 2.66-21.83c3.47-13.35 10.29-24.3 22.9-30.91-.37 3.26 1.68 5.74 2.76 8.53 5 12.78 10.6 25.27 16.15 37.8 4.64 10.49 9.56 20.87 14.16 31.38 7.87 18 16.37 35.66 24.91 53.32 11.76 24.29 24.07 48.32 36.14 72.47-8.06 3-16 6-23 11.25a124.19 124.19 0 0 0-24.07 24.29c-1.54-.69-2.22-2.14-3.17-3.41-3.73-4.93-5.99-10.76-10.11-15.44z" fill="#488154"></path><path d="M810.33 869.86c1.47.06 2.19.88 2.74 2.22 2.9 7.06 5.69 14.18 8.93 21.09a123.72 123.72 0 0 0 14.4 23.59 67.42 67.42 0 0 0 19 17.13 49.82 49.82 0 0 0 23 7c18.86 1 34.7-6.24 49-17.84 11-8.86 18.84-20.12 26.16-31.9 1.5-2.42 2.62-5.09 4.73-7.09 1.31 7.22.07 14.33-1.49 21.3a95.58 95.58 0 0 1-20.16 40.76c-9.84 11.8-22.53 19-37.44 22.49-1.08.25-2.24.21-3.13 1-3.31.33-6.61.71-9.93 1-9.21.8-18-1.14-26.64-4.06a24.43 24.43 0 0 0-2.38-1.57c-26-13.28-41.8-34.52-48.51-62.58-2.5-10.84-2.29-21.87 1.72-32.54z" fill="#e02e28"></path><path d="M449.39 994.5c-6.89-4-13.73-8-19.34-13.8-3-3.11-5.32-6.73-8-10.08a3.12 3.12 0 0 1 .52.08c4.63.46 8.92 2.26 13.37 3.41 10 2.6 20.05 5.08 30.33 5.95 10.81.93 21.69.43 32.14-3a50.86 50.86 0 0 0 24.26-16.36c10.43-12.92 14.41-28.11 14.83-44.42a94.49 94.49 0 0 0-.79-11.39 98.51 98.51 0 0 0-4.43-20.45c-2.22-7-4.8-13.81-7.22-20.7 9.49 5.53 16.48 13.59 22.37 22.62a93.16 93.16 0 0 1 14.47 36.24 68.26 68.26 0 0 1 0 20.53c-.29 2.05-.44 4.12-.66 6.2-1 4.52-3.13 8.56-5.11 12.68-.87 1.82-2.27 3.45-2.3 5.62-2.27 2.1-3.31 5-5.07 7.48a60.16 60.16 0 0 1-19.08 17.12c-.68.39-1.46.66-1.83 1.46-5.43 1.79-10.6 4.34-16.2 5.7-19.95 4.82-39.52 3.8-58.69-3.71-1.14-.44-2.37-.78-3.57-1.18z" fill="#e02e28"></path><path d="M829.46 525.08c-4.48 1.94-8.6 4.57-13.17 6.37a115.3 115.3 0 0 1-18.6 5.4c-9.34 1.19-18.66 2.06-28.11.89-13.4-1.67-25.71-5.94-36.29-14.58a19.43 19.43 0 0 1-4.71-4.69c1.27-1.48 3-1 4.48-.81a152 152 0 0 0 32.85 1.65c12.37-.85 24.6-2.68 35.93-8.55 15.87-8.23 24.86-21.26 28.57-38.46 1-4.54 1.15-9.15 1.64-13.69s-.43-9.18-1.14-13.72c-2.59-16.53-9.7-31.22-18.84-45a19 19 0 0 1-2.9-6c5.3 1.7 9.74 5 14.52 7.73a100 100 0 0 1 28.19 34c11.83 23.28 9.87 46.23-2.29 68.7-3.85 7.12-9.62 12.67-16.09 17.5-1.39.99-3.08 1.68-4.04 3.26z" fill="#e02e28"></path><path d="M797.71 389.72c-7.67-1.39-15.4-1.06-23.13-.8-.06-3.39.88-6.62 1.64-9.86q7.75-33 15.43-66c7.49-32.23 15.72-64.28 23.67-96.4 4.74-19.15 10-38.18 15.22-57.2 5.64-20.41 11.54-40.74 17.41-61.09 8.16-28.32 16.73-56.52 25.95-84.52 1.33-4 1.62-8.48 4.5-11.94a37.94 37.94 0 0 1 19.38 11.27 61 61 0 0 1-2.54 9.7q-10.61 32.27-20 64.88c-4.78 16.53-9.85 33-14.52 49.53-4.54 16.08-8.66 32.29-13.11 48.4-8.31 30.08-15.93 60.33-23.36 90.63q-8.93 36.39-17.57 72.85c-3.2 13.5-6 27.04-8.97 40.55z" fill="#2d6138"></path><path d="M837.13 798.78c1.73 4 1.78 8.35 2.55 12.54 1.13 6.07 1.64 12.25 2.42 18.39a10.26 10.26 0 0 1-4 2.72 100.57 100.57 0 0 0-13.94-13.74 15.73 15.73 0 0 1-1.8-1.56c-9.77-10.34-20.48-19.71-30.73-29.54-13.61-13-26.71-26.6-40.46-39.48-23.68-22.18-46.28-45.44-69-68.55-9.74-9.89-19.78-19.53-29-29.87-6-6.68-12.51-12.77-18.52-19.37-8.92-9.79-18-19.39-27.06-29.05q-10.28-11-20.33-22.22c-8.39-9.37-16.73-18.79-25.23-28.07a43.07 43.07 0 0 1-3.33-4.65 37 37 0 0 1 18.18-10.67c4 0 5.89 3.19 7.81 5.7 3.2 4.2 7.08 7.76 10.4 11.85 4.42 5.44 9.6 10.25 14.27 15.49 7.75 8.69 15.83 17.08 23.63 25.72 4.61 5.11 9.55 9.86 14.17 14.94 15.47 17 31.92 33.12 47.72 49.82 21.67 22.88 44.14 45 66.62 67 10.75 10.63 21.26 21.62 32.5 31.82 8.33 7.5 15.76 15.92 24.21 23.21 6.57 5.59 12.14 12.22 18.92 17.57z" fill="#2d6138"></path><path d="M72.94 945.69c6.07-.18 12 .9 18 1.67 6.77.89 13.58 1.41 20.37 2.17q10.88 1.23 21.73 2.65c3.47.46 7 .53 10.45.87 4.57.46 9.19.92 13.75 1.41 5.21.55 10.46.49 15.64 1.56 3.72.76 7.62.69 11.39.9 5.72.32 11.43 1 17.12 1.43 5.52.45 11.1.43 16.6 1.49 4.35.85 8.89.67 13.31.91 6.51.36 13 1 19.53 1.42 7 .4 14 .21 20.9 1.59a5.76 5.76 0 0 0 1.43.12c8-.56 16 .52 23.85 1.27s15.64-.34 23.3 1.57a3.42 3.42 0 0 0 1 0c10.23-.58 20.39.81 30.58 1.2 8.6.33 17.25.08 25.78 1 6.87.73 13.7.31 20.53.79a226.52 226.52 0 0 0 23.88.89c2.68 3.35 5 7 8 10.08 5.61 5.8 12.45 9.83 19.34 13.8-6.85 0-13.72.79-20.51-.76a3.85 3.85 0 0 0-1 0c-13.42.6-26.77-1-40.18-1-9.72 0-19.43-.78-29.13-1.19-6.35-.27-12.74-.27-19.08-.76-12.22-.94-24.47-1.33-36.7-2-10.32-.58-20.65-1.15-30.95-1.87-9.68-.67-19.36-1.27-29-2-7.92-.57-15.87-1-23.75-1.89-9.64-1-19.32-1.38-28.95-2.5-5-.57-10.17-.68-15.2-1.32-5.2-.66-10.47-.46-15.63-1.55-3.57-.74-7.29-.7-10.91-1-7.93-.61-15.82-1.56-23.72-2.32-7.09-.68-14.2-1.41-21.27-2.43-5.8-.83-11.66-1.48-17.5-2.06-5.69-.57-11.35-1.3-17-2.05a45.71 45.71 0 0 1 4-22.09z" fill="#2d6138"></path><path d="M922.11 830a150.52 150.52 0 0 0-20.78-7.19c0-3.36 2.07-6 3.28-8.91 4.93-11.76 10.24-23.37 15.4-35 5.73-13 11.4-26 17.18-38.94q5.25-11.8 10.73-23.52c10.68-22.84 21.15-45.78 32.16-68.47q5.13-10.56 10.23-21.13c5.35-11.07 10.64-22.17 16.15-33.16q11.82-23.57 24-47c5.72-11.06 11.64-22 17.45-33 .6-1.14 1.12-2.31 2.39-2.88a39.45 39.45 0 0 1 17.23 14.59c-.87 3.64-3.13 6.58-4.87 9.8-3.1 5.75-6.13 11.56-9.13 17.37q-18.76 36.39-37 73.05c-8.46 17-16.59 34.16-24.74 51.31q-9.75 20.54-19.17 41.21-13.71 30-27.16 60.14c-7.24 16.3-14.21 32.73-21.31 49.1a5.65 5.65 0 0 1-2.04 2.63z" fill="#2d6138"></path><path d="M17 612.46c3.16-.31 4.92 2.22 6.94 3.79 17.46 13.59 35.22 26.75 53.11 39.8 20.59 15 41.32 29.82 62.42 44.12 17.41 11.8 34.72 23.76 52.22 35.45 13.51 9 27.18 17.85 40.89 26.59 23 14.65 45.94 29.33 69.13 43.66 4.14 2.56 8.84 4.46 12.14 8.31-.66 6.07-3.6 11-7.72 15.34-6.89-5.44-14.69-9.5-22-14.27-10.42-6.78-21.11-13.14-31.59-19.81q-30.66-19.52-61.07-39.4-32.47-21.15-64.26-43.25c-11.11-7.73-22.32-15.32-33.36-23.15-11.82-8.38-23.51-16.93-35.2-25.49q-14.05-10.3-27.95-20.82c-7.7-5.84-15.42-11.79-23.13-17.68a8.83 8.83 0 0 0-1.25-.65A31.48 31.48 0 0 1 17 612.46z" fill="#2d6138"></path><path d="M462.49 191c2.36-.17 3.79 1.34 5.25 2.86 8.41 8.74 16.79 17.49 25.27 26.16 6.14 6.29 12.17 12.71 18.69 18.6 10.43 9.42 19.93 19.8 30.3 29.26 6.14 5.59 11.83 11.63 18 17.17 8.89 8 17.53 16.24 26.31 24.35 7.37 6.8 14.88 13.45 22.22 20.3 8.84 8.26 18 16.2 27 24.22 10.84 9.61 21.67 19.22 32.6 28.73 7.31 6.36 14.79 12.54 22.2 18.8a6.38 6.38 0 0 1-2 5.14c-2 1.84-3.89 3.76-5.75 5.72a6 6 0 0 1-4.77 1.71c-6.35-5.55-12.7-11.12-19.08-16.64s-13.07-11.17-19.54-16.84c-3.24-2.83-6.33-5.82-9.6-8.63-7.38-6.33-14.42-13.05-21.66-19.54-8.3-7.44-16.72-14.76-25-22.24-4.26-3.85-8.45-7.79-12.59-11.75q-10.74-10.25-21.68-20.29c-33-30.27-64-62.56-95.75-94.07a19.46 19.46 0 0 1-3.84-4.26 26.47 26.47 0 0 1 13.42-8.76z" fill="#2d6138"></path><path d="M471.23 855.39c-12.07-24.15-24.38-48.18-36.14-72.47-8.54-17.66-17-35.34-24.91-53.32-4.6-10.51-9.52-20.89-14.16-31.38-5.55-12.53-11.19-25-16.15-37.8-1.08-2.79-3.13-5.27-2.76-8.53A31.17 31.17 0 0 1 391.5 647c1.23.24 1.72 1.05 2.21 2.19q8.51 20 17.16 40c2.79 6.43 5.58 12.87 8.53 19.24 10.62 22.87 21.2 45.76 32.15 68.48 11.3 23.47 23.21 46.63 34.68 70 .91 1.85 2.15 3.57 2.42 5.7z" fill="#2d6138"></path><path d="M896.17 969.62c2.15 22.57 6 45 6.17 67.74.4 69.4 17.86 134.54 48.62 196.37 17 34.22 37.06 66.75 56.92 99.37 12.92 21.23 27.8 41 43.25 60.35a179.14 179.14 0 0 1 17.79 26.7 60.19 60.19 0 0 1 6.54 16.91c2.1 10.8-1.25 16.63-11.7 20.18-.73.24-1.61.2-2 1.07H1057c-9.74-2.8-17.13-8.91-23.38-16.61-.31-.37-.6-.76-.9-1.13a122.62 122.62 0 0 1-11.94-17.39c-11.84-21.25-25.53-41.36-38.4-62-24.39-39.09-47.6-78.85-67.89-120.25a516.74 516.74 0 0 1-23.81-56.53 82.75 82.75 0 0 0-4.14-9.69A22.86 22.86 0 0 0 870 1162c-60.15-12.11-115.81-36-169.56-64.74-51.19-27.37-101.62-56.09-150.13-88.05-6.34-4.11-12.66-8.25-19-12.31-1.34-.86-2.7-1.62-3.41-3.14.37-.8 1.15-1.07 1.83-1.46a60.16 60.16 0 0 0 19.08-17.12c1.76-2.45 2.8-5.38 5.07-7.48 8.21 5.25 16.43 10.47 24.61 15.75 44.06 28.42 88.82 55.67 135.41 79.82 37.62 19.5 76.19 36.84 116.16 51 11.93 4.22 24.12 7.39 36.82 8.25.64 0 1.28.11 1.92.12 3.18.07 3.29.06 3.07-3.13q-1.17-17.46-2.48-34.92-1.15-15.54-2.44-31.06-2.28-28-4.62-55.9c-.87-10.34-1.81-20.68-2.72-31 8.64 2.92 17.43 4.86 26.64 4.06 3.31-.36 6.61-.69 9.92-1.07z" fill="#745955"></path><path d="M876.59 820.61c-3.76.66-7.57.49-11.36.94a51.71 51.71 0 0 0-20.54 7 25.31 25.31 0 0 1-2.59 1.18c-.78-6.14-1.29-12.32-2.42-18.39-.77-4.19-.82-8.55-2.55-12.54.39-6.6-1.59-12.93-2.29-19.41-.82-7.57-2.32-15.06-3.52-22.59-1.82-11.44-3.66-22.89-5.45-34.34-1.42-9.1-2.74-18.22-4.17-27.32a126.48 126.48 0 0 0-2.8-15c-.28-8.16-2.17-16.1-3.35-24.13-3.3-22.39-6.84-44.74-10.21-67.13-2.61-17.34-5.1-34.69-7.65-52a115.3 115.3 0 0 0 18.6-5.4c4.57-1.8 8.69-4.43 13.17-6.37 1.93 6.93 2.51 14.1 3.65 21.16 3.86 24 7.52 47.94 11.29 71.9q5.46 34.77 11 69.53c2.43 15.12 5 30.23 7.52 45.34.15.91 0 2 1.05 2.52-.3 6.1 1.47 12 2.35 17.9 1.66 11.12 3.56 22.21 5.36 33.32 1.41 8.76 2.7 17.54 4.31 26.26.46 2.53.25 5.06.6 7.57z" fill="#745955"></path><path d="M306.13 829.52c4.12-4.34 7.06-9.27 7.72-15.34l1-.21c12.7 6.66 24.88 14.22 37.16 21.61 18.3 11 36.34 22.42 54.3 34 1.46.93 2.77 2.18 4.57 2.52 4.08 4.68 6.38 10.51 10.09 15.44.95 1.27 1.63 2.72 3.17 3.41-2.15 3.69-4.79 7.08-6.86 10.84-2.62 4.78-3.84 10-5.49 15.1-16-10.32-32-20.58-47.9-31-3-2-6.42-2.37-9.71-3.3l2.77-.27c-.79-1.52-2.13-2-3.2-2.64-20.49-12.76-41.18-25.19-62.26-36.94-.83-.47-1.6-1-2.39-1.55 6.45-2.8 12.83-5.63 17.03-11.67z" fill="#745955"></path><path d="M677.86 414a6 6 0 0 0 4.77-1.71c1.86-2 3.76-3.88 5.75-5.72a6.38 6.38 0 0 0 2-5.14c2.17-.38 2.43-2.39 3.08-3.91.93-2.16 1.52-4.47 2.26-6.72l34.06 23.31a5.33 5.33 0 0 1-1.25 3 105.31 105.31 0 0 0-15.45 25.71 26.79 26.79 0 0 1-1.66 2.88L672 418.44c1.61-1.93 5-1.55 5.86-4.44z" fill="#745955"></path><path d="M771.85 437.73c.08 4.58-2.35 7.92-5.71 10.52a20.94 20.94 0 0 1-16.62 4.12c-8.72-1.3-12.66-9.13-9-16.74 2.7-5.67 7.38-9.53 13.1-12.11a8.7 8.7 0 0 1 6.95.06c6.43 2.42 11.24 8.42 11.28 14.15z" fill="#745955"></path><path d="M910.14 857a19.17 19.17 0 0 1-.36 3.32c-1.48 5.4-3.49 10.45-9.85 11.75s-11.25-1.3-15.5-5.51a22.66 22.66 0 0 1-5.1-8.59c-3.83-10.63 5.77-16.71 13.16-15.74a30.08 30.08 0 0 1 12.07 4.38c3.9 2.44 5.82 5.78 5.58 10.39z" fill="#745955"></path><path d="M480.89 899.1c-.19 4-2.82 7.56-7.14 10a20.29 20.29 0 0 1-19.26.78 11.47 11.47 0 0 1-4.35-17.37 25.62 25.62 0 0 1 15.91-9.88 6 6 0 0 1 2.83.07c5.9 1.51 11.92 9.17 12.01 16.4z" fill="#745955"></path><path d="M797.71 389.72c3.8 1.43 7.88 2.08 11.46 4.14a19 19 0 0 0 2.9 6c9.14 13.82 16.25 28.51 18.84 45 .71 4.54 1.61 9.23 1.14 13.72s-.67 9.15-1.64 13.69c-3.71 17.2-12.7 30.23-28.57 38.46-11.33 5.87-23.56 7.7-35.93 8.55a152 152 0 0 1-32.85-1.65c-1.51-.23-3.21-.67-4.48.81-10.06-10.3-15.83-22.86-19.2-36.66a60 60 0 0 1 2-36.08 26.79 26.79 0 0 0 1.66-2.88 105.31 105.31 0 0 1 15.45-25.71 5.41 5.41 0 0 0 1.26-3 5.64 5.64 0 0 0 1.62-.91c7.28-8.5 16.34-14.58 26.3-19.44l16.89-4.84c7.75-.26 15.44-.59 23.15.8zm-25.86 48c0-5.73-4.82-11.69-11.3-14.15a8.7 8.7 0 0 0-6.95-.06c-5.72 2.58-10.4 6.44-13.1 12.11-3.64 7.61.3 15.44 9 16.74a20.94 20.94 0 0 0 16.62-4.12c3.38-2.59 5.81-5.93 5.73-10.51z" fill="#ea473f"></path><path d="M876.59 820.61a201 201 0 0 1 24.74 2.19 150.52 150.52 0 0 1 20.78 7.2c5 3.36 10.2 6.46 14.75 10.48a66.87 66.87 0 0 1 20.27 32.78c.56 3.58 1.39 7.13 1.26 10.79-2.11 2-3.23 4.67-4.73 7.09-7.32 11.78-15.21 23-26.16 31.9-14.33 11.6-30.17 18.82-49 17.84a49.82 49.82 0 0 1-23-7 67.42 67.42 0 0 1-19-17.13 123.72 123.72 0 0 1-14.5-23.58c-3.24-6.91-6-14-8.93-21.09-.55-1.34-1.27-2.16-2.74-2.22 2-7.07 5.94-13.12 9.8-19.23a134.23 134.23 0 0 1 18-18.2 10.26 10.26 0 0 0 4-2.72 25.31 25.31 0 0 0 2.59-1.18 51.71 51.71 0 0 1 20.54-7c3.74-.43 7.57-.26 11.33-.92zM910.14 857c.24-4.61-1.68-8-5.58-10.39a30.08 30.08 0 0 0-12.07-4.38c-7.39-1-17 5.11-13.16 15.74a22.66 22.66 0 0 0 5.1 8.59c4.25 4.21 9.26 6.79 15.5 5.51s8.37-6.35 9.85-11.75a19.17 19.17 0 0 0 .36-3.32z" fill="#ea473f"></path><path d="M471.23 855.39l17.42-2.74c11.47.39 22.46 2.56 32.49 8.44 1.37.8 2.93 1.32 3.92 2.67 2.42 6.89 5 13.74 7.22 20.7a98.51 98.51 0 0 1 4.43 20.45 94.49 94.49 0 0 1 .79 11.39c-.42 16.31-4.4 31.5-14.83 44.42a50.86 50.86 0 0 1-24.26 16.36c-10.45 3.41-21.33 3.91-32.14 3-10.28-.87-20.34-3.35-30.33-5.95-4.45-1.15-8.74-3-13.37-3.41-6.21-9.75-9.27-20.53-11-31.88-1.1-7.38-.26-14.64.19-22 1.65-5.1 2.87-10.32 5.49-15.1 2.07-3.76 4.71-7.15 6.86-10.84a124.19 124.19 0 0 1 24.07-24.29c7.01-5.18 14.99-8.27 23.05-11.22zm9.66 43.71c-.09-7.23-6.11-14.89-12-16.41a6 6 0 0 0-2.83-.07 25.62 25.62 0 0 0-15.91 9.88 11.47 11.47 0 0 0 4.35 17.37 20.29 20.29 0 0 0 19.26-.78c4.31-2.43 6.94-5.99 7.13-9.99z" fill="#ea473f"></path></g></g></g></svg>