<svg xmlns="http://www.w3.org/2000/svg" width="1051.1" height="1080" viewBox="0 0 1051.1 1080">
  <g id="Layer_2" data-name="Layer 2">
    <g id="Layer_1-2" data-name="Layer 1">
      <g id="_10" data-name="10">
        <g>
          <g>
            <path d="M537.1,1079.3a13.8,13.8,0,0,1,.1-2.7,20.3,20.3,0,0,1,.4-3.1c.2-.6.3-1.3.5-2a13.1,13.1,0,0,1,1-2.1c2.9-6.6,8.7-14.4,17.8-23s21.4-17.1,36.1-25.2c7.4-4.1,15.4-8.2,23.9-12.3l26.5-12.2c18.2-8.9,38.7-17.8,60.1-26.7s43.8-18.9,66.3-30.2,45-24.2,66-39.8,40.6-33.7,57-54.8c4.5-5.3,7.8-10.8,11.6-16.2,1.8-2.7,3.8-5.3,5.5-8.2l5-8.6c1.7-2.9,3.4-5.7,5-8.6l4.5-8.9,4.5-8.8c1.3-2.7,2.6-6.1,3.9-9.1,2.7-6.1,5.3-12.2,7.9-18.3,1.4-3,2.7-6.1,4-9.1s2.2-6.1,3.3-9.1c2.2-6.1,4.4-12.2,6.5-18.2s4.4-11.9,6-18S964,692,965.8,686s3.7-11.8,4.8-17.7c2.7-11.9,5.4-23.5,7.8-34.8s4.3-22.7,5.9-33.4c.9-5.4,1.9-10.7,2.5-15.9s1.3-10.3,1.9-15.3,1-9.9,1.3-14.7.7-9.5,1-14.1c0-9.2-.1-17.9-.1-26.2s-1.4-15.6-2.1-22.6a98.4,98.4,0,0,0-1.4-10.1c-.5-3.2-1.1-6.3-1.6-9.2-1.7-11.7-4.3-20.6-5.6-26.9s-2.2-9.4-2.2-9.4l1.9-.6s1,3.2,3,9.3,5.4,14.8,7.8,26.6c.6,2.9,1.4,6,2.1,9.2a76.6,76.6,0,0,1,2.1,10.2c1,7.2,2.2,15,3.2,23.4s.8,17.1,1.2,26.5q-.3,7.1-.6,14.4c-.3,5-.4,10-1.1,15.1-2,20.5-6,42.4-10.2,65.3q-3.6,17.3-7.5,35.4c-1.1,6.1-3.1,12-4.6,18.1L970.2,707c-1.5,6.2-3.7,12.4-5.8,18.5L958,744.2c-1.1,3.2-2.1,6.4-3.3,9.5s-2.5,6.1-3.8,9.1c-2.5,6.1-5.1,12.3-7.6,18.5-1.4,3.1-2.4,6-4,9.4l-4.5,9.2-4.5,9.2c-1.6,3.1-3.3,6-5,9l-5.1,9c-1.6,3-3.8,5.9-5.6,8.8-3.9,5.8-7.7,11.9-12,17.1-16.3,22.2-36.6,41.8-58,58.5s-44.6,30.7-67.3,42.8-45.3,22.4-66.6,32.1-41.4,18.3-60.4,26.2-36.4,13.9-51.2,20.7-27.1,13.4-36.2,20.2-15.2,13.7-18,18.6a22.6,22.6,0,0,0-2.3,3.4l-1.8,2.5a15.4,15.4,0,0,1-1.8,2Z" fill="#fff"/>
            <path d="M597.1,999.9v1.1c0,2.8,4.4,2.8,4.4,0v-1.1A2.2,2.2,0,0,0,597.1,999.9Z" fill="#fff"/>
            <path d="M615.9,984.4c-2.9,0-2.9,4.5,0,4.5S618.7,984.4,615.9,984.4Z" fill="#fff"/>
            <path d="M625.8,1003.2a2.2,2.2,0,0,0,0,4.4C628.6,1007.6,628.6,1003.2,625.8,1003.2Z" fill="#fff"/>
            <path d="M627.8,981.3a11.4,11.4,0,0,1-1.1-1.1c-4-4-10.2,2.2-6.2,6.3l1.1,1.1C625.6,991.6,631.8,985.3,627.8,981.3Z" fill="#fff"/>
            <path d="M612.6,973.4a2.2,2.2,0,0,0,0,4.4C615.4,977.8,615.4,973.4,612.6,973.4Z" fill="#fff"/>
            <path d="M618.1,962.4a2.2,2.2,0,0,0,0,4.4C620.9,966.8,620.9,962.4,618.1,962.4Z" fill="#fff"/>
            <path d="M704.1,1004.3q-3.3,0-3.3,3.3c-.1,2.5,3.3,2.8,4.2.9S706.6,1004.3,704.1,1004.3Z" fill="#fff"/>
            <path d="M721.7,1007.6a2.2,2.2,0,0,0,0,4.4C724.5,1012,724.5,1007.6,721.7,1007.6Z" fill="#fff"/>
            <path d="M730.5,994.4c-8.5,0-8.5,13.2,0,13.2S739.1,994.4,730.5,994.4Z" fill="#fff"/>
            <path d="M749.3,991.1a2.2,2.2,0,0,0,0,4.4C752.1,995.5,752.1,991.1,749.3,991.1Z" fill="#fff"/>
            <path d="M750.4,1005.4a2.2,2.2,0,0,0,0,4.4C753.2,1009.8,753.2,1005.4,750.4,1005.4Z" fill="#fff"/>
            <path d="M761.4,1001a2.2,2.2,0,0,0,0,4.4C764.2,1005.4,764.2,1001,761.4,1001Z" fill="#fff"/>
            <path d="M785.9,911.4a6.8,6.8,0,0,0-9.4,0,5.7,5.7,0,0,1-1.1,1.1,6.8,6.8,0,0,0-.7,8.3,2.2,2.2,0,0,0,1,4.1,1.9,1.9,0,0,0,2-1.6,6.7,6.7,0,0,0,7.1-1.4l1.1-1.1A6.8,6.8,0,0,0,785.9,911.4Z" fill="#fff"/>
            <path d="M795.6,907.3a2.2,2.2,0,0,0,0,4.4C798.4,911.7,798.4,907.3,795.6,907.3Z" fill="#fff"/>
            <path d="M809.9,897.4a1.8,1.8,0,0,0-1.5.6,6.1,6.1,0,0,0-6.2-5h-.5a7.7,7.7,0,0,0,.4-2.5c0-.3.1-.6.1-.9a6.7,6.7,0,0,0-6.6-6.6c-2.1.1-4.1.5-5.6,2.1a6.7,6.7,0,0,0-1,7.9,7.6,7.6,0,0,0,1.7,2.2c-2.4.5-2.2,4.4.4,4.4h1.1a2.1,2.1,0,0,0,2.1-2.5h.6c-1.3,3.9.7,9,6,9h1.3a6.1,6.1,0,0,0,6.2-5,2.1,2.1,0,0,0,1.5.6C812.7,901.8,812.7,897.4,809.9,897.4Z" fill="#fff"/>
            <path d="M880.4,895.2h-2.2c-2.8,0-2.8,4.4,0,4.4h2.2A2.2,2.2,0,0,0,880.4,895.2Z" fill="#fff"/>
            <path d="M898.1,876.4a2.2,2.2,0,0,0,0,4.4C900.9,880.8,900.9,876.4,898.1,876.4Z" fill="#fff"/>
            <path d="M911.2,873.9a1.9,1.9,0,0,0,1.2-1.9v-1.1c0-2.8-4.4-2.8-4.4,0V872a1.8,1.8,0,0,0,.3,1.1H908c-8.5,0-8.5,13.2,0,13.2S916.3,876.7,911.2,873.9Z" fill="#fff"/>
            <path d="M910.2,858.8V861c0,2.8,4.4,2.8,4.4,0v-2.2A2.2,2.2,0,0,0,910.2,858.8Z" fill="#fff"/>
            <path d="M909.1,890.7H908c-2.9,0-2.9,4.5,0,4.5h1.1C911.9,895.2,911.9,890.7,909.1,890.7Z" fill="#fff"/>
            <path d="M904.6,791.8a2.2,2.2,0,0,0-4.1-1.2c-4.4.8-4.5,7.5-.1,8.5a2.1,2.1,0,0,0,2.1,2.4c1.9,0,2.5-2.1,1.8-3.4A4.7,4.7,0,0,0,904.6,791.8Z" fill="#fff"/>
            <path d="M905.8,782.7a2.2,2.2,0,0,0,0,4.4C908.6,787.1,908.6,782.7,905.8,782.7Z" fill="#fff"/>
            <path d="M919,775c-2.8,0-2.8,4.4,0,4.4A2.2,2.2,0,0,0,919,775Z" fill="#fff"/>
            <path d="M966.6,765.3c-1.9.8-1.6,4.2.9,4.2s3.3-1.1,3.3-3.3S967.5,763.4,966.6,765.3Z" fill="#fff"/>
            <path d="M986.3,746.3c-2.9,0-2.9,4.5,0,4.5S989.1,746.3,986.3,746.3Z" fill="#fff"/>
            <path d="M995.1,725.4a2.2,2.2,0,0,0,0,4.4C997.9,729.8,997.9,725.4,995.1,725.4Z" fill="#fff"/>
            <path d="M1002.8,698.9c-2.9,0-2.9,4.5,0,4.5S1005.6,698.9,1002.8,698.9Z" fill="#fff"/>
            <path d="M999.3,687.1c-.8-2.4-4.6-1.3-4.2,1.4a3.3,3.3,0,0,0,3.3,2.7C1000.9,691.4,1001.2,688,999.3,687.1Z" fill="#fff"/>
            <path d="M1007.2,717.7c-2.5,0-2.8,3.4-.9,4.2s4.2,1.6,4.2-.9S1009.4,717.7,1007.2,717.7Z" fill="#fff"/>
            <path d="M1005,738.6a2.2,2.2,0,0,0,0,4.4C1007.8,743,1007.8,738.6,1005,738.6Z" fill="#fff"/>
            <path d="M995.1,751.9a2.2,2.2,0,0,0,0,4.4C997.9,756.3,997.9,751.9,995.1,751.9Z" fill="#fff"/>
            <path d="M990.7,765.1a2.2,2.2,0,0,0,0,4.4C993.5,769.5,993.5,765.1,990.7,765.1Z" fill="#fff"/>
            <path d="M958.7,619.6a2.2,2.2,0,0,0,0,4.4C961.5,624,961.5,619.6,958.7,619.6Z" fill="#fff"/>
            <path d="M964.2,607.5c-2.8,0-2.8,4.4,0,4.4A2.2,2.2,0,0,0,964.2,607.5Z" fill="#fff"/>
            <path d="M971.9,596.4c-2.8,0-2.8,4.4,0,4.4A2.2,2.2,0,0,0,971.9,596.4Z" fill="#fff"/>
            <path d="M953.2,607.5a2.2,2.2,0,0,0,0,4.4C956,611.9,956,607.5,953.2,607.5Z" fill="#fff"/>
            <path d="M963.1,592h-1.4c-2.8,0-2.8,4.4,0,4.4h1.4C965.9,596.4,965.9,592,963.1,592Z" fill="#fff"/>
            <path d="M1009.8,568c2.8-2.3,2-7.9-2.6-7.9h-.5c.5-2,.9-3.9,1.2-5.8,6-1.5,6.1-10.9.2-12.7-.1-.6-.1-1.2-.2-1.8-1.5-12-9.3-22-13.4-33.2-3.3-9-6.4-18-9.6-27.1-1.3-3.6-2.6-10.8-6-13.2s-4.5,2.2-2.2,3.8,2.6,4.5,3.8,8.5h-.9a5.4,5.4,0,0,0-5.3,4.4,4.5,4.5,0,0,0,3.1,5.4,4.8,4.8,0,0,0,5-2.2c0-.1.2-.1.3-.2.4,1.5.8,2.8,1.1,3.7l1.2,3.3h-1a5.6,5.6,0,0,0-3.8,8.6,4.3,4.3,0,0,0,7.7-.2c1.6,4.6,3.2,9.2,5.1,13.7,4.1,9.9,8.6,17.8,10.2,26.8-4.7,2.3-4.7,10.1.3,12.1-.2,1.3-.4,2.6-.7,3.9-3.4,16.1-14.5,28.3-23.7,41.4a47.4,47.4,0,0,0-4.4,7.5c-3.8-.9-8.3,1.2-8.3,6.2v2.2a6,6,0,0,0,3.6,5.7,46.2,46.2,0,0,0-.6,8.4,4.1,4.1,0,0,0-4.1-3.1c-3.9,0-5.1,4.2-3.6,6.8l-.8-.2c-2.8,0-2.8,4.4,0,4.4a2.2,2.2,0,0,0,2-3,3.8,3.8,0,0,0,2.4.8,4.1,4.1,0,0,0,4.1-3.1h0a49.9,49.9,0,0,0,1.8,10.7,4.2,4.2,0,0,0-3.7-2.2c-5.7,0-5.7,8.8,0,8.8a4,4,0,0,0,4.2-4.6c2.9,10,7.6,19.8,10.7,29.3,6.4,20.3,4.7,39.2-3.3,56-3.8.9-5.3,4.9-4.5,8.2a102.9,102.9,0,0,1-17.8,21.1c-12.2,11.2-27.7,20.7-38.2,33.6a5.5,5.5,0,0,0-2-1.7,2.2,2.2,0,0,0-2-3,2,2,0,0,0-2.1,2.3c-6.9,1-7.2,11.4-.7,12.9a59.6,59.6,0,0,0-2.5,5.8,6.1,6.1,0,0,0-3.5-1.1,6.6,6.6,0,0,0-6.6,6.6,8.1,8.1,0,0,0,.1,1.6,2.2,2.2,0,0,0,.9,2.4,7.5,7.5,0,0,0,6.4,3.7c-1.3,9.8-1.8,19.7-4.9,29.4-4.5,13.9-14.9,24.9-27,32.8-16.2,10.6-35.3,12.4-53.5,17.4l.6-.4c1.6-1.6,1.9-4.7,0-6.3s-3.5-2.5-5.7-1.9a5,5,0,0,0-3.9,3.9c-.4,2.4.7,4.8,3.2,5.4a4.5,4.5,0,0,0,2.3-.1l.7.2a91.5,91.5,0,0,0-11.1,3.9c-20.9,8.8-31.7,26.7-43.5,44.9-13.7,20.9-32.2,37.4-57.2,42.4-17,3.3-33.7-1.3-50.5-3.4a117.7,117.7,0,0,0-15.9-1.2c1.8-2.6.7-7.2-3.4-7.2h-1.1c-4.2,0-5.3,4.8-3.3,7.3a64.5,64.5,0,0,0-14.9,2.7,6.4,6.4,0,0,0-9.4-3.5,2.1,2.1,0,0,0-2.1-2.1,2.2,2.2,0,0,0-.1,4.4,7.2,7.2,0,0,0,.5,7.5,25.7,25.7,0,0,0-5.7,7.7,6.4,6.4,0,0,0-4.7-1.9h-2.2c-8.5,0-8.5,13.2,0,13.2H596a5.8,5.8,0,0,0,1.9-.3,36.3,36.3,0,0,0,0,6.6c.2,2.8,4.6,2.8,4.4,0-.7-11.1,2.3-18.3,7.6-23l1.6.2a6.1,6.1,0,0,0,6.1-4.7c18.9-7.2,50.5,1.1,67.9,3a76.9,76.9,0,0,0,22.5-1.1,6,6,0,0,0-.3,3.8,6.8,6.8,0,0,0,8.1,4.8c.5-.2,2.2-.5.4-.3,3.6-.3,6.6-2.8,6.6-6.6a7,7,0,0,0-2.6-5.3,83.9,83.9,0,0,0,17.6-9.1,9.8,9.8,0,0,0-.7,3.4,3.8,3.8,0,0,0,1.8,3.4,3.3,3.3,0,0,0-.7,2.1c0,2.5,3.4,2.8,4.2.9a2.4,2.4,0,0,0,1.2-2.7,4,4,0,0,0,2.2-2.9,4.6,4.6,0,0,0,1.1-4.2c0-.1-.1-.1-.1-.2l1.4.2c5.4,0,5.6-8,.5-8.7,16.4-15.6,24.7-37.2,40.8-53.1,18.3-18,43.2-18.2,66.2-25.5a86.6,86.6,0,0,0,26.7-13.7c-1.8,3.9.1,9.6,5.7,9.6h1.1l1.4-.2c.8,1.8,4.2,1.5,4.2-.9v-1.2a1.4,1.4,0,0,0-.2-.6c2.4-3.9.6-10.4-5.4-10.4h-1.1l-1.6.2a72.3,72.3,0,0,0,11.9-13.4,4,4,0,0,0,4.1,3.3c5.7,0,5.7-8.8,0-8.8h-.8c.6-1.1,1.3-2.2,1.8-3.3,4.8-9.8,6.1-20.8,7.2-31.4.2-2.6.6-5,1-7.3a6.5,6.5,0,0,0,1.8-4.4,4.8,4.8,0,0,0-.3-1.8,53.3,53.3,0,0,1,5.8-13.4h0a71,71,0,0,1,11.1-13.7c15.8-15.5,35.2-26.7,47.7-44.5a6.5,6.5,0,0,0,2.9.6c7.1,0,8.3-9,3.7-12.1.4-1,.9-2,1.3-3.1l.6-1.7a4,4,0,0,0,3.3,1.5c5.7,0,5.7-8.8,0-8.8l-1.1.2a69.7,69.7,0,0,0,1.9-13.5h.3c5.7,0,5.7-8.9,0-8.9h-.2c-.7-13.7-4.6-27.3-9.7-40.9-4.5-12-7.8-23.1-6.1-34.5a6,6,0,0,0,4.9-6.2V613a6.7,6.7,0,0,0-1.1-3.9,20,20,0,0,1,1-2.1c7.1-13.2,18-23.6,24.1-37.6.1-.3.3-.7.4-1.1a4.7,4.7,0,0,0,2.1.6h1.1a4.7,4.7,0,0,0,1.7-.4,1.9,1.9,0,0,0-.6,1.5v1.1c0,2.8,4.4,2.8,4.4,0V570A2.1,2.1,0,0,0,1009.8,568Z" fill="#fff"/>
            <path d="M1019.3,552.3c-2.8,0-2.8,4.4,0,4.4A2.2,2.2,0,0,0,1019.3,552.3Z" fill="#fff"/>
            <path d="M1019.3,528.1a2.1,2.1,0,0,0-2.1,2,4.2,4.2,0,0,0-5.3.3h-.3c-2.4.4-3.7,3.3-3.2,5.4a4.7,4.7,0,0,0,5.4,3.2,8.3,8.3,0,0,0,4.2-2.3,3.9,3.9,0,0,0,1.1-4.3h.2A2.2,2.2,0,0,0,1019.3,528.1Z" fill="#fff"/>
            <path d="M1010.5,514.9a1.8,1.8,0,0,0-1.8,1.1,4,4,0,0,0-3.7-2.2c-5.7,0-5.7,8.8,0,8.8a4.1,4.1,0,0,0,4.2-3.8,1.7,1.7,0,0,0,1.3.5C1013.3,519.3,1013.3,514.9,1010.5,514.9Z" fill="#fff"/>
            <path d="M1011.6,508.2c-2.8,0-2.8,4.5,0,4.5S1014.5,508.2,1011.6,508.2Z" fill="#fff"/>
            <path d="M1039.2,539.1a2.2,2.2,0,0,0,0,4.4C1042,543.5,1042,539.1,1039.2,539.1Z" fill="#fff"/>
            <path d="M1022.6,541.3c-2.5,0-2.8,3.4-.9,4.2s4.3,1.6,4.2-.9A3,3,0,0,0,1022.6,541.3Z" fill="#fff"/>
            <path d="M976.3,497.2c-2.8,0-2.8,4.4,0,4.4A2.2,2.2,0,0,0,976.3,497.2Z" fill="#fff"/>
            <path d="M973,486.2c-2.8,0-2.8,4.4,0,4.4A2.2,2.2,0,0,0,973,486.2Z" fill="#fff"/>
            <path d="M971.9,473c-2.8,0-2.8,4.4,0,4.4A2.2,2.2,0,0,0,971.9,473Z" fill="#fff"/>
            <path d="M968.6,460.8h-.8c-2.9,0-2.9,4.5,0,4.5h.8C971.5,465.3,971.5,460.8,968.6,460.8Z" fill="#fff"/>
            <path d="M977.4,755.2h-1.1c-8.5,0-8.5,13.2,0,13.2h1.1C986,768.4,986,755.2,977.4,755.2Z" fill="#fff"/>
            <path d="M976.3,578.8c-8.5,0-8.5,13.2,0,13.2S984.9,578.8,976.3,578.8Z" fill="#fff"/>
            <path d="M777.9,896.3c-5.7,0-5.7,8.8,0,8.8S783.6,896.3,777.9,896.3Z" fill="#fff"/>
            <path d="M762.5,930.4c-5.7,0-5.7,8.8,0,8.8S768.2,930.4,762.5,930.4Z" fill="#fff"/>
            <path d="M863.9,897.4a5.1,5.1,0,0,0-5.5,5.5c-.1,4.6,5.8,5.4,8,2.4S868.6,897.3,863.9,897.4Z" fill="#fff"/>
            <path d="M887,904v1.1c0,5.7,8.9,5.7,8.9,0V904C895.9,898.3,887,898.3,887,904Z" fill="#fff"/>
            <path d="M894.8,801.5h-2.2c-5.7,0-5.7,8.8,0,8.8h2.2C900.5,810.3,900.5,801.5,894.8,801.5Z" fill="#fff"/>
            <path d="M893.8,823.7a13.9,13.9,0,0,0-1.5,1.9,4.5,4.5,0,0,0,.7,5.3,5.3,5.3,0,0,0,4,1.4,4.1,4.1,0,0,0,4.2-4.5C902,824.1,897.2,820.3,893.8,823.7Z" fill="#fff"/>
            <path d="M965.2,767.3a4.6,4.6,0,0,0-5.4-3.2,6.7,6.7,0,0,0-5.4,5.4,4.7,4.7,0,0,0,3.2,5.4,8.8,8.8,0,0,0,7.6-7.6Z" fill="#fff"/>
            <path d="M763.6,917.2c-5.7,0-5.7,8.8,0,8.8S769.3,917.2,763.6,917.2Z" fill="#fff"/>
            <path d="M995,545.2c-4.2-14.3-15.8-23.3-30.8-22.6-1.7.1-3.2,2.4-1.6,3.7,9.8,7.9,16.9,18.7,28.1,24.6,2.2,1.2,4.1-1.6,2.9-3.2A1.9,1.9,0,0,0,995,545.2Z" fill="#fff"/>
            <path d="M1013.2,487.9l-.6-1.2a2.2,2.2,0,0,0-3.2-1.3c-8.7,3.7-16.7,14.7-14.8,24.6l-.3.5a1.6,1.6,0,0,0-.3,1.7c-.4,1.4-.8,2.8-1.1,4.3s2.2,4,3.7,2.1c3.1-3.9,4.9-8.6,6.7-13.3,3.4-4.8,6.9-9.7,10.2-14.7A2.4,2.4,0,0,0,1013.2,487.9Z" fill="#fff"/>
            <path d="M981.8,411.2a2.2,2.2,0,0,0-3.7-1.5c-11,8.4-11.2,18.4-7.1,28.2a15.3,15.3,0,0,0,6.7,11.6c1.5,2.1,3.1,4.3,4.8,6.3s2.8.6,3.4-.7a2,2,0,0,0,1.5-2,.3.3,0,0,1-.1-.2C999.3,441.5,982.6,423.9,981.8,411.2Zm5.2,33.6a29.3,29.3,0,0,1-.5-2.9,69.1,69.1,0,0,0-1.7-7.6c-.3-1.6-.6-3.2-.8-4.7C986.2,435,987.9,440.3,987,444.8Z" fill="#fff"/>
            <path d="M1025.3,580.5a20.7,20.7,0,0,0-6.7-5.4,1.7,1.7,0,0,0-1.4-.7,24.5,24.5,0,0,0-21,.3,2.1,2.1,0,0,0,.4,3.9l-.3.7-2.9.7c-2.8.8-1.6,4.6,1.1,4.2a135.9,135.9,0,0,1,15.5-1l8.1.8h.1a1.9,1.9,0,0,0,1.9.1l3.6.2C1025.8,584.3,1026.4,581.9,1025.3,580.5Z" fill="#fff"/>
            <path d="M1010.5,640.5a21.9,21.9,0,0,0-3.6.3,2.1,2.1,0,0,0-3.8-.3l-1,1.7c-10.7,4.6-17.5,17.9-17,29.2a2.3,2.3,0,0,0,2.1,2.1,7.5,7.5,0,0,1-.7,1.2c-1.3,2.2,1.7,4.3,3.5,2.7,10-9.4,15.6-21.9,22.4-33.6A2.2,2.2,0,0,0,1010.5,640.5Z" fill="#fff"/>
            <path d="M966.1,674.7c-1-1.4-3.6-1.5-4,.5a39.5,39.5,0,0,0-.8,8.5,2.3,2.3,0,0,0-.9,3.6l1.2,1.3c.9,6.3,3.1,12.5,6.8,17a10.5,10.5,0,0,0,5,4.5,20.1,20.1,0,0,0,11.7,3.2h.5a2.4,2.4,0,0,0,2.8-1.6C992.6,695.8,973.9,685.7,966.1,674.7Zm10.1,16.6-4-2.8-.9-1a1.7,1.7,0,0,0-1.6-.6l-1.1-.9h0v-1.4a1.3,1.3,0,0,0-.2-.9C970.9,686.1,973.7,688.6,976.2,691.3Z" fill="#fff"/>
            <path d="M951.4,721.6c-1.2-1.3-4-.4-3.7,1.6a41,41,0,0,0,1.1,6.1,28.1,28.1,0,0,0,0,21.5v11a2.1,2.1,0,0,0,3.4,1.7c.5,2,3.4,1.9,4.2-.1l.3-.9c.8,1.8,3.7,2.1,4.1-.2C963.9,747.6,962,733,951.4,721.6Z" fill="#fff"/>
            <path d="M970.7,816.3a3.6,3.6,0,0,0-.4-.9c1.7-17.8-14.7-29.9-29.3-37.9-2.4-1.4-4.6,2.5-2.1,3.8l.3.2a2.1,2.1,0,0,0-.3,1.6h-.1l-.2-.4c-1.6-2.3-5.3-.3-3.9,2.2l3,4.9c5.2,8.6,10.7,18.3,19.7,22.1,2.9,2.9,5.8,5.8,8.6,8.8a2.2,2.2,0,0,0,3.6-1,4.4,4.4,0,0,0,.2-1A1.9,1.9,0,0,0,970.7,816.3Z" fill="#fff"/>
            <path d="M926.3,771.4c.6-6.8.1-13.6-3.2-20.6a1.8,1.8,0,0,0-.5-.7,83.2,83.2,0,0,0-2.6-9.8,2.2,2.2,0,0,0-4.2,0,38.1,38.1,0,0,0-2.2,12.4.4.4,0,0,0-.1.3,98.4,98.4,0,0,0,1.4,27.1,41,41,0,0,1-.3,7c-.2,1.6,1.5,2.4,2.8,2.1l.6,1.8a2.2,2.2,0,0,0,4.2-.9,1.4,1.4,0,0,0,.9-.8,6.7,6.7,0,0,0,.6-1.2,2,2,0,0,0,1.9-2.1v-2.5A29,29,0,0,0,926.3,771.4Z" fill="#fff"/>
            <path d="M948.8,824.9l-1.4-.5a2.1,2.1,0,0,0-2.5-3,31.6,31.6,0,0,0-4.3,1.6c-12.9-1.5-31.3,2.3-32.6,14.8a1.7,1.7,0,0,0,.4,1.5l-2.6,1c-2.2.9-.9,4.1,1.1,4.2,15.9.4,28.3-8.8,41.9-15.8A2.2,2.2,0,0,0,948.8,824.9Z" fill="#fff"/>
            <path d="M886.4,866a26,26,0,0,1-2.6-3.2v-1.1a1.9,1.9,0,0,0,1-2.4c-.4-1.2-.7-2.4-1.1-3.6-.1-10.3-1-20.3-5.8-30-1.3-2.7-6.2-15-11.2-9.9s-.2,20.5.8,26.2c1.6,9.2,5.4,17.5,11.9,23.9a2,2,0,0,0,1.8,1.6l2,1.6c.1,0,.1,0,.1.1h0l.4.4C885.9,871,888,867.8,886.4,866Z" fill="#fff"/>
            <path d="M820.4,904.6a4.4,4.4,0,0,1-2.3,1.7c-2.8.4-1.6,4.7,1.2,4.2s3-1.5,4.3-2.8S822.5,902.6,820.4,904.6Z" fill="#fff"/>
            <path d="M874.6,950.3c-11.4-15.7-15.9-36.5-31.9-48.4h-.1a31.3,31.3,0,0,0-3-2,1.1,1.1,0,0,0-.7-.3,2.5,2.5,0,0,0,1.2-.7h.2c2,2,5.1-1.1,3.1-3.1l-.5-.6c7.1-10.9,5.7-24.7,5.6-37.5a2.3,2.3,0,0,0-3.8-1.6c-6.3,4.9-10.2,13.3-11,21.9-2.1,6.9-2.5,13.8,2.4,14.8a11.9,11.9,0,0,0,.8,1.6c-.2.8-.3,1.6-.5,2.4a2.3,2.3,0,0,0,2.2,2.8,2.2,2.2,0,0,0-2,3.3,23.9,23.9,0,0,1,1.3,2.1c-1.5,5.1.8,14,1.8,17.2,5.1,15.8,16.9,26.1,32.5,31.3C873.9,954.1,875.8,951.8,874.6,950.3ZM853.1,923c-2-3.7-4-7.4-6.1-11a63,63,0,0,1,7.5,10.8A2.2,2.2,0,0,0,853.1,923Z" fill="#fff"/>
            <path d="M743.2,958.1c-3.1-.8.6-26.7,0-30.7-.3-1.9-1-8-2.8-12.7v-.8a2,2,0,0,0-1.3-2c-1.3-2.2-3-3.5-5.1-3-7.4,1.8-7.4,16.5-7.7,22.4-.7,10.9.7,24.1,8.2,32.7a2,2,0,0,0,3.1-.2c.1,0,.1.1.2.2s3.6.2,3.7-1.6v-.3l.6.2C744.8,963,746,958.7,743.2,958.1Z" fill="#fff"/>
            <path d="M762.5,957.2a1.9,1.9,0,0,0-1,2.5,6.4,6.4,0,0,0-1.8.6,2.4,2.4,0,0,0-1.4,1.4h-.2a2.2,2.2,0,0,0-2.2,3.8c8.9,6,17.7,10.6,27,13.3a37,37,0,0,0,13.8,3.5,1.7,1.7,0,0,0,1.7-1,72.5,72.5,0,0,0,10.4-.1,2.2,2.2,0,0,0,2.1-2.7C806.4,955.4,782.3,948.1,762.5,957.2Zm37.2,8.6a3.3,3.3,0,0,0-1.2.5l-1.1-.8c-2-1.9-4.2-3.9-6.4-5.6A25.3,25.3,0,0,1,799.7,965.8Z" fill="#fff"/>
            <path d="M681.6,957.9c-.1-4.5-.5-8.4-.7-10.9s-1.8-3-3.3-2c-15.8,10.7-24,31.5-18.7,49.9.8,2.7,4.8,1.7,4.3-.9l.6.3c11.4,2.2,15.7-8.5,17.2-20.7A39.5,39.5,0,0,0,681.6,957.9Z" fill="#fff"/>
          </g>
          <g>
            <path d="M1050.4,507.2a13.8,13.8,0,0,1-2.7-.1,24.3,24.3,0,0,1-3.1-.5l-1.9-.4-2.2-1.1c-6.5-2.9-14.4-8.8-22.8-17.9s-17-21.4-25.1-36.3c-4.1-7.4-8.1-15.4-12.1-23.9l-12.1-26.5c-8.7-18.3-17.5-38.8-26.3-60.3s-18.7-43.9-29.9-66.5-23.9-45.1-39.4-66.2-33.5-40.8-54.5-57.3c-5.2-4.5-10.7-7.9-16.1-11.7-2.8-1.8-5.3-3.8-8.2-5.5l-8.6-5.1-8.5-5-8.9-4.6-8.8-4.5-9-4-18.3-8-9.1-4c-3-1.3-6.1-2.3-9.1-3.4l-18.1-6.6c-6-2.2-11.9-4.5-18-6.1l-18-5.4c-6-1.7-11.8-3.7-17.8-4.9-11.8-2.8-23.4-5.5-34.7-8s-22.7-4.4-33.4-6.1c-5.4-.9-10.6-1.9-15.9-2.6l-15.3-1.9c-5-.8-9.9-1.1-14.7-1.5l-14-1H487.6l-22.7,2a79.3,79.3,0,0,0-10.1,1.4l-9.2,1.5c-11.7,1.6-20.6,4.2-26.8,5.5l-9.5,2.1-.6-1.9,9.3-3c6.1-1.7,14.9-5.2,26.7-7.6l9.2-2.1a97,97,0,0,1,10.2-2c7.2-1,15-2.1,23.4-3.1L514,42l14.4.7c5,.3,10,.4,15.1,1.1,20.5,2.2,42.4,6.3,65.3,10.6l35.3,7.7c6.1,1.2,12,3.2,18.1,4.8L680.5,72c6.3,1.6,12.4,3.8,18.6,5.9l18.6,6.5,9.4,3.4,9.2,3.8,18.4,7.8c3.1,1.3,6,2.4,9.4,4l9.2,4.5,9.2,4.6,8.9,5,9,5.2c3,1.7,5.8,3.8,8.8,5.7,5.7,3.9,11.8,7.7,16.9,12,22.2,16.5,41.7,36.8,58.3,58.4s30.3,44.7,42.3,67.5,22.3,45.4,31.8,66.8,18.1,41.5,25.8,60.5,13.8,36.5,20.4,51.3,13.3,27.2,20.1,36.4,13.6,15.2,18.5,18.1a32.9,32.9,0,0,0,3.3,2.3,22.8,22.8,0,0,1,2.6,1.8,18.3,18.3,0,0,1,1.9,1.8Z" fill="#fff"/>
            <path d="M971.3,446.7h1.1c2.9,0,2.9-4.4.1-4.4h-1.1C968.5,442.3,968.5,446.7,971.3,446.7Z" fill="#fff"/>
            <path d="M956,427.9c0,2.8,4.4,2.9,4.4,0S956,425,956,427.9Z" fill="#fff"/>
            <path d="M974.8,418.1c0,2.8,4.4,2.8,4.4,0S974.8,415.2,974.8,418.1Z" fill="#fff"/>
            <path d="M953,415.9l-1.2,1.1c-4,4,2.2,10.3,6.2,6.3l1.2-1.1C963.2,418.2,957,411.9,953,415.9Z" fill="#fff"/>
            <path d="M945,431.1c0,2.9,4.4,2.9,4.4.1S945,428.3,945,431.1Z" fill="#fff"/>
            <path d="M934,425.6c0,2.8,4.4,2.8,4.4,0A2.2,2.2,0,0,0,934,425.6Z" fill="#fff"/>
            <path d="M976.3,339.8q.2,3.3,3.3,3.3c2.5.1,2.8-3.3,1-4.2S976.3,337.3,976.3,339.8Z" fill="#fff"/>
            <path d="M979.7,322.2c0,2.8,4.4,2.9,4.5,0S979.8,319.4,979.7,322.2Z" fill="#fff"/>
            <path d="M966.6,313.3c-.1,8.5,13.1,8.6,13.2.1S966.6,304.8,966.6,313.3Z" fill="#fff"/>
            <path d="M963.4,294.6c0,2.8,4.4,2.8,4.4,0A2.2,2.2,0,0,0,963.4,294.6Z" fill="#fff"/>
            <path d="M977.7,293.5c0,2.9,4.4,2.9,4.4.1S977.7,290.7,977.7,293.5Z" fill="#fff"/>
            <path d="M973.4,282.5c-.1,2.8,4.3,2.9,4.4,0S973.4,279.6,973.4,282.5Z" fill="#fff"/>
            <path d="M883.9,257.5a6.7,6.7,0,0,0,0,9.3,11.4,11.4,0,0,0,1.1,1.1,6.5,6.5,0,0,0,8.2.8c.9,1.8,4.2,1.5,4.2-1a2,2,0,0,0-1.6-2,6.7,6.7,0,0,0-1.4-7.1l-1.1-1.1A6.7,6.7,0,0,0,883.9,257.5Z" fill="#fff"/>
            <path d="M879.9,247.8c-.1,2.8,4.3,2.9,4.4,0S879.9,244.9,879.9,247.8Z" fill="#fff"/>
            <path d="M870,233.4a2.1,2.1,0,0,0,.6,1.5,6,6,0,0,0-5,6.2v.4a7.4,7.4,0,0,0-2.5-.3h-.8a6.7,6.7,0,0,0-6.7,6.6,7.5,7.5,0,0,0,2,5.5,7,7,0,0,0,8,1.1,11.8,11.8,0,0,0,2.2-1.7c.4,2.3,4.3,2.2,4.3-.4v-1.1a2.1,2.1,0,0,0-2.4-2.2,4.3,4.3,0,0,0,.1-.5c3.8,1.3,8.9-.7,9-6v-1.2a6.1,6.1,0,0,0-5-6.3,1.8,1.8,0,0,0,.6-1.5C874.4,230.6,870,230.6,870,233.4Z" fill="#fff"/>
            <path d="M868.2,162.8V165c0,2.9,4.4,2.9,4.4.1v-2.2C872.6,160,868.2,160,868.2,162.8Z" fill="#fff"/>
            <path d="M849.6,145.1c-.1,2.8,4.4,2.9,4.4,0S849.6,142.3,849.6,145.1Z" fill="#fff"/>
            <path d="M847.1,132a2.1,2.1,0,0,0-1.9-1.3h-1.1c-2.8,0-2.8,4.4,0,4.4h1.1a1.8,1.8,0,0,0,1.1-.4v.4c0,8.5,13.2,8.6,13.2,0S850,126.9,847.1,132Z" fill="#fff"/>
            <path d="M832,132.9h2.2c2.8,0,2.9-4.4,0-4.4H832C829.2,128.5,829.1,132.9,832,132.9Z" fill="#fff"/>
            <path d="M864,134.2v1.1c0,2.8,4.4,2.8,4.5,0v-1.1A2.2,2.2,0,0,0,864,134.2Z" fill="#fff"/>
            <path d="M765,138.1a2.2,2.2,0,0,0-2.5,2.1,2,2,0,0,0,1.3,1.9c.7,4.5,7.4,4.6,8.4.3a2.1,2.1,0,0,0,2.4-2.1,2.1,2.1,0,0,0-3.3-1.8A4.8,4.8,0,0,0,765,138.1Z" fill="#fff"/>
            <path d="M755.9,136.9c0,2.8,4.4,2.8,4.4,0A2.2,2.2,0,0,0,755.9,136.9Z" fill="#fff"/>
            <path d="M748.3,123.6c-.1,2.8,4.4,2.9,4.4,0S748.3,120.7,748.3,123.6Z" fill="#fff"/>
            <path d="M738.8,75.9c.8,1.9,4.2,1.7,4.2-.8s-1.1-3.3-3.3-3.4S736.9,75.1,738.8,75.9Z" fill="#fff"/>
            <path d="M720,56.2c0,2.8,4.4,2.9,4.4,0S720,53.3,720,56.2Z" fill="#fff"/>
            <path d="M699.1,47.3c0,2.8,4.4,2.8,4.4,0A2.2,2.2,0,0,0,699.1,47.3Z" fill="#fff"/>
            <path d="M672.7,39.4c0,2.8,4.4,2.9,4.4,0S672.7,36.5,672.7,39.4Z" fill="#fff"/>
            <path d="M660.8,42.8c-2.4.8-1.3,4.6,1.4,4.2a3.3,3.3,0,0,0,2.7-3.2C665.1,41.3,661.7,41,660.8,42.8Z" fill="#fff"/>
            <path d="M691.4,35.1c0,2.5,3.4,2.8,4.2.9s1.7-4.2-.8-4.2S691.5,32.9,691.4,35.1Z" fill="#fff"/>
            <path d="M712.4,37.4a2.2,2.2,0,0,0,4.4,0C716.8,34.6,712.4,34.6,712.4,37.4Z" fill="#fff"/>
            <path d="M725.5,47.4c0,2.8,4.4,2.9,4.5,0S725.6,44.6,725.5,47.4Z" fill="#fff"/>
            <path d="M738.7,51.9c0,2.8,4.4,2.9,4.5,0S738.8,49,738.7,51.9Z" fill="#fff"/>
            <path d="M593.1,83c-.1,2.9,4.4,2.9,4.4.1S593.1,80.2,593.1,83Z" fill="#fff"/>
            <path d="M581,77.5c0,2.8,4.4,2.8,4.4,0A2.2,2.2,0,0,0,581,77.5Z" fill="#fff"/>
            <path d="M570,69.7c0,2.8,4.4,2.9,4.4,0S570,66.8,570,69.7Z" fill="#fff"/>
            <path d="M580.9,88.5c0,2.8,4.4,2.9,4.4,0S580.9,85.6,580.9,88.5Z" fill="#fff"/>
            <path d="M565.5,78.5v1.4c0,2.8,4.4,2.8,4.4,0V78.5C570,75.7,565.5,75.6,565.5,78.5Z" fill="#fff"/>
            <path d="M541.7,31.7c-2.2-2.9-7.9-2.1-7.9,2.5v.5a57.8,57.8,0,0,0-5.7-1.2c-1.5-6.1-10.9-6.2-12.7-.3l-1.8.2c-12.1,1.5-22.1,9.2-33.3,13.2-9,3.3-18.1,6.3-27.1,9.4-3.7,1.3-10.8,2.6-13.3,6s2.1,4.5,3.8,2.2,4.5-2.6,8.5-3.8c0,.3-.1.6-.1.9a5.5,5.5,0,0,0,4.3,5.4c2.4.4,4.8-.7,5.4-3.1a4.6,4.6,0,0,0-2.1-5l-.2-.3,3.7-1.1,3.4-1.1a2.7,2.7,0,0,0,0,.9,5.6,5.6,0,0,0,8.6,3.9c2-1.4,3-3.8,1.7-6a3.9,3.9,0,0,0-1.9-1.7c4.7-1.6,9.2-3.2,13.7-5.1,10-4,17.9-8.4,27-10,2.2,4.8,10,4.7,12.1-.2l3.8.7c16.1,3.5,28.3,14.6,41.3,23.9a63.6,63.6,0,0,0,7.4,4.5c-.8,3.7,1.2,8.3,6.2,8.3h2.2a5.9,5.9,0,0,0,5.7-3.5,59.3,59.3,0,0,0,8.4.6,4.1,4.1,0,0,0-3.1,4.1c0,3.9,4.2,5.1,6.8,3.6a1.9,1.9,0,0,0-.2.8,2.2,2.2,0,1,0,1.4-2,3.6,3.6,0,0,0,.8-2.4,4.1,4.1,0,0,0-3.1-4.1h.2a55.7,55.7,0,0,0,10.6-1.7,3.9,3.9,0,0,0-2.1,3.6c-.1,5.7,8.7,5.8,8.8.1a4.2,4.2,0,0,0-4.7-4.3c10-2.8,19.9-7.4,29.4-10.4,20.3-6.4,39.2-4.5,56,3.6.9,3.8,4.8,5.3,8.1,4.5a103.4,103.4,0,0,1,21.1,17.9c11.1,12.2,20.5,27.8,33.4,38.4a7,7,0,0,0-1.8,2,2.1,2.1,0,0,0-2.9,2,2.1,2.1,0,0,0,2.3,2.1c.9,6.9,11.2,7.2,12.9.8a36.1,36.1,0,0,0,5.7,2.4,6.6,6.6,0,0,0,5.4,10.3l1.7-.2a2.2,2.2,0,0,0,2.4-.9,7.4,7.4,0,0,0,3.7-6.3c9.8,1.3,19.7,1.9,29.3,5.1,13.9,4.5,24.9,15,32.7,27.1,10.5,16.3,12.3,35.4,17.1,53.6a2.1,2.1,0,0,0-.4-.6c-1.6-1.6-4.7-1.9-6.2,0s-2.6,3.5-2,5.7a4.9,4.9,0,0,0,3.9,3.9c2.4.4,4.8-.7,5.4-3.2a4.5,4.5,0,0,0-.1-2.3,1.9,1.9,0,0,0,.2-.7,103.6,103.6,0,0,0,3.8,11.1c8.7,21,26.6,31.9,44.7,43.8,20.8,13.8,37.2,32.4,42,57.4,3.3,17-1.4,33.7-3.7,50.5-.6,5.1-1.1,10.5-1.2,15.9-2.6-1.8-7.2-.8-7.2,3.3V408c0,4.2,4.8,5.3,7.3,3.4a59.6,59.6,0,0,0,2.6,14.9,6,6,0,0,0-4.5,6,5.9,5.9,0,0,0,.9,3.4,2.1,2.1,0,0,0-2,2.1c-.1,2.8,4.2,2.9,4.3.1a7.2,7.2,0,0,0,7.6-.5,21.1,21.1,0,0,0,7.6,5.8,6.4,6.4,0,0,0-2,4.6v2.3c0,8.5,13.2,8.6,13.3,0v-2.2a4.8,4.8,0,0,0-.3-1.8,46.9,46.9,0,0,0,6.5,0c2.8-.2,2.9-4.6,0-4.4-11,.7-18.2-2.4-22.9-7.7a7.8,7.8,0,0,0,.2-1.6,6.2,6.2,0,0,0-4.6-6.2c-7.2-18.9,1.4-50.5,3.3-67.9a73.7,73.7,0,0,0-.9-22.5,5.4,5.4,0,0,0,3.8.3,6.7,6.7,0,0,0,4.8-8c-.1-.5-.4-2.2-.3-.4-.3-3.6-2.7-6.6-6.6-6.6a6.8,6.8,0,0,0-5.2,2.5,88.5,88.5,0,0,0-9-17.6,11.4,11.4,0,0,0,3.3.7,3.9,3.9,0,0,0,3.4-1.7,4.3,4.3,0,0,0,2.1.6c2.5,0,2.8-3.4.9-4.2a2.1,2.1,0,0,0-2.6-1.1A3.8,3.8,0,0,0,962,298a4.6,4.6,0,0,0-4.2-1.1h-.2a5.9,5.9,0,0,0,.2-1.4c.1-5.4-8-5.6-8.6-.6-15.6-16.4-37.2-24.9-53-41.1-17.9-18.3-18-43.3-25.1-66.4a87.5,87.5,0,0,0-13.6-26.7c3.9,1.8,9.6-.1,9.6-5.7V154a2.8,2.8,0,0,0-.1-1.3c1.8-.9,1.5-4.2-.9-4.2h-1.8c-3.9-2.4-10.3-.6-10.4,5.3V155a8.8,8.8,0,0,0,.2,1.7,73.2,73.2,0,0,0-13.4-12,3.9,3.9,0,0,0,3.4-4c0-5.7-8.8-5.8-8.8-.1,0,.3.1.5.1.8l-3.4-1.9c-9.7-4.7-20.7-6.1-31.3-7.3-2.6-.3-5-.6-7.3-1.1a6.3,6.3,0,0,0-4.4-1.8l-1.8.3a56.5,56.5,0,0,1-13.3-5.8h-.1a70.6,70.6,0,0,1-13.6-11.2C744.9,96.7,733.7,77.3,716,64.6a6.5,6.5,0,0,0,.6-2.9c.1-7.1-9-8.3-12.1-3.7l-3-1.3-1.8-.7a3.9,3.9,0,0,0,1.6-3.2c0-5.7-8.8-5.8-8.9-.1a4.5,4.5,0,0,0,.3,1.1,71.1,71.1,0,0,0-13.5-2v-.2c.1-5.7-8.8-5.8-8.8-.1v.2c-13.7.6-27.3,4.5-40.9,9.5-12,4.3-23.1,7.6-34.6,5.9a5.9,5.9,0,0,0-6.1-5h-2.2a6.7,6.7,0,0,0-3.9,1.1l-2.1-1C567.4,55,557.1,44,543.2,37.9l-1.1-.5a3.9,3.9,0,0,0,.5-2V34.3a4.3,4.3,0,0,0-.3-1.7,2,2,0,0,0,1.4.6h1.1c2.9,0,2.9-4.4.1-4.4h-1.1A2.2,2.2,0,0,0,541.7,31.7Z" fill="#fff"/>
            <path d="M526.2,22c-.1,2.9,4.4,2.9,4.4.1S526.2,19.2,526.2,22Z" fill="#fff"/>
            <path d="M501.9,21.9a2.1,2.1,0,0,0,2,2.1,4.2,4.2,0,0,0,.3,5.3v.3c.4,2.4,3.2,3.8,5.4,3.2s3.5-3,3.2-5.3a9,9,0,0,0-2.3-4.3,3.7,3.7,0,0,0-4.2-1v-.3C506.3,19.1,501.9,19.1,501.9,21.9Z" fill="#fff"/>
            <path d="M488.6,30.6a2,2,0,0,0,1.1,1.9,3.9,3.9,0,0,0-2.2,3.7c0,5.6,8.8,5.7,8.8,0a4.1,4.1,0,0,0-3.8-4.2,1.9,1.9,0,0,0,.5-1.3C493.1,27.8,488.6,27.8,488.6,30.6Z" fill="#fff"/>
            <path d="M482,29.5a2.2,2.2,0,0,0,4.4,0C486.5,26.7,482,26.7,482,29.5Z" fill="#fff"/>
            <path d="M513,2.1c0,2.9,4.4,2.9,4.5,0S513.1-.7,513,2.1Z" fill="#fff"/>
            <path d="M515.2,18.7c-.1,2.5,3.3,2.8,4.2.9s1.6-4.2-.9-4.2S515.2,16.5,515.2,18.7Z" fill="#fff"/>
            <path d="M470.8,64.7a2.2,2.2,0,0,0,4.4,0C475.2,61.9,470.8,61.9,470.8,64.7Z" fill="#fff"/>
            <path d="M459.8,68c-.1,2.8,4.4,2.8,4.4,0A2.2,2.2,0,0,0,459.8,68Z" fill="#fff"/>
            <path d="M446.5,69c0,2.8,4.4,2.9,4.4,0S446.5,66.1,446.5,69Z" fill="#fff"/>
            <path d="M434.4,72.2v.9c0,2.8,4.4,2.8,4.4,0v-.8C438.8,69.4,434.4,69.4,434.4,72.2Z" fill="#fff"/>
            <path d="M728.7,65.1v1.1c0,8.5,13.2,8.6,13.3,0V65.1C742,56.6,728.8,56.5,728.7,65.1Z" fill="#fff"/>
            <path d="M552.4,65.2c-.1,8.5,13.2,8.6,13.2,0S552.4,56.6,552.4,65.2Z" fill="#fff"/>
            <path d="M868.7,265.4c0,5.7,8.8,5.7,8.8,0S868.8,259.7,868.7,265.4Z" fill="#fff"/>
            <path d="M902.8,281c0,5.7,8.8,5.7,8.8,0S902.8,275.3,902.8,281Z" fill="#fff"/>
            <path d="M870.3,179.4a5.1,5.1,0,0,0,5.5,5.5c4.7.1,5.5-5.7,2.5-7.9S870.3,174.7,870.3,179.4Z" fill="#fff"/>
            <path d="M877.1,156.3h1.1c5.6,0,5.7-8.8,0-8.8h-1.1C871.4,147.4,871.4,156.2,877.1,156.3Z" fill="#fff"/>
            <path d="M774.6,148v2.2c-.1,5.7,8.8,5.7,8.8,0V148C783.4,142.3,774.6,142.3,774.6,148Z" fill="#fff"/>
            <path d="M796.8,149a9.5,9.5,0,0,0,1.9,1.6,4.5,4.5,0,0,0,5.3-.7,5.8,5.8,0,0,0,1.5-3.9,4.2,4.2,0,0,0-4.6-4.3C797.3,140.9,793.5,145.7,796.8,149Z" fill="#fff"/>
            <path d="M740.8,77.4c-2.5.6-3.5,3-3.2,5.4a6.6,6.6,0,0,0,5.3,5.3c2.4.4,4.8-.6,5.4-3.1a4.4,4.4,0,0,0-2.4-5.1A4.6,4.6,0,0,0,740.8,77.4Z" fill="#fff"/>
            <path d="M889.6,279.8c0,5.7,8.8,5.8,8.8.1S889.6,274.1,889.6,279.8Z" fill="#fff"/>
            <path d="M518.9,46.3C504.6,50.5,495.5,62,496.1,77c.1,1.7,2.4,3.2,3.7,1.6,7.9-9.7,18.8-16.8,24.8-27.9a2.2,2.2,0,0,0-3.2-2.9A1.9,1.9,0,0,0,518.9,46.3Z" fill="#fff"/>
            <path d="M461.7,27.8l-1.2.6a2.2,2.2,0,0,0-1.3,3.2c3.6,8.7,14.6,16.8,24.5,14.9l.4.4a2,2,0,0,0,1.8.2,30.1,30.1,0,0,0,4.3,1.1c1.9.4,4-2.2,2.1-3.7-3.9-3.1-8.6-4.8-13.2-6.7L464.4,27.5A2.4,2.4,0,0,0,461.7,27.8Z" fill="#fff"/>
            <path d="M384.9,58.7a2.3,2.3,0,0,0-1.6,3.8c8.4,11,18.4,11.3,28.1,7.2a15.3,15.3,0,0,0,11.7-6.6c2.1-1.5,4.3-3.1,6.3-4.8s.7-2.8-.6-3.4a2,2,0,0,0-2-1.5h-.2C415.2,41.4,397.5,58,384.9,58.7Zm33.5-4.9-2.8.5a65.7,65.7,0,0,0-7.7,1.6l-4.7.8C408.6,54.5,414,52.8,418.4,53.8Z" fill="#fff"/>
            <path d="M554.4,16.2a21.8,21.8,0,0,0-5.5,6.6,2.1,2.1,0,0,0-.7,1.5,24.5,24.5,0,0,0,.2,21c.9,1.9,3.4,1.1,3.9-.4l.7.3.6,2.9c.8,2.8,4.7,1.7,4.3-1.1a115.1,115.1,0,0,1-.9-15.5c.2-2.7.5-5.4.8-8.1h0a2.2,2.2,0,0,0,.2-1.9c0-1.2.1-2.4.2-3.6S555.8,15.1,554.4,16.2Z" fill="#fff"/>
            <path d="M614.3,31.3c0,1.3.1,2.5.2,3.6a2.2,2.2,0,0,0-.2,3.9l1.6,1c4.5,10.7,17.9,17.6,29.1,17.1a2.3,2.3,0,0,0,2.1-2.1l1.2.7c2.2,1.3,4.4-1.7,2.7-3.5-9.3-10-21.8-15.6-33.4-22.6A2.3,2.3,0,0,0,614.3,31.3Z" fill="#fff"/>
            <path d="M648.2,75.9c-1.4,1-1.5,3.6.5,4.1a47.1,47.1,0,0,0,8.5.8,2.3,2.3,0,0,0,3.6.9l1.3-1.2c6.3-.8,12.5-3,17.1-6.7a10,10,0,0,0,4.4-4.9,20,20,0,0,0,3.3-11.8c0-.2-.1-.3-.1-.5a2.2,2.2,0,0,0-1.5-2.7C669.5,49.6,659.2,68.2,648.2,75.9ZM664.9,66a40.4,40.4,0,0,0-2.8,4l-1.1.8a2.2,2.2,0,0,0-.6,1.6l-.9,1.1h-1.3a1.2,1.2,0,0,0-1,.2C659.7,71.2,662.2,68.5,664.9,66Z" fill="#fff"/>
            <path d="M695.1,90.9c-1.3,1.2-.4,4,1.5,3.7a41,41,0,0,0,6.1-1.1c7.1,2.8,14.9,3,21.5.2h11a2.2,2.2,0,0,0,1.8-3.5c2-.5,1.9-3.4-.1-4.2l-.9-.3c1.7-.7,2.1-3.6-.2-4.1C721.1,78.5,706.5,80.4,695.1,90.9Z" fill="#fff"/>
            <path d="M789.9,72.1l-1,.4c-17.8-1.8-30,14.6-38,29.1-1.4,2.5,2.4,4.7,3.8,2.2l.2-.4a1.7,1.7,0,0,0,1.6.3h0l-.4.3c-2.4,1.5-.3,5.2,2.2,3.8l4.8-2.9c8.7-5.1,18.5-10.6,22.3-19.6l8.8-8.5a2.2,2.2,0,0,0-1-3.7l-1-.2A1.9,1.9,0,0,0,789.9,72.1Z" fill="#fff"/>
            <path d="M744.7,116.3c-6.8-.6-13.6-.2-20.6,3a2.2,2.2,0,0,0-.7.6c-3.3.7-6.6,1.5-9.9,2.5a2.2,2.2,0,0,0,0,4.2,41.8,41.8,0,0,0,12.5,2.3h.2a102.4,102.4,0,0,0,27.1-1.3,56.3,56.3,0,0,1,7.1.4c1.5.2,2.3-1.5,2.1-2.8l1.8-.6a2.2,2.2,0,0,0-.9-4.3,3.2,3.2,0,0,0-.8-.9,6.7,6.7,0,0,1-1.2-.6,2.1,2.1,0,0,0-2.1-1.9h-2.5A29,29,0,0,0,744.7,116.3Z" fill="#fff"/>
            <path d="M798.3,94.1c-.2.4-.3.9-.5,1.3a2.2,2.2,0,0,0-3,2.6c.4,1.4,1,2.8,1.5,4.3-1.5,12.8,2.2,31.3,14.7,32.7a2.1,2.1,0,0,0,1.5-.5l1,2.7c.9,2.1,4.1.9,4.1-1.1.6-15.9-8.5-28.4-15.4-42C801.4,92.7,799,92.6,798.3,94.1Z" fill="#fff"/>
            <path d="M839.1,156.7a26.9,26.9,0,0,1-3.3,2.6h-1a1.9,1.9,0,0,0-2.4-1l-3.6,1c-10.4.1-20.3,1-30,5.6-2.8,1.4-15.1,6.2-10.1,11.3s20.6.2,26.2-.7c9.2-1.6,17.6-5.3,24-11.8a1.9,1.9,0,0,0,1.6-1.8c.6-.6,1.1-1.3,1.7-2h0l.4-.4C844.1,157.3,840.9,155.1,839.1,156.7Z" fill="#fff"/>
            <path d="M877.3,222.9c.7.7,1.5,1.3,1.6,2.3.5,2.8,4.7,1.7,4.3-1.1a8.2,8.2,0,0,0-2.7-4.3C878.5,217.7,875.3,220.8,877.3,222.9Z" fill="#fff"/>
            <path d="M923.3,168.9c-15.7,11.4-36.6,15.8-48.5,31.7h-.1a31.3,31.3,0,0,0-2,3,1.1,1.1,0,0,0-.3.7,2.5,2.5,0,0,0-.7-1.2h0c2.1-2-1-5.1-3.1-3.1l-.5.5c-10.9-7.2-24.8-5.8-37.6-5.8-2.1,0-2.7,2.3-1.5,3.8,4.8,6.2,13.2,10.2,21.8,11.1,6.9,2.1,13.7,2.6,14.8-2.3l1.6-.8,2.4.5a2.3,2.3,0,0,0,2.8-2.2,2.2,2.2,0,0,0,3.3,2l2.2-1.3c5,1.5,14-.7,17.1-1.7,15.9-5,26.2-16.7,31.5-32.3C927.1,169.7,924.8,167.8,923.3,168.9Zm-27.4,21.5-11.1,6a63.8,63.8,0,0,1,10.9-7.5A2.6,2.6,0,0,0,895.9,190.4Z" fill="#fff"/>
            <path d="M930.3,300.4c-.7,3.2-26.7-.7-30.6-.1A55.6,55.6,0,0,0,887,303h-.8a1.9,1.9,0,0,0-2,1.4c-2.2,1.3-3.6,2.9-3,5.1,1.7,7.3,16.4,7.4,22.3,7.8,10.8.7,24.1-.6,32.7-8a2.1,2.1,0,0,0-.2-3.2h.2a2.2,2.2,0,0,0-1.5-3.8h-.3c0-.2.1-.3.2-.5C935.3,298.8,931,297.7,930.3,300.4Z" fill="#fff"/>
            <path d="M929.6,281.1a1.8,1.8,0,0,0,2.5,1,12.1,12.1,0,0,0,.5,1.8,2.3,2.3,0,0,0,1.5,1.4l-.2.3a2.2,2.2,0,0,0,3.9,2.2c6-8.9,10.6-17.6,13.4-27a36.5,36.5,0,0,0,3.6-13.7,1.9,1.9,0,0,0-1-1.8,70.8,70.8,0,0,0,0-10.3,2.3,2.3,0,0,0-2.8-2.2C928.1,237.2,920.6,261.3,929.6,281.1Zm8.8-37.1a2.1,2.1,0,0,0,.5,1.2l-.8,1.1a57.9,57.9,0,0,0-5.7,6.4A26.1,26.1,0,0,1,938.4,244Z" fill="#fff"/>
            <path d="M929.9,362c-4.5.1-8.4.4-11,.6s-2.9,1.8-1.9,3.3c10.5,15.9,31.2,24.2,49.7,19,2.7-.8,1.7-4.8-.9-4.3a.9.9,0,0,0,.3-.6c2.3-11.3-8.4-15.8-20.5-17.3A41.7,41.7,0,0,0,929.9,362Z" fill="#fff"/>
          </g>
          <g>
            <path d="M464.5,19.2a10.4,10.4,0,0,1,.1,2.6,18.9,18.9,0,0,1-.2,3.2l-.3,1.9c-.2.7-.6,1.5-.9,2.3-2.4,6.7-7.7,15-16.1,24.1S427,71.9,412.9,81.1c-7.1,4.6-14.8,9.2-22.9,13.9l-25.6,14.2c-17.5,10-37.3,20.4-58.1,30.8s-42.3,22-63.9,34.9-43.2,27.3-63,44.4-38.1,36.5-52.9,58.8c-4.1,5.5-7.1,11.2-10.5,16.9-1.6,2.9-3.4,5.6-4.8,8.6l-4.5,8.9-4.3,9-3.9,9.1-3.8,9.2c-1.1,2.7-2.2,6.2-3.3,9.3l-6.6,18.8-3.3,9.4c-1,3.1-1.8,6.2-2.7,9.3-1.7,6.3-3.4,12.4-5.2,18.6s-3.5,12.2-4.7,18.4L65,442c-1.2,6.1-2.8,12-3.6,18.1-1.8,12-3.7,23.8-5.2,35.2s-2.7,22.9-3.6,33.8c-.4,5.4-1.1,10.7-1.3,16s-.5,10.4-.8,15.4-.3,10-.3,14.8v14.1c.7,9.1,1.4,17.9,2,26s2.6,15.6,3.7,22.5a97.8,97.8,0,0,0,2.2,10c.7,3.1,1.5,6.2,2.2,9,2.5,11.6,5.7,20.3,7.5,26.4l2.9,9.3-1.9.7-3.6-9c-2.3-6-6.5-14.5-9.7-26l-2.8-9.1c-.9-3.1-2.1-6.4-2.8-10-1.5-7.1-3.2-14.8-4.9-23s-2-17.1-3.1-26.4c-.1-4.7-.2-9.5-.3-14.5s-.4-10-.1-15.1c.6-20.6,3-42.7,5.5-65.9,1.7-11.6,3.3-23.6,5-35.8.7-6.1,2.2-12.2,3.4-18.4s2.4-12.4,3.7-18.7,2.8-12.6,4.5-18.9,3.3-12.7,5-19.1c.9-3.2,1.7-6.5,2.6-9.6s2.1-6.3,3.2-9.4c2-6.3,4.1-12.6,6.2-19,1.2-3.2,2-6.2,3.3-9.7l3.8-9.5,3.9-9.5c1.4-3.1,2.9-6.2,4.4-9.3l4.4-9.4c1.4-3.1,3.3-6.1,5-9.2,3.5-6,6.7-12.4,10.7-17.8,14.7-23.4,33.5-44.4,53.7-62.6s42.3-33.7,64.1-47.4,43.5-25.6,64.1-36.8,40-21.3,58.3-30.4,35.3-16.6,49.6-24.3S432,54.2,440.6,46.7s14.2-14.8,16.7-19.8a32.4,32.4,0,0,0,2-3.6c.6-1,1.1-1.9,1.6-2.6a11,11,0,0,1,1.7-2.1Z" fill="#fff"/>
            <path d="M410.3,102.6v-1.1c-.2-2.8-4.6-2.5-4.4.4V103C406.1,105.8,410.5,105.5,410.3,102.6Z" fill="#fff"/>
            <path d="M392.7,119.4c2.8-.2,2.5-4.6-.3-4.4S389.9,119.6,392.7,119.4Z" fill="#fff"/>
            <path d="M381.5,101.4c2.8-.2,2.5-4.6-.3-4.4A2.2,2.2,0,0,0,381.5,101.4Z" fill="#fff"/>
            <path d="M381,123.3l1.2,1.1c4.3,3.7,10.1-3,5.8-6.7l-1.2-1C382.5,112.9,376.7,119.6,381,123.3Z" fill="#fff"/>
            <path d="M396.8,130.1c2.8-.2,2.5-4.6-.3-4.4S394,130.3,396.8,130.1Z" fill="#fff"/>
            <path d="M392.1,141.5c2.8-.2,2.5-4.6-.3-4.4A2.2,2.2,0,0,0,392.1,141.5Z" fill="#fff"/>
            <path d="M303.3,105.9c2.2-.2,3.2-1.4,3.1-3.6s-3.6-2.5-4.3-.6S300.8,106.1,303.3,105.9Z" fill="#fff"/>
            <path d="M285.5,103.8c2.8-.2,2.5-4.6-.3-4.4S282.7,104,285.5,103.8Z" fill="#fff"/>
            <path d="M277.7,117.7c8.5-.6,7.5-13.8-1-13.2S269.1,118.3,277.7,117.7Z" fill="#fff"/>
            <path d="M259.2,122.3c2.8-.2,2.5-4.6-.3-4.4S256.4,122.5,259.2,122.3Z" fill="#fff"/>
            <path d="M257.1,108.1c2.8-.2,2.5-4.6-.3-4.4A2.2,2.2,0,0,0,257.1,108.1Z" fill="#fff"/>
            <path d="M246.4,113.3c2.8-.2,2.5-4.6-.3-4.4S243.6,113.5,246.4,113.3Z" fill="#fff"/>
            <path d="M228.3,204.3a6.7,6.7,0,0,0,9.4-.6l1-1.2a6.6,6.6,0,0,0,.1-8.3c1.7-1,1.2-4.2-1.3-4a1.9,1.9,0,0,0-1.9,1.7,6.6,6.6,0,0,0-6.9,1.9l-1,1.2A6.6,6.6,0,0,0,228.3,204.3Z" fill="#fff"/>
            <path d="M219,209.2c2.8-.2,2.5-4.6-.3-4.4S216.2,209.4,219,209.2Z" fill="#fff"/>
            <path d="M205.4,220.1a2.4,2.4,0,0,0,1.5-.7,6,6,0,0,0,6.5,4.5h.5a5.3,5.3,0,0,0-.2,2.5c0,.3-.1.6,0,.8a6.6,6.6,0,0,0,7,6.2,7.4,7.4,0,0,0,5.4-2.5,6.9,6.9,0,0,0,.5-8,9.5,9.5,0,0,0-1.9-2.1,2.2,2.2,0,0,0-.8-4.2h-1.1a2.1,2.1,0,0,0-1.9,2.6h-.5c1-4-1.4-8.9-6.7-8.5h-1.2a6.2,6.2,0,0,0-5.9,5.5,1.7,1.7,0,0,0-1.5-.5C202.3,215.9,202.6,220.3,205.4,220.1Z" fill="#fff"/>
            <path d="M135.2,227.3h2.2c2.8-.2,2.5-4.6-.3-4.4h-2.2C132.1,223.1,132.4,227.5,135.2,227.3Z" fill="#fff"/>
            <path d="M118.9,247.3a2.2,2.2,0,0,0-.3-4.4C115.8,243.1,116.1,247.5,118.9,247.3Z" fill="#fff"/>
            <path d="M106.1,250.7a1.9,1.9,0,0,0-1.1,2v1.1c.3,2.8,4.7,2.5,4.4-.3v-1.1a1.9,1.9,0,0,0-.5-1.1h.4c8.5-.6,7.6-13.8-1-13.2S100.7,248.3,106.1,250.7Z" fill="#fff"/>
            <path d="M108.1,265.7v-2.2c-.2-2.8-4.6-2.5-4.4.3V266A2.2,2.2,0,0,0,108.1,265.7Z" fill="#fff"/>
            <path d="M106.9,233.8H108a2.2,2.2,0,0,0-.3-4.4h-1.1C103.8,229.6,104.1,234,106.9,233.8Z" fill="#fff"/>
            <path d="M118.5,332.1a2.2,2.2,0,0,0,2.3,2.4,1.9,1.9,0,0,0,1.8-1.5c4.4-1.1,4-7.7-.4-8.4a2,2,0,0,0-2.3-2.2,2.2,2.2,0,0,0-1.6,3.4A4.8,4.8,0,0,0,118.5,332.1Z" fill="#fff"/>
            <path d="M117.9,341.3a2.2,2.2,0,0,0-.3-4.4C114.8,337.1,115.1,341.5,117.9,341.3Z" fill="#fff"/>
            <path d="M105.3,349.9c2.8-.2,2.5-4.6-.3-4.4S102.5,350.1,105.3,349.9Z" fill="#fff"/>
            <path d="M58.5,363c1.8-1,1.3-4.3-1.2-4.1s-3.2,1.4-3,3.5S57.8,365,58.5,363Z" fill="#fff"/>
            <path d="M40.3,383.3c2.8-.2,2.5-4.6-.3-4.4A2.2,2.2,0,0,0,40.3,383.3Z" fill="#fff"/>
            <path d="M33,404.8c2.8-.2,2.5-4.6-.3-4.4A2.2,2.2,0,0,0,33,404.8Z" fill="#fff"/>
            <path d="M27.2,431.8c2.8-.2,2.5-4.6-.3-4.4A2.2,2.2,0,0,0,27.2,431.8Z" fill="#fff"/>
            <path d="M31.5,443.4c.9,2.3,4.7.9,4-1.7a3.2,3.2,0,0,0-3.4-2.5C29.6,439.2,29.6,442.6,31.5,443.4Z" fill="#fff"/>
            <path d="M21.4,413.4a2.2,2.2,0,0,0,.6-4.3c-.9-1.8-4.3-1.3-4.1,1.2S19.3,413.5,21.4,413.4Z" fill="#fff"/>
            <path d="M22.1,392.3a2.2,2.2,0,0,0-.3-4.4C19,388.2,19.3,392.5,22.1,392.3Z" fill="#fff"/>
            <path d="M31.1,378.4c2.8-.2,2.5-4.6-.3-4.4A2.2,2.2,0,0,0,31.1,378.4Z" fill="#fff"/>
            <path d="M34.5,364.9a2.2,2.2,0,0,0-.3-4.4C31.4,360.7,31.7,365.1,34.5,364.9Z" fill="#fff"/>
            <path d="M76.8,507.8c2.9-.2,2.5-4.6-.3-4.4S74,508,76.8,507.8Z" fill="#fff"/>
            <path d="M72.2,520.3c2.8-.2,2.5-4.6-.3-4.4A2.2,2.2,0,0,0,72.2,520.3Z" fill="#fff"/>
            <path d="M65.3,531.8c2.8-.2,2.5-4.6-.3-4.4A2.2,2.2,0,0,0,65.3,531.8Z" fill="#fff"/>
            <path d="M83.2,519.5c2.8-.2,2.5-4.6-.3-4.4A2.2,2.2,0,0,0,83.2,519.5Z" fill="#fff"/>
            <path d="M74.4,535.6h1.4c2.8-.2,2.5-4.6-.3-4.4H74.1A2.2,2.2,0,0,0,74.4,535.6Z" fill="#fff"/>
            <path d="M29.5,562.9c-2.6,2.4-1.4,8.1,3.2,7.7h.5a57.7,57.7,0,0,0-.8,5.8c-5.9,2-5.3,11.4.7,12.7l.3,1.8c2.4,11.9,10.9,21.3,15.8,32.1,3.9,8.7,7.6,17.6,11.5,26.3,1.5,3.6,3.3,10.6,6.9,12.8s4.3-2.5,1.9-3.9-2.9-4.4-4.4-8.2a2.7,2.7,0,0,0,.9,0,5.4,5.4,0,0,0,5-4.7,4.5,4.5,0,0,0-3.5-5.2,4.6,4.6,0,0,0-4.8,2.5c0,.1-.2.2-.2.3-.6-1.5-1.1-2.8-1.4-3.7a30.9,30.9,0,0,1-1.4-3.2h.9a5.7,5.7,0,0,0,3.2-8.9,4.5,4.5,0,0,0-6.1-1.2,4.9,4.9,0,0,0-1.6,1.9c-1.9-4.4-3.9-8.9-6-13.2-4.9-9.6-9.9-17.2-12.1-26.1,4.5-2.6,3.9-10.3-1.2-12,.1-1.3.2-2.6.4-3.9,2.3-16.4,12.5-29.4,20.7-43.1a61.8,61.8,0,0,0,3.9-7.7c3.8.6,8.1-1.8,7.8-6.8l-.2-2.2a6,6,0,0,0-3.9-5.4,58.9,58.9,0,0,0,0-8.4,4.1,4.1,0,0,0,4.2,2.8c4-.3,4.8-4.6,3.1-7.1l.9.2c2.8-.3,2.5-4.7-.3-4.4a2.1,2.1,0,0,0-1.8,3.1,4.1,4.1,0,0,0-2.5-.6,3.8,3.8,0,0,0-3.8,3.4v-.2a57.5,57.5,0,0,0-2.6-10.5,3.9,3.9,0,0,0,3.8,1.9c5.7-.4,5.1-9.2-.6-8.8-3,.2-4.2,2.7-3.9,5-3.6-9.8-9-19.3-12.7-28.5-7.9-19.8-7.5-38.7-.7-56.1,3.7-1.2,4.9-5.2,3.9-8.5a105.4,105.4,0,0,1,16.2-22.3c11.4-12.1,26.2-22.6,35.7-36.3a6.5,6.5,0,0,0,2.1,1.6,2.2,2.2,0,0,0,2.3,2.8,2.1,2.1,0,0,0,1.9-2.4c6.8-1.5,6.3-11.8-.2-13a39.7,39.7,0,0,0,2-5.8,6.4,6.4,0,0,0,3.6.8,6.8,6.8,0,0,0,6.2-7.1l-.3-1.6a2.3,2.3,0,0,0-1.1-2.3,7.2,7.2,0,0,0-6.6-3.2c.6-10,.4-19.8,2.8-29.7,3.5-14.2,13.1-26,24.5-34.7,15.5-11.7,34.4-14.9,52.2-21.1l-.6.4a4.5,4.5,0,0,0,.5,6.3c1.7,1.2,3.6,2.2,5.8,1.5a5,5,0,0,0,3.6-4.2,4.7,4.7,0,0,0-3.6-5.2,4.2,4.2,0,0,0-2.2.3h-.8a103.6,103.6,0,0,0,10.8-4.7c20.2-10.3,29.7-28.9,40.2-47.9,12.1-21.8,29.5-39.6,54-46.3,16.7-4.6,33.7-1.2,50.6-.2,5.2.2,10.6.3,16,0-1.6,2.7-.2,7.2,3.9,6.9h1.1c4.2-.3,4.9-5.2,2.7-7.5a60.9,60.9,0,0,0,14.7-3.8,6.1,6.1,0,0,0,6.4,4.1,6.9,6.9,0,0,0,3.3-1.2,2.1,2.1,0,0,0,2.2,1.9,2.2,2.2,0,0,0-.2-4.4,7.1,7.1,0,0,0-1.1-7.5,23.1,23.1,0,0,0,5.2-8,6.2,6.2,0,0,0,4.8,1.6l2.2-.2c8.5-.6,7.6-13.8-1-13.2l-2.2.2a5.8,5.8,0,0,0-1.8.4,49.3,49.3,0,0,0-.4-6.5c-.4-2.8-4.8-2.5-4.4.3,1.5,10.9-1,18.4-6,23.4h-1.6a6,6,0,0,0-5.8,5.1c-18.3,8.6-50.4,2.5-67.9,1.8a76.1,76.1,0,0,0-22.4,2.8,5.8,5.8,0,0,0,0-3.9,6.7,6.7,0,0,0-8.4-4.2c-.4.2-2.2.6-.3.3-3.6.6-6.4,3.3-6.1,7.1a7.1,7.1,0,0,0,2.9,5.1A84,84,0,0,0,271,127a12.7,12.7,0,0,0,.5-3.4,4.5,4.5,0,0,0-2-3.3,4.1,4.1,0,0,0,.5-2.1c-.2-2.5-3.6-2.5-4.3-.6a2.2,2.2,0,0,0-.9,2.8,3.6,3.6,0,0,0-2,3,4.6,4.6,0,0,0-.9,4.2l.2.3-1.4-.2c-5.5.4-5,8.5,0,8.7-15.1,16.8-21.9,39-36.8,56-17,19.2-41.9,21.2-64.3,30.1A89.3,89.3,0,0,0,134,238.1c1.5-4-.8-9.5-6.4-9.1h-1.1l-1.3.2c-1-1.8-4.3-1.2-4.1,1.2v1.1a2.5,2.5,0,0,1,.2.7c-2.1,4.1.2,10.4,6.1,9.9h1.1l1.6-.3a71.9,71.9,0,0,0-10.8,14.2,4.1,4.1,0,0,0-4.4-3c-5.6.4-5,9.2.7,8.8l.8-.2a37.8,37.8,0,0,0-1.7,3.5c-4,10-4.5,21.1-4.8,31.8-.1,2.6-.3,5-.6,7.3a6.7,6.7,0,0,0-1.4,4.5,5.8,5.8,0,0,0,.4,1.9,55.8,55.8,0,0,1-4.8,13.7h0a67.6,67.6,0,0,1-10.2,14.5C78.7,355.4,60.2,368,49,386.7a6,6,0,0,0-3-.5c-7.1.5-7.6,9.7-2.7,12.4-.4,1.1-.8,2.1-1.1,3.1s-.3,1.2-.5,1.8a4.2,4.2,0,0,0-3.4-1.3c-5.7.4-5,9.2.6,8.8a2,2,0,0,0,1.1-.3,70.4,70.4,0,0,0-1,13.6h-.2c-5.7.4-5.1,9.2.6,8.8h.2c1.7,13.6,6.6,26.9,12.6,40.1,5.3,11.6,9.4,22.4,8.5,33.9a6.2,6.2,0,0,0-4.5,6.6l.2,2.2a6.2,6.2,0,0,0,1.4,3.7,19.5,19.5,0,0,1-.8,2.2c-6.2,13.7-16.3,24.8-21.4,39.2l-.3,1.1a6.5,6.5,0,0,0-2.1-.4H32.1a6.9,6.9,0,0,0-1.7.5,2.5,2.5,0,0,0,.5-1.5v-1.1c-.2-2.8-4.6-2.5-4.4.3v1.1A2.1,2.1,0,0,0,29.5,562.9Z" fill="#fff"/>
            <path d="M21.1,579.2a2.2,2.2,0,0,0-.3-4.4C18,575,18.3,579.4,21.1,579.2Z" fill="#fff"/>
            <path d="M22.9,603.4a2,2,0,0,0,1.9-2.2,4.2,4.2,0,0,0,5.3-.7h.3c2.4-.5,3.5-3.5,2.8-5.6s-3.3-3.3-5.6-2.8a8.5,8.5,0,0,0-4.1,2.6,3.7,3.7,0,0,0-.7,4.3h-.2A2.2,2.2,0,0,0,22.9,603.4Z" fill="#fff"/>
            <path d="M32.6,615.9a1.9,1.9,0,0,0,1.8-1.2,3.7,3.7,0,0,0,3.8,1.9c5.7-.4,5-9.2-.6-8.8a4.1,4.1,0,0,0-3.9,4.1,2.9,2.9,0,0,0-1.4-.4C29.5,611.7,29.8,616.1,32.6,615.9Z" fill="#fff"/>
            <path d="M32,622.6c2.8-.2,2.5-4.6-.3-4.4A2.2,2.2,0,0,0,32,622.6Z" fill="#fff"/>
            <path d="M2.3,593.8c2.8-.2,2.5-4.6-.3-4.4S-.5,594,2.3,593.8Z" fill="#fff"/>
            <path d="M18.6,590.4c2.5-.1,2.6-3.5.6-4.3a2.2,2.2,0,0,0-4.1,1.3A3,3,0,0,0,18.6,590.4Z" fill="#fff"/>
            <path d="M68,631.1c2.8-.2,2.5-4.6-.4-4.4S65.1,631.3,68,631.1Z" fill="#fff"/>
            <path d="M72,641.9c2.9-.3,2.6-4.7-.3-4.4S69.2,642.1,72,641.9Z" fill="#fff"/>
            <path d="M74.1,655c2.8-.2,2.5-4.6-.3-4.4A2.2,2.2,0,0,0,74.1,655Z" fill="#fff"/>
            <path d="M78.2,666.8h.9c2.8-.2,2.5-4.6-.3-4.4h-.9C75.1,662.6,75.4,667,78.2,666.8Z" fill="#fff"/>
            <path d="M48.4,373.9h1.1c8.6-.6,7.6-13.8-.9-13.2H47.5C39,361.3,39.9,374.5,48.4,373.9Z" fill="#fff"/>
            <path d="M62.1,549.7c8.5-.6,7.6-13.8-.9-13.2S53.6,550.3,62.1,549.7Z" fill="#fff"/>
            <path d="M237.4,218.9c5.7-.4,5-9.2-.7-8.8S231.7,219.3,237.4,218.9Z" fill="#fff"/>
            <path d="M250.3,183.7c5.7-.4,5.1-9.2-.6-8.8S244.7,184.1,250.3,183.7Z" fill="#fff"/>
            <path d="M151.5,223.9c3.4-.2,5.3-2.5,5.1-5.8s-6.1-5.1-8.1-1.9S146.9,224.3,151.5,223.9Z" fill="#fff"/>
            <path d="M128,219v-1.1c-.4-5.7-9.2-5-8.8.6v1.1C119.6,225.3,128.4,224.7,128,219Z" fill="#fff"/>
            <path d="M127.6,321.8l2.2-.2c5.7-.4,5-9.2-.6-8.7H127C121.3,313.4,121.9,322.2,127.6,321.8Z" fill="#fff"/>
            <path d="M126.9,299.6a9,9,0,0,0,1.4-2,4.4,4.4,0,0,0-1.1-5.3,5.1,5.1,0,0,0-4-1.1,4.1,4.1,0,0,0-3.9,4.8C118.8,299.7,123.8,303.2,126.9,299.6Z" fill="#fff"/>
            <path d="M59.8,360.9c.8,2.5,3.3,3.3,5.6,2.8a6.9,6.9,0,0,0,5-5.7c.2-2.4-1-4.7-3.6-5.2a4.7,4.7,0,0,0-4.9,2.9A4.5,4.5,0,0,0,59.8,360.9Z" fill="#fff"/>
            <path d="M250.2,197c5.7-.4,5-9.2-.7-8.8S244.5,197.4,250.2,197Z" fill="#fff"/>
            <path d="M45.9,584.6c5.2,13.9,17.4,22.1,32.3,20.3,1.8-.2,3-2.7,1.3-3.8-10.2-7.1-18.1-17.4-29.7-22.6-2.3-1-4,1.9-2.7,3.5A1.9,1.9,0,0,0,45.9,584.6Z" fill="#fff"/>
            <path d="M31.9,643l.6,1.1a2.3,2.3,0,0,0,3.3,1.2c8.4-4.4,15.6-15.9,13-25.6l.3-.5a1.7,1.7,0,0,0,.1-1.8A21.4,21.4,0,0,0,50,613c.2-1.9-2.5-3.8-3.8-1.8-2.8,4.1-4.2,9-5.7,13.7-3.1,5.1-6.2,10.3-9.2,15.5A2.2,2.2,0,0,0,31.9,643Z" fill="#fff"/>
            <path d="M68.6,717.2c.3,2.1,2.4,2.6,3.9,1.3,10.3-9.2,9.8-19.2,5-28.6A15.3,15.3,0,0,0,70,678.8c-1.7-2-3.4-4-5.2-5.9s-2.9-.5-3.4.8a2,2,0,0,0-1.3,2.2v.2C49,688.3,66.9,704.7,68.6,717.2Zm-7.5-33.1c.2,1,.5,1.9.7,2.8a66.1,66.1,0,0,0,2.2,7.6l1.2,4.6C62.6,693.9,60.5,688.7,61.1,684.1Z" fill="#fff"/>
            <path d="M13.2,551.5a20.2,20.2,0,0,0,7,4.9,1.7,1.7,0,0,0,1.5.6,24.7,24.7,0,0,0,20.9-1.7c1.9-1.2.9-3.5-.7-4a1.4,1.4,0,0,0,.2-.7l2.9-.8c2.7-1,1.3-4.8-1.4-4.2a114,114,0,0,1-15.4,2.1H20a2.5,2.5,0,0,0-1.9,0H14.5C12.4,547.7,12,550.2,13.2,551.5Z" fill="#fff"/>
            <path d="M23.6,490.6l3.6-.5a2.1,2.1,0,0,0,3.8,0l.9-1.7C42.2,483,48.1,469.2,46.7,458a2.1,2.1,0,0,0-2.2-1.9l.6-1.3c1.1-2.3-2-4.2-3.7-2.4-9.3,10-13.9,23-19.9,35A2.2,2.2,0,0,0,23.6,490.6Z" fill="#fff"/>
            <path d="M65.5,453.3c1.1,1.4,3.7,1.3,4-.8a40.1,40.1,0,0,0,.1-8.5,2.1,2.1,0,0,0,.6-3.6,8,8,0,0,0-1.3-1.3A34,34,0,0,0,61,422.6a10.2,10.2,0,0,0-5.3-4,20.5,20.5,0,0,0-12-2.4l-.4.2a2.3,2.3,0,0,0-2.7,1.7C37.6,434.2,56.9,442.9,65.5,453.3ZM54.3,437.5a42.3,42.3,0,0,0,4.2,2.5l.9,1a2.5,2.5,0,0,0,1.6.5l1.2.7h0c0,.5.1,1,.1,1.4a3,3,0,0,0,.2,1C59.8,442.3,56.9,440,54.3,437.5Z" fill="#fff"/>
            <path d="M76.8,405.5c1.3,1.2,4,.1,3.6-1.9a44.4,44.4,0,0,0-1.6-6,27.8,27.8,0,0,0-1.5-21.4l-.7-11a2.2,2.2,0,0,0-3.6-1.5c-.7-1.9-3.5-1.6-4.2.4-.1.3-.1.6-.2.9-.9-1.6-3.8-1.8-4.1.5C62.5,380.5,65.4,394.9,76.8,405.5Z" fill="#fff"/>
            <path d="M50.7,312.4a4.1,4.1,0,0,1,.5.9c-.4,17.9,16.9,28.8,31.9,35.7,2.6,1.2,4.5-2.8,1.9-4h-.3a2.2,2.2,0,0,0,.2-1.6.1.1,0,0,1,.1-.1.8.8,0,0,0,.2.4c1.7,2.3,5.3,0,3.7-2.4s-2.2-3.2-3.3-4.7c-5.8-8.2-12-17.5-21.2-20.7-3.1-2.6-6.2-5.3-9.2-8.1a2.2,2.2,0,0,0-3.6,1.3,3.4,3.4,0,0,0-.1,1A2,2,0,0,0,50.7,312.4Z" fill="#fff"/>
            <path d="M98.3,354c-.1,6.9.9,13.6,4.6,20.4a1.7,1.7,0,0,0,.6.6c.9,3.2,2,6.4,3.2,9.6a2.2,2.2,0,0,0,4.3-.3,38.7,38.7,0,0,0,1.3-12.6.3.3,0,0,0,.1-.2,101.3,101.3,0,0,0-3.4-26.9,56.1,56.1,0,0,1-.2-7.1c.1-1.6-1.6-2.2-2.9-1.9s-.5-1.1-.7-1.7a2.2,2.2,0,0,0-4.2,1.2,2,2,0,0,0-.8.8,3.5,3.5,0,0,0-.5,1.3,2,2,0,0,0-1.8,2.2c.1.8.1,1.7.2,2.5A29,29,0,0,0,98.3,354Z" fill="#fff"/>
            <path d="M72.1,302.3l1.3.4a2.2,2.2,0,0,0,2.8,2.8,30.5,30.5,0,0,0,4.1-1.9c13,.5,31.1-4.6,31.5-17.1a2.3,2.3,0,0,0-.5-1.5l2.5-1.2c2.1-1,.6-4.1-1.4-4-15.9.6-27.6,10.7-40.6,18.7A2.2,2.2,0,0,0,72.1,302.3Z" fill="#fff"/>
            <path d="M131.3,256.8a28.1,28.1,0,0,1,2.9,3.1c0,.3.1.7.1,1a2,2,0,0,0-.9,2.5c.5,1.2.9,2.3,1.3,3.5.9,10.3,2.5,20.2,7.9,29.5,1.6,2.6,7.3,14.5,12,9.1s-1.3-20.5-2.7-26c-2.3-9.1-6.6-17.2-13.6-23a1.9,1.9,0,0,0-1.9-1.5l-2.1-1.5h-.1l-.5-.4C131.5,251.8,129.6,255.2,131.3,256.8Z" fill="#fff"/>
            <path d="M194.4,213.6c.6-.7,1.2-1.6,2.1-1.8,2.8-.6,1.4-4.8-1.4-4.2s-2.9,1.8-4.1,3.1S192.5,215.7,194.4,213.6Z" fill="#fff"/>
            <path d="M137.1,171.9c12.5,14.8,18.5,35.3,35.3,46h.1a19.2,19.2,0,0,0,3.1,1.8,1,1,0,0,0,.7.2,2.1,2.1,0,0,0-1.1.8.1.1,0,0,0-.1.1.1.1,0,0,1-.1-.1c-2.2-1.9-5.1,1.5-2.9,3.3l.5.6c-6.3,11.4-3.8,25.1-2.8,37.8.1,2.1,2.5,2.5,3.8,1.3,5.9-5.3,9.3-14,9.4-22.6,1.6-7,1.6-13.9-3.4-14.6l-.9-1.5.3-2.5a2.4,2.4,0,0,0-2.4-2.6,2.2,2.2,0,0,0,1.7-3.4l-1.4-2.1c1.1-5.1-1.8-13.9-3-16.9-6.3-15.5-18.7-24.9-34.6-29C137.5,168.1,135.8,170.5,137.1,171.9Zm23.4,25.7,6.8,10.6a62.9,62.9,0,0,1-8.2-10.3A2.2,2.2,0,0,0,160.5,197.6Z" fill="#fff"/>
            <path d="M267.6,154.8c3.2.5,1.3,26.7,2.2,30.6a65.3,65.3,0,0,0,3.7,12.4v.8a2,2,0,0,0,1.5,1.9c1.4,2.1,3.2,3.3,5.3,2.6,7.2-2.3,6.2-16.9,6.1-22.8-.2-10.9-2.5-24.1-10.5-32a2,2,0,0,0-3.2.4v-.2c-1.5-1.4-3.7,0-3.7,1.8v.3l-.6-.2C265.6,150,264.8,154.3,267.6,154.8Z" fill="#fff"/>
            <path d="M248.4,157a1.8,1.8,0,0,0,.8-2.5l1.8-.7a2.3,2.3,0,0,0,1.2-1.6h.3a2.2,2.2,0,0,0,1.9-3.9c-9.3-5.4-18.4-9.3-27.9-11.3a34.2,34.2,0,0,0-14-2.6,2,2,0,0,0-1.7,1.1,94.7,94.7,0,0,0-10.3.8,2.3,2.3,0,0,0-1.9,3C204.7,161.9,229.3,167.5,248.4,157Zm-37.7-5.9a2.4,2.4,0,0,0,1.1-.6l1.2.7c2.2,1.8,4.4,3.6,6.8,5.2A25.3,25.3,0,0,1,210.7,151.1Z" fill="#fff"/>
            <path d="M329.1,150.5c.4,4.5,1,8.4,1.4,10.9s2,2.8,3.4,1.7C349,151.4,355.6,130,349,112c-.9-2.6-4.9-1.3-4.2,1.2l-.6-.2c-11.5-1.5-15.1,9.6-15.7,21.8A39.5,39.5,0,0,0,329.1,150.5Z" fill="#fff"/>
          </g>
          <g>
            <path d="M1.2,549.6a13.8,13.8,0,0,1,2.7.1l3.1.6,1.9.6L11,552c6.5,3.2,14.1,9.4,22.2,18.8s16.2,22,23.7,37.1c3.8,7.6,7.5,15.8,11.2,24.4l11.1,27c8,18.5,16.1,39.4,24.1,61.2s17,44.6,27.3,67.5,22.3,46,37,67.7,31.9,42,52.3,59.2c5.1,4.7,10.4,8.3,15.7,12.3a89,89,0,0,0,7.9,5.8l8.4,5.4c2.8,1.8,5.6,3.7,8.4,5.4l8.7,4.9,8.6,4.8c2.6,1.4,6,2.9,8.9,4.4l17.9,8.7,9,4.3c2.9,1.3,6,2.5,9,3.7l17.8,7.3c5.9,2.4,11.8,4.9,17.8,6.7l17.8,6.1c5.9,1.9,11.6,4.1,17.5,5.6l34.5,9.2c11.3,2.6,22.4,5.3,33.1,7.4,5.3,1,10.6,2.3,15.7,3.1l15.3,2.5c4.9,1,9.8,1.5,14.6,2l14,1.6,26.1,1,22.8-1.1a80.3,80.3,0,0,0,10.1-1l9.3-1.2c11.7-1.2,20.8-3.4,27-4.4l9.6-1.9.5,2-9.4,2.6c-6.2,1.6-15.1,4.7-26.9,6.6l-9.3,1.8c-3.3.6-6.7,1.3-10.3,1.6l-23.5,2.2H520l-14.4-1.3c-4.9-.4-10-.8-15.1-1.7-20.3-2.9-42.1-7.7-64.8-12.9l-35-9.1c-6-1.3-11.9-3.5-17.9-5.4l-18.1-5.8c-6.2-1.8-12.2-4.2-18.3-6.6L318,984.4c-3.1-1.2-6.3-2.4-9.3-3.7l-9-4.2-18.1-8.4c-3.1-1.5-5.9-2.7-9.2-4.4l-9.1-4.8-9-4.9-8.8-5.4-8.7-5.5c-3-1.8-5.7-4-8.6-6-5.6-4.2-11.5-8.1-16.5-12.6-21.5-17.4-40.2-38.4-56-60.6s-28.7-45.8-39.8-69S95.3,748.7,86.6,727,70,684.8,63,665.6s-12.4-37-18.5-52.1-12.2-27.7-18.7-37.1-13-15.7-17.7-18.8c-1.1-.9-2.3-1.7-3.3-2.4a20.1,20.1,0,0,1-2.5-1.9,13.2,13.2,0,0,1-1.9-1.9Z" fill="#fff"/>
            <path d="M78,612.9H76.9c-2.9-.1-3.1,4.3-.2,4.4h1.1C80.6,617.5,80.8,613.1,78,612.9Z" fill="#fff"/>
            <path d="M92.6,632.3c.1-2.8-4.3-3-4.4-.2S92.5,635.2,92.6,632.3Z" fill="#fff"/>
            <path d="M73.5,641.4c.1-2.8-4.3-3-4.5-.2S73.3,644.3,73.5,641.4Z" fill="#fff"/>
            <path d="M95.2,644.4l1.2-1.1c4.1-3.8-1.8-10.3-6-6.5l-1.2,1.1C85.1,641.7,91,648.2,95.2,644.4Z" fill="#fff"/>
            <path d="M103.8,629.5c.1-2.9-4.3-3-4.5-.2S103.6,632.3,103.8,629.5Z" fill="#fff"/>
            <path d="M114.5,635.5c.2-2.9-4.3-3.1-4.4-.2S114.4,638.3,114.5,635.5Z" fill="#fff"/>
            <path d="M69,719.6c.1-2.2-1-3.3-3.2-3.5s-2.9,3.3-1,4.2S68.9,722.1,69,719.6Z" fill="#fff"/>
            <path d="M65,737.1c.1-2.9-4.3-3.1-4.5-.2S64.8,739.9,65,737.1Z" fill="#fff"/>
            <path d="M77.8,746.4c.4-8.5-12.9-9.1-13.2-.5S77.4,755,77.8,746.4Z" fill="#fff"/>
            <path d="M80.3,765.3c.1-2.8-4.3-3-4.4-.2S80.2,768.1,80.3,765.3Z" fill="#fff"/>
            <path d="M65.9,765.8c.2-2.9-4.3-3-4.4-.2S65.8,768.6,65.9,765.8Z" fill="#fff"/>
            <path d="M69.9,777c.1-2.9-4.3-3-4.4-.2S69.7,779.8,69.9,777Z" fill="#fff"/>
            <path d="M158.3,805.3a6.7,6.7,0,0,0,.4-9.3l-1.1-1.2a6.7,6.7,0,0,0-8.2-1.1,2.2,2.2,0,0,0-4.2.9,2.2,2.2,0,0,0,1.5,2.1,6.7,6.7,0,0,0,1.2,7.1l1,1.1A6.6,6.6,0,0,0,158.3,805.3Z" fill="#fff"/>
            <path d="M162,815.1c.1-2.8-4.3-3-4.4-.2S161.9,818,162,815.1Z" fill="#fff"/>
            <path d="M171.3,829.9a2.5,2.5,0,0,0-.5-1.6,6.1,6.1,0,0,0,5.3-5.9v-.5a7,7,0,0,0,2.5.5h.8a6.6,6.6,0,0,0,6.8-6.3,7.1,7.1,0,0,0-1.8-5.6,6.8,6.8,0,0,0-7.9-1.4,6.9,6.9,0,0,0-2.2,1.6c-.4-2.4-4.3-2.4-4.4.3v1.1a2.1,2.1,0,0,0,2.3,2.2,4.3,4.3,0,0,0-.1.5c-3.8-1.4-9,.4-9.2,5.7v1.2a6.1,6.1,0,0,0,4.8,6.4,1.8,1.8,0,0,0-.7,1.5C166.8,832.5,171.2,832.7,171.3,829.9Z" fill="#fff"/>
            <path d="M170.5,900.5v-2.2c.1-2.9-4.3-3.1-4.4-.2v2.2C166,903.1,170.4,903.3,170.5,900.5Z" fill="#fff"/>
            <path d="M188.5,918.9c.1-2.9-4.3-3.1-4.4-.2S188.4,921.7,188.5,918.9Z" fill="#fff"/>
            <path d="M190.4,932.1a2.1,2.1,0,0,0,1.9,1.3h1.1c2.8.1,3-4.3.2-4.4h-1.1a2.1,2.1,0,0,0-1.2.3.6.6,0,0,1,.1-.4c.3-8.5-12.9-9.1-13.3-.5S187.4,937.1,190.4,932.1Z" fill="#fff"/>
            <path d="M205.6,931.7h-2.2c-2.9-.1-3.1,4.3-.2,4.5h2.2C208.2,936.3,208.4,931.9,205.6,931.7Z" fill="#fff"/>
            <path d="M173.7,929.3v-1.1c.2-2.9-4.2-3.1-4.4-.2v1.1C169.2,931.9,173.6,932.1,173.7,929.3Z" fill="#fff"/>
            <path d="M272.7,929a2.2,2.2,0,0,0,2.6-2,2.1,2.1,0,0,0-1.2-2c-.6-4.5-7.3-4.8-8.4-.5a2,2,0,0,0-2.5,2,2.2,2.2,0,0,0,3.3,1.9A4.6,4.6,0,0,0,272.7,929Z" fill="#fff"/>
            <path d="M281.8,930.6c.1-2.9-4.3-3-4.4-.2S281.6,933.4,281.8,930.6Z" fill="#fff"/>
            <path d="M288.9,944.1c.1-2.8-4.3-3-4.4-.2S288.8,947,288.9,944.1Z" fill="#fff"/>
            <path d="M296.6,992.1c-.8-1.9-4.2-1.8-4.3.7s1,3.4,3.2,3.5S298.4,993,296.6,992.1Z" fill="#fff"/>
            <path d="M314.7,1012.5c.1-2.8-4.3-3-4.4-.2S314.5,1015.4,314.7,1012.5Z" fill="#fff"/>
            <path d="M335.2,1022.2c.1-2.8-4.3-3-4.4-.1S335.1,1025.1,335.2,1022.2Z" fill="#fff"/>
            <path d="M361.3,1031.1c.1-2.9-4.3-3.1-4.4-.2S361.2,1033.9,361.3,1031.1Z" fill="#fff"/>
            <path d="M373.3,1028.1c2.4-.7,1.5-4.6-1.2-4.2a3.3,3.3,0,0,0-2.9,3.1C368.9,1029.5,372.3,1029.9,373.3,1028.1Z" fill="#fff"/>
            <path d="M342.4,1034.7c.1-2.5-3.2-3-4.2-1.1s-1.7,4.2.8,4.2S342.3,1036.9,342.4,1034.7Z" fill="#fff"/>
            <path d="M321.6,1031.6c.1-2.9-4.3-3-4.4-.2S321.4,1034.4,321.6,1031.6Z" fill="#fff"/>
            <path d="M308.8,1021.1c.1-2.8-4.3-3-4.4-.2S308.7,1024,308.8,1021.1Z" fill="#fff"/>
            <path d="M295.8,1016.1c.1-2.8-4.3-3-4.5-.1S295.6,1019,295.8,1016.1Z" fill="#fff"/>
            <path d="M442.5,990.4c.1-2.8-4.3-3-4.4-.2S442.4,993.3,442.5,990.4Z" fill="#fff"/>
            <path d="M454.4,996.4c.1-2.8-4.3-3-4.4-.1S454.2,999.3,454.4,996.4Z" fill="#fff"/>
            <path d="M465.1,1004.6c.1-2.8-4.3-3-4.5-.2S464.9,1007.5,465.1,1004.6Z" fill="#fff"/>
            <path d="M454.8,985.4c.2-2.8-4.2-3-4.4-.2S454.7,988.3,454.8,985.4Z" fill="#fff"/>
            <path d="M469.8,996v-1.4c.1-2.8-4.3-3-4.4-.2v1.4C465.3,998.7,469.7,998.8,469.8,996Z" fill="#fff"/>
            <path d="M491.9,1043.7c2.1,2.9,7.8,2.3,8-2.3v-.5a39.5,39.5,0,0,0,5.7,1.4c1.3,6.2,10.7,6.6,12.7.8h1.8c12.1-1,22.4-8.4,33.7-12,9.1-2.9,18.3-5.6,27.5-8.4,3.7-1.2,10.9-2.2,13.5-5.5s-2-4.5-3.7-2.3-4.7,2.4-8.7,3.5a2.9,2.9,0,0,0,.2-.9,5.7,5.7,0,0,0-4.2-5.6,4.5,4.5,0,0,0-5.5,2.9,4.7,4.7,0,0,0,1.9,5.1l.3.3-3.8.9-3.4,1.1a3.3,3.3,0,0,0,0-1,5.6,5.6,0,0,0-8.5-4.1,4.5,4.5,0,0,0-1.9,5.9,4.9,4.9,0,0,0,1.8,1.7c-4.6,1.4-9.3,2.9-13.9,4.6-10,3.7-18.1,7.8-27.2,9-2.1-4.8-9.9-5.1-12.1-.3a30.1,30.1,0,0,1-3.9-.8c-15.9-4.1-27.7-15.7-40.3-25.4a65.4,65.4,0,0,0-7.3-4.8c1-3.7-.9-8.3-5.8-8.5h-2.2a6.2,6.2,0,0,0-5.9,3.3,56.8,56.8,0,0,0-8.4-.9,4.1,4.1,0,0,0,3.3-4c.2-3.9-4-5.2-6.6-3.8a2.4,2.4,0,0,0,.2-.8c.1-2.9-4.3-3.1-4.4-.2a2.2,2.2,0,0,0,2.9,2.1,3.7,3.7,0,0,0-.9,2.4,4.2,4.2,0,0,0,2.9,4.2h-.1a56.1,56.1,0,0,0-10.7,1.4,4.1,4.1,0,0,0,2.3-3.6c.2-5.7-8.6-6-8.8-.3a4.2,4.2,0,0,0,4.5,4.4c-10.1,2.4-20.2,6.7-29.8,9.3-20.5,5.6-39.3,3.1-55.8-5.7-.8-3.8-4.6-5.4-8-4.8A101,101,0,0,1,303,982.6c-10.7-12.7-19.5-28.6-32-39.6a5.8,5.8,0,0,0,1.8-2,2.2,2.2,0,0,0,3.1-1.8,2.2,2.2,0,0,0-2.2-2.3c-.7-6.9-11-7.6-12.9-1.2a48.3,48.3,0,0,0-5.6-2.7,6.2,6.2,0,0,0,1.2-3.5,6.6,6.6,0,0,0-6.3-6.9h-1.7a2.3,2.3,0,0,0-2.4.8,7.4,7.4,0,0,0-3.9,6.2c-9.8-1.7-19.6-2.6-29.2-6.2-13.7-5.1-24.3-15.9-31.6-28.3-9.9-16.7-10.9-35.8-15.1-54.2l.4.6c1.5,1.7,4.6,2.1,6.2.3s2.7-3.4,2.2-5.7a5,5,0,0,0-3.8-4,4.6,4.6,0,0,0-5.5,2.9,5.9,5.9,0,0,0,0,2.3,2.4,2.4,0,0,1-.2.8,91.5,91.5,0,0,0-3.4-11.3c-7.9-21.2-25.4-32.8-43-45.4-20.3-14.5-36-33.8-39.9-58.9-2.6-17.1,2.7-33.7,5.6-50.3a138.1,138.1,0,0,0,1.8-15.9c2.5,1.9,7.1,1,7.3-3.1v-1.1c.1-4.2-4.6-5.4-7.2-3.5a55.5,55.5,0,0,0-2.1-15,6.3,6.3,0,0,0,4.8-5.9,7.5,7.5,0,0,0-.8-3.5,2,2,0,0,0,2.1-2c.1-2.8-4.1-3-4.4-.3a7.2,7.2,0,0,0-7.5.3,24.7,24.7,0,0,0-7.4-6.1,6,6,0,0,0,2.1-4.5v-2.2c.4-8.6-12.8-9.1-13.2-.6v2.2a11.1,11.1,0,0,0,.2,1.9,34.2,34.2,0,0,0-6.5-.3c-2.8,0-3,4.4-.2,4.4,11.1-.3,18.2,3,22.6,8.6a6.8,6.8,0,0,0-.2,1.5,5.9,5.9,0,0,0,4.4,6.3c6.4,19.2-3.3,50.5-5.9,67.8a73.8,73.8,0,0,0,.1,22.5,5.4,5.4,0,0,0-3.8-.4,6.6,6.6,0,0,0-5.1,7.8c.1.5.4,2.3.3.4.2,3.6,2.5,6.7,6.3,6.9a7.1,7.1,0,0,0,5.4-2.4,81.5,81.5,0,0,0,8.3,18,7.3,7.3,0,0,0-3.3-.8,3.9,3.9,0,0,0-3.5,1.6,3.7,3.7,0,0,0-2-.8c-2.5-.1-3,3.3-1.1,4.2a2.2,2.2,0,0,0,2.6,1.3,3.9,3.9,0,0,0,2.8,2.3,4.9,4.9,0,0,0,4.1,1.3h.3a5,5,0,0,0-.4,1.3c-.2,5.5,7.9,6,8.7,1,14.9,17,36.2,26.2,51.4,43,17.2,19,16.3,44,22.6,67.3a86.6,86.6,0,0,0,12.6,27.2c-3.8-1.9-9.6-.3-9.8,5.3v1.1a5.3,5.3,0,0,0,.1,1.3c-1.8.8-1.7,4.2.8,4.3h1.8c3.8,2.5,10.3,1,10.5-4.9v-1.1a9.1,9.1,0,0,0-.1-1.7,72.8,72.8,0,0,0,12.9,12.5,3.9,3.9,0,0,0-3.5,3.9c-.3,5.7,8.6,6.1,8.8.4,0-.3-.1-.5-.1-.8a36.2,36.2,0,0,0,3.3,2c9.5,5.1,20.4,6.9,31,8.5a71.3,71.3,0,0,1,7.2,1.3,6.7,6.7,0,0,0,4.4,2l1.8-.2a51.1,51.1,0,0,1,13.1,6.3h.1a74.3,74.3,0,0,1,13.2,11.8c14.7,16.3,25.1,36.2,42.4,49.5a6.2,6.2,0,0,0-.8,2.9c-.3,7,8.7,8.6,12,4.1l3,1.5,1.7.6a4.4,4.4,0,0,0-1.7,3.2c-.2,5.7,8.6,6.1,8.9.4a4.3,4.3,0,0,0-.2-1.1,69,69,0,0,0,13.4,2.6c0,.1-.1.1-.1.2-.2,5.7,8.6,6,8.8.4v-.2c13.7-.1,27.5-3.5,41.3-8,12.1-3.9,23.4-6.7,34.7-4.6a6.1,6.1,0,0,0,6,5.2h2.2a6,6,0,0,0,3.9-1l2.1,1.1c12.9,7.7,22.8,19,36.5,25.7l1.1.5a4.3,4.3,0,0,0-.7,2v1.1a7.9,7.9,0,0,0,.2,1.7,1.8,1.8,0,0,0-1.4-.6h-1.1c-2.8-.2-3,4.2-.2,4.4h1.1A2.1,2.1,0,0,0,491.9,1043.7Z" fill="#fff"/>
            <path d="M507.1,1053.9c.1-2.9-4.3-3.1-4.4-.2S507,1056.7,507.1,1053.9Z" fill="#fff"/>
            <path d="M531.3,1054.9a2,2,0,0,0-1.9-2.2,4.1,4.1,0,0,0-.1-5.3v-.3c-.3-2.4-3.1-3.9-5.3-3.4s-3.6,2.9-3.3,5.2a7.8,7.8,0,0,0,2,4.3,4,4,0,0,0,4.3,1.3c-.1.1-.1.1-.1.2C526.8,1057.6,531.2,1057.7,531.3,1054.9Z" fill="#fff"/>
            <path d="M544.9,1046.7a1.9,1.9,0,0,0-1-1.9,4,4,0,0,0,2.3-3.6c.3-5.7-8.5-6.1-8.8-.4a4,4,0,0,0,3.6,4.3,2.2,2.2,0,0,0-.5,1.4C540.4,1049.3,544.8,1049.5,544.9,1046.7Z" fill="#fff"/>
            <path d="M551.5,1048c.1-2.8-4.3-3-4.4-.2S551.3,1050.9,551.5,1048Z" fill="#fff"/>
            <path d="M519.4,1074.3c.2-2.9-4.2-3.1-4.4-.2S519.3,1077.1,519.4,1074.3Z" fill="#fff"/>
            <path d="M518,1057.6c.1-2.5-3.3-2.9-4.2-1s-1.8,4.1.7,4.2S517.8,1059.8,518,1057.6Z" fill="#fff"/>
            <path d="M564,1013.3c.1-2.9-4.3-3.1-4.4-.2S563.9,1016.1,564,1013.3Z" fill="#fff"/>
            <path d="M575.1,1010.4c.2-2.8-4.2-3-4.4-.2S575,1013.3,575.1,1010.4Z" fill="#fff"/>
            <path d="M588.4,1009.9c.1-2.8-4.3-3-4.4-.2S588.3,1012.7,588.4,1009.9Z" fill="#fff"/>
            <path d="M600.7,1007.1v-.8c.1-2.9-4.3-3-4.4-.2v.8C596.1,1009.8,600.5,1010,600.7,1007.1Z" fill="#fff"/>
            <path d="M306.2,1003.3v-1.1c.3-8.5-12.9-9-13.2-.5v1.1C292.6,1011.3,305.9,1011.9,306.2,1003.3Z" fill="#fff"/>
            <path d="M482.5,1009.8c.4-8.5-12.9-9.1-13.2-.6S482.1,1018.3,482.5,1009.8Z" fill="#fff"/>
            <path d="M173.8,798c.2-5.7-8.6-6.1-8.8-.4S173.5,803.7,173.8,798Z" fill="#fff"/>
            <path d="M140.3,781.1c.2-5.7-8.6-6.1-8.8-.4S140.1,786.8,140.3,781.1Z" fill="#fff"/>
            <path d="M169,883.8c.1-3.3-1.9-5.5-5.3-5.7s-5.6,5.6-2.8,7.9S168.9,888.5,169,883.8Z" fill="#fff"/>
            <path d="M161.4,906.7h-1.1c-5.7-.2-6.1,8.6-.4,8.8H161C166.7,915.7,167.1,906.9,161.4,906.7Z" fill="#fff"/>
            <path d="M263.5,918.8v-2.2c.2-5.7-8.6-6.1-8.8-.4v2.2C254.5,924.1,263.3,924.5,263.5,918.8Z" fill="#fff"/>
            <path d="M241.3,916.9a6.9,6.9,0,0,0-1.8-1.6,4.4,4.4,0,0,0-5.3.5,5.1,5.1,0,0,0-1.6,3.9,4.1,4.1,0,0,0,4.3,4.4C240.6,925,244.6,920.4,241.3,916.9Z" fill="#fff"/>
            <path d="M294.7,990.6c2.5-.6,3.6-2.9,3.3-5.3a6.6,6.6,0,0,0-5.1-5.5,4.4,4.4,0,0,0-3.2,8.1A4.6,4.6,0,0,0,294.7,990.6Z" fill="#fff"/>
            <path d="M153.5,782.8c.2-5.7-8.6-6.1-8.8-.4S153.2,788.5,153.5,782.8Z" fill="#fff"/>
            <path d="M515.3,1029.9c14.4-3.6,23.9-14.8,23.9-29.8,0-1.8-2.4-3.3-3.7-1.7-8.3,9.3-19.4,16-25.8,26.9-1.3,2.1,1.4,4.2,3.1,3A2,2,0,0,0,515.3,1029.9Z" fill="#fff"/>
            <path d="M571.7,1050.5l1.2-.5a2.3,2.3,0,0,0,1.5-3.2c-3.4-8.8-14-17.3-23.9-15.8l-.5-.4a1.7,1.7,0,0,0-1.8-.3L544,1029c-1.9-.4-4.1,2.1-2.3,3.6,3.8,3.3,8.5,5.2,13,7.2,4.7,3.7,9.5,7.4,14.3,10.9A2.4,2.4,0,0,0,571.7,1050.5Z" fill="#fff"/>
            <path d="M649.6,1022.4a2.2,2.2,0,0,0,1.8-3.6c-8-11.4-18-12-27.9-8.3a15.3,15.3,0,0,0-11.9,6.1c-2.2,1.5-4.4,3-6.5,4.6s-.8,2.7.5,3.4a2.1,2.1,0,0,0,2,1.6h.2C618.6,1038.6,637,1022.7,649.6,1022.4Zm-33.7,3.7,2.9-.4a51.6,51.6,0,0,0,7.7-1.3l4.8-.6C625.8,1025.8,620.3,1027.3,615.9,1026.1Z" fill="#fff"/>
            <path d="M478.6,1058.6a20.9,20.9,0,0,0,5.8-6.4,1.7,1.7,0,0,0,.7-1.4,24.5,24.5,0,0,0,.7-21c-.9-2-3.4-1.3-4,.3l-.7-.4c-.1-.9-.3-1.9-.5-2.9-.7-2.8-4.6-1.8-4.3.9a116.1,116.1,0,0,1,.3,15.6c-.3,2.7-.7,5.3-1.1,8h0a2.2,2.2,0,0,0-.2,1.9,21.9,21.9,0,0,0-.3,3.6C474.8,1059,477.2,1059.7,478.6,1058.6Z" fill="#fff"/>
            <path d="M419.4,1041.3a21.7,21.7,0,0,0-.2-3.6,2.1,2.1,0,0,0,.5-3.8l-1.6-1.1c-4.2-10.8-17.2-18.2-28.5-18.2a2.3,2.3,0,0,0-2.2,2l-1.2-.7c-2.1-1.4-4.4,1.5-2.8,3.3,9,10.5,21.2,16.5,32.6,23.9A2.3,2.3,0,0,0,419.4,1041.3Z" fill="#fff"/>
            <path d="M387.1,995.5c1.5-1,1.7-3.6-.4-4.1a44.8,44.8,0,0,0-8.4-1.1,2.2,2.2,0,0,0-3.5-1l-1.4,1.1c-6.4.6-12.6,2.5-17.3,6.1a10.2,10.2,0,0,0-4.7,4.7,20.8,20.8,0,0,0-3.7,11.6,4.3,4.3,0,0,0,.1.5,2.5,2.5,0,0,0,1.5,2.9C364.9,1021,375.8,1002.8,387.1,995.5Zm-17,9.3a39.5,39.5,0,0,0,2.9-3.9l1.1-.8a2,2,0,0,0,.7-1.6l.9-1h1.4l.9-.2C375.5,999.8,372.8,1002.4,370.1,1004.8Z" fill="#fff"/>
            <path d="M340.8,978.8c1.4-1.2.6-4-1.4-3.8a42.8,42.8,0,0,0-6.1.9c-7-3.1-14.8-3.6-21.5-1l-11-.5c-1.9-.1-2.6,2-1.9,3.4-2,.4-2,3.3,0,4.2l.8.3c-1.7.7-2.2,3.6.1,4.2C314.4,990.2,329,988.9,340.8,978.8Z" fill="#fff"/>
            <path d="M245.4,994.1l1-.4c17.7,2.4,30.5-13.5,39.1-27.7,1.4-2.4-2.3-4.7-3.8-2.3l-.2.3a1.9,1.9,0,0,0-1.5-.3.1.1,0,0,0-.1-.1l.4-.3a2.2,2.2,0,0,0-2-3.9l-4.9,2.8c-8.9,4.8-18.8,9.9-23.1,18.7-2.9,2.8-5.9,5.5-9,8.2a2.2,2.2,0,0,0,.8,3.7l1,.2A2,2,0,0,0,245.4,994.1Z" fill="#fff"/>
            <path d="M292.2,951.5c6.8,1,13.6.8,20.7-2.2a1.3,1.3,0,0,0,.7-.5c3.3-.6,6.6-1.3,10-2.2a2.2,2.2,0,0,0,.1-4.2,43.9,43.9,0,0,0-12.3-2.8h-.2a99.1,99.1,0,0,0-27.2.2,41.4,41.4,0,0,1-7-.6,2.1,2.1,0,0,0-2.2,2.7l-1.8.5a2.2,2.2,0,0,0,.7,4.3,1.3,1.3,0,0,0,.7.9l1.2.7a2.1,2.1,0,0,0,2,2h2.5A27.5,27.5,0,0,0,292.2,951.5Z" fill="#fff"/>
            <path d="M237.8,971.7c.2-.4.3-.8.5-1.3a2.3,2.3,0,0,0,3.2-2.4c-.4-1.5-.9-2.9-1.4-4.4,2-12.7-1.1-31.4-13.5-33.2a1.9,1.9,0,0,0-1.5.4l-.9-2.7c-.8-2.2-4-1.1-4.2,1-1.1,15.8,7.6,28.6,14,42.5A2.2,2.2,0,0,0,237.8,971.7Z" fill="#fff"/>
            <path d="M199.3,907.7a24.6,24.6,0,0,1,3.4-2.5h1.1a1.8,1.8,0,0,0,2.3,1.1l3.7-.9c10.3.4,20.3-.1,30.2-4.5,2.8-1.2,15.2-5.5,10.4-10.8s-20.5-1-26.2-.3c-9.3,1.2-17.8,4.6-24.4,10.9a2.1,2.1,0,0,0-1.7,1.7c-.6.6-1.1,1.3-1.7,2h0l-.4.5C194.4,906.9,197.5,909.2,199.3,907.7Z" fill="#fff"/>
            <path d="M163.6,840.1c-.6-.7-1.4-1.3-1.5-2.4-.3-2.8-4.6-1.8-4.3,1s1.4,3.1,2.6,4.4S165.5,842.2,163.6,840.1Z" fill="#fff"/>
            <path d="M115.7,892.3c16.1-10.8,37.1-14.4,49.6-29.8.1-.1.1-.1.1-.2a30.1,30.1,0,0,0,2.2-2.8l.3-.8a1.8,1.8,0,0,0,.6,1.3.1.1,0,0,1,0,.2c-2.1,1.9.8,5.2,2.9,3.2l.6-.4c10.7,7.5,24.6,6.7,37.3,7.1,2.1.1,2.8-2.2,1.7-3.7-4.6-6.4-12.8-10.8-21.4-11.9-6.8-2.3-13.6-3.1-14.8,1.7l-1.7.8-2.4-.6a2.3,2.3,0,0,0-2.8,2.1c.1-1.5-1.7-3-3.2-2.1l-2.3,1.2c-4.9-1.7-14,.1-17.1,1-16.1,4.5-26.9,15.7-32.7,31.1C111.9,891.4,114.1,893.4,115.7,892.3Zm28.2-20.4,11.3-5.5a72.3,72.3,0,0,1-11.2,7A2.6,2.6,0,0,0,143.9,871.9Z" fill="#fff"/>
            <path d="M113.5,760.7c.9-3.2,26.7,1.7,30.7,1.3,1.9-.3,8-.7,12.7-2.3h.9a1.9,1.9,0,0,0,2-1.3c2.2-1.2,3.6-2.8,3.2-5-1.4-7.4-16.2-8-22-8.6-10.8-1.1-24.2-.3-33,6.8-1.2.9-.8,2.3,0,3.2a.1.1,0,0,0-.1.1c-1.6,1.3-.4,3.6,1.4,3.8h.2a1.4,1.4,0,0,1-.2.6C108.5,762.1,112.7,763.4,113.5,760.7Z" fill="#fff"/>
            <path d="M113.6,780a1.9,1.9,0,0,0-2.5-1.1,12.1,12.1,0,0,0-.5-1.8,2.1,2.1,0,0,0-1.4-1.5c.1-.1.1-.2.2-.2a2.2,2.2,0,0,0-3.8-2.4c-6.4,8.7-11.3,17.2-14.4,26.4A37.1,37.1,0,0,0,87.1,813a1.9,1.9,0,0,0,.9,1.9,69.7,69.7,0,0,0-.3,10.3,2.1,2.1,0,0,0,2.6,2.2C113.4,824,121.8,800.1,113.6,780Zm-10.2,36.8a2.2,2.2,0,0,0-.5-1.2l.8-1.1a57.2,57.2,0,0,0,5.9-6.2A24.5,24.5,0,0,1,103.4,816.8Z" fill="#fff"/>
            <path d="M116.3,699.1c4.5.1,8.4-.1,11-.2s3-1.7,2-3.2c-9.9-16.3-30.3-25.3-49-20.8-2.7.7-1.9,4.7.7,4.3l-.3.6c-2.7,11.2,7.8,16.1,19.9,18.1A41.7,41.7,0,0,0,116.3,699.1Z" fill="#fff"/>
          </g>
          <g>
            <path d="M539.3,998.8c-172.1,0-336.6-99.7-409.4-247.9-34.5-70.2-50.6-151.2-46.5-234s28.1-162,69.5-228.2a438,438,0,0,1,83.4-97.4c38.1-33,87.9-62.1,136.7-80,51.8-18.9,107.4-28.5,165.5-28.5,132,0,254.9,49.2,337.2,135.1,27.1,28.3,63.5,71.3,83.4,115.5,23.6,52.4,38.3,116.2,38.5,166.5,0,13.1-.3,26.4-1.1,39.5-4.4,74.1-22,145.7-51,207.1-32.1,68-77.3,123.3-134.3,164.4-37.5,27-82.6,49.8-123.5,62.5C634.8,989.7,582.1,998.8,539.3,998.8Zm-.8-914c-57.8,0-113.3,9.6-164.8,28.4C325.1,131,275.5,160,237.6,192.8a439,439,0,0,0-83,97C71.2,423.2,62,608.1,131.7,750,204.2,897.6,368,996.7,539.3,996.7c42.6,0,95.1-8.9,147.8-25.2,40.8-12.7,85.6-35.3,122.9-62.2,107.9-77.8,175.2-212.6,184.5-370,.7-13.1,1.1-26.3,1.1-39.4-.2-50.1-14.8-113.6-38.3-165.7-20.8-46.3-61-91.8-83.1-114.9C792.3,133.8,670,84.8,538.5,84.8Z" fill="#b8e1da"/>
            <path d="M539.6,1001.7a415.1,415.1,0,0,1-138-23.8C289.1,938.3,202.2,874.5,150.3,793.4,82.2,686.6,59.1,564.1,85.5,448.5c8-35.1,19-68.6,31.8-96.9a494.7,494.7,0,0,1,35.4-64.9,411.1,411.1,0,0,1,84.4-94.2c87.1-71.8,200-113,310-113,14.1,0,28.2.7,41.9,2,80.7,8.1,157.8,35.8,223.1,80.1C884.9,210.9,941.2,291,970.7,386.9a519.1,519.1,0,0,1,22.5,166.3c-1.3,46.4-7.4,89.9-17.7,125.7-25.1,87.7-73.8,160.4-140.9,210.4-20.8,15.5-43.3,29.3-65,42.8l-.9.5c-38.5,23.7-77.7,41.5-116.4,52.9A400.4,400.4,0,0,1,539.6,1001.7Zm7.5-920.2c-109.5,0-222,41-308.7,112.5a411.6,411.6,0,0,0-84,93.8,490.7,490.7,0,0,0-35.3,64.6c-12.7,28.2-23.7,61.6-31.7,96.5C61.2,564,84.2,686,152.1,792.3,203.6,873.1,290.2,936.6,402.3,976a413.4,413.4,0,0,0,137.3,23.6,400.9,400.9,0,0,0,112.2-16c38.5-11.4,77.5-29.1,115.9-52.7l.8-.6c21.7-13.3,44.2-27.2,64.9-42.6C900.1,838,948.6,765.6,973.6,678.3c10.2-35.6,16.3-78.9,17.6-125.2a517.6,517.6,0,0,0-22.5-165.6C939.4,292,883.3,212.3,811,163.2c-65-44.1-141.9-71.6-222.2-79.7C575.1,82.2,561.1,81.5,547.1,81.5Z" fill="#b8e1da"/>
            <path d="M539.7,1000.5a402,402,0,0,1-60.3-4.5c-77.4-11.7-153-44.6-218.8-95.2s-117-115.4-147.8-187.1A442.8,442.8,0,0,1,80.2,589.6c-5.3-50.1-.8-107.6,12.3-158,22.1-84.5,70.8-166.1,137.1-229.8,69.1-66.4,151.1-108.7,237-122.4,30.3-4.8,60.2-7.3,86.5-7.3A313.4,313.4,0,0,1,609,76.7c56.5,10.5,117.4,34.8,158.8,63.3,10.8,7.4,21.4,15.3,31.8,23.4,58.4,45.9,107.2,101.2,141.1,160,37.6,65.2,57.3,133.8,58.5,204.1.9,46.2-6.1,96.2-19.1,137.1-16.6,52.7-39.3,101.2-63.7,136.3-41.3,59.6-98.2,109.8-164.5,145.2S611.7,1000.5,539.7,1000.5ZM553.1,74.1c-26.2,0-56,2.5-86.2,7.3-169.7,27-326.4,174.5-372.4,350.7C81.4,482.3,76.9,539.6,82.2,589.4a438.6,438.6,0,0,0,32.5,123.5c62,144.5,208.7,257.5,365,281.1a398,398,0,0,0,60,4.5c144.1,0,291.3-78,375.1-198.7,24.3-35,46.8-83.3,63.4-135.9,12.9-40.7,19.8-90.4,19-136.4-2.3-133-74.8-265.1-198.8-362.5-10.4-8.1-21-15.9-31.7-23.3-41.3-28.4-101.8-52.6-158-63C592.4,75.6,573.7,74.1,553.1,74.1Z" fill="#b8e1da"/>
            <path d="M555.1,997.8c-152.1,0-300.6-68.1-378.3-173.6-56.5-76.7-90-171.7-94.4-267.7C77.7,456,104.1,361.7,158.7,283.9c51.2-73,103.1-123.2,158.8-153.4,28.1-15.3,82.9-42.2,133.3-50.1a459,459,0,0,1,69.9-5.3c37,0,72,4.2,100.9,12,12.8,3.5,25.5,7.3,37.8,11.6,69.8,24.1,135,61.3,188.4,107.5C906.2,256.7,948.9,317.1,971.5,381c16,45.4,25.8,96.6,26.7,140.4A479.7,479.7,0,0,1,757.3,946.3c-37.7,21.5-81,37.4-121.9,44.7A466.9,466.9,0,0,1,555.1,997.8ZM520.7,77.2a455.3,455.3,0,0,0-69.6,5.2C401,90.3,346.5,117,318.4,132.3c-55.4,30-107.1,80-158.1,152.7C51.8,440,59.2,661.2,178.4,823c77.3,105,225.2,172.8,376.7,172.8A463.1,463.1,0,0,0,635,989c40.7-7.3,83.8-23,121.3-44.5,151.8-86.8,243.7-248.9,239.9-423-.9-43.6-10.6-94.6-26.6-139.8C925.9,257.8,809.7,152.8,658.7,100.6c-12.2-4.2-24.9-8.1-37.6-11.6C592.3,81.3,557.6,77.2,520.7,77.2Z" fill="#b8e1da"/>
          </g>
        </g>
        <g>
          <path d="M862,545.4c-14.2,45.8-67.7,111.2-99.7,141.2-3.1,2.8-6.4,5.6-10,8.3-18.5,14-42.3,25.5-62.8,33.8a344.1,344.1,0,0,1-68.2,19c-3.7.6-7.3,1-10.8,1.4-34.3,3.9-63.1,1.4-97.2-3.8-27.7-4.2-51.5-19.5-73.4-37.3s-48.1-50.5-59.6-75a280.7,280.7,0,0,1-26.5-110.7c-.6-22.6,1.5-45.4-3.3-67.5l31.6-16.5q17.7,34.6,36.8,68.6c14.6,26.1,30.5,52.8,55.1,69.8,33.8,23.4,78.7,24.7,118.8,15.8a260.6,260.6,0,0,0,41.6-13,271.8,271.8,0,0,0,78.4-48.8c19-17.1,31-25.3,53.9-37a5.2,5.2,0,0,1,7.1,6.6c-7.1,17.9-14.6,30-26.9,48.5,21.6-9.7,59.3-32.8,68.5-29.3,4.8,10.8-21.3,44.7-33.9,62.8,14.5-4.9,53.1-26,75.5-40.7A3.3,3.3,0,0,1,862,545.4Z" fill="#f9b2a0"/>
          <path d="M410.8,435.4A227.5,227.5,0,0,0,473.2,336a5.2,5.2,0,0,0-6.7-6.5c-30.4,10.8-63.4,22.4-94.1,41.9C353.7,343,324.1,309.1,302,293a4.4,4.4,0,0,0-6.9,3.5c-.9,29,6.4,67.2,12,101.2,0,0-63.2,26.3-95.8,54.7a6.8,6.8,0,0,0,2.5,11.6,295,295,0,0,0,93.3,12.7,617.8,617.8,0,0,0,16.1,96.4c1.3,5.3,5.3,12.1,10.4,10,2.3-.9,3.5-3.3,4.5-5.6A357.4,357.4,0,0,0,365.9,475c17.8,16.7,37.4,31.3,59.7,41.2,18.4,8.2,38.1,16,50.5,6.7C477.2,506,443.7,464.3,410.8,435.4Z" fill="#febc11"/>
          <path d="M862,545.4c-14.2,45.8-67.7,111.2-99.7,141.2-3.1,2.8-6.4,5.6-10,8.3-18.5,14-42.3,25.5-62.8,33.8a344.1,344.1,0,0,1-68.2,19,62.1,62.1,0,0,0,6.3-5.2l2.4-2.4c3-3.2,11-10.9,5.8-15.4-1.5-1.2-3.6-1.6-5.5-2-8-1.5-17.1-2.1-24.8-4.7s-15.4-4.8-24.9-11c28.9-.8,63.6-5.2,88.6-19.6,5.8-3.4,9.5-10.1,7.8-16.7s-10.3-9.2-17.4-9.9l-47.2-4.4a365.1,365.1,0,0,0,56.1-20.3c2.8-1.3,5.8-2.9,7.1-5.7s-.7-8.1-4.1-10.3-7.5-2.7-11.4-3.2l-32.3-3.8a61.1,61.1,0,0,0,30.7-21.5,7.2,7.2,0,0,0-3.4-11c-6.5-1.9-13.5-1.9-20.7-1.1a271.8,271.8,0,0,0,78.4-48.8c19-17.1,31-25.3,53.9-37a5.2,5.2,0,0,1,7.1,6.6c-7.1,17.9-14.6,30-26.9,48.5,21.6-9.7,59.3-32.8,68.5-29.3,4.8,10.8-21.3,44.7-33.9,62.8,14.5-4.9,53.1-26,75.5-40.7A3.3,3.3,0,0,1,862,545.4Z" fill="#f05822"/>
          <path d="M529.1,702A144.7,144.7,0,0,1,414.9,593c-1.7-7.1-12.7-4.8-11,2.3,14.4,61,63,106.6,124.5,118C535.5,714.6,536.1,703.4,529.1,702Z" fill="#f05822"/>
          <path d="M523.8,650.9A136.8,136.8,0,0,1,470,627.3c-5.9-4.2-12.2,5.2-6.3,9.4a148.3,148.3,0,0,0,59.4,25.4C530.2,663.5,530.8,652.2,523.8,650.9Z" fill="#f05822"/>
          <path d="M530.8,606.2a65.4,65.4,0,0,1-27.8-7.1c-6.5-3.2-10.1,7.5-3.7,10.7a74.9,74.9,0,0,0,30.8,7.7C537.3,617.8,538.1,606.5,530.8,606.2Z" fill="#f05822"/>
        </g>
      </g>
    </g>
  </g>
</svg>
