<svg xmlns="http://www.w3.org/2000/svg" viewBox="0 -0.20000076293945312 800 70.5" style=""><g><title>Lines06_35001491</title><g fill="#FFF"><path d="M11.373 34.859l23.83-23.83 23.829 23.83-23.83 23.829z"></path><path d="M77.691 34.863l23.826-23.833 23.833 23.826-23.826 23.833z"></path><path d="M144.017 34.88l23.83-23.83 23.828 23.83-23.829 23.829z"></path><path d="M210.306 34.869l23.833-23.826 23.826 23.832-23.833 23.826z"></path><path d="M276.618 34.906l23.829-23.83 23.83 23.83-23.83 23.83z"></path><path d="M343 34.9l23.8 23.8 23.9-23.8L366.8 11z"></path><path d="M409.3 34.858l23.829-23.83 23.829 23.83-23.83 23.83z"></path><path d="M475.6 34.9l23.9 23.8 23.8-23.8L499.5 11z"></path><path d="M541.892 34.893l23.83-23.83 23.829 23.83-23.83 23.83z"></path><path d="M608.219 34.893l23.83-23.83 23.828 23.83-23.829 23.83z"></path><path d="M674.6 34.9h-.1l23.9 23.8 23.9-23.8L698.4 11z"></path><path d="M764.7 11l-23.8 23.9 23.9 23.9 23.8-23.9z"></path><path d="M800 35l-2.2-2.2-33-33L731.7 33 698.4-.2 665.2 33l-33-33.2L599 33 565.8-.2 532.6 33 499.5-.2 466.4 33 433.2-.2 400 32.9 366.8-.2 333.6 33 300.5-.2 267.4 33 234.2-.2 201 32.9 167.9-.2 134.7 33 101.6-.2 68.4 32.9 35.2-.2 0 35l35.2 35.2 33.2-33.1 33.2 33.1 33.2-33.1L168 70.2l33-33.1 33.2 33.1 33.2-33.1 33.2 33.2 33.1-33.2 33.1 33.1L400 37.1l33.2 33.2 33.2-33.2 33.1 33.1 33.2-33.1 33.2 33.2 33.2-33.2 33.2 33.2 33.1-33.2 33.2 33.2 33.2-33.2.1.1v.1l33 33 32.9-33L800 35zM35.2 66l-31-31 31-31 31 31-31 31zm66.3 0l-31-31 31.1-31 31 31-31.1 31zm66.4 0l-31-31L168 4l31 31-31.1 31zm66.3 0l-31-31 31-31 31.1 31-31.1 31zm66.3 0l-31-31 31-31 31 31-31 31zm66.3 0l-31-31 31-31 31 31-31 31zm66.3 0l-31-31 31.1-31 31.1 31-31.2 31zm66.3 0l-31-31 31-31 31.1 31-31.1 31zm66.4 0l-31-31 31-31 31 31-31 31zm66.3 0l-31-31 31.1-31 31 31-31.1 31zm66.3 0l-31-31 31-31 31 31-31 31zm66.3 0l-9.9-9.9-21-21.1 31-31 31 31-31.1 31z"></path></g></g></svg>