<svg xmlns="http://www.w3.org/2000/svg" viewBox="0.10000000149011612 0.10000000149011612 499.79998779296875 34.20000457763672" style=""><g><title>FreeLine_11_ln</title><path d="M499.9.1h-.1c-10 0-14.8 8-19 15.1-4.2 7-7.1 11.2-12.2 11.2-5.2 0-8-4.1-12.2-11.2C452.2 8 447.5.1 437.4.1s-14.8 8-19 15.1c-4.2 7-7.1 11.2-12.2 11.2-5.2 0-8-4.1-12.2-11.2C389.8 8 384.9.1 375 .1c-10 0-14.8 8-19 15.1-4.2 7-7.1 11.2-12.2 11.2s-8.1-4.1-12.3-11.2C327.3 8 322.6.1 312.5.1c-10 0-14.8 8-18.9 15.1-4.2 7-7.1 11.2-12.2 11.2-5.2 0-8-4.1-12.2-11.2C265 8 260.1.1 250.2.1c-10.1 0-14.7 8-18.9 15.1-4.2 7-7.1 11.2-12.3 11.2-5.2 0-8-4.1-12.2-11.2C202.6 8 197.7.1 187.8.1c-10.1 0-14.8 8-19 15.1-4.2 7-7.1 11.2-12.2 11.2-5.2 0-8-4.1-12.2-11.2C140.2 8 135.5.1 125.4.1s-14.8 8-19 15.1c-4.2 7-7.1 11.2-12.2 11.2-5.2 0-8.3-4.1-12.3-11.2C77.4 8 72.5.1 62.5.1c-10 0-15 8-19 15.1-4.1 7-7 11.2-12.2 11.2s-8-4.1-12.2-11.2C14.9 8 10.2.1.1.1V8c5.2 0 8 4.1 12.2 11.2 4.2 7.2 8.9 15.1 19 15.1s14.8-8 19-15.1c4.1-7 7-11.2 12.2-11.2s8 4.1 12.2 11.2c4.2 7.2 9.1 15.1 19 15.1 10 0 14.8-8 19-15.1 4.1-7 7-11.2 12.2-11.2 5.2 0 8 4.1 12.2 11.2 4.2 7.2 8.9 15.1 19 15.1s14.8-8 19-15.1c4.2-7 7.1-11.2 12.2-11.2 5.2 0 8 4.1 12.2 11.2 4.2 7.2 8.9 15.1 19 15.1s14.8-8 19-15.1c4.2-7 7.1-11.2 12.2-11.2 5.2 0 8 4.1 12.2 11.2 4.2 7.2 8.9 15.1 19 15.1s14.8-8 18.9-15.1c4.2-7 7-11.2 12.2-11.2 5.2 0 8.1 4.1 12.3 11.2 4.2 7.2 8.9 15.1 19 15.1s14.8-8 19-15.1c4.2-7 7.1-11.2 12.2-11.2s8 4.1 12.2 11.2c4.2 7.2 8.9 15.1 19 15.1s15-8 19-15.1c4.1-7 7-11.2 12.2-11.2 5.2 0 8 4.1 12.2 11.2 4.2 7.2 8.9 15.1 19 15.1s14.8-8 19-15.1c4.2-7 7-11.2 12.2-11.2h.1V.1z" fill="#FFF"></path></g></svg>