<svg xmlns="http://www.w3.org/2000/svg" viewBox="2.5420000553131104 -0.14900000393390656 499.9779968261719 33.590999603271484" style=""><g><g fill="#FFF"><path d="M469.142 27.399L496.648-.108l5.869 5.87-27.506 27.506z"></path><path d="M422.457 27.463L449.963-.043l5.87 5.869-27.507 27.506z"></path><path d="M375.868 27.426L403.375-.08l5.868 5.87-27.506 27.505z"></path><path d="M329.138 27.39L356.644-.117l5.87 5.87-27.507 27.506z"></path><path d="M282.453 27.454L309.96-.052l5.869 5.869-27.507 27.506z"></path><path d="M235.865 27.44L263.37-.066l5.869 5.869-27.506 27.506z"></path><path d="M189.205 27.474L216.711-.032l5.87 5.869-27.507 27.506z"></path><path d="M142.546 27.366L170.052-.14l5.869 5.869-27.506 27.506z"></path><path d="M95.861 27.431L123.367-.075l5.87 5.869L101.73 33.3z"></path><path d="M49.202 27.465L76.708-.041l5.869 5.869L55.07 33.334z"></path><path d="M2.542 27.357L30.048-.149l5.87 5.869L8.41 33.226z"></path><path d="M469.145 5.86l5.869-5.869 27.506 27.507-5.87 5.868z"></path><path d="M422.556 5.823l5.869-5.869 27.506 27.507-5.869 5.869z"></path><path d="M375.967 5.786l5.87-5.868 27.505 27.506-5.869 5.869z"></path><path d="M329.141 5.851l5.869-5.869 27.506 27.506-5.869 5.87z"></path><path d="M282.552 5.814l5.87-5.869 27.505 27.507-5.869 5.868z"></path><path d="M235.964 5.8l5.869-5.869 27.506 27.506-5.87 5.87z"></path><path d="M189.208 5.935l5.869-5.868 27.506 27.506-5.869 5.869z"></path><path d="M142.549 5.828l5.869-5.869 27.506 27.506-5.87 5.87z"></path><path d="M95.96 5.791l5.869-5.869 27.506 27.506-5.869 5.87z"></path><path d="M49.204 5.926l5.87-5.868 27.505 27.506-5.869 5.869z"></path><path d="M2.545 5.819l5.869-5.87L35.92 27.457l-5.869 5.869z"></path></g></g></svg>