<svg xmlns="http://www.w3.org/2000/svg" width="1080" height="1278.71" viewBox="0 0 1080 1278.7001953125" style=""><g><title>FxVector8_350850262</title><g data-name="Layer 2"><g data-name="Layer 1"><path d="M1049.51 260.16a7.22 7.22 0 0 1-2.52-4.24 19.94 19.94 0 0 0-6.11-9.76 21 21 0 0 1-3.56-6.39 34.5 34.5 0 0 0-3-6.86c-6.39-8-13.38-15.4-19.26-23.93-4.57-6.59-6.79-15-13.81-20-1.74-1.24-1.56-5.05-3.23-6.49-5.73-5.3-11.93-10.09-17.66-15.14a27.69 27.69 0 0 1-4.47-5.91c-2-3-3.06-7.57-5.81-9-5.52-3.06-6.76-7.75-7.44-13.08-2.53-1.18-5.66-1.64-7-3.4-6.41-8.33-15.92-12.62-23.47-19.26-7-6.13-16.05-8.66-22.41-15.14-.63-.66-2.12-.63-3.23-.69a9.65 9.65 0 0 1-8.23-5 9 9 0 0 0-7.57-4.24 39.42 39.42 0 0 1-13.2-3.33 78.53 78.53 0 0 1-11.36-8.33c-1.31-1-3.08-2.65-4.19-2.38-6.92 1.82-10.1-3.28-14.06-7-1.23-1.14-2.17-3.18-3.56-3.49-8.27-1.79-12.62-8.9-19-13.32a8.44 8.44 0 0 0-4.46-1.57 111.6 111.6 0 0 0-11.13 1c-2.3-2.39-4.17-4.44-6.14-6.38-8.78-8.58-20.34-12.87-30.28-19.74-2-1.34-4-2.52-6-3.84L22.56 1031.59a11.5 11.5 0 0 0 5.86-.7 68.3 68.3 0 0 0 14.61-8c3.94-2.75 7.57-4.92 12.62-4.44 3.48.33 7.12-1.08 11.71-1.89 2.53 1.67 17.8 7.27 20.19 6.44a17.07 17.07 0 0 0 4.75-3c4.77.18 8.25.38 11.71.38 2.52 0 5.38-2 7.57 1.26.46.66 2.73.53 3.94.13 3.89-1.29 7.57-3 11.53-4.27a17.63 17.63 0 0 1 5.5-.63c1.54 0 3.16.89 4.6.58a9 9 0 0 1 9.61 3.51c3.41 4.82 7.78 5.81 13.41 4.49-.58 5.71 3.83 7.58 7.19 9.39a8.73 8.73 0 0 1 5.25 5.76c.45 1.74 2.27 3.08 3.31 4.72a24.84 24.84 0 0 1 4.19 7.06 23.25 23.25 0 0 0 15.14 16.94 19.7 19.7 0 0 1 10.47 9.09 49.27 49.27 0 0 0 12.4 16c1.74 1.39 2.34 4.24 3.43 6.43 2.52 5 5.27 9.75 11.1 11.69a168.14 168.14 0 0 1 17.67 6.46A8.32 8.32 0 0 1 254 1125c1 8.5 2 16.6 13.1 17.44.71 0 1.39.88 2.05 1.38a71.91 71.91 0 0 1 7.57 5.91 25.49 25.49 0 0 1 4.72 6.69c3.31 6.41 6.31 13 9.59 19.84 5.43-2.81 8.43-.28 11.53 3.78 6.89 9.06 14.24 17.67 21.48 26.58a15.76 15.76 0 0 0 3.13 2.75c5.63 4 13.1 5.4 16.76 12.16.4.79 2 1 3 1.34a39 39 0 0 1 5 2.2l706.89-957.52a36.47 36.47 0 0 0-9.31-7.39z" fill="#ffa1bb"></path><path d="M344 1221.57c-3.66-6.77-11.13-8.18-16.76-12.17a15.49 15.49 0 0 1-3.13-2.75c-7.24-8.81-14.59-17.52-21.48-26.58-3.1-4.06-6.11-6.58-11.53-3.78-3.29-6.84-6.29-13.43-9.59-19.84a25.73 25.73 0 0 0-4.72-6.69 71 71 0 0 0-7.58-5.91c-.65-.5-1.33-1.33-2-1.38-11.13-.84-12.12-8.94-13.1-17.44a8.32 8.32 0 0 0-3.63-5.91 169 169 0 0 0-17.67-6.46c-5.83-1.94-8.63-6.61-11.11-11.69-1.08-2.19-1.69-5-3.43-6.43a49.1 49.1 0 0 1-12.39-16 19.72 19.72 0 0 0-10.48-9.09 23.27 23.27 0 0 1-15.14-16.94 24.66 24.66 0 0 0-3.94-7.11c-1-1.64-2.85-3-3.3-4.72a8.73 8.73 0 0 0-5.25-5.76c-3.36-1.89-7.78-3.68-7.2-9.39-5.62 1.32-10.09.33-13.4-4.49a9 9 0 0 0-9.61-3.51c-1.44.31-3.06-.58-4.6-.58a17.63 17.63 0 0 0-5.5.63c-3.89 1.27-7.57 3-11.53 4.27-1.21.4-3.49.53-3.94-.13-2.25-3.25-5-1.28-7.57-1.26-3.46 0-6.94-.2-11.71-.38a17.07 17.07 0 0 1-4.75 3c-2.52.83-17.79-4.77-20.19-6.44-4.59.81-8.23 2.22-11.71 1.89-5.2-.48-8.78 1.69-12.62 4.44a68.54 68.54 0 0 1-14.61 8 11.5 11.5 0 0 1-5.86.7L0 1062.16c1.44-.71 2.88-1.49 4.27-2.25 3.91-2.17 6.28-3.66 10.37-1a10.12 10.12 0 0 0 7 0c4-1 7.57-2.22 12.09-1.08 2.52.63 5.63-1.62 8.48-2.53 2.3-.65 4.79-2.07 6.86-1.61a67.47 67.47 0 0 1 15.55 5 12.05 12.05 0 0 0 11.21.46 33.73 33.73 0 0 1 28.39-1.72c3.26 1.26 7.22.56 10.65 1.49 4.5 1.26 9.24 2.53 11.61 7.45.43.91 1.95 1.54 3.08 1.89 2.65.81 5.38 1.36 8.53 2.14a33.5 33.5 0 0 0 10.27 17.32c2.81 2.3 3.66 6.86 5.76 10.09 6.43 10.1 12.29 20.37 22.13 27.92 4.52 3.46 7.42 9 11.16 13.55 1.94 2.37 4.11 4.6 6.21 6.87 2.52 2.77 5 5.63 7.77 8.3 1.94 1.92 4.12 3.58 6.31 5.48a12.25 12.25 0 0 0 5.93 13.65c7.93 5.28 14.21 12.29 21.18 18.63a12 12 0 0 1 4 8c.65 5.17 2.52 9.39 7.74 11.91a17.19 17.19 0 0 1 6.79 7.17c2.7 4.9 7 7.87 11.16 11.18 6.64 5.3 10.52 12.62 15.14 20a26.59 26.59 0 0 1 25.77 18 40.93 40.93 0 0 0 7.27 10.23l39.55-53.61a40.37 40.37 0 0 0-5-2.2c-1.23-.34-2.82-.54-3.23-1.32z" fill="#fff"></path><path d="M772.94 26.75c9.92 6.87 21.48 11.16 30.29 19.74 2 1.94 3.84 4 6.13 6.39 3.38-.33 7.25-.89 11.13-1a8.37 8.37 0 0 1 4.51 1.6c6.36 4.42 10.75 11.54 19 13.33 1.39.3 2.32 2.34 3.56 3.48 4 3.74 7.14 8.83 14.06 7 1.11-.28 2.87 1.39 4.19 2.37A77.89 77.89 0 0 0 877.15 88a39.24 39.24 0 0 0 13.2 3.33 9 9 0 0 1 7.58 4.24 9.67 9.67 0 0 0 8.22 5c1.11 0 2.53 0 3.23.68 6.36 6.61 15.4 9.14 22.42 15.14 7.57 6.59 17.06 10.93 23.47 19.26 1.36 1.77 4.44 2.22 7 3.41.68 5.32 1.91 10.09 7.44 13.07 2.75 1.54 3.84 6 5.81 9a28.17 28.17 0 0 0 4.46 5.9c5.83 5.18 12 9.92 17.67 15.15 1.67 1.54 1.49 5.25 3.23 6.48 7 5.05 9.24 13.4 13.81 20 5.88 8.53 12.87 15.93 19.25 23.93a34.6 34.6 0 0 1 3.36 7.09 21 21 0 0 0 3.61 6.49A19.94 19.94 0 0 1 1047 256a7.22 7.22 0 0 0 2.52 4.24 36.79 36.79 0 0 1 9.34 7.35L1080 239c-1.49-.76-3-1.47-4.44-2.25a6.91 6.91 0 0 1-3.13-2.52c-2-4.7-6.39-6.59-10.27-8.91a20.17 20.17 0 0 1-10-10.83c-6.92-1.89-7.75-9.59-12.85-13.63-4-3.2-8.38-5.83-12.47-8.86a10.81 10.81 0 0 0-5.22-2.52c-5.83-.46-9.92-4-13.61-7.72-5-5.05-10.37-9.85-17.41-12.32a10.39 10.39 0 0 1-4.44-4.8q-10.94-19.32-21.51-38.94a18 18 0 0 1-.55-5.85c-3.66-1.14-8.23-1.44-11.31-3.74a140.5 140.5 0 0 1-25.56-23.51c-1.82-2.22-2.8-4.42-6.06-5-5.5-.9-10.09-3.13-10.25-10.09l-7.44-2.53c-5.05-7.57-9.59-14-14.34-20.94-4.44-.89-9.56-2.07-14.76-2.81-4.19-.6-5.5-5.7-10.73-5.45s-10.57-1.51-15.95-2.09a13.23 13.23 0 0 1-9.54-6.44c-2.32-5.78-8.2-7-11.38-11.43a76.25 76.25 0 0 0-7.12-6.92C809.87 8.56 797.55 3.23 783.87 0L767 22.92c2 1.23 4 2.5 5.94 3.83z" fill="#fff"></path><path d="M766.71 561.11a32 32 0 1 0 16.61 18 31.53 31.53 0 0 0-16.61-18z" fill="#ff5c8b"></path><path d="M881.27 236.72a32 32 0 1 0 18-16.64 31.68 31.68 0 0 0-18 16.64z" fill="#ff5c8b"></path><path d="M802.8 406.65a31.95 31.95 0 1 0 18-16.61 32 32 0 0 0-18 16.61z" fill="#ff5c8b"></path><path d="M565 936.67l28.1-38a31.45 31.45 0 0 0-28.68 34 32.28 32.28 0 0 0 .61 4z" fill="#ff5c8b"></path><path d="M688.17 731.25A32 32 0 1 0 671.79 792l32.38-43.92a31.75 31.75 0 0 0-16-16.83z" fill="#ff5c8b"></path><path d="M397.08 838.44a32 32 0 1 0 18-16.63 31.64 31.64 0 0 0-18 16.63z" fill="#ff5c8b"></path><path d="M648.34 370.56a32 32 0 1 0-16.63-18 32 32 0 0 0 16.63 18z" fill="#ff5c8b"></path><path d="M726.88 200.6a31.58 31.58 0 0 0 24.43.91 31.93 31.93 0 1 0-24.43-.91z" fill="#ff5c8b"></path><path d="M569.79 540.67a31.66 31.66 0 0 0 24.46 1 32 32 0 1 0-22-60 32 32 0 0 0-19 41 31.59 31.59 0 0 0 16.54 18z" fill="#ff5c8b"></path><path d="M285.45 1164.6l5.66 11.69a7.58 7.58 0 0 1 5.37-.89 31.43 31.43 0 0 0-11.03-10.8z" fill="#ff5c8b"></path><path d="M318.57 1008.5a32 32 0 1 0 18-16.58 31.64 31.64 0 0 0-18 16.58z" fill="#ff5c8b"></path><path d="M475.63 668.3a32 32 0 1 0 18-16.58 32 32 0 0 0-18 16.58z" fill="#ff5c8b"></path><path d="M848.58 531a31.65 31.65 0 0 0-1.31 23.27l30.82-41.87a31.76 31.76 0 0 0-29.51 18.5z" fill="#ff5c8b"></path><path d="M969.5 345.4a32 32 0 1 0-12.94 61l30.28-40.89c-.2-.68-.3-1.36-.53-2a31.72 31.72 0 0 0-16.81-18.11z" fill="#ff5c8b"></path><path d="M1004.64 215.36a31.51 31.51 0 0 0 31.19 20.78 11.68 11.68 0 0 0-1.69-3.34c-6.38-8-13.38-15.39-19.26-23.92-3.56-5-5.78-11.31-9.87-16.21a31.75 31.75 0 0 0-.37 22.69z" fill="#ff5c8b"></path><path d="M599 647a32 32 0 1 0 1-24.54 32 32 0 0 0-1 24.54z" fill="#ff5c8b"></path><path d="M677.51 477a32 32 0 1 0 19-41.1 31.91 31.91 0 0 0-19 40.92z" fill="#ff5c8b"></path><path d="M83.29 978.09a31.73 31.73 0 0 0-10.6-14.29l-37.86 51.41a29.53 29.53 0 0 0 12.37 5.25 14.72 14.72 0 0 1 8.73-2c3.48.33 7.12-1.08 11.71-1.89l1 .5a31.93 31.93 0 0 0 14.65-38.98z" fill="#ff5c8b"></path><path d="M520.45 817.14a32 32 0 1 0 19-41.1 32 32 0 0 0-19 41.1z" fill="#ff5c8b"></path><path d="M406.8 1117.2a32 32 0 0 0-26.83 58 31.07 31.07 0 0 0 7.3 2.27l34.22-46.34a31.5 31.5 0 0 0-14.69-13.93z" fill="#ff5c8b"></path><path d="M485.32 947.12a31.94 31.94 0 1 0 16.61 17.94 32 32 0 0 0-16.61-17.94z" fill="#ff5c8b"></path><path d="M756 307a31.93 31.93 0 1 0-.11-.3z" fill="#ff5c8b"></path><path d="M851.11 154.82a31.62 31.62 0 0 0 24.5.93 32 32 0 0 0 2.33-59 31.61 31.61 0 0 0-24.46-1 32 32 0 0 0-18.93 41.06 31.56 31.56 0 0 0 16.56 18.01z" fill="#ff5c8b"></path><path d="M272.78 884.22a18.12 18.12 0 1 1 .08 0z" fill="#ff5c8b"></path><path d="M234.37 1097.69a31.91 31.91 0 1 0-43-30.08 36.11 36.11 0 0 0 3.81 2 19.75 19.75 0 0 1 10.48 9.08 48.89 48.89 0 0 0 12.39 16 11.78 11.78 0 0 1 2.8 5 31.4 31.4 0 0 0 13.52-2z" fill="#ff5c8b"></path><path d="M366.92 756.54a32 32 0 1 0-16.58-18 32 32 0 0 0 16.58 18z" fill="#ff5c8b"></path><path d="M445.47 586.43a32 32 0 1 0-16.61-18 32 32 0 0 0 16.61 18z" fill="#ff5c8b"></path><path d="M507.3 398.37a32 32 0 1 0 19-41.06 31.23 31.23 0 0 0-12.62 8.86l-3.43 4.64a31.82 31.82 0 0 0-2.95 27.56z" fill="#ff5c8b"></path><path d="M627 247.34a32 32 0 0 0 12.62-51.66l-37.32 50.48a1.38 1.38 0 0 1 .33.2 31.87 31.87 0 0 0 24.37.98z" fill="#ff5c8b"></path><path d="M190.91 914.36a32 32 0 1 0 15.4 41.86 32 32 0 0 0-15.4-41.86z" fill="#ff5c8b"></path><path d="M345.62 633.25a31.77 31.77 0 0 0 10.43-53.54l-37.61 51a30.14 30.14 0 0 0 2.7 1.57 32.12 32.12 0 0 0 24.48.97z" fill="#ff5c8b"></path><path d="M285.2 786.7a32 32 0 1 0-18 16.61 32 32 0 0 0 18-16.61z" fill="#ff5c8b"></path></g></g></g></svg>