<svg xmlns="http://www.w3.org/2000/svg" width="1077.17" height="1835.37" viewBox="0 0 1077.15576171875 1835.3699951171875" style=""><g><title>FxVector1_358063838</title><g data-name="Layer 2"><g data-name="Layer 1"><path d="M887 1298.37l-37.7-24.93H186.51l95.72-33.08-72.17-764.07A74.57 74.57 0 0 0 115 521.93q-.93 2.66-1.66 5.38L26.47 851.47a567.88 567.88 0 0 0-3.39 281.78l69.25 285.93L0 1835.37h650.11l-63.63-317.78z" fill="#ffcec8"></path><path d="M721.51 882a79.65 79.65 0 0 1 34-107.37 80.78 80.78 0 0 1 3.75-1.82l228.56-107.16A62.64 62.64 0 0 1 1070 692a62.56 62.56 0 0 1-22.24 82.1L835 910.11a79.64 79.64 0 0 1-110.29-22.84c-1.13-1.73-2.2-3.51-3.2-5.27z" fill="#ffcec8"></path><path fill="#545ed7" d="M166.43 0h705.05v1274.06H166.43z"></path><path d="M198.29 0H827a76.33 76.33 0 0 1 76.33 76.33v1121.4a76.34 76.34 0 0 1-76.33 76.33H198.29V0z" fill="#ff7867"></path><path fill="#fff" d="M221.29 99.03h659.04v1076.08H221.29z"></path><path d="M581.32 58h-86.1a1.77 1.77 0 1 1 0-3.54h86.1a1.77 1.77 0 0 1 0 3.54z" fill="#fff"></path><path d="M610.87 65.79a9.69 9.69 0 1 1 .47 0zm0-15.39a6.07 6.07 0 0 0-6 6.08 6 6 0 1 0 6.23-6.31h-.23z" fill="#fff"></path><path fill="#ffe7d7" d="M255.38 265.69h581.55V943.5H255.38z"></path><path fill="#d9dbff" d="M255.38 223.53h238.07v5.69H255.38z"></path><path fill="#d9dbff" d="M255.38 194.98h574.47v5.69H255.38z"></path><path fill="#d9dbff" d="M255.38 166.43h574.47v5.69H255.38z"></path><path fill="#d9dbff" d="M255.38 1035.99h238.07v5.69H255.38z"></path><path fill="#d9dbff" d="M255.38 1007.52h574.47v5.69H255.38z"></path><path fill="#d9dbff" d="M255.38 978.97h574.47v5.69H255.38z"></path><circle cx="542.62" cy="593.3" r="201.75" fill="#ff9d5a"></circle><circle cx="542.62" cy="593.4" r="142.5" fill="#ffaf78"></circle><path d="M542.62 740a146.2 146.2 0 1 1 146.19-146.21A146.2 146.2 0 0 1 542.62 740zm0-284.7a97.94 97.94 0 1 0 .23-.23h-.23z" fill="#fff"></path><path d="M536.15 661.65a3.77 3.77 0 0 1-1.07-2.77v-11.39a50.59 50.59 0 0 1-19.47-5.23 32.39 32.39 0 0 1-12.47-10.69 26 26 0 0 1-4.69-13.7 3.15 3.15 0 0 1 1-2.23 3.22 3.22 0 0 1 2.46-1h7.7a4.32 4.32 0 0 1 4.23 3.23 19.24 19.24 0 0 0 8.31 11.77 33.4 33.4 0 0 0 19.7 4.93 35.54 35.54 0 0 0 20.54-4.85 15.39 15.39 0 0 0 6.85-13.47 13 13 0 0 0-3.31-9.08 27.61 27.61 0 0 0-9.92-6.23c-4.39-1.77-10.93-4-19.7-6.54a102.29 102.29 0 0 1-19.93-7.69 29.63 29.63 0 0 1-11.16-10 27.72 27.72 0 0 1-3.69-15.39 26.76 26.76 0 0 1 8.85-20.39 40.57 40.57 0 0 1 24.62-9.7v-11.16a3.51 3.51 0 0 1 1.15-2.38 3.66 3.66 0 0 1 2.7-1h5.84a3.21 3.21 0 0 1 2.54 1.07 3.53 3.53 0 0 1 1 2.7v11.31a43.7 43.7 0 0 1 17.86 5.85 33.24 33.24 0 0 1 11.23 10.61 25.29 25.29 0 0 1 4.15 12.24 3.35 3.35 0 0 1-1 2.38 3.13 3.13 0 0 1-2.46 1h-8.08a4.73 4.73 0 0 1-2.54-.84 3.83 3.83 0 0 1-1.54-2.39 16.13 16.13 0 0 0-7.69-11.54 30.16 30.16 0 0 0-17-4.54 31.39 31.39 0 0 0-17.47 4.31 14.21 14.21 0 0 0-6.46 12.7 13.72 13.72 0 0 0 3 9.23 25.3 25.3 0 0 0 9.23 6.39 185.33 185.33 0 0 0 18 6.3 127.22 127.22 0 0 1 21.78 7.7 28.66 28.66 0 0 1 11.76 9.62 25.92 25.92 0 0 1 3.93 14.85 27.89 27.89 0 0 1-9.85 22.16 45.49 45.49 0 0 1-26.78 9.77v11.16a3.73 3.73 0 0 1-1 2.69 3.24 3.24 0 0 1-2.54 1h-5.85a4 4 0 0 1-2.76-.77z" fill="#fff"></path><path d="M959.35 1200.5c15.39 34.55 0 73.87-33.24 86.1l-181.59 67.17a50.55 50.55 0 0 1-62.94-29.08 50.79 50.79 0 0 1 20.31-65.33L872.17 1167c31.83-17 71.83-1.67 87.18 33.5z" fill="#ffcec8"></path><path d="M964.05 1048.61a76.11 76.11 0 0 1-34.5 101.94c-1.16.57-2.33 1.11-3.52 1.63l-220.6 98.26a59.87 59.87 0 0 1-78-26.86 59.86 59.86 0 0 1 23.08-78l205.83-126a76.1 76.1 0 0 1 104.89 24.09c.99 1.62 1.93 3.26 2.82 4.94z" fill="#ffcec8"></path><path d="M937.5 914.11a76.09 76.09 0 0 1-33 102.42q-1.74.88-3.51 1.68l-219.1 101.26a59.94 59.94 0 0 1-78.41-25.69 59.72 59.72 0 0 1 21.78-78.34l203.9-129a76.18 76.18 0 0 1 105.34 22.61q1.59 2.48 3 5.06z" fill="#ffcec8"></path><path d="M731.83 1356.39a59.17 59.17 0 0 1-26.78-6.39 57.23 57.23 0 0 1-29.32-35.55l-.46-1.61a48.36 48.36 0 0 1 8.39-36.47 2.85 2.85 0 1 1 5.09 2.55 3 3 0 0 1-.55.75 43.74 43.74 0 0 0-7.7 31.86v1.31a51.78 51.78 0 0 0 26.39 32.08 53.86 53.86 0 0 0 42.4 2.7l106.57-38.47a2.84 2.84 0 0 1 1.92 5.3l-106.56 38.48a59.64 59.64 0 0 1-19.39 3.46z" fill="#ff9c91"></path><path d="M787.15 1217a2.85 2.85 0 0 1-1.18-5.45l111.19-49.32a2.77 2.77 0 0 1 3.68 1.35 2.84 2.84 0 0 1-1.38 3.77l-111.19 49.4a3 3 0 0 1-1.12.25z" fill="#ff9c91"></path><path d="M742.91 1094.08a2.69 2.69 0 0 1-2.54-1.54 2.84 2.84 0 0 1 1.26-3.82l157.2-78.1a2.83 2.83 0 0 1 3.77 1.31 2.76 2.76 0 0 1-1.21 3.72h-.09l-157.43 78.17a3.16 3.16 0 0 1-.96.26z" fill="#ff9c91"></path><path d="M305.32 1801.52l-1.93-.62a.94.94 0 0 0 0-.77l-1.23-.38c-.46 0-.69 0-.77.61l-3.69-1.23a4.93 4.93 0 0 0 3.23 6.08 4.36 4.36 0 0 0 3.54 0 4.65 4.65 0 0 0 2.46-2.92l-1.84-.62z" fill="#ffb6ad"></path><path d="M395.81 1702l.61.61 1.08.77a7.65 7.65 0 0 0 4.69.54 3.14 3.14 0 0 1-1.77 0h2.85l1.85-.77 2.07-1.92c0-.62.47-1.16.7-1.7a7.68 7.68 0 0 0-2.93-9.69l-2.46-.69h-1.69l-2.31 1a11.14 11.14 0 0 0-3.85 5.15 7.69 7.69 0 0 0 0 5.7z" fill="#ffb6ad"></path><path d="M417.2 1711.49l-.39 1.62v2.89a6.38 6.38 0 0 0 4.7 3.69 7.67 7.67 0 0 0 6.61-2.54l1.16-3.38-.39-2.31-2.23-2.92a7 7 0 0 0-9.46 2.92z" fill="#ffb6ad"></path><path d="M341.33 1669.4l.61-1.54 1.31-1.54v-4.07l-.84-1.77v-.7a6.36 6.36 0 0 0-4.47-2.77l-2.61.54-1.54 1-1.69 2.08-.54 1.77a8.23 8.23 0 0 0-1.08 2.08 6.15 6.15 0 0 0 4.22 7.61l.32.08h3.08l1.92-.92z" fill="#ffb6ad"></path><path d="M84.64 1592.3l-1.64-1.15-1.39-.54h-2.13a5.93 5.93 0 0 0-5 4.31 6.7 6.7 0 0 0 3.31 7.69 6.4 6.4 0 0 0 7.7-1.61l.61-3.77-.77-2.23a7.23 7.23 0 0 0-.69-2.7z" fill="#ffb6ad"></path><path d="M226.45 1635.24h-2.15l-1.39.69-1.62 1.46a7 7 0 0 0-.77 1.7 8.75 8.75 0 0 0 0 4.07 4.56 4.56 0 0 1 0-1.38v2.61l.7 2.08 2.23 2.39a7.67 7.67 0 0 0 5.69 0 6.77 6.77 0 0 0 3.62-4.08 7.75 7.75 0 0 0-.92-6.62 7.27 7.27 0 0 0-5.39-2.92z" fill="#ffb6ad"></path><path d="M150.89 1592.61H148l-1.85.85-1.92 2.31v4l.84 1.84v.62a6.72 6.72 0 0 0 4.39 2.77l2.61-.54 1.62-.92 1.69-2.08.54-1.85v-2.92l-.85-1.85-2.3-1.92z" fill="#ffb6ad"></path><path d="M319 1636.47a7.7 7.7 0 0 0-4.46 4.85v.77h-.77l-1.77 1.46-.61 1.31a1.3 1.3 0 0 0-.54.38l-1.39 2.62v2l.85 2.77a1.53 1.53 0 0 0 .54 1.15 15.34 15.34 0 0 0 1.69 3.39l3.62 1.61h2.46l3.15-2.38a16 16 0 0 1 1.54-2.93 31.2 31.2 0 0 0 1.54-2.77v-1.92a7.67 7.67 0 0 0 3.23-4.15 6.69 6.69 0 0 0 0-5.16 9.6 9.6 0 0 0 3.7 0 2.53 2.53 0 0 1-1.16 0h3.54l2.08-.92 2.15-2.39v.46l.54-.61a11.5 11.5 0 0 0 2.16-3.54 7.14 7.14 0 0 0-.85-6l-2.14-1.47-1.77-.53h-2.62a6.8 6.8 0 0 0-.61-1.31 6.92 6.92 0 0 0-4.93-3.23l-2.38.38-1.54.77-1.77 1.77-.46 1.31a6.83 6.83 0 0 0 2.69 8.15v2.85l.46 1a6.93 6.93 0 0 0-6.17.31z" fill="#ffb6ad"></path><path d="M227.76 1589.3l-2.39-2.15-1.77-.54h-2.92l-1.77.84-2 2.24v.38a8.71 8.71 0 0 0 0 6.08l.54.85.46.61.77.69a6.44 6.44 0 0 0 5.69 1.16 6.31 6.31 0 0 0 4-4.23 3.62 3.62 0 0 0 0-.93v-3.15z" fill="#ffb6ad"></path><path d="M412.58 1689.79a5.84 5.84 0 0 0 7.23-1.08 5.27 5.27 0 0 0 2.46-3 5.46 5.46 0 0 0-3.23-6.77 6.39 6.39 0 0 0-5.31 0 6.64 6.64 0 0 0-3.54 3.93 6.08 6.08 0 0 0 2.39 6.92z" fill="#ffb6ad"></path><path d="M514 1719l-1.3-1.92a6.39 6.39 0 0 0-7.7 0 5.68 5.68 0 0 0-1.92.92 4.76 4.76 0 0 0-1.39-.69h-2.84l-2.08 1v2.08a3.77 3.77 0 0 0-.46 1v2.08a3.41 3.41 0 0 0 0 2l.46 1.31a4.54 4.54 0 0 0 2.61 1.38 4 4 0 0 0 1.62 0 5.66 5.66 0 0 0 1.38-.54 6.71 6.71 0 0 0 4.16 2.46l2.69-.46 1.62-.92 1.77-2.15 1.15-3.62v-2.31z" fill="#ffb6ad"></path><path d="M140 1483.27a6.25 6.25 0 0 0 .62 5.39 5.76 5.76 0 0 0 4.23 2.61l2.54-.61.77-.54h.84l2.46-2.92v-4.47l-.85-1.77a6 6 0 0 0-5.85-2.15 6.46 6.46 0 0 0-4.76 4.46z" fill="#ffb6ad"></path><path fill="#ffb6ad" d="M147.97 1551.68l-2.93.23-1.77.92-2 2.23-.54 1.77.23 3 .93 1.77 2.23 1.93 1.77.61 3-.23 1.77-.92 1.92-2.23.62-1.85-.23-2.93-.93-1.84-2.3-1.93-1.77-.53z"></path><path d="M237 1523.28l2.85.54 1.92-.46 2-.85 2.16-2.38.38-1.16v-2.84l-.84-1.85v-.61a6.37 6.37 0 0 0-4.54-2.77l-2.77.69-1.62 1.08-1.54 2.38a6.08 6.08 0 0 0 2 8.23z" fill="#ffb6ad"></path><path d="M487.22 1627.77h-3.62l-2.08 1.16-1.77 2.15v1a6.49 6.49 0 0 0-3.92 3.85v3.16l.69 1.69a9.55 9.55 0 0 0 6.16 3.77h2.23l1.46-.62 1.77-1.46a7.15 7.15 0 0 0 .77-1.69 5.22 5.22 0 0 0 0-1.93l1.38-1.53.54-1.24a6.92 6.92 0 0 0-3.61-8.31z" fill="#ffb6ad"></path><path d="M116.73 1484a6.75 6.75 0 0 0 6.15 1.08 6.46 6.46 0 0 0 4.16-4.54l.46-1.61v-2.54l-.85-1.62-1.77-1.77a6.78 6.78 0 0 0-9 3.13l-.18.41v5.08z" fill="#ffb6ad"></path><path d="M225.22 1538.52l.61 2v.92a6 6 0 0 0 2.16 2.16l3.15.46 2-.62 1-.46a5.94 5.94 0 0 0 2.16-2.15v-3.16l-.62-2v-.85a7 7 0 0 0-2.23-2.3h-3.08l-2 .61-1 .39a6.69 6.69 0 0 0-2.15 2.15z" fill="#ffb6ad"></path><path d="M344.79 1572.37v-1.07a6.07 6.07 0 0 0-5.15-6.16 6.48 6.48 0 0 0-7.7 4.23 6.16 6.16 0 0 0 2.31 6.85 5.58 5.58 0 0 0 5.15.92 6.9 6.9 0 0 0 4.7-4.23z" fill="#ffb6ad"></path><path d="M260.07 1555.83l2.08 1.62 1.85.61h2.92l1.77-.92 1.93-2.23.46-1.23v-2.77l-.77-1.7v-.46a6 6 0 0 0-2.23-2.23l-3.16-.38-2.08.69-1.07.54a7.65 7.65 0 0 0-2.54 3.38v.54l.54 2.92z" fill="#ffb6ad"></path><path d="M205.29 1552.75l-2.69.46-1.7.93-1.69 2.15-.77 2.39v3l.85 1.77 2.31 1.92 1.77.62 3.3-.46 1.85-1.24 1.77-2.69v-.54a6.76 6.76 0 0 0-4.83-8.26z" fill="#ffb6ad"></path><path d="M365.57 1606.77l-.77-1-.62-.62-1-.69a6.81 6.81 0 0 0-5.85 0 6.9 6.9 0 0 0-3.84 4.54 3.91 3.91 0 0 0 0 1.08l.46 2.84 1 1.7 2.23 1.69a7.23 7.23 0 0 0 9.23-4.31 6.25 6.25 0 0 0-.84-5.23z" fill="#ffb6ad"></path><path d="M216.06 1560.91a6.62 6.62 0 0 0 5.7 0 5.83 5.83 0 0 0 3.07-3.54 7.46 7.46 0 0 0 0-2.31l-.84-2.38-1.08-1.39-2.08-1.31a7.69 7.69 0 0 0-7.69 1.85l-.93 3.85.7 2.38z" fill="#ffb6ad"></path><path d="M320.71 1607.46l-.62 1.77v2.92l.91 1.85 2.23 1.92 1.84.54H328l1.77-.84 1.92-2.31.39-1.16v-2.84l-.77-1.77-.47-.69a6 6 0 0 0-4.46-2.77l-2.61.53-1.54 1z" fill="#ffb6ad"></path><path d="M418.35 1639.16a10.54 10.54 0 0 0-1.23 2.23 6 6 0 0 0 2.85 7.08l1.92.62h1.39l1.92-.39a7.68 7.68 0 0 0 3.85-4.46 6.62 6.62 0 0 0-3.93-8.46l-3.54.46-1.92 1.31-1.46 2a1.63 1.63 0 0 1 0-.54z" fill="#ffb6ad"></path><path d="M335.33 1565.6a6.38 6.38 0 0 0 5.38-4.38 16.55 16.55 0 0 0 .39-2.08l-.62-2.39-1-1.46-1.92-1.54a7 7 0 0 0-8.16 2.39l-.77 2v1.54l.46 2.15a6.61 6.61 0 0 0 6.24 3.77z" fill="#ffb6ad"></path><path d="M354.87 1576.76l.54 1.15a6.74 6.74 0 0 0 4.54 2.85l2.62-.54 1.53-1 1.7-2.08v-4.23l-.62-1.69a6.23 6.23 0 0 0-10.77 0l-.46 3.23z" fill="#ffb6ad"></path><path d="M169.2 1602.61l2.23 1.93 1.85.54h2.92l1.77-.93 1.93-2.23v-4l-.77-1.85v-.61a6.23 6.23 0 0 0-4.54-2.77l-2.62.54-1.54.92-1.61 2.08-.62 1.84v2.93z" fill="#ffb6ad"></path><path d="M183.74 1533.36a6.92 6.92 0 0 0 7.7-4.69 9.92 9.92 0 0 0 0-2.31v-2.77a8.54 8.54 0 0 0-8.08-4 7.17 7.17 0 0 0-6.16 4.69v2a7.69 7.69 0 0 0 6.54 7.08z" fill="#ffb6ad"></path><path d="M273.39 1548.75a8.39 8.39 0 0 0 0 6l.77 1.16.69.77 1.15.84a7.61 7.61 0 0 0 3.85.62 8.68 8.68 0 0 0-1.23 2.38 5.36 5.36 0 0 0-.39 1.93l.39 1.61h-1.93l-1.53.77-1.77 1.85a11 11 0 0 0-.62 1.46 9 9 0 0 0 0 5.54l1 1.62.92.92 1.54 1a7.07 7.07 0 0 0 9.16-4c0-.06.05-.13.08-.19a6.55 6.55 0 0 0 0-3.62h1l1.3-.38a8.36 8.36 0 0 0 3.62-10l-1.15-1.39-1.08-.85-1.77-.69a12.47 12.47 0 0 0-3.23 0 9.19 9.19 0 0 0 1.54-2.77 8.42 8.42 0 0 0 0-1.23v-2.69l-.93-1.62-2.07-1.79a7.13 7.13 0 0 0-4.24 0h-1.69l-3.23 2.62z" fill="#ffb6ad"></path><path d="M124.5 1538.21l-1.54 1-1.62 2.08-.77 2.38v2.77l.77 1.7 1.93 2a7.68 7.68 0 0 0 6.46 0 7.66 7.66 0 0 0 4.15 2.61h3.39l1.62-.92a7.69 7.69 0 0 0-1.16-13l-3.15-.77h-2.08l-1.54 1a7 7 0 0 0-3.92-1.62z" fill="#ffb6ad"></path><path d="M130.35 1550.14l.61.46a2.43 2.43 0 0 1-.85 0z" fill="#ffb6ad"></path><path d="M49.94 1777.43l-1.46 2.85-.62 1v2.46l1.92 3.46-.54-.38a7.72 7.72 0 0 0 4.85 2.46l2.39-.54 1.54-.84 1.54-1.85a5.36 5.36 0 0 0 .46-1.31 5.85 5.85 0 0 0 .46-1.84 7.43 7.43 0 0 0 1.46-1.7l-1.69-1.3a1.38 1.38 0 0 0 0-.7l-1.16.39 3.16-.7-.54-2.92-1.08-1.92a5.63 5.63 0 0 0-8.85.77v1.07l-.69 1.24z" fill="#ffb6ad"></path><path d="M80.79 1788.44l.54 2.53.92 1.54 2.16 1.7 1.15.38h2.93l1.84-.92 1.93-2.23.61-1.85v-2.77l-.77-1.77-2.07-2a7.25 7.25 0 0 0-2.16-.46 6.17 6.17 0 0 0-2.92-7.24l-3.54-.38-2.16.85-1.92 2.07-1.15 3.11.46 2.46 2.61 3 1.16.38h1v.54a8.18 8.18 0 0 0-.62 1.06z" fill="#ffb6ad"></path><path d="M195.06 1831.76h18.46v-.54h.48a7.54 7.54 0 0 0 1.31-2.47 5.8 5.8 0 0 0-2.69-7 7.69 7.69 0 0 0-5.08-3.15 6.07 6.07 0 0 0-5.39 1.54l-.92 1.61h-3.77a7 7 0 0 0-3.54 4.08 7 7 0 0 0 .46 5.31c.21.21.44.42.68.62z" fill="#ffb6ad"></path><path d="M118.65 1795l1.46-.85 1.62-1.92a4.26 4.26 0 0 0 .46-1.23 6.77 6.77 0 0 0-3.41-9l-.13-.06h-2.77l-1.54.39a6.94 6.94 0 0 0-3.77 4.46 6.68 6.68 0 0 0 .62 5.85 6.45 6.45 0 0 0 5 3.08z" fill="#ffb6ad"></path><path d="M117.19 1808.21l.84 1.23.77.85 1.23.84a8.55 8.55 0 0 0 9.78-1.15l.77-2.08a7 7 0 0 0 .53-.77 6.31 6.31 0 0 0 4.39 2.31l2.39-.61 1.53-.93 1.62-2.07a7.68 7.68 0 0 0 0-5 6.46 6.46 0 0 0 2.77-3.46 6.27 6.27 0 0 0-.62-5.38 6.89 6.89 0 0 0-5-3.08l-2.54.54-1.61 1-1.62 2.07-.77 2.39v2.85l.46 1-.69.84a14.35 14.35 0 0 0-3.54-2.69l-.77-.54-1.84-.69h-3.47a9.43 9.43 0 0 0-4.38 5.38 6.92 6.92 0 0 0 0 3.93 6.22 6.22 0 0 0-.23 3.22z" fill="#ffb6ad"></path><path d="M152.12 1824.22a7.07 7.07 0 0 0 8.92-4.54 16.07 16.07 0 0 0 0-1.7l-.47-2.31-.76-1.46-1.7-1.61a7.7 7.7 0 0 0-6.46-.47 7.25 7.25 0 0 0-4 4.54v1.39l.69 3 1.23 1.62z" fill="#ffb6ad"></path><path d="M187.67 1750.42a13.23 13.23 0 0 0 .38-2.07l-.77-2.62-1.15-1.54h-.54a7.7 7.7 0 0 0-4.77-5.46h-3.15l-1.93 1-.77.92a4.66 4.66 0 0 0-1.92 1 4.39 4.39 0 0 0-1.23 1.16H170l.46-1.08v-1.54l.54-.54h-.61l2.23-1.31 1.23-1.77v-1.77l.46-.38 2.31.69h2l2.54-1.31a8.3 8.3 0 0 0 1.54-2.61 6.79 6.79 0 0 0 0-3.23l.46-1.54v-3.54l-1-1.85v-.46a11.57 11.57 0 0 0-2.92-3l-1.31-.54h-2.39a6.56 6.56 0 0 0-3.38 1.54l-2 1-2 2.62a4.4 4.4 0 0 1-1 .69h-.53l-1.7.61-1.92 1.62a7.05 7.05 0 0 0-.85 1.69 9.55 9.55 0 0 0 0 2 1.57 1.57 0 0 1-.61 1.46 9 9 0 0 0 0 1.47 8.83 8.83 0 0 0-7.16.61l-2.38 2.23-.85 2.08v3.23a7.53 7.53 0 0 0 1.77 2.08 11.39 11.39 0 0 0 .92 2.46v2l2.23 3.23h-.46a7.9 7.9 0 0 0 1.16 1.08H156a6.09 6.09 0 0 0-6.23 3.85v-1.46l-.46-1.93-1.85-2.38a6.75 6.75 0 0 0-5.92-.54 6.93 6.93 0 0 0-4 4.39 7.65 7.65 0 0 0 .46 5.84l.54.77v.46l.69.62a9.16 9.16 0 0 0 1.92.92l-.53.85-.47.92a7.17 7.17 0 0 0 0 5.31 8.18 8.18 0 0 0 3.47 7.7l1.84.69h.93v.61l.54 1.16L148 1780a6.24 6.24 0 0 0 5.62 1.23l1.31-.54 1.46.7h2.38a4.77 4.77 0 0 0 1.47-.47l1.92 1.24 1.92.38a10.22 10.22 0 0 0 2.93 1.69h3.31l1.84-.69a7 7 0 0 0 2.47-3.54 8.9 8.9 0 0 0 0-4.23l1.46-1 1-1.08.84-1.46a7.05 7.05 0 0 0-3.69-8.46 5.69 5.69 0 0 0-5.85.92v-.39a6.19 6.19 0 0 0 0-2.84h6.08l2.16-1.54 1.46-4.23a3.19 3.19 0 0 1 0 2.07 1 1 0 0 1 0-.53 10 10 0 0 0 1.46-2.39h3.08l3.23-2.62v.62a7.6 7.6 0 0 0 1.81-2.42zm-20.78 7.7h-.69a6.93 6.93 0 0 0-2.08-2.23 5.63 5.63 0 0 0-2.54-2.31h-1l-1.3-.92a7.3 7.3 0 0 0 5.31-1.77 7.73 7.73 0 0 0 0 2.54l.84 1.53v.62l.46 1.85 1.16 1.77z" fill="#ffb6ad"></path><path d="M82.18 1718.57l2.15-.54 1.39-.77 1.46-1.61a7.26 7.26 0 0 0 .61-1.54 8.45 8.45 0 0 0 0-5.7L87 1707l-.93-.85-1.38-1a7.09 7.09 0 0 0-8.31 2.39l-.54 3.69v.62a6.15 6.15 0 0 0 5.5 6.74 6.62 6.62 0 0 0 .84-.02z" fill="#ffb6ad"></path><path d="M289.93 1797.28a6.08 6.08 0 0 0-8.05 3 5.6 5.6 0 0 0-.26.68 5.13 5.13 0 0 0-.39 1.54l.62 2.54 1 1.46 2.08 1.54 1.15.38h2.77l1.69-.77h.46a7.62 7.62 0 0 0 2.23-2.08v-3.84l-1.08-2.16z" fill="#ffb6ad"></path><path d="M240.92 1797.59h1.23a7.69 7.69 0 0 0 6.38-5.46h1.16l.92-.46h.85l3.38-2.62a8.24 8.24 0 0 0 0-4.77l-.92-1.77-1-1-1.62-1-1.15-.38h-1.39v-.47l-.77-1.38-1.77-1.62a7.23 7.23 0 0 0-4.69-.54 3.68 3.68 0 0 1 1.92 0H240l-1.92 1.08-2 2.39a17.55 17.55 0 0 0 0 7v.69a8.4 8.4 0 0 0 0 6.77 6.89 6.89 0 0 0 4.23 3.23z" fill="#ffb6ad"></path><path d="M140.35 1725.73l-3.62-.62-2.31.85-2.42 2.54a8.43 8.43 0 0 0 0 6.92 2 2 0 0 0 0 .69v1.62l.61 1.08 1.08 1.3a6.46 6.46 0 0 0 5.77.93 7.72 7.72 0 0 0 4.77-4.7 6.15 6.15 0 0 0-2-6.61 7.61 7.61 0 0 0-1.88-4z" fill="#ffb6ad"></path><path d="M67.56 1716.11l-2.39-.77h-2.92l-1.85.92-1.92 2.31-.54 1.77v3l1.15 2.39 2 1.61 2.54 1.08h2.31l3.08-2a2.08 2.08 0 0 1 0 .61 8 8 0 0 0 2.15-3.23 9.9 9.9 0 0 0 0-1.54l-.53-2.61-1-1.54z" fill="#ffb6ad"></path><path d="M155 1640.16l1.77 3a3.74 3.74 0 0 1-1.3-1.46 7.68 7.68 0 0 0 6.54 5l2.54-.69 1.53-1 1.54-2.15a8.46 8.46 0 0 0-3.61-8.85 6.47 6.47 0 0 0-7.7.38l-1.38 3.23z" fill="#ffb6ad"></path><path d="M223.22 1666.32l.84-.46a6.08 6.08 0 0 0 2.24-2.15v-3.08l-.62-2v-.92a6.23 6.23 0 0 0-2.08-2.16l-3.15-.54-2.08.62-.92.46a6 6 0 0 0-2.23 2.15l-.39 3.16.62 2 .46.92a6 6 0 0 0 2.15 2.23l3.08.39z" fill="#ffb6ad"></path><path d="M336.63 1679.56l-3.15-.46-2.08.61-1 .39a7.19 7.19 0 0 0-2.15 2.07v3.24l.61 2v.92a6.38 6.38 0 0 0 2.08 2.15l3.16.47 2.07-.62 1-.46a6.27 6.27 0 0 0 2.08-2.08l.46-3.15-.61-2.08-.46-.92a6.55 6.55 0 0 0-2.01-2.08z" fill="#ffb6ad"></path><path d="M183.51 1610.92l-1.15.46-1.39 1a5.83 5.83 0 0 0-1.3 2.23 7 7 0 0 0 3.77 8.38 6 6 0 0 0 7.69-2.92v-3.77a6 6 0 0 0-5.77-5.54z" fill="#ffb6ad"></path><path d="M352.72 1682.17l2-.53a7.15 7.15 0 0 0 3.07-3.93 7.67 7.67 0 0 0-.46-6.08v-.92a8.07 8.07 0 0 0 0-1.39l-.46-2.3-.77-1.47-1.69-1.61a6.61 6.61 0 0 0-6.23 0h-.54l-2.16.69-2.46 2.46-1 3v2.7l.69 1.69 1.85 2a7.72 7.72 0 0 0 3.77 5.16l2 .53z" fill="#ffb6ad"></path><path d="M290.85 1660.63a6.55 6.55 0 0 0-3.46 0 5.77 5.77 0 0 0-4.23 3.85v.84l.54 2.85.54.85v.92l2.46 2.23 1.15.39h3.31l1.77-.85a7.71 7.71 0 0 0 2-2.92 6.31 6.31 0 0 0-3.81-8.07z" fill="#ffb6ad"></path><path fill="#ffb6ad" d="M212.52 1627.16l-2.23-1.93-1.77-.61-3 .23-1.77.92-1.92 2.24-.62 1.77.23 3 .93 1.77 2.23 1.92 1.84.62 2.93-.24 1.84-.92 1.93-2.23.54-1.77-.23-3-.93-1.77z"></path><path d="M63.33 1808.67l-2.54.62-1.7 1.08-1.54 2.07-.84 2.39v2.61l.69 1.7 1.69 1.92a6.84 6.84 0 0 0 5.85.54 6.62 6.62 0 0 0 3.81-8.55 7.29 7.29 0 0 0-.58-1.15 6.64 6.64 0 0 0-4.84-3.23z" fill="#ffb6ad"></path><path d="M75.64 1810.37a7.74 7.74 0 0 0 4.08-4.93 7.17 7.17 0 0 0 0-1.31v-2.54l-.72-1.69-2-1.85a6.7 6.7 0 0 0-8.88 3.29c-.07.16-.14.32-.2.48a3.29 3.29 0 0 1 .54-.69l-1.15 3.39v2.31l2.15 2.92a6.7 6.7 0 0 0 6.18.62z" fill="#ffb6ad"></path><path d="M199.75 1415.56l1.92 1.85a7 7 0 0 0 5.85 0 6.66 6.66 0 0 0 3.54-4.16v-3.38l-.85-1.62-1.92-1.85a6.7 6.7 0 0 0-9 3 6.77 6.77 0 0 0-.48 1.3v3.23z" fill="#ffb6ad"></path><path d="M420.74 1603.69l-.39 3.31.69 2.08 2.39 2.38a7.2 7.2 0 0 0 4.31 0h1.61l3.24-2.61a6.23 6.23 0 0 0-3.08-8.08 7.14 7.14 0 0 0-8.77 2.92z" fill="#ffb6ad"></path><path d="M252.23 1583.76A6 6 0 0 0 249 1585h-3.7l-1.46.7a8.52 8.52 0 0 0-3.31 4.53v3.62l.46 1.31 1.16 1.69a6.65 6.65 0 0 0 6.23 1.46 6.38 6.38 0 0 0 3.08-2.07 5.66 5.66 0 0 0 3 0 6.46 6.46 0 0 0 3-10 5.86 5.86 0 0 0-5.23-2.48z" fill="#ffb6ad"></path><path d="M284.7 1599.77a6.77 6.77 0 0 0-3.47 4.07 7.7 7.7 0 0 0 4 9.39h2.69l1.54-.38a7 7 0 0 0 3.77-4.16 9.94 9.94 0 0 0 0-3.08l-.46-2.53-.85-1.54-1.85-1.77a7.06 7.06 0 0 0-5.37 0z" fill="#ffb6ad"></path><path d="M416 1554.06l1.84 1.92a6.69 6.69 0 0 0 8.85-2.15l-.61.54 1.69-3.77v-2.54l-2.7-3.16-2.38-.84h-2.92l-1.77.94-1.93 2.31-.84 2.39v2.61z" fill="#ffb6ad"></path><path d="M400 1557.6l-2.23 1.69a5.83 5.83 0 0 0 5.15 2.77 5.76 5.76 0 0 0 4.93-3.23l.46-2.77-.46-1.92h-1.08l1.15-.46-.77-1.85-2.15-2.23a6.93 6.93 0 0 0-8.23 2.38v4.31l1.31 2.31z" fill="#ffb6ad"></path><path d="M133.65 1479.5l1.08.62a7.15 7.15 0 0 0 1.69.77 5.63 5.63 0 0 0 6.91-3.93v-.08a6.45 6.45 0 0 0-.62-5.46 6 6 0 0 0-4.38-2.85h-1.62l-1.15.39-1.46.77a7.28 7.28 0 0 0-2.47 3.46v2.31l.62 1.85z" fill="#ffb6ad"></path><path d="M196.59 1504.28l2.93-.77 1.61-1.23 1.31-1.93a2.82 2.82 0 0 1-.77 1.31 7.63 7.63 0 0 0 2.08-3.08v-3.38l-.92-2a6.09 6.09 0 0 0-5.85-1.93 7.11 7.11 0 0 0-4.31 10.31 6 6 0 0 0 3.92 2.7z" fill="#ffb6ad"></path><path d="M257.84 1507.43l-1.54 1-1.53 2.08-.39 1.15v2.7l.77 1.77v.54a6.52 6.52 0 0 0 2.23 2.23h3.77l2.16-1.16v1l1.54 2.85a6.82 6.82 0 0 0 6.23 1.23 6.54 6.54 0 0 0 4.23-4.62v-4.3l-.77-1.77-1.92-2a6.23 6.23 0 0 0-7.7 1.92 6.71 6.71 0 0 0-.92-2.23 6.41 6.41 0 0 0-4.69-2.7z" fill="#ffb6ad"></path><path d="M196.83 1569.3a6.69 6.69 0 0 0-5.7 0 7.07 7.07 0 0 0-4 4.54v1.23l.46 2.77 1 1.61 2.23 1.77 1.31.85h4.39a8.34 8.34 0 0 0 3.69-10.08l-.77-1.08-.69-.61z" fill="#ffb6ad"></path><path d="M305.32 1611.69l.69.7 1.23.76 1.62.39v.85a6.38 6.38 0 0 0 4.54 2.77l2.61-.54 1.54-1 1.62-2.08v-4.16l-.69-1.69a7.67 7.67 0 0 0-2.62-2.38l-.62-1.7-1.61-2a7.1 7.1 0 0 0-6.16-.77 7.72 7.72 0 0 0-4.38 4.77 6.63 6.63 0 0 0 0 5.31z" fill="#ffb6ad"></path><path d="M248.15 1466.88v.39a6.75 6.75 0 0 0 2.31 2.38h3.77l2.23-1.23 1.84-2.31a13.19 13.19 0 0 0 0-1.54 6 6 0 0 0 4.85-2.84v-3.93a6.07 6.07 0 0 0-2.77-4.85l-2.77-.53h-1.92l-1.92 1a8.55 8.55 0 0 0-2.54 3.54 1.19 1.19 0 0 0 0 .53h-1.31l-1.46 1-1.62 2.08-.38 1.16v2.69z" fill="#ffb6ad"></path><path d="M310.32 1482.81a3.42 3.42 0 0 1-.46-1.31l3.23 3.16 2.69.38 2.77-.69-.61.38a7 7 0 0 0 4.84-4.54V1476a8.29 8.29 0 0 0-11-3.54l-.84.62-.54.54-.54.77a5.09 5.09 0 0 0-.77 1.61 7.25 7.25 0 0 0 1.23 6.7z" fill="#ffb6ad"></path><path d="M346.1 1495.66h2.69l1.54-.39A6.94 6.94 0 0 0 354 1491a7.66 7.66 0 0 0-.46-5.77 6.87 6.87 0 0 0-4.38-3.31h-2.7l-1.69.85-1.85 2-.46 1.23a6.85 6.85 0 0 0 2.83 9.26 6.2 6.2 0 0 0 .81.4z" fill="#ffb6ad"></path><path d="M343.79 1537.9h2.31a6 6 0 0 0 3.46-.69l1.23-1 .7-.85.69-1.46a8.42 8.42 0 0 0-.77-6.46l-3.16-2.54h-2.54v3l-1.38-2.92-1.85.84-2.15 2.46a10.4 10.4 0 0 0 .61 8.16z" fill="#ffb6ad"></path><path d="M217.06 1488.43h3.85a5 5 0 0 0 5.23-5.85v-1.69l-.46-1.16-1.08-1.46a6.62 6.62 0 0 0-6.08-1.39 7.09 7.09 0 0 0-4.69 4.39 5.78 5.78 0 0 0 3.23 7.16z" fill="#ffb6ad"></path><path d="M152.35 1710.72l-.92-.38a6.6 6.6 0 0 0-6.93 0 6.17 6.17 0 0 0-2.69 3.54 12 12 0 0 0-.46 4v1.54l.54 1 .92 1.23a11 11 0 0 0 8.62 3.08 7 7 0 0 0 6.23 1.84l1.46-.69 1-.77 1.08-1.31a10.27 10.27 0 0 0 .77-1.92 7 7 0 0 0 0-5 6.15 6.15 0 0 0 7.69-3.24V1712a6.5 6.5 0 0 0 2.16-3.16 7.7 7.7 0 0 0-1.69-7.69L167 1700h-2.23v2.53l-1.54-2.3-1.69.92-2 2.23a10 10 0 0 0-.39 2.54 5 5 0 0 0-.84 1.85 6.79 6.79 0 0 0 0 3.23 6.33 6.33 0 0 0-5.96-.28z" fill="#ffb6ad"></path><path d="M408.35 1788.51a6.59 6.59 0 0 0 2.54-3.31v-.92l-.46-2.85-.93-1.54-2-1.61a6.93 6.93 0 0 0-8.15 2.38l-.7 3.24.54 2.15.46 1.15a6.32 6.32 0 0 0 2.08 2.16l3.23.38 2.16-.69z" fill="#ffb6ad"></path><path d="M298.85 1761.5a7 7 0 0 0 7.24-4.46 5.63 5.63 0 0 0-2.7-6.77h-2.77a5.91 5.91 0 0 0-6.61 3.08v3a6.22 6.22 0 0 0 4.84 5.15z" fill="#ffb6ad"></path><path d="M316.78 1757.89l2.23 1.92 2.39.77h3l1.62-.84h.77a6.18 6.18 0 0 0 5.54-4.39 8.45 8.45 0 0 0 0-2.46l1.15.38a5.78 5.78 0 0 0 6.93-3.69v-3a7.79 7.79 0 0 0-1-3l.85-.47 1.62-1.69a3.6 3.6 0 0 0 .46-1.15 7.23 7.23 0 0 0-4.16-9.31 7 7 0 0 0-8.76 4.61c0 .11-.06.21-.08.31l.69 3.7 1.69 2 .46.53-1.92 1.39a6 6 0 0 0-1.46 2.39 6.35 6.35 0 0 0 0 2.38 6.9 6.9 0 0 0-4.31 0 7.09 7.09 0 0 0-2.54 1.46h-2.23l-1.85.93-1.92 2.23v4.11z" fill="#ffb6ad"></path><path d="M415.12 1778.13l.85 1.61.38.39v.77l2.46 2.3 3.54 1.23h2.85l1.77-.77 2-2.15v-.46a6.39 6.39 0 0 0-.54-5.31l-.69-.92a6.86 6.86 0 0 0-2-3.62l-4.23-.69h-.77a6.29 6.29 0 0 0-6.31 4.54z" fill="#ffb6ad"></path><path d="M345 1790.51a7.07 7.07 0 0 0-2.46-7.69h-.85a6.84 6.84 0 0 0-3.54-8.23h-2.75l-1.84.53-2.39 2.08a3.61 3.61 0 0 1 1.46-1.61 6.91 6.91 0 0 0-3.3 3.15l-2.93 3a6.4 6.4 0 0 0 2.46 7.7l2.85.38 1.92-.38-.46-2 .85 2a4.71 4.71 0 0 0 0 .92 7.71 7.71 0 0 0-2.69 1.69v-.54a3.37 3.37 0 0 0-.7 1.16l-2.69-.93a6.89 6.89 0 0 0-2.77-2.53h-3.54l-2.08 1.07-1.84 2.23a3 3 0 0 1 .77-1.3 7.63 7.63 0 0 0-2.16 3.38v1.41a7.67 7.67 0 0 0-3.92 2.77l.54-.39-1.7 3.62v2.54l2.47 3.15c7.15 2.77 9.61-1.69 10.15-3.15v-3.08l1.7-.69 2-1.93a5.19 5.19 0 0 0 .46-1.23 7.36 7.36 0 0 0 0-1.15l1.07.61v2.16l1 2.08 1.54 1.69h-.53a6.63 6.63 0 0 0 5.3 2.31 6.18 6.18 0 0 0 4.62-2.85l.62-2.85v-1.38a7.11 7.11 0 0 0 0-2.16l-.54-2.07 1.46-.85z" fill="#ffb6ad"></path><path d="M424.43 1748.81l-.54 3.46v.92a6.16 6.16 0 0 0 2.85 4.93l1.23.46h2.15a6.07 6.07 0 0 0 5.08-4.15 6.7 6.7 0 0 0-3.23-7.7 6.15 6.15 0 0 0-7.54 2.08z" fill="#ffb6ad"></path><path d="M106.57 1640.24a6.08 6.08 0 0 0 5.77 5.62h1.77l1.15-.47 1.47-1a7.54 7.54 0 0 0 1.3-2.23 6.91 6.91 0 0 0-3.77-8.38 5.92 5.92 0 0 0-7.69 2.84v3.62z" fill="#ffb6ad"></path><path d="M256.69 1672.63l-2.39 1.08-2.07 2.39a6.76 6.76 0 0 0 .61 5.92 6.19 6.19 0 0 0 4.62 2.69l2.46-.61 1.54-.92 1.62-2.08a6.94 6.94 0 0 0-2.47-7.7z" fill="#ffb6ad"></path><path d="M232.45 1675.71l-1 3.93.77 2.46 3 2.69a8.4 8.4 0 0 0 8.7-2.77l.77-3.23-.54-2.16-2-2.61a7.69 7.69 0 0 0-9.7 1.69z" fill="#ffb6ad"></path><path d="M281.77 1689.33a11.69 11.69 0 0 0-1.84 1l-1.62 3.77.39 2.54 2.61 3.08 3 1h2.77l1.7-.69 2-1.93a5.36 5.36 0 0 0 .46-1.23 6.69 6.69 0 0 0-3.47-8.62h-2.92l-1.85.7-2.23 1.92a3.39 3.39 0 0 1 1-1.54z" fill="#ffb6ad"></path><path d="M349.33 1714a6.06 6.06 0 0 0-3.54-7.69 6.3 6.3 0 0 0-7.08 1.84 5.48 5.48 0 0 0-3.31-.77 5.77 5.77 0 0 0-4.69 3.47v.76a9 9 0 0 0-.77 1.7v2.92l.92 1.85a6.36 6.36 0 0 0 2.47 3h1a6.52 6.52 0 0 0 6 4.15 8.22 8.22 0 0 0 7.69-5.38l.46-1.85v-2.38l.47-.47z" fill="#ffb6ad"></path><path d="M253.53 1639.39h-1.77a6.19 6.19 0 0 0-4.54 1.62l-1 1.38-.46 1.16v1.54a5 5 0 0 1 0-.77v.92l-1.07.39-2 1.69a14.81 14.81 0 0 0-1.23 2.61 6.55 6.55 0 0 0 2.77 7.7l2.62.46h3.31l2.46-1.62h.77l.62-.38a6.54 6.54 0 0 0 2.23 3.69l3.15.93h2.23l1.23-.39a6.8 6.8 0 0 0 3.47-4v-2.62l1.61-.92.62-.92a7.34 7.34 0 0 0 1.31-6.93l-.7-1.38-.61-.92-1.69-2.31a7.71 7.71 0 0 0-5.24-.54 6.38 6.38 0 0 0-2.46-.62 7.75 7.75 0 0 0-2.61.54 9.27 9.27 0 0 0-3.02-.31z" fill="#ffb6ad"></path><path d="M314.47 1724.65h.47a5.16 5.16 0 0 0 1.61.84 5.91 5.91 0 0 0 7.53-3.67 5.18 5.18 0 0 0 .17-.56 6.87 6.87 0 0 0 0-5.23 6.71 6.71 0 0 0-3.93-3.15h-3.38l-1.77 1a9.15 9.15 0 0 0-2.47 3.54 5.62 5.62 0 0 0 1.77 7.23z" fill="#ffb6ad"></path><path d="M297.62 1694.49h2.93l2.15-.77h.46a7.23 7.23 0 0 0 3-2.47l.39-3.46-.77-2.15-2.46-2.39-1.77-.54h-3.16l-1.84 1.08-1.85 2.69a6 6 0 0 0 2.88 8z" fill="#ffb6ad"></path><path d="M381.42 1713.8H377l-2.23 1.46v.46a7.73 7.73 0 0 0-6.08 5.23v5.82a6.32 6.32 0 0 0 4 3h2.61a12.3 12.3 0 0 0 8.39-7.69 7.71 7.71 0 0 0-2.27-8.28z" fill="#ffb6ad"></path><path d="M463.59 1741.11l-3.38-1.84h-3.46a6.54 6.54 0 0 0-4.62 4.23 7.71 7.71 0 0 0 0 1.92v1.47a6.28 6.28 0 0 0-.77 1.61v2.69a9.39 9.39 0 0 0 0 2.7h-1.77l-2 .61h-.92a7.66 7.66 0 0 0-2.16 2.16l-.38 3.08.54 2.07.46.93.54.84-.47.54v4l.85 1.85v.61a6.46 6.46 0 0 0 4.54 2.85l2.62-.61 1.54-.93 1.61-2.08v-4l-.84-1.84v-.62l-.54-.54.46-.61.46-3.16v-1h4.1l1.15-.61a9.18 9.18 0 0 0 3.23-4.54 7.92 7.92 0 0 0 0-1.54l-.46-1.85a3.45 3.45 0 0 1 .54-.54v-3.31l1-.53-.61-2.39z" fill="#ffb6ad"></path><path d="M335.4 1812.44l-.77-1.84-2.15-2c-7.16-2.77-9.62 1.69-10.23 3.15v3.15l.92 1.93 2.54 2a5.91 5.91 0 0 0 5.46.92 6.88 6.88 0 0 0 4.23-4.46z" fill="#ffb6ad"></path><path d="M122.57 1691.41a6.54 6.54 0 0 0 3.54 2.15 6.29 6.29 0 0 0 3.39 0h1.92v.39l.46.92 1.77 1.69a9.39 9.39 0 0 0 5.24.93l-.77 1.61v2.46l1.54 2.77a4.94 4.94 0 0 1-.85-.92v.46a6.85 6.85 0 0 0 5.15 4.62A6.54 6.54 0 0 0 150 1706l.54-4.39-1.23-2.3a6.77 6.77 0 0 0-4.08-4.47h-1.46a6.22 6.22 0 0 0 .92-1.77v-1.92a7.55 7.55 0 0 0-.77-3.46 5.68 5.68 0 0 0-.92-4.85v-1.69a4 4 0 0 1 0-.85l-.61-3.23-1.31-1.77-1.23-.62a7.72 7.72 0 0 0-6-4.46l-2.69.54-1.61 1.08-1.54 2a2.4 2.4 0 0 1 .69-1 10.51 10.51 0 0 0-2.31 1.84h-.69l-2.08 1.62-.85 2.69-2.3 3.39a7.6 7.6 0 0 0-.85 1.77 5.93 5.93 0 0 0 2.95 7.26z" fill="#ffb6ad"></path><path d="M229.91 1786.59l1.16-3.62-.85-3.84-.77-.77A5.62 5.62 0 0 0 227 1775h-1.16l1.47-.54 1-.69.61-.62.77-1a8 8 0 0 0 .54-1.15 7.07 7.07 0 0 0 0-3.54v-2.15a2.15 2.15 0 0 0 0-.62 6.7 6.7 0 0 0-2-7.23 10.81 10.81 0 0 0-1.08-2.31 13 13 0 0 0 .69-1.46v-1a14.72 14.72 0 0 0-4-10.85l-1.07-1.46v-1.16l-.47-2.23-.84-1.62a3.6 3.6 0 0 1 .54.85 6.79 6.79 0 0 0-3.54-4.39h-5.24l-1.76.93-1.7 2a6.44 6.44 0 0 0-2.31 1.77h-.61a6.53 6.53 0 0 0-3.54 4v1.23l.77 2.92 1.23 1.7 2.08 1.15a11.67 11.67 0 0 0-2 2.54l-.47 1.08-1.46.84-.92.85v.54h-.39l-2.23-.46h-5.31l-2.07.92-.47.46h-2.92l-1.61.69-1.85 1.7a11.4 11.4 0 0 0-.62 1.38 6 6 0 0 0 .46 4.77l1.16 2.23a3.83 3.83 0 0 0 .61 1.54 7.7 7.7 0 0 0 5.39 3.54l2.69-.38 1.7-.93.53-.69a12.63 12.63 0 0 0 4.16 0l.85.62v-.46l4.61 1.46 2.62-1 .77-1.31 1.92 2a6.61 6.61 0 0 0 4.39 0l.69 1.08 2.85 1.69h.46a9.72 9.72 0 0 0 3.23 1.54l-.92.61-.93-.76-1.77-.62-3.15.38-1.92 1.08-1.7 2.16v1a6 6 0 0 0-4.31-2.23h-.84a5.89 5.89 0 0 0-1.77-3.39l-3.93-.77-1.53.54h-1.16l-2 .85L196 1775l-.54 1.77V1780.16a8.09 8.09 0 0 0 0 1.84c0 .39-.38.77-.54 1.23v1.08a5.83 5.83 0 0 0-.54-2l-.92-1.31-.85-.77-1.3-.84a7.08 7.08 0 0 0-8.16 2.38v2.39a6.35 6.35 0 0 0-2.16 1.46l-.61 2a7.15 7.15 0 0 0-.77 1.69 6.08 6.08 0 0 0 3.87 7.68h2.16a8.34 8.34 0 0 0-2.23 3.38 6 6 0 0 0 3.54 7.7h2.46l1.69-.46 1.54-.85a8.17 8.17 0 0 0 2.62-3.62 5.83 5.83 0 0 0-.47-4.69h.39l.92-.69.62-.62.61-.92a4.35 4.35 0 0 0 .47-1.16 6.71 6.71 0 0 0 0-5.31l-.47-.69a5.53 5.53 0 0 0 2.93 1.39h1.84l1.39-.46 1.23-.77a10.52 10.52 0 0 0 2.77-3.31l1.31.84a8.85 8.85 0 0 0 3.08 0 7.58 7.58 0 0 0-.93 2l.85 3.7 1.77 1.84a6.68 6.68 0 0 0 4.46 2.7h2l1.31-.54 1.62-1.16a6 6 0 0 0 1.07-1.77 5.75 5.75 0 0 0 5.54-3.23v-2.92l1.85-.85z" fill="#ffb6ad"></path><path d="M191.9 1789.36a5.5 5.5 0 0 0 0-1.62v.46l.54 1.62a4.69 4.69 0 0 0-.54-.46z" fill="#ffb6ad"></path><path d="M215.37 1786.2a6.09 6.09 0 0 0-2.62 0v-1.69l1 1.16 1.47.46z" fill="#ffb6ad"></path><path d="M273.31 1721l.92-1.3a7 7 0 0 0-2.31-7.7h-1.07a7.72 7.72 0 0 0-2-7.23l-2.47-.77a6.8 6.8 0 0 0-1.3-4.23l-.54-1.93-.77-1.07-1.31-1.16a7.69 7.69 0 0 0-10.64 2.28 6.55 6.55 0 0 0-.59 1.11l-.47.61-1.61 2.85v2.23l1.15 3.16h.39v1.38l.54 1.85 1.69 2.23a11.13 11.13 0 0 0 6.77 1.85h1.77a8.87 8.87 0 0 0-4.23 4.23v1a8.49 8.49 0 0 0-5.23 5.08 7.08 7.08 0 0 0-2.54-.7v-.61a6.48 6.48 0 0 0-1-5.85 6.35 6.35 0 0 0-1.7-3 6.62 6.62 0 0 0-2.77-1.46 5.73 5.73 0 0 0 1.16-2.16 7.9 7.9 0 0 0 .38-2.69 2 2 0 0 1 0 .77v-4.92l-2.69-3.08-2.92-1-3.62.61-.62.54a6.47 6.47 0 0 0-5.46 5.7v.92a6.58 6.58 0 0 0-1.54 2.54v1.15a9.91 9.91 0 0 0-2.38 4.08 12.31 12.31 0 0 0-.62 3.23h-.54a6.69 6.69 0 0 0-3 2.54v5.39a7.7 7.7 0 0 0 4.6 9.86 8.07 8.07 0 0 0 2.17.45l2.54-.62 1.46-1 1.39-1.77 1 1.31 1 .77 1.69.77a7.69 7.69 0 0 0 6.54-1.85 6.74 6.74 0 0 0 4.7 1.77 6.11 6.11 0 0 0 4.38-1.84v1.46l.69 1.31 1.39 1.54a6.39 6.39 0 0 0 8.85-1.8c.11-.17.21-.34.31-.51l-2.54-1.93h3v-3.23h.61l2.31-.46 1.46-.77 1.62-1.61.69-1.62a8.86 8.86 0 0 0 0-4.16 8.88 8.88 0 0 0 1.31-2.54z" fill="#ffb6ad"></path><path d="M333.71 1758.5a6.69 6.69 0 0 0-1.08 2 5.86 5.86 0 0 0 2.7 7l2 .69h1.46l2.08-.46a7.74 7.74 0 0 0 3.54-4.08 6.53 6.53 0 0 0-3.62-7.69h-3.08l-1.92.76-2.16 2.24z" fill="#ffb6ad"></path><path d="M285.93 1746.12l2 1.53h4l1.69-.76h.46a6.49 6.49 0 0 0 2.24-2.24v-3.54l-1.16-2.23-2.38-1.84a6.3 6.3 0 0 0-8.17 3.59l-.07.18a8.9 8.9 0 0 0 0 1.46l.62 2.54z" fill="#ffb6ad"></path><path d="M311.17 1794a7.72 7.72 0 0 0 0-3.7l.84-3.15V1785l-1.77-4.46h-.54l-.77-1.23-1.92-1.62a7.77 7.77 0 0 0-2.62-.46l2.08-.69 1-.54a6.08 6.08 0 0 0 2.54-3.31v-1.23h1.16v1.23l.92 1.54 2.08 1.69 1.23.39h2.92l1.85-.92 1.92-2.24.62-1.84v-2.77l-.77-1.77-2-2a7.07 7.07 0 0 0-5.31 0v-1.93a6.29 6.29 0 0 0-2.08-2.15l-3.15-.46-2.08.61h-.92a6.55 6.55 0 0 0-2.24 2.23v2.31a7.71 7.71 0 0 0-4.46 2.7l-.61 2.69a7.62 7.62 0 0 0-8.24 1.23h-2.07v-.08l-.78-.92-1.85.69-.69.54a4.11 4.11 0 0 0 0-1.31 5.86 5.86 0 0 0-2.16-6l-1.08-.69h-2.92l-.54-1-2-1.7c-7.15-2.76-9.62 1.77-10.23 3.24v2.54l.46 1.38.62 1.85 1.92 2.23v.61l.46.62a6.62 6.62 0 0 0-3.23 2.77l-.46 3.23.61 2.16.62 1.15.54.69a6.49 6.49 0 0 0-3.16 3.77v2.85a5.43 5.43 0 0 0-1.61 0 6.32 6.32 0 0 0-5.47 4.46 6.08 6.08 0 0 0 7.7 7.7 6.38 6.38 0 0 0 3.92-4.16 5.17 5.17 0 0 0 0-1.84 6.74 6.74 0 0 0 5.39 0 7 7 0 0 0 3.92-4.54v-4.16a7.22 7.22 0 0 0 5.08-.62l1.23-.84.85-.77.84-1.46h3.93a5.72 5.72 0 0 0 4.23 0 12 12 0 0 0 2.16 4.46v.46l1.84.69a6.7 6.7 0 0 0 3.31 8.87l.31.14h2.61l1.54-.39a6.48 6.48 0 0 0 4.48-4.62zm-7.7-17.09v-.53h2.69a6.12 6.12 0 0 0-2.92.53z" fill="#ffb6ad"></path><path d="M275.77 1716a6.69 6.69 0 0 0 4.14 8.51l.63.19 3-.39 1.77-1.08 1.77-2.38a7.71 7.71 0 0 0-1.92-7.7l-2-1h-3.85a7 7 0 0 0-3.54 3.85z" fill="#ffb6ad"></path><path d="M258.54 1759.43a5.69 5.69 0 0 0 0-10.08h-3.24l-1.23.46H253l-1.85.38-2.31 1.47a9.07 9.07 0 0 0-1.08 2.07 5.91 5.91 0 0 0 0 4.7 7.15 7.15 0 0 0 4.7 3.23H256l1.92-1.08z" fill="#ffb6ad"></path><path d="M137.19 1652.78l1.16.39h3l1.77-.93L145 1650l.62-1.77v-2.85l-.85-1.77-2-1.92a6.21 6.21 0 0 0-5.23 0 6.29 6.29 0 0 0-3.54 4 9.9 9.9 0 0 0 0 1.54l.54 2.54 1 1.62z" fill="#ffb6ad"></path><path d="M384 1747.42l-.62-2-2.08-2.23a6.93 6.93 0 0 0-9.49 2.41c-.1.17-.19.34-.28.52v2.77l.39 1.53.61 1.93 2 2.23a7.08 7.08 0 0 0 9.68-2.54 3.07 3.07 0 0 0 .17-.31V1749l-.38-1.69z" fill="#ffb6ad"></path><path d="M147.73 1801a6.32 6.32 0 0 0 8.27-3.37l.12-.33a8.9 8.9 0 0 0-2.92-8.46l-3.08-1H148l-2.7 1.69a6.56 6.56 0 0 0-1 1.93 7.7 7.7 0 0 0 0 4.31l.93 2.61z" fill="#ffb6ad"></path><path d="M213.83 1695.79h-2.92l-1.93.62-2.23 1.92v-.61l-2.23-2a10.08 10.08 0 0 0-6.85 0 8.45 8.45 0 0 0-2.46 0l-1.31.54-.84.46-1.08.92a8.92 8.92 0 0 0-1.39 2.46 8.79 8.79 0 0 0 0 3.39l-2.07 2.15-.7.77a12.41 12.41 0 0 0-3.15 5v2.77l.46 1.54 1.39 1.85a11.69 11.69 0 0 0 4.61 2.08 2.9 2.9 0 0 1 1.23.54l3.39.61a9 9 0 0 0-1 1.92 7.24 7.24 0 0 0 3.77 8.39 6.29 6.29 0 0 0 6.92-1h-.15a10 10 0 0 0 7.16-4.08l.69-2.69v-1.92a4.37 4.37 0 0 0 .84-1.7 7.71 7.71 0 0 0 0-1.92v-2.23l.85-.39h.69l2.47-2.3v-.62a7.84 7.84 0 0 0 0-3.54l1.53-2.77a10.31 10.31 0 0 0-5.69-10.16zm4.16 14.08v-.76a3.22 3.22 0 0 1 0 .76z" fill="#ffb6ad"></path><path d="M156.58 1667.4v3.39l1 2 2.7 2.07a4.37 4.37 0 0 1-1.7-.84 7.25 7.25 0 0 0 3.62 2.15l3.16-.54 1.69-1.15 1.69-2.62V1670a8.34 8.34 0 0 0 0-1 7.73 7.73 0 0 0 0-4.85l-3-2.39a9.34 9.34 0 0 0-1.77-1.61h-4l-2.23 1.31-1.85 3.61a7.49 7.49 0 0 0 0 1.16 5.27 5.27 0 0 0-.46.92z" fill="#ffb6ad"></path><path d="M59.09 1632.55a6.64 6.64 0 0 0 4.54 2.84l2.62-.54 1.54-1 1.61-2.07.6-1.78v-3l-.92-1.77-2.31-1.92-1.77-.61h-2.91l-1.84.92-1.93 2.23-.38 1.23v2.77l.85 1.85z" fill="#ffb6ad"></path><path d="M184.59 1678.64l.77 1.84.85 1.16 1.54 1.23 1.23.61a9.42 9.42 0 0 0 7.69 1.23l2.46-2.46h1.16l.54.39H204l2.08-.7H209l1.46-.69 2.54-1.69a7.41 7.41 0 0 0 .54-1.23 8.86 8.86 0 0 0-2.84-9.47 6.25 6.25 0 0 0-7.7 0l-2.85-.61h-1.46l-2.15-.46h-.69a7.68 7.68 0 0 0-8.85 4.46v.69a5.72 5.72 0 0 0-2 2.92 7.74 7.74 0 0 0-.41 2.78z" fill="#ffb6ad"></path><path d="M85.26 1661.32l.61 2 .46.93a5.87 5.87 0 0 0 2.23 2.3h3.08l2-.61h.93a6.29 6.29 0 0 0 2.15-2.08v-3.15l-.54-2.08-.46-.92a5.78 5.78 0 0 0-2.23-2.24l-3.08-.38-2 .62-.85.38a6 6 0 0 0-2.23 2.15z" fill="#ffb6ad"></path><path d="M113 1711.72l-.93 3.16v1.92a6.39 6.39 0 0 0 6.39 6.31h1.69l1.16-.46 1.38-1.08a7.22 7.22 0 0 0-2-11.23 6.37 6.37 0 0 0-7.69 1.38z" fill="#ffb6ad"></path><path d="M177.05 1685.79v3.77a6.15 6.15 0 0 0 5.77 5.62h1.77l1.23-.46 1.39-1a6.78 6.78 0 0 0-2.46-10.62 5.93 5.93 0 0 0-7.7 2.69z" fill="#ffb6ad"></path><path d="M41.4 1732.8a7 7 0 0 0-4.08 4.62 15.28 15.28 0 0 0-.62 4.08l1.23 1.85-2.07 2.3-1.23 3.54v3.31l1.15 1.85 2.69 1.77a7.16 7.16 0 0 0 7.7-4.85 7.63 7.63 0 0 0 0-2.61h1l1.23-.93 1.46-1.84v-.39a6.54 6.54 0 0 0-.54-5.39 4.94 4.94 0 0 0-.77-1v-1.84l-2-3.47a7.74 7.74 0 0 0-5.15-1z" fill="#ffb6ad"></path><path d="M91.41 1758l.85-.46-2.47 3.54v3.08l1.39 3.08v-.39a6.3 6.3 0 0 0 5.69 3.08 5.87 5.87 0 0 0 4.08-2.31 6.62 6.62 0 0 0 3.23-3.85 3.18 3.18 0 0 0 0-1.23l1.77 1.16a7.7 7.7 0 0 0 10.16-2.24l.54-2.84-.39-2h-.69l.77-.39-.77-1.92-2.23-2.23a14.5 14.5 0 0 0-3.85-.85l1.16.46-3.23-1.07h-2.24l-2.84 1.84a9.3 9.3 0 0 0-.7 1.46v1.85a7.69 7.69 0 0 0-10.23 2.23z" fill="#ffb6ad"></path><path d="M109.34 1738a9.54 9.54 0 0 0 5.46 11.69l2.16.54h1.54l1.77-.61a7.64 7.64 0 0 0 2.61.77h.92a5 5 0 0 0 1.54 0l2.08-.54 1.31-.77 1.54-1.62a10 10 0 0 0 .54-1.31 7.7 7.7 0 0 0-4.7-9.62h-3.31l-1.77-.92a7.17 7.17 0 0 0-4.15-2.77h-2.31l-1.61.54-1.85 1.46a13.62 13.62 0 0 0-1.77 3.16z" fill="#ffb6ad"></path><path d="M431.43 1820.91a6.59 6.59 0 0 0-.54-5.16 7.67 7.67 0 0 0-7.69-5.69l-1.85.46-1.15.61-1.39 1.31a9.05 9.05 0 0 0-1 2.08 8.11 8.11 0 0 0 .62 6.39v.69l.61 1.69 1.7 2a7.05 7.05 0 0 0 6 .39 7.68 7.68 0 0 0 4.69-4.77z" fill="#ffb6ad"></path><path d="M360 1818.06l2.46-.54 1.46-.92 1.62-2.08a7.15 7.15 0 0 0-2.47-7.69l-3.92-.47-2.39 1.08-2.07 2.39a6.66 6.66 0 0 0 .54 5.92 6.15 6.15 0 0 0 4.77 2.31z" fill="#ffb6ad"></path><path fill="#ff9d5a" d="M739.75 322.09l15.7 28.63 28.54 15.69-28.54 15.62-15.7 28.63-15.62-28.63-28.62-15.62 28.62-15.69 15.62-28.63z"></path></g></g></g></svg>