<svg xmlns="http://www.w3.org/2000/svg" width="1077.17" height="868.91" viewBox="-0.026302337646484375 0.003479650244116783 1077.120849609375 868.9060668945312" style=""><g><title>Vector1_85827496</title><g data-name="Layer 2"><g data-name="Layer 1" fill="#e3eadf"><path d="M888.18 403.32a20.47 20.47 0 0 0 4.55 6.24c12.66 10.49 34.91 7.79 45.23-7.33 11.35-16.69 5.93-47.42-15.57-48.18-2.19 0-5.71 0-7.88.22-23.29 1.73-35.4 28.73-26.33 49.05zm41.78-.25c-9.51 10-23.78 8.08-27.57 7.17a15.84 15.84 0 0 1-9.32-6.49c-1.2-1.82-.4-2.31 1.29-.94a22.64 22.64 0 0 0 8.85 4.55 32 32 0 0 0 26.13-4.93c1.78-1.23 2.11-.94.66.64zm4.24-12.54c-8.85 12-27.47 18-38.08 4.66-8.12-10.53 5.58-18.86 15.93-20.5a34 34 0 0 1 7.87-.25 20.42 20.42 0 0 1 14.73 9.18 7 7 0 0 1-.45 6.91zm2.64-17.89c.47 2.12-1 2.64-2.8 1.38-10.25-7.33-24.16-5.54-35.63-.71-2 .83-2.91 0-1.73-1.84a24.71 24.71 0 0 1 23.24-10.62c7.37.04 15.34 4.5 16.92 11.79z"></path><path d="M573.32 306.12a20.36 20.36 0 0 0 6.23 4.66c15.17 6.43 35.7-2.5 41.24-19.91 6.07-19.24-7.84-47.17-28.66-41.77-2.11.55-5.44 1.7-7.49 2.48-21.89 8.31-25.79 37.66-11.32 54.54zm40-12.14c-6.25 12.34-20.47 14.54-24.37 14.74a15.89 15.89 0 0 1-10.79-3.57c-1.66-1.41-1-2.1 1-1.28a22.55 22.55 0 0 0 9.79 1.86 32 32 0 0 0 23.64-12.14c1.35-1.75 1.75-1.57.76.37zm.49-13.23c-5.06 14-21.25 25.07-35.17 15.32-10.77-7.78 0-19.72 9.44-24.28a34.34 34.34 0 0 1 7.46-2.46 20.38 20.38 0 0 1 16.69 4.56 7 7 0 0 1 1.58 6.87zm-2.57-17.91c1 1.91-.22 2.84-2.29 2.14-11.91-4.11-24.72 1.52-34.36 9.47-1.67 1.38-2.79.82-2.17-1.26a24.71 24.71 0 0 1 19.26-16.71c7-2.17 16-.18 19.56 6.34z"></path><path d="M854.08 564.89c-6.78 1.8-14.19 3.58-19.86 8.91-1.52 1.51-.88 2.71 1.29 2.91 14 1.26 34.25 13.66 38.18-2.09 2.31-9.26-12.69-11.62-19.61-9.73zm-.94 5.6c5.13-.78 14.78-1.67 15 3.69.28 6.89-30.51-2.25-15-3.69z"></path><path d="M1024.72 190c-3.49-2.61-9.1-6.91-12.69-9.33-7-4.68-14.85-7.88-22-12.15-3.71-2.24-4.87-7.58-4-11.92 3.14-14.83-3.93-29.95-11.56-42.69-11.17-16.06-7.88-38.46-19.62-53.85-2.66-3.46-7.12-8.77-9.38-12.5-10.72-17.72-26.24-34.91-47.05-36.9-4.34-.42-9.68 2.61-10.71 6.85-2.55 10.33 4.28 19.22 7.83 21.32s7.48-4 11.24-1.94c18.71 10.3 35.47 34.39 40.11 50.08 1.25 4.16 3.14 10.77 4.21 15 4.2 16.7 20.09 29.81 20.82 46.93.18 4.35 1.11 9.31-7.26 7.1-33-8.82-72.16-10.44-99.69 7.88-16.07 10.69-24.16 27.31-29 40.52-1.52 4.08-2.06 11 .7 14.4a17.11 17.11 0 0 0 1.87 1.94c3.26 2.88 8.77-.18 10.15-4.29 3.6-10.78 5.05-23.44 14.1-31.56 24.88-22.32 58.21-17.89 88.63-13.08 4.3.68 6.15 4.37 4.33 8.3-5.48 11.81-9.7 24.69-7.59 37.56 2.76 12 16.27 27.94 24 18.22 2.7-3.42.89-9.75-1.16-13.59a38.52 38.52 0 0 1-.57-34.67c1.91-3.92 7.39-5.13 11.2-3a157.23 157.23 0 0 1 70.31 82.21c8.15 30.25 3.2 63.89-14 90.1-2.4 3.64-6.39 9.45-8.76 13.1-30.05 46.54-75.63 85.38-130 99.11-19.3 3 1.24-15 5.39-22.12 9.59-16.93-10.85-28.26-25.38-23-4.09 1.52-9.83 5.69-13.32 8.29-23.19 17.21-26.38 49.67-47.87 68.29-3.29 2.84-4.9 1.43-3.93-2.81 2.34-10.33 1.52-22-6.84-17.87-3.92 1.91-5.37 8.21-5.18 12.55.91 20.24-13.17 36.31-31.41 44.11-4 1.72-7.2-.86-6.65-5.19 2.5-19.89 9.74-42.17 28.58-50 4-1.66 6.07-5.53 2.73-8.39-12.14-10.63-27.67 7.69-36.8 19-9.85 12.54-4.83 30.48-9.88 44.13-1.52 4.09-7.21 7.83-11.37 9.11a151.69 151.69 0 0 0-54.63 31.63c-3.22 2.91-4.91 2.73-4.71-1.63a93.24 93.24 0 0 1 6.54-31.06c1.64-4 4.4-3.66 7.3-.41 5.57 6.23 14.77 9.42 20.1 4.23 3.11-3 7.89-9.74 6.55-13.88-1.08-3.31-7.84-3.77-12.21-6.08-3.83-2.06-.93-8.55 2.65-11 23.54-16.24 55.36-27.7 63.59-57.67 5.46-24.1-26.23-33.51-41.72-15.91-3.58 4.07-2.91.79-2.69-2.06.28-3.79 3.22-6.19 7.15-8.06 22.95-10.82 47.73-20.44 65.61-38.58 3-3.11 7.86-8.27 10.76-11.52 27-30.18 36.88-80.43 12.14-113.82-2.58-3.49-8.41-7.46-12.73-7-6.07.63-13 3.52-14.19 7.15-1.38 4.12 6.34 8.68 8.94 12.14 22.9 30.86 14.18 78-16 101.43-15.05 13.59-32.84 23.19-51.12 31.57-4 1.82-9.26-.5-6.77-4.07s7.42-6.86 9-9.82c2.06-3.84-6.21-9.1-10.63-8.84-5.37.24-9.1 6.87-12.14 13.08-1.88 3.91-4.72 3.81-6.49-.17-2.34-5.23-5.19-10.33-9.7-13.35-3.61-2.42-10.91-3.93-15.1-2.77-10.62 3-19.49 17.74-13.26 26.05 2.59 3.49 11.41 8.42 12.73 4.28.56-1.76.67-4.38 1.14-6.79.82-4.28 4.87-2.58 5.13 1.76a120.13 120.13 0 0 1-.23 15.76A19.15 19.15 0 0 1 685 442c-34.37 24.79-58.41 63.74-64.35 109.67a2.48 2.48 0 0 1-3.91 2l-9.9-5.39a14.12 14.12 0 0 1-5.34-5.34c-5.93-13.16-.15-30.52 10.11-43 2.76-3.35 10.07-7.8 9-12a9.88 9.88 0 0 0-4.12-5.38c-3.61-2.41-9.31.69-11.85 4.22-9.83 13.66-23.26 26.94-22 43.76.57 7.58-.9 8-7.59 5.12-123.32-52.55-265.34-68.29-394.38-28.57-4.16 1.27-10.55 4.19-14.54 5.92-37.74 16.48-81-4.56-120.06 8.63C26.73 526.33-1 541.17 0 563.25c.21 4.34 3.75 10.47 7.18 13.16C26 591.08 55.54 586.56 73.5 603.72c35 34.56 54.39 81.18 81.95 121.41 43.65 70.36 118 119.26 199.5 135.71 74.69 15.13 154.39 10.27 221.77-25.59 60.1-26.36 95.31-84 141.14-128a34.75 34.75 0 0 1 13.26-7.74c27.62-6.54 55.73 8.61 83.91 7.47 4.34-.19 11.1-2.2 14.41-5 13.37-11.39 6.6-29.82 1.41-37-13.66-18.88-37.05-28.75-58.85-35.68-4.14-1.34-10.79-2.1-2.58-7.11a66.67 66.67 0 0 0 28.14-35.86 26.22 26.22 0 0 1 8.57-11.87c26.91-18.72 41.42-50.17 46.61-82.11a94.07 94.07 0 0 1 3.58-15.27c4.11-10.85 10.47-22 19.06-28.84 3.4-2.71 5.57-.74 3 2.8-6.37 8.92-17.49 17.37-14.87 27.31 1.11 4.21 7.27 7.84 11.52 8.7 37 7.44 75-11.59 102.85-36.26 3.25-2.88 8.8-7.16 12.34-9.69 24.54-17.59 40.52-43.83 58.73-67.43a95 95 0 0 0 8.35-13.26c11.77-24 24-49.69 18.39-76.86-7.96-34.66-21.69-71.55-50.97-93.55zm-70.63-97.9c-2.21-21.64-18-39.72-33.39-54.47-4.55-4.43-13.27-10-21.71-7.44-3.34 1-6.73-4.06-6.27-8.92.2-2.17 3-3.95 5.16-4 23.57-.31 34.6 24.39 48.27 40.42 14.8 17.31 11 40.66 23 58.53 7.86 11.7 16 24.88 12.14 41.6a3.92 3.92 0 0 1-4.64 3.05h-.08c-1.51-.51-2.7-1.29-2-2.49 2.91-5.24 4.72-7.59 2.49-16.14-4.65-17.24-21.06-31.54-22.97-50.1zm13 133.88c1.2 1.82 2.08 5.31.11 6.22-1.32.61-3.33.44-6.38-1.77-12-8.79-8.57-37.81 2-51.86a5.41 5.41 0 0 1 5.34-2.08c1.52.49 1.75 2.32.6 4.18-9.35 15.2-10 32.73-1.63 45.31zM802.3 511.91c3.45-7.48 2.75-16.7 5.05-23.72.69-2.07 1.92-1.84 2 .33.26 6.94-1 18.06-6.07 24.16-1.42 1.67-1.95 1.2-.98-.77zm-40.53 34c1.36-1.7 4.85-2.82 6.82-3.75 23.56-10.84 43.1-28.52 61-47.05 1.52-1.51 3.42-1.13 3.19 1-.87 8-11 19.27-19.06 24.52a273.22 273.22 0 0 1-50.78 30.35c-2 .88-3.45-.21-2.72-2.26a9.43 9.43 0 0 1 1.56-2.85zm64.86-26.83c-2 9-12.9 21.88-20.93 31.11-1.52 1.64-2.25 1.23-1.75-.9 3-13.12 7.76-24.92 19.51-32.22 1.85-1.12 3.67-.12 3.17 2zm-35.32 42.22c-1.8 1.21-2.36.38-1.39-1.52 3.88-7.89 2.65-18.42 9.27-23.89a2.24 2.24 0 0 1 3.79 1.88c-.13 7.23-4.23 18.63-11.67 23.57zm-84.82 68c1.16-1.84 3.4-2.66 4.66-.9 5.91 8.21-9.95 20.5-21.24 23.24-2.13.51-3.42-1.17-2.33-3 4.48-7.57 14-11.42 18.91-19.28zM693 634.79a60.39 60.39 0 0 1 5.19-6c1.52-1.6 1.75-1.42.73.51a28.9 28.9 0 0 1-4.66 6.92c-1.59 1.51-2.56.33-1.26-1.43zm-5.17 22.34c7.51-3 15.69-5.57 21.59-11.31 1.52-1.52 1.93-1.33 1.06.67-4.23 9.85-12.05 26.33-19.72 37.56a58.48 58.48 0 0 1-5 6.07c-7.43 7.76-13.66 14-21.68 18.55-1.89 1.07-2.3.53-.95-1.19 10.25-13 14.79-29.53 19.87-45a9.74 9.74 0 0 1 4.8-5.35zm22-36.74c-1.84-1.17-2.11-2.75-.35-4 19.39-14.1 40.79-29.9 46.66-53.94a8.49 8.49 0 0 1 4.47-5.3 130.36 130.36 0 0 0 22-11.24c1.82-1.19 5.21-1.52 5.9.51 2.49 7.24-8.93 24.74-17.86 28.13-21.94 10.62-35.4 31.36-48.32 51.18a3.49 3.49 0 0 1-4.79 1.2 4.84 4.84 0 0 1-.46-.33 60.78 60.78 0 0 0-7.26-6.21zm71.42-143.28a9.24 9.24 0 0 1 5.38-1.34c1 .26.38 1.35-1.39 2.61-37 26.08-19 83.46-52.19 113.49-21.25 16.12-45.73 32.8-52.8 60.24-5.71 26.66-16.88 61-42.71 70.37a81.14 81.14 0 0 1-21 2.82c-2.19 0-2.76-1.79-1.24-3.35a45.32 45.32 0 0 1 14.59-10.08c44.5-20 36.82-79.63 76-107.4a202.9 202.9 0 0 0 32.17-29c25.78-28.16 7.63-77.98 43.18-98.36zM582.79 708.45a34.74 34.74 0 0 0-7.81-.85c-33.88-1.18-62.35 35.59-92.9 28.07-2.12-.52-2-1.45.1-1.92a67.06 67.06 0 0 1 6.9-1.29c6.07-.66 16.5.2 27.79-7.4 17-11.46 34.54-26.53 58.56-27.41 19.85-.71 24.47 18.64 14 31.13-1.4 1.65-2.28 1.1-1.79-1 1.68-7.5 2.54-17-4.85-19.33zm-46.51 18.22c-2.17 0-2.25-.08-.21-.87l.18-.08a23.21 23.21 0 0 1 7.59-1c6 .17 12.83-.53 17.43 2.8a2.62 2.62 0 0 1-.79 4.64c-8 2.53-15.63-5.52-24.23-5.49zm-7.13 6.81c-5.79.53-11.55.17-4.22-2.35a20.21 20.21 0 0 1 7.69-.79c8.61 1 2.54 2.56-3.5 3.11zm34.38-10.91c-2-.88-1.51-3.9.35-5.12a30.64 30.64 0 0 1 4.18-2.35 22.19 22.19 0 0 1 7.59-2.06c9.22-.25-4.82 12.72-12.12 9.48zm6.47 6.3c2.72-2.37 5.86-4.3 8.8-6.42 1.78-1.28 4.28-.82 3.77 1.29-1 4.17-6 9.66-11.66 9.1-2.17-.21-2.55-2.61-.91-4zm-68.87-2.23c.77-1.7 5.18-2.9 5.27-1.13 0 .64-1.25 1.32-2.55 1.69-1.58.39-3.17.39-2.72-.61zM664 568.5c-.4 2.76-.78 8.51-1.28 13.2-.23 2.17-1.74 2.69-3.32 1.19l-.7-.67a10.47 10.47 0 0 1-2.88-6.66c.15-19.5 5.34-39.14 18.47-53.88 1.44-1.62 1.89-1.27 1 .68-6.29 13.54-8.42 25.12-11.29 46.09zm-13-3.35c-.56 7 .63 20.35-.15 27.31-.33 3-4.16 2.42-4.64-.91-1-6.75-.91-23.69-.26-30.71 2-22.1 11.22-41.15 25.37-57.67 1.42-1.66 4-1.64 4.3.51.85 6.74-8.35 16.7-12.35 23.53A88.44 88.44 0 0 0 651 565.1zm26.59-79.28a22.53 22.53 0 0 1-3.94 6.57c-18.25 19.41-32.37 44.56-33.55 71.81-.09 2.17-1.69 3.22-3.43 1.91l-.12-.09a7.36 7.36 0 0 1-2.45-6.39c5.92-36.07 18.84-71.32 48.08-95 1.7-1.37 3.31-.64 2.78 1.51-1.32 5-5.13 13.19-7.41 19.61zm-42.08 85.79l1.52 1.07a9.1 9.1 0 0 1 3.56 6.15c.35 8 0 19.73 4.77 21.37 3.76 1.26 5.54 1.24 7.31-.14 1.41-1.06 2.13-5.78 2.48-9.27.21-2.16 1.36-3 2.68-1.85a6.33 6.33 0 0 1 2 5c-.14 1-.31 2-.43 2.91-1.2 11.37-12.61 44.58-23.64 29a9 9 0 0 1-.58-7.06c4.69-15-3.75-30.9-3.14-45.68.05-2.22 1.67-2.81 3.43-1.52zM627.12 644c3 5.38-2.64 7.4-9.38 7.84-2.17.15-2.8-1.26-1.3-2.84 1.77-1.85 3.63-3.61 5.48-5.38a3.27 3.27 0 0 1 4.62-.33 3.31 3.31 0 0 1 .58.66zM625 654.69c5.45-1.13 1.25 7.34-3.73 10-1.91 1-5.54.87-7.59 1.37-15.86 3.75-26.25 16.59-39.21 24.28-5.44 3.26-11.34 3.73-19.28 6.54-2 .73-2.56 0-1.14-1.52 17.81-20.5 44.76-35.11 71-40.73zm-8.5 18.21c-6.19 6.9-22.59 19.22-33.26 20.23-2.17.19-2.7-1.52-1.13-3a79.71 79.71 0 0 1 32.86-19.44c2.1-.62 3 .58 1.53 2.2zm-54 7.81c-2.59 3.9-10.91 10.63-15.17 16.89-3.15 4.56-11.77 8.87-23.83 15.38a7.6 7.6 0 0 1-7.33-.59 4.17 4.17 0 0 1-1.2-5.7c9.83-15.75 24.77-26.52 43.3-28.83 2.12-.27 5.45 1 4.23 2.81zM514.67 715c4.31 2.47 1.44 5.25-1.73 6.07s-6.19 0-4.08-4.33a4.56 4.56 0 0 1 5.81-1.79zM595 699.82c-1.91-1-1.52-3.67.24-4.93 13.66-9.64 31-17.36 36.32-34.13a62.68 62.68 0 0 0 2.2-7.59c1-6.38-3.31-12.42-3.72-18.62-.14-2.17 1.84-2.95 3.45-1.52 16.69 15.18 4.55 45.53-15.38 56.15-7.39 3.2-15.93 14.49-23.16 10.62zm1.12 25c2.66-9.39 2.22-12.14 5-16.22 8.54-12.85 29.48-15.9 42.37-38.94 2.46-3.86 9.71-3.26 15.17-4.07 2.14-.32 3.61.72 3 2.79-3 10.34-14.37 28.31-24.6 34.21-7.41 4.46-17.74 9.74-25.8 16.83a42 42 0 0 1-12.32 8c-2.21.78-3.42-.51-2.83-2.65zm49.32-66.47c1.16-6.48 7.59-8.09 14-8.44a57.48 57.48 0 0 0 7.3-.47c1.83-.41 2.53.75 1.59 2.71l-1.81 3.77a10.26 10.26 0 0 1-5.47 4.74 57.24 57.24 0 0 1-12 2.49c-2.17.06-4-2.67-3.63-4.81zm44.12-51.4c-1.82-1.52-3.9-3.12-5.57-4.41a3.83 3.83 0 0 1-.82-5.35l.09-.12c13.25-15.92 33.12-24.69 52-32.37 2-.83 3.11.2 2.16 2.16-7.29 14.66-28.32 26.65-42.1 39.89a4.32 4.32 0 0 1-5.74.19zM676.31 589c17.89-17.12 37.23-33.29 62.48-39 2.12-.49 6.93-1.78 6.36.31a14.36 14.36 0 0 1-5.21 6.79c-23.6 10.24-49.4 20.44-64.74 42.25-1.26 1.77-1.74 1.52-1.38-.56.62-3.74 1.38-8.71 2.49-9.79zm-.37 19.13a3.74 3.74 0 0 1 5.12-1.31l.26.17c1.51 1.06 2.8 2.15 3.91 3a4.55 4.55 0 0 1 .65 5.86C682 622 678.77 629.57 675.56 637c-4.34 10-14.72 8.16-23.21 9.11-2.16.24-2.37-.25-.7-1.63 11-9.07 17.25-24.64 24.29-36.33zM710 535.72c2.11.55 3.72 1.93 2.81 3.9-5.45 11.73-24.77-.93-19.36-10.14a4.54 4.54 0 0 1 6.14-1.07c3.09 2.32 6.28 6.2 10.41 7.31zm-11.65-19.24c-1.67 1.38-4.07 4-5.65 5.44-31.78 30-10.12 83.26-39.92 114.27-1.52 1.51-4.41 5.31-5.79 3.62a5.54 5.54 0 0 1-1.06-3c-.12-2.18 2.95-4.55 4.37-6.14 20.08-23.34 13.92-57.26 21.52-85.25 5.57-20.88 22.77-35.19 40.6-45.92 1.86-1.12 5-.79 5.29 1.37.72 5.85-12.64 10.06-19.36 15.55zm-1.52-26.64c-1.52 1.52-2.78 1-2.38-1.18 2.17-12 11.26-22.16 14.95-34 .63-2.08.89-5.68 1.83-7.59a13.45 13.45 0 0 1 6.18-5.61 2.39 2.39 0 0 1 3.76 2.2c-.39 14.19-12.35 33.9-24.37 46.15zm18.94-10.12c1.22 10.62-9.61 19.38-18.6 22.48-2.07.71-3.36-.75-2.28-2.63 4.07-7.15 13.2-12.47 18.1-20.17 1.14-1.85 2.51-1.85 2.75.3zm-26 11.53a91.31 91.31 0 0 0-.47 15.33 9.37 9.37 0 0 1-2.84 6.57c-.51.43-1.09.88-1.71 1.34-1.75 1.3-3.49.41-3.66-1.76-1.52-20.85 3.54-45.68 18.54-60.08 1.52-1.52 3.72-.94 3.72 1.23 0 8.83-10.51 19.62-13.61 37.36zm47.47-16.77c-1.52-10 1.81-23 11.35-23.94 16.17-1.66 3.34 18.48-7 25.8a2.69 2.69 0 0 1-3.76-.43 2.61 2.61 0 0 1-.57-1.44zm16-35.75c29 4.86 8 42.2-10.62 48.23-2.07.67-3.72-1-2.11-2.49 3.35-3 10.3-6.74 13.25-10.41 10.62-13.17 10.62-30.35-3-30.26-20.85.17-21.74 29.15-17.37 47.35a7.15 7.15 0 0 1-1.87 6.45 16.9 16.9 0 0 1-3 2.26c-1.89 1.05-4.72-.62-5.58-2.63-9.71-22.47 6.34-62.54 30.35-58.52zM726 401.46c1.36-1.72 3.74-4.22 5.54-3.45s.9 3.49-.39 5.25c-5.57 7.59-5.39 18.67-14.55 22.51a2.59 2.59 0 0 1-3.6-2.87c1.14-8.45 7.71-14.77 13-21.46zm-30.61 1.2c-1.3-1.75-4.55-3-6.58-2.3-3.28 1.29-5.5 4.56-6.89 8-.81 2-3 2.93-3.87.94-2.49-5.47 5.16-13.55 10.62-14.48 17.67-4 27.61 29.53 13.14 36.12-2 .89-3.73-.76-3.56-2.93.67-8.67 2.27-18.39-2.92-25.36zm23.19 26.92c38.66-17.3 81.95-36.14 100.39-77.31 11-25.8 6.92-57.58-11.79-78.52-1.44-1.62-1.14-3.51.85-4.14a11.07 11.07 0 0 1 7.38.32c7.11 3.94 10.77 15.17 13.19 22.76 8.66 30.63-.34 66.11-22.86 88.73-1.52 1.52-3.93 4.12-5.36 5.76-24.66 28.25-63.74 36.42-95.08 54.89-48.82 24.36-73.14 77.62-78.76 129.72-.24 2.16-.58 2.16-.71 0-3.92-59.55 36.56-120.15 92.69-142.23zM609 555c3.49 2 7.17 3.71 9.72 5.39.75.5.72 1.72.41 3-.43 1.73-2.39 1.91-3.95.39a94.47 94.47 0 0 1-7.13-7.71c-1.45-1.71-1-2.2.89-1.12zm-1.21-62.6c1.24-1.79 4.28-6.28 5.58-4.55a2.18 2.18 0 0 1 0 1.9c-.73 2.05-3.41 4.55-4.73 6.22-11 14.39-19.17 33-11.78 50.84 7.45 20.3 24.88 25.51 30.35 43.14 4.86 12.63 3.22 26.58-1.64 39a35.69 35.69 0 0 1-3.83 6.82c-18.4 24.19-48.57 34.7-77.74 39.79a34.41 34.41 0 0 0-7.58 2.11c-17.72 8.4-23.74 30.5-38 43.13a28 28 0 0 1-6.67 4.05 71.26 71.26 0 0 1-69.15-9.76c-1.71-1.35-4.47-3.53-6.25-4.76-19.73-13.66-39.46-27.73-61.66-37.28a33.81 33.81 0 0 0-7.59-2.11c-9.6-1.24-21.24-.8-27.83 6.32a7.58 7.58 0 0 0-1.37 7c3.57 8.77 14.71 10.86 23.77 13.13 2.11.53 5.55 1.22 7.71 1.51 22.26 2.76 47.94 6.59 61.83 25.53 1.29 1.74.42 3.16-1.73 2.87-24.76-3.28-45-20.87-70.53-24.12-15.17-3-42.26-12.31-32.2-32.66 4.4-9 41.87-6.84 56 .37 22.28 11.56 45.85 24.28 63.61 43.25 17.25 17.27 45.1 14.45 65.39 4.55 13.74-7.45 15.48-29.59 30.78-34.9 9.57-3.92 13.34-10.9 23.49-13.51 29-8 70.25-19.29 72.85-55.39.13-31.42-30-52.77-31.28-84-.21-15.51 11.78-26.47 20.2-38.41zM457.21 734c-8.89 1.12-22.67-4.47-33.72-5.63a8.91 8.91 0 0 1-5.95-3.6c-11-17.09-30.82-26-50.63-28.76-2.15-.3-5.78-2.29-4.26-3.84a10.92 10.92 0 0 1 2-1.52 10.68 10.68 0 0 1 7.13-1.24c30 8.24 51.46 43.22 85.27 43.58 2.13.07 2.27.72.11 1zm-119.74-45.84a24.74 24.74 0 0 1 11.16-4.55 26.45 26.45 0 0 1 10 1.08 2.94 2.94 0 0 1 2.32 3.45 2.75 2.75 0 0 1-.46 1.1c-5.11 6.74-14.32 4.14-22.38 2.11-2.17-.55-2.51-2-.7-3.2zm-5-2.58c-1.85 1.14-5.11 1.63-6.81.28-5.16-4.09 3-9.38 9.82-10a58.65 58.65 0 0 1 7.84.38 56.07 56.07 0 0 1 9.11 1.43c2.11.5 2 .73-.12.74-7.26.05-13.75 3.37-19.9 7.15zm141 22.16c1.91-1 5.25-1.67 7-.44a54.54 54.54 0 0 1 4.32 3.57c1.66 1.41 1.78 3.31-.09 4.4a51.3 51.3 0 0 1-45.18 2.47c-2-.85-1.82-1.38.35-1.23 11.8.87 23.26-3.23 33.66-8.77zm1.69-15.51c6.52 4.55 15.71 9.32 18.6 15.18 1 1.94-.4 2.61-2.19 1.35-6.51-4.55-15.63-8.62-18.59-15.07-1-2 .33-2.7 2.12-1.46zm-5.37 10.88c-1.86 3.43-15.17 8.3-21.65 8.85-2.17.17-1.93-1.41.18-2 5.87-1.52 12-2.81 16.69-6.66 1.58-1.38 5.77-2.12 4.72-.23zm-38-2.24a68.3 68.3 0 0 1-5.36-5.8c-8.55-11 5.14-26.67 17.6-28.18 9.29-.76 22.62 4.16 23.07 14.51a47.83 47.83 0 0 1-.5 7.83c-2.15 14.55-24.28 21.82-34.87 11.64zm.6 7.8c.87 2-.73 2.32-2.3.82-4.56-4.34-12.28-8.7-13.83-13-.74-2 1.37-2.18 2.88-.62 4.25 4.4 11.3 8.35 13.19 12.81zm-8.5-38.7c-11.15 1.59-25.26-7.74-37.8-4.55-2.11.51-5.37.74-7.28-.29-8.62-4.69 4.87-6.16 12.5-5.51 11.35-.14 22.08 4.17 32.66 8 2 .72 2 2-.14 2.35zm-7.58 8.78c-8.47-.88-25.21-2-26.42-5.46-.73-2 3.93-2.87 6.07-2.72 7.46.52 17.17 1.72 21.88 5.6 1.59 1.39.53 2.81-1.64 2.58zm-.82 10.46c-5 2.67-9.49-.59-13.3-4.93-1.44-1.62-.73-2.87 1.43-2.64a32.39 32.39 0 0 1 11.75 2.94 2.58 2.58 0 0 1 0 4.63zm-30.19-13.4c1.66 1.41 1.52 1.65-.39.55-28.84-17.21-48.69-15.35-60.59-15.42-2.17 0-2.39-1-.39-1.88 21.44-9.43 44.39 2.41 61.27 16.75zM487.71 669a18.66 18.66 0 0 1-2.24-7.42c-1.05-13.76 6.66-25.66 23.07-26.91 17.21-.41 36.22 19.32 22.17 37.7-11.57 15-35.71 7.77-43.1-3.37zm15.06 19.52c-4.19 3.52-12.79 1-16.15-3.22a3.94 3.94 0 0 1-.38-4 4.19 4.19 0 0 1 5.44-2.14c3.21 1.36 6.32 3 9.5 4.55 1.86.84 3.14 3.45 1.48 4.86zM214 503.32c49.79-15.18 111.06-15.1 153.43-13.54 72.84 4.05 144.51 23.87 211.6 52.06a9.83 9.83 0 0 1 4.78 5.29c9 26.61 35.77 50.68 26.72 79.89a24.44 24.44 0 0 1-3.74 6.83c-15.18 18.3-40.18 26.24-63.12 30.75-2.14.42-3.34-1-3-3.12 2.86-20.76-22.11-38.39-42.79-30-14.09 5.72-21.95 24.4-15.91 38.22a8.13 8.13 0 0 1-.32 6.72c-1.76 3.12-2.68 6.55-.95 8.75 5 6.35 16.13 13.66 23.84 8.91 1.85-1.14 2.28-1 1.18.91-7.87 13.45-18.77-1.51-28.6-9.24a10.27 10.27 0 0 1-3.4-6.18c-2.1-16.13-21.74-18.63-36-15.78a17.78 17.78 0 0 1-7.58-.29c-18.41-5.89-37.94-11.71-57.05-6.89a11.76 11.76 0 0 1-7.21-.83c-20.17-10.32-46.73-5.66-62.43 10.42a20.31 20.31 0 0 0-4.22 6.53c-4.95 14.78 9.39 28.38 23.4 31.63 16.31 3.91 32.29 8.69 48.18 13.85 2.07.67 2 1-.16.69-43.82-6.45-85.43-24.73-125.34-43.36-33.39-15.6-67-32.19-94.86-56.56-16.19-12.9-36-29.87-36.42-51.83a18.2 18.2 0 0 1 1.88-7.45c18.55-35.15 61.77-47.84 98-56.41zM108 575a4.71 4.71 0 0 1-3.22 5c-22.46 5.79-46.45-.19-68.29-5.85-6.82-2-18.8-7.35-15.6-15.09a19.07 19.07 0 0 1 5.22-5.77c23.79-19 57.8-29.63 86.58-15.78 1.39.58 5.26 2.84 8.62 4.42-8.52 9.25-14.42 20.26-13.31 33.07zm720.65 95.5c5.82 10.12 4.25 29-9.26 30.35-32.1 3.2-63.85-14.9-95-5.05a28.92 28.92 0 0 0-9.79 6.2c-38 38.06-69.81 84.18-115.34 114.53-125.81 81.2-314.72 53.11-406.72-54.53-32.8-38.29-58.54-83.52-85.31-126-12.77-21-30.44-41.29-54.43-49.21-2.07-.69-5.4-1.79-7.5-2.42-13.46-4-30.35-3.7-38.83-15.82a12.77 12.77 0 0 1-1.89-7.32c1.76-16.37 18.21-26.8 32.33-32.93 32.43-13.87 67.46-2.63 101.36-5.28 2.17-.17 4.55-.35 5.42-.34s0 1-1.78 2.2a128.92 128.92 0 0 0-17.1 13.54c-2.66-1.52-8.64-4.55-10.46-5.34-31.53-14.81-71.48-3.48-95.17 21.25a12.26 12.26 0 0 0-3.32 6.78c-.14 9.61 12 14.3 21.11 17.38q3.73 1.21 7.59 2.06c20.48 4.31 41.81 7.59 62.61 3.93a6.48 6.48 0 0 1 6.07 2.57c32 48 89.76 74 141.38 98.18 76.78 38.73 159 51.27 244.57 55.15a98 98 0 0 0 13.37-.71c14.35-3.35 29.56-3.58 44.4-2.49 19.06 1.4 53.54-7.84 60.54-7.95 12.58-.18 25.69-.91 37.11-9.77 8.31-6.44 22.47-9.69 31-11.35a36 36 0 0 0 7.51-2.24c13.75-6.66 21-21.24 27.32-34.43.94-2 1.6-1.79 1.83.38.52 5 2.61 8.85 8.79 10 27.32 5.27 66 16.47 86.94 8.13 11-4.37 4.71-24.47-4.55-32.27-16.69-14.12-37.09-19-59.87-19.73-5.68.12-4.17-1.52-1.61-3.21a12.76 12.76 0 0 1 7.32-1.51c46.24 5.69 63.29 26.77 69.36 37.27zm-85.76-27.32a11 11 0 0 1 7-2.21c29.6 2.5 58.87 7.58 68.66 34.55 7.45 20.47-47.47 10.09-86 2.78a8.56 8.56 0 0 1-5.72-4.2c-5.46-12.74 6-22.54 16-30.89zm-7.59-.12c-1.43 1.62-1.66 1.52-.46-.33 10.78-16.24 31.23-24.94 38.67-43.86 2.22-7.14 8.71-11.08 15-14.59 1.9-1.06 3.48-.15 3.22 2-3.22 26.33-38.76 36.87-56.44 56.8zm8.44-17.8a107.1 107.1 0 0 1 16.11-16.45c1.64-1.44 2.52-.87 1.16.82-3.52 4.31-11.37 11-16.7 16.08-1.56 1.46-1.86 1.23-.57-.45zm307.42-264.79a39.59 39.59 0 0 1-4.18 6.61c-19.91 24.82-36.42 53.61-63.55 71.33a49.77 49.77 0 0 0-6.19 4.81c-22.86 21.42-53 38.67-84.44 39.38-10.87.23-33.09.2-17-19.15 5.32-6.42 12.31-13.05 12.38-18.6.09-6.53-8.83-8.35-17.27-1.28-28 23.45-22.1 69.64-42.29 99.65-1.22 1.8-3.24 4.7-4.56 6.48-15.33 21.24-42.84 28.6-60.55 47.47a96.87 96.87 0 0 1-8.64 7.94c-25.11 20-35.39 59.64-48.68 79.68-9.91 14.88-18.89 20.21-29.3 21.21-2.18.21-2.25-.33-.29-1.26 33.79-16 44.84-92.8 88.66-121 30.1-17.21 62.22-38.77 71.19-74.18a53.56 53.56 0 0 0 1.06-7.77c2.09-29.14 18.1-62.66 48-72.84 12.27-4.56 21.33 11.45 8.24 22.76-9.56 8.21-17.58 28.09 2.94 24.53 72.39-17.9 129.76-76.43 159.11-143.36 25.6-72.93-33.39-152-103-166-31.78-6.39-73.37-8.84-95.94 17.17-7.06 8-10.09 21.75-13 29.89a2.49 2.49 0 0 1-3 1.89 2.58 2.58 0 0 1-1.4-.88c-1.3-1.51-2.41-3.24-1.83-4.85 6.2-17.41 11.53-28 23.43-38.64 19.85-17.68 50.91-19.75 76.71-16.71 34.79 4.1 49.46 19.61 75.81 36.09 32.93 20.58 46.12 59.19 55.53 94.89a48.34 48.34 0 0 1 1.32 7.74c1.49 23.82-9.24 45.9-19.27 67z"></path><path d="M969.39 581.63c-1.52-1.52-2.63-.65-2.09 1.52 3.56 14.18 2.56 29.47-5.65 42.14-1.18 1.84-.67 2.46 1 1.09 11.69-9.33 17.47-34.38 6.74-44.75z"></path><path d="M943.27 575.44c-1.85-1.14-5.74-1.17-6.33.92a3 3 0 0 0 1 3c1.52 1.51 4.86 2.74 6.19 4.47 7.15 9.2 5.18 21.25.68 31.24-.89 2-.21 2.62 1.38 1.13 11.18-10.46 9.75-32.99-2.92-40.76z"></path><path d="M923.51 326.68a6.24 6.24 0 0 0 3 6c21.53 11 54.9-9.25 50-35.13-2.57-13.55-10.76-20.24-21-23.31a10.39 10.39 0 0 0-7.35.73 22 22 0 0 0-8.56 12.31A4.86 4.86 0 0 0 942 293c7.58 2.81 20.14 1.05 16.57 12.93-5.72 20-31.66 2.57-35.06 20.75zm33.39-37.1c-2.08-.65-5.83-.24-7.71-1.35s-1.32-3.74.46-6a5.84 5.84 0 0 1 6.55-1.06c7.59 4 13.77 12.14 14.8 19 2.73 18.21-18.37 33.09-35.77 28.84-2.13-.52-5.53-2.87-4.86-4.94 1-2.94 11.34 1.52 20.57-2.88 15.23-7.38 20.24-27.18 6-31.61z"></path><path d="M1014.1 294.42c9.45-8.77 20.61-19.82 16.69-33a23.84 23.84 0 0 0-3.87-6.77c-9.32-11.35-22.76-20.84-31.55-31.28a4 4 0 0 0-5.55-.76c-14.63 12.9 9.35 26.86 16 39 7.58 12.14-6.88 18.85-13.56 27.65a48.21 48.21 0 0 0-4.08 6.71c-8.69 17.94 9.75 43.9-13.55 54.24-25.31 11.33-28.24 42.66-26.09 66a5.25 5.25 0 0 0 4.28 4.56c16.53 1.35 6.3-24.44 11.14-37.49a43.49 43.49 0 0 1 3.72-6.92c9.41-14.83 32.52-15.31 39.15-32.49 5.3-13.66-5.32-30.35 2.22-43.66a30.8 30.8 0 0 1 5.05-5.79zm-14.33 50.08c-8.69 13.66-29.36 15.09-37.94 29.21a59.2 59.2 0 0 0-3.61 7c-3.78 9.27-.68 21-2.05 29.7-.35 2.14-1.33 2.06-1.61-.1-2.43-19.48 2.46-45.24 22.31-55.3a63.11 63.11 0 0 0 7-3.61c14.87-10.53 6.35-30.35 7.15-46.13.85-16.7 24.1-22.77 23.19-39.46-1.21-14.51-18.67-20.79-22.48-33.65-.62-2.09.17-2.32 1.52-.6 9.8 12.67 29.59 17.69 32.42 34.4 2.91 17.25-20.28 22.31-24.53 38.26-3.7 13.55 6.22 28.27-1.35 40.2z"></path><path d="M806.78 440c-1.69 8.54 1.51 16.36 8.19 16.4 2.17 0 3.72-2.5 3.8-4.67 1.32-36.65 52.76-43 60.41-78.79 3.2-15-10.89-19.93-14-30.43a15.69 15.69 0 0 1 .26-7.73c3.93-12.14 17.87-16.69 28-22.84 25.08-14.72 37.29-44.89 31.56-73.1-1.83-14.55-14.53-29-30.17-26.63-12.14 1.83-25 13.43-26.89 25.14-3.78 23.65 28.82 36.25 34.39 12.65 3.21-13.65-22 4.56-19.22-8.33 1.76-8.21 14.75-20.77 21.69-12.24 12.14 14.94 8.5 44.7-7.83 59.71-17.24 17-50.8 23-52.09 51.77-1.33 13.31 15.35 15.83 18.69 25.59a11.52 11.52 0 0 1-1.07 7.5c-13.5 26.11-49.67 35.06-55.72 66zm44.1-103.2c3.64-19 23.76-25.8 38.44-34.54 26.27-15.77 39.78-54.41 19.33-77-17.63-19.5-47.12 29.12-17.55 27.48 2.17-.12 3.59 1.52 1.63 2.49-5.9 2.78-21.24-.7-20.33-14.49.68-11.28 11-20.61 21.08-22.95 12.91-3 23.16 7.06 25.71 17.67 5.67 23.7-.93 48.82-17.12 64.39-14 13.43-35.77 12.59-41.66 33.39-3 11.57 7.19 19.39 12.61 27.77a16.61 16.61 0 0 1 2.32 7.37c.41 27.47-54.42 42.69-62.42 77.7-.48 2.13-.88 2.13-.88 0 .08-34 47.82-43.81 57.44-74.77 3.89-16.18-21.76-18.38-18.6-34.52z"></path><path d="M1009.42 446.94a36 36 0 0 0-16.31 9.71c-1.52 1.6-.68 2.86 1.52 3 12.14 1 25.31 12 35 4.91 14.52-10.56-8.96-20.5-20.21-17.62zm17.12 13.14c-7.78 5.33-36.18-6.49-13.66-8.68 5.47-.53 21.83 3.1 13.66 8.68z"></path><path d="M1014.43 124.78a77.34 77.34 0 0 1 20.93-9.1c2.11-.54 5.55-1.52 7-3.21 4.84-5.54-1.87-13.82-9.2-13.82a19.51 19.51 0 0 0-7.43 2.37c-8 4.26-12.33 13.17-14 22-.45 2.11.84 2.98 2.7 1.76zm6.22-11.43a30.2 30.2 0 0 1 7.14-7.39 9.57 9.57 0 0 1 7.28-.82c9.11 3-4.72 6.44-13.11 9.78-2.09.8-2.58.18-1.31-1.57z"></path><path d="M708.94 344.36a8.22 8.22 0 0 1-2.34-6.22c.76-9.74-8.35-16.69-17.83-17.68a38.72 38.72 0 0 0-7.82.65c-10.82 1.73-22.66 2.42-29.33 13.22-17.23 27.91 21.79 61.19 47.7 46.41a47.57 47.57 0 0 0 6.46-4.55c9.05-7.86 12.08-23.36 3.16-31.83zM690 327.44c4.37-.36 8.4 2.73 10.38 6.68a4.37 4.37 0 0 1-2.14 5.74c-9.8 2.94-24.57-12.14-8.24-12.42zm-19.83 9.23c-.15 3.41 2.06 6.5 5.07 2.49a2.51 2.51 0 0 1 4.32-.32c4.65 4.64 11.61 6 17.15 9.55a4 4 0 0 1 1.09 5.49l-.16.23c-10.07 10.45-38.48-4.87-28.84-18.21 1.22-1.79 1.46-1.4 1.37.77zm15.92 41.6a52.62 52.62 0 0 1-7.82-.91c-22.4-4.39-37.47-39.46-10-48.84 7.11-2.47-3.94 1.67-5.63 6.66-8.42 24.77 36.55 40.64 41.72 16.42.46-2.12 1.52-2.52 2.52-.54 5.83 12.65-7.14 27.36-20.74 27.21z"></path><path d="M563.31 616.85c-1.32 5.07-1.61 9.2.6 12.93 7.39 12.51 26.17 13.34 33.65-2.4 7.15-15-5.49-24.9-16.94-26.66a7.7 7.7 0 0 1-5.1-3c-3.18-4.55-7.49-4-11.29-1.86-5.22 2.93-4.9 7.11.31 16.11.76 1.27-.78 3.12-1.23 4.88zm20.44-11.38c19 4.89 7.44 34.59-10.5 26.69-15.88-6.9-2.69-28.86 10.5-26.63zm-18.21-3.4a21.62 21.62 0 0 1 2.64-1.91c1.52-1 3.79-1 4.69.32a5.22 5.22 0 0 1 1.12 2.58c-.3 1.27-6.36 7.81-7.24 6.36-.65-1.13-2.74-5.86-1.23-7.35z"></path><path d="M722.75 181.56c5.29 10.22 20.93 8.07 31.2 13.17 1.94 1 5.28 1.33 5.9-.76 1.19-4-4.17-9.49-9-12.26-1.88-1.08-5.13-2.46-7-3.66-6.95-4.55-16.25-10.9-20.88-3.78a8.43 8.43 0 0 0-.22 7.29zm9.42-4.41c4.8.47 9.61 6.64 14.18 8.29 13.49 3.58-9.28.76-16.15-4.11-1.72-1.26-.2-4.39 1.97-4.18z"></path><path d="M523.47 673.94c3.6-2 7.8-9.45 7.24-13.43-.29-2.15-3.23-.88-4.08 1.14a57.58 57.58 0 0 1-4.33 8.59c-1.17 1.84-.73 4.76 1.17 3.7z"></path><path d="M574.84 628.83c1.44.09-1-3.22-2.41-7-1.14-2.91-1.08-6.36-2.35-6.94-3.36-1.47-.25 13.62 4.76 13.94z"></path><path d="M526.13 319.82c-.66-5.2-1.93-9.1-5.38-11.77-11.5-8.86-29.24-2.66-30.35 14.73-1 16.62 14.36 21.08 25.63 18.46a7.73 7.73 0 0 1 5.88.95c4.64 3 8.45.91 11.18-2.47 3.75-4.66 1.9-8.42-6.28-14.86-1.19-.94-.46-3.24-.68-5.04zM511.39 338c-19.43 2.5-19.73-29.35-.18-28.69 17.31.53 13.23 25.76.26 28.64zm18.21-3.63a27.15 27.15 0 0 1-1.73 2.76c-1 1.52-3.17 2.34-4.55 1.52-1.06-.73-1.94-1.52-2-2-.19-1.29 3-9.61 4.36-8.59 1.09.68 4.75 4.25 3.9 6.25z"></path><path d="M511 313c-1.38.45 2.06 2.64 4.83 5.56 2.12 2.28 3.35 5.5 4.75 5.56 3.65.17-4.83-12.69-9.58-11.12z"></path><path d="M619.93 462a27.11 27.11 0 0 0 36.19-21.09c3.33-19-12.91-30.43-27.72-28.94-25.07 2.54-35.18 40.71-8.47 50.03zm27.7-39.23c6.89 5.41 5.46 16 1.3 23.59-1 1.91-1.37 1.71-.73-.37a29.12 29.12 0 0 0-2.09-21.7c-.96-1.94-.2-2.83 1.52-1.5zm-23.42-.57a11 11 0 0 1 7.31-1.84c13.1 2.46 17.06 24.16 5.76 31.67a11.9 11.9 0 0 1-7.46 1.45c-13.4-2.56-16.25-22.99-5.61-31.26zm-9.55 1.59c1.32-1.73 1.52-1.52.75.55-2.92 6.93-5.07 21.24 1.88 29.26 1.41 1.65 1.21 2-.53.74-8.93-6.52-8.76-21.82-2.1-30.53z"></path><path d="M484.94 445.56c2.76 7.19 10.86 8.54 18.3 9.59a13.36 13.36 0 0 1 6.66 3.37c11.46 12 23.77 28.27 43.22 22.35 15.91-4.84 18.81-17.75 14.82-32.28-2.68-9.68 7.4-21.77 10.62-31.24 4.55-14.12-7.76-31-23-30.36-15.94 1.81-23.06 20.45-38.9 22.48-14.14 3-33.8 11.84-33.1 28.39a29.21 29.21 0 0 0 1.38 7.7zm7.4-17.8a34.45 34.45 0 0 1 6.07-5c9-6.31 20.69-6.68 30.61-11.13a26 26 0 0 0 6.32-4.55c4.87-4.81 9.83-9.71 16.07-12.55a14.48 14.48 0 0 1 7.59-1c7.86 1.74 14.52 9.21 14.55 17.18a21.4 21.4 0 0 1-2.11 7.51c-5.07 10.93-12.67 21.9-10.08 34a46.85 46.85 0 0 1 1.64 7.68c.13 9.21-7.73 15.51-16.7 16.86a19.62 19.62 0 0 1-7.77-.61c-15.53-5.22-20.53-28.1-37.73-28.57-2.17 0-5.72-.09-7.47-1.4-5.28-4.02-5.33-13.11-.99-18.42z"></path><path d="M509.48 442c16.55 1.52 16.6 27.5 34.4 26.83 19 .85 7.89-22.47 14.1-32.29 7.27-11.54 14.9-34-2.56-34.47a17.31 17.31 0 0 0-7.41 2.08c-12.69 7.09-24.6 16.15-39.72 17.23-13.61.52-16.02 18.94 1.19 20.62zm-.72-14.08a120.67 120.67 0 0 0 40.65-17.45c1.79-1.23 5-2.3 7.07-1.52 10 3.41 1.17 17.72-4 24.87-7.93 11 4.22 29.29-8 28.76a13.16 13.16 0 0 1-7-3c-6.3-5.86-8.57-15.07-17.86-20.2-4.25-2.36-15.46-2.57-16-7-.33-2.21 3.03-4 5.14-4.5z"></path><path d="M913.22 589.63c7.2-2.78 8.53-10.89 9.58-18.31a13.32 13.32 0 0 1 3.35-6.67c12-11.46 28.25-23.8 22.3-43.26-4.84-15.89-17.76-18.77-32.31-14.76-9.66 2.67-21.77-7.38-31.25-10.63-14.12-4.55-31 7.8-30.35 23.09 1.83 15.93 20.48 23 22.52 38.86 3.12 14.15 11.88 33.78 28.42 33.07a29.09 29.09 0 0 0 7.74-1.39zm-17.8-7.38a35.78 35.78 0 0 1-5-6.07c-6.32-9-6.7-20.69-11.16-30.6a25.74 25.74 0 0 0-4.55-6.31c-4.81-4.86-9.71-9.82-12.57-16a14.49 14.49 0 0 1-1-7.59c1.73-7.86 9.19-14.52 17.16-14.57a21.59 21.59 0 0 1 7.59 2.1c10.93 5.07 21.91 12.64 34 10a49 49 0 0 1 7.67-1.65c9.23-.12 15.52 7.72 16.89 16.69a20.12 20.12 0 0 1-.59 7.76c-5.21 15.49-28.09 20.59-28.55 37.77 0 2.17 0 5.72-1.38 7.47-4.11 5.26-13.2 5.33-18.51 1z"></path><path d="M909.61 565.1c1.52-16.56 27.45-16.69 26.79-34.45.82-19-22.51-7.86-32.33-14-11.53-7.26-34-14.86-34.46 2.61a17.42 17.42 0 0 0 2.09 7.39c7.1 12.69 16.18 24.58 17.27 39.7.61 13.56 19.03 15.95 20.64-1.25zm-14.1.71A120.77 120.77 0 0 0 878 525.26c-1.23-1.79-2.29-5-1.51-7.07 3.4-10 17.71-1.18 24.87 3.93 11 7.91 29.29-4.25 28.83 8a13 13 0 0 1-3 7c-5.84 6.29-15.07 8.59-20.18 17.89-2.34 4.25-2.55 15.45-7 16-2.21.3-4.01-3.09-4.5-5.2z"></path><path d="M256.37 589.09c8.57-.56 28.09-3.41 24.28-4.43a27.1 27.1 0 0 0-7.84 0 78.67 78.67 0 0 0-16.61 2.84c-2.11.73-2 1.75.17 1.59z"></path><path d="M247 640.74a26.7 26.7 0 0 0 6.59-2.4c2-.88 5.38-1.84 7.43-2.55 44.53-15.34 91.9-10.77 137.77-5.58 2.16.24 5.72 1.51 7.59.33a3.19 3.19 0 0 0 .43-.32c1.66-1.39-2.81-2-5-2.23-51.48-5-105.39-12.81-154.16 9.11-2.05.9-2.86 3.9-.65 3.64z"></path><path d="M787.94 328.51C801.19 302 778.05 257 750 265.69c-17.48 5.46-7.1 32.61 7.06 38.7 2 .87 5.42-.12 5.48-2.29.11-3.32-2.22-7.89-2.95-11.66-.62-3.2 3-3.44 4.95-.85 4.3 5.65 8.09 12 9.49 18.85a26.15 26.15 0 0 1 .09 7.8c-4 24.82-31.08 41.42-29.82 67.63.1 2.17 2.15 4.55 4.29 4.11 3.17-.62 6-3 9-4.72a7.6 7.6 0 0 0 3.61-5.52c1.15-16.5 15.64-27.93 23.08-42.27 1.02-1.93 2.72-5.02 3.66-6.96zm-8.24 1.91c-7.8 11.62-18.48 27.18-23 43.75a9.36 9.36 0 0 1-4.46 5.45c-2 .89-3.45-.14-3-2.28 3.36-19.21 21.25-33.48 28.14-51.49.77-2 2-5.36 2.5-7.47 3.25-12.78-4.17-25.33-12.53-35.11-3.19-3.72-6.91-5.6-9.64-3.81s-3.79 6.34-3.88 10.48c0 2.19-1.41 3-2.67 1.2-4.68-6.43-4.74-18.51 2.29-19.73 24.04-4.41 41.43 37.08 26.25 59.01z"></path><path d="M252 621.09c34.79-10.32 71.62-14.68 107.59-8.47 2.14.36 2.35-.2.33-1-9.71-3.93-24.57-4.55-36.66-5.2-2.17-.11-5.69-.1-7.86 0-21.43 1.51-46.63 2.53-63.94 13.53-1.8 1.2-1.46 1.76.54 1.14z"></path><path d="M667.34 260.29c-9.11 2.23-5.81 13.07 1 15.86 2 .82 5.62.7 7.77.94a75 75 0 0 1 25.06 7.59c2 1 3.78.09 3.73-2.1-.52-17.37-22.26-24.98-37.56-22.29zm24.74 14.31c-7.68-.36-24-3.13-22.46-7.24.77-2 4.7-2.15 6.86-1.79 5.81 1 12.14 2.25 16.69 5.89 1.68 1.35 1.08 3.23-1.11 3.14z"></path><path d="M768.23 144.18c5.72 1.7 13.37 1.51 12.32-3.84-.42-2.14-2.77-4.94-3.68-6.91-5.1-11 .39-30.35 13-24.78a15.87 15.87 0 0 1 5.69 5.17c18.93 29.55-15.66 66.1 1.81 96.65a65.08 65.08 0 0 0 3.72 6.87c5.32 6.8 17.93-7.59 10.44-13.75-1.7-1.37-3.72-3.5-3.81-5.69-.93-23.37 13.37-46.14 11.85-70.17-.12-2.17-.27-5.7-.44-7.87-1.17-16.07-14.05-31.29-30.35-31.7a23.67 23.67 0 0 0-7.68 1.37c-18.58 7.28-27.15 32.23-18.44 49.7a11.09 11.09 0 0 0 5.57 4.95zM784 94.37c20.35-3.28 31.36 18.21 30.17 36-.13 2.17-.38 5.68-.44 7.85-.6 21-13.06 40.06-12 61 .11 2.19.63 5.79 2.2 7.27s3.6 2.71 4 3.63c.91 2-4 .21-5-1.73-14.8-28.42 12.14-60.35 1.83-89.7-.72-2-1.77-5.41-2.7-7.38-3.91-8.29-14.72-13.1-22.91-9a17.41 17.41 0 0 0-5.6 5.37 29.5 29.5 0 0 0-1.66 28.26c.94 1.95.32 2.7-1.38 1.32-13.2-10.78-2.91-38.7 13.52-42.94z"></path><path d="M259.33 602.09c14.27-.92 28.83-5.88 43.42-3.87 2.15.28 2.56-.55.45-1.11a51.75 51.75 0 0 0-14.16-1c-10 1.26-20.29 1.64-30 4.73-2.04.71-1.88 1.38.29 1.25z"></path><path d="M609.08 125.77a29.49 29.49 0 0 1 0-7.74c1.94-13.46-2.17-28.84-11.92-38.37a7 7 0 0 0-6.72-1.51c-14.75 6.07 10 21.15 7.82 33.9-.37 2.14-3.19 3.81-5.36 4-3.76.29-7.59.74-10.35 3.58-16 18.35-40.44 26.3-57.21 43.63a69.48 69.48 0 0 1-5.65 5.47c-34 27.16-102.67 25.64-126.08 19.89-8-2-13.34-13.66-20.43-9.44a10.29 10.29 0 0 0-3.81 6.42c-2.85 19.4 18.87 30.8 37.41 36.4a55.77 55.77 0 0 1 7.27 2.93c34.36 17.27 74.44 13.53 108.11-3 2-1 5.16-2.43 7.18-3.25 38.35-15.51 87.24-46.68 79.74-92.91zm-9 28C583 191.45 536.35 212.12 497.85 226c-27.48 9.32-57.06 5.42-84.3-6.8a76.49 76.49 0 0 0-7.36-2.75c-13.43-4.15-26.88-11.21-30.67-24.06-.62-2.1-1.14-6.17.64-7.41 2.24-1.52 6.29 4.05 10.09 6.9 1.73 1.31 5.28 1.87 7.43 2.22 36 5.77 74.52 4.83 108.38-9.32 2-.85 3 0 2.26 2.13-5.71 16.36 9.86-14.6 12.93-7.59.86 2 1.29 2.29 2.38.42 12.37-21.16 35.37-31.42 54.19-46.07a5.19 5.19 0 0 1 6.21-.09c6 5.18 10.62 12.71 17.8 15.59a3.43 3.43 0 0 1 2.41 4.21 3.12 3.12 0 0 1-.15.43zm-12.74-32c1.92-1 5.55-.82 7.71-1.1 6.38-.8 8-5.31 7.4-10.94-1-9.76-16.19-23.49-9.56-26.07 4.19-1.64 8.73 8.5 10.43 13.52 2.45 7.26 1.88 15.38 1 23.48-.8 7.72 3.9 16.4-.68 22.43-4.3 6.85-27.28-15.76-16.29-21.25z"></path><path d="M276.52 282.28a50.39 50.39 0 0 0-7.58 1.82c-6.26 1.52-13.57 1.9-18.38 5.45a11 11 0 0 0-3.49 6.66c-1.52 15.63 16.17 29.59 31.31 26.51a14.67 14.67 0 0 0 6.73-3.73c9.82-10.99 7.82-37.49-8.59-36.71zm7.79 26.21a11.68 11.68 0 0 1-4.07 6.28c-10.62 6.56-26.56-3.82-28-16a5.67 5.67 0 0 1 3.71-5.3c6.39-2.38 14.26-5.14 21.52-5a8.29 8.29 0 0 1 6.3 3.49c2.66 4.84 1.91 11 .58 16.52z"></path><path d="M245 248c-7.48 7.22-5.23 18.34-2.71 27.22a6.46 6.46 0 0 0 5 4.3c13.66 1.51 32.95.65 35.41-15.36 3.72-21.92-24.48-31.25-37.7-16.16zm31.65 17.66a10.24 10.24 0 0 1-5.36 5c-7.59 2.94-19.29 6.74-23.25.68-1.19-1.82.51-4 2.58-4.66 7.24-2.46-7.82-4.22-4.43-11.12a25.32 25.32 0 0 1 5-6.07c11.24-10.14 30.45 1.67 25.42 16.16z"></path><path d="M231 239.12c-1.52 1.59-3.72 4.32-5.07 6.07-22.49 28-19.23 77.18 18 90.87 20.55 7.85 49.9 4.84 57.58-19.23 4.89-19.94-6.39-38.72-7.31-58.59a40.83 40.83 0 0 0-.93-7.79c-7.76-26.45-44.35-30.74-62.27-11.33zm9.5 87.85c1.72 1.32 1.62 1.52-.27.46-15.66-8.65-26.52-27.14-23.45-45.11.38-2.15 1-2.07 1.32.08 1.8 12.6 8.78 34.15 22.35 44.6zm48.82-70.61a68.35 68.35 0 0 1 0 7.84c0 12.95 7.86 24.54 7.82 37.44 0 2.17 0 5.69-.23 7.86-1.11 13.34-14.17 24.89-27.7 23.44-39.59-5.63-60.61-60.09-33.29-90 15.67-17.78 49.92-10.42 53.35 13.42z"></path><path d="M259.82 294.13c-2.18 0-2.54 3.25-1.42 5.1 2.93 4.84 7.18 11.4 9.37 7.69 1.11-1.86-1-3.53-2.51-5.09-2.46-2.54-2.59-7.77-5.44-7.7z"></path><path d="M210.72 174c2.06.68 3.55-.35 3-2.46-3.24-12.32-16.39-27.31-29.26-20.82a6.08 6.08 0 0 0-2.87 6.07c2.75 12.64 17.92 13.44 29.13 17.21zm-21-20.58c7-.91 12.72 4.65 16.23 10.82 1.06 1.89 0 3.37-2.18 3-6.54-1.09-12.8-3.45-16.22-9.11a3.13 3.13 0 0 1 1-4.31 3.3 3.3 0 0 1 1.18-.45z"></path><path d="M98.05 295.79a48.49 48.49 0 0 0-5.7 5.4c-5 6.39-2.8 16.69 5.34 17.71a9.75 9.75 0 0 0 6.89-2.78c7.68-8.25 8.54-23.19 18.82-28.1 1.95-.95 2.5-2.68.39-3.24-7.02-1.89-18.79 4.92-25.74 11.01zm3.66 15.32c-1.41 1.66-4.76 2.86-6.3 1.31-3-3 2.16-9.59 5-12.58 16.93-16.47 9.59 1.61 1.3 11.27z"></path><path d="M389.59 87.24c21.67-16.7-14.27-53.74-29.07-33.63a13.91 13.91 0 0 0-2.14 7.31c.49 16.63 13.16 38.93 31.21 26.32zM365.9 56.88c9.86-12.67 34.17 13.9 21.8 24.89a22.18 22.18 0 0 1-6.86 3.8c-10.18 3-15.63-11.17-16.69-21.25a12 12 0 0 1 1.75-7.42z"></path><path d="M340.11 82.52a2.81 2.81 0 0 0-5.07.18 2.77 2.77 0 0 0 2.66 4.07c3.37-.26 3.5-2.65 2.41-4.25z"></path><path d="M384.14 77.48a2.79 2.79 0 0 0-3.76-1.21 2.83 2.83 0 0 0-1.3 1.39 2.76 2.76 0 0 0 2.66 4.07c3.35-.31 3.51-2.64 2.4-4.25z"></path><path d="M342.84 92.09c3-2.34 3.36-4.2 2.52-4.84s-3 0-4.63 3.22c-.97 1.94.4 2.94 2.11 1.62z"></path><path d="M353.63 96.55c7.74-10.62 2.16-26.36-3.87-38.18a6.69 6.69 0 0 0-5.76-3.58c-11.11 1.21-21 14.54-20.81 25.63-.42 15 20.08 30.49 30.44 16.13zm-15.55-.94a19 19 0 0 1-9.49-14.32c-1.06-8 6.26-17.59 13.87-20 2.07-.66 4.56 1.07 5.24 3 3.26 9 7.59 23.45 2.28 29.49a9.91 9.91 0 0 1-11.9 1.83z"></path><path d="M338.46 72.38c-.76-1.4-2.37-2.37-3.69-1a2.71 2.71 0 0 0 .58 3.78 2.74 2.74 0 0 0 1.73.52c1.98-.21 2.08-1.95 1.38-3.3z"></path><path d="M385.82 70c-.74-1.38-2.37-2.35-3.69-.94a2.7 2.7 0 0 0 2.31 4.29c2.02-.23 2.11-2.02 1.38-3.35z"></path><path d="M275.61 308.55a2.79 2.79 0 0 0-1.78-3.53 2.82 2.82 0 0 0-1.92.07 2.75 2.75 0 0 0-1 4.75c2.58 2.16 4.34.62 4.7-1.29z"></path><path d="M268.07 253c.37-1.91-1-2.27-4.07-1.51a2.75 2.75 0 0 0-1.88 3.39 2.8 2.8 0 0 0 .88 1.36c2.61 2.18 4.71-1.24 5.07-3.24z"></path><path d="M282.09 304.48c.44-1.52 0-3.34-1.92-3.29a2.7 2.7 0 0 0-1.43 4.66c1.59 1.27 2.9.15 3.35-1.37z"></path><path d="M257.51 256.74c.45-1.52.1-5.37-1.84-5.33s-3.22 5.34-1.52 6.71 2.9.1 3.36-1.38z"></path><path d="M381.12 61c-.75-1.39-3.28-2.34-4.56-.93a2.7 2.7 0 0 0 2.31 4.29 2.43 2.43 0 0 0 2.44-2.42 2.54 2.54 0 0 0-.19-.94z"></path><path d="M372.45 111.81a57.33 57.33 0 0 1 7.86-.2c16.62-.71 29.84-9.65 32.19-27.42.29-2.16.93-5.59 1.4-7.71 5.31-23.89-15.18-49.93-39.81-49.71-32-2.64-61.43 26.12-61.43 58.46 1.44 21.58 19.86 38.79 40.2 35.65 5.22-.82 12.6-7.6 19.59-9.07zm11.43-78.92c15.39 4.28 30.35 26 25.25 45-.56 2.1-1.24 1.94-1.38-.23C406.69 60.27 397 45 383.2 34.5c-1.72-1.26-1.41-2.13.68-1.55zm-65.15 47.65c1.88-29.45 41.67-58.68 66.77-37 1.64 1.43 4.21 3.86 5.69 5.44 11.33 11.89 16.7 34.28 8.23 47.8-2.41 3.9-12.34 6.85-19.24 8.8-2.1.61-5.57.87-7.71 1.23-6.65 1.13-12.57 6.39-19.73 8.58-15.8 4.82-37.05-15.22-34.01-34.85z"></path><path d="M468.52 116c-1.75 13.37-3.6 24.64-3.17 24.51.92-.24 29.21-38.82 20.95-68.65a2.22 2.22 0 0 0-2.5-1.92 2.2 2.2 0 0 0-1.55.95C473.53 81 470.58 100.17 468.52 116zm15.36-38.6c.78 12.67-3.74 30-12.05 46.68-1 2-1.37 1.79-.88-.33 4.55-20 5.55-36.29 10.62-46.83.89-1.92 2.18-1.69 2.31.48z"></path><path d="M364 402.17a5.45 5.45 0 0 0 4-5.07c-.49-15.83-18-26.92-26.81-36.56-1.51-1.59-2.45-1.27-2.3.9 1.16 16.33 7.58 44.13 25.11 40.73zm-20.3-29.9c-.56-2.11.51-2.76 2.14-1.3 6.86 6.22 15.27 16.56 16.57 22.88a3.31 3.31 0 0 1-4.28 3.46c-6.55-2.73-12.09-16.07-14.43-25z"></path><path d="M458.35 1.52a4.56 4.56 0 0 0-6.07-.65c-7.67 7.13 2.12 22.76 3.14 33.93.2 2.17 1 2.55 2 .61 4.16-8.09 7.65-25.1.93-33.89zm-2 21.13c-1.45-5.39-3.77-11.86-2.86-16.33a1.9 1.9 0 0 1 3.75 0c1.52 4.44 1.15 10.89.49 16.3-.23 2.12-.79 2.12-1.35.03z"></path><path d="M304.51 163.22c-7.59-8.22-23.07-10.89-26.42-23.26-.56-2.1-.26-5.68-.72-7.8-1.88-8.65-14.16-14.28-17.52-5.66a12.73 12.73 0 0 0 .31 7.58c6.36 17.08 27.11 23.54 43.1 30.64 1.98.9 2.74.1 1.25-1.5zm-32.25-20.14a25.52 25.52 0 0 1-5.51-5.85 11 11 0 0 1-.85-7.49c1.88-6.07 5.86 5.1 8.18 12.14.64 2.01-.15 2.6-1.82 1.2z"></path></g></g></g></svg>