<svg xmlns="http://www.w3.org/2000/svg" width="1080" height="715.83" viewBox="-0.0025420188903808594 0.000006258487701416016 1080.01416015625 715.8235473632812" style=""><g><title>sweets02_314044422</title><g data-name="Layer 2"><g data-name="Layer 1"><path d="M1041.39 296.25c-6.74-82.12-10-188.28-51.58-259.43-5.84-10-12.65-19.88-22.25-26.23C954.4 2 937.78 1.05 922.05.59c-44.94-1.26-99.89-2.09-193.14 15.1C488.58 43.22 376.78 88.91 111.34 155.3c-14.94 3.8-27.83 14.46-37.21 26.7C58 203 59.52 232.26 62.5 258.62c11.63 103 38.62 190.49 70 289.18 8 25.11 18.08 51.93 40.19 66.16 15.67 10.07 35.06 12.16 53.66 12.89 81.5 3.2 157-.58 236.5-18.64 44.4-10.1 88.88-20.29 133.17-31.2 5.29 26.38 17.68 56.16 25.38 70.23a96.77 96.77 0 0 0 18.82 25.46c18.55 17.06 45.6 22.07 70.71 19.88 29.11-2.56 57.86-14.3 78.39-35s32.28-50.8 28.28-79.74a163.7 163.7 0 0 1-44 28.36c-9.13 4-19.38 7.23-28.92 4.4-13.13-3.82-20.69-17.38-25.46-30.18a196.69 196.69 0 0 1-9.21-33.6c72.22-20.8 143.3-45 212-75.4 49.21-21.69 101.74-52 116.6-103.74 6.64-23.07 4.74-47.55 2.78-71.43z" fill="#fedd30"></path><path d="M65.31 409.37C63.1 401.11 61 392.84 59 384.55 55.42 369.72 51.8 355 48.84 340 42.4 307.42 38.17 274.59 34 241.68c-.9-7.23-12.57-5.77-12.49 1.3a558.85 558.85 0 0 0 10.85 100.49c3.17 16.27 6.66 32.69 11.16 48.71 3.62 13.18 6.29 30.84 16.4 40.71a4.5 4.5 0 0 0 7.81-2.48c1.43-7.16-.58-14.15-2.42-21.04z" fill="#fedd30"></path><path d="M17.94 342.08c-.76-2.24-1.49-4.5-2.15-6.76-1.31-4.31-2.46-8.68-3.49-13.06a200.37 200.37 0 0 1-4.54-27.12c-.47-4.88-7.92-5-7.76.09a205.37 205.37 0 0 0 2.32 25.12 184.76 184.76 0 0 0 5.51 24.24c.56 1.9 1.14 3.8 1.81 5.64a15.44 15.44 0 0 0 3.92 5.53 3.75 3.75 0 0 0 6.44-2.35 28.35 28.35 0 0 0-2.06-11.33z" fill="#fedd30"></path><path d="M1079.07 272.54c-.52-4.79-1.16-9.52-1.81-14.28-1.08-7.94-1.8-16-4.28-23.63-1.32-4-8.53-4.86-9.15.13a81.53 81.53 0 0 0 .25 17.39c.44 5 .69 10 1.22 15.06q.67 6.24 1.39 12.48a61.79 61.79 0 0 0 1.08 6.32 23.57 23.57 0 0 0 3.42 7.76 4.21 4.21 0 0 0 5.88.92 4.13 4.13 0 0 0 1.35-1.64c2.58-6.93 1.43-13.53.65-20.51z" fill="#fedd30"></path><path d="M672.09 708.42a15.53 15.53 0 0 0-6.17-3.49c-1.61-.63-3.16-1.39-4.79-1.95-2.59-.85-5.17-1.7-7.68-2.77a63.25 63.25 0 0 1-33.32-33.66 5.3 5.3 0 1 0-9.53 4.66 73 73 0 0 0 21.59 29.87 77.33 77.33 0 0 0 17.62 10.85 47.68 47.68 0 0 0 8.12 2.93c4 .95 9.76 1.8 13.32-.56a3.85 3.85 0 0 0 1.27-5.3 3.48 3.48 0 0 0-.43-.58z" fill="#fedd30"></path><path d="M217.7 283.41a.33.33 0 0 1 0 .14.49.49 0 0 0 0-.12z" fill="#fff"></path></g></g></g></svg>