<svg xmlns="http://www.w3.org/2000/svg" viewBox="0.002066314220428467 -0.003932476043701172 1477.55224609375 1269.033935546875" style=""><g><g data-name="Layer 2"><g data-name="Layer 1"><path d="M1439 1181.51c0 48.34-212.93 87.52-475.6 87.52s-475.6-39.18-475.6-87.52 169.18-41 431.84-41 519.36-7.33 519.36 41z" fill="#e6e7e8"></path><path d="M664.75 1222a5.18 5.18 0 0 0-5.22 3.88c-.52 2.55 1.4 5 4.29 5.45 1.6.26 161.2 25.18 295.7 16.18 2.92-.2 5.11-2.45 4.89-5s-2.78-4.53-5.7-4.34c-133.12 8.92-291.44-15.8-293-16a6.07 6.07 0 0 0-.96-.17z" fill="#f1f2f2"></path><g data-name="Avocado"><path d="M1322.6 853.44c-5.58 103.2-7.7 205-6.43 308.33.13 10.78 21.21 7.55 21.1-1.65-1.27-103.35.85-205.13 6.43-308.33.58-10.68-20.6-7.63-21.1 1.65z"></path><path d="M1334.69 1166.37c-5.67 7.56-11.86 16.74-18.53 23.47-8.13 8.21-17.54 16-29.76 17.87s-27.77-4.34-33.11-16.25c-4.82-10.74.31-22.3 9-28.23s20.2-7.46 31.36-8.63a146.44 146.44 0 0 1 17.21-1 89.12 89.12 0 0 1 25.07 4.07 2.38 2.38 0 0 1 1.46.93 1.67 1.67 0 0 1-.2 1.56c-.81 1.57-.61 2.46-1.41 4z"></path><path d="M84.73 687.62c-6.5-6.87-13.7-15.28-21.09-21.21-9-7.22-19.25-13.92-31.6-14.34S4.94 659.55 1 672c-3.56 11.22 2.85 22.12 12.17 27s20.92 5.11 32.14 5a144.66 144.66 0 0 0 17.22-.92A88.4 88.4 0 0 0 87 696.16a2.31 2.31 0 0 0 1.35-1.08 1.68 1.68 0 0 0-.39-1.53c-1-1.46-.88-2.37-1.86-3.83z"></path><path d="M466.19 744.68c38.6 0 77.06-.55 115.25-1.1a8.25 8.25 0 1 0-.13-16.47h-.14c-172.65 2.46-351.2 5-519-43.93a8.86 8.86 0 0 0-11 5.42A8.17 8.17 0 0 0 57 698.91c133.05 38.81 271.89 45.77 409.19 45.77z"></path><path d="M1285.81 385.39C1287 274 1305.17 164.3 1294 52.87c-.91-9 19.68-3.38 20.51 4.87 11.17 111.42-7 221.16-8.19 332.52-.1 9.46-20.6 3.32-20.51-4.87z"></path><path d="M1312 48.47c-4.64-8.24-9.58-18.15-15.31-25.69-7-9.21-15.29-18.19-27.16-21.61s-28.11.67-35 11.78c-6.18 10-2.61 22.15 5.25 29.16s19 10 30 12.66a145.93 145.93 0 0 0 16.93 3.29 88.59 88.59 0 0 0 25.39-.76 2.34 2.34 0 0 0 1.57-.72 1.73 1.73 0 0 0 0-1.58c-.6-1.65-.28-2.51-.88-4.17z"></path><path d="M1307.5 115.71c4.27 9.4 9.79 20.11 12.82 30.06 3.69 12.12 6.42 25.3 2.28 38.2s-17.28 25-30.83 24.21c-12.21-.73-20.44-11.61-21.75-23.14s2.75-23.57 7-35.09a166.05 166.05 0 0 1 7.25-17.4 98.15 98.15 0 0 1 15.73-22.49 2.35 2.35 0 0 1 1.55-1c.62 0 1 .52 1.34 1 1.06 1.58 2 1.84 3 3.42z"></path><path d="M1030.28 372.43Q1010 383.86 989.2 394c-4.56 2.23-9.65.66-11.36-3.51s.63-9.32 5.17-11.58c122.26-59.75 232-154 309.06-265.2 2.88-4.16 8.4-5.7 12.34-3.44s4.79 7.45 1.92 11.6c-70.33 101.57-167.19 189.26-276.05 250.56z"></path><path d="M412.09 494.05c-17.37-52.28 14.11-105.9 59.73-126.37s101-14.66 153-2 103.46 31.76 155.78 37.21c79.4 8.28 154.65-15.43 226.68-40.63s145.06-52.49 224-51.66 166.7 35.88 212.35 107.5c46.69 73.24 38.5 164.19 15.28 240.45-47.15 154.75-149.4 285.45-284.91 364.3-17.88 10.4-37.19 20.13-58.83 19.81-23.75-.35-47-12.74-69-24.88-226.65-125.17-459.89-272.32-594.4-498.2z" fill="#587331"></path><path d="M590.28 891.67c-26.7-80.73-90.28-139.93-139.12-207.89s-83.56-158-45.91-243.7c10.55-24 27.49-47.34 51.14-60.27 32.17-17.58 69.56-12.48 100.49-1.12C679.85 423.88 751.81 555 884.7 575.53c71.08 11 148-12.31 219.55-41.32 78.68-31.89 169.18-71.45 236.49-36.27 52.35 27.37 70 92.35 67.66 153.78-4 104.28-55.37 211.38-133.81 293.45s-182.46 139.46-289.47 166.95c-48.81 12.54-99.08 19.14-146.3 12.43-122.9-17.47-215.13-106.45-244.22-222.43z" fill="#c5d15d"></path><path d="M612.85 893.16c-26.18-74.26-85.05-129.87-130.79-193.07s-79.42-146.17-47.74-223.27c8.88-21.6 23.52-42.41 44.5-53.57 28.53-15.18 62.34-9.56 90.51 1.61 112 44.39 180.24 165.72 300.52 187.93 64.33 11.88 133-7.34 196.74-31.91 70.06-27 150.56-60.67 212.12-26.86 47.89 26.31 65.53 86 65 141.9-.91 94.91-44.36 191.15-112.89 263.88s-160.75 122.31-256.44 144.56c-43.66 10.15-88.78 14.85-131.5 7.5-111.2-19.13-196.63-102.63-225.88-209.07z" fill="#e5e567"></path><path d="M1081.53 839.19c-31.89-53.53-109.27-76.69-171.53-75.34s-122.36 34.67-160.08 84.61c-11.19 14.82-20.63 31.16-26.18 48.89-21.34 68.15 23.13 145.72 88.56 173.12s143.77 10.55 202-30.57c31-21.88 57.91-50.92 72.36-86.09s15.3-76.8-2.55-110.18z" fill="#e6b3c3"></path><path d="M820.28 1010c18.12 9.85 32.32 13.22 53 15.75 10.33 1.26 22.87 2.78 25-12.11-6.06-7.94-42.31-9.44-60.16-21.11-4.51-2.95-9-6.24-14.27-7.45s-11.76.29-14.55 5-2.61 14.73 7.07 18.35z" fill="#fff"></path><path d="M602.81 649a38.54 38.54 0 0 1 35.36-15.83 57.39 57.39 0 0 1 12.49 3.11c-.55-1.43-1.12-2.8-1.7-4a148.31 148.31 0 0 0-25.31-37l-3.23 2-54.9 42.72.11.88c7.22 11.72 15.28 23.23 26.12 31.74 1.54 1.22 3.17 2.34 4.83 3.41a38.93 38.93 0 0 1 6.23-27.03z"></path><path d="M638.17 633.12A38.54 38.54 0 0 0 602.81 649a38.93 38.93 0 0 0-6.23 27.12c10 6.41 22 10 33.36 7.89 13.3-2.43 25-13.82 25.16-27.4.08-5.9-2-14-4.44-20.33a57.39 57.39 0 0 0-12.49-3.16z" fill="#ed1c24"></path><path d="M532.5 670.7c3.81-3.55 9-6.51 14.42-6.73 3.24-.48 7 .64 10.39 2.44 8.75 4.57 15.85 16.6 10.89 25a30.65 30.65 0 0 1-3.68 5.27 17.84 17.84 0 0 1-7.49 5.66c-6.67 2.85-18.28 3.05-24.31-4.71-7.05-9.43-6.98-20.63-.22-26.93z" fill="#e2b0b4"></path><path d="M671.79 563.4c-5.39 3.22-10.55 8.18-12.61 14.32-1.64 3.55-1.58 8.15-.64 12.66 2.41 11.46 14 23.45 25.37 20.46 1.77-.47 5.81-1.57 7.34-2.52a21.57 21.57 0 0 0 9.08-6.74c5.53-6.71 9.63-19.91 2.62-29.3-8.55-11.06-21.58-14.58-31.16-8.88z" fill="#e2b0b4"></path><path d="M523.93 612a16.14 16.14 0 0 1-2.85 22.78 16.45 16.45 0 0 1-22.87-3.5 16.15 16.15 0 0 1 2.85-22.78 16.45 16.45 0 0 1 22.87 3.5z"></path><path d="M520.23 613.44a4.53 4.53 0 0 1-.8 6.39 4.63 4.63 0 0 1-6.42-1 4.53 4.53 0 0 1 .8-6.39 4.61 4.61 0 0 1 6.42 1z" fill="#fff"></path><path d="M505.27 642.35a5.92 5.92 0 0 0 3.1-5.57c-.1-1.48-2.4-1.55-2.31-.07a3.71 3.71 0 0 1-2 3.62c-1.29.69-.13 2.71 1.17 2z"></path><path d="M499 638.51a6.78 6.78 0 0 0 6.21-3.36 1.17 1.17 0 0 0-2-1.19 4.52 4.52 0 0 1-4.21 2.24c-1.48-.07-1.44 2.23 0 2.31z"></path><path d="M614.33 540.76c6.38 8.38 18.21 10.19 26.41 4A18.65 18.65 0 0 0 644 518.5c-6.39-8.38-18.21-10.19-26.41-4a18.64 18.64 0 0 0-3.26 26.26z"></path><path d="M617.06 537.12a5.33 5.33 0 0 0 7.41 1.13 5.22 5.22 0 0 0 .93-7.37 5.33 5.33 0 0 0-7.41-1.14 5.23 5.23 0 0 0-.93 7.38z" fill="#fff"></path><path d="M654.16 529.75a6.94 6.94 0 0 1-7.22 1.66c-1.62-.57-1-3.13.65-2.56a4.35 4.35 0 0 0 4.67-1c1.18-1.2 3.08.71 1.9 1.92z"></path><path d="M651.83 521.62a7.74 7.74 0 0 1-5.72 5.78c-1.64.41-2.34-2.17-.69-2.58a5.18 5.18 0 0 0 3.84-4c.39-1.65 3-.89 2.57.77z"></path><path d="M465.11 405.42c-42.24 22.88-97.36-1.65-122.59-54.53 23.43-5.18 47.29-10.37 71.13-6.12A84.49 84.49 0 0 1 475 391.39z" fill="#d5dfa3"></path><path d="M377 366.49c21.93 27 50.61 38.89 79.37 32.73 2.59-.56 2.2-6.06-.43-5.49-27.8 6-55.05-5.16-76.31-31.34-2-2.47-4.63 1.64-2.63 4.1z" fill="#587331"></path><path d="M483.42 386c13.35-46.75 41.12-85.29 75.75-105.14 12.87 14.67 26.92 32.64 26.44 54.57-.39 18.06-10.74 32.27-21.31 43.17-19.26 19.88-44.91 35.23-68.62 23.47z" fill="#d5dfa3"></path><path d="M495.91 388.37c22.66-17.59 40.38-42.88 52-74.07 1.17-3.13-2.62-5.61-3.78-2.5-11.37 30.42-28.62 54.84-50.7 72-2.26 1.76.2 6.33 2.45 4.58z" fill="#587331"></path><path d="M657.52 427.29c-81 133.6-205.53 165.19-265.66 172.55a32.22 32.22 0 0 0 6.42 7.76c11.61 10 29 .13 38.13-1.89 80.77-17.83 141.36-54.26 197.44-114 18.34-19.52 55.94-57.35 52.45-92.59-.83-8.38-3-14.57-6.06-19.11-6.65 17.09-13.96 32.85-22.72 47.28z" fill="#70371f"></path><path d="M660.19 368.84a50.74 50.74 0 0 0-16.4 1.57c-4.78 1.2-7.82 4.65-8.51 9.82-5.12 38-29.68 62.09-53.88 84.63C531.88 511 475.66 551 400.11 564.36c-10 1.78-13.87 9.16-13.73 17.59 66.81-9.06 213.08-47.79 273.81-213.11z"></path><path d="M657.52 427.29c8.76-14.43 16.07-30.19 22.72-47.23-5.13-7.67-12.65-10.58-20-11.22C599.46 534.16 453.19 572.89 386.38 582a37.07 37.07 0 0 0 5.48 17.89c60.14-7.41 184.61-39 265.66-172.6z" fill="#fff"></path></g></g></g></g></svg>