<svg xmlns="http://www.w3.org/2000/svg" viewBox="0 -0.0019683837890625 815.946044921875 837.971435546875" style=""><g><g data-name="Layer 2"><g data-name="Ñëîé 1"><path d="M799.54 499.16c-21.42-22.76-57-15.21-82.42-4.84-11.21 4.57-19 14.61-15.53 27.35 2.93 10.64 16.11 20.12 27.35 15.53a167.27 167.27 0 0 1 16.71-5.9c2.42-.71 4.87-1.29 7.34-1.82 1-.21 1.93-.38 2.9-.55a57.29 57.29 0 0 1 5.86-.23c.64 0 1.66.09 2.59.18.75.18 1.51.39 2.26.61h.06a10.14 10.14 0 0 1 .92.57c.22.21.42.44.63.65l.12.19c.34.55.79 1.43 1.17 2.23a51.1 51.1 0 0 1 1.55 6.08c0 .11.05.21.07.32.16 1.7.25 3.41.31 5.13.12 3.51 0 7-.24 10.53-.11 1.82-.29 3.64-.48 5.46l-.15 1.29v.18a228.8 228.8 0 0 1-4.84 23 341.12 341.12 0 0 1-12.06 37.29c-.38 1-.77 2-1.16 2.95-.17.44-.35.87-.53 1.31s-.42 1-.63 1.53c-.1.25-.24.56-.43 1a203.59 203.59 0 0 1-9.75 19.49c-1.64 2.89-3.41 5.7-5.24 8.48-.75 1.14-1.55 2.26-2.34 3.38-.29.42-.52.75-.71 1a103.62 103.62 0 0 1-12.18 12.78c-.84.74-1.71 1.46-2.57 2.17l-.78.56c-2.39 1.71-4.89 3.27-7.42 4.77s-5.28 2.91-8 4.22l-1.2.54c-.88.37-2.68 1.14-3.37 1.4-13.45 5.13-27.7 8-41.89 10.25-12 1.87-18.46 16.68-15.53 27.35 3.49 12.67 15.39 17.4 27.35 15.53 24.93-3.9 50.35-10.59 71.46-24.95 21.41-14.57 36.79-35.41 47.85-58.61 14.14-29.67 24.07-61.58 28.28-94.18 2.86-22.2.75-47.14-15.33-64.22zm-28.91 62.31c.59-4.76.26-1.89 0 0zm-1.41-30.21c.59.45.8.63 0 0z" fill="#8fc2e9"></path><path d="M624 91.11c-29.82-20.7-132.7-32.82-174.76-15.46-85 35.08-96 114.57-15.51 166.69 23.23 15.06 53.59 24.31 85.28 27.56l1.1.08 1.09.11c31.76 2.37 63.28-1.41 88.79-12.15 88.3-37.18 89.51-114.38 14.01-166.83z" fill="#aaacae"></path><path d="M428.39 0c-11.95 6.17-24.53 50.48-41.21 147.12 43.11-34.8 125.19-52.24 127.11-47.31 0 0-70.89-100.32-85.9-99.81z" fill="#aaacae"></path><path d="M438.57 252.94c.26-2.37.46-4.57.66-6.4 1.13-10.59 2.23-30-10.7-34.31-4.15-1.38-11.72 1.51-16.07 2-25.21 3-50.22 7.2-75.26 11.3-7.89 1.29-18.9.07-24.43 6.62-4 4.72-6.4 13.26-6.33 19.38.08 7.12 6.41 16.78 10.8 21.87 6.16 7.14 11.65 7.63 20.42 6.19 19.17-3.15 39.45-.61 58.8.11 9.49.35 19.25.79 28.68-.63 9.7-1.44 12.24-15.54 13.43-26.13z" fill="#aaacae"></path><path d="M617.39 246.45c-38.75-.91-77.53-3.38-116-9.33-28-4.33-56.16-10.3-83.39-20.1.09.09-22.24 82.14-27 112.16-10.36 65 254 81.62 253.93 15.33 0-30.74-5.75-75.68-20.39-100.8 2.05-1.16-2.28 2.85-7.15 2.74z" fill="#aaacae"></path><path d="M388.13 404v-.2l-6.39.13-6.21-.13v.2L0 395c21.08 128.7 43.78 305.09 126.65 392.42 49.72 52.4 128.45 44.14 220.9 50.09 5.47.35 20.53.5 34.19.45 13.26 0 27.89-.1 33.2-.45 89.82-6 166.3 2.31 214.61-50.09 80.5-87.33 102.56-263.72 123-392.43z" fill="#8fc2e9"></path><path d="M348.21 225c-18.75-.95-187.9 12.28-186.06 13.41-17.1 20.38-31.06 81.89-32.36 109-2.69 56.11 268.5 34.49 260.76-21.07-3.5-25.1-25.55-82.4-42.34-101.34z" fill="#f7b6c8"></path><path d="M380.29 330c-182.61-.46-364.77 19-378.49 66.57 0 0-.33 66.1 378.49 65.54 378.81.56 370.77-64.87 370.77-64.87-13.72-47.59-188.16-67.7-370.77-67.24z"></path><path d="M393 330.57v39.63c0 2.83 4.4 2.83 4.4 0v-39.63c0-2.84-4.4-2.84-4.4 0z" fill="#8fc2e9"></path><path d="M7.06 386.11c4.9 14.36 16.2 27.3 30.69 32.44 2.69.95 3.83-3.3 1.17-4.24-13-4.6-23.25-16.56-27.62-29.37-.91-2.67-5.16-1.52-4.24 1.17z" fill="#8fc2e9"></path><path d="M19.61 376c3.39 14.1 13.44 26.9 24.79 35.64 2.24 1.74 4.44-2.09 2.22-3.8-10.44-8-19.64-20.09-22.77-33-.66-2.76-4.91-1.59-4.24 1.17z" fill="#8fc2e9"></path><path d="M33.7 369.38c3.47 13.18 10.86 27.06 20.38 36.86 2 2 5.09-1.08 3.11-3.12-9-9.24-16-22.49-19.25-34.91-.72-2.75-5-1.58-4.24 1.17z" fill="#8fc2e9"></path><path d="M46.91 363.87a127.5 127.5 0 0 0 17.61 38.4c1.59 2.33 5.4.13 3.8-2.23a123.86 123.86 0 0 1-17.17-37.34c-.71-2.74-5-1.58-4.24 1.17z" fill="#8fc2e9"></path><path d="M61.76 361.31a155.83 155.83 0 0 0 15.09 37.21c1.4 2.48 5.2.26 3.8-2.22A151.26 151.26 0 0 1 66 360.14c-.71-2.75-5-1.58-4.24 1.17z" fill="#8fc2e9"></path><path d="M77.61 357.35c2.84 12.72 5.64 26 11.79 37.65 1.33 2.51 5.13.29 3.8-2.22-6-11.24-8.6-24.28-11.35-36.6-.62-2.77-4.86-1.6-4.24 1.17z" fill="#8fc2e9"></path><path d="M93.36 352.2c2.72 13.68 5 27.53 9.35 40.82.87 2.68 5.13 1.53 4.24-1.17-4.33-13.29-6.62-27.15-9.34-40.82-.55-2.78-4.8-1.6-4.25 1.17z" fill="#8fc2e9"></path><path d="M107.91 350.16a181.83 181.83 0 0 0 9.32 44.18c1 2.65 5.21 1.51 4.25-1.17a176.73 176.73 0 0 1-9.17-43c-.26-2.8-4.66-2.83-4.4 0z" fill="#8fc2e9"></path><path d="M122.44 346.2a257.78 257.78 0 0 0 8 42.85c.74 2.74 5 1.58 4.25-1.17a250.22 250.22 0 0 1-7.85-41.68c-.26-2.8-4.67-2.83-4.4 0z" fill="#8fc2e9"></path><path d="M139.61 343.55c.11 14.1 2.71 28.05 6.68 41.54.81 2.72 5.06 1.56 4.25-1.17-3.87-13.13-6.42-26.64-6.52-40.37 0-2.83-4.43-2.83-4.41 0z" fill="#8fc2e9"></path><path d="M157.08 342.23c1.49 15.37 5.2 30.35 8 45.5.52 2.79 4.76 1.61 4.25-1.17-2.73-14.76-6.4-29.35-7.85-44.33-.27-2.8-4.68-2.82-4.4 0z" fill="#8fc2e9"></path><path d="M175.06 338.86c-2.47 15.29 2.49 29.89 5.29 44.76.52 2.79 4.77 1.61 4.24-1.17-2.63-14-7.61-28-5.28-42.42.45-2.78-3.79-4-4.25-1.17z" fill="#8fc2e9"></path><path d="M190.84 338c.15 15 4 29.52 6.68 44.18.52 2.78 4.76 1.6 4.25-1.17-2.65-14.28-6.38-28.41-6.53-43 0-2.84-4.43-2.84-4.4 0z" fill="#8fc2e9"></path><path d="M209.62 336.66a255.63 255.63 0 0 0 4 44.17c.49 2.8 4.74 1.61 4.24-1.17a249.94 249.94 0 0 1-3.88-43c0-2.84-4.42-2.84-4.41 0z" fill="#8fc2e9"></path><path d="M225.48 335.63c.1 14.9 2.7 29.56 5.36 44.18.5 2.79 4.75 1.6 4.24-1.17-2.58-14.24-5.1-28.5-5.2-43 0-2.84-4.42-2.84-4.4 0z" fill="#8fc2e9"></path><path d="M242.65 335.63c1.29 14.72 1.25 29.62 4 44.18.53 2.78 4.78 1.6 4.24-1.17-2.71-14.16-2.63-28.69-3.88-43-.24-2.81-4.65-2.83-4.4 0z" fill="#8fc2e9"></path><path d="M260 333.34c.05 14.89 1.11 29.74 2.44 44.56.25 2.81 4.66 2.83 4.4 0-1.33-14.82-2.39-29.67-2.43-44.56 0-2.83-4.41-2.84-4.41 0z" fill="#8fc2e9"></path><path d="M278.52 332.46c-1.07 12.62 2.29 24.93 2.44 37.51 0 2.84 4.43 2.84 4.4 0-.15-12.58-3.51-24.89-2.44-37.51.24-2.83-4.16-2.81-4.4 0z" fill="#8fc2e9"></path><path d="M299.07 332.46c.06 13 1.63 25.87 1.7 38.84 0 2.83 4.42 2.84 4.4 0-.06-13-1.64-25.87-1.7-38.84 0-2.84-4.41-2.84-4.4 0z" fill="#8fc2e9"></path><path d="M319 331.23c.06 13.19 1.4 26.34 1.46 39.54 0 2.84 4.42 2.84 4.4 0-.06-13.2-1.39-26.35-1.45-39.54 0-2.84-4.42-2.84-4.41 0z" fill="#8fc2e9"></path><path d="M339.08 333c.05 12.37 1.28 24.7 2.64 37 .31 2.8 4.71 2.83 4.4 0a351.84 351.84 0 0 1-2.64-37c0-2.84-4.42-2.84-4.4 0z" fill="#8fc2e9"></path><path d="M358.45 330.35c0 14 .35 28 .36 42 0 2.84 4.4 2.84 4.4 0 0-14-.34-28-.35-42 0-2.84-4.41-2.84-4.41 0z" fill="#8fc2e9"></path><path d="M375.48 330.35V370c0 2.84 4.4 2.84 4.4 0v-39.65c0-2.84-4.4-2.84-4.4 0z" fill="#8fc2e9"></path><path d="M740.35 385.83c-1.62 13.72-15 25.22-27.44 29.58-2.66.93-1.52 5.18 1.17 4.24 14.47-5.08 28.81-18 30.68-33.82.33-2.82-4.08-2.79-4.41 0z" fill="#8fc2e9"></path><path d="M727.81 376.44c-2.95 12.14-11.74 21.66-21.44 29.06-2.23 1.7 0 5.53 2.22 3.8 10.61-8.09 20.24-18.39 23.47-31.69.67-2.76-3.58-3.93-4.25-1.17z" fill="#8fc2e9"></path><path d="M713.07 368.28c-3.17 11.88-10.48 23.53-19 32.28-2 2 1.13 5.15 3.12 3.11 9.09-9.3 16.8-21.59 20.16-34.22.74-2.75-3.51-3.91-4.24-1.17z" fill="#8fc2e9"></path><path d="M697.22 362.41c-3.05 12.07-6.8 24.2-14.17 34.41-1.66 2.3 2.16 4.5 3.8 2.22 7.57-10.49 11.48-23.05 14.61-35.46.7-2.76-3.55-3.93-4.24-1.17z" fill="#8fc2e9"></path><path d="M682.76 358.08a222 222 0 0 1-12.92 38.15c-1.17 2.56 2.62 4.8 3.81 2.22a228.44 228.44 0 0 0 13.35-39.2c.69-2.76-3.56-3.92-4.25-1.17z" fill="#8fc2e9"></path><path d="M668.67 353.89c-3 13.72-6.08 27.65-12.11 40.43-1.2 2.55 2.59 4.79 3.8 2.22 6.2-13.14 9.42-27.36 12.55-41.47.62-2.77-3.62-3.95-4.24-1.18z" fill="#8fc2e9"></path><path d="M653.18 351c-2.85 14.29-5.38 28.77-9.91 42.65-.88 2.7 3.37 3.85 4.24 1.17 4.54-13.88 7.07-28.36 9.92-42.65.55-2.77-3.69-3.95-4.25-1.17z" fill="#8fc2e9"></path><path d="M638.35 348.84a176.73 176.73 0 0 1-9.17 43c-1 2.68 3.3 3.82 4.25 1.17a181.36 181.36 0 0 0 9.32-44.18c.27-2.83-4.14-2.8-4.4 0z" fill="#8fc2e9"></path><path d="M624.78 346.77c-1.44 14.61-5.4 28.76-9.25 42.87-.75 2.75 3.5 3.91 4.25 1.17 4-14.5 7.93-29 9.4-44 .28-2.82-4.13-2.79-4.4 0z" fill="#8fc2e9"></path><path d="M608.26 344.13c-.17 14.22-4.53 28.05-8.58 41.55-.82 2.73 3.43 3.89 4.24 1.17 4.17-13.88 8.56-28.1 8.75-42.72 0-2.84-4.37-2.84-4.41 0z" fill="#8fc2e9"></path><path d="M590.35 342.67c-1.45 15-5.12 29.58-7.84 44.33-.51 2.78 3.73 4 4.24 1.17 2.79-15.14 6.52-30.14 8-45.5.27-2.82-4.14-2.8-4.41 0z" fill="#8fc2e9"></path><path d="M571.86 340c.36 14.62-2.58 28.72-5.21 43-.5 2.77 3.74 4 4.25 1.17 2.7-14.67 5.73-29.17 5.37-44.18-.07-2.83-4.48-2.84-4.41 0z" fill="#8fc2e9"></path><path d="M556 338.71c-.15 14.6-3.88 28.74-6.53 43-.51 2.78 3.73 4 4.25 1.17 2.71-14.65 6.53-29.19 6.68-44.18 0-2.84-4.37-2.84-4.4 0z" fill="#8fc2e9"></path><path d="M536.2 337.39a250.16 250.16 0 0 1-3.89 43c-.5 2.77 3.75 4 4.25 1.17a256.72 256.72 0 0 0 4-44.18c0-2.84-4.4-2.84-4.4 0z" fill="#8fc2e9"></path><path d="M521.74 335.1a264.31 264.31 0 0 1-4.55 45.43c-.5 2.78 3.75 4 4.25 1.18a272.09 272.09 0 0 0 4.7-46.61c0-2.84-4.39-2.83-4.4 0z" fill="#8fc2e9"></path><path d="M503.17 333.43c-1.25 14.32-1.17 28.84-3.88 43-.54 2.77 3.71 3.95 4.24 1.17 2.79-14.56 2.76-29.46 4.05-44.18.24-2.83-4.16-2.81-4.41 0z" fill="#8fc2e9"></path><path d="M486.44 333.43c-.05 14.14-1.36 28.2-2.64 42.27-.26 2.83 4.14 2.8 4.4 0 1.28-14.07 2.59-28.13 2.64-42.27 0-2.84-4.39-2.84-4.4 0z" fill="#8fc2e9"></path><path d="M467.51 332.11a266.9 266.9 0 0 1-2.65 39.63c-.36 2.8 4 2.77 4.41 0a268.24 268.24 0 0 0 2.64-39.63c-.06-2.84-4.46-2.84-4.4 0z" fill="#8fc2e9"></path><path d="M447.69 332.11a300.88 300.88 0 0 1-2.56 40.36c-.39 2.78 3.85 4 4.24 1.17a306.85 306.85 0 0 0 2.72-41.53c0-2.84-4.39-2.84-4.4 0z" fill="#8fc2e9"></path><path d="M428.32 332.11v39.63c0 2.84 4.4 2.84 4.4 0v-39.63c0-2.84-4.4-2.84-4.4 0z" fill="#8fc2e9"></path><path d="M408.06 332.11c0 13 1 26.11-.37 39.1-.29 2.83 4.11 2.8 4.4 0 1.34-13 .41-26.08.37-39.1 0-2.84-4.41-2.84-4.4 0z" fill="#8fc2e9"></path><path d="M377.58 368.36H377c-169 1.82-337.74 21.13-347.43 51.11 23.12 12 67.19 25.51 147.22 33.65 50.9 5.17 114.48 8.85 197.54 8.73h5.86c122.38.17 199.76-5.47 258.45-16 42.93-7.71 70.23-17.05 86.48-25.51-6.61-30.49-176.88-50.14-347.54-51.98z" fill="#e29849"></path><path d="M367 164a.38.38 0 0 1 .26.45c.37.07.28-.35.51-.57l-.19-.19c-.14.21-.39.23-.58.31z" fill="#fff"></path><path d="M148.86 311.34c39-21.61 58.49 20.85 49.38 52.27-3.39 11.67-12.37 23.39-26.24 15.81-14.43-7.84-13.14-13.67-18.17-27-6-15.89-19.72-8.87-37.82-7.15-9.29-20.68 7.74-48.85 29.11-42.8z" fill="#f7b6c8"></path><path d="M369.33 301.63c-40.23-19.17-57.11 24.4-46.09 55.2 4.1 11.44 13.78 22.55 27.17 14.18 13.92-8.72 11.31-14.79 16.48-28.05 6.17-15.85 20.94-14.6 37.29-14.57 8-21.21-10.7-43.17-31.67-35.82z" fill="#f7b6c8"></path><path d="M383.57 124.33C378.31 106.89 352.2 15.5 332.1 12.6c-15.93-1.33-28.71 11.4-44.69 41.64-10.34-3-28.79-3.7-46.79-2.74l-.54.05h-.54c-17.93 1.86-36 5.47-45.79 10-20.51-27.42-35.11-38-50.64-34.16-19.41 6-30.95 100.34-33.42 118.39-2.82 20.61.23 39.2 7.92 55.25 13.94 29.09 43.11 49.85 80.15 59.23a200.08 200.08 0 0 0 45 5.88q6.78.12 13.63-.17l.53-.06h.54v-.05q6.81-.78 13.5-1.95a199.66 199.66 0 0 0 43.49-12.83c35.13-15 60.7-40.09 69.93-71 5.07-17 5.19-35.83-.81-55.75z" fill="#f7b6c8"></path><path d="M180.69 70.92c3.94-1.27-11.41-15.88-16.91-21.86-13.42-14.61-19-7.74-23.12 5.64-3.29 10.66-5.29 25.93-4.14 38.34.13 1.51 44.28-21.49 44.17-22.12z" fill="#fff"></path><path d="M267 164.18c-3.1-1-22.71.66-25 1.25-4.63 1.18-3.72 8.56-.69 8.31 3.45-.29 21.46-1.77 25.42-2.11 4.09-.35 4.27-6.14.27-7.45z" fill="#0f0f0e"></path><path d="M252.42 174.23a9.3 9.3 0 0 0-.43 3.63c.1 2.07 3.47 2.74 3.8.5.43-2.94.84-5.89 1.18-8.84.25-2.16-3.42-2.63-3.79-.5s-.3 4.52-.68 6.76l3.79.49c-.1-1.89-.19-3.78-.29-5.67-.1-2.07-3.41-2.73-3.79-.49a33.06 33.06 0 0 0-.24 7.24h3.86a20.29 20.29 0 0 1 .19-4.67c.42-2.41-3.15-3.46-3.73-1a16.24 16.24 0 0 0-.37 4.66c.11 2.48 4 2.48 3.85 0a13.09 13.09 0 0 1 .25-3.64l-3.73-1a24.75 24.75 0 0 0-.32 5.7c.12 2.47 4 2.47 3.86 0a28 28 0 0 1 .1-6.21l-3.79-.5c.1 1.89.19 3.78.29 5.67.1 2.07 3.41 2.73 3.79.5s.3-4.52.69-6.76l-3.79-.49c-.31 2.61-.68 5.21-1.06 7.81l3.79.49a6.37 6.37 0 0 1 .29-2.6c.85-2.35-2.89-3.33-3.72-1z" fill="#fff"></path><path d="M254.38 169.43c-1.15 8.65-2.29 20.63 7 25 7.17 3.4 15.62-.12 15.72-8.55 0-2.49-3.82-2.47-3.86 0-.08 6.71-7.23 7-11.79 4.17-5.65-3.56-4.12-14.14-3.39-19.68.32-2.43-3.4-3.46-3.72-1z" fill="#0f0f0e"></path><path d="M250.59 169.3c0 6.39 2.39 14-.32 20.12-3.94 8.85-13.32 3.67-16.43-2.55-1.11-2.23-4.43-.26-3.32 2 3.43 6.87 11.45 12 18.76 7.47 9-5.61 5.24-18.47 5.17-27 0-2.48-3.88-2.47-3.86 0z" fill="#0f0f0e"></path><path d="M353.41 183.29c-5-6.43-13.87-5.17-17.83 1.73-4.64 8.1 4.82 16.28 13.1 12.17 4.52-2.19 8.05-9.64 4.73-13.9z"></path><path d="M155.86 202.22a10.76 10.76 0 0 0 1.08 4.63c5.66 12.16 24.36 3 18.7-9.25-4.47-9.67-19.64-4.97-19.78 4.62z"></path><path d="M350.34 76.26c-.8-12.43-5.17-27.21-10.08-37.22-6.15-12.57-12.73-18.49-23.71-2-4.5 6.77-17.39 23.6-13.29 24.23-.02.73 47.18 16.5 47.08 14.99z" fill="#fff"></path><path d="M289.71 136.6c2.5 12.4 11.91 23.16 25.39 22.34s20.82-13.3 21.46-25.63c.2-3.83-5.74-3.69-5.94.12-.5 9.6-6 19-16.38 19.61s-17-8.89-18.83-18.13c-.76-3.76-6.45-2-5.7 1.69z" fill="#0f0f0e"></path><path d="M165.6 146.8c2.5 12.41 11.92 23.17 25.39 22.34s20.83-13.29 21.47-25.62c.2-3.83-5.75-3.69-6 .12-.49 9.59-5.95 19-16.37 19.61-10.58.64-17-8.89-18.84-18.14-.76-3.75-6.45-2-5.7 1.69z" fill="#0f0f0e"></path><path d="M213 172.64c-.62.39.06.9 0 1.52h.51c0-.44.3-.82.44-1.25a.73.73 0 0 1-.95-.27z" fill="#fff"></path><path d="M292.44 90.56l-.14.83c.7 0 1.25.7 1.91 1.06a1.1 1.1 0 0 1 .67-1.44c-.5-1.11-1.46-.19-2.44-.45z" fill="#fff"></path><path d="M214.07 82.82a1 1 0 0 1-1.22.61c-.28 1 .85.9 1.34 1.6l.54-.49c-.42-.4-.42-1.13-.66-1.72z" fill="#fff"></path><path d="M229.21 85.44a.36.36 0 0 1-.15.46c.17.28.42-.05.7 0v-.25c-.18-.01-.35-.16-.55-.21z" fill="#fff"></path><path d="M232.19 73.68a.58.58 0 0 1 .14.8c.51.3.64-.38 1.13-.59l-.18-.38c-.28.2-.72.1-1.09.17z" fill="#fff"></path><path d="M328.23 85.85c-.54.33 0 .78 0 1.31h.44c0-.37.26-.7.38-1.07a.64.64 0 0 1-.82-.24z" fill="#fff"></path><path d="M234 88.49c-.22.24.11.38.15.64h.22c-.07-.17 0-.37.06-.57a.3.3 0 0 1-.43-.07z" fill="#fff"></path><path d="M250.07 88.5c-.38-.09-.3.39-.54.62l.2.22c.13-.2.4-.22.61-.35a.4.4 0 0 1-.27-.49z" fill="#fff"></path><path d="M246.41 72.34l-.29.31c.26.2.29.62.47.95a.6.6 0 0 1 .7-.44c.12-.6-.55-.46-.88-.82z" fill="#fff"></path><path d="M261.55 76.06a.86.86 0 0 1-1.09.41c-.3.76.67.75 1 1.32l.5-.34c-.3-.34-.25-.91-.41-1.39z" fill="#fff"></path><path d="M259.79 82a.52.52 0 0 1 .32.64c.49.14.42-.47.75-.74l-.24-.29c-.19.28-.54.29-.83.39z" fill="#fff"></path><path d="M287.28 63.87a.52.52 0 0 1 .32.64c.49.14.42-.47.74-.75l-.23-.28c-.19.24-.54.25-.83.39z" fill="#fff"></path><path d="M260.79 98.37a.84.84 0 0 1 .59 1c.81.17.62-.78 1.11-1.25l-.42-.43c-.27.38-.84.43-1.28.68z" fill="#fff"></path><path d="M150.76 122.46a.44.44 0 0 1-.18.55c.2.34.5-.06.84-.05v-.3c-.22.04-.42-.14-.66-.2z" fill="#fff"></path><path d="M236 81.59v.5c.44 0 .8.32 1.23.47a.66.66 0 0 1 .33-.9c-.44-.66-1 .01-1.56-.07z" fill="#fff"></path><path d="M190.88 71.36c0 .18.21.08.33.15l.07-.11c-.1 0-.14-.14-.22-.22a.19.19 0 0 1-.18.18z" fill="#fff"></path><path d="M204.45 77.53l-.14.15c.13.08.15.27.24.43a.28.28 0 0 1 .33-.21c.05-.27-.26-.21-.43-.37z" fill="#fff"></path><path d="M123.43 172.83a.5.5 0 0 1-.64.24c-.18.45.39.44.61.77l.29-.19c-.2-.2-.17-.54-.26-.82z" fill="#fff"></path><path d="M362.43 146.26c-.48.52.28.84.4 1.44l.49-.12c-.16-.39.06-.84.08-1.28a.69.69 0 0 1-.97-.04z" fill="#fff"></path><path d="M117.06 174.38a.24.24 0 0 1 .14.3c.24.07.2-.22.36-.35l-.12-.13c-.08.11-.25.11-.38.18z" fill="#fff"></path><path d="M119.16 174.85a.41.41 0 0 1 .28.47c.38.07.29-.37.52-.6l-.2-.2c-.13.19-.39.21-.6.33z" fill="#fff"></path><path d="M121.35 155.5c-.16.07 0 .21-.06.36h.11c0-.1.1-.18.15-.28a.15.15 0 0 1-.2-.08z" fill="#fff"></path><path d="M127.17 155.1c-.16.07 0 .21-.07.36h.12c0-.1.1-.18.15-.28a.15.15 0 0 1-.2-.08z" fill="#fff"></path><path d="M120.75 160.25a.18.18 0 0 1 .06.23c.15.08.17-.12.29-.19l-.06-.11c-.04.06-.19.04-.29.07z" fill="#fff"></path><path d="M116.92 164.51a.18.18 0 0 1 .06.24c.15.08.17-.12.29-.19l-.06-.11c-.07.06-.21.04-.29.06z" fill="#fff"></path><path d="M363.51 167.07c.07.1.09.19 0 .28.17.15.24-.08.41-.11v-.15c-.15.05-.28-.02-.41-.02z" fill="#fff"></path><path d="M357.53 153c-.24-.25-.41.13-.7.18v.25c.19-.07.4.05.62.06a.37.37 0 0 1 .08-.49z" fill="#fff"></path><path d="M343.34 89.84c-.4-.66-.92 0-1.54-.1v.54c.43 0 .82.35 1.25.53a.71.71 0 0 1 .29-.97z" fill="#fff"></path><path d="M358.3 167.72c-.21.28.2.38.29.66l.25-.08c-.11-.18 0-.41 0-.63a.36.36 0 0 1-.54.05z" fill="#fff"></path><path d="M335.06 113.25a24.46 24.46 0 0 0-4.29-2.86c1-.75 1.31-2.24-.2-2.87-10.64-4.52-25.34-8.52-34.57-.68a10.47 10.47 0 0 0-2.68 2.76l-.23.18a1.44 1.44 0 0 0-.59 1.63 2 2 0 0 0 2.55 1.87c9.34-2.64 22-4.64 31.52-.79a31.77 31.77 0 0 1 5.64 3.32c1.96 1.48 4.79-.95 2.85-2.56z"></path><path d="M182 114.26c.13.39.25.77.37 1.16 4.95-1.41 10-1.82 14.44 0 2.28.17 4.5.41 6.61.71l.44-.55c-6.28-3.34-14.27-3.31-21.86-1.32z"></path><path d="M170.85 123.11a21.83 21.83 0 0 0-5.37 4.09 33.32 33.32 0 0 1 5.37-4.09z"></path><path d="M198.53 116.29a7.08 7.08 0 0 1 3 2.23c.65-.79 1.29-1.59 1.92-2.38-2.11-.3-4.33-.54-6.61-.71a17.24 17.24 0 0 1 1.69.86z"></path><path d="M181.05 115.82l1.32-.4c-.12-.39-.24-.77-.37-1.16-.62.16-1.24.34-1.85.53a2 2 0 0 0 .9 1.03z"></path><path d="M180.15 114.79a49.8 49.8 0 0 0-11.1 4.95 37.43 37.43 0 0 1 11.36-3.7l.64-.22a2 2 0 0 1-.9-1.03z"></path><path d="M181.44 112.5a1.7 1.7 0 0 0-1.29 2.29c.61-.19 1.23-.37 1.85-.53-.19-.58-.37-1.17-.56-1.76z"></path><path d="M198.53 116.29a15.1 15.1 0 0 1 3 2.25 7.08 7.08 0 0 0-3-2.25z"></path><path d="M203.86 115.59c-6.78-4-14.72-4.24-22.45-3.06.19.59.37 1.18.56 1.76 7.62-2.02 15.61-2.05 21.89 1.3z"></path><path d="M201.87 119l.09-.12a2.8 2.8 0 0 0-.3-.15 2.78 2.78 0 0 1 .21.27z"></path><path d="M195.07 115.32a15.14 15.14 0 0 1 3.46 1 17.24 17.24 0 0 0-1.72-.86z"></path><path d="M166.35 121.52a1.94 1.94 0 0 0 2.13.07 71.26 71.26 0 0 1 11.93-5.59 37.43 37.43 0 0 0-11.36 3.7c-.94.61-1.84 1.21-2.7 1.82z"></path><path d="M165.48 127.2l-2.9-2.59c-1.71 1.8 1.07 4.33 2.9 2.59z"></path><path d="M182.37 115.42c0 .1.07.21.1.31 1.1-.14 2.21-.26 3.32-.34a31 31 0 0 1 9.28-.07l1.74.11c-4.43-1.83-9.49-1.43-14.44-.01z"></path><path d="M204.09 116.23l-2.1 2.63a1.93 1.93 0 0 0 2.31-3l-.42-.23-.44.55z"></path><path d="M185.79 115.39a75.69 75.69 0 0 1 9.28-.07 31 31 0 0 0-9.28.07z"></path><path d="M180.41 116l.8-.13a1.29 1.29 0 0 1-.16-.09z"></path><path d="M204.53 116a10.51 10.51 0 0 0-3.72-2.79 19.05 19.05 0 0 1 3.44 2.63z"></path><path d="M180.15 114.79a1.7 1.7 0 0 1 1.29-2.29c5-1.5 13.72-2 19.4.69-10.44-6.22-24.63-.36-34.46 5.21a1.78 1.78 0 0 0-.13 3.06 30.89 30.89 0 0 1 2.8-1.72 49.8 49.8 0 0 1 11.1-4.95z"></path><path d="M181.44 112.5c7.73-1.18 15.67-.91 22.45 3.06l.42.23a19.05 19.05 0 0 0-3.44-2.63c-5.71-2.65-14.41-2.16-19.43-.66z"></path><path d="M169.05 119.74a30.89 30.89 0 0 0-2.8 1.72.33.33 0 0 0 .1.06c.86-.61 1.76-1.21 2.7-1.78z"></path><path d="M166.25 121.46a24.43 24.43 0 0 0-3.67 3.15 35 35 0 0 1 3.77-3.09.33.33 0 0 1-.1-.06z"></path><path d="M202.55 119.22c-.2-.12-.39-.22-.59-.32l-.09.12a2.78 2.78 0 0 0-.21-.27c-8.94-4.54-21.93-1.18-30.81 4.36 9.24-5.08 22.31-4.71 32.24-3.26 1.61.24 2.84-1 2.38-2.39a1.93 1.93 0 0 1-2.92 1.76z"></path><path d="M201.66 118.75a.33.33 0 0 0-.06-.1c-5.75-3.24-12.47-3.56-19-2.56a2.45 2.45 0 0 1-1.37-.18l-.8.13a71.26 71.26 0 0 0-11.93 5.55 1.94 1.94 0 0 1-2.13-.07 35 35 0 0 0-3.77 3.09l2.9 2.59a21.83 21.83 0 0 1 5.37-4.09c8.86-5.54 21.85-8.9 30.79-4.36z"></path><path d="M201.91 118.82l-.31-.17a.33.33 0 0 1 .06.1 2.8 2.8 0 0 1 .3.15z"></path><path d="M182.47 115.73c0 .12.07.24.11.36a24.87 24.87 0 0 1 3.21-.7c-1.11.08-2.22.2-3.32.34z"></path><path d="M181.21 115.91a2.45 2.45 0 0 0 1.37.18c0-.12-.07-.24-.11-.36q-.63.08-1.26.18z"></path><path d="M204.28 115.82a1.93 1.93 0 0 1-2.31 3c.2.1.39.2.59.32a1.93 1.93 0 0 0 2.92-1.76 1.61 1.61 0 0 0-.16-.39 7.52 7.52 0 0 0-.75-1.09z"></path><path d="M201.5 118.54a9.82 9.82 0 0 0-6.43-3.22 75.69 75.69 0 0 0-9.28.07 24.87 24.87 0 0 0-3.21.7c6.55-1 13.27-.68 19 2.56l-.1-.13s.02.01.02.02z"></path><path d="M205.47 117.46a1.76 1.76 0 0 0-.91-1.48 7.52 7.52 0 0 1 .75 1.09 1.61 1.61 0 0 1 .16.39z"></path><path d="M182.37 115.42l-1.32.4a1.29 1.29 0 0 0 .16.09q.63-.1 1.26-.18c-.03-.1-.06-.21-.1-.31z"></path><path d="M202 118.86l2.1-2.63-.67-.09c-.63.79-1.27 1.59-1.92 2.38l.1.13.31.17z"></path><path d="M354.67 292.14c-18.8 4.11-36.23 17.55-38.11 36.79 0 0 2.71-.07 4 0 1.66-8.88 5.86-17.21 12.81-23.08 6.26-5.29 14.35-8.09 22.25-9.81 2.51-.57 1.56-4.45-.95-3.9z" fill="#fff"></path><path d="M162.66 301c19 2.82 37.35 14.85 40.54 33.92 0 0-2.74.31-4 .44-2.26-8.74-7-16.77-14.34-22.15-6.63-4.84-14.86-7.08-22.86-8.21-2.57-.43-1.88-4.36.66-4z" fill="#fff"></path><path d="M17.19 423.7c2.6 0 2.6-4 0-4s-2.61 4 0 4z" fill="#fff"></path><path d="M445.81 541.56c-27.55-3-42.37 10.87-56.91 33.44-6.9-17.5-26.55-37-47.33-37.62-23.31-.69-48.59 15-51.13 37-7.89 68.41 97.41 145.67 99.79 143.86C424 692.49 483 640.42 486.45 589.67c1.64-23.67-17.45-45.56-40.64-48.11z" fill="#f9533d"></path><path d="M529.5 572.88c10.49-4.25 20.71-9.13 31.2-13.38 3.29-1.33 1.85-6.72-1.48-5.37-10.49 4.25-20.71 9.13-31.2 13.37-3.29 1.34-1.85 6.73 1.48 5.38z" fill="#fff"></path><path d="M533.21 606.41c9.26 0 18.43-.23 27.49-2.33 3.5-.81 2-6.18-1.48-5.37-8.58 2-17.24 2.12-26 2.13-3.59 0-3.59 5.57 0 5.57z" fill="#fff"></path><path d="M518.43 646.14c7.65 4.85 16.5 7 25.19 9.2 3.48.88 5-4.5 1.48-5.37-8.23-2.06-16.6-4.05-23.85-8.64-3-1.92-5.84 2.9-2.82 4.81z" fill="#fff"></path><path d="M500 679.14c5.79 5.79 11.6 11.43 18.39 16 3 2 5.77-2.81 2.82-4.81-6.4-4.34-11.82-9.72-17.27-15.17-2.54-2.54-6.48 1.4-3.94 3.94z" fill="#fff"></path><path d="M252.57 567.5c-10.49-4.24-20.71-9.12-31.2-13.37-3.33-1.35-4.77 4-1.48 5.37 10.49 4.25 20.71 9.13 31.2 13.38 3.33 1.35 4.77-4 1.48-5.38z" fill="#fff"></path><path d="M247.37 600.84c-8.76 0-17.42-.15-26-2.13-3.5-.81-5 4.56-1.48 5.37 9.06 2.1 18.22 2.32 27.48 2.33 3.6 0 3.6-5.57 0-5.57z" fill="#fff"></path><path d="M259.34 641.33c-7.25 4.59-15.62 6.58-23.85 8.64-3.49.87-2 6.25 1.48 5.37 8.69-2.17 17.53-4.35 25.18-9.2 3-1.91.24-6.73-2.81-4.81z" fill="#fff"></path><path d="M276.61 675.2c-5.45 5.45-10.87 10.83-17.27 15.17-2.95 2-.17 6.83 2.81 4.81 6.8-4.61 12.61-10.25 18.4-16 2.54-2.54-1.4-6.48-3.94-3.94z" fill="#fff"></path><path d="M728 499.35c2.6 0 2.6-4 0-4s-2.61 4 0 4z" fill="#fff"></path><path d="M550.88 525c2.61 0 2.61-4 0-4s-2.61 4 0 4z" fill="#fff"></path><path d="M664.9 583c2.61 0 2.61-4 0-4s-2.61 4 0 4z" fill="#fff"></path><path d="M684 531.1c2.6 0 2.6-4 0-4s-2.61 4 0 4z" fill="#fff"></path><path d="M692.56 472.48c2.6 0 2.6-4 0-4s-2.61 4 0 4z" fill="#fff"></path><path d="M618.84 590.3c2.61 0 2.61-4 0-4s-2.61 4 0 4z" fill="#fff"></path><path d="M635.81 658.18c2.61 0 2.61-4 0-4s-2.6 4 0 4z" fill="#fff"></path><path d="M659 684.15c2.61 0 2.61-4 0-4s-2.6 4 0 4z" fill="#fff"></path><path d="M550.88 775.37c2.61 0 2.61-4 0-4s-2.61 4 0 4z" fill="#fff"></path><path d="M487.37 766.82c2.61 0 2.61-4 0-4s-2.61 4 0 4z" fill="#fff"></path><path d="M460.5 813.24c2.61 0 2.61-4 0-4s-2.61 4 0 4z" fill="#fff"></path><path d="M598.51 711.86c2.61 0 2.61-4 0-4s-2.6 4 0 4z" fill="#fff"></path><path d="M649.5 731.59c2.61 0 2.61-4 0-4s-2.6 4 0 4z" fill="#fff"></path><path d="M574.4 809.06c2.6 0 2.6-4 0-4a2 2 0 0 0 0 4z" fill="#fff"></path><path d="M663.74 711.12c2.6 0 2.6-4 0-4s-2.61 4 0 4z" fill="#fff"></path><path d="M570.42 742.4c2.61 0 2.61-4 0-4s-2.6 4 0 4z" fill="#fff"></path><path d="M691.57 578.18c2.6 0 2.6-4 0-4s-2.61 4 0 4z" fill="#fff"></path><path d="M652.78 631.51c2.61 0 2.61-4 0-4s-2.6 4 0 4z" fill="#fff"></path><path d="M677 617c2.61 0 2.61-4 0-4s-2.6 4 0 4z" fill="#fff"></path><path d="M631 573.33c2.61 0 2.61-4 0-4s-2.6 4 0 4z" fill="#fff"></path><path d="M607.06 476.14c2.61 0 2.61-4 0-4s-2.6 4 0 4z" fill="#fff"></path><path d="M665.69 517.67c2.6 0 2.6-4 0-4s-2.61 4 0 4z" fill="#fff"></path><path d="M530.12 505.46c2.6 0 2.6-4 0-4s-2.61 4 0 4z" fill="#fff"></path><path d="M498.29 483.4c2.61 0 2.61-4 0-4s-2.6 4 0 4z" fill="#fff"></path><path d="M638.24 493.33c2.6 0 2.6-4 0-4s-2.61 4 0 4z" fill="#fff"></path><path d="M698.84 507.88c2.61 0 2.61-4 0-4s-2.6 4 0 4z" fill="#fff"></path><path d="M609.14 551.51c2.61 0 2.61-4 0-4s-2.6 4 0 4z" fill="#fff"></path><path d="M559.43 570.19c2.61 0 2.61-4 0-4s-2.6 4 0 4z" fill="#fff"></path><path d="M593.63 577.51c2.6 0 2.6-4 0-4a2 2 0 0 0 0 4z" fill="#fff"></path><path d="M609.14 633.53c5.21 0 5.21-8.08 0-8.08s-5.21 8.08 0 8.08z" fill="#fff"></path><path d="M635.81 611.71c5.21 0 5.21-8.08 0-8.08s-5.21 8.08 0 8.08z" fill="#fff"></path><path d="M633.39 546.26c5.21 0 5.21-8.08 0-8.08s-5.21 8.08 0 8.08z" fill="#fff"></path><path d="M701.26 560.81c5.21 0 5.21-8.08 0-8.08s-5.21 8.08 0 8.08z" fill="#fff"></path><path d="M723.09 455c5.21 0 5.21-8.08 0-8.08s-5.21 8.08 0 8.08z" fill="#fff"></path><path d="M669.75 560.81c5.21 0 5.21-8.08 0-8.08s-5.21 8.08 0 8.08z" fill="#fff"></path><path d="M672.17 652.92c5.21 0 5.21-8.08 0-8.08s-5.21 8.08 0 8.08z" fill="#fff"></path><path d="M662.48 606.87c5.21 0 5.21-8.08 0-8.08s-5.21 8.08 0 8.08z" fill="#fff"></path><path d="M566.51 717.19c5.21 0 5.21-8.08 0-8.08s-5.21 8.08 0 8.08z" fill="#fff"></path><path d="M469 796.47c5.21 0 5.21-8.08 0-8.08s-5.21 8.08 0 8.08z" fill="#fff"></path><path d="M516.21 796.47c5.21 0 5.21-8.08 0-8.08s-5.21 8.08 0 8.08z" fill="#fff"></path><path d="M582.64 645.49c5.2 0 5.2-8.08 0-8.08s-5.22 8.08 0 8.08z" fill="#fff"></path><path d="M630.53 687.71c5.21 0 5.21-8.08 0-8.08s-5.21 8.08 0 8.08z" fill="#fff"></path><path d="M662.29 455.21c5.21 0 5.21-8.08 0-8.08s-5.21 8.08 0 8.08z" fill="#fff"></path><path d="M708.43 527c5.22 0 5.22-8.08 0-8.08s-5.21 8.08 0 8.08z" fill="#fff"></path><path d="M597.29 512.36c5.21 0 5.21-8.08 0-8.08s-5.21 8.08 0 8.08z" fill="#fff"></path><path d="M533.78 476.94c5.21 0 5.21-8.08 0-8.08s-5.21 8.08 0 8.08z" fill="#fff"></path><path d="M226.91 700.91c5.21 0 5.21-8.07 0-8.07s-5.21 8.07 0 8.07z" fill="#fff"></path><path d="M655.92 481.83c5.21 0 5.21-8.08 0-8.08s-5.22 8.08 0 8.08z" fill="#fff"></path><path d="M493.48 518.47c5.21 0 5.21-8.08 0-8.08s-5.21 8.08 0 8.08z" fill="#fff"></path><path d="M347.5 730.8c5.21 0 5.21-8.08 0-8.08s-5.21 8.08 0 8.08z" fill="#fff"></path><path d="M410.43 514.8c5.21 0 5.21-8.08 0-8.08s-5.22 8.08 0 8.08z" fill="#fff"></path><path d="M529.15 708.68c5.21 0 5.21-8.08 0-8.08s-5.21 8.08 0 8.08z" fill="#fff"></path><path d="M589.75 684.44c5.21 0 5.21-8.08 0-8.08s-5.21 8.08 0 8.08z" fill="#fff"></path><path d="M618.72 725.92c5.21 0 5.21-8.09 0-8.09s-5.21 8.09 0 8.09z" fill="#fff"></path><path d="M612 752.18c2.61 0 2.61-4 0-4s-2.6 4 0 4z" fill="#fff"></path><path d="M608.29 794.93c2.6 0 2.6-4 0-4s-2.61 4 0 4z" fill="#fff"></path><path d="M553.05 803.62c2.61 0 2.61-4 0-4s-2.6 4 0 4z" fill="#fff"></path><path d="M583.86 782.72c2.61 0 2.61-4 0-4s-2.6 4 0 4z" fill="#fff"></path><path d="M580 757.51c5.21 0 5.21-8.08 0-8.08s-5.21 8.08 0 8.08z" fill="#fff"></path><path d="M543.57 757.06c5.21 0 5.21-8.08 0-8.08s-5.21 8.08 0 8.08z" fill="#fff"></path><path d="M632.16 766.24c5.21 0 5.21-8.09 0-8.09s-5.21 8.09 0 8.09z" fill="#fff"></path><path d="M102 721.35c2.61 0 2.61-4 0-4s-2.6 4 0 4z" fill="#fff"></path><path d="M85 693.73c2.61 0 2.61-4 0-4s-2.6 4 0 4z" fill="#fff"></path><path d="M187 809.86c2.6 0 2.6-4 0-4s-2.6 4 0 4z" fill="#fff"></path><path d="M146 749.63c5.21 0 5.21-8.08 0-8.08s-5.22 8.08 0 8.08z" fill="#fff"></path><path d="M115.46 761.67c2.61 0 2.61-4 0-4s-2.6 4 0 4z" fill="#fff"></path><path d="M135.67 775.72c5.21 0 5.21-8.08 0-8.08s-5.21 8.08 0 8.08z" fill="#fff"></path><path d="M511.2 826.32c5.21 0 5.21-8.08 0-8.08s-5.21 8.08 0 8.08z" fill="#fff"></path><path d="M209.15 675.15c2.61 0 2.61-4 0-4s-2.6 4 0 4z" fill="#fff"></path><path d="M167.94 716.36c2.61 0 2.61-4 0-4s-2.6 4 0 4z" fill="#fff"></path><path d="M180.69 479.48c2.6 0 2.6-4 0-4s-2.61 4 0 4z" fill="#fff"></path><path d="M121 711.86c2.61 0 2.61-4 0-4s-2.6 4 0 4z" fill="#fff"></path><path d="M70.79 663.6c2.61 0 2.61-4 0-4s-2.6 4 0 4z" fill="#fff"></path><path d="M56.56 590.07c2.61 0 2.61-4 0-4s-2.6 4 0 4z" fill="#fff"></path><path d="M105.09 565.3c2.6 0 2.6-4 0-4s-2.61 4 0 4z" fill="#fff"></path><path d="M36.69 518.89c2.61 0 2.61-4 0-4s-2.6 4 0 4z" fill="#fff"></path><path d="M284.25 775.16c2.61 0 2.61-4 0-4s-2.6 4 0 4z" fill="#fff"></path><path d="M300.86 658.54c2.6 0 2.6-4 0-4a2 2 0 0 0 0 4z" fill="#fff"></path><path d="M508.38 625.34c2.61 0 2.61-4 0-4s-2.6 4 0 4z" fill="#fff"></path><path d="M446.72 530.47c2.61 0 2.61-4 0-4s-2.61 4 0 4z" fill="#fff"></path><path d="M472.81 473.55c2.6 0 2.6-4 0-4s-2.61 4 0 4z" fill="#fff"></path><path d="M357.78 478.88c2.6 0 2.6-4 0-4s-2.61 4 0 4z" fill="#fff"></path><path d="M509 727.92c2.6 0 2.6-4 0-4s-2.61 4 0 4z" fill="#fff"></path><path d="M304.81 827.34c2.6 0 2.6-4 0-4s-2.61 4 0 4z" fill="#fff"></path><path d="M251.84 802.83c2.61 0 2.61-4 0-4s-2.61 4 0 4z" fill="#fff"></path><path d="M281.09 711.91c2.61 0 2.61-4 0-4s-2.61 4 0 4z" fill="#fff"></path><path d="M213.69 514.46c2.61 0 2.61-4 0-4s-2.6 4 0 4z" fill="#fff"></path><path d="M219.42 651c2.61 0 2.61-4 0-4s-2.6 4 0 4z" fill="#fff"></path><path d="M229.7 591c2.61 0 2.61-4 0-4s-2.6 4 0 4z" fill="#fff"></path><path d="M251.05 472.36c2.6 0 2.6-4 0-4s-2.61 4 0 4z" fill="#fff"></path><path d="M308 534c2.61 0 2.61-4 0-4s-2.6 4 0 4z" fill="#fff"></path><path d="M394.15 776c2.6 0 2.6-4 0-4s-2.61 4 0 4z" fill="#fff"></path><path d="M350.66 787.81c2.61 0 2.61-4 0-4s-2.6 4 0 4z" fill="#fff"></path><path d="M259 826.55c2.6 0 2.6-4 0-4s-2.61 4 0 4z" fill="#fff"></path><path d="M213.89 785.35c2.61 0 2.61-4 0-4s-2.6 4 0 4z" fill="#fff"></path><path d="M173.48 770.49c2.61 0 2.61-4 0-4s-2.6 4 0 4z" fill="#fff"></path><path d="M108.75 649.57a2 2 0 0 0 0-4 2 2 0 0 0 0 4z" fill="#fff"></path><path d="M247.94 706.66c2.61 0 2.61-4 0-4s-2.6 4 0 4z" fill="#fff"></path><path d="M277.25 678.57c2.61 0 2.61-4 0-4s-2.6 4 0 4z" fill="#fff"></path><path d="M305.35 497.81c2.6 0 2.6-4 0-4s-2.61 4 0 4z" fill="#fff"></path><path d="M273.55 516c2.61 0 2.61-4 0-4s-2.6 4 0 4z" fill="#fff"></path><path d="M215 479.49c2.61 0 2.61-4 0-4s-2.6 4 0 4z" fill="#fff"></path><path d="M426.56 476.31a2 2 0 0 0 0-4 2 2 0 0 0 0 4z" fill="#fff"></path><path d="M485.06 542.64c2.61 0 2.61-4 0-4s-2.6 4 0 4z" fill="#fff"></path><path d="M389.4 538.68a2 2 0 0 0 0-4c-2.6 0-2.6 4 0 4z" fill="#fff"></path><path d="M323 475.44c2.61 0 2.61-4 0-4s-2.6 4 0 4z" fill="#fff"></path><path d="M506.41 594c2.6 0 2.6-4 0-4s-2.61 4 0 4z" fill="#fff"></path><path d="M390.48 483.44c2.6 0 2.6-4 0-4s-2.61 4 0 4z" fill="#fff"></path><path d="M227.18 561.32c2.61 0 2.61-4 0-4s-2.61 4 0 4z" fill="#fff"></path><path d="M448.24 707.88c2.61 0 2.61-4 0-4s-2.6 4 0 4z" fill="#fff"></path><path d="M429.92 821.47c2.61 0 2.61-4 0-4s-2.6 4 0 4z" fill="#fff"></path><path d="M218.85 745.45c2.61 0 2.61-4 0-4s-2.6 4 0 4z" fill="#fff"></path><path d="M104 662c2.61 0 2.61-4 0-4s-2.61 4 0 4z" fill="#fff"></path><path d="M182.49 546.67c2.6 0 2.6-4 0-4s-2.61 4 0 4z" fill="#fff"></path><path d="M182.49 649.29h-2.42a2 2 0 1 0 0 4h2.42a2 2 0 0 0 0-4z" fill="#fff"></path><path d="M157 791.67h-2.43a2 2 0 1 0 0 4H157a2 2 0 0 0 0-4z" fill="#fff"></path><path d="M232.87 523.58h-2.43a2 2 0 0 0 0 4h2.43a2 2 0 0 0 0-4z" fill="#fff"></path><path d="M92.79 590.3c2.61 0 2.61-4 0-4s-2.6 4 0 4z" fill="#fff"></path><path d="M114.61 539.39c2.61 0 2.61-4 0-4s-2.6 4 0 4z" fill="#fff"></path><path d="M180.07 515.15c2.6 0 2.6-4 0-4s-2.61 4 0 4z" fill="#fff"></path><path d="M75.83 486.06c2.6 0 2.6-4 0-4s-2.61 4 0 4z" fill="#fff"></path><path d="M194.61 582.62c5.21 0 5.21-8.08 0-8.08s-5.21 8.08 0 8.08z" fill="#fff"></path><path d="M438.52 505c5.21 0 5.21-8.08 0-8.08s-5.21 8.08 0 8.08z" fill="#fff"></path><path d="M265.38 548.71c5.21 0 5.21-8.08 0-8.08s-5.21 8.08 0 8.08z" fill="#fff"></path><path d="M354.17 512c5.21 0 5.21-8.08 0-8.08s-5.21 8.08 0 8.08z" fill="#fff"></path><path d="M143.7 570.5c5.21 0 5.21-8.08 0-8.08s-5.21 8.08 0 8.08z" fill="#fff"></path><path d="M143.7 504.24h-2.42a4 4 0 1 0 0 8.08h2.42a4 4 0 0 0 0-8.08z" fill="#fff"></path><path d="M61.28 524.44c5.21 0 5.21-8.08 0-8.08s-5.21 8.08 0 8.08z" fill="#fff"></path><path d="M81.05 551.44H79.2c-1.67 0-3.07 1.83-3.07 4s1.4 4 3.07 4h1.85c1.67 0 3.07-1.84 3.07-4s-1.4-4-3.07-4z" fill="#fff"></path><path d="M78.57 609.32h-2.1a4.08 4.08 0 0 0 0 8.08h2.1a4.08 4.08 0 0 0 0-8.08z" fill="#fff"></path><path d="M117 621.41c5.21 0 5.21-8.08 0-8.08s-5.21 8.08 0 8.08z" fill="#fff"></path><path d="M199.46 720.8c5.21 0 5.21-8.08 0-8.08s-5.21 8.08 0 8.08z" fill="#fff"></path><path d="M192.19 757.16c5.21 0 5.21-8.08 0-8.08s-5.22 8.08 0 8.08z" fill="#fff"></path><path d="M483.43 659.72c5.21 0 5.21-8.08 0-8.08s-5.21 8.08 0 8.08z" fill="#fff"></path><path d="M257.64 740.19c5.21 0 5.21-8.07 0-8.07s-5.21 8.07 0 8.07z" fill="#fff"></path><path d="M245.52 781.41c5.21 0 5.21-8.08 0-8.08s-5.21 8.08 0 8.08z" fill="#fff"></path><path d="M224.17 817c5.21 0 5.21-8.08 0-8.08s-5.21 8.08 0 8.08z" fill="#fff"></path><path d="M119.46 472.73H117a4 4 0 0 0 0 8.08h2.42a4 4 0 1 0 0-8.08z" fill="#fff"></path><path d="M193.4 618.19c5.21 0 5.21-8.08 0-8.08s-5.21 8.08 0 8.08z" fill="#fff"></path><path d="M124.31 592.32c5.21 0 5.21-8.08 0-8.08s-5.21 8.08 0 8.08z" fill="#fff"></path><path d="M154.46 609.34c5.21 0 5.21-8.08 0-8.08s-5.22 8.08 0 8.08z" fill="#fff"></path><path d="M82.22 648.08h2c1.83 0 3.35-1.84 3.35-4s-1.52-4-3.35-4h-2c-1.82 0-3.35 1.83-3.35 4s1.53 4 3.35 4z" fill="#fff"></path><path d="M163.1 676.91c5.21 0 5.21-8.08 0-8.08s-5.21 8.08 0 8.08z" fill="#fff"></path><path d="M136.43 684.44c5.21 0 5.21-8.08 0-8.08s-5.21 8.08 0 8.08z" fill="#fff"></path><path d="M109.76 694.14c5.21 0 5.21-8.08 0-8.08s-5.21 8.08 0 8.08z" fill="#fff"></path><path d="M56.43 570.5c5.21 0 5.21-8.08 0-8.08s-5.21 8.08 0 8.08z" fill="#fff"></path><path d="M90.8 526.06h-2.17a4.07 4.07 0 0 0 0 8.08h2.17a4.07 4.07 0 0 0 0-8.08z" fill="#fff"></path><path d="M34.61 485.66c5.21 0 5.21-8.08 0-8.08s-5.21 8.08 0 8.08z" fill="#fff"></path><path d="M66.13 466.26c5.21 0 5.21-8.08 0-8.08s-5.21 8.08 0 8.08z" fill="#fff"></path><path d="M22.49 443.64h-2.42a4 4 0 1 0 0 8.08h2.42a4 4 0 0 0 0-8.08z" fill="#fff"></path><path d="M315.82 781.41c5.21 0 5.21-8.08 0-8.08s-5.21 8.08 0 8.08z" fill="#fff"></path><path d="M424.91 742.62c5.21 0 5.21-8.08 0-8.08s-5.21 8.08 0 8.08z" fill="#fff"></path><path d="M381.27 793.53c5.21 0 5.21-8.08 0-8.08s-5.21 8.08 0 8.08z" fill="#fff"></path><path d="M314.69 703.3c5.21 0 5.21-8.08 0-8.08s-5.21 8.08 0 8.08z" fill="#fff"></path><path d="M280.83 612.76c5.21 0 5.21-8.08 0-8.08s-5.21 8.08 0 8.08z" fill="#fff"></path><path d="M473.39 729.29H471a2 2 0 0 0 0 4h2.42a2 2 0 0 0 0-4z" fill="#fff"></path><path d="M449.15 784.24c2.6 0 2.6-4 0-4s-2.61 4 0 4z" fill="#fff"></path><path d="M364.3 760c2.61 0 2.61-4 0-4s-2.6 4 0 4z" fill="#fff"></path><path d="M276.08 812c2.6 0 2.6-4 0-4a2 2 0 0 0 0 4z" fill="#fff"></path><path d="M404.62 818.75V817c0-.81-.92-1.48-2-1.48s-2 .67-2 1.48v1.78c0 .82.92 1.49 2 1.49s2-.67 2-1.49z" fill="#fff"></path><path d="M492.78 791.51c2.61 0 2.61-4 0-4s-2.6 4 0 4z" fill="#fff"></path><path d="M325.52 815.75c2.6 0 2.6-4 0-4s-2.61 4 0 4z" fill="#fff"></path><path d="M553.39 680c2.6 0 2.6-4 0-4a2 2 0 0 0 0 4z" fill="#fff"></path><path d="M478.24 694.54c2.6 0 2.6-4 0-4s-2.6 4 0 4z" fill="#fff"></path><path d="M456 676.82c2.61 0 2.61-4 0-4s-2.61 4 0 4z" fill="#fff"></path><path d="M388 739.89c2.6 0 2.6-4 0-4s-2.61 4 0 4z" fill="#fff"></path><path d="M304.17 743.62c2.6 0 2.6-4 0-4s-2.61 4 0 4z" fill="#fff"></path><path d="M577.63 553.94c2.61 0 2.61-4 0-4s-2.61 4 0 4z" fill="#fff"></path><path d="M563.09 493.33c2.6 0 2.6-4 0-4s-2.61 4 0 4z" fill="#fff"></path><path d="M420.17 769.77c.07.29-.19.61.13.74a.35.35 0 0 1 .42-.25c-.11-.2-.3-.35-.31-.56z" fill="#fff"></path><path d="M432 767.76c-.2.28-.3.68-.59.82l.22.33c.36-.29 1-.08.95-.65a.54.54 0 0 1-.58-.5z" fill="#fff"></path><path d="M390.27 757.26c-.13.18-.2.42-.38.52l.14.21c.23-.19.6 0 .59-.42-.2.01-.31-.1-.35-.31z" fill="#fff"></path><path d="M376.48 762.85c-.13.18-.19.42-.37.51l.14.21c.23-.18.6-.05.6-.41a.35.35 0 0 1-.37-.31z" fill="#fff"></path><path d="M437.5 765a.45.45 0 0 1 0 .6c.25 0 .5-.18.74-.09l.06-.31c-.3-.09-.5-.55-.8-.2z" fill="#fff"></path><path d="M538.89 734.18a.28.28 0 0 1 0 .38c.16 0 .32-.12.46-.06v-.2c-.15-.03-.27-.3-.46-.12z" fill="#fff"></path><path d="M397.51 797.68a.3.3 0 0 1 0 .38c.16 0 .32-.11.46-.06v-.2c-.16-.03-.28-.32-.46-.12z" fill="#fff"></path><path d="M416.23 755.17a1 1 0 0 1 1.31.39c.17-.61.07-1.3.46-1.76l-.61-.36c-.39.74-1.58.83-1.16 1.73z" fill="#fff"></path><path d="M421.33 770.54l.08.09c.11-.11.3-.07.28-.23a.17.17 0 0 1-.21-.12c-.05.09-.07.2-.15.26z" fill="#fff"></path><path d="M446.73 767.13a.52.52 0 0 1-.51.52c.24.22.6.34.73.62l.32-.2c-.27-.36 0-.92-.54-.94z" fill="#fff"></path><path d="M396.54 811.14a.53.53 0 0 1-.52.52c.25.22.6.34.73.62l.33-.2c-.25-.36 0-.93-.54-.94z" fill="#fff"></path><path d="M427 758c-.25.12-.46.34-.72.35l.06.31c.37-.07.72.28.91-.12a.41.41 0 0 1-.25-.54z" fill="#fff"></path><path d="M436.72 790.54c-.24.11-.44.34-.71.33l.06.32c.36-.07.72.29.91-.12a.41.41 0 0 1-.26-.53z" fill="#fff"></path><path d="M434.59 763.79h.07c.07-.09.22-.09.18-.21a.13.13 0 0 1-.17-.06c-.04.12-.03.21-.08.27z" fill="#fff"></path><path d="M396.51 763.72c-.13.15-.2.38-.38.48l.14.17c.22-.17.6 0 .59-.39a.3.3 0 0 1-.35-.26z" fill="#fff"></path><path d="M462.54 763.72h.15v-.06c-.06 0-.06-.13-.15-.1a.09.09 0 0 1 0 .16z" fill="#fff"></path><path d="M463.41 769.48c-.56.19-.2.71-.39 1.18l.39.1c.07-.33.42-.56.62-.88a.48.48 0 0 1-.62-.4z" fill="#fff"></path><path d="M717.89 707.61c-.35.12-.12.45-.24.74l.24.07c.05-.21.27-.35.4-.55a.31.31 0 0 1-.4-.26z" fill="#fff"></path><path d="M503.76 755.42c-.35.11-.13.44-.24.74l.24.06c0-.2.26-.35.39-.55a.3.3 0 0 1-.39-.25z" fill="#fff"></path><path d="M451.29 755.31c-.56.19-.19.72-.38 1.17l.37.12c.09-.34.42-.58.65-.89a.5.5 0 0 1-.64-.4z" fill="#fff"></path><path d="M76.68 473.43c.11.47-.32 1 .21 1.2a.57.57 0 0 1 .7-.4c-.19-.32-.5-.57-.52-.92z" fill="#fff"></path><path d="M96.11 470.14c-.33.46-.5 1.1-1 1.34l.37.54c.58-.48 1.57-.13 1.54-1.07a.88.88 0 0 1-.91-.81z" fill="#fff"></path><path d="M27.69 452.93c-.22.29-.32.69-.61.85l.22.35c.38-.31 1-.09 1-.69-.36.02-.54-.17-.61-.51z" fill="#fff"></path><path d="M105.07 465.57a.72.72 0 0 1 .06 1c.42 0 .83-.29 1.22-.16l.1-.5c-.58-.11-.88-.91-1.38-.34z" fill="#fff"></path><path d="M39.55 519.16a.47.47 0 0 1 0 .62c.26 0 .53-.19.76-.1l.07-.33c-.33-.04-.53-.52-.83-.19z" fill="#fff"></path><path d="M70.22 449.52a1.58 1.58 0 0 1 2.15.62c.28-1 .12-2.12.76-2.87l-1-.6c-.7 1.21-2.6 1.33-1.91 2.85z" fill="#fff"></path><path d="M78.58 474.69l.14.14c.16-.17.49-.11.45-.37a.27.27 0 0 1-.34-.2c-.09.15-.12.33-.25.43z" fill="#fff"></path><path d="M120.19 469.1c0 .51-.31.77-.84.86.41.36 1 .55 1.2 1l.53-.32c-.41-.58 0-1.51-.89-1.54z" fill="#fff"></path><path d="M38 541.21a.86.86 0 0 1-.84.85c.4.36 1 .55 1.19 1l.53-.32c-.45-.58-.03-1.51-.88-1.53z" fill="#fff"></path><path d="M87.8 454.15c-.41.2-.75.57-1.17.58l.09.51c.61-.12 1.19.46 1.49-.19a.69.69 0 0 1-.41-.9z" fill="#fff"></path><path d="M103.79 507.45c-.39.18-.72.56-1.16.56l.11.51c.59-.12 1.18.47 1.48-.19a.7.7 0 0 1-.43-.88z" fill="#fff"></path><path d="M100.29 463.62l.13.08c.11-.15.36-.15.29-.35a.19.19 0 0 1-.26-.09c-.08.12-.06.27-.16.36z" fill="#fff"></path><path d="M37.91 463.51c-.22.25-.33.63-.62.79l.22.28c.38-.28 1-.08 1-.63a.51.51 0 0 1-.6-.44z" fill="#fff"></path><path d="M146.09 463.51c.09 0 .19 0 .25.07l.06-.1c-.11-.06-.11-.21-.25-.16a.14.14 0 0 1-.06.19z" fill="#fff"></path><path d="M147.53 473c-.93.31-.33 1.17-.65 1.93l.64.17c.12-.54.68-.92 1-1.44a.78.78 0 0 1-.99-.66z" fill="#fff"></path><path d="M213.63 449.91c-.57.19-.21.73-.39 1.22l.39.1c.07-.34.43-.58.65-.9a.51.51 0 0 1-.65-.42z" fill="#fff"></path><path d="M127.67 449.73c-.92.32-.32 1.18-.63 1.92l.62.19c.13-.54.68-.94 1.05-1.44a.82.82 0 0 1-1.04-.67z" fill="#fff"></path><path d="M313 587.56c.09.41-.27.86.17 1a.49.49 0 0 1 .6-.35c-.16-.28-.43-.49-.44-.79z" fill="#fff"></path><path d="M329.62 584.75c-.28.39-.43 1-.83 1.15l.31.46c.51-.41 1.34-.11 1.33-.92a.74.74 0 0 1-.81-.69z" fill="#fff"></path><path d="M337.28 580.85a.62.62 0 0 1 .06.83c.35 0 .7-.25 1-.13l.08-.43c-.42-.12-.71-.73-1.14-.27z" fill="#fff"></path><path d="M314 734.58a.49.49 0 0 1 0 .63c.26 0 .52-.19.76-.1l.06-.33c-.32-.05-.53-.52-.82-.2z" fill="#fff"></path><path d="M307.48 567.12a1.36 1.36 0 0 1 1.84.53c.24-.85.1-1.81.65-2.45l-.87-.52c-.58 1.04-2.2 1.17-1.62 2.44z" fill="#fff"></path><path d="M314.63 588.64l.12.13c.14-.15.42-.1.38-.32a.24.24 0 0 1-.29-.17c-.07.12-.1.28-.21.36z" fill="#fff"></path><path d="M350.21 583.87a.73.73 0 0 1-.72.73c.35.31.85.47 1 .86l.45-.27c-.32-.51.06-1.3-.73-1.32z" fill="#fff"></path><path d="M312.4 756.63c0 .51-.32.77-.84.85.41.37 1 .56 1.2 1l.53-.33c-.41-.56 0-1.49-.89-1.52z" fill="#fff"></path><path d="M322.51 571.08c-.34.17-.64.49-1 .5l.08.43c.52-.1 1 .4 1.28-.16a.59.59 0 0 1-.36-.77z" fill="#fff"></path><path d="M170.46 588.79c-.33.16-.62.48-1 .48l.09.43c.5-.1 1 .41 1.27-.16a.6.6 0 0 1-.36-.75z" fill="#fff"></path><path d="M333.2 579.18l.1.07c.1-.13.31-.13.25-.3a.16.16 0 0 1-.22-.08c-.07.13-.05.23-.13.31z" fill="#fff"></path><path d="M312.36 678.93c-.22.26-.33.64-.63.79l.23.29c.37-.28 1-.09 1-.64a.49.49 0 0 1-.6-.44z" fill="#fff"></path><path d="M372.36 579.09h.21l.05-.08c-.09 0-.1-.18-.22-.14a.13.13 0 0 1-.04.22z" fill="#fff"></path><path d="M373.58 587.15c-.79.27-.28 1-.54 1.66l.54.14c.1-.46.58-.79.87-1.23a.68.68 0 0 1-.87-.57z" fill="#fff"></path><path d="M356.6 567.31c-.79.27-.27 1-.53 1.63l.52.17c.12-.47.59-.81.91-1.24a.7.7 0 0 1-.9-.56z" fill="#fff"></path><path d="M362.81 658.72c.1.4-.27.85.18 1a.5.5 0 0 1 .6-.35c-.16-.27-.43-.48-.44-.78z" fill="#fff"></path><path d="M468.08 608.31c-.28.4-.43 1-.83 1.15l.31.47c.5-.41 1.34-.12 1.33-.93a.74.74 0 0 1-.81-.69z" fill="#fff"></path><path d="M410 672.35a.62.62 0 0 1 0 .84c.36 0 .71-.25 1.05-.14l.08-.43c-.48-.07-.73-.73-1.13-.27z" fill="#fff"></path><path d="M390.88 702.73a1.35 1.35 0 0 1 1.84.54c.24-.85.1-1.81.65-2.46l-.87-.51c-.59 1.04-2.21 1.16-1.62 2.43z" fill="#fff"></path><path d="M434.88 635.59l.11.12c.14-.14.42-.09.39-.32a.24.24 0 0 1-.3-.17c-.08.13-.08.28-.2.37z" fill="#fff"></path><path d="M389.51 679.06a.73.73 0 0 1-.72.73c.34.31.84.47 1 .86l.46-.27c-.34-.51.02-1.3-.74-1.32z" fill="#fff"></path><path d="M372.32 642.24c-.35.17-.64.48-1 .49l.08.43c.51-.09 1 .4 1.27-.16a.58.58 0 0 1-.35-.76z" fill="#fff"></path><path d="M383 650.33l.11.07c.09-.13.31-.12.25-.3a.17.17 0 0 1-.23-.08c-.06.1-.04.23-.13.31z" fill="#fff"></path><path d="M422.16 650.24c.08 0 .17 0 .22.06l.05-.09c-.1-.05-.1-.18-.22-.13a.11.11 0 0 1-.05.16z" fill="#fff"></path><path d="M423.39 658.31c-.79.26-.28 1-.55 1.65l.54.15c.1-.47.59-.79.88-1.23a.69.69 0 0 1-.87-.57z" fill="#fff"></path><path d="M443.18 589.34c-.79.27-.28 1-.54 1.64l.53.16c.11-.46.58-.8.9-1.23a.7.7 0 0 1-.89-.57z" fill="#fff"></path><path d="M319.06 433.56c.15.64-.43 1.35.27 1.63a.79.79 0 0 1 .95-.55c-.25-.44-.68-.77-.69-1.24z" fill="#fff"></path><path d="M345.36 429.11c-.45.62-.68 1.49-1.32 1.82l.5.73c.79-.65 2.12-.18 2.09-1.46a1.17 1.17 0 0 1-1.27-1.09z" fill="#fff"></path><path d="M545.94 417.72a1 1 0 0 1 .08 1.33c.57-.05 1.12-.4 1.65-.22l.13-.68c-.8-.15-1.19-1.15-1.86-.43z" fill="#fff"></path><path d="M310.31 401.19a2.15 2.15 0 0 1 2.91.85c.38-1.34.16-2.86 1-3.88l-1.37-.82c-.85 1.66-3.47 1.85-2.54 3.85z" fill="#fff"></path><path d="M321.63 435.26l.18.2c.23-.23.67-.15.61-.5a.39.39 0 0 1-.46-.27c-.11.19-.15.44-.33.57z" fill="#fff"></path><path d="M418.74 423.72a1.17 1.17 0 0 1-1.15 1.16c.56.49 1.34.75 1.63 1.37l.72-.44c-.56-.81 0-2.05-1.2-2.09z" fill="#fff"></path><path d="M334.1 407.47c-.54.27-1 .77-1.58.79l.13.68c.81-.15 1.6.63 2-.26a.94.94 0 0 1-.55-1.21z" fill="#fff"></path><path d="M581.51 424.84c-.54.27-1 .77-1.58.78l.13.69c.82-.16 1.61.63 2-.26a.94.94 0 0 1-.55-1.21z" fill="#fff"></path><path d="M391.8 416.31l.17.11c.14-.21.49-.2.39-.48a.27.27 0 0 1-.36-.13c-.1.19-.07.37-.2.5z" fill="#fff"></path><path d="M225.75 414.56c-1.25.43-.44 1.59-.85 2.6l.83.26c.18-.74.93-1.28 1.43-2a1.11 1.11 0 0 1-1.41-.86z" fill="#fff"></path><path d="M188.47 684c.59-.79 2-.79 1.61-1.88a1.16 1.16 0 0 1-1.53-.57c-.26.71-.24 1.51-.76 2z" fill="#fff"></path><path d="M158.36 657.75c1.14-.07 2.36-.64 3.34-.2l.36-1.28c-1.5-.31-2.22-2.29-3.66-1a1.79 1.79 0 0 1-.04 2.48z" fill="#fff"></path><path d="M139.76 649.56a1.44 1.44 0 0 1 1.43-1.36c-.59-.61-1.52-.92-1.81-1.71l-.9.5c.61 1.01-.19 2.48 1.28 2.57z" fill="#fff"></path><path d="M159.82 725c-1.78-.84-2.28-2.3-1.8-4.18-1.9.84-3.43 2.54-5.43 2.5l.37 2.36c2.78-.51 5.44 2.32 6.86-.68z" fill="#fff"></path><path d="M188 679.42v-.4c-.47 0-.79-.63-1.15-.23a.57.57 0 0 1 .13.79c.35-.05.67-.24 1.02-.16z" fill="#fff"></path><path d="M125.74 621.26a1.73 1.73 0 0 1 2.41.22c0-1.1-.41-2.26 0-3.18l-1.18-.42c-.36 1.41-2.33 1.95-1.23 3.38z" fill="#fff"></path><path d="M144.35 691.39c.83.38 1.85.45 2.4 1.09l.66-.8c-.95-.8-.81-2.46-2.21-2.09a1.39 1.39 0 0 1-.85 1.8z" fill="#fff"></path><path d="M142.9 659.57v-.3c-.37 0-.69-.38-.92 0a.41.41 0 0 1 .2.54c.24-.05.45-.27.72-.24z" fill="#fff"></path><path d="M661.51 669.56c.59-.79 2-.79 1.61-1.88a1.15 1.15 0 0 1-1.53-.57c-.26.71-.24 1.52-.77 2z" fill="#fff"></path><path d="M650.27 732.28c.59-.79 2-.79 1.61-1.88a1.16 1.16 0 0 1-1.53-.57c-.26.71-.24 1.51-.76 2z" fill="#fff"></path><path d="M631.4 643.28c1.14-.07 2.36-.63 3.34-.2l.36-1.27c-1.5-.31-2.23-2.3-3.66-1a1.78 1.78 0 0 1-.04 2.47z" fill="#fff"></path><path d="M695.18 712.06c-1.78-.85-2.28-2.31-1.8-4.19-1.9.84-3.42 2.54-5.42 2.5l.37 2.36c2.77-.48 5.44 2.27 6.85-.67z" fill="#fff"></path><path d="M661 665v-.4c-.47 0-.79-.63-1.15-.22a.57.57 0 0 1 .13.79A2.58 2.58 0 0 1 661 665z" fill="#fff"></path><path d="M617.39 676.92c.82.38 1.85.46 2.4 1.09l.66-.79c-1-.8-.81-2.46-2.21-2.1a1.39 1.39 0 0 1-.85 1.8z" fill="#fff"></path><path d="M615.94 645.11v-.3c-.38 0-.7-.38-.92 0a.4.4 0 0 1 .2.53c.24-.04.45-.26.72-.23z" fill="#fff"></path><path d="M513.44 768.48c.59-.79 1.95-.79 1.6-1.88a1.16 1.16 0 0 1-1.53-.57c-.26.71-.23 1.51-.76 2z" fill="#fff"></path><path d="M483.33 742.2c1.13-.07 2.35-.64 3.33-.2l.36-1.28c-1.49-.3-2.22-2.29-3.66-1a1.77 1.77 0 0 1-.03 2.48z" fill="#fff"></path><path d="M488.46 807.57c1.14-.07 2.36-.63 3.34-.2l.36-1.28c-1.5-.3-2.22-2.29-3.66-1a1.78 1.78 0 0 1-.04 2.48z" fill="#fff"></path><path d="M345.52 806.73c-1.78-.85-2.28-2.31-1.8-4.19-1.9.84-3.43 2.54-5.43 2.5l.38 2.36c2.76-.48 5.43 2.31 6.85-.67z" fill="#fff"></path><path d="M512.94 763.87v-.4c-.48-.05-.8-.63-1.16-.23a.56.56 0 0 1 .14.79c.38-.03.7-.24 1.02-.16z" fill="#fff"></path><path d="M469.31 775.84c.83.38 1.85.45 2.4 1.09l.66-.8c-.95-.79-.81-2.46-2.21-2.09a1.38 1.38 0 0 1-.85 1.8z" fill="#fff"></path><path d="M404.43 802.67c.82.37 1.85.45 2.4 1.08l.66-.79c-1-.8-.81-2.46-2.21-2.1a1.41 1.41 0 0 1-.85 1.81z" fill="#fff"></path><path d="M467.86 744v-.3c-.38 0-.7-.38-.93 0a.39.39 0 0 1 .2.54c.26-.02.46-.24.73-.24z" fill="#fff"></path><path d="M86.17 634.47c1.67 1 2.23-1 3.77-1.48l-.49-1.22c-1 .5-2.35.14-3.61.21a1.67 1.67 0 0 1 .33 2.49z" fill="#fff"></path><path d="M693.26 589.05c-.49 0-.92-.49-1.22 0a.59.59 0 0 1 .28.76c.35-.12.64-.39 1-.34z" fill="#fff"></path><path d="M693 608.91c-.4-.42-1-.7-1.15-1.21l-.59.27c.36.66-.15 1.58.77 1.72a.87.87 0 0 1 .97-.78z" fill="#fff"></path><path d="M722 544.14c-.25-.26-.62-.44-.73-.75l-.37.15c.23.44-.09 1 .49 1.09a.55.55 0 0 1 .61-.49z" fill="#fff"></path><path d="M695.85 618.61a.71.71 0 0 1-1-.12c0 .42.14.87-.06 1.24l.47.18c.22-.55 1.02-.72.59-1.3z" fill="#fff"></path><path d="M655.25 544.06a.48.48 0 0 1-.62-.08c0 .26.1.55 0 .77l.3.12c.07-.34.59-.46.32-.81z" fill="#fff"></path><path d="M711.88 490a1.61 1.61 0 0 1-1 2c.92.46 2 .5 2.67 1.27l.77-.89c-1.07-.85-.87-2.75-2.44-2.38z" fill="#fff"></path><path d="M691.69 590.71l-.17.11c.14.19 0 .51.29.51a.27.27 0 0 1 .25-.3c-.13-.11-.3-.17-.37-.32z" fill="#fff"></path><path d="M689.7 633a.87.87 0 0 1-.69-1c-.42.34-.72.88-1.2 1l.22.59c.65-.32 1.48.25 1.67-.59z" fill="#fff"></path><path d="M634 538.54a.86.86 0 0 1-.68-1c-.43.34-.72.88-1.2 1l.21.59c.67-.3 1.5.28 1.67-.59z" fill="#fff"></path><path d="M710.09 603.52c-.12-.43-.42-.85-.36-1.26h-.51c0 .62-.67 1.09-.08 1.51a.69.69 0 0 1 .95-.25z" fill="#fff"></path><path d="M655.19 609.84c-.11-.42-.42-.82-.34-1.24h-.51c0 .61-.67 1.09-.09 1.51a.7.7 0 0 1 .94-.27z" fill="#fff"></path><path d="M698.61 614.22l-.1.11c.12.13.08.38.29.35a.21.21 0 0 1 .14-.25c-.11-.09-.26-.1-.33-.21z" fill="#fff"></path><path d="M709.88 552.39c-.21-.26-.56-.44-.66-.76l-.32.17c.21.42-.09 1 .45 1.09a.5.5 0 0 1 .53-.5z" fill="#fff"></path><path d="M690.52 659.64c0 .08 0 .19-.11.24l.08.07c.08-.1.24-.07.21-.22a.15.15 0 0 1-.18-.09z" fill="#fff"></path><path d="M781.56 597c-.39-.41-1-.69-1.14-1.21l-.59.27c.36.67-.15 1.58.77 1.73a.87.87 0 0 1 .96-.79z" fill="#fff"></path><path d="M718.29 688.9a.71.71 0 0 1-1-.12c0 .42.14.87-.06 1.24l.47.18c.22-.55 1.02-.72.59-1.3z" fill="#fff"></path><path d="M669.51 716.23a.71.71 0 0 1-1-.11c0 .42.14.87-.06 1.24l.47.18c.22-.54 1.02-.72.59-1.31z" fill="#fff"></path><path d="M778.26 621.1a.85.85 0 0 1-.68-1c-.42.33-.72.87-1.2 1l.22.59c.65-.29 1.48.31 1.66-.59z" fill="#fff"></path><path d="M787.17 602.35l-.1.11c.13.14.09.39.3.36a.19.19 0 0 1 .13-.25c-.1-.1-.25-.11-.33-.22z" fill="#fff"></path><path d="M779.09 647.78c0 .08-.05.18-.11.23l.08.08c.08-.1.23-.08.2-.22a.14.14 0 0 1-.17-.09z" fill="#fff"></path><path d="M681.05 659.37c-.14-1-1.09-.53-1.77-1l-.28.6c.51.22.78.85 1.22 1.27.03-.53.27-.84.83-.87z" fill="#fff"></path><path d="M707.27 643.84c-.15-1-1.09-.53-1.76-1l-.3.58c.51.23.8.85 1.23 1.31.02-.55.28-.85.83-.89z" fill="#fff"></path><path d="M780.34 492.5c-.49 0-.92-.49-1.22 0a.58.58 0 0 1 .28.76c.35-.12.64-.39 1-.34z" fill="#fff"></path><path d="M780.07 512.36c-.39-.42-1-.7-1.14-1.21l-.59.27c.36.67-.15 1.58.77 1.72a.87.87 0 0 1 .96-.78z" fill="#fff"></path><path d="M753.64 685.45a.69.69 0 0 1-1-.11c0 .42.13.87-.07 1.24l.48.18c.22-.56 1.03-.76.59-1.31z" fill="#fff"></path><path d="M778.77 494.16l-.17.11c.13.19 0 .51.28.51a.28.28 0 0 1 .26-.3c-.14-.11-.3-.17-.37-.32z" fill="#fff"></path><path d="M797.17 507c-.13-.43-.42-.85-.36-1.26h-.51c0 .62-.67 1.09-.08 1.51a.69.69 0 0 1 .95-.25z" fill="#fff"></path><path d="M785.69 517.67l-.1.11c.12.13.08.38.29.35a.21.21 0 0 1 .13-.25c-.1-.09-.25-.1-.32-.21z" fill="#fff"></path><path d="M794.35 547.29c-.15-1-1.09-.53-1.76-1l-.3.58c.51.23.8.85 1.23 1.31.02-.55.28-.85.83-.89z" fill="#fff"></path><path d="M625.38 314.79c-40.6-18.37-56.6 25.52-45 56.1 4.32 11.36 14.22 22.27 27.43 13.63 13.75-9 11.95-14.71 15.92-28.36 5.35-18.36 28.33-5.61 35.84-6.71 7.58-21.36-10.41-51.56-31.22-43.79z" fill="#aaacae"></path><path d="M655.47 20.1c12 8.28 15.28 54 14.74 152.07-36.34-41.83-114.08-73.42-116.83-68.9 0 0 85.5-87.27 102.09-83.17z" fill="#aaacae"></path><path d="M534 157.91c-2.43.2-4.88 3-6.82 3-2.46 0-2.34-2.34-5.31-3.93s-7.65-1.83-10.09.5c-3.87 3.71-.84 11 6.8 11.4-.19 2.54.9 5.25.67 7.79-.75 8.18 11.08 9.25 11.84 1.08.23-2.54 1.54-5 1.73-7.57-.06.81 6.7.29 8.78-2a6.49 6.49 0 0 0 .92-6.23c-1.18-2.81-6.08-4.25-8.52-4.04z"></path><path d="M423.88 177.73a10.24 10.24 0 0 0-1.78-1.43c-6.61-4.26-17.79-1.65-20.26 5.92-3.67 11.26 8 22.11 19.09 16.45 7.14-3.67 8.75-15.14 2.95-20.94z"></path><path d="M641.48 200.27a10.69 10.69 0 0 0-1.78-1.44c-6.62-4.26-17.8-1.64-20.27 5.93-3.67 11.25 8 22.1 19.09 16.45 7.14-3.66 8.75-15.15 2.96-20.94z"></path><path d="M630.37 136.44a24.76 24.76 0 0 0-4-3.5c1.13-.61 1.63-2.09.2-2.94-10.17-6-24.51-12.17-35-5.46a10.52 10.52 0 0 0-3.1 2.43l-.26.14a1.49 1.49 0 0 0-.82 1.57 2.06 2.06 0 0 0 2.32 2.25c9.85-1.38 22.93-1.66 32.07 3.55a33.48 33.48 0 0 1 5.26 4.15c1.86 1.77 5.07-.29 3.33-2.19z"></path><path d="M605.65 153.46c-1.34-2.29-3.86-3.89-6.47-2.48-3.25 1.76-4.83 6.39-5.41 9.74-1.15 6.7-.74 16.11 9.65 14.53 2.92-.44 5.45-4.48 5.31-10.43s-1.25-8.24-3.08-11.36z"></path><path d="M458.79 136.62c-2.27-1.92-5.06-.86-6.84 1.11-2.42 2.68-4.11 4.69-5.31 10.5s.31 10.27 3.08 11.29c9.85 3.65 12.16-5.48 12.39-12.27.11-3.4-.5-8.25-3.32-10.63z"></path><path d="M523.21 181.05a81.07 81.07 0 0 1-.85 12.45c-.24 2.26 3.34 2.63 3.58.37a85.76 85.76 0 0 0 .82-13.39c-.12-2.27-3.66-1.68-3.55.57z"></path><path d="M545.57 191.15c-2.12 8.63-14 5.65-19.51 2.14-1.94-1.23-4.07 1.61-2.12 2.85 7.33 4.64 22.25 7.44 25-3.7.52-2.19-2.83-3.44-3.37-1.29z"></path><path d="M522.61 191.64c-1 3.14-5.52 3.74-8.4 3.68-4.31-.09-8.08-2.24-9.74-6.2-.88-2.11-4.15-.65-3.27 1.45 2.27 5.43 7.57 8.16 13.38 8.28 4.27.09 9.92-1.5 11.39-5.93.71-2.16-2.65-3.45-3.36-1.28z"></path><path d="M532.74 92c0 .13-.09.28.06.34a.16.16 0 0 1 .2-.12c-.06-.09-.15-.16-.15-.26z" fill="#fff"></path><path d="M538.28 91.07c-.09.13-.14.31-.28.38l.11.15c.17-.14.45 0 .44-.3a.25.25 0 0 1-.27-.23z" fill="#fff"></path><path d="M517.26 83.17c-.09.14-.14.32-.27.39l.1.15c.17-.13.45 0 .44-.3-.15 0-.23-.08-.27-.24z" fill="#fff"></path><path d="M507 87.3c-.09.13-.14.3-.27.37l.1.16c.17-.14.45 0 .45-.31a.26.26 0 0 1-.28-.22z" fill="#fff"></path><path d="M540.84 89.77a.21.21 0 0 1 0 .28c.11 0 .23-.08.34 0v-.15c-.12-.06-.18-.28-.34-.13z" fill="#fff"></path><path d="M627.66 66.16a.19.19 0 0 1 0 .28c.12 0 .24-.08.35 0v-.15c-.12-.06-.21-.29-.35-.13z" fill="#fff"></path><path d="M522.64 113a.21.21 0 0 1 0 .28c.11 0 .23-.08.34 0v-.15c-.11-.13-.2-.31-.34-.13z" fill="#fff"></path><path d="M530.89 85.23a.46.46 0 0 1 .62.18c.08-.29 0-.6.22-.82l-.29-.17c-.2.35-.74.39-.55.81z" fill="#fff"></path><path d="M533.28 92.35v.05c0-.05.14 0 .13-.11a.09.09 0 0 1-.1-.06s.01.1-.03.12z" fill="#fff"></path><path d="M545.15 90.77c0 .15-.09.22-.24.24.12.11.28.16.34.29l.15-.09c-.11-.21 0-.43-.25-.44z" fill="#fff"></path><path d="M535.91 86.54c-.12.06-.21.16-.33.17v.14c.18 0 .34.13.43-.06a.18.18 0 0 1-.1-.25z" fill="#fff"></path><path d="M540.47 101.63c-.11.05-.2.16-.33.16v.14c.17 0 .34.13.43-.05a.2.2 0 0 1-.1-.25z" fill="#fff"></path><path d="M539.48 89.22s.1 0 .08-.1h-.07s.01.07-.01.1z" fill="#fff"></path><path d="M521.68 89.19c-.06.07-.09.18-.18.22l.07.08c.1-.08.28 0 .27-.18a.14.14 0 0 1-.16-.12z" fill="#fff"></path><path d="M552.54 89.19h.07s0-.06-.08 0 .03-.01.01 0z" fill="#fff"></path><path d="M553 91.86c-.27.09-.09.33-.19.55h.18c0-.16.2-.26.3-.41a.23.23 0 0 1-.29-.14z" fill="#fff"></path><path d="M639.51 152c-.27.09-.1.33-.18.55l.18.05c0-.15.19-.26.29-.41-.16 0-.26-.05-.29-.19z" fill="#fff"></path><path d="M601.56 81.82c-.25.08-.09.33-.17.54h.17c0-.15.2-.26.3-.41a.23.23 0 0 1-.3-.13z" fill="#fff"></path><path d="M547.28 85.29c-.26.09-.09.33-.18.54l.18.06c0-.16.19-.27.3-.41a.24.24 0 0 1-.3-.19z" fill="#fff"></path><path d="M501.67 245.25c.06.25-.17.53.1.63a.32.32 0 0 1 .38-.21c-.1-.17-.27-.3-.28-.48z" fill="#fff"></path><path d="M512 243.52c-.18.24-.27.58-.52.7l.19.29c.32-.25.84-.07.83-.57a.46.46 0 0 1-.5-.42z" fill="#fff"></path><path d="M472.83 228.81c-.19.24-.28.57-.52.71l.18.29c.32-.26.84-.08.83-.57a.45.45 0 0 1-.49-.43z" fill="#fff"></path><path d="M453.74 236.48c-.18.25-.27.58-.52.71l.19.29c.32-.26.84-.07.84-.57a.47.47 0 0 1-.51-.43z" fill="#fff"></path><path d="M516.76 241.1a.37.37 0 0 1 0 .52c.23 0 .44-.16.65-.08v-.27c-.22-.05-.41-.45-.65-.17z" fill="#fff"></path><path d="M482.85 284.34a.42.42 0 0 1 0 .53c.22 0 .44-.16.64-.09l.05-.27c-.27-.04-.44-.44-.69-.17z" fill="#fff"></path><path d="M498.23 232.63a.84.84 0 0 1 1.14.33c.15-.52.07-1.11.41-1.51l-.54-.32c-.36.64-1.37.72-1.01 1.5z" fill="#fff"></path><path d="M502.68 245.91l.07.08c.09-.09.26-.06.24-.2a.14.14 0 0 1-.18-.1c-.05.07-.06.17-.13.22z" fill="#fff"></path><path d="M524.8 243c0 .27-.17.4-.45.45.22.19.53.29.64.53l.28-.17c-.22-.34 0-.81-.47-.81z" fill="#fff"></path><path d="M507.58 235.08c-.22.1-.4.3-.63.31l.06.26c.32-.06.63.25.79-.1a.36.36 0 0 1-.22-.47z" fill="#fff"></path><path d="M516.08 263.2c-.21.09-.38.3-.61.29v.27c.31-.06.63.25.79-.1a.36.36 0 0 1-.18-.46z" fill="#fff"></path><path d="M514.22 240.08h.07c.05-.08.19-.08.15-.19a.1.1 0 0 1-.14-.05c-.04.16-.03.16-.08.24z" fill="#fff"></path><path d="M481.05 240c-.11.14-.17.34-.33.42l.12.15c.2-.15.53 0 .52-.33a.27.27 0 0 1-.31-.24z" fill="#fff"></path><path d="M538.57 240a.42.42 0 0 1 .13 0v-.05c-.05 0-.05-.11-.13-.08a.07.07 0 0 1 0 .13z" fill="#fff"></path><path d="M539.33 245c-.49.16-.17.61-.34 1l.34.09c.06-.29.37-.49.55-.77a.42.42 0 0 1-.55-.32z" fill="#fff"></path><path d="M528.77 232.75c-.48.16-.16.62-.33 1l.33.1c.07-.29.36-.5.56-.76a.45.45 0 0 1-.56-.34z" fill="#fff"></path><path d="M619.06 211.1c.06.25-.16.53.11.63a.3.3 0 0 1 .37-.21c-.09-.17-.26-.3-.27-.49z" fill="#fff"></path><path d="M629.4 209.36c-.18.24-.27.59-.52.71l.19.29c.31-.26.84-.07.83-.57a.46.46 0 0 1-.5-.43z" fill="#fff"></path><path d="M634.16 207a.38.38 0 0 1 0 .52c.22 0 .44-.16.65-.08v-.27c-.23-.1-.39-.5-.65-.17z" fill="#fff"></path><path d="M620.08 211.76l.07.08c.08-.09.26-.06.23-.2a.14.14 0 0 1-.17-.1c-.05.07-.07.17-.13.22z" fill="#fff"></path><path d="M642.2 208.82c0 .26-.17.4-.45.45.22.19.53.29.64.53l.28-.17c-.22-.31 0-.8-.47-.81z" fill="#fff"></path><path d="M625 200.93c-.21.1-.4.3-.62.31v.26c.33-.06.63.25.8-.1a.36.36 0 0 1-.18-.47z" fill="#fff"></path><path d="M633.48 229.05c-.21.09-.39.3-.62.29l.06.27c.31-.06.63.25.79-.1a.36.36 0 0 1-.23-.46z" fill="#fff"></path><path d="M631.62 205.92l.06.05c.06-.08.2-.08.16-.19a.1.1 0 0 1-.14-.05c-.04.07-.03.15-.08.19z" fill="#fff"></path><path d="M656 205.87a.5.5 0 0 1 .13 0v-.05c-.06 0-.06-.11-.13-.08s0 .1 0 .13z" fill="#fff"></path><path d="M656.73 210.84c-.49.17-.17.62-.34 1l.33.1c.07-.29.37-.49.55-.77a.42.42 0 0 1-.54-.33z" fill="#fff"></path><path d="M646.17 198.6c-.49.16-.17.62-.33 1l.33.1c.07-.29.36-.5.56-.76a.44.44 0 0 1-.56-.34z" fill="#fff"></path><path d="M414.67 184.6h.13c-.06 0-.06-.12-.14-.09a.07.07 0 0 1 .01.09z" fill="#fff"></path><path d="M415.43 189.58c-.49.16-.17.62-.34 1l.34.09c.06-.29.37-.49.55-.76a.43.43 0 0 1-.55-.33z" fill="#fff"></path><path d="M404.87 177.33c-.48.17-.16.62-.33 1l.33.11c.07-.29.36-.5.56-.77a.44.44 0 0 1-.56-.34z" fill="#fff"></path><path d="M284.84 261.89c.05.25-.17.53.1.64a.32.32 0 0 1 .37-.22c-.09-.17-.26-.3-.27-.48z" fill="#fff"></path><path d="M295.17 260.16c-.18.24-.27.58-.52.7l.19.29c.32-.25.84-.07.83-.57a.45.45 0 0 1-.5-.42z" fill="#fff"></path><path d="M299.93 257.74a.37.37 0 0 1 0 .52c.23 0 .44-.16.65-.08l.05-.27c-.28-.05-.44-.45-.7-.17z" fill="#fff"></path><path d="M281.4 249.27a.84.84 0 0 1 1.14.33c.15-.52.06-1.11.41-1.51l-.54-.32c-.41.64-1.41.72-1.01 1.5z" fill="#fff"></path><path d="M285.85 262.56l.07.07c.08-.09.26-.06.24-.2a.14.14 0 0 1-.18-.1c-.05.08-.06.17-.13.23z" fill="#fff"></path><path d="M308 259.61c0 .27-.17.41-.45.45.22.19.53.29.64.53l.28-.17c-.25-.31-.03-.8-.47-.81z" fill="#fff"></path><path d="M290.74 251.72c-.21.1-.4.3-.62.31l.05.26c.33-.06.63.25.8-.1a.36.36 0 0 1-.23-.47z" fill="#fff"></path><path d="M299.25 279.84c-.21.1-.38.3-.62.29l.06.27c.31-.06.63.25.79-.09a.38.38 0 0 1-.23-.47z" fill="#fff"></path><path d="M297.39 256.72h.07c.05-.08.19-.08.15-.19a.1.1 0 0 1-.14-.05c-.04.11-.03.19-.08.24z" fill="#fff"></path><path d="M197.38 284.54c.06.25-.17.53.11.64a.3.3 0 0 1 .37-.21c-.1-.17-.26-.3-.27-.49z" fill="#fff"></path><path d="M207.71 282.81c-.17.24-.26.58-.52.71l.2.28c.31-.25.84-.06.82-.56a.47.47 0 0 1-.5-.43z" fill="#fff"></path><path d="M212.47 280.4a.37.37 0 0 1 0 .52c.22 0 .44-.16.65-.09l.05-.26c-.27-.05-.43-.45-.7-.17z" fill="#fff"></path><path d="M136.85 200a.86.86 0 0 1 1.15.33c.14-.52.06-1.11.4-1.51l-.54-.32c-.36.62-1.37.7-1.01 1.5z" fill="#fff"></path><path d="M160.13 326.81a.86.86 0 0 1 1.15.33c.14-.53.06-1.12.4-1.52l-.54-.32c-.36.7-1.37.7-1.01 1.51z" fill="#fff"></path><path d="M198.39 285.21l.07.08c.09-.09.26-.06.24-.2a.15.15 0 0 1-.18-.11c-.04.08-.06.18-.13.23z" fill="#fff"></path><path d="M341.64 336.53c.06.25-.17.53.11.63a.3.3 0 0 1 .37-.21c-.1-.17-.26-.3-.27-.49z" fill="#fff"></path><path d="M352 334.79c-.17.25-.26.59-.52.71l.2.29c.31-.26.84-.07.82-.57a.47.47 0 0 1-.5-.43z" fill="#fff"></path><path d="M356.73 332.38a.37.37 0 0 1 0 .52c.22 0 .44-.16.65-.08l.05-.27c-.27-.05-.43-.45-.7-.17z" fill="#fff"></path><path d="M342.65 337.19l.07.08c.09-.09.27-.06.24-.2a.15.15 0 0 1-.18-.1c-.04.03-.06.17-.13.22z" fill="#fff"></path><path d="M258.73 292.34c-.21.1-.4.3-.62.31l.05.26c.33-.06.63.25.8-.1a.36.36 0 0 1-.23-.47z" fill="#fff"></path><path d="M211.44 231.34h.07c.05-.08.19-.08.15-.19a.1.1 0 0 1-.14 0c-.04.06-.03.14-.08.19z" fill="#fff"></path><path d="M264.22 256.65c-.11.14-.17.34-.33.42l.12.15c.2-.15.53 0 .52-.33a.27.27 0 0 1-.31-.24z" fill="#fff"></path><path d="M321.74 256.66a.42.42 0 0 1 .13 0v-.05c-.06 0-.06-.11-.13-.08a.07.07 0 0 1 0 .13z" fill="#fff"></path><path d="M322.5 261.64c-.49.16-.17.61-.34 1l.34.09c.06-.29.36-.49.54-.77a.42.42 0 0 1-.54-.32z" fill="#fff"></path><path d="M311.94 249.39c-.49.17-.17.62-.33 1l.33.1c.07-.29.36-.5.56-.76a.44.44 0 0 1-.56-.34z" fill="#fff"></path><path d="M416.86 284c.06.25-.16.52.11.63a.3.3 0 0 1 .37-.21c-.09-.17-.26-.3-.27-.49z" fill="#fff"></path><path d="M427.2 282.29c-.18.24-.27.58-.52.71l.19.28c.32-.25.84-.06.83-.56a.46.46 0 0 1-.5-.43z" fill="#fff"></path><path d="M432 279.88a.38.38 0 0 1 0 .52c.22 0 .44-.16.65-.09l.05-.26c-.32-.05-.48-.45-.7-.17z" fill="#fff"></path><path d="M413.43 271.41a.84.84 0 0 1 1.14.33c.15-.53.06-1.12.41-1.52l-.54-.31c-.37.64-1.38.72-1.01 1.5z" fill="#fff"></path><path d="M417.88 284.69l.07.08c.08-.09.26-.06.24-.2a.16.16 0 0 1-.19-.1c0 .07 0 .17-.12.22z" fill="#fff"></path><path d="M440 281.74c0 .27-.17.41-.45.45.22.2.53.3.64.54l.28-.17c-.22-.31 0-.8-.47-.82z" fill="#fff"></path><path d="M422.77 273.86c-.21.1-.4.3-.62.3l.05.27c.33-.06.63.24.8-.1a.36.36 0 0 1-.23-.47z" fill="#fff"></path><path d="M429.42 278.85h.07c.05-.07.19-.07.15-.18a.11.11 0 0 1-.14 0c-.04.05-.03.13-.08.18z" fill="#fff"></path><path d="M453.77 278.79h.13v-.05c-.06 0-.06-.11-.13-.09a.07.07 0 0 1 0 .14z" fill="#fff"></path><path d="M454.53 283.77c-.49.17-.17.62-.34 1l.33.09c.07-.28.37-.48.55-.76a.42.42 0 0 1-.54-.33z" fill="#fff"></path><path d="M444 271.52c-.49.17-.17.63-.33 1l.33.1c.07-.29.36-.5.56-.77a.44.44 0 0 1-.56-.33z" fill="#fff"></path><path d="M567.92 272.8c-.18.25-.27.59-.52.71l.2.29c.31-.26.83-.07.82-.57a.46.46 0 0 1-.5-.43z" fill="#fff"></path><path d="M572.68 270.39a.38.38 0 0 1 0 .52c.22 0 .44-.16.64-.08v-.27c-.21-.05-.32-.45-.64-.17z" fill="#fff"></path><path d="M549.16 309.25a.36.36 0 0 1 0 .51c.23 0 .44-.15.65-.08v-.27c-.22-.04-.39-.41-.65-.16z" fill="#fff"></path><path d="M580.65 278.57c0 .64-.41 1-1.09 1.08.53.46 1.27.71 1.55 1.29l.67-.41c-.53-.75 0-1.93-1.13-1.96z" fill="#fff"></path><path d="M563.5 264.37c-.22.1-.4.3-.62.31v.26c.32-.06.63.25.79-.1a.36.36 0 0 1-.17-.47z" fill="#fff"></path><path d="M570.14 269.37h.07c0-.08.19-.08.15-.19a.1.1 0 0 1-.14-.05c-.04.11-.03.19-.08.24z" fill="#fff"></path><path d="M613.8 271.46c.12 0 .25 0 .32.09l.08-.12c-.15-.08-.15-.27-.33-.21a.17.17 0 0 1-.07.24z" fill="#fff"></path><path d="M617.56 335.42c.12 0 .25 0 .32.08l.08-.12c-.14-.08-.14-.27-.33-.2a.17.17 0 0 1-.07.24z" fill="#fff"></path><path d="M615.64 283.45c-1.19.4-.42 1.49-.83 2.46l.82.22c.15-.7.88-1.18 1.31-1.84a1 1 0 0 1-1.3-.84z" fill="#fff"></path><path d="M609.2 226.1c-1.19.4-.42 1.49-.83 2.46l.81.21c.16-.69.89-1.17 1.32-1.83a1 1 0 0 1-1.3-.84z" fill="#fff"></path><path d="M154.49 204.73c.06.25-.17.53.11.64a.3.3 0 0 1 .37-.21c-.1-.17-.26-.3-.27-.49z" fill="#fff"></path><path d="M164.82 203c-.18.24-.27.58-.52.71l.2.28c.31-.25.84-.07.82-.57a.45.45 0 0 1-.5-.42z" fill="#fff"></path><path d="M169.58 200.59a.36.36 0 0 1 0 .51c.22 0 .44-.15.65-.08v-.26c-.23-.05-.38-.45-.65-.17z" fill="#fff"></path><path d="M155.5 205.4l.07.08c.09-.09.26-.06.24-.2a.15.15 0 0 1-.18-.11c-.04.08-.06.18-.13.23z" fill="#fff"></path><path d="M177.54 202.25a.47.47 0 0 1-.47.44c.21.19.52.3.63.55l.28-.16c-.21-.32.02-.81-.44-.83z" fill="#fff"></path><path d="M160.4 194.56c-.21.11-.4.3-.62.31l.05.27c.32-.06.63.24.79-.1a.37.37 0 0 1-.22-.48z" fill="#fff"></path><path d="M167.05 199.56h.06c.06-.08.19-.08.16-.19a.1.1 0 0 1-.14 0c-.04.06-.04.14-.08.19z" fill="#fff"></path><path d="M191.37 199.65a1.27 1.27 0 0 1 .14 0v-.05c-.06 0-.06-.11-.14-.08s.04.11 0 .13z" fill="#fff"></path><path d="M192 204.65c-.5.15-.19.61-.37 1l.33.1c.07-.28.38-.48.57-.75a.42.42 0 0 1-.53-.35z" fill="#fff"></path><path d="M181.77 192.13c-.49.16-.19.62-.36 1l.32.11c.08-.29.38-.49.58-.75a.43.43 0 0 1-.54-.36z" fill="#fff"></path><path d="M343 188.09c-.49.15-.18.62-.36 1l.33.11c.07-.28.37-.49.58-.75a.44.44 0 0 1-.55-.36z" fill="#fff"></path><path d="M144.63 219.73c-1.19.4-.42 1.49-.83 2.46l.81.22c.16-.69.89-1.17 1.32-1.84a1 1 0 0 1-1.3-.84z" fill="#fff"></path><path d="M540.42 306.19c-1.18.4-.41 1.49-.81 2.43l.79.25c.17-.69.88-1.2 1.35-1.84a1 1 0 0 1-1.33-.84z" fill="#fff"></path><path d="M653.29 105.43c1.84-1.12 3-3.71 3.22-8.52.45-11.45-2.19-23.46-2.64-35-.19-4.84 1.87-17.44-3.54-19.87-10.5-4.69-25 14.67-32.4 20.46-5.81 4.56-17.34 11.14-11.54 17.7 7.14 8.07 14.16 10.86 22.24 14.35 7.15 3.12 19.15 14.24 24.66 10.88z" fill="#fff"></path><path d="M415.55 84.39c-1.61-1.42-2.33-4.18-1.67-9 1.57-11.35 6.27-22.71 8.74-34 1-4.74 1.23-17.5 7-18.94 11.16-2.78 22.05 18.83 28.3 25.83 4.93 5.51 15.61 14.69 8.26 19.45-5.64 3.64-16.41 6.09-25 8.11-7.59 1.87-20.79 12.83-25.63 8.55z" fill="#fff"></path><path d="M451.14 108.82c.08.41.15.82.23 1.23 5.2-.8 10.4-.56 14.65 1.86 2.3.46 4.52 1 6.63 1.57l.51-.49c-5.94-4.22-14.06-5.21-22.02-4.17z"></path><path d="M438.69 116.37a22.33 22.33 0 0 0-6 3.46 34.67 34.67 0 0 1 6-3.46z"></path><path d="M467.66 113a7.18 7.18 0 0 1 2.73 2.65l2.26-2.18c-2.11-.57-4.33-1.11-6.63-1.57a17.38 17.38 0 0 1 1.64 1.1z"></path><path d="M450 110.29c.47-.09.93-.17 1.4-.24-.08-.41-.15-.82-.23-1.23q-1 .14-1.95.3a2.16 2.16 0 0 0 .78 1.17z"></path><path d="M449.19 109.12a50.86 50.86 0 0 0-11.89 3.6 38.33 38.33 0 0 1 12-2.3l.67-.13a2.16 2.16 0 0 1-.78-1.17z"></path><path d="M450.8 107a1.73 1.73 0 0 0-1.61 2.15q1-.16 1.95-.3c-.14-.64-.22-1.26-.34-1.85z"></path><path d="M467.66 113a15.16 15.16 0 0 1 2.72 2.66 7.18 7.18 0 0 0-2.72-2.66z"></path><path d="M473.16 113c-6.36-4.89-14.39-6.18-22.39-6 .12.62.23 1.24.34 1.85 7.99-1.07 16.11-.08 22.05 4.15z"></path><path d="M470.7 116.2l.1-.1-.27-.2c.05.1.12.2.17.3z"></path><path d="M464.27 111.58a15.29 15.29 0 0 1 3.39 1.43 17.38 17.38 0 0 0-1.64-1.1z"></path><path d="M434.32 114.18a2 2 0 0 0 2.16.34 72.79 72.79 0 0 1 12.82-4.1 38.33 38.33 0 0 0-12 2.3c-1.03.46-2.03.95-2.98 1.46z"></path><path d="M432.71 119.83l-2.61-3c-1.97 1.61.53 4.53 2.61 3z"></path><path d="M451.37 110.05l.06.32q1.71 0 3.42.09a31.45 31.45 0 0 1 9.42 1.12l1.75.33c-4.25-2.42-9.45-2.66-14.65-1.86z"></path><path d="M473.31 113.66l-2.47 2.4a2 2 0 0 0 2.74-2.77l-.4-.28-.51.49z"></path><path d="M454.85 110.46a75 75 0 0 1 9.42 1.12 31.45 31.45 0 0 0-9.42-1.12z"></path><path d="M449.3 110.42h.83l-.16-.1z"></path><path d="M473.79 113.43a10.78 10.78 0 0 0-3.41-3.3 19.25 19.25 0 0 1 3.15 3.11 1.88 1.88 0 0 0 .26.19z"></path><path d="M449.19 109.12a1.73 1.73 0 0 1 1.61-2.12c5.29-.89 14.18-.26 19.61 3.19-9.81-7.66-25-3.53-35.65.86a1.81 1.81 0 0 0-.53 3.09 28.26 28.26 0 0 1 3.07-1.39 50.86 50.86 0 0 1 11.89-3.63z"></path><path d="M450.8 107c8-.2 16 1.09 22.39 6l.4.28a19.25 19.25 0 0 0-3.15-3.11c-5.44-3.46-14.35-4.09-19.64-3.17z"></path><path d="M437.3 112.72a28.26 28.26 0 0 0-3.07 1.39l.09.07c.95-.51 1.95-1 2.98-1.46z"></path><path d="M434.23 114.11a25 25 0 0 0-4.13 2.72 35.79 35.79 0 0 1 4.22-2.65z"></path><path d="M471.36 116.5c-.18-.14-.37-.27-.56-.4l-.1.1c-.05-.1-.12-.2-.17-.3-8.5-5.75-22.12-4-31.84.47 10-4 23.25-1.91 33.14.84a2 2 0 0 0 2.73-2.12 2 2 0 0 1-3.2 1.41z"></path><path d="M470.53 115.9l-.06-.1c-5.42-4-12.19-5.22-19-5a2.39 2.39 0 0 1-1.37-.36h-.83a72.79 72.79 0 0 0-12.82 4.1 2 2 0 0 1-2.16-.34 35.79 35.79 0 0 0-4.22 2.65l2.61 3a22.33 22.33 0 0 1 6-3.46c9.73-4.5 23.32-6.24 31.85-.49z"></path><path d="M470.77 116l-.3-.21.06.1.27.2z"></path><path d="M451.43 110.37c0 .13.05.26.07.38a23.9 23.9 0 0 1 3.35-.29q-1.71-.09-3.42-.09z"></path><path d="M450.13 110.39a2.39 2.39 0 0 0 1.37.36c0-.12 0-.25-.07-.38z"></path><path d="M473.56 113.27a2 2 0 0 1-2.74 2.77c.19.13.38.26.56.4a2 2 0 0 0 3.2-1.41 3.25 3.25 0 0 0-.11-.42 9.26 9.26 0 0 0-.63-1.21 1.88 1.88 0 0 1-.28-.13z"></path><path d="M470.38 115.67a10 10 0 0 0-6.11-4.09 75 75 0 0 0-9.42-1.12 23.9 23.9 0 0 0-3.35.29c6.78-.17 13.55 1 19 5a1 1 0 0 0-.08-.14z"></path><path d="M474.56 115.09a1.84 1.84 0 0 0-.74-1.63 9.26 9.26 0 0 1 .63 1.21 3.25 3.25 0 0 1 .11.42z"></path><path d="M451.37 110.05c-.47.07-.93.15-1.4.24l.16.1h1.3z"></path><path d="M470.84 116.06l2.47-2.4-.66-.18-2.26 2.18a1 1 0 0 1 .08.14l.3.21z"></path><path d="M615.55 304c-20.22 1.89-37.29 13.92-41.44 32.75 0 0 2.74.23 4.06.35 2.47-8.68 7.42-16.59 14.88-21.8 6.73-4.69 15-6.73 23.05-7.72a1.81 1.81 0 1 0-.55-3.58z" fill="#fff"></path><path d="M172.24 259.82c-1.2-8.92-6.9-16.28-18.83-16.81-7.29-.33-14.62 7.9-18.18 15.41-4.82 10.18-6.3 26 4.94 32 19.42 10.47 34.44-13.07 32.07-30.6z" fill="#aaacae"></path></g></g></g></svg>