<svg xmlns="http://www.w3.org/2000/svg" viewBox="0 -0.003524273633956909 2091.469970703125 1609.58349609375" style=""><g><g data-name="Layer 2"><g data-name="Layer 1"><ellipse cx="1139.2" cy="1497.96" rx="907.01" ry="111.62" fill="#61bff1"></ellipse><path d="M1430 1410a11.53 11.53 0 0 1-10.2-12.67l44.86-444.74a11.46 11.46 0 0 1 12.52-10.33 11.52 11.52 0 0 1 10.2 12.67l-44.86 444.75A11.45 11.45 0 0 1 1430 1410z" fill="#d04025"></path><path d="M1730.56 1410a11.53 11.53 0 0 0 10.2-12.67l-44.87-444.73a11.45 11.45 0 0 0-12.51-10.33 11.52 11.52 0 0 0-10.2 12.67l44.82 444.75a11.45 11.45 0 0 0 12.56 10.31z" fill="#d04025"></path><rect x="1448.13" y="928.17" width="263.63" height="58.26" rx="10.16" fill="#d04025"></rect><path fill="#d04025" d="M1450.12 1224.38h263.63v29.13h-263.63z"></path><path fill="#d04025" d="M1455.25 1074.85h243.18v29.13h-243.18z"></path><path d="M1635.44 986.52h-151.35c-2.73 0-3.07 4.3-.33 4.3h151.35c2.72 0 3.07-4.3.33-4.3z" fill="#2c2b3c"></path><path d="M1697.51 986.52h-47.62c-2.72 0-3.06 4.3-.32 4.3h47.61c2.73 0 3.07-4.3.33-4.3z" fill="#2c2b3c"></path><path d="M1686.46 1100.12h-34.87c-2.72 0-3.06 4.29-.32 4.29h34.86c2.72 0 3.06-4.29.33-4.29z" fill="#2c2b3c"></path><path d="M1701.76 1250.73h-243.18c-2.72 0-3.07 4.29-.33 4.29h243.19c2.72-.02 3.06-4.29.32-4.29z" fill="#2c2b3c"></path><path d="M1637.14 1100.12H1473c-2.72 0-3.06 4.29-.32 4.29h164.1c2.76 0 3.1-4.29.36-4.29z" fill="#2c2b3c"></path><path d="M1387.44 1411.91c-.22 2.91-20.09 43-20.09 43l-45.11-14.23 20.78-71.22z" fill="#ff894a"></path><path d="M1373.66 1463.41l.2-.59c1.5-4.55 4.24-10.82 3.18-15.92a9 9 0 0 0-1.16-2.94 21.91 21.91 0 0 0-1.66-2 2.59 2.59 0 0 0-.35-.38c-1.1-1-2.2-.43-3.41.91-1.71 1.88-3.65 5.22-6.18 7.44-.06-2.41-2.17-6.2-5-9.69a36.7 36.7 0 0 0-6-6.06 13.41 13.41 0 0 0-3.28-2c-5.19-2-18.85 1-22.44 4.22-2-3.44-.12-7.45-1.53-8.86-.48-.48-1.35-.65-2.88-.4a7.94 7.94 0 0 0-2.28.75 9 9 0 0 0-3 2.36 15.4 15.4 0 0 0-1.72 2.5 97.44 97.44 0 0 0-6 14c-5.89 15.91-18.57 49.59 31.09 55.57 18.59 2.29 28-24.98 32.42-38.91z" fill="#2c2b3c"></path><path d="M1354.07 1490.39a1.16 1.16 0 0 0 .52-.59 57.31 57.31 0 0 0 5.83-9.06q6.67-11.87 12.32-24.17 2.23-4.8 4.3-9.67a9 9 0 0 0-1.16-2.94q-1.83 4.39-3.79 8.74-5.94 13.23-13 25.93a83 83 0 0 1-5.11 8.8c-2.81-6.94-9-12.21-16.42-14.61-8.37-2.72-17.37-1.66-25.49 1.16a21.83 21.83 0 0 1-.22-10.09c2.18-12.1 5.56-24.1 9.05-35.92a9 9 0 0 0-3 2.36c-2.87 10.06-5.47 20.21-7.7 30.42-1.14 5.2-1.41 10.09.09 14.52a1.19 1.19 0 0 0 .23.69 19.19 19.19 0 0 0 5.78 7.87 50.17 50.17 0 0 0 11.54 6.89c4.31 2 8.89 4.18 13.7 4.69 5.59.59 9.46-1.65 12.53-5.02zm-24.32-1.13c-5.17-2.34-10.57-5-14.33-9.27a15.51 15.51 0 0 1-2.61-4c14.53-5 34.14-2.73 39.56 13.4a12.82 12.82 0 0 1-4.73 3.32c-5.88 2.29-12.58-1.04-17.89-3.45z" fill="#ff7270"></path><path d="M1348.51 1462.86a26.93 26.93 0 0 0-18.84-4.69 1.05 1.05 0 1 0 .26 2.09 24.46 24.46 0 0 1 17.19 4.23c1.16.8 2.55-.83 1.39-1.63z" fill="#ff7270"></path><path d="M1350.13 1456.38a33.19 33.19 0 0 0-3.47-1.86 55.63 55.63 0 0 0 6.37-4.1 18.29 18.29 0 0 0 5-5.69 12 12 0 0 0 1.33-4.45 5.68 5.68 0 0 0-1.86-5.1 4.61 4.61 0 0 0-4.15-1 9.39 9.39 0 0 0-4.56 2.9 28 28 0 0 0-5.56 10.19c-.12.39-.23.78-.34 1.17v-1.29a11.63 11.63 0 0 0-1.07-4.19c-1.33-2.8-4.35-5.42-7.75-4.4-2.89.87-3.53 2.72-3 4.86.68 2.74 3.3 5.94 5.57 8.08a35.48 35.48 0 0 0-4.28-.3c-1.42 0-1.14 2.08.26 2.09a31.44 31.44 0 0 1 16.21 4.68c1.11.77 2.5-.85 1.3-1.59zm-14.55-8.76a16.43 16.43 0 0 1-1.91-3.31c-.79-1.94-.88-3.89 1.89-3.78 3 .12 4.55 3.5 5 5.94v.08a15.24 15.24 0 0 1-.24 5.3 18.41 18.41 0 0 1-4.74-4.23zm8.11 5.67a1 1 0 0 0 .48-.71 32.85 32.85 0 0 1 1.13-4.6 28.29 28.29 0 0 1 1.94-4.66c1.26-2.36 7.33-11.62 9.73-4.72 1.49 4.31-2.4 8.17-6.47 11-2 1.37-4 2.5-5.42 3.34a.87.87 0 0 0-.48.66c-.3-.1-.6-.21-.91-.31z" fill="#ff7270"></path><path d="M1743 1410.5c.22 2.9 20.09 43 20.09 43l45.11-14.22-20.78-71.23z" fill="#ff894a"></path><path d="M1789.14 1501c49.67-6 37-39.65 31.1-55.57a100.78 100.78 0 0 0-6-14 16.38 16.38 0 0 0-1.73-2.5 9.23 9.23 0 0 0-2.94-2.36 7.94 7.94 0 0 0-2.28-.75c-1.53-.25-2.4-.07-2.88.4-1.42 1.41.48 5.42-1.54 8.86-3.58-3.24-17.24-6.19-22.43-4.21a13.64 13.64 0 0 0-3.29 2 36.28 36.28 0 0 0-6 6.06c-2.79 3.49-4.9 7.28-5 9.68-2.53-2.21-4.47-5.55-6.18-7.44-1.22-1.33-2.31-1.94-3.41-.91a3.46 3.46 0 0 0-.36.39 22 22 0 0 0-1.65 2 8.75 8.75 0 0 0-1.17 2.93c-1 5.11 1.68 11.37 3.19 15.92l.19.59c4.42 13.84 13.83 41.1 32.38 38.91z" fill="#2c2b3c"></path><path d="M1788.82 1494c4.81-.52 9.4-2.7 13.71-4.69a51.11 51.11 0 0 0 11.54-6.89 19.28 19.28 0 0 0 5.78-7.88 1.11 1.11 0 0 0 .22-.68c1.51-4.43 1.23-9.32.1-14.52-2.23-10.22-4.83-20.36-7.71-30.43a9.23 9.23 0 0 0-2.94-2.36c3.49 11.83 6.87 23.83 9 35.92a21.87 21.87 0 0 1-.23 10.1c-8.11-2.83-17.12-3.88-25.49-1.16-7.38 2.39-13.6 7.67-16.42 14.6a82.06 82.06 0 0 1-5.1-8.79q-7.07-12.69-13-25.93-2-4.35-3.78-8.74a8.75 8.75 0 0 0-1.17 2.93q2.09 4.88 4.3 9.68 5.65 12.3 12.32 24.17a57.53 57.53 0 0 0 5.84 9.05 1.1 1.1 0 0 0 .51.59c3.1 3.37 6.99 5.63 12.52 5.03zm-6-2.72a13 13 0 0 1-4.82-3.28c5.43-16.13 25-18.38 39.57-13.41a15.35 15.35 0 0 1-2.61 4c-3.77 4.24-9.16 6.94-14.33 9.28-5.28 2.38-11.98 5.69-17.85 3.42z" fill="#ff7270"></path><path d="M1781.91 1461.45a26.93 26.93 0 0 1 18.84-4.7 1.06 1.06 0 1 1-.27 2.1 24.53 24.53 0 0 0-17.19 4.22c-1.15.8-2.54-.82-1.38-1.62z" fill="#ff7270"></path><path d="M1781.67 1456.6a31.23 31.23 0 0 1 16.21-4.68c1.4 0 1.67-2.12.26-2.1a35.33 35.33 0 0 0-4.28.31c2.27-2.14 4.89-5.34 5.56-8.08.55-2.14-.09-4-3-4.86-3.41-1-6.42 1.6-7.76 4.39a12.11 12.11 0 0 0-1.07 4.19v1.3c-.11-.39-.23-.78-.35-1.17a27.72 27.72 0 0 0-5.56-10.19 9.27 9.27 0 0 0-4.56-2.9 4.58 4.58 0 0 0-4.15 1 5.67 5.67 0 0 0-1.85 5.11 11.79 11.79 0 0 0 1.33 4.44 17.82 17.82 0 0 0 5 5.69 53.37 53.37 0 0 0 6.36 4.1 36.44 36.44 0 0 0-3.47 1.87c-1.26.68.14 2.3 1.33 1.58zm8.47-6.17a15.3 15.3 0 0 1-.25-5.31v-.07c.4-2.45 1.94-5.83 4.94-5.94 2.78-.11 2.69 1.84 1.9 3.78a15.55 15.55 0 0 1-1.92 3.3 18.59 18.59 0 0 1-4.67 4.24zm-4.32 1.78a.91.91 0 0 0-.48-.67c-1.46-.83-3.46-2-5.42-3.34-4.08-2.85-8-6.7-6.47-11 2.4-6.91 8.47 2.35 9.72 4.71a29.08 29.08 0 0 1 1.95 4.66 34.08 34.08 0 0 1 1.13 4.61 1 1 0 0 0 .47.7z" fill="#ff7270"></path><path d="M1691 919.78s68.83 9.36 85-73.5-387.5-28.73-387.5-28.73-29.77 79.53 42.23 105 210.66 4.43 210.66 4.43z" fill="#baab34"></path><path d="M1402.61 891.9l-94 520 100.79 17.43L1562.9 922s-63-93.62-160.29-30.1z" fill="#baab34"></path><path d="M1727.25 893.36l92 520-98.7 17.43-150.26-507.33s61.71-93.62 156.96-30.1z" fill="#baab34"></path><path d="M1509.79 894.14c-1.66 16-18.87 23.41-33.22 23.25-14.67-.18-29.37-9.52-30.72-25.12-.22-2.53-4.22-2.69-4-.12 1.54 17.79 17.52 29 34.61 29.23 16.72.22 35.44-8.85 37.33-27.12.27-2.56-3.73-2.67-4-.12z" fill="#2c2b3c"></path><path d="M1408 1426.13c-32.59-4.15-65.71-7.1-97.45-15.94-2.47-.69-3.63 3.14-1.14 3.83 32.07 8.94 65.55 11.92 98.47 16.1 2.55.33 2.66-3.67.12-3.99z" fill="#2c2b3c"></path><path d="M1817.55 1412.15l-94.55 17.48c-2.54.47-1.63 4.37.9 3.9l94.53-17.48c2.57-.47 1.65-4.37-.88-3.9z" fill="#2c2b3c"></path><path d="M1725.69 871.9c-1.57-2-4.5.68-3 2.71a35.56 35.56 0 0 1 7.38 23.55c-.11 2.57 3.89 2.7 4 .12a40 40 0 0 0-8.38-26.38z" fill="#2c2b3c"></path><path d="M1406.44 871.16a28.69 28.69 0 0 0-8.78 18.3c-.23 2.56 3.77 2.68 4 .12a24.21 24.21 0 0 1 7.49-15.47c1.85-1.79-.85-4.73-2.71-2.95z" fill="#2c2b3c"></path><path d="M1588 872.75a65.93 65.93 0 0 0-18.61 43.4c-.11 2.58 3.89 2.7 4 .12a61.7 61.7 0 0 1 17.33-40.57c1.79-1.85-.92-4.8-2.72-2.95z" fill="#2c2b3c"></path><path d="M1561.65 886.77a38.13 38.13 0 0 0-10.49-14.71c-1.93-1.67-4.89 1-3 2.7a35.75 35.75 0 0 1 9.9 13.87c1.01 2.37 4.54.51 3.59-1.86z" fill="#2c2b3c"></path><path d="M1689.05 887.26c1.24 16-14.37 26.42-28.51 28.82-14.47 2.47-30.61-4.09-34.73-19.2-.67-2.45-4.63-1.88-4 .6 4.69 17.23 22.43 25.4 39.28 22.56 16.49-2.78 33.28-15.06 31.87-33.38-.15-2.57-4.1-1.96-3.91.6z" fill="#2c2b3c"></path><path fill="#d04025" d="M2091.47 771.07H0l91.54-82.18 1894.57-3.23 105.36 85.41z"></path><path d="M1651 686.71h188.56a254.07 254.07 0 0 0 12.85-17.27c41.68-61.2 189.94-302.55-90.74-579.82-3.72-3.68-9.24 5.12-13.79 7.72q-12.9 7.41-25.64 15.11c-8.48 5.15-14.56 14.1-14 15.1 15.63 27.63 53.13 105.66 45 182a99.58 99.58 0 0 1-40 70.41c-23.17 17.38-51.48 25.62-79.84 29.44-36.77 5-74.41 4.53-111.44 5.83-2.56.09-2.7 4.09-.12 4l5.92-.2c-94.66 9.69-186.69 48.61-258.32 111.47-34.08 29.9-67 71-65.39 118.89.72 21.37 9 42.86 26.73 55.7 19.65 14.21 46.91 17.33 70.47 18.11a172.71 172.71 0 0 0 44.31-4c14.74-3.38 28.53-9.49 42.48-15.15 30.41-12.33 62.35-17.49 95-13.44a1.75 1.75 0 0 0 1.93-2.22c34.47-4.88 68.51-21.58 103.54-12.85 17.79 4.43 33.86 13.64 50.65 20.71 3.88 1.63 7.81 3.16 11.76 4.61z" fill="#2c2b3c"></path><path d="M1499.67 338.25a3.29 3.29 0 0 0 2.8 3.78 291.06 291.06 0 0 1 62.23 17.84 3.41 3.41 0 0 0 3.15-.21 3.51 3.51 0 0 0 4.06-2.75A141 141 0 0 0 1557.8 258c-5.17-9.25-13.54-23.18-26.15-16.68-11.94 6.15-10.94 19.85-12.26 31.59-5.33-4.26-11.33-7.78-18.41-7.51-7.47.29-13.12 4.82-15.6 11.71-3.09 8.59-1 18.65 1 27.22a129.52 129.52 0 0 0 13.29 33.92z" fill="#2f52ef"></path><path d="M1488.05 332.39c17.42-40.33 80.49-25.63 80.77 17.4a16.83 16.83 0 0 1 1.67.31c6.24 1.47 12.08 6 14 12.28a16.7 16.7 0 0 1-7 18.8c-7 4.65-15.3 3.54-22.87 1.19a42.74 42.74 0 0 1-25.31 11.57c-21 1.91-44.22-13-46.72-34-1.95-16.42 3.93-24 5.46-27.55z" fill="#ff894a"></path><path d="M1512.49 430.38c10 11.41 33 8.12 47.07 4.72a11.36 11.36 0 0 0 8.09-14.56c-3.22-9.93-8-24.37-11.57-34.68-.64-1.88-1.24-3.61-1.8-5.15a58.46 58.46 0 0 0-2.87-7.21l-44.49-12z" fill="#ff894a"></path><path d="M1503.69 343.79a11.26 11.26 0 0 0 7.62-8.2c.71-3.13 5.67-2.37 5 .79a16.34 16.34 0 0 1-10.73 12.07c-3.1 1.01-4.96-3.65-1.89-4.66z" fill="#2c2b3c"></path><path d="M1525.25 341.58c4.09-1.27 6.59 4.94 2.48 6.22s-6.59-4.94-2.48-6.22z" fill="#2c2b3c"></path><path d="M1500.58 332.62c4.09-1.27 6.59 4.94 2.47 6.22s-6.58-4.94-2.47-6.22z" fill="#2c2b3c"></path><path d="M1533.66 332.7a16.79 16.79 0 0 1 6 7.69c1.17 3-3.49 4.86-4.66 1.85a12 12 0 0 0-4.48-5.63c-2.64-1.86.48-5.76 3.14-3.91z" fill="#2c2b3c"></path><path d="M1500.4 322.73a11.32 11.32 0 0 1 11.13-.74c2.89 1.42.86 6-2 4.58a6.18 6.18 0 0 0-6.09.18c-2.77 1.71-5.77-2.3-3.04-4.02z" fill="#2c2b3c"></path><path d="M1498 354.37a15.88 15.88 0 0 0 19.16 4.62c2.94-1.34 4.78 3.33 1.85 4.66a20.94 20.94 0 0 1-25-6.29c-2.01-2.55 1.99-5.53 3.99-2.99z" fill="#2c2b3c"></path><path d="M1525.92 397.58a59.43 59.43 0 0 0 30.16-11.72c-.64-1.88-1.24-3.61-1.8-5.15a2.55 2.55 0 0 0-1.43.57 53.58 53.58 0 0 1-27.53 10.7c-3.62.36-2.98 5.93.6 5.6z" fill="#2c2b3c"></path><path d="M1565.47 358.08a9.89 9.89 0 0 1 12.06 3.86c2.52 4.2 1.22 9.29-2.25 12.46-2.67 2.44-6-2.1-3.35-4.52 3.45-3.14-.3-8.16-4.38-6.58-3.38 1.31-5.45-3.92-2.08-5.22z" fill="#2c2b3c"></path><path d="M1346.66 602a59.23 59.23 0 0 0-46.25-24.87c-2.57-.09-2.69 3.91-.11 4a55.2 55.2 0 0 1 35.18 14.3c-21.41-10.24-47.78-8.86-67.78 4.45-2.12 1.42-.28 5 1.86 3.54a65.58 65.58 0 0 1 73.86 1.35 2 2 0 0 0 .59.28c1.54 1.39 3.99-1.13 2.65-3.05z" fill="#2fa4ef"></path><path d="M1701.89 484.37a215.56 215.56 0 0 0-36.3-61.31c-1.67-2-4.6.75-2.95 2.71a212.4 212.4 0 0 1 35.71 60.46c.92 2.4 4.45.52 3.54-1.86z" fill="#2fa4ef"></path><path d="M1436.08 452.31c-1.26-2.25-4.8-.39-3.54 1.86a84.46 84.46 0 0 1 10.86 41c0 2.57 4 2.71 4 .12a88.68 88.68 0 0 0-11.32-42.98z" fill="#2fa4ef"></path><path d="M1767.46 7.21a2.75 2.75 0 0 0-2.69-.73 9 9 0 0 0-4.71 3.92 14.1 14.1 0 0 0-6-6.82c-5.15-2.83-8.12.42-9.83 5.38-1.2-3.91-3.08-7.59-6.33-8.6-5.68-1.79-8.15 3.26-9 10.11-2.17-4.92-5.21-7.88-9.48-6.53a6.84 6.84 0 0 0-3.4 2.4c-3.12 4-3.12 11.27-3.14 15.31 0 6.89 1.81 28.19 1.8 29.15-.27-.3-11-13.77-15.59 1-4.2 13.32-1.14 31.53.89 45 1.38 9.24 2.28 22.5 8.34 30.75a3.14 3.14 0 0 0 .37.49 18.54 18.54 0 0 0 4 3.9c21.71 15.08 46.58 7 55.72-16.92 3.82-10 5.3-27.66 5.37-45.84.06-28.5-3.27-58.27-6.32-61.97z" fill="#ff894a"></path><path d="M1756.45 28.87a3.44 3.44 0 0 1-.22-.38c.45 1.26.43 1.13.22.38z" fill="#ff894a"></path><path d="M1724.68 84c-1.86-2.11-5 1-3.09 3.07a32 32 0 0 1 7.87 25.19c-.31 2.79 4.06 2.73 4.36 0a36.18 36.18 0 0 0-9.14-28.26z" fill="#2c2b3c"></path><path d="M1725 23.64l.7 18.16c.11 2.79 4.47 2.77 4.36 0l-.7-18.16c-.08-2.84-4.44-2.82-4.36 0z" fill="#2c2b3c"></path><path d="M1740.25 22.32l.68 17.44c.1 2.79 4.47 2.77 4.36 0l-.67-17.44c-.11-2.83-4.47-2.81-4.37 0z" fill="#2c2b3c"></path><path d="M1756.32 23.89L1757 42c.11 2.8 4.47 2.78 4.36 0l-.7-18.16c-.09-2.79-4.45-2.77-4.34.05z" fill="#2c2b3c"></path><path d="M1761.77 56.11c-10.84-6.76-23.49-5.18-35.5-3.2-2.77.46-1.6 4.66 1.15 4.21 10.85-1.79 22.36-3.35 32.18 2.77 2.4 1.49 4.54-2.3 2.17-3.78z" fill="#2c2b3c"></path><path d="M1717.91 58.28c-1-2.61-5.17-1.49-4.21 1.15a26.31 26.31 0 0 1 0 18.48c-1 2.64 3.28 3.71 4.23 1.08a30 30 0 0 0-.02-20.71z" fill="#2c2b3c"></path><path d="M1821.75 326a30.34 30.34 0 0 0-23.74-3.37c-2.49.66-1.6 4.56.9 3.89a26.3 26.3 0 0 1 20.72 2.87c2.2 1.31 4.37-2.08 2.12-3.39z" fill="#2fa4ef"></path><path fill="#d04025" d="M0 771.07h2091.47v92.96H0z"></path><path d="M152.29 1497.4c-12.84-.92-22.18-9-20.87-18l91.78-632.82c1.31-9 12.77-15.61 25.6-14.69 12.84.92 22.18 9 20.87 18l-91.78 632.79c-1.31 9.06-12.77 15.64-25.6 14.72z" fill="#d04025"></path><path d="M1973.13 1482.58c12.83-.93 22.17-9 20.86-18l-91.77-632.79c-1.31-9-12.78-15.61-25.61-14.69-12.84.92-22.18 9-20.87 18l91.78 632.79c1.31 9.03 12.77 15.61 25.61 14.69z" fill="#d04025"></path><path d="M887.3 860.4H3.84c-4 0-4.53 4.54-.48 4.54h262.36a1.84 1.84 0 0 0-.27.71l-29.34 199.09q-4.14 28-8.27 56.11c-.43 2.92 5.84 3.26 6.27.35l29.34-199.09q4.14-28.11 8.27-56.11a1.62 1.62 0 0 0-.19-1.06h615.28c4.03 0 4.53-4.54.49-4.54z" fill="#2c2b3c"></path><path d="M1767.72 859.49h-233.94c-4 0-4.54 4.54-.49 4.54h233.94c4.03-.03 4.54-4.54.49-4.54z" fill="#2c2b3c"></path><path d="M2070.83 860.4h-263.15c-4 0-4.53 4.54-.48 4.54h95.14l26.7 190.35c.41 2.91 6.58 2 6.18-.87l-26.58-189.48h161.71c4.03 0 4.53-4.54.48-4.54z" fill="#2c2b3c"></path><path d="M197.45 1315.91L173 1476c-.44 2.92 5.83 3.26 6.27.35q12.24-80 24.46-160.07c.44-2.94-5.83-3.28-6.28-.37z" fill="#2c2b3c"></path><path d="M1948.56 1205.1q12.9 80 25.78 160c.47 2.91 6.69 2.23 6.23-.67q-12.9-80-25.78-160c-.48-2.92-6.69-2.24-6.23.67z" fill="#2c2b3c"></path><path d="M959.64 761.55l-366 2.72c-8.38 0-12-17.14-9.59-24.87L629 694.64a12.46 12.46 0 0 1 12-8.64h263.67a12.07 12.07 0 0 1 11.68 9l50.47 41.2c2.18 7.63 2.64 22.3-7.18 25.35z" fill="#a2a2a2"></path><path d="M895.35 674.33H647.48a16.18 16.18 0 0 1-16.32-16l-9.43-132.93a16.17 16.17 0 0 1 16.32-16l267.95-.88a16.17 16.17 0 0 1 16.31 16l-10.64 133.77a16.18 16.18 0 0 1-16.32 16.04z" fill="#b8b8b8"></path><path d="M908.38 537.18l-10.63 104.53a15.88 15.88 0 0 1-.34 3.26 16.25 16.25 0 0 1-16 12.77H661.93a16.18 16.18 0 0 1-16.32-16l-.86-9.46-8.57-94.28a16.18 16.18 0 0 1 16.32-16l201.82-.71h3.24l34.51-.12a16.17 16.17 0 0 1 16.31 16.01z" fill="#cceef0"></path><path d="M956.24 749.85l-359.92 2.72c-8.21 0-14.57-5.44-12.24-13.17 0 0 56.17-67.3 61.59-67.3l253.44.14c5.53 0 67.71 64 67.71 64 2.12 7.59-2.52 13.59-10.58 13.61z" fill="#b8b8b8"></path><path d="M811.22 747.05h-81.65a2.74 2.74 0 0 1-2.55-4.26l5.78-15.35a4.27 4.27 0 0 1 3.64-2.37h68.66a4.33 4.33 0 0 1 3.69 2.44l5 15.35a2.73 2.73 0 0 1-2.57 4.19z" fill="#a2a2a2"></path><path d="M799.62 718.52H695.55a.83.83 0 0 1-.83-1.14l1.29-4.5a1.61 1.61 0 0 1 1.44-1.14h101.23a1.34 1.34 0 0 1 1.28 1.14l.65 4.5a1 1 0 0 1-.99 1.14z" fill="#2c2b3c"></path><path d="M824.76 718.52H810a1.42 1.42 0 0 1-1.35-1.14l-.8-4.5a.92.92 0 0 1 .92-1.14h14.33a1.53 1.53 0 0 1 1.4 1.14l1.1 4.5a.86.86 0 0 1-.84 1.14z" fill="#2c2b3c"></path><path d="M849.49 718.52h-14.74a1.61 1.61 0 0 1-1.46-1.14l-1.25-4.5a.84.84 0 0 1 .81-1.14h14.33a1.73 1.73 0 0 1 1.51 1.14l1.55 4.5a.79.79 0 0 1-.75 1.14z" fill="#2c2b3c"></path><path d="M899.14 718.52h-14.73a2.09 2.09 0 0 1-1.7-1.14l-2.14-4.5c-.3-.63 0-1.14.58-1.14h14.33a2.24 2.24 0 0 1 1.74 1.14l2.45 4.5c.33.62.11 1.14-.53 1.14z" fill="#2c2b3c"></path><path d="M878 718.52h-14.77a1.88 1.88 0 0 1-1.6-1.14l-.82-2.09c-.24-.63.06-1.14.69-1.14H876a2 2 0 0 1 1.66 1.14l1 2.09c.22.62-.06 1.14-.66 1.14z" fill="#2c2b3c"></path><path d="M921 718.52h-14.77a2.31 2.31 0 0 1-1.79-1.14l-1.18-2.09c-.36-.63-.14-1.14.48-1.14h14.48a2.53 2.53 0 0 1 1.85 1.14l1.32 2.09c.4.62.21 1.14-.39 1.14z" fill="#2c2b3c"></path><path d="M908.14 699.1h-13.58a2.24 2.24 0 0 1-1.7-1.14l-2-3.58c-.36-.63-.18-1.14.39-1.14h13.23a2.43 2.43 0 0 1 1.75 1.14l2.26 3.58c.39.63.23 1.14-.35 1.14z" fill="#2c2b3c"></path><path d="M862.6 698.64h-13.55a1.73 1.73 0 0 1-1.47-1.14l-1.3-3.58c-.23-.63 0-1.14.61-1.14h13.21a1.88 1.88 0 0 1 1.52 1.14l1.55 3.58c.27.63.02 1.14-.57 1.14z" fill="#2c2b3c"></path><path d="M820 698.64h-13.57a1.38 1.38 0 0 1-1.26-1.14l-.63-3.58a.89.89 0 0 1 .83-1.14h13.21a1.49 1.49 0 0 1 1.31 1.14l.87 3.58a.83.83 0 0 1-.76 1.14z" fill="#2c2b3c"></path><path d="M774.31 698.64h-13.55a1.08 1.08 0 0 1-1-1.14l.09-3.58a1.13 1.13 0 0 1 1.06-1.14h13.2a1.16 1.16 0 0 1 1.09 1.14l.16 3.58a1.05 1.05 0 0 1-1.05 1.14z" fill="#2c2b3c"></path><path d="M730.48 698.64h-13.56a.87.87 0 0 1-.81-1.14l.78-3.58a1.41 1.41 0 0 1 1.27-1.14h13.21a.91.91 0 0 1 .86 1.14l-.53 3.58a1.32 1.32 0 0 1-1.22 1.14z" fill="#2c2b3c"></path><path d="M686.21 698.64h-13.56c-.58 0-.85-.51-.59-1.14l1.47-3.58a1.84 1.84 0 0 1 1.5-1.14h13.21c.57 0 .85.51.64 1.14l-1.22 3.58a1.71 1.71 0 0 1-1.45 1.14z" fill="#2c2b3c"></path><path d="M656.92 689.39h-13c-.56 0-.73-.51-.38-1.14l2-3.59a2.21 2.21 0 0 1 1.63-1.13h12.65c.55 0 .74.51.43 1.13l-1.75 3.59a2 2 0 0 1-1.58 1.14z" fill="#2c2b3c"></path><path d="M663.91 698.64h-27.82c-.59 0-.77-.51-.41-1.14l2-3.58a2.26 2.26 0 0 1 1.68-1.14h27.11c.57 0 .81.51.53 1.14l-1.57 3.58a1.93 1.93 0 0 1-1.52 1.14z" fill="#2c2b3c"></path><path d="M886.11 698.64h-13.56a2 2 0 0 1-1.55-1.14l-1.66-3.58c-.3-.63-.07-1.14.5-1.14H883a2.15 2.15 0 0 1 1.64 1.14l1.92 3.58c.33.63.13 1.14-.45 1.14z" fill="#2c2b3c"></path><path d="M840.62 698.64h-13.55a1.55 1.55 0 0 1-1.36-1.14l-1-3.58c-.17-.63.16-1.14.73-1.14h13.21a1.66 1.66 0 0 1 1.41 1.14l1.2 3.58c.25.63-.05 1.14-.64 1.14z" fill="#2c2b3c"></path><path d="M796.86 698.64h-13.55a1.21 1.21 0 0 1-1.15-1.14l-.27-3.58a1 1 0 0 1 1-1.14h13.21a1.3 1.3 0 0 1 1.19 1.14l.52 3.58a.94.94 0 0 1-.95 1.14z" fill="#2c2b3c"></path><path d="M752.33 698.64h-13.55a1 1 0 0 1-.92-1.14l.43-3.58a1.26 1.26 0 0 1 1.17-1.14h13.2a1 1 0 0 1 1 1.14l-.18 3.58a1.17 1.17 0 0 1-1.15 1.14z" fill="#2c2b3c"></path><path d="M707.8 698.64h-13.55c-.59 0-.9-.51-.7-1.14l1.13-3.58a1.63 1.63 0 0 1 1.39-1.14h13.21c.57 0 .9.51.75 1.14l-.89 3.58a1.49 1.49 0 0 1-1.34 1.14z" fill="#2c2b3c"></path><path d="M844 689.44h-12.84a1.57 1.57 0 0 1-1.35-1.14l-1.07-3.58c-.18-.63.11-1.14.65-1.14h12.45a1.71 1.71 0 0 1 1.41 1.14l1.3 3.58c.23.63-.04 1.14-.55 1.14z" fill="#2c2b3c"></path><path d="M803.63 689.44h-12.79a1.24 1.24 0 0 1-1.14-1.14l-.41-3.58a.94.94 0 0 1 .86-1.14h12.45a1.34 1.34 0 0 1 1.2 1.14l.65 3.58a.89.89 0 0 1-.82 1.14z" fill="#2c2b3c"></path><path d="M760.42 689.44h-12.79a1 1 0 0 1-.92-1.14l.3-3.58a1.2 1.2 0 0 1 1.09-1.14h12.45a1 1 0 0 1 1 1.14l-.06 3.58a1.11 1.11 0 0 1-1.07 1.14z" fill="#2c2b3c"></path><path d="M719 689.44h-12.8c-.56 0-.87-.51-.7-1.14l1-3.58a1.52 1.52 0 0 1 1.3-1.14h12.45c.55 0 .89.51.76 1.14l-.74 3.58a1.4 1.4 0 0 1-1.27 1.14z" fill="#2c2b3c"></path><path d="M677.07 689.44h-12.79c-.56 0-.78-.51-.49-1.14l1.67-3.58a1.94 1.94 0 0 1 1.52-1.14h12.45c.55 0 .79.51.54 1.14l-1.43 3.58a1.8 1.8 0 0 1-1.47 1.14z" fill="#2c2b3c"></path><path d="M866.19 689.44H853.4a1.8 1.8 0 0 1-1.47-1.14l-1.43-3.58c-.25-.63 0-1.14.54-1.14h12.45a2 2 0 0 1 1.52 1.14l1.67 3.58c.32.63.07 1.14-.49 1.14z" fill="#2c2b3c"></path><path d="M823.16 689.44h-12.79a1.4 1.4 0 0 1-1.25-1.14l-.72-3.58c-.13-.63.21-1.14.76-1.14h12.45a1.51 1.51 0 0 1 1.3 1.14l1 3.58c.09.63-.19 1.14-.75 1.14z" fill="#2c2b3c"></path><path d="M781.76 689.44H769a1.1 1.1 0 0 1-1-1.14v-3.58a1.06 1.06 0 0 1 1-1.14h12.45a1.18 1.18 0 0 1 1.08 1.14l.29 3.58a1 1 0 0 1-1.06 1.14z" fill="#2c2b3c"></path><path d="M739.63 689.44h-12.79a.88.88 0 0 1-.81-1.14l.64-3.58a1.34 1.34 0 0 1 1.19-1.14h12.45a1 1 0 0 1 .87 1.14l-.41 3.58a1.24 1.24 0 0 1-1.14 1.14z" fill="#2c2b3c"></path><path d="M697.5 689.44h-12.79c-.56 0-.83-.51-.59-1.14l1.33-3.58a1.74 1.74 0 0 1 1.42-1.14h12.45c.54 0 .83.51.64 1.14l-1.09 3.58a1.59 1.59 0 0 1-1.37 1.14z" fill="#2c2b3c"></path><path d="M832.69 708.4h-14.13a1.48 1.48 0 0 1-1.36-1.14l-.78-3.58a.86.86 0 0 1 .82-1.14H831a1.59 1.59 0 0 1 1.4 1.14l1 3.58a.82.82 0 0 1-.71 1.14z" fill="#2c2b3c"></path><path d="M879.69 708.4h-14.13a1.9 1.9 0 0 1-1.58-1.14l-1.5-3.58c-.26-.63 0-1.14.61-1.14h13.78a2 2 0 0 1 1.63 1.14l1.74 3.58c.31.63.06 1.14-.55 1.14z" fill="#2c2b3c"></path><path d="M856.54 708.4h-14.13a1.68 1.68 0 0 1-1.47-1.14l-1.15-3.58c-.2-.63.12-1.14.72-1.14h13.78a1.8 1.8 0 0 1 1.52 1.14l1.39 3.58c.25.63-.05 1.14-.66 1.14z" fill="#2c2b3c"></path><path d="M785.06 708.4h-14.13a1.16 1.16 0 0 1-1.13-1.14l-.07-3.58a1.09 1.09 0 0 1 1.06-1.14h13.78a1.24 1.24 0 0 1 1.18 1.14l.32 3.58a1 1 0 0 1-1.01 1.14z" fill="#2c2b3c"></path><path d="M739.36 708.4h-14.14a.91.91 0 0 1-.9-1.14l.61-3.58a1.38 1.38 0 0 1 1.28-1.14H740a1 1 0 0 1 1 1.14l-.37 3.58a1.28 1.28 0 0 1-1.27 1.14z" fill="#2c2b3c"></path><path d="M693.19 708.4h-14.13c-.61 0-.92-.51-.69-1.14l1.31-3.58a1.78 1.78 0 0 1 1.5-1.14H695a.8.8 0 0 1 .74 1.14l-1.07 3.58a1.62 1.62 0 0 1-1.48 1.14z" fill="#2c2b3c"></path><path d="M668.35 708.4h-39.91c-.61 0-.81-.51-.45-1.14l2.08-3.58a2.31 2.31 0 0 1 1.74-1.14h38.92c.6 0 .87.51.62 1.14l-1.44 3.58a1.86 1.86 0 0 1-1.56 1.14z" fill="#2c2b3c"></path><path d="M808.58 708.4h-14.13a1.3 1.3 0 0 1-1.24-1.14l-.43-3.58a1 1 0 0 1 .94-1.14h13.79a1.41 1.41 0 0 1 1.29 1.14l.67 3.58a.9.9 0 0 1-.89 1.14z" fill="#2c2b3c"></path><path d="M762.14 708.4H748a1 1 0 0 1-1-1.14l.28-3.58a1.22 1.22 0 0 1 1.16-1.14h13.79a1.11 1.11 0 0 1 1.07 1.14v3.58a1.14 1.14 0 0 1-1.16 1.14z" fill="#2c2b3c"></path><path d="M715.71 708.4h-14.13a.83.83 0 0 1-.8-1.14l1-3.58a1.56 1.56 0 0 1 1.38-1.14h13.79a.88.88 0 0 1 .84 1.14l-.72 3.58a1.45 1.45 0 0 1-1.36 1.14z" fill="#2c2b3c"></path><path d="M685.63 718.06h-14.7a.76.76 0 0 1-.71-1.14l1.38-3.58a1.83 1.83 0 0 1 1.56-1.14h14.36a.8.8 0 0 1 .76 1.14l-1.14 3.58a1.7 1.7 0 0 1-1.51 1.14z" fill="#2c2b3c"></path><path d="M636.49 718.06h-14.71c-.63 0-.85-.51-.48-1.14l2.09-3.58a2.34 2.34 0 0 1 1.78-1.14h14.36c.62 0 .86.51.54 1.14l-1.85 3.58a2.18 2.18 0 0 1-1.73 1.14z" fill="#2c2b3c"></path><path d="M661 718.06h-14.68c-.63 0-.9-.51-.6-1.14l1.74-3.58a2.07 2.07 0 0 1 1.67-1.14h14.36c.62 0 .91.51.65 1.14l-1.49 3.58a1.93 1.93 0 0 1-1.65 1.14z" fill="#2c2b3c"></path><path d="M915.89 708.86H889a2.15 2.15 0 0 1-1.69-1.14l-2.32-4.5c-.33-.63-.11-1.14.49-1.14h26.12a2.5 2.5 0 0 1 1.8 1.14l2.87 4.5c.4.63.23 1.14-.38 1.14z" fill="#2c2b3c"></path><path d="M900.61 689.34H875a2 2 0 0 1-1.58-1.14l-1.73-3.48c-.32-.63-.13-1.14.42-1.14h25a2.38 2.38 0 0 1 1.7 1.14l2.17 3.48c.33.63.19 1.14-.37 1.14z" fill="#2c2b3c"></path><path d="M614.43 1526.32a10.7 10.7 0 0 0 9.47-11.77l-41.66-413a10.64 10.64 0 0 0-11.63-9.59 10.7 10.7 0 0 0-9.47 11.77l41.66 413a10.64 10.64 0 0 0 11.63 9.59z" fill="#d04025"></path><path d="M335.3 1526.32a10.7 10.7 0 0 1-9.47-11.77l41.66-413a10.64 10.64 0 0 1 11.63-9.59 10.7 10.7 0 0 1 9.47 11.77l-41.66 413a10.64 10.64 0 0 1-11.63 9.59z" fill="#d04025"></path><rect x="352.76" y="1078.84" width="244.82" height="54.11" rx="10.16" transform="rotate(180 475.17 1105.9)" fill="#d04025"></rect><path fill="#d04025" d="M595.73 1380.98H350.91v-27.05h244.82z"></path><path fill="#d04025" d="M590.98 1242.12H365.15v-27.05h225.83z"></path><path d="M423.69 1132.28h140.56c2.53 0 2.84 4 .3 4H424c-2.53-.01-2.85-4-.31-4z" fill="#2c2b3c"></path><path d="M366.05 1132.28h44.22c2.53 0 2.84 4 .3 4h-44.22c-2.53-.01-2.84-4-.3-4z" fill="#2c2b3c"></path><path d="M420.53 1237.78h152.4c2.53 0 2.85 4 .31 4h-152.4c-2.53-.02-2.84-4-.31-4z" fill="#2c2b3c"></path><path d="M376.31 1237.78h32.38c2.53 0 2.85 4 .3 4h-32.37c-2.53-.02-2.85-4-.31-4z" fill="#2c2b3c"></path><path d="M362.1 1377.64h225.84c2.53 0 2.84 4 .3 4H362.4c-2.52-.01-2.84-4-.3-4z" fill="#2c2b3c"></path><path d="M991.28 599.4a1.57 1.57 0 0 0 1.33-2.61 19.26 19.26 0 0 1-4-18.23c2.27-7.95 8-14.41 11-22.06 6.35-16.21-.79-32.9-7.57-47.67-.73-1.6-3.13-.33-2.4 1.26 5 11 10.4 22.57 9.7 34.95-.64 11.13-7.55 18.89-11.79 28.65-4 9.21-2.55 19.21 3.73 25.71z" fill="#2f52ef"></path><path d="M1017.26 526.66c-3.4-9.58-10-17.61-14.13-26.81-4.93-10.91-.79-26.58 2.38-37.54a1.36 1.36 0 0 0-2.6-.77c-2.92 10.11-5.67 22.25-4.23 32.83 1.35 10 9.18 18.76 13.59 27.58a44.06 44.06 0 0 1 1.25 37c-3.54 8.63-8.22 16.85-3.62 26 .78 1.57 3.18.3 2.4-1.26-5.56-11.09 4.47-22.21 6.63-32.94a45.49 45.49 0 0 0-1.67-24.09z" fill="#2f52ef"></path><path d="M1035.72 526.65c-6-14.89-20.87-28.25-15.77-45.66a1.36 1.36 0 0 0-2.6-.77c-3.61 12.3 2.23 23.47 8.49 33.79 8.76 14.45 13.91 29.13 5.6 45.2-.8 1.54 1.49 3 2.3 1.44 5.52-10.65 6.48-22.76 1.98-34z" fill="#2f52ef"></path><path d="M1035.23 588.18c-1.27-2.25-3.49-4.1-4.49-6.47-2-4.84-1.26-10 .25-14.84a1.36 1.36 0 0 0-2.61-.78c-1.44 4.6-2.48 10-1 14.77 2.2 6.78 9.07 10.32 6 18.46-.62 1.63 2 2.4 2.6.77a13.31 13.31 0 0 0-.75-11.91z" fill="#2f52ef"></path><path d="M1018 598.3a20.59 20.59 0 0 0-3.36-9.17c-.94-1.46-3.36-.2-2.4 1.26a17.93 17.93 0 0 1 3.1 11.34c-.25 3.16-1.37 5.86-.94 9 .24 1.74 2.88 1.11 2.65-.61-.55-3.88 1.35-7.79.95-11.82z" fill="#2f52ef"></path><path d="M966.59 626.54l5.34 20.22a14.37 14.37 0 0 0-11.89 4c-7.24 7.11-4.86 18.83-2.69 27.53 2.36 9.47 5.71 20.9 15.1 25.68a15.09 15.09 0 0 0 14.56-.21l3.82 14.44a9.82 9.82 0 0 0 9.45 7.31l34.47.17a9.83 9.83 0 0 0 9.68-7.87l18.83-92.26a5.41 5.41 0 0 0-5.43-6.48l-87.25 2.15a4.24 4.24 0 0 0-3.99 5.32zm2.86 66.4c-3.15-4.74-4.67-10.6-6-16.06s-3-11.46-1.53-16.94 7-8.36 11.8-6.54l11.63 44c-4.04 5.09-12.67.42-15.9-4.46z" fill="#2f52ef"></path><path d="M972.9 645.6q-2.25-9.21-4.49-18.43a1.25 1.25 0 0 0-2.43.56l4.5 18.43a1.24 1.24 0 0 0 2.42-.56z" fill="#2c2b3c"></path><path d="M1057.9 618.89l-78.21 1.87c-1.6 0-1.68 2.53-.07 2.49l78.21-1.87c1.6-.04 1.68-2.53.07-2.49z" fill="#2c2b3c"></path><path d="M1037.65 724.4q-19.14 1.35-38.33.92a1.25 1.25 0 0 0-.07 2.49q19.18.44 38.33-.92c1.58-.11 1.68-2.6.07-2.49z" fill="#2c2b3c"></path><path d="M986.32 696q-4.7-18.54-9.4-37.07a1.25 1.25 0 0 0-2.43.56q4.71 18.54 9.4 37.07a1.25 1.25 0 0 0 2.43-.56z" fill="#2c2b3c"></path><path d="M445.36 608.9c3.37 8.21 11 10.88 19.13 11.91 5.27.65 10.55 1.27 15.84 1.92 4 .49 8.66 1.6 12.54 0 9.67-4 7.18-14 5.33-21.94a107.41 107.41 0 0 1-1.91-36.87c.16-1.46.35-2.92.58-4.37v-.05a49.31 49.31 0 0 0 33-26.32 46.35 46.35 0 0 0 2-4.58 41.57 41.57 0 0 0 1.45-4.79c8.56-35.4-29.83-71.53-63.38-61.38a8.37 8.37 0 0 0-5.47 1.06c-20.4 11.44-31.69 36.4-26.11 59.22a48.73 48.73 0 0 0 13.17 22.76 195.84 195.84 0 0 0-7 36.22c-.88 8.62-2.53 18.98.83 27.21z" fill="#ff894a"></path><path d="M461.21 536.11a14.65 14.65 0 0 1 12.67-12.7A15.25 15.25 0 0 1 489.94 534a9.1 9.1 0 0 1-.76 6.84 8.66 8.66 0 0 1-1.93 6.5c-4.14 5.17-11.2 6.42-17.21 4.27-6.31-2.3-9.64-9.07-8.83-15.5z" fill="#ff894a"></path><path d="M488.52 426.61c-13.58-.36-24.13 10.13-36.81 13.94a30.32 30.32 0 0 1-19.2-.56c-5.9-2-11.52-4.74-17.71-5.74-10.9-1.76-20 3.71-26 12.52-6.89 10-8.34 22.78-15.5 32.63-13 17.87-67.13 33.41-49.73 64.28 7.33 13 21.93 4.74 33.87 3 7.89-1.17 12 3.66 16.53 9.26 3.78 4.68 7.86 8.56 13.57 10.73a29.2 29.2 0 0 0 14.35 1.58 47.72 47.72 0 0 0 16.68-3.59c3.71-1.44 7.76-3.27 11.89-4.66 4.94-.48 9.83-.48 14.66 1.15 6.49 2.2 12.13 6.31 18.29 9.23 8.07 3.82 18.21 5.38 26.3.61a14.94 14.94 0 0 0 6.29-7.05h.32c0-.43.11-.86.16-1.29 1.63-5 .59-10.89-2.64-15.75-3-4.45-7.05-7.66-11.41-10.65-4.81-3.3-11.12-6.69-13.53-12.34-2.23-5.21-.9-12.24 5.71-12.38 5.14-.11 10.21 2.42 15.32.8 4.78-1.52 6.94-6.1 6.49-10.86-.3-3.22-2.37-7-1.51-10.22.68-2.54 3.05-4.1 5.15-5.41 4.68-2.92 9.63-4.94 13.26-9.27a24.9 24.9 0 0 0 5.82-16.29c-.14-5.54 1.8-32.8-30.62-33.67z" fill="#2c2b3c"></path><path d="M528.91 494.48A11.65 11.65 0 0 0 539 501c2.82 0 3.27 4.45.43 4.41a16.29 16.29 0 0 1-14.68-9.3c-1.22-2.61 2.93-4.17 4.16-1.63z" fill="#2c2b3c"></path><path d="M521.62 502.27c3.63-1.07 5.76 4.43 2.11 5.51s-5.73-4.43-2.11-5.51z" fill="#2c2b3c"></path><path d="M513.12 506.39a15.48 15.48 0 0 1 2.93-9c1.66-2.32 5.06.51 3.41 2.81a10.5 10.5 0 0 0-1.94 5.77 2.27 2.27 0 0 1-2 2.41 2.21 2.21 0 0 1-2.4-1.99z" fill="#2c2b3c"></path><path d="M524.73 526.23a10.08 10.08 0 0 0 7.09 2.39 41.57 41.57 0 0 0 1.45-4.79 5.38 5.38 0 0 1-5.72-1c-2.19-1.83-5 1.56-2.82 3.4z" fill="#2c2b3c"></path><path d="M521 487.08a6.76 6.76 0 0 1 2.86-4.94 2.21 2.21 0 0 1 2.59 3.59 2.43 2.43 0 0 0-.32.24h-.06l-.26.33-.08.08v.06a2.64 2.64 0 0 0-.18.38l-.08.22v.23a4.88 4.88 0 0 0-.06.52 2.22 2.22 0 0 1-2.56 1.8 2.26 2.26 0 0 1-1.85-2.51z" fill="#2c2b3c"></path><path d="M1035.48 1396.61c-5.63 1-11.38 4.81-16.36 7.1-6.82 3.14-13.82 6-20.09 10.15-.22-.28-.43-.57-.65-.84-2.13-2.63-6 .3-5.32 3.14 3.07 12.07 10.77 23.74 16.31 34.84q8.93 17.87 17.87 35.71c1.55 3.09 5.7 2.4 7.37 0 4.28-6.29 12.81-7.87 19-11.6 6.43-3.86 10.75-9.67 11.08-17.35.43-9.82-4.68-19.51-8.14-28.39q-6.35-16.35-12.71-32.69c-1.6-4.25-7.51-3.4-8.36-.07z" fill="#ff894a"></path><path d="M1120.61 1462.53a16.62 16.62 0 0 1 1.39 1.47c3.42 4 4.07 8.29 3 8.71l-87.15 34.18a8.45 8.45 0 0 1-11-4.76l-1.57-4.15-.64-1.71-4.59-12.09a13.43 13.43 0 0 1-.69-1.83c-5-17.47 7-20 7-20a19.57 19.57 0 0 1 13.35-.37 14.86 14.86 0 0 0 11.86-1 43.48 43.48 0 0 0 9.7-7.24c8.67-8.71 13.33 6.3 37.65 3.46l.95-.12 1-.12c9.6-1.05 15.93 1.93 19.74 5.57z" fill="#2c2b3c"></path><path d="M1120.61 1462.53a16.62 16.62 0 0 1 1.39 1.47c-1.45.58-2.91 1.16-4.31 1.76q-7.15 3-14.39 5.93a.91.91 0 0 1-.86.35q-14.12 5.61-28.45 10.64-14.78 5.17-29.75 9.74c-6.27 1.9-12.58 3.84-18.94 5.56l-.64-1.71c6.4-1.81 12.84-3.55 19.21-5.5q15.33-4.7 30.46-10 13.62-4.82 27-10.17a26.07 26.07 0 0 1-2.42-13.35l.95-.12 1-.12a11.74 11.74 0 0 0-.16 1.19 21.85 21.85 0 0 0 2.2 11.79l.62-.23q7.48-3 14.91-6.18c.69-.38 1.44-.71 2.18-1.05z" fill="#2f52ef"></path><path d="M1071.88 1439.55c-3 2.24-2.45 7-1.38 10a15.17 15.17 0 0 0 6.93 8.25l-.22.22c-4.09-4.1-14.48-2.18-14.6 4.26-.07 4 4.53 3.42 7.2 2.54a20.74 20.74 0 0 0 7.18-4.13 11.69 11.69 0 0 0-.47 2.83.64.64 0 0 0 1.24.21 20.79 20.79 0 0 1 1.74-4.62c.75-1.32 2-2.34 2.66-3.67a.63.63 0 0 0-.82-.89 5.76 5.76 0 0 0-1.79 1.35h-.23l-.36-7.35c-.11-2.23.12-4.84-.6-7a4 4 0 0 0-6.48-2zm-7.42 22.1c.38-2.61 4.12-4 6.4-4.09a9.84 9.84 0 0 1 5.33 1.53 18.38 18.38 0 0 1-3.43 2.59c-1.42.81-8.94 4.46-8.3-.03zm12-20.27a7.52 7.52 0 0 1 .58 2.85c.11 1.41.13 2.84.2 4.26.13 2.5.25 5 .37 7.51-4-3-7.75-8.35-5.86-13.28q1.3-3.72 4.68-1.34z" fill="#2f52ef"></path><path d="M1090.09 1455.26c-2.58.92-5.63 5.13-5.6 7.81a.52.52 0 0 0 1 .3c1-1.12 1.54-2.62 2.44-3.83s2.22-2.11 3-3.37c.38-.58-.26-1.11-.84-.91z" fill="#2f52ef"></path><path d="M1113.77 1203.24c-4.13 4-6.78 10.32-9.66 15-3.92 6.4-8.15 12.66-11.06 19.6l-1-.34c-3.24-1-4.85 3.6-2.68 5.57 9.26 8.33 22.15 13.76 32.92 19.91q17.34 9.9 34.69 19.76c3 1.71 6.08-1.17 6.1-4.13.07-7.6 6.28-13.66 9.38-20.22 3.21-6.78 3.57-14-.42-20.58-5.1-8.4-14.73-13.62-22.54-19.09l-28.73-20.12c-3.7-2.6-8.14 1.4-7 4.64z" fill="#ff894a"></path><path d="M1221.18 1210.77a18.37 18.37 0 0 1 1.94.45c5.06 1.44 8 4.63 7.33 5.58l-53.45 76.83a8.45 8.45 0 0 1-11.77 2.15l-3.62-2.58-1.48-1.07-10.53-7.5a12.79 12.79 0 0 1-1.59-1.14c-13.86-11.75-5.33-20.55-5.33-20.55a19.66 19.66 0 0 1 10.9-7.72 14.86 14.86 0 0 0 9.33-7.38 43.74 43.74 0 0 0 4-11.41c2.37-12 14.58-2.16 33.22-18l.73-.63.74-.64c7.47-6.26 14.4-7.3 19.58-6.39z" fill="#2c2b3c"></path><path d="M1221.18 1210.77a18.37 18.37 0 0 1 1.94.45c-.89 1.29-1.77 2.58-2.61 3.86q-4.26 6.5-8.67 12.93a.87.87 0 0 1-.53.76q-8.61 12.49-17.74 24.65-9.4 12.52-19.33 24.63c-4.15 5.06-8.33 10.18-12.66 15.15l-1.48-1.07c4.33-5.06 8.71-10.08 12.92-15.25q10.14-12.42 19.75-25.27 8.64-11.56 16.8-23.46a26.07 26.07 0 0 1-9.42-9.75l.73-.63.74-.64c.16.36.33.73.52 1.08a21.9 21.9 0 0 0 8.39 8.58l.38-.54c3-4.43 6-8.92 9-13.42.41-.67.84-1.36 1.27-2.06z" fill="#2f52ef"></path><path d="M1167.89 1218.73c-1.24 3.53 1.84 7.16 4.43 9.11a15.19 15.19 0 0 0 10.34 3c0 .1 0 .2-.05.31-5.68-1.14-13.26 6.23-9.78 11.65 2.17 3.37 5.67.33 7.39-1.89a20.38 20.38 0 0 0 3.68-7.43 11.14 11.14 0 0 0 1.19 2.62.64.64 0 0 0 1.15-.51 20.91 20.91 0 0 1-1.13-4.81c-.11-1.52.33-3 .18-4.53a.63.63 0 0 0-1.18-.28 5.89 5.89 0 0 0-.74 2.11l-.2.11-4.39-5.91c-1.33-1.79-2.58-4.09-4.38-5.48a4 4 0 0 0-6.51 1.93zm6.11 22.5c-1.14-2.38 1.22-5.6 3-7a9.75 9.75 0 0 1 5.29-1.69 18.41 18.41 0 0 1-1.42 4.05c-.68 1.52-4.87 8.73-6.87 4.64zm-1.31-23.5a7.22 7.22 0 0 1 2.07 2c.87 1.11 1.69 2.28 2.53 3.42l4.49 6c-5-.23-11.09-2.64-12.26-7.79q-.96-3.73 3.17-3.63z" fill="#2f52ef"></path><path d="M1191.76 1221.68c-1.63 2.2-1.83 7.39-.31 9.61a.52.52 0 0 0 1-.28c.2-1.49-.17-3-.1-4.54s.68-3 .67-4.5c-.02-.69-.89-.78-1.26-.29z" fill="#2f52ef"></path><path fill="#ff7270" d="M580.75 922.02l323.71 56.53L1144.41 1209l-38.1 53.45-340.02-172.68-185.54-167.75z"></path><path d="M994.67 1437.52L777 1122.81l-104.29-1.72q-27.78-.46-55.46-3l-229-21.4a93.47 93.47 0 0 1-71.21-44c-17.89-29.27-29.55-76.49-6.54-149.12C357.42 755.3 591 941.84 591 941.84l310.61 81.8 158.31 396.79z" fill="#ff7270"></path><path d="M638.73 838.32a195.43 195.43 0 0 1-.53-19.65q8.32 4.23 16.83 8.07c-.69-2.25-1.35-4.51-2-6.76q-1.39-4.89-2.63-9.87a306.3 306.3 0 0 1-9-32.8 12.92 12.92 0 0 1 3.42-12.24V765a12.63 12.63 0 0 1 1.56-5.68 405.74 405.74 0 0 1-25.56-51.71c-10.85-26.16-19.15-53.51-22.37-81.71a9.68 9.68 0 0 1 1.37-5.88C534.52 590 463.39 568.87 391 574.8c-71.54 5.84-136.76 39.93-193.8 81.7-14.25 10.43-28.1 21.38-41.67 32.68s-26.88 23.21-36.61 38.17c-9.05 13.9-14.31 31-12.31 47.66s11.26 30.48 25.46 39.17c12.62 7.72 27.88 10.64 42.45 11.61 18.32 1.23 36.89.16 55.1-2q10.65-1.29 21.21-3.2a225.65 225.65 0 0 0 15.92 69.09c8 19.72 19.48 39 38.15 50.2 20.52 12.36 46.15 11.11 69.2 11.63L532.41 955l40.18.89c12.61.28 25.14.38 37.52-2.41a58.77 58.77 0 0 0 28.07-14.83c8.13-7.88 12.17-18.51 12.65-29.69.52-12-3.05-23.83-6.07-35.33a200.07 200.07 0 0 1-6.03-35.31z" fill="#2f52ef"></path><path d="M558.89 721.44a71.69 71.69 0 0 0 17.93 29c1.8 1.77-.79 4.75-2.61 3a76 76 0 0 1-19.05-30.68c-.79-2.43 2.94-3.76 3.73-1.32z" fill="#2c2b3c"></path><path d="M265.59 683.82c.67-2.43 4.55-1.7 3.88.76a453.13 453.13 0 0 0-16 120.31c0 2.53-3.93 2.85-3.94.3a457.32 457.32 0 0 1 16.06-121.37z" fill="#2c2b3c"></path><path d="M270.09 668.45a193.37 193.37 0 0 1 13.6-28c1.28-2.17 4.83-.44 3.53 1.76a194.41 194.41 0 0 0-13.6 28c-.92 2.36-4.45.6-3.53-1.76z" fill="#2c2b3c"></path><path d="M904.13 1132.3c15.59 22 37.92 37.61 59.81 52.78 2.08 1.44-.54 4.4-2.61 3-22.19-15.38-44.67-31.24-60.47-53.54-1.47-2.11 1.8-4.32 3.27-2.24z" fill="#2c2b3c"></path><path d="M882.69 1102.2a47.48 47.48 0 0 0 13.19 20.41c1.87 1.72-.72 4.69-2.61 3A51.77 51.77 0 0 1 879 1103.5c-.84-2.41 2.89-3.72 3.69-1.3z" fill="#2c2b3c"></path><path d="M575.24 1111.81a873.1 873.1 0 0 0 217.58 5.32q30.7-3.11 61.15-8.38c2.5-.43 2.69 3.52.21 3.94q-36.3 6.27-73 9.47l166.18 243.47c15.39 22.54 31.1 46.89 46.5 69.5l64.32-17.53c2.44-.66 3.75 3.06 1.3 3.73L994.64 1439a1.94 1.94 0 0 1-1.85-.42 2.54 2.54 0 0 1-1.72-1.08c-55.58-81.43-111.15-163.64-166.72-245.06l-47-68.86a1.89 1.89 0 0 1-.34-1.06 874.11 874.11 0 0 1-141.52.2q-30.66-2.46-61.08-7c-2.53-.43-1.68-4.28.83-3.91z" fill="#2c2b3c"></path><path d="M419.74 1044.63c6.91 14.4 26.38 25.64 43.55 16.54 20.15-10.67 18.18-33.54 15.42-51a3.24 3.24 0 0 0-2.2-2.32 155.76 155.76 0 0 1-59 .16 1.85 1.85 0 0 0-2.17 1.29 1.78 1.78 0 0 0-.16.66c-.36 11.58-.69 23.74 4.56 34.67zm-.68-32.36a158.8 158.8 0 0 0 56-.19c1.72 10.92 3.42 22.74-1.61 33.15-4.25 8.8-13.57 16.68-25.27 15.81-11.47-.86-20.87-9.19-25-18.11-4.44-9.71-4.43-20.34-4.12-30.66z" fill="#2c2b3c"></path><path d="M314.55 999.67c-1-1.47.57-3.88 2.5-2.88l8.62 4.47c2.25 1.17.51 4.71-1.76 3.54l-5.64-2.93a62.44 62.44 0 0 0 3.23 26.87c2.94 8.29 8.05 18.8 17.09 21.74s18-4 21.85-11.75c4.52-9.17 3.59-20 2.73-29.88q-15.82-.93-31.56-2.86c-2.52-.31-1.75-4.19.76-3.87q15.87 2 31.84 2.88a2.09 2.09 0 0 1 1.79 1.2 1.83 1.83 0 0 1 1 1.55c1 11.66 2.09 24.86-4.46 35.23-4.85 7.69-14 13.77-23.36 11.76-10.11-2.15-16.22-12.13-20-21a66.65 66.65 0 0 1-4.63-34.07z" fill="#2c2b3c"></path><path d="M387.27 980.75c.59-2.46 4.47-1.72 3.87.75a173.41 173.41 0 0 0-3 66.58c.38 2.52-3.56 2.81-3.93.31a176.11 176.11 0 0 1 3.06-67.64z" fill="#2c2b3c"></path><path d="M1105 1261.91q18.26-27.72 37.74-54.59c1.49-2 4.45.56 3 2.61q-19.18 26.44-37.16 53.74c-1.4 2.09-4.96.33-3.58-1.76z" fill="#2c2b3c"></path><path d="M795.44 693c-.57-3.64-2.23-7.52-6-8.86a7.73 7.73 0 0 0-6.61.52 12.08 12.08 0 0 0-14 .64 12.42 12.42 0 0 0-13.75.33c-3.48-3-15.61-.58-16.95 13.05-.13 1.31-.37 2.61-.52 3.92-2-1.36-8.33-4.55-10.51-5-3.84-.71-6.52 2.08-6.35 5.84.39 8.91 7.23 18.21 13.66 23.87a3.23 3.23 0 0 0 3.48 2.4 243.85 243.85 0 0 1 54.48.21c1 3.09 6.14 3 5.87-.56-.86-11.95-.94-24.36-2.8-36.36z" fill="#ff894a"></path><path d="M800.46 718.59s104.16 318.76-165.63 196.73-35-295.34-35-295.34 99.78 89.68 124.39 119.9l1.28-21.68z" fill="#2f52ef"></path><path d="M569.49 619.29c1.87-1.68 4.86.9 3 2.61-24 21.64-24 56.11-17.36 85.36.56 2.45-3.16 3.78-3.73 1.3-7-30.51-7-66.66 18.09-89.27z" fill="#2c2b3c"></path><path d="M490.84 515.82c-4.28-12.92-23.07-14.23-27.19-.38s12.38 23.12 22.94 14.44c3.49-2.86-1.27-8-4.74-5.15-5.36 4.4-13.5-.47-11.49-7.29s11.48-6.63 13.66 0c1.41 4.2 8.24 2.66 6.82-1.62z" fill="#ff894a"></path><path d="M484.57 516.18c-3.22-5.07-11-5-13.27.9a7.41 7.41 0 0 0 9.06 9.7c2.46-.73 1.57-4.63-.9-3.9-2.66.79-5.48-1.29-4.51-4.18a3.38 3.38 0 0 1 6.05-.7c1.4 2.2 5 .35 3.57-1.82z" fill="#2c2b3c"></path><path d="M784.92 852.93a181.93 181.93 0 0 0-47.66-101.14c-1.76-1.88-4.71.83-2.94 2.71A178.41 178.41 0 0 1 781 853.83c.35 2.55 4.25 1.63 3.92-.9z" fill="#2c2b3c"></path><path d="M757.73 690.71c-.17-2.55-4.17-2.69-4-.12.15 2.34.31 4.67.46 7 .17 2.55 4.17 2.7 4 .12-.19-2.33-.31-4.71-.46-7z" fill="#2c2b3c"></path><path d="M771.73 690.21c-.16-2.55-4.16-2.7-4-.12l.44 7c.16 2.55 4.16 2.7 4 .12z" fill="#2c2b3c"></path><path d="M785.22 689.21c-.18-2.54-4.18-2.69-4-.12s.34 5 .52 7.5 4.17 2.69 4 .12z" fill="#2c2b3c"></path><path d="M786.59 864.72c-.4-2.54-4.29-1.63-3.89.9a44.46 44.46 0 0 1-2.84 23.94c-1 2.38 2.87 3.52 3.83 1.14a48.16 48.16 0 0 0 2.9-25.98z" fill="#2c2b3c"></path><path d="M633 894.1a199.73 199.73 0 0 1-53.12-76.19c-.94-2.4-4.48-.52-3.54 1.86a202.42 202.42 0 0 0 53.71 77c1.88 1.74 4.84-.96 2.95-2.67z" fill="#2c2b3c"></path><path d="M2066.33 769.86h-740c-2.57 0-2.7 4-.12 4h740c2.57 0 2.71-4 .12-4z" fill="#2c2b3c"></path><path d="M1277 770.19h-168.67c-2.57 0-2.7 4-.12 4h168.67c2.57 0 2.7-4 .12-4z" fill="#2c2b3c"></path><path d="M89.67 771.19h-71c-2.57 0-2.71 4-.12 4h71c2.57 0 2.7-4 .12-4z" fill="#2c2b3c"></path><rect x="1377.25" y="702.19" width="306.49" height="24.79" rx="5.37" fill="#a2a2a2"></rect><path d="M1668.12 707.77h-276.6a18 18 0 0 1-18.2-17.89l-10.53-148.29A18.06 18.06 0 0 1 1381 523.7l299-.94a18 18 0 0 1 18.2 17.88l-11.86 149.24a18.05 18.05 0 0 1-18.22 17.89z" fill="#b8b8b8"></path><circle cx="1530.07" cy="610.96" r="13.42" fill="#a2a2a2"></circle><path d="M1945 622.66c-.08-5.11-4-7.12-7.58-6.39h-.42c-18.08.61-90.39.61-108.48 0h-.35c-3.57-.73-7.49 1.28-7.57 6.39l-.34 21.72a7.18 7.18 0 0 0 6 7.56 7.29 7.29 0 0 0 1.23.1c.19.73.39 1.44.59 2.17q9.2 33.59 18.4 67.17c.24.85.48 1.7.7 2.55.39 1.41.78 2.81 1.16 4.22.47 1.7 2.13 3 3.82 4a16.1 16.1 0 0 0 6.41 2c8.07.74 16.14 1 24.22 1s16.17-.25 24.23-1a16.1 16.1 0 0 0 6.41-2c1.69-.95 3.35-2.29 3.82-4l1.17-4.28.69-2.53q9.12-33.29 18.25-66.59c.22-.82.45-1.63.67-2.46l.07-.25a7.17 7.17 0 0 0 7.2-7.66z" fill="#ff7270"></path><path d="M1938 652.29c-.22.83-.45 1.64-.67 2.46-38.6 1.24-72.89 1.63-109.28-.54-.2-.73-.4-1.44-.59-2.17-.38-.04 73.6 2.11 110.54.25z" fill="#2c2b3c"></path><path d="M1919.11 721.34l-.69 2.53a295.29 295.29 0 0 1-71.24.06c-.22-.85-.46-1.7-.7-2.55a293.22 293.22 0 0 0 72.63-.04z" fill="#2c2b3c"></path><path d="M1964.08 562.74a63.39 63.39 0 0 0-16.45-14.94A61.27 61.27 0 0 0 1901 540c-11.68 2.77-25.56 9.81-31.2 21.38a56.69 56.69 0 0 1-2.34-19.19c13-11.08 19.86-28.46 20.38-45.73.63-21.21-7.73-41.46-18.66-59-1-1.53-3-2.34-4.44-.91a77 77 0 0 0-5.18 104.74 25.58 25.58 0 0 0 2.11 2.51 54.46 54.46 0 0 0 .88 11 29.36 29.36 0 0 0-14.53-5.25 3.12 3.12 0 0 0-.51-.61C1826.3 529 1796 520.63 1768 527.37c-5.46 1.32-14.32 2.92-17.06 8.72-3.11 6.58 4.47 13.29 8.65 17.22a64.92 64.92 0 0 0 39.33 17.7c16.8 1.25 33.58-4.63 46.52-15.67a24.39 24.39 0 0 1 19.79 10.19c.6 1.93 1.25 3.86 1.92 5.78a16.91 16.91 0 0 0-13.39-.47 2.48 2.48 0 0 0-1.27 1 2.73 2.73 0 0 0-.6.11c-30.75 9.2-52.85 38.62-52.38 72.07.09 6.8 1.3 14.32 9.39 14.4 3.17 0 6.21-1.21 9.13-2.34 4.14-1.59 8.24-3.32 12.23-5.3 14-7 27-17.45 33.35-32.55 6-14.19 4.11-31.35-6.37-42.42 4.65-1.28 9.41 1 12.07 5.07A2.33 2.33 0 0 0 1871 582c3.53 10.4 6.18 22.85 2.8 33.65a3 3 0 0 0-.13 1.3h5.7c2.92-9.91 1.6-20.71-1.06-29.92 9.2 5.29 21.74 5.26 31.92 4.64a130.93 130.93 0 0 0 51.28-13.91c2.48-1.27 5.35-2.74 6.14-5.75.88-3.56-1.58-6.67-3.57-9.27z" fill="#baab34"></path><path d="M1831.92 599.38a89.1 89.1 0 0 0-23.06 45.56c-.42 2.29 3.2 2.55 3.61.27a84.81 84.81 0 0 1 21.84-43.11c1.59-1.67-.79-4.41-2.39-2.72z" fill="#2c2b3c"></path><path d="M1847.22 583.15a29.26 29.26 0 0 0-9.38 8.33c-1.38 1.89 1.63 3.91 3 2a24.94 24.94 0 0 1 8-7.12c2.02-1.11.42-4.36-1.62-3.21z" fill="#2c2b3c"></path><path d="M1956.94 566.07a160.27 160.27 0 0 0-79.35-4c-2.28.47-1.6 4 .69 3.56a156.36 156.36 0 0 1 77.46 3.81c2.26.74 3.43-2.68 1.2-3.37z" fill="#2c2b3c"></path><path d="M1862.81 447.58a140.76 140.76 0 0 0-3.06 36.16c.11 2.3 3.72 2.6 3.61.28a137.59 137.59 0 0 1 2.87-35.24c.49-2.26-2.93-3.47-3.42-1.2z" fill="#2c2b3c"></path><path d="M1864.08 527a154.75 154.75 0 0 1-1.64-29.95c.1-2.33-3.51-2.61-3.61-.28a159.17 159.17 0 0 0 1.7 30.92c.35 2.31 3.9 1.62 3.55-.69z" fill="#2c2b3c"></path><path d="M1781.11 537.23a63.1 63.1 0 0 0-20.72 1.65c-2.25.56-1.57 4.12.69 3.56a59.68 59.68 0 0 1 19.75-1.6c2.32.16 2.6-3.41.28-3.61z" fill="#2c2b3c"></path><path d="M1834.65 547.28a141.62 141.62 0 0 0-40.09-8.14c-2.33-.13-2.61 3.48-.28 3.61a138.41 138.41 0 0 1 39.17 8c2.2.74 3.39-2.68 1.2-3.47z" fill="#2c2b3c"></path><path d="M1672.38 726.21h-282.5c-1.28 0-1.35 2-.06 2h282.5a1 1 0 0 0 .06-2z" fill="#2c2b3c"></path><path d="M951.88 760.21h-132.5c-1.28 0-1.35 2-.06 2h132.5a1 1 0 0 0 .06-2z" fill="#2c2b3c"></path><path d="M1096.34 605.06l9.33-1.65 9 50.87a10.84 10.84 0 0 1-1 .62 8.31 8.31 0 0 1-.94.48c-.38.17-.77.31-1.16.44s-.66.19-1 .26l-.41.08-.79.11-1 .06c-.42 0-.83 0-1.25-.06s-.71-.1-1.06-.17l-.73-.17z" fill="#d04025"></path><path fill="#ff5a64" d="M1098.99 592.97l1.09 1.7 5.59 8.74-9.33 1.65 2.21-10.1.44-1.99z"></path><path d="M1099 593l1.09 1.7a3.08 3.08 0 0 1-1.53.28z" fill="#a2a2a2"></path><path d="M1126.51 647.09l-9.43 1-5.38-51.38a11.37 11.37 0 0 1 1-.55 9.08 9.08 0 0 1 1-.41c.39-.14.79-.26 1.19-.36s.67-.14 1-.19l.42-.05a7 7 0 0 1 .8 0h1c.32 0 .83.08 1.24.15a9.22 9.22 0 0 1 1 .24c.25.06.49.14.72.22z" fill="#2f52ef"></path><path fill="#ff5a64" d="M1123.02 658.96l-.97-1.77-4.96-9.11 9.42-.99-2.92 9.92-.57 1.95z"></path><path d="M1123 659l-1-1.77a3.11 3.11 0 0 1 1.54-.18z" fill="#2c2b3c"></path><path d="M1120.59 654.27l-3.12-5.88c-.07-.13-.26 0-.19.12l3.12 5.88c.07.13.26 0 .19-.12z" fill="#2c2b3c"></path><path d="M1121.83 656.65c-.26-.56-.53-1.11-.8-1.67-.06-.13-.27-.06-.21.07l.8 1.68c.06.13.28.05.21-.08z" fill="#2c2b3c"></path><path d="M1147.85 599.25l9.37 1.4-8.64 58a10.08 10.08 0 0 1-2.2.53 10.32 10.32 0 0 1-1.24.08c-.34 0-.68 0-1-.05l-.41-.06c-.27 0-.53-.09-.79-.15s-.66-.17-1-.28a9.83 9.83 0 0 1-1.16-.49 8.92 8.92 0 0 1-1-.54c-.21-.14-.43-.29-.63-.44z" fill="#2f52ef"></path><path fill="#ff5a64" d="M1154.43 587.11l.45 2.21 2.34 11.33-9.37-1.4 5.5-10.14 1.08-2z"></path><path d="M1154.43 587.11l.45 2.21a2.73 2.73 0 0 1-1.54-.21z" fill="#baab34"></path><rect x="1088.41" y="630.81" width="81.55" height="92.52" rx="11.02" fill="#baab34"></rect><path d="M1158.28 722.24h-58.46a1.08 1.08 0 0 0-.06 2.16h58.46a1.08 1.08 0 0 0 .06-2.16z" fill="#2c2b3c"></path></g></g></g></svg>