<svg xmlns="http://www.w3.org/2000/svg" viewBox="0.001199185848236084 0 1122.103271484375 2709.98291015625" style=""><g><g data-name="Layer 2"><g data-name="Layer 1"><path d="M752 2689.66q2.13-4.22 4.36-8.4c1-2.13 2-4.26 3-6.41-1 2.15-2 4.29-3 6.42q-2.21 4.18-4.36 8.39z" fill="#bf6941"></path><path d="M736.4 2695.41a85.18 85.18 0 0 1-9.56-.51 80 80 0 0 1-22.63-5.8c-12.5-5.42-24.27-14.35-35-26.56-7.92-9-14.87-19-21.6-28.71q-2.37-3.43-4.77-6.85c-8-11.42-16.93-23.44-27.53-33.84-7.93-7.51-16.51-14.59-24.8-21.45l-2.39-2-1.22-1c-10.74-8.87-21.85-18-32.45-27.44-12.9-11.45-26.44-24-38.11-38.53a146.7 146.7 0 0 1-14.18-20.72 77.45 77.45 0 0 1-8.16-20.72 51 51 0 0 1-1.24-9.2c-2.61 6.46-3.61 14.13-2.94 22.84a58.31 58.31 0 0 0 2.12 11.05 103.8 103.8 0 0 0 4.81 13.71c4 9.23 9.59 17.71 14.53 24.8 9.94 14.3 22 26.7 34.56 39.19l.4.41c5.26 5.24 10.69 10.64 15.5 16.5a233.82 233.82 0 0 1 16.32 23.19c1 1.57 2 3.14 2.93 4.71q3.64 6 7.2 12c6.28 10.5 12.75 21.36 19.71 31.66 10.85 16.08 22 28.34 34 37.47a82.88 82.88 0 0 0 9 5.89 100.43 100.43 0 0 0 13 6.48 103.59 103.59 0 0 0 14.87 4.29l.28.07a131.24 131.24 0 0 0 15.7 2.59 181.69 181.69 0 0 0 20.6 1.05c4.1 0 8.45-.09 13.69-.3q6.47-.25 12.86-.87 2.26-3.7 4.43-7.49l.32-.59c1.32-2.88 2.72-5.73 4.14-8.57-.42.84-.86 1.67-1.27 2.52-4 .4-8.52.73-13.12.73z" fill="#bf6941"></path><path d="M1106.47 1795.07h-1.81a89.64 89.64 0 0 1-18.2-2.31c-14.42-3-29.62-7.54-47.83-14.27-6.63-2.44-11.63-4.48-16.21-6.59a116.14 116.14 0 0 1-22.47-14 154.89 154.89 0 0 1-45.94-58.2c-2.15-4.77-4.06-9.74-5.9-14.55l-1.37-3.56-1.71-4.43q-2.68-7-5.4-13.94c-5.53-14.13-10.35-27-14.73-39.3-4.8-13.52-8.88-26.78-12.11-39.41a69.59 69.59 0 0 1-2.45-13.67 42.46 42.46 0 0 1 .42-11.25 35.31 35.31 0 0 1 2.73-8.32c-2.54 2-5 4-7.43 6.18a53.06 53.06 0 0 0-10.14 11.33 54.29 54.29 0 0 0-5.31 11.44 39.22 39.22 0 0 0-2 13.12 56.49 56.49 0 0 0 1.55 12.28 113.63 113.63 0 0 0 4.64 14c.13.35.28.7.41 1q.24 3.26.61 6.45a189.61 189.61 0 0 0 6.59 30.49c5.37 18.72 13 38.53 23.43 60.57l.79 1.68c4 8.43 8.07 17.14 12.8 25.31a143.06 143.06 0 0 0 19.94 27.21 131.41 131.41 0 0 0 25.63 21.03 169.78 169.78 0 0 0 31.46 15.19q3.6 1.31 7 2.52a275.46 275.46 0 0 0 36.77 1.83 174 174 0 0 0 43-6.26c1.59-.5 3.17-1 4.73-1.58q1.53-5.74 3.23-11.45l-.39 1.27c-1.45.12-2.9.12-4.33.19z" fill="#bf6941"></path><path d="M1113.39 1786.4c-.3.95-.59 1.9-.88 2.85.29-.95.58-1.9.88-2.85z" fill="#bf6941"></path><path d="M1115.32 1780.56l.39-1.16q1.56-4.55 3.23-9.06-1.67 4.52-3.24 9.06c-.13.38-.25.77-.38 1.16z" fill="#bf6941"></path><path d="M1050.75 1497.42v-.28c.21-14.75.67-27.91 1.4-40.31.81-13.62 2-27.92 3.59-43.75 2.6-25.69 6.17-52.77 11.57-87.77 3.25-21.11 6.78-42.53 10.21-63.26l4-24.17c1.63-10 3.2-20.09 4.71-29.89 2.75-17.71 5.58-36 8.87-53.94 2.38-13 5-26.21 7.52-39 8-40.59 16.31-82.56 18.75-124.63 1.77-30.85.35-58.07-4.35-83.21a274.51 274.51 0 0 0-11.2-41.19c-1.84-5.18-3.88-10.23-6.39-16.22-2.13-5.13-3.92-9-5.8-12.58a73.67 73.67 0 0 0-6.82-11 49.66 49.66 0 0 0-9.36-9.3c-6.81-5.15-15.22-8.55-27.25-11-8.88-1.84-18.67-2.69-30.81-2.69-3.2 0-6.69.06-10.65.18-1 0-2 .1-3.08.14 1-1.3 1.94-2.64 2.75-3.9a67 67 0 0 0 4.87-9.41c4.31-9.6 8.21-19.65 11.65-28.52 15.39-39.64 25.52-85 31-138.62 4.14-40.62 5-84 2.72-140.52-.88-22.38-2.12-45.14-3.32-67.15l-.21-3.81c-1.23-22.7-3.16-46.81-5.89-73.68-1.44-14.22-3.11-28.92-5-43.7-1.66-13.32-3.72-29.05-6.31-44.67a376.27 376.27 0 0 0-9.21-42.94c-1.26-4.38-2.6-8.75-3.94-13.11-.81-2.67-1.63-5.34-2.44-8l-.39-1.34c-2.09-7-4.25-14.18-5.7-21.42v-.19a5.61 5.61 0 0 0-1.55-3.59 5 5 0 0 0-7.12.25 4.74 4.74 0 0 0-1.31 3.5l.22 4.43c.44 8.64.86 17.42 1 26.23a140.3 140.3 0 0 0 4.83 17.44c.23.66.47 1.32.73 2 .11 1.23.23 2.46.36 3.68.38 3.77.89 7.52 1.37 11.27 1 7.51 1.73 15.05 2.81 22.55s1.59 15.06 2.23 22.59l.06.8c-.39 5.39-.83 10.79-1.37 16.18-1.52 14.13-3.8 28.33-8.82 41.68-.18.45-.39.89-.57 1.33v.1c-.22.52-.46 1-.7 1.55s-.47 1.09-.73 1.62c-.36.79-.75 1.55-1.14 2.32-.27.51-.52 1-.79 1.54-.45.85-.94 1.67-1.43 2.5-.24.41-.46.83-.71 1.24-.65 1.05-1.34 2.08-2 3.09-.12.17-.22.35-.34.52l-.36.44c-.58.74-1.17 1.48-1.79 2.2-.3.35-.62.69-.93 1-.47.53-.94 1-1.43 1.55-.13.13-.25.27-.37.4a52 52 0 0 1-3.85 3.57l-.33.24-.33.23a54.44 54.44 0 0 1-3.47 2.37l-.14.1c-1.15-2.33-2.24-4.69-3.32-7.06-.23-.49-.48-1-.7-1.48s-.43-1-.65-1.54c-1-2.34-2-4.7-2.93-7.07-.14-.33-.27-.66-.4-1-.05-.13-.11-.25-.16-.38-1.06-2.68-2.08-5.37-3-8.08-.06-.17-.13-.33-.19-.5a239.51 239.51 0 0 1-7.55-25.67c0-1.94-.07-3.89-.12-5.83-.21-7.3-.52-14.61-.84-21.91-.56 1.61-1.11 3.28-1.63 5a119.9 119.9 0 0 0-4.34 26.76 168.88 168.88 0 0 0 .77 25.94c.71 7.82 1.85 15.36 2.88 21.7-2.58-2.89-5.26-5.87-7.79-8.9 0 .13 0 .26.07.39-3-2.38-6.06-4.68-9.25-6.82-2.48-1.65-5.06-3.15-7.69-4.56-.68-.36-1.37-.7-2.08-1-.41-1.08-.8-2.16-1.17-3.25-1.28-3.76-2.33-7.57-3.49-11.36-.57-1.85-1.18-3.69-1.79-5.53-.3-.91-.6-1.8-.91-2.69a144.44 144.44 0 0 1-1.26-15.93 3.35 3.35 0 0 1 1.81 1.07c1.71 1.94 3.3 4 5 6 1.29 1.54 2.66 3 4 4.55a78.4 78.4 0 0 0-3.88-11.9 7.77 7.77 0 0 0-2-3.25 7.62 7.62 0 0 0-5.22-2.1h-.23a7.57 7.57 0 0 0-5.19 2.3 7.84 7.84 0 0 0-2.1 5.45c-.22 8.11 1.25 16.22 2.72 23.08a76.1 76.1 0 0 0 8.56 22.64c.32.54.65 1.08 1 1.62.68.84 1.35 1.7 2 2.56q2.44 3.22 4.78 6.54c2.05 2.42 4.18 4.74 6.28 7l1.84 2a47.94 47.94 0 0 1 9.41 7.06 87.89 87.89 0 0 1 10.17 11.13 123.52 123.52 0 0 1 7.58 11.6 72.32 72.32 0 0 1 8.56 22.95 133.2 133.2 0 0 1 1.61 30.98 217.32 217.32 0 0 1-3.38 28.66c-1.36 7.38-2.84 14.82-4.87 22.07l.15-.51c.2 4.18.4 8.38.59 12.56.44 9.05.89 18.09.5 27.14-.38 8.71-1.27 17.38-2.46 26a148.79 148.79 0 0 1-5.05 23.28c-2.3 7.46-5.2 14.71-8 22s-5.62 14.48-7.77 21.94a165.14 165.14 0 0 0-5 22.38c-.54 4.36-.87 8.76-1 13.17-1.12 7-1.85 14-2.5 21.08-.13 1.37-.24 2.72-.36 4.09-1.54-8.26-3-16.55-3.72-24.92-.73-8.09-1.07-16.27-1-24.4q0-3.6.15-7.19c-1.9-2.84-3.81-5.72-5.63-8.64-2.24-3.59-4.3-7.43-6.13-10.81l-1.63-3c-1.81-3.32-3.62-6.62-5.44-9.93l-1.16-2.12-2.5-4.54c-11.76-21.39-23.15-42.38-33.39-64q-2.21-4.65-4.33-9.36c-5.08-11.41-9.4-22.07-13.19-32.59-.7-2-1.37-3.9-2-5.86-.81-2.36-1.62-4.72-2.48-7.05-1.36-3.72-2.88-7.5-4.62-11.58a241.22 241.22 0 0 0-25.59-46.22 198.89 198.89 0 0 0-17.3-21 146.18 146.18 0 0 0-20-17.42 96.52 96.52 0 0 0-47.46-18.53c-1-.09-2-.16-3-.23.13.27.29.53.41.81a89 89 0 0 1 3.45 8.65 118.71 118.71 0 0 1 6.18 12.36 195.9 195.9 0 0 1 7.91 20.56c2.14 6.74 4 13.58 5.66 20.46 1.33 5.43 2.46 10.92 3.54 16.41 1.71 8.68 3.61 17.32 5.14 26 1.83 10.41 3.44 21 3.63 31.57 1.07 3.27 2.17 6.52 3.29 9.78a55.25 55.25 0 0 1 1.34-7.31 58.46 58.46 0 0 1 7.47-17c2.24-3.4 4.82-6.63 7.32-9.75.82-1 1.65-2.06 2.45-3.09a111.9 111.9 0 0 0 6.85-10.22q-.54 3.54-1 7.09a165.61 165.61 0 0 0-.92 32.71 96.79 96.79 0 0 0 1.91 13.22c0 1.57.08 3.14.13 4.69.07 2.63.15 5.25.17 7.89v.28a176.42 176.42 0 0 0 11.1 18.42 79.61 79.61 0 0 1 11.77 27c2.59 11.64 3.35 23.69 4.08 35.34.46 7.24.93 14.74 1.83 22.07a111.25 111.25 0 0 0 2.75 13.4 114.61 114.61 0 0 0 4.28 12.09c.8 1.79 1.72 3.66 2.84 5.71 5.56 7.54 10.13 13.63 14.38 19.16 6.92 8.88 13.31 16.83 19.55 24.29 3.25 3.94 6.63 7.94 10.43 12.23q1.74 2 3.47 4c2.32 2.7 4.65 5.4 7 8q1.94 2.16 3.87 4.35c2.46 2.78 5 5.66 7.6 8.43 1.94 2.09 4 4.15 6 6.15 1.64 1.66 3.3 3.34 4.91 5 3.18 3.34 7 7.24 10.85 10.87 4 3.78 8.44 7.53 12 10.55a3.85 3.85 0 0 1 1.3 2.83 4.72 4.72 0 0 1-1.29 3.45 4.11 4.11 0 0 1-3 1.24 6 6 0 0 1-2.41-.55A237.66 237.66 0 0 1 921 771.5l-.49-.29c-.92-.52-1.85-1.06-2.77-1.6 2.19 1.73 4.39 3.44 6.57 5.11l2.39 1.84c11 8.49 20.79 15.66 29.91 21.9l.56.37c3.91 2.68 7.89 5.39 12.06 7.73l-2.59.27-9.2.95c-11.21 1.15-22.81 2.35-34.19 3.79-12.72 1.6-26.33 3.48-44.12 6.08l-19.37 2.85c-22.54 3.33-45.84 6.78-68.83 9.62-13.23 1.63-26.82 2.94-38.52 4-6 .56-11.8 1.36-17.21 2.39-6.12 1.16-12.24 2.72-18 4.22l1.09-.24q-2.53.65-5 1.32c.23-.33.46-.66.67-1-2.31 1.32-4.6 2.68-6.86 4.11q-2.1 1.35-4.16 2.82A49.56 49.56 0 0 0 695 853c-2.1 1.74-4.32 3.73-6.77 6.07l-.89.84c-2.19 2.1-4.46 4.27-6.54 6.54-2.3 2.5-4.63 5.2-7.14 8.25-1.66 2-3.42 4-5.13 5.95-.73.84-1.47 1.67-2.19 2.51-8.37 9.61-17 20.46-26.51 33.17-3.8 5.18-7.65 10.62-11.45 16.15l-.88 1.27c-3.46 5-7 10.25-10.23 15.6a290.7 290.7 0 0 0-20.35 42c-7.93 21-14.85 44.43-21.76 73.79-2.32 9.91-4.78 20.84-7.74 34.4-1.77 8.11-3.74 17.75-5 27.7a116.28 116.28 0 0 0 .34 25.18 63.64 63.64 0 0 0 3.47 11.28 49.9 49.9 0 0 0 4.49 7.47 39.53 39.53 0 0 0 4.65 4.59 38.13 38.13 0 0 0 6.3 3.23 65.94 65.94 0 0 0 13.93 3.29c4.22.4 8.12.59 11.93.59 1.09 0 2.18 0 3.28-.05 2.83-.08 5.66-.22 8.48-.35q3.69-1.82 7.35-3.64c12.73-6.37 26.17-13.64 43.57-23.57l7.87-4.5c13.2-7.55 26.86-15.36 40.46-22.72l4.44-2.41c6.35-3.45 12.93-7 19.52-10.29 6.22-3.09 12.72-6.17 19.69-9.34 15.21-11.54 29.65-24.06 43.83-36.83q4.6-4.15 9.18-8.35 5.93-5.41 11.83-10.86l1-1 7.15-6.55c4.76-4.37 9.52-8.74 14.21-13.18 13.75-13 27-26.54 40.24-40.11 21-21.49 41.75-43.2 63.82-63.56a90.49 90.49 0 0 1 8.07-5.45 10.91 10.91 0 0 1 5.16-2.07h2.92a10.86 10.86 0 0 1 4 1.41q-5.34 19.65-10 39.5c-2.09 4.58-4 9.24-5.8 13.93-4.09 10.75-7.81 21.59-11.07 32.6a518.21 518.21 0 0 0-14.73 68.45 570.71 570.71 0 0 0-5.31 70.21 808.6 808.6 0 0 0 5.45 100.57c3.36 29.13 8.29 58 13.21 86.93 2.46 14.44 4.9 28.9 7.11 43.38 2.16 14.21 3.71 28.54 6.44 42.66 5.26 27.22 13.37 53.87 17.5 81.32 1.08 7.19 2.07 14.41 2.56 21.67s.72 14.31.71 21.47c0 12-.09 24.22-2 36.11a94.84 94.84 0 0 0 10.34 12.49q5.88 6 11.94 11.8c4.42 4.24 8.61 8.68 12.84 13.11l-.32-.34 1.49 1.6a31.87 31.87 0 0 0 3.12-1.51 40.77 40.77 0 0 0 6-5 67.43 67.43 0 0 0 8.16-11.45 76.39 76.39 0 0 0 4.4-10 7.21 7.21 0 0 1 3.32-3.77c.3-.79.61-1.58.89-2.37a175.35 175.35 0 0 0 5.57-19.27c4.88-20.8 5.14-42.56 5.38-63.62V1497.64zM1064.92 919c1.77-4.9 4-9.6 6.22-14.31a13 13 0 0 1 11.62-7.48 12.27 12.27 0 0 1 5 1.05c6.14 2.71 9.35 10.38 6.43 16.58-2.23 4.72-4.41 9.45-7.05 14a12.12 12.12 0 0 1-3.87 4.84l-2.7 1.51a12.11 12.11 0 0 1-15.77-6.72 12.73 12.73 0 0 1 .12-9.47z" fill="#ff9258"></path><path d="M957.15 1527.23c2.13 1.58 4.38 4.52 4.59 7.53.23 3.34.36 6.75.5 10 .36 9.14.74 18.59 3.1 27.64a101 101 0 0 0 9.33 20.32 90.44 90.44 0 0 0 12.13 15.43 57.2 57.2 0 0 0 9.16 6.93 37.66 37.66 0 0 0 6.66 2.75 17.38 17.38 0 0 0 9.29-.18c.67-.23 1.32-.51 2-.78l-1.49-1.6.32.34c-4.23-4.43-8.42-8.87-12.84-13.11q-6-5.82-11.94-11.8a94.84 94.84 0 0 1-10.34-12.49c2-11.89 2-24.09 2-36.11 0-7.16-.24-14.33-.71-21.47s-1.48-14.48-2.56-21.67c-4.13-27.45-12.24-54.1-17.5-81.32-2.73-14.12-4.28-28.45-6.44-42.66-2.21-14.48-4.65-28.94-7.11-43.38-4.92-28.89-9.85-57.8-13.21-86.93a808.6 808.6 0 0 1-5.45-100.57 570.71 570.71 0 0 1 5.31-70.21 518.21 518.21 0 0 1 14.82-68.35c3.26-11 7-21.85 11.07-32.6 1.77-4.69 3.71-9.35 5.8-13.93q4.65-19.84 10-39.5a10.86 10.86 0 0 0-4-1.41h-2.92a10.91 10.91 0 0 0-5.16 2.07 90.49 90.49 0 0 0-8.07 5.45c-21.99 20.38-42.79 42.07-63.74 63.56-13.22 13.57-26.49 27.08-40.24 40.11-4.69 4.44-9.45 8.81-14.21 13.18l-7.15 6.55-1 1q-5.9 5.44-11.83 10.86-4.57 4.19-9.18 8.35c-14.18 12.77-28.62 25.29-43.83 36.83l4.5-2 2.9-1.32q2.76-1.28 5.55-2.52c1.36-.6 2.73-1.17 4.1-1.76 1.14-.47 2.27-1 3.4-1.44l3.13-1.47c2.18-1 4.44-2.1 6.69-3.06a54.08 54.08 0 0 1 9.4-3 5.24 5.24 0 0 1 1.26-.15 4 4 0 0 1 .61 0 4 4 0 0 1 1.05-1 3.79 3.79 0 0 1 2-.54 3.71 3.71 0 0 1 2.66 1.07c5.83-3.29 11.67-6.64 17.59-9.87 1-.67 2-1.34 3-2 7.14-4.45 14.46-8.61 21.79-12.72l-2.71 1.51c11.78-6.6 23.43-13.36 34.88-20.53a299.69 299.69 0 0 0 28.35-19.69 412.59 412.59 0 0 0-8.84 42.59 545.64 545.64 0 0 0-6.08 76.29c-.38 26.35.66 52.65 2.86 78.91 4.88 58.07 17.7 115 25.7 172.62.94 6.77 1.81 13.55 3 20.28 1.24 7.13 2.75 14.21 4.33 21.27 3 13.52 6.46 26.94 9.44 40.47a294 294 0 0 1 6.48 41.18q.21 2.87.34 5.75h.5a11.9 11.9 0 0 1 6.96 2.3z" fill="#bf6941"></path><path d="M1071.12 935a12.17 12.17 0 0 0 9.42.15l2.7-1.51a12.12 12.12 0 0 0 3.87-4.84c2.64-4.5 4.82-9.23 7.05-14 2.92-6.2-.29-13.87-6.43-16.58a12.27 12.27 0 0 0-5-1.05 13 13 0 0 0-11.62 7.48c-2.21 4.71-4.45 9.41-6.22 14.31a12.73 12.73 0 0 0-.15 9.42 12.19 12.19 0 0 0 6.38 6.62z" fill="#bf6941"></path><path d="M821.3 1269.73l-1.11.27c-4 1-8.25 2.08-13.81 3.55-19.57 5.2-39.43 10-58.1 14.38-17.8 4.23-38.82 9.14-59.61 13.52-46.16 9.72-84.38 15.45-120.28 18H568a6.3 6.3 0 0 1-1.56-.21c1.24 14.8 2.7 30 4.42 45.78 2 18.32 4.25 37 6.44 55l.23 1.93c2.69 22.17 5.47 45.06 7.82 67.63 2.05 19.63 4.62 39.53 7.1 58.77l.07.55c2.77 21.42 5.63 43.58 7.78 65.44.94 9.59 1.72 19.41 2.37 30 .37 5.86.59 11.83.8 17.6.17 4.72.36 9.75.63 14.67 1.1 20.19 3.65 40.49 6.39 61.25 3.63 27.45 7.75 58.55 7.63 89.64a253.5 253.5 0 0 1-1.72 25.74 159.08 159.08 0 0 1-4.6 22.35c-6 19.69-15 38.52-23.79 56.73-2.13 4.44-4.22 8.78-6.26 13.13a335.16 335.16 0 0 0-14.85 36.17 250.41 250.41 0 0 0-10 42.49 342.07 342.07 0 0 0-3.3 43.18c-.3 13.69-.13 28.2.55 45.65.33 8.53.76 17.22 1.18 25.63l.07 1.46c1 19.93 2 40.48 1.91 60.72-.34 17.6-1.78 35.44-3.17 52.69-.69 8.48-1.34 16.65-1.89 24.8-1.49 22.1-2.62 47.61-.5 73.58a9.52 9.52 0 0 1 1.32-.13c2.3 4.24 4.75 8.41 7.11 12.62.07.17.13.34.21.51l.43.92c-.21.6-.44 1.22-.71 1.84.73 2 1.42 4 2.11 6 1.79 5.16 3.69 10.67 5.7 16.1s4.26 11 6.76 16.62a148.36 148.36 0 0 0 7.51 15 69.21 69.21 0 0 0 8.67 11.07 47.78 47.78 0 0 0 7.12 5.25 43.24 43.24 0 0 0 6.72 2.84q.85.14 1.71.21l.3-.05.17-.1c.33-.25.65-.52 1-.78a41.06 41.06 0 0 0 3.82-5.56c1.25-2.36 2.44-4.8 3.59-7.16 1-2 2-4.11 3.05-6.14l.27-.54c2.68-5.17 5.45-10.52 9.22-15a45.19 45.19 0 0 1 7.15-7.08l.44-.33c2.33-1.75 4.75-3.57 7.27-5.15l1-.63a18.18 18.18 0 0 1 4.09-2.22c.36-.11.72-.24 1.08-.37a13.75 13.75 0 0 1 2.69-.75 19.22 19.22 0 0 1 2.4-.16h1.23a10.31 10.31 0 0 1 4.23 1c.33.14.72.33 1.14.55 3.42-8.57 6.36-17.21 9.07-25.61 9.65-29.87 16.77-61 23.65-91.1 2.73-11.93 5.55-24.26 8.49-36.34 5.21-21 10.11-38.26 15.42-54.37 1.66-5 3.39-10 5.11-15 1.34-3.88 2.68-7.76 4-11.65 3-8.84 6.07-18.37 9.49-29.13 11.38-35.87 21.93-72.9 32.25-113.23 10.68-41.69 19-79.11 25.57-114.4 6.37-34.5 12-71.81 17.27-114 9.14-73.62 14.75-144.85 21.13-230.32l2-26.2q1.17-15.37 2.32-30.73c1.29-17.47 2.18-36 2.71-56.65.52-19.44.63-38.87.35-57.74-.26-17.48-.94-36.4-2.06-57.86-.94-18.1-2.48-36.15-4.11-54.59.3-2.17.57-4.23.81-6.25a17.24 17.24 0 0 1-6.76 3.16c-2.09.59-4.02 1.06-5.96 1.54z" fill="#bf6941"></path><path d="M502.69 1233.29c-3.05-.15-6.14-.4-9.14-.63l-1.14-.1-5.44-.45q8.19-2.37 16.2-5.28l2.55-.39 1-.15c11.73-2 24.12-5.51 39-10.9 6.32-2.3 12.6-5 18.68-7.56l1.63-.7c5.55-2.37 11.86-5.05 18-7.78 5.39-2.44 10.82-5 16.09-7.52-1.87.28-3.52.49-5 .62l-1.58.15c-1.94.19-4 .39-5.93.39h-.39a67.5 67.5 0 0 1-8.26-.61 52.78 52.78 0 0 1-7.73-1.62l-1.43-.41c-1.61-.46-3.27-.93-4.86-1.54a58.19 58.19 0 0 1-13.52-6.77 44.61 44.61 0 0 1-6.49-5.33 56 56 0 0 1-4.86-5.86 37.4 37.4 0 0 1-3.3-5.35 81.28 81.28 0 0 1-3.72-8.3 66.83 66.83 0 0 1-3.34-14.56c-1.41-10.67-.31-21.33.94-30.35 1.18-8.53 3-16.94 4.85-24.74 5.54-23.81 10.8-43.39 16.54-61.65 8.28-26.31 17.27-48.82 27.47-68.84 8.49-16.74 19.69-34.06 35.24-54.62a261.68 261.68 0 0 1 19.82-23.62c4.15-4.31 8-8 11.9-11.3l.17-.14a102.55 102.55 0 0 1 13.11-10c2.15-1.3 4.44-2.59 6.8-3.81-2.23.56-4.45 1.14-6.68 1.74-13.08 3.53-24.06 6.59-35 10.09-5.46 1.73-10.92 3.42-16.38 5.11-6.21 1.92-12.42 3.83-18.6 5.83l-7 2.23q-5.24 1.66-10.46 3.36l-1 .32a6.18 6.18 0 0 0-1.81.5C516.82 899.25 463 913.94 411.81 935l-6.54 1-1.07.17a10.54 10.54 0 0 1-.12-10.48c2.37-3.36 5.09-6.8 8.53-10.81a73.07 73.07 0 0 1 10.8-9.94A120.36 120.36 0 0 1 444.15 892a189.87 189.87 0 0 1 25.9-10.66c8.37-2.69 16.91-4.64 24.26-6.25 5.94-1.3 11.3-2.59 16.42-3.93H510c-2.46 0-4.9.07-7.23.21-3.35.19-6.73.58-10 .94l-2.27.26-2.56.27c-2.65.27-5.4.54-8.08 1-7.65 1.33-15.33 2.92-22.84 4.72a122.31 122.31 0 0 0-20.9 7.09c-1.07.49-2.15 1-3.2 1.51a7.47 7.47 0 0 1-3.4.92 6.24 6.24 0 0 1-1.41-.17 6.32 6.32 0 0 1-4.64-7.77 6.15 6.15 0 0 1 2.81-3.83 109.18 109.18 0 0 1 13.93-6.84 135.93 135.93 0 0 1 13.53-4.78 104.75 104.75 0 0 1 16.26-3.37c4.87-.61 9.81-.84 14.86-1 1.54-.06 3.08-.11 4.62-.11 1.1 0 2.2 0 3.31.09 2.3.13 4.74.32 7.93.62 4.13.38 9.59.92 15.08 1.7 4.7.65 9.59 1.56 14.94 2.76 6.36-1.8 12.24-3.34 18-4.71 8.91-2.14 18.45-4.2 30.93-6.68 9.58-1.89 19.37-3.44 28.85-4.93l1.43-.21c6.8-1.1 13.74-1.85 20.45-2.58 2.08-.22 4.15-.44 6.24-.68 5.26-.59 10.3-1.09 15.26-1.53-19.41-6.07-39.09-10.41-57.61-14.2-10.1-2.06-20.38-4-30.32-6-14.17-2.73-28.83-5.55-43.17-8.65-13.88-3-25.38-5.74-36.2-8.64-11.46-3.06-23.6-6.57-35.32-11.27a5.57 5.57 0 0 1-2.78-3.46 5.67 5.67 0 0 1 .48-4.55 42.93 42.93 0 0 0 2.5-4.23c-1.53 2.45-3 4.91-4.32 7.17-2.08 3.52-4 7.21-5.83 11a117.78 117.78 0 0 0-4.95 12.69c-.69.89-1.37 1.79-2.08 2.66-3.76 4.69-7.65 9.29-11.56 13.86q-6.36 7.44-12.57 15c-7.94 9.58-15.76 19.23-23.16 29.25a275.21 275.21 0 0 0-18.85 29.12c-10.72 19.15-18.27 39.88-23.68 61.11-1.13 4.42-2.1 8.9-3 13.39a267.36 267.36 0 0 0-7.17 32.6 255.83 255.83 0 0 0-2.61 40.24 226.38 226.38 0 0 0 3.67 38.59 269.78 269.78 0 0 0 11.1 41.46 197.29 197.29 0 0 0 14.72 31.65 161.32 161.32 0 0 0 18.12 25.77 156.79 156.79 0 0 0 24.19 22.92 160.38 160.38 0 0 0 14.41 9.43A114.57 114.57 0 0 0 430 1228a138 138 0 0 0 16.46 5.48 104.71 104.71 0 0 0 15.75 3.14 121.21 121.21 0 0 0 15.23.79h2.57a105.57 105.57 0 0 0 17.08-1.63c3.95-.67 7.91-1.55 11.82-2.48-.94 0-1.89.06-2.82.06-1.09.01-2.26-.01-3.4-.07zM428 854.18l.71-1.16z" fill="#605a4a"></path><path d="M428 854.18l.71-1.16" stroke="#605a4a"></path><path d="M748.27 232.88c-.88-.35-1.75-.72-2.59-1.13-.11-.46-.21-.92-.29-1.37a37 37 0 0 1-.61-7.79c.18-9.64 1.51-19.48 5.41-28.36 3.24-7.37 9.39-12.36 15.6-17.15 1.15-.9 2.3-1.81 3.41-2.76a5.41 5.41 0 0 1 .71-2.66 15.34 15.34 0 0 1 2.67-3.45 11.23 11.23 0 0 1 3-2l1.08-.49c.21-.27.4-.54.61-.8 1-1.32 2.1-2.65 3.13-4a47.84 47.84 0 0 0 4.17-6.28c.59-1.11 1.11-2.25 1.65-3.38l-.91.19c-2.12.51-4.23 1.1-6.31 1.76-.66 0-1.31-.08-2-.16a72.26 72.26 0 0 1-15.47-3.6 148.33 148.33 0 0 1-16.27-6.92l-3.54-1.77c-2.44-1.24-5-2.53-7.51-3.67a64.63 64.63 0 0 0-13.07-3.73c-1.59-.14-3.28-.22-5-.22a70.09 70.09 0 0 0-7.42.42 57.38 57.38 0 0 0-12.15 3.44 71.38 71.38 0 0 0-13.57 8.21 104.78 104.78 0 0 0-10.76 9.69 155.84 155.84 0 0 0-10.44 11.69 70.743 70.743 0 0 0-3 4.21 1.54 1.54 0 0 0-.08.19l-.1.17.11-.16-.18.41-.5 1.22-.73 1.73a4 4 0 0 1-1.68 2.2 3.72 3.72 0 0 1-1.87.5 3.44 3.44 0 0 1-1-.13 4.12 4.12 0 0 1-.58-.23h-.26a4.37 4.37 0 0 1-3.05-1.26 4.74 4.74 0 0 1-1.26-3.08 95.17 95.17 0 0 0-2.36-10.61 129.09 129.09 0 0 0-5.06-15.19 88 88 0 0 0-9.49-17.65 27.86 27.86 0 0 0-3.33-3.51l-.34-.24a21.52 21.52 0 0 0-1.53 1.64 30.59 30.59 0 0 0-2.76 4.62 60.89 60.89 0 0 0-2.9 12.54c-.26 2.08-.47 4.15-.69 6.22-.38 3.59-.76 7.3-1.35 10.93a114.52 114.52 0 0 1-2.78 12.48 12.45 12.45 0 0 1 3.48 1.61 29.66 29.66 0 0 1 10.18 11.4c2.45 4.8-.25 10.93-5 13.06a10.08 10.08 0 0 1-11.69-2.8c-.21-.24-.44-.47-.65-.7-.94 3.7-2.08 7.51-3.48 11.49-3.14 8.92-7 17.73-10.68 26.32-1.29 3-2.58 5.95-3.85 8.91-1.57 3.78-3.4 8.27-5.08 12.94a5.06 5.06 0 0 1-4.8 3.65 4.61 4.61 0 0 1-1.28-.19l-.07.17a225.87 225.87 0 0 0-8.21 22.82c-.78 2.78-1.54 5.73-2.33 9-2.6 1.8-5.07 3.67-7.15 5.27-2.33 1.78-4.46 3.45-6.44 5.05a7.44 7.44 0 0 1 1.11 3.24c.11.65.21 1.29.31 1.93 1 5.67 2.14 11.29 3.38 16.9 2.32 3.45 4.6 6.93 6.66 10.55.68 1.18 1.33 2.37 2 3.56.86 2.41 1.69 4.84 2.49 7.27a219.07 219.07 0 0 1 9.68 43 138 138 0 0 1 1 20.63 119 119 0 0 1-2.5 21.2c-.28 1.33-.62 2.64-1 4 2.25 3.56 4.56 7 6.95 10.35a192 192 0 0 0 19.27 22.86 156.86 156.86 0 0 0 19.52 16.6c2.73 1.4 5.5 2.73 8.36 3.88 5.26 2 10.6 3.84 16 5.39 1.85.52 3.72 1 5.6 1.36a3.06 3.06 0 0 1 2.12-2 62.55 62.55 0 0 0 8.52-2.49 67.24 67.24 0 0 0 11.23-6.53 53.73 53.73 0 0 0 5.13-4.39c1.76-1.78 3.4-3.65 5-5.59 3.5-4.77 6.51-9.83 9.69-14.84 1.88-3 3.82-5.88 5.75-8.81a64.05 64.05 0 0 0 4.51-7.66 81.54 81.54 0 0 0 4.81-17.67 178.08 178.08 0 0 0 1.2-21.65 154.94 154.94 0 0 0-1-19.62 1.58 1.58 0 0 1 0-.58 147.5 147.5 0 0 0-4.77-16.85 6.63 6.63 0 0 1-.12-3.84l-.79-.9c-.11-.61-.21-1.21-.31-1.82-.13-.29-.24-.59-.36-.88a88.87 88.87 0 0 0-5.84-11.53 49.64 49.64 0 0 0-3.65-4.91 23 23 0 0 0-4.93-4.35 51.71 51.71 0 0 0-5.22-3l-1.74-.94a60.22 60.22 0 0 1-2.64 9.19 5 5 0 0 1-1.32 2.28 5.11 5.11 0 0 1-2.29 1.33 5.18 5.18 0 0 1-1.35.19 5.34 5.34 0 0 1-2.62-.71c-6.46-3.63-12.52-9-18.51-16.36a162 162 0 0 1-16.19-23.89A205.64 205.64 0 0 1 629 279.4a100.53 100.53 0 0 1-5.69-20.59 55.53 55.53 0 0 0 10.69 3.92c6.77 1.86 13.78 2.7 20.7 3.78 9 1.41 17.81 3.54 26.68 5.41 9.83 2.05 19.69 3.91 29.68 5.06 4.74.54 9.51 1 14.29 1.06a62.29 62.29 0 0 0 12.19-1.13 38.55 38.55 0 0 0 4.84-1.23 16.55 16.55 0 0 0 1.9-.54 10.36 10.36 0 0 0 .93-.5 41.93 41.93 0 0 0 7.59-4.07 32.14 32.14 0 0 1-.37 4.56 36.3 36.3 0 0 0 1.17-4.43 98.61 98.61 0 0 0 1.4-11.42c.12-1.47.25-2.95.4-4.42.29-2.69.6-4.92 1-7a31.9 31.9 0 0 0 1.77-3.51c1-2.22 1.82-4.55 2.62-6.81.13-.39.28-.77.42-1.16-.15.16-.26.35-.41.5-4.21-1.27-8.42-2.48-12.53-4zM636.84 377.77c4.62 3.08 9.14 6.3 13.92 9.11a42.37 42.37 0 0 0 7.26 3 28 28 0 0 0 4.08.47 25.22 25.22 0 0 0 2.87-.46 25.54 25.54 0 0 0 2.91-1.34 35.61 35.61 0 0 0 4.86-4 70.41 70.41 0 0 0 8.7-12.36c4.7-8.84 8.19-18.19 11.6-27.58.27 4.65.56 9.3.71 13.92a119.32 119.32 0 0 1-1 18.89c-.49 3.57-1.12 7.12-1.82 10.65a68.84 68.84 0 0 1-3.93 6.33 40.94 40.94 0 0 1-15.83 13.71 35.37 35.37 0 0 1-6.32 2.14 21.13 21.13 0 0 1-4.19.65 40.4 40.4 0 0 1-6.6 0 47.7 47.7 0 0 1-6.89-1.46 46.21 46.21 0 0 1-13.29-6.25 49 49 0 0 1-5.55-4.3 82.05 82.05 0 0 1-6-5.9l-1.33-1.46q-3.06-4.29-5.84-8.77c-9.76-16.19-16.94-33.73-24.48-51q-1.07-2.46-2.16-4.9c3.37 4.26 6.77 8.5 10.16 12.72a303.19 303.19 0 0 0 23.68 26.72 111.24 111.24 0 0 0 14.48 11.47zm-4-210.48a6.09 6.09 0 0 1-6.78-2.76 31.22 31.22 0 0 1-2.76-6.52c-1.09-3.24 1.21-6.83 4.37-7.7a6.19 6.19 0 0 1 4.82.63 6.5 6.5 0 0 1 2.88 3.74 52.94 52.94 0 0 1 1.66 5.23 6.08 6.08 0 0 1-4.2 7.38zm67.6-25.29c1.82-.27 3.65-.49 5.48-.73 3.77-.57 7.45-1.67 11.26-1.95 1.06-.08 2.12-.12 3.19-.12a39.2 39.2 0 0 1 8.1.82 23.65 23.65 0 0 1 6.95 2.69 28.83 28.83 0 0 1 5.74 4.27c3.54 3.5 6.7 8.1 7.68 13a10.18 10.18 0 0 1-1 7.53 9.8 9.8 0 0 1-15.37 2 85.81 85.81 0 0 1-5.55-7.56c-1-1.5-2.1-3-3.2-4.44a50 50 0 0 0-6.41-7.06 36.36 36.36 0 0 0-6.16-3.58 18.22 18.22 0 0 0-3.71-1 27 27 0 0 0-5.54.15l-.34.05a2.18 2.18 0 0 1-2.6-1.47 2.12 2.12 0 0 1 1.48-2.6zm8.71 48.82c-1.84-1.24-3.39-3.35-3.2-5.7a9.68 9.68 0 0 1 .55-2.9 7 7 0 0 1 2.89-3.79c-1.2-1.16-2.41-2.3-3.69-3.37a28.47 28.47 0 0 0-5.05-2.9 29.54 29.54 0 0 0-6-1.69c-.91-.1-1.82-.17-2.75-.2a3.29 3.29 0 0 1-.08-6.58h.08a45.36 45.36 0 0 1 12.46 2.31c2.15.67 4.26 1.46 6.38 2.21a38.59 38.59 0 0 1 6.19 2.77 48.06 48.06 0 0 1 6.46 4.4 24.11 24.11 0 0 1 2.61 2.33c.85.91 1.6 1.87 2.35 2.85a27 27 0 0 1 3.67 6.54 44.44 44.44 0 0 1 1.64 5.38 4.26 4.26 0 0 1-1.91 4.74 4.19 4.19 0 0 1-5.08-.66c-1.66-2-3.58-3.61-5.38-5.43-1-1-1.93-2-2.89-3a8.89 8.89 0 0 1-2.71 2.75 6.34 6.34 0 0 1-6.54-.02zm44.6 58.4a10.49 10.49 0 0 1-.62 1.7 4.15 4.15 0 0 1-.86 1.09 6.19 6.19 0 0 1-1.56 1.17l-.21-.1-.32-.13c.05 1.73.12 3.46.15 5.19-.36.21-.73.41-1.09.6a20 20 0 0 1-2.7.83 22 22 0 0 1-3.72.07 40.89 40.89 0 0 1-7.77-2 42.07 42.07 0 0 1-7.49-4.14 53.52 53.52 0 0 1-7.87-7.77c-1-1.27-1.92-2.57-2.84-3.88-.25-.35-.48-.7-.72-1l-.55-.8c-.22-.32-.45-.64-.67-1l.46.05a20.79 20.79 0 0 0 4.32 0c1.58-.38 3.13-.92 4.69-1.42 1.28-.4 2.52-.95 3.81-1.35a49.78 49.78 0 0 1 9.42-2.2 13.56 13.56 0 0 1 1.43-.07 15.59 15.59 0 0 1 12.8 7.16 8.1 8.1 0 0 1 .65 1.15 19.34 19.34 0 0 1 1 2.39c.29 1.36.76 3.1.26 4.5z" fill="#ff9258"></path><path d="M162.55 828.68l-.55 3.76c-.75 5.14-1.54 10.45-2.53 15.63l-.1.49v.05-.05c2.14-10.35 3.85-20.89 5.21-32.24.35-2.91.68-5.84 1-8.77l-.15 1.09c-.8 5.93-1.71 12.29-2.88 20.04z" fill="#ff9258"></path><path d="M153.31 875.13c.71-18.68 3.57-37.25 5.1-55.87 1.24-15 1.83-30.4-.46-45.34.74-7.91 1.66-16.17 2.83-24.49 2.85-20.42 7.27-36.69 13.89-51.2A101.49 101.49 0 0 1 189 675.41c6.5-7.82 14.49-14.4 21.54-20.21 13-10.68 26.53-19.92 41.87-29.73-7.94-11.81-15.56-23.68-22.93-35.2-7.56-11.79-16.12-25.14-24.73-37.93-6.49-9.63-12.87-18.69-19.35-27.47-5.3 6.19-10.52 12.47-15.58 18.78a840.93 840.93 0 0 0-50.38 70 614.89 614.89 0 0 0-40.94 74c-6.43 13.82-12 27.93-16.69 39.92-4.9 12.62-9.58 25.61-14.29 39.74-8.72 26.16-16.58 54-23.36 82.6a893 893 0 0 0-23.6 171.51c-1.21 31.77-.46 59.38 2.3 84.4 2.92 26.34 8.31 54 16.47 84.49 7.7 28.75 17.47 56.92 26 80.68 1.61 4.48 3.26 8.92 4.91 13.37 3.27 8.8 6.64 17.89 9.59 27 2.27 7 4.15 13.38 5.75 19.56.76 3 1.55 6.22 2.37 9.88l.54 2.43c.27 1.23.55 2.49.84 3.74l.18-3.18c.43-6.65 1-13.29 1.4-19.94.47-7 1.08-14 1.65-21q.81-10 1.63-20a3.67 3.67 0 0 1 .93-2.44 3.41 3.41 0 0 1 2.32-1h.09c1.66 0 3.51 1.45 3.38 3.25a81.66 81.66 0 0 0-.16 11c.2 3.33.54 6.63.94 10 .51 4.25 1.17 8.48 1.79 12.71.06.33.12.63.17 1 1.2 7.58 2.13 15.33 3 22.83l.36 2.91c.82 6.71 1.74 13.34 2.81 20.68v-3.9c0-7.45.19-14.89.41-22.33s.42-15 .72-22.55.26-15 .21-22.56c-.06-7.86 0-15.72 0-23.57 0-3.89.05-7.78.12-11.67.06-3.47.3-6.94.58-10.41a251.85 251.85 0 0 1 6.46-42 1.75 1.75 0 0 1 1.78-1.4 1.84 1.84 0 0 1 1.91 2.29c-.13.5-.23 1-.35 1.51 1.43 2.38 2.92 4.72 4.49 7a165.46 165.46 0 0 0 14 17.74 71.24 71.24 0 0 0 7.35 7.29 39.65 39.65 0 0 0 5.56 3.77 21.77 21.77 0 0 0 3.3 1.49 7.82 7.82 0 0 0 2.06.44l-.07-.07c-2.8-6-5.71-11.82-8.33-17.84-2.35-5.41-4.65-10.84-7-16.22a126.13 126.13 0 0 0-10-18.68c-3.54-5.23-7.47-10.13-11.37-15.07a117.78 117.78 0 0 1-10.36-14.75 72.5 72.5 0 0 1-7.76-19.69c-.22-1-.42-2-.61-3-.67-4.19-1.23-8.39-1.55-12.6a97.7 97.7 0 0 1-.12-8.21l-.15.4c.16-7.61.45-15.22.91-22.83q.9-7.89 2.09-15.73 1.38-4.92 2.74-9.83c1.85-6.7 3.72-13.39 5.68-20.06.31-1.08.63-2.16 1-3.23 6.73-16.2 14.26-32.08 21.76-48a3.13 3.13 0 0 1 .9 2.8c-.64 4.54-1.46 9.06-2.09 13.61-.2 1.47-.39 2.94-.58 4.41 3.79-9.63 7.59-19.46 11-29.3 3.68-10.79 6.79-21.71 9.66-32 3.2-11.43 6.3-23.55 9.5-37.06 4.37-18.49 8.31-37.34 12.12-55.72 0 .1 0 .21-.07.31-.72 2.75-1.57 5.67-2.41 8.56z" fill="#ff9258"></path><path d="M271.43 514.55c6.25 6.7 12.58 14.05 18.82 21.84 5 6.27 11.56 14.59 17.71 23.4 3.08 4.41 6.1 8.86 9.11 13.31 1.51 2.24 3 4.46 4.55 6.69 3.12-2.46 6.21-5 9.2-7.54 1.6-1.33 3.19-2.66 4.81-4 6.31-5.19 12.2-9.75 18-13.94 5.61-4 11.36-8 17.09-11.67q3.54-2.28 7.11-4.5c2.86-1.8 5.81-3.65 8.69-5.54 26.66-16.86 53.24-33.87 79.39-51.52l.22.21a8.47 8.47 0 0 1 2.38 5.75 66.85 66.85 0 0 1-.24 9.07c-.24 3.27-.5 6-.83 8.45a130.65 130.65 0 0 1-3.56 18.85 85.45 85.45 0 0 1-7 17.64 58.09 58.09 0 0 1-4.62 7.17 48.88 48.88 0 0 1-6.34 7.18 44 44 0 0 1-7.79 5.68 28.68 28.68 0 0 1-6.8 2.83l.8.08c.87.08 1.77.11 2.67.12 3.07-1.15 6.15-2.25 9.18-3.48 2.6-1.65 5.19-3.31 7.75-5 5.49-3.72 10.95-7.51 16.43-11.27 6.28-4.29 12.52-8.64 18.66-13.13a4.7 4.7 0 0 1 .8-1.49c2-2.62 4.12-5.17 6.13-7.81 4.12-5.83 8.09-11.77 12-17.77s7.33-12 10.75-18.15c1.68-3.05 3.39-6.1 5.09-9.15a232.74 232.74 0 0 0 5.86-26.65c.18-1.1.31-2.2.48-3.3a1.59 1.59 0 0 1-.67-1.37 153.08 153.08 0 0 0-1.48-25.67c-.9-6.37-2.12-12.7-3-19.08-1-7.41-2-14.86-2.43-22.32-.42-6.91-.64-13.84-.89-20.76-.24-6.41-.49-12.82-1.25-19.2 0-.2-.07-.39-.1-.59-1.67.28-3.42.47-5.1.61-3.09.26-6.18.54-9.27.56-3.82 0-7.63-.05-11.44-.15a101.61 101.61 0 0 1-9.3 7.68 134.79 134.79 0 0 1-26.3 15.14 141.29 141.29 0 0 1-14.2 5.1c-5.41 1.63-10.86 3.18-16.4 4.32a154 154 0 0 1-16.28 2.57c-6.41.63-12.82 1.13-19.22 1.8-7.19.75-14.32 1.8-21.48 2.7-2.76.34-5.53.67-8.29 1-1.79 1.17-3.58 2.34-5.36 3.54-4.9 3.29-9.73 6.67-14.59 10s-9.68 6.72-14.7 9.83-10.09 6-14.87 9.39c-4.42 3.16-8.77 6.4-13.09 9.7l1-.73c-2.09 1.62-4.2 3.23-6.3 4.84-8.47 6.69-16.55 13.87-24.42 21.26-1.6 1.5-3.16 3.05-4.74 4.56-1.39 1.71-2.78 3.45-4.19 5.22l-2 1.48-2.8 2.07c-2.91 2.91-5.83 5.83-8.67 8.82a1.17 1.17 0 0 1-2-.82c-5.3 4.05-10.28 8-15.14 12A104.19 104.19 0 0 1 251 495a235.3 235.3 0 0 1 20.43 19.55z" fill="#ff9258"></path><path d="M978.08 504.44z" fill="#ff9258"></path><path d="M971.76 520.53c.68-1.44 1.32-2.89 2-4.35-.68 1.46-1.32 2.91-2 4.35z" fill="#ff9258"></path><path d="M968.13 179.34q1.14 7.75 2.29 15.52a6.07 6.07 0 0 0 .61 1.89c.4 5.24 1.08 10.44 1.9 15.64s2 10.32 3.22 15.42c1.26 5.28 2.82 10.47 4.23 15.72.19.71.37 1.43.56 2.14a186.72 186.72 0 0 1 1.19-22.67c1-8.1 2.08-16.17 3-24.27.4-4.15.66-8.3.67-12.45q2.86-10.71 5.34-21.53c3.27 11.2 3.84 22.79 4.29 34.38.24 6.36.17 12.72.51 19.07.28 5.42.71 10.82 1.46 16.19.91 5.16 2.11 10.27 3.4 15.37.72-4.51 1.5-9 2.1-13.52.62-4.7 1.27-9.39 1.87-14.09-.47-6.66-.82-13.35-1.14-19.88s-.75-14.27-1.37-21.8c-.57-6.73-1.47-13.85-2.76-21.76v-.23l-.12-.75-.15-.9a7.07 7.07 0 0 0-6.82-5.06h-.21a7.21 7.21 0 0 0-4.9 2.18l-.55.74-.54.74a7.14 7.14 0 0 0-.89 3.68c-1.46 14.13-2.6 28.16-3.87 44.86-.58-2.12-1.18-4.25-1.76-6.38-1-3.63-1.82-7.26-2.65-11l-.14-.65c-.82-3.69-1.66-7.51-2.38-11.28a99.32 99.32 0 0 1-1-16.9 2.76 2.76 0 0 0-.81-2 3.25 3.25 0 0 0-2.24-1 3.14 3.14 0 0 0-3 3.15v1.38c-.12 4.33-.23 8.81-.46 13.21-.11 2.13-.26 4.26-.4 6.38-.19 2.68-.37 5.36-.49 8.05-.15 3.54-.14 7.15-.14 10.64v3.63c0 4.93.09 9.94.2 14.2.14 5.17.44 9.8.92 14.13l.09.72c0-5.08-.11-10.17-.13-15.25-.19-11.85.09-23.78 1.07-35.66z" fill="#ff9258"></path><path d="M976.91 508c0 .09 0 .18-.08.26-.74 2.1-1.53 4.16-2.37 6.2.84-2 1.63-4.1 2.37-6.2.03-.09.05-.18.08-.26z" fill="#ff9258"></path><path d="M714.78 838.91c-.17.19-.34.38-.53.56a2.34 2.34 0 0 1 .46.09c0-.07.09-.14.13-.22z" fill="#ff9258"></path><path d="M446.5 791.84a5.57 5.57 0 0 0 2.78 3.46c11.68 4.73 23.86 8.21 35.27 11.27 10.82 2.9 22.32 5.64 36.2 8.64 14.34 3.1 29 5.92 43.17 8.65 9.94 1.92 20.22 3.9 30.32 6 18.52 3.79 38.2 8.13 57.61 14.2 3.15-.28 6.28-.54 9.39-.76l6.87-.5c5.82-.44 11.84-.89 17.78-1.17 4.87-.23 10-.57 15.89-1-.63-.45-1.25-.92-1.84-1.43a32.09 32.09 0 0 1-2.23-3 13.92 13.92 0 0 1-1.68-4.89 35.86 35.86 0 0 1-.59-8.9c.3-5 .88-10 1.54-14.91.26-2.05.5-4.11.68-6.17.2-2.33.28-4.67.44-7 .31-4.58.9-9.06.36-13.63-.17-1.15-.38-2.3-.59-3.45a1.4 1.4 0 0 1 1-1.7 1.34 1.34 0 0 1 .35 0 1.37 1.37 0 0 1 1.35 1 54.22 54.22 0 0 0 2.51 8.68c1 2.27 2.14 4.51 3.1 6.81-.2-1.61-.37-3.23-.47-4.86-.93-14.1.89-28.32 4.16-42 4.71-19.78 12-38.79 18.11-58.15-.36 0-.71.09-1 .11l-.12.13A16.87 16.87 0 0 1 718 692a25.12 25.12 0 0 1-7.34.47 100.17 100.17 0 0 1-13.76-2.36c-6.72-1.52-13.35-3.3-20-5.21s-13.2-3.78-19.91-5.17c-6.33-1.31-12.72-2.26-19.13-3.13-13.17-1.72-26.36-3.22-39.61-4.19-6.95-.5-13.91-.73-20.87-1-6.39-.25-12.77-.3-19.17-.23-6.9.06-13.79 0-20.69.18s-13.79.31-20.66.67c-13.3.71-26.55 2-39.74 3.82h.27l-5.06.68.8-.11c-3.88.54-7.73 1.19-11.57 1.91 2.77 8.81 5.63 17.6 8.24 26.47 2.71 9.18 5.2 18.42 7.57 27.69a277 277 0 0 1 6.38 29.71 136.33 136.33 0 0 1 1.43 15.75c.1 4.29 0 8.58.08 12.86a4.14 4.14 0 0 1-3 3.95 4.2 4.2 0 0 1-4.61-1.89 93 93 0 0 1-8-12.35A97.53 97.53 0 0 1 463.5 766a167.78 167.78 0 0 1-5-21.09q-.19 3.35-.51 6.61a108.79 108.79 0 0 1-5.72 25.48c-.93 2.27-1.85 4.25-2.79 6a42.93 42.93 0 0 1-2.5 4.23 5.67 5.67 0 0 0-.48 4.61zm220.1 16.67c1.25 2.64 2.5 5.28 3.58 8 .9 2.23.21 5.31-.95 7.31a9.5 9.5 0 0 1-16.4 0 57.73 57.73 0 0 1-2.91-5.57 10.26 10.26 0 0 1-1-7.44 9.63 9.63 0 0 1 9.34-7.09 9.54 9.54 0 0 1 2.54.34 9.33 9.33 0 0 1 5.8 4.45z" fill="#ff9258"></path><path d="M716.85 241.88c.92 1.31 1.86 2.61 2.84 3.88a53.52 53.52 0 0 0 7.87 7.77 42.07 42.07 0 0 0 7.49 4.14 40.89 40.89 0 0 0 7.77 2 22 22 0 0 0 3.72-.07 20 20 0 0 0 2.7-.83c.36-.19.73-.39 1.09-.6 0-1.73-.1-3.46-.15-5.19-4.84-2.17-9.8-4.05-14.83-5.73-6.09-2.03-12.29-3.72-18.5-5.37z" fill="#ab2906"></path><path d="M715.57 240l.55.8-.54-.8z" fill="#ab2906"></path><path d="M752.49 242.36a8.1 8.1 0 0 0-.65-1.15 15.59 15.59 0 0 0-12.8-7.16 13.56 13.56 0 0 0-1.43.07 49.78 49.78 0 0 0-9.42 2.2c-1.29.4-2.53 1-3.81 1.35-1.56.5-3.11 1-4.69 1.42a20.79 20.79 0 0 1-4.32 0l-.46-.05c.22.33.45.65.67 1l.54.8c.24.35.47.7.72 1 6.21 1.65 12.41 3.34 18.5 5.38 5 1.68 10 3.56 14.83 5.73l.32.13.21.1a6.19 6.19 0 0 0 1.56-1.17 4.15 4.15 0 0 0 .86-1.09 10.49 10.49 0 0 0 .62-1.7c.5-1.4 0-3.14-.23-4.51a19.34 19.34 0 0 0-1.02-2.35z" fill="#cd3208"></path><path d="M617.83 161.14c.59-3.63 1-7.34 1.35-10.93.22-2.07.43-4.14.69-6.22a60.89 60.89 0 0 1 2.9-12.54 30.59 30.59 0 0 1 2.76-4.62 21.52 21.52 0 0 1 1.53-1.64l.34.24a27.86 27.86 0 0 1 3.33 3.51 88 88 0 0 1 9.49 17.65 129.09 129.09 0 0 1 5.06 15.19 95.17 95.17 0 0 1 2.36 10.61 4.74 4.74 0 0 0 1.26 3.08 4.37 4.37 0 0 0 3.05 1.26h.26a4 4 0 0 1-2.18-3.1 4.37 4.37 0 0 1 0-1.77c.07-.4.14-.81.19-1.21a94.22 94.22 0 0 0-.41-23.94 80 80 0 0 0-4.9-19 40.33 40.33 0 0 0-4.28-7.52 25.26 25.26 0 0 0-3.48-3.59 19.25 19.25 0 0 0-3.23-1.92 18.33 18.33 0 0 0-3.33-.9c-.75-.06-1.49-.1-2.22-.1s-1.52 0-2.28.11a18 18 0 0 0-3.16.85 15.14 15.14 0 0 0-2.43 1.43 18.12 18.12 0 0 0-2.14 2.15 25.54 25.54 0 0 0-2.38 4.18 45.64 45.64 0 0 0-2.57 10.21 119.35 119.35 0 0 0-.39 21.23c.16 2.71.37 5.4.59 8.09.26 3.11.52 6.32.66 9.52v2c.26.05.52.13.79.2a114.52 114.52 0 0 0 2.77-12.51z" fill="#bf6941"></path><path d="M635.36 154.68a6.5 6.5 0 0 0-2.88-3.74 6.19 6.19 0 0 0-4.82-.63c-3.16.87-5.46 4.46-4.37 7.7a31.22 31.22 0 0 0 2.76 6.52 6 6 0 0 0 11-4.62 52.94 52.94 0 0 0-1.69-5.23z" fill="#bf6941"></path><path d="M790 173a18.15 18.15 0 0 0-2.66-.07 12.26 12.26 0 0 0-1.8.49 25.9 25.9 0 0 0-4.13 2.65l.43-.34a42 42 0 0 1-4.6 3.21 5.31 5.31 0 0 1-8-4.64c-1.11 1-2.26 1.86-3.41 2.76-6.21 4.79-12.36 9.78-15.6 17.15-3.9 8.88-5.23 18.72-5.41 28.36a37 37 0 0 0 .61 7.79c.08.45.18.91.29 1.37.84.41 1.71.78 2.59 1.13 4.11 1.52 8.32 2.73 12.51 4 .15-.15.26-.34.41-.5.43-.51.86-1 1.24-1.56a19.27 19.27 0 0 0 2.36-4.77c.49-.49 1-1 1.42-1.53a39.66 39.66 0 0 0 4.59-6.69 40.87 40.87 0 0 0 2.88-6.7 35.76 35.76 0 0 0 1.37-5.94 77.26 77.26 0 0 0 .75-8.31h-2.26c-1.75 0-3.5 0-5.25.1s-3.36.18-5 .41a5.94 5.94 0 0 1 0-3.13 5.85 5.85 0 0 1 1.5-2.58 18.83 18.83 0 0 1 4.2-2.79 24 24 0 0 1 4-1.46c1.11-.28 2.23-.54 3.34-.78 0-.37 0-.74.06-1.11a61.81 61.81 0 0 1 8.91-8.88 33.22 33.22 0 0 0 3.26-2.78 28.29 28.29 0 0 0 3.47-4.42h-.35c-.64-.21-1.2-.32-1.72-.44z" fill="#bf6941"></path><path d="M794.47 146.19a5.66 5.66 0 0 1-1.71-4.12c.14-1.54.27-3.08.4-4.62.23-2.94.48-6 .87-8.92-1.18 0-2.36.07-3.56.07-1.51 0-3 0-4.51-.11a58.93 58.93 0 0 1-8.79-1 35.12 35.12 0 0 1-6.17-2 132.08 132.08 0 0 1-15.59-7.25l-2.36-1.35c-3.4-2-7.26-4.16-11.2-5.92a59.85 59.85 0 0 0-12.64-3.37 57.52 57.52 0 0 0-6.61-.39 56.74 56.74 0 0 0-6.24.35 49.45 49.45 0 0 0-11 2.93 56.6 56.6 0 0 0-10.81 6.39 81.5 81.5 0 0 0-13.62 13.86c-10.09 13.27-17.12 28.35-22.14 40 .92-1.35 1.92-2.74 3-4.21a155.84 155.84 0 0 1 10.44-11.69 104.78 104.78 0 0 1 10.77-9.63 71.38 71.38 0 0 1 13.57-8.21 57.38 57.38 0 0 1 12.18-3.41 70.09 70.09 0 0 1 7.42-.42c1.7 0 3.39.08 5 .22a64.63 64.63 0 0 1 13.07 3.73c2.54 1.14 5.07 2.43 7.51 3.67l3.54 1.77a148.33 148.33 0 0 0 16.27 6.92A72.26 72.26 0 0 0 777 153c.67.08 1.32.13 2 .16 2.08-.66 4.19-1.25 6.31-1.76l.91-.19c-.54 1.13-1.06 2.27-1.65 3.38a47.84 47.84 0 0 1-4.17 6.28c-1 1.33-2.08 2.66-3.13 4-.21.26-.4.53-.61.8a12.85 12.85 0 0 1 2.19-.81 27.3 27.3 0 0 1 3.37-.59 31 31 0 0 1 3.48-.19 36.06 36.06 0 0 1 8.24 1 3.77 3.77 0 0 1 1.65.88c.34-1 .66-2.08.93-3.11a83.89 83.89 0 0 0 2-15 5.87 5.87 0 0 1-4.05-1.66z" fill="#bf6941"></path><path d="M745.22 274.64a10.36 10.36 0 0 1-.93.5 16.55 16.55 0 0 1-1.9.54 38.55 38.55 0 0 1-4.84 1.23 62.29 62.29 0 0 1-12.19 1.09c-4.78-.07-9.55-.52-14.29-1.06-10-1.15-19.85-3-29.68-5.06-8.87-1.87-17.72-4-26.68-5.41-6.92-1.08-13.93-1.92-20.7-3.78a55.53 55.53 0 0 1-10.66-3.92A100.53 100.53 0 0 0 629 279.4a205.64 205.64 0 0 0 12.12 26.05 162 162 0 0 0 16.19 23.89c6 7.39 12 12.73 18.51 16.36a5.34 5.34 0 0 0 2.62.71 5.18 5.18 0 0 0 1.35-.19 5.11 5.11 0 0 0 2.29-1.33 5 5 0 0 0 1.32-2.28 60.22 60.22 0 0 0 2.64-9.19c.37-1.71.7-3.42 1-5.09.86-4.85 1.52-10 2.12-16.72.15-1.64.31-3.29.46-4.94.36-3.7.72-7.53 1-11.3.21-2.85.32-5.17.34-7.31 1.46.38 3 .72 4.45 1A160.63 160.63 0 0 0 716.1 292c2.24.18 4.52.27 6.78.27a86.25 86.25 0 0 0 11.7-.81 23.2 23.2 0 0 0 13.59-6.83 17.13 17.13 0 0 0 4.27-9.51 32.14 32.14 0 0 0 .37-4.56 41.93 41.93 0 0 1-7.59 4.08z" fill="#bf6941"></path><path d="M682.7 495.53a76.23 76.23 0 0 0 14.79-4.33 41.59 41.59 0 0 0 6.16-3.65q2.24-2 4.27-4.16c1.23-1.33 2.46-2.66 3.6-4.07.4-.58.75-1.18 1.13-1.77a166.28 166.28 0 0 0 4.68-26.55 215.11 215.11 0 0 0 .84-32.5c-.32-5.63-1-11.21-1.48-16.82-.42-4.57-1-9.11-1.71-13.65-.33-1.88-.71-3.75-1.12-5.61a1.58 1.58 0 0 0 0 .58 154.94 154.94 0 0 1 1 19.62 178.08 178.08 0 0 1-1.2 21.65 81.54 81.54 0 0 1-4.89 17.73 64.05 64.05 0 0 1-4.51 7.66c-1.93 2.93-3.87 5.85-5.75 8.81-3.18 5-6.19 10.07-9.69 14.84-1.58 1.94-3.22 3.81-5 5.59a53.73 53.73 0 0 1-5.13 4.39 67.24 67.24 0 0 1-11.23 6.53 62.55 62.55 0 0 1-8.52 2.49 3.06 3.06 0 0 0-2.12 2c3.53.75 7.09 1.32 10.68 1.76a70.09 70.09 0 0 0 15.2-.54z" fill="#bf6941"></path><path d="M796.66 543.07a98 98 0 0 1 1.86 11.79 77.83 77.83 0 0 1-2 23.85 75.56 75.56 0 0 1-9.14 22.7 60.11 60.11 0 0 0 3.81 18.74c3.49 9.38 9 17.87 14.38 26.07l1.56 2.39c5.12 7.91 10.81 16.17 18.44 26.8 15.4 21.5 29.15 38.59 43.29 53.81A244.36 244.36 0 0 0 893.14 752c3.85 3.14 8.11 6.34 13.82 10.37.75.52 1.51 1.06 2.26 1.6 1.35 1 2.7 1.94 4.07 2.87s3 1.88 4.46 2.76c.92.54 1.85 1.08 2.77 1.6l.49.29a237.66 237.66 0 0 0 25.08 12.22 6 6 0 0 0 2.41.55 4.11 4.11 0 0 0 3-1.24 4.72 4.72 0 0 0 1.29-3.45 3.85 3.85 0 0 0-1.3-2.83c-3.52-3-7.91-6.77-12-10.55-3.89-3.63-7.67-7.53-10.85-10.87-1.61-1.69-3.27-3.37-4.91-5-2-2-4-4.06-6-6.15-2.58-2.77-5.14-5.65-7.6-8.43q-1.93-2.19-3.87-4.35c-2.38-2.65-4.71-5.35-7-8q-1.72-2-3.47-4C892 715 888.62 711 885.37 707c-6.24-7.46-12.63-15.41-19.55-24.29-4.25-5.53-8.82-11.62-14.38-19.16-1.12-2.05-2-3.92-2.84-5.71a114.61 114.61 0 0 1-4.28-12.09 111.25 111.25 0 0 1-2.75-13.4c-.9-7.33-1.37-14.83-1.83-22.07-.73-11.65-1.49-23.7-4.08-35.34A79.61 79.61 0 0 0 823.89 548a176.42 176.42 0 0 1-11.1-18.48v-.28c0-2.64-.1-5.26-.17-7.89 0-1.55-.1-3.12-.13-4.69a96.79 96.79 0 0 1-1.91-13.22 165.61 165.61 0 0 1 .92-32.71q.42-3.56 1-7.09a111.9 111.9 0 0 1-6.85 10.22c-.8 1-1.63 2.07-2.45 3.09-2.5 3.12-5.08 6.35-7.32 9.75a58.46 58.46 0 0 0-7.47 17 55.25 55.25 0 0 0-1.34 7.31c2.38 6.95 4.79 13.9 6.89 20.95 1.04 3.7 1.95 7.37 2.7 11.11z" fill="#bf6941"></path><path d="M944.57 668.94c.75 8.37 2.18 16.66 3.72 24.92.12-1.37.23-2.72.36-4.09.65-7 1.38-14.09 2.5-21.08.11-4.41.44-8.81 1-13.17a165.14 165.14 0 0 1 5-22.38c2.15-7.46 5-14.71 7.77-21.94s5.7-14.53 8-22a148.79 148.79 0 0 0 5.08-23.27c1.19-8.62 2.08-17.29 2.46-26 .39-9-.06-18.09-.5-27.14-.19-4.18-.39-8.38-.59-12.56l-.15.51c-.19.65-.38 1.3-.58 1.95s-.34 1.17-.52 1.75c-.37 1.19-.76 2.38-1.17 3.55 0 .09 0 .18-.08.26-.74 2.1-1.53 4.16-2.37 6.2-.24.58-.51 1.15-.75 1.73-.63 1.46-1.27 2.91-2 4.35q-2.29 4.88-4.94 9.58c-1.32 4.16-2.7 8.3-4.1 12.43q-1.31 4.31-2.68 8.59c-1.18 3.69-2.48 7.34-3.73 11-1.34 3.93-2.57 7.91-3.78 11.88a160.47 160.47 0 0 0-5.08 22.99 337.77 337.77 0 0 0-3.74 40.4q-.12 3.58-.15 7.19c-.05 8.08.29 16.26 1.02 24.35z" fill="#bf6941"></path><path d="M254.18 628.18c-.61-.9-1.2-1.81-1.81-2.71-15.34 9.81-28.89 19-41.87 29.73-7.05 5.81-15 12.39-21.54 20.21a101.49 101.49 0 0 0-14.29 22.82c-6.62 14.51-11 30.78-13.89 51.2-1.17 8.32-2.09 16.58-2.83 24.49 2.29 14.94 1.7 30.33.46 45.34-1.53 18.62-4.39 37.19-5.1 55.87.84-2.89 1.65-5.81 2.35-8.73 0-.1.05-.21.07-.31 1.39-5.78 2.53-11.72 3.63-17.48v-.05l.1-.49c1-5.18 1.78-10.49 2.53-15.63l.55-3.76c1.17-7.75 2.08-14.11 2.88-20l.15-1.09c3.82-28.27 7.86-53.68 17.74-77.77a135.93 135.93 0 0 1 15.37-26.72 125.6 125.6 0 0 1 9.15-10.18 134.24 134.24 0 0 1 12.3-10.63c15.69-11.89 32.58-22.55 49.11-32.8l-2.47-3.37c-4.57-6.31-8.69-12.12-12.59-17.94z" fill="#bf6941"></path><path d="M412.26 534.85h.19c3.6 0 7.33 3.09 7.17 6.9a81.48 81.48 0 0 0 .86 15.38c.39 2.1.84 4.17 1.33 6.23a15.79 15.79 0 0 0 5.64 1h1.16a16.24 16.24 0 0 0 2.72-.43 28.68 28.68 0 0 0 6.8-2.83 44 44 0 0 0 7.79-5.68 48.88 48.88 0 0 0 6.34-7.18 58.09 58.09 0 0 0 4.62-7.17 85.45 85.45 0 0 0 7-17.64 130.65 130.65 0 0 0 3.56-18.85c.33-2.49.59-5.18.83-8.45a66.85 66.85 0 0 0 .24-9.07 8.47 8.47 0 0 0-2.38-5.75l-.22-.21c-26.15 17.65-52.73 34.66-79.39 51.52-2.88 1.89-5.83 3.74-8.69 5.54q-3.57 2.22-7.11 4.5c-5.73 3.7-11.48 7.63-17.09 11.67-5.81 4.19-11.7 8.75-18 13.94-1.62 1.33-3.21 2.66-4.81 4-3 2.5-6.08 5.08-9.2 7.54.76 1.1 1.5 2.22 2.26 3.31 4.22 6.14 8.68 12.75 13.59 20.17q3.46-2.81 6.64-5.51c3.44-2.93 6.83-6 10.1-9.07l3-2.74c2.94-2.69 5.9-5.36 8.86-8 5.48-5 11.15-10.1 16.65-15.23l3.58-3.34c2.86-2.65 5.72-5.31 8.55-8s5.54-5.09 8.29-7.53l2.27-2a7.31 7.31 0 0 1 2-4.72 7.18 7.18 0 0 1 4.85-2.3z" fill="#bf6941"></path><path d="M458.92 310.21q-6 .66-11.84 1.71c-2.95 2.67-6 5.21-9.12 7.55-9.41 7-20 12.5-30.84 18-3.94 2-7.9 3.92-11.86 5.86-6.45 3.17-13.07 6.44-19.57 9.84q7.9-1.8 15.85-3.37c6.75-1.32 13.56-2.4 20.3-3.82q7.65-1.6 15.18-3.74a146.71 146.71 0 0 0 30.06-13.14 117.06 117.06 0 0 0 19.52-15.71c1.22-1.32 2.37-2.69 3.53-4.05-1.41-.05-2.82-.08-4.23-.08a152.73 152.73 0 0 0-16.98.95z" fill="#bf6941"></path><path d="M246.05 469.24c2.84-3 5.76-5.91 8.67-8.82s6-5.87 9-8.77c1.58-1.51 3.14-3.06 4.74-4.56 7.87-7.39 15.95-14.57 24.42-21.26 2.1-1.61 4.21-3.22 6.3-4.84l-1 .73c4.32-3.3 8.67-6.54 13.09-9.7 4.78-3.41 9.89-6.31 14.87-9.39s9.86-6.47 14.7-9.83 9.69-6.73 14.59-10c1.78-1.2 3.57-2.37 5.36-3.54-3.78.49-7.56 1-11.31 1.69-7.09 1.29-14.12 2.87-21.17 4.41l-2.37.52c-7 5.17-14.21 10.4-21.75 15.39-3 3.44-6.1 6.83-9.18 10.22-4.26 4.71-8.3 9.62-12.51 14.37s-8.43 9.3-12.64 13.94c-8.45 9.3-16.88 18.64-25.51 27.79a1.12 1.12 0 0 0-.32.85 1.17 1.17 0 0 0 2.02.8z" fill="#bf6941"></path><path d="M532.94 403.82v.36l-.12 1.14.12-1.14c.51-5.05 1-10.11 1.36-15.18a288.48 288.48 0 0 0-3.36-42.64 214.42 214.42 0 0 0-6.27-26.24h-.31a29.4 29.4 0 0 0-7-3.73c-1.5-.63-3-1.21-4.55-1.77a110.07 110.07 0 0 1-8 11.08 139.15 139.15 0 0 1-12.47 13.24c3.81.1 7.62.18 11.44.15 3.09 0 6.18-.3 9.27-.56 1.68-.14 3.43-.33 5.1-.61 0 .2.07.39.1.59.76 6.38 1 12.79 1.25 19.2.25 6.92.47 13.85.89 20.76.46 7.46 1.41 14.91 2.43 22.32.87 6.38 2.09 12.71 3 19.08a153.08 153.08 0 0 1 1.48 25.67 1.59 1.59 0 0 0 .67 1.37c2.11-14.31 3.48-28.72 4.97-43.09z" fill="#bf6941"></path><path d="M463.5 766a97.53 97.53 0 0 0 6.19 14.46 93 93 0 0 0 8 12.35 4.2 4.2 0 0 0 4.61 1.89 4.14 4.14 0 0 0 3-3.95c0-4.28 0-8.57-.08-12.86a136.33 136.33 0 0 0-1.43-15.75 277 277 0 0 0-6.38-29.71c-2.37-9.27-4.86-18.51-7.57-27.69-2.61-8.87-5.47-17.66-8.24-26.47 3.84-.72 7.69-1.37 11.57-1.91l-.8.11 5.06-.68h-.27c13.19-1.78 26.44-3.11 39.74-3.82 6.87-.36 13.77-.47 20.66-.67s13.79-.12 20.69-.18c6.4-.07 12.78 0 19.17.23 7 .27 13.92.5 20.87 1 13.25 1 26.44 2.47 39.61 4.19 6.41.87 12.8 1.82 19.13 3.13 6.71 1.39 13.33 3.27 19.91 5.17s13.25 3.69 20 5.21a100.17 100.17 0 0 0 13.76 2.36 25.12 25.12 0 0 0 7.3-.41 16.87 16.87 0 0 0 8.78-4.81l.12-.13c-.39 0-.76.06-1.12.06a11.17 11.17 0 0 1-3.16-.44 36.61 36.61 0 0 1-5.66-2.18c-2.73-1.37-5.42-2.91-8-4.4l-.71-.41a136.61 136.61 0 0 0-15.57-8 109.31 109.31 0 0 0-17.09-4.83c-5.08-1-10.61-1.78-16.91-2.48-11.11-1.09-22.53-1.58-32.61-2-5.68-.24-11.36-.49-17-.79-4.13-.21-8.32-.53-12.38-.84l-3.65-.28c-7.83-.58-15.87-.87-23.88-.87a362.55 362.55 0 0 0-57.16 4.57 554.3 554.3 0 0 0-63.44 14.61 5.8 5.8 0 0 1-1.56.22 5.69 5.69 0 0 1-.71-.07 6.1 6.1 0 0 0 .14.72 224.15 224.15 0 0 1 6.21 28c1.74 10.06 3.15 20.16 4.72 30.24q.54 3.48 1.15 7A167.78 167.78 0 0 0 463.5 766z" fill="#bf6941"></path><path d="M716.25 817.21a153.51 153.51 0 0 0-6.58-16.57c-1-2.5-2.07-5-3-7.52-.15-.4-.32-.78-.48-1.17-1-2.3-2.09-4.54-3.1-6.81a54.22 54.22 0 0 1-2.51-8.68 1.37 1.37 0 0 0-1.35-1 1.34 1.34 0 0 0-.35 0 1.4 1.4 0 0 0-1 1.7c.21 1.15.42 2.3.59 3.45.54 4.57-.05 9.05-.36 13.63-.16 2.33-.24 4.67-.44 7-.18 2.06-.42 4.12-.68 6.17-.66 5-1.24 9.91-1.54 14.91a35.86 35.86 0 0 0 .59 8.9 13.92 13.92 0 0 0 1.68 4.89 32.09 32.09 0 0 0 2.23 3c.59.51 1.21 1 1.84 1.43 2.71-.22 5.57-.47 8.68-.75h.2a2.35 2.35 0 0 1 .51.06l2.64-.4h.25a1.06 1.06 0 0 1 .19 0c.19-.18.36-.37.53-.56 5.33-5.79 3.54-14.8 1.46-21.68z" fill="#bf6941"></path><path d="M658.29 803.73a9.63 9.63 0 0 0-9.34 7.09 10.26 10.26 0 0 0 1 7.44 57.73 57.73 0 0 0 2.91 5.57 9.5 9.5 0 0 0 16.4 0c1.16-2 1.85-5.08.95-7.31-1.08-2.73-2.33-5.37-3.58-8a9.33 9.33 0 0 0-5.77-4.44 9.54 9.54 0 0 0-2.57-.35z" fill="#bf6941"></path><path d="M969.27 306.65a239.51 239.51 0 0 0 7.55 25.67c.06.17.13.33.19.5 1 2.71 2 5.4 3 8.08.05.13.11.25.16.38.13.33.26.66.4 1 .94 2.37 1.91 4.73 2.93 7.07.22.51.42 1 .65 1.54s.47 1 .7 1.48c1.08 2.37 2.17 4.73 3.32 7.06l.14-.1a54.44 54.44 0 0 0 3.47-2.37l.33-.23.33-.24a52 52 0 0 0 3.85-3.57c.12-.13.24-.27.37-.4.49-.51 1-1 1.43-1.55.31-.34.63-.68.93-1 .62-.72 1.21-1.46 1.79-2.2l.36-.44c.12-.17.22-.35.34-.52.7-1 1.39-2 2-3.09.25-.41.47-.83.71-1.24.49-.83 1-1.65 1.43-2.5.27-.51.52-1 .79-1.54.39-.77.78-1.53 1.14-2.32.26-.53.49-1.08.73-1.62s.48-1 .7-1.55v-.1c.18-.44.39-.88.57-1.33 5-13.35 7.3-27.55 8.82-41.68.54-5.39 1-10.79 1.37-16.18l-.06-.8c-.64-7.53-1.15-15.11-2.23-22.59s-1.84-15-2.81-22.55c-.48-3.75-1-7.5-1.37-11.27-.13-1.22-.25-2.45-.36-3.68-.26-.66-.5-1.32-.73-2a140.3 140.3 0 0 1-4.83-17.44c-.24-1.16-.5-2.31-.71-3.48q.06 5.63-.24 11.26c-.18 3.3-.53 6.6-.73 9.91-.19 3-.45 6.1-.75 9.15-.08.66-.18 1.32-.26 2-.6 4.7-1.25 9.39-1.87 14.09-.6 4.52-1.38 9-2.1 13.52-1.29-5.1-2.49-10.21-3.4-15.37-.75-5.37-1.18-10.77-1.46-16.19-.34-6.35-.27-12.71-.51-19.07-.45-11.59-1-23.18-4.29-34.38q-2.48 10.81-5.34 21.53c0 4.15-.27 8.3-.67 12.45-.95 8.1-2.07 16.17-3 24.27a186.72 186.72 0 0 0-1.19 22.67c-.19-.71-.37-1.43-.56-2.14-1.41-5.25-3-10.44-4.23-15.72-1.21-5.1-2.34-10.25-3.22-15.42s-1.5-10.4-1.9-15.64a6.07 6.07 0 0 1-.61-1.89q-1.14-7.77-2.29-15.52c-1 11.88-1.26 23.81-1.21 35.73 0 5.08.08 10.17.13 15.25 0 1.85 0 3.7.05 5.54.06 7.3.06 14.57.32 21.86.26 7.06.58 14.13.89 21.19.32 7.3.63 14.61.84 21.91.13 1.92.18 3.87.2 5.81z" fill="#bf6941"></path><path d="M932.44 299.77a3.35 3.35 0 0 0-1.81-1.07 144.44 144.44 0 0 0 1.26 15.93c.31.89.61 1.78.91 2.69.61 1.84 1.22 3.68 1.79 5.53 1.16 3.79 2.21 7.6 3.49 11.36.37 1.09.76 2.17 1.17 3.25.71.31 1.4.65 2.08 1 2.63 1.41 5.21 2.91 7.69 4.56 3.19 2.14 6.25 4.44 9.25 6.82 0-.13 0-.26-.07-.39-.53-3.47-1.12-6.92-1.94-10.34a72.31 72.31 0 0 0-5.47-14.94 63.29 63.29 0 0 0-8.39-12.73c-.33-.41-.68-.79-1-1.18-1.32-1.52-2.69-3-4-4.55-1.66-1.97-3.25-4-4.96-5.94z" fill="#bf6941"></path><path d="M99.75 1218.67" stroke="#bf6941"></path><path d="M102.09 1205.46a1.84 1.84 0 0 0-1.91-2.29 1.75 1.75 0 0 0-1.78 1.4 251.85 251.85 0 0 0-6.46 42c-.28 3.47-.52 6.94-.58 10.41-.07 3.89-.08 7.78-.12 11.67-.06 7.85-.09 15.71 0 23.57.05 7.52.1 15-.21 22.56s-.49 15-.72 22.55-.38 14.88-.41 22.33v3.9c0 6.39 0 12.79.42 19.16a9.07 9.07 0 0 0 17 4.1 79.22 79.22 0 0 0 5.55-14.37 92.62 92.62 0 0 0 2.8-17.13c.93-9.78.05-19.74-1.4-29.42-.79-5.24-1.82-10.45-3-15.62-1.1-5-2.1-9.93-3.11-14.91-1.91-9.35-3.94-18.69-5.55-28.11q-.93-5.86-1.58-11.75c-.48-4.21-1.06-8.4-1.42-12.63a133.4 133.4 0 0 1 .13-24.23 104.68 104.68 0 0 1 2-11.7c.12-.48.26-.95.35-1.49z" fill="#bf6941"></path><path d="M80.76 1293.56a81.66 81.66 0 0 1 .16-11c.13-1.8-1.72-3.25-3.38-3.25h-.09a3.41 3.41 0 0 0-2.32 1 3.67 3.67 0 0 0-.93 2.44q-.83 10-1.63 20c-.57 7-1.18 14-1.65 21-.44 6.65-1 13.29-1.4 19.94l-.18 3.18c-.32 5.85-.52 11.7-.94 17.54a6.06 6.06 0 0 0 4.62 5.68 6.05 6.05 0 0 0 3.16-.09 5.75 5.75 0 0 0 3.54-2.86 82 82 0 0 0 3.63-10.09 67.36 67.36 0 0 0 1.94-11.88c.68-6.94 0-14-.72-20.87-.3-2.72-.68-5.44-1.08-8.15-.62-4.23-1.28-8.46-1.79-12.71-.4-3.25-.7-6.55-.94-9.88z" fill="#bf6941"></path><path d="M116.17 1002.13a3.13 3.13 0 0 0-.9-2.8c-7.5 15.89-15 31.77-21.76 48-.32 1.07-.64 2.15-1 3.23-2 6.67-3.83 13.36-5.68 20.06q-1.36 4.9-2.74 9.83-1.19 7.85-2.09 15.73c-.46 7.61-.75 15.22-.91 22.83l.15-.4c-.07 2.74 0 5.48.12 8.21.32 4.21.88 8.41 1.55 12.6.19 1 .39 2 .61 3a72.5 72.5 0 0 0 7.76 19.69 117.78 117.78 0 0 0 10.36 14.75c3.9 4.94 7.83 9.84 11.37 15.07a126.13 126.13 0 0 1 10 18.68c2.39 5.38 4.69 10.81 7 16.22 2.62 6 5.53 11.89 8.33 17.84l.07.07a5.9 5.9 0 0 0 2.14 2 6 6 0 0 0 4.62.5 6.26 6.26 0 0 0 2.59-1.58 6.45 6.45 0 0 0 1.66-4.34 64.06 64.06 0 0 0-.81-15.15 70.52 70.52 0 0 0-4.35-14.65 155.28 155.28 0 0 0-14.64-27c-4.42-6.73-9.4-13.07-14.13-19.58a118.47 118.47 0 0 1-11.53-19.14 98.39 98.39 0 0 1-4.55-14c-1.49-5.82-2.85-11.66-3.85-17.59-.43-2.74-.79-5.49-1-8.25-.27-3-.39-6-.54-9.07a106.21 106.21 0 0 1 .11-11.7c3.74-9.62 7.4-19.28 10.73-29a170.52 170.52 0 0 0 7.2-26.74c.52-3.09.94-6.19 1.35-9.3.19-1.47.38-2.94.58-4.41.72-4.55 1.54-9.07 2.18-13.61z" fill="#bf6941"></path><path d="M328.34 385.34c7.05-1.54 14.08-3.12 21.17-4.41 3.75-.68 7.53-1.2 11.31-1.69 2.76-.35 5.53-.68 8.29-1 7.16-.9 14.29-2 21.48-2.7 6.4-.67 12.81-1.17 19.22-1.8a154 154 0 0 0 16.28-2.57c5.54-1.14 11-2.69 16.4-4.32a141.29 141.29 0 0 0 14.2-5.1A134.79 134.79 0 0 0 483 346.59a101.61 101.61 0 0 0 9.3-7.68 139.15 139.15 0 0 0 12.47-13.24 110.07 110.07 0 0 0 8-11.08 175.57 175.57 0 0 0 8.92-15.88 185.07 185.07 0 0 0 11.64-30.54c8.54-28.69 12.2-58.41 15.26-88.1 2.95-28.65 5.83-57.33 12.47-85.4 2.4-9.22 5.27-18.29 8.47-27.26 1.49-4.18 3.16-8.28 4.81-12.39a88.9 88.9 0 0 1 4.77-4.15 58.21 58.21 0 0 1 9.56-5.76 37.82 37.82 0 0 1 6.73-1.9q1.43-.12 2.85-.12c.84 0 1.68 0 2.53.09a43.24 43.24 0 0 1 4.77 1.22 4.35 4.35 0 0 1 .06-.52 1.9 1.9 0 0 1 0-.25 7.17 7.17 0 0 1 2-4.72 35.33 35.33 0 0 1 3.32-3.27 7.43 7.43 0 0 1 2.79-2.91 7 7 0 0 1 3.65-1 12.19 12.19 0 0 1 2.13.21 6.88 6.88 0 0 1 1.78.64c0-.4-.05-.81-.11-1.21a24.93 24.93 0 0 0-5.56-12.1c-6.11-7.41-15.35-11.12-22.72-13.53A125.37 125.37 0 0 0 560.2.16c-2.1-.1-4.33-.16-6.61-.16a147.91 147.91 0 0 0-29.37 3.06A170.39 170.39 0 0 0 490 14.37a193.19 193.19 0 0 0-31.17 17.51A252.65 252.65 0 0 0 406.53 80c-3.31 4-6.56 8.22-9.62 12.17-8.73 11.36-17 22.92-24.46 34.37-5.92 9-11.76 18.35-17.42 27.36-2.18 3.46-4.35 6.92-6.54 10.37l-2.28 3.61c-10.68 16.9-21.63 34.21-33.37 50.92-19.15 19.66-39.52 38.13-62.83 52.76a211.3 211.3 0 0 1-45.21 20.33 172.55 172.55 0 0 1-40.27 6.81 148 148 0 0 1-34.33-3.7 117.71 117.71 0 0 1-24.4-9.37 73 73 0 0 1-12.25-9 65.18 65.18 0 0 1-6.88-8.33q-4.67 11-9.1 22.15a91.61 91.61 0 0 0 20.29 18.26 100.48 100.48 0 0 0 27.33 12.58q4.32 1.29 8.7 2.29h-.29a244.31 244.31 0 0 1-30.7-2 252.07 252.07 0 0 1-25.79-5.18c-3-.75-5.9-1.53-8.74-2.33-4.69 12.29-9.28 24.63-13.87 37a235.26 235.26 0 0 0 17.66 21 272.4 272.4 0 0 0 24.19 22.54 276.64 276.64 0 0 0 24 18.12 143.55 143.55 0 0 0 35.75 17.06 140.39 140.39 0 0 0 37.15 6.22c1.72.07 3.44.11 5.16.11a172.36 172.36 0 0 0 33.31-3.61c5.81-1.15 11.88-2.68 18.55-4.7a193.48 193.48 0 0 0 19.91-7.56 220.83 220.83 0 0 0 34-18.84c7.54-5 14.8-10.22 21.75-15.39zm190.4-236.15C515.61 184.31 515 219.86 507 254.3a166.81 166.81 0 0 1-14 36.7 128.2 128.2 0 0 1-12.86 18.31c-1.16 1.36-2.31 2.73-3.53 4.05a117.06 117.06 0 0 1-19.52 15.71A146.71 146.71 0 0 1 427 342.21q-7.51 2.15-15.18 3.74c-6.74 1.42-13.55 2.5-20.3 3.82q-7.95 1.56-15.85 3.37c6.5-3.4 13.12-6.67 19.57-9.84 4-1.94 7.92-3.88 11.86-5.86 10.88-5.47 21.43-10.95 30.84-18 3.14-2.34 6.17-4.88 9.12-7.55a130.51 130.51 0 0 0 11.82-12.14 155.8 155.8 0 0 0 16.73-24 215.43 215.43 0 0 0 12.82-27.66c7.45-18.91 12.94-38.83 18.25-58.09 3.74-13.48 7.55-27.26 12.06-40.81z" fill="#403c31"></path><path d="M617.29 31.76a7 7 0 0 0-3.65 1 7.43 7.43 0 0 0-2.79 2.91 35.33 35.33 0 0 0-3.32 3.27 7.17 7.17 0 0 0-2 4.72 1.9 1.9 0 0 0 0 .25 4.35 4.35 0 0 0-.06.52 7.3 7.3 0 0 0-.1.94c.1.64.18 1.29.27 1.94a7.35 7.35 0 0 0 1.87 3.21l.46.57 2 2.66.81 1.1.92-.89a95 95 0 0 1 15.12-11.69l1-.6a28.09 28.09 0 0 0-1.39-3.3 16.24 16.24 0 0 0-2.43-3.59 9.94 9.94 0 0 0-2.81-2.17 6.88 6.88 0 0 0-1.78-.64 12.19 12.19 0 0 0-2.12-.21z" fill="#cd3208"></path><path d="M448.56 678.78A554.3 554.3 0 0 1 512 664.17a362.55 362.55 0 0 1 57.12-4.66c8 0 16 .29 23.88.87l3.65.28c4.06.31 8.25.63 12.38.84 5.67.3 11.35.55 17 .79 10.08.44 21.5.93 32.61 2 6.3.7 11.83 1.51 16.91 2.48a109.31 109.31 0 0 1 17.09 4.83 136.61 136.61 0 0 1 15.57 8l.71.41c2.6 1.49 5.29 3 8 4.4a36.61 36.61 0 0 0 5.66 2.18 11.17 11.17 0 0 0 3.16.44c.36 0 .73 0 1.12-.06s.68-.07 1-.11l.63-.09a5.7 5.7 0 0 0 1.49.2 5.39 5.39 0 0 0 4.87-2.84 79.87 79.87 0 0 0 3.88-9.74c1-2.74 1.87-5.72 2.94-9.64a158.73 158.73 0 0 0 4-19.7.37.37 0 0 1 0-.11c.78-.55 1.56-1.1 2.32-1.67 2.63-2 5.15-4.06 7.63-6.2 3.61-3.12 7-6.47 10.32-9.93s6.41-7 9.59-10.53a129 129 0 0 0 10.29-13c.51-.73 1-1.47 1.45-2.22a75.56 75.56 0 0 0 9.14-22.7 77.83 77.83 0 0 0 2-23.85 98 98 0 0 0-1.86-11.79c-.75-3.74-1.66-7.41-2.74-11.06-2.1-7-4.51-14-6.89-20.95-1.12-3.26-2.22-6.51-3.29-9.78v6.63c-.08 1.78-.19 3.57-.31 5.36.06.3.12.61.17.91.85 5.4 1.43 10.84 1.79 16.29.2 2.9.19 5.8.19 8.7 0 2.51 0 5-.26 7.5a103.06 103.06 0 0 1-4.86 21.9 69.66 69.66 0 0 1-3.32 6.78 71.51 71.51 0 0 1-4.77 7.18 131 131 0 0 1-20.83 21.72c-3.3 2.57-6.69 5-10.14 7.37-4.28 2.92-8.71 5.65-13 8.54-3.14 2.11-6.15 4.4-9.11 6.76a128.41 128.41 0 0 0-18.05-6.41 229.3 229.3 0 0 0-35-6.08 76.34 76.34 0 0 0 19.09-17.77c2.53-3.4 5.18-6.78 7.36-10.42a107.68 107.68 0 0 0 5.42-10.79 103.89 103.89 0 0 0 4.43-10.89c1.3-4 2.3-8.07 3.21-12.16.08-.36.17-.71.25-1.07-3.07 2.42-6.24 4.7-9.48 6.88l-.89 1.3c-1.73 2.28-3.57 4.48-5.43 6.65a48.32 48.32 0 0 1-6 5.74 103.31 103.31 0 0 1-13.69 9.2l-16.75 9.23c-11.47 6.34-23.31 12.06-35.21 17.54l-3.81 1.71-3 1.33-3.32 1.49h-3.5q-7.59.08-15.17.1a319.91 319.91 0 0 0-52.41 4.34c-8.69 1.46-17.81 3.44-27.86 6-10.58 2.74-19.22 5.38-27.18 8.3-12.31 4.5-22.24 9.18-30.63 14.47a95.15 95.15 0 0 0-2.23-9.63 176.39 176.39 0 0 0-6.45-17.5c-2.46-6-5.18-12-7.87-17.93-3-6.91-5.7-14-8.29-21a149.39 149.39 0 0 1-5-16.23c-.49-2.06-.94-4.13-1.33-6.23a81.48 81.48 0 0 1-.86-15.38c.16-3.81-3.57-6.9-7.17-6.9h-.19a7.18 7.18 0 0 0-4.91 2.19 7.31 7.31 0 0 0-2 4.72v.45c-.25 5.52-.26 11 0 16.54s.95 11 1.73 16.42c.85 5.86 1.93 11.64 3.26 17.4 1.4 6.06 3.17 12 4.77 18.06 3.07 11.5 6.66 22.91 10.52 34.18a167.29 167.29 0 0 0 6.72 16.84c1.21 2.57 2.56 5.05 4 7.52 1 1.78 2 3.6 3.08 5.31a6.68 6.68 0 0 0 .72 1.07 5.93 5.93 0 0 0 3.84 2.54 6.53 6.53 0 0 0 3.1.97 5.8 5.8 0 0 0 1.56-.22z" fill="#416d68"></path><path d="M513.94 509.15q9.54-10.09 18.28-20.88c4-4.93 7.94-9.93 11.85-14.95l.64-1.17a281.15 281.15 0 0 0 12.54-26.72 139.79 139.79 0 0 0 5.85-19.27 173.26 173.26 0 0 0 2.79-18.41 305.08 305.08 0 0 0 1.57-36.4c-.14-6.34-.19-12.71-.73-19-.53-6-1.2-12-2.15-18-.64-3.84-1.4-7.67-2.33-11.45l.53.82c-1.24-5.61-2.43-11.23-3.38-16.9-.1-.64-.2-1.28-.31-1.93a7.44 7.44 0 0 0-1.11-3.24 5.82 5.82 0 0 0-.7-.83 6 6 0 0 0-4.11-1.65H553a5.62 5.62 0 0 0-1.63-.27h-.54c-9.17.93-17.4 5.09-25.59 9a6 6 0 0 0-2.84 3.89 6.29 6.29 0 0 0 .75 4.75 7.21 7.21 0 0 0 .79 1c.06.29.09.59.18.88.17.54.32 1.1.49 1.65a214.42 214.42 0 0 1 6.27 26.24 288.48 288.48 0 0 1 3.38 42.69c-.38 5.07-.85 10.13-1.36 15.18v-.36c-1.49 14.37-2.86 28.78-5 43.06-.17 1.1-.3 2.2-.48 3.3a232.74 232.74 0 0 1-5.86 26.65c-1.7 3.05-3.41 6.1-5.09 9.15-3.42 6.15-6.93 12.24-10.75 18.15s-7.86 11.94-12 17.77c-2 2.64-4.1 5.19-6.13 7.81a4.7 4.7 0 0 0-.8 1.49c3.89-2.85 7.76-5.74 11.54-8.75q8.01-6.45 15.61-13.3z" fill="#416d68"></path><path d="M532.78 405.32l.12-1.14" stroke="#416d68"></path><path d="M626.43 484.6c2.14 2.24 4.2 4.59 6.15 7 4.11 3.12 8.15 6.35 12.4 9.28 2.46 1.69 5 3.24 7.55 4.84A70.83 70.83 0 0 0 678.41 516a49.36 49.36 0 0 0 10.3.51 40.07 40.07 0 0 0 11.3-2.4 43.6 43.6 0 0 0 9.4-4.73 38.35 38.35 0 0 0 4.62-3.74 43.21 43.21 0 0 0 4.26-2.47 56.81 56.81 0 0 0 7.92-6.79 59 59 0 0 0 7.36-8.93c.16-.65.34-1.29.5-1.94a190.67 190.67 0 0 0 3.7-21.9 196.31 196.31 0 0 0-1.19-49.45 177.62 177.62 0 0 0-4.39-19.16c-.5-1.24-1-2.48-1.56-3.71a70.64 70.64 0 0 0-4.45-8.38 87.91 87.91 0 0 0-5.24-7.33c-3.86-4.71-8-9.18-12-13.74a6.63 6.63 0 0 0 .12 3.84 147.5 147.5 0 0 1 4.84 16.83c.41 1.86.79 3.73 1.12 5.61.7 4.54 1.29 9.08 1.71 13.65.51 5.61 1.16 11.19 1.48 16.82a215.11 215.11 0 0 1-.84 32.5 166.28 166.28 0 0 1-4.68 26.51c-.38.59-.73 1.19-1.13 1.77-1.14 1.41-2.37 2.74-3.6 4.07s-2.78 2.85-4.27 4.16a41.59 41.59 0 0 1-6.16 3.65 76.23 76.23 0 0 1-14.79 4.33 70.09 70.09 0 0 1-15.18.52c-3.59-.44-7.15-1-10.68-1.76-1.88-.4-3.75-.84-5.6-1.36-5.43-1.55-10.77-3.39-16-5.39-2.86-1.15-5.63-2.48-8.36-3.88-1-.49-1.9-1-2.84-1.48.76.77 1.56 1.54 2.35 2.37z" fill="#416d68"></path><path d="M809.49 1088.88a3.71 3.71 0 0 0-2.66-1.07 3.79 3.79 0 0 0-2 .54 4 4 0 0 0-1.05 1 4 4 0 0 0-.61 0 5.24 5.24 0 0 0-1.26.15 54.08 54.08 0 0 0-9.4 3c-2.25 1-4.51 2-6.69 3.06l-3.13 1.47c-1.13.49-2.26 1-3.4 1.44-1.37.59-2.74 1.16-4.1 1.76q-2.79 1.24-5.55 2.52l-2.9 1.32-4.5 2c-7 3.17-13.47 6.25-19.69 9.34-6.59 3.28-13.17 6.84-19.52 10.29l-4.44 2.41c-13.6 7.36-27.26 15.17-40.46 22.72l-7.87 4.5c-17.4 9.93-30.84 17.2-43.57 23.57q-3.66 1.83-7.35 3.64c-2.82.13-5.65.27-8.48.35-1.1 0-2.19.05-3.28.05-3.81 0-7.71-.19-11.93-.59a65.94 65.94 0 0 1-13.93-3.29 38.13 38.13 0 0 1-6.3-3.23 39.53 39.53 0 0 1-4.65-4.59 49.9 49.9 0 0 1-4.49-7.47 63.64 63.64 0 0 1-3.47-11.28 116.28 116.28 0 0 1-.34-25.18c1.21-10 3.18-19.59 5-27.7 3-13.56 5.42-24.49 7.74-34.4 6.91-29.36 13.83-52.81 21.76-73.79a290.7 290.7 0 0 1 20.35-42c3.18-5.35 6.77-10.57 10.23-15.6l.88-1.27c3.8-5.53 7.65-11 11.45-16.15 9.47-12.71 18.14-23.56 26.51-33.17.72-.84 1.46-1.67 2.19-2.51 1.71-1.92 3.47-3.92 5.13-5.95 2.51-3.05 4.84-5.75 7.14-8.25 2.08-2.27 4.35-4.44 6.54-6.54l.89-.84c2.45-2.34 4.67-4.33 6.77-6.07a49.56 49.56 0 0 1 7.92-5.19q2.05-1.47 4.16-2.82c2.26-1.43 4.55-2.79 6.86-4.11.5-.29 1-.59 1.5-.87a2.28 2.28 0 0 0-.75-.44 2.34 2.34 0 0 0-.46-.09 1.06 1.06 0 0 0-.19 0h-.25l-2.64.4a2.35 2.35 0 0 0-.51-.06h-.2c-3.11.28-6 .53-8.68.75-5.9.47-11 .81-15.89 1-5.94.28-12 .73-17.78 1.17l-6.87.5c-3.11.22-6.24.48-9.39.76-5 .44-10 .94-15.26 1.53-2.09.24-4.16.46-6.24.68-6.71.73-13.65 1.48-20.45 2.58l-1.43.21c-9.48 1.49-19.27 3-28.85 4.93-12.48 2.48-22 4.54-30.93 6.68-5.74 1.37-11.62 2.91-18 4.71-5.35-1.2-10.24-2.11-14.94-2.76-5.49-.78-10.95-1.32-15.08-1.7-3.19-.3-5.63-.49-7.93-.62-1.11-.07-2.21-.09-3.31-.09-1.54 0-3.08.05-4.62.11-5.05.2-10 .43-14.86 1a104.75 104.75 0 0 0-16.21 3.34 135.93 135.93 0 0 0-13.53 4.78 109.18 109.18 0 0 0-13.93 6.84 6.15 6.15 0 0 0-2.81 3.83 6.32 6.32 0 0 0 4.64 7.77 6.24 6.24 0 0 0 1.41.17 7.47 7.47 0 0 0 3.4-.92c1.05-.53 2.13-1 3.2-1.51a122.31 122.31 0 0 1 20.9-7.09c7.51-1.8 15.19-3.39 22.84-4.72 2.68-.42 5.43-.69 8.08-1l2.56-.27 2.27-.26c3.26-.36 6.64-.75 10-.94 2.33-.14 4.77-.21 7.23-.21h.72a413.08 413.08 0 0 1-16.42 3.93c-7.35 1.61-15.89 3.56-24.26 6.25A189.87 189.87 0 0 0 444.15 892a120.36 120.36 0 0 0-20.74 12.88 73.07 73.07 0 0 0-10.8 9.94c-3.44 4-6.16 7.45-8.53 10.81a10.54 10.54 0 0 0 .12 10.48l1.07-.17 6.54-1c51.2-21 105-35.74 157.81-52.26a6.18 6.18 0 0 1 1.81-.5l1-.32q5.22-1.7 10.46-3.36l7-2.23c6.18-2 12.39-3.91 18.6-5.83 5.46-1.69 10.92-3.38 16.38-5.11 11-3.5 22-6.56 35-10.09 2.23-.6 4.45-1.18 6.68-1.74-2.36 1.22-4.65 2.51-6.8 3.81a102.55 102.55 0 0 0-13.11 10l-.17.14c-3.86 3.29-7.75 7-11.9 11.3a261.68 261.68 0 0 0-19.82 23.62C599.2 923 588 940.32 579.44 957.06c-10.2 20-19.19 42.53-27.47 68.84-5.74 18.26-11 37.84-16.54 61.65-1.82 7.8-3.67 16.21-4.85 24.74-1.25 9-2.35 19.68-.94 30.35a66.83 66.83 0 0 0 3.36 14.56 81.28 81.28 0 0 0 3.72 8.3 37.4 37.4 0 0 0 3.3 5.35 56 56 0 0 0 4.86 5.86 44.61 44.61 0 0 0 6.49 5.33 58.19 58.19 0 0 0 13.52 6.77c1.59.61 3.25 1.08 4.86 1.54l1.43.41a52.78 52.78 0 0 0 7.73 1.62 67.5 67.5 0 0 0 8.26.61h.39c2 0 4-.2 5.93-.39l1.58-.15c1.51-.13 3.16-.34 5-.62-5.27 2.48-10.7 5.08-16.09 7.52-6.13 2.73-12.44 5.41-18 7.78l-1.63.7c-6.08 2.58-12.36 5.26-18.68 7.56-14.84 5.39-27.23 8.86-39 10.9l-1 .15-2.55.39q-8 2.91-16.2 5.28l5.44.45 1.14.1c3 .23 6.09.48 9.14.63 1.14.06 2.28.08 3.44.08.93 0 1.88 0 2.82-.06h2.19l3.1-.07c8.22-.15 15.48-.59 22.18-1.35l2.27-.26h.22a39.35 39.35 0 0 1 3.68 6.23l.55 1.25.2.44c2.63 6.08 3.91 12.65 5 18.87.56 3.63 1 7.34 1.36 10.93l.17 1.54c.54 4.85 1.14 9.63 1.78 14.22a124.45 124.45 0 0 0 3.08 15.7 55.82 55.82 0 0 0 2 5.9 29.53 29.53 0 0 0 3.95 7.4 8.56 8.56 0 0 0 1.12 1.46 7.25 7.25 0 0 0 4.6 3.78 6.3 6.3 0 0 0 1.56.21h.44c35.9-2.58 74.12-8.31 120.28-18 20.79-4.38 41.81-9.29 59.61-13.52 18.67-4.42 38.53-9.18 58.1-14.38 5.56-1.47 9.82-2.57 13.81-3.55l1.11-.27c1.94-.48 3.87-1 5.79-1.48a17.24 17.24 0 0 0 6.76-3.16 10.41 10.41 0 0 0 .9-.86 5.76 5.76 0 0 0 .9-1.27 6.76 6.76 0 0 0 1.85-4.63v-.92c0-6.22.1-12.66 0-19-.1-7.27-.27-14-.51-20.65-.59-16.42-1.54-29.86-3-42.29a325.27 325.27 0 0 0-7.2-41.86A199.53 199.53 0 0 0 821 1114a180.36 180.36 0 0 0-8-18.68q-1.41-2.87-2.91-5.67a3.54 3.54 0 0 0-.54-.73z" fill="#403c31"></path><path d="M705.79 347.24c0-.28-.09-.55-.14-.83" stroke="#58948d"></path><path d="M708.9 361.79c4 4.56 8.18 9 12 13.74a87.91 87.91 0 0 1 5.24 7.33 70.64 70.64 0 0 1 4.45 8.38c.54 1.23 1.06 2.47 1.56 3.71a177.62 177.62 0 0 1 4.39 19.19 196.31 196.31 0 0 1 1.19 49.45 190.67 190.67 0 0 1-3.7 21.9c-.16.65-.34 1.29-.5 1.94a59 59 0 0 1-7.36 8.93 56.81 56.81 0 0 1-7.92 6.79 43.21 43.21 0 0 1-4.26 2.47 38.35 38.35 0 0 1-4.62 3.74 43.6 43.6 0 0 1-9.4 4.73 40.07 40.07 0 0 1-11.3 2.4 49.36 49.36 0 0 1-10.3-.51 70.83 70.83 0 0 1-25.88-10.24c-2.52-1.6-5.09-3.15-7.55-4.84-4.25-2.93-8.29-6.16-12.4-9.28-2-2.43-4-4.78-6.15-7-.79-.83-1.59-1.63-2.42-2.42.94.5 1.89 1 2.84 1.48a156.86 156.86 0 0 1-19.52-16.6 192 192 0 0 1-19.27-22.86c-2.39-3.32-4.7-6.79-6.95-10.35.34-1.31.68-2.62 1-4a119 119 0 0 0 2.5-21.2 138 138 0 0 0-1-20.63 219.07 219.07 0 0 0-9.68-43c-.8-2.43-1.63-4.86-2.49-7.27-.65-1.19-1.3-2.38-2-3.56-2.06-3.62-4.34-7.1-6.66-10.55l-.53-.82c.93 3.78 1.69 7.61 2.33 11.45.95 6 1.62 12 2.15 18 .54 6.32.59 12.69.73 19a305.08 305.08 0 0 1-1.57 36.4 173.26 173.26 0 0 1-2.79 18.41 139.79 139.79 0 0 1-5.85 19.27 281.15 281.15 0 0 1-12.54 26.72l-.64 1.17c-3.91 5-7.84 10-11.85 14.95q-8.76 10.8-18.28 20.88-7.61 6.86-15.58 13.3c-3.78 3-7.65 5.9-11.54 8.75-6.14 4.49-12.38 8.84-18.66 13.13-5.48 3.76-10.94 7.55-16.43 11.27-2.56 1.73-5.15 3.39-7.75 5-3 1.23-6.11 2.33-9.18 3.48-.9 0-1.8 0-2.67-.12l-.8-.08a16.24 16.24 0 0 1-2.72.43h-1.16a15.79 15.79 0 0 1-5.64-1 149.39 149.39 0 0 0 5 16.23c2.59 7.08 5.25 14.12 8.29 21 2.69 6 5.41 11.89 7.87 17.93a176.39 176.39 0 0 1 6.45 17.5 95.15 95.15 0 0 1 2.23 9.63c8.39-5.29 18.32-10 30.63-14.47 8-2.92 16.6-5.56 27.18-8.3 10.05-2.61 19.17-4.59 27.86-6a319.91 319.91 0 0 1 52.41-4.34q7.59 0 15.17-.1h3.5l3.32-1.49 3-1.33 3.81-1.71c11.9-5.48 23.74-11.2 35.21-17.54l16.75-9.23a103.31 103.31 0 0 0 13.69-9.2 48.32 48.32 0 0 0 6-5.74c1.86-2.17 3.7-4.37 5.43-6.65l.89-1.3c3.24-2.18 6.41-4.46 9.48-6.88-.08.36-.17.71-.25 1.07-.91 4.09-1.91 8.17-3.21 12.16a103.89 103.89 0 0 1-4.43 10.89 107.68 107.68 0 0 1-5.42 10.79c-2.18 3.64-4.83 7-7.36 10.42a76.34 76.34 0 0 1-19.09 17.77 229.3 229.3 0 0 1 35 6.08 128.41 128.41 0 0 1 18.05 6.41c3-2.36 6-4.65 9.11-6.76 4.31-2.89 8.74-5.62 13-8.54 3.45-2.36 6.84-4.8 10.14-7.37a131 131 0 0 0 20.83-21.72 71.51 71.51 0 0 0 4.77-7.18 69.66 69.66 0 0 0 3.32-6.78 103.06 103.06 0 0 0 4.86-21.9c.21-2.5.26-5 .26-7.5 0-2.9 0-5.8-.19-8.7-.36-5.45-.94-10.89-1.79-16.29 0-.3-.11-.61-.17-.91.12-1.79.23-3.58.31-5.36.09-2.21.09-4.42 0-6.63-.19-10.6-1.8-21.16-3.63-31.57-1.53-8.71-3.43-17.35-5.14-26-1.08-5.49-2.21-11-3.54-16.41-1.67-6.88-3.52-13.72-5.66-20.46a195.9 195.9 0 0 0-7.91-20.56 118.71 118.71 0 0 0-6.18-12.36 89 89 0 0 0-3.45-8.65c-.12-.28-.28-.54-.41-.81a39.35 39.35 0 0 0-6.29-9.16 23.39 23.39 0 0 0-11.13-6.44 41.28 41.28 0 0 0-6.83-1.15c-2.51-.28-5-.47-7.57-.72a36.66 36.66 0 0 1-5.7-1 6.48 6.48 0 0 0-1.73-.23 6.85 6.85 0 0 0-2.2.4c-.11.76-.25 1.51-.35 2.27v.1c.59 3.54 1.21 7.08 1.81 10.62.1.61.2 1.21.31 1.82zm32.47 122.63zm0 0zm0 .17v.1zM428.5 566.74l-.5.26zm143.87 1c-5.71 4.93-11.7 9.54-17.79 14A160.47 160.47 0 0 1 536.71 593c-2.67-5.28-5.24-10.62-7.64-16 12.23-10.21 22.88-22.15 34-33.53 6.35-6.47 12.71-12.92 19.2-19.25 3.38-3.29 6.77-6.57 10.22-9.79q1.59-1.49 3.19-3c5.39 5.46 10.86 10.85 16.33 16.23-3.26 3.26-6.56 6.49-9.75 9.82-4.91 5.14-9.74 10.34-14.69 15.42s-9.85 10.17-15.2 14.79zm176.35-2.91a91.57 91.57 0 0 1-12.67 13.36q-6-8.22-11.69-16.63c.66-.69 1.3-1.4 1.93-2.13 2.9-4.06 5.41-8.39 8.38-12.41a71.42 71.42 0 0 1 6.14-7.63 49.73 49.73 0 0 1 6.82-5.81q6.23 9 12.77 17.7a169.67 169.67 0 0 0-11.68 13.5z" fill="#58948d"></path><path d="M705.86 346.26l-.21.07.12.79.12.73.09.53z" fill="#58948d"></path><path stroke="#58948d" d="M741.37 484.42l.01-.03"></path><path d="M741.37 484.49v-.07" stroke="#58948d"></path><path d="M741.34 484.69v-.2" stroke="#58948d"></path><path d="M428.5 566.74l-.5.26" stroke="#58948d"></path><path d="M655 2388.75h-1.23a19.22 19.22 0 0 0-2.4.16 13.75 13.75 0 0 0-2.69.75c-.36.13-.72.26-1.08.37a18.18 18.18 0 0 0-4.09 2.22l-1 .63c-2.52 1.58-4.94 3.4-7.27 5.15l-.44.33a45.19 45.19 0 0 0-7.15 7.08c-3.77 4.46-6.54 9.81-9.22 15l-.27.54c-1.06 2-2.06 4.09-3.05 6.14-1.15 2.36-2.34 4.8-3.59 7.16a41.06 41.06 0 0 1-3.82 5.56c-.31.26-.63.53-1 .78l-.17.1-.3.05q-.86-.08-1.71-.21a43.24 43.24 0 0 1-6.72-2.84 47.78 47.78 0 0 1-7.12-5.25 69.21 69.21 0 0 1-8.67-11.07 148.36 148.36 0 0 1-7.51-15c-2.5-5.66-4.77-11.25-6.76-16.62s-3.91-10.94-5.7-16.1c-.69-2-1.38-4-2.11-6 .27-.62.5-1.24.71-1.84l-.43-.92c-.08-.17-.14-.34-.21-.51-2.36-4.21-4.81-8.38-7.11-12.62a9.52 9.52 0 0 0-1.32.13 8.88 8.88 0 0 0-6.72 5.42 131.8 131.8 0 0 1-6.11 13.92 105.82 105.82 0 0 1-6.27 9.71c-2.63 3.6-5.63 7-8.52 10.24l-.79.89a244.56 244.56 0 0 0-17.61 21.43 98.36 98.36 0 0 0-7.1 11.91 61.22 61.22 0 0 0-4.8 13.7 47.5 47.5 0 0 0-1 12.63v.42a51 51 0 0 0 1.24 9.2 77.45 77.45 0 0 0 8.16 20.72 146.7 146.7 0 0 0 14.16 20.68c11.67 14.49 25.21 27.08 38.11 38.53 10.6 9.4 21.71 18.57 32.45 27.44l1.22 1 2.39 2c8.29 6.86 16.87 13.94 24.8 21.45 10.6 10.4 19.49 22.42 27.53 33.84q2.4 3.42 4.77 6.85c6.73 9.69 13.68 19.7 21.6 28.71 10.75 12.21 22.52 21.14 35 26.56a80 80 0 0 0 22.63 5.8 85.18 85.18 0 0 0 9.56.51c4.59 0 9.12-.33 13.09-.71.41-.85.85-1.68 1.27-2.52s.83-1.68 1.26-2.52q2.13-4.22 4.35-8.4c1-2.13 2-4.27 3-6.42.41-.9.84-1.8 1.25-2.71-3.59-3.26-7.25-6.44-10.84-9.55l-4.33-3.77-1.53-1.34c-6.07-5.31-12.35-10.79-18.31-16.43a164 164 0 0 1-24-28.79 137.63 137.63 0 0 1-12.5-28.5c-4.4-15.39-6.61-31.07-8.2-44.39-.69-5.81-1.31-11.73-1.9-17.45l-.61-5.87c-.13-1.28-.27-2.54-.41-3.81-.28-2.52-.56-5-.78-7.57-.31-3.49-.45-7-.55-10-.12-6.63-.07-13.38 0-19.91.09-12.15.18-24.73-.84-37.06-.34-4.09-.91-8.36-1.69-12.69-.52-2.92-1.29-5.83-2-8.65-.37-1.43-.75-2.85-1.1-4.28-.29-1.23-.56-2.47-.83-3.7-.36-1.58-.71-3.15-1.1-4.71a25.35 25.35 0 0 0-4.09-9.62 13.35 13.35 0 0 0-4.49-3.68c-.42-.22-.81-.41-1.14-.55a10.31 10.31 0 0 0-4.25-1.13zm-14.71 166.86a232.73 232.73 0 0 1-12-36.15q-3.44-13.58-5.85-27.38l8.23-6.52.92-.73q5.1-3.28 10.12-6.7a9.93 9.93 0 0 1 1 3.11c2.53 16.83 5.59 33.53 10.32 49.88 1.67 5.43 3.54 10.79 5.43 16.13-6 2.85-11.85 6.05-17.66 9.37a8.74 8.74 0 0 1-.48-1.01z" fill="#403c31"></path><path d="M1035.56 1589a76.39 76.39 0 0 1-4.4 10 67.43 67.43 0 0 1-8.16 11.45 40.77 40.77 0 0 1-6 5 31.87 31.87 0 0 1-3.12 1.51c-.65.27-1.3.55-2 .78a17.38 17.38 0 0 1-9.29.18 37.66 37.66 0 0 1-6.66-2.75 57.2 57.2 0 0 1-9.16-6.93 90.44 90.44 0 0 1-12.13-15.43 101 101 0 0 1-9.33-20.32c-2.36-9-2.74-18.5-3.1-27.64-.14-3.29-.27-6.7-.5-10-.21-3-2.46-6-4.59-7.53a11.9 11.9 0 0 0-7-2.3h-.5a11.18 11.18 0 0 0-8.87 4.7c-5.62 2.6-12.83 6.18-18.92 11.25a34 34 0 0 0-6.91 7.8 28.86 28.86 0 0 0-1.46 2.62 35.31 35.31 0 0 0-2.73 8.32 42.46 42.46 0 0 0-.42 11.25 69.59 69.59 0 0 0 2.45 13.67c3.23 12.63 7.31 25.89 12.11 39.41 4.38 12.32 9.2 25.17 14.73 39.3q2.72 7 5.4 13.94l1.71 4.43 1.37 3.56c1.84 4.81 3.75 9.78 5.9 14.55A154.89 154.89 0 0 0 1000 1758a116.14 116.14 0 0 0 22.47 14c4.58 2.11 9.58 4.15 16.21 6.59 18.21 6.73 33.41 11.26 47.83 14.27a89.64 89.64 0 0 0 18.2 2.31h1.81c1.43 0 2.88-.06 4.32-.19l.39-1.27c.43-1.46.88-2.91 1.33-4.36.29-1 .58-1.9.88-2.85q.94-2.93 1.93-5.84c.13-.39.25-.78.38-1.16q1.58-4.55 3.24-9.06c.9-2.44 1.81-4.87 2.75-7.29-1-1-2-1.94-3-2.88l-1.09-1c-2.87-2.7-5.88-5.29-8.47-7.49-4.86-4.14-9.9-8.21-14.8-12.14l-3.08-2.49-.85-.68c-4.74-3.82-9.64-7.77-14.16-12-.69-.68-1.37-1.39-2-2.12a22 22 0 0 1-2.06-2.81 83.09 83.09 0 0 1-7.35-16.4 111.77 111.77 0 0 1-3.57-25.16c-.11-6 0-12 .17-17.85l.09-3.86c.2-9.59.06-17.5-.43-24.9a194.4 194.4 0 0 0-2.83-20.14l-.56-3.24a64.53 64.53 0 0 0-2.71-10.36 33.31 33.31 0 0 0-6.58-10.45 7.87 7.87 0 0 0-5.86-2.79 8.28 8.28 0 0 0-1.2.09 7.65 7.65 0 0 0-2.45.88 7.21 7.21 0 0 0-3.39 3.64zm12.49 115.85c-6.38 3.46-12.72 7-19 10.6-9.82-17.41-16.45-36.43-26.61-53.67a7.37 7.37 0 0 1-.81-2c6.48-4.09 13-8.16 19.47-12.18a13 13 0 0 1 1.73 1.75c.53.88 1.08 1.75 1.61 2.63a217.29 217.29 0 0 1 13.43 28.35c3.32 8.22 6.62 16.43 10.18 24.55z" fill="#403c31"></path><path d="M701.92 146.07" stroke="#403c31"></path><path d="M701.56 146.12l.34-.05a27 27 0 0 1 5.54-.15 18.22 18.22 0 0 1 3.71 1 36.36 36.36 0 0 1 6.16 3.58 50 50 0 0 1 6.41 7.06c1.1 1.46 2.16 2.94 3.2 4.44a85.81 85.81 0 0 0 5.55 7.56 9.78 9.78 0 0 0 15.37-2 10.18 10.18 0 0 0 1-7.53c-1-4.95-4.14-9.55-7.68-13a28.83 28.83 0 0 0-5.74-4.27 23.65 23.65 0 0 0-6.95-2.69 39.2 39.2 0 0 0-8.1-.82c-1.07 0-2.13 0-3.19.12-3.81.28-7.49 1.38-11.26 1.95-1.83.24-3.66.46-5.48.73a2.12 2.12 0 0 0-1.48 2.61 2.18 2.18 0 0 0 2.6 1.46z" fill="#403c31"></path><path d="M785.69 164.09a31 31 0 0 0-3.48.19 27.3 27.3 0 0 0-3.37.59 12.85 12.85 0 0 0-2.19.81l-1.08.49a11.23 11.23 0 0 0-3 2 15.34 15.34 0 0 0-2.67 3.45 5.41 5.41 0 0 0-.71 2.66 5.31 5.31 0 0 0 8 4.64 42 42 0 0 0 4.6-3.21l-.43.34a25.9 25.9 0 0 1 4.13-2.65 12.26 12.26 0 0 1 1.8-.49 18.15 18.15 0 0 1 2.71.09c.56.1 1.12.21 1.68.34h.35a4.31 4.31 0 0 0 4.94-3 4.43 4.43 0 0 0-1.35-4.41 3.77 3.77 0 0 0-1.65-.88 36.06 36.06 0 0 0-8.28-.96z" fill="#403c31"></path><path d="M718.4 188.12c1 1 1.92 2 2.89 3 1.8 1.82 3.72 3.47 5.38 5.43a4.19 4.19 0 0 0 5.08.66 4.26 4.26 0 0 0 1.91-4.74 44.44 44.44 0 0 0-1.64-5.38 27 27 0 0 0-3.67-6.54c-.75-1-1.5-1.94-2.35-2.85a24.11 24.11 0 0 0-2.61-2.33 48.06 48.06 0 0 0-6.46-4.4 38.59 38.59 0 0 0-6.19-2.77c-2.12-.75-4.23-1.54-6.38-2.21a45.36 45.36 0 0 0-12.49-2.23h-.08a3.29 3.29 0 0 0 .08 6.58c.93 0 1.84.1 2.75.2a29.54 29.54 0 0 1 6 1.69 28.47 28.47 0 0 1 5.05 2.9c1.28 1.07 2.49 2.21 3.69 3.37a7 7 0 0 0-2.89 3.79 9.68 9.68 0 0 0-.55 2.9c-.19 2.35 1.36 4.46 3.2 5.7a6.34 6.34 0 0 0 6.54 0 8.89 8.89 0 0 0 2.74-2.77z" fill="#403c31"></path><path d="M773 191.38a24 24 0 0 0-4 1.46 18.83 18.83 0 0 0-4.2 2.79 5.85 5.85 0 0 0-1.5 2.58 5.94 5.94 0 0 0 0 3.13c1.67-.23 3.36-.34 5-.41s3.5-.1 5.25-.1h2.26c1.92 0 3.84.11 5.75.26l1.44-.29a5.43 5.43 0 0 0 3.38-2.6 5.66 5.66 0 0 0-2-7.75 5.28 5.28 0 0 0-2.74-.72 10.29 10.29 0 0 0-1.63.15c-1.23.19-2.46.43-3.69.68s-2.26.54-3.32.82z" fill="#403c31"></path><path d="M611.75 53.93l-.92.89a105.74 105.74 0 0 0-11.38 13.31c-6.77 9.16-12.38 20.16-17.17 33.64a190.87 190.87 0 0 0-8.85 37.56 292.19 292.19 0 0 0-2.68 41 368.11 368.11 0 0 0 2.32 39.5 355.53 355.53 0 0 0 5.58 35.94 4.86 4.86 0 0 0 3.53 3.46 4.61 4.61 0 0 0 1.28.19 5.06 5.06 0 0 0 4.8-3.65c1.68-4.67 3.51-9.16 5.08-12.94 1.27-3 2.56-5.94 3.85-8.91 3.72-8.59 7.54-17.4 10.68-26.32 1.4-4 2.54-7.79 3.48-11.49-.49-.54-1-1.07-1.49-1.59a30 30 0 0 0-3.58-2.77c-4.69-3.09-5.36-10.1-2.16-14.42a10.41 10.41 0 0 1 6.64-4 10.87 10.87 0 0 1 1.59-.13 10.15 10.15 0 0 1 1.91.21v-2c-.14-3.2-.4-6.41-.66-9.52-.22-2.69-.43-5.38-.59-8.09a119.35 119.35 0 0 1 .39-21.23 45.64 45.64 0 0 1 2.57-10.21 25.54 25.54 0 0 1 2.38-4.18 18.12 18.12 0 0 1 2.14-2.15 15.14 15.14 0 0 1 2.43-1.43 18 18 0 0 1 3.16-.85c.76-.07 1.51-.11 2.28-.11s1.47 0 2.22.1a18.33 18.33 0 0 1 3.33.9 19.25 19.25 0 0 1 3.23 1.92 25.26 25.26 0 0 1 3.48 3.59 40.33 40.33 0 0 1 4.28 7.52 80 80 0 0 1 4.9 19 94.22 94.22 0 0 1 .41 23.94c0 .4-.12.81-.19 1.21a4.37 4.37 0 0 0 0 1.77 4 4 0 0 0 2.18 3.1 4.12 4.12 0 0 0 .58.23 3.44 3.44 0 0 0 1 .13 3.72 3.72 0 0 0 1.87-.5 4 4 0 0 0 1.68-2.2l.73-1.73.5-1.22.18-.41-.11.16.1-.17a1.54 1.54 0 0 1 .08-.19c5-11.69 12.05-26.77 22.14-40a81.5 81.5 0 0 1 13.62-13.86 56.6 56.6 0 0 1 10.81-6.39 49.45 49.45 0 0 1 11-2.93 56.74 56.74 0 0 1 6.24-.35 57.52 57.52 0 0 1 6.61.39 59.85 59.85 0 0 1 12.62 3.35c3.94 1.76 7.8 4 11.2 5.92l2.36 1.35a132.08 132.08 0 0 0 15.59 7.24 35.12 35.12 0 0 0 6.17 2 58.93 58.93 0 0 0 8.79 1c1.5.07 3 .11 4.51.11 1.2 0 2.38 0 3.56-.07-.39 2.95-.64 6-.87 8.92-.13 1.54-.26 3.08-.4 4.62a5.66 5.66 0 0 0 1.71 4.12 5.87 5.87 0 0 0 4 1.69h.1a5.91 5.91 0 0 0 1.84-.3h.19a3.81 3.81 0 0 0 1.82-.46c1.2-.65 2.42-1.26 3.64-1.88 1.61-.81 3.27-1.65 4.87-2.56a45.44 45.44 0 0 0 8.7-6.56 30.11 30.11 0 0 0 8.55-13.66 4.61 4.61 0 0 0 1.62-2.52c1.32-5.67.49-11.63-.37-16.2a62.3 62.3 0 0 0-5.65-15.7A75.71 75.71 0 0 0 815 74.54a91.47 91.47 0 0 0-10.91-11.43 120.46 120.46 0 0 0-26-17.44c-1.38-.71-2.77-1.38-4.18-2l-.32-.19-.79-.47a118.26 118.26 0 0 0-18-8.42 128.92 128.92 0 0 0-18.07-5.36 184.88 184.88 0 0 0-39.37-4.3h-.87A167.23 167.23 0 0 0 659.66 29a107.46 107.46 0 0 0-31.77 12.68l-1 .6a95 95 0 0 0-15.14 11.65z" fill="#403c31"></path><path d="M598.72 339.55c-3.39-4.22-6.79-8.46-10.16-12.72q1.1 2.44 2.16 4.9c7.54 17.3 14.72 34.84 24.48 51q2.77 4.49 5.84 8.77l1.23 1.41a82.05 82.05 0 0 0 6 5.9 49 49 0 0 0 5.55 4.3 46.21 46.21 0 0 0 13.29 6.25 47.7 47.7 0 0 0 6.89 1.46 40.4 40.4 0 0 0 6.6 0 21.13 21.13 0 0 0 4.19-.65 35.37 35.37 0 0 0 6.32-2.14A40.94 40.94 0 0 0 687 394.4a68.84 68.84 0 0 0 3.95-6.27c.7-3.53 1.33-7.08 1.82-10.65a119.32 119.32 0 0 0 1-18.89c-.15-4.62-.44-9.27-.71-13.92-3.41 9.39-6.9 18.74-11.6 27.58a70.41 70.41 0 0 1-8.7 12.36 35.61 35.61 0 0 1-4.86 4 25.54 25.54 0 0 1-2.91 1.34 25.22 25.22 0 0 1-2.87.46 28 28 0 0 1-4.08-.47 42.37 42.37 0 0 1-7.26-3c-4.78-2.81-9.3-6-13.92-9.11a111.24 111.24 0 0 1-14.44-11.5 303.19 303.19 0 0 1-23.7-26.78z" fill="#ffd5bb"></path><path d="M706 348.35c.1-.76.24-1.51.35-2.27.33-2.25.66-4.5 1-6.75-.06-.16-.13-.33-.21-.5a6.48 6.48 0 0 0-1.87-2.43c.14 3.28.33 6.57.52 9.86l.12 2.12v.07z" fill="#ffd5bb"></path><path d="M623.73 199.69c4.73-2.13 7.43-8.26 5-13.06a29.66 29.66 0 0 0-10.18-11.4 12.45 12.45 0 0 0-3.48-1.61c-.27-.07-.53-.15-.79-.2a10.15 10.15 0 0 0-1.91-.21 10.87 10.87 0 0 0-1.59.13 10.41 10.41 0 0 0-6.64 4c-3.2 4.32-2.53 11.33 2.16 14.42a30 30 0 0 1 3.58 2.77c.51.52 1 1.05 1.49 1.59.21.23.44.46.65.7a10.08 10.08 0 0 0 11.71 2.87z" fill="#ffd5bb"></path><path d="M323.88 583.1c-.76-1.09-1.5-2.21-2.26-3.31-1.52-2.23-3-4.45-4.55-6.69-3-4.45-6-8.9-9.11-13.31-6.15-8.81-12.7-17.13-17.71-23.4-6.24-7.79-12.57-15.14-18.82-21.84A235.3 235.3 0 0 0 251 495a104.19 104.19 0 0 0-22.08-14.51l-.12-.06a36.19 36.19 0 0 0-5.61-2.07c-.85-.24-1.72-.48-2.63-.67-13.48 13.33-27.39 26.22-41 39.39q2.94 3.87 5.84 7.82c6.48 8.78 12.86 17.84 19.35 27.47 8.61 12.79 17.17 26.14 24.73 37.93 7.37 11.52 15 23.39 22.93 35.2.61.9 1.2 1.81 1.81 2.71 3.9 5.77 8 11.63 12.6 17.9l2.47 3.37q2.53 3.45 5.18 6.93c10.92-7.87 21.7-15.93 32.54-23.92s21.62-15.75 32.69-23.24a8 8 0 0 0-1.61-5.07c-.2-.3-.39-.58-.58-.88-4.95-7.45-9.41-14.06-13.63-20.2z" fill="#ffd5bb"></path><path d="M658.5 2547.25c-1.89-5.34-3.76-10.7-5.43-16.13-4.73-16.35-7.79-33-10.32-49.88a9.93 9.93 0 0 0-1-3.11q-5 3.4-10.12 6.7l-.92.73-8.23 6.52q2.41 13.78 5.85 27.38a232.73 232.73 0 0 0 12 36.15 8.74 8.74 0 0 0 .52 1c5.8-3.31 11.65-6.51 17.65-9.36z" fill="#ffd5bb"></path><path d="M1024.46 1652c-.53-.88-1.08-1.75-1.61-2.63a13 13 0 0 0-1.73-1.75c-6.52 4-13 8.09-19.47 12.18a7.37 7.37 0 0 0 .81 2c10.16 17.24 16.79 36.26 26.61 53.67 6.26-3.64 12.6-7.14 19-10.6-3.56-8.12-6.86-16.33-10.16-24.57a217.29 217.29 0 0 0-13.45-28.3z" fill="#ffd5bb"></path><path d="M602.29 537.47c3.19-3.33 6.49-6.56 9.75-9.82-5.47-5.38-10.94-10.77-16.33-16.23q-1.61 1.47-3.19 3c-3.45 3.22-6.84 6.5-10.22 9.79-6.49 6.33-12.85 12.78-19.2 19.25-11.15 11.38-21.8 23.32-34 33.53 2.4 5.42 5 10.76 7.64 16a160.47 160.47 0 0 0 17.87-11.3c6.09-4.46 12.08-9.07 17.79-14 5.35-4.62 10.3-9.74 15.23-14.8s9.75-10.28 14.66-15.42z" fill="#dbeae8"></path><path d="M740.81 539.34a71.42 71.42 0 0 0-6.14 7.63c-3 4-5.48 8.35-8.38 12.41-.63.73-1.27 1.44-1.93 2.13q5.65 8.43 11.69 16.63a91.57 91.57 0 0 0 12.67-13.36 169.67 169.67 0 0 1 11.68-13.55q-6.55-8.75-12.77-17.7a49.73 49.73 0 0 0-6.82 5.81z" fill="#dbeae8"></path></g></g></g></svg>