<svg xmlns="http://www.w3.org/2000/svg" viewBox="0 0.019977569580078125 1190.64013671875 1088.2900390625" style=""><g><g data-name="Layer 2"><g data-name="‘ëîé_1"><path d="M461.46 335.89L546 354.4c14.94 3.27 30 6.55 45.14 5.75 41.34-2.19 79.31-34.47 120.64-36.66 24.7-1.31 49.63 8.25 74 2.32 26.61-6.48 49-30.78 66.88-58.08 4.46-6.81 8.91-14.06 15-18 7.9-5.16 17.37-4 25.52-8.35 7.78-4.2 13.56-13 19.55-20.89 37.16-49 90.27-69.53 130.92-113.2 14.31-15.38 26.94-33.49 41.56-48.33 28.86-29.3 71-44.21 105.43-58.94v572.34H305.32s61.44-186 81.46-200.92 74.68-35.55 74.68-35.55z" fill="#8d5225"></path><path d="M989.55 667.92C931 605.68 882.44 535.61 814 506.27c-48.51-20.8-99.5-23.71-148.45-41.87-36.64-13.61-71.78-35.63-106.13-59.7C377.3 277 209.25 87.69 12.92 30L0 23.05v649.07s660.38 5.25 989.55-4.2z" fill="#a46835"></path><path d="M115.21 242.66c37.33 7.31 140.51 61.39 212.41 119S443.33 432 485.52 477.83s46.87 69.52 107.81 90.23 43.75 38.46 146.87 17.75 239.06-14 284.37-79.13 137.11 268.45 137.11 268.45H0V169.58s85.23 67.2 115.21 73.08z" fill="#df9c70"></path><path d="M423 581.18s196.87 141.14 278.12 148.2 93.75 56.46 209.37 0 135.94 0 178.12-38.81 95.31-88.22 95.31-88.22v250.53H0v-557.5S102.71 440 165.21 500s53.12 49.4 121.87 52.93S423 581.18 423 581.18z" fill="#c8874e"></path><path d="M387.59 801.37s45-39.23 81.33-66.33 47.51 40.48 118.16 33.16 43.62-36.75 120.31-81.31S804.67 725 871.21 583.42s152.5-112.87 172.79-156.36 81.45-142.7 100.21-160.24 46.3 16.29 46.3 16.29v518.26z" fill="#bb7942"></path><path d="M86.73 855.62C386.15 808.3 681.52 743.54 940.45 640.3c74.74-29.81 148.68-63.4 235.67-75.68l13.31-1.23v349.44H.15V863.6z" fill="#a46835"></path><path d="M1189.42 761.69s-243.63 81-283.38 90.93-238.36 36.57-314.11 32.62-103.27-35.58-213.35-47.44-154.41-42.51-214-44.48S0 780.15 0 780.15v185.51h1189.42z" fill="#8d5225"></path><path d="M1189.42 956.34c-80 0-242.11 5.45-376.13-10.91s-179.42-25.08-261.57-37.08-125.37-19.63-214-16.36-218.33 5.46-250.72-6.54-87-21.78-87-21.78v224.64h1189.42z" fill="#bb7942"></path><path d="M764.45 1013.15s-197.78 39.05-279.41 41-94.18 15.61-210.34 0-136.57 0-178.95-10.74S0 1019 0 1019v69.3h1189.42V934.1s-103.18 40-166 56.61-53.37 13.66-122.44 14.64-136.53 7.8-136.53 7.8z" fill="#df9c70"></path><path d="M715.41 1088.31L855.16 1073c104.59-11.46 210.9-23.33 307.54-62.42l26.72-5.39v83.11z" fill="#8d5225"></path></g></g></g></svg>