<svg xmlns="http://www.w3.org/2000/svg" width="1080" height="1275.36" viewBox="0.0062236785888671875 -0.003755331039428711 1079.9923095703125 1275.283203125" style=""><g><title>cancer05_311382372</title><g data-name="Layer 2"><g data-name="Capa 2"><path d="M385.53 879.85a6.84 6.84 0 0 0-.27.92c.68-1.77.79-2.2.27-.92z" fill="none"></path><path d="M432.86 486.65a282.2 282.2 0 0 1 71.72-25.16q8.34-2.83 16.73-5.54c5.44-1.76 7.75 6.79 2.35 8.54-.63.21-1.25.43-1.88.63.48.55 1 1.15 1.49 1.77l.6-.17h.09c23.47-11.91 42.09-20 50.72-23.56l4.2-62.45A96.64 96.64 0 0 1 565 366.34c-30.64 4.63-54.49 24.8-65.17 53.07-10.9 28.83-66.59 19-81.2 74.88 4.11-2.35 8.26-4.58 12.44-6.73a4 4 0 0 1 1.79-.91z" fill="#306a6e"></path><path d="M680.07 380.69l4 60.05c10.29 4 29.12 11.71 52.18 23.08s1 .27 2.72.78c1 .28 2.14.64 3.6 1.09.3-2.89 3.27-5.56 6.48-3.59 1.57 1 3.15 1.85 4.72 2.75h.46c39.22 8.84 75 26.38 106.85 48.34-6-77.32-72.34-62.08-84.33-93.82-12.58-33.3-43.42-55.39-82.14-54a96.8 96.8 0 0 1-14.54 15.32z" fill="#306a6e"></path><path d="M710.46 217a56.75 56.75 0 0 1 4.88-4.06c-1.79-17.59-2.93-38.82-3.62-55.59-3.15-2.76-47.48-41.06-77.65-41.06-31.29 0-85.34 41.31-85.34 41.31-.7 17.22-1.88 39.09-3.76 56.88 1 .81 2 1.64 2.9 2.52l40 87.66h82.54zm-28.12 36.12c-5.2 0-9.42-5.66-9.42-12.65s4.22-12.64 9.42-12.64 9.42 5.66 9.42 12.64-4.22 12.64-9.42 12.64zm-105.56 0c-5.2 0-9.42-5.66-9.42-12.65s4.22-12.64 9.42-12.64 9.42 5.66 9.42 12.64-4.2 12.64-9.42 12.64zM590 212.83c-9.29-2.55-19.82-4-27.86 2.57-4.65 3.81-11.35-2.82-6.66-6.67 10.87-8.91 24-8.55 37-5 5.86 1.61 3.36 10.7-2.48 9.1zm48.35 89.9c-12.77-3-23.36-6.26-23.42-20.67-.07-17.86 12-33 13.25-50.67.43-6 9.86-6 9.42 0-.75 10.19-4.09 19.14-7.67 28.63-1.89 5-4 10.11-4.92 15.43-2.09 11.82 6.08 15.93 15.85 18.19 5.89 1.36 3.37 10.45-2.53 9.09zm29.13-99c13-3.56 26.15-3.92 37 5 4.7 3.85-2 10.48-6.66 6.67-8-6.59-18.57-5.12-27.86-2.57-5.86 1.6-8.34-7.49-2.5-9.09z" fill="#f5957f"></path><path d="M680.07 380.69a96.8 96.8 0 0 0 14.59-15.3c19-24.48 29.66-58.81 35.58-90.67-18.68 15.45-42 28.69-54.9 35.54z" fill="#f5957f"></path><path d="M578.88 380.69l4.71-70.1c-12.6-6.66-35.91-19.82-54.75-35.24 6 32.09 16.83 66.62 36.19 91a96.64 96.64 0 0 0 13.85 14.34z" fill="#f5957f"></path><path d="M712 157.6l-.31-.26c.69 16.77 1.83 38 3.62 55.59 10.7-8.07 23.43-11.74 32.3-6l.36-1-1.28-39.48c-5.37 1.94-8.83 3-8.83 3z" fill="#ba704b"></path><path d="M545 214.47c1.88-17.79 3.06-39.66 3.76-56.88l-33.8-27.73-2.46 76v.07c9.31-4.48 22.07-.04 32.5 8.54z" fill="#ba704b"></path><path d="M584 304.65h3.9l-40-87.66c-.93-.88-1.91-1.71-2.9-2.52-10.39-8.58-23.15-13-32.48-8.51-6.84 3.32-11.84 11.41-12.59 26.42-.71 14.13 12.39 29.41 29 43 18.84 15.42 42.15 28.58 54.75 35.24zm-64.58-50.18q-4.29-15.71-8.59-31.42c-1.61-5.86 7.48-8.34 9.08-2.5q4.3 15.7 8.6 31.41c1.59 5.87-7.51 8.35-9.1 2.51z" fill="#f5957f"></path><path d="M715.34 212.93a56.75 56.75 0 0 0-4.88 4.06l-40 87.66H675l.38 5.61c12.91-6.85 36.22-20.09 54.9-35.54 16.2-13.39 28.89-28.43 28.19-42.34-.68-13.67-4.88-21.62-10.79-25.45-8.91-5.74-21.68-2.07-32.34 6zm31.93 15.33l-13.8 31.2c-2.45 5.54-10.57.74-8.14-4.75l13.8-31.21c2.45-5.5 10.57-.74 8.14 4.76z" fill="#f5957f"></path><path d="M614.11 406.69c-11-2.13-22.08-5.72-32.26-8.53-5.84-1.62-3.34-10.71 2.51-9.09 11.83 3.28 25.14 7.81 37.93 9.4l7.19-7.22 7.39 7.43c12.66-1.68 25.72-8.15 37.43-11.76 5.82-1.79 8.28 7.31 2.51 9.09-10.36 3.19-21.07 8-32 10.66l30.73 30.87s3.11 1.09 8.55 3.2l-4-60.05-4.73-70.43-.38-5.61H584l-.4 5.94-4.71 70.1-4.2 62.45c3.38-1.4 5.29-2.15 5.29-2.15zm-17.87-82.46c.84-2.4 5.7-2.2 11.76-1.19a133.24 133.24 0 0 0 43.2 0c6.07-1 10.92-1.21 11.77 1.19 1.83 5.18-10.06 20.44-33.37 21-23.31-.56-35.19-15.82-33.36-21z" fill="#f5957f"></path><path d="M631 399.1a44.23 44.23 0 0 0 5.84-.42l-7.39-7.43-7.19 7.22a68.77 68.77 0 0 0 8.74.63z" fill="#f5957f"></path><path d="M675.56 437.54l-30.73-30.87a59.59 59.59 0 0 1-13.8 1.86 88.37 88.37 0 0 1-16.92-1.84L580 441l-14.6 39.36c33.64 8.72 82.81 16.13 128.66 3z" fill="#f5957f"></path><path d="M93.64 483.47l-47.35 13.7s3 14.26 8.33 37.83l55.14-17.47z" fill="#f5957f"></path><path d="M580 441s-1.91.75-5.29 2.15c-8.63 3.59-27.25 11.65-50.72 23.56a304.35 304.35 0 0 0 41.41 13.65z" fill="#f5957f"></path><path d="M675.56 437.54L694 483.33a147.38 147.38 0 0 0 42.26-19.51c-23.06-11.37-41.89-19.1-52.18-23.08-5.41-2.11-8.52-3.2-8.52-3.2z" fill="#f5957f"></path><path d="M528.5 252q-4.31-15.71-8.6-31.41c-1.6-5.84-10.69-3.36-9.08 2.5q4.29 15.72 8.59 31.42c1.59 5.8 10.69 3.32 9.09-2.51z" fill="#c9604f"></path><path d="M725.33 254.71c-2.43 5.49 5.69 10.29 8.14 4.75l13.8-31.2c2.43-5.5-5.69-10.3-8.14-4.76z" fill="#c9604f"></path><path d="M640.84 293.64c-9.77-2.26-17.94-6.37-15.85-18.19 1-5.32 3-10.4 4.92-15.43 3.58-9.49 6.92-18.44 7.67-28.63.44-6-9-6-9.42 0-1.29 17.66-13.32 32.81-13.25 50.67.06 14.41 10.65 17.71 23.42 20.67 5.9 1.36 8.42-7.73 2.51-9.09z" fill="#c9604f"></path><path d="M629.6 345.25c23.31-.58 35.2-15.84 33.37-21-.85-2.4-5.7-2.2-11.77-1.19a133.24 133.24 0 0 1-43.2 0c-6.06-1-10.92-1.21-11.76 1.19-1.83 5.16 10.05 20.42 33.36 21z" fill="#fff"></path><path d="M676.81 396c5.77-1.78 3.31-10.88-2.51-9.09-11.71 3.61-24.77 10.08-37.43 11.76a44.23 44.23 0 0 1-5.84.42 68.77 68.77 0 0 1-8.74-.63c-12.79-1.59-26.1-6.12-37.93-9.4-5.85-1.62-8.35 7.47-2.51 9.09 10.18 2.81 21.25 6.4 32.26 8.53a88.37 88.37 0 0 0 16.89 1.85 59.59 59.59 0 0 0 13.8-1.86c10.94-2.62 21.65-7.47 32.01-10.67z" fill="#c9604f"></path><path d="M576.78 227.82c-5.2 0-9.42 5.66-9.42 12.64s4.22 12.65 9.42 12.65 9.42-5.66 9.42-12.65-4.2-12.64-9.42-12.64z" fill="#392733"></path><path d="M682.34 227.82c-5.2 0-9.42 5.66-9.42 12.64s4.22 12.65 9.42 12.65 9.42-5.66 9.42-12.65-4.22-12.64-9.42-12.64z" fill="#392733"></path><path d="M592.49 203.74c-13-3.56-26.16-3.92-37 5-4.69 3.85 2 10.48 6.66 6.67 8-6.59 18.57-5.12 27.86-2.57 5.83 1.59 8.33-7.5 2.48-9.1z" fill="#ba704b"></path><path d="M697.82 215.4c4.65 3.81 11.36-2.82 6.66-6.67-10.87-8.91-24-8.55-37-5-5.84 1.6-3.36 10.69 2.5 9.09 9.27-2.54 19.81-4.01 27.84 2.58z" fill="#ba704b"></path><path d="M100.21 441c8.63-25.91 16.48-28.93 16.48-42.28s-23 21.9-23 21.9-7.57-127.92-17-135.83-9.42 94-9.42 94-14.66-106.52-20.94-105 0 105 0 105-19.1-90.87-25.38-91.66 3.14 91.66 3.14 91.66-13.77-60.39-22.4-56.46 17.38 145.42 44.6 174.84l47.35-13.7c.28-11.05-2.07-16.57 6.57-42.47z" fill="#f5957f"></path><path d="M81.73 545.56a151.76 151.76 0 0 1 31.15-8.82 98.08 98.08 0 0 1 13.78-1.33l-10-20.08-6.93 2.2L54.62 535l-8.33 2.64s2.05 9.43 5.8 25.49c6.36-6.36 17.25-12.61 29.64-17.57z" fill="#e8ba67"></path><path d="M523.27 466.89l.6-.17-.6.17z" fill="#e8ba67"></path><path d="M739 464.6c1 .28 2.14.64 3.6 1.09-1.44-.45-2.6-.81-3.6-1.09z" fill="#e8ba67"></path><path d="M878.92 1235.35l-9.23-120.18c2 43.38 3.61 88.11 3.86 121.95 1.79-.57 3.58-1.18 5.37-1.77z" fill="#fff"></path><path d="M682.14 1252.67c-3.69-41.48-5-110.16-5.11-188.06v-.06c-.15-195.08 7.83-447.41 7.9-472.18.1-35 33.62-107.8 58.16-124.28a4.06 4.06 0 0 1-.47-2.4 225.286 225.286 0 0 0-6.32-1.87 147.38 147.38 0 0 1-42.3 19.51c-45.85 13.15-95 5.74-128.66-3A304.35 304.35 0 0 1 524 466.7h-.09l-.6.17c19.43 23.59 65.84 97.79 67.48 127.25 1.19 21.31 6.79 268.67 8 463.24v.08c.49 80.83.22 152.48-1.44 195v.07c-.13 3.08-.25 6-.39 8.78-.24 5-.51 9.53-.81 13.45a828.3 828.3 0 0 0 88.41-1.53c-.88-5.8-1.66-12.7-2.36-20.6z" fill="#fff"></path><path d="M548.72 157.59s54-41.31 85.34-41.31c30.17 0 74.5 38.3 77.65 41.06l.31.26 25.86 11.81s3.46-1.06 8.83-3c22-7.94 76.48-30.77 63-57.8-9.84-19.61-31.6-15.94-31.6-15.94s28.33-31.88 9.44-50.77-58.15 8.27-58.15 8.27 29.23-33.06-14.46-47.82-134 43.65-172.37 70.84-27.65 56.67-27.65 56.67z" fill="#ba704b"></path><path d="M200.93 645.13c.77 2.91 1.47 5.78 2 8.58-8-38.93-35.37-89.79-52.51-110.93a15.53 15.53 0 0 0-4.42-3.64 839.14 839.14 0 0 1 44.78 107.56z" fill="#306a6e"></path><path d="M477.91 471.54c8.74-3.77 17.67-7 26.67-10.05a282.2 282.2 0 0 0-71.72 25.16 4.22 4.22 0 0 1 1.06-.24c16.26-.28 29.5-8.63 43.99-14.87z" fill="#306a6e"></path><path d="M112.9 536.74a839.36 839.36 0 0 1 46.81 112.6 4.13 4.13 0 0 1 .13 2.18c7.35-1.15 14.69-2.33 22-3.45A822.43 822.43 0 0 0 136.67 540a4.23 4.23 0 0 1 0-3.95 28.19 28.19 0 0 1 9.39 3.07c-4.8-2.74-11.57-3.86-19.37-3.73a98.08 98.08 0 0 0-13.79 1.35z" fill="#306a6e"></path><path d="M127.78 657c1.28-.3 2.56-.66 3.83-.88 6.72-1.17 13.47-2.2 20.21-3.27a4.36 4.36 0 0 1-.64-1.12A821.78 821.78 0 0 0 104.67 540a4.94 4.94 0 0 1-.43-1.56c2.92-.68 5.81-1.25 8.65-1.72a151.76 151.76 0 0 0-31.15 8.82 838.69 838.69 0 0 1 46 110.87 5 5 0 0 1 .04.59z" fill="#306a6e"></path><path d="M396.47 1180.85c1.63-16.37 13.48-22.08 26.33-29.5 28.34-16.35 49.25-35.91 69-61.8 10.11-13.28 16.87-20.72 34.26-23.34 7.16-1.08 66.93-2.72 67-2.65-2.32-4.07 2.4-7.72 5.74-6.18-1.19-194.57-6.79-441.93-8-463.24-1.64-29.46-48-103.66-67.48-127.25-.52-.62-1-1.22-1.49-1.77a493.2 493.2 0 0 0-51.86 19.8c-11.89 5.41-22.73 10.12-36 10.35-4.49.08-5.38-5.32-2.82-7.71-4.18 2.15-8.33 4.38-12.44 6.73C358.84 528.47 307.3 583.51 277.5 649c-32 70.45-55.65 98-74.38 5.31 0-.21-.1-.43-.14-.64-25.64 4-52.18 6.49-77.44 12.32-8.24 1.91-15.89 5.35-23.58 8.52a4.85 4.85 0 0 1-3.64 1.49c-7.07 2.79-14.25 5.13-22 5.57a4.2 4.2 0 0 1-1-.14c-.74-2.4-1.49-4.78-2.22-7.15a4.29 4.29 0 0 1 3.19-1.56 66.12 66.12 0 0 0 16.64-3.56A824.88 824.88 0 0 0 49.86 565.6a39.94 39.94 0 0 1 6.72-6.39 840.08 840.08 0 0 1 44.67 107c6.07-2.33 12.16-4.81 18.25-6.86a3.3 3.3 0 0 1-.32-.55 823.09 823.09 0 0 0-45.54-109.71c2.6-1.24 5.31-2.41 8.09-3.53-12.39 5-23.28 11.21-29.64 17.57-3.28 3.28-5.39 6.59-5.8 9.76-2.76 21 60.64 196.78 76.57 272.61a4.11 4.11 0 0 1 4.26-.12 102.35 102.35 0 0 1 50.94 64.68c1.46 5.52-7.09 7.86-8.53 2.35a93.52 93.52 0 0 0-45-58.25c.23 1.29.48 2.64.67 3.85 10.45 66.75 54.9 164.7 131.05 166.47 68.65 1.59 122.88-127.72 129-143.71a6.84 6.84 0 0 1 .27-.92c.52-1.28.41-.83-.27.92-4.4 19.14-14.93 252.87-14.59 355.2q38.19 11.94 78.19 20.55c-23.96-10.92-54.97-49.64-52.38-75.67zM554.3 529.14c2.77-.35 4.14 1.6 4.19 3.76a4.27 4.27 0 0 1 2.18 2.53c3.45 10.17 3.8 22.32-4.91 30a16.48 16.48 0 0 1-10.65 4.16c-1.5 28.1 3.51 55.39.44 83.36-1.7 15.48-8.12 29.95-10.27 45.37-3.06 22 .64 42.84 9.62 63.17 2.28 5.17-5.35 9.67-7.64 4.47-13.69-31-14.45-59.94-5.55-92.36 9.41-34.31 2.47-70.54 4.7-106.17a18.46 18.46 0 0 1-4.75-3.68c-6.42-7-7-17.43-.65-24.66 5.8-6.62 14.91-8.89 23.29-9.95zM283.47 645.3c.95-5.62 9.48-3.22 8.54 2.35-2.93 17.46-5.82 34.92-8.78 52.37-2 11.73-3.55 22.72-12.76 31-4.23 3.81-10.51-2.44-6.27-6.26 10.28-9.24 10.29-25.87 12.44-38.74q3.42-20.36 6.83-40.72zm107.19 218.53c-2.34 5.19-10 .68-7.64-4.47 12.44-27.62 17-56.47 21.88-86.11 3.6-21.84 5.77-45 18-64 3.09-4.77 10.75-.32 7.64 4.47-15.15 23.37-15.72 55.1-20.36 81.84-4.06 23.72-9.62 46.31-19.52 68.27z" fill="#306a6e"></path><path d="M518 1261.67c-12.26 0-25.62 1.2-38.66.77a850.59 850.59 0 0 0 116.75 12.38c.3-3.92.57-8.43.81-13.45z" fill="#306a6e"></path><path d="M597.29 1252.58c-.13 3.08-.25 6-.39 8.78.1-2.77.26-5.7.39-8.78z" fill="#306a6e"></path><path d="M576.83 1075.07c-12.58-.08-25.25-1-37.83-.61-22.3.7-30.73 11.12-45.11 27.4-11 12.43-20.83 24.85-33.76 35.4-16.71 13.64-36.54 19.56-46.59 38.92q-14.58 14.76.61 30 4.1 7.07 8.55 13.92c7 10.32 15 20.69 26.22 26.74 21.61 11.63 56.58 6 80.11 5.88l68.26-.26c1.66-42.57 1.93-114.22 1.44-195q0 7.39.08 14.68c-5.68 3.14-15.97 2.97-21.98 2.93z" fill="#306a6e"></path><path d="M536.6 555.64a11.66 11.66 0 0 0 .8 1.11c.24-2 .49-4 .81-6 .91-5.62 9.44-3.23 8.54 2.35-.41 2.49-.6 5-.87 7.42a9.15 9.15 0 0 0 6.17-4.3c3.49-5.45 2.16-12.18.25-18-8.44 1.67-21.56 7.07-15.7 17.42z" fill="#306a6e"></path><path d="M1072.65 922c-22.66-104.78-40.73-209.25-85-276.54-28.09-42.7-71.3-94.16-126.52-132.27-31.83-22-67.63-39.5-106.85-48.34h-.46c18.61 10.67 37.92 17.69 58 25.51 15.9 6.2 28.24 16.73 40.64 28.21 4.19 3.89-2.09 10.14-6.27 6.27-17.4-16.13-33.91-24.34-55.8-32.5a264.34 264.34 0 0 1-45.72-22.59 4.32 4.32 0 0 1-1.54-1.66c-24.54 16.48-58.06 89.29-58.16 124.28-.07 24.77-8 277.1-7.9 472.18 15 .52 30 1.15 33.34 1.66 17.39 2.62 24.15 10.06 34.26 23.34 19.71 25.89 40.63 45.45 69 61.8 12.85 7.42 24.7 13.13 26.33 29.5 2.69 27.06-30.94 67.93-55.23 76.92-20.4 7.56-45 4-66.3 3.9l-35.39-.14q-.45-4.18-.86-8.84c.7 7.9 1.48 14.8 2.36 20.6a814.36 814.36 0 0 0 189-36.17c-.25-33.84-1.88-78.57-3.86-121.95-3.51-76.72-8.12-149.13-8.12-149.13s34.26 83 48.9 195.74l-.06-.46a4.1 4.1 0 0 1 1.6-.15 430 430 0 0 0 140.37-7.26 4 4 0 0 1 3 .53l.83-.49c2.76-78.76 38.93-127.83 16.41-231.95zM726.89 691.86c-3.61-9.65-6.61-18.35-7.06-28.67-1.36-31.63 2-62.71.65-94.36-4.54.68-9-.19-12.14-3.5a3.84 3.84 0 0 1-1.43-1.68c-3.84-8.55-1-17.87 4.86-24.79 5-5.9 13.6-10.65 21-6.16 9.32 5.64 9.85 19.43 3.55 27.35a23.81 23.81 0 0 1-6.94 5.63 478.39 478.39 0 0 1 1.68 55.53c-.62 19.58-5 39.95.69 59.15 9.34 31.3 21.06 51.32 15.18 85.38-1 5.61-9.5 3.22-8.54-2.35 4.78-27.55-2.12-46.39-11.5-71.53zm130.9 261.81c7.18-95.55-7.38-190.85-4-286.44.21-5.69 9.06-5.7 8.86 0-3.4 95.59 11.16 190.9 4 286.44-.43 5.66-9.29 5.69-8.86 0zm191.44-80.75c-3.23 21.63-9.82 41.91-7.1 64.09.69 5.65-8.17 5.58-8.85 0-2.42-19.69 2-37 5.57-56.1 4.53-24.29 3.84-48 2.51-72.55-.19-3.48 3-4.8 5.65-4q1.93 8.17 3.83 16.47c.78 17.38.97 34.78-1.61 52.09z" fill="#306a6e"></path><path d="M1029.31 1167.16q-11.16 1.78-22.34 3-.21 5.82-.4 11.64 10.9-5.65 21.78-11.71v-.41a4.25 4.25 0 0 1 .96-2.52z" fill="#306a6e"></path><path d="M976.66 1172.34q-.42 12.32-.85 24.64 10.89-5.12 21.75-10.57l.52-15.37c-7.08.62-14.27 1.03-21.42 1.3z" fill="#306a6e"></path><path d="M946.42 1172.47q-.66 19.13-1.31 38.25c7.24-3 14.48-6.19 21.7-9.48l1-28.61q-10.68.18-21.39-.16z" fill="#306a6e"></path><path d="M912 1170c-.19 0-.33-.13-.51-.17 2 16.93 3.56 34.52 4.49 52.55 6.72-2.54 13.43-5.24 20.14-8q.72-21.2 1.45-42.39c-8.49-.41-17.01-.99-25.57-1.99z" fill="#306a6e"></path><path d="M787.47 1246.89c12.35-5.57 21.43-19.45 28.41-30.21 12.3-19 23.69-33.25-.15-54.21-11.27-9.9-27.48-15.43-39.47-25.21-14.36-11.71-24.63-25.4-36.52-39.32-16-18.78-24-22.86-46.27-23.46-5.46-.15-10.94 0-16.42.12v-10c.06 77.9 1.42 146.58 5.11 188.06l25.22.1c25.44.11 56.31 4.84 80.09-5.87z" fill="#306a6e"></path><path d="M728.17 552.28c.11 1.05.18 2.1.29 3.14a11.52 11.52 0 0 0 2.21-2.73c1.86-3.61 1.43-12.14-3.84-12.92-7.76-1.16-14.76 12.43-12.42 19a6 6 0 0 0 5.52 1.4c-.2-2.62-.34-5.23-.61-7.85-.6-5.71 8.26-5.65 8.85-.04z" fill="#306a6e"></path><path d="M410.22 795.59c4.64-26.74 5.21-58.47 20.36-81.84 3.11-4.79-4.55-9.24-7.64-4.47-12.27 18.92-14.44 42.13-18 64-4.89 29.64-9.44 58.49-21.88 86.11-2.33 5.15 5.3 9.66 7.64 4.47 9.86-21.99 15.42-44.58 19.52-68.27z" fill="#1d5051"></path><path d="M862.66 667.23c.2-5.7-8.65-5.69-8.86 0-3.39 95.59 11.17 190.89 4 286.44-.43 5.69 8.43 5.66 8.85 0 7.17-95.54-7.39-190.85-3.99-286.44z" fill="#1d5051"></path><path d="M276.64 686c-2.15 12.87-2.16 29.5-12.44 38.74-4.24 3.82 2 10.07 6.27 6.26 9.21-8.29 10.77-19.28 12.76-31 3-17.45 5.85-34.91 8.78-52.37.94-5.57-7.59-8-8.54-2.35q-3.41 20.38-6.83 40.72z" fill="#1d5051"></path><path d="M169.53 912.41c1.44 5.51 10 3.17 8.53-2.35a102.35 102.35 0 0 0-50.94-64.68 4.11 4.11 0 0 0-4.26.12c.64 3.07 1.19 5.93 1.67 8.66a93.52 93.52 0 0 1 45 58.25z" fill="#1d5051"></path><path d="M1047 804.33c-2.62-.77-5.84.55-5.65 4 1.33 24.55 2 48.26-2.51 72.55-3.57 19.13-8 36.41-5.57 56.1.68 5.58 9.54 5.65 8.85 0-2.72-22.18 3.87-42.46 7.1-64.09 2.58-17.31 2.39-34.71 1.61-52.12q-1.88-8.25-3.83-16.44z" fill="#1d5051"></path><path d="M912 1161.17a4.1 4.1 0 0 0-1.6.15l.06.46c.35 2.68.7 5.35 1 8.07.18 0 .32.14.51.17 8.55.94 17.07 1.55 25.57 2l.08-2.36c.2-5.69 9.05-5.7 8.86 0 0 .93-.07 1.86-.1 2.8q10.71.35 21.37.16c0-1 .07-2 .11-3 .19-5.69 9.05-5.7 8.85 0l-.09 2.67c7.15-.27 14.29-.68 21.42-1.3v-1.37c.2-5.69 9-5.7 8.85 0v.48q11.17-1.2 22.34-3a4.71 4.71 0 0 1 6.11-1c6.67-3.78 13.33-7.72 20-11.73a4 4 0 0 0-3-.53 430 430 0 0 1-140.34 7.33z" fill="#1d5051"></path><path d="M946.52 1169.67c.19-5.7-8.66-5.69-8.86 0l-.08 2.36q-.72 21.2-1.45 42.39c3-1.22 6-2.44 9-3.7q.66-19.12 1.31-38.25c.01-.94.05-1.87.08-2.8z" fill="#1d5051"></path><path d="M976.75 1169.67c.2-5.7-8.66-5.69-8.85 0 0 1-.07 2-.11 3q-.48 14.31-1 28.61c3-1.37 6-2.85 9-4.26q.44-12.32.85-24.64z" fill="#1d5051"></path><path d="M1007 1169.67c.2-5.7-8.65-5.69-8.85 0v1.37l-.52 15.37q4.5-2.28 9-4.62l.4-11.64c-.03-.15-.03-.32-.03-.48z" fill="#1d5051"></path><path d="M1029.31 1167.16a4.25 4.25 0 0 0-1 2.51v.41c2.36-1.31 4.72-2.57 7.07-3.91a4.71 4.71 0 0 0-6.07.99z" fill="#1d5051"></path><path d="M94.27 673c-.43-1.28-.91-2.53-1.34-3.8a66.12 66.12 0 0 1-16.64 3.56 4.29 4.29 0 0 0-3.19 1.56c.73 2.37 1.48 4.75 2.22 7.15a4.2 4.2 0 0 0 1 .14c7.78-.44 15-2.78 22-5.57a4.29 4.29 0 0 1-4.05-3.04z" fill="#1d5051"></path><path d="M190.78 646.7c.29.88.64 1.75.93 2.64 1.81 5.43-6.75 7.74-8.54 2.36-.4-1.22-.87-2.42-1.28-3.63-7.36 1.12-14.7 2.3-22 3.45-.7 3.37-5.87 4.46-8 1.3-6.74 1.07-13.49 2.1-20.21 3.27-1.27.22-2.55.58-3.83.88 1 4.79-6.14 6.75-8.28 2.36-6.09 2-12.18 4.53-18.25 6.86.5 1.48 1.06 2.93 1.56 4.41a3.7 3.7 0 0 1-.85 3.95c7.69-3.17 15.34-6.61 23.58-8.52 25.26-5.83 51.8-8.31 77.44-12.32-.58-2.8-1.28-5.67-2-8.58z" fill="#1d5051"></path><path d="M136.67 540a822.43 822.43 0 0 1 45.22 108.05c.41 1.21.88 2.41 1.28 3.63 1.79 5.38 10.35 3.07 8.54-2.36-.29-.89-.64-1.76-.93-2.64a839.14 839.14 0 0 0-44.73-107.56 28.19 28.19 0 0 0-9.39-3.07 4.23 4.23 0 0 0 .01 3.95z" fill="#1d5051"></path><path d="M104.67 540a821.78 821.78 0 0 1 46.51 111.7 4.36 4.36 0 0 0 .64 1.12c2.15 3.16 7.32 2.07 8-1.3a4.13 4.13 0 0 0-.13-2.18 839.36 839.36 0 0 0-46.81-112.6c-2.84.47-5.73 1-8.65 1.72a4.94 4.94 0 0 0 .44 1.54z" fill="#1d5051"></path><path d="M127.78 657a5 5 0 0 0-.06-.54 838.69 838.69 0 0 0-46-110.87c-2.78 1.12-5.49 2.29-8.09 3.53a823.09 823.09 0 0 1 45.54 109.69 3.3 3.3 0 0 0 .32.55c2.15 4.36 9.29 2.4 8.29-2.36z" fill="#1d5051"></path><path d="M102.81 670.6c-.5-1.48-1.06-2.93-1.56-4.41a840.08 840.08 0 0 0-44.67-107 39.94 39.94 0 0 0-6.72 6.39 824.88 824.88 0 0 1 43.07 103.57c.43 1.27.91 2.52 1.34 3.8a4.29 4.29 0 0 0 4 3 4.85 4.85 0 0 0 3.64-1.44 3.7 3.7 0 0 0 .9-3.91z" fill="#1d5051"></path><path d="M538.21 550.8c-.32 2-.57 4-.81 6a8.7 8.7 0 0 0 8.48 3.82c.27-2.47.46-4.93.87-7.42.9-5.63-7.63-8.02-8.54-2.4z" fill="#1d5051"></path><path d="M531.71 673.61c-8.9 32.39-8.14 61.39 5.55 92.39 2.29 5.2 9.92.7 7.64-4.47-9-20.33-12.68-41.18-9.62-63.17 2.15-15.42 8.57-29.89 10.27-45.37 3.07-28-1.94-55.26-.44-83.36a17.13 17.13 0 0 1-8.7-2.16c-2.23 35.6 4.71 71.83-4.7 106.14z" fill="#1d5051"></path><path d="M738.41 763.39c-1 5.57 7.57 8 8.54 2.35 5.88-34.06-5.84-54.08-15.18-85.38-5.73-19.2-1.31-39.57-.69-59.15a478.39 478.39 0 0 0-1.68-55.53 26.43 26.43 0 0 1-8.92 3.15c1.39 31.65-2 62.73-.65 94.36.45 10.32 3.45 19 7.06 28.67 9.38 25.14 16.28 43.98 11.52 71.53z" fill="#1d5051"></path><path d="M728.46 555.42c-.11-1-.18-2.09-.29-3.14-.59-5.61-9.45-5.67-8.85 0 .27 2.62.41 5.23.61 7.85a17.76 17.76 0 0 0 8.53-4.71z" fill="#1d5051"></path><path d="M531.66 563.76a18.46 18.46 0 0 0 4.75 3.68 17.13 17.13 0 0 0 8.7 2.16 16.48 16.48 0 0 0 10.65-4.16c8.71-7.69 8.36-19.84 4.91-30a4.27 4.27 0 0 0-2.18-2.53c0-2.16-1.42-4.11-4.19-3.76-8.38 1.06-17.49 3.33-23.29 10-6.31 7.18-5.77 17.64.65 24.61zm20.64-25.45c1.91 5.78 3.24 12.51-.25 18a9.15 9.15 0 0 1-6.17 4.3 8.7 8.7 0 0 1-8.48-3.82 11.66 11.66 0 0 1-.8-1.11c-5.86-10.39 7.26-15.79 15.7-17.37z" fill="#1d5051"></path><path d="M729.4 565.68a23.81 23.81 0 0 0 6.94-5.63c6.3-7.92 5.77-21.71-3.55-27.35-7.42-4.49-16 .26-21 6.16-5.85 6.92-8.7 16.24-4.86 24.79a3.84 3.84 0 0 0 1.43 1.68c3.15 3.31 7.6 4.18 12.14 3.5a26.43 26.43 0 0 0 8.9-3.15zm-9.47-5.55a6 6 0 0 1-5.52-1.4c-2.34-6.53 4.66-20.12 12.42-19 5.27.78 5.7 9.31 3.84 12.92a11.52 11.52 0 0 1-2.21 2.73 17.76 17.76 0 0 1-8.53 4.75z" fill="#1d5051"></path><path d="M521.31 456q-8.38 2.71-16.73 5.54c-9 3.05-17.93 6.28-26.67 10.05-14.49 6.24-27.73 14.59-44 14.87a4.22 4.22 0 0 0-1.06.24 4 4 0 0 0-1.76.91c-2.56 2.39-1.67 7.79 2.82 7.71 13.27-.23 24.11-4.94 36-10.35a493.2 493.2 0 0 1 51.86-19.8c.63-.2 1.25-.42 1.88-.63 5.41-1.8 3.1-10.35-2.34-8.54z" fill="#1d5051"></path><path d="M742.62 465.69a4.06 4.06 0 0 0 .47 2.4 4.32 4.32 0 0 0 1.54 1.66 264.34 264.34 0 0 0 45.72 22.59c21.89 8.16 38.4 16.37 55.8 32.5 4.18 3.87 10.46-2.38 6.27-6.27-12.4-11.48-24.74-22-40.64-28.21-20-7.82-39.35-14.84-58-25.51-1.57-.9-3.15-1.79-4.72-2.75-3.17-1.97-6.14.7-6.44 3.59z" fill="#1d5051"></path><path d="M518 1261.67l78.9-.3c.14-2.77.26-5.7.39-8.78v-.07l-68.26.26c-23.53.09-58.5 5.75-80.11-5.88-11.24-6.05-19.22-16.42-26.22-26.74q-4.45-6.86-8.55-13.92-15.19-15.3-.61-30c10-19.36 29.88-25.28 46.59-38.92 12.93-10.55 22.78-23 33.76-35.4 14.38-16.28 22.81-26.7 45.11-27.4 12.58-.39 25.25.53 37.83.61 6 0 16.3.21 22-2.93q0-7.29-.08-14.68v-.08c-3.34-1.54-8.06 2.11-5.74 6.18 0-.07-59.81 1.57-67 2.65-17.39 2.62-24.15 10.06-34.26 23.34-19.71 25.89-40.62 45.45-69 61.8-12.85 7.42-24.7 13.13-26.33 29.5-2.59 26 28.42 64.75 52.39 75.67 10.09 2.16 20.25 4.11 30.48 5.92 13.09.37 26.45-.79 38.71-.83z" fill="#1d5051"></path><path d="M677 1064.61v10c5.48-.16 11-.27 16.42-.12 22.31.6 30.24 4.68 46.27 23.46 11.89 13.92 22.16 27.61 36.52 39.32 12 9.78 28.2 15.31 39.47 25.21 23.84 21 12.45 35.23.15 54.21-7 10.76-16.06 24.64-28.41 30.21-23.78 10.71-54.65 6-80.11 5.88l-25.22-.1q.4 4.65.86 8.84l35.39.14c21.27.08 45.9 3.66 66.3-3.9 24.29-9 57.92-49.86 55.23-76.92-1.63-16.37-13.48-22.08-26.33-29.5-28.33-16.35-49.25-35.91-69-61.8-10.11-13.28-16.87-20.72-34.26-23.34-3.36-.51-18.38-1.14-33.34-1.66z" fill="#1d5051"></path></g></g></g></svg>