<svg xmlns="http://www.w3.org/2000/svg" viewBox="-0.014651786535978317 0 1079.973388671875 905.8622436523438" style=""><g><g data-name="Слой 2"><g data-name="Слой 1"><path d="M696.12 443.48c2.41 5.39 8.61 8.3 14.51 8.41s11.59-2.11 17-4.56c12.94-5.88 24.38-13.24 35.54-21.17 6.11-4.34 12.14-8.85 18.28-13.38q11.16-8.22 21.65-17.3c7.78-6.74 15.64-14.41 18-24.43a21 21 0 0 0-9.1-22.45c-7.89-5.25-15.22-1.84-23 2.64-12.35 7.18-23.32 16.47-34.22 25.71l-1.61 1.36-17.83 15.11c-1.64 1.38-3.83 3-6.34 4.91-14.54 10.82-40.11 28.98-32.88 45.15z" fill="#fa9"></path><path d="M703.41 466.55c-11.23 8.95-24.55 15.32-38.34 19.63-1.41.43-3 .84-4.3.17-1.74-.89-2.14-3.36-1.34-5.15a10.85 10.85 0 0 1 4.08-4.13 95.65 95.65 0 0 1 15.49-8.55 109.29 109.29 0 0 1-27.09 10.71c-2.74.68-6.45.79-7.5-1.83-1-2.36 1.21-4.74 3.2-6.31a119.89 119.89 0 0 1 21-13.27 93 93 0 0 1-24.61 9.43 5.64 5.64 0 0 1-3.74 0c-1.75-.84-2.21-3.27-1.47-5.06a10.92 10.92 0 0 1 3.86-4.25 111.43 111.43 0 0 1 22.67-13.21 97.88 97.88 0 0 1-18.22 7.14c-3 .84-7.38.68-7.8-2.39-.29-2.18 1.88-3.81 3.79-4.91 18.75-10.76 40.09-24.78 62-27.31 5.12-.59 10.65.45 14.52 3.86 4.7 4.14 6.13 11.11 4.87 17.23s-4.84 11.53-8.87 16.32a85.71 85.71 0 0 1-12.2 11.88z" fill="#fa9"></path><path d="M683.83 413.69a21 21 0 0 0-3.15.55 28.81 28.81 0 0 0-5.65 2.38 97 97 0 0 1-22.89 7.5c-2.47.51-5.54 1.68-5.52 4.19 0 5.37 7.7 5.51 11.46 5.52 7.36 0 13.72-1.34 21.09.2 4.25.88 8.34 2.4 12.59 3.3s8.8 1.13 12.82-.51c3.33-1.36 7.66-5.87 7.56-9.72-.12-4.59-4.8-7-8.53-8.22l-14.31-4.61a13.54 13.54 0 0 0-5.47-.58z" fill="#fa9"></path><path d="M341.08 536.3a151.06 151.06 0 0 0-94.67 33.15 151.75 151.75 0 1 0 0 237.19 151.74 151.74 0 1 0 94.67-270.34z" fill="#e0e1f7"></path><path fill="#cac3fc" d="M651.79 541.82l390.78 352.85H492.49V541.82h159.3z"></path><path d="M713.49 541.82H552a177.43 177.43 0 0 0-177-164.23c-93.54 0-170.17 72.41-176.92 164.23H36.58c7.22-180.69 156-325 338.45-325s331.24 144.31 338.46 325z" fill="#cac3fc"></path><path d="M674.29 541.82H552a177.43 177.43 0 0 0-177-164.23c-93.54 0-170.17 72.41-176.92 164.23H75.79C83 382.76 214.2 256 375 256s292.09 126.76 299.29 285.82z" fill="#ffcf6e"></path><path d="M627.12 541.82H552a177.43 177.43 0 0 0-177-164.23c-93.54 0-170.17 72.41-176.92 164.23H123c7.16-133 117.29-238.68 252.08-238.68S620 408.79 627.12 541.82z" fill="#ffd1f9"></path><path d="M431.18 33.64v44.6c0 28.89-17.05 53.24-40.32 60.72a49.5 49.5 0 0 1-15.08 2.36h-3a49.7 49.7 0 0 1-9.73-1c-25.95-5.24-45.66-31-45.66-62.11V33.64z" fill="#ffc03f"></path><path d="M415.46 199.62h-74.74c19.64-5.06 22.28-30.46 22.28-59.27a49.7 49.7 0 0 0 9.73 1h3a49.5 49.5 0 0 0 15.13-2.35c-.67 27.67 3.26 50.71 24.6 60.62z" fill="#ffc03f"></path><path fill="#ffc03f" d="M331.21 199.62h91.44v18.78h-91.44z"></path><path d="M431.18 50.03H317.34"></path><path d="M331.21 199.62h91.44"></path><path fill="#ffd1f9" d="M361.21 142.22H483l-22.08 18.68 18.47 15.64H359.53l1.68-34.32z"></path><path d="M361.87 87.48l15.06-20.45v44.56"></path><path d="M368 111.59h17.74"></path><path d="M518.72 78.66c20-4.67 25.32-14.9 28.47-45 2.29 30.91 5.55 38.66 26.43 45-18.88 9.86-26.33 16.85-29.24 53.47-2.63-34.56-8.79-46.13-25.66-53.47z" fill="#fff080"></path><path d="M173.68 132.78c13.64-3.2 17.29-10.18 19.44-30.76 1.57 21.12 3.79 26.42 18.06 30.76-12.9 6.73-18 11.51-20 36.52-1.77-23.61-5.98-31.53-17.5-36.52z" fill="#fff080"></path><path d="M232.62 30.75c13.65-3.19 17.29-10.18 19.45-30.75 1.56 21.11 3.79 26.41 18.05 30.75-12.9 6.74-18 11.52-20 36.53-1.77-23.61-5.97-31.53-17.5-36.53z" fill="#fff080"></path><path d="M246.41 569.45v237.19"></path><path d="M933.78 669.39c6.46 3.58 13 7.15 18.34 12.25 12.1 11.62 11.75 30.08-.62 41.4-5.88 5.38-16.75 9.38-24.2 5-7.88-4.66-16.87-8-25.25-11.84-5.1-2.36-10.26-4.64-15.44-6.89l25.67-52.14q10.67 6.23 21.5 12.22z" fill="#fa9"></path><path d="M741.55 629.93a27.37 27.37 0 0 0 24.45 13l1.57-.34c47.48-10.61 79.44-55 107.51-95 6.75-9.62 13.28-19 19.74-27.58 4.44-5.9 8.92-11.9 13.08-18.08 8.68-12.88 16-26.53 18.54-41.7 2.79-16.41-.35-35.95-15.66-44.28-15.09-8.23-34.36-9.15-49.17.27-9.5 6-14.16 13.71-19.49 23.16-6.56 11.61-15.26 22.22-22.93 33.14-17.33 24.63-35.22 48.93-50.81 74.72-12.26 20.29-41.25 58.62-26.83 82.69z" fill="#c9c0b5"></path><path d="M802.87 338.3l-2.21 2.47c-4.24 4.76-8.56 9.63-11 15.62s-2.61 13.41 1.13 19.06c4.44 6.73 13.39 9.24 21 7.93s14.06-5.7 20.15-10.2c16-11.83 102.25-79.48 54.93-101.85-8.21-3.88-17.57-1.44-24.83 2.48-5.49 3-8.49 8.64-12.65 13-5.31 5.59-10.63 11.27-15.8 17.06z" fill="#fa9"></path><path d="M875.08 547.61c6.75-9.62 13.28-19 19.74-27.58 4.44-5.9 8.92-11.9 13.08-18.08-7.28-12.76-14.77-25.43-22-38.06a656.74 656.74 0 0 1-10.82 83.72z" fill="#1c1a1a"></path><path d="M803.74 230.21c.75 1.12 1.53 2.25 2.32 3.38l.56.8c.88 1.25 1.78 2.5 2.66 3.76 1.41 2 2.8 4 4.09 6.1l.18.3c.24.38.46.75.69 1.13a56 56 0 0 1 2.9 5.52c2.92 6.52 8.28 16.76 8.28 16.76s39.89-11.32 42-13.46c-.58.62-8.28-5.65-9-6.43-2-2.24-3.75-5-5.68-7.33a90.51 90.51 0 0 1-6.33-8.5c-2.38-3.73-4.73-7.48-7.18-11.15l-.75-1.12q-1.71-2.55-3.54-5a9.54 9.54 0 0 0-3.91-3.24c-3.43-1.49-7.4-.46-11.16 1.5a37.65 37.65 0 0 0-4.23 2.62c-1.33.94-2.58 1.93-3.71 2.88a31.79 31.79 0 0 0-8.19 11.48z" fill="#fa9"></path><path d="M806.06 233.59l.56.8c.88 1.25 1.78 2.5 2.66 3.76 1.41 2 2.8 4 4.09 6.1l.18.3c.24.38.46.75.69 1.13 2.51-6.73 7.2-19.23 7.37-19.56z" fill="#231f20"></path><path d="M778 211.83a3.36 3.36 0 0 0 .41.8c1.22 1.7 3.35 2.14 3.7 4.48.18 1.2.33 2.4.57 3.59a40.18 40.18 0 0 0 2.13 7.3c1.81 4.45 4.71 8.81 9.22 10.95a15.41 15.41 0 0 0 8 1.31 23.05 23.05 0 0 0 7.24-2c.79-.35 1.55-.73 2.31-1.12a58.24 58.24 0 0 0 11.08-7.48 22.37 22.37 0 0 1 3.43-2.64 29 29 0 0 1 4.17-1.67 25.52 25.52 0 0 0 3.66-1.68 24.68 24.68 0 0 0 4.64-3.33c4.44-4.06 7.18-9.6 8.6-15.84a42.85 42.85 0 0 0 1.07-9.27.13.13 0 0 0 0-.06 22.5 22.5 0 0 0-.36-4.13c-2.89-15.92-22.25-26.55-38.5-24.23a32.5 32.5 0 0 0-3.32.67 28.92 28.92 0 0 0-13.83 7.88c-.62.64-1.2 1.31-1.75 2a37.6 37.6 0 0 0-6.65 14.26c-1.17 4.65-1.18 9.41-1.71 14.16a3.88 3.88 0 0 1-.62 2c-.83 1.06-2.58 1.12-3.3 2.25a2.16 2.16 0 0 0-.19 1.8z" fill="#fa9"></path><path d="M836.86 152.27a31.34 31.34 0 0 1 12.21-13c11.17-6.86 23.51-2.59 23.92 11 7.11-1.51 14.94 3.63 16.39 10.75s-3.8 14.92-10.94 16.28c4.35 2.51 5.11 9.07 2.27 13.22s-8.22 6-13.24 5.66-9.73-2.38-14.2-4.67c-16.33-8.35-23.09-25.37-16.41-39.24z" fill="#231f20"></path><path d="M787.1 182a3.7 3.7 0 0 1 .43-1.58c2.11-4.4 7.16-8.47 11.37-10.79a41.09 41.09 0 0 1 26-4.87c11.15 1.71 21.62 9.08 26 19.66a29.65 29.65 0 0 1 1.23 18 34.88 34.88 0 0 1-3.25 8.5c-1.47 2.74-3.65 4.78-5.28 7.31a5.84 5.84 0 0 0-.62 4c.19 1.35.61 2.67.74 4a.94.94 0 0 1 0 .5.89.89 0 0 1-.39.35c-2.92 1.58-7.4.22-10.18-1a32.69 32.69 0 0 1-9.71-6.78c-2.88-2.72-3.12-6.71-5.61-9.8q-.5-.63-1.05-1.23c-1-1.07-2-2.66-3.45-3a2 2 0 0 0-1.75.38 7 7 0 0 0-.67.85 2.53 2.53 0 0 1-3.78-.12 4.47 4.47 0 0 1-.64-1.62 56.4 56.4 0 0 1-1.07-8.51 31.4 31.4 0 0 0-.22-2.38 18 18 0 0 1-4-.58 21.86 21.86 0 0 1-13.32-9.5 3.64 3.64 0 0 1-.78-1.79z" fill="#231f20"></path><circle cx="821.68" cy="207.34" r="10.4" transform="rotate(-73.99 821.616 207.363)" fill="#fa9"></circle><path d="M884.1 360.72a29.23 29.23 0 0 0-10.88 2.28c-20.34 9.06-16.66 36.13-15.66 53.85a462.86 462.86 0 0 0 5.36 49.55c2.39 14.39 8.38 27 11.86 41.17A766.59 766.59 0 0 0 904.9 603c7 18 12.84 43.27 29.19 55.35 12.43 9.18 30.77 14.31 43.65 2.82 6-5.38 9.23-13.39 10.28-21.41s.14-16.15-.87-24.17a924.7 924.7 0 0 0-18.57-101.41c-1.74-7.17-3.57-14.44-3.29-21.81.41-11.28 5.71-21.9 6.44-33.16.71-10.92-3-21.76-8.51-31.19-4.38-7.44-9.89-14.07-15.53-20.58-5.22-6-7.88-12.86-11.75-19.81s-8.08-14.37-14.76-18.89c-6.39-4.33-14.31-5.59-21.94-6.73a82.18 82.18 0 0 0-15.14-1.29z" fill="#c9c0b5"></path><path d="M826.53 262.49l-.59.44c-14.22 10.87-19.8 34.86-18.33 51.85 1.06 12.18 7.06 23.6 13.76 33.59 7.54 11.23 17 22.23 30 26.18 19.28 5.89 40.74-6.68 50-24.6s8.43-39.48 3.67-59.07c-3.59-14.78-10.7-29.47-26.35-34-2-.58-4.1-1-6.17-1.46-15.02-3.18-33.04-2.42-45.99 7.07z" fill="#fa9"></path><path d="M797.81 335.45c6.81 14.57 17 25.45 23.14 41A266.74 266.74 0 0 1 837.72 441a706.32 706.32 0 0 0 123.2-23.7c5.69-1.63-45.21-110.85-50.33-120.74-4.82-9.29-12.65-33.77-23.44-37.23a90.77 90.77 0 0 0-9.25-2 3.78 3.78 0 0 0-3.84 1.6c-.19.3-.52.47-.68.71a5.32 5.32 0 0 1-3.26 2.16c-2.78.71-6.9-.47-9.65-1-11.75-2.28-26.65-5.18-37.83 1.34-11.65 6.78-14 18.74-16.89 30a199.32 199.32 0 0 1-7 21.33c-3.92 10.02-3.49 16.53-.94 21.98z" fill="#f4f2ed"></path><path d="M730.53 264.24c-12.87-6.2-26.71-10.08-40.47-13.93l-24.54-6.86c-14-3.92-52.51-22.09-63.47-4.44-3.11 5-2 11.79 1.18 16.73s8.24 8.41 13.28 11.49c18.76 11.48 38.46 18 58.79 25.2 12.81 4.53 24.53 9.44 37.77 12.64 8.48 2.05 18.07 3.94 25.42-.77 8-5.14 14-21.21 7.16-29.44-3.83-4.58-9.82-8.06-15.12-10.62z" fill="#fa9"></path><path d="M744.6 265.66h-3.53c-6.78 0-13.71.07-20.12 2.28s-12.33 7-14 13.59c-2 7.81 2.52 16.15 9 20.92s14.63 6.67 22.55 8.19c20.81 4 136 23 119.11-27.21-2.94-8.72-11.62-14.06-19.93-16.85-6.36-2.06-12.89-.55-19.32-.71-8.2-.22-16.47-.39-24.73-.36z" fill="#fa9"></path><path d="M928.08 732.39c3.23 10 8.07 19.42 11.86 29.34 4.17 10.89 8.28 21.82 12.18 32.82 2.3 6.46 4.7 13.06 10.67 17a23.52 23.52 0 0 0 17.21 2.99 21.27 21.27 0 0 0 5.46-2c6.16-11.78 4-25.09 3.18-37.8-1.93-29.79-6.57-57.3-4.85-87.17a7.82 7.82 0 0 0-2-6.25c-2.89-3-8.28-3.49-12.39-4.16-7.75-1.26-15.29-3.91-22.91-5.83-3.36-.84-7.39-1.53-9.88.88a7.07 7.07 0 0 0-1.66 6.18c0 .25.08.51.14.76a29.24 29.24 0 0 0 2.11 5.48 40.21 40.21 0 0 1 3.8 13.52 19.89 19.89 0 0 1-3.55 13.32c-5.71 7.47-12.81 10.29-9.37 20.92z" fill="#f4f2ed"></path><path d="M934.86 678q.06.38.15.75c3.17 4.78 7.14 9.08 12.17 11.78 9.06 4.84 29.7 9.83 34-3.63a13.28 13.28 0 0 0 .54-6c-2.9-3-8.28-3.49-12.4-4.16-7.75-1.26-15.29-3.91-22.9-5.83-3.36-.85-7.39-1.53-9.88.88a7.06 7.06 0 0 0-1.68 6.21z" fill="#fc4f4f"></path><path d="M973.4 807.15a8.48 8.48 0 0 1-3.48 1.33c-1.47.26-3.1.18-4.27 1.1-1.82 1.41-1.38 4.49.29 6.08 3.63 3.49 17.24 6.32 22.11 4.57 3.17-1.14 4.47-4.85 5.23-8.13a125.6 125.6 0 0 0 .59-53.93c-1.13-5.39-2.62-10.74-2.94-16.23-.35-6.18.79-12.33 1.59-18.47A168.35 168.35 0 0 0 993.6 691c-.54-8.37-2.27-17.56-12.06-18.21a101.23 101.23 0 0 0-12.56-.06c-2.37.14-5.19.69-6.08 2.88s.69 4.47 2.16 6.27c7.39 9.08 11.56 19 10.92 31.23-.39 7.43-2.52 14.68-2.38 22.16.17 9.27 2.25 18.43 3.58 27.55 1.36 9.34.36 18.93 0 28.46-.27 5.25.89 12.72-3.78 15.87z" fill="#1c1a1a"></path><path d="M755.23 649.3c4.48 2.44 9.33 4.14 13.91 6.38 4.05 2 7.88 4.36 11.75 6.66l.71.42c11.21 6.58 22.69 11.72 34.59 16.87 14.74 6.39 29.94 12.19 44.55 18.54 6.1 2.66 12.24 5.26 18.37 7.88l7.5 3.23 25.67-52.14q-3.36-2-6.69-4-29.73-17.68-58.22-37.34c-6.11-4.22-12-8.65-18.58-12.09a127 127 0 0 0-20.65-8.71c-18.68-5.78-28.82-3.27-47.2 1.1-.11 0-.23.06-.34.09-10.9 2.75-17.89 12.69-19.42 23.34-1.74 12.07 3.16 23.85 14.05 29.77z" fill="#c9c0b5"></path><path d="M956.35 733l-.42-.94z" fill="#ffbeb1"></path><path d="M959.27 739.46l-.78-1.72z" fill="#ffbeb1"></path><path d="M986.35 631.59c-.43-.57-.87-1.14-1.33-1.7.46.56.9 1.11 1.33 1.7z" fill="#ffbeb1"></path><path d="M998 654.56a67.25 67.25 0 0 0-4-10.43 67.25 67.25 0 0 1 4 10.43q.81 2.75 1.6 5.5-.75-2.76-1.6-5.5z" fill="#ffbeb1"></path><path d="M989.25 635.72l-.68-1z" fill="#ffbeb1"></path><path d="M994 644.13a76.27 76.27 0 0 0-3.78-6.88 76.27 76.27 0 0 1 3.78 6.88z" fill="#ffbeb1"></path><path d="M980.58 624.93c-.38-.38-.76-.74-1.15-1.11.39.37.77.73 1.15 1.11z" fill="#ffbeb1"></path><path d="M962.41 746.31c-.25-.53-.5-1.06-.74-1.6.24.54.49 1.07.74 1.6z" fill="#ffbeb1"></path><path d="M964.24 750.26c.33.71.66 1.42 1 2.13-.34-.71-.67-1.39-1-2.13z" fill="#ffbeb1"></path><path d="M977.66 622.23q-.76-.66-1.56-1.29.8.63 1.56 1.29z" fill="#ffbeb1"></path><path d="M968.83 616.34a32.32 32.32 0 0 0-3.34-1.4 32.32 32.32 0 0 1 3.34 1.4z" fill="#ffbeb1"></path><path d="M962.27 614z" fill="#ffbeb1"></path><path d="M973.58 619.1c-1-.66-1.94-1.26-2.94-1.82 1 .56 1.98 1.16 2.94 1.82z" fill="#ffbeb1"></path><path d="M952.84 725c.21.5.43 1 .65 1.51-.22-.51-.44-1-.65-1.51z" fill="#ffbeb1"></path><path d="M950.53 719.66l-.19-.42z" fill="#ffbeb1"></path><path d="M947.93 713.5c-.19-.47-.39-.94-.59-1.42.2.48.4.92.59 1.42z" fill="#ffbeb1"></path><path d="M927.5 661.27c.24 1 .49 1.92.77 2.87-.27-.95-.53-1.91-.77-2.87z" fill="#ffbeb1"></path><path d="M931.46 673.65c.88 2.37 1.79 4.71 2.73 7.05-.94-2.34-1.85-4.7-2.73-7.05z" fill="#ffbeb1"></path><path d="M931.46 673.65c-.58-1.58-1.15-3.16-1.69-4.76s-1-3.16-1.5-4.75c.46 1.59 1 3.18 1.5 4.75s1.11 3.18 1.69 4.76z" fill="#ffbeb1"></path><path d="M968.7 759.74l-1.2-2.53z" fill="#ffbeb1"></path><path d="M925.48 648c0 .93.1 1.86.18 2.8-.08-.93-.14-1.86-.18-2.8z" fill="#ffbeb1"></path><path d="M926.29 655.55c.16 1 .34 1.9.54 2.86-.2-.96-.38-1.91-.54-2.86z" fill="#ffbeb1"></path><path d="M925.59 642.52z" fill="#ffbeb1"></path><path d="M925.66 650.81q.09.95.21 1.89-.12-.94-.21-1.89z" fill="#ffbeb1"></path><path d="M926.83 658.41c.2 1 .43 1.91.67 2.86-.24-.95-.5-1.91-.67-2.86z" fill="#ffbeb1"></path><path d="M1001.36 666.11c-.49-1.73-1-3.47-1.48-5.2.5 1.73.99 3.47 1.48 5.2z" fill="#ffbeb1"></path><path d="M975.43 773.84c-1.16-2.41-2.31-4.82-3.47-7.24 1.16 2.4 2.31 4.83 3.47 7.24z" fill="#ffbeb1"></path><path d="M970 762.5c.46 1 .93 2 1.39 2.93-.45-.98-.92-1.96-1.39-2.93z" fill="#ffbeb1"></path><path d="M1026.77 750.77q2.65 7.28 5.55 14.42c3.52 8.62 7 17.27 9.33 26.29 3 11.71 3 26-6.21 33.75-17.8 15-35.22.33-43.26-16.58-5.56-11.65-11.18-23.22-16.74-34.79z" fill="#fa9"></path><path d="M1003.1 672.29l-1.41-5z" fill="#ffbeb1"></path><path d="M1004.55 677.48c-.35-1.24-.7-2.48-1-3.72.3 1.24.65 2.48 1 3.72z" fill="#ffbeb1"></path><path d="M1049.77 784.33c-2.08-2.77-4.79-5.84-8.23-5.53a7.06 7.06 0 0 0-5.18 3.76c-.13.23-.25.45-.37.69a29.79 29.79 0 0 0-1.8 5.58 40.22 40.22 0 0 1-5.51 12.89 19.91 19.91 0 0 1-11.13 8.14c-9.11 2.24-16.41 0-20.41 10.41-4.11 10.69-6.07 21.09-9.59 31.67-1.91 5.77-7.3 9.59-12.52 12.71s-10.86 6.17-14 11.39-2.31 13.35 3.27 15.78c2.43 1.06 5.22.84 7.86.54q8.93-1 17.74-2.84c15-3.12 22.71-13.93 31.22-25.45 10.64-14.41 23.24-27 38.32-36.72 8.76-5.67 14.67-10.69 9.16-19.92-4.54-7.63-13.27-15.7-18.83-23.1z" fill="#f4f2ed"></path><path d="M985 904.39a150.64 150.64 0 0 0 29.08-7.73c18.39-6.92 25.05-29.78 38.76-42.85a168.59 168.59 0 0 0 21.27-24.63c4.84-6.85 9.26-15.08 2.06-21.74a98.56 98.56 0 0 0-9.74-7.93c-1.93-1.38-4.46-2.73-6.54-1.58s-2.27 3.9-2.26 6.23c0 11.71-2.93 22-11.12 31.15-9.42 10.49-18 20.5-26.94 31.43-9.91 12.13-26.75 15.54-42.19 18.16-2.85.48-5.93.93-8.48-.41-2.37-1.26-4-3.93-6.6-4.46s-5.12 1.34-6.26 3.68-1.18 5.06-1.12 7.67c.07 3.12.29 6.39 1.94 9 3.4 5.4 11 5.86 17.37 5.3 3.64-.27 7.24-.68 10.77-1.29z" fill="#1c1a1a"></path><path d="M943.84 616.28c25.71-12.44 47.94 16.87 54.2 38.28 9.36 32 17.33 64.88 28.73 96.21l-51.33 23.09c-10.7-22.25-21.17-44.52-30.49-67.63-5.14-12.44-10.82-24.58-15.18-37.34-6.91-20.17-7.7-42.07 14.07-52.61z" fill="#c9c0b5"></path><path d="M588.93 264.52c-14.1-2.73-27.59-8.74-39.82-16.43-1.25-.79-2.58-1.72-2.92-3.15-.46-1.91 1.17-3.82 3-4.37a10.8 10.8 0 0 1 5.81.43 94.4 94.4 0 0 1 16.52 6.19 109.07 109.07 0 0 1-25.72-13.66c-2.29-1.64-4.79-4.39-3.48-6.89 1.18-2.25 4.39-2.16 6.88-1.66a119.47 119.47 0 0 1 23.8 7.36 93.33 93.33 0 0 1-23.1-12.53 5.72 5.72 0 0 1-2.41-2.86c-.49-1.87 1.06-3.8 2.9-4.4a10.85 10.85 0 0 1 5.73.17 112.06 112.06 0 0 1 24.77 8.67 97.64 97.64 0 0 1-17.26-9.22c-2.57-1.73-5.3-5.17-3.24-7.48 1.47-1.64 4.12-1 6.19-.3 20.36 7.26 44.87 14.4 61 29.45 3.78 3.51 6.57 8.4 6.49 13.55-.1 6.26-4.47 11.88-9.95 14.89s-11.91 3.8-18.17 3.85a86.39 86.39 0 0 1-17.02-1.61z" fill="#fa9"></path><path d="M822.72 261.88h-50.21v64.66l79.72-8.05a12.61 12.61 0 0 0 11.2-10.65 39.59 39.59 0 0 0-19.12-40.1 42.68 42.68 0 0 0-21.59-5.86z" fill="#f4f2ed"></path><path d="M618.72 220.87a36.79 36.79 0 0 0-3.52-6.1 33.67 33.67 0 0 0-5.85-5.54l-12.57-10.12a27.54 27.54 0 0 0-4.89-3.38 5 5 0 0 0-2.94-.65c-2.14.33-3.36 3-3 5.47a11.52 11.52 0 0 0 3.59 6.15 59.43 59.43 0 0 1 5.06 5c3.75 4.74 4.38 11.62 8 16.48a20.08 20.08 0 0 0 9.93 6.71c3.1 1.06 8.59 1.47 10.05-2.65 1.27-3.58-2.32-8.24-3.86-11.37z" fill="#fa9"></path><path d="M861.12 464.71a229.63 229.63 0 0 0 20 67.15"></path></g></g></g></svg>