<svg xmlns="http://www.w3.org/2000/svg" viewBox="-0.019551396369934082 -0.00010446901433169842 1080.0196533203125 1234.8804931640625" style=""><g><g data-name="Слой 2"><g data-name="Слой 1"><path d="M253.53 834.18C236 822 210.6 808 188.71 814.4c-11.91 3.49-21.7 20.24-12.89 31.65a60 60 0 0 0 11.74 11.34c-2.25 6.72-2.52 14-2.49 21.34-1.19 0-2.35.07-3.53.08-26.18.58-52.72.58-78.87-.74l-3.32-.19v-12.44c.09-14.23 1.42-30.05-5.37-43-1.66-3.16-6.4-2.93-8.12 0a41.06 41.06 0 0 0-4.12 10.35c-7-3.07-15.81-3.46-22.92-2.67-1 .12-2 .3-3 .44C55 822.14 53.1 814 48.62 806c-1.93-3.44-7.44-3.59-9.34 0-5.49 10.38-6.67 20.89-6.73 32a70.49 70.49 0 0 0-16.46 11.7c-12.81 12.35-19.66 30.3-8.18 46 6.55 8.95 17 14.7 27.87 18.9q1.88 32.5 4.36 65a50.57 50.57 0 0 0-3.5 3.75c-10.44 12.57-15.36 30.49-7.62 45.73 3.85 7.66 10 13.28 17.14 17.43 1.89 18.21 4 36.4 6 54.6 1.75 16 3.61 31.92 6 47.84 1.21 8.33 2.34 16.71 3.67 25 1.6 9.84 5.64 17 8.19 26.39a1.34 1.34 0 0 0 2.61-.36c.59-9 3.23-16.14 3-25.35-.21-8.45-.83-16.92-1.24-25.35-.84-17-2.08-33.83-3.39-50.73-1.12-14.65-2.1-29.29-3.08-43.94 1.31.28 2.58.56 3.89.8 4.44.84 8.92 1.6 13.4 2.31 1 14.54 2 29.07 3.32 43.6 2.75 32.26 5.42 63.66 14.94 94.7 1.57 5.16 8.9 4 9.22-1.24 1.93-31.49-1.66-62.09-4.21-93.46q-1.64-20.43-3-40.87 16.81 1.85 33.83 2.27a279.93 279.93 0 0 0 48.71-2.85c1.75 52.58 7 113 14.09 157.63.32 2.11 10.49.83 10.67-1.72 3.65-51.19 2.28-107.37-.71-161.13a146.52 146.52 0 0 0 14.2-4.8c1.22 18.65 2.76 37.27 4.51 55.87 1.18 12.81 2.87 25.56 4.83 38.28 2.19 14.14 7.47 27.38 10.76 41.29 1 4 7 3 7.09-1 .47-23.86 2.76-47 1.54-71q-1.77-35.58-3.2-71.14c-.15-3.25-.21-6.49-.33-9.73a37.63 37.63 0 0 0 5.34-9.25c6.17-15.5 2.37-28.22-6.58-38.47q-.54-29.78-.42-59.53c16-5 32.2-13.57 36.35-29.53 6.84-26.64-12.53-47.44-32.63-61.46zm-44 159.29c1.18.61 2.4 1.17 3.53 1.81a52.5 52.5 0 0 1 10.73 7.48c.21 4.59.38 9.17.59 13.76-3.73 3.15-9.66 5.21-13.84 6.61q-.54-14.82-1.01-29.66zm-.92-33.82c-.21-7.66-.39-15.32-.59-23 0-1.17 0-2.35-.07-3.53q7.08-.61 14.06-1.67c.09 11.31.3 22.62.56 33.92-4.57-2.13-9.25-4.02-13.96-5.72zm-31.43-25.42h7.71q0 9.32.15 18.67c-4.51-1-8.72-1.77-12.4-2.32-23.54-3.45-48.74-5.32-72.46-1.78q-.27-9.54-.44-19c25.7 3.33 51.88 4.2 77.44 4.43zm-97.46-7.68q.23 13.91.59 27.83A72.24 72.24 0 0 0 62 966.49q-1.43-22.28-2.52-44.57 9.99 2.7 20.24 4.63zM64.9 861.66c4.65-1.37 9.72-1.91 14.52-3.1v17.85c-4.27-.42-8.54-.92-12.78-1.6-3.06-.49-6.11-1-9.14-1.66-.08-2.62-.14-5.23-.23-7.85a28.73 28.73 0 0 1 7.63-3.64zm1.42 169.48q-1-15.81-2.13-31.61-.31-4.42-.63-8.88c5.84-2.65 11.69-5.22 17.7-7.32q.45 12.12 1 24.25.61 12.67 1.33 25.34a102.13 102.13 0 0 1-17.27-1.78zm37.36 2.42q-.86-14.26-1.51-28.51c-.42-8.78-.77-17.55-1.1-26.33 18.35-2 38.16-1.29 56.45.56a176.61 176.61 0 0 1 28 5.07q.54 22.67 1.37 45.29c-27.12 5.47-55.4 4.85-83.21 3.92z" fill="#d42b00"></path><path d="M244.72 130.13c-14.82 0-29.35-.44-43.82.18A105.09 105.09 0 0 0 134 105.2c-26.48-.46-59.36 10.45-72.23 35.5-10.54 20.61-1.65 73.06 48.23 111.9 0 6.38-.14 12.72-.56 19-.26 4-.71 8-1.27 12-3.44 15.27-7.51 30.39-11.89 45-5.07 16.93 16.57 24.61 26.41 13.73a21.82 21.82 0 0 0 11.39 4.3 20.61 20.61 0 0 0 14.5-1.24c8.27 1.48 23 18.27 24.58 9.72 2.79-14.51-6.58-49.31-9.49-63.44-.21-1-.39-2-.59-3.05q-.22-6.74-.92-13.44c13.52 2.1 27.22 1.24 39.67-4.42 25.56-11.6 35.52-40.53 34.39-67.08a103.55 103.55 0 0 0-5.39-29.06 73 73 0 0 1 18.44-11.08c16.73-6.84 15.97-33.35-4.55-33.41z" fill="#ffdc9c"></path><path d="M460.75 662.52c-.24-4.06-32.35-24.56-35.25-28-6-7.06-12.87-14.1-17.11-22.51-7.09-14-5.13-34.6 12.54-39.89 8.06-2.43 12.36 6.61 9.13 13.25-1.84 3.8-.56 7.67 2.05 11.3-1.57-11.65.95-17.78 13.87-22.74 4.18-1.62 6.82 3.76 4.92 7.14-6.07 10.9 9 14.78 15.42 20.14 7.3 6 13.91 12.12 18.62 20.59 9 16.19 10.29 37.62 4.51 55.87-7.45 23.53-26.77 19.53-28.7-15.15z" fill="#ffdc9c"></path><path d="M561.5 1157.74c-2.76-1.09-57.91-23.85-62.83-23.58-.68-3-1.78-6.54-2.14-7.61a18.59 18.59 0 0 0-1-2.28 27.82 27.82 0 0 0 6.58-4.8c8.8-8.82 8-20.36 7.2-31.73q-2.18-30.23-4.33-60.44c-2.9-40.54-6.22-82.41-18.85-121.27-9.76-29.94-12-43.85-37.39-75.94-4.89-6.26-25.11-22.08-31.7-26.69-38.04-26.82-51.2-38.62-89.18-50.4-17.94-5.54-43.35-14.42-61.7-17.92-16.16-3.07-40.38-13.06-55.8-18-3.59-1.15-21-107.64-30.51-163.69-1.54-9.08 12 40.27 20.58 64.84 7 20 27.33 52.64 29.2 54.56 13.49 13.77 47 11.78 63.86 6.71 20.32-6.09 38-17.66 56.52-27.5 16.78-8.91 33.8-17 51.83-23 20-6.7 59.14-3.24 64.48-27.76 2.7-12.35-12.36-29.6-23.09-35-11.77-5.9-25.15-3.8-37.45-.7-20.85 5.24-37.6 16.12-56.75 25.71-18.74 9.38-39.11 20-56.48 31.56-.72.48-1.43.93-2.14 1.39a716.9 716.9 0 0 0-24-114.78c-13.07-44.37-29.62-90.42-53.66-130.15-22.77-37.65-58.65-47.1-106.59-46.63-25.71.26-52 16.59-67.28 35.18-24.58 29.92-36 63.05-38.27 101.6-2.22 38.3 1.93 77.41 4.72 115.58 3 40.72 7 81.34 11.21 122 4.33 42 6.67 84.9 13.61 126.63 6.46 38.75 38.13 59.31 74.8 66.16 37.6 7 75.88 2.79 113.8 6 28 2.37 67.84 4.69 86.37 28.92 22.71 29.77 18.56 71.77 20.78 106.88 2.55 40.16 11.51 81.22 41.07 110.41a25.64 25.64 0 0 0 6 5.06 176.37 176.37 0 0 1-3.53 42.8c-2.91 13.43 5.87 23.61 19 24.92 19.54 1.94 38.46-5.06 57.85-3.65 20.37 1.47 37.89 9.64 58.7 5.26 16.7-3.51 20.32-17.34 11.6-28.43-.59-.76-1.19-1.51-1.78-2.29-5.93-7.56-36.47-11.23-43-12.52-5-2.52-10-5-15.3-7.65-12.22-6.12-25.38-12.83-36.09-22 11-3.18 19.72-12.24 18.95-26.75-2.64-48.8-5.31-97.8-9.58-146.5-4-45.85-16.51-87.94-51-120.23-30-28.13-67.43-44.58-105.17-59.65-16-6.39-21.52-12.69-38-20.25-6.38-2.92-9-9.45-6.23-10.85 5.87-3 18.24 4.9 23.87 8.31 21.44 13 39.7 21.17 59.69 29.53 31.57 13.23 66.74 25.31 91.44 50 .17.16.32.36.5.53A147.84 147.84 0 0 1 424.25 893c13.64 36 15.45 74.85 19.15 112.8a539.3 539.3 0 0 1 2.6 55.4c0 18 4.18 32.44 7.71 49.43 4.48 21.84.21 30.94.39 39.32.23 12.37 8 22.38 20.13 24.89 10.91 2.25 33.89-2.61 44.56 1.64 12 4.79 19.75 16 32.2 19.42 25.12 6.9 33.6-28.98 10.51-38.16z" fill="#fff"></path><path d="M1075.09 454.65c-9.46-8.22-21-11.79-31.84-17.69a182.25 182.25 0 0 1-26.51-17.11 186.26 186.26 0 0 1-44.09-50C959.54 348 952.13 323.88 944 299.92a616.51 616.51 0 0 0-32.29-76.64C866.5 132.83 793.3 48 695.28 14.5 666.66 4.72 636 .06 605.7 0a207.15 207.15 0 0 0-47.37 5.44c-14.92 3.46-31.73 6.9-42.22 18.83-5.58 6.36-3.62 16.68 5.07 19.11.86.25 1.74.46 2.63.64 5.13 19.07 142.06 321.66 160.56 364.2 9 20.63 18.38 41.07 28.1 61.36 2.61 5.45 5.19 11 7.8 16.52-22.56-2.82-44.95-8.62-67.87-7.56-34.69 1.59-71.25 8.34-103.77 20.34-14.08 5.19-13.46 22.69 0 28.08.36.15.74.25 1.13.4a9.52 9.52 0 0 0-.8 2.91c-1.28 65-.24 74.66.38 101.84-3 13.22-1.12 58.13 1.13 59.62q-17.31 1.29-34.6 2.66c-21.82 1.74-44.74 2.78-66.63 6.74-.8-1.24-1.6-2.48-2.46-3.77-5.78-8.75-17.55-6.55-21.11 2.76-3 7.83-5.24 13.92-5.54 22.38-.24 7.56 6 16.73 13.78 18.1 26.78 4.69 54.86 3.74 82 3.77q26.14 0 52.36-.34c-.68 13.44-4.83 37.89-4.78 51.38.1 22.49-1.06 40.53 1.28 62.92 2.16 20.45 9.4 36.59 19.45 54.91A41.73 41.73 0 0 0 597 927.57c-.51 6.44-.33 13-.39 19.44-.15 18.56-.35 37.12-.47 55.68-.15 18 .12 35.86 3.17 53.62 2.4 14.09 7 33.91 19.42 42.8-3.94 4.14-4.62 28.85-5.25 35-2.87 28.59.09 53.15 18.24 75.1 6.37 7.68 21.67 3.85 23.27-6.15a194.92 194.92 0 0 0 .36-60.32c-2.2-14.94-5.46-29.8-15.83-40.46.08-.07.2-.13.29-.2 8.3-3.43 14.35-12.15 14.77-22.48.41-11 3.26-69.85 3.82-88.13.74-23.92-.56-51.8-11.21-74.26 0-.5-.11-1-.17-1.5 22.94-28.28 22.86-70.18 18.11-104.48a445.78 445.78 0 0 0-13.49-64.18c-.44-1.52-.89-3.08-1.33-4.67 33.83-.93 67.66-2.09 101.46-3.17 52.06-1.65 258-7.52 271.23-6.66 16.28 1.06 29.63 2.26 42.49-9.79 7.67-7.17 22.11-257.25 9.6-268.11z" fill="#330800"></path><path d="M102.4 306.82c-9.69 5.23-29.62 26.26-31.19 35.2s57.4-16.11 101.91 13 52.88 53.08 56.07 47.67-12.84-58.81-53.08-81.06c-25.11-13.91-55.86-24.5-73.71-14.81z" fill="#330800"></path><path d="M408.27 627.25c-4.6-4 10.2-14 21.32-27.65s20.25-31.42 28.25-23c12.84 13.41 25.59 20.65 20.43 30.08s-33.24 30.67-44 34.6-20.4-9.17-26-14.03z" fill="#330800"></path><path d="M368.33 1205.11c-16.25 22.93 57.82 26 66.51 26.8 15.86 1.48 87.76 12.11 86.6-18.6-.12-3.77 2.43-9.83-1.28-8.94-4.74 1.16-.53 2.32-11.62 8.94-5.57 3.33-18.08 4.92-24.4 4.85-10.7-.11-21.46-1.52-32.11-2.18-12.42-.78-24.85-1.55-37.3-2.17-9.16-.46-40.5 3.11-43.52-8.33a1.6 1.6 0 0 0-2.88-.37z" fill="#330800"></path><path d="M471.48 1174.1c14.26 8.18 33.36 7.94 49.13 12.33 8.13 2.27 15.33 6.91 23.46 9.13 7.79 2.15 13.81 5.29 21.4 2.33 3.32-1.31 3-5.78-.41-7-15.84-5.75-30-12.08-42.88-15-16-3.6-26.24-4.46-42.72-4-1.46.01-7.98 2.21-7.98 2.21z" fill="#330800"></path><path d="M370.52 619.11a2.82 2.82 0 0 0 .12.52c.8 2 .77 1.72 0-.86a5.7 5.7 0 0 0 1.36 3.83 6.84 6.84 0 0 0 3.26 2.27 6.31 6.31 0 0 0 3.11.26 4.87 4.87 0 0 0 2.38-.75c-1.07.43-1.31.55-.69.35a6.28 6.28 0 0 0 4.45-5.84.66.66 0 0 1 0-.25c-.24.88-.48 1.75-.71 2.62.26-.52.5-1.08.71-1.63 1.16-3.14-1.81-6-4.68-6.16h-.54c1.51.84 3 1.72 4.51 2.56a7.48 7.48 0 0 0-2.31-2.34c-.48-.21-1-.42-1.46-.61-2-.27-2.13-.3-.59-.07.92.51 1.84 1 2.73 1.58a7.43 7.43 0 0 0-3.59-1.88c-2.79-.38-5.6.25-7.12 2.91 1.19-.92 2.41-1.84 3.59-2.76l-.38.17h2.93a3.18 3.18 0 0 1-.74-.23c-1.63-.68-3.82.15-5 1.32a5.33 5.33 0 0 0-1.34 5z" fill="#330800"></path><path d="M220.82 733.21c7.71-.46 16.46-1.37 24.52-3.8-12.42-4.12-25.55-9.21-35.22-12.32-.39-.12-1-1.47-1.63-3.84a140.29 140.29 0 0 1-32.85-7.53c-7.53-2.64-14.86 5.52-12.75 12.74a191.76 191.76 0 0 1-2.34 114.65c-6.08 18.25-15 35.12-25.86 51A205.37 205.37 0 0 1 121 902.17c7.77.85 15.57 1.36 23.4 1.65a195.56 195.56 0 0 0 30.51-50.74 212.6 212.6 0 0 0 12.21-122.63 126.88 126.88 0 0 0 33.7 2.76z" fill="#330800"></path><path d="M148.18 119.7a.12.12 0 0 0 0-.24.12.12 0 0 0 0 .24z" fill="#330800"></path><path d="M182.61 124.19c6.49 2.43 11.83-4.71 10.52-10.51-7.62-33.68-51.44-33.52-78.48-33.63-31.43-.1-77.74-7.81-96.16 25.07C10 120.33 21 136.3 37.17 137.69a72.72 72.72 0 0 1 17.35 3.65 106.21 106.21 0 0 0-10.05 8.21c-10.59 10-17.35 24.48-13.55 39.2 3.5 13.65 11.53 20.16 21.52 22.68-1.48 8.82-.92 17.48 3.24 25.34 13.49 25.66 58 26.84 64-5.58 1.57-8.43-.38-14.95-5.34-20.47 2.94-6.85 7.53-14.2 10-19a30 30 0 0 0-11.89-40.33 36.19 36.19 0 0 0-2.78-25.78 44.87 44.87 0 0 0-5.43-8l15.18-1c22.3-1.69 42.19-.31 63.19 7.58z" fill="#330800"></path><path d="M196.27 150.52a2.44 2.44 0 0 0-4.41.58c-2.5 7.39-1.93 15.38-10.32 19-9 4-17.91-2.24-17.29-12.1.09-1.84-2.58-2-3.08-.41-3.89 11.86 7.41 22.72 19.09 21.23s24.02-17.05 16.01-28.3z" fill="#330800"></path><path d="M231.2 176c.68-.43 1.34-.86 2-1.34a8.3 8.3 0 0 0 2-2.43c2.38-3.85-2.37-8.54-6.22-6.2a8.87 8.87 0 0 0-2.41 2c-.5.62-.91 1.29-1.36 1.94-2.43 3.61 2.35 8.36 5.99 6.03z" fill="#330800"></path><path d="M234 211.06c-6.11 4.18-10.38 10.07-18 12-10.05 2.52-20.34-1.91-26.39-10a1.61 1.61 0 0 0-2.78 1.61c5.21 10.63 15.56 17.84 27.72 17.08 10.14-.64 22.38-7.53 23.18-18.53a2.52 2.52 0 0 0-3.73-2.16z" fill="#330800"></path><path d="M451.79 705c16.16 4.26 34.28 2.51 50.79 1.51 14.77-.89 33.95.3 47.18-6.82 3.38-1.82 2.69-7.48-1.1-8.35-14.85-3.42-33.44 2.05-48.6 3.39-15.86 1.41-32.85 1-48.27 5.33a2.59 2.59 0 0 0 0 4.94z" fill="#fff"></path><path d="M565 47.08c18.44-6.81 36.79-4.71 55.8-1.6 19.27 3.16 38.66 6.68 57.28 12.65 16.63 5.35 32.47 12.6 46.67 22.87s24.46 23.2 36.11 35.79c2.37 2.55 5.87-.21 5.37-3.13-6.32-37.37-49.23-60.11-81.69-70.21-21.52-6.68-43.91-10-66.23-12.57C599.06 28.69 578.4 28.23 562 40c-3.23 2.35-1.45 8.69 3 7z" fill="#fff"></path><path d="M778.09 142.78c.92-1.4 1-1.63.35-.73a3.69 3.69 0 0 0-.88 1.71 5.83 5.83 0 0 0-.3 1.91 12.33 12.33 0 0 0 .41 3.07 7.73 7.73 0 0 0 4.45 5.22 5 5 0 0 0 5.37-.37 4.79 4.79 0 0 0 1.72-5.07 10.08 10.08 0 0 0-.62-1.5c.11 0 .41 1 .26.17a12 12 0 0 0-1.15-2.47c-.1-.15-.42-.9-.15-.21s0-.09 0-.23a10.35 10.35 0 0 0-.66-1.58c-.14-.22-1.36-2.07-.5-.65.21.76.42 1.53.62 2.3 0-.12 0-.25-.06-.37a4.5 4.5 0 0 0-8.83-1.2z" fill="#fff"></path><path d="M618.66 1020.69c-2.61 12.26-5.1 31.34 3.92 41.58a1.75 1.75 0 0 0 3-1.23c-.06-5.62-2.52-10.86-3.62-16.35a70.17 70.17 0 0 1-.77-23.31c.21-1.6-2.13-2.37-2.49-.69z" fill="#fff"></path></g></g></g></svg>