<svg xmlns="http://www.w3.org/2000/svg" viewBox="0.0030670166015625 0.003070831298828125 1080.0113525390625 1777.452392578125" style=""><g><g data-name="Слой 2"><g data-name="Слой 1"><path d="M776.24 1069.94a1155.88 1155.88 0 0 0-75.63-111.76 1163.17 1163.17 0 0 0-187.45-193.56C442 706.47 384 631.44 326.41 559.67Q236.88 448.1 157.31 329 117.68 269.46 81 208c-8.22-13.76-24.57-46-42.44-78-4.33-7.72-16.13-2.93-13.83 5.62a2016.28 2016.28 0 0 0 296.58 634.84c10.64 15.14 31.45 36.65 46.19 47.82 108.77 82.46 216.39 163.53 272.69 287.88 45.65-11.38 90.4-24.84 136.05-36.22z" fill="#96d5d4"></path><path d="M318 1238.66c-15.29-141.32 11.41-287.13 78.84-412.26 27.7-16.81 67.1-30.72 77.14-61.52 41.69-127.83 83.53-256.32 104.46-389.14 19.42-123.24 19-251.62-15-371.45-1.77-6.21-10.82-5.48-11.52.94a2764.85 2764.85 0 0 1-151.7 649.44c-15.38 42.08-24.12 88.17-51 124.59-27.44 37.17-53.39 74.89-75.86 115.33-52.76 94.92-78.91 193-104 297 23.88-11.84 49-8.5 73.78 1.24s53.67 29.66 74.86 45.83z" fill="#96d5d4"></path><path d="M437.53 743.44c2.43-22.89-25.26-42.15-45.87-30.63-11.48 6.43-18.31 20.68-15.64 33.63 3 14.41 17.34 25.56 32 24.84s27.98-13.2 29.51-27.84z" fill="#4bb7c3"></path><path d="M307.34 1186.81c-19.15-24.08-43.1-48-73.8-49.64-34.29-1.81-68.21 11.56-95.5 32.31s-48.57 48.52-66.42 77.88C11.8 1345.67-12 1465.42 5.74 1579.15c10.51 67.57 39 137.48 97.33 173.19 34.9 21.41 90.79 36 127.85 14.67a281.93 281.93 0 0 0 69.93-57.11 277 277 0 0 0 27.46-36.74c45-72.09 48-162.48 45.71-245.15-2.3-80.58-15.02-176.27-66.68-241.2zm-15.07 183.54c5.59 57 1.18 114.56-7.69 171.1-5.53 35.31-13.12 71.24-32.06 101.56-17.08 27.28-46.65 51.69-80 53.83-30.93 2-58.93-28.82-73.44-53.41-14.67-24.82-22.11-53.3-26.56-81.82C55.06 1449 84.31 1329.77 152 1238c11.49-15.52 24.86-31 43-37.55 72.56-26.33 92.89 125.49 97.27 169.9z" fill="#fc4401"></path><path d="M1031.62 1303.72c-35.36-63.32-85.21-117.4-138.16-167-33.94-31.8-70.45-62.66-114.2-78.55-52.27-19-138.45-11.89-162.74 48.16-6.81 16.81-7.46 35.42-7 53.59 3.15 137.7 63.7 270.52 153.73 374.76 35 40.56 76.09 78.27 126.75 95.77s112.52 10.71 149.5-28.07c22.83-23.94 33.88-57 38.2-89.81 9.42-71.89-10.7-145.5-46.08-208.85zm-14.11 219.33c-4.2 15.87-11.55 31.27-23.08 42.91-.76.77-1.53 1.54-2.34 2.28-21.79 20-56.39 18.56-83.22 10.32s-48.23-28.48-67.43-49c-81.11-86.61-143.75-192.14-170.91-307.68-5.25-22.38-9.17-45.7-4.71-68.24 15.56-78.53 98.06-46.62 142.43-13.65 73.06 54.27 131.27 127 174.94 206.89 29.11 53.29 50.39 115.43 34.32 176.17z" fill="#fc4401"></path></g></g></g></svg>