<svg xmlns="http://www.w3.org/2000/svg" viewBox="0 -0.0013256072998046875 1079.99169921875 408.3925476074219" style=""><g><g data-name="Слой 2"><g data-name="Слой 1"><path d="M574.34 269.74c8.59-25.69 7.16-55.05-3.45-80.11a50 50 0 0 1-2.37-32.89A110.62 110.62 0 0 1 581 128.25c-27.11-6.89-57.23-5.15-83.52 4.42-2.2 46.94 17.14 95.84 50.79 128.65 3.85 3.76 8 7.37 12.77 9.75s8.16.23 13.3-1.33z" fill="#fca165"></path><path d="M542.68 277.4c-23.11-15.81-46.31-31.34-69-47.67a57.81 57.81 0 0 1-21.95-31.86 281.2 281.2 0 0 1-8.5-46.68c22-9.14 45.26-16.2 68.87-19.37 2.83 17.47 4.85 35.27 7.68 52.74 30.56 21.11 47.33 60.18 44.35 97.21-6.58-.56-16.01-.66-21.45-4.37z" fill="#fca165"></path><path d="M564.12 283.92h-.18l-3-.23c-6.4-.45-14.35-1-19.48-4.51a2.15 2.15 0 0 1 2.42-3.55c4.17 2.85 11.48 3.36 17.36 3.78l.88.06c2.15-36.31-15.18-73.51-43.58-93.14a2.12 2.12 0 0 1-.9-1.42c-1.42-8.76-2.65-17.74-3.85-26.42s-2.42-17.61-3.83-26.32a2.15 2.15 0 1 1 4.24-.69c1.42 8.76 2.65 17.74 3.85 26.42 1.15 8.36 2.34 17 3.69 25.43 30.18 21.29 47.63 59.89 44.51 98.62a2.19 2.19 0 0 1-.75 1.47 2.17 2.17 0 0 1-1.38.5z" fill="#502525"></path><path d="M1074.94 310.18c-6 26.45-18.15 52-37.74 70.73s-47 30-74 27c-12.51-1.43-24.81-10-36.5-14.64a403.34 403.34 0 0 0-97.49-25.44c-16.11-2.09-30.63-.65-46.48-.92-48.17 18.78-101.21 15.86-152.3 7.94s-100.62-23.55-150.87-35.69c-19.27-4.65-38.91-9.24-58.71-12.75-31.83-5.68-64.05-8.62-95.69-4.74a52.72 52.72 0 0 1 4.8-19 68.29 68.29 0 0 1 25.76-28.82c16.66-10.46 36.68-14.37 56.34-14.94s39.23 2 58.85 3.58a569.42 569.42 0 0 0 100.8-.9c19.57-1.92 52.51-4.75 64.1-22.75 13.93-21.69 22.63-51.69 28.37-76.6-10.25-20.18-31.13-21.66-51-20.94-23.74.86-47.46 2.83-71 6a650.57 650.57 0 0 0-69.76 13.36q-17.33 4.32-34.4 9.64c-5.93 1.85-27.57 5.48-30.85 10.52-13.41 20.66-41.06 35.42-63.24 44.25-24.49 9.74-52.17 14.4-78.11 8-4.43-1.09-12-1.76-12.09-6.85 0-3.12 7.38-8.51 9.45-10.46 7.37-6.89 15.69-12.9 21.48-21.31q58.79-85.33 125.3-165c8.39-10.06 24-10.55 37.05-11.75 57.44-5.29 115-9.07 172.63-12.25q42.76-2.34 85.52-4.37C718.45.44 729.71-2.49 741 5.19c10 6.75 18 16 25.84 24.94 16.43 18.8 29.94 40.24 46.4 59.21 16 18.48 33.48 39.12 52.86 53.94 20.1 15.37 44.67 27.19 67.4 38.12a585 585 0 0 0 145.28 47.7c1.94 27.03 2.13 54.64-3.84 81.08z" fill="#fca165"></path><path d="M280.09 202.35a2.14 2.14 0 0 1-1.19-3.93l2.57-1.71c3.17-2.1 6.49-4.31 9.93-6.61l.41-.27c9.82-6.56 18.46-12.39 26.46-17.87 17.64-12 32.15-22.27 43.13-30.42 6-4.43 11.86-9.22 17.55-13.85 10.18-8.28 20.7-16.84 32.23-23.8 14.33-8.67 31.36-13.47 47.84-18.11 5.66-1.59 11.51-3.24 17-5l81.45-25.88c5.81-1.84 18.95-5.57 32.85-9.51 17.58-5 37.51-10.63 44.28-13a2.15 2.15 0 0 1 1.4 4.09c-6.9 2.38-26 7.8-44.51 13.05-13.88 3.93-27 7.65-32.73 9.47q-40.71 13-81.42 25.89c-5.58 1.77-11.47 3.43-17.17 5-16.2 4.56-32.95 9.28-46.78 17.65-11.27 6.81-21.67 15.27-31.74 23.45-5.73 4.66-11.65 9.48-17.7 14-11 8.18-25.58 18.45-43.26 30.52-8 5.48-16.67 11.32-26.43 17.84l-.49.33c-3.43 2.3-6.76 4.51-9.94 6.62l-2.56 1.7a2.14 2.14 0 0 1-1.18.35z" fill="#502525"></path><path d="M320.82 200.53c-2.91 4.79-7.69 8.11-12.53 10.93-11.66 6.8-24.34 11.62-37.25 15.45-12.54 3.71-25.75 6.83-38.94 5.58a11.42 11.42 0 0 1-4.1-.94 4.45 4.45 0 0 1-2.56-3.17c-.33-2.22 21.76-13.43 35.57-20 10.71-5.12 21.57-10.11 31.59-16.49l.47-.31c8.37-5.59 17.39-11.66 26.42-17.84a33.27 33.27 0 0 1 4 11.09 23.3 23.3 0 0 1-2.67 15.7z" fill="#fc4401"></path><path d="M420.88 326.38c-31.83-5.68-64.05-8.62-95.69-4.74-8.29.8-17.88.9-26.17 1.72 1.6-6.42 6.54-11.6 12.29-14.86s12.22-4.72 18.68-5.87a.7.7 0 0 0 .14 0 198.13 198.13 0 0 1 76.8 1.39 15.2 15.2 0 0 1 10.57 8.76 41.18 41.18 0 0 1 3.38 13.6z" fill="#fc4401"></path><path d="M782 368.81a2.15 2.15 0 0 1-.82-4.13c22.44-9.27 44.71-19.7 66.21-31a2.15 2.15 0 0 1 2 3.81c-21.62 11.35-44 21.84-66.57 31.16a2.1 2.1 0 0 1-.82.16z" fill="#502525"></path><path d="M220.12 309.46l-4.93-16.81C167.47 316 106.36 346.89 68.78 361.7h-.08a73.82 73.82 0 0 0 5.56 8.94l.34-.11z" fill="#502525"></path><path d="M0 367.34c1.71 6.89 4.83 14.48 9.56 19.77a363.69 363.69 0 0 0 64.7-16.47 73.82 73.82 0 0 1-5.56-8.94z" fill="#502525"></path><path fill="#96d5d4" d="M187.336 270.68l214.897-89.058 30.808 74.34-214.897 89.057z"></path><path d="M445.92 169.55a2.15 2.15 0 0 1-.69-4.18 463.38 463.38 0 0 1 131.89-24.24 2.15 2.15 0 0 1 .16 4.29 459.15 459.15 0 0 0-130.67 24 2.07 2.07 0 0 1-.69.13z" fill="#502525"></path></g></g></g></svg>