<svg xmlns="http://www.w3.org/2000/svg" viewBox="-0.030328750610351562 0.0006728172302246094 1079.933837890625 354.0741271972656" style=""><g><g data-name="Слой 2"><g data-name="Слой 1"><path d="M34.35 110.69c30.38 8.11 61 15.45 91.85 21.65 27.69 5.57 56 8.24 83.59 14.16 12.31 2.64 24 9.42 35.11 15.79 3.91 2.24 7.9 9.37 7.14 13.39-.77 4.23-6.63 9.12-11.28 10.64-6.32 2.06-13.74 2.24-20.44 1.38-40.48-5.17-80.8-11.7-121.32-16.11-23.87-2.6-48.08-2.26-72.15-3.08a42.06 42.06 0 0 0-9.65 1.08C9.85 171 3.4 174.33 2.87 182.51c-.61 9 6.68 11.62 13.68 12.79q61.74 10.26 123.57 20c25.18 4 50.42 7.47 75.53 11.81a41.93 41.93 0 0 1 17.77 7.36c3.92 3 7.73 8.91 7.59 13.41-.1 3.31-6.29 8.5-10.42 9.23-13.14 2.36-26.77 5.14-39.87 3.95-41.54-3.81-82.92-9.3-124.35-14.28-8.29-1-16.47-2.83-24.75-3.87a118.4 118.4 0 0 0-18-1.07c-13.13.38-24.31 6.38-23.62 13.08 1.23 11 10.78 12.49 19.35 14.88 66 18.35 133.12 28.52 201.84 29 37.65.24 67.64-13.56 91.36-41.84 13.83-16.49 29.88-25.79 49.4-28.66a99.53 99.53 0 0 1 20.12-.83c35.93 2 71.12 8.05 106.13 15q8.56 1.72 17.13 3.48l24.3 5 15.25 3.11.43.08q12.12 2.45 24.22 4.89l13.1 2.65q12 2.44 24 4.93 8.21 1.67 16.4 3.37 80.05 16.53 160 33.56 11.37 2.43 22.76 4.82l22 4.64 15.85 3.33q11.88 2.5 23.78 5c5.23 1.09 10.46 2.2 15.68 3.27l24.64 5.13 19.38 4 10.51 2.17q6.15 1.26 12.32 2.42 14.9 2.83 29.89 5.23c22.5 3.66 45.09 6.78 67.63 10.06 7.54 1.11 15.86.13 23.28-1.86 4-1.06 6.7-2.95 8.08-5.31a7.69 7.69 0 0 0 .21-7.46 15.3 15.3 0 0 0-3.74-4.88c-6-5.47-13.47-10.49-21.14-12.76-22-6.5-43.86-13.42-65.93-19.49-9.76-2.71-19.58-5.25-29.43-7.52-4.38-1-8.75-2-13.15-2.85q-4.83-1-9.64-2-9-1.81-17.93-3.59-12-2.42-23.95-4.78c-6-1.18-12-2.37-17.92-3.53l-22.37-4.39-17.37-3.39q-11.05-2.13-22.08-4.29t-21.88-4.22q-79.8-15.29-159.73-30.66c-5.39-1.06-10.78-2.09-16.17-3.14l-23.84-4.65-.89-.18-12-2.36q-11.88-2.3-23.75-4.68-9.32-1.81-18.61-3.71-11.37-2.22-22.71-4.51c-5.66-1.14-11.32-2.27-17-3.43q-50.58-10.2-101-20.91a91.59 91.59 0 0 1-25.74-9.4c-15-8.42-26.44-21.46-33.05-40.15-11.78-33.24-28.14-51.17-58.75-69.23-17.3-10.21-45-22.29-64.33-28C165.58 21.72 113.35 8.43 61.82 3.14 51.29 2.06 39-1.15 28.62.43c-3.91.6-3.38 3.25-4 6.8s3 7.65 6.33 10.07c8.52 6.15 28.28 10.5 38.2 13.2 35.31 9.65 60.68 19.13 96 28.78 24.49 6.72 48.4 15.55 72.45 23.79 3.81 1.31 8.38 3.7 10.1 6.93 2.35 4.4 4.15 10.73 2.65 15-1 3-8.27 6-12.26 5.41-17.46-2.35-34.69-6.25-52.07-9.13-44.39-7.34-88.77-14.66-133.24-21.44-9.27-1.4-29.55-3.9-36.43 4.42-10.1 12.19 7.97 23.74 18 26.43z" fill="#bdd2ed"></path><path d="M783.12 303.57c3.36-14.61 6.57-28.43 9.49-42.23q-79.9-15.34-159.83-30.71c-3.17 12.86-6.3 25.5-9.7 39.38q80.06 16.53 160.04 33.56z" fill="#043d70"></path><path d="M362 228.28a99.53 99.53 0 0 1 20.12-.83c35.93 2 71.12 8.05 106.13 15 3-12.09 6.2-24.86 9.6-38.52q-50.58-10.2-101-20.91a91.59 91.59 0 0 1-25.74-9.4c-3.04 18.11-6.11 36.53-9.11 54.66z" fill="#043d70"></path><path d="M979.94 343.55c22.5 3.66 45.09 6.78 67.63 10.06 7.54 1.11 15.86.13 23.28-1.86 4-1.06 6.7-2.95 8.08-5.29a4.54 4.54 0 0 0 .26-1.12 28.47 28.47 0 0 0 0-6.32 15.3 15.3 0 0 0-3.74-4.88c-6-5.47-13.47-10.49-21.14-12.76-22-6.5-43.86-13.42-65.93-19.49z" fill="#043d70"></path><path d="M907.84 329.74c3.46-14.68 6.86-29.07 10.34-43.8q-12-2.42-23.95-4.78c-3.62 14.29-7.25 28.54-11 43.45z" fill="#043d70"></path><path d="M937.73 335.9q6.15 1.26 12.32 2.42l8.85-44c-4.38-1-8.75-2-13.15-2.85q-4.83-1-9.64-2l-8.89 44.2z" fill="#043d70"></path><path d="M867.52 321.34l8.79-43.71-22.37-4.39c-3.34 14.05-6.71 28.32-10.2 43.12q11.88 2.5 23.78 4.98z" fill="#043d70"></path><path d="M827.89 313l8.68-43.18q-11.05-2.13-22.08-4.29l-8.61 42.83z" fill="#043d70"></path><path d="M529.66 251l7.86-39.07q-11.37-2.22-22.71-4.51c-3.12 12.74-6.22 25.44-9.45 38.57q12.15 2.48 24.3 5.01z" fill="#043d70"></path><path d="M569.56 259.06c3.57-13.42 6.91-25.95 10.3-38.76q-11.86-2.3-23.73-4.68c-3.57 12.25-7.24 24.81-11.22 38.47l.43.08q12.12 2.45 24.22 4.89z" fill="#043d70"></path><path d="M606.68 266.64c3.3-13 6.55-25.79 9.93-39.15l-23.84-4.65c-3.39 13-6.74 25.88-10.11 38.87q12 2.44 24.02 4.93z" fill="#043d70"></path></g></g></g></svg>