<svg xmlns="http://www.w3.org/2000/svg" viewBox="-0.0024192631244659424 0.017646431922912598 68.90438842773438 102.22498321533203" style=""><g><title>ceramics22_191592756</title><path d="M68.27 64.8c-.9-3.54-3-8.52-6.13-10.65a19.14 19.14 0 0 0-8.64-3c-5.65-.62-12.7 1.26-12.83 8.07a15.85 15.85 0 0 0 .33 3.59.47.47 0 0 0 .16.68 19.05 19.05 0 0 0 5.45 9.07.24.24 0 0 0-.06.11c-2.3 4.67-6.59 8-8.91 12.73s-3.61 10-6.19 14.72C31 96 31.2 91.9 31 87.79c-.08-2-.22-4-.37-5.93a3.48 3.48 0 0 0 .41-1 18.61 18.61 0 0 0 5.2-13.74.5.5 0 0 0-.8-.34c-2.09 1.94-3 4.65-3.71 7.33-.35 1.28-.71 2.57-1 3.86-.09.34-.16.83-.25 1.32-.19-2.59-.36-5.17-.39-7.77 0-3.87-.13-7.75-.08-11.62a.52.52 0 0 0 .11-.5c0-.1-.07-.2-.1-.3 0-1.2 0-2.4.11-3.6.13-2.72 1.15-6 .77-8.73 14.22 1.31 29.77-3.33 29.42-19.48C60 13.41 48 1.1 34.21.41h-.09C23.44-1.33 9.41 2.75 3 12a17.22 17.22 0 0 0-2.25 4.55.52.52 0 0 0-.27.94C-2.17 27.9 6.53 38.43 16 43a44.4 44.4 0 0 0 13.83 3.72A15.9 15.9 0 0 1 29.5 51c-.25 1.94-.37 3.88-.44 5.83v.07a14.9 14.9 0 0 0-7.79-7.21.51.51 0 0 0-.66.27c-.69 1.86.64 3.62 1.87 4.91 1.86 1.95 4.05 2.73 6.35 4l.18.49c-.06 4.12 0 8.24.07 12.35 0 2.93.24 5.84.46 8.75a36.92 36.92 0 0 0-13.74-12 .5.5 0 0 0-.66.27c-.87 2.48 1.23 4.85 2.85 6.5a25.74 25.74 0 0 0 8.89 6.12 10.41 10.41 0 0 0 2.8 1.09c.13 1.69.25 3.37.33 5.06.22 4.77-.13 9.57.68 14.29.07.4.66.65.91.25.08-.13.15-.28.23-.41a16.85 16.85 0 0 0 1.79-1.06c1.53-.29 3.35 0 4.75-.18a20.18 20.18 0 0 0 6.41-2.13c2.79-1.43 6.77-4.17 7.44-7.46a.5.5 0 0 0-.56-.57 30.12 30.12 0 0 0-11 4.07c-2.63 1.5-4.84 3.63-7.34 5.29l-.44.12c2.12-4.22 3.37-8.81 5.37-13.1 2.32-5 6.73-8.46 9.17-13.29A14.81 14.81 0 0 0 49 74.36c4.9 3.08 13.14 4.76 17.73.28 2.74-2.64 2.43-6.38 1.54-9.84zM56.2 38.16a19.13 19.13 0 0 1-10.26 6.48c-.2.06-.41.1-.61.15a.49.49 0 0 0-.07-.19c-2.25-3.72-4.75-7.28-6.93-11-1.9-3.25-3.65-6.57-5.56-9.81a1.06 1.06 0 0 0 .4-.22 1.93 1.93 0 0 0 .28-.36c4.16.78 8.32 2.75 12.24 4.12 4.1 1.43 8.57 3.59 13 3.93a.5.5 0 0 0 .43-.19 15.61 15.61 0 0 1-2.92 7.09zm0-22.32a26.1 26.1 0 0 1 2.8 8.41 23.06 23.06 0 0 1 .11 6.21.4.4 0 0 0-.37-.24c-4.85-.38-9.94-2.92-14.51-4.5-3.47-1.19-7-2.82-10.62-3.53a2.87 2.87 0 0 0 0-.31 2.25 2.25 0 0 0-.06-.36c0-.11-.09-.22-.14-.33 2.86-1.19 10.11-2.09 11.05-2.26 3.66-.68 8.42-1 11.64-3 .04-.04.05-.07.07-.09zm-.48-.84a.53.53 0 0 0-.23.08c-1.83 1.17-4.33 1.49-6.42 1.92-3 .62-6 1.12-9 1.7-1.15.22-5.13.6-7.35 1.71l-.15-.1a29.75 29.75 0 0 1 1.63-2.86 39.23 39.23 0 0 0 2.25-4.55c1.44-3.44 2.18-7 3.44-10.54A27.82 27.82 0 0 1 55.72 15zM33 1.24a.53.53 0 0 0 .35.14 23.67 23.67 0 0 1 5.59.74c-1.44 4-2.29 8.14-4.11 12.05-.64 1.36-1.87 3-2.73 4.71a36.81 36.81 0 0 0-2.58-5.8 52.9 52.9 0 0 1-2.37-5.4C26.38 5.62 25.3 3.62 25 1.42a.78.78 0 0 0 0-.14 33.58 33.58 0 0 1 8-.04zm-9 .17v.14c.42 3.22 2.11 6.7 3.46 9.64 1.2 2.62 3.24 5.63 3.84 8.63a1.93 1.93 0 0 0-.59 0A69.22 69.22 0 0 0 21.55 13c-1.88-1.21-3.83-2.33-5.67-3.59a34 34 0 0 0-5.08-3.3A35 35 0 0 1 24 1.41zM2.24 15.47a20.58 20.58 0 0 1 7.54-8.74c2.31.88 4.1 2.54 6.14 3.87 1.65 1.08 3.34 2.09 5 3.16a69.89 69.89 0 0 1 8.67 6.42 1 1 0 0 0-.27.24 1.46 1.46 0 0 0-.32 1.3 23.12 23.12 0 0 1-4.13-.72c-2.28-.58-4.57-1-6.87-1.37-3-.52-5.95-1.06-8.93-1.56-2.43-.41-4.81-1.16-7.26-1.44.12-.39.27-.77.43-1.16zm-.75 2.14c2.67.27 5.26 1.1 7.9 1.53 3.46.58 6.89 1.24 10.35 1.81 2.33.39 4.59 1 6.91 1.42a16.4 16.4 0 0 0 2.76.35c-3.61 1.71-7.63 2.41-11.41 3.66-2.4.79-4.72 1.79-7 2.8-2.09.92-4.35 2.51-6.69 2.56-2.86-4.18-4.22-9.05-2.82-14.13zm18.87 26A33 33 0 0 1 5 32.71c2-.24 3.76-1.42 5.55-2.22a83.06 83.06 0 0 1 7.85-3.17c4.12-1.35 8.44-2.12 12.3-4.13a2 2 0 0 0 .32.17c-.14 3.81-2.29 7.09-3.87 10.48s-2.71 7.06-4.4 10.45c-.83-.22-1.62-.45-2.39-.7zm3.35 1c1.89-3.83 3.12-7.94 5-11.76 1.39-2.76 2.83-5.49 3.17-8.52 1.93 3.26 3.69 6.62 5.6 9.89 2.15 3.7 4.6 7.21 6.82 10.86a44.43 44.43 0 0 1-20.59-.52zM66.53 62.7c-2.79-.06-5.52.57-8.3.66l-.23-.21c1-2.67 2.25-5.21 3.13-7.91a17.27 17.27 0 0 1 5.4 7.46zm-6.24-8.07c-.88 2.77-2.21 5.36-3.2 8.08-1.21-1.77-2.82-3.3-4.18-5a34.72 34.72 0 0 0-5.1-5.25 15.9 15.9 0 0 1 12.48 2.17zm-13.68-1.8a31.63 31.63 0 0 1 5.49 5.54c1.3 1.57 2.87 3.05 4 4.74l-.1.08a57.78 57.78 0 0 1-5.63-2.78 42.21 42.21 0 0 1-7.63-4.54 6.66 6.66 0 0 1 3.87-3.04zm-4.28 4A44.52 44.52 0 0 0 50 61.34c1.42.7 2.91 1.59 4.44 2.29-4.11-.24-8.2-1-12.32-1.08a10.45 10.45 0 0 1 .21-5.74zm5.47 15.31a.56.56 0 0 0-.32-.26 16.75 16.75 0 0 1-4.31-6 19.59 19.59 0 0 1-.8-2.3c4.42.17 8.79 1 13.2 1.11a2.47 2.47 0 0 0 .36 1A45.08 45.08 0 0 0 51 74.33a16.85 16.85 0 0 1-3.2-2.19zM60 76.31a17.7 17.7 0 0 1-8-1.55 45 45 0 0 1 4.71-8.37 1.53 1.53 0 0 0 1.13.21c.44 1.17.76 2.39 1.09 3.62.53 2 1.39 3.84 1.73 5.86a.44.44 0 0 0 .06.16c-.3.03-.53.06-.72.07zm1.64-.21a.33.33 0 0 0 0-.14c-.35-2.11-1.24-4.06-1.79-6.12-.3-1.11-.6-2.2-1-3.27 2.77 1.58 5.42 3.37 8.12 5.07a.55.55 0 0 0 .28.07 7.33 7.33 0 0 1-5.66 4.39zm5.94-5.29c-2.87-1.8-5.68-3.7-8.64-5.34a2.47 2.47 0 0 0-.11-1.14c2.58-.17 5.13-.7 7.72-.63a.57.57 0 0 0 .35-.12 24.11 24.11 0 0 1 .74 2.66 9.86 9.86 0 0 1-.11 4.57z" fill="#3556bc" data-name="Слой 2"></path></g></svg>