<svg xmlns="http://www.w3.org/2000/svg" width="1080" height="2452.93" viewBox="0 0.0030134443659335375 1080.0001220703125 2452.927001953125" style=""><g><title>Oscar_214370896</title><g data-name="Layer 2"><g data-name="Layer 1"><path d="M489.5 1501.13C434 1345.84 448 1283 448 1283l-43.52-48.07s-14.79-44.37-43.78-240.33-.59-184.87 6.81-269.91-18.49-107.22 0-173.77 29.57-37 114.61-59.16c63.07-16.45 67.52-72.64 65.62-100.6a159.1 159.1 0 0 1-48.44-114.48v-117A159.66 159.66 0 0 1 606.22 8.94a159.63 159.63 0 0 0-212.3 150.68v117.05a159.1 159.1 0 0 0 48.44 114.48c1.91 28-2.55 84.15-65.62 100.6-85 22.18-96.13-7.4-114.61 59.16s7.39 88.73 0 173.77-35.79 74-6.8 269.91 43.77 240.33 43.77 240.33l43.53 48.08s-13.95 62.85 41.51 218.14 44.37 401.58 44.37 401.58h105.36s11.13-246.3-44.37-401.59z" fill="#ffc50d"></path><path d="M715.54 1501.13C771 1345.84 757.05 1283 757.05 1283l43.53-48.07s14.79-44.37 43.78-240.33.59-184.87-6.8-269.91 18.48-107.22 0-173.77-29.58-37-114.62-59.16c-58.15-15.17-66.47-64.13-65.93-93.59a159.24 159.24 0 0 0 56.14-121.49v-117A159.65 159.65 0 0 0 606.22 8.94a159.66 159.66 0 0 0-106.94 150.68v117.05a159.1 159.1 0 0 0 48.44 114.48c1.9 28-2.55 84.15-65.62 100.6-85 22.18-96.13-7.4-114.61 59.16s7.39 88.73 0 173.77-35.79 74-6.81 269.91 43.78 240.33 43.78 240.33L448 1283s-14 62.84 41.5 218.13 44.37 401.58 44.37 401.58h137.31s-11.1-246.29 44.36-401.58z" fill="#ffd740"></path><path d="M889.16 1897.41H190.84a56 56 0 0 0-56 56v348h810.33v-348a56 56 0 0 0-56-56z" fill="#455b64"></path><path d="M953.76 2301.43H126.24A126.23 126.23 0 0 0 0 2427.66v25.27h1080v-25.27a126.23 126.23 0 0 0-126.24-126.23z" fill="#263238"></path><path d="M945.17 2264v37.45H134.83V2264a145.39 145.39 0 0 1 16.67-.93h777a145.39 145.39 0 0 1 16.67.93z" fill="#37474f"></path><path d="M745.58 2163.49v-128.15a45.57 45.57 0 0 1-45.58-45.57H380.33a45.57 45.57 0 0 1-45.57 45.57h-.34v128.18h.34a45.57 45.57 0 0 1 45.57 45.57H700a45.58 45.58 0 0 1 45.57-45.57z" fill="#ffd740"></path><path d="M674.32 2116.32a16.91 16.91 0 1 1 16.9-16.9 16.91 16.91 0 0 1-16.9 16.9zm-268.64 0a16.91 16.91 0 1 1 16.91-16.9 16.9 16.9 0 0 1-16.91 16.9zm272.26-99.14H402.4a73.38 73.38 0 0 1-40.57 40.37v83.73a73.44 73.44 0 0 1 40.57 40.37h275.54a73.44 73.44 0 0 1 40.23-40.23v-84a73.41 73.41 0 0 1-40.23-40.23z" fill="#fee580"></path></g></g></g></svg>