<svg xmlns="http://www.w3.org/2000/svg" width="1440" height="1296.26" viewBox="0.01007223129272461 0.003492116928100586 1079.9586181640625 972.25830078125" style=""><g><title>garland23_43689577</title><g data-name="Layer 2"><g data-name="43689577" fill="#f4f4f4" fill-rule="evenodd"><path d="M716.28 65.45C851.15 131 944.12 269.25 944.12 429.27c0 223.27-181 404.28-404.3 404.28s-404.27-181-404.27-404.28c0-160 93-298.3 227.84-363.82a373.82 373.82 0 0 0-40.69 25.72c-102.65 70.52-170.1 189.61-170.1 324.66 0 216.54 173.37 392.08 387.24 392.08s387.23-175.54 387.23-392.08A393 393 0 0 0 757 91.14a374.28 374.28 0 0 0-40.72-25.69z"></path><path d="M429.51 849.69h206.35a35.94 35.94 0 0 1 0 71.88H429.51a35.94 35.94 0 0 1 0-71.88z"></path><path d="M388.21 822.64c-8.54.94-94.62 9.7-129.41 81.4-6.64 13.73-5.26 26.27-7.08 40.37-1.27 10-12.34 15.68-16.76 5.15-3.81-9-1.4-20.64 1.7-29.42 7.7-21.81 23.67-42.24 41.13-57.16 29.24-25.44 64.43-40.63 112.47-43.15z"></path><path d="M490.23 825.56s.18 3.92-1.07 4.77c-62.24-19.48-146.37-28.53-213.46 28.51a255.81 255.81 0 0 0-47.7 53.57c-3.57 5.3-21.79 38.61-25.18 42.21-6.76 7.15-17.13-5.93-18.24-13-1.34-8.43 24.74-44 30.47-50.91a259.5 259.5 0 0 1 35-35.14 215 215 0 0 1 77.81-41.15c27.21-7.7 55.79-9.74 83.91-7.11a281.7 281.7 0 0 1 42.59 7.41c7.09 1.73 30.27 9.4 35.87 10.84z"></path><path d="M273.06 940c3.52 18.35 28 47 16 23.25-5.56-10.47-10.56-25.61-5.63-37.24 8.71 27.74 41.86 21.47 46.33-3.85-6.84 9.32-16.23 4.19-20.13-4.62-4.15-9.33-1.05-21.81 2.07-31 8.44-24.88 29-47.78 54.88-54.77 2.67-.73 3.54-3.15 1.07-2.42-75.45 22.4-100.9 79.13-94.59 110.65z"></path><path d="M355.34 841.08c-2.92 1.93-32.55 21.07-31.85 53.57.13 6.2 3 10.51 4.92 16 1.39 3.86-1.57 8-5.14 5-3-2.56-4.32-7.22-4.83-11-1.25-9.34.75-19.74 4.32-28.4 5.89-14.65 15.83-26.7 32.8-36.54z"></path><path d="M346.89 853.33c-1.62 3.1-18.28 34.19-2 62.31 3.12 5.36 7.68 7.76 12 11.58 3.09 2.7 2.49 7.74-2.09 6.83-3.91-.76-7.27-4.23-9.54-7.28-5.62-7.57-8.89-17.63-10-26.92-1.93-15.69.95-31 11-47.86z"></path><path d="M310.41 781.18c-7.86-1-86.86-12.21-133.83 44.29-9 10.83-10.52 22.37-15.27 34.58-3.33 8.65-14.51 11.32-16.13.91-1.43-8.94 3.29-18.79 8-26 11.71-17.83 30.52-32.6 49.44-42.1 31.8-16.31 66.66-22.14 110.23-13.8z"></path><path d="M401.1 806.3s-.71 3.56-2 4.05c-51.44-31.2-124.77-57.87-197.42-21.62a236 236 0 0 0-54.57 37.44c-4.37 3.94-28 29.73-31.87 32.21-7.63 4.91-14-9.08-13.45-15.72.66-7.84 31.86-33.89 38.53-38.84a239.15 239.15 0 0 1 39.1-23.73 198.59 198.59 0 0 1 78.76-19.66c26.05-.89 52.09 3.59 76.69 12.17a260.35 260.35 0 0 1 36.49 16c5.99 3.2 25.06 15.19 29.74 17.7z"></path><path d="M181.4 860.77c-.9 17.21 14.73 48.27 9.17 24.35-2.67-10.6-3.79-25.26 3.17-34.59 1.68 26.75 32.75 28.47 42.36 6.78-8.19 6.84-15.47.18-17-8.59-1.66-9.26 3.86-19.75 8.68-27.26 13.06-20.4 36.55-36.36 61.22-36.91 2.56-.06 3.88-2 1.49-1.93C218 786 182.7 831.2 181.4 860.77z"></path><path d="M276.9 790.42c-3 1.09-33.78 11.68-40.34 40.93-1.26 5.59.34 10.07.87 15.37.39 3.77-3.16 6.81-5.69 3.33-2.16-3-2.28-7.44-1.9-10.9.93-8.64 5-17.51 10.13-24.47 8.52-11.82 20.07-20.4 37.44-25.48z"></path><path d="M266.64 799.52c-2.15 2.43-23.94 26.57-15.52 55.35 1.61 5.5 5.16 8.63 8.2 13 2.17 3.09.52 7.49-3.36 5.66-3.35-1.56-5.59-5.41-7-8.62-3.36-8-4.07-17.76-3-26.32 1.74-14.47 7.7-27.57 20.45-40.4z"></path><path d="M254.92 723.67c-6.9-2.56-76.25-28.84-130.42 12.8-10.36 8-14.1 18.12-20.91 28.23-4.8 7.16-15.48 7.3-14.82-2.48.55-8.4 6.83-16.36 12.58-21.89 14.26-13.78 34.34-23.34 53.45-28.08 32.18-8.28 65-6.43 102.78 10z"></path><path d="M332 765s-1.37 3.08-2.65 3.27c-40.25-38.81-101.29-78-174.59-60a220.16 220.16 0 0 0-57.15 22.77c-4.77 2.71-31.49 21.26-35.49 22.72-7.92 2.89-10.85-11.12-9-17 2.2-7 35.83-24.23 42.89-27.34a219.94 219.94 0 0 1 40.3-13.52 184.46 184.46 0 0 1 75.45-1.73c23.82 4.52 46.5 13.93 67.05 26.72a241.28 241.28 0 0 1 29.82 22C313.46 747 328.3 761.76 332 765z"></path><path d="M121.66 769.46c-4.33 15.43 3.48 46.79 3.35 23.95-.26-10.16 1.71-23.68 9.94-30.72-3.94 24.61 23.87 32.52 37 14.83-8.82 4.51-14.08-3-13.67-11.27.4-8.74 7.54-17.12 13.45-23 16-15.84 40.58-25.5 63.07-21 2.33.47 3.93-1 1.74-1.43-66.38-11.65-107.66 22.09-114.88 48.64z"></path><path d="M222.65 725.21c-3 .35-33 3.67-45 28.85-2.28 4.81-1.74 9.2-2.35 14.12-.4 3.51-4.26 5.53-5.83 1.86-1.36-3.15-.55-7.21.5-10.28 2.63-7.64 8.13-14.85 14.19-20.12 10.15-9 22.38-14.39 39.16-15.44z"></path><path d="M211.49 731.35c-2.44 1.77-27.14 19.2-25.4 47 .34 5.32 2.92 8.9 4.79 13.5 1.32 3.25-1.06 6.9-4.23 4.43-2.7-2.09-4-6-4.53-9.22-1.4-8-.06-16.94 2.69-24.47 4.54-12.77 12.63-23.44 26.81-32.46z"></path><path d="M206.76 650.9c-5.7-3.72-62.9-41.51-120.19-15-11 5.08-16.4 13.47-24.59 21.2-5.79 5.5-15.44 3.45-12.87-5.24 2.21-7.45 9.49-13.36 15.79-17.19 15.68-9.5 35.71-14 53.9-14.43 30.7-.93 59.91 7.41 90.64 30z"></path><path d="M267.87 703.85s-1.85 2.49-3 2.4c-28.4-43.18-75.48-90.92-145.22-89.58a203 203 0 0 0-56.16 8.91c-4.89 1.42-32.77 12.74-36.65 13.25-7.74 1-7.53-12.22-4.64-17.15 3.4-5.84 37.22-14.55 44.23-15.94a205.14 205.14 0 0 1 39.09-4 170.26 170.26 0 0 1 68.36 13.79 181.92 181.92 0 0 1 55 37.71 223.64 223.64 0 0 1 22.41 25.91c3.5 4.69 13.89 21 16.58 24.7z"></path><path d="M77.3 665.09c-7 13-6.37 42.88-1.87 22.27 1.84-9.2 6.37-21 15.23-25.66-8.57 21.37 14.91 34.16 30.35 20.88-8.87 2.28-12.06-5.58-10-13 2.13-7.8 10.28-13.9 16.79-17.94 17.65-11 41.77-14.75 61.13-6.07 2 .89 3.75-.15 1.86-.94-57.51-24.04-101.58-2-113.49 20.46z"></path><path d="M177.35 645.72c-2.76-.28-30.53-3.4-46.41 16.89-3 3.86-3.44 7.92-5 12.25-1.09 3.07-5 4.11-5.64.47-.59-3.11 1-6.61 2.53-9.16 3.91-6.36 10.36-11.74 16.89-15.25 11-6 23.1-8.43 38.45-6z"></path><path d="M166 649c-2.55 1.09-28.37 11.8-32.45 37.22-.79 4.87.82 8.62 1.56 13.15.53 3.2-2.35 6-4.71 3.15-2-2.44-2.34-6.26-2.21-9.25.36-7.47 3.41-15.29 7.41-21.52 6.69-10.59 16.15-18.57 30.77-23.82z"></path><path d="M157.31 565.46c-4.28-4.17-47.13-46.45-101-33.34-10.3 2.5-16.43 8.8-24.79 14.08-5.93 3.73-13.89.34-10.19-6.71 3.17-6 10.44-9.91 16.53-12.12 15.11-5.53 33.14-6 48.89-3.27 26.59 4.42 50.33 16.57 73 41.21z"></path><path d="M201 621.48s-2 1.82-3 1.54C180.8 581 148.37 531.86 88 521.15a178.19 178.19 0 0 0-49.88-1.87c-4.42.43-30.37 5.41-33.8 5.2C-2.46 524 0 512.66 3.29 508.9c3.93-4.45 34.55-6.22 40.81-6.2a179.2 179.2 0 0 1 34.35 3.2A149.81 149.81 0 0 1 135 529.42a159.53 159.53 0 0 1 41 41.86 197.54 197.54 0 0 1 14.9 26.12c2.19 4.6 8.34 20.43 10.1 24.08z"></path><path d="M43.36 555.68c-8.28 10-12.77 35.85-5.39 18.85 3.17-7.61 9.06-17 17.48-19.51-11 17 7 32 22.61 23.14-8 .46-9.45-6.84-6.45-12.85 3.17-6.35 11.23-10.22 17.53-12.61 17.08-6.47 38.48-5.59 53.69 5.17 1.57 1.13 3.24.51 1.76-.48-45.42-30.53-87.14-19.04-101.23-1.71z"></path><path d="M132.86 556c-2.33-.71-25.72-8.12-42.85 6.64-3.27 2.83-4.31 6.26-6.38 9.72-1.46 2.45-5 2.71-4.94-.55 0-2.77 2-5.52 3.75-7.45 4.45-4.83 10.91-8.35 17.14-10.28 10.47-3.32 21.34-3.32 34.12 1.41z"></path><path d="M122.54 556.89c-2.37.51-26.44 5.34-34.28 26.55-1.5 4-.77 7.56-.89 11.58-.09 2.86-3.05 4.77-4.58 1.91-1.33-2.44-1-5.78-.34-8.34C84 582.22 88 576 92.49 571.32c7.56-8 17.06-13.25 30.56-15.28z"></path><path d="M140.43 483.47c-3.2-4.77-35.06-53.17-88.4-51.63-10.21.31-17.23 5-26.16 8.31-6.31 2.32-13.13-2.46-8.24-8.38 4.18-5 11.82-7.2 18-8.09 15.33-2.17 32.4 1 46.67 6.73 24.15 9.49 44.07 25.68 60.45 53.4z"></path><path d="M170.29 544.94s-2.28 1.33-3.18.86c-7.69-43-28.38-95.74-83-117.91a171.18 171.18 0 0 0-46.59-11.76c-4.25-.48-29.66-1-32.87-1.88-6.32-1.8-1.77-12 2.12-14.87 4.58-3.4 33.76 1.07 39.66 2.33a173.23 173.23 0 0 1 31.69 9.89 144.2 144.2 0 0 1 48.53 33.47 153.57 153.57 0 0 1 30.21 47.62 190.35 190.35 0 0 1 8.79 27.56c1.13 4.75 3.77 20.92 4.64 24.69z"></path><path d="M35.12 451.44c-9.8 7.77-19.21 31.2-8.86 16.68 4.5-6.54 11.94-14.21 20.37-14.89-13.76 13.78.22 31.51 16.65 26.34-7.66-1.2-7.53-8.35-3.5-13.41 4.25-5.34 12.62-7.37 19-8.35 17.37-2.69 37.34 2.44 49.51 15.62 1.24 1.36 3 1.14 1.75-.11-36.62-37.83-78.19-35.38-94.92-21.88z"></path><path d="M119.31 469.68c-2-1.16-22.6-12.8-41.68-2.34-3.64 2-5.32 5-7.93 7.87-1.88 2-5.24 1.56-4.56-1.51.58-2.6 3-4.8 5-6.26 5.14-3.65 12-5.69 18.18-6.23 10.54-1 20.76 1.12 31.86 8.14z"></path><path d="M109.42 468.46c-2.35 0-26-.29-37.61 18.1-2.21 3.51-2.22 7-3.14 10.74-.66 2.66-3.84 3.88-4.71.88-.76-2.57.25-5.64 1.37-7.92 2.74-5.68 7.7-10.75 12.9-14.26 8.71-6 18.73-9.05 31.83-8.27z"></path><path d="M137.35 401.17c-2-4.86-22.37-53.91-70.64-61.72-9.24-1.49-16.37 1.53-25 2.95-6.08 1-11.39-4.49-6-8.95 4.65-3.82 11.89-4.45 17.59-4.19 14.18.7 29 6.48 40.84 14.12 20.09 12.7 35.24 30.7 45.18 58.48z"></path><path d="M153.62 461.63s-2.28.79-3 .23c.49-40-9-91.06-54.36-120.45a157.78 157.78 0 0 0-39.9-18.62c-3.75-1.15-26.52-6-29.26-7.36-5.38-2.7.49-11.11 4.47-13 4.72-2.27 30.21 6.79 35.28 8.95a158.81 158.81 0 0 1 26.84 14.38 132 132 0 0 1 37.88 38.49 141 141 0 0 1 19 48 175.65 175.65 0 0 1 3.15 26.35c.18 4.51-.24 19.5-.1 23.03z"></path><path d="M48.12 354.15c-10.16 5.31-22.68 24.77-10.86 13.5 5.18-5.12 13.2-10.73 20.91-9.88-14.77 10-5.24 28.38 10.43 26.55-6.69-2.39-5.34-8.81-.83-12.64 4.74-4.09 12.62-4.47 18.56-4.25 16.11.59 33.19 8.65 41.85 22.61.9 1.45 2.48 1.53 1.6.2-26.45-40.38-64.28-45.35-81.66-36.09z"></path><path d="M120.73 385.1c-1.65-1.38-18.12-15.42-37.11-9.29-3.62 1.18-5.64 3.6-8.5 5.71-2 1.5-5 .49-3.83-2.15 1-2.25 3.49-3.8 5.6-4.77a35.14 35.14 0 0 1 17.45-2.46c9.65.88 18.48 4.59 27.26 12.84z"></path><path d="M112.05 382.28c-2.12-.4-23.32-4.73-37 9.83-2.61 2.77-3.21 5.88-4.7 9.11-1 2.29-4.11 2.83-4.37 0-.24-2.44 1.21-5 2.59-6.89a35.27 35.27 0 0 1 14.07-10.6c8.88-3.9 18.41-4.9 30.07-1.94z"></path><path d="M144.63 332.12c-1-4.65-10.9-51.6-52.49-66.58-7.94-2.86-14.78-1.36-22.66-1.53-5.57-.12-9.38-5.88-3.83-8.94 4.77-2.63 11.31-2 16.32-.79 12.48 3 24.69 10.57 33.94 19.33 15.74 14.63 26.18 33.14 30.41 59.47z"></path><path d="M149 388.54s-2.16.34-2.69-.29c7.09-35.48 7.13-82.4-28.25-116A142.94 142.94 0 0 0 85.72 249c-3.13-1.65-22.56-9.75-24.75-11.41-4.34-3.31 2.27-9.78 6.13-10.83 4.57-1.23 25.7 11.07 29.86 13.82a143.91 143.91 0 0 1 21.43 17.23 119.4 119.4 0 0 1 27.27 40.51 127.46 127.46 0 0 1 8.84 45.84 157 157 0 0 1-1.58 23.93c-.57 4.06-3.43 17.29-3.92 20.45z"></path><path d="M73.18 275.52c-9.9 3-24.26 18.22-11.87 10.17 5.44-3.68 13.49-7.33 20.21-5.29-14.79 6.43-9.38 24.34 4.83 25.33-5.53-3.24-3.27-8.71 1.37-11.38 4.91-2.84 12-1.86 17.2-.68 14.2 3.2 28.05 13.2 33.42 27 .56 1.44 1.94 1.77 1.38.45-16.78-40.22-49.56-50.93-66.54-45.6z"></path><path d="M132.54 315.08c-1.24-1.5-13.54-16.71-31.42-14.42-3.4.43-5.61 2.26-8.49 3.65-2.07 1-4.52-.39-3.06-2.53 1.25-1.84 3.74-2.82 5.78-3.31a31.69 31.69 0 0 1 15.91.71c8.41 2.38 15.65 7.17 22.07 15.93z"></path><path d="M125.29 311.14c-1.81-.71-19.93-8.08-34.47 2.58-2.78 2-3.82 4.69-5.68 7.31-1.32 1.85-4.13 1.83-3.89-.76.19-2.2 1.9-4.26 3.44-5.68A32 32 0 0 1 99 307.51c8.53-2 17.16-1.3 27 3.29z"></path><path d="M163.6 262.4c-.18-4.76-1.75-52.72-40.09-74.69-7.35-4.21-14.33-3.92-22.06-5.47-5.47-1.08-8.21-7.42-2.22-9.46 5.15-1.75 11.48 0 16.21 2.07 11.78 5.09 22.47 14.7 30.06 24.93 13 17.14 20 37.2 19.59 63.87z"></path><path d="M158.11 318.73s-2.19-.05-2.6-.78c13.15-33.69 21.36-79.89-7.64-119.17a141.84 141.84 0 0 0-27.82-28.46c-2.79-2.17-20.52-13.51-22.38-15.53-3.72-4 3.92-9.25 7.9-9.6 4.72-.42 23.39 15.36 27 18.8a143.83 143.83 0 0 1 18.1 20.71 119 119 0 0 1 19.8 44.61 127.3 127.3 0 0 1 .74 46.7 156.53 156.53 0 0 1-5.73 23.27c-1.25 3.88-6.37 16.41-7.37 19.45z"></path><path d="M103.09 194.21c-10.28 1.26-27.07 13.74-13.46 8 6-2.66 14.56-4.86 20.81-1.7-15.67 3.77-13.47 22.34.37 25.79-4.9-4.14-1.71-9.14 3.33-11 5.3-1.93 12.1.26 17 2.34 13.43 5.61 25.32 17.87 28.22 32.43.29 1.51 1.59 2.09 1.28.7-9.47-42.59-39.9-58.84-57.55-56.56z"></path><path d="M154.65 243.52c-1-1.69-10.41-18.82-28.41-19.68-3.45-.16-5.93 1.25-9 2.12-2.2.62-4.37-1.16-2.56-3 1.54-1.59 4.17-2.11 6.26-2.25a31.79 31.79 0 0 1 15.54 3.46c7.88 3.83 14.17 9.78 19 19.55z"></path><path d="M148.21 238.37c-1.67-1-18.22-11.42-34.39-3.47-3.1 1.53-4.59 3.95-6.88 6.22-1.61 1.61-4.37 1.09-3.7-1.41.58-2.14 2.63-3.87 4.38-5a31.94 31.94 0 0 1 15.3-4.48c8.73-.47 17.12 1.72 26.05 7.94z"></path><path d="M199.64 195.82c.66-4.58 7.6-50.78-25.25-78.59-6.28-5.32-13-6.27-20.15-9.11-5.06-2-6.56-8.55-.46-9.46 5.24-.77 11 2 15.16 4.83 10.37 7 18.92 18 24.39 29.17 9.38 18.71 12.62 39.16 7.52 64.62z"></path><path d="M184.46 248.8s-2.08-.43-2.36-1.19c18.53-30 34.52-72.75 13.68-115.49A138.75 138.75 0 0 0 174.15 100c-2.3-2.57-17.27-16.55-18.71-18.82-2.83-4.48 5.4-8.16 9.28-7.79 4.58.42 19.68 18.84 22.54 22.76a140.59 140.59 0 0 1 13.69 23 115.86 115.86 0 0 1 11.1 46.22 123.82 123.82 0 0 1-7.52 44.84 150.93 150.93 0 0 1-9.53 21.27c-1.93 3.52-9 14.58-10.54 17.32z"></path><path d="M153.7 119.87c-10.06-.6-28.35 8.38-14.3 5.26 6.22-1.51 14.81-2.09 20.24 2-15.68.85-16.84 19-4.2 24.76-3.95-4.83 0-9.06 5.12-9.92 5.43-.93 11.54 2.37 15.92 5.24 11.88 7.75 21.1 21.58 21.3 36 0 1.48 1.16 2.26 1.11.88-1.61-42.39-27.89-63.29-45.19-64.22z"></path><path d="M194.4 176.16c-.61-1.78-6.66-19.85-23.76-23.83-3.26-.76-5.9.14-9 .43-2.21.22-4-1.89-1.91-3.35 1.75-1.25 4.37-1.29 6.39-1.06a31 31 0 0 1 14.27 6.06c6.88 5.05 11.85 11.86 14.73 22.06z"></path><path d="M189.12 170.1c-1.39-1.26-15.42-14.14-32.33-9.37-3.21.92-5.07 3-7.66 4.74-1.84 1.26-4.38.26-3.3-2 .93-2 3.19-3.24 5.08-4a31 31 0 0 1 15.43-1.61c8.47 1.1 16.11 4.66 23.55 12.18z"></path><path d="M240.87 142.36c1.13-3.55 13-39.27-9.25-65.86-4.26-5.08-9.48-6.76-14.76-10-3.72-2.28-4-7.7.95-7.58 4.27.11 8.43 3.13 11.37 5.93 7.28 6.94 12.54 16.91 15.36 26.51 4.88 16.13 4.63 32.8-2.92 52.32z"></path><path d="M221.53 182.34s-1.6-.63-1.72-1.29c18.83-21.21 37.42-53 26.74-89.78a111.64 111.64 0 0 0-12.76-28.49c-1.46-2.36-11.43-15.52-12.26-17.52-1.62-3.95 5.41-5.73 8.44-4.9 3.58 1 13 17.65 14.77 21.16a114 114 0 0 1 7.71 20.16 93.87 93.87 0 0 1 2.45 38.21 99.94 99.94 0 0 1-12.13 34.56A123.52 123.52 0 0 1 232.25 170c-1.98 2.54-9.16 10.37-10.72 12.34z"></path><path d="M214.84 75.77c-7.92-1.88-23.66 2.76-12.09 2.19 5.15-.33 12.05.38 15.79 4.4-12.56-1.49-16 12.79-6.73 19.08-2.48-4.38 1.23-7.19 5.42-7.16 4.44 0 8.85 3.45 11.92 6.33 8.37 7.79 13.79 20 12 31.54-.19 1.19.61 2 .76.84 4.5-33.9-13.47-54.11-27.07-57.22z"></path><path d="M239.41 126c-.25-1.5-2.57-16.67-15.59-22.2-2.48-1-4.69-.68-7.21-.88-1.78-.13-2.9-2-1.06-2.92 1.57-.75 3.64-.43 5.21 0a25 25 0 0 1 10.51 6.77c4.76 5 7.77 11 8.66 19.52z"></path><path d="M236 120.5c-.92-1.19-10.3-13.35-24.36-11.87-2.7.28-4.45 1.66-6.74 2.71-1.63.73-3.52-.41-2.35-2.06 1-1.42 3-2.14 4.6-2.49a24.79 24.79 0 0 1 12.46.86c6.55 2 12.14 5.9 17 12.89z"></path><path d="M287.28 104.64c1.39-2.87 15.68-31.57.09-56.66-3-4.78-7.2-6.83-11.24-10.19-2.89-2.38-2.48-7 1.7-6.28 3.58.61 6.74 3.65 8.87 6.36 5.31 6.72 8.56 15.77 9.78 24.19 2.19 14.19 0 28.22-8.72 43.77z"></path><path d="M266.19 136s-1.27-.72-1.28-1.27c18.41-15.65 37.89-40.23 33.29-72.53a95.3 95.3 0 0 0-7.36-25.55c-.95-2.17-7.79-14.46-8.24-16.24-.91-3.52 5.24-4.18 7.69-3.12 2.91 1.24 8.89 16.44 9.93 19.61a95.64 95.64 0 0 1 4.09 17.91 79.62 79.62 0 0 1-2.51 32.53 85.22 85.22 0 0 1-14.35 27.69 104.24 104.24 0 0 1-10.75 11.87c-1.97 1.91-8.95 7.66-10.51 9.1z"></path><path d="M273.3 45.36c-6.45-2.53-20.28-.51-10.46.4 4.39.33 10.12 1.76 12.8 5.6-10.42-2.76-15 8.87-8 15.28-1.55-4 1.9-5.91 5.44-5.4 3.74.55 7.05 4 9.29 6.78 6.12 7.56 9.23 18.55 6.31 28-.29 1 .28 1.73.55.82 7.91-28.04-4.82-47.25-15.93-51.48z"></path><path d="M288 90.7c0-1.3-.16-14.37-10.48-20.59-2-1.18-3.89-1.14-6-1.61-1.48-.33-2.2-2.07-.53-2.58a6.47 6.47 0 0 1 4.39.64 21.29 21.29 0 0 1 8 7c3.42 4.76 5.23 10.24 5 17.5z"></path><path d="M285.83 85.62c-.64-1.13-7.09-12.49-19.13-12.94-2.3-.09-3.95.88-6 1.48-1.46.43-2.92-.75-1.73-2a6.5 6.5 0 0 1 4.17-1.54 21.21 21.21 0 0 1 10.4 2.19c5.29 2.51 9.54 6.44 12.81 12.92z"></path><path d="M331.07 77.94c1.52-2.41 17-26.5 5.59-50.27-2.18-4.55-5.71-6.77-9-10.15-2.32-2.38-1.51-6.42 2.12-5.39 3.12.88 5.64 3.89 7.27 6.49 4.05 6.49 6.05 14.84 6.32 22.42.56 12.82-2.76 25.05-12 38z"></path><path d="M309.31 103.75s-1.05-.76-1-1.26c17.87-12.1 37.54-32 36.59-61.13a84.3 84.3 0 0 0-4-23.4c-.63-2-5.49-13.58-5.73-15.21-.46-3.23 5.06-3.2 7.14-2 2.45 1.38 6.27 15.45 6.89 18.36a84.43 84.43 0 0 1 1.8 16.28A71.4 71.4 0 0 1 345.66 64a76.12 76.12 0 0 1-15.44 23.2 93.63 93.63 0 0 1-10.7 9.5c-1.93 1.48-8.68 5.9-10.21 7.05z"></path><path d="M324.43 24c-5.48-2.87-17.94-2.43-9.32-.66 3.86.71 8.82 2.55 10.82 6.22-9-3.46-14.18 6.41-8.55 12.79-1-3.69 2.25-5.08 5.33-4.27 3.27.85 5.87 4.23 7.6 6.92 4.69 7.3 6.38 17.35 2.88 25.49-.37.83.07 1.55.39.76 9.74-24.16.3-42.43-9.15-47.25z"></path><path d="M333.07 65.64c.11-1.17 1.26-12.78-7.3-19.29-1.64-1.25-3.34-1.39-5.15-2-1.29-.44-1.74-2.05-.23-2.36a5.94 5.94 0 0 1 3.85 1 18.89 18.89 0 0 1 6.44 7 23.76 23.76 0 0 1 2.71 16z"></path><path d="M331.65 60.92c-.48-1.06-5.09-11.77-15.72-13.34-2-.29-3.59.39-5.48.73-1.34.24-2.52-1-1.34-2a5.79 5.79 0 0 1 3.84-1 18.73 18.73 0 0 1 9 3c4.47 2.73 7.84 6.63 10.12 12.71z"></path><path d="M691.79 822.64c8.53.94 94.61 9.7 129.4 81.4 6.65 13.73 5.27 26.27 7.09 40.37 1.28 10 12.33 15.68 16.76 5.15 3.8-9 1.39-20.64-1.69-29.42-7.72-21.81-23.67-42.24-41.15-57.16-29.24-25.44-64.43-40.63-112.47-43.15z"></path><path d="M589.77 825.56s-.17 3.92 1.06 4.77c62.24-19.48 146.37-28.53 213.46 28.51A255.53 255.53 0 0 1 852 912.41c3.58 5.3 21.79 38.61 25.18 42.21 6.77 7.15 17.13-5.93 18.24-13 1.36-8.43-24.74-44-30.47-50.91a259.35 259.35 0 0 0-35-35.14 215.25 215.25 0 0 0-77.83-41.15c-27.2-7.7-55.79-9.74-83.91-7.11a281.36 281.36 0 0 0-42.58 7.41c-7.09 1.73-30.27 9.4-35.86 10.84z"></path><path d="M807 940c-3.54 18.35-28.05 47-16 23.25 5.56-10.47 10.56-25.61 5.64-37.24-8.72 27.74-41.86 21.47-46.34-3.85 6.85 9.32 16.24 4.19 20.14-4.62 4.14-9.33 1.05-21.81-2.08-31-8.44-24.88-29-47.78-54.86-54.77-2.68-.73-3.55-3.15-1.08-2.42C787.8 851.75 813.25 908.48 807 940z"></path><path d="M724.65 841.08c2.93 1.93 32.55 21.07 31.85 53.57-.13 6.2-3 10.51-4.9 16-1.41 3.86 1.55 8 5.12 5 3-2.56 4.33-7.22 4.84-11 1.26-9.34-.76-19.74-4.32-28.4-5.9-14.65-15.84-26.7-32.81-36.54z"></path><path d="M733.1 853.33c1.62 3.1 18.3 34.19 2 62.31-3.12 5.36-7.68 7.76-12 11.58-3.09 2.7-2.5 7.74 2.08 6.83 3.91-.76 7.29-4.23 9.54-7.28 5.63-7.57 8.9-17.63 10-26.92 1.93-15.69-1-31-11-47.86z"></path><path d="M769.6 781.18c7.85-1 86.84-12.21 133.83 44.29 9 10.83 10.52 22.37 15.25 34.58 3.35 8.65 14.51 11.32 16.15.91 1.41-8.94-3.31-18.79-8-26-11.72-17.83-30.51-32.6-49.45-42.1-31.8-16.31-66.66-22.14-110.23-13.8z"></path><path d="M678.89 806.3s.71 3.56 2 4.05c51.43-31.2 124.76-57.87 197.41-21.62a236.09 236.09 0 0 1 54.58 37.44c4.37 3.94 28 29.73 31.87 32.21 7.63 4.91 14-9.08 13.45-15.72-.67-7.84-31.87-33.89-38.54-38.84a238.73 238.73 0 0 0-39.1-23.73 198.51 198.51 0 0 0-78.76-19.66c-26-.89-52.09 3.59-76.68 12.17a261 261 0 0 0-36.5 16c-5.98 3.2-25.04 15.19-29.73 17.7z"></path><path d="M898.6 860.77c.89 17.21-14.74 48.27-9.18 24.35 2.67-10.6 3.81-25.26-3.17-34.59-1.68 26.75-32.74 28.47-42.34 6.78 8.19 6.84 15.47.18 17-8.59 1.65-9.26-3.88-19.75-8.7-27.26-13.05-20.4-36.53-36.36-61.22-36.91-2.56-.06-3.86-2-1.49-1.93C862 786 897.29 831.2 898.6 860.77z"></path><path d="M803.09 790.42c3 1.09 33.78 11.68 40.35 40.93 1.25 5.59-.35 10.07-.88 15.37-.39 3.77 3.16 6.81 5.69 3.33 2.17-3 2.28-7.44 1.91-10.9-.94-8.64-5-17.51-10.14-24.47-8.52-11.82-20.07-20.4-37.44-25.48z"></path><path d="M813.35 799.52c2.15 2.43 23.94 26.57 15.52 55.35-1.59 5.5-5.16 8.63-8.2 13-2.17 3.09-.52 7.49 3.38 5.66 3.32-1.56 5.59-5.41 6.94-8.62 3.35-8 4.06-17.76 3-26.32-1.74-14.47-7.7-27.57-20.45-40.4z"></path><path d="M825.07 723.67c6.91-2.56 76.25-28.84 130.43 12.8 10.35 8 14.11 18.12 20.9 28.23 4.81 7.16 15.48 7.3 14.82-2.48-.55-8.4-6.83-16.36-12.57-21.89-14.27-13.78-34.35-23.34-53.46-28.08-32.16-8.28-65-6.43-102.78 10z"></path><path d="M748 765s1.36 3.08 2.64 3.27c40.26-38.81 101.3-78 174.6-60a220.23 220.23 0 0 1 57.14 22.77c4.77 2.71 31.5 21.26 35.49 22.72 7.92 2.89 10.86-11.12 9-17-2.2-7-35.82-24.23-42.89-27.34a219.69 219.69 0 0 0-40.3-13.52 184.42 184.42 0 0 0-75.44-1.73c-23.82 4.52-46.51 13.93-67.06 26.72a241.28 241.28 0 0 0-29.82 22C766.54 747 751.69 761.76 748 765z"></path><path d="M958.34 769.46c4.32 15.43-3.49 46.79-3.35 23.95.25-10.16-1.72-23.68-10-30.72 4 24.61-23.87 32.52-37 14.83 8.83 4.51 14.07-3 13.67-11.27-.39-8.74-7.55-17.12-13.46-23-16-15.84-40.57-25.5-63.07-21-2.33.47-3.91-1-1.74-1.43 66.46-11.65 107.72 22.09 114.95 48.64z"></path><path d="M857.34 725.21c3 .35 33 3.67 45 28.85 2.28 4.81 1.74 9.2 2.35 14.12.41 3.51 4.26 5.53 5.84 1.86 1.35-3.15.54-7.21-.51-10.28-2.61-7.64-8.13-14.85-14.19-20.12-10.13-9-22.38-14.39-39.16-15.44z"></path><path d="M868.52 731.35c2.42 1.77 27.12 19.2 25.38 47-.32 5.32-2.91 8.9-4.77 13.5-1.34 3.25 1.06 6.9 4.22 4.43 2.71-2.09 3.95-6 4.53-9.22 1.41-8 0-16.94-2.69-24.47-4.55-12.77-12.63-23.44-26.82-32.46z"></path><path d="M873.23 650.9c5.71-3.72 62.9-41.51 120.21-15 10.95 5.08 16.4 13.47 24.57 21.2 5.79 5.5 15.44 3.45 12.87-5.24-2.2-7.45-9.49-13.36-15.79-17.19-15.68-9.5-35.71-14-53.9-14.43-30.69-.93-59.91 7.41-90.64 30z"></path><path d="M812.12 703.85s1.86 2.49 3 2.4c28.4-43.18 75.47-90.92 145.24-89.58a202.94 202.94 0 0 1 56.14 8.91c4.85 1.46 32.73 12.74 36.61 13.25 7.74 1 7.54-12.22 4.65-17.15-3.41-5.84-37.23-14.55-44.22-15.94a205.41 205.41 0 0 0-39.1-4 170.3 170.3 0 0 0-68.37 13.79 182 182 0 0 0-55 37.71 224.61 224.61 0 0 0-22.41 25.91c-3.46 4.69-13.83 21-16.54 24.7z"></path><path d="M1002.7 665.09c7 13 6.36 42.88 1.86 22.27-1.85-9.2-6.37-21-15.23-25.66 8.57 21.37-14.91 34.16-30.35 20.88 8.87 2.28 12.06-5.58 10-13-2.13-7.8-10.3-13.9-16.8-17.94-17.66-11-41.77-14.75-61.13-6.07-2 .89-3.76-.15-1.87-.94 57.54-24.04 101.6-2 113.52 20.46z"></path><path d="M902.64 645.72c2.76-.28 30.53-3.4 46.41 16.89 3 3.86 3.44 7.92 5 12.25 1.09 3.07 5 4.11 5.65.47.57-3.11-1-6.61-2.55-9.16-3.91-6.36-10.36-11.74-16.89-15.25-11-6-23.1-8.43-38.45-6z"></path><path d="M914 649c2.55 1.09 28.37 11.8 32.46 37.22.78 4.87-.83 8.62-1.57 13.15-.53 3.2 2.36 6 4.71 3.15 2-2.44 2.34-6.26 2.21-9.25-.35-7.47-3.41-15.29-7.41-21.52-6.68-10.59-16.14-18.57-30.77-23.82z"></path><path d="M922.69 565.46c4.29-4.17 47.12-46.45 101-33.34 10.3 2.5 16.42 8.8 24.78 14.08 5.93 3.73 13.89.34 10.2-6.71-3.17-6-10.45-9.91-16.53-12.12-15.12-5.53-33.15-6-48.89-3.27-26.59 4.42-50.34 16.57-73 41.21z"></path><path d="M879.05 621.48s2 1.82 3 1.54c17.13-42 49.55-91.16 109.87-101.87a178.19 178.19 0 0 1 49.88-1.87c4.42.43 30.36 5.41 33.81 5.2 6.82-.46 4.4-11.82 1.08-15.58-3.94-4.45-34.56-6.22-40.81-6.2a179.26 179.26 0 0 0-34.37 3.2A149.9 149.9 0 0 0 945 529.42a159.56 159.56 0 0 0-41 41.86 197.54 197.54 0 0 0-14.9 26.12c-2.18 4.6-8.35 20.43-10.05 24.08z"></path><path d="M1036.63 555.68c8.27 10 12.79 35.85 5.39 18.85-3.15-7.61-9.06-17-17.48-19.51 11 17-7 32-22.61 23.14 8 .46 9.45-6.84 6.45-12.85-3.16-6.35-11.23-10.22-17.52-12.61-17.08-6.47-38.49-5.59-53.69 5.17-1.58 1.13-3.25.51-1.76-.48 45.41-30.53 87.13-19.04 101.22-1.71z"></path><path d="M947.13 556c2.33-.71 25.73-8.12 42.86 6.64 3.27 2.83 4.32 6.26 6.37 9.72 1.46 2.45 5 2.71 4.94-.55 0-2.77-1.95-5.52-3.75-7.45-4.45-4.83-10.91-8.35-17.13-10.28-10.48-3.32-21.35-3.32-34.13 1.41z"></path><path d="M957.45 556.89c2.39.51 26.44 5.34 34.28 26.55 1.51 4 .77 7.56.89 11.58.09 2.86 3 4.77 4.59 1.91 1.32-2.44 1-5.78.33-8.34-1.57-6.37-5.52-12.58-10-17.27-7.57-8-17.07-13.25-30.55-15.28z"></path><path d="M939.57 483.47c3.19-4.77 35-53.17 88.39-51.63 10.21.31 17.23 5 26.16 8.31 6.31 2.32 13.13-2.46 8.25-8.38-4.2-5-11.82-7.2-18-8.09-15.34-2.17-32.41 1-46.67 6.73-24.16 9.49-44.08 25.68-60.45 53.4z"></path><path d="M909.7 544.94s2.28 1.33 3.18.86c7.69-43 28.38-95.74 83-117.91a171.16 171.16 0 0 1 46.6-11.76c4.24-.48 29.66-1 32.86-1.88 6.32-1.8 1.77-12-2.12-14.87-4.58-3.4-33.76 1.07-39.66 2.33a173.72 173.72 0 0 0-31.69 9.89 144.3 144.3 0 0 0-48.53 33.47 153.75 153.75 0 0 0-30.21 47.62 191.59 191.59 0 0 0-8.79 27.56c-1.13 4.75-3.75 20.92-4.64 24.69z"></path><path d="M1044.87 451.44c9.8 7.77 19.22 31.2 8.86 16.68-4.5-6.54-11.94-14.21-20.37-14.89 13.78 13.78-.21 31.51-16.63 26.34 7.65-1.2 7.52-8.35 3.48-13.41-4.25-5.34-12.61-7.37-19-8.35-17.38-2.69-37.35 2.44-49.5 15.62-1.26 1.36-3 1.14-1.77-.11 36.63-37.83 78.21-35.38 94.93-21.88z"></path><path d="M960.7 469.68c2-1.16 22.58-12.8 41.66-2.34 3.65 2 5.32 5 7.95 7.87 1.86 2 5.23 1.56 4.54-1.51-.57-2.6-3-4.8-5-6.26-5.15-3.65-12-5.69-18.19-6.23-10.52-1-20.76 1.12-31.86 8.14z"></path><path d="M970.59 468.46c2.34 0 25.94-.29 37.59 18.1 2.22 3.51 2.22 7 3.15 10.74.65 2.66 3.83 3.88 4.7.88.77-2.57-.25-5.64-1.37-7.92-2.74-5.68-7.7-10.75-12.9-14.26-8.71-6-18.71-9.05-31.82-8.27z"></path><path d="M942.64 401.17c2.05-4.86 22.37-53.91 70.64-61.72 9.24-1.49 16.37 1.53 25 2.95 6.1 1 11.39-4.49 6-8.95-4.64-3.82-11.88-4.45-17.59-4.19-14.17.7-29 6.48-40.84 14.12-20.09 12.7-35.24 30.7-45.18 58.48z"></path><path d="M926.37 461.63s2.28.79 3 .23c-.49-40 9-91.06 54.36-120.45a157.78 157.78 0 0 1 39.9-18.62c3.74-1.15 26.54-6 29.26-7.36 5.38-2.7-.49-11.11-4.47-13-4.73-2.27-30.2 6.79-35.28 8.95a158.34 158.34 0 0 0-26.83 14.38 131.86 131.86 0 0 0-37.89 38.49 140.73 140.73 0 0 0-19 48 174.37 174.37 0 0 0-3.16 26.35c-.17 4.51.26 19.5.11 23.03z"></path><path d="M1031.87 354.15c10.16 5.31 22.69 24.77 10.86 13.5-5.17-5.12-13.2-10.73-20.9-9.88 14.76 10 5.23 28.38-10.44 26.55 6.69-2.39 5.34-8.81.83-12.64-4.74-4.09-12.62-4.47-18.54-4.25-16.11.59-33.2 8.65-41.87 22.61-.9 1.45-2.47 1.53-1.61.2 26.46-40.38 64.29-45.35 81.67-36.09z"></path><path d="M959.26 385.1c1.65-1.38 18.13-15.42 37.1-9.29 3.63 1.18 5.65 3.6 8.52 5.71 2 1.5 5 .49 3.82-2.15-1-2.25-3.48-3.8-5.6-4.77a35.12 35.12 0 0 0-17.44-2.46c-9.66.86-18.49 4.59-27.26 12.86z"></path><path d="M968 382.28c2.1-.4 23.32-4.73 37 9.83 2.6 2.77 3.2 5.88 4.69 9.11 1 2.29 4.12 2.83 4.38 0 .24-2.44-1.2-5-2.6-6.89a35.2 35.2 0 0 0-14.07-10.6c-8.87-3.9-18.4-4.9-30.07-1.94z"></path><path d="M935.37 332.12c1-4.65 10.89-51.6 52.48-66.58 8-2.86 14.78-1.36 22.66-1.53 5.59-.12 9.38-5.88 3.82-8.94-4.76-2.63-11.29-2-16.31-.79-12.48 3-24.69 10.57-33.94 19.33-15.74 14.63-26.18 33.14-30.39 59.47z"></path><path d="M931 388.54s2.16.34 2.69-.29c-7.09-35.48-7.13-82.4 28.27-116A142.61 142.61 0 0 1 994.27 249c3.13-1.65 22.57-9.75 24.76-11.41 4.33-3.31-2.28-9.78-6.13-10.83-4.57-1.23-25.7 11.07-29.86 13.82a143.91 143.91 0 0 0-21.43 17.23 119.09 119.09 0 0 0-27.26 40.51 126.83 126.83 0 0 0-8.85 45.84 157 157 0 0 0 1.57 23.93c.58 4.06 3.43 17.29 3.93 20.45z"></path><path d="M1006.81 275.52c9.9 3 24.26 18.22 11.88 10.17-5.45-3.68-13.5-7.33-20.2-5.29 14.77 6.43 9.38 24.34-4.85 25.33 5.53-3.24 3.27-8.71-1.37-11.38-4.89-2.84-11.95-1.86-17.2-.68-14.2 3.2-28 13.2-33.42 27-.55 1.44-1.94 1.77-1.38.45 16.78-40.22 49.56-50.93 66.54-45.6z"></path><path d="M947.45 315.08c1.24-1.5 13.54-16.71 31.42-14.42 3.42.43 5.61 2.26 8.51 3.65 2 1 4.5-.39 3-2.53-1.23-1.84-3.73-2.82-5.76-3.31a31.72 31.72 0 0 0-15.92.71c-8.42 2.38-15.64 7.17-22.08 15.93z"></path><path d="M954.7 311.14c1.81-.71 19.93-8.08 34.47 2.58 2.78 2 3.82 4.69 5.69 7.31 1.31 1.85 4.12 1.83 3.88-.76-.18-2.2-1.9-4.26-3.44-5.68a32 32 0 0 0-14.3-7.08c-8.53-2-17.17-1.3-27 3.29z"></path><path d="M916.39 262.4c.2-4.76 1.77-52.72 40.1-74.69 7.34-4.21 14.34-3.92 22.06-5.47 5.48-1.08 8.21-7.42 2.21-9.46-5.15-1.75-11.48 0-16.21 2.07-11.76 5.09-22.47 14.7-30.06 24.93-12.94 17.14-20 37.2-19.58 63.87z"></path><path d="M921.9 318.73s2.17-.05 2.6-.78c-13.16-33.69-21.37-79.89 7.62-119.17a142.38 142.38 0 0 1 27.82-28.46c2.81-2.17 20.54-13.51 22.4-15.53 3.7-4-3.94-9.25-7.92-9.6-4.72-.42-23.39 15.36-27 18.8a143.36 143.36 0 0 0-18.12 20.71 119.43 119.43 0 0 0-19.8 44.61 127.52 127.52 0 0 0-.73 46.7 155.27 155.27 0 0 0 5.72 23.27c1.27 3.88 6.39 16.41 7.41 19.45z"></path><path d="M976.9 194.21c10.29 1.26 27.07 13.74 13.48 8-6-2.66-14.58-4.86-20.83-1.7 15.68 3.77 13.47 22.34-.36 25.79 4.89-4.14 1.7-9.14-3.32-11-5.32-1.93-12.12.26-17.06 2.34-13.43 5.61-25.32 17.87-28.2 32.43-.31 1.51-1.61 2.09-1.3.7 9.53-42.59 39.94-58.84 57.59-56.56z"></path><path d="M925.34 243.52c.95-1.69 10.41-18.82 28.43-19.68 3.43-.16 5.92 1.25 9 2.12 2.2.62 4.37-1.16 2.56-3-1.53-1.59-4.17-2.11-6.26-2.25a31.81 31.81 0 0 0-15.54 3.46c-7.88 3.83-14.17 9.78-19 19.55z"></path><path d="M931.8 238.37c1.65-1 18.21-11.42 34.39-3.47 3.08 1.53 4.58 3.95 6.86 6.22 1.62 1.61 4.38 1.09 3.7-1.41-.58-2.14-2.61-3.87-4.38-5a31.84 31.84 0 0 0-15.29-4.48c-8.74-.47-17.12 1.72-26 7.94z"></path><path d="M880.35 195.82c-.66-4.58-7.6-50.78 25.25-78.59 6.28-5.32 13-6.27 20.17-9.11 5-2 6.55-8.55.44-9.46-5.24-.77-11 2-15.16 4.83-10.37 7-18.92 18-24.39 29.17-9.38 18.71-12.62 39.16-7.5 64.62z"></path><path d="M895.53 248.8s2.08-.43 2.36-1.19c-18.53-30-34.52-72.75-13.68-115.49A138.47 138.47 0 0 1 905.85 100c2.3-2.57 17.28-16.55 18.7-18.82 2.84-4.48-5.4-8.16-9.27-7.79-4.59.42-19.68 18.84-22.55 22.76a139.83 139.83 0 0 0-13.68 23 116.21 116.21 0 0 0-11.11 46.22 123.82 123.82 0 0 0 7.52 44.84 152.08 152.08 0 0 0 9.54 21.27c1.92 3.52 9 14.58 10.53 17.32z"></path><path d="M926.29 119.87c10.08-.6 28.35 8.38 14.3 5.26-6.22-1.51-14.81-2.09-20.24 2 15.69.85 16.84 19 4.2 24.76 4-4.83 0-9.06-5.12-9.92-5.43-.93-11.54 2.37-15.91 5.24-11.89 7.75-21.11 21.58-21.31 36 0 1.48-1.16 2.26-1.11.88 1.62-42.39 27.9-63.29 45.19-64.22z"></path><path d="M885.6 176.16c.61-1.78 6.66-19.85 23.75-23.83 3.26-.76 5.9.14 9 .43 2.21.22 4-1.89 1.92-3.35-1.76-1.25-4.37-1.29-6.4-1.06a31.09 31.09 0 0 0-14.27 6.06c-6.88 5.05-11.85 11.86-14.73 22.06z"></path><path d="M890.87 170.1c1.41-1.26 15.44-14.14 32.33-9.37 3.23.92 5.08 3 7.66 4.74 1.84 1.26 4.4.26 3.3-2-.93-2-3.19-3.24-5.08-4a31 31 0 0 0-15.43-1.61c-8.45 1.1-16.09 4.66-23.54 12.18z"></path><path d="M839.14 142.36c-1.15-3.55-13-39.27 9.23-65.86 4.26-5.08 9.49-6.76 14.76-10 3.72-2.28 4-7.7-.94-7.58-4.27.11-8.44 3.13-11.38 5.93-7.27 6.94-12.54 16.91-15.36 26.51-4.87 16.13-4.63 32.8 2.93 52.32z"></path><path d="M858.46 182.34s1.6-.63 1.72-1.29c-18.83-21.21-37.4-53-26.74-89.78a112 112 0 0 1 12.75-28.49c1.47-2.36 11.44-15.52 12.27-17.52 1.64-3.95-5.41-5.73-8.44-4.9-3.58 1-13 17.65-14.75 21.16a111.75 111.75 0 0 0-7.71 20.16 93.53 93.53 0 0 0-2.47 38.21 100.15 100.15 0 0 0 12.13 34.56A123.52 123.52 0 0 0 847.74 170c1.99 2.54 9.16 10.37 10.72 12.34z"></path><path d="M865.17 75.77c7.9-1.88 23.64 2.76 12.07 2.19-5.15-.33-12 .38-15.79 4.4 12.57-1.49 16 12.79 6.73 19.08 2.48-4.38-1.22-7.19-5.43-7.16-4.43 0-8.83 3.45-11.91 6.33-8.36 7.79-13.78 20-12 31.54.18 1.19-.62 2-.77.84-4.49-33.9 13.48-54.11 27.1-57.22z"></path><path d="M840.6 126c.23-1.5 2.56-16.67 15.57-22.2 2.5-1 4.71-.68 7.21-.88 1.79-.13 2.9-2 1.06-2.92-1.57-.75-3.63-.43-5.21 0a25 25 0 0 0-10.51 6.77c-4.76 5-7.77 11-8.64 19.52z"></path><path d="M844 120.5c.94-1.19 10.31-13.35 24.37-11.87 2.69.28 4.44 1.66 6.74 2.71 1.63.73 3.52-.41 2.34-2.06-1-1.42-3-2.14-4.58-2.49a24.81 24.81 0 0 0-12.47.86c-6.56 2-12.14 5.9-17 12.89z"></path><path d="M792.71 104.64c-1.39-2.87-15.66-31.57-.07-56.66 3-4.78 7.18-6.83 11.24-10.19 2.87-2.38 2.47-7-1.7-6.28-3.59.61-6.76 3.65-8.89 6.36-5.31 6.72-8.55 15.77-9.77 24.19-2.18 14.19 0 28.22 8.71 43.77z"></path><path d="M813.81 136s1.26-.72 1.29-1.27c-18.42-15.65-37.89-40.23-33.29-72.53a95.26 95.26 0 0 1 7.34-25.55c1-2.17 7.79-14.46 8.24-16.24.91-3.52-5.24-4.18-7.69-3.12-2.91 1.24-8.89 16.44-9.92 19.61a96.43 96.43 0 0 0-4.09 17.91 79.62 79.62 0 0 0 2.5 32.53 85 85 0 0 0 14.36 27.69 105.09 105.09 0 0 0 10.74 11.87c1.97 1.91 8.95 7.66 10.52 9.1z"></path><path d="M806.69 45.36c6.45-2.53 20.28-.51 10.46.4-4.39.33-10.12 1.76-12.79 5.6 10.42-2.76 15 8.87 8 15.28 1.57-4-1.9-5.91-5.44-5.4-3.74.55-7 4-9.29 6.78-6.11 7.56-9.22 18.55-6.31 28 .31 1-.28 1.73-.53.82-7.94-28.04 4.79-47.25 15.9-51.48z"></path><path d="M792 90.7c0-1.3.18-14.37 10.49-20.59 2-1.18 3.88-1.14 6-1.61 1.49-.33 2.2-2.07.55-2.58a6.49 6.49 0 0 0-4.4.64 21.39 21.39 0 0 0-8.05 7c-3.42 4.76-5.23 10.24-5 17.5z"></path><path d="M794.16 85.62c.65-1.13 7.09-12.49 19.13-12.94 2.3-.09 4 .88 6 1.48 1.46.43 2.94-.75 1.73-2a6.45 6.45 0 0 0-4.15-1.54 21.24 21.24 0 0 0-10.42 2.19c-5.29 2.51-9.53 6.44-12.81 12.92z"></path><path d="M748.92 77.94c-1.52-2.41-17-26.5-5.58-50.27 2.17-4.55 5.71-6.77 9-10.15 2.32-2.38 1.53-6.42-2.12-5.39-3.12.88-5.62 3.89-7.26 6.49-4.06 6.49-6.07 14.84-6.33 22.42-.56 12.82 2.77 25.05 12 38z"></path><path d="M770.68 103.75s1.06-.76 1-1.26c-17.88-12.1-37.56-32-36.61-61.13a84.67 84.67 0 0 1 4-23.4c.64-2 5.51-13.58 5.73-15.21.46-3.23-5.06-3.2-7.13-2-2.45 1.38-6.28 15.45-6.9 18.36A87.68 87.68 0 0 0 729 35.39 71.23 71.23 0 0 0 734.34 64a76.33 76.33 0 0 0 15.45 23.2 92.59 92.59 0 0 0 10.68 9.5c1.93 1.48 8.68 5.9 10.21 7.05z"></path><path d="M755.57 24c5.48-2.87 17.94-2.43 9.31-.66-3.86.71-8.82 2.55-10.8 6.22 9-3.46 14.18 6.41 8.55 12.79 1-3.69-2.27-5.08-5.35-4.27-3.27.85-5.87 4.23-7.58 6.92-4.71 7.3-6.4 17.35-2.89 25.49.37.83-.08 1.55-.4.76-9.73-24.16-.29-42.43 9.16-47.25z"></path><path d="M746.92 65.64c-.11-1.17-1.25-12.78 7.3-19.29 1.64-1.25 3.34-1.39 5.15-2 1.29-.44 1.74-2.05.23-2.36a5.88 5.88 0 0 0-3.83 1 18.86 18.86 0 0 0-6.46 7c-2.59 4.55-3.65 9.6-2.71 16z"></path><path d="M748.35 60.92c.47-1.06 5.08-11.77 15.73-13.34 2-.29 3.59.39 5.46.73 1.34.24 2.52-1 1.36-2a5.87 5.87 0 0 0-3.86-1 18.8 18.8 0 0 0-9 3c-4.47 2.73-7.84 6.63-10.12 12.71z"></path></g></g></g></svg>