<svg xmlns="http://www.w3.org/2000/svg" width="750.9" height="919.1" viewBox="-0.031033024191856384 0.0067462921142578125 750.8709716796875 919.14501953125" style=""><g><title>summerlic166_236010426</title><g data-name="Layer 2"><path d="M477.1 84.2c6.7-26.8-2.6-56.4-26-71-17.9-11.1-49.9-23.9-82 1.8-64.3 51.4-89.9 23.8-89.9 23.8s-28.7-36.6-55-15.4S199.4 46 177 36.1s-76.6 16.1-31.5 59.7 80.4 19.1 80.4 19.1c9.3-3.8 28-12.6 54.1 17.1 48 54.3 133.2 15.1 133.2 15.1s49.4-4.3 63.9-62.9z" fill="#212135"></path><path d="M28.1 484.1s75.2 78.8 112 133.2 64.9 73.6 64.9 73.6l-1.1-1.6c24.8 9 39.3-80-1.2-115.6-26-22.9-60.7-44.9-101.9-61.3s-36.7-9.3-33.6-25.4c3.8-19.5-17.6-18.8-17.6-18.8s-8.6 1.9-18.4-5.5-27.8-18.8-31-16.4 27.9 37.8 27.9 37.8z" fill="#a03210"></path><path d="M441.9 120.9s49.9-13.4 41-57-40-75.2-82.8-59.3-59.5 77.1-41.2 96.4c33.4 35.2 83 19.9 83 19.9z" fill="#212135"></path><path d="M427 380.5S473.9 502.7 288.9 652c-172.3 139-51.8-111-55.7-109.9 0 0 19.3-75.6 60.5-112.1S427 380.5 427 380.5z" fill="#a03210"></path><path d="M184.6 672.4c14.3-11.5 107-124.3 130.7-225.5 0 0 16.9-20.2 18.4-34.5 4.3-41-10.7-102.5-10.7-102.5s-74.3-14.2-109.8 33.4c-30.5 40.8-78.3 177.1-83.9 301.8-11.7 16.5 20.6 42.6 55.3 27.3z" fill="#ad4225"></path><path d="M203.1 358.2s96-20 112.2 88.7c0 0 32.3-27.6 115-2 1.4-16.4 5.6-49 1.3-64.5 0 0-77.2-13.6-114.8-71.4 0 0-83-14.5-113.7 49.2z" fill="#ff9c94"></path><path d="M432.4 384.3s64.2-45.1 75.5-109.2l5.2-5.6s-85.2-118.5-191-64.7-1.1 7.3-1.1 7.3l2.7 42.2s1.2 27.2 1.9 49 .4 3.1.4 3.1v3.8l-9.1-1.2s34.9 61.1 115.5 75.3z" fill="#ad4225"></path><path d="M341.2 217.8s-23.8 48.8-115.3 69.8c-43 9.9-27.3-52.2-27.3-52.2s34-25 104.7-81.8c19.9-16 63.2 8.6 63.2 8.6z" fill="#a03210"></path><path d="M503.7 141.9s-21 2.5-66.4-.3c-34.6-2.2-37.9-.9-37.9-.9l-61.2 13.2 6.6 100.1 115.3 46.2 46.3-17.3 11.1-16.3 1.9 1.2-3.1-110z" fill="#a03210"></path><path d="M489.8 322.6s-53.3-33.9-165.9-42.4c0 0-11.9-26.9 4.1-57.8 0 0 13.8-8.7 37.4-5s53.6 42 53.6 42 74.6-63.7 92.9-9.4c0 0 4.7 48-22.1 72.6z" fill="#ff9c94"></path><path fill="#f9ca6b" d="M350 151.7l5.2 86.1-18.3 11.7 8.2-97.2 4.9-.6z"></path><path fill="#f9ca6b" d="M501.7 272.8L498.8 142l-5.8.1-9.1 121 17.8 9.7z"></path><path d="M558.8 379s-47.6-51.6-48.6-152-10.8-79.4-10.8-79.4l4.3-5.7c2.9-1.7 64.6 6.6 82.7 146.3 0 0 18.5 99.6-27.6 90.8z" fill="#a03210"></path><path d="M74.2 248.1s79.9-9.5 129-14.8c10-1 11.4 55.3 11.4 55.3s-54.8 4.6-129.7-23c0 0-12.8.2-15.6 1.1s4.9-18.6 4.9-18.6z" fill="#a03210"></path><path d="M390.6 107.2c7 14.5 21.9 21.9 33.4 16.4s15.2-21.8 8.2-36.3-21.9-21.8-33.4-16.3-15.1 21.7-8.2 36.2z" fill="#db6035"></path><path d="M725.1 281.5c5.7-5.9-65.7 95.4-155.4 94.3 0 0-71.6-49.1 13.7-66.4 64.2-13 80-8.1 123.4-31.8 0 0 23-19.1 18.3 3.9z" fill="#a03210"></path><path d="M706.7 279.1s5.8-27.8 10.5-31.3-1.1 9.1 0 13.9 15.8-12.5 15.8-12.5 7.7-16.4 9.2-11.7-.1 5.8-.1 5.8 6.8-12.2 7.7-3.8c.3 3.8-3.8 12.1-3.8 12.1a27.1 27.1 0 0 1 4.1-6.9c1.7-2.2 1 10.3-7.8 20-2.7 2.9-4.9 5.7-6.8 8.1a134.3 134.3 0 0 1-20 20.6l-.5.4z" fill="#a03210"></path><path d="M40.2 265s-15-7.1-17.7-10.1.9-2.7.9-2.7-5.5-2-5.3-4a24.9 24.9 0 0 1 1.7-4.2s-1.9-4 1.4-3.5c.3 0-1.1-1.9-1.2-2.3s-.1-3.2 4.8-1.5 19.2 1.3 26.7 3.9c2.9 1-5.7-3.8-5.7-3.8s-9.2-1.6-10-4.1 3.3-1.6 7.2-1.7c6.8-.1 15.3 1.9 21 5.7 3.5 2.3 7.3 6.7 11.8 11.2 6.5 6.6 4.9 12.1.3 15-11.2 6.9-35.9 2.1-35.9 2.1z" fill="#a03210"></path><path d="M399 140.7s1.6-2 2.8-20.4c.6-9.4 37.5-27.8 37.5-27.8s1.1 40.2 10.1 50.9c2.5 3-49.5 5.3-50.4-2.7z" fill="#a03210"></path><path d="M383.5 96.6c1.7 5.9 5.6 10 8.8 9.1s4.3-6.4 2.6-12.3-5.6-10-8.8-9.1-4.3 6.4-2.6 12.3z" fill="#a03210"></path><path d="M388.4 73.6c-4.4 21.7 3.7 52.1 19.5 55.2S440 117 444.4 95.3s-4.9-42-20.6-45.2-31 1.7-35.4 23.5z" fill="#ad4225"></path><path d="M440.8 96c-1.2 6 .4 11.5 3.6 12.1s6.8-3.7 8-9.7-.4-11.5-3.6-12.2-6.8 3.8-8 9.8z" fill="#ad4225"></path><path d="M418.1 76.7c7-2.2 13.5-3.4 18.4-2.1 4.7-1.6-9.5-5.9-19.1-.6-6.2 3.3.7 2.7.7 2.7z" fill="#212135"></path><path d="M404.5 76c-6.4-3.5-8.3-5.2-14.2-3.1-4.3-2.5 6.9-6.5 15.4.5 5.5 4.4-1.2 2.6-1.2 2.6z" fill="#212135"></path><path d="M422.7 107.3c2-2.1-8.9 2.1-24.6-3.1a13.7 13.7 0 0 0 10.2 10.5c8.9 2.4 14.4-7.4 14.4-7.4z" fill="#f9e8d4"></path><path d="M403.9 81.8c5.7-.8-6.9-7.4-14.4-1.1-.6.3 3 3.1 3.6 2.8s4.9-.9 10.8-1.7z" fill="#212135"></path><path d="M419.2 82.8c-4.9-3.3 8.7-6.6 15 1.5.5.4-3.6 2.5-4.1 2s-5.1.5-10.9-3.5z" fill="#212135"></path><path d="M388.2 73.1s19-15.7 41.6-20.6c-1.3-1.2 14.3 13.4 13.6 39.2-.3 12.4 20-44.7-18.8-52.6s-36.4 34-36.4 34z" fill="#212135"></path><path d="M411.8 76.9s1.2 14.5.9 19.7c0 0-6.6 2.6-8.1-1.5s7.2-18.2 7.2-18.2z" fill="#a03210"></path><g><path d="M512 257.7c-5.6-.3-7 5.1-7 5.1 2.5 2.2 4.2 2.7 5.3 2.5-5.6 4.8-3.9 7.5-3.9 7.5a11 11 0 0 0 4.8 0c.6-5.9.8-11.1.8-15.1z" fill="#f9ca6b"></path><path d="M487.3 269.9c-3.7-4.4-9-2.4-9-2.4 6.9-3.6 5.5-11.5 5.5-11.5-11.5-1.1-10.3 4.7-10.3 4.7-5.6-5.6-10.4-.4-10.4-.4 1.1 3.2 2.4 4.4 3.5 4.8-7.3 1.5-7.2 4.7-7.2 4.7 5.2 4.3 9.7 1.8 9.7 1.8-4.3 12.3 4.6 12.6 4.6 12.6 8.8-6.9.5-12.5.5-12.5 9.1 4.9 13.1-1.8 13.1-1.8z" fill="#f9ca6b"></path><path d="M426 278c-5.1-10-12.1-2.8-12.1-2.8 6.4-8.1.6-13.3.6-13.3-5 2.9-4 8.5-4 8.5-2.3-7.5-10.3-7.6-10.3-7.6-3.2 11.2 2.7 11 2.7 11-6.5 4.5-2.3 10.2-2.3 10.2 3.3-.5 4.8-1.6 5.4-2.6.1 7.4 3.2 7.9 3.2 7.9 5.2-4.2 3.6-9.2 3.6-9.2 11.3 6.5 13.2-2.1 13.2-2.1z" fill="#f9ca6b"></path><path d="M386 233.4c-12.8 2.9-8.3 10.5-8.3 10.5 10.6 3.8 10.8-6.2 10.8-6.2.8 10.4 8.6 10.1 8.6 10.1 1.7-5.4-2.8-8.9-2.8-8.9a10 10 0 0 0 7.1 1.3 130.1 130.1 0 0 0-19.1-15.6c-.7 6.4 3.7 8.8 3.7 8.8z" fill="#f9ca6b"></path><path d="M332.1 274.5c10.1-4.9 3.1-12 3.1-12 8 6.6 13.2.9 13.2.9-2.7-5.1-8.3-4.3-8.3-4.3 7.5-2 7.8-10.1 7.8-10.1-11.1-3.4-11.1 2.5-11.1 2.5-4.3-6.6-10.1-2.5-10.1-2.5.5 3.3 1.5 4.8 2.4 5.4-7.4-.1-7.9 3.1-7.9 3.1 4.1 5.3 9.1 3.8 9.1 3.8-6.8 11.1 1.8 13.2 1.8 13.2z" fill="#f9ca6b"></path><path d="M447.8 249.7c10.9 2.4 9.9-7.5 9.9-7.5 2.1 10.1 9.8 8.8 9.8 8.8 1-5.6-3.9-8.4-3.9-8.4 7.2 3 12.3-3.2 12.3-3.2-6.5-9.5-10.2-4.8-10.2-4.8a12.2 12.2 0 0 0-.2-3.4 122.6 122.6 0 0 0-12.9 5.6 8.4 8.4 0 0 0 2 1.4c-12.3 4.5-6.8 11.5-6.8 11.5z" fill="#f9ca6b"></path><path d="M381 277.5c7.8-1.4 6.3-8.3 6.3-8.3-3.2-.9-5-.6-5.9.1 3-6.8.3-8.6.3-8.6-6.5 1.7-7.1 6.9-7.1 6.9-7.5-10.6-12.9-3.6-12.9-3.6.5 11.2 9.9 7.6 9.9 7.6-9.3 4.7-6.1 11.8-6.1 11.8 5.7-.5 7.2-6 7.2-6a10.2 10.2 0 0 0 3.2 9l4.1.7c5.8-7.6 1-9.6 1-9.6z" fill="#ff9c94"></path><path d="M345.1 226.5c2.1 5.3 7.8 5.2 7.8 5.2-7.8 1.2-9 9.1-9 9.1 10.5 4.7 11.2-1.1 11.2-1.1 3.5 7.1 9.7 3.8 9.7 3.8 0-3.4-.8-5-1.7-5.7 7.4 1 8.3-2.1 8.3-2.1-3.4-5.7-8.6-4.8-8.6-4.8 8.1-10.3-.1-13.4-.1-13.4-10.6 3.6-4.6 11.5-4.6 11.5-7-7.5-13-2.5-13-2.5z" fill="#ff9c94"></path><path d="M480.9 244.1c5 4.4 9.6 2.1 9.6 2.1-4.7 12.1 4.1 12.7 4.1 12.7 9.1-6.6.9-12.4.9-12.4 9 5.1 13.2-1.5 13.2-1.5-3.6-4.5-9-2.7-9-2.7a9 9 0 0 0 5.1-5.5 25.3 25.3 0 0 0-6.4-5.5c-3.7 1.2-3.2 4.1-3.2 4.1-5.4-5.7-10.4-.7-10.4-.7 1 3.2 2.3 4.5 3.3 4.9-7.3 1.3-7.2 4.5-7.2 4.5z" fill="#ff9c94"></path><path d="M504 281.5c3.4-7.2-3.1-10-3.1-10-2.6 2.2-3.4 3.8-3.4 4.9-3.8-6.3-6.8-5.1-6.8-5.1-2.3 6.3 1.6 9.7 1.6 9.7-13 .2-10.3 8.6-10.3 8.6 9.5 5.9 11.9-3.8 11.9-3.8-1.5 10.3 6.2 11.8 6.2 11.8 2.9-5-.8-9.4-.8-9.4a9.9 9.9 0 0 0 8.6 2.6c.6-2.4 1.2-4.8 1.7-7.1-2.7-4-5.6-2.2-5.6-2.2z" fill="#ff9c94"></path><path d="M462.4 289.5c-3-11.2-8-8.1-8-8.1 3.4-7.1-3.1-9.9-3.1-9.9-2.6 2.2-3.4 3.8-3.4 4.9-3.8-6.3-6.8-5.1-6.8-5.1-2.3 6.3 1.6 9.7 1.6 9.7-13 .2-10.3 8.6-10.3 8.6 9.5 5.9 11.9-3.8 11.9-3.8-1.5 10.3 6.2 11.8 6.2 11.8 2.8-5-.8-9.4-.8-9.4 5.7 5.3 12.7 1.3 12.7 1.3z" fill="#ff9c94"></path><path d="M423 262.7c4.8-3.1 3.5-8.6 3.5-8.6 2.7 7.3 10.7 6.9 10.7 6.9 2.5-11.3-3.3-10.8-3.3-10.8a8.7 8.7 0 0 0 3-4.1c-7.8 5.2-13.9 10-16.5 12.1a8.3 8.3 0 0 0 2.6 4.5z" fill="#ff9c94"></path><path d="M352.2 274.3a8.3 8.3 0 0 0-4.1 8.3l5.9.6a8.3 8.3 0 0 0-1.8-8.9z" fill="#f9ca6b"></path><path d="M337.9 275.2a17.6 17.6 0 0 0-.9 6.2l11.1 1.1c-2.4-7.2-10.2-7.3-10.2-7.3z" fill="#f9ca6b"></path><path d="M477.3 306.5c6.4-8.1.6-13.3.6-13.3-5 2.9-4.1 8.5-4.1 8.5-2.3-7.5-10.3-7.6-10.3-7.6-3.1 11.2 2.8 11 2.8 11a7.9 7.9 0 0 0-3.5 4.6c5.2 2.1 9.6 4 13.3 5.7a8.1 8.1 0 0 0 .1-4c11.3 6.5 13.2-2.1 13.2-2.1-5.2-10-12.1-2.8-12.1-2.8z" fill="#f9ca6b"></path><path d="M325.4 240.2c5.2-4.3 3.6-9.2 3.6-9.2 11.3 6.5 13.2-2.2 13.2-2.2-5.2-9.9-12.1-2.8-12.1-2.8a13.1 13.1 0 0 0 2.8-5.9 41.3 41.3 0 0 0-4.9 2.3 71.9 71.9 0 0 0-5.4 13.7c.8 3.8 2.8 4.1 2.8 4.1z" fill="#f9ca6b"></path></g><path d="M31.6 868.8s46.1-82 87.9-127.4 65.7-70.1 65.7-70.1l-45.5-36.2c-39-1.2-113.8 57.6-107.5 164.9-4.9 41.5.1 40.1-15.3 40.8-18.7.7-13.4 20.2-13.4 20.2s4.6 10.6 3.8 22.1 2.2 33.7 5.3 35.8c5.6 3.6 11.8-32.3 19-50.1z" fill="#ad4225"></path></g></g></svg>