<svg xmlns="http://www.w3.org/2000/svg" width="517.5" height="919.1" viewBox="-0.004563689231872559 0.02653549425303936 517.5045776367188 919.0738525390625" style=""><g><title>summerlic50_273483246</title><g data-name="Layer 2"><path d="M392 11.3c8.5 55.6 17.3 111.1 25.6 166.8 1.6 10.3 3.1 20.7 4.6 31.1q19.4 131.7 36.6 263.6c11.8 90.4 27.5 182.3 21.3 273.8 12.3 6.5 17.7 21.8 21.1 35s6 23.9 9.1 35.8 7.2 22.1 7.2 32.9c0 23-30 28.9-47 34.8a644.5 644.5 0 0 1-68.5 19.4 634.3 634.3 0 0 1-62.8 11c-10.8 1.3-21.6 2.4-32.5 3.2-8.6.6-17.7 1.3-25.1-4.2s-9.8-14.4-11.6-23.1-4.1-20-6.1-30-4.5-22-6.7-32.9c-1.8-8.9-4.5-18-1.4-26.9 1.5-4.2 4.7-7.1 6.5-11s.5-6.1-1.3-9.8c-4.3-9-9.1-17.8-13.5-26.8q-13.8-28.1-26.1-56.7c-17-39.4-32.1-79.6-46.2-120-27.9-80.4-53-161.7-79.5-242.5S39.8 172.3 1.7 95.4c-3.2-6.3-2.3-16.3 6.2-18.2 61.4-13.8 122.4-28.9 183.8-42.5l5.5-1.2c28.4-6.3 56.9-12.2 85.5-18l45.5-9.3C344.1 3 360.8 2.3 376.9.1a6.1 6.1 0 0 1 4.8 1.3c5.7.2 9.4 4.4 10.3 9.9z" fill="#ff745f"></path><path d="M392 11.3c8.5 55.6 17.3 111.1 25.6 166.8 1.6 10.3 3.1 20.7 4.6 31.1a273.9 273.9 0 0 1-40.5-.4c-57.3-5-112.5-30.7-147.9-76.8-21.2-27.7-35.2-63.1-36.6-98.5 28.4-6.3 56.9-12.2 85.5-18l45.5-9.3C344.1 3 360.8 2.3 376.9.1a6.1 6.1 0 0 1 4.8 1.3c5.7.2 9.4 4.4 10.3 9.9z" fill="#ffc75f"></path><path d="M184.9 113.7c-35 16.2-70.7 31.3-104.9 49.2-5 2.6-.9 11 4.4 8.9 35.4-13.8 69.8-30.6 104.5-46 7.4-3.4 3.4-15.6-4-12.1z" fill="#ffc75f"></path><path d="M228.3 190.7c-8.8 4.7-16.8 12.1-24.6 18.3s-16 12.9-23.8 19.5c-15.3 12.9-30.3 26.1-44.2 40.5-3.9 4.1 2.2 11.3 6.6 7.6 15.6-13.2 30.9-26.7 46.8-39.5q11.4-9.2 23.1-18c8.1-6.1 17.2-11.7 24.6-18.7 5.6-5.5-2.5-12.9-8.5-9.7z" fill="#ffc75f"></path><path d="M290.5 234.4c-11 13.5-19.7 29.7-29.1 44.3-4.7 7.1-9.3 14.3-13.9 21.4s-11.5 15-12.4 23.3a4.2 4.2 0 0 0 6.3 4.3c6.8-3.8 11.6-12.8 16-19.1l15.5-22.1c10-14.3 21.7-28.4 30.1-43.6 4.1-7.5-7.1-15.2-12.5-8.5z" fill="#ffc75f"></path><path d="M380.3 259.5a1003.3 1003.3 0 0 0-1.7 113.7c.3 6 9.2 5.5 9.3-.4.2-37.4 1.9-75 5-112.3.8-9.1-11.9-10.2-12.6-1z" fill="#ffc75f"></path><path d="M266.2 550.2c-8.6-2.3-15.4-6.4-19.3-14.8a27.2 27.2 0 0 1-2.3-11.9c.2-2.9 4-14.5 6.7-7.5a4.9 4.9 0 0 0 8.9.6c2.6-5.2.1-10.6-4.8-13.4s-12.9-1.4-17.3 3.5c-9 10.3-7.1 26.9-.8 37.9a38.8 38.8 0 0 0 13.3 13.7c6.6 3.9 15.6 3.6 21.5 8.6s8.9 15.5 4.8 22.7a11.6 11.6 0 0 1-8.1 5.5 23.2 23.2 0 0 1-6-.4c.8-2.1.3-4.5-2.1-6.4-5.2-4-13.1-1.5-13.4 5.7s6.6 11.5 12.2 13.3c15.2 4.8 30.4-6.2 32.2-21.6 2-17.5-9.3-31.1-25.5-35.5z" fill="#ffe6e1"></path><path d="M298 493.5c-2.5 1.4-3.3 4.9-2.6 7.5 8.8 29.7 15 60 21.8 90.1 1 4.8 8.4 3.1 8.2-1.5a334.6 334.6 0 0 0-4.4-37.4c16-3.3 27.2-19.5 21.9-36.1s-28.3-31.5-44.9-22.6zm20.5 45.3c-2.5-11.9-5.5-23.6-8.7-35.3 8.2.5 18.6 10.4 20.4 16.8 2.7 9.2-3.5 16.7-11.7 18.5z" fill="#ffe6e1"></path><path d="M387.3 469c-10.2 1.3-20.3 5.7-29.8 9.6a5 5 0 0 0-3 3.6 3.4 3.4 0 0 0-.6 2.7c4.5 31.2 10.7 62.3 17.6 93.2 1.7 7.7 12.9 3.7 11.5-3.8-3.1-15.9-6.4-31.8-10-47.7a43.3 43.3 0 0 0 7.1-1c3.3-.6 7.1-.8 10.1-2.2s5.5-4.3 4.7-8.1a7.2 7.2 0 0 0-7.3-5.8c-3.7.2-7.2 1.8-10.7 2.9s-4.5 1.6-6.6 2.5c-2.2-9.1-4.5-18.2-6.9-27.2 8.9-1 18.3-2.1 26.4-5.3s5.7-14.5-2.5-13.4z" fill="#ffe6e1"></path><path d="M320.3 644.2c5.6 1.4 10.4-4.5 8.7-9.7s-9.1-7.1-12.7-2.6c-1 1.1-6 2.4-8.1 3.4s-6.5 3-9.8 4.5a4.5 4.5 0 0 0-2.8 5 4.9 4.9 0 0 0-1 3c-.4 10.3 2.1 21.8 3.9 32 1.5 8.6 13.3 8.3 13.6-.6.1-4.7 9 1.9 10.1 3.2a16.5 16.5 0 0 1 4.1 11.2c-.3 7.1-7.4 11.7-13.6 7.8-7.9-5.1-14.9 8.3-6.6 13.2s18.4 3.4 25.7-2.5 10.4-17.6 7.3-27.4-11.1-18.5-21.3-20.5a16.9 16.9 0 0 0-8.4.5 103.8 103.8 0 0 0-4.7-17l7.1-1.4c2.3-.6 6.9-2.5 8.5-2.1z" fill="#ffe6e1"></path><path d="M402.3 631.4c-5-8-16.1-15.4-25.6-10.9h-.2c-17.6.7-26.5 22.9-26.2 38.7.4 17.4 6 43.3 26.9 45.8 22.4 2.7 32.9-21.4 32.5-39.8-.3-10.9-1.4-24.4-7.4-33.8zm-7.5 33.4c.4 9.2-4.2 31.2-18.5 25.1-9.9-4.1-11.5-20.9-12.1-30-.6-10.8 2.6-20.3 10.7-25.4a6.6 6.6 0 0 0 2.6.8c7.6 1.2 11.7 2.4 14.6 10.4 2 5.9 2.4 12.9 2.7 19.1z" fill="#ffe6e1"></path><g fill="#080e13"><path d="M469.2 741.9c-58.4 12-117 23.4-175.2 36.3-2.6-2.2-7.1-2.5-9.2 1.5-.1.2-.1.4-.2.6l-19.7 4.4c-4.4 1-3 8.6 1.5 7.8l14.5-2.7c-4.3 16.1-1.5 34.3.4 50.2a334.6 334.6 0 0 0 16.1 70.6c1.7 5.1 9 2.6 7.8-2.5a507 507 0 0 1-12.4-65.7c-2.1-17.1-6.1-38.6 1.3-55l19.3-3.7c4.8 34.4 12.8 67.8 22.6 101.1 1.5 5 9.1 2.5 7.7-2.5-9.4-32.9-16.2-66.5-22-100.2l24.9-4.9c1.3 19.8 6.5 40.1 10 59.6s7.1 41.6 10.9 62.3c1 5.6 9.9 5.4 9-.4-3-21.4-6.5-42.7-10.1-64-3.2-19.4-5.3-40.3-11.1-59.2l28.3-5.7a5.3 5.3 0 0 0-2.3 5.4c3.9 19.8 8.2 39.5 11.6 59.3s6 38.9 9.4 58.2c.9 5 8.2 4.9 8-.4-1.6-40-9-81.6-19.6-120.2a4.4 4.4 0 0 0-3-3.2l18.1-3.7a4.3 4.3 0 0 0 .2 1.9c10.7 33 20.1 66.2 29.6 99.5 1.6 5.5 9.5 2.6 8.4-2.8-7-33.8-17.4-67.2-29.8-99.4a2 2 0 0 0-.4-.8l42-8.6c0 .2.1.3.1.5a489.5 489.5 0 0 1 19.7 73.3c1.1 5.6 11 3.8 10-1.9a377.9 377.9 0 0 0-21.3-73.6l8.1-1.7c6.5-1.3 3.2-11.1-3.2-9.7z"></path><path d="M490.6 846.7c-2.1-5.4-10.1-2.8-8.6 2.9s2.4 11.3 4.8 16.3 11 3.3 9.8-3.2-4-10.9-6-16z"></path><path d="M347.5 24c-9.9 1.2-19.8 2.9-29.6 4.8a6.5 6.5 0 0 0 .6-4.4c-.7-3.4-1.3-6.8-2-10.2s-3.1-3.3-5-2.9a4.4 4.4 0 0 0-3.6 4.5c.1 3.5.2 7 .4 10.5a4.8 4.8 0 0 0 2.2 4c-11.2 2.2-22.4 4.7-33.6 7l-7.5 1.5a28.1 28.1 0 0 0-1-8.6 4.1 4.1 0 0 0-5.2-2.6 4.2 4.2 0 0 0-2.6 5.1 17.3 17.3 0 0 1 .4 6.4 7.6 7.6 0 0 0 .1 1.5c-9.6 1.9-19.1 4-28.6 6-.2-.5-.4-1.1-.7-1.7a41 41 0 0 1-3.5-10.2c-1.1-4.6-9.1-4.3-9.5.5a29.3 29.3 0 0 0 1.7 14.1c-5.7 1.3-11.3 2.5-16.9 3.9l-4.3 1c-1.3-4.6-3.7-9.1-5.5-13.5s-10.4-2.9-9.2 3.1c.8 4.2 1.2 9.1 2.5 13.3l-22.3 5.5a5.4 5.4 0 0 0 .5-3.8c-.5-2.3-.9-4.7-1.4-7.1s-3.1-3.3-5-2.9-4 2.3-3.6 4.5l1.2 7.2a5.1 5.1 0 0 0 2.2 3.6q-27.1 6.8-54.3 14v-.9c-.7-4.2-1.5-8.3-2.2-12.4-.4-2.6-2.2-4.8-5-4.6a4.9 4.9 0 0 0-4.6 5.1l1.5 12.4a5.7 5.7 0 0 0 1.1 2.8l-35.4 9.7c-4.9 1.3-2.4 8.6 2.4 7.4q71.2-18.4 143.2-34.1c23.9-5.2 47.9-10.5 71.9-15.5s48.2-8.8 72-14.6c5.2-1.3 3.6-10.1-1.8-9.4z"></path><path d="M31.4 81.2c-3-3.6-8.3-1.9-8.5 2.8s1 6.3 1.8 9.4a5.8 5.8 0 0 0 7.2 3.6c2.7-1 4.8-4.2 3.6-7.2s-2.1-6.1-4.1-8.6z"></path><path d="M66.3 69.8a4.3 4.3 0 0 0-2.7 5.3l1.8 9.2c.5 2.3 3.4 3.4 5.5 2.7s3.2-3.1 2.7-5.4l-2-9.1c-.5-2.3-3.3-3.4-5.3-2.7z"></path><path d="M125.3 55.7a4.2 4.2 0 0 0-3.5 4.4c.3 2.4.7 4.8 1.1 7.2s2.4 4.7 5.3 4.1 4-3.1 3.5-5.8l-1.5-7.1c-.4-2.1-3-3.2-4.9-2.8z"></path><path d="M357.9 9.1l.3 11.7c.2 6.7 11.1 6 10.3-.5-.4-3.9-.9-7.8-1.4-11.7-.6-5.9-9.4-5.5-9.2.5z"></path><path d="M254.4 513.2c-6.1.8-10.4 5.3-11.5 11.4-1.4 7.6 3.3 14.2 7.9 19.7s11.6-1 7-6.2c-2.3-2.6-5.1-5.7-6-9.2s-.1-6.7 3.1-7.2c5.2-.9 5-9.1-.5-8.5z"></path><path d="M290.6 590.4a22 22 0 0 1-26.4 12.6c-5-1.4-6.6 6.4-1.7 7.9a29.2 29.2 0 0 0 35.4-16.8c2-4.8-5.2-8.6-7.3-3.7z"></path><path d="M315.9 502.3c-2.1-3.5-8.2-1.5-7.7 2.6.8 7 3.6 13.8 5.7 20.4s11.7 3 9.6-3.1-4.1-13.8-7.6-19.9z"></path><path d="M339.6 528.7c1.1 5.9-.3 11.5-4.7 15.6s-9.5 3.2-12.9 7-1.8 33.6 1 33.6c-7.3 0-6.7 11.3.5 11.3s9.1-5.6 9.4-11.3c.3-8.8-1.8-17.7-1.7-26.6 2.1-1.2 5.6-1.9 7.5-3.2a25.3 25.3 0 0 0 6.9-7.3 26 26 0 0 0 2.8-20.7c-1.3-4.8-9.8-3.4-8.8 1.6z"></path><path d="M390.4 479.4c-7.6 1.7-15.1 4-22.9 5s-6.4 12.2.5 11.1c9.3-1.5 18.1-3.7 25.9-9 3.9-2.7.8-8.1-3.5-7.1z"></path><path d="M390.9 521.8c-8.4 1.6-20.4 1.8-18.9 13.5.4 3.2 10.5 37.7 7.2 38.4-5.9 1.3-4.1 11.3 1.9 10.5 11.3-1.6 10-14 8.7-22.5a171.1 171.1 0 0 0-3.9-18.9c-.3-1-3.2-8.9-3.3-8.6s8.6-3.8 9.8-4.4c3.8-1.7 3.5-8.9-1.5-8z"></path><path d="M322.8 639.1c-5.4 1.5-10.7 5.1-15.7 7.6s.1 13.2 6.2 9.2 10.2-5.7 14.2-9.7-.8-8.2-4.7-7.1z"></path><path d="M340.2 679.7c-1.5-4.9-8.5-2.4-7.4 2.4 1.4 6.8 6.4 14.8 2.8 21.6s-14.2 6.4-21.8 7.1-5.8 9.6.5 9.8c10.1.4 23.2-2.7 29.2-11.6s-.5-19.8-3.3-29.3z"></path><path d="M311.7 679.8c-.7 2.6-4.6 4.9-7.3 3.9-5.2-1.8-9.1 5.1-3.9 7.9 8.6 4.8 19-.5 21.6-9.6 1.9-6.6-8.7-8.9-10.4-2.2z"></path><path d="M383.5 633.3c-10.1-2.1-18 5-21.2 14.4s.1 23.3 5.5 32.7c3.1 5.3 10.5.9 9.2-4.5-3-12.1-10.9-30.3 7-35.1 3.8-1 3.2-6.8-.5-7.5z"></path><path d="M410.7 631.5c-2.3-5.2-10.8-2.6-8.6 2.9 5.2 12.8 8.3 28.4 4.2 41.9s-15.8 23.8-29.8 24.7c-5.9.3-5.1 8.4.4 8.8 16.8 1.2 31.5-10.6 37.7-25.7 7.3-17.6 3.4-35.7-3.9-52.6z"></path></g></g></g></svg>