<svg xmlns="http://www.w3.org/2000/svg" width="1046" height="549.8" viewBox="0.014225006103515625 -0.00554656982421875 1045.508544921875 549.8056030273438" style=""><g><defs><linearGradient id="a" x1="351.55" y1="562.8" x2="516.62" y2="523.77" gradientUnits="userSpaceOnUse"><stop offset="0" stop-color="#5e8c99"></stop><stop offset="1" stop-color="#7da2af"></stop></linearGradient></defs><title>summerlic77_219179784</title><g data-name="Layer 2"><path d="M348.9 539.4l60.3-33.7 221.3 18.9-19.6 20.3H349.5a2.8 2.8 0 0 1-.6-5.5z" fill="url(#a)"></path><path d="M464.9 420.1a3.3 3.3 0 0 1-3.3-3.3v-79.5h-45.7v79.5a3.3 3.3 0 1 1-6.6 0V334a3.3 3.3 0 0 1 3.3-3.3h52.3a3.3 3.3 0 0 1 3.3 3.3v82.8a3.3 3.3 0 0 1-3.3 3.3z" fill="#232927"></path><path d="M464.9 349.8a5.1 5.1 0 0 1-5.1-5.1V338h-42.3v6.7a5.2 5.2 0 0 1-10.3 0v-11.8a5.1 5.1 0 0 1 5.1-5.2h52.6a5.2 5.2 0 0 1 5.2 5.2v11.8a5.1 5.1 0 0 1-5.2 5.1z" fill="#c14f40"></path><path d="M507.2 375.5H368.3a48.7 48.7 0 0 0-48.6 48.6v98.4a13.7 13.7 0 0 0 13.7 13.7H542a13.7 13.7 0 0 0 13.7-13.7v-98.4a48.6 48.6 0 0 0-48.5-48.6z" fill="#c14f40"></path><path d="M358 536.2h-22.8a8.5 8.5 0 0 0 8.6 8.5h5.6a8.6 8.6 0 0 0 8.6-8.5z" fill="#232927"></path><path d="M539.2 536.2h-22.8a8.6 8.6 0 0 0 8.6 8.5h5.6a8.5 8.5 0 0 0 8.6-8.5z" fill="#232927"></path><path d="M544.3 527.8H331.4a2.6 2.6 0 0 1-2.5-2.6v-53.6a48.2 48.2 0 0 1 48.2-48.2h121.6a48.2 48.2 0 0 1 48.2 48.2v53.6a2.6 2.6 0 0 1-2.6 2.6zM334 522.6h207.8v-51a43.1 43.1 0 0 0-43.1-43H377.1a43.1 43.1 0 0 0-43.1 43z" fill="#232927"></path><g data-name="Bag"><path d="M584.8 317.3a3.2 3.2 0 0 1-3.3-3.2V139.5h-65.4v174.6a3.3 3.3 0 0 1-6.5 0V136.2a3.2 3.2 0 0 1 3.2-3.3h72a3.3 3.3 0 0 1 3.3 3.3v177.9a3.2 3.2 0 0 1-3.3 3.2z" fill="#efbf7f"></path><path d="M584.8 169.1a5.2 5.2 0 0 1-5.1-5.2v-23.6h-62v23.6a5.2 5.2 0 1 1-10.3 0v-28.8a5.2 5.2 0 0 1 5.2-5.2h72.2a5.2 5.2 0 0 1 5.2 5.2v28.8a5.2 5.2 0 0 1-5.2 5.2z" fill="#ef533f"></path><path d="M605.3 317.6H491a37.8 37.8 0 0 0-37.9 37.9v158.6a23.1 23.1 0 0 0 23 23.1h144a23.1 23.1 0 0 0 23.1-23.1V355.5a37.9 37.9 0 0 0-37.9-37.9z" fill="#ef533f"></path><path d="M453.1 479.5v34.6a23.1 23.1 0 0 0 23 23.1h144a23.1 23.1 0 0 0 23.1-23.1v-34.6z" fill="#ef3d30"></path><path d="M498 537.2h-22.7a8.5 8.5 0 0 0 8.5 8.6h5.7a8.5 8.5 0 0 0 8.5-8.6z" fill="#232927"></path><path d="M622.3 537.2h-22.7a8.5 8.5 0 0 0 8.5 8.6h5.7a8.5 8.5 0 0 0 8.5-8.6z" fill="#232927"></path><rect x="473.8" y="341.8" width="148.7" height="128.72" rx="15" fill="#ef3d30"></rect><path d="M630.5 393.9a2.6 2.6 0 0 1-2.6-2.6v-32.7a24.4 24.4 0 0 0-24.4-24.4H492.8a24.4 24.4 0 0 0-24.4 24.4v32.7a2.6 2.6 0 1 1-5.2 0v-32.7a29.7 29.7 0 0 1 29.6-29.6h110.7a29.7 29.7 0 0 1 29.6 29.6v32.7a2.6 2.6 0 0 1-2.6 2.6z" fill="#232927"></path><path d="M465.8 415.5a3.6 3.6 0 0 1-3.6-3.6v-23.7a3.6 3.6 0 1 1 7.2 0v23.7a3.6 3.6 0 0 1-3.6 3.6z" fill="#efbf7f"></path><rect x="486.7" y="355.2" width="122.8" height="103.38" rx="9.9" fill="#ef533f"></rect><path d="M601 378.9h-99.2a2.6 2.6 0 0 1-2.6-2.6 2.6 2.6 0 0 1 2.6-2.6H601a2.5 2.5 0 0 1 2.6 2.6 2.6 2.6 0 0 1-2.6 2.6z" fill="#232927"></path><path d="M501.8 403.7a3.6 3.6 0 0 1-3.6-3.6v-23.7a3.6 3.6 0 1 1 7.2 0v23.7a3.6 3.6 0 0 1-3.6 3.6z" fill="#efbf7f"></path><path fill="#fcac6b" d="M573 483l34.4-60.4-28.9-16.5-43.7 76.9H573z"></path><path fill="#f49a56" d="M568.5 482.7l31.7-55.9-20.7-11.6-37.9 67.5h26.9z"></path><path d="M548.9 483.9h-.6a1.2 1.2 0 0 1-.4-1.7l32-57.2a1.3 1.3 0 0 1 2.2 1.2L550 483.3a1.1 1.1 0 0 1-1.1.6z" fill="#d17537"></path><path d="M577.1 448.7h-.6a1.2 1.2 0 0 1-.4-1.7l12.3-22a1.2 1.2 0 0 1 1.7-.4 1.1 1.1 0 0 1 .4 1.6l-12.3 22a1.1 1.1 0 0 1-1.1.5z" fill="#d17537"></path><path fill="#ffc088" d="M602.1 483l22.6-39.8-28.9-16.4-31.9 56.2h38.2z"></path><path fill="#fcac6b" d="M597.4 483l21-36.6-21.8-12.4-27.8 49h28.6z"></path><path d="M587.5 464h-.6a1.2 1.2 0 0 1-.5-1.7l12.3-22a1.3 1.3 0 0 1 1.7-.4 1.3 1.3 0 0 1 .5 1.7l-12.4 21.9a1.1 1.1 0 0 1-1 .5z" fill="#ea9053"></path><path d="M593.6 467.1l-.6-.2a1.3 1.3 0 0 1-.5-1.7l12.4-21.9a1.2 1.2 0 1 1 2.1 1.2l-12.3 21.9a1.2 1.2 0 0 1-1.1.7z" fill="#ea9053"></path><path d="M600.2 470.7l-.6-.2a1.2 1.2 0 0 1-.4-1.7l12.3-21.9a1.3 1.3 0 0 1 1.7-.5 1.2 1.2 0 0 1 .4 1.7L601.3 470a1.2 1.2 0 0 1-1.1.7z" fill="#ea9053"></path><path fill="#232927" d="M453.1 479.5h190.2v5.17H453.1z"></path><path d="M465.8 509.4a3.7 3.7 0 0 1-3.6-3.7V482a3.6 3.6 0 1 1 7.2 0v23.7a3.7 3.7 0 0 1-3.6 3.7z" fill="#efbf7f"></path><path d="M477.4 509.4a3.7 3.7 0 0 1-3.6-3.7V482a3.6 3.6 0 1 1 7.2 0v23.7a3.7 3.7 0 0 1-3.6 3.7z" fill="#efbf7f"></path><path d="M591.1 308.2h-86a9.2 9.2 0 0 0-9.1 9.2h104.2a9.2 9.2 0 0 0-9.1-9.2z" fill="#232927"></path></g><g data-name="Girl+Chair"><path d="M221.6 191.7c-1.2 9-5.7 12.9-8.2 16.5s-4.4 16.5-12.5 18.7l3.7 11.8s25.8-3.1 28.6-9c.8-1.7.4-4.3 1.1-7 .2-1.1 2-1.8 1.9-3.2s-1.4-2.4-1.3-3.9 2.9-3.4 2.2-6.3-15.2-1-15.2-1 4.7-10.1 3.9-13.6-4.2-3-4.2-3z" fill="#c14f40"></path><path d="M99.4 546.6h-.1a1.6 1.6 0 0 1-1.6-1.8c0-.4 2.6-43 27.3-85.8 14.4-25.1 33.6-45.5 56.8-60.4 29-18.7 64.6-28.9 105.6-30.4a1.6 1.6 0 0 1 1.8 1.6 1.8 1.8 0 0 1-1.6 1.8c-91.5 3.4-137.3 50.3-159.6 89-24.3 42.1-26.9 84-26.9 84.4a1.7 1.7 0 0 1-1.7 1.6z" fill="#fff"></path><path d="M36.5 105.6c-3.7 4.1-30.7 7.4-30.7 36.5 0 32.7 32.1 32.4 35.1 37.5-21.8-.8-27.9 60.6 30.6 43 0 0 15.7-49.8 25.7-75.9 6.4-16.7-57-45.2-60.7-41.1z" fill="#232927"></path><path d="M389.5 403.2a9.7 9.7 0 0 1-3.7-.7l-51-18.7-.7-.3c-6-2.7-14.9-3.9-23.2-3.1l-66.4 6.5c-51.5 6.7-87-7.1-111.7-43.4l-96.5-141a10.7 10.7 0 0 1 17.6-12l96.4 141c20.1 29.4 48.3 39.9 91.6 34.3h.4l66.6-6.4c11.8-1.2 24.3.6 33.5 4.6l50.7 18.7a10.6 10.6 0 0 1 6.4 13.6 10.7 10.7 0 0 1-10 6.9z" fill="#375056"></path><path d="M114.2 549.8h-.4a4.8 4.8 0 0 1-4.4-5.3c.1-1.8 4.2-44.4 32.8-88.3a193.6 193.6 0 0 1 65.3-62c32.8-19 72.6-29.4 118.3-30.8a5 5 0 0 1 5.1 4.7 5.1 5.1 0 0 1-4.8 5.1c-79.9 2.4-139 32.1-175.7 88.3-27.4 41.9-31.3 83.4-31.3 83.8a4.9 4.9 0 0 1-4.9 4.5z" fill="#fff"></path><path d="M222.6 365.1c32.7-4.2 142.5-79 142.5-79L571 307.6l1.7-17.5s-196.2-52.5-220-52.4c-18 0-142.6 42.8-142.6 42.8s-20.1 88.8 12.5 84.6z" fill="#c14f40"></path><path d="M148.2 18.6c23.4-4.2 22.2 43.7 14.8 55.7 26.5 26.5 6.5 64.6-4.7 80.5 23.3 6.5 26.9 39.4 26.9 39.4s-14.2-7.2-35.3-6.4-92.5-35.2-92.5-35.2l49.7-137.1s17.7 7.3 41.1 3.1z" fill="#232927"></path><path d="M142.6 148.3s-9.1-8.5-18.2-3.5c-46.1 25.4 23.4 136.5 34.6 136.8s54.9-58.2 54.9-58.2l-3.2-4.6-46.1 22.3s-7.1-84.6-22-92.8z" fill="#c14f40"></path><path d="M142.6 148.3s-9.1-8.5-18.2-3.5c-22.9 12.6-7.8 45.9 14.6 76.3l37.4-19.7c-11.8-23.4-26-48.8-33.8-53.1z" fill="#efa701"></path><path d="M144.6 303.8s12.7 22.1 16.1 30.1 17.7 41.5 65.7 30.4 51.3-132.6 51.3-132.6 40.5 54.1 65.2 100.8h16.8s-37.1-184.6-72.5-184.6c-44.3-.1-98.4 140.4-98.4 140.4z" fill="#d76855"></path><path d="M128.3 177.1c-5.2-9.6-21.5-32.7-8-54.8S96 87.7 96 87.7s2 45.5-10.4 54.8 42.7 34.6 42.7 34.6z" fill="#d76855"></path><path d="M144.6 303.8c-11-20.5-35.7-35.2-47-49.8-14.2-18.5-30-48.1-25.5-79.6 5.4-38.6 17.2-44.4 43.5-32.9s16.5 11.4 33 29.3c13.9 15 28.7 15.9 39.8 26 5.2 29.6-6.5 38.9-6.5 38.9s11.9 23.7 15.4 38.8-11.2 27-11.2 27z" fill="#d76855"></path><path d="M144.6 303.8c-11-20.5-35.7-35.2-47-49.8-14.2-18.5-30-48.1-25.5-79.6 5.4-38.6 17.2-44.4 43.5-32.9s16.5 11.4 33 29.3c13.9 15 28.7 15.9 39.8 26 5.2 29.6-6.5 38.9-6.5 38.9s11.9 23.7 15.4 38.8-11.2 27-11.2 27z" fill="#ffbf49"></path><path d="M95 109.1s9.9 16.8 20.5 25.9a38.2 38.2 0 0 1 4.8-12.7c3.7-6.1 3.5-11.4 1.2-16L96.1 94c0 3.1-.8 10.6-1.1 15.1z" fill="#c14f40"></path><path d="M136.6 176.7a1.7 1.7 0 0 1-1.8-1.5c-.9-10.9.2-23.5 1.2-35.7 1.5-17.8 2.9-34.7-2-43.7a1.8 1.8 0 0 1 .7-2.3 1.7 1.7 0 0 1 2.3.7c5.4 9.9 3.9 27.2 2.4 45.5-1 12.1-2.1 24.6-1.1 35.2a1.8 1.8 0 0 1-1.6 1.8z" fill="#e1dfed"></path><path d="M135.3 31.9c7 2.1 17.1 12.6 18.4 24.1 2.4 22.3 4.1 41.7-6.3 67.6a6.7 6.7 0 0 1-5 4.1c-7.7 1.3-26.2 1.7-41.4-21.1-19.7-29.5-5.3-86.2 34.3-74.7z" fill="#d76855"></path><path d="M155.1 83.1c3 8.1 9.3 8.4 9.5 10.5s-4.3 6.9-10.2 8.4.7-18.9.7-18.9z" fill="#d76855"></path><path d="M342.6 330.1s-7.3 6.2-8 10.2 62.7 33 62.7 33l-36.6-40.8z" fill="#fff"></path><path d="M358 344.5a19.8 19.8 0 0 1-10.6-2.9c-8.1-5.3-9.5-9.1-10.5-9.1s-9.2 8.6-9.1 15.8 27.2 10.3 27.2 10.3z" fill="#ca0708"></path><path d="M416 376.5c.3-.9-1.2-4-6.2-6.2-27.1-12.2-38.8-36.2-38.8-36.2s-15.3 5.3-11.4 26.2l26.1 9.5z" fill="#ca0708"></path><path d="M380.5 367.2c2-.6 13.9-5.4 10.8-9.7-7.9-7.7-14-18.6-19.9-17.6s-17.4 7-23.4 5.1-13.4-10.6-13.4-10.6l-3.5 4.5s18.1 16.1 20.3 18.4 29.1 9.9 29.1 9.9z" fill="#a30008"></path><path d="M416 376.5c2.3 1.6-.5 9.1-.5 9.1s-22-2.3-39.4-8.8c-29.9-11.4-51.5-18.2-51.2-20s2.9-8.5 2.9-8.5 30.3 11.8 41.6 15.4c23 7.4 46.6 12.8 46.6 12.8z" fill="#fff"></path><path d="M415.5 385.6a205.1 205.1 0 0 1-28.9-5.5l2.1-7.7s17.6 4.5 28.2 6.3a23.3 23.3 0 0 1-1.4 6.9z" fill="#edecf2"></path><path d="M368.4 340.6a21.1 21.1 0 0 1 3-.7c5.9-1 12 9.9 19.9 17.6 1.2 1.6.4 3.6-2.5 5.6-2.9-2.1-14-12.8-20.4-22.5z" fill="#af0415"></path><path d="M374 345.2a1.9 1.9 0 0 1-1.4-.7 1.6 1.6 0 0 1 .4-2.4l2.6-1.9a1.9 1.9 0 0 1 2.4.4 1.8 1.8 0 0 1-.4 2.4l-2.6 1.9a1.9 1.9 0 0 1-1 .3z" fill="#fff"></path><path d="M378.3 349.9a2 2 0 0 1-1.4-.6 1.7 1.7 0 0 1 .4-2.4l2.8-2.2a1.6 1.6 0 0 1 2.4.4 1.6 1.6 0 0 1-.3 2.3l-2.9 2.2a1.7 1.7 0 0 1-1 .3z" fill="#fff"></path><path d="M382.7 354.8a1.7 1.7 0 0 1-1-3.1l2.7-2a1.7 1.7 0 1 1 2 2.7l-2.7 2.1a1.9 1.9 0 0 1-1 .3z" fill="#fff"></path><path d="M387.1 359.8a1.6 1.6 0 0 1-1.3-.6 1.7 1.7 0 0 1 .1-2.4l2.6-2.3a1.7 1.7 0 0 1 2.3 2.6l-2.6 2.3a2.1 2.1 0 0 1-1.1.4z" fill="#fff"></path><path d="M571.2 308s8 5.2 12 4.8 14.1-69.4 14.1-69.4l-28.8 46.5z" fill="#fff"></path><path d="M580.7 289.2a19.1 19.1 0 0 1 .2 11c-2.8 9.2-6.1 11.6-5.8 12.5s10.8 6.5 17.7 4.4 2.3-29 2.3-29z" fill="#ca0708"></path><path d="M595.2 224.5c-1 0-3.5 2.3-4.2 7.7-4.1 29.4-23.9 47.4-23.9 47.4s9.4 13.2 28.4 3.6l1.7-27.7z" fill="#ca0708"></path><path d="M596.2 261.2c-1.1-1.7-9.1-11.8-12.3-7.7-5.2 9.8-14 18.7-11.4 24.1s11.7 14.7 11.5 21-6.4 15.8-6.4 15.8l5.3 2.1s10.3-21.9 12-24.6 1.3-30.7 1.3-30.7z" fill="#a30008"></path><path d="M595.2 224.5c1-2.6 8.9-2.1 8.9-2.1s4 21.9 2.5 40.3c-2.5 31.9-3 54.6-4.8 54.7s-9-.3-9-.3 2.9-32.4 3.2-44.2c.7-24.2-.8-48.4-.8-48.4z" fill="#fff"></path><path d="M604.1 222.4a199.4 199.4 0 0 1 2.8 29.3l-8 .2s-.6-18.2-1.8-28.9a22.7 22.7 0 0 1 7-.6z" fill="#edecf2"></path><path d="M574.1 280.2a26.3 26.3 0 0 1-1.6-2.6c-2.6-5.4 6.2-14.3 11.4-24.1 1.2-1.5 3.3-1.3 6 .9-1.1 3.4-8.3 17-15.8 25.8z" fill="#af0415"></path><path d="M575.3 275.8a1.5 1.5 0 0 1-1.1-.4l-2.5-1.9a1.7 1.7 0 0 1-.3-2.4 1.7 1.7 0 0 1 2.4-.3l2.5 2a1.6 1.6 0 0 1 .3 2.4 1.6 1.6 0 0 1-1.3.6z" fill="#fff"></path><path d="M578.6 270.3a1.9 1.9 0 0 1-1-.3l-2.9-2.2a1.6 1.6 0 0 1-.3-2.3 1.7 1.7 0 0 1 2.4-.4l2.8 2.2a1.6 1.6 0 0 1 .4 2.3 1.6 1.6 0 0 1-1.4.7z" fill="#fff"></path><path d="M582.1 264.8a1.3 1.3 0 0 1-1-.4l-2.8-2a1.7 1.7 0 0 1-.3-2.4 1.6 1.6 0 0 1 2.4-.3l2.7 2a1.7 1.7 0 0 1-1 3.1z" fill="#fff"></path><path d="M585.6 259.2a1.6 1.6 0 0 1-.9-.3l-2.9-1.8a1.8 1.8 0 0 1-.5-2.4 1.6 1.6 0 0 1 2.3-.5l2.9 1.8a1.7 1.7 0 0 1 .6 2.3 1.8 1.8 0 0 1-1.5.9z" fill="#fff"></path><path d="M95.5 155.4s21.1 54 22.2 101.4l-17.2 5.6z" fill="#efa701"></path><path d="M93.2 151s-5.3-11.2-15.7-10c-52.2 6.6 7.8 148 18.2 152.4s109.5-45.7 109.5-45.7l-1.2-8.3-96 19s-4-94.3-14.8-107.4z" fill="#d76855"></path><path d="M222.6 365.1c32.7-4.2 142.5-79 142.5-79L543 304.6l2.9-21.6c-54.5-14.3-174.9-45.3-193.2-45.3s-142.6 42.8-142.6 42.8-20.1 88.8 12.5 84.6z" fill="#007391"></path><path d="M97.4 136.3l-4.3.7s15.2 22.8 35.2 27.1c9.2 2-2.9-17.3-2.9-17.3l-6.8-3.9-3-1.4c-7-3.1-13-4.9-18.2-5.2z" fill="#d76855"></path><path d="M144.6 303.8s12.7 22.1 16.1 30.1 17.7 41.5 65.7 30.4 51.3-132.6 51.3-132.6 30.2 40.3 54.3 81.4l21.2-9.9c-12.1-52.1-39.5-155.3-66-155.3-44.3-.1-98.4 140.4-98.4 140.4z" fill="#28aadb"></path><path d="M53.5 235.7a35 35 0 0 1-18.5-5.2c-11.9-7.2-18.9-20.6-17.5-33.4.9-7.5 5.5-21.2 26.7-28.2a1.6 1.6 0 0 1 2.1 1.1 1.6 1.6 0 0 1-1 2.1c-14.4 4.8-23.1 13.8-24.4 25.4s5.1 23.6 15.9 30.1 26.3 6.1 39.7-3a1.8 1.8 0 0 1 2.4.5 1.7 1.7 0 0 1-.5 2.3c-8.1 5.5-16.7 8.3-24.9 8.3z" fill="#232927"></path><path d="M76.1 119.6v-3.4c28.2-1 46.7-8.6 54.8-22.4 11.3-19.2-.1-45.8-5.5-56.3v-.4l3-1.5.2.3c7 13.7 17.1 39.7 5.4 59.6-9 15-28.4 23.1-57.9 24.1z" fill="#232927"></path><path d="M105.7 102.2l-1.3-3.2c9.7-3.9 16.7-10.6 20.6-19.9 5.6-13.2 3.7-27.9 1.1-34.1l3.2-1.3c2.9 7 4.9 22.5-1.1 36.7a39.6 39.6 0 0 1-22.5 21.8z" fill="#232927"></path><path d="M131.6 47.1c5.8-5.5 19.5.2 19.5.2C156.6-4 116.2-4.6 105 4.4c-8.1 6.6-5.4 14.3-9.4 17s-15.3-8.5-26.8 0-2.9 23.1-5.2 26.1-28.8-4.1-37.9 11.1c-13.9 23.5 14.5 42.9 10.8 47s53.7 69.4 75.9 13.2c6.5-16.7-11.7-34-9.9-36.8s20.1-3.3 24.6-13.5 1.6-18.7 4.5-21.4z" fill="#232927"></path><circle cx="95" cy="90.3" r="11.3" transform="rotate(-69.7 94.924 90.3)" fill="#d76855"></circle><path d="M101.6 90.9a6.6 6.6 0 0 0-6-7.2A6.7 6.7 0 1 0 94.4 97a6.6 6.6 0 0 0 7.2-6.1z" fill="#c14f40"></path><path d="M92 90.1a4.6 4.6 0 0 0 1.7 6.2 5.4 5.4 0 0 0 2.1.5l4.8 8.3a2.3 2.3 0 0 0 3.1.8h.1a2.4 2.4 0 0 0 .8-3.2l-4.7-8c0-.1 0-.1.1-.2a4.6 4.6 0 1 0-8-4.4z" fill="#edecf2"></path><path d="M31.5 178.8h-.3C9.3 175.1-2.3 161.3.4 142s19.4-38.5 39.4-36.4a1.6 1.6 0 0 1 1.5 1.8 1.7 1.7 0 0 1-1.8 1.6c-17.6-1.9-33.4 16.1-35.7 33.4s8.1 29.6 28 33a1.7 1.7 0 0 1-.3 3.4z" fill="#232927"></path><path d="M192 330.4h-.4a1.7 1.7 0 0 1-1.2-2c3.4-21.4-12.6-26.9-13.3-27.1a1.6 1.6 0 0 1-1.1-2.1 1.8 1.8 0 0 1 2.2-1.1 25.2 25.2 0 0 1 15.9 21.2c5.9-14 18.5-43 32.9-71.5 27.2-53.6 47.7-80.2 61.1-79 6.5.6 16.8 17.2 30.4 49.4a733.4 733.4 0 0 1 30.3 87.4 1.7 1.7 0 0 1-1.3 2.1 1.8 1.8 0 0 1-2.1-1.2c-15.8-59.3-47.6-133.4-57.6-134.3h-.7c-24.2 0-75.6 113.1-93.5 157.2a1.7 1.7 0 0 1-1.6 1z" fill="#007391"></path><path d="M411.9 549.8a4.9 4.9 0 0 1-4.8-3.9c-19.7-96.8-61.7-166.3-124.7-206.6-47.6-30.4-98.7-38-133.2-39-37.5-1.1-64.1 5.1-64.3 5.1a4.7 4.7 0 0 1-5.9-3.6 4.8 4.8 0 0 1 3.6-5.8c1.1-.3 27.8-6.6 66.5-5.5 35.8 1.1 88.9 8.9 138.4 40.5 65.5 41.7 108.9 113.4 129.2 212.9a5 5 0 0 1-3.8 5.8z" fill="#375056"></path><path d="M93.2 151s-5.3-11.2-15.7-10c-30.7 3.9-22.6 54.4-8.6 96.2l37.4-7.5c-2.1-28.9-6.2-70.3-13.1-78.7z" fill="#ffbf49"></path><path d="M128.4 388.9a63.8 63.8 0 0 1-14.5-1.6c-33.4-7.6-51.6-40.2-49.9-67.4 1.6-23.8 16.9-39.4 41-41.8a35.8 35.8 0 0 1 14.3 1.3c50.2-52.4 6.4-130.7-12.7-164.9-3.4-6.1-6.1-10.8-7.4-13.9a1.9 1.9 0 0 1 1-2.3 1.8 1.8 0 0 1 2.2 1c1.2 2.9 3.8 7.5 7.2 13.5 19.4 34.7 63.6 113.8 13.1 168 6.7 3.2 10.9 8.6 12.3 14.3 2.2 8.7-1.8 16.9-10 20.3-6.5 2.7-14 .1-18-6.3s-4-15 5.5-23.3a46.4 46.4 0 0 0 4-3.6 32.8 32.8 0 0 0-11.1-.7c-22.4 2.2-36.6 16.6-37.9 38.6-1.7 25.8 15.5 56.7 47.1 63.9 20.3 4.5 42.4-1.3 59.2-15.7 20.1-17.2 42.9-54.5 37.6-134.2a1.7 1.7 0 0 1 1.5-1.8 1.9 1.9 0 0 1 1.9 1.6c5.5 81.1-18.1 119.3-38.8 137a73.7 73.7 0 0 1-47.6 18zm-8.2-105.5c-1.7 1.7-3.5 3.4-5.4 5-8 6.9-7.7 14.3-4.9 18.9s8.2 7.3 13.8 4.9c7.5-3.1 9.4-10.4 8-16.2s-5.2-9.9-11.5-12.6z" fill="#edecf2"></path><path d="M199.3 257.3a4.5 4.5 0 0 1-1.9-.5 4.1 4.1 0 0 1-1.6-5.4l42.1-76.2a4 4 0 1 1 7 3.8l-42.1 76.2a4 4 0 0 1-3.5 2.1z" fill="#ca0708"></path><path d="M204.8 208c-1.3 9-5.8 12.9-8.2 16.5s-4.5 16.4-12.5 18.7l3.6 11.8s25.8-3.1 28.6-9c.9-1.7.5-4.3 1.2-7 .2-1.1 1.9-1.8 1.9-3.3s-1.4-2.3-1.4-3.8 3-3.5 2.3-6.3-15.2-1-15.2-1 4.7-10.1 3.8-13.6-4.1-3-4.1-3z" fill="#d86656"></path></g><g><path d="M727.9 380.7h-.6a1.6 1.6 0 0 1-1-2.2c4.8-13.3 32.9-44.4 77.6-68.8 38.1-20.7 98.8-42.3 172.5-28.1a1.7 1.7 0 0 1-.6 3.4c-72.7-14.1-132.7 7.3-170.2 27.7-44 24-71.4 54.1-76.1 67a1.7 1.7 0 0 1-1.6 1z" fill="#375056"></path><path d="M691 403.2a10.6 10.6 0 0 1-3.6-20.6l50.7-18.7c9.2-4 21.7-5.8 33.5-4.6l66.6 6.4h.4c43.3 5.6 71.6-4.9 91.6-34.3l96.4-141a10.7 10.7 0 0 1 17.6 12l-96.4 141c-24.8 36.4-60.3 50.2-111.8 43.5l-66.4-6.5c-8.3-.8-17.2.4-23.2 3.1l-.7.3-51 18.7a9.4 9.4 0 0 1-3.7.7z" fill="#375056"></path><path d="M966.3 549.8a5 5 0 0 1-4.9-4.5c0-.6-4.1-42.3-31.5-84.1-36.7-56-95.8-85.6-175.5-88a4.9 4.9 0 0 1-4.7-5.1 4.8 4.8 0 0 1 5-4.7c45.7 1.4 85.5 11.8 118.4 30.8a193.3 193.3 0 0 1 65.2 62c28.7 43.9 32.7 86.5 32.8 88.3a4.8 4.8 0 0 1-4.4 5.3z" fill="#fff"></path><path d="M668.6 549.8h-1a5 5 0 0 1-3.8-5.8c20.3-99.6 63.8-171.3 129.2-213 49.6-31.6 102.6-39.4 138.4-40.5 38.7-1.1 65.4 5.2 66.5 5.5a4.8 4.8 0 0 1-2.2 9.4c-.3 0-26.9-6.2-64.4-5.1-34.5 1-85.6 8.6-133.2 39-63 40.3-105 109.8-124.7 206.6a4.9 4.9 0 0 1-4.8 3.9z" fill="#375056"></path></g></g></g></svg>