<svg xmlns="http://www.w3.org/2000/svg" width="907.3" height="919.1" viewBox="0 0 907.300048828125 919.10009765625" style=""><g><title>summerlic4_79018730</title><g data-name="Layer 2"><path d="M396.3 919.1a7.6 7.6 0 0 0 7.6-6.8l81.5-725.2a7.6 7.6 0 0 0-15.2-1.7l-81.4 725.2a7.5 7.5 0 0 0 6.7 8.4z" fill="#0e0f2d"></path><path fill="#ffab59" d="M810.9 402.1l96.4-219.3L550 0 96.4 36.6 0 256l357.3 182.8 453.6-36.7z"></path><g fill="#f0404a"><path d="M798.8 159.9L537.1 26 204.9 52.8l-70.6 160.7 261.6 133.9 332.3-26.8zM375 392.5L64.6 233.7l83.8-190.6 394.2-31.8L853 170.1l-83.7 190.6L375 392.5z"></path><path d="M310.5 66.3l-43.7 95.2 164.3 80.4 208-14.8 39.2-85 2-11.5-159.5-82.1zM413.1 280L199.8 177.2l54.8-119.6 272.9-22.2 211.1 107.5-55.7 118.8L413.1 280z"></path><path d="M550 133.6l16.7-29.7L504.4 71l-88.3 8.7-16.7 29.7 66.9 27 83.7-2.8zm-98.9 33.9l-116.2-46.8 26-48.6 151.5-12.6 111.7 56.3-27.6 46.9-145.4 4.8z"></path></g><path d="M489.1 94.3c3.8 0 7.4-.7 7.8-4.6l5-45.1a7.6 7.6 0 0 0-6.7-8.4 7.7 7.7 0 0 0-8.5 6.8l-5 45c-.4 4.2 2.3 5.8 6.5 6.3z" fill="#0e0f2d"></path></g></g></svg>