<svg xmlns="http://www.w3.org/2000/svg" width="641.8" height="644.9" viewBox="-1.1127607822418213 0 642.8773803710938 644.9008178710938" style=""><g><title>summer19_358774730</title><g data-name="Layer 2"><path d="M320.4 550.8c-117.8 0-213.6-95.9-213.6-213.6s95.8-213.6 213.6-213.6S534 219.4 534 337.2s-95.8 213.6-213.6 213.6zm0-400.3c-102.9 0-186.7 83.7-186.7 186.7s83.8 186.6 186.7 186.6 186.7-83.7 186.7-186.6-83.8-186.7-186.7-186.7z" fill="#b50024" opacity=".5"></path><path d="M320.4 539.2c-117.8 0-213.6-95.8-213.6-213.6S202.6 112 320.4 112 534 207.8 534 325.6s-95.8 213.6-213.6 213.6zm0-400.2c-102.9 0-186.7 83.7-186.7 186.6s83.8 186.7 186.7 186.7 186.7-83.7 186.7-186.7S423.3 139 320.4 139z" fill="#d30029"></path><path d="M320.4 536.3c-115.1 0-208.8-93.6-208.8-208.7s93.7-208.8 208.8-208.8 208.8 93.6 208.8 208.8-93.7 208.7-208.8 208.7zm0-400.2c-105.6 0-191.5 85.9-191.5 191.5S214.8 519 320.4 519s191.5-85.9 191.5-191.4S426 136.1 320.4 136.1z" fill="#ba1133"></path><path d="M320.4 531.5c-113.5 0-205.9-92.3-205.9-205.9s92.4-205.9 205.9-205.9 205.9 92.4 205.9 205.9-92.4 205.9-205.9 205.9zm0-400.2c-107.2 0-194.4 87.2-194.4 194.3S213.2 520 320.4 520s194.4-87.2 194.4-194.4-87.2-194.3-194.4-194.3z" fill="#ff597a"></path><path d="M320.4 528.2c-111.7 0-202.5-90.9-202.5-202.6s90.8-202.5 202.5-202.5 202.5 90.8 202.5 202.5-90.8 202.6-202.5 202.6zm0-400.3c-109 0-197.7 88.7-197.7 197.7s88.7 197.8 197.7 197.8 197.7-88.7 197.7-197.8-88.7-197.7-197.7-197.7z" fill="#ffd1da"></path><g><g fill="#c9ad00" opacity=".5"><path d="M323.2 98.4a13.6 13.6 0 0 1-13.5-13.5V25a13.5 13.5 0 0 1 27 0v59.9a13.6 13.6 0 0 1-13.5 13.5z"></path><path d="M236.7 112.6a13.6 13.6 0 0 1-12.9-9.6l-7.7-26.3a13.4 13.4 0 1 1 25.8-7.6l7.8 26.3a13.5 13.5 0 0 1-9.1 16.7 13.1 13.1 0 0 1-3.9.5z"></path><path d="M103.3 222.1a12.9 12.9 0 0 1-7.4-2.3l-22.8-15.1A13.5 13.5 0 1 1 88 182.3l22.8 15.1a13.4 13.4 0 0 1 3.7 18.7 13.2 13.2 0 0 1-11.2 6z"></path><path d="M44.3 394.8a13.5 13.5 0 0 1-1.5-26.9l27.2-3a13.4 13.4 0 1 1 3 26.7l-27.2 3.1z"></path><path d="M137.3 561.9a13.2 13.2 0 0 1-9.3-3.7 13.4 13.4 0 0 1-.5-19l18.9-19.9a13.5 13.5 0 0 1 19.5 18.6L147 557.7a13.3 13.3 0 0 1-9.7 4.2z"></path><path d="M315.9 630.2h-.8a13.5 13.5 0 0 1-12.6-14.3l1.7-27.3a13.4 13.4 0 0 1 14.3-12.6 13.6 13.6 0 0 1 12.6 14.3l-1.7 27.3a13.5 13.5 0 0 1-13.5 12.6z"></path><path d="M496.7 567.7a13.6 13.6 0 0 1-10.9-5.5l-16.2-22a13.5 13.5 0 0 1 21.7-16l16.2 22a13.5 13.5 0 0 1-10.8 21.5z"></path><path d="M595 403.6a11.7 11.7 0 0 1-3.2-.4l-26.6-6.4a13.5 13.5 0 0 1 6.3-26.2l26.6 6.4a13.5 13.5 0 0 1-3.1 26.6z"></path><path d="M540.3 226.9a13.4 13.4 0 0 1-6-25.5l24.5-12.2a13.5 13.5 0 0 1 12 24.1l-24.5 12.2a13.2 13.2 0 0 1-6 1.4z"></path><path d="M409.3 114.5a13.1 13.1 0 0 1-5.4-1.1 13.4 13.4 0 0 1-6.9-17.7l10.9-25.1a13.5 13.5 0 0 1 24.7 10.8l-11 25a13.3 13.3 0 0 1-12.3 8.1z"></path><path d="M160.4 155.6a13.1 13.1 0 0 1-10.3-4.8l-38.5-45.9a13.5 13.5 0 1 1 20.6-17.3l38.5 45.9a13.4 13.4 0 0 1-1.7 18.9 13 13 0 0 1-8.6 3.2z"></path><path d="M72.5 304.1l-2.4-.2-59-10.4a13.5 13.5 0 0 1 4.7-26.5l59 10.4a13.5 13.5 0 0 1-2.3 26.7z"></path><path d="M48.7 504.3a13.5 13.5 0 0 1-6.8-25.1l51.9-30a13.5 13.5 0 0 1 13.5 23.4l-51.9 29.9a13.5 13.5 0 0 1-6.7 1.8z"></path><path d="M211 643a12.4 12.4 0 0 1-4.6-.8 13.4 13.4 0 0 1-8-17.3l20.5-56.2a13.4 13.4 0 0 1 17.2-8.1 13.6 13.6 0 0 1 8.1 17.3l-20.5 56.3A13.6 13.6 0 0 1 211 643z"></path><path d="M424.6 644.9a13.6 13.6 0 0 1-12.7-8.8l-20.5-56.3a13.6 13.6 0 0 1 8.1-17.3 13.4 13.4 0 0 1 17.2 8.1l20.5 56.3a13.5 13.5 0 0 1-8 17.2 12.8 12.8 0 0 1-4.6.8z"></path><path d="M589.3 509.1a13.8 13.8 0 0 1-6.7-1.8l-51.8-29.9a13.4 13.4 0 1 1 13.4-23.3l51.9 29.9a13.5 13.5 0 0 1-6.8 25.1z"></path><path d="M569.3 309.6a13.5 13.5 0 0 1-2.3-26.8l59-10.4a13.5 13.5 0 0 1 4.6 26.6l-58.9 10.4z"></path><path d="M484.7 159.2a13.8 13.8 0 0 1-8.7-3.2 13.4 13.4 0 0 1-1.6-18.9l38.5-45.9a13.5 13.5 0 1 1 20.6 17.3L495 154.4a13.8 13.8 0 0 1-10.3 4.8z"></path></g><g fill="#e5c700"><path d="M323.2 86.8a13.5 13.5 0 0 1-13.5-13.4V13.5a13.5 13.5 0 0 1 27 0v59.9a13.5 13.5 0 0 1-13.5 13.4z"></path><path d="M236.7 101.1a13.5 13.5 0 0 1-12.9-9.7l-7.7-26.2a13.4 13.4 0 1 1 25.8-7.6l7.8 26.2a13.5 13.5 0 0 1-9.1 16.7 13.2 13.2 0 0 1-3.9.6z"></path><path d="M103.3 210.5a13.6 13.6 0 0 1-7.4-2.2l-22.8-15.1A13.5 13.5 0 1 1 88 170.7l22.8 15.2a13.4 13.4 0 0 1-7.5 24.6z"></path><path d="M44.3 383.2a13.4 13.4 0 0 1-1.5-26.8l27.2-3.1a13.5 13.5 0 0 1 3 26.8l-27.2 3z"></path><path d="M137.3 550.4a13.7 13.7 0 0 1-9.3-3.7 13.6 13.6 0 0 1-.5-19.1l18.9-19.8a13.5 13.5 0 1 1 19.5 18.6L147 546.2a13.3 13.3 0 0 1-9.7 4.2z"></path><path d="M315.9 618.7h-.8a13.4 13.4 0 0 1-12.6-14.2l1.7-27.3a13.3 13.3 0 0 1 14.3-12.6 13.4 13.4 0 0 1 12.6 14.2l-1.7 27.2a13.6 13.6 0 0 1-13.5 12.7z"></path><path d="M496.7 556.1a13.8 13.8 0 0 1-10.9-5.4l-16.2-22a13.5 13.5 0 1 1 21.7-16l16.2 22a13.4 13.4 0 0 1-2.8 18.8 13.2 13.2 0 0 1-8 2.6z"></path><path d="M595 392.1a17.5 17.5 0 0 1-3.2-.4l-26.6-6.4a13.5 13.5 0 0 1 6.3-26.2l26.6 6.4a13.5 13.5 0 0 1-3.1 26.6z"></path><path d="M540.3 215.4a13.6 13.6 0 0 1-12.1-7.5 13.4 13.4 0 0 1 6.1-18l24.5-12.2a13.5 13.5 0 0 1 12 24.1L546.3 214a14.6 14.6 0 0 1-6 1.4z"></path><path d="M409.3 103a14.9 14.9 0 0 1-5.4-1.1 13.5 13.5 0 0 1-6.9-17.8l10.9-25a13.5 13.5 0 0 1 24.7 10.7l-11 25.1a13.3 13.3 0 0 1-12.3 8.1z"></path><path d="M160.4 144.1a13.2 13.2 0 0 1-10.3-4.9l-38.5-45.8a13.5 13.5 0 1 1 20.6-17.3l38.5 45.8a13.6 13.6 0 0 1-10.3 22.2z"></path><path d="M72.5 292.5a9.7 9.7 0 0 1-2.4-.2l-59-10.4a13.5 13.5 0 1 1 4.7-26.5l59 10.4a13.5 13.5 0 0 1-2.3 26.7z"></path><path d="M48.7 492.8A13.4 13.4 0 0 1 37 486a13.5 13.5 0 0 1 4.9-18.4l51.9-29.9a13.5 13.5 0 1 1 13.5 23.3l-51.9 30a13.5 13.5 0 0 1-6.7 1.8z"></path><path d="M211 631.5a14.8 14.8 0 0 1-4.6-.8 13.4 13.4 0 0 1-8-17.3l20.5-56.3a13.5 13.5 0 0 1 25.3 9.2l-20.5 56.3a13.5 13.5 0 0 1-12.7 8.9z"></path><path d="M424.6 633.4a13.5 13.5 0 0 1-12.7-8.9l-20.5-56.3a13.5 13.5 0 0 1 8.1-17.2 13.3 13.3 0 0 1 17.2 8l20.5 56.3a13.6 13.6 0 0 1-8 17.3 15.4 15.4 0 0 1-4.6.8z"></path><path d="M589.3 497.6a13.8 13.8 0 0 1-6.7-1.8l-51.8-30a13.4 13.4 0 1 1 13.4-23.3l51.9 30a13.5 13.5 0 0 1-6.8 25.1z"></path><path d="M569.3 298a13.5 13.5 0 0 1-2.3-26.7l59-10.4a13.4 13.4 0 1 1 4.6 26.5l-58.9 10.4a9.7 9.7 0 0 1-2.4.2z"></path><path d="M484.7 147.6a13.6 13.6 0 0 1-8.7-3.1 13.5 13.5 0 0 1-1.6-19l38.5-45.9a13.5 13.5 0 0 1 20.6 17.3L495 142.8a13.4 13.4 0 0 1-10.3 4.8z"></path></g><g fill="#ddc000"><path d="M323.2 83.9a8.6 8.6 0 0 1-8.7-8.6V15.4a8.7 8.7 0 1 1 17.3 0v59.9a8.5 8.5 0 0 1-8.6 8.6z"></path><path d="M236.7 98.2a8.7 8.7 0 0 1-8.3-6.2l-7.7-26.2a8.7 8.7 0 1 1 16.6-4.9l7.7 26.2a8.5 8.5 0 0 1-5.8 10.7 7.3 7.3 0 0 1-2.5.4z"></path><path d="M103.3 207.7a8.7 8.7 0 0 1-4.8-1.5l-22.8-15.1a8.8 8.8 0 0 1-2.4-12 8.6 8.6 0 0 1 12-2.4l22.8 15.1a8.7 8.7 0 0 1-4.8 15.9z"></path><path d="M44.3 380.3a8.6 8.6 0 0 1-1-17.2l27.2-3.1a8.7 8.7 0 0 1 2 17.2l-27.2 3.1z"></path><path d="M137.3 547.5a8.7 8.7 0 0 1-6.3-14.6l18.8-19.9a8.7 8.7 0 0 1 12.6 12l-18.9 19.8a8.6 8.6 0 0 1-6.2 2.7z"></path><path d="M315.9 615.8h-.5a8.6 8.6 0 0 1-8.1-9.2l1.7-27.3a8.7 8.7 0 1 1 17.3 1.1l-1.7 27.3a8.7 8.7 0 0 1-8.7 8.1z"></path><path d="M496.7 553.3a8.7 8.7 0 0 1-7-3.6l-16.2-22a8.6 8.6 0 0 1 1.8-12.1 8.7 8.7 0 0 1 12.1 1.9l16.2 22a8.6 8.6 0 0 1-1.8 12.1 8.7 8.7 0 0 1-5.1 1.7z"></path><path d="M595 389.2a7.6 7.6 0 0 1-2.1-.3l-26.6-6.4a8.6 8.6 0 1 1 4.1-16.8l26.6 6.4a8.7 8.7 0 0 1-2 17.1z"></path><path d="M540.3 212.5a8.8 8.8 0 0 1-7.8-4.8 8.6 8.6 0 0 1 3.9-11.6l24.5-12.2a8.7 8.7 0 1 1 7.7 15.5l-24.5 12.2a8.5 8.5 0 0 1-3.8.9z"></path><path d="M409.3 100.1a8.6 8.6 0 0 1-7.9-12.1l10.9-25.1a8.7 8.7 0 1 1 15.9 6.9l-11 25.1a8.6 8.6 0 0 1-7.9 5.2z"></path><path d="M160.4 141.2a8.6 8.6 0 0 1-6.6-3.1l-38.5-45.9a8.6 8.6 0 1 1 13.2-11.1l38.5 45.8a8.6 8.6 0 0 1-1.1 12.2 8.2 8.2 0 0 1-5.5 2.1z"></path><path d="M72.5 289.7l-1.6-.2L12 279.1a8.6 8.6 0 1 1 3-17l59 10.4a8.6 8.6 0 0 1 7 10 8.7 8.7 0 0 1-8.5 7.2z"></path><path d="M48.7 489.9a8.7 8.7 0 0 1-4.4-16.2l51.9-29.9a8.6 8.6 0 0 1 11.8 3.1 8.7 8.7 0 0 1-3.1 11.9L53 488.7a8.8 8.8 0 0 1-4.3 1.2z"></path><path d="M211 628.6a9.3 9.3 0 0 1-2.9-.5 8.7 8.7 0 0 1-5.2-11.1l20.5-56.3a8.7 8.7 0 0 1 11.1-5.2 8.6 8.6 0 0 1 5.1 11.1l-20.4 56.3a8.7 8.7 0 0 1-8.2 5.7z"></path><path d="M424.6 630.5a8.7 8.7 0 0 1-8.2-5.7l-20.5-56.3a8.7 8.7 0 1 1 16.3-5.9l20.5 56.3a8.7 8.7 0 0 1-5.2 11.1 10.4 10.4 0 0 1-2.9.5z"></path><path d="M589.3 494.7a8.8 8.8 0 0 1-4.3-1.2l-51.8-29.9a8.6 8.6 0 1 1 8.6-15l51.9 29.9a8.7 8.7 0 0 1 3.1 11.9 8.6 8.6 0 0 1-7.5 4.3z"></path><path d="M569.3 295.1a8.6 8.6 0 0 1-1.5-17.1l59-10.4a8.6 8.6 0 1 1 3 17l-59 10.4z"></path><path d="M484.7 144.7a8.6 8.6 0 0 1-5.6-2 8.7 8.7 0 0 1-1-12.2l38.5-45.9a8.7 8.7 0 1 1 13.2 11.2l-38.5 45.9a8.5 8.5 0 0 1-6.6 3z"></path></g><g fill="#ffea63"><path d="M323.2 77.2a3.9 3.9 0 0 1-3.9-3.8V13.5a3.9 3.9 0 0 1 3.9-3.9 3.8 3.8 0 0 1 3.8 3.9v59.9a3.8 3.8 0 0 1-3.8 3.8z"></path><path d="M236.7 91.5a3.7 3.7 0 0 1-3.6-2.8l-7.8-26.2a3.9 3.9 0 1 1 7.4-2.2l7.7 26.2a3.8 3.8 0 0 1-2.6 4.8z"></path><path d="M103.3 200.9a4.2 4.2 0 0 1-2.1-.6l-22.8-15.1a3.9 3.9 0 1 1 4.3-6.4l22.8 15.1a3.8 3.8 0 0 1 1 5.3 3.7 3.7 0 0 1-3.2 1.7z"></path><path d="M44.3 373.6a3.8 3.8 0 0 1-3.8-3.4 3.9 3.9 0 0 1 3.4-4.3l27.2-3a3.7 3.7 0 0 1 4.2 3.4 3.8 3.8 0 0 1-3.4 4.2l-27.2 3.1z"></path><path d="M137.3 540.8a4 4 0 0 1-2.7-1.1 3.8 3.8 0 0 1-.1-5.4l18.8-19.9a3.9 3.9 0 0 1 5.5-.1 3.8 3.8 0 0 1 .1 5.4l-18.8 19.9a3.9 3.9 0 0 1-2.8 1.2z"></path><path d="M315.9 609a3.8 3.8 0 0 1-3.8-4l1.7-27.3a3.8 3.8 0 0 1 4.1-3.6 3.8 3.8 0 0 1 3.6 4l-1.7 27.3a3.9 3.9 0 0 1-3.9 3.6z"></path><path d="M496.7 546.5a3.7 3.7 0 0 1-3.1-1.5l-16.3-22a3.9 3.9 0 0 1 .8-5.4 3.8 3.8 0 0 1 5.4.8l16.3 22a3.9 3.9 0 0 1-.8 5.4 3.9 3.9 0 0 1-2.3.7z"></path><path d="M595 382.4h-1l-26.5-6.4a3.8 3.8 0 0 1-2.9-4.6 3.9 3.9 0 0 1 4.7-2.9l26.5 6.5a3.8 3.8 0 0 1 2.9 4.6 3.7 3.7 0 0 1-3.7 2.8z"></path><path d="M540.3 205.8a3.9 3.9 0 0 1-3.5-2.2 3.8 3.8 0 0 1 1.8-5.1l24.4-12.2a3.8 3.8 0 0 1 5.2 1.7 3.9 3.9 0 0 1-1.7 5.2L542 205.4a5.9 5.9 0 0 1-1.7.4z"></path><path d="M409.3 93.4a2.8 2.8 0 0 1-1.5-.4 3.7 3.7 0 0 1-2-5l10.9-25.1a3.9 3.9 0 0 1 7.1 3.1l-11 25.1a3.8 3.8 0 0 1-3.5 2.3z"></path><path d="M160.4 134.4a3.9 3.9 0 0 1-3-1.3l-38.5-45.9a3.9 3.9 0 0 1 .5-5.4 3.8 3.8 0 0 1 5.4.4l38.5 45.9a3.8 3.8 0 0 1-.4 5.4 4 4 0 0 1-2.5.9z"></path><path d="M72.5 282.9h-.7l-59-10.4a3.9 3.9 0 0 1-3.1-4.5 3.8 3.8 0 0 1 4.4-3.1l59 10.4a3.8 3.8 0 0 1 3.1 4.4 3.8 3.8 0 0 1-3.7 3.2z"></path><path d="M48.7 483.1a3.8 3.8 0 0 1-3.4-1.9 3.9 3.9 0 0 1 1.4-5.2l51.9-30a3.9 3.9 0 1 1 3.9 6.7l-51.9 29.9a3.4 3.4 0 0 1-1.9.5z"></path><path d="M211 621.9a3.1 3.1 0 0 1-1.3-.3 3.8 3.8 0 0 1-2.3-4.9l20.5-56.3a3.8 3.8 0 0 1 4.9-2.3 3.9 3.9 0 0 1 2.3 4.9l-20.5 56.3a3.8 3.8 0 0 1-3.6 2.6z"></path><path d="M424.6 623.8a4 4 0 0 1-3.7-2.6l-20.4-56.3a3.8 3.8 0 0 1 2.3-4.9 3.9 3.9 0 0 1 4.9 2.3l20.5 56.3a3.8 3.8 0 0 1-2.3 4.9z"></path><path d="M589.3 488a4.5 4.5 0 0 1-1.9-.5l-51.8-30a3.7 3.7 0 0 1-1.4-5.2 3.8 3.8 0 0 1 5.2-1.5l51.9 30a3.9 3.9 0 0 1 1.4 5.2 3.8 3.8 0 0 1-3.4 2z"></path><path d="M569.3 288.4a3.9 3.9 0 0 1-3.8-3.2 3.9 3.9 0 0 1 3.2-4.4l58.9-10.4a3.9 3.9 0 0 1 1.4 7.6l-59 10.4z"></path><path d="M484.7 138a3.8 3.8 0 0 1-2.5-.9 3.9 3.9 0 0 1-.5-5.4l38.5-45.9a4 4 0 0 1 5.5-.5 3.9 3.9 0 0 1 .4 5.5l-38.5 45.8a3.7 3.7 0 0 1-2.9 1.4z"></path></g><g fill="#fff"><path d="M323.2 76.2a2.8 2.8 0 0 1-2.9-2.8V13.5a2.9 2.9 0 0 1 5.8 0v59.9a2.8 2.8 0 0 1-2.9 2.8z"></path><path d="M236.7 90.5a2.8 2.8 0 0 1-2.7-2.1l-7.8-26.2a3 3 0 0 1 2-3.6 2.9 2.9 0 0 1 3.6 2l7.7 26.2a2.9 2.9 0 0 1-1.9 3.6z"></path><path d="M103.3 200a3.3 3.3 0 0 1-1.6-.5l-22.8-15.1a2.9 2.9 0 0 1-.8-4 2.8 2.8 0 0 1 4-.8l22.8 15.1a2.9 2.9 0 0 1 .8 4 2.8 2.8 0 0 1-2.4 1.3z"></path><path d="M44.3 372.6a2.9 2.9 0 0 1-2.9-2.5 3 3 0 0 1 2.6-3.2l27.2-3.1a3 3 0 0 1 3.2 2.6 3 3 0 0 1-2.6 3.2l-27.2 3z"></path><path d="M137.3 539.8a2.8 2.8 0 0 1-2-.8 2.9 2.9 0 0 1-.1-4.1l18.8-19.8a2.9 2.9 0 0 1 4.2 4l-18.8 19.8a3 3 0 0 1-2.1.9z"></path><path d="M315.9 608.1a2.9 2.9 0 0 1-2.9-3.1l1.7-27.3a2.9 2.9 0 1 1 5.8.4l-1.7 27.3a2.9 2.9 0 0 1-2.9 2.7z"></path><path d="M496.7 545.6a3 3 0 0 1-2.4-1.2l-16.2-22a3 3 0 0 1 .6-4.1 2.9 2.9 0 0 1 4 .7l16.3 22a2.9 2.9 0 0 1-.6 4 2.7 2.7 0 0 1-1.7.6z"></path><path d="M594.9 381.5h-.6l-26.6-6.5a2.9 2.9 0 0 1-2.1-3.5 2.8 2.8 0 0 1 3.4-2.1l26.6 6.4a3 3 0 0 1 2.2 3.5 3.1 3.1 0 0 1-2.9 2.2z"></path><path d="M540.3 204.8a2.9 2.9 0 0 1-2.6-1.6 3 3 0 0 1 1.3-3.9l24.5-12.2a2.8 2.8 0 0 1 3.8 1.3 2.8 2.8 0 0 1-1.3 3.9l-24.4 12.2z"></path><path d="M409.3 92.4l-1.2-.2a2.9 2.9 0 0 1-1.4-3.8l10.9-25.1a2.9 2.9 0 0 1 5.3 2.3l-11 25.1a2.7 2.7 0 0 1-2.6 1.7z"></path><path d="M160.4 133.5a2.8 2.8 0 0 1-2.2-1.1l-38.5-45.8a2.9 2.9 0 1 1 4.4-3.7l38.5 45.8a2.9 2.9 0 0 1-.4 4.1 2.6 2.6 0 0 1-1.8.7z"></path><path d="M72.5 282H72l-59-10.5a2.9 2.9 0 0 1-2.4-3.3 3 3 0 0 1 3.4-2.4l59 10.4a2.9 2.9 0 0 1-.5 5.8z"></path><path d="M48.7 482.2a2.7 2.7 0 0 1-2.5-1.5 2.8 2.8 0 0 1 1-3.9l51.9-29.9a2.8 2.8 0 0 1 2.9 4.9l-51.9 30a2.3 2.3 0 0 1-1.4.4z"></path><path d="M211 620.9l-1-.2a2.9 2.9 0 0 1-1.7-3.7l20.5-56.3a2.9 2.9 0 0 1 3.7-1.7 2.8 2.8 0 0 1 1.7 3.7L213.7 619a2.8 2.8 0 0 1-2.7 1.9z"></path><path d="M424.6 622.8a3 3 0 0 1-2.8-1.9l-20.4-56.3a2.8 2.8 0 0 1 1.7-3.7 3 3 0 0 1 3.7 1.7l20.5 56.3a2.9 2.9 0 0 1-1.8 3.7z"></path><path d="M589.4 487a2.8 2.8 0 0 1-1.5-.4L536 456.7a3 3 0 0 1-1-4 2.9 2.9 0 0 1 3.9-1l51.9 29.9a3 3 0 0 1 1.1 4 3.1 3.1 0 0 1-2.5 1.4z"></path><path d="M569.3 287.4a2.7 2.7 0 0 1-2.8-2.3 2.9 2.9 0 0 1 2.3-3.4l59-10.4a2.9 2.9 0 0 1 3.4 2.4 3 3 0 0 1-2.4 3.3l-59 10.4z"></path><path d="M484.7 137.1a3.4 3.4 0 0 1-1.9-.7 3 3 0 0 1-.3-4.1L521 86.4a2.8 2.8 0 0 1 4-.3 2.8 2.8 0 0 1 .4 4L486.9 136a2.9 2.9 0 0 1-2.2 1.1z"></path></g></g></g></g></svg>