<svg xmlns="http://www.w3.org/2000/svg" width="598.6" height="695.5" viewBox="0.00135040283203125 0.043540336191654205 598.5706176757812 695.4566040039062" style=""><g><title>summer16_358774730</title><g data-name="Layer 2"><path d="M241.9 695.5H143a15.6 15.6 0 0 1-14.8-10.5L25.8 399.2a15.8 15.8 0 0 1 14.8-21.1H342a15.8 15.8 0 0 1 14.8 21l-100 285.8a15.7 15.7 0 0 1-14.9 10.6zM154.1 664h76.7l89-254.4H63z" fill="#c9ad00" opacity=".5"></path><path d="M241.9 682H143a15.6 15.6 0 0 1-14.8-10.5L25.8 385.7a15.8 15.8 0 0 1 2-14.4 15.6 15.6 0 0 1 12.8-6.7H342a15.8 15.8 0 0 1 14.8 21l-100 285.8a15.7 15.7 0 0 1-14.9 10.6zm-87.8-31.5h76.7l89-254.4H63z" fill="#e5c700"></path><path d="M241.9 678.6H143a10 10 0 0 1-9.5-6.7L31.1 386a10.2 10.2 0 0 1 9.5-13.5H342a10.2 10.2 0 0 1 9.5 13.5l-100 285.8a10.1 10.1 0 0 1-9.6 6.8zm-91.8-20.2h84.7l92.9-265.7H55z" fill="#ddc000"></path><path d="M241.9 670.7H143a4.7 4.7 0 0 1-4.3-2.9L36.4 381.9a4.3 4.3 0 0 1 .6-4.1 4.4 4.4 0 0 1 3.6-1.9H342a4.4 4.4 0 0 1 3.6 1.9 4.3 4.3 0 0 1 .6 4.1l-100 285.8a4.4 4.4 0 0 1-4.3 3zm-95.8-9h92.7l96.8-276.8H47z" fill="#ffea63"></path><path d="M241.9 669.6H143a3.5 3.5 0 0 1-3.2-2.2L37.5 381.5a3.4 3.4 0 0 1 .4-3.1 3.2 3.2 0 0 1 2.7-1.4H342a3.2 3.2 0 0 1 2.7 1.4 3.5 3.5 0 0 1 .5 3.1L245.1 667.4a3.3 3.3 0 0 1-3.2 2.2zm-96.5-6.7h94.2l97.6-279.2H45.4z" fill="#fff"></path><g><path d="M346.7 360.9H27.9A15.7 15.7 0 0 1 13 350.1c-19.2-58.4-17.1-104.1 6.1-136 21.4-29.3 54.7-38.2 73.8-41 8.7-48.9 61.9-71.6 64.4-72.7l1.9-.6c47.2-12.8 42.4-66.7 42.1-69a15.8 15.8 0 0 1 28.4-10.9c27.3 37.2 29.1 66.5 26.2 83.9 32.1 17.1 41.5 59.6 44.2 80 34.5 12.4 57.7 32.6 69.2 59.9 21.3 50.8-7.4 106.4-8.6 108.8a15.8 15.8 0 0 1-14 8.4zM39.5 329.4h297c5.8-14.7 15.2-46.3 3.7-73.6-8.8-20.8-28.7-36-59.3-45.2a15.7 15.7 0 0 1-11.2-14.4c0-.6-3.7-60.5-36.4-67.5-5.2-1.1-9.7-4.3-11.6-9.2a14.9 14.9 0 0 1 1.3-14.2c.7-1.5 4.4-9.9 1.5-24.7-8.9 21-25.8 40.7-55.8 49.2-5.9 2.8-46 22.6-45.5 57.7a16 16 0 0 1-4.6 11.3 15.7 15.7 0 0 1-11.2 4.6c-.4 0-41.9.4-63 29.5-15.5 21.4-17.1 53.9-4.9 96.5z" fill="#b5008e" opacity=".5"></path><path d="M346.7 347.4H27.9A15.7 15.7 0 0 1 13 336.6c-19.2-58.3-17.1-104.1 6.1-136 21.4-29.2 54.7-38.2 73.8-41 8.7-48.9 61.9-71.6 64.4-72.7l1.9-.6c47.2-12.8 42.4-66.7 42.1-69a15.8 15.8 0 0 1 28.4-10.9c27.3 37.2 29.1 66.5 26.2 83.9 32.1 17.1 41.5 59.6 44.2 80 34.5 12.5 57.7 32.6 69.2 59.9 21.3 50.8-7.4 106.4-8.6 108.8a15.8 15.8 0 0 1-14 8.4zM39.5 315.9h297c5.8-14.7 15.2-46.3 3.7-73.6-8.8-20.8-28.7-36-59.3-45.2a15.7 15.7 0 0 1-11.2-14.4c0-.6-3.7-60.5-36.4-67.5-5.2-1.1-9.7-4.3-11.6-9.2a14.9 14.9 0 0 1 1.3-14.2c.7-1.5 4.4-9.9 1.5-24.7-8.9 21-25.8 40.7-55.8 49.2-5.9 2.8-46 22.6-45.5 57.7a16 16 0 0 1-4.6 11.3 15.7 15.7 0 0 1-11.2 4.6c-.4 0-41.9.4-63 29.5-15.5 21.4-17.1 53.9-4.9 96.5z" fill="#d300a4"></path><path d="M346.7 344H27.9a10.1 10.1 0 0 1-9.6-6.9C-.3 280.6 1.6 236.5 23.7 206.2s57.1-37.4 74.1-39.3c5.8-48.7 59.2-71.5 61.7-72.5l1.2-.4c52.2-14.2 46.5-72.5 46.2-74.9a10.1 10.1 0 0 1 18.3-7.1c28.7 39.2 28 68.5 24.4 83.7 34.9 15.4 43.4 62.8 45.4 81 34.7 11.8 57.9 31.3 69.1 58 20.3 48.3-7.2 101.7-8.4 103.9a10.2 10.2 0 0 1-9 5.4zM35.3 323.8h304.9c5.8-13.5 18.5-49.8 5.2-81.4-9.5-22.4-30.6-38.7-62.8-48.4a10 10 0 0 1-7.2-9.3c-.1-.6-3.4-64.7-40.9-72.7a10.1 10.1 0 0 1-7.2-5.9 10.2 10.2 0 0 1 .6-9.3c.4-.7 9.1-16.9-3.3-45.8-5.9 25-21.9 52.2-57.9 62.3-5.2 2.4-49.7 23.7-49.1 63a10.2 10.2 0 0 1-10.2 10.3c-.6 0-44.7.3-67.5 31.7-17.1 23.6-18.6 59-4.6 105.5z" fill="#ba1196"></path><path d="M346.7 338.4H27.9a6.8 6.8 0 0 1-6.4-4.6C3.3 278.4 5 235.3 26.4 205.9s59.5-36.9 74.5-38.1c3.9-48.7 57.5-71.6 59.9-72.6l.8-.2c54.7-14.9 49-76 48.7-78.6a6.7 6.7 0 0 1 12.1-4.7c30.1 41 27.2 70.5 23.2 83.8 37 13.9 44.7 65.3 46.3 81.5 34.8 11.4 58.1 30.5 69.1 56.7 19.7 46.9-7.2 98.9-8.3 101.1a6.9 6.9 0 0 1-6 3.6zM32.8 324.9h309.7c5.3-12 20.5-51.6 6-86-9.9-23.5-31.7-40.4-65-50.4a6.9 6.9 0 0 1-4.8-6.2c0-.7-3.4-67.3-43.5-75.9a6.4 6.4 0 0 1-4.8-3.9 6.8 6.8 0 0 1 .4-6.2c.6-.9 12.2-21.9-7.9-58.8-3.1 23.6-15 58.7-57.3 70.4-4.6 2-52 24.2-51.4 66.2a6.6 6.6 0 0 1-2 4.8 6.3 6.3 0 0 1-4.8 2c-.4.1-46.3.2-70.1 33.1-18.2 24.9-19.6 62.2-4.5 110.9z" fill="#ff59db"></path><path d="M346.7 334.5H27.9a2.9 2.9 0 0 1-2.7-2c-17.7-54.1-16.3-95.9 4.4-124.2 23.5-32.3 64-36.3 75-36.8 1.4-48.6 55.3-71.6 57.7-72.6 58.4-15.9 52-82.2 51.9-82.9a2.9 2.9 0 0 1 1.8-2.9 2.7 2.7 0 0 1 3.3 1c32.6 44.4 25.2 74.2 21.3 83.9 40.5 11.7 46.7 70.1 47.6 81.9 35.1 11 58.3 29.6 69.1 55.3 19 45.2-7 95.6-8.1 97.8a2.8 2.8 0 0 1-2.5 1.5zM30 328.9h315c4.1-8.7 23.4-53 7.2-91.5-10.4-24.6-33.1-42.3-67.5-52.7a2.7 2.7 0 0 1-2-2.6c-.1-.7-3.6-70.3-46.7-79.5a2.7 2.7 0 0 1-2-1.6 2.7 2.7 0 0 1 .2-2.6c.1-.3 15.7-27.6-14.2-73.4-.5 20.1-7.2 65.9-55.7 79.1-3.2 1.4-54.7 24.7-54.1 70.1a2.4 2.4 0 0 1-.8 2 2.8 2.8 0 0 1-2 .8c-1 0-48.3.3-73.3 34.6-19.3 26.5-20.6 65.9-4.1 117.3z" fill="#ffd1f5"></path></g><g><path d="M519.2 627.1h-52.7a15.8 15.8 0 0 1-14.8-10.4l-54.5-152.3a15.7 15.7 0 0 1 1.9-14.4 15.9 15.9 0 0 1 12.9-6.7h160.5a15.7 15.7 0 0 1 14.9 21l-53.3 152.3a15.8 15.8 0 0 1-14.9 10.5zm-41.6-31.5h30.5l42.2-120.8h-116z" fill="#c9ad00" opacity=".5"></path><path d="M519.2 613.6h-52.7a15.8 15.8 0 0 1-14.8-10.4l-54.5-152.3a15.7 15.7 0 0 1 1.9-14.4 15.9 15.9 0 0 1 12.9-6.7h160.5a15.8 15.8 0 0 1 14.9 21l-53.3 152.3a15.8 15.8 0 0 1-14.9 10.5zm-41.6-31.5h30.5l42.2-120.8h-116z" fill="#e5c700"></path><path d="M519.2 610.2h-52.7a9.9 9.9 0 0 1-9.5-6.7l-54.5-152.3a9.8 9.8 0 0 1 1.2-9.2 10.1 10.1 0 0 1 8.3-4.3h160.5a10.1 10.1 0 0 1 8.3 4.3 10 10 0 0 1 1.3 9.2l-53.3 152.3a10.2 10.2 0 0 1-9.6 6.7zM473.6 590H512l46.3-132.1H426.4z" fill="#ddc000"></path><path d="M519.2 602.4h-52.7a4.4 4.4 0 0 1-4.2-3l-54.6-152.3a4.9 4.9 0 0 1 .6-4.1 4.4 4.4 0 0 1 3.7-1.9h160.5a4.5 4.5 0 0 1 3.7 1.9 4.9 4.9 0 0 1 .6 4.1l-53.3 152.3a4.6 4.6 0 0 1-4.3 3zm-49.5-9H516l50.2-143.3H418.4z" fill="#ffea63"></path><path d="M519.2 601.2h-52.7a3.5 3.5 0 0 1-3.2-2.2l-54.5-152.3a3.4 3.4 0 0 1 .4-3.1 3.5 3.5 0 0 1 2.8-1.4h160.5a3.5 3.5 0 0 1 2.8 1.4 3.4 3.4 0 0 1 .4 3.1L522.4 599a3.4 3.4 0 0 1-3.2 2.2zm-50.3-6.7h47.9l51-145.6h-151z" fill="#fff"></path></g><g><path d="M575.1 431.3H405.2a15.9 15.9 0 0 1-15-10.8c-10.9-33.5-9.5-60.1 4.4-79.1 11.1-15.3 27.6-21.4 39.2-23.8 6.1-20.8 25.3-34.1 37.5-39.2l1.9-.7c19.4-5.2 17.2-27.8 17.1-28.8a15.5 15.5 0 0 1 9.9-16.3 15.7 15.7 0 0 1 18.4 5.3c13.8 18.8 16.6 34.4 15.9 45.3 13.4 9.7 19.9 26.9 22.4 41.1 18.1 7.4 30.5 19 37 34.4 12.6 30.2-4.2 62.8-4.9 64.2a15.7 15.7 0 0 1-13.9 8.4zm-158-31.5h147.3c2.5-8.1 4.4-19.7.4-29.1s-12.9-15.6-26.9-19.8a15.7 15.7 0 0 1-11.2-14.4c-.4-8.2-4.4-27.1-13.6-29.1-5.3-1.1-10.1-4-12-9a51.8 51.8 0 0 1-18.3 9.3c-3.4 1.7-19.7 10.2-19.5 23.8a15.7 15.7 0 0 1-15.8 15.9c-.1 0-18.7.3-27.6 12.7-7.3 10.2-6.2 25.8-2.8 39.7z" fill="#005eb5" opacity=".5"></path><path d="M575.1 417.8H405.2a15.9 15.9 0 0 1-15-10.8c-10.9-33.5-9.5-60.1 4.4-79.1 11.1-15.3 27.6-21.4 39.2-23.8 6.1-20.8 25.3-34.1 37.5-39.2l1.9-.7c19.4-5.2 17.2-27.8 17.1-28.8a15.5 15.5 0 0 1 9.9-16.3 15.7 15.7 0 0 1 18.4 5.3c13.8 18.8 16.6 34.4 15.9 45.3 13.4 9.7 19.9 26.9 22.4 41.1 18.1 7.5 30.5 19 37 34.4 12.6 30.2-4.2 62.8-4.9 64.2a15.7 15.7 0 0 1-13.9 8.4zm-158-31.5h147.3c2.5-8.1 4.4-19.7.4-29.1s-12.9-15.6-26.9-19.8a15.7 15.7 0 0 1-11.2-14.4c-.4-8.2-4.4-27.1-13.6-29-5.3-1.2-10.1-4.1-12-9.1a53.6 53.6 0 0 1-18.3 9.4c-3.4 1.6-19.7 10.1-19.5 23.7a15.7 15.7 0 0 1-15.8 15.9c-.1 0-18.7.3-27.6 12.7-7.3 10.2-6.2 25.8-2.8 39.7z" fill="#006cd3"></path><path d="M575.1 414.4H405.2a10 10 0 0 1-9.6-6.9c-10.4-31.7-9.2-56.6 3.5-74 11.3-15.5 28.6-20.6 39.2-22.4 5.5-26.1 33.8-38.2 35.2-38.8l1.2-.4c23.3-6.3 21.5-32 21.2-34.9a10.1 10.1 0 0 1 18.2-7c14.4 19.6 15.9 35.1 14.6 44.8 16.2 9.6 21.5 31 23.1 42.3 18.3 6.8 30.7 17.7 36.9 32.5 11.6 27.8-4 58.1-4.7 59.4a10.1 10.1 0 0 1-8.9 5.4zm-162.4-20.2h155.7c3-8 7.2-23.5 1.6-36.9-4.5-10.5-14.8-18.3-30.5-23a10.3 10.3 0 0 1-7.2-9.3c0-.3-1.9-30.8-18-34.3a10.3 10.3 0 0 1-7.6-5.9 9.5 9.5 0 0 1 .9-9.1 15.8 15.8 0 0 0 1.2-6.1 45.5 45.5 0 0 1-28 21.6c-3.3 1.6-23.3 11.6-23.1 29.1a9.8 9.8 0 0 1-3 7.2 10 10 0 0 1-7.2 3c-.2 0-21.4.3-32.1 15-7.8 10.8-8.7 27.1-2.7 48.7z" fill="#0069cb"></path><path d="M575.1 408.8H405.2a6.8 6.8 0 0 1-6.4-4.6c-10-30.6-9-54.4 3.1-71s29.7-20.1 39.3-21.3c3.8-26 32.3-38.2 33.6-38.7l.8-.3c26.5-7.2 23.8-37.2 23.6-38.5a6.9 6.9 0 0 1 4.3-7 7 7 0 0 1 7.9 2.3c14.9 20.4 15.2 36 13.4 44.7 17.9 8.6 22.7 32.6 23.9 42.9 18.4 6.5 30.8 17 36.9 31.4 11 26.3-3.9 55.3-4.6 56.5a6.6 6.6 0 0 1-5.9 3.6zm-164.9-13.5h160.5c3.1-7.6 9-25.7 2.4-41.5-4.9-11.5-15.9-20-32.6-25a6.6 6.6 0 0 1-4.8-6.2c0-.3-1.8-33.4-20.7-37.4a6.9 6.9 0 0 1-4.4-10.2c.2-.3 3.7-7-.4-19.3-3.9 12.5-12.8 25.1-30.6 30.1-3 1.4-25.5 12.4-25.3 32.3a7.1 7.1 0 0 1-1.9 4.8 7 7 0 0 1-4.9 2c-.2 0-23.1.2-34.8 16.4-8.7 12-9.6 30.2-2.5 54z" fill="#59afff"></path><path d="M575.1 404.9H405.2a2.9 2.9 0 0 1-2.7-2c-9.6-29.2-8.7-51.9 2.5-67.4s32.4-19.5 39.8-20c1.6-25.9 30.2-38.1 31.5-38.7 30.2-8.2 27-41.4 26.8-42.8a2.9 2.9 0 0 1 1.8-2.9 2.8 2.8 0 0 1 3.3 1c16.4 22.4 14.2 38.1 12 44.6 20.3 7 24.2 35.6 24.9 43.5 18.6 6 31 16.1 36.8 30 10.4 24.6-3.8 52-4.4 53.2a2.7 2.7 0 0 1-2.4 1.5zm-167.9-5.6h166.1c2.7-5.9 11.5-27.9 3.4-47-5.3-12.7-17.1-21.9-35.1-27.3a2.8 2.8 0 0 1-2-2.5c0-.4-1.8-36.5-23.8-41.2a2.7 2.7 0 0 1-2-1.6 2.7 2.7 0 0 1 .2-2.6c.3-.6 7.2-12.8-5.4-34.2-1.1 12.2-6.7 32.7-30.3 39.2-2.2 1-28.2 13-27.9 36a2.8 2.8 0 0 1-.8 2 2.8 2.8 0 0 1-2 .9c-.5 0-25.1.1-38.1 17.9-9.8 13.6-10.6 33.9-2.3 60.4z" fill="#d1e9ff"></path></g></g></g></svg>