<svg xmlns="http://www.w3.org/2000/svg" width="517.4" height="896" viewBox="0.01741504669189453 0.00894927978515625 517.41796875 896.0249633789062" style=""><g><title>summer82_267420570</title><g data-name="Layer 2"><path d="M204.1 28.6s6.4-11.2-.4-19-23.6-14.2-32-5.2-5.1 16.9-5.1 16.9a15.4 15.4 0 0 0-5.8 13c.6 8.5 9.2 26 9.2 26s33.7-17.2 34.1-31.7z" fill="#614cd4"></path><path d="M203.7 9.6a28.4 28.4 0 0 0-6.4-5.2c-.1 3.6-1.4 10.6-9.1 14-10.7 4.6-18.8 4.6-18.8 4.6s0 12.9-7.7 16.2c2.4 9 8.3 21.1 8.3 21.1s33.7-17.2 34.1-31.7c0 0 6.4-11.2-.4-19z" fill="#311e69"></path><path d="M269.8 90.1s24.2 7.3 30.2 52.3-.2 93.7 6.8 99.1c13.4 10.4 169-27.1 178-5.5 12.7 30.7-99.4 95.2-187.4 75.7-74.3-16.5-65.3-186.5-27.6-221.6z" fill="#ff6161"></path><path d="M447 256.8c-20.2.3-61.5 21.8-86.7 15.2s-25.7 0-39.8-4-13.7-26.5-13.7-26.5c-7-5.4-.7-54.1-6.8-99.1s-30.2-52.3-30.2-52.3c-37.7 35.1-46.7 205.1 27.6 221.6 71.6 15.8 159.2-23.9 182.5-55.8-8.3-1.4-21 .7-32.9.9z" fill="#ad263d"></path><path d="M48.3 809.7l23 22.7s-18.8 15.2-12.9 33.5c5.1 16.2 28.1 8.5 28.2 16.2.2 15.9-21.5 17.8-43.8 7.7-11.6-5.2-10.2-14-15.5-23.6-7.2-13.3-23.5-16.1-22.5-33.5.5-9.3 34.1-23.3 43.5-23z" fill="#ff6161"></path><path d="M287.5 867.7c5.3-7.9 6.7-16.6 7.3-23.7h26.5s-1.8 9 2.7 16c1.9 3.1 43.2 23.1 43.7 27.3.9 7-72 7.1-84.1.3-6.4-3.5-2-11.2 3.9-19.9z" fill="#ff6161"></path><path d="M408.2 572.8c-10.1-127.9-70.9-220.7-91.2-261.6-8.7-23-30.9-75-33.7-112.3-4-51.6 25.4-100-32.4-117.4-33.8-10.2-141.7-8-165.1 56.9-7.5 20.7 56.3 97.7 53.4 153.3-.5 8.6-11.5 58.6-14.7 67.6-31.7 88.8 10.2 205.9-.1 257.7-4.3 21.7-100 175.7-92.5 216.8 2.3 13.2 21.6 16.7 33.9 10.1 86.5-46.4 136.9-146.6 146.9-174.8 23-64.8 21.5-246.2 47.5-197.9 4.5 8.4 46.7 124.3 46.7 135.9.1 37.3-52.9 257.9 1.5 257.9 52.4 0 103.6-244.5 99.8-292.2z" fill="#ff6161"></path><path d="M294 260.3v50.5l3.4.9c18.4 4.1 37.8 4.4 57 2.2-15.5-22.5-60.4-53.6-60.4-53.6z" fill="#311e69"></path><path d="M237.6 510.5c-13.1 15.3-37.8 47.2-43.7 74.6-8 37.6-68.5 144.4-84.6 170.6s-62.3 66.4-57.1 84c1 3.6 6.4 4.6 14.2 3.9 86.1-46.5 136.3-146.4 146.3-174.5 12.9-36.5 18.1-110 24.9-158.6z" fill="#ad263d"></path><path d="M172.6 46.4L164.8 89c.8 5.7 33.9 17 41.8 8.5 2.4-2.5.8-7.9-2.6-13.5l-19.5-30.1z" fill="#ff6161"></path><path d="M188.4 60l-15.3-.6a27.7 27.7 0 0 0 12 16.2 26.2 26.2 0 0 0 16.1 4z" fill="#311e69"></path><path d="M194.1 571.1c16.5-13.4-50.6-22.6-72.3-25.2 1.5 11.6 2.7 22.5 3.5 32.7 13.6 1.7 52.7 5.5 68.8-7.5z" fill="#311e69"></path><path d="M178.7 31.8l-5.5 23.4A14.6 14.6 0 0 0 185 71.9c6.2 1.2 10.2.8 17.9-.8s9.3-7.8 8.6-16.3a77.6 77.6 0 0 0-7.4-26.2c-5.5-11.9-20.6-11.7-25.4 3.2z" fill="#ff6161"></path><path d="M193.8 47.3a38.6 38.6 0 0 0 13-.7s.6 4.9-2.3 6.9-8.5-.4-10.7-6.2z" fill="#fff"></path><path d="M317 311.2c-8.7-23-30.9-75-33.7-112.3-4-51.6 25.4-100-32.4-117.4-9.7-2.9-25.4-4.8-43.5-4.5 9.2 12.4 29.9 42.3 33.9 66.1 5.2 30.7-7.6 85.9.2 124.4s61.4 89.4 105.2 99.9c-12.1-23.9-23.1-42.8-29.7-56.2z" fill="#ad263d"></path><path d="M356.9 534.7c8.9-22.3-42.6-6.2-71.3 4.2 4.9 13.9 9.7 27.9 13.5 39.6 17.4-6.8 49.1-21.9 57.8-43.8z" fill="#311e69"></path><path d="M204.2 62.5c-7.4-.8-12 10.6-25.8 1.3-2.6-1.8-4.2-6.4-5.1-9.1v.5A14.6 14.6 0 0 0 185 71.9c6.2 1.2 10.2.8 17.9-.8 4-.8 6.5-3.5 7.8-7.5-1.3.3-4.2-.8-6.5-1.1z" fill="#ad263d"></path><path d="M180.1 41a21.3 21.3 0 0 1-.7-4.4c-.3-2.8-1.3-7-5.3-4.6-5.8 3.6-4.8 17.3 2.3 17.8 5.2.5 4.8-5.2 3.7-8.8z" fill="#ff6161"></path><path d="M317 311.2c-1-2.7-2.2-5.7-3.5-9.1-43.2 14.6-148.4 47.9-184.1 38.7-2 8.5-3.9 15.6-4.9 18.5-23.6 66.1-6.4 147.8-.4 206.7a505 505 0 0 0 106.4 3.9c7.7-66.5 13.1-129.6 29.7-98.7 2.8 5.2 20 51.5 32.7 88.8 38-9.7 75.3-26.8 104.7-56-21.1-92.4-64.1-159.6-80.6-192.8z" fill="#614cd4"></path><path d="M133.1 253.4c7.9-14.8 20.4-45.5 8.1-77.1-7.9-20.1-26.3-8-37 12.9 10.1 19.6 21.9 42.2 28.9 64.2z" fill="#311e69"></path><path d="M98.9 116S41.4 174.6 6.5 272.7s77 92.3 194.7 68.5c13-2.6 42.6-10 40.1-34.9S92.4 276.7 92.4 276.7s55.2-70.5 54.5-110.8-48-49.9-48-49.9z" fill="#ff6161"></path><path d="M129.4 340.8c-2 8.5-3.9 15.6-4.9 18.5a180.3 180.3 0 0 0-6 20.6c18.4-.7 48.9-6.8 58.1-38.8.2-.7.3-1.3.5-1.9-19.8 3.2-36.9 4.4-47.7 1.6z" fill="#311e69"></path><path d="M470.9 229.8s8.7-8.1 10-11.2-1.8-11.7 1.4-12.2 6 8.4 6 12.4 26.9-7.4 28.9-3.7-9.4 7.2-9.6 11.3 3.2 14.1-11.6 20.8-40.8 1.2-25.1-17.4z" fill="#ff6161"></path><path d="M408.2 572.8c-5-63-22.2-117.5-40.9-161.5l-2.9 119s7.8 93.7 1.6 118.6-51 147.1-49.4 174a80.3 80.3 0 0 0 9.7 33.2c45.5-44.4 85.2-241 81.9-283.3z" fill="#ad263d"></path><g fill="#b1a9ff"><path d="M293.3 458.5c-12.3-3.7-23.3 11.1-29.3 21.6 4.2 10.6 11 29 18 48.6 12.4-11.5 26.9-32.6 32-39 7.5-9.6-2-25.7-20.7-31.2z"></path><path d="M113.5 469.8c.9 13.5 2.3 27 3.8 39.9 8-.4 17-2.7 24.2-7.2 19.5-12.1 16.1-33.6-5.4-41.7-8.4-3.2-16.2 1.8-22.6 9z"></path><path d="M173 501.1c-18.7 8.1-1.1 32.6 13.3 35.4s10.3-22 10.3-22-4.9-21.4-23.6-13.4z"></path><path d="M215.4 393.6c-16.1-8.7-34.4 26.2-34.4 26.2-11.5 16.8.8 35 20.2 26.9s30.3-44.3 14.2-53.1z"></path><path d="M134.8 416.2c5.3 2 27.7-20.2 20.9-26.2-2.3-2-5.4-2.1-8.5-1.3-7.9 2-13.6 9-14.6 17.2-.5 4.7-.4 9.3 2.2 10.3z"></path><path d="M271.3 361.4s-12.9 7.8-4.8 24.4 16.1 1.6 17.4-14.1-12.6-10.3-12.6-10.3z"></path><path d="M337 503.1c-14.2 7.9-15.2 36.3 2.3 40.7a222.5 222.5 0 0 0 25.4-13.8c-3.7-11.8-13-35-27.7-26.9z"></path></g><path d="M317 311.2c-1-2.7-2.2-5.7-3.5-9.1-11.3 3.8-26.8 8.9-44.3 14.2s32.7 44.5 45.8 75.9 1.5 31.6 20.1 44.4c10.6 7.2 21.7 54.3 29.3 93.7a192.9 192.9 0 0 0 33.2-26.3c-21.1-92.4-64.1-159.6-80.6-192.8z" fill="#311e69"></path><path d="M226.2 479.6c-16.2 25.5-27.9 91.4-27.9 91.5 10.3 0 21.1-.4 32.2-1.2 5.4-46.8 9.7-92 17.6-103.8-5.3-1.7-13.1-.5-21.9 13.5z" fill="#311e69"></path><path d="M137.5 139c-1.1 10.9-3.8 33.4-6.4 39.8-3.5 8.6-25.7 18.2-37.3 38.3s-25 65.7-1.4 59.6c0 0 55.2-70.5 54.5-110.8a43.8 43.8 0 0 0-9.4-26.9z" fill="#ad263d"></path><path d="M201.2 317.4c-14.6 4-101.8 9.6-125 4s-38.3.5-54.9-2.5c-10.2-1.8-15.8-19.6-18.7-33.2-20.6 84.5 86.3 78.2 198.6 55.5 11.2-2.2 34.6-8 39.4-25.4-8-12.7-25.4-2.3-39.4 1.6z" fill="#ad263d"></path><path d="M224.8 303.7s8.7-8.1 10-11.1-1.8-11.8 1.4-12.3 6 8.4 6 12.4 26.9-7.3 28.9-3.6-9.4 7.2-9.6 11.2 3.2 14.2-11.6 20.8-40.8 1.3-25.1-17.4z" fill="#ff6161"></path></g></g></svg>