<svg xmlns="http://www.w3.org/2000/svg" width="341" height="896" viewBox="0 -0.004012783523648977 340.98883056640625 895.9270629882812" style=""><g><title>summer5_201194256</title><g data-name="Layer 2"><g fill="#f6b319"><path d="M273.6 531.1c-.3-1.1-.8-2.2-1.2-3.3l-1.2-2.6-1.2-2.6a63.4 63.4 0 0 1-2.3-7.4l-.4-1.4c-.3-1-.5-2-.8-3-1.1-3.9-2.2-7.8-3-11.8a72.7 72.7 0 0 0-4.5-13.7 20 20 0 0 0-1.5-2.9l-5.3-7.9c-1.3-1.8-2.6-3.7-3.8-5.6a16.1 16.1 0 0 0-8.3-6.3 34.9 34.9 0 0 1-10.3-6.3 61.6 61.6 0 0 0-11.8-8.1l-4.9-2.7-2.8-1.6-2.8-1.4-3.6-2a9 9 0 0 0-4.6-1.1 9.8 9.8 0 0 0-2.3.2l-1.9.3a30.2 30.2 0 0 1-8.4 1h-1l-2.7-.2-4.4-.2-6.7.3-1.5.3h-.5l-.7.2-1 .2a23.6 23.6 0 0 0-3.9-11.4 3.1 3.1 0 0 1-.5-1l-.3-.5-.8-1.7c-.7-1.3-1.3-2.6-1.9-3.9a20.9 20.9 0 0 1-.8-2.3l-.2-.8a21.7 21.7 0 0 0-1.7-4.2 6.1 6.1 0 0 0-1.2-1.5 3 3 0 0 0-1.8-.6 2 2 0 0 0-1.9 1 54.4 54.4 0 0 0-2.4 5 1.6 1.6 0 0 0 .8 2.2l1.5.6.5.2a13.4 13.4 0 0 1 1 3.8 3.9 3.9 0 0 0 1 2.6 4 4 0 0 1 .9 2 12.6 12.6 0 0 0 2.8 5.2 4.8 4.8 0 0 1 1 2.3l.3 1.3c.2 1.3.5 2.6.8 3.9a11.1 11.1 0 0 1 .3 5.1v1.3a28.6 28.6 0 0 0-.3 4.2 62 62 0 0 1-.8 7.4 12.1 12.1 0 0 1-.5 1.8c-.2.8-.4 1.6-.5 2.3a14.6 14.6 0 0 1-2.5 6.3 14 14 0 0 0-2.2 6.8c-.1 1.1-.1 2.1-.2 3.1-.2 2.7-.3 5.5-.3 8.2a61.8 61.8 0 0 1-.3 6.5 4.4 4.4 0 0 1-2.6 3.5 25.5 25.5 0 0 0-5.9 3.7l-.3.2a14.9 14.9 0 0 0-4.8 5.4 3.2 3.2 0 0 1-1 1.1l-4 2.6a11.3 11.3 0 0 1-2.1 1.2l-.8.5-3.2 1.6-2.3 1a43.1 43.1 0 0 0-7.4 3.8l-.7.5-1.8 1.2a57.2 57.2 0 0 0-8 6 15.3 15.3 0 0 0-3.9 4.8l-4.7 8.2-.8 1.2a17.4 17.4 0 0 0-1.1 1.8l-3.7 7.6-2.6 5.4c-.9 1.9-1.9 3.9-2.9 5.8l-2.2 3.9c-.7 1.3-1.4 2.5-2 3.8l-.4.7a59 59 0 0 1-4.9 8 27.8 27.8 0 0 0-1.9 2.7c-2.6 4.5-5.8 10.4-6.9 17.3l-.3 1.5-.3 1.5c-.3 1.4-.5 2.8-.8 4.2-.6 3.4-1.3 7-1.7 10.6a143 143 0 0 0-.8 18.4v1.1c0 1.3 0 2.6.1 3.9a107.3 107.3 0 0 0 2 13.2c1.2 4.9 2.4 9.9 3.5 14.7l1.8 7.2.2.8a75.4 75.4 0 0 1 2.2 11.7 4.9 4.9 0 0 1 .1 1.2c.1 1.1.2 2.2.4 3.3a137.8 137.8 0 0 0 4.4 18.6c.3 1.1.7 2.2 1 3.2l1.5 4.6a65.9 65.9 0 0 0 6.1 14.6 14.6 14.6 0 0 0 4 4.7l.5.4a22.3 22.3 0 0 1 2.4 1.9 22.3 22.3 0 0 0 5.4 3.8l2.5 1.4c2.9 1.6 5.9 3.2 8.8 5.1a42 42 0 0 0 10.9 5.1 63.9 63.9 0 0 1 9.3 3.7l3.4 1.9 6.8 3.5a58.7 58.7 0 0 1 8.9 5.4l1.7 1.3a30.6 30.6 0 0 0 4.7 3.3 10.2 10.2 0 0 0 4.6 1.2 8.6 8.6 0 0 0 2.7-.5l2.6-.7a13.1 13.1 0 0 0 6.5-3.5l2.9-2.8 2-2 2-1.7 3.3-2.5 2.2-1.5c2.9-2.2 6.1-4.1 9.2-6l4-2.5 3.8-2.4c4.2-2.6 8.6-5.3 12.6-8.3l.2-.2a5.6 5.6 0 0 0 2.2-2.6 2.5 2.5 0 0 1 .4-.7l.2-.2.9-1.2 2.4-3.2a64.2 64.2 0 0 0 8.9-15.5c1.1-2.7 2.1-5.5 3.1-8.2l.2-.5c1.2-3.2 2.1-5.8 3-8.3s1.7-5.1 2.5-7.6a50.9 50.9 0 0 0 2.1-8.8c.4-3.1.8-6.4 1.1-9.7s.5-6.8.8-10.1l.2-2.7a24.5 24.5 0 0 0 .2-2.7 49.8 49.8 0 0 1 .5-5.3 70.7 70.7 0 0 0-.3-18.3c-.5-3.9-1.2-8.1-2-12.7a73.9 73.9 0 0 0-2.2-9.8c-2.3-7-4.5-14.2-6.6-21.2l-.2-.7a22.4 22.4 0 0 1-1-3.7c-.4-2.7-.8-5.3-1.1-8s-1-6.6-1.5-9.9a28.7 28.7 0 0 0-1.6-6.6c-1.7-4.7-3.8-9.8-6.4-16.1a15.8 15.8 0 0 0-4.5-6.4c-2.4-2.1-5.2-4.5-8.1-6.8s-4.4-3-6.3-4.2l-7.8-4.8-3.6-2.1a22.6 22.6 0 0 1-6.4-6l-1.4-1.9a36.7 36.7 0 0 0-5.1-6.1c-2.4-3.2-5.7-5.6-8.9-7.8l-1.8-1.3h-.1c-1.9-1.4-3.6-2.7-4.4-4.8l-.5-1.3c-.6-1.5-1.1-3-1.6-4.6a13.5 13.5 0 0 1-.4-7.2 22.7 22.7 0 0 0 .5-3.5c0-.5.1-1 .1-1.5a2 2 0 0 0 .1-.7 5.3 5.3 0 0 1 .1-1.3v-.3c.7-2.9 1.4-5.9 2.2-8.9v-.2a37.3 37.3 0 0 0 1.7-8.2c.1-.4.1-.8.2-1.3l.2.9c.5 1.4.9 2.7 1.3 4.1l2.1 6.4c.2.8.5 1.6.7 2.3.7 2.2 1.4 4.4 2.2 6.5s1.5 3.6 2.4 5.4l.3.6a99.2 99.2 0 0 0 11.6 18.7 46.8 46.8 0 0 0 11.6 10.5 63.7 63.7 0 0 0 8.2 4.4 21.9 21.9 0 0 1 7.6 5 18.5 18.5 0 0 0 1.4 1.4l1.4 1.3 3.5 3.1a23.5 23.5 0 0 0 13.8 5.4h18a26 26 0 0 1 6.7.7 21.4 21.4 0 0 0 5.2.5h3.4l2.5-.6a1.9 1.9 0 0 0 1.2-2.6zm-92.4-88.6a47.2 47.2 0 0 0 15.3-1 9.9 9.9 0 0 1 7.6 1.1c4.4 2.6 8.9 5.1 13.3 7.5l1.8 1a43.6 43.6 0 0 1 7 4.8l4.3 3.5a35.5 35.5 0 0 0 9.2 5.2 16 16 0 0 1 8 6.6c.8 1.3 1.7 2.6 2.6 3.9l2.3 3.4c1.4 2.1 2.6 4 3.7 5.9a40.8 40.8 0 0 1 3.4 8.5l2.1 8.1.9 3.6c.5 2.1 1.1 4.3 1.7 6.5l.6 2.4a68.3 68.3 0 0 0 2.5 8.5c.8 1.8 1.6 3.7 2.3 5.5a9.3 9.3 0 0 0 .5 1 24.9 24.9 0 0 1 1.1 2.9h-.1l-.5.3a22.9 22.9 0 0 1-8.3-.1 36.1 36.1 0 0 0-8.5-.8h-10.1c-2.4 0-5.2 0-8-.2a20.2 20.2 0 0 1-10.6-4.1 46.8 46.8 0 0 1-6-5.2 32.9 32.9 0 0 0-10.6-7.3 45.6 45.6 0 0 1-18-13.7 106 106 0 0 1-6.5-9.5 121.4 121.4 0 0 1-6.8-13.4 83.6 83.6 0 0 1-2.7-8 21.7 21.7 0 0 0-.7-2.4 24.1 24.1 0 0 0-.8-2.5 24.1 24.1 0 0 1-.8-2.5c-.3-.9-.5-1.8-.8-2.7s-.5-1.8-.7-2.6-.5-1.5-.8-2.2a3.6 3.6 0 0 0-.4-1.1l-.4-1.3a14.3 14.3 0 0 1-.9-2.7 17 17 0 0 1-.1-3.9v-.8a1.1 1.1 0 0 1 .9-1.1 11.5 11.5 0 0 1 2.8-.7l6.4-.6h1.1a4.8 4.8 0 0 1 1.7.2zm-25.7 59.4c2.4 0 4.9-.2 8-.5h1.3a9.3 9.3 0 0 1 5.9 2.1 64.4 64.4 0 0 1 12.6 13.1c1.1 1.7 2.3 3.3 3.5 4.9a10.9 10.9 0 0 0 2.9 2.7c4.1 2.6 8.6 5.4 13.7 8.3a72.4 72.4 0 0 1 10.5 7.6l.7.5 2.9 2.5a23.5 23.5 0 0 1 5.5 8.2c.5 1.1.9 2.3 1.4 3.4l.6 1.6c.7 1.6 1.3 3.3 1.9 5l.5 1.2c.7 2.1 1.5 4.2 2 6.3a52.5 52.5 0 0 1 .9 5.5 8.8 8.8 0 0 1 .2 1.7l.3 2.5c.1 1.1.3 2.3.5 3.5a118.6 118.6 0 0 0 4.5 19c1.5 4.3 2.8 8.7 4.1 12.9l.3 1.2a91.8 91.8 0 0 1 3 13.6c.7 5 1.3 9.3 1.7 13.2a49.8 49.8 0 0 1 0 12.2c-.2 1.7-.3 3.4-.5 5.1s-.1 1.9-.2 2.9-.3 3.3-.5 4.9-.2 2.9-.4 4.3a9.7 9.7 0 0 1-.1 1.7v1c-.1.8-.1 1.7-.2 2.5a56.3 56.3 0 0 1-.5 5.9c-.1.6-.1 1.1-.2 1.6a57.5 57.5 0 0 1-1.5 7.2c-.6 1.7-1.1 3.4-1.7 5.2s-1.9 6.1-3 9.1l-1.3 3.4a126.3 126.3 0 0 1-6.3 15.3 32.7 32.7 0 0 1-1.8 3.3 96.6 96.6 0 0 1-7.6 10.2 31.7 31.7 0 0 1-7.7 6.6l-5.7 3.6-13.5 8.6c-1.5 1-3 2-4.4 3.1l-2.4 1.7-1.5 1-.8.5a18.7 18.7 0 0 0-4 3.2c-1.7 1.8-3.5 3.4-5.4 5.1a6.2 6.2 0 0 1-2.2 1.4 46.5 46.5 0 0 1-6.4 2h-1.3a6.2 6.2 0 0 1-3.8-1.3l-1.9-1.5-2.1-1.5a66.4 66.4 0 0 0-9.8-6.2l-4.2-2.2-4.7-2.4c-2.4-1.2-5.1-2.4-8.3-3.8l-3.2-1-.9-.2a44.6 44.6 0 0 1-10.5-5.1l-6.9-4-4.1-2.3-2.7-1.5-.7-.5a11 11 0 0 0-2.8-2.5l-1.3-.9a5.7 5.7 0 0 1-1.1-1.1 76.2 76.2 0 0 1-7.9-16.9c-1.8-5.8-3.7-11.8-5-17.8l-.3-1.2c-.3-1.6-.7-3.3-1-5s-.6-3.3-.8-5.1a107.8 107.8 0 0 0-3-16.3c-1.5-6-3-12.3-4.4-18.8a112.5 112.5 0 0 1-2-11.3 38.8 38.8 0 0 1-.4-4.8c0-.7-.1-1.4-.1-2.1a107.9 107.9 0 0 1 .2-11.4c0-.9.1-1.7.1-2.6a96.9 96.9 0 0 1 2.3-16.8v-.4c.5-2.4 1.1-4.9 1.5-7.4a42.5 42.5 0 0 1 3.5-9.5 71 71 0 0 1 5.9-9.6 35.1 35.1 0 0 0 2.8-4.5c2.1-3.8 4.1-7.7 6.1-11.5s3.4-6.8 4.8-9.9a145 145 0 0 1 7-13c.9-1.4 1.7-2.9 2.5-4.4a16.6 16.6 0 0 1 3.2-4.3 41.2 41.2 0 0 1 6.9-5.6l1.7-1.2 1.2-.8a61.1 61.1 0 0 1 9.5-4.9l.7-.2a24.4 24.4 0 0 0 5.2-2.9 36.8 36.8 0 0 1 3.9-2.4l.5-.2a6.2 6.2 0 0 0 3.2-3.4 4.4 4.4 0 0 1 1.6-2.2c1.7-1.4 3.7-2.9 5.8-4.4a9 9 0 0 1 5.5-1.8zm5.8-20.1c0 .3-.1.6-.1.9a15 15 0 0 0-.3 3.7 1.9 1.9 0 0 0 .1.8 7.8 7.8 0 0 0 .3 2.2 21.7 21.7 0 0 1 .7 2.4 18.4 18.4 0 0 0 2.1 5.5 5.3 5.3 0 0 1 .8 1.5l.3.5a54.9 54.9 0 0 1-7.9.5h-1.6c0-.3.1-.5.1-.7a13.8 13.8 0 0 0 .3-2c.2-2.1.3-4.3.5-7s.1-3.3.2-4.9.1-4.1.3-6.2a9.2 9.2 0 0 1 1.6-5.2c2.6-3.8 3.3-8.2 4-12.5a51.1 51.1 0 0 0 .5-5.5l.3-3c.1-1.3.2-2.6.4-3.9a11.8 11.8 0 0 0-.3-5.2 25.2 25.2 0 0 1-1.1-5 6.3 6.3 0 0 0-1.7-3.8 10.7 10.7 0 0 1-2.3-4.5 7.1 7.1 0 0 0-1.1-2.1 6.1 6.1 0 0 1-.9-2.6 28.1 28.1 0 0 0-.8-3.1c-.1-.3-.3-.7-.4-1.1l1.5-3.2v-.2a7.3 7.3 0 0 1 .7 1.9v.4a18.2 18.2 0 0 0 1.6 4.3 22.4 22.4 0 0 1 1.3 2.7c.2.5.5 1 .7 1.6l.4.7a18.3 18.3 0 0 0 1.3 2.4 20.5 20.5 0 0 1 3.2 10.8c.2 4.6.3 8.5.2 12.2a37.8 37.8 0 0 1-1.7 10.5 27.2 27.2 0 0 0-1.1 3.8c-.2 1-.5 2-.7 3a30.4 30.4 0 0 0-1.2 6.7c.1.9-.1 1.8-.2 2.7zm-6.2-64.5a4.3 4.3 0 0 1-1.3 2.6.4.4 0 0 1-.7 0h-.1l1.7-3.3.2-.4v.3a2.9 2.9 0 0 1 .2.8z"></path><path d="M107.3 662.5h-.7a1.6 1.6 0 0 0-1 1.1 1.7 1.7 0 0 0 .4 1.4l1.2.8h.2l.7.2a1.1 1.1 0 0 0 .9-.4 1.6 1.6 0 0 0 .4-1.2 2.2 2.2 0 0 0-2.1-1.9z"></path><path d="M179.2 722.3v.2h.3a3 3 0 0 0 2.6-2.1 1.4 1.4 0 0 0-.8-1.5 1.2 1.2 0 0 0-1.6.4 18.6 18.6 0 0 0-1 2c-.1.3.1.6.3.9z"></path><path d="M132.1 552.6a1.8 1.8 0 0 0-1.3.6 1.8 1.8 0 0 0-.4 1.4 1.4 1.4 0 0 0 .7.8.1.1 0 0 0 .1.1h.4c1.7 0 2-.9 2.1-1.2a1.7 1.7 0 0 0-1.6-1.8z"></path><path d="M226.9 627.8h.4a1.7 1.7 0 0 0 1.5-.7 1.8 1.8 0 0 0 .5-1.3 1.2 1.2 0 0 0-1.2-1.1h-.1a1.8 1.8 0 0 0-1.5.7 1.6 1.6 0 0 0-.3 1.3 1.2 1.2 0 0 0 .6.8c0 .2.1.2.1.3z"></path><path d="M222.1 618.4h.1a1.9 1.9 0 0 0 1.5-1.5 1.1 1.1 0 0 0-.3-.8 1.6 1.6 0 0 0-1.1-.5h-.1a1.7 1.7 0 0 0-1.6 1.3 1.6 1.6 0 0 0 .3.9 1.6 1.6 0 0 0 1.2.6zm0-.5z"></path><path d="M126.1 631.7a1.3 1.3 0 0 0-1.2 1.1 1.6 1.6 0 0 0 .3.9 1.9 1.9 0 0 0 1 .5h.1a1.2 1.2 0 0 0 1.2-1.1 1.3 1.3 0 0 0-.4-1 1.1 1.1 0 0 0-1-.4zm.2 2z"></path></g><path d="M100.3 205.5c-5.5-4.4-5.1-11.6 2.1-14 1.6-11.9 3.3-23.9 5.3-35.8s3.6-24 5.6-36 4.3-23.8 6.6-36.1c-2.8-5.9-2.9-12.8-4.2-19.5-5.2-4.7-7.5-10.9-9.1-17.6a50.9 50.9 0 0 1-1.3-10.3 11 11 0 0 0-.2-2.6c-1.2-5.6.2-11 1.3-16.5a7.8 7.8 0 0 1 2.7-4.9c2.8-2.1 5.4-4.3 8.8-5.5A87.3 87.3 0 0 1 147.8.5a54.6 54.6 0 0 0 5.7-.4A7.6 7.6 0 0 1 155 0c6.2 1 12.5.3 18.7.5s11.1-.1 16.6.9a22.9 22.9 0 0 0 3.7.1A109.2 109.2 0 0 1 224.9 8a28.5 28.5 0 0 1 11.3 7.1 18.1 18.1 0 0 1 4 6.7 7.6 7.6 0 0 1-.3 6.9 8.3 8.3 0 0 0-.9 4.6 70.6 70.6 0 0 1-8.7 35.4 7 7 0 0 0-.9 2.9 30.7 30.7 0 0 1-10.1 19.6c.6 4.1 1.1 8.4 1.6 12.7s.9 6.5 1.2 9.8c.6 7.6 1.9 15.1 3 22.6s2.3 15.5 3.5 23.2 2.3 12.6 3.4 18.9 1.9 11.3 2.8 16.9a4.1 4.1 0 0 0 .1 1.1c1.6 5.5 1.7 11.2 2.7 16.8.6 3.6.9 7.2 1.4 10.9s.8 6.8 1.3 10.3 1.1 6.8 1.6 10.2c1.3 10.5 3.1 20.9 5.1 31.3 2.5 12.7 4.9 25.5 7.2 38.3 1 5.8 1.8 11.6 2.6 17.5s1.9 13.7 2.8 20.6c.4 3.2.4 6.5 1 9.8a20.6 20.6 0 0 0 2.5 6.8 50.2 50.2 0 0 0 6.8 9.1 112.1 112.1 0 0 1 19.7 28.1c3.7 7.4 7.4 14.9 10.8 22.5 4.9 10.9 8.2 22.4 11.3 34 2.5 9 4.6 18.1 6.7 27.2 1.4 6.6 2.6 13.3 3.8 19.9s2.5 13.6 3.8 20.5c1.8 9.3 3.6 18.7 4.9 28.1s2.2 16.8 3.1 25.3 1.9 14 2.7 21.1.8 11.4 1.4 17.1c1 10.2.6 20.5 1.3 30.7s.7 19.4.9 29.1a23.1 23.1 0 0 0 .3 3.7 28.4 28.4 0 0 1 0 7.7 32.9 32.9 0 0 0 0 9.4 44.1 44.1 0 0 1 .3 5.2c0 13.5.2 27.1 0 40.6-.1 9-.4 18.1-1.1 27.1-.4 4.3-.7 8.6-.7 12.9a173.5 173.5 0 0 1-1.4 19.2 112.7 112.7 0 0 1-6 26.9 86.8 86.8 0 0 1-14.3 26.4c-2.9 3.7-6.7 6.5-10.5 9.2a66.8 66.8 0 0 1-16.1 8.4 263.2 263.2 0 0 1-28.5 8.1l-3.1.4c-5.5.5-11 1-16.5 1.9a177.8 177.8 0 0 1-21.7 2.4c-4.9.3-9.7 1.1-14.5 1.6h-1c-5.9.5-11.8.6-17.6 1.4-8.7 1.2-17.4.9-26 1.6s-20.2-.4-30.2-1.2c-2.8-.3-5.6-.5-8.4-.9l-11.1-1.5a167 167 0 0 1-55.9-18.7 92.4 92.4 0 0 1-31-27.3c-2.1-2.8-4-5.8-5.8-8.7a50.4 50.4 0 0 1-3.9-8.5c-3.5-10.2-5.8-20.7-8.1-31.2-1.8-8.3-2.8-16.7-3.9-25.1-.7-4.8-.9-9.7-1.3-14.5s-1.2-10.7-1.7-16a22.3 22.3 0 0 1-.2-3.7C.2 731 0 723.5 0 716c.1-17.5.2-35.1.4-52.6.1-8 .4-16 1.2-23.9.6-6.4.7-12.8.7-19.3s.3-15.9 1.1-23.9c1-11.1.6-22.2 1.1-33.3.3-7.4.4-14.9 1.2-22.3.9-9.1 2-18.2 3.5-27.3s4-19 6.1-28.4c3.5-16.2 9.2-31.6 15.2-47a253.6 253.6 0 0 1 12.3-25.8c2-3.8 4.3-7.5 6.4-11.3a114.1 114.1 0 0 1 16.1-21.7c2.6-3 5.2-6.1 7.9-9a14.9 14.9 0 0 0 4.1-9.3c.8-7.6 1.5-15.2 2.4-22.8s1.9-15.8 3-23.7 2.5-13.3 3.6-19.9 2.5-15.4 3.6-23.1c.9-5.3 1.6-10.7 2.4-16 1.3-8.5 2.6-17.1 4-25.6s2.5-14.7 3.8-22c.1-.6.1-1.3.2-2.3zm2.5 4.7c-.8 4.7-1.7 9.3-2.4 13.9-1.2 7.9-2.3 15.8-3.5 23.7-1.6 10.2-3.2 20.5-4.9 30.7-.8 5.3-1.7 10.6-2.6 15.9s-2.6 12.9-3.6 19.4-1.6 12.4-2.4 18.6c-.3 3-.6 6.2-1.1 9.2a132.4 132.4 0 0 0-1.9 16.5 22.6 22.6 0 0 1-6.2 15.6c-2.7 2.7-5.2 5.6-7.8 8.4a123.4 123.4 0 0 0-11.9 15.1 265.4 265.4 0 0 0-21.6 42.1c-5.8 14.3-11 28.8-14.5 43.9-3 13-6.2 25.9-8 39.2-1.1 8-1.9 16.1-2.6 24.2s-.9 15.3-1.2 22.9c-.2 5.1-.2 10.1-.4 15.1-.1 3.1-.5 6.3-.5 9.4-.3 13.2-.1 26.4-1.1 39.5-.5 6.8-.6 13.5-1 20.3-.7 10.7-.7 21.5-1 32.3-.4 13-.2 26-.2 39.1 0 2.2 0 4.5.2 6.7.5 6.8 1.1 13.5 1.7 20.2.4 5 .8 10 1.3 15.1.3 3.6.6 7.2 1.1 10.8 1.3 7.9 2.5 15.8 4.1 23.6s3.6 14.8 5.4 22.2A27 27 0 0 0 21 833c3.1 3.5 5.5 4.9 9.3 7.7 6.1 4.5 12.3 9.1 18.6 13.4 4.4 3 8.9 6 13.6 8.6 11.4 6.3 23.7 9.5 36.5 11.6 4.1.7 8.2.9 12.4 1.3 5.8.5 11.7 1.3 17.6 1.6 8.1.3 16.3.3 24.5.4s18.3-.1 27.5.1l8.1.2c3.1 0 6.2-.3 9.3-.5s6.1-.1 9.1-.3 8.6-1 12.9-1.6c8.6-1.2 17.2-2.3 25.8-3.1a218.3 218.3 0 0 0 26.6-4.9c12.5-2.9 24.5-7.6 36.2-12.8a49.3 49.3 0 0 0 13.8-9.3 11.8 11.8 0 0 0 2.3-2.7 34.5 34.5 0 0 0 3.5-8.7c.6-2.5 1.2-5.1 2-7.5 3.3-9.6 4.4-19.6 5.1-29.6s.8-19.4 1.4-29.1.9-16.7.9-25c0-23.8.4-47.6-.8-71.4-.7-14.9-.9-29.8-1.5-44.7-.2-4.9-.7-9.7-1.1-14.6v-.5c-.6-4.6-1.2-9.3-1.7-13.9s-.9-8.6-1.4-12.9-.7-6.6-1.1-9.8l-1.8-12.9c-.5-3.8-1-7.5-1.7-11.3-1-6.1-2.3-12.2-3.4-18.4-1.9-10.5-3.6-21.2-5.7-31.7-1.8-9-3.8-17.9-6-26.8a342 342 0 0 0-11.1-37.4c-4.4-12.1-10.2-23.5-16.2-34.9a68.9 68.9 0 0 0-12.9-17.5 71 71 0 0 1-9.9-12 23.6 23.6 0 0 1-3.9-10.2c-.8-6-1.5-12-2.2-18-.4-3.3-.8-6.6-1.3-9.8-1.2-7.2-2.4-14.4-3.8-21.5-1.9-10.6-4-21.1-5.9-31.7-1.6-9-3.2-18-4.6-27.1-.9-5.5-1.6-11-2.3-16.5l-3-22.1c-.1-.6-.1-1.4-1.2-1.6s-2.3 1.2-3.5 2c-8.4 5.5-17.7 8.6-27.4 10.7-7.3 1.6-14.8 1.8-22.2 2.4a116.2 116.2 0 0 1-25-.6c-6.3-1-12.7-1.9-18.9-3.4-3.2-.7-6.3-1.9-9.5-2.7-8.3-2.2-16-5.6-22.6-11.2-.3-.3-.9-.3-1.6-.6zM156 189c1-1.5.6-3 .6-4.3 0-3.3-.2-6.6-.2-9.9a27.3 27.3 0 0 1 .3-4.1 2.7 2.7 0 0 1 3.1-2.2 3.4 3.4 0 0 1 2.7 1.2 5.6 5.6 0 0 1 1.5 3.2 74.2 74.2 0 0 1 1.1 12.4c.1 1 .3 2 .5 3.1h3.9c1.1-.1 2.4.4 3.7-.8s.8-4.8.9-7.4c.4-7.1.9-14.2 1-21.3q.3-30.6.4-61.4a22.6 22.6 0 0 0-.4-3.3c-2.5-.2-4.9-.5-7.3-.5-9.1.1-18-1-27-1.5a64.8 64.8 0 0 1-7.7-1 23.9 23.9 0 0 1-4.6-1.2 50.6 50.6 0 0 1-5.8-2.8c-.5 2-1 3.8-1.3 5.6-1.6 8.8-3 17.7-4.7 26.6s-3 16.6-4 25c-.4 3.3-1 6.5-1.5 9.8-.9 5.3-1.7 10.6-2.5 15.9-1 7-2 14-2.9 21-.2 1.7-.9 3.4.2 5.1 16.5-4 33.3-5.9 50-7.2zm-43.9 16.2c.6.6.8 1.1 1.2 1.4a60.7 60.7 0 0 0 15.2 6.7 167 167 0 0 0 29 5.6c9.6.9 19.1.3 28.5-.7 6.1-.7 12-1.9 18-2.8a64.1 64.1 0 0 0 26.9-10.6 3.4 3.4 0 0 0 1.6-3.9c-.6-4.1-1.3-8.2-2-12.3s-1.7-9.9-2.5-14.9c-1.3-7.1-2.5-14.3-3.7-21.5-1-5.6-1.9-11.3-2.8-16.9s-1.6-11-2.3-16.5l-3-24.2c-.1-.6-.2-1.3-.4-2.1a8 8 0 0 0-2.2 0 51.6 51.6 0 0 1-10.4.9l-10.4.2a33.9 33.9 0 0 0-7.7 1c-.1.9-.2 1.5-.3 2.2-.3 6.4-.6 12.8-.8 19.2-.5 14.9-.9 29.9-1.3 44.8-.1 3.3 0 6.6-.2 9.9s-.4 4.5-.5 6.7a80.3 80.3 0 0 0-.4 11 23.6 23.6 0 0 1 3.1 2c3.1 2.7 5.3 5.8 5.4 10.2a15.4 15.4 0 0 1-11 14.7c-5.2 1.7-9.6.5-13.6-3a20.3 20.3 0 0 1-6.8-10.2c-.2-.6-.5-1.2-.8-1.9a416.3 416.3 0 0 0-45.8 5zM236.6 33.5c-.4.1-.8 0-1 .2a39.6 39.6 0 0 1-13.5 3.5c-3.8.3-7.7.5-11.4 1.1a73.9 73.9 0 0 1-12.4.9h-14.6c-8.1-.2-16.3-.7-24.4-.8a93.7 93.7 0 0 1-21.7-2.4c-5.4-1.2-10.8-2.2-16-4.2s-9.4-3.7-12.9-7.6c-.2-.2-.6-.2-.8-.3a2.6 2.6 0 0 0-.4 1 75.6 75.6 0 0 0 2.2 23.2 33.9 33.9 0 0 0 5.3 11.2 15.5 15.5 0 0 0 2.4 2.7 39.1 39.1 0 0 0 17 8.5 89.1 89.1 0 0 0 18.6 2.1l13.9.5a21.4 21.4 0 0 0 8.7-.9 15.9 15.9 0 0 0 .7-2 13.9 13.9 0 0 1 .6-1.9 3.5 3.5 0 0 1 4.3-2.1 4 4 0 0 1 3.1 2.5c.5 1 .8 2.2 1.3 3.5l3.6.3c10.3.5 20.5-.7 30.7-1.2a27.9 27.9 0 0 0 4-.7 4.6 4.6 0 0 0 3.3-2.4c1.2-2.3 2.4-4.6 3.5-7 3.2-7.5 4.7-15.5 5.9-23.5a29.4 29.4 0 0 0 0-4.2zm-51.4 2.7c9.7-.3 20.1.2 30.5-1 4.5-.6 8.9-1.3 13.3-2.3a13.5 13.5 0 0 0 6-2.9c2.7-2.2 3.3-4.5 2.3-7.9a15.9 15.9 0 0 0-2.1-4.1 20.2 20.2 0 0 0-5.9-5 51.1 51.1 0 0 0-18.1-6.1c-3.4-.6-6.9-1-10.3-1.4A103.2 103.2 0 0 0 188.6 4l-18.2-1c-13.7-.7-27.3-.2-40.8 2.9-5.6 1.3-11.1 2.8-15.9 6.2a32.7 32.7 0 0 0-3.5 3 4 4 0 0 0-.7 4.4 15.7 15.7 0 0 0 1.8 3.1 14.4 14.4 0 0 0 5.4 4 94.3 94.3 0 0 0 14.6 5.3c9.7 3 19.8 3.3 29.8 3.9 7.8.4 15.6.3 24.1.4zM23.5 838.6c1.4 4 6 8.9 8.4 11.5 7.7 8.6 16.1 16.2 26.6 21.4a234.9 234.9 0 0 0 25.7 11.2 144.9 144.9 0 0 0 19.6 5.2c3.9.7 7.8 1.5 11.7 2.1s6.9.8 10.3 1.1c5.4.6 10.7 1.4 16 1.7a357.5 357.5 0 0 0 46.3-1.1l11.9-1.1 16-1.6 16.1-1.3 2.1-.3 19.5-2.8c3.2-.5 6.5-1 9.7-1.7a213.1 213.1 0 0 0 22.5-6.1 70.7 70.7 0 0 0 23.3-12.4 57.9 57.9 0 0 0 9.8-10.6c.1-.2 2.7-3.7 2.7-4s-3.7 2.8-3.9 2.9c-5.2 3.6-11 5.8-16.8 8.3-20.1 8.5-41.3 12.7-62.9 15.2-7.4.8-14.8 1.5-22.1 2.5a163.7 163.7 0 0 1-19.7 1.7h-55.7l-4.7-.2-22.3-1.8c-4.3-.4-8.6-.6-12.9-1.3a144.2 144.2 0 0 1-20.3-4.4 90.3 90.3 0 0 1-22.8-9.8c-8.7-5.4-17-11.4-25.3-17.4-2.1-1.5-6.7-5.3-8.8-6.9zM176.1 76.3c-2.4-1-4.3-.6-6.2-.6h-9.3c-4.9 0-9.7-.6-14.5-1-8.7-.7-17.1-2.4-24.8-6.7a8.4 8.4 0 0 0-1.9-.7c-.1.8-.3 1.3-.3 1.8a54.9 54.9 0 0 0 1.4 8.1c1.7 5.9 5.3 10.1 11.8 11h1a135.9 135.9 0 0 0 19.1 2c1.5.1 3.1.1 4.6.3 5.5.9 11.1.5 16.6.6a4.2 4.2 0 0 0 1.5-.4 44 44 0 0 0 1-14.4zm-1.3 126.3c2.1.2 3-1.2 3.3-2.7a38 38 0 0 0 1.4-8.2c.2-4.8.6-9.7.8-14.5.6-12 .8-23.9 1.1-35.9.2-6.9 0-13.9.5-20.8s.4-14.2.8-21.3c.1-2.1-.1-4.2.2-6.3 1.1-5.8.4-11.7.7-17.6a14.4 14.4 0 0 0-1.4-5.5 1.6 1.6 0 0 0-2.1-1.1c-1.3 1.3-1.5 3-1.6 4.8s-.1 6.2-.2 9.3.4 7-.2 10.4a72.5 72.5 0 0 0-.5 9.3c-.2 23.3 0 46.5-1.2 69.8-.3 5.7-.8 11.4-1.2 17.1-.1.7-.3 1.3-.4 2-.2 3.3-.4 6.6-.5 9.9-.1.4.3.9.5 1.3zm10.8-111.5c1.6 0 2.7.1 3.7 0 5.9-.2 11.8-.5 17.6-.9a78.6 78.6 0 0 0 8.3-1.1 6.3 6.3 0 0 0 4.5-2.4 62.5 62.5 0 0 0 3.8-6.1c1.1-2.1 2.3-4.3 2.3-6.7a2.6 2.6 0 0 0-1-.4 35.6 35.6 0 0 0-5.7.4 34.3 34.3 0 0 1-7.8.7h-18.2a22.2 22.2 0 0 0-7.2 1.2c-.1.9-.2 1.5-.3 2.2zm-15.4 135.5h9.3q4.6-.3 9.3-.9c3.8-.4 7.6-.8 11.3-1.4 5.9-.9 11.4-2.9 17-4.9a77.2 77.2 0 0 0 15.4-8.5c.5-.3.8-1.1 1.1-1.7s0-.4-.1-.4-.6-.6-.8-.5l-1.8.9a68.4 68.4 0 0 1-26.2 9.5c-5.1.7-10.2 1.6-15.4 2.2s-9.6 1.2-14.4 1.5a96.1 96.1 0 0 1-12 .1 130.3 130.3 0 0 1-13.9-1.2c-5.8-1-11.5-2.5-17.2-3.8-8.4-2-16.2-5.1-23-10.5l-1.3-.8c-.3-.1-.8-.2-1 0s-.9.8-.8 1a4.5 4.5 0 0 0 1.1 1.7 50.8 50.8 0 0 0 12.3 7.7 117.8 117.8 0 0 0 24.8 7.3c8.7 1.6 17.4 3 26.3 2.7zm2.9-35.9c-7.5.4-14.2.5-21 .9-4 .3-7.9.8-11.9 1.3s-7.2 1.1-10.8 1.6a158.5 158.5 0 0 0-20.4 3.6c-2.8.7-5.1.7-7.2-1.4h-1a3.3 3.3 0 0 0-.4 3.9 3.6 3.6 0 0 0 3.2 2.2 50.8 50.8 0 0 0 7.8-.2c5-.5 10-1.3 15-1.9s8.2-.7 12.4-1.3a151.5 151.5 0 0 1 20.2-1.7l10.4-.2 2.6-.2c.4-2.2.7-4.2 1.1-6.6zm8.8.9c-1.5 1.9-1.1 3.7-1.1 5.4a15.6 15.6 0 0 1-1.5 6 5.3 5.3 0 0 1-3.9 3c-4.2.9-7.4-.4-9.6-4.1a14.2 14.2 0 0 1-.8-1.8c-1.6-.3-2.9-.6-3.9.9 1.2 4.5 4.1 7.6 7.5 10.3a9.5 9.5 0 0 0 5.7 2.1c5.7.3 9.6-2.6 12.3-7.2s2.5-9.7-2.4-13zm-18.7-3.2c-.1-3-.2-5.8-.4-8.5a58.1 58.1 0 0 0-1.1-7.1 8.6 8.6 0 0 0-1.3-2c-1.2.4-1.7 1.1-1.7 2 .1 4.3.2 8.6.4 12.9.1 1.1.1 2.5 1.6 3.3zm8.9 12.6c-.2-.2-.4-.9-.8-1s-2-.7-2.8.2a1 1 0 0 0-.2.9 9.5 9.5 0 0 0 1.9 1.6c1 .6 2-.3 1.9-1.7z" fill="#e4e4e4" fill-rule="evenodd"></path></g></g></svg>