<svg xmlns="http://www.w3.org/2000/svg" width="896" height="940.2" viewBox="-0.005720853805541992 -0.0036144256591796875 896.045654296875 940.18505859375" style=""><g><title>summer86_229397710</title><g data-name="Layer 2"><path d="M895.2 560.9c-4.9-13.6-8-27.6-19.5-36.9a9.3 9.3 0 0 0-8.4-1.7C748.1 447 582.1 420.4 448.7 472.1c-.2.2-.3.6-.5.8-2 2.1-5.1 2.8-7.5.9l-1-1.2c-.7-25.5-4.2-51-2.8-76.8.7-12.8 2.1-25.6 4-38.3a6.2 6.2 0 0 1 6.7 3.6c7.5 17.6 2.6 41.4 2.1 60.1-.2 7.9.7 17.4-.1 26.2a.1.1 0 0 1 .1.1c10.2-63 18-125.3 19.7-189.9 2.1-82.6 0-163.6-10.9-245.6-1.8-13.5-20-16.6-26-4.2A625.4 625.4 0 0 0 372 250.5c-1.6 40.8.1 81.9 6.8 122.2 3.1 18.8 6.5 39.1 11.5 58.8-41.4-47.9-80.1-98.7-120.4-147.1-50.3-60.3-98.4-124.9-154.3-180.1-5.4-5.3-12.2-1.8-14.8 3.7-3.8 1-6.9 4.8-5.5 10.1 19.4 71.2 58.9 139.2 104.1 198.2-2.6-4.1-5.2-8.3-7.7-12.5-.7-1.3.7-3 2-1.9 32.7 26.2 60.2 57.2 90.9 85.6 9 8.3 18.1 16.4 27.3 24.4l6.6 9.9c11 16.4 22.5 32.4 34.7 47.9 4.8 6 9.3 12.6 14.3 18.7l-1.7-1.1c-1.4-1-2.6-2.1-3.9-3.2A574.4 574.4 0 0 0 199 509.4a603.9 603.9 0 0 0-105.7 44.2c-31.6 16.9-69.2 36.5-91.7 65.1-4.7 6 1.7 19.3 9.1 15.8 1.1-.5 2.2 1.7 3.3 1.7h.3c34-10.5 67.2-19 99.9-28.4s67.3-21 101-30.7c24.6-7.1 49.3-15.2 73.9-22.5a396.7 396.7 0 0 1-41.9 3.5 1.5 1.5 0 0 1-.7-2.9c48.7-22.6 104.2-33.7 156.3-46 .7 4.1 1.5 8.1 1.9 11.7s.5 4.9.8 7.4.7 5.2 1.2 7.7c4.9 134.6 41.5 272.1 90 395.5 4.8 12.1 26.6 11.9 27.1-2.8a899.9 899.9 0 0 0-11.4-177.4 3.1 3.1 0 0 1-6.1.4c-7.3-43.1-19.5-86.8-31.8-128.8-5.9-20.3-12.9-40.2-19.9-60.1s-17-38.9-22.7-59a4.4 4.4 0 0 1 1.9-5.1l2.2-.5a3.9 3.9 0 0 1 3.2 1.6c1.1 1.4 2.2 3 3.3 4.5 5 2 10.1 3.8 15 5.7 18.8 7.4 37.8 14.3 57 20.5s41.1 12.7 61.9 18.1a526.7 526.7 0 0 1-64.5-30.5c-2.9-1.6-1-6.1 2.1-4.8 50.6 21.1 104.5 35.1 158.9 42.4a575.2 575.2 0 0 0 84 5.3c20.7-.3 49.6-8.7 68.8 0a5.4 5.4 0 0 1 1 9.1c-7.6 6.2-18.5 9-30.2 10.3 29 1 58.1.8 87-.5 9.4-.4 14.7-10.8 11.7-19zm-531.7-62.7l.7 1.8z" fill="#ff4217"></path><path d="M367.5 488.4c-5-6.1-9.5-12.7-14.3-18.7-12.2-15.5-23.7-31.5-34.7-47.9l-6.6-9.9c-9.2-8-18.3-16.1-27.3-24.4-30.7-28.4-58.2-59.4-90.9-85.6-1.3-1.1-2.7.6-2 1.9 2.5 4.2 5.1 8.4 7.7 12.5 20.5 31.5 46.2 57.9 72.6 85.1 28.3 29.1 57.7 57.7 89.9 82.7 1.3 1.1 2.5 2.2 3.9 3.2z" fill="#e0391e"></path><path d="M402.8 509.1c-52.1 12.3-107.6 23.3-156.3 45.9a1.4 1.4 0 0 0 .7 2.7 398 398 0 0 0 41.9-3.9c39.2-5.7 78.5-16.3 116.4-25.5-.3-2.5-.5-5-.8-7.4s-1.2-7.7-1.9-11.8z" fill="#e0391e"></path><path d="M436 498.2l-2.2.5a4.4 4.4 0 0 0-1.9 5.1c5.7 20.1 15.8 39.2 22.7 59s14 39.8 19.9 60.1c12.3 42 24.5 85.7 31.8 128.8a3.1 3.1 0 0 0 6.1-.4v-.2c-1.6-45.3-5.7-87.7-19-131.2-11.6-38.3-26.7-82.7-50.9-115.6-1.1-1.5-2.2-3.1-3.3-4.5a3.9 3.9 0 0 0-3.2-1.6z" fill="#e0391e"></path><path d="M825.7 561c-19.2-8.7-48.1-.3-68.8 0a575.2 575.2 0 0 1-84-5.3c-54.4-7.3-108.3-21.3-158.9-42.4-3.1-1.3-5 3.2-2.1 4.8a526.7 526.7 0 0 0 64.5 30.5 458.1 458.1 0 0 0 93.4 25.8 494 494 0 0 0 78.6 6.3c13.2.1 31.5 1.5 48.1-.3 11.7-1.3 22.6-4.1 30.2-10.3a5.4 5.4 0 0 0-1-9.1z" fill="#e0391e"></path><path d="M449.7 421.2c.5-18.7 5.4-42.5-2.1-60.1a6.2 6.2 0 0 0-6.7-3.6c-1.9 12.7-3.3 25.5-4 38.3-1.4 25.8 2.1 51.3 2.8 76.8l1 1.2c2.4 1.9 5.5 1.2 7.5-.9.2-.2.3-.6.5-.8 2.7-3.6 2.6-9.3 2.6-13.6s0-7.7-1.6-11a.1.1 0 0 0-.1-.1c.8-8.8-.1-18.3.1-26.2z" fill="#e0391e"></path><path fill="none" d="M364.2 500l-.7-1.8"></path></g></g></svg>