<svg xmlns="http://www.w3.org/2000/svg" width="497.3" height="925.1" viewBox="0.044099390506744385 0.02578115463256836 497.271240234375 925.0823974609375" style=""><g><title>summer45_331734452</title><g data-name="Layer 2"><path d="M456.4 181.5q-16.6 15.9-32.5 32.5l-14.5 15.6c-8.6 9.5-17 19.2-25.1 29.2l-.3.4-3.3 4.1-4.3 5.6c-2.2 2.9-4.3 5.8-6.3 8.8s-3.4 5.2-5 7.9l-2.7 4.6c-1.4 2.5-2.8 5-4 7.7a117.5 117.5 0 0 0-6.1 14.4 163.2 163.2 0 0 0-4.8 15.8c-2 8.3-3.2 12.6-6.2 14.9a8.2 8.2 0 0 1-2.8 1.4c-2.5.9-6 1.1-10.9 1.3-19.7.5-39.4.1-59 .1-23.6 2.4-47.1 3.4-70.7.2l-4.4-.7-3.6-.8a51.2 51.2 0 0 1-28.7-18.6 296.8 296.8 0 0 0-52.3-51.6l-3.2-2.5-6.4-4.8-.5-.3c-7.6-5.5-15.4-10.7-23.5-15.6l-4.9-3c-4.4-2.6-8.9-5.1-13.4-7.6a167.1 167.1 0 0 0-36.5-14.1c-3.4-.9-8.8-1-8.7-5.8 0-3.3 4.4-4.2 7.6-5 43.2-11.2 85.5-12 125.8 10.8a52.1 52.1 0 0 0 5.2 2.8c2.1 1 4.3 3.7 6.8 1.6s.2-4.8-1-6.9c-24.6-41.2-51.6-80.6-87.6-113-4.1-3.7-12.7-6.9-10.4-12.2s10.6-1.1 16.1-.7c24.4 1.6 45 12.7 64.5 26.5 5.1 3.5 11 11.8 16.2 7.8s-1.6-11.7-3.3-17.8C141.4 76.2 126.6 40 103.4 7.6c-1.3-1.9-4.3-4-2-6.5s4.7 0 6.9 1.1c28.8 14.5 50.5 37.6 71.7 60.7 71.8 78.2 57.5 101.8 68.2 101.1 2.7-.1-1-15 10.2-56 .5-1.8 1-3.7 1.6-5.5s2.4-8.1 2.7-8.9c2.7-8.4 5.8-17.7 9.6-28a110.9 110.9 0 0 1 18.8-32c2.7-3.3 6-5.3 10.3-3.4 9.2 4-3.6 15.5-8.3 127.6-.1 3.6-2.1 8.9 2.3 10.5s5.9-4.1 7.6-7.1a164.9 164.9 0 0 1 42.5-48l5.7-4.2c5.6-3.9 11.5-7.6 17.6-11.1 10.6-5.8 22.1-8 33.6-10.8 5-1.2 9.3 0 12 4.3s.4 6.5-27.9 54.8c-7.3 12.5-12.7 25.9-17.3 39.6-.5 1.7-1 4.3-.2 5.5 4.4 5.6 7.8-8.3 58.3-24.6a95.5 95.5 0 0 1 21.1-4.4c5.8-.4 12.6.4 15.2 6.7s-3.7 9.2-7.2 12.5z" fill="#1e4344"></path><g fill="#193737"><path d="M323.9 305.9l-.4.3c0 .1-.1.1-.2.2h.6zm0 0l-.4.3c0 .1-.1.1-.2.2h.6zm0 0l-.4.3c0 .1-.1.1-.2.2h.6zm0 0l-.4.3c0 .1-.1.1-.2.2h.6zm0 0l-.4.3c0 .1-.1.1-.2.2h.6zm0 0l-.4.3c0 .1-.1.1-.2.2h.6zm83.5-99.6c-.8-1.7-1.7-3.4-2.6-5.2-3.3 2.3-8.5 1.7-10.4 6.3a9.2 9.2 0 0 0-8.3 3.3c-1.7 2-3.7 3.6-5.5 5.4s3 4.7-.4 6.5-5 1.2-7.3 2.2-1.5 6-1.7 8.7-4.6 9.6-6.3 8.7-3.7-3.5-5.4-5.4a3.7 3.7 0 0 1-.5-1.1l-7.6 3.6c-.1 1.2-.3 2.4-.4 3.6-13.2 1.7-13.2 1.9-16 16-.2 1.4-2.3 2.4-3.6 3.5-1.3-2-3.4-4.8-2.8-5.4 3.3-4 .1-6.7-1.1-9.9l-2.5-1.6 2.3-2.2c-5-5.1-3.2-3.4-6.5-6.2 3.7-2.1.7-1.8 10.6-2 .2-2.5 1.8-3.7 4.2-4l3.6-3.6h.1c1.5-4 4.7-7.1 4.3-12s-1.6-6.1-7.9-7.8c.1-4.4-.9-9.2.6-13 2.2-5.8 7.1-10.2 8.2-16.8.2-.9 3.7-1.2 6.1-1.7a27.2 27.2 0 0 0-3.2-3.5c-1.3-1-4.2-1.1-2.5-3.7s1.9-7.3 6.1-8.5c.1-3.2-.3-6.7 3.6-7.9-3.2-4.1-9-6.4-8.1-13.3.2-1.8-1.8-3.9-3.1-5.9a43.1 43.1 0 0 0-4.7 2.6c-3.9 2.7-4 8.9-9.8 10.2s-4.1 8.5-8.9 10.5c-.3 6.1 1.4 12.6-3.7 17.9-.6.7-.1 2.4-.1 3.7.1 12.8-1 15.2-10.7 17.9-4.6 1.2-8 3-9.5 7.4-7.3.4-12 3.4-11.9 11.6 0 5.7 0 6.6-5.6 7.3-.4.1-1.6-2.1-1.4-2.9 1-4.2 3.7-7.7 3.7-12.5 0-2.4 3.4-5 5.6-7.1s3.9-1.4 4.8-2.7-.4-3.7-1.6-4.5-3.4-.8-5.2-1c-.7-2.7-2.7-3.5-5.5-3.9s-5.2 1.3-4-3.9c20.1 0 26-1.2 22.5 6.4 1.8.1 3.9 1.1 5.2.4 5.8-3 5.7-9.8 8.7-14.6.2-.4-1.6-2.5-1.7-2.4-4.2 2.2-10.1-1.5-13.6 4-1.4 2-4.1 2.7-6.9 1.3-6.8-3.4-15.5-2.2-17.1-13-.8-5.5-3.2-10.8-5.1-16.7-6 3.1-9.6 8.5-13.5 13.5-.5.7.7 3.8 1.9 4.7s3.3.8 5.1 1.1c0 3.7.3 7.5.1 11.2s.7 7.6 5.4 9.1c1.7.5 1.5 2.3-.4 2.4-4.9.2-9.2 1.7-11.3 6.2s-7.8 7.7-13 9.7c-.3-8.1-.4-10.6-.4-11.2l-11.1-.4c.9-1.3 1.6-2.9 2.8-3.3 3.5-1.3 4.6-3.5 4.3-6.9-.1-1.6-.1-3.2-.1-4.8-11.2 4.3-7.6 3.4-13.8 1.9a17 17 0 0 1 1.2-3.4c.7-1.1 1.8-1.9 2.5-2.9 3-4.6 1.7-7.3-3.5-8s-8.5 1.3-13.6-3c12.6-1.2 12.2-.9 12.8-1.5 3.5-3.7 2.7-8.1-.4-5.7-5.9 4.7-9.6 1.2-20.7 3.1a5.7 5.7 0 0 0-3.3 4c-.6 3.8 0 7.8-.6 11.6-.2 1.2-2 2.2-3.3 3.2l-.6 4.3c-2.7 2.3-6.3 4-.8 14.2-4.9 1.2-9.8 2-14.5 3.7s-5-1.1-10.7-12.6c3.7-7.3-2.1-4.8-5.1-5.2-.6 3.6.8 7.7-2.2 10.8-1.1 1.1-2.4 2.1-3.6 3.2a57.3 57.3 0 0 0 5.6 1.4c6.5 1.2.4 5.4.5 6.8.1 4 4.2 11.6 9 17.7a3.4 3.4 0 0 1 .2 3.1c-3.2 6.8 6.6 7.1 13.5 8.1-4.3 4.9-2.8 3.3-6.2 5.3 3.1 2.6.4 1.6 9.7 3.7-1.5 3.4-7.8 2.2-6 6.7s-.7 10.3-1.1 15.5c-3.8.4-7.5 1-11-1.5-1.6-1.1-3.6-1.9-4.3.7-1.4 5.7-4.5 2.2-7.2 1.7s-3.6.5-2.9 2.9c.1.4 3.6 5.4.2 6.7-1 .3-3.3-1.7-4.3-3.1-3.3-4.7-3.2-8 2-11.1s3.8-6.3 4.1-10a4.9 4.9 0 0 0-4.1-5.6l.2-.3-.2.2-1.7 1.7a.8.8 0 0 0-.4.4 9.1 9.1 0 0 0-1 1l-.7.7a28.4 28.4 0 0 1 2.3 5c.2.6-.7 2.4-1.2 2.4-3.4.1-7.5 1.5-9.1-3-3.7 1.6-7.4 3.4-11.1 5.1 2 4 3.7 7.4 5.7 10.6.9 1.6 1.1 2.4-.7 2.9a3.2 3.2 0 0 1-1.9.2 82.4 82.4 0 0 1-8-5c-1.4-1.1-2.2-1.4-2.9.1a2.3 2.3 0 0 0-.1 1.8c3.2 9.7 6 19 11.3 22.8 1.1-2 2.5-4 3-6.1 1.2-5 4.7-5.2 8.5-5.1a3.2 3.2 0 0 1-.2 1.4c-1.4 3.9-4.5 4.3 3.4 9.7 2.4 1.6 9.1-2.6 9 8.3 2.5 1.1 9-1.7 5 5.5 4.8 15.4 3.3 12.2 6.5 14.3.8 2.3 1.2 6 2.4 6.3 5.8 1.3 10.9 5.2 17 5.2-.9-2.2-2.7-4.9-1.9-6.2 1.9-3.1 5.2-5.4 7.9-8 .1-.2 1 .2 1.3.6 2.3 2.8-3.9 8-2.7 13.6h7.5c1-2.5 2.9-3.7 5.6-3s3.1 2.3 4.9 3a76.2 76.2 0 0 0 8.2 2.2 60.2 60.2 0 0 1 1.9-7.3c.7-1.7 2.4-3 3.5-4.5 2.7-4.1 2.7-4.1-3.1-7.9 8.8-3.1 14.6-3.8 6.5-9.6-3.4 3.4-5.4 4.1-7.1 1.9-3.8-5.1-7.3-10.5-10.8-15.8a26.1 26.1 0 0 0 2.7-2.1 26.9 26.9 0 0 0 2.9-3.5c-5.1.2-8.5-3.7-12.7-5.4s-2.2-3.1 1.6-6.3c1 3.3 4.1 3.5 7 3.5s6.3 1 8.3-2.4a5.9 5.9 0 0 0 .6-1.4h7.9a30.4 30.4 0 0 0 2.8 3.3c.8.8 4.2 3.7 4.9 4.2 3.8 1.8 7.3 5.5 12 2.2 1.5-1.1 2.6-1.1 2.9.6 1.4 7.5.4 13.5 5 12.3s3.5-2.5 4-7c3-.7 5.9-5.2 9.2-.3a8.4 8.4 0 0 0 2.8 2.5c4.2 2.6 8 2.3 11.3-2.1s7.2-6.3 11.7-8.2c1.2-3.7 4.3-3.8 7.5-3.6s4 2.6 4.1 5.3c.4 8.4 8.1 5.9 9.5 6.6a2.7 2.7 0 0 1 1.4 1.4c.1.2-.4 1.2-.7 1.2-4.1 1-8.3 1.6-13.9 2.6 11.1 4.2 14.7 5.5 15.7 6a4.9 4.9 0 0 1 3.9-3.4h.5c.1-.1.1-.3.2-.4 1.2-2.5 3.6-7.7 3.7-7.8l-.5-.3-2.8-1.5 3.3-1.8a.5.5 0 0 1 .2-.4c2.6-4.6 4.1-4.6 7 0l.3.5.2.2c3.9 2.7 4.4 4.3 1.9 6s-5.7 1.6-6.1 5.1v.4l.3.4c1.3 1.2 2.8 2.2 3 3.5s-1.2 3.4-3.4 3.5l-7.3.6c-.1 2.5-.1 5.1-.2 7.7h.1l.7.7.5.5.7.7a3.8 3.8 0 0 1 .9.9l.9.8h.1l2.6 1.5-2.4 2.3a22.4 22.4 0 0 0 1.4 3.6c3.3 5.6-4.9 3.6-7 5s-2.5 3.9-1.9 4.8c1.6 2.5 3.1 5.8 7 5.9.9 0 2.6-1.5 2.6-1.6-1.1-2.1-3.4-4.5.6-5.8s8.8-5.4 11.8-9.8c-4.1-4.7.5-6.6 2.8-9.4s4.3-3.2 7.2-2.1a117.5 117.5 0 0 1 6.1-14.4l-6.3-5.9c3.4-1.8 6.8-2 10.3-1.8l2.7-4.6c-2.2-1.1-4.2-2.3-4.4-5.3l9.4-2.6c2-3 4.1-5.9 6.3-8.8l-.5-.4c-.1-.2.5-1.2.8-1.7a9.4 9.4 0 0 1 4-3.5l3.3-4.1.3-.4H383c-5-1.1-5.8-12.4.3-9.3 3.6 1.8 6.1.1 8.9-2 6.8-5 9.1-15.8 10.1-16.1-4.8-1.1-10.2 1.6-15.2-2.2 2.2-1.8 4.2-4.7 6.2-4.8 9 0 12.1-6.1 15.2-12.8 1.2-2.5-.4-3.6-1.1-5.2zm-69.1 11.1c-2.5 1.6-2.4 0-2.5-1.4zm-4.6-67.5c2.2 1.8 3.5 2.4 4 3.9s0 1.3-.2 1.3c-3.9 1-3.6 1.6-4.9-4.3 0-.2.8-.6 1.1-.9zm1.5 58.1v7.1c-5.8-3.4-3.9-2.1-6.4-5.4 3.6-1.8 2.1-1.6 6.4-1.7zm-51.6-15.4a21.4 21.4 0 0 0-1 2.2l-1.2-1zm-22.2-25a20 20 0 0 1 1-2.1l1.1 1zm-89 46.6l-1.3-.7 1.5-.5zm-25.6 68.1l1.2-2.6c.1-.1 1.2.1 1.2.3.3 2.1-1 2.3-2.4 2.3zm20.1-2.4c-.5-4.2.5-3.9 2.9-4.9v-.7h.6c.5-2.9 2.6-3.4 5.3-2.8.5.1.9.8 1.3 1.2-1.7 1.5.2 1.1-6.6 1.6a.9.9 0 0 1-.1.5l-.5.2c.1 4.3.2 2.8-1.7 6.2-.5-.4-1.2-.8-1.2-1.3zm1 8.2c.4-.4.9-1.1 1.4-1.1 6.5-.6 5.7.2 6.9 1s-3 2.6-6.1 1.9c-.8-.1-1.5-1.2-2.2-1.8zm2.6 33.6l.9-2.3 1.9 2.2zm1.9-9.1c-.7-.7-1.8-1.3-1.8-2s.6-2 1-3c.7.7 1.9 1.3 1.9 2s-.6 1.9-1.1 3zm2.4 9.6a46.5 46.5 0 0 1 4.7.4c.5.1.9.8 1.4 1.2-3.4 1.7-2 2.7-6.1-1.6zm6.4-18.9c0 .5-.8 1-1.2 1.4a7.4 7.4 0 0 1-1.8-2.9 11.9 11.9 0 0 1-.1-3.3h-.3c-.1-.1-.1-.4-.1-.6l-2.5-1.3c2.4-1.8 2.2 0 2.5 1.3l.4.3v.4c2.6 1 3.6.5 3.1 4.7zm4.2-36.3l-1.5 2.8c-.5-.9-1.1-1.8-1.6-2.8zm-1.2 8.5c.1-.1.5.7.8 1.1a9.1 9.1 0 0 1-1 1c-1.5-.8-1.4-1.7.2-2.1zm-.7 9l2.8-1.3 1.7 1.7c-4.3 1.1-3 1-4.5-.4zm3-18.4c.4-.8.8-1.5 1.1-2.2l1.2 1.1zm17.9 57.5l-.9 1.1-.6-1.3zM221 200.2a19 19 0 0 1 .1 3.4h.4v.4c5.1.7 3.4 6.1 2.5 6-3.1-.7-2.6-.6-2.5-6h-.4v-.3h-7.2c-.1.2-.1.3-.3.4a1.1 1.1 0 0 1-.8.3l-1.2 2.4c-1.6-2.3 0-2.2 1.2-2.4l.3-.7h.8c1.3-1.9 2.3-3.9 3.9-5.3s2.9 0 3.2 1.8zm-8.3-23.3a3.3 3.3 0 0 1 1.3-1.6l.8-1.7c.1-.2.8.1 1.3.2l-2.1 1.5c-.3 1-.2 1-1.3 1.6a12.1 12.1 0 0 0-1 2l-1.1-1zm-5.9 57.9c-1.1-.3-2.5-.2-3.3-.9s1.1-2.5 3.4-1.7a1.9 1.9 0 0 1 1.2 1.3c0 .4-.9.9-1.3 1.3zm1.8 6.4c-.1.4-.8.8-1.2 1.1s-.9-.8-.9-1.2.7-.8 1.1-1.1 1 .8 1 1.2zm-5.2-68.2l1.3 1.4-1.4 1.2c-.4-.5-1.1-1-1.1-1.3s.8-.9 1.2-1.3zm-20.5 53.6l-.8 1h-.8a19.6 19.6 0 0 1-1.3 2.5c-1.5-2.3 0-2.3 1.3-2.5s.2-.4.4-.6l1.2-.5 1.5-1.8c.1 1.3.7 1.1-1.5 1.9zm3.2 8.4a3.8 3.8 0 0 1 3.3-3.4c-.3 1.9-1.2 3.2-3.3 3.4zm4-4c.1-2.1 1.4-3 3.3-3.3a3.3 3.3 0 0 1-3.3 3.3zm3.1-19.7h-2.9l-.4.4h-.5c-.4 4.8-5.9 3.5-5.8 2.6.7-3.1.6-2.5 5.8-2.6a1.1 1.1 0 0 0 .1-.5h.8l2-2.3a14.5 14.5 0 0 1 .9 2.2h.7l.5.6h2.8l.2-.5a1.1 1.1 0 0 1 .8-.2l1.2-2.3c1.5 2.3 0 2.2-1.2 2.3l-.3.7h-.7a20.9 20.9 0 0 0-.8 2.3l-2-2.3h-1c-.1 0-.1-.2-.2-.4zm1.6 69.2c0-.3.6-.6 1-.9s.8.8.8 1-1.4 1.5-1.8-.1zm1.2-38.7l-1.2-.8 1.3-.4zm.4 26.7l-.8 1.1-.5-1.3zm-2.2-41.9a38.6 38.6 0 0 1 1.7-5.8c.2-.5 2.2-.5 3.2-.2s.7 2.2.3 2.6a58 58 0 0 1-5.2 3.4zm5.3 27c-1.7-.6-.8-2.9-.4-4.8.4 0 1 0 1.2.3s.7 5-.8 4.5zm-3.6-62.7c-1.3-1.6-1.4-4.3-1.8-6.6 8.3.2 9.9-.2 10.4 1.4s-6.3 8.2-8.6 5.2zm15 83.4h-5.4a27.9 27.9 0 0 1-2.4-4.5c-.3-.8.4-2.7.8-2.8 3.3-.3 8.3 3.3 8.4 5.9 0 .6-.9 1.3-1.4 1.4zm6-27.8l.7.3v.7c2.2 1.1 3.1.8 2.7 5 0 .4-.7.8-1.2 1.1-1.8-3.4-1.6-2-1.5-6.1l-.5-.2c-.1-.2-.1-.5-.2-.8l-2.5-1.3c2.6-1.7 2.4 0 2.5 1.3zm-2.4-9.4c1.1-.6 2.3-1.6 3.4-1.5a21 21 0 0 1 5.4 1.2c-.2.4-.2 1-.5 1.2a6.7 6.7 0 0 1-7.2.3 13.1 13.1 0 0 1-1.1-1.2zm4.2 34.9l1.6 2c-2.3-1-1.7-.7-1.6-2zm1.8-5.5a27.4 27.4 0 0 1-5.5-1.3 22 22 0 0 1 2.8-4.4c1.4-1.5 4.3 0 5.8 2.9a6.6 6.6 0 0 1 .5 1.5c-1.2.5-2.4 1.3-3.6 1.3zm6.9-8.9l-1.3-.8 1.4-.7zm-1.9-32.8c-5.4 4.3-6.9 4.1-11.6-1.4l-.7.3-.3-.6c-3.5-.2-6.5 0-6.9-3.6 0-1 1-2 1.5-3 3.5 2.3 2.3.5 5.4 6.6h.8l.2.2c12.6-5.4 8.8-4.4 13.8-1.6a13.7 13.7 0 0 1-2.2 3.1zm1.7-26c-1.6-2.5 0-2.4 1.3-2.5zm13 9.9c-.8 2.3-.6 1.7-1.9 1.6zm2.6 62.3c-5.8 4.8-8.5 3.6-13.4 3.4.1-2.5-.3-6.5 1.5-6 4.1 1 5.2-.1 7-3.2s3.1.2 4.3 1.1 2.2 3.3.6 4.7zm4.4-21.3l-1.2-.8 1.3-.4zm-1.9-25.6l-.7-.4v-.8l-2.6-1.5 2.6-1.3v-.8c.2-.3.6-.3 1-.4a17.8 17.8 0 0 0 1.1-2.1c1.2 2.1 0 2-1.1 2.1a2.4 2.4 0 0 1-1 1.2v2.8l.5.2a1.5 1.5 0 0 1 .2 1l2.3 1.1c-2.2 1.4-2.1 0-2.3-1.1zm6.4-13.9l-2.3-.7c1.7-1.4 1-1.1 2.3-.5zm3 27.8l-.5-1.3 1.4.3zm5.7 51.9c-2.3-1-3.2-.8-2.9-4.8.1-.5.9-.8 1.3-1.2 1.7 3.3 1.6 2 1.6 6zm46.1-64.8l-.8 1.1-.4-1.3zm-3.5-15.9c-3.4.3-2 1.8-6.2-4.9 7.6 1.9 5.7.9 6.2 4.9zm3.7 65.1l-3.8.4c-5.3-.1-7.2-2.1-5.4-6.8 1-2.7 1.3-4.6 0-7-.1-.1.8-1.1 1.2-1.2s2.9-.3 3.4.3c3.1 3.6.9 10.6 7.8 11.8-1.7 3.3-1 2.3-3.2 2.5zm5.5-15.1a1.1 1.1 0 0 1-.9-.8l-2.4-.8 1.5-1.5c.5 1.1.7 1.8.9 2.3l.7.3c.1.1.1.3.2.5a49.3 49.3 0 0 1 5.1.3 1.6 1.6 0 0 1 1.2 1.3c0 1.6-5.3 3.1-6.3-1.6zm9.7 10.5l-1.2-1 2.2-1.2a21.4 21.4 0 0 0-1 2.2zm9.5-3.5c-.6 4.3-.4 3.8-7.4.5 1-4 4.1-3.8 7.3-3.6a16.3 16.3 0 0 1 .1 3.1zm13.8-4c-1.6-.9-1.5-1.8.3-2.4.2 0 .6.9 1 1.3s-1.1 1.1-1.3 1.1zm6.3-18.7a3.7 3.7 0 0 1 3.3 3.2 3.7 3.7 0 0 1-3.3-3.2zm10 21.9l-1.4-.7 1.5-.5zm-6-18.1c3-.1 6.1-.5 7.1 3.4-2.9-.1-6.3 1-7.1-3.4zm13.6 22l-1.4-.8 1.5-.5zm-.8-15c-2.6.4-4.5-.3-4.9-3 6.5.5 4.7.1 6.3 1.7-.5.4-.8 1.2-1.4 1.3zm8.5-23.9c-1.7-.8-1.6-1.7.2-2.3s.8.8 1.1 1.3-1.1 1.2-1.3 1zm4.3 7.4l-1.1-.7 1.3-.4zm14.1-29.8c6.2.4 4.5.2 6.2 1.7-3.6 1.7-2.2 2.7-6.2-1.7zm-71.3 97.9l-.4.3c0 .1-.1.1-.2.2h.6zm0 0l-.4.3c0 .1-.1.1-.2.2h.6zm0 0l-.4.3c0 .1-.1.1-.2.2h.6zm0 0l-.4.3c0 .1-.1.1-.2.2h.6zm0 0l-.4.3c0 .1-.1.1-.2.2h.6zm0 0l-.4.3c0 .1-.1.1-.2.2h.6zm35.4-70.4c-.1.1-.2-.2-.5-.5a6.4 6.4 0 0 1 .2.7zm-.3 78.2c-.1.2-.1.4-.2.5l.4-.5zm-4.4-161.2l.3.3.5-.5zm-3.2 86.5l-.3.3h.3zm-.8-62.9l.3.4.5-.6zm.4-15.7v.3l.3-.5zm-7.5-27.4l-.3-.2c0 .1 0 .2.1.2s.1.2.1.3h.2zm-12.1 102.1c0 .1-.1.2-.1.4l.3-.4zm-3.9 11.9h.2zm-3.6 58.9l-.4.3c0 .1-.1.1-.2.2h.6zm-4.4-149.1l.5-.2v-.4zm0 145.1c0 .2-.1.4-.1.6v-.2c.2-.1.4-.1.3-.2zm-23.6-19.5a.6.6 0 0 0-.1.4l.5-.6zm-55-86.6v.2h.2zm-3.7-15.4l-.5-.5v.7zm-8.3 125.9l.4-.4a1.4 1.4 0 0 1-.4.4zm-11.7-20c-.2-.2-.3-.1-.6.5h1zm-15.5 47.2h-.3a4.3 4.3 0 0 1-.1.5c.2-.3.4-.4.4-.5zm-8.1-153.3l.4-.3zm.3 153.2h-.4l.5.5a.7.7 0 0 1-.1-.5zm-4.6 0l.2.5.3-.3a.2.2 0 0 0 .2-.2zM162 184.2h.3a.6.6 0 0 1 .1-.4zM158.1 302l.3.3v-.2zm-15.5-46.9l-.2-.3h-.2a1.4 1.4 0 0 1 .2.7c.2-.1.2-.2.4-.2zm-7.9 38.8a2.5 2.5 0 0 1-.4.7l.5-.6z"></path><path d="M274.9 104.6a86.5 86.5 0 0 0 8.9.9c-3.4 5.3-7.3 10-13.5 12.7-2.6 1.1-2.8 3.1 2 6.7.5 2.5.3 5.3 1.6 7.4s3.2 5.4.1 8.4-5.8 5.5-9.9 1.9c-2.4-2.2-4.7-1.2-7.2-.2-.9.3-2.9-.2-3-.6-.6-3.9 1.9-5.2 4.3-8.2s6.3.2 4.8-3.6-1-4.6.6-6.7c-4.9-4.8-1.1-9.3.2-14.1.6-2.2-1.3-3.2-3.4-1.8s-1.5.8-2 .6c.5-1.8 1-3.7 1.6-5.5 3.8-1.5 3-3.9 1.9-6.5a22.5 22.5 0 0 1 .8-2.4c8-.6 15.5.3 21 7.6a87.2 87.2 0 0 0-8.8.8c-.5 0-1.2.8-1.3 1.3s.8 1.3 1.3 1.3z"></path><path d="M284 101.6l-.3-.4h.8z"></path><path d="M284 105.2l.5.4h-.7z"></path><path d="M177.6 105.6c5.7-.6 11.1-.6 15.4 4.5 1.8 2.2 4.8 3.5 7.3 5.2-1.7 2.6-6.6 1.6-6.3 6-.9.7-4-.5-2.3 2.5l1.8-3c2.9.6 4.5 2.5 4.1 5.3-.7 4.7-3.9 12-8.7 10.1a5.8 5.8 0 0 1-3-4.2c-.4-4.5-2.3-6.9-7-7-1.8-.1-4.4-.5-2.7-3.1 3.4-5.4.9-11.3 2-16.8z"></path><path d="M107.3 238.9c-5 .5-10.7-.2-14.9 1.9s-7.1 1-10.4-1-7.1-1.8-5.3-6.1c.6-1.5 4.5-1.7 6.8-2.5.7 1.1-.1 4.4 2.9 1.9l-3.1-1.7c.2-1.9-.2-4.1.7-5.6s3.2-.1 4.9.3 2.5-1.3 3.4-1c3.3 1.2 6.5 2.9 9.7 4.4-3.9 7.1 2.6 4.8 5.3 6l-.5-.4c0 5.2-.2 4.6.5 3.8z"></path><path d="M343 132.6h1c-.2.3-.4.5-.5.5h-.2c-.1 0-.1-.1-.1-.2s-.1-.3-.2-.3z"></path><path d="M357 124.4c-3.4 4.6-.1 10.5-3.8 14.8-2.8-2.6-4.6-6.7-9.2-6.7 1.1-1.2 3.6-4.7 10.1-13.3l-8.6-6 5.7-4.2 7.2-1.8c.4 6 2.2 12.1-1.4 17.2z"></path><path d="M157.5 158.5c-5.6 2.7-13 4.9-6.3 10 3 2.3 3.1 2.3 2.1 6-.1.3-1.1.6-1.5.4a35.8 35.8 0 0 1-4.9-3c-3.7-3.1-7.5-6.2-11-9.6-.7-.7-.5-2.4-.4-3.6s12.3-4.5 22-.2z"></path><path d="M178.2 105.1c-3.7-.4-8 .7-7.9-5.7s-4.4-5.6-8.3-6.1l.4.4c1.2-8.6.1-7.5 15.8-7.8l-.5-.5a62.2 62.2 0 0 1-1.5 7.5c-.8 2.1-.7 3.6 1.6 4.2s4 2.4 1.7 5.2a17.7 17.7 0 0 0-1.9 3.3z"></path><path d="M142.8 255.2c-.5-3.4-5.6-6.1-1.5-10.1-7.7-5.7-6.1-3.7-5.1-8 3.4 2.2 9.8-3.9 11.2 4.4.4 2.8 6.3 1.6 6.8 5.8l.4-.6-4.2 4.3c-9.4 4.3-8.4 3.5-7.6 4.2z"></path><path d="M194 179.9a13.5 13.5 0 0 0-12.2-.6c-.7.3-2.5-.7-2.9-1.6a3.9 3.9 0 0 1 .2-3.5 21.2 21.2 0 0 1 5.5-5.3c4-2.5 8.8.7 9 5.7s-.8 6.5.4 5.3z"></path><path d="M315.6 325.6l.4.4c-.9-2.3-3.2-5.7-2.5-6.6 3.3-4-.4-11.2 6.4-13.1l-.4-.4c-.5 3.7-.2 7 4.2 8.2l4 4c-.4-.5-.2-1-.4 4.1.8-.8 2.6-1.2-11.7 3.4z"></path><path d="M158.1 46.2c-1.1 4.2-4.5 7.1-8.3 7.2-.9 0-2.8-1.2-2.8-1.9.2-10 3.1-9.9 8-8.8 1.4.3 2.3 2.5 3.1 3.5z"></path><path d="M418.9 219.3l-9.5 10.3a47.2 47.2 0 0 1-6.9 1.6c.9-.7 3.6-12.2 16.4-11.9z"></path><path d="M106.8 239.4c9.8 2 6.6.9 12.1 5.2-4.5 2.8-10.3 7.4-13.7 5.7s.2-2.9.6-4.3l1.5-7.1z"></path><path d="M354.9 152.8c10.3.1 7.3-.3 10.7 1.9a17.7 17.7 0 0 1-3.2 2.1c-2.5 1.1-1.6 2.6-.7 4.3s.2 1.1.4 1.6c-2.5.5-5 1.5-7.5 1.3s-2.2-2.4-3.3-3.8l-.3.5c5.2-.8 3.8-5.2 4.4-8.4z"></path><path d="M165.5 65.9c-.5 1-1.6 2.8-1.6 2.8a63 63 0 0 1-8.4-4.8c-.8-.5-1.1-2.6-.7-3.5 1.3-2.8 8.7-2.9 10.7 5.5z"></path><path d="M99.5 266.9c-1.1-1.4-1.9-3.4-3.3-4s-4.5-2.2-1.7-5.1c4.3-4.6 8.7-2.6 8.1 5.4-.1 1.2-2.4 2.2-3.7 3.3z"></path><path d="M112.7 274.8l-3.8-.5-3.2-2.5a1 1 0 0 1 .8-.5c3.6-1.1 7.1-2.3 10.7-3.3.3-.1 1.2.8 1.3 1.2.1 4.2-.2 3.3-5.8 5.6z"></path><path d="M126.6 254.7c-.9 1.6-1.5 3.4-2.7 4.8-4.2 4.7-5.8.9-8.3-5.1-.1-.3 1.5-1.9 2.1-1.7 8.5 1.7 10 3.2 8.9 2z"></path><path d="M75.3 251.1l-4.9-3-1.2-3c1.1-.3 2.7-1.1 3.4-.6a6.1 6.1 0 0 1 2.7 6.6z"></path><path d="M202 138.3c0-.6-.3-1.4-.1-1.7 7.7-8.7 6.2-6.6 9.8-6-.4 2 1.5-.1-8.5 9.3z"></path><path d="M146.2 37.2c-8.4 4.5-8.4 4.9-9.7 3.6s-.1-1 .1-1.3c1.9-2.6 4.1-4.6 7.7-3.9.4.1.8.6 1.9 1.6z"></path><path d="M153.2 70.7c5.7-.5 8.6 4.6 8.1 5.4s-6.3 2-9.2-3c-1-1.8-.5-1.5 1.1-2.4z"></path><path d="M373.2 131.1c-2.7 1.6-5.3 3.1-8 4.5 0 0-1.6-2-1.3-2.5 2.6-4.5 3.8-3.7 8.5-3.1.3.1.5.7.8 1.1z"></path><path d="M229.3 305.9c-4.3-.5-4.3-3.6-4.1-6.9s1.6-2.9 8.1-.5l-.5-.5c-4.5 9.7-4.1 8.5-3.5 7.9z"></path><path d="M255 303.5c-.1.4-.1 1.1-.4 1.2a40.2 40.2 0 0 1-6.5 3.4c-.6.3-2.4-.7-2.4-1.1s.4-2.9 1.1-3.2a31.3 31.3 0 0 1 6.9-1.4c.4-.1.9.7 1.3 1.1z"></path><path d="M197.4 152.4c-4 4.5-5.3 5-9.2 3.2-1.5-.7-1.1-1.3-.1-2.8 3.4-5.3 6.5-.7 9.7 0z"></path><path d="M162.4 183.9c-4.8-.6-4.2-4.3-3.6-7.3.2-1.4 2.2-2.7 3.7-3.6s2.5-.4 3.8-.6c-.6-.6-.4-1.3-.4 4l.4-.4c-4.6 1.1-3.7 5-4.3 8.2z"></path><path d="M355.3 195.6c-3.5-.2-7.1.2-7.1-3.9s4-4.6 6.6.7c.5 1 .1 2.4.1 3.7z"></path><path d="M107.9 228.2c0-12.2-1-9 4.5-11.6.5 3.7 1.9.5-4.5 11.6z"></path><path d="M339.3 231.3c-.4 6.9-1.8 8.4-6.3 6.6-.7-.3-.9-1.8-1.4-2.8l-.3.4a4.8 4.8 0 0 0 4.3-4.4c-.6.6-1.2.5 3.8.3z"></path><path d="M166.3 172.4c.8-5.1 4.8-3.5 8-3.8l-.6-.5c-.2 3.1 1.4 7.2-3.8 7.9 2.3 2.3-5.6-5.9-3.6-3.6z"></path><path d="M350.9 176.5a26.6 26.6 0 0 1 5-2.1c.8-.2 2.6.4 2.7.8a5.7 5.7 0 0 1-.8 3.4c-1.8 2.3-3 1.7-6.4-2.7z"></path><path d="M225.3 333c1.2-.8 2.4-2 3.8-2.5s1.8.8 2.8 1.3l-5.1 5.2z"></path><path d="M233.3 298.5a55.6 55.6 0 0 1 1.9-7c.2-.5 2.3-.8 3.3-.5s1.7 1.6.2 2.7l-5.9 4.3z"></path><path d="M360.9 204.1l5 5.5c-.9.5-1.7 1.5-2.7 1.7s-3.5-1.1-3.8-3 .7-2.2 1.5-4.2z"></path><path d="M189.5 341.8c5.6.9 3.7 5.3 3.8 8.6 0 .5-1.4 1.1-2.3 1.4s-1.1-.8-1.1-1.3c-.2-10 .6-9.6-.4-8.7z"></path><path d="M158.1 302c.2 4.9.6 3-1.6 7.2-3.9-3-2.5-1.6-5.3-5.4 4.2-2 2.3-1.6 7.2-1.5z"></path><path d="M423.9 214l-3 3.2a7.8 7.8 0 0 0-1.2-2.2c-1.1-1.5-.9-2.2.9-2.6s1.4-.3 1.7.1z"></path><path d="M99.5 266.9h-.2l-.5-.3a.3.3 0 0 0 .1-.2z"></path><path d="M95 246.9c-.4 3.3-2.6 3.7-5.3 3.1-.5-.1-.9-.7-1.3-1.1 1.8-1.4-.2-1 7.1-1.6z"></path><path d="M126.6 251.3c5 0 3.3-.3 6.8 1.7a13.9 13.9 0 0 1-3.1 1.8 11.6 11.6 0 0 1-3.7-.1c.4.5.3 1.2.4-4z"></path><path d="M217.6 286.7c3.8-5.3 2.4-4.2 6-2.9-1.5 2.8.4 2.4-6.6 2.4z"></path><path d="M295.8 282.8c7.2.2 5.2-.1 7 1.3-.4.4-.7 1-1.1 1.1-2.7.7-4.7.1-5.4-3z"></path><path d="M288.4 298.4c.2-5-.1-3.3 1.7-6.8.4.4 1.3.8 1.3 1.2.1 4.4-.9 3.8-3.5 5.2z"></path><path d="M266 300.2c1-.6 1.8-1.5 2.6-1.5s1.6 1 2.4 1.6c-1.8 1.3-.4 1.5-5-.1z"></path><path d="M311.3 306.2l-1.9 2c-1.6-4.4-1.5-3.1.2-4.6.6.9 1.2 1.7 1.7 2.6z"></path><path d="M359.8 314.3h-1l.4-.5z"></path><path d="M341.7 343.4a8.4 8.4 0 0 1-2.7 1.3c-.6 0-1.2-1-1.7-1.6 4.2-1.2 2.9-1.1 4.4.3z"></path><path d="M128.7 28.1c-.2.4-.2 1.1-.4 1.2-4.2 1.2-3.6.4-4.6-.7 1.8-1.2.4-1.2 5-.5z"></path><path d="M148.8 63.7c-.4 1.2.6 1.2-4.8.1 1.7-1.2.3-1.3 4.8-.1z"></path><path d="M144.7 75.4a5 5 0 0 0-.2 1.2l-4.5-1.1c1.7-1.3.4-1.4 4.7-.1z"></path><path d="M279.7 77.1l-1.4-1.9c4.5-.8 3.2-.8 4.7.7z"></path><path d="M162 93.3c-.6 1-1 2.4-1.9 2.8s-2.4 0-3.6-.2c2.3-2 .6-1.6 5.9-2.2z"></path><path d="M335.2 129.4l-1.8 2.7c-.5-1-1.5-2-1.4-2.9s1.1-1.9 1.7-2.8z"></path><path d="M156.9 134.9c-1 .4-1.9 1-2.8.9s-1.3-.8-2-1.3c4.5-1 3.1-1 4.8.4z"></path><path d="M180.3 134c.3 1 1.1 2.1 1 3.1s-1.2 1.3-1.9 2c-.4-1-1.3-2-1.2-2.9s1.3-1.5 2.1-2.2z"></path><path d="M193 144.4l-2.1-2.2c1.1-.4 2.3-1.1 3.4-1s1.3 1.2 2 1.9z"></path><path d="M216.8 145.5l-2.5 1.1c0-4.3-.2-3.2 1.3-4.3z"></path><path d="M128.7 150.9c.5-1.2-.4-1.2 4.3 0-1.5 1.3-.3 1.5-4.3 0z"></path><path d="M280 148.4c-4.1 5.3-2.6 4.2-6.2 2.9 1.6-2.8-.4-2.3 6.8-2.4z"></path><path d="M320 156.2c-2.9-.7-6.8.6-7.9-3.9l-.5.6c3.4-.3 7-1 7.9 3.9z"></path><path d="M253 175.9c-4.9.2-3.1.7-7.3-1.6 6.9-1.6 4.9-1.8 6.8 2.1z"></path><path d="M400.2 182.5c4.6-2.2 3.4-2 4.8-.3-3.9 1.3-2.9 1.3-4.8.3z"></path><path d="M241 196a16.1 16.1 0 0 1 0-3.8 12 12 0 0 1 1.9-2.9c.5 1.1 1.4 2.1 1.4 3.1a3.2 3.2 0 0 1-3.5 3.4z"></path><path d="M380.6 190.6c4.5-2.4 3.3-2.2 4.8-.5-4 1.5-2.9 1.4-4.8.5z"></path><path d="M368 192.5l1.4 1.3c-4.7 1.5-3.3 1.4-5-.1z"></path><path d="M436.1 197.1c-.1.4 0 1.2-.1 1.2s-2.5 1-3.5.7-1.9-1.9.2-2.3a10.5 10.5 0 0 1 3.4.4z"></path><path d="M390.3 199.6c-4.3 5.1-2.7 4.1-6.3 2.2 1.5-1.4-.4-1 6.8-1.7z"></path><path d="M82 212.7a11.8 11.8 0 0 1 .8 3.1c-.1.8-1 1.5-1.5 2.2-.4-1-1.1-2.1-1-3.2s1.1-1.4 1.7-2.1z"></path><path d="M362.8 226.7l-1.5-1.9c4.5-.7 3.1-.7 4.7.7z"></path><path d="M348.5 237.6c2.7-1.9 2 .8 2.5 1.8.5-.6 1-.1-2.5-1.8z"></path><path d="M129 20l.5 1.2-1.3-.3.8-.9z"></path><path d="M140.6 27.6l.5 1.3-1.4-.2.9-1.1z"></path><path d="M171 60.1l1.5-.5-.3 1.5-1.2-1z"></path><path d="M179 68l1.3-.4-.2 1.2-1.1-.8z"></path><path d="M171.8 72.8l-.9-1.1c.4-.3.8-.8 1.2-.7s.7.6 1.1.9z"></path><path d="M178.2 81.4l-3.1-1.4.9-1.2c2.1 3.7 1.5 3.2 2.2 2.6z"></path><path d="M178.2 85.9v-4.5c-.7.6-1 0 2.4 3-3.5 1.2-3.1.9-2.4 1.5z"></path><path d="M156.1 86.1l1.1 1.3-1.1.9z"></path><path d="M195.9 86.9l.5 1.2-1.3-.2.8-1z"></path><path d="M187.5 96.2l-.5-1.4 1.4.2-.9 1.2z"></path><path d="M284 101.6l2.8 1.7-2.8 1.9.5.4c0-5.4.3-4.7-.5-4z"></path><path d="M152.3 107.9l-.4-1.1 1.2.3-.8.8z"></path><path d="M384.7 106.4l.4 1.3-1.4-.2 1-1.1z"></path><path d="M368.6 115.6l-.5-1.1 1.2.2-.7.9z"></path><path d="M121.3 118.7l-.2 1c-1.2-.9-1.3-.6.2-1z"></path><path d="M289.9 119.9l-.5-1.3 1.4.2-.9 1.1z"></path><path d="M272.6 125.2c1.6-3.5 1-2.8 2.7-2.6-3.5 2.6-3.2 2.1-2.7 2.6z"></path><path d="M136.5 134.2c1.5 2.7-1.4 1.6-2.1 2.4s.1.9 2.1-2.4z"></path><path d="M173.4 135c-.5.3-1 .9-1.4.9s-.8-.7-1.2-1.1.9-1.1 1.4-1 .8.7 1.2 1.2z"></path><path d="M132.7 139.3c-1.1-2.5 1.6-1.4 2.2-2.3s-.1-1-2.2 2.3z"></path><path d="M117.6 142.9c-1.4.4-1.2.6-.9-.6z"></path><path d="M208 146.3v.9c-1.7-.8-1.8-.5 0-.9z"></path><path d="M226.9 147.5l-.5-1.2 1.2.2-.7 1z"></path><path d="M280.6 148.9a26.9 26.9 0 0 1 1.6-2.9l.9.9-3.1 1.5z"></path><path d="M199.3 149.7c2.1 2.8-.8 2.1-1.9 2.7.6.5.2 1 1.9-2.7z"></path><path d="M253.8 150.5l1.5-.4-.2 1.3-1.3-.9z"></path><path d="M164.3 153.9l.4 1.2-1.1-.3.7-.9z"></path><path d="M289.9 159.1l-.6-1.3 1.4.2-.8 1.1z"></path><path d="M129.6 162.4l-1.4.4.2-1.3 1.2.9z"></path><path d="M176 165.7c1.6 3-1.4 1.7-2.3 2.4.7.7.2 1.1 2.3-2.4z"></path><path d="M313.6 167.1l-.6-1.2 1.5.2-.9 1z"></path><path d="M124.7 171l-.4-1.1 1.1.2-.7.9z"></path><path d="M435.9 173.4l.6 1.4-1.5-.2.9-1.2z"></path><path d="M168.1 179.2l-1.8-3.2c-.6.6-1.3.4 4 .4-.6-.6-.1-1-2.2 2.8z"></path><path d="M239 177.3c2 3.2-1.4 1.9-2.3 2.6.7.7.2 1.1 2.3-2.6z"></path><path d="M255.8 177.9c-2.8 1.9-2.5-.4-2.8-2-.6.6-1.1.2 2.8 2z"></path><path d="M431.6 182.8l-.5-1.3 1.2.2-.7 1.1z"></path><path d="M156.5 188.9l.6 1.5-1.4-.2.8-1.3z"></path><path d="M183.8 191l-.6-1.5 1.4.2-.8 1.3z"></path><path d="M416.1 190.8l-1.1-1c.4-.3.9-.8 1.3-.8s.7.7 1.1 1z"></path><path d="M396.3 193.2c1.8 3-1 1.9-2 2.4.6.6.1 1 2-2.4z"></path><path d="M357.9 198.3c-1.7.2-1 .9-2.6-2.7-.6.6-.9.1 2.6 2.7z"></path><path d="M390.3 199.6l.5.5c0-2.7 1.5-3.8 3.9-4-1.9-1.8 2 2.4-4.4 3.5z"></path><path d="M341.3 200.9l.4 1.3-1.3-.3.9-1z"></path><path d="M416.8 205.9l-1.3.5.2-1.3 1.1.8z"></path><path d="M349.3 213l.5 1.2-1.4-.2.9-1z"></path><path d="M66.5 217.7l-1.2.3c.3-1.2-.1-1.1 1.2-.3z"></path><path d="M370.1 217.6l-1.1.9c-1.5-.8-1.4-1.6.2-2s.6.7.9 1.1z"></path><path d="M77.7 224l1.2 1.3c-.5.3-1.2 1.1-1.4.9s-1.6-1.6.2-2.2z"></path><path d="M116.1 225.5l1.5-.4-.3 1.3-1.2-.9z"></path><path d="M136.5 230.2l-.4-1.2 1.3.2-.9 1z"></path><path d="M339.2 227.5l3 2.5-2.9 1.3h.1c.2-4.9.3-4.2-.2-3.8z"></path><path d="M109.5 232.6c.2 1.4.9.8-2.7 2.5.7.6.1 1 2.7-2.5z"></path><path d="M117.9 233.4a9.4 9.4 0 0 0-1 1c-.3-.4-.9-.8-.8-1.1s.6-.8 1-1.1z"></path><path d="M361.1 232.5c1.7 3.1-1.2 2-2.3 2.5.7.7.1 1.1 2.3-2.5z"></path><path d="M97.1 244.3c2.2 3.2-1 2-2.1 2.6.6.5.1 1 2.1-2.6z"></path><path d="M327.3 243.3l3.3 1.9-3.1 1.8.2.2c.2-5.3.4-4.6-.4-3.9z"></path><path d="M127 250.7l-2.9-2.4c.4 0 1.1-.2 1.1 0 1.8 3.2.9 3.4 1.8 2.4z"></path><path d="M109.8 256.9l-1.2.3.2-1.1 1 .8z"></path><path d="M237 282.4c-.5.9-.9 1.9-1.3 2.8a18.5 18.5 0 0 1-1.4-1.4l2.8-1.3z"></path><path d="M247 291.6l.5 1.2-1.3-.2.8-1z"></path><path d="M134.3 294.6l3.4 1.3-1 1.2-1.9-3.1z"></path><path d="M287.9 298c-1.2 3.6-.7 2.8-2.3 2.8l2.8-2.4z"></path><path d="M319.9 302c-.7.7-1.4.6 4-.1l-.6 4.5c.8-.7 1.5-.5-3.8-.5.6.6.4 1.3.4-3.9z"></path><path d="M292.9 307.9l1.6-.5-.1 1.3-1.5-.8z"></path><path d="M313.9 328.9c-2.2-3.1.6-2.5 2.1-2.9-.6-.5-.1-1.1-2.1 2.9z"></path><path d="M190 333.4c-.7.7-1.4.5 4 .5l-.5-.5a3.9 3.9 0 0 1-4 4c.7.6.6 1.3.5-4z"></path><path d="M201.3 333.9l3.3 1.5a6.4 6.4 0 0 1-1 1.3c-2.2-3.9-1.7-3.5-2.3-2.8z"></path><path d="M190 341.3l-2.8-1.1 2.8-2.4c-.7-.6-.5-1.3-.5 4z"></path><path d="M230.3 343.4l1.4-.5-.2 1.3-1.2-.8z"></path><path d="M326.1 347.6l-1.1.5.2-1.3.9.8z"></path><path d="M237.2 353.1l-2.7-1.5.7-.9 1.5 2.9z"></path><path d="M198.7 355.3c3.1-1.9 1.9 1.3 2.6 2.2s1.1-.2-2.6-2.2z"></path><path d="M236.7 353.6l3 1.6c-2.8 1.7-2-.9-2.5-2.1z"></path><path d="M205.7 361c-2.7.1-3.7-1.6-3.9-4l-.5.5c2.7 0 3.9 1.4 3.9 4z"></path><path d="M208.3 363c-2.8 1.8-2-1-2.6-2-.6.6-1.1.2 2.6 2z"></path><path d="M327.3 290.6v-4.4h8.4c-1 4.9-4.9 4.3-8.4 4.4z"></path><path d="M323.4 302.5V298h8.4c-.8 5.2-4.9 4.4-8.4 4.5z"></path></g><path d="M224.1 924.4c-21.7 2.3-45.1-1.5-68.4-4.3-18.4-2.2-31.9-10.5-40-29.7-30.2-72.1-101.6-194.7-33.1-352.5 17.1-39.4 49-61.8 88-72.3 45.1-12.1 91.6-15.4 138.3-6 29.3 5.9 36.2 16.6 47.1 22.8 51.4 28.9 69.8 78.6 73 131.7 3.7 63.2-.6 127-10.6 189.9-2.9 18.1-8.4 35.6-15.5 52.6-15.3 37-41.4 59.7-82.7 62.3-31.3 2-62.5 7-96.1 5.5z" fill="#de951e"></path><path d="M64.6 302.5c47.5 3.7 67.4 18.1 87.3 27.2 1.9.9 4.5 4.1 6.5.4.8-1.3.1-3.9-.7-5.5a211.1 211.1 0 0 0-38.3-56.8c-14-14.6-27.1-30.4-44.4-41.5-2.4-1.6-6.7-3.1-4.5-7.3s5.3-2.7 8.6-1.6c27.7 9.1 52.7 23 74.3 42.8 65.1 59.6 56.2 68.9 62.3 66.7 3.9-1.4 2.5-5.5 2.2-8.4-1.5-17-6-33.5-10.6-49.9-10-35.9-18.2-72.4-34.3-106.3-1.4-2.9-3.8-6.1-.5-8.8s6.2.1 8.7 2.1c19.8 15.6 34.6 35.6 48.9 56 36.8 52.7 34.4 89.7 44.5 87.8 2.3-.4 4.1-22.1 14.3-46.3 8.1-18.9 22.8-46.2 40.8-56.5 4.8-2.8 10-8.6 15.8-3.5s-.1 9.4-1.6 14.1a953 953 0 0 0-31.4 125.6c-.4 2.2-1.8 5.4 1.5 6.4s12.2-9.2 14.8-12c37.9-41 92-39.4 133.9-19.4a50.4 50.4 0 0 1 19.7 16c5.1 7.1 14.6 14.5 9.5 23.4-2.1 3.7-12.7-3-19.3-5-22.3-6.7-60.8-10.7-82.8 1.1-5 2.7-13.4 4.5-12.7 10.6s9.6 4 14.6 5.5c19.9 5.6 46.6 15.5 60.8 30.5 4.5 4.8 12.1 11.2 9.2 16.1-4.1 7-11.4-1-17.1-2.3-34.7-8-68.4-10.9-100.8 8.9-7.6 4.6-11.6 12.1-18.9 16.7-21.2 13.5-43.5 15.9-67.5 8.7-16.8-4.9-33.2-12.5-51.5-9.9-3.7.6-5.7-2.7-8.5-4.1-11.2-5.4-22.5-10.6-33.8-15.8-27.7-12.7-55.8-12-84.2-2.5-3.8 1.2-7.4 2.7-11.1 3.9s-4.7 3.3-7.1.7-1.8-6.3-.2-9.1c11.8-21.7 34.5-39.5 62.2-36.9 7.1.6 14.1 2.6 21.2 3.8 1.6.3 3.4-.3 5.1-.5-.7-1.8-.9-4-2.1-5.2-34.5-31.9-64.8-41.1-91.8-51.6-2.8-1.1-7.1-.9-6.5-5.4s4.7-3.5 7.7-3.6 5.2.5 7.8.7z" fill="#215052"></path><path d="M425 416.5a4.3 4.3 0 0 1-3.5 4 13.4 13.4 0 0 1-1.8.7c-28.7 4.2-52 20.8-76.7 34.2l-.5.3-4.6 2.5-2.5 1.2h-.3c-1.9 1.1-3.9 2-5.9 3q-6.3 3-12.6 5.7l-3.1 1.3c-7.7 3.2-15.6 5.9-23.5 8.4h-.4a190 190 0 0 1-50.9 8.2c-4.1.2-8.3.1-12.5-.1a170.6 170.6 0 0 1-21-2.3c-3.7-.6-7.4-1.3-11-2.2l-3.9-1c-8.6-2.4-16.6-6.1-23.7-12.5a62.7 62.7 0 0 1-5.5-5.9c-11-13.8-28.3-20.7-44.4-28.2-2.1-1-6-1.2-4.8-4.8s4.2-2.3 6.8-2.4c19.1-.9 38.2 7.7 40.5 4.6l.3-.5a3.3 3.3 0 0 0 .3-1.9c-.3-1.5-1.7-2.8-2.9-3.9a202 202 0 0 0-29.5-22.8c-3.7-2.4-11.9-3.2-8.1-10.1s9.2-2.2 14.2-.6a302.5 302.5 0 0 1 42.2 17c5.4 2.7 10.7 5.7 16 8.8l.9.5c2.4 1.5 5.1 5.5 8.1 1.6 0-.1 0-.1.1-.1s.8-2.6-2.1-8.9-7.6-15.6-15.9-33.9c-2-4.3-7.8-9.1-1.1-13.5s9.5 2 13.1 5.4 9.7 9.3 14.4 14.2 9.5 10.2 14 15.6c2.9 3.6 5.8 7.2 8.5 11 1.5 2.1 2.7 5.3 5.3 6a3.1 3.1 0 0 0 1.7.1c4.1-.5 3.3-4.9 4.1-7.7l.3-1.1c5.4-17.2 12.6-33.7 19.4-50.3 1.5-3.4 3.2-7.6 8.3-6.9s5.1 3.8 5.1 34.6h.2c0 29.9-.7 30.9 2.8 32.3s4.5-1.5 6.2-3.4a200.8 200.8 0 0 1 37.7-34.2c5.9-4.2 11.9-8.4 19.3-9.4 2.4-.3 5.7.1 7.3 1.5s.7 1.8-18.8 42.1c-1 1.9-3.5 4.7 0 6.5a7 7 0 0 0 5.5 0c15.6-5.7 32.1-6.4 48.1-9.4 12.8-2.4 24.8 1.2 37 3.1 1.7.4 4 .9 3.8 3.6z" fill="#1e4344"></path><path d="M263.5 440.5h.3c-.3-.3-.4-.5-.3 0zm49.7 26c-.1 0-.1.1-.1.2l.3-.3zm5.7-3v.3l.3-.3zm3.3-18.1c-2.1-1.8-3.6-.8-4.6.8s-2.4 5.9-6.7 4.2c-.6-.2-1.6.8-2.5 1.1-4.4 1.8-4.2 1.7-7.6-3.8-1.2-1.7-3.3-3-5-4.4 0-2.3-.4-4.6 1.7-6.6s3-1.8 4.9-.7c.3.2 1.7-.6 1.9-1.1s-2.7-5.9-3.8-5.4-4.7 2.7-7.1 4c.5 6.7-7.5 9.9-7 16.7 0 .3-1.8 1.4-2.3 1.1-4.6-2.1-10.3-1.8-14.1-5.8-1.8-1.8-3.9-2.2-6.3-2.4-.1-1.5-.2-2.2-.2-2.6-6.3-.9-4.5-7.2-6.9-11l-9.6 4.3a18.4 18.4 0 0 0-2.1-6.5c-2.3-4.1-6-7.2-10.1-10-2.4-1.6-4.7-3.3-7.1-4.8s-5.6-2.2-2.8-5.9a11.8 11.8 0 0 0-7.2-6.6 3.2 3.2 0 0 0-2.5.7 2.7 2.7 0 0 0-.2 2.6 21 21 0 0 0 3.3 2.6c1.3 1.1 1.9 2.4 1.4 3.7a2.4 2.4 0 0 1-.9 1.2c-1.1 1.2-2.1 3.4-4.6 1.9a14.4 14.4 0 0 0-5.5-1.4c-.7-.1-1.5.8-2.2 1.3a3.1 3.1 0 0 0 .7 1.2l6.3 3.4c3.6 1.7 5.4 9 2.1 10.5a19.5 19.5 0 0 0-3.6 2.5c-1.9 1.2-3.8 1.9-6.5-.2s-6.4-1.3-10.6-1.2a17 17 0 0 1-8.9-2.2c-4.2-2.3-8.6-4.1-13-6a1.3 1.3 0 0 0-1.2.6c-.2.2-.1.8 0 1.1 4.8 6.7 12.3 9.3 19.5 11.6a91.4 91.4 0 0 1 13.8 6.4c-.4 2.2-2.1 2.7-4 3s-3.3 1.5-3.2 1.8c1.4 4-.5 4.1-3.3 2.9-10.1-4.1-10.5-5.3-11.5-4.1a.3.3 0 0 0-.1.2 1.1 1.1 0 0 0-.1 1.1c4.6 3.9 5.8 9.4 7 14.8-2.6 4-1.7 8.4-1.7 12.8a3.4 3.4 0 0 0 1.1 2.5 9.1 9.1 0 0 0 2.4 1.6c4.4 2.4 9.1 4.6 14 5.2h1.7a1.7 1.7 0 0 1 1.2.6c2.7.7 5.4 1.2 8.2 1.7a138.5 138.5 0 0 0 15.5 1.7c0-2.2 1.5-2.2 5.1-1.2l4.2 1.2a141.4 141.4 0 0 0 37.7-6h.2c5.9-1.8 11.7-3.9 17.5-6.2a2.4 2.4 0 0 1-.2-.8c-.2-.8.8-.9 2.4-.2 3.2-1.3 6.3-2.8 9.4-4.3-.1-2.3 2.3-1.9 4.4-2.1h.2c.8-2.6 3.2-2.5 5.2-2.8h.5a.1.1 0 0 1-.1-.1c-.2-4.6 1-8.3 6.2-10.1 1.2-.4 1.7-2.8 2.5-4.3-1.8-1.4-3.7-2.5-5.3-3.8zM221 465.5a4.7 4.7 0 0 1-.7-2.2c0-.5.9-.8 1.5-1.3 1.2 3.3 1.2 2.3-.8 3.5zm-24.9-.2c-.2-1.4-3.1-3.3.3-4.1 5.4-1.3 7.3 2.4 11.5 6.8-8.2 4.7-10.6 7.5-11.8-2.7zm10.6-8.1c-.5-.7-1.2-1.4-1.2-2.1s.8-1.5 1.2-2.2 1.2 1.5 1.2 2.2-.8 1.4-1.2 2.1zm-1.1-16.9a17.3 17.3 0 0 1 .2-4 2.4 2.4 0 0 1 1-1 1.7 1.7 0 0 1 1.3-.4 34.2 34.2 0 0 1 5.4 1.8 12.8 12.8 0 0 1 5.2 4.4c.5.8-.6 1.8-1.3 1.7-5.8-.5-6.2-.8-11.8-2.5zm17.1 37.5a5.2 5.2 0 0 1-.5 1.9 2.5 2.5 0 0 1-2.4.8c-3.2-.7-3.4-4-4.9-6.2-.2-.2.1-.9.3-.9 4.7-.9 8.3-2 7.4 4.5zm19.1 2.7c-3.5.3-6 1.5-9.1-3.6-.7-1.2 3.9-2.1 5.8-.9a45.8 45.8 0 0 1 4.3 3.4c-.5.6-.7 1.1-1 1.1zM230 442.3a3.8 3.8 0 0 1-.8-1.1c-.2-.5-.2-1.2.1-1.4 2.7-1.8 5.5-3.5 8.3-5.2-4.4-3.6-6.9-8.7-10.7-12.8a1.1 1.1 0 0 1 .3-1c.3-.2.9-.6 1.2-.4l1.7.7c4.7 2.2 7.6 6.3 10.2 10.7.3.5.1 1.2 0 1.9s-.1.6-.1.9l6.1 4.2c-5.8 2.7-11.7.1-16.3 3.5zm32.1 41.2c-.3-.3-.7-.6-.7-.9s.5-.5.8-.8a3.9 3.9 0 0 1 .8 1zm5.7-32.2c-.3.3-.9.6-1.2.4-4.7-2.3-9.3-4.7-13.9-7.3-.3-.1.1-1.7.3-2.6a1.8 1.8 0 0 1 1.1-.8l9.6 2.4c1.5 2.2 3.1 4.5 4.6 6.9.1.1-.2.8-.5 1zm27-6l-1.1-1.1 1.8-.7zm32.8 3.6h-.1l.5.3z" fill="#193737"></path><g fill="#c97d18"><path d="M284.5 864.9c.5 6.3-2.1 10.4-8.4 11.9l.6.5a23.2 23.2 0 0 0-.7-3.8c-1.4-4-4.5-5.4-6.9-3.1-9.8 9-8.4 7.9-6 11.3a32.7 32.7 0 0 1 1.4 3.3v-.2h-7.9c-.4-1-.6-2.8-1.2-2.9-2.4-.5-2.8 1.2-2.6 3.1-7.5.5-5.4.1-7.1 1.7.4.5.8 1.2 1.3 1.3 2.9.7 4.9-.2 5.5-3.4l4.1.2c-.4 1.9-.3 4.3-1.4 5.6-2.7 3.1-10.7 1.6-14.6.3s-2.6 2.7-3.6 4.2a6 6 0 0 0-.3 2c.6-.7 2.1-.5-7.9-.5l.5.5a17.7 17.7 0 0 0-1.9-3.3c-5.9-6.1-9.3-6.2-13 1.4-2.3 4.5-4.9 5.4-8.9 4.9-1-.1-2-1-2.9-1.6 4.6-5.1-3.4-8.9-1.4-13.7 3.6-.5 7.5.8 10.8-1.7-.5-.4-1-1.1-1.5-1.1-3.4-.2-7.6-2.3-8.8 3.3-7.6-.2-11.8-7.2-18.5-9.2 1.9-5.6 4-10-1.5-8.8-8.4 2-12 1.8-16 4.9-2.2 1.8-3.5 3.6.6 5 .9.2 2.2 1.9 2 2.4-3 7.1 2.6 5.1 5.8 5.7l-.5-.6c-3.8 4.9.3 4.9-15.7.6a26.9 26.9 0 0 0-.5-5.7 4 4 0 0 0-2.8-1.8c-1 0-3 .9-3 1.4.1 6.4 2.2 5.1 6.8 5.6-.9 4.2-5.1 7.3-4.3 12.2l.3-.3c-9.2-.2-12.1.5-9.4-4.6s1-5.2-3.1-6.7a20.4 20.4 0 0 0-3.7-.6l.5.4c.4-13.4-10-5-14.9-10l6.7-4.3c-2.5-.7-4.2-1.6-6-1.7-6.5-.2-6-6.1-6-11.9 2.3-.5 3.9-1.4 4-4 7.1-.5 5.1-.1 6.7-1.6-3.3-1.7-1.7-2.6-6.2 2-2.3.4-4 1.4-4 4-2-1.4-4.2-2.6-6.1-4.2a3.3 3.3 0 0 1-.1-3.3c2.3-2.3 8.6-5.8 9-8.5.8-6.3-9.7-1.9-10.7-8.1-.4.5-1.6 1.7 2.4-2.4a26.9 26.9 0 0 0-2.9-1.6l.5.4c-1-2-3.6-5.1-3-6 2.2-3.3 1.6-5.5-.8-7.9l-4-14-.5.5c17.4-9 14.2-6.8-2.5-18.5-1.2-.8.8-4.9 1.2-4.8 5.6.9 9.7-3.2 14.7-3.9s9.1.4 13.6-2.9c-7.7-3.8-15.6-1.1-23.1-1.9l.6.5c-2.1-8.1-2.1-8.1-12.3-8.3l.3.3c-.8-2.2.2-.1-2.9-6.6 1.7-.5 3.5-1.3 5.2-1.3 7.5 0 10.4 2.7 17.5 5.8 3.1 1.4 3.1 1.3 3.8-4.1.3-2.4-2.2-1.9 4.1-2.1.5 1 .9 2.7 1.7 2.9 4.1 1.2 8.4 2.1 12.6-.7-4.8-2.9-10-.8-14.8-1.6l-1.8-3.2-1.8 3-8.2-1.5c3.1-3.3 5-6.1 7.5-7.9s2-6.4 2.9-9.7c1.9-7-4-4.4-14.5-4.9-.7 0-2.2-1.9-2-2.1 4.3-6.2-3.3-5-4.9-7.9 6.1-3.6 12.7-.4 18.9-1.3.1 1.3.3 2.6.4 3.9-5 .1-3.2-.2-7 1.7.4.4.8 1.1 1.3 1.2 4.5.5 3.8-.7 5.2-3.4 4.6.2 2.9.6 6.8-1.6a12.6 12.6 0 0 0-2.7-2 14.2 14.2 0 0 0-3.6-.3c-.6-7.2-.6-7.2-8.3-7.9l.5.5c-1.9-3.8.1-2-6.8-6.7 6-1.9 2-1.7 14.6-1.6 1.4 3.5.9 2.8 2.4 2.7-7-5.7-6.2-7.4-18.4-10.9-4.6-1.3-3.2-4.7-3.7-7.6l-.4.5c2.6-.1 5.5.6 7.7-.4a44.5 44.5 0 0 1 16.9-4c.7 0 1.4-1.4 2.1-2.1a21.1 21.1 0 0 0-3.4-1.6c-2-.9-5.2.7-5.8-2.9-.4-2 4-3.4 7.2-2.3 1.2.3 5 1.7 5.4.4.8-3 .5-2.6-4-10.1-18.5 11.5-15 10.6-19.1 7.2-1.6-1.4-1.9-2.9-.4-4.7 6.1-7.6 3.2-5 7.9-9.9l-2.7-1.6c.5.5.4 1.3.5-3.9l-.5.5c1.6-.3 3.7-.6 3-3-.2-.7-2-1-3-1.5l.5.5c2.3-6.5 2.3-6.5-4.2-11 8.8-.8 10.3.1 16.9-4.4.8-.5 1-2 1.1-3.1s-.9-.9-1.5-1-4-.3-5.7-1-3.7-6.2 1.2-6.9l3.9-.6 1.8 3.1c.6-1 1.1-2.1 1.7-3.2 3.5-.5 7.4 1.3 11-1.7-8.9-5.1-10.8-7.9-10.5 2.3h-4.4c-.4-1.1-.7-2.8-1.4-3.1-2.3-.9-5-1-7.3-1.9s1.6-4.5-1-6.2-2.5-.8-3.5-1.6c-2.9-2.3-2.1-5.2 2-6.8a22 22 0 0 1 3.7-.6c1.3 5.2 7 4.2 9.9 7 .4-.4 1.1-.9 1.2-1.4.8-6.8-1.2-4.7 3.5-7.1l-1.1-1.1a31.8 31.8 0 0 1-1.6 3.2h-12.2c.6-2.9-5.9-6.2 1.2-8.8 5-1.7 1.3-10.5 8.2-11.9 2-.4 2-2.1 0-2.4-5.5-.8-4.8-7.5-9.5-9.1-2-.7-1.4-4.7.9-5.6 4.5-1.7 9.2-3 13.9-4.4.1-.1.8.9.9 1.5s-.4 2.3-3.1 4.2c-4.8 3.6-4.1 3.7 1.1 7.4 2 1.4 5.1 2.5 5.7 4.4s-3 5-2.8 10.6a2 2 0 0 0 1.4 1.3c1.2.3 3.1.8 3.7.2s4.6-13.4 16-15.1c1.2-.2 2.5.5 3.7 1 2.9 1.3-2.3 2.4-7.5 6.3-.8.6-1.5 2.6-1.2 3 1.5 1.9 6.3 1.6 7.2 1.6l-.4-.4c-.5 1-.8 2.8-1.6 3.1-4 1.5-9.1.8-9.1 4.7 0 1 .8 2.8 1.6 3 7 2 13.9 2.2 20.4-1.7.8-.4 2.3.6 3.5.9a17.6 17.6 0 0 1-2.4 3c-5.8 4-5.8 2.1-16.5 3-.8.1-1.6 1.4-2.2 2.3s.8 1.2 1.3 1.3c7.3 1.5 1.6 5.5 1.6 8.3l-3.2 1.7 1.2 1c.5-1.1.9-2.1 1.4-3.1 7.7 1.5 8.5 1.1 8 12.2.4-.4 1.2-.4-4 .1-.4-1.4.3-4.4-2.8-2l3.3 1.5c-2.3 3.3-.3 2-7 5.8.9.8 1.5 2.1 2.5 2.4 3.7 1.3 4.4 4.7 5.9 7.4s-.9 9.2-3 10.4-2.3-.2-3.4-.4c-3.9-.7-3.9-.8-3.9 4.4s.1 6.3 4.4 4.4 7.1-3.3 10.9-.9c-4.2 2.4-8.6 4.8-12.7 7.4-.8.5-1.2 2.3-1.1 3.3.6 3.6 3.8 3.2 14.3 4.8l-17.7 7.2c1 5.6 6.4 6.1 9.5 9.5l-9.1 3.1c2.2 3.9 9.1.6 9.8 6.5l.6-.5c-4.3.6-9.2-1.5-12.6 2.8a25.3 25.3 0 0 0-2.1 3.2 14.1 14.1 0 0 0 2.9 1.8c2.7 1 6.7 0 7.4 4.4l.3-.3c-3.8 2.1-7.6 4.1-11.3 6.4-.4.3 0 2.3.3 3.4s.7 1.1 22.9 6.3l-.5-.4c1.2 10.4.9 6 9.4 4.7.2-.1 1.3 2.1 1 2.7-1.7 3.5-.2 4.5 3 4.1s5.5-4.8 7 1.3c.1.7 2.3 1.8 2.3 1.7 3.7-4.4 10.4-5 13.2-10.5-2.9 2.6 11.5-8.6 11.4.4l.4-.5c-7.3 4.2-7.3 4.2-5 10.8a74.6 74.6 0 0 0 4.3 10.5c2.6 5.1 2.8 5.1-2.8 8 2.5 10 8.4 15.3 19.1 14.3l6.4 6.1c-4.2 2.1-2.8 1.2-5.9 3.7 3.2 2.8 3 9.6 8.2 9.4 7.9-.3 10.7 5 14.4 9.8 2.2 2.8 4.5 4.9 1.2 5.7-1.8.5-1.2.5-8.8-3-.1-2.5-1.1-4.1-3.9-4l-2.2-3c-.2 1.6-1 1 2.6 2.6.1 2.6 1.5 3.8 4 3.9-.7 3-2.7 4.6-5.5 4.2-6.6-.9-8.2-5.6-11.9-.6-1.4 1.9-1.3 3.6 1.1 4.2s5.5 4 10.3 1.4 11.3-2.3 16.9.8c-6.8 4.9-6.8 4.9-7 14.1-.9.6-3.8-.3-2.1 2.5.6-1 1.1-2 1.7-2.9 4.1 1.4 7.3 3.7 8.3 8.3l-2.9 1.5.9 1 1.5-3a22.7 22.7 0 0 0 15-2.7c2.4-1.3 4.5-4.8 8.2-2.9s4.5 2.4 6.8 3.6l-5 3.8c4.8 4 9.7 8.1 14.7 12a3.2 3.2 0 0 0 3-.1c.5-.8.6-1.6.9-5.6h-.1c1.8-.2 4.1.3 5.4-.7 4.8-3.7 5.8.1 7.6 3.3.5.8 2 1.1 3.1 1.6l-.6-.5c0 1.2-.3 2.6.1 3.7s3.1 4.4 3 6.5-2.7 4-.5 6.5.9 2.1-.8 2.7-6.1-.7-7.8 2.7c11.3 3.3 8.4 1.9 10.1 5.8l.3-.3c-4 .7-7.3 6.3-12.2 1.8-2.8-2.5-4.9 4.9-18.2.5 1.6-7.5 12.2-4.9 13.6-12.5-4.8-3.1-10-1.4-15-1.2-1.5-5.4-5.4-4.3-9.2-3.4a7.9 7.9 0 0 0-1.5 1.2c1.9 1.5-.9 1.1 11.1 1.7zm-39.8.6c-.8-.8.2-3.7-2.5-2l3 1.5c.1 1.5-.1 3.3 2.3 2.9.2 0 .3-1.1.2-1.2s-2-.8-3-1.2zM131 790.7c-7.2.2-5.3-.1-6.9 1.5 4.5 2.6.5 2.4 9.3-4.3-1.6-.1-1-.9-2.4 2.8zm121.6 82.2c2.2.3.3.7 6.9-1.4-1-1.4-1.8-3.1-3.2-4.1-3.2-2.5-3.2 1.8-3.4 5.8l-2.9 1.4c-.1.1.1 1.3.3 1.3 2.3.3 2.3-1.4 2.3-3zm-126-62.6c-.5-1-.8-2-1.4-3s-1.2 0-1.2.2c-.4 2.5 1.4 2.3 3 2.4-1.2 6.4-7.9 2.7-11.1 6.1 2.8 1.6 5.6 4.4 8.1 4.2 5.8-.4 11.4-2.4 18.3-4.1zm51.6-59c-1.9.2-4.3-.2-5.6.8s-2.7 4.3-4.5 5.9-5.2 3.5-7.8 5.3a3.7 3.7 0 0 0-1 1.6c7.6 6.3 9.8-1.5 15.2-2.1 3.6-.3 8.6 1.7 10.3-2.8s-5.5-3.9-6.7-7.3a12.9 12.9 0 0 1-.4-1.9c4.3 0 8.7.1 13.1 0 .5 0 1.1-1.5 1.4-2.4a2.7 2.7 0 0 0-1.4-1.1c-13.8.7-10.9.5-12.6 4zm-38.9 88.5l12.3 3.8-9 2.1c-5.4 1.5-4 9.1 2.2 6.9l8.9-3.2c3.6-1.2 5-3.5 4.4-7.2a4.8 4.8 0 0 0-5.3-4.5c-4.4 0-9-.9-13.5 2.1zm43.1-41.7c14.3 0 10.4.4 13.9-1.9-1.6-2.1-1.1-2.8-7.2-6-3.4-1.7-6.9-3.8-8.3 2.3a5.4 5.4 0 0 1-3-.2c-4.7-2.3-3.8 4.5-1.5 5.1a35.1 35.1 0 0 0 6.1.7zm6.1-25.5c-1.1-.6-2.2-1.5-3.4-1.6-4.8-.6-8.9 3.2-9.7 9-.1.6 1.2 1.9 2 2.1 5.6 1.3 11.7-4.1 11.1-9.5zM173.8 745l-10.1-4.6a71.7 71.7 0 0 1-3.5 6.8c-1 1.5-1.1 2.4.4 3s.3 1 13.2-5.2zm17.9 119.6c4.9-8.4 6.2-8.1 2.5-12.5-1.3-1.5-3.2-2.1-4.6-.3-3.7 4.5-2.2 4.5 2.1 12.8zm6.6-86.2c4.5.2 6.7-.9 5.6-2.6s-2.7-3.5-4.1-3.6-3.4 1.9-4.2 3.4c-1.5 3 1.6 2.2 2.7 2.8zm17.6 41.2c-.5-.4-.9-1.1-1.4-1.2-5.7-.9-10.3 6.3-6.4 7.1s8-2.9 7.8-5.9zm63.3 30.5c-.5.3-1.5.7-1.5 1.1-.2 2.2 3.8 5.9 6.6 5.7.9 0 2.4-1.4 2.3-1.9-.7-2.7-4.4-5-7.4-4.9zm-129 7.3c-4.2 0-5-.9-6 2.7-.1.3.8 1.2 1.3 1.2 11.7 0 9.3-.1 11-2.5-1.8-1.3.1-1-6.3-1.4zm119.5-.3l1.8-1.5c-.4-.4-.8-1.1-1.4-1.2-6.4-1.2-5.7-.3-8.3 1 3.5 1.9 1.3 1.7 7.9 1.7zm-27.4.4c5.2-1.2 3.7-.7 5.4-2-.4-.4-.8-1-1.3-1.2-3.7-1.5-3-1.1-8.4 1zm-91.2-24c3.3-.2 4.2.2 5.3-1.4s-.3-1.1-.6-1.2c-7.3-1.3-5.7-.7-8 1.3zm-5.6-43.2c-1.7 2.1-2.5 2.6-2.4 3 1.5 5.9 1.9 5.2 5.2 4.4.5-.1 1.3-1 1.2-1.2-1.2-2-2.6-4-4-6.2zm-18.9-7.3l-2.5-2.8-3.9 3.9c3 2.2 1.3 2.8 6.4-1.1zm.1-19.5l-2.5 1.5c1.6 1.6.3 1.7 4.7.2zm73.6.9c-1.1-.5-2.2-1.2-3.1-1.1s-1.2 1.3-1.8 2c1 .4 2.1 1.1 3.1 1s1.2-1.2 1.8-1.9zm-54.9-127.2l-1.5 2a8.8 8.8 0 0 0 3 1c.6-.1 1.1-1.2 1.6-1.9zM163.7 859c-.3 1.1-.9 2.3-.7 3.4s1.6 2.2 2.4.3-.2-2.3-.5-3.5-.8-.1-1.2-.2zm95.2-11c1.8-1.5 1.8-.2.3-4.7-.7.7-1.9 1.4-1.9 2s1 1.8 1.6 2.7zm-29.2-5.9l-3.1 1.5c1.6 1.6.3 1.7 5 .4zM144 807.6c.6.7 1.2 2 1.9 2.1s2.2-.6 3.3-1c-.6-.8-1.1-2.2-1.7-2.2s-2.3.6-3.5 1.1zm24.3-18.7c1.6-4.1 1.4-2.8.2-4.6-.6.7-1.7 1.4-1.7 2.2s.9 1.6 1.5 2.4zm-52.2-99l1.1.7.2-1.2zm12.4 8.7l.8-1-1.3-.2zm4 12l1.3-.9c-.3-.3-.7-.9-1.1-1s-.8.5-1.2.8zm19.7 31.3l.8-.9-1.3-.3zm86.6 141.8l.7-1-1.2-.2zm-34.1-8.5l-1.4-.8-.2 1.3zm-48.5-9.4v2.4l1.2-1zm74.8-13.6l.8-1-1.2-.2zm-10.9-4.5l-1.1-.8-.2 1.3zm19.8-4l-1.4-.7v1.2zm-5.2-14.8c.4-.3 1.1-.6 1.1-1s-.5-.8-.9-1.2-1 .6-1 1 .5.8.8 1.2zm-86.4-12l.8-1.2-1.4-.2zM191 812l1 .8.2-1.2zm4.7-8.6l-1 1 1.5.3zm-69.8-3c-.3-.5-.8-1.3-1-1.3-1.7.6-1.7 1.5-.2 2.3s.8-.7 1.2-1z"></path><path d="M193.5 668.5l8.1.9-10.6 12.7c2.8 3.3 9.4 0 10.3 6.2l.6-.6c-6.2 1-2.8 8.1-9.6 10.4l8.3 1.7c4.1.7 4.1.7 1.6 6.2-1.1 2.3 1.2 1.2-3.4 3.1l1.5 1.4c.4-1 .7-2 1.1-2.9 2.9.3 6.3-.4 7.4 3.5 1.6 5.5-.1 7.6-7.4 8.7-1.7-2.9-1-3.8-5.4-3.3-.5 0-.8.8-1.2 1.2 3.7 1.8 1.9 1.6 7.1 1.6-1.3 4.1-5.4 7.2-4.4 12.2l.3-.3c-4.1.4-6.9-6.5-11.8-2a3.8 3.8 0 0 1-3 .9l-17.1-6.9.5.4c.7-3 3.2-4.1 5.7-3.9s4.8 1.6 7.3 2.2c.5.1 2.8-3.1 1.7-4.1s-1.1-.5-5.8-4.4c1.1-.6 2.2-1.8 3.2-1.7 8 .7 10 4.7 10.7-.5a28 28 0 0 0 .1-5.8c-.5-7.3-5.1-6-15.6-5.8l.6.5c-.2-2 .2-4.2-.7-5.7-2.3-3.5-10.2-3.1-15.4-3.5 5.8-4.1 10.9-2.5 15.8-2.5 1 0 2.3 1.2 3 2.1s1.3 5.6 5 3.3-.8-7.3 4.4-17.3c1.7-3.2 4.9-5.6 7.5-8.3z"></path><path d="M99.2 705.4c-3.1 1.6-6.6 2.4-7 4s3.6 5.4-2.3 6.2c-3 .3-5.9 1.9-8.9 2.7-.3.1-1.3-1.1-1.2-1.3 2.7-5.7 2.9-12.8 9.3-16.2 1.6-.9 3.5-1.4 5.2.6a36.4 36.4 0 0 0 4.9 4z"></path><path d="M142.2 518.5c1.4 3.7 3.6 6.9-2 10.1-2.9 1.6-3.7 6.8-8.8 5.6a20.2 20.2 0 0 1-3.4-1.4c.8-.8 1.5-2.1 2.3-2.2 4.6-.6 4-4.5 4.8-7.4s4.4-4.1 7.7-4.2z"></path><path d="M236.8 897c4.4.2 8.9.2 13.4.7 1.8.2 1.8 1.8-.2 2.3-3.6 1-5 3.6-6 6.7-.1.3-2.1.3-2.9-.2-4.1-2.2-4.1-6.1-3.9-10z"></path><path d="M329.1 885.2c-6.4 3.6-9.1 5.4-12 6.7-.9.4-2.7-.3-3.5-1.1a4.1 4.1 0 0 1-.8-3.5c1.1-2.8 4.8-2.1 16.3-2.1z"></path><path d="M73.8 674.1l16.1-4.4c.3 0 1.2 1 1.1 1.4s-.2 2.9-.9 3.3c-5.5 2.9-11.1 1.4-16.3-.3z"></path><path d="M181.6 668.1c.5 4 0 7.2-4.8 8.4-1.3.3-2.1 2.5-3.1 3.9.7-.7 2.2-.5-7.8-.5l.5.5c.3-4.9 6.3-7 15.7-11.8z"></path><path d="M162.6 696.5c.5-.2 2.4 1.3 2.3 1.7s-1.2 2.3-1.8 3.4-1.9 6.9-6.4 4.8c-2.6-1.2-2.5-4.2-2.1-6.8-1.7 1.7.4-.5 8-3.1z"></path><path d="M99.4 687.8c-16.2-.4-11.8.4-15.7-4l-.5.6c4 .4 7.3-1 10.5-3.3s3.9.2 4.7 3.5.2 4.1 1 3.2z"></path><path d="M95.3 743.2c.6-1 .9-2.6 1.7-2.8 2.9-1 6-1.4 8.9-2.4s4.3-1.5 8.3 4.2c-20.2.9-19.3.7-18.9 1z"></path><path d="M138.3 884.7c-.1 3-.1 6.1-.4 9.1 0 .4-2.2 1.1-2.8.7s-4.5-2.3-3.7-5.5 3-3.5 5.5-3.8 2.3.3 1.4-.5z"></path><path d="M296.1 845.5c-6.8-.9-4.2-9.2.1-10.4 2.4-.7 3.8 2.4 2.5 5.4s-3.2 5.5-2.6 5z"></path><path d="M225.4 499.3c0-.1 0-.1.1-.2h1a7.6 7.6 0 0 1 2.1.3 10.4 10.4 0 0 1 3.7 1.7 7.7 7.7 0 0 1 1.8 1.8l1.6 2.2c-1 .6-2.2 1.8-3 1.6a30.3 30.3 0 0 1-4.3-1.2 6.7 6.7 0 0 1-2.1-1.3c-.9-1-.8-2.3-.8-3.5v-.7a.9.9 0 0 1-.1-.7z"></path><path d="M181.7 511.1c-1 1.4-1.6 3-2.3 3.1-2.9.3-6.9-2.4-7.5-4.8a1.5 1.5 0 0 1 .6-1.3c1.8-.2 3.8-.8 5.4-.3s2.6 2.2 3.8 3.3z"></path><path d="M95.2 743.1c.5 1.1.9 2.3 1.5 3.4s1.7 3.4-.8 4.1-7.5 1-11.2-1.4c6.3-5.8 10.9-5.7 10.5-6.1z"></path><path d="M106.8 770.5c-3 5.9-8.1 4.5-13 3.5-.5-.1-.8-.9-1.2-1.3 1.8-1.5-1.4-1.1 14.8-1.7z"></path><path d="M194.1 888.6c1.3 2.1 2.8 3.3 2.9 4.7.3 4.2-8.1 3.3-6.7-.8.4-1.3 2-2.2 3.8-3.9z"></path><path d="M247.8 516.3c-.2.5-.3 1.3-.6 1.4-3.9 1-2.5 1.5-8.7-4.9.5-.4 1-1 1.6-1.1 3.5-.2 6 1.6 7.7 4.6z"></path><path d="M134.2 538.6c1.6.6 2.2.7 2.6 1.1s.5 1.1.3 1.3c-7 6.4-5.3 4.8-8.9 3.4 1.1-1.8-.6-.3 6-5.8z"></path><path d="M172.3 650.4c.5.5 1.3.9 1.4 1.4.3 3.1.5 6.2-3 7.8a2.3 2.3 0 0 1-1.8.2 3.2 3.2 0 0 1-1.5-1c1.1-2.7 2.4-5.4 3.7-8.1.1-.3.9-.2 1.2-.3z"></path><path d="M209.3 687.9a6.2 6.2 0 0 1 .1 1.9c-.7 4.5-2.5 6.6-4.9 5.8s-2.8-4-2.6-7.9c-.8.7-2.2.6 7.7.5z"></path><path d="M150.2 711.8c4.8.9 10.1-1.9 14.7 1.9-4.3 3-8.6 2.9-12.9 1-.8-.4-1-2.1-1.5-3.2z"></path><path d="M217.1 747.4c4.1.2 7-.5 7.3 3.4s-5.9 3.6-6.4 1.7-.3-3.7-.4-5.7z"></path><path d="M83.7 692.6l2.7 1.5-5.2 4.5a4.9 4.9 0 0 1-1.1-1.4c-.8-2.4.8-4.4 3.6-4.6z"></path><path d="M173.8 704c9.8.2 6.8-.2 10.6 2.6-1.7.4-3.4 1.2-5.1 1.2a4.7 4.7 0 0 1-5.1-4.2z"></path><path d="M142.8 519c.1-4.9-.3-3 1.4-7.2 3.9 3 2.4 1.6 5.9 5.9-9.5 1-8.1.6-7.3 1.3z"></path><path d="M84.7 729.2c.8.3 1.5.3 1.6.6 1.7 6.9 1 5.4-1 8.1-1.7-3.9-1.7-1.5-.6-8.7z"></path><path d="M144.2 563.7c-4.7 3.1-3.4 3.2-8.7.3 4.6-1.8 3.8-1.9 8.7-.3z"></path><path d="M186.1 664.6a3.1 3.1 0 0 1 3.7-3c4.2.3 3.6 2.5 3.7 6.9l.4-.3c-8.6-4.2-8.9-4.6-7.8-3.6z"></path><path d="M170.3 585.9c3.1-4.3 4.8-4.8 6.3-1.8.5.9 0 2.3-.2 3.4s-1 .3-1.4.2c-5.2-2-5.7-2.9-4.7-1.8z"></path><path d="M263.6 893.8l3.3 4.4c-.9.6-1.7 1.7-2.6 1.7s-3.4-1.5-3.2-3.6 1.4-1.5 2.5-2.5z"></path><path d="M180.2 897.6c-.2.9-.2 1.8-.4 1.9-3.8.9-3.4 1.3-4.8-4.4-.1-.1 1.1-.8 1.3-.7s2.7 2.2 3.9 3.2z"></path><path d="M327.3 876.8c-3.4 5.7-7.6 5.7-11.4.1l-.3.3c14.1.2 12.5.3 11.7-.4z"></path><path d="M327.9 877.3c-2.9-6.2-2-4.4-3.4-6.2 1.1-.3 2.1-.9 3.1-.8s3.8 1.2 3.2 3.3-2.3 2.2-3.5 3.2z"></path><path d="M103.4 802c-7.8-4.9-6.2-3.2-6-6.5 4.3.3 2.9-1.8 5.5 7z"></path><path d="M75.7 754.8c-4.4-4.3-3.5-2.8-2-6.1 1.5 1.5 1.1-.3 1.6 6.5z"></path><path d="M225.3 770.6c-4.9 0-3 .4-6.9-1.7.5-.4.9-1.1 1.4-1.2 4.5-.6 3.8.5 5.3 3.1z"></path><path d="M148.3 496.9c.6.9 1.4 1.6 1.4 2.4s-.9 1.4-1.5 2c-1.3-1.5-1.5-.3.1-4.4z"></path><path d="M148.8 536.6c-1.9 1.2-.5 1.4-4.9-.1 1.9-1.2.8-1.1 4.9.1z"></path><path d="M167.7 556.3l.5-1.2 4.4 1.2c-1.7 1.4-.4 1.6-4.9 0z"></path><path d="M160.2 564.2c.8-1.3-.3-1.3 4.5.1-1.6 1.2-.4 1.4-4.5-.1z"></path><path d="M73.8 619.6c-.5-.9-1.3-1.7-1.4-2.6s1-1.2 1.6-1.8c1.5 4.1 1.4 2.9-.2 4.4z"></path><path d="M158.1 625.2c6.3 0 5.5-.5 6.6 2.3.1.1-.9.8-1.4.9-2.4 0-4.7-.3-4.9-3.5z"></path><path d="M82 631.4c-1 .4-2.1 1.1-3.1 1s-1.2-1.2-1.7-1.9c1-.4 2-1.2 2.9-1.1s1.3 1.3 1.9 2z"></path><path d="M162.9 633.6l1.7 2c-4.6 1-3.2 1-4.9-.6z"></path><path d="M88.5 644.3c-1.2-.2-2.5-.2-3.3-.8s1.1-2.3 3.3-1.7c.5.1.9.8 1.3 1.3z"></path><path d="M111.3 652.4c-4.5-.3-2.8.2-6.6-1.7 3.9-1.7 2.1-1.2 6.6-1.8-.7-.7-.5-1.4-.5 4z"></path><path d="M111.2 660.3c-4.5-.5-2.7-.1-6.8-1.8 4-1.9 2.2-1.4 6.8-1.8-.5-.5-.4-1.2-.5 4.1z"></path><path d="M223.9 906.3c-.8.4-1.5 1.3-2.3 1.3s-1.5-.9-2.3-1.4c4.3-1.7 3-1.6 4.6.1z"></path><path d="M154 900.4v4.4l.6-.5c-6.9-.4-5-.1-6.8-1.2 1.8-2.4-.1-2 6.8-2.2z"></path><path d="M228.9 896.5c-4.7 5-3 4.3-6.5 2.1 1.5-1.8-.4-1.5 7-1.6z"></path><path d="M154.5 896.6c-.5.4-1.6.2 7.9.4l-.5-.5c-.9 4.6-4.9 3.4-7.9 3.9.9.8.6 1.4.5-3.8z"></path><path d="M162.4 897c4.8-4.4 3.1-3.6 6.5-2.1-1.8 1.3.3.9-7 1.6z"></path><path d="M174.2 885.2c.6-3.1 2.6-4 5.4-3.4a1.9 1.9 0 0 1 1 1.3c-.4 1.9-1.9 1.5-6.9 1.5z"></path><path d="M68 692.2c1.4-2.7.7-3.5 5.1-3.1.4 0 .7.7 1.1 1.1-3.7 1.8-1.9 1.5-6.8 1.5z"></path><path d="M261.2 826.4l1.9 1.8c-4.8 1.1-3.4 1.1-5.1-.4z"></path><path d="M110.8 711.4c-4.6 5.2-3 4.1-6.7 2.4 1.8-1.5-.2-1.1 7.2-1.9z"></path><path d="M240 774.2c-.5-.7-.9-1.4-1.4-2 4.5-.6 3.2-.7 4.5.6z"></path><path d="M225.2 774.7c.1-1.3.1-2.7.1-4.1l-.2.2c4.4.2 2.7-.3 6.5 1.9-3.7 2.2-2 1.7-6.5 1.9z"></path><path d="M306.7 493.3l-1.3.3.2-1.1 1.1.8z"></path><path d="M266.6 501.9c-1.9-3 .7-2.4 2.1-2.7-.5-.5-.1-.9-2.1 2.7z"></path><path d="M265.4 508.8l1.4-.4-.1 1.1-1.3-.7z"></path><path d="M117 551.2c.3.4 1 .9.9 1.1s-1.5 1.4-2-.2.7-.6 1.1-.9z"></path><path d="M123.7 552.1l1.6-.5-.2 1.2-1.4-.7z"></path><path d="M187.8 579.3c.4 1.1.7.9-.8.6z"></path><path d="M154.5 585.9c1.8-3.5 1.1-2.8 2.8-2.5l-3.2 2.1z"></path><path d="M168 588.4c-1.9-3.2 1.3-1.9 2.3-2.5-.6-.6-.1-1-2.3 2.5z"></path><path d="M97.4 603.1l-.2.9c-1.3-.8-1.3-.6.2-.9z"></path><path d="M161.5 607.5c-.4.4-.9 1-1.3 1s-.8-.8-1.1-1.2l1.3-1.1z"></path><path d="M93.2 627.9l-.5-1.2 1.5.2-1 1z"></path><path d="M184 626.2l.5 1.2-1.3-.2.8-1z"></path><path d="M66.2 631l-1.1.3.2-1.1.9.8z"></path><path d="M102.5 631c-.5.4-1 1.1-1.4 1s-.8-.7-1.2-1.1.9-1.2 1.3-1.1.9.8 1.3 1.2z"></path><path d="M94.3 634.9l-1.4.4.1-1.1 1.3.7z"></path><path d="M176.9 639c-.4.2-.8.6-1.2.6s-.7-.6-1-.9.9-.7 1.3-.7.6.6.9 1z"></path><path d="M58.1 642.2c.5 1.3.7 1.1-.7.8z"></path><path d="M77.8 642.1l.7 1.3-1.6-.1.9-1.2z"></path><path d="M184.7 646.9a9.4 9.4 0 0 1-1 1c-.3-.4-.8-.8-.7-1.2s.6-.7.9-1z"></path><path d="M82.5 662.9c-.4.3-.9.8-1.3.7s-.6-.6-.9-1 .8-.8 1.2-.8.7.7 1 1.1z"></path><path d="M58.6 666.7l-1.2.4.2-1.1 1 .7z"></path><path d="M185.6 664.1c-.3 2.4-1.4 3.9-4 4l.5.5c1.9-5.8 5.1-3 3.5-4.5z"></path><path d="M209.6 680.3c.2-1.6.3-3.4 2.5-2.8.6.2.8 1.8 1.1 2.8s1.3-.3-4-.4z"></path><path d="M83.7 683.8l-2.9-1.5c2.9-1.8 1.7 1.3 2.4 2.1z"></path><path d="M164.5 682.9c-2-2.8.9-1.9 1.9-2.5-.7-.6-.2-1.1-1.9 2.5z"></path><path d="M173.7 680.4l2.9 2.4c-.4 0-1.2.2-1.3 0-1.5-3-.6-3.4-1.6-2.4z"></path><path d="M206.6 682.2l3-1.9c-.5-.5-.4-1.2-.3 4 .5-.5.8-.1-2.7-2.1z"></path><path d="M216.3 682.1l-3.1 1.8.5.5c-.1-1.5-.1-3-.1-4.4-.5.5-1 0 2.7 2.1z"></path><path d="M62 685.4l.5 1.2-1.3-.3.8-.9z"></path><path d="M213.2 683.9c-.3 2.3-1.2 4-3.9 4 .4.4.3.9.3-4l-.3.4c5.2.1 4.6.3 3.9-.4z"></path><path d="M66 694.5c-1.6-2.7 1.2-1.6 2-2.3s-.3-1.1-2 2.3z"></path><path d="M171.4 702.5l2.9-2.4c-.8-.7-.6-1.4-.5 3.9.6-.6 1-.2-2.4-1.5z"></path><path d="M89.2 722.3l-1.1-1.1c.5-.2.9-.8 1.3-.7s.8.6 1.2 1z"></path><path d="M162.4 727.6a4.4 4.4 0 0 1 4-4l-.5-.4c0 2.7-1.4 3.9-4 4z"></path><path d="M212.2 733.1c-2.7 1.9-1.8-1.2-2.6-2s-1 .2 2.6 2z"></path><path d="M214.3 745.5c2.8-2.1 2.2.8 2.8 1.9.7-.7 1.2-.3-2.8-1.9z"></path><path d="M78.4 756.6c-3 2.4-2.1-.8-2.7-1.8-.5.5-1 .1 2.7 1.8z"></path><path d="M93.5 765.6c-2.2-2.9.9-2 1.9-2.6s0-.7-1.9 2.6z"></path><path d="M250.1 918.3c1.5-.4 1.3-.6 1 .6z"></path><path d="M172.6 918.1c-2.7 1.6-1.8-1-2.3-1.9s-1 .2 2.3 1.9z"></path><path d="M167.4 914.8c2.9-2.1 1.9.9 2.5 1.9.6-.7 1-.2-2.5-1.9z"></path><path d="M154 904.8c3.6 1.7 3 1.2 2.7 2.6l-2.1-3.1z"></path><path d="M309.9 902l.3 1.1-1.2-.3.9-.8z"></path><path d="M295 890.9c-.4.2-.8.7-1.2.7s-.7-.6-1-1 .8-.9 1.3-.8.6.7.9 1.1z"></path><path d="M124.8 891.6l-.4-1.3 1.5.3-1.1 1z"></path><path d="M264.5 885l3 1.7c-3.6 2.9-2.1-2.7-3-1.7z"></path><path d="M274.5 879.8c-1.7-3 1.1-2 2.2-2.5-.7-.7-.2-1.1-2.2 2.5z"></path><path d="M312.1 849.8l1.6-2.9 1 .9c-3.8 1.8-3.3 1.3-2.6 2z"></path><path d="M108 831.8l3.2-1.9c-.7-.6-.5-1.3-.5 4.1.7-.6 1.2-.1-2.7-2.2z"></path><path d="M309.6 824.5l-.6-1.1 1.4.2-.8.9z"></path><path d="M89.2 820.5c-.4-1.2-.6-1 .8-.7z"></path><path d="M93.1 789.3l-.6-1.3 1.5.2-.9 1.1z"></path><path d="M240.4 780.7c-.5.4-1 1.2-1.5 1.1s-1.3-1.1-1.2-1.3c.9-1.8 1.9-1.7 2.7.2z"></path></g><path d="M347.6 697.7c-37.9-1.9-39.7-34.8-48.3-11.6-9.6 26.1-42.1 27.4-56.8 6.8-4.7-6.6-9-13.4-13.2-20.3-7.8-12.7-8.3 8.9-19 17.4-5.2 4.2-8.1 2.7-4.7-2.4 14.7-21.7 7.8-40.6 17.6-41.1s22.5 61.7 50.6 56.3c22-4.2 17.7-45.2 27.4-47.4s6.3 8.4 16.9 19.7c51.3 54.7 34.5-39.6 70.4-13.5 1.5 1 4.2 1.6 2.7 4.3-3.8 7.1-8.8-10.4-21.7 14-5.7 10.9-13.7 18.3-21.9 17.8z" fill="#1e4344"></path><path d="M336.9 510.6c-15.9-7.4 1 22.1-41.1 22.2-34.1.1-40.3-23.7-55.7-13.6-42.9 27.8-44.5-20-64.8-4.4-24.4 18.7-47.3-9.6-41.4-16.3 4.1-4.7 8 4.1 11.4 7.8 13.7 15 18.7 10.1 28.5-8.3 8.8-16.4 16.1 4.1 29.7 16.8 29.5 27.6 27.1-24.7 52.4-3.9 22.3 18.4 54.1 30 61.1-2.5 1.3-5.9-1.6-22.9 12.5-14.8 4 2.2 7 6.2 10.5 9.4s7.4 4.1 6.3 6.9-6 1.3-9.4.7z" fill="#1e4344"></path><path d="M355.3 814.5c-5.8-1.1-11.6-4.2-17.4-1.1s-9 8.1-12.8 12.6-9.7 11.8-16.8 14.3c-9.7 3.5-20.1-.9-28.3-6s-14.7-15-22.6-15.6-10.1 14.4-18.2 19.4c-10.6 6.5-14.8 11.5-19.3 8.2 15.6-14.3 11.2-4.7 27.2-33.3 12.9-23 14.4 4.5 43.2 19.4 18.6 9.5 22.8-2.6 35.3-22.2 15.8-24.9 25.9 16.3 45.9-10 1.6-2.1 9.9-13.7 13.8-9.7s-6 14.9-8.8 17.1a35.8 35.8 0 0 1-16.1 7 17.4 17.4 0 0 1-5.1-.1z" fill="#1e4344"></path><path d="M355.7 570.2c-.5 3.8-8.4.7-9.6-.4-24.6-20.6-9.3 28.9-44.3 15.3-12.5-4.8-20.4-15.1-28.6-24.9-10.7-12.8-10.7-12.7-22.8-1.7-5.6 5.1-8.1 4.1-4.4-2.6 22.4-41 19.2-1.3 54.5 22.6 11.1 7.6 16.7 5.1 20.6-7.5 2.1-7.1-3.8-18.5 7.4-20.4 6.9-1.2 4.6 3.8 27.2 19.6z" fill="#1e4344"></path><path d="M295.4 639.6c-3.6.3-3.7-1.8-2.2-3.3 9.8-9.7 13-43.9 23.8-25 9.8 17.1 36.1 41.2 47.1 13.4 4.3-10.8 2.2-26.9 12.4-27.5s21 12.5 16.8 14.4c-6.5 2.8-10.9-14.1-18 6.8-8.9 26.4-28.3 34.6-57 6.9-10.9-10.5-7.9 5.8-22.9 14.3z" fill="#1e4344"></path><path d="M285.2 878c-7.6.5-7.8 17.3-30.1 21.7-6.9 1.3-7.8-3-2.9-4.6 20.3-6.8 22-37.9 43-20 14.1 12 22.6 29.2 40.9 8.8 2.3-2.6 8.1-8.3 11.4-5.1 5.7 5.5-12.1 22.4-26.4 19.9-25.8-4.7-28.6-20.6-35.9-20.7z" fill="#1e4344"></path><path d="M394.9 725c-15.5 27.9-26.9 9-35.5 20.6-12.7 17.2-14.1 28.1-32.7 13.8-17.1-13.2-25.8-43.7-38.1-22-9.8 17.2-13.7 42.9-39.7 26.5-14-8.9-24-21.4-31.6-36-1.8-3.4-2.5-8.3-7.8-8s-6.6 4.8-7.2 8.5c-1.1 6.8-3.9 13.1-7.2 19.1-2.5 4.4-5.3 10.3-9.6 13.2a23.4 23.4 0 0 1-6.3 3.2c-3 1-5.9 0-8.8-.7a34.3 34.3 0 0 1-10.8-4.5c-15.5-9.9-22.7-28.7-32.2-43.5s-11.2 17.4-17.5 27.6c-2 3.1-2.2 7.7 4.4 1.2 4.6-4.6 4.2-15.5 10.9-15.1 2.9.2 5.4 5.5 6.8 7.5a172.3 172.3 0 0 0 10.7 15.1c4.5 5.3 9.8 10.2 16.3 12.9a37.3 37.3 0 0 0 20.1 2c1.5-.3 2.7-1.2 4.2-1.7a41.4 41.4 0 0 0 10.2-4.8c4.4-2.9 7.5-8 10.2-12.4 12.4-19.9 10.6 9.3 44 23.4 36.6 15.4 43.1-25.7 50.5-25.2s33.7 50.6 65.5 11c4.4-5.5 8.4-6.7 15-7 11.6-.4 21.5-11.7 21.5-22.4 0-3.7-4.4-3.9-5.3-2.3z" fill="#1e4344"></path><path d="M205.3 628c-2.7-.6-5.5-.4-1.3-3.3 16.8-11.8 19.3-49 28.6-30 21.1 42.8 41.5 41.3 34.9 45.8s-29.8-23.9-30.2-24.4c-15-17.7-7.7-.4-32 11.9z" fill="#1e4344"></path><path d="M179.6 692.3c-5.4 5.9-24.4-10.2-30.5-18.9-12-16.9-14.4-29.1-20.2-19.5-3.4 5.6-4.4 12.8-10.7 16.5-2.6-7.8 5.3-12.4 5.9-19.3.9-9.9 8.8-22.9 13.8-11.1 16.8 40.2 33.2 44.2 41.7 52.3z" fill="#1e4344"></path><path d="M206.2 847c-.9 5.2-21.1 1.3-38.3-18-10.8-12-7.7-7.8-25.6 8.8-1.5 1.4-4.7-.5-2.8-2.6 9.6-10.9 14.2-35.6 22.8-24.7 32.6 40.9 38.8 31.1 43.9 36.5z" fill="#1e4344"></path><path d="M227.8 891.1c-9.4 1.4-9.6-17.1-19.7-12.6s-17.2 36.1-49.8 29.4c1.8-6.5 12 9.3 38-27.6 3.8-5.3 6.8-12.5 15.3-10.5 6.1 1.4 22.4 20.5 16.2 21.3z" fill="#1e4344"></path><path d="M137.4 587.4a6.1 6.1 0 0 1 5-5.5c8.9-1.5 9.9 30.5 41 43.8 7.1 3.1-7.1 8.6-28.6-16.3-14.8-17.1-9.3-8.4-31.1 4 .5.4 12.3-15.3 13.7-26z" fill="#1e4344"></path><path d="M200.5 570.9c-19.4-18.9-22.8-31.2-34.9-15.1-4.4 5.8-12.4 3.6-16.7 3 8.2-3.4 11.5-3.6 18.9-15.9 5.4-9 10.8-7.3 14.3.7 4.4 10.4 18.4 14.1 18.4 27.3z" fill="#1e4344"></path><path d="M370.8 570.7c-4.3-1.5 3.7-11.5 4-28.3 0-2.9-.3-8 4.3-7.2 6.7 1.1.4 38.5-8.3 35.5z" fill="#1e4344"></path><path d="M265.1 851.9c.7 5.1-9.7 16.9-14.6 16.3s-5.7-6.4-4.7-6.5c8.7-.5 18.1-18.5 19.3-9.8z" fill="#1e4344"></path><path d="M289.6 804.6c-1.2-4.4 2.3-2.9 4.5-3.4 8.7-2.1 11.9-14.1 16.9-7.7 3.8 4.8-18.3 22.6-21.4 11.1z" fill="#1e4344"></path><path d="M177.8 866c-4.9 3.3-3.1 13.9-12.8 11.8-1.7-.3-4-6.2-3.8-6.3 18-12.5 15.4-9.2 16.6-5.5z" fill="#1e4344"></path><path d="M324.2 866.9c-1.9-.6-3.3-3.2-1.7-4.5 32.8-27.7 10.3 7.1 1.7 4.5z" fill="#1e4344"></path><path d="M122 781.3c3.1 4.9-1.8 12.4-8.6 12.5-2.2.1-9.2-5.4-1.3-7.3 3.5-.8 6.6-3.4 9.9-5.2z" fill="#1e4344"></path><path d="M198.6 807c-9-8.4 4.7-5.9 8.6-9.7s4.7 11.6-8.6 9.7z" fill="#1e4344"></path><path d="M297.3 491.2c6.1-5.7 5 10.5-3.7 11.1-3.8.3-6.9-3.3-6.8-6 .2-7.3 9.2 1.6 10.5-5.1z" fill="#1e4344"></path><path d="M343.8 729.6c-7.1-10.2 4.6-3.8 8.3-9.2.9-1.4 4.1 0 2.7 2.4-2.1 4-4.9 7.8-11 6.8z" fill="#1e4344"></path><path d="M343.3 599.8c.2.3-1.9-1.8-1.5-3.1 1.6-4.6 7.4-1.1 10.5-4.7s4.8 10.3-9 7.8z" fill="#1e4344"></path><path d="M257.7 738.1c-4.4-2.9-3.3-1.6-3.1-5.7 6.2.8 9.4-4.3 13.9-7 7.1-4.1-.4 14.1-10.8 12.7z" fill="#1e4344"></path><path d="M278.1 600c2.1-.1 5.7-3.1 4.9 1.9s-10.3 8-11.3 1.3 4.8-1 6.4-3.2z" fill="#1e4344"></path><path d="M359.1 527.9c2.4-.4 5.7-2.6 4.9 2.2s-10.2 6.5-10.9.8 4.7-.6 6-3z" fill="#1e4344"></path><path d="M183.8 717.8c6.4-2.2-2 14.1-9.3 11.8-4.3-1.3-.3-3.7 9.3-11.8z" fill="#1e4344"></path><path d="M275.2 663.1c-4.1 9.2-13.1 5.4-12.8 3.1.7-6.1 7.4-1.8 10-5.6 1-1.5 3.3-.9 2.8 2.5z" fill="#1e4344"></path><path d="M181.3 662.8c-7.6-1.4-5-8.9-2.8-7.7 5.8 3.2 11.9 6.9 2.8 7.7z" fill="#1e4344"></path><path d="M300.1 553.6c-1.7-3.3 1.4-4.1 3.4-5.2 9.6-5.3.2 12.3-3.4 5.2z" fill="#1e4344"></path><g><path d="M274.8 539c22.2-13.8 62.9-12.8 94.3-13.2 5.1 0 9.8.2 15-2.8 6.9-4.1 14.3 0 20.1 4.7s9.4 12.2 7.9 20.5a38.5 38.5 0 0 1-3.7 10.3c-19.8 39.5-54.6 57.3-95.6 66.3-28.5 6.2-75.1-62.6-38-85.8z" fill="#505853"></path><path d="M111 518.5c24.6-.4 48.6 7.4 72.1 18.4 12.1 5.7 15.7 14.9 15.7 26.1a63.1 63.1 0 0 1-8.2 31.5c-9 15.7-23.2 22.3-41.1 19.1-41-7.4-56.1-33-79.9-64.6a42 42 0 0 1-4.3-7.4c-4.8-10.1-2.5-15.8 8-20 12-4.7 25.1-4.1 37.7-3.1z" fill="#505853"></path><path d="M52.8 468c-4.1 19.3-3.3 38.8-3.9 58.3-.2 3.6 2.1 10.2-2.6 10.5-6.5.4-3.9-6.6-4.5-10.5-7-41.4 15-88.3 6.2-150.2-2.1-14.7-5.7-28.6-16.7-39.6s-14.9-10.9-27.9-4.6c-1 .5-2 1.8-2.9.3-3.8-5.9 17-12.7 31-2.6 10.5 7.5 18.2 17.2 22 29.8 9.6 32 6.2 76-.7 108.6z" fill="#193737"></path><path d="M419.6 489.5c2-50.5 10-111.3 51.1-139.7 8.8-6.1 16.7-6.3 23.7-1.1 1.3.9 3.1 3.1 2.9 3.5-1.4 2.1-3.6 1.4-5.2.3-6-4.1-10.9-1.2-15.6 2.2-57 41.8-46.9 153.2-48.8 179.6-.2 2.2.6 5.6-2.8 5.6s-1.9-3-2.1-4.9c-1.8-17.4-3.6-34.7-3.2-45.5z" fill="#193737"></path><path d="M234.6 547.3c9.5-.5 15.8 7.3 22.7 14.1.4.4.4 1.4.6 2.1-2.6.5-3.6 2.6-11-5s-13.4-9.8-24.4-4.2a22.5 22.5 0 0 1-2.1 1.2c-3.2 1.2-7.9 6.3-8.8 4.1-2.1-4.9 4.5-6.2 7.5-8.7s9.2-3.6 15.5-3.6z" fill="#193737"></path><path d="M195.7 529.3c-33.3-12.5-67.3-22-103-23.1a40 40 0 0 0-4.9 0c-11.7 1.1-23.7-.4-34.9 4.2s-16 14.4-11.1 26.7a100.1 100.1 0 0 0 4.8 9.9l4.2 7.2.8 1.3c.6 1.1 1.3 2.1 2 3.2a4.4 4.4 0 0 0 .8 1.1 10.8 10.8 0 0 0 1.1 1.8 13 13 0 0 1 1 1.5c1 1.5 2.1 3 3.2 4.4l2.5 3.3 3.2 3.9 2.3 2.8c3.1 3.6 6.3 7 9.7 10.4l3.8 3.6a214.2 214.2 0 0 0 30.3 23.7c2.3 1.6 4.7 3 7.1 4.4l1 .6c11 6.2 22.7 10.8 35.7 12.4 43.5 5.4 48.4-29.5 58.1-71.3 3.9-16.6-1.8-26-17.7-32zm-6.2 31.4c-3.9 14.3-11 27.1-20 38.8-5.9 7.9-16.7 7.2-26.6 3.4l-2.4-1a53.8 53.8 0 0 1-8.9-4.7 326.8 326.8 0 0 1-33.5-23.9l-5.6-4.9-1.4-1.3a107.6 107.6 0 0 1-12.3-13.4l-.2-.3-1.1-1.5c-.7-1-1.3-2-1.9-3l-1.2-2c-4.6-8.8-2.7-12.6 6.6-14.9 7.3-1.9 6-1.5 20.6-1.1 63.9 5.1 61.7 5.1 81.9 15.5 6.2 3.2 7.6 8.4 6 14.3z" fill="#393d3a"></path><path d="M288.3 602.7l-1 .2c.2.3.5.8.8.9a1.8 1.8 0 0 0 .9-.4zm-6.1-10l-.3.3c-.2.3.2 1.1.3 1.6l.8-.2a13 13 0 0 1-.8-1.7zm-4.7-10.7l-.8.9a2.2 2.2 0 0 0 1.9 2c-.4-1-.8-2-1.1-2.9zm-2.6-8.4c-.6 1-2.4.5-2.7 1.6s.3.5.5.5l2.9.4c-.3-.9-.5-1.7-.7-2.5zm13.4 29.1l-1 .2c.2.3.5.8.8.9a1.8 1.8 0 0 0 .9-.4zm-6.1-10l-.3.3c-.2.3.2 1.1.3 1.6l.8-.2a13 13 0 0 1-.8-1.7zm-4.7-10.7l-.8.9a2.2 2.2 0 0 0 1.9 2c-.4-1-.8-2-1.1-2.9zm-2.6-8.4c-.6 1-2.4.5-2.7 1.6s.3.5.5.5l2.9.4c-.3-.9-.5-1.7-.7-2.5zm13.4 29.1l-1 .2c.2.3.5.8.8.9a1.8 1.8 0 0 0 .9-.4zm-6.1-10l-.3.3c-.2.3.2 1.1.3 1.6l.8-.2a13 13 0 0 1-.8-1.7zm-4.7-10.7l-.8.9a2.2 2.2 0 0 0 1.9 2c-.4-1-.8-2-1.1-2.9zm-2.6-8.4c-.6 1-2.4.5-2.7 1.6s.3.5.5.5l2.9.4c-.3-.9-.5-1.7-.7-2.5zm13.4 29.1l-1 .2c.2.3.5.8.8.9a1.8 1.8 0 0 0 .9-.4zm-6.1-10l-.3.3c-.2.3.2 1.1.3 1.6l.8-.2a13 13 0 0 1-.8-1.7zm-4.7-10.7l-.8.9a2.2 2.2 0 0 0 1.9 2c-.4-1-.8-2-1.1-2.9zm-2.6-8.4c-.6 1-2.4.5-2.7 1.6s.3.5.5.5l2.9.4c-.3-.9-.5-1.7-.7-2.5zm13.4 29.1l-1 .2c.2.3.5.8.8.9a1.8 1.8 0 0 0 .9-.4zm-6.1-10l-.3.3c-.2.3.2 1.1.3 1.6l.8-.2a13 13 0 0 1-.8-1.7zm-4.7-10.7l-.8.9a2.2 2.2 0 0 0 1.9 2c-.4-1-.8-2-1.1-2.9zm-2.6-8.4c-.6 1-2.4.5-2.7 1.6s.3.5.5.5l2.9.4c-.3-.9-.5-1.7-.7-2.5zm13.4 29.1l-1 .2c.2.3.5.8.8.9a1.8 1.8 0 0 0 .9-.4zm-6.1-10l-.3.3c-.2.3.2 1.1.3 1.6l.8-.2a13 13 0 0 1-.8-1.7zm-4.7-10.7l-.8.9a2.2 2.2 0 0 0 1.9 2c-.4-1-.8-2-1.1-2.9zm-2.6-8.4c-.6 1-2.4.5-2.7 1.6s.3.5.5.5l2.9.4c-.3-.9-.5-1.7-.7-2.5zm13.4 29.1l-1 .2c.2.3.5.8.8.9a1.8 1.8 0 0 0 .9-.4zm-6.4-9.7c-.2.3.2 1.1.3 1.6l.8-.2a13 13 0 0 1-.8-1.7zm-5.2-10.1a2.2 2.2 0 0 0 1.9 2c-.4-1-.8-2-1.1-2.9zm-4.5-7.7c0 .1.3.5.5.5l2.9.4c-.3-.9-.5-1.7-.7-2.5-.6 1-2.4.5-2.7 1.6zm111.4-57.7c-21.5-.9-27.8-4.9-97.4 10.8a68.3 68.3 0 0 0-26.4 12.1c-7.7 5.7-11.9 13.2-10.8 23.1l1.2 8.9c.2 1.2.5 2.4.7 3.6a29.3 29.3 0 0 0 .5 2.9c.2.7.3 1.4.5 2a97.7 97.7 0 0 0 2.9 10.6 18.7 18.7 0 0 0 .7 2.2 66.5 66.5 0 0 0 2.8 6.9c0 .2.1.3.2.5a45.2 45.2 0 0 0 2.5 4.9 46.5 46.5 0 0 0 4.1 6.4 13.4 13.4 0 0 0 1.1 1.4 56.6 56.6 0 0 0 9.1 9.2 50.4 50.4 0 0 0 4.4 3.3 68.6 68.6 0 0 0 7.5 4.2l2.4 1.1a69.7 69.7 0 0 0 7.7 2.6 63.4 63.4 0 0 0 14.5 2c16.5.4 34.7-5.5 52-19.4a393.8 393.8 0 0 0 52.3-51 57.4 57.4 0 0 0 10.8-18.9c10.7-31.3-29.5-28.9-43.3-29.4zm11.2 28.5a53.2 53.2 0 0 1-14.9 21.8 311.8 311.8 0 0 1-55.9 38.8 37.6 37.6 0 0 1-12.8 4.2 28.5 28.5 0 0 1-12.1-1.1l-3.8-1.6a25.9 25.9 0 0 1-6.3-4.7l-.7-.7a29 29 0 0 1-3.5-4.9l-1.8-3.4a13 13 0 0 1-.8-1.7q-2.1-4.1-3.6-7.8c-.4-1-.8-2-1.1-2.9a57.1 57.1 0 0 1-1.9-5.9c-.3-.9-.5-1.7-.7-2.5a1.9 1.9 0 0 0-.2-.8 45.5 45.5 0 0 1-.9-9.3c-.4-8.7 5.5-13.1 11.9-16.9 22.1-13 47.7-11 88.2-12.3 6.2-.2 12 1.7 17.7 3.9 3.5 1.4 4.7 3.9 3.2 7.8zm-119.9 27.6c-.6 1-2.4.5-2.7 1.6s.3.5.5.5l2.9.4c-.3-.9-.5-1.7-.7-2.5zm2.6 8.4l-.8.9a2.2 2.2 0 0 0 1.9 2c-.4-1-.8-2-1.1-2.9zm4.7 10.7l-.3.3c-.2.3.2 1.1.3 1.6l.8-.2a13 13 0 0 1-.8-1.7zm6.1 10l-1 .2c.2.3.5.8.8.9a1.8 1.8 0 0 0 .9-.4zm-13.4-29.1c-.6 1-2.4.5-2.7 1.6s.3.5.5.5l2.9.4c-.3-.9-.5-1.7-.7-2.5zm2.6 8.4l-.8.9a2.2 2.2 0 0 0 1.9 2c-.4-1-.8-2-1.1-2.9zm4.7 10.7l-.3.3c-.2.3.2 1.1.3 1.6l.8-.2a13 13 0 0 1-.8-1.7zm6.1 10l-1 .2c.2.3.5.8.8.9a1.8 1.8 0 0 0 .9-.4zm-13.4-29.1c-.6 1-2.4.5-2.7 1.6s.3.5.5.5l2.9.4c-.3-.9-.5-1.7-.7-2.5zm2.6 8.4l-.8.9a2.2 2.2 0 0 0 1.9 2c-.4-1-.8-2-1.1-2.9zm4.7 10.7l-.3.3c-.2.3.2 1.1.3 1.6l.8-.2a13 13 0 0 1-.8-1.7zm6.1 10l-1 .2c.2.3.5.8.8.9a1.8 1.8 0 0 0 .9-.4zm-13.4-29.1c-.6 1-2.4.5-2.7 1.6s.3.5.5.5l2.9.4c-.3-.9-.5-1.7-.7-2.5zm2.6 8.4l-.8.9a2.2 2.2 0 0 0 1.9 2c-.4-1-.8-2-1.1-2.9zm4.7 10.7l-.3.3c-.2.3.2 1.1.3 1.6l.8-.2a13 13 0 0 1-.8-1.7zm6.1 10l-1 .2c.2.3.5.8.8.9a1.8 1.8 0 0 0 .9-.4zm-13.4-29.1c-.6 1-2.4.5-2.7 1.6s.3.5.5.5l2.9.4c-.3-.9-.5-1.7-.7-2.5zm2.6 8.4l-.8.9a2.2 2.2 0 0 0 1.9 2c-.4-1-.8-2-1.1-2.9zm4.7 10.7l-.3.3c-.2.3.2 1.1.3 1.6l.8-.2a13 13 0 0 1-.8-1.7zm6.1 10l-1 .2c.2.3.5.8.8.9a1.8 1.8 0 0 0 .9-.4zm-13.4-29.1c-.6 1-2.4.5-2.7 1.6s.3.5.5.5l2.9.4c-.3-.9-.5-1.7-.7-2.5zm2.6 8.4l-.8.9a2.2 2.2 0 0 0 1.9 2c-.4-1-.8-2-1.1-2.9zm4.7 10.7l-.3.3c-.2.3.2 1.1.3 1.6l.8-.2a13 13 0 0 1-.8-1.7zm6.1 10l-1 .2c.2.3.5.8.8.9a1.8 1.8 0 0 0 .9-.4zm-13.4-29.1c-.6 1-2.4.5-2.7 1.6s.3.5.5.5l2.9.4c-.3-.9-.5-1.7-.7-2.5zm7.3 19.1l-.3.3c-.2.3.2 1.1.3 1.6l.8-.2a13 13 0 0 1-.8-1.7z" fill="#393d3a"></path><g fill="#737a75"><path d="M163.7 586.5c-.6.9-1 1.8-1.5 2-2.8.7-5.2-4.3-24.5-38-.7-1.3-2.4-2.9-.4-4.1s3.1.2 4 1.6c6.1 8.7 3.3 3.6 19.8 33.3 1 1.7 1.8 3.5 2.6 5.2z"></path><path d="M170.4 574.1c-.2.3-.4.9-.6.9s-1.8.4-2 .1a151.4 151.4 0 0 1-14.1-23.9c-.6-1.2.4-2.4 2-1.9s14.8 22 14.7 24.8z"></path><path d="M168.8 550c2.2.4 8.1 11.3 7 13.1s-1.7.8-1.9.5c-3.6-3.4-5.6-7.8-6.8-12.5-.1-.2 1.1-.7 1.7-1.1z"></path><path d="M357.2 564.8c-.7-.3-1.7-.5-2.1-1.1-1.6-2.3-3.5-4.6-4.6-7.1s-5.5-5.9-1.7-8 8.5 9.4 10 13.7a1.8 1.8 0 0 1-1.6 2.5z"></path><path d="M369 558.4c-.5 1.1-.7 2.5-2.3 1.5a6.4 6.4 0 0 1-2.5-2.4c-2-4.1-6.4-7.1-5.5-12.5a2.7 2.7 0 0 1 2.1-.5c2.3.7 8.2 11.1 8.2 13.9z"></path></g><g fill="#2b2d2b"><path d="M329.2 617.1c-3-2.2-5.9-3.9-9.9-3.9s-5.4-1.4-8.1-2.3a28.5 28.5 0 0 1-12.1-1.1h-.2c-1.8.2-3.6 1.2-5.5 1.6a4.5 4.5 0 0 0-3.7 4.7 4.9 4.9 0 0 1-3.1-2.5c-1.2-2.1.8-1.4-7.2-5.3a2 2 0 0 0-1.5 0c-2.7 1.4-5.7.1-8.5.7-.5.1-1.3.5-1.3.8s1.2 2.1-.6 2.5a9.7 9.7 0 0 1-2.4.2 13.4 13.4 0 0 0 1.1 1.4 15.1 15.1 0 0 1 3 .2c2 .2 4.2-.2 6.4 1l-1.1.7a1.8 1.8 0 0 0-1.6 2.5c.1.5 1.4.9 2.2.9s2.2-.8 3.3-.8a2.6 2.6 0 0 1 1.8 1.5 2.8 2.8 0 0 1-.9 2 5.8 5.8 0 0 1-2.3.9 8.6 8.6 0 0 0-1.7.3 50.4 50.4 0 0 0 4.4 3.3l4.6.2a3.3 3.3 0 0 1 2.9 4l2.4 1.1a1.3 1.3 0 0 1 .1-.6c1.1-2.2 2.1 2.1 5.4 2.4a3.6 3.6 0 0 1 2.2.8 63.4 63.4 0 0 0 14.5 2l3-.8c-1.6-2.6-4.6-.2-6.1-3 2.7-.4 5.3 0 7.8-.3a2.8 2.8 0 0 0 1.9-1.2c.7-.6-.5-1.9-2-1.9-5.2 0-5.3 1.9-7.2 1-3.6-1.8-6.8-2.5-5.1-6.1.7-1.4-1-3 .6-3.7a65.8 65.8 0 0 1 8.7-3.5c.5-.2 1.7.5 1.9 1a2.1 2.1 0 0 1-.9 2c-.6.5-1.7.1-2.5.5s-2.3 1.1-2.5 2 1.3 1.1 2.2 1.5c3.2 1.3 6.3 2.8 7.4-.2a1 1 0 0 1 1.8-.3c1.4 2.1 3.1 1.8 5 .9 2.2 1.6 3.9 1 5.5-1.1.5-.6 1.9-.5 3-.7-.9-2.5-3-3.8-5.1-5.3zm-47.9 6.5l.6-.3.4.5c-.4.5-.7.5-1-.2zm5.7-4.5c-.1 0-.3-.3-.4-.4s.4-.4.6-.4l.4.5c-.2.1-.4.3-.6.3zm6.5-1.2c-1.4 0-3.3.6-3.6-1.6h3.8l.5.5c-.1.5-.4 1.1-.7 1.1zm5.5 4.9c-1.4.3-1.5.7-2.4-1.8 0-.1.4-.6.6-.5s1.4.7 2.1 1.8-.2.5-.3.5zm5.3 8.5c-.7.6-.1.6-2.1 0a3.9 3.9 0 0 0 .2-.6zm20.1-12.4a.8.8 0 0 1-.4-.4l-1-.4.7-.6a4.1 4.1 0 0 0 .3 1h.3c0 .1.1.2.1.3l1 .6c-1.1.8-1 .1-1-.5zm9.9 3.4a.1.1 0 0 0 .1.1h-.1z"></path><path d="M254.4 575.7zm.2-1.8a.3.3 0 0 1-.1.2h.1zm1.6 5.3zm-1.8-3.5zm0 0zm0 0zm0 0zm0 0zm0 0zm34.6 27.7a1.8 1.8 0 0 1-.9.4c-.3-.1-.6-.6-.8-.9l1-.2a29 29 0 0 1-3.5-4.9l-1.8-3.4-.8.2c-.1-.5-.5-1.3-.3-1.6l.3-.3q-2.1-4.1-3.6-7.8a2.2 2.2 0 0 1-1.9-2l.8-.9a57.1 57.1 0 0 1-1.9-5.9l-2.9-.4c-.2 0-.5-.4-.5-.5s2.1-.6 2.7-1.6a1.9 1.9 0 0 0-.2-.8c-1.4 0-3.3.7-3.9-.8-1.5-3.6-4.1-2.7-6.7-2.4-.3.1-.5.7-.7 1.1h-.3l.2.3v-.2c2.9.6 2.9.6 1.2 2.9a3.6 3.6 0 0 0-.8 2.1c0 1.7-1.1 2.5-2.1 1.9-4.9-2.6-3.1-3.1-7.1-3.5a5.4 5.4 0 0 1-.1 1.6c2.1.4 1.5 2.1 1.7 3.5 4.4.3 3.1.1 4.5 1.1-.2.2-.4.5-.7.6-3.8.8-1.1 4.4.1 4.8 2.9.9 6 1.7 8.2-1.5 1-1.5 2.6-1.1 3.9-.8s1.1 2 .8 2.1c-3.8 1.6-6.7 5.5-11.5 4.1-.4-.1-1 .4-1.6.7 5.9 6.1 4.8 5.9 13.2 6.7.3.1.6.7.8 1.1s-1.6 2.4-4.2 2.3-7.7-.6-11.4.2c0 .2.1.3.2.5a45.2 45.2 0 0 0 2.6 4.8l1.1.7h.8c1.4-.6.3-1.5-2-4.4 1 0 1.9-.4 2.5-.1a6.7 6.7 0 0 0 4 .8c2.3-.5 5.2.5 7.1 1.6s1 .8 1.5.8c6.4-.1 10.2 5.9 17.1 3.4l2.2-.7a25.9 25.9 0 0 1-6.3-4.7zm-16.9-8.8a5.8 5.8 0 0 1-1.4.3c-.2 0-.5-.4-.5-.5l.7-.9 1.4.5a1.4 1.4 0 0 1-.2.6zm3.7-5.1l-2-.5c.7-.6.2-.6 2.1 0a2 2 0 0 1-.1.5zm3.2 1.1l.6.4-.7.2zm2.6 11.7h-.2c0-.1-.1-.1-.1-.2-1.7.1-.8.3-4.5-.6.3-.4.5-.9.7-1s3.3-.5 3.8 1.6h.2v.2c1.8.1 1.1-.1 2.9.8-2.8.5-2.1.6-2.8-.8zm-27.1-26.5zm-.1-.1zm0 0zm0 0zm0 0zm0 0zm0 0z"></path><path d="M256 579.2a3.7 3.7 0 0 1-4.1 1.7c-.2-.6-.3-1.3-.5-2s1-.9-.1-2.2a1.6 1.6 0 0 1-.4-.7c-.2-1.2-.5-2.4-.7-3.6h1c1.4-.1 2.7.2 3.2 1.8l-1.1 1 1.1.6c.1 1.3-.1 2.9 1.6 3.4z"></path><path d="M254.5 575.8z"></path><path d="M254.5 574.1a.1.1 0 0 1 .1-.1.1.1 0 0 0-.1.1z"></path><path d="M256.2 579.3z"></path><path d="M336.1 608.7c-.3.4-.5 1.2-.7 1.2a12.9 12.9 0 0 1-4-.6c-1.3-.5-2-2.8-1.2-3.4a2.5 2.5 0 0 1 3 .1c1.1.7 2.7.9 2.9 2.7z"></path><path d="M332.7 629.3c.2-1 .2-2.3.8-3.1s.8-2.6 1-3.9h-.1a3.7 3.7 0 0 1 3.2 3.4c.8 3.6-2.7 3.3-5.1 3.3z"></path><path d="M344.7 615.9c-2.4 2.4-4.2 3.3-6.7 1.7-.4-.3-1.4.6-2.2.8s-1.1-.4-1.1-.6a2.6 2.6 0 0 1 .6-1.4c3-1.6 5.9-.2 9.4-.5z"></path><path d="M258.9 594l-.6.4a4.5 4.5 0 0 1-2.8-.7 18.7 18.7 0 0 1-.7-2.2c1.8-.1 3.1.9 4.1 2.5z"></path><path d="M321.2 628.1c2.1-1.4 4.4-.5 6.6-.6.2 0 .5.6.6 1a1 1 0 0 1-.6.5c-2.3.1-4.5.6-6.6-.9z"></path><path d="M317.3 634.8c3.6-1.7 3.8-2.4 5.8-.5a1.1 1.1 0 0 1 .3.7c.1.1-.2.4-.4.4a6.5 6.5 0 0 1-5.7-.6z"></path><path d="M264.4 560.9c7.2-.2 5.8-.2 6.6.3s-.4.8-.7.8a8.7 8.7 0 0 1-5.9-1.1z"></path><path d="M349.6 616.4c-1.7.8-1 1.2-2.7-1 1.3-.8.6-1.1 2.7 1z"></path><path d="M342 606.8l-1.5-.6a8.3 8.3 0 0 1 1.3-.7 2.4 2.4 0 0 1 2.6.9c-.8.5-.1.5-2.4.4z"></path><path d="M261.4 559.8c-4.2.3-3.2.5-4.1-.6s.2-.7 3.1-.2c.2 0 .4.3 1 .8z"></path><path d="M345.5 611.1a4 4 0 0 1 1.5-.3c.3 0 .6.5.9.8a4 4 0 0 1-1.5.3c-.3 0-.6-.5-.9-.8z"></path><path d="M353 609.9c-2.1.5-1.5.5-2.2-.2.9-.4.3-.6 2.2.2z"></path><path d="M263.1 570.6c-1.8 2.2-1.1 1.7-2.7 1.2.7-1-.1-.8 2.9-.9z"></path><path d="M259.8 563.7c-1.9 2-1.2 1.6-2.7.9.8-.6 0-.4 2.9-.7z"></path><path d="M266.8 553.5l-1-.9a4 4 0 0 1 1.5-.3c.3 0 .6.4.9.7z"></path><path d="M260.9 551.1a.9.9 0 0 1 .1-.5l2 .4c-.7.7-.1.7-2.1.1z"></path><path d="M331.7 630.4c-.8-1.4.5-.8 1-1.1s-.1-.5-1 1.1z"></path><path d="M345.5 627.3l-.2-.6.7.1-.5.5z"></path><path d="M354.2 620.5l-.3-.5.6.1-.3.4z"></path><path d="M334 602.9l-.2-.6.7.2-.5.4z"></path><path d="M260 563.9a8.3 8.3 0 0 0 .7-1.3l.6.4c-1.8.8-1.6.6-1.3.9z"></path><path d="M270.1 556.4l-.6.2c-.2 0-.3-.2-.5-.4s.4-.3.6-.3.3.3.5.5z"></path><path d="M254 556.3l-.6-.5c.2-.1.5-.4.7-.3s.8.6-.1.8z"></path></g><g fill="#2b2d2b"><path d="M85.5 566.7zm-.1-1.6zm4.4 3v.2h.1zm1 17.7l.2.2h-.2zm-5.3-19.1zm-.1-1.6zm4.4 3v.2h.1zm-4.3-1.4zm-.1-1.6zm4.4 3v.2h.1zm-4.3-1.4zm-.1-1.6zm4.4 3v.2h.1zm-4.3-1.4zm-.1-1.6zm4.4 3v.2h.1zm9.9 12.9c-1.3.6-2.2 1.4-3.8-.4a1.5 1.5 0 0 1 0-1.3 8.3 8.3 0 0 1 1.5-1.7 3.4 3.4 0 0 0 .7-4.3l-3-2.6a3.9 3.9 0 0 1-4.6 0c-.5-.4-.5-1.6-.7-2.4l-3.2.6c-1.3.4-1.2-.8-1.2-2.2-1.9-.2-1.9 0-2.2-1.1s.3-.3.5-.4h1.7c-1.2-3.5-2.3-6.2-5.9-6.3-.8 0-1.5-1.9-2.4-2.4a31.1 31.1 0 0 0-4.1-1.1c1-.7 3.1-.9 1.3-2.9a2.6 2.6 0 0 1 1.1-.7 2.5 2.5 0 0 1 2.1.2c-.7-1-1.3-2-1.9-3a4.9 4.9 0 0 0-2.5 1.4c-2.2 2.9-5.8 3.4-8.9 4.7-1.4.6-2.1-.1-3.2-.5s-1.1.1-1.2.4a27.5 27.5 0 0 0-2 3.8c-.1.2.5.9.7.9l2.8-.7c.2 0 1 1.5.5 1.8a3.6 3.6 0 0 1-1.8 1h-4.5a13 13 0 0 1 1 1.5h2.3c1.6.1 1.2.9.9 1.9s.7 1.6.5 1.9l-.5.6 2.5 3.3a13.9 13.9 0 0 0 2.8 1 39.9 39.9 0 0 0 5.2.5c-.7 1.6-2.1.7-3 1.2l-1.8 1 2.3 2.8c0-.1.1-.1.2-.2 2.1-2 3-.1 6.9 2 .3.2.8-.2 1.2-.4l-.3-.6c-.2-1.8.7-2.9 2.1-2.4 3.1 1 4 1.1 4.1 2.3s-.3 1.2-.5 1.2c-3.2.1-5.1 2.5-7.6 3.9.2.2.3.4.5.5 1.7 1.1 3.3-1.3 4.8-.3s3.8.5 5.7.7a7.5 7.5 0 0 0 4.2-1c1-.6 1.8.3 2.1 2.1.1.1 0 .4 0 .6 4.8 1.5 3.2 3.7 2.9 7.4a1.1 1.1 0 0 0 1.4 1.2 3.3 3.3 0 0 0 1.2-.6c-.6-1.9 1.4-3.4.9-5.5s.5-2-.3-3.1-.1-1.9 1.2-2.2a15.2 15.2 0 0 0 2.1-.3c.8-.3 1.2-2.6-.8-1.8zm-35.2-20.1l-.3.5-.2-.5zm2.6 7.9c-.5.6-4 .6-3.6-1.5.1-.4 1-.7 1.5-1l-.2-.2h.3l.5-.9c.6.9 0 .8-.5.9a.4.4 0 0 0-.1.3 6.8 6.8 0 0 0 1.2 1.2c.5.3 1.5.3.9 1.2zm.1-5.9c-.5-.3-.5-.6.1-.8l.3.4c-.1.2-.3.4-.4.4zm1.5-2.8l-.4-.5.4-.3c.2 0 .3.3.5.4a1 1 0 0 0-.5.4zm8.1 9.1c0 .1-.1.2-.1.3h-.3c-.4 1-.9 1.9-1.3 2.8l.2.4a4.6 4.6 0 0 0 .7.7c-.5 0-.4.2-.7-.7l-.3-.2c0-.1 0-.1.1-.2-2.3-.3-3.2-3-2.7-3.3s.8-.4 4 .5a.1.1 0 0 0 .1-.1h.3c.1-.3.3-.5.4-.8s0 .6-.4.6zm-2.5-4.8c-1.4-.7-2.1-1.7-.8-3.3s-.8-1.5-.6-1.7 2.4.4 3.5 1.6 2.6-.7 3.9-.3.5 1.2.1 1.7-.7 2.7-.9 4h.2v.3l1 .5c-.9.6-.9 0-1-.5h-.2v-.2c-2.1.2-3.5-1.2-5.2-2.1zm4 7.6c.7-1.3 1.9-1 3-.8s.4.2.6.4a1.1 1.1 0 0 1-.2.5l-3.1 1.3c-.2-.4-.7-.6-.3-1.4zm3 2.5c0-.1.2-.2.4-.3s.3.3.3.4-.6.6-.7-.1zm9.4-1.1c-.4.1-.7.4-1.1.4s-.4-.4-.7-.6.2-.5 1.8.2zm-4.6-.5c.1 0 .3.3.4.4s-.4.4-.5.3-.6-.6.1-.7zm-2.9-4.5l.5.4-.5.3zm7.9 11.5a.3.3 0 0 0 .1.2h-.3c-.2.3-.4.8-.6.9-2.3.4-4.7.5-6.8 1.6a1.1 1.1 0 0 1-.6-.3.5.5 0 0 1 0-.5c2-2.4 3.2-4.1 5.6-2.3a9.4 9.4 0 0 0 2.4.6c0-.1.1-.1.1-.2h.1l-2.4-3.8c1.5-.5 3.1-1.1 4.7-1.5a2 2 0 0 1 .6.9c-.7 1.6-.7 3.8-2.9 4.4zm-1.3-11.8v.2h.1zm-4.4-2.9zm.2 1.5zm4.2 1.4v.2h.1zm-4.4-3zm.1 1.6zm4.3 1.4v.2h.1zm-4.4-3zm.1 1.6zm4.3 1.4v.2h.1zm-4.4-3zm.1 1.6zm4.3 1.4v.2h.1zm-4.4-3zm.1 1.6z"></path><path d="M118.4 607.3h1.4c1.6-.3 2.2-1.9 1-2.3s-.7-2.8-1.6-4 .4-.8.7-.8a6.6 6.6 0 0 1 4.1 2.2c-1.7 2.2 1 2.8 1.6 4.1a13.1 13.1 0 0 0 2.4 3.4 1.2 1.2 0 0 0 1.9-.1 2.4 2.4 0 0 1 3.3-.1 10.4 10.4 0 0 1 1 1.8 2.9 2.9 0 0 1-1.3.5c-2.6.3-4.5-1.1-7.8.8s-3.6-.1-5.3-1.1-2-2.7-1.2-4.5z"></path><path d="M90.8 585.8a.3.3 0 0 0 .1.2h.1s0-.1-.2-.2zm.5 4.2a17 17 0 0 1-.4-4h-.6c-2.2.2-4.4 2.1-6.6 0s-4.3.7-6.3 1.9l3.8 3.6h9.2c1.4.2 1.3-.3.9-1.5zm-9.1-.1a2.5 2.5 0 0 1-1.1-.4c.2-.2.5-.7.7-.7a3.1 3.1 0 0 1 1.2.5c-.3.3-.5.6-.8.6zm3.5-.1c-.6-.3-.5-.6.1-.7s.2.3.3.4z"></path><path d="M101.1 599.5c-1.8-3.5-2.5-4.9-2.3-5.7a16.4 16.4 0 0 1 1.4-3.9 1.5 1.5 0 0 1 1.3-.5c1.6 0 3.4-.6 5.3.6a16.5 16.5 0 0 0-3.2.8c-.9.5-1.9 1.2-2 2s.6 1.8 1.2 2.5 3.2 1 4.5 1.6a2.2 2.2 0 0 1 1 1.7 2.4 2.4 0 0 1-.9 1.8c-2.5 1.6-4.1.3-6.5-1.1z"></path><path d="M146 611.6c-2.9 1.9-6.4-2.5-10.3-3-.3 0-.8-1.5-.6-1.7a40 40 0 0 1 4.6-4.6l.8-.4 2.4 1a18.3 18.3 0 0 1-1.8 3.1c-.2.4-.8.5-1.2.7a3.5 3.5 0 0 0 .5.8 29 29 0 0 0 5.6 4.1z"></path><path d="M65.4 544.7c3.7-.7 4-.6 5 2.2.4 1.1-.7 3.8-1.7 3.9s-1.5-1.1-1.4-1.3c1.2-2.3-.6-3.4-1.9-4.8z"></path><path d="M100.9 599.3c-.4 3.5-1.2 4.3-4.3 4.3a1.4 1.4 0 0 1-1.1-2.1c1.8-2.6 2.4-1.9 5.6-2z"></path><path d="M108.1 607c1.6.1 3.3.3 4.8-.8s3.2-.9 4.7-.1.5.8.8 1.2l.2-.2c-1.2.1-2.4-.1-3 1.3s-.3 1.3-1.3 1c-6.8-2-5.1-1-6-2.6z"></path><path d="M53.8 547.7a11.2 11.2 0 0 0 1.1-2.2c.6-1.4 1.7-1.5 3-1.4s.9.8.5 1.7.7 1.3.6 1.8-1.8.7-5.2.1z"></path><path d="M54.3 555a14.1 14.1 0 0 1-2.7.5l-.8-1.3h.1c1.7-.4 1.6-.4 1.2-2.5-.1-.4.2-.9.4-1.3s.8-.1 1.2.3l1.6 1.6a1.6 1.6 0 0 1-1 2.7z"></path><path d="M137.5 617.6h-5.2c-1.8 0-1.8-.9-1.2-2.2s-.4-.8-.6-1.3.1-.5.2-.5.4-.9 6.8 4z"></path><path d="M117.2 592.5c2.1.4 2.7 2.5 4.2 3.9a13.8 13.8 0 0 1-6.7-.2c1.2-1.2 3.1-1.8 2.7-3.9z"></path><path d="M90.4 598.8c-1.7-.4-1.2-2.3-2.1-3.3s.7-.6 1-.5c1.8.3 2.5 1.1 2.5 2.8s-.4.7-.6 1-.5.1-.8 0z"></path><path d="M133.2 603.9c-2.3.5-1.4 1.3-3.6-2.6-.6-1 1-1 1.2-.9 2.9 2.3 2.2 1.9 2.4 3.5z"></path><path d="M134.2 623.3c2.2-1.3 4.1-.8 6-.8.2 0 .5.5.7.8s-.4.4-.6.4a18.6 18.6 0 0 1-6.1-.4z"></path><path d="M143.7 607.3c1-1.4 1.9-2.6 3.5-1.9s.6 1.6.7 2.5.4-.1-4.2-.6z"></path><path d="M145.7 614.6a10.3 10.3 0 0 1-1.2 2.6c-.3.4-1.2.3-1.9.4s-.2-.8 0-1.1a14.3 14.3 0 0 1 1.6-2.4c.2-.2.9-.1 1.3 0s.1.3.2.5z"></path><path d="M65.1 547.3c-.3.4-.3.6-.5.7l-.6.2-2.3-1.4c-.2-.1-.1-.6 0-1s.4-.2.5-.1z"></path><path d="M117.4 592.3c-1.9-.1-1.3 0-2.6-.7a3.4 3.4 0 0 1 2.2-1.8l1.4.3a8.8 8.8 0 0 1-1.2 2.4z"></path><path d="M126.9 620.5c-.1 1.4-1.1 1.5-2 1a7.9 7.9 0 0 1-1.7-1.9l.6-.2c2.2.2 3.9 1.9 3.1 1.1z"></path><path d="M115.3 599c.1.4-1.3.8-2.5.5s-.6-.5-.9-.7.2-.6 2.8-.2c.2 0 .4.2.6.4z"></path><path d="M89.8 568.1h.1z"></path><path d="M92.5 568.4c-.6.9-.8.7-2.5-.2a3.7 3.7 0 0 1 1.1-1.1z"></path><path d="M55.7 559.4l-1.3.4a4.4 4.4 0 0 1-.8-1.1c.8-.4.9-.2 2.1.7z"></path><path d="M50.3 545.4l1.2.6a1.9 1.9 0 0 1-2.3.5c-.3-.1-.5-.4-.8-.7s.1-.3 1.9-.4z"></path><path d="M134.9 626c.2-.6-.2-.6 1.8 0-.7.5-.2.6-1.8 0z"></path><path d="M127.1 620.7c1.7-1.7 1.1-1.4 2.4-.7-.6.6.1.5-2.6.5z"></path><path d="M120.5 619.6c-.1.1-.1.4-.1.4l-.8.2-1-.6a1 1 0 0 1 .6-.3z"></path><path d="M153 617.2v.5c-.4 0-.9.3-1.3.1s-.7-.7.1-.8a2.7 2.7 0 0 1 1.2.2z"></path><path d="M114.7 613.6a2 2 0 0 1-.1.5c-1.7.2-1.5 0-1.9-.5 1.8-.5 1.3-.4 2 0z"></path><path d="M148.9 612.5l1.3.5c-.7.4-.2.5-1.9-.1z"></path><path d="M119.8 611.6a1.2 1.2 0 0 1-1.3 1.3 6.7 6.7 0 0 1-1.2-.6 2.6 2.6 0 0 1 1.1-.7 6.6 6.6 0 0 1 1.4 0z"></path><path d="M108.7 612.3a1.1 1.1 0 0 1 .1-.5l1.7.5c-.7.5-.2.6-1.8 0z"></path><path d="M152.2 611c2.6.4 1.9.2 2.4.7-1.3.6-.8 1-2.2-.9z"></path><path d="M150.9 609.3c-1.3 0-2.7.4-3-1.5 1.2 0 2.6-.3 2.9 1.5z"></path><path d="M113.3 603.6c-.1-.1 0-.5 0-.5a5.7 5.7 0 0 1 1.3 0c.2 0 .4.3.4.4s-1.1.5-1.7.1z"></path><path d="M106.5 594.3c-.3.2-.5.6-.8.6a3.6 3.6 0 0 1-1.1-.4c.2-.2.5-.5.7-.5s.8.2 1.2.3z"></path><path d="M110.9 587c0 .2 0 .4-.1.4s-.9.3-1.2.1-.6-.7.1-.8a5.3 5.3 0 0 1 1.2.3z"></path><path d="M60.7 551.4c1.9 0 1.2-.2 2.7.7-.2.1-.3.4-.5.4s-1.4-.1-2-1.2z"></path><path d="M60.9 551.3c-2.3-.3-2.1 0-2.4-1.1a1.4 1.4 0 0 1 2.2 1.2z"></path><path d="M55.7 541.8l.2-.4 1.6.4c-.6.4-.2.5-1.8 0z"></path><path d="M140.9 619.8l.6.5-.5.3a1.9 1.9 0 0 1-.1-.8z"></path><path d="M152.4 610.8c-.8-.2-1.5-.5-1.5-1.5h-.1c.9.1 1.3.7 1.4 1.6z"></path><path d="M107.1 606.3c1-.8.7.3 1 .7s.4-.1-1-.7z"></path><path d="M103.7 586.9l-.5.1.1-.3.4.2z"></path><path d="M71.7 580.4l-.6.1v-.4l.6.3z"></path><path d="M86.6 565.7l-1.2.9c.3.2.2.5.2-1.5-.2.2-.4 0 1 .6z"></path><path d="M66.7 542c-.2.1-.4.3-.6.3s-.2-.3-.4-.4l.5-.4c.2 0 .3.3.5.5z"></path></g></g></g></g></svg>