<svg xmlns="http://www.w3.org/2000/svg" width="1440" height="1833.86" viewBox="-0.015630502253770828 0.005606801249086857 1079.98486328125 1375.3544921875" style=""><g><title>drinks16_83564580</title><g data-name="Layer 2"><g data-name="Layer 1"><g data-name="Layer 2"><g data-name="Layer 1-2" fill="#66896f"><path d="M1079 1262.16a22 22 0 0 0-21.06-15.52H713.47c19.59-36.1 36.42-77.93 50.13-124 79.91-5.4 147.21-67.72 177-126 25.29-49.43 26.26-96.52 2.67-129.25-17.32-24-55.69-49.28-138-40.38 0-3.67.15-7.31.15-11q0-24.24-.92-48a22 22 0 0 0-22-21.16H313.81a22 22 0 0 0-22 21.21q-.9 23.73-.93 48c0 166.7 34 323.79 92 430.56H22a22 22 0 0 0-12.39 40.19c56.31 38.38 153 69.75 272.18 88.29a23.93 23.93 0 0 0 3.38.26h509.67a23.93 23.93 0 0 0 3.38-.26c119.19-18.54 215.84-49.89 272.18-88.29a22.06 22.06 0 0 0 8.6-24.65zm-171.46-369c13.38 18.56 11.08 49.73-6.15 83.43-22.82 44.57-71.24 89.63-125.42 100.2 15.21-63.43 24.79-133.12 28.07-205.52 51.75-6.62 88.41.98 103.52 21.94zM334.92 816q0-12.63.26-25.14h426q.26 12.48.26 25.14c0 171.48-36.85 331.07-98.82 430.56H433.74c-61.97-99.41-98.82-259-98.82-430.56zm458.23 515.28H286.89c-64.86-10.17-122.18-24.06-168.82-40.68h843.87c-46.62 16.66-103.92 30.55-168.79 40.72z"></path><path d="M478 655.93a22 22 0 1 0 41 16.12c77-195.84 34.66-299.4-2.71-390.74-30.85-75.39-57.5-140.48-13.93-251.2a22 22 0 0 0-41-16.13c-50 127.17-17.4 206.9 14.14 284 35.9 87.79 73.05 178.55 2.5 357.95z"></path><path d="M585.54 655.93a22 22 0 0 0 12.39 28.54 22 22 0 0 0 28.54-12.39v-.05c77-195.84 34.68-299.4-2.71-390.77C593 205.91 566.31 140.82 609.88 30.1a22 22 0 0 0-41-16.13c-50 127.17-17.39 206.88 14.15 284 35.97 87.8 73.1 178.56 2.51 357.96z"></path></g></g></g></g></g></svg>