<svg xmlns="http://www.w3.org/2000/svg" width="1440" height="1698.67" viewBox="-0.0000026911500299320323 0.004875399637967348 1080.001953125 1274.0052490234375" style=""><g><title>drinks01_83564580</title><g data-name="Layer 2"><g data-name="Layer 1"><g data-name="Layer 2"><path d="M1074.3 230.39L813.7 23.14a106.42 106.42 0 0 0-171.79 69.64l-25.69 198.71H15.05a15.05 15.05 0 0 0 0 30.1h23.74l135.13 939.51a15 15 0 0 0 14.9 12.91h420.3A15.06 15.06 0 0 0 624 1261.1l135.14-939.51h23.73a15.05 15.05 0 0 0 0-30.1H646.58l25.19-194.85A76.31 76.31 0 0 1 795 46.7L1055.58 254a15.05 15.05 0 0 0 18.74-23.56zm-462 91.2L558.88 735H128.66L69.2 321.59zm-16.25 922.31H201.86L133 765.05h532zm132.67-922.31L669.28 735h-80l53.44-413.36z" fill="#f5a56b" data-name="Layer 1-2"></path></g></g></g></g></svg>