<svg xmlns="http://www.w3.org/2000/svg" width="1437.88" height="1443.59" viewBox="0 0 1078.429931640625 1082.6800537109375" style=""><g><title>icon07_228780364</title><g data-name="Layer 2"><g data-name="Layer 1"><g data-name="Слой 2"><g data-name="icons 228780364"><path d="M757.29 0C579.94 0 436.18 110.84 436.18 247.45c0 78.68 47.69 148.73 122 194.05A22.14 22.14 0 0 1 569 460.32v134.9a11.31 11.31 0 0 0 19.31 8L693 498.48a22 22 0 0 1 18.08-6.21 412.75 412.75 0 0 0 46.23 2.62c177.35 0 321.12-110.84 321.12-247.46S934.62 0 757.29 0zM632 297.9c-26.31 0-48.37-23.75-48.37-50.07s22.06-49.19 48.37-49.19 47.52 22.89 47.52 49.19S658.3 297.9 632 297.9zm125.73 0c-26.31 0-48.37-23.75-48.37-50.07s22.06-49.19 48.37-49.19 47.52 22.89 47.52 49.19S784 297.9 757.71 297.9zm125.75 0c-26.32 0-48.38-23.75-48.38-50.07s22.06-49.19 48.38-49.19S931 221.53 931 247.83s-21.23 50.07-47.54 50.07z" fill="#9ea4a0"></path><path d="M359.39 394.59a139.16 139.16 0 1 1-139.16 139.15 139.15 139.15 0 0 1 139.16-139.15z" fill="#d5ded5"></path><path d="M145.41 1082.68l26-97.19v97.19h375.9v-97.19l26 97.19h145.4l-90.04-336.27a89.1 89.1 0 0 0-86.06-66h-74.37a198.43 198.43 0 0 1-217.68 0h-74.37a89.07 89.07 0 0 0-86.06 66L0 1082.68z" fill="#d5ded5"></path></g></g></g></g></g></svg>