<svg xmlns="http://www.w3.org/2000/svg" width="1440" height="1576.71" viewBox="0.00014495849609375 -0.00205230712890625 1079.9989013671875 1182.5277099609375" style=""><g><title>meteo24_85266186</title><g data-name="Layer 2"><g data-name="Layer 1"><g data-name="Слой 2"><path d="M829.2 987.59c-196.06-65.25-386.39 125.55-582.46 60.31-33.84-11-68.9 10.86-67.18 52.41s27.61 57.31 61.45 68.3c196.07 65.24 392.13-123.73 588.19-58.48 33.84 11 64.08-10.59 64.08-50.67 0-29.11-30.28-60.89-64.08-71.87zm162.61-282.93C693.63 572.29 405.43 907.87 107.25 775.5c-33.84-14.84-74.08 7.79-73.2 47.37.62 28.14 21.49 53.86 55.33 68.7 298.18 132.43 584.32-205.7 882.5-73.33 33.83 14.84 71.85-4.88 73.4-43.68 1.5-37.76-19.63-55.06-53.47-69.9zm56.7-197.31L930.18 439.7a61.31 61.31 0 0 1-27.09-74.43l47.16-127.88c17.24-46.76-25.55-93.46-73.63-80.36l-131.51 35.84a61.3 61.3 0 0 1-71.78-33.48L616.25 35.62c-20.87-45.25-84.15-48-108.89-4.75l-67.65 118.32a61.29 61.29 0 0 1-74.43 27.09L237.4 129.13c-46.76-17.25-93.46 25.55-80.36 73.63l35.84 131.5a61.29 61.29 0 0 1-33.48 71.79L35.63 463.13C-9.62 484-12.39 547.28 30.88 572l79.33 45.35c47.8 20.73 95.34 29.47 142.71 30.16a305.55 305.55 0 0 1-19.57-107.85c0-169.19 137.15-306.34 306.34-306.34 160.55 0 292.16 123.52 305.2 280.69 48.76.56 97.64 9.63 146.92 31.33 35.24 15.52 59.7 34.38 73.45 36.26 18.53 2.57 26-49.8-16.75-74.24z" fill="#f5d7d5" data-name="meteo 85266186"></path></g></g></g></g></svg>