<svg xmlns="http://www.w3.org/2000/svg" width="1440" height="1440" viewBox="0 0 1080 1080" style=""><g><title>laundry24_27093515</title><g data-name="Layer 2"><g data-name="Layer 1"><g data-name="Слой 2"><path d="M0 1.92L1.92 1080l1078.08-1.92L1078.08 0zm1014.71 376.15a504 504 0 0 0-314.5-313.36l313.94-.55zm-37.07 161.15c.43 241.31-195.57 438-436.9 438.42S102.82 782.09 102.37 540.78s195.52-438 436.81-438.41 438.08 195.54 438.46 436.85zM378 65.29A503.84 503.84 0 0 0 64.71 379.73l-.55-313.85zM65.29 702a503.82 503.82 0 0 0 314.44 313.34l-313.85.55zm636.6 312.76a503.88 503.88 0 0 0 313.44-314.44l.56 313.9z" fill="#badcf0" data-name="laundry 27093515"></path></g></g></g></g></svg>