<svg xmlns="http://www.w3.org/2000/svg" viewBox="0.0024099349975585938 -0.00235748291015625 1079.994873046875 4692.33935546875" style=""><g><title>dishes08_171890962</title><g data-name="Layer 2"><g data-name="‘ëîé_1"><path d="M1076.89 3785c-29.62-481.45-249.39-880.58-484.22-1287.8-9.5.33-19 .52-28 1-31.25 1.37-67.17 4.21-99.28-2.75C245.05 2912.87 67.2 3411.79 6.92 3877.86c-38.34 296.58 78.57 801.35 454.18 814.35 38.63 1.34 74.09-8 106.52-24.4 36.45 6.5 76.45 7.06 120.44.17 363.72-57.28 405.78-607.34 388.83-882.98zM118.5 4288.54c-74.5-205.14-43.2-430.66 5.1-637.18 75.5-322.64 189.6-641.5 324-946.54-111.48 420.51-193.6 864.05-210.3 1294.46-7.93 204.82 41.87 501.37 214.59 620.79-166.42 11.66-286.62-202.8-333.39-331.53zm398.38 280.88c-81.48-53.33-142.19-158.64-171.78-253.87C282 4112.43 314.15 3880 343 3674c45.1-322.12 106.26-639.08 179.38-955 70.26 609.46 80.38 1246-5.5 1850.42zm71.71-3.66c64.36-313.53 65.08-639.24 55.64-957.67-8.36-282.83-16.88-573.08-47.06-856.93 79.46 254.78 116.52 530 157.34 786.62 27.3 171.09 44.32 341.88 37.36 515.12-6.33 156.29-61.33 403.47-203.28 512.86zm172.49-9.21c-37.46 26.91-73.54 41.48-107.74 46.31 52.66-53.92 93.53-123.28 123.28-181.86 89.51-176.28 96.5-387 86.54-579.94-11.23-219.38-56.23-438.7-95.68-654.23-22.24-121.55-46.54-246.68-78.61-369.44 115.84 214 216.25 432.33 271.87 677.22 74.26 327.21 110.7 839.39-199.66 1061.94z" fill="#cfcfcf"></path><path d="M685.35 794c-.79-15.7-13.46-35.36-41.8-44.73-62.18-20.48-131.87-34.42-224 5.87-6.53 2.84-11.89 4.48-15.84 8.56-9.23 5.53-16.71 15.3-17.85 30.3-16.72 216.16-4.25 1465.32-4.35 1682 0 10.61 3.17 18.94 8 25.28 4.7 12.11 14.43 22.17 28.15 23.47 70.69 6.73 154.66 13.69 224.24-3 1.64-.39 2.68-1.37 4.12-2 14.66-4.45 27.33-17.15 28.57-38.15 12.55-215.91 21.34-1471.7 10.76-1687.6z" fill="#e2a864"></path><path d="M650.24 781c-59.5 65.84-178.2 89.51-230.68 2.78-16.72-27.71-59.56-2.78-43.34 25.32 67.21 116.19 228.57 99.63 311 8.88 22.65-24.88-14.31-62.08-36.98-36.98z" fill="#b5662c"></path><path d="M492.48 246.92c-87.88 11.37-116 121.59-109.86 189.41C392.81 548.21 452.83 660 500.38 761.1c8.88 18.94 30.47 16.75 42.06 5a28.11 28.11 0 0 0 15-14C607.23 648.66 806 206.47 492.48 246.92zm92.91 261.71c-19.27 59.73-37 120.54-60.52 179-42.38-92.2-85.87-187.29-77.46-288.85 3-11.56 5.39-36.45 8.49-48 21.33-61.78 112.83-87 147.32-.62 14.85 44.99-4.02 115.53-17.83 158.47z" fill="#cfcfcf"></path><path d="M772.83 48.8C739-11.55 659.09-16.22 619.48 36.42c-51.14 68-34.55 209.33-137.87 227.75a23.63 23.63 0 0 0-10.1 4.05 24.4 24.4 0 0 0-10.58 5.35c-16.33 14.57-21 35.07-23.44 55.94-2.25 19.56 3.62 76.45 37 82.65 109.3 20.22 211-15.54 268.27-112.27 42.03-70.96 73.15-174.41 30.07-251.09zm-49.11 163.64c-33.51 101.63-116.91 157.37-224 144.83-1.5-7.64-3.56-15.28-3.53-23.15 0-7.48 1.6-14.76 3.63-21.95C617.68 289 610.47 134.82 664.51 62.74c15.42-20.5 68.55-20.24 73.58 39.42 3.13 36.61-3.3 76.77-14.37 110.28z" fill="#c1c1c1"></path></g></g></g></svg>