<svg xmlns="http://www.w3.org/2000/svg" viewBox="-0.0003046989440917969 0.029987335205078125 1079.96240234375 1111.974365234375" style=""><g><g data-name="Слой 2"><g data-name="Слой 1"><path d="M1041.28 167.09C1014 121.31 956 109.52 908.09 98.2 781.54 68.27 651.52 52.43 521.4 54.43c-64 1-130.81 3.79-193.41 17.94-47.52 10.74-97 37.39-109.12 88.5-7.94 33.44.53 68.8 7.41 101.66 7.12 34.05 15.58 67.8 24.88 101.31 19.94 71.84 43.94 142.46 67.94 213 2.65 7.8 14.44 2.83 11.8-4.94-38.8-114.08-80.24-229.9-99.24-349.35-5-31.44-5.32-64.29 15-90.68C262.88 110.76 287 97.6 312 89.75c29-9.09 59.94-12.14 90-15.34s60.4-5.34 90.68-6.48c121.79-4.57 244 7.34 363.27 31.83 29.86 6.13 59.84 12.6 89.18 20.91 23.66 6.69 48.06 15.34 67 31.58 44.75 38.39 33.57 103.74 21.25 154.32-30.76 126.31-101 239-129.36 366.15-1.8 8 10.91 9.67 12.69 1.68 27.51-123.32 94.64-233 126.53-354.93 12.63-48.15 25.2-106.75-1.96-152.38z" fill="#494442"></path><path d="M258.23 808.89c24.82-28.4 42.32-67.85 41.74-106-.28-18.39-16.87-37.75-33.39-44.19-15.69-6.12-27.54-17.38-38.44-30.27-22-26-36.84-57-58-83.53a195.86 195.86 0 0 0-82-60.13A204 204 0 0 0 63.49 477c-9.32-2.33-13.32-.78-21.9 3.55-19.68 9.91-31 23.43-39.05 43.61-2.61 6.55-3.88 14.27-.48 20.44 4.1 7.46 13.34 10.09 21.6 12.13 33.88 8.36 43.06 49.8 50.92 78.27 10.21 37 15.28 76.08 33.69 110.23q2.19 4 4.61 8c22.58 36.4 62.38 61.57 105 66.37 14.36 1.6 30.81.21 40.35-10.71z" fill="#b7dfdd"></path><path d="M1048 848.67c-16.73-51.19-35.25-101.9-58.12-150.7-19-40.59-41.18-79.75-67.24-116.24-7.51-10.51-12.39-22.87-19.59-33.75-8.18-12.38-16.05-24.98-24.48-37.17-7.64-11.13-9.9-12.62-22.44-8.81-26.5 8.08-54.12 11.94-81.4 16.31a811.47 811.47 0 0 1-90.29 9.32 823 823 0 0 1-177-10.86q-36.58-6.25-72.51-15.81c-27.31-7.28-54.62-25.11-77.28-41.57-30.65 46.28-52.85 97.09-82.31 143.77-40 63.37-70.58 132.15-96.22 202.41-12.31 33.74-24.63 68.1-36.36 101.76-9.44 27.12 6.75 66.72 31.23 81 27.18 15.84 57.41 34.37 86.7 46.88 62.93 26.89 130.3 45 197.43 57.68 140.09 26.57 285.57 25.54 425.17-3.72 66.78-14 132.87-35.17 188-76.31 3.59.57 7.65-1.32 8-6 4.52-54.44-14.63-107.22-31.29-158.19z" fill="#b7dfdd"></path><path d="M876.17 479.66C702.89 511 518.55 495.61 353.91 436.18c61.14-78.07 173.44-123.78 281.43-115.33s194.28 72.31 240.83 158.81z" fill="#b7dfdd"></path><path d="M648 331.25c9.82-12.94 14.57-36.1 17-49.39 3.1-17.15 4.39-40.35-11.33-52.09-9.77-7.31-24.62-4.07-33.27 4.54s-12.2 21.11-13.61 33.24c-2 17.08.54 92.43 34.49 70.22a27.45 27.45 0 0 0 6.72-6.52z" fill="#494442"></path><path d="M884 473.68a1399.63 1399.63 0 0 1-269.71 6.69 1369 1369 0 0 1-138.49-17.28c-42.16-7.44-84.68-15.76-123.18-35.2-7.36-3.71-13.07 7.74-5.7 11.46 37.67 19 79 27.72 120.24 35.19a1394.11 1394.11 0 0 0 140 18 1403.93 1403.93 0 0 0 277.48-6.11c8.15-.96 7.52-13.74-.64-12.75z" fill="#494442"></path><path d="M814.26 104.33c-100.42 23.12-226.73 27.35-320.88-14.53-12.61 7.3-29.38 15.12-43.65 18.2-5.12-22.23-5.2-69.66 3.68-90.68 10.88 3.85 29.18 16.31 40.06 20.16 94.44-50.23 245.46-52.74 320.79 9.65l61.91-16.74-13.06 91.23z" fill="#eacf3e"></path><path d="M65.75 508.57c3.3-9.17 2-18.5-11.17-18-14 .51-29.07 16.22-36.24 27.16-5.73 8.73-5.08 20.55 7.64 19.86 17-.92 29-8.89 37.22-23.45a36.81 36.81 0 0 0 2.55-5.57z" fill="#fff"></path><path d="M732.79 793.64A98.59 98.59 0 0 0 683 780.88c12.81-10.41 24.61-22.32 32.19-37.18 5.29-10.38 14.12-31.83 3.7-41.81-9.29-8.89-27-1.83-35.94 3.88-10.85 6.89-19.45 17-27.36 27.5 3-17.46 6.07-35.17.66-52.25-4.36-13.79-15.62-26.08-30.95-19-16.56 7.66-24.11 29.56-23.89 46.44.19 14.86 5.49 29.43 13.59 41.93-14.14-7.5-29.53-12.48-45.76-12.46-14.54 0-42.08 5-48.88 20.31-11.79 26.51 43.08 39.72 76.38 45.62-12.57 7.76-22.38 18.83-32 31.08-9.09 11.54-20 26.56-12.17 41.66 15.59 30 50.73-5.2 70.43-28.59-.66 27.52 4.14 62.3 32.67 63.37 13.31.5 23.7-10.26 27.2-22.39 4.63-16-.58-34.58-4.75-51.18 24.87 10.6 71.12 19.16 76-13.54 2.17-14.76-9.94-24.05-21.33-30.63z" fill="#fff"></path></g></g></g></svg>