<svg xmlns="http://www.w3.org/2000/svg" viewBox="0.019298553466796875 0.00069427490234375 1079.985595703125 1326.779296875" style=""><g><title>vegetable11_114683894</title><g data-name="Layer 2"><path d="M1008.05 1103.65c95.5-171.83 114.26-327-58-507C883.26 527 820.82 453.11 754 383.52c-53-55.18-77.57-113.79-59.42-192.77 10.91-47.45 15.43-99.32.69-149-9.71-32.52-31.55-46.67-64.97-40.23C601 7.16 586.92 24 594.43 55.11c17.08 71-11.82 128.74-40 192.89-22.79 51.86-50.31 61.15-97.07 76-164.47 52.16-322 114.64-413.06 281.87-94.09 172.82-34.23 404.83 141.55 497.74 39 20.64 70.75 47.29 99.75 78.89 57.79 63 57.59 62.87 123.7 29.84 3.3-1.65 11.26 6 16.73 9.18 5.27 36.45-41.7 59.63-22.9 105.26 40-1 51.91-32.54 75.05-47.72 15.63-10.25 36.63-22.08 47.86-4.6 36.55 56.87 104.06-23.31 138.14 34.09 7.78-6.44 22.35-13 22.21-19.3-.74-32.8 17.7-37.49 45-44.37 41.26-10.41 81.57-24.13 123.65-32.93 65.51-13.72 120.33-49.51 153.01-108.3zm-510.41 116.11c-8.07 6-12 3.93-9.92-5 .29-1.29 5.36-1.49 8.21-2.2.64 2.44 2.5 6.62 1.71 7.2zm74.65 20l3.36-4.5 1.85 5.3zM889.87 1152c-27.21 12.82-57.69 20.46-81.26 1.14-22.16-18.15-8.06-47.89-1-70 46-143.55 28.24-275.35-67.54-394-13.41-16.6-28.94-31.58-44.39-46.38-10.66-10.23-24-17.46-37-4.39-12.68 12.79-7.72 27.09 4.37 36.61 37.54 29.56 61.33 68.44 83.84 109.87 49.46 91 49.8 184.15 19.32 279.87-6.51 20.41-16.28 39.79-22.49 60.26-26 85.83-46.31 97.52-127.47 71.63-120.58-38.47-164-118.56-146.51-271.73 6.57-57.5 24.75-111.33 51.62-162.78 8.59-16.45 31.85-41.18 2.64-54.15-30.79-13.68-41.07 15.65-50.47 39.72-39.88 102.13-53.51 207.51-39.84 316.21 4.72 37.5 8.9 70.66-43.34 79.5-24.93 4.22-40.77 13.73-64.2-11.53-125.77-135.67-123.21-360.52 9.12-490.65 7.37-7.24 13.1-16.13 19.48-24.1-17.45-29.32-38.3-15.72-53.82-4-59.41 45.06-97.67 102.9-103.65 179.8-6.35 81.66-2.56 163.36 1.9 249-121-83.86-181.64-209.13-147.1-328.19C110.48 512.43 260 416.9 466.81 383.86c-9.05 39.61-55.16 63.29-35.38 112 85.14-55.74 125-144.61 190.77-227.81 9.73 86.72-34.73 148.26-44.27 218.77 86.66 11.29 51-78.66 96.86-106.82 37.51 22.92 65.46 60.66 92.69 95.58C831.28 557.45 918.1 618 973.89 707.14c81.2 129.8 72.44 282.16-25.61 399.07-16.58 19.79-35.35 34.93-58.41 45.79z" fill="#360" data-name="‘ëîé_4"></path></g></g></svg>