<svg xmlns="http://www.w3.org/2000/svg" viewBox="-0.04732382297515869 0 1080.04736328125 682.95458984375" style=""><g><title>food02_8093690</title><g data-name="Layer 2"><g data-name="¹Ï¼h 1"><path d="M899.06 0l-.74 5.06L877 150.76 47.77 335.69 30.69 204s12.06-18.09 44.22-29.15 491.48-103.52 591-129.65S892 0 899.06 0z" fill="#c6c6c6"></path><path d="M899.06 0s27.65 2 59.31 33.66 122.87 127.39 121.36 147.75-19.6 118.34-19.6 118.34-127.39-1.5-143.22-58.75S877 150.76 877 150.76z" fill="#fce7e8"></path><path d="M987 260.56s3-48.25-24.12-92.72-79.9-98-104.78-92-32.4 16.74-32.4 16.74l102.51 182.3z" fill="#e2bd66"></path><path d="M950.07 259.05s0-54.28-24.12-96.49-117.59-111.75-155.28-41.18 55 207 55 207z" fill="#f8d477"></path><path d="M825.7 299.75s19.6-120.6-46-174.88-126.64-3.49-126.64-3.49l103.29 221.34z" fill="#e2bd66"></path><path d="M773.68 321.61s14.8-98-32.93-161.31-158.53-68.11-171.35 7.54S706.6 348 773.68 321.61z" fill="#f8d477"></path><path d="M454.2 92.58S561.36 160.81 588.5 193s133.68 123.6 133.68 123.6l-4 46.23L429.7 149.76s-3.92-51.11 24.5-57.18z" fill="#dadada"></path><path d="M416.38 157.29s6.6-34.8 15.36-35.87 51.73 26.07 85.65 57.73 170.74 132.38 174.88 150S559.61 440 538.5 395.49s-43-49-44.48-51.26-77.64-186.94-77.64-186.94z" fill="#fce7e8"></path><path d="M522.67 397s11.8-118.42-45.23-187.21-125.52-59-129.47-34.64 129.47 232.24 129.47 232.24z" fill="#e2bd66"></path><path d="M475.93 388s21-107-64.07-187.7-121.36-3.77-121.36-3.77l85.18 233.68z" fill="#f8d477"></path><path d="M389.25 416.59s41.46-115-65.58-197.73-116.84-14.09-116.84-14.09L348 430.16z" fill="#e2bd66"></path><path d="M335.73 449.76S375.37 338.53 302 259.05s-160.74-91.21-173.56 26.38 207.29 164.33 207.29 164.33z" fill="#f8d477"></path><path d="M336.2 426.39S406 400 481.69 386.44s202.7-49.81 264.18-70.58 117.47-35.7 150.43-45.5 163.45-37.69 183.7-89c0 0-35.24 248.75-52.5 278.9s-60.72 48.25-96.72 57.29S659.37 584.69 606.13 602 299 687.73 283.71 682.69c0 0-1.17-86.97 52.49-256.3z" fill="#fdf5e2"></path><path d="M30.69 204s38.94 40.84 75.13 60.37S255.07 379.66 277.68 394 332 426.39 332 426.39s-42.22 256.3-52.77 256.3-105.53-46-131.91-71.62S7.07 487.45 1 461.07 16.62 201.78 30.69 204z" fill="#f5ead6"></path><path d="M62.1 304.11S38.73 420.36 44.76 449.76s11.31 10.55 12.06-6.41 3.77-42.35 11.31-80.52 2.35-88.98-6.03-58.72z" fill="#e4d7c4"></path><path d="M111.85 335.69c-.41 4-3 36.43-12.82 61.3s-19.6 88.95-11.3 94.23 14.32-25.63 15.82-47.87 20.36-66.71 21.11-90.83-11.32-31.61-12.81-16.83z" fill="#e4d7c4"></path><path d="M166 383.43a445.78 445.78 0 0 0-15 70.1c-4.52 36.94-11.3 70.1 0 73.12s7.3-32.42 15-71.65 15.67-96.45 0-71.57z" fill="#e4d7c4"></path><path d="M211.35 423.38s-30.91 98.75-22.62 118.34 7.54-10.55 14.33-33.16 15.07-57.29 18.09-68.6-.48-48.78-9.8-16.58z" fill="#e4d7c4"></path><path d="M264.87 449.76s-13.57 5.24-23.37 58.8-20.35 86.68-12.06 96.44 14.32-21.27 21.11-57 3.77-50 14.32-74.92 7.13-31.14 0-23.32z" fill="#e4d7c4"></path><path d="M1061.77 298c10.11-61.47 18-116.55 18-116.55-20.35 51.26-151.55 79.15-184.68 89s-89.43 24.72-151.23 45.5-189.49 57-265.59 70.58S332 426.39 332 426.39c-13.69 43-23.81 80.55-31.31 112.84 6.86 1.12 13.1.86 17.74-1.27 18.09-8.3 55-53.83 123.62-46.14s89 1.5 139.46-26.69 72.36-60.9 124.37-57.74S767.65 409 815.14 380s65.68-46.83 91.26-44.32 52 2.51 90.41-19.35c24.77-14.08 46.06-16.85 64.96-18.33z" fill="#f6cfd1"></path><path d="M277.68 394C255.07 379.66 142 283.92 105.82 264.4S30.69 204 30.69 204c-8.43-1.34-19.55 81.61-25.83 154.06 6.37 5.28 15.22 10.05 25.83 8.75 20.73-2.52 60.73 19.7 74 43.77s44.13 52.55 64.49 54.52S239.91 481.42 249 504c8.2 20.37 43.19 38.22 63.3 35.53C323 480.85 332 426.39 332 426.39S300.3 408.3 277.68 394z" fill="#eac0c3"></path><path d="M899.08 525.2C938 483.69 1010 408.07 1048.33 374.66c2.86-15.12 5.72-31.15 8.5-47.31l-247 220.1c34.56-8.68 66.41-16.59 89.25-22.25z" fill="#f6cfd1"></path><path d="M918.41 418.1s-15.82 35.43 12.82 53.52 49 5.28 64.83-9.8 13.57-47.49 0-62.56-62.57-12.82-77.65 18.84z" fill="#ca797d"></path><path d="M212.86 280.91c0 3.33-1.82 6-4.05 6s-4.05-2.7-4.05-6 1.81-6 4.05-6 4.05 2.67 4.05 6z" fill="#634e42"></path><path d="M257.33 269.64c0 2.9-1.86 5.24-4.17 5.24s-4.17-2.34-4.17-5.24 1.87-5.24 4.17-5.24 4.17 2.34 4.17 5.24z" fill="#634e42"></path><path d="M271.53 325.38c0 3.34-3.17 6-7.09 6s-7.11-2.69-7.11-6 3.18-6 7.11-6 7.09 2.67 7.09 6z" fill="#634e42"></path><path d="M416.38 269.64c0 2.9-1.86 5.24-4.14 5.24s-4.15-2.34-4.15-5.24 1.86-5.24 4.15-5.24 4.14 2.34 4.14 5.24z" fill="#634e42"></path><path d="M420.91 325.38c0 3.34-2 6-4.34 6s-4.33-2.69-4.33-6 1.94-6 4.33-6 4.34 2.67 4.34 6z" fill="#634e42"></path><path d="M647.8 194.72a3.78 3.78 0 1 1-3.77-3.51 3.65 3.65 0 0 1 3.77 3.51z" fill="#634e42"></path><path d="M704.34 173c0 2.82-1.87 5.11-4.15 5.11S696 175.78 696 173s1.86-5.12 4.15-5.12 4.19 2.25 4.19 5.12z" fill="#634e42"></path><path d="M684 207.73a4.17 4.17 0 1 1-4.14-3.71 3.95 3.95 0 0 1 4.14 3.71z" fill="#634e42"></path><ellipse cx="687" cy="246.23" rx="3.02" ry="4.52" fill="#634e42"></ellipse><path d="M722.18 230.93c0 1.79-2.31 3.24-5.15 3.24s-5.16-1.45-5.16-3.24 2.31-3.23 5.16-3.23 5.15 1.46 5.15 3.23z" fill="#634e42"></path><path d="M873.19 207.73a3.77 3.77 0 1 1-3.77-3.71 3.74 3.74 0 0 1 3.77 3.71z" fill="#634e42"></path><path d="M868.29 236.43a2.67 2.67 0 1 1-2.64-2.26 2.48 2.48 0 0 1 2.64 2.26z" fill="#634e42"></path><path d="M846.05 178.07a4.15 4.15 0 1 1-4.15-4.38 4.27 4.27 0 0 1 4.15 4.38z" fill="#634e42"></path><path d="M747.68 419s34.25-1.72 37.67-22-10.91-52.36-27.49-52-37.44 16.91-35.68 35c0 0-31.41-38.8-46.49-23.72s-15.08 48.24 0 57.29 36.18 0 36.18 0-15.87 61.07-36.18 71.62l23.37-4.7s20.73-34.88 25.25-56.36c0 0 3.39-10.93 7.16 3.39s19.22 48.62 52.39 43.35c0 0 4.52-8.29 14.32-9.43 0 0-39.95.29-50.5-42.44zM696 399.63c-18.09 2.26-17-31.28-8.66-34.67s29.66 30.9 29.66 30.9-2.87 1.51-21 3.77zm32.79-1.88s3.77-26.88 16.21-34.92 18.85 7.4 20.73 19.09-5.61 16.58-36.9 15.83z" fill="#bc661f"></path></g></g></g></svg>