<svg xmlns="http://www.w3.org/2000/svg" viewBox="-0.00201416015625 0.0017547607421875 1079.999755859375 948.5093383789062" style=""><g><defs><clipPath id="a"><path d="M1062.44 300.12c-17.5-40.84-47.13-71.32-83.91-93.59q.06-6.21-.28-12.47C970 44.69 766.51-39.25 640.36 18.21a137.38 137.38 0 0 0-30.29 19.09c-24.62-10.63-50.7-18.24-77.61-23.79C402.6-13.27 298.35 64.35 242.89 178.9A399 399 0 0 0 220 237.43c-3.19.13-6.37.3-9.55.57-230.7 19.36-256.13 370.26-151.58 521.53 29 41.93 70.25 73.59 120.34 85.38A365.55 365.55 0 0 0 226 852.3c7.73 21.3 19.22 40.85 36.75 55.53 58.49 49 154.55 45.68 218.45 9.07a186.47 186.47 0 0 0 27.85-19.64l4.53 1c66.85 15.32 121.52 30 191.27 18.24 104.57-17.5 203.42-76.81 241.8-179.71 24.36-9.56 45.48-35.66 59.65-53.61 27.12-34.36 49.89-72.74 61.5-115.23a191.77 191.77 0 0 0-.33-102.72c1.69-5.53 3.22-11 4.58-16.27 12.75-49.35 10.59-101.72-9.61-148.84z" fill="#fd333d"></path></clipPath></defs><title>vegetable08_365854954</title><g data-name="Layer 2"><g data-name="Layer 1"><path d="M1062.44 300.12c-17.5-40.84-47.13-71.32-83.91-93.59q.06-6.21-.28-12.47C970 44.69 766.51-39.25 640.36 18.21a137.38 137.38 0 0 0-30.29 19.09c-24.62-10.63-50.7-18.24-77.61-23.79C402.6-13.27 298.35 64.35 242.89 178.9A399 399 0 0 0 220 237.43c-3.19.13-6.37.3-9.55.57-230.7 19.36-256.13 370.26-151.58 521.53 29 41.93 70.25 73.59 120.34 85.38A365.55 365.55 0 0 0 226 852.3c7.73 21.3 19.22 40.85 36.75 55.53 58.49 49 154.55 45.68 218.45 9.07a186.47 186.47 0 0 0 27.85-19.64l4.53 1c66.85 15.32 121.52 30 191.27 18.24 104.57-17.5 203.42-76.81 241.8-179.71 24.36-9.56 45.48-35.66 59.65-53.61 27.12-34.36 49.89-72.74 61.5-115.23a191.77 191.77 0 0 0-.33-102.72c1.69-5.53 3.22-11 4.58-16.27 12.75-49.35 10.59-101.72-9.61-148.84z" fill="#fd333d"></path><g clip-path="url(#a)" fill="#3055a6"><path d="M846.53 327.11c-44.16-60.51-116-92.25-190.29-90.74-64.49 1.3-130.57 26.7-174.9 74.36-18-17.61-44.55-27.45-67.15-36.6C386.7 263 356.31 249.35 326 255.24c-10.59 2.06-6.21 18.25 4.34 16.2 26.58-5.17 55.4 9.14 79.4 18.86 20.42 8.27 44.42 17.28 60.6 33.24-26.16 33.33-40.56 73.42-42.72 115.68-.55 10.8 16.22 10.87 16.77.13 3.52-69.07 44.42-127.46 105.1-159.23 58.66-30.71 130.8-35.89 192.87-12.53a197.65 197.65 0 0 1 89.69 68c6.31 8.63 20.85.25 14.48-8.48z"></path><path d="M188.61 659.39c2.91 77.66 6.8 155.7 26.85 231.17 2.77 10.43 19 6.11 16.19-4.34-19.67-74.06-23.41-150.49-26.27-226.7-.38-10.77-17.17-10.92-16.77-.13z"></path><path d="M494.19 760.42c-3.43-10.17-19.65-5.91-16.19 4.33 9.56 28.33 8.29 58.53 12.83 87.78 4.75 30.53 15.17 60.25 23.18 90 2.81 10.42 19 6.1 16.2-4.33-8-29.78-18.43-59.5-23.18-90-4.55-29.3-3.25-59.38-12.84-87.78z"></path><path d="M901.67 480.12c21.45 81.68 30.1 166.67 28.3 251q-.76 35.65-4.24 71.15c-1.06 10.76 15.72 10.79 16.77.13a963.18 963.18 0 0 0-9.29-255.57q-6.13-35.85-15.34-71.07c-2.74-10.41-18.94-6.09-16.2 4.36z"></path><path d="M1032.69 216.61C991 191.15 946 171.84 903.64 147.54c-33.79-19.4-83.36-34.53-112.72.52-6.88 8.21 5 20.09 11.92 11.79 28-33.39 73.48-8.2 103.32 8.43 39 21.7 80 39.56 118.14 62.85 9.22 5.64 17.6-8.89 8.39-14.52z"></path></g><path d="M655.24 42.22C637.39 71 618.32 99.13 602 128.88c-7.5 13.67-15.06 27.35-21.4 41.61-5.24 11.79-8.78 24.71-12.46 36.73-6.48-23.14-7-47.58-13.69-70.74-9.9-34.33-28.39-65.55-37.34-100.19-3.1-12-21.11-8.47-21.05 3.43.24 53.72 10.54 106.72 22.53 159.28 1.35 5.91 3.49 12.38 4.07 18.12-.8-7.89-21-17-26.61-21.65-10.83-9.14-21.65-18.3-32.62-27.29-26-21.31-52.87-43.14-82.7-58.87-13-6.87-19.15 10.62-10.32 18.87 29 27.06 49.54 61.77 75.79 91.28C466.25 242 487.82 265 511.26 284.1c38.57-27 71.76-37.74 109.71-44.73 17.14-38.69 28.41-78.68 39.39-119.31a604.26 604.26 0 0 0 14.85-70.29c1.79-12.05-13.35-18.24-19.97-7.55z" fill="#ffb9c9"></path></g></g></g></svg>