<svg xmlns="http://www.w3.org/2000/svg" width="1080" height="428.13" viewBox="0 0 1080 428.16998291015625" style=""><g><title>pastel_shape</title><g data-name="Layer 2"><path d="M991.69 47.17c-15.77 21.47-27.77 48.7-39.38 75-10.52 23.86-21.39 48.52-33.74 65.32-10 13.58-17 16.65-18.63 16.65s-8.65-3.06-18.63-16.65c-12.35-16.8-23.22-41.46-33.73-65.32-11.58-26.3-23.58-53.54-39.36-75C785.21 15.86 755.51 0 720 0s-65.3 15.86-88.3 47.17c-15.77 21.47-27.78 48.7-39.39 75-10.51 23.86-21.4 48.52-33.73 65.32-10 13.58-17 16.65-18.63 16.65s-8.64-3.06-18.63-16.65c-12.34-16.8-23.22-41.46-33.73-65.32-11.59-26.3-23.59-53.53-39.39-75C425.23 15.86 395.54 0 360 0s-65.25 15.86-88.25 47.17C256 68.64 244 95.87 232.34 122.2c-10.52 23.86-21.39 48.52-33.74 65.32-10 13.58-16.95 16.65-18.63 16.65s-8.64-3.06-18.63-16.65c-12.3-16.81-23.19-41.47-33.7-65.32C116 95.87 104 68.63 88.25 47.16 65.26 15.86 35.56 0 0 0v224c1.66 0 8.64 3 18.63 16.64 12.37 16.77 23.22 41.43 33.73 65.28C64 332.25 76 359.48 91.75 381c23 31.31 52.68 47.17 88.25 47.17s65.25-15.86 88.25-47.17c15.77-21.48 27.78-48.71 39.38-75 10.52-23.85 21.39-48.51 33.73-65.32C351.34 227 358.33 224 360 224s8.65 3 18.63 16.64c12.35 16.81 23.22 41.47 33.74 65.32C424 332.25 436 359.48 451.75 381c23 31.31 52.68 47.17 88.25 47.17s65.25-15.86 88.24-47.17c15.78-21.48 27.78-48.71 39.39-75 10.51-23.85 21.41-48.51 33.73-65.32C711.34 227 718.32 224 720 224s8.65 3 18.63 16.64c12.35 16.81 23.22 41.47 33.74 65.32C784 332.25 796 359.48 811.74 381c23 31.31 52.69 47.17 88.25 47.17s65.27-15.86 88.26-47.17c15.78-21.48 27.78-48.71 39.38-75 10.52-23.85 21.41-48.51 33.74-65.32 10-13.58 17-16.64 18.63-16.64V0c-35.62 0-65.31 15.86-88.31 47.17z" fill="#c8d89c" data-name="Layer 1"></path></g></g></svg>