<svg xmlns="http://www.w3.org/2000/svg" width="1080" height="1037.2" viewBox="0.03188979625701904 -0.00084324722411111 1079.927734375 1037.1878662109375" style=""><g><g data-name="Слой 2"><g data-name="Zodiac210_454216634" fill="#c7a07c" fill-rule="evenodd"><path d="M671.9 330.3c-8.6-3.5-24.1-4.5-36.1-4.4a119 119 0 0 0-2.8-11.8c-4.3-14.1-20.6-48.1-60.4-51.8-42.1-4-62.3 13.4-75 26.4-9.9 10.2-16.3 23.4-19.4 37.8-6.1.5-15.4 1.4-20.2 2.1-22.7 3.2-32.7 12.4-30.5 26.3 1.3 9 9.7 14.5 21.1 17.2 9.3 2.2 20.8 2.6 30.6 2.7a89.5 89.5 0 0 0 3.4 11.5c9.6 26.5 32.4 41.1 57.4 45s51.6-2.7 69.4-18.5c12.3-10.9 20.4-24.9 24.7-40.3 8.2-.4 16.9-1 24.6-2.6 9.9-2.1 17.9-6.1 21.8-12.7 2.3-3.8 3-9.4 1.7-14.5a18 18 0 0 0-10.3-12.4zm-168.2-35.7c11.5-11.8 29.9-27.4 68.1-23.9 35 3.3 49.3 33.5 53 45.8a98.5 98.5 0 0 1 2.5 47.8l-9.7.5c-41.3 3.2-83 3.4-124.3 1.8l-7.2-.2c-4.8-26.1.3-54.1 17.6-71.8zm-53.2 69.2a31.6 31.6 0 0 1-10.5-4.2 8.7 8.7 0 0 1-4.1-6c-.8-5.2 1.5-9 6.4-11.7s9.8-3.9 16.9-4.9l17.5-1.8a111.9 111.9 0 0 0 .7 31.1c-8.8-.1-18.7-.6-26.9-2.5zm153.3 42.6c-16.1 14.2-40.2 20-62.5 16.5s-42.2-16.2-50.7-39.5c-1-2.8-1.9-5.6-2.6-8.4h5c41.6 1.6 83.7 1.4 125.2-1.8l6.9-.4a73.3 73.3 0 0 1-21.3 33.6zm69.4-53.5c-2.9 4.8-9.1 7.1-16.3 8.7a139.3 139.3 0 0 1-20.8 2.3 107.6 107.6 0 0 0 1-29.5c10.6 0 24 .7 31.5 3.8a9.3 9.3 0 0 1 5.3 6.6 11.1 11.1 0 0 1-.7 8.1z"></path><path d="M462.2 297.9c7.8-2.8 11.8-9.4 11.7-17.3-.1-3.2-1-11.7-10-15.4s-14.2-1.6-17.7 0c-7 3.1-11.3 12.3-9.5 20.1 2.7 11.6 15.4 16.3 25.5 12.6zM449.7 273c2.2-1 5.4-2.2 10.9.1a7.8 7.8 0 0 1 4.8 7.6 9.1 9.1 0 0 1-6.1 9.2c-5.6 2-12.8-.1-14.3-6.5-.9-4 1.1-8.8 4.7-10.4z"></path><path d="M627.2 251.8a17.2 17.2 0 0 0 11.7-17.3c0-3.2-1-11.7-10-15.5s-14.1-1.5-17.7.1c-7 3.1-11.3 12.2-9.5 20.1 2.7 11.5 15.4 16.2 25.5 12.6zm-12.5-24.9c2.2-1 5.5-2.3 11 0a7.9 7.9 0 0 1 4.7 7.7 9.1 9.1 0 0 1-6.1 9.2c-5.6 2-12.8-.2-14.3-6.6-.9-4 1.1-8.7 4.7-10.3z"></path><path d="M477.7 215.2a13.2 13.2 0 0 0 8.6-13c0-2.5-.7-8.9-7.3-11.7s-10.3-1-12.9.2c-5 2.4-8.3 9.2-7 15.1 1.8 8.8 11.1 12.3 18.6 9.4zm-7.9-16.8a6.4 6.4 0 0 1 5.9-.1c2.1.9 2.1 3.1 2.1 3.9a5.1 5.1 0 0 1-3.2 5.1c-2.8 1.1-6.5.1-7.2-3.2s.5-4.8 2.4-5.7z"></path><path d="M676.5 279.6c-6.4-2.7-10.3-1-12.9.2-5.1 2.4-8.3 9.3-7.1 15.1 1.9 8.9 11.2 12.3 18.6 9.5a13.5 13.5 0 0 0 8.7-13.1c0-2.4-.7-8.9-7.3-11.7zm-4.5 16.8c-2.8 1.1-6.4.1-7.1-3.2s.5-4.8 2.4-5.7a6.5 6.5 0 0 1 5.9 0 3.8 3.8 0 0 1 2.1 3.8 5.1 5.1 0 0 1-3.3 5.1z"></path><path d="M633.5 436.8c-6.4-2.7-10.3-1.1-12.9.2-5.1 2.4-8.3 9.2-7.1 15.1 1.9 8.8 11.2 12.3 18.6 9.4 5.7-2.2 8.7-7.1 8.7-13.1 0-2.4-.7-8.8-7.3-11.6zm-4.5 16.8c-2.8 1.1-6.4.1-7.1-3.3a5.1 5.1 0 0 1 2.4-5.6 6.4 6.4 0 0 1 5.9-.1c2.1.9 2.1 3.1 2.1 3.9a5.2 5.2 0 0 1-3.3 5.1z"></path><path d="M551.6 232.9a13.2 13.2 0 0 0 8.6-13.1c0-2.4-.7-8.9-7.3-11.6s-10.3-1.1-12.9.2c-5 2.4-8.3 9.2-7 15.1 1.8 8.8 11.1 12.3 18.6 9.4zm-7.9-16.8a6.4 6.4 0 0 1 5.9-.1c2.1.9 2.1 3.1 2.1 3.9a5 5 0 0 1-3.2 5c-2.8 1.1-6.5.2-7.2-3.2s.5-4.8 2.4-5.6z"></path><path d="M560.4 454.8c-6.4-2.7-10.3-1.1-12.9.2-5.1 2.4-8.3 9.2-7.1 15.1 1.9 8.8 11.2 12.3 18.6 9.4 5.7-2.2 8.7-7.1 8.7-13.1 0-2.4-.7-8.9-7.3-11.6zm-4.5 16.7c-2.8 1.1-6.4.2-7.1-3.2s.5-4.8 2.4-5.6a6.4 6.4 0 0 1 5.9-.1c2.1.9 2.1 3.1 2.1 3.9a5.1 5.1 0 0 1-3.3 5z"></path><path d="M595.8 176.8z"></path><path d="M595.7 176.9a9.5 9.5 0 0 0 1.5-1.8 4.8 4.8 0 0 0 .2-2.3 3.9 3.9 0 0 0-2.4-3.2 4.5 4.5 0 0 0-5.2 6.9 4.3 4.3 0 0 0 5.9.4zm-4.5.2a3.8 3.8 0 0 1-2-2.5 4.4 4.4 0 0 0 2 2.5z"></path><path d="M496.6 251.5h-.4l.6-.3h-.2z"></path><path d="M496.2 251.7h.1l.3-.2h.1l.2-.2h-.1a4.2 4.2 0 0 0 1.6-5.3 4.3 4.3 0 0 0-5.6-2.2c-1 .5-.6.2-1.2.8a4.2 4.2 0 0 0 4.6 7z"></path><path d="M683.5 241.7l-.8-.2a4.3 4.3 0 0 0-1.2 8.5h.4a4.3 4.3 0 0 0 5-3.5 4.2 4.2 0 0 0-3.4-4.8z"></path><path d="M504.1 447.1h-.1a4.3 4.3 0 0 0-1.9 5.8 4.2 4.2 0 0 0 5.7 1.8h.1a4.2 4.2 0 1 0-3.8-7.6z"></path><path d="M600.4 480.1l-.3.2a4.3 4.3 0 0 0 4.4 7.3l.8-.5a4.3 4.3 0 0 0-4.9-7z"></path><path d="M656.6 412.5a4.3 4.3 0 0 0-6.3 5.7c.1 0 2.4 1.8 3.2 1.9a4.1 4.1 0 0 0 3.9-1.8 4.2 4.2 0 0 0-.8-5.8z"></path><path d="M1078.3 482.1c-4.6-20.2-19.8-41-55.1-59.4-53.8-28.2-142.4-80.3-177.3-97.2-28.2-13.6-50.4-14.6-68.6-7.2-12.4 5.1-23.1 14.1-32.5 26 4.3-63.5 8-125 9.3-167.4.4-12.6 2.2-35 2.6-56.7s2.7-55.9-16.6-79.9c-13-16.2-35.7-28.4-75.4-29.7C604 8.6 501.5.1 462.8 0c-31.4-.1-51.8 8.7-65 23.3s-19.2 35-21.3 59.3c-4.4 49.4-9.6 119.8-14.4 191.3-3.4-5.5-7-11.1-10.6-16.7-12.3-18.7-29.5-47.6-59-56.5-19.8-6-45.4-3.3-79 18.1C162.3 251.5 73 302.4 41 324.2 15.2 341.9 3.2 360.6.6 380.1s3.9 39.8 15.9 61C76.5 547.6 204 761.5 246 829.5c10.7 17.4 22.6 39.4 37.5 57.2 10.3 12.3 22 22.5 35.6 28.3s29.9 4.9 44.7.1 27.6-12.3 39.6-19.3c18.4-10.8 42.5-25.3 68.3-41 .1 2 .2 4.1.5 6.1 1.9 15.8 10.6 28.4 22.1 38.8s24.5 17.9 36.5 24.8c42.9 24.5 118.2 65.2 174 96.6 28.2 15.9 48.9 18.5 64.8 14.3 23.8-6.5 37.3-28.9 48.9-48.9 16-27.4 157.3-267.6 213.2-375.2 5.8-11.2 17.2-30.6 27-49.9s26.6-49.3 19.6-79.3zM385 83.3c1.9-22.2 7.1-41.1 19.1-54.3s30.5-20.5 58.6-20.5c38.8.1 141.1 8.6 201.7 10.6 36.3 1.2 57.2 11.8 69 26.5 18 22.3 15.2 53.7 14.8 74.5s-2.2 43.9-2.6 56.5c-1.4 45.5-5.5 112.9-10.3 181.1-1 1.6-2 3.2-2.9 4.8-4.8 8.1-10 16.8-15.4 26.1 5.3-75.4 10.6-154.5 12.8-203.2a8.9 8.9 0 0 0 3.1-1.4c4.3-2.9 7.3-7.9 5.9-13.7a14 14 0 0 0-7.5-9.1c.6-7.5 1.1-15.8 1.5-24.2 2.2-1.8 5.9-5.2 9.5-8a4.2 4.2 0 0 0-5.2-6.7l-3.9 3.1c.6-15.3 1.1-34.6-5.9-51.5 2.9-3 4.6-7.1 3.4-11.6-1.6-6.8-8.5-12-15.7-10l-2.2.8c-8-7.1-19.1-12.8-34.3-15.9 2.7-2.3 5.5-4.5 5.7-4.8a4.2 4.2 0 1 0-5.8-6.2c-.5.5-7.8 6.2-10.8 8.9l-.4.3c-4.3-.4-9-.7-14-.8l-4.9-.2c-2.2-6.1-8.6-10.5-15.4-8.7a14.3 14.3 0 0 0-9 7.7c-33.6-2-72.6-5.5-103.6-7.7-2.7-5.1-8.5-8.4-14.5-6.8a14.5 14.5 0 0 0-7.8 5.5c-7-.4-13.1-.5-18.1-.5s-7.1.3-10.4.6c-2.1-2.1-5.6-5.2-8.5-8.3a4.2 4.2 0 0 0-6-.1 4.3 4.3 0 0 0-.2 6l3.9 3.9c-14.8 2.9-26 8.8-34.4 17a11.7 11.7 0 0 0-6.7-.2c-4 1.1-9.1 4.8-9.8 10.8a12 12 0 0 0 2.8 9.3c-4.6 10.3-7.3 22.2-8.7 35.4-.3 2.9-.6 6-.9 9.1l-4.5-4.5a4.4 4.4 0 0 0-6 .4 4.2 4.2 0 0 0 .4 6c.5.5 5.9 6.2 9.1 9.2-.4 5.3-.9 10.8-1.4 16.5-3.6 1.6-7.4 5-8 10.1-.3 2.8.1 8.2 6.1 12.3h.2c-3.5 46.3-6.9 102-10 156.6l-5.6-8.7c-3.1-4.8-7-11.4-11.6-18.9 5.2-75.4 10.7-150.9 15.3-203.1zm191.3 551.8c-42.4-74-127.9-222.3-181.6-308.5 3.2-57.7 6.8-117.5 10.5-166.8a10.6 10.6 0 0 0 5.1-1.8c4.3-2.9 7.3-7.9 5.8-13.7a13.8 13.8 0 0 0-8.9-9.7q.6-7.5 1.2-14.4l.4-.3c2.1-1.6 6.5-6 10.7-9.5a4.2 4.2 0 1 0-5.4-6.5c-1.5 1.1-3 2.5-4.5 3.8.2-2.9.5-5.8.8-8.6 1.2-11.6 3.4-22.2 7.3-31.3a11.6 11.6 0 0 0 9.7-1.3c4.3-3 7.4-7.9 5.9-13.7a12.8 12.8 0 0 0-2.1-4.6c6.9-6.3 15.7-10.9 27.1-13.4l-3.5 4.1a4.3 4.3 0 0 0 .9 6 4.2 4.2 0 0 0 5.9-.9c.5-.5 6.6-7.2 9-10.4l.5-.7a85.7 85.7 0 0 1 8.9-.4c4.5-.1 9.9 0 16 .3a13 13 0 0 0 6.1 9.1c5.6 3.8 10.8 2.5 13.6.6a14.1 14.1 0 0 0 5.9-8.2c30.7 2.2 69 5.7 102.1 7.6a14.1 14.1 0 0 0 5.5 6.9c5.6 3.8 10.8 2.5 13.6.6a14.1 14.1 0 0 0 5.3-6.5l5 .2c4.8.1 9.4.4 13.6.8 1.8 2.5 5.1 6.7 7.8 10.7a4.3 4.3 0 0 0 5.9 1.1 4.2 4.2 0 0 0 1.2-5.9l-2.7-3.8c12 2.7 20.9 7.2 27.6 13a12.5 12.5 0 0 0-1.3 4c-.3 2.9.1 8.2 6.1 12.4a12.8 12.8 0 0 0 8.5 2.3c6.3 15.5 5.6 33.4 4.9 47.5-2.1-2.3-4.1-4.4-4.4-4.6a4.2 4.2 0 0 0-6 .3 4.3 4.3 0 0 0 .2 6c.6.5 6.6 7.2 9.5 9.9l.3.2c-.4 8.1-.9 16.2-1.4 23.4-4 1.2-9 4.8-9.7 10.7-.3 2.8.1 8.2 6.2 12.3a8.2 8.2 0 0 0 2 1.2c-2.5 52.3-8.4 140.1-14.2 220.7-38.9 66.9-89.3 155.7-130.9 229.8zM399.1 888.4c-11.5 6.8-24.5 14.2-38 18.6s-26 5.5-38.7.1c-15.6-6.5-28.3-19.8-39.3-34.8s-21.1-33-29.9-47.3C211.3 757.1 83.9 543.3 23.9 436.9 13 417.5 6.6 399 9 381.3s13.5-34.1 36.8-50c32-21.9 121.1-72.7 172.3-105.3 30.7-19.5 53.9-22.7 72-17.2 27.4 8.3 42.8 35.7 54.2 53.1s23.1 37.5 29.9 48.1c52.6 82.2 152.3 255.3 197.3 333.7-3 5.5-6 10.8-8.9 16-1.8-3.1-3.9-6.6-6.1-10.5l1-1.9c1.9-4.9 1.5-10.7-2.9-14.6a14.4 14.4 0 0 0-9.6-3.5c-44.9-77.7-134.2-230.8-178.9-303a13.5 13.5 0 0 0 1.8-2.9c1.9-4.9 1.5-10.7-2.9-14.6a14.3 14.3 0 0 0-11.3-3.4c-3.8-6.4-8.1-13.6-12.5-20.7.8-2.7 2-7.7 3.3-12a4.3 4.3 0 1 0-8.1-2.6c-.5 1.5-.9 3.1-1.4 4.7-8.1-12.9-18.7-29.1-34-39.1a11.9 11.9 0 0 0-3.8-11.5c-5.1-4.6-13.7-5-18.6.6l-1.3 2c-10.7-1.4-23 .2-37.3 6.2 1-3.4 1.9-6.8 2-7.1a4.3 4.3 0 0 0-3.3-5.1 4.3 4.3 0 0 0-5 3.3c-.2.7-3 9.5-3.9 13.4 0 .2-.1.3-.1.5-3.9 2-7.9 4.4-12.1 7.1l-4.1 2.8c-5.3-3.8-13.1-3.9-17.6 1.4a14 14 0 0 0-3.1 11.4C164 278 129.7 297.2 103 312.9c-5.1-2.6-11.8-2.2-15.8 2.6a13.7 13.7 0 0 0-3.3 8.9c-6 3.7-11.2 7-15.3 9.9s-5.6 4.2-8.2 6.3c-2.9-.5-7.5-1.1-11.7-2a4.2 4.2 0 0 0-5 3.3 4.2 4.2 0 0 0 3.3 5l5.4 1.1c-10.6 10.7-16.5 21.9-18.8 33.4a13.1 13.1 0 0 0-5.7 3.7c-2.6 3.1-4.8 9-2 14.4a12.6 12.6 0 0 0 7.6 6.1c2 11.1 6.5 22.5 12.9 34.1l4.4 8-6.3-1.1a4.3 4.3 0 0 0-4.7 3.7 4.1 4.1 0 0 0 3.7 4.7c.7.1 8.4 1.8 12.8 2.5l8.1 14.3c-2.1 3.3-3.3 8.3-.9 12.9 1.3 2.5 4.7 6.8 12 6.7h.2c57.7 99.6 148.8 246.9 184.8 306.4-2.5 3.3-4.2 8.8-1.6 13.8 1.4 2.5 4.7 6.8 12 6.7h1.8c2 3.4 4.1 6.8 6.3 10.3-.8 2.9-1.7 8.2-2.9 12.9a4.2 4.2 0 0 0 8.2 2.2l1.2-5c9.6 14.3 20.7 27.9 33.7 37.1a12.3 12.3 0 0 0 1.3 6.4c1.3 2.5 4.7 6.7 12 6.7a12.8 12.8 0 0 0 8.7-3.1c21.4 4.4 42.5-6.1 61-17.3-.3 3.3-.6 6.3-.6 6.7a4.3 4.3 0 0 0 8.5.3c0-.6 1-8.3 1.4-12.6l10.8-6.6a14.1 14.1 0 0 0 7.7 2.1c6.8-.1 10.4-4.1 11.6-7.2a14.8 14.8 0 0 0 .9-7.5l34.4-21.5a107.8 107.8 0 0 0-4.8 22.5c-27.6 16.7-53.5 32.3-73 43.7zm82.7-79.4l-43.5 27.2c-5.2-4.3-13.5-4.6-18.3.9-2.2 2.7-4.2 7.5-2.9 12.2l-9.6 6h-.4c-2.4-.6-8.2-1.3-13.3-2.3a4.3 4.3 0 0 0-5.1 3.3 4.2 4.2 0 0 0 3.3 5l4.3.8c-15.7 9.4-33.3 18.6-51.3 15.7a11.9 11.9 0 0 0-3.9-10.7c-5.2-4.6-13.7-5-18.6.7-11.9-8.7-21.9-21.4-30.7-34.7l7.3 1.2a4.3 4.3 0 0 0 .9-8.5c-.8-.1-9.8-1.9-13.8-2.3h-.5c-1.9-2.9-3.6-5.9-5.4-8.8a14.5 14.5 0 0 0 2.2-3.3c1.8-4.9 1.5-10.7-3-14.6a13.9 13.9 0 0 0-11.8-3.3c-35.9-59.6-126.1-205.6-183.8-304.9a10.2 10.2 0 0 0 3.1-4.4c1.9-4.8 1.6-10.6-2.9-14.6a14.3 14.3 0 0 0-12.8-3l-7.2-12.5.2-.4c.8-2.5 1.9-8.6 3.4-14a4.1 4.1 0 0 0-2.9-5.2 4.3 4.3 0 0 0-5.3 2.9c-.5 1.8-1 3.8-1.5 5.8l-4.1-7.6c-5.6-10.3-9.8-20.3-11.7-30a11.8 11.8 0 0 0 7.3-6.6c1.8-4.8 1.5-10.6-3-14.6a13.4 13.4 0 0 0-4.3-2.6c2.1-9.1 6.9-17.8 14.8-26.4-.3 2.8-.5 5.1-.5 5.4a4.3 4.3 0 1 0 8.5.4c0-.7 1.2-9.7 1.5-13.7v-.9a81.9 81.9 0 0 1 7.1-5.3c3.6-2.6 8.2-5.6 13.4-8.8 1.9 2.1 5.1 4.1 10.2 4.1 6.7 0 10.3-4.1 11.5-7.2a14.1 14.1 0 0 0 .2-10.1c26.5-15.6 60.2-34.4 88.5-51.5a13.6 13.6 0 0 0 8.5 2.5c6.7 0 10.3-4 11.5-7.1a14.8 14.8 0 0 0 .8-8.3l4.1-2.7c4.1-2.7 8-5 11.8-7 2.8 1 7.9 2.6 12.4 4.3a4.3 4.3 0 0 0 5.6-2.4 4.4 4.4 0 0 0-2.4-5.5l-4.4-1.6c11.4-4.6 21.4-5.9 30.1-4.9a10.2 10.2 0 0 0 1.2 4c1.4 2.6 4.7 6.8 12 6.8a13.6 13.6 0 0 0 8.4-2.9c13.9 9.3 23.4 24.4 30.9 36.4l-6.3-1.3a4.3 4.3 0 0 0-4.8 3.6 4.2 4.2 0 0 0 3.6 4.8c.7.1 9.5 2.3 13.5 2.9h.3c4.3 6.9 8.4 13.8 12 20.1-2.6 3.2-4.6 9-1.8 14.3 1.3 2.5 4.7 6.7 12 6.7l2.3-.2c44.3 71.6 133.1 224 178.2 302l-.9 1c-2.7 3.2-4.9 9.1-2.1 14.5 1.4 2.5 4.7 6.7 12.1 6.7a13.4 13.4 0 0 0 3.5-.5l8.2 14.4c-20.3 36.4-37.3 67.1-47.8 86.5-8.7 16.1-20.1 34.8-28.1 54.1zm569.3-251.5c-9.8 19.3-21.1 38.7-26.9 49.9-55.9 107.4-197.1 347.4-213 374.8-10.6 18.2-22.2 39.1-43.8 44.9-14.4 3.9-33 .9-58.4-13.4-55.8-31.4-131.1-72.1-173.9-96.6-11.6-6.6-24.5-14.2-35-23.7s-17.8-19.8-19.5-33.5c-2-16.8 3.1-34.4 10.6-51.4s18.1-34.7 26.2-49.5c38-70.2 159.9-287.1 222.3-392.1 11.4-19.2 24.2-33.9 40.8-40.7s36.3-5.2 61.7 7c34.8 16.9 123.3 68.9 177.1 97 32.2 16.8 46.5 35.4 50.7 53.8 6.5 27.9-9.6 54.9-18.9 73.5z"></path><path d="M418.9 516.1c-3.7-1.3-7.3-2.5-10.9-3.5 3.3-8 11-27.5 13.5-34.2a4.4 4.4 0 0 0-2.5-5.5 4.3 4.3 0 0 0-5.5 2.5c-2.6 7-10.9 28.2-13.9 34.9-5.6-1.3-11.1-2.5-16.5-3.3 3.6-13.1 14.7-53.4 18.3-66.7a4.3 4.3 0 1 0-8.2-2.3c-3.7 13.7-15.4 56.3-18.7 67.9a141 141 0 0 0-17-.8c1.8-16.4 5-78.4 5.5-98.2a4.2 4.2 0 0 0-4.1-4.4 4.3 4.3 0 0 0-4.4 4.1c-.6 20.4-3.9 85.2-5.7 98.8a136.5 136.5 0 0 0-15.8 2.1c-1.4-12.2-6.4-55.8-8.1-69.8a4.2 4.2 0 1 0-8.4 1c1.6 14.4 6.9 60 8.1 70.7a127.6 127.6 0 0 0-15.1 5.1l-4.9-15.7c-1.5-5-3.3-10.5-5.1-16.3-7-22.5-15.4-49-19.8-61.5a4.3 4.3 0 0 0-5.5-2.5 4.2 4.2 0 0 0-2.6 5.4c4.4 12.4 12.8 38.7 19.8 61.1 1.8 5.8 3.5 11.3 5.1 16.3l5.2 16.7q-6 3-11.7 6.6c-11.1-17.7-57.9-97.1-72.3-122.4a4.3 4.3 0 0 0-5.9-1.5 4.2 4.2 0 0 0-1.5 5.8c14.5 25.4 61.7 105.6 72.7 122.9a119.7 119.7 0 0 0-11.3 9.2c-11.2-10.4-54.4-56.1-67.8-70.9a4.2 4.2 0 0 0-6.3 5.7c13.3 14.7 56 59.8 68 71.1a135.3 135.3 0 0 0-10 11.1l-58-40.4a4.2 4.2 0 1 0-4.8 6.9l57.5 40.2c-3.7 4.8-6.9 9.4-9.8 13.9-13.5-5.3-71.2-32.6-89.2-41.7a4.3 4.3 0 0 0-5.7 1.9 4.2 4.2 0 0 0 1.8 5.7c17.6 8.9 72.9 35.1 88.7 41.5-2.7 5-5.1 10-7.6 15.6l-68.8-15.8a4.3 4.3 0 1 0-1.9 8.3l67.4 15.5-5.8 15.3c-7.1-.6-29.9-3.3-37.4-4.4a4.3 4.3 0 0 0-1.2 8.5c6.9.9 26.6 3.3 35.7 4.2-.1.4-.3.7-.4 1.1a4.2 4.2 0 0 0 8 2.8c12.2-34.5 18.4-49.4 37.3-72.7 38-47.2 91.3-59.8 154.7-37.9a4.2 4.2 0 1 0 2.8-8zm-15.2-5.9zm-.2-.1h-1.6a4.2 4.2 0 0 1 1.6 0zm-51.1-5.8a5.8 5.8 0 0 0-1.9.4 4.6 4.6 0 0 1 1.9-.4zm-112.9 73.2a5.3 5.3 0 0 0-1.2 1.4 3.9 3.9 0 0 1 1.2-1.4zM217.2 626zm110.6-118.8a4.1 4.1 0 0 0-2.5 2 3.5 3.5 0 0 1 2.5-2zM287 526.5zm.2-.1zm-16.8 13.3a5.5 5.5 0 0 0-1.5.8 5.3 5.3 0 0 1 1.5-.8zm107.7-33.9a3.1 3.1 0 0 0-1.9.3h-.2a3.2 3.2 0 0 1 2.1-.3z"></path><path d="M410.4 536.5c-22.3-6.2-44.4-7.7-65.2-4.4l-5.4.9c-2.8.6-5.5 1.2-8.2 2a105.2 105.2 0 0 0-10.9 3.6 119 119 0 0 0-43.9 28.4 83.3 83.3 0 0 0-10.1 11.5c-14 17.8-22 36.2-26.8 56.1a4.2 4.2 0 0 0 .8 3.8 10.1 10.1 0 0 0 1.4 1.2 29.7 29.7 0 0 0 5.4 2.1c12.9 3.6 50.9 8.1 105.5-25.9 48.9-30.6 59.9-66.5 60.6-73.6a6.1 6.1 0 0 0-.5-3.6 4.2 4.2 0 0 0-2.7-2.1zm-59 3.5a80.8 80.8 0 0 1 2.6 9.5c1.6 8.3 2.6 19.1.3 26.6-7.3 23.7-35 36.7-56.5 27.7-6.6-2.7-14-9-23.5-21.2l2.6-3.2 1.8-2c8 10.5 14.2 15.8 19.6 18.6a34.4 34.4 0 0 0 49.5-23.5c1.9-8.8-1.6-23.8-4-31.4l4.1-.7zm-12 30.7a25.9 25.9 0 0 1-37.3 17.7c-4.8-2.5-10.1-7.4-17.3-17 4.2-4.6 13.4-11.6 21.8-16.6l2.6-1.5 10.1-4.9 5.4-2.2a96.5 96.5 0 0 1 10.8-3.3c2 6.1 5.7 19.8 3.9 27.8zm9.1 37.8c-52.8 33-88.9 28.1-99.5 24.7a135 135 0 0 1 20-43.6c10.2 12.7 18.3 19.1 25.5 22.1 25.8 10.8 59.2-4.7 67.9-33.1a46.6 46.6 0 0 0 1.7-12.8 4.2 4.2 0 0 0 5.7.1c2.9-2.5 6.5-5.8 8.6-7.9l9 8.6a4.3 4.3 0 0 0 5.5-6.6c-.6-.4-7.1-7-10.1-9.7a12.2 12.2 0 0 0-2.3-1.6 4.1 4.1 0 0 0-1.9-.5 6.2 6.2 0 0 0-3.8 1.6c-2.1 1.6-6.4 6.1-10.6 9.7l-.3.4a105.4 105.4 0 0 0-3.6-20.8 151.7 151.7 0 0 1 44.4 4.7c-2.5 10-15.2 39.1-56.2 64.7z"></path><path d="M258.2 659.7a5.9 5.9 0 0 0-6.1-.6 8 8 0 0 0-4.4 4.8c-.6 2.4.7 5.1 2.8 6.8s8.4-.2 9.8-3.4-.1-5.7-2.1-7.6z"></path><path d="M302.9 655.5a5.8 5.8 0 0 0-6-.6 7.3 7.3 0 0 0-4.4 4.8c-.6 2.4.7 5.1 2.7 6.8s8.5-.2 9.9-3.5-.2-5.7-2.2-7.5z"></path><path d="M349.2 639.5a5.7 5.7 0 0 0-6-.6 7.5 7.5 0 0 0-4.4 4.8c-.6 2.4.7 5.1 2.8 6.8s8.4-.2 9.8-3.4-.1-5.8-2.2-7.6z"></path><path d="M397.1 605.7a5.7 5.7 0 0 0-6-.7 8 8 0 0 0-4.4 4.8c-.6 2.4.7 5.2 2.8 6.9s8.4-.2 9.8-3.5-.1-5.7-2.2-7.5z"></path><path d="M432.4 561.7a6 6 0 0 0-6-.6 7.7 7.7 0 0 0-4.4 4.8c-.6 2.4.7 5.2 2.7 6.8s8.5-.1 9.9-3.4-.2-5.7-2.2-7.6z"></path><path d="M849.7 686.3c2.7 11.6 15.4 16.3 25.4 12.6 7.9-2.8 11.9-9.4 11.8-17.3-.1-3.2-1-11.6-10-15.4s-14.2-1.5-17.7.1c-7 3.1-11.3 12.2-9.5 20zm12.9-12.3c2.2-.9 5.5-2.2 11 .1s4.7 6.1 4.8 7.7a9.1 9.1 0 0 1-6.2 9.1c-5.5 2.1-12.7-.1-14.2-6.5-.9-4 1.1-8.8 4.6-10.4z"></path><path d="M774.4 681.4c7.4-2 13-10.3 12.5-18.3-.8-11.9-12.6-18.5-23.1-16.5-8.2 1.6-13.3 7.4-14.4 15.3-.4 3.1-.8 11.6 7.5 16.8s13.7 3.7 17.5 2.7zm-16.5-18.3a8.8 8.8 0 0 1 7.5-8.1c5.8-1.1 12.5 2.1 13 8.7.3 4.1-2.4 8.5-6.2 9.5s-5.8 1.4-10.9-1.8a7.8 7.8 0 0 1-3.4-8.3z"></path><path d="M843 640.8a13.2 13.2 0 0 0 8.6-13c0-2.5-.7-8.9-7.3-11.7s-10.2-1-12.8.2c-5.1 2.4-8.4 9.2-7.1 15.1 1.8 8.8 11.1 12.3 18.6 9.4zm-10.3-11.1c-.4-2.2.5-4.8 2.4-5.7a6.4 6.4 0 0 1 5.9-.1c2.1.9 2.1 3.1 2.1 3.9a5.1 5.1 0 0 1-3.2 5.1c-2.8 1.1-6.5.1-7.2-3.2z"></path><path d="M790.5 724.1c5.7-2.2 8.7-7.1 8.7-13 0-2.4-.7-8.9-7.3-11.7s-10.3-1-12.9.2c-5.1 2.4-8.3 9.3-7.1 15.1 1.9 8.9 11.2 12.3 18.6 9.4zm-7.8-16.8a6.5 6.5 0 0 1 5.9 0 3.7 3.7 0 0 1 2.1 3.8 5.1 5.1 0 0 1-3.3 5.1c-2.8 1.1-6.4.1-7.1-3.2s.5-4.8 2.4-5.7z"></path><path d="M785.2 783.2c5.4-1.5 9.6-7.8 9.3-13.8-.4-9-9-13.9-16.8-12.2-6 1.3-9.7 5.7-10.7 11.5-.3 2.4-.7 8.9 5.4 12.7s10 2.6 12.8 1.8zm-8.3-9c-1.9-1.2-1.6-3.4-1.5-4.2a5.3 5.3 0 0 1 4.1-4.5c2.9-.6 6.4.9 6.5 4.3s-1.2 4.7-3.2 5.3a6.8 6.8 0 0 1-5.9-.9z"></path><path d="M847.6 751.4c8.8 2 15.8-5 16.2-13a13.3 13.3 0 0 0-8.3-13.3c-2.2-1-8.4-3-13.7 1.8s-5.1 9-5.1 11.9c.1 5.6 5 11.3 10.9 12.6zm0-18.2a3.6 3.6 0 0 1 4.4-.3 5.1 5.1 0 0 1 3.3 5c-.2 3-2.6 5.9-5.9 5.2s-4.1-2.4-4.2-4.5a6.7 6.7 0 0 1 2.4-5.4z"></path><path d="M802.9 627.4a3.9 3.9 0 0 0-2.4-3.2 4.5 4.5 0 0 0-5.3 6.9 4.5 4.5 0 0 0 6 .5c0-.1 1.2-1.5 1.4-1.9a4 4 0 0 0 .3-2.3zm-8.3 1.9a4.4 4.4 0 0 0 2 2.5 4.1 4.1 0 0 1-2-2.5z"></path><path d="M801.3 631.5h-.1a.1.1 0 0 1 .1 0z"></path><path d="M746.4 710.1h-.1a.1.1 0 0 0 .1 0z"></path><path d="M748 706a4.1 4.1 0 0 0-2.4-3.2 4.3 4.3 0 0 0-5.2 1.3 4.3 4.3 0 0 0 0 5.7 4.2 4.2 0 0 0 5.9.4 11.7 11.7 0 0 0 1.4-1.9 3.8 3.8 0 0 0 .3-2.3zm-8.3 2a4.5 4.5 0 0 0 2.1 2.4 3.8 3.8 0 0 1-2.1-2.4z"></path><path d="M821.2 759.8a4.3 4.3 0 0 0-.7 2.2 4.1 4.1 0 0 0 1.9 3.6 4.4 4.4 0 0 0 5.3-.4 4.4 4.4 0 0 0 1-5.7 4.3 4.3 0 0 0-5.8-1.3 8.1 8.1 0 0 0-1.7 1.6zm7.8 1.6a4.1 4.1 0 0 0-1.6-2.7 3.7 3.7 0 0 1 1.6 2.7z"></path><path d="M822.8 758.2z"></path><path d="M826.3 673.3z"></path><path d="M832.7 678.9a4.2 4.2 0 0 0-.4-5.7 4.2 4.2 0 0 0-5.9 0 8.6 8.6 0 0 0-1.3 2 5 5 0 0 0-.1 2.4 3.8 3.8 0 0 0 2.7 2.9 4.2 4.2 0 0 0 5-1.6zm-1.8-6.3a4.1 4.1 0 0 1 2.2 2.3 4.5 4.5 0 0 0-2.2-2.3z"></path><path d="M813.4 725a4.2 4.2 0 0 0-3.9.9 4.3 4.3 0 0 0-1 5.2 4.2 4.2 0 0 0 5.2 2.4 4.1 4.1 0 0 0 2.8-5.1 8.6 8.6 0 0 0-1.1-2.1 4.7 4.7 0 0 0-2-1.3zm-1.6 8.4a4.7 4.7 0 0 0 3.1-.9 4.3 4.3 0 0 1-3.1.9z"></path><path d="M817.8 662.5a.1.1 0 0 0 .1.1h-.1z"></path><path d="M817.9 662.6c-.2-.1-1.2-1.5-1.6-1.7a4.3 4.3 0 0 0-2.2-.7 4 4 0 0 0-3.6 1.8 4.2 4.2 0 0 0 .3 5.3 4.3 4.3 0 0 0 7.1-4.7zm-3.4 6.1a4 4 0 0 0 2.8-1.6 4.1 4.1 0 0 1-2.8 1.6z"></path><path d="M872.2 643.9a4.3 4.3 0 0 0 5-3.4 4.2 4.2 0 0 0-3.5-4.9l-.8-.2a4.3 4.3 0 0 0-1.1 8.5z"></path><path d="M754.7 734.7a4.2 4.2 0 0 0-5.4 2.6 4.3 4.3 0 0 0 2.6 5.5l.8.2a4.2 4.2 0 1 0 2.4-8.1z"></path><path d="M760.9 791.2c-4.7-3-33.3-23.2-38.8-64.1C712.4 656 765.3 599.5 834 588c5.7-1 16.4-.6 21.4-2.6a8.2 8.2 0 0 0 4.9-4.3 6.8 6.8 0 0 0 .1-5.1 15.6 15.6 0 0 0-4.6-6.5 59.3 59.3 0 0 0-7.8-5.9c-12.3-8.6-26.6-13.8-41.2-17.1-57.8-13.2-118.5 6.5-151.1 58.2-37.3 59-22.4 138 32.1 179.9 8.8 6.8 26.7 15.9 43.2 21.5 11.5 3.9 22.3 6 29 4.8 8.3-1.4 10.2-6.5 10.4-9.1a7 7 0 0 0-2.1-5.2c-1.7-1.8-4.9-3.8-7.4-5.4zm-2.3 11.3c-5.8 1-15-1.1-24.9-4.5-15.5-5.2-32.4-13.8-40.7-20.1-51.1-39.3-65-113.3-30.1-168.7 30.6-48.5 87.7-66.8 142-54.4 13.5 3.1 26.8 7.8 38.2 15.8a55.4 55.4 0 0 1 5.9 4.2 11.5 11.5 0 0 1 2.7 2.7 17.4 17.4 0 0 1-3.6.8c-5.1.7-11.5.6-15.5 1.3-73.2 12.2-129.3 72.9-119 148.6 6.1 44.8 37.5 66.8 42.6 70.2l4 2.5.9.8a9.2 9.2 0 0 1-2.5.8z"></path><path d="M918.1 686.4c4-40.6-9.2-70.3-45.3-102.6a4.2 4.2 0 1 0-5.7 6.3c33.7 30.2 46.2 57.6 42.5 95.4-7.7 80.4-64.8 106.7-126.6 114.1a4.3 4.3 0 0 0-3.8 4.7 4.2 4.2 0 0 0 4.8 3.7c65.7-7.8 125.8-36.3 134.1-121.6z"></path><path d="M1050.5 482.1a8.5 8.5 0 0 0-2.3-.3c-4.2-9.9-11.7-19.8-24-29.2l7.2-1.8a4.3 4.3 0 1 0-2.6-8.1c-.7.2-9.7 2.1-13.6 3.3h-.4c-3.8-2.3-7.8-4.6-12.3-6.8l-4.4-2.3c.7-6.4-3.2-13.2-10-14.5a14 14 0 0 0-11.4 3c-29.5-16.3-63.1-36.5-90.1-51.8-.2-5.8-4-11.3-10.1-12.5a14.1 14.1 0 0 0-9.4 1.6c-6.2-3.3-11.6-6.2-16.2-8.3s-6.4-2.8-9.5-4c-1-2.7-2.8-7.1-4.1-11.1a4.3 4.3 0 1 0-8.1 2.6c.5 1.6 1.2 3.5 1.8 5.2-14.6-3.8-27.3-3.3-38.4.4a12.3 12.3 0 0 0-6-3.1c-4-.7-10.2.4-13.5 5.5a12.4 12.4 0 0 0-1.5 9.6c-8.6 7.2-16.2 16.8-23.1 28.1q-2.4 3.8-4.8 7.8c-1-2.9-2-5.6-2.1-6a4.4 4.4 0 0 0-5.6-2.2 4.3 4.3 0 0 0-2.3 5.6c.3.6 2.7 8.1 4.3 12.2l-8.4 14.3c-3.9-.2-8.9 1.2-11.6 5.6-1.6 2.4-3.5 7.4.1 13.8h.1c-57.5 99.7-139.9 252-173.6 312.9-4.1-.5-9.7.7-12.8 5.5-1.5 2.4-3.5 7.4.2 13.8a7.1 7.1 0 0 0 1 1.4c-2 3.4-3.9 7-5.8 10.6-2.9.8-8 2.6-12.7 3.9a4.2 4.2 0 1 0 2.2 8.2l5-1.4c-7.6 15.4-13.9 31.8-15.4 47.7a11.8 11.8 0 0 0-4.9 4.3c-1.5 2.4-3.5 7.4.2 13.8a12.5 12.5 0 0 0 7 5.9c6.9 20.8 26.5 33.9 45.3 44.4l-6 2.7a4.3 4.3 0 0 0-1.8 5.8 4.2 4.2 0 0 0 5.7 1.7c.6-.3 7.7-3.2 11.6-5l11.2 6a13.7 13.7 0 0 0 2 7.8c3.4 5.8 8.7 6.9 12 6.4a14.6 14.6 0 0 0 6.9-2.9l81.4 43.5a13.6 13.6 0 0 0 1.7 10.1c3.4 5.9 8.7 7 12 6.4a13.9 13.9 0 0 0 8.7-4.5l8.3 4.5 2 1.1c.1.3.1.5.2.8.7 2.4 3.1 7.8 4.7 12.7a4.1 4.1 0 0 0 5.4 2.7 4.2 4.2 0 0 0 2.7-5.3c-.6-1.8-1.3-3.8-2-5.6 12.5 5.3 23 7.2 32 6.8a10.1 10.1 0 0 0 .7 1.5c3.4 5.8 8.7 6.9 12 6.4 5.1-.8 10-4 11.2-9.8a15.1 15.1 0 0 0-.1-6c13-9.1 21.5-24.4 29.8-38.2l.9-1.5 1.9 5.1a4.4 4.4 0 0 0 5.7 2.1 4.3 4.3 0 0 0 2.1-5.7c-.3-.5-2.4-6.9-4.1-11.1l8.3-14.1a6.6 6.6 0 0 0 2-.1c5.1-.8 10-4 11.2-9.8a14 14 0 0 0-1.7-10c45-77.6 133.3-231.3 173.7-305.9a9.1 9.1 0 0 0 3.3 0c5.2-.8 10.1-4 11.3-9.8a14.4 14.4 0 0 0-2.8-11.5c3.7-6.5 7.8-13.7 11.8-21.1 2.8-.6 7.6-2.1 12.1-3.1a4.3 4.3 0 0 0 3.2-5.1 4.2 4.2 0 0 0-5-3.2l-4.8 1.1c7.1-13.5 15.9-30.7 17-48.9a12.3 12.3 0 0 0 8.1-9.1c1.4-6.5-2.5-14.2-9.9-15.5zm-244 460.2a4.7 4.7 0 0 0-1.6.2c-2.5.6-8.3 2.7-13.7 4.1a4.4 4.4 0 0 0-3 5.3 4.4 4.4 0 0 0 5.3 3l6.7-2-1.3 2.2c-4.9 8.2-9.9 17.1-16 24.7a52.1 52.1 0 0 1-10.9 10.6 12.2 12.2 0 0 0-5.4-2.5c-4-.8-10.2.3-13.4 5.4a13 13 0 0 0-1.7 3.9c-7.4.2-16.2-1.6-26.5-5.8l4.9-2.2a4.4 4.4 0 0 0 1.8-5.8 4.3 4.3 0 0 0-5.8-1.8l-11.2 4.9-3-1.5-9.6-5.2c-.1-6-3.8-11.8-10.1-12.9a13.6 13.6 0 0 0-10.1 2l-82-43.8c1.1-6.7-2.8-14.1-9.9-15.4-3.5-.6-8.6.1-12 3.6l-10-5.4c0-.2 0-.3-.1-.4-.7-2.4-3-7.8-4.7-12.8a4.3 4.3 0 0 0-5.4-2.7 4.4 4.4 0 0 0-2.7 5.4q.8 2 1.5 4.2c-16-9-32.7-19.7-39.2-36.7a12 12 0 0 0 7.3-8.7c1.4-6.8-2.5-14.5-9.8-15.8 1.6-14.7 7.7-29.7 14.8-44 1.2 3.4 2.5 6.6 2.6 7a4.3 4.3 0 0 0 5.7 2.1 4.2 4.2 0 0 0 2.1-5.6c-.3-.7-3.3-9.4-4.9-13.1-.1-.2-.1-.4-.2-.5 1.7-3.1 3.3-6.1 5-9a13.8 13.8 0 0 0 4 .2c5.1-.8 10-4 11.2-9.8a14.8 14.8 0 0 0-3.1-12c33.6-60.6 115.2-211.6 172.7-311.1a11.3 11.3 0 0 0 5.3.6c5.1-.8 10-4 11.2-9.8a14.1 14.1 0 0 0-3.8-12.7l7.3-12.4h.5c2.5-.5 8.4-2.6 13.7-3.9a4.4 4.4 0 0 0 3.2-5.2 4.3 4.3 0 0 0-5.2-3.2l-5.8 1.6 4.5-7.4c6.1-10 12.7-18.6 20.2-25.1a11.3 11.3 0 0 0 9.4 3c5.1-.8 10-3.9 11.2-9.8a16.8 16.8 0 0 0 .1-5c8.9-2.7 18.9-3 30.2-.3l-4.9 2.2a4.2 4.2 0 0 0-1.8 5.7 4.3 4.3 0 0 0 5.7 1.9c.6-.4 9-3.8 12.6-5.6l.8-.4c2.6 1 5.3 2.2 8.1 3.5s9 4.3 14.4 7.2c-.9 2.7-1.1 6.5 1.5 10.9s8.6 6.9 11.9 6.4a13.6 13.6 0 0 0 8.9-4.8c26.7 15.2 59.8 35 88.8 51.1a13 13 0 0 0 2 8.6c3.3 5.8 8.6 6.9 11.9 6.4a14.4 14.4 0 0 0 7.6-3.5l4.4 2.3c4.3 2.2 8.3 4.4 11.9 6.7.5 3 1.7 8.2 2.5 13a4.3 4.3 0 0 0 4.8 3.6 4.4 4.4 0 0 0 3.6-4.9c-.2-1.4-.5-3-.8-4.6 9.6 7.6 15.8 15.6 19.3 23.7a10.8 10.8 0 0 0-2.9 3.1c-1.6 2.4-3.5 7.4.1 13.7a12.7 12.7 0 0 0 6.6 5.8c-1 16.8-9.4 32.5-16.1 45l-2-6.1a4.4 4.4 0 0 0-5.6-2.4 4.3 4.3 0 0 0-2.3 5.6c.2.6 2.8 9.3 4.2 13 0 .1.1.2.1.3-3.8 7.2-7.8 14.2-11.4 20.5-4-.7-10.1.4-13.3 5.5-1.5 2.4-3.5 7.4.2 13.7a12.7 12.7 0 0 0 1.3 1.9c-40 74.1-127.8 227-173.1 305l-1.4-.4c-4.1-.7-10.3.4-13.5 5.5-1.6 2.4-3.5 7.4.1 13.7a16.9 16.9 0 0 0 2.2 2.9c-2.5 4.3-4.8 8.2-6.7 11.6z"></path></g></g></g></svg>