<svg xmlns="http://www.w3.org/2000/svg" width="1080" height="697.1" viewBox="0.05907249450683594 -0.019869327545166016 1079.9716796875 696.988525390625" style=""><g><g data-name="Слой 2"><g data-name="Pride58_365174938"><path d="M1074.6 320.2c-27.1 16.2-58.4 25.5-90 25.7s-61.5-7.4-91.5-1.2c-53.2 11-88.4 61.5-136.7 86.3-78.5 40.4-181.3 8.5-256.7 54.3l-6.5-53.4-2.1 4-31.3-111.8 15.6-13.5-8.5-34.5a50.4 50.4 0 0 0-1.4 9.7l-15.9-59.2c-12.9 20.3-27 50.4-27.4 85.3-.8 64.6 31.6 222.6 31.6 222.6 123.9 41.8 283.4 2.4 378.4-85.8 30.2-28 70-62.9 114.2-56.8 36.9 5.2 84.2 31 115-2.9 13.8-15.3 18.6-37.3 15.6-57.7a73.4 73.4 0 0 0-2.4-11.1z" fill="#7089ef"></path><path d="M828.8 289.7c-24.4 8.5-41 30.6-60.1 48-23.8 21.7-54 37.3-86.2 39.9s-65.7-8.1-98.4-5c-37.5 3.6-72.5 26.6-90.9 59.3l6.5 53.4c75.4-45.8 178.2-13.9 256.7-54.3 48.3-24.8 83.5-75.3 136.7-86.3 30-6.2 60.9 1.4 91.5 1.2s62.9-9.5 90-25.7a87.6 87.6 0 0 0-104.8-61.5c-25.2 13.2-51.4 23.7-79.5 25.8-20.6 1.5-42-1.6-61.5 5.2z" fill="#70f279"></path><path d="M1005.1 238.4c-11.1 6.6-22.3 13.3-33.8 19.4a141.9 141.9 0 0 0 33.8-19.4z" fill="#70f279"></path><path d="M927.1 208.4c-23.8.6-47.2-5.1-70.8-7.9s-48.9-2.5-69.6 9.1c-32.6 18.3-46.8 60-79.7 77.6-20.7 11.1-45.6 10.8-69 8.1s-46.9-7.5-70.2-4.4c-35.4 4.7-67.5 28.7-82.1 61.2l-10.3-41.5-15.6 13.5 31.3 111.8 2.1-4c18.4-32.7 53.4-55.7 90.9-59.3 32.7-3.1 65.6 7.7 98.4 5s62.4-18.2 86.2-39.9c19.1-17.4 35.7-39.5 60.1-48 19.5-6.8 40.9-3.7 61.5-5.2 28.1-2.1 54.3-12.6 79.5-25.8l-1.1.2 2.6-1.1c11.5-6.1 22.7-12.8 33.8-19.4a95.8 95.8 0 0 0 22.6-25.3c11.4-18.9 14.6-43.5 5.9-63.5-24 34.5-64.4 57.6-106.5 58.8z" fill="#ffeb73"></path><path d="M859 132c-22.4-5.8-44.5-16.3-67.6-13.9s-44.5 18.8-61.7 36.1-33 36.5-54.5 48c-24 12.8-52.3 14.4-79.5 14.8s-55.2 0-80.7 9.6c-22.4 8.4-42.7 26.7-48.1 49.5l8.5 34.5 10.3 41.5c14.6-32.5 46.7-56.5 82.1-61.2 23.3-3.1 46.8 1.8 70.2 4.4s48.3 3 69-8.1c32.9-17.6 47.1-59.3 79.7-77.6 20.7-11.6 45.9-12 69.6-9.1s47 8.5 70.8 7.9c42.1-1.2 82.5-24.3 106.5-58.8a54.1 54.1 0 0 0-4.7-8.5c-11.1-16.6-33.3-25.2-52.2-20.9C940.5 137.6 898 142.1 859 132z" fill="#ffb36e"></path><path d="M466.9 276.1c5.4-22.8 25.7-41.1 48.1-49.5 25.5-9.6 53.4-9.3 80.7-9.6s55.5-2 79.5-14.8c21.5-11.5 37.4-30.7 54.5-48s37.6-33.6 61.7-36.1 45.2 8.1 67.6 13.9c39 10.1 81.5 5.6 117.7-11.8l-1.3.4c21-10.4 41.4-22.7 53.7-42.2 14.9-23.6 11.5-60.9-13.8-72.6-19.2-8.8-41.8.1-59.2 11.9s-33.8 26.7-54.4 31.4c-26.1 6-52.6-5.8-78.9-10.9-48.9-9.6-102.1 5.5-138.7 39.3-22.8 21.1-40.1 49.3-68.1 62.7-25.1 11.9-54.3 9.8-81.8 13.7s-57.8 18.2-63.6 45.4c0 0-10.1 10.1-21 27.3l15.9 59.2a50.4 50.4 0 0 1 1.4-9.7z" fill="#ff5794"></path><g><path d="M541 353.8c12 4.1 25.3 2.1 36.3-4a50.2 50.2 0 0 0 23.2-29.9 61.5 61.5 0 0 0-1.7-39.5c-4.6-11.9-13.3-22.7-25.7-26.8-16.7-5.5-34.1 2.6-48.7 10.2a2.3 2.3 0 0 0-1 2.5q15.9 75.3 24.7 151.8c1.7 14.3 3.1 28.7 4.4 43 .2 2.8 4.6 2.8 4.3 0-2.3-25.6-5.1-51.1-8.6-76.5s-7.5-51.2-12.2-76.7c-2.6-14.3-5.4-28.6-8.4-42.8l-1 2.5c12.1-6.3 26-13.2 40-11.1 12.3 1.9 21.4 11 26.6 21.8 10.4 21.6 6.1 51.4-14.5 65.5-10.6 7.3-24.2 10-36.6 5.8-2.6-.9-3.8 3.3-1.1 4.2z"></path><path d="M723.4 385.9c-5 5-12.2 6.2-19 4.9s-14-5.5-19.4-10.9c-11.8-12.2-18.7-28.3-32.6-38.5-7.3-5.4-16.2-8.4-25.1-6.1l1.6 3.9c21.8-10.8 41.8-28 48.3-52.2 3.1-11.6 2.6-23.8-2.4-34.7a42.8 42.8 0 0 0-22.4-22.1 35.5 35.5 0 0 0-28.4.9 33.8 33.8 0 0 0-11.4 8.4 36.8 36.8 0 0 0-3.9 5.8c-1.2 2.4-2.4 4.9-1.7 7.6 7.1 28.3 13.4 56.7 18.8 85.4s10.1 57.8 13.9 86.9c.5 3.6.9 7.1 1.4 10.7s4.6 2.8 4.3 0c-3.4-27.4-7.4-54.6-12.3-81.8s-10.4-54.2-16.8-81.1c-1.6-6.7-3.2-13.5-4.9-20.2a4.7 4.7 0 0 1 .2-3.5 30.1 30.1 0 0 1 1.6-3.1 22.5 22.5 0 0 1 4-5.2c6.3-6.4 15.6-9.5 24.6-8.9s18.9 6.6 24.7 14.5a44.7 44.7 0 0 1 8.1 30.5c-2.1 23.9-20.2 42.8-40.1 54.3-2.6 1.4-5.1 2.8-7.8 4.1s-.6 4.6 1.7 4c17.5-4.5 31.1 13.5 39.9 25.9s19.3 27.2 36.3 29.8c7.9 1.2 16.1-.4 21.9-6.3a2.2 2.2 0 0 0-3.1-3z"></path><path d="M756.2 368.2c-10.5-5.8-18.6-15.1-25.2-25a177.4 177.4 0 0 1-16.5-31.4 172.5 172.5 0 0 1-11.6-42.9 166.8 166.8 0 0 1-1.3-22.3 102 102 0 0 1 1.8-21.4c1.3-6.4 3.7-12.5 8.5-17a22.7 22.7 0 0 1 15.8-6.4c6.2.2 11.6 4 16 8.1a70 70 0 0 1 12.3 15.3c16.2 25.3 23.9 54.5 26.6 84.3.7 7.4 1.1 14.9 1.2 22.4 0 3.8 0 7.6-.1 11.4a74.2 74.2 0 0 1-.6 9.4c-1.7 9.3-8 19.8-18.8 18.4a26.2 26.2 0 0 1-8.1-2.9c-2.4-1.3-4.6 2.4-2.1 3.7 5.2 2.8 11.1 4.6 17 3a20.8 20.8 0 0 0 11.8-9.4 35.2 35.2 0 0 0 4.9-16.4 210 210 0 0 0 .1-23.8c-1.1-32-7.1-64.4-22.5-92.8-6.6-12.1-14.8-24.9-27.1-32s-25.7-1.5-33.1 8.8c-4.2 5.8-6 13.1-6.9 20.1a151.4 151.4 0 0 0-1 23.3 171.2 171.2 0 0 0 8.2 47 194.8 194.8 0 0 0 16.4 37.1c6.4 11.2 14.3 22.1 24.6 30.1a66.5 66.5 0 0 0 7.6 5c2.4 1.4 4.6-2.4 2.1-3.7z"></path><path d="M773.1 166.6c7.6 27 15.3 53.9 23 80.9 3.8 13.2 7.5 26.4 11.3 39.6 3.2 11.2 7.3 23 16.2 31s18.9 10.6 29 6.2 15.7-13.3 18-23c2.9-12.6.3-25.6-2.2-38s-5.3-25.5-8.4-38.1c-6.1-24.3-13.3-48.4-23-71.6-1.1-2.7-2.2-5.4-3.4-8s-4.9-.4-3.8 2.1c9.6 21.6 16.9 44.2 23 67 3.2 12 6.1 24.1 8.7 36.2s5.7 24.3 6 36.6c.3 10.7-2.3 21.6-10.5 28.9a20.6 20.6 0 0 1-12.8 5.5c-5.2.3-10.1-1.6-14.3-4.4-9.6-6.5-14.1-17.7-17.4-28.3-3.7-12.3-7.1-24.8-10.6-37.2-7.3-25.7-14.7-51.4-22-77.1l-2.7-9.5c-.7-2.6-4.9-1.5-4.1 1.2z"></path><path d="M862.6 138.3a376.7 376.7 0 0 1 31 119.3c1 11.6 1.5 23.2 1.5 34.9a2.2 2.2 0 0 0 2.2 2.1c15.1 1.7 29.4-7.8 37.5-20.1 9.3-14.2 11.5-31.8 12.8-48.4s.7-36.2-5.5-53.1c-5.2-14.3-14.3-27.5-27.3-35.7-14.6-9.3-34-11.2-49.4-2.8-2.5 1.3-.3 5 2.2 3.7 12.8-7 28.8-5.9 41.5.8s21.8 18.4 27.3 31.4c6.6 15.3 7.9 32.2 7.3 48.6s-2.2 32.6-9.1 47-20.8 26.1-37.3 24.3l2.1 2.2a383.1 383.1 0 0 0-20.1-123.4c-3.8-11.2-8.2-22.2-13-33-1.1-2.6-4.8-.4-3.7 2.2z"></path><path d="M757 105.4h2a51.2 51.2 0 0 0-10.8 44.8c-5.4-5.7-10.8-11.5-17.2-16s-14.4-8.1-22.6-8.1c7-5 11.2-13.3 13-21.7s1.8-17 1.6-25.5c4.8 14.5 18.9 25.3 34 26.5z" fill="#fff"></path><path d="M757 107.5h2l-1.5-3.7a53.3 53.3 0 0 0-11.4 46.8l3.7-2.1c-11.2-11.7-24-24.4-41.4-24.6l1.1 4c15.4-11.4 16-31.6 15.7-49.1l-4.3.6a42.4 42.4 0 0 0 36.1 28c2.8.3 2.8-4.1 0-4.3a37.7 37.7 0 0 1-31.9-24.9c-.8-2.2-4.3-1.9-4.3.6.3 15.6.4 35-13.5 45.4-1.6 1.2-1.2 4 1.1 4 16.1.2 28 12.5 38.3 23.4 1.5 1.6 4.1-.1 3.6-2.1a48.8 48.8 0 0 1 10.3-42.5 2.2 2.2 0 0 0-1.6-3.7h-2c-2.7-.3-2.7 4 0 4.2z"></path><path d="M1037.1 348.6l1.3 1.5a50.6 50.6 0 0 0-40.1 22.4c.5-7.8 1-15.6 0-23.4s-3.9-16.1-9.4-22.1c8.5 1.7 17.3-.8 24.8-5.2s13.6-10.2 19.8-16.1c-7.4 13.3-5.8 31 3.6 42.9z" fill="#fff"></path><path d="M1035.6 350.2l1.3 1.5 1.5-3.7a53.2 53.2 0 0 0-42 23.5l4 1c1.1-16.2 1.7-34.1-10-47l-2.1 3.6c18.9 3.5 34.1-9.8 46.7-21.9l-3.4-2.6c-7.8 14.4-6 32.7 4 45.6 1.7 2.1 4.8-.9 3.1-3.1a37.8 37.8 0 0 1-3.4-40.3 2.2 2.2 0 0 0-3.4-2.6c-11.3 10.7-25.4 23.9-42.4 20.7a2.2 2.2 0 0 0-2.1 3.6c10.7 11.9 9.7 29.2 8.7 44-.2 2.3 2.9 2.8 4 1.1a49.2 49.2 0 0 1 38.3-21.3 2.2 2.2 0 0 0 1.6-3.7l-1.3-1.5c-1.8-2.2-4.8.9-3.1 3.1z"></path><path d="M739.4 474.3a14.2 14.2 0 0 0-.4 2 50.9 50.9 0 0 0-42.7-17.2c6.5-4.5 12.9-9.1 18.3-14.7s10.1-13.1 11.3-21.2c4 7.6 11.5 12.9 19.6 16s16.5 4.2 25 5.3c-15 2.6-27.8 15-31.1 29.8z" fill="#fff"></path><path d="M737.3 473.7c-.1.7-.3 1.3-.4 2l3.6-1a53.2 53.2 0 0 0-44.2-17.8l1.1 4c13.2-9.2 27.9-20.1 30.6-37.1l-4 .5c9.1 16.8 29.4 20.1 46.5 22.4l-.6-4.3a42 42 0 0 0-32.6 31.3c-.6 2.8 3.5 3.9 4.2 1.2a37.7 37.7 0 0 1 29.6-28.3c2.6-.5 1.6-4-.6-4.3-15.6-2-34.5-4.9-42.7-20.2-.8-1.5-3.7-1.3-4 .5-2.5 16-16.2 26-28.5 34.6-1.6 1.1-1.3 4.3 1 4a49.5 49.5 0 0 1 41.2 16.6 2.2 2.2 0 0 0 3.6-1 12.9 12.9 0 0 1 .4-1.9c.6-2.7-3.6-3.9-4.2-1.2z"></path><path d="M593.4 485.5l30.1 27.4c2.1 1.9 5.2-1.2 3.1-3.1l-30.2-27.4c-2-1.9-5.1 1.2-3 3.1z"></path><path d="M598.4 517c9.4-12.7 18.9-25.3 28.3-37.9 1.7-2.3-2.1-4.4-3.7-2.2l-28.4 37.9c-1.6 2.2 2.1 4.4 3.8 2.2z"></path><path d="M592.3 501.4l39.1-6c2.8-.4 1.6-4.6-1.1-4.2l-39.1 6c-2.8.4-1.6 4.6 1.1 4.2z"></path><path d="M606.8 475.9l1.8 41.6c.1 2.8 4.5 2.8 4.3 0-.6-13.9-1.2-27.7-1.7-41.6-.2-2.7-4.5-2.8-4.4 0z"></path><path d="M878.9 340.5l30.2 27.4c2.1 1.9 5.1-1.1 3.1-3L882 337.5c-2.1-1.9-5.1 1.1-3.1 3z"></path><path d="M884 372l28.3-37.9c1.7-2.2-2.1-4.4-3.7-2.2l-28.4 37.9c-1.7 2.3 2.1 4.4 3.8 2.2z"></path><path d="M877.9 356.4l39.1-5.9c2.8-.5 1.6-4.6-1.1-4.2l-39.2 5.9c-2.7.5-1.5 4.6 1.2 4.2z"></path><path d="M892.4 331l1.8 41.5c.1 2.8 4.4 2.8 4.3 0l-1.8-41.5c-.1-2.8-4.4-2.8-4.3 0z"></path><g><path d="M552.6 182.5l30.1 27.4c2.1 1.9 5.2-1.1 3.1-3l-30.2-27.4c-2-1.9-5.1 1.1-3 3z"></path><path d="M557.6 214c9.4-12.6 18.9-25.2 28.3-37.9 1.7-2.2-2.1-4.4-3.7-2.2l-28.4 37.9c-1.6 2.3 2.1 4.4 3.8 2.2z"></path><path d="M551.5 198.4l39.1-5.9c2.8-.5 1.6-4.6-1.1-4.2l-39.1 5.9c-2.8.5-1.6 4.6 1.1 4.2z"></path><path d="M566 173l1.8 41.6c.1 2.7 4.5 2.7 4.3 0-.6-13.9-1.1-27.8-1.7-41.6-.2-2.8-4.5-2.8-4.4 0z"></path></g><g><path d="M954.2 52.6l30.1 27.5c2.1 1.8 5.2-1.2 3.1-3.1l-30.2-27.4c-2-1.9-5.1 1.2-3 3z"></path><path d="M959.2 84.2l28.3-38c1.7-2.2-2.1-4.3-3.7-2.1L955.4 82c-1.6 2.2 2.1 4.4 3.8 2.2z"></path><path d="M953.1 68.5l39.2-5.9c2.7-.4 1.5-4.6-1.2-4.2l-39.1 6c-2.8.4-1.6 4.6 1.1 4.1z"></path><path d="M967.6 43.1l1.8 41.6c.1 2.8 4.5 2.8 4.4 0L972 43.1c-.2-2.8-4.5-2.8-4.4 0z"></path></g><g><path d="M651 179.7a6.5 6.5 0 0 1-5.7-3.5c-2.2-4.3 1.8-10.4 6.8-10s7.9 7 5.1 11a6.9 6.9 0 0 1-6.2 2.5z" fill="#fff"></path><path d="M651 177.6h-.2l-.6-.2a1.6 1.6 0 0 1-.9-.3h-.5l-.5-.4c.3.3-.1 0-.2-.1l-.4-.4c-.4-.4.2.3-.1-.2a3.5 3.5 0 0 1-.5-.8c.2.5-.1-.3-.1-.4a.9.9 0 0 1-.1-.5c-.1-.5 0 .4 0-.1v-1c0-.1.1-.4 0 .1v-.5l.3-.7c0-.1.2-.7 0-.2s.1-.3.2-.4l.5-.9c.1-.1.2-.1.2-.2s0 0 .1-.1l.6-.6.4-.3c-.4.3 0 0 0-.1l.9-.5c.1 0 .4-.1-.1.1l.5-.2h1.4c.1 0 .7 0 .1-.1h.4l.8.3h.3l.4.3a2.3 2.3 0 0 1 .7.7c.1.1.6.7.3.2a10.9 10.9 0 0 1 .8 1.5l.2.5a1.9 1.9 0 0 0 .2.8c.1.5 0-.3 0 0v1.3c0 .5.1-.5 0 .1s-.1.3-.1.4-.1.3-.1.4a.4.4 0 0 0-.1.3c.1-.2.1-.3 0-.1l-.5.9c.2-.3 0-.1 0 0l-.6.6c.3-.3 0 0-.1 0l-.6.4h-.2l-.6.2h-.6c-.1.1-.6.1-.2.1H651a2.2 2.2 0 0 0-2.2 2.1 2.3 2.3 0 0 0 2.2 2.2c4 .3 8.1-2 9.1-6.1a9.8 9.8 0 0 0-2.5-9.2 8.5 8.5 0 0 0-9.8-1.7 10.1 10.1 0 0 0-5.3 8.4 8.2 8.2 0 0 0 2.2 5.8 9.6 9.6 0 0 0 6.3 2.8 2.2 2.2 0 1 0 0-4.3z"></path></g><g><path d="M804.8 408.9a6.4 6.4 0 0 1-5.7-3.5c-2.2-4.3 1.8-10.4 6.7-10s8 7 5.1 10.9a6.5 6.5 0 0 1-6.1 2.6z" fill="#fff"></path><path d="M804.8 406.8c-.7-.1.4.1-.2 0l-.6-.2a1.6 1.6 0 0 1-.9-.3c.4.2-.2 0-.2-.1l-.4-.2-.5-.3h-.1l-.4-.4c-.4-.4.1.3-.2-.2s-.3-.5-.4-.8l-.2-.4a.7.7 0 0 0-.1-.5c-.1-.5 0 .4 0-.1v-1c0-.1.1-.4 0 .1a4.3 4.3 0 0 0 .1-.5c.1-.2.1-.5.2-.8s.3-.6.1-.1l.2-.4a4.1 4.1 0 0 1 .5-.9.2.2 0 0 1 .2-.2c-.3.4 0 0 .1-.1l.5-.6.4-.3h.1l.9-.5c.1 0 .3-.1-.1.1l.5-.2h1.3c.2.1.7.1.1 0h.5l.7.3h.3l.4.3c.1.1.5.4.1 0a4.6 4.6 0 0 1 .7.7c.1.1.5.7.2.2a11.9 11.9 0 0 1 .9 1.5c-.3-.5.1.3.1.5a2.4 2.4 0 0 1 .2.8c.1.5 0-.3 0 0a.6.6 0 0 0 .1.4 2.8 2.8 0 0 1-.1.9c0 .5.2-.5 0 0v.5c-.1.1-.1.3-.2.4a.4.4 0 0 1-.1.3c.1-.2.1-.3 0-.1a3.6 3.6 0 0 1-.4.9c.2-.3 0-.1-.1 0s-.3.4-.5.5-.1.1-.2.1a1 1 0 0 1-.5.4h-.3l-.5.2h-.6c-.1 0-.6.1-.2.1h-1.4a2.1 2.1 0 0 0-2.2 2.1 2.3 2.3 0 0 0 2.2 2.2 8.6 8.6 0 0 0 9.1-6.1 9.9 9.9 0 0 0-2.6-9.2 8.4 8.4 0 0 0-9.7-1.7 9.9 9.9 0 0 0-5.3 8.4 8 8 0 0 0 2.2 5.8 9.2 9.2 0 0 0 6.3 2.8 2.1 2.1 0 0 0 2.1-2.2 2.1 2.1 0 0 0-2.1-2.1z"></path></g><g><path d="M857.2 105.9a6.9 6.9 0 0 1-5.7-3.5c-2.2-4.4 1.8-10.5 6.7-10.1s8 7 5.2 11a6.9 6.9 0 0 1-6.2 2.6z" fill="#fff"></path><path d="M857.2 103.7h-.8l-.9-.3h-.2l-.3-.2-.5-.3-.2-.2-.4-.4c-.4-.4.2.3-.1-.2a2.2 2.2 0 0 1-.5-.8c.2.5-.1-.3-.1-.4a.9.9 0 0 1-.1-.5c-.1-.5 0 .4 0 0v-1.5l.3-.8c0-.1.2-.6 0-.1l.2-.5a5.6 5.6 0 0 1 .5-.8l.2-.3c-.3.4 0 0 .1-.1l.6-.6.3-.3c-.3.3.1 0 .1 0l.9-.5h-.1l.5-.2c.1 0 1-.1.4-.1h1.5l.8.2c-.6-.2.1.1.3.2l.4.2c.1.1.4.4 0 .1l.7.6c.1.1.6.7.3.3a7.1 7.1 0 0 1 .8 1.5c-.2-.6.1.3.2.4a2.9 2.9 0 0 0 .2.9c.1.5 0-.4 0-.1v1.4c0 .5.1-.5 0 0a.6.6 0 0 0-.1.4.9.9 0 0 0-.1.5.4.4 0 0 0-.1.3c.1-.3.1-.3 0-.1l-.5.8-.6.6h-.1l-.6.3h-.2l-.6.2-.6.2h-1.6a2.3 2.3 0 0 0-2.2 2.2 2.2 2.2 0 0 0 2.2 2.1c4 .3 8.1-2 9.1-6a9.9 9.9 0 0 0-2.5-9.3 8.5 8.5 0 0 0-9.8-1.6 10 10 0 0 0-5.3 8.3 8.1 8.1 0 0 0 2.2 5.8 9.4 9.4 0 0 0 6.3 2.8 2.2 2.2 0 0 0 2.2-2.1 2.3 2.3 0 0 0-2.2-2z"></path></g><g><path d="M991.2 181.8a7.1 7.1 0 0 1-5.7-3.5c-2.2-4.4 1.8-10.5 6.8-10.1s7.9 7 5.1 11a6.9 6.9 0 0 1-6.2 2.6z" fill="#fff"></path><path d="M991.2 179.6h-.8l-.9-.3h-.2l-.3-.2-.5-.3-.2-.2-.4-.4c-.4-.4.2.3-.1-.1a4.1 4.1 0 0 1-.5-.9c.2.5-.1-.2-.1-.4a.7.7 0 0 1-.1-.5c-.1-.4 0 .4 0 0v-1c0-.1.1-.4 0 .1a.7.7 0 0 1 .1-.5 2.4 2.4 0 0 1 .2-.8c0-.1.2-.6 0-.1l.2-.5.5-.8c.1-.1.2-.2.2-.3s0 0 .1-.1l.6-.6.4-.3.9-.5h-.1l.5-.2c.1 0 1-.1.4-.1h1.5l.8.2c-.6-.2.1.1.3.2l.4.2c.1.1.4.4 0 .1l.7.6c.1.1.6.8.3.3a10.9 10.9 0 0 1 .8 1.5c-.2-.6.1.3.2.4a2.9 2.9 0 0 0 .2.9c.1.5 0-.4 0-.1v1.4c0 .5.1-.5 0 0s-.1.3-.1.4-.1.3-.1.5a.4.4 0 0 0-.1.3c.1-.3.1-.3 0-.1l-.5.8-.6.6h-.1l-.6.3h-.2l-.6.2-.6.2h-1.6a2.2 2.2 0 0 0 0 4.4c4 .2 8.1-2.1 9.1-6.1a9.9 9.9 0 0 0-2.5-9.3 8.5 8.5 0 0 0-9.8-1.5 10 10 0 0 0-5.3 8.3 8.5 8.5 0 0 0 2.2 5.9 10.7 10.7 0 0 0 6.3 2.8 2.2 2.2 0 0 0 0-4.4z"></path></g><g><path d="M971.6 305.2a7.1 7.1 0 0 1-5.7-3.5c-2.1-4.4 1.9-10.5 6.8-10s7.9 6.9 5.1 10.9a6.7 6.7 0 0 1-6.2 2.6z" fill="#fff"></path><path d="M971.6 303c-.6 0 .5.2-.2 0h-.5l-1-.3h-.2l-.3-.2-.5-.3c.4.2-.1-.1-.1-.1l-.4-.5c-.5-.3.1.4-.2-.1a5.6 5.6 0 0 0-.5-.8c.3.4 0-.3-.1-.5s-.1-.3-.1-.4v-1.1c0-.1.1-.4 0 .1s.1-.3.1-.5a2.4 2.4 0 0 1 .2-.8c0-.1.3-.6 0-.1l.3-.4a4.1 4.1 0 0 1 .5-.9l.2-.3c-.4.5 0 0 0-.1l.6-.5.4-.4c-.4.4 0 0 .1 0l.8-.5h.4c.2-.1 1-.2.4-.2h1.6l.7.2c-.6-.2.2.1.3.2l.4.3c.1 0 .4.3.1 0l.6.6c.2.1.6.8.3.3l.9 1.5c-.3-.5.1.3.1.5s.1.5.2.8 0-.4 0 0v.4a2.7 2.7 0 0 1 0 .9c0 .5.1-.5 0 0a.9.9 0 0 1-.1.5c0 .1-.1.3-.1.4s-.1.2-.1.3.1-.3 0-.1a2.2 2.2 0 0 1-.5.8c.2-.3.1 0 0 .1l-.6.5c.3-.2 0 0-.1.1l-.6.4h-.7l-.6.2c-.1 0-.6.1-.2 0a3.8 3.8 0 0 1-1.5 0 2.2 2.2 0 0 0 0 4.4c4.1.2 8.1-2.1 9.2-6.1a10.2 10.2 0 0 0-2.6-9.3 8.4 8.4 0 0 0-9.7-1.6 9.8 9.8 0 0 0-5.3 8.4 8 8 0 0 0 2.2 5.8 9.6 9.6 0 0 0 6.2 2.8 2.2 2.2 0 0 0 2.2-2.2 2.3 2.3 0 0 0-2.2-2.2z"></path></g></g><path d="M453.3 536.6c53.2 17.9 110.8 20.5 166.1 12.5s111.8-27.8 160.4-57.9a351.7 351.7 0 0 0 34-23.9c11-8.7 21.1-18.3 31.5-27.6 22.1-19.7 47.3-39.7 77.2-45.1 27.7-5 54.4 8.2 81.3 12.3 12.5 2 25.7 2.4 37.8-1.9s23.1-14.3 29.6-26.2c14.3-25.9 10.3-58.7-5.3-83.1a90.7 90.7 0 0 0-97.8-38.9l1.1 4.2c30.2-11.9 59.5-33.4 68.6-66 4.3-15.1 4.1-31.7-2.2-46.2a52.8 52.8 0 0 0-30.5-28.5c-14.4-5.4-31.2-4.5-43.8 4.7a2.2 2.2 0 0 0 2.2 3.7c20-9.4 40.7-19.3 56.5-35.4 13.3-13.6 21.3-31.2 20-50.5-1.1-17.2-9.8-33.8-26.6-40.1-22.2-8.4-46 4.2-63.7 16.8-9.7 6.8-19.1 14.2-29.4 19.9a70.7 70.7 0 0 1-36.2 9.2c-25.6-.7-49.6-12.1-75.1-14.6-44.4-4.6-90.7 10.2-124.1 39.9-16.8 14.9-29.9 33.4-46.6 48.4-8.6 7.7-18.3 14.3-29.1 18.4s-24.2 6.3-36.6 7.5c-22.3 2.1-45.1 2.2-66.1 10.9-8.8 3.7-17.2 8.6-24.1 15.3a54.8 54.8 0 0 0-8.5 10.7 65.4 65.4 0 0 0-3 5.9c-.9 2.2-1.3 4.7-2.2 6.9.1-.2.3-.2.1.1l-.8.9c-1.1 1.1-2 2.2-3 3.3-3.5 4.1-6.8 8.3-10 12.6a203.5 203.5 0 0 0-24.4 44.3 155.2 155.2 0 0 0-10.6 58.3c.2 14.7 1.6 29.4 3.2 44 3.8 34.4 9.3 68.7 15.2 102.8q6 33.8 12.7 67.5c.2 1.1.4 2.2.7 3.4s4.7 1.5 4.1-1.2c-3.1-15.4-6-30.8-8.9-46.3-5.9-32.3-11.4-64.7-15.9-97.3-2.2-16.1-4.1-32.2-5.5-48.4s-2.1-30.8-.1-46.1c4.4-32.8 20.2-64.2 41.5-89.3 1.6-1.8 3.5-3.6 5-5.5s1.8-5.8 2.9-8.3a42.7 42.7 0 0 1 7.4-11.8c12.7-14.7 32.5-21.9 51.2-24.7 23.9-3.7 48.7-2.2 72-9.6 21.1-6.7 37.2-21.4 51.9-37.4s29-33.1 47.7-45.3a160.1 160.1 0 0 1 61.4-24.1c22.9-4 45.7-2.4 68.1 3.3s48.9 14.6 73.3 6.5c22-7.2 38.2-24.5 58.1-35.4s44.4-15.9 60 2.4c11.2 13.4 12 33.6 6.6 49.5-6.9 20.1-25.1 34.2-42.8 44.4-9.3 5.4-18.9 9.9-28.5 14.5l2.2 3.7c21.9-16 54.2-4.6 66.4 18.2 14.9 28 3 62.1-18.4 83-12.3 11.9-27.5 20.6-43.4 26.9-2.6 1-1.6 4.9 1.1 4.2 30.3-7.4 63.1 2.2 84.1 25.3s28.3 54 18 82c-4.9 13.3-14.4 25.1-27.4 31.1s-25.4 5.4-38 3.5c-25.6-3.8-50.9-16-77.1-13.5-28.5 2.7-53.5 19.4-74.9 37.2-10.9 9-20.9 18.9-31.5 28.1a358.7 358.7 0 0 1-31.9 24.4c-46.1 31.2-99.1 52.2-153.7 62.7s-110.3 10.4-163.5-3.7q-9.4-2.6-18.9-5.7c-2.6-.9-3.8 3.3-1.1 4.2z"></path><g><path d="M407.5 617.8c85.7-4.6 120-47.8 120-47.8l-27-216.7c-5.8-46.9-12.3-95.6-38.7-134.8-38.6-57.3-113.3-80.7-177.2-54.4-40.4 16.6-68.2 51.2-102.4 76.9-27.7 20.7-61.6 29-94.1 38.6s-64.7 20.6-79.7 52.9c-12.6 27.4-4.9 61 13 85.3s44.6 40.8 71.8 53.9c53.2 25.7 112.1 41.3 171.2 40-1.8 20.3-4.5 40.6-8.2 60.7 0 0 34.3 44.8 133.3 45.8 6.2.1 12.2 0 18-.4z" fill="#fff"></path><path d="M423.5 375.5l.8-.8a60.7 60.7 0 0 0 15.6-30.6c.5-2.8-3.7-3.9-4.2-1.2-3.3 19-16.9 35.4-34.6 43s-39.1 4.2-54.9-7.5a56 56 0 0 1-19.5-25.8c-.9-2.7-5.1-1.5-4.2 1.1a61.6 61.6 0 0 0 13.7 21.7l-26.6 17.9c-2.3 1.5-.1 5.3 2.2 3.7l27.6-18.6a62.9 62.9 0 0 0 11.6 8.3L331 409c-1.9 2.1 1.2 5.2 3 3.1l21-23.4a60.4 60.4 0 0 0 12.6 4.3c-2.8 9.9-5.5 19.9-8.3 29.8-.7 2.7 3.4 3.8 4.2 1.2 2.8-10.1 5.6-20.1 8.3-30.2a55.9 55.9 0 0 0 17.8-.2c.3 9.6.7 19.2 1 28.8.1 2.7 4.5 2.7 4.4 0-.4-9.7-.7-19.4-1.1-29.1a1.3 1.3 0 0 0-.1-.6 63.3 63.3 0 0 0 13.9-5.3c4 9.2 8.1 18.3 12.2 27.5a2.1 2.1 0 0 0 2.9.8 2.2 2.2 0 0 0 .8-3c-4.1-9.2-8.1-18.3-12.2-27.4a59.1 59.1 0 0 0 9-6.8l20.4 22.7c1.9 2.1 5-1 3.1-3z"></path><path d="M396.9 451.6c-13.3-.2-28 8.4-30 22.4a19.1 19.1 0 0 0 7.1 18.4c4.9 3.7 11.5 5 17.6 4.7s12.9-2 17.6-6.2 5.5-12.1 1-17.4-12-8.1-18.5-6a9.7 9.7 0 0 0-6.7 6.9 7 7 0 0 0 3.3 7.6 6.5 6.5 0 0 0 7.7-1c1.8-2.1-1.2-5.2-3.1-3.1s-3.9-.2-3.7-2.1 3.4-4.4 6.1-4.6c5.4-.3 11.8 3 13.5 8.4s-3.5 9.7-8.1 11.4a30.4 30.4 0 0 1-15.5 1.5c-4.7-.9-9.5-3.1-12.1-7.3s-2.6-12.4.7-17.7c5.9-9.4 18.1-13.1 28.6-10.9s18.6 9.4 20.7 19.9-1.6 20.9-10.1 26.5c-5.4 3.5-11.8 4.9-18.2 5.3a68.5 68.5 0 0 1-18.6-1.5c-5.9-1.5-11.7-4.1-16-8.4a30.3 30.3 0 0 1-7.9-15.1c-2.4-11.4 2.1-22.9 10.5-30.8s22.6-12.2 35.2-10.6a63.5 63.5 0 0 1 9.8 2.3c2.7.9 3.8-3.3 1.2-4.2-14.8-4.8-32-3.6-44.8 5.8-11.3 8.2-18.4 21.6-16.5 35.8a33.7 33.7 0 0 0 8 18.3c4.9 5.7 11.9 9.2 19.1 11a69.6 69.6 0 0 0 22.3 1.6c7.5-.7 14.8-2.9 20.7-7.7 9.5-7.8 12.6-22.3 8.3-33.7s-16.6-19.2-29.2-19.5z"></path><path d="M221.4 497.3a31.7 31.7 0 0 0 6.3-14.4 33.3 33.3 0 0 0-2-16.8c-4-10.7-12.8-18.9-22.3-24.9-1.6-1.1-1.2-4.4 1.1-4.1a35.7 35.7 0 0 0 23.7-5.1c13.2-8.2 18.9-24.6 14.6-39.4s-18.1-24.2-32.7-24.5c-2.4 0-3.1-3.8-.6-4.2a30.1 30.1 0 0 0 18.1-10.9c8.2-10 9.8-24.2 2.3-35s-20.7-16-32.9-12.8c-2.5.7-3.6-2.6-1.7-3.9a35.3 35.3 0 0 0 10.5-11.9 37.7 37.7 0 0 0 2-31.5c-3.8-9.5-12.3-16.5-21.9-19.7l-3.7 2.8c-27.7 20.7-61.6 29-94.1 38.6s-64.7 20.6-79.7 52.9c-7.4 16-7.8 34.2-3.3 51.3a65.8 65.8 0 0 0 13.3 11.4c15.5 10.1 34.7 14.1 52.9 10a71.4 71.4 0 0 0 44.4-31.2c1.4-2.3 5.2-.2 3.7 2.2a74.5 74.5 0 0 1-80 32.9 76.4 76.4 0 0 1-31.6-16.6 97.9 97.9 0 0 0 13.6 25.3c17.9 24.3 44.6 40.8 71.8 53.9 36.8 17.8 76.4 30.7 116.8 36.6a56.7 56.7 0 0 0 11.4-11zm-155-170.2a7.9 7.9 0 0 1-9.1-6.6c-.9-6.2 6.7-15.3 13.2-11.4s3.7 17-4.1 18z" fill="#ffb36e"></path><path d="M223.8 501.2c7.6-9.4 10.4-21 7.2-32.7s-10.4-19.9-19.3-26.8c14.1-.9 27.6-9.6 33.4-22.7 6.9-15.6 3.1-34.6-10.1-45.7a41.8 41.8 0 0 0-15.6-8.2 37 37 0 0 0 19.4-26.7c2.2-14.6-6.3-28.4-19.4-34.8a36.4 36.4 0 0 0-16.1-3.6c13.9-14.6 15.6-39.4 1.4-54.8a41.7 41.7 0 0 0-14.9-10.2l-3.9 3.2c9.6 3.2 18.1 10.2 21.9 19.7a37.7 37.7 0 0 1-2 31.5 35.3 35.3 0 0 1-10.5 11.9c-1.9 1.3-.8 4.6 1.7 3.9 12.2-3.2 25.8 2.5 32.9 12.8s5.9 25-2.3 35a30.1 30.1 0 0 1-18.1 10.9c-2.5.4-1.8 4.2.6 4.2 14.6.3 28.5 10.3 32.7 24.5s-1.4 31.2-14.6 39.4a35.7 35.7 0 0 1-23.7 5.1c-2.3-.3-2.7 3-1.1 4.1 9.5 6 18.3 14.2 22.3 24.9a33.3 33.3 0 0 1 2 16.8 31.7 31.7 0 0 1-6.3 14.4 56.7 56.7 0 0 1-11.4 11l6 .8a58.2 58.2 0 0 0 7.8-7.9z"></path><path d="M96 399.6a74.7 74.7 0 0 0 23.4-23.4c1.5-2.4-2.3-4.5-3.7-2.2a71.4 71.4 0 0 1-44.4 31.2c-18.2 4.1-37.4.1-52.9-10a65.8 65.8 0 0 1-13.3-11.4q1.2 4.5 2.7 8.7a76.4 76.4 0 0 0 31.6 16.6 74.2 74.2 0 0 0 56.6-9.5z"></path><path d="M70.5 309.1c-6.5-3.9-14.1 5.2-13.2 11.4a7.9 7.9 0 0 0 9.1 6.6c7.8-1 11.1-13.7 4.1-18z"></path><path d="M407.5 620c36.6-2 74.3-11.4 104.4-33.2 5.8-4.3 11.6-8.9 16.4-14.4l.7-.9c1.3-1.8.3-4.6 0-6.7l-1.4-11.3c-1.8-14.7-3.6-29.4-5.5-44.1-7.1-57.6-13.9-115.2-21.5-172.8-6.4-47.8-16.2-97.8-49.2-135a151.1 151.1 0 0 0-109.7-50.4 145.8 145.8 0 0 0-62.1 12.7c-21.8 9.8-40.5 25.1-58.2 40.9s-35.6 33.2-56.8 44.9-47.5 19.2-72 26.3c-20.1 5.9-40.9 11.9-58.4 23.8S3.3 330.6.6 352.5s4.9 47.1 18.5 65.8 33.8 34.1 54.7 45.8a412.5 412.5 0 0 0 72.5 31.4 368.8 368.8 0 0 0 78.4 16.7 310.1 310.1 0 0 0 39.7 1.6l-2.1-2.1c-1.2 13.4-2.8 26.7-4.8 40-.5 3.1-1 6.3-1.6 9.5s-1.6 7.1-1.8 10.6a3 3 0 0 0 .8 2.4 58.5 58.5 0 0 0 9.5 9.1c19.6 16.1 44.2 25.6 68.8 31a276.8 276.8 0 0 0 74.3 5.7c2.7-.1 2.7-4.5 0-4.3-33.5 1.7-68-1.6-99.6-13.2-15.9-5.8-31.6-14-44.2-25.5a62.5 62.5 0 0 1-4.5-4.4l-1.1-1.3c-.2-.2-.8-.9-.1 0l.2 1.6c3.8-20.2 6.6-40.7 8.4-61.2a2.2 2.2 0 0 0-2.2-2.2c-44.5.9-88.7-7.6-130.4-22.9a384.2 384.2 0 0 1-58.8-26.7c-17.4-9.8-33.9-21.6-47-36.9-24.6-28.9-34.3-73.8-8.1-105 11.1-13.2 26.5-21.6 42.4-27.7 17.7-6.8 36.2-11.4 54.3-16.9 19.7-6 39.3-13.1 56.9-24s31.1-24.1 45.7-37.1 29.3-26 46.1-36.1a142.7 142.7 0 0 1 51.2-18.9c33.8-5.5 69.1 1.8 98.3 19.5a146.4 146.4 0 0 1 38.6 34.1c12.4 15.7 21.3 34 27.5 52.9s10.4 39.9 13.4 60.2c3.3 22.4 5.8 44.9 8.6 67.3q9 71.8 17.9 143.8c1.4 11.6 2.9 23.2 4.3 34.9l.7-1.5c-4.5 5.5-10.4 10.2-16.1 14.4-16 11.6-34.4 19.7-53.5 25a231.9 231.9 0 0 1-48.9 7.8c-2.8.1-2.8 4.5 0 4.3z"></path><g><path d="M124.6 149.8a52.1 52.1 0 0 0-3.3 12.9c-3.9 27.6 7.6 55.5 24.6 77.5 33 42.7 88.4 67 142.1 62.4 45.8-3.9 92.4-29.9 118.7-67.9S425 144.1 389 115.1c-27.8-22.4-70-25.7-100-6.3-18 11.7-30.7 30.1-47.9 42.9s-43.4 19-59.2 4.5c-8.6-7.8-12.9-20.7-23.6-25.2-8.7-3.7-19.2-.4-25.9 6.3a35.2 35.2 0 0 0-7.8 12.5z" fill="#8f5bd8"></path><path d="M141.9 154.3c-1.1 38.7 21.8 75.1 53.6 96 35.9 23.6 82 28.1 123.6 20.2 23.2-4.4 47.4-14.8 58.8-36.9 1.3-2.4-2.5-4.6-3.7-2.1-9.7 18.7-29.5 28.6-49.2 33.3a186.9 186.9 0 0 1-62.8 3.9c-20.4-2.2-40.4-8-58.2-18.2a118.8 118.8 0 0 1-40.4-38.1c-11.3-17.2-17.9-37.4-17.4-58.1.1-2.8-4.2-2.8-4.3 0z"></path><path d="M158.9 178.1a131.6 131.6 0 0 0 76.8 55.6c31.9 8.4 66 3.4 94.7-12.6a128.9 128.9 0 0 0 41.1-36.3c1.7-2.2-2.1-4.4-3.7-2.1-18.8 25.6-47.8 43.1-78.9 48.8s-63.2-1.5-89.5-18.6a124.5 124.5 0 0 1-36.7-37c-1.5-2.3-5.3-.1-3.8 2.2z"></path><path d="M195.4 189.8c11.6 7.1 25.5 8 38.6 5.1s26.1-10.1 37.2-18.7 22.1-19.3 33.7-28.4 24.7-17.6 39.6-18.1c13.2-.3 28.5 8.3 29.4 22.7.1 2.8 4.5 2.8 4.3 0-.8-12.7-11.1-22.3-22.8-25.7-14.1-4-29 1.6-40.9 9-25.1 15.6-43.5 41.7-71.9 52.1-14.6 5.4-31.4 6.6-45.1-1.8-2.3-1.4-4.5 2.3-2.1 3.8z"></path><path d="M338.5 147.6a16.8 16.8 0 0 1 6 30.6c-2.3 1.5-.2 5.3 2.2 3.7a21 21 0 0 0-7.1-38.4c-2.7-.6-3.9 3.6-1.1 4.1z"></path><path d="M390.6 144.5a45 45 0 0 1 4.9 55.7c-1.6 2.4 2.2 4.6 3.7 2.2a49.2 49.2 0 0 0-5.5-60.9 2.2 2.2 0 0 0-3.1 3z"></path><path d="M311.8 252.6a62 62 0 0 0 35.5-14.3c2.2-1.7-.9-4.8-3-3a58.9 58.9 0 0 1-32.5 13c-2.8.2-2.8 4.6 0 4.3z"></path><path d="M362.3 224.2c2.7 0 2.7-4.4 0-4.4s-2.8 4.4 0 4.4z"></path><path d="M133.1 190l14.7 33.8c.4 1.1 2 1.3 2.9.8a2.2 2.2 0 0 0 .8-3l-14.7-33.8c-.4-1.1-2-1.3-2.9-.8a2.3 2.3 0 0 0-.8 3z"></path><path d="M131.9 172.4c2.7 0 2.8-4.3 0-4.3s-2.8 4.3 0 4.3z"></path><path d="M238.1 283.3a104.1 104.1 0 0 0 41.8 4.5c2.8-.2 2.8-4.6 0-4.3a99.8 99.8 0 0 1-40.6-4.4c-2.7-.8-3.8 3.3-1.2 4.2z"></path><path d="M173.8 172a27.1 27.1 0 0 0 8.1 9.4 2.5 2.5 0 0 0 1.7.2 2.1 2.1 0 0 0 1.3-1 2.5 2.5 0 0 0 .2-1.7 3.1 3.1 0 0 0-1-1.3s-.4-.3-.1 0-.1-.1-.2-.1l-.5-.5-1-.9a18 18 0 0 1-1.9-2l-.4-.5-.3-.3h.1a8.3 8.3 0 0 1-.8-1.2 18.8 18.8 0 0 1-1.4-2.4 2.3 2.3 0 0 0-3-.8 2.4 2.4 0 0 0-.8 3z"></path><path d="M169.7 163.1c2.8 0 2.8-4.3 0-4.3s-2.8 4.3 0 4.3z"></path><path d="M238.2 252l24.5 3.3a2.2 2.2 0 0 0 2.7-1.5 2.2 2.2 0 0 0-1.5-2.7l-24.6-3.3a2.3 2.3 0 0 0-2.6 1.5 2.2 2.2 0 0 0 1.5 2.7z"></path><path d="M302.8 125.3a32.5 32.5 0 0 1 24.9-10.1c2.8.2 2.8-4.2 0-4.3a36.1 36.1 0 0 0-28 11.4c-1.9 2 1.2 5.1 3.1 3z"></path><path d="M122.5 149.2c-5.7 14.9-5.1 32-1.1 47.3s11.2 29.3 20.4 41.9a165.3 165.3 0 0 0 66 52.5c25.8 11.3 54.5 16.5 82.6 13.6s56.3-13.8 79.7-30.3 42.8-37.4 50.6-63.9a92.6 92.6 0 0 0-9.6-73.2 90.5 90.5 0 0 0-105.4-38.7c-13.8 4.7-25.3 13.2-35.8 23.2s-20.6 22.3-33.2 30.6c-10.9 7.1-24.9 12.1-38.1 9.7a30.2 30.2 0 0 1-16.6-8.5c-4.5-4.7-7.7-10.4-11.8-15.4s-9.3-9.3-15.8-10.4a26.7 26.7 0 0 0-19.4 4.8c-5.9 4.1-9.9 10.2-12.5 16.8-1.1 2.6 3.1 3.7 4.2 1.1 2.6-6.6 7-12.7 13.5-16s13-3.8 18.9-.5 9 8.3 12.5 13.3 7.4 10.2 12.7 13.8c10.5 7.2 24.3 7 36.2 3.6 13.4-4 24.3-12.1 34.2-21.6s20.4-21.6 32.5-30.2a78.5 78.5 0 0 1 36.6-13.9c26.5-3 53.5 6.2 72 25.4a88.2 88.2 0 0 1 24 67.1 85.7 85.7 0 0 1-10.6 35.3c-6.6 11.7-15.8 22.2-25.6 31.2a166.9 166.9 0 0 1-73.5 39 155.7 155.7 0 0 1-81-2.7 163.8 163.8 0 0 1-69.7-41.7c-20.5-20.9-36.8-49.1-36.7-79.1a62.6 62.6 0 0 1 4-23c1-2.6-3.2-3.7-4.2-1.1z"></path></g><g><path d="M433.4 563.3a49.1 49.1 0 0 0-1.3 7.5c-3.3-22.6-24.6-41.3-47.4-41.4s-44.5 18-48.1 40.6c-5.6-22-26.8-39.2-49.5-40s-44.3 14.3-51.8 35.3c-14.9-7.9-34.7.9-41.4 16.1s-1.8 32.8 9.4 44.2 27.9 16.3 43.9 15.7c.6 26.8 23.6 51.3 50.3 53.6s52.6-15.6 57.7-41.9c6.1 21.8 29 37.5 51.5 35.4s42.1-21.8 44.1-44.3c3.2 26.8 32.5 47.5 58.9 41.4s43.8-37.3 35-62.9c16.3 0 32.9-8 41.3-21.9s7.2-33.6-4.2-45.2-36.2-12.7-46.4 2.5c-8-22.9-33.3-38.2-57.3-35-21.2 2.8-39.4 19.8-44.7 40.3z" fill="#8f5bd8"></path><path d="M585.9 556.9a34.2 34.2 0 0 0-24.9-12.7 31 31 0 0 0-25 9.6c-7-15.7-21.4-27.4-38-31.7-18.3-4.7-37.2.9-50.8 13.9a56.6 56.6 0 0 0-15.4 25 53.6 53.6 0 0 0-31.9-31.1c-18-6.4-37.8-.7-51.1 12.5a53.1 53.1 0 0 0-12.6 20A57.4 57.4 0 0 0 303 531c-17.4-6.4-36.9-2.5-51.4 8.8a56.3 56.3 0 0 0-17.5 22.6c-16.4-6.7-36.2 3.2-42.8 19.5-8 20 3.1 42.6 20.7 53.1a64.2 64.2 0 0 0 33.2 8.5c1.4 20.8 15.3 40 34.3 48.7s43.3 5.3 59.8-8.6a53.1 53.1 0 0 0 16.2-23.5 53.7 53.7 0 0 0 36.2 29.4c18.4 4.1 37.3-3.1 49.3-17.4a54.1 54.1 0 0 0 10-18.2c6.3 17.7 22.9 31.3 41.6 34.2a45.6 45.6 0 0 0 31.6-6.3 53.8 53.8 0 0 0 20.5-24.2c4.4-10.3 5.8-22 2.9-33 21.2-1.2 42-15.3 45.4-37.3 1.7-10.6-.5-21.8-7.1-30.4zm3.3 26.7a37.8 37.8 0 0 1-13.2 25.5 48.3 48.3 0 0 1-31.3 11.3 2.2 2.2 0 0 0-2.1 2.7c6.4 18.9-1.7 40.7-17.3 52.7a42.3 42.3 0 0 1-27.7 8.6 49 49 0 0 1-27.9-11.4c-8.8-7.3-15.3-17.5-16.7-28.9-.4-2.8-4.1-2.9-4.4 0-1.6 16.8-13.3 31.8-28.6 38.6s-33.9 3.5-47-7.1a46.4 46.4 0 0 1-15.7-23.2c-.6-1.9-3.8-2.2-4.2 0-3.9 19.6-19.7 34.6-39 39.1s-40.4-3.4-53.1-19.3a52.4 52.4 0 0 1-11.6-30.9 2.2 2.2 0 0 0-2.2-2.2c-19.1.7-39.8-6.9-49.3-24.5a39.1 39.1 0 0 1-4-26.6 30.8 30.8 0 0 1 14.6-19.4c7.8-4.5 17.5-5.6 25.7-1.4a2.3 2.3 0 0 0 3.2-1.3c5.8-16.1 20.2-28.3 36.7-32.3s34 1.4 46.2 13.2a51.1 51.1 0 0 1 14.2 23.8c.5 2 3.8 2.2 4.1 0 2.9-16.9 15.7-31.3 31.9-36.8s34.6-.2 46.7 12.3a45.5 45.5 0 0 1 12.8 25.3c.4 2.6 4 1.6 4.3-.6a41.6 41.6 0 0 1 1.2-6.9 53.5 53.5 0 0 1 33.3-36.4c16.2-5.8 34.4-1.9 47.9 8.5a49.9 49.9 0 0 1 16.6 22.6 2.3 2.3 0 0 0 4 .5c9.7-14.2 32.1-13.6 43.3-1.7 6.6 7 9.3 16.8 8.6 26.2z"></path><path d="M374.6 624.7a29.4 29.4 0 0 1-33.6 11.9l-2.8-1.2c9.7-7.9 17.6-20.1 16-32.6-.9-6.9-5.6-12.9-12.6-14.4a19.9 19.9 0 0 0-18.7 6.2c-10.5 12.2-5.1 31.1 6.6 40.4l.9.7a40.1 40.1 0 0 1-30.3 4.9 35.4 35.4 0 0 1-21.1-14.8 40.1 40.1 0 0 0 13.3-4.4c6.8-3.7 12.8-9.6 15.6-16.9s1.6-15.4-3.8-20.7-14.8-5.8-21.5-1.8-11 11.3-12.5 18.8a36.2 36.2 0 0 0 2.1 21.1 27.5 27.5 0 0 1-10.9-2.8c-9.8-5.1-15.1-17.5-11.6-28a17.6 17.6 0 0 1 4-6.7c1.9-2-1.1-5.1-3.1-3.1-9.3 9.9-7.6 25.9.9 35.6 5.8 6.6 14.2 9.4 22.7 9.3a37.3 37.3 0 0 0 13.6 14c13.6 8.1 30.9 7.5 44.4-.6l2.2-1.4A33.1 33.1 0 0 0 371 635a35.1 35.1 0 0 0 7.3-8.1c1.5-2.4-2.2-4.6-3.7-2.2zM292 583.6c7.1-.2 12.2 4.9 12.9 11.7s-3.2 13.1-8.1 17.6a34.9 34.9 0 0 1-20 8.9 33.1 33.1 0 0 1-2.5-7.7c-2.4-11.9 3.1-30.1 17.7-30.5zm30 23.1c1-6.2 4.8-11.7 10.9-13.6s11.7-.6 15 4.4 2.4 12.1.3 17.6-6.5 11.3-11.2 15.6a33.6 33.6 0 0 1-2.9 2.4c-8.4-5.8-14-16-12.1-26.4z"></path><path d="M508 630.7c5-2.8 8.3-9.7 4.3-14.7s-11.8-4.3-16.9-2.4a25.5 25.5 0 0 0-13.1 10.7h-.2c-7.9-5.2-12.8-13.9-12.2-23.4a25.3 25.3 0 0 1 .8-4.8 26.8 26.8 0 0 0 25.7-2.5c4.6-3.3 9-8.9 7.7-14.9s-7.8-7.8-13.1-7.1c-10.1 1.3-18.4 9.1-22.6 18.1a22.2 22.2 0 0 1-7.7-21.8c2-9.1 10.5-15.6 19.7-16.3a22.2 22.2 0 0 1 6.8.7c2.7.7 3.9-3.4 1.2-4.2-11.1-3-23.9 2.3-29.5 12.4s-3.1 23.5 5.2 31.3a24.7 24.7 0 0 0 2.7 2.1 29.7 29.7 0 0 0 8.7 30.7 35 35 0 0 0 4.9 3.7 21 21 0 0 0-.8 12.9c2.7 10.3 13.4 17.6 23.9 17.4a22 22 0 0 0 7.6-1.6c2.5-1 1.4-5.2-1.2-4.2-7.9 3.3-17.1.4-22.6-6a16.7 16.7 0 0 1-3-16.4c7.6 3.4 16.5 4.3 23.7.3zm-24.1-52.2c3.7-2.1 8.8-4 12.9-2.3s2.8 8.4-.1 11.4c-6.2 6.4-16.6 8-24.6 4.3a28.5 28.5 0 0 1 11.8-13.4zm5.3 44a19.6 19.6 0 0 1 12.7-5.9c2.2 0 5.1.1 6.8 1.8s1.1 4.5-.1 6.3c-2.9 3.9-9.2 4.4-13.6 4.1a26.1 26.1 0 0 1-8.8-2.4 18.5 18.5 0 0 1 3-3.9z"></path><path d="M391.2 580.4c.1.4.1.8.2 1.3 1.6 8.3 9.7 16.2 18.6 13 2.6-.9 1.5-5.1-1.1-4.2-5 1.8-10-1.5-12.1-6a20.5 20.5 0 0 1-1.4-5 16.5 16.5 0 0 0 3.6-1.6c3.3-2 6.6-5.4 6.4-9.6s-3.1-6.9-6.8-6.5-5.8 4.1-6.7 7.3a31.9 31.9 0 0 0-1 7 10.1 10.1 0 0 1-8.1-3c-3.9-4-2.9-11.3 3.1-12.7 2.7-.6 1.5-4.8-1.2-4.2-7.8 1.8-10.9 11.4-6.7 17.9a14.5 14.5 0 0 0 13.2 6.3zm5.7-12.2c.8-1.5 2.8-3.2 3.9-.9s-1.3 5-3.1 6.3a9.2 9.2 0 0 1-2.4 1.3 17.3 17.3 0 0 1 1.6-6.7z"></path><path d="M438.3 625.5a19.2 19.2 0 0 1-11.3 6.9h-.1a16.3 16.3 0 0 0-2.6-9c-3.5-4.9-12.1-6.1-14.3.6a8.8 8.8 0 0 0 2.4 9.2c2.6 2.5 6.2 3.5 9.7 3.8v.3c-1.6 7.8-8.1 14.5-16.3 13.7.2-.6.5-1.1.7-1.7 1.4-3.3 2.4-7 1.4-10.5-1.8-6.3-8.8-8.3-13.6-3.9s-3 12.3 1.5 16.3a11.9 11.9 0 0 0 3.8 2.5c-2.3 3.5-7.1 7.7-11.1 4.4-2.2-1.7-5.3 1.3-3.1 3.1 5.4 4.3 12.5 1.8 16.4-3.2a18.7 18.7 0 0 0 2-2.9 18.3 18.3 0 0 0 8.7-.6c6.1-1.8 10.4-6.7 12.7-12.4a28.3 28.3 0 0 0 1.4-5.2 22.8 22.8 0 0 0 14.7-8.4c1.8-2.1-1.3-5.2-3-3zm-42.6 17.1a5.4 5.4 0 0 1 1.8-4.8c1.6-1.2 3.7-1.5 5.2.1s.9 8.1-1 12a9.7 9.7 0 0 1-6-7.3zm19.1-13.1a4.2 4.2 0 0 1-.4-4.8c1.3-1.9 4.1-1.1 5.5.2s2.7 4.9 2.6 7.8c-2.9-.1-6-1-7.7-3.2z"></path><path d="M230.7 615a10.5 10.5 0 0 1-11.8-4.7 11.1 11.1 0 0 1-1.2-5.7 16.3 16.3 0 0 0 3.1.3c3.2.1 7-1.3 8.5-4.3a5.8 5.8 0 0 0-4-8.1c-3.9-1.1-7.5 1.6-9.6 4.7a7 7 0 0 0-.9 1.7 9.4 9.4 0 0 1-4.6-5.6c-1.2-4.3 2-9.7 6.7-9.7 2.7 0 2.7-4.4 0-4.3-6.9 0-12 6.8-11.2 13.4.5 4.7 3.8 8.4 7.8 10.4a16.9 16.9 0 0 0 0 4.5c1.3 8.6 10.2 13.8 18.4 11.6 2.7-.7 1.5-4.9-1.2-4.2zm-9.5-17.5a3.4 3.4 0 0 1 2.9-.8c.9.2 1.7.9 1.4 1.8s-3.6 2.2-5.2 2.1l-1.5-.2a9.6 9.6 0 0 1 2.4-2.9z"></path><path d="M302.7 664.6c1 4-2.9 7.4-6.8 6.5s-6.4-6-4.9-10.2c.7-2-2.3-3.9-3.6-2.1s-5.6 7.6-10.2 7.6a4.8 4.8 0 0 1-4.4-2.2 7.2 7.2 0 0 1 0-5h.5c2.8.1 2.8-4.2 0-4.3h-2a2.2 2.2 0 0 0-2.1 1.6c-1.1 3-1.7 6.5-.3 9.5a8.5 8.5 0 0 0 6.4 4.7c4.5.7 8.1-1.3 11.1-4.2a11.3 11.3 0 0 0 9.3 9.1 10 10 0 0 0 11.2-12.1c-.7-2.8-4.9-1.6-4.2 1.1z"></path><path d="M270.9 561.5a6 6 0 1 1 11.7 2.4c-.4 1.9 2.1 4 3.6 2.1s6.2-5.7 10.3-4.8 5.7 4.1 4.6 7.3 3.3 3.8 4.2 1.2c1.8-5.2-1.9-10.7-6.8-12.4s-8.6-.1-12.1 2.5a9.9 9.9 0 0 0-7.3-7.1 10.6 10.6 0 0 0-12.4 7.7c-.6 2.7 3.5 3.8 4.2 1.1z"></path><path d="M558.6 578.7a17.2 17.2 0 0 1-22.2 15.9l.4-.6c2.4-3.4 3.9-8 2.6-12.1s-4.4-6.8-8.2-6.8-7 3-8.2 6.5.2 8 2.7 11a19.3 19.3 0 0 0 3.3 3.1 15.8 15.8 0 0 1-11.4 2.6c-2.7-.4-3.9 3.7-1.1 4.2a20.7 20.7 0 0 0 16.6-4.5 21.9 21.9 0 0 0 14.7.9c8.8-2.6 14.9-11.1 15.1-20.2.1-2.8-4.2-2.8-4.3 0zm-29.9 1.8c2.1-1.9 4.9-.8 6.1 1.5s.4 6.6-1.2 9.1l-1.2 1.6c-4-2.7-8.2-8.2-3.7-12.2z"></path></g><g><path d="M447.7 298.4a177.3 177.3 0 0 0 65.9-231.3 179.9 179.9 0 0 0-120.8 217.1z" fill="#fff"></path><path d="M525.7 196.2a177.1 177.1 0 0 0 6.4-61h-.1c-36.1 1-69.1 28.5-80.3 62-9.7 28.9-2.1 62.7 19.7 83.9a180 180 0 0 0 54.3-84.9z" fill="#ffb36e"></path><path d="M533.3 124.8A180.7 180.7 0 0 0 515.4 66a2.1 2.1 0 0 0-2.4-1 184.9 184.9 0 0 0-84.7 56.1 182.9 182.9 0 0 0-37.6 163.6c.7 2.7 4.9 1.6 4.2-1.1a181.3 181.3 0 0 1 6.6-109.7 177.1 177.1 0 0 1 62.4-79.6 179.4 179.4 0 0 1 48.6-24.6 179.2 179.2 0 0 1 17.1 61.2c-16.5 1-32.7 7.5-46 17a99 99 0 0 0-33.5 41.4 87 87 0 0 0-4.9 52.6 84.4 84.4 0 0 0 21.4 40.4 177.1 177.1 0 0 1-20 14.3c-2.3 1.4-.2 5.2 2.2 3.7a180.4 180.4 0 0 0 66.5-72.1 178.6 178.6 0 0 0 18-103.4zm-4.8 48.2a174.7 174.7 0 0 1-40.6 88.3 172.8 172.8 0 0 1-18.1 18.2c-20.6-21.2-27.5-54.1-18.1-82.3 11-32.9 43-60 78.3-61.9a176.1 176.1 0 0 1-1.5 37.7z"></path></g><g><path d="M241.5 216.1Q219.2 126.9 204.1 36a7.9 7.9 0 0 1 14.2-6.1l108.2 145.3s-5.4 30.1-32.3 40.9-52.7 0-52.7 0z" fill="#fff"></path><path d="M328.3 174.1a7.6 7.6 0 0 0-.8-1.1l-5-6.7c-6.7-9-13.4-18.1-20.2-27.1-9.2-12.4-18.4-24.9-27.7-37.3l-27.8-37.3L226.3 37l-5.2-6.9c-2.4-3.4-5.5-6-10-5.6a10.6 10.6 0 0 0-9.1 8c-.6 3.1.4 6.3.9 9.4s1.3 7.9 2 11.8c2.7 15.6 5.6 31.2 8.6 46.8 6.1 31.3 12.9 62.6 20.4 93.7 1.8 7.5 3.6 15 5.5 22.5a1.9 1.9 0 0 0 1.5 1.5c6.2 2.6 13.2 3.8 19.8 4.5 13.3 1.3 27.4-.6 39.3-6.9 14.3-7.7 24.2-22.4 28.1-38 .3-1.1.8-2.6.2-3.7zm-97.1-10.8c-1.9-8-3.6-16-5.3-24.1a45.6 45.6 0 0 0 32.5-5.3 46.6 46.6 0 0 0 18.6-21.6l14.5 19.5a2.2 2.2 0 0 0-1.7 1.4 50.6 50.6 0 0 1-58.1 30.2zM220 111.2a34.1 34.1 0 0 0 26.1-3.9 33.6 33.6 0 0 0 14-17.7l13.9 18.7a41.5 41.5 0 0 1-48.4 26.5h-.7c-1.7-7.9-3.3-15.8-4.9-23.6zm-5.6-28.9a25.3 25.3 0 0 0 19.1-.7 24.6 24.6 0 0 0 12-11.6l11.4 15.3-.2.3a29.3 29.3 0 0 1-36.7 21.1 1.4 1.4 0 0 0-.9-.1c-1.6-8.1-3.1-16.2-4.7-24.3zM242.6 66A20.9 20.9 0 0 1 214 77.4l-.5-.2c-.3-1.7-.7-3.5-1-5.2-.7-4.2-1.5-8.4-2.3-12.6a18.6 18.6 0 0 0 13.1-1.1 17.4 17.4 0 0 0 7.8-7.6zm-32.1-37a6.1 6.1 0 0 1 6 2c2.1 2.6 4.1 5.5 6.1 8.2l5.6 7.5a13.8 13.8 0 0 1-18.8 7.8c-1.1-6.1-2.2-12.2-3.1-18.4-.5-3.2.8-6.2 4.2-7.1zm21.7 138.9a55 55 0 0 0 61.6-33l6.4 8.6 8.9 12a2.4 2.4 0 0 0-.8 1.1 57.7 57.7 0 0 1-68.6 34.5 2.2 2.2 0 0 0-2 .4c-1.9-7.8-3.7-15.7-5.5-23.6zm60.3 46.6a70.4 70.4 0 0 1-33.4 3.7 71.2 71.2 0 0 1-15.8-3.7c-1.6-6.4-3.1-12.8-4.7-19.2 23.5 6.2 49.2-2 64.4-21.1a62.8 62.8 0 0 0 8.8-15l4.4 5.8c2.6 3.6 5.1 7.4 8 10.7a58.7 58.7 0 0 1-11.3 23.6 48 48 0 0 1-20.4 15.2z"></path></g></g></g></g></g></svg>