<svg xmlns="http://www.w3.org/2000/svg" width="828.8" height="1080" viewBox="-0.012557551264762878 -0.0369720458984375 828.8104858398438 1080.0618896484375" style=""><g><g data-name="Слой 2"><g data-name="Pride56_365174938"><path d="M314 909.1C122.1 857.3-6.6 637.4 42.2 444.7c49.8-196.6 275.4-330 471.6-276 196.7 52 324.5 280.9 268.7 475.7C727.8 835.5 505.9 960.8 314 909.1z" fill="#ffc0e7"></path><path d="M314.7 906.6a347.6 347.6 0 0 1-105.3-48.9 390 390 0 0 1-84.8-78.9 416.6 416.6 0 0 1-59.8-100.9 396.7 396.7 0 0 1-28.7-112.3 351.8 351.8 0 0 1 7.3-115.3A347.8 347.8 0 0 1 88.8 344a392.6 392.6 0 0 1 75.9-86.7 416.9 416.9 0 0 1 98.2-62.4 400.2 400.2 0 0 1 110.7-32.4 350.5 350.5 0 0 1 115.6 3 346.2 346.2 0 0 1 107.4 40.3 380 380 0 0 1 89 72.2 417.1 417.1 0 0 1 64.9 94.6A409.4 409.4 0 0 1 787 481.8a363.3 363.3 0 0 1 3.1 114A336.8 336.8 0 0 1 755.3 706a375.2 375.2 0 0 1-68.4 92.7 414.3 414.3 0 0 1-201.7 110.5 369.1 369.1 0 0 1-114.8 7.5 338.9 338.9 0 0 1-55.7-10.1c-3.2-.8-4.5 4-1.4 4.9a355.3 355.3 0 0 0 116.6 10.9 401.5 401.5 0 0 0 114.4-25.7 422.6 422.6 0 0 0 103.5-57.4 405.1 405.1 0 0 0 82.3-83.1A346.6 346.6 0 0 0 798 536.8a396.1 396.1 0 0 0-21.2-114.1 422.4 422.4 0 0 0-52.5-104.1 404.6 404.6 0 0 0-78.9-85.3 363.2 363.2 0 0 0-100.6-57.5 351 351 0 0 0-115.1-21.7 383.2 383.2 0 0 0-115.6 16.2 419.6 419.6 0 0 0-195.7 125.8 370.8 370.8 0 0 0-62.2 99.2 339.2 339.2 0 0 0-26.3 113.6A376.4 376.4 0 0 0 42 626.1a419.5 419.5 0 0 0 120.3 200.5 374.3 374.3 0 0 0 97.3 65.4 355.3 355.3 0 0 0 53.7 19.5c3.2.8 4.5-4 1.4-4.9z"></path><g fill="#fff"><path d="M594.3 480.3q-1.6-90.9-5.4-181.6c-1.4-34.2-3-68.5-4.8-102.7-6.4-3.3-12.9-6.4-19.5-9.4l-.3.5a2.5 2.5 0 0 1-1.6 2.4c-6 9.3-12.1 18.5-18.2 27.8q-19.2 28.9-38.5 57.9l6.2 1.7a2.6 2.6 0 0 1 1.8 3.1 2.5 2.5 0 0 1-3.1 1.8l-7.8-2.2-20.4 30.4-5.4 7.9a40 40 0 0 0 2.7 3.1c2.2 2.4-1.4 6-3.6 3.6-.7-.8-1.4-1.5-2-2.3l-28.2 41.5c.5.8.9 1.6 1.4 2.3 1.8 2.8-2.6 5.3-4.3 2.6-.1-.1-.1-.2-.2-.4q-12.3 18.1-24.7 36.1l-3.7 5.4q6.8 82.8 12.8 165.5l4.7.3 14.2.3 43.4 1.1 49.9 1.2 41.2 1.1 14.6.3q-.3-49.6-1.2-99.3z"></path><path d="M262.4 306.5q-26.2 42.8-52.6 85.5-23.7 38.3-47.5 76.4c4.9 3.9 9.9 7.7 14.9 11.5l73.8 56.8 44.5 34.3 5-6.9q29.3-40.8 58.1-82.1 31.9-45.6 63.4-91.6t64.1-94.6q30.9-45.7 61.3-92l12.6-19.2a331.2 331.2 0 0 0-46.2-15.9c-40.9-11.3-83.1-14.4-124.7-10.5-.5 4.8-.9 9.5-1.4 14.3a2.5 2.5 0 1 1-5 0c.4-4.6.8-9.2 1.3-13.8-11.7 1.3-23.4 3.1-34.9 5.4-11 18.3-22.1 36.5-33.1 54.7z"></path></g><path d="M594.3 480.3q.9 49.6 1.2 99.3l-14.6-.3-41.2-1.1-49.9-1.2-43.4-1.1-14.2-.3-4.7-.3q-6.2-82.8-12.8-165.5l-4.5 6.6c1.7 21.5 3.5 43 5.1 64.5 2.5 32.3 5 64.7 7.3 97a2.7 2.7 0 0 0 2.5 2.6l17.2.4 41.2 1 49.9 1.2 43.4 1.1c7 .2 14 .7 21 .5h.3a2.5 2.5 0 0 0 2.5-2.5q-.6-90.9-3.2-181.6T590.3 219c-.3-6.7-.7-13.4-1.1-20.2l-5.1-2.8c1.8 34.2 3.4 68.5 4.8 102.7q3.8 90.8 5.4 181.6z"></path><path d="M468.4 436.9L445 458.8c-2.4 2.3 1.2 5.8 3.6 3.6l23.4-21.9c2.4-2.2-1.2-5.8-3.6-3.6z"></path><path d="M462 408.9l-22.6-12.8c-2.8-1.6-5.4 2.7-2.5 4.3l22.5 12.8c2.8 1.6 5.4-2.7 2.6-4.3z"></path><path d="M447.6 366.1c-.5-.7-.9-1.5-1.4-2.3l-3.1 4.5c.1.2.1.3.2.4 1.7 2.7 6.1.2 4.3-2.6z"></path><path d="M500.3 342.7l13.1-10.1a2.5 2.5 0 0 0 .9-3.4 2.4 2.4 0 0 0-3.4-.9l-13.2 10a2.6 2.6 0 0 0-.9 3.4 2.6 2.6 0 0 0 3.5 1z"></path><path d="M511.6 402.5c.8 1.1 2.7.9 3.6 0a2.6 2.6 0 0 0 0-3.5 71.5 71.5 0 0 0-23.3-19 2.6 2.6 0 0 0-3.4.9 2.4 2.4 0 0 0 .9 3.4 69.7 69.7 0 0 1 22.2 18.2z"></path><path d="M527 445.3l-20.8 11.3c-2.9 1.5-.3 5.9 2.5 4.3l20.9-11.2c2.8-1.6.3-5.9-2.6-4.4z"></path><path d="M561.9 425.6c-2.2-7.9-4.4-15.9-6.5-23.9-.9-3.1-5.7-1.7-4.9 1.4 2.2 8 4.4 15.9 6.5 23.9.9 3.1 5.7 1.8 4.9-1.4z"></path><path d="M561 462.5a2.6 2.6 0 0 0 1.2 1.5 2.6 2.6 0 0 0 1.9.3 2.6 2.6 0 0 0 1.5-1.2l7.4-9.9a2.4 2.4 0 0 0 .3-1.9 2.6 2.6 0 0 0-1.2-1.5 2.1 2.1 0 0 0-1.9-.2 2.8 2.8 0 0 0-1.5 1.1l-7.4 9.9a2.6 2.6 0 0 0-.3 1.9z"></path><path d="M563.8 355.7a2.5 2.5 0 0 0-3.5-3.5l-13.1 12.9a2.5 2.5 0 0 0 0 3.6 2.5 2.5 0 0 0 3.5 0z"></path><path d="M480 321a40 40 0 0 1-2.7-3.1c-1 1.5-2 2.9-2.9 4.4.6.8 1.3 1.5 2 2.3 2.2 2.4 5.8-1.2 3.6-3.6z"></path><path d="M514 280a2.6 2.6 0 0 0-1.8-3.1l-6.2-1.7c-1 1.5-2 2.9-2.9 4.4l7.8 2.2a2.5 2.5 0 0 0 3.1-1.8z"></path><path d="M558.7 301.1a51.6 51.6 0 0 0-11.6 19.8 2.4 2.4 0 0 0 1.7 3.1 2.5 2.5 0 0 0 3.1-1.8 45.3 45.3 0 0 1 10.4-17.5 2.5 2.5 0 1 0-3.6-3.6z"></path><path d="M563.7 272.2a2.7 2.7 0 0 0-.9-3.5l-18.7-8.9a2.5 2.5 0 0 0-3.4.9 2.6 2.6 0 0 0 .9 3.4l18.6 9a2.7 2.7 0 0 0 3.5-.9z"></path><path d="M550.4 232.8l9.3-11.9a2.6 2.6 0 0 0 .7-1.7 2.7 2.7 0 0 0-.7-1.8c-.9-.8-2.7-1.1-3.6 0l-9.3 11.8a3.1 3.1 0 0 0-.7 1.8 2.9 2.9 0 0 0 .7 1.8c.9.8 2.7 1.1 3.6 0z"></path><path d="M564.3 187.1l-1.6 2.4a2.5 2.5 0 0 0 1.6-2.4z"></path><path d="M264.7 293c-17.6 28.8-35.2 57.4-52.9 86.1-16.3 26.5-32.8 53-49.2 79.4l-5.8 9.2a2.6 2.6 0 0 0 .9 3.5q23.1 17.9 46.3 35.6l73.8 56.9 17 13c1.1.9 2.7.1 3.4-.9q28.9-40 57.2-80.5c18.4-26.2 36.6-52.6 54.8-78.9l4.5-6.6 3.7-5.4q12.5-18 24.7-36.1l3.1-4.5 28.2-41.5c.9-1.5 1.9-2.9 2.9-4.4l5.4-7.9 20.4-30.4c.9-1.5 1.9-2.9 2.9-4.4q19.3-28.9 38.5-57.9c6.1-9.3 12.2-18.5 18.2-27.8l1.6-2.4.3-.5-4.6-2-12.6 19.2q-30.4 46.2-61.3 92-31.8 47.4-64.1 94.6T358.6 482q-28.8 41.3-58.1 82.1l-5 6.9-44.5-34.3-73.8-56.8c-5-3.8-10-7.6-14.9-11.5q23.8-38.1 47.5-76.4 26.4-42.7 52.6-85.5l53.6-87.7c11-18.2 22.1-36.4 33.1-54.7l-6.7 1.5c-8.1 13.2-16.1 26.5-24.1 39.7q-26.7 44-53.6 87.7z"></path><path d="M277.5 380.7l-31.8 3.9a2.5 2.5 0 1 0 0 5l31.8-3.9a2.5 2.5 0 0 0 2.5-2.5c0-1.2-1.1-2.7-2.5-2.5z"></path><path d="M277.7 330.4a2.5 2.5 0 0 0-3.5-.9 2.5 2.5 0 0 0-.9 3.4c3.6 7.9 7.1 15.8 10.7 23.6a2.4 2.4 0 0 0 3.4.9 2.5 2.5 0 0 0 .9-3.4c-3.5-7.9-7.1-15.8-10.6-23.6z"></path><path d="M302.1 311.1a93.8 93.8 0 0 1 6.2-28.1 2.6 2.6 0 0 0-1.7-3.1 2.5 2.5 0 0 0-3.1 1.8 95.6 95.6 0 0 0-6.4 29.4c-.2 3.2 4.8 3.2 5 0z"></path><path d="M375.3 318.1l-16.6.3a2.5 2.5 0 1 0 0 5l16.6-.3a2.5 2.5 0 1 0 0-5z"></path><path d="M332.2 378.1c.2 3.2 5.2 3.2 5.1 0a72.8 72.8 0 0 0-7.8-29.7c-1.4-2.9-5.8-.4-4.3 2.5a67.2 67.2 0 0 1 7 27.2z"></path><path d="M293.3 420.7a2.5 2.5 0 0 0 1.8 3.1l23.4 3.2a2.6 2.6 0 0 0 3.1-1.7 2.5 2.5 0 0 0-1.7-3.1l-23.5-3.2a2.6 2.6 0 0 0-3.1 1.7z"></path><path d="M366.4 400.3a2.5 2.5 0 0 0-3.1 1.8l-8.9 23.1a2.5 2.5 0 0 0 1.8 3.1 2.6 2.6 0 0 0 3.1-1.7c2.9-7.8 5.9-15.5 8.8-23.2a2.6 2.6 0 0 0-1.7-3.1z"></path><path d="M350.2 450.9l-11.8 3.6a2.6 2.6 0 0 0-1.7 3.1 2.5 2.5 0 0 0 3.1 1.8l11.8-3.6a2.5 2.5 0 0 0-1.4-4.9z"></path><path d="M401 366.6l-18.2 2.7a2.5 2.5 0 0 0-1.8 3.1 2.6 2.6 0 0 0 3.1 1.7l18.2-2.7a2.5 2.5 0 0 0 1.8-3.1 2.6 2.6 0 0 0-3.1-1.7z"></path><path d="M356.7 271.8c.9-3.1-4-4.4-4.9-1.3a62.2 62.2 0 0 0-2 23.9 2.7 2.7 0 0 0 2.6 2.5 2.6 2.6 0 0 0 2.5-2.5 55.7 55.7 0 0 1 1.8-22.6z"></path><path d="M341.1 241.1l21-10.2a2.6 2.6 0 0 0 .9-3.4 2.6 2.6 0 0 0-3.5-.9l-20.9 10.2a2.4 2.4 0 0 0-.9 3.4 2.5 2.5 0 0 0 3.4.9z"></path><path d="M396.7 264.5a2.6 2.6 0 0 0-3.6 0 2.7 2.7 0 0 0 0 3.6c3.4 4.2 6.7 8.5 10 12.7a2.5 2.5 0 0 0 3.6-3.6c-3.3-4.2-6.7-8.4-10-12.7z"></path><path d="M408.5 336.7a2.5 2.5 0 0 0 3.4.9 46.9 46.9 0 0 1 19.3-8.3 2.4 2.4 0 0 0 1.7-3.1 2.5 2.5 0 0 0-3.1-1.7 49.6 49.6 0 0 0-20.4 8.8 2.5 2.5 0 0 0-.9 3.4z"></path><path d="M442.7 282.1a2.6 2.6 0 0 0-4.4 2.6l9.8 18.2a2.5 2.5 0 0 0 4.3-2.5z"></path><path d="M477.2 255.3l-14.5 4.1a2.6 2.6 0 0 0-1.8 3.1 2.6 2.6 0 0 0 3.1 1.8l14.5-4.1a2.5 2.5 0 1 0-1.3-4.9z"></path><path d="M431.1 248.1c1.9-6.5 3.7-13 5.6-19.6.9-3.1-4-4.4-4.9-1.3-1.8 6.5-3.7 13.1-5.6 19.6-.9 3.1 4 4.5 4.9 1.3z"></path><path d="M367.4 201.2l22.6 16.5a2.6 2.6 0 0 0 3.4-.9 2.6 2.6 0 0 0-.9-3.5l-22.6-16.4a2.6 2.6 0 0 0-3.5.9 2.5 2.5 0 0 0 1 3.4z"></path><path d="M385.2 175a2.5 2.5 0 0 0 2.5-2.5c.5-4.8.9-9.5 1.4-14.3l-5.1.5c-.5 4.6-.9 9.2-1.3 13.8a2.5 2.5 0 0 0 2.5 2.5z"></path><path d="M422.3 187.9c-3.2 0-3.2 5 0 5l20.9.3c3.2 0 3.2-5 0-5.1z"></path><path d="M481.2 200.5a2.7 2.7 0 0 0 3.1 1.8 2.6 2.6 0 0 0 1.8-3.1c-1.3-5.6-2.5-11.1-3.8-16.6a2.5 2.5 0 0 0-3.1-1.8 2.6 2.6 0 0 0-1.8 3.1c1.3 5.5 2.6 11.1 3.8 16.6z"></path><path d="M502.3 234.9l7.5-26.3c.9-3.1-3.9-4.5-4.8-1.4-2.5 8.8-5.1 17.6-7.6 26.4-.9 3.1 4 4.5 4.9 1.3z"></path><path d="M464.8 227.2a2.5 2.5 0 0 0 2.5 2.5l8.8-1a2.9 2.9 0 0 0 1.8-.7 2.6 2.6 0 0 0 .7-1.8c0-1.2-1.1-2.7-2.5-2.5l-8.8.9a3 3 0 0 0-1.8.8 2.3 2.3 0 0 0-.7 1.8z"></path><g><path d="M616.3 534.2c-.1-.2-.1-.5-.2-.7-4.8-15.4-8.9-32.8-20-44.9-6.5-7.1-15-4-23.7-3.2-41.3 3.9-82.6 7.3-123.9 10.6-13.6 1.1-25.5-1.2-29.6 14.1-2.5 9.4-2.7 19.9-2.8 30.1l144.8-4.3z" fill="#ff5794"></path><path d="M633.4 595.2c-7.9-19.4-11.5-42.5-17.1-60.8l-55.4 1.5-144.8 4.5c-.1 4-.1 7.8-.3 11.6-.8 13.5-1.4 27.7-1.3 41 .1 2.9.1 5.9.2 8.8l148.1-4.4z" fill="#ffb36e"></path><path d="M729.5 653.8c-12.3-10.1-28.2-17.2-48.5-19.1-25.8-2.3-39.1-18.8-47.5-39.3l-70.7 2-148.1 4.6c.4 20.5 1.4 40.9 2.3 61.3q73.8-2.4 147.7-4.4z" fill="#ffeb73"></path><path d="M471.4 661.8c10.7 20 21.4 39.9 32 59.9l63.2-1.8 197-6.1c-4.9-21.7-15.2-44.3-33.9-59.8-55 1.8-110 3.3-165 4.9z" fill="#70f279"></path><path d="M471.4 661.8l-54.4 1.7c.4 8.9.7 17.7 1 26.6l.9 34.1 54.1-1.7c-.8-20-1.5-40.2-1.6-60.7z" fill="#70f279"></path><path d="M503.5 721.8l32.3 60.5 32.6-.9 193.8-6a68.1 68.1 0 0 0 4.9-21.4 146.1 146.1 0 0 0-3.5-40.1c-65.6 2.3-131.3 4.1-197 6z" fill="#7089ef"></path><path d="M473 722.7l-54 1.7 1.5 61.3 54.8-1.7c-.6-20.6-1.5-40.9-2.3-61.3z" fill="#7089ef"></path><path d="M421.6 838.1a59.3 59.3 0 0 0 53.9-3.3c.4-17.2.2-34-.2-50.6l-54.8 1.7c.4 17.4.8 34.8 1.1 52.2z" fill="#8f5bd8"></path><path d="M535.8 782.4l1.4 2.5c6.7 12.5 13.9 25.6 25.9 33.3 9.8 6.2 21.7 8.1 33.3 9.3 35.9 3.7 76 3.9 111.2-4.9 23.9-6 45.2-24.1 54.6-47.1-64.6 2.2-129.2 4-193.8 5.9z" fill="#8f5bd8"></path><path d="M594.3 490.4c9.7 10.7 13.7 25 17.7 38.5 3 9.7 5.6 19.5 7.9 29.4 4.6 19.2 9.2 39.7 20.9 56.1 5.6 7.8 12.8 14.3 21.6 18.2a57.2 57.2 0 0 0 15.2 4.2 174.2 174.2 0 0 1 17.6 2.8 82.5 82.5 0 0 1 48.1 32.9c10.5 15 16.6 32.6 19.6 50.5s3.5 37.7-4.4 54.6a79.2 79.2 0 0 1-23.4 28.9 85.1 85.1 0 0 1-16.5 9.7c-6.1 2.7-12.7 4.3-19.3 5.7-31.5 6.7-64.4 6.6-96.4 3.7-14.6-1.3-30.7-2.7-42.5-12.5s-17.7-23.3-24.5-36l-50-93.6-12.3-23c-1.2-2.3-4.7-1.2-4.7 1.2.2 44.8 3.3 89.5 4.1 134.3.3 12.9.3 25.9 0 38.8l1.3-2.2a57.2 57.2 0 0 1-51.4 3.4l1.2 2.1c-.6-35.9-1.5-71.9-2.5-107.8-.5-17.8-.9-35.7-1.6-53.5s-1.6-35.4-2.2-53.1-1-34.7-.4-52.1c.3-8.4.9-16.8 1.1-25.2s.1-16.3.9-24.4a62.9 62.9 0 0 1 2-11.5 16.7 16.7 0 0 1 3.6-7c3.2-3.4 8-4.1 12.5-4.4 6.7-.4 13.4-.7 20.1-1.3l26.6-2.2c17.7-1.4 35.5-2.9 53.2-4.5l26.6-2.4c4.1-.4 8.2-.7 12.3-1.3a53.3 53.3 0 0 1 9.8-.8 11.7 11.7 0 0 1 8.2 3.8c2.3 2.4 5.8-1.2 3.6-3.6-5.2-5.4-12-5.7-19.1-4.8s-16.8 1.9-25.3 2.6c-18.2 1.7-36.4 3.2-54.6 4.8l-27.3 2.2c-8.6.7-17.2 1.6-25.9 2.1-5.4.3-11 .1-16.2 1.6a17.9 17.9 0 0 0-11.5 9.8c-3.1 7-3.7 15.3-4.1 22.9s-.3 16.4-.7 24.6c-.9 17.7-1.4 35.3-1 52.9s1.3 36.4 2.1 54.6 1.4 36.4 1.9 54.7c1 36.6 1.9 73.3 2.6 109.9l.3 13.4a2.4 2.4 0 0 0 1.2 2.2 62 62 0 0 0 49.4.3l4.1-1.9c1.6-.9 3.9-1.7 4.2-3.6s.1-4 .2-5.9v-6.3c.1-4 .1-8.1 0-12.1-.1-31.8-1.7-63.5-3-95.3-.7-17.9-1.2-35.8-1.3-53.8l-4.7 1.3 51.2 95.8 12.6 23.6c3.6 6.7 7.1 13.4 11.2 19.7a66.6 66.6 0 0 0 14.4 16 53.1 53.1 0 0 0 20.4 9.2 167.5 167.5 0 0 0 23.3 3.3c8.1.7 16.3 1.2 24.4 1.5a339.4 339.4 0 0 0 49.4-1.5 245.7 245.7 0 0 0 24.3-3.8 104.9 104.9 0 0 0 19.8-5.9 85.1 85.1 0 0 0 31.1-22.9 76.8 76.8 0 0 0 17.2-34.7 106.1 106.1 0 0 0 1-26.4 142.9 142.9 0 0 0-13.4-52.5c-8.6-17.7-22.1-33.1-39.7-42.3a95.2 95.2 0 0 0-33-9.7c-5.5-.6-10.8-1.3-16.1-3.2a45.8 45.8 0 0 1-12.2-6.9c-15.6-12.3-22-32.8-26.8-51.2-2.6-9.9-4.7-19.9-7.4-29.8-1.4-5.3-3.1-10.6-4.7-15.9a173.9 173.9 0 0 0-7.3-21 64.3 64.3 0 0 0-11-17.6c-2.2-2.4-5.7 1.2-3.6 3.6z"></path><g><path d="M498.1 639.2q13.8 28.8 28.7 57.2c10 19 20.3 37.7 31 56.3 6 10.4 12.1 20.8 18.3 31 1.7 2.8 6 .3 4.4-2.5-11.1-18.3-21.8-36.7-32.1-55.4s-20.4-37.7-30-56.8q-8.1-16.1-15.9-32.4a2.6 2.6 0 1 0-4.4 2.6z"></path><path d="M693.1 678.6l-2.1 14.7a2.5 2.5 0 1 0 4.9 1.3L698 680c.1-1.3-.4-2.8-1.8-3.1s-2.9.3-3.1 1.7z"></path><path d="M704.7 684.6c-.7 3.9-1.5 7.7-2.2 11.5a2.5 2.5 0 0 0 4.9 1.4c.7-3.9 1.4-7.7 2.2-11.5a2.6 2.6 0 0 0-1.8-3.1 2.5 2.5 0 0 0-3.1 1.7z"></path><path d="M446.6 524a32 32 0 0 0-7.3 12.1 2.6 2.6 0 0 0 1.8 3.1 2.5 2.5 0 0 0 3.1-1.8c.2-.5.3-1 .5-1.5l.2-.3c0-.1.2-.5 0-.1l.1-.2.2-.4c.4-.9.9-1.9 1.4-2.8l1.8-2.5c0-.1.1-.2.2-.3l.5-.5a6.9 6.9 0 0 1 1.1-1.3 2.5 2.5 0 0 0 0-3.5 2.6 2.6 0 0 0-3.6 0z"></path><path d="M459.5 525.9c-3.2 5.2-6.4 10.4-9.7 15.5a2.6 2.6 0 0 0 .9 3.5 2.7 2.7 0 0 0 3.5-.9c3.2-5.2 6.4-10.4 9.7-15.5a2.6 2.6 0 0 0-.9-3.5 2.7 2.7 0 0 0-3.5.9z"></path><path d="M451.3 764.2c.7 13.5 1.3 27 2 40.5.2 3.2 5.2 3.3 5 0-.6-13.5-1.3-27-1.9-40.5-.2-3.3-5.2-3.3-5.1 0z"></path><path d="M457.4 737.4c3.2 0 3.2-5 0-5s-3.3 5 0 5z"></path><path d="M625.8 807.6a123.5 123.5 0 0 0 67.8-2.1c3.1-1 1.8-5.9-1.3-4.9a119.1 119.1 0 0 1-51 4.8 114.6 114.6 0 0 1-14.2-2.7c-3.1-.8-4.5 4.1-1.3 4.9z"></path><path d="M710.5 798.8c3.3 0 3.3-5.1 0-5.1s-3.2 5.1 0 5.1z"></path><path d="M577 508.4a73.1 73.1 0 0 1 10.1 25.7 2.5 2.5 0 1 0 4.8-1.3 73.7 73.7 0 0 0-10.5-26.9c-1.8-2.8-6.1-.2-4.4 2.5z"></path></g></g><g><path d="M339.1 546.6a1.4 1.4 0 0 1 .2-.7c5.2-15.3 12.2-31.7 10.4-48.1-1.1-9.5-9.8-12.1-17.3-16.6-35.6-21.2-70.9-42.8-106.2-64.5-11.7-7.2-19.9-16-32.2-6.1-7.7 6.1-14 14.5-20.1 22.6q59.9 40.9 119.4 82z" fill="#ff5794"></path><path d="M173.8 433.4c-2.4 3.1-4.7 6.2-7.1 9.1-8.6 10.6-17.5 21.6-25.2 32.4l-5.1 7.2Q197.6 524 258.6 566l58.3 39.9c5.1-20.4 15.8-41.1 22.1-59.2l-45.7-31.5z" fill="#ffb36e"></path><path d="M136.3 482.3c-11.8 16.7-23 33.8-34.3 50.8q61 41.7 121.9 83.7l135.9 93.1c-3.9-15.5-12.5-30.6-27.8-44.1-19.5-17.1-20.5-38.2-15.2-59.7L258.6 566z" fill="#ffeb73"></path><path d="M146.8 564.1c-3.2 22.3-6.3 44.7-9.5 67.1l52.1 35.9L352 778.5c8.8-20.4 13.8-44.7 7.9-68.3q-68.1-46.5-136-93.4z" fill="#70f279"></path><path d="M146.8 564l-45-30.7c-4.9 7.4-9.8 14.7-14.8 22-6.5 9.4-12.9 18.8-19.4 28.1l44.6 30.6c11.2-16.7 22.6-33.3 34.6-50z" fill="#70f279"></path><path d="M137.3 631.4l-9.6 67.9 26.9 18.6 159.9 109.5a71.1 71.1 0 0 0 16.6-14.4 149.1 149.1 0 0 0 20.9-34.4q-81.6-55.5-162.6-111.5z" fill="#7089ef"></path><path d="M112.1 614.2l-44.6-30.6L32.6 634l45.2 31c11.7-17 22.9-33.9 34.3-50.8z" fill="#7089ef"></path><path d="M2.5 677c9.4 16.2 26.9 27.5 45.5 29.1 10.4-13.6 20.2-27.3 29.7-41l-45.2-30.9z" fill="#8f5bd8"></path><path d="M127.7 699.4a27 27 0 0 0-.4 2.8c-2 14.1-3.9 28.9 1.2 42.2 4.3 10.8 12.8 19.4 21.4 27.2 26.8 24.1 59.1 48 92.7 61.6 22.8 9.3 50.7 7.3 71.8-5.8Q234.3 773 154.6 717.9z" fill="#8f5bd8"></path><path d="M347.2 497.8c1.5 14.9-3.9 29.2-8.8 43.1-3.8 10.7-8.1 21.2-12.4 31.7-8.4 20-17.4 42.3-13.6 64.5a53.1 53.1 0 0 0 16 28.9c4.6 4.4 9.3 8.6 13.3 13.5a84.8 84.8 0 0 1 9.4 14.4c9.5 18.3 10.8 39.4 6.5 59.3a141 141 0 0 1-22.2 49.9c-5.5 7.9-11.8 15.1-19.8 20.6a76 76 0 0 1-31.5 11.9 77.9 77.9 0 0 1-33.6-2.3c-13-3.8-25.4-10.6-37-17.4a327.1 327.1 0 0 1-36.1-24.5 351.1 351.1 0 0 1-32.1-27.6 71.1 71.1 0 0 1-12.3-15.6 46.7 46.7 0 0 1-5.2-20.4 124.1 124.1 0 0 1 1.5-21.9c1-7.8 2.2-15.6 3.3-23.4q6.6-47.2 13.4-94.5l3.3-23.4a2.5 2.5 0 0 0-4.6-1.9c-26.2 36.2-50.1 74.1-75.8 110.7-7.5 10.6-15.2 21.1-23 31.4l2.1-1.2a57.4 57.4 0 0 1-43.3-27.9v2.5q30.6-43.4 60.7-87.1c19.8-28.7 39.1-57.6 58.5-86.4 9.6-14.3 19.4-28.5 29.9-42.1 5.2-6.6 10.5-13.1 15.7-19.6s9-11.9 13.6-17.6 9.9-12.3 16.5-15.5 11.8.2 16.9 3.5c14.2 9.1 28.5 17.8 42.9 26.6s30.1 18.4 45.3 27.5c7.5 4.5 15 9.1 22.5 13.5l9.2 5.3a31.1 31.1 0 0 1 6.9 4.4 11.7 11.7 0 0 1 3.9 7.1 2.5 2.5 0 0 0 2.5 2.5 2.4 2.4 0 0 0 2.5-2.5c-.9-6.5-4.6-10.8-10.1-14.1-2.6-1.6-5.3-2.9-7.9-4.4s-7.7-4.6-11.6-6.9l-46.8-28.3-46.2-28.3c-6.1-3.7-11.9-8.5-18.6-11s-13.3-.4-18.8 4-11 10.8-15.7 16.9-9.5 12.4-14.4 18.5q-16.7 20.4-31.7 42.1c-20.3 29.3-39.6 59.1-59.8 88.4S29 634.9 8 664.8L.4 675.7a2.1 2.1 0 0 0 0 2.5 61.1 61.1 0 0 0 28 25.2 58.6 58.6 0 0 0 18.4 5.1c2.2.3 2.9-.4 4.2-2.1s2.5-3.4 3.8-5l7.4-10.1c19.2-26.3 37-53.5 55.2-80.5 10.3-15.3 20.8-30.6 31.6-45.6l-4.6-1.9c-4.6 32.3-9.2 64.7-13.7 97-2.3 15.9-4.7 31.7-6.7 47.6s-2.5 29.6 4.7 42.8 17.6 21.2 27.8 30a399.6 399.6 0 0 0 35 27.2 285.7 285.7 0 0 0 38.6 22.5c11.3 5.4 22.7 9.6 35.3 10.7 23.1 2.1 47.4-5.5 63.8-22.3 6.1-6.2 11.1-13.5 15.6-20.9a148.8 148.8 0 0 0 12.3-25.4c7.1-19 10.2-40.1 5.9-60.2a82.7 82.7 0 0 0-13.1-30.1 92.3 92.3 0 0 0-12.1-14.4c-4.6-4.5-9.4-8.4-13.1-13.7-13.2-19.3-7.8-43.3-.4-63.7 4-11.1 8.9-21.8 13.2-32.7 2.2-5.5 4.2-11 6.1-16.6a200.5 200.5 0 0 0 6.8-21.6 66.1 66.1 0 0 0 1.8-21.7c-.3-3.2-5.4-3.2-5 0z"></path><g><path d="M181.8 561.1c-4 21.1-7.5 42.2-10.7 63.4s-5.9 42.5-8.2 63.9c-1.3 12-2.5 24.1-3.6 36.1a2.6 2.6 0 0 0 5.1 0c1.8-21.2 4.1-42.5 6.8-63.6s5.7-42 9.2-62.9c1.9-11.9 4-23.7 6.3-35.5a2.6 2.6 0 0 0-1.8-3.1 2.5 2.5 0 0 0-3.1 1.7z"></path><path d="M315.6 708.7c-3.4 3.5-6.9 7-10.3 10.6a2.4 2.4 0 0 0 0 3.5 2.5 2.5 0 0 0 3.5 0l10.4-10.6a2.5 2.5 0 0 0 0-3.5 2.5 2.5 0 0 0-3.6 0z"></path><path d="M321.4 720.3l-8.5 8a2.5 2.5 0 0 0 0 3.6 2.6 2.6 0 0 0 3.6 0l8.5-8a2.5 2.5 0 0 0 0-3.6 2.7 2.7 0 0 0-3.6 0z"></path><path d="M207.9 438.2a31.4 31.4 0 0 0-12.5 5.2 2.6 2.6 0 0 0-.9 3.5 2.7 2.7 0 0 0 3.5.9 15.9 15.9 0 0 1 2.7-1.8l1.3-.7.7-.3.4-.2a21.3 21.3 0 0 1 6.1-1.7 2.5 2.5 0 1 0-1.3-4.9z"></path><path d="M217.7 447.2l-16.9 6.8a2.6 2.6 0 0 0-1.8 3.1 2.5 2.5 0 0 0 3.1 1.8l17-6.8a2.6 2.6 0 0 0 1.7-3.1 2.5 2.5 0 0 0-3.1-1.8z"></path><path d="M70 635l-22.3 33.9c-1.8 2.7 2.6 5.3 4.3 2.6l22.4-33.9c1.8-2.8-2.6-5.3-4.4-2.6z"></path><path d="M92.4 617.3c3.2 0 3.2-5.1 0-5.1s-3.3 5.1 0 5.1z"></path><path d="M185.6 773a123.7 123.7 0 0 0 41.9 32.6 143.3 143.3 0 0 0 14.1 5.7c3.1 1 4.4-3.9 1.4-4.9a118.7 118.7 0 0 1-43.9-26.3 125.3 125.3 0 0 1-10-10.6c-.8-1.1-2.6-.9-3.5 0a2.4 2.4 0 0 0 0 3.5z"></path><path d="M260.5 816.2c3.2 0 3.3-5 0-5s-3.2 5 0 5z"></path><path d="M322.6 502.8a70.2 70.2 0 0 1-6.9 26.1 2.6 2.6 0 0 0 .9 3.4 2.6 2.6 0 0 0 3.5-.9 76.8 76.8 0 0 0 7.5-28.6c.2-3.2-4.8-3.2-5 0z"></path></g></g><g><path d="M657.4 504a90.8 90.8 0 0 1 22.2 39.2 56 56 0 0 1 21.8-41.2 55.5 55.5 0 0 1-24.3-39.7 89.5 89.5 0 0 1-19.8 40.5" fill="#ffeb73"></path><path d="M655.6 505.8a86.7 86.7 0 0 1 21.5 38.1c.8 2.8 4.8 2.1 5-.7a53.3 53.3 0 0 1 20.6-39 2.5 2.5 0 0 0 0-4.3 52.8 52.8 0 0 1-23.1-37.6 2.8 2.8 0 0 0-2.2-2.5 2.6 2.6 0 0 0-2.8 1.8 86 86 0 0 1-19.1 39.4 2.5 2.5 0 1 0 3.6 3.6 92.4 92.4 0 0 0 20.4-41.6l-5-.7a59.1 59.1 0 0 0 16.9 34.8 50.7 50.7 0 0 0 8.8 7.1v-4.3a58.7 58.7 0 0 0-23.2 43.3l5-.6a92.3 92.3 0 0 0-22.9-40.3c-2.2-2.4-5.8 1.2-3.5 3.5z"></path><path d="M147.5 344.3a88.3 88.3 0 0 1 22.2 39.2 55.9 55.9 0 0 1 21.9-41.2 55.8 55.8 0 0 1-24.4-39.7 88.8 88.8 0 0 1-19.7 40.5" fill="#ffeb73"></path><path d="M145.8 346.1a86.7 86.7 0 0 1 21.5 38.1c.8 2.8 4.8 2.1 5-.7a53.1 53.1 0 0 1 20.6-39c1.5-1.2 1.7-3.3 0-4.4a52.6 52.6 0 0 1-23.1-37.5 2.7 2.7 0 0 0-2.2-2.5 2.6 2.6 0 0 0-2.8 1.8 87.5 87.5 0 0 1-19.1 39.4 2.5 2.5 0 0 0 0 3.5 2.5 2.5 0 0 0 3.6 0 91.4 91.4 0 0 0 20.4-41.6l-5-.6a59.9 59.9 0 0 0 16.8 34.8 66.7 66.7 0 0 0 8.8 7.1v-4.4a58.6 58.6 0 0 0-23.1 43.4l5-.7a93.4 93.4 0 0 0-22.9-40.3c-2.2-2.3-5.8 1.3-3.5 3.6z"></path><path d="M352.9 850.9a89.3 89.3 0 0 1 22.2 39.2 56 56 0 0 1 21.8-41.2 55.5 55.5 0 0 1-24.3-39.7 89.5 89.5 0 0 1-19.8 40.5" fill="#ffeb73"></path><path d="M351.1 852.7a86.7 86.7 0 0 1 21.5 38.1c.8 2.8 4.8 2.1 5-.7a53.3 53.3 0 0 1 20.6-39 2.5 2.5 0 0 0 0-4.3 53.1 53.1 0 0 1-23.1-37.6 2.8 2.8 0 0 0-2.2-2.5 2.6 2.6 0 0 0-2.8 1.8 86 86 0 0 1-19.1 39.4 2.7 2.7 0 0 0 0 3.6 2.6 2.6 0 0 0 3.6 0 92.4 92.4 0 0 0 20.4-41.6l-4.9-.7a58.4 58.4 0 0 0 16.8 34.8 50.7 50.7 0 0 0 8.8 7.1v-4.3a58.7 58.7 0 0 0-23.2 43.3l5-.6a91.3 91.3 0 0 0-22.9-40.3c-2.2-2.4-5.8 1.2-3.5 3.5z"></path><path d="M87.1 419a44.6 44.6 0 0 1 11.1 19.6 27.9 27.9 0 0 1 10.9-20.6 27.9 27.9 0 0 1-12.2-19.9 44.4 44.4 0 0 1-9.9 20.3" fill="#ffeb73"></path><path d="M85.3 420.8a41.6 41.6 0 0 1 10.4 18.5c.8 2.8 4.8 2.1 5-.7a25.2 25.2 0 0 1 9.7-18.4c1.5-1.2 1.7-3.3 0-4.4a25.2 25.2 0 0 1-11-17.7 2.4 2.4 0 0 0-2.2-2.4 2.3 2.3 0 0 0-2.7 1.8 44.1 44.1 0 0 1-9.2 19.1 2.5 2.5 0 0 0 3.5 3.5 47.5 47.5 0 0 0 10.5-21.3l-4.9-.7a31.1 31.1 0 0 0 13.4 22.1v-4.4a31.1 31.1 0 0 0-12.2 22.8l5-.7a47.7 47.7 0 0 0-11.8-20.7c-2.2-2.3-5.8 1.2-3.5 3.6z"></path><path d="M368 626a43.6 43.6 0 0 1 11.1 19.6A27.7 27.7 0 0 1 390 625a27.8 27.8 0 0 1-12.1-19.9 44.6 44.6 0 0 1-9.9 20.2" fill="#ffeb73"></path><path d="M366.2 627.8a42.4 42.4 0 0 1 10.5 18.4c.7 2.9 4.8 2.1 4.9-.6a25.6 25.6 0 0 1 9.7-18.5 2.5 2.5 0 0 0 0-4.3 25.1 25.1 0 0 1-10.9-17.7 2.8 2.8 0 0 0-2.2-2.5 2.6 2.6 0 0 0-2.8 1.8 41.9 41.9 0 0 1-9.2 19.2 2.5 2.5 0 0 0 0 3.5 2.5 2.5 0 0 0 3.6 0 47.5 47.5 0 0 0 10.5-21.3l-5-.7a30.5 30.5 0 0 0 13.5 22v-4.3a30.7 30.7 0 0 0-12.2 22.8l4.9-.7a47.5 47.5 0 0 0-11.7-20.7c-2.3-2.3-5.8 1.2-3.6 3.6z"></path><path d="M648.7 385.4a45.1 45.1 0 0 1 11.1 19.6 27.9 27.9 0 0 1 10.9-20.6 27.9 27.9 0 0 1-12.2-19.9 44.3 44.3 0 0 1-9.8 20.3" fill="#ffeb73"></path><path d="M646.9 387.2a42.8 42.8 0 0 1 10.5 18.5c.7 2.8 4.7 2.1 4.9-.7a25.2 25.2 0 0 1 9.7-18.4 2.6 2.6 0 0 0 0-4.4 25.1 25.1 0 0 1-10.9-17.7 2.6 2.6 0 0 0-2.2-2.4 2.4 2.4 0 0 0-2.8 1.8 42 42 0 0 1-9.2 19.1 2.6 2.6 0 0 0 0 3.6 2.5 2.5 0 0 0 3.5 0 48.5 48.5 0 0 0 10.6-21.4l-5-.7a30.9 30.9 0 0 0 13.4 22.1v-4.4a30.8 30.8 0 0 0-12.1 22.8l4.9-.7a48.1 48.1 0 0 0-11.7-20.7c-2.3-2.3-5.8 1.3-3.6 3.6z"></path><path d="M733.4 579.9a43.8 43.8 0 0 1 11.1 19.5 27.7 27.7 0 0 1 10.9-20.5 27.8 27.8 0 0 1-12.1-19.9 45.1 45.1 0 0 1-9.9 20.2" fill="#ffeb73"></path><path d="M731.6 581.6a43.3 43.3 0 0 1 10.5 18.5c.7 2.8 4.8 2.1 4.9-.7a25.4 25.4 0 0 1 9.7-18.4 2.5 2.5 0 0 0 0-4.3 25.3 25.3 0 0 1-10.9-17.7 2.7 2.7 0 0 0-2.2-2.5 2.6 2.6 0 0 0-2.8 1.8 41.9 41.9 0 0 1-9.2 19.2 2.5 2.5 0 0 0 0 3.5 2.5 2.5 0 0 0 3.6 0 47.5 47.5 0 0 0 10.5-21.3l-5-.7a30.5 30.5 0 0 0 13.5 22v-4.3a30.7 30.7 0 0 0-12.2 22.7l4.9-.6a47.5 47.5 0 0 0-11.7-20.7c-2.3-2.4-5.8 1.2-3.6 3.5z"></path><path d="M506.1 845.9a45.1 45.1 0 0 1 11.1 19.6 27.9 27.9 0 0 1 10.9-20.6 27.9 27.9 0 0 1-12.2-19.9 44.4 44.4 0 0 1-9.9 20.3" fill="#ffeb73"></path><path d="M504.3 847.7a41.6 41.6 0 0 1 10.4 18.5c.8 2.8 4.8 2.1 5-.7a25.2 25.2 0 0 1 9.7-18.4 2.6 2.6 0 0 0 0-4.4 25.2 25.2 0 0 1-11-17.7 2.4 2.4 0 0 0-2.2-2.4 2.3 2.3 0 0 0-2.7 1.8 44.1 44.1 0 0 1-9.2 19.1 2.5 2.5 0 0 0 0 3.6 2.5 2.5 0 0 0 3.5 0 48.3 48.3 0 0 0 10.5-21.4l-4.9-.7a30.9 30.9 0 0 0 13.4 22.1v-4.4a31.1 31.1 0 0 0-12.2 22.8l5-.7a48.3 48.3 0 0 0-11.8-20.7c-2.2-2.3-5.8 1.2-3.5 3.6z"></path></g><g fill="#fff"><path d="M70 127.8a615.9 615.9 0 0 1-55.6 47.7 2.6 2.6 0 0 0-.5 4q30.8 38 64 73.8c6.2 6.7 12.5 13.4 18.8 20 2.3 2.3 5.9-1.3 3.6-3.6Q57 224.6 17.5 175.9l-.5 4c3-2.6 74.1-56.9 53-52.1z"></path><path d="M52.7 221.3l33.7-31.6c2.4-2.2-1.2-5.8-3.5-3.6l-33.7 31.7c-2.4 2.2 1.1 5.7 3.5 3.5z"></path><path d="M220.9 174.5l-50.8 34 3.1.4a623.8 623.8 0 0 1-64.8-102.3l-.9 3.4 61.6-33.1c2.9-1.5.3-5.9-2.5-4.3l-61.7 33.1a2.5 2.5 0 0 0-.9 3.4 642.1 642.1 0 0 0 49.3 81.5c3.9 3.8 14.9 24.4 19.4 22.2l50.7-33.9c2.7-1.8.2-6.2-2.5-4.4z"></path><path d="M139.5 159.9c6.4-3.7 42-20.1 40.2-26.4a2.5 2.5 0 0 0-3.4-.9 275.8 275.8 0 0 1-39.3 22.9c-2.8 1.6-.3 6 2.5 4.4z"></path><path d="M596.3 160.3l-56.8-22.4 1.7 3.1a631.9 631.9 0 0 1 47.1-111.5l-3.4.9 62.3 31.8c2.9 1.4 5.4-2.9 2.5-4.4L587.4 26a2.6 2.6 0 0 0-3.4.9 630.2 630.2 0 0 0-39 87.2c-.8 5-12.2 27.2-6.9 28.7l56.9 22.3c3.1.9 4.4-3.9 1.3-4.8z"></path><path d="M562.2 85.1c5.8 2.7 42.6 24.3 44.9 17.8a2.6 2.6 0 0 0-1.8-3.1 268.2 268.2 0 0 1-40.6-19.1c-2.8-1.6-5.4 2.8-2.5 4.4z"></path><path d="M321.9 137.3C221.6 15 242.6-2.1 252.7 161.7c0 3.2 5.1 3.3 5 0q-4.5-58.9-9.2-117.9l-4.3 1.8 74.2 95.3c2.2 2.3 5.8-1.2 3.5-3.6z"></path><path d="M254.8 108.6c4.1-2.9 34.6-11.6 30.5-16-2.2-4.2-27.4 10.4-33 11.6-2.9 1.6-.3 6 2.5 4.4z"></path><path d="M420.6 119.7c-6.3 15.3-22.8 2.1-25.4-9.1-5.5-22.6-22.7-42.5-46.8-44.9l.7 5c27.2-2.7 58.6-27.6 35-54.7-13.9-15-38.1-11.8-52.9.3 2.9 30 12.4 61 17.5 91.2 1.9 4.5 3 28.7 8.2 26.8a2.5 2.5 0 0 0 1.7-3.1Q347 74.4 335.4 17.4l-.6 2.5c50.9-33.3 80.2 37.5 12.9 45.9-2.7.7-2.2 4.9.7 5 47.9 8.1 31.5 50 59.2 60.3 20 3.5 20.9-20 13-11.4z"></path><path d="M467.4 2.4c-.4 33.1-2.3 66.2-5.8 99.1.6 4.9-6.6 31.7-.9 30.8a189.2 189.2 0 0 1 51.6 9.3c17.8-6.6-47.4-15.3-51.6-14.3l2.4 3.2c1-5.1 17.5-151 4.3-128.1z"></path><path d="M741 110.1c-15.3-56.3-99.9-26.8-69.9 16.5 8.4 9.7 22.7 13.6 28.3 25.8 6 13.8-.5 30.2-11.9 39-27.7 22.2-68.8-5.2-59.3-39.3.9-3.1-4-4.5-4.8-1.3-9.6 31.7 24.3 63.3 55.3 51.2 24-7.8 38.7-42 18.5-61.1-8.8-8.9-23.6-13.3-27.1-26.5-4.1-22.7 24.6-36 43.3-28.5a36.7 36.7 0 0 1 22.8 25.5c.7 3.2 5.6 1.9 4.8-1.3z"></path><path d="M828.6 210.2c4.9-56.9-82.9-59.8-71.7-9.3 6.9 16.1 26.2 31.2 14.7 50.1-14 27.3-57.4 24.2-67.7-4.6a38.3 38.3 0 0 1 .8-29c.6-3.2 6.4-7 2.8-9.9-8.3-1.2-12.3 24.3-10.7 30.6 2.1 20.1 20.3 36.6 40.5 37.2 33.2 1.2 56.7-35.7 32.5-62.3-36.8-47.5 49.2-61.7 53.9-10.3a37.6 37.6 0 0 1-.2 7.5c-.1 3.2 5.1 3.2 5.1 0z"></path><g><path d="M127.1 988.2c-45.6-10.9-59.4-75.3-23.5-104.8 27.6-23.9 77.3-19.5 94.6 14.5 22.5 41.4-10.1 98.4-58.8 92.6a72.1 72.1 0 0 1-12.3-2.3c-3.1-.9-4.4 3.9-1.3 4.8 69.9 20.9 115.2-72.2 60.4-116.9-53.5-38.6-128.2 14.1-103.8 77.6a63.8 63.8 0 0 0 31.9 34.9 66.6 66.6 0 0 0 11.5 4.4c3.1.9 4.4-3.9 1.3-4.8z"></path><path d="M145.9 944.3c17.4-8.6 27.3 14.7 24.9 28.9-1.4 17.1-4 41.3 15.3 49.2s27.7-15.8 17.1-9.7c-2.9 5.7-10.3 7-16 4.7-26.3-15.4.4-53.3-19.4-73.2-6.1-6.3-16.7-9.2-24.4-4.2-2.7 1.8-.2 6.1 2.5 4.3z"></path><path d="M257.8 918.2c-22 41.9-49.4 166.3 36.1 137.7 37.4-18.1 46.9-63.5 51.5-101.1-.1-3 2.9-8.9-1.6-9.6a2.7 2.7 0 0 0-2.6 2.5c-2.3 18.7-4.8 37.6-11 55.5-8.4 25-28.2 52.3-57.1 52.2-55.3-2.4-27.6-96-14.3-127.4.6-3.3 5.7-7.7 2.4-10.7a2.6 2.6 0 0 0-3.4.9z"></path><path d="M452.8 945.3l-77.6 3.1a2.6 2.6 0 0 0-2.6 2.5l-1.8 124.3a2.7 2.7 0 0 0 2.5 2.5 408.1 408.1 0 0 0 87 0c3.2-.1 3.3-5.1 0-5.1a401.7 401.7 0 0 1-87 0l2.5 2.6q.9-62.2 1.9-124.3l-2.5 2.5 59.5-2.3 18.1-.7c3.3-.1 3.3-5.2 0-5.1z"></path><path d="M374.7 1014.3l58.9 1c3.3.1 3.3-5 0-5l-58.9-1.1c-3.2 0-3.2 5 0 5.1z"></path><g><path d="M551.7 921l-74.6 22a2.7 2.7 0 0 0-1.8 3.1l28.8 120.9c.3 1.5 1.7 2 3.1 1.8a408.9 408.9 0 0 0 84.3-21.4c3.1-.9 1.8-5.7-1.3-4.8a403.3 403.3 0 0 1-84.4 21.3l3.1 1.8q-14.4-60.4-28.7-120.9l-1.8 3.1 74.6-22c3.1-.9 1.8-5.8-1.3-4.9z"></path><path d="M492.9 1007l57.4-13.5c3.2-.7 1.8-5.6-1.3-4.8l-57.4 13.4c-3.2.8-1.8 5.6 1.3 4.9z"></path></g><path d="M647.1 878.7a898.7 898.7 0 0 1 66.4 102.6l3.4-3.5-132.7-63.6a2.5 2.5 0 0 0-3.4 3.4l45.2 86.2c4.2 8 8.4 16.1 12.7 24.1 1.5 2.9 5.8.4 4.3-2.5l-57.9-110.3-3.4 3.4 132.7 63.7a2.6 2.6 0 0 0 3.4-3.5q-11.5-20.9-24.3-41.1c-2.6-3-48.8-80-46.4-58.9z"></path></g></g></g></g></g></svg>