<svg xmlns="http://www.w3.org/2000/svg" width="1080" height="1041.8" viewBox="0.000006198883056640625 0 1079.9893798828125 1041.8001708984375" style=""><g><g data-name="Слой 2"><g data-name="Pride39_283544916"><path d="M57.1 791.5L72.3 778c-24.9-16.6-24.9-16.6-24.7-43.7l28.8 6.1c-3.7-25.2-22-32.5-12.1-54.9 4-8.6-2.1-24.4 11.2-27.5 6.1-1.4 7.6-16.1 11.5-25.3 22 5.1 22 5.1 34.7-4.8-26-46.1-51.9-101.6-14-128.3 18.2-15.2 28.4-22.4 30.6-55.8-28.4 1-36.6 20.2-57.7 30.3-10.8 6-23.5 8.9-32.8 17.2-11.3 10.2-23.1 11.7-40.7.2 9.1-16.3 9.1-35-7.1-57.1L26.5 418l26.9 20.9c-2-21.8-4.2-38.4-5-54.6-1.5-79.2 97-56.8 130.5-104.7 10.7-9.4 19.9-21.3 37.1-17 31.7-32.3 72-52.4 113.1-68.1 4.2-1.7 10.4-1.2 12.6-5 11.5-19.8 27.3-23.1 51.5-3.2-3.2-30.5 12.2-37.4 28.3-38.8 30.6-6 54.9-41.9 74.3-67.1 9.6-10.6 16.3-30.2 28.3-36.3 11-.4 16.4-6.2 19.8-18.3 9.9-19.8 34.3.7 52.5 6.6-6.4 18.7-15.3 32.1-15.6 48.8-.5 18.7-8.7 21.4-20.7 21.7 1.7 5.2 2.6 10.4 3.7 10.9 53.3 27.4 57.9 12.4 103.2 7.9 14.7-.7 26.2-4.5 27.5-25.6 1.6-24.7 19.7-29.2 33.3-41.4-.7-10.5-19.1-29.1.7-33.5 7.9 4.3 14.3 27.4 24.7 14.7 7.9-9.9-3.3-15.7-10.8-23.5L752.8 0c8.8 10.1 22.3 19.5 24.4 28.9 7.8 35.4 29.1 34.6 48.2 48.7-1.4 18.9-2.9 38.3-4.5 57.7 32.1 12.2 39.7 3 32.1-33.9 38.2-28.9 43.4 37.1 50.3 74.8 28.4-13.7 21.5-61.1 43.3-84.7 5.1 18.8 6.8 29.8 16.1 44 15.6 19 20.4 33.9 13.2 50.9-10.6 30.5-30.3 54.7-34.7 89.6-.9 14-.7 28.5-1.5 42.6-1.1 20.1-1.3 19.8 16.4 29.6 26.7 16 26.5 32.4 58.4 37.7-1-14.8-5.4-31.2-4.7-45.1 4-25.4 16.7-26.8 34-4.1 15.5 20.2 25.3 40.2 19.9 65.5-4.9 22.8-10.6 44.1-24.2 58.7-23.4 27.9-53.2 48-72 81.7-22 41.2-44.5 81.8-77.4 110.1-2.9 2.4-6.5 5.9-6.6 10.1-.6 19.6-6 29.8-24.5 20.5-2.4-1.2-7.8 2.2-7.6 4.2 2.7 30.4-25 27.6-25.5 54.7 12.5 14.3 25 14.8 34.2 10.3 25.6-12.7 49.9-28.2 74.7-42.8a11 11 0 0 0 4.6-5.7c5.6-18 17.3-26.2 35-26.4-6.1-19.9-4.6-33.2 11-34.4 2.1-.2 5-2.4 5.1-4.6.9-30.1 23.7-40.3 28.8-66.8 1.9-9.9 8.2-17.4 13.5-24.8 17-26.9 57.6 11.9 44.7 42.7-8.8 16.9-14.7 39.1-36.2 41.9.3 15.7-1.8 28.4-13 38.2-14.4 12.8-21.6 36.6-34.6 52-19.8 23.5-41.7 44.4-63.4 65.4-8.1 7.9-26-5-29.8 13.3-28.2-.4-51.5 17.6-82.3 7.6-4.2-1.4-10.2-4.6-12.2-2.5-12.8 14.2-31.4 6-48 6.5s-35.1 7.1-51.4 13.9c-5.3 2.1-6.8 12.9-12 23.7-8.5-12.2-16.7-20.8-20.9-30.9-6.7-16-13.2-16.1-23.2-14.3-42 9.3-73.5 40.4-115.4 50.3.4 27.8.3 27.5-26.5 25.2-9.6-.6-12.1 10.4-5.8 19.7 17.5 9.8 17.5 31.2 28.5 46.4-13.2 2.7-42.6 22.6-52.8 13.2-11.8-11.4-20.1-5.2-30.5-4.6-49.1 2.7-41.9 85.7-89.8 87.1-19.7-33.3-5.5-56.5-4.4-86.2-31.4 6-50.8 30.2-76.8 43.5-9.8-14.7-18.9-28.5-30.1-45.2l-11.2 23.4c-30.3-11.9-61.2-17.1-82.3-62.4L117.2 950c-24.2-20.6-32.9-34.1-26.7-45.1 10-21.3 12.6-44.7 21.4-67.2 22.4-7.1 23.3-8.1 31.2-33.2-19.3-29.2-21.8 4.6-31.7 12.8-19 9.1-20.7 16.7-54.3-25.8zM786 117.4c.2-23 7-38.7-7.1-59.9-16.7 11.4-11.4 15.4-.2 42.3l-21.9-9.7c.2 14-17.8 14.5-10.4 37.2l39.6-9.9zm136.9 318.8l-6.8-7.9a58.3 58.3 0 0 0-23.4 29.9l4.5 5.9 25.7-27.9zm69.4-18.7c-13.4 22.1-10.6 29.2 13.5 39l-13.5-39zm26.3 9.2h18.7c-1.3-4.6-2.3-12.5-3.8-13.2-5.8-2.7-11.7-3-17.6-4.2l2.7 17.5zm9.6-77.3c-.6 2.5-1.3 5.1-2 7.7 4.9 14.5 17.5 18.8 18 2.5l-16-10.2zM564.4 139.7c-1.1 10.5-2.1 14.1-1.9 18 1 19.6 16.6 20.1 13.2.2-.6-4-4.9-8.3-11.3-18.2zM237.5 358.6c-1.8-6.4-3.2-10.9-4.5-15.5-10.3.8-12 1.1-7.8 15.8l12.3-.3zm695.7 378.6c8.7 14.8 8.7 14.8 19.5 11.6-5.1-12.7-11.1-16.5-19.5-11.6zM271.8 433.3l-7.2-1.9c.9 8.6 1.9 17.3 2.8 25.9l5.2 1.1c-.2-8.4-.5-16.8-.8-25.1zm294.8-206.5l-4.5-10.6-12.5 4.9c1.7 3.6 4.4 10.3 4.8 10.2 4.3-.8 8.2-2.9 12.2-4.5zm346.7 355.3l-8.9.4c1.8 5.9 3.4 11.8 5.7 17.5.2.6 6.2.4 6.2-.1-.6-5.8-1.9-11.8-3-17.8zm-774 153.2c-13.5-13.5-16.9-8.7-15.8 8.7l15.8-8.7zm344.7 184l8.6 1.3c-.9-7.5-1.1-14-8.3-12.3-.9 2.6-.3 6.4-.3 11zm575.9-339.7c-10.6 3.2-6 5.9-3.5 17 1.9-.4 5.4-.3 5.4-1.5.1-4.2-1-8.8-1.9-15.5zM191.8 406.4c-3.4-12.1-5.2-17.5-12.7-12.2-.9 1.7.6 8.1 2.5 10.2s5.5 1.3 10.2 2zm240.7-210.6c-4.3-11.2-4.6-19.5-11.5-14.3.6 10.6 1.1 12.4 11.5 14.3zm590.3 458.5c-1.6-4.5-2.5-7.2-3.4-9.8-3.2.6-7.5 1.3-3.6 7.2 1.6 1.4 3.8 1.5 7 2.6z" fill="#ffe783"></path><path d="M458.5 473.3h-29.7C408 583 397.4 694.2 373.1 803.2c20 2.8 38.5 6.6 58.1 10.3 11.3 3.7 45.3 4.2 49.5 14.5-23.5 14.2-82-4-111.9-4.5-7 31.1-12.4 62.2-18.9 93.4-1.9 9-9.2 13.5-18.5 12-3.6-.5-4.2-2.9-3.9-5.8 3.8-33.6 8.6-66.9 14.1-100.2-7.3-2.9-14.4-2.7-21.4-2.8-17.6-.1-34.5-4.1-51.1-9.1-52.3-19.8-3.1-24.6 22.1-24.2 5.5 1 11 4 16.7 4.4 9.6 5.5 21.1 3.6 31.1 7.6 1.5.6 3.3.3 5.7.5 17.2-110 31.5-220.6 58-328.8-76.8-21.4-124.1-87.6-113.4-167.5 8.1-34 26.7-75.7 64-84 9.6-3.1 3.9 3.8 11.4 2 46.3-11.2 94.3-10.6 141.5-6.2 25.4 3.4 52.1 3.6 75.4 15.4 12.5 9.1 26.5 17.5 34 31.7 5.8 10.5 13.4 20.3 15.3 32.8 1.2 8 3.7 15.8 5.6 23.9 13.4 3.6 29.1 6 39.5 16.3a27.4 27.4 0 0 0 15.6 7.4c11.5 1.1 19.1 8 25.6 16.3 55 71.9 53.2 180.4-27.4 232.4l144.6 254.2 30.5-19c15.8-10.2 28.1-22.5 47.8-11.9-16.7 16.4-36.2 29.1-54.2 44-3.9 3.6-13.7 6.2-9.3 13q13.8 23.7 27.5 47.6c8.7 14.8 18.9 33.8-.9 45.6l-53.5-81.3c-27.2 11.3-52.2 43.1-83.9 30 4.7-17.1 53.6-40.2 68.6-52.4-33-49.9-68.3-98.9-97.6-151.3-17.9-34.6-39.9-67.5-51.3-104.9-98.6 32.7-190.4-28.2-199.6-131.3zm43.3-9.4c1.9 76.8 84.7 152.7 161.9 125.8 61.6-36.6 67.5-120.4 40.3-180.7-8-16.2-14.6-34.9-29.1-46.4-12.9-8.3-25.5-17.6-40.2-22.6-12.1 64.7-76.2 101.6-132.9 123.9zm70.3-134.4c-2.8-9.1-2.3-18.9-4.8-27.4-4.8-8.4-6.8-18.3-13.6-25.6a137.4 137.4 0 0 1-10.3-12.8c1.3-4-2-4.4-4.2-5.7-10.1-8.4-21.3-16.5-33.8-20.8-37-7.8-75-11.8-112.8-9.3-19.2 1.2-45.7 5.7-50.8 27.8-1.4 5.6-.7 11.5-5.2 16.2-2.4 10.3-2.2 22.5-2.5 33.3 1 49.1 27.2 89.7 69.4 114 10.3 3.2 58.3 31.6 59.5 12.4 14.3-52.9 60-83.9 109.1-102.1zm.5 12.9c-34.3 13.5-68 54-70.2 95.9 13.8-2.7 27.1-4.8 39-12 21.5-21.7 34.8-53.4 31.2-83.9z"></path></g></g></g></svg>