<svg xmlns="http://www.w3.org/2000/svg" xmlns:xlink="http://www.w3.org/1999/xlink" width="1080" height="1080" viewBox="0 0 1080 1080" style=""><g><defs><linearGradient id="a" x1="115.61" y1="1191.05" x2="618.08" y2="420.21" gradientUnits="userSpaceOnUse"><stop offset="0" stop-color="#7c541d"></stop><stop offset="1" stop-color="#f5ef9f"></stop></linearGradient><linearGradient id="b" x1="115.61" y1="1191.05" x2="618.08" y2="420.21" xlink:href="#a"></linearGradient><linearGradient id="c" x1="115.61" y1="1191.05" x2="618.08" y2="420.22" xlink:href="#a"></linearGradient><linearGradient id="d" x1="115.61" y1="1191.05" x2="618.08" y2="420.21" xlink:href="#a"></linearGradient><linearGradient id="e" x1="115.61" y1="1191.05" x2="618.08" y2="420.21" xlink:href="#a"></linearGradient><linearGradient id="f" x1="115.61" y1="1191.05" x2="618.08" y2="420.21" xlink:href="#a"></linearGradient><linearGradient id="g" x1="115.61" y1="1191.05" x2="618.08" y2="420.21" xlink:href="#a"></linearGradient><linearGradient id="h" x1="115.61" y1="1191.05" x2="618.08" y2="420.21" xlink:href="#a"></linearGradient></defs><g data-name="Слой 2"><path d="M540 1080C242.2 1080 0 837.8 0 540S242.2 0 540 0s540 242.2 540 540-242.2 540-540 540zm0-1063.2C251.5 16.8 16.8 251.5 16.8 540s234.7 523.2 523.2 523.2 523.2-234.7 523.2-523.2S828.5 16.8 540 16.8z" fill="url(#a)"></path><path d="M540 1015.4c-262.2 0-475.4-213.2-475.4-475.4S277.8 64.6 540 64.6s475.4 213.2 475.4 475.4-213.3 475.4-475.4 475.4zm0-934.1C287.1 81.3 81.3 287.1 81.3 540S287.1 998.7 540 998.7 998.7 792.9 998.7 540 792.9 81.3 540 81.3z" fill="url(#b)"></path><path d="M540 950.9c-226.6 0-410.9-184.4-410.9-410.9S313.4 129.1 540 129.1 950.9 313.4 950.9 540 766.5 950.9 540 950.9zm0-805c-217.3 0-394.1 176.8-394.1 394.1S322.7 934.1 540 934.1 934.1 757.3 934.1 540 757.3 145.9 540 145.9z" fill="url(#c)"></path><path d="M540 886.3c-190.9 0-346.3-155.4-346.3-346.3S349.1 193.7 540 193.7 886.3 349.1 886.3 540 730.9 886.3 540 886.3zm0-675.8c-181.7 0-329.5 147.8-329.5 329.5S358.3 869.5 540 869.5 869.5 721.7 869.5 540 721.7 210.5 540 210.5z" fill="url(#d)"></path><path d="M540 821.7c-155.3 0-281.7-126.4-281.7-281.7S384.7 258.3 540 258.3 821.7 384.7 821.7 540 695.3 821.7 540 821.7zm0-546.7c-146.1 0-265 118.9-265 265s118.9 265 265 265 264.9-118.9 264.9-265S686.1 275 540 275z" fill="url(#e)"></path><path d="M540 757.2c-119.7 0-217.2-97.5-217.2-217.2S420.3 322.8 540 322.8 757.2 420.3 757.2 540 659.7 757.2 540 757.2zm0-417.6c-110.5 0-200.4 89.9-200.4 200.4S429.5 740.4 540 740.4 740.4 650.5 740.4 540 650.5 339.6 540 339.6z" fill="url(#f)"></path><path d="M540 692.6c-84.1 0-152.6-68.5-152.6-152.6S455.9 387.4 540 387.4 692.6 455.9 692.6 540 624.1 692.6 540 692.6zm0-288.4A135.8 135.8 0 1 0 675.8 540 135.9 135.9 0 0 0 540 404.2z" fill="url(#g)"></path><path d="M540 628a88 88 0 1 1 88-88 88.1 88.1 0 0 1-88 88zm0-159.2a71.2 71.2 0 1 0 71.2 71.2 71.3 71.3 0 0 0-71.2-71.2z" fill="url(#h)"></path></g></g></svg>