<svg xmlns="http://www.w3.org/2000/svg" width="1080" height="1080" viewBox="3.4558370113372803 5 1075 1075.0008544921875" style=""><g><g fill="#fff" data-name="Слой 2"><path d="M540 1080a537.5 537.5 0 1 1 210.2-42.4A537.8 537.8 0 0 1 540 1080zM540 5C245 5 5 245 5 540s240 535 535 535 535-240 535-535S835 5 540 5z"></path><path d="M540 1018a475.6 475.6 0 1 1 186.1-37.5A476 476 0 0 1 540 1018zm0-951C279.2 67 67 279.2 67 540s212.2 473 473 473 473-212.2 473-473S800.8 67 540 67z"></path><path d="M540 956.1a414.9 414.9 0 1 1 161.9-32.7A414.5 414.5 0 0 1 540 956.1zm0-827.2c-226.7 0-411.1 184.4-411.1 411.1S313.3 951.1 540 951.1 951.1 766.7 951.1 540 766.7 128.9 540 128.9z"></path><path d="M540 894.1a354.1 354.1 0 0 1-137.8-680.3 354.1 354.1 0 1 1 275.6 652.4A351 351 0 0 1 540 894.1zm0-703.2c-192.5 0-349.1 156.6-349.1 349.1S347.5 889.1 540 889.1 889.1 732.5 889.1 540 732.5 190.9 540 190.9z"></path><path d="M540 832.1a292.3 292.3 0 1 1 206.5-85.6A289.9 289.9 0 0 1 540 832.1zm0-579.2c-158.3 0-287.1 128.8-287.1 287.1S381.7 827.1 540 827.1 827.1 698.3 827.1 540 698.3 252.9 540 252.9z"></path></g></g></svg>