<svg xmlns="http://www.w3.org/2000/svg" width="468" height="167.4" viewBox="-0.20000267028808594 -0.3375054895877838 468.1361083984375 167.5625" style=""><g><path fill="#F26122" d="M120.7 61.9c-2.2.1-4.3.9-6 2.2-2.3 1.6-4.3 3.5-6.2 5.6-2.2 2.4-4.2 4.9-6 7.6-1.9 2.8-3.8 5.6-5.4 8.3-1.7 2.7-3.2 5.3-4.6 7.6-1.4 2.3-2.5 4.2-3.4 5.5-4.3 6.2-8.4 12-12.3 17.5-3.7 5.2-7.8 10.1-12.2 14.8-4 4.2-8.5 8-13.4 11.3-4.8 3.2-10.2 5.6-15.8 7-3.4 1-6.9 1.4-10.5 1.4-2.9 0-5.7-.4-8.5-1.1-2.9-.7-5.6-1.9-8.1-3.6-2.4-1.7-4.5-3.8-6-6.4-1.7-2.8-2.5-6.1-2.5-9.4 0-1 .1-2 .4-3 .2-1.1.6-2.3 1.1-3.3.5-1 1.1-1.9 1.9-2.7.7-.7 1.6-1.2 2.6-1.2.9 0 1.8.4 2.3 1.1.7.8 1 1.9.9 3-.1 3.1.4 6.1 1.5 9 .9 2.2 2.2 4.2 4 5.8 1.6 1.4 3.6 2.5 5.7 3.1 2.2.6 4.4.9 6.7.9 4.2 0 8.3-.7 12.2-2.1 3.8-1.4 7.3-3.2 10.6-5.5s6.3-5 9-8 5.3-6.2 7.7-9.5c2.4-3.3 4.6-6.7 6.6-10l5.7-9.5c-2.8 2.7-5.8 5.4-9.1 8.3-3.2 2.8-6.5 5.4-10 7.8-3.3 2.3-6.8 4.2-10.5 5.8-3.4 1.5-7 2.2-10.6 2.3-1.8 0-3.5-.3-5.2-.8-1.6-.5-3-1.4-4.2-2.5-1.2-1.1-2.2-2.4-2.8-3.9-.7-1.7-1-3.4-1-5.2.1-3.2 1-6.3 2.6-9 2.1-3.6 4.8-6.8 8-9.5.9-.9 2.2-2 3.9-3.3l5.3-4.1c1.9-1.5 3.8-3 5.7-4.6 1.9-1.6 3.7-3.2 5.2-4.8 1.4-1.4 2.7-3 3.8-4.7.9-1.2 1.4-2.7 1.5-4.2 0-.7-.2-1.4-.7-2-.5-.6-1.1-1-1.7-1.3-.8-.4-1.6-.6-2.4-.7-.8-.1-1.7-.2-2.5-.2-3 0-6.1.4-9 1.1-3.1.8-6.1 1.8-9 3.1-2.9 1.3-5.6 2.9-8.2 4.7-2.4 1.7-4.7 3.6-6.7 5.8-1.8 1.9-3.4 4-4.5 6.4-1.1 2-1.6 4.3-1.7 6.6 0 .8.1 1.7.4 2.5.2.9.5 1.8.8 2.6.3.9.6 1.8.8 2.6.2.8.4 1.7.4 2.5 0 .3 0 .5-.1.8-.1.4-.2.7-.4 1-.2.3-.6.6-.9.8-.5.2-1.1.3-1.7.3-.5 0-1.1-.1-1.6-.3-.5-.2-1-.5-1.4-.7-2-.9-3.7-2.4-4.7-4.3-1.1-2.1-1.7-4.5-1.6-6.9 0-2.3.3-4.6 1-6.8.6-2 1.4-4 2.4-5.9 2-3.5 4.6-6.5 7.8-9 3.5-2.8 7.3-5.3 11.3-7.3 4-2 8.3-3.6 12.7-4.8 3.9-1.1 7.9-1.7 12-1.7 2.2 0 4.4.2 6.5.7 1.8.4 3.6 1.1 5.2 2.1 1.4.9 2.6 2.1 3.5 3.5.9 1.5 1.3 3.2 1.3 4.9 0 1.8-.4 3.6-1.1 5.3-.8 1.9-1.8 3.7-3 5.3-1.3 1.9-2.7 3.6-4.3 5.3-1.6 1.8-3.3 3.4-5 5.1s-3.5 3.2-5.2 4.8-3.3 3-4.8 4.3c-.6.6-1.6 1.5-2.9 2.8s-2.7 2.6-4.1 4.1c-1.3 1.5-2.5 3-3.6 4.7-.9 1.3-1.5 2.8-1.5 4.3.1.7.4 1.4.8 2 .4.5.9 1 1.5 1.3.6.3 1.3.6 2 .7.7.2 1.3.2 2 .2 1.7 0 3.4-.4 5.1-1 1.8-.7 3.5-1.4 5.2-2.3 1.7-.9 3.3-1.9 4.8-2.9s2.8-1.9 4-2.8l.3-.4c3.7-2.7 7.2-5.4 10.4-8.1 3.2-2.8 6.3-5.6 9.2-8.4 2.9-2.8 5.8-5.7 8.6-8.6s5.5-5.8 8.3-8.7c1.2-1.9 2.6-3.8 4-5.6 1.7-2.1 3.5-4 5.5-5.7 2-1.7 4.1-3.2 6.5-4.5 2.2-1.2 4.6-1.8 7.1-1.8.7 0 1.3.1 2 .2.8.1 1.6.4 2.4.7.7.3 1.4.7 2 1.3.5.5.8 1.2.8 2s-.3 1.6-.9 2.1c-.5.5-1.2.8-1.9.8-.3 0-.6 0-.9-.1-.4-.5-.8-.5-1.2-.5z"></path><path fill="#F26122" d="M133.8 89.6c2.3-.1 4.6.4 6.6 1.5 1.7.9 3 2.3 3.9 4 .8 1.8 1.2 3.9.9 5.9-.2 2.4-.9 4.8-2 7-.4.9-.9 1.8-1.5 2.7-.6.9-1.1 1.7-1.7 2.6 1.9.2 3.8 0 5.6-.4 1.9-.4 3.8-1.1 5.6-2 1-.6 1.9-1.3 2.7-2.1.7-.8 1.7-1.4 2.7-1.8.9-.3 1.8-.2 2.6.2s1.3 1.3 1.3 2.3c0 .6-.2 1.1-.5 1.5-.3.5-.7 1-1.2 1.4l-1.5 1.2-1.3 1c-2 1.4-4.3 2.5-6.6 3.3-2.4.8-4.9 1.2-7.4 1.2-1.1 0-2.1-.1-3.2-.2s-2.1-.3-3.1-.6c-2.2 2-4.6 3.8-7.1 5.4-2.5 1.5-5.2 2.8-7.9 3.8-1.2.4-2.6.9-4.2 1.3-1.6.5-3.3.8-5 1.1-1.7.3-3.5.5-5.2.5-1.7 0-3.4-.2-5-.6-1.5-.4-2.9-1.1-4.2-2-1.3-1-2.2-2.3-2.8-3.8-.9-2.2-1.1-4.6-.6-6.9.6-2.4 1.5-4.7 2.8-6.8 1.4-2.2 3-4.2 4.8-6.1 1.6-1.7 3.4-3.3 5.2-4.7 7.6-6.2 17.3-9.7 27.3-9.9zm-13.5 16.8c-.4-.9-.8-1.9-1.2-2.9-.4-1-.6-2.1-.7-3.1-1.3.9-2.6 1.8-3.8 2.7s-2.4 2-3.6 3c-.6.5-1.5 1.4-2.6 2.5s-2.3 2.3-3.5 3.7c-1.2 1.3-2.2 2.7-3.2 4.2-.8 1.2-1.5 2.5-1.8 3.9-.3 1 0 2.1.7 2.9.7.8 2.2 1.2 4.4 1.2 2 0 4-.3 6-.8s3.9-1.3 5.8-2.2c1.9-.9 3.7-2 5.4-3.2 1.7-1.2 3.4-2.6 4.9-4-1.4-1-2.7-2.2-3.9-3.6-1.1-1.3-2.1-2.8-2.9-4.3zm13.6-11.1c-1.7 0-3.4.2-5.1.6-1.6.4-3.2.9-4.7 1.5 0 5.3 2.8 10.2 7.4 13 .7-.8 1.5-1.7 2.4-2.8.9-1 1.7-2.1 2.4-3.2s1.3-2.2 1.8-3.3c.4-.9.7-1.9.6-2.9 0-.8-.5-1.6-1.2-2.1-1.1-.6-2.4-.9-3.6-.8z"></path><path fill="#F26122" d="M176.7 94.7c-.2 1.7-1 3.3-2.1 4.5-1.1 1.3-2.3 2.5-3.6 3.7-1.4 1.4-2.8 2.8-4.2 4.3-1.4 1.4-2.7 2.9-3.9 4.5-.4.5-.9 1.2-1.5 2s-1.2 1.7-1.7 2.6c-.5.9-.9 1.8-1.1 2.8-.3.8-.2 1.7.1 2.4.2.5.6.8 1.1.9.3.1.5.1.8.2 1.9 0 3.9-.3 5.8-.8 1.8-.5 3.6-1.3 5.3-2.2 1.7-.9 3.4-2 4.9-3.2 1.6-1.2 3.1-2.4 4.7-3.7 2.7-2.2 5.3-4.5 7.8-6.8s5-4.8 7.5-7.3c.4-.5.9-1 1.3-1.4.5-.5.9-.9 1.3-1.5.3-.4.8-.9 1.3-1.6s1.1-1.3 1.7-2c.6-.6 1.2-1.2 1.8-1.7.5-.4 1.1-.7 1.7-.7.6 0 1.1.3 1.3.8.4 1 .6 2.1.6 3.2.1 1 0 2-.2 3-.1.9-.4 1.7-.8 2.5s-.8 1.6-1.3 2.3c-.5.8-1.2 1.6-1.9 2.4-1.7 2.2-3.5 4.4-5.4 6.5-1.9 2.1-3.5 4.5-4.9 7-1.4 2.6-1.7 4.3-1 5.2s2.4.8 5.1-.3c2.3-.9 4.5-2.2 6.4-3.7 2-1.6 3.9-3.1 5.8-4.6.7-.6 1.4-1.3 2.1-2 .9-.9 1.8-1.8 2.8-2.6.9-.8 1.8-1.5 2.9-2.1.7-.5 1.6-.7 2.4-.5 1 .3 1.6.8 1.8 1.5.2.7 0 1.5-.4 2.2-.5.9-1.1 1.7-1.7 2.5-.8.9-1.5 1.7-2.4 2.4s-1.6 1.4-2.3 2-1.2 1-1.5 1.3c-1.5 1.3-3 2.7-4.6 4.1-1.6 1.4-3.2 2.6-5 3.7-1.7 1.1-3.5 2-5.4 2.7-1.9.7-4 1.1-6 1.1-2.1.1-4.1-.6-5.7-1.9-1.6-1.3-2.6-3.1-2.8-5.2-.2-1.6 0-3.2.4-4.8-2.7 2.4-5.6 4.7-8.6 6.8-3 2.1-6.3 3.6-9.8 4.5-1.2.3-2.4.5-3.7.5-1.3.1-2.6 0-3.9-.3-1.8-.2-3.5-1.1-4.8-2.3-1.1-1.2-1.9-2.6-2.3-4.2-.4-1.7-.5-3.4-.3-5.1.2-1.8.6-3.5 1.3-5.2 1.5-3.5 3.6-6.7 6.1-9.5 2.5-2.8 5.2-5.5 8-8 .7-.5 1.3-1 1.9-1.5.7-.6 1.4-1.3 2.2-1.9.7-.6 1.5-1.2 2.3-1.7.6-.4 1.4-.7 2.1-.7.5 0 1.1.2 1.4.7.3.4.5.9.6 1.3.1.5.1 1.1 0 1.6.3.4.2.9.2 1.3z"></path><path fill="#F26122" d="M244.3 78.3c.5 1.3.7 2.6.6 4 0 .8-.2 1.6-.6 2.2-.4.6-.7 1.4-.9 2.2-.2.8 0 1.6.6 2.2.6.5 1.4.9 2.2 1 .9.2 1.9.2 2.8.1 1-.1 1.8-.2 2.4-.3s1.2-.1 1.8-.2c.6-.1 1.2.1 1.7.5.6.5 1 1.2 1.1 2 .1.9.1 1.7 0 2.6.2 1.3-.1 2.7-.9 3.8-.8 1.1-1.7 2.1-2.6 3.1l-7.2 7.3c-.4.5-1.2 1.4-2.2 2.7-1.1 1.4-2.1 2.8-3 4.2-.9 1.3-1.5 2.8-1.9 4.3-.4 1.4 0 2.3 1 2.9 2.2.1 4.5-.3 6.6-1 2.1-.7 4.2-1.7 6.1-2.9 2-1.2 3.8-2.6 5.6-4.1 1.8-1.5 3.4-3.1 5-4.6.7-.6 1.3-1.3 1.9-2.1.6-.8 1.4-1.4 2.3-1.7.6-.2 1.2-.1 1.7.1s.9.6 1.2 1c.3.4.5.9.5 1.5s-.1 1.1-.4 1.6c-.3.5-.6.9-1 1.3s-.9.8-1.3 1.2l-3.2 3.2c-1.1 1.1-2.2 2.1-3.3 3.1-1.5 1.4-3 2.7-4.6 4-1.6 1.3-3.3 2.5-5.1 3.5-1.8 1-3.7 1.8-5.7 2.4-2 .6-4.1.9-6.1.8-2.4 0-4.6-1-6.2-2.8-1.5-1.8-2.4-4.1-2.4-6.5-.1-2.8.5-5.6 1.7-8.2 1.2-2.5 2.7-4.9 4.4-7.1 1.4-1.9 3-3.7 4.7-5.3 1.6-1.7 3.3-3.3 5.1-4.9-2.4-.2-4.8-1-6.9-2.3-1.4 1.6-2.9 3.1-4.5 4.5-1.6 1.5-3.2 3-4.6 4.5-1.2 1.1-2.3 2.2-3.5 3.3l-3.5 3.5c-.3.3-.6.6-.9 1-.3.4-.7.8-1.1 1.1l-1.2.9c-.4.2-.8.4-1.3.4-.7.1-1.4-.1-2-.6-.4-.4-.6-.9-.7-1.5 0-.6.1-1.2.3-1.8.2-.6.6-1.1 1-1.6.8-.9 1.5-1.7 2.3-2.4.8-.8 1.6-1.5 2.3-2.3l6.6-6.6c2.2-2.2 4.7-4.7 7.3-7.4-.6-2.1-.5-4.3.2-6.4.2-.5.4-1.2.6-1.9.3-.8.6-1.5 1-2.3.4-.7.8-1.4 1.3-2.1.4-.6.9-1 1.6-1.2.5-.2 1-.2 1.5 0 .4.2.8.6 1 1 .3.5.5 1 .6 1.5-.2.6 0 1.1.2 1.6z"></path><path fill="#F26122" d="M263 109.3c4.1-4.2 8.2-8.4 12.4-12.5 4.1-4.1 8.3-8.2 12.4-12.4 1-2 2.5-3.7 4.2-5.1.3-.3.7-.6 1.2-.9.4-.3.9-.6 1.4-.8.5-.2 1-.4 1.5-.5.5-.1 1 0 1.5.2.9.3 1.5 1.1 1.5 2.1 0 .9-.2 1.8-.8 2.5-.2.3-.4.5-.6.7l-.6.7c-.3.3-.5.7-.7 1.1-.8 1.2-1.4 2.6-1.7 4-.3 1.4-.5 2.9-.5 4.3 0 1.5 0 2.9.1 4.4.1 1.5.2 2.9.2 4.3.2 3.6 0 7.1-.4 10.7-.7 5.7-3.6 10.9-8.1 14.6-1.7 1.3-3.5 2.4-5.5 3.2-2 .8-4.1 1.3-6.2 1.6-2.2.3-4.4.3-6.6 0-1.9-.3-3.7-.7-5.5-1.2-1.8-.6-3.6-1.4-5.1-2.5-1.2-.6-2.3-1.4-3.2-2.4-1-1-1.9-2-2.6-3.2-.4-.6-.7-1.2-1-1.8-.4-.7-.7-1.4-.9-2.1-.2-.7-.4-1.5-.5-2.3-.1-.7 0-1.4.3-2.1.1-.7.5-1.2 1.1-1.5.5-.3 1.1-.4 1.7-.2.6.1 1.1.4 1.6.8s.8 1 1 1.7c.3 1.2.5 2.3.8 3.3.3 1.1.9 2.1 1.8 2.8 1.4 1.5 3.1 2.6 5.1 3.2 2 .5 4 .8 6.1.9 4.9-.1 8.9-1.5 12-4.1 3.1-2.6 4.9-6.3 5.5-11.3v.1c.2-2.4.2-4.8 0-7.2-.1-2.5-.1-5 0-7.4l-14.1 14.1c-.6.8-1.3 1.4-1.9 2.1-.6.7-1.3 1.3-2.1 1.9-.2.2-.4.5-.6.7-.3.2-.6.4-1 .4-.6.2-1.3.1-1.8-.2-.5-.2-1-.6-1.3-1.1-.3-.5-.4-1.1-.4-1.7-.5-.9-.2-1.5.3-1.9z"></path><path fill="#F26122" d="M323.1 114.7l-1.2-.3c-.6-.2-1.3-.4-2.1-.7-.8-.3-1.5-.6-2.2-1-.6-.3-1.2-.7-1.7-1.2-1.1 1.7-1.6 3.7-1.2 5.7.3 1 .7 1.9 1.4 2.7.7.8 1.6 1.5 2.6 2s2.1 1 3.2 1.3c2.2.6 4.5.9 6.8.8 2.3-.1 4.7-.4 6.9-.9 2.3-.5 4.5-1.3 6.7-2.2 2.1-.9 4.2-1.9 6.3-3 1.9-1.1 3.8-2.4 5.6-3.7 1.8-1.4 3.5-2.8 5.1-4.2l1.7-1.5c.7-.6 1.4-1.1 2.2-1.5.7-.4 1.4-.5 2.1-.3.7.2 1.1.9 1.4 2.1.2.8 0 1.6-.5 2.3-.5.8-1.1 1.6-1.8 2.2-.7.7-1.5 1.4-2.3 2-.8.6-1.5 1.1-1.9 1.5-3.5 2.9-7.3 5.3-11.4 7.2-2.3 1.1-4.6 2.1-7 3-2.4.9-4.9 1.6-7.5 2.1-2.5.5-5.1.9-7.7.9-2.5.1-5-.1-7.4-.7-2.5-.5-4.8-1.5-6.9-2.9-1.9-1.3-3.4-3-4.5-5s-1.6-4.2-1.7-6.5c-.1-2.6.6-5.1 1.8-7.4 1.7-3.1 3.8-5.9 6.4-8.2 2.6-2.4 5.4-4.4 8.5-6 1.8-.9 3.6-1.6 5.5-2.2 2-.6 4-1.1 6.1-1.3 2.1-.2 4.2-.3 6.2-.1 2 .2 3.9.6 5.8 1.4 1.2.5 2.4 1.2 3.2 2.2.8.9 1.3 2 1.6 3.1.3 1.2.3 2.4.1 3.6-.2 1.3-.7 2.5-1.3 3.7-1.2 2.3-2.8 4.3-4.9 5.9-4.2 3.3-9.2 5.2-14.5 5.5-2.3.3-5 .1-7.5-.4zm20.2-18.4c-2.3-.4-4.6-.3-6.9.2-2.3.6-4.6 1.4-6.8 2.5s-4.2 2.5-6.2 4c-1.8 1.5-3.6 3.1-5.1 4.8.9.6 2 1 3.2 1.2l2.2.2c1.7.1 3.4.1 5.1 0 1.7-.1 3.4-.5 5.1-1 1.8-.5 3.5-1.2 5.1-2.1 1.6-.9 3.1-2 4.4-3.3.6-.6 1.1-1.2 1.6-1.9.4-.6.7-1.3.9-2 .1-.6 0-1.2-.4-1.7-.5-.5-1.3-.8-2.2-.9z"></path><path fill="#F26122" d="M431.8 45.3c-.4 1.7-1 3.3-1.8 4.7-.9 1.5-1.9 2.8-3 4.1-1.1 1.3-2.3 2.5-3.5 3.7s-2.4 2.4-3.5 3.6c-2.9 3-5.8 6-8.6 8.9-2.8 2.9-5.7 5.8-8.5 8.8l-9.1 9.1c-3 3-6.1 6-9.2 9-1.2 1.2-2.7 2.6-4.3 4.2-1.6 1.6-3.3 3.2-5 4.8s-3.3 3.3-4.9 4.8-2.8 3-3.9 4.1c-.5.6-1 1.4-1.3 2.1-.4.7-.6 1.6-.7 2.4-.1.8.1 1.5.4 2.2.5.8 1.3 1.3 2.1 1.3h-.1c2 .1 3.9-.1 5.8-.6s3.7-1.2 5.4-2c1.7-.9 3.4-1.9 5-3s3.2-2.3 4.7-3.6c1.2-1.1 2.3-2.3 3.4-3.5 1-1.2 2.2-2.3 3.6-3.2 1.1-1 2.7-.9 3.7.2.4.5.7 1.1.7 1.8s-.2 1.5-.6 2.1c-1.1 1.3-2.3 2.6-3.6 3.6-1.4 1.2-2.7 2.3-4 3.4-1.6 1.3-3.2 2.7-4.8 3.9-1.6 1.2-3.3 2.4-5.1 3.4-1.3.8-2.7 1.5-4.1 2.2-1.5.7-3.1 1.3-4.7 1.7-1.6.4-3.2.6-4.9.6-1.6 0-3.2-.3-4.6-1-1.7-.7-3.2-1.9-4.3-3.4-1-1.4-1.6-3.1-1.8-4.8-.2-1.8-.1-3.6.4-5.3.5-1.8 1.2-3.5 2.2-5 1.9-2.9 4.1-5.5 6.7-7.8 2.5-2.3 5-4.7 7.4-7.1 6.5-6.5 13.1-13.1 19.5-19.6 6.5-6.5 13.1-13.1 19.8-19.7 2.1-2.2 4.2-4.4 6.4-6.5 2.2-2.1 4.3-4.3 6.5-6.4l1.2-1.2c.4-.4.8-.7 1.2-1.1.5-.4 1.1-.7 1.7-.8.7 0 1.4.2 1.8.7.6.5.8 1.3.7 2-.2.9-.3 1.6-.4 2.2z"></path><path fill="#F26122" d="M464.6 45.3c-.8 2-1.8 3.8-3 5.6-1.2 1.8-2.5 3.5-3.9 5.1-1.4 1.6-2.9 3.2-4.4 4.7l-4.5 4.5c-6.8 7.3-13.7 14.5-20.8 21.5L407.8 107c1 1.3 2.3 2.4 3.6 3.2 1.7 1 3.6 1.6 5.6 1.8 2 .2 4.1-.2 5.9-1.1.5-.3 1-.6 1.5-1s1-.9 1.5-1.3l1.5-1.2c.5-.4 1-.6 1.6-.8.7-.2 1.5-.1 2.2.3.5.4.8.9.9 1.5.1.7.1 1.4-.1 2-.2.7-.6 1.3-1 1.8-1.4 1.3-2.9 2.3-4.6 3.2-1.7.8-3.5 1.5-5.3 2-6.4 1.6-13.2.2-18.4-3.8-.4 1.6-.9 3.2-1.5 4.8s-1.1 3.2-1.8 4.7c-2.6 5.8-5.7 11.4-9.2 16.7-3.5 5.3-7.7 10.1-12.3 14.4-1 .9-2.1 1.9-3.3 2.9-1.2 1-2.4 2-3.8 2.8-1.3.8-2.7 1.5-4.1 2-1.4.5-2.9.7-4.3.6-1.4 0-2.8-.4-4-1.2-1-.7-1.8-1.7-2.3-2.8-.5-1.2-.8-2.5-.8-3.8 0-1.4.2-2.7.6-4 1-3 2.5-5.7 4.5-8.1 2-2.5 4.1-4.8 6.4-7.1 1.2-1.3 2.5-2.6 3.9-4l5.3-5.3 8.1-8.2c3.3-3.3 7.4-7.4 12.4-12.3-.7-1.3-1.2-2.7-1.7-4.1-.4-1.3-.6-2.6-.5-4 0-.6.3-1.2.7-1.5.5-.3 1-.4 1.5-.4.6 0 1.2.1 1.8.3.6.2 1.2.3 1.7.4.9.2 1.8.4 2.6.8.5.3 1 .6 1.3 1 11.1-11.1 22.2-22.3 33.2-33.5l9.5-9.5c3.2-3.1 6.3-6.3 9.5-9.6.7-.6 1.4-1.3 2-2 .6-.7 1.4-1.4 2.1-2 .6-.5 1.3-.9 2.1-.9.6 0 1.2.1 1.7.5s.8 1 .8 1.6c.3 1 .2 1.8-.2 2.5zM389.7 129c1.8-2.9 3.4-5.8 4.9-8.9L383.4 131c-2.1 2.1-4.1 4.1-6.2 6.1-2.1 2-4.1 4.1-6.1 6.2-.2.2-.6.7-1.3 1.6s-1.5 1.8-2.4 2.8c-.8 1-1.6 2-2.3 3.1-.5.7-.9 1.6-1.2 2.4-.1.6.1.9.7.9 1.4-.3 2.6-.9 3.8-1.7 1.6-1 3.2-2.1 4.6-3.4 1.4-1.3 2.8-2.6 4-3.8 2.4-2.4 4.7-5 6.9-7.7 2-2.8 4-5.6 5.8-8.5z"></path><path fill="#FFACCF" d="M123.7 66.7c-2.2.1-4.3.9-6 2.2-2.3 1.6-4.3 3.5-6.2 5.6-2.2 2.4-4.2 5-6 7.6-1.9 2.8-3.8 5.6-5.4 8.3s-3.2 5.3-4.6 7.6c-1.4 2.3-2.5 4.2-3.4 5.5-4.3 6.2-8.4 12.1-12.3 17.5-3.7 5.2-7.8 10.1-12.2 14.7-4 4.2-8.5 8-13.4 11.3-4.8 3.2-10.2 5.6-15.8 7-3.4 1-7 1.4-10.5 1.4-2.9 0-5.7-.4-8.5-1.1-2.9-.7-5.6-1.9-8.1-3.6-2.4-1.7-4.5-3.8-6-6.4-1.7-2.8-2.5-6.1-2.5-9.4 0-1 .1-2 .4-3 .2-1.1.6-2.3 1.1-3.3.5-1 1.1-1.9 1.9-2.7.7-.7 1.6-1.1 2.6-1.1.9 0 1.8.4 2.3 1.1.6.8 1 1.9.9 2.9-.1 3.1.4 6.1 1.5 9 .9 2.2 2.2 4.2 4 5.8 1.6 1.5 3.6 2.5 5.7 3.1 2.2.6 4.4.9 6.7.9 4.2 0 8.3-.7 12.2-2.1 3.7-1.4 7.3-3.3 10.5-5.6 3.3-2.3 6.3-5 9-8s5.3-6.2 7.7-9.5c2.4-3.3 4.6-6.6 6.6-10l5.7-9.5c-2.8 2.7-5.8 5.4-9.1 8.3-3.2 2.8-6.5 5.4-10 7.8-3.3 2.3-6.8 4.2-10.5 5.8-3.3 1.5-7 2.2-10.6 2.3-1.8 0-3.5-.3-5.2-.8-1.5-.5-3-1.4-4.2-2.5-1.2-1.1-2.2-2.4-2.8-3.9-.7-1.7-1-3.4-1-5.2.1-3.2 1-6.3 2.6-9 2.1-3.6 4.8-6.8 8-9.5 1-.9 2.3-2 3.9-3.3l5.3-4.1c1.9-1.4 3.8-3 5.7-4.6 1.9-1.6 3.7-3.2 5.2-4.8 1.4-1.4 2.7-3 3.9-4.7.9-1.2 1.4-2.7 1.5-4.2 0-.7-.2-1.4-.7-2-.5-.6-1.1-1-1.8-1.3-.8-.4-1.6-.6-2.4-.7-.8-.1-1.7-.2-2.5-.2-3 0-6.1.4-9 1.1-3.1.8-6.1 1.8-9 3.1-2.8 1.3-5.6 2.8-8.1 4.6-2.4 1.7-4.7 3.6-6.7 5.7-1.8 1.9-3.3 4-4.5 6.4-1.1 2-1.6 4.3-1.7 6.6 0 .8.1 1.7.4 2.5.2.9.5 1.7.8 2.6s.6 1.8.8 2.6c.2.8.4 1.7.4 2.5 0 .3 0 .5-.1.8-.1.4-.2.7-.4 1-.2.3-.6.6-.9.8-.5.2-1.1.4-1.7.3-.5 0-1.1-.1-1.6-.3-.5-.2-1-.4-1.4-.7-2-.9-3.7-2.4-4.7-4.3-1.1-2.1-1.7-4.5-1.6-6.9 0-2.3.3-4.6 1-6.8.6-2 1.4-4 2.4-5.9 2-3.5 4.6-6.5 7.8-9 3.5-2.8 7.3-5.2 11.3-7.2 4.1-2 8.3-3.7 12.7-4.8 3.9-1.1 7.9-1.7 12-1.7 2.2 0 4.4.2 6.5.7 1.8.4 3.6 1.1 5.2 2.1 1.4.9 2.6 2.1 3.4 3.5.9 1.5 1.3 3.2 1.2 4.9 0 1.8-.4 3.6-1.1 5.3-.8 1.9-1.8 3.7-3 5.3-1.3 1.9-2.7 3.6-4.3 5.3-1.6 1.8-3.3 3.5-5 5.1-1.7 1.6-3.5 3.2-5.2 4.8-1.7 1.5-3.3 3-4.8 4.3-.6.6-1.6 1.5-2.9 2.8s-2.7 2.6-4.1 4.1c-1.3 1.5-2.5 3-3.6 4.7-.9 1.3-1.5 2.8-1.5 4.3.1.7.4 1.4.8 1.9s.9 1 1.5 1.3c.6.3 1.3.6 2 .7.7.2 1.3.2 2 .2 1.7 0 3.5-.4 5.1-1 1.8-.7 3.5-1.4 5.1-2.3 1.7-.9 3.3-1.9 4.8-2.9s2.8-1.9 4-2.8l.3-.4c3.7-2.7 7.2-5.4 10.4-8.1 3.2-2.8 6.3-5.6 9.2-8.4s5.8-5.7 8.6-8.6 5.6-5.8 8.3-8.7c1.2-1.9 2.5-3.8 4-5.6 1.7-2.1 3.5-4 5.5-5.7 2-1.7 4.1-3.2 6.5-4.5 2.2-1.2 4.6-1.8 7.1-1.8.7 0 1.3.1 2 .2.8.1 1.6.4 2.4.7.7.3 1.4.7 2 1.2.5.5.8 1.2.8 2s-.3 1.6-.9 2.1c-.5.5-1.2.8-1.9.8-.3 0-.6 0-.9-.1-.2.1-.6 0-.9 0z"></path><path fill="#FFACCF" d="M136.7 94.5c2.3-.1 4.6.5 6.6 1.5 1.7.9 3 2.3 3.9 4.1.8 1.8 1.2 3.9.9 5.9-.2 2.4-.9 4.8-2 7-.4.9-.9 1.8-1.5 2.7-.6.9-1.1 1.7-1.8 2.6 1.9.2 3.8 0 5.6-.4 1.9-.4 3.8-1.1 5.6-2 1-.6 1.9-1.3 2.7-2.2.7-.8 1.7-1.4 2.7-1.8.9-.4 1.8-.3 2.6.1.8.5 1.3 1.3 1.3 2.3 0 .6-.2 1.1-.5 1.5-.3.5-.8 1-1.2 1.4l-1.5 1.2-1.3 1c-2 1.4-4.3 2.5-6.6 3.3-2.4.8-4.9 1.2-7.4 1.2-1.1 0-2.1-.1-3.2-.2s-2.1-.3-3.1-.6c-2.2 2-4.6 3.8-7.1 5.4-2.5 1.5-5.2 2.8-7.9 3.9-1.2.4-2.6.9-4.2 1.3s-3.3.8-5 1.1c-1.7.3-3.5.5-5.2.5-1.7 0-3.4-.2-5-.6-1.5-.4-2.9-1.1-4.2-2-1.3-1-2.2-2.3-2.8-3.8-.9-2.2-1.1-4.6-.6-6.9.6-2.4 1.5-4.7 2.8-6.8 1.4-2.2 3-4.2 4.8-6.1 1.6-1.7 3.4-3.3 5.2-4.7 7.7-6.3 17.4-9.8 27.4-9.9zm-13.5 16.7c-.4-.9-.8-1.9-1.2-2.9-.4-1-.6-2.1-.7-3.1-1.3.9-2.6 1.8-3.8 2.7s-2.4 2-3.6 3c-.6.5-1.5 1.4-2.6 2.5s-2.3 2.3-3.5 3.7c-1.2 1.3-2.2 2.7-3.2 4.2-.9 1.2-1.5 2.5-1.8 3.9-.3 1 0 2.1.7 2.9.7.8 2.2 1.2 4.4 1.2 2 0 4-.3 6-.8s3.9-1.3 5.8-2.2c1.9-.9 3.7-2 5.4-3.2 1.7-1.2 3.4-2.6 4.9-4-1.4-1-2.7-2.2-3.9-3.6-1.1-1.3-2.1-2.7-2.9-4.3zm13.6-11.1c-1.7 0-3.4.2-5.1.6-1.6.4-3.2.9-4.7 1.5 0 2.6.7 5.2 2 7.5 1.3 2.2 3.1 4.1 5.4 5.5l2.4-2.8c.9-1 1.7-2.1 2.4-3.2s1.3-2.2 1.8-3.3c.4-.9.7-1.9.6-2.9 0-.8-.5-1.6-1.2-2.1-1.1-.6-2.4-.9-3.6-.8z"></path><path fill="#FFACCF" d="M179.6 99.6c-.2 1.7-1 3.3-2.1 4.5-1.1 1.2-2.3 2.5-3.6 3.7l-4.2 4.2c-1.4 1.4-2.7 2.9-3.9 4.5-.4.5-.9 1.2-1.5 2s-1.2 1.7-1.7 2.6c-.5.9-.9 1.8-1.1 2.8-.2.8-.2 1.7.1 2.4.2.5.6.8 1.1.9.3.1.5.1.8.2 1.9 0 3.9-.3 5.8-.8 1.8-.5 3.6-1.3 5.3-2.2 1.7-.9 3.4-2 4.9-3.2 1.6-1.2 3.1-2.4 4.7-3.7 2.6-2.2 5.3-4.5 7.8-6.8s5.1-4.8 7.5-7.3c.4-.5.9-.9 1.3-1.4.5-.5.9-.9 1.3-1.5.3-.4.8-.9 1.3-1.6s1.1-1.3 1.7-2c.6-.6 1.2-1.2 1.8-1.7.5-.4 1.1-.7 1.7-.7.6 0 1.1.3 1.3.8.4 1 .6 2.1.6 3.2.1 1 0 2-.2 3-.2.9-.4 1.7-.8 2.5s-.8 1.6-1.3 2.3c-.5.8-1.2 1.6-1.9 2.4-1.7 2.2-3.5 4.4-5.4 6.5-1.9 2.1-3.5 4.5-4.9 7-1.4 2.6-1.7 4.3-1 5.2.7.9 2.4.8 5.1-.3 2.3-.9 4.5-2.2 6.4-3.7 2-1.6 3.9-3.1 5.8-4.6.7-.6 1.4-1.3 2.1-2 .9-.9 1.8-1.8 2.8-2.6.9-.8 1.9-1.5 2.9-2.2.7-.5 1.6-.7 2.4-.5 1 .3 1.6.8 1.8 1.4.2.7 0 1.5-.4 2.2-.5.9-1.1 1.7-1.7 2.5-.7.9-1.5 1.7-2.4 2.4-.8.8-1.6 1.4-2.3 2s-1.2 1-1.5 1.3c-1.5 1.3-3 2.7-4.6 4.1-1.6 1.4-3.2 2.6-5 3.7-1.7 1.1-3.5 2.1-5.4 2.8-1.9.7-4 1.1-6 1.1-2.1.1-4.1-.6-5.7-1.9-1.6-1.3-2.6-3.1-2.8-5.2-.1-1.6 0-3.2.4-4.8-2.7 2.4-5.6 4.7-8.6 6.8-3 2.1-6.3 3.6-9.9 4.5-1.2.3-2.5.4-3.7.5-1.3.1-2.6 0-3.9-.3-1.8-.3-3.5-1.1-4.8-2.4-1.1-1.2-1.9-2.6-2.3-4.2-.4-1.7-.5-3.4-.3-5.2.2-1.8.7-3.5 1.3-5.2 1.5-3.5 3.6-6.7 6.1-9.5 2.5-2.8 5.2-5.5 8-8 .7-.5 1.3-1 1.9-1.5.7-.7 1.4-1.3 2.2-1.9.7-.6 1.5-1.2 2.3-1.7.6-.4 1.4-.6 2.1-.7.5 0 1.1.2 1.4.6.3.4.5.9.6 1.3.1.5.1 1.1 0 1.6.4.8.3 1.3.3 1.8z"></path><path fill="#FFACCF" d="M247.2 83.1c.4 1.3.7 2.6.6 4 0 .8-.2 1.6-.6 2.2-.4.6-.7 1.4-.9 2.2-.2.8 0 1.6.6 2.2.6.5 1.4.9 2.2 1 .9.2 1.9.2 2.8.1 1-.1 1.8-.2 2.4-.3s1.2-.1 1.8-.2c.6-.1 1.2.1 1.7.5.6.5 1.1 1.2 1.2 2 .1.9.1 1.7 0 2.6.2 1.3-.1 2.7-.9 3.8-.8 1.1-1.7 2.1-2.6 3.1l-7.2 7.3c-.4.5-1.2 1.4-2.2 2.7-1.1 1.4-2.1 2.8-3 4.2-.9 1.3-1.5 2.8-1.9 4.3-.4 1.4 0 2.3 1 2.9 2.2.1 4.5-.3 6.6-1 2.1-.7 4.2-1.7 6.1-2.9 2-1.2 3.8-2.6 5.5-4.1 1.8-1.5 3.4-3.1 5-4.6.7-.7 1.3-1.4 1.9-2.1.6-.8 1.4-1.4 2.3-1.7.6-.2 1.2-.1 1.7.1s.9.6 1.2 1c.3.4.5.9.5 1.4 0 .6-.1 1.1-.4 1.6-.3.5-.6.9-1 1.3s-.9.8-1.3 1.2l-3.2 3.2c-1.1 1.1-2.2 2.1-3.3 3.1-1.5 1.4-3 2.8-4.6 4-1.6 1.3-3.3 2.5-5.1 3.5-1.8 1-3.7 1.8-5.7 2.4-2 .6-4 .9-6.1.8-2.4 0-4.6-1-6.2-2.8-1.5-1.8-2.4-4.1-2.4-6.5-.1-2.8.5-5.6 1.7-8.2 1.2-2.5 2.7-4.9 4.4-7.1 1.4-1.9 3-3.7 4.7-5.3 1.6-1.7 3.3-3.3 5.1-4.9-2.5-.2-4.8-1-6.9-2.3-1.4 1.6-2.9 3.1-4.5 4.5-1.6 1.5-3.2 3-4.6 4.5-1.2 1.1-2.4 2.2-3.5 3.3l-3.5 3.5c-.3.3-.6.6-.9 1-.3.4-.7.8-1.1 1.1l-1.2.9c-.4.2-.8.4-1.3.4-.7.1-1.4-.1-2-.6-.4-.4-.6-.9-.7-1.5-.1-.6 0-1.2.3-1.8.2-.6.6-1.1 1-1.6.8-.9 1.5-1.7 2.3-2.4.8-.8 1.6-1.5 2.3-2.3l6.6-6.6c2.2-2.2 4.7-4.6 7.4-7.4-.6-2.1-.5-4.3.2-6.4.2-.5.4-1.2.6-1.9.3-.8.6-1.5 1-2.3.4-.7.8-1.4 1.3-2.1.4-.6.9-1 1.6-1.2.5-.2 1-.2 1.5 0 .4.2.8.6 1 1 .3.5.5 1 .6 1.5-.2.7 0 1.2.1 1.7z"></path><path fill="#FFACCF" d="M265.9 114.2c4.1-4.2 8.2-8.4 12.4-12.5s8.2-8.2 12.4-12.4c1-2 2.5-3.7 4.2-5.1.3-.3.7-.6 1.2-.9.5-.3.9-.6 1.4-.8.5-.2 1-.4 1.5-.5.5-.1 1-.1 1.5.2.9.3 1.5 1.1 1.5 2.1 0 .9-.3 1.8-.8 2.5-.2.3-.4.5-.6.7l-.6.6c-.3.3-.5.7-.7 1-.8 1.2-1.4 2.6-1.7 4-.3 1.4-.5 2.8-.5 4.3s0 2.9.1 4.4.2 2.9.2 4.3c.2 3.6 0 7.1-.4 10.7-.4 3.5-1.7 6.8-3.6 9.7-2.4 3.6-5.9 6.4-10 8.1-2 .8-4.1 1.3-6.2 1.6-2.2.3-4.4.3-6.6 0-1.9-.3-3.7-.7-5.5-1.3-1.8-.6-3.6-1.4-5.1-2.5-1.2-.6-2.3-1.5-3.2-2.4-1-1-1.9-2-2.6-3.2-.4-.6-.7-1.2-1-1.8-.4-.7-.6-1.4-.9-2.2-.2-.7-.4-1.5-.5-2.3-.1-.7 0-1.4.3-2.1.1-.7.6-1.2 1.1-1.5.5-.3 1.1-.4 1.7-.2.6.1 1.1.4 1.6.8s.8 1 1 1.7c.3 1.2.5 2.3.8 3.3.3 1.1.9 2.1 1.7 2.8 1.4 1.5 3.1 2.6 5.1 3.2 2 .5 4 .8 6.1.9 4.9-.1 8.9-1.4 12-4s4.9-6.3 5.5-11.3v.1c.1-2.4.1-4.8 0-7.2-.1-2.5-.1-5 0-7.4l-14.1 14.1c-.6.8-1.3 1.5-1.9 2.1-.6.7-1.3 1.3-2.1 1.9-.2.2-.4.5-.6.7-.3.2-.6.4-1 .4-.6.2-1.3.1-1.8-.2-.5-.2-1-.6-1.3-1.1-.3-.5-.4-1.1-.4-1.7-.4-.6-.1-1.2.4-1.6z"></path><path fill="#FFACCF" d="M326 119.5l-1.2-.3c-.7-.2-1.4-.4-2.1-.7-.8-.3-1.5-.6-2.2-1-.6-.3-1.2-.7-1.7-1.2-.5.7-.9 1.4-1 2.3-.4 1.1-.4 2.3-.2 3.4.3 1 .7 1.9 1.4 2.7.7.8 1.6 1.5 2.5 2 1 .5 2.1 1 3.2 1.3 2.2.6 4.5.9 6.8.8 2.3-.1 4.7-.4 6.9-.9 2.3-.5 4.5-1.3 6.7-2.1 2.1-.9 4.2-1.9 6.3-3 1.9-1.1 3.8-2.4 5.6-3.7 1.8-1.3 3.5-2.7 5.1-4.2l1.8-1.5c.7-.6 1.4-1.1 2.2-1.5.7-.4 1.4-.5 2.1-.3.7.2 1.1.9 1.4 2.1.2.8 0 1.6-.5 2.3-.5.8-1.1 1.6-1.8 2.2-.7.7-1.5 1.3-2.3 1.9l-1.9 1.5c-3.5 2.9-7.3 5.3-11.4 7.2-2.3 1.1-4.6 2.1-7 3-2.4.9-4.9 1.6-7.5 2.1-2.5.5-5.1.8-7.7.9-2.5.1-5-.1-7.4-.7-2.5-.5-4.8-1.5-6.8-2.9-1.9-1.3-3.4-3-4.5-5s-1.6-4.2-1.7-6.5c0-2.5.6-5 1.7-7.3 1.7-3.1 3.8-5.9 6.4-8.2 2.6-2.4 5.4-4.4 8.5-6 1.8-.9 3.6-1.7 5.5-2.3 2-.6 4-1.1 6.1-1.3 2.1-.2 4.2-.3 6.2-.1 2 .2 3.9.6 5.8 1.4 1.2.5 2.4 1.2 3.2 2.2.8.9 1.3 2 1.6 3.1.3 1.2.3 2.4.1 3.6-.2 1.3-.7 2.5-1.3 3.7-1.2 2.3-2.8 4.3-4.9 5.9-4.2 3.3-9.2 5.2-14.5 5.5-2.3.3-4.9.1-7.5-.4zm20.3-18.3c-2.3-.4-4.6-.3-6.9.2-2.3.6-4.6 1.4-6.8 2.5s-4.2 2.5-6.2 4c-1.8 1.5-3.6 3.1-5.1 4.8.9.6 2 1 3.2 1.2 1 .1 1.7.2 2.2.2 1.7.1 3.4.1 5.1 0 1.7-.1 3.4-.5 5.1-1 1.8-.5 3.5-1.2 5.1-2.1 1.6-.9 3.1-2 4.4-3.3.6-.6 1.1-1.2 1.6-1.9.4-.6.7-1.3.9-2 .1-.6 0-1.2-.4-1.7-.6-.6-1.4-.9-2.2-.9z"></path><path fill="#FFACCF" d="M434.7 50.1c-.4 1.7-1 3.2-1.9 4.7-.9 1.5-1.9 2.8-3 4.1-1.1 1.3-2.3 2.5-3.5 3.7s-2.3 2.4-3.4 3.6c-2.9 3-5.8 6-8.6 8.9s-5.7 5.8-8.5 8.8l-9.1 9.1c-3 3-6.1 6-9.2 8.9-1.2 1.2-2.7 2.7-4.3 4.2s-3.3 3.2-5 4.8-3.3 3.2-4.9 4.8-2.8 2.9-3.9 4.1c-.5.7-1 1.4-1.3 2.1-.4.7-.6 1.6-.7 2.4-.1.8.1 1.5.4 2.2.5.8 1.3 1.2 2.1 1.3h-.1c2 .1 3.9-.1 5.8-.6s3.7-1.2 5.4-2c1.8-.8 3.4-1.9 5-3s3.2-2.3 4.7-3.6c1.2-1.1 2.3-2.3 3.4-3.5 1-1.2 2.2-2.3 3.6-3.2 1.1-1 2.7-.9 3.7.2.4.5.7 1.1.7 1.8.1.7-.2 1.5-.6 2.1-1 1.4-2.2 2.6-3.5 3.7-1.4 1.2-2.7 2.3-4 3.4-1.6 1.4-3.2 2.7-4.8 3.9-1.6 1.2-3.3 2.4-5.1 3.4-1.3.8-2.7 1.5-4.1 2.2-1.5.7-3.1 1.3-4.7 1.7-1.6.4-3.2.6-4.9.6-1.6 0-3.2-.3-4.6-1-1.7-.7-3.2-1.9-4.3-3.4-1-1.4-1.6-3-1.8-4.7-.2-1.8-.1-3.6.4-5.3.5-1.8 1.2-3.5 2.2-5 1.8-2.9 4-5.5 6.6-7.8 2.5-2.4 5-4.7 7.4-7.1 6.5-6.5 13-13 19.5-19.6 6.5-6.5 13.1-13.1 19.8-19.7 2.1-2.2 4.3-4.4 6.4-6.5 2.2-2.1 4.3-4.3 6.5-6.4l1.2-1.2c.4-.4.8-.7 1.2-1 .5-.5 1.1-.7 1.7-.8.7 0 1.4.2 1.8.7.6.5.8 1.2.7 2-.1.8-.2 1.4-.4 2z"></path><path fill="#FFACCF" d="M467.5 50.1c-.8 2-1.8 3.8-3 5.6-1.2 1.8-2.5 3.5-3.9 5.1-1.4 1.6-2.9 3.2-4.4 4.7l-4.4 4.5c-6.8 7.3-13.7 14.5-20.8 21.5l-20.3 20.4c1 1.3 2.3 2.4 3.6 3.2 1.7 1 3.7 1.6 5.6 1.7 2 .2 4.1-.2 5.9-1.1.5-.3 1-.6 1.5-1s1-.9 1.5-1.3l1.5-1.2c.5-.4 1-.6 1.6-.8.7-.2 1.5-.1 2.2.3.5.4.8.9.9 1.5.1.7.1 1.4-.1 2-.2.7-.5 1.3-1 1.8-1.4 1.3-2.9 2.3-4.6 3.2-1.7.8-3.5 1.5-5.3 2-6.4 1.6-13.2.2-18.4-3.8-.4 1.6-.9 3.2-1.5 4.8s-1.1 3.2-1.8 4.7c-2.6 5.8-5.7 11.4-9.2 16.7-3.6 5.2-7.7 10-12.4 14.3-1 .9-2.1 1.9-3.3 2.9-1.2 1-2.4 2-3.8 2.8-1.3.8-2.7 1.5-4.1 2-1.4.5-2.9.7-4.3.6-1.4 0-2.8-.4-4-1.2-1-.7-1.8-1.7-2.3-2.8-.5-1.2-.8-2.5-.8-3.8 0-1.4.2-2.7.6-4 1-3 2.5-5.7 4.5-8.1 2-2.5 4.1-4.8 6.4-7.1 1.2-1.3 2.5-2.6 3.9-4l5.3-5.3 8.1-8.1 12.4-12.4c-.7-1.3-1.2-2.7-1.7-4.1-.4-1.3-.6-2.6-.5-4 0-.6.3-1.2.7-1.5.5-.3 1-.4 1.5-.4.6 0 1.2.1 1.8.3.6.2 1.2.3 1.7.4.9.2 1.8.4 2.6.8.5.3.9.7 1.2 1.1C418 92 429 80.8 440.1 69.6c3.2-3.2 6.4-6.3 9.5-9.5 3.2-3.1 6.3-6.3 9.5-9.6.7-.6 1.4-1.3 2-2 .6-.7 1.3-1.4 2.1-2 .6-.5 1.3-.9 2.1-.9.6 0 1.2.1 1.7.5s.8 1 .9 1.6c.1.9 0 1.7-.4 2.4zm-74.9 83.7c1.8-2.9 3.4-5.9 4.9-8.9l-11.2 10.9c-2 2.1-4.1 4.1-6.2 6.1s-4.1 4.1-6.1 6.2c-.2.2-.6.7-1.3 1.6s-1.5 1.8-2.4 2.8c-.8 1-1.6 2-2.3 3.1-.5.7-1 1.6-1.2 2.4-.1.6.1.9.7.9 1.4-.3 2.6-.9 3.8-1.7 1.6-1 3.2-2.1 4.6-3.4 1.4-1.3 2.8-2.6 4-3.8 2.4-2.4 4.7-5 6.9-7.6 2.1-2.8 4-5.6 5.8-8.6z"></path><path fill="#070707" d="M205 40.5c-.3 1.6-.8 3.1-1.6 4.5s-1.8 2.7-3 3.8c-1.2 1.1-2.6 2.1-4 3-1.5.9-3 1.6-4.6 2.2-1.5.6-3.1 1.1-4.8 1.4-7.3 1.4-14.8-.4-20.6-5.1-.8.6-1.8 1.1-3 1.8s-2.4 1.2-3.6 1.7c-1.3.5-2.6 1-4 1.3-1.4.3-2.7.5-4.1.5-1 0-2.1-.2-3.1-.5-.9-.3-1.7-.7-2.4-1.3-.6-.5-1.2-1.2-1.5-2-.3-.8-.4-1.7-.2-2.5.1-.4.2-.8.4-1.2.2-.4.4-.8.7-1.2.3-.3.6-.7.9-.9.3-.2.7-.4 1.1-.4.3 0 .7.1.9.3.3.2.5.5.5.9.2.7.4 1.4.7 2 .2.5.6.9 1 1.3.4.3.9.6 1.4.7.7.1 1.3.2 2 .2 1.8 0 3.6-.3 5.3-.9 1.6-.6 3.2-1.3 4.6-2.2-1-1.1-1.9-2.3-2.6-3.6-.7-1.2-1.2-2.6-1.4-4l-.1-.1c-.1-.5-.2-1-.1-1.6.1-.5.4-1 .8-1.3.4-.3.9-.5 1.4-.5.3 0 .6 0 .8.2.2.1.3.3.5.5.1.2.2.4.2.6 0 .2.1.4.1.6.4 1.1.8 2.2 1.3 3.4.6 1.3 1.4 2.5 2.4 3.6 1.9-1.4 3.7-2.9 5.3-4.6 1.7-1.7 3.3-3.5 4.8-5.4s3-3.7 4.5-5.6 2.9-3.7 4.3-5.4c1.8-2.2 3.7-4.4 5.7-6.7 2-2.2 4.1-4.2 6.5-6-.4-.1-.7-.2-1.1-.2h-1.2c-1.4 0-2.7.2-4 .6-1.4.4-2.8.9-4.2 1.6-1.4.7-2.7 1.5-4 2.4-1.2.9-2.4 1.9-3.4 3-1 1-1.9 2.2-2.6 3.4-.7 1.1-1.1 2.3-1.4 3.6-.1.4-.1.7-.1 1.1V30c0 .4 0 .8-.1 1.1-.1.4-.2.7-.5 1-.2.2-.5.4-.9.3-.7 0-1.5-.2-2.1-.5-.5-.3-1-.8-1.3-1.4-.3-.6-.5-1.3-.5-2 0-.8 0-1.5.1-2.3.3-1.7.9-3.4 1.7-4.9.9-1.6 2-3.1 3.2-4.4 1.3-1.4 2.7-2.6 4.2-3.7 3.1-2.2 6.5-3.8 10.1-4.7 1.7-.4 3.4-.6 5.1-.7 2.4 0 4.8.4 7 1.4 1-.5 2-.9 3.1-1.2 1-.2 1.9-.4 2.9-.4l1.1.1c.6.1 1.2.2 1.9.3.6.2 1.1.5 1.6.9s.7 1 .5 1.6l-.3.9c-.2.4-.7.6-1.1.6-.4 0-.8 0-1.1-.1-.4-.1-.7-.1-1.1-.1-.5 0-.9 0-1.4.1-.5.1-.9.2-1.3.3 2.7 2.3 4 5.9 3.3 9.3-.2 1.1-.5 2.1-1 3.1s-1.1 2-1.8 2.9c-.7.9-1.6 1.8-2.5 2.6-.9.8-1.9 1.5-3 2.1 1.2.9 2.1 2.2 2.5 3.7.4 1.4.6 3.1.3 4.6zm-12.1-10.9c.3-.1.6-.1.9-.1.3 0 .7-.1 1-.1 1.2 0 2.4.2 3.5.6l.1-.1h.1c.8-.4 1.5-.8 2.2-1.4.8-.6 1.5-1.4 2.1-2.1.7-.8 1.3-1.7 1.7-2.6.5-.9.8-1.8 1-2.8.2-1.2.1-2.4-.3-3.5-.4-1.2-1.1-2.2-2.1-3-1.4.9-2.7 2-3.9 3.1-1.2 1.2-2.2 2.2-3.1 3-1.8 1.8-3.4 3.6-5.1 5.5-1.7 1.9-3.4 3.7-5.1 5.6-1.1 1.3-2.2 2.6-3.4 4-1.2 1.4-2.5 2.8-3.8 4.3-1.4 1.4-2.8 2.9-4.2 4.3-1.5 1.4-3 2.8-4.6 4 3.5 2.5 7.8 3.9 12.1 3.9 1.1 0 2.3-.1 3.4-.4 1.3-.3 2.5-.6 3.8-1.1 1.3-.5 2.6-1.1 3.8-1.7 1.2-.7 2.3-1.5 3.4-2.4 1-.9 1.9-1.9 2.6-3 .7-1.1 1.2-2.3 1.4-3.6.2-1.1.1-2.2-.3-3.2-.5-1-1.3-1.9-2.3-2.4h-.2c-.7.2-1.3.3-2 .3-.7.1-1.3.1-2 .1s-1.3-.1-2-.2c-.4-.1-.8-.3-1.1-.5-.2-.2-.4-.5-.5-.8-.1-.3-.1-.6 0-.8.1-1.6 1.1-2.5 2.9-2.9z"></path><path fill="#070707" d="M217.7 39.7l-.7-.2c-.4-.1-.7-.2-1.1-.4-.4-.2-.8-.3-1.2-.5-.3-.1-.7-.4-.9-.6-.6.9-.8 2-.7 3 .1.5.4 1 .8 1.5.4.4.9.8 1.4 1.1.6.3 1.1.5 1.7.7 1.2.3 2.4.5 3.6.4 1.2 0 2.5-.2 3.7-.5 1.2-.3 2.4-.7 3.6-1.2 1.2-.5 2.3-1 3.4-1.6 1-.6 2-1.3 3-2s1.9-1.5 2.8-2.3c.2-.2.5-.5.9-.8.4-.3.8-.6 1.2-.8.3-.2.8-.3 1.1-.2.4.1.6.5.8 1.1.1.4 0 .9-.3 1.2-.3.4-.6.8-1 1.2-.4.4-.8.7-1.2 1-.4.3-.8.6-1.1.8-1.9 1.5-3.9 2.8-6.1 3.9-1.2.6-2.4 1.1-3.7 1.6-1.3.5-2.6.9-4 1.2-1.3.3-2.7.5-4.1.5-1.3 0-2.7-.1-4-.4-1.3-.2-2.5-.8-3.6-1.5-1-.7-1.8-1.6-2.4-2.7-.6-1.1-.9-2.3-.9-3.5 0-1.4.3-2.7.9-3.9.9-1.7 2.1-3.1 3.4-4.4 1.4-1.3 2.9-2.3 4.6-3.2.9-.5 1.9-.9 2.9-1.2 1.1-.3 2.2-.6 3.3-.7 1.1-.1 2.2-.1 3.3 0 1.1.1 2.1.3 3.1.8.7.3 1.3.7 1.7 1.2.4.5.7 1.1.9 1.7.2.6.2 1.3.1 1.9-.1.7-.3 1.4-.7 2-.6 1.2-1.5 2.3-2.6 3.2-1.1.8-2.3 1.5-3.6 2-1.3.5-2.7.8-4.1.9-1.4.1-2.8 0-4.2-.3zm10.9-9.8c-1.2-.2-2.5-.2-3.7.1-1.3.3-2.5.7-3.6 1.3-1.2.6-2.3 1.3-3.3 2.1s-1.9 1.7-2.8 2.6c.5.3 1.1.6 1.7.6l1.2.1c.9.1 1.8.1 2.8 0 .9-.1 1.8-.3 2.7-.5 1-.2 1.9-.6 2.7-1.1.9-.5 1.6-1.1 2.3-1.8.3-.3.6-.6.9-1 .2-.3.4-.7.5-1.1.1-.3 0-.7-.2-.9-.3-.2-.8-.4-1.2-.4z"></path><path fill="#070707" d="M297.2 2.6c-.6 1.5-1.4 2.8-2.4 4.1-1 1.3-2 2.4-3 3.5-1.4 1.5-2.9 3-4.3 4.5s-2.9 3-4.3 4.4c-2.4 2.5-4.8 5-7.2 7.4-2.4 2.4-4.9 4.9-7.4 7.2 1 .4 2 .5 3 .5 1.1 0 2.1-.1 3.1-.4 1-.3 2-.6 3-1.1.9-.4 1.7-1 2.4-1.6.9-.7 1.6-1.6 2.1-2.6s.9-2 1.2-3.1c.1-.4.3-.7.6-.9.2-.1.5-.1.8 0 .3.1.6.3.9.5l.9.6c.4.3.7.7.9 1.1.1.5.2 1 .1 1.4-.1.5-.2 1-.5 1.5-.2.5-.5 1-.7 1.4-.6 1.1-1.4 2-2.3 2.8-.9.8-1.9 1.4-2.9 2-.7.4-1.4.7-2.1.9-.7.2-1.5.4-2.2.6l.1.3c.1.3.2.8.3 1.3.1.4.1.9-.1 1.3-.1.4-.3.7-.5 1-.2.3-.5.6-.7.9-.1.3-.2.7-.3 1-.1.3-.1.6 0 .9.1.3.3.5.5.7.3.2.6.3 1 .3 1 0 2-.2 3-.5 1-.4 1.9-.8 2.8-1.3.9-.5 1.8-1.1 2.6-1.8s1.6-1.3 2.4-1.9c.5-.4.9-.8 1.3-1.2l1.3-1.2.8-.8c.2-.3.5-.5.8-.7.4-.2.8-.3 1.2-.2.3.1.6.3.8.6.2.3.3.7.2 1 0 .4-.2.7-.4 1-3.2 3.6-7 6.5-11.3 8.5-.9.4-1.8.7-2.7 1-.9.3-1.9.5-2.9.5-.9 0-1.8-.2-2.7-.5-.9-.4-1.6-1-2.1-1.9-.4-.6-.7-1.2-.8-1.9-.1-.7-.1-1.4 0-2.1.1-.7.3-1.4.6-2 .3-.6.7-1.2 1.2-1.7l.3-.3c-1.3 0-2.5-.2-3.8-.5-1.2-.3-2.4-.7-3.5-1.3l-1.8 1.7c-1.4 1.3-2.8 2.7-4.2 4.2-1.4 1.4-2.8 2.7-4.4 3.9-.1.1-.4.2-.8.5s-.9.5-1.3.7c-.5.2-1 .4-1.6.6-.5.2-1 .3-1.5.3-.4 0-.7-.1-1-.3-.3-.3-.4-.8-.2-1.2 0-.3.2-.6.4-.9.2-.3.5-.6.8-.8.3-.3.6-.5.9-.7.3-.2.5-.4.7-.7l10.4-10.4c-.3-.5-.5-1-.4-1.6.1-.5.3-.9.8-1.1.4-.2.9-.3 1.3-.1.2.1.4.3.6.6l21.5-21.4c1.1-1.2 2.3-2.3 3.4-3.4l3.5-3.5c.2-.2.5-.5.7-.8s.5-.5.8-.8c.3-.3.7-.5 1.1-.5.3 0 .7.1.9.3.2.2.4.6.4.9.2.5.1.9-.1 1.3z"></path><path fill="#070707" d="M303 29c0 .7-.2 1.4-.6 2-.4.5-.9 1.1-1.4 1.7s-1.3 1.3-1.9 2.1-1.2 1.4-1.8 2.1c-.1.2-.4.5-.7.9s-.6.9-1 1.5c-.3.6-.6 1.1-.9 1.7-.3.5-.4 1.1-.5 1.7-.1.4 0 .9.1 1.2.3.4.7.6 1.2.5 1.2.1 2.5 0 3.7-.3 1.2-.3 2.3-.8 3.3-1.3 1.1-.6 2.1-1.3 3-2 1-.8 1.9-1.6 2.8-2.5.4-.4.8-.8 1.1-1.3.3-.4.7-.9 1.2-1.2.2-.2.5-.3.8-.3.3 0 .6 0 .8.1.3.1.5.3.6.5.2.3.3.6.2.9 0 .4-.2.7-.5 1-.3.2-.5.5-.7.8l-1.4 1.4c-.5.5-1 .9-1.5 1.3-.9.8-1.9 1.7-3 2.5s-2.2 1.6-3.4 2.2c-1.1.6-2.3 1.1-3.6 1.5-1.3.4-2.6.5-3.9.4-1.4-.1-2.7-.7-3.7-1.7s-1.6-2.3-1.6-3.7c-.1-1.5.2-2.9.9-4.3.6-1.3 1.3-2.6 2.2-3.8.9-1.2 2-2.4 3.1-3.5s2.3-2.1 3.5-3.1c.2-.1.4-.3.6-.6s.5-.4.8-.6c.3-.2.6-.3.9-.4.3-.1.6 0 .9.1.3.3.5.7.5 1.1-.1.6-.1 1-.1 1.4zm6.7-9.7c-.8 0-1.5-.3-2-.9-.9-1.1-.9-2.7 0-3.8.5-.6 1.2-.9 2-.9.8-.1 1.5.3 2 .9.9 1.1.9 2.7 0 3.8-.5.6-1.3 1-2 .9z"></path><path fill="#070707" d="M317.7 28c.5.5.8 1.3.8 2 1.2-.9 2.4-1.7 3.7-2.4 1.3-.7 2.6-1.2 4.1-1.4.8-.1 1.5-.1 2.3 0 .7.1 1.4.4 2 .8.6.4 1.1 1 1.4 1.6.4.7.6 1.5.7 2.3.1 1.6-.2 3.1-.9 4.5s-1.5 2.7-2.6 3.9c-.8.8-1.5 1.7-2.1 2.6-.4.5-.7 1.2-.8 1.8 0 .4.4.7 1 .7 1.1-.1 2.2-.5 3.1-1 1-.4 1.9-.9 2.8-1.5.9-.6 1.7-1.1 2.4-1.6.5-.4 1-.7 1.4-1.1.5-.4.9-.8 1.4-1.2.5-.4.9-.8 1.3-1.3s.8-.9 1.4-1.2c.3-.2.7-.2 1.1 0 .3.1.5.4.6.7.1.3.2.7.1 1 0 .4-.2.7-.4 1-.8 1-1.7 1.9-2.7 2.7-1 .8-2 1.6-3 2.3s-1.8 1.3-2.8 2c-1 .7-2.1 1.3-3.2 1.8s-2.2.9-3.3 1.2c-1 .3-2.1.2-3.1-.1-1-.3-1.9-1-2.4-2s-.6-2.1-.4-3.2c.2-1 .6-2 1.2-2.8.6-.8 1.2-1.6 1.9-2.3.7-.7 1.3-1.5 2-2.2.7-.8 1.2-1.6 1.6-2.5.5-1.2.7-2.1.4-2.5-.3-.5-.9-.8-1.5-.8-.8 0-1.6.1-2.3.4-.7.2-1.5.5-2.1.9-1.4.8-2.8 1.8-4.1 2.9-1.3 1.1-2.5 2.2-3.7 3.3-1 1.3-2.1 2.6-3.3 3.8-1.2 1.2-2.4 2.3-3.6 3.4-.2.2-.5.5-1 .9s-.9.9-1.4 1.3l-1.5 1.2c-.4.3-.8.5-1.2.5-.5 0-.9-.2-1.2-.6-.3-.4-.4-.8-.3-1.3.2-.6.5-1.1.9-1.5l1.3-1.3c.4-.4 1-1.1 1.5-1.7l1.5-1.8c1-1.1 1.9-2.2 2.9-3.3 1-1.1 1.9-2.3 2.7-3.5.6-.8 1.1-1.7 1.5-2.7.4-.9.7-1.8 1-2.9.2-.5.4-.8.6-.9.2-.1.5-.1.8 0 .3.1.6.3.8.5l.7.6z"></path><path fill="#070707" d="M397.9 2.7c-.5 1.1-1.1 2.1-1.8 3-.7.9-1.4 1.8-2.2 2.7-.8.9-1.6 1.7-2.4 2.5l-2.5 2.5-6.2 6.2c-2.1 2.1-4.2 4.1-6.3 6.2l-4.1 4.1-4.1 4-1.4 1.4c-.5.5-1 1.1-1.5 1.7l-1.5 1.8c-.5.6-.9 1.1-1.2 1.6-.5.6-.8 1.4-.9 2.2 0 .5.2 1 .6 1.3.5.3 1.1.4 1.7.4.8 0 1.7-.2 2.4-.6.7-.2 1.3-.5 1.9-.9.6-.4 1.3-.8 1.9-1.3.8-.6 1.5-1.1 2.2-1.8.7-.6 1.4-1.3 2-2 .2-.2.4-.5.6-.8s.5-.6.7-.9c.2-.3.5-.5.8-.7.3-.2.7-.2 1-.2.5 0 .9.3 1.1.6.1.3.1.7 0 1-.2.4-.4.9-.7 1.2-.3.4-.7.9-1 1.3-.4.4-.8.7-1.1 1s-.5.5-.7.6c-.7.7-1.5 1.4-2.3 2.1-.8.7-1.6 1.4-2.4 2-.8.6-1.7 1.2-2.7 1.6-1 .5-2 .8-3 1.1-.8.2-1.7.3-2.5.3s-1.7-.2-2.3-.7c-.9-.5-1.6-1.4-1.9-2.4-.3-1-.4-2.1-.3-3.2v-.3c-.9.8-1.9 1.5-2.8 2.2-.9.7-1.9 1.4-3 1.9-1.1.7-2.4 1.3-3.6 1.8-1.3.5-2.6.7-4 .6-1.2 0-2.4-.2-3.5-.8-.9-.5-1.6-1.2-2.2-2.1-.5-.9-.8-1.9-.8-3 0-1.2.3-2.4.8-3.5.4-1 1-1.9 1.6-2.8.6-.9 1.3-1.7 2-2.5.8-.8 1.6-1.5 2.4-2.1.8-.7 1.7-1.3 2.6-1.8 1.2-.7 2.4-1.4 3.8-1.9 1.3-.6 2.8-1 4.2-1.2 1.4-.2 2.8-.2 4.2.1 1.4.3 2.7.9 3.7 1.9.7.6 1.2 1.4 1.6 2.3l8.7-8.4c2.9-2.8 5.7-5.6 8.6-8.5l10.1-9.9c.6-.6 1.2-1.2 1.8-1.9.6-.7 1.3-1.2 2-1.7.3-.3.7-.4 1.2-.3.3.1.6.3.8.5.2.3.3.6.3 1-.1.7-.2 1.1-.4 1.5zm-45.7 38.6c1.8-1.2 3.5-2.5 5.1-3.9s3.3-2.8 4.9-4.2l.3-.3c-.2-.9-.6-1.7-1.3-2.3-.8-.6-1.7-.9-2.6-.9-.8 0-1.7.1-2.5.3-.8.2-1.6.5-2.4.9-.8.4-1.5.8-2.3 1.2-.7.4-1.4.9-2.1 1.3-.4.3-.9.7-1.5 1.3s-1.4 1.3-2.1 2c-.7.7-1.4 1.5-2 2.4-.5.7-.9 1.5-1.2 2.3-.2.6-.2 1.2.1 1.8.3.5.9.8 2 .8 1.4 0 2.7-.3 4-.8 1.2-.5 2.5-1.2 3.6-1.9z"></path><path fill="#070707" d="M243.7 46.1c-.1.5-.2.9-.5 1.3l-.9 1.2c-.4.5-.9 1-1.4 1.5s-1 1-1.4 1.5l-1 1 .5-.1c.2 0 .3-.1.5-.1.6-.2 1.2-.3 1.7-.5.6-.2 1.1-.4 1.6-.7.2-.1.5-.2.8-.2.2 0 .4.1.5.5.1.2.1.3 0 .5s-.1.3-.2.5c-.2.5-.6 1-1.1 1.3-.5.3-1 .6-1.6.7-.6.2-1.2.3-1.8.4-.6.1-1.2.1-1.7.2h-1.6l-2.8 2.8c-.9.9-1.9 1.8-2.8 2.7s-1.9 1.8-2.8 2.7c-.3.2-.5.5-.8.8l-.6.9c-.1.2-.1.3-.1.5v.5c0 .2.1.3.2.4.1.1.3.2.4.2.5.1 1 .1 1.5 0s1.1-.2 1.6-.4 1-.4 1.5-.7c1-.5 2-1.2 2.8-1.9.4-.4.9-.8 1.3-1.2l.4-.4c.1-.1.4-.2.6-.2.2.1.4.2.5.3.1.2.2.4.2.6 0 .2-.1.4-.2.5-.1.2-.3.3-.4.5-.2.1-.3.3-.5.4-.2.1-.3.2-.4.3-.4.4-.9.7-1.3 1.1-.4.4-.9.7-1.4 1-.4.3-.9.6-1.4.8-.5.3-1 .5-1.5.7-.5.2-1.1.3-1.6.5-.5.1-1.1.2-1.6.2s-1-.1-1.4-.3c-.4-.2-.7-.5-1-.9-.3-.4-.4-.8-.5-1.2-.1-.5-.1-1 0-1.4.1-.4.2-.8.4-1.2.2-.4.4-.7.7-1.1.3-.3.6-.7.9-1l.9-.9 5.8-5.8c-.4-.1-.9-.2-1.3-.3l-.6-.2c-.2-.1-.5-.2-.7-.3-.2-.1-.4-.2-.6-.4-.1-.1-.2-.3-.2-.5s.1-.4.4-.5h.8c.3.1.6.1.9.2.2.1.4.1.7.2.4 0 .8.1 1.1.1h1.2l3.8-3.8 1.8-1.8 1.8-1.8.3-.3.3-.3c.2-.1.4-.2.6-.2.2 0 .4.1.5.3.1.2.1.3.1.5.2-.1.2.1.1.3z"></path><path fill="#070707" d="M246.1 56.8c.7 0 1.3.1 1.9.4.5.3.9.7 1.1 1.2.2.5.3 1.1.3 1.7-.1.7-.3 1.4-.6 2-.1.3-.3.5-.4.8-.2.2-.3.5-.5.8.5 0 1.1 0 1.6-.1.6-.1 1.1-.3 1.6-.6.3-.2.5-.4.8-.6.2-.2.5-.4.8-.5.3-.1.5-.1.8.1.2.1.4.4.4.7 0 .2 0 .3-.1.5-.1.1-.2.3-.4.4-.1.1-.3.2-.4.3-.1.1-.3.2-.4.3-.6.4-1.2.8-1.9 1-.7.2-1.4.3-2.1.3-.3 0-.6 0-.9-.1-.3 0-.6-.1-.9-.2-.6.6-1.3 1.1-2.1 1.6-.7.4-1.5.8-2.3 1.1-.4.1-.8.3-1.2.4s-.9.2-1.4.3c-.5.1-1 .1-1.5.1s-1-.1-1.4-.2c-.4-.1-.8-.3-1.2-.6-.4-.3-.6-.7-.8-1.1-.3-.6-.3-1.3-.2-2 .2-.7.4-1.4.8-2 .4-.6.9-1.2 1.4-1.8.5-.5 1-.9 1.5-1.4 2-1.7 4.8-2.7 7.7-2.8zm-3.9 4.9c-.1-.3-.2-.5-.3-.8-.1-.3-.2-.6-.2-.9-.4.2-.7.5-1.1.8s-.7.6-1 .9c-.2.2-.4.4-.8.7s-.7.7-1 1.1l-.9 1.2c-.2.3-.4.7-.5 1.1-.1.3 0 .6.2.8.4.3.8.4 1.3.3.6 0 1.2-.1 1.7-.2.6-.2 1.1-.4 1.7-.6.5-.3 1.1-.6 1.6-.9.5-.3.9-.7 1.4-1.1-.9-.7-1.6-1.5-2.1-2.4zm3.9-3.2c-.5 0-1 0-1.5.2-.5.1-.9.3-1.4.4 0 .8.2 1.5.6 2.2.4.6.9 1.2 1.5 1.6l.7-.8c.3-.3.5-.6.7-.9.2-.3.4-.7.5-1 .1-.3.2-.5.2-.8 0-.2-.1-.5-.4-.6-.2-.3-.5-.4-.9-.3z"></path><path fill="#070707" d="M373.4 63.1l-84.7-.7c-7.8-.1-15.7-.1-23.5.1-.4 0-.7.3-.7.7 0 .4.3.7.7.7 14.1.5 28.3.6 42.4.7s28.1.3 42.1.5l23.4.2c1.5.1 1.8-2.2.3-2.2z"></path><path fill="#070707" d="M213.1 60.7c-19.5 1.1-39 1.2-58.5 1-2.8 0-5.6-.1-8.3-.2-2.8-.2-5.7-.2-8.5 0-.8.1-.7 1.2 0 1.3 4.8.9 9.8.7 14.7.9s9.9.2 14.8.3c9.7.1 19.5-.1 29.2-.4 5.5-.2 11.1-.4 16.6-.7 1.3-.1 1.3-2.3 0-2.2z"></path></g></svg>