<svg xmlns="http://www.w3.org/2000/svg" width="518.5" height="451.2" viewBox="-0.024999763816595078 0.03331318497657776 518.5250244140625 451.2666931152344" style=""><g><path fill="#510303" d="M10.1 160.8h27.6c15.2 0 25.8 4 32 12 4 5.3 6.1 12.1 6.1 20.5 0 10.3-3.4 18-10.1 23.2-6.7 5.2-15.5 7.7-26.5 7.7h-9.7c-1.1-.2-2.1.6-2.3 1.7V261.7c0 2.3-.4 3.8-1.3 4.4-1.2.7-2.6 1-4 .9H10.1c-1.2.1-2.5-.1-3.6-.6-1.1-.8-1.7-2.4-1.7-4.7v-95.6c-.1-1.2.1-2.5.6-3.6.8-1.1 2.4-1.7 4.7-1.7zm18.8 43.7h8.8c3.6.1 7-1.1 9.8-3.4 2.6-2.2 4.1-5.5 4-8.9.2-3-.9-6-2.9-8.2-2.4-2.5-6.1-3.8-11-3.8h-8.4c-1-.1-1.9.5-2 1.5V203c0 1 .6 1.5 1.7 1.5z"></path><path fill="#510303" d="M84.9 261.6v-95.5c-.1-1.2.1-2.5.6-3.6.8-1.1 2.4-1.7 4.7-1.7H140c2.3 0 3.8.4 4.4 1.3.7 1.2 1 2.6.9 4v10.8c0 1-.4 2-1.1 2.7-1 .7-2.3 1.1-3.6 1h-30.5c-1.8 0-2.7.8-2.7 2.4v15.9c0 1.8.6 2.7 1.7 2.7h24c.9 0 1.8.2 2.5.8.7.5 1 1.3 1 2.1v13.8c0 2-1 3-3 3h-24.2c-1.3 0-2 .9-2 2.6v21.5c0 1.2.6 1.8 1.7 1.8h34.1c1.7 0 2.8.3 3.3 1 .6.8.8 1.8.8 2.8v10.6c.1 1.2-.1 2.5-.6 3.6-.8 1.1-2.4 1.7-4.7 1.7H90.2c-1.2.1-2.5-.1-3.6-.6-1.2-.8-1.7-2.3-1.7-4.7z"></path><path fill="#510303" d="M163.9 160.8H192c12.8 0 22.4 3.3 28.8 9.9 5.1 5.3 7.7 11.9 7.7 19.9 0 7.3-1.7 13.3-5.1 18.2-2.4 3.7-6 6.5-10.2 8-.9.2-1.4.6-1.4 1.4.1.9.3 1.7.8 2.4l19 40.9c.3.7.4 1.4.4 2.1 0 2.2-1.2 3.3-3.6 3.3h-15.9c-2.2 0-3.8-.5-4.7-1.4-.4-.6-.8-1.2-1.1-1.8l-18-39.4c-.5-1.3-1.8-2.1-3.2-2.1h-2.9c-1.1 0-1.7.6-1.7 1.8v37.6c0 2.3-.4 3.8-1.3 4.4-1.2.7-2.6 1-4 .9h-11.9c-1.2.1-2.5-.1-3.6-.6-1.1-.8-1.7-2.4-1.7-4.7v-95.5c-.1-1.2.1-2.5.6-3.6 1-1.1 2.6-1.7 4.9-1.7zm17.1 22v18.5c0 1.5.7 2.3 2.1 2.3h7.1c4.3 0 7.6-1.1 10.2-3.2 2.5-2.1 3.9-5.2 3.8-8.5.1-2.9-.9-5.7-2.9-7.9-2.4-2.5-6.1-3.8-11.1-3.8h-6.7c-1.2-.2-2.4.6-2.6 1.9.1.2.1.5.1.7z"></path><path fill="#510303" d="M239.7 261.6v-95.5c-.1-1.2.1-2.5.6-3.6.8-1.1 2.4-1.7 4.7-1.7h48.1c2.3 0 3.8.4 4.4 1.3.7 1.2 1 2.6.9 4v11.7c0 1-.4 2-1.1 2.6-1 .7-2.3 1.1-3.6 1h-28.8c-1.8 0-2.7.8-2.7 2.4v15.9c0 1.8.5 2.7 1.7 2.7h24c.9 0 1.8.2 2.5.8.7.5 1 1.3 1 2.1v13.8c0 2-1 3-3 3h-24.2c-1.3 0-2 .9-2 2.6v36.8c0 2.3-.4 3.8-1.3 4.4-1.2.7-2.6 1-4 .9h-11.8c-1.2.1-2.5-.1-3.6-.6-1.2-.7-1.8-2.2-1.8-4.6z"></path><path fill="#510303" d="M308.3 261.6v-95.5c-.1-1.2.1-2.5.6-3.6.8-1.1 2.4-1.7 4.7-1.7h49.8c2.3 0 3.8.4 4.4 1.3.7 1.2 1 2.6.9 4v10.8c0 1-.4 2-1.1 2.7-1 .7-2.3 1.1-3.6 1h-30.5c-1.8 0-2.7.8-2.7 2.4v15.9c0 1.8.6 2.7 1.7 2.7h24c.9 0 1.8.2 2.5.8.7.5 1 1.3 1 2.1v13.8c0 2-1 3-3 3h-24.2c-1.3 0-2 .9-2 2.6v21.5c0 1.2.6 1.8 1.7 1.8h34.1c1.7 0 2.8.3 3.3 1 .6.8.8 1.8.8 2.8v10.6c.1 1.2-.1 2.5-.6 3.6-.8 1.1-2.4 1.7-4.7 1.7h-51.7c-1.2.1-2.5-.1-3.6-.6-1.2-.8-1.8-2.3-1.8-4.7z"></path><path fill="#510303" d="M437.2 164.3v13.9c0 .6-.1 1.3-.3 1.9-.2.4-.7.7-1.5.7-2.3-.5-4.7-1-7.2-1.4-2.2-.4-4.5-.7-6.8-.7-6.9 0-11.4 2.2-13.5 6.5-1.3 2.7-2 7.6-2 14.7v25.6c0 8.7 1.1 14.5 3.4 17.4 2.3 2.9 6.6 4.4 13.1 4.3 3.6 0 6.1-.3 7.4-1s3.5-1 6.5-1c1.5 0 2.3.9 2.3 2.7v13.5c0 2.3-1.2 4-3.7 5.1s-8.1 1.6-17 1.6c-14 0-23.6-3.7-29-11.2-3.6-5.2-5.5-13-5.5-23.5v-43.1c0-9 2.1-15.9 6.4-20.8 5.8-6.7 15.5-10 29.3-10 7.6 0 12.7.5 15.5 1.5 1.8.7 2.6 1.8 2.6 3.3z"></path><path fill="#510303" d="M448.1 160.8h67.2c1-.1 1.9.3 2.5 1.1.5.8.7 1.6.7 2.5v13.5c0 2.1-1.1 3.2-3.2 3.2h-19.7c-1.3-.2-2.5.7-2.7 2v78.5c.1 1.2-.1 2.5-.6 3.6-.8 1.1-2.4 1.7-4.7 1.7h-11.8c-2.3 0-3.8-.4-4.4-1.3-.7-1.2-1-2.6-.9-4v-77.8c.2-1.3-.7-2.5-2-2.7h-19.8c-2.5 0-3.8-1-3.8-3v-14.4c-.1-1.9 1-2.9 3.2-2.9z"></path><path fill="#D15A81" d="M226.2 54.4c0 .3-.1.7-.3.9-.2.3-.5.5-.9.5-8.8 1.1-19.2 2.9-31.3 5.4-.1 2.6-.2 5.2-.3 7.9-.9 16.6-3.4 31.5-7.5 44.7s-9.2 23.1-15.5 29.8c-5.9 6.3-12.6 9.4-20 9.4-.4 0-.8 0-1.3-.1-8.6-.4-17.9-5.1-27.8-14-14.2-12.8-19.5-24.8-16-36 4.9-15.5 26.3-28.4 64.3-38.8 6.7-1.9 13.9-3.6 21.5-5.2.1-7.5-.2-15-1-22.4-.6-6.1-1.8-12.2-3.5-18.2-1.6-5.2-3.4-9.1-5.6-11.9-7.2 16.5-14 28.8-20.4 37s-12.1 11.8-17 10.6c-4.6-1.1-7.8-6-9.8-14.7-1.9-8.7-2.4-20.5-1.3-35.2 0-.4.2-.7.5-.9.3-.2.6-.4 1-.3.3 0 .7.2.9.5.2.3.4.6.3 1-.5 7-.6 13.9-.4 20.9.1 4.8.7 9.7 1.9 14.4.7 3 1.8 5.8 3.4 8.5.9 1.6 2.4 2.8 4.2 3.4 3.9.9 8.7-2.3 14.5-9.6 6.5-8.3 13.5-21 20.9-38.2.1-.4.5-.7.9-.8.4-.1.8 0 1.1.3 4.6 4.5 8 13 10.1 25.7 1.6 9.8 2.2 19.7 2.1 29.6 11.9-2.4 22.2-4.2 31-5.2.2 0 .5 0 .7.1.3.1.6.5.6.9zm-35.4 14.5l.3-7.2c-4.9 1-9.7 2.1-14.4 3.3-4.7 1.2-9.6 2.5-14.9 4.2-5.3 1.6-10.2 3.3-14.8 5-4.6 1.7-9.1 3.7-13.5 5.9-4.1 2-8 4.3-11.8 6.9-3.2 2.2-6.2 4.9-8.8 7.9-2.3 2.6-4 5.6-5.2 8.9-3.2 10.1 1.9 21.2 15.3 33.2 18 16.2 33.1 17.8 45.3 4.8 6.1-6.5 11.1-16.2 15-29.1 4.1-12.8 6.6-27.4 7.5-43.8z"></path><path fill="#D15A81" d="M304.1 34.7c.3 2.3.6 4.5.6 6.8.1 2.7 0 5.4-.3 8.2-.3 3.1-.8 6.3-1.6 9.3-.9 3.5-2 7-3.4 10.3-1.6 3.9-3.4 7.6-5.5 11.2-7.3 12.5-14.4 22-21.4 28.4-7 6.5-13.5 9.7-19.8 9.7h-.4c-3.7-.1-7.2-1.4-10.2-3.6-3.4-2.7-6.1-6.2-8-10.1-2.4-4.7-4.1-9.8-5.1-15-1.1-5.8-1.6-11.7-1.4-17.6.2-10.4 2.2-19.5 6-27.3-.2-9.4 4-19.7 12.7-30.9 2.7-3.5 5.9-6.6 9.6-9.1 3.2-2.2 6.9-3.8 10.8-4.5 7.1-1.3 13.8.1 20.2 4.4 4.7 3.2 8.5 7.4 11.3 12.4 3.1 5.3 5.1 11.3 5.9 17.4zm-12.4 44.5c2-3.5 3.8-7.1 5.3-10.8 1.3-3.2 2.4-6.6 3.3-10 .7-3 1.2-6 1.5-9 .3-2.6.4-5.2.4-7.8-.1-2.2-.3-4.4-.6-6.5-.8-5.7-2.7-11.3-5.6-16.3-2.6-4.6-6.2-8.6-10.5-11.6-2-1.3-4.1-2.4-6.3-3.2-2.3-.8-4.8-1.2-7.2-1.2-2.6 0-5.2.3-7.7 1.1-2.9.9-5.5 2.4-7.9 4.2-2.9 2.2-5.5 4.8-7.8 7.7-6.7 8.6-10.6 16.6-11.8 24 0-.1.1-.1.1-.2.2-.3.5-.5.8-.6.3-.1.7 0 1 .2.3.2.5.5.6.8.1.3 0 .7-.2 1-1 1.5-1.8 3-2.6 4.6.1 2 .4 4.1 1 6 .1.3.1.7-.1 1-.2.3-.5.5-.8.6-.3.1-.7.1-1-.1-.3-.2-.5-.5-.6-.8-.2-.6-.3-1.3-.5-2-2.6 7.1-3.9 14.6-4 22.1-.1 5.7.3 11.4 1.4 17 .9 5 2.5 9.8 4.8 14.3.8 1.5 1.6 2.9 2.6 4.3s2.2 2.7 3.4 3.8c1.3 1.3 2.8 2.3 4.5 3 1.7.7 3.6 1.2 5.4 1.2 1.8 0 3.7-.2 5.4-.8 2.4-.8 4.6-1.9 6.7-3.3 2.8-1.9 5.5-4 7.9-6.4 3.3-3.3 6.3-6.9 9-10.7 3.6-4.9 7-10.2 10.1-15.6z"></path><path fill="#D15A81" d="M422.9 82.9c.3 0 .7.1.9.3.3.2.4.5.5.9 0 .3-.1.7-.3.9-8.1 9.7-15.2 14.5-21.3 14.5-1.4 0-2.7-.3-4-.8-9.3-3.7-14.9-20.8-16.6-51.1-.6-10.1-.7-21.1-.4-32.9-9.6 32.8-18 57.2-25.1 72.9-3.5 7.6-6.6 13.3-9.5 17s-5.6 5.5-8.1 5.5c-.3 0-.6 0-.9-.1-4.3-.7-7.5-6.9-9.6-18.5-1.6-8.9-2.6-21-3.1-36.1-.2-4.8-.3-9.9-.3-15.2V26.3c0-3.9.1-7.8.2-11.6s.2-6.5.2-7.8.1-2.3.1-3c0-.4.2-.7.5-.9.5-.5 1.3-.5 1.8 0 .2.3.4.6.4 1 0 .6-.1 1.7-.1 3s-.1 4-.2 7.8-.2 7.7-.2 11.5-.1 8.5 0 13.8.1 10.4.3 15.2c.5 15 1.5 26.9 3.1 35.7.5 2.8 1.2 5.5 1.9 8.2.5 1.7 1.2 3.4 2.1 5 .5.9 1.1 1.6 1.9 2.3.4.4 1 .7 1.6.8.4.1.9 0 1.3-.1.6-.2 1.2-.5 1.8-.9.9-.6 1.7-1.4 2.4-2.2 1-1.2 1.9-2.4 2.8-3.7 1.2-1.9 2.4-3.8 3.4-5.8 1.3-2.4 2.6-5.1 4-8.1 7.8-17.4 17.2-45 28-83 .1-.3.3-.6.6-.8.3-.2.6-.2.9-.2.3.1.6.2.8.5.2.2.3.5.3.9 0 .5-.1 1.4-.2 2.5s-.1 3.3-.2 6.5-.2 6.4-.2 9.7 0 7.2.1 11.7.2 8.9.5 13c.4 8.3 1.3 16.5 2.8 24.6 1.3 6.9 3 12.4 5 16.4 2 4.1 4.4 6.6 7.1 7.8 5.7 2.3 13.1-2.1 22.3-13 0-.1.3-.2.7-.2z"></path><path fill="#8E0A0A" d="M5.3 156h27.6c15.2 0 25.8 4 32 12 4.1 5.2 6.1 12.1 6.1 20.4 0 10.3-3.4 18.1-10.1 23.2-6.7 5.2-15.5 7.7-26.5 7.7h-9.7c-1.1-.2-2.1.6-2.3 1.7V256.8c0 2.3-.4 3.8-1.3 4.4-1.2.7-2.6 1-4 .9H5.3c-1.2.1-2.5-.1-3.6-.6-1.1-.8-1.7-2.4-1.7-4.7v-95.6c-.1-1.2.1-2.5.6-3.6.8-1 2.4-1.6 4.7-1.6zm18.8 43.7h8.8c3.6.1 7-1.1 9.8-3.4 2.6-2.2 4.1-5.5 4-8.9.2-3-.9-5.9-2.9-8.2-2.4-2.5-6.1-3.8-11.1-3.8h-8.3c-.9-.2-1.8.5-2 1.4V198.2c.1 1 .6 1.5 1.7 1.5z"></path><path fill="#8E0A0A" d="M80.1 256.9v-95.6c-.1-1.2.1-2.5.6-3.6.8-1.1 2.4-1.7 4.7-1.7h49.7c2.3 0 3.8.4 4.4 1.3.7 1.2 1 2.6.9 4v10.8c0 1-.4 2-1.1 2.7-1 .7-2.3 1.1-3.6 1h-30.5c-1.8 0-2.7.8-2.7 2.4v15.9c0 1.8.6 2.7 1.7 2.7h24c.9 0 1.8.2 2.5.8.7.5 1 1.3 1 2.1v13.8c0 2-1 3-3 3h-24.2c-1.3 0-2 .9-2 2.6v21.5c0 1.2.6 1.8 1.7 1.8h34.1c1.7 0 2.8.3 3.3 1 .6.8.8 1.8.8 2.8v10.6c.1 1.2-.1 2.5-.6 3.6-.8 1.1-2.4 1.7-4.7 1.7H85.4c-1.2.1-2.5-.1-3.6-.6-1.2-.7-1.7-2.3-1.7-4.6z"></path><path fill="#8E0A0A" d="M159.1 156h28.1c12.9 0 22.5 3.3 28.8 9.9 5.1 5.3 7.7 11.9 7.7 19.9 0 7.3-1.7 13.3-5.2 18.2-2.4 3.7-6 6.5-10.2 8-.9.2-1.4.7-1.4 1.4.1.9.3 1.7.8 2.4l19 41c.3.7.4 1.4.5 2.1 0 2.2-1.2 3.3-3.6 3.3h-15.8c-2.2 0-3.8-.5-4.7-1.4-.5-.5-.8-1.1-1.1-1.8l-18-39.4c-.5-1.3-1.8-2.1-3.2-2.1h-2.9c-1.1 0-1.7.6-1.7 1.8v37.6c0 2.3-.4 3.8-1.3 4.4-1.2.7-2.6 1-4 .9H159c-1.2.1-2.5-.1-3.6-.6-1.1-.8-1.7-2.4-1.7-4.7v-95.6c-.1-1.2.1-2.5.6-3.6.9-1.1 2.5-1.7 4.8-1.7zm17.1 22v18.5c0 1.5.7 2.3 2.1 2.3h7.1c4.2 0 7.6-1.1 10.2-3.2 2.5-2.1 3.9-5.2 3.8-8.5.1-2.9-.9-5.7-2.9-7.9-2.4-2.5-6.1-3.8-11.1-3.8h-6.7c-1.2-.2-2.4.7-2.6 1.9.1.3.1.5.1.7z"></path><path fill="#8E0A0A" d="M234.9 256.9v-95.6c-.1-1.2.1-2.5.6-3.6.8-1.1 2.4-1.7 4.7-1.7h48.1c2.3 0 3.8.4 4.4 1.3.7 1.2 1 2.6.9 4V173c0 1-.4 2-1.1 2.6-1 .8-2.3 1.1-3.6 1h-28.8c-1.8 0-2.7.8-2.7 2.4v16c0 1.8.6 2.7 1.7 2.7h24c.9 0 1.8.2 2.5.8.7.5 1 1.3 1 2.1v13.8c.2 1.5-.8 2.8-2.3 3h-24.9c-1.3 0-2 .9-2 2.6v36.9c0 2.3-.4 3.8-1.3 4.4-1.2.7-2.6 1-4 .9h-11.8c-1.2.1-2.5-.1-3.6-.6-1.2-.8-1.8-2.4-1.8-4.7z"></path><path fill="#8E0A0A" d="M303.5 256.9v-95.6c-.1-1.2.1-2.5.6-3.6.8-1.1 2.4-1.7 4.7-1.7h49.8c2.3 0 3.8.4 4.4 1.3.7 1.2 1 2.6.9 4v10.8c0 1-.4 2-1.1 2.7-1 .7-2.3 1.1-3.6 1h-30.5c-1.8 0-2.7.8-2.7 2.4v15.9c0 1.8.5 2.7 1.7 2.7h24c.9 0 1.8.2 2.5.8.7.5 1 1.3 1 2.1v13.8c.2 1.5-.8 2.8-2.3 3H328c-1.3 0-2 .9-2 2.6v21.5c0 1.2.5 1.8 1.7 1.8h34.1c1.7 0 2.8.3 3.3 1 .6.8.8 1.8.8 2.8v10.6c.1 1.2-.1 2.5-.6 3.6-.8 1.1-2.4 1.7-4.7 1.7h-51.7c-1.2.1-2.5-.1-3.6-.6-1.3-.7-1.8-2.3-1.8-4.6z"></path><path fill="#8E0A0A" d="M432.4 159.5v14c0 .6-.1 1.3-.3 1.9-.2.5-.7.7-1.5.7-2.3-.5-4.7-1-7.2-1.4-2.2-.4-4.5-.7-6.8-.7-6.9 0-11.4 2.2-13.5 6.5-1.3 2.7-2 7.6-2 14.7v25.6c0 8.7 1.1 14.5 3.4 17.4 2.3 2.9 6.6 4.3 13.1 4.3 3.6 0 6.1-.3 7.4-1s3.5-1 6.5-1c1.5 0 2.3.9 2.3 2.7v13.5c0 2.3-1.2 4-3.7 5.1s-8.2 1.6-17.1 1.6c-14 0-23.6-3.7-29-11.2-3.6-5.2-5.5-13-5.5-23.5v-43.1c0-9 2.1-15.9 6.4-20.8 5.8-6.7 15.5-10 29.3-10 7.6 0 12.7.5 15.5 1.5 1.8.6 2.7 1.7 2.7 3.2z"></path><path fill="#8E0A0A" d="M443.3 156h67.2c1-.1 1.9.3 2.5 1.1.5.8.7 1.6.7 2.5v13.5c0 2.1-1.1 3.2-3.2 3.2h-19.7c-1.3-.2-2.5.7-2.7 2v78.5c.1 1.2-.1 2.5-.6 3.6-.8 1.1-2.4 1.7-4.7 1.7H471c-2.3 0-3.8-.4-4.4-1.3-.7-1.2-1-2.6-.9-4V179c.2-1.3-.7-2.5-2-2.7h-19.8c-2.5 0-3.8-1-3.8-3v-14.5c-.1-1.8 1-2.8 3.2-2.8z"></path><path fill="#D15A81" d="M81.6 352.7c.3 0 .7.2.9.5.2.3.3.6.3 1s-.2.7-.5.9c-.3.2-.6.3-.9.3-9.3-.9-20-.3-32.2 1.9-.2 5.6-.3 11.7-.3 18.1 3.6 4.5 6.6 9.4 9.1 14.6 3.4 7 6 14.4 7.8 22 1.7 6.7 2.5 13.7 2.3 20.6-.3 5.6-1.3 10.1-3.1 13.5-1.8 3.4-4 5.2-6.5 5.2-1.1 0-2.1-.4-3-1-1.1-.8-2-1.8-2.8-3-1-1.7-1.8-3.6-2.3-5.5-.7-2.7-1.2-5.4-1.3-8.2-1.7-22-2.7-41.1-2.7-57.4-6.3-7.5-13-11.9-20.4-13.2-.6-.1-1-.6-1-1.2-.1-.6.3-1.2.8-1.3l2.9-.9c1.3-.4 3.7-1.1 7.3-2 3.6-.9 7.2-1.8 10.7-2.5.2-4.4.5-8.5.9-12.4 2.1-21.5 6.8-35.6 14-42.4 4.1-4 9.8-5.7 15.5-4.8.7.2 1.1.8 1 1.5 0 .3-.2.7-.5.9-.3.2-.6.3-.9.3-4.8-.9-9.8.6-13.3 4-8 7.5-12.7 25-14 52.5 12.1-2.4 22.9-3 32.2-2zm-35.5 19.6c0-5.1.1-10 .3-14.6-5.3 1.1-10.6 2.4-15.7 3.9 6 2.2 11.3 5.9 15.4 10.7zm9.5 18.8c-2-4-4.2-7.8-6.8-11.4.2 15.6 1 33.5 2.7 53.7.4 4.9 1.3 8.6 2.6 11.3 1.3 2.6 2.7 3.9 4.2 3.9 1.6 0 3.1-1.5 4.5-4.4 1.6-3.7 2.4-7.8 2.5-11.8.2-6.7-.5-13.5-2.2-20-1.7-7.4-4.2-14.5-7.5-21.3z"></path><path fill="#D15A81" d="M160.2 334.4c.3 2.3.5 4.6.6 6.8.1 2.7 0 5.5-.3 8.2-.3 3.1-.8 6.3-1.6 9.3-.9 3.5-2 6.9-3.4 10.3-1.6 3.9-3.4 7.6-5.5 11.2-7.3 12.5-14.4 22-21.4 28.4-7 6.4-13.5 9.7-19.8 9.7h-.4c-3.7-.1-7.2-1.3-10.2-3.6-3.4-2.7-6.1-6.2-8-10.1-2.4-4.7-4.1-9.8-5.1-15-1.1-5.8-1.6-11.7-1.5-17.7.2-10.4 2.2-19.5 6-27.3-.2-9.4 4-19.7 12.7-30.9 2.7-3.5 5.9-6.6 9.6-9.1 3.2-2.2 6.9-3.8 10.8-4.5 7.1-1.3 13.8.2 20.1 4.5 4.7 3.2 8.5 7.4 11.3 12.4 3.2 5.4 5.3 11.3 6.1 17.4zm-12.5 44.5c2-3.5 3.8-7.1 5.3-10.8 1.3-3.2 2.4-6.6 3.3-10 .7-3 1.2-6 1.6-9 .3-2.6.4-5.2.4-7.8-.1-2.2-.3-4.4-.6-6.5-.8-5.8-2.7-11.3-5.6-16.4-2.6-4.6-6.2-8.6-10.5-11.6-2-1.3-4.1-2.4-6.3-3.2-2.3-.8-4.8-1.2-7.2-1.2-2.6 0-5.2.3-7.7 1.1-2.9 1-5.5 2.4-7.9 4.2-2.9 2.2-5.5 4.8-7.8 7.7-6.7 8.6-10.6 16.6-11.8 24 0-.1.1-.1.1-.1.2-.3.5-.5.8-.6.3-.1.7 0 1 .2.3.2.5.5.6.8.1.3 0 .7-.2 1-1 1.5-1.9 3-2.6 4.6.1 2 .4 4.1 1 6 .1.3.1.7-.1 1-.2.3-.5.5-.8.6-.7.2-1.4-.2-1.6-.9v-.1c-.2-.6-.3-1.3-.4-2-2.6 7.1-3.9 14.6-4 22.1-.1 5.7.3 11.4 1.4 17 .9 5 2.5 9.8 4.8 14.3.8 1.5 1.6 2.9 2.6 4.3s2.1 2.7 3.4 3.8c1.3 1.3 2.8 2.3 4.5 3 1.7.7 3.6 1.2 5.4 1.2 1.8 0 3.7-.2 5.4-.8 2.4-.8 4.6-1.9 6.7-3.3 2.8-1.9 5.5-4 7.9-6.4 3.3-3.3 6.3-6.9 9-10.7 3.4-4.9 6.8-10.1 9.9-15.5z"></path><path fill="#D15A81" d="M257.5 385.7l.5-.2.5.2c.3.1.6.4.7.7.1.3.1.7 0 1-.7 1.5-1.5 2.9-2.5 4.1-1.1 1.4-2.4 2.7-3.8 3.8-1.5 1.2-3.1 2.3-4.8 3.2-1.8.9-3.7 1.7-5.7 2.2-2.1.5-4.2.8-6.3.8-6 0-11.7-2.1-16.4-5.9-5.8-4.5-10.7-11.3-14.7-20.4-2.2-5-4.6-9.9-7.3-14.6-.4 0-.8 0-1.2-.1-.9-.1-1.8-.3-2.7-.6-1-.4-1.9-.9-2.8-1.5-1.1-.8-2.1-1.8-2.9-2.9-1-1.4-1.9-2.8-2.5-4.4-.3-.7-.5-1.4-.6-2.1-.1-.5-.1-1-.1-1.5.1-.4.2-.7.4-1 .1-.2.3-.4.5-.6l.4-.3c1.4-.6 3.2.2 5.5 2.4 2.9 3 5.3 6.3 7.4 9.9 3.2-.5 6.2-1.9 8.7-4 3.3-2.6 6.2-5.7 8.5-9.2 1.7-2.5 3.2-5 4.5-7.7 1.4-2.9 2.5-6 3.4-9.1.9-3.3 1.5-6.6 1.8-10 .2-3.5.1-7.1-.6-10.6-.6-3.7-1.8-7.2-3.4-10.6-2.1-4.3-5.2-6.1-9.2-5.3-2.6.5-5.5 2.1-8.7 4.7-3.5 2.9-6.6 6.3-9.2 10-2.7 3.6-4.9 7.5-6.8 11.6-1.6 3.3-2.6 6.9-3.1 10.5-2.1 37.1-1 66.4 3.3 88 .1.3 0 .7-.2 1-.2.3-.5.5-.8.5h-.2c-.1 0-.3 0-.4-.1-.1 0-.3-.1-.4-.2l-.3-.3c-.1-.1-.1-.3-.1-.5-4.3-21.6-5.4-50.9-3.4-87.8 0-.1 0-.2-.1-.3l.1-.7c.9-15.3 1.9-28.5 3.3-39.5.1-.4.2-.7.5-.9.3-.2.6-.3 1-.3.7.1 1.2.7 1.1 1.4-.9 7.4-1.8 16.7-2.6 28 1.9-4.3 4.3-8.3 7.1-12.1 2-2.7 4.2-5.3 6.6-7.7 2-2 4.3-3.8 6.7-5.4 1.9-1.3 4.1-2.1 6.3-2.6.8-.1 1.6-.2 2.4-.2.8 0 1.7.1 2.5.3.9.3 1.7.6 2.6 1.1.9.6 1.8 1.3 2.4 2.1.9 1 1.6 2.2 2.2 3.4 1.7 3.5 3 7.3 3.7 11.2.7 3.7.9 7.4.6 11.2-.3 3.6-.9 7.2-1.8 10.6-.9 3.3-2.1 6.5-3.5 9.6-1.3 2.8-2.9 5.5-4.7 8.1-2.4 3.6-5.4 6.8-8.7 9.5-2.7 2.2-5.8 3.8-9.2 4.6 2.3 4.1 4.6 8.7 6.9 13.8 3.5 8 7.7 14.1 12.6 18.4 4.9 4.2 10.3 6.4 16 6.4 1.6 0 3.2-.2 4.8-.5 1.5-.3 3-.8 4.4-1.4 1.3-.6 2.6-1.3 3.9-2.1 1.2-.8 2.3-1.6 3.3-2.6.9-.9 1.8-1.9 2.6-2.9.7-.9 1.3-1.9 1.8-3-.3-.2-.1-.4.2-.6zm-69.4-35.5c1.9 4.5 4.6 7 8 7.7-1.5-2.5-3.3-4.8-5.2-7-.9-1.1-2-2-3.3-2.7 0 .7.2 1.4.5 2z"></path><path fill="#D15A81" d="M428.8 386.4c.4-.1.8 0 1.1.2.3.2.6.6.6 1 .1.4 0 .8-.2 1.2-5 7.6-10 10.8-14.9 9.8-5-1-9.7-6.8-14-17.2-4.3-10.4-8.3-25.7-11.9-46-1.7-9.6-3.4-16.7-5.1-21.3-.3-.9-.6-1.8-1-2.6s-.6-1.3-.9-1.7l-.6-.9-.4-.4h-.1c-.1 0-.2.1-.3.1-.3.2-.5.5-.7.8-.4.6-.7 1.3-1 2-.5 1.3-1 2.6-1.3 3.9-.5 1.8-1.1 3.8-1.7 6.2-1.2 5.4-3 15.2-5.4 29.5-.7 4-1.2 7.4-1.7 10-.4 2.7-.9 5.5-1.5 8.3-.5 2.8-1 5.2-1.4 7s-.8 3.6-1.3 5.4c-.4 1.4-.8 2.8-1.3 4.2-.4 1-.8 1.9-1.3 2.8-.3.7-.8 1.3-1.5 1.7-.5.3-1 .5-1.6.5h-.1c-.4 0-.8-.1-1.2-.3-.5-.3-.9-.7-1.3-1.2-.6-.7-1-1.5-1.4-2.4-.5-1.3-1-2.7-1.4-4.1-.5-1.8-1-3.8-1.5-6.2s-1-5.3-1.6-8.8-1.2-7.4-1.8-11.8-1.2-9.4-1.9-15.2-1.4-12.2-2.1-19.1c-.7-7.3-1.6-12.7-2.7-16.2-.3-1-.6-1.9-1.1-2.8-.2-.4-.5-.8-.8-1.2-.1-.1-.2-.1-.3-.1h-.1c-.1 0-.1.1-.2.1-.1.1-.2.2-.3.2-.2.1-.3.3-.5.5s-.4.5-.6.8-.5.7-.7 1.1c-.3.5-.6 1-.8 1.6-2 4.4-3.7 9-5.1 13.6-2.3 7.6-5.9 21.2-10.8 40.9-1.2 4.9-2.3 9.2-3.2 12.7s-1.8 7-2.7 10.3c-.9 3.3-1.6 6.1-2.3 8.4s-1.3 4.3-1.9 6.3-1.2 3.5-1.7 4.7c-.5 1-1 2-1.6 3-.4.7-.9 1.3-1.5 1.8-.4.3-1 .5-1.5.5h-.2c-.7-.1-1.4-.5-1.8-1.1-.5-.7-.9-1.4-1.1-2.2-.2-.8-.5-1.9-.7-3.1-.8-5.5-1.2-11.1-1.3-16.6-.2-8.4 0-16.7.7-25 .7-9.1 1.5-17 2.5-23.8s2.2-13.7 3.5-20.6c1.3-6.9 2.3-11.6 2.9-14.1s1.1-4.4 1.3-5.6c.1-.4.4-.7.7-.9.3-.2.7-.3 1.1-.2.4.1.7.3.9.7.2.3.3.8.1 1.2-.3 1.2-.8 3.1-1.3 5.6s-1.5 7.1-2.9 14-2.5 13.6-3.5 20.4-1.8 14.6-2.5 23.6c-.7 8.2-.9 16.5-.7 24.8.4 11.1 1.1 17.7 2.2 19.9 1.3-1.5 3.1-6.2 5.4-14 1.7-5.6 4.3-16 8-31.1 4.8-19.7 8.5-33.3 10.9-41 1.1-3.5 2.1-6.5 3.1-9 .8-2 1.6-4 2.6-5.9.6-1.2 1.3-2.3 2.2-3.4.5-.6 1.2-1.2 1.9-1.6.5-.2 1.1-.3 1.7-.3 1 .1 1.9.6 2.5 1.4.8 1 1.4 2.1 1.9 3.4.6 1.7 1.1 3.4 1.4 5.2.4 2.1.8 4.1 1.1 6.1s.5 4.3.8 6.9c2.4 22.9 4.6 39.8 6.7 50.9 1.7 9 3.2 14.1 4.5 15.3 1.1-1 2.5-4.9 4-11.7 1-4.8 2.6-13.3 4.6-25.6.6-3.4 1.1-6.3 1.5-8.9s.9-5.1 1.4-7.8.9-4.9 1.3-6.9.8-3.9 1.2-5.8.9-3.6 1.2-4.9.8-2.6 1.2-3.9c.3-1.1.8-2.1 1.3-3.1.4-.7.8-1.4 1.3-2.1.4-.5.9-1 1.4-1.3.5-.3 1-.4 1.5-.4.7 0 1.3.2 1.9.6.8.7 1.5 1.5 2 2.4.9 1.6 1.6 3.3 2.2 5 .7 2.1 1.5 4.9 2.4 8.6.9 3.6 1.8 7.9 2.7 12.9 1.2 6.7 2.4 12.8 3.7 18.4s2.5 10.4 3.7 14.5c1.2 4 2.4 7.6 3.6 10.8 1 2.7 2.2 5.3 3.5 7.8.9 1.8 2 3.5 3.3 5.1.9 1.1 1.9 2.1 3 3 .8.6 1.7 1 2.7 1.2 3.6.7 7.5-2.1 11.8-8.5.4-.5.7-.8 1.1-.9z"></path><path fill="#D15A81" d="M508.3 352.7c.3 0 .7.1.9.4.2.2.4.6.4.9 0 .3-.1.7-.3.9-6.2 6.5-12 12.3-17.5 17.3s-10.4 9-14.5 12.1c-3.7 2.8-7.6 5.3-11.7 7.5-3 1.6-6.1 3-9.3 4-2.3.7-4.6 1-7 1.1-3 .1-5.9-.8-8.3-2.6-1.8-1.5-3.2-3.4-4-5.6-.9-2.4-1.3-4.9-1.2-7.4.1-2.7.5-5.4 1.3-8 .7-2.6 1.9-5.1 3.3-7.3 5.1-7.9 12.4-13.8 22-17.9-2.2-.3-4.4-.8-6.5-1.4-2-.5-4-1.3-5.9-2.1-1.7-.8-3.4-1.8-4.9-3-1.3-1.1-2.4-2.5-3.1-4-.7-1.6-1.1-3.5-.9-5.2.2-1.8.7-3.6 1.5-5.3.8-1.7 1.8-3.4 2.9-4.9 1.2-1.5 2.5-3 3.8-4.4 1.4-1.5 2.7-2.7 3.8-3.6s2.1-1.8 3.2-2.6c3.8-2.9 7.8-5.3 12.1-7.3 4-1.8 7.3-2.7 9.9-2.6 1.3 0 2.6.5 3.7 1.3.9.9 1.4 2.1 1.3 3.4 0 .3-.1.7-.4.9-.2.3-.6.4-.9.4-.3 0-.7-.1-.9-.4-.2-.2-.4-.6-.4-.9 0-.5-.2-1.1-.5-1.5-.6-.5-1.3-.7-2-.6-2.2-.1-5.2.8-9 2.5-4 1.9-7.8 4.2-11.3 6.9-3.8 2.8-7.1 6.1-10 9.8-2.5 3.3-3.8 6.3-4 9-.1 1.1 0 2.1.4 3.2.4 1.2 1.1 2.3 2 3.1 1.2 1.2 2.5 2.2 4 3 2.2 1.1 4.5 1.9 6.9 2.5 3.3.8 6.7 1.4 10.1 1.8.7 0 1.3.5 1.4 1.2.1.4-.1.9-.4 1.2-.6.4-1.3.7-1.9.9-1 .3-1.7.6-2.3.9s-1.6.7-2.9 1.3-2.5 1.2-3.5 1.8-2.3 1.4-3.7 2.4c-1.4.9-2.7 2-3.9 3.1-1.3 1.2-2.6 2.5-3.7 3.8-1.3 1.5-2.5 3-3.6 4.7-1.7 2.7-2.9 5.7-3.6 8.8-.7 3.1-.8 6.2-.2 9.3.4 2.6 1.8 5 3.8 6.7 2.1 1.7 5 2.4 8.5 2 4.3-.6 8.4-2 12.2-4.1 12-6.2 26.7-18.5 44.2-37 0-.3.3-.4.6-.4z"></path><path fill="#F294B0" d="M261.9 314.6c.4.4.9.8 1.4 1.1l.3.1-.2-.1c-2.9-2.5-1.5-1-1.5-1.1z"></path><path fill="#F294B0" d="M263.5 315.8l.3.2.1-.1z"></path><path fill="#F294B0" d="M263.2 317.1c0 .1.1.1 0 .2v-.2l1-.7-.5-.4-.5 1.1z"></path><path fill="#F294B0" d="M233.1 288.9l-4.2-3.9 3.7 3.5z"></path><path fill="#F294B0" d="M221.3 277.6l2.3 1.9c-5.6-5.5-12.8-12.8-16.4-16.9 2 2.7 9 9.5 13.4 14.2l.7.8z"></path><path fill="#F294B0" d="M197.9 251.3l-.5-.6-2.4-2.8c.8.9-2.7-3.1 2.9 3.4z"></path><path fill="#F294B0" d="M197.4 250.6c2.5 2.9-1.5-1.9 0 0z"></path><path fill="#F294B0" d="M187.3 238.1c-3.2-3.9-2.6-3.1-.9-.8l3.2 3.8c-.7-.8-3.4-4.3-2.3-3z"></path><path fill="#F294B0" d="M184.9 235.7c-.5-.7-1-1.4-1.6-2l1.6 2z"></path><path fill="#F294B0" d="M184.9 235.7c.4.7.9 1.4 1.6 1.9-.4-.3.4.5 1.9 2.3l-3.5-4.2z"></path><path fill="#F294B0" d="M190.9 243.5c6.1 7.3 5.4 6.1-.7-1.2 1.7 2.2 4 5 .7 1.2z"></path><path fill="#F294B0" d="M205.7 261.4l2.5 2.8 2.3 2.3c-1.2-1.1-4.9-5.3-4.8-5.1z"></path><path fill="#F294B0" d="M168.9 212.5c.2.6.5 1.2.8 1.8l2 3c-.9-1.6-2.8-4.6-2.8-4.8z"></path><path fill="#F294B0" d="M166.8 209.8c2.5 4.1 3 4.8 2.9 4.5l-1.5-2.3-1.4-2.2z"></path><path fill="#F294B0" d="M185.3 236.7l2.9 3.4-3.4-4.1-3.4-4.2 1.1 1.4 2.8 3.5z"></path><path fill="#F294B0" d="M158.1 192.7l1.1 2.1 1.5 2.6-1.3-2.3-1.3-2.4z"></path><path fill="#F294B0" d="M154.1 182c-1.2-3.3-2.1-6.2-2.8-8.8.7 2.8 1.5 5.7 2.7 9.5.9 2-.7-2.9.1-.7z"></path><path fill="#F294B0" d="M151.4 173.1c-.4-1.5-.7-2.9-1-4.4.3 1.4.6 2.9 1 4.4z"></path><path fill="#F294B0" d="M160.6 198.2l.8 1.9 1 1.8c-.2-.4-.5-1.1-1.8-3.7z"></path><path fill="#F294B0" d="M161.4 200.1l-2-4.1 2 4.1z"></path><path fill="#F294B0" d="M162.4 201.9c.1.2.1.3.2.5l-.2-.5z"></path><path fill="#F294B0" d="M173.8 221l.5.6-.5-.6z"></path><path fill="#F294B0" d="M173.8 221c-2-2.7-4.9-7-1.8-2 1.3 1.7-.4-.9 1.8 2z"></path><path fill="#F294B0" d="M166.4 209.6c0-.1-.5-1 .4.3l-1.6-2.6-1.6-2.6 1.4 2.5 1.4 2.4z"></path><path fill="#F294B0" d="M162.6 202.9l-.4-.6 1.4 2.4z"></path><path fill="#F294B0" d="M152.2 177.8c-.8-2.5-1.4-5-1.9-7.6.5 3.1 1.2 6.1 2.1 9.1.3.5.8 1.7-.2-1.5z"></path><path fill="#F294B0" d="M156.1 188.8l-.2-.5c.1.3.2.6.2.5z"></path><path fill="#F294B0" d="M153.3 142.6l-.2.4v.1l.2-.5z"></path><path fill="#F294B0" d="M152.6 179.9c.5 1.6 1.1 3.3 1.7 4.8-.6-1.7-1.2-3.4-1.9-5.3 0-.2 0-.3.2.5z"></path><path fill="#F294B0" d="M149.8 164.9c0-1.2-.1-3.5-.1-4-.1 1.2 0 2.6.1 4z"></path><path fill="#F294B0" d="M155.6 187.6l.1.3c-.2-.7-.2-.6-.1-.3z"></path><path fill="#F294B0" d="M155.6 187.6c-.5-1.1-.9-2-1.2-2.9.5 1.3 1 2.6 1.5 3.6l-.3-.7z"></path><path fill="#F294B0" d="M150 153.4l.1-.7-.2 1.1c-.1.5-.1 1.1-.1 1.1.3-2.5 1-5 1.8-7.3 1.1-3.5 1.5-4.2 1.5-4.4-.8 1.6-1.4 3.3-1.9 5.1-.5 1.6-.9 3.3-1.2 5.1z"></path><path fill="#F294B0" d="M149.6 164.6c-.4-1.7-.5-6.9-.7-3.7 0 1.7.1 3.4.4 5.1.1.8.2 1.3.6 3.2-1.3-10.3.4 2.9-.3-4.6.2 2.1.4 3.9.8 5.6-.3-1.8-.5-3.5-.6-5.3v.4-.2c-.1-.2-.1-.3-.2-.5-.1-3 0-.5.2.5v.1s-.3-2.6-.3-5.2c0-1.7.1-3.4.3-5.1-.5 3.2-.5 6.5-.2 9.7z"></path><path fill="#F294B0" d="M168.4 214.3c-.2-.3-.1-.3-.1-.3-.4-.6-.6-.9.1.3z"></path><path fill="#F294B0" d="M168.8 214.4l-.4-.6c-1.8-2.9-3.7-6.6-4.3-7.8.6 1.5 1.3 3 2.1 4.5.4.7.9 1.2 2.2 3.4 1.1 1.9-.1 0-.1.2.8 1.2 3 4.4.5.3z"></path><path fill="#F294B0" d="M164 205.9l-.1-.3c-.1-.1-.1 0 .1.3z"></path><path fill="#F294B0" d="M152 179.5l.6 2.2c.3 1.1.6 2.1.6 2.1v-.2c1.7 4.8 1.5 3.7 1.8 4.2 0 0-.9-2-1.6-4.1l-1.4-4.2z"></path><path fill="#F294B0" d="M155.8 138.3s-.5.8-1 1.7-.9 1.7-.9 1.7l-.3 1.1s.5-1.2 1.1-2.3 1.1-2.2 1.1-2.2z"></path><path fill="#F294B0" d="M161.8 131.3l-1 .9-.2.4 1.1-1.2 1.1-1.1-1 1z"></path><path fill="#F294B0" d="M328 113.6l-1.1-.6c-2.8-1.1-5-1.7-6.9-2.3 4.1 1.1 8.4 3.2 8 2.9z"></path><path fill="#F294B0" d="M258.5 182.9c-.6-2.6-1.4-5.2-2.5-7.7 1.1 3.1 1.9 5.5 2.5 7.7z"></path><path fill="#F294B0" d="M353 202.1c.4-.7.6-1.4.9-2.1-.7 1.6-1.1 2.4-.9 2.1z"></path><path fill="#F294B0" d="M260.5 191.9c-.1-.6-.1-1.1-.2-1.7-.4-2.3-1-4.6-1.8-7.4.7 2.9 1.4 6.1 2 9.1z"></path><path fill="#F294B0" d="M232.1 291.1c.5.5 1.4 1.3 2.7 2.5-.8-.7-1.8-1.6-2.7-2.5z"></path><path fill="#F294B0" d="M234.8 293.7l.8.7-.8-.7z"></path><path fill="#F294B0" d="M207.8 120c-2.6-.9-.4-.1 0 0z"></path><path fill="#F294B0" d="M195.9 116.5h-1.1 1.1z"></path><path fill="#F294B0" d="M203.9 118.6c1 .3 2.1.7 3.3 1.1-.5-.2-1.5-.6-3.3-1.1z"></path><path fill="#F294B0" d="M204.4 118.8c-.9-.3-1.6-.5-2.3-.6-.4 0 0 0 2.3.6z"></path><path fill="#F294B0" d="M207.8 120c.5.2 1.1.4 1.9.8-.7-.3-1.3-.6-2-.8h.1z"></path><path fill="#F294B0" d="M207.2 119.7l.5.2-.5-.2z"></path><path fill="#F294B0" d="M209.7 120.7c.5.2 1.1.5 1.6.7-.6-.2-1.1-.5-1.6-.7z"></path><path fill="#F294B0" d="M364 147.5c-.5-2.4-1.1-4.7-1.9-7l.2.3c-1.8-5.2-4.7-10-8.5-13.9-1.5-1.7-.3-.5-.1-.4l-1.4-1.6-1.6-1.6-1.6-1.4c-1-.8-1.8-1.6-2.8-2.3s-1.8-1.2-2.5-1.8l-2.4-1.5c-3.8-2.4-7.8-4.3-12-5.9l-1.2-.7c-4.6-1.8-9.5-3-14.4-3.6-4-.4-8-.3-12 .4s-7.9 2-11.5 3.9c.2-.2.5-.3.7-.4-7.7 3.7-14.9 10-19.8 16.2-5.2 6.4-8.3 12.4-9.2 15 0 0-1.1 2.2-2.1 4.5s-1.9 4.6-1.9 4.6c5.2-11.8-.5 1.8 1.8-3-2 4.6-4.9 12-2.8 6.2l.4-.9c.2-1.1-1.3 2.6-2.6 6.6-.4 1.2-.8 2.5-1.1 3.7-1.3-2.2-1.9-3.3-5-8.4-2.4-3.9-1.1-2.1-2.1-3.6-.1-.2-.2-.3-.3-.5-.2-.4-.6-.9-1.3-1.8 0 0-1.5-2.2-3.2-4.4s-3.4-4.2-3.4-4.2l1.3 1.7 1.2 1.8c-2.8-3.5-6.1-7.2-4.1-4.6-4.9-6-10.7-11.3-17.1-15.7-4.1-2.8-8.5-4.9-13.2-6.5-2.8-.9-5.8-1.6-8.7-2-7.9-.7-15.9.7-23.1 4.2.7-.3 1.2-.5 1-.3s-1.8.8-5 2.8c1-.9-2.1.7-5.8 3.4-3.5 2.6-6.7 5.5-9.6 8.7 1.8-1.9-1.7 1.9-3.9 6s-3.4 8-1.9 4.4c-1.1 2.6-1.1 2.7-1.1 2.6s-.1-.4-.7 1.7c-1.7 7.1-2 14.4-.8 21.6 1.3 8 3.7 15.8 7.1 23.1.2.2-.8-2.4.8.9 0 0 .8 2.1 1.7 4.1s1.9 4 1.9 4c1.6 2.9 1.9 2.6 4.7 7.9-.4-.8-1-1.9.2 0 8.4 14.3 19.2 28.1 30.7 41.3s24 26 36.6 38.4c-3.4-3.4-1-1.2 1.6 1.3-1.7-1.6.2-.1-.1-.5l1.7 1.6c1 1 2.3 2.2 3.7 3.5l5.5 5c2.3 1.6 11.9 10.6 13.4 11.4l-1.8-1.5-1.8-1.5c2.4 1.9 1.1.5-.8-1.4l3.4 2.9c4.5 3.8 7 5.8 7 5.8l.1-.1s-2.5-2-6.9-5.9c-2.1-1.8-4.6-4.1-7.5-6.7-.3-.4-.5-.6-.3-.5-1.4-1.1-2.9-2.4-4.6-3.9-2-1.9-4.2-3.9-6.5-6.1-7.9-7.6-17.4-16.8-27.7-27.9-11.5-12.2-22.1-25-32-38.5-5.5-7.6-10.5-15.4-15-23.6-4.8-8.5-8.6-17.5-11.2-26.9-1.8-6.5-2.5-13.3-2-20l.1-.2c.2-2 .4-3.7.4-3.8.3-1.9.8-3.9 1.4-5.7.1-.2.1-.4.2-.5-.5 1.8-.4 2.1 0 1.4s1.2-2.5 2.4-4.5c0-.1 0-.1.2-.8.7-1.5 1.4-2.9 2.3-4.2-1.2 1.7-2.3 3.5-3.2 5.4-1 2-1.5 3.3-.7 1.1.7-1.9 1.7-3.8 2.8-5.5.6-.9.9-1.3 2.1-2.8-1 1.2.3-.8 1.9-2.8 1.2-1.5 2.7-3 3-3.4 3-2.8 6.3-5.3 9.8-7.4l1.2-.5 1-.6 1-.6s-.9.4-1.7.9c-.3.2-.7.4-.9.5.2-.1.3-.2.5-.3 1.9-1.1 3.9-2.1 6-2.9l.2-.1c3.7-1.5 7.6-2.4 11.6-2.7 5.4-.4 10.9.3 16.1 2.1.7.2 1.3.5 1.9.7h.1l.6.2c1.5.6 2.9 1.3 4.1 2-.4-.2-1.4-.6-2.4-1-1.9-.8-3.5-1.4-.8-.2-3.1-1.3-6.4-2.2-9.8-2.8-4-.7-8.1-.7-12.1-.2h-1.8c.1 0 1.6-.2 3.3-.4 1.7-.2 3.4-.2 5.1-.2-2.9-.1-5.9.1-8.8.7-2.9.5-5.8 1.4-8.5 2.8 0 0 1.4-.6 2.9-1.1s3-.8 3-.8c-3.3 1-6.4 2.3-9.3 4-3.1 1.8-6.2 3.9-9 6.2 1.4-1 1.7-1.2 2.3-1.6 1.1-.8 2.3-1.6 3.6-2.3-2 1.2 1.9-1.6 5.9-3.5s8.3-2.9 4.5-2c2.6-.7 5.2-1.2 7.8-1.5 3.1-.4 6.2-.3 9.2.2-.1 0-.7-.2-.6-.2 1.5.1 3 .4 4.4.8.3 0 1 .2 1.4.3l.4.1-.3-.1c.3.1.3.1-.1 0-1.5-.4-2.7-.7-3.2-.8 2.8.4 5.5 1.2 8.2 2.2 2.7 1 5.2 2.3 7.7 3.7 3.2 2-1.4-.7.3.4 0 0 1.1.6 2.2 1.3s2.1 1.4 2.1 1.4c.3.3 6.7 5.6 1.5 1.7.6.4 1.4 1 2.1 1.7 1.5 1.2 2.9 2.5 2.9 2.5 3.5 3.3 6.7 6.9 9.8 10.6 2.2 2.8 5.5 7 3.6 4.6 0 0 1.8 2.3 3.4 4.8s3.1 4.9 3.1 4.9v.1c1.9 3.2 3.6 6.5 5.3 9.9-.1.3-.2.5-.2.5-1.8 7-2.8 14.1-3.2 21.3-.2 3.6.1 7.2.8 10.7.4 1.9 1.1 3.6 2.2 5.2.3.4.7.8 1.1 1.1l.3.2c.1.1.3.2.4.3.3.2.6.3.9.4 1.2.4 2.5.4 3.7 0 1.5-.4 2.9-1.4 3.7-2.8.7-1.1 1.2-2.4 1.4-3.7.4-2.5.5-5 .2-7.4-.6-4.8-1.7-9.6-3.4-14.2l.5 2.6s-.6-2-1.3-3.9-1.5-3.8-1.5-3.8c-.8-2-.8-2.8 1.3 2.7-.6-1.9-1.4-3.8-2.3-5.7-.5-1-1-1.9-1.3-2.6 0-.1.1-.3.1-.4.4.7.5 1 .1.2l-.1-.3c.5-1.8.9-3.4 1.3-4.7l-.1-.4c1.8-5.9 4-11.8 6.6-17.4l-.4.3c3.7-8.1 8.7-15.5 14.8-22l-3.4 3.9c4.2-5 9-9.3 14.5-12.8 2.8-1.8 5.9-3.1 9.1-4.1 3.1-.9 6.3-1.4 9.5-1.5 2.5-.1 5 0 7.4.4l-.8-.1 1.2.2c1.3.2 2.7.5 4.1.9-1.2-.3-2.4-.6-3.5-.8 3.1.5 6.1 1.3 9.1 2.4l1.3.7.7.3c3.1 1.4 2.6 1 1 .1 1.6.7 3.1 1.3 4.2 1.8 2.3 1.4 7.9 4.2 10.6 6.7.8.5 1.6 1.1 2.3 1.8 1.1.9 2.4 2 3.7 3.2 1.5 1.6 3 3.3 4.1 4.8.8 1 1.4 1.9 1.8 2.5 1.6 2.8 3 5.8 4 8.9l.1 1.4s.6 1.7 1 3.5.7 3.6.7 3.6c.1 1.4.2 2.8.1 4.2-.1.5-.1-.2-.4-2.4.3 3.1.4 6.2.2 9.4-.2 2-.2 3.7-.9 8.2l-.1-.5c-.6 3.4-1.3 6.8-2.4 10.1-2.4 7.4-5.3 14.7-8.7 21.7-4.8 9.8-10.2 19.3-16.3 28.4 2.6-2.9-5.2 7.5-5.4 8.3-.8.9-2.4 3.1-.7.4-5.6 8.3-9 12.1-12.9 17.8-.8.9 1.2-1.8.5-1-.5.6-1.9 2.6-2.6 3.4s.8-1.2 1.8-2.5c-6.3 8.1-6.8 9.1-6.9 9.9-3.5 4-5.1 6-7.4 9-1.1 1.2-2.9 3.1-.4.1-3.9 4.5-13.8 15.2-13.8 15.6-.8.8-3.5 3.8-4.1 4.5-2 2.2-3.3 3.6-4.6 4.9l-3.6 3.7-.2.2-.4.4.5.3.1.1.5.4.4-.4c.8-.7 1.5-1.5 2.2-2.2l1.1-1.1-.4.4c1.1-1.1 2.2-2.3 3.2-3.4 1.5-1.5-.5.8 0 .4l4.7-5.4c10.4-10.8 4.4-4.8 14.6-15.5l-.7.5c.5-1.2 8.8-9.7 13.9-16.4l-2 2.3c2.8-3.6 8.6-9.8 11.5-13.4-.5.9-1.1 1.7-1.7 2.4 7.5-9.5.7-1.4 6-8.6 1.1-1.3-.9 1.9 2.7-3 .9-1.2 3.4-4.8 6.1-9s5.7-9 7.9-12.4c-1 1.5-2.1 3 0-.6 3.3-5.4 8.9-14.6 10.8-19.9.2-.4.3-.7.6-1 1-2.2 2.5-5.7 3.8-9.1 1-2.6 1.9-5.2 2.6-7.9 1-2 3.1-9 3.9-15.6s.4-12.8.8-12.7c0-2-.2-4.3-.7-6.7zm-2.5 4.8c.1.5.3.2.4-.1.1 1.2.2 2.4.2 3.7v2c-.2-3.1-.6-5.6-.6-5.6zm-110.1 43.4l.3 2.1c0-.1-.1 0-.1.1 0-.7-.1-1.4-.2-2.2zm3.8 9.4c.2.1.4.2.6.2-.2 0-.4-.1-.6-.2zm5.5-5.7c-.2 1.3-.6 2.6-1.3 3.7-.2.3-.5.5-.8.7-.3.3-.7.5-1.1.6-.4.1-.3.1-.4.1h-.7c-.2 0-.4-.1-.5-.2-.5-.3-.9-.8-1.2-1.3-.6-1.2-1.1-2.4-1.3-3.7-.4-1.9-.6-3.7-.8-5.6.1-4.8.5-9.5 1.2-14.2.4-2.4.8-4.8 1.3-7.1.1.1.1.2.2.4 2.5 5.6 4.2 11.4 5.2 17.4.4 1.9.6 3.8.6 5.8-.2 1.2-.2 2.3-.4 3.4zm-2.8-21.8c-.7-1.7-1.6-3.8-2.7-6.1 0-.1.1-.3.1-.4.9 2 1.4 3.3.6 1.9 1 2 1.9 4 2.6 6.1l-.6-1.5zm-2.6-6.7v-.1c.3.6.5 1.2.8 1.8.7 1.7 1.4 3.5 2 5.2-.3-.7-.5-1.5-.9-2.3-.6-1.5-1.2-3.1-1.9-4.6zm-4.2 22.3v-.9c0 .4.1.9.1 1.3v1.3c0-.6 0-1.1-.1-1.7zm-5.1-42.8l.9 1.4c-2.2-3.1-1.6-2.2-.9-1.4zm-94.4-6.4c.9-2.1 2-4.1 3.2-5.9l-.1.1c-1.2 1.8-2.2 3.8-3.1 5.8zm80-7.5l.1.1 1.1 1.3c-.2-.4-.6-.9-1.2-1.4zm20.3 28.4l-2.1-3.9c-.4-.7-.5-1-.4-1s.5.7.1 0c-2.5-4.6-5.4-8.9-8.6-13-2.1-2.6-3.9-5-8.8-10.4-2.4-2.6-1.8-2.2-1.1-1.7l.6.6c1.7 1.6 1.4 1.1.1-.2 5.4 5.4 7.5 8.8 10.5 12.9l-1.8-2.6-1.9-2.5c.2.2.3.4.5.6 1.5 2 3.3 4.6 5.7 8.1-.3-.5-.5-.7-1-1.4 2.7 3.9 5.2 8 7.4 12.2.6 1 1.2 2 1.8 3.1-.6-1.2-1.3-2.4-1-1.7l.9 1.7-.6-1.2c.2.4.4.9.7 1.4 0 .1-.1.3-.1.4-.3-.4-.6-.9-.9-1.4zm3 1.6l-.1-.1c0-.1.1-.3.1-.4l.1.1c0 .1 0 .3-.1.4zm5.7-15c-.2.4-1.5 3.4-2.8 6.8-1.1 3-2.2 6.1-2.7 7.7l-.1-.1c.6-2.3 1.3-4.5 2.1-6.8l.4-.1v-1c.9-2.7 2-5.4 3.1-8.1.3 0 .3.5 0 1.6zm27-36l-1 .5-.9.6s-1.7 1.3-3.3 2.7-3.1 2.9-3.1 2.9c2.4-2.7 5.1-5.1 8-7.2 4.2-2.7 8.8-4.7 13.7-5.8-4.8 1.4-9.3 3.5-13.4 6.3zm67.9 18.7c.1.2.2.3.4.4 0 .1.4.8-.4-.4zm-50.2 135l-4.6 5.4 4.6-5.7c.6-.8.5-.5 0 .3z"></path><path fill="#F294B0" d="M290.9 110.3l.8-.4-.8.4z"></path><path fill="#F294B0" d="M298.7 276.2c.5-.6.9-1.1 1.2-1.5l-1.2 1.5z"></path><path fill="#F294B0" d="M222.3 128.2l-1-.7 1 .7z"></path><path fill="#F294B0" d="M174.7 119.2l-.6.3c.2-.2.4-.2.6-.3z"></path><path fill="#F294B0" d="M184.7 118.2l.8-.2-.8.2z"></path><path fill="#F294B0" d="M180.5 119.6l-.6.2.6-.2z"></path><path fill="#F294B0" d="M182.6 118.8c.8-.2 1.5-.4 2.1-.6-2.2.5-3.1.8-4.4 1.2.1 0 .9-.2.1.1.6-.1 1.4-.4 2.2-.7z"></path><path fill="#F294B0" d="M174.5 121.5c-2.5 1.2-4.8 2.6-7 4.3l.6-.4c-.9.9 2.5-1.8 6.4-3.9z"></path><path fill="#F294B0" d="M165.2 127.6l1.5-1.2c-.6.4-1.1.8-1.5 1.2z"></path><path fill="#F294B0" d="M163.8 128.7c-.2.2.4-.3 1.4-1.1-.5.4-1 .7-1.4 1.1z"></path><path fill="#F294B0" d="M215.9 123.8c-1.6-1-1.2-.4-2.1-1-1-.4 1.9 1 3.7 2.2s2.9 1.5-1.6-1.2z"></path><path fill="#F294B0" d="M204 117.7s-1.7-.5-3.4-.8-3.5-.5-3.5-.5-.8 0-1.9-.1c3 .2 5.9.7 8.8 1.4z"></path><path fill="#F294B0" d="M195.3 116.3h-1 1z"></path><path fill="#F294B0" d="M189.7 116.5c1.5-.2 3.1-.2 4.6-.2-1.6-.1-3.1 0-4.6.2z"></path><path fill="#F294B0" d="M250.1 307.6l4 3.6-2.5-2.4z"></path><path fill="#F294B0" d="M258.2 314.1l.8 1 2.7 1.9c-1-.8-2.8-2.3-3.5-2.9z"></path></g></svg>