<svg xmlns="http://www.w3.org/2000/svg" width="1002.7" height="1080" viewBox="-0.025887608528137207 0.02068963646888733 1002.69287109375 1080" style=""><g><g fill="#efb7c0" data-name="Layer 2"><path d="M203.7 115.7c17 .8 34 .6 50.8 2.5 13.7 1.6 27.3 2 41 2.4 10.5-.4 21.1-.1 31.4-1.6a193.8 193.8 0 0 1 24.1-1.6l147.6-1.9c5.7-.1 11.5.2 16.9-.9 11.2-2.3 22.5-2.1 33.8-2.6 31.4-1.6 62.9.3 94.2-4.1a58.8 58.8 0 0 1 7.3-.2l50.8-1.5c6.4-.2 13 .3 19.3-1 12-2.4 24-2.5 36.1-2.9 29-1.2 58-.5 87-4.4a236.6 236.6 0 0 1 38.6-1.5c12.5.4 20-4.6 23.4-16.4.7-2.3 1.8-4.5 2.7-6.7s-1-5.4-2.9-5.3c-9.7.3-19.4.3-29 2.2-6.3 1.2-12.7 1.8-19.1 2.4s-14.6.1-21.7 1.4c-20.8 3.9-41.8 3.5-62.7 4.1-14.5.4-29.1-.2-43.4 3-4.7 1-9.6.6-14.5.7l-46 1.4c-5.6.2-11.4-.2-16.8 1-9.6 2.2-19.3 2.1-28.9 2.5-16.1.6-32.3 1-48.4 1.5-4.9.1-9.9-.3-14.5.8-11.1 2.6-22.4 2.3-33.7 2.8-35.4 1.5-71-.4-106.3 3.9a39.7 39.7 0 0 1-4.9.1H292.5c-5.7 0-11.5.5-16.9-.7-11.2-2.5-22.5-1.9-33.8-2.4s-20.8-1-31.2-3.3c-8.5-1.9-17.5-1.8-26.4-2.5-1.7-.1-4.3 3.4-3.9 5.1 1.5 5.4 2.7 10.9 4.4 16.3a8.7 8.7 0 0 0 7.1 5.9 78.9 78.9 0 0 0 11.9 1.5z"></path><path d="M37.1 443.2c9.9-7 19.4-14.4 29.3-21.3 23.9-16.6 48.2-32.4 73.8-46.2 16.3-8.8 33.1-16.8 49.8-24.8 27.7-13.3 56.4-23.3 86.9-28.6 16.7-2.9 32 .3 46.7 7.6a31.2 31.2 0 0 1 9.7 7.1c7.8 9.2 15.4 18.4 20.5 29.7a352.2 352.2 0 0 1 21.7 64c5.1 22 10 44 12.8 66.4a8.3 8.3 0 0 0 1.4 4.5c.8 1.1 2.9 2.3 3.8 1.9a19.2 19.2 0 0 0 5.8-4.1c10.2-10.3 20.3-20.8 30.6-31.1 19.4-19.4 40.8-36.5 62.3-53.6 17.8-14.1 37.1-25.6 56.5-37.2a476.5 476.5 0 0 1 96.7-44 524.2 524.2 0 0 1 72.8-17.4c15-2.6 30.4-3.5 45.7-4.9a70.3 70.3 0 0 1 14.5 0c14.3 1.5 28.9 1.7 43.1 4.2 23.1 4.2 45.6 10.7 65.9 23 24.9 15 48.3 32.2 69.1 52.7 8.1 7.9 15.9 16.1 22.3 25.5 1.1 1.6 2.8 2.3 3.3 1.4a8.9 8.9 0 0 0 1.2-4.5 24.9 24.9 0 0 0-.8-7.2c-4.8-17.1-8.9-34.3-15.1-51a237.3 237.3 0 0 0-19.8-41.3c-10.6-17.4-23.5-32.7-38-46.9-12.7-12.4-25.3-24.9-38.1-37.2a95.6 95.6 0 0 1-10.7-13.1c-9.6-13.3-15.6-28.1-18.9-44.1a37.4 37.4 0 0 0-3-9.1 5.2 5.2 0 0 0-3.7-2.6c-6.4-.1-12.9-.6-19.2.6a206.1 206.1 0 0 1-31.2 3.1c-12.9.6-25.8.8-38.8 1.2-6.4.2-13-.3-19.3.9-13.6 2.6-27.3 2.3-41 2.6l-62.9 1.2c-4.1.1-8.2-.1-12.1.7-12 2.4-24.1 2.3-36.2 2.4l-174.4 2.2c-9.7.1-19.4-.3-29 .9-12.9 1.5-25.8 1.6-38.7 1.8-18.5.2-37.1.1-55.7.3-16.9.3-33.8.4-50.5-3.4-3.3-.7-6.9 1.6-7.5 4.5-1.9 9.5-3.7 18.9-5.7 28.4-.7 3.1-1.8 6.2-2.7 9.3a34.5 34.5 0 0 1-15.6 20.7c-8.9 5.5-17.5 11.5-26.2 17.3-34.3 22.7-68.4 45.8-101.8 69.7-4.6 3.3-8.8 7.1-13.1 10.8-8.3 7.1-12.7 16.4-14.7 27.1-4.5 25.3-9.2 50.6-13.7 76-.6 3.1-.7 6.4 1.7 9.8 3.3-1.9 7-3.6 10.2-5.9z"></path><path d="M227 84.8a97.8 97.8 0 0 0 21.6 2.2l106.1 1 123.8-1.4c7.2-.1 14.6.4 21.7-1 11.2-2.3 22.4-2.1 33.7-2.5 17.7-.6 35.5-1 53.2-1.5 5.7-.2 11.4-.1 16.8-1.2 7.2-1.6 14.4-1.8 21.7-2.1l41.1-1.2c5.6-.2 11.5.4 16.9-.9 11.1-2.5 22.4-2.5 33.6-2.9 17.8-.6 35.5-.8 53.3-1.3 4.8-.1 9.8.4 14.4-.7 13.5-2.9 27.3-2.4 40.9-3.4 6.5-.4 13.2.3 19.3-1.2 14.3-3.3 28.9-2.9 43.3-4.5a241.2 241.2 0 0 0 23.8-4 7.5 7.5 0 0 0 3.8-2.8 48.8 48.8 0 0 0 8-22.4c.1-.8-2.4-2.9-3.3-2.7-14.3 2.5-28.3 6.3-42.7 7.7-20 2-39.7 6.2-60 6.6-18.5.4-36.7 4.8-55.4 4.9a18.4 18.4 0 0 0-4.7.7c-12.6 3.4-25.5 3.4-38.4 3.8-16.1.5-32.3-.2-48.2 3.4a44.4 44.4 0 0 1-9.7.6c-25 .6-49.9 1.5-74.9 1.6-37.1.2-74.2-.2-111.3-.3-7.3 0-14.6-.1-21.8 1-11.2 1.7-22.4 2-33.7 2.2-53.2 1.2-106.4.2-159.7-.7-3.2 0-6.4-.2-9.6-.5-10.5-.8-20.9-1.9-31.3-2.6-12.1-.8-24.2-.9-36-4.1-2.3-.6-4.8-.3-7.2-.4s-6.4 3.6-5.5 6.4 2.8 7.5 4 11.3 2.5 4.6 4.7 5c10.3 1.8 20.4 4.8 30.9 5.5a94.5 94.5 0 0 1 16.8 2.4z"></path><path d="M180.1 41.1a9.6 9.6 0 0 0 4.4 1.8c23.2 2.6 46.3 6.2 69.8 5.9 21.7-.1 43.5.4 65.3.9s41.9-1.4 62.8 1.9c1.5.2 3.1-.4 4.7-.5 4.8-.5 9.6-1.2 14.4-1.3 45.2-.4 90.4-.5 135.6-1 38.6-.5 77.4.4 115.9-4 4.1-.4 8.1-.4 12.1-.6 23.3-1.2 46.8.3 69.9-4.7a527.4 527.4 0 0 0 62.6-4.7c15.9-2.2 32-2.9 48-5s30.1-5.3 45.4-6.2a8.9 8.9 0 0 0 4.6-1.4c1.8-1.3 13.1-1.7 15.2-4.1-10-3.2-29.2-7.4-39-7.8s-19.5-.4-29-2.1-20.8-2.1-31.2-2.5L768 4.4c-5.6-.2-11.4 0-16.9-1a161.7 161.7 0 0 0-24-1.9L656.9.3q-82.3-.9-164.5 1.1c-11.3.3-22.5 2.1-33.7 2.7-14.5.8-29 1-43.5 1.5-4.9.2-9.9-.1-14.5 1-11.9 2.8-24 2.4-36.1 2.7q-20.6.3-41.1.9c-6.5.2-13.1-.1-19.3 1.2-19.8 3.9-40.1 4.1-60 7.5-15 2.5-30.1 5.4-45.2 7.5a131.4 131.4 0 0 0-16.4 4.2 8.6 8.6 0 0 0-3.8 2.8c-.9 1.1-1.8 2.8-1.6 4a6.9 6.9 0 0 0 2.9 3.7z"></path><path d="M255.3 165.6c25-.2 50 .2 75 .3 10.5 0 21-.3 31.5-.5 28.2-.5 56.5-1.2 84.7-1.5 25.8-.2 51.6-.1 77.4-.1a24.5 24.5 0 0 0 7.2-.8c7.1-2.4 14.4-1.9 21.6-2.1 20.2-.5 40.3-.6 60.5-1.3 13.7-.4 27.5.6 41-3 3-.8 6.4-.4 9.6-.4 21.8-.3 43.5-.4 65.3-1s43.6.1 65.1-4.4c19.5.9 38.3-4.8 57.6-6 5-.3 9-3 12.1-7.1-.7-.4-1.3-1.1-1.9-1.2-22.6-1.3-45.1 0-67.7.8-13.4 3.5-27.2 2.6-40.9 3.3-24.9 1.2-50-.8-74.8 3.7-3.2.6-6.5.3-9.7.4-8.9.3-17.7.4-26.6.8-18.5.9-37.1-.2-55.5 3.6-3.9.8-8 .3-12 .4l-82.4 1.8c-5.6.1-11.4-.4-16.9.6-12.8 2.5-25.6 2.2-38.5 2.3l-130.8.7c-25 .1-50 .2-75 .1-8.9 0-17.7-.4-26.4-3-.6-.2-1.5.3-2.1.7s-.7 1.4-.5 1.6c1.7 1.6 3.4 4.1 5.4 4.5 15.8 3 31.4 6.9 47.7 6.8z"></path><path d="M241.4 148.5a126.1 126.1 0 0 0 31.3-.1c8.9-1 17.7-1.6 26.6-1.8l109-1.1v.5l109-1.3c6.4-.1 13 .4 19.3-.8 12.8-2.6 25.7-2.3 38.6-2.8l48.4-1.3c4-.1 8.2.3 12-.7 11.2-2.8 22.5-2.5 33.7-2.8 21-.6 42-.9 63-1.4 5.6-.2 11.4-.1 16.8-1.3 7.2-1.6 14.5-1.8 21.7-2 16.1-.5 32.3-1.4 48.4-1.2 18.6.2 36.9-3.7 55.4-4.4a6.2 6.2 0 0 0 4.3-1.8c4.9-5.3 9.7-10.7 11.4-18 .4-1.6-.8-3.1-2.8-3.1-7.2 0-14.6-.8-21.6.6-9.6 1.9-19.2 2.3-28.9 2.7-13.7.5-27.4.7-41.1 1.2-6.5.2-12.9.7-19.3 1.2-8.1.7-16.1 1.7-24.1 2-15.3.7-30.7 1-46 1.4-4.9.2-9.8-.1-14.5.8-16 3.1-32.1 2.9-48.2 3.3-19.4.4-38.8.6-58.2.9-4.8.1-9.8-.3-14.5.8-12.7 2.7-25.6 2.6-38.5 2.9-23.4.7-46.8.9-70.2 1.3-5.7.1-11.5-.3-16.9.7-12.1 2.4-24.1 2.1-36.2 2.4-15.3.4-30.7.5-46 .6-36.4.1-72.7.3-109 .1-13.7 0-27.5.4-41-3.1-5.4-1.3-11.2-.9-16.8-1.1a8 8 0 0 0-4.6 1c-1.2.7-2.6 2.2-2.7 3.4a18.9 18.9 0 0 0 .6 7.1c2.1 8.5 5.1 11.1 13 11.7 12.9 1.1 25.8 1.7 38.6 3.5z"></path><path d="M376.4 853.1a146.6 146.6 0 0 1-8.1 30.2c-5.6 14.3-11 28.7-20.7 40.9-3.3 4.2-3.5 8.8-1.8 13.7.5 1.5.9 3.1 1.4 4.6 8 22 18.3 43 28.5 64 6.9 14 17.8 24.9 31.6 32.5a174.7 174.7 0 0 0 28.7 12.6c13.9 4.8 28.6 4.4 42.6 8.2 6.1 1.7 12.9.9 19.3.9 19.3-.1 38.7 1.4 57.8-3.7 2.3-.6 4.8-.2 7.2-.5l21.5-3.4c15.9-2.6 31.4-6.8 47-10.7 32.9-8.2 65.2-17.8 97.3-28.4s60.3-26.8 87-46.6a95.2 95.2 0 0 0 31.8-41.7c3.4-8.4 4.7-17.1 6.7-25.7 3.4-14.1 6.5-28.2 7.6-42.7s1.4-29 2.2-45.6c-.4-10-1-22.1-1.5-34.2a138.3 138.3 0 0 0-17.7-62.1c-14.6-26.5-35.7-45.4-64.5-55.2a189.8 189.8 0 0 0-28.2-6.7c-24.9-3.9-49.6-4.6-74.6-.7a97.1 97.1 0 0 1-12.1 1c-23.4 1.1-46.3 5.6-69 10.9-44.5 10.3-85.4 28.8-123.5 53.6-11.5 7.5-22.7 15.5-33.6 23.8-16.7 12.7-32.6 26.2-47 41.5-5.8 6.1-9.4 13-9.5 21.6-.2 16.2-4 32-6.4 47.9zm432 70.7c.3 1.6-1.7 5.3-3.1 6-7.3 3.5-14.7 6.4-23.6 5-.2-.1-1.2 0-1.7-.4a10.4 10.4 0 0 1-3-3.3c-.9-1.6-.2-3.2 1.3-4.2a44.7 44.7 0 0 1 24.9-7c1.9 0 4.8 2.1 5.2 3.9zm-25.3-210.5a13.5 13.5 0 0 1 2.8-3.5 7.6 7.6 0 0 1 2.5-1c6.9.3 13.4 2.2 18.2 8.1.4.5.8 1.7.5 2.2s-1.6 2.9-2.7 3a25.6 25.6 0 0 1-19.8-5c-1.6-1.1-2.3-2.4-1.5-3.8zm-8.4 116.9a18.6 18.6 0 0 1 4.6-1.3c3.1-.4 6.3-.4 10.5-.6 2.1.3 5.4.2 8.4 1.2s3.8 2.6 5.5 4.1a3.2 3.2 0 0 1 .4 4.4c-.9 1.2-2.1 3.3-3 3.3-8.7-.7-17.3-1.7-26-2.8-1.3-.2-2.7-1.6-3.9-2.6s2-5.2 3.5-5.7zm-45.4 83.1c-7-.7-14.2-.7-20.8-3.7a9.3 9.3 0 0 1-3.1-3.4c-1.2-1.6-.9-3.3.7-3.8s6-1.3 8-1.8c5.1.7 9.2.8 12.8 1.9 2 .6 3.6 3 4.9 4.8s-1.1 6.1-2.5 6zm-30-153c.3-1.4.9-3.2 1.9-3.9 7.8-4.9 16.4-5.3 25.2-4.4 2.6.3 6.3 4.5 5.4 6.6s-2.6 4.6-4.4 5.1c-4.5 1.2-9.3 1.3-14.4 1.9-3.6-.6-7.4-1-11.2-1.8a2.9 2.9 0 0 1-2.5-3.5zm-32 208.7a6.3 6.3 0 0 1 4.9 4.3c.6 1.5-1.6 5-3.5 5.3l-18.6 3.4a4.9 4.9 0 0 1-2.4 0 51.2 51.2 0 0 1-6.2-3.1c-1.8-1.1-1.4-4.9.6-5.9s4.1-2.5 6.3-2.9c5.5-.8 11-1.1 16-1.5zm-47.6-266.9a7.5 7.5 0 0 1 3.9-2.6 43.4 43.4 0 0 1 23.7.2c1.4.4 4 4 3.8 5.5s-3.4 4.9-5 4.9l-15.3-.8-10.7-1.7c-.7-.1-1.8-1.1-1.7-1.5a6.8 6.8 0 0 1 1.3-4zm-7.4 132.5a15.2 15.2 0 0 1 3.5-3.2c4.3-2.5 9-2.6 13.8-1.8 2.7.5 5.7 4.2 5.3 6.8s-2.9 5.1-4.3 5.3l-6.3.8c-4.8 0-8.7-.7-11.6-3.8-1.3-1.4-1.5-2.9-.4-4.1zM569.8 996a66.2 66.2 0 0 1 22.7-6.3c1.2-.1 4.3 4.7 3.5 5.8a19.6 19.6 0 0 1-4.6 5.3c-4.8 3.1-10.5 3.2-16 3.3-1.7-.3-3.5-.3-4.8-1s-2.7-2-2.8-3.2a4.7 4.7 0 0 1 2-3.9zm-7.4-99.6c1.5.2 4 4.1 3.4 5.4s-1.5 3.3-2.6 3.5a207.2 207.2 0 0 1-20.6 3.8c-1.2.2-2.7-1.3-3.8-2.3s-.4-5.4 1.1-6.4 4-2.8 6.2-3.3a99.1 99.1 0 0 1 10.8-1.5zm-42.6-116.2c.5-1.3 1.2-3.4 2.2-3.7a88 88 0 0 1 15.8-4.3c3.9-.6 7.6 1.4 10.7 4s1.8 2.8.2 4.1-3.7 3.2-5.7 3.7a67.8 67.8 0 0 1-8.5.7h-10.4c-2.2 0-4.9-2.7-4.3-4.5zm-38.6 210.1c4.8-2.5 10.1-4.1 15.3-6a3.6 3.6 0 0 1 2.3.3 14.7 14.7 0 0 1 3.8 2.5c1.3 1.3.6 5.3-1 6.4a52.9 52.9 0 0 1-6 3.6 14.1 14.1 0 0 1-4.6 1.1c-2.3.4-4.7.5-6.9.7l-6.4-2.8c1.1-2 1.8-5 3.5-5.8zm-45.7-143.1c6.1-5.6 13.5-7.9 21.6-8.3a4.3 4.3 0 0 1 2.3.5c1.3.8 2.9 1.7 3.4 2.9a5 5 0 0 1-.6 4.3 16 16 0 0 1-5.3 4.4c-5.9 2.9-12.3 2.6-17.7 3.1-2.2-1.3-4.2-1.7-4.7-2.9a4.3 4.3 0 0 1 1-4zm-37.2 92.5c4.5-6.9 15-11.1 23-9a2.9 2.9 0 0 1 2.3 3.6c-.5 1.5-.9 3.3-2 4.3a25.8 25.8 0 0 1-17.6 6.7 37.5 37.5 0 0 1-4.3-1.6c-1.8-.7-2.5-2.3-1.4-4z"></path><path d="M988.8 778.2c-4.9 6.4-10.8 11.7-17.1 16.9-12 9.8-25.3 17.3-38.9 24.2-15.2 7.5-30.3 15.3-46.2 20.9-8.9 3.2-12.4 9.6-13.3 18.2-.3 3.2-.6 6.4-.8 9.7-.7 18.7-5.6 36.6-11.4 54.2-6.4 19.4-16.8 36.6-33.1 49.7-5.6 4.5-11.2 9.1-17.1 13.3-23.3 16.4-49.2 27.4-74.9 39.1a42.8 42.8 0 0 1-6.8 2.5c-38.6 11.5-76.9 23.9-116.3 32.6-32.3 7.2-64.7 13.1-98 12.5h-17c-24-.3-29.5-.7-52.6-5.9-28.3-6.4-52.8-19.4-72.1-41.6a53.9 53.9 0 0 1-8.1-12c-10.3-20.9-21.9-41.3-27.7-64.2a9.7 9.7 0 0 0-2.5-4.1c-1-1-3.2-2.2-3.8-1.8-11 6.9-22.1 13.2-34.2 18.1-18 7.3-36.6 12-55.7 15.4a200.3 200.3 0 0 1-72-.3c-28.2-5.3-51-19-69.9-40.2A232.8 232.8 0 0 1 75 902.2c-15.2-24.7-28.5-50.6-41.1-76.7-9.4-19.6-18.1-39.6-27.3-59.3-1.1-2.3-1.4-5.9-5.2-6.4-1.7 25.2-2.2 58.6.3 77.4a293.4 293.4 0 0 1 2.4 36.2c.3 19.5 4.1 38.4 8.3 57.3a225.6 225.6 0 0 0 7.6 27.9c6.6 18.2 18.7 32.2 34.5 42.6a164.8 164.8 0 0 0 43.7 20.5c19.3 5.7 38.5 11.7 58.1 16.1 11 2.5 21.8 5.9 32.9 7.8 34.9 5.9 69.6 13.4 105 16.4a34.6 34.6 0 0 1 7.2.9c11.7 3.7 23.9 2.9 35.9 3.8s24.1 2.6 36.1 3.8c4 .3 8.1.2 12.1.4 12.1.5 24.3.2 36.3 1.8a272.9 272.9 0 0 0 31.3 2.3c21 .3 41.9.3 62.9.8 9.6.2 19.5.2 28.9 2a139.5 139.5 0 0 0 24 1.9c12.1.1 24.2.4 36.3.3 15.3-.1 30.8.3 46-1.1s28.9-1.8 43.4-2.7 30.6-.9 45.7-4.2c4.7-1.1 9.7-.7 14.5-1 7.3-.3 14.6-.1 21.7-1.2 12-1.8 24.1-3.3 36.1-3.4s25.5-4.1 38.3-4.9 25.5-4.2 38.1-6.3a168.2 168.2 0 0 0 48-16.3c19-9.8 31.4-24.6 36.9-45.4 4.7-17.9 8.5-36 9.7-54.6 1.4-20.9 5.4-41.6 5.1-62.7a24.9 24.9 0 0 1 .8-7.2c3.5-12.6 3.2-25.5 4.1-38.4.6-9.6 1.4-19.3 2.7-28.9a146 146 0 0 0 .7-28.8c-4.2.3-6.3 2.8-8.2 5.3z"></path><path d="M1000.8 554.2c-1.9-9.7-1.8-19.3-2.4-29-.5-7.2-.1-14.5-1.1-21.7-2.1-14.3-2.9-28.8-8.1-42.6-2.7-6.9-6.8-12.8-10-19.3a158.7 158.7 0 0 0-42-52.5c-11.2-9.2-22.8-18-34.4-26.7-30.5-22.6-64.5-36.1-102.8-37.6-29.8-1.2-59.5-1.1-89.1 4.4-33.5 6.2-66.2 14.8-97.2 28.4s-62.6 29.8-91.1 49.9c-20.4 14.5-40.2 29.6-59.4 45.7-24.8 20.9-46.9 44.2-67.7 68.9a13.3 13.3 0 0 0-2.7 6.6 43.9 43.9 0 0 0-.2 9.6c1.3 16.9-.3 33.9 3.5 50.6-.1 21 1.2 42.1-.6 62.9s-2 40.2-3.1 60.4c-.6 11.2-.6 22.5-3.2 33.6a51.7 51.7 0 0 0-.3 22.2c2.3-1.4 4.5-2.2 6-3.7 12.1-11.8 25.3-22.4 38.8-32.7 27-20.4 55.3-38.9 86.4-52.8a406.3 406.3 0 0 1 75.4-25.7 582.4 582.4 0 0 1 78.7-12.2c28.8-2.6 57.9-3.5 86.7 2.5 17.5 3.7 33.9 9.1 49.2 18.7a127.5 127.5 0 0 1 52 61.8 194.6 194.6 0 0 1 14.6 73.1c0 10.5.1 20.9.1 31.4.1 1.9 3.6 4.4 5.2 3.6 14.6-6.9 29.3-13.4 43.6-20.8s25.4-14 38-21.3a60.9 60.9 0 0 0 9.7-7.2c15.7-13.8 26.5-30.1 25.9-52.1-.1-5.7.7-11.3 1.1-16.9s1.4-12.9 1.5-19.3c1.1-40.3 1.1-80.6.3-121-.2-6.4 0-13-1.3-19.2zM452.6 677c-6.2 5-12.9 9.2-20.6 11.3-2.1.5-4.6 0-6.8-.5s-2.6-1.8-1.7-3.6a13.3 13.3 0 0 1 .9-2.1c5.9-7 13.7-10.6 22.4-12.5 1.6-.4 3.9 1.9 5.8 3.2s.5 1.4.8 2.2a9.3 9.3 0 0 1-.8 2zm20.8-100.1c-.7 1.4-1.1 3.2-2.2 4a53.5 53.5 0 0 1-19.3 8.7 3.8 3.8 0 0 1-4.2-1.7 5.6 5.6 0 0 1 .6-6.4c5.3-5.1 11.8-8 18.8-9.7 1.2-.3 2.9.6 4.3 1.2a3.3 3.3 0 0 1 2 3.9zm28.8-98.7c-5 5.4-11.7 8-18.6 9.6-1.1.3-3.2-.8-3.9-1.9s-.6-2.9-.6-4.4a3.5 3.5 0 0 1 1-2.1 33.6 33.6 0 0 1 16.1-9.5 7.3 7.3 0 0 1 4.6.6c1.2.7 1.9 2.2 2.8 3.4s-.5 3.3-1.4 4.3zm57 149.3c-8.5 4.7-17.3 8.4-27.3 7.4a4.8 4.8 0 0 1-3.4-2.8c-.3-1.3.7-3 1.4-4.4a3.3 3.3 0 0 1 1.5-1.8c7.7-4.4 16-7.3 24.9-7.2 1.7 0 3.4 2.7 4.9 4-.8 2.1-1 4.2-2 4.8zm39.5-118.3a8.5 8.5 0 0 1-1.9 1.4c-8 3.1-16 6.2-24.7 6.9a5 5 0 0 1-3.8-2.2c-.5-1.1-.1-3.1.5-4.4a8.5 8.5 0 0 1 3.1-3.4c7-3.6 14.2-6.7 22.1-7.7a9.7 9.7 0 0 1 2.4.2 24.8 24.8 0 0 1 3.6 2.8c1.1 1.2 0 5.6-1.3 6.4zm43-99.5a10.1 10.1 0 0 1-3.5 2.9 40.7 40.7 0 0 1-20.5 5c-2 0-4.3-1.6-6.1-2.9s.8-5.2 2.3-6.1a38.8 38.8 0 0 1 22.4-6.2l4.5 1.5c.6.3 1.7.9 1.7 1.4s0 3.2-.8 4.4zM681.8 565c-6 3.1-12.6 2.4-19.6 3.9a25.5 25.5 0 0 1-6.4.4c-1.4-.1-2.7-1.5-3.9-2.5s-.2-4.5 2.3-5.8 4.2-2.6 6.5-3.1c6.3-1.3 12.7-2.3 19-3 1.3-.1 2.9 1.3 4.1 2.3s.7 6.4-2 7.8zm62.8-92.7a3.3 3.3 0 0 1-1.8 1.5 10.5 10.5 0 0 1-4.4 1.5c-7.9 0-15.8 1.9-23.7.8-.8-.1-2.2-3-1.7-3.8s2.7-4.3 4.7-5.3c7.5-3.5 15.5-3.8 23.6-2 1.7.3 4.2 3.5 4 5.2a5.2 5.2 0 0 1-.7 2.1zm.4-95.5c-5.1.3-8.3-.3-10.5-2.8a4.6 4.6 0 0 1-.7-4.1 9.4 9.4 0 0 1 7.4-5.5c7-1.1 14.1-1.7 21.3-.3 2.6.5 3.8 2.4 5 4.5s.7 3.1-1.2 4c-7.3 3.6-15.7 1.4-21.3 4.2zm34.9 222.8c-3.8.9-7.6 1.5-10.4 2l-3.4-.7c-2-.4-4.5-3.3-3.8-5s1-3.3 2.1-3.8a119 119 0 0 1 13-4.8c2.3-.8 6.3 2.4 6.8 5.1s-1.5 6.6-4.3 7.2zm70.9-150.4a46.8 46.8 0 0 1-22.9 5c-2.1-.1-4.4-1.7-6.3-3.1a2.8 2.8 0 0 1-.6-4.1 12.2 12.2 0 0 1 7.8-5.1c4.6-1 9.5-1.3 14.3-2 2.3.6 4.7.8 6.7 1.8s2.1 2.2 2.7 3.4.1 3.2-1.7 4.1zM887 574.4a68 68 0 0 1-13 5.6c-3 .9-6.1-.6-8.7-2.6s-2.1-4.9-.6-6.2 1-1.2 1.6-1.6c5.4-3.5 11.6-4.8 17.6-6.6 2.3-.8 6.9 3.2 6.5 6.4-.8 1.3-1.6 4-3.4 5zm1.4-191.5a6.3 6.3 0 0 1-2.4.2l-8.4-.6c-1-.2-5.7-.9-10.2-2.1-1.3-.4-2.4-2-3.2-3.3s.5-4.4 2.8-5.6l2-1.1c8.2-2.6 15.7-1 22.3 4.4 1.3 1 2.4 5.7 1.3 6.3a17.2 17.2 0 0 1-4.2 1.8zm26.4 404a4.1 4.1 0 0 1-1 2.1c-5.1 5.9-11.3 8.1-18.8 5.7-.8-.3-1.3-1-2-1.4s.4-3.3 1.3-4.3c4.5-5 10.6-6.6 16.9-7.1 1.1-.1 2.4 1.6 3.4 2.7a3 3 0 0 1 .2 2.3zm3.6-88.9c-5.3 4.4-11.5 5.5-18.1 3.7-1.3-.3-2.3-2-3.2-3.2s.4-5 2.4-6.2c5-2.9 10.4-4.6 16.1-3.4 1.9.4 3.4 2.8 4.8 4.2-.8 2.1-1 4-2 4.9zm19.7-206.4c-6.3 4.9-13.1 8.3-21.5 6.8-2.3-.4-4.8-2.9-4-5.9.7-.9 1.8-3 3.6-4.2 6.1-4 13.2-4.4 20.2-4 1.1.1 2.6 1.9 3 3.1s-.3 3.5-1.3 4.2zm9.6 133.6a2.7 2.7 0 0 1-.7-4 20.9 20.9 0 0 1 15.8-8.6c1.6-.1 4.8 2.3 4.9 4.3a6 6 0 0 1-1.2 4.1c-3.9 4.2-9.4 5.1-14.2 6.6a21.7 21.7 0 0 1-4.6-2.4zm34.5 108.1c-3.6 4.3-8.5 6.7-14.1 7.7a17.6 17.6 0 0 1-2.3 0c-2.2.1-4.9-1.8-4.9-4a7.3 7.3 0 0 1 1.1-4.2c4.2-5 10-7.3 15.9-9.3.7-.3 1.6 0 2.9.1 1 1.6 2.5 3.4 3 5.5s-.6 3.1-1.6 4.2z"></path><path d="M31.1 792.2c15.6 33.6 31 67.4 51.1 98.8 7.4 11.6 15.1 22.8 23.6 33.7s19.4 19.3 30.9 26.8a74 74 0 0 0 29 11.7c21.4 3.5 43 8.3 64.8 1.7 2.2-.6 4.8-.3 7.2-.6a238.7 238.7 0 0 0 60.4-16.7c24.8-10.7 42.6-28.7 53.5-53.4a90.6 90.6 0 0 0 4.3-11.3c8.4-28.6 17-57.2 17.1-87.5a72.5 72.5 0 0 1 1.6-16.8c2-8 2.1-16 2.5-24 .6-12.1.2-24.4 2.2-36.3s2.4-25.7 2.9-38.5c.6-17.8.6-35.6.8-48.1 0-21.4.2-37.5-.1-53.7-.2-12-.1-24.3-2-36.2-1.4-8.8-2.3-17.5-2.9-26.3-1.1-18.6-4.7-36.8-7.9-55-3-16.7-7.6-33-11.9-49.4a211.9 211.9 0 0 0-22.3-53.4c-5.6-9.6-13.5-15.8-22.9-20.8a20.6 20.6 0 0 0-6.9-2.2c-16.9-1.8-33.8-2.1-50.4 2.7-28 8-54.8 19.1-80.8 32.1-19.4 9.8-38.5 20.4-57.1 31.7a962.5 962.5 0 0 0-85.5 59.1c-7.9 6.1-14 13.2-13.4 24.3.2 4.8-1.3 9.6-1.8 14.4-2.8 21.5-6.2 43-7.3 64.7-.5 9.7-.5 19.4-2.2 28.9s-1.9 17.7-2.3 26.5-.2 16.2-.9 24.2c-1.5 15.2.9 30.7-3.1 45.8-1.6 24.5-.9 29.7 9 54.1 6.6 16.5 13.4 32.9 20.8 49zm312.4 4.2c.3 2.3.5 4.7.7 6-.4 7.4-.9 13.7-4.8 19-.8 1.2-2.5 1.8-3.9 2.4s-5-2.7-5.1-4.3a15.7 15.7 0 0 1-.4-2.3c-.6-8.1 1.9-15.6 5-22.8.5-1.1 2.5-1.8 3.9-2.2s2.9.3 3.6 2.1a10 10 0 0 1 1 2.1zm-14.6-279.6c.4-4.5.7-8.4 1.2-12.3s4.2-5.8 6.7-5.4 5.8 4 5.7 6.8a48.2 48.2 0 0 1-5.9 22.6 5.1 5.1 0 0 1-3.9 2.1c-1.1 0-2.5-1.4-3-2.5a12.1 12.1 0 0 1-.8-4.6c-.1-2.4 0-4.8 0-6.7zm-17.1 116.8c1.1-1.4 2.4-2.4 4.1-1.8s3.1 1.6 3.4 2.7c1.5 7.2 1.9 14.3-3.7 20.2-.9.9-2.6 1.1-4 1.3s-1.1-1.1-1.4-1.8a6.5 6.5 0 0 1-.8-2.2c-.3-2.4-.5-4.8-.6-6.5.3-4.6.2-8.6 3-11.9zm-28.2 246.7c.7 1.4 1.7 2.8 1.9 4.3.5 3.1.5 6.3.7 8.7-.2 5.5.4 10.4-2.4 14.7-1 1.5-2.2 2.2-4 1.7a4.4 4.4 0 0 1-1.8-1.2 4.5 4.5 0 0 1-1.5-1.9c-1.9-8.6-2.7-17.2-.4-25.9.3-1 2.2-1.9 3.6-2.4a3.2 3.2 0 0 1 3.9 2zm-16.7-471.7c.2-1.4 1.6-2.6 2.7-3.7s5.3-.3 5.9 1.6 1.5 2.9 1.5 4.4c.3 4 .1 8 .1 15.5-.1 1.2-.5 5.9-1.2 10.6a2.4 2.4 0 0 1-3.3 2.2c-.7-.3-1.7-.4-2.2-.9s-2.3-2.3-2.7-3.8a70.3 70.3 0 0 1-.8-25.9zm-4 318.2c.4-1.2 2.1-2.1 3.3-3.1s3.4.2 4.4 1.1c5.3 5.1 5.6 10.7 1.4 17.1a3.8 3.8 0 0 1-6 .6c-3.8-4.7-5-10-3.1-15.7zm-29.5-198.9c.5-1.2 2-2.2 3.2-2.9s3-.4 4.2 1c5.4 6.6 6.2 14.1 5 22.1-.2 1.4-3.9 4.7-5.1 4.3s-3-1.1-3.8-2.2a17.6 17.6 0 0 1-3.4-6.1 75.9 75.9 0 0 1-1.4-9c.5-2.6.5-5 1.3-7.2zm-20.9 276.7c.7.1 1.8 0 2.2.4a23.9 23.9 0 0 1 6.7 19.1c-.1 1.3-1.5 2.6-2.5 3.7s-5.4.2-6.5-1.1c-4.6-6.1-5.3-12.8-3.4-19.9a2.8 2.8 0 0 1 3.5-2.2zm-13.9-165.7c.5-1.1 2.2-2 3.5-2.4a3.1 3.1 0 0 1 3.9 1.9c4 8.8 6.3 17.8 2.3 27.3-.3.6-1.2 1.4-1.8 1.3s-3.2-.3-3.9-1.1a17.2 17.2 0 0 1-3.4-6.2c-1-4.6-1.4-9.3-2-14.1.4-2.2.5-4.6 1.4-6.7zm-18 273.1c1.7-1.1 4.7-.5 6.4 1a19.5 19.5 0 0 1 6.9 14.8 6.4 6.4 0 0 1-.4 2.4c-.8 1.3-1.5 3.2-2.7 3.7a5.4 5.4 0 0 1-4.4-1 25.6 25.6 0 0 1-8-14.4c-.5-2.1.5-5.3 2.2-6.5zm-13.7-179.7c.8 1.4 1.9 2.8 2.2 4.2.7 4.7 1.1 9.5 1.7 14.8-.5 1.8-1 4.1-1.7 6.3s-2 2.4-3.7 1.1-2.9-1.8-3.5-3.1a50.7 50.7 0 0 1-5.3-20.5c-.1-2.5 2.2-4.1 4.4-5.3s4.9.6 5.9 2.5zM145.8 447a9.8 9.8 0 0 1 2.7-3.7c1-1.1 5.5-.2 6.4 1.2s3 4 3.4 6.2c1.1 6.1 1.6 12.4 2.4 18.8-.6 2.2-1.1 4.5-1.9 6.6s-2.1 2-3.8.9a10.1 10.1 0 0 1-3.5-2.9c-3.8-7-6.3-14.4-6.3-22.5a14.2 14.2 0 0 1 .6-4.6zm-5.9 394.6c.4 1.6-1.4 5.7-2.8 5.8a8.2 8.2 0 0 1-4.4-.7c-5.7-3.6-8.1-9.4-9.8-15.4-.4-1.5 2.1-3.8 3.4-5.6s1.5-.5 2.2-.8a13.9 13.9 0 0 1 2.1 1.1c5.3 3.9 8 9.3 9.3 15.6zM115.7 555c.1-1.4 1.3-2.8 2.3-3.9s5.7.5 6.3 1.8a44.8 44.8 0 0 1 6.1 25.2 5.2 5.2 0 0 1-.4 2.1c-.7 1.2-1.5 3.1-2.5 3.1a5.3 5.3 0 0 1-4.1-1.7 38.7 38.7 0 0 1-7.7-26.6zM93 656.4c1.3-.1 2.7.6 4.1 1.2a4.9 4.9 0 0 1 1.6 1.6c4.9 7.5 5.4 16.2 7.4 23.9a45.2 45.2 0 0 1-4.1 3.6 2.5 2.5 0 0 1-2.2-.2c-1.6-1.7-3.7-3.2-4.5-5.3-2.5-6.5-4.5-13.2-6.7-19.9-.5-1.5 2-4.6 4.4-4.9zM66.5 781.1c-.7.9-1.1 1.9-1.7 2.1a11.7 11.7 0 0 1-4.1 1 3.6 3.6 0 0 1-2-1.2 47.3 47.3 0 0 1-11-20.4c-.4-1.5 1.3-5.3 2.8-6.2s5.3 0 6.4 1.3 1.2 1.1 1.6 1.7c4.5 6.7 6.2 14.3 8 21.7zM41.3 499.7a16.3 16.3 0 0 1 4.5.8 4 4 0 0 1 2 1.2 58 58 0 0 1 9.7 18.8c.6 2.1.1 4.6.1 6.8s-.9 1.9-1.3 2a14 14 0 0 1-4.1-.2 5.1 5.1 0 0 1-2-1.2c-6.3-6.3-9.7-14.1-12-22.5-.4-1.3 1.8-5.7 3.1-5.7zM27 624.6a8.8 8.8 0 0 1 2.2 1c5.2 5.2 8.4 11.3 8.3 18.8 0 1.4-1.1 2.9-2.1 4s-5.5.2-6.6-1.1a35.2 35.2 0 0 1-8.1-16.8c-.3-2.2 4.1-6.4 6.3-5.9z"></path></g></g></svg>