<svg xmlns="http://www.w3.org/2000/svg" width="1059.8" height="850.7" viewBox="0 0 1059.800048828125 850.699951171875" style=""><g><g data-name="Layer 2"><path d="M900.5 774.8l-8.3-8.2-2.8-.6L0 579.7 121.4 0l892.2 186.8 10.9-4.1zM18 568l867.1 181.6 2-9.3 4.3 4.2L1004 206.8l-5.6 2.1 1.9-9.3L133.2 18z" fill="#ff704f"></path><path fill="#ffc384" d="M172.902 100.051l882.058 184.271-118.023 564.944L54.88 664.995z"></path><path fill="#1b3bca" d="M172.8 100.1l381.9 374.8 500.2-190.1-882.1-184.7z"></path><path fill="#ffd1b7" d="M554.7 474.9L54.6 665l118.2-564.9 381.9 374.8z"></path><path fill="#ffd1b7" d="M559.7 475.9l381.8 374.8 118.3-564.8-500.1 190z"></path></g></g></svg>