<svg xmlns="http://www.w3.org/2000/svg" width="1050" height="839.4" viewBox="-0.020995140075683594 0 1050.02099609375 839.4000244140625" style=""><g><g data-name="Layer 2"><path fill="#fcb0a7" d="M478.8 569l-5.6 23-1 4.2-20 83L425.6 790l-.7 2.8-10.8 44.6H73.5l21.2-70.1 3.7-12.2 3.2-10.7 5.6-18.4 14.1-46.8 4.6-15.2.9-2.8 30.1-99.5.5-1.9 7.9-26.1 73 8.2 24.9 2.9.9.1 31.5 3.5 22.9 2.6h.3l5.3.6 45.4 5.1L478.8 569z"></path><path d="M714.2 155.7c-9 27-47.5 34.1-70.9 41.3s-49.5 12.4-72 24.2c28.2-13.8 140.3 2 106.7 51.3-5.7 8.3-15.6 12.6-25.4 14.9-24.9 5.6-56.3 11.9-80.9 2.7 15.2 5.6 33.2 10.6 48.4 16.3 10.9 4.1 21.9 8.3 31.1 15.4a58.2 58.2 0 0 1 16.8 20.7c2.9 5.9 4.7 12.7 3.2 19.2s-7.8 13-14.6 16.1-14.4 4.1-21.9 4.7a297.6 297.6 0 0 1-71.8-2.8c12.5 6 28.4 11.6 41 17.6 16.1 7.8 32.7 15.9 44 29.8 6.6 8 11.1 18.7 8.1 28.7s-11.2 15.3-20.2 18c-26.5 7.9-48 .8-73.7-6.3-12.9 25.4-27 53.5-44.5 78.3-2.5 3.5-5 6.9-7.7 10.3-10.8 13.7-22.8 26.1-36.7 35.9l-4.3 3a118 118 0 0 1-47.4 18.3c-31.1 4.9-66-1-96.2-8.4-6.8-1.7-12.4-8.6-18.3-10s-16 3.7-23.5 5.3c-16.6 3.4-33.8 2.8-50.5 1.4-18.5-1.5-37.6-4.3-53-14.7a72.1 72.1 0 0 1-23.1-25.2c-25.5-44.9-9.3-115.8 7.2-158 24.6-62.3 62-126.6 111.5-175.7a320.6 320.6 0 0 1 68.2-52.3c47.2-26.6 101.9-34 154.2-42.1 35-5.4 70.1-9.5 105.4-12.5 29.3-2.4 57.4-9.3 86.7-1.6 16.7 4.4 30.3 17.4 24.1 36.2z" fill="#fcb0a7"></path><path d="M642.6.6c16.5 0 29.4 13 27.3 27.6l-67.8 491.2c-2 14.1-15.3 31-31.3 31z" fill="#f2f0e7"></path><path d="M642.6.6c16.5 0 29.4 13 27.3 27.6l-67.8 491.2c-2 14.1-15.3 31-31.3 31z" fill="#f9f8f4"></path><path d="M658.1 20.5l-1.8 12.7-2.1 14.3-64.9 454.6-2.1 14.4-2.8 19.6a17.4 17.4 0 0 1-17.2 14.9H277.3a17.5 17.5 0 0 1-17.2-19.9l2.2-14.6 2-14.4 65.8-454.6 2-14.3 2.6-17.7A17.4 17.4 0 0 1 351.9.6h289a17.4 17.4 0 0 1 17.2 19.9z" fill="#9eb1f2"></path><path d="M296.3 542l-3.3 31.5a11.5 11.5 0 0 0 11.4 12.6 11.5 11.5 0 0 0 11.4-10l4.1-34.1c-7.7-6.1-15.5-7.4-23.6 0z" fill="#1e1e1c"></path><path d="M658.1 20.5l-1.8 12.7-2.1 14.3H330.1l2-14.3 2.6-17.7A17.4 17.4 0 0 1 351.9.6h289a17.4 17.4 0 0 1 17.2 19.9z" fill="#231f20"></path><path d="M517.6 545.8c-2.5 3.5-5 6.9-7.7 10.3-10.8 13.7-22.8 26.1-36.7 35.9l-103.7-35.3-34.9-13.4z" fill="#231f20"></path><path d="M589.3 502.1l-2.1 14.4-2.8 19.6a17.4 17.4 0 0 1-17.2 14.9H277.3a17.5 17.5 0 0 1-17.2-19.9l2.2-14.6 2-14.4z" fill="#231f20"></path><g fill="#f9f8f4"><path d="M654.5 6.2A18.1 18.1 0 0 0 640.9 0h-289a18.1 18.1 0 0 0-17.8 15.4l-2.7 18.5h325.4l1.9-13.4a17.9 17.9 0 0 0-4.2-14.3z"></path><path d="M259.5 531a18 18 0 0 0 17.8 20.6h289.9a18.2 18.2 0 0 0 17.9-15.4l2.9-20.4H261.7z"></path></g><path fill="none" stroke="#231f20" stroke-linecap="round" stroke-linejoin="round" stroke-width="4" d="M433.6 11.5h123.2v6.72H433.6z"></path><path fill="none" stroke="#231f20" stroke-linecap="round" stroke-linejoin="round" stroke-width="4" d="M658.3 74.5l-13.7 95.8"></path><path fill="none" stroke="#231f20" stroke-linecap="round" stroke-linejoin="round" stroke-width="4" d="M643.4 180.3l-6.8 47.9"></path><path d="M298.6 250.3c-6.9 26.2-2.1 53.1-2.7 80.2-1.6 72.5-1.2 147.9-51.8 205.5-17.2 19.6-60.8 46.7-85.4 25-21.1-18.7-24.4-56.7-24.8-82.9s3.9-51.9 8.3-77.6c6.8-40.1 17.6-79.4 26-119.3 3.8-18.2 2.9-36.2 6.2-53.7s16.7-34.1 26.9-49.1a270.6 270.6 0 0 0 35.3-75.4c1.7-5.7 3.1-11.4 4.4-17.1 3.9-17.8 8.2-38.9 24.9-46.2a25.4 25.4 0 0 1 8-2c11.2-1.1 23.1 4.8 30.5 13.7 9.2 11.1 12.8 25.7 14.6 40 6.9 53.3-6.8 106.9-20.4 158.9z" fill="#fcb0a7"></path><path fill="#8768dd" d="M484.5 679.2l-13.9 107.1-.3 2.6-6.3 48.5H36.8l31.3-158.2h416.4z"></path><path d="M360 414.8h144.1c13.3 0 23.8 12.4 22.8 26.8-.9 13-10.8 23.1-22.8 23.1H360c-13.7 0-24.3-13.2-22.6-28.1 1.4-12.4 11.1-21.8 22.6-21.8z" fill="#fff"></path><path d="M274.1 52.3a91.8 91.8 0 0 1-14.5 39.4c-6 9-15.3 13.9-23 11.3 1.7-5.7 3.1-11.4 4.4-17.1 3.9-17.8 8.2-38.9 24.9-46.2a25.4 25.4 0 0 1 8-2 47.6 47.6 0 0 1 .2 14.6z" fill="#ffc9c5"></path><path d="M539.7 71.5l1.9 5.7h6a2.2 2.2 0 0 1 1.2 3.9l-4.8 3.5 1.8 5.7a2.1 2.1 0 0 1-3.3 2.4l-4.8-3.5-4.9 3.5a2.1 2.1 0 0 1-3.3-2.4l1.9-5.7-4.9-3.5a2.2 2.2 0 0 1 1.3-3.9h6l1.8-5.7a2.2 2.2 0 0 1 4.1 0z" fill="#a8bdf4"></path><path d="M563.1 458.4l1.9 5.7h6a2.1 2.1 0 0 1 1.3 3.8l-4.9 3.6 1.9 5.7a2.2 2.2 0 0 1-3.3 2.4l-4.9-3.6-4.8 3.6a2.2 2.2 0 0 1-3.3-2.4l1.8-5.7-4.8-3.6a2.1 2.1 0 0 1 1.2-3.8h6l1.9-5.7a2.1 2.1 0 0 1 4 0z" fill="#a8bdf4"></path><path d="M306 458.4l1.9 5.7h6a2.1 2.1 0 0 1 1.2 3.8l-4.8 3.6 1.8 5.7a2.2 2.2 0 0 1-3.3 2.4L304 476l-4.9 3.6a2.2 2.2 0 0 1-3.3-2.4l1.9-5.7-4.9-3.6a2.1 2.1 0 0 1 1.3-3.8h6l1.8-5.7a2.2 2.2 0 0 1 4.1 0z" fill="#a8bdf4"></path><path d="M389.3 82.7c0-7-8.1-12.7-18-12.7s-18.1 5.7-18.1 12.7 8.1 12.6 18.1 12.6l3.3-.2 2.3 8.6 2.7-9.8c5.8-2.1 9.7-6.4 9.7-11.2z" fill="#a8bdf4"></path><path d="M624.9 80.6c0-4.1-4.8-7.5-10.8-7.5s-10.8 3.4-10.8 7.5 4.8 7.6 10.8 7.6h2l1.4 5.2 1.6-5.9c3.4-1.4 5.8-3.9 5.8-6.9z" fill="#a8bdf4"></path><path d="M575.5 389.9c0-5.6-6.4-10.1-14.4-10.1s-14.4 4.5-14.4 10.1 6.4 10.2 14.4 10.2l2.6-.2 1.9 6.9 2.2-7.9c4.6-1.6 7.7-5 7.7-9z" fill="#a8bdf4"></path><g fill="#a8bdf4"><circle cx="609" cy="123.9" r="5.1"></circle><path d="M620.3 140.5a11.4 11.4 0 0 0-22.6 0z"></path></g><g fill="#a8bdf4"><circle cx="325.9" cy="381.6" r="5.1"></circle><path d="M337.2 398.2a11.4 11.4 0 0 0-22.6 0z"></path></g><path d="M294.7 303.3c2.1 97.1 2.1 153.6-38.2 224.2" fill="none" stroke="#231f20" stroke-linecap="round" stroke-linejoin="round" stroke-width="4"></path><path d="M302.1 614.1a58.6 58.6 0 0 1-19.5 26.1c-17.4 13.2-39.4 17.3-60.6 19.8-18.4 2.2-37.6 2.5-56.1 2.7-13.2.2-26.6.4-40 1.3a271.3 271.3 0 0 0-27.3 3.1c-34.2 5.7-64.8 28.2-82.1 60.1-16.3 30.2-18.3 64.5-5.3 94.1a101.4 101.4 0 0 0 8.8 16.1h-3.2a99.5 99.5 0 0 1-8.1-15c-13.3-30.4-11.3-65.5 5.4-96.5 17.7-32.6 49.1-55.6 84-61.5 9.4-1.6 19-2.5 28.7-3.2 13-.8 26.2-1 39.1-1.1 18.4-.3 37.5-.6 55.8-2.7 20.8-2.5 42.4-6.6 59.3-19.3 12.6-9.5 22.7-26.6 21.3-43.4a30.6 30.6 0 0 0-2.1-9.3l-.6-1.8a1.3 1.3 0 1 1 2.4-1 20.9 20.9 0 0 1 1.3 3.5 35.6 35.6 0 0 1 1.7 8.5 46.4 46.4 0 0 1-2.9 19.5z" fill="#231f20"></path><path d="M594.5 837.4h-3.7c-15.3-15.7-35.7-28.5-59.4-36.9a200.4 200.4 0 0 0-61.1-11.6 197.9 197.9 0 0 0-36.1 2.3l-9.3 1.6c-29.3 5.9-56.2 17.7-79.1 28.6-10.7 5.2-21.5 10.6-32 16h-5.9c12-6.2 24.4-12.5 36.7-18.4 23.4-11.2 51-23.2 81-29 2.7-.6 5.4-1.1 8.2-1.5a197.2 197.2 0 0 1 36.8-2.2 200 200 0 0 1 61.7 11.6c25 9 46.4 22.6 62.2 39.5z" fill="#231f20"></path><path d="M771.8 837.4a47.5 47.5 0 0 1 1.5-16.4c6-20.8 27.1-32.5 43.2-46.9 12.9-11.5 23.7-26.4 26.1-43.6s-5.4-36.3-21.1-43.6c-17.7-8.2-38.4.4-55.9 9.2-29.4 14.8-59 27.2-86 46.3s-51 56.8-61.1 95z" fill="#fcb0a7"></path><path d="M592.3 707.7c20.8 41.7 35.2 86.8 54.4 129.7H1050q-17.2-61.2-36.9-121.7c-10.2-31.5-21.7-62.6-32.1-94-7.1-21.5-15.9-42.5-35.8-55.5-5.4-3.5-11.5-6.5-17.9-6.4a26.7 26.7 0 0 0-10 2.4c-11.2 5.2-18.7 16.5-22 28.4s.5 25.7 1.1 38.1a276.4 276.4 0 0 0-30.1-51.1c-8.2-10.9-17.6-21.6-30-27.4s-28.6-5.3-38.5 4.1-10.7 20.9-11.6 32.8c-1.3 16.8-3.1 32.7-1.2 49.5a228 228 0 0 0-38-62.4c-6.3-7.4-13.2-14.5-22-18.7s-19.6-5.1-27.9-.1c-13.3 8-14.8 26.5-13.8 42a327.3 327.3 0 0 0 15.7 79.7c-32.3-64.2-68.9-126.2-100.6-190.4-12.8-25.9-26.3-74.7-62.4-74.7-51 0-30.4 66.3-20.7 94.4 23 67.3 46.5 137.2 77 201.3z" fill="#fcb0a7"></path><path d="M554.1 492c16.8-2.9 13.6-18.7 11.6-30.9s-6.2-29.5-19.1-36.9a21.4 21.4 0 0 0-31.4 13.8c-2.3 9.7.5 19.9 4.6 28.9 3.4 7.3 7.7 14.3 14 19.3s13.2 7.1 20.3 5.8z" fill="#ffc9c5"></path><path fill="none" stroke="#231f20" stroke-linecap="round" stroke-linejoin="round" stroke-width="4" d="M631.9 801.9l14.8 35.5"></path><circle cx="105.2" cy="747.9" r="22.1" transform="rotate(-77.2 105.167 747.955)" fill="none" stroke="#231f20" stroke-linecap="round" stroke-linejoin="round" stroke-width="4"></circle><path fill="none" stroke="#231f20" stroke-linecap="round" stroke-linejoin="round" stroke-width="4" d="M95.6 738.4l19.5 19.5"></path><path fill="none" stroke="#231f20" stroke-linecap="round" stroke-linejoin="round" stroke-width="4" d="M95.6 757.9l19.5-19.5"></path><path d="M317.5 240a141.9 141.9 0 0 0 10.9 54.6 141.3 141.3 0 0 0 40.5 54.5c3.4 2.8 6.9 5.5 10.6 8a138.5 138.5 0 0 0 15.4 9.1 141.5 141.5 0 0 0 128.4 0h.1a144.1 144.1 0 0 0 21.7-13.7 55.7 55.7 0 0 1-6.3-5.4l-11.9-21.8-8.7-15.9-29.5-54.1 24.1-6 34.2-8.6 3 7.1 14.9-49.9a58.7 58.7 0 0 1-3.3-14.4c-.8-6.7-1.9-13.5-2.2-20.3-.2-4.8.5-9.6 0-14.4a30.9 30.9 0 0 1-.1-8.6c.1 0 .1-.1.1-.2a141.6 141.6 0 0 0-241.9 100z" fill="#8c9be0"></path><path fill="#ffc0a7" d="M488.7 255.3l38.2 70 11.9 21.8 15.7-2.5 34.4-5.4-10-23.7-28.9-67.7-3-7.1-58.3 14.6z"></path><path d="M373.2 189.3l2.2 57.6 1.1 31.1 3 79.1a138.5 138.5 0 0 0 15.4 9.1h128.5l-5.2-56.8-5.4-60.1-5.4-60z" fill="#f4f0e4"></path><path d="M328.4 294.6a141.3 141.3 0 0 0 40.5 54.5l7.6-71.1 3.4-30.9-4.5-.2-40.9-2z" fill="#ffc0a7"></path><path d="M395.6 189.3h-19.2a39 39 0 0 0-37.1 26.7l-16 52.2H385z" fill="#f4f0e4"></path><path d="M488.1 189.3h19.3a39 39 0 0 1 37.1 26.7l16 52.2h-61.7z" fill="#f4f0e4"></path><g fill="#ffc0a7"><path d="M526.9 325.3l11.9 21.8a55.7 55.7 0 0 0 6.3 5.4c7.7 5.5 17.4 9 28.6 5.6 6.8-2.1 13.5-6 14.6-13.9l.6-5 10-76.8 1.1-7.9 7.1-55.1.2-1.3.2-1.4-13.9-1-8.9-.7-3.2-.2-12-.9-1.7-.2h-1.5l-.6 2-.8 2.4-14.9 49.7z"></path><path d="M581.6 204.8c9.5 1.7 22.5-.1 27.2-9.1s7.9-20.9 9.1-32.2 4.7-21.4 5-32.5c0-1.3-.2-3-1.4-3.6a2.8 2.8 0 0 0-2.9.4 5.4 5.4 0 0 0-1.9 2.3c-2.2 4-3.4 8.4-4.7 12.7s-2.7 9.7-4.1 14.5c2.7-9.8 4-19.9 5.1-30a7.4 7.4 0 0 0-.2-3.9 3.3 3.3 0 0 0-3-2.3c-1.5.1-2.7 1.4-3.5 2.7-5.9 9.3-8.6 21.6-10.7 32.3 0-10.6 2.9-21.4 3.4-32a11.9 11.9 0 0 0-.5-5 3.9 3.9 0 0 0-7.2-.8 11.2 11.2 0 0 0-1.4 4c-1.4 6.2-2 12.6-3.3 18.9s-2.1 10.5-3.1 15.8a238.5 238.5 0 0 0 2.4-28 16.7 16.7 0 0 0-.6-5.9c-.5-1.5-1.7-3.1-3.4-3-3.7.3-5.5 6.1-6.3 9a72.8 72.8 0 0 0-2.2 13.2c-.7 6.5-2.2 13.1-3.3 19.6-2.2 13.1-9.5 35.7 7.5 41.8a26.2 26.2 0 0 0 4 1.1z"></path><path d="M559.4 163.2c.3 6.8 1.4 13.6 2.2 20.3a58.7 58.7 0 0 0 3.3 14.4 22.9 22.9 0 0 0 3 5.6c2.6 3.8 6.1 2.4 8.8-.2a16.5 16.5 0 0 0 3.3-4.8 25 25 0 0 0 1.5-3.8 29.3 29.3 0 0 0-.8-18.5c-1.7-4.4-4.4-8.2-6.5-12.4a39.2 39.2 0 0 1-2.8-8.8c-.2-.6-.3-1.2-.5-1.9l-.6-2.3a36 36 0 0 0-4.4-10.5 5.3 5.3 0 0 0-4.5-2.3 2.7 2.7 0 0 0-1.6 1 4.2 4.2 0 0 0-.4 1c0 .1 0 .2-.1.2a30.9 30.9 0 0 0 .1 8.6c.5 4.8-.2 9.6 0 14.4z"></path></g><path d="M394.9 366.2a141.2 141.2 0 0 0 106.8 8.8 135.8 135.8 0 0 0 21.6-8.8z" fill="#f9a7da"></path><path d="M430.3 87.9c14.1-5 30.5-.9 39.4 11.5s12.1 32.3 10.1 48.4-15.8 19.1-29 16.3c-16.3-3.4-33.7-17-38.8-33-5.7-17.7-.8-36.3 18.3-43.2z" fill="#ffc0a7"></path><path d="M465.1 121.3c.8 2.5 1.5 5 2.3 7.4.5-.8 2.3-.2 2.8.6a2.6 2.6 0 0 1-.3 2.8 7.2 7.2 0 0 1-2.4 1.8" fill="none" stroke="#231f20" stroke-linecap="round" stroke-linejoin="round" stroke-width="4"></path><path d="M459.8 140.7a8 8 0 0 1-6.6-6" fill="none" stroke="#231f20" stroke-linecap="round" stroke-linejoin="round" stroke-width="4"></path><ellipse cx="450.8" cy="121.8" rx="1.5" ry="2.8" transform="rotate(-10.2 451.586 122.185)" fill="#231f20"></ellipse><path d="M470.6 120.5c.2 1.5 1.1 2.7 2 2.5s1.2-1.5 1-3-1.2-2.7-2-2.5-1.3 1.5-1 3z" fill="#231f20"></path><path d="M444.1 115.2a2.2 2.2 0 0 1 .5-1.1c1.3-1.8 5.7-4.4 7.9-3.5a1.7 1.7 0 0 1 1 2 3.3 3.3 0 0 1-1.4 1.9c-1 .8-8.3 3.6-8 .7z" fill="#231f20"></path><path d="M465.1 162.7V187a19.3 19.3 0 0 1-8 15.8c-5.7 4-12.8 4.2-21.1.9a19.6 19.6 0 0 1-12-18.2v-39.1z" fill="#ffc0a7"></path><path d="M467.3 112.1a2.1 2.1 0 0 1 .6-1c1.3-1.8 5.6-4.4 7.9-3.6a1.8 1.8 0 0 1 1 2 3.5 3.5 0 0 1-1.4 2c-1 .8-8.3 3.6-8.1.6z" fill="#231f20"></path><path d="M426.4 133.4c2 .6 4.4 1 6.1-.2a4.7 4.7 0 0 0 2-3.4 9.5 9.5 0 0 0-.5-4.1c-1.4-4.7-4.5-8.7-7.7-12.6a17.4 17.4 0 0 0 3.6 1.3 4.7 4.7 0 0 0 5.8-3.9c.4-2.3.7-4.7-.4-6.9a30.8 30.8 0 0 0 20.1 1.3c6.5-1.7 12.5-5.9 17.2-10.7 1.4-1.4 6.8-7.8 3.5-9.6-1.5-.9-3.1.1-4.4.7a36.1 36.1 0 0 0-5.3 3.3 11.1 11.1 0 0 0 4-6c.6-2.3 1.3-4.5-.9-6.2a4.8 4.8 0 0 0-3.7-.9 12.6 12.6 0 0 0-3.7 1.3c-2.2 1.1-4.3 2.3-6.4 3.6a5.7 5.7 0 0 0-.1-5.5 5 5 0 0 0-2.5-1.5c-2.7-.6-5.5.4-8.1 1.5a73.8 73.8 0 0 0-12.9 7.1 5.4 5.4 0 0 0-.5-3.3 4.7 4.7 0 0 0-3.8-2.5 8.7 8.7 0 0 0-4.7 1 19.5 19.5 0 0 0-7.1 6.6 47.8 47.8 0 0 0-4.3 8.8 26 26 0 0 0-3-3.6 6.2 6.2 0 0 0-4.3-2 2.2 2.2 0 0 0-1.9.6 2.8 2.8 0 0 0-.4 2 9.9 9.9 0 0 0 2.2 5 28.6 28.6 0 0 0 4 3.8 17 17 0 0 0-9.4-1.5 3.8 3.8 0 0 0-2.9 1.3 2.4 2.4 0 0 0-.2 2.2 4.1 4.1 0 0 0 1.3 1.9c1.7 1.4 4.1 1.7 6.3 1.9a7.4 7.4 0 0 0 3.3-.3 28.9 28.9 0 0 0-2 12 16.1 16.1 0 0 0 4.2 10.7c-.2 4.3 2.6 8 5.1 11.5s3.5 4.6 5 7 2.4 7.2 5.5 3.4 2.1-11.3 1.9-15.1z" fill="#231f20"></path><circle cx="420" cy="134.7" r="12.6" fill="#ffc0a7"></circle><path d="M465.1 164.2c-7.9 2.4-15.9-1.2-23.9-4.3a59 59 0 0 0 23.9 14z" fill="#231f20"></path><path fill="none" stroke="#231f20" stroke-linecap="round" stroke-linejoin="round" stroke-width="4" d="M390.4 228.2l-5.4 40"></path><path fill="none" stroke="#231f20" stroke-linecap="round" stroke-linejoin="round" stroke-width="4" d="M514.5 268.2l-5.2-56.2"></path><path fill="#231f20" d="M376.2 281l-28.3-12.8h29.7l-1.4 12.8z"></path><path fill="none" stroke="#231f20" stroke-linecap="round" stroke-linejoin="round" stroke-width="4" d="M544 268.2l-14.3 48"></path><path d="M467.4 245.4c-5.2.9-9.6 4.3-13.7 7.6l-8.2 6.5c-4.3 3.5-9 7.1-14.5 7.8s-12-2.7-12.4-8.2c-.2-3.8 2.3-7.3 5.3-9.7a14.6 14.6 0 0 1 7.3-3.5c6.2-.9 11.8 3.5 16.7 7.4a154.7 154.7 0 0 0 12.9 8.8c3.4 2 7.2 4 11.1 3.7a10.9 10.9 0 0 0 10.2-11.2c-.2-7.6-8.1-10.4-14.7-9.2z" fill="none" stroke="#e0dfdd" stroke-linecap="round" stroke-linejoin="round" stroke-width="4"></path><path d="M467.3 189.3c3.2 26.5-43.3 28.4-46.2 0" fill="none" stroke="#231f20" stroke-linecap="round" stroke-linejoin="round" stroke-width="4"></path><path d="M467.3 366.2l34.4 8.8a135.8 135.8 0 0 0 21.6-8.8z" fill="#231f20"></path><path d="M585.1 195.8a99.5 99.5 0 0 0-2.2-18.8c-1.6-6.1-4.5-12-9.2-16.2" fill="none" stroke="#231f20" stroke-linecap="round" stroke-linejoin="round" stroke-width="4"></path><path fill="none" stroke="#231f20" stroke-linecap="round" stroke-linejoin="round" stroke-width="4" d="M611.3 160.8l-39.6-4.2"></path></g></g></svg>