<svg xmlns="http://www.w3.org/2000/svg" width="1080" height="707.2" viewBox="-0.042110975831747055 0.09500107288360593 1080.1075439453125 707.1229565429687" style=""><g><g data-name="Layer 2"><g fill="#f2f2f2"><path d="M573.4 149.8c1.9 11.4-.7 26.2-3.1 32 .9 1.4 3.4 3.9 8.1 3.2s6.7-4.7 9.1-8.4l-1.8-10.5c-1.2-7.6-2.9-26.5 9.4-28.5 8.7-1.5 11.1 2.3 12 7.5 1.6 9.7-2.7 25.4-5.4 30.9.9 5.2 2.3 10.1 3.2 15.3 2.4 10.7 4.1 17.6 5.9 28.4a106.9 106.9 0 0 1 8.6-7.7c19-17.2 37.4-34.6 35.7-44.9-.2-1.1 1.7-2.3 3.2-2.6s4.3 1.1 4.5 2c2.3 14-15.5 29.8-34.2 46.7-5.8 4.8-11 9.6-16.4 15 .2 1.4.2 3.2.7 6.2 3.1 24 5.9 93-19.2 97.2-10.5 1.7-20.4-5.3-24.9-32.7-3.6-21.9 10-53.5 28.9-71.6-2.4-14-4.5-23.2-6.6-32.2l-1.7-8.7a19 19 0 0 1-9.9 5.6c-11.3 1.8-25.5-.3-29.5-24.5-2.9-17.5 4.4-25.9 12-27.2s10.3 2.8 11.4 9.5zm-9.4 17.5c.2.8 1.4 6.6 1.9 7.4a136.1 136.1 0 0 0-.4-22.4c-.5-2.6-1.2-5.2-2.4-5s-.8 9.5.9 20zm35.2 69c-14.7 16.5-25.1 43.7-22.2 61.2 3.6 22.2 10 28 15.8 27.1 16.9-2.8 8.9-69.5 6.4-88.3zm.4-69.5a87.5 87.5 0 0 0 .2-20.4c-.2-1.5-.6-2-.9-2-2 .3-.5 15.4.7 22.4z"></path><path d="M740.8 153.2c1.3 7.3-.4 40.5-25.5 44.7-19 3.1-25.7-21.5-29.3-35.9-2 4.5-.7 23.2-15.2 25.6-8.5 1.4-13.6-6.1-16-20.4-3.2-19.2 11.2-29.7 26.1-32.2 7.6-1.3 13.6.7 14.3 5.1.4 2.1-2 4.2-3.4 4.5a3.9 3.9 0 0 1-3.2-1 9.5 9.5 0 0 0-6.8-1.3c-14.6 2.5-14.7 12.7-13 22.6 1.1 6.7 2.8 15.4 5.8 14.9s4.8-12.5 6.5-21.8c1.3-5.3 3.7-10.2 6.4-10.6s9.3.3 11.2 11.6c2.2 13.7 2.6 33.7 15.4 31.6 15.7-2.6 20.8-28 20.3-36.6-.2-1.2.8-2.2 3.1-2.6s3.1.1 3.3 1.8z"></path><path d="M751.2 181.2c2.3-.4-5.5-32.7 7.1-34.8 8.7-1.4 11.4 5.9 14 10.6 1.6-6.9 3-12.8 10.9-14.1s13.5 2.3 15.5 14.5c1.3 7.6 5.1 30.6 11.5 29.6 12-2 12.8-33 13.4-47.8 0-1.5 1.4-2.6 3.4-3s2.7.2 2.7 2c0 14.4 1.3 52.8-18.5 56.1s-24.4-22-26.2-33.1-2.7-10.9-3.3-10.9c-5.5 1 0 23.7-10.8 25.5-4.3.7-7.1-1.5-7.6-4.4-1.5-9.1-4.1-15.8-5.3-15.6-3.5.6 7.1 31.5-9 34.1-6.4 1.1-11-6.5-12.2-14.1l-3.3-19.6c-.5-3.2 1.2-5.8 5.5-6.6s7.8 1.5 8.3 4.4z"></path><path d="M841.5 166.2c2.4-.4-5.4-32.7 7.2-34.7 8.7-1.5 11.4 5.8 14 10.5 1.6-6.8 3-12.8 10.8-14.1s13.6 2.3 15.6 14.5c1.3 7.6 5.1 30.6 11.5 29.6 12-2 12.8-33 13.4-47.8 0-1.5 1.3-2.6 3.4-2.9s2.7.1 2.7 1.9c0 14.4 1.3 52.8-18.6 56.1s-24.3-22-26.1-33.1-2.7-10.9-3.3-10.8c-5.6.9 0 23.6-10.8 25.4-4.4.7-7.1-1.5-7.6-4.4-1.5-9.1-4.1-15.8-5.3-15.6-3.5.6 7 31.5-9 34.1-6.4 1.1-11-6.5-12.2-14.1l-3.3-19.5c-.5-3.3 1.1-5.9 5.5-6.6s7.7 1.4 8.2 4.3z"></path><path d="M931.1 90.5c1.9 11.4-.7 26.2-3.1 32 .9 1.4 3.4 3.9 8.1 3.2 3.2-.6 6.7-4.8 9.1-8.4l-1.8-10.5c-1.2-7.6-2.9-26.5 9.4-28.5 8.7-1.5 11.1 2.3 12 7.5 1.6 9.7-2.7 25.4-5.4 30.9.9 5.2 2.3 10.1 3.2 15.3 2.4 10.7 4.1 17.6 5.9 28.4a106.9 106.9 0 0 1 8.6-7.7c19-17.2 37.4-34.7 35.7-44.9-.2-1.1 1.7-2.3 3.2-2.6s4.3 1.1 4.5 2c2.3 14-15.5 29.8-34.2 46.7-5.8 4.8-11 9.6-16.4 15 .2 1.4.2 3.2.7 6.1 3.1 24.1 5.9 93.1-19.2 97.3-10.5 1.7-20.4-5.3-24.9-32.7-3.6-21.9 10-53.5 28.9-71.6-2.4-14-4.5-23.2-6.6-32.2l-1.7-8.7a19 19 0 0 1-9.9 5.6c-11.4 1.8-25.5-.3-29.5-24.5-2.9-17.5 4.4-25.9 12-27.2s10.3 2.8 11.4 9.5zm-9.4 17.5c.2.8 1.4 6.6 1.9 7.4a136.1 136.1 0 0 0-.4-22.4c-.5-2.6-1.2-5.2-2.4-5s-.8 9.5.9 20zm35.2 69c-14.7 16.5-25.1 43.7-22.2 61.2 3.6 22.2 10 28 15.8 27.1 16.9-2.8 8.9-69.5 6.4-88.3zm.4-69.5a88.3 88.3 0 0 0 .2-20.5c-.2-1.4-.6-1.9-.9-1.9-2 .3-.5 15.4.7 22.4z"></path><g><path d="M592.2 419.9c6.7 10.2 10.2 24.3 11.2 35.4 2.1 25.4-17.8 49.4-48.1 51.9-27 2.3-38.4-20-39.5-32.7-2.3-28 48.8-47.7 58.1-54.1-18.8-28.2-63.6-53.6-93.8-101.2-30.8 46.5-86.1 90.2-89.1 90.5s-4.7-1.6-4.9-4.2 51.1-38.7 89.7-94.4c-4.9-10.8-13.3-36.6-14.7-53.2-1.6-19.2 5.1-36.8 30.8-39 21.5-1.8 24.9 11.6 25.8 22.1 1.4 16.6-19.2 56-25.8 63.4 36.1 54 70.5 69.5 96 108 41-26.8 46.1-63.9 46.1-63.9s1-3.1 4-3.3 4.3.3 4.4 2.5-5.3 45.1-50.2 72.2zm-83.3-178.2c-.7-8.1-3.7-16.4-16-15.4-15.3 1.3-17.6 13.7-16.3 29 1.1 13 7.1 29.5 11.7 40.9 3.3-3.9 21.8-40.5 20.6-54.5zm69.2 185.9c-8 6.6-55 24-53.1 46.5.8 9.7 10.1 27 29.7 25.3 24.7-2.1 34.9-21.3 33.1-42.8-.8-9.4-3.7-20-9.7-29z"></path><path d="M640.5 344.6c5.9-.5 8.6 4.2 9.5 15.6 1.8 20.5 5.8 56.6 9.7 56.2 5.6-.4 6.5-16.6 5.2-35.5a9.1 9.1 0 0 1-2.1-5.7c-.4-4.6 1.5-9.6 7-10.1s10 2.4 10.5 7.3c0 .7.1 5.6.1 5.9.4 4.9 11.7 18 13.7 17.9s3-2.6 2.6-7.8-5-12.4-9.1-18.6c-3-4-5.2-7.4-5.4-9.4s-.2-6.2 3.7-6.5c7.2-.6 13.5 4.1 21.3 3.4 14.3-1.2 20.3-4 27.7-17.4a3.5 3.5 0 0 1 3.4-2.2c2.9-.3 4.3.9 4.5 2.5-1.4 11.3-15.7 28.2-32.9 29.7a37.4 37.4 0 0 1-12-1.6c4.2 6.2 7.3 12.2 7.9 19.3.9 10.1-3.6 15.7-10.7 16.3-13.7 1.2-20.6-6.7-22.1-12.5.6 14.7-3.5 32.4-12.3 33.1s-20.8-2.1-25.9-63c-.4-4.5-.4-8.2-.5-9.8s-.3-6.5 6.2-7.1z"></path><path d="M795.8 332.1a3.3 3.3 0 0 1 3.6 3c.3 3.6-5.7 61.5-26.2 63.2-27.9 2.4-36.9-44.7-38-58.4-2.3-27 1.5-39.8 20.4-41.4 6.8-.6 11.1 2.7 11.7 10.8 1.5 17.3-15.8 33.5-15.8 33.5 2.1 24.7 8.1 48.8 20.8 47.7 11-.9 19.8-44 19.2-55.4 0 0 .4-2.6 4.3-3zm-45.6-1c3-3.5 9.9-14.3 9.4-20.2-.3-3.2-1.4-4.8-3.7-4.6-8.7.8-5.9 19.2-5.7 24.8z"></path><path d="M850.8 327.5a3.3 3.3 0 0 1 3.6 3c.3 3.5-5.7 61.4-26.2 63.1-27.9 2.4-36.9-44.7-38-58.4-2.3-27 1.5-39.8 20.4-41.4 6.8-.5 11.1 2.7 11.7 10.8 1.5 17.3-15.8 33.5-15.8 33.5 2.1 24.8 8.1 48.8 20.8 47.8 11-1 19.8-44 19.2-55.4 0 0 .4-2.7 4.3-3zm-45.6-1.1c3-3.5 9.9-14.3 9.4-20.1-.3-3.3-1.4-4.8-3.7-4.6-8.7.7-5.9 19.2-5.7 24.7z"></path><path d="M843.2 330.7c-.7-9.1.1-19 .9-28.5-3.5.9-9 2.4-13.5 3.1s-5-.9-5.2-3.5-.3-2.6 4.2-4l4.5-1.4c4.1-1.3 8.3-2 10.6-2.8 3.6-26.6 15-50.5 27.1-51.5 3.2-.3 5.4 2.5 5.8 7.4.8 9.1-2.4 25.4-4.4 36.1 0 .3-.3 1-.2 1.3 14.4-4.1 28.8-7.7 35.9-8.9 3.6-.7 5.3.8 5.5 2.8s-.7 3.7-4.2 4.9L870.4 296c-3.5 16.3-11.2 38-10.7 43.5 4.5 53.1 18.1 78.5 34.1 77.1 25.4-2.1 40.6-61.8 44.8-93.9a3.9 3.9 0 0 1 3.9-3.6c2.7-.3 4.4 1.6 4.2 2.9-1 7-13.2 99.1-52.3 102.4-30.2 2.6-45.6-27.9-51.2-93.7zm19.8-41.3c1.8-6 7.2-30.8 6.8-36.3-.1-.6-.1-1.3-.5-1.3-3.2.3-6.9 22.6-8.2 38.1z"></path><path d="M931.5 308.5c-.8-9.1 4.6-11.2 9.8-11.6 9.1-.8 12.7 2.2 13.4 11 .2 2.6.2 10.4-2.7 14.9 3.7 4.6 18.5 24 26.9 38.7 6.7-6.4 32.1-35.5 34.9-45.2 0 0 .1-2 3.7-2.3s3.6.4 3.8 1.7-.3.6-.3 1c-7.1 20.2-27.5 43.3-37.8 52.3a93.1 93.1 0 0 1 5.9 23.5c.9 11.4-4.2 20.6-20.4 22-8.5.7-16.2-5.2-17.1-15.6-1.1-12.7 9-22 14.4-27.1-7.8-14.7-33.4-50.3-34.5-63.3zm12.8-3.4c-1 .1-1.5 1.5-1.4 2.8.3 2.9 2.8 9.6 3.2 10.5a64 64 0 0 0 .7-11.2 2.6 2.6 0 0 0-2.5-2.1zm25.6 74.2c-4.5 4.7-9.8 11-9.2 18.2s3.7 9.5 7.3 9.2 6.9-3.5 6.1-13c-.2-2.6-2.8-9.9-4.2-14.4z"></path></g><path d="M740.5 278.5c-5.2-11.3-16.8-19.7-28.9-21.6-3.7-.5-4.7 4.7-1.5 6.2 10.2 4.7 17.4 11.1 24 20.1 2.9 3.9 8.2-.8 6.4-4.7z"></path><path d="M770.6 256.6c-1.7-6-2.2-12.6-4.5-18.5-.9-2.4-4.1-2-4.8.4-2.6 9.4.8 21.4 3.9 30.3a4.2 4.2 0 0 0 3.2 3l1.4.3a2.5 2.5 0 0 0 2.3-.8c3.5-4.5-.1-9.8-1.5-14.7z"></path><path d="M821.4 231.8c-.3-3.2-4.9-3.4-6-.7-2.8 6.9-4.1 14.5-6.8 21.5-1.9 5.1-4.9 10-3.4 15.5a2.8 2.8 0 0 0 3.7 1.6c6.3-3.1 7.9-11.2 9.6-17.5s3.4-13.6 2.9-20.4z"></path></g><path d="M464.4 474.9c2.8-34.3-8.2-68-19-100.6l-54-161.9c-5.4-16.2-11.7-33.6-25.8-43.3-11.6-7.9-26.3-9.1-40.4-9.6a710.6 710.6 0 0 0-188.4 17.9c-3.7.8-7.6 1.8-10.4 4.3s-4.1 5.8-5.5 9.1a1265.7 1265.7 0 0 0-72.7 253.7c-1.6 9.1-3.1 18.4-1.2 27.5s7.9 17.7 16.8 20.1c6.2 1.7 13 0 18.7-2.9a43.9 43.9 0 0 0 22-27.8c-4.2 19.8 10.1 41.5 29.9 45.6s41.5-10.2 45.5-30c-1.1 22.5 15.8 45.1 38 48.4s45.8-15.3 45.9-37.8c8.4 17.9 24.6 33.4 44.3 35.1s40.5-15.6 37.8-35.1a77.3 77.3 0 0 0 28 29.6c4.1 2.5 8.7 4.7 13.5 4.9 10.1.4 18.8-8.3 21.9-17.9s1.8-20.1.6-30.2c5.9 5.9 10 13.4 15.7 19.5s13.9 11.1 22 9.2c11.3-2.7 15.8-16.3 16.8-27.8z" fill="#c6b19c" stroke="#231f20" stroke-miterlimit="10" stroke-width="1.81"></path><path d="M337.2 132.4c-29.1-10.9-60.5-13.8-91.5-14.8-22.2-.6-44.7-.3-66 5.9s-41.5 19-52.6 38.2c-5.8 10-8.9 21.9-6.3 33.1s11.8 21.1 23.2 22.4 19.5-9.7 26.3-18c5.8 13.7 14.8 27.4 31 29.6s33.3-6.6 41-21c5.9 14.3 22 23.7 37.4 21.9s28.8-14.9 31.1-30.3c8.7 13.5 25.7 21.5 41.5 18.8s29.4-16.8 30.7-32.9c2-25-22.3-44.1-45.8-52.9z" fill="#231f20"></path><path d="M319.2 155.7c21.9-16.9 31.9-50.9 15.6-73.2-13.3-18.2-38.3-23.1-55.9-37.3A63.6 63.6 0 0 1 255.7 1C207 5.8 164 45.3 155.1 93.7s38.1 74.2 80.5 79c28.4 3.3 60.2 1.1 83.6-17z" fill="#fff" stroke="#231f20" stroke-miterlimit="10" stroke-width="1.81"></path><g fill="#231f20"><path d="M249.4 134.6h-1.2c-5.4-.1-10.5-2.7-14.6-7.3-7.4-8.1-10.1-20.2-9.6-28a2.7 2.7 0 0 1 3-2.6 2.7 2.7 0 0 1 2.5 2.9c-.4 6.9 2.2 17.4 8.2 24 3.2 3.5 6.8 5.3 10.7 5.5h.8c14.5-.5 16-25.8 16.1-28.7a2.6 2.6 0 0 1 2.9-2.6 2.7 2.7 0 0 1 2.7 2.9c-.7 16.2-6.8 33.5-21.5 33.9z"></path><path d="M216.1 73.8c-7-.1-7.2 10.7-.2 10.8s7.2-10.6.2-10.8z"></path><path d="M281.2 74.6c-7-.2-7.3 10.6-.3 10.8s7.3-10.7.3-10.8z"></path><path d="M280.4 101.4c.7 2.5 3.6 3.6 6.2 3.9s7.9.2 11.2-1.7 5.8-5.5 5.6-9.3a5.3 5.3 0 0 0-1-3.2 7.3 7.3 0 0 0-2.3-1.6c-3.2-1.3-6.7-1-10-.2a15.5 15.5 0 0 0-4.4 1.7 11.3 11.3 0 0 0-5.4 8 6.5 6.5 0 0 0 .1 2.4z"></path><path d="M195.2 93.2c-1.4 2.2-.2 5.1 1.3 7.3a18.3 18.3 0 0 0 8.8 7 10.6 10.6 0 0 0 10.7-2.2 5 5 0 0 0 1.6-2.9 5.4 5.4 0 0 0-.3-2.8c-1.2-3.2-3.8-5.6-6.6-7.5a24.4 24.4 0 0 0-4.3-2.1 11.4 11.4 0 0 0-9.5 1.5 4.6 4.6 0 0 0-1.7 1.7z"></path></g><path d="M144.7 258.7c-7.5 27.3-13.7 54.9-20.5 82.3s-15.7 54.3-20.4 81.9c-.5 2.9 3.9 3.3 4.8.8 19.3-51.6 31-109.9 40.8-164.1.4-2.6-4-3.4-4.7-.9z" fill="#231f20"></path><path d="M200 271.6c-5.8 24.6-7.8 50.3-12.3 75.2-4.9 27.7-13 55.1-16.9 82.9-.5 3.1 4.2 3.4 5.2.7 8.6-23.8 12.5-49.8 16.9-74.6 4.9-27.4 10.7-56.1 10.2-84a1.6 1.6 0 0 0-3.1-.2z" fill="#231f20"></path><path d="M261.5 270.4a2.2 2.2 0 0 0-4.4.2c-1.8 29.3.7 59-.1 88.4s-4.7 59.1-4.6 88.5c0 2.9 4.5 3.8 5.1.8 6.3-28.8 6.6-59.5 7.3-88.8s1.8-60.2-3.3-89.1z" fill="#231f20"></path><path d="M325.5 346.4c-4.1-24.1-5.8-50.9-14.6-73.9-.3-.8-1.6-.5-1.7.4-1.1 25.7 6.3 53 10.3 78.3s6.6 54.2 14.1 80c.7 2.3 4.8 2.5 4.7-.4-1.2-28.1-8.1-56.6-12.8-84.4z" fill="#231f20"></path><path d="M378.8 322.8c-2.1-8.1-4.1-16.1-6.1-24.1s-6.8-19.4-6.5-27.9a2.7 2.7 0 0 0-5.2-1c-1.9 5.2.5 10.7 1.6 16 1.9 9.9 4.2 19.9 6.6 29.7 4.4 18.1 7.8 38.3 15.9 55 1.5 3.1 5.6 1.1 5.3-1.9-1.8-15.5-7.8-30.8-11.6-45.8z" fill="#231f20"></path><g><path d="M189.2 693.8c89.5 17.1 181.5 14.1 272.5 11.1l275.4-9.2c77.2-2.6 235.5 11.2 220.2-103.7-7-52.4-95.5-44.9-134.3-49.5-50.9-6-102.2-6.4-153.3-6q-159.5 1.2-318.6 12.5c-54.2 3.8-108.8 7.1-162.7 14.1-27.3 3.6-65.1 8-75.7 38.2-18.2 52.3 33.8 84.3 76.5 92.5z" fill="#231f20"></path><g fill="#fff"><path d="M183.2 575.8a7.2 7.2 0 0 1 2.9.2l2.8.6 1.7.6a2.8 2.8 0 0 1 1.3 1h.2l2.4 2.2a28.4 28.4 0 0 1 2.4 2.6v.6l.8.7.7.8a5.4 5.4 0 0 1 .7 1.3 13.1 13.1 0 0 1 .5 1.5 12.4 12.4 0 0 0 1 2 11.9 11.9 0 0 1 .8 2 2.3 2.3 0 0 1 .1 1.4 3.6 3.6 0 0 0 .2 1.4l.3.4a9.1 9.1 0 0 1 .3 2.3 22.3 22.3 0 0 0 .4 2.3.3.3 0 0 0 .1.2.5.5 0 0 1 .2.4.7.7 0 0 1 .1.5 1.8 1.8 0 0 0-.1.6c0 .2 0 .3.1.3l.2.2a3.5 3.5 0 0 1-.1 2c-.3.8-.5 1.2-.8 1.4a1.4 1.4 0 0 1-1.3.2c-.6-.2-1-.4-1.1-.8v-.2c.1-.1 0-.3 0-.4s-.1-.3-.2-.3-.1-.2-.1-.4a1.9 1.9 0 0 1-.1-.8c0-.3.1-.6 0-.8s-.3-1.9-.4-2.7a13.8 13.8 0 0 0-.6-2.6l-.3-1.7a5.7 5.7 0 0 0-.3-1.8 1.8 1.8 0 0 0-.4-.9 3.1 3.1 0 0 0-.5-1 19.6 19.6 0 0 0-1.2-2.6 7.6 7.6 0 0 0-1.4-2.2 2.8 2.8 0 0 0-.7-.9 2.6 2.6 0 0 1-.7-1l-.5-.5-.7-.6a14.3 14.3 0 0 0-1.5-1.8 5.1 5.1 0 0 0-2.2-1.2l-1.4-.6-1.2-.4a4.8 4.8 0 0 0-2.3-.2 6 6 0 0 0-2.3.3 7.4 7.4 0 0 1-1.7.3l-2 .3-1.4.5-1.5.6-.7.2c-.2-.1-.4 0-.6.2a2.6 2.6 0 0 0-1.1.7 2.8 2.8 0 0 1-.9.7l-.7.6a1.8 1.8 0 0 0-.7.5l-.9.5a1 1 0 0 0-.5.6 3.5 3.5 0 0 1-.6.9l-.7 1a3.6 3.6 0 0 1-.7 1 1.4 1.4 0 0 0-.5.9c0 .3-.1.5-.1.7a.8.8 0 0 1-.2.4l-.7 2c-.3.7-.5 1.3-.7 1.9a9 9 0 0 0-.4 1.9.5.5 0 0 0-.1.3.6.6 0 0 1 .1.4 4.9 4.9 0 0 1-.4 1.1 3.7 3.7 0 0 0-.5 1.1c0 .2.1.4.1.6a.6.6 0 0 1 0 .6.2.2 0 0 1-.2.2c0 .1-.1.2-.1.3a.6.6 0 0 0 0 .6v.7a1.4 1.4 0 0 0-.2.6c-.1.1-.1.4-.1.7a2 2 0 0 1 .1.7c-.1.1-.1.3-.2.3s-.1.1-.1.2 0 .4.2.6a.8.8 0 0 1 .2.6.2.2 0 0 0-.2.2l-.2.3a1.7 1.7 0 0 0 .1.7 2.5 2.5 0 0 1-.1.8c0-.1-.1.1-.2.4a2.3 2.3 0 0 0 .1 1.4 3.3 3.3 0 0 1-.1 1.7.4.4 0 0 1-.1.3.3.3 0 0 0-.1.2 8.6 8.6 0 0 0 0 3.2 8.2 8.2 0 0 1 .1 3.1 3.6 3.6 0 0 0-.2 1.1 2.5 2.5 0 0 0-.1.8 1.5 1.5 0 0 0 .2 1 1 1 0 0 1-.1.9l-.4.4a9.7 9.7 0 0 0 .1 1.7 2.2 2.2 0 0 1 0 1.6 8.1 8.1 0 0 0-.1 1.7 3.7 3.7 0 0 0 .2 1.8 3.7 3.7 0 0 1 .1 1.8 3.8 3.8 0 0 0 0 1.5c.1.3.3.5.4.8s.2.5.2.9 0 .4-.1.4-.1.2-.1.4v.2a.5.5 0 0 1 .2.4 7.2 7.2 0 0 1 .2 1.7 11.5 11.5 0 0 0 .1 1.9l.3.8a3 3 0 0 1 .4.8 1.7 1.7 0 0 1-.1 1.2 1.4 1.4 0 0 0 .1 1.1l.3 1.3.3 1.3a3 3 0 0 0 .4 1 3 3 0 0 1 .4.8.6.6 0 0 1-.1.4.9.9 0 0 0 .1.5 2.9 2.9 0 0 0 .2.9 1.9 1.9 0 0 1 .4.9.6.6 0 0 1-.1.4.9.9 0 0 0 .1.5 6 6 0 0 0 .6 1.9c0 .2-.1.3-.1.5a.8.8 0 0 0 .1.4 1.4 1.4 0 0 0 .2.7l.6.8c.4 1.2.9 2.4 1.3 3.5s.9 2.3 1.4 3.5a12 12 0 0 0 1.1 2 14 14 0 0 1 1.3 1.8l.5.8.4.9a33.2 33.2 0 0 0 2.6 2.8 15.9 15.9 0 0 0 3.3 2.5c.1.2.3.2.6.2a9 9 0 0 0 4.9-.1c.2 0 .4 0 .5-.2l.5-.3 1.9-.6a5.1 5.1 0 0 0 1.6-.9 4.4 4.4 0 0 0 1.4-1.3l1.2-1.5 1.4-1.9a6.7 6.7 0 0 0 1-2.1 12.1 12.1 0 0 1 .8-2.5 11.3 11.3 0 0 0 .8-2.4 11.1 11.1 0 0 0 .2-1.7 7.7 7.7 0 0 1 .2-1.5 8.7 8.7 0 0 0 .1-2.8 6.3 6.3 0 0 1 .1-2.4c0-.1 0-.2.1-.2l.3-.3v-.8a2.2 2.2 0 0 1-.1-.8 7.1 7.1 0 0 1 .8-1.8 2.7 2.7 0 0 1 1-1.1 1.1 1.1 0 0 1 .9.2l.8.6q.2.2 0 .9a2 2 0 0 0 0 1.1 6.5 6.5 0 0 1 .2 1.1 3.2 3.2 0 0 1-.1 1.3l-.3.9a3.6 3.6 0 0 1-.2 1 .8.8 0 0 0 0 .7.4.4 0 0 1 0 .5l-.4.5a1.3 1.3 0 0 0 .1.6c0 .2.1.4 0 .6l-.2.3a.4.4 0 0 0-.1.3 4.3 4.3 0 0 0 0 1.6 4 4 0 0 1 .1 1.5 8.2 8.2 0 0 1-.6 1.9c-.2.6-.5 1.3-.8 2s-.1.5-.1.8 0 .5-.1.6l-.2.4-.3.4a7.4 7.4 0 0 0-.4 1.4 4.2 4.2 0 0 1-.6 1.4c-.1.1-.2.3-.3.3s-.2.2-.3.3l-.6 1-.5 1.1a2.8 2.8 0 0 1-1 .9 1.9 1.9 0 0 0-.9 1.1.3.3 0 0 0-.1.2c.1 0 0 .1 0 .2a.6.6 0 0 1-.6.3c-.3.1-.6.2-.7.4v.2c.1.1 0 .2 0 .3l-1.5.7-1.9.5-.8.6-.7.4h-3.9a19.7 19.7 0 0 1-3.6-.1 5.9 5.9 0 0 1-2.8-1 4.3 4.3 0 0 1-.4-.7c-.2-.3-.3-.6-.5-.7l-.4-.2h-.4a9.1 9.1 0 0 1-1.3-1 3.8 3.8 0 0 1-.9-1.3c-.1-.1-.2-.3-.4-.3a.8.8 0 0 1-.4-.4c-.2-.2-.3-.3-.3-.5a.8.8 0 0 0-.1-.4l-.8-1.2a4.1 4.1 0 0 1-.7-1.1 13 13 0 0 0-1.1-1.9 7.2 7.2 0 0 1-.9-2 1.6 1.6 0 0 1-.3-.9 2.2 2.2 0 0 0-.3-1 2.4 2.4 0 0 0-.6-.9l-.6-1.1a5.4 5.4 0 0 1-.3-1l-.3-.8-1-2.6a16 16 0 0 1-.8-2.6 5 5 0 0 1-.5-1.3 8.3 8.3 0 0 1-.4-1.5c-.1-.2-.1-.3 0-.4v-.5a2.1 2.1 0 0 1-.3-1.2 8.3 8.3 0 0 0-.4-1.5 6.5 6.5 0 0 0-.4-1.3 5 5 0 0 1-.4-1.3 13.6 13.6 0 0 1-.4-1.7 3.3 3.3 0 0 0-.3-1.5 3.5 3.5 0 0 1-.1-1.5 8.8 8.8 0 0 0-.2-1.6 10.6 10.6 0 0 1-.3-1.8c0-.1-.2-.2-.4-.5a3.4 3.4 0 0 1-.1-1 2 2 0 0 0 0-1.1 17.3 17.3 0 0 1-.4-2.7 11.1 11.1 0 0 1 0-2.6 8.2 8.2 0 0 0 0-4.4 11 11 0 0 1-.1-4.4l.2-.5a1.7 1.7 0 0 0 0-1 2 2 0 0 1 0-1.1c.2-.2.4-.4.4-.5a3.4 3.4 0 0 0-.1-.9 2 2 0 0 1 0-1.1c0-.1 0-.2.1-.2a.5.5 0 0 0 .2-.4 3.3 3.3 0 0 0-.2-1.9 4.6 4.6 0 0 1-.2-2.3 3.6 3.6 0 0 0 .2-1.1 5.3 5.3 0 0 1 .3-1.1 1.9 1.9 0 0 0 0-1.3 6.2 6.2 0 0 1-.1-1.3c.2-.2.3-.3.3-.4a6.9 6.9 0 0 0 .2-1.3 3.4 3.4 0 0 1 .1-1.4v-1.1a2.9 2.9 0 0 1 .2-.9c0-.2.1-.3.2-.3s.1-.1.1-.2l.3-1.6c0-.5.1-1 .1-1.4.6-2 1.2-3.9 2-5.9a2.3 2.3 0 0 0 .2-1.1 2.3 2.3 0 0 1 .3-1.1 6.4 6.4 0 0 1 .8-1.4 9.8 9.8 0 0 0 1.2-1.5l1.2-1.7a3.2 3.2 0 0 1 1.3-1.5l1.4-1.2a4.4 4.4 0 0 1 1.5-1 7.1 7.1 0 0 0 1.8-.8 7.6 7.6 0 0 1 1.8-.9l1.3-.5 1.4-.5h1.6a2.6 2.6 0 0 0 1.5-.2 7.4 7.4 0 0 1 1.9-.5z"></path><path d="M232.7 575.8h1.1l1.1.2a.8.8 0 0 0 .7 0h.8l2.5.6a15.3 15.3 0 0 1 2.7 1.1 6.4 6.4 0 0 1 3.8 2.6 7.7 7.7 0 0 0 1.8 1.8l1 .7.9 1a3.6 3.6 0 0 1 .4.9l.5 1.1.6 1.1a3.4 3.4 0 0 1 .6 1.2.8.8 0 0 1 .2.4 1.1 1.1 0 0 0 .1.5 5.5 5.5 0 0 0 1.1 1.7 4.5 4.5 0 0 1 1.1 1.7c0 .2-.1.3-.1.5a.8.8 0 0 0 .1.4 10 10 0 0 0 1.1 2.5 5.1 5.1 0 0 1 .9 2.5.4.4 0 0 1-.1.3c-.1.1-.1.2-.1.4s0 .2.2.4l.3.6v.5h1.3a4.2 4.2 0 0 0 2.4-1.1 11.9 11.9 0 0 1 2.2-1.3h1.2a1.2 1.2 0 0 1 1 .9 4.1 4.1 0 0 1 .1 1.1 1.9 1.9 0 0 1-.4.9 1.4 1.4 0 0 1-.9.8l-1.2.5a5.3 5.3 0 0 0-1.5.8l-.9.8h-.4c-.1-.1-.2-.1-.4 0a2.6 2.6 0 0 0-1 .7 1.7 1.7 0 0 0-.5 1.2 8.1 8.1 0 0 0 .2.9l.4 1c.1.3.1.4-.1.6a1.2 1.2 0 0 0-.2.7l.2.2c.1 0 .1.1.1.3a3.8 3.8 0 0 1 0 1.5 6.6 6.6 0 0 0 .1 1.5 1.7 1.7 0 0 1 .1.8 4.4 4.4 0 0 0 .2 1c.1.2.1.3.2.3s.1.2.2.3a.8.8 0 0 1-.2.6.8.8 0 0 0-.2.5.9.9 0 0 0 .4.6 7.2 7.2 0 0 1 .2 1.7 8.6 8.6 0 0 1-.1 1.7c-.1.1-.2.3-.3.3s-.1.2-.1.3a3.3 3.3 0 0 0 0 1.4 7.6 7.6 0 0 1 .1 1.5c0 .1-.1.3-.2.3v.2c-.1.2-.1.3 0 .4a1.6 1.6 0 0 1 .3.6 19.6 19.6 0 0 1 .1 6.4c-.1.3-.1.6-.2.7a.6.6 0 0 0 0 .6 2.8 2.8 0 0 1 0 1.3 11.2 11.2 0 0 0-.1 2.7 14 14 0 0 1 0 2.9.2.2 0 0 1-.2.2c0 .1-.1.2-.1.4a13.3 13.3 0 0 0-.3 2.8 21.3 21.3 0 0 1-.2 2.7c0 .2 0 .3-.1.4s-.2.1-.2.3a10.8 10.8 0 0 0-.2 3.2 15.5 15.5 0 0 1-.1 3.1 3 3 0 0 1-.4 1 11.7 11.7 0 0 0-.5 1.1 2 2 0 0 0 .1.7 1.3 1.3 0 0 1-.1.6 3.1 3.1 0 0 1-.5 1.2l-.6 1.2a1.7 1.7 0 0 0-.1.7 1.5 1.5 0 0 1-.1.7 1.7 1.7 0 0 0-.3.7c-.1.1-.1.4-.2.7a11.4 11.4 0 0 1-.9 1.9l-.4.4c-.2 0-.3.2-.5.4s-.3.5-.3.7a1.9 1.9 0 0 0-.4.8l-.6.5-.6.6-.3.7a.9.9 0 0 1-.3.7 7.9 7.9 0 0 1-2.1 2.4l-2.4 1.8a2.3 2.3 0 0 0-.7.7 1.2 1.2 0 0 1-.5.5h-.8l-.6.4-.8.6c-.1.2-.4.3-.8.5l-1.1.5a3.9 3.9 0 0 0-1.1.6 3 3 0 0 1-1.1.6 1.7 1.7 0 0 1-1 0 2.9 2.9 0 0 0-1.3 0 13.2 13.2 0 0 1-4.4.1 1.1 1.1 0 0 0-.8 0 .9.9 0 0 1-.7 0l-.7-.2-.9-.4a7.7 7.7 0 0 1-1.7-.7l-1.6-.9c-.1-.2-.3-.3-.3-.4s-.2-.3-.3-.4-.2-.1-.4 0h-.3a3.3 3.3 0 0 1-1.1-.8l-1.1-1.2-.7-.7-.6-.6a.8.8 0 0 1-.2-.4l-.2-.5a8.3 8.3 0 0 1-.8-1.2l-.8-1.2-.7-1.1-.7-1.1a1.2 1.2 0 0 1-.3-.9 3.6 3.6 0 0 0-.2-1.1l-.4-1a9.7 9.7 0 0 0-.3-1.1 13.6 13.6 0 0 0-.9-2.3 14.4 14.4 0 0 1-.9-2.4 3.8 3.8 0 0 1-.1-1 2.3 2.3 0 0 0-.2-1.1c0-.1-.1-.1-.1-.2a.2.2 0 0 1-.2-.2 7.6 7.6 0 0 1-.3-2.1 7.6 7.6 0 0 0-.3-2.1l-.4-.7a19.3 19.3 0 0 1-.4-2.7 15 15 0 0 0-.5-2.6.8.8 0 0 1 0-.7 1.4 1.4 0 0 0 0-.9 8.1 8.1 0 0 1-.3-2.5c0-1-.1-2.1-.1-3.3v-3.2a9.2 9.2 0 0 0 .1-1.6c0-.6.1-.9.1-1.2a4.4 4.4 0 0 1 .2-1 7.4 7.4 0 0 0 .2-1.2 10.6 10.6 0 0 0 .2-2.4 17.7 17.7 0 0 1-.1-2.4 1.4 1.4 0 0 1 .1-1.1c.1-.4.3-.7.3-.8a3.3 3.3 0 0 0 0-1.4 3.3 3.3 0 0 1 0-1.4l.2-.5a1.1 1.1 0 0 0 0-.8 1.7 1.7 0 0 1 0-1v-.2c.1 0 .1-.1.1-.3a3.7 3.7 0 0 0 0-2.1 3.7 3.7 0 0 1 0-2.1 6.9 6.9 0 0 1 .2-1.3c.1-.5.1-1 .2-1.5a5 5 0 0 0 .1-2.1 5.4 5.4 0 0 1 .1-2.2c.1-.2.1-.3.2-.3l.2-.3v-1a1.6 1.6 0 0 1-.1-1l.6-2.6a11.8 11.8 0 0 0 .6-2.7 6.1 6.1 0 0 0 .3-1.6 6.7 6.7 0 0 1 .3-1.7l.3-.6a1.4 1.4 0 0 0 .2-.7c.1-.6.3-1.3.4-1.8s.3-1.1.4-1.8a7.1 7.1 0 0 1 .8-1.8l1.1-1.6a.6.6 0 0 0 .2-.5c-.1-.2 0-.3.2-.4a3.6 3.6 0 0 1 1.2-1.6l1.5-1.4a24 24 0 0 1 2.9-1.9l3.2-1.5.9-.4.8-.4a6.3 6.3 0 0 1 1.9-.3 7.6 7.6 0 0 0 2.1-.5zm-16.5 30.3a8.1 8.1 0 0 1-.3 1.1c-.1.3-.1.7-.2 1a1.1 1.1 0 0 0 0 .8 1.4 1.4 0 0 1 0 .9.4.4 0 0 1-.1.3l-.3.4a6.6 6.6 0 0 0 .1 1.3 1.9 1.9 0 0 1 0 1.5.4.4 0 0 1-.1.3c-.1.1-.2.1-.1.2s0 .5.2.6.1.3 0 .6 0 .2-.1.2a.4.4 0 0 0-.1.3 4.3 4.3 0 0 0 0 1.6 4.1 4.1 0 0 1-.2 1.6c0 .1 0 .2-.1.2l-.2.2a.8.8 0 0 0 .2.6c.2.1.2.4.1.7s-.1.7-.2 1.1a8.9 8.9 0 0 0-.2 1.1 3.8 3.8 0 0 0 0 1.5 3.8 3.8 0 0 1 0 1.5 1.5 1.5 0 0 0-.2.8c0 .2 0 .3.1.4s.1.2.1.4a2.2 2.2 0 0 1-.2 1.3c-.1.6-.3 1-.3 1.3a.6.6 0 0 0 0 .6 1.1 1.1 0 0 1 0 .8c0 .1-.1.1-.1.2s-.2.1-.2.3-.1.7 0 .7a.1.1 0 0 0 .1.1c.1 0 .1 0 .1.2a8 8 0 0 0-.1 1.1c0 .1-.1.1-.2.2a.4.4 0 0 0-.1.3 4.8 4.8 0 0 0 0 1.7c.1.6.3 1.1.4 1.7s.2 2.1.2 3.2a9.6 9.6 0 0 0 .1 3c.1.4.3.8.4 1.2l.3 1.3a5.5 5.5 0 0 1 .1 1.8 4.7 4.7 0 0 0 .3 1.7 5.6 5.6 0 0 0 .4 1.2 8.3 8.3 0 0 1 .4 1.5 1.4 1.4 0 0 1 .2 1 2.6 2.6 0 0 0 .2 1.1l.6 1.5c.2.4.3.9.5 1.4l1.5 3.9a17.3 17.3 0 0 0 1.8 3.6 9.7 9.7 0 0 1 1 1.5 16.3 16.3 0 0 1 1.1 1.7 5.4 5.4 0 0 0 1.8 1.5 11.9 11.9 0 0 0 2.2 1.2l1.3.8 1.3.6 2.2.7a8 8 0 0 0 3.1 0 3.1 3.1 0 0 0 1.3-.6l1.1-.5 2-.8 2-1.1a19 19 0 0 0 3.1-2.3 16.8 16.8 0 0 0 2.5-2.9c.2-.2.2-.4.3-.6a.9.9 0 0 1 .3-.7c.1-.2.2-.2.3-.2l.2-.2a8.3 8.3 0 0 0 .7-1.3 8.3 8.3 0 0 1 .7-1.3 30.8 30.8 0 0 0 1.6-3.5 11.3 11.3 0 0 1 .9-2 17.2 17.2 0 0 0 .7-2.1 4.2 4.2 0 0 1 .2-1.1 6.7 6.7 0 0 0 .3-1.8 5.1 5.1 0 0 1 .3-1.7 7.4 7.4 0 0 1 .4-1.4l.3-1.5a2.3 2.3 0 0 0-.1-1.4 2 2 0 0 1 .1-1.3 1.6 1.6 0 0 1 .3-.9l.3-.9c0-.5.1-.9.1-1.2a5.7 5.7 0 0 1 .1-1.2 2.8 2.8 0 0 0 .1-.9 1.3 1.3 0 0 1 .1-.6 7.3 7.3 0 0 0 .1-2.6 9.5 9.5 0 0 1 .1-2.9c0-.4.1-.7.1-1s0-.5.1-.6a5.8 5.8 0 0 0 .1-1h-.1c-.1 0-.2 0-.2-.1s-.1-.4-.1-.9a3.6 3.6 0 0 1 .2-1.4 2.5 2.5 0 0 0 0-1.7c0-.1-.1-.2-.2-.3a.3.3 0 0 0-.1-.2 13.5 13.5 0 0 1-.1-4.5 14.1 14.1 0 0 0-.1-4.6 3.3 3.3 0 0 1-.1-1.7 4.1 4.1 0 0 0-.2-1.6l-.4-1.1a5.1 5.1 0 0 1-.2-.9 1.2 1.2 0 0 1 0-1 1.7 1.7 0 0 0 0-1 5.4 5.4 0 0 0-.7-1.3 1.2 1.2 0 0 0-.6-.5 1.1 1.1 0 0 0-1 .3l-1.1.5a1.7 1.7 0 0 1-1 0 1.4 1.4 0 0 0-.9 0l-2.9.7-2.8.9h-1.3a4 4 0 0 0-1.8.2 4.1 4.1 0 0 1-1.9.1l-1.3-.3a1.4 1.4 0 0 0-.9 0h-.9c-.1 0-.2 0-.2-.1s-.1-.1-.2-.1a1.4 1.4 0 0 0-.9 0 1.1 1.1 0 0 1-.8 0l-2.1-.5-2.1-.6a1.1 1.1 0 0 0-.6 0h-.5a1.8 1.8 0 0 1-.7-.5 1.6 1.6 0 0 0-.9-.3.6.6 0 0 0-.6 0h-.6l-.7-.4-1-.4h-.8l-.7-.2a2.4 2.4 0 0 1-.9-.6l-.8-.5a.5.5 0 0 0-.5 0h-.3a2.8 2.8 0 0 1-1.2-.8c-.4-.4-.8-.5-1-.4a1 1 0 0 0-.6 1.2c0 .7-.1 1.2-.1 1.6zm13.8-26.5a6.5 6.5 0 0 0-1.6.9 4.8 4.8 0 0 1-1.6.8 11.7 11.7 0 0 0-3.7 2.4 10.3 10.3 0 0 0-2.5 3.5h-.3q-.2 0-.3.3l-.3.8c0 .3-.1.6-.1.9l-.8 1.7a6.7 6.7 0 0 0-.7 1.8 6.2 6.2 0 0 0-.1 1.3 2.2 2.2 0 0 1-.1 1.1 2.2 2.2 0 0 1-.5 1.2 1.7 1.7 0 0 0-.2 1.2 2.1 2.1 0 0 0 1.5 2.1l2.7 1.2 1.9 1.1a7.6 7.6 0 0 0 1.8.9h1.7a6.6 6.6 0 0 1 1.5.5l1.4.6h.9a.7.7 0 0 1 .6.2l.7.3 1.5.2 1.1.4h4.6l1.6-.2 1.1-.2h1.5q.3-.1.3-.3h.3l2.7-.5 2.6-.4a6.7 6.7 0 0 0 2.1-1c.7-.4 1.1-.8 1.2-1.3a1.9 1.9 0 0 0-.1-1.7l-.6-1.4-.6-1.6-.6-1.4a2.9 2.9 0 0 1-.2-.9 4.6 4.6 0 0 0-.3-.9 13.8 13.8 0 0 0-1.7-3.1 34.9 34.9 0 0 1-1.8-3.1 9 9 0 0 0-1.5-1.9l-.6-1a7.5 7.5 0 0 0-.9-.9l-1.4-1.4-.9-.4a3.2 3.2 0 0 1-.9-.3l-4-1.9a8.7 8.7 0 0 0-5.1-.2z"></path><path d="M312.6 577a1.8 1.8 0 0 1 1.4.4 3.4 3.4 0 0 1 .8 1.6 11.2 11.2 0 0 1 .4 2.1v2.1l-.3.8-.4.6a10.3 10.3 0 0 0 .1 3.9 10.5 10.5 0 0 1 .1 3.5c0 .1 0 .2-.1.2a.4.4 0 0 0-.1.3c0 .3 0 .5.2.6s.1.3 0 .6a.4.4 0 0 1-.1.3c-.1 0-.1.1-.1.3a2.8 2.8 0 0 0 .2 1.5 3.1 3.1 0 0 1 .1 1.9 30.1 30.1 0 0 0-.4 4c-.1 1.2-.1 2.4-.1 3.7s.1 2.5.2 3.9.1 2.8.1 4.4a30.3 30.3 0 0 0 .2 3.1 6.8 6.8 0 0 1-.1 2.5 3.1 3.1 0 0 0-.2.8 1.3 1.3 0 0 0 .1.6 1.4 1.4 0 0 1 .2.6.3.3 0 0 1-.1.2.5.5 0 0 0-.2.4 2.1 2.1 0 0 0 0 .8c0 .3.1.6.1.8a2.6 2.6 0 0 0-.3.7 7.4 7.4 0 0 0-.1 2.1 9.7 9.7 0 0 1-.2 2.4 8.1 8.1 0 0 0-.1 1.6 6.1 6.1 0 0 0 .2 1.5 2.4 2.4 0 0 1 0 1.2 5 5 0 0 0 .1 1.7 2.5 2.5 0 0 1 0 1.5c0 .2-.1.3-.1.4a.5.5 0 0 0-.2.4 3.8 3.8 0 0 0 0 1.5 4.5 4.5 0 0 1 .1 1.6.4.4 0 0 1-.1.3.3.3 0 0 0-.1.2 8.1 8.1 0 0 0 0 3.8 11 11 0 0 1 .1 3.6 1.5 1.5 0 0 0-.1.7 4.1 4.1 0 0 1-.1 1c-.2 1-.4 1.9-.5 2.8a5.3 5.3 0 0 0-.1 2.5l.4.8a.7.7 0 0 1-.2.6 3.6 3.6 0 0 0-.4.9 2.8 2.8 0 0 0 .1 1.3v.9a.5.5 0 0 1-.2.4c0 .1-.1.2-.1.3a4 4 0 0 0 0 1.1 4.9 4.9 0 0 1 .1 1.2 1.7 1.7 0 0 0-.2.5 1.9 1.9 0 0 0-.1.8.5.5 0 0 1-.2.4.4.4 0 0 0-.1.3.6.6 0 0 0 .2.5 1.4 1.4 0 0 1 .2.6l-.3.6a.5.5 0 0 0-.3.5 3.1 3.1 0 0 0 0 1.9 2.2 2.2 0 0 1 0 1.6 1.9 1.9 0 0 1-.9 1.2 2.2 2.2 0 0 1-1.8.2 1.4 1.4 0 0 1-.9-.8 6.9 6.9 0 0 1-.5-1.7 14.2 14.2 0 0 0-.5-1.6 7.6 7.6 0 0 1-.6-1.6 10.3 10.3 0 0 0-.7-2.1l-.6-2a2.9 2.9 0 0 1-.3-.9c-.1-.1-.1-.4-.2-.9a10.7 10.7 0 0 0-.9-2.7 10.6 10.6 0 0 1-.9-2.5 47.1 47.1 0 0 0-2.9-7.7 52 52 0 0 1-2.9-7.8 17.2 17.2 0 0 0-.7-2.1 10.2 10.2 0 0 1-.8-2.3 1.9 1.9 0 0 0-.3-1l-.9-2.5-.9-2.5a3.4 3.4 0 0 0-.6-1.2l-.6-1.3a3 3 0 0 1-.2-1 3.8 3.8 0 0 0-.3-1l-.6-1.1a2.1 2.1 0 0 1-.6-1 .6.6 0 0 1-.2-.7 2 2 0 0 0-.1-.7 8.6 8.6 0 0 0-1-1.6 15 15 0 0 1-.9-1.8 5.7 5.7 0 0 1-.4-1.4 15.5 15.5 0 0 1-.4-1.5 2.9 2.9 0 0 1-.6-1 4.1 4.1 0 0 1-.6-1.1 14.3 14.3 0 0 1-.9-2.7l-.9-2.6-.4-.5-.3-.5a2.3 2.3 0 0 1-.3-1.1 2.2 2.2 0 0 0-.3-1 30.9 30.9 0 0 0-1.4-3.2 30 30 0 0 1-1.5-3.2 1.9 1.9 0 0 1-.3-1 1.7 1.7 0 0 0-.3-1l-.6-1.4-.6-1.6-.9-1.5a8 8 0 0 1-.9-1.4c-.1-.4-.2-.6 0-.6s.1-.1-.1-.2l-.4.4-.2.4a2 2 0 0 0 0 1.1 2.4 2.4 0 0 1 0 1.2.8.8 0 0 1-.2.7l-.3.7a1.7 1.7 0 0 0 0 1 3.7 3.7 0 0 1 .1 1.1.5.5 0 0 1-.2.4c0 .1-.1.2-.1.4a3.8 3.8 0 0 0-.1 1.5 2.7 2.7 0 0 1-.2 1.3l-.3.6a2.7 2.7 0 0 0 .1 1.5 2.8 2.8 0 0 1 0 1.8l-.3 1.8a10.6 10.6 0 0 1-.4 1.9 4.3 4.3 0 0 0 0 1.6 7.6 7.6 0 0 1 .1 1.5c0 .1-.1.3-.2.3l-.2.3a14.2 14.2 0 0 0-.1 3.6 13.5 13.5 0 0 1 0 3.5 11.9 11.9 0 0 0-.1 3.3c.1 1.2.2 2.4.2 3.6s.1 2.4.2 3.6a15.9 15.9 0 0 1 0 3.1l-.2.3a.3.3 0 0 0-.1.2.8.8 0 0 0 .2.6.8.8 0 0 1 .1.7 2.2 2.2 0 0 0-.2 1 10.4 10.4 0 0 1-.3 1.2 5.2 5.2 0 0 0 .1 2.8 7.4 7.4 0 0 1 .1 3.4c0 .1-.1.2-.2.3a.4.4 0 0 0-.1.3 1.1 1.1 0 0 0 0 .8 1.1 1.1 0 0 1 0 .8c0 .2 0 .3-.1.4s-.1.1-.1.3a10.7 10.7 0 0 0 .1 4.7 9.8 9.8 0 0 1 .1 4.5l-.4.5a21.6 21.6 0 0 0 0 3.6 12.6 12.6 0 0 1-.1 3.9c-.1.3-.1.6-.2 1.1a2 2 0 0 1-.3 1.1 1.6 1.6 0 0 1-.7.9 1.6 1.6 0 0 1-1.2.1 1.4 1.4 0 0 1-1-1 5.3 5.3 0 0 1-.4-1.9 12.7 12.7 0 0 1-.1-2c.1-.7.2-1.3.3-1.7a7.4 7.4 0 0 0 0-3.3 9.5 9.5 0 0 1-.1-3.8c0-.2 0-.3.1-.4a.4.4 0 0 0 .1-.3 14.5 14.5 0 0 0 .1-3.6 11.1 11.1 0 0 1 .1-3.2c0-.1 0-.2.1-.2s.1-.2.2-.4a3.7 3.7 0 0 0 0-2.1 5 5 0 0 1-.1-2.1.5.5 0 0 1 .3-.5 2.5 2.5 0 0 0 0-1.5 2.3 2.3 0 0 1-.1-1.4l.3-.6a5.2 5.2 0 0 0-.1-2.8 7.7 7.7 0 0 1 0-3.4.4.4 0 0 1 .1-.3.4.4 0 0 0 .1-.3 1.1 1.1 0 0 0 0-.8 1.4 1.4 0 0 1 0-.9 5.1 5.1 0 0 1 .2-1.3 2.4 2.4 0 0 0 0-1.2c0-.1-.1-.2-.2-.3s-.1-.2-.1-.3a1.4 1.4 0 0 1 0-.9 1.7 1.7 0 0 0 0-1 6.2 6.2 0 0 0-.3-1 2 2 0 0 1 0-1.1.3.3 0 0 1 .1-.2.4.4 0 0 0 .1-.3 3.3 3.3 0 0 0 0-1.4 3.3 3.3 0 0 1 0-1.4c.1-.7.3-1.5.4-2.4a.6.6 0 0 0 0-.6.8.8 0 0 1 0-.7l.4-.7a6.6 6.6 0 0 0-.1-2.4 4.9 4.9 0 0 1 0-2.4 13.7 13.7 0 0 0 .2-1.9 6.1 6.1 0 0 1 .2-1.5 2 2 0 0 0 0-1.1 2.4 2.4 0 0 1 0-1.2c0-.1 0-.2.1-.2a.4.4 0 0 0 .1-.3 1.7 1.7 0 0 0 0-1 1.7 1.7 0 0 1 0-1c.1-.7.3-1.3.4-1.9s.3-1.1.4-1.6a8 8 0 0 0 .1-2.7 7.3 7.3 0 0 1 .1-2.6c0-.2 0-.3.1-.3s.1-.2.1-.4a1.4 1.4 0 0 0 0-.9 1.7 1.7 0 0 1 0-1c.1-.3.1-.7.2-1l.3-.9c0-.6.1-1.2.1-2.1s.1-1.6.1-2.4a7.8 7.8 0 0 1 .3-2.2c.2-.6.5-1 1-1.1s1.8-.1 2.1.8.6 1.7.8 2.5a10.7 10.7 0 0 0 1.4 3.6 13.3 13.3 0 0 1 1.6 3.5.7.7 0 0 1-.1.5.4.4 0 0 0 .1.3.5.5 0 0 0 .2.4l.3.4v.3c-.1 0 0 .2 0 .3a4.3 4.3 0 0 0 .9 1.8 7.6 7.6 0 0 1 .9 1.8 9.3 9.3 0 0 1 .4 1.3 6.5 6.5 0 0 0 .4 1.3l1.5 3.5a19.4 19.4 0 0 1 1.5 3.6c.4.9.7 1.8 1 2.6a11.4 11.4 0 0 1 .9 2.6 12.8 12.8 0 0 0 1.4 3.4 21.1 21.1 0 0 1 1.6 3.4 2.2 2.2 0 0 1 .3 1 2.3 2.3 0 0 0 .3 1.1 26 26 0 0 0 1.5 2.8c.5.9.9 1.9 1.3 2.8a5.6 5.6 0 0 1 .4 1.2 2.2 2.2 0 0 0 .3 1c.5 1.2.9 2.4 1.4 3.5s.9 2.3 1.3 3.5a2.9 2.9 0 0 1 .2.9 1.9 1.9 0 0 0 .1.8l.5 1.2c.1.4.3.9.5 1.5a8.3 8.3 0 0 0 1.3 3.4 11.2 11.2 0 0 1 1.4 3.2 12.4 12.4 0 0 1 .4 1.6c.1.4.3.9.4 1.4s.8 1.9 1.2 2.7a11.7 11.7 0 0 1 .9 2.4 22.2 22.2 0 0 0 1.1 3.9c.5 1.1.9 2.3 1.4 3.5s.1.3.2.8.4.6.6.5a4.2 4.2 0 0 0 .3-1.3 6.4 6.4 0 0 1 .4-1.4 13 13 0 0 0-.1-3.4 8.6 8.6 0 0 1 0-3.2 3.6 3.6 0 0 1 .3-1.1 5.7 5.7 0 0 0 .1-1.2c.1-.1.1-.3.1-.6a2.2 2.2 0 0 1-.1-.8 22.4 22.4 0 0 0 .3-5.2 29.2 29.2 0 0 1 .4-5.1c0-.2 0-.3.1-.4a.4.4 0 0 0 .1-.3 2.9 2.9 0 0 0 .1-1.6 3 3 0 0 1-.1-1.6c.1-1 .2-1.7.2-2.2a12.6 12.6 0 0 0-.3-2.1l-.2-.5.2-.7a1.6 1.6 0 0 0 0-.7c0-.4-.1-.6-.1-.8s.1-.3.2-.3.1-.2.1-.4a5.6 5.6 0 0 0-.1-2.2 4.5 4.5 0 0 1 0-2.3c.1-.2.1-.2.2-.2v-.3a6.7 6.7 0 0 0 .1-2.5c-.1-1-.2-2-.2-2.9v-6.2c0-.9-.1-1.8-.2-2.8a6.8 6.8 0 0 1 .1-2.5 16.8 16.8 0 0 0 0-4.5 17.2 17.2 0 0 1 .2-5.1 1.5 1.5 0 0 1 .2-.9l.3-.8a2.2 2.2 0 0 0-.1-.9 1.2 1.2 0 0 1-.2-.8 1.4 1.4 0 0 1-.1-.9v-.8a10.4 10.4 0 0 1-.3-1.2 2.2 2.2 0 0 1 0-1.4 1.9 1.9 0 0 1 .2-.8l.3-.8a8.1 8.1 0 0 0 0-2.2 18 18 0 0 1-.2-2.2 5.8 5.8 0 0 1 .3-1.9 1.4 1.4 0 0 1 1.1-.9z"></path><path d="M328.8 568.7c.6-.1 1 0 1.2.5a3.5 3.5 0 0 1 .6 1.4 10.8 10.8 0 0 1 .3 1.9 8.1 8.1 0 0 0 .1 1.7 7.8 7.8 0 0 0 .1 1.3 2 2 0 0 0 .2 1.1q0 .1.6.3h4.7l2.2-.2 1.6-.2a6.9 6.9 0 0 1 2.2-.3l2.3.2a32.1 32.1 0 0 0 5.4.1 25.4 25.4 0 0 1 4.7-.1 3.2 3.2 0 0 0 1.4.1 1.1 1.1 0 0 1 1.1.7c.1.1.1.4.2.9s0 .7-.2.9-.4.5-.9.4a2.8 2.8 0 0 0-1.3 0l-2 .4a11.3 11.3 0 0 1-2.6 0l-1.8-.2a5.9 5.9 0 0 0-1.7.2 2.5 2.5 0 0 1-1.7.1l-1.3-.3a13.9 13.9 0 0 0-4.6.1 12 12 0 0 1-4.2.1h-1.5l-1.3.2a2.3 2.3 0 0 0-1.1.7 4.1 4.1 0 0 0-.6 1.1 8.1 8.1 0 0 0 0 3.1 9.8 9.8 0 0 1 .2 3.4l-.4.8a5.2 5.2 0 0 0-.2 1.7q.2.9.3 1.5c0 .1 0 .2.2.3s.1.3.2.5a.8.8 0 0 1-.2.4c0 .2-.1.3-.2.5a.6.6 0 0 0 0 .6 1.1 1.1 0 0 1 0 .8c0 .2 0 .3-.1.4s-.1.2-.1.4a1.1 1.1 0 0 0 0 .8 1.7 1.7 0 0 1 0 1 5 5 0 0 0-.2 1.2l-.3 1.1a8.1 8.1 0 0 0 .1 1.5 3.8 3.8 0 0 1 0 1.5 6 6 0 0 0-.2 1.2l-.3 1.3a1.1 1.1 0 0 0 0 .8c0 .3.1.6.1.9s-.2.3-.3.3a.6.6 0 0 0-.1.4 3.7 3.7 0 0 0 0 2.1 5.5 5.5 0 0 1 .1 2.2l-.4 1.6a4.2 4.2 0 0 0 .2 1.8 3.1 3.1 0 0 0 .6 1.3 3.7 3.7 0 0 0 1.5.6 3 3 0 0 0 1.6-.1 7.4 7.4 0 0 1 2.1 0h3.3a17 17 0 0 0 3.2 0h1a2 2 0 0 0 1.1 0l1.7-.3a3.4 3.4 0 0 1 2 0 16.2 16.2 0 0 0 4.9-.1 16 16 0 0 1 3.8-.1l3.5.5a12.8 12.8 0 0 0 3.4-.1 7.3 7.3 0 0 1 2.5-.1 2.4 2.4 0 0 1 .8.9 1.3 1.3 0 0 1 .2 1.3 2.2 2.2 0 0 1-1.5 1 4.9 4.9 0 0 1-2.4.1h-.6l-1 .2a2.5 2.5 0 0 1-1.2.1 28.9 28.9 0 0 0-4.4-.2h-9.6a31 31 0 0 1-4.5-.2h-5.9l-2.1.3a3.4 3.4 0 0 1-2 0 2.1 2.1 0 0 0-1.4 0 1.8 1.8 0 0 0-.6.8 1.2 1.2 0 0 0-.4.8 6.3 6.3 0 0 0-.1 2.4 24.6 24.6 0 0 1 .2 2.8c0 1.1.1 2.2.1 3.3a21.9 21.9 0 0 1-.2 2.9 13.7 13.7 0 0 0-.2 2.9c.1 1 .1 1.9.2 2.8a6.2 6.2 0 0 1-.1 1.2c0 .6-.1 1-.1 1.4a.8.8 0 0 1-.2.4c0 .2-.1.3-.1.5a2.4 2.4 0 0 0 0 1.2 6.6 6.6 0 0 1 .1 1.4 43.1 43.1 0 0 0-.3 9c.2 3.4.3 6.5.4 9.5 0 1 .1 2 .2 3.1a8.6 8.6 0 0 1-.1 2.8 2.4 2.4 0 0 1-.9 1.3 1.5 1.5 0 0 1-1.6.2c-.6-.2-.9-.8-1.1-1.9a11 11 0 0 1-.1-3.1 4.3 4.3 0 0 1 .2-1.1l.3-1a6.7 6.7 0 0 0 .1-2.5 26.4 26.4 0 0 1-.2-2.8v-2.9a17.7 17.7 0 0 0-.1-2.4 1.9 1.9 0 0 0-.4-.9 2.4 2.4 0 0 1-.2-.8 8.8 8.8 0 0 1-.3-2.4 16.9 16.9 0 0 1 .2-2.5 3.6 3.6 0 0 1 .2-1l.3-.8a1.5 1.5 0 0 0-.1-.7 1.4 1.4 0 0 1-.2-.6 4.5 4.5 0 0 1 .2-.8l.3-.9a14.3 14.3 0 0 0-.1-4.1 15.8 15.8 0 0 1-.1-3.7.8.8 0 0 1 .2-.4 4.3 4.3 0 0 0 .1-.5 9.9 9.9 0 0 0 0-4.2 11.8 11.8 0 0 1-.2-4.6l.4-.7a5.6 5.6 0 0 0 0-1.3 4.9 4.9 0 0 1-.1-1.2 12.8 12.8 0 0 0 0-3.9 15.1 15.1 0 0 1 .1-3.7l.2-.3c0-.1.1-.2.1-.4a8.5 8.5 0 0 0 .1-2.3 8.1 8.1 0 0 1 0-2.2.5.5 0 0 1 .2-.4c0-.1.1-.2.1-.4a6 6 0 0 0 0-1.9 4 4 0 0 1-.1-1.9 1 1 0 0 1 .1-.3l.3-.4a1.7 1.7 0 0 0 0-1 1.1 1.1 0 0 1 0-.8c0-.5.1-.9.1-1.4a3.5 3.5 0 0 1 .3-1.4 3.4 3.4 0 0 0 0-2 5 5 0 0 1-.1-2.1l.3-1.1a4.4 4.4 0 0 1 .2-1 2.9 2.9 0 0 0 0-1.3 7.1 7.1 0 0 1-.1-1.4 9.2 9.2 0 0 0 .2-3v-3.7c-.1-1-.1-2-.2-3a15 15 0 0 1 0-3l.2-.4c.1-.1.1-.2.2-.4a8 8 0 0 0 0-2.2c-.1-.8-.2-1.5-.3-1.9a1.1 1.1 0 0 1 0-.8 5.8 5.8 0 0 1 .2-1l.3-1.4a1 1 0 0 1 .9-.8z"></path><path d="M409.2 575.2l1-.2h1.4l1.5.3a1.9 1.9 0 0 1 .9.3 3.8 3.8 0 0 1 .5 1.1 2.4 2.4 0 0 1-.1 1.5c-.1.4-.5.5-1 .4a6.5 6.5 0 0 0-1.4 0 37.7 37.7 0 0 1-7.3.6h-7.9l-10.7.2h-1.9a3.7 3.7 0 0 0-1.6.2 3.6 3.6 0 0 0-.5 1.2 10.1 10.1 0 0 0-.4 1.8 5.4 5.4 0 0 0 0 1.8 4.3 4.3 0 0 1 0 1.6 9.1 9.1 0 0 0 .1 2.3 3.7 3.7 0 0 1 0 2.1c0 .1 0 .3-.1.3a.6.6 0 0 0-.1.4 2.1 2.1 0 0 0 0 1.1 1.7 1.7 0 0 1 0 1c0 .2 0 .3-.1.4l-.3.4a8.2 8.2 0 0 0 .1 2.7l.4.8a4.4 4.4 0 0 1 .1 2 8.1 8.1 0 0 0 0 2.2 2.8 2.8 0 0 1 0 1.3c-.1.3-.2.7-.4 1.2a9.1 9.1 0 0 0 .1 1.7 3.1 3.1 0 0 1 0 1.9 2.6 2.6 0 0 1-.2 1.1 2.8 2.8 0 0 0 0 1.3c.1.4.1.6.2.7s-.1.4-.2.8a16.3 16.3 0 0 0 .1 4.9 13.6 13.6 0 0 1 .1 4.9c0 .2 0 .3-.1.4s-.1.2-.1.4.1.6.2 1.2.3.9.5 1l.6.2.8.2h2a3.4 3.4 0 0 1 2 0 31 31 0 0 0 4.5.1 25.9 25.9 0 0 0 4.4-.3 5.3 5.3 0 0 1 2.2-.1l1.9.3a21.6 21.6 0 0 0 3.6 0l3.3-.4a16.7 16.7 0 0 1 3.9-.1 17 17 0 0 0 3.9-.1l2.4-.4a2.8 2.8 0 0 1 2 .6 2 2 0 0 1 .5 1.7 1.8 1.8 0 0 1-.7 1.3 1 1 0 0 1-.9 0 1.4 1.4 0 0 0-.9 0 18.6 18.6 0 0 1-3.6.3h-7.8a14.5 14.5 0 0 0-3.6.2 7.1 7.1 0 0 1-2.9 0 2.5 2.5 0 0 0-1.2.1l-1.2.2a3.2 3.2 0 0 1-1.7.2h-5.6a13.2 13.2 0 0 0-3.4.2l-3.4.3c-1-.1-1.7.5-1.9 1.7a1.1 1.1 0 0 0 0 .8.9.9 0 0 1 0 .7c-.1 1.3-.2 2.7-.3 4.5a26.3 26.3 0 0 0 .3 4.3 1.3 1.3 0 0 0 .1.6.7.7 0 0 1 .1.5 3.4 3.4 0 0 1-.1 1 2.7 2.7 0 0 0-.3 1.2 3.8 3.8 0 0 0 0 1.5 3.8 3.8 0 0 1 0 1.5c-.1.1-.1.3-.2.4a1 1 0 0 0-.1.3v.7a1.1 1.1 0 0 1 0 .8 2.6 2.6 0 0 0-.1.7 3.2 3.2 0 0 0 .1.7 6.6 6.6 0 0 1 .3 2.1 8.6 8.6 0 0 1-.2 2.3c0 .2 0 .3-.1.4s-.1.2-.1.4a2.8 2.8 0 0 0 .2 1.1 6.6 6.6 0 0 1 .1 1.3 24.3 24.3 0 0 0-.3 2.5 10.7 10.7 0 0 0 .1 3.2 2.6 2.6 0 0 0 2.3 2h.9a1.4 1.4 0 0 1 .9 0l4.2.2a14.7 14.7 0 0 1 3.8.2h2.3l1.2.3 1.6.3h.7a1.1 1.1 0 0 1 .8 0l1.1.2 1.3.3h1.2a11.3 11.3 0 0 1 1.8.3l1.9.5a24.8 24.8 0 0 0 2.7.3 3 3 0 0 1 2 .6 1.6 1.6 0 0 1 .3 1.6 1.9 1.9 0 0 1-1.1 1.2 4.5 4.5 0 0 1-2.3 0l-2.6-.4h-1.2a1.7 1.7 0 0 1-1 0l-1.5-.6a3.9 3.9 0 0 0-1.4-.5 3.2 3.2 0 0 0-1.4-.2 4.9 4.9 0 0 1-1.7 0 1 1 0 0 0-.6-.2h-1.1a2 2 0 0 1-1.1 0 .6.6 0 0 0-.7-.2 5.3 5.3 0 0 0-2.2-.2 8.7 8.7 0 0 1-2.3-.1l-.5-.2h-.5a1 1 0 0 0-.7.2h-.6a.5.5 0 0 1-.5 0l-.6-.2a4.6 4.6 0 0 0-2 .1h-2l-.4-.2h-.5a7.7 7.7 0 0 0-3.7.3 6 6 0 0 1-3.5.1l-.9-.5a1.5 1.5 0 0 1-.4-1.1 1.2 1.2 0 0 1 .8-1.2l1.6-.4 1.1-1a3.8 3.8 0 0 0 .8-1.3 7.8 7.8 0 0 0 .1-2.3 15.7 15.7 0 0 0-.2-2.5l-.3-.4a.7.7 0 0 1-.1-.5 3.2 3.2 0 0 1 .1-.8 6.4 6.4 0 0 1 .2-.9 3.7 3.7 0 0 0-.1-1.8 6.7 6.7 0 0 1 0-2l.3-1c.1-.3.1-.7.2-1.1a16.2 16.2 0 0 0-.1-4.9 16.1 16.1 0 0 1-.1-4.9 10.4 10.4 0 0 1 .3-1.2 6 6 0 0 1 .2-1.2 26.8 26.8 0 0 0 .1-5 16.8 16.8 0 0 1 0-4.5 9.7 9.7 0 0 0 0-1.7c0-.5.1-1.1.1-1.6a2.5 2.5 0 0 0-.1-.8 1.7 1.7 0 0 1-.1-.7.7.7 0 0 1 .1-.5c.1-.1.1-.3.2-.4a2.8 2.8 0 0 0 0-1.3 2.4 2.4 0 0 1 0-1.2 18.5 18.5 0 0 0-.1-2.3 1.4 1.4 0 0 1 0-.9 2 2 0 0 0 .2-.9 19.3 19.3 0 0 0 .1-4.2c-.1-1.5-.2-2.9-.2-4.4V604a19.5 19.5 0 0 0-.2-2.5 5.5 5.5 0 0 1 .1-2.2.6.6 0 0 1 .1-.4c.1 0 .1-.2.1-.3a3.3 3.3 0 0 0 0-1.4 3.3 3.3 0 0 1 0-1.4 12.4 12.4 0 0 0-.1-3.3 11.1 11.1 0 0 1-.1-3.1.5.5 0 0 1 .2-.4c.1 0 .1-.1.1-.3a21.4 21.4 0 0 0 .1-5.7 11.8 11.8 0 0 1 .3-5.4 1.9 1.9 0 0 1 1.2-1.1 7.8 7.8 0 0 1 2.3-.5h5.3l14.3-.3h4.1a13.1 13.1 0 0 0 3.6-.5z"></path><path d="M454.8 572.4a2.9 2.9 0 0 1 1.3-.1l1.4.2a10.1 10.1 0 0 0 2.5.2 5.9 5.9 0 0 1 2.3.4l2 .6a2.3 2.3 0 0 1 1.4 1.1 16 16 0 0 0 2.6 2.6 13.4 13.4 0 0 1 2.7 2.6 11.4 11.4 0 0 1 .9 1.9 4 4 0 0 0 1 1.8 11.4 11.4 0 0 1 1.7 4.5 3.6 3.6 0 0 0 .3.7l.3.6a.6.6 0 0 1 0 .6.6.6 0 0 0 0 .6 21.3 21.3 0 0 0 .9 2.7 14 14 0 0 1 .9 2.9.6.6 0 0 1 0 .6.6.6 0 0 0 0 .6 3 3 0 0 1 .3.9l.3 1.3a3.4 3.4 0 0 1 0 2q-.3 1.3-.6 1.5h-2a.9.9 0 0 1-.6-.6 5.6 5.6 0 0 1-.4-1.2 5.1 5.1 0 0 1-.2-1.3c-.1-.4-.1-.7-.2-1a2.2 2.2 0 0 1-.1-1.4 2.4 2.4 0 0 0 0-1.2l-.6-1.8-.6-1.9a1.6 1.6 0 0 0-.4-.7 1.4 1.4 0 0 1-.2-.6l-.3-1.6a3.4 3.4 0 0 0-.4-1.6l-.6-1.4a11.4 11.4 0 0 1-.9-1.6c-.2-.4-.5-.9-.7-1.4s-.5-1-.7-1.4l-1.2-1.4-1.5-1.4a10.7 10.7 0 0 0-3.4-2.7 4.5 4.5 0 0 0-1.8-.8l-2.1-.3-1.8-.4a3.7 3.7 0 0 0-1.8.2l-.5.2-.6.3-2.8 1a12.2 12.2 0 0 0-2.7 1.5 4.7 4.7 0 0 0-.9.6 3 3 0 0 1-.8.8 12 12 0 0 0-2.1 1.9 29.4 29.4 0 0 0-2 2.6l-.3.3-.3.4a5.4 5.4 0 0 0-1 1.6 5.1 5.1 0 0 1-.9 1.6 15.9 15.9 0 0 0-1.2 2.7 12.3 12.3 0 0 1-1.2 2.6 2.2 2.2 0 0 1-.6.7 3.5 3.5 0 0 0-.5 1.2 3.7 3.7 0 0 1-.8 1.8 6.4 6.4 0 0 0-.8 1.9 19 19 0 0 1-.9 3.6 16.9 16.9 0 0 0-.9 3.4 14.9 14.9 0 0 0-.2 2.1 12.3 12.3 0 0 1-.2 2c-.1.2-.2.3-.2.4l-.2.3a9.8 9.8 0 0 0-.1 3 20.4 20.4 0 0 1 0 3.5c-.1.4-.2.9-.4 1.6a3.4 3.4 0 0 0-.1 2c0 .2.1.3.2.3a.4.4 0 0 1 .1.3 6.5 6.5 0 0 1 .1 3.1 5.6 5.6 0 0 0 0 2.6l.4.9a4.3 4.3 0 0 1 .2 1.1c.1.4.1.7 0 .7s-.1.3 0 .7a2.4 2.4 0 0 1 0 1.2 3.7 3.7 0 0 0 .1 1.1c0 .2.1.3.2.3l.2.2.3 2a6.9 6.9 0 0 0 .3 2 2 2 0 0 0 .2.9l.3 1a2.6 2.6 0 0 1 .2 1.5 8.1 8.1 0 0 0 .1 1.6 13.4 13.4 0 0 0 .7 1.8 9.4 9.4 0 0 1 .6 1.8 7.4 7.4 0 0 1 .3 1.9 16.2 16.2 0 0 0 .4 1.9 3.3 3.3 0 0 0 .7 1.6c.3.6.6 1.1.8 1.6a1.3 1.3 0 0 1 .1.6.6.6 0 0 0 .2.7l.3.5.2.6a.9.9 0 0 1 .1.5.6.6 0 0 0-.1.4 5.5 5.5 0 0 0 .9 1.4 4.7 4.7 0 0 1 .9 1.2 4 4 0 0 1 1 1.5 9.9 9.9 0 0 0 1.1 1.7l.5.4a1 1 0 0 1 .5.6 19.9 19.9 0 0 0 3.2 3.3 11.6 11.6 0 0 0 3.7 2.1l.6.3.8.2 2.6.7a7.8 7.8 0 0 0 3.4.1l1.6-.6a4.4 4.4 0 0 1 1.6-.6l1.8-.9a10.4 10.4 0 0 0 1.9-1.3 12.9 12.9 0 0 0 1.8-1.6l1.6-1.8a16 16 0 0 0 1.1-1.9 9.7 9.7 0 0 0 .8-1.9 3.1 3.1 0 0 0 .3-1.3 3.5 3.5 0 0 1 .3-1.2 6.8 6.8 0 0 1 .7-2 14.1 14.1 0 0 0 .6-2.2 8.8 8.8 0 0 0 0-2.3 11 11 0 0 1 .2-2.6c0-.1 0-.1.1-.2s.1-.1.1-.3a5 5 0 0 0 .1-2.1 1.7 1.7 0 0 1 .2-1.6 1.6 1.6 0 0 1 1.3-.7 3.4 3.4 0 0 1 1.2.6 3.2 3.2 0 0 1 .6 1.9 5.2 5.2 0 0 1 0 2.5l-.2.3c-.1.1-.2.1-.2.2a8.6 8.6 0 0 0-.1 3.2 8.7 8.7 0 0 1 0 2.8.4.4 0 0 1-.1.3.2.2 0 0 0-.2.2c-.4 1.8-.9 3.5-1.3 5.1a16 16 0 0 1-2 4.4l-1.8 2.4-2.3 2.2-.7.5-.6.4h-.5a2.7 2.7 0 0 0-1.2.9 4.2 4.2 0 0 1-1.4.9.6.6 0 0 1-.6 0 .8.8 0 0 0-.7 0l-.7.4a2 2 0 0 1-.8.4h-1.4l-.5.3-.7.2c-.2 0-.3-.1-.3-.2l-.3-.2a5.3 5.3 0 0 0-2.5 0 6.9 6.9 0 0 1-2.5.1 1.1 1.1 0 0 1-.7-.3l-.8-.5h-1.4l-1.3-.5-1.4-.6c0-.1-.1-.2-.2-.4s-.1-.2-.3-.2a2.6 2.6 0 0 1-1.7-.9l-1.6-1.4-.8-.9-.6-.8a2.9 2.9 0 0 0-1.1-1.1l-1.2-.9a5.3 5.3 0 0 1-.8-1.5 6 6 0 0 0-.8-1.6l-1.2-2a10.3 10.3 0 0 1-1.1-2.1 5.3 5.3 0 0 0-.6-1.4l-.6-1.5a3.5 3.5 0 0 1-.3-1.4 4 4 0 0 0-.3-1.5 4.8 4.8 0 0 0-.6-1.8l-.6-1.8a.7.7 0 0 1-.1-.5 1.8 1.8 0 0 0 .1-.6c-.1-.5-.3-1-.4-1.5l-.6-1.5a20.2 20.2 0 0 1-.4-2.6 14.4 14.4 0 0 0-.5-2.4.6.6 0 0 1 0-.6v-.6a13 13 0 0 1-.3-1.3l-.3-1.6-.3-1.5a8.3 8.3 0 0 1-.4-1.5 3.2 3.2 0 0 1-.2-1.4 6.1 6.1 0 0 0-.1-1.4 7.3 7.3 0 0 1-.3-2.2c0-.9 0-1.9-.1-3.1a28.1 28.1 0 0 0-.1-2.9 9.6 9.6 0 0 1 0-2.4 8.6 8.6 0 0 0 .3-1.3 3.7 3.7 0 0 1 .2-1.2 3.7 3.7 0 0 0 0-2.1 5.5 5.5 0 0 1-.1-2.2 17.2 17.2 0 0 0 .4-2.4c.1-.9.3-1.8.4-2.8a19.7 19.7 0 0 1 .7-2.6 9.8 9.8 0 0 0 .6-2.7 4.8 4.8 0 0 1 .5-1.7c.2-.5.3-1.1.5-1.8a4.5 4.5 0 0 1 .6-1.2c.2-.4.3-.8.5-1.3a1.3 1.3 0 0 0 .1-.6c0-.3.1-.5.1-.7l.6-.8a3.5 3.5 0 0 0 .6-.9 9 9 0 0 0 1-2.2 9.3 9.3 0 0 1 .8-2.2 17.4 17.4 0 0 0 1.3-2 19.6 19.6 0 0 1 1.2-2.1 9.4 9.4 0 0 1 1-1 1.9 1.9 0 0 0 .9-1.1l.8-1.2 1.1-1.2a23.6 23.6 0 0 1 4.2-3.3 15.9 15.9 0 0 1 4.9-2.4 7.4 7.4 0 0 1 1.9-.5z"></path><path d="M523.2 572.1a6 6 0 0 1 2.9.2 15.7 15.7 0 0 0 3.2.1l3-.2.9-.2h2.6l2-.2h3.9l1.4-.3h1.8a3.8 3.8 0 0 1 1.6.4c.4.2.7.4.8.8a1.5 1.5 0 0 1-.2 1.5 2 2 0 0 1-1.2.8 7.8 7.8 0 0 1-2.6.2l-2.4-.2a19.7 19.7 0 0 0-2.4-.3 10.5 10.5 0 0 0-2.4.3l-3.8.5a18.1 18.1 0 0 1-4.2-.1 2.4 2.4 0 0 0-1-.2l-1.1.3h-4.8l-.9-.2c-.2-.1-.6 0-1.3.1s-1.2.3-1.3.5-.1.2 0 .5a2.2 2.2 0 0 1-.1.8 3.9 3.9 0 0 1-.3 1.4 7.1 7.1 0 0 0-.1 1.4 15.7 15.7 0 0 0 .3 2.7 8 8 0 0 1 0 3.1 2.4 2.4 0 0 1-.2.8 1.4 1.4 0 0 0-.2.7 2.8 2.8 0 0 0 .1 2 3.7 3.7 0 0 1 .2 1.8l-.3 1a1.9 1.9 0 0 0-.2.7 5.1 5.1 0 0 0 .2 1.3 2 2 0 0 1 .1 1.3l-.3.8a1.7 1.7 0 0 0 0 1 2.4 2.4 0 0 1 0 1.2.9.9 0 0 1-.1.5c-.1.1-.1.2-.1.4a7.8 7.8 0 0 0 .2 1.4 12.1 12.1 0 0 1 .5 1.4 22.3 22.3 0 0 1 .2 4.6 29.6 29.6 0 0 0 .2 4.5 2.8 2.8 0 0 1 0 1.3 2.2 2.2 0 0 0-.2 1.2 2.3 2.3 0 0 0 .3.9 18.8 18.8 0 0 1-.2 4 1.4 1.4 0 0 0 0 .9 1.4 1.4 0 0 1 0 .9l-.3.8v.5q.1.5 0 .6c-.1.8-.1 1.5-.2 2.1a6.8 6.8 0 0 0 .3 1.9l.3.8a1.6 1.6 0 0 1 .1 1 6.9 6.9 0 0 1-.4 1 1.1 1.1 0 0 0 .1.5 1.7 1.7 0 0 1-.1.7.8.8 0 0 1-.1.7.9.9 0 0 0-.1.5 1.1 1.1 0 0 0 .3.8 1.6 1.6 0 0 1 .3.9 4.5 4.5 0 0 1-.2.8l-.3 1a7.6 7.6 0 0 0 0 3 8.2 8.2 0 0 1 .1 3.1 6 6 0 0 0 .1 2.3c0 .4.1 1 .1 1.6a12.8 12.8 0 0 0-.1 1.9c0 .7.1 1.3.1 1.9a4.3 4.3 0 0 1 0 1.6 2.9 2.9 0 0 0-.2.9l-.3.9a2.9 2.9 0 0 0 0 1.3 5.7 5.7 0 0 1 .1 1.3c-.2.8-.3 1.3-.4 1.6a3 3 0 0 0 .2 1.5 14.1 14.1 0 0 1 .3 2.8 8.8 8.8 0 0 0 .3 2.4 2.4 2.4 0 0 1 0 1.2 2.3 2.3 0 0 0-.2 1.1 5.3 5.3 0 0 1-.1 1.2 1.9 1.9 0 0 1-.5 1c-.9.5-1.5.4-2-.3a3.8 3.8 0 0 1-.9-1.8 4.9 4.9 0 0 1 0-2.4 5 5 0 0 0 .2-2 21.1 21.1 0 0 1-.4-3.3 34.9 34.9 0 0 1 .2-3.5 15.1 15.1 0 0 0 .1-4.2 13.4 13.4 0 0 1 0-4 28.9 28.9 0 0 0 .2-4.4c0-1.7-.1-3.3-.1-4.8s-.1-3.2-.1-4.9a30.3 30.3 0 0 1 .2-4.4 16 16 0 0 0-.1-4.9 12.9 12.9 0 0 1-.1-4.8.7.7 0 0 1 .1-.5.6.6 0 0 0 .1-.4 2.3 2.3 0 0 0-.2-1.4c-.1-.5-.3-.9-.4-1.3a16.4 16.4 0 0 1-.2-2.3 8.7 8.7 0 0 1 .1-2.3 8 8 0 0 1 .4-1.8 2 2 0 0 0 .1-1.7 61.2 61.2 0 0 1-.9-7.6 37.3 37.3 0 0 1 .3-8.3 3.7 3.7 0 0 0 0-2.1 6.2 6.2 0 0 1-.1-1.9l.3-1.2.3-1.1a11.4 11.4 0 0 0 0-3.7 30 30 0 0 0-.5-3.3l-.3-.5-.3-.5h-1.5l-2.7-.2a12.4 12.4 0 0 0-2.7.3 22.9 22.9 0 0 1-5.3.3 16.9 16.9 0 0 0-5.1.2h-.4c0 .1-.2.2-.3.2a.6.6 0 0 1-.6 0h-.7l-3.6.6a13.2 13.2 0 0 1-3.8.2 2.6 2.6 0 0 1-1.1-1 .9.9 0 0 1 .2-1.3 2.8 2.8 0 0 1 2.3-.8l3.2-.4.8-.4a2 2 0 0 1 1.3.1 1.7 1.7 0 0 0 1.2-.1.5.5 0 0 0 .4-.2h.4a3.3 3.3 0 0 1 1.4 0h1.3a20.3 20.3 0 0 1 4.3-.2 23 23 0 0 0 4.5-.5 32.8 32.8 0 0 1 6-.5q3.6.1 6.6 0h2.3z"></path><path d="M555.7 571.9l1.3-.2a5.4 5.4 0 0 1 1.8 0 21.2 21.2 0 0 0 5 .2 43.4 43.4 0 0 1 5.1 0h3.3a8.7 8.7 0 0 0 2.8-.1 5.3 5.3 0 0 1 2.8-.1h.8a1.7 1.7 0 0 0 1 0 1.7 1.7 0 0 1 1 0h3l3.6-.4a3.9 3.9 0 0 1 2.6-.4 4.6 4.6 0 0 0 2.3-.1l1.3-.4 1.6-.4h1.5a1.3 1.3 0 0 1 1 .9 1.9 1.9 0 0 1-.1 1.3 1.3 1.3 0 0 1-.8.8.7.7 0 0 1-.8.2h-1.3l-.4.3a1.4 1.4 0 0 1-.9 0h-1.3c0 .1-.3.1-.6.3a3.1 3.1 0 0 1-1.9 0 4.1 4.1 0 0 0-2.2 0l-1.6.5a2.7 2.7 0 0 1-1.5-.1 13.1 13.1 0 0 0-2 0l-2.3.4h-.8c-.3-.1-.6-.1-.7.1l-.4.8a1.9 1.9 0 0 0-.4 1 .8.8 0 0 0 .2.5c0 .1.1.3.1.4a2 2 0 0 1-.2.9 2 2 0 0 0-.4.8 2.1 2.1 0 0 0 0 1.1 2 2 0 0 1 0 1.1 2.1 2.1 0 0 1 .1 1.4 4.8 4.8 0 0 0 0 1.7c.2.7.3 1.4.5 2.1a7.4 7.4 0 0 1 0 2.1 1.5 1.5 0 0 1-.3.6 1.1 1.1 0 0 0-.2.7 5.6 5.6 0 0 1 .4.8 1.7 1.7 0 0 1 .1 1.2c0 .1-.1.3-.2.7a2.3 2.3 0 0 0 .1 1.4 2.6 2.6 0 0 1-.1 1.5 8.3 8.3 0 0 1-.3 2.2 5 5 0 0 0-.1 2.1 4.5 4.5 0 0 0 .3 1.6 8.3 8.3 0 0 1 .4 1.5 14.1 14.1 0 0 1-.1 2 16.2 16.2 0 0 1-.3 2l.3 1.4a2.8 2.8 0 0 1 0 1.3c0 .2-.1.4-.4.7a8.7 8.7 0 0 0-.1 1.9 10.6 10.6 0 0 0 .3 1.8 6.2 6.2 0 0 1 .1 1.3v1.1a9.2 9.2 0 0 0 .1 1.6c0 .5.1 1.1.1 1.5v1.5c0 .3 0 .5-.1.6a8.1 8.1 0 0 0 0 3.1 16 16 0 0 1 0 3.1c0 .1-.1.2-.1.3s-.1.1 0 .2a12.5 12.5 0 0 0 0 3.9 18.1 18.1 0 0 1 .2 3.8 5.5 5.5 0 0 1-.1.9c0 .1.1.4.2.8a3.6 3.6 0 0 1 .2 1.5 6.6 6.6 0 0 0 .1 1.5 3.9 3.9 0 0 1 .3 1.1 3.9 3.9 0 0 1 .3 1.3 1.9 1.9 0 0 1-.2 1.3 2.1 2.1 0 0 0-.2 1.3l.2.7v.6a2.6 2.6 0 0 0 .1 1.5 5 5 0 0 0 .3 1.2 9.9 9.9 0 0 1 .3 2.4 5.8 5.8 0 0 0 .2 2.3l.3.7a.8.8 0 0 1 .1.8 11.1 11.1 0 0 1-.2 1.7 3.7 3.7 0 0 0 .2 1.8 25.6 25.6 0 0 1 .5 2.7 1.8 1.8 0 0 0 1.8 1.5 11.2 11.2 0 0 0 2.6 0l3-.4 3.1-.4h2.8a4 4 0 0 1 2.2.9c.2.8.2 1.4-.1 1.7a2.3 2.3 0 0 1-1.4.7h-4a10.9 10.9 0 0 0-2.6.3 6.3 6.3 0 0 1-2.4-.1 9 9 0 0 0-2.1.2q-1.5.1-1.8 1.2a5.3 5.3 0 0 0-.1 1.4 15.5 15.5 0 0 1 .1 2.2 14.1 14.1 0 0 1 .1 2c0 .6-.1.9-.4 1a1.9 1.9 0 0 1-1.5 0 2.3 2.3 0 0 1-1.1-.7c-.1-.1-.1-.2-.2-.5a.8.8 0 0 0-.2-.5 8.3 8.3 0 0 1-.4-1.5q-.1-.9-.3-1.5a2 2 0 0 1-.1-1.3c.1-.5.1-.9-.1-1.1a1 1 0 0 0-.8-.5l-.9-.3a11.6 11.6 0 0 0-3.2.1 13.6 13.6 0 0 1-3.5.1l-1.4-.2-1.5-.2a9.6 9.6 0 0 0-1.7 0 6.2 6.2 0 0 1-1.8-.2h-1.1l-1.1-.2h-3.2a2.5 2.5 0 0 1-1.3-.5c-.4-.2-.5-.7-.4-1.4s.6-.8 1.3-1.2a2.3 2.3 0 0 1 1.9-.3 9 9 0 0 0 2.5.3l2.8.4h1.8l.9-.2h.5a7.6 7.6 0 0 0 2.6 0 10.4 10.4 0 0 1 2.5 0l1 .2h1.4a2.2 2.2 0 0 0 1.2-.2.7.7 0 0 0 .6-.7.8.8 0 0 0 0-.7.9.9 0 0 1 0-.7 6.6 6.6 0 0 1 .4-1.5 2 2 0 0 0-.1-1.3c0-.1 0-.3-.1-.3a.6.6 0 0 1-.1-.4 1.7 1.7 0 0 1 0-1 3.1 3.1 0 0 0-.1-1c-.1-.4-.3-.9-.4-1.4a13.6 13.6 0 0 0-.4-1.7c-.1-.4-.1-.6-.1-.5a2.8 2.8 0 0 1 .1-.5 26.2 26.2 0 0 0-.1-2.7c-.2-1-.3-2.1-.5-3.2s-.3-2.2-.4-3.3a8.7 8.7 0 0 1 .1-2.8 9.2 9.2 0 0 0 .1-2.4 26.4 26.4 0 0 1-.2-2.9 23.6 23.6 0 0 1-.2-3 12.2 12.2 0 0 0-.1-2.9 4.4 4.4 0 0 1-.3-1.5 3.3 3.3 0 0 1 0-1.4 17.7 17.7 0 0 1 .4-2 6.6 6.6 0 0 0-.1-2.4c-.1-.4-.1-1-.2-1.8s.1-1.3.1-1.7a7.1 7.1 0 0 0-.1-1.4 7.1 7.1 0 0 1-.1-1.4c0-.5.1-1.2.1-2.1a5.8 5.8 0 0 0 0-1.9 4.3 4.3 0 0 0-.1-.5.8.8 0 0 1-.2-.4 2.9 2.9 0 0 1 .2-.9l.3-1a5.6 5.6 0 0 1-.3-1.5 3.7 3.7 0 0 0 .2-.9 1.1 1.1 0 0 0 0-.8 2.9 2.9 0 0 1 0-1.5 10.1 10.1 0 0 0-.2-3 12.8 12.8 0 0 1-.2-2.6 1.6 1.6 0 0 0 .3-.8 4.9 4.9 0 0 0-.1-1.2 6.5 6.5 0 0 1 0-1.4c0-.1.1-.3.1-.4l.2-.2a12.3 12.3 0 0 0-.2-3.8 11.6 11.6 0 0 1-.1-3.7 12.3 12.3 0 0 0 .2-1.3 3.3 3.3 0 0 0 0-1.4q-.1-.9-.3-1.5a4.2 4.2 0 0 1 0-1.6 14 14 0 0 0 0-2.9 4.1 4.1 0 0 0-.9-2.2 3.1 3.1 0 0 0-2-.7 18.2 18.2 0 0 0-3.3 0l-3.7.3a14.7 14.7 0 0 1-3 0 6.7 6.7 0 0 0-2 0 5.6 5.6 0 0 1-1.7.2l-.5-.2a2.2 2.2 0 0 0-1.4-.1.9.9 0 0 1-1.1-.5 1.7 1.7 0 0 1 .1-1.6z"></path><path d="M629.5 568.4a6 6 0 0 1 1.8-.4h1.8c.2 0 .3.1.3.2h.2a4.1 4.1 0 0 0 1.9 0h1.6l2 .8a4.1 4.1 0 0 1 1.7 1.2 2.3 2.3 0 0 0 1.1 1.1 2.1 2.1 0 0 1 1.1 1c.2.1.4.3.6.3l.6.4 1.8 2.5a11 11 0 0 1 1.7 2.8c.7 1.6 1.4 3.1 2.2 4.6s1.5 3.1 2.2 4.8l.7 1.3a.9.9 0 0 0 1.2.5 3.8 3.8 0 0 0 1.9-1.3 9 9 0 0 1 1.9-1.5 4.8 4.8 0 0 0 1.5-1.4 10.6 10.6 0 0 0 1-1.7 3.3 3.3 0 0 1 1-1.1 1.4 1.4 0 0 1 1.3-.4 1.4 1.4 0 0 1 1.1.5 2.1 2.1 0 0 1 .8 1.1 3 3 0 0 1-.5 1.5l-.9 1.4-1 1.2-.9.9-.5.3-.4.2-.5.2-.4.6a2.1 2.1 0 0 1-.4.6l-2.2 1.3a3.3 3.3 0 0 0-1.8 1.9v1.5q.2.3.3.3l.5.3a.7.7 0 0 1-.1.5.6.6 0 0 0 .1.4c0 .2 0 .3.1.4s.2.1.2.3.5 2 .7 3.2a33.8 33.8 0 0 0 .8 3.4.8.8 0 0 1 0 .7 1.5 1.5 0 0 0 .1.7 1 1 0 0 0 .2.6 6.5 6.5 0 0 1 .2 3.1 7.9 7.9 0 0 0 .2 3.1l.2.6-.2.7a2.7 2.7 0 0 0 .1 1.5 3 3 0 0 1 .1 1.6 15.3 15.3 0 0 0-.3 3l-.2.6.2.6a.6.6 0 0 1-.1.4 1.2 1.2 0 0 0-.2.7 4.1 4.1 0 0 0 0 1.6 4.3 4.3 0 0 1-.1 1.9 5 5 0 0 1-.4 1.3 5 5 0 0 0-.2 1.2.6.6 0 0 0 0 .6v.8a2 2 0 0 1-.2.9l-.4 1.1a2.5 2.5 0 0 1-.2 1.2l-.5 1.2a1.7 1.7 0 0 0 0 1 2.8 2.8 0 0 1-.1.9 13.4 13.4 0 0 1-.7 2.7 13.4 13.4 0 0 0-.7 2.7 3 3 0 0 1-.4 1 3 3 0 0 0-.4 1c0 .7-.1 1.2-.1 1.6a15.7 15.7 0 0 0-.3 1.6 5.8 5.8 0 0 1-.8 2.3 12.5 12.5 0 0 0-.9 2.5 15.7 15.7 0 0 1-1 2.6 23.9 23.9 0 0 1-1.3 2.1 7.5 7.5 0 0 1-1.2 1.4l-1.2 1.4a14.5 14.5 0 0 1-1 1.8l-1.4 1.5-1.7 1.8-.6.7a1.3 1.3 0 0 1-.6.5l-1.1.6a3.1 3.1 0 0 0-1 .8l-1.6 1.2-1.5.8-1.7.2a6.5 6.5 0 0 0-2 .2 8.5 8.5 0 0 1-2.9.4 15.5 15.5 0 0 1-3.1-.3h-.7c-.2 0-.4.1-.6 0l-.4-.3a.9.9 0 0 0-.6-.4l-.7-.2h-.5l-.9-.3-.8-.3a1 1 0 0 1-.4-.5l-.4-.6h-.5a2.6 2.6 0 0 1-1.3-.8 11.4 11.4 0 0 0-1.1-1.1 2.4 2.4 0 0 0-1-1 2.8 2.8 0 0 1-1-.9l-.8-1.2a14.7 14.7 0 0 1-1-1.3 22.4 22.4 0 0 1-2-3.8c-.6-1.4-1.1-2.8-1.7-4l-.7-1.8-.9-2a8.8 8.8 0 0 1-.5-1.5l-.3-1.5a2.7 2.7 0 0 1-.2-1.1l-.4-.8a14.3 14.3 0 0 1-.4-2.6 9.5 9.5 0 0 0-.4-2.6 3.2 3.2 0 0 1-.1-1.4 3.3 3.3 0 0 0 0-1.4 1.4 1.4 0 0 1-.2-.6 4.5 4.5 0 0 0-.1-1.1l-.3-.4a.9.9 0 0 1-.1-.5c0-.1 0-.1.1-.2s.1-.1.1-.3a3.3 3.3 0 0 0 0-1.4 3.3 3.3 0 0 1 0-1.4c0-.7.1-1.2.1-1.5a3 3 0 0 1 .2-1.5 6.6 6.6 0 0 0-.1-2 8.3 8.3 0 0 1 .1-2.2l.4-.4a6.7 6.7 0 0 0 0-2 7.4 7.4 0 0 1 0-2.1q.2-.7.3-1.8a11.3 11.3 0 0 0 .3-1.8 9.2 9.2 0 0 0 0-3.3 6.8 6.8 0 0 1-.1-2.8l.4-.5a8.1 8.1 0 0 0 0-2.2 7.4 7.4 0 0 1 0-2.1.3.3 0 0 1 .1-.2c.1 0 .2-.2.2-.3v-.9a3.1 3.1 0 0 1-.2-.8c.1-.4.2-1 .4-1.6s.2-1.1.3-1.5a1.5 1.5 0 0 0-.1-.7v-.6a7.8 7.8 0 0 1 .5-1.4l.3-1.4a6.2 6.2 0 0 0 .1-1.3 2.4 2.4 0 0 1 0-1.2l.6-1.8a16.6 16.6 0 0 0 .6-1.6 2.6 2.6 0 0 0 .3-1.1l.3-1.1a.7.7 0 0 1 .1-.5l.3-.5.3-1.1a1.3 1.3 0 0 1 .3-.8 18 18 0 0 1 1.2-2.5l2.4-3.7a11.7 11.7 0 0 1 2.9-3.4l2.7-2a18.2 18.2 0 0 1 2.7-1.5l.7-.2.6-.2 1.1-.4 1.3-.5a2.4 2.4 0 0 1 1.2-.3zm-17.8 28.5a2 2 0 0 0 .1.7.6.6 0 0 1 0 .6c0 .2 0 .3-.1.4a.4.4 0 0 0-.1.3 1.1 1.1 0 0 0-.1.6 1.1 1.1 0 0 1 .1.5l-.3.8a1.4 1.4 0 0 0-.2.7 3.5 3.5 0 0 1 .1.6 1.1 1.1 0 0 1 .1.5l-.3.7a2.3 2.3 0 0 0-.2 2.3 2.9 2.9 0 0 1 .1 1.6 1.1 1.1 0 0 1-.3.6 1.2 1.2 0 0 0-.2.8 6.6 6.6 0 0 0 0 2.8 14.1 14.1 0 0 1 0 2.9c0 .2-.1.3-.3.5a9.6 9.6 0 0 0 0 2.4 9.6 9.6 0 0 1 0 2.4.4.4 0 0 1-.1.3.5.5 0 0 0-.2.4 17.7 17.7 0 0 0 .1 2.2 6 6 0 0 1-.1 2.3c0 .1 0 .2-.1.2a.8.8 0 0 0-.2.4c-.1.7-.2 1.2-.2 1.4a8.4 8.4 0 0 1-.2 1 8.1 8.1 0 0 0-.1 1.7 13.6 13.6 0 0 1 .2 2l.3 2a11.3 11.3 0 0 0 .2 1.4 4.7 4.7 0 0 1 .2 2 3.8 3.8 0 0 0 .1 2.1l.2.5a1.7 1.7 0 0 1 0 1 1.1 1.1 0 0 0 .2.8q.1.3.3.3v.2c.2.8.3 1.6.5 2.3a17.4 17.4 0 0 0 .5 2.2 12.2 12.2 0 0 0 .7 1.7 50.4 50.4 0 0 0 2.9 6.6 36.7 36.7 0 0 0 3.7 5.7l1.3 1.2a3.8 3.8 0 0 0 1.3.8.8.8 0 0 1 .4.4l.5.5 2.1 1.3 2.2.9.9.2.7.2h2.3a10.1 10.1 0 0 0 2.7-.3 6.7 6.7 0 0 0 2.3-1 10.4 10.4 0 0 0 1.9-1.3 10 10 0 0 0 2.4-2.2l1.9-2.1a5.8 5.8 0 0 0 1.3-1.1 18.5 18.5 0 0 0 1.4-1.4l.7-1.2.8-1.1a18.9 18.9 0 0 0 1-2.1l1.1-2.1a20.7 20.7 0 0 0 1.5-4.1 15.7 15.7 0 0 1 .3-1.6c0-.4.1-.9.1-1.6a8.3 8.3 0 0 1 .8-2.2 11.8 11.8 0 0 0 .7-2 1.9 1.9 0 0 0 .1-.8 2.8 2.8 0 0 1 .1-.9 9 9 0 0 1 .6-2.2 16.6 16.6 0 0 0 .6-2.1c.1 0 .2-.2.3-.7a11.5 11.5 0 0 1 .2-1.6c.1-.6.1-1.2.2-1.7a6.6 6.6 0 0 0 .1-1.1c.2-1.1.3-1.9.4-2.4l.3-1.7a4.4 4.4 0 0 0 .1-.9 2.2 2.2 0 0 0 0-1.6 4.7 4.7 0 0 1-.2-1.6 8.8 8.8 0 0 0 .4-2 8.9 8.9 0 0 0 .3-1.9 3 3 0 0 0-.1-1.6 2.6 2.6 0 0 1 .1-1.5v-.3c.1-.1.1-.2.1-.4a.4.4 0 0 0 0-.5 3 3 0 0 1-.3-.9 2 2 0 0 1-.1-1.3 2.6 2.6 0 0 0-.1-1.5l-.5-1.2a5 5 0 0 1-.4-1.3c-.2-.7-.4-1.4-.5-1.9a.6.6 0 0 1 0-.6.6.6 0 0 0 0-.6l-.3-.7a1.5 1.5 0 0 1-.4-.8 2 2 0 0 1-.2-1.1 2.2 2.2 0 0 0-.2-1.2l-.5-1c-.3-.5-.5-.8-.6-.8a.6.6 0 0 0-.9.2c-.3.3-.4.5-.6.6l-1 .4-1.2.4-1.1.4a1.8 1.8 0 0 1-1 .4 1.2 1.2 0 0 1-.8.1h-.6l-.9.3a2.3 2.3 0 0 1-1 .4h-.7a1.1 1.1 0 0 0-.8.3l-2.9.3a11.6 11.6 0 0 1-3.2-.1 2.9 2.9 0 0 0-1.6 0 2.4 2.4 0 0 1-1.4.2l-1.2-.3-1.3-.3h-1.6l-.9-.4-1-.4a6.5 6.5 0 0 1-2.2-.8 6.7 6.7 0 0 0-2.1-1h-.4c0 .1-.1.1-.2 0a2.1 2.1 0 0 1-1.1-.7 4.1 4.1 0 0 0-1.1-.7h-.8c0-.1-.2-.2-.4-.4l-1.5-.4-1.3-.5-.6-.9c-.2-.3-.5-.4-.9-.1s-.6.7-.7 1.5-.3 1.8-.4 2.4zm16.7-25.4l-1.2.7a5.9 5.9 0 0 1-1.4.6c-.2.2-.5.4-.6.6l-.7.4a11 11 0 0 0-6.3 5.4c-.2.2-.4.3-.5.5l-.5.4a5.5 5.5 0 0 0-.8 1.5 10.7 10.7 0 0 1-.7 1.5 10.7 10.7 0 0 0-.9 1.9 6.5 6.5 0 0 0-.4 1.3l-.3 1.4v.8a2.3 2.3 0 0 0 .7.8l1.1 1 1.4.8 1 .4 1.5.6a2.3 2.3 0 0 0 1.2.6 25.1 25.1 0 0 1 2.8 1.3 11.2 11.2 0 0 0 2.5 1.1h.5a11.1 11.1 0 0 1 2.2.7 11.1 11.1 0 0 0 2.2.7 1.7 1.7 0 0 0 1.4 0 2 2 0 0 1 1.3-.1l.5.3a6.5 6.5 0 0 0 2.8 0l2.4-.6h1a1.1 1.1 0 0 0 .8-.1 2.1 2.1 0 0 0 1.1-.4l1.1-.4a1.5 1.5 0 0 0 1-.5l2.5-.9a6.8 6.8 0 0 0 2.1-1 5.9 5.9 0 0 1 .4-.8 2.4 2.4 0 0 0 0-1.2l-.3-.4c-.2-.1-.2-.3-.2-.6v-.6a6 6 0 0 0-.6-1.1 4.1 4.1 0 0 1-.7-1.1 6.1 6.1 0 0 0-.7-1.4 3.4 3.4 0 0 1-.6-1.2 8.5 8.5 0 0 1-.6-1.9 19.7 19.7 0 0 0-1.6-2.6l-1.7-2.5-1.2-1.8a6.2 6.2 0 0 0-1.4-1.4l-2.4-1.4a7.9 7.9 0 0 0-2.5-1.2h-1.7a1.2 1.2 0 0 0-1 .1 2.1 2.1 0 0 1-1.1 0h-2.8z"></path><path d="M680.4 581a3.3 3.3 0 0 0-.4 1.5 8 8 0 0 1-.4 1.8 4 4 0 0 0 .1 1.5 4.8 4.8 0 0 1 0 1.7.2.2 0 0 1-.2.2c0 .1-.1.2-.1.4a3.3 3.3 0 0 0 0 1.4 3 3 0 0 1 .1 1.3c0 .1-.1.3-.1.4a.2.2 0 0 0-.2.2.8.8 0 0 0 .2.6.7.7 0 0 1 .1.5.4.4 0 0 1-.1.3c-.1 0-.1.1-.1.3a1.1 1.1 0 0 0 0 .8 1.7 1.7 0 0 1 0 1l-.4.5a12.2 12.2 0 0 0 0 3.3 16.3 16.3 0 0 1-.1 3.2c0 .2 0 .3-.1.3s-.2.1-.2.2a6.2 6.2 0 0 0 .1 1.3 1.5 1.5 0 0 1 0 1.3 5.3 5.3 0 0 0-.3 1.1 10.5 10.5 0 0 0-.2 1.3c0 .1.1.3.2.3a.6.6 0 0 1 .1.4.5.5 0 0 1 0 .5 1.2 1.2 0 0 0-.2.7 6.1 6.1 0 0 0-.1 1.4 5 5 0 0 1-.1 1.7q-.2.3-.3.3c-.1.1-.1.1-.1.2a3.3 3.3 0 0 0 0 1.4 3.6 3.6 0 0 1-.2 1.5c-.2.8-.3 1.8-.5 2.8s-.3 2-.4 2.9a1.9 1.9 0 0 0-.1.8 1.3 1.3 0 0 1 .1.6l-.2.3-.2.2a9.7 9.7 0 0 0-.1 2.4 8.1 8.1 0 0 1 0 2.2 2.8 2.8 0 0 0 0 1.3.4.4 0 0 1 0 .5 1.5 1.5 0 0 0-.2.8.7.7 0 0 0-.1.5c0 .3.1.4.1.6a1.5 1.5 0 0 1-.3.7c-.2.2-.1.4.1.7a.4.4 0 0 0 .2.4v.8a1.6 1.6 0 0 0 0 .7 9.2 9.2 0 0 0 .3.9 2 2 0 0 1 0 1.1 3.9 3.9 0 0 1 0 1.1c0 .6-.1 1.2-.1 1.9a11.5 11.5 0 0 1-.1 1.9v.9c0 .2 0 .3.1.4v.3l-.3.6a1.4 1.4 0 0 0-.2.6 4.2 4.2 0 0 0-.1 1.6 4.4 4.4 0 0 1-.2 1.6c0 .1 0 .2-.1.2s-.1.2-.1.3a7.6 7.6 0 0 0-.1 2.6 5.9 5.9 0 0 1-.1 2.3 1 1 0 0 0-.2.6c.1.1.1.3.2.6a6.6 6.6 0 0 1 .1 1.5 7.5 7.5 0 0 1-.5 1.6 3.1 3.1 0 0 1-.9 1.1 1.8 1.8 0 0 1-1.6 0 1 1 0 0 1-.7-.8 5.1 5.1 0 0 1-.2-1.3 6.1 6.1 0 0 1 .1-1.4 5.6 5.6 0 0 1 .2-1 5.3 5.3 0 0 0 0-2.5 6 6 0 0 1-.1-2.3.4.4 0 0 1 .1-.3c.1-.1.2-.2.2-.3a4.2 4.2 0 0 0 .1-1.6 8.1 8.1 0 0 1 .1-1.6 3.9 3.9 0 0 0 .2-.6 9.7 9.7 0 0 0 0-3.4 8.2 8.2 0 0 1-.1-3.1v-1.1a16.4 16.4 0 0 1 .2-2.2c0-.8.1-1.5.1-2.2a2.9 2.9 0 0 1 .2-1.2 9.8 9.8 0 0 0 .1-2.5 9.6 9.6 0 0 1 0-2.4.5.5 0 0 1 .2-.4.1.1 0 0 0 .1-.1 11.5 11.5 0 0 0 .1-2.6 11.3 11.3 0 0 1 0-2.6l.4-.9a8.1 8.1 0 0 1 .3-1.1 2.5 2.5 0 0 0-.1-.8 1.4 1.4 0 0 1 0-.9l.3-.5a3.4 3.4 0 0 0-.1-1 2.7 2.7 0 0 1 0-.9c0-.2.1-.3.2-.3s.1-.2.1-.4a1.1 1.1 0 0 0 0-.8 2.8 2.8 0 0 1-.1-.9c0-.1.1-.2.2-.3v-.2a7.7 7.7 0 0 0 .2-1.5 2.9 2.9 0 0 1 .1-1.3 2.6 2.6 0 0 1 .3-.7 8.6 8.6 0 0 0-.1-1.5 2.2 2.2 0 0 1 0-1.6c0-.1 0-.2.1-.2s.2-.2.2-.3a2.2 2.2 0 0 0-.1-.8 1.4 1.4 0 0 1 0-.9.3.3 0 0 1 .1-.2c.1-.1.2-.2.2-.3a14.8 14.8 0 0 0 .1-2.1 5.4 5.4 0 0 1 0-2.2c0-.1.2-.2.4-.5a2.8 2.8 0 0 0 0-1.8 4.4 4.4 0 0 1-.1-2l.3-.6a3.7 3.7 0 0 0-.1-1.8 3.7 3.7 0 0 1 0-1.8.4.4 0 0 1 .1-.3c.1-.1.2-.2.2-.3a10.9 10.9 0 0 0-.1-1.8 3.1 3.1 0 0 1 0-1.9c.1-.3.1-.6.2-1a10.4 10.4 0 0 1 .3-1.2 5 5 0 0 0-.1-2.1 4.1 4.1 0 0 1 0-2.2v-.2c.1 0 .1-.1.1-.3a2.4 2.4 0 0 0 0-1.2 2 2 0 0 1 0-1.1 1.5 1.5 0 0 1 .3-.6 3.6 3.6 0 0 0 .2-1.1 5 5 0 0 1 .3-1.3c.2-.7.3-1.5.5-2.3a1.5 1.5 0 0 1 1.5-1.4 2.5 2.5 0 0 1 1.6.6 3.3 3.3 0 0 1 1 1.5 10.3 10.3 0 0 1 .7 2.1l.6 1.9.5 1.7a5.8 5.8 0 0 0 .5 1.4 12.3 12.3 0 0 0 .4 1.8l.9 3.6a31 31 0 0 0 1 3.6c.3 1 .5 1.6.5 1.7v.7c.1.1.1.4.2.7a11.9 11.9 0 0 0 .8 2 6.2 6.2 0 0 1 .7 1.9l.6 2.4c.2.8.4 1.6.7 2.5a2.9 2.9 0 0 1 .2 1.2 3.3 3.3 0 0 0 .4 1.3 7.7 7.7 0 0 0 .7 1.6 8 8 0 0 1 .8 1.6 9.5 9.5 0 0 0 .5 1.8 7.5 7.5 0 0 0 .7 1.8l.3.5a.8.8 0 0 1 .2.4 1.4 1.4 0 0 1 .2.7c0 .2 0 .5.1.6a5.4 5.4 0 0 0 .6 1.1 2.1 2.1 0 0 1 .6 1 2.6 2.6 0 0 1 .3 1.1 2.3 2.3 0 0 0 .3 1.1c.5 1.2 1.1 2.6 1.6 4.1s.9 2.8 1.4 4.1a14.7 14.7 0 0 0 1 2.2 13.1 13.1 0 0 1 .8 2.1 6.9 6.9 0 0 0 1.5 2.8 6.9 6.9 0 0 1 1.2 2.9c.1.1.1.3.1.6a1.1 1.1 0 0 0-.1.5 9.1 9.1 0 0 0 .7 1.4 4.8 4.8 0 0 1 .8 1.6c0 .1 0 .2-.1.2a.6.6 0 0 0 .1.4l.6 1.3.6 1.4a20.6 20.6 0 0 1 1.2 3.5 20.6 20.6 0 0 0 1.2 3.5l.8 2.3q.5 1.2.9 2.7c.2.5.4.7.5.7l.6-.9a3.1 3.1 0 0 0 .2-.8 5.6 5.6 0 0 0 .1-.7 5.4 5.4 0 0 0 .5-1.1 3.4 3.4 0 0 0 .4-1.2 13.3 13.3 0 0 0 .3-2.1 9 9 0 0 1 .4-1.9l.2-.3.2-.3c0-.4.1-.7.1-1a3.8 3.8 0 0 1 .1-1c.1-.7.3-1.5.4-2.6a6.1 6.1 0 0 0 .5-1.2 5.6 5.6 0 0 0 .4-1.2 4.4 4.4 0 0 0 .2-1.5 3.3 3.3 0 0 1 0-1.4c.2-.7.3-1.3.5-2l.6-1.9a1.3 1.3 0 0 0-.1-.6 1.5 1.5 0 0 1 .1-.7c0-.2 0-.3.1-.3s.1 0 .1-.2a1.5 1.5 0 0 0 .1-.7 1.7 1.7 0 0 1-.1-.7l.3-1.3a6.1 6.1 0 0 0 .5-1.2v-.5c-.1-.1-.1-.2 0-.4a5 5 0 0 1 .4-1.3 7.9 7.9 0 0 0 .3-1.3 2.5 2.5 0 0 0 .2-1.5 2.3 2.3 0 0 1 .2-1.4c0-.4.1-.9.1-1.3l.3-1.5a17 17 0 0 1 1-3.7 12.4 12.4 0 0 0 1.1-3.6l.3-1.8a5.5 5.5 0 0 1 .3-1.7 8.3 8.3 0 0 1 .6-2.1 14.2 14.2 0 0 0 .7-2.2 2.2 2.2 0 0 0 .1-.8 2.8 2.8 0 0 1 .1-.9l.6-1.7a8.5 8.5 0 0 0 .4-1.7 5.2 5.2 0 0 0 .2-1.1 4.5 4.5 0 0 1 .1-1.1l.3-.9a2.9 2.9 0 0 1 .2-.9 1.1 1.1 0 0 0 .1-.5 1.1 1.1 0 0 1-.1-.5 8.7 8.7 0 0 1 .5-1.9l.6-1.9c.1-.5.2-.9.3-1.5a4.1 4.1 0 0 1 .1-1.2 2 2 0 0 0 .1-1.3 2 2 0 0 1-.1-1.3l.3-1.5a12.1 12.1 0 0 0 .5-1.4 4.9 4.9 0 0 0 .1-1.2 1.8 1.8 0 0 1 .1-1 1.7 1.7 0 0 1 .7-.8 2.4 2.4 0 0 1 1.1-.6 1.7 1.7 0 0 1 1-.1c.3.1.5.4.7.9a3.9 3.9 0 0 1 0 3l-.9 3.5a1.5 1.5 0 0 0 .1.7 1.7 1.7 0 0 1-.1.7c0 .4-.1.8-.1 1.4a6.5 6.5 0 0 1-.3 1.6l-.6 1.8c-.2.6-.3 1.3-.5 2a1.1 1.1 0 0 0 0 .8 1.4 1.4 0 0 1 0 .9 3.5 3.5 0 0 1-.3 1.1 6.1 6.1 0 0 0-.5 1.2 1.3 1.3 0 0 0 .1.6 1.9 1.9 0 0 1-.1.8 6.5 6.5 0 0 1-.5 2 6.2 6.2 0 0 0-.7 1.9.6.6 0 0 0 0 .6.6.6 0 0 1 0 .6c0 .1-.1.3-.4.5s.1.5.1.8a1.1 1.1 0 0 1 0 .6 10.7 10.7 0 0 1-.8 2.7 7.9 7.9 0 0 0-.8 2.6 2.8 2.8 0 0 0-.1.9 3.4 3.4 0 0 1-.1 1l-.7 2.3c-.3.8-.5 1.6-.7 2.3s-.1.5-.1.8a3.8 3.8 0 0 1-.1 1l-.3 1.1a5.6 5.6 0 0 0-.4 1.2 3.9 3.9 0 0 0-.2 1.5 3.8 3.8 0 0 1 0 1.5 3.9 3.9 0 0 0-.4 1.4 12.1 12.1 0 0 1-.5 1.8 5.3 5.3 0 0 0-.4 1.9 3.9 3.9 0 0 0-.2 1.5 5.7 5.7 0 0 1-.1 1.8 5.8 5.8 0 0 1-.4 1.3 3.4 3.4 0 0 0-.4 1.3c-.1.2-.1.3 0 .4v.4a4.3 4.3 0 0 1-.2 1.2l-.3 1.4a1.4 1.4 0 0 1-.2.7.7.7 0 0 0-.3.6 1.8 1.8 0 0 0-.2 1.2v1.3a4.1 4.1 0 0 1-.5.9 3.6 3.6 0 0 0-.4.9 1.3 1.3 0 0 0 .1.6 1.3 1.3 0 0 1-.1.6 1.5 1.5 0 0 1-.2.9 4.6 4.6 0 0 0-.3.9.6.6 0 0 0 0 .6 1.3 1.3 0 0 0 .1.6 4.1 4.1 0 0 1-.5.9 2.3 2.3 0 0 0-.4 1 4.9 4.9 0 0 0-.1 1.2 3.1 3.1 0 0 1-.1 1.3 11.4 11.4 0 0 1-.7 2.2 10.5 10.5 0 0 0-.7 2.3.4.4 0 0 1-.1.5c-.1.1-.1.3-.2.4l-.6 2c-.2.6-.3 1.2-.5 1.9s-.1 1.3-.2 2.1-.2 1.3-.6 1.5a2 2 0 0 1-2-.1 2.3 2.3 0 0 1-1.2-1.2v-.6l-.6-1.8-.6-1.8a6.5 6.5 0 0 1-.2-1.1 4.1 4.1 0 0 0-.1-1 9.9 9.9 0 0 0-1.2-2.9 15.8 15.8 0 0 1-1.3-3.1 36.3 36.3 0 0 0-2.1-6.6 39.1 39.1 0 0 1-2.4-6.5 14.3 14.3 0 0 0-1.9-4.4 14.9 14.9 0 0 1-1.9-4.5v-.6a10.3 10.3 0 0 0-1.2-2.6 6.4 6.4 0 0 1-1.1-2.7c-.4-1.5-.9-3-1.4-4.5s-1.1-2.9-1.7-4.3a2 2 0 0 0-.6-1.1 4.4 4.4 0 0 1-.6-1 1.1 1.1 0 0 1-.2-.6 1.6 1.6 0 0 0 0-.7l-1.3-2.3c-.2-.7-.5-1.5-.7-2.4s-.5-1.6-.8-2.3a15.7 15.7 0 0 1-.9-2.7l-1.3-4.6-1.3-4.6-.8-2.8a20.4 20.4 0 0 0-1.1-3.5c-.2-1.2-.7-2.4-1.2-3.6z"></path><path d="M774.5 567.8l1-.2h1.4l1.5.2a1.9 1.9 0 0 1 .9.4 3.2 3.2 0 0 1 .4 1.1 1.9 1.9 0 0 1 0 1.5.9.9 0 0 1-1 .4h-1.4a37.7 37.7 0 0 1-7.3.6c-2.9-.1-5.5-.1-7.9 0l-10.7.2h-1.9a2.6 2.6 0 0 0-1.6.2c-.2.1-.3.5-.5 1.2s-.4 1.3-.5 1.8a10.9 10.9 0 0 0 .1 1.8 3.8 3.8 0 0 1 0 1.5 9.7 9.7 0 0 0 .1 2.4 3.4 3.4 0 0 1 0 2c0 .2 0 .3-.1.4s-.1.2-.1.4a1.7 1.7 0 0 0 0 1 2.1 2.1 0 0 1 0 1.1.6.6 0 0 1-.1.4l-.3.4a8.3 8.3 0 0 0 .1 2.7l.4.7a4.8 4.8 0 0 1 .1 2.1 8.1 8.1 0 0 0 0 2.2 2.4 2.4 0 0 1 0 1.2c-.1.3-.2.8-.4 1.3a9.1 9.1 0 0 0 .1 1.7 3.1 3.1 0 0 1 0 1.9 2 2 0 0 1-.2 1 2.8 2.8 0 0 0 0 1.3 3.2 3.2 0 0 1 0 1.6 16.3 16.3 0 0 0 .1 4.9 13.6 13.6 0 0 1 .1 4.9c0 .2 0 .3-.1.4s-.1.2-.1.4.1.5.2 1.1.3 1 .5 1.1l.6.2h.8a4.1 4.1 0 0 0 1.9-.1 5 5 0 0 1 2.1.1 30.5 30.5 0 0 0 4.5.1 25.9 25.9 0 0 0 4.4-.3 4 4 0 0 1 2.2-.1l1.9.2a14.2 14.2 0 0 0 3.6.1l3.3-.5a12.1 12.1 0 0 1 3.8 0 17.7 17.7 0 0 0 4-.1l2.4-.4a2.4 2.4 0 0 1 2 .6 1.8 1.8 0 0 1 .5 1.6c-.1.7-.4 1.2-.7 1.3a1 1 0 0 1-.9.1 1.4 1.4 0 0 0-.9 0 18.6 18.6 0 0 1-3.6.3h-7.8a21.7 21.7 0 0 0-3.6.2 9.4 9.4 0 0 1-2.9.1 2.4 2.4 0 0 0-1.2 0l-1.2.3a4.7 4.7 0 0 1-1.7.2h-5.6a20 20 0 0 0-3.4.2 14.2 14.2 0 0 1-3.4.4c-1-.1-1.7.5-1.9 1.7a.9.9 0 0 0 0 .7 1.1 1.1 0 0 1 0 .8c-.1 1.2-.2 2.7-.3 4.4a28.2 28.2 0 0 0 .2 4.4.8.8 0 0 0 .2.5 1.1 1.1 0 0 1 .1.5 4.1 4.1 0 0 1-.1 1.1 2.1 2.1 0 0 0-.3 1.2 3.3 3.3 0 0 0 0 1.4 3.8 3.8 0 0 1 0 1.5c-.1.2-.1.3-.2.4s-.1.2-.2.4.1.4.1.7v.7a3.7 3.7 0 0 0-.1.8 4.2 4.2 0 0 0 .1.7 6.6 6.6 0 0 1 .3 2.1 16.4 16.4 0 0 1-.2 2.3c0 .1 0 .3-.1.3a.8.8 0 0 0-.2.4 10.3 10.3 0 0 0 .3 1.2 6.2 6.2 0 0 1 .1 1.3 21 21 0 0 0-.3 2.5 10.9 10.9 0 0 0 .1 3.2 2.6 2.6 0 0 0 2.3 2h1.8a28.7 28.7 0 0 0 4.2.1l3.8.2h.3l.5.2a.8.8 0 0 0 .7 0h.8l1.2.3 1.6.3h1.5a2.2 2.2 0 0 1 1.1.2l1.2.3h.7c.2-.1.5 0 .6 0l1.8.4 1.9.5 2.7.2a3.6 3.6 0 0 1 2 .7 1.5 1.5 0 0 1 .3 1.6 1.5 1.5 0 0 1-1.1 1.1 5.8 5.8 0 0 1-2.3.1l-2.6-.5a2.5 2.5 0 0 0-1.2.1 3.3 3.3 0 0 1-1 0l-1.5-.6a2.7 2.7 0 0 0-1.4-.5 2.2 2.2 0 0 0-1.4-.2 9.7 9.7 0 0 1-1.7 0l-.6-.3H760a.9.9 0 0 0-.7-.3 7.9 7.9 0 0 0-2.2-.1 8.2 8.2 0 0 1-2.3-.2H753l-.5.2a.4.4 0 0 1-.5 0l-.6-.3h-2a3.4 3.4 0 0 1-2 0h-.9a5.9 5.9 0 0 0-3.7.3 6 6 0 0 1-3.5.1 2.4 2.4 0 0 1-.9-.6 1.9 1.9 0 0 1-.5-1.1 1.3 1.3 0 0 1 .9-1.1l1.6-.5a9.1 9.1 0 0 0 1-1 2.9 2.9 0 0 0 .9-1.2 7.8 7.8 0 0 0 .1-2.3c-.1-1.1-.1-1.9-.2-2.5l-.3-.4a.9.9 0 0 1-.1-.5 2.8 2.8 0 0 1 .1-.8 2 2 0 0 1 .2-.9 4.1 4.1 0 0 0-.1-1.9 6.7 6.7 0 0 1 0-2l.3-.9c.1-.3.1-.7.2-1.1a16.2 16.2 0 0 0-.1-4.9 16.8 16.8 0 0 1-.1-5 5.2 5.2 0 0 0 .2-1.1l.3-1.2a27 27 0 0 0 .1-5 24.4 24.4 0 0 1-.1-4.6 4.2 4.2 0 0 0 .1-1.6c0-.6.1-1.1.1-1.6a2.2 2.2 0 0 0-.1-.8c-.1-.2-.1-.5-.2-.8a.8.8 0 0 1 .2-.4c0-.2.1-.3.2-.5a2.4 2.4 0 0 0 0-1.2 2.4 2.4 0 0 1 0-1.2 20.9 20.9 0 0 0-.1-2.4 1.1 1.1 0 0 1 0-.8 2.2 2.2 0 0 0 .2-1 18.6 18.6 0 0 0 .1-4.1c-.1-1.5-.2-2.9-.2-4.4v-4.5a19.5 19.5 0 0 0-.2-2.5 5.4 5.4 0 0 1 .1-2.2c0-.2 0-.3.1-.4s.1-.2.1-.4a2.9 2.9 0 0 0 0-1.3 3.3 3.3 0 0 1 0-1.4 13.2 13.2 0 0 0-.1-3.4 11 11 0 0 1-.1-3.1l.2-.3a.4.4 0 0 0 .1-.3 22.2 22.2 0 0 0 .1-5.8 11.3 11.3 0 0 1 .3-5.3 2 2 0 0 1 1.2-1.2l2.3-.4h5.3l14.3-.3h4.1a13.5 13.5 0 0 0 3.6-.7z"></path><path d="M798.9 565.4l1-.2h1.3l1.8.3h3l.4.2.2.2a4.9 4.9 0 0 0 1.7.1 2.6 2.6 0 0 1 1.5.1l2.6.6a6.7 6.7 0 0 1 2.4 1.1l2.7 1.5a16.4 16.4 0 0 1 2.6 2l1.4 1.8.8.6.7.6 2.3 3.3a10.3 10.3 0 0 1 1.8 3.8 8.3 8.3 0 0 0 .8 1.2l.7 1.3a16.9 16.9 0 0 0 1 2.7 4.1 4.1 0 0 1 .1 1.1 1.7 1.7 0 0 0 .2 1.2 8.6 8.6 0 0 0 .3 1.7l.3 1.2c.1.4.1.7.2 1a2.2 2.2 0 0 1 .1 1.4 2.5 2.5 0 0 0 0 1.7l.3 1.1a1.7 1.7 0 0 1 0 1 .4.4 0 0 1-.1.3c-.1 0-.1.1-.1.3a3.3 3.3 0 0 0 0 1.4 2.9 2.9 0 0 1 0 1.3 2.8 2.8 0 0 0-.1.6 1.8 1.8 0 0 0 .1.6 1.3 1.3 0 0 1 0 1.2 2.1 2.1 0 0 0-.4 1.1.6.6 0 0 0 0 .6.6.6 0 0 1 0 .6l-.6 1.5c-.2.5-.3 1-.5 1.6a15.1 15.1 0 0 1-3.4 7.3c-1.6 1.9-3.2 3.8-5 5.7l-1.2 1.1q-.6.5-.3 1.5l.3.7c.2.1.3.3.5.6a1.6 1.6 0 0 1 .3.9 3.6 3.6 0 0 0 .4.9l.6 1.1.7.9.3.4.4.3.8 1.4a16.2 16.2 0 0 1 1 1.8 7.8 7.8 0 0 1 1.2 2.2 11.3 11.3 0 0 0 1.1 2.2 3.7 3.7 0 0 0 .6.8c.1.1.1.2.2.2s.2.1.3.3l.5 1c.8 1.5 1.5 3.1 2.3 4.7a17.1 17.1 0 0 0 2.6 4.4 7.6 7.6 0 0 0 1.1 1.4 4.6 4.6 0 0 1 .9 1.7 7.4 7.4 0 0 1-.2 1.2 3.4 3.4 0 0 1-.4 1 2.1 2.1 0 0 1-1.9 0c-.6-.2-1.1-.5-1.2-.8l-1-1.4-.9-1.4a13.4 13.4 0 0 1-1.2-2.4 18.9 18.9 0 0 0-1.1-2.5c-.6-1-1.2-1.9-1.7-2.9a22.9 22.9 0 0 0-1.8-2.9c-.4-.6-.8-1.1-1-1.5a6.1 6.1 0 0 1-.5-1.2c-.2-.3-.3-.7-.5-1l-.8-1.5a11.3 11.3 0 0 1-1.2-2.1l-1.2-2.1a3.1 3.1 0 0 0-.8-1.1 2.7 2.7 0 0 1-.7-.8l-.5-1.2-.6-1.1a3 3 0 0 0-.8-.8 1.4 1.4 0 0 0-1.3 0l-.4.5-.4.4-1.7.7-2.1.6a5.6 5.6 0 0 1-2 .3 7.8 7.8 0 0 0-2.2.3l-1.6.3-1.3.4a1.7 1.7 0 0 1-1 0h-1l-1.4.3a2 2 0 0 0-.8.4c-.4.3-.6.5-.6.7l-.2 1a7.1 7.1 0 0 0-.1 1.4 9 9 0 0 1 .3 3.9 18.7 18.7 0 0 0-.2 4.3v1.4c.1 0 .1.1.1.3a5.5 5.5 0 0 1 .1 2.2 3.4 3.4 0 0 0 0 2l.2.3c.1 0 .1.1.2.3a1.1 1.1 0 0 1 0 .8 2.2 2.2 0 0 0 .1.8c0 .1 0 .3.1.3s.1.1.1.3a1.4 1.4 0 0 1 0 .9 2.2 2.2 0 0 0 .1.8l.3 1.3c.1.5.1 1 .2 1.4a2.2 2.2 0 0 1 .1.8 1.4 1.4 0 0 0 0 .9 13 13 0 0 1 .3 1.3 4.1 4.1 0 0 1 .3 1.6 3.8 3.8 0 0 1 0 1.5q-.1.8-.6.9a2.1 2.1 0 0 1-1.7.1 2 2 0 0 1-.8-1 7.5 7.5 0 0 1-.4-1.6l-.3-1.7a8.8 8.8 0 0 0-.5-1.5c-.1-.5-.3-1-.4-1.5a2.8 2.8 0 0 1-.1-.9 2.8 2.8 0 0 0 .1-.9l-.3-.4a.9.9 0 0 1-.1-.5 3.6 3.6 0 0 1 .2-1 1.6 1.6 0 0 0 .1-1.2 4.6 4.6 0 0 1-.3-.9l-.4-1a3.4 3.4 0 0 1 0-2 4.5 4.5 0 0 0 0-2 10.5 10.5 0 0 1-.2-1.3v-.7a8.4 8.4 0 0 0-.2-1 7.5 7.5 0 0 1-.1-2.2 22.6 22.6 0 0 0 0-2.6v-3.2a14.2 14.2 0 0 1 .2-2.9c.1-.4.1-.7.2-.8s.1-.4 0-.9a11.2 11.2 0 0 1-.4-1.6 4.4 4.4 0 0 1 .1-2 .4.4 0 0 1 .1-.3c.1 0 .1-.1.1-.3a13.5 13.5 0 0 0 .1-4 12.8 12.8 0 0 1 0-3.9l.2-.3c0-.1.1-.2.2-.4a11.1 11.1 0 0 0 .1-2.6 9.6 9.6 0 0 1 0-2.4c0-.2.1-.3.2-.3s.1-.2.1-.4a4 4 0 0 0-.1-1.5 4.3 4.3 0 0 1 0-1.6 7.8 7.8 0 0 0 .4-1.9 19.6 19.6 0 0 0 .3-2 3.3 3.3 0 0 0 .1-1.7 3 3 0 0 1-.1-1.6c0-.2 0-.3.1-.4s.1-.1.2-.3a10.8 10.8 0 0 0 .1-3.1 11.6 11.6 0 0 1 .1-3.2c0-.1 0-.2.1-.2s.1-.1.1-.2a1.7 1.7 0 0 0 0-1.4 2 2 0 0 1 0-1.5.2.2 0 0 1 .1-.3.4.4 0 0 0 .1-.3 2.6 2.6 0 0 0 0-1.5 2.9 2.9 0 0 1-.1-1.6l.2-.3c0-.1.1-.1.1-.2a12.2 12.2 0 0 0 0-3.3 16.9 16.9 0 0 1 .1-3.2l.2-.3c0-.1.1-.2.2-.4a6.5 6.5 0 0 0 0-1.4 3.4 3.4 0 0 1-.1-1.4.4.4 0 0 1 .1-.3.5.5 0 0 0 .2-.4 9.1 9.1 0 0 0 0-3.3 10.2 10.2 0 0 1-.2-3.4 2.1 2.1 0 0 1 1.7-2zm2.6 3.7q-.7.4-.6 2.1a12 12 0 0 1 0 2.7.5.5 0 0 1-.2.4.4.4 0 0 0-.1.3.5.5 0 0 0 .2.4c0 .1.1.2.1.4a.4.4 0 0 1 0 .5c-.1.2-.2.3-.2.5a4.3 4.3 0 0 0 0 1.6 1.3 1.3 0 0 1 0 1.2c0 .2 0 .3-.1.4s-.1.1-.1.3v.6a.8.8 0 0 1 0 .7c-.1.3-.2.8-.3 1.2a5.3 5.3 0 0 1-.3 1.1 4.9 4.9 0 0 0 0 2.4 6 6 0 0 1 .1 2.3 3.1 3.1 0 0 1-.2.8.8.8 0 0 0 0 .7c.1.4.2.6.2.7s-.1.2-.2.5a2 2 0 0 0 .1 1.3 2 2 0 0 1-.1 1.3c0 .2 0 .3-.1.3s-.1.1-.1.2a2.9 2.9 0 0 0 .1 1.6 4.9 4.9 0 0 1 0 1.7h-.2c-.1.1-.1.2-.1.4a4.5 4.5 0 0 0 .1 1.6 3.8 3.8 0 0 1 0 1.5c0 .2-.1.3-.2.3a.3.3 0 0 0-.1.2 1.1 1.1 0 0 0 0 .8.6.6 0 0 1 0 .6c.1.2 0 .3-.1.3l-.2.4a5.4 5.4 0 0 0-.1 2.2 4.9 4.9 0 0 1-.1 2.1 2.7 2.7 0 0 0-.2 1.1l-.3 1.1c-.1.1 0 .4 0 .7a2 2 0 0 1 .1.7c0 .2-.1.3-.2.3a.3.3 0 0 0-.1.2q-.2.5 0 .6a2.2 2.2 0 0 1 .3.8 1.7 1.7 0 0 1 0 1c-.1.3-.1.7-.2 1.1a.6.6 0 0 0 0 .6 1.1 1.1 0 0 1 0 .8 10.4 10.4 0 0 1-.3 1.2 5.8 5.8 0 0 0-.2 1 .8.8 0 0 0 .2.5 1.3 1.3 0 0 1 .1.6c0 .1 0 .3-.1.3l-.3.4a1.5 1.5 0 0 1 .1.7 1.1 1.1 0 0 1 0 .8l-.3 1.5a6.1 6.1 0 0 0 .1 1.4 1.2 1.2 0 0 0 .8 1.1 3.3 3.3 0 0 0 1.5.3l1.7-.3 1.6-.4a6.5 6.5 0 0 1 2-.2 4.6 4.6 0 0 0 2-.1l2.3-.7 1.5-.7 1.8-1.1a11.1 11.1 0 0 0 1.9-.9l1.6-.8a5.7 5.7 0 0 0 1.1-1.1 4.1 4.1 0 0 1 1-.9 2.8 2.8 0 0 0 1.1-.8 11.3 11.3 0 0 0 1.1-1.1 24.7 24.7 0 0 0 5.5-8.9c.1-.2.1-.4.2-.6l.3-.8a9.2 9.2 0 0 0 .8-2.7 2.6 2.6 0 0 0-.1-1.5 3.7 3.7 0 0 1 .1-1.8 2.5 2.5 0 0 1 .1-.8 1.1 1.1 0 0 0 .3-.7 6.7 6.7 0 0 0 0-2 10.6 10.6 0 0 0-.3-1.4 11.8 11.8 0 0 1-.2-2.6 7.9 7.9 0 0 0-.1-2.2 12.1 12.1 0 0 1-.5-1.8l-.5-1.6a18 18 0 0 0-.8-2.1 12.4 12.4 0 0 1-1-2 22 22 0 0 0-2.7-4.7 25.7 25.7 0 0 0-3.5-3.9l-1.1-1.2a3.5 3.5 0 0 0-1.2-1 10.1 10.1 0 0 1-1.6-1 4.2 4.2 0 0 0-1.7-1l-.8-.2-.6-.3a.7.7 0 0 0-.6-.1l-.8-.2-.5-.3-.4-.2h-.9a1.4 1.4 0 0 1-.9 0l-1-.4-1-.5h-3.4z"></path><path d="M904.9 564.2c1-.4 1.6-.3 1.9.1a2.4 2.4 0 0 1 .2 1.9 3.1 3.1 0 0 1-1.2 1.9 7.3 7.3 0 0 0-1.7 1.8 2.1 2.1 0 0 1-.6.8l-.5.6-.4.7a1 1 0 0 1-.4.5 11 11 0 0 0-.3 1.1l-1 1a3.3 3.3 0 0 0-.9 1.1l-1 1.4a16.7 16.7 0 0 0-1.2 1.3 3.7 3.7 0 0 1-1.3 1.5l-1.4 1.4a12.1 12.1 0 0 1-1.6 1.6 4.9 4.9 0 0 0-1.2 1.5 24.3 24.3 0 0 1-1.4 2l-1.5 2.2a3 3 0 0 1-.8.8 4.3 4.3 0 0 0-1 .9l-.5.8-.5.9c-.2.2-.4.5-.6.6l-.7.6a10.5 10.5 0 0 1-2 2.7 18.4 18.4 0 0 0-2.3 2.5l-.6 1.1a5.3 5.3 0 0 0-.6 1 5.5 5.5 0 0 1-1 1.1l-.8 1a1.8 1.8 0 0 1-.9 1 3.6 3.6 0 0 0-.9.8 10.5 10.5 0 0 1-1.7 2.1 6.4 6.4 0 0 0-1.8 1.9 1 1 0 0 0-.1.4c0 .1-.1.2-.1.3h-.4l-.3.2a.8.8 0 0 0-.2.5c0 .2-.1.3-.1.5s-.9 1.2-1.4 1.7a3 3 0 0 0-1 2 10.6 10.6 0 0 0-.2 2.5 9.7 9.7 0 0 1-.1 2.4c0 .3-.1.7-.2 1.4a5.4 5.4 0 0 0 0 1.8l.3.6a1.4 1.4 0 0 1 0 1.1 2.4 2.4 0 0 0 0 1.2 1.5 1.5 0 0 1 .3.6l-.3.7a4 4 0 0 0 0 1.1c0 .3.1.8.1 1.5v2a5.1 5.1 0 0 0 .1 1.8 8.1 8.1 0 0 1 .2.9 1 1 0 0 1 .2.7l-.4.5a6.2 6.2 0 0 0 .3 3 5.8 5.8 0 0 1 .2 2.9 3.9 3.9 0 0 1-.5 1.4 2.7 2.7 0 0 0-.1 1.8 1.7 1.7 0 0 1 .2.5c.1.1 0 .3-.1.6a3.3 3.3 0 0 0 0 1.4 1.9 1.9 0 0 1 0 1.5l-.2.5a2 2 0 0 0 .1 1.3 2 2 0 0 1-.1 1.3 22.1 22.1 0 0 0-.2 3.2c.1 1.4.2 2.5.3 3.2a3.4 3.4 0 0 1 0 2 7 7 0 0 1-.5 1.3h-1.1a1.5 1.5 0 0 1-1.1-.1c-.3 0-.4-.3-.5-.7a5.3 5.3 0 0 0-.4-1.6.8.8 0 0 0-.2-.4v-.5c0-.1 0-.1.1-.2s.1-.1.1-.3a4.9 4.9 0 0 0 .1-1.2c0-.4.1-.8.1-1.1a9.9 9.9 0 0 0 .1-4.6 12.3 12.3 0 0 1 0-4.7 2 2 0 0 0 0-1.5 7.1 7.1 0 0 1-.1-1.4c.1-.1.1-.2 0-.2s-.1-.2-.1-.3.1-.9.2-1.2v-.8a1.7 1.7 0 0 1 .1-.7c0-.3.1-.7.1-1.2a2.9 2.9 0 0 0 0-1.4 13.6 13.6 0 0 1-.1-1.6 10.5 10.5 0 0 0 0-1.8 8.7 8.7 0 0 0-.1-1.8c0-.2-.1-.3-.2-.3l-.2-.3v-.7a1.4 1.4 0 0 0-.1-.9v-.8a2.8 2.8 0 0 0-.1-.9 5.4 5.4 0 0 1-.1-2.5c.1-.8.2-1.4.3-1.9a8.1 8.1 0 0 0 0-2.2 17.7 17.7 0 0 1-.1-2.4 16.1 16.1 0 0 1 0-2.2 5.4 5.4 0 0 0-.1-2.2 6.3 6.3 0 0 0-1-2.5 6.7 6.7 0 0 1-.9-2.6 10.8 10.8 0 0 0-1-2.7l-1.4-2.5a4.4 4.4 0 0 0-.8-1.1l-.6-1.2a.5.5 0 0 1-.2-.6 1.5 1.5 0 0 0-.1-.7 13.1 13.1 0 0 1-.9-1.7 12.8 12.8 0 0 1-1.1-2l-1.7-3-1.7-3.1-3.3-6.4a9.9 9.9 0 0 0-.9-1.5 5.7 5.7 0 0 0-.8-1.3c-.1-.2-.2-.3-.2-.5s0-.3-.2-.4a14.6 14.6 0 0 0-.9-1.6l-1.3-2a3.1 3.1 0 0 1-.5-1c-.1-.3-.3-.8-.4-1.2a2.2 2.2 0 0 0-.5-.8 2.5 2.5 0 0 1-.4-.7 22.9 22.9 0 0 0-1.1-2.3 16.5 16.5 0 0 1-.9-2.1 2.6 2.6 0 0 1-.2-1.6 1.1 1.1 0 0 1 1.2-1h.5l.6.2q.8.2 1.2 1.5a8.9 8.9 0 0 0 .8 1.7 11.4 11.4 0 0 1 1 1.9 14.5 14.5 0 0 0 1.7 3.2l2.2 3.6a36.1 36.1 0 0 1 2.2 3.9 16 16 0 0 1 1.7 3.5c.5 1.2 1 2.4 1.6 3.6l2 3.5 2 3.8c.5.8.9 1.6 1.2 2.2a10.2 10.2 0 0 1 1 2.1 6 6 0 0 0 .9 1.5 6.5 6.5 0 0 1 .8 1.7 4.3 4.3 0 0 1 .4 1.4 4.5 4.5 0 0 0 .6 1.2c0 .1.1.2.2.4l.5.6a5.3 5.3 0 0 0 .6 1c.4.2.8 0 1.2-.5l1-1.1.9-.8a1.6 1.6 0 0 0 .7-.9 5.3 5.3 0 0 1 1.2-1.4 3.7 3.7 0 0 0 1.2-1.4l1.2-1.7a14 14 0 0 0 1.2-1.8l1.2-1.1a4.3 4.3 0 0 0 1.2-.8l1-1.6.8-1.3.5-.5c.2-.1.3-.3.5-.5a10.3 10.3 0 0 1 2.1-2.8 16.1 16.1 0 0 0 2.4-2.8l.6-.7.6-.5.6-1.1.6-1.1a17.5 17.5 0 0 1 2.3-2.4l1.4-1.2a2.9 2.9 0 0 0 1-1.2 10.5 10.5 0 0 1 .8-1.1l.7-1.1a6.3 6.3 0 0 1 1.1-1.3l1.2-1.3.8-1 .9-1a8.3 8.3 0 0 1 1.2-1.7 10 10 0 0 0 1.3-1.5 3.3 3.3 0 0 0 .3-.6 1.3 1.3 0 0 1 .3-.8 3.6 3.6 0 0 1 .9-.8 2.4 2.4 0 0 0 .9-1.1l1-1.1a2.8 2.8 0 0 1 1.1-.7z"></path></g></g><g fill="#231f20"><path d="M1022.8 531.6c-9-2.3-17.9 9.4-23.4 15.3s-13.8 15.8-16.6 25.2c-1.3 4.1 4.1 8.4 7.4 4.9 6.3-6.6 11-14.6 17.2-21.3a117.5 117.5 0 0 1 11.5-10.8c3.5-2.9 6.1-4.2 6.5-9.1.1-1.6-.9-3.8-2.6-4.2z"></path><path d="M1067.2 573.9c-10.4-4.6-23 .4-33.7 2.8-12.8 2.9-26.1 5.4-37.4 12.3-3.3 2-.7 6.3 2.4 6.3 11.5 0 22.6-3.6 33.8-5.9s26.6-1.8 35.5-9.5c1.9-1.7 2-4.9-.6-6z"></path><path d="M1078 627.8c-11.4-5.6-26.1-3.2-38.5-3-14 .2-28.4-.2-42.1 2.7a3.6 3.6 0 0 0-.1 7.1c14.2 2.9 29.1 2.5 43.6 2.7 12.1.2 25.9 2.5 36.9-2.9a3.6 3.6 0 0 0 .2-6.6z"></path></g><g fill="#231f20"><path d="M81.6 576.5c-9.5-5.5-21-7.1-31-11.7-8.4-3.8-18.2-13.9-27.8-12.3a4.1 4.1 0 0 0-3.3 4.7c1.2 10.4 16 16 24.5 19.8 10.8 4.9 24.1 10.2 36 7.9 3.8-.7 5-6.3 1.6-8.4z"></path><path d="M73.5 627.5c-9.2-5.8-19.6-7.9-30.1-10.2-12.6-2.7-27.2-8-39.9-4.6A4.6 4.6 0 0 0 2 621c9 6.7 22.3 7.5 33.3 9.4 12.6 2 25 4.6 37.7 2.2 2.5-.5 2.3-3.9.5-5.1z"></path><path d="M82.3 662.8c-11.6.3-23.2 5.7-33.8 9.9s-22.5 6.8-28.6 15.6a4.5 4.5 0 0 0 3.4 7c9.8.8 19.3-5.9 28-9.8 11.2-5.1 23.8-8.8 33.5-16.3a3.6 3.6 0 0 0-2.5-6.4z"></path></g><path d="M483.5 209.6c-9.8-6.6-23.1.5-30 8.4-9 10.4-14.3 30.3-8 42.9.9 1.6 3 .6 3.4-.7 3.6-11.2.5-22.8 6.9-33.7s16.1-12.9 27.4-15a1 1 0 0 0 .3-1.9z" fill="#f2f2f2"></path><path d="M460.8 202.7c-5.2-.9-10.5 1.9-14.5 4.8s-9.4 7.2-8.3 12.2a1.4 1.4 0 0 0 1.6.9c3.9-.7 6.6-5.3 9.4-7.7s8.6-5.3 12.3-8.5a1 1 0 0 0-.5-1.7z" fill="#f2f2f2"></path><path d="M991.4 192.3c-.7-2.9-5.6-2.8-5.5.5.7 15 1.1 29.4-2.1 44.2-2.7 13.1-9.3 24.5-12.6 37.2-.5 1.9 2 2.8 3.2 1.6 19-19.4 22.8-58.2 17-83.5z" fill="#f2f2f2"></path><path d="M1004.9 219a1 1 0 0 0-1.8.1c-1.8 5.6-1.4 11.9-2.9 17.7s-4.5 10.4-4.9 15.8a1.7 1.7 0 0 0 2.7 1.4c8.4-6.1 12-26 6.9-35z" fill="#f2f2f2"></path><path d="M1002 402.8a2.1 2.1 0 0 0-2.5-1.2c-2.9 1.4-3.6 3.5-5.4 6.1a35 35 0 0 1-8.8 8.8c-5.1 3.5-11.1 4.4-16.7 6.8-1.1.5-1.7 2.4-.3 2.9 7.6 3 15.9-.3 22.2-4.8s13.9-11.7 11.5-18.6z" fill="#f2f2f2"></path><path d="M911.6 74.4c-4.1.2-7.5 3.4-9.9 6.4s-5.7 8-4 11.6a1.3 1.3 0 0 0 2.1.3c1.3-1.1 1.5-2.6 2.1-4.1a19.9 19.9 0 0 1 2.5-4.8c2.2-3 5.4-4.8 7.8-7.5.6-.6.4-1.9-.6-1.9z" fill="#f2f2f2"></path></g></g></svg>