<svg xmlns="http://www.w3.org/2000/svg" width="648.6" height="1080" viewBox="0.02726966142654419 0.0015869140625 648.5664672851562 1080.0003662109375" style=""><g><g fill="#e6e6e6" fill-rule="evenodd" data-name="Layer 2"><path d="M362.4 556.8l6.7 32.2c40.2-13.7 160.8-72.5 171.1.3 1.8-78.7-134.9-39.7-177.8-32.5z"></path><path d="M266.5 583.2l6.7-32.2c-42.9-7.2-179.6-46.2-177.8 32.5 10.3-72.9 131-14 171.1-.3z"></path><path d="M328.6 816.6c0 .7-.7 1.3-1.2 1.7 3.1-.2 9.3-8.9 17.9-11.6a6.7 6.7 0 0 0 13.2 2.3c5.3-24.1-27.5-22.9-29.9 7.6z"></path><path d="M245.9 914.9c15 20.2 70 34 90.9 30.9 22.7-3.4 43.2-18.9 62-30.9L368.5 928c-27 9.7-99.9 8.8-122.6-13.1z"></path><path d="M638.1 446.8c-7-29-23.5-56.7-40.6-83.9 5.6-29.3-2.8-37.5-9.8-78.3-9.1-53.1 3.6 1.6-3.3-57.1-3.8-32.8-18.4-64.4-36.9-91.3-90.7-132-273.2-183.5-402.9-84.6v-2.9l-4 2.7c-.6.4-44.1 30.5-79.6 78l-3.9.4 3.4.3c-13.9 18.6-26.6 39.8-34.9 63-27.9 77.9 3 169.6 7.3 181.6-7.7 10.2-13.8 23.7-18.4 40.7C6.3 438.7 2.7 464.9.8 493.8c-2.3 36 .7 75.1 6.8 113.9.6 8.7 1.2 17.7 2 26.9C15.5 707 35 747.1 52.9 769.1l.7.8c16.7 20.1 32 24.7 33.3 25l.6.2c.7 1.8 1.5 3.5 2.3 5.3 31.5 112.8 49.6 212.4 173.2 268.3 31.8 14.4 102.8 14.6 134.7 3.1 37.8-13.7 123.8-76.4 142.6-116.1 42.1-88.8 72.8-349.9 38.7-442.6-27.1-73.7-79.4-170.7-161.2-192.8-40.6-45.1-104-82.1-162.4-98.3-23-14.9-47.3-34.8-69.6-46.5-18.9-10-52-15.7-62.1-38.2-4.9-10.9-18.2-12.7-32.3-11.9a403.1 403.1 0 0 1 52.4-48.8l1.1-.8v-3.2C215.3 18.9 307.5 12.8 389 39c22.9 40.4 41.4 81.7 66.9 122.9 16.4 26.5 30.8 50.4 44.5 78.8-3.4-9.5-7-18.9-10.8-28.3 5.7 9.7 11.3 19.4 17 29 31.6 53.1 42 89.4 68 140.8 53.5 105.5 74.7 237.6 20.2 346.9 52.9-80 65.6-189.6 43.3-282.3zM85.8 335.1A158.5 158.5 0 0 0 57 353.6c20.6-19.5 13.1-14.4 28.5-33.9 9.2-11.8 40.6-23.4 51.5-29.8 33.2-19.5 59.3-45.7 97-64.3 29.8 12.3 30.2 11.3 69.3 23.3l-23.9-13.2c13.2 6.6 26.3 14 39.2 21.8C129.8 381.3 54.5 398.2 68.7 657.8c.1-.2.1-.4.2-.6a343.1 343.1 0 0 0 1.6 56.2 185.7 185.7 0 0 0 2.5 30.7c-6.3 1-26.2 2.9-28.5-9.1l-.3-2a977.9 977.9 0 0 1-16.9-181.8c.1-70.6 3.6-83 8.9-101.8 1.8-6.3 3.8-13.3 5.9-23.3 6.4-30.9.8-45.1-2.6-50.4 11-15.4 25.9-29 46.3-40.6zm475.8 384.6c-16.7 45.3-48.8 121.2-67 126.3 20.6 1.3 38.8-15.4 52.4-39.3-4.1 20.5-8.3 39.2-12.1 54.9-18.2 74.8-11.9 86.4-71.7 135.3-47.6 38.9-64.9 56.4-125.9 58.7s-74-3.1-128.1-43.3-78.3-111.5-98.5-178c11.3 13 24.5 20.9 39 20-20-5.5-56.6-95.8-71.4-138.2-5.1-33.6-5-65.3-1.5-97.5 27.7-116.5 81-189.7 151.9-266.9l4.7-2.2c101.9 30.8 126 57.4 229.2 82 47.5 11.4 53.3 20.8 83.9 53.9 4.8 12 9.2 23.7 12.8 34.7 15.9 47.9 12.3 125.8 2.3 199.6zM243.1 345.6a295.8 295.8 0 0 1 116.5-21c-36.3 1.9-75.7 10.1-116.5 21zm162.6-28.1h-.2c-53.1-9-112.6-1-165.1 21.7 24.2-25.8 50.4-52.5 78.2-81.6 24.1 14.8 47.3 31.2 68.7 46.5 4.3 2.9 11 7.7 18.4 13.4zM111.1 141.3c9.3 43.6 82.7 67.6 118.6 82.5l1.9.8c-31.3 7.2-88.7 27.7-109.5 41.1-12.2 7.8-41.7 34-48.1 49.9-9.7 24-8.4 20.6-20.1 40.4a136.3 136.3 0 0 0-16 16.3c-10.5-59.8-14-80 1.6-155.2 6.5-31.5 25.9-61.2 46.2-85.1 12.4 1.5 24.3 4.2 25.4 9.3zm460.4 179.8c-29-50.1-57.2-84.9-90.2-128a824 824 0 0 0-88-152.6c79.7 26.9 148.5 84.7 175.6 159 13.3 36.5 6.1 50.7 13.9 86.4 8.6 39.4 17.2 47.4 13.6 75.3-8.6-13.5-17.2-26.8-24.9-40.1z"></path><path d="M271.8 809a6.7 6.7 0 0 0 8.4 4.4 6.6 6.6 0 0 0 4.8-6.7c8.5 2.6 14.7 11.3 17.9 11.6-.5-.5-1.2-1-1.3-1.7-2.4-30.6-35.1-31.7-29.8-7.6z"></path><path d="M349.6 778.9c-16-3.5-44.7-4.2-62-4.1 17.9 34.2 69.2 11.4 62 4.1z"></path><path d="M250.5 813.1v-.2c.7.4.4 2.4 4 5.6 1-2.1 2-4.2 1.9-6.7-3.6-57.3 15.3-51.9 14.7-120.6-13.8 30.9-47.1 88.8-20.6 121.9z"></path><path d="M348.9 695.3c-5.3 93.2 17.8 67.6 26.4 119.9 19-21.6-18.8-104.1-26.4-119.9z"></path><path d="M425.5 875.4a42.4 42.4 0 0 1 .5 4.4 22.6 22.6 0 0 0-7.7 1.2c2.5 3 3.3 4.2 3.9 6.8-3.9.9-14.3 3.2-23.1 3.2a27.3 27.3 0 0 1-7.8-.9c-5.2-1.7-12.8-5.7-20.8-10s-17-8.9-24.2-11.6a27.9 27.9 0 0 0-9.6-2c-5.2 0-8.2 2.4-11.1 4.7a34 34 0 0 1-4.6 3.3c-4.1 2.3-6.3 1-10.4-1.6a62.1 62.1 0 0 0-7.1-4c-9.9-4.4-15.7-1.9-35.2 6.3l-2 .9c-16.3 6.9-44.6 10.2-54.2 11.2.2-2.2.4-5.1.9-9.4-16.5 8.9-12.6 6.6-12.8 23.1 4.8-3.4 7.5-5 9.1-6.5l5.7.3 26.9 1.4a41.8 41.8 0 0 0 15.8 3c9.2.1 33.1 4.2 45 4.2 35.7 0 82.6 15.4 112.3-4.3.3-.2.4-.4.7-.5 7.3-3.3 10.4-6.6 10.6-6.8l.5-.5c1.6.5 2.8 1.4 4.8 3.6a4.7 4.7 0 0 0 .3-.9l6.5 4.5c-.3-16.5 3.6-14.3-12.9-23.1z"></path><path d="M266.5 980.4c13.8-2.7 99.1-11.2 109.1 0a4.4 4.4 0 0 0-.6-1.7c-25.8-48.1-78.3-24.5-108.5 1.7z"></path><path d="M163.7 632.9a15 15 0 0 0 3.5 20.9l2.9-3c-1.1-4.1-2.1-4.9-.9-9.2h.2c-.5 8.9 10.2 14.5 18.1 20.4-1.3-4.2-3.2-13.6-2.8-17.8l.9-.3c1 1.1.8 1.6 1 3.1 3.4-4.4-2.1-10-2-17.7a15 15 0 0 0-20.9 3.6z"></path><path d="M191.1 662.1c4.3-1.1 13.8-2.3 18-1.8l.3 1c-1.2.9-1.7.7-3.2.8 4.1 3.6 10.1-1.5 17.8-1a15 15 0 0 0-23.4-18.8l2.8 3.1c4.2-.9 5-1.8 9.2-.4v.2c-8.9-1-15.1 9.3-21.5 16.9z"></path><path d="M178.5 673.3c.1-1.3.5-1.5 1.3-2.5-2 .3-3.2 1.7-4.2 3.6s-2.6 5.8-5.3 8.5a12.8 12.8 0 0 0 25.5-1.8 11.5 11.5 0 0 0-.1-2.6h-3.6c-1.8 3.2-1.7 4.3-5 6.2h-.1c5.7-5.1 2.6-15 1.4-23.4-1.8 3.3-6.3 10.2-9.1 12.5z"></path><path d="M221.6 603.1c20.8 6.3 30.8 18 39.1 38.6 33.5 82.9-91.2 68.8-99.6 70.1l1.9-1.5c-90.6 4.8-29.1-189.4 58.6-107.2-47.5-53.5-103-12.3-104.4 24.5-44.7 95.6 25.4 107.8 50.7 101.3 92.4 30.3 153.3-105.1 53.7-125.8z"></path><path d="M458.6 577.7c-15.9 0-31.3 5.6-44.7 16.2-7.1 1.3-12 3-18.4 8.2-39.4 32.6-39.8 61.5-33.2 80 13.4 37.2 64.8 60.3 104.6 60.3h.1c25.8 0 46.3-9 57.6-25.3 13.6-19.7 13.6-49.6-.1-85.9-3.7-29.5-33.2-53.5-65.9-53.5zm-42 20.8c10.6-7.1 21.8-10.7 33.2-10.7 35.5 0 63.6 33.9 67.5 65.6 3.8 30.1-13.3 52.2-46.8 60.8a130.5 130.5 0 0 1-30.8 4.2c-42.3 0-60.8-27.1-64-52.5s9.4-58.9 39.9-66.9z"></path><path d="M451.1 647.8l.9.3c.3 4.2-1.5 13.6-2.8 17.8 7.9-5.9 18.6-11.5 18.1-20.4h.2c1.1 4.3.2 5.1-.9 9.2l2.9 3a15 15 0 0 0-17.5-24.5c.2 7.6-5.3 13.3-2 17.7.3-1.5.1-2 1.1-3.1z"></path><path d="M430.5 665.9c-1.5-.1-2 .1-3.2-.8l.3-.9c4.2-.6 13.7.6 18 1.7-6.4-7.6-12.6-17.9-21.5-16.9v-.2c4.2-1.4 5.1-.5 9.3.4l2.7-3.1a15 15 0 0 0-23.3 18.8c7.5-.5 13.5 4.6 17.7 1z"></path><path d="M449.6 688.4c-3.3-1.9-3.2-3-5-6.2H441a12.9 12.9 0 0 0 25.4 4.4c-4.7-4.6-4.8-11.4-9.5-12 .7 1 1.2 1.2 1.2 2.5l-.7.3c-2.8-2.3-7.4-9.2-9.1-12.5-1.2 8.4-4.4 18.3 1.4 23.4z"></path></g></g></svg>