<svg xmlns="http://www.w3.org/2000/svg" width="1050" height="484.6" viewBox="-0.029717564582824707 0.022420167922973633 1050.0164794921875 484.51678466796875" style=""><g><g data-name="Layer 2"><path d="M268.5 279.2c2.2-1.7-6.6-1.4-7.4 0-3.8 5.7-10.1-2.1-18.5 0-7.9-2.2-16-3.6-24.1 0-10.8 2.6-11.9 1.4-24.1 0-5.1 2.1-8.4.7-18.6 0-6.5-.6-1.5 2.2-7.4 0 1.2 2.2 0 2 0 3.9 3.7 0-3.5 10.7 0 10.7-2.1 6.9-1.5 10.8 0 16.1 3.6.5 2.7 11.2 0 20.3-3.9 4.5 1.8 15.3 0 23 3.6 8.7-6.4 17 0 24.3.5 12.4 4.9 19.3 0 24.4 2.7 10.1.5 17.5 0 23 3.3 11.3 4.7 16.1 0 20.3 2.4 7.8 1.8 11.7 0 16.1v14.6h100.1V472c4.6-5 0-7.1 0-10.7s5.3-10.1 0-16.1c.8-7.9 7.4-13.8 0-20.3-.2-11.5 2.5-9.7 0-23 1.8-.4 1.7-17.1 0-24.4-.4-10.6 2-14.6 0-24.3a215.8 215.8 0 0 1 0-23c-2.1-8.1-.5-12.5 0-20.3-1.9-5.5-.6-7.2 0-16.1 2.1-5.7-.7-8.9 0-10.7 0 1.9-3.3-1.4 0-3.9z" fill="#ff7dbe"></path><path d="M433.1 76c.3 2.3-9.4 2-7.4 0-7.4-.4-12.5-3.5-18.6 0-4 1.7-16-2-24.1 0s-14.2-.3-24.1 0c-6.7 3.2-14.1-3-18.5 0-4.2 0-8.5-1.7-7.5 0 4.7-3-1.9-1.3 0 2.3-.1 2.9 1.9 0 0 6.4-.3 1.4 2.4 6.7 0 10.3.7-.4-2.4 7.3 0 13.6-2.8 2 3.7 10.8 0 16.7 3.5 7.6-2 9.6 0 19.3-1.2 8.5.7 13.1 0 21.5 3.2 8.1-1.7 14.1 0 23.2 3.2 9 4.8 10.9 0 24.7-.4 7.3-.9 23 0 25.7-.7 6.6.5 18.8 0 26.3.5 9.7-4.1 18.7 0 26.5 1.7 7.7-3.1 16.5 0 26.3 1.4 9.4.4 18.6 0 25.7s-.2 14.8 0 24.7c2.8 8.1.4 20.3 0 23.3-1.4 5.5 1.1 14 0 21.5 2.4 10.8.1 10 0 19.2.8 7 0 11.6 0 16.7v32.6h74.2c5.9 1 15.1-2.1 18.6 0a24.9 24.9 0 0 0 7.4 0c1.5.6.2.8 0-2.2s.2-3.9 0-6.5-.2-4.6 0-10.2-2.1-9 0-13.7c-.1-9.1-1.1-10.7 0-16.7 1.3-3 6.3-16.9 0-19.2-.1-6.3.8-12.9 0-21.5-2.4-6.7-.2-18.5 0-23.3-.6-8.5-1.4-17.8 0-24.7-4.1-7.8.4-17.3 0-25.7-4.9-11.3-1.6-15.1 0-26.3 3.4-8.3.1-15.9 0-26.5s-.5-17.7 0-26.3c-3-7.7-2.5-18.8 0-25.7-.4-6.4 3.9-16.9 0-24.7-2.3-6.4-1.5-16.9 0-23.2s2.9-15.5 0-21.5c4.1-7.5.9-13.7 0-19.3-2.3-13.2-2.4-12.4 0-16.7-4.1-4.7-.9-9.2 0-13.6s-5.4-2.1 0-10.3c-1.6-4.7.4-.3 0-6.4-3.1-5.2.4-1.5 0-2.3z" fill="#8417ff"></path><path d="M597.6 2.2c-2.8-3.1-6.3-2.7-7.4 0-3.2-3.1-6.8 4.4-18.5 0-7.9-.2-14.1 4.3-24.1 0-8.2.5-17.8 4.2-24.2 0-10.7 5.7-16.4 2.4-18.5 0-10.9.4-10.8-.5-7.4 0 .6 3.4 7.3 3.3 0 2.1-4.5 7.9-1.4 4.1 0 6-.5 6.4-2.6-.2 0 9.6 2.4 3.1 4 13.4 0 12.9 1.3 9.1 1.8 13.8 0 15.9s5.4 13.1 0 18.4c-2.7 9.4 2.9 13.1 0 20.8 2 3.6-2.9 18.5 0 22.7a42.2 42.2 0 0 0 0 24.4c4.1 5.8-4.7 15.9 0 25.7-2.8 5.6-.4 16.5 0 26.7.9 8.3 4.4 18.2 0 27.3.6 10.5 1.5 19.5 0 27.7 2.1 6.8 3.5 20.2 0 27.6-1.3 9.4-1.8 15.5 0 27.3-.1 7.3.3 20.4 0 26.7-4.5 5.6 0 21.6 0 25.7-.8 8.4.3 17 0 24.4 2.7 8.9-1.6 16.5 0 22.7s1.6 16.7 0 20.8c.4 6.3-3.3 14.7 0 18.5.9 2.4 1.5 7 0 15.8-1.8 6.3-2.1 7 0 12.9-.1.9 4.1 5.3 0 9.6-.1 5.1.3 4.6 0 6s-1.6 2.9 0 2.1c.8 2.6.7.5 7.4 0 7 1.9 13 .5 18.5 0h74.2v-8.1c-.6-4.6.8-5.8 0-9.6 2.9 2.2 4.3-5.9 0-12.9-.6-6.7 3.4-10.6 0-15.8-.4-3.7-.5-7.7 0-18.5s2.2-16.5 0-20.8c1.6-3.1 1.8-5.8 0-22.7 1.6-8-3.2-15.7 0-24.4.3-8.8-2.5-16.8 0-25.7 2.9-5.5.5-20.8 0-26.7s.6-18.1 0-27.3c-3.9-10.7 2.4-16.8 0-27.6 1.2-7.2-.6-20.9 0-27.7 1.4-10.7-.4-18.2 0-27.3 2-5.3-2.4-17.8 0-26.7-3-6.7.3-16.4 0-25.7 1.8-8 .2-19.2 0-24.4a113.6 113.6 0 0 0 0-22.7c-1.9-8.3 2.8-18.6 0-20.8-.9-7-1.3-12.9 0-18.4-.6-7.3.3-16.8 0-15.9.8-4.4-5.6-5.8 0-12.9.2-1.6-3.5-8.3 0-9.6s-1.3-2.2 0-6 5.8-.8 0-2.1z" fill="#ff4b27"></path><path d="M762.2 181.9h-26c-8.4-2.5-20.5 1.5-24.1 0-10.4 0-14.4-7-24.1 0-6.7 2.4-12.2-4-18.6 0-3.9-.2-4.8 6.8-7.4 0 2.4 5.8-2.2 4.1 0 3-.1 5.8 5.1 5.5 0 8.5-3.3 2.1 2 10.6 0 13.3 2.7 9.6 3.3 13.4 0 17.3 1.7 7.5-2 12.2 0 20.6-3.3 11.6 2.7 13.9 0 23.2 2.2 5.2 1.3 19.9 0 25 1.5 11.2.7 13.7 0 26.1-1.1 9.4-.2 14.3 0 26.5-3.2 5.2-.4 16.4 0 26.2 2 2.8.2 19.7 0 25-3.7 4.5-.6 15.1 0 23.2-4.9 5-2.4 13.4 0 20.6-.8 4.9-1.8 17.3 0 17.3-2.8 4.2 3.7 11.1 0 13.3 2.4 2 0 6.6 0 8.5v3h74.2c7.2-1.6 12.3-.8 18.6 0 4.9 4.1 7.4.9 7.4 0-1.4-3.7-2.1-1 0-3s.4-6 0-8.5c2.5-4.5 5.2-10.1 0-13.3-4.2-6.4-2.1-10.9 0-17.3-5.2-6.6-2.5-8.7 0-20.6-2.4-7.1-1.1-16.6 0-23.2a115.9 115.9 0 0 0 0-25c0-7.1 1.1-14.6 0-26.2 0-6.9 2.9-17 0-26.5-1.3-12.3-.9-18.7 0-26.1.2-9.6-1.5-15 0-25s.2-13.7 0-23.2c1.3-1.9.6-13 0-20.6-4.8-5.1-3.5-12.3 0-17.3 1.2-4.9-.8-10 0-13.3s.4-7.7 0-8.5z" fill="#8417ff"></path><path d="M416.4 254.8l-1.9.7a5.4 5.4 0 0 1 0-1.3 1.6 1.6 0 0 1 1.5-.3c.2.1.3.5.4.9zm-12.6 4.2h1.1l-1-.3s-.1.2-.1.3zm10.3-5.3l-3.7 3.3h.4l3.3-1.3a6.6 6.6 0 0 0 0-2zm10.5 4.1l.3-.4-.2-.2-.5.2zm-21.8-2l-1.1.4-1.3 1.2a2.5 2.5 0 0 1-.4.7l2.4-.4a10.6 10.6 0 0 0 .4-1.9zm-41 8.4a2 2 0 0 1-1.4.3 7 7 0 0 1 .6.9 8.3 8.3 0 0 0 .8-1.2zm54.9-2.3zm-14.4-2.7l1.5-.2-.6 1.9-1.7-.6c-.2 2.3-.3 3.9-.4 5.5h.5a5.3 5.3 0 0 0-1.7 1.9l2.4 1.3a10.4 10.4 0 0 0-.6 1.6h-3.4a1.7 1.7 0 0 0-.1-.7l.9.5c.1-1.9.2-3.6.3-5.4l-.7-.4c-.5 1.2-1.4 1.1-2.4.9a.9.9 0 0 1-.1-.5l-.8.3a3 3 0 0 0 0-1.9 6.3 6.3 0 0 0 4.1-2.1l-1.2 3 .8.4 1.9-3.7-.9-.5c.1-.3.3-.7.4-1.1l-1-.2a2.1 2.1 0 0 1 .4-.6 2.5 2.5 0 0 0-.2-.7h.3c.8.6 1.5 1.3 2.3 1.3zm-1.7 6.7a1.3 1.3 0 0 0-.6-.5l-.5.6c0 .1.4.5.4.4a1.8 1.8 0 0 0 .7-.5zm17.4-1.4h.1l-.5.8h.2a13.3 13.3 0 0 1-1.9 1.4l-.9-.9-2.2 2.1h-1.2v-1l.6-.4.8.6 2.5-3.2zm-2.5.8h-.3c0 .1-.1.2-.1.3s.2.1.3 0a.3.3 0 0 1 .1-.3zm5.1-3l.7-.2-.7.2zm-2.5 2.3h.5l2.1-2a.8.8 0 0 0-.1-.4 5.9 5.9 0 0 0-2.5 2.4zm3.3-11l3.8 2.3-1 .7.5.6c.1 0 .3.2.2.2l.4.5-4 4.2h.1l4.1-1h.1a2.2 2.2 0 0 1-.1-.8l-.3.2-.6-.9 2.5-3 .4 1 .3-1.6c-1.1.1-2.1-1.3-3.3-1.5l1.4-.9-.6-.2a5 5 0 0 1-.8.7c-.4-.6-1.2-1.2-1.1-1.6l.2-.3-1-1.5c0 .1-.2.2-.2.3a.6.6 0 0 0-.1.4h-.3l-.6.6.3.3.6 1.5h-.6a6.5 6.5 0 0 1-.4-1.3h-.2a10.4 10.4 0 0 1 .3 1.2zM433.1 76zm-15.2 183.8l-1.7 1.7.5.4 1-.8.9-.7-.5-.2a.8.8 0 0 1-.2-.4zm3-1.2l-2.3 1.8h2c.1-2.1 2-2.8 3.6-3.9zm-4.9 3.8l.7-.5-1.2.3zm-.5 1.5l1-1.2-.5-.3-2.3 1.8a5.2 5.2 0 0 1 1.8-.3zm-67 4.8a9.4 9.4 0 0 1 .4-1.6l-1.3 1.2zm-2.1-1.4c0-.1 0-.1-.1-.2l-.3.2zm79.3-6.1v-.2h-.1a.2.2 0 0 1 .1.2zm-83.5 7.5h-.1a.1.1 0 0 0-.1.1h.2zm3.8-1.4h-4c-.1 0-.1 0-.1.1l.3 1.4a24.6 24.6 0 0 1 3.8-1.5zm-1.6.6c.2.3.3.7.4.7l.8-.3c0-.2-.1-.6-.2-.6zm81.2-6.9h-.1a.1.1 0 0 1 .1.1zM433 76.1c-.3-.1-2-1.7-.6.9.4-.3.7-.5.6-.9zM416.1 253l-2 .3a5.3 5.3 0 0 0 2.2.2zm-68.7 18.8l-.2-.3c-.1-.1.2-.7.7-1.2l-3 .9zm6.6-7.1l-1.2.3-3 1-.9 1c3.1.6 4.1.1 5.1-2.3zm-11.9 4.5a9.3 9.3 0 0 0-.5 1h1.1a2.7 2.7 0 0 0 0-.9zm3 .4h.2l.2-.2h-.2c-.1 0-.1.1-.2.2zm11.5-5.5l2.3-.8-1.1-1.1c-.4.7-.9 1.7-1.3 1.6a7.5 7.5 0 0 1-2.5-.9 1.9 1.9 0 0 1 .2 1.3c-.1.2-.2.3-.2.5l2.6-.6zm-8.7 6.2l.7-.3.8-.4-.9.2c-.2 0-.4.3-.6.5zm-3.9 1.1l.9-.2-.9-.3zm13.2-5.7l-.5-1.2 2.5 1.7c-.2.8-.5 1.6-.7 2.3s-.1-.3-.1-.4l-1.4.9-.9-.5-2.9-.4c-.1 0-.3.9-.3.9h.1l-.7.9c.8.1 1.4.4 1.6.2a.9.9 0 0 0 .4-.6 5.6 5.6 0 0 0 1.6.7c.3.1.7-.5 1-.8l1.5-.4a6.5 6.5 0 0 1-.4 1.3h.8a.9.9 0 0 0 .4.6c.4.5 1.6.2 2.5.2s.1-.2.1-.3c.4-.9.9-1.7 1.3-2.5l1.2-.9a6 6 0 0 0 3.9.6c0 .7-.1 1.2-.1 1.9a8 8 0 0 0 2.1-1.5c0 .8.1 1.5.1 2.3a24.1 24.1 0 0 0 4.9-.7l2 1.4-8.4.3h.1a2.7 2.7 0 0 0-.4-.7l-.7.6v.2h-1.6l-.2-.5-1.1.6h-2.4a3.9 3.9 0 0 0-2.8.1h-1.6c0-.2-.1-.4-.1-.6l-.6.3a.4.4 0 0 1 .1.3l-5.2.2a13.1 13.1 0 0 1-1.7-2.4h.3c-.1-.2-.1-.4-.2-.5h-.5a.8.8 0 0 0 .1.4l-1-.2c2.8-1.1 5.3-2.5 7.9-3.8zm8.6 5.1h.2a2.6 2.6 0 0 0 .2.5l.9-.3c0-.1-.2-.4-.3-.7s.1-.3.1-.4l-1-.2c0 .5-.2.9-.1 1.1zm-2.6-.6c0 .1.1.1.2.1v.2c.4.1.8.3.9.2a.7.7 0 0 0 .3-.8l-.2-.2c0-.3 0-.5-.1-.6s-.6-.3-1.3-.5 0 1.3.2 1.6zm-6.6.7c.2.2.3.4.5.4s.7-.1 1.2-.2l-1-.8zm-.5-3.5l-.3-.6h-.6c0 .3.1.6.1.9a2 2 0 0 0 .8-.3zm.6-2.9c0-.1-.1-.2-.1-.4h-.3zm59.9-9.8l-.3-1.2 2.5-.5a1.9 1.9 0 0 0 2.6.6 26.4 26.4 0 0 0-3.4 4.1.4.4 0 0 0-.1.3c-1 0-1.4.3-1.6 1.1s-.3-.4-.6-.9-.8.7-.9 1.1.4.5.6.7l.9-.8a8.7 8.7 0 0 0-.4 2.1l-.8-.5-.4.7a.8.8 0 0 0 .2.4 3.8 3.8 0 0 0-3.2-.6c-.8-.4-1.3-.8-1.6-.7a5.5 5.5 0 0 0-1.2 1.4l.9.7c-.1.4-.3.7-.4 1.1l-.4.2a3 3 0 0 0 .4.8.1.1 0 0 1 .1-.1c0 .2.2.3.2.4l-.3.3.5.4.2-.2 1 1c-.9 1.1-1 1.1.6 2.6l1.1-1.2a1.9 1.9 0 0 0 1.3-.1l1.8-1.1a20.8 20.8 0 0 0 2.1 2.1l-4.2.3a4.9 4.9 0 0 0 .4 1.1h-3.6v-.3h-.3c-.4-.8-1.4-1.3-2-2l-1.2.5c.2.4.3.9.5 1.4s-.1 0-.1.1a.3.3 0 0 1 .1.2c.1 0 .1.1.1.2h-2.9l.3-1.1c.4-1.2.8-2.4 1.1-3.5s1.7-3 .5-4.4h-.6c.5-.5.6-1.5.9-2.3a12.5 12.5 0 0 0-1.9.3c.1-.2.1-.4.2-.6h-.4l2.8-.7 3.1-1.2c2.1.4 3.1.1 3.3-1.3l.4-.2a.9.9 0 0 1 .1.5c.8-.3 1.6-.4 1.8-.7v-.5h.2zm-1.9 13.1c.2.2.4.5.7.6s.3-.2.5-.3l-.6-.7zm-1-8.2l-1-2.2-1.1.6 1.3 2.1zm3-3.2l-.3-.7-.8.6.3.5a2 2 0 0 0 .8-.4zm12.8 12.9l.5-.4a1.8 1.8 0 0 1 1.8-1.2 3.4 3.4 0 0 1 1.4-.2 7.6 7.6 0 0 1-.1-1.5v-.3a6.5 6.5 0 0 0-2.5 1.6c0-.1.1-.3.1-.4l-2.6-.4a.9.9 0 0 1-.1.5l1.3 2.2zm2.9-9.9a.2.2 0 0 0-.2-.2l1-1v-.6l-.7-.2a9.4 9.4 0 0 0-1.3 2.4c.5-.3 1-.5 1.2-.4zm-.2-8.3c.5.3.8.6.8.9a1.4 1.4 0 0 1-.2.6c0 .2.1.5.1.6a8.8 8.8 0 0 1-.5 1.5h.1l.6.2c0-1.5-.1-3-.1-4.5l-.9.7zm-3 3.8zm-1.4-1.6l.5.4a.9.9 0 0 1 .1-.5zm-.9 8.9c-.1-.2-.3-.5-.2-.6h.1v-.2a.9.9 0 0 1-.6.3l-.3-.2 1.1 1.2c0-.3 0-.4-.1-.5zm-1.5 3c1-.1 2 .1 3.1.1h-.1l1.9-.3.6.2a4.5 4.5 0 0 1 2.2-2.8v-.2h-.9c0-.1 0-.2.1-.2l-1-.4-1.3.6c.1.8.1 1.8-.2 2s-2.4-.1-2.8-1.7a7.6 7.6 0 0 0-1.9 1.2zm.9-4.8a.5.5 0 0 1 .4.2 1.3 1.3 0 0 0-.1-.6l-.6.5zm.3-.4l.5-.2a1.5 1.5 0 0 1 .1-.7 3.3 3.3 0 0 1-1 .6l.4.3zm-20.9 1.8zm-10.9 8l-.6-.4h-.5a10.1 10.1 0 0 0-.7 1.5h3.4l.6-.3-2.1-1.2a.8.8 0 0 0-.1.4zm4.9-11.7zM383.3 270h-.2l-2.5 1.5h3c0-.2-.1-.4-.1-.6l-.4.3-.4-.9zm4.4.2h-.3l.3.3zm-12.4-5.5l.6-1.4-1.4-.3a13 13 0 0 1 .8 1.7zm47.7 1.8l-.4-.5-2.6 2.8h.4l.9-.8.6 1h.6a3.4 3.4 0 0 1 .2-2zM332.9 95c2.4-3.6-.3-8.9 0-10.3 1.9-6.4-.1-3.5 0-6.4a2.5 2.5 0 0 1 0-2.5c-.2-.3 0-.5.3-.5s2.1-1.2.7 0c1.5.1 4 .7 6.5.7 4.4-3 11.8 3.2 18.5 0 9.9-.3 14.5 1.8 24.1 0s20.1 1.7 24.1 0c6.1-3.5 11.2-.4 18.6 0-1.6 1.7 4.6 2.1 6.7 1l.7 1.3c.4 6.1-1.6 1.7 0 6.4-5.4 8.2.9 5.1 0 10.3s-4.1 8.9 0 13.6c-2.4 4.3-2.3 3.5 0 16.7.9 5.6 4.1 11.8 0 19.3 2.9 6 2.7 14.3 0 21.5s-2.3 16.8 0 23.2c3.9 7.8-.4 18.3 0 24.7a43.1 43.1 0 0 0-1.9 10.2h-.4c-.3.1-.6.7-1.2 1.4a8.6 8.6 0 0 0 1.5.5 35.8 35.8 0 0 0 2 13.7 9.7 9.7 0 0 1-.1 1.7l-.3-.3c-.1 0-.7.6-.6.7l.9 1.2h-.3c.1.3.1.6.3.8 0 .8-.1 1.6-.1 2.5l-1.1-.4a3.7 3.7 0 0 0-.1-1.1 16.5 16.5 0 0 0-1.5-2.5l-.8.3a16.7 16.7 0 0 0 .8 3.2h.3l-.3.2.2.2h.5v-.3h.7l1.4 1.1a.1.1 0 0 1 .1-.1v2.1l-4.2-1.6-1.5 2.4c-1.6-1.4-3.1-2.5-4.6-.3a11.6 11.6 0 0 0-3.2.8 5.9 5.9 0 0 0-2.6-.2l-.9-1.3-2.5 2v.2h-.3l-2.1-1.6c0-.1-.8.6-.7.9a1.4 1.4 0 0 0 .2.6l-.3-.2-.6.8c.2.2.5.5.7.5s.3-.2.5-.4a3 3 0 0 0 2.9 1.3.1.1 0 0 0 .1-.1h.2l-1.7.2-4 1-5.6 1.3.7-3.2h-1a.8.8 0 0 0 .2-.5h.1c.1-.4.3-.7.4-1.2s0-1.3-.4-1.5a1.6 1.6 0 0 0-1.5.2 33.7 33.7 0 0 0-2.4 3.7h-.4c0-.5-.1-1-.1-1.5l-.7.2.8 1.3h.1v.4l-.3.4h-.1l-1.1 1.4.9.3a9.9 9.9 0 0 1 .2-1.7h.4a15.5 15.5 0 0 0 .1 2.2l-1.6.8 1.6.6v.6l1-.2-.6.3a3.6 3.6 0 0 1-.4.9l-3.8-.6a2.8 2.8 0 0 1 .1-.9c-.4.1-1 0-1.3.3a6.9 6.9 0 0 0-.6 1.4h.7l.3 2.6-1-.7a5.3 5.3 0 0 0-1.3-1.3h-.2c-.2-.3-1.7 0-2.2.4s-.9 2-.7 2.1l.9.8-2.1.2v-.3c-.4.1-.9 0-1 .2s0 .6 0 .9h.9a.4.4 0 0 1 .1-.3 12.6 12.6 0 0 0 1.1 1.7L385 267l-1.2-.4a2.5 2.5 0 0 1 .2.7l-.4.2c-.7-1.3-1.1-2.2-1.7-3.4l-2.8 2.6a29.9 29.9 0 0 1 2.6 2.2H380c-.2 0-.2 1.1-.4 2.4h-1.5c.4-.3 1-.9.9-1a14.2 14.2 0 0 0-.8-1.8h.2c.1.1.3-.1.3-.2l-.3-.5-.3.3-.2-.3a20 20 0 0 0 1.6-2.4 3.1 3.1 0 0 0-.6-2.6l.5-.3a22.9 22.9 0 0 0-1-2.3l-.9.6a6.7 6.7 0 0 0-1.6-1.4l-.4.5c-.3.3-.6.5-.7.8h.1l-1 1.2h-.8a3.3 3.3 0 0 0-2.1-2.4l.7-.5a13.3 13.3 0 0 0 1.5-2.2h-5.9l1.8-1.4 1.1 1 .6-.6h.4l1.5.9a5.6 5.6 0 0 0 .5-.8l-1.7-.4c-.1-.3 0-.7-.2-1l-1.4-2.1h-.1c-.1 0-.1-.1-.2-.2l-.3-.2-.4.5h-.1c.2.7.5 1.3.7 2l-.6-.7-1.4-2.9-2.7 4.6 2.5 1.4c.3 2.1.5 4.2.8 6.5h-.7c0 .6.1 1.1.1 1.5s.8 0 1.1-.2v.2a10.5 10.5 0 0 0-3.9.5l-2.9-1.4a1.9 1.9 0 0 0-.2-.8h.2l-.4-.5a1.8 1.8 0 0 0-.5-.7l2.1 1.1c0-2-.3-3.7-2.3-4.4s-1.4.3-2.2.5.6 1.5 1.1 1.9l.7.4a4.3 4.3 0 0 0-2.3.4l-.6-.9-2.1.2c0-.5-.2-1.3-.3-2.1l-3.1 2.3.3 1 1.1-.3v.3h.2a1.3 1.3 0 0 0-1.1.2 40.3 40.3 0 0 0-2.6 3.2l-.8.3-2.7.8c-.8-1.6-1.6-3.1-2.5-4.6h-.8a1.5 1.5 0 0 1-.4 1.4c-.3-.3-.5-.5-.6-.4a4.7 4.7 0 0 0-1.7.9l.3.5c-1.1.3-2.1.9-1.5 2.8l1.1-.2a.5.5 0 0 0-.4.2l.3.5a2.2 2.2 0 0 1-.1.8h.9a5 5 0 0 1 .2-1.2h.2c0-.1-.1-.1-.1-.2v-.3h.7l-.6 1.4h.7c-.5.3-.7 1.3-1 1.9s1.6.9 2.3.8h.7v1.3h-1.4l-4.8.2.6-.7h-1.2l.3-.3c1.1-1-.2-5.4-1.7-6.8l-2.9 2a3.3 3.3 0 0 0 0-1 77.9 77.9 0 0 0 .1-8.5l1.2-.5.6.3.5-.8 1.4-.7a2.4 2.4 0 0 0-.2-.8l-3.6.5v-2.2a.1.1 0 0 0 .1-.1c0-.2-.1-.5-.1-.7a2.8 2.8 0 0 1-.1-.9 111.9 111.9 0 0 1 .1-11.8c-.9-2.7-.4-18.4 0-25.7 4.8-13.8 3.2-15.7 0-24.7-1.7-9.1 3.2-15.1 0-23.2.7-8.4-1.2-13 0-21.5-2-9.7 3.5-11.7 0-19.3 3.7-5.9-2.8-14.7 0-16.7-2.4-6.3.7-14 0-13.6zm1.8 168l-.5-.7-.5.5c.2.2.3.5.4.5s.4-.2.6-.3zm70.9-8.5l-.2-.7c.1 0-.2-.4-.3-.5h-.6c0 .2.1.4.1.6l-.2.2c0 .2.3.5.4.8s.7-.2.8-.4zm6.4-6a10.4 10.4 0 0 1-.4-1l-3.2 1.2.7 1.4zm-.1-5a1.4 1.4 0 0 0 .2-.6c-.1-.2-.5-.3-.9-.5v.6l-2.6.6.2 1.2 3.3-.2a4.3 4.3 0 0 1-.2-1.1zm4.6 4.2c-.1-.1-.1-.4-.3-.5l-.6.2a2.5 2.5 0 0 1 .4.7 1 1 0 0 0 .5-.4zm.4-3c0-.3.1-.6.1-.9l-1.1-.2-.5-.6c-.4.4-1.1 1.1-1 1.2l1.1 1.1c0 .3-.1.5-.1.8l1.1.2.3-1.2.2-.2c0-.1-.1-.1-.1-.2zm12.7-6.4c-.1-.2-.5-.2-.9-.4s-.2.8-.1 1a.6.6 0 0 0 1-.6zm-1.3-8.4l1 1.2a12.9 12.9 0 0 0 .4-1.9h-.9c-.1.2-.5.6-.5.7zm-.7 4c-.1-.2-.6-.2-1-.4a4.1 4.1 0 0 0 .1 1.2c.1.1.6.1.6 0s.4-.6.3-.8zm-1.8-3.4a9.1 9.1 0 0 0 1.4.7 12.9 12.9 0 0 0-.4-1.9l-.8.3c-.1.3-.3.8-.2.9zm-3.8 17.9c3.2.2 3.4.1 4.4-2.4-2.2-.4-3.9-.3-4.4 2.4zm1-11.4l-.6-.2-.9.6 1.1.5a3.6 3.6 0 0 0 .4-.9zm2.4-8.5l-.6-1.1a4.1 4.1 0 0 0-.5.9c-.1.1.2.5.2.5a3.2 3.2 0 0 0 .9-.3zm-1.6-3l.4.4c.3-.1.5-.4.7-.6l-.6-.5a1.8 1.8 0 0 0-.5.7zm-1 6.9l.5.4a5.9 5.9 0 0 1 .4-.8l-.6-.4a4.1 4.1 0 0 0-.3.8zm-.2 1.8h-.9c0 .1.1.1.1.2h-.2c.1.1.1.2.2.2v.5h.6l.6-.6c.1.1-.2-.3-.4-.3zm-1.1-3.5c0 .2.4.4.4.4a2 2 0 0 0 .6-.7l-1-.7a3.3 3.3 0 0 0 0 1zm-.9-5.4h.4a.4.4 0 0 1 .1-.3h-.3c-.1.1-.1.2-.2.3zm-.7 3.1h.5a2.5 2.5 0 0 0 .4-.7l-.7-.3a2.9 2.9 0 0 0-.2 1zm-1.5 10.3c.5 1.7.9 3.1 1.2 4.5l-.6.2-.4-.6-.5.4.5.3-1.1 1.2c2.8 1.4 3.1 1.4 5-.4l-1.2-.7c.3-1.5.7-2.9 1-4.5zm-.1 1.4l-1.4-.6c-.1-.5-.1-.9-.2-1.4l-.6.2.7 1.2a11.4 11.4 0 0 1 1.1 1.1 1 1 0 0 0 .4-.5zm-.9-5.9l-1.2 1.8.8.5a11.8 11.8 0 0 0 1.1-1.9zm-1.4-7.6c.2.2.3.6.5.7a1.1 1.1 0 0 0 .8-.5 4.5 4.5 0 0 0-.5-.8zm-.7 15.1c-.1.1.2.3.4.4l.6-.7-.6-.5c-.2.3-.4.5-.4.8zm-.4-3.3l-1-.7-1.5 2.1.9.7zm-1.2-6.8l-.5 1 .8.4a1.1 1.1 0 0 0 .5-.8zm-.6-.8a3.1 3.1 0 0 0 .2.8l.6-.3c-.1-.2-.1-.5-.2-.6s-.4.1-.6.1zm-.8 6.8l.5.6.4-.5c-.1-.2-.2-.5-.4-.5zm-2-.1l1.8-.9c.2-.2.1-.6.1-1a6.6 6.6 0 0 0-1.5.3c-.2.1-.2.7-.4 1.6zm-4.4-2.8c-.1.1 0 .5.1.5s.7.1.8-.1 0-.6-.2-1.8a8.6 8.6 0 0 0-.7 1.4zm-3.4-3.3l.5.2.5-.7-.6-.3a2 2 0 0 0-.4.8zm.9 5l-.4.5.6.2.2-.3zm-2.5 5.8l2.8.7 1.8 4.2-2.1.6c1.3 1 2.2 1.3 2.9 1.2l.3.5 2.7-1.6-1.3-1.1.2-.4h-.5c-.5-.6-.3-1.1.4-2l.3-.3h-.1l.2-.3a9.3 9.3 0 0 0 .9-2.6l-3.7 1.2h-.2l-1.8.5c.5-.7.9-1.4 1.4-2l3.3-.3c0-.3-.1-.7-.1-1l-3.4-.2a1.9 1.9 0 0 1 .1.8l-2.8-3.2c-.5 2.3-.9 3.8-1.3 5.3zm-.6 6.3c0-.2-.4-.3-.8-.6a7.4 7.4 0 0 0-.2 1.2l.6.2c.2-.2.5-.6.4-.8zm-1.2-5.8c-.1.2 0 .6 0 .9s.7.1.9-.1.1-.6.2-1-.9 0-1.1.2zm-.5 4.4c.1.2.3.2.5.3l.3-.8h-.6c-.1.1-.3.4-.2.5zm-25.6 4.6l-.6-.2a3.6 3.6 0 0 0-.4.9l.7.2zm2.3 7.7c0-.2-.3-.4-.7-.7a9.7 9.7 0 0 0-.3 1.1l.5.3c.2-.2.5-.4.5-.7zm4.4-4.1a2.4 2.4 0 0 0 .2.8 12.9 12.9 0 0 0 1.6-1.8l.4.4 1.6-1.4-.6-.7-1.2 1.1a3.4 3.4 0 0 0-.1-2.2c-.3-.6-1.2-.9-1.9-1.3s-.1.2-.1.4a.4.4 0 0 1-.1-.3l-2.6 2.1h-.9v.2l-1.3-.7c.1.8.2 1.4.3 2.1l-.8.6 1 .7c.1 1.2.3 2.3.4 3.4a15.9 15.9 0 0 0 1.3-2.2l1.6 1.2c.3-.8.8-1.5 1.2-2.4zm5.2-.4l.2.5c.2 0 .5.1.6-.1s0-.4 0-.6zm.2-2.4a3.6 3.6 0 0 1-.3-.7l-.8.4c0 .1.2.6.3.6zm.5-6.3a3.2 3.2 0 0 0-.3-.9l-1.1.4c.4.3.5.6.8.7s.6-.1.6-.2zm-2-.9c-.4.7-1.2 1.4-1.3 2.1a8.8 8.8 0 0 0 .6 2.7h.9c.3-.8 1-1.7.9-2.5s-.7-1.5-1.1-2.3zm-.8-2l-1.2.3a2.8 2.8 0 0 0 .1.9c.2 0 .5 0 .6-.2a4.6 4.6 0 0 0 .5-1zm1.9 20.7l-.7-.3a1.9 1.9 0 0 0-.3.8c-.1.1.4.3.5.3a5.6 5.6 0 0 0 .5-.8zm1.6-2.8a3.4 3.4 0 0 0-.3-.8 2 2 0 0 1-.8.4l.2.6zm.4-2.4l-2.2-2.2h.3s.3-.9.2-.9l-1.9-.6-.2-.3-.8.2c1.3 2.9-4.5 2.6-2.3 6.1l2.3-1-.6.5.8.7a.3.3 0 0 1-.1.2h.3a12.7 12.7 0 0 0-.1 2l1 .3c.8-1.6 1.7-3.2 2.7-5zm1.1-21.7a1.5 1.5 0 0 0 .2-.9l-.7-.2a2.7 2.7 0 0 0 0 .9zm2.9 17.1l-1.1-.2v3h.8zm.1-2.4l-.3-.7-.7.4c-.1.1.1.5.2.5zm1.9 7.7a2.6 2.6 0 0 0-.4 1c0 .1.5.4.6.4a.9.9 0 0 0 .5-.7c0-.2-.4-.4-.7-.7zm1-3.6s-.2-.5-.3-.5l-.8.2c.1-.1.2-.2.1-.3s-.4-.3-.8-.6a6.5 6.5 0 0 0-.2 1.1l.5.3.4-.4a1.4 1.4 0 0 1 .2.6zm1.4-.2c-.1-.2-.2-.5-.3-.5l-.9.3c.2.3.3.6.4.6zm1.2-5.4l-.8-.6h-.1l.3-1-.7-.3a3.9 3.9 0 0 0-.8 1l-.2-.3-.5.5c.1.2.2.5.3.5h.2v.2l-1.3.5-.6-.2.2.3-.5.2c0 .4.1.8.1 1.1l1.1.2a25.1 25.1 0 0 1 1.1 2.3 9.1 9.1 0 0 0 .5-2.2h.7c.5 0 .7-1.4 1-2.2zm1.5-4.7c-.2-.2-.5-.2-.8-.3s-.2.7-.1.7a1.1 1.1 0 0 0 .8.1c.1 0 .2-.5.1-.5zm-.5-12.9c.4.1.8.2 1 0s.2-.6.3-1.1-1 0-1.1.2-.1.6-.2.9zm-.6 1.2l.3.5.6-.7-.5-.3c-.2.2-.4.3-.4.5zm-2-9.2l.9.3.9-1.9-.9-.5zm-.9 6.6h.6a1.3 1.3 0 0 0-.1-.6c0-.1-.3-.1-.3 0s-.1.5-.2.6zm-2.6 11l2 2h-.7l-1.1 1-3-1.4-.8.7.4.8h-.1c0-.1-.2.1-.1.2a.5.5 0 0 0 .2.4.2.2 0 0 0 .2-.2 2.8 2.8 0 0 0 1 1.3 7.7 7.7 0 0 0 2.2.1h1c0-.4.1-.9.1-1.3l-.4-.2 1-.7c.1-.1.1-.4.1-.6l4-1.4a2.4 2.4 0 0 1-.2-.8zm-1.8-7.9c0 1.4 0 2.5.1 3.9h-.9c.2.6.1 1 .3 1.3s.6.1.9.1a3.4 3.4 0 0 0 0-1c1.8-2.2 1.7-2.4-.4-4.3zm-7.9 2.4c4.4-.3 5-4.1 6.7-6.7l1.2.6c.1 0 .2-.3.4-.5l-1.6-.6a6.4 6.4 0 0 0-2.4.5c-2.5 1.4-3.4 4-4.3 6.7zm-.8-5.9l.8.2v-.6a.7.7 0 0 0-.6-.1c-.1 0-.1.3-.2.5zm-1.3 9.1c0 .3.2.8.3.8s.6-.2 1.1-.4-.6-.6-.9-.7zm-1.8 3.2l.8.5c0-.3.1-.6.1-.9s-.4-.1-.6-.2zm-1.7-16.7l.3.8h.6a2.8 2.8 0 0 0-.1-.9zm-1 15.9a1.2 1.2 0 0 0-2.3.6c.3 1.3.6 2.6 1 3.9l-.5.8.8.6.3 1.7.8-.4-1.1-1.3a6.9 6.9 0 0 0 1.9 1c.1 0 .2 0 .3-.2l1.1 1.1.9-.8-.8-.7.2-.3c-.2-.1-.4-.3-.6-.2l.6-.7-2.4-.4c1.2-1.5 1.1-2.6-.2-4.7zm-1.5-6.9c-.4-.1-.9.5-1.6.9s1.1 1.2 1.5 1.2 1.1-.6 1.1-1a1.6 1.6 0 0 0-1-1.1zm-1.9-2.6a2 2 0 0 0 .4.8l.5-.2a2.9 2.9 0 0 0-.2-.9zM336 264l-.3-.7-.7.4c-.1.1.1.6.1.6zm.4-1.1v-.8h-.8c.1.3.1.6.2.8s.6.1.6 0zm7.2-.9l-1.3-1.5-.6.7a4.6 4.6 0 0 0 .3.9 8.1 8.1 0 0 0 1.6-.1zm-.8-2.5l.8-.4c.1 0-.1-.3-.3-.6l-.7.5c0 .1.2.3.2.5zm1.7 3.1c-.1 0-.2-.2-.2-.2h-.3l.3.3zm1.7.4a8.7 8.7 0 0 0 .7-1.7l-.7-.3c-.3.3-.8.6-1 1.1a5.8 5.8 0 0 0-.4 1.9l.9.3.3-.6c.2 0 .4.1.5 0s.1-.4.2-.6zm1.8-4.9l-4.6 1.9c2.9 1.7 3.8 1.2 4.6-1.9zm3.7-2c-.1-.6-.3-1.1-.4-1.7l-3.1 1 .3 1.2zm2.5-10c.1-.1-.3-.3-.6-.4l-.3.8.5.3a1.3 1.3 0 0 0 .4-.7zm-.1 3.4c.1.2.6.2.9.3a3.5 3.5 0 0 0 .3-1.1c0-.2-.5-.3-1-.6a4.2 4.2 0 0 0-.2 1.4zm-1.2-.4l-1.3 2.2 1 .6a25.3 25.3 0 0 0 1.3-2.2zm-2 3c-.1 0-.2.5-.1.6s.7.4.8.3.2-.6.4-1.1-.8 0-1.1.2zm4.8 4.6l-3.4-3-.9.4c.2 1 .2 2.2.8 2.8s2 .6 3 .9a5.4 5.4 0 0 0 .5-1.1zm.3-6.1l1.2 1a1 1 0 0 1 .4-.5l-1.5-.6-.4-1.3-.5.2a8.3 8.3 0 0 0 .8 1.2zm4.9 7.3l-.7-.6c-.2.3-.4.7-.3.7l.7.4c.1 0 .4-.5.3-.5zm1.2-3.1c-2-1.1-3.6-1.6-4.9.9l2.3.7c-.1.1-.1.1-.1.2s.4.4.5.3l.5-.6a6.9 6.9 0 0 0 1.7-1.5zm-1.5-4.5h.5v-.6l-.6.2zm2.9 7.4l.3-.8-.7-.3a2.9 2.9 0 0 0-.2.9c0 .1.5.2.6.2zm3.4 4.3l.3.8a1 1 0 0 0 .5-.4 1.1 1.1 0 0 0-.2-.5c-.2-.1-.4.1-.6.1zm-3.1.7c-.1.4.7 1 1.1 1.5s1.3-1 1.5-1.6-.5-1.1-1.1-2.1c-.7 1-1.4 1.5-1.5 2.2zm1.9-17.9c-.5-.1-.9-.3-1.1-.2s-.3.6-.5.9.7.3 1 .2.3-.5.6-.9zm2.5 1.7l-.7.3a3.6 3.6 0 0 0 .2 1.5 9.3 9.3 0 0 0 1.3 1.5l.8-.6zm-1.6-6.6a2.9 2.9 0 0 0 1.1 1.1 12.3 12.3 0 0 1 .2-1.9h-.9c-.2.3-.5.7-.4.8zM364 237l.7.5 1.5-1.5a6 6 0 0 1-.8-.8zm-.3 11.5l.6.2c.1-.3.1-.6.2-.9l-.8-.2a2.7 2.7 0 0 0 0 .9zm-.9-10.8a2.6 2.6 0 0 0-.4 1c0 .2.2.6.3.5l.8-.4zm-1.2-1.7s.4.4.5.3l.6-.6-.6-.4a1.8 1.8 0 0 0-.5.7zm-.4 7.1l.6.2.4-.9-.7-.3a2.9 2.9 0 0 0-.2.9zm-1 2l.9.7a1.2 1.2 0 0 0 .6-.6l-.4-.4zm-2 7.8h1.1a2.1 2.1 0 0 0 .2-.6 3 3 0 0 0-.8-.4 9.3 9.3 0 0 1-.5 1zm-4.2-15.1c.2.2.4.6.6.6a1.2 1.2 0 0 0 .7-.5c0-.2-.3-.5-.5-.8zm-5.3 1.1l.8.4a1.4 1.4 0 0 1 .2-.6l-.6-.3c-.1 0-.2.3-.4.5zm-.8 5.8c4.2 1 5.9-2.4 8.2-4.4l1 .9a.9.9 0 0 0 .5-.4l-1.2-1a7.4 7.4 0 0 0-2.5-.2c-2.9.6-4.4 2.8-6 5.1zm-2.4-10.6l.6.2a2.8 2.8 0 0 0 .1-.9l-.7-.2c0 .3-.1.7 0 .9zm-.9 12.7l.2.5c.3 0 .8 0 .8-.2s-.1-.5-.4-1.8c-.3.9-.5 1.1-.6 1.5zm-.4 4.7a7.7 7.7 0 0 0 .2 1.5l3.3-.5a4.1 4.1 0 0 1-.1-1.1h-.5v-.2H346a.4.4 0 0 0-.1.3zm-.8 2.6c-.3.2-.3.9-.4 1.7a6.8 6.8 0 0 0 1.8-.2h.1a.9.9 0 0 0 .6-.3 9.5 9.5 0 0 0-.1 2.4l.7.4a8.7 8.7 0 0 0 1.7-2.2c.2-.7-.3-1.6-.4-2.5s-1.5.9-1.8 1.6l-.4-.8-.2.2a1 1 0 0 1-.1-.4 1.4 1.4 0 0 0-1.5.1zm-1.4-4.8h.5l-.3.3.6.7a3 3 0 0 0 .4-.8l-.5-.3v-.2l-.4-.3zm0 7.8l-2.4.9.4-.4-.5-.3s-.2.2-.2.3a.8.8 0 0 1 .2.4l-3.9 1.6c1.1 1.6 2 2.7 2.9 3.9h-.6a1.9 1.9 0 0 0 .4.9c.1.2.6.2.6.2a2.9 2.9 0 0 0 .2-.9h-.1c1.8-1.7 3.7-3.2 3-6.6zm-3.3-.8c.3-.1.8 0 .9-.2s.1-.6.1-1-.9.1-1 .3 0 .6 0 .9zm2.3-12.5l.5.2a2.5 2.5 0 0 0 .4-.7l-.6-.3c-.1.3-.3.5-.3.8zm-.9 10.5c-.1 0-.2.2-.4.4s.3.3.5.3l.4-.3a.7.7 0 0 0-.5-.4zm-.8-16.2c.1.3.1.6.2.9h.6v-1zm-2.1 15.5a11 11 0 0 0-.2 1.8l.9-.2-.7-1.6c3-1.4 3.5-2.3 2.6-5.3-.1-.5-.7-1.1-1-1.1a1.8 1.8 0 0 0-1.3.9c-.2 1.9-.2 3.7-.3 5.5zm-.3 3.3l-1.1.3a3 3 0 0 0 .7.8c.1.1.6-.1.6-.2a2.9 2.9 0 0 0-.2-.9zm-.5-10.3l-.6-.2c-.2.1-.4.3-.4.4s.3.4.4.5zm46 13.5zm23.3 4.8l-.7.8.6.2a3.1 3.1 0 0 0 .1-1zm-33.3.9l.2.3a.1.1 0 0 1 .1-.1l-.3-.2zm31.8-8.4l.2.2c.1-.1.1-.2.2-.2l-.2-.2c-.1.1-.1.2-.2.2zm-.1-1.5c-.2.1-.2.6-.3 1s.9.1 1.1-.1a1.4 1.4 0 0 0 0-.9zm-69.3 12.6l-1.9-1v1.7c0 .6-.1 1.1-.1 1.7s.9-1.1 1.3-1.6l-.4.2-.3-.6a1.9 1.9 0 0 1 .8-.3l.2.3zm71.5-11.2a.9.9 0 0 0 .5.3l1.2-.3-1.1-.7zm-46.9 8.2z" fill="#ff4b27"></path><path d="M519.3 264.4l.4-.3h-.4l1.7-.8a5 5 0 0 0 .2 1.2zm-4.8-11.6l.2.2a.6.6 0 0 1 .1-.4 1.4 1.4 0 0 1 2.2-.5l1.2-1.6h-3.5a6.2 6.2 0 0 1-.2 2.3zm-1.3 3.1l.2.3 1.9-1.6h-.2l-1.5.6a4.3 4.3 0 0 1-.4.7zm31.5-.3l-.9.4h.2l.7-.5zm-16.9 9.3h-.5l-3.1.5c0 .3.1.8.1 1.2l3.7-.2a5.9 5.9 0 0 1-.2-1.5zm-11.8 1.9h.3a.4.4 0 0 0 .1-.3h-.3v-.2h-.1v.5zm48-13.9l.3-.2h-.3zm-19.8-1.3h.6a13.7 13.7 0 0 0 .2-1.9c0-.1 0-.1-.1-.2s-.5 1.4-.7 2.1zm25.3 13.3v-1h-1a2.1 2.1 0 0 1-.6-1.9l-1 1.2c-1.3-1.1-1.9-2.2-1.6-3.4l-.6-.2-1-.3a3.2 3.2 0 0 1-1.9-1.7 13 13 0 0 1-.8 1.7c2.1.6 1.9 3.4 3.7 4.4l-.9.6h.1a2.9 2.9 0 0 1 .2.9h2.3l.4-.6.6.5h2.1zm-15.8.6h.7v-.3l-.8.3zm-.9-3.7a.4.4 0 0 0 .1.3.8.8 0 0 1-.1-.4zm-7-6.4zm12.2 9.9h1.7a3.1 3.1 0 0 1-1.4-1.2zm-42.6.2a1.4 1.4 0 0 1 .2-.7c0-.2-.1-.3-.2-.5v.2c0 .1.1.2 0 .3h-.1a14.9 14.9 0 0 1-.2 2.1h.6c.1-.2.2-.3.2-.4a5.6 5.6 0 0 0-.5-1zm1.4-.4c.1-.1.1-.4.2-.5a.8.8 0 0 1-.4-.8h-.2a2.7 2.7 0 0 0-.8 1 3.7 3.7 0 0 1 .3 1.5h.1l.3-.4a1.1 1.1 0 0 1-.1-.6h.4zm36-3.6c2.3-.6 4.2-.1 5.3 2.2a2.2 2.2 0 0 0 1.2-.7c-1-1.3-1.2-2.6 0-3.9-1.1-.7-1.4-1.6 0-3.2l-1-.3c.1.1.1.2.2.2l-.3.2c-.3.3-.5.7-.7.8l-.4-.2v.3a1.1 1.1 0 0 1-.8.1c-.1-.1-.1-.4-.2-.6l-.4-.3-2.2 3c-.3-.9-.6-1.7-.9-2.8a5.8 5.8 0 0 0-1.3 1.5c.2.2.5.4.4.6s-.3.4-.5.5a3.6 3.6 0 0 0 1.6 2.6zm5.3 2.2l-1.6.6 1.7-.5a.1.1 0 0 0-.1-.1zm-22.6-1.7a.4.4 0 0 0-.1-.3h-.6zm-25.8-7.9c-.2-.5-.3-1-.5-1.4l-.4.2h-.1l-1.3.8 1.9.4zm.5-6.1zm5.8-.8l-1.3-1-.3.2a1.4 1.4 0 0 1 .2.7c.1.6 1.4 1.4 2.2 1.4a3.2 3.2 0 0 1 2.7 1.6 4.8 4.8 0 0 1 1.1-1.5v-.4l1 .2a14.2 14.2 0 0 1 .5-1.6h-2.6a4.9 4.9 0 0 1 .7-2.4l-.9-.9-1.2-.3h-.5c0 .4-.1.7-.1 1.1h-.3c-.1.1-.1.3-.2.4a3.7 3.7 0 0 1 .5 1.1c.1.3-1.3 1.5-1.5 1.4zm29.9 17.3l1-.9a1.9 1.9 0 0 0 .4-.9 1.3 1.3 0 0 1-.5-1.1 4.2 4.2 0 0 0-.4-1l1.3-.6a3.7 3.7 0 0 0 .7-2.3 7.5 7.5 0 0 0-3.1 3l.8-.3.6 1.8a4.4 4.4 0 0 1-1.5-.5v-.3a4.2 4.2 0 0 0 .7 3.1zm-38.3-4.6c.1.1.2.1.2.2l1.1-.6 2.9 3.5v-.2a4.9 4.9 0 0 1 2.2.1l.2-.3c-.8 0-1.6.2-1.9-.1s-.8-1.9-1.3-3.5h.5l-.4-.4h-.1l-1.3-.5a6.3 6.3 0 0 1-2.3 1c.2-.6.5-1.1.7-1.6l-.7-.3a7.7 7.7 0 0 1-.2 1.5 9.3 9.3 0 0 1 .4 1.2zm5.7 4.7a4.6 4.6 0 0 1 1.6-1.1 2 2 0 0 0-.9-.6l-1.2 2.6a2 2 0 0 1 .5-.9zm3-6a5.8 5.8 0 0 1-2.1.7 4.3 4.3 0 0 1 .2 1.1l.3.5c0 .1-.1.1-.2.1s.1.5.1.8a21.2 21.2 0 0 0 1.1-2.1zm-1.7 3.2c-.1.3-.3.5-.4.8h.5a1.7 1.7 0 0 1-.1-.8zm5.9-3l1.4.2a2.8 2.8 0 0 1 .4 1.2c.5 0 1 0 1.2.2a.4.4 0 0 1 .1.3 3.5 3.5 0 0 1 1.2-.7l-.3-1.2c.4-.1 1-.4 1.2-.3a3.6 3.6 0 0 1 .9.8l.6-.3a37 37 0 0 1 .7 3.8 1.9 1.9 0 0 1 .5-.9 6.3 6.3 0 0 1 1.2-.7c.6.7 1.5 1.5 1.4 1.6a1.6 1.6 0 0 0-.1 1.5h.5a.9.9 0 0 0 .1-.5c.2-.4.7-.6 1-.9a10.4 10.4 0 0 1 .4 1c-.1.5-.1.9-.2 1.4h-.6a.4.4 0 0 1-.1.3l1.4.7h.6c0-.2-.1-.4-.1-.6a.1.1 0 0 0-.1.1c-.2.1-.6-.2-.8-.3l.4-1c.3.2.8.3.8.5s-.1.2-.1.3 2.9-.3 3.7.8l1.6-.6a1.9 1.9 0 0 0-.2-.7l.6-.7v-.2h-.6v1c-2.3.8-2.6.7-2.5-2a6.1 6.1 0 0 1-2.4 2l-2-3 .5-.6 1.7.7v-.9c-.1 0-.2 0-.2-.1a2.8 2.8 0 0 1 .1-.9v-.9h.4c0-.1-.1-.2-.1-.3a7.6 7.6 0 0 1-4.2.3 3 3 0 0 0-.4 1 8.4 8.4 0 0 1-.4-1.2 15.3 15.3 0 0 1-3.9-1.6l2-1.2c-.1-.2-.1-.5-.2-.7s-.8.8-1.2.8a.7.7 0 0 1-.6-.1c-.2 0-.8.1-.8 0s-.2-.6-.3-1l-.2-.4a17.4 17.4 0 0 1-.5-2.2 4.6 4.6 0 0 1-.8 2.7 3.5 3.5 0 0 1 .6.9 2.1 2.1 0 0 1-.2 1.9c-.5.5-1.7.8-3.1.7zm19-29.7zm1.5.1l-.4.4a2 2 0 0 1 .8.4 4.3 4.3 0 0 1-.4-.8zm-1.7 6.3c-.1.2-.2.2-.2.3l2.5.9c.4-1.3.8-2.7 1.2-4.3l.8.5.5-.8-2.5-.7.7-.7-.8-.8h-.1a17.2 17.2 0 0 0-2.5 5.5zm.7-7.7zm-11.6 18.6l-.7-.8h-.1l-1.7.2v1.3h-.8l.3 1.6 2.5-.8c0 .2-.1.5-.1.7s.6.1.9.7h.3c.1.1 0 .4 0 .6s.8 3-.6 4.2a.1.1 0 0 1 .1-.1l.3 1.2 1.6-1 .5-.7-1.4-1.3.8-.4a1.5 1.5 0 0 1 .1-.7c0-.1.5-.1.6 0v.3h.2c0 .7.1 1.3.1 1.9a1.9 1.9 0 0 1 1.4-.4c0-2.6-.6-5.2 1-7.6h-.3a.8.8 0 0 1-.2.4l-.5-.5a12.7 12.7 0 0 1-.5 4.2l-2.1-2.6-.7.8-.8-1a4.9 4.9 0 0 0-.4 1.1c-.3-.2-.8-.2-.8-.4s.1-.6.2-1.1zm5.4-1h-.2c0-.1-.1-.1-.1-.2l.3-1h.1l1.1.7 2.6 1.7c.1-.7.1-1.3.2-2l1.7-.3c0 1 .4 1.7 1.9 2.2a7.9 7.9 0 0 1 3 2.5h.1c-3 0-4 1.2-3.7 4.5l-.4.3-.5-.3a9.7 9.7 0 0 1-.1-2.4c.1-.3-1.1-1.3-1.7-1.4a4.8 4.8 0 0 0-1.7.5 3.3 3.3 0 0 1-.4-2.1c0-.6-.7-1.2-1.4-1.9h-.3l-.6-.6zm4.6 3.6c.1.4.1.8.4.9s.5-.1.8-.1l-.3-1.1zm-19.8 10.4h.3c0 .1-.1.3-.1.4s.1.3.2.4a8.8 8.8 0 0 1 .5-1.5l-1-.2h-.3a3 3 0 0 0 .4.9zm13.8-16a1.4 1.4 0 0 0 .2.6l.5.7a1.8 1.8 0 0 0 .7-.5h.1zm4.1-3.7l-1.6-.5-1.9.4a4.1 4.1 0 0 1-.1-1.1l-.7-.2c-.4 1-.6 1.8-.9 2.7a3.5 3.5 0 0 0 .5.8c.7-.9 1.8-.6 2.9-.3s-.1-1-.2-1.6l1.8.6a2.4 2.4 0 0 1 .2-.8zm36.3 8.9a2.5 2.5 0 0 1-1.8.7 1.8 1.8 0 0 1-.9-.4c.1.2.1.5.2.8h.3c.5.1.8.6 1.2.9s-.5.6-.7.6l-.6-.2a23 23 0 0 1 .3 2.6c0 .5-.8 1.1-1.3 1.6l-.5-.6a4.1 4.1 0 0 1-1 1.8l2.2 1.4.6-.3-.4-.3c0-.3.2-.5.3-.8l.6.4a2.5 2.5 0 0 1-.4.7l1.6-.7a8.8 8.8 0 0 0 .5 1.5c.1-.1.1-.3.2-.4a.1.1 0 0 1 .1-.1l.3-.4c1.7-1.6 5.4-.4 5.6-4.1l-2.9.3c.1.3.1.6.2.8l-2.2.4a2.8 2.8 0 0 0-.1-.9l1.3-.2-1.8.2-.3-.7a4.3 4.3 0 0 0 1.2-1.1c-1.4-.9-2.8-1.9-1.8-3.5zm-22.1-19.4zm4.2 3.8zm-43-10.6v.3c.1-.1.3-.2.4-.4zM497.5 4.3l2.4.5a3.9 3.9 0 0 1-2.4-2.6h7.4c2.1 2.4 7.8 5.7 18.5 0 6.4 4.2 16 .5 24.2 0 10 4.3 16.2-.2 24.1 0 11.7 4.4 15.3-3.1 18.5 0 1.1-2.7 4.6-3.1 7.4 0h.8a2.9 2.9 0 0 0-.8 2c-1.3 3.8 4.9 5 0 6s.2 8 0 9.6c-5.6 7.1.8 8.5 0 12.9.3-.9-.6 8.6 0 15.9-1.3 5.5-.9 11.4 0 18.4 2.8 2.2-1.9 12.5 0 20.8a113.6 113.6 0 0 1 0 22.7c.2 5.2 1.8 16.4 0 24.4.3 9.3-3 19 0 25.7-2.4 8.9 2 21.4 0 26.7-.4 9.1 1.4 16.6 0 27.3-.1 1.6-.1 3.7-.1 6l-1.3 1.8c-1.5-1.5-2.9-2.7-4.6-.7a20.2 20.2 0 0 0-3.4.6c-.2.1.1 1.7.3 3.1l3-3c1.3 3 3.2 3.9 6.2 2.9.1 3 .2 6.1.3 9a6.4 6.4 0 0 0-.2-.7c-.4-1-1-3-2.9-1.4h-.1l-1.2-.9a10.3 10.3 0 0 1 .1 1.7l-5 .9c.2 3.1-.1 3.4-2.7 2.1s-4.7-1.4-6.8 1.2-1.6 1.3.1 3l3.5-3 3 3.4-1.6 1.6a7.2 7.2 0 0 0 1.9 1.1c2.1.6 3.8.2 5-1.8-.1.8-.1 1.6-.3 3.3l6.3-2.7h.1a1 1 0 0 0 .5.4 26.9 26.9 0 0 1 .4 5.5h-.4a7.9 7.9 0 0 0-4.7 2.8h-.6l-.9.6.5.4-.7.9a5.6 5.6 0 0 0 3.4 0h.1c.1.3.9.2 1.4.3v-1.1l1.7-1.4-.3 2.2-.3.6h.2a2.9 2.9 0 0 1-.2.9l-.3-.3a1.8 1.8 0 0 0-.4.9l.4.3.2-.3c-.2 1.4-.5 2.7-.7 4.1a3.4 3.4 0 0 0-1.4-.1 12 12 0 0 1-4.8 1.1c-.1-.3-.1-.5-.2-.8h-.2l.2-.2c-.8-.1-1.2-.3-1.3-.2s-.1.5-.2.8h-.4a9.9 9.9 0 0 1-2.9-1.2 2 2 0 0 0-1.3-.1l-.5-.9 2-.3.3.5.3-.5h.5l.7.9a5.8 5.8 0 0 0-.3-2.9v-.3l-1.1-.5-1.2-.4c-.1-.1-.1-.3-.2-.4.1-.3.1-.6.2-.9h-.7v.8c-.7.3-1.5.6-1.5.9-.2-.1-.3-.3-.5-.3h-.2l-.2-.3v-.2l-.4-.4c-.8-1.6-1.3-3.1-.5-5l.3-.5c.1-.1 0-.2.1-.2s-.3-2.3-.6-3.5h.1a.1.1 0 0 1-.1-.1 2.2 2.2 0 0 0-.1-.8 2.8 2.8 0 0 0-.1-.9h-.5c-.2.4-.6.7-.7 1.2a1.1 1.1 0 0 0 .3 1.1h.2c-1.7 1.2-2.5 3.2-3.5 5 0-.1.1-.2 0-.2-.4-2-1.8-2.7-3-1.4a6.8 6.8 0 0 0 1-2.7c.7-2.6-1.8-.8-2.8-1.9l.7-1.5a11.7 11.7 0 0 1 .5 1.1c1.6-1.7 1.4-2.7.3-3.2.4-.9.7-1.9 1.1-2.8a9.3 9.3 0 0 1 .5 1l1-.6a13 13 0 0 0-.8-1.7c.6-1.1 1.1-2.3.3-3.5h-1l-.3 2.9-.5.2.4 1v.3c-2.3-1.4-4.3-1.1-5.9 1.5l2.3 1.4a8 8 0 0 0 0 8.9l.2.2h-.7a20.9 20.9 0 0 0-1.1 4.3l-1.1-.9c.1 1.4.2 2.4.4 3.7l-.8-.5c-.2-1.3.3-3.6-1.6-3.2l.6-.3-4.2-2.5h-.1l-.7-.4h.9c1.4 1 2.9 1.6 3.8 1.2a2.4 2.4 0 0 0 1.1-1.6c.3-2.1-1.3-2.2-2.7-2.4l.3-2.1-2 1.1-.3-.5h-.1a5.9 5.9 0 0 0-.7-1.6c-.2-.3-1.6.2-3 .6a20.9 20.9 0 0 0 1.3 2.3c.1.2.1.4.2.5h-.2l1.4 2.5c-1 1.9-1.9 3.8-2.9 5.9a4.7 4.7 0 0 0 .2-1.7c1.1-1.4.8-2.6-1.1-3.1a4 4 0 0 0-1.9 0c-.2-.7-.9-1.4-2.3-1.9l-2.7 2.1h-.1a5.6 5.6 0 0 0-.4 1.2l-1.7 1.5a7.6 7.6 0 0 0 .8-4.6l1.6-.6v-1.1l-3.6-1.8-.7.8 1.3 2.1h-.2a6.1 6.1 0 0 0-.7-1c-.5-.7-.8-1.8-1.5-2.2a25.3 25.3 0 0 0-4.4-1.9 3.5 3.5 0 0 0-.1-1.2l-1.3-.5a3.3 3.3 0 0 0 2.2-2.4h.8c.2.5.5 1 .9 1.8l3.1-4.3a4.7 4.7 0 0 0 .9-1.2h.1c1.7.4 2.7-.2 2.8-2a1.8 1.8 0 0 0-1.2-1.2 2 2 0 0 0-1.3.8 8.6 8.6 0 0 0-3.1-4.4h-.1l-.9-1.1-1.1-.8c0-.4-.1-1.2-.4-1.3a1.4 1.4 0 0 0-1.5.1c-.6.7-1 1.5-1.5 2.2h-.4l.2.3-1.5 2.1-1.2 1.3.7.3a.2.2 0 0 0-.2.2l-.9-.2v1.6c.2-.1.4 0 .6 0s.7 1.4.5 1.7l-4.1-.7c0 .6.1 1.1.1 1.7l-1.5.6h-.3v.3a4.2 4.2 0 0 0-1.4 2.2h-.5l.3-.4a3.6 3.6 0 0 1-.7-1l-3 1.5.7.5.3.6-.8.7.6.7-1.9.6c0-1.6.2-3.3-1.5-4.1l-.9.4 1.8 3.9h-.1l-1.7.2c-.5-1.1-.9-2-1.5-3.1l-2.8 2.5.8.7h-.9v-2.5h-1.3c.1.8.1 1.5.2 2.3h-.4a19.7 19.7 0 0 1-1.2-2.5l-3.2 3.8.3.2h-.3a28 28 0 0 1-2.8-.6l.3-.3.8.2h1.6a1.3 1.3 0 0 1-.1-.6l-1.5.6-.6-.3 1.1-1.2c.3-.2.6-.3.6-.5a1.1 1.1 0 0 0-.1-.5 7.5 7.5 0 0 0 .9-2.9 3.4 3.4 0 0 0-3.2-3.2.4.4 0 0 0 0-.5h.5l-.3-.8h-.3a1.7 1.7 0 0 1-.1-.7l-1-.2-2.7 2.9.6.9 2.4-.8c0 .1-.1.2-.1.3h-.3c-.9 1.4-1.5 2.9-2.3 4.4l-2.3-.9c0 .3-.1.6-.1.9l-2.2-1.1c-.4-2.1-1-2.7-2.4-2.6a41.3 41.3 0 0 0 .1-5h.1c.8.5 1.7 1.4 2.5 1.4s1.9-.9 2.8-1.4l-.4-1.2h-3l.7-.7-.7-.4 1-1.4-3-.4c-.2-4.1-.5-8.3-.7-12.9 4.4-9.1.9-19 0-27.3-.4-10.2-2.8-21.1 0-26.7-4.7-9.8 4.1-19.9 0-25.7a42.2 42.2 0 0 1 0-24.4c-2.9-4.2 2-19.1 0-22.7 2.9-7.7-2.7-11.4 0-20.8 5.4-5.3-2-15.4 0-18.4s1.3-6.8 0-15.9c4 .5 2.4-9.8 0-12.9-2.6-9.8-.5-3.2 0-9.6-1.4-.8-4.5 3 0-4.9zm96.6 250.3a8.3 8.3 0 0 1 .8 1.2l1.2 1 .4-.5-1.5-.6-.3-1.4zm.6-9.2l1.8 1 .6-1a11.8 11.8 0 0 0-1.9-1.1zm-1.7 1.9a7.6 7.6 0 0 1-.4 1.1 4.7 4.7 0 0 0 2 .1c.1-.1.1-.3.2-.5h.5c-.1-.2-.1-.4-.2-.6h-.2v-.2a2 2 0 0 0-1.5-.4l-.3-.2c-.2 0-.3.3-.4.4zm-4.7 12.4c-.1-.3-.1-.6-.2-.9s-.4 0-.7.1.1.6.3.8.4 0 .6 0zm2.6.2a1.4 1.4 0 0 0-.2-.6l-.5.3.5.4c0 .1.2-.1.2-.1zm-.2-12.6a1.9 1.9 0 0 0 .2.7l.6-.3c-.1-.2-.1-.5-.2-.5a.7.7 0 0 0-.6.1zm-4.9.8h.2a2.8 2.8 0 0 0 .7.9c.8.9 1 2.4 1.3 3.7s-.1 2 .4 2.7 1.3.6 2.1.9l1 .7 1.4-2.2-1-.7a.3.3 0 0 0-.1.2l-.9-1.5-.3.2c0-.2-.1-.4-.1-.6a6 6 0 0 0-.2-2.7 36.3 36.3 0 0 0-3.3-4.5l-.3.3-.2.3a1.8 1.8 0 0 0-.6 1.6h-.1zm-.6 2v.3h.3v-.2zm-.9-9.5c0 .2.1.6.1.9l.7-.2a2.9 2.9 0 0 0-.2-.9zm.4 11.4c.1-.2-.1-.6-.3-1.9l-.7 1.5c0 .2.1.5.2.5a1 1 0 0 0 .8-.1zm-.7-6.6h.6v-.4l-.6-.2zm-.6.1v.9h.6a1.9 1.9 0 0 0 .1-.8zm-.8 5.2c.1.2.5.3.8.4l.3-1.1-1-.3c-.1.5-.2.8-.1 1zm7.5-20.8c.4.6.6 1.1.9 1.2l1.2-.4c-.2-.4-.3-.9-.6-1.1a3.5 3.5 0 0 0-1.5.3zm6.5-24c.1.5 0 .8.1 1.1l.6.2c.2-.3.4-.6.3-.9s-.5-.2-1-.4zm-5.3-8.7l.3.2a.4.4 0 0 0 .1-.3h-.2zm-3.1 13.3c.4 2.3.8 4.2 1.1 6.2h1.1c.5-1.8 1-3.6 1.6-5.5zM582 231l-.9-2.2-.5.2v-.2l-.5.3 1.2 2.2zm5.9-1.1c-3.2-.6-3.2-.6-4 3.6 1.6-1.4 2.7-2.3 4-3.6zm-.8-8.6c.2-.2.7-.3.8-.5s-.1-.6-.2-1-.8.3-.9.6.2.6.3.9zm-1-13.7l.8.6 1.2-1.8-.7-.5zm-2.4 8.1l1.6 1.7 1-.8-1.5-2zm-3.5-7a11.2 11.2 0 0 0 1.8-.8c.2-.1.1-.6.1-.9a3.9 3.9 0 0 0-1.5.2c-.2.1-.2.7-.4 1.5zm.5 5a4.6 4.6 0 0 0-.1 1c.1.2.5.3.6.3s.4-.6.3-.8-.4-.3-.8-.5zm-1.4 8.2c.1 1.9 1.4 2.7 3.2 2.9l.8-.8-3.2-3s-.9.6-.8.9zm-78.6 12.9c0-.1-.5-.1-.9-.2a3.1 3.1 0 0 1-.1 1 1.5 1.5 0 0 0 .9.1.9.9 0 0 0 .1-.9zm3.4.8c-.8 1-1.5 1.5-1.7 2.1s.8 1 1.2 1.5 1.3-.9 1.5-1.5-.5-1.1-1-2.1zm1-.9a3.2 3.2 0 0 0-.3-.9l-.7.3a2 2 0 0 0 .4.8c.1.1.6-.1.6-.2zm2.2-4.9l-1.2-.3.3 1 .6.2a3.2 3.2 0 0 0 .3-.9zm8.9 9.2l-.6-.9c-.3.3-.7.4-.8.6a2 2 0 0 0 .4.8 3.1 3.1 0 0 1 1-.5zm1.1-2.4c-.4-1.8-.9-3.5-1.3-5.1l-.3.2a7.6 7.6 0 0 0 .6-2.6c0-.6-1.8-1.3-2.8-1.9.3 2.2.5 3.9.7 5.6l-2.3 1.5h-.1l-.8-1.3-.5.4 1.3.9h.1a10.9 10.9 0 0 0 .8 1.5h-.3l.3.3h.1c.5.8.9 1.7 1.4 2.6zm-6.1-6.4a.1.1 0 0 0-.1.1l.8.5 1.5-2.4-1-.6-1 2.1a1.5 1.5 0 0 0-.1-.7h-1a2.8 2.8 0 0 0 .4 1.1s.3-.1.5-.1zm-.9-1.7h1.6l-1.2-1.5-.6.6c0 .3.1.9.2.9zm7.9 6.7c.4-.2.8-.3.9-.5a1 1 0 0 0-.4-.8c-.1-.1-.7.1-.7.3s.1.6.2 1zm8.2 1.3a2.9 2.9 0 0 0-.2-.9l-1.5.9c-.3-.2-.5-.5-.8-.6l-2.4-.5-.2-.3-.2.2h-.1a.4.4 0 0 0-.1.3l-.6.6c0 .1.1.1.1.2l-1.4.2c.2 1 .4 2 .5 3l1.2-.2c0-.4-.1-.9-.1-1.3h.1a2.5 2.5 0 0 0 .2-1.3l.2.2.6-.3 1.9.9c.2.1.7-.5 1.1-.7zm6.4-7.2l-1.6.6c-.1-1.5-.4-2.7-2-3.3s-1.5.2-2.3.3a4.9 4.9 0 0 0 1 1.9l1.3 1h-.8v2.5a7.5 7.5 0 0 0-.7-1.2c-.4-.4-2.2.4-3.3.7l1.3 1h-.1l.4.2 3.8 3.1a11.7 11.7 0 0 0-1.1-3.3h.5a23.4 23.4 0 0 0 .4-2.6l.8.5c-.4.6 0 1.6.8 3.7.6-2 1.1-3.4 1.6-5.1zm-5.8-8.2l-.2.2.3.5.4-.5zm1.2-.6c.1 0 .3-.5.2-.6a2 2 0 0 0-.8-.4c-.1.3-.3.5-.5 1zm3.8 5.1a2 2 0 0 0 .4-.8l-.7-.3a2.9 2.9 0 0 0-.2.9zm1.9 5.9c-.1-.2-.2-.5-.3-.5l-.9.2c.2.3.3.7.4.7a2 2 0 0 0 .8-.4zm.8-7l-.7-.3c-.3.4-.8.7-1 1.2a12.5 12.5 0 0 0-.3 1.9l1 .2c.4-1 .7-2 1-3zm4.7-.1l-1.7-2.2-1 .6 2.1 2.2zm2.5-4.1c-.2-.1-.5-.3-.6-.2a5.6 5.6 0 0 0-.5.8c.4.1.7.3.8.2zm9.8 24.8l-1-1.5-.3-.6.7-.5c-.4-1.5-.8-2.9-1.3-4.4h-1c-.3.9-.9 1.9-.8 2.6s-2.4-.3-3.8.9l.8.8c-.4.1-.8.1-.9.3s0 .6 0 1 .8-.1.9-.3.1-.5.1-1c1.5 1.5 2.9 3 4.4 4.4a6.8 6.8 0 0 0 1.2-1.1zm.4-10.1l-.3-.8h-.6a2.5 2.5 0 0 0 .1.8zm2.8 11.2a4.1 4.1 0 0 0-.3-.8c-.3.2-.7.3-.7.4a1.8 1.8 0 0 0 .5.7c0 .1.5-.2.5-.3zm1.4 1.2l-.6.2s0 .3.1.3h.5zm10.3-10.2l-.8.3c-.3-.3-.5-.6-.8-.6s-.5.3-.8.5.4.7.7.7.4-.1.6-.2l.9 2.5 1.3-.6zm2.6-5.5l-.9-.6a31.3 31.3 0 0 0-1.9-3.6l-.9-1.2-.4.4 1.3.9a15.4 15.4 0 0 0-.3 3.7c0 .6.6 1.2.9 1.8l.2-.2-.9 1.9.8.4zm1-8.2l-2.9.2a9.2 9.2 0 0 0-.1-1.6l-.6.2c.2.5.5.9.7 1.4 0 1.6-.1 3.2-.2 4.9l3.8-.2c.2-1 .5-1.9.7-2.9l1.3-1.2-.7-.6v-.4h-.4l-1.7-1.3 1.3-2.4-.9-.7-2.6 2 2.2 1.1a6.6 6.6 0 0 1 .1 1.5zm2.4 3.1a1.9 1.9 0 0 0-.2.8h-.9a2.3 2.3 0 0 0-.1 1.1c.2.2.6.1.9.2a2.8 2.8 0 0 0 .1-.9c.4 0 .8.1.9-.1a.8.8 0 0 0 .2-.8 1 1 0 0 0-.9-.3zm-5.5-10.7l-.8-.4c-.1.4-.2.7-.2.8l.9.2s.2-.6.1-.6zm3.8 14.6a4.3 4.3 0 0 0-.2-1.1l-2.1.8.3.8zm2.5-.2l.3-.5-1.4-.5-1 2.7 1 .5a8.3 8.3 0 0 0 .7-1.3h.1l.5-.2c.1-.3.1-.7-.1-.8zm1.7-4.5h.6l-.3-.8-.6.2c.1.3.1.5.3.6zm1 6.7a3.2 3.2 0 0 0-.3-.9h-.5a2.7 2.7 0 0 0 0 .9zm-.1 6.6l-1.2.4c.3 1.5.7 2.9 1 4.4.7-.3 1.7-.4 2-.9 1.1-2.1-1-2.7-1.8-3.9zm2.3-13.3h-.8a2.8 2.8 0 0 1 .1.9h.6a1.9 1.9 0 0 0 .1-.9zm-7.9-13l2.8.9c.8 2.2 1.5 4.3 2.4 6.7l2.8-1.5c-2.3-2-2.3-2-.5-4.1a6.7 6.7 0 0 0 1-2.5l-5.7 1.4c.6-.8 1.2-1.5 1.7-2.3s-1.6-2-2.8-3.7zm-1 6.2c0-.2-.4-.4-.8-.6a6.5 6.5 0 0 0-.2 1.1l.5.3a1.2 1.2 0 0 0 .5-.8zm-1.9-15.9c.3 0 .7.2 1 0s.2-.6.3-1-.9-.1-1.1.1-.1.6-.2.9zm-2-8.3l.8.4a17.4 17.4 0 0 1 1.1-1.8l-.9-.6zm-1.4 6.6h.6a1.3 1.3 0 0 0-.1-.6h-.3c-.1.3-.1.5-.2.6zm-2.2 18.6a.7.7 0 0 0 .1.6l-1.3.4v1.1a10.6 10.6 0 0 0 3.4.6c.5-.1.8-1.4 1.1-2.2l-.7-.7-1.5.5a3.1 3.1 0 0 0-.1-.9c-.5.3-1 .4-1 .6zm1.7 6.6l-.3-1.2-1.9.8-1.8.3c.1.3.1.6.2.9l1.7-.9zm-1.4 1.5c-.3.2-.4.7-.7 1.4s1.4.1 1.6-.1a6.6 6.6 0 0 0 .3-1.5c-.4.1-.9 0-1.2.2zm-.4-12.2l-4-2.2-.8.7c.5.8.7 2.1 1.4 2.5s2.1.2 3.2.2.1-.8.2-1.2zm-4.1-9.2a1.1 1.1 0 0 0 .3-.8l-.7-.3c0 .4-.1.7-.1 1s.5.2.5.1zm1 2.6h.8a2.5 2.5 0 0 0 .1-1.2l-1.1-.3a2.8 2.8 0 0 0 .2 1.5zm2.1 1c-.4-.2-1 .1-1.9.1s.6 1.6.9 1.6a3.8 3.8 0 0 0 1.7-.4c-.2-.4-.3-1.1-.7-1.3zm-9.3-4.3c4.4 0 5.2-3.7 7.1-6.2l1.2.7.4-.5-1.5-.7a9.5 9.5 0 0 0-2.5.3c-2.6 1.3-3.7 3.8-4.7 6.4zm3.2 17.7l.3.7a1 1 0 0 0 .5-.4c-.1-.1-.1-.4-.3-.5zm.2-5.3a1.8 1.8 0 0 0 .5-.7c.1 0-.2-.3-.5-.5l-.5.7zm-3.4-1.7a9.1 9.1 0 0 0 .5 2.7h.8a6.2 6.2 0 0 0 1.1-2.5c.1-.7-.5-1.4-.8-2.1l.7-1.8-1.1-.4c-.3.9-.5 1.8-.8 2.7h.3a3.7 3.7 0 0 0-.7 1.4zm.2-3.1a4.4 4.4 0 0 0 .6-1c-.8.1-1.2.1-1.2.2a2.7 2.7 0 0 0 0 .9zm1.9 10.7a1.4 1.4 0 0 0 .2.6h.6c.1-.1 0-.4 0-.6zm-2.6-24.2l.8.3a1.7 1.7 0 0 0 .1-.7c-.2 0-.4-.2-.6-.1s-.2.3-.3.5zm-2.5 19.3l-1.7 1.2c-.1-.2-.2-.3-.2-.4l-.7.5.3.3-3.4 2.3 3.5 2.9h-.5a4.9 4.9 0 0 1 .1 1.2l2.3-.8h.1l.6.7c-1 .6-1.8 1.3-.9 3.1l2.7-1.1c-.1.5-.1 1-.2 1.5h.8l-.6-1.4 1.1-.2a6.4 6.4 0 0 0 2 .8l-.8.4 1.6 2.3h-.1c-.1.1.2.5.2.5h.2l-.9 1.8c-.1.2-.4.4-.4.6s.1.2.3.4a1.7 1.7 0 0 0 .1.7 8.8 8.8 0 0 0-.5 1.5h2.2a2.4 2.4 0 0 1-.2.9l-.6.6.3.8c-.3 1.1-.6 2.3-.9 3.8-.1-.8-.1-1.6-.2-2.3h-1.5l.3 3h1.4v-.5c3.6-1.1 6-2.5 7.3-5.2l1.8 1.1a1 1 0 0 0-.8.4 2.9 2.9 0 0 0 .5 1l-1.2.5v.7l2.4.5a11 11 0 0 0-.2 1.8l1.5.4.3-3.2h-.1c.3-1.6.1-2.8-1.5-3.8a3.7 3.7 0 0 1-1-1.6l.6-.4-.6-.5a3 3 0 0 0 .2-1.8l.2-.2c0-.1-.1-.3-.2-.3h-.1c-.6-1.6-2.6-2.4-3.5-3.7s-1.7-.1-2.2.3-1.1 1.9-.9 2c3.3 2.6.6 4-1 5.6l-.8-.7c1.3-1.4 1.6-2.7-.1-4.1l.6-.3-.3-.7h-.1c.1-.6.2-1.4.4-2.3s3.1-.8 4.7-1l.3 1.3h.7l-.6-1.6c-.6-.5-1.2-1.3-2-1.5a7.2 7.2 0 0 0-4.6 0l-2.1-2.4.3-1.9a8.6 8.6 0 0 0-.7-2.1c-.7.3-1.7.5-1.9 1.1a37.6 37.6 0 0 0-1.3 4.8h-.1l-1.1-.2c1.4-2.1 2.9-4 1.4-7.1zm-2.2-1.6l.3-.5c-.2-.1-.3-.3-.5-.2s-.2.3-.3.4zm1 1.3l.5-.7-.7-.3a5.9 5.9 0 0 0-.4.8s.5.3.6.2zm.2-7.5l-.4.5.7.5.3-.8c0-.1-.4-.1-.6-.2zm-.9-16.3c.1.3.1.7.2.9s.4 0 .6 0v-.9zm-3.5 15.1c-.4 0-1 .8-.9 1.1.2 1.9.6 3.7.9 5.5 0 .6.1 1.1.1 1.7l.9-.4-1-1.3c1.5-1.2 2.1-2.1 2.2-3.1h1.1v-4.3a4.7 4.7 0 0 0-1.9 1.8v-.2c-.3-.4-1-.9-1.4-.8zm-1.4-8.9l.3.8.6-.2a2.9 2.9 0 0 0-.2-.9zm-9.7 5.6c.2.4.2.8.4 1s.7 0 .7-.2.1-.7-.1-.8zm1 8.5a1.4 1.4 0 0 0-.1.9l.6.2a2.9 2.9 0 0 1 .2-.9zm-3.7 7.1c-.2.2.9 1.3 1.8 2.5l1.1-4.1c3.8 2.8 6.7 1.2 9.6-5.7l-3.8.3-.5-.9-.8.2a2.2 2.2 0 0 1 .1.8h-.4c-.1 1.2-.2 1.9-.3 2.8-2-.4-3.8-.8-4.2 1.8a14.3 14.3 0 0 0-2.6 2.3zm.3-4.9s0 .3.1.3h.5a1.3 1.3 0 0 0-.1-.6zm-1.5-13.7c.3.5.4.8.7 1l.5-.2a.9.9 0 0 0-.1-.9c-.1-.1-.6.1-1.1.1zm-4.9 8.3l4.1 4.7.9-.4c-.4-1.8-.9-3.7-1.4-5.6zm-1.2 6.7a9.4 9.4 0 0 0 2.2.7 5.6 5.6 0 0 0 .4-1.2l-2.3-.9a7 7 0 0 0-.3 1.4zm2.4 1.8l-1.1.3c.3.4.5.7.8.8s.5-.2.5-.3a2.4 2.4 0 0 0-.2-.8zm-2.4 6.6l-.8.5c-.1-.3-.1-.6-.3-.8h-.4c-.3-.6-1.2-.9-1.8-1.4a4.4 4.4 0 0 0-.7 2.1 21.6 21.6 0 0 0 .7 3.9 7.6 7.6 0 0 0 1.7-2 14.1 14.1 0 0 0 3.1-.8c.1 0 .1-.3.1-.7l.4-.2a3 3 0 0 0 1.5-.5l.3-1-4.2-.9c-.1 0-.5.9-.3 1.2zm-1.5-7.4a3.8 3.8 0 0 0 .5-1.1h-1.1c-.1.1-.3.6-.2.6s.7.6.8.5zm-.5-9.1h.9a15 15 0 0 1 .2-2.2h-.9a15 15 0 0 0-.2 2.2zm-.9-11.6h.4v-.3h-.3a.4.4 0 0 0-.1.3zm-.5 16.1a1.5 1.5 0 0 0 .3.8 3.7 3.7 0 0 0 1.1-.4l-.8-.7c-.2-.1-.6.2-.6.3zm-.3 3.4a3 3 0 0 0 .5 1c.1.1.6 0 .6-.1s.1-.7-.1-.8-.5-.1-1-.1zm-3.3-5.6c-.2.3.1.8.4 1.6.6-.8 1-1.1 1.1-1.6s-.2-.6-.3-.8a5 5 0 0 0-1.2.8zm-3.9-1.6c.7.6 1.1 1.2 1.5 1.2s1.1-.6 1.1-1a1.6 1.6 0 0 0-1-1.1c-.4-.1-.9.4-1.6.9zm-3.2 6.4c.5 2.2.8 3.8 1.2 5.3l2.8-.7.3.3h-.1l.5.3 4.7 4 1.7-2.7c-2.1-.4-2.6-.6-2.7-1.5l.2-.2h-.2a13.7 13.7 0 0 1 .2-1.6 12.3 12.3 0 0 0-.4-2.7l-2.4 2.3v-.2a1.6 1.6 0 0 0-1.5-.1.3.3 0 0 0-.1.2 2.8 2.8 0 0 0 .1-.9zm-.1 9.6h-.9l.2.7.8-.2a11.4 11.4 0 0 0 .9 2.6c.1.2.8.1 1.2.2l1.5 1 .5-.8-1.7-.4a3.7 3.7 0 0 0-.1-1.1l-1.7-2.4-.7.3zm-2-12.6l1.1 1.1c.1-.7.1-1.3.2-1.9h-.9c-.1.2-.5.6-.4.8zm-1.1 12.2l1.3.3c.3-1.4.7-2.8 1-4.2-2.7.9-3.3 2.2-2.3 3.9zm-.8.9a1.9 1.9 0 0 0 .1.8h.6c.1-.3 0-.6.1-.9zm-5.5-11.7c-.1-.1-.2-.3-.4-.4h-.2c-.1.2 0 .4 0 .6zm2.4 3.7s-.3-.4-.4-.4l-1.1.2.9.8zm.5-2.7l-.6-.4a3.2 3.2 0 0 0-.3.9l.5.3a5.9 5.9 0 0 0 .4-.8zm1.1-1.5c.2-.2-.1-.6-.2-1.1s-.8.4-.9.7.2.6.3.9.7-.2.8-.5zm.3-2.1l-.7-1.1-.4.9a1.6 1.6 0 0 0 .3.6zm-1.8-2.9s.4.4.5.3l.6-.5c-.1-.2-.3-.3-.6-.5zm82 53.4l.6-.2v-1h-.3a2.7 2.7 0 0 0-1.4 1.4zm8.8-9.9l-1-.2v1.8a8.6 8.6 0 0 1 1-1.6zm-.6 9.7a2.9 2.9 0 0 1 .2-.9 1.7 1.7 0 0 0-1 .3v.4l-.2.2zm-70.6-27.5h.2l-.2-.2zm68.9 25.2h-.2v.2zm-5.7-.4a.8.8 0 0 1 .8.1c.2.1.3.4.4.7l-.3-1.3-.9.2zm-.5-3.7v-.2a2.4 2.4 0 0 1-1.1 2c.5 0 .9-.6 1.3-1.8zm1.9 5.8l1.2-.4.7-.9-2.1.2c.1.1.1.3.2.4h-.1c0 .3.1.5.1.7zm-2.7-2.3c.3 0 .7-.1.8-.3s-.1-.6-.3-1l-.8.8c0 .1.2.5.3.5zm8 1.2h-.2c0 .1.1.2.1.4s.1-.3.1-.4zm4.4-30.2l-1.1.8 1.3 1.7c0-.9-.1-1.7-.1-2.6h-.1zm-5.8 29.9l-1-.2.5-.6h-.4a2.2 2.2 0 0 1-.5.8l.8.5a1 1 0 0 1 .6-.5zm-1.2 2.1zm-24.6-22.9l1.3-.6a3.3 3.3 0 0 0-1-.6c.1.1.3.3.2.4s-.3.5-.5.8zm10 16.4l1.1 1c0-.1-.1-.2-.1-.4v-.2l-.6-.9-.3.4a.1.1 0 0 1-.1.1zm3.1-4.3zm18.7-18.6c.3 1.5 1 2.9 2.7 1.9a.7.7 0 0 0 .3-.6c0 1.8-.1 3.4-.2 4.9a4.1 4.1 0 0 0-.5.9c0 .1-.1.2-.1.3h-.1l-2.1-4.6c-1.4 1.4-2.6 2.5-3.9 3.6l-3.5-.7c2.3-2.1 4.5-4.4 7.4-5.7zm-4.2 4.1c.1 0 0-.3-.1-.3h-.6c.1.1.1.3.2.5zm-10.2 5.9c0-.2-.1-.4-.1-.6l-.9.6zm-29.3 8.5l.9-.8c0-.4.1-.7.1-1.1l-1.8-.7-.9 1zM497.5 2.2c-2.3-.3-3-.1 0 0zm100.9.1c3.2.6 1.3-1 0 0zm-23 248.9l-.5.6h-.1l-.2.2.3.2a12.9 12.9 0 0 0 1.2-2.3l-.8 1.2zm5.1-6.9zm-19.7 4.6zM547 235.3zm33.5 9zm-43.4-14.2l-.3 1.3 1.6-1.3h-1.3zm10 5.1zm-42 5.1c.6.9 1 1.9 1.8 2.2s-.2 1.7-.4 2.7l.3-.2v.2a2 2 0 0 0 0 1.1c-.2.2-.5.3-.6.5s.2.4.3.6l.6-.3c1.7.2 2.4.8 2.6 1.6a5.1 5.1 0 0 0-1.2 2 10.9 10.9 0 0 0-.8 1.5l-.9-.2c.1.6.3 1.2.4 1.8l-1.8-.4c-.1-.8 0-1.6-.1-2.4l1.4-1.6h.2v-.3l.3-.3-.3-.2h-.3l-1.5-1v-.2c.1-.3-.6-1.3-.9-1.4a1.9 1.9 0 0 0-2.2 1.6h-1.1l-.4-.4 3-2.7-2.4-.8c.9-.8 2.2-1.5 3.2-2.4l-1.4-.8 2-.2zm-1.7 2.9l.5.8 1.9-1.1a5.6 5.6 0 0 1-.5-.8zm-2.9-4l-1.1.3.4.5.7-.8zm17.7 16.1l.8.2-.8-.3zm-1.5 2.5l-.4.7c.3-.1.5-.4.8-.6a.5.5 0 0 1-.4-.1zm-17.6 6.5c0-.1.1-.3.1-.4h1l-.6-2.1-.2-.3a1.7 1.7 0 0 0 .1-.7c0-.1.1-.2.1-.4h-.1c0-.2.1-.4.1-.6l1.6-.6.2.2a2.8 2.8 0 0 0 .1.9 3.1 3.1 0 0 0-.5 1l1.6.4h-1.5l.3.9 1.2-1c.8 1.7 2.6 2.4 5.5 2.3.5.1 1.2.4 1.4.2l.2-.3 1.8-.4-1.1 2.6 2.1-.3h-.1a1 1 0 0 0-.5.4v.4h-1.2v-.2a1 1 0 0 0-.5-.4 1.4 1.4 0 0 0-.2.7 1.9 1.9 0 0 0-1-1.4 2.2 2.2 0 0 0-.1-.8l-.5.3-.4-.6-.4.4a3.4 3.4 0 0 0-2.3.4l-1.4 1c-1.1.1-2 .2-2-.1a2.7 2.7 0 0 0-2.8-1.5zm3.7.6l.5.7c.1.1.4-.2.6-.3l-.4-.7c-.1-.1-.4.1-.7.3zm-5.2-23.2a.8.8 0 0 0-.1.4h.2c0-.1-.1-.2-.1-.4zm.4-2.8c0-.1-.1-.1-.1-.2v.2zm-.3 3.3l-.2.3c.1.1.1.4.2.6l.3-.5-.3-.4zm21.6 18.8l-.3-.7-.6 1.4zm.2-2.3a3.6 3.6 0 0 1 .4-.9h-.1c0-.5-.1-1-.1-1.5h-.1v-.8h-.6l.4.2a12.5 12.5 0 0 1-2.3 2.3 3 3 0 0 0 1.4.6zm-16.8 3.2zm16.1-2a1.1 1.1 0 0 1-.2-.5l-1-.4a19 19 0 0 0-1 2.8l1.1.6.5-.6zm.8-5h-.1c0 .2.1.4.1.6zm1.1-.7v.6c0 .2.1.3.1.4.2-.5.3-1 .5-1.5l-.6-.3v.9zm63.9.6l-.6 1.5h1.8zm-66.6 7.7h-.3a1.6 1.6 0 0 0-.7.7c-.1 0-.1.1-.1.2h.1a.4.4 0 0 1-.1.3h.3l.3-.8.3.4.3-.5.3-1h-.2a6.4 6.4 0 0 1-.2.7zm2.7-9.2a21.7 21.7 0 0 1-.1-2.6h-.8a8.4 8.4 0 0 1 .5 1.7l-2.3.8c.1.1.2.1.2.2l-2 .9 2 1 1.5-2.3zm-.1 1.9h.1v-.3h-.1zm53.2 6.4l2-1.2-.2-.3h-.1v.2l-1.3.6zm1.1 3.1h.4a4.3 4.3 0 0 0 .2-1.1l.7-.2h1.2c1.3-.2 1.9-.6 2-1.6a.4.4 0 0 1-.1-.3h.1a6.1 6.1 0 0 0-.3-1.6h-.4c.1-.2.1-.4.2-.6a.4.4 0 0 1-.1-.3l-.7 1.1h.4c0 .5.1.9-.1 1.1h-.9v-.2l-.9 1.3c0 .1.1.2.1.3s-.4.3-.6.4l-.6.9c-2-.4-2.5-.5-1.7-2l-.8.4c-.1 1.2.2 1.5 1.9 2.4zm5.5-7.2h-1.2l1.1.9c0-.3.1-.6.1-.9zm-1.5-11.3a6.4 6.4 0 0 0 .2.7l.8-.4c-.2-.2-.3-.4-.5-.5zm1.9 16.9c0-.4.2-.9 0-1.2l-.6-.3.3.8h-.8c.1.1.1.3.2.3s.6.3.9.4zm.2 1.4zm-1.4-2.3c.1-.3.1-.5.2-.8h-.4v.3c.1.1.1.3.2.5zm-3.6-1.3c-.1-.1-.7.2-1.4.5s.9 1.1 1.4 1.3.1 0 .1 0l.5-.7a3.9 3.9 0 0 0-.6-1.1zm-73.9-12.3zm-2.8 3h.1v.3h-.2c0 .2.1.3.1.5a2.4 2.4 0 0 1 .9 1.5v.8l1.1-1.2c.6.9 1.3 1.6 1.2 1.8a3 3 0 0 1-1.7 1.3c-.2.1-.5-.1-.8-.4l-.3 1.3 2.4.7c.1 0 .1 0 .1-.1a5.4 5.4 0 0 1-.6-1.1h1.5a26.8 26.8 0 0 0 1.2-3 7.5 7.5 0 0 0-.7-1.2l-.2.3h-.1c-.1 0-.1 0-.1.1l-.6-.5h-.1l-.5-.3a2.3 2.3 0 0 1 .7-.7 3.3 3.3 0 0 0-3-1.1h-.1a2.5 2.5 0 0 0 .2.7l-.6.2zm1.1-4.1zm32.3-2.8v.3l.2-.2z" fill="#ff7dbe"></path><path d="M1027 390.1c1.1-4.2-5-5.7-4.4-9-2.3-2.5-1.3-8.4-6.1-9.2-3.6-6.5-2.4-8.8-2.5-15.1-.6-1.5-2.4-3.7-5.9-8.8 0-5.9.3-9.8-2.1-12.1-2-5.8-3-8.8-1.5-14.1-3.3-4-4.4-7-5.2-13.5-1.2-1.1-4.1-7.5-2-11.2-2.6-4.3-3-9.3-4.6-12.3-.4-1-2.5-3.4-.1-4.7-1.5.2-.9-4.4-2.8-8.6-1.9-1 .4-6.1-2.4-6.7-.9-2.6-1.4-8.5-6.2-8.3-.2-7.3-1.2-9.6-3-13.8-4.6-1.9-4-3.8-5.7-2.5-2.6-6.5-6.2-9.3-9.2-8.6-2.8-1.4-3.4.4-11.4-.3-.6-3.8-7.3 3.1-9.2 5.1s-6.6 6.2-7.5 12.8c-3.4-.4-3.9 3.4-5.3 6.9a34.9 34.9 0 0 0-4.7 11.8c-1.7 3-2.7 8.9-4.3 13.4a75.1 75.1 0 0 1-3.7 10.4c.1 2.9-.8 6.4-1.7 10s-1.7 7.2-2.6 10.7-2.2 9.3-3.4 13.9-2.4 9.3-3.4 15.5c-2.1 3-2.4 8.1-4.8 11.7-.2 5.2-1 9.1-3.5 12.6-2 6.7-5 12.6-8.7 19-.9 2.5-.1 9.7-7 13.3-2.8-1.3-1.8 3.2-8 3.9-.4.3-4.4 3-1.7 2.6.1.8-.5-2.3.5-3.6-4.2 2.7-7.8 2.5-11.5.1-3.4.2-8.6-4.8-10.4-6.7-2.4.1-4.4-2.5-6.8-4.3s-4.6-5.8-6.4-7.2a19.6 19.6 0 0 1-4.2-10.2c-3.9-.1-4.2-7.6-13.3-11.4 5.4-3.5 2.4-6.7 3-8.5-4.6-6.2-9.6-8.5-14.1-15.4.4.5 1.1 1.8 1.5.1s-3.2-4.1-.2-8.8c-3.9-.5-8.8-5.4-6.5-5.5-4.5-4.1-7.3-3.2-11.2-9-2.7-2.9-6.2-3.8-11-4.7-9.6-1.9-20 .9-28.6 7.7s-12.2 13.4-16 20-6.4 12-9.3 17.8-6.7 13.5-10.4 19.8c-1.9 3.1-3.9 6.1-6 9.2-.4-.6-1.1.9-2.1 1.8a27.8 27.8 0 0 1-8.8 8.6c-.3 5.7-2.4 6.7-4.6 7.4a9.6 9.6 0 0 0-12.3 3.6c.5-.4 1.7-4.1 2.5-3.7-2.4-1.4-3.4-.6-4.3 2-6.9-2.2-11.1-2.9-17-.8-2.7-1.8-5.2-.6-8.1-3.7-3.3-.6-5.4-2.2-7.9-4.9a105.3 105.3 0 0 1-10.1-7.1c-.3-4-3.7-4.7-5.9-6.9s-4.5-4.4-6.7-6.7l-6.8-6.7c.6-.4.2-.8-.1-1.2a30.6 30.6 0 0 1-5.1-5.1c-1.5-1.1-4.3-2.3-5.1-3.7s-4.4-4.1-7.4-4.8c-3.2-2.5-6.9-3-13.2-2.8-3.9-.3-7-1.5-12.6-1.2-4 2-7 3.1-14.2 3.3-3.3 3.3-5.7 5.3-8 8.1a42 42 0 0 0-6.1 5.3c-2.7 1.8-3.6 4.6-5 6.4a15.2 15.2 0 0 0-5.1 5c-2.5 3-4.9 5.9-7.5 8.6a81 81 0 0 1-8.5 8 65.5 65.5 0 0 1-41 13.8l-.2 17.8h.9a83.8 83.8 0 0 0 51.4-17.7 134.8 134.8 0 0 0 10.3-9.3c3-4.2 7-6 9.2-10.9.2-2.4 2.6-3.8 2.7-5 1.8-.7.8-5.6 5.8-.7 3.4-5 .4-4.6 6.3-7a5.7 5.7 0 0 1 6-3.8c1.3-.7 3.3-4.5 5.7-3 3.3-1.6 6.6-1.2 7 .3 4.2-1.6 7.2-.2 8.7-.5.8 1.4 3.7 1.8 2.8 5.2 3.8-.1 5.1.8 6.8 2.8-.9 1.6.5 3.4 3.8 3.3-.8.2-1.7-.3-1 .8s2.2 1.6 3.3 3.4c2.3.1 1.5 2.9 4.7 3.2.4-.1 1.5 2.7 2.6 3.7a13.8 13.8 0 0 0 3.2 3.6c.4 1.5 1.4 2.8 3.9 4.4s2 2 2.7 3.6 3.3 1.4 5.6 6c4.2.8 4.4 2.4 8.3 4.9 1.2 2.9 3.8 2.7 7 3.8 5.2 0 7.1 5 11 7.1 3.7-2.5 4.6-5.5 10.5-3 4.2-2.2 6.3.1 12.1 1.1-.3-1.9 1.3.3 2.1-.5-.2 1-.4-1 0 1.9 4.5 1.4 11.1 0 13.9-4.3 4.8.8 7.5-.1 12.8-5.9 3.6.1 4.4-1.2 5.6-6.4 3.1-3.1 5.3-8.1 7.7-8.4 1-1.9 2-4 3.6-3.5 3.3-1.9 2.9-6 5.3-9.4s4.1-7.1 5.9-10.6 3.7-7.1 5.4-10.7c2.9-5.9 5.7-11.4 8.8-16.9a68 68 0 0 1 5-7.8 49.7 49.7 0 0 1 5.6-6.5c2.5-3.8 5.2-4.2 9.1-3.1 2-3 6.2-.5 9.8-.9-2.2-4 .8 1.4 1.5 1.2-1.5.4-1.8 5.2 6.9 7.1-1-3.5-1.4-3.6 2.6 2.2-1.2 2.4 1.5 5.4 4.5 7.7-3.6 2 .7 1.3 3.2-.8 2.3 2.9-.1 11-.1 13.3 6.2 9.6 8.3 8.3 8.4 17 4 1.2 4.5.7 6.8 8.8 1.1 1.6 5.5 5.3 7.8 8.8s4 6 7.1 9.7 6.3 6.2 9.9 6.8c4.8 5.5 7.6 5.4 6.5 10.1 10.2-2.1 14.2 3.1 15.3 1.8 3 1.7 6.5.6 13.8-1.3-3.7-.2-2.9 2.4-2.3-2.2 4.4 4.9 6.1.7 10.3-3.3s11.1-2.3 7.9-9.2c4.5 3.6 8-2.7 9.9-8 6.7-2.4 3.5-6.9 3.3-10.4a24.1 24.1 0 0 0 9.8-15.4c1.6-.6 3.2-8.9-.6-14a84.6 84.6 0 0 0 9-9.5c-1.9-5 2.8-14.6 2.5-19.9 2.5-2.8 1.7-7.9 4.1-11.2 3.2-6.5 2.2-10.8 2.7-12.4 2-1 3.8-4.8 1.4-5.2 2.5-8 1.8-7.5 2.9-14a16.1 16.1 0 0 1 5.6-10c.4-4.1-3.4-4.2 4.9-10.6 2-2.4-2.9-5.2 1.3-6.8 1.4-3.9 3.6-6.9 3-9.3 4.7-.7 5.7-3.1 8.8-4.6 0 8.9-.5 8.6-4.5 6 8.7 3.2 11.4 5.3 9.9 14.1 2.6 2.8 2.1 1.5 3.3 9.6 2.1 4.2 2.4 9 2.4 12.9 5 1 2.7.7-.4 1.2 2.3 4.7 7.5 14.3 4.9 16.3 3.1 1.8 6.1 6.8 2.6 11.2 4.7 3.3 3.4 5.7 7.2 14.1 1.3 3.4 2.4 6.8 3.5 10.6s2.1 7.9 2.8 11.9c.5 6.3 2.6 7.9 1.2 14 3.3 4.1 7.4 6.7 8.5 11.2s3 7.3 4.4 13.3c1.3 3.9 2.9 4.8 6.1 9.1s5.7 10.6 13.3 11.8c-1.1 2.2 4.9 4.9 9.1 6.1 2.7 4.5 6.3 2.3 11.3 3.3 2.9 1.5.2-3 2.3-9.9-1.3-1.9 3.4-3.9-.2-3.1-4.6-3-8.9-4.1-12.6-9.1-3.8-1.4-8-3.8-9-8.9z" fill="#fff"></path><path d="M458.4 299.7c-3.6-4.6-6.4-12.5-8.8-19.5-3.3-9.7-6.8-19.7-9.9-30l-.4-1.3c-.7-2.3-1.4-4.5-2.2-6.8s-2.1-6-1.7-5.5c-4.3-4.9-4.4-6.7-5.6-10.9-2.3 1.6-8.4-2.8-5.8-3.7-1 .7-5.3-.5-6.3-.2s-7.5.6-5.8 3.1c-1.3-1.3-5.5-1.2-5.6 3.8-1.8-1.7-5.4.2-5.4 1.5-1-1-3.4 3.4-1.6 5-2.2-.1-1 3.7-3.7 2.3.4 4.9-.4 4.8-1.6 7.2s-.8 4.8-3 6.8c.7-4.4.7.8 2.2 2.8-2.4 3-2.7 5.4-3.7 6 .7 1.9-.2 4.7-.6 6.5-.4-.2-1.3 1.2-2.3 3.3a71.5 71.5 0 0 0-3 8c.6 1.9-2.4 5.4-6.8 8.9-3.7 7.6-.6 13.9-5.8 14.1 1.6.7 1.1 4-.9.8.4 5.4-1-.5-3.4-1.6-4.9 5.2-4.2.4-8.7 1.8-1.9-5.4-4.5-5.1-10-7.9 1.1-3.8.1-6.1-5.5-10.6a66.8 66.8 0 0 0-3.7-13.5 103.1 103.1 0 0 1-5.1-12c-3.2-8.3-6.4-16.9-9.6-25.5-1.6-4.3-3.2-8.7-5-13s-1-9.1-4.4-11.7c1-1.1-1.6-3.8-1.1-5.2s-2.1-7.2-5.7-9.2c2.6-4.9 1.6-5.6-3.6-11.5-1.5-5.5-4.5-7-4.1-14.6-2.9 3.4-4.3 2.7-7.2 0-1.4-3.5-4-5.4-7.3-4.7-2.8-3.4-9-3.2-13.8-.1 2.4-2.5-1.8 4-8.4 2.9 0 2.3-2.7 7.5-4 9.1s-8 6.5-10.6 9.1a14 14 0 0 1-3.3 9.9c-1.2 3.8-2.1 5.5-2.6 11.2-1.4.4-3.4 3.3-2.2 7.4a11.4 11.4 0 0 0-3.4 8.6 55.6 55.6 0 0 0-3.9 8.8c-1.9 3.1-1.9 9-2.1 9.8-2.8 5.3-5 7.1-4.7 13.5-1.4 5.7-2 6.3-3.2 11.5-.4 2.2-3.6 4.7-6.1 9 .1.7 1 2.9.1 1.9-3.4 8-6.1 12.7-6.6 15.9-5.4 4.1-6.3 8.9-11.4 9.9 1.3 1.4-2.6 1.4-5.2.9-.9 2.2.3-.1.3.1-3.3.8-3.6-1.7-6.2-1.5-4.4 2.7-8.6-.3-12.3 1-.3-.2-6.6 2.6-13.8-5.4 2 3-4.3 2.3-4.3-3-.8.7-7.9-5.1-9.2-8.5s-2.2.4-5.7-6.1c-.1-2.2-1.2-1.7-3.8-5.4s-4.1-6.9-5.3-7.4-3.6-3.6-4.4 3.1c2.7-5.3-.7-7.9-1.7-9.3a52 52 0 0 0-5.3-5.1 38 38 0 0 0-18.6-7.9 43.3 43.3 0 0 0-25.1 4.6 46.8 46.8 0 0 0-9.1 6.3 76.8 76.8 0 0 0-6.4 6.6c-.3 3.3-3.1 3.2-3 7.5-2.8.1-3.8 1.7-6.2 4s-4.9 6.4-5.6 8.4c-2.3 2.8-5.6 6.5-9.4 8.8-5.9 6-6.2 7-12.7 6.7-1.8 4.1-7.3 4.6-12.6 7.7-2.2-1.2-7.9.9-12.5-1 1.2-.2-.5 5.8-.4 8.8-.9 4.5-1.4 11.1-.7 10.9-.1-2.7 1.1-.6 1.5-1.4 3.2-1.7 9 .1 12.4-3.4 5.8 1.6 7.3-1.2 14.2-1.8 1-1.6 5.9-3.1 11.4-5.9 3.5-3.6 9.2-7.4 10.4-6.4 4.7-3.8 6.4-9.2 9.8-10.5a64.6 64.6 0 0 1 8.4-11.1c1.1-2.9 3-3.4 4.8-5.5.2-1.5 1.5-3.2 3-4.9a35.4 35.4 0 0 1 10.4-8.9 26.4 26.4 0 0 1 15.2-2.8 20.2 20.2 0 0 1 10.3 4.4 57.2 57.2 0 0 0 5.1 3.9c.2-.6 1.9 6 3.6 3.5-3.1 1.9-6.4 1.1-2.2-1.6 3.3 4.1 4 5.5 8.5 11.5-1 1.9 3.9.9 4.6 10.2 0-1.5 6.8.5 7.2 2.7 4.7 2 4.7 2.2 7.5 7.5-.9 2 5.1 2.9 3.2 5.9 6.9.1 9.3 2.6 9.9 4.1-2.4-.6 6.6-1.2 11.5 3 2.4 1 4.9 1.1 5.4-1.1 8.8 5.5 10.7 4.1 13 .1.6.3.6 2.8 1.4 3.9.9-.6 0-3.4 2.3.2 5.6-1.1 7.7-2.6 11.4-2.5 4.6-3.9 9.4-7.8 11-9.9 3.4-3.2 6.3-8.7 8-10.6 4.6-6.8 6.5-11.8 9.9-15.6-1.2-1.4-.2-1.8-.2-1.8 1.7-3.7 3.3-7.4 4.8-11.2s3.2-6.2 5.8-11.3c.9-5 .7-7.5 1.1-12.9 2.8-3.6 4.8-6.3 5.4-11.2.8-2.8.9-4.6 1.8-8.8.6-2.5 3.3-6.1 4.3-8.1-1.4-1.8 1.2-5.5 1.3-7.8 2.6-5.1 3.7-9.9 5.3-15.2 4-1.2 4.2-4 7.3-8.7.7-4.1.8-3.7 8.3-7.7-.1-.3 1.5.6 1.4-.4s2.5 2.9 6.8 4.7c.1 1.5 2.7 2.8 2.8 10.1 3.4 2.2 1.4 2.7 3 6.2 4.1 2.7 3.2 8.1 5.2 11.1.2-1.4 1.2.9.6 2 2.3 5.1 3.5 8.8 5.1 13.2 4.7 13.3 9.7 26.3 14.5 39 1.3 3.4 2.7 7 4.2 10s3.5 7.2 5.4 11.6 2.6 6.5 4.4 9c1.9 4.3 2.8 7.6 7.2 9 4.9 4.8 5.5 8.7 12 9.8-.4 5.2 3.7 5.2 7.3 7.4 7 1.3 11-1.8 11.6 1.7.4-1.3 4.7 0 4.4-4.9-1 .3 4.9 3.2 11.2 2.2-.3-4.5 7.8-10.6 9.1-12.8-.6-6.9 2.9-5.4 4.3-6.6 0-9.2.8-7.9-.2-13.3 1.4-3.2 4.5-7.4 5.8-9.3-2.1-2.2-1.5-3.4-.3-4.8s3-2.9 3.5-6.1c-2.3-.4-1.9.1-2-2.3s3.1-3.8.4-4.2c1.1-3.8 2.2-3 3.8-7-.4-2.5 3.2-7.1 3.2-4.7.3-3.8.9-3.6 4.4-7.9-2.3-.8-2.9-4.4.2-.2.5-2.5.1 1-1 1.7 2.3 1.8 2.3 1.3 3.6 7.1 3 .6-.3 2.1 3.6 2.9-1 1.3-1.6 5.5-1.8-.1 1.3 3.8 1.9 7.1 2.8 9.2s2 3.7 2 4.1c.9 2.9.3 4.9 2.1 8.7 3.6 4.6 1.6 8.9 6.4 9.6-.8 2.4.5 7.1 1.2 10.3a87.5 87.5 0 0 0 3.7 8.3 38 38 0 0 0 4.7 7.5 29.3 29.3 0 0 0 22.5 11.8l.5-16.8c-3.8-.1-7.1-1.9-9.8-5.3z" fill="#fff"></path></g></g></svg>