<svg xmlns="http://www.w3.org/2000/svg" width="1030" height="474" viewBox="-0.28162136673927307 0.11842244863510132 1030.374267578125 473.8961181640625" style=""><g><g fill="#6887a6" data-name="Layer 2"><path d="M432.7 197.6c-3.8-1.9-8.3-1-12.1-3.6-1.9-1.4-4.6.2-6.1 2.7s-.8 3.1-2.8 2.2c-.3-.2.3-1.9.2-2.8s-1-1.4-1.3-1.3c-2.9 1.2-6.1-.6-8.6.1-7.6 2.3-15.1.2-22.5.9-1.8.1-3.5 1.2-5.2 1.8l.2.3c-1.2-1.8-2.9-2.3-4.6-1s-3.5 2.5-5.9 1.2a7.3 7.3 0 0 0-4.3-.7 92.9 92.9 0 0 1-20.4 1.3c-1 0-2 .8-3.1 1.2l.3.2c-.9-.6-1.9-1.8-2.7-1.6l-18.3 3.6c-2.3.5-4.7 2.8-6.9-.4-.3-.4-1.9.2-2.9.4-2.8.3-5.6 2.5-8.1-.6a1.3 1.3 0 0 0-1-.2c-4.6 5.1-10.3.8-15.5 1.7-14.1 2.6-28.5.6-42.7.9s-29.3-2.5-43.6-5.9c-2.2-.5-4.5-.5-6.5-1.3s-1.2-2.4-1.8-3.6l-.2.3c3.7.5 5.6-1.7 6.9-4.7l-.2.2c3.3-.3 4.1 1.9 4.6 4.5a1.5 1.5 0 0 0-.9.2c-.2.1-.2.4-.3.6a9.4 9.4 0 0 0 1-1l5.1-2.1c1.7-.8 3.3-1.5 4.5.9.3.5 1.2.7 1.9.8 5.4.9 10.9 2.5 16.2 2.2s10.7 1.2 16.1 1.4 11.4-1.5 17.2-1.6c.2 0 .6-.5.5-.6a4 4 0 0 0-1-1.8 6.2 6.2 0 0 0-6.3-.1c-2.9 1.6-4.9-.3-7.2-1.4l.2.3c.3-1.3.5-2.6.8-4a30.9 30.9 0 0 0-4.3 0c-.5.1-.8 1.1-1.2 1.7l.3-.2h-2.5l.2.3c.1-1.8.1-3.9 2.5-4.2a21 21 0 0 1 10.8.6 23.3 23.3 0 0 0 18.1-.9l-.3-.3c2.2 2.9 2.7 2.9 4.8 0l-.3.3c2.8-.1 5.6.1 8.4-.2 1.1-.2 2-1.5 3.1-2.3l-.3.2 2.5-.2c.1.3.1.6.3.8s.4.2.6.2l-1.1-.8-2.3-2.5.2.3c2.7-4.1 2.7-4.1 4.8-1.1l1.7 2.7c.4.6.7 1.4 1.3 1.7a2.1 2.1 0 0 0 1.9 0 2.2 2.2 0 0 0 .9-1.7 5.6 5.6 0 0 0-.8-2c-.5-1.3-3.7-2.3-.8-3.9s3.5-.1 4.4 2 2.7 2.1 4.5 2.3l-.2-.3c1.3 3.8 1.3 3.9 3.7 2.6a40.8 40.8 0 0 0 3.3-2.5l-.3.2c1.8.2 3.7.9 5.4.6a119.3 119.3 0 0 1 19.8-1.6c3 .1 6.6-.4 8.7-3.5l-.3-.2c.8.7 1.8 2.1 2.3 2 4-1 7.9-.4 11.9.1 1.9.3 2.4-1.1 1.4-3.5-.4-.9-1.7-1.8 0-2.6a2.6 2.6 0 0 1 2.1-.1 7 7 0 0 1 2.6 1.9c2.7 3.1 6 2 9.3 1.7 0 0 .2-.7.1-.8-3.3-4.4 1.2-2.7 2.2-2.6s2.8 1.1 4.1 1.6.7 1.3 1.3 1.6 1.1-.2 1.8-.3-.8-.9-1.2-1a7.4 7.4 0 0 0-2.1 0c2-3.4 5.9-2.7 8.8-3.8s3.6 2.6 6.6 2.5 4.1.2 5.5-2 4.3-3.3 7.3-1.3 5.4 1.3 6.9-2.2a2.1 2.1 0 0 1 1.9-.8c.6.1 1 1.1 1.6 1.3a14.6 14.6 0 0 0 5.2 1.5c1.2-.1 2.3-1.4 3.5-2.2l-.2.2 4.6-2.2-.2-.2c.5.4 1.4 1.4 1.6 1.3 4.3-3 10.1.4 14.2-3.3 8.9-.1 17.6-2.1 26.5-1.4 2.2.2 4.5 1.4 6.5.8 8.6-2.3 15.8 2.2 23.5 4.2s14.8 4.9 20.9 10c4.4 3.8 9.8 4.9 15 7 3.6 1.4 7.8 2 9.9 6.4.8 1.7 3.6 2.5 5.5 3.5 5.9 3.1 12.6 4.9 16.8 10.7 6.3 2.6 10.8 7.7 15.9 12.1 3.2 2.8 5.9 6 10.1 8.1s5.3 5.8 7.6 9.1c4.5 6.5 7.9 13.7 12.5 20.2s5.3 11.3 6.3 17.6 3.4 13.6 4.6 20.6 1.6 13.8 2.3 20.8.6 13.4 2.4 19.7a80.7 80.7 0 0 1 3.1 17.3c.4 6.6 4.1 11.8 5.8 17.8.5 1.6 2.1 3 3.4 4.3s2.3.9 2.8 1.7c3.6 6.3 10.2 8.3 16.1 10.8 2.8 1.2 3.5 5 7.6 4.6s6 2.5 9.5 2.7 5 1.6 7.4 2.4 3.6 1.6 5.3 1.5c4.4-.3 8.3-.9 12.7 1.6s8.5 1.6 12.7 3.6a34.8 34.8 0 0 0 13.9 3.1c7.2.2 13.8 2.8 20.7 4.2a16.3 16.3 0 0 0 4.3.8c1.4 0 3-1.2 4.2-.9s1.2 2.7 2.1 3c5.3 1.6 10.6 3.4 16 4.1s10.7 3.2 16.3 1.4c4.8 2.5 10.2 1.5 15.3 2.2 1.8.2 3.9-.3 5.5.3 4.6 1.9 8.6 2.8 13.6.2 2.9-1.6 7.2-.6 10.9-.7.5 0 1.4.8 1.4 1.2.1 4.1 2.7 2.7 4.6 2.1s1.9-1.4 2.9-1.7 2.5-.6 3-.2c3 3.1 5.9 2.1 9.1.4a11.7 11.7 0 0 1 5.2-1.6c1.3 0 2.6 1.2 3.8 1.8a6.6 6.6 0 0 0-2 .1c-.6.2-1.5.7-1.5 1.1a2.6 2.6 0 0 0 1 1.6c1.2.9 1.8.1 2.2-.9a7.4 7.4 0 0 0 .1-2.1l7.3 2.8c1.8.7 3.6 1 5.2-.3s3.4-1 5.3-.6a29.8 29.8 0 0 0 16.4-1.8c2.7-1.1 5.5-1.6 8.6-.2s4.4.4 6.6.2c4-.4 8.2-2.1 11.9-1.2s8-.5 12-.9 8.1-1 12.1-1.6c1.5-.2 3-.8 4.4-.6 9.9 1.2 19.8-1 29.8 1.2 6 1.4 12.4 2 18.6 2.9a23.3 23.3 0 0 1 11.2 4.5c2.3 1.8 5.1 2.8 7.5 4.5s2.5 5.3.4 6.9c-5.5 4.3-10.2 9.6-17.3 11.8-4.6 1.3-8.9 3.7-13.1 5.9s-7.6 4-12.4 2.6-5.9 2.9-9.1 3.4-6.5-.2-9.7.2c-1.7.2-3.3 1.7-4.9 2.6s-5.9 3.5-9.3 1.1c-3.9 1.2-7.8 2.4-11.7-.1-.6-.4-2.2.3-3.1.8a22.9 22.9 0 0 1-12.8 3.3 12.9 12.9 0 0 0-7.3 2.3c-1.1.7-3 1.6-4.1 1.1-5.9-2.5-10.9.4-15.9 2.5-3.2 1.4-5.9 2.4-9.3-.2-1.7-1.3-5.1-.1-7-1.3s-4.2-.7-6.3-.5a29 29 0 0 1-7.8-.3 30.4 30.4 0 0 0-13.1.2c-4.1 1-7.9.5-12-.7s-9.4-2.1-14.1.3a6.7 6.7 0 0 1-5.2 0c-3-1.5-4.9-.3-7.2 1.2s-1.6.7-1.7-2.1-1-3.4-2.3-2.8c-4.8 2.3-9.3.3-13.8-.8-1.8-.4-3.3-1.3-5.1 0s-1.5 2.1-1.4 3.8-2.1.7-2.3-.5c-.6-4.7-3.1-5.6-7-3.7-1.4.7-1.8-.6-2.6-1.3s-2-1.5-2.5-1.2a62.4 62.4 0 0 0-6.6 3.8l.2-.2c-1.5.4-3.3.5-3.9-1-1.3-3.3-3.3-2-5.3-1.3l.2.3c0-1.6-.1-3.1-.2-4.6l1-.4c.2 0 .2-.4.3-.6l-1.1 1.2-3.5 2c-2.2 1.4-2.2 1.4-3.5-2.3l.8-.7-.5.9c-1.2 1.3-2.2 3.4-3.5 3.5a54.8 54.8 0 0 1-10.7-.2c-.5 0-1-.9-1.5-1.4s-2.5-3.2-3.9-3.3-2.8 1.8-4.4 2.6a14.1 14.1 0 0 1-3.1.8l.3.2c.3-1.4.7-2.8.9-4.3a3.9 3.9 0 0 0-.4-1.8.9.9 0 0 0-1-.1c-6 4.5-11.6 1.6-17.3-.9s-9.8-4.4-15.2-5.3c-2-.3-4.4-.9-5.2-3.5-.2-.5-2-.9-2.5-.6a18.1 18.1 0 0 0-3.3 2.9c-1.9 1.7-2.9 1.7-4.4-.1s-2.2-2.9-3.3-4.4l.2.3-.3-2.5 2.3-2.2.7-.5.3-.4-.8 1.2-2.2 2.1-2.5 2.2v-.2c-1.6.8-3.2 1.9-5.2.8s-5-2-6.8-3.7a6.5 6.5 0 0 0-6.8-1.8 6.4 6.4 0 0 1-6.3-1.5c-1.7-1.8-2-4.9-5.2-5.4s-5.2-.3-6.6-3.1c-3.5 1.5-5.2-.7-7.1-3.1s-2.7-3-4.4-3.3c-5.2-.9-7.8-5.3-11.2-8.3s-4.2-4.7-7-6.7-4.2-5.7-6.2-8.5-2.5-4.4-4.3-4.9c-5.9-1.9-6.5-7.2-7.1-11.5s-2.9-9.9-4.3-14.9c-1.1-3.4-3.3-6.1-2.3-10.4s-1.5-7.1-2.3-10.6c-.1-.4.9-1.1 1.4-1.6a3.2 3.2 0 0 0 .3.9l.5.2-1-.9c.5-1 .9-2 1.5-3 2-3.5-4-6.7-.5-10.4s1.9-6.7.6-9.5a21.7 21.7 0 0 1-.8-15.2c1.1-4 .2-7.2-.6-10.6a36.1 36.1 0 0 1-.7-7.3c.1-4.6.6-9.5-2.6-13.8-1.3-1.7 1.8-4.8-.6-7.1a39.7 39.7 0 0 1-4.2-5 2.6 2.6 0 0 1-.1-2.1c1.5-2.8.2-4.7-1.5-6.9a101.1 101.1 0 0 1-7.3-11.1c-1.3-2.1-2.8-2.9-5.1-3.7s1.8-2.4.7-3c-5.9-3.1-8.4-10.5-15.6-11.9-1.6-.4-3.1-1.8-4.6-3l-16.3-13.2c-.6-.5-1.1-1.2-1.8-1.4-8.1-3-14.7-8.6-21.4-13.7-2.9-2.3-6.4-.7-9.1-3.2s-6-1.2-9.4-.7-5.7-1.8-8.5-1.7-5.3 2.4-8.1 2.8-4.1-1.2-6.2-1.3-4.3.6-6.5.8c-.7.1-1.7-.6-2.1-.3-4.7 3-9.6 2.9-14.7 1.3-.5-.2-1.5 1.3-2.3 1.9l.2-.2c-2 1-2.2 2.9-2.4 4.8zm241.8 237.7l-.7.6.4-.9.9-.3.3-.5zm53 17.6a20.7 20.7 0 0 0 2.5 0 1.6 1.6 0 0 0 .8-.8 1.4 1.4 0 0 0-.5-.8 8 8 0 0 0-2.1-.5l-3.1.9zm-20.7-7.1l1.9-.5a4.8 4.8 0 0 0-1.8-.8c-.6-.1-1.2.3-1.9.5zM292.4 191.9c-.7-.3-1.3-.8-1.9-.8s-1.3.4-1.9.6a5.3 5.3 0 0 0 2.2 1.2c.4.1 1-.6 1.6-1zm461.4 262.6c-.2-.3-.5-.8-.6-.7l-1.8.8.9 1.4zm-35.9-4c-.4-.6-.8-1.3-1-1.3a2.6 2.6 0 0 0-1.7.9c-.2.4.2 1.2.3 1.8zM301.2 190c0-.2 0-.5-.2-.6h-.8a2.9 2.9 0 0 0 .2.9zm-21.3 2.9l-.6-.8-.7.7.9 1a3.6 3.6 0 0 0 .4-.9zm421.9 247.9l.8.4v-.7z"></path><path d="M166.2 52.1c-4.9 3.1-4.7 8.1-4.3 12.9.1 1.5 2.3 2.8 2.4 4.3s-2.3 1.6-3.1 2.8 0 4.7 1.4 6 3.8 3.4.8 6a4.9 4.9 0 0 0-1.3 3c-1.1 9.9-1.8 19.9-2.6 29.8-.3 3.9 2.4 6 5.2 8a1.7 1.7 0 0 1 .3 1.8 2.2 2.2 0 0 1-1.8.8c-2.2-.7-3.5-.4-3.5 2.3l-.3 13.4c0 2.2.4 4.7-.4 6.6-2.9 7-.1 12.9 2.6 19 .7 1.5 0 3.7.7 5.1 1.9 3.5 3.4 7.3 7.5 9.4 2.1 1.1 3.5 3.7 5.1 5.7l.2-.3c-6-1.3-10.8-4.8-14.9-9s-9.1-10.3-10.3-17.9-4.3-14.1-6.4-21.1c-.7-2.4-1.8-5 .5-7.4a2.1 2.1 0 0 0 .4-1.8 44.3 44.3 0 0 0-5.5-5.1c-.8-.6-2.9 1.7-3-.9-.1-.4 2.3-1 3.6-1.5l1.1-.2c2.7-.8 1-1.7 0-2.6a8.8 8.8 0 0 1-1.2-1.9l-.2.2a15.2 15.2 0 0 0 2.1-.3c.3 0 .9-.4.8-.5s-.4-1.2-.8-1.4a7.1 7.1 0 0 0-2.1-.3l.2.2 2.3-4.6-.3.2c1.8-.8 2.1-1.7 0-2.5l.3.2c.3-3.9.2-8 1.2-11.7 1.5-5.6.4-10-4.1-13.6a2.9 2.9 0 0 1-.8-1.8c.8-1.5 1.9-.3 2.8-.1l1.1.2c2.4 0 3.2-1 1.7-3.2s-.9-3 1.1-4 .8-1.1 1.2-1.7l.9-.4.3-.5a5.2 5.2 0 0 0-1 1.1c-1.5-.5-4.2 0-2.5-3.1l2.7-4.8c.7-1.4 1-2.8 0-4.2s-1.9-4.3-1.2-7.2.4-7.3.4-11c-.1-2.1-.7-4.3-.5-6.5 1.2-11.7 1.3-11.7-3.1-20.6l-.3-1.1-.2.2c4-1.6 4.2-1.6 5.1.9 2.9 7.6 7.9 14.2 9.1 22.6.5 3.4 4 6.1 4 10.1a3.5 3.5 0 0 0-1.1.3 1.4 1.4 0 0 0-.2.7l1.1-1.2c1-.1 2.1-.1 3.1-.3 2.7-.4 2.7-.5 3.5 2.8zm-15.8 29.4l-.3-.8-.5-.3 1 .9.8.6zm-2 33.6c-1.8.7-1.6 1.3 0 2a3.6 3.6 0 0 0 .2 1l.7.2-1.2-1v-2.4l.9-.5c.2-.1.2-.4.2-.6zm1.8-77.1c-.6.4-1.4.9-1.4 1.1a13.5 13.5 0 0 0 1.5 2.6 3.1 3.1 0 0 0 .9.4c.3-.6 1-1.3.8-1.7a13.7 13.7 0 0 0-1.8-2.4zm2.5 33.3l-2.4-2.7c-.1-.1-.8.5-.8.6s1.1 2.4 1.7 3.7zm-2.4 36l-.6-2a14.9 14.9 0 0 0-1.4 1.2 5.5 5.5 0 0 0-.9 1.9c0 .5.4 1.4.7 1.5a1.8 1.8 0 0 0 1.7-.7c.4-.4.4-1.2.5-1.9zm.3-56.6l-.9.4a14.2 14.2 0 0 0 .8 1.8l1.4-.7zm1.2 7.3c-.2.1-.6.1-.7.3a3.1 3.1 0 0 0-.1 1l1.1-.3zm-2.3 33.6c-.2.2-.7.5-.7.6a12.7 12.7 0 0 0 .6 1.8c.2-.2.7-.5.7-.7a11.5 11.5 0 0 0-.6-1.7zm-.1 30.7l-.4.6h.7z"></path><path d="M166 52.4c3.3-5.2 2.6-7.6-2.7-9.3a11.1 11.1 0 0 1-2.9-1.4c-.1-.1.3-1.7.6-1.8a18.4 18.4 0 0 1 4.1-.3c1-.1 2.2.3 2.9-.2s1.8-2.9 2.5 0 1.1 7.9 1.9 11.8c.4 2.1.2 4.6 2.8 5.6l-.2-.2c.6 1.7 1.2 3.5 1.9 5.1s1.6 2.4 1.3 2.9c-3.4 5.4 1.5 10.7.1 16.3s.5 10.1.1 15.1a17.3 17.3 0 0 0 .6 7.5 5.8 5.8 0 0 1 0 4.3c-2.5 4.9-.2 10.4-2.5 15.2-1.2 2.7.5 5.1.9 7.6s1.4 4.1-.7 6c-.4.4-.8 1.7-.5 2 2.5 3.1 1.3 5.6.1 9s.4 6.4.5 9.6a7.1 7.1 0 0 1-1.4 4.2c-2.6 3.2-.8 6.3-.3 9.5l.3-.2a19.4 19.4 0 0 1-3.4.2c-1.5 0-3.1-.7-3.1-2.4-.1-4.8 0-9.5.1-14.2 0-1.4.6-2.9.2-4.2s-3-5.1.2-7.6l-.9-7.7a2.1 2.1 0 0 1 0-1.1c3.1-8 .8-15.1-3.5-21.9-1-1.5-.1-2.7 1.2-3.7 2.5 2.4 3.2 2.4 4.1-.1a14.9 14.9 0 0 0 .2-2.1l.8-.4c.1-.1.1-.4.2-.5a10.5 10.5 0 0 1-.8 1.1l-4.6 2.2c-.7-5.8.5-11.8 2.5-18.5.6-1.8-1.6-4.1.7-6.3s-.1-4-.3-6.1c-.4-6.1-.5-12.3-.7-18.5a2.5 2.5 0 0 0 .9-.4c.1-.1.1-.4.2-.6l-.9 1.2c-2.7-1.7-1.7-4.6-2.3-7zm4.7 40.9c-.6.3-1.5.5-1.6 1s.4 1.2.7 1.8l2.2-1.3z"></path><path d="M79 45.6c.4-1.4.4-3.6 1.2-4 5.9-2.3 10.7-6.4 16-9.7a4.3 4.3 0 0 1 2-.7c.2 0 .8.2.9.5s.6 1.5.4 1.7c-6.1 5.5-13.3 9.1-20.8 11.9z"></path><path d="M181.9 182c-3.2 2.2-5.6 1.5-8.2-1.5s-3-3.4-.6-6.2c.9-1.1 1.5-2.4 2.3-3.6l-.3.2 6.6 11.3z"></path><path d="M67.8 54.6c2-5.2 6.9-6.7 11.2-9l-.3-.3c-.1 1.1.2 2.9-.2 3.1-3.9 1.6-6.1 6.2-10.9 6z"></path><path d="M237.9 191h-6.5c-3.7-.2-3.7-.3-2.4-4.6l-.2.3c3.4-.5 6.5 0 9.1 2.3l-.2-.3v2.5z"></path><path d="M320.3 177.3c-2.8-.1-4.8-1.3-5.7-3.9-.1-.4.8-1.5 1-1.4a42.4 42.4 0 0 1 5.9 2.3c.4.1.6 1.3.4 1.8s-1.1.8-1.6 1.2z"></path><path d="M162.4 10.7c.6.2 1.6.2 1.8.7a60.2 60.2 0 0 1 3 5.6c.1.1-.3.6-.5.8s-.7.4-.9.3l-5.2-5c-.1-.2.6-1.2 1-1.8s.6-.4.8-.6z"></path><path d="M174.9 189a11 11 0 0 1 11.4 4.4l.2-.3c-2.3 1.4-4.3 2.1-6.4-.6s-3.3-2.5-5-3.8z"></path><path d="M302.8 180c1.1-1.3 2-3 3.4-3.9s2.5 0 3.8 0-.4 1.9-.5 2.8-.1.7-.2 1.1l.3-.2h-7z"></path><path d="M219.9 188.8c-1 0-2.2-.3-3 .2-3 1.5-3.4-.3-3.6-2.6l-.2.3a10.7 10.7 0 0 1 1.9-.9c1.3-.3 3.1-1.1 3.8-.5s.6 2.5.9 3.8z"></path><path d="M121.3 20.8c-2.8 3.8-6.9 4.4-11.2 4.5l.2.2c2.9-3.5 6.4-5.5 11.2-4.5z"></path><path d="M269.3 184.5v-4.8l-.2.3h1.1c4.7.2 4.7.2 3.3 4.6l.3-.3H269z"></path><path d="M99.2 9.9c.6-3.8 3.6-4.1 6.6-4.6l-.3-.2c.1 4.8-3.7 3.9-6.5 4.5z"></path><path d="M133.5 17.8c-1.5.1-3.1.3-4.8.3s-.8-.5-1.2-.8.5-.5.8-.6l5.1-1c.1-.1.6.4.6.7s-.2.6-.5 1.4z"></path><path d="M329.5 206.6c-2.5 3.5-5.9 1.7-9 1.7-.2 0-.4-.4-.6-.6s.6-.6 1-.6l8.8-.3z"></path><path d="M244.4 190.9c-3.2 2.9-3.2 2.9-6.5.1l-.2.2 2.5-2.5-.3.2 4.7 2.3z"></path><path d="M331 173.1c-.9.8-1.5 1.6-1.7 1.6a19.1 19.1 0 0 1-2.7-1.6c-.2-.2-.5-.7-.4-1s.6-.7.8-.6a30.2 30.2 0 0 1 4 1.6z"></path><path d="M110.1 25.3a4.5 4.5 0 0 1-3.1 4c-.7.2-1.8-.4-2.8-.6a11.3 11.3 0 0 1 1.2-1.8 4.7 4.7 0 0 1 4.9-1.4z"></path><path d="M112.1 2.1l3 2.3a12.2 12.2 0 0 1-3.2.4 2.4 2.4 0 0 1-1.1-1.6c0-.3.9-.7 1.3-1.1z"></path><path d="M193.2 188.7c-1.4 0-2.8.1-4.2 0a1.9 1.9 0 0 1-1.4-1 2.5 2.5 0 0 1 1-1.7 2.4 2.4 0 0 1 1.8-.2 38.8 38.8 0 0 1 2.6 3.1z"></path><path d="M285 182a15.8 15.8 0 0 1-3.1-.1 8.2 8.2 0 0 1-2.5-1.2c-.1 0 .1-.6.3-.9s2-1.6 3.4-.8l1.8 1-.2-.3v2.5z"></path><path d="M54.4 63.6c0-2.2 1.4-3.3 3.2-3.8s1.3.1 1.9.2a5.3 5.3 0 0 1-.4 1.8c-1.2 1.7-3.1 1.6-4.9 1.6z"></path><path d="M76.7 21a22.3 22.3 0 0 1 3.3-2c.4-.2 1.2.4 1.8.6s-.7 1.1-1.1 1.1h-4.1z"></path><path d="M299.4 209.4l1.8.7a6.4 6.4 0 0 1-1.8.6 6 6 0 0 1-1.9-.6z"></path><path d="M67.8 27.7c.5-1.5 1.4-2.3 3-1.4s.3 1.1.4 1.7-.5.6-.7.5l-2.9-1z"></path><path d="M67.6 54.4a17 17 0 0 1-1.8 2.6c-.3.3-1.2 0-1.8 0s.2-1.6.6-1.8a16.5 16.5 0 0 1 3.2-.6z"></path><path d="M44.5 73.6a18.4 18.4 0 0 1-1.9 2c-.1.1-1.2-.6-1.1-.8a2.6 2.6 0 0 1 .9-1.7c.5-.2 1.2.2 2.1.5z"></path><path d="M2.6 112.6a24.6 24.6 0 0 1-.9 2.9c-.2.4-1.1.4-1.7.5s-.1-1.3.2-1.6 1.7-1 2.6-1.6z"></path><path d="M219.7 189.1l4.6-2.5-.2-.2a1.7 1.7 0 0 1 .1 1c-.5 3.8-1 3.9-4.3 1.4z"></path><path d="M24.9 90.2c-.2 2.7-1.3 4.6-4.4 4.4l.2.2c.7-2.2 2.4-3.4 4.4-4.4z"></path><path d="M337.3 206.5l-1.9-.8a3.8 3.8 0 0 1 1.9-.6 4.4 4.4 0 0 1 1.9.7z"></path><path d="M87.9 14.3c1.4-3.1 4.3-2 6.6-2.3l-.2-.2c-1.3 3.3-4.1 2.3-6.6 2.3z"></path><path d="M377.6 206.3l-1.9-.6a10 10 0 0 1 2.1-1c.6 0 1.1.6 1.7.9z"></path><path d="M96.9 3.1c.1-.7.1-1.4.2-2.1s.7-1.3 1.3-.5a1.2 1.2 0 0 1-.1 1 11.4 11.4 0 0 1-1.6 1.4z"></path><path d="M96.7 2.9c-.4.4-.8 1.1-1.3 1.3s-1.2-.1-1.7-.2a3.5 3.5 0 0 1 1.3-.8h1.9z"></path><path d="M99 9.6c-.8 2.4-2.9 2-4.7 2.2l.2.2c1-2 2.5-2.8 4.7-2.1z"></path><path d="M87.7 14.1a4.8 4.8 0 0 1-1 1.7c-.4.2-1.1-.1-1.7-.1s.5-1.1.9-1.3a6.6 6.6 0 0 1 2-.1z"></path><path d="M76.6 20.8c-.5.5-.8 1.3-1.4 1.6s-1.2-.1-1.9-.2a4.5 4.5 0 0 1 1.3-1.1 7.2 7.2 0 0 1 2.1-.1z"></path><path d="M47.7 27l-.9-.3c.4-.2.7-.6 1.1-.7s.4.3.6.5z"></path><path d="M67.6 27.5c-.8 2.2-2.9 1.8-4.6 2.1l.3.3c.9-1.9 2.7-2 4.5-2.2z"></path><path d="M63 29.6c-.1.8-.1 1.5-.2 2.2a10.4 10.4 0 0 1-.4 1c-.2-.5-.8-1.1-.6-1.4a5.3 5.3 0 0 1 1.5-1.5z"></path><path d="M49.6 41a18.5 18.5 0 0 1-1.4 1.4c-.2.2-.7.2-1 .2s.3-.9.6-1a6.5 6.5 0 0 1 2-.4z"></path><path d="M49.8 65.7l4.6-2.1-.2-.2c-.9 2.1-2.8 2.1-4.7 2z"></path><path d="M49.5 65.4a16.1 16.1 0 0 1 0 2.2c-.2.4-.7.8-1 1.3s-.5-.5-.5-.8a1.4 1.4 0 0 1 .3-.9c.5-.6 1-1 1.5-1.5z"></path><path d="M17.1 75.9c-.3.1-.7.4-.8.3l-.6-.8a1.4 1.4 0 0 1 .9-.1c.2.1.3.4.5.6z"></path><path d="M137.9 156.5c.3.1.7 0 .8.2s.3.7.2.9-1 1.1-1.2-.1.1-.6.2-1z"></path><path d="M426 166.3l-2.2-.2-1-.5c.6-.2 1.2-.8 1.6-.6s1 1 1.4 1.5z"></path><path d="M181.7 182.2c.6.3 1.5.4 1.8.9s-.2 1.2-.2 1.8-1.2-.5-1.4-.9a6.7 6.7 0 0 1 0-2z"></path><path d="M213.3 186.4a7.1 7.1 0 0 1-2-.2 4.2 4.2 0 0 1-1.2-.8c.6 0 1.2-.3 1.7-.1s.9.9 1.3 1.4z"></path><path d="M229 186.4h-4.9l.2.2c2.6-2.3 2.6-2.3 4.5.1z"></path><path d="M418 198.8c.2-.3.5-.7.7-.7l1.5.8-.6.6z"></path><path d="M274.4 214.7c-.3.1-.7.4-1 .3s-1.1-.6-.2-1a1.3 1.3 0 0 1 .9.1c.2.1.2.4.3.6z"></path><path d="M121.5 21a10.4 10.4 0 0 0 .4-1l-.6.8z"></path><path d="M141.6 16.3l-1.3-.9c.3 0 .7-.1.9.1a1.8 1.8 0 0 1 .2 1z"></path><path d="M159.4 5.4l1.1.9c-.2-.1-.5-.1-.6-.3s-.2-.6-.3-.9z"></path><path d="M159.6 5.1l-1.2-.9.6.2a10.4 10.4 0 0 1 .4 1z"></path><path d="M105.8 5.3l.9-.9a1 1 0 0 1-.4.5l-.8.2z"></path><path d="M329.7 206.8l1.1-1.1c-.1.3-.1.6-.3.7a1.8 1.8 0 0 1-1 .2z"></path><path d="M336.2 199.9l-.9.9.3-.5.9-.2z"></path><path d="M432.5 197.9l.9.3-.7-.6z"></path><path d="M374.3 197.6l-.9 1 .3-.5.8-.2z"></path><path d="M434.7 193.3l1.1 1c-.2-.1-.5-.1-.6-.3s-.2-.6-.3-.9z"></path><path d="M203 185.8l-.2-.6.6.1-.4.5z"></path><path d="M196.5 185.1l.2.6-.6-.1.4-.5z"></path><path d="M269.3 179.7l-1.1-.7.5.2a2 2 0 0 1 .4.8z"></path><path d="M343.2 175.5V173l-.2.3c2.1.7 1.8 1.4-.1 2z"></path><path d="M343.2 173l-1.2-.8c.2.1.4.1.5.3a5.6 5.6 0 0 1 .5.8z"></path><path d="M430.4 164.3l.6-.9a2.7 2.7 0 0 0-.8.7z"></path><path d="M134.7 146.2l-.5.9.7-.7z"></path><path d="M134.9 146.4a4.4 4.4 0 0 0 .8-1.1c-.1.2-.1.4-.3.5l-.7.4z"></path><path d="M728 461.8l-.4 1 .7-.8z"></path><path d="M139.4 119.3c-1.1-.7-2-1.4 0-2.1l-.2-.2v2.5z"></path><path d="M141.7 112.6c-2-.7-1.4-1.4 0-2.1l-.3-.2v2.5z"></path><path d="M2.8 112.8l2.2-2.2-.2-.3-2.2 2.3z"></path><path d="M761.6 464a10.4 10.4 0 0 1-.4 1l.6-.7z"></path><path d="M5 110.6l1-1.1c-.1.2-.1.5-.3.6a1.5 1.5 0 0 1-.9.2z"></path><path d="M773 468.5l-2.2-2.2-.2.2 2.2 2.2z"></path><path d="M18.2 96.9l-.9 1.4c.1-.3 0-.7.1-.8l1-.4z"></path><path d="M20.5 94.6a2.2 2.2 0 0 1-2.3 2.3l.2.2 2.3-2.3z"></path><path d="M138.2 88.8l.2.5-.5-.1.3-.4z"></path><path d="M27.2 87.9l-2.3 2.3.2.2 2.3-2.2z"></path><path d="M772.8 468.7l1 .9c-.2-.1-.4-.1-.5-.3s-.2-.5-.3-.8z"></path><path d="M29.5 85.7l-2.3 2.2.2.3 2.3-2.3z"></path><path d="M31.7 83.5c-.1 1.4-.8 2.2-2.2 2.2l.2.2c-.1-1.5.7-2.2 2.2-2.2z"></path><path d="M31.9 83.7l.8-1.7c1.5 1.7-.5 1.1-1 1.5z"></path><path d="M676.6 443.9c-.7 1.8-1.5 1.5-2.2 0v.2h2.5z"></path><path d="M175.2 56.8l.9-1c-.1.2-.1.4-.3.5s-.5.2-.8.3z"></path><path d="M49.8 41.2a9.3 9.3 0 0 0 .5-1l-.7.8z"></path><path d="M57 35.4l.8-.2-.1.7-.7-.5z"></path><path d="M36.1 34.2l-.3 1 .6-.7z"></path><path d="M36.4 34.5a3.1 3.1 0 0 1 .5-1l-.8.7z"></path></g></g></svg>