<svg xmlns="http://www.w3.org/2000/svg" width="884.7" height="1080" viewBox="0.02376716211438179 0.025768065825104713 884.67626953125 1079.9742431640625" style=""><g><g fill="#f95a80" data-name="Слой 2"><path d="M853.2 1080h-.1a16.2 16.2 0 0 1-16.1-16.4c.2-19.3.4-40.8.8-63.9a16.2 16.2 0 0 1 16.2-16h.3a16.3 16.3 0 0 1 16 16.5c-.4 23.1-.6 44.5-.8 63.7a16.3 16.3 0 0 1-16.3 16.1zm3.4-193.9h-.4a16.2 16.2 0 0 1-15.9-16.6c1.2-51.9 2.5-106.5 3.9-162.6a16.2 16.2 0 0 1 16.2-15.8h.4a16.3 16.3 0 0 1 15.9 16.6c-1.4 56.1-2.7 110.7-3.9 162.6a16.2 16.2 0 0 1-16.2 15.8zm7-292.6h-.4a16.2 16.2 0 0 1-15.9-16.6c1.6-66.4 2.7-118 3.4-162.5a16.3 16.3 0 0 1 16.3-16h.3a16.3 16.3 0 0 1 15.9 16.6c-.7 44.5-1.8 96.2-3.4 162.6a16.2 16.2 0 0 1-16.2 15.9zm4.8-292.7a16.2 16.2 0 0 1-16.2-16.2v-9.4c0-78-2.2-105-3.8-114.4a136.7 136.7 0 0 0-14-2.4 16.2 16.2 0 1 1 4.1-32.2c20.6 2.6 30.3 6.1 35.8 12.8s10.4 12.7 10.4 136.2v9.4a16.2 16.2 0 0 1-16.3 16.2zm-16.6-138.9zM378 152.8c-53.2 0-93.5-.4-126.8-1.1a16.3 16.3 0 0 1 .4-32.5h.3c33.1.8 73.2 1.1 126.1 1.1h36a16.2 16.2 0 0 1 16.3 16.2 16.4 16.4 0 0 1-16.2 16.3zm328.6-.2h-.2c-25.9-.4-56-.5-92.1-.5H544a16.3 16.3 0 0 1 0-32.5h70.3c36.3 0 66.5.1 92.5.5a16.3 16.3 0 0 1-.2 32.5z"></path><path d="M249.6 270.9a16.2 16.2 0 0 1-7.4-1.8l-86.6-44a15.9 15.9 0 0 1-7.2 1.2 16.3 16.3 0 0 1-14.6-12.2L8.9 150.6a16.2 16.2 0 0 1 0-28.9L236.5 5.9a17.4 17.4 0 0 1 3.8-1.4A16.1 16.1 0 0 1 253.8.2a16.2 16.2 0 0 1 13.9 18.3 926.6 926.6 0 0 0-2 234.2 16.4 16.4 0 0 1-6.8 15.3 16.7 16.7 0 0 1-9.3 2.9zm-80.2-75.2l61 31c-.8-8.7-1.4-17.3-1.9-26l-1.6.4a16 16 0 0 1-18.5-9.8 348 348 0 0 1-18.8-62.9 627.6 627.6 0 0 0-20.2 67.3zm-90.7-46.1l52.5 26.7-.9-14a16 16 0 0 1-8.7 1.6 16.3 16.3 0 0 1-13.8-11l-1.1-3.2-1.5.5a16.1 16.1 0 0 1-15.6-4.2l-1.8-1.8a55.9 55.9 0 0 1-9.1 5.4zm64.8-53.9a22.1 22.1 0 0 1 3.7.4 16.5 16.5 0 0 1 12.6 14.9l.2 3.7c5.2-14.3 11-28.4 17.2-42.2l-53.3 27.1a11.7 11.7 0 0 1 .5 1.1l2.5 7.6 2.5-4.4a16.3 16.3 0 0 1 14.1-8.2zM211.6 55a15.9 15.9 0 0 1 3.3 9.3c.1 1.7.1 3.4.2 5.1 1.1-6.1 2.4-12.1 3.7-18.1z"></path></g></g></svg>