<svg xmlns="http://www.w3.org/2000/svg" width="838.3" height="1001.2" viewBox="-0.0025359196588397026 0.0012493133544921875 838.3047485351562 1001.1362915039062" style=""><g><g data-name="Слой 2"><g data-name="Слой 3"><path d="M825.9 649.6c1-5.5-4.7-13.9-9.1-11.7-2-.5-3.6.9-4.3 3.1-21.4 15.8-43.9 30-64 47.5-36.1-78.5-83.3-144.6-156-193.4s-170.2-82.6-260-84.1c13.5-20.7 31.8-40.1 46.3-58.2 19.8-24.8 43.8-46.8 66.3-69.1C491 238 548 198.3 602.6 163.2c12.1 17.3 21.3 36.5 34 53.5 4.3 5.7 8 3.3 8.7-1 1.2-.3 2-1.6 2.1-4 1-34.2 6.4-68.3 11.1-102.1 2.3-16.5 4.2-33 6.9-49.5s7.7-32.8 8.1-49.2c.1-6.1-10.4-15.4-11.8-8.4h-.9c-58.5 14.9-120.9 30.9-181.5 31.7-2.6 0-3.6 2-3.5 4.5a16.7 16.7 0 0 0 4.1 9c6.8 7.1 11.8 16.9 19.2 23.3 5.1 4.5 9.9 9.3 14.7 14-91.7 83-164.6 197.6-199.5 317-3.5-8.7-7.8-17.2-12.1-25.7-14.3-28.5-28.3-57-43.4-85.2-21.1-39.3-44.7-83.4-80.8-111.2 2.4-5 9-8.8 12.2-12.9 5.6-7.2 8.6-15.8 14.8-22.5.7-.9 6.8-14.8 1-17.4-28.1-12.4-62-9.8-92.1-12.3-36.5-3-73.6-7.7-110.3-5-3.1.3-4 2.9-3.4 6a7.5 7.5 0 0 0 .5 4.9c23.2 67.1 32.4 138 50.8 206.2 1.8 6.6 9.2 8.8 11 4.4a3.5 3.5 0 0 0 3.9-.3c15.7-12.6 25.4-30.5 39.2-44.8a5.9 5.9 0 0 0 1.9 1.1c18.6 5.1 35.6 9.3 53.5 17.2 19.5 8.6 33.8 26.3 50.9 38.5 32.2 22.9 65.1 51.4 91.1 82-28.8 16.4-53.7 42.6-75 67s-47.9 57.6-58.4 90.7c-8.4-4.1-17-8.2-25.5-12.1-10.4-4.9-20.1-11.6-31.1-15.1a3.9 3.9 0 0 0-3 0c-3.3-.7-6.2 1.4-4.2 7.2 10.1 28.8 18.8 57.5 26.9 87s21 56 28.1 84.8c-.8 5.7 6.4 14.9 11.2 10.2 18.4-18.6 44.5-29.7 65.3-45.4 22.6-17 47.7-31.6 72.5-45.2 3.3-1.8 2.6-6.9.2-10.6a9 9 0 0 0-3.7-4.2c-14.2-7.2-30.4-11.7-45.9-16.4 1-64.5 16.1-138 60.1-187.6a5.6 5.6 0 0 0 1.1-3.7 6.6 6.6 0 0 0 .1-1.4l.4-.7c81 33.8 140 114.4 180.6 189s76.4 155.6 94.8 239.7a52.3 52.3 0 0 0-7.4 8.2c-6.3 8.4-13.6 15.5-21.1 23-13.6 13.6-29.1 27.9-39.9 44a5.7 5.7 0 0 0-.8 3.4c-1 4.2 2.5 11.4 6.9 11.8 41.8 4.3 81.5 16.4 122.7 24.1 39.5 7.4 76.9 16 115.1 28.2a6.3 6.3 0 0 0 2.4.2c1.5.2 2.8-.5 3.6-2.7 24.1-64.1 35.9-135.2 48.5-202.4 7.9-42.5 20.5-104.9-1.6-146.4zM526.7 95c4.2-.3 4.2-9.7-.2-13.5-7.3-6.3-13.8-13.4-21-19.9a90.6 90.6 0 0 1-10.8-12.4c55.4-2.3 112.1-16.3 165.7-29.9-2.7 24.3-9.6 49.5-12.5 73.3-4.4 34.7-10.4 69.4-12.2 104.4-9.2-14.3-17.2-29.4-27.1-43.3-1.2-5-5.8-10.2-9.6-7.7-54.7 34.9-109.3 74.2-157 118.4a857.6 857.6 0 0 0-73.2 75.7c-10.1 11.8-21.6 24.8-32.2 38.4C374.8 271.1 443 169.8 526.7 95zM248.3 622.8a5.7 5.7 0 0 0 .4 2.2c.3 4.1 3.1 9.7 6.6 10.8 11.2 3.5 23 6.7 34.4 10.7a686.6 686.6 0 0 0-60.2 38.2c-19.2 13.9-41.9 25-60.1 40.5-7.4-25.7-18.7-50.5-25.8-76.4s-14.7-51-23.2-76.2c7.8 3.2 15.5 7.7 22.7 11.7 9.8 5.4 20.1 9.4 30.1 14.3 2.5 2.3 5.3 2.7 6.3-1 8.4-31 32-60.5 52-85.1 16-19.7 34.5-40.2 55.4-56.7-28.5 49.8-38.5 112.1-38.6 167zm-27.9-288.2c-20-14.2-36.9-31.7-58.4-43.9-15.9-8.9-56.6-26.2-60.5-22.8-16 14-25.5 33.9-41.8 47.6C43.5 252.3 34 187.2 13.2 124.9c28.2-1.6 57.3.9 85.3 3.4s64.1 0 93.1 7.9c-4.7 6.5-8.1 13.9-13.1 20.3s-12.3 9.8-13.4 19.5a8.5 8.5 0 0 0 1.2 4.9c.6 3.2 2.2 6.6 4.3 8.1 36.4 24.9 57.8 69.4 79 107.1 10.9 19.3 21.6 39.2 31.7 59.1 8.8 17.5 20.3 37.7 25.6 57.7a498.5 498.5 0 0 0-86.5-78.3zm601.8 401.6c-2.5 31.3-8.2 62.2-14.7 92.9-10.9 52.1-20.4 106.1-38.7 156.1a916.9 916.9 0 0 0-113-27.6c-36.5-6.5-71.8-17-108.5-22.2 7.6-8.8 16.1-16.9 24.1-25.2s13.2-13.7 19.9-20.5 11-16.1 19.6-21.1c4.6-2.6 1.4-11.3-3-14.1-20.1-87.7-57.6-170.4-100.5-249.2-37.4-68.7-92.3-140-162.8-178.8 83.9 3.1 169.4 34.5 239.9 77.8 74.4 45.7 121.4 115 156.8 193.2a9.8 9.8 0 0 0 2 3c2.1 4.5 6.7 8.2 10.3 5 19.9-18.2 42.8-32.6 64.6-48.4 11.3 23.3 6 54.7 4 79.1z" fill="#b7cef7" data-name="newarrow96 140672446"></path></g></g></g></svg>