<svg xmlns="http://www.w3.org/2000/svg" width="762.3" height="1080" viewBox="-0.00015851603529881686 -0.00015278815408237278 762.4002075195312 1080.10009765625" style=""><g><g fill="#fff" fill-rule="evenodd" data-name="Слой 2"><path d="M31.8 0A31.8 31.8 0 1 1 0 31.8 31.7 31.7 0 0 1 31.8 0z"></path><path d="M31.8 63.5A31.8 31.8 0 1 1 0 95.3a31.8 31.8 0 0 1 31.8-31.8z"></path><path d="M31.8 127.1A31.8 31.8 0 1 1 0 158.8a31.7 31.7 0 0 1 31.8-31.7z"></path><path d="M31.8 190.6A31.8 31.8 0 1 1 0 222.3a31.7 31.7 0 0 1 31.8-31.7z"></path><path d="M31.8 254.1A31.8 31.8 0 1 1 0 285.9a31.7 31.7 0 0 1 31.8-31.8z"></path><path d="M31.8 317.6A31.8 31.8 0 1 1 0 349.4a31.8 31.8 0 0 1 31.8-31.8z"></path><path d="M31.8 381.2A31.8 31.8 0 1 1 0 412.9a31.7 31.7 0 0 1 31.8-31.7z"></path><path d="M31.8 444.7A31.8 31.8 0 1 1 0 476.5a31.7 31.7 0 0 1 31.8-31.8z"></path><path d="M31.8 508.2A31.8 31.8 0 1 1 0 540a31.7 31.7 0 0 1 31.8-31.8z"></path><path d="M31.8 571.8A31.8 31.8 0 1 1 0 603.5a31.7 31.7 0 0 1 31.8-31.7z"></path><path d="M31.8 635.3A31.8 31.8 0 1 1 0 667.1a31.7 31.7 0 0 1 31.8-31.8z"></path><path d="M31.8 698.8A31.8 31.8 0 1 1 0 730.6a31.7 31.7 0 0 1 31.8-31.8z"></path><path d="M31.8 762.4A31.8 31.8 0 1 1 0 794.1a31.7 31.7 0 0 1 31.8-31.7z"></path><path d="M31.8 825.9A31.8 31.8 0 1 1 0 857.7a31.7 31.7 0 0 1 31.8-31.8z"></path><path d="M31.8 889.4A31.8 31.8 0 1 1 0 921.2a31.7 31.7 0 0 1 31.8-31.8z"></path><path d="M31.8 952.9A31.8 31.8 0 1 1 0 984.7a31.8 31.8 0 0 1 31.8-31.8z"></path><path d="M31.8 1016.5A31.8 31.8 0 1 1 0 1048.2a31.7 31.7 0 0 1 31.8-31.7z"></path><path d="M95.3 1016.5a31.8 31.8 0 1 1-31.8 31.7 31.8 31.8 0 0 1 31.8-31.7z"></path><path d="M158.8 952.9a31.8 31.8 0 1 1-31.7 31.8 31.8 31.8 0 0 1 31.7-31.8z"></path><path d="M222.3 889.4a31.8 31.8 0 1 1-31.7 31.8 31.8 31.8 0 0 1 31.7-31.8z"></path><path d="M285.9 825.9a31.8 31.8 0 1 1-31.8 31.8 31.7 31.7 0 0 1 31.8-31.8z"></path><path d="M476.5 762.4a31.8 31.8 0 1 1-31.8 31.7 31.7 31.7 0 0 1 31.8-31.7z"></path><path d="M412.9 762.4a31.8 31.8 0 1 1-31.7 31.7 31.7 31.7 0 0 1 31.7-31.7z"></path><path d="M349.4 762.4a31.8 31.8 0 1 1-31.8 31.7 31.8 31.8 0 0 1 31.8-31.7z"></path><path d="M540 762.4a31.8 31.8 0 1 1-31.8 31.7 31.8 31.8 0 0 1 31.8-31.7z"></path><path d="M603.5 762.4a31.8 31.8 0 1 1-31.7 31.7 31.7 31.7 0 0 1 31.7-31.7z"></path><path d="M667.1 762.4a31.8 31.8 0 1 1-31.8 31.7 31.7 31.7 0 0 1 31.8-31.7z"></path><path d="M730.6 762.4a31.8 31.8 0 1 1-31.8 31.7 31.7 31.7 0 0 1 31.8-31.7z"></path><path d="M730.6 698.8a31.8 31.8 0 1 1-31.8 31.8 31.7 31.7 0 0 1 31.8-31.8z"></path><path d="M667.1 635.3a31.8 31.8 0 1 1-31.8 31.8 31.7 31.7 0 0 1 31.8-31.8z"></path><path d="M603.5 571.8a31.8 31.8 0 1 1-31.7 31.7 31.7 31.7 0 0 1 31.7-31.7z"></path><path d="M540 508.2a31.8 31.8 0 1 1-31.8 31.8 31.8 31.8 0 0 1 31.8-31.8z"></path><path d="M476.5 444.7a31.8 31.8 0 1 1-31.8 31.8 31.7 31.7 0 0 1 31.8-31.8z"></path><path d="M412.9 381.2a31.8 31.8 0 1 1-31.7 31.7 31.7 31.7 0 0 1 31.7-31.7z"></path><path d="M349.4 317.6a31.8 31.8 0 1 1-31.8 31.8 31.9 31.9 0 0 1 31.8-31.8z"></path><path d="M285.9 254.1a31.8 31.8 0 1 1-31.8 31.8 31.7 31.7 0 0 1 31.8-31.8z"></path><path d="M222.3 190.6a31.8 31.8 0 1 1-31.7 31.7 31.7 31.7 0 0 1 31.7-31.7z"></path><path d="M158.8 127.1a31.8 31.8 0 1 1-31.7 31.7 31.7 31.7 0 0 1 31.7-31.7z"></path><path d="M95.3 63.5a31.8 31.8 0 1 1-31.8 31.8 31.9 31.9 0 0 1 31.8-31.8z"></path></g></g></svg>