<svg xmlns="http://www.w3.org/2000/svg" width="1080" height="635.6" viewBox="0.03150367736816406 0.0049591064453125 1079.9710693359375 635.5870971679688" style=""><g><g data-name="Слой 2"><g fill="#fff" data-name="384253276"><path d="M33.8 500.3C17 469.3 14.2 430.7 13 396.2c-1.4-40.1.8-81.2 10.2-120.3 20.1-83.6 73.1-171.4 151.3-211.4 134.7-68.8 318.1-42.6 425.7 64.2a303.6 303.6 0 0 1 65.1 94.9c18.2 42 24.1 97.4-20.7 125.7-30.6 19.3-77.2 7.6-96.7-22.2s-13.6-71.2-1.2-103.6c51.8-135.4 212.4-176 338.4-122.9 71.1 30 121.9 86.3 147.9 158.9 30.5 85.2 35.1 185.5 6.6 271.9a327.4 327.4 0 0 1-32.7 69.9c-3.9 6.3 1.3 31.9 6.6 23.3 54.6-88.8 65.6-197.6 49-299.1-14.3-87.9-51.2-174.2-127.2-225.3C809.2 15.4 618.1 38.6 547.4 183c-28.6 58.4-45.2 174 37.3 198.5 42.7 12.7 80.2-7.5 97.2-47.8 18.9-44.9 7.5-93.4-12-135.8-74.1-161.5-271.5-230.4-437-183.4-46 13-88.9 34.2-123 68.4-35.6 35.8-60.4 80.5-79.2 126.9C-2.1 290.6-7.9 385.9 10 471.1c3.5 16.8 8.2 33.6 16.4 48.7 6.9 12.7 10.9-13 7.4-19.5z"></path><path d="M1073.9 569.4c-12 5.9-23.1 14.6-34.4 21.7s-25.9 19.7-39.5 23.5c1.5 5.2 2.9 10.4 4.4 15.6 5-29.1 7.7-58.5 13.6-87.4 1.4-6.5-5.2-23.6-7.9-10.3-6 28.9-8.7 58.3-13.7 87.4-.3 2-.9 17 4.4 15.6 12.7-3.5 25.5-14 36.6-21 13-8.2 25.8-18.3 39.6-25 5.4-2.6 3-23.1-3.1-20.1z"></path></g></g></g></svg>