<svg xmlns="http://www.w3.org/2000/svg" width="1104.3" height="1080" viewBox="0.012795448303222656 0 1104.29296875 1079.99169921875" style=""><g><path d="M834.4 0c60.3 2 126 7.8 192.2 4 31.6-1.8 54 28.3 51.6 61.2-7.2 96.6-2.4 193 6.2 289.3 7.5 84.5 8.6 169.2 7.7 254-1 89.5-1.7 179.1-1 268.6.3 32.8 3 65.4 10.9 98 9.6 40.2-11.3 66.8-52.9 76.3-11.5 2.6-23.6 7.7-34.7 6.2-91.9-12.6-182.9 10.9-274.5 5.7-40.9-2.4-55.2-13.6-57.6-54.5-3.5-58.8-8.9-117.7-7.1-176.4 1.7-54.5-6.5-108-8.1-162-.7-26.7 7.8-42 31.3-45.4 18.5-2.7 37.6-3.1 56.4-2.3a335.7 335.7 0 0 0 91.1-8.3c18.7-4.2 24-14.8 13.6-29.3-75.4-105-142.9-215.5-222-317.9-8.7-11.1-17-22.7-26.8-32.8-7.6-7.6-18-7.1-24.9.9-60.1 69.2-120.4 138.4-179.6 208.5-33.3 39.4-64.5 80.6-96.7 121-5.9 7.3-12.6 14.2-17.4 22.1-5.9 9.7-16.4 19.2-11.3 31.6s19.9 9.5 30.8 9.5c35.3.3 70.7-2.1 105.9-.4 33.2 1.7 39.6 10.3 38.1 44.6-3.8 85 11 169.1 12.7 253.9.7 33 2.9 66 1.8 98.9s-18.5 48.6-50.2 44.5c-40.2-5.1-79.1-6.7-119 3.8-17.1 4.5-37.1-1.9-55.8-3.3-51.1-3.5-102.2-18-152.8 6.7-19 9.3-36.2-2.5-49.4-18-9.7-11.4-13.3-24.3-14.2-39-7.6-122.2-19.3-244.2-13.9-366.9 2-46.9 9.3-93.2 11.2-140.4 5.2-129.9-9.7-258.2-20.1-387C4.1 102.2-4.5 76 3.1 56.3c10.1-26 42.7-9.3 63.8-17.4 25.1-9.7 51.1-7.3 76.9-8C304 26.2 464.2 26.5 623.9 7.4 691.5-.7 760.4 2.2 834.4 0zm214.5 646.1c10.6-59.2 4-113.4 2-167.4q-6.7-190.5-15.1-380.9c-1.2-29.7-5.3-33-37.8-40.7C930.8 41 862.2 44.5 794 43.8c-110.9-1-221.4 8.1-332 14-108.2 5.7-216.5 10-324.7 15.1-18.8.9-37.8 1.6-56.3 4.7-28 4.7-37.4 14.5-37.5 42.1-.2 51.7-.5 103.3 7.2 155.1 10.8 72.1 22.1 145 15.3 217.9-15.3 164.8-9.5 329.1 5.4 493.4 2.4 27.3 12.6 39.4 40.6 36.5 47.8-4.8 94 1.8 140.6 9.5 16.1 2.6 33.3 3.2 49.3.5 30.4-5 60.3-9.8 91.2-7.4 16.4 1.3 25.1-8 27.9-24.7 6-35.3 5.2-70.4 3-105.8-3.9-61.1-6.4-122.3-11-183.3-2.8-37.6-9.2-42-49.4-43.7a54.5 54.5 0 0 0-7-.1c-39.9 2.5-80.3-4.3-119.8 5.8a44.1 44.1 0 0 1-14 1.3c-12.8-1.2-21.4-8.5-27.1-19.7s.3-18.3 6.2-25.4c71-84.8 143.4-168.4 213.1-254.3 51.8-63.9 114.8-118.5 157.6-189.9 9.6-16 35.7-19.2 49.1-6.5 10.2 9.6 20.2 20.5 26.8 32.7 29.6 54.1 70.3 99.8 108.3 147.7 17.4 22.1 34.6 44.8 48.5 69.2 25.8 45.3 57.1 86.2 90.1 126.2 13.4 16.3 27.4 32.1 40.1 49s5.1 40.4-14.3 45.1c-29.5 7.2-58 18.8-89.8 16.8-28.1-1.8-56.6.6-84.8 2.8-20.7 1.6-30.1 10.9-32.7 30.5-2.1 16.2-2.2 32.8-3.1 49.3-4.3 78.1 15.4 154.5 16.3 232.3.2 19.2 15.3 29.4 30.6 35.2 12.7 4.8 27.6 5.6 41.5 5.3 63.5-1.3 127.1-2.3 190.6-6 39.9-2.3 59.9-27.3 60.6-70.2.3-21.1-1.4-42.3-1.5-63.5-.2-80.1 0-160.2 0-235.2z" fill="#c3edd4" fill-rule="evenodd" data-name="Слой 2"></path></g></svg>