<svg xmlns="http://www.w3.org/2000/svg" width="482.3" height="398.5" viewBox="0.02429056167602539 -0.0531923770904541 482.2908630371094 398.5532531738281" style=""><g><g data-name="Layer 2"><path d="M401.9 182.6c29.4-25.8 133.2-126.5 46.7-147.8C400 22.9 348 30.7 301 49.8a29.1 29.1 0 0 0-11.2 2.1l-3.2 1.3a267.6 267.6 0 0 0-43.3-28.9C210.9 7 172.2-3.2 135.7 5.1l-5 1.3c1.1-1.5 2.1-3 3.2-4.4s-1.3-2.7-2.1-1.7c-2.1 2.5-4.1 5-6.1 7.6-32.2 10.5-58.2 35-80.3 60-27.6 31.3-43.8 68-44.3 104.6-3.3 26.8 1 52.5 12.8 74.3-.3 4.7-.3 9.4-.2 14-3.3 20.7-4.1 43.4 14.7 53.9A108.9 108.9 0 0 0 43 334c-5.7 13.2-10.7 27.8-6.3 41.5 8.4 26.1 39.4 25.7 61.4 19.5 14-3.9 27.9-9.9 41.5-16.9 48.1 6.2 100.3-1.9 142.1-13.9 67.5-19.3 135.2-76.8 118.5-154.3a157.7 157.7 0 0 0-6-20.3l3.4-3.3zm-94.7 105.1a232.5 232.5 0 0 1-38.2 9.2l-1.5.3q11.1-7.9 21.9-16.2a144.3 144.3 0 0 0 33.8-20.4 108.2 108.2 0 0 0 23.6-26.7c4.8-4.2 9.7-8.4 14.4-12.8a53.2 53.2 0 0 1-1.8 19.7c-11.5 19.3-30.8 34.5-52.2 46.9zm-137.7 50.1a80.6 80.6 0 0 1-10.9.4l15-7.3 14.3-7.3c5 .1 10 .1 15-.1-6.7 4.3-13.5 8.4-20.3 12.4-4.4.8-8.7 1.5-13.1 1.9zM23.4 159.7a190.3 190.3 0 0 1 23.4-58.5c2.2 0 2.5-1.5 1.8-2.8 11.7-18.3 26.7-34 44.3-45.1a542.2 542.2 0 0 0-48.4 93.6 327.7 327.7 0 0 0-18.6 42.7 115.2 115.2 0 0 1-2.5-29.9zm33.8 6.6C69.4 137.8 85 109.4 108 88.2c34.4-31.6 79-33.6 121.9-21.2l4.7 1.5c-31.9 3.8-63.3 18.6-87.9 40.2C114 137.4 91.9 176 73.2 214.8c-4.6 9.5-11 21.4-15.7 33.9a133.6 133.6 0 0 1-17.8-23.9c3.1-19.7 9.5-39.7 17.5-58.5zm219.9 86.1a37.2 37.2 0 0 0 2.1-15.7c21.5-8.4 41.1-25.3 49.9-41.3a9.1 9.1 0 0 0 1.1-4.3c4.7-4.2 9.3-8.4 13.8-12.8a26.1 26.1 0 0 1 1.7 2.8 93 93 0 0 1-6.6 29.8c-20.1 14.6-40.8 28.5-62 41.5zm-75-51.7a192.3 192.3 0 0 1 12.3-45.3c2-4.9 4.2-9.6 6.6-14.2s7.3-8.4 11.1-12.4c11.9-12.9 25-27.3 39.5-39.2 4.4 4.2 8.6 8.5 12.8 12.9-7.9 11.5-14.6 26.9-18.4 42.7-18.7-4.8-37.6-1.2-46.5 19.1-7 15.8-13 37.6-12.3 57.4-9.3-5.6-6.6-10.8-5.1-21zm28.2 8.4c4.5-2 9.6-.7 14.4 2.2-2.9 2.5-5.8 4.8-8.8 7.2a31.7 31.7 0 0 1-5.6-9.4zm59.5-17.7l5.1-6.3c.5 1.2.9 2.4 1.3 3.7a45.1 45.1 0 0 0-6.4 2.6zm5.9-76.5c5.6 6.4 11 13 16.2 19.7-1.6 3.4-3.2 6.5-4.7 9.4a190.1 190.1 0 0 1-10.5 17 83.7 83.7 0 0 0-11.3-7.8c.4-3 .8-5.5 1.2-7.2 1.8-10.3 4.3-21.4 9.1-31.1zm-8.1 57.7l-3.9 3.8c-.1-2.7 0-5.4.1-8a37.9 37.9 0 0 1 3.8 4.2zm-21.7 20.2l-6.7 6-2.5 2.2c-9.5-6.9-21.3-11.7-31.3-7.6 4-19 13.9-36.2 30.8-37a32.1 32.1 0 0 1 7.6.7c-1.9 12.9-1.4 25.4 2.1 35.7zm40.7-22a258.7 258.7 0 0 0 16.3-21.9l5.1 6.9 4.3 5.9-4.3 5.8c-4.3 5.7-8.8 11.4-13.7 16.8a54.8 54.8 0 0 0-7.7-13.5zM105 283.3a66.2 66.2 0 0 1 3.7-13c2.2-5.5 4.6-10.9 7.2-16.4 2.9-3.9 5.8-7.6 8.6-11.1-8.7 16-14.5 30.9-15 42.6zm26.4.3c-5.9-10.9 11.1-33.3 16.4-42q11.4-19 23.9-37.3c5.3-7.8 10.8-15.3 16.4-22.8a220.4 220.4 0 0 0-7.1 43.6 5.6 5.6 0 0 0 2.6 5 97.4 97.4 0 0 0 24.8 9 516.8 516.8 0 0 1-77 44.5zM241.5 77.3c-1.9.9-3.7 1.9-5.5 2.9-33.1 18.7-59.6 49-84 77.6A669.3 669.3 0 0 0 77 265a4.1 4.1 0 0 0-.5.9l-2.3-1.7-2.1-1.8c3.2-15.6 12.6-31.8 18.8-45.2 28.9-62.1 71-127.3 144.1-139.1 2.2-.4 4.4-.6 6.5-.8zm-93.2 212.5a42.7 42.7 0 0 1-5.2-.2c17.6-8.3 35.7-17.8 53.4-28.4-4.5 3.9-9.5 8.4-14.8 12.7-10.8 5.7-22 11.2-33.4 15.9zM111.9 317c3.4-.7 6.7-1.5 10-2.5a246.9 246.9 0 0 0 31 6.4 197.5 197.5 0 0 1-24.9 9.8 47.8 47.8 0 0 1-16.1-13.7zm72.7-28l4.1-3c13.7-6.9 27.3-14.3 40.5-22.2a51.8 51.8 0 0 0 12.6 5.1l3.6.8c0 .5-.1 1.1-.1 1.6-6.7 3.9-13.4 7.6-20.2 11.3-13.3 2.7-26.9 4.9-40.5 6.4zm171.8-172.8A193.3 193.3 0 0 0 336 98.5a40 40 0 0 0-3.2-8.5c9.2.5 17.7 5 22.1 14.8a23 23 0 0 1 1.5 11.4zm-41.9-43.4a67.1 67.1 0 0 0-8.3-3.6l4.5-1.3a34.8 34.8 0 0 1 3.8 4.9zm-241.2 29a542.1 542.1 0 0 1 29.3-54c22.3-11.4 48.3-15.8 76.9-9.9a156.1 156.1 0 0 1 24.7 7.2c-51.5-4.6-97.1 14.8-130.9 56.7zM51.4 286.7a35.7 35.7 0 0 0 6.2 15.3c-.9 2-1.9 3.9-2.9 5.9a89.7 89.7 0 0 1-13.2-28.2c3.1 2.4 6.4 4.8 9.9 7zm177.4 15.2l8.6-4.8 8-1.8-8.4 5.9zM370.4 97.1c-7.6-15.3-24.1-21.1-40.6-20.3a49.8 49.8 0 0 0-4.6-11.1c20.6-.9 41.8 7.4 46.1 30.2a38.6 38.6 0 0 1 .6 4.9 35.9 35.9 0 0 0-1.5-3.7zm19.2 74.3a113.3 113.3 0 0 0-14.3-31.9c12.5-22 15.2-44.5-2.2-64.3-9.7-11.1-20.5-17.2-31.7-19.7a165.5 165.5 0 0 1 59.6-1.6c15.8 2.6 33.3 6.9 45 18.6 20.1 20.3-2 41.4-15.8 57.2-9.2 10.4-18.6 20.7-28.1 30.8-4.1 3.7-8.3 7.3-12.5 10.9zm71.4-108l.3 1c-9.5-9.3-23.7-15.2-37-18.9 14.6 1.6 31.6 5.6 36.7 17.9zM83.8 384c-26.2 2.4-32.1-17-26.9-37.6 16.9 13.1 36.7 21.8 57.8 27.1-9.9 5.1-20.3 9.5-30.9 10.5zm207-43a361.6 361.6 0 0 1-98.7 17.2c16.3-4.2 32.3-10.1 47.2-15.7 29.9-11.2 66.7-26.6 96.8-48.2a104.7 104.7 0 0 0 26.6-21.8 82.4 82.4 0 0 0 7.5-9.8 103.1 103.1 0 0 0 6.8-9.5c-8.3 39.8-39.9 72.6-86.2 87.8z" fill="#c297ff" data-name="Layer 1"></path></g></g></svg>