<svg xmlns="http://www.w3.org/2000/svg" width="1023.6" height="1080" viewBox="0.010540008544921875 -0.02452850341796875 1023.6165771484375 1080.0111083984375" style=""><g><path d="M705.2 946.3c11.9-15.8 26-36.2 41-59.6 23.2-11.7 44.8-24.2 62.7-38.1 235-180.5 315.5-567.2 43.8-754.7C655.5-42.4 443.1-21.6 274.1 100c-59.5 17-110.1 57.3-138.7 129.2-1.2 3-1.7 6.5-2.9 9.6s-3.6 4.4-5.3 6.6a580.5 580.5 0 0 0-94.8 192.9c-94 217.7 28 432.3 219.3 506.1 122.1 174.5 314.4 186.3 453.5 1.9zm-47.6-213.6c-1.7 1.2-3.6 1.6-5.3 3-3.5 3.1-7.3 5.8-10.8 8.9 37-66.8 62.3-146.4 71.4-225 12.1 71.3-15.1 153.2-55.3 213.1zm187-457.2C771 158.6 635.3 111.8 492.7 123.6a371.4 371.4 0 0 0-36.3-13.9c62.2-18.1 128.8-22.9 196.8-10 253.8 48.2 309.4 247 250.5 431.6 21.9-103.6 12.6-199.2-59.1-255.8zM427.5 415.9c-1-2.1-2-4.1-3.1-6.1 3-1.7 6.2-3.8 9.1-5.4 10.8-6 22-12 33.4-18 2.3-.6 4.3-1.7 6.5-2.2a188.7 188.7 0 0 0-39.6 30 64.8 64.8 0 0 0-6.3 1.7zM199 460.7c28.5-58.5 73.9-107.7 128.8-142.8-22.6 18.8-43.9 41-63.9 64.8-1.8 1.6-3.5 2.5-5.4 4.2-25.2 22.2-44.1 48.1-59.4 75.4a9.2 9.2 0 0 0-.1-1.6zm148.4 29.4c3.8-7.9 8.7-14.4 13.3-21.4.8 2.4 1.7 4.8 2.4 7.5-21.8 47.2-18.2 117 14.1 152.5 4.8 5.4 12 9.3 19.7 11.6 9 18.2 20.1 36.3 35.7 53.5 35.3 39.2 82.2 42.9 126.2 29.3-6.5 9.9-13 20-20.1 28.9-1.1 1.5-2.3 2.4-3.4 3.8a43.1 43.1 0 0 0-25.2-19c-118.5-33.6-227-114.1-162.7-246.7zM262 670.4c35.9 61.3 101.1 108.6 173.5 138.2-73.3 2.3-146.6-59.6-173.5-138.2zm134.9 300.4A411.6 411.6 0 0 0 527 949.4a668.3 668.3 0 0 0 67.5-11c-28 25.7-58.6 46.1-92.7 56.3-38.9 11.7-74.1-.8-104.9-23.9z" fill="#fbf5e9" data-name="Слой 2"></path></g></svg>