<svg xmlns="http://www.w3.org/2000/svg" width="1080" height="906.9" viewBox="-0.00936126708984375 0.00006220937211764976 1080.1009521484375 906.9999389648438" style=""><g><g data-name="Слой 2"><path d="M38.4 253l-3.9.5v-9.1h-3.6c-1.3-4.3 2.5-6.1 4.8-8.9-2.3-1.5-5.6-2.1-5.6-6.3 13.9 5.1 6.6-3.5 15.8-4.6 1.4-3.6 1.1-7.2 5.8-5.5 1 3.4-3.4 2.5-2.1 5.9 3.2 3 4.2-2.6 5.1-4.4-3-3.6-5.8-6.9-8.8-10.3l7.8 1.5-.2-.2c-.1 2.4.4 4.5 3.2 5.8l3.8-5.7 2.2 2.5c4.7-3 5.5-8 6.6-12.9 4.6 3.1-.2 6.4 1 9.8l9.1-14.7-4.8-2a19.5 19.5 0 0 1 2.5-11.5l2.3 5.2c6.4-3.1 7.1-7 2.2-10.9l1.6-6.2c7.5-1 1 5.9 7.4 5.3l3.7-6.5 5.5 1.1c.4-2.4.7-4.7 1.2-7.5 8.7-1.1 11.1-10.4 17.3-15.7-6.4-3.8-1-9 2.3-13.2 6.8 1.8 6.6-.3 10.4-4.4 4.9 1.2 4.9-5 9.9-2.4-4.9 5.8-11.6 7.9-17.5 12.7 9.4 1.6 14.1 10.3 15.1 1.4l6.1 2.8c-2-6.4 4-7.8 6.6-11.6-1.7 6.4 5 7.2 9.4 9.1l4.4-5.7-2.3-.9c1.7-2.2 5.5-3.7 2.9-7.5 1-3.3 4.5-2.3 7.9-1.7-2.8-4.1-5-8.1.3-10.8l-1.8-5c8.1-.4 14.7-2.7 19.1-9.6-2.4.8-4.8 2.4-5.8-.7-4 5-6.8 5-13.2 3.9l-4.2 3.8-5.1-5.2 4.7-6.3c-3.1-5-3-5.5 2.5-10.8l8.3 2.4-5.4 3.5c.3 2.1.6 4.4 1 7.4 3.5-3.2 7.4-4.8 10.7-7.6.8-1.8 1.3-2.7 3.7-2.2s5.2-5.2 6.2-8.2c-3.5-1.1-11.1.6-10.1-3.5l7.5-1.3c1-4.4 7.3-7.1 5.5-13.2-2.6-1.3-5.1 2.8-7.1-.2s0-4.3 1.9-6l3.6 2.2c1.9-.9 3.3-4.9 1.8-6.7-8.5-20.5 23-12.4 31.7-5.2 7.2 6.1 14.7-3.8 22.5-2.3 10 .6 21.8-4.7 31-.6 8-5.3 8-15 12.8-22.7l7.6-2.6c-.4 1.9-.7 3.2-.9 4.5l-8.1 7.6c5.1-.4 7.1-3.5 7.9-7.7 3.5-2.6 7-3.1 11.5-2.3 11 2 23-.3 33.7 3.8 14.5 2.9 28.8-1.7 43.5-.4 13.9 3.9 41.5-17.8 50.2-7.6 3.6-5.6 2.7-19.6 11.9-13.5a49.7 49.7 0 0 1 4.4-3.2c7.2 2.9 8.6 10.4 13.6 15.9l-7.3 1.2c-4.1 5.5 3.9 10 8.4 7.3 8.4-4.4 12.3 5.7 15.8 11.9 2.5-4.8 3.9-7.5 6.5-11.6 4.2 6.4 9.2 5.9 17.7-2.3l-2.7 6.4 13.2-1.7c.1-2 .2-4.5.4-7.3l7.2-3.1c2.3 6.4 1.1 14.5 7.3 18.3 2.6 1.2 3.5 3.3 2.8 6.1 5.2 1.1 9.9 2.7 13.9-3.4 1.6 3.3 2.5 5.4 3.6 7.8l3.6-2.4c.8 2.6 1.4 5 2.1 7.6 14.1 5.4 30 2 44.9 4.4 17.9 1.3 36.4 3.8 54.1 2.6 9.9-3 19.5 3 29.6.1 2.5-.4 4.3-1.3 5.5 1.8 4.9 4.5 13.3-2 15.2 8.7 1.4-3.5 2.2-5.5 3.1-7.9 7 2.9 7.3-5 12.3-1.2 6.5 6.6 8 .9 11.6 6.5.9-3.4 1.9-6.8 2.8-10.2 6 4.1 14 2.5 19.5 7.7l-1.8 4.8 4.5 1.3 8.6-12.7-.2-.2c2.3 5.8 1.4 11.9 1 18.7l11.7-1.2c-.8 7.3.4 9.4 7.4 5.1.3-.1.6-1.5.5-1.6-3.2-2.1-.6-5.4-2.1-8.3s-2-8.7-2.8-13.2l1.4-.5c9.6 7.2 1.9 15.7 21.4 11.2 2.5 9.2-8 10.1-5.3 16.7 2-.8 4.2 2.9 6.2-.7l-.2.2c4.3-2.4 4.4-2.8 2.3-9.2 3.2-1.1 5.5-3.2 4.6-8 5.2 4.2 10.1 3 14.8 2.1 3.9-3.9 6.6-11.2 12.4-12.4 4.9.3 10.2.3 13.7 4.9s6.5 8.1 12.1 8.9c7 7.4 18.3 8.7 24.5 18 4.3 6.9 14.2 9.7 18.1 17.3 4.2 11 12.3 4.9 11.9 11.5-.1 1.1 1.8 2.4 3 3.8l5.1-3.9c.5 3.3 5.8 2 5.1 6.3l-6.9 1.6.7 6.2-3.9-1.7-5.3 6.7 3.4.5c-1.3 1.1-3 2.1-1.9 4.2-4.1 1.4-4.1 5.6 0 7.1 2.4-2.6 1.8-4.6-.2-7.2l5.5-2.9-3.6-1.1c3.2-4.5 8.4-7.3 12.8-10.2-.3-1.4-.6-2.4-.8-3.4 5.8.5 11.3-.8 17-1.8l5.8-8.2c4.7 3.8 4.7 3.8 4.9 7.4l-4.4-.8c.1 3.4-2.5 5-5 6.6-2 4.3-3.5-1.3-5.2-.1l-6.9 4.8c.1 4.6 7.6 2.3 10.4 3.2 2.7-2.7 4-5.1 1.6-8a15.8 15.8 0 0 1 6.7 11.4c2.9 2.1 2.4 4.7.9 7.3l10.9.8-1.7 8.1-4.2-3.2.7 6.5c-4.5 1.4-4.5 1.4-5.5-3.8l-4.2 2.1c2.8 7.6 3.5 8.1 7.8 5.2l10.2 10c-4.8.1-7.6 2.1-5.9 7.6l3.6-.6c.3 4.2-3.9 7.7-1.6 12.3-.4 1.7-4.9-.9-2.7 3.6 6.7 1 7.7-6.7 14.2-1.7-1.1-3.6-2.1-5.9.3-9v.2c4.6 1.3 4.6 1.3 8.6 5.9l4.6-6.6c-.8 7.2 5.3 11.7 7 18.1.4 1.6 3.2 2.7 6.2 5-1.3-3.1-2.9-5-2.7-6.6 1.1-7.5-5.9-10.5-8.4-16-.1-.4-1.5-.2-2.3-.3a10.9 10.9 0 0 0-9.2-4.5c1.6-2.7 3.1-5.1 4.3-6.9l-3-9.5 5.5 1.5c-1.1 13.9 3.2 2.8 7.3 19.1 2.5 1.2 5.1-2.9 7.4 1.7l4.9-7.8 5.6 10.3c3.5-3.9 6.8-7.1 12.2-4.6 3.8 1.6 4.7 2 5.6 6.5s5 6.6 7.8 10.5c2.8-.6 1.9-3.8 2.9-6.2l2.9 4.5c-9.2 6.7 2.8 10.3-1.3 17.2-.5.7 0 2.3.1 3.9l4.8-1.5c-1.1 6.8-7.5 3-5.9 11.4.1.9-.3 1.9-.7 3.9l-3.5-4.1c-4.1 2.9-5.3 5.7-6.8 10.8 4.1-1.9 3.7-4.3 2.4-6.8l5.5 2.6c.7 2.8 1.4 6 2.2 9.4l9.4-1.3-9.9 10.5-1.1-3.8c-2.9 2.4-7.3 2.6-5.5 8.5a14.6 14.6 0 0 0 6.8-4.9l14.1 6.8-5.4 4.1 4.5 2.8c-7.5 8.1.8 12.1 2.4 18.9-.2 5.3 3.3 6.6 7.2 7.6a4.1 4.1 0 0 1 3.9 5.6c-2.2 2.4-2.7-1.8-5.3-2.1.5 3.5.9 6.6 1.3 9.3l-7.4 2.1c1.5 2.5 3.5 4.2 3.4 5.8-.5 6.1 1.5 13-4.9 17.5l-2.1-4c-.5 1.8-.7 2.6-.9 3.5l3.2.3c-.4 2.2-.9 4.3-1.4 7.1l-5.2-3.9c-.5 2.2-1 4-1.4 5.5 4.9 5 14.3 6.9 10 15.5l4.8 2.5c-1.6 2.6-4.1.5-6.9.6-3.5 1.8-.7 9.3-7.8 9.1 2.8 1.1 4.6-.2 6.6-.8 7.4-3 2.3 6.7 9 4.6-2.4-5.5-2-6.7 3.6-9.4 5.4 9.6 3.4 20.6 3 31-4.1 5.4-2.8 11.5-2.3 17.4.4 4.1-3.5 3.5-6 6.7l4.5 2.1c-4.9 11 0 21.1-9 30.2 2.5 6.7.8 13.8-4 20.3l3.9 1.4c-9.6 8.8 1.4 20.7-8.6 24.6-2.6 1.6-2.3 3.3.7 4.7-12.2 21.3 2.6 14.1-4 27.1l-2.6-5.9c-5.8 0-1.2 4.4-3.4 6.4s1.6 4.1 2.9 6.6c-4.4 2-3.5 6.8-5.7 10.3s1.2 9.2-1.1 13.6c-.6-1.6-1.3-3.2-2-4.9-2.9 1.8-2.9 1.8 1.3 8.3-3.4.6-4.4 1.5-4.7 5.2l-7-2.2-4.8 5.6 2.9.6h-.2c2.2 4.8 4.8 9.4 5.7 15.2l-5.7 1c-.1.2-.3.4-.2.5 2.1 2.9-3.5 2.8-2.2 5.8 3 6.5-1.2 8.1-7.2 9.5-3 6.4-.8 7 2.3 13.3-5.2 2.4-4-4-7.4-4.3-.1 1.4-.7 3.1-.3 4.3 1.1 2.9 1.1 4.8-1.6 7s-1.2 5.2-2.8 6.9-5 .6-5.7 3.9c10.6 9.5-10 17.8-12.9 27.4-2.2-4.5-5.6-7.3-11.2-6.2-1.7 3.5-1.7 3.5 3.4 8.2l-5.6 4.1a14.4 14.4 0 0 1 .3 2.5l-3 2.3 3.2.2-6.3 7c1.5 2.6 4.7 4.7 3 8l-7.3 1.9c-3.4 8.6-6.5 16-13.1 22.4-3.8 4.1-10.9 5.9-11.9 11.8.1 9.4-6.2 2.2-11.8 5.9l4.7 1.5c-.7 3.4-4.4-.7-5 2.7-.1 1 2 2.2 3.2 3.5-11.3 3.4-12.6 18-24.2 22.5-9.1 4.3-8.8 19.2-20.9 20.7-3.7.8-6.8 4.9-11.6 2.4a29.5 29.5 0 0 1 1.4 3.4l-5 3.9c3.3 9.7-3.6 10.6-9.2 16.1.2-1.2.5-2.4 1-4.3l-7.6 1.6 1.5 3.6-4.3 3-1.9-3.1c-3.9 2.5-6.8 5.3-4.6 10.6s-7.9 1.8-8.5 7c-2.3 6.2-9.1 3.1-14.1 2.9-1.6 5.4-5.7 7.2-11.1 7.9.4 2.8.8 5.3 1.2 8.3a15.3 15.3 0 0 1-12.8 1.1c-.9 4.2-3.5 6.8-7.8 7.1-.8-1.7-1.7-3.3-2.5-4.9 2.3-1.5 4.7-2.9 7.4-4.5-6.3-1.1-7.3-.4-7.3 4.7-2.4-2.9-4.5-.7-6.8.7-.2-2-.3-3.6-.4-5.3-3.2.2-4.5 2.2-4.5 4.6.6 4.4 5.9 3 9.3 3.7-1.6 3.9-6.7 5.4-6.5 10.3-.7-1.4-1.5-2.7-2.6-4.5l-3.7 2.4c-1.8 1.1-2.7 4.7-5.8 1.9-.9 2.7-4.9.3-5.6 3.3-5.3.1-6.1 5.1-8.7 8.1s-3.6 4.1-6.9 3.6c-.5-.1-1.5.1-1.7.5-4.5 5.8-11.5 1.9-18.1 3-4.9 6-9 13.4-17.5 6.9v4c-.7.3-1.4.9-1.8.7-8.8-3.6-15.6 5.2-24.1 3.1s-11.8 7.3-24.1 3.1a8.5 8.5 0 0 0-6.4.9c-6.9 3.8-15 3.3-22.4 2.1-6 3.5-13.1 2.2-19.5 3.8-5.1-2.4-9.7.8-14.5 1.2-7.6 1.4-15.4-1.9-22.9.8s-10.3-5.9-16.8-1.1c-13 6.5-27.8-3.1-41 3.1l-6.1-7.9c-3.4-.5-2.1 3.8-4.5 5.3-6.2-4.3-17.3 6.5-17.8-6-4.6.3-10 3.2-14.3 1.6-1-1.2-1.6-1.4-3.1-.7-5.6 2.8-11.4.1-16.8-1.5s-13.2-.3-19.5-.2c-8.7-4.9-19.7-.5-27.5-7.2-6.4-1.1-13.1-1.5-19-5.7-.1 1.9-.1 2.9-.2 4.5-12.5-10.1-24.5.9-35.9-9.7a6.4 6.4 0 0 0-4.5-1.2c-6.6 1.3-12.3-1.5-17.8-4.4-9.5-7.9-27.3 3.4-31.8-11.5-31.1 1.6-23.9-17.7-40.3-12.2-5 2.5-8.4-3.4-10.2-6.9s.7-4.6 2.8-6.5l-7.9-3.6c.4 3.6.6 5.9.9 8.5-.8-.1-2.1-.1-2.2-.4-.6-2.3-1.9-5-1.1-6.9s.4-4.3-2.6-4-4.6-3.7-7.3-6.2l-5.5 6c-5.2-5.3-3.8-12.1-5.2-19.4l-11.8 14.6c-1.6-3.8 1.2-7.7-2.8-8.4s-3 6.7-8 6.6c1.6-4.6 3-8.7 4.5-12.9l-.8-.5-4.2 3.7c-2.5-4.1-2.6-6.5-.6-11.4-5.4 1.8-11 1.6-13.2 8.5l-3.1-3.9 4.7-5c-4.6.1-6.3 2.9-8.8 5.3-9.9-5.3-10.8-12.5-20.5-2.2-1-3.9-1.8-7.4-2.7-11.1l3.2-2.6-6.5-3.5v-6.4c-6.3.6-4.6 6.1-6.8 9.9l-4.3-1.7-2 2.4c-2-3-1.8-6.2-2.3-9.9l4.3-3.3c-1.6-4.3-6-.3-8-2.8h.3l-2.8 1.7c-3.6-3.3-1.4-5.3 1.9-7.9l-4.6-3.5h.1c.3-3.1.5-6.2.9-10.2-2 .3-3.6.2-5 .7-6.2 2.7-4-8.9-13.7-3.9-2.8.9-5.2.8-8.5 1.3l-1.8-3.7-4 4.3c-2.7-.3-6.2 1.6-8.3-2.7l7-1.9-2-4.6c-3.6 1.5-6.1.3-7.7-3.6-.4 2.6-1 7.3-3.8 8s-2.1-2.6-2.2-5l-4.4-.4c-.5-3.4-.5-6.9-1.6-10s3.9-6.4-.2-10l-4.6.8-4.2-11.5.8-.8 7.8 4.7c1.3-7.8-10.1-4.7-11.9-9.5-3.9-8.3-1-6.7-.7-14-.8-.2-.7.6-1 1.1a82.2 82.2 0 0 0-2.3-11.4c-12 9.7-4.6 5.3-3.1 21.7-6.8-.7-12.3 3-14-6.7 3.5-1.5 3.8 3.4 6.7 3.3 4.3-5-7.1-8-2.9-14 9 .8 5.5-6.6 11.9-11-3.7-1.8-7.4-.4-11.3-1.5-1.7 5.3-1.7 5.3 3.3 9.6l-8.3 1.7 2.2-5.3c-3.2-9.2-18.6-8.8-13.6-19.4.7-2.2.6-4.7 1-7.1 2.5 1.1 4.1.3 5.2-2.4-3.6-2.3-3.4 1.9-5.1 2.5-7.2-5.5-2.6-11.2-.6-18.1h-4.9c.1-2 .2-3.8.3-5.7l-1.2-.2c-.8 1.4-1.5 2.9-2.5 4.6-3-2.2-2.1-6.2-3.2-9.6l3.1-.3c.2-.9.5-1.4.4-1.6-6.4-8.8 1.4-15 4.3-23.4l-5.9-.9c-1.6-3.7-1.8-9.6-7-9.9S6.6 587 5 584.2s2-5.4 4.5-6.8l-3-5.7 6.2-3.6c0 14.5 10.2.9 5.5-4.9l-5.7 5.1-.9-4.1h-.1c2.6-3.4 9.2-7.8 5.2-12.5-2.6-2.4-4 .6-6.5 1.6-.7-14.3-13.9-6.5-9.2-16.4l7.4 2.6-2.8-7.7c2-1.9 7.1-1.1 6-6.7l-3.2 2.1c-2.2-2.7-5.5-4.9-3.4-9.7l3.6 1.9a6.4 6.4 0 0 0 .2-1.6c-7.1-8.5 4.4-14.1 5.6-22.3l-7.8-2.1 5.3-7.6c5 3.5 5.2 3.5 9.2-1.9-4.7-2.8-6.5-6.5-6.5-11.9l2.4-1.5a3.6 3.6 0 0 0-.4-.9l-9 3.1c-.5-11 10.9-14.2 2.1-25.3l8.3-3.9c-3.3-8.8 4.4-8.6-3.2-21.3l-5.4.3-3.7-5.6c1.2-1.3 2.3-2.7 3.4-4L4 407.7l7.6-4.6c-1.9-7.5 7.2-9 11.7-13.9-5.7-3.1-10.4-5.4-15.8-2.5-.6-10.3.1-23.8 9.5-30.2.5-4.3.9-8.4 1.5-13-2.5 0-5.9 2-6.9-2.1-.5-2.4-4.4-3.2-2.7-6.9.5-1.3-1.4-3.7-2.2-5.6l3.6-.7c.4 1 .6 1.7 1 2.8l9.7-7.4c-2.6-5.5-6.9.8-10.6 1s-3.2 2.4-3.5 4.5l-3.2-5.9c5.7-3 6.2-8.8 8.8-13.6 3.9 1.9-.7 4.4 1.1 6.8l9.4-4.1-4.6-11 13.9-13.2-3.1-3.9c1.9-1.6 3.7 1.6 5.9 2.5 3.1-4.3 1.2-8-.4-12l-4.1.6c-.5-2-1.1-4.1-1.9-7.1l5.9 2.4v-7.9l3.6-1.8v-8.1l2.4 4.7h1.3c.2-2.8.5-5.6.7-8.4-3.2-.3-4.6.9-4.2 3.9zm25.7 422.9c-3.2-1.3-4.8.7-6.5 3.1l5 4.1 5-3.1-3.4-4.2c0-3.3 3.7-.6 4.7-3-.3-.7-.6-1.7-1.1-2.8-3.3 2.5-3.3 2.5-3.7 5.9zM19.4 367l-2.1-2.6-1.5 2 3.8.4-6.9 5.4c1.2 1.3 2.4 2.7 3.8 4.1.9-2.6 3.4-4.6 8-3.4-1.2-3.2-2.1-5.5-5.1-5.9zm116.2-135.2l-2-4.6-4.1 3 6.3 1.5c4.5 4.7-2.7 2.7 3.8 9.7 5.1-2.4 7.1.7 11.5 1.5l-2.3-3.8 3-3.5c-2.2-13.7-7.4-4.7-16.2-3.8zm-75.4-6c-5.5 3.8-11.8 2.8-17.2 4.7l-4.6 15.2c5-.1 2.3-4.1 3.5-5.2 6.8-.3 5.7-7.6 10.4-10l6.9 5.5-1.9-4.8zm897.3-70.7c-2.3-6.2 3.7-7.8 5.5-11.3-1.5-2.7-2.7-5-4.1-7.7l-8.5 9c2.6 2.2 0 8.5 7.1 10zm-8.8 19.8c5-11.6-1.6-9.6-9.6-11.8-.9 3-1.8 5.8-3 9.6 5.3-2.4 9.8-4.3 12.6 2.2zM157.8 629.8c-.6-2.7-.9-4.2-1.5-6.7l-2.5 9.7-1.4-4.5c-2.6 2.8-5 4.1-6.4 7.9 6.6-4.3 15-1.2 18.7-8.4l-5.9-2.1c-.2.9-.5 1.9-1 4.1zm-82 32.6c-2.8-7.9-.6-7.1-9.7-8.9-4.3 4.9 2.2 5.8 3.4 8.5s4.1 1.6 6.3.4zm-4.7 27l1.9-.3c-1.3-5.7.2-7.6 3.6-11.6-.8-3.9.8-8.4-2.8-11.6-8.8.6 6 8.4-4.4 17.1.5 2.2 1.1 4.3 1.7 6.4zm21.7 41.5c-.4-4.8-.5-4.5-4.1-4.8s-5.4 3.3-8.7 4.4c4.6 3.4 8.7 2.7 12.8.4zm899.7-534.1c-5.3-.9-13.9-3-13.3 4.7 3.6-2.4 6.7-1.7 9.8 2.2 1.3-2.7 2.3-4.6 3.5-6.9zm-833.3-15.6c-1.4.7-3.2 2.4-4.2 2-4.5-1.7-6.9 3.2-10.8 3-.4 0-.8 1.5-1.7 3.2 7.4-.2 12.9-2.2 16.7-8.2zm-72-.1c-1.5 5.1 1 8.5 2.7 12.4l5.8-1zm933.6 13c6.8 1.7 8.3 1.3 11.7-4.5l-5-.8zm-78-60.2c-5.2-1.7-6.7-.5-7.6 6.5l4.6.5zm83.2 132.2c3-3.2 5.7-6.2 11.7-3.1l-3.8-11.5c-5.1 3.1.1 5 .4 7.4-4.2.8-6.8 3.3-8.3 7.2zM21 508.9c-6.1-2.7-7.9-4.9-10.8 2.6l7.9 1.8zm732.1-422c-4-.3-6.2 2-7.6 6.2 2 .4 1.7 3.8 4.8 2.7s1.3-5.9 2.8-8.9zm191 110.2c7.8 3.9 9.4 3.3 9.5-1.9zm-464.8-63l7.6-1.9-3.7-7.5zm567 109.2c-6-1.1-6.2 5.7-11.5 6.5l4.5 2.9zm-924.9 6.3c3.7 6.5 6.8-3.3 9.3-5.8-5-.8-4.9 5.5-9.3 5.8zM752.2 76.2c5.6.6 5.2-3.8 2.4-6.2-1.9 2.1-5.9 3.5-2.4 6.2zm119.9 535.5c-3.8 5.2-3.8 5.2 2.3 9.3-2.6-3.5 1.8-6.5-2.3-9.3zm170-417.5l-1.4.3c-.1 2.3-.3 4.6-.7 8.5l6.1-3.9zm-107.3-19.1c-.3 3-.6 5.4-.9 8.7l7.6-5.6zM66.1 694.7c1-3.3 3.8-5.6 1.3-9.4l-5.1 6.8zm598.5-571.9c3.1-2.4 6.2-2.5 5.6-6.4-3.4-.7-7.5 2.7-5.6 6.4zm-559.1 47c3.4-1 6.9-.2 6.5-5l-4.5-.4zm26.1-20l-1.3-.5-3.8 8.1c6.9-.5 3.4-5.2 5.1-7.6zM961.8 183l-2.8 5.1 7.6-1.3c-.3-3.2-2.1-3.7-4.8-3.8zM48.3 665.3l7.7 1.2c-.8-2.4-1.3-3.8-2.1-6zM34.5 302.6c-1.1-5.1-4.2-3.4-6.2-3.7-.5-.1-1.4 1.4-1.9 2.4s.6.9 1 1.5l2.1-2.8zm-23.6 285c2-4.7 2-4.7-4.5-7.1 1.8 2.9 3.1 5 4.5 7.1zm958.2-409.5l-1.1 1.2c.5 2.8 1.3 4.9 6.2 2.9zm-833.6-26.8l7.3 4c-1.5-3.1-1.7-6.3-7.3-4zm35.4-22.9c-.7 2.1-1.2 3.9-1.7 5.6l1.2.7 4.4-4.2zm53.5-76l.6-1.2c-1.7-3.7-3-3-6-1.2l.3 1.7zM141.5 200c6-1.8 1-5 1.1-7.3-.3 2.3-.7 4.5-1.1 7.3zm1.1 53.2l1.4.8c1-2.3 1.9-4.6 3.1-7.6-5.7.9-3.6 4.6-4.5 6.8zm43.2 367.9c2.2 2.5 4.3 3.5 7.1 1.3-2-2.9-4.2-3.2-7.1-1.3zm749.4-464.3c3.6-.2 3.6-.2 5-6zM198 109.3c6.5-1.6 6.5-1.6 6.2-5.9zm-8.9 5.9c4.8-1 4.8-1 5.4-5zM20 496.6l-.8.9 3 4.6 2.5-3.9zm-7.7 83.6c1.3 3.1 3.4 2.7 5.3 2.1.4-.2.4-1.6.8-3zm982 71.2c-3.7-3.1-4.3-3.1-7.7 0zM89.2 667.7c3.9-4.8 3.9-4.8 1.4-7.5-.5 2.2-.8 4.2-1.4 7.5zM72 698.2c-3.7-2.7-3.7-2.7-5.3 2.3zm888.7-499.9c.3-.6.5-1.3.8-1.9l-4.6-1.2c-1 2.6 2.2 2.2 3.8 3.1zm-828.3 52.6c-2.7-.1-3.7 4.3-1.2 4.8s2.3-3.6 1.2-4.8zM674.8 92l-2.5 2.8 4.2 2.5.7-.9c-.6-1.2-1.3-2.4-2.4-4.4zM18.6 404.6c-1-1.7-1.8-3.1-2.7-4.5l-1.2.8c.2 1.7.3 3.4.5 5.6zm1043.6-48.2c-2.7-2.8-2.7-2.8-4.6.4zM808.6 840.9c.3.7.7 1.3 1 2 1.8-1 4.1-.9 2.3-3.5zM34.3 648.4l3.9 1.1c-.3-2.3-.5-4-.9-6.7-1.2 2.4-1.9 3.7-3 5.6zm990.8-71.3v1.1l3.7.5.4-3.9zM653.8 121.9v-4.7c-3.4 1.7-1.9 3.3 0 4.7zm373.9 152.4c2.4-4.2 2.9-4-1.7-6zM753.5 867.1c-2 2.2-2 2.2-.4 5.2.2-2.4.3-3.8.4-5.2zm159-664.5a5.7 5.7 0 0 1 1.3.8c1.8-1.1 2.7-2.6 1.6-5.8zM131.3 750.1c-.4-4.2-2.3-4.2-4-1.6zm-27.8-34c0-.5-.1-1-.1-1.5-2.3 1.4-5.1-.4-7.2 2.3zM454 15.4c-3.9.1-5.4 2.6-2.8 4.1zm515.8 183.9l-.7-1.6c-1.3.8-4 1-2.4 2.8zM207.5 771c-.5 2.1-.8 3.5-1.3 5.5 3.8-1.2 3.9-2.7 1.3-5.5zm22.4 31.6l.3-1a7 7 0 0 1-3.9-1.8c-.4 1.5-.7 2.4-1 3.8zm639.7-9.5c-1.3 2.1-2.4 2.8-.1 4.2 1.6-1.7 2.3-2.2.1-4.2zM134.9 657.3c1.8 3.5 3.5 3.8 4.5 1.5zM65.7 231.5c-2.1 1.8-2.1 1.8-1.6 4.7.7-2 1.1-3.4 1.6-4.7zM15.3 461.2a6.4 6.4 0 0 1 .8 1.4l2.6-2-.8-1zm130.5 160.3c-.5 2.1-1.2 4.6 2.5 2.7zM999 638.7a15.9 15.9 0 0 0 .7 2c1.3-.9 3.8-.9 2.5-3.1zM58.2 653.5a16.2 16.2 0 0 0 .4-1.9l-4.1-.8-.3 1.4zm96.8 3.2l5.9 2.3c-1.7-3.2-2.3-5.4-5.9-2.3zm813.9 8.9l.8-.7-2.1-2.4-1.2 1.2zm-880.2 71c2.4 3.2 2.4 3.2 4.4 1.7zM790 99.2c.5-1.2.8-1.9-.8-2.3s-.8 1.9.8 2.3zm-601.4 38.9l-.5-1-2.8 1.1.9 2zm862.7 223.2l-4.3 2.7c2.9 1.9 3.7.8 4.3-2.7zM71.8 237.6h.5l-.6-3.9-.8.2zm41.6 35.7c1.4-1.6 2-2.2 0-3.4-1 1.3-1.7 1.9 0 3.4zm930.8 5.6a8.3 8.3 0 0 0-.4-1.5l-2.7.3c.1.6.1 1.1.2 1.7zM22.8 315l.8.9 2.7-2.6-.6-.7zm-7.2 152.8c1.5-1.5 2.2-2 .2-3.3-1.1 1.3-1.8 1.8-.2 3.3zm131.8-264.7l.9-1.4a4.4 4.4 0 0 0-3.4.2c.2 1.7 1.2 1.3 2.5 1.2zm631.7-97.5v1.4c1.2.1 2.7 1.9 3.7-1.4zm68.4-41.9c2-2.2 1.6-2.6-.4-3.9-1.6 1.6-1.3 2.2.4 3.9zM671.9 98l-.7 1.4 3 .9a3.6 3.6 0 0 1 .4-.9zm271.9 87.2v1.1l3.6-.2v-.6zM188.3 95.8h-1v3.1h1zM140.5 708l-.6 1.4 3.9 1.7a6.1 6.1 0 0 1 .5-1.2zM241 807.4l-.6-1-2.8 1.4c1.2 2.2 2 .3 3.4-.4zm17.3 39.7l1.2-1.1c-.7-.7-1.3-1.5-2-2.3-2.1 1.3-.1 2.1.8 3.4zm409.3-740.9l-.5-.7a21.1 21.1 0 0 1-2.3 1.9l.4.6zm260.9 44.5l-.3-1-2.8.8c.3 1.9 1.9.3 3.1.2zM135.9 623.6a3 3 0 0 1 .2 1l3-.9-.3-.9zm-17.9 2.8l-.8-1.3c-.8.7-2.4 1-1.3 2.3zM764 98.8l-.9-.8c-.6 1.1-2.7 2-1 3 .6-.8 1.3-1.5 1.9-2.2zM34.3 665.1c-1.8-1.7-2.2-2.1-3.7-.4 1.2 2 1.6 2 3.7.4zm639-546.8a10.5 10.5 0 0 0 .8 1.1l2.4-1.8a5.6 5.6 0 0 1-.5-.8zM69.1 217.5a8.9 8.9 0 0 0-.5-1.3c-2.2.6-1.7 2.4.5 1.3zm73.1 3.2a10.4 10.4 0 0 0-.4 1l2.7.8.3-1zM778.6 95l.9.3c.3-.8.5-1.5.8-2.2-1.6-.6-1.3.9-1.7 1.9zM79.2 232c-1.7-.9-2.2-1.2-3.7-.5 1.2 2 1 1.9 3.7.5zm77.9.7l-.9-1.3-2.3 2.1.6.8zm747.3-92.1c-.9.6-.8 1.1-.2 1.8l1-1.1zM764.6 90.1l.9.3.9-2.4c-1.6-.8-1.3 1.1-1.8 2.1zm-237.2-51l1.1.7 1.1-2.1c-1.3-1-1.5.6-2.2 1.4zM94.1 196.7l-1.2.7 1.2 2.4 1.3-.7zm855.4-59.3c-.4-1.7-1.1-1-2.3-.8.4 1.5 1 1.5 2.3.8zM150.8 776.8c-1.5-.8-1.9-.7-2.9.5 1.3 1.1 1.6.7 2.9-.5zm276.8-632.4h1.3c.2-2.7-.6-2.7-1.3 0zm614.6 119.8c-.9-.7-1.7-.4-1.1.7a4.1 4.1 0 0 1 1.1-.7zM845.3 816.4c-1.7-1.1-2.5-1.4-3.2.2s1.7.8 3.2-.2zM770.6 83.1l1.3.7 1.5-3.6-.7-.3zm203.3 118.3l.8.4 1.4-2.2-1.5-.6c-.2.8-.5 1.6-.7 2.4zM757.1 864.2c.5 1.6 1.2.8 2.3.5-.5-1.6-1.1-1.2-2.3-.5z" fill="#d17d4e" data-name="NewShape18_273213976"></path></g></g></svg>