<svg xmlns="http://www.w3.org/2000/svg" width="1080" height="653.5" viewBox="0.030412673950195312 -0.0006757306400686502 1079.99267578125 653.44189453125" style=""><g><path d="M1080 306.3c-.3-25.1-2.1-51.2-8.8-75.6-5.8-21.2-16.7-43.2-36.3-54.9-25.4-15.1-55.2-10-81 1.5a395.7 395.7 0 0 0-36.6 18.9c5.1-19.7 8.1-40.3 5.7-60.4-2.9-24.1-13.7-48.6-34.8-62.3-23.4-15.2-52.8-11.8-78.3-4.3a199 199 0 0 0-80.6 47.1c-2-4.9-4.3-9.7-6.7-14.5-21.4-42.5-59.8-77.4-108.5-83.1-24.4-2.8-49.1 1.7-70 15.2a127.1 127.1 0 0 0-33.5 32.7 175.4 175.4 0 0 0-51.8-46.4C437.8 8.1 414.4.1 390 0c-26.2-.1-51.5 10.9-67.1 32.4s-18.9 47.5-17.3 72.7c-37.7-3.7-76.4 3.1-106 28.1-19.1 16.2-33.3 39.4-35.7 64.5a64.3 64.3 0 0 0 6.8 35 62.3 62.3 0 0 0 6 9.4c-63 6.1-122.8 38-155.1 94C4 366.6-3.5 402.5 1.6 437.4c2.5 17.2 8.8 34.8 19.1 48.9s26 25 43.3 30.3c32.6 10 69.1 3.8 100.9-6.6 30.1-9.8 57.9-25.1 83.1-44.1-2.1 11.8-3.8 23.8-4.9 35.8-2.4 24.1-2.5 48.4 2.2 72.3 4.3 21.4 13.2 42.2 28.8 57.8 17.2 17.3 42.4 24.2 66.3 20.8 57-8.1 95.5-59.7 119.9-107.7a324.6 324.6 0 0 0 20.6-51.6l2.2 5.5c15.1 36 35.9 73.6 70.9 93.5s77.7 20.4 109.5-5.6c15-12.4 25.8-29.2 33.1-47.7 24.2 30.7 55.3 56.3 92.2 70 40.6 15.2 88.6 16.1 129-.6 48-19.9 89.9-66.7 81.9-121.6-2.7-19.1-11.4-37-23.8-51.8 5.2-.9 10.4-2 15.5-3.3 25.4-6.3 48.7-19 65.2-39.7 19.1-24.1 23.8-55.8 23.4-85.7z" fill="#c9ebd7" data-name="Слой 2"></path></g></svg>