<svg xmlns="http://www.w3.org/2000/svg" width="1080" height="905.4" viewBox="-0.014185929670929909 -0.0039052285719662905 1080.0145263671875 905.4039306640625" style=""><g><g data-name="Слой 2"><path fill="#ffbe2e" fill-rule="evenodd" d="M11.6 537.6l93.2 247.1 189.9 110.8 682.6-392.3 91.1-133.6-95.3-247.1L777.5 8.2l-672 393.2-93.9 136.2z"></path><g fill="#fff"><path d="M296.9 905.4a9.2 9.2 0 0 1-6.7-2.9 9 9 0 0 1-.6-11.3l96.7-135.8a7.7 7.7 0 0 1 2.8-2.6l677.3-393.6a9 9 0 0 1 11.9 13L981.6 508a9.9 9.9 0 0 1-2.8 2.6L301.4 904.2a8.9 8.9 0 0 1-4.5 1.2zm103-138l-71.4 100.2L968 496l71.4-100.2z"></path><path d="M393.6 769.6a9.1 9.1 0 0 1-8.4-5.8l-95.6-246.9a8.9 8.9 0 0 1 3.9-11l677.3-393.7a9.4 9.4 0 0 1 7.5-.7 8.9 8.9 0 0 1 5.4 5.3l95.7 246.9a9.1 9.1 0 0 1-3.9 11.1L398.2 768.4a9.3 9.3 0 0 1-4.6 1.2zm-84.4-252l89 229.9L1059.8 363l-89.1-229.8z"></path><path d="M298 522.7a8.9 8.9 0 0 1-4.5-1.2l-192.3-111a9 9 0 0 1-4.5-7.8 9.1 9.1 0 0 1 4.5-7.9L778.5 1.2a9.2 9.2 0 0 1 9.1 0l192.2 111a9 9 0 0 1 4.5 7.8 8.8 8.8 0 0 1-4.4 7.8L302.5 521.5a8.9 8.9 0 0 1-4.5 1.2zM123.7 402.6L298 503.2l659.3-383.1L783.1 19.5z"></path><path d="M296.9 905.4a9.2 9.2 0 0 1-4.5-1.2l-192.3-111a8.9 8.9 0 0 1-3.9-4.6L.6 541.8a8.9 8.9 0 0 1 1.1-8.5l96.7-135.9a9 9 0 0 1 11.8-2.6l192.3 111a9.2 9.2 0 0 1 3.9 4.6l95.7 246.9a8.9 8.9 0 0 1-1.1 8.5l-96.7 135.8a9.1 9.1 0 0 1-7.4 3.8zm-185-126.2l182.4 105.3 89.2-125.2-92.8-239.4-182.4-105.3-89.1 125.2z"></path></g></g></g></svg>