<svg xmlns="http://www.w3.org/2000/svg" width="1080" height="883.1" viewBox="0.007344484329223633 0.0018061399459838867 1079.987060546875 883.1214599609375" style=""><g><path d="M834.1 882.8a5.4 5.4 0 0 0 5.7-1.3c11.8-11 21.9-23.9 31-37.8a236.6 236.6 0 0 0 16.3-19.7c7.9-11.3 12.1-25.6 17-39.4 6.9-13.2 13.8-26.3 21.3-38.9 17.4-21.6 39.9-38.9 55.6-62.1 28.7-11.3 54.8-29 80.1-48 3.3-2.5 4.4-8.1 0-10.4-6.9-3.4-10.5-5.3-13.8-6.8a4.1 4.1 0 0 0-1.5-.7l-.6-.2c-3.6-1.5-7.5-2.9-15.5-5.9s-10.3-4.9-11.2-7a6.9 6.9 0 0 0 3.7-6c8.3-5 27.4-9.4 38.9-15.2 3.9-1.9 3.9-8.3 0-10.3-14.1-7.2-22.4-11.7-26-15.1l6-4 10.9-6.4a5.4 5.4 0 0 0 2.5-3l1-.7c4.4-1.4 9.2-3.1 14.6-5.1s5.5-6.3 2.7-10c-6.2-7.8-15.3-21.5-24.2-26.7-.2-.1-.2-.3-.4-.4 15.5-14.1 22-38.4 31-56.5a6.1 6.1 0 0 0-2.1-8.2c-16.1-11.8-31.6-23.6-49-32.4a7.3 7.3 0 0 0-2.9-2.3c3.3-13.8 22.8-29.6 30.2-38.9 2.4-3 2.3-9.3-2.7-10-37-5.4-26.3-12.3-6.8-39.9 2.1-3 0-8.1-3.6-8.8a189.4 189.4 0 0 1-20.5-4.3c7.8-14.8 13.2-34.4 17.1-43.2 1.2-2.9.9-6.5-2.2-8.2-16.9-9.4-41.2-14.2-62.8-13.4-8.6-21-11.8-43.9-17.8-65.8-1.7-6.2-9.4-5.1-11.6 0s-4.7 12.1-6.9 18.3c-11.6-41.1-30.1-79.7-49.1-118-1.4-2.8-5.7-3.9-8.2-2.1a413.4 413.4 0 0 0-62.5 51.8l-3.5-4.4c-6.1-23.3-12-46.7-17.1-70.3-.9-4.2-5.5-5-8.8-3.6l-4.1 2a4.1 4.1 0 0 0-1.5.2c-29.3 9.8-56.7 23.9-85 36-9.2-24.7-18.3-50.8-39.1-65.8-7.6-5.6-16.4 1.2-22 6.1a346.3 346.3 0 0 0-32 32.1l-.7-.8c1.6-2.2 1.9-5.3-.5-7.5-7.7-7-15.8-13.4-24-19.5a161.2 161.2 0 0 0-17.7-14.8 4.7 4.7 0 0 0-3.8-1l-10.1-7.4c-5.1-3.6-9.7 2.4-8.2 7.2a177 177 0 0 0-17.9 38.9l-5.1-3.8a228.3 228.3 0 0 0-44-31.1 5.2 5.2 0 0 0-4.8-.4c-1.2-.8-2.3-1.7-3.5-2.4-3.6-2.3-7.4.2-8.8 3.5-8.9 21.2-16.4 45.5-19.2 69.5-4.7-2.8-9.5-5.5-14.5-8a405.8 405.8 0 0 0-38.9-23c-3.7-2-9.3.4-9 5.2 1.5 21.4 1.1 18.3 5 39.8.3 1.6.7 3.1 1 4.5-11-7.9-21.6-15.7-31.7-21.7a5.6 5.6 0 0 0-3.7-.7 238.6 238.6 0 0 0-36-17.3c-4.6-1.8-8.1 3.4-7.4 7.4a262.2 262.2 0 0 0 6.9 26.8 5.5 5.5 0 0 0 .6 2.2.4.4 0 0 1 .1.3l-2.3-1.3c-6-3.3-11.7 4.4-7.2 9.4l6 6.4a240 240 0 0 0-80.2-51.2c-3.4-1.3-7.9 2.1-7.5 5.8a192 192 0 0 0 11.1 46.7c-8.3-.4-16.5-.6-25-.7-6.2-.1-7.7 8-3 11a7.2 7.2 0 0 0 1.2 2.9c3.5 4.4 7.3 8.6 10.9 12.9-21.7-2.6-49.3-5.9-58.8-5.8a6.1 6.1 0 0 0-5.2 9c4.9 9.4 13.7 19.6 22.3 30-15.7 5.3-31.5 8.1-48.3 12.6-4.7 1.3-5.5 6.7-2.7 10a220.3 220.3 0 0 0 24.1 24.2c-31.1 12.9-60.5 29.6-88.9 47.8-8.7 4.4-17.4 8.9-26 13.6a107.3 107.3 0 0 0-18 9.5 6.6 6.6 0 0 0-1.9 1.8c-5.4-.8-9.3 7.6-3.7 11.3l13.1 8.2h.2l21.5 13.6a5.7 5.7 0 0 0 4.1 4.4l4.5 1c11.3 7.2 22.4 14.7 33.1 22.6l-22.8 15.6-4.3 1.5a5.4 5.4 0 0 0-3.8 4.1c-17.1 11.9-34 24.1-49.6 38-2.7 2.4-2.1 7.7 1.3 9.4l46.6 23.3a83 83 0 0 0-17.6 21c-4 4.4-8.1 8.7-12.2 13.1a6.1 6.1 0 0 0 2.7 10c11.2 3.9 22.5 7.9 32.9 13.8-15.3 17.1-30 34.2-42.2 54.3a6 6 0 0 0 5.2 9c4.6 0 35.1-2.6 52.6-.1-17.5 19-33.2 42-40.2 66-.9 3.4 1.2 6.3 4.2 7.4 10.2 3.8 20.9 5.9 31.2 9.1-5.7 19-12 37.7-14.7 57.6-.5 3.9 4.2 6.6 7.6 5.7a223.4 223.4 0 0 1 56.9-8.1 5.6 5.6 0 0 0 3-.9c1.8 20.1 2.1 40.5 5.1 60.5.6 4 5.8 5.4 8.8 3.6a143.8 143.8 0 0 1 13.1-6.4 5.8 5.8 0 0 0 2.6.2c7.5-1.9 16.2-3.3 25.1-4.7-4.6 19.7-11.1 38.9-16.1 58.5-1.1 4 2.9 9 7.3 7.3 16-6.1 31.3-14.4 48.6-16.5a6.4 6.4 0 0 0 3.5-1.7c.3 2.3.5 4.7.6 6.9a5.9 5.9 0 0 0 2.9 4.9c2.6 14.5 5.6 28.9 10.9 42.6 1.1 3 4 5.3 7.3 4.2 18.9-6.1 36.8-14.7 55.7-20.9a5.6 5.6 0 0 0 4-4.4 344.1 344.1 0 0 0 22.7 35.1c2.4 3.2 6.3 4 9.4 1.2 13.5-11.8 21.3-27.7 30.2-43a5.2 5.2 0 0 0 .3-5.1c12.1 15.2 25.8 28.9 43 37.9 2.8 1.4 6.7.9 8.2-2.1 8.1-16.2 12.6-33.5 18-50.6l2 1.6c16.3 16.5 33 33.1 54 42.8a6.2 6.2 0 0 0 8.2-2.2c8.4-12.8 16-25.6 21.6-39.5q19.5 11.4 39.7 21.4c13.8 19.6 41.6 30.6 61.4 41.1a6.1 6.1 0 0 0 8.8-3.5c6.2-19.3 14-37.9 18.2-57.6 10.5 7.7 21 15.2 32 22.2 3.4 2.1 7.6-.1 8.7-3.6 9.1-26.9 13.3-52.8 14.7-80.2 2.2-6.4 3.8-12.3 5.4-17.2 14.3 9.2 56.6 38.3 61.6 41.8 2.5 1.9 6.8.6 8.1-2.1 16-32.7 38.1-59.4 64.8-82.3 22.7 2.9 18.1 34.3 18 62.8-.2 41.7-9.5 81.7-30.5 117.8-3.1 5.3 2.7 10 7.2 8.5zm46-800l1-.7.6 1.2zm6.5 16.4a5.5 5.5 0 0 0-1.7-1.7l1.2-.7a5.9 5.9 0 0 0 1.3-1.9c.9 1.9 1.8 3.9 2.8 5.8a5.3 5.3 0 0 0-3.6-1.5zm-40.8 10.6zM656.9 35c.7-.8 1.6-1.4 2.2-2.2a4.2 4.2 0 0 0 1-1.7 50.7 50.7 0 0 1 3.6 4.5 6.8 6.8 0 0 0-6 1.3 4.6 4.6 0 0 0-.8-1.9zm-98.7 7zm-70.6-.9zm-29.4-.9c.2.6.5 1.2.8 1.9-1.9 3.9-3.4 7.8-4.7 11.1 1.2-4.4 2.5-8.7 3.9-13zM645 58a1.1 1.1 0 0 0 .6.2 58.9 58.9 0 0 0-6.8 6.3v-.2c.9-1.3 1.8-2.6 2.6-4a29.1 29.1 0 0 1 2.7-2.4zm-70.5 1.1a2.7 2.7 0 0 0 .7.8l-3.5.2zm37.7 2.9c.8-1 1.6-2.1 2.5-3.1a5.4 5.4 0 0 0 1 2l2.9 3.7a24.9 24.9 0 0 0-2.3 3.1zm-60.7 13.8h.1a.1.1 0 0 1-.1 0zm237.2-6.6c-.4-3.7-.6-7.4-1.1-11v-.4c-.1-.5-.1-1-.2-1.6s-.2-.5-.3-.8h.2c1.2 5.4 2.5 10.8 3.8 16.3a4.5 4.5 0 0 0-2.4-2.5zm-60.2 11l-1-.7 9.6-4.3-7.6 6.1zm64.8 2.5c-.3-1.9-.7-3.9-1.1-6.2l1.5 6.3zm-317 6.7a3.1 3.1 0 0 0 .5-1 4.9 4.9 0 0 0 .4 1.1zm154.6-.9l-1-1.5 1-.5a5.9 5.9 0 0 0 4.8 2.5c1.4 3.2-.6 2.5-4.8-.5zm43.3 3.7a6.5 6.5 0 0 0 1.9-1.8l3 5.1-1.1.4c-1.3-1.2-2.6-2.4-3.8-3.7zM578 97.9h1.4l-.8.2zM316.4 84.3a49.2 49.2 0 0 1 6.7.4 6.5 6.5 0 0 0-.9 4.1h-4.1c-.6-1.5-1.2-3-1.7-4.5zm343.5 18h-.1l.5.5h-.2c-.1-.1-.1-.3-.2-.5zm67.1-.7c.5 2.1-.6 2.5-3 1.3zm-88.3 3.1a5.4 5.4 0 0 0 0 1.8c-.9-1.2-1.9-2.3-2.9-3.4zm-161.6 2l1.7-.7.8.5-2.5.2zm137.2-.8a6.1 6.1 0 0 1-.5-1.2l7.3-1.1a7.5 7.5 0 0 0 .6 1.3c.5.6 1.1 1.2 1.5 1.8zm154.2 2.5v1.6l-1.3.7c.2-1 .6-2.1.9-3.1zm-56.3 2.7a6.7 6.7 0 0 0-1.9-.5l.9-.6 1.5 1.4zM253 88.7l3.3 1.3a4.8 4.8 0 0 0-.1 2.4c-1.1-1.3-2.2-2.4-3.2-3.7zm79.5 24zm558.9 16.9a6.8 6.8 0 0 0-2.9 2.9h-6.9a15 15 0 0 0 2.5-6.4l1.4-1.9a5.3 5.3 0 0 0 3.2-3c1 2.8 1.8 5.6 2.7 8.4zm-100.6-.7h-4.1c-1.2-2.7-2.3-5.5-3.4-8.2l.7-.2zm-369-8.4h-1l-.4-.2c-.4-1.3-.7-2.7-1-4zm-130-3.4a5.5 5.5 0 0 0 .2-1.8l1.7 1.5a12.5 12.5 0 0 0-1.9.3zm291.6-2.2a6.6 6.6 0 0 0 1.2 1.7h-2.3a1.8 1.8 0 0 1 .9-1.8c0 .1.1.1.2.1zm-11.9 1.3l-12.8-.4 2.8-.4c3.1-.4 6.1-.6 9.2-.7zm-296.3 2.5l-.7-1.1a4.4 4.4 0 0 0-.1-3.7 73.9 73.9 0 0 1 7.5 6.1l-2.3 1.2c-1.4-.9-2.9-1.7-4.4-2.5zm433.9 5.3l-.8-1.4 3.4 1.7zm-24.7 1.3l-1.5 1.1a5.8 5.8 0 0 0 .3-2.2zm-436.2 2.3a6.9 6.9 0 0 0-.5-1.3h.3l.9 1.6zm372.6 2.1a8 8 0 0 0 .8-1.6 117.3 117.3 0 0 0 12.3.6 5.3 5.3 0 0 0 3.3-1.2l.9.6a6.2 6.2 0 0 0-2.8 6.6 5.2 5.2 0 0 0 .8 5.4l-3.4-1.4a5.5 5.5 0 0 0-2.8-3.7c-3.9-2.5-6.9-4.1-9.1-5.3zm-25.7 6.6l2.7 1.1-2.2.2-1.3.4-1.3-1.4zm-132.6.3l-.3-.6.5.4zm-42.8 1.2l-.8.6.7-.7a.1.1 0 0 1 .1.1zm-192 4a57.3 57.3 0 0 0-10-6.8c4.5 2.2 8.8 4.7 13 7.2zm402.1 11.1l1.3.7-.4.2-1.1-.9zm-280.2-9.3zm91.7 2.5a1.7 1.7 0 0 1-.1-.7l3.4 1zm99.8 2h2a8.3 8.3 0 0 1 .8 1.2h-2.1zm176.8 1.4a5.9 5.9 0 0 0 .2-1.4l3.1 1.9zm107.2-1.7h1.1c.7.8 1.3 1.6 2 2.3l-1.4 1.1zm-218.2 3.7h.7l1.3.2 4.6 5.9h-.4l-6.1-5.9zm-338.3.2l.9.2.6.8zm220.7 4.6l-1.1-1.3 3.1-1.3 3.4 3.3zm100.2-.2h.1l2.7 3.3zm-36.5 5.5h.1c2.1 2.6 5.2 2.2 7.5.6l.6.8-7.7 1.2-2.7-2.6zm-244 3.5l-7-.5a3.1 3.1 0 0 0-.7-.9h.1a67.5 67.5 0 0 0 7.6 1.4zm-58.4-2.2l2.7.4a7.2 7.2 0 0 0 3.6-.4l5.2 5.9c-3.7-2.1-7.6-4.1-11.5-5.9zm557.5 7l1.2.5a3.6 3.6 0 0 0-.2 1l-2.9.5a18 18 0 0 0 1.9-2zm155.6 453.7l-1.1 1.2-1.4.4-1.2.6 1.9-2.2zm-482.2-4.2l5.3-2c-1.2 1.7-2.2 3.4-3.2 5zm-101.3 1.4l-.5-.6h.2zm123.8-1.7l5.5 5.3c-3.9 2-7.9 3.9-11.5 5.6a122.6 122.6 0 0 1 6-10.9zm283.5-2.4l-5.8.5 5.9-.6a.1.1 0 0 1-.1.1zm-69.4 0l-2.6.5-2.9-1.8zm-43.7 5.5l-1.2 1.3-11.7 2.2c-3.5-1-5.8-2.8-6.1-5.6 1.3-.6 2.7-1 4-1.5l.7.2a5.5 5.5 0 0 0 6.5-2.8l2.2-.8zm-38-9.8l.9 1.7-6.5 3-.5-.6 1.8-3.9a7.9 7.9 0 0 0 .3-1.3zm228.3-1.1h-4.8l3.7-1.9 1.8 1.7zm42.7-.9a.2.2 0 0 1 .2.2c-1.2-.4-2.4-1-3.6-1.3zm-378.5 2.2l-5-5 5 1.5c2 .6 1.6 1.9 0 3.5zm-74.5-2l-2.8-2 2.1-.2 4.5-.6a17.1 17.1 0 0 0 1.1 1.4zm302.7-3a4 4 0 0 0-1.5 1h-.1l-2.6-1.4zm-610.3-.6c-4.2.6-3.5.4-.2-.2zm813.3-2.8l-1.1.5-.7-.5zm-543.2-4.3a26.1 26.1 0 0 1-1.9-8.4h1.5l8.1 7.6zm16.5-8.4l10.6-.2c1.8 1.9 3.5 3.9 5.1 5.8l-9.3.7zm416 4l1.5 1.5q-10.2.6-21 1.8a6 6 0 0 0 .8-4.1zm-382.4.3l-3.2.2-4.3-4.9 5.8-.3c-.4 1.6.3 3.3 1.7 5zm163.9-17.1l-2-3.3 5.2-4.4 4.4 5.5-5.1 2.3zm-202.1.7H421l-.6-.5c2.1-1.1 5-1.1 8.4.5zm136.4-10.7l-13.2 2.2-2.8-1.2c1.8-2.1 3.6-4.3 5.2-6.4l10.9-3.1a.2.2 0 0 0 .2.2zm87.5-2.3l4.5 1.9-2.2 1c-.8-.9-1.5-1.9-2.3-2.9zm-358.6 4.3a11 11 0 0 0 .2 1.8c-3.5-.3-7.1-.7-10.6-1.2l8.3-1.4zm407.3 2.4l4.1 4.3-2 1.3-5.8-3.4.9-.7 1.2-.6zm172 5.6h-1.5l1-.5c.2.1.3.3.5.5zm-27.4-1.2l-5.8-5.6h.2l5.7 5.7zm19.3-7.3c-3.2 1.4-6.5 2.7-9.8 3.9l-4.3-5.3 10-2.9c1.3 1.5 2.7 2.9 4.1 4.3zm26.9-3.5l.7.5-1.5 4-2.2-2.3c1.1-.7 2-1.5 3-2.2zm45.7 7.4l-3.2 2c-.3-1.2-.5-2.5-.8-3.7zm96.2-1.7a3.8 3.8 0 0 0-1.5.1v-1zm-82.5-5.8h-.1l-.8-.3h.2zm-42.8-3.2c15.5 18.5 10.5 14.8-.6 4.1.1-1.3.4-2.7.6-4.1zm-147.5 4.5l-10.6 4.3c-1.8-2.2-3.8-4.3-5.6-6.4l7.9-5.7zm-23.4-11.5l-.6.5-1.3-1.5a5.2 5.2 0 0 0 1.9 1zM935 550l-.7-.2.3-.2zm-63.3.2l-3.5-3.6.5-.7c1.4 1.3 2.7 2.7 4.1 3.9zm99.1-5.1l-6.3 3.4c-1.1-2.1-2.4-4.2-3.7-6.3 5.1-.2 8.5.8 10 2.9zm-44.9-3.6l-1.2.6.7-1.1c.2.2.4.3.5.5zm-36.6-.7l-2.3 1.9a4.8 4.8 0 0 0-1.5 2.1l-8.8-8.9c2.1-.8 4.1-1.7 5.9-2.6zm-161-19.3a6.4 6.4 0 0 0 1.8-.6l9 10h-.1l-4.1-2.7zm-109 .7a9.4 9.4 0 0 0-1-1l2.2.7zm200-1.7l4.3 4.7a35 35 0 0 1-5.3-1.5 5.8 5.8 0 0 0 1-3.2zm-111.6 3.3l2.4-.5c5.6 4.5 11.3 8.9 17.2 13.1l-5.7 2.6c-4.7-5-9.2-10.1-13.9-15.2zm-126 6v-.2c4.7-2.3 9.3-4.8 14-7.3l3.2 3.9zm428 3.4h-.1a.1.1 0 0 0 .1-.1zm-108.8-1.7l-2.5 1.9-5.6-6.6a46.9 46.9 0 0 0 4.7-4.2 32.5 32.5 0 0 1 3.4 8.9zm121.3-5.3c-2.3.7-4.7 1.3-7 1.8 1-1 2-2.2 3-3.3zm-59.5-1.1h-.3l-13.2-1.8-.7-.9zM850.6 528l-5.2-5.5c1.7 1.8 3.5 3.6 5.2 5.5zm199.6-6.1l-4.5-2.8a8 8 0 0 0 1.3-1.3 25.7 25.7 0 0 1 3.2 4.1zm-466.5-3.6c.5-2.9 1-5.8 1.6-8.5l4.4 5.2zm196.9-10.6c-.2.1-.3.3-.4.4l-1.2-.8zm-20.9-.7l.3.7c.4 2 .8 4.1 1.1 6.1a14.8 14.8 0 0 0-6.4-5.3l-1.4-1.9c-2.3-3.4-4-6.1-5.5-8.4zm-310.3-9.8l1.2 1.4-.7.4a5.1 5.1 0 0 0-6.1 2.9l-3 1.3-.9-.7zm-294.2 5.3a31.1 31.1 0 0 0-2.8-2.3l1-.4 4.2 1.8-.7.6zm304.6-11.3c5.7-3.5 11.5-7 17.2-10.7-5.1 4.2-10.4 8.4-15.6 12.5zm-205.3.7c-2.5-1.2-1.7-1.9 1.7-2-.6.6-1.1 1.3-1.7 2zm11.8-14l-4.9-.4 1.3-.8zm103.8-6.6l4.8 5.2-.9 1.2-1.3-.9c-.9-1.8-1.7-3.6-2.6-5.5zm163.6.7l5.8-3a18.7 18.7 0 0 1 0 7.1c-4.6 2.5-9.2 4.9-13.9 7.2a46.6 46.6 0 0 1-10.8-2.1zm319.6-6.4l1.1-.5c-1.4 3-2.9 5.9-4.2 8.5l-3.5-4.6zm-100.6.7a3.4 3.4 0 0 1-.6-.6h.3l.2.3a.4.4 0 0 0 .1.3zm-14.1 1.3c1.6 2.7 3.1 5.4 4.6 8.2l-.6.4a40.1 40.1 0 0 1-5-8.8h.8s.2.1.2.2zM559.7 481c1.3 1.3 2.6 2.6 3.8 4h-2.2c-.6-1.4-1.1-2.7-1.6-4zm-291.3 12.2h-.2zM677 471.6l-.2-.4 16.2 4.6c5.2 7.1 10.7 14 16.3 20.8l.5.8-3.5 1.5h-.2c-9.3-9.5-18.9-18.6-29.1-27.3zm238.8 8l-.9 1-1.1-1.2 1.2-2.4a25.8 25.8 0 0 1 .8 2.6zm37.8-2.5l3.6.5-5.9 1.4a4.4 4.4 0 0 0-.2-1zm-171.4 5.6l3.5 3.4-.6.4c-1-1.3-2-2.5-2.9-3.8zm-252.5 16.8a86.6 86.6 0 0 0 10.2.1l-8.1 2.1zm486.1-3a5.8 5.8 0 0 0-3.2-.9h.5l3.5-.6a11.9 11.9 0 0 0-.8 1.5zm-6.6.6h-.6l1-.9 1.4-.2a4.2 4.2 0 0 0-1.8 1.1zm-95.5 0l-2.8.8a6 6 0 0 0-5-5.4l1.6-2.5c2.1 2.4 4.2 4.7 6.2 7.1zm-29.5 2l3.3-4.8 1.7 1.8-1 1.5c-1.4.5-2.7.9-4 1.5zm-14.5.5l-2.5-3.3c11-8.2 13.3-10.5 2.5 3.3zm23.3-14c1.1-1.7 2.3-3.4 3.4-5.2a6.7 6.7 0 0 0 .7-1.8l2.5 2.7c-1.9 2.9-3.5 5.1-4.3 6.3zm152.9 1.6c2.4-7.6 7.8-16.6 13.3-24.7-3.7 8.9-7.9 17.7-13.3 24.7zm-42.6-21.8l-4.4-.4a4.1 4.1 0 0 0 1.6-1.6l.4.2a21.5 21.5 0 0 1 2.4 1.8zm-93.1-1.7c-1.2 2.4-2.6 4.9-4 7.3l-5.1-5.5a67 67 0 0 0 5.6-8.6l.6-.7zm-574.7-12.6l9.2-3.8c2.1 4.3 4.5 8.4 6.2 11.8.7 1.3 1.3 2.4 1.8 3.5zm-23.5 8.8l2.6-.9 1.8 1.3c8.3 11.6 6.3 7.8-4.4-.4zm-65.8-20.7c-6.6 3.8-13.1 7.6-19.8 11.2 5.6-3.7 11.1-7.7 16.6-11.6zm303.7-.4l3.8-1.6h.5a29 29 0 0 0-3.6 2.5zm211.5 10.5c-.1-.5-.1-.9-.2-1.3l1.1-.4 3 2.6-2.2.5zm-186 4.4l-5.1-2.3 4.9-2.8a22.9 22.9 0 0 1 5.1 1.6zm-139.1-4.5l-4.5 4.5c-1.4-2.1-2.9-4.1-4.4-6.2l5.3-1zm-57.6 3.7l-10-7.1c7 1.3 13.9 2.2 20.7 2.8zm340.1-6.6l1.7-.7.8 1.1zm57.7-3.9l1.2-.4c.6 1.5 1 3.1 1.6 4.6-.9-1.4-1.8-2.8-2.8-4.2zm-35.7 1.9l-.6.2-1.5-2.9zM535.9 457l.3.8c-4.4 2-8.8 4-13.2 6.2l9.8-9.9zm55.2-.7l.9.6h-1.6a1.8 1.8 0 0 1 .7-.6zm154.3-1.9l.8-.3c.1.3.3.5.4.8l-.8.3a3 3 0 0 0-.4-.8zm227.3.8h-6.6l-3.8-1.6a29.6 29.6 0 0 1 6.7-3.6l3.7.9a5.6 5.6 0 0 0 0 4.3zm46.7-4.3l-18.7-2.5a11.8 11.8 0 0 0 1.8-2.1zm-87.8-3.9h-.1l-.8-.9.6-.2zm121.2-7.3c1.6.5 2.2 1.8 2.3 3.7h-.8a5.3 5.3 0 0 0-3.6-1.7l1.6-2.3zM804 444.5l-12.9 1.6-3-7.6 10.2-3.5zm-531.3-17.6l3.2 2.5-5.9.2-2.6-1.8 4.8-1.4c.2.2.3.4.5.5zm119-.3l.4.5-2.7.5zm40.2 2.2l2.9 1.8-4.1 1.6-1.5-.9zm56.4-1.8l-2.2 1.3 4.6-4.7 11.6 6.4-4.9 3c.4-4.2-4.6-8.4-9.1-6zm143.2 2a.1.1 0 0 0-.1-.1l-8.4-12.3a14.8 14.8 0 0 1 3.8-7c5.2 7.9 10.2 16 15.3 24.1a62.2 62.2 0 0 1-10.6-4.7zm-223.4-10.1l2.1-.9c2 .8 4 1.9 6 2.8l-2.8.8zm-80.7 2.7l.3-.3h.3zm105.8-10l1-.2-4.9 4.2-.7.4-3.9-2.2 1.6-.4.8.2a5.8 5.8 0 0 0 6.1-2zm23.3 2.1c4.5-2.7 8.9-5.5 13.3-8.6l.3.3a43.8 43.8 0 0 1-7.1 13.5l-1.8.7c-1.5-2-3.1-3.9-4.7-5.9zm201.3-22.1c17.9.5 16.7 6.9 9.2 13.9zM278.2 401l.7-.2v.2zm524.4 9l-4.7 2.1c-2.7-4.5-5.4-9-8.2-13.5l7.1-.5c2 4 3.9 8 5.8 11.9zm7.1-12.8h.3c2.1 2.3 3.9 4.5 5.6 6.6l-2.2 1.2zm-33.2 1.9l8.4 13.7-10.4-5.4c-1.3-2.9-2.6-5.7-4-8.5zm-79.6 13.8c-4.4 1.9-8.6 4-12.8 6.3l-5 1.5-5.2-4.8a126 126 0 0 0 15-14.3zm-490.6-9.7l-4.9 2.5a.4.4 0 0 1 .1-.3v-.2l4.1-2zm449.3 24.7l1.8 1.4-3.2 1.4-1-1.6zM691 433a8.6 8.6 0 0 1 2.6-3.5c3.8-1.5 6.9-2.7 8.2-3l4-1 .9 1.3a6.2 6.2 0 0 0-1.8 4l-11.9 4.4zm190 4.6c.5-2.4.9-4.8 1.2-7.3l3.3 5.7zm86.9-1.4l-2.6.4-4.1-.6 2.1-.7c1.5.4 3 .6 4.6.9zm-71.5-8c.8 2.3 1.6 4.6 2.5 6.9l-5.1-9.4zm-67.9 1l-4.7-3.2 5.4-2.3c1.1 3 .8 4.7-.7 5.5zm82.1-11.8c-.5 1.3-1.1 2.4-1.6 3.5-2-3.9-3.7-7.5-5.2-10.5l.9-.3c2 2.5 4 4.8 5.9 7.3zM858.4 398c-1.3 2.9.4 6.6 3.3 7.9-1.8 3.1-3.7 6.3-5.7 9.4l-2.4-2.9c-2.5-4.8-5.1-9.4-7.7-14.1l8.5-2.9zm146.1-16.8zm-35.6 1.2h-.4l-1.1-1.3c.1-.1.2-.2.2-.3zm-46.9 4.8l-1.8.5-1.9-2.4-2.4-4.4zm-104.2.6h-.5q-3-3.9-6.3-7.5l1.4-.7zm114.2-8.5l-.7 1c-1.9-2-3.8-3.9-5.6-6a10.4 10.4 0 0 0 1.7-1.2zm-67.6-3l-1.7-2.7h.8a5.4 5.4 0 0 0 3 2zm-30.6-5.7l-1.2-.4.4-.2zm-31.4 0c-1.5-1.6-3-3.3-4.5-4.8l4.7-1.3.3.5 2.6 3.9zm219.9-7.5a6.5 6.5 0 0 0 .9 4.1l-1.4.2a5.3 5.3 0 0 0-3.8-3.3 18.3 18.3 0 0 0 1.3-1.6zM736.7 361l.2.2a9.5 9.5 0 0 0 .5 3.6l-1.3.2c-1.2-1.6-2.4-3.1-3.5-4.7zM489 357.3l-5.2-4 6.3-4.6 4.2-.5 14.7 13.7-4.3 1.6c-3.5-2-6.9-4.1-10.4-6a5.9 5.9 0 0 0-5.3-.2zm-35.2-3.7l-1.5-.9 7.7-3.4h.5a5.2 5.2 0 0 1-1.1 1c-1.7 1.2-3.7 2.2-5.6 3.3zm141.4-24.8l5.7 7.5-7.4 3.6-.6-.8a83.3 83.3 0 0 0 2.3-10.3zm-281.6 9.4l-4.5-1-3.9-.9 6.4.4zm146.2-15.4l3.8-2.4h1.5l3 2.9a6.7 6.7 0 0 0 3.6 6.7l-.3 1.5-4.1-1.2c-2.5-2.7-5.1-5-7.5-7.5zm-82 5.3zm-38.6-1.6l-9.9-.6 9.6.4c.1.1.3.1.3.2zm187.4-13.3c3.3 2.4 6.3 4.6 9.3 6.6l-.2.3zm-2.8 4.8h-3.1l-.5-.6h1a4.2 4.2 0 0 0 1.6-.4zm12.2-23.2a7.9 7.9 0 0 0 1.7-1.4c2.4 6.3 2.9 6.6 10.6 17.9l.7 1.2a6.3 6.3 0 0 0-3.6.3c-4.6-5.1-9.3-10.2-14.1-15.2zm-229.4.6l.9-.9 1 .7zm264.4 3.8h.4l.5.7h-.1zm63.2 4.2h4.2a21.4 21.4 0 0 0 8.4 6.3 4.1 4.1 0 0 1 .5.9 6.2 6.2 0 0 0-2.2 2.6c-3.6-3.3-7.2-6.6-10.9-9.8zm-252 9.1l-3.6-2.5c2.2.1 4.4.3 6.6.3l2.7 1.9zM367.7 298a6.3 6.3 0 0 0-3 2.5l-4-2.8 5.2-1.1zm-5.2 15.1h-4.7l-15.3-12 1.9-.6h.4c5.8 4.2 11.7 8.4 17.7 12.6zm-36.7.4h-6.5a5.3 5.3 0 0 0-5 3 18.4 18.4 0 0 1-2.2-1.7c.9-2.1 1.7-4.1 2.4-5.6 2.4-.6 4.9-1.1 7.3-1.8a48.1 48.1 0 0 0 4 6.1zm367.9 5.1h1.3l-1.2-.2zm62.9-2.9l.7-.4c1.2 2.9 2.5 5.8 3.8 8.8h-1.9l-1.5-3.9a21.7 21.7 0 0 1-1.1-4.5zm-462.9 8.2h-2.9l-2.7-2.4 1.8-1.1 4 3.1zm223.9 3.1a33.6 33.6 0 0 1 4.4 2l-3.3-.3c-.2-.1-.4-.4-.6-.6l-.7-.9zm302.6 4.7zm-107.4 6.4l-1.7-1.6h5.1q3.8.8 7.5 1.8c.5.9 1 1.8 1.6 2.7a99.3 99.3 0 0 0-12.5-2.9zm68.4 1h.8l-.4.7a1.6 1.6 0 0 1-.4-.7zm-156.1 2.6h-.3l-.5-.6zm-119.8-.9l8.4.2c3.9 5 8 9.8 12 14.7l-2.3 1-2 .6-17.2-16.3v-.2zm27.5 1.2l1.6.2c.5 1 1.1 2 1.7 3zm-60.7 22.5c-.9-.5-1.9-.9-2.8-1.5l2.6-1.7c.1 1.1.1 2.2.2 3.2zm-103.7.4l-.4-.9 3.1-1.1 6.5 1.4zm-155.8-2.1l4 3.6-4.2-3.7zm270.6 3.2l5 4-3.2 1.3-1.3-.6c-.2-1.6-.3-3.2-.5-4.7zm70.6-2.5c.3-.9.5-1.9.8-2.8l3.1 1.1c.3 1.9.6 3.7 1 5.5l-.7.5zm141.5-.8l-.3-.5c1.6-.4 1.9-.3.3.5zm-58.8-3.2l-4.3-6.5 6.8-1 1.9 1.5a19.5 19.5 0 0 1-.2 2.3 5.6 5.6 0 0 0-3.8 3.8zm63-5.8l2.5 3.8-9.1 1c-3-5.1-6.1-10.2-9.2-15.3l4.2-1.1 1.5 1.5c3.2 3.4 6.6 6.8 10.1 10.1zm120.9-6.6l-2-1.5c1.7-1.2 3.4-2.3 5.1-3.7s2.1-4.1 1.1-6.2l1.9 2.8 3.6 5.7zm153.6-4.9l-5.3.2 3.9-1.8zm24-4.1l-.9 1.4-1.6.3-1.2-1.4 2.4-2.1a5.9 5.9 0 0 0 1.3 1.8zm-9.8-6.4a11.4 11.4 0 0 1-1.1-1.1l2.5-.6c-.5.5-.9 1.1-1.4 1.7zM888 327.9l-4.6.5a37.9 37.9 0 0 0 3.8-2.1zm-47.2 3l2 2.5a6.1 6.1 0 0 0 2.4 6.2l-3.4 1-4.4-7a5.7 5.7 0 0 0-1.7-6.8c.1-.1.3 0 .4 0l3.9-.6a4.7 4.7 0 0 0 .8 4.7zm-66.7-7.1l.6.8h-.4l-.6-1.1zm8.8-12.8l6 10.9a.5.5 0 0 1-.4.2l-2.7-2.1c-2.6-3.7-5.4-7.3-8-11zm186.5-2.7l-.3 1a52.1 52.1 0 0 0-5.6 0l4.1-2.3zM741 309c-2.2-1.7-4.3-3.4-6.6-4.9 2.6-.2 5.1-.4 7.5-.8a48.5 48.5 0 0 0-.9 5.7zm-186.6-4.5c-1.6-1.8-2.5-3.2-2.7-4.3zm233.5-8.6l-.3-.6 3.1-2.3a12.6 12.6 0 0 1 4.6 7.2c-2.4-1.5-4.9-2.9-7.4-4.3zm135.6 2.9h-.3l-1.8-2.2.2-.3a23.5 23.5 0 0 0 1.9 2.5zm-153.4-45.1h-.2c0-.2 0-.3-.1-.4zm176.8-3.3h-.8a32.1 32.1 0 0 0-3.2-2.7zm-26.5-6.4l.3.4c-.2.6-.3 1.3-.5 1.9a6.9 6.9 0 0 0 0 3.2 6.8 6.8 0 0 0-1.2 1.2l-2-.2-5.4-4.6 1.3-.9 1.2-.4a5.8 5.8 0 0 0 4-3.9zm-146.7 2.9c-3.5-4.2-7.2-8.4-10.8-12.5l4.3-.4c2.1 4.4 4.4 8.6 6.5 12.9zm-37.5-11.3l9.6-.3c1.1 2.6 2.2 5.2 3.4 7.8-2.6 3-9.9 1.8-19.1-1.3 2.1-2 4.2-4 6.1-6.2zm-17.8 1.7l-3.7-1.6h6.1a12 12 0 0 1-2.4 1.6zm-66.5-3.6l5.7 6.7a6.1 6.1 0 0 0-1.6 2.8c-2.3-3.3-4.7-6.4-7.1-9.6zm-19.7 1.6l-3.2-2.7h1.2zm269.4-15.9a.9.9 0 0 1-.1.5l-.6-1zm-17.6-3l-2.5-1.3 2.1-.5c.1.6.3 1.2.4 1.8zm-99.6-5a57.6 57.6 0 0 0 3.4 7.2l-5.9.6-10.3-13.5 4.5-2.4c2.8 2.7 5.4 5.5 8.3 8.1zm-92.7 2.5h1c-.6 1.7-1.2 3.3-1.7 4.9h-.4c.4-1.6.7-3.3 1.1-4.9zm-13.9 3.8l-4-.6-.9-1.4a27.1 27.1 0 0 1 5.3-.8c-.1.9-.3 1.8-.4 2.8zm31.2-3.6c1.6.1 3.2.4 4.7.6l-6.9 3.8c.8-1.5 1.5-3 2.2-4.4zm53.9-19.4zm84-3a5 5 0 0 0 2.7 0 5.1 5.1 0 0 0 .9 2.7l-9.9-.7-9.5-5.3-.6-1.3c5.4 1.7 10.8 3.3 16.4 4.6zm-192.5-2l-.8.3a4.4 4.4 0 0 0-2.3-1.6l-1.6-1.8.5-.2zm-94-3.9h-1l.9-.2c.1.1.1.1.1.2zm217.6-4.2l-2.8 2.2-2.1-.7-2.1-1.7 3.7-2.4a41.9 41.9 0 0 0 3.3 2.6zm-205.1 2.5l-1-1 9.5-2.3 10.3-.5.5.6zM425.8 175l2.4-.6.7 1zm65.5 1.5l-2.2-2.3.5.3 1.8 2zm254.8-2l-.7-.4h.3a70.6 70.6 0 0 0 13 0c-1.1 1.1-2.3 2.1-3.5 3.4zm-275.2 5.6l1.2.5.5.4-3.2.9a4.9 4.9 0 0 0-1.3-3.8zm-107.7 9.7c-4-2-8-3.9-12.1-5.7a69.3 69.3 0 0 1 7.3-2.7l5.5.3a5.9 5.9 0 0 0 1.5 4.4l4.3 4zm390 7.9a5.1 5.1 0 0 0 .1 3 5.1 5.1 0 0 0-3.8-1.3l-9.6-6.8c3.2 1.1 7.5 2.7 13.3 5.1zm-519.9-2.2l-1.3-1.7 5.3 2.7zm484.5-.5l.9-1.8 3.4 4.5zm-109.1 7l.2.3-2.7.6zm52.6-2.1l4.3-1.2c2.5 1.8 5.2 3.5 7.9 5.2-2.7.4-5.5.8-8.1 1.4zm-291.1 5.7l1.2.6-2.8.2zm127.9 3a5.4 5.4 0 0 0 3.3-1l2.2 2.4-5.7.9a15.5 15.5 0 0 1-.4-2.1zm-265.6 3.5h1.5a5 5 0 0 0 1.3-.4l.6.2a4.9 4.9 0 0 0 6.5-2.8h.4a5.3 5.3 0 0 0 2.1 2.1l3.9 2.1c-4.2.2-8.6.2-13 .1zm219 2.7l6.8-1.3 1.8-.4.8.9a84.2 84.2 0 0 0-9.1 1.1zm138.6 4.3l-.6-.7 2.8-.6 1.3 1.4zm24.9 1l-6.8-6.1 7.6-1.9 5.7 8.3zm114.2.5h-.8l1.5-.8c0 .3-.1.6-.1.9zm130.8 4.6c-4.2-3.2-6.8-5.5-7.9-7l5.8-1.2a22.6 22.6 0 0 0 2.6 1.6l5.2 7.4zm49.2 3.9h.5l.4.5zm-68.7 2.6l1.1 1.3h-1.5a5.1 5.1 0 0 0-2.1.3l-2.3-2.7a1.9 1.9 0 0 0 .1-.8c1.6.7 3.2 1.3 4.7 1.9zM572 230.5c7.2 7.4 14.3 15 21.3 22.5 0 2 .2 4.2.4 6.4-7-9.9-14.3-19.5-22-28.9zm159 25.9l5.2 1.9-2.8 1zm-187.4 7.4h-.9c-1.4-2.2-2.8-4.4-4.1-6.6-17.8-29.5-6.2-10.2 5 6.6zm232-1.9l1.5 2.4-2.3-.4a7 7 0 0 0 .8-2zm-499.2-21.4c4.1-.9 8.1-2 12.2-3.1l3.2 2.8a102.3 102.3 0 0 0-12.9 3.4c-.8-1-1.7-2-2.5-3.1zm206 2.1l4.3-.2 3 3.3a13.4 13.4 0 0 1 .1 2l-.9.5zm-140.7 18.1l-.8-.6h5.9a1.3 1.3 0 0 0-.1.6zm102-4.5l3.4-1.4c3.2 1.8 6.5 3.6 9.9 5.2a3.7 3.7 0 0 0 1.4.4l.9 1.7-6.3 2.6zm388.2 8.2l3.4 2.6h-.4zm193.1-6.5a4.5 4.5 0 0 0 .3-1.1l.9.4c-3.4 9.7-8.9 26.2-15 37.6-3-3.8-1.8-9.1 2.6-17.6a13.2 13.2 0 0 0 2-1.2 5.6 5.6 0 0 0 2.5-6.9zm-632.5 30.5l-1.9.8 1.9-.7zm38.8-2l2.4 2.5-7.9-.4zm139.4-6.1a17.4 17.4 0 0 0-1.1-1.8h2l2.2 2.2c1.8 3.2 3.6 6.4 5.5 9.6-2.8-3.3-5.8-6.6-8.6-10zm151.8 4.1l-4.8 1.5-5.5-8.1c3.5 2.1 6.9 4.4 10.3 6.6zm125.4-6.9h.4l1.7 1.6zm101.1 5.1l-1.4-.6.7-1.3c3 1.2 6.3-.9 7.5-3.8l1.2-.4a6.9 6.9 0 0 0-.3 7.8c-2.9-.8-5.4-1.3-7.7-1.7zm-306.6-5.7h-.1l-.2-.3zm-172.8 2.7l-6.8-6 2.6-1.1zm142.8 5l15.6 3.1c.6 1.3 1.4 2.6 2.1 3.9l-9.1.3zm226.4.8l8.3 6.4-1.7.9c-3-1.1-5.1-3.6-6.6-7.3zm-88-11.3a7 7 0 0 0-7.3 1.6c-.6-1.2-1.1-2.5-1.7-3.6 7.6-1.1 13.4-2.4 14.8-4.3a68.7 68.7 0 0 1-5.8 6.3zm-139.5-2.5h-.1v-.2c0 .1.1.1.1.2zm-392.7 2.2l3.5-2a7.5 7.5 0 0 0 .7 1.2l.2.2c.3 1.2.7 2.4 1 3.6-1.8-1.1-3.5-2-5.4-3zm50.6-.4l1.5 1.2-.7.2a10 10 0 0 1-.8-1.4zm143.5 4.3c2.8-2.8 1.8-6.7-1.1-8.7l2.8-1.1c2.8 3.1 5.4 6.1 8.2 9.1l-7.5 2.9zm119.1 1.6h.2l2.1 2c0 .3-.1.6-.1.9zM296 287l-8.6 8a55.8 55.8 0 0 1-4.6-3.9l10.2-6zm-66.9 6.7a36.8 36.8 0 0 0-6.5-4.8c2.1 1.1 4.1 2.4 6.1 3.6a5.6 5.6 0 0 1 .4 1.2zm-31.3-.9c2.6-1.7 5.2-3.1 7.9-5a6.6 6.6 0 0 0 2-2.1 123.1 123.1 0 0 0 16.7 26.4c-8.6-6.7-17.4-13.2-26.6-19.3zm-25.7 18.1c.1.1.1.2.2.2-.1 0-.1-.1-.2-.2zm15.9-.6l1.5-1.7c2 2.3 4 4.6 6.1 6.8zm-27.2 8l1.7-1.1 2.2 2.3-.3.4zm12.9 11.2a5.3 5.3 0 0 0 .1-1.3l1.6 1.5h-.1l-.9.4zm6.9-10.4l.6-.6c6 3.4 11.7 7.3 17.4 11.3l-4.1 1.3c-4.6-4-9.3-7.9-13.9-12zm26.7-7.7c-23.8-23.4 12.3 9.8 33.1 28.7h-1.9c-10.6-9.3-21.1-18.7-31.2-28.7zM83 339.7l4.7 2.7-.4.5c-1.4-1.1-2.8-2.2-4.3-3.2zm122.5.8a18.5 18.5 0 0 0 1.4-1.4 5.7 5.7 0 0 0 1.2-2.1c2.2 1.7 4.3 3.5 6.4 5.3l-6.1.6c-1-.7-1.9-1.6-2.9-2.4zm206.6 7.2c2.5.5 5 1 7.3 1.7l.7.2 4.4 2.6-14.2 6.3-2.4-.6c-.6-4.4.5-8 4.2-10.2zm-34.6 3.6h.7c0 .1-.1.2-.2.3zm-216 2.3l2.7-1.6c3.2 1 6.5 1.8 9.8 2.7l-5.7 4.5zm170.2 6.1l9-2.8 3.2 2-4.9 1zm-149.1 10.9l-5-4 6.3-5.3 10.1 9.9-7.1 2.6a5 5 0 0 0-4.3-3.2zm432.5.4a50.5 50.5 0 0 0 1.8-5.5l7.8 2.5c1.4 1.8 2.6 3.7 4 5.5l-9.4 3.5zm40.7 4.4l.8-.3 4-1.5a21.9 21.9 0 0 1 4.6 1.3l-10.3 3.8a7.2 7.2 0 0 1 .9-3.3zm122.9-.4c-.6-1.8-1.3-3.5-2-5.3l2.6-4h.4l2.2 2.2c1.2 2.5 2.4 5 3.7 7.4 1.9 3.9 3.7 7.8 5.6 11.6-2.9-.1-6-.4-9.3-.8l-3.9-6.4a5.1 5.1 0 0 0 .7-4.7zm-331.3 6l9.5 2.6-2.3 1zm188 1.9c0 .1.1.2.2.3a36.6 36.6 0 0 0-5.3 1.7zm72.8 2.4l23 12.4 3.2 4c-2.4.4-4.7 1-7.1 1.5l-5.2-4c-4-4-8.2-7.7-12.4-11.3zM414 395.1l.2.2zm10.9-4h.1l4 5.3-.4.2zm60.2.5l5.7 1.7c-1.9 2-4 3.9-6 5.9.2-2.5.3-5.1.3-7.6zm101 7.5l-5.5-6.3a30.2 30.2 0 0 0 12.7.1 4.3 4.3 0 0 1-.1.5c0 1.9.1 3.8.2 5.7l-4.3 1.4zm-423 3.6l6.3-1.9h7l.4.2-13 7.4h-2.2a5.8 5.8 0 0 0 1.5-5.7zm180.7 7.7c-.9 1.2-1.9 2.3-2.9 3.5-5.5-3.1-3.3-4.4 1.8-5.1zM184 413.8c2.9-1.4 5.8-2.8 8.6-4.3h.1l.7.3-8.5 4.4zm-56.4 2c0 .1-.1.2-.1.3h-2.4zm178.9-.8l8.6-3.1 2.5 1.6-5.9 8.8zm139.7 4.5l3.8 4.8-4.5 1.9-5.7-3.7c2.1-1 4.3-1.9 6.4-3zM109 428.6l2.3-.5a2.3 2.3 0 0 0-.7.7zm38.2 3.4l18.2-9.1 2.9.8-16.8 9.5zm53.2.9l5.1-1.8-7.6 5.3c-1.4-.2-.9-1.2 2.5-3.5zm199.2 4l1.4 1.8-3-1.4zm-280.5 6l3.2-2a6.3 6.3 0 0 0 2.5-3.2c15.8-.4 16.3 2.5 1.4 8.6zm37.3 17.3l6.2-1.4c7.6-1.8 4.2-12.7-3.2-11.5-10.8 1.8-18.2 3.3-22.9 4.4 2.3-.9 5.1-1.9 8.4-3.4a4.7 4.7 0 0 0 3.7.1c8.1-2.9 16.1-6.1 24-9.4-.2 3.2 1.8 6.5 5.7 6.1l8.7-.9-23.1 16.7zm-102 4.4a5.2 5.2 0 0 0 .7 2.1l-5.3 2.6c1.5-1.6 3-3.2 4.6-4.7zm352.2-6.3a59.3 59.3 0 0 1 10.7 9.2l-5 4.8a23.4 23.4 0 0 1-6.6 1.3l-4.4-3.5c.1-2.8 2.2-7.1 5.3-11.8zM44.9 482.4c.1 0 .1 0 .1.1a.5.5 0 0 1 .4.2zm.8.4h1l2.1.5a3 3 0 0 0 .2 1zm77.8 12.8c3.8-3.3 1.1-9.1-3.1-10.1 2.2-2.4 4.4-4.8 6.5-7.3a5.7 5.7 0 0 0 .4-7.6c7 .6 14.1 1 21.1 1a4.7 4.7 0 0 1-.9.6 5.9 5.9 0 0 0-2.8 4.3c-7.3.9-14.5 1.7-16.6 2.1-5.9 1.2-5.3 10.3-.2 11.5a6.3 6.3 0 0 0 1 2l1.9 2.1a6.6 6.6 0 0 0 1.1 3.9l-14.2 4.8a6 6 0 0 0-4.2 6.5l-2.8.5a5.3 5.3 0 0 0-2.5 1.2l-6.5 1.8c7.8-5.3 10.8-8.1 21.8-17.3zm390.1 5.9l3.3 3.8-.4.3-29.7 7.6c9.1-3.7 18-7.6 26.8-11.7zm-312 20.1l1.1.6-2.9.2zm319.6-5l1.7 1.4-16.6 12.8c-3.4-2.7-6.8-5.1-10.3-7.6zm-395.9 8.9l9.2-2.3-2 2-7.1.8a.9.9 0 0 0-.1-.5zm76.3 7.9c3.4.2 6.9.3 10.4.2 0 .1.1.2.1.3-3.4-.1-6.7 0-10.1 0zm107.5-3.5l4-1c2.7 2.2 5.4 4.4 8.2 6.5zm-150.7 5.8l-.8.8-1.6.2zm182-2.3l.6-.3a92.6 92.6 0 0 0 12.9.3l1.9 1.8-3 1.7-4.8 1.4zm176.1 6.1l18.4-12 2.4 1.9c-3.4 4-6.7 8.1-9.9 12.4l-7 1.6c-1.3-1.3-2.5-2.7-3.9-3.9zm119.5 6a18.3 18.3 0 0 0-1.3-1.6 26.5 26.5 0 0 0-2-4.7l25.7-5.3-5.6 5.1q-4.6-.6-9.3 5.7l-4.2 1.9zM168.5 548h8.7l-4 .4zm493.1-.3c3.3-1.7 6.4-3.8 9.7-5.6 4 5 8 9.8 11.7 14.6l-10.4 4.7q-8.6-4.5-17.4-8.4l2-1.8zm-398 4.3h-.5c-.1-.1-.1-.1-.1-.2h.3zm-231.4-.4a5.5 5.5 0 0 0 1.8 1.6l.8 1.3a3 3 0 0 1-2.6-2.9zm366.5 6.8l-2.1-1.9a266.6 266.6 0 0 1 41.5 4.2l-11.3 1.8a147.5 147.5 0 0 0-28.1-4.1zm-296.3 4.2l4.9-1.1a4.8 4.8 0 0 0 2.7 1.9 6.2 6.2 0 0 0 .2 2.7c-5.4 3-9.8 5.3-13.2 7 2.2-4.4 4.2-8.1 5.4-10.5zm30.6 12.5l-.4-.4h-.6a27.8 27.8 0 0 1-6.9-6.9c0-.1-.1-.2-.1-.4l7.7 2.9a49.8 49.8 0 0 0 1.6 5.5zm-11.2 6.1h-.3a6 6 0 0 0-3.4-3.9l.7-.6 4.3 4.8zm708.8 1.6c.9-1.3 1.9-2.5 2.8-3.7l2 2.1c-1.5.5-3.1 1-4.5 1.6zm119.4 2.5l.5-.7 4.5-3 1.7.8a5.9 5.9 0 0 0 3.3 1.7l1.5.9-10.7.4zm43.6.4l11.2-2.7a88.4 88.4 0 0 0-9.5 5.7 3.1 3.1 0 0 1-1.7-3zm-465.8 1.8l.3.2 1.2 1.3zM179 590.2h-1.1l.8-.7zm-111.9-.4a8 8 0 0 0 2.3 1l-6.5 4.7c1.4-2 2.8-3.8 4.2-5.7zm313.7 9.7c-1.8-2.7-3.5-5.5-5.3-8.3h5.1c.8 3 1.5 6.1 2.3 9zm10.2-6.9c2.3 1.9 4.4 4.1 6.6 6.1 0 1 .1 2 .2 3h-.5c-1.7-3.7-3.8-7-6.3-9.1zm525 7.9a6.4 6.4 0 0 0 3 1.1l6.1.5-2.9 3-3.7-1.3zm-192.6 4.4l1.8 1.1-5.9-1.4zm-605 2.7l14.5-2.3.9-.4 2.4-.2-2.9 1.4c-.2 0-.4-.1-.6 0l-14.4 1.6zm58.7.7a5.4 5.4 0 0 0-.7-1.3l9.4 1.6c.8 1.8 1.5 3.6 2.3 5.3zm260.2 5.6q-4.9-1.6-9.9-3l-.2-.2 8.4-.7 1.6 1.5a5.7 5.7 0 0 0 1.2 2.3h-1.1zm-218.5 2.8l.9.6a11.4 11.4 0 0 0 1.1 1.1l-4.4 1.2c.7-1 1.6-1.9 2.4-2.9zM250 615c-.1-.1-.1-.3-.2-.4l11.3 2.3-4.3 4.2-3.5-1.1zM44.2 630.5a109.7 109.7 0 0 1 4.2-10.2c.2 0 .3.3.5.3l2.8.4a4.6 4.6 0 0 0 .4 2.1 9.4 9.4 0 0 0-.9 1.2c-3.4.5-5.3 3.8-5.1 6.9zm410.3.9l.3.2h.1zm93.3-1.3l3.4-2.2 1.3 1.4-2.3 2.4zm436.4-6.1a4.2 4.2 0 0 0 2.8 1.7 62.5 62.5 0 0 0 6.4 1 137.3 137.3 0 0 0-15.2 5.4 48.6 48.6 0 0 1 6-8.1zm-554 11.1l1.5-.4 5.3 1.3 1.5 1.3-4.2.4zm255.3.6l3 3.5-2.2-.3a11 11 0 0 1-2.8-3zm-456.2 3.7l-3.9-.6.7-.6a80.9 80.9 0 0 0 9.9.1 24 24 0 0 0 1.1 2.3zm177.3 1.3l9-2.1.4.4.9.6-10.3 1.2zm-211.9 1.8l2.1-1.7a6 6 0 0 0 1.4 4.1h-.8a5.9 5.9 0 0 0-2.7-2.4zm319.5 6.9c3.1-1.5 6.1-3.1 9.1-4.7h6.8l4.4 4.4a.4.4 0 0 0-.1.3l-11.5 4.9h-.4zm400.9-2.2l1.3-1 2.4.3-2.8 1.5zm-291.8.8a18.3 18.3 0 0 0-5.7 3.2l.6-3.7zm251 3.7a3.6 3.6 0 0 0 .4.9h-1.6zm-666 3.2h1.1a.5.5 0 0 1 .2.4zm800.2 1a90.2 90.2 0 0 0 21-13.5l7.3-3.3a5.9 5.9 0 0 0 2.5-2.7h1.6c-4.2 7-21.5 13.9-28.2 18.2l-2.3 1.4a5.9 5.9 0 0 0-1.9-.1zm-38.5 2.9l-1.9 1.2a6.6 6.6 0 0 0-2.3 7.6l-7.8 2.6c-.3-.7-.7-1.1-1-1.8a80.7 80.7 0 0 1 11.6-10.2zm-690.8 1l.3.3-1.9.6zm379.4 1.8c.6 2.3 1.1 4.6 1.5 6.8l-1.1-1.8c-1.6-4.2-2-6.4-.4-5zm-352.5.6l3.1.4 5 4.6-4.5 1.2zm-17.6 8.7l2.2-1 2 1.7h-2.4zm528.5 1.4a5.3 5.3 0 0 0-.4-2.8h.7l4.2.6-3.9 2.6zm113.7-.2l14.7-7.7c-3.1 3.1-6 6.5-8.9 10l-4.4 1.2a5.2 5.2 0 0 0-1.4-3.5zM170.3 680l1.2-2.9 1.8.3c.2.9.3 1.7.5 2.6h-3.5zm663.6 1.3l3-.7-2.4 1.9a6.7 6.7 0 0 0-.6-1.2zM327 860.2l-.2-.3.8-.3zm6.8-8.2c-1.2 1.6-2.3 3.3-3.5 4.8l2.4-5.9a3.8 3.8 0 0 0 1.1 1.1zm-96.4-18.6c.9 4.6 3 8.7 5.7 14.2a2.9 2.9 0 0 0 .7.8l-3 1.1c-2-6-3.6-12.1-5-18.2a4.9 4.9 0 0 0 1.6 2.1zm166.9 16.5l-3.4-2.2a6.5 6.5 0 0 0 4.9-3.9l1.4-.3c-.9 2.1-1.9 4.2-2.9 6.4zm-100-37.8zm301 42.3l6.4 5.8c-5.6-2.8-11.5-5.7-17.3-8.9a50.4 50.4 0 0 0 10.9 3.1zm4.5-22.5l-.6 1.3c-1.5-1.7-2.9-3.4-4.5-5.1h.3l1.1-.4a6 6 0 0 0 3.7 4.2zm-60.6-13.7l2.5 1.6-.3.5-3.9-2.5zm-61.9 23.9l-.2.2-.5-.3zm-3.8-1.7l-4.1-2.6a4.4 4.4 0 0 0 .5-1.5 9.7 9.7 0 0 1 .3-1.8 18 18 0 0 0 3.3 5.9zm-9.8-26.2a4.9 4.9 0 0 0 2.2 3.1 26 26 0 0 0-6.1 9.1l-2.8-1.9a8 8 0 0 0-1.3-2.1 23 23 0 0 0 2.6.3c5.3.5 7.3-6.1 4.5-9.7h.7c.1.3.1.8.2 1.2zm1.3-59.4a127.5 127.5 0 0 0-12-11.3c2.5.5 4.9 1.1 7.3 1.8l3.5 2.9c3 3.5 6 6.9 9.1 10.1-2.6-1.3-5.3-2.4-7.9-3.5zm-32.8 7.6l-5.1-1.4c-1-1.6-2.2-3.1-3.3-4.6 2.7 2.1 5.6 4 8.4 6zm-15.5-14.8l2.2 2.1v.6zm-222 3.9c.2 0 .4.1.6 0h.3l-1.3 1.1a4.9 4.9 0 0 0 .4-1.1zm56 1c0-.1.1-.1.1-.2l.3.4zm-125.9.6h.5l-.5.3zm92.3 1.9l-2.2 1-.3-1.6 1.3-.7c.4.4.7 1 1.2 1.3zm-40.9 0c.1-.2.1-.4.2-.6l2-.4c-.9 3.3-1.4 6-1.1 7.3-.4-2.1-.7-4.2-1.1-6.3zm23.5 7.2l.3 1.5-1.4.6c-5.9 2.2-4.2.8 1.1-2.1zm395.3 6.7a13.8 13.8 0 0 0 2 .3v.3zm-29.4 37.8a7.2 7.2 0 0 0 2-.9 51.9 51.9 0 0 1 1.4 5.2c-1.2-1.4-2.3-3-3.4-4.3zm28.3.5h-2.4l.6-2.7zm-157.5-2l-3.8-1.6-6.4-4 5.3 2.2zm168-4.3c-1.7-2.7-3.5-5.4-5.3-8.1l4.1 2.6c.6 1.7 1.2 3.4 1.9 5zm68.4-5.2c-.1-.5-.3-1-.4-1.5a16.2 16.2 0 0 0 1-1.8zm-211.3-11a57.5 57.5 0 0 0-2.3 9.3c-2.6-1.7-5.2-3.2-7.8-4.7 4.1.2 6.6-4.4 5.7-7.9zm-292-3.2c.1.4.4.5.5.8l-.8.2.3-1.1zm363-8l.9 1.1-4.5-2a2.7 2.7 0 0 1-.7-.8zm110.7-5.3l.3 1.3.3 2.3c-1.9-2.9-3.8-5.9-5.9-8.8a7.7 7.7 0 0 0-1.1-5.7 6.1 6.1 0 0 0 2.9-3.4c1.5 5.3 2.8 10.3 3.5 14.3zm-124.6-13.5l-5.8-2.7a6.6 6.6 0 0 0 1.9-1.8zm133.6-2.4c-.4-2.6-.7-5.1-1.1-7.6h1c0 2.5 0 5 .1 7.6zm-99.3-6.7h-1a11.8 11.8 0 0 1-1.1-1.9l5.5-.7a6.5 6.5 0 0 0-3.4 2.6zm83.6-2.7l.3.8-.5-.9c.1 0 .2 0 .2.1zm-510.3-2.7l-2.7.9-.3-3.5a5.8 5.8 0 0 0 3 2.6zm247.6-2.6l-3 .3a2.9 2.9 0 0 1-.2-.9zm388.1 16.7a7.2 7.2 0 0 1-5.7 3.5 6.1 6.1 0 0 0 .5-1.8 5 5 0 0 0 4-.9l1.4-1zM480 732.2l-.3-.2 3-.2.7.8zm74.8 1.2l1.4.3-1.3.2c0-.2-.1-.3-.1-.5zm119.5 2l.3-3.8 4-2.3a11.8 11.8 0 0 1-3.9 6.4zm95.9-8.4a2.5 2.5 0 0 0 .2.7c-2.3 1.9-3.7 3.4-3.3 4a12.1 12.1 0 0 0-4.2-3.9h.4a6.6 6.6 0 0 0 5.4-1.5zm-513.6-5.3l-.3.6a6.3 6.3 0 0 0-4.3.2l-1.7-.7 3.7-.8zm-123.9-2.9c.2.3.3.7.5 1a9.6 9.6 0 0 0-.9 3.7c-.2-1.7-.3-3.5-.4-5.2zm402.4-2l-7.9-1.7 4.7-1.6zm81.7-4.9c-1.1-.2-1.1-.3-.1-.5a.9.9 0 0 1 .1.5zm-401.6-1.4c-.1-1.1-.2-2.3-.2-3.5l3.8.3-.3 2.4zm350.8-1.3c-1.4-2-2.9-3.8-4.2-5.7l1-.2a49.4 49.4 0 0 0 3.2 5.9zm117.4-6.7c0-.1-.1-.1-.2-.1h.2zm-549.5-5.1a27.7 27.7 0 0 0 1 2.6c-1.2 2.8-2.4 5.7-3.7 8.5-.2-3.9-.7-7.8-1.1-11.7zm-62.3-.2zm-.7.2l-5.9 1.4c.2-1.1.4-2.3.7-3.4a6.5 6.5 0 0 0 5.2 2zM527.6 687l1.4-.6h.2a4.3 4.3 0 0 1 .4.7l-1.7.2zm-38.2 2.2l-.5.2h-1.5zm448.7 6l1.3-.6c-2 3.1-4.1 6.1-6.2 9.1 1.7-2.8 3.3-5.6 4.9-8.5zm-29.9 54.1h.2l-.9 1.4zm-34.6 28.6l.6.5c-.4 3.2-.7 6.4-1.3 9.7l-.3 1.5v.2c.2-3.9.5-7.8 1-11.9zm13.6 10.5a5.5 5.5 0 0 0 1.8-1.6c-.8 2.1-1.6 4.1-2.4 6.3s-1.5 3.3-2.2 5c1-3.2 1.9-6.4 2.8-9.7z" fill="#ffbfe7" data-name="Слой 2"></path></g></svg>