<svg xmlns="http://www.w3.org/2000/svg" width="1080" height="685.2" viewBox="0.000003814697265625 -0.0019776523113250732 1079.999755859375 685.2019653320312" style=""><g><g fill="#c6d367" fill-rule="evenodd" data-name="Слой 2"><path d="M161.9 665.3c-5.1.9-10.4 1.5-15.4 2.8-14 3.6-28 7.6-42 11.2a28.2 28.2 0 0 1-12 .4 25.8 25.8 0 0 1 4.2-2.5c8.1-3.3 16.2-6.7 24.5-9.4 4.6-1.6 9.5-2 14.3-2.8 1.6-.3 3.4-.1 4.9-.7 7.4-2.8 14.6-6.3 22.2-8.7a101.6 101.6 0 0 1 19.7-4.2c4.2-.5 8.4-.1 11.9-3.4a9.7 9.7 0 0 1 4.5-2l76.4-18.5c18.2-4.5 36.3-9.1 54.5-13.8 2.8-.7 5.3-2.6 8-3.6 12.2-4 24.3-8 36.6-11.6 2.5-.8 5.7.4 9 .8 2.4-4.8 7.3-5.3 12.1-6.2 6.7-1.3 13.4-2.8 20-4.5 17.2-4.4 34.2-9.1 51.4-13.4 13-3.2 26.2-6 39.2-9a17.7 17.7 0 0 0-.4-2L456 574.3l-.6-.9 7.3-4.9c-14.8 3.1-27.3 5.6-39.8 8.4-28.2 6.3-56.3 13-84.4 19.3-7.6 1.7-15.4 2.7-23.2 4-.9.2-2 .1-2.9.3-22.4 6.1-45.9 7.4-67.8 16.6-10.3 4.4-22.1 5.3-33.3 8-15 3.5-30 7.1-44.9 11.1-3.7.9-6.9 3.6-10.3 5.4h.1c-18.9-.4-36.6 5.6-54.4 10.7a64.7 64.7 0 0 1-15.2 2.7c-6.9.5-13.7 4.1-20.3 7-10.8 4.8-21.3 10.3-32.1 15.1-3.9 1.7-7.1 1.1-9.5-3.6-3.7-7-7.3-7.6-14.6-4.1-3 1.4-5.8 5-10.1 1.2 3.6-11 15.1-13.7 22.8-20.6-.8-2.6-1.6-5-2.5-7.8 2.9-2.7 6-5.2 8.6-8s4-5.7 6.4-8.2a80 80 0 0 1 11.2-10.6c6.1-4.5 12.6-8.2 18.4-13.1-11.7.4-19.9 10-32.1 11.5 2.8-5.7 6.1-10 11.4-12.7 11.1-5.8 22.1-11.7 33.1-17.6a16.9 16.9 0 0 0 5.7-4.7c-5.9-1.6-10.6 1.5-15.6 3.3a92.1 92.1 0 0 1-15.7 4.8c35-22.4 71-42.6 110.6-55.9l-.6-2.6-11.7-3.2 10.4-4.4c-3.5-1.1-5.4-2.1-7.3-2.2-9.5-.6-19-1.1-28.6-1.3-2.5 0-5.8.3-7.4 1.8-4.8 4.2-10.3 3.5-15.8 4-10.1.7-20.1 1.9-30.9 3-.5-1.8-1.2-5-2.1-9 4.7-1.3 9.2-2.2 13.4-3.8 6.2-2.3 7.1-6 3.5-13.7l-6 5.3c-7.3-7.1-15-4.7-23.1-.4 3.4-3.7 7.8-6.9 9.9-11.2s.7-8 1-13.3l-14.4 3.3c-.4-4.9 2.6-5.5 5.4-5.4a19.1 19.1 0 0 0 13.6-4.6c1.2-1 1.8-2.6 2.9-4.3-18.6-15.7-38.5-6.5-58-3.1a13.6 13.6 0 0 1-.2-2c4.8-2.4 10.2-4.1 14.2-7.4s6.9-8.5 11.1-14.1c-3.3 0-5.9-.6-7.9.2-5.6 2.2-10.9 2.6-15.6-1.8s-10.5-.4-16.1-.4c1.5-10.1 11.7-7.7 16.7-13-.4-2.5-.9-5.3-1.6-8.7 3.9-2.6 7.5-5.5 11.5-7.7 9.7-5.4 18.9-11.1 26.2-20.1 3.5-4.2 9.8-6.4 15.2-8.8s14.1-5.5 21-8.4c8.7-3.7 17.4-6.9 25.7-12s20.7-8.2 31.3-11.6 23.4-6.9 35-10.4a37.7 37.7 0 0 0 5.8-2.7c-.8-1.2-1.2-2.2-1.5-2.2-13.8 1-26.1-6.7-40-6s-26.9-.6-40.2 2.8a78.6 78.6 0 0 1-23.5 2.2l9.4-4.9c-6-9.6-16.5-5.3-25.5-9.1.9-4.2 1.7-8.4 2.8-13.9-3.4-.6-6.8-1.4-10.1-1.9-1.6-.2-3.7.5-4.7-.3s-4.2-3.5-4.8-5.7 1.4-4.4 3-5.4c5.6-3.5 11.6-6.3 17.3-9.6 4.1-2.3 8.1-5.1 13.4-8.3-7.3-3.7-12.9-4.3-19-1.7s-15.2 5.8-22.4 8.6c-3.4-3.3-2.4-5.5.2-7.2s3.5-5.6 5-8.7c3.4-7.1 6.2-14.4 11.3-21 7.7-9.7 18.1-13 28.3-18.1 28.2-13.9 58.6-21.3 88.3-31 9.2-3 18.5-5.9 27.6-9.4-25.2 2.1-49.2 10.5-74.3 13.6 1.2-.5 2.2-1.4 3.4-1.6 16.6-3.6 28.5-15.2 42.2-23.9 7.7-4.8 16.4-8.3 25-11.4 17-6.1 34.3-11.4 51.4-17.3 3.4-1.2 8.1-1.5 8.4-7.5l-7.2-2.5c.8-1.1 1.1-2.2 1.9-2.5 3-1.5 6-2.3 9.2.2s6.5 3.2 10.7.1l-4.8-6.2 8-4.4c-2.3-1.5-3-2.3-3.7-2.3-2.5 0-5 .2-9.8.5 6.7-6.8 12.7-10.3 19.9-12.1-5.1-1.9-10.5-1.3-19.5.6a75.8 75.8 0 0 1-18.4 2c-4.9-.2-9 .4-12.6 3.9s-5.5 3.4-9.4.5c.9-2 1.4-4.6 2.9-5.7 13.3-9.6 23.8-23.5 40.9-27.3a4.3 4.3 0 0 0 1.8-.8c8.6-9 20.7-9.1 31.5-12.5a17.9 17.9 0 0 0 9.4-6.4c2.2-2.8 6.1-4.7 9.5-6.1 7.8-3.3 15.9-6 23.9-9 3.9-1.5 7.8-3.9 11.9-4.4 22-2.9 43-9.8 63.7-16.7 27.6-9 55.7-12.5 84-15.7C542.8 6.8 582 2.8 621.4.4c21.5-1.3 43.3.9 65 1.7 13.5.4 27 .8 40.4 1.7 24.9 1.9 49.8 3.9 74.7 6.3 5.1.5 10 2.7 15 4.2 1.3.4 2.5 1.3 3.7 1.3 16 .1 29.4 10.3 45.2 11.7 5.3.5 10.6 3.1 15.8 5.2 11.2 4.6 22.3 9.4 35.5 15l-9.8 2.4c2.2 6.2 5 11.1 11.2 12.7 13 3.5 26 6.8 39.1 10.1 1.9.5 3.9.6 5.7 1.3 6.1 2.3 12.1 4.7 18.1 7.2 2.9 1.2 5.7 2.7 10.9 5.1l-9.6 3.6 15 5.3c-.8 1.3-1.5 2.3-2.7 4l7.1 2.7c5.8 2.6 13 2.7 16 10.1.6 1.4 3.2 2 5 2.8l7.3 3.1c5.9 2.6 10.8 6 8.3 13.4l20.5 9.5a11.7 11.7 0 0 1-.5 2h-32.8c.9 2.7 1.8 5.3 3 8.6H1009a8.8 8.8 0 0 0-.2 1.7l7.8 2c1.3.3 3.3.4 3.6 1.2 3.5 8.9 11.9 8.6 19.1 10.6a7.3 7.3 0 0 1 4.4 4l-8-.7c7.1 5.8 16.7 1.5 24.7 7.5-2.8.6-4.8 1.5-6.9 1.5-7.8.1-15.7 0-23.6-.1-3.5-.1-7-1.2-9.6 2.9-.8 1.3-4.7 1-7.2.9s-7.5-.5-11.3-.8c-.1.7-.3 1.3-.4 2l9.7 3.3c-6.2 4.1-12.3 4.1-18.1 4.2-7.9.3-14.6 2.9-21.2 8.1 1.6 1.7 2.6 3.9 4.1 4.4 12.3 3.5 16.2 15.4 23.8 23.6a5.1 5.1 0 0 1 1.4 3.6c-2.2 11.3 6.6 17.1 12.3 24.3s8.3 19.3 5.3 28.1a8.4 8.4 0 0 0 1 6.9c1.6 2.3 4.5 3.7 6.9 5.4s4.8 4.7 2.9 8.3c-2.6 5.2-1.1 8.8 3.5 11.8 1 .7 2.3 1.6 2.7 2.8 1.9 6.1 6.8 8.4 12.2 10.3 1.7.6 3.1 2 4.3 4.3l-8.4-.5-13 13.5 14.3 8.7c-8.5 0-15.3 4.7-24 6.2l4.1 6.9c-4 1.5-9.9.7-10.7 7.1 3.3 5.5 6.9 11 10.1 16.7 4.8 8.5 10 16.9 13.8 25.9 2.4 5.8 4.3 12.7 3.7 18.8s1.8 10.4 7.1 13.3c1 .5 1.4 2.1 2 3.1-9.5 8.7-9.5 8.7-19.8 3.4-1.2 5.3.9 8.7 4.7 11.7s10.4 7 11.4 14.1c.2 1.3 2 2.5 3.2 3.6s3.4 1.9 3.6 3.1c2.3 11.3 13 13.8 20.3 20 2.1 1.7 3.6 4.2 5.4 6.4-5.5 7.3-11.9-1.3-17.5 3.1l4.2 6.6-23.1-7.6c3.6 8.8 12.9 7.4 18.4 13.5h-37.6c-.1.5-.3.9-.4 1.4l13.9 9.4c-7.9-.4-14.4-1.1-20.9-.9s-5.7 1.6-3.2 7.7c-7.1 3.8-13.5 9.6-22.5 8.1-6.7 5.7-16.1 4.4-23.4 8.6-1.4.8-3.6 1.3-4.1 2.5-3.5 8-11.1 8.7-17.9 10.2-39.6 8.9-79.7 13.6-120.1 15.8-34.8 1.8-69.6 3.2-104.3 6.4-40.3 3.7-80.5 8.3-120.5 14.2s-78.3 13.7-117.4 20.6c-6.5 1.2-13 1.8-19.4 2.6h.1c2.6-1.2 5.1-2.9 7.8-3.5 24.5-4.9 49-9.5 73.4-14.3 3.3-.7 6.4-2.1 9.6-3.2-.2-.8-.5-1.6-.7-2.4-11.4 2.4-22.7 5-34.1 7.1-14.8 2.8-29.7 5.1-44.4 8.1-10.6 2.1-21 5.1-31.4 7.9a63.3 63.3 0 0 1-15.2 2.1c-9.4.1-18.7 3-28 4.8l-26 5.1h.1c4.5-1.7 8.9-4.1 13.6-5.2 40.9-9.6 81.9-19 122.9-28.5a16.1 16.1 0 0 0 6-2.7c-19.2-.2-37.4 6-56.4 7.5 42.3-10.6 84.9-19.6 127.9-26.6a19.3 19.3 0 0 0-.1-2.4c-3.4-.2-6.8-.6-10.2-.5-8.5 0-17 .2-25.5.5-2.6.1-5.7-.1-7.5 1.3-9 6.5-19.7 4.2-29.4 6.6-.6.1-1.6.1-1.9-.3-6.8-8.1-12.9-1.3-19.2.9h.2c-5.5.8-11 1.7-16.6 2.4-13.6 1.9-27.2 3.8-40.8 5.5-1.1.2-2.3-.5-5.6-1.3l20.9-10.9c-2.6-2.4-5.6-2.1-8.6-1.5-19.6 4.1-39.3 7.8-58.8 12.5-10.8 2.6-21.2 6.7-31.7 10.1a16.3 16.3 0 0 1-4.9.9c-11.1.3-22 5-34.9.2l3.2 7c-10.4 2.9-20.8 6-31.2 8.7-3.3.8-6.7 4-10.3-.9-1.6-2.1-9.2 2-13 6.2a6.6 6.6 0 0 1-3.4 1.8c-8.4 1.7-15.8 5.4-23.4 9.5s-19.4 5.9-29.2 8.7c-11.6 3.4-23.1 7.1-34.8 10.3-4.6 1.3-9.3 1.7-14 2.6a14.2 14.2 0 0 1-.8-1.8l3.9-4.9c7.9.3 15-2 21.7-6 5.4-.5 10.9-.7 15.3-4.3-5.5.1-10.8.7-15.2 4.5zm385-108.6l-24.5.2c-5-.1-7.6 2.1-8.6 8.7l33-9 12.6-1.9a12.7 12.7 0 0 0-12.5 2zM293.3 90.6c-6.7.3-13.3.7-18 6.3 6.6-.5 13.2-.7 18-6.3zm1.9 36.6c0-.7-.1-1.5-.1-2.3-2.2.2-4.3.1-6.5.5-.4 0-.7 1.4-1.4 3zm-72.7 523.2l-.6-2.4-8.8 2.4c.3.8.5 1.6.7 2.3zm247-83.2l.5 1.7 10-2.7-.6-1.8zm-301.2-47.5c0 .3-.1.6-.1.9h9.4v-.9zM593 609.9l.6 1.5 5.4-2.2-.7-1.6zM450.3 602c.6.7 1 1.5 1.3 1.5a12 12 0 0 0 2.3-1.1c-.4-.4-.8-1.2-1.2-1.2a16.8 16.8 0 0 0-2.4.8z"></path><path d="M187.8 685.2c3.2-1.6 6.2-3.8 9.6-4.7 21.2-6 42.4-11.7 63.6-17.7 7.9-2.2 15.6-5.2 23.6-7a359 359 0 0 1 41.7-6.9 36.2 36.2 0 0 1-4.5 2c-24.2 7.1-48.4 14.3-72.8 21.1-20.1 5.6-40.1 12.4-61.3 13.1z"></path><path d="M200.1 636.3l-29.6 6.4a15.5 15.5 0 0 0-.4-2.1c9.1-2.8 17.7-7.3 30-4.3z"></path><path d="M296.6 647.3l-26.7 9c7.3-6.7 10.9-8 26.7-9z"></path><path d="M1032.4 196.9h-36.9v-1.1h36.9z"></path><path d="M375.3 649.5l-35.6 9.9h.1a109.8 109.8 0 0 1 35.6-9.9z"></path><path d="M455.7 610.7l17-3.9.6 2.3-17 4.3z"></path><path d="M339.7 659.4l-17.9 6.5c-.3-.9-.6-1.8-.8-2.6 6.1-2 12.2-4 18.8-3.8z"></path><path d="M464.2 637.7l-16.7 4.8c-.1-.8-.3-1.6-.5-2.5l17.2-2.2c.1 0 0-.1 0-.1z"></path><path d="M1039.9 154.2l6.4 1.5a12.1 12.1 0 0 1-.5 1.8l-6.3-2z"></path><path d="M320.9 637.2l-6.5 1.3-.3-1.6 6.5-1.1z"></path><path d="M1036.4 183.3l-4.3-.3a3.4 3.4 0 0 1 .1-1h4.5z"></path><path d="M999.2 207.8h3.6a2.2 2.2 0 0 1 .1.8l-3.6.2a3.1 3.1 0 0 1-.1-1z"></path><path d="M495.6 600.2l3.2 2.1-1.5 1.1-1.5-3.3z"></path></g></g></svg>