<svg xmlns="http://www.w3.org/2000/svg" width="1080" height="852.2" viewBox="0 0.04963278770446777 1080 852.150390625" style=""><g><g fill="#2abbb5" fill-rule="evenodd" data-name="Слой 2"><path d="M956.3 24.9c.4 3.1-3.8 1.5-4 4-4.2-2.1 1.7-8 4-4z"></path><path d="M969.6 23.6c-.3 1.9-4 .4-4 2.6-4.3-1.5 1.3-3.8 4-2.6z"></path><path d="M945.7 24.9h4c1 4.5-5.4 1.7-4 6.6-3.2-.3-.8-5.8 0-6.6z"></path><path d="M959 27.6c2.7 1.2 5.2 2.7 7.9 3.9-1.4 5.4-9.5 1.8-7.9-3.9z"></path><path d="M982.9 31.5c1.9 2.1 3.4 4.7 6.7 5.4.8 4.8-.9 7.1-2.7 9.3-1.6.4-.7-2.2-1.3-2.7s-3.2.7-4 0c-2.3-1.8-2.3-7-6.7-6.6.6-5.5 10.7-.4 6.7 2.6 2.1.4 2.3-1.2 4-1.3-.6-2.5-3.8-2.4-2.7-6.7z"></path><path d="M965.6 36.9c2.6-.6 2 6-1.3 4v-2.7c1.1.2 1.2-.5 1.3-1.3z"></path><path d="M823.3 72.8a3.7 3.7 0 0 1-4 2.6c-.6-2.8 1.9-2.5 4-2.6z"></path><path d="M924.4 119.3c2.1-.3 2.3 1.3 4 1.4.5 2.5-6.1 1.9-4-1.4z"></path><path d="M985.6 141.9c3.8-.2 7.2-.1 6.6 4-3.8.3-7.2.2-6.6-4z"></path><path d="M1052.1 148.6c-.5 3.7-4 7.8-6.7 5.3-.6-2.8 1.9-2.5 4-2.6-.5-2.3 1-2.6 2.7-2.7z"></path><path d="M1074.7 151.3c2.4-.2 2.8 1.6 5.3 1.3-.2 5.2-7.4 2.4-4 8-1.7-1.4-4.9-1.3-6.6-2.7.1-3.8 5.6-2.3 5.3-6.6z"></path><path d="M109.1 152.6c-1.7 2 .8 6.9-4 1.3.2-1.5 2.4-1.1 4-1.3z"></path><path d="M1040.1 153.9c3.3.6 6.1 4.6 4 6.7-1.6-2-3.9-3.3-4-6.7z"></path><path d="M1060 153.9a6.8 6.8 0 0 0-1.3 4h-2.6c.2-1.1-.6-1.2-1.4-1.3.4-2.4 2.3-3.1 5.3-2.7z"></path><path d="M86.5 172.5a3.7 3.7 0 0 1 2.6 4 3.7 3.7 0 0 1-2.6-4z"></path><path d="M70.5 176.5c.1-1.1 2.5-1.6 4-1.3-.9-.2 2.9 1.9 2.6 1.3 1.3 2.5-4 .9-6.6 0z"></path><path d="M85.1 175.2a6.2 6.2 0 0 0-1.3 4c-2.2.4-2.3-1.3-4-1.3.9-1.8 2.8-2.5 5.3-2.7z"></path><path d="M62.5 185.8c2.5-1.2 4.5 4 5.3 0 4.7 2.7-7.1 6.9-5.3 0z"></path><path d="M1008.2 192.5h5.3c.4 3.5-7.6 6-5.3 0z"></path><path d="M1006.8 200.5c4.1-5 4.5 4 0 0z"></path><path d="M911.1 256.3c-.4-2.3 7.4-2.3 5.3 1.4-2.8.5-3.5-1-5.3-1.4z"></path><path d="M37.2 274.9a3.6 3.6 0 0 1-4 2.7c-.6-2.8 1.9-2.5 4-2.7z"></path><path d="M2.7 277.6c1.2-3.6 4.9 1.1 5.3 2.7 4.3-.3 7.9-1.6 12 0-2.7 4.1-7.5 1.3-14.7 2.6-.6-1.2-1.2-2.3-2.6-2.6.8-1.2 1.6-2.4 0-2.7z"></path><path d="M21.3 293.6c2.4-.4 2.7 1.2 1.3 1.3.9 1.4 3.1 1.4 2.7 4-4.3-1.2-4.2 2-5.3 4-1.8-.5-2.1-2.4-4-2.7 1.9-2 5.9-2 5.3-6.6z"></path><path d="M16 308.2c0 4-2.8 5.2-4 8-4.1-1.3 1.5-3.6 1.3-5.3h-2.7c-1.5.2-.7 1.3 0 1.3-.8 4-2.8-1.3-5.3 0-.1-1.7-.2-4 1.4-4 3.5 0-.3-2.9-2.7-2.7.3-1.7 4-1.7 4 0 3.1-.2-2.2-2.9 1.3-5.3 1.8.4 1.1 3.3 1.3 5.3 3.7-.9 2.7 2.7 5.4 2.7z"></path><path d="M34.6 326.8c-3.1-1.9 2.6-4.2-2.7-4 2.2-4.6 6.9 1 9.3-4 4.1 3.8-3.3 7.3-6.6 8z"></path><path d="M78.5 330.8c-.4-2.3 7.4-2.4 5.3 1.3-2.8.6-3.5-.9-5.3-1.3z"></path><path d="M79.8 333.5c-.4 1.8-3.3 1.1-5.3 1.3.4-3.1 3.5-3.1 5.3-1.3z"></path><path d="M977.6 364.1c1.2 1 3 1.4 5.3 1.3-1.3 2.8-5.9 3.6-5.3-1.3z"></path><path d="M988.2 364.1c1.1.9 3.7 2 4 0 1.1-.3 1.3.5 1.3 1.3v2.7c-3.4.3-5.7-.5-5.3-4z"></path><path d="M978.9 374.7c2.2-.4 2.3 1.3 4 1.3.5 2.6-6.1 2-4-1.3z"></path><path d="M993.5 378.7c.2-.4 2.9-2.5 4-1.3s-5.4 3.9-4 1.3z"></path><path d="M1008.2 380h2.6v2.7h-2.6z"></path><path d="M998.9 390.7c-.4-2.2 7.1-1.9 4 1.3.5-.5-4-1.4-4-1.3z"></path><path d="M1009.5 390.7c-.5-2.6 6.1-2 4 1.3h-2.7c.3-1.1-.5-1.3-1.3-1.3z"></path><path d="M1004.2 415.9c-4 5-4.5-4 0 0z"></path><path d="M1006.8 426.6c6.1.9-1 8 0 0z"></path><path d="M1037.4 427.9c1.4 4-2.9 2.4-5.3 2.7.9-1.8 2.9-2.5 5.3-2.7z"></path><path d="M1048.1 427.9c4.1 1.8 3.8-.4 9.3 0 1.2 6.1-10.1 4.9-9.3 0z"></path><path d="M1058.7 430.6h4c1.8 2.6 1.3 7.6 2.7 10.6-3.6 2.8-3.3-3-8 0-.6-4.2 3.6-3.5 4-6.6s-1.2.1-2.7 0z"></path><path d="M989.6 450.5c-.4-2.1 7.1-1.8 3.9 1.3.6-.5-4-1.4-3.9-1.3z"></path><path d="M74.5 466.5a31.4 31.4 0 0 1-2.7-8c1.8 2.2 7.6.4 9.3 2.7-.6 1.5-2.8 1.5-4 2.6s0 3.7-2.6 2.7z"></path><path d="M917.7 465.1c-2 1.6-3.2 3.9-6.6 4 1.2-2.3 2.5-4.6 6.6-4z"></path><path d="M86.5 475.8c-2-.7-3.4-2-5.4-2.7.9-3.2 6.8-.7 5.4 2.7z"></path><path d="M899.1 471.8h2.7c.3 2.1-1.3 2.3-1.4 4h-2.6c-.4-2.2 1.2-2.3 1.3-4z"></path><path d="M85.1 478.4c2.8-.5 3.5 1 5.3 1.4.5 2.3-7.4 2.3-5.3-1.4z"></path><path d="M887.1 481.1c.1-1.3 1.7-1 2.7-1.3 1.6 1.7.5 2.1 0 4-1.4-.4-.9-2.7-2.7-2.7z"></path><path d="M900.4 485.1c-1 4.6-3.6 7.5-7.9 5.3.8-1.8 2.8-2.5 5.3-2.6-.5-2.3 1-2.6 2.6-2.7z"></path><path d="M887.1 489.1a3.6 3.6 0 0 1-4 2.6 3.7 3.7 0 0 1 4-2.6z"></path><path d="M61.2 493.1c2.9-.8 1.9 2.5 4 2.6-.6 3.3-6.1 1-4-2.6z"></path><path d="M988.2 533c-2.2 2.6.1 1.7 0 5.3-4 2.1-4-7.4 0-5.3z"></path><path d="M944.3 562.2h2.7c.6 2.9-1.9 2.6-4 2.7.3-1.1 1.3-1.3 1.3-2.7z"></path><path d="M31.9 571.5c3.9 1.5-1.7 4.4-4 4-2-4.7 4.5-.8 4-4z"></path><path d="M30.6 579.5c-.7 4.4 6.6 2.8 2.6 6.7-3.7.2-2.5-4.5-7.9-2.7-.4-3.5 2.7-3.4 5.3-4z"></path><path d="M927 600.8c4.1-1 1.7 4.6 6.7 2.7-.5 4.4-8.2 2.6-6.7-2.7z"></path><path d="M921.7 603.5c-3.2 4.3-6.3-3.7 0 0z"></path><path d="M937.7 604.8h4c-2 1.6-1.6 5.5-5.3 5.3 1-1.2 1.4-3 1.3-5.3z"></path><path d="M929.7 610.1c5.1-.8.4 7.2-4 5.3-1.9-5 6-.2 4-5.3z"></path><path d="M30.6 644.7h2.6v2.7h-2.6z"></path><path d="M937.7 671.3h2.6v2.7h-2.6z"></path><path d="M62.5 683.3c-3.1 4.3-5.4-4.7 0 0z"></path><path d="M66.5 701.9c3.4.2 5.2 1.9 5.3 5.3-4.2.6-5.2-1.9-8-2.6.4-1.5 2.7-1 2.7-2.7z"></path><path d="M66.5 711.2c-2.4-2.5-3.4 1.1-8 0-.8-3 9.2-4.8 8 0z"></path><path d="M973.6 736.5c1-1.2 1.4-3 1.3-5.3 4.6-.6 7.5.5 10.7 1.3s2.5-1.1 2.6-2.7c2.2-.4 2.3 1.3 4 1.4.1 2.4-6.7 4.6-6.6 2.6a9.5 9.5 0 0 0-2.7 4c-3.5 0-7.6.5-9.3-1.3z"></path><path d="M70.5 744.5c.2-3.4 4.5-.4 5.3 0-.9 3.9-2.8-1.3-5.3 0z"></path><path d="M929.7 829.6c.4-2.8 6.3-.3 5.3 2.6 3.7.2 2.7-2.2 5.3 0-3.5 4.3-8.5-1.1-10.6-2.6z"></path><path d="M915.1 829.6c2.4-.2 2.8 1.6 5.3 1.3-1.1 2-4.3 1.9-6.7 2.7a6.8 6.8 0 0 0 1.4-4z"></path><path d="M603.8 833.6h2.7v2.6h-2.7z"></path><path d="M937.7 834.9c-.2 1.5.3 2.4 1.3 2.7-1.3 4.4-2.6-1.5-4-1.4-4.4 3.3-2.7-3.4 2.7-1.3z"></path><path d="M945.7 834.9c2.4-1.3 4.4 4 5.3 0 5.8 4.4-6.7 5.7-5.3 0z"></path><path d="M961.6 834.9h2.7c.3 3.7-10-.4-2.7 0z"></path><path d="M884.5 837.6c-.5-2.6 6-2 4 1.3h-2.7c.3-1.1-.5-1.3-1.3-1.3z"></path><path d="M126.4 840.2c-.5-2.3 7.4-2.4 5.3 1.3-2.4.2-2.8-1.6-5.3-1.3z"></path><path d="M974.9 845.5h-2.6c.6-2.5-1.8-8 2.6-6.6 1 1.6-1.3 2.3-1.3 2.6-.3 3.6 4.6-2.5 2.7 2.7-.1.2-2.1.2-1.4 1.3z"></path><path d="M988.2 840.2c-.5-2.6 6.1-1.9 4 1.3h-2.6c.2-1.1-.6-1.2-1.4-1.3z"></path><path d="M968.3 841.5c.2 2.9-4.7.6-6.7 1.4 1.2-2.3 4.7-3.5 6.7-1.4z"></path><path d="M196.8 844.2c2.4 1.2 1.7 5.4 6.7 4-2 5.4-4.6 1.9-9.3 4 .9-1.1 2.1-3.7 0-4 .9-1.4 3-1.4 2.6-4z"></path><path d="M172.9 846.9c.6-3 7.1-1.1 8 0 .9 3.6-6.3-1-5.3 2.6-1.5-.3-.9-2.6-2.7-2.6z"></path><path d="M945.7 24.9c-2.5-.2-4.5-.9-5.4-2.7-1.4.4-.9 2.7-2.6 2.7-.4 3.4 5.3 2.5 5.3 2.7.3 1.8-4.5.5-4 2.6s3.4 2.9 6.7 2.7c-.2 1.9-.3 3.7 1.3 4-.4 1.8-3.3 1.1-5.3 1.3.4 3.1 1.3 5.7 4 6.7s.1-2.4-1.4-2.7c.9-4 2.9 1.3 5.4 0-1.4 4 2.9 2.3 5.3 2.7-1.4-1.3-.4-5-4-4 .5-2.3-1.1-2.5-2.7-2.7a3.8 3.8 0 0 1 4-2.7c-.4-1.8-3.3-1.1-5.3-1.3-.2-2.4 1.6-2.8 1.3-5.3 1.9-.7 3.3 5.2 4 1.3 1.5 0 .8 1.8 1.3 2.7s2.4 1.1 2.7 2.6c.1 3.4-1 1.7-2.7 1.4a6.4 6.4 0 0 1 1.4 4c1.2 1.4 2.4.4 6.6 1.3-.2 1.8 2.1 7.3 2.7 4 1.9.6-.1 1.1 0 2.6s2.3 3.4 2.6 6.7c-1.7 1.7-2.6 4-5.3 1.3-.4 3.5 2.8 3.5 5.3 4s3.1-10.9-1.3-9.3c1.1-5.6 6.2-7.1 12-8v4c3.2-2.2 8.1 2.7 13.3 2.7-.2 3.4-2 5.1-5.3 5.3 1.1 1.1.8 3.6 2.6 4-.3 2.3-2.3 3-5.3 2.6.1 7.6.8 6.3 2.7 12a5 5 0 0 1-6.7 0c1-3 1.2-6.8 2.7-9.3-.7-1.5-2.8-1.6-4-2.7s-1.7-3.5-2.7-3.9-2.8 2-4 0c-.4 2.6.3 4.1 2.7 3.9s2.1 2.4 4 2.7c-1.2 4.4.5 6.5-2.7 10.6-2.8-3.2-5.9 1.2-8-1.3.1-1.3 1.7-1 2.7-1.3-1.7-1.9-7.5-4.4-8 0 .6 2 1.7-.5 4 0-.6 1-1.2 2.6-2.6 2.6s-3.3-2.3-6.7 0c.1 0-2.2 2.6-1.3 2.7-2-.2-.5-4.1-2.7-4s-1.3 2.7 0 2.7c-.6 2.9-2.1-1.3-2.6-1.4s-5.2 3.2-6.7 1.4c-.1-.1.1-1.3 0-1.4-2-.3-2 1.3-2.7 1.4s-5-2.6-9.3-1.4c-.4-1.7-2.3-2-2.6-3.9-6.1-.6-15 1.7-17.3-2.7-1.8.5-2.1 2.3-4 2.7s-4.5-.3-5.3-1.4-1.4-.1-4 0-2.9-1.2-5.3-1.3-3.9 2.4-8 1.3c-.6-.1-1.6-1.3-1.4-1.3s-6.3 3.3-7.9 1.3-4.2-.1-6.7-2.6c.9.8-12.2-1.3-13.3 0s-.5-.3-2.6 0-6.7 3.3-8-1.4c-.8.8-1.7.8-2.7 1.4s-2.1.8-4 1.3-1.5 1.3-1.3 1.3-3-1.4-5.3-1.3-2.8 1.4-5.3 1.3c.2 0-.6-1.3-1.4-1.3s-3.7.3-4 0c-2.8-3.4-2.2 1.7-5.3-1.3-1.4-1.5-4.5 1.3-5.3 1.3s-2.4-1.5-4-1.3-3.2 2.1-5.3 2.6c-4.6 1.1-9.3-1.6-14.6-1.3-.9 0-4.9.7-5.4 1.3-2.7 3.3-2.5-1.6-7.9 0-2.6.8-1.4.6-4 0s-6.9.4-9.3 0-2.9-1.2-5.4-1.3-6.1 1.9-9.3 1.3-2.8-.9-5.3-2.6c-.2 3.7 5 3.1 1.3 6.6.2-.2 4.4-2.5 5.4-1.3s1.3-1.4 3.9 1.3 19.2.1 25.3 0c2.3 0 4.3-1.5 6.7-1.3s9 2.1 14.6 1.3c-.2 0 11.2-3.9 13.3-1.3s1.5.7 5.3 0c-.7 6.5 8.4 3.2 13.3 4 3.2.5-.7-6.1 4-4v4c6.8.2 12.9 2.3 21.3 0a5.8 5.8 0 0 0-1.3 4c4.3 1.2 1.8-4.4 4-5.4.3 1.5 3.1.5 3.9 1.4s1.2-.2 4 0 2.4 1.3 4 1.3 2.3-1 4-1.3c-.4 0 .5 1.5 1.3 1.3s.1-1.4 1.4-1.3 8 4.1 7.9-1.4c4.2-.6 3.6 3.6 6.7 4s6.3-.7 8-2.6c-2.7-.2.7-2.1 1.3-1.4s-.4 2.5 0 2.7c2 1 4.1-.3 5.3 1.3 6.8-1.9 11.1 1.6 13.3-4 1.6-.5.7 2.4 1.4 2.7 2.7 1.4 4.5-.8 6.6 1.3s10.7-1.7 10.7 1.4 3.5-3.2 6.6 0v9.3c1.5 1 3.2-2.2 4-1.4s.2.3 1.3 0 1.4 1.4 1.4 1.4c1.6-.3 1.6-2.3 2.6-2.7s2 2.1 5.3 0c-2.8 3.6-4.9 2.9-7.9 4s-3.4 4.7-5.4 6.7c-5.1 1.4-4.7-4.7-7.9-1.4-3.1 1.1-3.7 8.2-1.4 10.7.3 1.5 1.4.7 1.4 0 4.3.4-2.3 7-2.7 2.6-1.4.9-1.4 3.1-4 2.7s-.9 4.4-4 4c-2 1.5-1.6 5.5-5.3 5.3-.6 3.2 2.4 2.9 1.3 6.6 5.8.1 6.1-2 9.3 1.4-3.4 4.9-15.9 2.6-19.9 0a6.2 6.2 0 0 0 1.3-4c-1.2-2.3-4.6-3.5-6.6-1.3-.2 2.4 3.2.3 2.6 0 3.3 1.8.5 3.2 1.4 7.9-1.6 1.2-3.6 1.8-6.7 1.4-.7 5.1 7.7 1.1 8 5.3 3-3.1 2-1.1 8-1.3 3.4-.2 5.2-2.9 7.9 1.3 1.7 2 4.4-4.1 6.7-1.3s3.9-2.1 5.3 2.6c2.8-.8 3.8-3.3 8-2.6.9 1.3 3.1 1.3 2.7 3.9a3.4 3.4 0 0 0 3.9-2.6c1.4-.5 2.2 2.6 2.7 2.6s2.6-2.6 2.7-2.6c1.7.2 2 2.5 4 2.6s4.2-1.3 6.6-1.3 4.7 1.5 8 2.7c1.3-.1 1-1.7 1.3-2.7 2 .7 3.4 2 5.3 2.7-2.5 5.7-9.8-.7-13.3 2.6 0 4.1 6.7 1.3 6.7 5.4 1.2-1.5 4.9-.5 4-4 2.6 2.2 1.7-.2 5.3 0v4c5.2-.6 4.1-1 9.3-2.7.6 2.8-1.9 2.5-4 2.7-1.8 3 3.4 5 0 5.3s-2.6-2.8-4-4-4.4 4-5.3 0c-1.3 0-1 1.6-1.3 2.6h-6.7v-3.9c-1.5-.7-.7 2.4-1.3 2.6-5.4 2.1-11.5-2.2-14.6-4-2.4-.1-2.8 1.7-5.4 1.4l-3.9 3.9c-3 .2-1.6-3.1-1.4-2.6-.9-2.2-3.4-2.8-2.6-6.7-1.8.4-1.1 3.4-1.4 5.4-1.5-.3-2.3.2-2.6 1.3s-1.2-2.7-1.4-2.7-1.6 2.2-2.6 2.7-4.5-.8-5.3 0-.5-.1-2.7 0-3.6 1.6-8 0c-1.8.4-1.1 3.3-1.3 5.3-1.1-.8-4.5-.3-5.3-1.3s-1.4-1.2-5.3 0-5.1 2.5-8 2.6c1.5 2.5 1.5 6.4 6.6 5.4-.3 1.4-2.6.9-2.6 2.6-2.3.5-2.5-1-2.7-2.6-5.6 6.1 9.9 2.4 8 9.3 1.2.8 5.7-1.1 6.6 0s.6-.2 2.7 0 2.9.4 6.6 1.3 1.4.6 4 0c4.8-1 7.3 2.2 13.3 1.3.4 0 2.5.3 2.7 0 1.7-2 5.9.8 12 0 2.3-.3 2.8-1.3 5.3-1.3-.5 4.5 5.7 2.2 8 4a3.8 3.8 0 0 0 4-2.7c.9 2.7 7.9-.8 6.6 4a6.9 6.9 0 0 0 4-4c2.9-.2.6 4.7 1.3 6.7-4.7-2.8-2.4-.1-4 2.6-4-1.2-7.9-2.6-11.9-4s-5.3 2.3-8 2.7-5.6-1.6-8 0c-.4 2.2 1.3 2.3 1.3 4 6.3-2.2 9.5.6 17.3 0a6.2 6.2 0 0 0-1.3 4c4.2.6 3.7-3.4 5.3-5.3 1.2.6 2.4 1.1 2.7 2.6 4.2-4.2 11.2-3.9 17.3-2.6 4.3-2-2.3-8.6-2.7-2.7-3.9-2.3.2-7.6 4-6.6-1.9 12 9.7-1.9 2.7 5.3.6 5.5 12.7-.3 11.9 6.6-1.4-2-3.1-.4-6.6-1.3-.4-.1-2-1.2-1.4-1.3-2.2.3-3.3 4.6-6.6 1.3-3.1.3-.8 5.8 0 6.6 2.4.3 6.7-1.3 5.3 2.7-4.6-1.1-5.1 2-9.3 1.3.1 5.7 12.2-.6 10.6 6.7-5-2.7-16.5-1.9-15.9 5.3h2.6a1.4 1.4 0 0 0 0-2.7c1.4-5.2 5.9 5.9 5.4-1.3 3.6-1 2.6 2.7 5.3 2.7 4.7-.1 7.7-2.1 12-2.7.6 2.7-7.4 3.1-2.7 5.3 0 2.6-3.1.2-2.7 0s-1.7 2.7-1.3 2.7-2.6-5.4-5.3-2.7c-.3.3.3 2.6 0 2.7-1.9.7-2.8-2-4-1.3s-3.1 3-4 5.3 1.6-.8 2.7 0-.4 3.3 1.3 2.6c-1.3 5.4-6.9 3.5-9.3 0-1.6-1.1-3.3 6.3-1.3 4-1.7 1.9-1.4-1.3-4 0s.8 1.8-1.4 4-3.2-.9-5.3 1.4a3.7 3.7 0 0 0 4 2.6c-.7 4.6-9.8 2-9.3-2.6-4.1.9-4.9-1.4-8-1.4 1.4 2.7 5.9 2.1 5.3 6.7-1-.5-1.3-1.1-2.6-1.4s-2.4.4-2.7 0 .4-2.4 0-2.6-3.5 2.5-2.6-1.3c-6.1 1.6 2.3 3.8-1.4 6.6-2.2.5-2.5-1-2.6-2.7-3.2-.5-2.9 2.5-6.7 1.4-.4-3.5 1.9-4.4 5.3-4-1-3.1-8.2-1.3-6.6 2.6-4.1.2-7.4-.6-9.3-2.6-4 .9 1.2 2.8 0 5.3-3.5-.1-1.4-5.7-6.7-4 1.6-1.9 5.1-2 6.7-4-2.4-6.2-7 .9-12 0a6.6 6.6 0 0 0 4 4c-1 3-7.5.5-10.6 1.3-.3-.5 2-1.9 1.3-2.6s-2 .6-5.3 0c.7.1-1.5-1.4-1.4-1.3s-2.8-2-6.6-1.4c-1.5 5.5 8.1-.2 5.3 6.7-3.9-2.4-10.1 1.1-14.6 1.3a24.2 24.2 0 0 1 0-2.7c-3.6.1-7.9-.7-8 2.7.6 1.8 1.7-.2 4 0-.1 0 .4 1.3 1.3 1.3h4c1.8 5.8-3.2 4.8-4 8s2.3 3 5.3 2.7c-1.4 5.5-.8 6.4 5.4 6.6-.1 2.7-3.7 1.7-2.7 5.3 3.7-1.5 7-1.9 10.6 1.4 1.6 1.5 4 2.4 2.7 5.3-6 2-4.1-3.9-9.3-2.7-2.7-.4.3 3.9 1.3 4-.9 1.4-3 1.4-2.6 4-2.5-2.1.9-4.2-2.7-6.6-1.7.3-1.7 3.9 0 4-1 5.2-10.4 2-10.6 7.9-4.2.7-5.2-1.9-8-2.6-1.2.6-2.4 1.1-2.7 2.6s3.3 1.1 5.3 1.4.5 3.2 1.4 4 5.7-1.1 5.3 2.6a1.3 1.3 0 0 0 0-2.6c1.3-4.1 3.5 1.5 5.3 1.3s1.5-3.3 2.7-4 6.3 3.3 5.3-1.3c3.6 2.1 2 4.2 0 6.6h8c1-4.1-3.7-2.5-2.7-6.6a3.7 3.7 0 0 1 2.7 4c2.7-.6 3.5.9 5.3 1.3-.2 1.5-2.4 1.1-4 1.3.2 1.6 2.4 1.1 4 1.3.7 2 2 3.4 2.6 5.4 1.4-.9 1.4-3.1 4-2.7 1 4.9 2.7 10.5-1.3 13.3 2.6 5.3 6.2-.3 9.3 2.7-2.9 6.9 2.6 7.5 8 9.3-.4 3.3-7.4 5.9-1.3 8-2 2.5-7 5.9-10.7 2.6.3 3.8 6.3 1.7 5.3 6.7-5.7-1.6-5.4.1-10.6 1.3.6 3 6.6.5 9.3 1.3.6 1.2 1.2 2.4 2.7 2.7 1.1 3.7-1.9 3.4-1.4 6.6-4.2 1.2-4.1-2.1-6.6-2.6-3.7 1.3 1.9 3.5-1.3 5.3 3.9-1.2 4-1.2 7.9 0-.2 5.6-5.9 5.6-9.3 8-.2 1.1.6 1.2 1.4 1.3-2.8 4.3-3.4-4.5-6.7-4s-4.3 4.6-6.6 6.7c-5.4-2.1-8.3-.4-14.7 0a8.7 8.7 0 0 0-2.6 4c-1.2-.6-2.4-1.2-2.7-2.7-2.9 1.6-3.1 3.7-6.6 1.3.1.1-2.2-1.4-1.4-1.3-1-.1-1.3 1.7-2.6 1.3-2.9-.7-3.8-1.8-5.4-2.6-2.1 3.2-7.2 3.4-9.3 6.6 3.9 4.8 7.4 3.1 14.7 2.7v4c2.9-.8 6.7-3.2 11.9-2.7 2.1.2 2.3 1.1 4 1.3s6.6-1.4 8 1.4a12.5 12.5 0 0 1 10.7 0c.9 3.6-2.7 2.6-2.7 5.3-2.3 0-3.5-1-4-2.7s-3.6-.8-4-2.6c-7.6 4.8-16.6 4.4-25.3 2.6v2.7c-.6 2.2 7.3 2.2 6.7 0 8.3 6.6 18.3 3.5 31.9 4 0 1.3 1.6 1 2.7 1.3 1.3 1.8 1.2 5 4 5.3s1.1-2.4 1.3-4c1.5.3 2.4-.3 2.7-1.3 13 .2 17.2 1.2 29.2 1.3-2.6 2.8-2.6 1.3 0 4 3.1.4 1.5-3.8 4-4a27.5 27.5 0 0 0 12 1.4c1.4 3.4 4.8 4.9 5.3 9.3 5.6-1.3 5.9-.9 13.3-1.3.2 2.3-1.6 2.8-1.3 5.3s1.3 1.3 1.3 2.6c2.9.6 7.3-4 4-5.3 2.1-2.5 4.6 1.4 5.3-4 4.5 3.7 7.7.5 12 4 1.7 3.3-3 6.5 0 6.7-1.6 4-5.1-1-6.7-1.4-1.1 4.3 2.1 4.2 4 5.4-.2 2.4-4.5.8-5.3 2.6.3 3.8.2 7.3-4 6.7a34 34 0 0 1 4-10.7c-3.7-.4-2.7 4.4-8 4v2.7c-4-.9 1.3-2.9 0-5.3-2.4-.2-2.8 1.6-5.3 1.3s-2.7 1.6-4 2.6-1.5 3-4 2.7c1.5-1.6 1.2-2.7-1.3-2.7.1-3.4 4.9-2.1 6.6-3.9s-3.2-4.8-5.3-2.7c-.3.3.4 2.5 0 2.7s-3.2.7-5.3 1.3c.4 3.1 4.6 2.5 4 6.6-2.4 0-2.8-1.3-5.3-1.3s-5.1 4.4-10.7 2.7c-.8-.3-1.2-1.3-1.3-1.4-3-.6-3.7.4-5.3-1.3s-5.3 1.3-6.7 1.3c-3.9 0-11-3.5-11.9 2.7 1.1 3.9 4.2-.8 6.6 0-.5 2.4 1.1 2.3 2.7 2.7s1.5 1.3 1.3 1.3 5.2-3.1 6.6-1.3c.2.1-.1 1.2 0 1.3s2.4-.4 2.7 0 1.3 0 4 0 7.1 2.7 10.6 1.3c-1.1 2.4-5.9 2.2-2.6 5.3 2.9.3 4.2-1.1 4-4 1.7.5 2.1 2.4 4 2.7s.8-4.5 2.6-5.3c3 1.6 5.9 3.8 8 0 2.7.4 2.6 3.6 5.3 4-.4 2.3-4.6-1.8-4 4 .6 1.9 1.7-.6 4 0-.4 2.3 1.3 2.7 1.3 1.3 4.5 1.3-1.4 2.6-1.3 4 1.7 2.5 2.8-3.2 6.7 0 .1-2.4-1.7-2.8-1.4-5.3s3.7-.8 4-2.7c1.8.4 1.1 3.3 1.4 5.3 3.7-2.8.9-3.8 2.6-8 5.8-1.8 4.8 3.2 8 4 .4 1.6-2.2.7-2.7 1.4s.4 2.4 0 2.6-2.9-2-4 0c.5 3.9 4.4.7 8 2.7.9.4 1.9 3.7 2.7 4s1.8-1.2 2.6-1.4c3.7-.4 3.4 2.1 8 0 .6-.2-.1-1.2 1.4-1.3s2.5-.6 2.6-2.6c1.9.1 3.8.2 4-1.4 5.5 1.6-1 4.6-1.3 8-1.2.8-5.8-1.1-6.7 0-2.5 3.1-5.1-2.9-9.3 1.3-2.6 2.6-.3-1.1-4-1.3-1.5-.1-2.4-2.7-5.3-4s-5.4 1.7-6.6 4c-3.7-.1-2.4-1.7-6.7 0-1.3.5-2.7.8-6.6 1.3s-3.5 2.3-8 1.4c-1.1-.3-1.3-1.3-2.7-1.4-4-.1-7.7 3.5-10.6 0-1.8.4-2.1 2.5-4 2.7s-4-3.3-4 1.3c-2.3-1.2-7.1.1-6.7-4-1 .7-4.4-.9-5.3 0s-.2-.3-5.3 0c-3 .3-6.1 2.3-10.6 1.4-1.7 1.9 2.5 2.9 2.6 2.6-1 3.5-10.3-.8-5.3 4-.5 2.4-4.5-.1-6.6 0s-3.9 1.9-6.7 1.3-2.5 2.9-2.7 5.4c-4.9-2.7-6.8 3.5-10.6-1.4-2 .7-3.3 2-5.3 2.7-.6 3.2 2.4 2.9 1.3 6.6-1.8-2.1-6.3-1.6-5.3-6.6-5.5.1-10.9.3-14.6-1.3 2.1 7.8 14.4-2.1 13.3 7.9-1-.9-6.5-3.3-5.4 1.4s2.3-1.8 5.4 0-3.6 6.8 2.6 6.6c-.2 1.1-1.3 1.3-1.3 2.7h-4c1.8-1.7 2.6-7-2.7-5.3-.5-2.6-2.8-3.4-2.6-6.7-1.1.9-3.7 2.1-4 0-3.6 2.9-3.3 1.5-8 2.7.1-1.9.2-3.8-1.3-4-4.2-.4 3.4 3.8-1.4 4a9.9 9.9 0 0 0 4 2.6 6.8 6.8 0 0 0-1.3 4c4.2 1 5.7-7.4 9.3-2.6 0 6-6.6-2.6-6.6 5.3-1.8-.5-2.1-2.4-4-2.7s-1.3 1.4-2.7 1.4c-2.5 2.6 2.6 4.5 2.7 5.3s-5 2.9-1.4 5.3c-.5 1.9-1.1-.1-2.6 0a6.2 6.2 0 0 1-4 1.3c-3.3 1.6-5.2 4.6-6.7 8-4.2-.8-1.8 4.8-5.3 1.3-.4 1.8.6 2.1 1.4 2.7s4.7.7 6.6 2.7 8.4-.5 12 0c1.1 1.9 2 4.2 5.3 3.9s4.4-1.8 4-5.3a23.7 23.7 0 0 0 8 4c1.6.6 6.2 3 8 0 2 1.2-.4 2 1.3 5.3 1.5-.2 1.1-2.4 1.3-4 1.1.7 4.4-.8 5.3 0s.6.3 2.7 0a12.2 12.2 0 0 1 2.7 0c1.4 1.8 1.1-.6 3.9 0 .3.1 1.3 2.7 1.4 2.7s5-2.6 9.3-1.3v2.6c1.3 0 1-1.6 1.3-2.6 2.4 1 .2 2.4 0 4s2.4 1.1 4 1.3 1-1.6 1.3-2.7c2.8.6 3.6-.9 5.4-1.3 2.7 1.9 6 .4 11.9 1.3 2.1.3 5 3 6.7 0 1.3.8.6 2.1 1.3 4s1.9 3.5 2.7 5.3c1-.9 4.2-5.6 4 0 3.9-1.1-1.8-3.3 0-6.6s7.5-1.9 6.6 2.7c-1.9-1.5-3.2-1.5-4 1.3s4.5 2.6 8 2.6c0 1.3-1.6 1.1-2.7 1.4.1 2.6 3.7 1.7 2.7 5.3-4.1 1-3.9-2.3-8-1.3-1.3 4 3 2.3 5.3 2.6-.4 1-3.8 4.3-6.6 2.7-.9-.5.6-2.9-1.3-2.7s-1.2 2.4-1.4 4c-4.3 1.2-1.8-4.4-5.3-4s-.6 3.6-1.3 5.3-3.7 1.4-2.7 4c-3-3-4.3 2.5-9.3 1.4.3 1 1.3 1.3 1.3 2.6 2.3.5 2.5-1 2.7-2.6 2.5-.5 1.6 3.1 2.7 4s3-.5 3.9 0 2.2 4.7 5.4 5.3c-.4 1.8-3.4 1.1-5.4 1.3s-1.9 4.3-2.6 6.7c-5.2-3.1-3.6 3-9.3 2.6 2.2-2.6-.1-1.7 0-5.3-3 1-4 4-5.3 6.7-6.5.1-13.9 1.9-10.7 7.9-1.3 0-1-1.6-1.3-2.6s-3.1.4-4 1.3-.3-.9-2.7-1.3c-1.4 1.2-.9 2.9 0 5.3 3.2 0 3.9-2.3 8-1.3.6 1.1 1.2 2.3 2.7 2.6-.5 4.4-4 5.8-6.7 8 3.8 2.1-3 7.1 1.4 9.3-.3 5.1-6.9 3.3-10.7 4-1.2.2-1 1.5-1.3 2.7-2-.7-3.4-2-5.3-2.7s-1.4 1.3-2.7 1.3c-.3 4.7 6.2 2.7 5.3 8-4-1.7-11.8.3-13.3-4-1.2.6-2.4 1.2-2.6 2.7s-2.7.9-2.7 2.6c.8 3.3 8.6-.6 8 4 1.5-.2 1.1-2.4 1.3-4 6.3.3-2.4 7.2 4 6.7-1.9 3.5-7.3-.6-6.6-4-1.8 1.4-5 1.3-6.7 2.7 2 3.1 3.3 2 6.7 1.3-.9 1.3-3.1 1.4-2.7 4s1.3 1.3 1.3 2.6c5-1.2 7-5.4 12-6.6 2 3.7-.5 5.4 1.3 10.6-1 .2-1.3 1.5-2.6 1.4s-2-1.2-1.4-1.4c-3 .7-2.6 4.1-7.9 2.7-.7 4.1 2.8 4.2 6.6 4-.6 4.2 4.1 3 2.7 8a6.4 6.4 0 0 1 4-1.4c.7-1.4-2.6-.8-2.7-1.3s5.9-4.3 1.3-6.7c-1.9.6.5 1.8 0 4-4.1.7-4.2-2.8-4-6.6 4.1-1 4.9 1.4 8 1.3-.2 3.3-2.5 4.2 1.3 5.3-.6 2-1.9 3.4-2.6 5.4 2.9.2 4.2-1.1 4-4 4.9 3.7-3.6 5.2-4 7.9s8.9-.9 14.6 0c-3.1 7.5 2.1-.8 2.7 5.4-1.3-.2-2.7.1-4 0s-3.4-2.6-5.3-2.7-5.5 5.2-9.3 1.3c-3.2.4 1.5 3.6 1.3 5.4 4.9-4 7.2 3.6 14.6 1.3 0 2.6-3.6 1.7-2.6 5.3-2.5.1-8-.9-8 2.7s-1-2.1-4-1.4c-1.2.3-2.3.9-4 1.4s-3.3.7-5.3 1.3-.8.6-5.3 0c-1.9-.2-7.8-1.4-6.7 2.7-.8-1.9-5.1-.2-5.3-2.7-2.2 1.8-8.5-.5-8 4-4.4-.1-6.6-2.3-12-1.3.3 2 5 6.3 6.7 2.6 3.1-.4 1.5 3.9 4 4s7.3-2.1 4-2.6c.5-3.4 5.1-.1 4 2.6 5.3.9 7.5-1.3 11.9-1.3-1.4 4.9 2.8 4.3 4 6.6 4-.8-1.3-2.8 0-5.3 5.3-1.7 2.7 4.4 8 2.7-.3 1-1.3 1.3-1.3 2.6 2.4-3.4 7.1.9 7.9-1.3a3.6 3.6 0 0 1 2.7 4c3.1-.4 3.1-3.6 0-4 0-1.3 1.6-1 2.7-1.3h2.6c.4 2.1-1.2 2.3-1.3 4-.6 4.1 2.7.8 5.3 1.3.2 0 .2 1.3 1.3 1.3a6.6 6.6 0 0 1 1.4 0c.5.2 3.2 1.3 2.6 1.4s2.9-2.7 2.7-2.7c1.7.3 1.6 2.1 2.7 2.7 2.8 1.4 6.6.2 9.3 2.6-1.4 1.8-3.6 2.6-4 5.3-1.8-1.7-4-.8-5.3 1.4-3-1.6-8.6-.3-9.4-4-2.2-.2-4.5 8.2-5.3 1.3-1.4.3-.9 2.6-2.6 2.7.3 1.4 2.6.9 2.6 2.6 5.7-2.1 13.5 4 21.3 4-3.8 6.1-9.5-2.2-13.3 1.3.3 3.2 3-2.1 5.3 1.4.2 3.1-5.4.5 0 2.6.3.1 1.9 1.4 1.4 1.4 1 0 2.1-1.5 3.9-1.4s2.3 1.2 4 1.4 2.3-1.2 4-1.4 2.3 1.1 4 1.4 4.6-.6 6.7 1.3 2.7 1.1 2.6-1.3c1.4-.2 1.9 3.9 2.7 4-1.7-.2 10.6-5.9 10.6-1.4 0 1.5 4.8-.8 8 1.4s4.3 1.1 6.7 2.6c.4.3 3.6.9 3.9 1.3s-.1 1.3 0 1.4c2.4 1.1 8.1-.1 6.7 4-3.5-.1-7.8.7-8-2.7-1.3.9-1.4 3.1-4 2.7-.1 2.3 1.7 2.8 1.4 5.3a3.2 3.2 0 0 0-5.4 2.6c-2.7-.7-2.8-2-1.3-3.9-3.3 2.4-10.5 1-9.3 7.9-4.2.7-5.9-1.1-5.3-5.3-1.6.2-2.4-.3-2.7-1.3s-1 1.6-1.3 2.6-1-1.6-1.3-2.6c-3 .5-1.8 7.8 2.6 5.3-1.3 4.7-9.2 4.4-5.3 10.6-.8.8-6.3 3.2-6.7 0-1.6 2.2-1.1 1.5-5.3 2.7-.6.2-3.1 2.2-6.6 1.3.5.1-1.4-5.1-5.3-2.6 0 2.6 3.6 1.7 2.6 5.3 4.7 1.2 3.3.2 8 1.3 1.6-.2 1.1-2.4 1.3-4 4.4-.3 6.4 1.6 6.7 5.4-3.4 2.5-7.2-3-6.7 3.9-2.1.4-2.3-1.2-4-1.3-.5 5.6 4.4 1 6.7 1.3a3.6 3.6 0 0 0 2.6 4c3.9-1.1-1.7-3.3 0-6.6 2.3 0 4.3-.2 5.4-1.3l1.3-2.7c2.5-.4-5 6.4 4 4 .4 2.7-.3 4.1-2.7 4 .4 1.4 2.7.9 2.7 2.6 1.5-.2.7-1.3 0-1.3.3-3.7 7.5-.5 6.6-5.3a9.5 9.5 0 0 1 2.7 4h6.6c-2.5 3-3 4 1.4 5.3-1.2 2.3-4.2 2.9-8 2.7-5 1.6-2.5 6.7-4 9.3-.1-.6-2.5-.9-2.7-1.4s1.3-2.9 1.4-2.6c-.7-1.5-2-.3-2.7-1.4s-.6-3.5-2.6-5.3c-1.3.8-5.8-1.1-6.7 0s-1 .9-2.7 1.4-1.5 1.3-1.3 1.3c-2.3.2-2.9-1.9-5.3-1.3s-.3 2.1-1.3 2.6-4.7-4-4 1.3c-1.2-1-3-1.4-5.3-1.3s-.7 2.2-1.4 2.7-3.9.4-5.3 1.3.2 1.3-1.3 1.3-10.7 3.9-9.3 9.3c-1.6-1-2.3 1.4-2.7 1.4s-1.4-1.7-2.7-1.4-3.2 3.2-6.6 4c-3.7-1.6-10.5-.1-10.6-5.3-5.3.5-12.8-1.2-16 1.3a8.6 8.6 0 0 0 4 2.7c.4 1.9-4.9 1-6.7 0s-.4-4.2-1.3-1.3a3.8 3.8 0 0 1-2.7-4c-4.8.4-10.5.1-10.6 5.3-3.7-1.3 1.9-3.5-1.3-5.3-2.4-.2-2.8 1.7-5.4 1.3s-2-1.7-3.9-2.6c.2 1.1-.6 1.2-1.4 1.3.9 1.8 2.9 2.5 5.3 2.6-1.1 3-4.3.7-6.6 1.4s-3 3.5-5.3 2.6a9.7 9.7 0 0 0 5.3 2.7c2.9.3 3.4-1.2 5.3-1.3s5.3 3 6.7 1.3c.1-.1 1.9-2.3 2.6-1.3 2.8 3.3 2.3-1.7 5.3 1.3 1.3 1.3 4.3-1.5 6.7-1.3s4.8.7 5.3 1.3c2.1 2.5.5-1.2 5.3 0 1.2.3 3.7 2.1 5.4-1.3 7.7 1.1 15 2.7 22.6 4v2.6c2.2.5 2.5-1 2.6-2.6 2.8.7 2.9 2 1.4 3.9.7 3.7 5.1 3.8 7.9 5.4.2 2.1-.6 5 1.4 5.3-.6 2.1-1.3-.4-2.7 0l-2.6 1.3c-.2.3.2 2.6 0 2.7-2.6.8-5.4-2-8 0-1.2 6.9 10.5 1 8 9.3-1.7 2.1-2.2-.2-4 0s-2.4 1.2-4 1.3-2.3-1.3-4-1.3-1.6 1.1-2.7 1.3c-6.7 1.5-14.2 0-21.3 1.3 1.5 3.7 2.6 9.2-3.9 8-1 4.1 4.5 1.6 2.6 6.7 6-1.2 9.7-1.2 13.3 0s-3.8 4.4-2.6 5.3c3.5 2.9-2.5.9-2.7 4s-1.6.1-2.7 0-2.1 1.7-4 1.3c.2.1-.7-1.2-1.3-1.3-3.6-.9-8.6-1.6-9.3-6.7 2-1.5 3.4-1.5 5.3 0-.2-4.1-5-1.8-8-2.6s-3.1-1.2-5.3-2.7c-1.4 5 3.3 3.8 2.7 8-1.6-.2-2.4.3-2.7 1.3-2.2.5-2.5-1-2.6-2.6-5.2-1.2-2.2 5.8-8 4-1.7-7.9 8-4.5 9.3-9.4-.5-1.8-2.4-.1-2.7 1.4-5.2-.8-6.9 1.9-9.3 4-4.3-2.2-8.2-.5-11.9 1.3 1.2 1.5 2.4.4 6.6 1.3-1.8 3.1-9.3.5-13.3 1.4 2.9-3.1 1.2-3.6 2.7-6.7-4.3-1.2-1.9 4.4-5.4 4-3.5 1.6-3.4-6.4-3.9 0-4.7.2-8.6-.4-10.7-2.7-2.8 2.5-9.7.9-14.6 1.4v-2.7c-1.8.4-1.1 3.3-1.4 5.3-2.6-.9-3.5-3.5-3.9-6.6-2.6-1.7-2.2 2.5-2.7 2.6-2.1.5-2.3-1.3-4-1.3s-1.9 2.1-4 0a17.8 17.8 0 0 0-4 0c-.6.2-1.5 1.4-1.3 1.3-2.4.2-6.6-3.7-8 1.4-2.7-1.7-6.7-2.2-6.6-6.7-3 2.8-8.3 3.2-9.3 8-4.7-.3-5.1-4.7-9.4-5.3-2.2-.5-2.5 1-2.6 2.6-1.6-.2-2.4.3-2.7 1.4s-1-1.7-1.3-2.7c-2 2.6-2.8.1-5.3 0s-1.4-1.2-2.7-1.3-6.6 3.8-8-1.4c-1.6-.4-.6 2.3-1.3 2.7s-6.8-1.5-6.6 2.7c-1.6.5-.7-2.3-1.4-2.7s-2.2 1.3-2.6 1.3-1.6-1.3-1.4-1.3-6.1 3.9-5.3-1.3c-4.1-1-2.5 3.6-6.6 2.6 0-3.9-10.7-3.9-10.7 0-1.7-1.8-5.8-1.3-9.3-1.3.1-1.9.2-3.8-1.3-4s-1.1 3.3-1.3 5.3c-1.2-.6-2.4-1.1-2.7-2.6-2.4 3.2-7.2 1.9-14.6 1.3-.4 0-2.5.3-2.7 0-1.9-2.3-1.1.1-5.3 0-2.2 0-2.3-1-4-1.3s-2 1.3-2.7 1.3-2.5-2.8-5.3 0-2.3-2-5.3-2.7-4 2.3-5.3 2.7-3.7-.2-5.3 0-2.9 1.2-5.4 1.3-7.9-3.8-10.6 0a9.8 9.8 0 0 1-2.7-4c-.7-.3-3.4 3.4-4 2.7-1.9-2.4-2.2 2.8-7.9 0-5.3.5-4.1 1-9.4 2.7.1-2.3-.9-3.5-2.6-4s-4.2 2.7-5.3 1.3-1.7-.6-4 0-2.5-.2-2.7 1.3-1.9-2.3-2.6-2.6-.9 1.2-1.4 1.3-3-1.1-4-1.3-1.3-.6-4 0-8.2.2-10.6-1.4c-1.8 5.4 2.9 4.3 2.7 8-4.2.6-3.8-3.3-5.3-5.3-4.1 0-5.2 2.8-8 4s-3.5-2.7-4-2.7-3.4 2.4-5.3 2.7c-4.2.7-6.7-2.2-12-1.3v2.6c-2.7-1.9 2.1-5.3-5.3-4-1.6.5-3.4 2.4-1.4 2.7-1.1 3.8-3.7-1-5.3-1.3s-5.7 1.7-8 0-.6 2.1-1.3 2.6-4.5-.3-5.3 1.4c-4.4-2.3-12.9-.4-13.3-6.7-1.7.6-2.1 2.2-4 2.7-3.6.9-7.7-2.9-8 1.3-1.5-.2-1.1-2.4-1.3-4-3.2 1.3-5.9 7.1-9.3 4v5.3c-2.8-.4-2.7-3.5-4-5.3-2.3 1.2-7.2 0-6.7 4-5.7-2.1-2.6-4.8 0-8a9.2 9.2 0 0 0-6.6 6.7c-2.7-.1-1.7-3.7-5.3-2.7-.5 2.3 1 2.5 2.6 2.7-2 4.8-6.9-.2-11.9 2.6-.4-2.1 1.2-2.3 1.3-4-.8.8-1.7.8-2.7 1.4s-2.2 1.3-1.3 1.3c-1.7 0-2.1-2.9-4-2.7s-5.6 3.6-10.6 2.7c0 1.3 1.6 1 2.6 1.3-.1 3-4.2 0-4 0-2.9.4-3.7 3.5-7.9 2.7-.4-2.2 1.2-2.3 1.3-4-6.1-.2-5.2-1.1-10.7 0 .2 1.8 2.5 7.3 0 4-.4-1.8-2.3-2.1-2.6-4-5.3.2-9.6-5.4-14.6-1.3.8 3.1 8.1-.2 9.3 2.6-1.2 2-1.1 5.2-5.4 4-.3-2.1 1.3-2.3 1.4-4-3.1-1.9-4.5 2.4-5.3 2.7s-4-1.9-6.7 0c.2-1.6 3.5-1.5 4-2.7s-1.4-5.4 4-4c-.6-1.2-1.2-2.4-2.7-2.6-4.8 0-2.8 6.9-9.3 5.3-1-1.6 2.1-3 1.3-4s-3 6.8-6.6 4c-.1 1.9-.2 3.8 1.3 4-1.1 2-3.3 2.8-6.6 2.6 0-1.3 1.6-1 2.6-1.3-3-5.1 2.5-5.2 4-9.3-2.1-.4-2.3 1.3-4 1.3-1.5 2-5.5 1.6-5.3 5.3-4.2 1.2-4.1-2-6.6-2.6-.2 2.4 1.6 2.8 1.3 5.3-4.5-.6-7-7.1-10.6-1.3-1.9-.4-1.2-3.3-1.4-5.3-1.7 1.3-4.9 1.3-6.6 2.6.3 2.4 2.3 3 5.3 2.7-1.3 1.8-3.6 2.6-4 5.3-1.6-.2-1.1-2.4-1.3-4-5.2 1.2-4.8-3.2-8-4-1.4 5 3.3 3.8 2.6 8-.9 1-7.9 3.5-6.6-1.3-2.5.5-2.4 3.8-6.6 2.6.1-2.5 4.3-.9 3.9-4-.5-1.1-1.1-2.3-2.6-2.6s-1.1 2.4-1.3 4c-2.3.5-2.6-1.1-2.7-2.7-1.1.4-1.3 1.2-2.7 1.3s-3.3-2.5-6.6 0c-.3.3-1.2 2.6-1.3 2.7s-2.3-1.8-4-1.3-3.7 2.1-6.7 2.6c-.2-1.2-.5-3.5-1.3-4s-1 1.3-1.4 1.4-3.1-2.3-3.9-1.4a6.5 6.5 0 0 0 0 1.4c-.7 0-1.9-1.2-1.4-1.4a6.6 6.6 0 0 0-4 4 3.7 3.7 0 0 1-2.6-4c-.8.4-5.1 3.3-5.3 0-1.6-.4-.7 2.3-1.4 2.7-2.3 1.3-4.7-4.2-4 2.7-3.9-1.2-4-1.2-7.9 0a6.8 6.8 0 0 0 1.3-4c-2.3-.5-2.5 1-2.7 2.6-4.6-1.7-5.2-3.4-11.9-1.3.2-4.3-4.8-3.2-6.7-5.3-4.4 2 4.5 1.5 2.7 5.3-1.2.6-2.4 1.2-2.7 2.7-4.2 1.1-4.1-2.1-6.6-2.7-3 1-5.2 2.8-9.4 2.7-2.6-2.8.6-2.6 1.4-5.4-3.2.9-6.2 1.8-6.7 5.4-.9-1.1-7.9-3.5-6.6 1.3-1.8-1.3-4-2.2-5.3-4-1-3.5 2.3-1.7 4-2.7s1.2-3.4 3.9-2.6c-.2 1.5.3 2.3 1.4 2.6s.5-1.2 1.3-1.3c-.3-3.8-3.5-2-6.6-1.3-1.2.2-3-.5-4 0s-1.3 3.2-4 2.6a3.8 3.8 0 0 0-2.7-4 3.7 3.7 0 0 1 4-2.6c-2.1-4.2-8 1.7-9.3-1.3-2 5 5.9.2 4 5.3-4.7.6-5.1 2.6-8 1.3-.3-.1 1.9-2.2 1.3-2.7s-2 .4-2.6 0 .5 1.7 0 4c-5.6.7-8.2-1.5-9.3-5.3-2.4-.4-7.2 4.3-6.7-1.3-1.4.5-5.8.8-6.6 2.6s.3 2.4 0 2.7c-2 1.4-5.8-1.2-5.4 2.7-1.6-.4-1.3-2.7 0-2.7-3.9-5.6-8.9-2.2-15.9-4 1.8 3.1 9.7 0 8 6.7-3.8-2-6.2-5.4-12-5.4.2-1.5 2.4-1.1 4-1.3.2-3.8-.4-6.7-2.7-8-2.2 1.4-1.4 5.7-2.6 8-3.4-.1-4.7-2.4-6.7-4-1.2-4.2 2.1-4.1 4-5.3-.1-1.1-3.7-2-5.3-1.3s-.4 4.1-2.7 2.6c1.9-6.3-9.9 1.1-8-5.3-2.5 2-8.8.1-10.6 2.7-3.2.5.7-6.1-4-4-3.3.1-.3 4.4 1.3 4-1.1 3.9-3.3-1.7-6.6 0a6.2 6.2 0 0 1-1.3-4c-5.6 2.3-7.4-5.9-10.7-1.3-2.3-.1-3.8-7.5-6.6-2.7a1.4 1.4 0 0 1 0-2.7c-.3-1.9-8.6.9-8-5.3 4.9-.9 5.7 2.3 10.6 1.3.1-1.9-2.7-.5-4-1.3s-2.1-6-5.3-6.6c2.1-2.3 6-2.9 10.7-2.7-.2-2.9-5.7-.6-8-1.3 1.3-4.9-6.5-.6-4-6.7 2.5.2 4.4.9 5.3 2.7a7.1 7.1 0 0 0 4-4c-.9-4-2.9 1.3-5.3 0-2.4-3.5.5-4-1.4-8h6.7c-1.6-1.9-5.3-1.8-5.3-5.3-6.3-1-9.2 1.5-14.7 1.3.6-3.2-2.4-2.9-1.3-6.6h5.3c-.3-1.7-3.3-1.5-4-2.7s2.1-4.4 0-6.6c2.5-.6 4.8.8 8 0 .4-.1 1.9-1.3 1.4-1.4 1.6.2 2.2 2.3 3.9 2.7s3.8 0 5.4 0 .5-2.5 1.3-2.7 1.7 1.9 2.7 1.4 2.9-2.4 3.9-5.4c-1.4-3-4 3.9-7.9 2.7-1.4-2.8 2.1-1.8 2.6-2.7s-2.7-4.1 4-2.6c-.4-1.8-3.3-1.1-5.3-1.3-1-2.4-2.4-.2-4 0 .7 3 5.1.6 0 2.6-.2.1-2 1.3-1.3 1.3-1.5 0-6.6-3.2-5.3 4h-8a3.7 3.7 0 0 1 2.6-4c.6-3.1-6 .8-4-3.9 2.4-1.3 7.2 0 6.7-4 5.6-.5 7.9 5.3 9.3-1.4a48.1 48.1 0 0 0 13.3 4c-.3-5.4-6.5-5-12-5.3 4.5-3.9-3.2-6.6 0-9.3-4.4 2.3-5.9-.7-11.9 0-.4-2.3-2.3-3-5.4-2.7 1.1-6.1 9.5-3.8 12-5.3a9.2 9.2 0 0 0-6.6-6.6c.2-3.4-2.1-4.2-4-5.4-.3-1.1.5-1.2 1.3-1.3-.5-2.5-5.2-1-4-5.3 3.1 1.1 3.4-2.6 5.3-4s2.3.4 2.7 0a22.9 22.9 0 0 1 2.7-2.7 2.7 2.7 0 0 0 1.3-2.6c5.5.3 5.2-1.8 9.3 0 .6-5-4-4.1-5.3-1.3-2.1-.6-1.2-4.2-5.3-2.7 1.3-3.6 5.3-4.4 7.9-6.7-1.4-6.7 4-6.7 5.4-10.6-7.1 1.6-10.1 1.6-12-6.6-1.3 0-1 1.6-1.3 2.6-4.2-1.5-3.6-.6-6.7 1.3 0 1.3 1.6 1.1 2.7 1.4-2.3 2.6-9.1-1.5-8-6.7 1.9-.1 3.7-.2 4 1.4 5.1-.8-1.7-5.2 5.3-4a49.3 49.3 0 0 0-4-4c-1.5-.4-2 2.5-2.7 2.6s-6.1-4.2-5.3 1.4c-1.9.1-3.7.2-4-1.4-2.1-.1-5 .7-5.3-1.3-3.8.2-5.5 2.4-9.3 2.7.6-1.2 1.2-2.4 2.7-2.7-.2-4.7-4.4 2.8-4-1.3-.3-6.2 6.2 2.1 5.3-5.3 1.2 1 3 1.4 5.3 1.3v5.3c1.3 0 1-1.6 1.3-2.7a4.8 4.8 0 0 0 6.7 0c2.3-2.2 5.2 1.9 8-2.6-1.2-2.7-5-1.1-6.7-1.3v-1.4c-1 .1-1.4 1.7-2.6 1.4s0-1.5-1.4-1.4-2.8 1.4-5.3 1.4c-2.2-2.3-5.4-3.5-5.3-8 2.4.1 2.8-1.7 5.3-1.4 2.2 2.1-1.7 6.1 4 6.7 2.8 0-1.2-3-1.3-2.7 1.2-2.6 1.6 1.1 2.6 1.4s.8-1.3 1.4-1.4 6 2 6.6-1.3-2.3 1.8-5.3 0c1.1-3.8-1.9-3.4-1.3-6.6-4.8 2.1-6.5-.3-10.7 1.3 1.8-2.7 5.9-3 9.3-4 4.2 3.7 6.6 1.3 12 2.7a8.6 8.6 0 0 0-4-2.7c.3-1.8 2.6-2.1 2.7-4s-4.5-1.6-2.7-5.3c-1.6 1.5-2.7 1.1-2.6-1.4-1.6.3-2.4-.2-2.7-1.3-2.7 0-1.7 3.6-5.3 2.7s-3.4-3.8-5.3-5.3c-2.6.5-2.5 3.8-6.7 2.6-3.1 3 1.7-2.9 4-2.6v-8c2-.8 2.5 1.8 4 1.3s2.4-5.3 2.6 0c4.3 1.2 4.2-2.1 6.7-2.7-.3-1.6-2.7-1.3-2.7 0-2.1 1-2.1-6.2 0-5.3.3-2-3-.4-4-1.3s1-6-2.6-5.3c.5-2.6 5.1-1.1 4-5.3h6.6c-.4-1.6-2.3-3.4-2.6-1.4-3.1-.9-4-4-5.4-6.6-2.6 0-1.7 3.6-5.3 2.6-1.6-1.7-.5-2.1 0-3.9-4.7 1.1-3.2.1-8 1.3-1.3-4 3-2.4 5.4-2.7-1.7-4.2-3.9-.2-6.7-4 .2-1.5-.3-2.3-1.3-2.6-.7-3 6.7-7.4 0-8 .3-2.4 2.3-3 5.3-2.7-1.1-1.9-3.3-2.8-6.7-2.6a9.7 9.7 0 0 1 8-5.4c-1.5 1.7-1.1 2.8 1.4 2.7s.4-2.5 1.3-6.6c0-1.3-1.6-1.1-2.7-1.4.9-1.8 2.9-2.4 5.4-2.6-.3-1.7-4-1.8-4 0-4.4-1.3 1.4-2.7 1.3-4 3.9 3.1 4.9-2.6 6.6 0 .4 4.3-5.1 2.8-5.3 6.6s3.9 1.5 4 4c1.2-1 3-1.4 5.3-1.3s.9 2.6 2.7 2.6c-1 2.4-2.4.2-4 0-.4 2.2 1.3 2.3 1.3 4 4.6-4.5 10.7 0 14.7-4-1.5-2.4-10.3 2.5-10.7-3.9 8.1 2.5 10.7-.7 24 0 1-1.2 3.6-.8 4-2.7-3.5-4.3-10.1 1.8-17.3 0-2.6-.6-1.4-.6-4 0s-4.2-.4-4-2.7c-2.9-.2-4.3 1.1-4 4h-6.7c-1.3-4.4 4.2-2 6.7-2.6-2.7-3.1-4-7.6-10.6-6.7-1.6-1.7-.6-2.1 0-4-4.1-1.3-2.4 3-2.7 5.4-1.2-.9-4.9-3.1-4 1.3-7.3-3.5 4.9-5.5 0-9.3.6-3.9 10.1 1.1 10.6-2.7 2.8.4 2.7 3.6 5.4 4 3.3-1.6-4.4-3.2 0-6.7.4-1.6-2.2-.6-2.7-1.3-1.6-2.3.3-7.9-2.7-9.3.6-3.7 4.2-.1 2.7 2.7h6.7c-1.8-2.7-.9-8-5.4-8-.5-3.2 2.5-2.9 1.4-6.7 4.5-.9 2.2 4.9 5.3 5.4s2.3-1.3 4-1.4c.1-2.4-1.7-2.8-1.4-5.3H53.2c-.6-6 6.2-3.6 9.3-2.7-.2-2.9-3.3-2.8-6.6-2.6 2.2-2.7-.2-1.7 0-5.3 3.3-.7 1.4 1.6 1.3 1.3 1.9 6.6 3.7-2.1 9.3-4 .4-3.5-1.8-4.4-5.3-4-1.1-.8 3.6-4.7 5.3-2.6s3.6-.5 6.7 1.3-.3-3.9-1.4-4c.5-1.8 2.4-2.1 2.7-4-2.1.1-5.1-.6-5.3 1.3-2.3-.4 1.7-4.6-4-4 .3-1.6 2.6-1.3 2.6 0 2.4.2 2.8-1.5 5.4-1.3-.1 0 .4 1.3 1.3 1.3s1-.1 1.3 0 1.7 1.4 1.3 1.4c2.4.2 2.9-1.4 5.4-1.4-.3 0 .5 1.3 1.3 1.4s2.7-.1 4 0 1.2-5 4-5.3c.5-3.2-6.1.7-4-4 1.9.1 3.7.2 4-1.4 3 .8-1.6 2.1 1.3 4 5.3-2-3.4-7.8 0-8-.6-1.5-2.9-1.5-4-2.6s.5-2.3 0-2.7-3.4.1-2.6-2.6c3.3.2 4.1-2.1 6.6-2.7-.5-1.4-1.8-.2-4 0s-8.3.3-12 1.3c-1.1-1.9 4-2.3 4-2.6s-5.8-2.1 0-2.7c2.8-.3.4-5.8 2.7-6.6-.6-1.2-1.2-2.4-2.7-2.7.4-1.7 2.7-1.3 2.7 0 1.9-1.6 1.3-5.8 6.6-4-1.6-4-1-5.2 1.4-8-3.6 1.4-7.6 2.3-6.7 8-4.9.7-4.8 1.2-11.9 1.3.1-3.4 5.6-1.4 3.9-6.6h8c.2-5.4-3.4-3.5-6.6-2.7-1.2-1.9-2-4.2-5.3-4 .9-6.2-1.9-8.7-4-11.9-.5-2.3 1-2.5 2.6-2.7-3.7-3.7-6.2-.2-9.3-4 .2-1.5 2.4-1.1 4-1.3-2.2-4-3.9-9 2.7-9.3-3.3 5.2 1.4-1 2.6 2.6 1.8-.8 2.5-2.8 2.7-5.3a6.6 6.6 0 0 0 4 1.4c-1.6-5.6-6.6.1-10.7 0 .4-2.8 3.6-2.7 5.4-4-2.6-6.2 5.5-8.5 1.3-12-1.9-4.6 3.4-.6 4-1.3s-1.4-2-1.4-2.7 1.3-.5 1.4-1.3a7 7 0 0 1 4-5.3c-.9-1.4-3.1-1.4-2.7-4-2.3.5-2.5-1.1-2.7-2.7 3.1.4 5-.3 5.4-2.7s-2.5-1.1-4-1.3c.7-2 1.9-3.3 2.6-5.3-.8-4-2.8 1.3-5.3 0 1.7-3.6.6-4.7 0-10.6 2.3.4 2.5-1.1 2.7-2.7 4.2-.2 7.9-.9 8-5.3s-3.5-4.6-6.7-5.4c1.3-6.2 5.3-9.7 13.3-9.3.8 3.5-.5 4.8-4 4 .6 2.8-.9 3.5-1.3 5.3 2.8 1.2 1.8-1.8 2.6-2.6s3 .4 2.7-1.3c1.5.2 2.4-.3 2.7-1.4 5 2.9 6.4-1.2 10.6-2.6a9.5 9.5 0 0 0-4-2.7c-2.9-.2-4.2 1.1-4 4-1.8-.4-1.1-3.3-1.3-5.3-2.4-.2-2.8 1.6-5.3 1.3-.7-4.2 3.3-3.7 5.3-5.3-.9-1.8-2.8-2.5-5.3-2.7s.5 1.7 0 4c-3.1-.4-5-2.1-9.3-1.3-1-4.4 2.7-2.2 4-1.3 2.8-8.2-8.4-2.4-8-8-3-.8-1.9 2.5-4 2.6s-5.7-1.3-6.7-3.9c-2.5.5-1 5.1-5.3 3.9a3.6 3.6 0 0 0 4 2.7c-.1 4.4-3.1 1.2-5.3 1.3s-6.2.1-9.3 1.4c0-2.7 3.6-1.7 2.6-5.4-2.8-1.2-1.8 2.1-2.6 2.7s-5-.9-4 2.7c-3.8-1.1-3.5 1.8-6.7 1.3-1.7-2.4 6.6-3 5.4-4s-.4-2.7 3.9-2.7c-3-6.7-11.7 2.2-15.9-1.3v-6.6c-2.7-2.3-1.7.1-5.3 0-.7-2-2-3.4-2.7-5.4-2.4-.6-1.7 3.4-2.7 4s-5.5-1.3-5.3 1.4c-3.2.5.8-6.1-4-4 .2-3.4 7.8-.6 8-4s3.1-.3 2.7 0c3.6-2.3 2.3-8.6 9.3-6.7.5-2.2-1.1-2.5-2.7-2.6s.5-1.3 1.3-1.4c-1.9-1.5-1.5-5.5-5.3-5.3-1.7-.6-.6 6.6 2.7 5.3-.5 3.3-6.1 1.1-4-2.6-2.8.8-4.3 2.8-6.6 4-4.4-.4-10.1-3.4-10.7 2.6-2.4-.9-.2-2.4 0-4S8 290.9 8 289.6c-3.2-.1-3.9 2.3-8 1.3 0-2.6 3.6-1.7 2.7-5.3 2.7.6 3.5-.9 5.3-1.3s3 2.3 4 2.6 3.9-.7 5.3 0 .2 4 2.7 2.7-1.6-5.7 3.9-5.3c0-1.3-1.6-1.1-2.6-1.4.5-3.3 6.1-1 4 2.7.8-.4 5.1-3.3 5.3 0 3.4-1.7 4.2-2.8 2.6-6.7 5-.9 5.8 2.3 10.7 1.4 2-.6-.5-1.7 0-4 3.2.5 2.9-2.5 6.6-1.4-2.3 1.9 0 5.4 2.7 2.7.3-.3 1-2.5 1.3-2.7s1.8 1.4 2.7 1.4.5-1.3 1.3-1.4a25.8 25.8 0 0 0 6.7-1.3c-2.7 2.7.6 2.6 1.3 5.3 1.8-1.3 2.7-3.5 4-5.3 7.4.4 9.9-2.1 16 0 1.4-.3.9-2.6 2.6-2.6 3.7-.3 4.6 2 2.7 3.9 4.4.1 8.8 0 8-5.3 4.4 2.4 6.8-.9 13.3 0-1.6 1.8-.6 2.1 0 4 1.8-.4 1.1-3.3 1.3-5.3 6.2-1.4 9.2 2.2 9.3-5.3-.2-2.2-9.1-2.2-9.3 0-1.2-1.1-3-1.5-5.3-1.4v-3.9c-1.9.1-3.8.2-4-1.4-3.9 2.9-3.5 1.8-9.3 2.7 1 3 7.4.5 10.6 1.3.8 7.7-9.5-.3-12 2.7a5.6 5.6 0 0 1 0 1.3c-2 .3-1.9-1.3-2.6-1.3s-2.2 1.5-4 1.3-6.3-2.3-9.3 1.3c-1.8-.4-1.1-3.3-1.4-5.3-4.3-1.6-1 4.3-5.3 2.7.6 1.2 1.2 2.4 2.7 2.6-1.6 3.6-7.1.2-5.3-4 3.1 1.1 6.1-1.8 1.3-1.3 1.4-5.6 5.3-.9 6.6-5.3s-3.8.2-5.3 0c0 0-.3-1.3-1.3-1.3h-1.3c-3.2.3-5.6 4.2-8 1.3 1.1-2 4.3-1.9 6.6-2.7-1.8-3.3-4.6-2.3-7.9-1.3-2.4-3.6 5.8-2.6 1.3-4 .9-2.7 2.5.3 4 0s1.9-4.2 5.3-2.6c-2.2-5.8 5.9-6 0-8 .6-2 1.2.1 2.7 0 .5-3.5 3.9-4 3.9-8s-4.7-.6-6.6-1.3c-2 1.6-1.3 5.8-6.7 4 1.8-1.7 2.6-7.1-2.6-5.4.5-2.5 5.1-1 4-5.3s-1.1-4.2-4-4c0-3.5 4.2-2.9 4-6.6 7.2.6 9.9-3.4 14.6-5.3-.9-1.4-3.1-1.4-2.7-4-3.6 2.5-7.3 5.1-13.3 5.3v2.6c-2.8 3.1-.4-7.3 4-5.3.8-1-2.6-1.3-2.6-1.3.8-2.6 4 .3 5.3-1.3s-4.2-5.6 4-4c3.5-5.8-3.9-4.9-4-10.7 5 1.4 2.1-5 6.6-4-1.1 3.8 1.9 3.5 1.4 6.7-3.7 1-2.7-2.6-5.3-2.7-.8 3 2.5 1.9 2.6 4s2.5 1.1 4 1.4a9.3 9.3 0 0 1-4 2.6c1.2 3.7 5.4-3.1 4 4 4 1.2 10.9-1.3 6.7-4 .2-1.5 2.4-1.1 3.9-1.3-2.4-2.5-.1-3.4 0-6.7-5.7-.9-3 6.7-9.3 5.4 2.2-4.7-1.8-9.6 5.4-10.7-.5-2.2 1-2.5 2.6-2.6-1.1 4.2 2.1 4.1 2.7 6.6 4.7-1.5.4-5.5 1.3-8 .1-.3 3.5.1 2.7-1.3s-1.7-1-2.7-1.3c1.3-3.8 5.6.3 8 0s2.7-2.7 5.3-2.7c3.6 2.7 2.9-1.3 8 0 2.5.6 2.1 1.3 5.3-1.3 4.1-1 3.9 2.3 8 1.3 2.1-1.9 2.6-5.4 8-4 .3-2.1-1.3-2.3-1.4-4s-2.4-1.9-5.3-2.6c-1.2-.3-2.3-.9-4-1.4s-6.1-2.4-10.6-1.3c1.5-2 1.5-3.3 0-5.3-5.3 2.7-7.7-3.3-12-5.3.2-1.6 2.4-1.2 4-1.4-1-3.6 2.6-2.6 2.7-5.3-2.8-1.3-1.9 2.1-2.7 2.7s-5.7-.9-5.3 2.6c-1.1-.2-1.3-1.3-2.7-1.3s-1 1.6-1.3 2.7c-1.4-.9-1.4-3.1-4-2.7-.2-3.8 3.8-3.3 5.3-5.3-1.3-2.2-5.6-1.5-8-2.7-.2-1.1.6-1.2 1.4-1.3v-2.7c2 1.6 5.4 1.7 6.6 4 2.5-.2.8-4.5 2.7-5.3-.1-1.3-1.6-1-2.7-1.3.1-4.4 2.3-6.6 1.4-12 2.1-2 7.1 1.7 6.6-5.3 4.1.9 3.9-2.3 8-1.3 0-2.7-3.6-1.7-2.7-5.4 1.6.2 2.4-.3 2.7-1.3 4.5.5 1.7 3.6 6.6 1.3-.5-5.1-1.4-4.7 1.4-7.9-.3-2.7-4.3-7.6-4-10.7s.5-2.5 2.6-2.7c-.1-3.3-4.3 1-5.3 0s.8-4.3 0-5.3-1.8-.6-4-1.3-2.3-1.2-6.6 0c-.5.1-3.4 1.3-2.7 1.3-1.6-.1-5.6-1.6-5.3-5.3-4.2.6-5.2-1.9-8-2.6-.2-.9.2-1.9 0-2.7s-2.4-.6-2.6-1.3 1.3-1.7 1.3-2.7-5.7-5.1 0-6.6c-.1-1.3-1.6-1.1-2.7-1.4-.5-2.2 1.1-2.5 2.7-2.6-.1-2.1.6-5.1-1.3-5.4 1.9-3.1 3.2-2 6.6-1.3-.1-3.4-5-2.1-6.6-4 3-.9-1.3-9.2 3.9-8-.6-1.3-2.3-.9-2.6-2.6-.8-3.6 3.6-6.8 2.6-12 4.5-1.5 9.9-4.7 13.3 0 2.3.5 2.6-1 2.7-2.6 1.2.8 5.8-1.1 6.7 0s.3.1 1.3 0 1.4 1.3 1.3 1.3c1.8-.3 2.7-2.3 6.7-1.3 2.2.5 2.8 1.1 7.9 0 2.1-.5 2.8-4.4 5.4-1.4 2.4-.2.8-4.5 2.6-5.3 3.9.5 5.8-1.9 9.3-2.7s2.1 1.7 6.7 0c1.3-.4 5.6-.5 5.3-4 2.4 1.8 6.6-1 9.3 2.7 2.7-.4 4.4-1.7 8-1.3s2.8 2.3 6.6 1.3a2.5 2.5 0 0 0 1.4-1.3c1.9-.3 2 1.3 2.6 1.3s1.5-1.3 1.4-1.3c1.8.2 2.5 1.4 4 1.3s1.4-1.2 2.6-1.3 10.9 1.3 12 0 1.7.2 4 0 2-1.3 4-1.4 8.6 2.2 14.6 1.4 14.5-.8 22.6-1.4c.4 0 2.5.3 2.7 0s1.4-.2 4 0c6 .7 14.6 1.8 22.6-1.3 4.2 5.6 13-2.9 17.3 2.7 1-1.2 3.6-.8 4-2.7a10.5 10.5 0 0 0 2.6 1.3c.5.2 2.4-.3 2.7 0s.8.5 2.6 0 9.9-.9 10.7 0 1.6-1.6 4 0a6.5 6.5 0 0 0 0 1.4c1-.1 1.4-1.1 2.6-1.4s12.6-.9 13.3 0 .8.3 2.7 0c5.5-.8 11.2.4 15.9 0s8.8-2.3 13.3 1.4c2.9-1.1 8.7-4.3 16-2.7.3.1.2 1.3 1.3 1.3s1-.1 1.4 0c2.9 1.2 12.6 1.9 18.6 2.7 2.4.4 2.1-3.5 1.3-2.7 3.9-4.1 10.5-3.7 14.6 0 .8-.7 1.8-.7 2.7-1.3s1.6-1.4 1.3-1.3 1.5 1.6 2.7 1.3.2-1.2 1.3-1.3c6.3-.7 14.9.5 22.6 0a12.2 12.2 0 0 0 2.7 0c1.4-1.7.6.1 2.7 0s4-1.2 5.3-1.3a31.3 31.3 0 0 1 5.3 0c2.1.1 2.4 1.3 4 1.3s3.4-1.1 5.3-1.3a8.2 8.2 0 0 1 2.7 0c1.1 1.3.8.3 2.6 0s7.6-.3 10.7 0 2.8 1.3 5.3 1.3 3.3-2.4 8-1.3c1.1.2 1.3 1.3 2.6 1.3s1.5-1.2 2.7-1.3c6.8-.8 15-.5 22.6 0 .4 0 2.5-.3 2.7 0s1.6-.3 6.6 0c2.1.1 2.4 1.3 4 1.3 4.6-.1 13-3.3 19.9-1.3-1.4 1.9-1.4 3.2 1.4 3.9a9 9 0 0 0 2.6-3.9c2.9 1.8 12.7-2.5 14.7 0s2.2-1.8 5.3 1.3c1.5 1.5 4.5-1.4 5.3-1.3s5.1.9 6.7 2.6c1.3 0 1-1.6 1.3-2.6 1.9-1.3 3.7 1.3 4 1.3s2-1.6 4-1.3c.1 0 .3 1.2 1.3 1.3 2.9.1 3.5-1.4 5.3-1.3s2.3 1.2 4 1.3 2.3-1.2 4-1.3 3.4 1.3 5.3 1.3 2.9-1.5 5.3-1.3 2.4 1.3 4 1.3 2.3-1.3 4-1.3 2.5 2.3 6.7 1.3c.6-.2 1.5-1.4 1.3-1.3 2.2-.2 2.3 1.4 4 1.3s12.4-4 14.6-1.3 4.2.1 6.7 2.6 7.8-1.4 10.6-1.3c-.6 0 1 1.2 1.3 1.3s8.6.9 9.4 0 1.9-2.2 2.6-1.3 1.2-.3 4 0 3.6.4 5.3 2.6c3.6-2.6 11.6-.7 17.3-1.3 1.4 3.5 5.4 4.4 10.7 4-.4 2.2 1.2 2.3 1.3 4a107.1 107.1 0 0 0 23.9 1.3c1.2-.8 2.4-1.6 2.7 0 1.5-.2 1.1-2.4 1.3-4 3.5-.4 4.4 1.9 4 5.4 2.8.6 3.8-2.4 6.7-2.7s2.3 1 3.9 1.3 4.5-.3 6.7 0c7.5 1 12.3 2.9 17.3-2.6 3.1-1.5 4.6 2.1 6.6 2.6s3.7-.2 5.4 0a24 24 0 0 0 9.3 0c-.5.1.7 2.1 1.3 1.4s3.7-1 5.3 1.3c11-3.4 30.9.2 39.9-1.3-.4 2.1 1.3 2.2 1.3 4 1.5.7.9-2.6 1.4-2.7 3.8-.6 7.2 1.2 10.6 1.3.3 0 8.7-3.7 10.7-1.3s4 0 5.3 1.3 1.3-1.4 4 1.4a26.7 26.7 0 0 0 4 0c.5-.2 1.7-1.4 1.3-1.4 1.1 0 1.3 1.5 2.7 1.4s2.9-1.7 5.3-1.4c0 0 .4 1.3 1.3 1.4s1-.2 1.3 0c1.8.7 3.6.6 8 1.3v1.3c3.5-.2 8.6-.8 6.7 4zm34.5 167.6c4.2-1.5 3.3 2.1 5.4 2.6.3-1.9 2.2-2.2 2.6-3.9-2.1-2.3-6.8-1.3-8 1.3zm-2.6 33.2c2.3.6-.3 1.8 0 4 6.7 1.6 2.9-8.9 0-4zm-99.8 55.9c3.3-.2 6.4-.2 8 1.3.9-5.7-6.9-4.3-8-1.3zm102.4 158.3h-3.9v2.6c2-.1 4.6.2 3.9-2.6zm-13.3 103.7c-3.5-.9-2.5 2.8-3.9 4 2.9.3 4.2-1.1 3.9-4zm-66.5 70.5c3.3-1.7 5.6 3.9 6.7 0-2.7-1.4-6.2-7.1-6.7 0zm2.7 220.8c-1.3 0-1.6-1.1-2.7-1.3.2 2.4.9 4.4 2.7 5.3.4-1.9 2.9-1.5 4-2.7v-6.6c-5.2-2.2-.5 5.7-4 5.3zm-806-691.6c3.3.2 6.4.2 6.6-2.7-1.8-.4-2.5-1.9-5.3-1.3a6.2 6.2 0 0 1-1.3 4zM931 23.6c-.3.4-2.2-.4-2.6 0s0 1.8-1.4 2.6c.7-.3-2.9-1.4-2.6 1.4 7.4 2.6 8.1-5.9 12-2.7v-4a6.7 6.7 0 0 0-5.4 2.7zm-11.9 6.6c.3 1.1 0 2.6 1.3 2.7 2.2-2.7-.1-1.7 0-5.3h-4c.2 1.6.4 3.1 2.7 2.6zm11.9 4c1.9.5 2.3 1.6 4 0-.3-1 0-2.6-1.3-2.7 0 1.8-2.3 1.3-2.7 2.7zm-6.6 2.7c-2 .2-4.9-.5-5.3 1.3 1.7 1.7 4.9 1.8 5.3-1.3zm-6.7 15.9c.5 5.4 3.5 0 6.7 2.7v-2.7c-1.4 0-1.6-1-2.7-1.3-.7 2.8-2.1 2.8-4 1.3zm25.3 4c-2.6 0-1.7-3.6-5.3-2.6-1.4 3.3 4.5 5.9 5.3 2.6zm12 4c-4.9-.8 3.1-6.2-1.4-6.6-2.6 1.7-3.9 11.5 1.4 6.6zm14.6 5.3h2.7v-2.6h-2.7zm-55.9 26.6c-1.9-.7-3.3-1.9-5.3-2.6-1.4 3.3 4.5 5.9 5.3 2.6zm12 4c3.8 3.9 3.7-2 6.7-2.6 0 .8.2 1.5 1.3 1.3-.4-6.3-6.8 0-8 1.3zm0 8c3.9 2 3.9-5.9 0-4zm-815.3 12h2.7V114h-2.7zm803.3 2.6V114h-3.9c.5 2.6.4 5.7 3.9 5.3zm5.4 1.4h2.6V118h-2.6zm-41.3 15.9h2.7c1.5-1.9 1.4-3.2-1.3-4-.1 1.7-1.7 1.9-1.4 4zm57.2 12h-4c-1 .3-2.6 0-2.6 1.3 1.9-.7 6.8 1.6 6.6-1.3zm-798 14.6h5.3v-2.6H137zm755.5 0c1.7 1.8 4.9 1.8 5.3-1.3-3.3-.2-4.2-2.5-5.3 1.3zm-795.4 16c2.9 3.5 8.8-1 10.6 1.3v-5.3c-3.7 1.2-8.1 1.7-10.6 4zm857.9 4c-3.2-.4-5-2.1-9.3-1.4.3 6 9.2 9.2 9.3 1.4zm-860.6 6.6c5.4.1 10.3-.4 12-4-5.4.8-9.4 1.9-12 4zm834 2.7h2.6c0-1.3 1.1-1.6 1.4-2.7-2.7.4-2.7-1.8-4-2.6zm65.1 0a3.6 3.6 0 0 0 4-2.7c-2.1.2-4.6-.2-4 2.7zm-57.1 5.3c.9-2.9-4.9-5.5-5.4-2.7 2.1.6 1.2 4.2 5.4 2.7zm31.9-1.3c6.9 2.5 10.1 3.8 14.6-1.4-6.3 2-13.1-3.9-14.6 1.4zm-1.4 6.6c-.3-2.5 1.5-2.9 1.4-5.3-2.3.1-4.2-.3-5.3-1.3-.7 4.2 1.6 5.4 3.9 6.6zm-23.9-2.6h2.7v-2.7H943zm-856.5 4c4.4 0 8.8 0 7.9-5.4-5.6-1.2-6.7 2.2-7.9 5.4zm828.6 11.9c.7-.5.5-3.3 1.3-4s2.8.3 2.7-1.3c-2-.2-1.3-3.2-1.4-5.3-4.1-1-2.5 3.6-6.6 2.6a3.7 3.7 0 0 0-4-2.6c-1.1-1.7-4.7-7.6-6.7-4a19.2 19.2 0 0 1 6.7 6.6c-2.3.6.3 1.8 0 4-1.6.2-3.8-.2-4 1.4s2.6 0 2.7 1.3c-1 3.6 2.7 2.6 4 4-1.6-4.6 4-1.8 5.3-2.7zm25.2-13.3c-1.4 7.7 5.8.6 0 0zm-143.6 8c2.7-.8 9.2 2.2 8-2.7-3.4.2-6.4.8-8 2.7zm-4 1.3c-1.9.7-3.2-5.1-4-1.3 1.4-.1 2.7 5.7 4 1.3zm146.3 0c3.8-.2 9.1 1.2 9.3-2.6-3.3 2.4-7.5-2.6-9.3 2.6zm27.9 1.4a6.8 6.8 0 0 0 1.4 4c-3.6 2.5 2.7 6.4 4 2.6-.8-.1-1.6-.2-1.4-1.3 4.8.3 7-1.9 6.7-6.7-1.8-1.3-4.9-1.3-6.7-2.6 1.5 4.1 1.4 4.2-4 4zm-5.3 4c1.2-2.8-3.4-6-4-2.7 2.1.1 1.1 3.4 4 2.7zm20 6.6c3.9 2 3.9-5.9 0-4zm-51.9-2.7c-.9 3.6 2.8 2.6 4 4-.5-2.3 2-3.4 0-4-.6 2.3-1.7-.2-4 0zM91.8 232.4c.7-2 1.9-3.4 2.6-5.3h-2.6c-.8 0-1.6.2-1.4 1.3s1.6 1.1 1.4 2.7c-.8 0-1.5 1 0 1.3zm855.2 0c.4-3-.3-5-2.7-5.3-.3 3 .4 5 2.7 5.3zm-37.2-1.3c2-4.1-6.9-3.5-6.7-1.4 3.2-.5 2.9 2.5 6.7 1.4zm-815.4 5.3c-.2 3.3 2.1 4.1 4 5.3 1-3.6-2.6-2.7-2.6-5.3 2 .1.9-3.9 0-1.4-.1.9-.2 1.6-1.4 1.4zm-2.6 2.6c.4-3.5-2.8-3.4-5.3-4-.5 3.6 2.7 3.5 5.3 4zm791.3 0c3.1.4 5.1-.3 5.4-2.6-2.5.2-4.5.9-5.4 2.6zm8 1.4c-2.9-.3-4.2 1.1-4 4 2.8 2.8 4.3-.2 6.7-1.4-.7-2.3-.7-5.5-2.7-6.6-.5 1.9-1.6 2.2 0 4zm6.7 0c-4.1 4.4 4.9 4 0 0zm-9.3 10.6c1-1-.4-7.2-2.7-2.7 1.1-.6 2.1 3.3 2.7 2.7zm-774.1 2.7c.5-4.1-4.3-2.8-6.7-4 .6 3.3 4.6 6.1 6.7 4zm5.3 2.6c1.2-2.7-3.4-5.9-4-2.6 1.9.3 2.3 2.2 4 2.6zm772.8 1.4c4.5 1 5.1-5.1 1.3-5.4.3 2.6-1.5 3-1.3 5.4zm-799.4 0c-2.7-.8-2.5-3.2-5.3-4 .4.1-.5 1.4-1.3 1.3s-2.3-2.7-2.7 0c2.9.3 7.2 6 9.3 2.7zm-9.3 2.6c.1.6 3.6 2 4 2.7.4-4.4-4.2-4.2-4-2.7zm803.3 12c5.6-1.1 6.3 2.6 10.7 2.6 1.6-4.3-4.3-1-2.7-5.3-2.3 1.2-6.6.5-8 2.7zm-13.3 5.3c3.4.2 4.2-2 5.4-4-3.5-.4-5.8.5-5.4 4zm-823.3 5.3c7.4-.9 1.3 3.5 2.7 8a6.2 6.2 0 0 0 4-1.3c.1 1.6.4 3.1 2.7 2.6-1.7-4-1.1-5.1 1.3-7.9-2.2-1.1-4-1.4-5.3-2.7s.1-3.7-2.7-2.7c.4 2.7-1.8 2.7-2.7 4zm779.4 1.4c.8-5.8-3.7-2.5-6.6-2.7-.1 0 .1-1.3 0-1.3s-5.9.3-5.3 1.3c5.5-.7 5.8 3.9 11.9 2.7zM37.2 297.6c3.6.4 3.5-2.8 4-5.4-2.3.8-5.5-3.9-6.6 0 4.9.2 3.3 2 2.6 5.4zm29.3-2.7c-.2-1.4 5.7-2.7 1.3-4 .7 1.9-5.2 3.3-1.3 4zm841.9-1.3c-6.3-3.7-3.2 4.3 0 0zm17.3 0c-2.5.3-2.9-1.5-5.3-1.4-.4 3.9 5.2 5.1 5.3 1.4zm-884.5 5.3c3.7-.6 1.3 4.9 4 5.3a9.5 9.5 0 0 1 2.7-4c3.5-.4 1 5.2 5.3 4 .3-3.9-2.5-4.6-4-6.6 3.3-.2.3-4.4-1.3-4 .8 4.8-6.4 1.6-6.7 5.3zm-8 4c-.8-.1-1.5-.2-1.3-1.4 2.8 1.2 6-3.4 2.7-3.9-1.2 2.3-4.9 2.2-5.3 5.3 2.2-.5 3.4 2 3.9 0zm8-1.4c-1.7 0-1.8-1.7-4-1.3-2 3.3 4.6 3.9 4 1.3zm871.2 2.7c2.5-.2 4.5-.9 5.3-2.7-.8-.7-6.3-3.1-6.6 0 1 .3 1.5 1.2 1.3 2.7zm13.3-4c-1.1-1.1-3.8 1-4 1.3-1.4 2.7 5-.3 4-1.3zm-855.2 5.3c-1.7 0-1.8-1.7-4-1.3-2.1 3.3 4.5 3.9 4 1.3zm31.9 1.4a8.7 8.7 0 0 0-6.6-1.4c-2.1 4.1 6.8 3.5 6.6 1.4zm-41.2 4c1.2-.2.7-7.4-1.3-2.7-.4.8.5 2.8 1.3 2.7zm-22.6 1.3v2.7c3.2 2 3.9-4.6 1.3-4-.1.8-.2 1.5-1.3 1.3zm67.8 8c-.9.8-2.6-1.4-2.7-1.4-1.8-.6-5 .8-5.3-1.3s1.8-2.6 2.7-4c-3.5-1.3-10.6-2.8-10.7 2.7 2.6.3 3-1.5 5.4-1.3-2.9 2.7-2.8 4.9 1.3 6.6 2.9-4.5 6.1 1.7 9.3 1.3.3-1 0-2.6 1.3-2.6 1.8 5.8 0 5.4-2.6 9.3 2.7 3.1 5.2-1.8 8 1.3.4-2.6-1.8-2.6-2.7-4 2.8-.7 2.8-2.1 1.3-4 1.1-.3 2.6 0 2.7-1.3-5.5.1-5.6-3.8-8-1.3zm794 22.6c0-.1-2.5.1-2.6 0s.1-3.9-2.7-2.7c-.5 4.9 5.3 5.6 5.3 2.7zm14.7 0c-2.1-.1-1.1-3.4-4-2.7-1.2 2.8 3.4 6 4 2.7zm-10.7 2.6c1.7.1 1.9 1.7 4 1.4a3.7 3.7 0 0 0-2.6-4c0 1.3-1.1 1.6-1.4 2.6zm-6.6 6.7c-1.2 4.3 4.3 1.9 5.3 4 .2-2.5 4.4-.9 4-4-3-.7-6.8-2.6-9.3 0zm15.9 2.7c-3.1.5.8-6.1-3.9-4-1.5 3.3 2.8 7.5 3.9 4zm16-1.4c2.5-.2 4.4-.9 5.3-2.6-2.3.3-6.6-1.4-5.3 2.6zm-10.6 2.7c3.7-6.4-4.4-3.2 0 0zm-832.6 4c1.6-4.3-4.4-1-2.7-5.3a6.8 6.8 0 0 1-4-1.4c1.8 4.2-3.3 8 0 9.3.1-4.1 5.2 4.1 5.3 0-1.3-1.3-2.7-2.6-4-4 2.5-.3 3 1.5 5.4 1.4zM956.3 392c3.3 4.1 2.2-2.2 1.3-2.7s-2.7.7-2.6 1.4c-.1-.9 1.5 1.5 1.3 1.3zm21.3 1.3c-.7 1.1-2.2-.4-2.7 1.4s2 2.1 2.7 2.6c1.2-2.8 2.1-5.9 4-8-3.5-1.4-2.9 2.3-4 4zm6.6 9.3c-1.1.2-.8 1.7 0 1.4s3-5.4 1.4-2.7c-.2.3.2 1.1 0 1.3s-1.1 0-1.4 0zm-5.3 1.4h2.7v-2.7h-2.7zm24 2.6c2-.1 4.6.2 3.9-2.6h-2.6c0 1.3-1.1 1.5-1.3 2.6zm-29.3 4c.4-3.5-2.8-3.4-5.3-4-.4 3.5 2.8 3.5 5.3 4zm-45.2 10.7c.2-1.6 2.3-3.1 0-4-.2 1.5-2.4 3 0 4zm43.9 15.9c-.8-3.4.5-4.8 4-4v-4c-4.1 0-9.6 6.3-4 8zm17.3-2.6c1.3 2.2 5.6 1.4 7.9 2.6.3-1 .1-2.6 1.4-2.6s2.3 1.6 2.6 0c-3.6.9-2.6-2.7-5.3-2.7-.3 2.8-5.8.4-6.6 2.7a5.8 5.8 0 0 1 1.3-4c-5.3-.4-8.1 1.6-10.7 4 1.7.1 3.2.4 2.7 2.6 4.1 1 2.6-3.6 6.7-2.6zm-43.9 7.9c2.8.2 3.9-2 5.3-2.6-.5.2 2.8 1.6 2.6-1.4-3.3.7-8 0-7.9 4zm-831.3 8c-1.8-.4-2.6-1.9-5.3-1.3-.6 5 3.9 4.1 5.3 1.3zm-16 12c2.3.1 4.2-.3 5.3-1.3-.1-7.5-3.3-11.8-11.9-10.7-.9 3.6-3.8 5.1-5.3 8 1.6.1 3.1.4 2.6 2.7-1 .3-2.6 0-2.6 1.3h5.3c-1-6.7 3.5-2.7 5.3-1.3.4-5.9-6.2-3.7-6.7-5.4 1.8 0 1.3-2.3 2.7-2.6s.7 2 1.3 2.6 5.8.3 5.4 0c1.6 1.2 2.3 2.7 2.6 5.4-1.6.2-3.8-.3-4 1.3zm756.8 0c-1-.3-2.6-.1-2.6-1.3-.4-3.1 3.8-1.5 4-4h-5.4c-1.3 3.7 2.1 9.2 4 5.3zm16-1.3c3.5.3 5.7-.5 5.3-4-2.5.5-5.7.4-5.3 4zm-27.9 1.3h2.6v-2.7h-2.6zm-46.6 5.3c-.4-1.8-.1-2.9-1.3-1.3s-1.6-1.4-1.4-1.4c-1.8-.2-6.1-1-6.6 1.4 4.6-1.1 5.1 2 9.3 1.3zm131.7 43.9c.1-4.1-4-4-8-4-.8 4.8 3.9 4 8 4zm2.6 1.3h4c1.2-2.7-3.4-5.9-4-2.6 1.6.2.9 1.4 0 2.6zm-857.8-1.3c-3.1.4-5.2-.2-6.7-1.3-2.1 4 6.9 3.5 6.7 1.3zm875.1 4c2.7 1 13.5.7 13.3-5.3h-5.3c.3 7.1-5.9-.1-8 5.3zm20-2.7c-.8-.4-5.1-3.3-5.3 0 2.4-1.2 4.4 4 5.3 0zM70.5 523.7c-3.2.5.7-6.1-4-4-1.7 3.6 3.9 6.5 4 4zm14.6-4h-2.6c-7.3-.4 2.9 3.7 2.6 0zm885.8 2.6c-1-1-7.2.4-2.6 2.7-.7-1.1 3.2-2.1 2.6-2.7zM70.5 535.6c.3-1.2 1.1-1.2 2.7-1.3s1.1 1.5 2.6 0 2.5 2.4 4 1.3c2.1-5.6-6.9-.2-6.6-4s1.7-2.6 2.6-3.9c-2.6.4-2.6-1.8-4-2.7-.7 2.5-3.6 9.5-1.3 10.6zm836.6-2.6h4v-2.7h-4zm37.2 5.3v-2.7c1.8.5 2.6 1.9 5.4 1.4-.3-2.5 1.5-3 1.3-5.4-4.4-.7-9.6 4.5-6.7 6.7zm-880.5 0a22.6 22.6 0 0 1-2.6 0c1.1 3.5 4.5 8.9 6.6 5.3-3.9-1.8-.2-11.3-6.6-10.6-1.1 1.2 2.9 4.9 2.6 5.3zm851.3 0c-.6-.2-.1-4.3-2.7-2.7-.4 3.5 2.8 3.5 5.3 4s4.2-7.1 1.4-4c-.1.9-3.3 2.9-4 2.7zm18.6-1.3c2.1-.2 4.6.1 4-2.7H935c0 1.3-1.1 1.6-1.3 2.7zm16 2.6c-1.7 0-1.4 2.2-2.7 2.7s-2.6-2.4-4 0c-.6 4.2 1.2 5.9 5.3 5.3-.1-4 3.9-6.7 6.7-4V541c.8-.1 1.5-.2 1.3-1.4s-3.8.3-4-1.3c1.4-.1 1.1-1.7-1.3-1.3-.3 1-.1 2.6-1.3 2.6zm7.9 6.7h4c-.2-1.6.3-3.8-1.3-4-.3 1.9-2.2 2.2-2.7 4zm-897.7 4c3.8.2 6.7-.4 7.9-2.7-5 1.5-6-1.3-7.9 2.7zm887.1 2.6c4.2.7 5.4-1.6 6.6-4-3.4.2-4.6 2.5-6.6 4zm12-1.3h4v-2.7h-4zm-876.5 1.3c3.2-3.2-4.4-3.4-4-1.3 0-.1 4.5.8 4 1.3zm-29.3 2.7c.2-2.9-1.1-4.2-4-4-.9 3.6 2.8 2.6 4 4zm10.6 2.7c-2.5.6-1.6-3.3-2.6-4s-5.5-1.3-5.3 0c3 .1 5.1 8 7.9 4zm13.3 0c-2.3.3-4.1-6.3-5.3-2.7 2.7-.7 3.1 7.3 5.3 2.7zm830 14.6c3.9-.4 4.1 3 8 2.6.3-2.5-1.5-2.9-1.4-5.3q-4.9-.3-6.6 2.7zm18.6 0c-4.5-4.1-4 4.9 0 0zm-2.6 4c.2 4.8-3.5 3.8-5.4 4s-.4-2.3-1.3-2.7-3.4.9-4 1.3-2.9 1.5-2.6 4c2.6-.4 2.6 1.8 3.9 2.7.4-2.4 2.3-3 5.4-2.7v2.7c5.8.6 6.6-1.8 10.6 0-1.1-3.8 1.9-3.5 1.3-6.7-4.7-.7-5.8 2.2-7.9 4-.8-2.3 3.9-5.5 0-6.6zm-131.7 21.3c1-1 2.9-7.5 0-8-2.4 2.2-3.7 5.9 0 8zm9.3 0c-3.1-.5-2.5-4.7-6.7-4 0 2.8 5.4 6.9 6.7 4zm15.9-2.7c-.5 5.6 4-.6 5.4-1.3-2.5-.3-3 1.5-5.4 1.3zm28 2.7c-.7-.1-.7-1.7-2.7-1.4s-1.8 1.6-4 1.4a5.8 5.8 0 0 0-1.3-4h-4c.7 4.1-6.1 1-6.6 4 7.1 1.7 20 6.6 23.9 0-2.4-2.8-3.9 0-5.3 0zm-58.5 1.3c0-1.4-1.1-1.6-1.4-2.7-6.2-.9-6.2 2.3 0 1.4.1.8.2 1.5 1.4 1.3zm102.4 0c4-1 3.9 2.3 8 1.3.9-5.7-7-4.3-8-1.3zm-24 2.6c1.3-3.2-5.9-4.4-5.3-2.6 2.7 0 1.7 3.6 5.3 2.6zm8 2.7c-1.3 0-1.6 1.1-2.7 1.3a3.7 3.7 0 0 0-2.6-4c-.3 3.9 2.5 4.6 4 6.7-1 .3-2.6 0-2.7 1.3 2.5.2.9 4.4 4 4 .7-2 2-3.3 2.7-5.3-4.9-.9.3-5.3-1.4-10.6-2 .2-4.9-.5-5.3 1.3 2 1.1 4.2 2 4 5.3zm-804.7 0c-2.3.1-4.1-.3-5.3-1.3-1.6 1.8-.5 4.3-2.6 5.3-.6.2-2.3-.4-2.7 0s.6 3.2 0 4-6.8-1.4-5.3 2.6c2.5.3 6.9 5.4 8 2.7-1.9-.3-1.6-2.9-2.7-4 3.6.2 6.8.3 4-2.6 4.2-.9 2.5-4.5 4-5.4.7 3.9 2-2 4-1.3.1 1.6.4 3.1 2.6 2.7.1-3.7-2.2-2.7 0-5.4a6.8 6.8 0 0 0-4 1.4c1.2-3.1-6.7-3.1-2.6-1.4 1.5.3 2 1.5 2.6 2.7zm-2.6 8c2.3-.8 5.5-.7 6.6-2.7-1.5-1.1-3.5-1.7-6.6-1.3zm26.6-12c-2.8.8-8.8-1.6-9.3 1.3 1.8 1.9 9.2 2.6 9.3-1.3zm6.6 2.7h2.7v-2.7h-2.7zm799.4-1.4v2.7c3.3 2.1 3.9-4.5 1.3-4-.1.8-.2 1.6-1.3 1.3zm-822 4h2.7c1.5-1.9 1.4-3.2-1.4-4a5.8 5.8 0 0 1-1.3 4zm811.3-4c-2.4 0-2.8 1.1-1.3 2.7-2.6-.4-2.6 1.8-4 2.7-3.2-1.8 2.4-4.1-1.3-5.4a5 5 0 0 0 0 6.7c-1.6.2-1.5 2.1-1.3 4-1.5-.1-3.4.6-1.4 1.3s2.4-3.8 6.7-2.6c-.9-4.9 2.9-5.2 2.6-9.4zm-1.3 8c4-.4 8.1-.7 9.3-4-3.4-.1-1.4-5.7-6.6-4 1 4.6-1.5 5.7-2.7 8zm-117-2.6h2.6c.1-1.7 1.7-1.9 1.4-4h-2.7c-.1 1.7-1.7 1.8-1.3 4zm83.8 4c-3.6-.1-4.9-7-6.7-1.4 3.4-1.4 4.7 5.7 6.7 1.4zm-776.8 2.6c-3.4-.8-4.8.5-4 4 4.1 0 9.2-5.8 5.3-9.3-.4 1.8-1.9 2.5-1.3 5.3zm37.3 0c4.4 4 4-4.9 0 0zm-26.6 4c-.9-.4-5.2-3.3-5.4 0 2.5-1.3 4.5 4 5.4 0zm804.6 5.3h2.7v-2.6h-2.7zm9.3 0a3.6 3.6 0 0 0 4-2.6c-2.1.1-4.6-.2-4 2.6zm-807.3 16c2 1.4 4.1-1.3 5.3-2.7s4.2-5 0-4c.6 4.6-4 4-5.3 6.7zm-8 4c-.3 1.9-2.2 2.2-2.6 4 1.2 1.4 4.9.4 4 4h-9.4a2.6 2.6 0 0 0 1.4 2.6 36.2 36.2 0 0 0 4 1.3 5.6 5.6 0 0 1 0-1.3c2.1-2.1 8.1.2 7.9-2.6-1.9-1.2-1.9-4.3-2.6-6.7 2.5-1.3 4.4 4 5.3 0-3.1.4-1.5-3.8-4-4-.6 2.4-1.4-.6-2.6-1.3-.4 4.3-7.1 1.4-8-1.4 3.2-.1.3-4.3-1.4-3.9 2.9 5.5-4.2 2.9-5.3 3.9s.4 3.3 0 4-4.1 0-2.6 2.7c5.9 1.9 3.4-4.5 7.9-4 .5 3.1 1.4 5.7 4 6.7 1.9-3.1-3.4-5 0-5.4.3 1.6 2.1 1.5 4 1.4zm30.6-9.3c-4.8 6.2 7.8 1.7 0 0zm782.1 3.9c1-2.9-4.9-5.4-5.3-2.6 1.9.7 3.3 2 5.3 2.6zm13.3 0c.7-3.8-1.9-.9-2.7-1.3s-1-2.3-2.6-2.6-3.9.1-4 1.3c2.5 1.5 6.3 1.7 9.3 2.6zM63.8 659.3c2.8.7 4-1.2 6.7-1.3s4.7 2.9 5.3 0c-1.7-.5-2.7-1.7-2.6-4-5.4-.5-9.3.5-9.4 5.3zm24 5.4c-.7-3.4 6.1 3.2 6.6-1.4-3 .4-5-.3-5.3-2.6.8 0 1.5-1.1 0-1.4s-5.4 4.1-1.3 5.4zm-24-1.4c2.4-.3 6.7 1.4 5.4-2.6-2.5.1-4.5.8-5.4 2.6zm791.4 0c-1.9.4-7.9-1.6-6.6 2.7 4.4 1.4 6.4-2.4 9.3-2.7-.3.1 1.7 1.3 2.6 1.4s3.8-.1 4-1.4c-2.1-2.6-5.5-.7-9.3 0zm-784.7 5.3c3.7 2.2 3.7-5.7 1.3-5.3.3 2.5-1.5 3-1.3 5.3zm6.6-2.6h2.7v-2.7h-2.7zm790.1 1.3c-1.9.7-6.9-1.5-6.7 1.3 1.7 1.9 6.6 2.1 6.7-1.3zm10.6 18.6h2.7v-2.6h-2.7zm32 2.7c4.1.1 7.3-.6 9.3-2.7-2-.7-3.4-1.9-5.4-2.6 1.2 4.2-4.3 1.8-3.9 5.3zm-816.7 4c2.2-1.3 3.5-.6 5.3-2.7-5.3-4.3-6.9 3.9-13.3 2.7-1.1 3.7 1.9 3.4 1.4 6.6-1.1.3-2.7.1-2.7 1.4 2.3.3 3 2.3 2.7 5.3 5.7.6 1.7-3.6 3.9-4s3.8.2 4-1.3c-2.3-.4-3-2.3-2.6-5.4 1.8.1 5.1-.3 2.6-1.3-4.1-.6-3.5 3.6-6.6 4 0-1.3-1.1-1.6-1.3-2.7 4.5.4 4.6-1.4 6.6-2.6zm833.9 4a8.9 8.9 0 0 0 4-2.7c-1.7-.2-7.3 2.1-4 2.7zm-848.5 4c2.7 1.1 5.9-3.5 2.6-4-.3 1.9-2.2 2.2-2.6 4zm0 14.6c-1.7-.1-1.9-1.7-4-1.3-2.1 3.2 4.5 3.9 4 1.3zm1.3 8c4.1-1 4.9 1.3 8 1.3-.5-2.3 2-3.4 0-4-.3 2-3.2 1.2-5.3 1.3a10.1 10.1 0 0 0-2.7-3.9c-.1 3.6 2.2 2.6 0 5.3zm-4-1.4c2.1-4-6.9-3.5-6.6-1.3 3.7-1.1 3.4 1.9 6.6 1.3zm889.8 4a6.2 6.2 0 0 0-1.3-4c1-.3 2.6 0 2.6-1.3H963c-.4 3 .3 5 2.6 5.3zm-891.1 2.7c2 .2 4.9-.5 5.3 1.3-4-1.3-2.4 3-2.7 5.3 6.6 0 6.6-2.7 5.4-7.9-5.3 1.7-3.3-3.9-6.7-4-.4 1.8-1.9 2.5-1.3 5.3zm883.1 2.7c7-.3 5.4-7.1 0-8-1.2 3.9-1.2 4.1 0 8zm-10.6-1.4c3.4-.1 4.6-2.4 6.6-4-3.3.2-6.8.3-6.6 4zm17.3 1.4c2.5-.2 4.4-.9 5.3-2.7a3.1 3.1 0 0 0-5.3 2.7zm-879.2 3.9h2.7v-2.6h-2.7zm873.9 2.7c0-2.2 3.7-.7 4-2.7-2-1.5-3.4-1.5-5.4 0 .1-2-3.8-.9-1.3 0s1.2 2.4 2.7 2.7zm-49.2 12c4.8.9 4.8-2.3 0-1.4 1.1-4.6-4.4-2.3-4 0 1.5.3 3.7-.2 4 1.4zm18.6 2.6c.4-2.6-1.8-2.6-2.7-4 .8 0 1.6-.2 1.3-1.3-7.5-.7-1.8 9.5 1.4 5.3zm-6.7-1.3h-2.6c-1.1.3-2.7 0-2.7 1.3 2-.2 4.9.5 5.3-1.3zm-70.5 14.6c-5.3-4.6-3.1 4.3 0 0zm53.2 6.7v-5.3c-5.2-1-4.3 5.6 0 5.3zm-823.3 9.3c-.5-3.7 5-1.3 5.4-4-5.9-.6-6.7 1.8-10.7 0-1.2 4.3 4.3 1.9 5.3 4zm1.4 10.6c3 1.2 3-6.7 1.3-2.6.1 1.8-3.9 1.5-1.3 2.6zm799.3 25.3c-.9.9-4.2-.7-5.3 0-.2 2.4 1.5 3 2.7 4s3.3 3 5.3 2.7a7.1 7.1 0 0 0 4-4c1.6.4 8.2-.2 4-1.4-8.2 1.2-7.9-4.1-10.7-1.3zm-782 5.3c-1.8.2-4.1-5.4-5.4-1.3 1.8-.2 5 4.5 5.4 1.3zm83.7 10.7h2.7c2.1-3.3-4.5-3.9-4-1.4.8.1 1.6.2 1.3 1.4zm191.6 1.3h2.6c2.1-3.3-4.5-3.9-4-1.3.9 0 1.6.2 1.4 1.3zm-162.3 1.3c-.4-.5-3.3.3-4 0s0-2-1.3-1.3c-.8 5.8 6.8 3.2 5.3 1.3zm93.1 4h2.7v-5.3h-2.7zm107.7-1.3c2.5-.2 4.5-.9 5.4-2.7-.8-.7-6.3-3.1-6.7 0 1.1.3 1.6 1.1 1.3 2.7zm-146.3 1.3c2.8 1.2 6-3.4 2.7-4-.3 1.9-2.2 2.3-2.7 4zm46.6 0c1-1-.4-7.2-2.7-2.6 1.1-.7 2.1 3.2 2.7 2.6zm-71.8 1.3h2.6v-2.6h-2.6zm46.5 0c1.1 2.8 8-.9 4-2.6 0 2.2-3.7.7-4 2.6zm-8 0c-2 .3-4.9-.4-5.3 1.4 1.8 1.7 5 1.7 5.3-1.4zm-49.2 4c2 .7 3.4 2 5.3 2.7.6-4.2-4.1-7.7-5.3-2.7z"></path><path d="M985.6 232.4c-5.1-2.3 2.9-2.2 2.6-4 1.5.3.9 2.6 2.7 2.7.6 3.7-5-3.4-5.3 1.3z"></path><path d="M1036.1 153.9c-.6-.9-2.6-3.3-5.3-2.6s-1.9 1.3-4 0-4.1.3-8-1.4c-3.1.6-3.5 5.9-6.6 2.7-.4-3.1 3.8-1.5 4-4s-2.5-1.1-4-1.3c1.8-5.6 6.8.4 10.6-2.7 2.6 7.3 6.6.7 13.3 1.3.8 1.2 1.6 2.4 0 2.7 0 2.6 3.6 1.7 2.7 5.3-3.6.3-5.1 5.6-8 2.7.2-2.5 4.5-.8 5.3-2.7z"></path><path d="M101.1 152.6c-1.5.2-.8 1.3 0 1.3-.4 2.8-4.6-1.4-4-4 2.3-.3 3.4 2.3 4 0 2.3.3 3 2.3 2.6 5.3-1.1-.5-2.3-1.1-2.6-2.6z"></path><path d="M1061.4 153.9c3.7-.2 5.5-2.4 9.3-2.6-.3 1.7-2.6 2-2.7 3.9s-4 1.1-5.3 4c-2-1.1.4-2-1.3-5.3z"></path><path d="M1004.2 220.4c-4.2-1.8 7-1.3 5.3 2.7-4.2.9-5.4-.2-6.6 1.3-5.5-4.2 7-.1 1.3-4z"></path><path d="M17.3 321.5c1.3-1.8 1.2-5 4-5.3.1-3.7-2.2-2.7 0-5.3 5.7-2.2 3.7 8.1 6.6 1.3 3.6-1-.9 6.3 2.7 5.3-.5 1.8-2.3 2.1-2.7 4s1.7 1 2.7 1.3c-2.9 4.2-5.5-3.3-8-4s-1.1 4.2-5.3 2.7z"></path><path d="M970.9 344.1c.9-.5 2 3.3 1.4 4s-1.3-.1-1.4 0 2.8 3.4-1.3 4a6 6 0 0 1 1.3 4c0 .2-1.9 1.3 0 1.3-2.5 5.8-4.5-6.7-6.6-1.3-2.2.6-2.2-7.3 0-6.7-.2-2.9-5.7-.5-8-1.3a6.2 6.2 0 0 1-4 1.3c.2 5.1-2.6 7.2-6.6 8-1.8-1.8-.9-4 1.3-5.3-.1-3.4-5.2-1.9-5.3-5.3-1.7-4.3 4.3-1 2.6-5.4 4.4.9 5.8 2.7 4-2.6.8 1.2 7.2 4.2 4 1.3 1-2.3 2.4-.2 4 0s1.4 3 1.3 5.3c4.3 1.7 1.1-4.3 5.4-2.6-.3 2.9 1 4.2 3.9 4s-1.1-2.4 1.4-2.7c1.7-4.4-.7 5.2 2.6 0z"></path><path d="M78.5 341.4c-1.9 3.7-9.6-3.8 0 0z"></path><path d="M1001.5 368.1c1-4.6 4-.9 6.7 0-.2 2.9-3.4-1.8-6.7 0z"></path><path d="M953.6 378.7c-.4-5.6 5.8-1.2 8-1.3-2.3 2.2-3.5-.3-8 1.3z"></path><path d="M74.5 384c2.9 3.1-1.9 6-4 8-2.1-.3 0-1.3 0-1.3 0-3.9-2.2-2.6 1.3-5.4.7-.5 1.2-1.6 2.7-1.3z"></path><path d="M1066.7 411.9h2.7c2.2-.4-.6-1.3 0-2.6a12.6 12.6 0 0 1 2.6-1.3c.1-1-2-2.3-1.3-4 2.9-.8 1.9 2.5 4 2.6s1.3 4.7 2.6 8c-5.6 2-11.4-1.4-17.3-1.3-1.2 0-1 1.6-1.3 2.6-3.7.2-3.3-3.7-5.3-5.3-1.4.9-1.4 3.1-4 2.7-1.4-6.6-6.8-1.9-12-4-1.6 4.3 4.3 1 2.7 5.3-2.6-4.2-8.9 1.2-10.6-5.3-4.1.9-2.6.9-6.7 0-1.5-4.8 1.4-4.7 4-6.7-.1.1 2.7-5.3 5.3-2.6.2.1-.1 2.6 0 2.6 1.6.1 1.2-2.6 1.3-4 4.2 1 1.8 3.6 1.4 6.7 6.8-.3 10.6-3.6 15.9-5.3-.5 2.8.9 3.5 1.4 5.3.8-2.3 6.3.1 6.6-2.7 1.4-.1 2.7 5.8 4 1.4 2.4 1.2 2.2 4.9 5.3 5.3-.2 1.1-1.3 1.3-1.3 2.6zm-22.6-3.9c3 .3 5-.4 5.3-2.7-3-.4-5 .3-5.3 2.7zm15.9 1.3c-.4 1.6 3.9 4.6 4 1.3-1-.3-1.5-1.1-1.3-2.6-4.2-1.5-3.5.3-6.6-1.4-.2 2.4 1.3 3.1 3.9 2.7z"></path><path d="M957.6 447.9c.4-.2.3-1.1 1.4-1.4 3.3-.8 1.8 2.6 1.3 2.7s-1.9-1-1.3-1.3-2.3 2-1.4 2.6c-1.4-.9-1.5-2.1 0-2.6z"></path><path d="M968.3 534.3c1.4.4.9 2.6 2.6 2.7s2.3-3.1 2.7-5.4c1.2 1.5 4.9.5 4 4 1.2-.8 4.9-3.1 4 1.4-6.7-2.8-6.6 1.2-12 2.6.2-2.4-1.6-2.8-1.3-5.3z"></path><path d="M50.5 647.4c-4-1-4.8 1.3-7.9 1.3-.4-2.4 1.2-2.7 1.3-1.3 2.6-1 3.5-3.6 4-6.7 2.5-1.3 4.4 4 5.3 0 3.7 1.7-4.2 2.8-2.7 6.7z"></path><path d="M34.6 662c-3.7-1.9 3.9-9.6 0 0z"></path><path d="M50.5 676.6c-2-.7 0-1.4 1.4-1.3.4 3.1 4.6 2.5 4 6.6-5 1.4-2.6-4.4-5.4-5.3z"></path><path d="M78.5 688.6c-.3-1.1.5-1.3 1.3-1.3s1.3.5 1.3 1.3-2.3.3-2.6 1.3c-4.8 1-4.8-2.3 0-1.3z"></path><path d="M976.3 740.5c.5-2.9 5.8 2.5 2.6 4-1.9-.3-.4-4-2.6-4z"></path><path d="M62.5 744.5c-2-.7-.1-1.4 1.3-1.4 2.6 2.4-2.3 4.6 4 4-1.6 1.9-4.5 2.5-7.9 2.7-1-3.6 2.7-2.6 3.9-4s-.5-1.3-1.3-1.3z"></path><path d="M70.5 747.1c3.7 2.1 5.6-1.5 9.3 1.3-1.1 3.3-9.3-.3-10.6 2.7-4.6-1.4 3.7-.4 1.3-4z"></path><path d="M1004.2 755.1c2.1 4.7-4.5.8-4 4-2.5-.1.3-5.7 4-4z"></path><path d="M923.1 830.9h3.9c0 1.3-1.6 1-2.6 1.3.3 4.1 6.6 2.3 5.3 8-3.3-3.3-6.8-3.1-4 2.7-3.8-2.1-4.1-5-4-8 0 .1 4.3-.3 1.4-4z"></path><path d="M1010.8 145.9c-.3 4.9-1.8 5.1 0 9.3-6.6-.2-10-.7-11.9-7.9h5.3c-.6-3-7.1-.1-8-2.7.4-.7 1.4-3 2.7-2.7s1.2 2.7 1.3 2.7 2.2-1.5 4-1.3c-.5-.1.9 1.2 1.3 1.3 2.2.6 3 1.1 5.3 1.3z"></path></g></g></svg>