<svg xmlns="http://www.w3.org/2000/svg" width="1080" height="1058.1" viewBox="-0.020380321890115738 0.029975175857543945 1079.9976806640625 1058.0858154296875" style=""><g><g data-name="Слой 2"><path d="M729.5 145.5c4.8-4.7 8.2-10.3 12.2-15.7 27.2-36.5 68.1-69.1 121.3-79.7a186.3 186.3 0 0 1 99.5 7.5c28 10.2 47.3 27.7 63.3 51.8s28.5 50 34.1 81c5.9 33 3 71.9-5.5 104.3-15.4 58.9-49.5 106.4-94.7 135.5 6.1 6.6 14.2 10 21.1 15 19.8 14.4 37 34.2 51.8 54.5 20.2 27.6 35.8 57.8 43.6 98.1 8.5 43.7 1.7 86.8-10.9 123.3-18 52.4-51.6 92.1-90.6 122.6-13.1 10.3-28.2 20-44.3 26.6-33.8 14-82.1 14.5-125.3 8.2-39.8-5.9-69.6-24.8-97.4-44.3s-52.3-41.4-70.9-70.9c-2.5 24-4.9 46.2-10.2 67.5a400.8 400.8 0 0 1-19.1 57.9c-29.7 72.4-76.2 128.8-152.6 156.7-38.4 14-88.7 17.3-132.8 4.8-80.1-22.9-124.9-83.6-143.1-166.3-10.2-46.5-3.6-98.1 9.6-135.5 6.9-19.9 13.2-38 22.5-54.5a361.1 361.1 0 0 1 30.6-46.4c-19.8 3.1-37.4 6.8-61.3 5.5-22.2-1.2-42.7-7.2-60.6-15s-34.3-16.8-47.7-27.9c-29-24.2-45.6-55.3-57.9-92.7C1.4 478.4-4 434.6 3.3 385.3a341.6 341.6 0 0 1 37.4-113.1c16.9-31.7 41.6-58.1 70.9-80.4s62.2-40.5 98.8-51.8c21.1-6.5 43.6-9.4 66.7-6.1 20.7 2.9 40 9.4 58.6 16.3 37.1 13.8 63.7 34.1 85.9 64.8 6.8-82.6 33.2-152 89.2-190.1C527.6 13.5 553.5 2.2 579.6.4c49-3.4 81.9 17.1 105.6 42.2s37.6 60.9 44.3 102.9z" fill="#b99a7e" fill-rule="evenodd"></path><path d="M501.6 87.2v4.1a3.8 3.8 0 0 1 0-4.1zM113.3 327l-.3-3.4a9.8 9.8 0 0 0 .3 3.4zM47.6 477.9h1.3v-.2l1 .4a2.1 2.1 0 0 0-2.3-.2zm-6.5-12.6v3.4a5.6 5.6 0 0 0 0-3.4zM82 280.7l.6 4.1c0-2.1.7-2.5-.6-4.1zm3.4 237.1l3.4-.5a6.6 6.6 0 0 0-3.4.5zm-3.4-246v3.4a5.6 5.6 0 0 0 0-3.4zm202.3 110.4v2.7a5 5 0 0 0 0-2.7zM113 342.3a11.2 11.2 0 0 0 1 2.4zm1 16.1v-3.5a5.3 5.3 0 0 0 0 3.5zm1.3-21.5l-2-2.4c.6 1.2.5 2.5 2 2.4zm127.1 181.9l-1-.4c1.1.8 1.9 1.1 2.7.7s-1.9-.6-1.7-.3zm-69.8-257h2.7a8.2 8.2 0 0 0-2.7 0zm104.2-35.6l-.3-1h.3c-.1-.2.2-1-.3-.8l.3-1c-.7 1.2-.7 2.2 0 2.8zm-82.4 30v3.4a5.6 5.6 0 0 0 0-3.4zm88.9 125l.9.7c-.6.2-1.6 1.4-.3 1.3s.5-1.1 1.4-.7c.7-2.9-1.1-3-2-1.3zm-2.9 3v-2.7a8.2 8.2 0 0 0 0 2.7zm-111.2 90.6l-2.4 1.1zm-32.7 116.5l-3.5.7a2.7 2.7 0 0 0 3.5-.7zm-53.9-50.4v2.8a3.9 3.9 0 0 0 0-2.8zm34.1 57.3v4a5.5 5.5 0 0 0 0-4zm-32-78.4l2 1.4a12.1 12.1 0 0 0-2-1.4zm33.7-283.9a12.8 12.8 0 0 1-1-1.5l.3 3.4a4.9 4.9 0 0 0 .7-1.9zm269.8 193l-.4 1c.8-.9.5-1.8 0-2.7l.4 1c-.2-.1-.2-.2-.4-.2s-.1.9.4.9zm-44 169.3v4a5.5 5.5 0 0 0 0-4zm-64.7-355.9l1.8 3.6a3 3 0 0 0-1.8-3.6zm108.6 120.8l-1 2.1zm-78.6-91.3v3.4a5.6 5.6 0 0 0 0-3.4zm.7 269.1v2.8a5.3 5.3 0 0 0 0-2.8zm17 291.8h2.7a8.2 8.2 0 0 0-2.7 0zM349 667.2l-2-.9zm-46.7-147.7a6.3 6.3 0 0 0 2.4-1.1zm38.2-195.9a13.1 13.1 0 0 0 .3 3.4zm.3 20.1v-2.4a3.9 3.9 0 0 0 0 2.4zm-121.2 97.4a7.8 7.8 0 0 0-2.1.4zm-9.9.7l1.7-.4a5.8 5.8 0 0 0-2.7.6zm131.1-211.5l.5-3.1h-.1l.3-1.2c-1.8.8-.5 2.8-.7 4.3zm-59.6-15.7a10.2 10.2 0 0 0-.3-3.4zm-51.4 111.7l-.5-3.4a5.7 5.7 0 0 0 .5 3.4zm73.1-160.1v-2.7a6.2 6.2 0 0 0 0 2.7zm-25.8 91.3a9.3 9.3 0 0 0 1 2.1zm3.8-78.3v3.4a5.6 5.6 0 0 0 0-3.4zm-2.4 93.3v-2.7a6.2 6.2 0 0 0 0 2.7zm264 581.1a13.8 13.8 0 0 0 .3-3.4zm121.6-475.1l-1 .3 1 .3zm3.5 1.7c.2-1.4-.4-2.8-.7-4.1zM691 406h-4.1a5.3 5.3 0 0 0 4.1 0zm-25.9-25.8l-2-1.4a3.1 3.1 0 0 0 2 1.4zm63.4 356.2c.1-.1 2 .4 1.7-.3l1 .3a2.4 2.4 0 0 0-2.7 0zm-65.8-356.6a2.3 2.3 0 0 0 0-2c-.9 0-.9 1.9 0 2zm25.6 360.7l-2.1 1.7c.7 0 1.2-.6 2.1-1.7zm0-227.5c-.5.3-3 .7-2.4 1.7l-1-.3c1.3 1.5 2.7-.3 3.4-1.4zm67.4 71.5h-2a2.3 2.3 0 0 0 2 0zm-91.3-208.4a9.3 9.3 0 0 0-1.3 2.7zm-382.8 4.7a5.8 5.8 0 0 0 2.6 1.1zm255.1 610.8c3.5 2.3 2.7-2.7 2.7-4.8-1.1-.1-2.4.1-2-1.4-2.7-1.1-.3 3-2.1 2.8 0-1.5-1.1-.3-1.5.3-3.3 0-1.2 8.1-1.8 11.4 1.9-2.5 9.1-5.3 4.7-8.3zM765.6 854c1.1 0 2.7-4.5 0-4.1-.6.4-1.5 3.8 0 4.1zm-21.9-321.9v-2.8a5.3 5.3 0 0 0 0 2.8zm4.3 0a14.9 14.9 0 0 0 .2-2.1zM816.8 880c-6.3.1-6.9-1.6-6.3-7.7-6.5-2.8-23.9 2.1-26.5-3.4.8-.1.5-1.2.7-2a1.3 1.3 0 0 0 .6-2c31.1 3 26.4-1.9 24.6-29.3-11.7-.2-26.4-.2-38.9 0-.7 4.6 2.3 11.7-1.2 11.2-5.5 4.1-6-5.5-5.6-10.6-19.7-2.9-20.6 2.8-19.2 21.6-7.6-1.5-9.6-13.3-3.9-18.2-11.8-4.5-26.5 4.4-36.9-7.9 3.6-17.9.1-31.6.8-51.3-2.4-.7-6.7-.3-9.6-2.1-28.4 5.5-23.5-12.6-24.2 26.5-9.2-6-8.3-13.9-7.8-24.4-7.3-5.5-16.3 3.7-21.1-9 8.4.6 15.9 1.6 22.5-1.9-5.3.3-1.6-19.5-4.8-25.9-11.7.5-22.7-.3-32 2 2.6 9.6-4.1 28.2 8 25.6.3 6.3-1.7 7.2-7.4 7.8 2.6 7.5.6 19.5 2.1 27.3-1.5.5-1.7 2.4-2.7 3.4 5.6 8.3-3.7 24.5-5.1 34.9-2.3-9.9-25.1-2.6-32.4-4.3-1.3 3.3.8 7.2.7 11.6-.2 5.9-4.2 13.4 1.3 17 .8-1.2.9-3.2 3.4-2.7 7.4-.1 14.3.1 20.1-.1-.8 10.5-11.7 6.2-19.4 6.9.6-2.2-1-2.1-2-2.7 1.5 4.2-3.6 1.9-4.8 3.4.3 12.7-7.9 32.8 12.2 27.7-1.3 7.9-7.8 6.4-13.5 7.1-1.3 10.9.3 24.5-8.2 33.8 0-13.2 0-22.5.7-33.2-30.2 1.5-40.7-12.3-40.9 24.6-2.8-4.1-2.3-.6-5.5-2.1 1.5-30.1 4.3-19.2-20.4-24.5-.7 11.4.2 26.2 0 37.5 27.3.4 14.2 3.3 21.7-11.3 3.1-3.1 1.5 3.5 4.9 3.8-.3 3.8-1.5 8.7 4.1 7.5l-.4 1c1.7.4.6 2.3 3.1 1.7-.5-2.1 1.6-1 .7-2.7 11.8-.8 22.3 1.6 30.8-.5l-3.7 5.8-1.9-1.9c2.6 7.9-26.7.9-33.4 3.4-.4 14.5-4.8 27.8 16.2 23.7-7.2 16.3-45.6-2.3-44.1 11.7-1-.4-1.2-.3-1.4.7s-2.2-2.9-2 0l-1.1-.4.4 1.1c-2-.7-2.6-1.1-3.4-1.4 1.4-10.7-16.2-2.5-24.6-5.5l.4-1.2c-1.6-.6-.4-2.7-2.4-2.2l.3-1.2c-3.7-2.5 5.9-3.5 5.1-.1 5.6-2.2 13.7-1.8 21.2-2.1 2.1-19.7 5.7-24.8-16.4-23.8 1.2-2.3.5-3.8-1.4-4.8 12.8-4.4 20.6 5 20.5-12.9-2.6-26.8 6.6-24.5-26.6-24.5 2.4-.3-1.1-4.3-.7-.7l-1-.4c-.5 4.6-11.1-.8-13.3 2.4.6 11.1-.5 21.9 0 34.1 3.3 1 29.7-1.3 16.4 4.7 1.7-.1 1.4 1 .3 1.5l.4 1.3c-24.6-5-15.9 6.2-18.4 23.1 6.2.4 11.7-1.5 13.6 3.4.5 1.9-1.6 1.7-.7 3.4-20.9-3.8-10.2 20.2-12.9 30.7 13.7 1 24.8.9 39.5.7-.3-8.4 1-11.5.7-20.5 1.9-.5 1.7 1 3.4.7.5-2.5-3.6-.4-2.8-3.4 1-.9 2.7.2 4.5.4l-.4-1.1h1.3l-.2 1.1c3.3 1.2.9 4.3-1.1 5.1 7.5.8-3.7 19.7 6.7 17.7-3.9 2.9-8 5.7-12.2 8.4-67.8-10.7-21.9 11.2-47.2 23.6 5.8-33.1-8.8-26.4-33.8-25.2-3.2 11.7 6.6 35.1-8.2 35.9-.8-34.8 10.8-39.8-31.3-36.6.2 15.9-.6 24.3-1.9 39.2-15.5 2.2-1.9-27.5-5.6-38.5-9.8-.8-14.6-.1-21.8 0-1.3-.3-.5-2.6-2.7-2 .9 3.6-4 1.4-6.1 2-.8 10.5-1.1 23.2-1.9 35.4-15.6.3-1.7-26.5-6.3-35.4-25.6.5-35.7-6.2-32 24.5-12.2.2-6.8-14.4-6.9-23.8-3.3-1.1-9.1 1.1-12.2-1.4-3.6 3.9-1.4 11.7-2.4 16.1-2.6-1.3-5.2-2.7-7.7-4.2 5.2-17.5-17.1-4.2-24.1-16.8 9.3 1.6 13.2.3 24.7.1-.2-5.6 1-13.9.6-21.8 2-.5 1.8 1 3.4.7.6-2.5-3.6-.4-2.7-3.4 1.6.1 3.4-.4 4.7.8.1-.4-.2-1.8.6-1.5l-.2 1.1 1 .3c2.4 5.7-1.5 1.7-2 5.5 9.7 8.4-9.4 22.4 16.3 17-.8-2.7 2-1.7 2.1-3.4-4.7-6.9 1.6-21.2-2.1-26.6-2.8 2.8-14.6-3-13.6 4.1-.9-.4-1.1-.3-1.3.7s-2.1-2.5-2.1-.7c-1 .2-1.1.4-.7 1.4-1.5-1-4-1-3.4-4.1-13.3-.3-23.8 2.4-38.8 2-1.2 4-1.3 9.2-1.1 14.4-7.4-8.3-9.3-12.7-16.7-19.8 15.8 1.7 7.3-17.9 9.6-29.3-2.6 2.9-7.3-3.6-7.5 1.3-2-.1-3.6.2-5.4 0-8.7-.5-14.7 3.8-17.3-6.5a3.8 3.8 0 0 1 2.3 3.1c2.8-6.7 17-1.8 27.2-3.4 2.5-30.1 9.9-37.3-28.6-34-4.9-10.7-1.9 24.6-3.6 28.5a68 68 0 0 1-7.3-27.2c-3.3-3.9-3.7.7-5.4-7.9 11.8-.5 2.5-16.2 4.7-26.1-6.4.9-12.7 2.3-12.2-6.2 20.8 3.6 8.4-21.6 10.2-35.4-7.6-.6-15.2 3.1-13.1-6.6 21 4.5 8.6-14 14.5-24-4.1-.5-2-18.1-2.1-21.9h-7.6c.4-5.5 1.6-8.9 7.6-7.4 1.7-10.8-.3-32 7.4-44.5-1.3 14.3 5.3 4.6 8.3 11.8.9-5.7 17.2-2.9 23.8-2.8 2.9-2.5 1.3-6.9 1.4-10.9 3.8-24.3 1.8-25.7-23.2-23.7 2.1-9.9 10-4.9 18.4-6.9 2-.2 2.4 1.3 3.4 2 7.3-4.7 1.6-19.8 4.1-27.9-1.6-1.5-4-1.5-6.8-1.2 5.3-7 8.2-12.2 13.6-19.7-5.3 21.8 26.3 8.1 40.2 9.3-.8-4.9.8-13.2.7-19.1-.1-3.4-2-8.3 2.7-6.1 10.8 9-8.7 34.2 20.5 24.5-1.6-37.1 8.2-23.7-15.7-31.3 1 3-2.3 1.8-2 4.1a1.3 1.3 0 0 0-2.1.7c-3.8-3.4-7.2-3.1-14.3-2.8l.4-1.2c-1.6-.6-.4-2.7-2.4-2.2.4 1.9-1.6 1.7-.7 3.4-6.7-1.1-15.9 1.8-21.8-1.3-.1 2.8-5.6.2-6.1 2.7.1 5.2 4 15.6-5 14.6-2.5-3.4 0-11.9-1.9-16-11.8-.1-20.9 1-32.7 0 .8 25.9-11.7 27.2-6.8.7-15.4 1.2-38.5-7.8-33.7 15.9-10.2.1-5.4-7.8-5.8-15.2-3.3-2.1-7.3.6-10.2-2-2.4 5.5-21.9-3.8-22.5 4.5-6.6-2.9-13-6-19.1-9.3 4-.3 7.7-.4 10.3.7-2.1-2.1 1.1-.1 2-1.4a254.7 254.7 0 0 0 0-32.7c-24.4-.2-31.9-5-29.3 22.9-9.5-3.7-6.3-13.9-6.1-21.5-9.7-2.1-19.5 3.1-24.7-7.2 34.3 2.1 22.4-1.3 27.4-28.9a160.6 160.6 0 0 0-17 0l.3-1.1c-1.7-.1-.3-2.2-2.4-1.7.5 2.1-1.5 1-.6 2.8-11.9.9-22.4-3.3-19.7 12.1a194.9 194.9 0 0 1-10.2-18.4c8.4-.9 4.6-19.2 4.6-28.5H22.4l.3-1.2c-1.6-.7-.4-2.7-2.4-2.2.5 1.8-1.6 1.7-.7 3.4-4.1 1-3.8-3.6-5.1-6.5 24.1 4.1 20.1-9.3 19.4-27.5.4-1.2 3.3 0 3.4-1.4-2.5.4-3.4-1.7-3.4-5.5-10.2-.6-18.4-.4-28.6-.5A281.9 281.9 0 0 1 2 395.3c-.7 9.8 2.9 4.8 7.4 8.4 3.8-3.5 14.8.3 19.8-2.1 1.7 1.8 3.7 3 5.4.7.6 2.4-1.3 2.9 0 4.1l-.3 1c-.2 3.2-7.6 1-9.9 1 .4-.9.3-1.1-.7-1.3a3.3 3.3 0 0 0 .7-2.1c-7.5 6.2-12.1 2.5-21.8 4.8-.9 8.5 1.2 20 1.4 31.3 2.6.3 4.3-1.7 5.4.7.7-.6.2-2.5 2-2 8 0 16.2-.3 23.2.6 2.3-10.3 4.5-22.6 2.1-32 1.3-35.6 13.7-44.7-30.5-40.1 1.2-13.8 19.6-4.4 31.8-6.9a224 224 0 0 0 0-52.4c-4.2-1.3-9.2.6-14.4.1 1.3-8.8 8.2-7.2 15.1-6.9-1.1-17.7-1.6-28.9 9.6-42.9 9.4-.6 18.7.7 27.9-.1-1.6-6.3 4.9-30.3-6.6-28.4 4-4.6 8.1-9 12.4-13.3-1 11.6 9 3.9 15.3 8.4 5.4-3 11 .4 15-.7-1.2-6.9 3.4-25.8-2.3-32.2 3.1-2.5 6.4-4.7 9.6-7.1 58.9 8.3 16.8-9 39.8-24.7-2.4 7.6 2 18-2.2 23.8 1.5-.1 2.2.5 2.1 2 19-2.1 29 8.3 32.7-11.6-1.2-.6-2.4-1.2-2.1-3.4 2.5-3.7-.9-6.3 0-12.2-9.4-.2-16.4-.2-27.6-.1 20.9-12.1 15.9.2 34.8-15.2-3.5 16.2 17.2 6.4 26.2 9.8 3-6.1-5.2-20 6.7-19.1-6 29 23.8 17.3 43.7 19.8 3-4.1-3.1-21 3.4-21.1 8-.1 2.9 16.9 4.1 21.1 17 1.2 21.9 1.9 19.3-16.3 9.6.3 6.2 8.9 7.3 16.3 6.8-1 32.6 5.9 31.4-3.4 8.5 4 16.2 6.6 25.1 11.7-8.1-.9-9.9-.3-17.7-.8.8 17.1-6.1 33 17 28.6-.4 1-.3 1.2.7 1.4s.3 2.9 2.1 2.7c1-1.8-3.9-1.6-.4-3.1l-.3-1c4.5.3 8.5 1.1 13.6.7-.7-3 1.4-3.1 2.1-4.8-2.2-4-1.5-8.6-1.2-13.7 4.6 2.7 8.2 5.7 4.6 11 2.7 1.9 2.9 5.3 0 6.8 7.5 3.1 19.1-1.7 24 7.9-3.7.3-7.4.4-9.7-1.8-3 4-6.3-.2-12.3 1.4-3.6 6.3 1.6 11.1-2 17.7 1.7 25.5 7.2 13.9 31.3 15.7-1.6-3.2 2.9-3.8 1.4-4.8-3.3 1.2-.4-5.6-.7-8.2-2.7-3.8 1.3-5.7-.2-10.6 1.7 2.1 3.3 4.3 5 6.6.3-3.7.7-7.3 1-11-3.1 34.5 1.2 29.2 29.6 28.7.7-11.7-.4-21-.7-32.1-5-3-13.4.9-17-2.7-1.7 3.3-8.6.6-10.9 0 .1 1.2 0 2-.6 2.4-2.3-15.5 20-3.9 28.5-7.8-1.1-22.1 7.6-34-22.3-30.5-.1-12 12.4-5.3 21.6-7 3-6.2-4.5-22.2 3.5-23.8-1.7-6.3-8-6.6-15.1-5.9 4.5-16.5 16 6.5 10.4-25.8 9.5-25 6.6 9.8 7.4 18.7 13.6.3 26.1-1.1 43.6-.7 1.7-9.3-.5-17.1 0-26.5.9.4 1.1.3 1.3-.7 2.3.8 1.7-4.3 0-2.1-.2-1-.4-1.1-1.3-.6.4-2.6-3.7-9.5-2.7-4.1-15.8-.3-27.8.2-39.7-.6 6.4-13.3 27.3-3.1 41.7-6.2-3.5-18.8 8-33.6-14.7-30 3.7-3.9 6.4-8.1 12.7-6.8-.5-5.6 3.3-8.2 7.6-11.1-.5 21.3 4.2 4.9 10.1 13.1 2.3.5.8-2.7 3.4-2 4.2 1.4 14.9-1.5 21.8.7-1-8.3 6.9-30.3-3.1-30 10.1-4.1 22.6-8.4 33-6.2 2 .5 8.6-2.5 7.9 1.3l1 .8c-1.3 1.3.4 1.2 0 3.4-31.8.1-31.9-3.6-31.3 30h40.8c1-10 1.5-22.6.7-30.7-10.2-2.7-9.9-3.7-9.9-3.7-.6-4.9 4.7.2 7.9-1.7 2.5 0 5.3-6.2 7.8-2.4.5-2 1.1-.3 1 1 13.6 2.5 30-.3 43 7.5-12.1-.9-4.9 21.1-6.2 30 6.9.5 19.6-.6 26.6 0 .9-3.2-2.1-8.9 1.3-11.6-2-1-2.2-4.2-2.1-7.8 8.5 3.2 7.6 11.3 6.9 18.7 8.5 1.1 18-1.4 22.8 7.5-7 .6-15.8-.6-22.8 0 1.3 14.3-2.8 26.2.7 32.7 14.2.8 21.8-.3 34.1.7 4.8-1.6-1.7-10.7 3.9-10.9 3.4 6.2 6.1 11.8 9 18.2-9.1 1.2-1 18.3-3.4 28.1 7.6 2.3 14.6-1.6 14.7 7.6a108.2 108.2 0 0 0-16.1 1.2c3.2.3 2.7 7.5.7 8.2 5.2 32.5-8.6 23.3 32.7 23.2-.4-16.8-3.3-28 10-39.2 3.7.1.9 1.2 3 2.4-.7 1-1.3 2.9-.7 4.1-2.2 1.4-4.3-.8-6.2 1.3 1.6 17.9-6.2 35.4 16.4 30.7 2.4-11.4.5-17.9.7-31.3-2.8-1.5-6.6 1-10.2-.7a1.3 1.3 0 0 0 .6-2.1c.8-.1.6-1.2.7-2a1.3 1.3 0 0 0 .7-2c16 1.9 3.3-15.9 16.2-21.7-.4 8.1-.6 12.6-1.2 21.7 14.5-1 25.8.4 44.3 0 1.7-8.3-2.1-18.7 1.3-26.6-1.1-.6-3.9-4.1-1.7-4.4l-.3-1.1c3.6-5.4-3.7-20.7 8.1-22.3-.1 5.6-.4 10.8-.6 17.6l-1-.4c-.2 1.8-2.3.3-1.7 2.4 2.1-.5.9 1.6 2.7.7 7.8 5.1 21.8 2.2 30 2 2-3.6-6.1-34.6 6.8-34.1 1.9 29.2-10.8 38.5 26.5 34.1.6-16.7.5-23 .1-37.9 15.1-1.6 1.4 30.5 7.4 37.9 13.6 1.7 25.5-3 34.8.7.8-5.3 1.7-10.3.7-15.6 1 .3 3.9-2.3 3 .3.6.1 1.3.3 1 1s2.1-1.2 2.8.7c-3.5 17.8 12.1 6.2 20.4 12.3 12.6-8.2 11 11.4 10-24.8 17.7 7.8-6.3 28.8 26.8 23.4 1.8-.5 1.3 1.4 2 2-.6-2.8 4-2.1 8-1.9 12.6 8.9 12 20.3 10.4 36 6.3 5.8 20-3.6 22.7 8.6-9.8 1.2-25.7-5.8-21.3 9.8-1 .1-2.5-.2-2.7.7 4.4 2.7 1.8 9.4 3.4 12.9s11.8-3.5 13.6 2.1c3.7-5.1 15.5 1.4 17.5-3.8 7.1 13.1 8.3 29.2 7.7 43.3 5.7 0 5.9 2.9 6.3 7.9-12-2.9-4.3 22.9-6.3 29.5 2.6-.7 1.9 1.7 4.1 1.4 6.7-4.7 5 9.6-4.1 5.5-1.6 7.5-.2 17.9-.7 26.5a48.5 48.5 0 0 1 6.2-.5c-.6 4.3 0 8.4-5.5 6.7-3.6 8.6.8 18.6-1.5 27.9-7.1 26.9-4.1 18-27.1 19.7-2.8.3-6.3-1.3-8.9 0-.3 2.2 2.1 1.6 1.4 4.1-1.2 10.3 1.5 22 0 30.7-2.3 6.7 1.8 7.5 7.5 8.8-1.6 3.2-3 6.3-6.8 5.5 0 6-3.5 10.6-7.2 15.2 0-5.3-.4-11.1-.3-15.2-11.5-.8-16.7.1-28.6 0-1.5-13.2-4.1 23.9-2.8 30 6.3.3 12.5.5 18.7.5-4.5 7.2-10.9 7.3-18.7 7-4.3 4.2 1.8 8.9-2.7 11.5-.2.8.1 1 .5 1.2l-5.2 4.1a106.6 106.6 0 0 0-.7-17.5c-10 1.7-23.8-.8-33.4.7-2 7.8-1.2 19.3.7 29.3 27.6-.3 42.9 1.9 38.1 34 11.2 2.3 26.4-5.2 33.7 6.8h-4.4c.4-.9.3-1.1-.7-1.3s-.1-1.2-.6-1.4-.3.6-.7.7-.1 1.2-1.1 1l.4 1c-5.3-1.5-12.8 2-17.7-2-.9 4-8.1.1-10.9 3.4 3.2-1.7 1.3 31.4 0 31.3 40.3-1 37.6 12.1 36.7-31.5 9.6 8.2 6.7 18.4 6.9 31.5 7.9 2.1 19.6-2.8 23.1 8-7.4-.5-14.1-.4-23.1-.5 1.2 9.2.5 19.2 0 27.3-5.4-1.4-3 3.5-1.4 1.3a1.5 1.5 0 0 0 1.4 1.4c-.1 1.2.8 1.4.7 2.7 29.8 3.3 26.8-1.8 25.6-27 6.4 7.6 7.5 17.2 6.4 26.3 5.6.4 9.4.7 10.6 7.1-19.2-3.6-5.8 20.3-11.3 31.8 5.5 5.3 12.9-.3 17 4.7h-.6c.6 2.2-1.3 2.7-2.4 2.4-2.3 3.9-8.4.1-12 1.7-.3 1.8 1.2 5.9-1.7 4.5l.2 1c-2.3-.4-2.5 2.8.2 2 .2 1 .4 1.1 1.3.7.9 6.2-.4 13.3 0 21.1.9 1.7 5.4-.4 6.2 1.4-1 .5-1.2 1.1-.7 2-1.5-.3-1.3 1-1.4 2.1a1.3 1.3 0 0 0-.7 2h-4.7c4.6 29.1-10.3 30.8 26.5 28.9 1.1 13.1-18.4 2.2-25.8 7.9-1.1 21-7.2 32 19.3 30-.3 10.9-13.8 3.2-21.4 6.1 3.5 9.3-10.2 36.3 8.6 32.4-1.3 5.5-3.7 7.3-9.3 6.4-4.1 9.3-1.8 23.1-10.7 31.7 2.9-30 10-34.8-24.7-32.3-.2 30.4-9 34.4 24.1 33.3-4 11.3-17.3 2.7-24.8 7.5-1.2 11.6 4.4 24.2-6.5 31.6 2.4-38.3.9-33.3-35.7-32.9 3.3 23.1-10.4 54.1 20.9 47.2-6.9 11.4-23.7.4-20.5 17.2l-6.5 4.8c.4-3.9-1.4-8.6 2.7-10.7-3.5.8-2.5-2.9-3.4-4.7-9.2.1-17.4.3-25.2 0 2 6.8-6 28.4 2.6 29.7-2.4.8-15.7 9.5-13.5 3.7-5.4 5.6-20 4.1-28.6 2.7-2.4 4.3-1.5 10-8.8 9.1 1.9-14.5-24.3-6.6-34.8-7.1 0 2.4.7 6.7-.5 9.4-13.2 1.6 1.7-13.8-16.6-10.1-4.3-3.3-10.5 3-14.3-2-5.6 4.3-9.7-1.9-8.7 9.7zM37.3 448.6c-32.8-5.4-35.6-8.3-32.7 27.9 38.2.2 27.7 8.5 32.7-27.9zm157.4 329.1c30.4-2 33.2 5.4 32.7-29.3-1.4-.2-4.9-4.5-4.8 0-3.2-.5-8.4 1.1-9.5-1.4-21.7 7.7-20.5-11.3-18.4 30.7zm0 53.1c3.3-1.1 2.6 2 4.8 2s-.4-3.1 2-2c44.6 5.2 20.6-14.1 26.6-46.3-3-3.3-9.5-.9-15-.7s-9.4-.6-12.3.7-4.1-2.6-5.4-.7c-5 3 .2 16.3-3.4 22.5 3.3-.1 2.8 19.4.7 18.4 1.8.8 1.7 3.6 2 6.1zm35.4 74.2c-1.4-21.9 6.7-29.2-18.4-27.2l.4-1.3c-5.2-5.1 2.2-4.7 5.8-4.8l-.4 1.2c1.6.7.4 2.7 2.4 2.2-.5-1.8 1.6-1.7.7-3.4 3-.2 6.1-1.4 8.8 0 1.8-37.6 3.2-36.4-34.7-33.4-.5 11.6 1.5 21.5 1.4 34 5.4 1.7 14.5-2.5 13.6 3.5s-8.6 1.2-13 4c-1.7 38 2.8 20.5 30.7 27.3.6-1 1-2.2 2.7-2.1zM850 835.6c-7.1-3.5-23.4 0-32.6 0a220 220 0 0 1 0 29.3c30.7 3 36.7 4.7 32.6-29.3zm-.6-281.4c-8.4-1-19.4 1.1-27.3-1.4.2 3.2-5.8.1-6.8 2.1.5 9.6-.8 18.6 0 26.6 4.7-.2 6.2-.9 8.2 2 0-1.1-.1-2.4 1.3-2 31.6 5.7 24.5-1.6 24.6-27.3zM846.6 668c-3.5-.3-8.6.9-10.2-1.4-2.7 2.4-11.1 1.7-10.9-.7-1.7 4.3-7.6.3-10.9 1.4-.8 9.7-1.6 18.7-.7 27.2 25.4-1.7 38.5 6.9 32.7-26.5zm-32.7-248h.7a3.6 3.6 0 0 1 0-2.7c-2.6-4.9.7-8.7 1.4-13-13.8-1.3-31.8-1-45 0 1.4 12.2-6 31.6 11.6 28.7a1.3 1.3 0 0 0 .7 2c0 1.2.5 1.8 1.4 2-.6-2.4 1.5-2.2.6-4 14.9-.7 31.7 7.4 28.6-13zM771 289.2l-1-.3c.3 1.5-1.5.5-1 2.4.9-.2 1.2.1 1 1l1-.4c-6.1 31.5 19.2 14.4 37.5 21.8-3.4 1 5.1-1.4 5.4 5.5-12.3-1.3-25.4 1.6-37.4-2.7-.6 2.9-3.6-.4-4.8 1.3-1.3 11-2.1 24.6 0 34.8 6.6-.7 31.2-1.1 27.9 2.7 3.4-.1.3-2.4 3.4-2.7 22.4 6.5 5.7-22.9 13.7-34.8-3.9.9.1-2.7-2.1-4.1l1-.3c-.1-9.3.9-27.5 1.8-40.5-14 .3-28.5.7-45.7.6-1.8 5.1-.4 9.2-.7 15.7zM817.4 420c.4-.9.3-1.1-.7-1.4.1-3.8-4.8 1.6 0 1.4l-.4 1c5.7.6 4.4 6.8 4.5 12.6 31.9 3.7 30-1.6 27.9-29.9-7-2-15.6 1-25.2-1.4-3.9 2.7-3.8 12.7-2.7 15-1.4.7-1.1 3-3.4 2.7zM769 369.6c.1 2.4 2.2-1.5 2 .7.2 10.2-.3 17.4 0 26.5 10 2.9 29.6-3.8 36.8 2.1 12.2-3.5 5-25.9 6.8-38.2-15.9-2.1-26.9-.7-42.9-2.7-2.1 4.8.3 8.4-2.7 11.6zm78.3 260.9c-32.8.1-35.1-5.7-32.7 30.7 32.4 1.5 35.7 4.7 32.7-30.7zm.7-40.9c-11 .1-21.3-1.4-33.4-2 .7 12-1.6 25.9.7 36.8 37.6.9 34.9 2 32.7-34.8zm2-74.9c-10.1-.7-19.9 0-32 .7-.6 9.7-2.6 22.5-.6 32 3.7.5 8.3-2.1 10.2 1.4-.4-3.4 17.9 0 21.8-1.4 1.9-9.7-.2-22.1.6-32.7zm-.6-41.6c-36-2.6-31.2.8-31.4 34.8 36.7 1.9 34.1.8 31.4-34.8zm1.3-24.8c4.1-1 1.3-1 .4-2.7l-1.1.3c-1.5-1.5.3-2.7 0-4.8-2.5-1.8-9.7 1.8-13.6-1.3-4.1-.2-8.7 1.7-10.9 0 .1 0 1.1-2.1-.7-1.4-.4 3.5-3.8.6-5.4 3.4 1.6 9-.5 15.9 0 25.2 22.3-4.4 33.4 10.6 30.6-19.1zm2.1 245.6c3.1.7 9.3-1.7 10.2 1.3 26.4-4.7 24.1 6.9 23.2-27.2-5.7-1.3-13.7 2.8-13-4.1a2.6 2.6 0 0 0 0-2.1c22 3.5 10.6-16.8 14.3-29.9-34.5-2.9-33.5-7.1-32.7 29.9 6.3.5 15.7-2.5 17.7 2.1-.6 0-.5.8-.6 1.4s-1.2 1-.7 2c-24.1-2.4-13.6 11.5-18.4 26.6zm38.1-220.8c-39.7-.7-33.8-7-33.4 33.4 39.4 4.1 35.9-.3 33.4-33.4zm-.7 81.1c-5-.4-12.2 1.3-14.3-2-28 6.3-15.9-5.1-19 31.3 32.8 2.1 34 3.9 33.3-29.3zm.7-7.5c3.1-37.6 1-35.7-34-31.3 2.5 41.3-8.3 31.3 34 31.3zm-.7-97.4c.1-3.1 2.1-6.4 0-8.9-13.3.3-23-1.6-34 1.4 1.7 10.5-3.2 24.1 8.2 26.6-.3-1.8 1.4-1.8 2.7-2.1 17.1-.7 27.5 5.8 23.1-17zm-.6-45.6c-8.9-1.6-20.2.8-33.4-.7-.3 13.2-.7 20.7 0 30.6 33.6 1.8 37.2 4.9 33.4-29.9zm-34.1 220c36.8 2.4 32.9 2.4 32.7-32.7-38.2-2.4-31.5-2.6-32.7 32.7zm0 111c39.9 1.7 31.2.2 31.3-34-40.1-1.4-33.4-4.2-31.3 34zm-.7 6.9c1.7 11.1 1.3 21.8 2.1 32.7 4.6 1.1 9.7-1.5 12.9 2 .6-5.4 18.4 3.7 21.8-6.8-9-34.9 8.7-27.8-36.8-27.9zm2.7 70.1c-.8 4.2 1.2 10.3.7 16.4 11.8.3 20.1.3 33.4 0 0-15.9-.3-31.5-1.4-46.4h-11.5c-1.1-2.6-2.2-.8-4.1-.6-28.6-3.4-11.4 14.1-19.1 29.3 1.1 0 2.4-.1 2 1.3zm35.5 53.8c-1.9-38.9 3.9-29.8-34.8-30.6-2.9 11.1.1 19.5-1.3 30 2.2.9 5.7.6 7.5 2 7.5-4.2 18.8.7 28.6-1.4zm38.8-461.8c-15.3-.2-23.3-1.1-35.4 0 1.2 7.8.5 21.7 2.7 30.6 2 1.4 4.8-2.5 6.1 1.4 5.9-3.7 17-2.2 25.9-2.7.3-5.5-.4-9.7 2.7-13.7-3.8-4.2-1.4-9.4-2-15.6zm-32.7 143.7c36.3 1.6 29.5.3 32-33.4-11.5-1.2-19.8-.5-32-.7.5 13.5-2.1 21.6 0 34.1zm32.7-40.9c2-41.7 5.8-33.2-32.7-33.4-1.2 37.7-3.6 35.1 32.7 33.4zm-2.7-67.4l.3-1-1 .3c.1-2.2-1.4-1.1-1.3.4-6.7 2.3-19 1.6-27.3 1-2.7 24.4-5 29.3 23.1 26.5-.5 2 2.3 4.1 3.4 2.1 1.1-.3 1.2-.4.7-1.4 1.1-1.9 1.9 2.1 4.8.7.1-10.2 3.9-25.1-2.7-28.6zm-32.7 144.4c33.9 5.4 32.5 1.4 32-29.3-9.5-1.4-16.1 2.3-22.5-2-.2 3.4-6.2 1-8.2 2.7 1 10.6-2.4 20-1.3 28.6zm-2.1 39.5c35 4.8 34.9-.7 31.4-31.3-36.5-3.2-29.2-.1-31.4 31.3zm0 38.2c3.4-.2 5.8 1.6 9.6 0 1.1 0 .3 1.9 1.3 2 30.9-6.2 17.7.5 21.1-32-33.3-2.3-33.7-4.6-32 30zm0 32.7c10.9-.2 18.9.5 28.6 0-.5 2.4 2.9 3.9 3.4 1.3l1.1-.3c-1.8-7.3.1-18.7-1.7-28.3-28.8 3.5-35.6-7.1-31.4 27.3zm.7 40.2c14 .2 23.1.4 34.8 0-1.7-11.8-.1-23.7-2.8-33.4-4.6-.9-12.5 2.1-14.3-2.1-4.7 3.1-9.6 1.3-18.4 2.1-.1 14.2.9 20.4.7 33.4zm37.5 100.8c-12.8.5-20.6-.5-33.4 0-.4 11.9-1.1 20.1 0 30.6 1.6 1.3 5.7-1.5 6.1 2.1 31-8.3 28.3 8.1 27.3-32.7zm.7-7.5c-5.2-45.7 17.2-47.4-34.8-46.3 3.9 35-15.2 54.2 34.8 46.3zm0-54.5c-9.4-37.5 10.4-33.3-37.5-31.3 1.3 39.1-.7 36 37.5 31.3zm31.3-113.1c2.7-34.4 1.4-28.9-30.7-29.3-3 32-.7 32.9 30.7 29.3zm-28.6 34.7c30.3-.6 27.7 6.3 27.9-27.2-10.4-1.7-17.3.8-29.3-.7.1 8.4-1.5 21.1 1.4 27.9zm-.7 6.9c1 10.9 1 20.7 2.1 32.7 34 4.2 25.1-5.4 25.8-33.4-9.1-.8-16.5-.6-27.9.7zm4.8 73.5c32.8 3.5 22.7-8.1 22.5-33.4-33.3-5.1-25.3 6.5-22.5 33.4zm25.9 53.2c-4.2-30.6 11.9-53.1-25.9-46.4-.4 14.1 1 31.4-.7 46.4 9.1.4 17.6.2 26.6 0zm.6-234.4c-34.1-3.1-34.4-5.6-32.7 30 31.7 1.5 33.3 4.9 32.7-30zm2.8-22.5c-7.4-23.2 13.1-16.8-33.4-17 2.9 9.3-8.7 33.2 6.8 32-.4.7-1.6 2.5.7 2.1 6.4-5.2 16.7-.4 23.1-1.4 1.5-4.6-1.1-14.8 2.8-15.7zm38.8 171c-11.6-3.2-28.2.2-37.5-1.3-.3 15.4.3 20.7.7 34 1.7-.3 2.7-1.1 2.7 1.4 35.4-5.2 35.4 8.3 34.1-34.1zm2.7-25.2c-.4-.9-2.6-.1-2.7-1.3.8-6.1.3-10.7-.3-16-1.6.3-.6-1.6-2.4-1.1.1 1-.1 1.2-1.1 1.1l.4 1c-4 .2-14.8 1.8-17.7-1.4-3 3.8-9.7.4-16.4 2.1v32.7c6.3 2.1 15.6-3.1 19.8 2 2.3 0 2.3-2.2 4.8-2 2.2 2.3 6.9-1.4 12.2 0 1.7-5.9-1.2-13.4 3.4-17.1zm-20.4-51.1c-26.1.2-18.1 4.3-19.8 28 11.2 1.3 26.4 1.7 39.5-.7-8-16.7 11.6-29-19-27.3 1.2-1.8-2.3-2.3-.7-2.7-2.2-4.4 14.1-2.6 18.4-2.7.7-9.1 1.5-21.6.7-30-13.5.3-24.1.7-36.1 0-1.3 9.2-1.5 19.4-1.4 30 4.1-.6 5 .5 4.8 2.7 4.1-5.4 13.7-1 13.6 2.7zm55.2 37.5c-34-7.1-32.6-.3-30.7 30.7 15.7.6 33.8 5.8 29.3-18.4.8-.1 1.1 1 1.4 0-2.3-3-.7-7.7 0-12.3zm1.3-36.1c-11.4-2.8-19.4.4-30.6-1.4-1.4 9.7-2.2 22.5-.7 31.4 29.5-7.3 30.2 9.5 31.3-30zM1017 623c11.6 2 19.7 1 30.6.7-1.3-8.1.7-20.5-1.4-30-4.6-1.7-18.2 4-18.3-4.1.9-.5 1.1-1 .6-2 1.9-1.9 1.5.8 3.4.7 1.2-2 8.8-1.8 12.3-.7-.4.6-1.6 2.5.7 2 2.2-3.6 0-11.7 3.4-14.3-2.9-5.6-2.3-15-2.7-21.8-8.1.3-16.7.4-24.6-.7-3 10.3-1 24.3-2.7 33.4 2.5.6 7.1 1.7 8.2 1.4.4 1.5 1.6 5.6 0 6.1-15.6-3.1-6.1 17.4-9.5 29.3zm-3.4 22.5c5.2 2 1.1 10.3 2.7 15 6.4.8 18.8-2 29.3 0 5-28.5 2.1-34.1-28.6-29.3.1 6.3-.6 7.5-.7 13.6-1.7-.1-2.2-1.3-2.7.7zm-36.8-98.1c10.6 0 20.5.1 32.7-.7a1.3 1.3 0 0 0 .6 2.1c1.2 3 3.8.4 2.1-2.1 5.3-39.2 3.3-32.9-34.1-33.4-1.2 13.5-2.1 23.1-1.3 34.1zm-2.1 39.5c38.6-2.3 36 12.6 39.5-27.2-3.1-.4.7-3.7-1.3-5.5-7.9-1.3-15.4.8-23.2-1.4-2.7 1.1-8.1 1.6-13.6 1.4-1.7 9.5-2.2 25-1.4 32.7zm-.7 6.8c-7 39.9 5.9 29.6 36.1 30 .8-42.8 7.4-25.5-26.5-31.4 2.1-2.3-2.2-3.1-1.4-.2h-1l.3 1c-2.8.6-3.4.5-7.5.6zm-32.7-126c5.8-2.6 21.1.9 29.3-.7 2.4-9.6 1.4-17.1 1.4-26.6-1.9-1-5.7-.2-6.1-2.7-24.9 7.3-30-10.9-24.6 30zm-2 38.8c7 2.2 18.3-3.1 24.5 2.1 1.2-.1 4.4-3.4 6.1-2.1 1.5-7.6-3-15.7 2.8-17-6.9 1.2-.7-9.4-2.1-15.7-39.1-3.1-28.5-2.6-31.3 32.7zm-2.7 40.9c37.2 0 33 5.7 33.3-33.4-38.9-3.1-31.1.6-33.3 33.4zm2.7-190.1c2.9 1 2.3 2.4 4.1 3.4 9.6-5.7 19.2.8 30.6-1.3 1-13.8 3.9-35.5-2.7-49.1a4.8 4.8 0 0 1 3.4-.7c-.1-8.2-1.8-18 .7-25.8-2-.4-4.1-15.2 0-13-2.5-4.5-8.3-1.4-12.9-1.3-14.7 1.6-22.6-7.4-24.6 9.5 1.4.2 1.4-.9 2.1-1.4.7 10.3-1.2 22.5.7 32 5.4 1.1 12.7-1.6 16.3 2.1 1.2-4.7 8.8 0 11.6-2.1 1.8 2.2 3.9 5.3.7 7.5-40.7-7.6-27 10-30 40.2zm40.2-128.7c30.5 2.3 35.6 4.6 31.3-28-29.2-.4-33.7-6.4-31.3 28zm.7 33.4c9.1.3 19.4.6 31.3.6 1.2-.8.1-5 2.4-3.7.1-1.5 1.7-1.1 2.7-.7s2.7 2 2.4 4.4c33 1.7 29.2 2.4 28.6-27.2-26.2 3.7-29.5-10-30 21.1a1.3 1.3 0 0 0-2-.7c-.3-1-.6.1-1.4 0a1.3 1.3 0 0 0-2-.7c4.2-27.3-13-19.4-32.7-18.3 1.4 6.4-1.1 17.6.7 25.2zm32.7 96.7c-2.3-3.2 3.1-50.1-4.8-41.6-9.6.2-16.6-1-25.9-.6-1.5 1 .4 5.4-2 5.4 5.3 31.7-10 43 32.7 36.8zm36.1-50.4c-7-26.8 12.6-49.7-30-36.1-1-.5-1.1-.4-1.4.7-2.3.1-2.5 2-4.7.6s.1-4.2-1.4-4.7c-10.9.5-19.9.4-30.7 0-.9 12.8-.2 29.2.7 41.5 5.1.6 13-1.6 15 2.1-1.2-5.3 11.9 0 15.7-2.1 3.6-9.9-5.9-27.2 2-34 1-.2 1.1-.5.7-1.4 4.6-1.8 1.6.9 4.1 0v6.8c-1.3-.8-2.9.8-3.4 2.1 1.4-.2 2.1 1.5 3.4.6-2.7 27.9 1.2 30.3 30 23.9zm-.7-81.8c3.6-32.9-4.4-25.8-30.7-25.9-1.8 30.6.9 30.9 30.7 28 .9.4 1.2.3 1.4-.7 2 3.5 3.5-1.6 0-.7-.3-1-.5-1.1-1.4-.7zm-38.2-62.6c-1-13-24.3-4-33.3-6.2-.5 10.1.8 23.5 1.3 36.1 33.7-1.6 34.3 8.8 32-27.9a1.3 1.3 0 0 0 2.1-.7c1 .8 1.7.8 2-.7 4.8 4.3 2 15 1.4 20.5 3.4 1.8.8 4.7 2 8.2 9.8.4 20.8.3 30.7 0-3-25.6 11.1-40-23.9-35.5 1-2.2-1.5 0 0-2.7-1.3-.2-2.1.1-2 1.4s-1.1.4-.7 1.3h-5.4c.8 3.7-2.1 3.6-.7 6.2-1-.5-1.1-.4-1.4.6-2.4.6-2.2-1.5-4.1-.6zm-2-36.8c-10.6-.3-22.2 1.4-31.3-1.4-.6 19.2-6.1 28.5 17.7 25.2-1.2 2.3 3.1 4 1.3 2.7.6-11.9 18.6 15.5 12.3-26.5zm-34.7-11.6c7 9.7 25 3.5 34.7 4.8 1.3-9.3-2-21 .7-28-1.2-.1-1.6-1.1-1.4-2.7-41.1.5-28.5-9.8-34 25.9zm-.7 120.6c-12.3-1.1-24.7 2.4-32-1.4-5.1 37.4 4.4 27.1 33.3 26.6-2.6-5.3.2-18.6-1.3-25.2zm0-35.5c-31.8 1.7-35.4-6-32.7 28.7 30.6-.5 35.8 7.9 32.7-28.7zm-3.4-42.9c-41.1.8-27.5 2.3-30 36.8 38.8 3.4 33-2.4 30-36.8zm-.7-30.6c-4.4-.1-9.9.8-11.6-2.1-29 6.8-14.9-5.9-19.1 28 6.6-.6 13.7-.5 19.8-1.4.4 1-.8 3.5.7 3.4-.8-6.2 7.1-1.5 10.9-4.1.8-7.1.3-15.6-.7-23.8zm-31.3-37.5c.6 31.4-4.1 33.4 32 30-.2-27.9 2.2-35.3-32-30zm0 305.9c34.6 1.8 39.1 9.4 37.4-29.3-6.6-1.9-19.2 1.2-26.5-2.1-1 3.6-7.5 0-8.9 1.4-1.8 7.7 2.8 16.1-2 21.8 1.8 2.5.4 4.6 0 8.2zm-4.8-78.4c-8.5-.4-22.9 5.2-31.4 0 .7 3.4-4.3 1.2-5.4 2.8-.5 12.6.1 23.4-1.4 31.3 3-2.2-.1 4.3 1.4 4.8 5.3.6 6.4 3 10.9.7 31.3 3.3 26.1 2.8 27.2-25.9 1.3-.7 2.3 2 2.8 0-4.7-1.2-2.6-9.3-4.1-13.7zm-38.2-60.6l-.3-1c-.1 1.1-.8 1.1-1.7 1-1.7 2.2.8.8 2 1.7l.7-.3c-.1 2.2 1.2 2.9.7 5.4 4.3-.4 7.2.5 10.9.7l-.3 1c1.2.2.9 1.4 2.3 1-.5-2.1 1.6-.9.7-2.7 26.5.9 26.8-3 23.2-26.5-11.1.5-23.2.1-36.8.6-2.8 6.1 1 12-1.4 19.1zm38.9 53.8c-.5-56.5 9.8-35.3-34.8-42.2.4 3.4-1.5.6-3.4 2 1 14-1.1 28.1 1.4 42.3 11.4 1.8 24.1-3.6 32.7.6-1.2-3.3 3.3-1.2 4.1-2.7zm0-107.6c-12.7-1.1-24.3.3-38.2 0-.4 5.8.1 8.2-2.7 11.6 4.7-2.4 2 10.9 2.7 15.6 3.4.2 1.1 2.2 3.4 2.8s.4-2.3 2.1-2.1c29.1-.9 36.4 5.7 32.7-27.9zm-1.4-73.6c6.3-4.8-14.4-.5-16.4-4.1-5 4-15.2-1.3-21.1 1.4-2.7 2.9 1.4 8.6-2 10.9 2.6 3.2 1.6 10.7 2 17.7 13.5.1 24.9-1.3 38.2-1.4-.4-11.3 0-15.5-.7-24.5zm-40.9-25.9c1 .1 2-.3 1.7 1.1l1.1-.4c-.8 3.9.4 9.4 0 15 15.1-.4 23.4 1.7 37.4.7-.7-2.8 1.1-3 2.1-4.1-4.3-2.2-.8-8.2-2.1-12.9a3.8 3.8 0 0 0 2.7.6c-.3-3.5-1.2-3.4-2.7-4.7-.6-3.5-.1-6-.7-8.2-7.6-.9-21.8 4.5-29.3-.7-2.4 7.6-9.7-6.7-7.4 11.6l-1.1-.4c.4 1.6-1.6.7-1.7 2.4zm-.7 89.3c.9.1.9 1 2.1.7a1.3 1.3 0 0 0 2 .6c10.3 6.6 26.7-.6 38.2 2.1 1.1-11.6.5-24.3-.7-35.4-33.6 3.9-40.7-11.3-37.5 30.6a1.3 1.3 0 0 0-2 .7c-1-.1-1.9-.1-2.1.7zm-2 10.9c-29.9-2.4-29.8-.5-27.9 27.9 10.7-.5 19.1.6 29.3-.7-.9-2.1-3.7-11.5.6-12.2-2.7-4-2.3-9.3-2-15zm-1.4-41.6c-6.5-.2-14.5.9-19-1.3 0 3.7-5.1 1.4-7.5 2v34.7c35.3-.5 28 .5 26.5-35.4zm0-36.1c-3.4-.9-9.1.5-10.9-2-4.4 3.7-11.9-1.1-15-.7.9 10.2-6.3 29.7 4.8 34-1.6-3.5 17.2-2.2 15.3.4l1.1-.4c.4 2.4 3.2-.7 2-2 8.2-2.5 1.3-18.3 2.7-29.3zm-25.9-7.5c29.5 3.6 27.5-.6 25.9-26.6-25.3-2.1-30.6 1-25.9 26.6zm-4 128.8h1.8v1c5.3 16.7-8.5 17 20.7 15.3 2.7 8.2-13.7 7.1-19 6.8-1.2 2-.3 6.1-2.1 7.5 2.9 9.4-.5 23.3.7 35.5 27.7-3.1 30.1 9.3 30.7-23.9a3 3 0 0 0 2 .7c1.1-2.7-2.9-.2-2.7-2.1-2-6.8 4.9-20.1-6.8-17.7a1.3 1.3 0 0 0-.7-2c-.6-1.9 1-1.8.7-3.4s1.1-.4.7-1.4c11.1 1.3 4.3-18.2 5.4-25.2-7.4-.3-21.2.3-27.9-.7-.1 2-1 3.1-2.8 4.8 1.5.4 2.6 1.1 2.1 3.4a1.9 1.9 0 0 0-2.8 1.4zm0 108.3c40.8 3.4 28.9 5.8 33.3-28.6-4.2-.5.1-5.5-2-7.5-36.9-3.7-30.1 5-31.3 36.1zm0 7.5c-5.8 36.2-.3 36.2 32.7 33.4.6-10.2-.9-10.2 2-15.7.4-2.6 2.1-.4 2.7-2 5.4 3.4-1 13.5 2.8 17.7 13.6-.2 23.2.9 34.7 0 1.5-6.1-1.3-22.4 2.7-25.9-6.3-12.2-28.4-4-38.1-6.8-2.6 3.2 2.3 12.5-2 12.6-.4 1.1-2.9 1.7-2.5 0-3.5-.2-2.3-9.1-3.7-12.6-9.2-.4-21.4.1-31.3-.7zm-34.1-253.4c1.3-1.5.4 4.9.7 6.8 7.9 2.4 19.4.3 29.3 2 .9-2.9.7-7 2.7-8.8-3.9-1.7-.9-12.5-1.4-16.4-7.7-3-19.9.7-29.9-1.4-.7 7-.1 13.3-1.4 17.8zm1.4 22.4c-1.6 33.3-2.8 16.6 19.7 25.9.4-4.4 6.7.7 9.6-2.7v-30c-3.9.9-36-6.8-29.3 6.8zm0 66.1c9.2.9 20.7-.6 29.3-.7.4-9.2-.3-22.7 0-34-2.9-1.5-8.3-.4-12.3-.7l.3-1h-1c.8-3.6-2.4-2.3-.7.1-4.3 2.4-10.6-.3-15-.6-2.2 10.9-.9 25.6-.6 36.9zm-1.4 7.5c2.3 35.8-1.4 22.2 30 26.6 4.3-32.2 0-28.9-30-26.6zm30 32c-28.2-1.5-32.4-1.4-28 28 25-1.8 31.8 1.8 28-28zm-30.7 74.3c40.8 8.3 28.3-10 30.7-40.9-38.3-5.5-27.4 11.6-30.7 40.9zm1.4 44.3c2.9-6.9 20.4 3.4 26.5-.7-.6-33.3 12.3-37.8-27.2-36.1-1.9 10.1-3 28.4.7 36.8zm-3.4 29.3c3 2.8 0 7.3 1.3 11.5 8.3-.2 17.1.1 27.3 0 .6-11.1 1.2-24 .7-34-32.6-2.1-26-9-29.3 22.5zm-47.7-231c16 .1 27.5.4 44.3 0 2.2-3-.5-6.8 2-9.5-2-.4-1.9-3.6-2-4.8 7.2-26.2-21.7-13.5-36.8-16.3-13.2-3.3-6 22.4-7.5 30.6zm-2.7 42.3c15.7.6 29.3 1.9 47 1.3 2.1-2.9-1.3-4.3 2-6.8-2.9-2.4-2.2-9.7 0-12.9-1.7-.8-1.3-3.7-1.3-6.2 1.5.2 2.5-.1 2.7-1.3s-3.5.8-3.4-.7-.6-5 0-8.9c-50.2 3.9-42.3-16.1-47 35.5zm.3 62.6v1.1c3.6-.9-.3 4.9 1.7 6.4 17.4.4 29.5.1 45-.7 4.6-32 .3-28.5-29.3-28.6a1.4 1.4 0 0 0-.7-2c.1-1.3-1.8-2.8.3-3.1l-1-.3c12.5-1.8 19.3.4 32-1.4-1.3-4.4-1.3-10.7-.6-15.6l1 .3-.2-1c3.1-.2-.3-1.3-.5-2.4l-.3 1c-1.5-2.8-.1-5.6 0-8.2-9.5-2-26.7 3.3-31.4-4.1.1 1.9-1.1 1.4 0 2.8-4.3 1.7-8.8-.8-14.3 0a117.6 117.6 0 0 0 0 27.2c7 1 9-.4 13.6 1.4l-1 .3c1.7.2 1.4 3.3 0 3.9l.4 1.2c-18.3-3.2-12.8 7.4-13.7 19.1l-1-.3c.2 1.1-2.6 2.2 0 3zm-1.7 319.5c7 2.5 19.6-1.4 23.8 2.8 2.2-.9 9.9-3.2 7.5 1.3 2.6-1 1.9-3.6 7.5-2.7-.2-10.6 1.1-15.7.7-25.9-28.8 2.3-40.5-12.3-39.5 24.5zm2.7-32c33.8-.2 41.2 9.7 38.9-31.3-34.4 3.8-39.9-11.6-38.9 31.3zm30-33.4c.2-1.2-.1-1.5-1.4-1.3s.2 1.5 1.4 1.3zm-32 72.2c-4 45.2-7.3 40 38.1 38.9 1.3-43.8 4.1-36.9-38.1-38.9zM763.5 358c-4.2-.5-6.8-2.7-7.5-6.8 2.9-.3 7.1.7 8.9-.7-.9-11.7-.5-18.8-.7-32.7-2.4-.5-6.8.5-9.5-1.3-1.1 1.8-.5 5.4-2.1 6.8 5.2 5.3-1.3 26.8 2.8 34.7-.4 14.1-10.3 42.7 8.1 40.2 1.7-9.8.7-22.9.7-32.7 1-1.9 2.8 1.2 3.4-.7-2.5-1.1-2.8-4.4-4.1-6.8zm-14.3 149.2c21.8 13.3 15.2-20.1 15.7-34.1-3.7.4-11.8-2-15.7.7 2.2 9.4.6 25.6 0 33.4zm1.4-84.5c4.6 12.1-2.6 9.6 13.6 10.3-2.3-13.9 8.4-32.7-10.9-28.7-4.3 5.8 1.9 7.3-2.7 11.6 1.7 1.5 1.7 5.4 0 6.8zm13.6-218.6c-16.9-6.3-11.9 14-11.6 26.5 17.3 3.6 10.6-12.4 11.6-26.5zm0 33.3c-18.2-6.6-10.9 19.3-11.6 29.3 4.6.9 6.9-.1 11.6.7.2-7.4 0-22.5 0-30zm-13.6 228.3c1.5.9 14 .7 14.3-.7-.7-7.9.1-17.4-.7-25.2-19-6.1-11.7 14.8-13.6 25.9zm13.6-192.2c-3.4.5-1.5-3.6-4.1-1.3 1.3 2.6-6.1 1.4-7.5 2 1.8 13.1-.1 24.3 1.4 36.1 18.3 4.3 6.4-17.5 12.3-27.9-3.8-.3-.5-6.2-2.1-8.9zm-51.8-76.3c9-.8 23.6 3.3 32.1-1.3a1.4 1.4 0 0 0 2-.7c1.4.2 2-1.7 2.4.3.3-2 2.8-.7 2.4 1.1 3.3 1.4 8.4-1.5 10.2 2-.5-2.5 2.4-1.7 3.4-2.7-.3-10.1.4-20.6 0-34.1-5.6.1-11.8-.4-15.7 1.4-1.8 4.3 4.6 30.6-.3 28.9-10.2 8.4-3.5-22.6-6.5-29.6-37-.6-30.9-.4-30 34.7zm34.8 63.4c-3.7-37.6.6-18.9-33.4-25.2-4.4 36-5.4 33.3 32 32-.4-3.1.2-5.2 1.4-6.8zm-35.4-32c7.8 4.8 25.5-2.5 32.7 3.4 0-8.3 6.6-33.6-8.9-27.3-28.8-4.2-22 .9-23.8 23.9zm-1.4 50.4c1.3.2 1.3-.9 2-1.4-2 38.2.8 29.3 34.1 32 1.2-12.4.4-23.2-.7-35.4-11.7 1.9-30.4-6.2-35.4 4.8zm36.8 38.1c-40.7-7.2-36.5-1.9-34.1 34.1 36.9.7 37.2 3.8 34.1-34.1zM711.1 390c-3 6.8 1.2 6.4-.7 9.6.9 1.8 6.6-1.2 5.4 2.7 2.5 1.1.5-2.3 2.1-2 37.7 4.2 27.9-12.8 29.3-41.6-5.3-1.8-14.7.6-19.1-2-2.9 2.3-11 1.3-15 .6-4.7 8.1 2.7 22.8-3.4 30-.1 1.2 1.2 1.3 1.4 2.7zm31.3 100.2c1.1-.1 2.6.3 2.7-.7-6.4-1.7 0-13.2-2-17-9.6 0-21 1.1-28.6 0-4.2 7.7-1 19.4-2.1 30.6.1 3-2.3 3.6 0 5.5a95.8 95.8 0 0 1 16.4-.7c-.4.9-.3 1.1.7 1.3s-.1 2 .7 2.1-1.3-2.6 1-2.4l-.4-1c15.9 3.5 11.6-6.5 11.6-17.7zm3.4-40.2c-1.9-3.3-1.6-4.7-1.3-9.6-11.2-.5-20.8-1.4-31.4-1.3-.6 9.5-2.6 22.8 2.1 28.6 18.9-7.7 29.3 10.2 30.6-17.7zm.7-26.6c-1.7-29.2 2.9-14.3-35.4-16.3a91 91 0 0 0 1.3 25.9c12.1-1.8 33.8 7.2 34.1-9.6zm-40.9-109c-5.8-1.3-19.8 1.8-23.1-2.7-1.3-.2-1.3 1-2.4 1l.3 1c-3.4.9-8.5-1-12.2.7.1 16.1-.4 26.6-.7 36.1 1 .2.2 2.1 1.3 2.1 9.3-2.6 24.4-.1 36.2-1.4 1.7-7 .2-14 1.3-20.4 1.3-.7 2.3 2 2.7 0-5.4-3.2-2.4-10.3-3.4-16.4zM667.5 215c-.3 3.4-.3 11.3.7 15.6 11.8-1.9 24.8 1.2 38.1-1.3-.5-8.5-.3-15.2-.7-25.2-11.7.7-25.1-1.1-37.4.6-2.2 3.4-.2 7-3.4 9.6 1.7-.1 2.1-1.3 2.7.7zm-2.7 41.5c-2 2.5 1.6.3 1.7 2.4l1-.3c1 3.4.2 4.6.7 8.8 35.4.1 41.4 6.9 37.4-30.6-6.6 1.8-40.5-5.6-37.4 4-1 1.6-2.2-1.3-2.1 1.4 1.9 3.8 2.1 8.8 1.4 13.6-1.7-.9-.7 1.2-2.7.7zm41.5 17.7c-34.9.5-42.3-9.8-38.1 32.7 40.4.2 39.2 8.7 38.1-32.7zm-42.2-171c.9-.1 1.1.2 1 1.1l1-.4c-5.5 22.8 18.2 7 26.6 14.3 3.6-2.8 9.9-.7 12.9-2.7-4.4-2.1-.5-8.4-2-12.9.4.3 3.2 1.5 3.4 0-10.2-17.4 4.3-16.3-23.2-16.4-.1-.8-.5-1.2-1.3-1s-.4-1.1-1.4-1c.3 1.7-1.2.3-1.4 2-14.8-.1-14.6-1.7-13.6 15l-1-.4c.3 1.6-1.5.6-1 2.4zm0 35.5c5.1.3 1.7 11.3 2.7 18.3 29.9-2 43.3 9.3 37.5-27.2.2-1.6 2.3-1.3 2-3.4-3.1-.5-3.4-3.9-6.1-4.8-6.9 4.9-24.9.3-34.1 2.1-1 5.5 2.4 11.8-2 15zm-2.8 53.1c-3-26.6 5.6-31.7-28.6-27.3 3.5 39.5-12.4 28.8 25.2 34.8.6-1.5 2.4-1.7 3.4-2.7s-2-5.1 1.1-3.8l1-.3c0 .6.8.5 1.4.7s1 1.1 2 .6c7 8.2 26.9 2.6 38.8 2.8.1-13.5-.3-19.6-.6-32.7-30.7 1.2-42-11-38.2 27.2-1-.4-1.5-.3-2 .7s-2.4-.6-3.5 0zm1.4 136.2c-2.7-3.5-.9-7.9-1.4-14.3-10.8-1.7-17.3-.2-29.9-1.3-.8 15-2.3 29.6-1.4 41.5 33.3-4.7 29.9 7.4 32.7-25.9zm1.4-39.5c-5.2.8-2.7-8.9-2.1-13.6-9.2-1.7-21.2-.3-29.9-.7-.8 33.6-7.6 32.4 28.6 32.7 1.3-6.6-.2-10.1.6-17 .8-1.7 2.9 1.6 2.8-1.4zM641.6 234c1.7-7.5 14.6-.9 20.4-4.7-2.5-1.8-.9-7.8-1.3-11.6a3.6 3.6 0 0 0 2 .7c-5.8-12.5 4.3-16-15.7-14.3.1-1.4-3-4.8-3.4-1.4l-1-.3.4 1c-17.3-4.6-7.6 16.7-10.9 26.5 2.1 2.7 10.6.2 9.5 4.1zm17.7-110.3c-33.1-4.8-27.1 5.2-25.9 33.4 37 3.3 25.6-4.5 25.9-33.4zm-26.6-46.4c31.4 7.1 28.1-1.4 26.6-30.6-32.6-2.8-26.2 1.5-26.6 30.6zm-1.3 32.1c1.4 13.1 15.9 4.8 27.2 7.5 2.3-10.8.9-20.7.7-31.4-35.9 1-22.1-8.9-27.9 23.9zM629.3 247h1.9l-.2 1 1.1-.3c-3.3 29.6 7.2 16.3 28.6 20.4.7-11.2 1-21.7 0-30.7-8.8 1.4-23.6-3.2-28.6 1.4.6-.6-.3 3.5-2.1 3.4 1.4.4 2.6 1.1 2.1 3.4a1.9 1.9 0 0 0-2.8 1.4zM596.6 39.2c31.8 4.2 31.3-.4 29.3-29.3-31.9-.8-30.6-2.3-29.3 29.3zm-.7 37.5c34.5 4.1 30.8 2.4 30-30-36.7-1.8-27.8-2.8-30 30zm-.6 32.7c2.5-1.6-.6 5.4 1.3 7.5 11.2-2.1 28.1 5.9 31.4-7.5-4.8-5.1.7-18.2-2.8-25.2-37.5-.4-26.1-5.2-29.9 25.2zM628 435.7c26-6.7 40.2 10.2 34-28.6-30.3 3.8-35.6-8.9-34 28.6zm35.4 5.4c-35-.1-36.7-9.7-33.4 28 32.4-2.6 35.2 7.5 33.4-28zm-74.3 102.2c1.6-.2 2.6.2 2.8 1.4 4.1-1.6 16.7-2.8 21.1.7 0-4.5 7.5-.5 8.8-2.1 1.6-5.3.9-18 0-25.2-24 2-36.1-5.6-32.7 25.2zm33.4-67.4c-38-2.8-31.9 4-32 36.8 38.4 3.3 32.6-6.4 32-36.8zm.7-27.6c4.1-1 1.3-1 .3-2.7l-1 .3c.2-11.2-23.1-.2-27.9-6.8.7 2.9-2.6 2-2.7 4.1-1.2 37.4 1.6 23.6 30.6 26.5.1-8.4-.6-15.4 0-21.8zm2-210.9c-31.2-1.6-30.8-.9-27.9 30 30 2.2 30.8-.9 27.9-30zm-28.6 36.8c-2.7 34.4-4.7 30.8 27.3 31.4 2.2-29 8-34.9-27.3-31.4zm29.3-70.1c-32.2-.4-30.9-7.7-29.3 25.8 33.1 3.1 30.2 6.2 29.3-25.8zm0-80.4c-38.7-2-29.7-3.4-28.6 33.4 35.7 2.5 28.3-1.6 28.6-33.4zm-30 40.8c2.1 33.8-8.7 34.4 30 32.7 1.3-30.3 3.9-38.6-30-32.7zm-2.7 236.4c5.7 2.3 17.7-.1 28 .7.7-13 1.4-29.1.6-40.2-3.9-.8-6.4-.2-9.5-2.7-1.5 5.7-8.8.6-12.3 1.4-4.6-11.8 14-3.5 22.5-5.5-1.4-32.5 15.1-48.5-27.2-42.9-.7 15.3-5.1 33.3 3.4 49-10.3-1.3-2.3 31.4-5.5 40.2zm-3.4 19.1c.5-.9.3-1.1-.7-1.4.2-3.8-4.7 1.6 0 1.4l-.3 1c6.1.6 4.2 7.9 4.4 14 25.1-1.9 33.6 5.9 27.3-27.3-9.6 1.8-17.4 0-26.6.7-2.6 4.2 1.4 10.6-4.1 11.6zm-2.7-2.7c-2.2-1.1.5-7.5-.7-8.2a276.4 276.4 0 0 0-42.9-.7c-2.5 38 6.8 24.9 42.9 25.9-1.8-4.4.5-9.1 0-14.3h.7a3.2 3.2 0 0 1 0-2.7zm-42.9-16.4c15.2.2 26.6 1.8 42.9 0-1-9 .8-29.1 0-40.2a99.5 99.5 0 0 1-13.6-1.3c-1.3 3.4-17.6.2-20.5-.7-1.5 3.8-6.4.1-9.5 2-.7 4.1.2 6.1-2.1 9.6 1.4.2 1.4-.9 2.1-1.4.2 12.1-.7 23.5.7 32zm30.6 118.6c-31.4.1-30.4-6.7-31.3 23.8 24.1-1.9 43.1 11.5 38.8-23.2-2.6-1.4-4.5.5-6.8-.6.7-1.8-1.4-3.9-2-2.1.9.2.7 1.5 1.3 2.1zm8.2 279.3c-5.3-4.6.9-17.3-4.1-21.8-13.1 1.9-27.8-1-38.8.7 1.7 21 .9 38.8 3.4 55.1 47.3 1.1 37.1 6.3 39.5-34zM465.2 698.6c1.1 1.6 1.7-.7 3.4-.6s3.5 1.6 6.1 0c17.3-2.3 28.4 8.3 30-14.4 1.7 1 3.6 3.6 4.7 1.4 7.3 13.4 15.2 12.8 20.5 12.3.7-8.7.4-15.5.7-28-6.5-2-13.6.8-19.1-2-2.6 19.5-2.5 15.8-4 18.2-2.2-.8-1-4.8-4.2-4.6 7.4-23.2-24-10.7-38.8-13.6.8 11.5-2.1 22.1.7 31.3zM506 730c-.2 3.3.7 7.2.7 10.9 38.1 1.6 20.5-4.8 23.9-36.1-31.6-3.6-18.8 3.8-24.6 25.2zm25.9-94c-5-2.6-12.9-.1-17.7-2.1 1.6.4-1.4 1.7-2.7 1.4 1.1 2.3-2.4 4.4-1.7 1.7-7.8-5.1-29.1 2.7-34.4-4.4.8-.2.5-1.3.7-2.1s1.1-.4.6-1.4c8.6-2.3 23.8 2.5 31.4-4-8.2-5.7 2.1-29.4-2.1-38.2-7.6 1.2-17.9 1.5-23.8 0-25.3-4.9-17.1 21.3-17 41.6 3.6.7 9.6-1.8 10.9 2h-.7c-.2.9-1.1.8-.7 2.1s-1.1 1-.7 2c-16.7-4-7.5 14.9-9.5 25.2 5.6 3.1 12.7-2.1 18.4 3.4 1.9-1.2-.3-2.7 2-2.7 22.3 6.1 21-5.9 19.8-22.5 3.3-2.3 3.1 1.8 4.7.7 3.5 4.4 1.2 14.5 2.1 22.5 24.8 5.5 19.4-4.8 20.4-25.2zm-7.5-552.5c-4.6-1.3-11.1 1.6-15-1.4.1 1.9-1.9 1.7-2.7 2.7 2.2 35.1-5.2 33.7 31.3 32.1 1.5-10.5 2.6-24.2 0-34.8-1.2 3-8 .6-11.5 1.4 0-.6-.1-.8-.7-.8s.7-1.6-.7-1.9v1.8h-1zm-11.6 269.7c11.8-1.3 29.2 6.4 23.9-10.2-2.2-12.3 7.8-35.2-10.9-32.8.7-.9.7-1.6-.7-1.9v1.8h-1l.3 1a23.8 23.8 0 0 0-11.6.7 260.9 260.9 0 0 1 0 41.4zm25.9-70.8c-4.1.6.5-6-2-8.2-1.2-.1-3.4.7-2.7-1.3-31.2 1.1-22 .5-21.2 31.3 26.5 1.6 22.7 1.8 25.9-21.8zm-30.6-141.7c-3.2 21.4 12.2 14.3 29.3 15.7 2.3-12 .6-20.9.6-32.7-16.7.2-33.4-5.3-29.9 17zm-2.1 39.5c-.6 2.5 2.3.3 2.4 2.4l1-.3c-3 21.2 6.4 8.1 15.7 15.6 1.1-4.9 11.5-.1 12.3-2-1.4-28.7 8.7-32.8-21.8-34.8.2 2.3-4.9.4-6.8 2.1.9 6.2-.6 10.7.6 16.3-1.7-.8-.5 1.3-3.4.7zm31.4 23.2c-11.2.9-32.2-8.2-28 8.1l-1-.3c-.1 1.7-2.2.3-1.7 2.4 2.1-.5 1 1.6 2.7.7-3.2 25.8 9.3 14.1 25.9 18.4 4-8-.2-17.8 2.1-29.3zm-29.3 41.5c.5 1 1 1.2 2 .7a183.4 183.4 0 0 0 1.4 21.8c1.8.2 5-.9 4.1 2.1 2.3.5.8-2.8 3.4-2.1s13 .1 19-.7c-6.9-28.1 10.6-27.3-14.9-29.3-6.4 2.8-12.7-1.2-16.1 4.9l.4 1.3c-1.6.3-.4 3.2.7 1.3zM506 359.4c-12.5 2.9-25.1-.6-41.5.7-.8 14.1 1 25.5.7 40.2 2 1.8 8.2-.6 10.2 1.3l-1.1.4c.1 2.2 1.4 4.9 1.8 1l1 .3c2.2-5.1 19.3-1.1 28.2-2.4 2.7-4.9-.5-11.5 1.4-17a2.6 2.6 0 0 0 2.1 0c8.2.5 1.2 11.6 4.7 17 9.8-.9 17.5 2 23.9-.6-1-10.8-.2-25.6 0-35.5 1.2-.1 1.4.9 2.7.7-2.8-9.1-16.3-3.6-26.6-4.8-1.3 6.5 2 21.6-6.8 21.2-1.1-7 1.5-13.8-.7-22.5zm33.4 265.7a4.1 4.1 0 0 1-2.7-.7c6.2 9 32.9 2.6 42.2 4.7 1.7-10.3.2-27.9.7-41.5-3.3.6-4.9-.5-6.1-2.1a2.8 2.8 0 0 0 .7 2.1c-44.2-1.1-31.6-3.6-34.8 37.5zm40.2 10.9c-25.2 2.1-45.8-13.7-40.9 25.8 27.9-2.8 45.5 15 40.9-25.8zm-65.4-123.3c32.4 7 22-12.8 23.2-35.5-4.6-.9-16.7 1.7-21.2-1.3-1.4 1.7-3.9 2.3-5.4 4.1s3.1.5 2.7 2.7.7 3.9.7 6.1-1.7.1-3.4 0c-.7 2.7 3.8.3 3.4 2.7-.5 4.9.3 14.2 0 21.2zm22.5-70.9c-29.5-4.6-25.2 3-22.5 28.6 29.2 3.2 23.1-5.8 22.5-28.6zm-.7-34.1c-4 .2-8 .3-10.2-1.3-.9 3.6-9.1.1-11.6 0-2.6 7.7-2.5 17.8-1.4 27.2 3.4 1 8.5.2 10.9 2.1 2-3.1 9.6-.7 13-.7-1-10.6 2-19.2-.7-27.3zm-69.5 63.4c34.8-4.6 43.1 13.7 39.5-30.7-33.8-1.4-48-7.9-39.5 30.7zm-1.3-47.7c-1.7 2.3-1.3 2.9 0 5.5-3.5 9.6 16-.3 17.7 7.5 1.8-1.4-.3-3.5 2-3.4 24.3 6.5 21.4-5.3 21.1-24.6-12.9-1.5-32-.1-39.5-1.3-4.2 3.6-.1 10.5-1.3 16.3zm-1.4 75.6c4.8 11.5-2 14.2 15.7 14.3 2.2.2 6.2-2.5 6.8 1.4-.2 1.9-3.9.2-3.4 2.7a1.3 1.3 0 0 0-.7 2.1c-21.2-4.4-16.3 8.1-16.4 23.1 4.3 1.2 7.3-.6 11.6 1.4-.4 1-.3 1.5.7 2s.6 1.2.7 2.1c-2.3 3.7-7.6 1.5-13 2-.5 11.7.1 18.3-.6 30 13.1-.5 29.4 4.6 41.5-.7-1.5-34.1 11.1-28.7-26.6-30 .5-.9.4-1.1-.6-1.3s-.2-2.2-1.4-2.1a1.3 1.3 0 0 0-.7-2c8.7.2 17.8-1.4 29.3-.7 1.9-3 .4-6 .7-8.8s1.7-3.9 0-6.2.3-5 0-8.2c-8.7-2.7-16.6 3.4-20.5-5.4 4.4-3.2 13.4-2 19.8-1.4 4.7-7.2-4.4-20.8 2.7-23.8-4.3.5-2.2-8.3-.6-8.9-5.8-8.7-18-.7-28-4.1.9-.1.9-2 0-2s-.8 1.2 0 1.4c-2.3 3.3-11.5-.2-15 2-1.3 6.2 3 17.4-2 21.1zm68.1 129.5c1.6-2.9-.2-4 2.7-6.8-5.3-4.6-.5-25.4-1.3-33.4-34-5.7-13.7 16.1-23.2 19-.7 2.6 2.3 1.4 2.7 2.8-3.1 20.3.6 19.2 19.1 18.4zm3.4-77.7c-25.7-7.1-21.9 7.2-21.8 29.3 28.7 6.7 18.8-9.7 21.8-29.3zm.7-8.2c5.2-23.1.6-25-21.8-23.1-1.7 23.2-1 27 21.8 23.1zm.7 141.7c3.4 1.7.1 8.4 1.3 13 13.5.6 27.5.7 40.2 0-.2-11.4 1.4-18.1 0-28.6-14.5 1.5-24.1-1.3-40.2 1.3-.5 4.7 1.3 11.7-1.3 14.3zm2.7 55.9c2 .5 6.4-1.3 6.1 1.4h.7c-2 2 2.8 1.8.7 0 1-.3 1.1-.5.7-1.4 39.4 3 32.5.1 30.6-35.4-35.6.4-46.6-10.6-38.8 35.4zm0 6.8c2 24.6-6.8 22.1 16.4 25.2 7-3.4 14.7.3 24.5-2-3-7.8 4.3-22.1-4.1-23.2l.3-1c-1.4-.2-1.5-2.1-3-2.4s1.7 2.7-.4 2.4l.4 1c-15.6 0-19.2-.7-34.1 0zm3.4-196.9c-1.6 7.1 1.5 24.2-4.1 29.3 3.6 2.4 11.2.7 14.3 3.4 32.7-3.9 26.7 3.9 27.3-32.7-11.5 0-29.3-.2-37.5 0zm.7-293.6l-1-.3c.1.9-.1 1.1-1.1 1-.5 2 1.4 1.5 1.1 3.1 3.8-1.1.1 6.3 1.7 7.1 10.9-.1 29.9.1 44.9 0 2.4-9.4.3-20.6.7-30-2.8 0-8.7-.1-10.2-3.4-.2-6.4 6.3-.3 10.9-3.4a52.8 52.8 0 0 1-.7-15.6l1 .3c-.3-1.6 1.6-.6 1.1-2.4-1 .1-1.2-.1-1.1-1-3.9 1.1.9-6.6-1.7-8.5-6.3-2.2-36.6 4.2-34-2.8-18 2.8-10.3 15.6-10.9 30.7 12 1.1 23.2-1.1 34.7.7a1.3 1.3 0 0 0 .7 2c-1.3 1.3.4 1.3 0 3.4-21.9 3.4-40.4-10.7-36.1 19.1zm45.6 61.3c2.1-1.7-1.4 1.2-1.3-.7s1.1-2.9.7-5.4c-12.3-1.1-30.8-.8-45-.7.9 14.4-1.3 27.9 0 42.2 6.4-.1 9.2 3.1 14.3.7 1.1.1 2.4-.1 2 1.4 2.4.5.9-2.8 3.4-2.1 7 2 14.4-.7 22.5 1.4 4.4-10.2-1.3-29.4 3.4-36.8zm-2-10.2c.8-.9.3-1.1 0-2s-2.1 2.7 0 2zm2.7-33.4c-14.6-.2-31.9-.8-46.3 0-.4 5.9 0 8.6 0 15l-1-.3c.3 1.5-1.6.5-1.1 2.4 1-.2 1.2.1 1.1 1l1-.4c.3 4-.8 9.4.7 12.3 16 1.3 28.5-1.5 41.5 1.4a2.2 2.2 0 0 1 2.1 0c2.2-10.9.3-19.3 2-31.4zM547.6 76.7c15.8.6 26 .2 39.5.6-.2.8-3 2.9 0 2.8 4.7-5.8 2.6-24 2-33.4-34.1.5-46.8-9.8-41.5 30zm-2.7 40.2c12.9.1 28.1-.1 39.5 0s1.4-21.3 6.1-27.3c-2.3-.4-.6-4.8-2-6.1-14 .9-27.2-1.2-41.6.7-1.4 13.5-.9 21-2 32.7zm0 39.5c12.3 1.2 31.1.2 44.2.6 1.7-2.6-.6-8.9 2.1-10.9-4.7-31.7 4.6-21.3-30.7-22.4.9-1.6-.8-1.5-.7-2.8s-2.5-.9-2.7.7a1.4 1.4 0 0 0-.7 2.1c-18.5-4.8-9.9 22.7-11.5 32.7zm-2.8 39.5c13.2 2.8 32.4-1.8 39.5 2.7a20.2 20.2 0 0 1 8.2-2c1.8-1.4-2.7-4.1 1.4-4.1-4-6.8.8-12.4-1.4-20.5 1.2-.1 3.4.7 2.7-1.3-.9-.4-3.5.8-3.4-.7 3.9-10.2-7.9-3.5-10.9-8.2 0 1.4-4.7 3.7-4.7.7-44.3 1.6-23.1 1.1-31.4 33.4zM510.8 44c1.2.1 1.5-.2 1.4-1.4s-1.6.1-1.4 1.4zm-4.1 32c34.5 1.2 32 8.8 35.4-25.9-2.3.7-1-2.1-1.3-3.4-2.1-.7-6.9 1.4-6.8-1.4-34.2 5.1-28.6-10.2-27.3 30.7zm-3.4 163.5c-5.9-2.2-13.7 1.3-17.7-2.1-.4 1.9-3.3 1.3-4.8 2.1s-1.6-3-3.4-3.4c1.3 7.7-15.2.7-17.7 3.4 1.5 23.1-4.7 30.2 21.8 28.6-.8 1.4-1 4.6-3.1 3.7-19.5 9.4-18.9-13.7-16.7 31.7 12.3 1.6 25 .5 38.9.7-.5.9-.3 1.1.7 1.4a3.3 3.3 0 0 0-.7 2.7c-1-.5-1.2-.3-1.4.7-6.8 7.1-30.3-1.3-37.5 2-.2 3.1.7 6.5 0 11.6-.9-.5-1.5-.3-2 .7s-1.2.6-2 .7a1.3 1.3 0 0 0-2.1-.7c3.5-19.4-18.4-12.6-32-13-.5 15.2.1 26.3 0 42.3 13.1 1.2 21.9 0 32.7.6 2.1-4.8-2.2-11.3 2-14.9-2.3-3.3-3.7-11.1-.6-13 1.4.1 2-1.6 2.5.5 2.7 2 2.3 5.5.9 8.4 2.1 1.4 2.6 8 .6 9.5 2.8.9 1.9 5.5 2.1 8.9 13.2 1.2 31.2 2.4 42.9 0-.3-13.9.6-30.3-.7-42.3-.8 1.5-4.6-.4-4.7-2s0-2.5 1.7-2.4c-1.2-2.9 2.2-.5 3-1.7-2.9-19.3 6.7-34.9-21.1-30l.4-1c-1.8-3 2.2-1.8 1.6-4.4 1.1-.2 1.2-.5.7-1.4 24.8 5.4 13.7-15.3 15.7-27.9zM459 225.9c-5 13.8 34.6 3.9 43.6 6.1 1.6-10.4-.8-17.8.7-29.3-5.7-5-17.1 1.3-24.5-3.4-26.2 1.9-21.4-4.1-19.8 26.6zm44.3-62.7c-35.6.5-51.1-15.1-44.3 30 15.1 1 27.5 1.2 43.6 1.3 1.3-10.8-1.4-21.5.7-31.3zm-45.6-8.2c1 1 4.5-1.1 5.4 1.4 35-6.9 41.7 14.7 38.8-31.4-35.6 1.6-48.5-13.3-44.2 30zm-2.8 130.1c2.6-17.3-19-10.5-31.3-11.6-1.7 30.3-2.7 33.8 31.3 29.3-1-6-2.4-15.7 3.4-17.7-1.7-.9-3.3 1.5-3.4 0zm-68.1-47c3.4 24.3-7.3 26.5 17.7 28.6 4.8-4.4 14.7 5 12.3-8.8 1.4.4 1.9 1.7 4.1 1.3.5 1 1 1.2 2 .7-1.9 12.5 23.1 5.1 31.4 6.8-2.3-37.1 4.7-23.5-19.1-29.3-16.4 3.8-11.5-4.7-12.3 19.1a1.3 1.3 0 0 0-2 .7c-3.3 2.6-7.1-3.8-3.4-6.1-2.9-3.9.6-10-2.8-13-7.4.8-19.6 2-23.8-1.3.8 3.4-2.7 1.5-4.1 1.3zm40.9 665.6c35-.7 30.6 1.3 29.3-32.7-8.1 1.1-22.3.5-33.4.7 1.9 12.3-.8 23.6 2.4 33l1-.3c-.4 3.5 3.1-.4.7-.7zm-4.8-243.9c7.1 2.2 19.8-1.2 25.9 2 .7-3.7 6.5.5 6.8-.6 4.2-6.3 2.7-18.9.7-28.6-18 11.2-38.8-14.5-33.4 27.2zm-.7 8.2c-.4 9.5-.8 22.2 0 32 1.5.7 4.6-2.4 3.8.3 1.5-.4 1 1.5 2.4 1.7s-.4-2 1-1.7l-.4-1c34.2 1.4 28.8-4.1 28-32.7-8.2 1.6-24.6-.3-34.8 1.4zm32.1 78.3c-7.6 1.1-14.1-1.2-21.2 0-1.4-.9 1.6-3.2-2-2.7 1.8 6.4-8-.5-9.5 2.7-3.3 34.1 4.7 22.5 32 24.5-.4-6.1 1.8-17.6.7-24.5zm2.7-40.9c-4.2-1.5-9.8 1.5-13-1.3-.8 3-7.1.6-10.2 1.3-.7-.4-3.1-2.6-4.1-.6 4.1 1.6-7 .8-8.1 2-.1 11.7-.4 21.5 0 31.3 9.2 2.6 21.2 1.3 31.3 1.4 3.6 8.7 2.1-28.3 4.1-34.1zm-67.5-188.7c1.8-9.6 20.3-3.3 29.3-5.4-1.1-11.9 8.7-35-7.5-34.8.1 3.3-12.1 2.4-11.5.7-2.5 2.6-6.3.5-10.3.7.3 12.1-4.2 26.6 0 35.4-8.6 36.1-2.6 29.8 28.6 30 2-24.2 6-27.3-19.7-24.5-.1-1.1-1.7-.5-1.4-2.1-3.9.5-3.5 4.4-7.5 0zm27.3 118.6c-27.9-2-36-7.4-33.4 25.9 27.3.7 35.9 4.5 33.4-25.9zm-36.1-115.8c-10.3-1.9-20.6 3-25.2-3.4-1.3 3.3-5.3 3.7-10.2 3.4-1.2 8.8-2.1 18.8 0 25.2 8.1-1.8 15.7.1 26.5-1.4a1.5 1.5 0 0 0 .7 2.1c-.6 3 3.3.1 2-1.4 10.4-.2 3.3-16.3 6.2-24.5zm-3.4 131.4c.3-.6 1.6-.5 1.9-1.1-5.2-2.5.5-11.5-1.9-15.9-10.2 2.2-22.4-1.1-32 .7 1.3 10.7-5.1 26.2 4 27.9a1.3 1.3 0 0 0-.6 2.1c-.7 0-.6.8-.7 1.3s-1.1.5-.7 1.4c-7.7 3.9-.4 14.2-3.4 23.2-3.1 2.1.4 5.9-.7 8.8 11.1 2 20.7-.1 31.3 0 .1-18.6 9.9-32.9-13.6-32 0 2.3-10.7 1.4-12.9.7a1.4 1.4 0 0 0 .7-2.1c3.3-8.1 19.5-2.1 27.9-4.7 1.6-2.7-.7-7.3.7-10.3zm-3.4 55.9c-8.5-3.3-16 3.2-20.5-2.7-.2 1-.8 1.1 0 2-17.9-3.4-9.2 20.1-12.2 33.4 35.7 3.4 33.4 1.3 32.7-32.7zm-56.6 239.1c3.3-1.1 5.9-1.7 8.9 0 3.2-.2 4-2.3 5.4.7.2-2.8 4.5-1.5 6.2-2.7-.8-10.9-.4-21-1.4-32.7-6.8-1.5-12.9 1.6-18.4-2.1-1 3.7-4.7 1-8.9 2.1-.4 10.2-2.6 31.9 1.4 36.8.3-7.9 5.6 1.5 8.2 0a1.9 1.9 0 0 1-1.4-2.1zm-10.2-115.1c7.5 2.7 18.5-4 22.5 4.8-1.5-4 1-1.2 0-4.1 5.7-12.6.1-40.5 2.7-52.5-40.9-9.5-22.3 19.9-25.2 51.8zm2.7 37.5c30.8-3.6 23.9 3.6 22.5-30-2.1.5-1.3-1.9-3.4-1.4-6.8 2.5-11.4.2-20.4.7-.6 8.5-.9 22.6 1.3 30.7zm7.5-126.7c3-2 6-.3 8.9 0s4.3-1.9 5.4.6c5.8-3.7.1-19.3 5.5-22.4-2.7-2.7 0-4.1 0-4.1-2.3-1.7-.2-4.1-.7-8.2-5.1-2.9-14.1 1.5-18.4-2.7-.6 4.1-8.9.6-11.6 2.7 1.2 13.1-4.5 26.5 4.1 36.1.8-7.8 5.6 1.6 8.2 0a1.9 1.9 0 0 1-1.4-2zm-6.8 164.1c34.7-2.3 23.7-.1 23.9-32.7-6.8.8-17.7.8-25.3 1.4.2 10.2-2.6 25 1.4 31.3zm27.3-236.4c-28.9-.9-34-2.9-31.4 30.7 3-.4 3.8 1.2 5.5 2 .6-1 .5-2.6 2.7-2 28.1 4.6 22.2-9 23.2-30.7zm.6-34.7c-9.4-3.1-16.7.5-29.3-1.4-.5 3.1-1.9 8.3-.6 10.9-1 1.9-3.1-1.4-2.8 1.4s3 1.1 2.8 3.4c-1.1 4.9-2.2 12.5 1.3 15.7 28.5-8.1 29.9 10.4 28.6-30zm-32.7-74.9c-1.7-2.3 0-8.2-2.7-9.6-2.1 3.6-10.8.1-16.3 1.4-.4 9.5-1.2 19.1 0 30.6 4.6.2 12.4-2.4 15.6.7 3.8-4.7 0-16.7 3.4-23.1zm-19-70.2c-2 .6-1.8-1-3.4-.7-1.1 2.9 3.5.1 3.4 2.1-.9 17.5-2.3 26 18.4 22.4-3.8-14.1 7.3-34-10.3-35.4-2.3 4.7-9.1-1.1-11.5 3.4 5.2.2 1.9 4.7 3.4 8.2zM286 437c23.3 1.8 19-10.3 17.7-30.6-5.8-1.6-14.6 1.8-18.4-2.1.6 11.3-2.4 21.7.7 32.7zm0 35.5c23.5 5.8 19.7-7.6 17.7-29.3-5.7-1.7-12 1.2-17.7-.7-2.1 10.6 1 20.9 0 30zm.7 72.2c26.5 4.4 17-8 18-26.3l-1 .4c.4-3.6-3 .4-.7.7-23.8-1.7-15 7.7-16.3 25.2zM340.5 309c-5.4-3.6-20.9.3-29.3-2.1-1.8 15.7.5 31.8-.7 47 8.6.8 19.6-.8 28.6 0 1.4-2 .4-6.4.7-9.5.9.4 1.1.3 1.4-.7 3.3-.1 0-1.2-.4-2.4l-1 .4c-.8-3.4 3.3-1.7 3.4-4.1-4.3 1.7-3.3-6.3-3.4-10.9.9.4 1.1.3 1.4-.7 2 1 2-3 0-2a1 1 0 0 0-1.4 0c.1-3.5-2-13 .7-15zm4.8 289.5c-1-.4-1.2-.3-1.4.7s-2.1.4-2.1 2c3-.5 1.7 1.5 3.5.7-1.4 29.7-.5 25.7 28.6 25.2 2.1.8-.1 1.7 1.3 2.7 5.7-12.7 2.4-33 2.1-44.3-.7 5.2-13.5-.3-17.7 2.1-9.1 1.2-3.2-.2-8.2-2.1-2 8.7-8.6-7.1-6.1 13zm-7.5-145.8c.4-1.2 3.2.1 3.4-1.4-4.8.5-3.3-5.3-3.4-9.5-33.9-3.3-25.4 6.3-26.6 32 16.9-4.3 31.6 7.2 26.6-21.1zm1.3-46.3c-29.6-2.2-31.6-2.4-27.2 29.3 9 .5 17-1.9 25.9-.7 2.1-1.3-1.2-8 2-8.2-3-6.1 2.4-15.2-.7-20.4zM317.3 514c5.2-2.3 8 1.2 13.7-.7.1.8-.2 2 .6 2.1-.3-3.6 5.4-1 6.2-3.4v-32.7c-7.2-1.3-14.9 1.8-19.8-2.1.6 3.8-5.5.9-6.8 2.8 1.7 7.1-5.8 34.8 7.5 36.1a1.9 1.9 0 0 1-1.4-2.1zm-7.1 26.9c-4.4.2-1.6 3.6-.4 1.7a1.5 1.5 0 0 0 1.4 1.4c23.8 1.3 29.8 3.7 26.6-24.5a13.2 13.2 0 0 1-9.6-2.1c.2 1.1-.6 1.2-.7 2.1-26.9-2.7-10.2 10.1-17.3 21.4zm29.6-180.2a169 169 0 0 0-30 .7c2.5 10.9-.9 25 1.4 38.2 26.4-.2 30.7 5.9 28.6-26.6 4.9-1.6-.9-5 0-12.3zm0-122.6c-24.2-2.1-35.2-5.3-28.6 25.2 29.2-.4 28.2 7.5 28.6-25.2zm-30.3 33.7l-.4 1.1c-1.4-.6-3 1.7-1.3 2 0-.7.8-.5 1.3-.7s.5 1.1 1.4.7c-.8 3.8 1.8 7.7-1.4 7.5-.2-1.6-1.8.8-2 1.4s1.2.6 2 .6.3-.6.7-.6v-1.7a3 3 0 0 1 0 2.3c2.8 23.5-6.5 14.4 29.3 16.4-.2-12 .1-21.1 0-29.3-7.4 0-24.3-5.1-28.6.7zm28.3 316.5c-39.4-6.4-25.9 11.9-29.3 38.8 38.3 2.9 30.9-3.2 29.3-38.8zm2-13c-4.8-24.5 3.1-28-27.9-23.8-2.4 27.8-6.3 33.4 25.9 29.3-.8-3.3 1.6-3.3 2-5.5zm-.7 196.2c22.7-1.3 39.4 7.9 34.1-24.5-7.9-2.1-14.5 2.8-17.7-3.4-19.3 11.7-15-11-16.4 27.9zm40.2-220.7c-10.4-1.2-20.2.4-32.7 0-4.3-7.6-1.4 25.3-2 30.7 32.6-1.2 38 5.5 34.7-30.7zm4.1-72.2c-6-2.5-25.5 4.2-30-2.1-.4 3.3-4.4 1.7-8.8 2.8.2 4.1.1 7.8-2.1 9.5 3.4.7 1.5 7.8 2.1 13-.9.6-2.6.6-2.8 2 4.9-1.2 2 5.3 2.8 8.2 12 1.5 23.1-.2 35.4.7 3.4-7.6.3-23.1 3.4-34.1zm-36.1-117.9c-1.7 13.4-1.2 24.8 0 39.6 10.4-.1 21.9-3.4 27.9 2 .1-3.1 4.6-1.8 7.5-2 0-12.3.7-21.5.7-36.2 1.3.3 3.6-.7 3.7 1.1l1.1-.4c3.1.5 2.7 13.4 0 15 2.4-.6.7 3 2 3.4-7.7 24 13.9 15.9 29.3 17-1.1-13-1.6-26.8-2-40.1-1.9-.8-9.9 1.5-10.9-2.1-2.2 4-10 .8-15.7 2.1-1.6.5.6 4.7-2 4-.6-.9-1.1-1.1-2.1-.6-.9-1.4-4.4-.1-3.4-3.4-3.6 1-3.6-1.4-5.4-2.1s-.3 2-1.4 2.1c-8.1-1.4-14.2 1.9-19.8-.7.4 1.4-.9 1.3-2 1.3s-.9-3.2-3.4-2.7c1 3.3-1.7 2.9-4.1 2.7zm70.8-41.5c-2.4-1.7-.4-7.7-2-10.2-6.2.6-19-.1-23.8-.7-6.3 13 1.6 27.6-2.1 44.3 37 4.3 24.2-5.6 27.9-33.4zm.7-29.3c-2.5-4.1-1.5-11.6-2.7-17-6.4-1.2-15.3 2-18.4-3.4-.8 3.1-3.8 1.8-8.8 2.7.6 9.1.3 20.2 2 30 13.2-1.6 30.5 7.6 25.9-11.6 1.5-.5 2.2 1.9 2-.7zm-72.9 117.2c-.1 11.7-.2 16-.6 27.2 11.7-.3 30.3 1.8 40.1-2.7.2-2.3-2.3 0-2.7-2.7 1.1-1.1 5.6-1.1 5.1 1l1.1-.4c-.1 1.7 1.1 2.1.6 4.1 28.6.1 32.5 5.2 30.7-25.9-7.6-2.6-19.4 1.2-30-1.3-2.8 2.7 2.2 13.5-3.4 13.6 1.2 1 5.3 7.4 1 7.2v.8c-2.4-1.5-1.7-2.9-5.1-1.2-.6-7.7 1.4-15-.7-20.4-9.9 1.4-25.1-.4-36.1.7zm-.6 33.3c-4.7 39.5 2 32.5 36.7 31.4.7-30.4 10.1-30.2-21.1-32-2.9 3.9-9.8.6-15.6.6zm36.1 258.9c2.3-.5 3 .6 3.4 2.1 35.9-8.4 28.9 13 31.3-32.7-34.2-3-34.3-4.5-34.7 30.6zm35.4-112.4c-3.8.2-7.9 1.9-10.2-1.4-.1.9-.9 1-.7 2.1-30.1-7.1-19.4 18.2-21.1 39.5 41 4.9 32.6-2.3 32-40.2zm2-37.5c-10.5-.4-18.9 1.2-32 .7-1.3 1.4.4 5.8-3.4 4.8 5.3 4.1 1.9 17.8 2 25.2 31.7 1.1 35.4 4.8 33.4-30.7zm.7-109.6c-20.4 2.1-35.8-6.2-28.6 21.8-10.7 16.6 24 8.1 28.6 11.5.7-13.8 2.6-22.9 0-33.3zm-35.4-129.5c-7.8-6.1-31.3-1-38.2-3.4-.3 16.1.5 29.7 1.4 46.3 47.6 3.8 35.1-2.7 36.8-42.2 4.6 2.3 4.3-1.9 0-.7zm-19.8-38.8c-1.3-.3-1.6-.5-1.7-.6-3.3 3-6.6-3-8.5.6-16-4.7-6 21.2-8.8 28.6 14.6 1.9 22.9.1 37.4 1.4 2.2-8.7-1.1-20-.7-28.6-6.7-2.1-12-.1-17.7-1.4zm17.1-29.3c-1-3.4-5.3-3.4-6.9-6.1-4.8 5.7-17.9.6-27.2 1.3-2.1 6.8-1.8 19.6-.7 27.3 6 .8 11.1-1.6 13.6 2 27.8-6.1 19 8.6 21.2-24.5zm-42.3-45.6c-36.1-1.1-30.3-2.6-29.3 33.3 13.1 1.7 23.4 2 34.1-.6 8.9 4 23.5 1.2 35.4 2.7 2.1-4.6-.8-10.6 0-15 2.9-2.9 1.6-2.4 0-6.8s1.4-8.3-.7-11.6c-12.8.1-21.6-1.9-31.3-.7-3.2 6.6 4.3 35.1-6 29.3-3.1-8.1.2-21-2.2-30.6zm-60.6-15c2.9-.6 1.6 1.5 3.4.7-2.3 11.4 13 5.8 20.4 7.5.2-7-1.1-12.9-.6-23.9.9.5 1.5.3 2-.7 1 .8 1.7.8 2-.7l1.4.7c2.1 36.1-.2 21.4 32 25.2 1.5-8.3.8-20.3-.7-27.9-12.4.6-25.2-1.3-32.3 1-.1 1.7-2.7 1.3-3.2 0l-1.2.4c-15.9-5.7-23.6-2.4-19.8 15.6l-1-.3c-.2 2.1-3-.1-2.4 2.4zm27.2 94.7c-2.1-10.1-12.2-6.2-21.8-6.8.3 1.4-.4 1.8-.6 2.7s-2.5-1.3-4.1-1.4a1.4 1.4 0 0 0-2.1-.7c-11.9-4.1-27.1-.4-43.6-1.3.4 9.7-1.3 24.6 1.4 34 2.6 1 .1-3 2.7-2 15.2.1 26.2.3 40.2 0 .6-10.3-1.4-19.4 0-28.6 1 .5 2.2-.3 3.4 0a1.4 1.4 0 0 0 2.1.7c5.5 23.7-9.6 26.7 17.7 29.3 7.3-3.5-1.2-21.9 4.7-25.9zM286 347.8c-4.8 11.8 13 4 17 6.8 2.1-15.5.4-28.9.7-47-30.7-6.7-13.5 21.1-17.7 40.2zm-53.2-87.2c12.5 2.9 30.1 1.4 43.7 1.4-.2-1.7-.2-3.4 1.6-2.4l-.3-1c3.1-.1 1.9-3.8 0-.7a.9.9 0 0 0-1.3 0c-1.4-7.7.4-16.9-2.1-21.8-8.3.1-28.4.2-42.2-.7-.2 10.7 1.1 16.9.6 25.2zm-4 65.4c.9.4 1.1.3 1.3-.7s2.1-.5 2.1-2c-4 1.5-1.2-1-4.1 0 2.3-24.8-14.2-12.8-32-14.3-.6 3.7 1.3 9.9-1.4 11.5 3.5 4.2.3 10.4.7 15 2.9 6.6-.4 13.8 1.3 20.5 36.7-2.4 34.1 8.6 32.1-30zm-32.1 256.8c26.9.5 40 6.6 34.1-27.2-30.1.2-35.9-4.6-34.1 27.2zm.7-33.4c7.8 2 26.3-3.5 34.1.7-1.1-9.2 1.2-21.2-.7-30.6-3.4 2.6-7.5-3-8.2 1.3-2.4-.5-4.8.7-7.5 0s-.8-1.3-3.4 0c-23.2-1.4-9.8 13-14.3 28.6zm33.4-143c-34.6-3.2-35.4-1.2-30.6 34 2.5-.7 1.9 1.7 4 1.4.2-1.8 5.8-2.1 4.5.3l1-.2c-.7 1.4 1.1 3.1 1.4 1.3a.9.9 0 0 1 .3-1.7l-1-.4c1.5-2.6 4.1 0 7.5-.7-.5 1-.4 1.2.6 1.4 0 3.1 2.6.5.7-1.4 3.4-.9 7.6-1.6 10.9-.6.4-2.4 1.8-3.8 2.7-5.5-.9-1.5-1.6.9-2-.7.7-6.2-.7-16.6.7-21.1-1.8 1.4.3-6-.7-6.1zm-.7 39.5c-10.7 1-20.6-.1-30.6 2 2.7 7.9-5.3 29.8 6.8 25.2 2.5 2.2 4.3.7 7.5 0 2.9 2.3 6.4.4 8.8 0 6.7 6.3 4-1 8.9 0-1.4-9.8 2.1-19.7-1.4-27.2zM198.8 514c1.3.7 3.6.5 2.7 3.4 2.8.2-.1-.9.7-2.7 34.8 1.6 29.9-1.2 29.3-34.1-35.9-3.3-34.1-2.2-32.7 33.4zm83.1-302.5c-.9-.4-1.1-.3-1.4.7-3.3.1-.1 1.3.7 2.4l.7-1c-1.7 21 5 16.7 21.1 16.3.3-13.2-.2-24.8-.7-33.3-18.6-.2-21.7-6-20.4 14.9zm-1.4 33.4a1.3 1.3 0 0 0 2.1.7c0 27.5 1.6 10.3 15 19.8v-2.8c11.9 3.4 3.8-16.9 6.1-24.5-7.2-3-12.4-.3-21.1-1.3 1.1 3.3-2.4 2.1-2.1 4.7l-1 .8.4 1.3c-1.6.3-.5 3.2.6 1.3zM230.8 187c41.9-1.3 45.9 16.4 45-24.5-5.1-2.5.4-5.3-6.8-.7-31 2.1-42.3-12.7-38.2 25.2zm-1.4 32.7c2.6 1.4 1.1 6.7 2.8 8.9 12.1 1.6 21.9-.8 29.3 2.7 0-4.3 9.6-.5 13.6-1.4-.6-1.9.9-1.7.7-3.4.6-.1 1.2-.4 1-1.2 1.9.9 2.4-.9 0-.8-3.7-40.9 4-26.5-43.3-30-6.7-5.3-.2 19.6-4.1 25.2zm-2 49.8c-10.5-1.7-19-1.4-31.3-1.4.2 1.5-.2 2.6-1.4 2.7 3.8 34.2-6.6 33.6 32 30.7.6-6.1-2.3-13.3 4.1-16.4-1.7-.9-3.3 1.5-3.4 0-.5-4.6-1.5-11.2 0-15.6zm-30.7-83.2c25.8 2.6 29.9 3.4 27.3-25.2-26.3-4.5-30.4.1-27.3 25.2zm-1.3 40.9c35.8 3.4 30.6.3 27.9-33.4-34.5-5.1-28.5 6.2-27.9 33.4zm-38.2-21.8c5.5 13.9-7.4 18.9 11.6 22.5 4.3-4.1 16.5.7 19.8-1.4 0-12.3.6-22.9 0-34.7-2.5 1.3-8 2.6-9.6-.7-1.6 1.9-3.3 3.7-5.4 1.4-2.5 3.1-11.5-.1-15 2 1.4 3.5.1 8.3-1.4 10.9zm-39.5 96.1c44.4 2.5 40 8.2 36.1-34.8-38.8.4-36.8-7.8-36.1 34.8zm1.4-77c13.9 1.8 21.2-.3 32.7 2 2.4-3.1-1.8-10.4 2-10.9-5.4-7.7 3-19.8-5.4-23.1-31.1 2.8-30.7-4.9-29.3 32zm-3.4 12.9c1-.2 1.9.6 2.7 0-1.1 32.2.8 21.8 35.4 21.8-2.6-38.3 5.6-19.8-19-29.9-.9 4.5-13.3 1.7-15.7 2 .5 1.9-1 1.8-.7 3.4l-1-.3c-.2 1.4-1.9 1.3-1.7 3zm0 81.1c6.7.5 1.8 32 4.1 40.9 7.7 1.2 22.7-4.5 28.6.7 2.8.3-.7-1.9 2-2.1 11.8 5 4.4-43.2 5.5-48.4-13.4-.8-22.5-.3-36.8-.6-1.4 2.9.3 8.9-3.4 9.5zm3.4 81.1c38.5-.2 37.7 8 36.8-34.8-42.7 3.4-37.1-11.8-36.8 34.8zm-5.5-75.6a.9.9 0 0 0-1.3 0c-.4-5.2-.3-7.2-.7-14.4-3.9 0-.8-3.2-4.1-3.4-2.1 6.3-17.3 1.4-23.8 3.4-2.2 12.9.4 26.3 0 39.6-7.4 18.5 18.7 9 28.6 10.9-.2-1.1.6-1.2.7-2.1s1.1.3 1.3-.7 2.1-.4 2.1-2-1.2.6-2.1.7-.4-1.1-1.3-.7c-.2-2.1-2.5-11.3 1-10.6l-.4-1c3.6.4-.4-3-.6-.7-3.2-3.2 4.6-4 2-6.8.9-.1.9-2 0-2-.1 1.7-2-.7-2 1.3-1.6-1.6-.3-6.1-.7-8.8.9.4 1.1.3 1.3-.7 2 1 2-3 0-2zm-31.3-65.4c32.8 2.9 28.7 4.6 30.7-25.9-32.8-5.2-30.9-5.8-30.7 25.9zm-36.8 33.3c.1 4.5-1.7 9.8 2.7 11.6 5.3-1.6 19.7-3.3 23.2 1.4 9.1-4.2 3.8-18.9 4.8-26.6-.2-1.6 1.9-.7 2-2-3-2-2.3-8.3 0-10.3-28.8.9-38.5-10-32.7 25.9zm4.1 17.1c.2-1.8-.3-3-2-2.8-.7 2.3-.1 3-2.8 4.1 1.5 17.6.8 31 1.4 51.1 10.2-.6 19.8.1 30-.7.7-17.8.1-32.2 0-51.7-9.7.2-16.3-.1-26.6 0zM39.4 467.7c2.1-.5 1 1.6 2.7.7.2 6.1-3.3 9.5 5.5 8.8-.1.5 0 .8.6.8-1.5 1.2 1.3 3.1.7.1l1 .2-.3-1.1c27.8 1.3 31.7 1 26.6-29.3-20.9 1.5-37.5-8.8-34.1 17.8l-1-.4c-.2 1.7-2.3.3-1.7 2.4zm2.7-45c4.9 4-1.2 12.3 1.4 17.7 9.6 1.4 24.6-2.1 32 4.1 3.3-11.6.7-23.7 1.3-36.1-9.9-1-23.4-.2-33.3.7a5.3 5.3 0 0 1-1.4 6.8c2 1.7 1.8 5.4 0 6.8zm34.7 100.9c-33-.9-38.1-5.4-36.7 29.9 26.9-2.3 44 8.9 36.7-29.9zm1.4-7.5c-2.4-10.2-.5-22.9-1.4-32.7-5.2-1.4-5.8.4-9.5-1.4-18.5 7.3-30-11.7-25.2 22.5-.1 1.3-2.2.5-2 2 3.6 1.1.3 6.4 1.3 10.9 13.5.1 24.4 0 36.8-1.3zm-2-127.4c3.9-32.3-6.2-18-30.7-20.5-2.4 11.4 2.9 25.9-3.4 32.7 2.6.2 7.9 1.1 10.9 2.8 7-4.4 16.9-.8 23.8-3.4.5-3.8-1.2-9.9 2.1-8.9.6-2.5-3.1-.6-2.7-2.7zM83 274.9v6.1l-1-.3c-.3 1.4-2 1.4-2.4 3.1 1.4-.3 3.1 2.2 3.4 0 .7 6.2-1.5 13.2 1.3 19.7 8.5-3.5 19 1.4 27.3-2-.3-13.1.2-20.7 0-32-.3-1.7 3.1.3 2-2.1-4.8.2-35.3-6.6-30.6 4.8-1-.5-1.2-.3-1.4.7-1.4-.6-3 1.7-1.3 2 0-.7.8-.5 1.3-.7s.4 1.1 1.4.7zm-.4 268.8c3.3.5 1.1 5.6 1.7 8.5 7.9.6 15-.2 25.9 0 .1-46.6 4.9-23-24.5-31.4l1 .4c-.9-1.5 1.3-1.3 1-3.1s1.2-1.1.7-2c10 .2 10.7-.3 21.8-.7-.8-10 2.8-28.9-2.7-34.8-1.6 2.7-4 1.1-9.5 2.1-1.7-1.4-3.1-2.9-4.1 0-3.5.1-7.7-.4-10.2.7 1.4 9.3-3 27.3 2.7 34.7a3.2 3.2 0 0 0-.7 2l-1-.3c-1.3 6.2 1.4 18.3-2.4 22.1-2.7-2.5-2.1 2.9 0 .7zm29.7 31.6c-2.6-4.7-1.4-9-2.1-15.6-4.6-2.5-11.3 1-15.6-2.1-2.3 3.8-7.7.2-10.9 2.7.2 8.5-1.5 19.2-.7 27.3a153.6 153.6 0 0 0 27.2-.7c.4-2.4-.9-9.8 2.1-11.6zm1.3-124c-3.6-3.1-25.5-4.4-23.8-8.1a167.5 167.5 0 0 1 22.5-2.1c-4.6-10.7 2.6-22.8-.7-34-34.9-2.9-28.3 2.9-27.9 34 7.4 3 4.2 1.7 5.4 4.1-2.5.7-1.5 4.2-4.8 3.4.4 11.6-2.1 18.8.7 29.3 5.8-4.3 18.1.8 25.2-2.7 1.3-8.3-2.5-21.4 3.4-23.9zm1.4-79c-.5-2.8-2.7-2.1-1.4-5.4-9.4-.3-20.3.2-29.9.6-1.1 2.4.5 5.5-1.4 8.2 3.7 8.4-2.6 18.1 2 25.2 36.2.4 25.1-.3 29.3-29.9.1.8.2 1.6 1.4 1.3zm35.4 220.1c-6.4-.6-10.4 1-14.3 0l.4-1.1c-1.3-.2-1-1.3-2.4-1 .5 2.1-1.6 1-.7 2.7-5.8.6-17.2-2.5-15.7 5.5-.9-.4-1.1-.3-1.3.7s-2.6.2-2.1 2c1.1.1 2.3-.4 2.4 1l1-.3c-1.2 33.2.2 24.6 32 25.2 1.6-11.2.6-24.1.7-34.7zm2.1-33.4c-2.6-.2-3.3-2.2-5.5-2.7.6 2.2-2.2.9-2.7 2-31.8-2.2-28 1.4-27.3 27.9 34-2.7 34.6 11.2 35.5-27.2zm-.7-37.5c-36.7 2.5-36.6-10.8-34.8 30.7 32.3-2.2 39.5 6.9 34.8-30.7zm3.4-40.2c-12.8.5-26.1.8-38.2 1.4.7 3.3-.8 4.6-2 6.1 3.7.7 1.3 7.2 2 12.3.2 1.8-2.6.5-2 2.7 4.2.1 1 7.6 2 10.9 43.4 1 35.7 8.3 38.2-33.4zm0-32.7c-29.8 1.2-43.5-7.3-37.5 27.3 27.4-1.7 43.5 6.2 37.5-27.3zM189.9 591c-38-1.1-33.1-.5-32.7 35.4 40.6 2.1 31.6 4.1 32.7-35.4zm.7-25.2c.1-3.1 2.1-6.8 0-8.9-9.3 1.6-21.9-.1-31.3 1.4-.5 8.8-1.8 19.7-1.4 27.2 16.9-3.6 37.4 9.4 32.7-19.7zm0-45.7c-5.5 2.6-12.3.9-19.7 1.4-2.4 0-6.7 1.7-7.5-1.4-7.6 1.3-2.4 23.4-4.8 30.7 32 .5 37.1 4.1 32-30.7zm2.1-38.8c-3.5-2.1-6.7-.5-8.2-3.4-33 8.7-20-7.2-24.5 36.8 5 3.8 21.3-4.6 21.8 3.4 2.3.1 1-3.4 3.4-3.4 1.4 3.4 3.1-.9 6.1 0 1.1-12.7 1-23 1.4-33.4zm-.7-34c-8.1.9-20.5.6-29.3.6-.2 10.2-1 14.5-.7 25.9 2.3.1 5.2-.6 4.8 2.1h.7c-1.9 1.9 1.7 1.9 1.3 0s.3-1.2-.7-1.4c3.5-2.4 11.1.4 15.7-.7 2.1-.7 5.8.2 8.9-.7-1-8.6 2.3-20.4-.7-25.8zm1.3-39.6c-8.1-3-20.7-.9-31.3-1.3-.9 5.3 2.1 15.9-2.7 13.6-.5 2.3 2.5 1.1 2.7 2.7s.8 5.3-1.4 5.5c-2.9-1.5-1.9-3.2-5.4-1.4-1.3-25.2 6.7-17.5-13.6-21.8-5.1 2.6-14.6 1.1-21.8 1.4-2.6 10.3-1.5 25.1-2.1 36.1 12.5-.8 20.5-.3 37.5-.7.3-4.2-1.4-10.5 2.7-10.9-1-.6-2.6-.5-2-2.7 9.8-1.3 3.5 9.3 7.5 13.6 37.7.4 27.3.2 29.9-34.1zm-30.6-29.2h-2.1c4.7 28-6.1 20.2 31.4 20.4-2.9-31 6.2-41.2-30.7-33.4 3.1 1.7.6 9 1.4 13zm26.5-109.7c-35.6-7.2-28.2 4.2-25.8 33.4 12.1-1.4 30.4 6.2 25.8-11.6 1.5-.5 2.2 1.9 2.1-.7-3.1-5-1.5-15.4-2.1-21.1zM163.4 358c5.6-1.4 18.9.2 26.5-1.3-.6-17.6.4-30.4-.7-47.7-7.6 1.4-21.1-3.2-25.8 2-.1 16.6-1.2 32.9 0 47zm31-98.4l1-.4c.3 3.3 5.9 1.6 9.5 2.1 2.3 2.3 4.3.5 6.8 0 21.7 5.6 15.2-12.8 11.6-27.3-26.2 1.7-29.8-6.5-27.9 22.5-1-.4-1.2-.3-1.4.7-5.7 2.6-6.1-4.9-3.4-6.8-4.3-2.9.1-13-2-16.4-10.5-1-21.3-1-29.3-1.3 1.5 12-4.8 32.6 13.6 27.9-1 2.8 2.1.6-.7 4.1 3 .7 1.2-1.8 3.1-2.9l-.4-1.2c4.6.2 10.2-.6 13.7.7.1-4.1 3.3-1.4 5.4-2.7zm35.7 362.7c-.2-47.5 7.4-25.5-25.9-34.7-.8 2.7-4.4 1.7-7.5 3.4-1 6.5 2 20.4-2 23.8 3.8.9 1.7 8.6 1.4 11.6 2.5-.7 1 2.6 3.4 2.1 7.2-5.2 22.5.9 33.3-3.4.7-2.5-3-.6-2.7-2.8zm3.4-227.5c-5.1 1.5-2.2-13.8-1.3-15s-1.9-1.6-2.1-3.4c6.6-23.1-17.3-9.8-26.5-15.7-.6 1.6-4.3 1.4-6.9 2.8 1 12.1.6 24.2 2.1 37.4 9.7-6.6 27.1 4.2 34.7-6.1zm2.8-40.2c14.9 1.8 27.5.7 42.2 0 2.8-12.4-1.6-34.8 2-45-12.9-4.3-31-1.8-46.3-1.3.4 8.7 1.5 16.5-.7 24.5 2.2 2.2 2.6 8 .7 10.9 3.4.9 1.6 7.1 2.1 10.9zm42.9 235c-40.2-.1-46.2-9.5-41.6 36.8 44.2.4 41.2 8.7 41.6-36.8zm0-13.6c.8-7.5-.3-15.8.7-23.8-15.8.9-27.7 1.4-41.6 2.7.8 32.7-8.9 25.6 21.8 29.3 5.3-3.6 11.8-.6 18.4-2.1 1.3-.4-.4-4 2-3.4.9-2.2-2.2-.5-1.3-2.7zm2.7-86.5c-9.5-6.2 11.4-10.2-17-10.2 1.6-7.9-5.6-3.3 14.3-6.8-2.9-7.6 5.1-30.4-6.2-28.7-1.6-.1-1.1-1.8-2.7-1.3-8.8 3.7-21.8.2-32.7 3.4.3 3.5-2.1 34.5 4.1 27.2 24.9 2.2 21.3.6 22.5 3.4-1 .5-.8 2.5-1.4 3.5-6.1-.9-16 1.4-20.4-2.1 1.1 3.4-3.3 1.2-4.1 2.7-.7 5.2 2.6 14.9-2 18.4 4.3 2.7-.8 19.9 5.4 15-.6 1.5 2.4 5-.3 4.4-6.3 7-2 19.1-3.1 29.7 2.9-.5 10.9-1.9 14.3.7 7-2.4 18.9-3.6 27.3-2.8 5.1-36.1-9.7-24.3-36.2-25.9.5-.9.4-1.1-.6-1.3 1.2-2.2 2.2-4.4 4.7-2.1-6.1-6.8 24.3-1.6 31.4-3.4 4.7-5.3-4.1-21.6 2.7-23.8zm-17.7-83.8c-5.1-1.2-17.2 2.1-21.8-1.4.5 2.9-4.2.4-4.8 2.1-5.4 46 8.6 28.1 40.9 30.6-2.9-15.8 8.7-34.9-12.9-31.3-.1-.6-1.5-1.8 0-1.4s1-1.8 0-2c-.7 2-1.8 2.4-1.8 2.4zm19.7-21.8c.3 1 .5 1.1 1.4.7-3.6 19.3 5.8 12.8 17.7 15.6 2.3-2.2.6-8.4 3.4-10.2-3.9 2.8-3.2-19.7-1.3-21.1-1.2-.2-1.6-1.2-1.4-2.7 7.5-11-14.5-1.9-17-6.8-2.4 6.7 1 17.4-4.1 21.8l-1-.4c.8 1.7-.3 2.4-1.2.7l-1.2.4c-.8-6 1.3-13.8-.7-20.5-13.4.7-28.6.3-40.9.7-4.4 41.6 1.4 39.1 40.2 36.8 3.6-4.1-2.6-13.7 3.4-15.7.9.9 1.4 2.1 2.7.7zm-49.7 391.7c1 0 1.9-.1 2.1.7 10-4.1 16.1 2.4 20.4-2 1.7.2 16.9.9 16.3-4.1l1.3.3c3.2-3.9 5 3.8 9.6 3.8 2.1-3.7 9.9-1.5 15-2.1 1.1-18.3 5.7-29.7-19.7-23.8-.9 4.6 3.3 16.9-5.1 15.3l-.4 1c-3.7-25.2 2.4-15.5-30-17l.4-1c-2.6-1.4 2.1-3.8 3.7-3.8-3.7-4.2 18.8-.8 23.9-2-1.9-14.4 12.4-37.3-6.8-34.1-.7-11.2 3.3-3.9 10.9-6.8-1.2-4.8-.3-12.3 1.3-16.4a6.3 6.3 0 0 0 2.8 2.8v-.7a1.4 1.4 0 0 0 2-.7c.8 19.3-2.6 15.1 17 15.7 2.4-.3.1-7.6 2.8-5.5-3.9-6.9-.7-17.3-1.4-25.2-17.7 1.3-15.9-2.9-18.4 14.3a1.3 1.3 0 0 0-2 .7c-2.3.7-1.1-2.1-1.4-3.4-5.3.8-.7-6.3-2-10.2-2.2 1.8-3.7-2-5.5-2.1-3.7 4.4-10.4-.4-14.3 2.8-6.8.3-13.4-.8-19.8 1.3.2 10.1-1.7 21.7 1.4 30 5.2-5.9 16.8-.5 23.2-2 1.1-.4 1.9-2.6 2.7 0-1.7.7-.4 2.6-.7 4s-.7.9 0 1.4c-5.4.4-16.6 2-21.1-1.4.8 3.8-4.8 1.2-6.1 2.8-1.8 9-1.3 21.4-2.8 32.7 2.9-.6 6 3.1 8.2.7-.6 1.4 2.4 5-.3 4.4l-.4 1c-1.1 1.8-6.3-.4-7.5 1.4 0 9.3-.7 18.1.7 27.2zm2.1 55.2c14.2-.3 28.4.6 39.5 0-5.2-49.6 14.1-53.5-37.5-49.1l.3-1-1 .4c1-2.1-3.4-2.1-1.3 0a.9.9 0 0 0 0 1.3c-6.3 9.2 2.3 25.4-2.8 36.1 4.6.5.3 9.7 2.8 12.3zm1.3 39.5c14.1-1.2 25.6-1.4 39.5-2-1.9-12.6 6.8-35.4-10.2-30.7l.4-1.2c-1.6-.7-.4-2.7-2.4-2.2.4 1.8-1.6 1.7-.7 3.4-8-.4-12 0-20.5 0 .3-1.4-.1-2.1-1.3-2 1 3.4-3.4 1.5-5.5 2a244.5 244.5 0 0 0 .7 32.7zm42.9 62.7c-6.2-9.7 8.4-25.6-14.9-21.8.4-1 .3-1.2-.7-1.4-1.8-7.6 8.2-4.5 13.6-4.8 1.4-7.8-.4-19.1-.7-29.2-2.9-1.2-4.8.4-6.8-2.1-31.2 8.4-38.6-10.4-32 33.4 2.2.6.9-2.3 2.7-2.1 8.3.4 13-.5 19.8.7.6-1.1 2.2-2.1 2.7 0-1.7.8-.4 2.6-.7 4.1s-1.1.5-.7 1.4c-7.5.6-12.9 1.2-20.4-1.4 1.1 3.4-3.3 1.3-4.1 2.7.7 10.2-.6 21.8 0 34.1 3-1.1 5.9 2.6 3.1 3.8l.3 1c-8.8.9-2.6 21.3-4.1 28.6 15.2-.8 24.6-1.6 40.2-2.7-.4-9.1 1.2-16.1.7-25.2-14.7-2.4-25.1 2.9-36.1-2.1 2.4-.5 2.4-4 5.4-2-5.5-6.4 25.7-.6 31.4-4.1-1-3-.4-8.6 1.3-10.9zm4.1-101.5c4.3-.9 10.7-.4 15-.7-.1-17.7.1-33.9-.7-51.8-3.6-.4-13.8-.3-18.4.7.5 18.2 2.1 32.9 4.1 51.8zm1.4 37.4c5-1.5 8.8-.5 15-1.3.3-7.8.6-22.3-1.4-30-4.5.2-11.6 1.3-14.3-2-1.8 9.4-.9 26.6.7 33.3zm15 6.2c-4.6-2.5-10.3 1.5-15-.7-1.1 8.8.9 21.9.7 30 21.1 6.5 13.1-15.6 14.3-29.3zm-.7 77.6c-17.9-6.8-15.3 8.8-15 23.9 20.3 4 12.8-10.4 15-23.9zm1.4-21.8c0-7.2-1-14.5-.7-19.7-3.3.7-4.2-.9-5.5-2.1-.8 3.1-7.6 2.2-9.5 2.1 1.3 9 .3 23.2.7 33.4 11.2 2.4 16.4.2 15-13.7zm-2.1-215.2c.9-6.4 2-8.9-4.8-10.3-3.2 4.1-10.8-.6-14.3 2.8 2.2 2.7-1.1 4.4-1.3 6.8 3.2 3.8-1.4 7.7.7 12.2-2.6 2.2.6 7.9-1.4 11.6 4.6 4.9 15 .6 20.4 2.1 1.4-.5-.4-4.1 2.1-3.4-2-4.2-2.8-19.2 1.3-19.1.8-2.5-2.3-1.3-2.7-2.7zm5.5-127.4c-7.3-.8-13.1 1.3-18.4-1.4-1.4 2.6.1 9.8-2.8 8.9 3.6 2.3-.1 5.3 1.4 10.2-1.1.3-.6 2.1-2.7 1.3-.5 2.4 2.5 1.2 2.7 2.8-2.6 20.4 0 15.9 16.4 17 1.7-12.5-1.4-29.5 3.4-38.8zm.6 183.2c26.2 2.3 27.5 1.7 28-23.8-2.9-.3-4.7-4.6-6.2-.7-30.1-1-19.7.6-21.8 24.5zm32.1 211.2c-32.6-2.3-32-2.4-32.1 30 36 1.7 33.3 3.7 32.1-30zm.6-31.3c-3-.7-7.6.5-10.2-2.1-22.3 6.7-22-6.7-21.1 26.6 27.3-1.8 33.9 10.8 31.3-24.5zm1.4-120.6c9.4 1.6 21.4.3 33.4.7-.5-17.2.3-32.4 0-53.2-10.5-1.1-17.3.2-26.6 0 .2-1.7-.2-2.9-2-2.7.2 4.8-4-.4-4.8 1.4-3.4 13.1 2 30.4-2 43.6 2.9 2.6 1.2 7.7 2 10.2zm2 35.4c9.7 1.4 6.3.3 7.5 2.7-2-.5-.6 1.6-2.3 1.7l.3 1.1c-11.6 2.8-2.2 20.9-4.1 31.3 9.4 2.7 21.3 1 34.1 0-.5-33.2 3.3-30.5-28.6-30.7a2.3 2.3 0 0 0 0-2c.6 0 .5-.8.6-1.4s1.2-1 .7-2c22.8-1.5 28.6 5.5 23.9-27.9-29.4-1.1-39.3-8.6-32.1 27.2zM376.6 982c-35.6-1-31.6-2.6-31.3 30.7 29.9 1.2 35.4 2.9 31.3-30.7zm.7-30.6c-7.7-2.3-17.3 2.6-21.8-3.4-1.5 2.8-4.7 3.9-9.6 3.4.6 1.9-.9 1.7-.6 3.4-1-.5-1.2-.3-1.4.7s-1.9-.2-2.1.6 1.9-.5 3.1.4l.4-1c-.1 27 1.6 19.4 27.2 19.7-.4 1-.3 1.2.7 1.4-2.1 2.3 1.6 3 1.3 0 1.1-.2 1.2-.5.7-1.4 5.1-4.4 1.3-15.5 2.1-23.8zm.7-7.5c-2.3-45.3 8.3-27.9-25.3-35.4a3.6 3.6 0 0 0 .7 2c-3.6-.8-5.1.2-9.5 0 1.5 37-3.3 35.4 34.1 33.4zm0-194.2c3.2 2.4 1.5 16 2 21.1 29.3-1.6 38.3 8.5 34.7-25.2-8 .7-13.6.9-19-1.3-1.2.8-1.8 2.3-4.1 2-8.2-10 15.6-7.2 22.5-6.8 2.9-3.4-1.7-12.6 2-16.3-3.5-4.4 1.8-15.9-2.7-19.8-6.7 5.5-18 .9-25.9 2l.3-1a4 4 0 0 1-2 .7l1-.3c-12.3-4.3-4.9 32.9-6.1 38.8 4.2-.6 1.1-7 8.8-2.7-5 10-5.5 1.7-11.5 8.8zm3.4 82.5c37.4-3.7 30.5 12.9 34.7-25.2-11.1-36.3 17.4-29.6-36.1-29.3-.5 16.6.4 37.1 1.4 54.5zm2 33.3c32.1-.6 34.3 6 32-25.9-8.6 1-38.4-8.2-33.4 6.2.4 1.3-3.7 1.5-1.3 2.7 3.9-.3-.3 12.4 2.7 17zm0 7.5c1.9 10.8-.3 26.8 2.7 32.7 4.9-5.4 24.9.1 31.4-2.7-.2-37.8 3.5-32.1-34.1-30zm32.7 107.7c-32 2-33.1-4.9-32 31.3 33 1.8 34.8 1.9 32-31.3zm-26.6-32.1c2.6-10.4 19.7-2.9 27.3-5.4 1.7-7.2-.7-16.1 2.7-20.4-3.6-2.2-.8-7.7-2-13-5.9-3.7-11.1 3.2-19.1-.7-.1 2.7-10.8-.3-13 0-.4 9.2.8 24 0 34.1 1.3 2.1 2.7-.2 4.1 1.4-6.2 7.7-4.1 20.2-4.1 30.6 26-.4 37 4.4 30.7-25.2-11.3-1-19.5 1.4-26.6-1.4zm32.7-116.4c7.6 1.2 17.3-.8 24.6 2 .8-3.8 6.4-1.3 9.5-1.4-2.1-17.4.7-40.1-2.7-55.8-2.8-.6-3.5 1-6.2.7s-1.6-2.5-4-2.1c-34.1 3-18 .1-23.9 30.7 4.1.2.7 20.6 2.7 25.9zm2.1 32.7c8.3 1 19.4-2.2 23.8 1.3 1.4-3.3 6.9.2 8.9-1.3-1-6.8 2.1-20.5-1.4-25.9-24.3 1.4-40.9-7-31.3 25.9zM457 981.3c-36.2.8-33.6-9.5-33.4 30.7 35.6 1 35.7 5.5 33.4-30.7zm.7-72.8c-10.1 1.5-17.4.4-24.6 1.3.5-1.8-1.4-1.3-2-2 .5 2.5-2.9 2.2-6.1 2.7 1.3 9.9-.5 26.4-.7 32.7 9.3.8 18 .7 29.3.7 1 2.1-.8 3.8 0 6.1-7.5 1.4-15.3.1-21.2 0 2.2-3.4-2.8-3.5-.6.7-3.1.3-5.1-.4-7.5-.7 1.3 9.4-3.2 20.8 2.7 25.9 23.3-4.6 33.5 9.9 30.7-25.2-4.5-.1-2.9 1-3.4-2.7 2.1-.1.8-1.9.6-3.4 7.3-3.7 2.3-27.8 2.8-36.1zm0-286.2c1-38.5 6.2-35.8-32.1-35.4-4.6 9 1.4 20.9-3.4 27.9 4.1 3 .9 7.9 1.4 13 6.3 1.4 16.2-.9 22.5 2 2.3-3.8 8.5-.3 11.6-1.3-.4-2.4-.2-4.3 2.7-3.4.6-2.5-3.1-.6-2.7-2.8zm-31.4-199.6c-1.5 3-1.5 3.7.7 6.2.6 1.8-.6 2.9.7 4.1 11.9 0 20.6.3 30 .6 2.2-5.1-.4-16.7 1.3-21.1-1.7 1.1.8-8-2.7-7.5.2 1.8-.3 2.9-2 2.7-15 1-33.3-6.6-28 15zm32 53.8c-7.3 2.4-22 1.1-27.9.7 1.6.6-1.8 1.8-3.4 1.4.2 11.5-2.1 20.5-.7 32.7a142.4 142.4 0 0 0 26.6.7c2.1 1.6-.1 3.8.7 6.1-20.9-.9-19.4-2.5-22.5-2 2.9 4.2-3.8 1.8-5.5 3.4.8 7.9-1.5 18.8 1.4 24.5 10.5-1.5 22.3-.6 31.3-.7-.8-8.9 4.8-22.8-3.7-26l-.3-1.2c2.8.1.4-2.1.6-3.4 8.9-.5 2.7-28 3.4-36.2zm.7-36.1c-34.3-1-32.6-7.9-32 30 33 4.2 33.4 1.9 32-30zm-34.7 139c33.9 2.7 37.3 7 34-30-37.2 3-32.5-12.9-34 30zm36.8-184.6c-1 0-2.1.4-1.7-1l-1.1.3c.6-6.2-.7-10 1.4-14.3-4.8-4.5 1.2-15.2-3.4-20.4-12.9 2.8-23.5-2.8-33.4 1.3 3.4 11.5 1.3 27.4 3.4 40.2 5.6.1 14.7-1.1 19.8 1.4 3.1-4.4 14.1 3.2 12.2-5.5l1.1.4c-.5-1.5 1.5-1.1 1.7-2.4zm3.4 469.4c5.5 2.4 13.1-1.7 18.4 3.4 1.9-1.2-.3-2.7 2-2.7 23.7 5.5 20.9-5.9 19.1-25.3-29.3 3.5-44.6-14.5-39.5 24.6zm40.8 8.1c-43.6-.6-43.5-11.2-39.5 30.7 42.9-5.4 42.4 13.5 39.5-30.7zm26.6-102.1c3.6-24.4-3.4-25.8-25.2-22.5-1.4 3.3 3.6 17.2-5.1 16l-.3 1c-3.4-3.2-.1-13.6-1.4-17-3.9-1.5-6.3-.7-10.9-.7-.8-2.1.5-4.1-2.1-5.4 3.6-.8 6.7-2 11.6-1.4 1.8-10.1 3.6-26.2 4.1-34.8-6.5-2.7-13.6.9-21.8-1.3.9-.2.9-2.1 0-2.1-1.5 5.7-11.7 1.6-17 2.8-.2 18.6-11.1 38.9 15.7 36.1 2.6.2 6.3-2.5 6.8 1.3-.5 1.6-3.9.2-3.4 2.8a1.2 1.2 0 0 0-.7 2c-23.6-3.3-22.4 1.5-21.1 23.2 5 1.6 16.7-3.1 17 4.7-1.9 4.9-10.5 2-16.4 2.8-2.2 10.8 4.2 30.2-.6 39.5 3.3 2.3 1.7 9.6 2 15 15.6 1.9 26.1-.2 40.2 0-.7-16.7-.2-40.8-3.4-55.2-5.2 1.3-14.5.8-19.8 0l.4-1.3c-1.6-.6-.4-2.6-2.4-2.1.4-1 .3-1.6-.7-2.1a191.5 191.5 0 0 0 24.2-1.7c10.1 0 17.9 2.3 30.3.4zm-20.4 62c7 1.1 18.3.8 24.5.6-.6-19.3-2.6-36.9-4.1-55.8-9.3.6-17-.2-23.8.7-.4 18.5 2.6 31.7 3.4 54.5zm2 119.2c-2.2 18.8-2.9 27.4 19.1 23.1 1.1-19.8 5.1-26.1-19.1-23.1zm23.9-78.4c-33-3.5-23.6 3.8-23.2 28.6 24.7 3.7 25.8-4.8 23.2-28.6zm45.6.7c-10.8-1.4-25.4-.1-38.1-.7 1.4 11.2-2.5 19.1-2.1 28.6 29.9-2.2 42.6 13 40.2-27.9zm0-33.4c-7.2 1.8-44.6-8.1-38.8 7.5l-1.3-.3c-4.3 3.7-6.1-4.5-6.9-7.9-8-1.6-14.9 1.7-21.8-2.7-5.8 6.8-.3 19.5-2 28 6.4 2.3 17 1.2 25.2 1.3.1-4.7-1.6-13.1 5.1-12.6 3.9.7.8 9.3 2.4 12.6 14.7.3 27.6.9 38.1 0 1.8-8-.8-15.3 0-25.9zm.7-363.1c-2.8-1.6-11.8 1.9-13-1.3-3.3 2.8-6.8.5-10.2 0-4 4.9-18.9-4.4-16.3 7.5-1.9-.7-3.1 2.1-1.4 4 5 34.8-9.2 24.2 39.5 25.3 1.4-11.5.5-25.3 1.4-35.5zm1.4-8.1c1.2-9.1 0-17.6 1.3-27.3-12.8-.3-28.7-.3-42.9 0-1.9 40.1 2.9 27.7 41.6 27.3zm.6 143.7c3.1 3.1 0 12.3 2.1 16.3 10.8 0 21.3.8 32-.6 2.2-13.4.5-26.2 2-39.5-2.9-.9-7.1-.6-8.8-2.8-2 5.3-9.3.7-13 1.4-.4-3.3-1.4-2.5-.6-6.1 31.8 4.4 21-6.8 23.1-30-31.6-3.8-39.2-5.7-34 30 4.9-.9 11.3.6 9.5 6.8-18.6-5.9-7 14.9-12.3 24.5zm.7 48.4c2.9.2 4.1 2.2 6.1 3.4 24.9-10.9 30 13.1 27.3-29.3-31.1 2.7-34.2-8.8-33.4 25.9zm0 36.1c11.6-.2 24.1-.1 32.7-1.4 1-24.5 6.5-29.9-22.5-27.2.4-1.8-.2-2.5-2-2.1-1.3 4.9-5.6.8-8.2 2.7.7 10.1-1.4 21.3 0 28zm.7 42.9c37.2 1.7 35.8-.3 31.3-36.8-41-1.5-31.3 1.1-31.3 36.8zm0 30c7.2 3.7 17.8-2.5 25.9 2.7.1-4.2 7.9-.7 10.2-2.7-2.6-7.5-1.5-17-2.7-24.6-26.8 4.2-35.9-10-33.4 24.6zm37.5 41.5c-4.7-9.1-.3-23.4-2.8-33.4-53.4-6.4-27.6 9.3-32.7 54.5 11.2 1.8 23.6.2 34.1 0 1.7-7.2-.7-15.2 1.4-21.1zm0-117.2c2.9 3.1 7.2 1.6 11.5 1.4 28.8 2.4 22.6-4.1 22.5-27.9-39.1.3-27.2-5.8-34 26.5zm34-59.9c-26.1 3.2-35.2-7.3-30.6 28.6 23.6-6 36.7 8.4 30.6-28.6zm2.1 81.7c-3-2.5-.4-10.5-2.1-14.3-8.6-1.1-14.3 2.5-22.5-.6-.5 3.9-5.4.6-8.8 2a233 233 0 0 0 .7 35.4c31.1-6.1 31.8 10.1 32.7-22.5zm-.7-130.8c-6.4 1-11 .3-17.7 1.4a1.8 1.8 0 0 0-1.4-2c-.9 4.4-6.9 1.7-11.6 3.4-1 12-.1 26.2-2 40.2 42.4 6.7 33.3-11.9 32.7-43zm2.7-34c-34.9-1.2-33.8-8.2-33.4 29.3 26.9-.2 36.9 2.3 33.4-29.3zm.7-35.4c-32.6 2.7-35.4-9.6-33.4 27.2 33.2.5 36.6 10.4 33.4-27.2zm0-41.6c-9.1-1.5-20.4 2.9-27.3-.7-.3 4.6-6.8-.4-8.1 3.4 5.4-.4-.1 27 2.7 34.1 37.9-1.8 35.5.2 32.7-36.8zm23.8 160.1c-25-3-20.5 4.4-20.4 25.9 9.9.5 21.9-.6 32-.7-3.6-10 6.8-29.5-8.2-25.2-1.2-3.8 2.8-6.5 8.2-6.8.1-17.3.4-28 .7-42.3-10 .5-21.8-.8-30.7.7 1 41.6-14.5 42.9 22.5 42.3-3.2 1.3-2.5 4-4.4 5.1zm-2-119.2c-20-5.7-12.5 17.1-14.3 28.6a156.9 156.9 0 0 0 30.6 1.4c.4-10.5 1.5-17.8 2.1-29.3-3.5-3-14.6 2.1-15.3-3.1l-1.1.3c0-.6-.8-.5-1.3-.6.5 1.9-1.6 1-.7 2.7zm-16.4 63.3c10.7.3 21.9 1.1 31.4-.6-1.2-11.1 5.4-23.4-3.4-27.3-28.6 2.4-25.9-5.8-28 27.9zm-2 116.5c11.9.2 21.6.3 32.7-.7.2-25.6 2.5-31.8-26.6-26.5-.9-.9 0-3.6-2.7-2.7 1 3-2.6 1.4-3.4 2.7-1 8.3-.4 19.4 0 27.2zm30 40.9c2.6-1.4 4.2 3.5 4.7 0 .9-9.7-.6-24.7-1.3-34.7-10.4 1-21.5-.3-33.4 1.3 1.8 33.6-7.8 35.5 30 33.4zm8.2 38.2c-1.4-7.2-2.2-22.7-2.8-30.7-2.8-3-13.6 2-13.9-3.1l-1.1.4c.2-1.8-2.7 0-.6.7a.9.9 0 0 0 0 1.3c-25.9-4.9-16.3 12.1-16.4 29.3 8.2 1.4 17.8-2.4 23.8 2.1 2.7-2.1 8.2-1.6 11 0zm0-300.5c-39.1-.4-34-1.4-33.4 34.1 40.7 3.1 32.5 4.2 33.4-34.1zm-.7-34c-10.1-1.3-21.8.4-32.1 0-.8-7.6-1 21.7-.6 27.9 28 .2 38.5 5.2 32.7-27.9zm2-20.5c-6-12.4 4.8-13.8-15.7-12.2-1.9-5.9 7.3-6.7 13.7-7.5 1.6-6.2-1.5-25.9 2.7-29.3-2.6-1.7-2.5-8.3-1.4-11.6-10.9-3.5-28.8-.2-38.8.7 1.4 4.7 2.2 12.1 1.4 17-1.9-.8-1.7 1.3-4.1.7-2.5-4.1-3.3-10.8-2.8-18.4-5.1-1.9-17 3-20.4-1.4-.7 4.8-8 1.1-11.6 4.1-1.5 16.4-2 25.1 0 40.2 28.4-2.4 34.5 8.4 33.4-19.7 2.8 3.7 0-1.9 2.4-1.7l-.3-1.1c2.4-.5 2.2 1.6 4 .7.7 8.3-2.5 18 2.8 22.5-.2-2.9 16.1-2.1 19.7-1.4-1 1.7-3.7 1.7-3.4 4.8-1 .2-1.1.4-.7 1.4-24.3-2.9-16.9 7.1-16.3 25.9 11.2.8 20.2-1.2 32.7 0 .6-4.3-.7-9.9 2.7-13.7zm0 240.5c32.9 2.3 30.6 5.8 32-25.9-26.2 1.7-36.4-8-32 25.9zm1.4 34.1c33.7-1.8 27.6 8 28.6-26.6-26.8-2-33.7-5.4-28.6 26.6zm2 41.5c.9 1 3.6.1 2.7 2.7 3.3-4.6 11-2.2 16.4-2.7-.4 1-.3 1.2.7 1.4s-.1 1.9.7 2-1.3-2.5 1-2.4l-.4-1c10.6-1.7 2.5-24 4.8-34.7-6.2-2.1-15.1 2.1-20.4-1.4-.1 2.1-4.5 1.6-5.5.7-4.2 4.9.8 23.8 0 35.4zm2.7 37.5c8.4 1.8 14.9.6 23.9.7-.3-10.7-.6-19.7-.7-30-3-.8-7.5-.1-9.5-3.4-2.1 3.9-11.9.2-16.4 3.4-.5 11 1.6 18.6 2.7 29.3zm24.6 8.2c-5.7-1.1-14.9.7-21.8-2.1-.1 1.8-2.6 1.1-3.4 2.1 5.1 16.1-6.5 39.8 5.4 53.1-.6-2.2 1.1-2.1 2.1-2.7 32.8 9.5 14.2-34.6 17.7-50.4zm2-195.6c-12.3-.8-19.7-.5-32 0-.2 13.4-1.7 27 0 42.3 2.1 1 9.1-1.6 10.2 2 1.8-5.2 14.1.3 20.4-3.4.4-15.2 1.7-25.2 1.4-40.9zm2.7-14.3c-4.6-3.8.5-11.2-1.3-18.4-28 2.1-34.6-10-32.7 25.3 9.7.4 18.9 1 31.3 0 1.5-1.8-.4-6.9 2.7-6.9zm2.1 202.4c22.8 7.5 15.2-15.3 15-30-22.6-5-14.5 15-15 30zm0-80.4c4.8.4 10.1 1.4 14.3-.7-1.8-8.4 1.4-15.7-.7-25.9-4 .5-5.3.8-7.5-1.3 1.1 4-5.1.7-6.1 2.7.2 9-1.3 16.5 0 25.2zm.7-84.5c2.7 3-.4 9.5.6 16.4 4.8-.2 15.3 1.7 17.1-3.4-7.9-7 .8-26.8-1.4-36.2-1.8-2-4.6-3-4.8-6.8 9.9 2.3 4.6-15.6 6.2-25.2-19.3-3.4-13.5 9.4-15.7 24.6 2.2 1.2 10.1 4.1 7.2 6.4l.3 1c-14-3-4.3 17.5-9.5 23.2zm0 51.8c20.6 3.6 13.5-12.9 14.9-28.6-23-4.1-12.2 14.7-14.9 28.6zm-1.4 39.5c2.2 14.6-8.8 45 15.7 36.1-3.5-16.3 8.1-41.9-15.7-36.1zm20.4 129.4c-.9-16.2-3-32.1-3.4-47.7-3.9-1.5-10.6-.2-15.6-.6.6 16.4.3 32.8.6 48.3 8.4.2 13.8-.6 18.4 0zm.7-313.3c-15.9-1.3-14.3.1-15 14.3-1.4-.6-3.1.2-4.7 0a1.3 1.3 0 0 0-2.1-.7c1.6-23.1-5.1-8.3-16.3-17a3 3 0 0 0-.7 2c-20.5-5.5-14.4 19.1-16.4 31.3 16.7-1.7 37.1 8.4 33.4-14.3l1.3.4c.6-1.5 2.2-1 3.5-1.1s1.1 1.2 2 .7c-2.3 13.8 1 16.8 14.3 15 .3-8.8 2.9-20.1.7-30.6zm2.1 177.8c5.4.4 12.7-.9 17 .6-.1 1.8-1.3 2.2.7 2.8-.7-6.6 15.5-1.2 21.1-2.8.4-21.8 8.8-27-15.7-28.6.6 3.3-7.1.3-3.7-.3-1.7-.1-1.4-3.3 0-3.9l-.4-1.2c28.6 3.9 20.6-4.8 21.8-29.3-31.4 1.6-45-11-40.8 30 4.4-2.3 10.7-1 16.3-.7-.4 1-.3 1.5.7 2s1.8 2.8-.3 3.1l1 .3c-6.6 2.7-11.5-.9-18.4 1.4.9 12.8-2.4 19 .7 26.6zm0 42.9c35 1.2 30.3.9 33.3 2.7.2 3.2 3 .7-.6-2 15.6.4 4.8-24.9 6.1-36.1-39.9-1.2-43.9-9.2-38.8 35.4zm1.3 37.5c13.8 1 27.4-.7 40.2.6-.8-12.4-.4-20-.7-31.3-36 2-44.3-11.9-39.5 30.7zm42.9 24.5c-5.3-2.4.3-13.4-2.7-17.1-14.3-.8-28.5.3-39.5-.6 4.9 45.6-14.3 51.3 35.4 47 13.3 6.8 1.6-23.3 6.8-29.3zm.7-325c-11.8.3-27.8-1-38.8-.7-1.6 1.9-.2 6.6-.7 9.6s-2.8 1.2-2.7 4.7c2.2.9.5-2.2 2.7-1.3-.6 6.4 1.4 15.5-1.4 19.7 7.9 7.2 31.8 3.3 40.2 2.1-.3-12.9.7-24.8.7-34.1zm.7-6.8c2.9-34.1 7.7-23.6-21.8-28.6-.1 3.3-17.2-1.6-19.8 2.7 3.6 10.9-5.8 29.9 12.3 25.2 1.2.4 0 3.3 1.4 3.4.6-8.8 20.7.6 27.9-2.7zm1.4 235c1.4 35.3-4.4 37.4 34 32.1.8-33.2 4.3-38.2-34-32.1zm1.3 72.3c4.4 2 10.5-2 13 2 2.8-4 11.9.2 17.7-2 1.7-.8 2.6 3.1 2.7 0 2.4-.6 1.1-4.9 2.7-6.2-4-5.8-.5-19.9-3.4-26.5-34.9.8-34-3.9-32.7 32.7zm.7 7.4c5.6 39.8-14.4 51.5 36.1 46.4 1.6-13-4-23.2 0-35.5-2.5-3.6-1-7.1-2.7-11.5-7.7.5-18.9 1-25.2-.7 2.8-1.3-4.7 2.5-8.2 1.3zM691 633.6h-4.1a6.4 6.4 0 0 0 4.1 0zm108 103.9zm-16.7-75.8h3.4a9.7 9.7 0 0 0-3.4 0zM349 871.3l-2-.7a7.7 7.7 0 0 0 2 .7zm-81.7-34.9h-3.5a10.3 10.3 0 0 0 3.5 0zm-31.4-54.7a7 7 0 0 0 2.7-1zm27.3 124.8a12 12 0 0 0 2 .3zm-19.1-159.8s-1.8-.6-1.7-.4l-1-.3c1.1.7 1.9 1 2.7.7zm19.1-44.5l2 .2zm11.1 68.3v-3.1a5.5 5.5 0 0 0 0 3.1zm-.2-6.8v3.7a6.6 6.6 0 0 0 0-3.7zm5.1 3.7c-.6-1.9.9-1.7.7-3.4-3.3-.8-3.5 3.4-.7 3.4zm-13.3 142.8h-3.4a5.6 5.6 0 0 0 3.4 0zM505.3 764c-1 1.1-1 3.9 1.4 3.4-.1-2.2 1.6-3.2-1.4-3.4zM372.2 976.2h3.4a5.6 5.6 0 0 0-3.4 0zm169.9-125l.7-1c.5 1.2 1.5 1.3 1.4-.3a1.6 1.6 0 0 1-2.1-.7c-.9 0-.8 1.9 0 2zm-4.1-1.3c-.5.4-1.5 3.8 0 4.1.1-1.3 2.3-.5 2.1-2.1-1.6.3.4-3.1-2.1-2zm4.9-2.4v2.6a5.8 5.8 0 0 0 0-2.6zM459 394.8l.4-1a2.8 2.8 0 0 0 0 3.4l-.4-1c.5.2.5-1.7 0-1.4zm21.5 380.9h-3.4a6.5 6.5 0 0 0 3.4 0zm3.4-30.1l-2.1.2a5 5 0 0 0 2.1-.2zm17.7 18.1v4.5c.2-1.5.6-3.1 0-4.5zM371.5 544.6h3.4a6.5 6.5 0 0 0-3.4 0zM591.8.1h-.9a.7.7 0 0 0 .9 0zm111.6 66.7a14 14 0 0 0-1-1.6 2.6 2.6 0 0 0 1 1.6zm230.8-10.7c-1 .8.2 1.6-1.4 1.8 2.7 1 2.7-.5 2.1-2.7-.2.2-.2 1.4-.7.9zM779.9 91c8.7 0 49.4 2.6 27.2-4.1 3.8-4.5-15.9-1.4-20-2.7-1.5 1.7-9.8 6.3-7.2 6.8zm149.4-42c-1.2 3.6 1.2 16.8 3.5 8.9 1.1-.9.4-1.1.4-2.4 2 1.1.8-.9 2.7 0 .8-5.3-1.4-6.2-6.6-6.5zM426 700.3l1-.3c-.3.5 1.7.5 1.4 0l1 .3a2.9 2.9 0 0 0-3.4 0zm586.5-152.6a20.4 20.4 0 0 0-3.4.3zM770 288.9l.3 1c-.5-.3-.5 1.7 0 1.4l-.3 1a2.8 2.8 0 0 0 0-3.4zm243.9-30l-.5-4.1a6.4 6.4 0 0 0 .5 4.1zm-29.6 333.5h-.7l-1.4-.2v.3l-1-.4a3 3 0 0 0 3.1.3zm23.5 107.3l-1.1.3c.4-.5-1.6-.5-1.3 0l-1.1-.3a3 3 0 0 0 3.5 0zm19-111.1l2.1.2zM927.4 468l-1.4-.6zm-76.3-22.4a8.4 8.4 0 0 0-.4 2.7zM816.3 421l1.4-2zm113.1 17.1l-1 .3c-.7.1-1.5.8-2.1.7s2-.2 3.1-1zm85.8-162.2l-1.3-2a4.9 4.9 0 0 0 1.3 2zM893 103.2l-.4 1.1a3 3 0 0 0 0-3.5l.4 1.1c-.6-.4-.6 1.7 0 1.3zM906.3 265l3.4-.7a2.8 2.8 0 0 0-3.4.7zm-21.8-109.3c-1.5-.2-2.4 1-3.5 1.7zM1018 271.8v3.4a5.6 5.6 0 0 0 0-3.4zM933.8 67.1a17.2 17.2 0 0 1 .7 2.1c1.3.2 1-3.1-.7-2.1zM879 264.3h4.1a6.4 6.4 0 0 0-4.1 0zm139.3 17.1v3.4c.7-1.1 0-2.3 0-3.4zm-6.9-115.2v-2.7a6.2 6.2 0 0 0 0 2.7zm37.9 62.7v-2.7a5 5 0 0 0 0 2.7zm-24.5-72.2h-3.4a5 5 0 0 0 3.4 0zm-131.7 34.1v3.4a9.7 9.7 0 0 0 0-3.4zm112.3 282.3l-1.1-.3a3 3 0 0 0 3.5 0c-.2.1-2.9-.3-2.4.3zm63.3 119.3c1 .2 1.1.4.7 1.3h6c-.2-2.1-2.3-10.7-3.3-4.7-1.7.9-2.1-2.7-2.7-.7s.3 1.1-.7 1.3a1.9 1.9 0 0 1 0 2.8zM282 634.9l-1.1 4.1c.9-1.1 1.9-2.5 1.1-4.1zm784.7-42.5l-1-.4a4.2 4.2 0 0 0 4 .7c0 .1-3.1-.7-3-.3zm-1042-185c-.2.1-4-.3-3.7.3l-1-.3c1.2 1.3 3.2.4 4.7 0zm258.6 581.4l-.4 1.1a2.7 2.7 0 0 0 .7-3.4l-.5 2.3zm775.9-359.3l-2.4-.2zm-40.5-88.6v2.8a5.3 5.3 0 0 0 0-2.8zm33.5 58.3l.5 3a3.5 3.5 0 0 0-.7-4l.4 1zm-269.9-165h3.4a7.8 7.8 0 0 0-3.4 0zm276.9 192.2c-1.2 3.5.7 2.3-.7 4.1 23.5 3.9 32.1-9.6 1.4-6.1a1.4 1.4 0 0 1-.7 2zM782.3 866.1l.3-1.2c-19.9.3-4.6-7.2-13.6-12.3-7.2 4.1-.2 14.2-11.1 11.7 4.2 2.8 31.5 12.7 24.4 1.8zm-12.5-19.3l.2 6.8c.5-2.2 0-4.6-.2-6.8zm-259 142l-.3 1.1a2.7 2.7 0 0 0 .6-3.4l-.4 2.3zM217.5 872.9h3.4a7.8 7.8 0 0 0-3.4 0zm564.8-6.8h3.4a6.5 6.5 0 0 0-3.4 0zM483.9 950h-1.4a3.3 3.3 0 0 0 1.4 0zm-4.8-42.6c1 .6 1.8.7 2.4 1.1zm1.4 72.7h-3.4a7.8 7.8 0 0 0 3.4 0zm29.3 9.8l-2.1-2.8zm384.5-731.7l-.3-2.7a10.6 10.6 0 0 0 .3 2.7zM545.5 741.6l2.4-.4a3 3 0 0 0-2.4.4zm-3-485.4l.3 1c-.5-.4-.5 2.4 0 2l-.3 1.1a3.3 3.3 0 0 0 0-4.1zm-62 292.2h-2.7a3.6 3.6 0 0 0 2.7 0zm110.3-333.1l-.3-1c.5.3.5-1.7 0-1.4l.3-1a2.9 2.9 0 0 0 0 3.4zm-82.4-36.1v3.4a5 5 0 0 0 0-3.4zm-24.5 338.9h-2.1a5 5 0 0 0 2.1 0zM507 242.3l1.9 3.6c.2-1.3-.3-3.2-1.9-3.6zm1.4-31.1v3.4a5 5 0 0 0 0-3.4zm3.1 172.7l.3 1c.9-2.8-.6-2.8-2.7-4.1.2 0 2.1 3.8 2.4 3.1zm-34.4 19.4a8.6 8.6 0 0 0-2.8-1.3zM576.5 746c-.1.1-2.8-.4-2.3.3l-1.1-.3a2.8 2.8 0 0 0 3.4 0zm-97-473.8l-1.1-.4c2.1 1.3 4.6.9 6.9 1.4-.1.1-5.9-1.3-5.8-1zM858.9 247l-.3 1a3 3 0 0 0 .3-2.7l-.2 1.7zm-316.4 41.9l.3 1c-.5-.3-.5 1.7 0 1.4l-.3 1a2.8 2.8 0 0 0 0-3.4zM428.4 903.7a7.7 7.7 0 0 0-2.4 1zm-6.7-647.5v4.1a9.4 9.4 0 0 0 0-4.1zm78.5 49l2.8.7a2.7 2.7 0 0 0-2.8-.7zm60.7-182.8h-4.8a11.1 11.1 0 0 0 4.8 0zM457.3 326.3l-.4-3.4a4.8 4.8 0 0 0 .4 3.4zm3.2-4.1l-.3 3.6c1.3-.8.8-2.4.3-3.6zm41.1-13.2l-2-1.1c.6.8 1.3.8 2 1.1zm-17-40.9l3.4.3a3.7 3.7 0 0 0-3.4-.3zm243.9 240.8c.1-.1 2 .3 1.7-.3l1 .3a2.2 2.2 0 0 0-2.7 0zm17-315.4a12.3 12.3 0 0 0 .2 2.7zm-62 119.2l-1 .4c.4-.7-2.3-.3-2.4-.4s2.7 1.6 3.4 0zm-17-57.2v3.4a5.6 5.6 0 0 0 0-3.4zm103.8 3.7l-.3 1.1a3.3 3.3 0 0 0 0-4.1l.3 1c-.5-.4-.5 2.4 0 2zm-243.8 51.1h-1.4v.2l-1-.3a2.4 2.4 0 0 0 2.4.1zm315-148.8l-1 .3v-.2h-1.3a2.5 2.5 0 0 0 2.3-.1zm50.4 218.3l-.3-.7c.5.4.5-2.4 0-2l.3-1c-1 1.3-2.8 3.3 0 3.7zM683.5 85.2l-1 .3c.3-.5-1.7-.5-1.4 0l-1-.3c.9.9 2.7 1.6 3.4 0zM818 214.3h.2l-.5-2.4c.1.9-.1 2.3.7 3.4zM508.4 639l1.4-2a10.1 10.1 0 0 0-1.4 2zm80.4-218l1.4-2a12.1 12.1 0 0 0-1.4 2zM473.7 633.3a6.4 6.4 0 0 0 2 .3zm52.8-550.5h-1.4v.2l-1-.3a2.7 2.7 0 0 0 2.4.1zm138.9 20.4l-.3 1.1a3 3 0 0 0 0-3.5l.3 1.1c-.5-.4-.5 1.7 0 1.3zm-21.8 99.5l-1-.3a5.6 5.6 0 0 0 2.1.6zm22-11.9v3.4a9.7 9.7 0 0 0 0-3.4zm-42.1 254.8a8.3 8.3 0 0 0-.3 2.7zm7.9-198.6l-.4 1c.9-1.2.4-2.1.4-2.7l-.2 1.7zm156.3-10.8h-3.4a7.8 7.8 0 0 0 3.4 0zm34.8-156.5v3.4a5.6 5.6 0 0 0 0-3.4zm-540 910.6a17.8 17.8 0 0 0-2.3-3.2zm262-44.7h4.1a5.8 5.8 0 0 0-4.1 0zM22.7 523.7h-3.4a9.7 9.7 0 0 0 3.4 0zM267.3 632h-3.5a8.3 8.3 0 0 0 3.5 0zM61.5 558.6h-3.4a5 5 0 0 0 3.4 0zM932.8 70.2a9.5 9.5 0 0 0 1.4-2.1zm1.7-6.5c-.5-1.8-3.2-1.3-4.1-2.7-1.6 2-1.6 6.1 2.1 6.1-1.1-1.9 2.5-1 2-3.4zM34.3 407.4H37a4.2 4.2 0 0 0-2.7 0zM934.2 68.1l-2.1-2a10 10 0 0 0 2.1 2zM814.3 85.9h2a2.3 2.3 0 0 0-2 0zm118.9-17.4l1-.4-1-.3zm-178.9 49.6h3.4a7.8 7.8 0 0 0-3.4 0zm-391 74h2.7a5 5 0 0 0-2.7 0zM595.6.1h-.2l.2 1.3zm109.7 70z" fill="#d6caba"></path></g></g></svg>