<svg xmlns="http://www.w3.org/2000/svg" width="735.1" height="1080" viewBox="0.00972604751586914 -0.03040444292128086 735.1478881835938 1079.9114990234375" style=""><g><path d="M402.2.7c-31 17-62.7 32.1-91.7 52.1-5.5-.7-7.6-7.4-12.4-26.2-1.2-4.5-6.3-5-9.5-2.5-35.5 27.9-61.2 54.9-108 22.1-3-2.2-7.3 0-8.2 3.3-2.9 10-3.5 21.2-6.8 30.1C131.8 68 96.1 62.7 59.7 61.8c-4.4-.1-6.9 4.8-4.9 8.5C72 101.7 79.1 136.6 93 169.1c-23.9 15.8-82.3 42.1-73.4 74.5 9.3 33.9 43.3 66.6 72.8 90.1-17 7.1-31.4 19.2-44.8 32.1-10.7 7.2-21.7 14.1-33 20.3a39.5 39.5 0 0 0-7.6 4l-4.1 2.1C.3 393.5-.9 397.7.8 400c24.4 32 55.4 56.5 86.9 81.2a46.8 46.8 0 0 1-4.9 6.6c-16.2 18.3-42.3 29.7-62 43.8-3.4 2.4-4 7.5 0 9.8 29.8 17.5 56.1 38.5 81.3 62.1 3.4 3.2-46.8 22.2-55.1 26.6-2.9 1.5-3.3 5-2 7.7 13.2 28 29.5 52.9 48.5 77.3 9.7 12.5 20.8 23.7 32 34.7h.1l.3.3a2.7 2.7 0 0 0 .8.7l4.5 4.5c16.8 16.3-75.9 51.1-76.3 51.2-5.4 2.2-5.3 8.7 0 10.9 22.7 9.6 46.5 15 69.4 23.4-15.7 27.7-14.6 66.7-14.5 99.1 0 4.3 5.7 7.5 9.1 4.5a5.4 5.4 0 0 0 6 .4c36.3-21.1 75.4-33.1 115.3-45.2 1.7-.5 41.3-12.6 40.8-10.2-3.2 15-4.8 28.5-3.9 44 .2 3.4 3.5 6.6 7.2 5.4 29.4-9.9 57.1-24.2 86.4-34.7 1.1-.4 2.1-.5 3.2-.8l7.5-1.7c22.8-2.7 36.3 14.6 45.1 36.5 1.9 5.5 3.8 11.1 5.6 16.7 4.1 14.1 6.9 28.4 9.2 39.1 1.2 5.4 9.8 5.5 10.9 0 4.9-23.3 25-118.9 63.8-98.6 21.3 11 42.9 20.4 63.3 33.2 24 15.1 45.9 31.6 71.8 43.7s8.1 82.6 3.5 100.7c-1.5 5.7 5.2 9.1 9.4 5.5s8.8-7.8 13-11.7a5.4 5.4 0 0 0 4.3-2.6c.6-1 1.1-2.1 1.7-3.2 29.7-29.7 48.6-63.1 34.2-108-7.5-23.2-24.6-43.2-39.3-62.1-.5-.6-5.5-6.1-10.7-12.4 16.2-12 30.9-25.9 46.7-38.6 2.8-2.3 1.8-7.2-1.2-8.9-13.4-7.4-25.5-16.7-37.9-25.7l.4-.5.6-.4c23.5-21.2 38.2-49 57.8-73.5 2.2-2.8 2.3-6.9-1.2-8.9-26.7-15.2-52.3-32.9-79.8-46.6 12.2-14.5 35.1-33.8 37.7-36.5a5.9 5.9 0 0 0 0-8c-22.6-21.8-46.1-42.6-69.8-63.2-33.5-29.2 25.5-39.1 48.9-49.3 2.8-1.2 3.6-5.3 2-7.7a515.9 515.9 0 0 0-37.8-50.6 78.7 78.7 0 0 0-9.3-12.1 34.9 34.9 0 0 1-2.5-4.5c16.6-8.9 32.7-18.2 47.4-30.6a4.6 4.6 0 0 0 1.5-5.5 4.9 4.9 0 0 0-.6-3.9c-13.8-21.8-25.9-44.4-38.8-66.6 16.2-5.8 32-13.4 48.5-18.4a5.6 5.6 0 0 0 3.5-3.2c3.8-2.1 4.5-7.3.5-9.8l-1.7-1a5.4 5.4 0 0 0-4.4-3.7c-11.5-21.2-26.2-39.2-42.2-57.6-4.8-5.5-32.2-26.2-18.5-36.1 20-14.3 44.2-24 65.6-36.4 3.9-2.3 3.3-7.3 0-9.7-18-13.3-33.9-20.6-55.6-25.9h-.4c4.1-18 7.4-36.8 12.4-52.7 1-1.9 2-3.6 2.9-5.5a6.1 6.1 0 0 0 .4-4l.2-.6c2.1-5.2-5.3-9-9-6.1a6.7 6.7 0 0 0-3-1l-8.1-.6a208.4 208.4 0 0 0-41.9-7c-8.1-17.2-16.7-33.2-31.3-46.6-2.6-2.4-7.1-2.1-8.9 1.2a208.8 208.8 0 0 1-33.6 45.7c2-2.1 1.3-35.2 1.5-39.6s-6.1-6.8-9.6-4c-6.9 5.5-13.6 10.4-20.5 15.1a306.7 306.7 0 0 0-29.4 17.9c-3.5 1.9-7 3.9-10.7 5.7l-2.7 1.4c-6.1-18.3-16-35.9-25.3-51.5a5.8 5.8 0 0 0-7.8-2.1zM289.4 49.5a4.1 4.1 0 0 0 .3-1.6 17.5 17.5 0 0 1 3.2 3.4l-1 .3a16.4 16.4 0 0 0-2.5-2.1zM149.1 901.1l-2.1 1.6c0-.1-.1-.2-.1-.3a13.9 13.9 0 0 0 1.2-2.8l9.5-3.7c-3.2 1.8-6.2 3.6-8.5 5.2zM287 916.2a5.1 5.1 0 0 0 .5 5.2v.2a8.8 8.8 0 0 1-1.6-5.7zm11.1-10.4l-3.9 4.4c.5-1.8.9-3.4 1.3-4.7l1.3-.8zm152 75.5c-.3-1-.5-2.1-.7-3.1a6.4 6.4 0 0 0 .2-.7 20.6 20.6 0 0 0 .5 3.8zm-9.5-42.3c.2 1.4.4 2.9.5 4.3a6.8 6.8 0 0 0 1.8 3.7c-.2 1-.3 2.1-.4 3.1-.4-1-.7-2-1-3l-2.7-8.4a5.7 5.7 0 0 0 1.8.3zm-4.2-14.1a3.8 3.8 0 0 0 1.3.6l-2.1 4.6-.5-1.2-3-7.9a41.8 41.8 0 0 0 4.3 3.9zm14.8-23.1l-3.9 5.9c0-.3-.1-.5-.1-.8a30.4 30.4 0 0 0 3.9-5.5c0 .2.1.3.1.4zM702 1020.7c-.8 1.6-2.4 4.6-4.4 8.1l3.9-11.8a4.7 4.7 0 0 0-.6-4.7c.4-1.8.9-3.7 1.3-5.5a5.6 5.6 0 0 0 2.6-3c.2-.3.2-.6.4-.9a27 27 0 0 0 4.7-10.2 83.9 83.9 0 0 1-7.9 28zm-25.4-26.6a5 5 0 0 0-1.1 1.9c-.4 1.3-.7 2.5-1.1 3.7.1-4 .3-8.1.4-12.1.7 2.1 1.3 4.3 1.8 6.5zm33.8-8.6a28.3 28.3 0 0 0-.3-4.1 4.3 4.3 0 0 0 .1-.5c0 1.5.2 3 .2 4.6zm-517.3-178c0-.1 0-.2.1-.2 2-1.4 3.9-2.8 5.8-4l-4.5 4.5zm-106.3 3.2zm80.1-.4l3.4-1.2-2.1 2.1a3 3 0 0 0-1.3-.9zm-94.4 2.5a11.8 11.8 0 0 0 2.8.4l-.3.3zm190-8.2l15 3.2-9.1 9c-1.2-2.9-3.4-7.2-5.9-12.2zm309.9 5.4l-1.1 1c-.1-.2-.3-.3-.5-.5zm-271.9 20.6h-.1a198.3 198.3 0 0 1 10.7-16.8l4.6.7c-6.1 4.9-11.5 10.3-15.2 16.1zm37.3-13.7h2.6l-5.2 3.9v-.2c.9-1.2 1.7-2.5 2.6-3.7zm37.8 8.2l1.8-.5 3.2.8a7 7 0 0 1-2.7 3.5 24 24 0 0 1-2.3-3.8zm-9.2 5.4l-4.2-.8 1.1-1.3 1.4-.3c.6.7 1.1 1.6 1.7 2.4zm52.7-4.8a7.7 7.7 0 0 0 1.3-1.2c1.3.7 2.5 1.6 3.9 2.3 5.4 3.1 11.8-4.6 6.8-8.9-2-1.7-3.8-3.4-5.7-5.2 2 .7 4.1 1.1 6.1 1.6a88.2 88.2 0 0 0 5 17.1l-2.7.4a4.7 4.7 0 0 0-3.2 2.5c-3.8-3-7.6-5.9-11.5-8.6zm-16.3-12.3h-.5l-.8-.7zm-276.7 9.4h.1c7.1-1.6 14.1-3.5 21-5.6a59.7 59.7 0 0 0-10.5 7.8zm131.3 2.2l3.2-.4-.2.2-2.1 2.1a6.6 6.6 0 0 0-.9-1.9zm30 3.2c3-3.8 6.2-7.5 9.2-11.4-3.4 5.2-6.8 10.4-9.9 15.7l-3.1.5c1.1-1.5 2.3-2.9 3.5-4.4zm-94.8 5.1a6.3 6.3 0 0 0-2-2.8l1-.9 4.9 1.1-2 2.8zm13.6 1.1l1.1-1.6 3.5.7-1 1.1zm42 1.8l-10.7-4 13.5 1.7-2.6 2.4zm-103.3 1.9l.8-.5 8.8 1.3c-.2 1.3-.5 2.7-.7 4-2.9-1.7-5.9-3.3-8.9-4.8zm368.3 5.3l-3.8-2.4 2.6-1.2a21 21 0 0 1 6.2 3.1l-.3.3a5.5 5.5 0 0 0-4.7.2zm-50.9.4c-.6.8-.9 1.5-1.6 2.3a83.2 83.2 0 0 1-4.1 8.5l-.2-.3-8.5-10.5a4.2 4.2 0 0 0 1.4-.6zm12-.3l1 .3-1.8 1.8a18 18 0 0 1 .8-2.1zm129.6 46.6l-5.9-1.8c-10.6-10.4-21.6-20.8-32.3-30.1l3.2-.9.7.5c11.2 11 22.7 21.7 34.3 32.3zm16.3-1.3l.9.5c.1.1.3.2.4.4l.4.8zm-65.7-1.6l-15.2-10 4.4 1.5c3.5 2.9 7.2 5.7 10.8 8.5zm-49.8-23.8l-11.2 9.7-2 .3q5.1-6.1 10.2-12.6zm37.1-2.8h4.9l2.3 2.2a3.8 3.8 0 0 0-1.1 1.1zm-13.6 7.7a7.2 7.2 0 0 0 .9 2l-1.5-1zm-17-10.6c-5.1-3.9-3.7-3.7 1-1.4l.5.3-1 .7zm70.8-3.4c-1.7-1.8-3.5-3.5-5.3-5.2l5 1 8.8 9a4.1 4.1 0 0 0-1.8.5c-2.2-1.8-4.4-3.6-6.7-5.3zm-118.3 25.9c-1.6-1.2-3.1-2.5-4.6-3.8 9.5-9.7 19.1-19.2 28.9-28.5.1.1.2.2.2.3-7.9 8.9-16.5 20.5-24.5 32zm-64.1-.3c-3.6-.5-7.2-.9-10.7-1.1l1.8-.8 5.4-1.2a4.2 4.2 0 0 0 1.4-.6zm17-19.6c4 12.3 3.6 13.9-5.6 4.9 1.9-1.5 3.8-3.2 5.6-4.9zm-51.4 4.1zm81.9-.2l2.5 2a8.3 8.3 0 0 0-.8 1.2l-3.4-3zm86-15.7a11 11 0 0 0-.2-1.8 18 18 0 0 1 1.9 2zm-103.6 4.2c-.6-1.3-1.3-2.5-1.9-3.7l4.7 3.7h-.9a5.9 5.9 0 0 0-1.9 0zm-18.9-9.9l-4.5-1.7 2.8-.6.8-.5zm-102-1.6l-8.9 2.6a6.5 6.5 0 0 0-4.2.9c3-2.1 6-4 8.9-6.2l6.2-.8c-.7 1.1-1.3 2.4-2 3.5zm-109.3 3.2h.9l-3.4 3.5zm15.2 1.3h.3l-.6.3zM181 852l.5-.6-.5.7zm81.6-6.7l3-.6c2.1 2.3 5.8 3.3 8.2.5l1.8-2.3 6.1-1a5.9 5.9 0 0 0 1.9 6.4 354.2 354.2 0 0 1-37.4 7.8zm-87 13.3l1.8-1.2c-2.3 3.4-4.4 6.8-6.4 10.4h-.2l-3.6.4c2.8-3.2 5.7-6.3 8.4-9.6zm115 12.2c.2.3.4.4.5.7h-.3c-.1-.2-.1-.4-.2-.7zm12.9-8.7l4.8-2.4a5.5 5.5 0 0 0 3.6-1.4l.9-.8 3.8-1.9c.2 1.3.6 2.5.9 3.8q-8.7 9.9-16.8 20.4a125.7 125.7 0 0 0 2.8-17.7zm18.4 10.6a9.3 9.3 0 0 1 .5 1c-5.5 3.9-10.9 8.1-16.5 12a146.9 146.9 0 0 0 16-13zm209.3 13.5a4.6 4.6 0 0 0 2-.5l5.9 4.2q-4.6-1.9-9.3-3.6zm-152.7 2.2c8.9-.5 11.1-.3 9.2.4a102.3 102.3 0 0 0-15.6 3zm250.8 10.9a8.2 8.2 0 0 0 3.7 1l4.6 4a85.3 85.3 0 0 0 8.3 8.7 46 46 0 0 1 4 5.8h-.1c-6.3-7.1-12.9-13.1-20.4-17.4a5 5 0 0 0-.1-2.1zm-53.2 10.9c4.7 2.1 9.6 4 14.5 5.8l21.8 16.9a43.7 43.7 0 0 0 3.2 4.3c-13.1-9-26.2-18.4-39.5-27zm83.8 19.1c.1.4.4.7.4 1.2l-.9-1zm-38.4 11.8a4.3 4.3 0 0 0 1.6 0l8.3 6.4zm23.5 14.3a5.9 5.9 0 0 0 2.5-1.7l8.9 7.5c-3.9-1.8-7.7-3.7-11.4-5.8zm23.4-7.7l2.7 8.7c-2.2-3.4-4.5-6.8-6.9-10zm31.4-5.2h-.1a122.2 122.2 0 0 0-20.8-25.2 3.9 3.9 0 0 0-.9-3c-7.4-9.6-15-18.8-22.8-27.9a5.8 5.8 0 0 0 2.3-.8l1.3-1c15.5 17.9 31.1 37.3 41 57.9zm-19.2-89.1c-6.5 5.7-13.3 11.1-20.3 16.2-4.2-6.2-6.7-11.4-3.2-12a153 153 0 0 0 20.2-4.8zm-41.2-4.2h-.6c-4.5.8-4.9 6.5-2.5 9.4 4.8 5.7 9.9 11.5 15.1 17.4a5.7 5.7 0 0 0-2.1 3.5c-6.7-7.6-13.5-15-20.6-22.1-2.5-3.1-4.8-6-7.3-8.7a82.8 82.8 0 0 0 18 .5zm-4.8-5.2l-11.7-3.3a.5.5 0 0 1-.2-.4c4 1.3 7.9 2.6 11.9 3.7zm-77.5 4.6l-2.4.4c-4.3-3.4-8.5-6.6-12.6-9.4l.6-.4c4.9 3 9.7 6.1 14.4 9.4zm114.7-24.9c10.2 6.5 8.4 11.7 2 15.6l-5.6-1.8a5.9 5.9 0 0 0-.2-5.6c3.8-1.2 5.3-6 2.6-8.9zM495 826.6l-3.8 3-10.9-6.9.3-1.2c4.8 1.7 9.6 3.3 14.4 5.1zm-54.2-5.3c1.1 7.3 1 7.3-.5-.6zm225.5-.9l-.8-.5h.1zm-13.4-8.3l-1.1.6a5.4 5.4 0 0 0-2.2 2.8l-2.6-1.9a6 6 0 0 0 2.5-1.3l1.3-1.1.4-.2zm-41.3.8a87 87 0 0 0-11.4.5l7.8-3.4zm28.2-4.3a.1.1 0 0 1-.1-.1h.1zm-143.3-.4l-10.8-6.4 1.7-.9zm-255-8.2c-.2.8-.3 1.7-.5 2.4-2.6 2.5-5.2 5-7.7 7.6a33.1 33.1 0 0 1-12.4 1.8 158.7 158.7 0 0 0 8-14.6zm90-334.5l3.5 1.2c-2.4 1.2-3.7.9-3.5-1.2zM91.9 470zm155.7 4l1.1-.6 3.1 2.2-2 1.2c-.7-.9-1.5-1.8-2.2-2.8zm-143 21.2q3.5-5.2 6.9-10.8l4.8-4.4a32.8 32.8 0 0 0 4.3.4c0 2.1.1 4.3.3 6.5l-2-1.4c-4.7-3.3-10.1 2.9-7.9 7.3a6.4 6.4 0 0 0-6.2 2.5c0-.1-.1-.1-.2-.1zm157.3-12.8l.7.5-5.4 2.7zm106.7 4.1l.5.3h-.6a.6.6 0 0 0 .1-.3zm-78.2 25.6l-4.4 2.5-1.3-.8c-5-4.4-9.7-9-14.3-13.8h.7a6 6 0 0 0 5.4-5l1-.6c4.2 6.2 8.5 12.2 12.9 17.7zm48.7-10l.7.3.5.7-.9-.3-.8-.3zm-18.1 13l.3-.2 14.3 6.3c-1.7.9-3.4 1.8-5.1 2.9-3.2-3-6.4-5.9-9.5-9zm-104.1 3.6l-1.3-1 .5-.3zm155.7-3.3l-1.1-1.2c.3-.9.7-1.8 1.1-2.8l3.3 4.4zm-235.1-17.7l4.6-.9c.9 1.3 1.8 2.7 2.6 4.1l-.2.2c-2.4-1-4.7-2.2-7-3.4zm91.4 14.2l-1.8 1.1-.4-.4 2.1-.9zm-154.7 3.9l5-4a2.5 2.5 0 0 0-.1 1.2 78.4 78.4 0 0 0-7.3 6.1h-.4zm175.7 14.5a92.3 92.3 0 0 1-8.4-5.4 8.3 8.3 0 0 1 .4-1.5c3.7 3 7.5 5.8 11.5 8.5zm202.8-9.2l.9-.8 4.7 3-1.7 1.9zm-116.2 8.4a40.6 40.6 0 0 1 9.7-4l2.4.9c-.2 1-.5 2-.7 3l-.4.3-6.9 3.2zm44.5 22.4c-1.1.8-2.9 3.1-5.1 6.7l-1.7-1.1c-1.9-1.1-3.7-2.4-5.5-3.6l3.4-3.5c3.5-4 .7-8.8-3.4-9.4.1-.8.3-1.5.4-2.3 3.9 4.5 7.9 8.8 11.9 13.2zm21.5-9.2l1.1 1-.8 1-1.1-1zm38.7-3.6l-3.4-4.5c2.4-2.1 4.8-4.1 7.1-6.3l6.6 6.8a6.1 6.1 0 0 0 3.1 3.2l8.1 8.4zm-112.8-.6l-.8-.5-.7-.9.6-.6 1.9 1.6zm-34.1-4.5c5.1 3.9 10.3 7.6 15.7 11.1l-1.5 2.7-10.1 4.9c-3.4-4.8-6.9-9.6-10.4-14.3 2.1-1.5 4.3-2.9 6.3-4.4zm-71.4 7.3l1.7.6a6.4 6.4 0 0 1-.2.7zm10.8 6.6c0-.1 0-.2.1-.2s.1.2.1.3zm44.2-2.7l.7-.5 9.8 12.9-1.4.7-14.6-7.3a5.6 5.6 0 0 0 5.5-5.8zm-215.3 7h1.5v1.2zm48.3 1.1l2.3-.6a7.7 7.7 0 0 0 .2 1.5zm34.4 3.8a21.4 21.4 0 0 0-1.3-1.9l2.2-1 2.4 4.5zm208.1 1.2h.5c-.1.3-.3.7-.4 1.1l-.6.3c.2-.6.3-1 .5-1.4zm-98.4 1.5l.2.2a.2.2 0 0 1-.2-.2zm133.8 1.7h.1c0 .1 0 .1.1.2s-.2-.1-.2-.2zm-78.3 8.8l-.9-1.4v-.2l7.9-1.5c-1 1.7-1.9 3.4-2.8 5.1zm-20.5 4.4l.6-.3 3 1.3a5.5 5.5 0 0 0 .2 1.8zm37.1 5c3.4-5.6 7.4-11.7 11.2-17.3h.3c-1.1 3.4-2.4 6.8-3.6 10.1s-5.1 4.9-7.8 7.3zm53.2-6.1c3.6 1.9 7 4 10.7 5.8a108.9 108.9 0 0 1-12.4-3.5zm-161.1 13.3l.4-.4 3.5 1.1 1.5 1.9zm133.2 2.8l1.2-2.4 1.6-1.2.3.3c-.9 1.1-1.7 2.3-2.6 3.5zm-106.8 11.2c-1.7-1.6-3.4-3.2-5.2-4.7l.4-.3c2.2 1.9 4.2 3.9 6.3 5.8zM396 598l-6.1 3.4-.8-.6zm-277.6 5.7a6.5 6.5 0 0 0 1.5-1.8c-.1 1-.1 2.1-.1 3.2a18.5 18.5 0 0 0-1.4-1.4zm212-1.6l2.1 1.5h-.1l-2.2-1.2c0-.1 0-.2-.1-.2zm-37.1 2.9l1.5.6-.3.2zm112.9-.3q8.9-5 17.4-10.2c2.5 2.3 5 4.7 7.6 6.9-4.4 1.8-8.7 3.6-13 5.6-4.2-1-8.2-1.7-12-2.3zM99 623.1c.4-.2.5-.5.7-.8l2-.5-2.4 1.6-2.4 1.4zm188.1 9a17.5 17.5 0 0 0-.3-4.6l6.8-3.8 2.6 1.2c-.6 3.2-1.1 6.3-1.5 9.4l-3.7 1.6zm74.5 2.4l17.7 8-2.3.7a103.7 103.7 0 0 0-15.4-8.7zm-247.8 8.8l-.4.3-1.2.2zm190.3 2.6l.3-2.8 8.7-4.1a8 8 0 0 0-1.5 2.6l-3.9 4.3a4.1 4.1 0 0 0-3.6 0zm34-.1l6.5 7.8-.7.2c-1.8-2.6-3.7-5.1-5.7-7.7 0-.1-.1-.2-.1-.3zm177.7-.1l2.6 2.4 2.5 2.4-4-2.6c-.3-.8-.8-1.5-1.1-2.2zm-68.9 7.8l2.7-2.3c1.3.3 2.5.9 3.8 1.3a3.8 3.8 0 0 0-1.5 0zM62.8 649l2-.6a4 4 0 0 0-.9 2.5zm123.4 1.8l1.8 1.7a7 7 0 0 0-1.2 2.8c-8.7 2.5-16.6 5.2-22.2 8.2l-1.1-.3c1.5-1.5 2.9-3 4.5-4.4a5.8 5.8 0 0 0 3.3-1.5l3.6-3.5zm216.3 10.9l4.9-2 2.7 2-6 1.6a12.1 12.1 0 0 0-1.6-1.6zm-335.7-5.6l.5.4c0 .1-.1.2-.1.3a1.6 1.6 0 0 1-.4-.7zm15.7 3.7l-5-5.2 1.5-.6a13.1 13.1 0 0 0 8 6.8l2.5 3zm-2.3 18.6l-2.1-3.5c4.2 5.6 8.5 11 13 16.1a22.9 22.9 0 0 0 .7 2.8c-3.9-5.1-7.8-10.1-11.6-15.4zm325.5 25.1l-4.4 1.1c-1.6-5.5-2.7-10-3.5-13.7 2.6 4.2 5.2 8.4 7.9 12.6zm102.7-.1c0 .1-.1.1-.1.2l-5.6 1.9h-.2l.5-.2zm-116.8 3.5l-11.4 2.7c-1.1-1.6-2.3-3.3-3.3-5 3.9 1.6 8.9-2.6 7.4-6.8s-2.6-6.2-3.9-9.2l7.5-2.6a207.5 207.5 0 0 0 3.7 20.9zm189.9-.5l2.5 1.5-3.7-.2c-.1-.2-.1-.4-.2-.6zm-219-4.5l-3.9-4.5 1.3-.6.9 1.5a24.4 24.4 0 0 0 1 2.4 12.7 12.7 0 0 0 .7 1.2zm-81.9-3.3l-6.6 2.3a53.3 53.3 0 0 0 11.1-8c3.9.1 7.5-3.6 5.6-7.5a21.9 21.9 0 0 0 1.6-3c.4-1 .4-1.9.7-2.9a63.6 63.6 0 0 0 7.5.8l7.8 5c-9.3 4.2-18.6 8.6-27.7 13.3zm-74.8-.9l2.3.5-.8.4a11.9 11.9 0 0 0-1.5-.9zm13.6 3.1c1.6.4 3.2.6 4.8.9l-4.3 2.9a5.6 5.6 0 0 0-.5-3.8zm22.3 5.7a5.7 5.7 0 0 0 1 1.3l3.5 3.3c-4.2 1.7-8.4 3.4-12.5 5.3-.8-.6-1.7-1.1-2.5-1.8zm-90 8.6l.4-.3 2.9 1.7-.9 1.1c-.2.2-.2.5-.3.7zm70.1 6.9l-.3.2zm-55 1.4l.7.4-.9.6a3 3 0 0 1 .2-1zm97.8 4c2.4 2 4.9 4 7.5 5.9l4.5 5.6c-4.9 1.3-9.9 2.7-14.8 4.3-2.6-3-5.3-6.1-8.1-9 3.7-2.1 7.3-4.3 10.9-6.8zm156.7 2.1l2.9 5.2a6.1 6.1 0 0 0-.5 1.2l-1.8-.5-4.2-5.5zm-113.5 12.6l2.7-.3a6.6 6.6 0 0 0 2.1 2.7l-1.1.4h-.8zm-26.6 2.5h-9.9l9.7-.2zm-107.7-3.7l-.5-.6c.9-.7 1.9-1.3 2.8-2.1zm69.7-1.3zm-107.6 3.8c-.3-2-.7-3.7-1.1-5.4 2 1.9 4 3.9 6.2 5.8a32 32 0 0 0 .1 4.4zm252.7 4.8l-1.3-.6a68.2 68.2 0 0 0-3.3-11.5l1.6-.5c6.3 4.3 12.4 8.9 18.5 13.7 0 .2.1.4.1.6-5.2-.7-10.4-1.2-15.6-1.7zm89.9-5.5v2.2l-2.7-1.1zm-281.6 10.8c4-.7 8-1.5 11.9-2.4l-1 .5a20.5 20.5 0 0 1-10.7 2.7 2.4 2.4 0 0 0-.2-.8zm-36.3 7.2l.7.8-.8.5c0-.5.1-.9.1-1.3zM220 774l6.6-3c5.9-2.7 1.6-12-4.4-10.3-2.7.8-5.3 1.7-8 2.4 3.8-2.4 7.6-5 11.3-7.5 1.7 3.6 3.6 7.2 6.8 13.5a96.9 96.9 0 0 0-11.4 5.3c-.3.2-.4.5-.6.7zm139.4-6c6 5.9 12.1 11.6 18.3 16.8l-6.8-3.8a4.9 4.9 0 0 0-1.9-.7 183.5 183.5 0 0 1-14-16.6zm26.2-3.5c9.3 3.6 18.5 7.6 27.6 11.8.3.8.7 1.5 1 2.3-10-4.4-19.9-8.9-29.9-13.5zm14.4 19.8l2.1.9h-.3l-1.7-.9zm-55.3-15.8a10.8 10.8 0 0 0-6.2-2.9l-8.6-8.9 7.3.2c2.3 3.9 4.8 7.8 7.5 11.6zm-98.3-3.8c-.6-6.7 3.3-9.1 15.4-2.5a133.5 133.5 0 0 0-15.4 2.5zm30.4-5.4c-2-1.2-4-2.4-5.9-3.7 4.6.1 9.2.3 13.8.3zm29.8 12.8l3.9 3.7-2.2 2c-3.5-1.9-6.9-3.7-10.3-5.7zm-56.6 5.7l-1.2-3.1a48.4 48.4 0 0 1 5.6-1 6.2 6.2 0 0 0 8.3 3.9c4-1.9 8.2-3.5 12.4-5.3h1.4l-9.5 7.1c-5.6-.7-11.3-1.2-17-1.6zm33.4 3.7l2.2-2a4.9 4.9 0 0 0 1.3-2.3l12.2 7.2c-5.2-1.1-10.4-2-15.7-2.9zm67.4-3.9a25.5 25.5 0 0 0-1.9-3.7c.9 1.1 1.7 2.3 2.7 3.4l7.6 8.8c-2.8-2.8-5.5-5.7-8.4-8.5zm70.8 16c0 .1.1.2.2.3l-3.3-1.1.6-.2zm84.2-8.2a16.3 16.3 0 0 0 1.7-2c2 2.8 4.1 5.5 6.2 8.2-2.6-2.1-5.2-4.3-7.9-6.2zm145.6 3.7l.9-1.3h.1zm-105.2-6c.1-.9.1-1.7.2-2.6s1.4-1.5 2-2.3c2 3.8 9.2 3.8 10.6-1.2l1.2-4.3h.3c5.9 12.3 4.5 19.6-14.3 10.4zm88.3.9l-1.1.6c1.1-.9 2.2-1.7 3.1-2.6zm-44.6-6.4l.8-1.8c0 1-.1 2-.1 3a7.5 7.5 0 0 1-.7-1.2zm16.7-8.5c-.9 2.3-1.9 4.7-2.7 7.1l-2.4 1.1v-8.8a4.3 4.3 0 0 0 3.3.8zm-107.5 2.5l.5.3a21.4 21.4 0 0 1 1.3 1.9 59 59 0 0 1-5.1 4.9 161.1 161.1 0 0 0-17.5-9.1c-5.6-7.5-3.2-10.1 20.8 2zm46.1-17.3l2.2 1.2a28.5 28.5 0 0 1-1.6 4.3zm156.5 1.6a6.8 6.8 0 0 0-1.2-2.6l6.8-7 3.4-3.3zm-91.4-11.8l-.9.3h-.4a5.6 5.6 0 0 0-5.2 1.6l-3.6 1.1-.3-4.4a4.2 4.2 0 0 0-.4-1.5zm12.3-5.5l3.4 1.3-1.9.5c-2.6-.9-5.3-1.7-7.8-2.7zm-34.2 3.3l-2 4.4-.7-.8c.1-1.3.1-2.7.1-4s.9-3.7 1.3-5.3l.4.2 1.4.9c-.1 1.3-.3 2.8-.5 4.6zm97.6-12.8c-.1.1-.3.1-.4.3-2.5 2.4-4.7 5.1-7.1 7.6a9.7 9.7 0 0 0-.1-1.7l.9-.4c2.8-1.2 3.2-4.1 2.3-6.5zM510.3 750l-1.4-1.7c-.9-2.7-2.1-6.7-3.6-12.3a70.6 70.6 0 0 1-3.4-6.7c1.3-1 2.6-2 3.9-3.2 2.6 12.5 4.1 20.4 4.5 23.9zm-35.7-22.6a65.5 65.5 0 0 1-3.9 5.3 10.9 10.9 0 0 1-1.1 1 81.5 81.5 0 0 1-13.8 3.3l-4.2-11c6.9-.9 13.8-2 20.7-3.2.7 1.5 1.5 3.1 2.3 4.6zM288 724.7l-5.5-4.5-4-4.3c0-.1.1-.1.2-.2l1-.3c4.4 3.4 11.5 1 21-7.1l28.2-9.6h.1a243.3 243.3 0 0 0-41 26zm43.5-3.9l-7.2-5.3 5.5-3.6c1.4 2.9 2.9 5.7 4.4 8.4zM468 713l.7 1.5c-4.8 1-9.5 1.8-14.3 2.6a38.8 38.8 0 0 1 5.8-2.8zm200 4.8l-9.7-.2-2.8-2.1a4.6 4.6 0 0 0-1.3-5.8l-4.2-3.4zm-33.5-4.1c-4-.8-8-1.4-12-2.1l-7.1-6.5 3.5-2c5.3 3.5 10.5 7 15.6 10.6zm-72.1-10.8l-1.3.6c-.2-.1-.4-.4-.7-.5l1.5-.7zm-144.3-4a13 13 0 0 0 1 1.5h-.4l-1.2-1.9zm14.6-4.5l3.7-.4v2.5l-5.6 1.3-1.8-2.8a6 6 0 0 0-1.5-3.6l-5.4-6.4-4.2-5.3 14-2.1 2.3 1.6-5.5 5.6c-3.3 3.3-1.1 10 4 9.6zm189.2-9l-2.1 1.5-1.6-.7 3.5-2.1a3.2 3.2 0 0 0 .2 1.3zm-147.5 1.5l-4.7 1.3-2.8-1.8c4.9-1.9 9.8-4 14.8-6.3l5.8 3.4c-2.8.6-6.1 1.5-13.1 3.4zm62.9-9.1c.6 1.4 1.3 2.6 1.9 3.8l-8.3-9zm-66.9-5.6c-10.1 4-17 5.8-3.8-3.2zM341 670.9l-6.6 2.9-4.8-4.2 8.7-2.2zm-133 3.6l-17.4-5.5 7-2.2zm12.9-10.3l7.8.2-4.4 2.2zm130.3-.4l1.2-.4 1.6 2-1.3.5zm231-1.1c-3.6.9-7 1.8-10.2 2.8a5.6 5.6 0 0 0-1-3.7l5-3.8c2 1.6 4 3.2 6.2 4.7zm-95.6-4.7a.6.6 0 0 1 .1.4l-.7-.6zm-155.7-.3l-1.4.3.3-1.7a17.1 17.1 0 0 1 1.1 1.4zm-9.9 2.6l-2 .6-1.9-1.6 1-1.2 3.5-2.5c-.2 1.6-.5 3.1-.6 4.7zm137.1-4.8a4.5 4.5 0 0 0-1.6-2l2.4.8-.6.7zm107.8-3.5l-2.8 2.3a99.1 99.1 0 0 1-9.1-10.9h2.1c3.1 2.8 6.5 5.7 9.8 8.6zm103-14.6l-.4-.3.4-.2zm-53.2 2.1l-.5.2 2-4.8 2-.5a47.7 47.7 0 0 1-3.5 5.1zm-80.9 7.2l-2.3-.6-.8-.8c-2.8-5.1-5.3-8.3-7.6-9.5l-1.2-1.7 2.8-.8a51.2 51.2 0 0 0 9.1 13.4zM457 636l-.5-.2 4.6-2.1 1.4.7zm208.7-10.6a6.7 6.7 0 0 0-2 .1 12 12 0 0 1-2-.3 4.9 4.9 0 0 0 1.2-3.7 47.3 47.3 0 0 1 2.8 3.9zm-231.6.7l-11.4-5.1h8.8l9.4 3.5zm159.7-1.7l-9.8 1.1-2.8-3.9 7.6-.3zm-24.7-.5l-3.4-2.1h1.8zm-78.7-.7l-2 1.5c-.8-1.9-1.7-3.6-2.6-5.4h1.8c.9 1.2 1.9 2.5 2.8 3.9zm-104.3-6.8l12.6 5.8c4.3 3.3 8.5 6.7 12.7 10.1l-14 4.3-19-14.5-1.8-1.3 8.7-4.7zm-70.6 2.4l-5-3.1a17.2 17.2 0 0 1 .7-2.1zm-95.7-6.3a7.1 7.1 0 0 0-.9.7.1.1 0 0 1-.1-.1l.8-.7zm-58.9.4a32.8 32.8 0 0 0-.8 5.2c-3.3.8-6.6 1.8-9.9 2.7a6.3 6.3 0 0 0-1.3-3l11.5-5.6zm279.2-3.8h.3l2.2 1.8c-10.9.5-11.7-.1-2.5-1.8zm27.3.1l-2 .2c-2.3-2.5-4.5-5-6.8-7.4l1.9-.7 3 1.5zm175.2-7.1c-3.5-2.7-7-5.4-10.3-8.3l-6.1-5.8a10.7 10.7 0 0 0-1.4-1.6zM509 592.9c-4.8.5-11-.4-18.3-3.2a109.9 109.9 0 0 0 11.2-3.5c2.3 2.3 4.7 4.5 7.1 6.7zm-130.5-5.6l8.4 2.7c-2.6.9-5.1 2.1-7.6 3.2-2.7-2.2-5.3-4.5-7.9-6.8.4-.7.9-1.3 1.3-1.9a33.3 33.3 0 0 0 5.8 2.8zm102.1-7.2l-1.7 1.6a13.3 13.3 0 0 0-1.2 1.6c-1.1-.6-2.4-1.2-3.5-1.9l-2.7-3.5zm-43.7-6.1l-1.5.5-2.8-.8.3-.5c.2-.5.3-1 .5-1.6zm-74.8-6.4l-.4.2c0-.1.1-.2.1-.3zm60.5-3.1c-3-3.1-6.1-6.1-9.2-9.2l.5-.4a93.2 93.2 0 0 0 9 8.7zm30.8-9.4l2.6.8-.4.7-1.2-.4zm123.3-.2a5.5 5.5 0 0 0 1.7 3.9 8.6 8.6 0 0 1 1.4 1.3 7.2 7.2 0 0 0-2 .9l-.8-.9c-.2-1.9-.5-3.9-.7-5.8zm-43.7-1.2l-2.7 1.7-1.1-.2c-.5-.6-.9-1.2-1.4-1.7l2.7-2zm10.8-10.8c.2 1.3.4 2.6.7 4l-1.3.7-3.2-2.8 3.6-2.4a1.7 1.7 0 0 0 .2.5zm-61.9.9l-5.1 2.3-12.3-12.7 3-3c4.2 3.5 8.2 7.2 12 10.9zm43.6-20.2l-6.6 3c-.8-2.3-1.7-4.7-2.7-7 .7-.9 1.3-1.8 2-2.6 2.3 2.2 4.7 4.5 7.3 6.6zm-40.7-2.5c4.6 5 9.1 10 13.6 15.1l-1.6.8-2.1-2c-5.7-5.1-11.1-10.6-16.6-16a20 20 0 0 0 1.9-2.2 5.4 5.4 0 0 0 4.8 4.3zm-86 .6l-1.6.4a264.9 264.9 0 0 1-19.8-22.8 3 3 0 0 0 .4-.8 211.3 211.3 0 0 0 21 23.2zm71.2-10.5l-3.2-3.3 2.9-2.8c1.1 1 2.1 2.1 3.1 3.2zm77-3.1c-.1-.1-.1-.2-.2-.4h1.2zm105.4-2.3a4.2 4.2 0 0 0-.4-1.5l1-.6a2.3 2.3 0 0 1-.6 2.1zm-252.9-3.2l3.4 4.2-.4.6a6.4 6.4 0 0 0-.5 1.7c-2.1-2-3.9-4.3-5.9-6.5a5.6 5.6 0 0 0 2.1-1.6c.4.5.9 1 1.3 1.6zm34.2-5c1.7-1.4 3.3-2.9 4.9-4.4l1.7 1.8c-1.1 1.2-2.2 2.3-3.2 3.5zm110.9-.3h-1.2l.8-.5zm30.4-5.2zm1.9-.3l-1 .2.8-.4zm-15.9 4.7h-3.6c-1.5-1.9-3.1-3.6-4.6-5.5v-.2c2.8 1.8 5.4 3.9 8.2 5.7zm-74.9-5.2c-1.1 1.5-2.1 3.1-3.1 4.6l-2-1.7 4.3-4.1a8.3 8.3 0 0 0 .8 1.2zm83-3.8a5.8 5.8 0 0 0 1 2.1c-2.8-1.7-5.6-3.2-8.3-5zm-137.7-2.4l.3.4c-2.4 2.3-4.5 4.8-6.8 7.2l-.7-.7 5.1-8.2zm190.1-7.5a5.5 5.5 0 0 0-1.1 5.1v.6a17 17 0 0 1-3.6-.9c2.4-1.8 3.5-5.9 1.3-8.7 1.4 1.4 2.5 2.8 3.4 3.9zm-96.6-1.7l3.5 3.7a5.2 5.2 0 0 0-1.2 1.6 10.9 10.9 0 0 1-.8 1.5 26 26 0 0 0-6-2.2zm-84.8 2.3l-.7-.4c0-.1-.1-.2-.2-.3l1 .6zm162.8-2.4l-3.7-1.9a3.4 3.4 0 0 1 .6-.6zm-182.8 1.8c-.7 1.1-1.4 2.2-2 3.3-1.5-2.7-3.1-5.4-4.7-8.1 2.2 1.6 4.4 3.3 6.7 4.8zm-69.3-4.5l2.5 5.7a2.8 2.8 0 0 0-1.2.4l-8 4.1-1.8-1.2-5.5-6.9c3-1.9 5.9-4 8.8-6.1zm42.4-7.8l-3.5 3.4 2.1-5.3zm-213.1-89.8l.3-.3 1.2 2.3a14.9 14.9 0 0 1-1.5-2zM320 377l2.3-.8q11.1 9.2 22.8 17.7h-.6l-20.7-13zm43 15.9l1 1.2-.6-.4a5.9 5.9 0 0 0-.4-.8zm-105.2 1.3l-2.5-1.3 1.3-.2zm-113.4-10.7a14.5 14.5 0 0 0 3-.6l.9.5zm-12-.6l4 .5-.3.3-9.7.4zm159.9 3.1l4.8 5.7-1.2 1.9-1.4-.7-6.7-4.2c1.5-.9 3-1.7 4.5-2.7zm-132 2.5l5.1 1.6a5.4 5.4 0 0 0-2.2-.1l-3 .5a4.5 4.5 0 0 0 .1-2zm9.2 10.6l-.3-.3c2.1-2.9.5-7.5-3.3-8.6 3.3.9 6.8 1.8 10.3 2.4l3.6.5 2.6 2.4c-.4 1.8-.9 3.6-1.5 5.5l-4.5 1.1a71.7 71.7 0 0 0-6.9-3zm144.6-4.3l11.1 5.8-4.7 1.6zm-276.4 10l.7-.3a7.5 7.5 0 0 0 .9 1.5c0 .1.1.1.1.2zm108.1 2l2.8-.8 1.8 2-3 .3zm43.5 3.2l8.3-2.1c1.5.9 2.8 2 4.3 2.9a11 11 0 0 1-1.2 3.3c-3.8-1.2-7.6-2.5-11.4-4.1zm150.8.1l.7.8-5.6 2.6-1.1-.6zm23.7 4.8l.5-.7c0 .3-.1.7-.1 1zM163 423l-.7-.7a6.1 6.1 0 0 0 .7-1l.3-.8.7.6c1.3 1.7 2.7 3.3 4 4.8l-.5.7q-2.2-1.6-4.5-3.6zm152.6-1.3l1 .5-4.1 2.1a4.6 4.6 0 0 0-.7-.7zm59.1 2.4l.9-10 .6.4v.2c2.2 3.2 4.6 6.2 6.9 9.4l-4.2 4.1zm41.8-1.1a34.9 34.9 0 0 1 3.1 3.3l-.6.6a36.7 36.7 0 0 1-3.8-2.4zm-283.8 13.5a.1.1 0 0 1 .1.1l.6 1.6c-.2-.6-.5-1.1-.7-1.7zM328 436l4-3.2 3.1 3.6c-.6 1-1.2 2-1.9 3zm61.7-3.1l1.4 2c-.1.4-.3.7-.4 1.1l-2.1 2.6a27.5 27.5 0 0 0-2.2-2.6zM131.4 446c2.1-1.3 3.5-3.6 2.6-6l1.5 3.4-2.8 3.9a15.9 15.9 0 0 0-1.3-1.3zm146.9-3.2l-1.1.6-2-1.1 1-.7zm81.7-.6l1.5.6-.3 2.4zm-70.9 7.3l1.4-.9 1.2.6-1.3 1zm11.7 6.6l2.5-1.7 4.1 1.7c.6.9 1.3 1.7 2 2.6l-2.1 1.1zm70.7 3.2c.4-3.7.7-7.3 1.1-10.9l.6-.6 6.3 2.6c-2.4 3.1-4.7 6.2-6.9 9.4zm133.1-4.1l-2.8 2.4 2.1-3.1zm67.3-1.1l-1.3-1.1c3.8-1.2 5.2-1.5 1.3 1.1zm-116.9-.7l-.8.6-4.5-2.8 1.6-2.4c1.2 1.6 2.4 3.1 3.7 4.6zm-54.8-6.2a5.5 5.5 0 0 0-1.5 3.3l-1-.7a.5.5 0 0 0-.2-.4l1.5-3.7zm37.8-3.4a5.6 5.6 0 0 0 4.3-6.1l1.9 2.4-3.5 5.4zm28.3.8l-6.9-8.2c.5-.8 1-1.7 1.6-2.5 2.7 2.9 5.5 5.6 8.3 8.4zm6.4-19.5c2 3.4 4 7 6 10.5h-.2c-2.9-4.6-6.1-9.3-9.6-14h.1zm-24.1-4.6l-1.3.8a5.6 5.6 0 0 0-.4-1.2l.6-.7zm-22-1.7l-3.4-3.6 1-1.1 3.1 4a2.3 2.3 0 0 0-.7.7zm71.9-2.4l-7.5-4-.6-1.2c-.6-.5-1.1-1.2-1.7-1.8l.6-.4zm-98.4-9.4l-3.7 3.7c-4.9-5.5-9.9-10.9-14.9-16.3.9-1 1.8-2.1 2.8-3.1 5.3 5.2 10.6 10.4 15.8 15.7zm34.7-2.2a8.5 8.5 0 0 0-2.3-.4l1-1.2c.4.6.9 1 1.3 1.6zm163.1-4.7l-1.2.7-1.9.2a5 5 0 0 0-3.1-1.4l.2-.3a3.3 3.3 0 0 0 1.1-.9zm6-9.8c-1.8-.4-3.4-1.1-5.2-1.5a2.5 2.5 0 0 0 .4-.7 4.2 4.2 0 0 0 .4-1zM409.1 378h.3l2.8.5 1.7 2-1.2 2.3-6.3 14.9-14.5-14.4 1.1-1.1c3.1 1.7 6.2 3.4 9.2 5.2 6.3 3.7 12-6 5.7-9.7zm-55.7 3.4c2.7 3.1 5.4 6.3 8.1 9.7a4.8 4.8 0 0 0-3.5-1.2c-8-5.8-15.7-12-23.3-18.3l.8-.4zm5.9-13.3l-3-2.1h.6zm59.9-224.5a93.1 93.1 0 0 0 10.6 1.4.6.6 0 0 0 .1.4c-3.4-.3-6.8-.7-10.2-.9a4.1 4.1 0 0 0-.5-.9zm-316 21.4c-.4-.9-.8-1.9-1.1-2.8a26.9 26.9 0 0 0 1.6 2.9zm136.3-.9zm-44.9 6.7h3.4l-2 1.9h-.4c-.4-.6-.6-1.2-1-1.9zm-39.9 44.4l6.2-1.1-5.5 2.3zM45 218.9a6.2 6.2 0 0 0 .1 1.3l-1.5.4zm90.4 4.9l1.9-.5-1.7.6zm259.6-1.1c3.6.4 7.3.6 10.9.9l.5.8 1.8 2.3-3.4 2.7zm-27.8 3.3l1.4-1.4 7 3.3c.2.5.3 1 .5 1.5l-7.4-2.5zm-22.6 3.9l-3.8 4.8-.6-.3v-.2l1.8-5.8zm43.9 4.3l2.3 1.2.9.8-3.1-1.5a4.3 4.3 0 0 1-.1-.5zm-85.6-3l7.4 1.3 1 .5 1.5 3.6zm-207.7 9.7c7.2-.7 14.3-1.2 21.5-1.6a5.7 5.7 0 0 0-2.9 2.8zm448.6 2.5l1.1 1.2-.7 1.1-2.3-.2a4.7 4.7 0 0 0-3.2 1 15.9 15.9 0 0 1-.7-2l.7-1.1c1.1 0 2.1.2 3.2.3a5.8 5.8 0 0 0 1.9-.3zm-27.6 2.3c-1.6 2.1-3 4.3-4.5 6.5l-2.3 1.1 5.3-10.3zm-16.4 3.4l-1.4 2.7-1.5-1.5 3.1-3.8 2.7-3.7zm-444.3 10a20.6 20.6 0 0 1-2.4-3.9l.9-1 1.8.8a5.9 5.9 0 0 0 .3 3.7 3.4 3.4 0 0 0-.1 1zm318-4.9l-.9.8-.6-.4zm-184.3 7.3l5-2.4.3.5-4.7 2.2zm46.2 12.4h.1a.1.1 0 0 0-.1 0zm50.7-1.4l5.1-1.1q8.1 6 16.5 11.4c-5.8-2.8-11.8-5.4-17.9-7.8zm171.9-5.4c.1-1.6.2-3.1.2-4.6 2.1 3.8 4.5 7.7 6.9 11.5-.6.7-1.1 1.5-1.6 2.2l-8.3-4.6a5.7 5.7 0 0 0 2.8-4.5zm-214.1 16.2l2.2-.7h.1l-1.4 1.5zm22.9 1.3l-1.7-.5-1.6-1.4.9-.7 2 1.9.7.7zm-181.5 5h.8l.6.2c0 .3-.1.6-.1.9zm27.1 19.9l1.4-1c9.9 0 19.8-.2 29.8-.6h-.2c-7.8.2-15.6.3-23.4.7a5.3 5.3 0 0 0-3.8 1.8zm346.1.8zm-95.3 4.6l.5-1.2 1.8.8-1 1.2zm-224.5 4.5h1.2l-.3.4h-.1zm-32.4 25.4l.4-.3.3.3-1.5.8zm163.3-4.6l1.9.6 1.8 2.8a27.5 27.5 0 0 1 2.3 4.5c-2.1-2.6-4-5.3-6-7.9zm84.8 3.8l4.1 2.1h-.2zm-209.7 21.5a8 8 0 0 1-.8-1.6l11-4.4c.9 1.6 1.8 3.2 2.8 4.8-4.4.3-8.7.8-13 1.2zm279.3-9.9l-6.7 4.9-1.1-.5 6.7-5.7zm-307-.9a142.1 142.1 0 0 1-19.7 10.5c7.5-4.9 15.3-9.5 23.2-13.8a14 14 0 0 1-3.5 3.3zm415.7-5.8h-.2a16.9 16.9 0 0 1-2-4.4c.8 1.3 1.4 2.9 2.2 4.4zm-49.1 3.9l-7.9-10.1.6-.9 1.6-.9 1-.6c1.4 4.3 3 8.4 4.7 12.5zm-72.8-14a16.1 16.1 0 0 1-4.9 3.9 68.9 68.9 0 0 1-11.3 5.3c-4.1-3.2-8.1-6-12.1-8.6a6.2 6.2 0 0 0 3.3 0 5.8 5.8 0 0 0 9.7.1l2-2.7c2 3.2 7.6 4.2 9.8.1a.8.8 0 0 0 .2-.4zm-32.1-1.3a6 6 0 0 0-3.9.9l-5.6-3.5 2.6-1.4zm-175.9-4.3c-2.1-3-4.3-6-6.5-8.9 1.5 1.8 3.2 3.6 4.8 5.3a29.8 29.8 0 0 0 2.3 2.7 2.4 2.4 0 0 0-.6.9zm184.1-4l-4.2-2.5 5.8-3.8 2.3 1.7-3 5.4a3.4 3.4 0 0 0-.9-.8zm82.4-7.3c-.5.9-.9 1.9-1.4 2.8l-1.8 2.3-1.7 1.1c1.7-2.2 3.3-4.3 4.9-6.2zm-228.1 1.5a3.8 3.8 0 0 0-.9.9c-1.3-2.2-2.5-4.4-3.7-6.6h.1c1.1 1.4 2.3 2.7 3.3 4.2zm105.6-3.4l-.4.7-.9-.6-4.2-2.9zm238.1-8.1a47.7 47.7 0 0 0 5.1 1.3l-6.5 2.8-1.2 1a12.5 12.5 0 0 0-.8-1.2c-.4-2.9-.9-5.9-1.4-9.1h.8a5.3 5.3 0 0 0 4 5.2zm-163.1-1.6l.9-1.6.9 1zm-162.2-13.2a152.1 152.1 0 0 0 11 11.7 4.8 4.8 0 0 0-2.7.2c-3.8-4-7.7-7.9-11.4-11.9zm173.7-7.8h-.1a.1.1 0 0 0 .1 0zm-34.9.2l-1.7 2.7-.8-.2 1.7-3zm-12.2-2.6a19.5 19.5 0 0 0-.6-2.3l1.6-1.8 1 .5zm149.4-4.4l-3.3.6-3.3-3.3 2 .6a6 6 0 0 0 4-.7zm42.9-7.3a6.1 6.1 0 0 0-1.3.3l-7.9 1.2a50 50 0 0 0-3.2-4.8h1.4a87.2 87.2 0 0 0 11 3.3zm-22.8 3.8h-.5c-1.4-2-3.5-5.1-5.8-8.9a101.9 101.9 0 0 1 6.3 8.9zm-66.4-10.2l-3.6-4.5.9-1.1 3.3 4.6zm55.6-8.8c.8.4 1.5 1 2.2 1.4a5.7 5.7 0 0 0-.7 3.8c-1.1-1.8-2.1-3.7-3.1-5.6zm-305.7-2l11.8 11.3-2.9.8c-5-4-10-8.1-15-12l1.9-1c1.4.2 2.8.7 4.2.9zm233-8.7l-1.3-2.3 7.5 5.1 1.5 2-1.5 2c-2.1-2.3-4.1-4.6-6.2-6.8zm113.9 3.8l2.9 2.7-3.1-1.3c-5.2-3.9-10.3-8-15.3-12.2 0-.1.1-.2.2-.3 4.7 3.6 9.9 7.4 15.3 11.1zm-220.1-11l-10.5 1.8-4.2-2.7 5.2-4.9 8.7 4.8zm252.4-1.1l-1.5-1.2a7.6 7.6 0 0 0-.4-1.1zm-127.8-4.7a4.9 4.9 0 0 0 .1 3.6 10.5 10.5 0 0 1-.8 1.1l-5.7-6.1zm95.8-6.8a24.9 24.9 0 0 0 2.7 5.1c-5.1-4.8-7.5-7.3-8-8.2v-.3a30.6 30.6 0 0 1 5.3 3.4zm-154.7-4.3l4.8 2.4.2.5a4.8 4.8 0 0 0-5.9.2l-1.5-3.2zm131.6-12.9a5.8 5.8 0 0 0 1.7 7.2c-2.1 1.9-3.8 3.6-4.6 4.5l-.8.9-5.5-2.1-1.3-.3-2.7-1.4a3.5 3.5 0 0 0 .3-1.4c4.2-2.4 8.3-4.9 12.5-7.5zm-64.9-.4l1.8 3.8-12.2-3.8-2-.7 7.1-1.9zm-385.4-2l-4.7.3 8.9-4.7a22.9 22.9 0 0 1-4.2 4.4zm-49.3-5.5c-4.2 2.5-8.3 5.2-12.3 8a95 95 0 0 1 8.2-7.1 4.2 4.2 0 0 0 1.5-.4l2.5-.7c0 .1.1.1.1.2zm82.3-3.1l-3-5c4.1-.7 7.8-1.2 11-1.5a137.4 137.4 0 0 0 19.2-1.1l1.1.4c-6 1.5-13.6 3.7-21.5 6.4-2.3.2-4.5.4-6.8.8zm39.6-3.1l-6.5 1.2h-.9l4.4-2.2zm133.5-1.1l-.4-.2h-.1zm78.5-1.8l-1.8-2.3.4-.6c1.8.7 3.6 1.6 5.4 2.5zm90.7-.8c-4.3-2-8.6-3.9-13-5.7a4.5 4.5 0 0 0-.6-2.7l.3-.3 11.9 4.7 4.2 4.2zm37.5-5.3c-.7.8-1.3 1.6-2 2.3h-1.2a33.1 33.1 0 0 0 2.6-2.7zm74.5-7.2l-2.8 2.4a6.8 6.8 0 0 0-3.5-1 .6.6 0 0 0 .1-.4l6-1.4c.1.1.1.3.2.4zm-83.4 2.3l-2.5 3.5-9.8-4.9a59.8 59.8 0 0 0 6.9-2zm-71.4-1.9c-.1-.3-.1-.5-.2-.8h.2l.7.4v.2zm-203.8-1l-1.1.6-9.9-1a100.4 100.4 0 0 1-8.6-7.1l2.9-1.6 2.4.4 12.4 3c.6 1.9 1.2 3.8 1.9 5.7zm153.1-13.2c-1.6 2.1-3.3 4.4-4.9 6.7l-6 .2c3.1-2.6 6.4-5.1 9.6-7.7zm269.7-1.7l-3-1.8a9.9 9.9 0 0 0-.2-1.7 2.6 2.6 0 0 0 1.5-.1l.8-.6a3.7 3.7 0 0 1 .9 4.2zm-116.3-5.7l.9 2.1-3.4-.2.5-.7 1.7-1.3zm100.8-3.5h-.2l.4-.2c-.1 0-.1.2-.2.2zm-431.7 1.3l-1.1-.3c2.3-2.1 6.3-3.6 12.2-4.7l-6.8 2.9a43 43 0 0 0-4.3 2.1zm56.3-6.2l3.4.9a25.1 25.1 0 0 1-.4 2.7zm370.6 1l-2.5.3-4-2zm-257.4-6l1.2-2.9 7.6 3.3a7.8 7.8 0 0 0-.4 2.1zm73.1 2.1l-2.1-.4c-.3-1.9-.5-3.7-.7-5.6l4.6-.9a19.5 19.5 0 0 0-1.8 6.9zm-348.2-10l-2.4 2.1-2.6-4a51 51 0 0 0 5 1.9zm230.5-2.6l.6.3h-.9l-.9-.2-.9-.5zm-47.3-52.3h.1l1.2-.2-1.1.5a.2.2 0 0 1-.2-.3zM182.1 131a5.2 5.2 0 0 0-2.1-1.8l3.2-1.2a5.9 5.9 0 0 0 4-5.1l4.4 1.9c-3.2 2-6.4 4-9.5 6.2zm47.3-4.7l6.3 1.3a5.5 5.5 0 0 0-.2 1.8l-7.8-2.6zm197.8 6.9l-6.8-3 4.3-1.6 4-.7.3 5.5zm125.9-3.1l-2.4 1.4c-.3-.5-.7-1-1-1.6zm-112.4 3.3h-1.1c-.2-2.2-.2-4-.2-5.3l1-.7zm34.9-6.9l-.8.2.7-.3zm-20.6.2l-.3-2.8 5.1-.4zm114.3-4.3c0 .2-.1.4-.1.6a3.8 3.8 0 0 0-1.4-1.1zm-466.5 5.5a7.8 7.8 0 0 0-1.1 2c-2.5-4.3-4.5-7.2-5.8-9.1 1.5 1.7 3.8 4.2 6.9 7.1zm455.7-8.2zm-267.4-6l-3.6 1.3-1.8-1.7 1.9-.6zm87.2-1.7l.6.3-1.1-.4zm-154.2.3l-1.8-.2c0-.1.1-.2.1-.3zm-123.6-1.4l-1.2-1h.2zm363.8-2.7l-1.9.5a2.1 2.1 0 0 0 .4-.6zm-307.3 1c-3.3 0-6.7.2-10.1.5l-5.3-3.9 12.8 2.1zm181-5a2.4 2.4 0 0 1-.2.8l-3.3-.5.6-.3zm-74.9 2.3c-4.9.6-9.8 1.1-14.7 1.3l-4.6-1.3c1-1.3 2.1-2.6 3.2-3.8 5.4 1.2 10.8 2.4 16.1 3.8zm283.7-4.4l-4.7-.4v-.7zM235 100.4c-.7 1-1.5 2-2.2 3.1-6.1-1.8-12.3-3.2-18.3-5.1l-3.2-1a232.5 232.5 0 0 1 23.7 3zm64.5-4.3l-2 1a4.9 4.9 0 0 0-.1-1.2h.3zm-21-3l.9.7-1.6 1a5.6 5.6 0 0 0-1.4-2zM461 90.3l5.6-4.3 5.2 4c-2.4.5-4.7 1.1-7 1.8s-2.5-1.1-3.8-1.5zm154.5.7a5.4 5.4 0 0 0-2.8.5l2.4-1.8a6.5 6.5 0 0 1 .4 1.3zm-73.7-6.8h-.3c-.2 0-.3.3-.5.4s-.1-.5-.1-.8zm-42.2 2h-.2a128.8 128.8 0 0 1-12.6-8.7l1.2-.4a145 145 0 0 0 11.6 9.1zm-122.2-5.8l2.1-.7-3.3 3-3.1.3zm-115.7.7zm-84 3l-2.7-1a32.1 32.1 0 0 1 4-10l1.4.8.3.7-1.8 1a5.4 5.4 0 0 0-1.2 8.5zm414.2-9.6l-3.2.4-.3-.5zm-17.4-.5h.6l.7 1.4H569c-.2-.6-.5-1.2-.7-1.7zm-23.4-2l.5.5.3.7-1.3-.3-1.9-1.2zm-94.8-8.7l-.8.4.8-.7zm-51.7-1zm159.2-6.6l.9-1 1.3 2.4h-1.8a8.3 8.3 0 0 0-.4-1.4zm-67.1-14.6a37 37 0 0 1-.5 6.9 33 33 0 0 1 .5-6.9zm-89.7-21a8.5 8.5 0 0 0-1.7-.6 21.2 21.2 0 0 1-2.7-4.9 4.7 4.7 0 0 0-.5-1l.9-.4z" fill="#abd6bb" data-name="Слой 2"></path></g></svg>