<svg xmlns="http://www.w3.org/2000/svg" width="1060.4" height="1080" viewBox="0.021949656307697296 0.016877174377441406 1060.378662109375 1079.9052734375" style=""><g><path d="M507.6 1.7c-5.2 2.1-15.8 18.6-19.5 30.5-1.6 5-3.5 15.5-4.2 23.1-1.4 15.2-3.1 18.5-9.1 18.5s-11.7-7.8-23.4-26.3-26-29.8-38.8-30c-10.9-.1-17.2 4.1-23.2 15.6-4.1 7.7-4.4 10.8-5 43.8-.3 19.4-1.1 36-1.8 36.7s-16.3-10.3-29.6-23.5c-4.8-4.8-9.4-8.9-9.9-8.9s-3.6-1.9-7-4.3a93.9 93.9 0 0 0-13.8-7.6c-7.5-3.2-8.4-3.2-14-.6S300.4 75 296.1 83L290 94.4l1.4 31.2c1.3 32.1-.8 53-5.6 54.9-2.6 1-18.3-7.8-57.8-32.5-15.2-9.5-31.2-7.9-39.9 3.9-7.4 10-3.6 44.8 7.3 68.1a41.9 41.9 0 0 1 3.2 13l.2 6.5-13 .3c-9.8.2-14.7-.7-20.3-3.6-10.6-5.4-32.9-6.7-40.9-2.3-3.4 1.8-6.9 5.1-8 7.6-3.4 7.6-2.5 28.3 1.9 39.6 10 26 12.8 34.6 12.3 38-.8 5.8-12.4 6.6-29.9 2.3-10.3-2.6-21.5-3.8-35.4-4-17.6-.1-21 .3-25.4 3.5-17.7 13.1-8 41.9 26.3 77.8 16.5 17.2 18.7 21.8 13.5 27.2-3.2 3.2-7.2 3.8-29.4 4.7-28.3 1-35.3 3-41.7 12-3.2 4.5-3.6 6.8-2.5 14.6s3 11.1 10.6 19.4c9.2 10 29.3 27.1 42.5 35.9 5.7 3.9 6.7 5.4 5.8 9.3-1.7 7.5-7.8 12-24.7 18.2-8.7 3.2-16.6 5.8-17.4 5.8-3.4 0-17.9 11.7-20.2 16.3-1.4 2.8-2.7 9.7-2.8 15.4-.3 9.8 0 10.6 5.8 15.1 11.2 8.7 28.1 15.7 43.7 18.1 17.2 2.7 20.1 5.3 15.7 14-3 6-17.6 18.1-29.8 24.9-4.4 2.4-7.9 5-7.9 5.7s-1.7 2-3.8 2.6c-5.7 1.8-9.6 10.8-7.1 16.4 3.6 8 17.1 16 29.9 17.9 23.1 3.4 32.3 5.2 41.7 8.2s9.6 3.9 9.6 7.6c0 7.5-4.5 13.9-20 28.9s-30 34.5-30 40.2S58.7 792 67.3 796s30 4.7 43.6 1.5c4.5-1.1 12.6-1.4 18-.8 8 .9 9.7 1.8 9.7 4.8s-9.1 17.8-19.4 29.8c-6.1 7.2-12.1 21.8-12 29.2.2 9.8 10.7 20.4 20.3 20.4 6.9 0 27.6-8.5 33-13.4 2.4-2.3 4.9-4 5.5-3.8s9.1-1.2 21.8-5.5 17.5-3.4 17.5 2.3-5.7 18.7-13.9 30.8c-10.4 15.3-15 30.2-12.2 39.6s12.4 17.6 22.7 20.4c17.2 4.6 35.4-.2 70.4-18.6 3.7-2 7.8-3.7 9-3.7 3.5 0 .9 16.3-4.4 27.8-6.4 14.1-7.9 28.9-4.2 41.7 3.1 10.3 3.1 10.3 17.3 12.8 8.9 1.5 15.8-2.5 45.9-26.7 5.2-4.2 12.2-8.4 15.4-9.3 5.4-1.5 6.1-1.2 7.7 3.1 1 2.6 2.1 13.9 2.7 25.4 1.4 32 6.9 50.6 16.8 56.8s18.5 4 35.6-12.9c7.7-7.7 18.7-19.4 24.1-25.7s10.8-11.4 12-11c2.8.9 8.3 17.3 8.6 25.4s4.9 23.7 10.4 31.7 14.8 13.2 25 11.5c11.9-1.9 20.7-11 30.5-31.5s22.1-34.4 30.1-33.5c4.2.4 6.2 2.9 12.5 15.3 15.2 29.6 23.1 40 33.7 44.4s19.3 2.9 24.8-2.2 8.2-13.1 9.7-30c.8-8.5 2.1-16.9 2.8-18.5l4.8-10c5.4-11.3 10-9.6 18.5 6.9 3.9 7.6 9.7 16.7 12.8 20.2 16.9 19 37.5 17.6 48.2-3.4 4.5-8.9 5.3-12.8 5.6-27.4.2-10.2 1.7-20.9 3.6-26.6 4.7-13.6 8.4-13.2 24.4 3.1 8.8 9 16.8 15 25.9 19.5 20.5 10.2 28.4 8.4 36.8-8.4 5.4-10.6 6.1-27 1.9-46.3-3.7-17.2-3.5-28.3.8-33.6s3.9-4.1 7.8-2 11.4 4.7 20.1 7.6a294.8 294.8 0 0 1 27.9 11.1c15.4 7.3 30.2 9.3 38 5.3 9.8-5.1 11.7-10 11.2-29.3s-3.4-27.6-14-43.1c-3.2-4.6-5.7-10-5.7-12.1s1.2-3.8 7.8-3.8a55.6 55.6 0 0 1 16.2 3c4.9 1.7 15.3 3 25.3 3.2 14.6.2 17.5-.2 21-3.4s4-5 3.2-18.5c-1-16.5-4.9-26.2-16-39.7-14.1-17.2-16.2-23-10-28.2 3.3-2.8 13.5-3.1 35.4-.8 11.6 1.1 19.4-1.5 26.5-9.3 10.6-11.4 9.2-15.3-13.6-38-7.9-7.9-14.4-15.2-14.4-16.2s-2.4-4.1-5.6-7-6.1-8-6.7-11.3l-1.2-6.2 12.8.4c22.7.6 50.8-8 53.8-16.5a27.2 27.2 0 0 1 3.4-5.9c6.3-7.8 4-20.6-5.4-30-11.1-11-28.3-26.2-35-31-8.5-6.1-14.7-15.4-13.9-20.8.5-3.4 3.7-5.5 17.2-10.9 38.5-15.5 52.6-28.4 52.7-48.3.1-12.7-10.1-19.6-45.8-31.1-22.4-7.1-35.5-17.4-35.5-27.8 0-3.3 16.2-22.2 19-22.2.8 0 5-2.7 9.3-6 22.9-17.8 31.9-34.7 24.2-45.7-5.1-7.3-17.9-11.5-50.7-16.6-11.7-1.8-16.3-4.7-17.7-11.3s3.3-15.6 20.3-33.3c18.5-19.5 19.7-21.1 21.7-29.7 2.6-11.6.4-20-6.5-24.3-5.3-3.3-7.6-3.5-27.1-2.1-11.6.8-28.6 1.4-37.5 1.4-14.7-.1-16.6-.5-20.9-4.8l-4.7-4.6 5.6-7.3c3-4 10.5-13.4 16.5-20.8 21-26 25.2-40.4 15.1-52.6s-21.1-11.5-58.3 1.4c-8.1 2.8-16.2 5.8-17.9 6.6-5.1 2.5-7.6 2.1-12.8-2.1s-4.8-4.1-2.5-12.7c1.3-4.8 4.5-14.2 7.1-20.9s4.4-14.1 4-16.6a48.9 48.9 0 0 1-.9-8.3c-.1-2.2-3.5-6.5-7.7-10l-7.6-6.1-13.2 4.3c-7.2 2.3-19.9 8.4-27.9 13.4-18.2 11.3-18.6 11.5-22.1 7.9s-3.8-15.4.7-32.4c7.9-29.8 1.9-51.9-14.3-51.9-9.1 0-31.5 14.9-50.6 33.5s-23.9 22.7-26.8 20.2c-5.7-4.7-10.1-24.2-11-49.6-1-28.3-3.5-36.1-13.3-40.7-6.1-2.9-6.5-2.8-16 1.9-5.3 2.7-13.5 8.9-18.3 13.8s-13.4 14-19.4 20.3A206.5 206.5 0 0 1 597 67.3l-9.1 6.9-7.8-8.9c-4.7-5.4-9.9-14.4-13.1-23-8.1-21.4-13-30.2-18.7-33.6-13.3-7.8-31.2-10.9-40.7-7zm-97.8 27.7a3.6 3.6 0 0 1-2.9 1.8c-1.2 0-1.4-.7-.8-1.8a3.9 3.9 0 0 1 3-1.9c1.1 0 1.4.8.7 1.9zm91.6 6.4c0 .5-.7 1.3-1.8 1.9s-1.8.3-1.8-.8a1.8 1.8 0 0 1 1.8-2c1.1 0 1.8.4 1.8.9zm32 2.3a7.2 7.2 0 0 1-4.6 0c-1.4-.5-.3-1 2.3-1s3.6.5 2.3 1zM644.2 41c-2.4 2.4-4.8.6-3.1-2.2a2.4 2.4 0 0 1 3.2-.9c1.2.7 1.2 1.8-.1 3.1zm-222.5 9.4c-.5.4-3.8 2.5-7.7 4.8s-6.7 3.4-5.9 1.3 3.4-3.7 6.2-4.7c5-1.9 8.8-2.6 7.4-1.4zm108.4 3a19.6 19.6 0 0 1-7.4 1.8c-3.1.1-3.2-.2-.9-1.8a15 15 0 0 1 7.4-1.7c4.3.1 4.3.2.9 1.7zm-95.3 1.9c0 1.1-1.2 1.9-2.9 1.9s-2.4-.8-1.7-1.9a3.6 3.6 0 0 1 2.8-1.9 1.8 1.8 0 0 1 1.8 1.9zM399.6 57c0 2.2-3.5 4.6-4.8 3.3s.9-5 3.2-5a1.6 1.6 0 0 1 1.6 1.7zm247.5 1.3a4.5 4.5 0 0 1-3.5.2c-1.5-.7-1.1-1 1.1-1.2s3 .4 2.4 1zm-138.2 2.6c0 .9-1.3 1.8-2.8 1.8s-2.8-.9-2.8-1.8 1.3-1.9 2.8-1.9 2.8.9 2.8 1.9zm148 5.5c2.2 1.5 1.7 1.9-2.4 1.9s-4.7-.8-4-1.9 2.9-2.2 6.4 0zm-233.3 7.1a40.6 40.6 0 0 0-7.5 4.2c-6.1 4.3-11.3 4.9-7.2.9s13.4-8.4 15.5-7.1.9 1.5-.8 2zM755 75.8c0 .9-1.3 1.7-2.7 1.7a2.8 2.8 0 0 1-2.8-2.7c0-1.6 1.1-2.3 2.8-1.6s2.7 1.8 2.7 2.6zm-181.4 1.7c0 2.4-5.5 2.3-9.2 0-2.1-1.4-1.4-1.8 3.2-1.8s6 .8 6 1.8zM316.3 92.3c-3.7 2.4-7.9 2.4-6.5 0s3-1.8 5.2-1.8 3.6.3 1.3 1.8zm265.2-.5a10.6 10.6 0 0 1-5.6 0c-1.8-.6-.8-1 2.4-1s4.5.4 3.2 1zm40.7 5.5a10.2 10.2 0 0 1-5.5 0c-1.8-.5-.8-.9 2.3-.9s4.5.4 3.2.9zm133.9 3.9c-.6.6-2.1.1-3.3-1.2s-1.6-2 .9-1.1 2.9 1.7 2.4 2.3zm-360.7 10.1c-.5 1.3-1 .3-1-2.3s.5-3.6 1-2.3a7.2 7.2 0 0 1 0 4.6zm157.9-2.3c0 1-1.7 1.8-3.7 1.8s-3.7-.8-3.7-1.8 1.6-1.9 3.7-1.9 3.7.8 3.7 1.9zm-203.6 3.3c0 1.7-22.1 8.5-23.4 7.2s4.7-3.5 13.2-6.4 10.2-2.6 10.2-.8zm-45.9 6.8c.5 2.4.1 4-.8 3.5s-2.1-8.1-.7-8.1 1.1 2.2 1.5 4.6zm443.4 5.2c3.1 3.4 3 3.5-2.3 1.3-10.2-4.2-13.9-6.2-13.9-7.5s12.9 2.5 16.2 6.2zm-330.9-3.2c-5.6 3.1-7.4 3.4-7.4 1s4.1-3 10.2-3.5c1-.1-.2 1-2.8 2.5zm295.2 2.7c3.8 1.7 3.8 1.7 0 1.6a41.4 41.4 0 0 1-8.3-1.6l-4.6-1.5h4.6a24 24 0 0 1 8.3 1.6zm-87 3.7c.7 1.1 0 1.4-1.6.8-3.2-1.3-3.8-2.7-1.1-2.7a3.4 3.4 0 0 1 2.7 1.9zm-271.1 2.6c0 1.2-8.2 6.1-12.4 7.4-7 2.2-4.7-1.9 2.7-4.9s9.7-3.7 9.7-2.5zm493.9 2.7c.5 1.5-.1 2.2-1.6 1.7a5.5 5.5 0 0 1-3.3-3.2c-.4-1.5.3-2.2 1.7-1.7a6.2 6.2 0 0 1 3.2 3.2zm-74.8 2.3c-1.2 1.9-4.5.3-4.5-2.1 0-.8 1.3-1.2 2.8-.6s2.3 1.8 1.7 2.7zm-395.1 1.6a1.8 1.8 0 0 1-1.9 1.9c-1.1 0-1.5-.8-.9-1.9s1.5-1.8 2-1.8.8.7.8 1.8zm121.7 3a4 4 0 0 1-3.6.2c-1.5-.6-1.1-1 1.1-1.1s3 .3 2.5.9zm237.5.7c0 .9-1.4 1.2-2.8.7s-2.8-1.4-2.8-1.8 1.3-.7 2.8-.7 2.8.8 2.8 1.8zm-9.9 3c-.6.6-2.2.7-3.5.2s-1.1-1 1.1-1.1 3 .3 2.4.9zm-278 4.4c-.6 1.1-3.3 1.8-6.1 1.7l-5-.2 4.6-1.5c6.7-2.1 7.9-2.1 6.5 0zm383.2 0c.6 1.1.3 1.9-.9 1.9a1.8 1.8 0 0 1-1.9-1.9c0-1.1.3-1.8.8-1.8s1.3.7 2 1.8zm-257.6 6.5a4.4 4.4 0 0 1-3.6 2.8c-3.2 0-3.4-3-.4-4.3s5.1-1.3 4 1.5zm45.2-1.5a17.8 17.8 0 0 1-6.5 0c-1.8-.5-.3-.9 3.2-.9s5 .4 3.3.9zm-12.5 5.1c0 .5-.8 1.3-1.9 2s-1.8.3-1.8-.9a1.8 1.8 0 0 1 1.8-1.9c1.1 0 1.9.3 1.9.8zm135.8 3.2c2.6 1.1 4.8 2.9 4.8 3.8s-9.9-2.7-12.7-5.2 3.5-.7 7.9 1.4zm-201.6 1.4c1.2 1.9-5.3 3.8-12.9 3.7h-5.6l6.5-2.5c8.1-3 10.7-3.3 12-1.2zm237.7.4c3.2 1.1 5.8 2.8 5.8 3.8s-1.4 1.4-3.3.7a62.9 62.9 0 0 0-8.3-2.3c-2.8-.6-5.1-1.8-5.1-2.6s3.9-2 10.9.4zm25.1 1.8c1.1 1 .3 1.7-2.1 1.7a8.9 8.9 0 0 1-6.4-3.1c-2.2-2.7-1.9-2.9 2.1-1.7s5.4 2.1 6.4 3.1zm-247-.2c0 1-2.3 1.8-5.1 1.8-4.4-.1-4.6-.3-1.4-1.7 5-2.2 6.5-2.2 6.5-.1zm-126.8 1.9c-.7 1-3.2 1.8-5.8 1.8s-4.1-.8-3.5-1.8 3.2-1.9 5.8-1.9 4.1.8 3.5 1.9zM233 168.9c0 .5-2.4 1.6-5.5 2.7s-5.6 1.3-5.6.3 1.5-2 3.3-2.5c4.5-1.1 7.8-1.3 7.8-.5zm76.8 1.2a3.4 3.4 0 0 1-2.8 1.8 1.7 1.7 0 0 1-1.8-1.8c0-1.1 1.2-1.9 2.9-1.9s2.4.8 1.7 1.9zm-63.8 6.7c0 .5-4 2.5-8.8 4.5s-10.7 5.5-13 7.7-4.1 3-4.1 2c0-4.6 19-17.7 23.3-16 1.5.6 2.6 1.3 2.6 1.8zm383 .6c1.5.9 2.3 2.2 1.9 2.7s-2.6-.2-4.5-1.6c-4-3-1.9-3.9 2.6-1.1zm143.6 2.7c3.2 2.6 4.8 4.6 3.8 4.6s-4.3-2-7.5-4.6-4.7-4.5-3.7-4.5 4.3 2 7.4 4.5zm-430.3-.8a1.9 1.9 0 0 1-2 1.9c-1.1 0-1.5-.8-.8-1.9s1.4-1.8 1.9-1.8.9.7.9 1.8zm94.4 1.9a16.6 16.6 0 0 1-7.5 1.8c-3.6 0-4-.4-1.8-1.8a15 15 0 0 1 7.4-1.9c3.7 0 4.1.4 1.9 1.9zm11.5-.6a10.2 10.2 0 0 1-5.5 0c-1.9-.5-.9-.9 2.3-.9s4.5.4 3.2.9zM301.5 183a1.8 1.8 0 0 1-1.9 1.9c-1.1 0-1.5-.8-.9-1.9s1.5-1.8 2-1.8.8.7.8 1.8zm631.3 2.1c0 1.1-.8 1.4-1.9.7a3.6 3.6 0 0 1-1.8-3c0-1.1.7-1.4 1.8-.7a3.9 3.9 0 0 1 1.9 3zm-424.5.9c-.6.6-2.2.7-3.5.2s-1.1-1 1.1-1.1 3 .3 2.4.9zm153.3 2.6c.6 1-.2 1.8-1.7 1.8a5 5 0 0 1-3.9-1.8c-.6-1 .2-1.9 1.7-1.9a5.1 5.1 0 0 1 3.9 1.9zm250.8 0c0 1.1-.3 1.8-.8 1.8s-1.3-.7-2-1.8-.2-1.9.8-1.9a1.9 1.9 0 0 1 2 1.9zm-632.2 1.8c.7 1.1.3 1.9-.8 1.9a1.8 1.8 0 0 1-1.9-1.9c0-1.1.3-1.8.8-1.8s1.3.7 1.9 1.8zm544.5 2.8c3.5 3.5.5 3.6-4.1.1-2.2-1.7-2.7-2.7-1.1-2.8s3.7 1.2 5.2 2.7zM245 195c-2.1 1.5-4.4 2.7-5.4 2.7s-.2-1 1.9-2.6 4.3-2.7 5.3-2.7.2 1-1.8 2.6zm136.1 1c0 1-1.3 1.8-2.7 1.8s-2.8-.8-2.8-1.8 1.3-1.9 2.8-1.9 2.7.9 2.7 1.9zm530.5 7.2a4.1 4.1 0 0 1-2.7 2c-2 0-5.9-8.5-4.5-10s8.6 5.8 7.2 8zm-584.2-4.4c0 1-5.5 3.3-12.9 5.4-3.5.9-3 .3 1.8-2.4 6.3-3.6 11.1-4.9 11.1-3zm42.6-.2c0 .4-1.2 1.2-2.8 1.8s-2.4.4-1.8-.7 4.6-2.5 4.6-1.1zm300.8 6.6c.7 1.1.4 1.9-.7 1.9a3.9 3.9 0 0 1-3-1.9c-.6-1.1-.3-1.8.8-1.8a3.5 3.5 0 0 1 2.9 1.8zm35 2.8c3.7 1.5 6.7 3.6 6.7 4.6s-12.8-3.9-16.5-6.8c-2-1.6 3.9-.3 9.8 2.2zm84.4 1c2.5 1.6 2.4 1.8-.4 1.8s-3.6-.9-4.2-1.9.9-2.3 4.6.1zm57.4 6.5c0 1.7-.8 2.4-1.8 1.8a3.7 3.7 0 0 1-1.9-2.9 1.8 1.8 0 0 1 1.9-1.8c1 0 1.8 1.3 1.8 2.9zm28.7-.3c1.9 1.4 3 3.4 2.6 4.7s-2.3.5-5.3-2.6c-4.7-5-3-6.3 2.7-2.1zm26.5 2.2c-.7.5-1.7-.5-2.3-2.3s-.7-2.9 1.1-1.1 1.8 2.8 1.2 3.4zm-222.6 6.5c1.7 2.8-7.8 2.1-10.1-.7s-1-2.3 3.5-1.7 6 1.5 6.6 2.4zm-349 12.3a47.5 47.5 0 0 1-8.1 4.7c-3.2 1.2-3.3 1-1.3-1.4s11.6-8.2 12.8-7.2-1.1 2.2-3.4 3.9zm35.3-1.1c-4.6 3.8-8.5 4.7-6.5 1.4 1.1-1.8 7.4-5 10-5.1.5 0-1.1 1.6-3.5 3.7zm254.3-1.5a31.1 31.1 0 0 0 8.9 3.8c2.8.7 4.7 2.1 4.2 2.9s-4.3 0-8.3-1.9-8.2-3.5-9.3-3.5a1.8 1.8 0 0 1-1.9-1.9c0-2.5 2.2-2.3 6.4.6zm257.7 1.6c-.6 1.5-1 1.1-1.1-1.1s.4-3 .9-2.4.7 2.2.2 3.5zm-475.2-1.5c0 1.7-15.3 8.6-16.3 7.4s-.5-1.5.6-1.9a60 60 0 0 0 6.5-3.2c4.6-2.6 9.2-3.7 9.2-2.3zm265.7 1.4c2.6 1.2 4.6 2.8 4.6 3.6s-8.7-1.5-11.8-4.2 1.6-1.9 7.2.6zm-326.7 9.8c0 .5-1.7 1.8-3.8 2.8s-3.4 1.4-2.6-.8 6.4-4.3 6.4-2zm-99.1 6.6c.6 1.1.3 1.9-.8 1.9a1.9 1.9 0 0 1-2-1.9c0-1.1.4-1.8.9-1.8s1.2.7 1.9 1.8zm-86.1 8.3c-3.6 4.5-8.8 6.8-10.1 4.7s8.4-11.7 10.7-9.5.9 3-.6 4.8zm345.2-4.6c1.6 2.5-3.1 4.2-8.6 3.2l-4.3-.8 4.6-2c6-2.6 6.9-2.7 8.3-.4zm235.1 7.4c6.6 6.9 5.1 7.2-4.6.8s-8.8-6.3-4-6.3c1.9 0 5.6 2.4 8.6 5.5zm-139.7 1.1c4.4 2.3 4.5 2.4.6 2.5-2.3.1-4.6-.7-5.2-1.7s-3.2-1.9-5.8-1.9-4.1-.7-3.5-1.8 6.5-1 13.9 2.9zm167.2.8c3.3 3.1 4.8 5.5 3.5 5.5a4.2 4.2 0 0 1-3.4-2.8c-.6-1.4-1.7-2.3-2.4-1.9s-2.3-.8-3.4-2.7c-3.3-5.2-1.2-4.5 5.7 1.9zm-515.2 5.3c0 .9-1.4 2.2-3.1 2.8s-2.7.7-.7-1.6 3.8-3.5 3.8-1.2zm151.8 2.2c-1.1 2-4.6 4.2-7.5 4.8s-5.5 1.8-5.5 2.7-1.3 1.6-2.9 1.6-2.7-.3-.4-3.1 12.8-9.8 15.9-9.8 2 .8.4 3.8zm418 2.8c-1.3 1.3-7.1-1.4-7.1-3.3s1.7-.8 3.9.5 3.6 2.4 3.2 2.8zm83.6 0c0 1.6-.7 2.3-1.8 1.7a3.7 3.7 0 0 1-1.9-2.9 1.7 1.7 0 0 1 1.9-1.7c1.1 0 1.8 1.2 1.8 2.9zm-549.7 3.5c-2.7 3.3-16 10.3-19.3 10.3-1.1-.1 3-3.3 9.1-7.2 11.3-7.3 14.6-8.3 10.2-3.1zm349.8 4.7c5.5 4.5 3.5 4.2-5-1-3.3-2-6.1-4.3-6.1-5.1s5 1 11.1 6.1zm-547.9-4.7c0 .5-.8 1.2-1.9 1.9s-1.8.3-1.8-.8a1.9 1.9 0 0 1 1.8-2c1.1 0 1.9.4 1.9.9zm409.1 4c0 .4-1.3.7-2.8.7s-2.8-.8-2.8-1.8 1.3-1.3 2.8-.7 2.8 1.4 2.8 1.8zm-392.3 5c-1.5 1.4-2 1.2-2-.8 0-3.7 2.4-6.3 3.3-3.5a4.7 4.7 0 0 1-1.3 4.3zm50.8 1.2c1.4 4.5-.2 7.4-3.9 7.4s-5.3-5-2.6-8.3 5-3.5 6.5.9zm745.5 1c-.5 2.6-1.2 4.6-1.6 4.6s-.7-2-.7-4.6.7-4.7 1.6-4.7 1.2 2.1.7 4.7zm-13.5 5.9c-.1 4.4-.3 4.7-1.6 1.5s-1.1-4.4-.7-5.2c1.5-2.7 2.3-1.3 2.3 3.7zM327.4 293c0 .4-1.2 1.2-2.8 1.8s-2.4.4-1.8-.7 4.6-2.5 4.6-1.1zm477.6 9.4c3.4 3.5 5.7 7.1 5 7.8s-10-6.1-12.7-11.1 1.1-3.5 7.7 3.3zm-137.7-1.8c4.6 2.4 4.8 2.7 1.4 2.7a9.4 9.4 0 0 1-6.3-2.7c-2.8-3.5-1.8-3.5 4.9 0zm306.1 2.2c-.1 4.4-.4 4.7-2 1.9s-1.3-4-.7-5c1.9-3.2 2.8-2.3 2.7 3.1zM246 306.1c-2.4 2.6-4.7 4.2-5.2 3.7s6.7-8.3 8.5-8.3-.9 2-3.3 4.6zm-53.3 5c-1.3 1.3-2.2 1.5-2.2.4s2.2-4.7 3.5-3.5 0 1.8-1.3 3.1zm223.6-2.4c0 1-1.4 2.1-3.2 2.8l-6.1 2.1c-1.5.6-.7-.8 1.7-2.9 4.6-4 7.6-4.8 7.6-2zm426.5 1.3c.7 1.9.3 2.7-1.1 2.2s-4.3-5.1-1.9-5.1 2.4 1.3 3 2.9zm76.5 3c-.6 1.5-1 1.1-1.2-1.1s.4-3 1-2.4.6 2.2.2 3.5zm-706.6 1.3c0 1-2 2.9-4.2 4-4.1 2.2-4.1 2.2-.6-1.8s4.8-4.8 4.8-2.2zm168.9 6.6c-3.3 4.7-6 6-6 3s7-7.6 8.8-7.6-.9 2-2.8 4.6zm365.3.6c-.6.6-2.5-.4-4.3-2.2s-3-3.2 1.1-1.1c2.4 1.2 3.8 2.7 3.2 3.3zm-338 4.1a1.7 1.7 0 0 1-1.7 1.8 25.2 25.2 0 0 0-5.1 1.2c-3.1 1.1-3 .9.3-1.7s6.5-3.9 6.5-1.3zm103.2.1a5.9 5.9 0 0 1-6.5 0c-2.7-1.5-2.1-1.8 3.3-1.8s5.9.3 3.2 1.8zm-196.8 3.6c-1.7 2.8-4.5 2-3.3-1 .5-1.4 1.8-2.3 2.7-1.7a1.9 1.9 0 0 1 .6 2.7zm238.9 0c.6 1 .3 1.8-.8 1.8a1.9 1.9 0 0 1-2-1.8c0-1.1.4-1.9.9-1.9s1.2.8 1.9 1.9zm-17.6 1.8c0 1.1-1.2 1.9-2.8 1.9s-2.5-.8-1.8-1.9a3.6 3.6 0 0 1 2.9-1.8 1.7 1.7 0 0 1 1.7 1.8zm-320 9.7c-1.8 1.8-2 1.6-1.1-1s1.7-2.9 2.4-2.3 0 2-1.3 3.3zm522.7 1.1c10.9 10 14.8 15.1 11.5 15.1-1.6 0-3.5-1.6-4.1-3.7s-2-3.7-3.1-3.7-12.6-10.1-12.6-12 3.1-.4 8.3 4.3zm200.8 2.2c-.1 1.8-.7 1.5-1.7-.9-2.2-5.3-2.3-8.1 0-4.7a13.4 13.4 0 0 1 1.7 5.6zm-859.9 4.4c-1.6 3.9-3.3 6.6-3.8 6.1s.5-4.4 2.3-8.9 3.5-7.1 3.8-6.1-.7 5-2.3 8.9zm49.5-5.9c-1.3 1.3-2.2 1.5-2.2.4s2.3-4.7 3.5-3.5 0 1.8-1.3 3.1zm680.9 1.7c0 1.1-.7 1.4-1.9.7a3.6 3.6 0 0 1-1.8-3c0-1.1.7-1.4 1.8-.7a3.6 3.6 0 0 1 1.9 3zm-707.3 5.5c-1.2 2.2-2.4 3.6-2.8 3.2s1.5-7.1 3.3-7.1.8 1.7-.5 3.9zm507.4 0c5.9 3.4 6 3.6 1.4 2.7-6.6-1.4-14.4-4.5-14.4-5.6s6.9-.6 13 2.9zm68.5-2a1.7 1.7 0 0 1-1.8 1.8 3.6 3.6 0 0 1-2.9-1.8c-.6-1.1.1-1.9 1.8-1.9s2.9.8 2.9 1.9zm19.4 0c.7 1.1.4 1.8-.8 1.8a3.6 3.6 0 0 1-2.9-1.8c-.7-1.1-.4-1.9.7-1.9a3.9 3.9 0 0 1 3 1.9zm-171.4 3.8c-1 .6-5.8 1.3-10.6 1.4s-7.8-.2-5.9-1.4 6.3-1.7 10.6-1.5 6.9.8 5.9 1.5zm-19.3 5.4c-.6 1.1-3.3 1.9-6.1 1.9s-4.4-.4-2.2-1.8 9.8-2.4 8.3-.1zm-249.3 11c-7.9 10.1-7.7 5.7.4-6.9 2.1-3.3 2.8-3.6 3.3-1.4s-1.4 5.3-3.7 8.3zm491.6-3.8c-1 1.2-6.3-3.8-6.3-5.9s1.7-.1 3.5 1.7 3.1 3.9 2.8 4.2zm-36.4 1.7c12.2 11.8 13 14.2 2 6s-14.6-13-10.9-13c.9 0 5 3.2 8.9 7zm120.7 8.7c0 1-2.8-1.2-6.4-5.1s-6.4-8-6.3-9.3 12.7 11.7 12.7 14.4zm-779.2-12a1.7 1.7 0 0 1-1.8 1.8 1.8 1.8 0 0 1-1.9-1.8 1.8 1.8 0 0 1 1.9-1.9 1.8 1.8 0 0 1 1.8 1.9zM569 373.7a4.3 4.3 0 0 1-3.7 1.8 4.5 4.5 0 0 1-3.7-1.8c-.6-1.1.9-1.8 3.7-1.8s4.3.7 3.7 1.8zm203.8 9.6c1.6 3.2 2.4 6 1.9 6.5s-8.5-11.1-8.5-13.3 3.7 1.3 6.6 6.8zm94.5 4.7c.5 6.5.3 6.8-2.1 3.5s-3.9-16-.6-12.6c1.3 1.2 2.5 5.3 2.7 9.1zm-476-6.9a3.7 3.7 0 0 1-2.9 1.9 1.7 1.7 0 0 1-1.7-1.9c0-1.1 1.2-1.8 2.9-1.8s2.3.7 1.7 1.8zm137.9 0c0 1-2.7 1.8-6 1.7-5.7-.2-5.8-.3-1.4-1.7 6.5-2.1 7.4-2.1 7.4 0zm-297.7 4.8c-2.2 3.8-2.8 2.6-1.1-2 .7-1.7 1.5-2.6 2.1-2.1s0 2.3-1 4.1zm117.8.6c-2.7 4.2-5.2 5-5.2 1.6s5.9-7.1 7-6.1-.5 2.3-1.8 4.5zM172 385.3c0 1.4-1.4 4.1-2.9 6.2-2.9 3.6-2.9 3.3 0-5.8 1-3.3 2.9-3.5 2.9-.4zm752.2 16c-1.3 1.5-2.2-.8-3.2-8.2l-1-7.4 2.4 7.4c1.3 4.1 2.1 7.8 1.8 8.2zm-700.5-.8c-2.1 4.9-4.2 8.4-4.7 7.9s.9-4.9 3.2-9.5c5.3-11 6.4-9.8 1.5 1.6zm68.6-9.4c0 .4-1.4 1.8-3.3 3.2s-2.9 2.2-.6-.8 3.9-4 3.9-2.4zm209.1.9c0 1.7-11.3 4.2-12.7 2.8s7.2-4.1 10.5-4.3c1.3-.1 2.2.5 2.2 1.5zm-120.3 6.5c0 .3-1.7 2.1-4 4.1-3.9 3.5-3.9 3.5-1.7-.8s5.7-5.6 5.7-3.3zm598.5 9.5c.8 6.2.6 7.7-.5 4.6-1.5-4.6-2.6-16.1-1.3-14.7s1.2 4.9 1.8 10.1zm23.6-.3c-1.4 1.3-1.9 0-1.8-4.5s.2-6.1 1.9-1.9 1.2 5.1-.1 6.4zm-866.4-7.2c0 .6-1.6 3.6-3.7 6.9-4.2 6.8-4.6 6.3-1.7-2 1.1-3.2 2.8-5.8 3.7-5.8s1.7.4 1.7.9zm401.7 2.8c0 1-2.2 1.9-4.7 1.9s-4.3-.9-3.7-1.9 2.7-1.8 4.8-1.8 3.6.8 3.6 1.8zm355.4 5.6c0 3.1-.8 5.5-1.9 5.5s-1.8-1.1-1.8-2.6a19.8 19.8 0 0 0-1.1-5.5c-.7-1.9 0-3 1.8-3s3 1.7 3 5.6zM92.3 407c0 1.1-.3 1.9-.8 1.9s-1.3-.8-1.9-1.9-.3-1.8.8-1.8a1.8 1.8 0 0 1 1.9 1.8zm709.8 1.1c1.5 4.1 1.3 6.3-.6 6.3s-2-2-2.5-4.6c-.9-5 1.3-6.2 3.1-1.7zm163.2 5.1a56.5 56.5 0 0 0 1.7 9.5c1 3.9.9 5.1-.5 3.7s-2.5-5.9-3.3-11-.7-8.6.3-7.7 1.7 3.3 1.8 5.5zM343.8 417c-2.4 3.7-5.1 6.7-6 6.7s2.9-7.8 7-12.2 3.3-1.2-1 5.5zm304.6 1.3c4.4 7.4 2.7 6.9-3.4-1.1-2.6-3.5-3.8-6-2.4-5.5s3.9 3.5 5.8 6.6zm104.7.7c0 1.1-1.3.3-2.8-1.7s-2.6-4.5-2.6-5.6 1.3-.3 2.8 1.7 2.7 4.4 2.6 5.6zm205.6-2.7c0 3.1-.8 5.5-1.9 5.5s-1.8-2.4-1.8-5.5.8-5.6 1.8-5.6 1.9 2.4 1.9 5.6zm-680.5 2.2a53.3 53.3 0 0 1-4.1 7c-1.6 1.7 2-8.3 3.9-10.7 3.3-4.1 3.3-2.4.2 3.7zm344.5-4.1c.7 1.1.4 1.9-.8 1.9a3.7 3.7 0 0 1-2.9-1.9c-.7-1.1-.4-1.8.7-1.8a3.8 3.8 0 0 1 3 1.8zm235.1 0c.6 1.1.3 1.9-.8 1.9a1.9 1.9 0 0 1-2-1.9c0-1.1.3-1.8.9-1.8s1.2.7 1.9 1.8zm-729 4.1c-.6 1.5-1 1.1-1.1-1.1s.3-3 .9-2.4.7 2.2.2 3.5zm862.6 2c-.5 1.2-.9.2-.9-2.4s.4-3.6.9-2.3a6.4 6.4 0 0 1 0 4.7zm-589.5 4.7c-4.8 7.5-9.7 12.5-9.7 9.9s9.4-15.1 11.5-15.1-.1 2.4-1.8 5.2zm-21.3 2.6c-.6 1.3-1 .3-1-2.3s.4-3.6 1-2.3a7.2 7.2 0 0 1 0 4.6zm154.6-4.7a7.2 7.2 0 0 1-4.6 0c-1.3-.5-.3-.9 2.3-.9s3.6.4 2.3.9zM226.5 439c-1.7 8-6.3 16.6-6.4 12.1s5.4-18.2 6.8-18.2.3 2.8-.4 6.1zm-79.5 5.2c-1.5 4.5-2.8 10.5-2.8 13.2s-.8 5.1-1.7 5.1-.1-16.6 3-22.7c3.9-7.7 4.9-5 1.5 4.4zm282.2-4.8c0 1.5-.8 2.8-1.7 2.8s-1.3-1.3-.7-2.8 1.3-2.8 1.7-2.8.7 1.3.7 2.8zm-164.7.8a3.5 3.5 0 0 1-1.9 2.9c-1 .6-1.8-.1-1.8-1.7s.8-2.9 1.8-2.9a1.7 1.7 0 0 1 1.9 1.7zm202.6 5.3c-3.3 6.7-6.4 9.3-6.4 5.4 0-2.4 7.6-12.5 8.7-11.6s-.7 3.1-2.3 6.2zm37.6-.2c-2.7 2.8-5.5 4.4-6.3 3.6s1-3.3 4-5.7c7-5.6 8.6-4.2 2.3 2.1zm17.1-2.2c0 1.7-10 10.1-12 10.1s.5-2.3 3.7-5.4c5.2-5.1 8.3-6.9 8.3-4.7zm-481.3 1.8c0 .5-.7 1.3-1.8 1.9s-1.9.3-1.9-.8a1.9 1.9 0 0 1 1.9-2c1.1 0 1.8.4 1.8.9zm251.6 13c-3.7 7.4-7.2 10.8-7.2 6.9 0-1.4 5-11.9 8.2-16.9s2.9 2.1-1 10zm-262.9-4.4c-2.4 4.6-4.4 3.3-2.7-1.9.7-2.2 2-3.4 3-2.8s1 2.5-.3 4.7zm177.2 2.2c-3 8.7-4.8 10.5-4.8 4.8 0-4.2 5-13.9 6.4-12.4s-.3 3.9-1.6 7.6zm204 0l-6.5 9.9c-2.1 3.3-2.2 3.2-2.3-.6s10.6-18.2 12.3-16.5-1.2 3.7-3.5 7.2zm155.8-6.3c0 1.6-4.4 3.9-7.5 3.9-1 0-1.7-1.3-1.7-2.8s1.7-2.8 4.6-2.8 4.6.8 4.6 1.7zm-146 6.3c-1.5 1.5-2.1 1.3-2.1-.7 0-3.7 2.5-6.3 3.4-3.6a4.6 4.6 0 0 1-1.3 4.3zm22-5.3c0 .5-.7 1.3-1.8 2s-1.9.3-1.9-.9a1.8 1.8 0 0 1 1.9-1.9c1.1 0 1.8.3 1.8.8zm253 13.4c4.7 11.2 2.6 12.2-3.1 1.5a116.6 116.6 0 0 1-5.5-11.4c0-2.7 6.4 4.8 8.6 9.9zm89.3-1.8c1.8 3.9 1.7 5.1-.2 6.3s-3.1-.4-4.6-4.5c-2.8-7.9-2.8-8.7.2-7.6 1.2.6 3.4 3.2 4.6 5.8zm-395.3-.2c-.6 1.5-1.5 2.4-2 1.9s-.3-1.9.4-3c1.8-2.9 2.9-2.2 1.6 1.1zm489.7 6.9c-.2 6.6-.4 7.1-1.7 3.1-2.1-6.7-2.1-13.4 0-12.1s1.8 4.7 1.7 9zm23-3.9c.8 3.1.5 5.1-.6 5.1s-1.9-2.5-1.9-5.9c0-6.7.8-6.4 2.5.8zm-878.6 0c-.6 1.5-1 1.1-1.1-1.1s.3-3 .9-2.5a4 4 0 0 1 .2 3.6zm550.3-3.4c0 2.1-3.4 2.9-4.6 1.1s.1-1.8 1.8-1.8 2.8.3 2.8.7zm-507.2 9.5c0 4.6-.8 8.3-1.8 8.3s-2.5-13.6-.6-15.5 2.4-1.3 2.4 7.2zm401.7-5.6c0 1.5-.8 2.8-1.7 2.8s-1.3-1.3-.8-2.8 1.4-2.8 1.8-2.8.7 1.3.7 2.8zm-34.5 1.9c-1.1 2.9-4.4 3.9-4.4 1.3a4.3 4.3 0 0 1 3.9-4.1c.8 0 1 1.3.5 2.8zM141.8 475c-.6 1.9-1 .9-1-2.3s.4-4.5 1-3.2a10.2 10.2 0 0 1 0 5.5zm-108.7-.2c0 1.4-.9 2.2-1.9 1.6a1.9 1.9 0 0 1-.8-2.8c1.6-2.6 2.7-2.2 2.7 1.2zm119.6 4c-2.1 2-3.5-1.3-2-4.6s1.4-3.2 2.3.1.3 3.9-.3 4.5zm149.6 1.9c-1.5 10.4-4.2 16.5-4.6 10.6-.7-9.5 1.4-19.5 4-19.5s1.4 3.2.6 8.9zm117.7 7.5c-1.5 6.3-3.3 9.5-5.7 10.1s-3.6-.1-3.6-1.8.9-2.2 1.9-1.6 1.8-.1 1.8-1.8c0-4.3 5.4-16.5 6.7-15.2s.1 5.3-1.1 10.3zm46.3 2.9c-2.2 6.6-4.8 11.8-5.6 11.3s.8-9.5 5.6-19.9 4.2-4 0 8.6zm59.6-9.7c-1.3 1.3-2.2 1.5-2.2.4s2.2-4.7 3.5-3.5 0 1.8-1.3 3.1zm-287.3 15.9c-1.7 2.6-1.9 2.1-1-3.1.5-3.5 1.1-8 1.3-10.2s.6-.8 1 3.1-.2 8.3-1.3 10.2zm563.8-5.1c.2 3.1-.2 5.5-1.1 5.5s-1.4-2.9-1.4-6.6c0-7.8 2-6.9 2.5 1.1zm-726.8-.6c-.1 4.4-.4 4.7-2 1.9s-1.3-4-.7-5c1.9-3.2 2.7-2.3 2.7 3.1zm717.8 1.9c-.5 1.9-1 .9-1-2.2s.5-4.6 1-3.3a10.2 10.2 0 0 1 0 5.5zM150 503.6l-1.7 6.1-.2-6.7c-.1-3.7.4-8.3 1.2-10.2s1.4-3.1 1.9.6c.3 2.1-.3 6.8-1.2 10.2zm371.8-11.4c0 3.1-7.6 17-8.7 15.9s5-17.8 7-17.8a1.7 1.7 0 0 1 1.7 1.9zM398 499.8c-1.3 2.9-1.9 3.3-2 1.2-.1-4 2.4-10 3.2-7.5s-.2 3.9-1.2 6.3zm354.6 2.9c3.2 7.8 9.9 30.7 9.9 34.3 0 1.2-1.2.6-2.7-1.4a18.7 18.7 0 0 1-2.8-9.5c0-3.1-1.5-9.1-3.2-13-3.8-9.1-6.2-17.2-5-17.2s2.2 3.1 3.8 6.8zm79.2 9.3c-1.2 9.8-4 15.9-6.6 14.3s-2-5.5 1.1-8.1 2.8-5.9 2.9-12.8.5-9.6 1.8-6.2 1.3 8.1.8 12.8zm-300.1-11.3c-.5 1.5-1.4 2.3-1.9 1.8s-.4-1.8.3-2.9c1.8-3 2.9-2.2 1.6 1.1zm261.7 3c-.5 1.3-1 .3-1-2.3s.5-3.6 1-2.3a7.2 7.2 0 0 1 0 4.6zm69 .7c0 1.5-.9 2.2-1.8 1.6s-1.9-2.4-1.9-3.8.9-2.3 1.9-1.7a5.3 5.3 0 0 1 1.8 3.9zm109.4 17.9c-2.3 2.4-2.5-1.8-.6-14.6l1.4-9.1.5 11c.3 5.9-.3 11.7-1.3 12.7zm56.3-12c-1.3 1.3-4.3-7.8-3.1-9.6s1.7.5 2.5 3.5 1 5.7.6 6.1zm-937.6-2.9c0 3.4-.4 3.6-1.8 1.4s-2.3-5.5-.1-5.5 1.9 1.9 1.9 4.1zm494.2-.4c0 2-.8 3.7-1.8 3.7S581 509 581 507s.9-3.7 1.9-3.7 1.8 1.6 1.8 3.7zm454.9 7.8c-.6 1.5-1 1.1-1.1-1.2s.3-3 .9-2.4.7 2.2.2 3.6zm-871.9 4.7c-.6 1.8-1 .8-1-2.4s.4-4.5 1-3.2a10.6 10.6 0 0 1 0 5.6zm567-1.9c0 3.9-.4 4.5-1.8 2.3s-2.5-7.4-.1-7.4 1.9 2.4 1.9 5.1zm33.3-2.8a24.7 24.7 0 0 1-1.8 6.1c-1.4 3.3-1.6 3.3-2.8.4a8.9 8.9 0 0 1-.2-6c1.3-3.3 4.9-3.8 4.8-.5zm82.6 4.7c-2.1 2-3.5-1.2-2-4.6s1.4-3.2 2.2.1.4 3.9-.2 4.5zm-471.9 2.7c-.6 1.5-1 1.1-1.1-1.2s.3-3 .9-2.4.7 2.3.2 3.6zm-278.9 6.4c0 4.3-.7 6.3-1.7 5.2s-.8-12 .9-12 .8 3.1.8 6.8zm573.2-2.7c-.5 1.5-1 1.1-1.1-1.1s.4-3 1-2.5.7 2.3.1 3.6zm192.5 14c.8 8.7.5 13.3-.7 13.3-3.1 0-4.2-4.9-4.2-18.1 0-16.2 3.3-12.9 4.9 4.8zm-629.3-6.6c-.6 1.5-1 1.1-1.1-1.2s.3-2.9.9-2.4.7 2.3.2 3.6zm593.6 14c-1.1 11.5-2 13.9-4.4 12.5s.7-23.2 3.7-23.2c1.2 0 1.4 4.1.7 10.7zm-602.4 1v7.7l-2.8-5.1c-1.5-2.8-2.2-6.9-1.6-9 1.9-5.8 4.6-2 4.5 6.4zm483.6-2.1c-1.8 1.8-2.2 1.3-2.2-2.2s.4-4 2.2-2.2 1.7 2.7 0 4.4zm-271.2 2.9c-.5 1.8-.9.8-.9-2.3s.4-4.6.9-3.3a10.6 10.6 0 0 1 0 5.6zm553.1.3c-.7 3.1-1.9 5.7-2.7 5.7s-.6-3 .4-6.5c2.4-7.7 4.1-7.2 2.3.8zm-620.9-.8c.3-2 .9 0 1.5 4.6s.9 8.8.5 9.3-4-4.6-3.1-7 .1-2.3-1-2.3-1.7-1.9-1.7-4.1c.1-3.9.3-3.9 1.8-.5s1.7 3.7 2 0zm-254.3 6c-.5 1.9-.9.9-.9-2.3s.4-4.5.9-3.2a10.2 10.2 0 0 1 0 5.5zm46.3-.9c-.5 1.3-1 .3-1-2.3s.5-3.6 1-2.3a7.2 7.2 0 0 1 0 4.6zm419.6.5c.5 1.4.1 2.8-.8 2.8s-1.8-1.4-1.8-2.8.4-2.8.8-2.8 1.2 1.3 1.8 2.8zm381.9 1.3c-.5 1.5-1 1.1-1.1-1.1s.4-3 .9-2.4.7 2.2.2 3.5zm-747.9 6.6c-.5 1.7-.9.2-.9-3.3s.4-5 .9-3.2a17.8 17.8 0 0 1 0 6.5zm561.1 2.9c-1.1 3.7-2.7 6.8-3.6 6.8s-.9-1.6.2-3.6 2-6.4 2.1-9.8.5-5.3 1.7-3.1.9 5.4-.4 9.7zm74.5-9.9c0 1.1-.4 1.9-.9 1.9s-1.3-.8-1.9-1.9-.3-1.9.8-1.9a2 2 0 0 1 2 1.9zm-821 20c-2.1 2.2-4-2.2-3.5-8.3.8-11.2 1.1-11.3 2.7-1.5.8 5 1.2 9.4.8 9.8zM711.9 561c-.6 1.5-1 1.1-1.1-1.1s.4-3 .9-2.4.7 2.2.2 3.5zm150.5 1.6c0 2.1-.8 3.6-1.8 3.6s-1.9-2.1-1.9-4.7.9-4.2 1.9-3.6 1.8 2.7 1.8 4.7zm-735 1.2c-.1 4.4-.3 4.7-1.9 1.9s-1.4-4-.8-5c1.9-3.2 2.8-2.3 2.7 3.1zm39.3 1.4c.5 3.5.1 6-.7 5.5s-2.1-11.9-.7-11.9 1.1 2.9 1.4 6.4zm121.3-2.3c-.6 1.5-1 1.1-1.1-1.1s.3-3 .9-2.4.7 2.2.2 3.5zm154.2-2.2c0 1.1-.3 1.8-.8 1.8s-1.3-.7-2-1.8-.2-1.9.8-1.9a1.9 1.9 0 0 1 2 1.9zm71.9 25.6c2.1 3.7 2.2 4.2.1 3.5s-7-11.9-6.8-20.8c.2-7.1.2-7 2.2 2.8 1.1 5.5 3.2 12.1 4.5 14.5zm151.1-16.7c-1.9 1.8-2.9 2.3-2.3 1.2s1.5-3.5 2.3-5.5 1.7-3 2.3-1.2-.5 3.8-2.3 5.5zM425 574c-.6 1.5-1 1.1-1.1-1.1s.3-3 .9-2.4.7 2.2.2 3.5zm-317.7 9.4c-2.4 2.5-2.7-.9-.6-7.9l1.4-4.7.6 5.3c.4 3-.2 6.2-1.4 7.3zm122-1.4c0 6.3-.7 9.9-1.8 9.2-3.2-2-2.1-19.4 1.3-19.4.3 0 .5 4.5.5 10.2zm205-1.4c-.6 1.8-1 .8-1-2.4s.4-4.5 1-3.2a10.6 10.6 0 0 1 0 5.6zM40 583.2c-.6 1.6-1 1.1-1.2-1.1s.4-3 1-2.4.6 2.2.2 3.5zm781.1 0c-.5 1.6-1 1.1-1.1-1.1s.4-3 1-2.4.6 2.2.1 3.5zM58.9 594c.1 6.8-2.9 2.2-4.3-6.5-1.1-7.2-1.1-7.3 1.5-2.8a22.1 22.1 0 0 1 2.8 9.3zm258.2-6.3c1.4 3.7 1.4 12.9 0 11.5s-4.1-14.5-2.6-14.5 2 1.3 2.6 3zm232.5 0c0 2.4-.5 2.5-2.8.7s-2.8-2.5-2.8-2.9 1.3-.8 2.8-.8a2.8 2.8 0 0 1 2.8 3zm-310 18.9c-2.1 2.1-3.6-1.9-3.3-8.9.4-11.7 3.1-13.1 3.8-2.1.3 5.4 0 10.4-.5 11zm200.8-13c0 1.3-.9 1.9-1.9 1.3s-1.8-3-1.8-5.2.3-3.5 1.8-1.3a11.8 11.8 0 0 1 1.9 5.2zm-222.2-1.5a1.8 1.8 0 0 1-1.8 1.9 1.8 1.8 0 0 1-1.9-1.9 1.8 1.8 0 0 1 1.9-1.8 1.7 1.7 0 0 1 1.8 1.8zm-61.6 6c-.6 1.5-1 1.1-1.1-1.2s.3-2.9.9-2.4.7 2.3.2 3.6zm813.5 2.9c-.7 3.3-2.1 5.9-3.1 5.6s-1.3-9.4 1.5-11.1 3-1.3 1.6 5.5zm-45.7 7.6c-.7 4.3-2.2 8.1-3.3 8.9s-.6-12.8 1.7-16.5 2.9.4 1.6 7.6zm-125.8 5.1c-.6 3.7-1.6 6.1-2.2 5.6s-.4-4.6.4-9 1.8-6.9 2.2-5.6.3 5.3-.4 9zm75.6-7.7c-.6 1.5-1.4 2.8-1.8 2.8s-.7-1.3-.7-2.8.8-2.8 1.7-2.8 1.3 1.3.8 2.8zm-575.8 2.8c.5 2 .2 3.7-.6 3.7s-1.9-1.7-2.4-3.7-.3-3.7.6-3.7 1.9 1.7 2.4 3.7zm551.7.9c-.5 1.5-1.3 2.8-1.7 2.8s-.8-1.3-.8-2.8.8-2.8 1.8-2.8 1.3 1.3.7 2.8zM100 620.4c-1.6 1.6-2.1.5-2-4.3s.2-6.1 2.1-2.1 1.5 4.8-.1 6.4zm201.5-4.2a1.7 1.7 0 0 1-1.8 1.8 1.8 1.8 0 0 1-1.9-1.8 1.8 1.8 0 0 1 1.9-1.9 1.8 1.8 0 0 1 1.8 1.9zm533.2 1.8a3.6 3.6 0 0 1-1.9 2.8c-1.1.7-1.8-.1-1.8-1.7s.7-2.9 1.8-2.9a1.8 1.8 0 0 1 1.9 1.8zm110 11.1c-1.5 5.5-2.7 11.8-2.7 13.8a14.6 14.6 0 0 1-1.5 6.3c-1.9 2.8-1.5-15 .4-22.8 2.5-9.8 3-10.9 4.8-9.1s.6 5.8-1 11.8zm-717.5 6.5c.2 6.7-2.9-1.1-4.1-10.1l-1-8.4 2.5 7.4a53.9 53.9 0 0 1 2.6 11.1zm767.8-8.8c-.4 1.8-.8.3-.8-3.2s.4-5 .8-3.2a13.8 13.8 0 0 1 0 6.4zm-120.1-.1c-.7 3.9-11 23-11.9 22.1s6.2-18.7 9.4-23 3.1-2.7 2.5.9zm-687.4 8.9c1 4.1.8 4.8-.7 2.8a13.7 13.7 0 0 1-1.9-6.3c0-4.8 1.1-3.3 2.6 3.5zm244.7 11c.6 1.8.7 3.7.2 4.2S420 634.2 420 631.7s10.8 10.8 12.2 14.9zm578.1-7.3c-.6 7.8-3.5 8.9-3.5 1.3 0-4.8 1.2-7.8 3.2-7.8.4 0 .5 3 .3 6.5zm15.4-.5c-1.8 1.7-2.2 1.3-2.2-2.2s.4-4 2.2-2.3 1.7 2.8 0 4.5zM164 640.6c-.6 1.6-1 1.1-1.1-1.1s.3-3 .9-2.4.7 2.2.2 3.5zm79.1 5.8c.7 4 .5 6.8-.6 6.8s-6.4-12.2-4.8-14.8 4 0 5.4 8zm379.3-5.4c-1.1 3.2-4.3 4.2-4.3 1.5s4.1-6.1 5-5.2 0 2-.7 3.7zm301.1-3.1a12.4 12.4 0 0 1-1.8 4.2c-1.5 2.2-1.9 2-1.9-1.4s.9-4.1 1.9-4.1 1.8.5 1.8 1.3zm-572.6 6.4c-.5 1.5-.9 1.1-1.1-1.1s.4-3 1-2.4.6 2.2.1 3.5zm-160.8 2.5c-.6.6-1.7-.4-2.3-2.3s-.7-2.8 1.1-1 1.8 2.8 1.2 3.3zm109.2 2.9c-.4 1.3-1.3.5-2-1.9s-.6-3.9.8-2.4a4.9 4.9 0 0 1 1.2 4.3zm618.8 3.7c-1.2 3-1.9 3.4-1.9 1.3-.1-4.1 2.4-10 3.2-7.6s-.3 3.9-1.3 6.3zm-848 6.5c0 5-.7 7.9-1.8 7.2s-1.9-4.8-1.9-9.4.8-7.9 1.9-7.3 1.8 4.9 1.8 9.5zm431.9-4.7c4.1 1.1 6.5 2.8 5.8 3.9-1.7 2.7-15.4.6-19-2.9s-2.4-3 1.6-3a54.2 54.2 0 0 1 11.6 2zm361.9 5.4c-4.4 7.8-8.8 10.7-5 3.3 2.3-4.4 7.3-10.7 8.5-10.7s-1.1 3.4-3.5 7.4zm-772.8 9.1c-1.3 1.5-2.1-.8-3.1-8.1l-1-7.5 2.4 7.5c1.3 4 2.1 7.7 1.7 8.1zm119.4-9.1c2.2 6.1-.3 7.6-3.2 2s-2.5-7.5-.4-7.5 2.5 2.4 3.6 5.5zm234.3-2.6c.7 1.7.4 2.3-.7 1.7a3.5 3.5 0 0 1-1.9-2.8c0-2.6 1.4-2 2.6 1.1zm554.6-1.1a1.8 1.8 0 0 1-1.9 1.9c-1.2 0-1.5-.8-.9-1.9s1.5-1.8 2-1.8.8.7.8 1.8zm28.3 3.7c-.5 2-1.7 3.7-2.6 3.7s-2.2-4.4-.5-6.1 4.1-1.3 3.1 2.4zm-948.9 2.2c-.6 1.6-1 1.1-1.1-1.1s.3-3 .9-2.4.7 2.3.2 3.5zm97.7 5.2c1.2 6.5 1.2 6.5-1.6 1.9a21.2 21.2 0 0 1-2.9-8.3c-.1-5.6 3.1-1 4.5 6.4zm110.8 2.4c-1.3 2.1-6-5.5-6.1-9.8 0-1.5 1.6-.3 3.6 2.7s3.1 6.2 2.5 7.1zm358.9-7.6c-1.3 1.3-2.2 1.5-2.2.4s2.3-4.7 3.5-3.5 0 1.9-1.3 3.1zm69.8 5.4c-5.7 5-6.9 2.7-1.6-3 2.5-2.6 4.9-3.8 5.2-2.7s-1.2 3.6-3.6 5.7zm230.4-4.8c-.6 1.5-1.4 2.8-1.8 2.8s-.7-1.3-.7-2.8.8-2.8 1.7-2.8 1.3 1.3.8 2.8zm-793 8.4c0 2-.8 3.6-1.8 3.6s-1.9-2.1-1.9-4.7.9-4.2 1.9-3.6 1.8 2.7 1.8 4.7zm801-1.5c-.5 1.5-1 1.1-1.1-1.2s.4-3 .9-2.4.7 2.2.2 3.6zm-673.7 13.8c3.3 9.7-.6 6.9-4.9-3.5-2.1-5.2-3.9-10.3-3.9-11.5 0-2.9 6.3 7.8 8.8 15zM138.6 675c0 2.8-.2 2.9-1.8.4s-2.4-6.1 0-4.6 1.8 2.6 1.8 4.2zm775.8 7.3c-1.6 2.9-1.8 3-1.9.3a19.1 19.1 0 0 1 1.2-6.5c1.2-3.2 1.3-3.2 1.9-.3a10.3 10.3 0 0 1-1.2 6.5zm-788.5 5c-1.5 2.8-4.2-6.7-2.8-9.8s1.6-1.5 2.5 2.6.8 6.3.3 7.2zm342.2-7.8c0 1.1-1.1 1-2.8-.4a12 12 0 0 1-2.7-2.8c0-.4 1.3-.2 2.7.3s2.8 1.9 2.8 2.9zm-249.2.7c.6 1.7.7 3.6.2 4.1s-6.4-3.3-6.4-5.5 5-1.7 6.2 1.4zm275.1-1.1c0 1.1-2.8 1.9-6.3 1.9s-6.9-.8-7.5-1.9 1.9-1.8 6.4-1.8 7.4.8 7.4 1.8zm248.1-1c0 .5-.8 1.3-1.8 2s-1.9.2-1.9-.9a1.8 1.8 0 0 1 1.9-1.9c1 0 1.8.3 1.8.8zm-637.6 6.8c2 3.2-.1 3.7-4 .8s-3.2-2.7-.4-2.8 3.8.9 4.4 2zm67.8 7.9c-1 1.9-3.7-3.7-3.9-8.1-.1-1.6.9-.7 2.3 1.8s2.1 5.4 1.6 6.3zm329.1-8.1c0 1.1-.3 1.8-.8 1.8s-1.3-.7-1.9-1.8-.3-1.9.8-1.9a1.8 1.8 0 0 1 1.9 1.9zm42.1 2.9c-.6.6-2.3.7-3.6.2s-1.1-1 1.2-1.1 2.9.4 2.4.9zm136.8 7.5c-6.5 7-8.1 4.4-1.9-3 2.8-3.4 5.5-5.2 5.8-4.1s-1.4 4.3-3.9 7.1zm247.3-4.5c-1.3 1.3-2.2 1.5-2.2.4s2.2-4.7 3.5-3.5 0 1.8-1.3 3.1zm26.2-1.1c-.6 1.5-1.5 2.3-2 1.9s-.3-1.9.4-3c1.8-3 2.9-2.2 1.6 1.1zm-436.6 2.6c.6 1.1-.1 1.8-1.8 1.8s-2.9-.7-2.9-1.8a1.8 1.8 0 0 1 1.8-1.9 3.7 3.7 0 0 1 2.9 1.9zm335.8 6.3c-1.2 2.6-2.9 4.8-3.7 4.8s-2-1.5 1.4-6.6 5.2-4.7 2.3 1.8zm11.3-.8a1.9 1.9 0 0 1-2 1.9c-1.1 0-1.4-.8-.8-1.9s1.4-1.8 1.9-1.8.9.8.9 1.8zm-532.2 5.2c-1.3 1.3-4.7-1.5-4.7-3.7s1.2-.9 2.8.5 2.4 2.7 1.9 3.2zm389.9-1c-1.8 1.8-2 1.6-1.1-1s1.7-2.9 2.3-2.3.1 2-1.2 3.3zm-218 .7c4.1 1.5 3.7 4.4-.5 4.4s-6.4-2.4-4.4-4.3 1.4-1.4 4.9-.1zm-365.4 8.7c0 3.3-.3 3.5-1.8 1.2s-2.5-7.9 0-6.4 1.8 2.9 1.8 5.2zm288.8-3.4c1.2 1.5 1.4 2.8.4 2.8s-2.9-1.3-4.1-2.8-1.4-2.7-.4-2.7 2.9 1.2 4.1 2.7zm199 2.8a5 5 0 0 1-3.9 1.8c-1.5 0-2.2-.8-1.7-1.8a5 5 0 0 1 3.9-1.8c1.5 0 2.3.8 1.7 1.8zm344.2 1.8c-1.7 2.9-4.5 2.1-3.4-.9.6-1.5 1.9-2.3 2.8-1.7a1.7 1.7 0 0 1 .6 2.6zm-782.4 3.4c1.1 3.3-2.7 2.6-4-.8-.7-1.8-.3-2.6 1.1-2.2a5 5 0 0 1 2.9 3zm770 8.3c-2.1 8.7-5.1 13.2-5.1 7.8s4.2-15.8 5.8-15.8.4 3.6-.7 8zm-323.5-4.6c0 1.5-8.1 5.9-10.7 5.8s7-7.3 9.1-7.3a1.4 1.4 0 0 1 1.6 1.5zm-154.5 2.2c.6 1.1-1.3 1.9-4.6 1.9s-5.6-.9-5.6-1.9 2.1-1.8 4.5-1.8 5.1.8 5.7 1.8zm323.9 11.1c-1.7 3.2-3.8 5.6-4.8 5.6s-.8-2.8 3.6-8 4.5-3.9 1.2 2.4zm26.9 0c0 2.4-11.2 14.8-13.4 14.8s1.1-6.1 6.4-12.2c4.1-4.6 7-5.7 7-2.6zm75.1 3.3c-3.1 3-3.2 2.9-1.1-1.2 1.2-2.3 2.7-3.8 3.3-3.2s-.3 2.6-2.2 4.4zm-673.2 5c.1 1-1 .1-2.6-1.9s-2.7-4.4-2.7-5.4 1.1-.1 2.6 1.9 2.7 4.3 2.7 5.4zm240.4-4.6c6.5 3.9 8.2 6.8 2.8 4.7a61.5 61.5 0 0 0-7.8-2.2c-5.5-1-7.6-2.2-7.6-4.3s6.1-2.1 12.6 1.8zm319.4-.9c-.5 1.5-1.3 2.8-1.7 2.8s-.8-1.3-.8-2.8.8-2.8 1.8-2.8 1.3 1.3.7 2.8zm-657.5 3.3c1.9 3.7 1.9 3.9-.9 1.6s-3.1-3.3-3.1-4.2c0-2.7 1.7-1.6 4 2.6zm66.4.6c0 1.5-.9 2.2-1.9 1.6s-1.8-2.4-1.8-3.8.8-2.3 1.8-1.7a5.1 5.1 0 0 1 1.9 3.9zm564.6-3.2c0 2.4-5.4 6.6-6.7 5.2s2.6-6.8 5-6.8a1.6 1.6 0 0 1 1.7 1.6zm-654.6 9.5c3.8 9.6 3.8 12.7 0 8.9s-6.7-16.3-4.5-16.3 2.9 3.3 4.5 7.4zm238.1-1.9c1.1 2.1 1.6 3.7 1.1 3.7s-1.9-1.6-3-3.7-1.6-3.7-1.1-3.7 1.8 1.7 3 3.7zm337.7 1l-8.9 6.7-5.3 4 2.2-4c1.1-2.2 3.2-4 4.5-4s3.9-1.6 5.7-3.7 3.8-3.3 4.4-2.8-.6 2.2-2.6 3.8zm88.2 3.8c-2.2 2.8-3.9 4-3.9 2.6s5.6-9.7 6.9-8.5-.8 3.2-3 5.9zm-675.9 1.2c-.1 5-.4 5.4-1.7 2.4-2.3-5.2-2.3-8.4-.1-8.4s1.8 2.7 1.8 6zm39.7-3c.7 1.6.3 2.3-.8 1.6a3.3 3.3 0 0 1-1.8-2.7c0-2.7 1.3-2.1 2.6 1.1zm475.9-1.1c-.6 1-2.6 1.8-4.3 1.8s-2.8-.2-.3-1.8 6.1-2.4 4.6 0zm-228.6 1.8c0 1.1-.4 1.9-.9 1.9s-1.2-.8-1.9-1.9-.3-1.8.8-1.8a1.9 1.9 0 0 1 2 1.8zm234.9 11c-8 6.6-16.3 7.5-11 1 2.1-2.5 13.2-6.6 14.7-5.4s-1.3 2.3-3.7 4.4zm-431.1 2.2c0 1.1-.8 1.4-1.9.7a3.8 3.8 0 0 1-1.8-3c0-1 .7-1.4 1.8-.7a3.7 3.7 0 0 1 1.9 3zm704.1 1.3c-.6 2.2-2.3 4-3.8 4s-2-.9.7-4.4c3.9-5.3 4.5-5.2 3.1.4zm-364.5.3c.6 1-.1 1.9-1.6 1.9a5.1 5.1 0 0 1-3.9-1.9c-.6-.9.2-1.8 1.6-1.8a5.3 5.3 0 0 1 3.9 1.8zm51.9 0c.6 1.1-1 1.9-3.7 1.9s-4.4-.8-3.7-1.9a4.6 4.6 0 0 1 3.7-1.8 4.9 4.9 0 0 1 3.7 1.8zm-444 3.4c2.9 3.9 3.3 6.6.6 5s-6-8.4-4.4-8.4 2.4 1.5 3.8 3.4zm119.1 2.2c1.1 2 1.6 3.7 1.1 3.7s-1.8-1.7-3-3.7-1.6-3.7-1.1-3.7 1.9 1.7 3 3.7zm620.1-1.9a1.8 1.8 0 0 1-1.9 1.9c-1.1 0-1.5-.8-.9-1.9s1.5-1.8 2-1.8.8.7.8 1.8zm-287.9 3.7c-.6 1-2.2 1.2-3.9.6s-2.3-1.4-.5-2.6 5.8-.3 4.4 2zm-477.4.2c2 3.2-.3 3.8-2.8.8s-1.5-2.8-.4-2.8a4.2 4.2 0 0 1 3.2 2zm263.7.8c1.3 1.4 1.9 3.2 1.5 3.7s-7.1-1.3-7.1-3.9 2.7-3.3 5.6.2zm-147.2 7.4l5.6 4.8-5.6-2.7a32.7 32.7 0 0 1-9.3-6.9c-3.6-4-3.6-4.1 0-2.1a70.1 70.1 0 0 1 9.3 6.9zm73.4-5.2a42.8 42.8 0 0 1 4.1 5.5c2.3 4.1-3.3.6-6.8-4.2s-1.5-6.3 2.7-1.3zm-213.4 7.2c2.3 5 1.4 8.2-1.5 5.2s-4.3-10-2.3-10 2.6 2.2 3.8 4.8zm842.5-4c0 .5-.7 1.3-1.8 2s-1.9.2-1.9-.9a1.8 1.8 0 0 1 1.9-1.9c1.1 0 1.8.3 1.8.8zm-675.7 7c0 .9-1.3.8-2.7-.4s-2.8-3.1-2.8-4.1 1.3-.8 2.8.4 2.7 3.1 2.7 4.1zM544 779c0 .9-1.3 1.3-2.8.7s-2.7-1.3-2.7-1.7 1.3-.7 2.7-.7 2.8.8 2.8 1.7zm45.4 2a4.8 4.8 0 0 1-3.8 1.8c-1.5 0-2.7-.8-2.7-1.8s1.7-1.9 3.8-1.9 3.3.9 2.7 1.9zm228.4 12c-5.7 8.5-9.1 11.8-9.1 8.9s12.6-17.3 13.9-17.3-1.7 3.8-4.8 8.4zm-414.3-1.5c2.3 2.9 2.3 3-.6.8s-3.3-2.8-3.3-3.2 1.5-.7 3.9 2.4zm-24.2 8.7c4.4 3 7.2 5.9 6.1 6.2s-22.8-12.4-22.8-14.7 5.6.8 16.7 8.5zm249-6.3a3.9 3.9 0 0 1-2.9 1.9 1.8 1.8 0 0 1-1.8-1.9c0-1.1 1.2-1.8 2.9-1.8s2.4.7 1.8 1.8zm-267.6 4.6c2.4 2.6 3.6 4.7 2.7 4.7-2.6 0-10-5.7-10-7.6s2.9-1.9 7.3 2.9zm485.1-2.7a1.9 1.9 0 0 1-2 1.8c-1.1 0-1.4-.8-.8-1.8s1.4-1.9 1.9-1.9.9.7.9 1.9zm-244.4 3.7a12.5 12.5 0 0 1-6.5 1.6c-2.8-.1-2.4-.7 1.9-2.6 5.9-2.6 9.2-1.8 4.6 1zm157.4-2.1c0 2-7.4 7.6-10 7.6-1 0 .2-2 2.6-4.6 4.4-4.8 7.4-6 7.4-3zm-328.5 4.8c3 2.2 3.1 2.6.5 2.7a7.4 7.4 0 0 1-5.3-2.7c-2.9-3.5.2-3.5 4.8 0zm98 3.1c1 .9-1.5 1.5-5.9 1.5-8.4 0-13.5-1.4-13.5-3.6s17.2.1 19.4 2.1zm-375.9 11.2c2.4 5.7 2.5 6.7.3 5.8s-4.7-6.2-4.8-11.6c0-3.6 1.3-2 4.5 5.8zm512-6.1c0 .9-1.4 2.2-3.1 2.8s-2.7.7-.7-1.7 3.8-3.5 3.8-1.1zm248.4 2.4c-1.3 1.3-2.3 1.5-2.3.4s2.3-4.7 3.6-3.5 0 1.8-1.3 3.1zm-699.4.7c1.8 4.7-.2 5.4-2.5 1-1.2-2.3-1.4-3.9-.3-3.9s2.2 1.3 2.8 2.9zm111.3-1.1c.6 1.1.3 1.9-.8 1.9a3.6 3.6 0 0 1-2.9-1.9c-.7-1.1-.4-1.8.7-1.8a3.8 3.8 0 0 1 3 1.8zm390.3.9a4.3 4.3 0 0 1-4.1 2.7c-2.6-.1-2.5-.5.6-2.8s4.9-3.3 3.5.1zm-533.6 3.4c2 3.7 1.9 3.8-.9 1.6s-3-3.3-3-4.2c0-2.8 1.7-1.7 3.9 2.6zm192.3-2.5c4.6 2.9 1.3 3.7-3.7 1-2.6-1.5-3.4-2.6-1.8-2.7a12.1 12.1 0 0 1 5.5 1.7zm360.1 11.9c-6.5 5.6-12.7 7.6-10.3 3.4s13.3-9.5 14.7-8.4-1.6 2.7-4.4 5zm-349 1.5c0 2.4-6 1.1-6.8-1.5s.6-1.9 3-1.3 3.8 1.8 3.8 2.8zm372.1 2.4c-1.3 1.5-2.8 2.4-3.3 1.8s.2-2.2 1.4-3.6 2.9-2.4 3.4-1.9-.2 2.2-1.5 3.7zm182.5.7a4.7 4.7 0 0 1-3.2 2.1c-1.2 0-1-1.1.4-2.8s4.8-2.4 2.8.7zm-240.1 7.4c-5.3 3.8-10.8 6-10.8 4.3s13.7-11.2 14.4-9.3-1.2 3.2-3.6 5zm-545.7.5c1.5 2.8 1.5 3.5 0 2.6s-3-3-4.1-5-1.5-3.5 0-2.6a16.8 16.8 0 0 1 4.1 5zm-24.8 3.8c-.6 1.5-1 1.1-1.1-1.1s.3-3 .9-2.4.7 2.2.2 3.5zm56.9-2.2a1.8 1.8 0 0 1-.8 2.7c-1 .6-1.8-.1-1.8-1.6 0-3.3 1-3.8 2.6-1.1zm-43.3 5c2.3 6.1.8 12.3-1.9 7.9-1.9-2.9-2.6-12.9-1-12.9s1.8 2.2 2.9 5zm616.4 2.4c-6.7 5.2-9.3 4.4-2.8-.7 3.1-2.6 5.9-4.1 6.5-3.7s-1.1 2.4-3.7 4.4zm-155.5 0c0 1-2.2 1.8-4.8 1.8s-4.2-.8-3.6-1.8 2.7-1.9 4.7-1.9 3.7.8 3.7 1.9zm182.2 2.7c-2 1.5-4.4 2.7-5.5 2.8s.2-1.5 2.8-3.6 5-3.2 5.5-2.7-.8 2-2.8 3.5zM556.1 855c-.7 1-3.6 1.8-6.5 1.8s-5.9-.8-6.5-1.8 1.9-1.9 6.5-1.9 7.1.8 6.5 1.9zm10.1 0c0 1-1.3 1.8-2.7 1.8s-2.8-.8-2.8-1.8 1.3-1.9 2.8-1.9 2.7.9 2.7 1.9zm-348 4.6c0 1.5-.8 2.8-1.8 2.8s-1.9-1.3-1.9-2.8.9-2.8 1.9-2.8 1.8 1.3 1.8 2.8zm523-.9c-.6 1-2.6 1.8-4.3 1.8s-2.8-.2-.3-1.8 6.1-2.4 4.6 0zM273 866.9c1.9 1.3 3.1 3 2.6 3.4s-3-.7-5.4-2.6c-4.9-4-2.5-4.8 2.8-.8zm57.4 3.1c3.5 2.2 6.3 4.6 6.3 5.6 0 2.5-.8 2.1-8.3-3.9s-7.1-7.3 2-1.7zm-23.3 1.8c0 1.1-.8 1.5-1.9.8a3.8 3.8 0 0 1-1.8-3c0-1.1.7-1.4 1.8-.7a3.6 3.6 0 0 1 1.9 2.9zm590.5 5.2c0 2.1-18 19.4-20.9 20.2-1.2.3-1-.6.5-1.9a132.9 132.9 0 0 0 10-11.2c6.8-8.4 10.4-10.8 10.4-7.1zm-487.8 2c.6 1.1.3 1.9-.8 1.9a1.9 1.9 0 0 1-2-1.9c0-1 .4-1.8.9-1.8s1.2.8 1.9 1.8zm-184.2 5.6c1.2 2.1 1.6 3.7 1.1 3.7s-1.8-1.6-2.9-3.7-1.6-3.7-1.1-3.7 1.8 1.7 2.9 3.7zm646.1-2.9c0 .6-.8 1.3-1.9 2s-1.8.3-1.8-.8a1.8 1.8 0 0 1 1.8-2c1.1 0 1.9.4 1.9.8zm-216.6 4.6c0 2.1-6.7 3.9-14.8 3.9-3.9 0-5.7-.7-4.6-1.7 3.1-3 19.4-4.9 19.4-2.2zm-69.4 9.3a3.2 3.2 0 0 1-3.7.8c-3.8-1.5-3.4-2.5 1.1-2.5 2 0 3.2.8 2.6 1.7zm-286 8c0 .7-1.7.3-3.7-.9s-3.7-3-3.7-3.7 1.6-.4 3.7.9 3.7 2.9 3.7 3.7zm135.1-4.2c0 1-1.3 1.9-2.8 1.9s-2.8-.9-2.8-1.9 1.3-1.8 2.8-1.8 2.8.8 2.8 1.8zm277.3.4a4.8 4.8 0 0 1-3 2.9c-1.3.5-1.7-.3-1.1-2.2s5.2-4 4.1-.7zm-491 9.2c6 6.5 8.2 9.9 6.5 10.5s-4.3-1.6-6.4-4.5a115.4 115.4 0 0 0-8.1-9.7c-4.5-4.6-5.1-5.9-2.6-5.9.9 0 5.6 4.3 10.6 9.6zm-25.1-1.8c0 3-.5 3.5-2 2a3.5 3.5 0 0 1-.8-4c1.9-3.1 2.8-2.5 2.8 2zm712.7 1.3c0 .8-1.7 3-3.7 4.8-4.1 3.8-4.8 2.8-1.8-2.8 1.9-3.7 5.5-5 5.5-2zM544 912.3c0 .9-1.3 1.3-2.8.7s-2.7-1.3-2.7-1.7 1.3-.8 2.7-.8 2.8.8 2.8 1.8zm-340.6 23c0 2.8-6-1.6-8.4-6.3-4-7.7-3.3-8 2.9-1.1 3 3.5 5.5 6.8 5.5 7.4zm168.2-10.1c.5 1.4-.2 2-1.7 1.6a5.6 5.6 0 0 1-3.2-3.2c-.4-1.5.2-2.2 1.6-1.7a6.6 6.6 0 0 1 3.3 3.3zm-33.1 20.5c0 3-2.4 2-9.2-4l-6.5-5.6 7.9 3.8c4.2 2.2 7.8 4.8 7.8 5.8zm261.1-4.6a7.8 7.8 0 0 1-5.3 2.7c-2.6-.1-2.5-.6.5-2.8 4.6-3.5 7.7-3.4 4.8.1zm9.7-1.5a7.2 7.2 0 0 1-4.6 0c-1.3-.5-.3-.9 2.3-.9s3.6.4 2.3.9zm14.3-.5c0 .5-.7 1.3-1.8 2s-1.9.2-1.9-.9a1.8 1.8 0 0 1 1.9-1.9c1.1 0 1.8.3 1.8.8zm181.8 3.3c-1.3 1.2-2.2 1.4-2.2.3s2.3-4.6 3.5-3.4 0 1.8-1.3 3.1zM569 943.8c.6 1.1.3 1.9-.8 1.9a1.9 1.9 0 0 1-2-1.9c0-1.1.4-1.8.9-1.8s1.2.7 1.9 1.8zm-17.8 2.8c2.1 2.1-1.6 3.2-7 2-7.8-1.7-7.6-5.6.2-4.1 3.3.7 6.3 1.6 6.8 2.1zm-20.1 4.6a1.8 1.8 0 0 1-1.9 1.9 1.7 1.7 0 0 1-1.8-1.9 1.7 1.7 0 0 1 1.8-1.8 1.8 1.8 0 0 1 1.9 1.8zm198.8 2.8c-1.9 1.4-4.9 2.6-6.3 2.6s-.8-1.1 1.8-2.6c6.1-3.5 9.1-3.5 4.5 0zm-400.6 4.6c2.4 2.1 3.8 4.2 3.3 4.7s-2.8-1.1-5.2-3.7c-5.1-5.6-4-6.1 1.9-1zm384.9 2.1c-7.3 3.9-10.9 4.5-7.8 1.5s10.6-6.8 12.4-5.8-1.2 2.4-4.6 4.3zm59.4-1.2c0 .5-.8 1.3-1.9 1.9s-1.8.3-1.8-.8a1.8 1.8 0 0 1 1.8-1.9c1.1 0 1.9.3 1.9.8zm34.3 7.6c-1.7 1.6-3.5 2.6-4 2.1s.5-2.3 2.2-4 3.4-2.6 3.9-2.1-.4 2.3-2.1 4zm-292.5 2.3c-.5.6-2 .1-3.3-1.2s-1.6-2.1 1-1.1 2.9 1.7 2.3 2.3zm149.4-2a7.2 7.2 0 0 1-4.6 0c-1.3-.6-.3-1 2.3-1s3.6.4 2.3 1zm-342.9 7.4c6.8 6.3 2 5.1-5.6-1.3-3.9-3.4-5-5.1-2.7-4.3s5.7 3.2 8.3 5.6zm288.2-5.8c-.6.6-2.2.7-3.5.2s-1.1-1 1.1-1.1 3 .3 2.4.9zm-30.9 6.3c0 1-3.4 1.9-7.5 1.9s-7.1-.6-6.7-1.3 14.2-2.7 14.2-.6zm-116.6 5.6c1.4 1 1.9 1.8.9 1.8a10.8 10.8 0 0 1-4.6-1.8c-1.5-1-2-1.9-1-1.9a11.5 11.5 0 0 1 4.7 1.9zm257.3-.2c0 2.2-3.5 4.6-4.8 3.3s.9-5 3.1-5a1.6 1.6 0 0 1 1.7 1.7zm-38 2a2 2 0 0 1-.9 2.8c-1 .6-1.8-.2-1.8-1.7 0-3.3 1-3.7 2.7-1.1zm113.9 9.3c-1.5.9-3 1.2-3.5.7s.1-1.6 1.6-2.6 3-1.3 3.6-.7-.2 1.6-1.7 2.6zm-328.7.8c-2 1.5-4.4 2.7-5.4 2.7s-.3-1.2 1.7-2.7 4.4-2.7 5.5-2.7.2 1.2-1.8 2.7zm68.6-.8c.6 1 .3 1.8-.8 1.8a1.9 1.9 0 0 1-2-1.8c0-1.1.3-1.9.9-1.9s1.2.8 1.9 1.9zm65.7.3c0 .9-3.1 1.5-6.9 1.5s-6.1-.5-4.4-1.6 11.3-1.8 11.3.1zm15.3-.9a7.6 7.6 0 0 1-4.7 0c-1.3-.5-.2-.9 2.4-.9s3.6.4 2.3.9zm-230 6.3c0 2.3-2.6 2-5.2-.5s-2.6-5.5 1.5-3.3c2 1.1 3.7 2.8 3.7 3.8zm12-3.9c.6 1.1.3 1.9-.8 1.9a1.9 1.9 0 0 1-2-1.9c0-1.1.4-1.8.9-1.8s1.2.7 1.9 1.8zm.9 16.9c0 .9-1.9.7-4.5-.5s-4.1-2.9-3.5-3.8 8 1.7 8 4.3zm196.3 1.6c0 2.2-2.6 2.2-9.3 0-4.1-1.3-3.8-1.5 2.3-1.6 3.9-.1 7 .6 7 1.6zm113.1 1.9c-4.8 4-12 4.9-10.8 1.3.4-1.2 3.2-2.7 6.1-3.4 8.7-1.9 9.2-1.7 4.7 2.1zm-281.6 1.8a1.8 1.8 0 0 1-1.9 1.9c-1.1 0-1.5-.8-.9-1.9s1.5-1.8 2-1.8.8.7.8 1.8zm-45.4 16.7c.7 1 .3 1.9-.8 1.9a1.9 1.9 0 0 1-1.9-1.9c0-1.1.3-1.8.8-1.8s1.3.7 1.9 1.8zm221.3 3.7c-3.8 2.3-9.3 2.4-9.3 0s2.7-1.8 6-1.8 5.4.4 3.3 1.8zm87 1.1c0 .4-1.3.7-2.8.7s-2.8-.8-2.8-1.7 1.3-1.3 2.8-.8 2.8 1.4 2.8 1.8zm-74.1 6.3a13.7 13.7 0 0 1-6.5 1.8c-3.7-.1-3.7-.1 0-1.8a20.9 20.9 0 0 1 6.5-1.7c2.4-.1 2.4.1 0 1.7zm-19.4 5.6c1.5 2.3-.9 2.3-4.6-.1s-2.5-1.8.3-1.8 3.7.9 4.3 1.9zm15.7 12.9c0 1.1-1.2 1.9-2.9 1.9s-2.4-.8-1.7-1.9a3.4 3.4 0 0 1 2.8-1.8 1.7 1.7 0 0 1 1.8 1.8z" fill="#74cdcc" data-name="Слой 2"></path></g></svg>