<svg xmlns="http://www.w3.org/2000/svg" width="852.5" height="1030" viewBox="0.005554676055908203 -0.018972866237163544 852.5166625976562 1030.0242919921875" style=""><g><g fill="#66c" data-name="Layer 2"><path d="M298.5 971.6c4.8-3.7 43.5-43.1 71.1-72.4 8.6-9.2 18.4-20.6 21.6-25.2l11.9-17.2a145.9 145.9 0 0 0 15.1-28.1c1.5-3.5 1.6-3.4 6.6 3.5 6.6 9.3 17.6 17.1 31.2 22.3 16.4 6.2 42.4 7.3 59.8 2.5 7-2 13.7-4.5 15-5.6a16.8 16.8 0 0 1 5.7-3.2c10-3 28.9-21.7 36.1-35.8 2.1-4.1 4.4-7.6 4.9-7.6s3.4 1.8 6.3 3.9c7.6 5.8 12.7 7.3 24.7 7.3 18 0 28.2-6.8 37.3-24.9 5.2-10.4 5.8-10.7 14.1-5.4 4.8 3.1 24.1 3.2 36.7.2s26.4-10.6 34.5-18.9 19.2-23.4 22.7-30.6c5.1-10.3 8.2-37 5.7-48.2-.9-3.8-1.4-7.2-1.1-7.5s5-1.4 10.5-2.3c13.9-2.4 18.9-4.8 26.8-12.6s14.7-20 17.2-33.9.2-26.9-6.4-37.5l-4.5-7.1 3.5-2.1c1.9-1.2 8.2-4.7 14-7.9 12.8-7.1 20.5-15.7 27.5-30.6 9.5-20.5 6.6-41.3-7.6-55.1-10.3-10-23.8-18.9-30.4-20.2-3-.5-5.6-1.5-5.6-2.1s2.6-3.5 5.7-6.5c9.8-9.4 18.2-23.9 23.5-40.3 2.9-9.2 5.7-33.5 4.6-39.9-.4-2.3-1-6.5-1.4-9.4-1.5-11.3-18.5-25.7-37.4-31.7-10.9-3.5-26.9-4.6-38.3-2.6l-6.3 1.2-1.9-8.1c-2.4-10.2-10.4-21.4-19.7-27.7-5.8-3.9-9.5-5.1-19-6-6.9-.6-13.5-.4-16 .5-7.8 3.1-8.4 2.5-9.2-8.9-.4-5.8-2.2-14.1-4-18.2-3.3-7.5-15.4-20.2-23.5-24.5s-34.2-11.3-47.9-13.1-14.2-1.6-25.1 1.8c-6.5 2-13.3 4.6-15.2 5.9-4.4 2.9-8.4 1.6-8.4-2.8s-7.6-18.3-16.7-27.2c-7.4-7.3-11.5-9.9-21.9-13.6-20.7-7.5-42.5-9.7-70.9-7.2-22.2 2-34.4 7.1-57.1 24-11.3 8.5-24.1 23.5-28.2 33-3 7.1-4.2 7.2-10.1 1.1s-17.4-11.8-30.1-12.8c-8.8-.7-11.7-.3-17.8 2.6-15.9 7.8-34.3 27.8-36.4 39.5-.6 3.5-1.6 6.7-2.3 7.1s-4-1.4-7.4-4.1-12.8-8.3-21-12.3l-15-7.2-16.5.2c-18.6.2-37 4.3-48.2 10.9-25.4 14.8-40.1 46.9-40.1 87.4 0 9.6-.2 17.3-.5 17.3a64.1 64.1 0 0 1-7.3-2.4c-14.4-5-38.2-.7-52.3 9.6-24.3 17.6-26.2 59.9-3.7 81 4.7 4.5 5 6.4 1 6.4-12.5 0-40.5 22.8-53.4 43.5-11.2 17.9-10.6 44.4 1.6 67.3 7.7 14.5 25 32 28.3 28.6.4-.4 1.7.4 2.7 1.6a6.8 6.8 0 0 0 4.1 2.4c4.2 0 3.7 3-1.5 8.8-16.7 18.4-16.5 40.2.4 57.1 9.3 9.3 17.9 13.2 31 14l11.2.8-1.8 9.7c-2.3 12.4-.5 22.1 6.3 35.6 14.8 29.2 39 48.6 69.1 55.3 16.7 3.7 35.4 4 39.9.7s8.5-3 8.5 2.7c.1 13.9 15.7 32.6 32.7 39.2 13.6 5.2 32 5.9 45.3 1.6 5.8-1.9 10.8-3.2 11.1-2.9s1 12.2 1.6 26.5c1.2 27-1.1 52.5-6.7 74.7-1.3 5.2-2.7 10.9-3 12.6l-2.4 10.7c-2.8 11.9 2.8 15.9 12.1 8.8zm57.4-97.3c0-3.8 5.4-10.8 6.7-8.7s-4.2 11.7-5.9 11.7-.8-1.4-.8-3zm-30.1-3.8c2-2 2.3.3.6 4.7-1 2.8-1.1 2.8-1.7-.1a5.9 5.9 0 0 1 1.1-4.6zm9.6-9a1.6 1.6 0 0 1 1.7-1.6c.9 0 1.2.7.7 1.6s-1.3 1.6-1.7 1.6-.7-.6-.7-1.6zm131-14a2.4 2.4 0 0 1-1.1-3.2c1-1.5 1.7-1.5 3.4 0 4.2 3.4 2.2 6.1-2.3 3.2zm-85.4-5.4c2.5-2.5 3.1-.8 1.3 3.7s-1.7 3.5-2.4 1a5.5 5.5 0 0 1 1.1-4.7zm-21.3-3.9c1.7-1.7 2.9 1.1 1.7 3.9s-1.3 2.8-2 0-.2-3.4.3-3.9zm144.4 2c1.1-1.2 2.3-2 2.8-1.5s-1.3 3.9-3.2 3.9-.8-.9.4-2.4zm-135-16.1c.3-1.5.7-.2.7 2.8s-.4 4.2-.7 2.7a12.8 12.8 0 0 1 0-5.5zm15.3 1.5c.1-8 5.6-33.5 7.6-35.4s1.8-.1 1 7.5c-1 9.5-3.6 24.5-5 29.6s-3.7 3.2-3.6-1.7zm-23.9-15c.4-14.8 2-21 4.8-19.3.7.4.2 5.1-1 10.6a106 106 0 0 0-2.1 18.5c0 4.7-.5 8-1.1 7.5s-.9-8.3-.6-17.3zm117 8c3.6-6.4 6.2-8 7.3-4.5.6 1.7-9.1 13.2-10.3 12.1s.9-3.8 3-7.6zm-30.2 5.3c0-3.2 5.6-7.6 7.4-5.9s.2 2.7-.8 4.9c-2.2 4.7-6.6 5.4-6.6 1zm90.1-8.4a61.1 61.1 0 0 1 5.4-6.8c3.8-3.4 14.7-18.2 15.6-21.3s3.9-3.9 3.9.4-8.9 15.3-22.1 30.1c-6.1 6.8-8.1 5.2-2.8-2.4zM296 817.4a1.6 1.6 0 0 1 1.7-1.6c.9 0 1.2.7.7 1.6s-1.3 1.6-1.7 1.6-.7-.7-.7-1.6zm-28-1.3c-1-2.8 2.3-2.2 3.4.7s.3 2.3-.9 1.8a3.9 3.9 0 0 1-2.5-2.5zm13.4-4.6c-.8-4.1-.7-4.2 1.3-1.4s2.9 5.7.9 5.7-1.8-2-2.2-4.3zm46.1-3.7c0-2.9.7-4.6 1.7-4.3s1.6 1.1 1.6 1.8-.1 2.5-.1 4.2-.7 3.2-1.6 3.2-1.6-2.2-1.6-4.9zm-71.7-2.6c-2-2.4-3.8-5.9-3.8-7.7s-2.5-6.9-5.4-11.3c-5.8-8.5-7.8-12.9-6.1-12.9s19 27.2 20.1 32c.6 2.3.6 4.2 0 4.2s-2.7-2-4.8-4.3zm279.4-.7c1.1-1.1 1.9-1.3 1.9-.3s-1.9 3.9-3 2.9 0-1.5 1.1-2.6zm-194.6-1.7c.4-1.1.8-.2.8 2s-.4 3.1-.8 2a6.8 6.8 0 0 1 0-4zm247.7-4c1.1-1.1 4 1.3 4 3.1s-1 .8-2.4-.3-2-2.4-1.6-2.8zm-259.7-1.1c-.6-1.4 0-2.4 1.4-2.4a2.4 2.4 0 0 1 2.3 2.4c0 1.3-.7 2.4-1.5 2.4s-1.8-1.1-2.2-2.4zm287.3-1.6c1-1.2 2.6-2.3 3.3-2.3s1.4 1.1 1.4 2.3-1.4 2.4-3.3 2.4-3-.4-1.4-2.4zm-354.6-8.8c0-.8 1-1.4 2.1-1.4s5.8 6.4 5.7 9.9-7.8-6.3-7.8-8.5zm270 2.8c1.4-3.6 18.8-26.3 20.2-26.3 3.3 0 .7 4.7-8.9 16.1s-12.9 14.5-11.3 10.2zm-89.2-2.7c.9-3.4 3.3-5.6 4.7-4.2s-2.3 7.4-4.1 7.4-1-1.4-.6-3.2zm178.7-4.4c5.3-6.1 9.3-9.1 9.3-7.1S618.8 789 617 789s.9-2.6 3.8-6zm-134.5-.4c.5-1.7 1.2-2.8 1.6-2.4s-.7 5.7-1.8 5.7-.3-1.5.2-3.3zm-310.1 2.6c0-.5.7-1.1 1.6-1.7s1.6-.2 1.6.7a1.6 1.6 0 0 1-1.6 1.7c-.9 0-1.6-.3-1.6-.7zm286.8-6.4c1-1.3 2.6-2.4 3.4-2.4 2.3 0 1.7 2.7-1.3 5.7s-5.1.3-2.1-3.3zm-50.4 1.4a2.3 2.3 0 0 1 2.4-2.2c2.4 0 3.3 3.3 1.4 5.2s-3.8-.3-3.8-3zm-95.3-2.5c-8.6-2.2-25.2-19.2-32.7-33.6-3.2-6.1-8.9-19.5-12.8-30.1-12.1-32.7-14.5-63-7.8-98.3 3.7-19.2 8.3-28.4 20.6-41.3 20.4-21.2 40.4-26 63.3-14.9 13.8 6.7 16.4 8.8 23.2 19.3 10.3 16.1 15.7 44.2 9.5 50.3-4.4 4.5-20.3 11.8-25.5 11.8-7.1 0-8.7-2.5-8.7-13.9 0-8.6-.7-11-5.5-18.6-11.8-18.3-22.8-16.2-33.4 6.5-3.9 8.3-4.5 11.7-4.9 28.2-.7 22.5 1.4 37 8.5 59.4 5.1 15.9 13.1 30.7 20.9 38.8 4.5 4.6 14.8 4.8 22 .4 8.8-5.4 14.2-23.1 9.6-31.6-2.1-3.9-3.3-3.8-10.2.9s-15.5 5.2-19.1-.3-3.3-21.4-.2-25.2 13.6-8 26.4-10.7c15.3-3.2 20.9-3 26 .9 7.9 6.2 9.4 12.5 9.4 38.5 0 22-.2 24.2-4.1 32.3-5.9 12.6-13.6 20.5-25.7 26.6-14.6 7.3-31.5 8.9-48.8 4.6zm-172-8.2c-2.1-6.5 2.3-5.2 7.8 2.2 3.2 4.2 5.8 8.1 5.8 8.7s-12.7-8.2-13.6-10.9zm457.5 7.7c1-2.8 6-5.7 7.4-4.3s-3.6 6.7-6.3 6.7c-1.2 0-1.7-1-1.1-2.4zm57.2-2.4a1.4 1.4 0 0 1 1.5-1.5 3.2 3.2 0 0 1 2.5 1.5c.5 1-.1 1.6-1.5 1.6s-2.5-.6-2.5-1.6zm-134.9-8.1c1-5.1 6.4-12.3 9.2-12.3s-.3 6.4-4.8 12.1c-2.3 2.8-4.5 5.2-4.8 5.2s-.2-2.2.4-5zm127.1 2.2c0-2.1 1.8-3.5 3.3-2.6s.3 3.8-1.9 3.8-1.4-.5-1.4-1.2zm-456.7-4.4c1.4-1.5 4.5 1 3.5 2.8s-1.6.9-2.7-.2-1.3-2.1-.8-2.6zm282.2-1.4c-25.6-11.9-38.4-30.7-43-63.1-2.2-15.6-1-48.1 2.4-63 4.9-22 6-25.5 8.7-29.4 1.6-2.2 4.4-8 6.3-12.9 3.1-8.4 6.1-12.7 19.7-29 7-8.3 18.8-13 32.7-13 15.8.1 32.8 8.5 49.2 24.4 4.1 4 7.5 7 7.6 6.7 6.6-11.6 7.6-26.3 2.4-36.8-1.8-3.8-2.8-7.5-2.3-8.4 1.8-2.8 9.3-1.9 19.8 2.4 20.2 8.2 23.9 13.2 22.9 30.9-1 14.6-1.9 18.8-6.2 28.2a87.1 87.1 0 0 1-18.7 25.5l-6.1 5.8-.4 17.8c-.4 15.6-1 19.2-5.5 30.4-2.7 6.9-6.7 15.5-8.8 18.9s-6.3 10.8-9.4 16.5-10.9 16-17.4 23.1-11 13.1-9.8 13.5-.9 2-4.4 3.5l-12.3 6c-13.1 6.7-16.8 7-27.4 2zm-247.6-.2c-.5-2.5-.2-2.6 1.9-.8s3.4 5.4.7 4.5a5.3 5.3 0 0 1-2.6-3.7zm311.2.1c.5-1.2 1.6-2.3 2.4-2.3s.9.9-.3 2.3a8.3 8.3 0 0 1-2.4 2.4c-.3 0-.2-1.1.3-2.4zm-131.2-3.4c1-2.7 1.2-2.7 2.7 0s.1 6.7-2.2 4.4a4.5 4.5 0 0 1-.5-4.4zm-149-4.6c-6-9.6-9.2-19.5-6.2-19.5.8 0 2.1 1.6 2.7 3.5a53.3 53.3 0 0 0 5 9.8 102.4 102.4 0 0 1 6.2 11.5c3.5 8.6-.9 5.6-7.7-5.3zm429.7 3.4c6.3-5.2 10.9-5.2 5 0-2.4 2-5.6 3.8-7.1 3.8s-1.4-1 2.1-3.8zm-514.1-2.8c-2-1.9-3.6-4.7-3.6-6.6.1-4.7 7.7-16.8 14.2-22.5 11.8-10.3 29-21 33.7-21s4.6.1 3.5 6.7c-.6 3.7-4.1 11.9-7.7 18.2-15.2 26.6-28.9 35.3-40.1 25.2zm41-3.2c.4-1.1.8-.2.8 2s-.4 3-.8 1.9a5.3 5.3 0 0 1 0-3.9zm-66.7.1c0-.9 1.1-.7 2.4.3s2.4 2.6 2.4 3.4-1.1.7-2.4-.3-2.4-2.6-2.4-3.4zm-44.1.3c0-1 .3-1.6.7-1.6s1.1.6 1.7 1.6.2 1.6-.7 1.6a1.6 1.6 0 0 1-1.7-1.6zm603.6-2.4c1.1-1.2 2.4-2 2.8-1.6s-1.3 4-3.2 4-.7-1 .4-2.4zm-481.9.5c-2.2-2.2-2.7-7.6-.7-7.6s5.1 6.6 5.1 8.7-2.5.8-4.4-1.1zm500.1-15.3c4.1-6.1 7.8-10.8 8.2-10.4s-7 14.8-11.2 19.4c-6 6.6-4.5 2.2 3-9zm-186.9 8.7c0-3 13.2-19.2 13.9-17s-1.9 7.2-7.2 14.1-6.7 6.5-6.7 2.9zm153.9-2.7c5.2-5.8 14.8-12.7 14.8-10.7s-12.3 14-15.3 14-2.1-.5.5-3.3zm-55-.8c-9.2-4.8-22-15.1-24.6-19.8-4.2-7.6-6.6-10.2-7.5-8.1a43.4 43.4 0 0 1-5.4 7.1l-4.8 5.2 1.8-4.7a24.4 24.4 0 0 1 5-8.2c3.6-3.9 2.8-9.3-1.1-7.8s-2.7-2.9 2.2-7.5 5.3-4.1 10.6-3.2a50.8 50.8 0 0 1 11.9 4.1c3.2 1.5 6.7 2.9 7.7 2.9s6.4 3.3 12 7.5c9.8 7.2 19.4 18.9 19.4 23.7 0 1.5.9 1.9 2.8 1.2s1.9-.3-.8 2.3-3.6 3.8-3.6 4.5c0 5.1-16.3 5.6-25.6.8zM98.3 737c-2.7-5.2-3-6.9-1-5.6s5.3 10.3 4.1 10.3-1.7-2-3.1-4.7zm591.7-3.1c0-.8 2-2.9 4.7-4.8s4.7-2.8 4.7-.9-1.5 3.5-3.4 4.8q-6 4.1-6 .9zm-71.5-.8c1-2.5 3.7-3.4 3.7-1.1a3.7 3.7 0 0 1-3.3 3.5c-.7 0-.8-1.2-.4-2.4zm-461.7-6.5c-3.8-8-2.1-8.7 2-.8 1.8 3.7 2.7 6.5 2 6.5s-2.5-2.5-4-5.7zm521.4-11.7a1.6 1.6 0 0 1 2.4-.6 1.7 1.7 0 1 1-1.7 2.9 1.6 1.6 0 0 1-.7-2.3zm-561.4-5.5c-3.9-9.4-4.3-11.8-2.2-11.8s4 5.7 6.3 14.5-.1 7.3-4.1-2.7zm455.6 2.9c1.6-1.6 2.9.8 1.6 2.8s-1.4 1.6-1.9.1a3.4 3.4 0 0 1 .3-2.9zm-468.6-3.8c0-3.1 3.3-.9 5.7 3.8l2.6 5-4.2-3.8c-2.3-2.1-4.1-4.3-4.1-5zm595.6.9c2-2.2 4.4-3.9 5.4-3.9s-.3 2-3 4.5c-5.7 5.5-7.6 5-2.4-.6zm-469.6-5.9c0-3.5 1.5-3.5 4.1 0s2.8 7.1-.9 4.8c-1.8-1.1-3.2-3.3-3.2-4.8zm455.5 4.2c0-2.6 6.9-11.8 11.5-15.2 11.9-9 12-6.8.1 6.4-8 8.8-11.6 11.6-11.6 8.8zM184.7 700c-1.1-4.4-.1-6.4 2.4-4.8s2.2 8.7.2 8.7-2-1.7-2.6-3.9zm-11.6-3.3c0-1.3.7-1.9 1.6-1.4a4.3 4.3 0 0 1 1.5 3.3c0 1.2-.7 1.9-1.5 1.4a4.2 4.2 0 0 1-1.6-3.3zm483.8-3.8c0-.9.3-1.6.7-1.6s1.1.7 1.7 1.6.2 1.6-.8 1.6a1.6 1.6 0 0 1-1.6-1.6zm-538.5-6.1c-2.9-3.7-5.2-8.6-5.2-10.8 0-6.2 7.7-15.6 15.8-19.2 10.1-4.6 13.2-4.9 46.9-5.3 28.2-.3 30.8-.1 32.7 2.5 4.7 6.5-3.2 13-26 21.6-11.7 4.4-33 13.7-37.9 16.6-2.4 1.4-7.1 2.1-12.5 1.9-8-.4-8.9-.9-13.8-7.3zm551.7-1.8c2.4-3.6 5.3-6.8 6.6-7.3s2.2-1.5 2.2-2.3-7.3-2-8.3-.3-4.3 3.7-8.5 6.7c-7.3 5.2-7.3 4.2.1-4.2 2.8-3.1 2.8-3.5.4-4.5s-7.4-1.1-13.6-1.2c-9.9-.3-11.3.1-13.5 3.4s-3 3.2-4.3 2-.9-2.3 1.3-3.9 1.9-5.7-3-5.7c-2.1 0-5.5-1.4-7.8-3.2s-4.8-2.9-5.5-2.5c-2.2 1.4-8.1-3.6-7.2-6.1s1.6-2.4 2.3-2.4c3.4 0 29.7-13.8 28.6-15s-.4-.8.5-.3 13.6-.5 28.1-2.3l26.4-3.4 5.8 4.7c7.1 5.8 10.4 12 9.1 17.1s-8.8 13.3-17 16.1c-6 2.1-9.9 5.2-16.6 12.7-9.6 10.9-12.7 11.9-6.1 1.9zm51.2 1.9c4.5-6.3 17.5-16 17.5-13.1 0 1.3-18.7 17.5-20.1 17.5s.9-2 2.6-4.4zm-521.4-1.1c0-2.7 2.4-3.2 3.9-.8s-.6 5-2.5 3.9a3.8 3.8 0 0 1-1.4-3.1zm113.4-4.3c0-1.6.7-2.8 1.6-2.8s1.6 2.3 1.6 5.1-.4 4.6-1.6 2.8a10.5 10.5 0 0 1-1.6-5.1zm327.8 3.5a1.6 1.6 0 0 1 1.7-1.6c.9 0 1.2.7.7 1.6s-1.2 1.6-1.7 1.6-.7-.6-.7-1.6zM54.4 674.7c-8.8-6.9-12.1-11.9-12.1-18s3.7-2.4 7.5 4.4a87 87 0 0 0 9.8 12.6c3.5 3.8 6.3 7.1 6.3 7.5s-3.1.1-11.5-6.5zm46.2 1.5a2.3 2.3 0 0 1 2.4-2.2c2.3 0 3.2 3.3 1.4 5.2s-3.8-.3-3.8-3zm610.6-1.4c2.5-2.1 5-3.4 5.4-3s-5 6.9-7.5 6.8-1.1-1.3 2.1-3.8zm-397.4-7.5c.4-2 .6-.4.6 3.5s-.2 5.6-.6 3.6a28.1 28.1 0 0 1 0-7.1zm-74.5 3.4c0-1.8.7-2.7 1.6-2.2s1.5 2.3 1.5 4.1-.7 2.7-1.5 2.2-1.6-2.4-1.6-4.1zm351.7-1.8a4.4 4.4 0 0 1 2.5-2.5c1.2-.4 1.6.3 1 1.9s-4.4 3.5-3.5.6zm116.3-3.4c0-1.3 27.4-23.1 28.1-22.4s-17.7 18.3-22.4 21-5.7 2.5-5.7 1.4zM55.5 644.4c1.5-1.5 17.8 15.1 18.9 19.2.5 2.1-3-.6-9.6-7.4s-9.9-11.2-9.3-11.8zm304 17.6a3.1 3.1 0 0 1 3-.1c1.3.4 1 .8-.9.9s-2.6-.3-2.1-.8zm51.2-16.2a136.2 136.2 0 0 1 1.9-15.9c1-4.5 1.3-3.2 1.4 7.1.2 14.9-1.3 26.6-2.9 22.2-.5-1.7-.7-7.7-.4-13.4zm-28 10.9c0-2.7.7-4.8 1.6-4.8s1.5.5 1.5 1.2a33.6 33.6 0 0 0 1 4.7c.7 2.7.3 3.6-1.6 3.6s-2.5-1.4-2.5-4.7zm-264.8-2.6c0-1.2.8-1.9 1.6-1.4a4.2 4.2 0 0 1 1.6 3.3c0 1.3-.7 1.9-1.6 1.4a4.4 4.4 0 0 1-1.6-3.3zm-15.7-10.5c.1-2.1 4 2.5 6.5 7.5 1 2.1.1 1.6-2.5-1.2s-4-5.3-4-6.3zm-24.4-6c-6.5-14.6-4-13.6 3.5 1.4 4.3 8.5 5.6 12.4 3.7 10.7s-4.9-6.9-7.2-12.1zM715.2 648c1-1.3 2.6-2.4 3.5-2.4s.7 1.1-.4 2.4a5.9 5.9 0 0 1-3.4 2.3c-.9 0-.7-1 .3-2.3zm-538.6-1.8a13.2 13.2 0 0 1 5.6 0c1.4.4.2.7-2.8.7s-4.3-.3-2.8-.7zm223.4-6.9c0-1.7.7-3.1 1.6-3.1s1.6 1.4 1.6 3.1-.7 3.2-1.6 3.2-1.6-1.4-1.6-3.2zm386.1-.6c0-1.2 2.4-5.7 5.1-9.8 9-13.2 12.6-10.1 4.7 4.1-4.1 7.4-9.8 10.7-9.8 5.7zm-687.7-.3c-.6-1.4-.3-2 .6-1.4a2.8 2.8 0 0 1 1.6 2.3c0 2.3-1.2 1.8-2.2-.9zm88.9-.7a1.4 1.4 0 0 1 1.6-1.5 1.4 1.4 0 0 1 1.5 1.5 1.4 1.4 0 0 1-1.5 1.6 1.5 1.5 0 0 1-1.6-1.6zm-24.2-.7c-.5-1.3-.3-2.4.5-2.4s2.2 1.1 3.2 2.4 1.4 2.3-.5 2.3a3.9 3.9 0 0 1-3.2-2.3zm-108.2-.8c-3-2.3-3.5-3.4-2.2-4.8s8.5.8 8.5 4.8-1.3 3.9-6.3 0zm67.1-8.5c-2.4-4.7-4.1-10.2-3.8-12.3s1-2.9 4.7 3.4 7.6 20 5 18.4c-.8-.5-3.4-4.7-5.9-9.5zm643.6 5.5c0-2.1 5-6.7 6-5.7s-.5 2.2-2 3.9c-3.3 3.7-4 4-4 1.8zm-25.2-5c5.5-4.7 7.9-5.6 7.9-3.1s-9.3 7.6-11.8 7.7c-.9 0 .9-2.1 3.9-4.6zm-125.3-3.1a3.2 3.2 0 0 1 2.6-1.5c.9 0 1.1.6.6 1.5a3.1 3.1 0 0 1-2.5 1.6c-1 0-1.2-.6-.7-1.6zm-396.2-6c0-4.7.3-5.2 1.4-2.6 1.9 4.4 2 10.6.1 9.5s-1.6-3.7-1.5-6.9zm-31.5-4.2c-5.6-8.2-5.8-8.9-2.5-7.6s8.7 11.4 8.7 13.9-1.7.3-6.2-6.3zm601.9-2.3c6.7-6.6 8.7-7.3 6.9-2.6-1.1 2.8-11.8 10.8-12.9 9.6s2.3-3.5 6-7zM684.6 619c-1-1.6 12.2-14.4 14.8-14.4s1.3 1.5-5.7 9.3-7.5 7.6-9.1 5.1zm-576.1-5.2c0-6 .8-5.4 2.1 1.6.7 3.3.5 4.8-.5 4.2s-1.6-3.1-1.6-5.8zm22 2a20.6 20.6 0 0 0-.9-4.3c-.8-2.6-.7-2.6 1.5.1s3.2 5.7 1 5.7a1.5 1.5 0 0 1-1.6-1.5zm540.6-2.5a2.3 2.3 0 0 1 2.3-2.3c1.3 0 1.9.9 1.4 2.3s-1.6 2.4-2.3 2.4-1.4-1.1-1.4-2.4zm-42.6-.8c-6.5-3.4-3.9-8.4 11.4-22.3 20.8-18.9 34.5-29.2 49.1-36.8 17.1-8.9 20.2-9.5 27-5s10.9 11.6 9.8 20c-.7 5.5-2.5 8.4-9.2 15.2-4.5 4.6-9.8 8.9-11.6 9.4a18.6 18.6 0 0 0-5.6 2.9c-2.9 2.4-27.4 9.3-50.1 14.1-9.3 2-17 3.7-17.3 3.9a9.7 9.7 0 0 1-3.5-1.4zM255.3 607c1-2.2 2.1-3.6 2.4-3.3s-1.2 7.3-2.8 7.3-.6-1.8.4-4zm-182-1.5a2.8 2.8 0 0 1 .6-3.2c.9-.6 1.5-.7 1.5-.2a18.7 18.7 0 0 0 .9 3.2c.6 1.4.3 2.5-.6 2.5a3.1 3.1 0 0 1-2.4-2.3zm-19.2-1.8c-2.8-2.8-3.2-6.9-.6-6.9s5.9 4.7 6 7.4-2.4 2.5-5.4-.5zm97.7-1.5c-21.1-.7-33-3-36.9-7.2s-8.9-20.2-6.6-23.8c1.2-1.9 1.2-2.8.2-2.8s-4.4-5.8-5.8-12.9 2.2-5.1 4.7 2.3c1.8 5.6 2.8 6.6 6 6.3 19-1.6 26.9-.5 44.6 6.6 7.1 2.8 14.5 5.7 16.7 6.3 7.2 2.3 22.9 10.1 26.4 13.2s4.4 9.4.7 12.4c-2.1 1.7-6 2-17.7 1.2-8.3-.6-22.7-1.3-32.3-1.6zm590.2-2c0-1.7 6.9-8 15-13.8 5.4-3.9 5-3.2-3.2 5.3s-11.8 11.4-11.8 8.5zm-17.2-5.2c6-4.6 7.2-3.4 2 1.9-2.7 2.9-4.8 4-5.1 2.9s1.1-3.2 3.1-4.8zm67.6 2.4c0-2.8 3.4-2.4 4.4.6.4 1.1-.5 1.9-1.9 1.9a2.5 2.5 0 0 1-2.5-2.5zm-370.3-2.2c0-2.7.6-4.7 1.3-4.7s1.1 2 .7 4.7-1 4.7-1.4 4.7-.6-2-.6-4.7zm-178.3-4c1.1-4.4 1.5-5.1 1.6-2.3.2 4.7-1.7 12.4-2.5 10.1s.2-4.4.9-7.8zm534.5 4.9c-1.4-1.6-1.2-2.4.9-3.2s6.9 1.5 6.9 4-5.8 1.6-7.8-.8zm-69.4-1.7c0-1.3.7-2.4 1.6-2.4s1.5 1.1 1.5 2.4-.7 2.4-1.5 2.4-1.6-1.1-1.6-2.4zm-92.2-8.7a3.3 3.3 0 0 1 2.8-1.5c1.2 0 1 .6-.4 1.5-3 1.9-3.6 2-2.4 0zM58.9 581c-1-3.8-.9-3.8 1.4-.9s2.5 4.1 2.5 5.5c0 3.3-2.6.3-3.9-4.6zm355.7-3.3c.9-7.1 1.7-8.5 4-7.1s-1.4 13.6-3.5 13.6-1-2.9-.5-6.5zM200.7 581c-.6-.9 0-1.2 1.4-.6s3.2 2.2.9 2.2a2.8 2.8 0 0 1-2.3-1.6zm577.7-4.7c3-1.9 3.7-.4 1.3 2.5s-2.3 1.9-2.7.6a2.9 2.9 0 0 1 1.4-3.1zm-46.8-7c1.3-3.1 3.5-5.6 4.9-5.6s2.4.8-2.8 8.3c-4 5.9-5.1 4.6-2.1-2.7zm-284.3-2.5c2.8-5.1 3.8-2.3 1.4 3.5-1.5 3.6-2.3 4.4-2.7 2.5a11.7 11.7 0 0 1 1.3-6zm357.8 4c2.2-2.7 4.6-3.1 4.6-.8s-1.1 1.7-2.7 2.1l-3.3.9c-.3.1.3-1 1.4-2.2zm-396.4-10c1.8-1.9 2.4 1.3 1.3 7l-1.3 6.1-.5-6c-.2-3.4 0-6.5.5-7.1zm-220.6 10.8c-.6-1-.4-1.6.6-1.6a3 3 0 0 1 2.5 1.6c.6.9.3 1.5-.6 1.5a2.9 2.9 0 0 1-2.5-1.5zm450.7-6.3c6-6.2 8.6-7.7 8.6-4.9s-12.3 11.2-14 11.2 2-2.9 5.4-6.3zm111.1.1c0-2.1 13.7-16.8 21.1-22.6l6.4-5.1-3.3 4.7a138.5 138.5 0 0 1-11.6 12.6c-4.6 4.4-9 8.7-10 9.8s-2.6 2.4-2.6.6zm-483.8-.6a10.7 10.7 0 0 1 2.3-5.1c1.9-2.7 2.3-2.8 2.3-.4s-1.5 7.5-3.2 7.5-1.4-.9-1.4-2zm-200.2-4.3c0-2 .2-2 1.6 0a10.1 10.1 0 0 1 1.6 4.8c0 2-.2 2-1.6 0a11.4 11.4 0 0 1-1.6-4.8zm158.2-3.2c-.8-3.9-.6-5 .8-3.8s2.2 4.1 2.8 7.1.5 5-.8 3.8-2.3-4.1-2.8-7.1zm551 5.1c0-.7 2.4-3.6 5.3-6.4s6.2-4.7 7.9-4c3.6 1.4 3.2 2.9-2.3 7.6s-10.9 5.5-10.9 2.8zm-611.5-2c-2.4-4.4-.5-6 2.4-2.1s3 5.4.9 5.4-2.3-1.4-3.3-3.3zm-48.8-6.6c0-2.8.3-3 1.5-1.2s2 4.8.1 4.8-1.6-1.7-1.6-3.6zm335-4.6c1.2-7.3 3.9-12.3 6.5-12.3s1.4 8.2-2.4 13.9-5.2 4.4-4.1-1.6zm173.9-1.4c1.4-3.5 1.5-3.5 1.6-.5s-.4 3.8-1 4.4-2.2 0-.6-3.9zm-201.1-.3c.4-1.1.7-.2.7 2s-.3 3.1-.7 2a5.5 5.5 0 0 1 0-4zm252.5 1.4c1-2.7 11.2-8.3 12.5-7s-2 2.8-5.8 5c-7.9 4.7-7.8 4.7-6.7 2zM44.7 537.5c-2.9-9.6-3-10.6-1-9.3s8.1 19.9 8 22.6-5-6.2-7-13.3zm497.5 7.4c1.1-1.9 2.5-3.3 3.2-3.3s0 1.7-1.4 4c-3.1 4.6-4.8 4.1-1.8-.7zm-200.5 3a1.5 1.5 0 0 1 1.5-1.6 3.4 3.4 0 0 1 2.5 1.6c.5.9-.1 1.6-1.5 1.6s-2.5-.7-2.5-1.6zm-57.6-8.8c1.5-8 4.7-6.9 3.4 1.1-.6 3.6-1.6 7.4-2.2 8.3-1.6 2.6-2.4-3.3-1.2-9.4zm-29.5 3.3c1.5-3 3.3-5.5 4-5.5s-.1 2.5-1.5 5.5-3.3 5.5-4 5.5 0-2.5 1.5-5.5zm-101.9.8c-1.8-3.8-1.7-3.8.6-.9s2.5 3.8 2.5 4.7-.8.9-3.1-3.8zm288.3-7.1c1.9-5.7 4.7-7.5 4.7-3 0 1.3-1.2 5-2.6 8.2-3.2 7.2-4.9 3.2-2.1-5.2zm-171.9 3.5c1.2-1.2 1.7-.8 1.7 1.4 0 4.2-2.2 6.5-2.9 3a5.3 5.3 0 0 1 1.2-4.4zm438.6 1.7c.4-1.1 2.4-2.3 4.5-2.5s3.7-.4.8 1.9-6.2 3.3-5.3.6zm-36.6 1.3c0-.4 1.2-1.6 2.7-2.8s2.5-1.8.6.7-3.3 3.4-3.3 2.1zm-197.7-5.4c2.6-6.3 6.4-11 7.7-9.6s-3.2 10.1-5.9 13.5-4.2 1.8-1.8-3.9zm-311.3-.6c0-2.3 4.4-1.3 5.4 1.2 1.5 4.1-.9 6.2-3.4 2.9a11.3 11.3 0 0 1-2-4.1zm-100.4 3.1c.5-1.3.8-.9.9 1s-.3 2.5-.8 2-.5-1.9-.1-3zm316.3-2c0-2.2.6-4 1.4-4s1.2-3 1-6.7c-.4-7.6.4-10.6 2.8-10.6s.6 17.3-1.4 22.5-3.8 3.3-3.8-1.2zm-82.7.7a1.6 1.6 0 0 1 2.4-.6 1.6 1.6 0 0 1 .6 2.3 1.6 1.6 0 0 1-2.4.6 1.6 1.6 0 0 1-.6-2.3zm-158.4-2.6c0-1.9.4-2 2.3-.5a6.5 6.5 0 0 1 2.4 4.3c0 1.9-.5 2-2.4.4a6.8 6.8 0 0 1-2.3-4.2zm38.8 1.9c-.6-1.8.2-2.4 3-2.4s3.9.9 3.9 2.4-1.5 2.3-3 2.3a4.6 4.6 0 0 1-3.9-2.3zm142.4-5.7c0-2.7.7-4.3 1.5-3.8s1.6 3 1.6 5.7-.7 4.3-1.6 3.8-1.5-3-1.5-5.7zm-167.9 4.9c-.5-.9.1-1.6 1.5-1.6s2.5.7 2.5 1.6a1.5 1.5 0 0 1-1.5 1.6 3.4 3.4 0 0 1-2.5-1.6zm479.9-.7c0-.5.6-1.1 1.6-1.7s1.5-.2 1.5.7a1.5 1.5 0 0 1-1.5 1.7c-1 0-1.6-.3-1.6-.7zm-129.2-.7c0-2.6 7.8-10.5 7.8-8.1s-1.4 3.8-3.4 5.9c-3.8 4.1-4.4 4.4-4.4 2.2zm-260-3.7c-10.4-3.2-17.8-7.9-27-17.1l-9.3-9.5-5.9 4.7c-3.3 2.7-12.2 7.8-20.1 11.5-12.6 6.1-15.4 6.8-25.2 6.7-16.2-.1-27.6-7.5-27.6-18 0-6.8 3.5-8.6 11.7-6.4 10.4 3 24.2.8 37.3-5.7 6-3 11.5-6.6 12.3-8.1s.4-6.8-1.6-14.5c-5-19.2-7.1-46.9-4.6-59.5 3.1-16.1 6.1-23.8 13.9-35.8 13.4-20.8 27.9-32.3 40.5-32.3 9.2 0 19 6.7 22.2 15.1 4.9 12.9.3 48.1-9.7 73.9-5.1 12.9-19 42.1-23.2 48.4-1.4 2-.6 4.2 3.5 10.5s6.6 8.5 13.4 11c18 6.8 23.9 6 33.3-4.3 15.8-17.5 25.5-38.5 27.7-59.6 3.4-34.2 28.1-66.4 50.2-65.5 10 .4 20.8 6.9 24.7 14.9s6.9 16.5 6.9 21-6.2 22.9-9.7 27.4c-12 15.6-20.1 22.8-32.4 28.6l-5.2 2.4 3.5 4.9c5.1 7.3 11.5 10.4 20.9 10.4 6.8 0 9.5-.8 14.7-4.6 7.5-5.5 13.3-12.4 15.9-19 1.1-2.8 2.5-5.2 3.1-5.2 2.9 0 6.8-12.6 5.8-18.4-2.7-15.5-2.6-36.4.5-56.5s3.4-22.1 5.7-30.8c.9-3.4.5-4.5-1.7-5.1-16.4-4.3-19.1-4.6-33.4-3.6-8.4.6-18.6 1.5-22.6 2-6.5.7-7.5.4-8.5-2.6-1.8-5.8.5-10.7 6.8-14.6s7.4-3.6 29.5-3.6c13.1 0 25.8.5 28.6 1.1 4.8 1.1 5.3.7 15.3-12.9 18.3-24.9 28.2-31.8 46.8-32.9 11.2-.6 16.9 1.4 23.1 8 9.6 10.3 12.9 39.1 6.6 57.1-1.8 5-3 9.3-2.7 9.5 2.3 2.2 13.9 5.6 18.7 5.6 12.5 0 17 11.7 6.7 17.2-5.1 2.7-23.4 2.2-29-.7s-7.8-2-7.8 1-11.6 25.8-13.8 28.7a126.8 126.8 0 0 0-6.4 11.1 188.9 188.9 0 0 1-10 16.1c-14.5 19.9-15.5 21.5-15.5 27.8 0 8 2.9 13.2 12.2 21.9s17.9 11.2 26.8 6.2 12.9-11.9 19.2-27.8 10-19.6 17-19.6c4.2 0 5-.8 7.5-7.1 1.5-3.9 3.4-7.1 4.2-7.1s1.8.8-1.1 7.6c-1.4 3.2-2.8 10.2-3.1 15.5-.4 7.6-2 12.6-7.2 22.9a174.7 174.7 0 0 1-9.6 17.1c-8.1 10.4-20.2 21.2-28.5 25.4-22.5 11.4-35.9 6.7-54.8-19.1-3.5-4.7-6.8-10.3-7.2-12.3-1.3-4.9-3.8-4.4-10.1 2-2.9 3-6 5.6-6.9 5.6s-6.9 3.5-13.2 7.8c-12.8 8.7-19.4 11.1-31 11.1-16.1 0-34.8-11-38.7-22.9-1-3-2.3-5.5-2.9-5.5s-3.4 4.5-6.3 9.9a189.5 189.5 0 0 1-12.3 18.8c-16 20.9-29.8 26.3-50.9 19.8zm-49.2-4.7c2.4-2.4 3.3.6 1.5 5.1l-1.7 3.9-.7-3.7c-.4-2.1 0-4.4.9-5.3zm533.9 4.4c.4-1.2 2.4-2.6 4.3-3s3.3-.8-.4 2.2-5.1 3.8-3.9.8zm78.6-6.3c4.3-6.4 18.2-17.2 20-15.4s.8 4.1-10.2 12.8-13.9 9-9.8 2.6zm-744.6.2c0-.8.7-.9 1.6-.3a4.9 4.9 0 0 1 1.6 3.6c0 2.4-.2 2.4-1.6.3a10.4 10.4 0 0 1-1.6-3.6zm537.1-1.3c-8.1-4-14.3-14.9-14.1-24.6s3.1-23.6 5.9-29c4.6-9.1 16.6-14.6 24.9-11.5 3.6 1.4 3.2 3.5-3.1 17.1s-7.3 21.9-2.9 26.3 14.3 4.5 17.1.4c1.1-1.5 2.1-3.3 2-3.7a17.7 17.7 0 0 1 1.8-4.3c2.1-3.9 2.8-11.8 4.8-53.3.9-20.1 1.9-28.3 4-32.6 4.6-9.7 17.9-22.2 29.4-27.7s21.2-6.5 32.1-1.3c13.9 6.7 20.9 17.6 18.7 29.3-.9 5-2.2 8.1-9.7 21.5-6.2 11.2-29 21.7-34.6 16-4-3.9-1.9-8.6 7.5-16.8s9.5-8.9 9.5-14c0-7.8-3.8-13-9.3-13s-8 2.7-16 18.2-11 27.5-11 45.7c0 27.2-10.2 52.3-23.6 57.9-10.7 4.5-23.7 4.2-33.4-.6zm-470.1 3.3c-.5-.9-.2-1.5.7-1.5a1.5 1.5 0 0 1 1.7 1.5c0 1-.3 1.6-.7 1.6s-1.1-.6-1.7-1.6zm-97.4-1.5c-1-3.8.2-9.5 2.1-9.5s3.6 9 2.3 11-3.5 1.9-4.4-1.5zM15.6 527c.1-2.2 3.8-7.5 5.3-7.5s1.1 5.6-1 7.6-4.3 2.4-4.3-.1zm407.6-2.7c.4-1.7 1.1-3.2 1.4-3.2s.6 1.5.6 3.2-.6 3.1-1.4 3.1-1-1.4-.6-3.1zm336.1.3c0-.7 2.1-3.2 4.7-5.8 5.7-5.4 6.3-4.3 1.4 2.3-3.4 4.6-6.1 6.1-6.1 3.5zm-356.7-11.8c1.2-13.6 2.2-13.4 2.2.3 0 6.6-.7 11-1.6 10.5s-1.1-5.3-.6-10.8zm435.5 4.4c0-2.2.7-3.9 1.6-3.9s1.6 1.7 1.6 3.9-.7 3.9-1.6 3.9-1.6-1.7-1.6-3.9zm-736.7-4.4c-4.7-10.7-6-15.3-4.3-15.3s4 4.7 8.9 16.1c2.9 6.7 3 7.5.7 7.5-.8 0-3.2-3.8-5.3-8.3zm629.5 4.4c-1.5.9-1.7.1-.8-3.3a33.5 33.5 0 0 1 1.4-4.7c.1 0 3.7-2.5 8.1-5.7 7.4-5.3 25-15.5 26.8-15.5s-3 5.4-11.8 11.3c-15.1 10.2-20.5 14.3-20.5 15.8s3-.6 6.8-3.1c13.4-9 13.8-8.4 1.2 2-4.7 3.9-7.3 5.1-8.1 3.8a2.2 2.2 0 0 0-3.1-.6zm-417.6-2.8c0-2.8.4-3 1.6-1.1s1.9 4.7 0 4.7-1.6-1.7-1.6-3.6zm-262.1 1.2a2.6 2.6 0 0 1 .6-3.1c.9-.6 1.5.4 1.5 2.2 0 3.8-.9 4.1-2.1.9zm456.2-3.1c1-2.2 2.5-4 3.2-4s.7 2.1-2.3 5.8-2.8 2.4-.9-1.8zm207.8 0c1.1-1.3 2.4-2 2.9-1.5s-.2 1.5-1.5 2.3c-3.3 2.1-3.7 1.9-1.4-.8zM79.3 499.7c-5.7-12.6-6.9-16.9-3.8-13.7 1.6 1.6 10.9 23 10.9 25s-2.4-1.1-7.1-11.3zM37.6 504c0-4.1 1.6-8.1 3.3-8.1s1.8 8.6.3 10.1-3.6.9-3.6-2zm71.8-2.1c-1.6-6-1.1-6.5 2.2-2.4s3.9 5.9 1 5.9c-1.2 0-2.6-1.6-3.2-3.5zm711.4-2a2.4 2.4 0 0 1 2.5-2.4c2 0 2.2.4.6 2.4a8.7 8.7 0 0 1-2.5 2.3c-.3 0-.6-1.1-.6-2.3zm-12.3-2.7c.6-4.3 4.4-5.6 4.4-1.6s-1.3 5-3.5 5c-.7 0-1.2-1.5-.9-3.4zm-561.3 1.1c1-1.3 2.5-2.4 3.3-2.4s1.4 1.1 1.4 2.4-1.4 2.3-3.3 2.3-3.1-.3-1.4-2.3zm483.4-7.4c5.1-4.5 8.2-5.7 8.2-3.2s-11.3 10-12.4 8.8 1.4-3 4.2-5.6zM575 495.1c1.1-1.2 2.4-2 2.8-1.5s-1.3 3.9-3.2 3.9-.8-1 .4-2.4zm-458.6-2.5c0-.9.6-1.2 1.5-.6a3 3 0 0 1 1.6 2.5c0 .9-.6 1.2-1.6.6a2.9 2.9 0 0 1-1.5-2.5zm-55.1-1.9c-1.2-2.2-1.8-4.6-1.2-5.2s5.2 2.4 6.6 7.1-2.3 3.6-5.4-1.9zm86.6 2.1a8.7 8.7 0 0 1 3.9-1.6c.9 0 .5.7-.8 1.6a9.6 9.6 0 0 1-3.9 1.5c-.8 0-.5-.7.8-1.5zm-42.6-11.2c0-2.5 4.1-1.6 6.7 1.4 4.7 5.5 4.4 6.6-1 3.4-3.1-1.9-5.7-4-5.7-4.8zm605.2-7.6c6.8-9.4 13-14.6 15-12.4.2.2-4.7 6.3-10.9 13.4s-11.4 12.4-11.7 11.5 3.1-6.3 7.6-12.5zm-186 12c0-2.9 4.2-8.5 5.4-7.3s-2.4 9.3-4.1 9.3-1.3-.9-1.3-2zm-401.8-1c-2.5-4.7-2-5.2 2.3-2.4 2.2 1.5 3.6 3.2 3.1 4-1.5 2.4-3.6 1.7-5.4-1.6zm650.3-1.2c-.5-.5-.2-2.4.8-4.1 1.9-3.7 5.4-1.3 3.9 2.7s-3 3.1-4.7 1.4zm-75.3-9c2.7-3.9 5.7-7.6 6.6-8.1 3.7-2.3 2.4.7-3.6 8.6-7.6 9.9-9.9 9.6-3-.5zm-450.5-.2c0-3.6.3-4.1 1.5-2.3s1.6 4.4 1.6 7.1-.4 4.1-1.6 2.3-1.5-4.4-1.5-7.1zm11 3.6a33.5 33.5 0 0 1 1-5.8c.9-3.5 1.1-3.6 2.1-.9s.3 8.7-1.7 8.7-1.4-.9-1.4-2zm-124.5-4.7c0-.7 1.5-.6 3.2.3s2.8 2.5 2.3 3.4-5.5-1.1-5.5-3.7zm614-3.4c.5-1.4 1.5-2.5 2.3-2.5s1.8 4.3-.4 5.1-3.1.5-1.9-2.6zm-477-1.1c1.4-3.5 1.5-3.5 1.6-.5s-.4 3.8-1 4.4-2.2 0-.6-3.9zm-107.5 1c-.3-2.1 0-3.5.8-3s1.8 6.8.6 6.8-1-1.8-1.4-3.8zm396 0c0-.4.6-1.1 1.6-1.7s1.5-.2 1.5.7a1.5 1.5 0 0 1-1.5 1.7c-1 0-1.6-.3-1.6-.7zm-195.7-2.8c1.6-1.6 1.8-1.4 1 .8s-1.5 2.5-2 2-.1-1.7 1-2.8zm369.7-4.1c1.4-1.4 3-2 3.6-1.4s-2.7 6.1-4.6 4.9-.6-1.9 1-3.5zM76.8 463c-2.5-2.5-4.6-5.4-4.6-6.3s12.2 6.1 13.3 9-4.1 1.9-8.7-2.7zm65.3-13.8c-3.4-7.1-5.2-12.9-4.9-15.8s1.4-2.7 7.1 8.9c3.5 7.4 6.9 15.9 7.4 18.9 1 5.4 1 5.5-1.5 2.4s-5.1-8.3-8.1-14.4zm332.1 1.2c3.9-9 7.8-13.4 7.8-8.7s-5.5 15.9-8.4 19.4-3.1-2.1.6-10.7zm-387 .6c-7-9.9-14.2-24-12.9-25.4s7.5 7.3 15.4 22.1q14 26.3-2.5 3.3zm672.1 7.4c0-.7 3.8-4 8.4-7.4 8-5.9 7.9-5.2-1.1 5.2-3 3.5-7.3 4.8-7.3 2.2zm-51.3-4.6c3.3-2.9 4.9-3.5 5.4-2s-3.9 6.3-7.5 6.2q-2.5 0 2.1-4.2zm-244.2-6.7c1.6-3.5 3.5-6.3 4.2-6.3s-.2 3.1-2.1 7c-4.2 8.8-6 8.1-2.1-.7zm105.5-6.7c5.5-12.1 10.2-15.8 5.8-4.5-1.8 4.5-4.5 10.6-6 13.4-4.4 8.3-4.3.9.2-8.9zm152.4 9.8a2.1 2.1 0 0 1 2-1.5 3.5 3.5 0 0 0 2.7-1.8c.7-1.1 1.8-1.5 2.4-.9s-.2 2.1-1.8 3.3c-3.6 2.8-6 3.2-5.3.9zM65.8 439.5a16.3 16.3 0 0 1-1-7.3c.4-2.5 1.5-1.4 4.8 4.9 2.3 4.6 4.2 8.7 4.2 9.2 0 2.4-6.7-3.2-8-6.8zm597.4 4.4a1.6 1.6 0 0 1 1.6-1.6c1 0 1.3.7.8 1.6s-1.3 1.6-1.7 1.6-.7-.6-.7-1.6zm-573.9-20c-4.5-7.9-5.5-12.6-1.7-7.9 6.3 7.7 19.3 27.1 19.3 28.5-.2 2.9-12.3-11.3-17.6-20.6zm648 18.4a1.5 1.5 0 0 1 1.6-1.5c1 0 1.3.6.7 1.5s-1.2 1.6-1.6 1.6-.7-.6-.7-1.6zm34.6-4.5c0-1.9 16.3-17.5 22.2-21.3 7.9-5 4.9-.7-7.7 11.2s-14.5 13-14.5 10.1zm-271.5-12.5c2.6-5.3 4.6-7.9 4.9-6.3s-.6 4.7-2 7.4-2.4 5.7-2.4 6.9a7.1 7.1 0 0 1-2.1 4.1c-3.8 3.9-3-2.8 1.6-12.1zm309.3 7.7c0-3.4 3.8-9.3 6.5-10.1s3.8 1.3-.2 7-6.3 6-6.3 3.1zm-264.8-11c2.9-5.7 6.4-9.6 6.4-7.2s-8.4 17-9 15.4.8-4.7 2.6-8.2zm196.1 3.4c2.7-2.6 2.8-2.5 1 .9s-2.3 3.3-2.9 2.8.4-2.2 1.9-3.7zM607.9 423c1.2-1.3 1.7-1.1 1.7.7a5.1 5.1 0 0 1-1.2 3.5c-.6.6-1.4.2-1.7-.7a4.1 4.1 0 0 1 1.2-3.5zm166.4-4.3a3.2 3.2 0 0 1 2.4-1.6 1.5 1.5 0 0 1 1.5 1.6c0 .9-1 1.6-2.4 1.6s-2.1-.7-1.5-1.6zm-503.5-3.3c0-3.8 3.6-3.3 4.4.6.3 1.6-.5 2.7-2 2.7s-2.4-1.4-2.4-3.3zM107.1 413c-2.7-5.8-1.5-6.1 1.8-.4 1.4 2.5 2 4.5 1.3 4.5s-2.1-1.9-3.1-4.1zm712.2 1.3c0-.6 1.1-2.5 2.3-4.2s2.3-3 2.3.2-.5 3.7-1.1 4.3-3.6 1.1-3.5-.3zm-135.6-.3a1.5 1.5 0 0 1 1.6-1.6 1.4 1.4 0 0 1 1.5 1.6 1.4 1.4 0 0 1-1.5 1.5 1.4 1.4 0 0 1-1.6-1.5zm-83.5-5.5c0-5.3.9-8 4-11.4l4-4.4-1.1 5.5c-1.1 5.8-5.3 17.3-6.3 17.3s-.6-3.2-.6-7zm-484.3 4.2a46.1 46.1 0 0 0-2-5.5c-1.7-4.3 1.8-3 3.8 1.4a20.4 20.4 0 0 1 1.8 5.4c0 2.5-2.8 1.5-3.6-1.3zM72.2 408c0-3.3.4-3.7 1.6-1.9s2 8.4 0 7.1-1.6-2.9-1.6-5.2zm702.9 3c0-.8 2.5-3.4 5.5-5.6 6.6-5.1 7.2-4 1.2 2.3-4.5 4.7-6.7 5.8-6.7 3.3zm-27.4-5.2c2.7-4.8 10.5-13.9 11.2-13.3s-9.2 15.2-11.7 15.2c-.4 0-.2-.8.5-1.9zm-9.9-3.5c2.5-3.8 5.8-5.5 5.8-3s-6.7 8.6-7.6 7.7.3-2.5 1.8-4.7zm-235.3 3.3c.1-3 5.9-9.3 8-8.6s0 2.6-2.5 5.6c-4.6 5.5-5.5 6-5.5 3zM96.7 394.7c-2.3-3.9-2.3-4.4-.2-4.4s8.8 10.6 8.7 14.5c0 2.2-4.2-2.8-8.5-10.1zm391.6 9c0-1.6 3.7-8.7 4.5-8.7a11.8 11.8 0 0 1 3.4 1.6c1.9 1.3 1.7 2.1-1.5 4.8s-6.4 4-6.4 2.3zm329.3-2.8c0-2.2 6-12.3 6.6-11.2s-3.1 11.7-5 11.7-1.6-.2-1.6-.5zm-86.8-4.6c1.5-3.9 4.9-5.7 4.9-2.5s-3 6-4.9 6-.7-1.6 0-3.5zm-138.5.6c0-.6 3.3-4.4 7.2-8.2 7.8-7.4 7.8-6.1 0 3.7-4.3 5.5-7.2 7.3-7.2 4.5zm-436.4-27.7c-.1-3 0-3 2.2.2s5.5 15.6 4.1 17-6.2-12.6-6.3-17.2zm626.5 4.7c2.5-3.1 5.5-5.6 6.8-5.6s-.2 2.5-3.9 6.3c-7.4 7.6-9.2 7.2-2.9-.7zm-209.7 3.4c.7-1.1 2.6-4 4.5-6.7 10.7-15.3 11.1-19.9 2.5-29.9s-8.3-14.5-1.1-22.4c4.7-5.1 6.2-5.8 12.8-5.9s7.9.5 12.1 5.5a37.4 37.4 0 0 1 6.4 14.4c1.8 8.3 1.6 9.5-2.4 18.9-4.9 11.4-7.3 14.6-15.5 20.8s-22.4 10.7-19.3 5.3zm36.9.7c.1-2 4.4-6.6 6.2-6.6s2.2 2.5-.8 5.5-5.4 3.1-5.4 1.1zm120.8-5.6c-1.2-3 3.6-8.1 5.6-6s.9 2.8-.2 4.9c-2.1 3.9-4.2 4.3-5.4 1.1zm-374.5-5.5c0-1.9 3.1-3.9 4.2-2.7s-.9 4.1-2.8 4.1a1.4 1.4 0 0 1-1.4-1.4zm193.8-1.5c0-1.7 9.3-15.7 11.2-16.9s1.4 2.3-3.7 10.2-7.5 9.8-7.5 6.7zm253-1.9a2.9 2.9 0 0 1 2.5-1.5c.9 0 1.2.6.6 1.5a3.1 3.1 0 0 1-2.5 1.6c-1 0-1.2-.6-.6-1.6zm-81.2.7c0-1.4 14.2-20.9 15.9-22s3.3.7.4 5.9c-4.8 8.7-16.3 20-16.3 16.1zm-431.3-16.8c.3-2 .6-.7.7 2.8s-.2 5-.6 3.5a16.5 16.5 0 0 1-.1-6.3zm248.2 1.6c1.5-1.5 1.9-1.1 1.9 1.9s-.4 3.4-1.9 1.9-1.4-2.3 0-3.8zm-171.5 3.5c0-.8 1.1-1.6 2.4-1.6s2.4.8 2.4 1.6-1.2 1.6-2.4 1.6-2.4-.7-2.4-1.6zm406.9-1c-5-1.4-4.2-3.7 1.3-3.7s7.1 1.8 5.2 3.7-1.9 1.2-6.5 0zm-98 .2c0-1.7 5.2-8.6 6.5-8.6s0 4.5-2.4 7.4-4.1 2.7-4.1 1.2zm-34.4-3.8c1.2-1.8 2.6-3.3 3.3-3.3s0 1.8-1.4 4c-3.1 4.7-4.8 4.1-1.9-.7zm63.8-6c9.5-11.5 18.8-20.9 20.7-20.9s2.1 3-2.2 6.7c-2.2 1.9-8.1 7.6-12.8 12.5-10.6 10.9-14.1 12-5.7 1.7zm-532-4.5c-3.5-11.2-4-14.8-2-14.8s8.3 19.8 8.2 24.1-3.1.9-6.2-9.3zm29-6.6c1.3-1.3 3.9 1.5 2.9 3.1s-1.4.8-2.2-.5-1-2.3-.7-2.6zm435.2.8c10.3-17.1 25.6-35.7 25.7-31.1 0 2.3-14.1 22.4-20.7 29.5-3.5 3.8-6.9 4.8-5 1.6zm-390.5-6c-.3-4.4 0-8.4.7-8.8s1.1 1.7 1.1 4.5a44.5 44.5 0 0 0 1 8.8c.5 2 .3 3.5-.6 3.5s-1.9-3.6-2.2-8zm-32 6.4c-.6-.9 0-1.2 1.4-.6s3.2 2.2.9 2.2a2.8 2.8 0 0 1-2.3-1.6zm-65-3.4c.5-1.3.9-1 1 .9s-.3 2.5-.8 2.1a3.4 3.4 0 0 1-.2-3zm358.7-9.7c2-2 2.4 3.4.5 7.9-.9 2.3-1.2 2-1.7-1.6s.2-5.3 1.2-6.3zm15.9-.7c0-1.5 1.7-4.8 3.9-7.5s3.8-4.3 3.9-1.4-5.3 11.7-7.2 11.7c-.3 0-.6-1.2-.6-2.8zm-205.9-.7c.4-1.3.8-.9.9 1s-.3 2.5-.8 2a3.1 3.1 0 0 1-.1-3zm-89.8-2.1a19.2 19.2 0 0 1 .6-9.1l1.7-5v5.5a44.7 44.7 0 0 0 1.2 9.1c.5 2 .2 3.5-.8 3.5s-2.2-1.8-2.8-4zm-32.5-.2c-3.1-5.9-5.4-21.8-3-20.3s8.6 24.5 6 24.5c-.5 0-1.8-1.9-3-4.2zm-47.5-2.4c1.2-4.3 1.9-5.2 2.9-4.3s-1 7.8-2.6 7.8-.9-1.6-.3-3.5zm158.2-1.3a1.5 1.5 0 0 1 1.6-1.5 1.4 1.4 0 0 1 1.6 1.5 1.5 1.5 0 0 1-1.6 1.6 1.5 1.5 0 0 1-1.6-1.6zM207.8 300c0-2.5.6-4 1.5-3.4s1.6 3.9 1.5 7.5c0 5.2-.3 6-1.5 3.5a27.7 27.7 0 0 1-1.5-7.6zm426.2 2.6c3.5-14.4 17.2-35.2 23-35.2 4.1 0 3.9.3-18.1 34.4-4.1 6.3-6.4 6.6-4.9.8zm12.7-.8a23.3 23.3 0 0 1 5-7.5l3.9-4-2.7 5.5c-4.4 9-8.3 12.7-6.2 6zm-357-.4a4.2 4.2 0 0 1 1.6-3.3c.8-.5 1.6.6 1.6 2.3s-.8 3.3-1.6 3.3-1.6-1.1-1.6-2.3zm312-.1c0-2.7 5.8-11.8 7.4-11.8s2.6 2.8-1.1 8-6.3 6-6.3 3.8zm-428.6-3.2c0-2.6 2.4-3.1 3.9-.7s-.6 5-2.5 3.8a3.8 3.8 0 0 1-1.4-3.1zm219.5-4.2c.5-1.3.9-1 1 .9s-.3 2.6-.8 2.1a3.3 3.3 0 0 1-.2-3zm200.9-3.2c1.1-1.1 1.9-1.2 1.9-.3s-1.9 4-3 3 0-1.6 1.1-2.7zm-229.7-6c0-5.2.7-9.4 1.5-9.4s1.6 4.2 1.6 9.4-.7 9.5-1.6 9.5-1.5-4.3-1.5-9.5zM181 286.2c0-1 .6-1.2 1.6-.7a3.2 3.2 0 0 1 1.5 2.6c0 .9-.6 1.2-1.5.6a3.1 3.1 0 0 1-1.6-2.5zm411.1-9.8c4.5-9.9 9.7-16.4 7.4-9.3-1.3 3.9-11 20.6-11.6 20s1.6-5 4.2-10.7zm-252 1.3c0-6.3.7-10.3 1.8-10.3s1.4 2.9.8 8.3-.9 9.1-.9 10.2-.4 2-.9 2-.8-4.6-.8-10.2zm185.4.3c1.1-5.7 1.7-6.8 3.1-5.4s-.9 10.6-2.7 10.6-.9-2.4-.4-5.2zm-123.2-3.2c2.7-21.3 5.7-32.6 8.6-32.6s.7 7.2-3.2 23.6-4.2 17.4-5.5 17.4-.4-3.8.1-8.4zm-98.3 4a23.8 23.8 0 0 1 1.3-7.4c1.2-2.8 1.3-2.7 2.2.9s-.2 10.9-2.2 10.9-1.4-2-1.3-4.4zm276.5-2.1c1.3-2.7 2.8-4.5 3.3-4.1s-2.9 9-4.4 9-.3-2.2 1.1-4.9zm40.7-5c2.4-5.9 5.7-9.1 5.7-5.5s-6.2 12.8-7.2 11.8.3-3.3 1.5-6.3zm-192.8 5.2a1.5 1.5 0 0 1 1.6-1.6 1.4 1.4 0 0 1 1.5 1.6 1.4 1.4 0 0 1-1.5 1.5 1.4 1.4 0 0 1-1.6-1.5zm-70.9-10.6c1.5-2.5 1.6-2.4.8 1.1s-.9 5-1.1 6.3-.5.8-.8-1.1a9.8 9.8 0 0 1 1.1-6.3zm158.6-6c3.2-8.5 8.1-12.2 6.2-4.7-1 3.9-7.4 13.5-8.5 12.7s.8-3.9 2.3-8zm91.7 1.9a74.8 74.8 0 0 0 3.4-7.9c1.7-4.9 5.6-7.1 8-4.7s-.7 4.4-5 9.6c-6.7 8.2-9.8 9.7-6.4 3zm-136.9 3c0-.3 1.5-1 3.2-1.4s3.1-.2 3.1.6-1.4 1.4-3.1 1.4-3.2-.2-3.2-.6zm64.6-4.2c0-1.7.8-2.8 1.6-2.3a4.2 4.2 0 0 1 1.6 3.3c0 1.2-.7 2.3-1.6 2.3s-1.6-1.5-1.6-3.3zm-201-8.9c.7-1.7 1.6-2 2.6-.9s.9 3.1-.4 6.1-2.1 4.3-2.6.9a15.1 15.1 0 0 1 .4-6.1zm161.7-6.7c1-1.9 2.2-3.2 2.6-2.7s0 2.3-1.1 4.2-2.2 3.1-2.7 2.7.1-2.4 1.2-4.2zm-99.3-3.4c2.8-6.5 3.9-4.4 1.5 2.9-1.1 3.3-2.3 5-2.7 3.9s.1-4.1 1.2-6.8zm76.6-1.7c1-5.3 6.6-14.6 8-13.2s-5.8 18.3-8.2 18.3c-.4 0-.4-2.3.2-5.1zm-51.4-4.1c0-5 4.9-19.2 6.6-19.2s.5 14.3-2.7 23.3c-1.2 3.3-3.9.5-3.9-4.1zm125.4-1.3c-2.5-.9-3.6-10-1.2-10s5 6.7 5 9.4-.5 1.9-3.8.6zm-45.9-8.5c5.1-9.8 7.6-6.3 3.1 4.5-2.1 5-2.6 5.4-4 3s-.8-4.2.9-7.5zm13.5 4.3c.1-3.8 4.2-10.1 5.6-8.7s-3.4 12.3-4.9 12.3-.7-1.6-.7-3.6zm-103.8-3.2c1.1-2.2 2.1-2.7 2.5-1.4 1 3-.8 7-2.8 5.9s-.9-2.1.3-4.5zm44.3-4.5c.5-1.3.9-1 1 .9s-.3 2.6-.8 2.1a3.3 3.3 0 0 1-.2-3zm4.5-11.4c-2.2-2.6-.7-7.2 2.3-7.2s4.2 2.7 3 6.3-2.9 3.9-5.3.9zm42.2-7.7c2.8-2.8 3.8-.2 1.5 3.9s-2 3.4-2.6.8a6.1 6.1 0 0 1 1.1-4.7zm-58.2 2.9c0-.4.7-1.1 1.6-1.6s1.6-.3 1.6.7a1.6 1.6 0 0 1-1.6 1.6c-.9 0-1.6-.3-1.6-.7z"></path><path d="M501.8 708.4c6.4-1.6 14.9-10 20.9-20.5 4.6-8.2 9.2-26.6 7.3-29.7-.5-.8-3.6-1.5-6.7-1.5s-12.3-2.8-20.7-6.4c-15-6.5-20.9-7.3-21.4-3.1-2.3 16.5-2.3 25.8 0 37.8 4 21 8.8 26.5 20.6 23.4zm.9-25c3.1-7 6.4-7.3 3.4-.3s-4.1 9.2-4.9 7 .3-4 1.5-6.7z"></path><path d="M529.2 620.7c0-9.5-12.4-20.9-22.7-20.8-3.4.1-11.9 6.6-11.9 9.2s8.8 9.4 15.9 13a33.7 33.7 0 0 0 12.4 3c5.9 0 6.3-.2 6.3-4.4z"></path><path d="M221.4 447.5c14.4-30.7 17.4-39.3 18.8-55.4.9-9.2.6-11-2.5-14.8-5-6.4-9.7-5.7-16.2 2.3a97.4 97.4 0 0 0-9.7 15.9c-4.2 8.7-4.3 9.7-3.6 29.1.5 15.1 1.4 21.8 3.7 26.8s3.3 6.7 3.7 6.7 3-4.7 5.8-10.6z"></path><path d="M342.2 450.2c7.1-5.3 10-9 15.9-20.2 9.5-17.9 3-39.1-10.9-35.6s-26.1 43.3-17.4 56.6c3.2 4.9 5 4.7 12.4-.8zm3.1-34.3c.5-1.5.8-.7.8 2s-.3 3.9-.8 2.8a9.7 9.7 0 0 1 0-4.8z"></path><path d="M431.2 427c1.6-2.4 4.3-6.9 5.9-9.9s6.6-11.3 11.3-18.4c9.2-14 15.9-27.5 16.6-33.4.4-3.2-1-4.3-10.6-8.4-6.2-2.6-13.7-5.5-17.1-6.5-5.4-1.6-6.3-1.5-8.3 1.2a14 14 0 0 0-2.2 6.7c0 1.9-1.5 9.8-3.3 17.4-2.7 11.5-3.1 16.5-2.3 29.4s3.8 26.2 6.2 26.2c.5 0 2.2-2 3.8-4.3zm12.9-63.5a1.6 1.6 0 0 1 1.7-1.5c.9 0 1.2.6.7 1.5s-1.2 1.6-1.6 1.6-.8-.6-.8-1.6zm-8.1-6.6c1.1-1.1 1.8-1.2 1.8-.3s-1.9 4-3 3 0-1.6 1.2-2.7z"></path><path d="M478.9 343.7c3.6-4.4 3.9-23.3.5-31.1s-5.8-10.4-12.4-12.3-12.5.5-18.6 5.5c-2.3 1.8-10.6 21.3-10.6 24.8 0 .5 2.6 1.4 5.6 1.9 6.3 1 24.9 8.2 30.1 11.5 2.8 1.9 3.6 1.8 5.4-.3zM466 323.1c2.5-4.7 3.2-5.3 3.3-2.6.1 5.7-2.9 12.3-4.8 10.4s-.8-3.5 1.5-7.8zm-23.4.3c0-.4.6-1.1 1.5-1.6s1.6-.3 1.6.7a1.6 1.6 0 0 1-1.6 1.6c-.9 0-1.5-.2-1.5-.7z"></path><g fill-rule="evenodd"><path d="M526.7 1024c-11.3 4.3-10.9 4.2-14.1-8-5.1-19.9-7.9-40.3-13-60.3-1.8-7.4-3-15-5.5-22.2-1.3-3.7-.6-7.5 3-9.6s6.3 1.6 7.8 4.4c7.9 15.3 16.3 30.3 23.4 46 5 10.9 10.1 22 15.8 32.6 2.8 5.1 1.9 7.9-2.7 11.1s-9.3 3.8-14.7 6z"></path><path d="M562.6 984.4c-4.9-8.8-8.7-19.5-13-29.9-5.5-13.4-11-26.7-16.6-40-.7-1.8-1.1-3.6 1-4.8s3.4-.4 4.8 1.1c17.4 18.3 36.8 34.6 54.7 52.3 1.7 1.6 2.3 3.1 1.6 5.3-3.7 11.8-12.1 19.3-22.5 24.9-3.6 1.8-7.7-1.7-10-8.9z"></path><path d="M457.5 948.9c-.1.6 0 1.6-.2 2.6-2.6 14.3-1.3 28.6.8 42.8 1.4 10.2 2.7 20.5 2.5 30.8 0 4.8-2.3 6.1-6.6 3.8l-18.7-9.9c-8.2-4.4-8.9-5.5-6.4-14.7a153.2 153.2 0 0 1 5.3-14.8c5-12.8 7.3-26.5 14-38.6 1.5-2.6 3-4.1 5.9-4.4s2.6.6 3.4 2.4z"></path><g><path d="M242.9 22.3c2.9 13 4.7 26.4 8.9 38.9s4.6 25.7 9.9 37.7c2.1 4.7.1 11.4-3.9 13s-8.1-1.7-10.6-5.6c-3.8-5.8-5.3-12.6-7.7-19-6.2-15.8-11.5-31.9-16.8-48a163.8 163.8 0 0 0-8.4-21.4c-2.5-5.1-3.3-9.5 2.4-13.5s15.4-5.9 19.1-2.6A10 10 0 0 1 238 6c1.6 5.4 3 10.9 4.5 16.4z"></path><path d="M320.2 1.4c2.6-.4 5.1-1.1 7.7-1.4s7.8 3 7.4 6.9c-2.5 25.9-.5 52.1-5 77.9-.9 5-2 9.4-7.2 11.6-3.5 1.5-5.6.5-5.9-3.3-.8-15.7-1.8-31.4-1.7-47.2.1-8.4.5-16.8-1.2-25.2-1.1-5.4 1.5-10.7 1.9-16.1.1-1.6 2.1-2.8 4-3.2z"></path><path d="M157.8 55.4c4.4 8.5 9.3 18.1 14.6 27.5s7.5 21.8 14.7 31.1c1.6 2.1 2.9 4.4 4.5 6.5 4.1 5.4 2.9 10.1-3.2 13-2.3 1-3.5.6-5.1-1.4-6.8-8.3-11.7-17.8-17.3-27s-12.5-21.6-18.9-32.3a72.7 72.7 0 0 1-8.1-21.5c-.9-4.3 2.2-7.3 6.7-6.7s11.4 2 12.1 10.8z"></path><path d="M424.7 34.3a5.8 5.8 0 0 1-.3 4.8c-11.2 19.5-17.2 41.1-26.1 61.6-1.4 3.2-3.1 6.4-6.9 5.2s-8.4-3-8.4-8.7 2.6-12.7 4.7-18.7c4.5-12.7 7.3-26.1 14.8-37.6 1.4-2.1 1.7-4.5 2.5-6.7 1.6-4.9 4.2-8.8 9.9-9s7.6 5 9.8 9.1z"></path><path d="M83.3 109.4c4.2 2.2 9.3 4.1 13.5 7.3 11.4 8.8 22.4 18.3 33.7 27.4 2.3 1.9 5 3.8 7.8 4.5 4.7 1.3 3.9 3.2 1.9 6.4-4.8 7.6-9 8.3-16.6 4.3-14.5-7.6-26.8-17.8-38.4-29.1a13.1 13.1 0 0 0-4.7-2.7c-4.4-1.6-5.7-5.2-5.3-9.2s3.7-6.5 8.1-8.9z"></path><path d="M83.8 198.3c1.6 5.9-4 11-10.4 9.6a88.9 88.9 0 0 1-16.2-4.8c-13.2-5.6-26-12.1-37.5-20.8-4.7-3.5-5.3-7.5-2.4-11.7s3.9-2.8 6.7-1.5c18.9 8.6 37.8 17.2 56.8 25.6 2 .9 2.9 2 3 3.6z"></path><path d="M446.6 122.6c-2.7.1-5.2-.5-6.8-2.3s-1.1-4.5-.1-6.8c7.5-17.1 18.6-31.9 30.3-46.3a6.1 6.1 0 0 1 5.6-2.5c4.6 0 8.8 3.4 9.7 6.1s-1.3 8.8-4.1 12.5-4.7 4.4-7 6.7c-8.8 8.7-15.8 18.9-23.5 28.5-1.2 1.6-2.2 3.4-4.1 4.1z"></path></g></g></g></g></svg>