<svg xmlns="http://www.w3.org/2000/svg" width="737.8" height="1080" viewBox="-0.03287991136312485 0.009836792945861816 737.7994384765625 1079.9886474609375" style=""><g><g fill="#b6e6fa" data-name="Layer 2"><path d="M546.8 24.8l2.9 3c1.3 2.2 2.2 4.4 1 7a2.5 2.5 0 0 0 .4 2c2 3.3 2.1 7.2 3.1 10.9.2.8.5 1.6 1.6 1.8 4.7.8 5.1 1 5.8 5.5s.9 7.4 1.2 11.1a118.1 118.1 0 0 1 .4 14.6 27.2 27.2 0 0 1-1.7 8.1c-2.8 7.7-7.6 14.5-10 22.4s-7.8 15.3-11.6 23.1-8.2 15.3-12.5 22.9a28.9 28.9 0 0 1-13.4 12.9c-5.6 2.6-9.3 6.6-12.9 11.2-1 1.3-2.4 2.4-3 3.9-3.2 7.5-7.7 14.4-11.3 21.8-2.1 4.5-5.2 8.6-6.6 13.4-3.4 11.3-6.7 22.6-9.9 34s-8 24.1-11.7 36.2c-2 6.5-4.9 12.7-6.5 19.4s-4 12.6-6 18.9c-2.5 8.6-4.8 17.2-7.6 25.6s-4.4 15.5-7 23.1a42.6 42.6 0 0 0-1.4 6.3c3.8-3.5 6.1-7.5 9.1-10.9s3.9-3.8 5.4-6a132.8 132.8 0 0 1 12.6-14.3c4.2-4.3 7.8-9 11.7-13.3s4.7-6.3 7.5-8.9 4.2-4.2 5.2-6.9c4.3-11.1 11.5-21 14.2-32.8.9-3.8 3.3-6.9 4.8-10.5 3.2-8 9.5-14.4 11.8-22.9l.5-.6c2.9-5.3 6.8-9.9 10.3-14.8 2.3-3.1 4.2-6.6 6.7-9.5 4.5-4.9 7.9-10.6 12.2-15.7s7.1-9.9 11.6-14.2a45 45 0 0 0 7.3-9 15.2 15.2 0 0 1 3.1-3.1c3.1-3 6.7-5.6 9.5-9s6.2-6.8 11-8a3.3 3.3 0 0 0 1.6-1.2c1.6-2.8 4.3-4.4 6.6-6.5s5.1-3.8 7.3-6.1 5.3-2.1 7.6-3.9 4.9-4.7 8.7-4.4c.1 0 .4-.3.5-.5s1.6-1.2 2.6-1.2a6.6 6.6 0 0 0 2.8-.5 11.6 11.6 0 0 1 7.1-.7c2.8.7 5.5-.5 8.4.3s4.2.5 6.2 1.4a113 113 0 0 1 15.7 9.2c2.1 1.4 4 3.2 6.5 4 6.9 2.1 12.2 6.5 16.9 11.7 1.6 1.7 2.5 3.8.3 5.9s-.3 2.1.6 2.9a5.6 5.6 0 0 1 2 5c-.1 1.6.1 3.5 2.2 4.3 4.5 1.8 6.4 5.9 4.8 10.8a1.7 1.7 0 0 0 0 1.2c2.5 4.4 1.5 9.2 1.2 13.6-.7 8.3-4.6 15.5-8.8 22.5-1.2 2-2.3 3.9-3.4 6a38.2 38.2 0 0 1-6 9c-2.6 2.8-4.9 6-8.2 8.2-.4.2-.6.8-.8 1.3-1.4 4.6-4.4 8.3-7.8 11.7a49.4 49.4 0 0 0-6.2 7.5 18.7 18.7 0 0 1-7 6.7 9.9 9.9 0 0 0-3.3 2.8c-3.4 3.5-6 8.1-11 9.9a9.5 9.5 0 0 0-3.9 3 19.1 19.1 0 0 1-8.9 5.6 4.8 4.8 0 0 0-2.6 1.6 16.4 16.4 0 0 1-9.9 7.4c-1.6.3-3.2.7-4.2 2.3-2.8 4.7-7.2 7-12.5 7.9a3.9 3.9 0 0 0-3.1 2c-2.3 3.8-6.1 5.7-10.2 6.6a18.9 18.9 0 0 0-5.8 2.5c-6 3.4-12.1 6.7-19 6.8a191.2 191.2 0 0 0-27.3 2.7l-10.2 1.5c-2 .2-3.4 1.7-5.4 1.8a26.6 26.6 0 0 0-10.7 3.6 73.2 73.2 0 0 1-12.2 5.4 199.4 199.4 0 0 0-28.4 13.5c-3.9 2.2-7.4 5.3-11.1 7.9-8.1 5.6-15.2 12.4-22.8 18.7a8.3 8.3 0 0 0-2.3 3.7c-3.2 10.9-8.4 21-12.4 31.6s-8.7 21.1-13 31.6c-2.1 5.1-4.2 10.1-5.9 15.2s-3.8 9-5 13.6c-1.9 7.2-4.7 14.1-6.9 21.2s-4.3 13.3-6.3 20c-2.6 8.6-5.5 17.1-7.8 25.8-.5 1.9-1.1 3.8-1.8 6.2 2.9-2.4 4.2-5.3 6.3-7.6 5.2-5.6 10.2-11.3 15.1-17.1a205.8 205.8 0 0 1 20.4-20.3c3.6-3.3 7.7-5.9 11.4-9.1 6.7-5.6 13.2-11.4 20.1-16.8 8.6-6.7 17.8-12.5 26.2-19.4 2-1.7 4.6-2.7 6.2-4.8a23.8 23.8 0 0 1 4.3-4.1c3.5-2.6 7.6-4.8 10.3-8.1s7.4-6.6 10.7-10.3 7.6-6.1 11.1-9.4 6.7-3.8 9.7-6.4 6.9-5.4 9.8-9 7.9-6 11.4-9.7a82.7 82.7 0 0 1 9.5-8.1c4.3-3.5 8.3-7.5 12.8-10.9 2.7-2 5.1-4.6 8.4-5.8a3.4 3.4 0 0 0 1.8-2.1c1.2-2.4 3.3-3.9 5.2-5.7s5-2.4 7.2-4.3 2.2-2.6 3.4-3.8c8.5-9 19-15.8 27.4-25 3.3-3.6 5.5-8.1 9.8-10.9 7.3-4.6 13.2-11.2 21.3-14.8l12.2-5.5c5.3-2.5 10.7-1.2 16-1.8s7.8 1 11.6 2.7a164.5 164.5 0 0 1 18.4 10.1 7.6 7.6 0 0 0 2.6 1.1 33.2 33.2 0 0 1 11.6 5c3.6 2.6 7.4 5 10 8.9.7 1.2.8 2-.4 2.8s-1.7 3.1.1 4.6 2.9 2.1 2.9 3.9 1.2 3.2 2.8 4.1a9.1 9.1 0 0 1 5 6.3c1 5.2 1.7 10.4 2.5 15.7.2 1.1 0 2.3.3 3.3a12.7 12.7 0 0 1-.6 7.2c-1.1 3.5-2.6 6.9-3.9 10.4a29.5 29.5 0 0 1-4.1 7.6c-2.2 2.8-5.3 4.9-6.6 8.3a7.9 7.9 0 0 1-3.4 4.2 6.4 6.4 0 0 0-2.9 3.4 12.8 12.8 0 0 1-3.4 4.5 23.8 23.8 0 0 0-3.2 3.8 6.4 6.4 0 0 1-2.8 2.6c-2.6 1.4-5.4 2.3-7.5 4.7-4.6 5.4-12.3 6.5-17 11.9a4.5 4.5 0 0 1-1.2.6c-7.7 3.6-14.2 9.3-21.8 13.2-5 2.6-9.8 5.7-15.7 6.4a5.6 5.6 0 0 0-2.9 1.4c-3.1 2.7-6.6 5-10.9 5.5a20.9 20.9 0 0 0-8.7 2.9c-6.1 3.8-13.4 4.8-19.9 7.8-3.8 1.8-8.2 1.8-11.9 4a9.6 9.6 0 0 1-4.7 1.4 11.6 11.6 0 0 0-6.2 2.2 9.7 9.7 0 0 1-4.8 2c-5.8.3-11.2 2.8-16.1 5.4s-10.2 4.1-15.4 5.7c-6.9 2.1-13.5 5.5-20.9 5.9-.4 0-.9.4-1.4.6a25.8 25.8 0 0 1-5.4 2.3c-4.3 1.5-8.8 2.3-12.8 3.9s-9.8 3.8-14.7 5.7c-9.5 3.8-19.1 7-28.5 10.9s-18.9 7.6-27.9 12.5c-6.2 3.3-12.9 5.6-18.8 9.3-10.4 6.3-20.5 13.1-30.5 19.9-6.1 4.2-12.8 7.2-19 11.2a96.1 96.1 0 0 1-9.5 5.2 6.8 6.8 0 0 0-3.4 4.4c-1.6 6-4.2 11.7-6.4 17.5-3 8-5.5 16.3-9.4 24.1s-6.6 16.8-10.4 25-5.9 15.3-8.9 22.9a17.7 17.7 0 0 1-1.2 3.7c-2.6 5-4.1 10.5-6.8 15.5s-3.5 8.7-4.8 13.1-2.4 6.9-3.5 10.3-3.1 9.7-5.1 14.4c-1.1 2.5-1.9 5.2-2.9 7.8a7 7 0 0 0 3-1.2c4.5-3.2 9.1-6.2 13.5-9.5a138.8 138.8 0 0 0 14.4-12 128.3 128.3 0 0 1 18.4-14.4c4-2.8 8.2-5.1 11.8-8.3s6.4-5.1 9.6-7.4 7.8-5.4 10.9-9 10.2-8.1 15-12.6 6.8-6.2 10.4-9.1 7.2-6.9 11.3-9.8 9.9-6.6 14-11a82.7 82.7 0 0 1 12.1-10.8c4.6-3.3 8.8-7.4 14.1-9.8a10.1 10.1 0 0 0 3.6-2.5c1.7-1.8 4.2-2.4 5.9-4.3 3.7-4.2 7.2-9 12.2-11.6s7.7-5.8 11.7-8.5 7.8-5.3 12.5-6.5a6.4 6.4 0 0 0 1.9-.8c6.5-4.4 11.9-10.2 18.8-13.9s10.4-6.6 16.1-9a6.5 6.5 0 0 0 1.6-1.3c2.9-2.4 5.2-5.5 8.7-7.5a75.3 75.3 0 0 1 7.3-4.1c5.2-2.4 9.2-6.4 13.9-9.4.4-.3.8-.9 1.2-1 3.3-.8 5.8-3.3 8.8-4.7 4.6-2.2 8.8-5.2 13.9-6.7s10.4-3 15.5-4.8c2.9-1 5.3-3.1 8.4-3.6s4.9-.3 7.1-.8c9.1-2.5 17.6-.5 26.2 2.7s15.9 8.4 25 10.1c6 1.1 11.1 4.8 16.3 7.9s6.6 6.5 5.7 11.9a2.4 2.4 0 0 0 .9 2 9.5 9.5 0 0 1 2.9 5.6c.4 2 .5 5.1 3.7 5.5a9 9 0 0 1 7.8 10.8c-.2.7-.6 1.4.1 2.1s2.4 4.5 2.6 7.1a13.9 13.9 0 0 0 .8 4.6 15.3 15.3 0 0 1 .2 9.9c-1.1 3.5-2 7.1-2.9 10.7-1.8 7-4.8 13.2-12 16.3-1.7.7-3.6 1.1-5.3 1.8a4.4 4.4 0 0 0-2.5 1.7 21.5 21.5 0 0 1-13.5 10.5 32.4 32.4 0 0 0-8.2 3.8c-3 1.9-5.8 3.7-8.7 5.7s-6 1.9-8.5 3.6c-5.1 3.6-11 5.3-16.7 7.6a17.1 17.1 0 0 0-4.2 2.6c-3.4 2.7-6.9 5.4-11.3 6.3-2.4.6-5 .8-6.9 2.8a24.2 24.2 0 0 1-6.4 4.6c-6.7 3.7-13.4 7.6-20.8 9.7-3.6 1.1-7.2 2-10.8 3.4s-4.4 3.1-7.1 4.1c-6.9 2.5-14.3 3.6-20.9 6.9a19.8 19.8 0 0 1-3.9 1.3c-5.2 1.3-10.4 2.6-15.3 5.1s-6.8 4-10.6 5.2c-5.9 1.8-11.8 3.5-17.8 5s-13.6 2-20.5 2.5-15.3 2.3-23 3.1c-4.3.4-8.3 1.9-12.5 2.1-7 .3-13.9 1.8-20.7 2.9-5.2.8-10.4 1.9-15.6 2.3-11.7.7-23.1 3-34.7 4.3-7.1.8-14 2.6-21.1 3.7a107.1 107.1 0 0 0-23 6.2c-12.6 5.1-25.2 10-36.6 17.6-2.9 1.9-5.6 3.9-7.4 7.3s-3.3 9.5-5.8 13.9c-3.6 6.4-4.8 13.7-8 20.3s-5 11.1-7.6 16.6-6.4 13-9.5 19.6c-2.3 5-4.7 10-6.5 15.2-2.4 6.8-5.7 13.3-8.2 20.1-1.6 4.3-4.2 8.1-5.8 12.3-3.1 7.7-7.5 14.8-10.1 22.7-1.5 4.4-3.8 8.5-5.3 13.4a83.1 83.1 0 0 0 11.5-10.3c2.9-3.1 5.7-6.2 8.8-9.1s5-4.8 7.3-7.4a133 133 0 0 1 12.5-12.4c5.2-4.2 10.6-8.5 16.6-11.8s8.5-6.9 13.4-9.6a65.5 65.5 0 0 0 11.5-8.9c3.4-3.1 7.1-5.8 10.2-9.2a43 43 0 0 1 11.9-9.3c5.3-2.7 10.9-4.9 15.7-8.5 1.3-.9 1.8-2.5 3.3-3.2 3.6-1.7 7.1-3.7 10.7-5.5 5.7-2.9 11.6-5.3 17.1-8.6a95.1 95.1 0 0 1 9-4.6c3.6-1.9 7.5-3.4 10.7-6.1.8-.7 2 .6 2.9-.3 2.5-2.8 6.3-3.5 9-5.9.9-.8 2.2.6 3.2-.4 2.5-2.5 5.9-3.3 8.9-4.9 7.7-3.9 15.8-7 23.5-11s13.7-5.3 20-9.3 12.9-6.5 19.3-9.8c3.7-1.8 7.9-2.5 11.3-4.8 7.7-5.2 16.3-8.2 25-10.9 5.8-1.8 11.8-3.2 18-2.8 3.7.3 7.4-.9 11.1-.4a137.3 137.3 0 0 1 21.9 5.4c2.3.7 4.7 1.7 7 1.7 3.9-.1 7.6.8 11.3 1.6a47.8 47.8 0 0 1 15.2 6.6c2 1.2 3.1 3 1.8 5.5s-.2 2.9 1.5 3.7a7.1 7.1 0 0 1 4.6 5.2c.3 1.3 1.5 2.5 2.3 3.7s2.2 2 4 1.2a3.2 3.2 0 0 1 4.1 1.4c1.7 2.7 4.4 5.1 3.5 8.9a1 1 0 0 0 .2.9c3 2.2 3.2 5.7 4.6 8.8s3.1 9 2.3 14c-1.2 7-.7 14.2-3.9 20.7l-8.8 8.9c-2.9 1-5.1 2.7-5.9 5.9l-10.2 10.3a75.6 75.6 0 0 1-12.9 6c-9.1 2.8-18.4 5.1-27.6 7.6s-18.4 5.9-27.8 8.4c-6.6 1.8-13.1 4.7-19.8 6.7s-13.4 4.5-20.3 6.2-14 4.1-21.1 6c-9.8 2.6-19.4 5.9-29.3 8.4-5 1.2-10.1 2.3-15 3.9a88.8 88.8 0 0 1-14.6 3.5c-7.4 1.2-14.9 1.9-22.3 3.6a177.6 177.6 0 0 1-20.3 4c-12.3 1.3-24.6 2.5-36.7 5s-22.9 4-34.4 5.6-25 5.9-36.8 11a195.9 195.9 0 0 0-25.1 13.6c-12.4 7.6-23.9 16.2-33.9 27-4.9 5.2-8.1 11.4-11.2 17.7-2.1 4.4-2.9 9-3.6 13.7s-2.3 7.4-7.6 6.4c-.9-.2-1.3.2-1.8.9-1.8 2.5-2.7 5.4-4.2 8a264 264 0 0 0-11.8 25.3c-2 5.3-7.6 8.9-12.1 7.8l-3.7-3.7c-1.8-5-2.5-10.2-.9-15.4a138.8 138.8 0 0 1 7.2-18.9c3.6-7.3 6.6-14.8 9.8-22.3s7.3-17.7 11.1-26.5c2.6-6.1 4.3-12.4 7.1-18.3.7-1.5.7-2.5-1.4-3-8.3-1.7-10.8-10.3-9-16.9a11.6 11.6 0 0 0-.2-6.9c-1-2.8-1.8-5.6-2.8-8.4a80.2 80.2 0 0 0-8.5-17.1c-6-9.2-12.3-18.1-18.5-27.1-3.1-4.4-5.2-9.4-8-13.9-3.8-6.1-7.3-12.4-12-18-2-2.3-3.5-5-6-6.7a48.6 48.6 0 0 1-11-10.7 214 214 0 0 0-22.6-25.9 57.4 57.4 0 0 1-12-16c-3.9-7.9-8.7-15.4-10.7-24.1a5.4 5.4 0 0 0-1-2c-2.6-4.5-5.7-8.8-7.1-13.8-.8-2.4-1.6-4.9-3.3-6.7-4.6-4.9-7.5-11-11.1-16.5-6.1-9.3-11.9-18.8-17.4-28.4a53.1 53.1 0 0 1-7.4-21.4c-.5-4.5-.5-9-1.3-13.5a17 17 0 0 1 .9-9.7 13.7 13.7 0 0 0 .7-4.5 50.2 50.2 0 0 1 7-26.2c1.3-2.4 3.5-4 5.4-5.9a19.1 19.1 0 0 1 7.1-4.4c1.9-.7 3.9-1.3 5.7-2.1a35.2 35.2 0 0 1 15.1-3c6.4 0 12.6 1.7 18.8 2.5 4.3.6 8.5 2.7 13 1.4a7.7 7.7 0 0 1 2.6.1c5.7.3 11.2 2 16.6 3.7 3.6 1.2 6.6 2.9 8.5 6.3a96 96 0 0 0 7.9 12.4c1.3 1.6 2.6 2.7 4.7 2.5a6.7 6.7 0 0 1 6.3 2.9c1.5 1.9 3.4 3.7 4.2 5.9 2.7 7.3 8.4 12.9 10.7 20.3a1.6 1.6 0 0 0 .4.7c2.2 2.5 3.3 5.6 4.6 8.6 3.1 6.9 6.1 13.8 9.3 20.6a23.9 23.9 0 0 1 2.2 5.2 82.7 82.7 0 0 0 6.6 21 21 21 0 0 1 1.9 9.3 32 32 0 0 0 1.6 13.1c1.3 3.5 1.3 6.9 1.3 10.4a15 15 0 0 1 .2 2c.3 7.5.9 14.9.8 22.3 0 5.7.7 11.2.8 16.8.1 7.3.7 14.5.3 21.8-.2 3.5-1.5 6.8-1 10.3a90.4 90.4 0 0 0 3.5 15.6c1.2 3.5 1.5 7.3 3.3 10.6 3.1 5.5 4.5 11.6 6.6 17.4.8 2.3 1.3 4.7 2.6 6.8 3 5.1 3.9 10.9 5.5 16.5s2.3 10.6 3.3 16c0 .4 0 .9.5 1s.8-.4.9-.8c1.3-6.1 4.6-11.3 6.8-17l6.3-15.4c5.1-12.8 10.2-25.6 15.1-38.5 2.8-7.3 5.7-14.6 8.8-21.8s6.2-13.3 9.2-20c1-2.5 1.4-5.2 2.3-7.7 2.1-5.9 4.3-11.7 6.4-17.5 2.8-7.7 4.7-15.6 7.9-23.1.4-1 .7-1.9-.6-2.3s-2.9-3.1-3-5.4.2-3.8-.2-5.7c-1.3-6-2.5-12-3.9-18-3.3-14-6.6-28-11.5-41.6a77.2 77.2 0 0 0-17.4-27.4c-3.2-3.4-7.1-6.1-10.3-9.5s-9.7-7.8-14.4-11.8-11.4-10-17.6-14.4c-2.9-2.1-5.5-4.8-8.6-6.6-5.9-3.4-11-8.1-17.5-10.6a9.1 9.1 0 0 1-2.4-1.6c-7-5.2-12.4-12.1-19-17.7-3.8-3.2-6.2-7.7-9.4-11.4a57.6 57.6 0 0 1-8.2-10.9c-1.3-2.4-2.3-4.9-3.9-7-4.9-6.3-9.3-12.7-13.6-19.3-2.4-3.6-3.3-7.8-6-11.2s-5.1-8.8-7.1-13.4a55.6 55.6 0 0 0-6.7-12.2c-6-8-11.8-16-16.5-24.9-7-13.4-8.5-27.6-7.5-42.3.2-3.9 2.8-7.1 2.7-11a11.4 11.4 0 0 1 .6-4.6c2.7-5.6 3.6-11.8 8.4-16.5a39.5 39.5 0 0 1 11.4-8.1c2.4-1.1 5.2-.6 7.4-1.8a18.3 18.3 0 0 1 5.9-1.8c9.5-1.6 18.3 1.6 27.2 4 2.9.8 5.7 2.6 8.9 2.5 6.3 0 12.2 1.7 18 4.2 4.2 1.8 8.7 3.4 10.8 8.2a9.6 9.6 0 0 0 3.6 3.3 5.8 5.8 0 0 1 3.1 5.3c0 4.2 1 5.4 5.1 6.7a6.2 6.2 0 0 1 3.5 2.7c1.4 2.1 2.7 4.3 4.9 5.7s5.7 5.2 5.5 9.6a3.1 3.1 0 0 0 .5 1.7c4 4.8 4.8 10.9 7.1 16.5s4.1 11.5 6 17.4 5.7 13.9 7 21.4c.3 1.9.3 4 1.2 5.8 2.1 4 2.5 8.4 3.5 12.7s1.8 11.6 4.3 17a38 38 0 0 1 3.4 9.8 27.3 27.3 0 0 0 2.2 7.9c1.5 3.1.9 6.7 2.6 9.7 4.6 8.4 6.1 17.6 7 26.9.8 7.7-.1 15.4-1.6 23-.6 3-.6 5.9 1.5 8.4 5.1 5.9 10.2 12 15.2 18.1s8.4 10.6 11.5 16.6c6.3 12.1 11.1 24.8 13 38.5.3 2.2.9 4.3 1.3 6.5 1.3 7.2 2.8 14.4 3.3 21.8a2.8 2.8 0 0 0 .9 2.6c.6-2 1-3.8 1.6-5.5 2.1-5.6 4.6-11 6.4-16.7 3.8-11.5 8.9-22.5 13-33.8s10-24.1 15-36.2c4.2-10.3 8.5-20.6 12.3-31.1s8.7-24 13.4-35.9a2.4 2.4 0 0 0 0-2.2c-.9-2.4-2.1-4.9-2.2-7.4a66.9 66.9 0 0 0-3.1-17.2c-1.1-3-2.1-6.1-2.9-9.2a102.1 102.1 0 0 0-8.3-20.6c-2.4-4.2-5.3-8.1-7.4-12.4-4.9-9.9-10.8-19.3-15.8-29.2-2.5-4.9-6.2-9.1-9.6-13.4a71 71 0 0 0-10.9-11.7c-2.5-2.1-5.3-3.8-7.8-5.9s-3.8-4-6.4-5.3c-4.6-2.3-8.1-6.1-12.2-9.2s-7.2-7-11.2-10.2-5.5-4.5-7.6-7.3c-4.2-5.7-7.8-11.7-12.5-17.2a87.1 87.1 0 0 1-11.4-17.2 39.4 39.4 0 0 0-4.1-7.2c-3.9-5.3-7.8-10.8-10.5-16.8s-5.9-10.8-7.7-16.6a38.2 38.2 0 0 0-4-8.7c-2.6-4.1-5.4-8.1-6.6-12.9a6.5 6.5 0 0 0-2.4-3.5 28.5 28.5 0 0 1-5-6c-3.7-5.7-7.2-11.6-10.7-17.4-5.2-8.6-7.3-17.8-8-27.6-.5-7.1 1.5-14.1 1.9-21.1.2-2.2.3-4.6 1.8-6.4a14.2 14.2 0 0 0 2.6-6.2 29.4 29.4 0 0 1 2.7-8.9c3.1-6.2 5.9-12.6 11.4-17.3 1.6-1.4 3.6-1.7 5.1-2.9 3.3-2.6 6.8-4.2 11.2-3.1.4.1 1.2 0 1.4-.3s2.7-1.1 4.1-1.3a41 41 0 0 1 13.9.8c6.1 1.5 11.6 4.3 17.5 6.1s8.6 4.8 13.8 4.6c1.6 0 3.2.8 4.7 1.3a100.8 100.8 0 0 1 11 5.2c4.4 2.1 8.4 4.6 10.1 9.5.2.3.4.8.8 1 4.6 2.7 4 8.9 7.9 12 .4.3.5 1.4.4 2s.5 2.5 2 3.1a4 4 0 0 1 1.8 1c2.2 3.3 5.3 6 7 9.4 2.6 5.3 6.6 9.8 6.9 16.5.2 4 3.4 8.1 5.8 11.9s3.6 5.7 4.4 9c.3 1.3-.4 2.6.3 3.8 2.4 3.9 2.4 8.7 4.7 12.6s.8 6.4 2.4 9.2a21.6 21.6 0 0 1 1.9 6.1c1.2 5 2.3 9.9 3.6 14.8s3.2 8.1 4.4 12.2c2.9 9.9 6.3 19.7 8.2 29.9a1.9 1.9 0 0 0 .2.8c2.8 3.7 3 8.3 3.9 12.6s1.2 8.6 2.2 12.6c1.8 7.3 1.5 14.3.4 21.4s-1.5 15.2.9 22.7c3.2 10.1 5.6 20.5 8.2 30.8 1.2 4.8 1.7 9.7 3.8 14.2a145.6 145.6 0 0 1 6.4 16.6c1.6 4.8 3.4 9.5 3.4 14.6.9-.1.9-.7 1-1.2 4.9-14.4 9.8-28.8 15.8-42.8 4-9.6 7.9-19.3 12.2-28.9 5.1-11.4 10.5-22.7 15.7-34.1a275.9 275.9 0 0 0 11.5-28.9c1-3.1 2.6-5.9 3.3-9.2s1.8-4.6 2.7-6.9c2.5-7.1 4.7-14.3 7.2-21.4s4.8-13 6.9-19.7c3.1-9.5 6.4-18.8 10-28.1 5.8-15.2 11.1-30.5 16.6-45.8a337.9 337.9 0 0 0 10.2-34.3c1.6-6.7 3.7-13.4 3.2-20.4-.3-4.6-.5-9.2-1.2-13.7s-1.2-11.9-3.7-17.4c-1.3-2.9-3.3-5-5.1-7.5s-3.5-8-5.1-12.1c-3.4-9.2-2.9-18.7-2.4-28.2.4-5.7 1-11.5 1.8-17.2s1.8-13.1 2.9-19.7c.6-4.3 1.9-8.5 1.4-13.1a40.3 40.3 0 0 1 .6-13.4c2.8-10.3 5.5-20.6 11.1-30 3.4-5.7 6.9-11.3 10.7-16.7a8.1 8.1 0 0 1 3.3-2.8c2.4-1.1 4.4-2.7 7-3.7s4.7-2 7-1.6 6.6-.2 9.8 0a24 24 0 0 1 7.6 1.6c7.3 3.2 14 7.4 20.7 11.7.8.5 1.4 1.4 2.3 1.6 5.5 1 9.8 4.1 14.2 7.2 1.3.9 2.3 2.3 4 2.6z"></path><path d="M276 44.2c3.5-1.6 6.3-4.2 9.9-5.6s4.8-1.9 7.5-1.4 4-.8 6.1-.9c7.8-.7 14.6 2.2 21.3 5.5 3.7 1.7 7.2 3.7 10.8 5.7a19.8 19.8 0 0 0 3.1 1.2c9.2 2.4 17.5 6.4 23.5 14.1l2 2a6.4 6.4 0 0 1 1.6 6.4 4 4 0 0 0 1 3.8 5.9 5.9 0 0 1 1.7 3.2 4.6 4.6 0 0 0 2.5 3.1 3.8 3.8 0 0 1 2.3 2.6 3.9 3.9 0 0 0 1.8 2.2 9.5 9.5 0 0 1 4.1 9.6 3.4 3.4 0 0 0 .5 2.6 41.1 41.1 0 0 1 5.7 14.5c1.2 6.5 2.9 12.9 3.7 19.5.7 4.8 2.1 9.4 3.1 14.1s1.6 12 2.6 17.9.8 14.2 1.8 21.3a118.5 118.5 0 0 1 1.2 15.7c0 6.5 1.6 12.6 1.9 18.9.3 7.9 2.4 15.7 1.7 23.6-.3 3.3 1.2 6.2.8 9.5-.7 6.2-.8 12.5-1.9 18.6a40.4 40.4 0 0 0 1.4 20.4 82 82 0 0 1 4.1 31.5c-.4 6.1-.3 12.4-1.8 18.4-.4 1.6-1 2.4-2.9 2a10.7 10.7 0 0 0-5.9-.1c-1.4.5-1.3-.7-1.5-1.7-1-6.4-2.1-12.7-3-19.1-1.2-8.6-5-16.1-9.7-23.2s-12.3-15.3-18.8-22.7a242.8 242.8 0 0 1-16.7-19.8 30.4 30.4 0 0 0-4.6-4.9c-4.7-4.1-7.8-9.5-11.7-14.1-7.2-8.3-11.4-18.4-17.3-27.4-2.2-3.3-3.2-7.1-4.8-10.6-4.4-9.5-7.3-19.7-11.9-29-2.9-6-4.8-12.3-7.6-18.2-1.9-4.1-5.2-7.3-7-11.5-.9-2.2-2.1-4.2-3.1-6.3-2.3-4.8-6.1-8.7-8.5-13.5a73.5 73.5 0 0 1-6.8-23.3c-.9-7.4.8-14.4 2.4-21.5.4-2 .2-4.2 1.1-6.1 3.4-7.7 5.7-15.9 10.8-22.7.3-.4.7-.8.6-1.4z"></path></g></g></svg>