<svg xmlns="http://www.w3.org/2000/svg" width="946.1" height="1029.7" viewBox="-0.000019097327822237276 0.027288436889648438 946.2584228515625 1029.6727294921875" style=""><g><g data-name="Layer 2"><path d="M684.6 371.6c-9.9 14.6-18.1 30-23 47.1-2.8 10-4 20.2-2.2 30.6 2.4 13.7 12.2 22.6 24.7 22.1a57.9 57.9 0 0 0 35.6-13c11.8-9.5 19.9-21.7 25.7-35.4 12.9-30.8 16.7-62.6 8.5-95.4-.9-3.4-1.1-6.1 2.1-8.8 18.9-16.1 37.8-32.1 58.9-45.2 22.9-14.2 47.2-24.3 73.8-28.8 7.3-1.2 14.8-2 22.1-3.5 5.4-1.2 8-5.8 7.3-11.1a10.1 10.1 0 0 0-9.4-8.8 23.8 23.8 0 0 0-4.6.4 240.2 240.2 0 0 0-105.4 39.7 465.1 465.1 0 0 0-45.9 35.6c-2.4 2.1-4.7 4.6-8.2 6.1-4.7-6.6-9.3-13.1-15.3-18.5-21-18.9-46-23.3-73-19.5-21.7 3.1-40.7 12.6-58.3 25.3-12.4 8.9-23.5 19.3-34.4 30-1.9 1.9-3.5 4.4-6.3 5.2-2-2.4-1.6-5.2-2.1-7.6-2.1-11.1-5.6-21.6-13.3-30.1s-19.4-13.8-32.6-11.8a86.7 86.7 0 0 0-38.7 16.4c-19.5 14.3-36.2 31.5-50.8 50.7-1.9 2.4-3.3 5.2-6.4 7.4-1.7-2.7-1.8-5.4-2.2-7.9a117.5 117.5 0 0 0-9.7-31.7 54.3 54.3 0 0 0-13.9-18.4c-11.6-9.8-22.3-10.2-34.3-1a303.4 303.4 0 0 0-78.7 88.6 209 209 0 0 0-23.2 57.9 97.6 97.6 0 0 0-2.3 16.1 7.8 7.8 0 0 0 7.2 8.5c4.5.6 8-1.7 9.4-6.2a27.9 27.9 0 0 0 .7-3.8c2.7-20 10.4-38.3 20.3-55.7 15.9-27.9 37-51.4 62-71.5 5-4.1 10.5-7.4 15.7-11.3 3.3-2.4 5.6-1.5 7.7 1.5a50.4 50.4 0 0 1 6.6 13.1 113.6 113.6 0 0 1 5.5 26.5c1.7 20.3 2.8 40.6-2.9 60.7a34.3 34.3 0 0 0-1.1 15.3 14.8 14.8 0 0 0 18.5 11.8c7.6-2.1 11.8-7.2 12.5-14.9s3.9-17.5 8-25.7a243.5 243.5 0 0 1 62.4-79 96.8 96.8 0 0 1 17.3-11.6 43 43 0 0 1 10.9-3.9c6.6-1.5 8.8-.4 11.4 5.9a52.3 52.3 0 0 1 3.9 19.6c.3 16.9-.3 33.5-10.8 48-4.3 5.9-6.8 12.8-9.3 19.6a53.9 53.9 0 0 0-3.6 14.2c-.9 9.3 3.4 16.2 11.4 18.8s14.2-.6 18.9-8.2c2.5-3.9 4.6-8.1 6.7-12.2a175.1 175.1 0 0 0 13.4-36.2 25.4 25.4 0 0 1 5.2-10.2 386.4 386.4 0 0 1 49.9-50.8 131.1 131.1 0 0 1 28.5-18.4c14.2-6.9 29.2-10.3 45-8.9 18.7 1.5 33.3 10.2 43 26.4 3.2 5.2 3.1 5.3-1.1 9.8a354.3 354.3 0 0 0-37.7 46.1zm43.6-25.1c1.1-1.2 2-2.4 3.5-2.7a2.7 2.7 0 0 1 1.7 2.5c3.1 29.6-1.3 57.6-17 83.3a48.9 48.9 0 0 1-17.6 17.1 32.2 32.2 0 0 1-10.9 3.8c-7.4 1.2-9.1 0-10.1-7.6s.4-12.8 2-19.1c3.1-11.8 8.5-22.6 14.7-33.1 9.6-16 21.2-30.5 33.7-44.2z" fill="#b0e0dd"></path><path d="M32.6 616.1c9.8-10.5 22.1-16.7 36.2-19.6a33.1 33.1 0 0 1 16.8 1.1c3.1.9 4.3 2.2 2.2 5.4a116.8 116.8 0 0 0-6.2 11.6c-15.7 34-13.5 68.7-3.3 103.5a31.6 31.6 0 0 0 7.2 12.7c8.4 9.2 18.7 10.5 29.2 4a53.8 53.8 0 0 0 17.6-18.2 115.1 115.1 0 0 0 17-59.6c.2-21.3-5.5-40.7-19.6-57.3-3.3-3.8-3.3-4.1.8-8a218.3 218.3 0 0 1 63.1-42.7 51.7 51.7 0 0 1 16.3-4.7 14.2 14.2 0 0 1 9 1.6c5.8 3.7 8.2 9.7 10.8 15.6s1.7 8.8-.3 13.3a54 54 0 0 0-3.4 11.9 26.9 26.9 0 0 0 3.6 20.1c3.5 5.5 8.6 7.3 14.7 5.4a14.7 14.7 0 0 0 10.3-10.6c2.4-8.2 4.3-16.6 3.4-25.2-.6-6.5 1.7-11.3 5.4-16.2 16.5-21.3 38.2-35.4 62.9-44.8 13-4.9 26.4-8.7 40.8-7 5.4.7 10.2-3.5 11.3-8.6a11.4 11.4 0 0 0-6.9-13.3 27.2 27.2 0 0 0-13-1.6c-24.6 3.1-47.7 10.4-69.1 23.4a175.1 175.1 0 0 0-39.7 32.4c-3.1-2.2-4.1-5-5.9-7.1-9.8-11.7-21.9-17.5-37.5-15.5a87.8 87.8 0 0 0-21.5 5.9c-29.1 12.1-53.9 30.3-76.1 52.4-3.4 3.4-6.1 4.1-10.6 2.4-10.3-4-21-5.4-31.9-2.4-18.3 5.1-34.2 14.4-46.5 29.1A160.2 160.2 0 0 0 0 635.3v40.6c5.4-22.4 16.4-42.3 32.6-59.8zm79-.3c19.5 21.8 15.1 75.6-7.4 93.1-9.2-16.7-13.3-68.5 7.4-93.1z" fill="#b0e0dd"></path><path d="M517.9 596.9c-1.5 2.7-.9 5 1.5 6.8s4.8 1 6.9-1a21.4 21.4 0 0 0 1.3-1.9c11.8-16.6 17.6-34.8 15.3-55.4s-16.7-37.5-37.5-40.2c-10.2-1.3-20 1.2-29.4 5-17 7-31.4 17.8-44.4 30.5a195.2 195.2 0 0 0-46.7 72.2c-2.2 5.7-2.3 5.6-8.2 5.1-12.7-1-25.3-.8-37.7 2.4-35 9.1-64.3 27.6-87.8 54.9-30 34.9-46.1 75.4-47.6 120.7.3 5.5.3 10.1.8 14.7a169.4 169.4 0 0 0 2.5 17.6c3.1 14.7 16.7 19.2 28.3 9.7a46.5 46.5 0 0 0 11.3-13.7c6.3-11.3.7-21.1-12.1-21-3.4 0-4.5-.9-4.6-4.2-.1-7.4-.4-15 .6-22.4a170.4 170.4 0 0 1 33.2-79.9 150.1 150.1 0 0 1 75-53.4 85.2 85.2 0 0 1 32.1-3.9c6 .4 6.1.6 5.5 6.3l-.6 6.9c-3 26.8 4.6 50.5 20.4 71.9a26.9 26.9 0 0 0 16.3 11c15.7 3.7 30.5-3.7 37.8-19.6s7.7-33 .6-49.6c-8.3-19.3-23.2-31.7-42.1-40-5.9-2.5-6.1-2.6-4-8.3 11.5-31.6 29.7-58.3 56.1-79.1 10-7.9 20.7-14.7 33.4-17.4 18.3-4 32.2 4.6 36.6 22.9 3.4 14.2 1.2 27.7-5.7 40.4-2.2 4.1-4.7 8-7.1 12zm-84.8 95.5c-.5 6.3-1.8 12.3-5.9 17.2s-9.6 5-13.7-.2c-14.2-18.6-19.5-39.3-15.6-62.9 21 6.1 37.1 26.6 35.2 45.9z" fill="#f8d1d0"></path><path d="M792.1 966.8a29.6 29.6 0 0 1 9.4-6.6c13.4-6.1 25.9-13.8 38.1-22.1 3-2.1 6-4.1 8.2-7a12.5 12.5 0 0 0 1.5-14.5c-2.5-4.9-6.7-6.8-12.1-6.5a31.9 31.9 0 0 0-10.5 2.7c-12 5-22.5 12.4-32.7 20.4-2 1.6-3.9 3.6-6.2 4.6-17.6 7.8-35.8 13.5-55.4 11.4-10.6-1.2-19.9-5.6-26.4-14.5-11.5-15.8-13-32.7-4.9-50.4 5.3-11.5 13.4-20.8 22.9-29 18.6-16 39.6-27.8 62.6-36.3 14.2-5.3 28.6-10.2 42.9-15.5 6.9-2.6 9.5-7.8 7.7-13.9s-7.1-8.6-13.7-7.3c-22.7 4.4-45.6 4.7-68.6 2.7-9.3-.7-18.5-1.8-27.4-4.6-4.2-1.3-4.6-2.2-2-5.1 12.5-13.8 27.1-24.5 44.7-31 5.1-1.9 9.6-2.3 13.6 3.2 2.8 3.8 8.2 3.6 11.9 1a9.4 9.4 0 0 0 3.2-11.7 20.4 20.4 0 0 0-14.1-12.2c-8.1-2.2-16.1-1-23.5 2.1-21.3 8.7-40.1 21.1-54.7 39.3-9.7 12.2-7.1 24 6.6 31.4a60.1 60.1 0 0 0 19.1 6.1l23 3.5c-1.3 2.8-3.8 3.2-5.8 4.2a220.6 220.6 0 0 0-23.8 14.3C711 835.8 697.2 847 687 862c-12.3 18-18.3 37.5-13.6 59.3 4.9 23.6 21.7 48.2 54.5 53 7.8 1.1 15.5.9 24.2 1.1-1 3.4-2.9 5.2-4.3 7.3a381.5 381.5 0 0 0-20.7 32.6 137.2 137.2 0 0 0-7.1 14.4h27.1a249.4 249.4 0 0 1 45-62.9z" fill="#f8d1d0"></path><path d="M446.3 969.3a199.2 199.2 0 0 0-33.5 60.4h31.9a165.5 165.5 0 0 1 25.5-42.8c9-11 18.4-21.7 28.1-32a181 181 0 0 0 16.8-20.3c3.7-5.3 6.8-10.9 8.2-17.4 2.5-12.1-2.9-21.4-14.6-25.2-5.5-1.8-11.2-1.8-16.9-1.8-26.4-.1-52.5 2.9-78.5 7.2-8 1.3-16 3.4-24.3 3.8 0-2.7 1.9-3.4 3.3-4.4 9-6.9 17.9-13.9 27.3-20.3 25.8-18 52.6-34.5 78.9-51.8 5.4-3.5 10.6-7.4 15.8-11.2a16.7 16.7 0 0 0 6.2-8.6c2.5-8.5-2.2-15.1-11-15.4a50.3 50.3 0 0 0-7.7.4c-41.8 5-83.3 11.4-124 22.2-3.9 1.1-7.6 2.1-11.7-.5s-6.3.9-8.8 3.2a4.7 4.7 0 0 0-1 5.7c1.4 3.2 3.9 4.6 7.4 4.6a24.8 24.8 0 0 0 3.8-.2l11.4-2.2c30.3-6.6 60.7-12.1 91.7-14 2.9-.2 5.8-.8 9.2.2-1.7 2.4-3.6 3.2-5.3 4.3-13.7 8.4-27.2 16.8-40.9 25.1a680.2 680.2 0 0 0-78.8 55.9c-3.6 3-7.4 5.8-10.4 9.3-8.1 9-5.3 21.2 5.7 26.2 5.3 2.4 11 2.7 16.7 2.7 11.4-.1 22.6-2.3 33.7-4.3 25.9-4.7 52-8 78.4-8.4 2.7-.1 5.6-.7 9.4 1.1-3.9 4.5-7.1 8.5-10.6 12.2-10.9 11.7-21.3 23.9-31.4 36.3z" fill="#b0e0dd"></path><path d="M700.1 133.6a115.2 115.2 0 0 0-15.6 26.7 39.5 39.5 0 0 0-3.3 17.3c.3 9.5 8.3 15.4 17.6 13.2 4.9-1.1 8.2-4.1 10.7-8.3 7.2-11.4 13.1-23.4 16.3-36.6a27.4 27.4 0 0 1 7.1-12.5 309.3 309.3 0 0 1 85.8-64 128.7 128.7 0 0 1 33.6-11.6c26.2-5.1 52.5-7.4 79.2-4.3a12.7 12.7 0 0 0 7.3-24.1 25.4 25.4 0 0 0-8.2-2.1c-15.2-2.1-30.4-.3-45.6.5-37.1 1.9-71.4 12.7-102.6 33.1a492.4 492.4 0 0 0-46.7 34.4c-1.9 1.7-3.5 3.9-6.3 4.4-1.9-5.3-3.5-10.8-5.9-15.9-7.9-17-21.4-26-40.1-26.8a64.8 64.8 0 0 0-25.1 3.9c-30.1 10.5-50.4 31.4-63.3 60s-17.4 59.8-17.6 91.3a15.3 15.3 0 0 0 .3 3 10.4 10.4 0 0 0 20.5 0 39.4 39.4 0 0 0 .3-7.7 199.7 199.7 0 0 1 12.6-70.5c5.4-14.2 13.2-26.8 24.5-37.1s24.1-16.9 39.1-19 23.8 4.2 27.9 18.3c2.3 7.6 1.9 15.3 1.6 23a18.9 18.9 0 0 1-4.1 11.4z" fill="#f8d1d0"></path><path d="M0 48a110.3 110.3 0 0 1 36.2-31.6 50.9 50.9 0 0 1 10.1-3.7 18.5 18.5 0 0 1 9.9.2c7.1 1.9 11.5 6.7 14.6 12.9 4.6 9.3 5.4 19.3 5.9 29.4.2 5.8-1.3 9.9-6.1 14-14.1 12.1-24.7 26.9-29.7 45.2-1.9 7.1-2.6 14.3.4 21.3 4.4 10.6 15.9 12.7 23.7 4.3a53.9 53.9 0 0 0 6.5-8.6c8.4-14.1 15.3-28.7 18.9-44.8.5-2.2.4-4.8 2.5-6.3 8.5-6 17.3-11.3 28.2-11.4a10.5 10.5 0 0 1 8.3 3.3c6.6 7.1 7.3 24.2 1.5 31.9-4.7 6.1-9.4 12.3-13.9 18.6a27.1 27.1 0 0 0-5.1 17.5c.6 8.8 7.7 13.8 16.2 11.6a19.5 19.5 0 0 0 10.6-7.4 104.6 104.6 0 0 0 15.9-28.2 22.5 22.5 0 0 1 4.6-7.9c11.4-12.3 23.3-24.2 36.7-34.4S221 55 236.6 50.6c4.7-1.4 9.2-2.3 14.3-.9 6.7 1.8 12.9-2.3 15.1-8.9 2.6-8.2-2.8-16.1-12.5-17.7a34.4 34.4 0 0 0-16.8 1.5c-12 3.9-23.7 8.6-34.4 15.6a326.3 326.3 0 0 0-38.6 29.6c-1.9 1.7-3.4 4-6.8 4.9l-2.9-6.8c-6.6-14.9-18.6-22.4-34.9-21.8a58.4 58.4 0 0 0-16.6 3.4l-4.4 1.7c-4.7 1.7-4.9 1.6-5.7-3.5-.2-1.3-.3-2.6-.5-3.9-1.6-9.8-4.4-19.1-10-27.4C71.7 1.2 55.2-4.1 38.6 3.4A109.6 109.6 0 0 0 0 32.2z" fill="#fff"></path><path d="M192.3 387.9a49.4 49.4 0 0 0 1.3-5.2c9.6-42.9 31.3-79.7 58.7-113.1s63.1-58.4 102.3-77.4c22.7-11 46.7-17.8 72.5-16.1 21.9 1.3 42.8 6.2 61.4 18.7a18.1 18.1 0 0 0 3.3 2 7.9 7.9 0 0 0 9.7-2.4 8 8 0 0 0-.5-10 39.6 39.6 0 0 0-6.1-4.7c-24.5-15.5-51.7-21.4-80.3-22.1-15.6-.3-30.8 2.6-45.7 7.1-47 14.2-86.5 40.9-122.3 73.6-22.1 20.2-38.5 45-53.7 70.6a265.8 265.8 0 0 0-26.5 60.9 62.1 62.1 0 0 0-2.6 12.1 14.5 14.5 0 0 0 11.6 15.2c6.8 1.6 14.3-2.5 16.9-9.2z" fill="#aedfdc"></path><path d="M143 1009a313 313 0 0 1-13-65.1 652.1 652.1 0 0 1-2.8-87.3c.5-14.1 1.4-28.3 3.3-42.3 1.1-8.1-3.1-13.8-10.1-14.8a12.2 12.2 0 0 0-13.2 11.3c-.5 6.9-1.9 13.8-2.4 20.7-3.6 47.7-3.2 95.4 3.2 142.8a252.5 252.5 0 0 0 13.8 55.4h29.8a138.9 138.9 0 0 1-8.6-20.7z" fill="#fff"></path><path d="M705.2 615.5c25.8 27.6 54.5 51 89.3 66.5 22.1 9.9 44.7 15.8 67 14.7 18.7.3 35.4-1.7 52-3.4a24.4 24.4 0 0 0 12.9-4.9c5.5-4.4 7.3-11.4 4.5-17.3s-8.7-8.6-15.7-7a285 285 0 0 1-34.3 5.6c-16.6 1.8-33.4 3-50.1-.2-23.3-4.5-44.6-14.5-64.1-27.7s-40.1-29.8-54.2-51.1c-3.7-5.5-9-6.9-13.9-4s-6.4 8.4-3.4 14.2a66.3 66.3 0 0 0 10 14.6z" fill="#11476b"></path><path d="M704.3 553.3c7.6-3.8 14.8-8.4 22-12.9 14.3-8.9 28.3-18.2 39.8-30.6 23.5-25.2 40.6-54.4 53.4-86.3a186.7 186.7 0 0 0 13.5-59.3 18.5 18.5 0 0 0 .1-2.3c-.1-3.2-1.2-5.6-4.7-6s-5.4 1.4-6.2 4.6c-.3 1.2-.2 2.6-.4 3.8-1.3 8.7-1.8 17.5-3.9 26-8 32.9-23.7 61.9-43.8 88.9-18.7 24.9-43.5 41.4-71.7 53.4-4.4 1.9-7.7 2.4-11.4-2.2s-10.4-5.1-15.1-1.2-5.3 9.8-1.9 15.3c7.7 12.3 17.3 15.3 30.3 8.8z" fill="#f8d1d0"></path><path d="M596 1029.3c7.6-3.2 10.7-11.6 7.3-20.1-1.7-4.1-3.1-8.3-3.2-12.7-.2-10.3-.3-20.7 1-30.9 2.2-16.1 4.6-32.2 6.6-48.3 1.1-8.7-3.9-15.3-11.7-16.2s-14.3 4-15.5 12.6c-3.4 23.2-7.7 46.3-9.2 69.8 0 4.7-.2 9.3 0 14 .4 8 1.4 15.9 4.9 23.3a16.9 16.9 0 0 0 9.2 8.9h9.6z" fill="#f8d1d0"></path><path d="M586.3 789.7c-2.1 3.5-4.4 6.7-8.4 8.8s-5.9 6.4-5 11.2 4.2 8.1 9.2 9.3c7.1 1.8 12.8-1.3 16.4-9.4 10.2-22.9 20.1-45.9 27.4-69.8 3.7-11.8 6.6-23.9 6.7-36.4a72.1 72.1 0 0 0-3.2-22.1c-5-17.4-16.3-30.1-30.3-40.9-2.3-1.7-4.9-2.3-6.9.1s-1.2 4.8 1 6.8l6.3 5.6c19.6 16.9 25.5 38.3 19.6 62.9-6.4 26.5-18.7 50.7-32.8 73.9z" fill="#11476b"></path><path d="M216.2 1028.9a446.9 446.9 0 0 1-31.3-135.7 83 83 0 0 0-1.4-10c-.6-2.9-2.9-4.1-5.7-4.1s-5.5 1.7-6.1 4.8a21.5 21.5 0 0 0 0 6.2 625.1 625.1 0 0 0 17 105.2c2.9 11.5 5.8 23.1 9.8 34.4h18z" fill="#1b4e71"></path><path d="M195.1 201.6c14.9-31.8 33.1-61.2 62-82.6 3.6-2.6 5.9-5.8 4.8-10.5a9.3 9.3 0 0 0-7.3-7.2c-4.7-1-7.9 1.2-10.6 4.8l-4.9 6.8-12.8 17.5c-21.9 29.8-37.5 62.7-49.7 97.4-1.9 5.6-3.7 11.3-3.7 17.3 0 1-.1 2 0 3.1.2 2.6.5 5.5 4.1 5.3s3.3-2.7 3.2-5.2c-.5-6.1 1.4-11.7 3.1-17.4a218.7 218.7 0 0 1 11.8-29.3z" fill="#f8d1d0"></path><path d="M256.1 961.2c-2.7-13.7-5.2-27.3-6.4-41.2-.4-4.9-2.5-6.8-5.9-6.7s-5.1 2.5-4.8 9.2c3.3 27.8 7.7 57.3 15.9 86.2a20.1 20.1 0 0 0 1.6 4.3c2 3.7 5.7 5.1 9.1 3.7a7.4 7.4 0 0 0 4.4-8.9 38.4 38.4 0 0 0-1.4-3.6 278.5 278.5 0 0 1-12.5-43z" fill="#11476b"></path><g fill="#050505"><path d="M266.6 401.7a41.8 41.8 0 0 1 8.3-.1 32.5 32.5 0 0 1 6.8.5c1.3.3 4.3 1.2 9.2 2.9a42.8 42.8 0 0 1 8.9 3.8 35.6 35.6 0 0 1 6.2 6.2 31.7 31.7 0 0 1 4.5 6.2 10.6 10.6 0 0 1 1.2 5 5.5 5.5 0 0 1-.3 2.1 6.5 6.5 0 0 1-1.1 1.8c-2.7 3.4-6.3 4.4-11 3.2a17.5 17.5 0 0 1-5.2-2.3 48 48 0 0 1-6.1-5.4 46.1 46.1 0 0 0-4-3.8 5.8 5.8 0 0 0-2.4-1 14.9 14.9 0 0 0-7.9.1c-2.2.8-4.5 3.2-6.7 7a45.6 45.6 0 0 0-4.9 13.1 36.5 36.5 0 0 0-.7 8.5 22 22 0 0 0 1.1 7.3c1.5 4.2 3.5 7 6.2 8.5a5.4 5.4 0 0 0 2.2.8h3.2a12.2 12.2 0 0 0 3.3-.4l3.2-1.2a73.8 73.8 0 0 0 9.2-6.1c6.4-4.6 10.7-7.2 12.7-7.8a12.3 12.3 0 0 1 2.7-.4 4.5 4.5 0 0 1 1.8.4c2.2 1.1 3.6 4.1 4.1 8.9a23.4 23.4 0 0 1-1.5 12.6 23.8 23.8 0 0 1-11.5 11.7c-5.4 2.7-12.5 4.4-21.5 5a16.8 16.8 0 0 1-5.5-.3 60.9 60.9 0 0 1-8-2.3 54 54 0 0 1-9.4-3.7 36.1 36.1 0 0 1-6.8-4.7 37.9 37.9 0 0 1-7.6-8.4 37 37 0 0 1-4.4-10.8 45.5 45.5 0 0 1-1.8-10.5 74 74 0 0 1-.1-12.4 41.3 41.3 0 0 1 2.1-9.6 37.9 37.9 0 0 1 5.5-10.3 35.9 35.9 0 0 1 7.9-7.7 41.1 41.1 0 0 1 8.4-4.1 50.4 50.4 0 0 1 9.7-2.3zM240.9 445a15.6 15.6 0 0 0-.4-3.5c-.1-.2-.2-.2-.2.2a17.4 17.4 0 0 0 .1 6c.3 1.4.5 1.2.5-.7zm.9 13.7q-1.1-3-1.5-3c-.2-.1-.2.3 0 1.3s1.1 3.9 1.9 4.3.5.3.5 0-.3-1.1-.9-2.6zm5.6-39.8l1.1-1.5a3.1 3.1 0 0 0-2 1.9c-.6 1.2-.5 1.3.5.2s.2-.3.4-.6zm1.6 7q.3 0 .6-.6c.1-.4.1-.6 0-.7s-.4 0-.6.6-.3.7 0 .7zm10.1 27v-1.8a5.2 5.2 0 0 0-.2 1.1zm2.3-32.9c.2-.7.3-1.1.2-1.3l-.9 1.5c-.5 1.1-.7 1.6-.5 1.8s.5.1.6-.2.1-.2.1-.4a3.3 3.3 0 0 0 .3-.6c.1-.3.1-.6.2-.8zm3.3-8.9c.6-.4.7-.6.4-.6a1.9 1.9 0 0 0-1.3.6c-.4.3-.5.4-.4.4a3.4 3.4 0 0 0 1.3-.4zm5.5 66.7a2.8 2.8 0 0 0-.3-1.3l-.4-.3v.3a2.4 2.4 0 0 0 .4 1.3q.2.6.3.6zm14.7 2.3a1.4 1.4 0 0 0-.5-1.2h-.4a1.8 1.8 0 0 0 .1.6c.1.8.3 1.1.6 1.2s.2-.1.2-.6zm4.3-62.1c0-.4-.1-.6-.5-.6s-.5.2-.4.5.4.7.7.6.2-.3.2-.5zm.4 54.6c0-.5-.1-.7-.4-.3s-.3.3-.4.7-.2 1.1-.1 1.1.2 0 .4-.3a2.8 2.8 0 0 0 .5-1.2zm3.4-63.5c.2-.2-.1-.5-.9-1s-1.3-.4-1.3-.2.1.4.3.4a1.9 1.9 0 0 1 1 .5q.6.8.9.3zm7.6 12.7c-.3-1-.5-1.4-.7-1.4s-.2.3-.1.8a15.5 15.5 0 0 0 .4 2.9 10.3 10.3 0 0 1-.4 2.7c-.3 1-.3 1.4-.1 1.4s.5-.6.8-1.7a9.9 9.9 0 0 0 .5-2.5 6.9 6.9 0 0 0-.4-2.2zm1.7-6.5c.1-.2-.3-.7-1.3-1.5s-1.4-1-1.4-.5a1.4 1.4 0 0 0 .6.9 4.1 4.1 0 0 0 1.3 1c.4.2.7.3.8.1zm4.8 45.9a2.4 2.4 0 0 0 .1-1.7v-.8c-.1 0-.2.4-.2 1.2h-.2a6.2 6.2 0 0 0-.1 1.8z"></path><path d="M355.1 396.5a12.3 12.3 0 0 1 9.3-.3c4.9 1.5 9.8 5.3 14.7 11.5a71.6 71.6 0 0 1 11.6 21.5 68.6 68.6 0 0 1 4 24.4 51.5 51.5 0 0 1-5.4 22.1c-6.3 12.4-15.9 18.3-29 17.6a28.6 28.6 0 0 1-14.7-4.8 36.7 36.7 0 0 1-10.9-12.1 58.3 58.3 0 0 1-6.5-17.9 75.5 75.5 0 0 1-.8-12.4 58.3 58.3 0 0 1 1.1-12.7c2-9.6 5.6-17.5 10.9-23.7a44.4 44.4 0 0 1 5.3-5.4 42.4 42.4 0 0 1 5.1-3.7 5.5 5.5 0 0 0 2.3-1.9 8.9 8.9 0 0 1 3-2.2zM336.7 458c.1 0 .1-.1-.1-.1h-1.4a3.8 3.8 0 0 0 1.5.1zm13.6 16.8c.3-.2.3-.5-.1-.8s-.6-.3-.8 0-.1.5.1.8.6.3.8 0zm1.6 9.3c-.3-.8-.8-1.1-1.6-.7s0 .5.6.7 1.1.5 1.2.4zm9.6-57.1a12.9 12.9 0 0 0-2.2-3l-1.1-1.3-1.2 2.2c-1.7 3.3-2.7 8.2-2.9 14.6s.5 12.3 2 16.3a16.3 16.3 0 0 0 2 4.2q1.2 1.8 1.8 1.8c.3 0 .8-.8 1.4-2.3a26.1 26.1 0 0 0 1.3-4.3 84.1 84.1 0 0 0 1-9.4c.2-4.2.2-7.3.1-9.2a23.4 23.4 0 0 0-2.2-9.6zm7.9 31.2c0-1.2-.1-1.8-.3-1.9s-.4.6-.8 2.1l-.5 2.2.7-.3q.9-.4.9-2.1zm1.2-22.8q.3-1.3-.3-1.8c-.4 0-.5.3-.5.7s.1 1.7.3 1.9.3 0 .4-.3a.7.7 0 0 0 .1-.5zm3.3-14c.5-.3.5-.6.1-.9s-.5-.2-.7.3-.2.9-.1.9z"></path><path d="M410.2 400.4c7.6-1.7 13.7.1 18.4 5.3a56.2 56.2 0 0 1 6.4 8.9 57.7 57.7 0 0 1 4.9 9.4c1.6 4.5 2.6 7.5 3.2 9 1.1 3.1 2.1 5.8 3.2 8.3s1.7 3.7 2 3.7 1.4-3 3.3-9.1q4.9-14.7 7.8-20.4c3.3-6.5 7.1-11.1 11.4-13.6a15.1 15.1 0 0 1 13.7-.9 12 12 0 0 1 3.8 2 6.5 6.5 0 0 1 1.8 2.9q4.2 11.1 5.7 55.5c.4 13.2 0 20.9-1.1 23.1a11.8 11.8 0 0 1-2.2 2.7 13.5 13.5 0 0 1-2.8 2l-3.5.8c-4.1.5-7.2-1.5-9.4-5.9a34.6 34.6 0 0 1-3-10.4 154.8 154.8 0 0 1-1.1-19.1c-.2-8.3-.4-12.5-.5-12.8s-.5.1-.8.6a14.3 14.3 0 0 0-1 3c-.5 1.5-1 3.4-1.6 5.7s-1.4 5.3-2.4 8.9c-1.8 7.2-3.3 12.6-4.6 16.1a32.8 32.8 0 0 1-4.2 8.6c-2.5 3.5-5.7 5.2-9.5 4.9a11.9 11.9 0 0 1-8.2-4 28.5 28.5 0 0 1-5.4-8.1 96.4 96.4 0 0 1-5.1-14.1c-2.9-9.8-4.7-15.5-5.5-17s-.4-.6-.4-.1v1.3a40 40 0 0 0 .7 6.5c.6 3.6 1.1 6.8 1.6 9.3q1.9 11.4.6 17.7c-1 4.1-3.1 7-6.6 8.6a14.9 14.9 0 0 1-5.1 1.1 25.6 25.6 0 0 1-6.2-.3c-2.5-.4-4.2-1.4-4.9-2.8s-1.2-5-1.6-10.6c-.8-11.5-1.3-23.8-1.5-36.7s0-21.8.6-26.6a51.9 51.9 0 0 1 1.2-7.2 7.5 7.5 0 0 1 1.8-3.3c1.1-1.3 3.1-2.3 6.1-2.9zm-2.6 29.2c-.6-.3-1 .1-1.1 1.3v1.8l.7-1c.8-.8.9-1.5.4-2.1zm.2 13.6a9.5 9.5 0 0 0 .2-1.9c-.1-.3-.4-.4-.8-.4s-.6.1-.6.4a17.4 17.4 0 0 0 .1 1.8c.1 2 .2 3.9.2 5.9v3.5l.2-3.5zm18.6-29.9a2.2 2.2 0 0 0-.6-1.2 2.5 2.5 0 0 0-.4-.6l-.2.6a1.5 1.5 0 0 0 .6 1.3c.4.3.6.3.6-.1zm8.2 42.4a1.1 1.1 0 0 0-.7-.9c-.2-.1-.3 0-.3.2a8.7 8.7 0 0 0 .3 1.3 6.2 6.2 0 0 0 .7 1.7v-.3a4.6 4.6 0 0 0 0-2zm3.1 9.1l-1.3-.4c0 .1-.1.1-.1.2a1 1 0 0 0 .1.4c.1.3.3.7.4 1.1a18.4 18.4 0 0 0 .6 1.8l.6 1.8.2-1.7a9.7 9.7 0 0 1 .4-2.2c.2-.4-.1-.7-.9-1zm6.5-13.1c.6-.8.7-1.2.3-1.3s-1 .4-2.1 1.7a9.1 9.1 0 0 0-1.6 1.9 1.7 1.7 0 0 0 .1 1.2c.4.4 1.3-.4 2.7-2.6a2.4 2.4 0 0 0 .6-.9zm20.7-31.2a1.6 1.6 0 0 0 .2-1.2v-.6l-.5.7c-.3.8-.3 1.2-.2 1.2s.2 0 .5-.1zm15 37.9c0-.4-.1-.6-.5-.6s-.5.6-.5 1.8v1.7l.4-1.1a3.8 3.8 0 0 0 .6-1.8zm-.7-24.7c.1.5.4.4.8-.4s.7-1.2.5-1.1a1.3 1.3 0 0 0-.7.4 1 1 0 0 0-.6 1.1zm6.6-19.3a2.8 2.8 0 0 0-.3-1.3c-.3-.4-.4-.3-.4.2a5.1 5.1 0 0 1-.2 1.3c-.2.5-.1.7.3.7s.6-.3.6-.9z"></path><path d="M509.1 442.8q-.2-.7-.3-1.8a8.1 8.1 0 0 1-.3-2c-.1-.5-.2-.9-.2-1-.6-4.3-1-8-1.4-11-.7-9 .1-15.9 2.3-20.5 3.2-6.9 9.2-9.4 17.9-7.6a2.8 2.8 0 0 1 2 1.5 3.1 3.1 0 0 1 .9 1.2 7.2 7.2 0 0 1 .9 2.1c.5 1.5 1.2 3.7 1.9 6.3 1.6 6 2.5 9.8 2.6 11.5.2 4.3.4 9.2.5 14.6.1 8.3 0 15.7-.3 22.3-.6 8.8-1.5 15.8-2.9 20.8a23.7 23.7 0 0 1-3.3 7.3c-1.8 2.4-4 3.6-6.5 3.5a16 16 0 0 1-5.5-1.5 8.7 8.7 0 0 1-4.2-4.7c-1.9-4.7-2.9-11.2-3.1-19.5v-5.6c-.1-4.5-.2-7.8-.3-9.8a35.3 35.3 0 0 0-.4-3.8.8.8 0 0 1-.2-.4 4 4 0 0 1-.1-1.9zm6.8-30.9l-.3-.7c-.3-.9-.6-1.7-.8-2.5l-.2.4a19.1 19.1 0 0 0-1.7 6.3h.1a30.7 30.7 0 0 1 2.9-3.5zm-1.3 19.6h-.3l-.8.4a2.8 2.8 0 0 1 .1.9zm3.6-10.7a10.8 10.8 0 0 1-.3-1.9 25.8 25.8 0 0 0-3.2 5.1l.7-.6 1.4-1.3a7.9 7.9 0 0 0 1.4-1.3zm2.7 20.9a52.7 52.7 0 0 1-5.4 4.4 9.3 9.3 0 0 1 .2 2.3 3 3 0 0 1 .2 1 .9.9 0 0 1 .3-.5l.4-.7.6-.7a8.5 8.5 0 0 1 .9-1.4l2.1-3.2zm-2.9 35.5a3.3 3.3 0 0 1 0-2.4l.2-.3-.8.3h-.5c.3 1.4.5 2.7.8 3.9zm4.4-25.5a26.8 26.8 0 0 0-3.7 4.3l-.7.9a2.8 2.8 0 0 1 .8 1.1 17.4 17.4 0 0 1 1.1-1.8l.9-1.7zm-1.7-17.7a2.5 2.5 0 0 1-.1-.8l-1.2 1.9a6.9 6.9 0 0 1 1.3-1.1zm1.4-28.3a2.8 2.8 0 0 1 3-.3 2.5 2.5 0 0 0-.2-.7.2.2 0 0 1-.2-.2 11.8 11.8 0 0 0-3.2-.1 1.6 1.6 0 0 1 .3.6zm3.3 68.8l-.4.3c-.1 0-.1.1-.1.2a27.9 27.9 0 0 0-1.2 4.1l1.1-.7 1.3-.9.9-.6a16.8 16.8 0 0 0 .6-2.4 3.3 3.3 0 0 1-1.4.1zm3.4-46h.9c-.1-2.5-.2-4.6-.3-6.5a10.5 10.5 0 0 0-.3-1.8 7.3 7.3 0 0 0-.9 1.3l-.8 1c.5 2.1 1 4.1 1.4 6zm-.6 13.8z"></path><path d="M556.4 399.7a27.1 27.1 0 0 1 5 0 30.6 30.6 0 0 1 5 .8 12.8 12.8 0 0 1 6.3 3.8c1.2 1.6 2.7 4.8 4.2 9.6a72 72 0 0 0 3.5 8.5c1.1 2.1 4 6.6 8.7 13.6 7.9 11.9 12 17.8 12.6 17.8s.4-1.1.5-3.3-.1-9.6-1-20.2c-.6-7.6-.9-13.2-.8-16.8a19.4 19.4 0 0 1 1.5-7.9 6.9 6.9 0 0 1 3.8-3.7 26.1 26.1 0 0 1 7.9-1.3 19.2 19.2 0 0 1 4.7.2 7.4 7.4 0 0 1 2.7 1.5q7.7 6.6 5.7 41.1c-.5 8.3-1.3 16.8-2.5 25.4s-2.3 13.8-3.2 15.7-2.9 2.8-6.4 3.6a34.4 34.4 0 0 1-6.2.5 19.8 19.8 0 0 1-5.4-.3c-2.1-.6-4.1-2.3-6.2-5s-8.1-11.6-18-26.5c-4.2-6.4-7.2-10.8-9.2-13.4l-2.9-4.1-.3 2.1a20.7 20.7 0 0 0 0 5c.8 14.1.8 24.2-.2 30.2s-3.1 9.9-6.4 11.7c-1.7.9-4 1.1-7 .7s-5.1-1.2-6.3-2.4a4.9 4.9 0 0 1-1.3-2.7 55.3 55.3 0 0 1-1-7.2c-.9-7.3-1.4-13.4-1.6-18.2s-.3-11.7-.2-20.5.4-17.5.7-22.3a62 62 0 0 1 1.6-11.2 4.6 4.6 0 0 1 2.4-3.1 63.3 63.3 0 0 1 9.3-1.7zm-6.3 38.7a2.4 2.4 0 0 0 .2-1h-1.8v3.5c.2 1.9.3 2.8.5 2.9a7.7 7.7 0 0 0 .7-2.4 24 24 0 0 0 .4-3zm.8 13.1l-1.2-.9-1.2-.4v5.6l1.3-2a7.5 7.5 0 0 0 1.1-2.3zm1 29.7c-.4-.9-.7-1.2-.9-1s-.2.4 0 .9a1.7 1.7 0 0 0 .6 1.1c.3.4.4.3.4-.2a2.5 2.5 0 0 0-.1-.8zm2.2-16.8c-.3-1.3-.6-2-.9-1.9s.1.8.6 1.9l.6 1.6zm10.8-57.8l-1.5-.3-.3-.2c-.1.1 0 .4.3 1a5.9 5.9 0 0 1 .5 1.4c0 .7.4.6 1.2-.4a2.9 2.9 0 0 0 .6-1c0-.2-.3-.3-.8-.5zm5.2 26.2a5.8 5.8 0 0 1-1.5-1.3 2.1 2.1 0 0 0-.8-.6c-.1-.1-.3 0-.5.3s-.4.5-.1.5a10.4 10.4 0 0 1 2.1 1.6c1.1.8 1.6 1.1 1.6.7a1.2 1.2 0 0 0-.8-1.2zm8.8-.5c.1 0-.2-.6-.8-1.5l-.9-1.4v1.8a3.8 3.8 0 0 0 .1 1.4c0 .1.3.2.7.1zm13.2 19.4c-.8-1.2-1.3-1.6-1.4-1.4a.2.2 0 0 1-.2.2 26.8 26.8 0 0 0-1.6 5.5c0 .3.5 0 1.4-.9a4 4 0 0 1 1.9-1.3c.9 0 1-.6.1-1.9a.2.2 0 0 1-.2-.2zm4.8 7.5a.9.9 0 0 0 .1-1c-.2-.3-.4-.1-.5.4s-.2.9-.1 1 .3-.1.5-.4z"></path><path d="M667.2 401.7a42.8 42.8 0 0 1 8.4-.1 33.9 33.9 0 0 1 6.8.5c1.2.3 4.3 1.2 9.1 2.9a42.8 42.8 0 0 1 8.9 3.8 35.5 35.5 0 0 1 6.3 6.2 30.4 30.4 0 0 1 4.4 6.2 10.6 10.6 0 0 1 1.2 5 9.8 9.8 0 0 1-.2 2.1l-1.2 1.8c-2.7 3.4-6.3 4.4-10.9 3.2a18.1 18.1 0 0 1-5.3-2.3 48 48 0 0 1-6.1-5.4 46.1 46.1 0 0 0-4-3.8 5.3 5.3 0 0 0-2.4-1 14.6 14.6 0 0 0-7.8.1c-2.3.8-4.5 3.2-6.8 7a45.4 45.4 0 0 0-4.8 13.1 36.1 36.1 0 0 0-.8 8.5 24.9 24.9 0 0 0 1.1 7.3c1.5 4.2 3.6 7 6.2 8.5a5.9 5.9 0 0 0 2.2.8h3.1c3.4-.1 7-1.5 10.9-4.1l2.6-1.7v-2c0-1.3-.1-1.9-.2-1.9l-3.4.8a15.9 15.9 0 0 1-4.3 1 3.7 3.7 0 0 1-2.4-1.1 3 3 0 0 1-1.1-1.3 7.8 7.8 0 0 1-.3-2.8 14 14 0 0 1 .8-5.9 8.7 8.7 0 0 1 3.3-3.9c2.3-1.4 6.2-2.1 11.7-1.8a42.8 42.8 0 0 1 10.5 1.6c3.3 1 5.5 2.1 6.8 3.3s3.9 7.2 3.9 14-1.1 10.9-3.1 12.8a27.2 27.2 0 0 0-2.6 3.3c-4.2 6-12.1 9.9-23.8 11.7a50.4 50.4 0 0 1-10.1.6c-2.1-.1-5.5-1-10.1-2.5a55.9 55.9 0 0 1-9.3-3.7 36.7 36.7 0 0 1-6.9-4.7 37.9 37.9 0 0 1-7.6-8.4 40 40 0 0 1-4.4-10.8 51.6 51.6 0 0 1-1.8-10.5 86.6 86.6 0 0 1-.1-12.4 41.3 41.3 0 0 1 2.1-9.6 37.9 37.9 0 0 1 5.5-10.3 35.9 35.9 0 0 1 7.9-7.7 41.1 41.1 0 0 1 8.4-4.1 54.2 54.2 0 0 1 9.7-2.3zM641.5 445a15.6 15.6 0 0 0-.4-3.5c-.1-.2-.2-.2-.2.2a17.4 17.4 0 0 0 .1 6c.3 1.4.5 1.2.5-.7zm.9 13.7q-1-3-1.5-3c-.1-.1-.1.3 0 1.3s1.1 3.9 1.9 4.3.6.3.5 0a15.2 15.2 0 0 0-.9-2.6zm5.7-39.8l1-1.5a3.3 3.3 0 0 0-2 1.9c-.6 1.2-.4 1.3.5.2zm1.5 7q.3 0 .6-.6c.1-.4.1-.6 0-.7s-.4 0-.6.6-.2.7 0 .7zm10.1 27a5.4 5.4 0 0 0 0-1.8 4.5 4.5 0 0 0-.1 1.1zM662 420c.3-.7.4-1.1.3-1.3l-1 1.5c-.5 1.1-.7 1.6-.4 1.8s.5.1.6-.2a.8.8 0 0 1 .1-.4c.1-.1.1-.4.2-.6a3.1 3.1 0 0 0 .2-.8zm3.3-8.9c.7-.4.8-.6.4-.6a2.2 2.2 0 0 0-1.3.6c-.4.3-.5.4-.4.4a3 3 0 0 0 1.3-.4zm5.6 66.7a2.8 2.8 0 0 0-.4-1.3c-.2-.3-.4-.3-.4-.3v.3a3.8 3.8 0 0 0 .4 1.3l.3.6a1.5 1.5 0 0 0 .1-.6zm14.6 2.3c0-.6-.1-1-.4-1.2s-.4 0-.4.1-.1.3 0 .6.4 1.1.6 1.2.2-.2.2-.7zm4.4-62.1a.5.5 0 0 0-.6-.6c-.3 0-.4.2-.4.5s.4.7.7.6a.5.5 0 0 0 .3-.5zm.3 54.6c0-.5-.1-.7-.3-.3s-.4.3-.5.7-.2 1.1-.1 1.1.2 0 .5-.3a2.4 2.4 0 0 0 .4-1.2zm3.4-63.5c.3-.2 0-.5-.9-1s-1.3-.4-1.3-.2a.4.4 0 0 0 .4.4 2.1 2.1 0 0 1 .9.5q.6.8.9.3zm7.7 12.7c-.3-1-.6-1.4-.7-1.4s-.3.3-.2.8.2 1.5.4 2.9a5.7 5.7 0 0 1-.4 2.7c-.3 1-.3 1.4-.1 1.4s.5-.6.8-1.7a6.8 6.8 0 0 0 .5-2.5 10.3 10.3 0 0 0-.3-2.2zm1.6-6.5q.3-.3-1.2-1.5c-1-.8-1.5-1-1.5-.5a1.4 1.4 0 0 0 .6.9 4.1 4.1 0 0 0 1.3 1c.5.2.7.3.8.1z"></path><path d="M351.9 538.6a39.9 39.9 0 0 1 8.5 0q11.7 1.4 16.2 10.8a11 11 0 0 1 1.1 2.5 1.4 1.4 0 0 0 .5.9 8.7 8.7 0 0 1 1.8 2.7 18.1 18.1 0 0 1 2.1 9.4c0 4.1-1.2 7-3.6 8.5a12.5 12.5 0 0 1-3.8 1.5 15.2 15.2 0 0 1-4.3.7q-4.2 0-14.7-3.3a78.5 78.5 0 0 0-8.5-2.3q-2.2-.4-3 .3t-.6.6c0 .2.2.3.6.6a23.6 23.6 0 0 0 8.4 3.5 34.8 34.8 0 0 1 14.3 7 31.3 31.3 0 0 1 8.5 12.8c2.3 5.8 2.8 10.9 1.6 15.4a18.4 18.4 0 0 1-2.4 5.8 46.6 46.6 0 0 1-5.5 6.4 37.8 37.8 0 0 1-6.6 5.8 15.5 15.5 0 0 1-6.2 1.6l-3.9.6a19 19 0 0 1-4.7 1 64.5 64.5 0 0 1-7.1.4c-9.5-.1-17.7-2.4-24.7-7.1-2.4-1.7-4.8-4.8-7.2-9.5s-3.4-8.6-3.4-11.8a3.1 3.1 0 0 1 1.1-2.2 17.9 17.9 0 0 1 4-2.4c6.4-3 10.6-3.8 12.5-2.2a8.1 8.1 0 0 0 2.6 1.5q2.5 1 8.1 8.7c2.8 3.9 5.2 6.2 7.2 7.2s4.5.8 7.3-.5a8.2 8.2 0 0 0 4-3.5c.8-1.4 1.1-3.6 1.1-6.6s-.2-3.6-.8-4.3a11.2 11.2 0 0 0-5.6-4.8c-1.7-.8-7.2-2.3-16.6-4.5s-14-5.1-16.7-9.3a18 18 0 0 1-2.2-7.3c-.2-2.1-.5-3.7-.7-4.8a13.7 13.7 0 0 1 1.1-8 24.9 24.9 0 0 1 3.7-5.6 52.3 52.3 0 0 1 5.2-5.8 30.8 30.8 0 0 1 13.7-7.2 104.3 104.3 0 0 1 17.6-3.2zm-24 83.5a1.4 1.4 0 0 0-.3-1.3 2.5 2.5 0 0 0-.4-.6c-.1 0-.2.2-.4.6a4.5 4.5 0 0 0-.5.9c0 .1.3.3.8.5a.5.5 0 0 0 .8-.1zm14.2-69.5a7.1 7.1 0 0 1-1.3-2.4 2.7 2.7 0 0 0-.4-.8c-.1-.1-.3 0-.4.2s-.2 1 .3 1.6a3.2 3.2 0 0 1 .7 1.7c0 .5.4.7 1.1.7h1zm26.4 41.7c-.3-.8-.6-1.3-.8-1.3s-.3.2-.3.7a3.3 3.3 0 0 1-.5 1.6c-.4.4-.5.6-.4.7s.4.1.9-.1l1.5-.4a4.8 4.8 0 0 0-.4-1.2zm2.7 8.1q-.4-1.2-.6-1.2c-.2.1-.3.4-.2.9a2.2 2.2 0 0 0 .5 1.1c.3.2.4.2.4-.1a2 2 0 0 0-.1-.7z"></path><path d="M425.6 537.4a12.1 12.1 0 0 1 9.2-.3c5 1.5 9.9 5.3 14.8 11.5a71.4 71.4 0 0 1 11.5 21.5 66.4 66.4 0 0 1 4 24.4 51.5 51.5 0 0 1-5.4 22.1c-6.2 12.4-15.9 18.3-29 17.6a28.5 28.5 0 0 1-14.6-4.8 35 35 0 0 1-11-12.1 58.2 58.2 0 0 1-6.4-17.9 65.1 65.1 0 0 1-.8-12.4 59.4 59.4 0 0 1 1-12.7c2-9.6 5.7-17.5 10.9-23.7a45.7 45.7 0 0 1 5.4-5.4 30.8 30.8 0 0 1 5.1-3.7 5.8 5.8 0 0 0 2.2-1.8 9.2 9.2 0 0 1 3.1-2.3zm-18.5 61.5c.2 0 .1-.1-.1-.1h-1.4a3.8 3.8 0 0 0 1.5.1zm13.7 16.8c.3-.2.2-.5-.2-.8s-.6-.3-.8 0a.7.7 0 0 0 .2.8c.3.3.5.3.8 0zm1.6 9.3c-.3-.8-.9-1.1-1.6-.7s-.1.5.5.7 1.1.5 1.2.4zm9.5-57.1a10.2 10.2 0 0 0-2.1-3l-1.2-1.3-1.2 2.2c-1.7 3.3-2.7 8.2-2.9 14.6s.5 12.3 2 16.3a16.5 16.5 0 0 0 2.1 4.2q1.2 1.8 1.8 1.8c.3 0 .7-.8 1.3-2.3a26.8 26.8 0 0 0 1.4-4.3 68.8 68.8 0 0 0 .9-9.4 57.4 57.4 0 0 0 .1-9.2c-.2-4.1-.9-7.3-2.2-9.6zm8 31.2c0-1.2-.1-1.8-.4-1.9s-.4.6-.8 2.1l-.5 2.2.8-.3q.9-.4.9-2.1zm1.2-22.8c.1-.9 0-1.5-.4-1.8s-.5.3-.5.7.2 1.8.4 1.9.3 0 .3-.3a.8.8 0 0 0 .2-.5zm3.3-14c.4-.3.5-.6.1-.9s-.6-.2-.7.3a3.2 3.2 0 0 0-.2.9z"></path><path d="M508.6 537.4a12.3 12.3 0 0 1 9.3-.3c4.9 1.5 9.8 5.3 14.7 11.5a73.9 73.9 0 0 1 11.6 21.5 68.6 68.6 0 0 1 4 24.4 54.5 54.5 0 0 1-5.4 22.1c-6.3 12.4-16 18.3-29.1 17.6a28.5 28.5 0 0 1-14.6-4.8 34.7 34.7 0 0 1-10.9-12.1 55.8 55.8 0 0 1-6.5-17.9 65.1 65.1 0 0 1-.8-12.4 59.4 59.4 0 0 1 1-12.7c2.1-9.6 5.7-17.5 10.9-23.7a54.8 54.8 0 0 1 5.4-5.4 30.8 30.8 0 0 1 5.1-3.7 5.1 5.1 0 0 0 2.2-1.8 9.2 9.2 0 0 1 3.1-2.3zm-18.5 61.5c.2 0 .2-.1-.1-.1h-1.4a3.8 3.8 0 0 0 1.5.1zm13.7 16.8c.3-.2.2-.5-.2-.8s-.5-.3-.8 0a.7.7 0 0 0 .2.8c.3.3.5.3.8 0zm1.6 9.3c-.3-.8-.9-1.1-1.6-.7s-.1.5.6.7 1 .5 1.1.4zm9.5-57.1a10.2 10.2 0 0 0-2.1-3l-1.2-1.3-1.1 2.2c-1.8 3.3-2.7 8.2-3 14.6s.5 12.3 2 16.3a20.6 20.6 0 0 0 2.1 4.2q1.2 1.8 1.8 1.8c.3 0 .8-.8 1.3-2.3a26.8 26.8 0 0 0 1.4-4.3 68.8 68.8 0 0 0 .9-9.4 77.9 77.9 0 0 0 .2-9.2c-.3-4.1-1-7.3-2.3-9.6zm8 31.2c0-1.2-.1-1.8-.3-1.9s-.5.6-.9 2.1l-.4 2.2.7-.3q.9-.4.9-2.1zm1.2-22.8c.1-.9 0-1.5-.4-1.8s-.4.3-.4.7.1 1.8.3 1.9.3 0 .4-.3a4.3 4.3 0 0 0 .1-.5zm3.3-14c.4-.3.5-.6.1-.9s-.6-.2-.7.3-.2.9-.1.9z"></path><path d="M568.6 540.6a27.2 27.2 0 0 1 5 0 30.6 30.6 0 0 1 5 .8c2.9 1 5 2.2 6.3 3.8s2.7 4.8 4.2 9.6a69.9 69.9 0 0 0 3.6 8.5c1 2.1 3.9 6.6 8.6 13.6 7.9 11.9 12.1 17.8 12.6 17.8s.4-1.1.5-3.3-.1-9.6-1-20.2c-.6-7.6-.9-13.2-.8-16.8a19.4 19.4 0 0 1 1.5-7.9 6.9 6.9 0 0 1 3.8-3.7 26.1 26.1 0 0 1 7.9-1.3 26.5 26.5 0 0 1 4.7.2 7.4 7.4 0 0 1 2.7 1.5q7.6 6.6 5.7 41.1c-.5 8.3-1.3 16.8-2.5 25.4s-2.3 13.8-3.2 15.7-2.9 2.8-6.4 3.6a34.4 34.4 0 0 1-6.2.5 19.8 19.8 0 0 1-5.4-.3c-2-.6-4.1-2.3-6.2-5s-8.1-11.6-18-26.5c-4.1-6.4-7.2-10.8-9.2-13.4l-2.9-4.1-.3 2.1a20.7 20.7 0 0 0 0 5c.8 14.1.8 24.2-.2 30.2s-3 9.9-6.4 11.7c-1.7.9-4 1.1-7 .7s-5.1-1.2-6.3-2.4a4.9 4.9 0 0 1-1.3-2.7c-.3-1.3-.6-3.7-1-7.2-.9-7.3-1.4-13.4-1.6-18.2s-.3-11.7-.2-20.5.4-17.5.7-22.3a53.1 53.1 0 0 1 1.7-11.2 3.9 3.9 0 0 1 2.3-3q1.7-.7 9.3-1.8zm-6.2 38.7c.1-.5.2-.8.1-1h-1.8v3.5c.2 1.9.3 2.8.5 2.9a6.9 6.9 0 0 0 .7-2.4c.2-1.4.4-2.3.5-3zm.7 13.1l-1.2-.8-1.2-.5v5.6l1.3-2a7.5 7.5 0 0 0 1.1-2.3zm1 29.7c-.4-.9-.7-1.2-.9-1s-.2.4 0 .9a1.7 1.7 0 0 0 .6 1.1c.3.4.4.4.4-.2a2.5 2.5 0 0 0-.1-.8zm2.2-16.8c-.3-1.3-.6-2-.9-1.9s.1.8.6 1.9l.6 1.6zm10.9-57.8l-1.6-.3-.3-.2c-.1.1 0 .4.3 1a5.9 5.9 0 0 1 .5 1.4c0 .7.4.6 1.2-.4s.7-.9.6-1-.3-.3-.7-.5zm5.1 26.2a5.8 5.8 0 0 1-1.5-1.3l-.8-.6c-.1-.1-.3 0-.5.3s-.4.5-.1.5a10.4 10.4 0 0 1 2.1 1.6c1.1.8 1.6 1.1 1.6.7a1.2 1.2 0 0 0-.8-1.2zm8.8-.5c.1 0-.2-.6-.8-1.5l-.9-1.4v1.8a3.8 3.8 0 0 0 .1 1.4c.1.1.3.2.7.1zm13.2 19.4c-.8-1.2-1.3-1.6-1.4-1.4v.2c-1.1 3.1-1.7 4.9-1.7 5.6s.5-.1 1.4-1 1.6-1.3 1.9-1.3 1-.6.1-1.9zm4.8 7.5a.9.9 0 0 0 .1-1c-.2-.3-.4-.1-.5.4s-.2.9-.1 1 .3-.1.5-.4z"></path></g></g></g></svg>