<svg xmlns="http://www.w3.org/2000/svg" width="954.1" height="1030" viewBox="-0.016193270683288574 -0.0010864883661270142 954.1447143554688 1030.0164794921875" style=""><g><g data-name="Layer 2"><path d="M53.9 1007.6l5.3-1.8c4.4-1.6 9.1-1.2 13.6-2.6s9-1.4 13.5-2.1 9.7-1.5 14.6-2c10.9-1 21.4-4.4 32.4-4.8a76.2 76.2 0 0 0 17.5-2.5c5.7-1.6 11.9-1.3 17.9-1.8s14.9-1.9 22.3-2.1 14-1.4 21.2-.9c8.7.7 17.5-.2 26.3-.3 5.3 0 10.6.4 15.9.7l23.1 1.4c.4 0 .9-.1 1.2.1 6.2 3.9 14.1 1.2 20.4 5.1a4.2 4.2 0 0 0 3.3-.1c3.8-1.7 7.7-.2 11.3.3 5.6.8 10.8 3.9 16.3 4.3s11.6 3.2 17.6 3.3c8 .1 15.5 2.6 23.3 3.8 5.8.8 11.7.6 17.4 2.2 3.6 1 7.4 1.2 11.1 1.9 5.9 1.2 11.8 2.4 17.9 1.8a58.2 58.2 0 0 1 12.5.5 74.8 74.8 0 0 0 15.7.8c4.9-.4 10 .6 15 .8a19.8 19.8 0 0 0 3.5-.3 20.1 20.1 0 0 1 4.2-.5c10.8.3 21.6-.2 32.5-.1a43.7 43.7 0 0 0 10.1-1.3c5.4-1.3 11.1-.5 16.4-1.4s13.1-.2 19.1-3.2a17.8 17.8 0 0 1 5.2-1.1l17.8-1.4c3.3-.3 6.6-.8 9.9-1.3l28.2-3.6c13.3-1.7 26.6-3.4 39.8-5.3s27.1-4.6 40.7-6.2c5.6-.7 11-2.1 16.5-2.4 12.3-.7 24.3-3.4 36.6-4 4.8-.3 9.7-1.2 14.5-1.6s10 0 14.9-.9c11.5-2 23.2-.7 34.8-1.2 6.3-.3 13-1.6 19.3.8 4-1.1 8.2 1.4 12.2-.5a2.5 2.5 0 0 1 1.7 0c2.9 1.9 6 1.2 9.2.9 6.2-.4 12.4 1.7 18.8.7 2.1-.4 4.2 2.4 6.7.9 4.3 2.5 9.6-.2 14.1 2.8 1.7 1.1 4.9.4 7.3.2 4.6-.3 8.9 1.1 13.3 1.6s10.7 2.6 16.1 3.3c7.3 1 13.8 4.5 20.6 6.8a8 8 0 0 1 2.7 2.2c1.5 1.6 3.2 3 4.5 4.7a13.6 13.6 0 0 1 2.4 5.2c.3 2.3-1.8 3.3-4.1 2.3-5-2.2-9.3-6.3-14.7-7-7.7-1.1-15.3-3.2-23.1-3.6-5.5-.4-11.3-.9-16.5-3.5a2.5 2.5 0 0 0-1.6-.5c-10.3 1-20.5-.3-30.7-.4s-22.8-1.6-34.2-2c-7.4-.2-14.9-1.1-22.5.4-4.4.8-9.3.1-13.9.2a108.7 108.7 0 0 0-12.8.5c-6.6.7-13.2.7-19.8 1.6s-14.2 2.7-21.7 1.6c-3.3-.5-6.9 1.1-10.4 1.7s-4.7.7-7 .8c-6.1.4-12.6-.6-18.3 1-10.7 3.1-21.8 2.1-32.6 4.9-5.5 1.3-11.4 1.3-17.1 1.4-4.1.1-8.1 2.5-12.2.4-2.8 2.9-6.3 1-9.4 1.3s-6.3.5-9.5.8l-14.7 1.3c-7.3.6-14.5 1.6-21.8 1.7s-14 1.4-21 1.5-16 1.3-24 2.4-16.6 2.8-25 3.3c-4 .2-8.4 1.9-12.5-.9a6.2 6.2 0 0 0-5.5-.2c-5.4 2.9-11 2.7-16.7 2.7s-12.3.2-18.4.1-12.1-.6-18.2-.9a8.9 8.9 0 0 0-2.3 0c-5.4 1.6-10.9.2-16.4.3-8.8.1-17.5-2.1-26.4-2.3s-17.6-2.5-26.5-2.9-19.9-2.6-29.8-3.8c-8.2-1-16.1-3.5-24.3-4a74.3 74.3 0 0 1-8.1-.9c-6.6-1.3-13.4-1.4-20.2-2.2a44.5 44.5 0 0 0-12.1-.3 3.2 3.2 0 0 1-1.7 0c-4.2-2.4-9-1.7-13.2-1.6s-10-1.1-15.1-.8-8.5-.6-12.7-.7-5.5.1-8.3.2l-9.4.7c-3.9.1-7.7-.2-11.6.9s-7.9 0-11.8.3c-9.5.7-19 1.6-28.4 2.6l-19.3 2.3-16.4 2.1c-7.2.9-14.5 1.7-21.7 2.7s-16 2.3-24 3.3c-1.8.3-3.6 0-5.4.2-7.1.8-14.4 1-21.3 2.7s-11.6 2.6-17.4 3.7c-8.3 1.6-16.5 4-24.7 6.3-4.9 1.4-10.1 1.5-14.7-1.9-1.3-1-1.3-1.8-.3-2.9l.5-.4c6.5-3.2 12.2-8.1 19.9-8.9a18.8 18.8 0 0 0 4.5-1.2 147.7 147.7 0 0 1 24.5-6.6l3.5-.4z" fill="#fff"></path><path d="M681.9 97c1-10.1 1.5-20.2 2.9-30.1.7-5.3 2.8-10.4 4.3-15.7a40.5 40.5 0 0 1 1.2-4.7c1.9-5.2 3.6-10.5 5.8-15.5s4.4-7.4 6.7-11.1c.8-1.4 1.8-2.6 2.5-4 2.8-5 7.1-8.5 11.4-12.1s7.4-3 11.2-3.7 7.1 2.3 7.5 7c.7 7.3-.4 14.4-1.8 21.6-.2 1.1-1.2 2.9-.9 3.1s2.1-1 3.2-1.6c4.2-2.3 8-5.2 12.8-6.1a4.2 4.2 0 0 0 2-1c2.2-2.5 5-2.7 8-3A10.3 10.3 0 0 1 770 31.8c-.7 5.1-2.1 9.7-5.2 13.8-6.7 8.9-13.6 17.9-22.2 25.2a115.6 115.6 0 0 1-9.8 7c-.5.4-1.3.7-1.4 1.1-.6 2.6-3.1 3.3-4.8 4.8a135.4 135.4 0 0 0-23.1 24.7c-3.3 4.7-6.3 9.5-10.4 13.7-1.1 1.1-1.2 3.1-1.7 4.7s.1 2.4-1.4 2.6-3.4-1.3-3.9-2.6c-1.2-3.2-1-6.9-3-10a2.7 2.7 0 0 1-.2-1.3c-.3-6.2-.6-12.4-1-18.5z" fill="#f56c6c"></path><g fill="#f56c6c"><path d="M687.8 174.9c-.9 3.3-2.2 7.3-3.2 11.3-1.4 5.8-2.7 11.6-3.8 17.4-.7 3.6-.2 6.3 4.3 7.8s5.7 4.1 8.5 6.3c5.1 4 10.2 8.1 15.4 12s10.3 7.5 15.4 11.2 7.8 5.4 11.6 8.3 4.8 4 7.3 6.1c9.9 8.5 19.7 17.1 29.7 25.6 6.7 5.7 13.8 11.1 20.4 17 4.7 4.3 8.9 9.1 13.2 13.7a2.8 2.8 0 0 1-.3 2.5 79.1 79.1 0 0 1-7.5 5.4c-2.7 1.6-4.4 1.1-5.7-1.6s-5-6.6-8.9-8.8-7.2-5.6-10.7-8.4-4.4-4.2-7-5.5c-7.7-3.8-13.1-10.2-19.7-15.3s-10.7-8.9-16-13.3-8.4-7.2-12.7-10.6-9.4-6.7-14.1-10c-2-1.4-4.2-2.8-6.2-4.3l-18.3-14.2-4.1-3.5c-2.2-1.7-4.2-3.8-6.6-5-4-1.9-7.1-4.9-10.5-7.6-6.8-5.4-13.9-10.4-20.8-15.6-9.4-7-18.7-14.1-28.1-21-4.2-3.1-8.5-5.8-12.7-8.8l-42.9-30.8c-5-3.6-10.3-6.7-15.5-9.9s-9.3-5.4-12.8-9.7c-1.5-1.8-3-2.2-5.1-1-8.4 5.1-16.6 10.2-25.1 15-13.4 7.6-27.1 15-40.6 22.5-4.8 2.7-9.4 5.8-14.3 8.5-6.9 3.8-13.9 7.5-20.6 11.7s-16.1 9.3-24.2 13.9c-1.3.7-2.5 1.7-4.4.8-4.6-2.3-5.4-5.6-1.5-9a44.1 44.1 0 0 1 9.2-6.3c9.9-4.8 18.5-11.5 28-16.8l21.8-12.3c3.2-1.8 6.3-4.1 9.7-5.6 7.4-3.1 13.8-7.9 20.7-11.8l25.4-14.3c5-2.8 9.9-5.7 14.8-8.7 2.9-1.8 5.4-1.6 8.4.3 5.6 3.4 10.2 7.9 16.1 11 9.3 4.9 17.6 11.4 26.4 17.1l17.9 11.7 16.1 11.1c6 4.2 12.1 8.3 18 12.6 7.6 5.4 15 11.1 22.5 16.6a3.4 3.4 0 0 0 .9.8l7.9 5c.4-2.8 1.3-5.7 1.2-8.5s2.4-6.5 3.9-9.6a3.7 3.7 0 0 1 2.5-1.4c6.5-.7 13-1.4 19.6-1.7 4.5-.2 7.3 2.9 7.1 7.7zM668 195.3h-.5a4.7 4.7 0 0 0 .4 1.7 21.2 21.2 0 0 0 1.1 2.1 13.4 13.4 0 0 0 .7-1.8c1.2-6.1 2.4-12.1 3.5-18.1.3-1.1-.5-1.9-1.8-1.4s-2.5 1.5-2.6 3.5c-.1 4.6-.5 9.3-.8 14z"></path><path d="M791.2 907.9c-.2-3.3-.5-6.6-.5-9.9s.5-8.7.6-13.1a35.4 35.4 0 0 0-.2-4.6c-.1-1.6-.6-3.2-.4-4.7.3-4.3.1-8.6.1-12.9-.1-9.4.6-18.8.7-28.1.1-6.7-.4-13.3-.4-19.9s.5-11.4.5-17.1c0-3.8-.4-7.7-.1-11.6s-.4-7.1-.7-10.6-.8-5.9-.9-8.8c-.1-4.7 0-9.4 0-14s-.6-9.8-.2-14.5c.7-8.1-.5-16.1-.1-24.1.5-10.2 1.5-20.4 1.4-30.6 0-5.4.8-10.6.8-15.9-.1-9.9.2-19.7.2-29.6s1-17.1.6-25.6c-.3-5.9.8-11.7.5-17.6s-.1-11.9-.1-17.9c0-20.3-.2-40.6.2-61 .1-5.3-.8-10.6-.4-15.8s-.8-11.6.1-17.6c1.1-7.7.5-15.7 1.1-23.6s-.3-17 1.6-25.4c.6-2.8.4-5.8.4-8.7.3-13.4.5-26.8.8-40.1.1-2.2.8-4.3 1-6.5.5-6.2.8-12.5 1.4-18.8.8-8.6 1.9-17.1 2.9-25.7a6 6 0 0 1 .6-2.3c.8-1.2 1.1-3.5 3.2-2.7s4.7-.4 5.3 2.8 1.1 3.8 1.1 5.8c0 4.9-.4 9.8-.6 14.7s-.3 7-.6 10.5c-1.3 17.4-1.1 34.9-1.2 52.4 0 5.8-.5 11.5-.7 17.2s-.2 13.8-.6 20.6c-.5 8.5-1.7 16.9-1.9 25.4s.3 16.8.5 25.2c.1 4.3.2 8.6.2 12.9v16.3c0 1 .1 2 0 3s-.6 4.7-.1 7.3c.9 5.1.4 10.4.2 15.5s-1 11.5-1.1 17.2c-.2 10.4 0 20.8-.2 31.1s-.1 20.7-1.2 31-.5 23.3-1.1 35c-.3 4.9-.8 9.8-1 14.7-.3 6.7-.4 13.3-.6 20-.3 11.8-.6 23.7-.8 35.6-.2 9.4-.5 18.8-.4 28.1.1 10.8.7 21.5 1.1 32.3 0 .7.5 1.7.2 2.3-2.4 5.5-.6 11.3-.7 16.9s.2 11.1.3 16.7c0 .2.2.4.2.6-2.9 10.8.4 21.7-.7 32.5-.4 3.8-1.1 7.5-1 11.2.1 7.1.8 14.1 1 21.2a33.4 33.4 0 0 1-.8 7 39.9 39.9 0 0 0 0 14.2 9.3 9.3 0 0 1-3.6 8.8c-1.9 1.7-5.6 1-6.6-1.3s-2.9-7.2-4.3-10.9a2.9 2.9 0 0 1 1.7-3.9c3.3-1.5 3.4-1.6 3.3-4.1s-.4-4.3-.5-6.5z"></path><path d="M138.5 392.3c-.7 11-1.5 22.1-2.1 33.3-.3 6.7-.4 13.4-.4 20.1-.1 9 .2 18.1-.1 27.1s-1.3 19.3-2 29c-.5 6.3-.9 12.6-1.3 18.9-.9 11.1-1.7 22.1-2.5 33.2-.6 8.5-.9 17-1.8 25.4-.7 6-.2 12-1 17.9s.1 10.1-1.2 14.7c-2.1 7.5-1 15.1-2 22.5-1.5 10.8-2.5 21.5-3.5 32.3-.3 3.7-.2 7.4-.3 11.2 0 .9-.1 1.9-.2 2.9-1 9.8-2.5 19.5-2.8 29.2-.2 3.7-.2 7.4-.5 11.1-.8 10.3-.4 20.6-1.9 30.9-.9 6.9-.9 14.1-1.2 21.2-.2 4.9-.3 9.8-2 14.6-.9 2.7-.3 5.8-.7 8.7-.6 5.5-1.6 10.9-2.3 16.4-.3 2.7-.5 5.5-.6 8.3l-2.1 29.4c-.4 5.4-.2 11-1.2 16.3s0 11.5-2.4 16.8a2.2 2.2 0 0 0-.1 1.6c1.8 2.8.9 5.7.6 8.6-.4 5-1 10.1-1.4 15.1a22.7 22.7 0 0 0 .5 3.5 18.9 18.9 0 0 1 .3 4.1c-.2 3.3-1 6.7-.8 10 .3 5.5-.8 10.9-1 16.4-.3 7.5-1 15.1.4 22.6.6 2.6-.5 5-2.4 7s-.1 4-2.7 4-2.9-2.4-4-4-1.9-5.1-1.6-8.3c.6-6.6.2-13.3.4-20 .3-11.4.3-22.8 1.4-34.1.5-5.7.5-11.4.9-17.1.6-10.4.8-20.9 2.1-31.2.7-6.1 1.7-12.1.8-18.2a8.6 8.6 0 0 1 .2-2.3c.8-6.2 1.9-12.4 2.5-18.6s.5-12.9 1.1-19.3c.5-4.6 1.6-9.2 2.4-13.8s1.3-6.3 1.5-9.4.2-7.8.3-11.7.3-5.5.4-8.2c.1-5.1.1-10.1.2-15.2s.2-8.1.5-12.2 1.1-7.4 1.1-11.2c.2-6.3.7-12.7.3-19.1a46.2 46.2 0 0 1 1.1-10.5c1.4-7.9-.5-16.1 1.8-24 .6-2.2.4-4.7.5-7.1.4-8.5.2-17.1 1.5-25.4 2-12.5 2.5-25 3.2-37.6s1.4-27.5 2.4-41.2c.6-9.3 2-18.5 2.8-27.7.6-7.1.7-14.2 1.2-21.2.4-5.5 1.3-11 1.7-16.5.6-8.1 1.2-16.1 1.3-24.2.1-5.9-.1-11.7.9-17.6.5-2.9.6-5.9 1.4-8.9-3.1-3.3-.5-7.1-.8-10.7s.8-4.2 1-6.4c.6-8.4 1.2-16.8 1.7-25.2q.3-6.5.3-12.9c0-2.7.8-3.5 3.4-3.7 4.3-.4 5.7.6 6.5 4.8a33.8 33.8 0 0 1 .3 5.6z"></path><path d="M164.8 340.3c-1.9-.4-3.4-.2-4.1-.9a19.3 19.3 0 0 1-4.1-5.4c-.9-1.7 0-3.3 1.7-4.5 7.2-5.2 14.4-10.4 21.4-15.9s10.9-9.1 16.5-13.5c3.4-2.7 7.1-5 10.8-7.4s6.3-4 9.4-6c5.2-3.5 10.1-7.7 15.8-10.3s10-7 15.8-9.3 10.8-7.5 16.5-11 12.5-8.3 18.8-12.5a4.6 4.6 0 0 1 1.6-.7c2.1-.7 4.4-2.1 6.1-1.6s3.4 3.1 4.8 4.9a2.8 2.8 0 0 1 0 2.8c-1.3 1.9-2.6 4.1-4.5 5.4-6.1 4.7-12.2 9.6-18.9 13.4s-14.6 10.8-22.7 14.9l-1.6 1a222.8 222.8 0 0 1-27.2 18.8c-8.2 4.8-15.8 10.9-23.7 16.3-6.4 4.3-12.9 8.5-19.3 12.9-2.9 2-5.5 4.5-8.4 6.5a19 19 0 0 1-4.7 2.1z"></path><path d="M444.8 356.7c-3.6 1.9-7.3 2-11.4 2.2-5.8.2-11.6.6-17.5 1s-10.7 2.1-15.7 1-11.3.5-16.9.8l-33.8 2c-13.8.8-27.5 2.1-41.4 1.2-6.2-.4-12.5 1-18.7 1.2-3.3.2-6.6-.3-9.9-.4a31.4 31.4 0 0 0-5.3.3c-1.2 0-2.4.5-3.5.3-6.8-1.2-13.6.3-20.4 0-8.4-.2-16.8-.3-25.1-1.1-3.5-.3-6.8-1.6-10.1-2.6-.5-.2-.8-1.6-.6-2.4s.7-2.4 2.4-1.8c7.7 2.9 15.8 1.8 23.8 1.8s16.5-.7 24.7-.2c3.2.1 5.9-1.4 9.1-1s6.4.2 9.6.2h27.7c1.6 0 3.2.4 4.8.5s4.8 1.1 6.2.1c3.4-2.3 7-1.1 10.3-1.3 11.9-.8 23.9-1 35.8-2.6a5.7 5.7 0 0 1 1.8.3 39.1 39.1 0 0 0 12.3.5q9-.7 18-1.2c4.1-.3 8.4-.8 12.4-.2s4.9-1.1 7.4-1 5.2 0 7.8-.2 5-.6 7.4-.5 3.9-.6 5.5 1.3 2.2.7 3.4.9a2.8 2.8 0 0 0-.1.9z"></path><path d="M749.5 341.3c-5.7.4-11.4 1-17.1 1.1-11.7.2-23.5.1-35.2.1a37.8 37.8 0 0 0-4.7.6c-1 .1-2.3.6-2.8.2-3.4-2.6-6.9-.7-10.3-.7s-9.7-.1-14.6.4-12 1-18-.3c-1-.2-2.2.7-3.4.7s-3.1-.2-4.6-.2-2.6-.5-3-2.1a12.5 12.5 0 0 1-2.1 3 3 3 0 0 1-2.2.6c-4.7.5-9.5.8-14.2 1.4a44.7 44.7 0 0 0-8.1 1.6 5 5 0 0 1-5-1 3.9 3.9 0 0 1 .2-6.2c.9-.6 2.2-1.5 3.2-1.3 6.6 1 12.9-2.2 19.4-1.5 8.6 1 16.8-1.6 25.3-1.6 4.8.1 9.7-1 14.6-.8 13.8.8 27.7-.6 41.5.1 9.1.4 18.2 0 27.3.2 3.9.2 7.9-.7 11.8-.9a15.5 15.5 0 0 1 3.7.4h1.3a48.8 48.8 0 0 1 5.4-1.8l11.6-1.9a4.8 4.8 0 0 1 5.2 1.9c1.7 2.2 1.3 3.9-1.3 4.4-7.9 1.5-15.9 2.8-23.9 4.1z"></path></g><path d="M444.8 356.7a2.8 2.8 0 0 1 .1-.9 17.7 17.7 0 0 1-1.6-2.2c.8-.4 1.9-1.4 2.6-1.2 5.6 1.8 10.8-1.3 16.3-1.2s11-.7 16.5-1.1a9.3 9.3 0 0 1 2.9.1c.9.1 2.2.2 2.4.8s.6 3-1.2 3.4a58.4 58.4 0 0 1-10.3 1.8c-5.6.6-11.3.9-17 1.3-3.1.2-6.3.3-9.4.3-.4 0-.9-.7-1.3-1.1z" fill="#f56c6c"></path><g fill="#fff"><path d="M373.2 552.5c1.3-7.7-.2-16.1 3-24.1a2.2 2.2 0 0 0 .2-1.1c-.8-5.8 2-10.9 2.7-16.4s2-10.4 3.2-15.6 1.8-7.8 3-11.7c2.9-9 5.9-18 8.9-27 1-3 1.6-6.1 3-8.9 3.7-7.7 6.1-16 10.4-23.4a33.1 33.1 0 0 1 1.5-3.3c4.8-6.1 8-13.2 10.8-20.4s9.6-13.8 16.6-18.7c2.5-1.7 4.7-3.6 8.1-4.5s7-1.3 10.4.5c.6.2 1.1.7 1.7.7 4.1.4 6.9 2.7 9.7 5.6s2.8 2.7 3.4 5.1 2.3 5.4 3.8 7.9c3.2 4.8 3 10.6 5.3 15.7a4.7 4.7 0 0 1 .3 1.7c-.3 5.9-.6 11.8-.8 17.8-.1 2.5.2 5.1-.1 7.6s-1.1 6.9-1.4 10.3-.2 7.1-.4 10.7c0 1.4-.4 2.8-.3 4.1.6 5.2 1.4 5.5 6.3 3.4 2.4-1.1 4.6-3.4 7.7-2 4.5-2.7 9.3-5.1 13.4-8.4 1.9-1.5 2.6-4.8 3.4-7.4 1.5-4.5 2.7-9.1 4.1-13.7a154.9 154.9 0 0 1 10.3-26.2c1.8-3.3 3.9-6.3 5.7-9.5s5.3-2.1 7.8-3.3 2.9 1.5 4.3 2.4l7 4.3c3.5 2.2 6.5 4.5 8 9 2.3 6.9 2.9 14.1 4.2 21.3a20.3 20.3 0 0 1 .1 6.5 15.2 15.2 0 0 0 .6 7.6 9 9 0 0 1 .2 4 58.8 58.8 0 0 0 .2 15.1c.6 3.7-.4 7.7.7 11.2s1.5 9.9 1.6 14.7.6 8.9.4 13.4.8 9 1 13.5c0 1.7-.7 3.5-.8 5.2s.6 1.4.9 2.1 1.5-.6 1.7-1.1c1.5-2.7 2.9-5.4 4.2-8.2l11.4-24.7c.3-.6.8-1.1.8-1.6.2-8 7.3-13.2 8.4-20.8 5.2-6.7 5.8-15.8 11.1-22.5 1.1-1.4.7-3.9 1.5-5.7 1.6-3.4 3.6-6.6 5.5-9.9s2.7-5.7 4.6-8.1 4.1-4.1 3.9-7.3a.5.5 0 0 1 .3-.5c6-5.7 7.9-14.1 13.6-20 1.2-1.3 2.1-1.8 3.4-1.4 3.8 1.2 7.4 2.7 11.6 1.3 1.3-.5 4 .3 3.4 3.4-.2 1 1 2.2 1.2 3.3s1.2 4.2.5 5.8c-3.3 8.6-3 17.5-3.3 26.4a37.3 37.3 0 0 1-.9 4.6c-.6 2.5-1.5 4.6-.8 7.5s-.2 5.9-1 8.7c-1.9 6.9-2 14-3.5 20.9s-1.2 11.2-2 16.8c-1.6 11.6-3.2 23.3-5 34.9-.9 6.2-2.3 12.3-3.3 18.5s-1.4 12.1-2.4 18.1c-2.1 11.9-2.9 24-3.7 36-.1 2.1-.5 3.5-3.4 3.8-4.9.5-9.6 2.1-14.5 3.1s-4.4.2-5.5-3.5a7.2 7.2 0 0 1-.6-2.9c.5-5.1 1.1-10.2 1.6-15.3.4-2.9 1.3-5.9 1-8.7-.8-6.2.6-12.2 1.6-18.2 1.5-9 2.7-18 4-27s2.9-21.1 4.4-31.7c.5-3.5 1.1-7 1.5-10.6.8-6 1.4-12 2.1-18.1 0-.3-.1-.7-.1-1.1a6.1 6.1 0 0 0-1.4.7 3.6 3.6 0 0 0-1.1 1.4c-4.2 10.5-8.3 21.1-12.7 31.6-1.2 3-3 5.6-4.3 8.5-2.9 6-5.5 12.1-8.5 18.1s-5.6 12.1-9.6 17.7c-2.3 3-3.6 6.8-6.8 9.2-.8.5-1.7 1.3-2.5 1.2-3.6-.3-6.5 2.5-10 2.4a1.2 1.2 0 0 0-1 .6c-2.1 3.1-4.8 2-6.5.2s-6.4-5.5-8.2-10c-3.2-8.1-3.7-16.5-4.9-24.8s-.7-17.6-1.2-26.5c-.5-7.2-1.8-14.5-1.8-21.7s-.8-11.3-1.1-17 0-13.2-.1-19.8c0-.4-.5-.8-.8-1.2s-1.1.8-1.2 1.3c-.7 4.1-1 8.2-2.5 12.2s-1.7 6.4-2.6 9.6-2.1 6.7-3 10.1-2.6 6.2-1.6 9.8c.3 1.4-1.4 3.1-1.7 4.8-2.8 11.7-6 23.4-8.1 35.2-1.6 9.2-4.5 18.1-6.9 27-3.5 12.7-6.3 25.5-9 38.4a40.8 40.8 0 0 1-4.4 11.6c-2.5 4.6-7.4 4.8-12 5a45.1 45.1 0 0 0-5.2.1c-4.6.6-6.7-1.4-5.8-5.9s1.9-7 2.7-10.5c1.9-7.8 4.1-15.6 5.8-23.4s3.7-14.8 5.1-22.3 2.9-14.4 5.9-21.3c1.4-2.9 1-6.6 1.7-9.9 1.3-6 2.8-11.9 4-17.9 1-4.2 1.6-8.5 2.5-12.8.5-2.1-1.1-1.9-2-1.6-3.3 1.4-6.5 2.8-10.2 1.9-.5-.2-1.2.8-1.8 1s-3.8 1.4-5.6 1.4c-4 0-4.1-.3-4.5 2.7A289.8 289.8 0 0 1 465 532c-3.4 12.3-6.7 24.7-13 35.8-2.8 5-4.6 10.9-8.5 15.1s-8.6 12.9-15.8 16.5c-5.2 7.3-14.1 6-21 9.3-2.5-1.8-5.2 1.1-7.4 0-4.5-2.2-9.7-3.4-12.8-7.9a35.5 35.5 0 0 1-5.3-9.8c-2.6-7.7-4.1-15.6-6.2-23.4-1.2-4.7-1.2-9.7-1.8-15.1zm78.8-65c-.3-.6-.5-2.1-1.3-2.5-4.5-2-8.1-6-13.9-5.4-1.9.2-4.9-1.4-6-3.1-3.3-5.2-5.9-10.9-8.9-16.3-.2-.5-.8-1.3-1-1.2s-1.7.6-1.9 1.1a81.9 81.9 0 0 0-3.5 9.4c-1.9 7.1-5.2 13.8-6.4 21.2a22.2 22.2 0 0 1-1.4 3.2 29.1 29.1 0 0 0-1.2 3.9c-.7 4.2-1.3 8.4-2.1 12.5s-1.9 8.3-2.5 12.5.4 6.5-.7 9.2c-2.5 6.2-2.4 12.7-3 19.1-.4 3.9 1.9 7.7.4 11.7-.1.5.4 1.1.5 1.7l3.9 14.8a13.4 13.4 0 0 0 1.3 4c1.2 2.2 5.2 4 6.5 2.7s3.1-4.9 6.3-5.6c.3-4.6 4.3-7 6.6-10.3a86.5 86.5 0 0 0 11-21.9c3.1-9.6 6.6-19 9.9-28.6.7-2 1.9-4.2 1.7-6.2-.2-4.2 1.3-7.7 2.4-11.5s2.2-9.2 3.3-14.4zm-17.2-56.6c-.9 7.3 2.7 13.2 3.3 19.6 2.5 1.4 1.3 5.6 4.8 6.2a1.8 1.8 0 0 1 .8 1.5c-.7 3.3 3.2 3.5 3.6 5.1s3.4 2.8 5.3 3.7 3.4.4 3.5-1.8.3-6.5.4-9.7a194.7 194.7 0 0 1 2.1-25.3c1.4-8.5 1.9-17.2-2.4-25.4-1.3-2.5-2.3-3-4.4-1.1s-7.4 6.1-9.8 10c-3.4 5.4-9.2 10.1-7.2 17.2z"></path><path d="M564 721.5c.5-3.9 1.1-7.8 1.6-11.8a1.6 1.6 0 0 0-.6-1.5 1.6 1.6 0 0 0-1.6.1c-4.3 2.7-9.5 4.8-12.6 8.6-5.4 6.3-12.6 9.6-18.9 14.3a34.9 34.9 0 0 1-7.1 4.4c-3.6 1.7-7.4 2.5-11.5 1.1-2.5-.8-4.5-3.7-7.7-2.3-1.8-2.2-4.6-4.2-5.2-6.7s-2.2-6.4-.7-9.7a4.8 4.8 0 0 0 .1-2.4c-.2-1.4-.7-2.4-2.3-1.3a20.4 20.4 0 0 0-3.3 2.5c-4.6 4.4-8.9 9.1-13.7 13.1a33.1 33.1 0 0 1-11.4 6.4 14.4 14.4 0 0 1-11.9-1.6c-1.2-.7-2.3-1.6-3.4-2.3s-3.1-3.9-2.9-6.7c.2-6.3.6-12.5 3-18.5a4 4 0 0 0 0-1.1 4.5 4.5 0 0 0-1.4.6c-5.1 5.2-10.5 10-15.3 15.6s-11.9 9.9-17.2 15.5-10 5.7-14.6 9.4-11.5 4.3-17.8 2.1a31.3 31.3 0 0 1-6-2.4 10.1 10.1 0 0 1-5.1-6.7c-2.4-9.8-1.8-19.4-.2-29.1a4 4 0 0 0-.3-1.5l-1.2 1.3c-7 7.2-13.5 14.9-21.1 21.6a76.3 76.3 0 0 1-19.6 12.1 5.8 5.8 0 0 1-2.6-.1c-.5-.1-1.2-.8-1.5-.6-4.2 2.2-7-1-10.4-2.3s-3.7-4.5-6-6.3c-.4-.4.1-1.9.2-2.8.5-3.3 1.1-6.6 1.5-10a1.2 1.2 0 0 0-.3-1c-.2-.2-.8 0-1 .2l-2.1 2.1c-5.8 5.4-11.3 11.1-17.3 16.2s-12.9 9.4-20.8 11.2a6.8 6.8 0 0 1-4-.2c-3.1-1.2-6.1-2.6-9.1-4.1-.6-.3-.8-1.2-1.1-1.8s-.5-2.5-1.2-2.9c-3.7-2.4-3.6-6.5-4.7-9.9s.3-5 .6-7.6a72.8 72.8 0 0 1 1-8c.7-2.7 1.3-4.9-.7-7.5a6.9 6.9 0 0 0-6.9-2.4c-4.7.7-8.8-1.8-13.3-1.8-2.3 0-3.7-2-5-3.8s-3-2.2-5.2-1.1-7.5 2.9-10.9 4.9a42.5 42.5 0 0 0-14.4 14.8c-3.5 6-6.5 12.3-7.4 19.3a21.9 21.9 0 0 0-.3 3.6c.9 5.1-1 9.8-2.5 14.4s-4.2 4.7-8 2.9l-1.5-.8c-1.6-.7-3.9-1-4.6-2.2a12.3 12.3 0 0 1-1.4-6.8 33.5 33.5 0 0 1 1.9-9.3c2.6-7.7 5.2-15.3 6.6-23.4.9-5.4 2.9-10.6 4.4-16 2-7.6 3.7-15.4 6.1-22.9a63.8 63.8 0 0 1 5.2-11.3c.7-1.5 2.2-2.4 2.9.3l.6.2c4.9 2.9 4.7 2.9 3.5 8.2-1.5 6.9-2.7 13.9-3.7 21-.5 2.8.5 3.2 2.9 1.6a27.2 27.2 0 0 1 12.1-4.7c2-.1 3.9-2.3 5.6-3.8s.2-1.4.1-2.1a38.3 38.3 0 0 1 4.3-21.8c2.8-5.4 9-6.6 14.8-3.3 3.7 2.2 6 5.1 5.8 9.7s-.5 11.5-6 15.3c-1.1.7-1.7 2.2-2.5 3.3-2.6 3.4-2.5 4.1 1.3 6a13.6 13.6 0 0 0 5.6 1.8 129.9 129.9 0 0 0 14-1.1c3-.4 4.5-2.7 5.4-5.4a17 17 0 0 1 6.5-8.3c2.7-1.9 4.5-5 7.2-6.8 8.6-6 14.2-3.8 20.4 1.5 2.9 2.4 3.1 5.9 2.5 9.3a21.6 21.6 0 0 1-8.3 12.7 124.9 124.9 0 0 1-12.9 8.5c-1.1.7-2.5 1.7-3.8 1.6-4.4-.4-5.4 2.5-6.1 5.7s-2.1 9.3-2.4 13.9c-.2 2.2 1 4.6 2 6.8s2 1.1 3 1.2c3.8.1 6.8-2.3 9.7-4.1 7.3-4.8 13.7-10.9 19.9-17.1 8.7-8.6 17.5-17.1 27.8-23.8 5-3.3 9.4-7.5 14.4-10.6s11.1-5.1 17.6-4.4c2.9.4 5.9 0 8.9.3s6.2 0 8.8 2.3 3.2.1 4.5-1.5l11-13.8 14.9-18.5c4.6-5.8 9.8-11 13.6-17.4 1.7-2.9 3.5-2.7 5.5.1s2.1 4.2.1 6.9a168.1 168.1 0 0 0-10.2 16.1c-2.3 3.9-4.3 8-6.4 12.1-4.8 9.6-9.5 19.3-14.4 28.8s-9.3 21.4-9.6 33.3a42.2 42.2 0 0 0 1.4 9.9c.4 1.9 1.7 2.5 3.6 1.5 4.3-2.2 8.8-4.1 13.1-6.5 7.5-4.2 13.7-10 19.7-16.2s12-11.4 18.2-17a93 93 0 0 1 8.1-5.9c4.2-3.1 8.1-6.7 13.7-7.4 1.4-.2 2.6-1.9 3.9-2.7a7.4 7.4 0 0 1 8.8.9c1.9 1.8 2.2 3.6.2 5.6-8.4 8.6-12.1 19.4-15.1 30.6a10.3 10.3 0 0 0 0 3.5c.1 1.3.9 1.5 2 .8a35.4 35.4 0 0 0 10.2-7.1c4.4-4.7 9.6-8.8 14.7-12.9 7.3-6 14.7-11.8 22-17.7 3.6-3 4.4-2.5 7.4 1.3s2.4 6.3-.2 9.9a35.1 35.1 0 0 0-5.8 11.6c-1.3 4.9-1.4 10.1-1.8 15.1 0 .5 1.7 1.5 2.6 1.5a9 9 0 0 0 3.9-1.3c5.2-3 10.6-5.6 15.2-9.3a144.9 144.9 0 0 1 16.5-11.2 6.7 6.7 0 0 0 2-1.2 42.7 42.7 0 0 1 10.8-8c10.6-5.6 18.9-14.2 28.1-21.8 5.1-4.2 10.8-7.1 18-6.1s8.7 5.2 12.5 8.5c1.4 1.2 1.3 4.7 1.1 7.2a12.7 12.7 0 0 1-2 5.5 2.4 2.4 0 0 1-4.1.3c-1.4-1.8-3.3-3.2-3.6-6s-2.1-4.6-6.2-3.2-7.9 5.2-11.7 7.9c-6.2 4.6-10.1 11-12.9 18.1a46.3 46.3 0 0 0-3.7 19.7c.3 4.4.5 4.6 4.9 4.4 2.1-.1 4.2 0 6.3-.2 6.7-.6 11.9-4.8 17.4-8 10.1-5.8 19.6-12.6 29.4-19 4.8-3.1 9.6-6.1 14.4-9.3a4.6 4.6 0 0 0 1.7-2.2c1.6-7.7 5.5-14.5 10.4-20.4s11.6-12.8 19.6-16 15.6-6.9 24.4-6.4c4.9.2 8.9 3.2 12.2 6.2s3.3 5.7 3.3 8.6c-.1 5.4-.2 10.9-4.7 15.5-3 3-4.9 7.2-9.6 8.2-1.6 2.9-4.5 4.4-7.3 5.6-4.4 1.8-8.9 3.4-13.4 5.1s-11.1 3.9-17 4.3c-1.6.1-2.1.8-1.6 2.3s.4 4.5 1.6 5.5 5.4 4 7.9 3.7 5.3 2.7 8.4.2 5.1-1.6 7.7-2.6c9.3-3.8 18.5-7.9 27.9-11.5 7.1-2.7 15.8.7 19.4 7.2.8 1.5-.4 3.6-2.1 3.2-6-1.6-10.8 1.6-15.7 3.9-6.8 3.1-13.3 6.9-19.8 10.4s-10.7 3.2-16.5 3.8-13-1.4-19-4.3a34.3 34.3 0 0 0-4.5-1.6c-3-1-5.9-4-7.5-7.3a61.1 61.1 0 0 0-3.8-6.5c-1.7-2.7-2.5-3-5.1-1-8 6.1-16 12.4-24.2 18.3-6.6 4.7-13.3 9.3-20.3 13.5s-14.4 4.3-22.2 1.9a46.7 46.7 0 0 1-10.3-4.3c-4.6-2.7-7.9-6-6.8-11.9a15 15 0 0 0 0-3zm-236.1 7.9a4.3 4.3 0 0 0-.2 1.1c-.2 2 0 3 2.5 2.1 6.7-2.2 12.5-6.2 17.7-10.5 10.4-8.6 18.7-19.3 26.7-30.2.7-.8.8-2.1 1.2-3.1-1.5-.1-1.9-3.1-4.4-1.4s-3.8.9-5.7.9c-7-.2-12.9 2.9-18.1 7.1-2.9 2.4-5.2 5.5-8 8-7.5 7.1-10.2 16.3-11.7 26zm378.5-70.1c-4.3-1.8-7 2.9-10.8 2.8-6.6 4.4-13.7 8.4-18.3 15-3 4.3-5.1 9.3-7.6 14a2.1 2.1 0 0 0 .4 1.9 2.5 2.5 0 0 0 2.1.1c1.8-.6 3.5-1.7 5.3-2.3 7.2-2.1 14.5-3.9 20.6-8.6a5.8 5.8 0 0 1 2.1-1c2.9-.7 4.7-2.8 6.6-4.8s3.5-6.5 5.1-9.8.6-4.7-.7-6.7-3.1-1.5-4.8-.6zm-476 17.8l.9 4.6.3 1.6c.7-.4 1.6-.5 1.9-1.1 2.3-3.9 4.4-8 4.6-12.6a10.1 10.1 0 0 0-.3-2.5c-.9.2-2.1.1-2.7.7-2.7 2.5-4.8 5.3-4.7 9.3zm59.8 7.4c-.5 0-1.1-.1-1.4.1-2 1.3-4.3 2.3-5.8 4s-5.3 4.8-6 8.5a8.6 8.6 0 0 0 0 1.6c.3 0 .8.1 1-.1 4.5-3.8 9.6-6.9 11.8-12.7a6.2 6.2 0 0 0 .4-1.4z"></path><path d="M475.4 319.3c.5-2.7 1.2-5.4 1.5-8.1s.5-7 .7-10.5l.3-6.3a54.3 54.3 0 0 1-4.2 5.3c-6.3 6.2-11.8 13.1-19.4 17.8-4.2 2.7-8.5 3.8-13.4 2.3-2.9-.9-5-2.7-5.7-5.6a65.2 65.2 0 0 1-1.6-19.7c.6-7.4 4.1-13.7 5.8-20.6.1-.4-.2-1-.2-1.5a7.3 7.3 0 0 0-.9.8c-4.6 6.9-9 14-13.7 20.9s-9.5 13.2-14.2 19.8l-15.3 21.3c-5.4 7.5-18.2 10.9-25.4 5.8-2.4-1.7-3.8-5.4-4.8-8.5s-.6-5.8-.4-8.7a103.6 103.6 0 0 1 1.2-11.2c1.3-7.6 2.3-15.3 4.3-22.7 2.7-10.1 6.2-19.9 9.4-29.8a228.8 228.8 0 0 1 13.8-32.7c.6-1.2 1.4-2.4 1.9-3.7s1.4-3.5 2.1-5.3c-1.8 0-3.6-.5-5.2 0a8.1 8.1 0 0 1-6.8-.9 9 9 0 0 0-3.4-1.1c-5.2.1-7.4-4.2-10-7.3s-.9-13 4.3-15.3c.5-.2 1.3-.5 1.6-.3a71.7 71.7 0 0 1 6.3 4.5 7.7 7.7 0 0 1 1.4 2.5 8.9 8.9 0 0 1-3.2.5c-2.2-.6-1.8.4-1.2 1.7 1.8 4.4 3.7 5.8 9.4 4.7a19.5 19.5 0 0 1 6.8-.1c3.3.5 5.9-.2 7.4-3.4a29.8 29.8 0 0 0 1.8-3c2.9-7.4 7.3-14 11-20.9a65.1 65.1 0 0 1 4.3-6.4c1.5-2.3 3.8-2.7 6.3-2.4s4.7 2.9 2.4 5.3c-5.1 5.3-5.7 12.5-8.8 18.7a7.8 7.8 0 0 0-.2 1.6 4.9 4.9 0 0 0 2.1-.1c4-1.7 8.1-3.3 12-5.2s6.3 0 8.8-2.3c7.8 3 17.5 2 22.5 11.1 1.5 2.9 4.1 5.2 6 7.9s.5 3.9-2.2 3.7a6.7 6.7 0 0 1-3.4-.9c-3-1.9-6.2-3.7-8.8-6.1-4.9-4.4-10.1-3.5-15.4-1.5s-11.1 4.3-16.5 6.6c-.7.2-1.2 1-1.9 1.4-2.6 1.5-5 3.8-7.8 4.2s-5.3 3.3-6.7 6.7c-2.4 5.9-5.6 11.5-8.1 17.3s-5 11.6-7 17.6c-3.6 10.3-7.2 20.6-10.3 31-2.1 7.2-3.2 14.6-5.1 21.9s-1.8 14.6-1.7 21.9c0 3.2.8 3.6 3.3 1.6s5.4-4.3 7.3-6.9c7.1-10.4 15.2-20 21.8-30.6 4.7-7.6 10.7-14.4 14.6-22.5 2.6-5.5 7.1-9.9 10.8-14.9l4.2-5.8c2.5-3.5 4.8-7.3 10.1-6.8a3.3 3.3 0 0 0 1.6-.9l9.4-8.2c4.7-3.9 9.2-7.9 14.1-11.6a113.5 113.5 0 0 1 11.2-6.6c.9-.5 2.2-.2 3.4-.1 2.7 0 5.6-.3 8.2.4s7.1 2.1 9.8 4.2a15.1 15.1 0 0 1 5.2 11.6c.1 1.4-.6 3.6-1.6 4.3-3.4 2.2-3.9 5.9-5.3 9-3.1 7-6.5 13.9-8.7 21.2-4.1 13.8-9.2 27.4-9.8 42a25.8 25.8 0 0 0 .3 2.9l.6 4.7a44.3 44.3 0 0 0 4.3-1.2c.8-.4 2.1-1.1 2.1-1.7 0-2.5 1.8-3.8 3.2-5.4 3.6-4 7.4-7.7 10.7-11.9s8-11 11.8-16.7 6.9-11.5 10.9-16.9 4.6-10.6 9.5-14.1a.9.9 0 0 0 .3-.5c2.3-8.4 10-13.8 12.6-22 .9-2.7 2.4-5.1 3-7.8 1.1-4.5 3.9-7.7 7.4-10.2a7 7 0 0 1 4.5-.7c4.9 1.1 5.8 3 3 7.4a64.5 64.5 0 0 0-8.6 20.7c-2.1 8.7-3.9 17.6-2.9 26.7.6 4.6 2.5 6.2 6.6 4.1s11-5.4 15.9-9.9c8.1-7.6 15.2-16 23.3-23.6a11.6 11.6 0 0 0 2.4-3.4c3.3-7.9 8.9-14.5 11.5-22.7a7.1 7.1 0 0 1 4-4 7.5 7.5 0 0 1 5.5.7c1.8 1.1 1.8 3 .5 5.2s-2.7 6.6-4.2 9.8c-3.1 6.4-4.2 13.4-6.6 20s-3.8 12-5.7 18c-.8 2.5-1.6 5.1-2.5 7.6l-6.3 16.6a29.8 29.8 0 0 0-1.1 4 8.2 8.2 0 0 0 .2 2.2 17.4 17.4 0 0 0 2.2-.5c2.8-1.1 5.4-2.5 8.3-3.2s4.3.6 3.8-2.9c0-.4 1.1-1.1 1.8-1.4 10.2-5.6 18.6-13.1 24.6-23.2 2.5-4.2 5.7-7.9 8.4-12 1.1-1.7 1.9-.9 2.7-.1 4 4.3 4.1 6.2 1.7 11.7s-3.6 8.4-6.9 11.7l-4.2 3.9a15 15 0 0 0-1.3 1.1c-3.1 6-9 8.5-14.1 12.2s-11.5 5.3-16.6 9c-1.4 1-3.3 1.2-5 1.8-3.6 1.2-7.3 2.5-10.9 3.9a2.6 2.6 0 0 0-1.3 1.4c-5.8 14.6-11.9 29.1-20.6 42.1-6 9-13.2 17.1-22.7 23.2-5.7 3.7-11.8 5.3-17.9 7.5-3.6 1.2-6.6-1.2-9.9-1.4-.6 0-1.2-1.4-1.8-2.2s-1.2-2.1-2.2-2.7c-4.5-2.7-5.6-6.9-5.6-11.9.1-8.8 5-15.6 9-22.9s8.3-10.6 13.1-15.2a75.3 75.3 0 0 1 17.5-12.7c7-3.8 14.8-6.2 22.3-9.1a3 3 0 0 1 1.1-.4c6.9.3 9.5-3.9 11.5-9.7 3.3-9.5 7.3-18.7 10.9-28.1a52.5 52.5 0 0 0 1.6-7.1c-1.6 1.5-3.3 2.9-4.8 4.4-5.4 5.2-10.5 10.9-16.3 15.5a32.9 32.9 0 0 1-19.1 7.4c-4.6.2-8.8-2.3-12.3-5.3a5.5 5.5 0 0 1-1.6-3.1c-.6-3.9-.9-7.9-1.4-11.8a15.2 15.2 0 0 0-.6-2c-.4.6-1 1.2-1.4 1.9-5.2 8.8-10.5 17.6-15.5 26.6a142.9 142.9 0 0 1-12 19.2c-6.5 8.6-14.8 15.3-22.7 22.5a12.4 12.4 0 0 1-3.6 1.9c-4.6 1.9-8.8-.3-13.1-1.1-2-.3-2.8-2-2.8-4.1v-4.7zm-29.3-15.8c0 1.8-.1 3.6 0 5.3s1.9 3 3.2 1.7c4.2-4 8.5-7.8 12.1-12.3 5.1-6.3 9.7-13 14.4-19.6 2.7-3.9 5.7-7.7 7.9-11.9 4.8-9.3 11-17.8 15.1-27.6 1-2.3 2-4.6 2.8-7 .2-.6 0-1.8-.4-2a20 20 0 0 0-5.8-2.5c-4.1-.9-7.4 1.5-10.3 3.7-5.3 4-10 8.9-15 13.3-6.9 6-8.1 7.5-11.5 15.4-2.3 5.2-4.4 10.6-6.8 15.8-4 8.8-5.1 18.2-5.7 27.7zm80.2 50.5c.3 2.6.3 4.3.6 6.1.9 5.8 5.7 8 11.3 5.9 3.3-1.3 5.5-3.5 8-5.7 7.3-6.4 14.1-12.9 19.3-21.4s10.9-20.5 16.6-30.7a3.1 3.1 0 0 0 .1-1.6 3.1 3.1 0 0 0-2.1-.2c-4.9 1.9-10 3.6-14.7 6.1-9.2 5-17.9 10.9-25 18.8-2.3 2.5-4.1 5.4-6.6 7.6-4.3 4.1-4.7 10-7.5 14.8-.1.3 0 .7 0 .3z"></path><path d="M242.5 532.8c-.3 9.3-.5 18.9-1.1 28.5-.5 7.7-1.4 15.3-2.1 23a6.6 6.6 0 0 0-.1 2.4c1.9 5.9-.5 11.8-.3 17.7.2 3.3-2.5 5.7-6 5.5s-6.4-.8-9.4 1.8c-1.3 1.1-4.7.2-6.9-.5s-1.7-2.9-1.6-4.7c.2-6.5.5-13 .7-19.4.1-4.3-.3-8.7.3-12.9 1.3-8.6.9-17.3 1.4-25.9s1-18.2 1.8-27.3c.2-2-.5-2.6-2-2.8-4.1-.6-8.2-1.4-12.3-1.6-1.5-.1-2-.8-3-1.3-4.7-2.3-9.7-3.9-14.5-5.8a8.9 8.9 0 0 1-2.9-1.5c-2.8-3.4-5.4-6.8-8.1-10.2s-1.7-4.2 0-5.4c4-2.8 7.3-6.7 12.5-7.9 2.3-.6 3 .1 4.2 1.8s.4 4.3 2.2 5.6a27.4 27.4 0 0 0 5.1 2.7 58.3 58.3 0 0 0 17.5 4.3c1.9.1 3.7-2.3 4.1-5 .9-6.5 1.7-13 2.5-19.4 1.6-13 3.2-26 5.1-38.9.5-3.2-.9-6.7 1.3-9.7s1-6.4 1.6-9.6c1.2-5.6 1.2-11.6 1.3-17.5s3.4-10 9.9-8.9a75.8 75.8 0 0 1 9.4 2.3 14.9 14.9 0 0 1 3.6 1.7c1.9.9.3 2.5.6 3.6 1.5 5.9 0 11.7-.7 17.5-.3 2.9-.2 5.8-.6 8.7-1 6.7-2 13.4-3.2 20.1-.6 3.5-1.7 6.9-2.5 10.3a2.7 2.7 0 0 0-.2 1.7c2 4.9-.4 9.4-1 14-.4 3-.3 6-.6 9a76.4 76.4 0 0 1-1 8.2c-.7 4.2.2 5.4 4.7 5.1 1.6-.2 3.1-1 4.6-1.1 4.1-.1 7.9-2.6 12.2-1.5 2.1.6 3.7-.7 5.2-2.2a5.2 5.2 0 0 1 6-1.2c2 .9 3.6.1 5.4-1a52 52 0 0 1 11.7-5.5c2.4-.8 4.3-3.7 7.6-2.3.4.2 1.4-.7 1.9-1.2 3.4-3.6 8.2-4.2 12.6-5.7a81.8 81.8 0 0 0 9.5-4.4c2.1-1.1 3.7-2.6 6.5-2.1s3.3-2.2 3.3-4.1c-.2-5.3 2.5-9.9 3.1-14.9s2.7-8.4 2.5-13.1 1.7-7.2 2.7-10.9c3-11.9 7.8-23.2 11.9-34.7l.6-1c3.5-6 5.4-6.8 11.9-4.3a3.3 3.3 0 0 1 1.5 1.6 18.9 18.9 0 0 1 1.3 5.7c-.2 4.3-.7 8.6-1.2 12.9-.8 6.3-2.7 12.4-2.4 18.9.1 1.3-.5 2.7-.7 4-1.3 6.4-3 12.7-3.5 19.2a22 22 0 0 1-1.2 6.7c-.7 1.8-.5 3.9-1 5.6-1.9 7.3-3.8 14.6-5.5 22s-3.3 12.5-4.8 18.8-2.7 10.6-3.6 16-1.2 10.4-1.7 15.7c-.3 2.7-.4 5.5-.6 8.2-.6 7.3-1.2 14.6-1.9 21.9-.3 3.7-1.6 7.3-.7 11.1a.6.6 0 0 1 0 .6c-2.9 7.7-1.1 16-3.1 23.9-1.4 5.4-.5 11.1-1.6 16.6a5.5 5.5 0 0 1-5.2 4.8c-5.1.1-10.2-.1-15.2.6-2.5.3-2.9-1.1-3.3-2.4s.2-2.3.3-3.5c.1-5.7-.1-11.4.4-17s1.9-10.9 2.4-16.5c.8-7.4 1.1-14.9 1.7-22.4.5-6 1.3-12 1.9-18.1.8-7.8 1.5-15.7 2.5-23.6.6-4.2 1.6-8.4 2.4-12.7a20.2 20.2 0 0 1 .6-3.4c.7-1.8.4-3.1-1.4-3.9a3.4 3.4 0 0 0-4.3.6 11.3 11.3 0 0 1-4.2 1.7c-2.5.7-5 1-7.4 1.9-.7.3-.8 2.2-1.6 2.7a16.3 16.3 0 0 1-3.9 1.3c-1.3.4-2.8.6-4 1.1s-4.7 2.5-8.1 1.7-5.3 1.8-7.9 3-4 3.1-7 1.8c-1.2-.5-3.2.3-4.6 1.1-6.5 3.7-13.9 3.6-21 4.8-2.7.5-5.3 1-7.9 1.7-.5.2-.8 1.2-1 1.8-2.1 4.8-1.5 10-2.4 15.4z"></path><path d="M698.2 604c-3.8-.6-6.6-1.2-8.3 2.1-.1.3-.7.6-.9.5-5-2.5-7.9 2.2-11.9 3.2a18.4 18.4 0 0 1-3.3.3c-1-.1-2.4-.9-2.8-.5-3 2.6-5.5 0-8.2-.4a12.5 12.5 0 0 1-10.3-10.6c-.5-4.1-3.3-8.2-.4-12.4-2.9-6.8.2-13.7.2-20.5s1.1-13.8 2.1-20.7 2.8-11.5 2.3-17.6c3.2-4.3 1.7-9.6 3.1-14.3s2.7-9.5 3.8-14.3c2.2-9.8 4-19.7 6.2-29.5 1.8-8.1 3.9-16.2 5.7-24.3.5-2.7.1-5.6.6-8.3s2.2-7.6 3-11.5 1.7-9.6 2.5-14.4c.4-2.2 1-4.3 1.3-6.4s1.2-4.5-.8-6.8-.6-3-.2-4.4c1-4.5 4.9-6.8 8.5-8.5s8.8-.7 13.1-2.5c2.7 2.8 4.8 0 7.2-.8s2.3 0 3.4-.1 4.6 1.3 6.9-.3c.6-.4 2.1 0 2.8.5a2.4 2.4 0 0 0 3.6 0c.3-.4 1.3-.6 1.6-.3 3.2 2.7 6.3.6 9.4-.1s8.4-1.4 12.1 1.8a9.8 9.8 0 0 0 4.3 1.9c1.7.3 3.1.3 3.6 2.3s1 3.6-.5 5a4.7 4.7 0 0 0-1.4 5.3c.4 1.8-.2 2.8-2.4 3-4 .5-7.8 1.6-12.1.1-2.8-.9-6.5.9-9.8 1.1-5.6.5-11.1 2.3-17 1.4-2.6-.4-5.7.8-8.3 1.9-1 .4-1.7 2.6-1.9 4-1 8-1.9 16.1-2.8 24.1a9.4 9.4 0 0 1-.6 2.9c-2.4 5.2-1.8 11.1-3.9 16.4a7 7 0 0 0-.1 2.9 1.9 1.9 0 0 0 2.3 2c2-.2 4-.1 5.8-.7s4.4-1.1 6.6.4c.4.2 1.5-.3 2.1-.6 2.2-1 4.4-1.5 6.7-.5a3.3 3.3 0 0 0 2.4.1c2-.7 3.8-1 5.2 1.1s3 5.1 2.4 8.3-1.2 6.1-1.7 9.2-2 4.2-4.7 4.2l-.5-.2c-2.9 1.1-5.4-1.8-8.4-.8s-5.8.9-8.7 1.3l-8.7 1.3c-1.3.2-2.6.8-4 1s-2.6 1.4-2.9 3.2c-1 5.4-1.3 11.2-3.2 16.2-3 7.9-3.7 16.2-5.9 24.2s-2.6 14.4-3.9 21.6c2.2 4.9-1.7 9.1-1.6 13.9s-1.1 9.3-1.5 14a90.7 90.7 0 0 0-.2 10.4c0 .3 1.5.9 2.3.8 4.8-.9 9.7-1.9 14.5-3 6.3-1.5 12.8-1.7 19.3-2 3-.1 5.8-.1 8.7-1.6s4.6-.5 4.3 3.3c-.1 2.2-.5 4.4-.6 6.6-.2 4.6-3.2 7.6-6 10.7a3.4 3.4 0 0 1-2 .9c-4.4.4-8.8.7-12.9 2.7-1.6.8-3.7.6-4.6.8z"></path><path d="M507.7 808.6c.3 5.3-1.6 9.5-4.6 13.5s-6.2 9.3-11.1 12.2-12.3 7-18.5 10.3c-3.3 1.7-3.3 1.7-1.9 5.3 2.8 7.2 8 13.2 9.5 20.9 5.8 5.8 5.3 14.5 9.6 20.9a7 7 0 0 1 1.2 3.4c1.1 9.2 6.3 16.9 9.2 25.5a19 19 0 0 1 1.1 3.9c.7 5.3-.6 7.3-5.9 8.6-3.2.7-6.6 1.2-9.9 1.6a2.2 2.2 0 0 1-1.9-1 11.5 11.5 0 0 1-1.4-3.2c-3-7.8-6.1-15.5-9-23.2a59.2 59.2 0 0 1-2.7-9.1 75.2 75.2 0 0 0-9.6-24.7 17.2 17.2 0 0 1-2.4-5.4 10 10 0 0 0-3.1-6.2 19.3 19.3 0 0 1-2.2-2.8c-.6 1.2-1.5 2.2-1.7 3.4-.6 4.1-.7 8.4-1.5 12.4-2.6 12.6-3.7 25.3-5 38.1a19.9 19.9 0 0 1-1.1 4 42.9 42.9 0 0 1-1.9 5c-1 2.1.5 5.4-2.2 6.4a46 46 0 0 1-10.9 2.8c-2.9.4-3.8-.8-4.1-3.8a4.9 4.9 0 0 1-.1-1.2c.3-9.8.8-19.6 3.2-29.2 2-7.9 2.2-16.1 4.3-24 1.6-6.4.7-13.3 4.1-19.4 1.4-2.6.8-6.2 1.4-9.3s1.8-8.1 2.6-12.2c2-9.5 4.1-18.9 5.9-28.5.4-2.4 1.3-4.4 3.6-4.9 5.1-1.2 8.6-5 12.8-7.5.8-.5 1.4-1.6 2.3-1.8 5.7-1.5 11.4-3.5 17.1-3.8a22.5 22.5 0 0 1 14.2 3.5c3.1 2.2 7.2 3.4 8.1 8s1.7 7.7 2.5 11.5zm-17.3-1a54.7 54.7 0 0 0-.3-6.7c-.8-4-2.9-5.3-6.9-4.6a66.6 66.6 0 0 0-7.6 1.2c-2.6.7-5.8 1.3-7.5 3.1s-5.6 4.5-5.8 9c-.4 6.4-1.2 12.8-3.5 19-.5 1.4.8 3.6 1.3 5.5l5-1.6c.5-.2.8-.8 1.3-1.2 5-3.2 10-6.4 14.8-9.8s10.3-7.7 9.2-13.9z"></path><path d="M662.7 782.1a19.5 19.5 0 0 1-.9 2.5c-4.3 12.1-4.8 24.8-6.2 37.4a5.2 5.2 0 0 0 .2 1.7l1.8-1c1.6-1.2 3.1-2.5 4.7-3.6 3.3-2.1 5.8-5.3 9.8-6.6 2.3-.8 3.9-3.3 5.9-4.9l5.3-3.8c.9-.7 2.2-1.2 2.9-2.1 3.9-5.3 9.5-8.8 14.2-13.4 1.9-1.9 4.2-3.4 7.4-3 5.1.6 7.8 5 5.1 9.4a33.2 33.2 0 0 1-5.7 6.7c-7 6.7-14.7 12.7-21.3 19.8a33.3 33.3 0 0 1-5.6 4.3c-4.1 2.9-8.1 5.8-12.2 8.5-2 1.3-1.7 2.5-.8 4.5 2.8 6.6 5.4 13.3 7.9 20 1.1 2.9.7 6.4 3.1 8.9.2.3.6.8.4 1-1.6 3.5 1.3 6 2.1 8.9 1.9 7.1 3.9 14.1 5.9 21.1a63.9 63.9 0 0 0 2.7 7.3 63.6 63.6 0 0 1 2.8 5.9c1 3.2 2.2 6.2 5.5 8s3 4.7 3.2 7.4-1.7 3.5-3.7 4.2-3.1.7-4.6 1.2l-5.9 2.3c-1.8-3.2-5.8-2.9-8.1-5.6a49.1 49.1 0 0 1-8.9-15.3c-2.4-6.7-5.1-13.3-7.3-20.1s-3.8-13.7-5.7-20.6c-1.5-5.3-3.1-10.7-4.7-16-.2-.6-.8-1-1.2-1.5s-.9.8-1 1.3c-.9 5.7-1.8 11.3-2.6 17s-1.6 10.6-2.3 15.9-1.7 12.5-2.5 18.8a41.1 41.1 0 0 1-.7 4.7c-2.2 8.8-6.4 11.5-15.1 9.6a2.9 2.9 0 0 1-2.2-1.6c-.9-2.9-2.3-5.5-1.5-9.1 2.1-10.6 3.2-21.4 5.1-32.1s4.3-22.5 6.5-33.7 4.8-19.7 6.1-29.7c1-7.5 2.4-14.9 4-22.2s3.1-11.9 6.5-17.1c1.3-1.9 3.2-3 5.7-1.7s5.7 2.3 5.9 6.4z"></path><path d="M235 928c.5-11.1.8-22.1 1.7-33.2.4-6.1 1.8-12.1 2.7-18.2s2.1-14.4 3.1-21.7c.5-3.9.8-7.9 1.3-11.8l2.7-24.5c.8-7.2 8.6-12 14.9-9.1a3.6 3.6 0 0 1 1.3 2.9c-.1 3.4-.7 6.7-1 10-.4 5.3-.7 10.5-1.1 15.8s-1.1 12.2-1.7 18.3c-.2 2.6.7 3.3 3 2.1s6.6-1.8 10.1-1.9 6-1.6 8.8-2.8c.7-.4 1-2.1 1-3.2.2-9 2.8-17.6 4.5-26.3.8-3.9 1.9-7.8 2.2-11.7s1.4-5.2 2.3-7.8 1.8-5 4.6-4.7 6.5.7 8.3 3.9c.3.5.8 1.1.7 1.6-.7 4.5-1.4 8.9-2.2 13.4-.2 1.1-.9 2.2-1 3.4l-2.4 32.6c-.3 3.1-.6 6.3-1.2 9.4-1.8 9.1-.4 18.7-3.4 27.7a8.7 8.7 0 0 0-.1 2.3c-.4 11.9-.9 23.8-1.2 35.7 0 3.4-.8 6-4 7.2a14 14 0 0 1-4 .7c-1.3.1-2.7-.3-4-.2-4.8.7-4.6.7-6.5-3.6s-2-10.4-1.7-15.7 1.6-12.5 2.4-18.8 1.4-9.8 2-14.6 1.3-10.2 2-15.3c.2-1.3-.2-1.8-1.6-1.6a29.9 29.9 0 0 1-5.9.8c-3 0-6-.2-8.3 2.2-6.7.2-6.8 5.3-7.5 9.9s-1.7 11.4-2.3 17.1a125.5 125.5 0 0 0 .5 26c.1.6.5 1.3.4 1.8-1.2 4.8-.3 9.7-.6 14.5s-3.8 7.4-8.6 7c-1.2-.2-2.3-.5-3.5-.6-6.2-.4-6.3-.4-6.4-6.5-.1-4.1 0-8.3 0-12.5z"></path><path d="M592.1 892.3c.7-7.4-1.2-14.6-2.6-21.7s-2.3-12.9-3.5-19.3c-.6-2.9-1.8-5.6-2.4-8.5-1.3-6-1.9-12.2-3.9-18s-2-11.2-2.1-17c-.1-7.5 2.7-13.4 8.9-17.7 2.6-1.8 4.7-4.4 7.4-5.9a15.7 15.7 0 0 1 7.8-2.3 95.3 95.3 0 0 1 14 2.4c3.3.7 9.5 7.6 9.9 11.1a48.9 48.9 0 0 1 .6 8.7c-.5 6.6-5.5 7.5-9.8 9.5-1.6.8-4-2.3-3.1-4.5 1.4-3.9.3-7.4-.9-10.9s-4.3-5-7.9-3.5c-5.7 2.3-10.1 5.8-10.6 12.3a32.3 32.3 0 0 0 .8 9.3c.5 2.5 1.7 4.8 2.5 7.3s1.8 6.8 2.9 10.1c2.3 7.5 5.4 14.9 6.8 22.5 1.1 6 2.8 11.8 4.1 17.7s1.6 11.4 2 17.1c.2 2.3-.4 4.7-.6 7a60.6 60.6 0 0 1-6 22.6c-3.6 7.4-9 11.4-17.5 10.8-3.3-.2-6.7.1-10.1 0s-7.5-.6-10-4.1a7.6 7.6 0 0 0-2.8-2.2c-7.9-5.1-9.2-13.2-9.7-21.6-.1-2.3 0-4.7-.2-7-.3-4.7 1.2-6.6 5.8-7.1a22.3 22.3 0 0 0 3.6-.5c4.2-.9 4.4-.9 6.2 3.1a16.7 16.7 0 0 1 1.5 10.3 19.7 19.7 0 0 0-.3 2.4c-.3 6.3 2.9 11 9 13.1 2.1.7 4 .5 5.1-1.7a61.1 61.1 0 0 0 2.6-6.4c.2-.6 0-1.3.2-1.8.9-2.6 2.8-4.7 2.3-7.8a67.7 67.7 0 0 1 0-7.8z"></path><path d="M325.4 301.1a192.4 192.4 0 0 0-3.6-31.2c-1.1-5.9-2.3-11.8-2.1-17.7.4-9.6-.5-19.3 2.9-28.6 2.6-7.2 6.1-13.8 13.8-16.9 1-.4 1.7-1.7 2.8-2.1a7.7 7.7 0 0 1 3.9-.9c3.3.5 6.5 1.4 9.7 1.9s5 1.3 6.6 3.7 2.1 1.8 3.1 2.7a13.9 13.9 0 0 1 4.7 9.8c.4 9.6-2.9 17.9-7.8 25.7a15.3 15.3 0 0 1-4.2 4.2c-.8.6-2.8.6-3.1.1a6.3 6.3 0 0 1-.8-3.7c0-.6.7-1.3 1.2-1.9 3.3-4.3 4.4-9.3 4.9-14.5a14.6 14.6 0 0 1 .2-3c1.3-3.6.3-7-1.2-10.3-2.7-6.2-9.2-7.2-13.5-1.9a32.6 32.6 0 0 0-7.3 17.2c-1.2 9.3.4 18.4.6 27.6 0 2.6 1.7 5.3 2 8 1.3 8.9 2.8 17.9 3.2 26.9a92.4 92.4 0 0 1-2.2 25c-2.4 9.4-7.9 15.9-14.4 22a19.3 19.3 0 0 1-7.8 4 70.8 70.8 0 0 1-14.4 2.3c-3.9.2-7.8-.7-11.7-1.2a1.6 1.6 0 0 1-1.1-.5c-4.3-5.3-9.5-9.9-10.8-17.2s2.7-17.3 8.1-20.3a30.5 30.5 0 0 1 7.2-2.4c1.6-.3 2 .7 1.5 2.2-1.2 4.2-3.9 7.7-4.6 12.2-.4 2.6-.6 5 .5 7.4s1.1 3 1.8 4.4-.2 4.2 2.2 4.5 5.9 1.2 8.5-1.1a6.5 6.5 0 0 1 3-1.5c5.5-.2 8.7-3.5 11.1-7.8s5.5-8.8 6-14.1.8-8.6 1.1-13z"></path><path d="M302.6 922c.8-7.8 1.3-15.7 2.3-23.4.8-5.9 2.3-11.7 3.3-17.6 1.7-9.3 3.2-18.7 5-28s4.6-21.7 7.2-32.4a39.1 39.1 0 0 1 4.1-9.9c1.5-2.7 2.9-2.6 6.1-1.8a108.3 108.3 0 0 0 15.1 2.6c3.5.4 7.1 0 10.7 0 1.9 0 3.8.4 4.4 2.4s.5 4.4-1.5 6a9.9 9.9 0 0 1-8.3 2.4c-3.4-.6-7-.6-10.6-1a3.5 3.5 0 0 0-4.2 3.2c-.9 7.1-4.7 13.6-4 20.9.2 1.5-.6 3.1-.9 4.7s.6 3.6 3.4 3.1a18.5 18.5 0 0 0 5.7-1.5c3.3-1.6 5.8.3 8.5 1.4a3.6 3.6 0 0 1 2.4 4.3c-.5 1.5-1.7 3.7-3 4-4.1 1-8.2 3.6-12.6 1.1a7.4 7.4 0 0 0-2.9-.5c-2.4-.1-3.8.8-4.1 3.3-.7 5.3-1.3 10.6-2.3 15.9s-.7 13.8-3.4 20.4c-.6 1.4-.2 3.2-.3 4.8-.3 3.1-.5 6.3-.9 9.4s.1 5.1 4.3 4.7 7.4-1.5 11.2-1.7a25.4 25.4 0 0 1 9.1 1.3 5.5 5.5 0 0 1 3.4 5.9c-.3 2.1-1 4.1-3.8 4.6-4.9.9-9.7 2.2-14.5 3.2l-9.3 2c-2.3.5-4.6 1.1-6.9 1.5-5.5 1-8-.2-10.6-5a24.6 24.6 0 0 1-2.1-10.3z"></path><path d="M194.3 816.6l14.2-1.4a136.9 136.9 0 0 1 14.3-.7 37.5 37.5 0 0 1 11.1 1.2c1.8.5 3.2 3.2 4.5 5s-.1 1.7-.6 2.1-4.1 3.9-6.3 4-7.3 2.2-11.1.9c-1.7-.6-2.8.7-2.8 2.2.2 5.1-1.8 10-.7 15.4s-.5 9-1 13.5a38.1 38.1 0 0 0-.7 4.7c-.2 8.9-1.6 17.7-2.3 26.6-1 13.9-2.1 27.8-1.4 41.7.2 4.1.1 8.3-.1 12.4a6.2 6.2 0 0 1-1.8 3.5c-3.1 3.1-7.1 3.3-11.1 2.6-2.4-.5-3.7-2.3-3.9-4.8-.2-6.2-.4-12.5-.7-18.7-.1-2-.3-3.9-.4-5.9-.5-8.7.8-17.4 1.9-26s1.8-16.4 2.7-24.6c1-9.8-.7-19.7 1.1-29.4.7-3.4-1.7-6.9-.2-10.5.6-1.4-.9-1.9-2.2-1.9l-17.1-1.2h-1.8a3.4 3.4 0 0 1-3.5-2.7 3.5 3.5 0 0 1 2.2-4.3 36.5 36.5 0 0 1 14.1-3.8c1.2-.1 2.4 0 3.6 0z"></path><path d="M516.2 914.8c.5-3.5 1.1-7 1.5-10.5l2.4-21.8a58.2 58.2 0 0 1 1.3-8.2c1.6-5.9.7-12.2 3.1-18 1.4-3.4 1.1-7.4 1.7-11.1 1-6.1 2.2-12.1 3-18.1 1.1-7.7 1.9-15.3 2.9-23 .4-3.7.2-7.5 2.1-10.9.8-1.4 1.7-2.1 3.3-1.5l6.1 2.3c3 1.2 4.1 3.6 4.3 6.6s1 7.5.9 11.2a133.7 133.7 0 0 1-1.2 14.2c-1.1 8.2-2.3 16.4-3.4 24.7a25.8 25.8 0 0 1-.3 2.9c-2.8 9.8-2.7 20-3.8 30-.5 4.1-1 8.2-1.4 12.3-.1.6-.4 1.2-.2 1.7 1.8 5.2-.5 10.2-1.1 15.2-.3 2.3-.2 4.7-.4 7.1-.4 4.8-1.8 6.1-6.5 6.7-2.4.3-4.7 1-7.1 1.1-4.2.3-5.9-.9-6.5-5a50.8 50.8 0 0 1-.1-7.8z"></path></g></g></g></svg>