<svg xmlns="http://www.w3.org/2000/svg" width="1070.1" height="2173.5" viewBox="0 -0.0004884118679910898 1070.0999755859375 2173.50048828125" style=""><g><defs><linearGradient id="a" x1="153" y1="6.6" x2="824.99" y2="2302.57" gradientUnits="userSpaceOnUse"><stop offset="0" stop-color="#efefef"></stop><stop offset="1" stop-color="#ebebeb"></stop></linearGradient><linearGradient id="b" x1="494.19" y1="124.87" x2="576.7" y2="229.18" gradientUnits="userSpaceOnUse"><stop offset="0" stop-color="#895c1b"></stop><stop offset=".51" stop-color="#fdd297"></stop><stop offset="1" stop-color="#895c1b"></stop></linearGradient></defs><g data-name="Layer 2"><path d="M907.3 154.2A524.6 524.6 0 0 0 535.1 0C244.3 0 8.6 235.7 8.6 526.5v1647h1052.9v-1647a524.8 524.8 0 0 0-154.2-372.3zm-371.6 61.3a38.2 38.2 0 1 1 38.2-38.2 38.2 38.2 0 0 1-38.2 38.2z" fill="url(#a)"></path><path d="M543.7 0h-4.3c288.8 2.3 522.1 237.1 522.1 526.5v1647h8.6v-1647C1070.1 235.7 834.4 0 543.7 0z" fill="#dbdad9"></path><path d="M530.8 0h-4.3C235.7 0 0 235.7 0 526.5v1647h8.6v-1647C8.6 237.1 242 2.3 530.8 0z" fill="#fcfcfc"></path><path d="M535.7 110.8a66.5 66.5 0 1 0 66.5 66.5 66.5 66.5 0 0 0-66.5-66.5zm0 104.7a38.2 38.2 0 1 1 38.2-38.2 38.2 38.2 0 0 1-38.2 38.2z" fill="url(#b)"></path></g></g></svg>