<svg xmlns="http://www.w3.org/2000/svg" width="1030" height="956.8" viewBox="-0.02801358699798584 -0.0023519513197243214 1030.22412109375 956.7705688476562" style=""><g><g data-name="Layer 2"><path d="M440.2 6.8c-3.7 3.8-8.5 9-10.5 11.5s-6.6 7.6-10.3 11.4-8.6 9.2-11 12.2-6.6 7.6-9.3 10.5l-4.9 5.2-7.4-5.5c-4.1-3-8.3-6.3-9.4-7.3a26.7 26.7 0 0 0-4.3-3.2c-4.9-2.7-15.9-11.4-20.8-16.4l-5-5.2-5.7 3c-4.9 2.6-16 10.2-18.8 12.9a2.9 2.9 0 0 1-1.6 1c-1.8 0-17.2 16.7-24 26-4.2 5.8-8 10.5-8.5 10.5s-11.6-8.3-16.2-13a35.4 35.4 0 0 0-6.9-5.3c-1.9-1-4.5-2.6-5.8-3.5-3.9-2.9-12.7-7.1-14.8-7s-3.8 2.1-10.1 9c-4.5 5-9.5 10.9-11 13.1s-3.1 4.5-3.6 5l-3.8 5.1c-1.7 2.3-3.3 4.1-3.7 4s-11.1-22.3-11.1-23.4-8.3-17-11.7-23a40.5 40.5 0 0 0-4.8-6.3c-4.2-4.6-6.8-4.6-10.4-.2a93.9 93.9 0 0 0-11.4 18c-5.2 11.4-17.2 39.8-19.6 46.5-1.5 4-3.1 7.3-3.6 7.5s-12.2-5.4-20.4-10.3a35.4 35.4 0 0 0-5.8-2.8 10.8 10.8 0 0 1-3-1.6c-.6-.6-3.2-1.5-5.7-2.1a56 56 0 0 1-5.7-1.6c-2.5-1-3.2 1.5-2.6 9.3.3 4.1.7 10.8.8 15 .2 6.3 1.6 24.1 2.1 26.6.1.3-2.6 1.5-6 2.6a63.3 63.3 0 0 0-6.8 2.5 19.6 19.6 0 0 1-3.6 1 83.9 83.9 0 0 0-10.3 3.4 97 97 0 0 1-10.1 3.5 13.3 13.3 0 0 0-3.4 1.1 48.9 48.9 0 0 1-6.1 2.3 73.9 73.9 0 0 0-7.6 2.7c-5.1 2.3-18.6 6.4-22.1 6.7-7.7.6-6.4 4.6 3.4 11.1l13.4 8.7c3.7 2.5 9.2 5.7 12.1 7.2a80.1 80.1 0 0 1 11.1 6.9c3.1 2.4 8.7 6.2 12.3 8.5s6.8 4.7 7.1 5.3-.8 3.9-2.3 7.2a39.3 39.3 0 0 0-2.7 7.4 3.1 3.1 0 0 1-1.1 2.1 3.3 3.3 0 0 0-1.1 2.1 28.2 28.2 0 0 1-2.7 6.2c-1.4 2.8-4 8.6-5.7 13.1s-4.9 11.4-7 15.7-3.7 8.2-3.4 9 1.8 1.2 12.9.8a111.2 111.2 0 0 1 21.5.7l13.3 1.4h4.2l.9 10.7c.5 5.9 1.3 15.1 1.7 20.6s1.3 14.8 1.9 20.9 1.1 12.5.8 14.2c-.7 4.7.8 5 7.5 1.5s9.1-4.3 11-4.7c4-.8 29.1-12.9 33.3-16s10.2-6 10.6-5.5a50.3 50.3 0 0 1 1.8 7.9c.8 4.1 2.2 10.6 3 14.4s1.9 8.6 2.4 10.8 1.2 4.2 1.5 4.3 5.8-3.3 12.2-7.6l13.8-9.3 6.8-5.3c3.4-2.8 5-3.7 5.2-2.9s-3.7 27.6-6 36.6c-1.3 5.1-3 13.5-3.8 18.9a103.1 103.1 0 0 1-1.8 10.3 99.2 99.2 0 0 0-1.9 10.4c-.9 5.4-2.1 13-2.7 16.7-2.7 16.3-2.9 23-1.1 25.3a4.4 4.4 0 0 0 3.1 1c1.8 0 3.3-1 6.6-4.4a51.6 51.6 0 0 0 5.8-6.6c.8-1.3 3.2-4.5 5.4-7.3s6.3-8.3 9.2-12.5 5.8-8.2 6.4-9a52.2 52.2 0 0 0 4.2-5.6c1.7-2.3 4.2-5.8 5.8-7.8a62.2 62.2 0 0 0 4-5.9 23.6 23.6 0 0 1 3.5-4.9 15.9 15.9 0 0 0 2.2-3c0-2.4 31.9-41.4 36-44 1.1-.8 1.7-.3 4 3.3a28 28 0 0 0 3.8 4.7c1.1.6 3.2 3.3 9.8 12.3a97.8 97.8 0 0 0 8.9 10.5c2.9 3 7.3 8.1 9.8 11.3a84.4 84.4 0 0 0 10.1 10.6c6.3 5.4 7.1 5.5 11.7 1 1.4-1.3 4-3.7 5.8-5.1s5.3-4.9 7.8-7.5c7.5-8 20.2-20.2 27.1-26 3.6-3 6.8-5.9 7.2-6.4s10.2-8.1 12-8.7 5.6.6 6.7 2.2a75.2 75.2 0 0 0 8 4.1c4.1 2.1 8.8 4.4 10.2 5.3a72.8 72.8 0 0 0 7.9 3.9c2.9 1.2 6.2 3.1 7.3 4.3a10.3 10.3 0 0 0 4.7 2.5c3.1.6 4.2-.4 6.3-5.7.8-1.9 3.2-7.1 5.4-11.8s4.8-10 5.6-12a34.4 34.4 0 0 1 1.8-3.6c.8 0 12.9 2.5 16.5 3.4s7 1.5 28.6 5c5.5.9 10.3 1.9 10.8 2.4s1.8.3 3.8-.7 3-1.6 3.2-5.1a101.4 101.4 0 0 0-2.3-20.5c-1.5-6.1-2.6-14.7-2-16.9a10 10 0 0 1 2.7-4.3c2.3-2.2 29.3-21.1 32.2-22.7a14.8 14.8 0 0 0 3.8-3.1 28.5 28.5 0 0 1 8.7-5.9c.9-.4 5.1-3 9.5-5.8l10.2-6.3 5.6-3.4 3.3-2.1-3.2-3.9c-1.8-2.2-6.9-7.7-11.3-12.2-23.4-23.7-25.1-25.6-25.1-27s2-3.4 5.3-6.5c5.3-4.7 13-14.9 17.2-22.6 2-3.8 2-4 .7-5.4s-9.8-5.9-18.3-9.2c-6.7-2.6-12.5-5.7-12.5-6.8s4.1-9.1 9.1-19.3 9.1-18.8 9.1-19.1 1.6-2.9 3.4-6c3.7-5.8 9-17 9.9-20.5 1.3-5.6-4.2-6.3-24.4-3.1L558.3 78l-16.8 3.1-17.1 3.1a94.7 94.7 0 0 0-10 2.2c-7.6 2.3-7.3 2.6-7.8-6.2a204 204 0 0 0-2.5-22.7c-.6-3.6-1.2-7.9-1.4-9.5a11.5 11.5 0 0 0-1.3-4.1c-1-1.1-4.1-1.2-4.8-.1s-8.5 6.1-9.2 6.1a40.5 40.5 0 0 0-5.5 3.3c-12.3 7.9-21.7 13.4-23 13.4s-2.1-6.7-3-16a87 87 0 0 0-1.5-10.6 28.2 28.2 0 0 1-.8-6.1c0-4.3-2.8-28.5-3.6-31.5-.4-1.3-1.2-2.3-1.8-2.4s-4.2 3-8 6.8zm-5.1 11.8c-.8 1.4-2.8 2.8-2.8 2a15 15 0 0 1 3.6-3.5c.1 0-.2.7-.8 1.5zm8.6 3.5c0 .8-2.4 5.1-2.7 4.8s1.4-5.2 2.1-5.2.6.1.6.4zM180.3 30c0 .9-1.4 1.9-1.9 1.4s.3-2.1 1.3-2.1.6.3.6.7zm259.2 11c-.3 1.1-.8 2-1.1 2s-.3-1 .2-2.3 1.6-2.5.9.3zm-86.3 7.4c-.7 1.8-.8 1.8-.8-.5a5.9 5.9 0 0 1 .5-2.9c.9-.9 1.1 1.4.3 3.4zm7.9 4.8c-.5 4.4-1.9 6.7-1.9 3.1s1.6-8.2 2.1-7.7a15.4 15.4 0 0 1-.2 4.6zm65.7-3c-.4 1.1-1 1.8-1.1 1.6s.6-3.5 1.3-3.5.3.9-.2 1.9zm-58.2.8c-.2.6-.7 1-1 .7s-.5-.9-.3-1.5.7-.9 1.1-.7a1.5 1.5 0 0 1 .2 1.5zm68.5.8c-.2.6-.5 1.1-.7 1.1s-.3-.5-.3-1.1.3-1.2.7-1.2.5.6.3 1.2zm-254.6 8.9c-.5 1.2-3.7-5.3-3.6-7.3s.6-.5 2 2.4 1.7 4.4 1.6 4.9zM321.8 58c-.1 4.7-.1 4.9-.6 1.8a23.3 23.3 0 0 1-.1-5.2c.5-3.2.8-1.7.7 3.4zm16.6.4c-.1 1-.3.2-.3-1.7s.2-2.7.3-1.7a9.7 9.7 0 0 1 0 3.4zm-21.3 0c-.1 1-.3.4-.3-1.3s.1-2.5.3-1.7a7.6 7.6 0 0 1 0 3zM176 59c.2.8.1 1.5-.2 1.5s-1.5-1.9-1.5-3.2 1.3 0 1.7 1.7zm271.5.4a2 2 0 0 1-.7 1.5c-.5.3-.8-.4-.8-1.5s.3-1.8.8-1.6a2.2 2.2 0 0 1 .7 1.6zm-204-.4a1.4 1.4 0 0 1-.7 1.1c-.5.3-.8 0-.8-.7s.3-1.2.8-1.2a.7.7 0 0 1 .7.8zm155.8 1.2c-.3.7-.7 1.1-.9.9s-.1-1 .1-1.6.6-1.2.8-1a2.4 2.4 0 0 1 0 1.7zm-206.5 3.3c-.4.5-.8-.1-1.4-2.2l-.5-1.9 1.1 1.9c.6 1 1 2 .8 2.2zm303.1-1.7c-.7.8-1.4-.4-.7-1.4s.6-.7.9 0 .1 1.2-.2 1.4zm-149.6 4.5c0 3.6-.3 5.5-.8 5.2s-.7-2.8-.7-5.7.3-5.3.7-5.3.8 2.4.8 5.8zm64.2-3c-.2.6-.6.9-.8.7a1.1 1.1 0 0 1 .1-1.2c.8-1.2 1.2-.9.7.5zm9.2 1.8c-.4 1.7-.7 2.2-1.3 1.6s-.5-1.4.1-2.8 1.9-1.9 1.2 1.2zm16.5-1.6c-1.3 2.3-2.5 2.7-1.5.5s1.2-2 1.5-2 .4.7 0 1.5zm-11.3 1.6c-.6 1.3-1.3 2.2-1.4 2s1.3-4.3 1.9-4.3.1 1-.5 2.3zm-230.5 1.2c.2.7.1 1-.4.7a1.5 1.5 0 0 1-.7-1.2c0-1 .6-.8 1.1.5zm209 .1a14.5 14.5 0 0 1-1.7 3.2c-1.3 2-1.8 2.4-2 1.4s1.9-5.2 3-5.2a.7.7 0 0 1 .7.6zm-100.5 2.9c0 1.1-.4 1.7-.8 1.5a2.7 2.7 0 0 1-.7-2c0-.8.3-1.4.7-1.4s.8.8.8 1.9zm147.4.5c-.2.6-.4.2-.4-.9s.2-1.5.4-1a3.1 3.1 0 0 1 0 1.9zm-287.1-.9c.3.4.1.7-.3.7a.7.7 0 0 1-.8-.7c0-.5.1-.8.3-.8s.5.3.8.8zm272.1.9l-1.2 3.1c-.6 1.7-1.8 1.8-1.8.2s2.3-4.9 3.2-5 .2.8-.2 1.7zm-18.9 2.7c-.7 1.2-.8 1.2-.8.1a9.1 9.1 0 0 1 .5-2.7c.5-1.3.5-1.3.8-.1a5.4 5.4 0 0 1-.5 2.7zm-233.8-2.1a.7.7 0 0 1-.7.8.7.7 0 0 1-.8-.8.8.8 0 0 1 .8-.8.8.8 0 0 1 .7.8zm262.6 2.9c-.5 1.4-1.2 2.4-1.6 2.4s.3-2.9 1.3-4.7 1.1 0 .3 2.3zm24.4-.8a23 23 0 0 1-1.2 2.5c-.7 1.3-1 1.5-1.1.6s.8-3.7 1.6-3.7a.7.7 0 0 1 .7.6zm-169.5 1.7c.2.9 0 1.4-.3 1.1a1.8 1.8 0 0 1-.7-1.5c0-1.5.5-1.3 1 .4zm24.3 0c.2.9.1 1.4-.3 1.1a1.8 1.8 0 0 1-.7-1.5c0-1.5.6-1.3 1 .4zM176.8 80c2.3 4.8 2.4 5.4.9 4.1s-3.3-4.8-4.2-7.8 1-1.2 3.3 3.7zm62.6-4.4c-.3.2-.9 0-1.4-.5s-.6-.9.4-.5 1.2.7 1 1zm7.1 1.2c-.2.2-.8-.4-1.4-1.3s-.9-1.6.4-.3 1.2 1.4 1 1.6zm242.2-.4c-.8 1.5-2.4 2.2-2.4 1.1s2.5-3.3 2.9-3 0 1-.5 1.9zm-194.2.4a2.2 2.2 0 0 1-.7 1.6c-.5.2-.8-.3-.8-1.1s.3-1.6.8-1.6.7.5.7 1.1zm16.5 1.4c-.2.6-.4.4-.4-.5s.1-1.2.4-1a1.9 1.9 0 0 1 0 1.5zm152.5-.8a9.7 9.7 0 0 1-2 3.3c-1.9 2.2-1.9 2.2-1.4.4s2.5-4.6 3.2-4.6.2.4.2.9zm-49.8 4.9c-.2.7-.6 1.1-.8.9a2 2 0 0 1 .1-1.7c.2-.7.6-1.1.8-.9a2 2 0 0 1-.1 1.7zm-130.4-.2a3.4 3.4 0 0 1 1.3 1.9c0 1.2-2.7-.2-3.3-1.7s.2-1.5 2-.2zm-45.1 4.4c-.1.6-.9.1-2-1.1-2.4-2.7-2.3-4 .1-1.8a5.6 5.6 0 0 1 1.9 2.9zm23.1-3.1c.3 1.3.2 1.4-.7.7s-1.5-2.3-.4-2.3.8.7 1.1 1.6zM171.9 89c0 .5-1-.4-2.3-1.8a12.3 12.3 0 0 1-2.2-3.4c.1-.5 1.1.3 2.3 1.8s2.3 3 2.2 3.4zm97.5 2.5c2.8 6.8 2.8 9.5 0 5.1s-4.5-9-4.5-11.6 0-2 1.1-.6a54.2 54.2 0 0 1 3.4 7.1zm3.8-6.6c0 .8-.3 1.5-.7 1.5s-1.6-2-1-2.6 1.7-.5 1.7 1.1zm62.1 3.8c-1.1 1.7-2 .5-1.9-2.5V83l1.1 2.5a5.8 5.8 0 0 1 .7 3.2zm-14.1-2.5c0 1.2-.1 1.2-.8.2s-1-2.5 0-1.9a2.3 2.3 0 0 1 .8 1.7zm106.5-1.5a5.3 5.3 0 0 1-1.1 2.1c-1.1 1.4-1.1 1.3-.3-.6s1.4-2.6 1.4-1.5zm125.6-.2c0 .2-.3.5-.7.8s-.8.1-.8-.4a.8.8 0 0 1 .8-.8c.4 0 .7.1.7.4zm-112.6 1.4a2.1 2.1 0 0 1-1.2 1.6c-.9.3-1 .1-.3-1.1s1.5-1.9 1.5-.5zm11.9 1.3c-.9 2.3-2 3-2 1.2s1.9-3.5 2.6-3.5-.1 1-.6 2.3zm29.9-1.3a3.1 3.1 0 0 1-1.1 2c-1.2 1-1.5.2-.7-1.8s1.8-1.6 1.8-.2zm64.1.6c-.5.6-1.1.7-1.4.4s-.1-.9.5-1.2 2.1-.3.9.8zm-47.4 3.3c.1 1.3 0 1.4-.7.4a6.6 6.6 0 0 1-.7-3c0-1.8.1-1.8.7-.4a8.2 8.2 0 0 1 .7 3zm58.7-3c-2.5 1.4-3.7 1.4-1.8 0a4.9 4.9 0 0 1 2.5-1.1c.7 0 .4.5-.7 1.1zm-149.7 3.4a15.4 15.4 0 0 1-2.3 3.5c-.5-.5 3-7.3 3.7-7.3s-.3 1.7-1.4 3.8zM318.4 93l1.7 6.1c.5 1.3.5 1.3-.8.2s-3.4-8.4-3.4-11.3 1.4.5 2.5 5zm-123 1l1.6 3.4c.2.5-.6 0-1.7-1.1s-4.3-5.4-4.3-7.4.2-1.1 1.6.5a40.1 40.1 0 0 1 2.8 4.6zm127.2-2.7c0 1.6 0 1.6-.7 0a7.2 7.2 0 0 1-.7-2.6c0-1 .1-1 .7 0a4.6 4.6 0 0 1 .7 2.6zm-41.1-.9c.3 1 .8 2.7 1.1 4s.2 1.9-1.1-.8-1.9-4.9-1.1-4.9.7.8 1.1 1.7zm62.5 0c0 1.3-.2 1.5-.7.6s-.6-1.4-.4-1.7 1.1-.6 1.1 1.1zm126 .3c-.2.6-.6 1.1-.8.9a2 2 0 0 1 .1-1.7c.2-.7.6-1.1.8-.9a2 2 0 0 1-.1 1.7zm-285.1 1c1.2 2.2.4 1.8-1.1-.4s-.9-1.8-.5-1.5a5.2 5.2 0 0 1 1.6 1.9zm70.1 5c.4.8-.8-.1-2.7-2.2s-3.4-4.1-3.4-4.5 5.1 4.5 6.1 6.7zm38.7-2.3c-1 1-2.2-.9-2.2-3.4s0-1.9 1.4.3 1.2 2.6.8 3.1zM479.5 91c-.5.8-1.2 1.5-1.7 1.5s-.2-.7.5-1.5a6.6 6.6 0 0 1 1.7-1.6c.2 0-.1.7-.5 1.6zm49.4-.2a2.9 2.9 0 0 1-2.1 2.3c-1.2.2-1.2-.8 0-2s2.1-1.1 2.1-.3zM352.6 95c-.2 2.2-.7 4.3-1.1 4.7s-.4-6.6.5-8 .9-.8.6 3.3zm86.5-3.4c0 1-1.5 1.9-2 1.3s.4-1.9 1.4-1.9a.5.5 0 0 1 .6.6zm-284.6 1.3c0 .6-.4 1.1-.8 1.1s-.5-.5-.3-1.1.6-1.2.8-1.2.3.6.3 1.2zm118.5.5c-.3.6-.4.5-.5-.5s.2-1.2.4-1a1.9 1.9 0 0 1 .1 1.5zm42 1.7c.1.5-.3.3-.7-.3a5.1 5.1 0 0 1-.7-2.3c0-1.2 1.3 1.2 1.4 2.6zm-140.2.4c3.4 4.1 3.1 4.7-.5 1.2a17.8 17.8 0 0 1-3.1-3.6c0-1.3 1.3-.5 3.6 2.4zm61.1 4c0 .5-.5.2-1.1-.7a6.9 6.9 0 0 0-3-2.1c-1.3-.3-1.8-.9-1.8-2.5s.1-2 3 1.1 2.9 3.6 2.9 4.2zm272.6-4.7c-1.9 1.6-3.1 1.9-3.1.8s2.2-2.3 3.8-2.3.6.5-.7 1.5zm-171.6.9c-.2.6-.4.4-.4-.5s.1-1.2.3-1a1.5 1.5 0 0 1 .1 1.5zm98.4-1.2c0 1-3 4.3-3.5 3.8s.4-1.3 1.3-2.3 2.2-2.4 2.2-1.5zm25.9.6c0 .2-.3.5-.7.8s-.8.1-.8-.3a.7.7 0 0 1 .8-.8c.4 0 .7.1.7.3zm-9.1 2.3a2.8 2.8 0 0 1-1.2 1.9c-.9.8-1.1.7-1.1-.9a3.9 3.9 0 0 1 .5-2.3c.6-.7 1.8.1 1.8 1.3zm26.4 1.5c-1.2 1.8-2.8 2.6-2.8 1.4s3.2-4.1 3.6-3.7-.1 1.2-.8 2.3zm22.3 0c0 1.1-2.5 3.5-5.7 5.4s-1.9 1 .9-2 3.3-3.8 3.3-4.4.3-.7.7-.5a2 2 0 0 1 .8 1.5zm-124.9-.5c0 1.1-2.2 3.5-2.7 3s.1-1.2.9-2.1 1.9-1.8 1.8-.9zm59.5 3.4c-2.2 2.3-2.7 1.3-.7-1.3s1.8-1.8 2-1.2-.4 1.6-1.3 2.5zm22-2.5a.7.7 0 0 1-.8.8c-.4 0-.6-.3-.3-.8a1.3 1.3 0 0 1 .8-.7c.2 0 .3.3.3.7zm120.3.4a3.3 3.3 0 0 1-1.7 1.2c-.4 0-.3-.6.2-1.2a2.6 2.6 0 0 1 1.6-1.1c.4 0 .4.5-.1 1.1zm-473.2.8a1.3 1.3 0 0 1-.3 1.5c-.4.2-.7-.2-.7-1.1s.4-2 1-.4zm261.2 5a18.2 18.2 0 0 1-2.2 3c-.8 0 1.1-5.7 2.3-7s2.3.4-.1 4zm82.8-3.9a7 7 0 0 1-2 2.8c-1.6 1.4-1.6 1.4-.4-.5s1.4-2.3 1.7-2.8 1.2-1.2.7.5zm110.5 0c-.7.9-1.6 1.3-1.8 1.1s.2-1 1-1.5 2.5-1.4.8.4zm-438.5.4c.7 1.8-.9 2.1-1.8.4s-.6-1.5.3-1.5a1.9 1.9 0 0 1 1.5 1.1zm262.2 2.4c-.8 2.8-2.8 5.9-3.5 5.3a21.9 21.9 0 0 1 1.8-4.7c2.3-4.8 2.9-5.1 1.7-.6zm144.4.8c-6.7 5.5-8.3 6.6-7.6 5.6s8.9-8.5 9.5-7.9-.7 1.2-1.9 2.3zm-221.2-.4c0 1.2-.2 1.5-.8.9a1.4 1.4 0 0 1-.3-1.7c.7-1.3 1.1-1 1.1.8zm105.2.1c-.7.7-.8.6-.5-.5s.7-1.1 1-.9 0 .8-.5 1.4zm-59.4 2.9c-.9 2.4-1.9.5-1.2-2.2s.6-1.9 1.2-.8a3.9 3.9 0 0 1 0 3zm98.4.5c-2.5 2.4-2.9 1.8-.9-1.4s1.6-2.2 2.2-1.4 0 1.6-1.3 2.8zm91-3.3a24.3 24.3 0 0 1-2.6 3.2c-1.5 1.5-2.7 2.5-2.7 2.2s3.2-5.7 4.3-5.7 1 .1 1 .3zm-150.6 2.1c-.7.8-.8.7-.4-.4s.7-1.2.9-.9.1.8-.5 1.3zm-262.4 1.1c.3.7.1 1.1-.4.9s-1.8-2.2-.8-2.2 1 .6 1.2 1.3zm332.6-.1a1.6 1.6 0 0 1-1.2 1.1c-.4 0-.4-.4.2-1.1s1-1.2 1.2-1.2 0 .6-.2 1.2zm-239.3 4.2c0 1.3-1.3.7-2.5-1.2s-1.4-4 .7-1.6a7.6 7.6 0 0 1 1.8 2.8zm352.5-3.4c0 .6-.2 1.1-.3 1.1a5.4 5.4 0 0 0-1.6.5c-1.1.4-1.2.3-.5-1.1s2.4-2.2 2.4-.5zm-463.7 1.8c1.2 1.7 1.2 1.8-.3 1a9.7 9.7 0 0 1-2.7-2.1c-.9-1.1-.8-1.2.4-1a4.6 4.6 0 0 1 2.6 2.1zm40.6 1c-1 1-2-.6-1.3-2.3s.5-1.2 1.3.1a1.8 1.8 0 0 1 0 2.2zm115.1 2.5l-.5 2-1.4-2.1a9.5 9.5 0 0 1-1.5-4v-1.9l2 2c1.5 1.5 1.8 2.4 1.4 4zm39.2-2.9c0 2.7-.1 2.7-.8 1a4.9 4.9 0 0 1-.3-2.8c.7-1.9 1.2-1.1 1.1 1.8zm141.3.2a1.5 1.5 0 0 1-1.2.8c-.5 0-.6-.3-.4-.8a1.7 1.7 0 0 1 1.3-.7c.4 0 .5.3.3.7zm7.5.5c-.2.6-.6.9-.8.7a1.1 1.1 0 0 1 .1-1.2c.8-1.2 1.2-.9.7.5zm-295.8 2.3c-.2.2-.8-.4-1.4-1.4s-.8-1.7.5-.4 1.2 1.5.9 1.8zm28.3 1c0 .9-.2.9-1.1-.3a5 5 0 0 1-1.1-2.7c0-1 .2-.9 1.1.3a5 5 0 0 1 1.1 2.7zm313.5-2.8l-2.5 2c-1.2.8-1.1.6.3-.9a6.3 6.3 0 0 1 2.5-2.1c.4 0 .2.4-.3 1zm-216 2.8c0 1-.1 1-.8 0a5.3 5.3 0 0 1-.8-2.3c0-1 .1-1 .8 0a5.3 5.3 0 0 1 .8 2.3zm176.6-2.7c0 .2-.8.8-1.8 1.2s-1.6.8-.2-.3 2-1.5 2-.9zm-243.2 1.2c.2.4.1.8-.4.8a.9.9 0 0 1-.8-.8c0-.5.2-.8.4-.8s.5.3.8.8zm168.5.8c-.5.9-1 1.4-1.3 1.2s.1-1 .6-1.6 1.7-1.5.7.4zm170.6-1.2c0 .2-.3.5-.8.8s-.8.1-.8-.4a.9.9 0 0 1 .8-.8c.5 0 .8.2.8.4zM280.6 117c-.2.6-.4.1-.4-.9s.2-1.5.4-1a3.1 3.1 0 0 1 0 1.9zm283.1-1a1.7 1.7 0 0 1-1.4.8c-.4 0-.4-.4.2-1.1s2-1 1.2.3zm-94.1 2c-1 1-2.1 1.9-2.6 1.9s.2-1 1.4-2.3 2.4-2.1 2.6-1.9-.4 1.2-1.4 2.3zm-201.2.5c-.2.6-.4.5-.4-.4s.1-1.3.3-1 .3.9.1 1.4zm128.1-1.3c0 .2-.3.5-.7.8s-.8.1-.8-.4a.8.8 0 0 1 .8-.8c.4 0 .7.2.7.4zm85 1c-.6.6-1.5 1-1.8.7s0-.9.6-1.3 2.6-.8 1.2.6zM343 120.1c-.2.5-.4.1-.4-1s.2-1.5.4-.9a3.1 3.1 0 0 1 0 1.9zm-214.8-1c.3.5.1.8-.3.8a.7.7 0 0 1-.8-.8c0-.4.1-.7.3-.7s.5.3.8.7zm126 1.9c0 .4-.4.3-.8-.4a4 4 0 0 1-.7-1.9c0-.4.3-.2.7.4a4.8 4.8 0 0 1 .8 1.9zm-101.4 1.2c1.4 1.6 2.2 3 1.7 3s-5.4-4.5-5.4-5.4 1.2-.6 3.7 2.4zm158.5 1.6c1 4 .4 4.7-1.1 1s-1.5-4.2-.5-4.2 1.1 1.4 1.6 3.2zm132.4-2.8c0 .2-.3.5-.8.8s-.7.1-.7-.4a.8.8 0 0 1 .7-.8c.5 0 .8.2.8.4zm9.9 2.3c0 1.2-.8 2.4-2.3 3.5s-2.5 1.5-2.6 1.3 3.6-6.7 4.3-6.7.6.9.6 1.9zm6.1 0c-.5.6-1.2 1-1.4.8s.1-.9.6-1.6 1.2-.9 1.4-.7-.1.9-.6 1.5zm18.3-1.2c0 1.1-4.5 4.1-5.5 3.7s-.2-1 1.1-2.3 4.4-2.8 4.4-1.4zm-250.8 2.2c-.2.3-1-.1-1.8-.9s-1.2-1.3.5-.5 1.6 1.1 1.3 1.4zm73.3 3.1c.4 1.9.6 3.6.4 3.8s-1.8-1.3-2.3-4.8.8-4 1.9 1zm22.5-1.3c.2 1.4.9 4.7 1.5 7.5 1.3 5.6.4 9.3-.9 4.2a62.3 62.3 0 0 1-1.3-6.5c-.3-1.9-.6-4.4-.8-5.6-.4-2.9.9-2.5 1.5.4zm224.9-1.4c-3.4 2.4-6.8 4.1-6.8 3.6s3.5-3.4 5.4-4 2.1-.1 1.4.4zm-158.6 4.2c-.8 1.6-1.5 2.3-1.7 1.8s.2-2.2 1-3.7c1.8-3.3 2.4-1.8.7 1.9zm11-3.8c0 .8-5.4 9.3-5.8 9s2.7-6.8 4.1-8.4 1.7-1.6 1.7-.6zm-152.9 1.4q1.5 1.8-.3.3c-1.3-1-1.7-1.6-1-1.6s.8.6 1.3 1.3zm7.9 3.1c.2.6-.6.2-1.8-.7a7.4 7.4 0 0 1-2.3-2.4c-.1-.9 3.6 1.9 4.1 3.1zm190.8-2c-.5.6-.9.6-.9.2s1-1.9 1.5-1.4 0 .7-.6 1.2zm-155.9.3c.2.6.1 1.1-.2 1.1s-.9-.5-1.1-1.1-.1-1.2.3-1.2.8.6 1 1.2zm-149.1 1.6a6.4 6.4 0 0 1 3 2.3c.7 1.8-3.3.6-5.6-1.7s-1.1-2.4 2.6-.6zm8 .2c.9.7 1.6 1.8 1.5 2.3s-1.2 0-2.5-1.4-1.9-3.1 1-.9zm303.7-.4a3.4 3.4 0 0 1-1.1 1.3c-.9.8-1.1.7-.7-.4s1.8-1.7 1.8-.9zm54.1.9a3.1 3.1 0 0 1-1.7 1.1c-.4 0-.3-.5.2-1.1s1.2-1.2 1.6-1.2.4.6-.1 1.2zm-215.4 1.3c0 .9-.1 1.4-.3 1.3l-1.1-1.6c-.7-1-.7-1.2.2-1.2a1.4 1.4 0 0 1 1.2 1.5zm49.6 5.8c-.7 2.5-.8 2.2-.8-2.6s.1-5 .8-2.7a11.9 11.9 0 0 1 0 5.3zm24.9-5.8c0 1.3-1.3 3.2-1.9 2.7s-.1-1.1.4-2.1 1.6-2 1.5-.6zm180.1 0c-.6 1.4-5.8 4.5-7.2 4.2s.4-1.1 3-2.7c4.8-2.8 4.7-2.7 4.2-1.5zm-186.8 1.8c-.8 1.5-1.1 1.1-.4-.9s.6-1 .8-.8.1.9-.4 1.7zm116.4.1l-1.7 2.7c-.9 1.3-1.2 1.3-2 .3s-.6-1.4 1.1-2.8 3.6-2 2.6-.2zm-245.8.6c2 1 3 2.6 1.7 2.6s-5.6-3-5.6-3.5 1.7-.2 3.9.9zm71.8 0a12.7 12.7 0 0 1 .4 2.9c0 1.3-.2 1.4-.7.5s-1.7-4.6-.9-4.6.9.6 1.2 1.2zm36 7.3c-.2 1.8-.3.6-.3-2.8s.1-4.8.3-3.2a60 60 0 0 1 0 6zm187.4-7.9c0 .6-4.9 4-5.8 3.9s4.5-4.4 5.2-4.5a.5.5 0 0 1 .6.6zm-322.3 2.5c.8.7 4 2.9 7 4.8 5.8 3.8 6.7 4.7 3.7 3.6s-14.9-8.8-14.9-10 2.4 0 4.2 1.6zm281.3-1.9c0 .8-2.6 2.6-3.7 2.6s-.3-.6.8-1.5 2.9-1.9 2.9-1.1zm-135 3.9c-.4 3.6-3.4 11.6-3.5 9.4s2.6-12.9 3.3-12.9.5 1.5.2 3.5zm-188.8-.4c3.1 2.7 4.1 3.9 3.7 4.3s-6.8-4.4-7.5-5.6.8-1.3 3.8 1.3zm-10.6.2a20.1 20.1 0 0 1 4.3 3.4 4.5 4.5 0 0 0 2.3 1.6c.5 0 2.1 1.3 3.5 2.8s2.1 2.5 1.5 2.1c-3.2-1.7-14.2-9.4-15.1-10.5s.2-1.6 3.5.6zm186.5.6c-.3.6-.5.5-.5-.4s.1-1.3.4-1a1.6 1.6 0 0 1 .1 1.4zm34.7 2.7c-1 3.4-2.4 6-1.5 2.9l.9-4c.3-1.4.8-2.5 1.1-2.5s.1 1.6-.5 3.6zm74.5-1.4c-1.1 2-4.5 4.3-5.2 3.7s4.4-5.9 5.4-5.9.8.5-.2 2.2zm-303.3 1.5c1.9 1.4 2.3 3.1.8 3.1s-2.5-1.3-4.4-3l-3.4-3 2.6.8a25.9 25.9 0 0 1 4.4 2.1zm346.1-1.7a24.9 24.9 0 0 1-3 1.9c-1.5.8-1.5.8-.4-.6s2.5-2.5 3.8-2.5.8.3-.4 1.2zm-181.1 5.2a45.4 45.4 0 0 1 2.2 7.3 8.1 8.1 0 0 0 .7 2.8 2.3 2.3 0 0 1 0 2c-.7 2-2.3.1-3.3-4.1a11.8 11.8 0 0 1-.5-4.4c.2-.3-.1-2-.6-3.6s-1.5-6.3-.8-5.6a55.4 55.4 0 0 1 2.3 5.6zm53.8-3.7c-.9 1.5-1.2 1.1-.5-.8s.7-1.1.9-.9 0 .9-.4 1.7zm-253.6 0c0 .2-.6.3-1.2.3s-1.1-.3-1.1-.7.5-.6 1.1-.3 1.2.5 1.2.7zm169.2-.1c.2.6.1 1.2-.3 1.2s-.7-.6-.7-1.2.1-1.1.3-1.1.5.5.7 1.1zm193.8-.4c0 1.6-8.9 8.4-11.1 8.4-.3 0 1.5-2 3.9-4.6 4-4 7.2-5.7 7.2-3.8zm40.4 3.2c-4.7 4-5.8 3.7-1.2-.4 2.1-1.9 4-3.3 4.2-3s-1.1 1.7-3 3.4zM128 141.5a3.3 3.3 0 0 1 1.3 2c0 .7-.4.6-1.4-.3a4.4 4.4 0 0 0-2.2-1.2.9.9 0 0 1-.9-.8c0-1 1.7-.9 3.2.3zm362.9-.7c0 .7-2.4 2.7-3.3 2.6s-.1-.7.9-1.5 2.4-1.7 2.4-1.1zm-99.4 4.2c-2 4-3 5.1-1.8 1.9s3-5.7 3.5-5.7a19.8 19.8 0 0 1-1.7 3.8zm61.3-2.4a13.5 13.5 0 0 1-2.8 3.2c-2.7 2.6-2.8 2.2 0-1.8 1.4-2 2.8-2.7 2.8-1.4zm92.5.9a4.4 4.4 0 0 1-2.6 1.5c-.9-.1-.7-.4.6-1.6s3.8-1.9 2 .1zm-231.2.9c-.3.6-.4.5-.5-.5s.2-1.2.4-.9.3.9.1 1.4zm90.5 3.4c-1.8 3.5-5 8-5 7.1a82 82 0 0 1 5.4-10.5c1.8-3 1.6-.4-.4 3.4zm-101.2-2.6c-.2.6-.4.4-.4-.5s.1-1.2.3-1a1.5 1.5 0 0 1 .1 1.5zm75.5 2.2c-1 3.5-1.9 5-2.6 4.3s.4-2.2 1.3-4.3c2-4.6 2.6-4.6 1.3 0zm-236.2.9c.5.5.2.6-.8.2l-3.7-1c-2.3-.4-3.1-1.3-2.4-2.5s5 1.4 6.9 3.3zm147.7.7a7.8 7.8 0 0 1 .9 3.5c-.2.9-1 .1-2.7-2.5-2.9-4.5-3.3-6.8-.9-4.5a11.7 11.7 0 0 1 2.7 3.5zm-196.1-2.8l1.9 1.2-2.6-.5c-3-.5-5-1.9-2.7-1.9a9.9 9.9 0 0 1 3.4 1.2zm32.2 1c8.3 4.6 9.8 5.5 9.5 5.9s-11.7-5-12.8-6.3.2-1.3 3.3.4zm237.4 1.7c-.5 1.2-.8 1.4-.8.5s.9-4.1 1.3-3.1a6 6 0 0 1-.5 2.6zm50.1-2.6c0 .3-.7 1.1-1.5 1.6s-1.5.9-.8-.5 2.3-2.2 2.3-1.1zm-225.3 1a.7.7 0 0 1-.7.7 1.7 1.7 0 0 1-1.2-.7c-.3-.5.1-.8.7-.8s1.2.3 1.2.8zm-12.2 1.7c0 .4-.4.4-1.1-.2s-1.1-1-1.1-1.2l1.1.2a1.6 1.6 0 0 1 1.1 1.2zm-20.1 1.1c-.5.6-3.5-.6-3.5-1.4s.9-.3 1.9.2 1.8 1 1.6 1.2zm43.7 1.9c0 .8-1.2.2-3.2-1.5s-1.5-2.6.9-.8 2.3 2 2.3 2.3zm116-1.6a19.5 19.5 0 0 1 .4 4.8c0 2-.2 1.8-1.1-1.4s-1.4-5.8-.4-5.8.9 1.1 1.1 2.4zm41.7 1.2c-.7 1.2-.8 1.2-.8-.6a5.7 5.7 0 0 1 .5-2.6c1-.9 1.2 1.7.3 3.2zm-117.5-1.3c1.4.9 2.5 1.9 2.5 2.4s-4.2-1.4-5.5-3 .2-1.1 3 .6zm57.5 1.6c-.4.4-1.7-1.6-1.7-2.7s.4 0 1 .8.9 1.6.7 1.9zm112.7-1.3c-1.1 1.8-6.4 7.6-6.4 7s5.4-8 6.2-8 .5.4.2 1zm70.5.5a1.3 1.3 0 0 1-1.5 1.5c-1.7 0-2.1-1.9-.6-2.5s2.1-.5 2.1 1zm-408.7-.5c0 .9-1.5 1.2-1.9.5s0-.8.7-.8 1.2.2 1.2.3zm74.2 2.1c.4.4-.4.4-1.7-.1a6.1 6.1 0 0 1-2.5-1.3c0-.5 3.3.7 4.2 1.4zm200.2 5.5a13.3 13.3 0 0 1-1.6 4.8c-.9 1.3-1 1-1.1-3.3a21.5 21.5 0 0 1 .9-6.7l.9-2.1.7 2.1a12.4 12.4 0 0 1 .2 5.2zm22.1-5a11 11 0 0 1-1.2 2.8c-.4.4-.4-.5 0-1.9s.7-2.7.7-2.8.2-.2.5-.2.2.9 0 2.1zm-302.6-.6c0 .5-.5.8-1.2.8s-1-.3-.7-.8a1.4 1.4 0 0 1 1.1-.7.7.7 0 0 1 .8.7zm231.1 6.3c.7 1.6 1 3.1.6 3.4s-.7.1-.9-.5a7.5 7.5 0 0 0-1.9-2.5 9 9 0 0 1-1.9-4.3l-.4-2.8 1.6 1.9a30.4 30.4 0 0 1 2.9 4.8zm116.7-4.8c-.4.9-1.2 1.6-1.7 1.6s-.2-.7.6-1.6a5.9 5.9 0 0 1 1.7-1.5c.1 0-.1.7-.6 1.5zm-208.7.4c.3.3-.4.3-1.6.1a9.8 9.8 0 0 1-2.7-.8c-.3-.3.5-.3 1.7-.1a7.9 7.9 0 0 1 2.6.8zm-92.2.1a1.6 1.6 0 0 1-1.4.1c-.6-.3-.5-.4.4-.5s1.3.2 1 .4zm168.9 2a39.4 39.4 0 0 1 3 3.6c.6 1.1.5 1.1-.8 0-3.6-2.8-4.3-3.5-5-4.8s.4-1.4 2.8 1.2zm39.6 9c.3 2.2.3 3.9 0 3.6s-2.7-8.6-2.6-12v-3.4l1.1 3.8c.5 2 1.2 5.7 1.5 8zm6.8-1.3c.3 2.3.2 2.8-.3 1.9s-3.1-10.3-2.5-10.8 2.1 4.5 2.8 8.9zm62.8-8.4c0 1.4-4.5 8.4-5 7.9s3.2-8.9 4.1-8.9a1 1 0 0 1 .9 1zm129.4.9a3.1 3.1 0 0 1-1.7 1.1 20.2 20.2 0 0 0-4.1 1.6c-5.6 2.6-6.6 1.3-1.1-1.4s8.5-3.2 6.9-1.3zm52.2.4c.5.9-4.1 3-5.6 2.5s-1.2-1.7.7-2.5 4.3-.9 4.9 0zm-475.4 1.6c0 .3-.6.7-1.2.7s-1.5-.9-.7-1.8 1.9.1 1.9 1.1zm277.5 2.9c-1.4 4-4.3 7.6-3.2 3.9s3.5-8.6 4-8.2-.1 2.1-.8 4.3zm203.6-3.6c-.1.9-1.1.8-1.5-.2s.1-.8.7-.6.9.5.8.8zm-402 1.9c1.1 1.1.9 1.2-1.9.7l-4.6-.5a2.1 2.1 0 0 1-2.1-1.2c-.4-1.1 0-1.2 3.5-.8s4.5 1.1 5.1 1.8zm36.2-.9c.8.6 1.2 1.3 1 1.6s-3.7-1.4-3.7-2.2 1-.6 2.7.6zm125.4.1a4.9 4.9 0 0 1-.3 2.9c-.4 1.2-.6.9-.6-1.3s.3-3.7.9-1.6zm20 2.3c-.7 2-1.3.6-.7-1.7s.7-1.9.9-.9a4.6 4.6 0 0 1-.2 2.6zm-247.8-2c0 .9-.8.9-2.3-.1s-.8-.7.6-.7 1.7.4 1.7.8zm203.9 6.4c0 1.3-.1 1.4-.4.2s-.6-1.3-.9-1.3-2.6-4.4-1.9-5.5 3.3 4.3 3.2 6.6zm-71.4-3.7c0 .8-1.5.2-3.2-1.2l-1.8-1.6 2.5 1.2a7.7 7.7 0 0 1 2.5 1.6zm-124.7-1.4a3.1 3.1 0 0 1-1.9 0c-.5-.3-.1-.4 1-.4s1.4.1.9.4zm406.3-.3c0 .2-.9.5-1.9.7s-1.6 0-1.4-.4 3.3-.8 3.3-.3zm-436.2 1.7c3.2.7 3 1.8-.3 1.8s-5.5-.7-4.2-1.6 1.4-.8 4.5-.2zm166.9 4.3c1 1.1 1.9 2.1 1.7 2.1s-5.7-3.5-6.8-5.2l-1.4-2 2.2 1.5a34.2 34.2 0 0 1 4.3 3.6zm239.5-3l-3.5 1.9c-1.8 1-3.2 1.4-3.2 1s6.4-4.8 6.7-3.8.2.8 0 .9zm-462.7-.2a.7.7 0 0 1-.7.7 1.7 1.7 0 0 1-1.2-.7c-.3-.5 0-.8.7-.8s1.2.3 1.2.8zm334.1 1.6c-.9 3.4-2.3 6-3.2 6s.1-3.7 1.8-6.3 2.3-2.7 1.4.3zm-185.5-1.1a3.1 3.1 0 0 1-1.9 0c-.5-.2-.1-.4 1-.4s1.5.2.9.4zm361.7 1.8c-1.5 1.5-12.3 4.7-13.5 4s1-1.1 3-1.9l6-2.6a14.2 14.2 0 0 1 4.2-1c1.8-.1 1.8 0 .3 1.5zm-451.3 0c.3.4.1.7-.3.7a.7.7 0 0 1-.8-.7c0-.5.1-.8.3-.8s.5.3.8.8zm62.9 2.2c1.7 1.4 1.7 1.5.3 1.5a3.1 3.1 0 0 1-2.5-1.5c-1.2-1.9-.1-1.9 2.2 0zm371.9-.2c-.7.7-1.6 1-1.8.7s0-.9.6-1.3 2.6-.7 1.2.6zm-275.4 2.3c1.1 1.1 1.1 1.2-1.1.7a9 9 0 0 1-3.4-1.7c-1-1.1-.9-1.2 1-.7a8.8 8.8 0 0 1 3.5 1.7zm95.5.9c-.3 1.4-.7 2.3-.9 2.1a7.5 7.5 0 0 1 .2-2.8c.3-1.3.7-2.2.9-2a7.1 7.1 0 0 1-.2 2.7zM175 169.7c1.2 1.5-.1 1.5-2 .1s-1.2-1.1-.2-1.2a3.3 3.3 0 0 1 2.2 1.1zm39.1-.6c1.7.6 1.6 2.5-.1 2.5s-6.3-1.5-6.3-2.3 4.6-.9 6.4-.2zm357.3 0a1.9 1.9 0 0 1-1.5 0c-.6-.2-.4-.4.5-.4s1.2.1 1 .4zm-291.3 2.6c0 .5-.6.5-1.6-.1s-1.5-1.1-1.5-1.6.5-.4 1.5.1 1.6 1.2 1.6 1.6zm-200.7-.9c.3.4-.2.5-1.1.3s-1.9-1-.3-1a1.6 1.6 0 0 1 1.4.7zm292.8.4a1.8 1.8 0 0 1-1.2 1.5c-1.2.5-1.3.4-.6-1.4s1.8-1.6 1.8-.1zm-299 1.2c6 1 9.3 2.7 3.9 2l-8.3-.9c-6.3-.5-8.1-1-7.6-1.8s4.4-.5 12 .7zm20-.8c.6 1-1.7.9-3.8 0s-1.2-.6.9-.7a4.4 4.4 0 0 1 2.9.7zm60.8 0c.3.4.1.8-.5 1s.8.7 2.8 1.2c4.9 1.2 4 1.9-1.2.8s-5-1.1-3.7-2.6 2-1.4 2.6-.4zm55.6.5c.8.5 1.3 1.3 1 1.5s-3.6-1.3-3.6-2.2 1-.6 2.6.7zm19.6 0c.9 1.2.8 1.2-.7.4s-2.2-1.6-1-1.6a4.4 4.4 0 0 1 1.7 1.2zm-37.8 2.7c1.5 1.5 1.5 1.5-1.2.6a14.8 14.8 0 0 1-3.8-2c-1-.9-.8-1 1.2-.6a9.9 9.9 0 0 1 3.8 2zm393.2.3c-.9 1.2-1.6 1.8-1.6 1.4s2.4-4.2 2.8-3.8-.3 1.3-1.2 2.4zm-270.4.4c.9 1.8.9 1.8-.2.4a5 5 0 0 1-1.2-2.3c0-.9.3-.4 1.4 1.9zm189.3-1.6a2.5 2.5 0 0 1-1.8.8c-1.1 0-1.1-.1-.1-.8s2.5-1 1.9 0zm-414.7.5a1.8 1.8 0 0 1-1.5.1c-.6-.3-.4-.4.5-.5s1.2.1 1 .4zm32.2 1.1c1.4.8-3.5 0-5.7-.9s-.6-.5 1.5-.2a13.8 13.8 0 0 1 4.2 1.1zm151.8.6c-.5.5-1.9-.6-1.9-1.6s.5-.3 1.2.2.9 1.2.7 1.4zm68 2.8l-1.8 2.6-.6-2.3c-.8-3.1-.2-4.5 1.7-4s1.6 0 1.7-.6.2-.4.4.3-.4 2.6-1.4 4zm-200.2-2.3c.8.7.3.9-2.5.9s-3.4-.2-3.4-.9 3.8-2 5.9 0zm65.2-1.1c.3.4 0 .7-.7.7s-1.2-.3-1.2-.7a.7.7 0 0 1 .8-.8 1.3 1.3 0 0 1 1.1.8zm62.5 0c.8 1.3-.1 1.6-1.2.3s-.6-1.1-.1-1.1a2 2 0 0 1 1.3.8zm281.5 1.1c-.3.8-1.6 1.1-4.6 1.1-4.8 0-5-.4-.6-1.4s5.7-1 5.2.3zm-462.7 1.1c1.8.5 1.3.6-2.2.6s-4.6-.4-4.8-.7 3.9-.7 7 .1zm488.6-.3c1 .4 1 .8.4 2s-.9 1.5-1.8.2-.8-3 1.4-2.2zM57 178.5c1 .7 1 .8 0 .8a5.8 5.8 0 0 1-2.3-.8c-.9-.7-.9-.8 0-.8a4.9 4.9 0 0 1 2.3.8zm66.2.4c4.6.7 6.6 1.8 3.3 1.9s-13.1-1.7-13.1-2.5 2.1-.5 9.8.6zm189.3 1.5c1.2 2.9 1.5 7.6.4 6.9a7 7 0 0 1-1.1-3.3c-.3-1.6-.7-3.6-1-4.5-.7-2.7.4-2.1 1.7.9zm10.4-1.5c.3.6.2 1.1-.2 1.1s-.8-.5-1-1.1-.2-1.2.2-1.2.8.6 1 1.2zm49.9 2.8c-1.4 3.9-2.9 6.3-2.9 4.6a1.6 1.6 0 0 1 .7-1.3 8 8 0 0 0 1.2-3.2c.6-3.3 1-4.1 1.9-4.1s-.1 1.8-.9 4zm-145-1c.9.8 1.4 1.7 1.1 2s-7.1-2.2-7.8-3.4 5.1-.3 6.7 1.4zm132.6-.2c-.2.7-.6 1.1-.8.9a2 2 0 0 1 .1-1.7c.2-.7.6-1.1.8-.9a2 2 0 0 1-.1 1.7zM73.6 180c.9 0 1.7.3 1.7.7s-6.1-.4-6.8-1.2.4-.3 1.5 0a14.9 14.9 0 0 0 3.6.5zm177 2.8c-1.1.4-4-1.1-4-2.1s1.1-.2 2.4.5 2.1 1.5 1.6 1.6zm44.7.9c0 .8-.3.9-1.2.1a3.6 3.6 0 0 1-1.1-2.5c.1-1.6.1-1.6 1.2-.2a6.1 6.1 0 0 1 1.1 2.6zm9.9-.4c0 1.4-.2 1.5-.8.5s-1-3.2 0-2.6a2.7 2.7 0 0 1 .8 2.1zm37 1.4l-1.2 2.5.4-2.2c.6-3.4 1.2-4.7 1.6-3.7s-.2 2-.8 3.4zm-251.8-1.9c.2.1-1.4.3-3.5.3s-4.1-.4-4.4-.8 7.2-.2 7.9.5zm174.8.3c.3.4-.2.7-1.1.7s-1.7-.3-1.9-.7.2-.8 1-.8 1.8.3 2 .8zm89.7 4c-.7 2.5-1.8 4.3-2.3 4.3s-.9-.2-.8-.5.7-1.6 1.3-2.9c2.2-4.9 2.6-5.7 2.8-5.4s-.3 2.2-1 4.5zm63.7-4c0 .4-.2.7-.6.7a29.9 29.9 0 0 0-4.3 3.4c-2 1.9-4.2 3.5-4.9 3.5s0-1.7 4.8-5.4 5-3.5 5-2.2zm97 .7c-1.2 1-11.6 4-12.7 3.6s1.1-.9 3.6-1.6l6.5-1.9c2.6-.9 3.5-1 2.6-.1zm-368 .8c1 .7 1 .7-.1.7a2.3 2.3 0 0 1-1.8-.7c-.6-1 .4-1 1.9 0zm161 2.8c1.4 3.3 1.4 3.3.2 3.3s-2.8-2.5-2.8-4.8 1.1-2.1 2.6 1.5zm59.7-.2c-.4 1.2-.9 2-1.1 1.8s.1-1.4.6-2.8 1-2.1 1.2-1.8a6.5 6.5 0 0 1-.7 2.8zm175.6-2.2c-1.4 1-5.8 1.6-5.8.7s4.5-1.7 6.1-1.8.7.3-.3 1.1zm-460.3.8c.7.7-5 .2-6-.5s-.1-.6 2.3-.2l3.7.7zm34.1.4c.9.4 1.7.8 1.7 1s-4.5-.8-6.8-1.8-1.7-.8.8-.3l4.3 1.1zm124.2-.9c.6.4 1 .9.8 1.1s-1.1 0-1.8-.6-.8-1.6 1-.5zm51.8 1.3c2 2.6 2.1 4.2.2 3.6s-3.9-2.7-3.9-4.2 1.9-1.7 3.7.6zm-100 1c.2.5-.1.8-.8.8s-1-.3-.8-.8.6-.7.8-.7.5.3.8.7zm125.4 1.6c.3 2.6-.5 4.5-1.3 2.6s-.5-4.9.2-4.9.9 1 1.1 2.3zm250.9.8c-1.1 1.5-2.1 2.2-3.2 2s-2.6-2.1-.4-2.1a6.2 6.2 0 0 0 3.2-1.1c2.2-1.7 2.3-1.4.4 1.2zm-488.3.4a6.7 6.7 0 0 0 3.3 1 10.1 10.1 0 0 1 4.2 1.6l2.5 1.6-2.3-.5c-3.7-.9-13.6-4.1-14.9-4.9s0-.7 2.3-.3a14.2 14.2 0 0 1 4.9 1.5zm15.9.7c1.6 1.1 1.5 1.1-1.7.6a32.3 32.3 0 0 1-5.8-1.5c-2.2-1-2.1-1 1.8-.7a14.4 14.4 0 0 1 5.7 1.6zm19.2-.8l3 1.1h-2.4c-3 .1-4.9-.6-4.4-1.6s.2-.8 3.8.5zm325.6.4c-.4.5-2.3 1-4.1 1.2l-3.3.4 3.8-1.4c3.9-1.5 5-1.5 3.6-.2zm15.2-.1c.3 1.2-.1 1.6-2.5 2-4.4.7-5.4-.4-1.8-2s3.9-1.7 4.3 0zm-68.4 1.2c-1.1 1.8-2.6 2.5-2.6 1.4s2.4-3.3 3.1-3.3.2.8-.5 1.9zm-54.1 0c-.2.6-.7 1.2-1 1.2s-.5-.6-.3-1.2.8-1.1 1.1-1.1.5.5.2 1.1zm-109.8.9a2.9 2.9 0 0 1-1.6.3c-.8 0-1.5-.4-1.5-.7s.7-.5 1.5-.3 1.6.5 1.6.7zm66.2-.2c0 .2-.3.6-.8.8s-.7.2-.7-.3a.7.7 0 0 1 .7-.8c.5 0 .8.1.8.3zm25.1 2.4c0 1.1-.4 1.7-.8 1.5a2.7 2.7 0 0 1-.7-2c0-.8.3-1.4.7-1.4s.8.8.8 1.9zm114.9-.3c0 .3-.9.6-1.9.6s-1.9-.1-1.1-1 3-.9 3 .4zm-259.6-.6c-.9.8-4.5 1.2-4.5.5s1.1-.8 2.4-.8 2.3.1 2.1.3zm83.8.9c0 .9-.6 1.1-2.4.9-3.5-.3-3.8-2.1-.3-2.1 1.9 0 2.7.3 2.7 1.2zm259.3-.7a1.6 1.6 0 0 1-1.4.1c-.6-.3-.5-.5.4-.5s1.3.1 1 .4zm29.2.1c0 1.1-3.2 2.5-4.7 2s-1.9-1.6-.5-2 5.2-.5 5.2 0zm-432.6 1.4a1.6 1.6 0 0 1-1.4.1c-.7-.3-.5-.4.4-.5s1.2.2 1 .4zm240.7.3a1.1 1.1 0 0 1-1 .8 1.3 1.3 0 0 1-1.1-.8c-.1-.4.3-.8 1-.8s1.2.4 1.1.8zm72.9-.3a1.6 1.6 0 0 1-1.4.1c-.7-.3-.5-.4.4-.5s1.3.2 1 .4zm107.6.8a6.7 6.7 0 0 1-2.5.3c-1.7 0-2.1-.3-1.4-.7s3.9-.3 3.9.4zm-212.1.6a1.2 1.2 0 0 1-.7 1.5c-.7.2-1.1-.2-1.1-1.1s1.1-2.1 1.8-.4zm133.4-.6a1.7 1.7 0 0 1-1.4 0c-.6-.2-.5-.4.4-.4s1.3.1 1 .4zm5.2.3c.3.4-.4.7-1.5.7s-1.9-.3-1.9-.7.6-.8 1.5-.8 1.7.3 1.9.8zm-322.8.8c1.5.1 1.4.1-.3.7s-3.8.8-3.8-.5.4-1 1.2-.7a11.6 11.6 0 0 0 2.9.5zm110.4-.1c.3.5 0 .8-.7.8s-1-.3-.8-.8.6-.7.8-.7.5.3.7.7zm-41.6.5a10.5 10.5 0 0 1-3.1.1c-.9-.2-.3-.4 1.4-.4s2.4.1 1.7.3zm71.4.4c.8 1.3-.1 1.5-1.2.3s-.6-1.2-.1-1.2a1.9 1.9 0 0 1 1.3.9zm160.2-.1c0 .4-.6.8-1.4.8s-1.1-.2-.2-.8 1.6-1 1.6 0zm44.1 0c0 .4-.5.8-1.1.8s-1.2-.4-1.2-.8.6-.8 1.2-.8 1.1.4 1.1.8zm-253.4 2c1 1.1.8 1.1-1 .7s-5.9-1.9-5.9-2.3 5.8.5 6.9 1.6zm34.9-.5l2 1.5-4.2-.2c-5.4-.2-6.1-2.4-.8-2.7a5.6 5.6 0 0 1 3 1.4zm9.8 0c.2.6-.2.8-1.1.7s-2.3-2.1-.6-1.9a2 2 0 0 1 1.7 1.2zm25.3-.8c0 1.1-2.2 2.5-3.2 1.9s-.5-.8.5-1.6 2.7-1.3 2.7-.3zm-198.3.8c1.2.6 1 .7-1.3.7s-3.1-.3-3.3-.7 2.4-.9 4.6 0zm55.5.1c.9 0 .4.3-1 .7-2.9.6-4.9.2-4.2-.9s1.2-.6 2.1-.3l3.1.5zm378.5.5c-.2 1.2-1.9 1.4-6.2.6l-2.1-.4c-.4 0-.6-.3-.6-.8s2.1-.7 4.6-.7 4.6.3 4.3 1.3zm-386.8.2c.2.4-.7.7-2.3.7s-2.6-.3-2.3-.7a3.1 3.1 0 0 1 2.3-.8 3.3 3.3 0 0 1 2.3.8zm88.2-.1c.9 1.3-2.5 1.7-4.3.5s-1.6-1.2 1.1-1.2 3 .3 3.2.7zm281.1.5c3.4.4 5.2 1.8 2.6 1.9-5 .2-6.9.1-9.6-.4s-5-1.4-2.7-1.9 4-.4 9.7.4zm40.9-.4c1.1.4 1.2.7.4.8l-3.2.4c-2.3.4-2.9-.9-.7-1.5s1.9-.5 3.5.3zm-256.9.3c0 .2-.3.5-.7.8s-.8.1-.8-.3a.8.8 0 0 1 .8-.8c.4 0 .7.1.7.3zm260.7.3c.2.4-.1.7-.8.7s-1.1-.3-1.1-.7.3-.6.8-.6a1.4 1.4 0 0 1 1.1.6zm-431.2 2.4c0 .5-1.2.6-3.2.3-4.4-.7-4.5-1-.3-1 1.9 0 3.5.3 3.5.7zm133.6.8a2 2 0 0 1-3 0c-.3-.5.4-.8 1.5-.8s1.8.3 1.5.8zm46.2.9c-.5.5-.9.6-.9.1s1-1.9 1.5-1.4 0 .8-.6 1.3zm-60.6 1.2c-.2.3-1-.1-1.7-.9s-1.3-1.3.4-.5 1.6 1.2 1.3 1.4zm6.9-1.3c.9 1.5-.5 1.8-1.8.5s-1.2-1.3 0-1.3a2.5 2.5 0 0 1 1.8.8zm3.1-.4c-.2.3-.9.3-1.4.1s-.5-.4.4-.4 1.3.1 1 .3zm-54.9 1.1c-2.1.9-2.7.9-2.7 0s.9-.7 2.1-.7 1.9.1.6.7zm40.6.3c1.2 1.5-.1 2.3-2.7 1.6s-1.8-.6-1-1.5 2.6-1.5 3.7-.1zm204.5-.3c.2.4-.1.8-.8.8s-1.1-.4-1.1-.8.2-.8.7-.8a1.5 1.5 0 0 1 1.2.8zm111.8 0c.3.4-.4.8-1.4.8s-2-.4-2-.8.7-.8 1.5-.8a2.4 2.4 0 0 1 1.9.8zm-337.9.8a2.5 2.5 0 0 1-1.8.7c-1 0-1-.2.3-.7s2-1 1.5 0zm13.7.3a7.4 7.4 0 0 1 2.7 1.5c0 .3-8.3.1-12.2-.3-1.2-.2 4.1-2.1 5.9-2.2a9.8 9.8 0 0 1 3.6 1zm316.8-.6a1.9 1.9 0 0 1-1.5 0c-.6-.2-.4-.4.5-.4s1.2.1 1 .4zm-247.9 1.4a3.1 3.1 0 0 1-1.7 1.1c-.4 0-.3-.5.2-1.1a2.6 2.6 0 0 1 1.6-1.1c.4 0 .4.5-.1 1.1zm265.5-.6c1 .2 1.6.8 1.4 1.3s-2.6.8-7.4-.1c-2.5-.4-2.5-.5-.7-1a10.3 10.3 0 0 1 6.7-.2zm-137.1 2.7a1.4 1.4 0 0 1-1.2.9l-2.4-.2c-2.7-.2-1.6-1.7 1.2-1.7s2.7.4 2.4 1zm8.2.6c.3.4.2.7-.3.7a1.5 1.5 0 0 1-1.2-.7c-.3-.5-.2-.8.3-.8a1.5 1.5 0 0 1 1.2.8zm-28.1.8c.8 1.4-.2 1.7-4 1.1s-3.4-.7-1.8-1.2 5.2-.8 5.8.1zm36.7-.2c.5.1.9.4.9.9s-.9.5-2.1.4l-2.6-.4c-.4 0-.6-.3-.6-.7s.8-.5 1.7-.5l2.7.3zm49.8.2c-.6.7-1.3.7-2.6.1s-1.6-.9.9-.9 2.4.2 1.7.8zm5.8.4c.2.2-.8.3-2 .3s-2.4-.4-2.4-.8 3.5-.3 4.4.5zm-226.9 0a1.8 1.8 0 0 1-1.5.1c-.6-.3-.4-.5.5-.5s1.2.1 1 .4zm-4.4 1c0 .6-2.5 1.5-4.3 1.6s-1.2-1.4.4-1.8 3.9-.5 3.9.2zm15.3 1.4c-1.7 2.5-3.9 4.4-3.9 3.6s3.9-5.7 4.7-5.7 0 1-.8 2.1zm196.9-1.7a1.5 1.5 0 0 1-1.5.1c-.6-.2-.4-.4.5-.4s1.2.1 1 .3zm-271.2 1c-.8.7-11.8 1.8-11.8 1.2s.8-.7 1.7-1.1 11-.9 10.1-.1zm177.6.7c.2.6-.1.8-.9.5s-1.2-.8-1.2-1.2 1.7-.4 2.1.7zm-215.5-.1c-.7.7-5.8 1.6-5.8 1s.6-.8 1.3-1 5-.5 4.5 0zm177.7 1.5c-.6 1.2-.8 1.2-.8.2s.7-2.4 1.3-1.9 0 1-.5 1.7zm13.3.6c.4 2.1-.7 2.8-1.5.8s.2-3.7.8-3.1a6.9 6.9 0 0 1 .7 2.3zm107.9-.5c3.2.4 3.5.6 2.5 1.5s-1.5 1-4.6-.2-3.8-1.7-4-2.1.1-.6 1-.2a37.9 37.9 0 0 0 5.1 1zM250.2 217c-.8.8-1.4 1-1.7.4s0-.8.7-.8 1.2-.4 1.2-.9.2-.7.5-.4 0 1-.7 1.7zm87.8.5c-.6.6-.6.3-.3-1s.6-1.3.8-.8a2 2 0 0 1-.5 1.8zm118.6-.9c1 .6.9.7-.5.7s-1.9-.3-2.1-.7 1.1-1 2.6 0zm-338.1.5h-2.7c-.7-.2-.1-.4 1.4-.4s2 .2 1.3.4zm44.7.2a8.9 8.9 0 0 1-3.4.7c-1.5.1-1.7-.1-.8-.7a8.3 8.3 0 0 1 3.5-.7c1.9 0 2 .1.7.7zm341 0c.3.4.1.8-.3.8a.8.8 0 0 1-.8-.8c0-.4.1-.7.3-.7s.5.3.8.7zm-269.8 2c-2.8.6-5.9 1.4-7.1 1.8s-2 .4-2 .1 4.4-2.1 7.6-2.6c4.9-.8 5.9-.3 1.5.7zm234.4-.5c0 .5-.1.8-.3.8s-.5-.3-.8-.8-.1-.7.3-.7a.7.7 0 0 1 .8.7zm18.4.4l2.6 1.2-3.8-.5c-4.2-.5-6.6-1.8-3.3-1.8a14.6 14.6 0 0 1 4.5 1.1zm-235.3 0c0 .2-.3.5-.8.8s-.7.1-.7-.4a.8.8 0 0 1 .7-.8c.5 0 .8.2.8.4zm30.4.8c-.5.6-1.1.9-1.3.7s.6-1.9 1.5-1.9.4.5-.2 1.2zm10.6-.2c-.1.2-1.6 1.2-3.1 2.3s-4.1 2.6-3.3 1.3 6-4.5 6.4-4.1.2.4 0 .5zm-111.1.1l-3.7.7c-2.2.3-3 .2-2.3-.2s6.7-1.1 6-.5zm31.1.1c-.6.6-5.2 1.9-5.2 1.4s3.2-1.7 4.5-1.8.9.2.7.4zm-112.1 1.1a1.4 1.4 0 0 1-1.2.8.7.7 0 0 1-.7-.8c0-.4.5-.7 1.2-.7s1 .3.7.7zm267.2 0c.2.5.1.8-.4.8a.8.8 0 0 1-.8-.8c0-.4.2-.7.4-.7s.5.3.8.7zm36.9.8c0 .5-.3.7-.8.7s-.7-.4-.7-1.1.3-1 .7-.8a1.5 1.5 0 0 1 .8 1.2zm97.1-.2c-.3.3-.9.1-1.4-.5s-.6-.8.4-.4 1.2.7 1 .9zm-409.2.2c0 .4-1 .7-2.3.7s-2.1-.3-1.9-.7a3.5 3.5 0 0 1 2.3-.8c1 0 1.9.4 1.9.8zm238.7 2c-.6 1.2-1.1 1.9-1.2 1.6s1.8-4.4 2.1-4.1-.2 1.3-.9 2.5zm61.5-1.6c.2.6.1 1.1-.3 1.1s-.8-.5-.8-1.1.2-1.2.4-1.2a2.7 2.7 0 0 1 .7 1.2zm22.5-.4c0 .4-.1.7-.3.7s-.5-.3-.8-.7-.1-.8.3-.8a.7.7 0 0 1 .8.8zm115.9 2.9c3.6.7 6.9 1.6 7.3 2s-12.3-.2-15.8-1.8l-3.5-1.5h2.7a73.2 73.2 0 0 1 9.3 1.3zm-306.4-.2c-.2.3-.9.3-1.4.1s-.5-.4.4-.5 1.3.2 1 .4zm36-.2l-1.9 1.3c-1.4 1.1-1.4 1.1-.5-.2a3 3 0 0 1 1.9-1.3c.4 0 .6.1.5.2zm91.1 1.4c-.2.7-.4.5-.4-.4s.1-1.3.4-1a1.7 1.7 0 0 1 0 1.4zm-131-.1a1.8 1.8 0 0 1-1.2.8.7.7 0 0 1-.7-.8c0-.5.5-.8 1.1-.8s1 .3.8.8zm168.1 0a.7.7 0 0 1-.2 1.1c-.4.2-.9-.1-1.1-.7s.6-1.6 1.3-.4zm-84.1 1.5c-1.8 1.2-2.7.8-1.1-.4s1.7-.9 1.9-.7-.2.8-.8 1.1zm140.5 1.9c.8.6 1.3 1.3 1.1 1.5s-1.5-.6-3-1.9-1.1-1.9 1.9.4zm8.4-1.5c.7.6 1.2 1.4.9 1.7s-1.4-.3-2.3-1.2-.9-2.2 1.4-.5zm21.5 1.2a13 13 0 0 0 3.8 1.5 1 1 0 0 1 .9 1.1 1.1 1.1 0 0 1-1 1.1c-.9 0-11-4.9-11.9-5.8s5.6.8 8.2 2.1zm-149.7 2.6c-.9 1.7-1.5 2.7-1.6 2.2s2.5-6.8 2.8-5.9a9.7 9.7 0 0 1-1.2 3.7zm188.6-2.6c4.7 1.5 4.7 2.4-.1 2s-7.4-1.8-7.4-3 4-.1 7.5 1zm-402.6-.1a.7.7 0 0 1-.8.8c-.4 0-.6-.3-.3-.8s.6-.7.8-.7.3.3.3.7zm468.7-.3a1.5 1.5 0 0 1-1.5.1c-.6-.2-.4-.4.5-.4s1.2.1 1 .3zm-389.5.9c0 .6-3.3 2.5-4.3 2.5s.5-2 2.1-2.4l2-.6c.1 0 .2.2.2.5zm270.4.8c.3.4 0 1-.8 1.4s-1.6.4-2.7-1.1l-1.5-1.9 2.2.5a8.8 8.8 0 0 1 2.8 1.1zm-151.7.2a.7.7 0 0 1-.8.7c-.4 0-.6-.3-.3-.7s.6-.8.8-.8.3.3.3.8zm161.1 1.3c-.2.3-1-.1-1.8-.9s-1.2-1.3.5-.4 1.6 1.1 1.3 1.3zm73.1-1.2c.2.4-.6.6-1.9.6a4.3 4.3 0 0 1-2.8-.7c-.2-.5.5-.7 2-.7a5 5 0 0 1 2.7.8zm16.3.3c2.4.9-1.1 1.7-5.3 1.3s-6.8-.9-5.6-1.6 9-.3 10.9.3zm30.2-.1c1.5.7 2.6 1.3 2.4 1.4s-2.7.2-5.8 0c-5.4-.4-7.2-1.3-3.8-2s4.4-.5 7.2.6zm-410.1.3c0 .7-6.2 2.4-8.5 2.4s.6-1.5 3.6-2.2 4.9-1 4.9-.2zm140.9-.2c0 .9-3.2 4.9-3.9 4.9s-.7-1.8 1-3.6 2.9-2.3 2.9-1.3zm81.7 1.5c.3.7.2 1-.3.7a1.4 1.4 0 0 1-.8-1.1c0-1.1.6-.9 1.1.4zm32.9.9c2.4 2.6 5.1 7 4.6 7.5s-4.7-3.3-6.4-6.5-1-4.1 1.8-1zm135.4-1.4c.2.4-1 .7-2.7.7s-3.2-.3-3.4-.7.9-.7 2.6-.7 3.2.3 3.5.7zm-458.2.8a1.5 1.5 0 0 1-1.2.8c-.5 0-.6-.3-.3-.8a1.4 1.4 0 0 1 1.2-.7c.4 0 .6.3.3.7zm134.1-.3c-.2.3-.9.3-1.4.1s-.5-.4.4-.4 1.2.1 1 .3zm52 2.6c-2.6 3.3-3.8 4.3-3.8 3.2s4.7-6.1 5.6-6.2-.5 1.4-1.8 3zm33.1-1.5a1.5 1.5 0 0 1-1.2.8c-.5 0-.6-.3-.3-.8a1.3 1.3 0 0 1 1.2-.8c.4 0 .6.3.3.8zm-235.3 2.2c-.7.7-8.7 1.8-8.7 1.3a8.8 8.8 0 0 1 2.4-1.8c2-1.3 2.8-1.4 4.7-.8s1.9 1 1.6 1.3zm501.3-1.5c0 .4-.5.6-1.1.3s-1.2-.5-1.2-.7.6-.3 1.2-.3 1.1.3 1.1.7zm-290.8 3.3c-.9 1.9-2.2 2.8-2.2 1.5s2.4-4.1 2.8-3.7-.1 1.2-.6 2.2zm-203.2-1c0 .5-.5.8-1.2.8s-.9-.3-.7-.8a1.7 1.7 0 0 1 1.2-.7.7.7 0 0 1 .7.7zm9.5 0c.2.4-.1.9-.8 1.1s-2.8.5-1.8-.7 2-1.4 2.6-.4zm256.2 1.3c0 .6-.4.9-.8.7a2.3 2.3 0 0 1-.8-1.7c0-.6.4-.9.8-.6a2.1 2.1 0 0 1 .8 1.6zm95.9-.9c1.5 1.8.4 2.1-1.1.4s-1.1-1.5-.6-1.5a3.1 3.1 0 0 1 1.7 1.1zm74.2-.4c.6 1-1.7.9-3.8 0s-1.2-.6.9-.7a4.4 4.4 0 0 1 2.9.7zm-264.8 3a1.7 1.7 0 0 1-1.3.8c-.5 0-.5-.4.1-1.1s2-1 1.2.3zm255.1-.6q2.1.9.9 1.2a8 8 0 0 1-3.8-.8c-2.1-.9-2.3-1.2-1-1.2a15.9 15.9 0 0 1 3.9.8zm-205.1 1.1c-.2.7-.6 1-.8.8s-.1-.8.2-1.2 1.2-.9.6.4zm235 .8c1.9.7 2.2 1 1 1-2.7.1-9.4-1.6-9-2.3s4.1-.1 8 1.3zm-298.4-1a7.6 7.6 0 0 1-1.5 1.7c-1.9 1.6-2.1 1-.3-.8s1.8-1.5 1.8-.9zm209.2.8c2.5 1.3 6.1 5.1 4.8 5.1s-1.7-.7-6.1-4.4c-2.2-1.9-1.7-2.2 1.3-.7zm115-.3a.7.7 0 0 1-.7.8.7.7 0 0 1-.8-.8.7.7 0 0 1 .8-.7.7.7 0 0 1 .7.7zm-207.8 1.6c0 .5-.3.6-.7.4a1.6 1.6 0 0 1-.8-1.3c0-.4.3-.5.8-.3a1.7 1.7 0 0 1 .7 1.2zm-52 2c-.6 1.2-1.2 1.9-1.2 1.6s1.8-4.4 2.1-4.1-.2 1.3-.9 2.5zm34.3.8c-.2.7-.4.1-.4-1.3s.2-2.1.4-1.3a5.7 5.7 0 0 1 0 2.6zm168.8.2l6.5 2.3 5 1.5-4.2-.3a67.9 67.9 0 0 1-12.2-3l-8.2-2.8c-.2 0-.1-.2.2-.7s9.7 1.5 12.9 3zm-136.6-1.1c0 1-.3 1.9-.6 1.9s-.7-.9-.8-1.9.2-1.9.6-1.9.8.8.8 1.9zm183.4-1.5c1.3.3 2.3.8 2.3 1.2s-5.4 0-6.4-1 .6-.8 4.1-.2zm-398 2.2c0 .2-.3.5-.8.8s-.8.1-.8-.3a.8.8 0 0 1 .8-.8c.5 0 .8.1.8.3zm108 1.6c-.5.6-1.1.9-1.3.7s.1-.9.6-1.5 1.2-1 1.4-.8-.1.9-.7 1.6zm281.6 0c1.4.6 2.4 1.3 2.1 1.6s-7.9-1.6-10.8-2.9 5.8.1 8.7 1.3zM90 245.2a3 3 0 0 1-2.3 0c-.8-.2-.4-.3.9-.3s1.9.1 1.4.3zm85.4.2a6.2 6.2 0 0 1-2.9 1.5l-2.4.9 1.8-1.6c1.8-1.5 4.4-2.1 3.5-.8zm145.9 3.4c-1.6 3.6-3 5-1.6 1.6.4-1.1 1-2.7 1.5-3.9s1-1.8 1.2-1.6-.3 1.9-1.1 3.9zm13.7.6l-.7 2.6v-2.4a10.5 10.5 0 0 1 .4-3.8c1-2.3 1.2.7.4 3.6zm15.8-.7c0 .8-.3 1.3-.7 1.3s-.8-1.2-.7-2.8.1-2.6.7-1.3a7.7 7.7 0 0 1 .7 2.8zM108 246.3a4.8 4.8 0 0 1-2.3.7c-.7-.1-.6-.3.4-.7s3.4-1 1.9 0zm247.9.9c-.2.6-.4.4-.4-.5s.1-1.2.4-1a1.6 1.6 0 0 1 0 1.5zm90 2.5c0 1.3-.2 1.3-1.8-.6s-2.4-4.1 0-2.3a4.2 4.2 0 0 1 1.8 2.9zm48-2.3c9.4 4.4 14.7 7.3 12.7 6.9-3.9-.9-19.3-8.8-17.1-8.8a30.9 30.9 0 0 1 4.4 1.9zm5.4-.2c.9.3.9.4-.1.5a4.7 4.7 0 0 1-2.6-1.1c-1.5-1.2-1.5-1.2 0-.5l2.7 1.1zm83.3-1a3.1 3.1 0 0 1-2.3.8 2.8 2.8 0 0 1-2.2-.8c-.3-.4.6-.7 2.2-.7s2.6.3 2.3.7zm-283.9 2.9c-1.2 2.9-4.2 6.5-4.2 5.1s4.4-8 5-8-.2 1.3-.8 2.9zm63.5 2.3c-.1 4.1-.1 4.2-.8 1.7s-.3-6.1.5-6.1.3 1.9.3 4.4zm39.6.9c0 3.5-1.2 2-1.7-2.3s-.4-3.2.6-1.9a8.4 8.4 0 0 1 1.1 4.2zm154.2-4.5c.6.9-.4.9-1.9-.1s-1-.7.1-.7a2.5 2.5 0 0 1 1.8.8zM393 251c-.7 2.1-1.4 1.6-1.5-1s.1-2.2 1-1.3a2.5 2.5 0 0 1 .5 2.3zm-174.2-1.7a1.7 1.7 0 0 1-1.2.7c-.5 0-.6-.3-.3-.7a1.3 1.3 0 0 1 1.2-.8c.4 0 .6.3.3.8zm-68.9 1.1c-1.1 1.3-3.1 1.6-3.1.4s.8-.8 1.8-1l1.9-.4c.2-.1-.1.4-.6 1zm89.1-.8c0 .2-.6.7-1.4 1.3s-1.2.9-.2-.3 1.6-1.7 1.6-1zm23.6 1.4c-.9 1-2 .3-1.3-.9a1.2 1.2 0 0 1 1.4-.4c.5.3.5.8-.1 1.3zm202.4.2c1 1.1 1.6 1.9 1.4 1.9a6.9 6.9 0 0 1-2.1-1.9c-1-1.1-1.6-1.9-1.4-1.9a8.5 8.5 0 0 1 2.1 1.9zm-293-.8c0 .8-1.5 1.1-1.9.4s0-.8.7-.8 1.2.2 1.2.4zm211.6 2.9c0 .8-.4 1.2-.8.9s-.7-1.3-.7-2.5.1-1.8.7-.9a5.7 5.7 0 0 1 .8 2.5zm-173.1-.3a2.3 2.3 0 0 1-1.8.9c-1.1 0-1-.2.3-1.2s2.3-1 1.5.3zm25.4-1c0 .5-6.2 4.9-7 4.9s-.3-.5.2-1.1a2.7 2.7 0 0 1 1.9-1.2c.6 0 1.1-.3 1.1-.6s.8-1.1 1.7-1.5 2.1-1 2.1-.5zm112.6 2.8c0 .3-.2.6-.7.6s-.7-1-.7-2.1.1-1.9.7-.6a8.2 8.2 0 0 1 .7 2.1zm126 .1c3.2 2.9 3.6 3.4 2.2 3.5s-7.1-5.2-7.1-6.4 1.5-.1 4.9 2.9zm35-2.6c.3.5 0 .6-.6.3s-1.6-1-.5-1a1.4 1.4 0 0 1 1.1.7zm21 .4c1.2 1.4 0 1.4-1.9 0s-1.2-1.1-.3-1.1a3.3 3.3 0 0 1 2.2 1.1zm16-.4c1 .7 1 .8 0 .8a10.2 10.2 0 0 1-2.7-.8c-1.5-.7-1.5-.7 0-.7a6.4 6.4 0 0 1 2.7.7zm18.6 0c.3.5-.8.8-2.6.8s-3.1-.4-3.1-.8 1.2-.7 2.6-.7 2.9.3 3.1.7zm-495.9 1.2c0 .6-.3 1.1-.8 1.1s-.7-.5-.7-1.1.3-1.2.7-1.2.8.6.8 1.2zm426.3 1.7c.2.2-.5.1-1.6-.2a7.4 7.4 0 0 1-3-1.7c-.9-.9-.5-.8 1.5.2a20.4 20.4 0 0 1 3.1 1.7zm-327.3-1.3a15.1 15.1 0 0 1-3.1.6c-1 .1-1 0 0-.6a5.1 5.1 0 0 1 3.1-.7h1.9l-1.9.7zm201.3 6q.5 2.9-.3 1.2a39.9 39.9 0 0 1-1.1-5c-.4-2.9-.4-3.1.2-1.1a25.1 25.1 0 0 1 1.2 4.9zm57.9-3.1c.8 2.8-.9 1.3-1.9-1.6s-.8-2.4.2-1.3a8.2 8.2 0 0 1 1.7 2.9zm123.6-2.9c1 .6 1 .7 0 .7a4.7 4.7 0 0 1-2.2-.7c-1-.7-1-.8 0-.8a4 4 0 0 1 2.2.8zm-262.5 2.5c-1.3 1.2-2 0-.8-1.5s1.1-.9 1.3-.3a1.8 1.8 0 0 1-.5 1.8zm106.5 3c0 .8-.3 1.2-.8.9s-.7-1.5-.7-2.9.2-2.2.7-.9a12.8 12.8 0 0 1 .8 2.9zm104.3-2c0 .2-.7 0-1.5-.5s-1.6-1-1.6-1.2.7 0 1.6.4 1.5 1 1.5 1.3zm-46.2.6c2.3 1.8 2.3 1.9.4 1.4s-3.7-1.6-3.7-2.6 1-.8 3.3 1.2zm9.3-1c.8 1.3-.1 1.5-1.2.3s-.6-1.2-.1-1.2a1.9 1.9 0 0 1 1.3.9zm-145 1c0 .6-.4 1.2-.8 1.2s-.5-.6-.3-1.2a3.3 3.3 0 0 1 .7-1.1c.2 0 .4.5.4 1.1zm18.3 3.7c-1 1-1.1-.4-.3-3.3l.6-1.9.3 2.2a4.4 4.4 0 0 1-.6 3zm21.8-3.1c-.3.6-.4.4-.5-.5s.1-1.2.4-1a1.8 1.8 0 0 1 .1 1.5zm25.6 1.6c.9 5.4 1.4 11.5.9 11.1s-2.7-9.1-2.7-11.8 1.3-2.8 1.8.7zm89.1-2.1c.3.7.1 1-.3.7a1.4 1.4 0 0 1-.8-1.1c0-1.1.6-.9 1.1.4zm-307.1.3c0 .5-.5.8-1.2.8s-.9-.3-.7-.8a1.7 1.7 0 0 1 1.2-.7.7.7 0 0 1 .7.7zm77.7-.1c0 .4-.6.9-1.3 1.2s-1.1.3-.3-.7 1.6-1.4 1.6-.5zm11.5.7a12.3 12.3 0 0 1-2.5 2.8c-1.3 1.2-1.1.8.5-1.3s3.1-3.6 2-1.5zm144.9 1.8c1.3 3.8 2.2 12.6 1.2 11.6s-3.9-14.9-2.9-14.5 1.2 1.4 1.7 2.9zM208.9 259c-1 .9-5 2.5-5 2.1a6.1 6.1 0 0 1 2.2-1.5c2.3-1.2 4-1.6 2.8-.6zm57.3.8c-1.6 2.1-2.9 3.3-2.9 2.8s2.6-4.1 3.3-4.2.2.6-.4 1.4zm-134.6.5a3.3 3.3 0 0 1-2.5 1.1c-1.6 0-1.6-.1.2-1.1s3.5-1.4 2.3 0zm230.6 4.9c.3 2.1.3 4.3-.1 5-1.3 2.2-2.1-.2-2.1-6.1s1.2-5.5 2.2 1.1zm108.9-2.5a1.1 1.1 0 0 0 1 1.1c.9 0 4.6 3.1 6.5 5.5s.7 1.1-1.4.3-6.8-5.2-8.3-8.5l-1-2.3 1.6 1.4a4.9 4.9 0 0 1 1.6 2.5zm47.7-1.2a5.3 5.3 0 0 1 2.2 1.5c1.3 1.5 1.3 1.5-.9.7a16.2 16.2 0 0 1-4.5-2.6l-2.2-1.9 2.2 1.1a10 10 0 0 0 3.2 1.2zm-419.1-1c0 .6-4.5 2.5-5.8 2.5s4.2-3 5.2-3a.6.6 0 0 1 .6.5zm321.9 1a.7.7 0 0 1-.7.7c-.5 0-.8-.5-.8-1.2s.3-.9.8-.7a1.7 1.7 0 0 1 .7 1.2zm-67.7.7a.8.8 0 0 1-.8.8c-.5 0-.6-.3-.4-.8s.6-.7.8-.7.4.3.4.7zm-288.2 1.9c-.2.6-.8 1.2-1.1 1.2s-1-1.8-.3-2.5 1.9.1 1.4 1.3zm21.8 0a5.3 5.3 0 0 1-4.1 1.9c-2.4 0-2.4 0 1-1.9s5.3-2.3 3.1 0zm108.8-1.6c0 .5-8.1 4.3-9.2 4.2s.9-1 3.1-2.2c3.9-2 6.1-2.7 6.1-2zm303.8 1.8c1 1.2.9 1.2-.3.3s-1.7-1.6-1-1.6.8.6 1.3 1.3zm-408.4.9c-.6 1-2.7 1-2.7.1s.6-.8 1.4-1 2-.1 1.3.9zm129.7-.8c0 .3-1.3 1.3-3 2.2-3.8 2-3.9 1.6-.2-.9s3.2-2.2 3.2-1.3zm28.2.5c-.5.6-1.2 1-1.4.7s.6-1.9 1.6-1.9.3.5-.2 1.2zm120 .5c-.2.6-.4.5-.4-.4s.1-1.3.4-1a1.7 1.7 0 0 1 0 1.4zm-128 2.2c-2.9 2.9-4.2 3.6-4.2 2.2s5.9-5.2 6.8-5.3-1 1.4-2.6 3.1zm56.2-1.1c-.2.6-.6.9-.8.8a1.3 1.3 0 0 1 .2-1.3c.7-1.2 1.2-.9.6.5zm124.6.3c0 .8-.1 1.5-.3 1.5s-.5-.7-.7-1.5-.1-1.5.3-1.5.7.7.7 1.5zm-68.3 1.1a3.2 3.2 0 0 1-.3 2.4c-.4.2-.7-.7-.7-2s.5-3 1-.4zm93.8-.3c.7.8 1 1.5.5 1.5s-1.2-.7-1.6-1.5-.7-1.6-.6-1.6a6.6 6.6 0 0 1 1.7 1.6zm-21.4 9.3c.6 3.2.9 5.9.7 5.9s-3.3-7.6-3.2-11.3.1-4.1.8-2.4a51.8 51.8 0 0 1 1.7 7.8zm-227.4-7.3c-1.2.6-2.4.9-2.6.7s.4-.8 1.4-1.2c2.8-1.1 3.5-.8 1.2.5zm22.2.5c-4.3 3.6-6.4 5.1-7 5.1s-.6-.3 4.2-3.9 6.2-4 2.8-1.2zm214.8 3.2c0 2.2-.2 2.7-.8 1.9a10.6 10.6 0 0 1-.7-4.2c0-2.2.2-2.7.7-1.9s.8 2.5.8 4.2zm-291.5-3.5c0 .7-3.9 3.1-5.1 3.1s.5-.9 1.7-1.9 3.4-2.4 3.4-1.2zm66.2 0a2.8 2.8 0 0 1-1 1.4c-1.1.8-5.9 1.8-5.9 1.2s4.9-3.3 6-3.3a.8.8 0 0 1 .9.7zm119.9 3.3c-.6 2.2-1.4 5.5-1.8 7.4s-.7 3.1-.8 1a55.7 55.7 0 0 1 1.8-11.5 1.3 1.3 0 0 1 1.1-.9c.4 0 .3 1.6-.3 4zm16.3-1.2c-.9 1.3-.9 1.3-.4 0a16.4 16.4 0 0 0 .5-2.3c.1-.7.2-.7.4 0a3 3 0 0 1-.5 2.3zm60.8 3.6a48.5 48.5 0 0 1 .9 5.6c0 2.2-.8.3-1.5-3.3a40.5 40.5 0 0 0-1.5-6.4c-.7-2.2-.6-2.5.2-1.5s1.4 3.1 1.9 5.6zm-212.6-4.2c-.5.8-8.2 4.6-9.2 4.6s8.7-5.2 9.4-5.3.1.3-.2.7zm170.6 1.7c-.2.7-.4.5-.4-.4s.1-1.2.4-1a1.7 1.7 0 0 1 0 1.4zm-85 2.5c-1.6 2.7-2.3 3.3-2.3 2.2s3.1-5.8 3.5-5.3-.3 1.6-1.2 3.1zm101.4 3.7c-.8 1.8-1.7 0-1.6-3.4v-4.1l.9 3.5c.5 1.9.8 3.7.6 4zm-120.1-4.5c-.3.7-.8 1.2-1.2 1.2s-.3-.7.1-1.6 1.8-1.5 1.1.4zm55-.1c-.2.6-.4.4-.4-.5s.1-1.2.3-1a1.5 1.5 0 0 1 .1 1.5zm-143.3.2a2.5 2.5 0 0 1-2.1 1.1c-1.6-.1-1.6-.1.3-1.1s2.3-1.3 1.8 0zm4 0a6 6 0 0 1-2.4 1.1c-.4 0 .1-.5 1.1-1.1 2.5-1.4 3.2-1.4 1.3 0zm350.8-.4c.6 1-1.2 1-2.7 0s-.8-.8.5-.8a3 3 0 0 1 2.2.8zm-406.1 1.4a18.2 18.2 0 0 1-1.3 3.7c-1.2 2.8-1.3 2.8-1.6.8s1-5.1 2.1-5.1.8.2.8.6zm228.9 1c-.3.7-.4.5-.5-.4s.2-1.2.4-1a1.6 1.6 0 0 1 .1 1.4zm160.4-.4c.2.7.1 1.1-.5.9s-1.8-2.1-.8-2.1 1 .5 1.3 1.2zm-55.7.9a12.2 12.2 0 0 1 2.1 3.6l.8 2.3-2.4-2.4c-3.1-2.9-4.2-4.9-2.8-4.9a3.9 3.9 0 0 1 2.3 1.4zm-255.3.6c-.9 1.1-6.2 4.1-7.2 4.1s1.9-2.6 4.6-3.8 3.8-1.7 2.6-.3zm28 .7c-1.1 1.1-1.3 1.1-1.3.1a1.6 1.6 0 0 1 .9-1.4c1.6-.6 1.7-.1.4 1.3zm28.4 0c-.5.6-1.1 1-1.3.8s0-1 .6-1.6 1.1-.9 1.3-.7-.1.9-.6 1.5zm-124 1.8c-2.7 3.4-4.5 5.1-5 4.6s6.4-7.5 7.1-7.5a17.6 17.6 0 0 1-2.1 2.9zm13.2-1.4a1.9 1.9 0 0 1-1.6.7c-1 0-1-.2-.2-1.1s2.6-.8 1.8.4zm25.6-1.2c0 .6-7.8 4.3-8.6 4s.9-1.1 2.9-2.2c3.5-1.9 5.7-2.6 5.7-1.8zm18.7.8c-.9.7-1.7 1-1.9.8s1.4-1.9 2.6-1.9.1.5-.7 1.1zm147.1 1.2c-1 1.9-1.8 1.4-1.1-.8s.8-1.4 1.2-1.1.4 1-.1 1.9zm20.4.5c-.2.8-.4.3-.4-.9s.2-1.9.4-1.4a4.5 4.5 0 0 1 0 2.3zm119 .9c0 1.6-1.2.1-1.9-2.2s-.4-1.9.7-.4a4.7 4.7 0 0 1 1.2 2.6zm17.4-2.3c.2.6-.1.9-.7.7a2.4 2.4 0 0 1-1.3-1.3c-.2-.7.1-.9.7-.7a2.4 2.4 0 0 1 1.3 1.3zm-163 4.1c-.2.9-.3.3-.4-1.4s.2-2.4.3-1.7a10.5 10.5 0 0 1 .1 3.1zm-156.9-1.3a5.8 5.8 0 0 1-2.3 1.1c-.4 0-.1-.5.7-1.1a6.4 6.4 0 0 1 2.3-1.1c.4 0 .1.5-.7 1.1zm187.6.7c0 1.1-.4 1.9-.8 1.9s-1-2.6-.2-3.3 1-.6 1 1.4zm25.7 1.4c.5 1.7.5 2.7.1 2.3s-2-6.3-1.3-5.6a9.9 9.9 0 0 1 1.2 3.3zm113.9-1.6a8.3 8.3 0 0 1 1.2 2.2c0 1.1-2.2-.3-3.4-2.1s-1-1.8-.1-1.8a3.8 3.8 0 0 1 2.3 1.7zm-271.5 2.7l-5.7 6.2c-1.7 2-3.4 3.2-3.7 2.9s2.1-3.3 5.4-6.6 6.1-6 6.3-5.8-.8 1.7-2.3 3.3zm137.9 3.9c.1 5.8-.5 4.6-.9-2.2-.2-3.2-.1-4.9.2-3.8a34 34 0 0 1 .7 6zm5.1-.5c1 6 .9 7.6-.4 6.2s-2-13.9-1.2-13.1 1 3.4 1.6 6.9zm45.1-3.5c1 3.5 1.1 4.8.2 4.8s-.8-1.1-1.1-2.4a19.4 19.4 0 0 0-.9-3.8c-.3-.8-.2-1.4.3-1.4s1.1 1.3 1.5 2.8zm-207.7-1.7a29.2 29.2 0 0 1-3.6 2.8c-2 1.4-3.1 1.9-2.5 1.1s6.1-4.7 6.1-3.9zm154.3 1.4c-.3.6-.4.4-.5-.5s.2-1.2.4-1a1.8 1.8 0 0 1 .1 1.5zm27.4 2.6c.4 2.2.5 4 .2 4s-1.5-4.4-1.5-7.1.6-1.1 1.3 3.1zm-215.2-1.7a2.9 2.9 0 0 1-2.1 1.2c-.7 0-.5-.5.7-1.5s2.9-1.4 1.4.3zm123.3-.6c0 1.8-1.2 3.6-1.8 2.8s.2-4.1 1.1-4.1.7.6.7 1.3zm-83 5.3a54 54 0 0 1-7.3 6.2c-1.8 1-1.8.9-1.1-.5s13.1-11.7 13.6-11.2-2.1 2.6-5.2 5.5zm165.9-3.3c-.1 2.3-.1 2.3-.6.5a3.7 3.7 0 0 1-.3-2.4c.6-1.2 1-.4.9 1.9zm-6.9 4.7c0 2.9-.1 3-.6.8a19.6 19.6 0 0 1-.6-5c0-2.4 0-2.5.6-.7a21.8 21.8 0 0 1 .6 4.9zm35.9-2.3c0 1.8-.2 2.1-.8 1.2a7.8 7.8 0 0 1-.7-3.4c0-1.8.2-2.1.7-1.2a6.8 6.8 0 0 1 .8 3.4zm-25.3-1.4c-.2.2-.6-.2-.9-1s-.3-1.2.4-.4.8 1.1.5 1.4zm97.5-1.1c1 1.1 1.2 3.2.1 2.6s-2.4-3.5-1.7-3.5a3.3 3.3 0 0 1 1.6.9zm-339.4.6c0 .4-.7 1.1-1.5 1.6s-1.5.6-1.5-.3 1-1.8 2.5-2 .5.3.5.7zm68.5-.1c0 .4-1.3 1.6-3 2.7-3.4 2.2-4.1 1.3-1.4-1.6s4.4-2.4 4.4-1.1zm259.5 2.3c-1.1.4-1.7-.3-1-1.4s.7-.6 1.2.1.3 1.2-.2 1.3zm-206.2.7c-1 3.5-1.6 4.8-2.3 4.8s0-3 1.4-5.1 1.7-2.2.9.3zm10.4.8c-.9.8-1.5-.5-.9-1.9s.6-1.3 1 0a2.8 2.8 0 0 1-.1 1.9zm39.5.6c-.2.7-.6 1.1-.8.9a2 2 0 0 1 .1-1.7c.2-.6.6-1.1.8-.9a2 2 0 0 1-.1 1.7zM154.1 293c-1.2 1.7-4.2 2.7-4.2 1.3s4.9-3.8 5.2-3.5-.3 1.1-1 2.2zm180.8-1.6a5.5 5.5 0 0 1-1.2 2.5c-1 1.3-1 1.2-.3-1s1.5-3.2 1.5-1.5zm50 .7c-.3.6-.4.4-.5-.5s.2-1.2.4-1a1.8 1.8 0 0 1 .1 1.5zm74.8 2.6c0 .6-.3 1-.6 1s-2.5-3.4-2.4-4.8 3 2.6 3 3.8zm-279.8-2.8c-.9 1.5-8 6.9-9.1 6.9s-1-1.5 3.7-4.5 6.4-3.9 5.4-2.4zm170.7 3.6c-.2.7-.4.1-.4-1.3s.2-2.1.4-1.3a5.7 5.7 0 0 1 0 2.6zm143 .7c-.6.7-2.7-.8-2.7-1.9s.2-.9 1.5.3 1.4 1.5 1.2 1.6zm-170.9.4c-.6 1.6-.7 1.6-.7.2a2.9 2.9 0 0 1 .5-2.2c.9-.9 1 0 .2 2zm82.5.3c.7 1.7.5 2.7-.2 2.3s-1.7-3.5-.9-3.5.8.5 1.1 1.2zm83.5 1.8c1.8 1.8 3 3.3 2.7 3.6s-6.6-4.9-6.6-6 .5-.7 3.9 2.4zm-256.6-1.5c0 1.2-3.7 5-4.3 4.4s.4-1.5 1.6-2.8 2.7-2.7 2.7-1.6zm108.2 2.4l-.8 1.8v-2a4.1 4.1 0 0 1 .5-2.5c.9-.9 1.1.7.3 2.7zm-56.6-.9c-.5.9-1 1.4-1.1 1.3s.7-2.8 1.3-2.8.3.7-.2 1.5zm116.6 2c0 .6-.3 1.1-.7 1.1s-.8-.7-.8-1.6.4-1.3.8-1.1a2.2 2.2 0 0 1 .7 1.6zm17.5.5c.7 2 .1 3.5-.8 2.1s-.9-3.8-.2-3.8.6.8 1 1.7zm51.3-.2c.5 1.9-.7 2.8-1.3 1.1s-.6-2.6.2-2.6.9.7 1.1 1.5zm59.6.2c-.2.6-.4.5-.4-.5s.1-1.2.4-1a1.9 1.9 0 0 1 0 1.5zm-348.1.2c-.6 1.5-3.3 3.1-3.3 2s2.9-3.1 3.6-3.1-.1.5-.3 1.1zm72.8 1.2c0 .8-.5 1.5-1.1 1.5s-1.3-.2-.7-1.8 1.8-1.6 1.8.3zm196.4.6c0 1-.9 1.6-1.6 1.2s-.2-1.8.9-1.8.7.2.7.6zm32.7 1c0 .4-.3.5-.7.3a1.5 1.5 0 0 1-.8-1.2c0-.5.3-.6.8-.3a1.4 1.4 0 0 1 .7 1.2zm16.5-.8c.8 1.3-.2 1.5-1.2.3s-.6-1.1-.2-1.1a2 2 0 0 1 1.4.8zm10.1 1.4c1 1.3 1.4 2.3 1.1 2.3s-4.1-3.1-4.1-3.9 1.5-.6 3 1.6zm23.7.5c0 .6-.3 1.1-.7 1.1s-1.7-2-1.1-2.6 1.8.3 1.8 1.5zm-192.9.8c-.3.7-.7 1.1-.9.9s-.1-1 .1-1.7.7-1.1.9-.9.1 1-.1 1.7zm181.7 1.1c1.7 1.8 2.7 3.3 2.5 3.6s-6.6-5.1-6.6-6.1 1.3-.5 4.1 2.5zm-262.1 1.7c-.8.7-.9.6-.5-.5a9.4 9.4 0 0 0 .6-2.7c.1-.7.3-.4.5.6a3.1 3.1 0 0 1-.6 2.6zm91.1 1.1c-.2 1.2-.3.4-.3-1.7s.1-3.1.3-2.1a12.1 12.1 0 0 1 0 3.8zm19-1.5c.3 1.4.2 2.4-.3 2.4s-2.6-4.5-2-5.4 1.7.2 2.3 3zm-180.7-.4c-1.3 1.3-2.6 2.2-2.9 1.9s3.6-4.4 4.6-4.4-.3 1.1-1.7 2.5zm20.9 1.8c-2.1 2.9-3.6 4.2-3.6 2.9s5-7 5.5-6.7-.5 1.9-1.9 3.8zm293.7-3.5c.2.4.1.7-.4.7a.8.8 0 0 1-.8-.7c0-.5.2-.8.4-.8s.5.3.8.8zm-329.6.7a1.5 1.5 0 0 1-1.2.8c-.5 0-.6-.3-.4-.8a1.7 1.7 0 0 1 1.3-.7c.4 0 .5.3.3.7zm109.6 2.8c-2.5 4.6-6.5 10.6-6.5 9.9s7.2-13.6 7.4-12.8-.3 1.8-.9 2.9zm-37.7 2.9a17.9 17.9 0 0 1-1.8 3.5c-.2 0 .4-2.2 1.3-4.8s1.8-4.2 1.9-3.4a12.5 12.5 0 0 1-1.4 4.7zm142.7-2.1c1.7 4 2.2 6.3 1.4 6.3s-3.3-7-3.3-8.6.9-.3 1.9 2.3zm62.8-1.7c0 .6-.1 1.2-.3 1.2a2.7 2.7 0 0 1-.7-1.2c-.2-.6-.1-1.1.3-1.1s.7.5.7 1.1zm-233 2.7c-1.5 2.7-2.9 3.9-2.9 2.6s3.9-5.6 4.3-5.6-.5 1.3-1.4 3zm122.1 0c-.2.9-.6 1.4-.8 1.2s.4-2.7.9-2.7.1.7-.1 1.5zm96.5 2.7c0 1.5-1.3 1.4-1.9-.1s-.5-2.8.7-1.8a3.1 3.1 0 0 1 1.2 1.9zm-165.6 2.3c-1 2.4-1.9 4.5-1.9 4.7s-.2.3-.4 0 2.8-8.9 3.9-8.9-.5 1.9-1.6 4.2zm96.8-1.4c-.2.8-.4.4-.4-.9s.2-1.9.4-1.4a4.5 4.5 0 0 1 0 2.3zm86.2 1.7c0 1-.1 1-.7 0a24.5 24.5 0 0 1-1.1-3l-.5-1.9 1.1 1.9a6.9 6.9 0 0 1 1.2 3zm6.1-1.3a.7.7 0 0 1-.7.6c-.4 0-.8-1-.7-2.1s.1-1.9.7-.6a7.1 7.1 0 0 1 .7 2.1zm-191.6-.5c-.9 1.5-1.2 1.1-.5-.8s.7-1.1.9-.9 0 .9-.4 1.7zm15.1.6c-.4.6-1.7 2.7-2.8 4.7a29.7 29.7 0 0 1-3 4.9c-.9.9-1.1.8-1.1-.6s.3-1.7.7-1.7 2-2.3 3.5-5.1 3-4.7 3.2-4.2a2.1 2.1 0 0 1-.5 2zm66.2.1c0 1.2-.4 1.9-1.2 1.9s-1.1-.4-1.1-.8a.7.7 0 0 1 .8-.7c.4 0 .7-.6.7-1.2s.2-1.1.4-1.1.4.8.4 1.9zm32 1.1c1 3.3.3 7.1-.8 4.2a34.8 34.8 0 0 1-1.1-4.4c-.7-3.8.7-3.7 1.9.2zm118.6 0c.2.5-.1.8-.7.6a2.1 2.1 0 0 1-1.3-1.3c-.2-.6.1-.9.6-.7a2.4 2.4 0 0 1 1.4 1.4zm-357.3.8a1.5 1.5 0 0 1-1.2.8c-.5 0-.6-.4-.3-.8a1.5 1.5 0 0 1 1.2-.8c.5 0 .6.3.3.8zm6.5-.2c0 .9-5.3 4.2-6.2 3.8s.6-1.2 2.4-2.3c3.8-2.3 3.8-2.3 3.8-1.5zm41.1.2a1.3 1.3 0 0 1-.8 1.1c-.4.3-.7 0-.7-.7s.3-1.2.7-1.2a.7.7 0 0 1 .8.8zm101.2.4c0 1-2.3 4.7-3.8 6.1s-1.6 1.3.3-2.5c1.1-2.2 2.4-4 2.8-4s.7.1.7.4zm12.3 2.9c-.6.6-.8.5-.8-.4a2.6 2.6 0 0 1 .5-1.7c.3-.3.7-.1.9.3a2.6 2.6 0 0 1-.6 1.8zm25.8-1.8a1.5 1.5 0 0 1-.8 1.2c-.4.2-.7-.1-.7-.8s.3-1.1.7-1.1.8.2.8.7zm-87.8 1.7c-.2.6-.4.4-.4-.5s.1-1.2.4-1a1.9 1.9 0 0 1 0 1.5zm19.7.3c-.2.7-.6 1.1-.8.9a2 2 0 0 1 .1-1.7c.2-.7.6-1.1.8-.9a2 2 0 0 1-.1 1.7zm134.3 1.4c.3 1.6.3 2.5 0 2.2s-1.9-6.2-1.1-5.5a10.1 10.1 0 0 1 1.1 3.3zm55.2 0l.5 2.3-1.2-2.2c-1.4-2.4-1.6-4.2-.4-3a7.6 7.6 0 0 1 1.1 2.9zm61-1.4c-.3.4-4.3-1-4.3-1.5s1-.1 2.3.4 2.2.9 2 1.1zm-149.1.5c-.3.6-.5.4-.5-.5s.1-1.2.4-1a1.8 1.8 0 0 1 .1 1.5zm29 .1a32.4 32.4 0 0 1 1.3 4.8c.3 2.5.3 2.7-.5 1.4s-3-8-2.3-8 1 .8 1.5 1.8zm-101.4 4.6a24.4 24.4 0 0 1-3.1 4.2c-.6 0 1.4-4.1 3.3-6.6s2.8-2.1-.2 2.4zm139.6-2.9c1 2.5 1 2.5-.6 2.1s-1.3-1.1-1.3-2.3.9-2.3 1.9.2zm-217.3 1c-2.5 1.6-3.4 1.5-2-.3a3.6 3.6 0 0 1 2.6-1.2c1.5 0 1.4.2-.6 1.5zm173.2 7.7c2.5 10.1 2.4 9.3 1.4 8.7a15.3 15.3 0 0 1-2.6-4.2c-1.5-2.9-1.9-4.9-1.9-8.8s.2-4.9.4-4.7 1.5 4.3 2.7 9zm-17.6-6.9a3.9 3.9 0 0 1 .3 2.8c-.5 1.2-.5 1.2-1.1-.1s-.9-4.2-.4-4.2.7.6 1.2 1.5zm-134.9 1.7c-.3.6-.4.1-.4-.9s.1-1.5.4-1a3.1 3.1 0 0 1 0 1.9zM132 328.3c-1.2 1.1-1.9 1.5-1.5.9s2.9-3.8 3.3-3.4-.5 1.3-1.8 2.5zm233.9 1.4c1.2 3.8.3 4.9-1.4 1.7s-1.8-4.5-.4-4.5 1.4 1.3 1.8 2.8zm41.8-.2c-.3 1.1-.9 2-1.2 2s-.6-.5-.4-1.2l.7-2.3c.6-2 1.4-.6.9 1.5zm-31.2.7c-.2.5-.4.1-.4-1s.2-1.5.4-.9a3.1 3.1 0 0 1 0 1.9zm77.9 2.9a18.2 18.2 0 0 1 .4 3.5 24.5 24.5 0 0 1-1.8-4.5c-1.3-3.8-1.4-4.5-.4-3.5a13 13 0 0 1 1.8 4.5zm-180.1.5c-1.8 2.8-2.3.9-.6-2.3s1.4-2.2 1.6-1.1a5.5 5.5 0 0 1-1 3.4zm6-1c-.7 1.5-1.6 2.7-1.9 2.7s-.8-.4 1-3.4 2.7-3 .9.7zm3.7.6c-.8.7-.9.7-.5-.4s.7-1.2 1-1 0 .9-.5 1.4zm-83.5-.2a1.4 1.4 0 0 1-1.2.8c-.5 0-.6-.3-.3-.8a1.7 1.7 0 0 1 1.2-.7c.5 0 .6.3.3.7zm171.6 2.1c.8 2.9.4 4.9-.8 3.2s-1-6-.4-6a6 6 0 0 1 1.2 2.8zm32-2.1a.8.8 0 0 1-.8.8c-.4 0-.6-.4-.3-.8s.6-.7.8-.7.3.3.3.7zm-134.2 2.8c-.3.6-.7 1.1-.9.9s-.1-1 .1-1.7.6-1.1.8-.9a2.4 2.4 0 0 1 0 1.7zm56.3 0c-.3.6-.7 1.1-.9.9s-.1-1 .1-1.7.7-1.1.9-.9.1 1-.1 1.7zm17.8-.7a15.9 15.9 0 0 1-.8 2.1c-.6 1.3-.7 1.3-.7-.6s.3-2.1.7-2.1.8.3.8.6zm22 2.5c0 .7-.2.6-.7-.4s-.9-3.3 0-1.9a4.1 4.1 0 0 1 .7 2.3zm-19.3.6c-.8.8-1.2-.4-.7-1.8s.6-1.4.9-.1a2.3 2.3 0 0 1-.2 1.9zm-13.5.2c-.4 1.3-.9 2.2-1.1 2s.6-4.3 1.3-4.3.3 1-.2 2.3zm62.1 1.7c-.6 2.7-1.8 1.3-1.8-2.1 0-1.9.1-2.1 1.1-1.1a3.6 3.6 0 0 1 .7 3.2zM259.9 339c-.3.9-.8 1.4-1.2 1.2s-.3-1 .2-1.9 1.7-1.4 1 .7zm67.8 2.8c-.3 1.5-.8 2.6-1.1 2.6s-1.6-2.4-.4-4.8 2.2-1.6 1.5 2.2zm-62.8-.9c-.6.6-.8.5-.8-.3s1-2.6 1.3-1.5a1.8 1.8 0 0 1-.5 1.8zm188.2-.7c.2.7.1 1.2-.2 1.2s-.9-.5-1.1-1.2-.1-1.1.2-1.1.9.5 1.1 1.1zm-95.7 3.7c-.1 1.4-.2 3.7-.3 5.3s-.5 2.8-1.3 2.8-1.4-.6-.4-3.4.5-2.4 0-3-.5-1.7.1-3.3 2-2 1.9 1.6zm5.1-2.5a8.6 8.6 0 0 1 0 3.2c-.4 1.6-.5 1.6-1 .2s-.9-4.9-.1-4.9.9.7 1.1 1.5zm24.1 3.5c-1.2 1.3-1.9.8-1.2-.9s.8-1 1.3-.7.5.8-.1 1.6zm-67-.5a.7.7 0 0 1-.8.8c-.4 0-.6-.3-.3-.8s.6-.7.8-.7.3.3.3.7zm-80.9 3.2c-.2.7-.4.5-.4-.4s.1-1.3.3-1 .3.9.1 1.4zm142.6.2c0 .2-.3.5-.8.8s-.7.1-.7-.3a.7.7 0 0 1 .7-.8c.5 0 .8.1.8.3zM270.1 350c-1.5 2.8-2.3 3.5-3.4 3.1s-1.1-.7-1.1-1.1 3-3.8 4.3-3.8.9.3.2 1.8zm62.3 1.4c-.1.9-.6 1.8-1 1.9s-.7-.3-.5-1.6 1.9-2.7 1.5-.3zm-82.3 5.4c-1.1 2.5-2.8 4.5-2.8 3.2s3.5-8.1 3.7-7.1a11.2 11.2 0 0 1-.9 3.9zm10.6-1c-.7 1.4-1.5 2.3-1.7 2.1s.2-1.4.9-2.7c1.8-3 2.4-2.5.8.6zm67-.3c-.4 1-.7 1.1-1.6.3s-1-1.2-.3-2 2.6-.1 1.9 1.7zm-52.7-.8a1.6 1.6 0 0 1-1.2 1.1c-.4 0-.4-.4.2-1.1a5.1 5.1 0 0 1 1.1-1.1c.2 0 .1.5-.1 1.1zm59.4.8c-.3.7-.6 1-.8.8a1.1 1.1 0 0 1 .1-1.2c.8-1.2 1.2-.9.7.4zm36.6-.4a.8.8 0 0 1-.4 1.1c-.4.3-.7 0-.7-.7s.4-1.5 1.1-.4zm-126.6 7c-.5.5-.9.6-.9.1s1-1.9 1.5-1.4 0 .8-.6 1.3zm-19.8 3.9c-1 1-1.2-.9-.3-3.1s.6-1.1.8.4a3.8 3.8 0 0 1-.5 2.7zm32 1.3c-1.9 3.6-3.6 5.2-2.7 2.5s4-6.3 4.5-6.3a20.1 20.1 0 0 1-1.8 3.8zm97.8-1.4c-.2.6-.4.5-.4-.5s.1-1.2.3-1a1.6 1.6 0 0 1 .1 1.5zm-117 6.1c-.5 1.8-1.1 2.9-1.3 2.3s1.3-6.6 1.8-6 0 1.8-.5 3.7zm-13.7-1.3c0 .6-.3 1.1-.7 1.1s-.5-.5-.3-1.1a2.7 2.7 0 0 1 .7-1.2c.2 0 .3.6.3 1.2zm31.2 6.1c-.5.6-1.1.9-1.3.7s.6-1.9 1.5-1.9.4.5-.2 1.2zm94.4.6c0 1.3-.1 1.4-.7.6s-.6-1.4-.3-1.7 1-.7 1 1.1zm-97.3 3.7c-.5.6-.9.6-.9.2s1-1.9 1.5-1.5 0 .8-.6 1.3zm97.5-.1c.3.8.1 1.3-.3 1.1a2.3 2.3 0 0 1-.6-1.5c0-1.6.5-1.4.9.4zm-122.8 5c-1 3.6-2.1 5.9-2.7 5.3s.4-2.6 2.4-8.7c.2-.6.6-.9.8-.7s0 2-.5 4.1zm4.8 3.5c-.8.8-.9.7-.5-.4s.7-1.2.9-.9.1.8-.4 1.3zm7.6 3c-.9 2.2-3.7 4.8-4.2 3.9s4-6.6 4.6-6.1a4.4 4.4 0 0 1-.4 2.2zm-16.4 5.7c-.5 1.3-2 1.4-2 0s1.8-3 2.1-2a3.5 3.5 0 0 1-.1 2zm5.1 13.7c-.2.6-.6.9-.8.7s-.1-.7.1-1.2 1.2-.9.7.5z" fill="#ebcf41" opacity=".5"></path><path d="M759.2 438.7c-4.7.4-16.9.5-27 .2s-20.5-.1-23.6.8-5.8.9-6.5.4-6.6-.8-13.2-.6-19.5.3-28.9.2h-19.1l-32.9.7c-16.9.2-36.5.8-43.3 1.2-18.2 1.2-58.6 2.4-67.1 2.1-3.9-.2-9.3-.3-11.8-.2l-36.8.8c-75.5 1.6-106.4 2.4-115.1 2.9-5 .3-16.5.9-25.6 1.2-36.3 1.4-55.3 2.8-59.6 4.4a12.2 12.2 0 0 1-6.3.1c-2-.6-3.8-.7-4.2-.4s-4.4.9-9 1.3a88.2 88.2 0 0 0-13.1 1.8c-2.6.7-10.2 1.6-17 2.1s-12.9 1.1-13.6 1.5-3.3.9-5.8 1.1c-7.5.7-16.4 4.2-21.3 8.4-2.5 2.1-5 3.9-5.5 3.9s-3.3 4.1-10.7 17.1a70.1 70.1 0 0 0-4.1 9.2c-1.3 3.3-2.9 7.1-3.6 8.4s-1.5 6.8-1.8 11.9-.9 14.3-1.4 20.5-.7 12.3-.5 13.8c.3 4.4.2 39.7-.2 58.1-.3 9.6-.1 17.5.2 17.5s.5 4.5.3 10.2-.4 11.9-.4 14.1 0 9.2-.1 15.8c-.1 25.1 0 31.9.8 43 .5 6.3.5 12.2 0 13-1.5 2.4.2 54.7 2.3 71.5.8 6.6 1.5 13 1.6 14.5a10.9 10.9 0 0 0 1.2 4.3 3.1 3.1 0 0 1-.4 3.6c-1.2 1.5-1.2 2.4-.1 3.8s1.7 5.3 1.9 9.5 1 8.9 1.8 10.3 2 6.7 2.8 11.8a59.2 59.2 0 0 0 4.8 15.7c1.8 3.5 3.2 7.4 3.2 8.5 0 6.2 20.2 25.1 26.7 25.1.7 0 2 1 2.8 2a7.5 7.5 0 0 0 4.7 2.3 8.2 8.2 0 0 1 4.7 1.9c1.8 2.2 9.9 4.1 15.4 3.6 2.7-.2 5.1.1 5.5.7s23.4.8 51 .4 53.8-.6 58.2-.5c7.5.2 19.7.2 31.5 0h8.6l28.2-.5c13.8-.3 27.4-.4 30.3-.3 9.4.3 27.5-.2 30.5-.9a15.8 15.8 0 0 1 6.4.4 32 32 0 0 0 9.9.1c3.6-.4 6.6-.3 6.7.3s3.5.5 7.5-.3c6.4-1.2 13.6-1 26 .7 2.4.3 4.6 0 5.1-.8s5.6-1 13.5-.4 16.2.2 20.6-.5 8.4-.9 9.6.1 2.6.9 4.6 0a13.8 13.8 0 0 1 6.8-.5c4.5 1 19.9.7 35.5-.6 5.8-.5 11.7-.7 13.2-.6 4 .4 72.8.5 78.8.1 2.9-.2 12.7-.2 21.7 0s22.3-.2 29.6-.7 23.4-1 36-1 23.5-.2 24.3-.7 3.7-.9 6.5-1 5.4-.7 5.9-1.5 3-1.8 5.5-2.1c5-.7 9.5-2.2 10.6-3.6a29.6 29.6 0 0 1 5.7-3.2 30.8 30.8 0 0 0 7.3-4.6 14.7 14.7 0 0 1 4.3-3c1.1-.4 2.4-2.3 2.9-4.3a15.7 15.7 0 0 1 3.5-6.3c1.4-1.6 2.5-3.5 2.5-4.6a11.8 11.8 0 0 1 1.9-4.6c1-1.6 2.2-6.5 2.7-10.8 1.1-9.8 1.5-12 4-24.3 3.3-15.5 10.3-81.4 10.1-94.3-.1-3.8.4-7.1 1.1-7.5s.7-2.4.1-4.4-.9-10.4-.6-18.7c.4-14.8.5-29.1.4-53.9 0-6.9 0-13.4.1-14.5s-.3-16.4-.8-34.2-1.2-38.7-1.4-46.6c-.5-18.7-1-26-2-27.6s-1.2-4.8-1.7-9.2-1.2-8.3-1.6-8.9-1-5-1.4-9.9-1.4-10.3-2.5-12.3a17.5 17.5 0 0 1-1.8-6.2 16.8 16.8 0 0 0-2-6.3c-1-2.1-3.1-6.6-4.6-10s-3.2-6.3-3.9-6.3-1.2-.4-1-1-6.8-9.6-11.5-12.9c-11.2-7.7-19.6-9.4-50.6-10.4-9.7-.3-19.2-.7-21-.9a91 91 0 0 0-11.9.4zm56.7 10.8c-1.7 1.6-3.4.4-2.2-1.6a1.7 1.7 0 0 1 2.2-.7c.9.5.9 1.4 0 2.3zm-343.3-.4c0 .7-.8 1.3-2 1.3s-1.7-.6-1.3-1.3a2.6 2.6 0 0 1 2.1-1.3 1.2 1.2 0 0 1 1.2 1.3zm75.6 11.8c.5.8.2 1.3-.6 1.3a1.3 1.3 0 0 1-1.4-1.3c0-.8.3-1.3.6-1.3s.9.5 1.4 1.3zm-192.6 9.2c0 1.5-.8 2.6-1.8 2.6s-3.9-4.1-1.9-5.4 3.7-.2 3.7 2.8zm462.8 11.8a1.3 1.3 0 1 1-2.6 0 1.3 1.3 0 0 1 2.6 0zm-265.6 3.3a2 2 0 1 1-1.9-1.9 2 2 0 0 1 1.9 1.9zm93.3 7.9c-.9 1.1-2 1.7-2.3 1.3s1-3.3 2.6-3.3.7.8-.3 2zm9.9 3.3c.5.7-.1 1.3-1.3 1.3s-1.8-.6-1.3-1.3 1-1.3 1.3-1.3.8.5 1.3 1.3zm-235.2 7.5c-1.3 1.3-2.4-.7-1.3-2.4s1.2-1.3 1.6 0a2.4 2.4 0 0 1-.3 2.4zm427.5 0c-.6 3.3-3.6 3.7-3.6.5 0-1.6.8-2.7 2-2.7a1.6 1.6 0 0 1 1.6 2.2zm-158.8 1.7a1.3 1.3 0 1 1-1.3-1.3 1.2 1.2 0 0 1 1.3 1.3zm-435.1 10.7c0 .6-1.2 1.1-2.6 1.1a2.5 2.5 0 0 1-1.9-4.3c1-1 4.5 1.4 4.5 3.2zm138 .5c2.9 1.6 3 1.9 1 2.7s-6.2-1.4-6.2-3.5 1.4-1.4 5.2.8zm-201.1 6c0 .7-.9 1.2-2 1.2s-2.7-1.5-1.2-3 3.2.1 3.2 1.8zm-43.4 1.1c0 .6-.9 1.5-2 1.9s-2.6-.7-1-2.3 3-1.1 3 .4zm425.7 6.4c.9 2.7-3.5 1.7-5-1a12.7 12.7 0 0 1-1.3-3.4c0-1.3 5.7 2.7 6.3 4.4zm238.2 6.9a1.3 1.3 0 0 1-2.6 0 1.3 1.3 0 1 1 2.6 0zm-481.2 1.3c0 .7-.9 1.3-1.9 1.3s-2-.6-2-1.3.9-1.3 2-1.3 1.9.6 1.9 1.3zm360.3 3.9a1.3 1.3 0 0 1-1.4 1.3c-.8 0-1.1-.5-.6-1.3s1-1.3 1.4-1.3.6.5.6 1.3zm-408.9 2a2 2 0 1 1-3.9 0 2 2 0 1 1 3.9 0zm586.3 9.2c0 1-.6 2-1.3 2s-1.3-1-1.3-2 .6-2 1.3-2 1.3.9 1.3 2zm-562.9 4.3c.3 1-.3 1.3-1.6.8s-2.1-1.3-2.1-2.1 3-.6 3.7 1.3zm414.4-1a1.3 1.3 0 1 1-1.3-1.3 1.2 1.2 0 0 1 1.3 1.3zM191 565.7c-.6 3.3-3.6 3.7-3.6.5 0-1.6.8-2.7 2-2.7a1.6 1.6 0 0 1 1.6 2.2zm326.3 18.8c0 .7-.9 1.3-1.9 1.3s-2-.6-2-1.3.9-1.3 2-1.3 1.9.6 1.9 1.3zm335.7 3.3c-.9 2.2-3.3 1.9-4.1-.4s.7-1.6 2.1-1.6 2.5.6 2 2zm-469.8 5.4c-1.2 1.4-2.1 1.6-3.1.5s-.9-1.8.5-2.7 4.4-.1 2.6 2.2zm10.8 24.4c-1.2 1.3-1.9 1.3-3.2 0s-1.3-1.9.3-2.9 5 .8 2.9 2.9zm415.2-.2a1.3 1.3 0 0 1-1.3 1.3 2.8 2.8 0 0 1-2-1.3c-.5-.8.1-1.4 1.2-1.4s2.1.6 2.1 1.4zm-644.8 49.2c2.5 1.8 2.5 1.9.1 2.8s-3.4-.1-5.1-1.9-2.7-2.8-.2-2.8a9.8 9.8 0 0 1 5.2 1.9zm427.2 2c.5.8-.1 1.3-1.2 1.3s-2.1-.5-2.1-1.3a1.2 1.2 0 0 1 1.3-1.3 2.6 2.6 0 0 1 2 1.3zm-409.5 7.3c0 1-1.2 1.9-2.6 1.9s-3.5-1.4-1.9-3 4.5-.9 4.5 1.1zm418 3.2a1.3 1.3 0 1 1-2.6 0 1.3 1.3 0 0 1 2.6 0zm-282.6 2.7a1.3 1.3 0 1 1-1.3-1.3 1.2 1.2 0 0 1 1.3 1.3zm185.4-.8c0 1.4-2.5 2-3.3.8s0-1.3 1.2-1.3 2.1.2 2.1.5zm-111.8 4.7a1.3 1.3 0 1 1-1.3-1.3 1.2 1.2 0 0 1 1.3 1.3zm-17.7 11.8a2.6 2.6 0 0 1-1.7 2.3c-.9.4-1.6-.5-1.6-2.3s.7-2.6 1.6-2.3a2.9 2.9 0 0 1 1.7 2.3zm-12.6 22.2c-2 .7-3-.6-1.8-2.4s1.2-1.2 2 .2.5 1.9-.2 2.2zM196.6 722c0 2.7-3.5 2.2-4.3-.5s-.1-2.4 1.8-1.9 2.5 1.4 2.5 2.4zm1.3 12.4a1.3 1.3 0 0 1-1.3 1.3 2.8 2.8 0 0 1-2-1.3c-.5-.8 0-1.4 1.2-1.4s2.1.6 2.1 1.4zm138.7 11.7c0 2.4-2.6 1.9-3.1-.6s.1-2 1.3-1.6a2.7 2.7 0 0 1 1.8 2.2zm-99.3.7c0 1.1-.6 2-1.3 2s-1.3-.9-1.3-2 .6-1.9 1.3-1.9 1.3.9 1.3 1.9zm571.9 2c0 .8-.9 1.3-2.1 1.3s-1.7-.5-1.2-1.3a2.6 2.6 0 0 1 2-1.3 1.2 1.2 0 0 1 1.3 1.3zm-5.3 1.9a8 8 0 0 1-2 2.1c-1.6 1.2-1.9 1.1-1.9-.6a2 2 0 0 1 1.9-2.1c1.1 0 2 .3 2 .6zm-10.5 15.1a11 11 0 0 0 .8 3.3c.5 1.4 0 2.1-1.8 2.1s-4.6-1.6-3.5-4.5 4.5-3 4.5-.9zm-189.6 14.8c-.8 2.5-3.7 2.9-3.7.6a2.1 2.1 0 0 1 2.2-2.1c1.1 0 1.8.6 1.5 1.5zm-352 11a1.7 1.7 0 0 1-2.3 1.6c-3.3-.6-3.7-3.6-.5-3.6 1.6 0 2.8.8 2.8 2zm113-.7a1.3 1.3 0 0 1-1.4 1.3c-.7 0-1-.6-.5-1.3s1-1.3 1.3-1.3.6.5.6 1.3zm-5.2 11.2a2 2 0 1 1-2-2 2 2 0 0 1 2 2zm338.3 7.8a3.1 3.1 0 0 1-2.7 2c-1.6 0-1.7-.4-.4-2a5.2 5.2 0 0 1 2.7-1.9c.6 0 .8.9.4 1.9zM171.6 816c0 .6-.9 1.2-2 1.2s-2.7-1.5-1.2-3 3.2.1 3.2 1.8zm248.4 9.9c0 2.1-3.3 2.4-4.5.5a2.4 2.4 0 0 1 0-2.6c1-1.8 4.5-.2 4.5 2.1zm-139.3 9.6a2.6 2.6 0 0 1-1.3 2.1c-.8.4-1.3-.1-1.3-1.3s.5-2 1.3-2a1.2 1.2 0 0 1 1.3 1.2zm82.5 4.3c-.8 2.5-3.6 2.9-3.6.5a2.1 2.1 0 0 1 2.1-2.1c1.2 0 1.8.7 1.5 1.6zm-136.4 12.7c0 .8-1.2 2-2.6 2.8s-2.7 1-2.7-.4a4.3 4.3 0 0 1 1-2.8c1.3-1.3 4.3-1 4.3.4zM656 869.8c.5.7.2 1.3-.6 1.3a1.3 1.3 0 0 1-1.3-1.3c0-.8.2-1.4.5-1.4s.9.6 1.4 1.4zm-119.2 12.1c-.9 2.5-3.7 2.9-3.7.5a2.1 2.1 0 0 1 2.1-2.1c1.2 0 1.9.7 1.6 1.6zm41 3.6a1.4 1.4 0 0 1-1.4 1.4c-.8 0-1-.6-.6-1.4s1.1-1.3 1.4-1.3.6.6.6 1.3zM200.5 900a1.3 1.3 0 1 1-1.3-1.3 1.2 1.2 0 0 1 1.3 1.3zm180.1.7c0 1-.5 1.9-1.2 1.9s-2.9-2-1.8-3.1 3-.9 3 1.2z" fill="#dedccd"></path><path d="M698.2 439.5c-.3.3-15.2.8-33 1.2s-33 .9-33.6 1.2-1.1.2-1.4-.5-6.1-.8-12.8-.3-20.6.7-30.9.6l-35.6-.2c-25.9-.2-60.8.8-70.4 2.1a76.1 76.1 0 0 1-14.8.5c-3.4-.3-7.3-.1-8.5.4s-12.7 1.2-25.3 1.6-28.4.9-34.9 1.2-20.1.6-30.2.7-19 .4-19.7.9-4.9.9-9.2.9-14.1.6-21.7 1.1c-15.1 1.2-46.6 1.4-48.4.3s-3.4-.2-6.2.4c-5 1.1-41.1 3.3-48.2 2.9a86.8 86.8 0 0 0-12.6 1.3c-4.8.8-10.7 1.6-12.9 1.8-10.1 1-20 4.7-27.1 10.2-2.6 2-5.3 3.6-6.1 3.6-3.5 0-21.2 20.8-21.2 25a18.8 18.8 0 0 1-2.1 5.5 30 30 0 0 0-2.5 7.5 11.8 11.8 0 0 1-.7 3.4c-1.1 0-1.6 19.5-1.2 45.4a75.1 75.1 0 0 1-.4 10.5 10.5 10.5 0 0 0 .1 4.5c1.1 2.1.9 7.3-.2 7.3s-.8.5-.3 1.3.8 6.8.9 13.8.6 12.6 1.3 12.6 1 .4.6 1.1.8 1.8 2.8 2.7 7.5 1.3 18 .6c8-.6 15.7-.9 17.2-.8 6.4.6 67.8.4 101.2-.3 43.5-.9 85.1-1.2 109.8-.8 9.7.2 23.4-.1 30.2-.6s13.4-.8 14.5-.7c3.2.2 12.6 0 32.8-.7 32-1.1 50.5-1.7 85-2.4 18.2-.4 34-1.1 35.1-1.6a4.4 4.4 0 0 1 3.4.1c1.2.7 18.9 1 30.9.4 3.4-.2 6.5 0 6.7.5s3.4.3 6.8-.2 6.8-.7 7.4-.4 4.1.7 7.9.7c11.4 0 35.2-.2 45.6-.4 5.4-.1 10.6-.1 11.6 0s1.5.3 60.7-.4c29.3-.3 58.3-.9 64.4-1.5s20.5-1 31.9-1.1c18.9-.3 20.9-.5 22.7-2.9s2.3-8.7 2-49.9c-.2-30.2-.4-35.8-1.8-41.4-.4-1.7-1-5.4-1.4-7.8s-1-6.7-1.5-9.1c-1.4-6.1-9.5-22.5-11.1-22.5a1.6 1.6 0 0 1-1.4-1.8c0-2.3-7.5-10.9-8.5-9.9s-2.6-.9-4.8-3-4.6-3.7-5.4-3.7a7.3 7.3 0 0 1-3.5-1.8c-1.9-1.6-12.7-4.5-25.7-6.9l-7.3-1.5c-2.2-.8-106.3-1.4-107-.7zM511 450.7c-2 2-3.4.5-2.3-2.4s1.2-1.9 2.4-.7 1.1 1.9-.1 3.1zm129.9 12.8a1.3 1.3 0 1 1-2.6 0 1.3 1.3 0 1 1 2.6 0zm-157.8 6.6c0 .7-.9 1.3-1.9 1.3s-2-.6-2-1.3.9-1.3 2-1.3 1.9.6 1.9 1.3zm-184 9.2a1.3 1.3 0 0 1-1.4 1.3c-.8 0-1-.5-.6-1.3s1.1-1.3 1.4-1.3.6.5.6 1.3zm54.5 4a1.3 1.3 0 0 1-.6 1.9c-.7.5-1.3-.1-1.3-1.2s.7-2.6 1.9-.7zm-38 22.4c1.4 2.3-.2 2.7-2 .6s-1.1-2-.2-2a3.4 3.4 0 0 1 2.2 1.4zm196.9 4.5c.5 1.2 0 2-1.1 2s-3.6-1.9-2.4-3.1 2.7-1 3.5 1.1zm-80.9 2.9c-.5 2.8-2.8 2.6-3.4-.3a1.6 1.6 0 0 1 1.7-1.9c1.4 0 2 .8 1.7 2.2zm411.8 7a1.3 1.3 0 0 1-1.4 1.3 1.3 1.3 0 0 1 0-2.6 1.3 1.3 0 0 1 1.4 1.3zm-34.2 3.9a1.2 1.2 0 0 1-1.3 1.3 1.3 1.3 0 1 1 0-2.6 1.2 1.2 0 0 1 1.3 1.3zm-25 6.6c0 .8-.2 1.3-.6 1.3s-.9-.5-1.4-1.3-.2-1.3.6-1.3a1.3 1.3 0 0 1 1.4 1.3zm-478.4 16.2c-1.7 1.6-3.4.4-2.2-1.6a1.8 1.8 0 0 1 2.3-.7c.8.5.8 1.3-.1 2.3zm483.7 2.2a1.3 1.3 0 0 1-1.4 1.3 1.3 1.3 0 0 1 0-2.6 1.3 1.3 0 0 1 1.4 1.3zm-410.2 1.3a1.3 1.3 0 1 1-1.3-1.3 1.2 1.2 0 0 1 1.3 1.3zM361.5 562c0 2.4-2.5 2-3-.5s.1-2 1.3-1.7a2.7 2.7 0 0 1 1.7 2.2zm460 15.4c3.6 1.3 2.7 5.8-1.1 5.8s-3.9-.9-2.5-4.5.9-2.4 3.6-1.3zm-473 6.7c-1.3 1.3-2.4-.7-1.3-2.4s1.2-1.3 1.6 0a2.4 2.4 0 0 1-.3 2.4z" fill="#bd9332"></path><path d="M710.3 413.1c-.2.2-10.8.7-23.4 1.2-28.2 1-27.6 1-27.6 2.2s-.8 1-1.8 1c-3.5 0-5.6 4.5-5.4 11.9s.8 7.5 3.7 9.8 4.9 2.8 23.6 2.4c11-.2 20.8-.7 21.7-1.1a6.5 6.5 0 0 1 4 .5c1.3.7 6.8.4 13.4-.6l11.8-1.8c.4 0 .7-4.2.8-9.5.1-8.8-.1-9.7-3.5-12.5s-5.8-3.2-10.2-3.5-6.9-.3-7.1 0z" fill="#f0584c"></path><path d="M775 487.2c-6.8.4-13.8 1.4-15.4 2.3-5.5 3.1-8.6 11.6-8.4 23.3s1.2 26.7 2.3 30.3c2.7 9.2 12.6 15 21.2 12.5 2.4-.7 4.2-.7 4.2 0s28-.1 31.6-2.4 6.6-5.1 6.6-6.7.4-1.5 1-1.5 3.9-12.3 3.3-21a104.8 104.8 0 0 1-.5-10.5c.4-7.6-.1-11.3-1.8-14.7a20.1 20.1 0 0 1-2-5.9 1.8 1.8 0 0 0-1.9-1.8 2.4 2.4 0 0 1-2.3-1.3c-.2-.8-5.8-1.7-12.2-2.1s-12.1-.8-12.5-1-6.4.1-13.2.5zm-18.4 20.4a2.1 2.1 0 0 1-2 2 2.2 2.2 0 0 1-2-2 2.1 2.1 0 0 1 2-2 2 2 0 0 1 2 2z" fill="#adb6b1"></path><path d="M489.1 546.6c-5 .5-10.3 1.5-11.8 2.2s-6.5 1.9-11.2 2.8-9.5 2.4-10.6 3.4a14.5 14.5 0 0 1-6.5 2.7c-5.6 1.1-18 7.1-21.7 10.6s-15 10.9-16.5 10.9-1.9 1.5-2.8 3.3a7.6 7.6 0 0 1-3.9 4c-1.3.4-2.5 1.5-2.5 2.4s-1.7 3.5-3.9 5.9-3.9 5.5-3.9 7a8.1 8.1 0 0 1-1.9 4.9c-3.1 3.6-8.7 15.2-8.7 18a10.4 10.4 0 0 1-1.9 5.3 19 19 0 0 0-2.2 7.7c-.2 3-1.2 5.4-2.6 6.1a3.8 3.8 0 0 0-2.2 3.5 54.1 54.1 0 0 1-.7 7.5c-.5 2.9-1 13.8-1.1 24.3-.3 15.9.2 21.1 2.6 30.9 1.7 6.6 3.4 12.7 3.9 13.8a29.8 29.8 0 0 1 1.1 4c.1 1.1 2.3 7.2 5 13.8s4.7 12.5 4.7 13.4 9.1 18.1 10.7 18.6a1.7 1.7 0 0 1 1.1 1.6c0 2.5 27.9 28.4 32.6 30.4l14.1 5.4 14.5 5.5a27.1 27.1 0 0 0 6.5 1.5 28.1 28.1 0 0 1 6 1.4 14.3 14.3 0 0 0 3.9 1.1l11.8 2a109.5 109.5 0 0 0 14.5 1.8 20 20 0 0 1 5.9.9c.7.4 9 .7 18.4.5 12.6-.2 20-1 28.3-3.1 12.6-3.2 40.7-16.5 40.7-19.2 0-1 1.5-2.7 3.2-3.8 5.1-3.3 14.9-13.5 15.8-16.5.5-1.5 1.6-2.7 2.5-2.7s3-3.1 4.8-6.7 4.1-7 5-7.4a3.2 3.2 0 0 0 1.6-2.6c0-2 5.1-10 6.8-10.7s1.1-2.1 1.1-4.1.5-4 1.1-4.7c2.1-2.2 7-16.9 7.4-22.3a45.8 45.8 0 0 1 1.7-9.2c1.6-5 1.9-17.9.5-20.1s-.3-4.7.7-8.5 1.3-8 .9-9.5a43.4 43.4 0 0 1-1.1-9.3c-.4-8.2-1.7-17.4-2.8-19.2a24.9 24.9 0 0 1-1.4-6.4c-.9-8-9.3-32.9-12.6-37.3a69.8 69.8 0 0 1-6.1-10.4c-1.7-3.4-4.3-6.9-5.9-7.7s-5.5-4.5-8.7-8a58.2 58.2 0 0 0-11-9.4c-11.7-6.5-16.1-8.6-17.7-8.6s-2.9-1.3-4.5-2.7-3.8-2.7-5-2.7-5.9-1.2-10.5-2.7-10.2-2.4-12.4-2.1-6.9-.3-10.6-1.3c-6.8-1.8-34.9-1.9-52.5-.2zm21.1 75.3c2.5 1.8 2.5 1.9.1 2.8s-3.4-.1-5.2-1.9-2.7-2.8-.1-2.8a10.1 10.1 0 0 1 5.2 1.9zm17.6 9.3a1.9 1.9 0 0 1-1.8 1.9c-2.2 0-3.7-1.9-2.5-3.1s4.3-.8 4.3 1.2zM399 669.9c0 .7-.9 1.4-2 1.4s-1.9-.7-1.9-1.4.9-1.3 1.9-1.3 2 .6 2 1.3zm143.3 7.4c0 2.7-3.5 2.2-4.2-.5s-.1-2.4 1.8-1.9a3 3 0 0 1 2.4 2.4zm1.3 13.1c0 1.2-.5 1.7-1.3 1.2a2.4 2.4 0 0 1-1.3-2 1.2 1.2 0 0 1 1.3-1.3c.8 0 1.3.9 1.3 2.1zm15.8 1.2c0 .3-.5.9-1.3 1.3s-1.3.2-1.3-.5a1.3 1.3 0 0 1 1.3-1.4c.8 0 1.3.2 1.3.6zm-109.3 11.1c.3 1-.1 1.5-1.2 1.2a4.3 4.3 0 0 1-2.3-2.3c-.3-1.1.2-1.6 1.2-1.2a4.3 4.3 0 0 1 2.3 2.3zm133-.6c0 1.1-.7 2-1.4 2s-1.3-.9-1.3-2 .6-1.9 1.3-1.9 1.4.9 1.4 1.9zm14.4 44.7a1.9 1.9 0 0 1-1.8 2c-2.3 0-3.8-1.9-2.5-3.1s4.3-.8 4.3 1.1zm-122.4 10.4c.3 1.8-.3 2.3-2.7 1.9a4 4 0 0 1-3.5-2.9c-.4-1.8.2-2.3 2.6-1.9a4.3 4.3 0 0 1 3.6 2.9zM452 767c2.7 2.9 1.7 4.2-3.3 4.2s-4.3-.4-2.3-4.1 2.9-3.2 5.6-.1zm-35.9.2a1.3 1.3 0 0 1-1.4 1.3c-.8 0-1-.5-.6-1.3s1.1-1.3 1.4-1.3.6.5.6 1.3zm100 4.4c-1.6 1.6-3.4.4-2.2-1.6a1.8 1.8 0 0 1 2.3-.7c.9.5.9 1.3-.1 2.3zm-33 1.5a2 2 0 0 1-1.9 2c-2.1 0-2.7-1.6-1.1-3.1s3-1 3 1.1zm-53.9.7c0 .8-.8 1.3-2 1.3s-1.7-.5-1.2-1.3a2.3 2.3 0 0 1 2-1.3 1.2 1.2 0 0 1 1.2 1.3zm143.3 34c0 .8-1.1 2-2.6 2.8s-2.6 1-2.6-.4a4.4 4.4 0 0 1 .9-2.7c1.3-1.4 4.3-1.1 4.3.3z" fill="#13181c"></path><path d="M503 538.1c-1.4 1.4-2.1 1.5-2.8.4s-1.7-1.2-3.4-.4a6.9 6.9 0 0 1-4.3.7 2.3 2.3 0 0 0-2.6.9c-.7 1-2.8 1.1-7.1.3s-6.2-.7-6.2.1-1.5 1-3.2.7a8.8 8.8 0 0 0-5.8 2.1c-1.7 1.6-4.9 2.5-9.4 2.6s-7.2.9-7.7 1.7-3 1.8-5.7 2.3-5.1 1.7-5.4 2.6-3.7 3.1-7.4 4.8-6.7 4.1-6.7 5.4-1.1 2-3 1.9-2.8.6-2.6 1.6-1.6 2.4-3.9 3.4a18.9 18.9 0 0 0-6.1 3.9 5.7 5.7 0 0 1-3.6 2.2c-1 0-1.8.5-1.8 1.2s-1.2 1.6-2.7 2.1-2.3 1.3-1.9 2-.8 1.9-2.5 2.7-2.9 2.1-2.5 3.4.2 2.4-.5 2.8-2.7 3.3-4.4 6.2a39.4 39.4 0 0 1-4.9 6.9 14.6 14.6 0 0 0-2.5 5c-.4 1.7-1.3 3.2-1.9 3.2s-1.2 1.4-1.2 3.3-.7 3.3-2 3.3-2.5 2.1-.5 3.3.5 1.7-.9 3.3-1.7 3.1-1.3 3.8 0 1.4-1 1.4-2.6 2.3-3.4 5.6-2.2 7.7-2.9 10.2a96.2 96.2 0 0 0-4.2 25.2c-.2 4.9-.7 9.2-1.2 9.6s0 2.3 1 4.3 1.5 3.7.2 4.6-1.2 1.4-.1 1.8 1.3 4.5 1 12.4.2 11.7.9 11.7 1.2 2 1.2 4.5c0 5.9 2.6 12.6 4.8 12.6s1.8.6 1.8 1.3a1.3 1.3 0 0 1-1.3 1.4c-.7 0-1.3.9-1.3 1.9a1.9 1.9 0 0 0 2 2c1.3 0 1.9.9 1.6 2.3a4.1 4.1 0 0 0 1.6 3.9c1.6 1.2 1.6 1.6.2 1.6s-.9.8.8 2.3c3.5 3.3 5.9 9.3 4 10.5s-.7 1.2.8 2a4.5 4.5 0 0 1 2.1 3.4c0 1.3 1.5 3.8 3.3 5.8s3.3 4.4 3.3 5.5c0 3.6 1.6 6.1 4 6.1a3.5 3.5 0 0 1 3 2.8c.5 2 1.4 2.6 2.9 2s1.9-.3 1.3 1.8-.2 2.6.5 2.6 10 8 11 10.8a3.8 3.8 0 0 0 3.4 2.3c1.4 0 4.4 1.8 6.6 4s4.9 3.8 6.7 3.3 2.7-.2 2.7 1.2a1.8 1.8 0 0 0 1.8 2 3.3 3.3 0 0 1 2.6 2c.4 1.1 2.2 2 4.1 2s3.3.6 3.3 1.4 1.6 1.2 4 .9 3.9-.3 3.9.2 8.9 4.4 13.1 4.9c1.8.2 7.8 1.2 13.2 2.3s10 1.4 10.2.8 2.1-.6 4.2 0 4 .6 4.5-.4.9-1 1.8.1a5.4 5.4 0 0 0 3.7 1.7c4.9 0 21-1.5 22.7-2s1.5 0 1.5.7 1.1 1 2.6.6 7.4-1.1 13.5-1.4 11.1-1.2 11.3-1.9a1.1 1.1 0 0 1 1.7-.6 2.9 2.9 0 0 0 2.8-.3 11.7 11.7 0 0 1 5.3-.6c2.5.3 3.6-.1 3.3-1.3s.6-1.7 1.9-1.4a2.8 2.8 0 0 0 3.1-1.7c.5-1.3 2.4-2 5.1-2s4.6-.5 4.9-1.1 8.6-6.8 10-6.8 2.2-1.2 3.5-2.6 3-2.7 3.7-2.7 14.8-10.7 17.5-14.7c1.3-1.9 3-3.4 3.8-3.3s1.3-1.1 1.2-2.7.7-2.9 1.8-2.9 3-1.5 4.5-3.3 3.3-3.3 4.4-3.3 4.9-4.4 3.8-5.5.4-1.5 1.7-2.2 3.2-3.7 4.1-6.8 2.2-5 3.1-4.4 1.2.1.7-1.2.1-3.9 1.2-6.1 1.6-4.6 1.1-5.3-.3-1.4.3-1.4 4.3-6.4 4.3-9.9c0-1.8.7-3.4 1.5-3.9s1.1-2.1.7-3.7a7.2 7.2 0 0 1 1.1-5.3c1-1.3 1.6-3 1.3-3.6s.3-3.4 1.5-6.4 1.8-5.8 1.4-6.2-.4-1.4.2-2.2c2-2.7 2.7-7.8 1.4-10.3a3.7 3.7 0 0 1 .2-4.4c1-1.3 1.1-1.9.1-1.9s-1.1-2.2-.6-6.6.3-7.2-.9-8.7-1.4-2.3-.4-3c2.5-1.5.3-22.5-2.3-22.5-.7 0-1.2-1-1.2-2.2 0-4.6-4.6-17.5-6.2-17.5s-1.7-1.5-1.7-3.2a5.9 5.9 0 0 0-2.3-4.5c-1.3-.8-2-1.4-1.5-1.4 2-.1-1.9-11.3-4.9-14.1s-2.9-3.6-2.5-4.4-.4-1.3-1.7-1.3-2.4-.7-2-3-.8-4-5-7.5a99.3 99.3 0 0 1-15.6-15.5c-1.9-2.5-4.1-4-5.3-3.6s-4.1-1.6-7.1-4.6-6-5-7.5-4.5a2.4 2.4 0 0 1-3-1.4c-.4-1.2-1.3-1.8-2.1-1.3s-1.3.2-1.3-.6-1-1.4-2.4-1.4a12.4 12.4 0 0 1-5.3-2.1c-1.6-1.1-6.6-2.9-11-4a50.5 50.5 0 0 1-9.5-2.9c-.7-.6-2.8-.9-4.5-.6s-4.4-.8-6.9-3.1-3.8-3.1-3.8-1.3-2 2.9-3.2.9-3.2-1.2-6-.9-5.2 0-5.2-.4-18.6-.4-19.5.5-1.6.2-2.8-.5-2.6-.5-3.9.9zm.9 16.7c3 .3 5.9.1 6.3-.6s1.6-.8 3.1 0 5.1 1.2 8.7 1.1 6.5.4 6.8 1.1 2.9 1.1 6.1.9a33.3 33.3 0 0 1 11.2 1.5c3 1 6.3 1.6 7.4 1.2a4.2 4.2 0 0 1 3.6.6c.9.7 4.5 1.9 8.2 2.7 8.2 1.7 21.7 7.5 21.7 9.4s.9 1.3 2 1.3c2.9 0 12.4 6.8 12.4 8.9s.9 1.6 2.2 1.1 1.8-.2 1.5.8 1.6 3.2 4.3 5.3 5.3 5 5.7 6.9 1.2 3.2 1.7 3.1c2-.4 5.7 1.8 5.7 3.3s1.2 4 2.6 6.7 2.7 5.9 2.7 6.9 1.1 1.7 2.6 1.7 3.2 1.7 2.7 6.9c-.1 1.2.4 2.3 1.2 2.3s1.3.8 1.3 1.9a6.6 6.6 0 0 0 2.1 3.9c1.2 1.2 1.5 2.1.8 2.1s-.4 1.7.6 3.8c2.3 4.6 4.2 14.7 3.7 19.4-.3 2 .2 4.4 1.1 5.4s1 2.1-.1 2.8-1.2 2.3-.1 6a24 24 0 0 1 .6 9.1c-.7 3.7-.9 7.4-.7 18.4 0 2.1-.6 4.2-1.4 4.7a3.1 3.1 0 0 0-.6 3.2c.5 1.3-.1 3.3-1.4 4.7s-1.8 3.2-1.3 4 .3 2.2-.6 3.3a2.9 2.9 0 0 0-.7 3.2c.5.8.2 2.3-.7 3.4a10.4 10.4 0 0 0-2 4.8c-.4 3.7-3.3 10.2-8.5 18.8a105.4 105.4 0 0 0-5.2 9.6c-1.4 3.3-9.3 11.6-10.7 11.1s-1.6 1.3-2.5 3-2.2 3.2-2.8 3.2-1.1 1-1.1 2a1.9 1.9 0 0 1-2 2 3 3 0 0 0-2.8 2 2.9 2.9 0 0 1-2.2 1.9c-.9 0-3.9 2.1-6.8 4.6s-7.1 5.3-9.4 6-4.5 2.3-4.9 3.4a2.1 2.1 0 0 1-2.8 1.3c-1.1-.3-2-.1-2 .6s-1 1.7-2.3 2.2a13.1 13.1 0 0 0-4 2.6c-1.4 1.3-2.3 1.4-3.5.4s-2.2-1-3.6.5a16.4 16.4 0 0 1-7.1 2.8c-2.7.5-5.9 1.8-6.8 3s-1.6 1.5-1.6.8-16-2.3-27.2-2c-6.7.2-7.8.2-12.2-.4-2.5-.3-5.4.1-6.3.8s-2.2 1-3.1 0-4.8-1.1-9.8-.7-8.4.2-8.4-.9-.9-1.2-2.2-.7a3 3 0 0 1-3.2-.7c-.5-1-4.2-1.7-8.6-1.7-6.1-.2-8.4-.8-11-3.1a20.7 20.7 0 0 0-5.9-3.9 9.6 9.6 0 0 1-4.4-3.4 4.7 4.7 0 0 0-5.1-1.9c-2.5.5-3.8-.2-5.3-2.9a14.1 14.1 0 0 0-5.8-5.3c-2.1-.9-3.8-2.4-3.8-3.3s-1.5-2.8-3.5-4.1c-4.7-3.1-8.2-7.2-8.2-9.9-.1-1.1-1.7-2.9-3.7-3.9l-4-2a25.7 25.7 0 0 1-1.1-5.3c-.3-2.8-1.8-6.4-3.3-7.9a13.1 13.1 0 0 1-2.7-6.9c-.1-2.6-.8-4.1-2-4.1s-1.7-.7-1.1-2.2-.3-3.3-2.1-5.3-3.1-5-3.3-8.7-.4-6.4-.5-7.6-1.7-2.7-3.6-3.5c-3.6-1.3-3.6-1.3-.5-1.5s2.9-.4 1.5-2.1-1.6-4.9-1.4-9.5.5-10.3.6-13.8.7-6.3 1.4-6.3.6-.6-.3-1.5-2.1-11.6-.1-11.6 1-.5 0-1.7-.9-3.4.1-7.5 1-6 .1-6.2 4.2-12.7 7.5-16.8a8.3 8.3 0 0 0 1.6-5.5c-.2-1.7.2-3.1.9-3.1s1-.7.7-1.7.8-3.3 2.7-5.3 3-4.1 2.7-4.7.2-1.5 1.3-1.9 1.8-1.2 1.7-1.7c-.4-2.4 5-12.1 7.1-12.7a2.9 2.9 0 0 0 2.3-2.6c0-1.1 1.8-2.6 4-3.3s3.9-2 3.9-2.8.9-1.4 2.1-1.4a2.9 2.9 0 0 0 2.7-2c.4-1 1.3-1.9 1.9-1.9s5.9-3.6 9.6-7.7c1.5-1.5 3.7-2.8 5-2.8s2.9-1.3 3.7-2.7 2.5-2.6 3.7-2.4 10.8-2.9 10.8-4.4 1.1-1.1 2.5-1.1a21.8 21.8 0 0 0 6.3-1.5 18.2 18.2 0 0 1 7.2-1.2c2 .1 7.2-1.5 11.7-3.7s8.8-3.6 10.3-2.8 4.7 1.5 7.7 1.9zM370.7 721.2a2.3 2.3 0 0 1-2 1.3 1.2 1.2 0 0 1-1.2-1.3c0-.8.8-1.3 2-1.3s1.7.5 1.2 1.3zm211 85.5a1.3 1.3 0 0 1-2.6 0 1.3 1.3 0 1 1 2.6 0zm-135.4 2.6c0 .7-1.1 1.3-2.6 1.3s-2.6-.6-2.6-1.3 1.2-1.3 2.6-1.3 2.6.6 2.6 1.3zm124.9 9.3c0 .7-.9 1.2-1.9 1.2s-2.7-1.5-1.2-3 3.1.1 3.1 1.8z" fill="#adb6b1"></path><path d="M510.6 604.8c-.3.3-4.5.8-9.1 1.1s-10.9 1.6-13.8 2.9-5.6 2.3-6.1 2.2-3.7 1.2-7.1 3.1-7 3.3-7.9 3.3-3 1.7-4.7 3.9-3.7 3.9-4.7 3.9-2.8 2.2-4.2 5a60.7 60.7 0 0 1-5.6 8.6c-3.8 4.3-12.1 28.3-10.9 31.4a2.8 2.8 0 0 1-.5 3c-1.3.8-1.1 7.1.6 22.4.4 3.8 1.6 7.1 2.9 8.1s2.1 1.7-.3 3.4-2.3 2.1-.3 5a11.9 11.9 0 0 1 2.2 5.4c0 1.3.5 2.4 1.2 2.4s2.2 3 3.5 6.6 5.2 9.6 13.2 17.8c5.8 6 11.3 11.1 11.9 11.1s3.2 1.8 5.6 3.9 6.5 4.4 9.1 4.8c6.9 1.3 23.7 5.6 25.2 6.5s5.1.7 9.9.8c7.1 0 9.4-.5 11.5-2.6s3.1-2.3 5-1.1 3.4 1 7.1-.8 6.5-3.1 8.9-4.1l7.9-3.6c4.5-2.1 16.7-13.1 16.7-15.1s1.2-2.5 2.6-3.8 2.7-2.9 2.7-3.5 2-4 4.4-7.4a43 43 0 0 0 5.8-10.8c.7-2.5 2.6-7.8 4.1-11.6s2.7-8.9 2.7-11.2a35.6 35.6 0 0 1 1.9-9.4 31.9 31.9 0 0 0 1.3-11.2c-.7-6.3-4.2-15.8-5.9-15.8s-.8-.8-.4-1.8-6.1-15.9-11.6-22.4c-9.1-10.6-16.7-17.8-18.9-17.8s-3.3-1.2-4.5-2.7c-3.9-4.5-15.8-7.4-34.8-8.6-6.6-.4-12.8-1-13.9-1.3a4 4 0 0 0-2.7 0zm-.5 33c3.4 2.6 1 4.3-4.6 3.5-3.9-.6-5.3-3.4-2.2-4.7s4-.9 6.8 1.2zm30.9 4.1c0 2.6-3.1 1.5-3.7-1.3s.2-2 1.7-1.4a3.1 3.1 0 0 1 2 2.7zM458.2 710c0 .3-.6.9-1.3 1.4s-1.4.1-1.4-.6a1.4 1.4 0 0 1 1.4-1.4c.7 0 1.3.2 1.3.6z" fill="#424d4c"></path><path d="M507.5 668.2c-7.7 5.1-11 9.1-11.9 14s-.1 16.8 1 18.8a35.2 35.2 0 0 1 1.5 4.6 8.3 8.3 0 0 0 4.1 4.9c1.8.8 3.3 2 3.3 2.7s2.6 2.4 5.8 3.9c5.2 2.4 6.4 2.5 12.7 1.1 10.4-2.4 16.8-9.5 19.7-21.7 1.2-5.3 1.7-10.1 1-11s-1.1-4.2-1.1-7.2c0-5.1-.4-5.8-6.1-9.5s-7.2-4.1-15.4-4.1-10.2.5-14.6 3.5z"></path><path d="M252.3 503c-5.2 5.6-6.9 19-4 30.6 1.4 5.6 1.3 6.1-2.3 10s-12.9 8.9-18.3 8.9-13.7-3.8-16.2-6.8-1.3-2.9.9-7.2c3.9-7.8 7-20.9 6-26.1s-5.8-10.2-10.6-9.6c-9.5 1.1-13.2 20.5-7.6 40 .6 2-.5 4.1-3.7 7.6s-5.5 4.8-9.8 4.8c-2.8 0-6.3-.9-7.6-1.9-3.7-2.8-7.3-2.7-7.3.3s4.8 7.2 12.2 7.8 13.9-1.7 18.2-7.6l2.9-3.8 6.7 3.8c13.1 7.4 21.3 6.9 34.4-2.1 8.7-5.9 8.7-5.9 11.5-3.4 11.6 10.6 29.6 9.6 40.9-2.2l3.8-4 4.7 3.8c12.2 9.6 26.8 7.9 40.8-4.7 5.7-5.2 6.8-5.4 9.9-1.8s15.6 7.9 24.1 7.9 19.8-3.3 20.9-6.2-1.8-4.8-12.2-2.4c-12.1 2.9-21.2 1.5-28-4.3l-4.2-3.6 4.1-8c5.2-10.1 5.7-17 1.4-20.4s-8.2-3-11.8.3c-5.4 5.1-7 14.6-4 23.4 1.4 4 1.2 4.5-2.9 8.7s-16 11.1-20.7 11.1-13.4-4-15.8-6.9-1.3-2.8.9-6.5c7.4-12.1 8.4-25.4 2.2-29.5s-9.5-1.5-12.7 5.7c-2.4 5.3-2.7 7.9-1.9 17.7l.8 11.5-5.5 4.8c-9.7 8.3-20.8 8.7-29.8 1.2l-4-3.3 4.9-9.5c4.1-8 4.8-10.7 4.8-17.8s-.4-8.7-3.1-10.9-9.6-3.1-13 .6zm9.5 5.6c1.5 4 .7 8.8-2.8 16.6s-5.7 8.1-5.7-2.6 5.8-20.9 8.5-14zm98.2-.5c.4 4.3-3.5 14.2-5.6 14.2s-1.3-9.7.9-12.9 4.4-3.9 4.7-1.3zm-51.3 9.8a26.5 26.5 0 0 1-3.5 7.7c-1.9 2.4-2 2-1.6-5.5.3-4.4 1.3-9.1 2.3-10.3s1.9-2 3 .3.7 4.6-.2 7.8zm-97.4-5.3c1.4 3.7-.1 12.2-3.5 19.9l-2.2 4.9-1-5.3c-1-4.9.3-18.9 2-21.6s3.4-1.4 4.7 2.1z" fill="#fffcfe"></path><path d="M756.6 485.5c-7.1 3.6-9.2 9.2-9.2 24.7 0 18.4 2.2 35.4 5.3 41.6a20.3 20.3 0 0 0 6.7 7.2c8.9 4.5 42.2 3.5 55.3-1.7 6.6-2.6 8.8-7 10.6-21.6s-.3-37.6-3.6-42.7c-4.6-6.9-17-9.6-44.1-9.7-13 0-17.4.4-21 2.2zm54.8 7.9c6.5 3.2 7.3 6.2 7.4 28.6s-1.2 27.4-7.1 29.4c-10.9 3.8-41.2 5.1-49.2 2-5.2-2-8.6-19.3-8.4-41.9s.3-22.1 30.4-21.2c17.8.5 22.8 1 26.9 3.1z" fill="#faf7ee"></path><path d="M491.7 530.6c-10.3 1.1-37.1 8.2-51.1 13.6-20.2 7.6-43.1 25.8-55.2 43.6-6.6 9.7-16.9 32.6-20.5 45.5s-5.6 37.3-5 68.1 1.1 32.9 12.3 56.4c12 25.5 24.1 39.2 48.5 55.4 14.7 9.7 35.2 18.5 50.6 21.6s44.3 4 58.1 2.2 39.2-8.9 50.4-13.8c15.7-6.9 39-27.2 52.7-45.7 7.7-10.5 20.2-35.1 23.9-47.2 4.9-15.9 7.4-35.9 7.5-59 0-20.7-.2-22.2-3.8-32.3-8.7-24.1-24.2-50.4-36.9-62.9-8.9-8.6-28.7-24.5-37.2-29.7-11.4-7-28.4-13.1-42.1-15.2s-36.7-2.3-52.2-.6zm57.8 8.6c17.4 3.6 31.9 10.9 48.7 24.3 24.2 19.3 32.6 29.4 44.7 53.7 13.3 26.8 14.4 31.3 14.3 55.4s-2.8 43.2-7.7 57.4c-8.1 23.9-25.9 51.4-42.9 66.3-20.8 18.1-30.5 23-61 30.8-13.5 3.5-16 3.7-38.8 3.6-26.2-.2-36-1.6-51.8-7.6-43.5-16.4-69.9-43.5-85-87.4-5.4-15.7-4.9-77.3.8-99.3 3-11.3 11.7-31.2 18.5-42.2s21.9-25.9 34.4-33.9q23.6-15 58.1-20.6c18.2-3 54.8-3.3 67.7-.5z"></path><path d="M716.1 627c-4.1 4.3-5.2 13.5-2.4 19 1.5 2.9 3.7 4.6 7.5 5.7 7 2.1 11.4 0 14.9-7.3 2.1-4.2 2.2-5.7 1-9.8-2-6.5-5.6-9.5-12.3-10.3-4.9-.5-6.1-.2-8.7 2.7z"></path><path d="M775.7 629.4c-4.1 6-1.9 11.6 4.6 11.6a8.1 8.1 0 0 0 7.8-8.3c0-6.1-8.7-8.5-12.4-3.3z"></path><path d="M759.6 780.1c-3.1 1.9-5.6 10.7-5.6 19.2 0 10 4.8 26.6 14 48.1s12.6 23 16.2 9.5c.8-3.4 6.5-16.1 12.5-28 13.9-27.6 15.7-32.9 13.7-38.8-1.2-3.6-2.2-4.5-5-4.5s-8.1 2.5-16.7 10.9l-6.9 6.6-1.3-4.9c-1.8-6.4-7.7-16.1-10.8-17.8s-7.9-1.7-10.1-.3z" fill="#e95c33"></path><path d="M187.4 819.2c-3.4 4 0 4.6 30.7 4.6s34.4-.6 32.8-4.8c-1.1-2.7-61.2-2.6-63.5.2z"></path><path d="M193.2 847.5c-.5.7-.1 2.2.7 3.3s5.5 1.9 20.3 1.9c18.6 0 22.4-.9 20.9-4.8-.5-1.4-5-1.8-20.9-1.8-12.6 0-20.5.5-21 1.4z"></path><path d="M776.7 504.5c-3.8 1.8-4.5 4.1-4.5 15.2-.1 15.8 2.6 18.8 16.6 18.8 7.5 0 9.1-.5 12.7-3.8s4.2-4.2 4.8-15.2c.8-15.5-.1-16.5-15.4-16.4-6.2 0-12.6.6-14.2 1.4z" fill="#dddece"></path><path d="M482.9 640.7c-5.7 3.5-7.9 10.8-4.9 16.2s12.9 8 18.4 5.1 8.2-13.9 4.8-18.5-12.3-6.6-18.3-2.8z"></path><path d="M548.9 654.7c0 1 1.2 3.1 2.5 4.3 7 6.7 11.4 21.3 10.2 34.1-.9 9.2-3.9 16-10.1 22.6-4.4 4.7-4.6 7.2-.8 7.9s12-9.4 15.3-19.5c2.4-7.3 2.8-11.2 2.3-18.8-.8-11.3-5-22.9-10.2-28.5s-9.2-5.4-9.2-2.1z" fill="#d8d8c9"></path><path d="M526.8 674.1c-3.3 3.3-1.3 10.3 2.9 10.3 5.9 0 8.5-7.8 3.5-10.4-3.3-1.8-4.5-1.8-6.4.1z" fill="#fffcfe"></path><path d="M469.2 675.2c-8.4 3.4-9.6 17.4-2 23.2 1.2.9 4.2 1.7 6.9 1.7 6.9 0 11-4.8 11-13.1 0-10.4-6.8-15.5-15.9-11.8z"></path><path d="M499.4 723.3c-.9 3.8.8 6.2 4.1 5.6 5.8-1.1 5.8-9 0-9-2.4 0-3.5.9-4.1 3.4z" fill="#d8d8c9"></path><path d="M527.1 726.1c-2.8 1.8-3.4 6.5-1.1 8.8s3.6 2.6 7.2-.4c5.8-4.6 0-12.4-6.1-8.4z" fill="#d8d8c9"></path><g><path d="M309.9 147.3c-.6 1.3-1.4 16.3-1.9 33.4l-.8 31-12.8 3.8c-13.8 4-16.8 5.8-15 8.9s1.2 2 25.9-4.9c1.7-.5 2.4.9 3.1 6.5 2.9 21.5 16 33.3 28.6 25.6 7.4-4.5 17.6-18.7 16.2-22.5s-4.6-1.9-8.9 4.9-11.7 13.5-15.8 13.5c-5.9 0-13.9-15-13.9-26.2 0-4.1.2-4.2 13.5-8s17.3-6.2 15.5-9-4.3-1.7-15.9 2c-5.8 1.9-11.1 3.4-11.9 3.4s-1.3-9.6-1-32c.5-28.8.3-32.1-1.7-32.5a3.2 3.2 0 0 0-3.2 2.1z"></path><path d="M505.5 145.8c-9 2.4-16.7 17.2-17.9 34.5-.9 13.4 1.3 21.5 7.5 27.7 4.4 4.4 4.7 5.2 4.8 13.9.2 10.3 2.1 13.7 9.6 16.2 3.6 1.1 5.6 1 10-.8 6.2-2.5 14.4-11.6 13.1-14.8s-3.9-2.3-9.3 3.4-6.8 6.1-11.7 5.4c-3.3-.4-5.4-4.2-5.4-9.4s1.9-8.1 6.2-8.1c6.8 0 13.1-5.5 10.7-9.5-1.2-1.8-10.6-1.7-14.8.2-7.7 3.5-14.3-5.2-14.3-18.8 0-15.9 6.7-31.6 14.3-33.5 4.7-1.2 14.6 2.9 16.8 6.9 1.1 2.1 1.4 5.4.8 9.5s-.4 6.3 1.2 7c3.7 1.4 6-2.2 6-9.3s-3.1-14-9.1-17.6c-4.3-2.5-14.1-4-18.5-2.9z"></path><path d="M394.8 150.8c-.4 1 1.1 4.7 3.3 8.2 12.3 19.4 6.7 59.3-9.4 67.6-6.5 3.4-10.5 2.5-16.7-3.8-8.8-8.6-11.8-19.6-12-42.8-.1-9.9-.7-18.9-1.2-19.8-4.6-7.1-7.8 14-5.1 34 1.6 12.1 6.4 26 10.7 31.3 14.2 17 33.6 10.6 43.5-14.3 2.6-6.4 3-10.1 3-23.7s-.4-17.4-2.9-23.8c-4.5-11.2-11.3-17.9-13.2-12.9z"></path><path d="M452.9 150.9c-8.5 3.7-18.3 16.9-23.8 31.8l-3.2 8.8-.7-19.6c-.6-18.4-.8-19.5-3.3-19.5s-2.8 1.1-3.1 23.6c-.2 12.9.1 33 .7 44.5 1 19.7 1.2 20.9 3.7 20.9s2.8-.9 3-6.7c.2-3.8.7-9.3 1.1-12.5l.8-5.7 3.3 2.2c2.8 1.8 4.5 2 9.7.7a68 68 0 0 0 8.5-2.3c1.7-.6 3.1 1.1 6 6.9 4.5 9.3 15.2 20.8 19.3 20.8s12.2-9.9 10.5-14.3-4.6-1.9-7.5 3.1l-2.9 4.8-3.9-3.7c-2.2-2.1-6-7.8-8.6-12.8l-4.8-9 6.1-8c7.3-10 10-17.6 10-28.9s-2.1-18.5-6.8-23.2-7.9-4.7-14.1-1.9zm11.8 10.3c1.6 3.1 2.3 7.8 2.3 14.2 0 8-.6 11-4 17.9-5.6 11.1-7.3 12.4-10.1 7.1s-7.8-8.8-14.3-7.9-5.5.7-4.7-2.9c1.5-6.2 8.2-19.5 12.3-24.3s11.3-9.8 14.1-9.2c1.1.2 3.1 2.5 4.4 5.1zm-21.4 38.6c2.6.9 6.7 8.1 5.7 9.8s-3.5 1.8-6.8 2.8-6.6 1.4-8.1.2c-3.5-3-3.5-6.9 0-10.4s5.4-3.9 9.2-2.4z"></path><path d="M262.7 155.1c-3.3 1.1-7.9 4.6-11.8 9-6 6.6-6.4 6.8-6.4 3.5s-2.6-6.2-5.1-2.9-1.7 24 2.4 59.8c2.9 25.1 4.6 31 8.2 27.4 1.2-1.2.9-7.8-1.3-26.9-3.7-32.4-3.7-38.4.1-45.9 9.2-18.5 23.2-24.2 33.1-13.5 3.7 3.9 5.5 13.1 2.6 13.1-1.1 0-6.2 1.3-11.1 2.8-16.4 5-22.5 16.2-15.5 27.8s23.4 4.7 31.9-13.6c1.8-3.8 3.2-7.7 3.2-8.7s1.2-1.6 3.9-1 4 .4 4.6-1.1-3.5-6.2-6.6-6.2c-.8 0-2-2.8-2.5-6.2-1.2-7.7-8.3-16.1-15.3-18.1s-7.8-1.6-14.4.7zm22.9 33.3c-1.4 4.6-6.9 13.7-10 16.5a12.9 12.9 0 0 1-7 2.6c-3.7.2-4.6-.5-5.8-3.6-2.7-7.6 3.4-14.3 15.9-17.2 7.2-1.8 7.9-1.6 6.9 1.7z"></path><path d="M140 162.3c-13.8 6.3-21 23.9-21 51.9 0 13.9 3.1 23.3 10.1 31.5 8.4 9.9 23.6 14.2 32.8 9.4s18.8-18.7 17.2-23.8-4.7-3-7.3 3.6c-1 2.4-4.5 6.8-7.7 9.8-4.9 4.5-6.9 5.5-11.5 5.5-11.3 0-21.8-9.2-25.5-22.3-2.3-8.1-1-32.6 2.1-41.8 6.4-18.6 21.7-24.9 34.5-14.2 4.5 3.8 4.6 3.9 4.3 14.1s-.1 10.3 2.7 10 3.2-1.8 4.2-7.6c1.5-9.3-.6-16.3-6.6-21.6a26.2 26.2 0 0 0-28.3-4.5z"></path><path d="M205.2 167.9c-11.3 6-21.9 23.3-21.2 34.7.4 5.4.9 6.4 3.2 6.4s2.8-1.2 3.5-6.7c.9-8.1 1.8-10.4 6.9-17.9s13.3-13.1 16.9-11.9 7.4 10.6 8.1 31.4l.7 19.3-6.5-2.8c-5.6-2.5-7.1-2.7-11.7-1.3-7.7 2.3-12.4 10-12.5 20.6 0 7.4.3 8.4 4.4 12 5.7 5.1 13.9 5.4 20.8.7 4.2-2.8 4.8-2.9 6-1.1a3 3 0 0 0 3.7 1.2c2.3-.9 2.4-3.3 1.8-35.1-.7-36.7-1.4-41.5-7.9-48.4-4.3-4.6-9-4.9-16.2-1.1zm7.9 58c4.2 1.5 8.5 7.4 8.5 11.9s-9.2 11-14.5 11-8.5-3.9-8.5-9 4.1-12.1 7.3-13.7l3-1.5 4.2 1.3z"></path></g><g fill="#a8d2c0"><path d="M878.8 249.5c-1.3.6-3.3 7.6-7.7 26.8-5.8 24.9-5.1 26.3 8 16.3 7.3-5.5 9.6-6.4 10.2-3.7s18.9 20.2 22 22 4.9.6 3.6-1.7-4.1-4.8-8.1-8.6c-9.2-8.7-14.4-14.8-14.1-16.5s5.4-4.1 11.7-7.5 11.7-6.7 11.9-7.4a1.9 1.9 0 0 0-.7-2.2c-1.9-1.7-27 12.2-37.9 20.9-2.7 2.2-5 3.8-5.1 3.6s1.9-9.1 4.5-19.8 4.8-19.9 4.8-20.5-1.8-2.3-3.1-1.7z"></path><path d="M785 219.3c-1.4 1.6-4.1 12.2-8.6 33.2-5.3 25.1-5.2 27.1 1 29.3 3.2 1.2 26.4 3.5 31.1 3.1 2.4-.2 3.7-2 2.5-3.4s-7.1-1.3-15.1-2c-17-1.3-18.7-1.8-18.7-4.8s7.2-37.4 10-47.6c1.9-6.8 1.9-7.9.5-8.4a2.8 2.8 0 0 0-2.7.6z"></path><path d="M849 244.7c-18 .1-30.4 26-18.9 39.5 7.2 8.6 21.6 10.7 30.6 4.7 2.1-1.4 2.3-1.8 1.6-3.4s-1.4-1.5-5.7.2c-9.2 3.4-16 2.4-21.8-3.3-3.5-3.5-5.7-10.5-4.4-14.7 3.4-11.6 9.9-17.8 18.7-18.1 4.2-.1 5.3.3 13.2 4.4 1.2.7 1.9.4 2.6-.9s.4-2.3-2-4a26.5 26.5 0 0 0-13.9-4.4z"></path><path d="M808.8 233.6c-1.2.6-3.1 6.5-5.7 18.4s-2.1 13.8.8 12.4c1.1-.6 2-3.3 4-12.1 1.5-6.2 3-12.7 3.5-14.5s-.6-5.1-2.6-4.2z"></path><path d="M740.5 215.9a45.2 45.2 0 0 0-18.4 2.9c-9.9 4.2-17.5 15.7-16.8 25.7.4 6.5 4.3 13.7 9.7 18s18.8 9.1 25.1 8.5 15.3-4.7 16.2-7.2-1.7-3.1-6.8-.6c-7.8 3.9-12.2 4-21.2.8-6.3-2.3-8.7-3.5-11.8-6.5-7.5-7-8.8-15.3-3.7-24a24.7 24.7 0 0 1 15.6-11.9c10.9-2.8 20.9-.2 28.9 7.5 4 3.8 6.6 4.3 6.5 1.4-.1-4.5-14.9-13.8-23.3-14.6z"></path><g><path d="M904 336a35.8 35.8 0 0 0-5.1 3.8l-8.4 6.9c-2.4 1.9-7.4 6.3-11.1 9.8l-6.6 6.4.4-3.2c.3-1.8.6-9.9.8-18.1.3-10.2 0-15-.9-15.3-2.6-.9-3.4 2.4-3.9 17.6-.2 8.6-.7 18.2-.9 21.3s.2 6 .8 6.5 4.2.1 4.8-1.5 6.6-8.7 8.3-10 3.1 1.1 9.4 7.5c4.6 4.6 9.6 9.1 11.3 10s3.2 1.5 3.7-.1-.1-2.4-2.3-4-16.7-16.2-17.4-17.4 3.2-3.1 7.3-6.4 8.5-7.1 9.9-8.5c3.4-3.2 3.3-6.2-.1-5.3z"></path><path d="M838 324.3c-6-.2-14 2-18.6 5.2s-8.9 10.1-9.7 15 1.9 12.3 6.4 17 4.8 4.4 10.6 6.2 8 1.9 12.7 1.3c7.3-.9 14.7-3.7 15.5-6s-1.7-2.8-6.9-.8c-7.3 2.8-14.5 3.2-20.4 1.1-16.8-6-17.7-24.3-1.7-31.9 9-4.4 21.3-2.6 23.4 3.4.8 2.5.9 2.5 2.7 1.4s2-4.6-1.2-7.5-7-4.2-12.8-4.4z"></path><path d="M787.9 314.3c-1.8 7.3-4.6 27.8-4.2 30.5s2.2 3.5 3.5 2.5.9-2.9 1.1-5.7 1.3-10.2 2.4-16.3c2.6-15.7 2.6-15.3.5-16.1s-2-.2-3.3 5.1z"></path><path d="M756 309.4c-.8 2.3-2.4 13.9-3.6 26-2.4 24.8-2.2 26.2 4.5 28.5 2.5.9 9.5 1.5 18.4 1.7 25.7.4 27.6.1 26.9-3.3-.2-1-4.2-1.3-15.4-1.3-21.3 0-25.5-.2-28.9-1.8s-2.8-1.5-2.4-7.5c.7-8.2 3.9-37.4 4.7-41.9.5-2.5.2-3.5-1.1-4s-1.9.1-3.1 3.6z"></path><path d="M709.7 298.1c-11.1 0-19.5 4.9-24.7 14.2s-3.9 19.8 3.4 27.6c4.3 4.5 13.8 9.2 21.2 10.5 13.3 2.4 34.1-3.1 27.2-7.2-.8-.4-3.2 0-5.4.9-5.2 2.1-10.7 2.8-17.6 2.2a33.3 33.3 0 0 1-18.6-7c-9.3-6.9-11.3-15.9-5.7-25.4 3.6-6.1 8.6-9.5 15.7-10.8 5.5-1 6.2-.8 16.2 2.6s10.7 3.4 11.3 2.3 0-2-1.2-3.1c-3.1-2.6-16.6-6.8-21.8-6.8z"></path></g><g><path d="M921.7 223.2a17.5 17.5 0 0 0-2.3 3.8c-.3 1-2.7 5-5.2 9-4.7 7.2-5.2 9.6-2 9.5 1.6 0 9.8-12.5 12.4-18.7 1.3-3.1 1.4-4 .2-4.7s-2-.2-3.1 1.1z"></path><path d="M937.4 244.7a83 83 0 0 0-6.9 5.5c-2.3 2-2.5 2.6-1.8 4.1s1.2 2 9.7-4.5c4.7-3.6 5.9-5 5.5-6.1s-1.7-2.3-6.5 1z"></path><path d="M945 266.3c-4.9-.7-6.5-.2-6.4 2.1s.8 1.8 3.9 2.4c8.3 1.5 11.1 1.4 11.7-.3s-1.8-3.1-9.2-4.2z"></path></g><g><path d="M648.9 337.6c-10.3.9-13.8 2.3-11.2 4.6s21.8-.3 23.9-1.6 1.5-2.9-.6-3.5-6.3 0-12.1.5z"></path><path d="M668.7 352.8c-5.8 3.8-17.2 13.6-17.8 15.2s2.6 3.1 5.8.2a112.1 112.1 0 0 1 9.6-7.7c6.7-5 9.2-8.5 6.8-9.4-.7-.2-2.7.5-4.4 1.7z"></path><path d="M683.8 364c-2 1-6.5 14.6-5.4 16.5s3.1 1 6-7.2c2.2-6.2 2.6-8.4 1.8-9a2.5 2.5 0 0 0-2.4-.3z"></path></g></g><g><path d="M35.9 605.9c0 6.6 2 8.8 5.2 5.6s.6-10.9-2.8-11.4-2.4.1-2.4 5.8z"></path><path d="M1.2 613.2c-3 2.9 0 10.3 3.6 8.9s2.9-3.6 1.4-6.7-3.2-4-5-2.2z"></path><path d="M54.5 624.3c0 5.9 1.9 7.9 5.2 5.5a5.1 5.1 0 0 0 2.4-3.5c0-3-3.1-6.8-5.5-6.8s-2.1.8-2.1 4.8z"></path><path d="M28 639.9c-1.5 1.5-.8 8.1.9 8.8s5.3-2.2 4.1-5.8-3.5-4.5-5-3z"></path><path d="M74.2 655c-1.9 2.2-.7 4.9 2.1 4.9s2.3-.5 2-2.9-2.1-4.4-4.1-2z"></path></g><g><path d="M987.5 866.6c0 6.7 2 8.9 5.2 5.7s.6-11-2.7-11.5-2.5.1-2.5 5.8z"></path><path d="M952.8 873.9c-2.9 3 0 10.3 3.6 9s2.9-3.6 1.4-6.8-3.2-3.9-5-2.2z"></path><path d="M1006.1 885.1c0 5.9 1.9 7.8 5.3 5.5a5.4 5.4 0 0 0 2.4-3.6c0-2.9-3.2-6.7-5.6-6.7s-2.1.7-2.1 4.8z"></path><path d="M979.6 900.7c-1.5 1.4-.8 8 1 8.7s5.2-2.2 4-5.8-3.5-4.5-5-2.9z"></path><path d="M1025.8 915.8c-1.9 2.2-.7 4.9 2.2 4.9s2.2-.6 1.9-3-2.1-4.3-4.1-1.9z"></path></g><g><path d="M742.1 125.3c-9.4 7.1-21.5 20.3-21.5 23.5s2 5.4 3.7 5.4 5.9-4.9 11.9-10.9 13-12.4 15.5-14.3 4.3-4.1 4.1-6c-.7-4.6-5.7-3.8-13.7 2.3z"></path><path d="M755.8 146.8c-16.7 14.7-24.2 26.8-19.4 31 2.3 1.9 3.4 1.1 9.2-6.8 2.7-3.8 9.1-10.8 14.4-15.9 8.1-7.7 9.4-9.5 8.3-11.2-2.4-3.8-5.8-3.1-12.5 2.9z"></path></g><g><path d="M72.8 900.4c-.8 3.3 4.3 8.4 18.6 18.6 7.5 5.3 14.5 10.1 15.4 10.5 2.9 1.2 5.3-.9 4.9-4.4s-2.5-4.8-12.3-11.5c-6.6-4.5-13.9-9.9-16.4-12-4.7-4-9.3-4.5-10.2-1.2z"></path><path d="M60.1 922.6c-4.4 3.1-1.7 6.8 14 19.8s20.5 15.9 23.6 13.7 1.5-5.4-7.3-12.2c-4.9-3.7-12.5-9.9-17.2-14-9.9-8.6-10.6-9-13.1-7.3z"></path></g></g></g></svg>