<svg xmlns="http://www.w3.org/2000/svg" width="1052.9" height="1080" viewBox="-0.018550872802734375 -0.02806854248046875 1052.89990234375 1080.0386962890625" style=""><g><g data-name="Layer 2"><path d="M524.7 778c121.1.3 219.6-89.9 216.4-204.9-3.4-119.3-74.6-192.7-187.2-199.8-118.5-7.5-217.8 93.6-215.1 194.3-1.2 111 86.5 210.2 185.9 210.4zM423.1 509c25.1-48.1 66.5-71.6 113.2-72.8 41.2.2 69.8 12.6 90.6 38.8 29.2 36.7 46.9 78.9 38.8 126.2-9.6 56.2-51.6 82.3-102.7 94.8s-94.8-6.1-125.6-47.1S397.5 558 423.1 509z" fill="#fff"></path><path d="M67.2 468.7c22 48.1 45.2 92.2 62.7 138.5 55.9 147.6 127 288 202.7 426.2 12.9 23.6 32.4 30.6 57.7 20.5 124.5-49.9 249.1-99.4 373.4-149.8 44-17.8 87-38.4 130.9-56.5 15.5-6.4 18.1-14.7 12.1-29.3-5.2-12.6-8.8-26-12.4-39.2-1.1-3.9.3-8.7 5-10.4s8.3 1.4 10.2 5.2c6.2 12.2 12.3 24.5 17.7 37.1 3.3 7.7 3.9 17.5 16.7 11.3 9.2-4.4 12-9.5 7.7-19.8-9.3-22.5-17.1-45.5-25.7-68.2-2.1-5.2-3.7-11.2 1.3-14.4 7.3-4.8 11.2 2.3 14.7 7.2a92.8 92.8 0 0 1 9.8 16.3c7.3 16.4 14.1 33 21 49.6 1.7 4.2 4 7.5 9 5.9s9.9-5 9-11.2-2.7-10.2-4.6-15.1c-10.7-27.6-21.3-55.2-32.4-82.6-7.5-18.6-16-36.9-20.2-56.6-1.3-6.7-4.2-14.8 7.6-18.3 31.8 47.6 50.4 101.5 72.3 154.9 12.1-7.4 17-16.9 16.1-29.5-1.2-17.9-2.9-35.3-9.9-52.5-62.5-152.6-119-307.4-176.5-461.9-6.1-16.4-9.4-34.1-19.4-48.7-3.3.6-5.5.5-7.4 1.3-155.9 65.1-313.2 126.5-474 178.7-93.3 30.3-183.5 69.3-275.1 111.3zm843.1 79.9c6.9.2 10.9 5.2 11.5 12.2s-3.6 9.1-8.9 10.7c-7.4.3-12.2-3.5-12.9-10.5s2.7-12.6 10.3-12.4zm-3.5 118c7.4-1.8 11.3 2.8 13.7 9.1.5 6.3-3.1 9.8-8.7 10.6s-10.2-2.1-11.6-7.7.9-10.5 6.6-12zm-32.1 44.3c6.8-1 9.9 3.5 10.3 9 .2 3.9-1.7 8.3-7.1 8.8s-10.2-3.8-10.7-9.1 2.6-8 7.5-8.7zM490.2 960.1l-99.5 40.7c-10.5 4.2-18.5 1.2-24.3-8.2-1.7-2.7-3.1-5.6-4.5-8.4-23.1-45.3-20.6-53 26.3-71.2 24.6-9.5 49.7-17.7 74.9-25.3 21-6.3 26-3.5 33 16.6 3.8 10.9 6 22.4 8.9 33.6.6 11.5-5 18.2-14.8 22.2zm-20.1-599.9c49.9-15 97.4-15.1 148.8-.3 124.8 35.9 190.3 219.8 101.8 338.8-49.8 67-114.2 101.3-178.7 101-100.9 1.3-156.2-42.6-194.9-109.5-33.6-58.1-45.1-121.6-21.2-186.2 25.5-69.2 70-121.5 144.2-143.8z" fill="#fff"></path><path d="M420.2 925.9c-15.8 5.4-31.6 10.6-50.1 16.8 6.8 12.1 7.2 25 18 35.4 23-9.8 46.3-19 68.9-29.6 24.9-11.7 24.7-12.3 10.6-39.2-15.8 5.6-31.5 11.2-47.4 16.6z" fill="#fff"></path><path d="M76.3 245.6l107.8-53c-4.3-15.9-11.8-28.3-19.1-41.7-23.3 10-45.3 19.3-67.2 28.8a80.3 80.3 0 0 0-11.4 5.6C46.1 211 47.7 200.8 70.9 243c.8 1.4 3.5 1.7 5.4 2.6z" fill="#fff"></path><path d="M23.3 353.7c6.2 24.7 14.6 48.5 24.3 72s10.1 23.8 33.2 13.2c90.1-41.4 182-78.9 276.3-109.8 121.4-39.8 240.8-84.7 359.2-132.6 28.3-11.4 57.2-21.6 85.8-32.4 7.6-2.9 17.6-4.1 12.5-16.6q-21.3-52.8-42.9-105.6c-5.5-13.4-15.3-19.6-27.8-18-21.4.5-39.4 6.5-57.3 13.1q-202 74.1-404.2 148.2a1294.7 1294.7 0 0 0-209.1 97.5 283.8 283.8 0 0 0-34 23.3c-15.3 12.2-21.1 27.9-16 47.7zm553.7-235c35.9-14.8 72.2-28.9 108.8-42 23.6-8.4 28.6-5.3 39.5 16.9 24.4 49.2 22.9 52.8-27.8 75.6-35.6 16.1-71.8 30-109.5 40l-18.2 4.9c-10.5.3-18.4-3.5-22.3-13.9-1.1-2.9-2.2-5.9-3.2-8.9-16-49.1-14.7-53 32.7-72.6z" fill="#fff"></path><path d="M595.4 183.7c36.6-10.3 70.5-27.3 105.8-40.7 15-5.7 16.6-13.3 11.1-26a113.8 113.8 0 0 1-5.1-14.9c-2.3-9-6.8-11.7-16-7.9-39.8 16.6-79.7 32.8-119.6 49-7 2.9-14.2 5.2-12.1 15 0 28.6 7.3 33.5 35.9 25.5z" fill="#fff"></path><path d="M34.1 273.4C5.5 289.5-.4 317 0 346.9c.3 20.2 5.7 39.6 12.3 58.6a968 968 0 0 0 44.1 105.1c22.3 45.5 44.2 91.2 62.8 138.5 32.5 82.5 68.2 163.6 110.1 242 26.8 50.3 53.9 100.4 81.8 150.2 17.1 30.5 48.9 46.2 81.7 35.2q45-15 89.2-32.4c98.2-38.6 196.6-76.7 294.1-117 64.3-26.6 128.6-53.6 189.7-87.6 26-14.4 50.6-30.4 70.6-52.9 12.6-14.1 17.8-29.2 16.2-49.1-2.4-31-10.6-59.9-21.4-88.7-59.8-159.1-118.8-318.5-178.8-477.5-17.1-45.5-34.4-91-57.8-133.7-17.7-32.4-36.9-41.7-73.2-36.1a262.4 262.4 0 0 0-46 11.5q-138.7 49.1-277.2 99.2c-63.4 23-126.5 46.5-191.6 70.5-8.6-17.3-15.5-31.5-22.7-45.5-6.3-12.4-16.8-16.9-29-11.2-31.6 14.6-65.6 24-94.8 43.4C15.6 199 13.3 194 38.9 242.6c.5.9.8 1.9 1.4 2.8 8.7 11.7 7.2 20.4-6.2 28zm789.6-96c10 14.6 13.3 32.3 19.4 48.7 57.5 154.5 114 309.3 176.5 461.9 7 17.2 8.7 34.6 9.9 52.5.9 12.6-4 22.1-16.1 29.5-21.9-53.4-40.5-107.3-72.3-154.9-11.8 3.5-8.9 11.6-7.6 18.3 4.2 19.7 12.7 38 20.2 56.6 11.1 27.4 21.7 55 32.4 82.6 1.9 4.9 3.9 10 4.6 15.1s-3.8 9.5-9 11.2-7.3-1.7-9-5.9c-6.9-16.6-13.7-33.2-21-49.6a92.8 92.8 0 0 0-9.8-16.3c-3.5-4.9-7.4-12-14.7-7.2-5 3.2-3.4 9.2-1.3 14.4 8.6 22.7 16.4 45.7 25.7 68.2 4.3 10.3 1.5 15.4-7.7 19.8-12.8 6.2-13.4-3.6-16.7-11.3-5.4-12.6-11.5-24.9-17.7-37.1-1.9-3.8-5.3-6.9-10.2-5.2s-6.1 6.5-5 10.4c3.6 13.2 7.2 26.6 12.4 39.2 6 14.6 3.4 22.9-12.1 29.3-43.9 18.1-86.9 38.7-130.9 56.5-124.3 50.4-248.9 99.9-373.4 149.8-25.3 10.1-44.8 3.1-57.7-20.5-75.7-138.2-146.8-278.6-202.7-426.2-17.5-46.3-40.7-90.4-62.7-138.5 91.6-42 181.8-81 275.1-111.3 160.8-52.2 318.1-113.6 474-178.7 1.9-.8 4.1-.7 7.4-1.3zm-737.3 7.9a80.3 80.3 0 0 1 11.4-5.6c21.9-9.5 43.9-18.8 67.2-28.8 7.3 13.4 14.8 25.8 19.1 41.7l-107.8 53c-1.9-.9-4.6-1.2-5.4-2.6-23.2-42.2-24.8-32 15.5-57.7zm-13.1 97.4a1294.7 1294.7 0 0 1 209.1-97.5Q484.6 111.6 686.6 37c17.9-6.6 35.9-12.6 57.3-13.1 12.5-1.6 22.3 4.6 27.8 18q21.6 52.8 42.9 105.6c5.1 12.5-4.9 13.7-12.5 16.6-28.6 10.8-57.5 21-85.8 32.4-118.4 47.9-237.8 92.8-359.2 132.6-94.3 30.9-186.2 68.4-276.3 109.8-23.1 10.6-23.3 10.6-33.2-13.2s-18.1-47.3-24.3-72c-5.1-19.8.7-35.5 16-47.7a283.8 283.8 0 0 1 34-23.3z" fill="#050505"></path><path d="M347.1 690.2c38.7 66.9 94 110.8 194.9 109.5 64.5.3 128.9-34 178.7-101 88.5-119 23-302.9-101.8-338.8-51.4-14.8-98.9-14.7-148.8.3-74.2 22.3-118.7 74.6-144.2 143.8-23.9 64.6-12.4 128.1 21.2 186.2zm206.8-316.9c112.6 7.1 183.8 80.5 187.2 199.8 3.2 115-95.3 205.2-216.4 204.9-99.4-.2-187.1-99.4-185.9-210.4-2.7-100.7 96.6-201.8 215.1-194.3z" fill="#050505"></path><path d="M496.1 904.3c-7-20.1-12-22.9-33-16.6-25.2 7.6-50.3 15.8-74.9 25.3-46.9 18.2-49.4 25.9-26.3 71.2 1.4 2.8 2.8 5.7 4.5 8.4 5.8 9.4 13.8 12.4 24.3 8.2l99.5-40.7c9.8-4 15.4-10.7 14.8-22.2-2.9-11.2-5.1-22.7-8.9-33.6zM457 948.5c-22.6 10.6-45.9 19.8-68.9 29.6-10.8-10.4-11.2-23.3-18-35.4 18.5-6.2 34.3-11.4 50.1-16.8s31.6-11 47.4-16.6c14.1 26.9 14.3 27.5-10.6 39.2z" fill="#050505"></path><path d="M912.9 571.5c5.3-1.6 9.4-4.4 8.9-10.7s-4.6-12-11.5-12.2-10.9 5.7-10.3 12.4 5.5 10.8 12.9 10.5z" fill="#050505"></path><path d="M911.8 686.3c5.6-.8 9.2-4.3 8.7-10.6-2.4-6.3-6.3-10.9-13.7-9.1-5.7 1.5-8 6.3-6.6 12s6 8.5 11.6 7.7z" fill="#050505"></path><path d="M877.9 728.7c5.4-.5 7.3-4.9 7.1-8.8-.4-5.5-3.5-10-10.3-9-4.9.7-7.9 4.8-7.5 8.7s4.1 9.6 10.7 9.1z" fill="#050505"></path><path d="M547.5 200.2c3.9 10.4 11.8 14.2 22.3 13.9l18.2-4.9c37.7-10 73.9-23.9 109.5-40 50.7-22.8 52.2-26.4 27.8-75.6-10.9-22.2-15.9-25.3-39.5-16.9-36.6 13.1-72.9 27.2-108.8 42-47.4 19.6-48.7 23.5-32.7 72.6 1 3 2.1 6 3.2 8.9zm24.1-57c39.9-16.2 79.8-32.4 119.6-49 9.2-3.8 13.7-1.1 16 7.9a113.8 113.8 0 0 0 5.1 14.9c5.5 12.7 3.9 20.3-11.1 26-35.3 13.4-69.2 30.4-105.8 40.7-28.6 8-35.9 3.1-35.9-25.5-2.1-9.8 5.1-12.1 12.1-15z" fill="#050505"></path><path d="M563 696c51.1-12.5 93.1-38.6 102.7-94.8 8.1-47.3-9.6-89.5-38.8-126.2-20.8-26.2-49.4-38.6-90.6-38.8-46.7 1.2-88.1 24.7-113.2 72.8s-17.7 97.4 14.3 139.9S511.2 708.7 563 696z" fill="#050505"></path></g></g></svg>