<svg xmlns="http://www.w3.org/2000/svg" width="1078.2" height="1080" viewBox="-0.015365631319582462 0 1078.21533203125 1080.0001220703125" style=""><g><defs><linearGradient id="a" x1="539.08" y1="2.18" x2="539.08" y2="1056.91" gradientUnits="userSpaceOnUse"><stop offset="0" stop-color="#dcb308"></stop><stop offset="1" stop-color="#ede9e0"></stop></linearGradient></defs><path d="M288.5 686.9c3.3-6 7.9-10.1 17-9.4-7.2-4.5-8.6-10.3-8.3-16.8 3.3-5.7 7.6-10.2 14-9.9l-6.6-11.7-13 5.3c5.6 3.5 7 9.5 5.7 16.4-2.8 4.1-6 7.7-11.4 8.2a13.1 13.1 0 0 1-14.4-11.7 12.8 12.8 0 0 1 11.3-14.5 38.6 38.6 0 0 1 5-.1c-6.7-4.8-9.5-10.6-6.2-18.1 2.2-5.3 7.7-8 13.6-7.3s9.9 4.9 11.7 13.6c4-4.6 8.6-7.2 14.6-6.2 7.5 2 10.8 7.4 11.2 13.6l12.7-5.9-6.2-13.6a13.9 13.9 0 0 1-13.1 6.2l-4.7-.2a5.2 5.2 0 0 0-1-1.8c-5-3.8-7.3-8.7-5.6-14.9s6.3-9.3 12.6-10l.9-.2c-1.6-3.3-4.3-6.6-4.5-10a17.3 17.3 0 0 1 3.2-10.7c3.6-5 11.2-5.6 16.4-2.4s7.5 9.3 5.2 15.5-7.5 8.7-14.3 9.4c5.7 4.2 7.7 9.3 6.3 16.5 3.7-6.9 8.7-10 15.9-9.9-6.4-3.7-6.8-10-8-16a11.1 11.1 0 0 0 2.2-2.1c3.9-6.2 9.2-8.9 15-7.6s10 6 11 13.4c0 .5.1.9.1.7l12.2-6.6c-1.9-3.4-4.2-7.8-6.5-12.1-6.8 5.6-12.3 6.5-18.1 2.5a13.3 13.3 0 0 1-5.1-15.6 13.6 13.6 0 0 1 12.9-8.9c7 .3 11.1 4.5 13.3 13.3l13.1-5.7c-1.4-2.2-4.5-5.2-5.1-8.6a18.4 18.4 0 0 1 2-11c2.9-5.3 9.9-7 15.6-4.8s9.1 8.2 8.2 17.1c3.4-6.7 8.5-9.9 16.5-9.3l-3.3-3a13.4 13.4 0 1 1 22.2-7.7c-.2 1.2-.2 2.5-.3 3.8-4.6 4.9-9.4 9.1-17 7.1 6.1 3.2 9 8.2 9.2 13.7l13.7-6.5c-4.4-3-6.4-8.1-6-14.4 4.3-9.1 10.9-12.7 18.4-9.8s9 7.7 9 13.7l13.1-7.1c-.8-1-2.9-2.7-4.1-4.9s-1.7-4.8-2.4-7c-3 1.5-6.3 4.1-9.7 4.4a17.9 17.9 0 0 1-10.4-2.9c-4.7-3.1-5.9-9.7-3.7-15a13.5 13.5 0 0 1 13.2-8.3c6.9.6 10.7 4.7 12.9 14.4 4.7-4.3 9.7-7.3 16.2-4.9s8.8 7.4 9.2 13l12.8-7.3c-1-2.1-3.5-5-3.9-8.3a17.9 17.9 0 0 1 2.1-10.1c2.9-5.1 9.6-6.8 15.2-4.8a13.5 13.5 0 0 1 8.7 13c-.3 6.9-4.3 10.8-14 13.4 1.5 2.1 3.3 4 4.3 6.2s1.1 4.7 1.8 7.7c4.1-6.2 9.9-8 16.8-6.9h-.1c5.8 3.4 9.9 7.8 9.4 14.2l14.1-6.8c-3.6-2.8-6.8-7.1-5.9-13.2s7.8-12.7 14.9-11.7a13.5 13.5 0 0 1 11.5 15.9c-.2 1.2-.2 2.3-.3 3.4-4.3 5.1-9.1 9-16.6 7.3 6 3.2 8.9 8.2 9 13.5l14-6.4c-5-2.9-6.4-8.4-6.6-14.5 3.4-7.2 8.7-11.4 17.1-10.5h-.2c7 3 11.2 8 10.3 17.6 4.4-6.9 9.7-9.2 16.4-8.6l-.2-.2c6.6 2.9 10.9 7.5 10.5 16.3 4.7-6.5 9.9-9.7 17-7.5s9.1 7.4 9.7 14.5c5.5-6.1 11.5-8.2 18.6-4.3 4.7 2.5 7.1 8.1 6.3 13.3s-4.8 9.8-14.2 11.9c1.8 2.2 4 4.1 5.3 6.6s1.4 5.3 2.2 8.3c3.6-5.3 8.9-7.6 15.3-7.1h-.1c5.9 2.7 10.4 6.6 10.6 13.1l12.5-5.8c-1.3-2.6-4-5.9-4.3-9.3a15.9 15.9 0 0 1 2.9-10.3c3.3-4.9 10.2-5.9 15.4-3.3a13.3 13.3 0 0 1 6.9 14.8c-1.4 6.2-6.4 9.6-15 10 5.1 4.5 8.4 9.5 6.3 16.3s-7.2 9.3-12.7 9.8l7 14.1c3-4.3 8.3-6.6 14.7-6v-.2c8.9 4.8 12.1 10.4 9.8 17.7s-6 8.9-13.4 9.9l6.8 13.9 1-1.2c4.2-4.5 9.3-6.1 15.1-3.9s8.6 6.8 8.9 12.9c.1 1 .1 2 .1 2.9h.1c-4.1 8-6.1 9.5-14.2 11l6.5 12.5c7.3-6.3 12.3-7.4 18.4-3.8s7.7 8.8 6.5 14.2-6.1 10.4-14.7 11.4c1.7 2.2 3.7 4.1 4.8 6.4s1.4 5.3 2.1 8.2c5.2-6.1 11.5-9.1 19.3-4.5a13.2 13.2 0 0 1 6.1 13.5c-1.7 8.2-7.5 11.3-16.3 11.6 6.9 4.4 8.7 10.2 7.6 17h.2c-2.9 5.6-7.1 9.5-13.1 9.7l6.7 12.5c4.9-4.4 10.9-6.5 17.6-2.3a12.7 12.7 0 0 1 6.2 12.5c-.9 7.6-6 11.3-13.6 12.6 5.2 5.1 7.8 10.7 4.7 17.4s-7.8 8-14.8 8c5.6 4.7 9 9.8 6.7 16.8s-7.4 9.8-15.2 9.9c6.1 5 8.9 10.6 6.1 17.7s-7.4 8.8-14.7 8.8c5.3 4.7 8.4 9.9 6.3 16.6s-6.9 9.7-14.3 10c5.8 5 9 10.8 5.7 18.1s-8.2 8.5-15.6 8.2c6.5 5 9.6 10.6 6.5 18.1a12.7 12.7 0 0 1-12.4 8c-8.1-.5-12.1-5.5-13.5-12.6l-10.6 5.6c1.4 3.8 2.9 8.3 4.3 12.2 2.3-1.4 5.2-4.1 8.4-4.6a16.8 16.8 0 0 1 10 2c4.9 2.8 6.4 9 4.5 14.3a12.6 12.6 0 0 1-13 8.3c-6.8-.7-10.5-5.2-11.8-13.4l-12.5 7.9c2.9 3.1 6.1 7.6 4.3 13.1a18.6 18.6 0 0 1-6.1 8.9c-7.4 5.2-15.3 1.7-20.9-8.6l-9.7 5.5c2.7 4.7 4.6 10.2 1.4 15.6a19.8 19.8 0 0 1-7.1 7c-7.1 3.8-14 .9-20.1-7.6l-7.4 4c3 10.8.8 17.8-6.6 21.8s-14.1 1.9-21.3-6l-7.1 3.6c1.9 9.7-.2 15.7-6.8 19s-12.6 1.5-19.2-5.6l-11.1 5.2c.4 2.1.9 4.4 1.5 7.2l-50.7 3.2c-1.3-2.1-2.2-3.8-3.7-6.3-2.5 2.1-4.7 4-6.9 5.6a5.2 5.2 0 0 1-2.8.6c-14.7-.7-29.5-1.3-44.2-2.1-1.6 0-3.1-.8-4.8-1.3-.7-5.8 2.6-9.5 7-12.7l-3.4-4.5-3.7 1.1c-1.1 5.3-1.8 9.8-3 14.1-.3.9-2.7 1.6-4.1 1.5-3.7-.1-7.4-.7-11.1-1-7.3-.5-10.2-4.8-7.6-11.9 1.1-2.7 3.3-5.1 5.3-8.2-1.1-3.5-3.5-5-7.5-2.2 1.9 10.2-.5 16.2-7.5 18.7-5.5 2-13.2-.9-16-6s-1.2-13 6.4-18.4l-4.1-5.9-6.3 1.7c3.3 10 1.1 16.5-6.2 19.5a12.7 12.7 0 0 1-16-5.6c-3.7-6.9-1.4-13.3 6.9-18.9l-4.9-7.4-8.3 2.1c2.8 4.6 4.8 9.6 1.8 14.5a15.5 15.5 0 0 1-6.7 6c-6.2 2.6-13.4-1.1-15.6-7.3s1.3-13.5 9.7-16.4l-6.2-9.3-12.2 2.8c5.7 6.4 6.6 11.9 2.6 17a11.4 11.4 0 0 1-13.7 3.1 11.2 11.2 0 0 1-6-13.1c1.5-5.6 6-8.4 12.2-8.2-2.7-4.1-5.8-8.6-9.1-13.4-3.3 2.6-8.2 5.7-13.8 3.1-3.2-1.5-6.6-4-8.3-7-4.3-7.7-.1-15.6 9.9-19.8-1.8-3.4-3.7-6.9-5.6-10.6-4.8 3.9-10.5 4.3-16.4 2.5h.1c-4.6-3.6-8.3-7.8-7.8-15.3-6 6.2-12.1 8.6-19.2 4.4A12.3 12.3 0 0 1 291 953c.8-7.4 5.6-11.1 12.2-12.3l-5.7-12.7c-4.7 5-10.7 7.3-17.8 3.4a13.1 13.1 0 0 1-6.5-13.2c1.3-7.6 6.3-11.1 12.9-12-2.3-4.2-4.6-8.4-7.1-12.7-4.8 4.5-10.8 6.3-17.5 2.1a12.7 12.7 0 0 1-5.6-13.6c1.5-7.4 6.7-10.4 12.9-11-2.4-4.7-4.9-9.6-7.1-14.1-5.7 6.4-12 8.2-18.2 4.4a13 13 0 0 1 9.2-23.9c6.6 1.1 10.3 6.4 10.6 16.2 3.2-6.2 7.7-9.5 13.6-9.4l-6.6-12.8c-3.3 3.8-7.7 6.7-13.9 5.4a13.4 13.4 0 0 1 4.7-26.4l3.9.4 8.7 11.9 10.9-6.2c-1.7-3.3-3.7-7.1-5.7-11.1-3.5 4.2-8.3 5.9-14 5.5-9.8-4.6-13.4-12.8-8.8-20.6 3-5.1 7.8-6.9 14.4-7-6.5-4.4-8.4-10-7.4-16.9v.2c3-5.6 7-9.8 13.4-9.8-2.2-4.2-4.6-8.6-6.8-12.9-6.9 5.4-12.4 6.3-18.2 2.3a13.3 13.3 0 0 1 7.9-24.2c6.8.2 10.8 4.1 13.4 13l12.9-5.8c-5.1-3.4-6.7-9.1-5.9-15.6l.8-2c3.6-5 7.9-8.5 16.1-7.5-7.3-4.8-8.9-10.6-8-17.3zm113.8-123.8c6 3.1 8.8 8 8.9 13.5l12.8-6.2-6.3-13.4c-3.3 4.7-8.5 7.3-15.4 6.1zm264.1-2.1c5.9 3.4 9 8.3 8.7 14.1l12.9-6.5-7.2-12.5a14.4 14.4 0 0 1-14.4 4.9zm65.7 80l5.8 11.4 12.1-5.2-6.1-12.5zm-32.5-49.5l-11.7 6.2 5.7 11.5 12.2-5.3c-1.9-3.9-4.2-8.5-6.2-12.4zm-319.4 22.9l-5.3-12.2-12.3 6.2c1.9 3.7 4.3 8.1 6.3 11.8zm264.1-60c1.6 3.8 3.5 8.1 4.8 11.3l12.9-6-6.3-12.1zm17.2 34.7l5.8 10.9 11.7-5.1c-1.9-3.9-4.1-8.5-5.8-12.2zm-94.3-40.7l-11.8 6.2 5.8 11.3 11.5-5.4zm-46.9-5.4l-6-11.9-11.7 6.6 6.4 11.2zm96.3 2.7c1.9 3.3 4.2 7.6 6.2 11.2l11.3-6-4.7-12zm35.5 40.2l-5.4-11.8-11.7 6 5.9 11.1zM791 757.3l12.3-5c-2-4-4.5-8.6-6.5-12.4l-11.3 6.2zM444.6 567l-12.1 6.2 6.1 11.3 11.1-5.5c-1.7-4-3.6-8.3-5.1-12zm143.3 7.5l11-5.3-5.1-11.9-11.9 6.1c1.9 3.4 4 7.3 6 11.1zm-257.2 71.9l-11.4 6.2 6.3 11.9 10.3-5.7c-1.8-4.3-3.7-8.7-5.2-12.4zm430.7 23.9l-11.3 6.2 5.6 10.9 12-5c-2-3.7-4.3-8.3-6.3-12.1zm-433.7 14.5c-1.7-3.7-3.5-7.9-5-11.2l-12.1 5.6 6.3 11.5zm386.2-78.4l6 11.3 12.1-6c-2.1-3.3-4.5-7.3-6.5-10.7zm-173.3-67.1l-11.3 6.4 6.3 10.5 11-4.3c-1.9-4.1-4.1-8.6-6-12.6zm-131.4 45.3l-11.1 6.2c1.9 3.6 4.1 7.9 6.2 11.7l10.1-5.7c-1.7-4.1-3.7-8.5-5.2-12.2zm58.5-28.9c1.9 3.3 4.2 7.3 6 10.6l10.7-5.7-4.3-11.6zm146.6 26.6l11.5-5.2-5.6-10.9-11.8 6.1zM354.1 635c1.8 3.5 4.1 7.6 6 11.2l10.7-5.6c-1.6-3.8-3.4-7.9-4.9-11.2zm431.3 81.8l-6.2-11.2-11.3 6.3 5.4 9.9zm-483.5-11c1.9 3.4 4.2 7.6 6.1 11.2l10.6-5.6c-1.7-3.9-3.5-7.8-5-11zm-8.8 26.5l6.1 11.2 10.5-5.7-5-10.8zm-8.1 26.3c1.9 3.5 4.2 7.7 6.4 11.5l9.5-5.6c-1.7-3.8-3.6-7.7-5.1-10.9zm2.8 109l-11.6 4.9c2.1 3.3 4.7 7.4 7 11.2l9.8-5c-1.8-3.8-3.6-7.8-5.2-11.1zM406 622.9l-4.9-10.8-11.5 5.3 5.9 10.7zm398.4 216.6l-6.6-10.8-10.5 6.2c1.6 3.4 3.4 6.9 4.7 9.8zm-92.9-196.4l11.6-5.1-5.7-11.1-10.5 6.3zM275.9 785.2l6.5 10.8 9.9-6c-1.5-3.5-3-7.1-4.1-9.9zm219.7-220.8l4.7 10.2 11.2-5.5-5.2-10.9zm-19.7 22.2l-4.9-10.1-11.7 5.6c1.8 3.1 4 6.6 5.9 9.9zm259 75.2l-10.6 5.9 5.1 10.4 10.7-4.9c-1.8-4-3.6-8-5.2-11.4zm60.4 146.1l5.5 10.9 10.6-5.5-5.5-10.5zm-24.1 138.4l-8.1-11-8.9 5.2c1.4 3.6 2.9 7.1 4 9.8zm16.6-179.4l-9.3 5.8c1.7 3.8 3.5 7.5 5 10.7l10.3-4.7zm-496.5 90.3l9.7-5.6-4.6-9.7-11.1 4.4c2 3.5 4.1 7.3 6 10.9zm149.2-251.8l-5.2-11.1-10.2 5.4 5.9 10.6zm218.3 20.4l10.3-4.9c-1.7-3.6-3.5-7.4-5-10.8l-10.4 5.6zM304.9 903.9l-10.3 4 6.4 12 8.9-5.9c-1.6-3.3-3.3-6.8-5-10.1zm437.5-200.7l4.8 10 10.5-4.8c-1.8-3.6-3.6-7.4-5.2-10.9zM527.3 583l9.6-5.1c-1.7-3.6-3.5-7.2-5.1-10.3l-10.5 4.5zm30.8-7.5l-10 5.6 5.7 10.4 9.3-4.7zM695 629c-1.5-3.7-2.9-7.4-4.1-10.5l-11 6.1c1.7 3 3.6 6.5 5.2 9.6zm-203-28.9l10-4.8c-1.6-3.5-3.4-7.2-4.9-10.4l-10.7 5.2zm303.3 266l-6.4-10.5-9.2 5.7 3.9 9.4zM627.2 606.9c1.7 3.4 3.5 6.8 5.1 9.9l10.2-4.7-5-10.7zm-230.7 42.3l-4.5-10.1-10.6 5 5.5 10zm-50.1 12.3l5.8 9.9 9.5-4.3-5-10.7zm356.7 7.2l10.1-4.6-5-10.6-10 5.6zm83.2 224c-2-3.4-4.2-7.3-6.4-10.9l-8.6 5.2 4.6 9.3zm-15.8-93l4.6 9.5 10.2-4.4-5.4-10.5zm-252-191l9.6-4.7c-1.5-3.4-3.1-6.9-4.6-10.1l-10 5.2zM763 913.8l4.3 10 10.4-4.6c-2.1-3.1-4.3-6.6-6.4-9.8zm-449.4 29.9l4.7 10.8 9.5-6.3-4.5-8.6zm-4.2-118.8l-4.4-9.2-10 4.3c1.9 3.5 3.6 6.8 5.2 9.9zM329.5 715l5.4 9.5 9-4.8-4.2-9.5zm14.2-16.7l8.8-4.8c-1.5-3.1-3.2-6.4-4.7-9.3l-9.8 4zm240.8-113.7l-9.7 5.4 5.4 9.4 8.6-4.7c-1.4-3.3-2.8-6.7-4.3-10.1zm191.1 158.3l-5.4-10.2-8.7 5.6 4.2 8.7zM422.1 635.4l8.9-4.8c-1.2-3.2-2.5-6.4-3.7-9.2l-10.3 5.2c1.6 2.8 3.4 5.7 5.1 8.8zm123.1-18.3l9-4.5-4.3-9.6-9.6 5.1zm175.9 86.4l9.5-4.2-4.9-9.9-9.3 5.1zM681.6 646l-9.5 5.4 4.4 8.2 9.9-4.5c-1.5-3-3.1-5.9-4.8-9.1zm-229.4-37.2l5.1 8.2 9.3-4.1-4.9-9.4zm164-5.5l-5.1-9.9-8.9 5.3 4.4 8.6zM488 611.9l-9.5 5 4.8 8.9 8.9-4.4zm282.9 209.8l-8.4 4.7c1.4 3 2.8 6 4.1 8.6l9.4-4q-2.6-4.5-5.1-9.3zm-445-71.6l8.3-4.9c-1.2-2.8-2.3-5.5-3.5-8.2l-9.9 4.6c1.7 2.8 3.3 5.6 5.1 8.5zm-22 132l5.1 9.5 8.3-4.9-4-8.3zm453.6-108.8l8.8-4.1-5.2-9-8.1 4zm-371.1-98.8c-1.2-2.9-2.3-5.8-3.4-8.5l-9.9 5 4.9 8.2zM567.1 617c1.4 2.6 3 5.3 4.5 7.9l9.1-4.6c-1.5-3-2.9-5.7-4.2-8.4zm-148.8 31.5l-9.6 4.8c1.6 2.6 3.2 5.4 4.7 8l8.9-4.7zm206.6-6.2l7.9-4-4.5-9.6-8.1 4.8zm30-4.8l-8.3 4.9 4.7 8.2 8.1-3.5zM317.7 775.8l8.2-4.2c-1.4-2.7-2.7-5.4-4-8.2l-9.1 4.6zM518.4 630l-4-8.8-8.9 4.7c1.6 2.8 3 5.4 4.5 8.2zm224.9 94.9l-8.1 4.9 4.5 8.2 7.9-4zm-144.9-91.5l8-3.9c-1.6-3.2-3.1-6-4.4-8.8l-8.2 4zM309.2 803l8.1-4.6-4.2-7.7-8.3 3.8zm394.2-112.8l-4.4-9.3-7.8 4.8c1.5 2.7 3 5.3 4.5 7.7zm-337.8 7.2l4.7 7.9 7.5-4.5c-1.4-2.8-2.6-5.3-3.9-7.8-2.8 1.4-5.5 2.8-8.3 4.4zm175.1-66.9l-8.3 4.3 4.3 7.7 7.8-3.8c-1.3-2.9-2.6-5.5-3.8-8.2zm208.5 168.4l8.1-3.6-4.3-8.6-7.6 4.4zM445 635.4l4 8.1 8-4.4-4.2-7.7zm33.7 4l-7.5 4 4.6 8c2.4-1.3 4.6-2.5 6.9-3.6zm-34.4 17.9l-8.1 4.1 4.2 7.4 7.6-3.8c-1.3-2.6-2.4-5.1-3.7-7.7zm272.3 59.6l-7.1 4.2c1.5 2.9 2.9 5.5 4.3 8l7-3.5c-1.4-3-2.8-5.8-4.2-8.7zM358.5 988.3l4.2 9.4c2.2-1.7 4.4-3.4 6.8-5.1-1.2-2.3-2.5-4.5-3.6-6.7zm-36.6-135.8l-8.2 3.3 4.4 8.1 7.1-4.1zm44-132.4l-8.6 4.1c1.4 2.4 2.8 4.7 4.1 7.1l8-4.4zm350.5 273.8l8.6-3.7-5.8-8-5.8 3.6zm14.9-230.4l8.1-3.8c-1.4-2.6-2.7-5-3.9-7.4l-7.7 4.4c1.2 2.2 2.3 4.5 3.5 6.8zm-54.7-82.3l-4.1-7.8-7.3 4.5 4.1 7.1zm-271.8 5.6l8-4.1-3.7-7.1-7.8 4.2zm192.5-31.5l-3.7-7.6-7.5 3.9c1.3 2.3 2.6 4.8 3.8 7.1zm168.6 201.2l-3.9-7.7-7.3 4.4c1.2 2.4 2.4 4.6 3.5 6.7zM620.2 656.4l-7.6 4a172 172 0 0 1 3.9 7.1l7.2-3.4zm-61-12.6c1.4 2.2 2.7 4.3 3.9 6.4l7.7-3.8-3.5-6.9zM327.4 925.5l6.4-4.3-3.4-6.5-7.2 3.1c1.4 2.6 2.8 5 4.2 7.7zm-4.3-96l4.1 7.2 6.4-3.8-3.1-6.6zm326.6-156.3c-1.3-2.6-2.6-5-3.9-7.4l-6.7 3.4 4 7.3zM344 783.4l6.5-3.7c-1.1-2.5-2.1-4.6-3.1-6.7l-7.2 3.4zm8.8-26.3l7.1-3.8-3.1-6.4-7.4 3.7zm50.3-47.8l-3.3-7.3-6.6 3.5 4.1 6.9zm102-60.6l-6.7 3.7 3.9 6.5 6.1-2.8c-1.1-2.5-2.2-4.8-3.3-7.4zm-34.6 18l-6.9 3.7 3.7 6.3 6.3-3.2zm-35.4 17.8l-6.9 3.5c1.2 2.2 2.4 4.2 3.6 6.3l6.1-3.2c-1-2.4-1.8-4.4-2.8-6.6zM690 709.3l-6.1 3.3 3.6 6.9 6.1-3.2zm67.5 173.6l-4.2-6.8-5.7 3.6 3.2 6.3zm-419-83l-6.5 2.7 4.1 7.3 5.5-3.4c-1-2.2-1.9-4.2-3.1-6.6zm402.6 24.4l6.6-2.9-3.7-7.1-6 3.6c1.1 2.1 2 4.1 3.1 6.4zm-8.9 138.5c-1.5-2.3-2.9-4.4-4.4-6.5l-5.4 3.3 2.5 6.1zm-26.7-208.7l6.3-2.7c-1.1-2.3-2.2-4.4-3.3-6.8l-6.1 3.4zM341.3 952.7l4.1 7.9 5.2-3.8-3.3-6zm401-40.6l7-2.9-3.8-5.8-5.7 3.5c.8 1.8 1.6 3.3 2.5 5.2zM527.9 667l6-3.2c-.8-2.1-1.6-3.9-2.4-5.8l-6.7 3.6c1.1 1.8 2 3.3 3.1 5.4zm-139.6 71l5.9-2.8-2.7-5.9-6.3 3.1zm279-31l-2.9-5.9-5.8 3.6c1 1.9 1.8 3.4 2.6 5.1zm62.3 78.9l-3.2-6-5.4 3.5 2.5 5zm2.2 147.7l2.2 4.9 6.6-2.6c-1.4-1.9-2.6-3.7-3.8-5.5zM554.8 675c2-.9 3.9-1.8 5.9-2.9L558 667l-5.6 3.4c.8 1.7 1.6 3.1 2.4 4.6zm26.8 8.5l5.4-2.6c-1-2-1.9-3.7-2.8-5.6l-5.4 3.1zm26.7 8.8l5.1-2.7-2.7-5.4-5.3 3.1zM515 1067.1l-5 1.9c.7 2.2 1.2 4.2 1.9 6.5l5.6-4.5c-.9-1.3-1.5-2.4-2.5-3.9zM338.5 889.4l-6 2.5 3.2 5.2 4.8-3.2c-.7-1.4-1.2-2.7-2-4.5zm157.4-212.5l-4.9 2.6 2.9 4.9 4.5-2.4c-.8-1.8-1.6-3.3-2.5-5.1zm135.9 19.2c1.1 1.7 2 3.1 2.8 4.5l5.1-2.6c-.7-1.8-1.4-3.3-2.2-5.1zm-249.6 60.3l-5.3 2.8c1 1.7 1.8 3 2.8 4.5l4.6-2.6zm299.4-20l-4.6 3c1 1.7 1.7 3.1 2.6 4.7l4.7-2.2zm-223.1-34.8l4.8-2.6c-.8-1.6-1.4-3-2.2-4.5l-5.2 2.7zm115.4 357.9c.7 2.8 1.4 5.1 2.1 7.8l5.1-3.7c-2.8-1-2.1-6.4-7.2-4.1zM421.2 714.4c1.4 3.8 3.1 5.9 6.7 2.3l-2.2-4.6zm310.2 130.2c1 1.8 1.6 3 2.5 4.5l4-1.8c-1-1.8-1.9-3.3-2.8-5.1zm-43.8 162.6l-3.3-4.2c-4.6 1.4-2.6 3.8-1.3 6.2zm102.2-333.7c-.2 1.1-.4 2.3-.5 3.4a13.2 13.2 0 0 0 24.6 8.2c3.3-5.5 2.1-12.4-2.9-16.9l-2.9-2.5h3.2c6.1-.6 10.9-4.9 11.7-10.6a12.9 12.9 0 0 0-23.4-9.5c-.8 1.1-1.4 2.2-2.1 3.3h.1c-.8 6.2.4 11.6 6.3 15.5-9.7 2.8-10 3-14.2 9.3zm-169.7-156h3.9c6.4.2 11.8-3.4 13.5-9.2a13.1 13.1 0 0 0-22.6-12.2l-2.5 2.9c0-9.2-3.5-14.6-9.9-16a13 13 0 0 0-15 7.4c-2.5 5.5-1 12.7 4.2 15.6a17.3 17.3 0 0 0 11.1 2c3.3-.6 6.2-3.8 9.3-5.9-1.5 7.1 2.7 11.6 8.2 15.4zM279.9 706.3a13.1 13.1 0 0 0-13.8-10.8 13.3 13.3 0 0 0-12.5 12.8 13.1 13.1 0 0 0 11.4 13.6c7 1 11.4-2.7 14.7-8.3l.8-2c-.2-1.8-.3-3.6-.6-5.3zm279.7-179.9l2.9.3a13.4 13.4 0 0 0 14.9-12.2c.7-7.2-5-13.8-12.4-14.4a13.3 13.3 0 0 0-14.2 12.5c-.4 6.7 3.4 11 9 13.9zM288.5 687c.2-1.2.3-2.3.4-3.4a13.3 13.3 0 1 0-13.7 12c6.4.2 10.5-3.4 13.4-8.8a.3.3 0 0 0-.1.2zm509-38.1c.2-1.5.5-2.9.6-4.4a13.3 13.3 0 1 0-10.8 12.5c5-.8 7.8-4.3 10.3-8.2zM263 766.6c.1-1.4.3-2.9.3-4.4.1-6.6-4.3-12.2-10.6-13.2a13 13 0 0 0-14.9 8.3 13.2 13.2 0 0 0 23.1 12.2c.7-1 1.5-2 2.2-3.1zm553.1 4.3c-.1 1.1-.1 2.2-.2 3.4-.4 7 3.8 12.8 10.2 14.1a13.1 13.1 0 0 0 8.7-24.6c-5.9-3-12.8-1.1-16.8 4.5l-2.1 2.7zm-9.1-57.2a13.1 13.1 0 1 0 13-13.1 12.9 12.9 0 0 0-13 13.1zm-45.6-92.3a31.3 31.3 0 0 0 4.3.4 13.1 13.1 0 1 0-.8-26.2c-7.6.7-12.7 7.4-11.7 15.2.7 5.3 4.4 8.1 8.3 10.8zM414.9 510.2a12.8 12.8 0 0 0-13 13 13.1 13.1 0 1 0 13-13zm302.3 68a56.5 56.5 0 0 0 5.8.4 13.2 13.2 0 1 0-14.1-13.5c-.2 6.3 3.5 10.2 8.4 13.2zm-70.6-51.9l4.9.2a13 13 0 1 0-13.1-12.9c-.1 6.3 4 9.6 8.4 12.9zm-148.5-29.9a13.1 13.1 0 1 0 26.1.5 13.1 13.1 0 0 0-26.1-.5zm179.7 11.9a13 13 0 0 0 .2 26 13 13 0 0 0-.2-26zm-345.4 51.1a13 13 0 1 0 13.2-12.8 12.8 12.8 0 0 0-13.2 12.8zm-44.1 44.5a12.9 12.9 0 1 0 12.9-13.1 12.6 12.6 0 0 0-12.9 13.1zm96.9-75.3a49.9 49.9 0 0 0-5.4-.7 12.8 12.8 0 0 0-12.9 10.4 13.1 13.1 0 0 0 8.2 15 13.4 13.4 0 0 0 15.8-5.6 13.1 13.1 0 0 0-2.5-16.5c-1.1-1-2.2-1.8-3.4-2.7zm52.1-23.1a13 13 0 1 0 13.1-12.9 12.8 12.8 0 0 0-13.1 12.9zm141.3-30.9a37.9 37.9 0 0 0-5.8-.5 12.9 12.9 0 0 0 0 25.8c7.4 0 12.9-5.6 13.1-13 .1-5.8-3.6-9.1-7.4-12.4zm214.1 130a12.9 12.9 0 1 0 12.8 12.7 12.7 12.7 0 0 0-12.8-12.7zm57.9 144.8a12.9 12.9 0 1 0-12.9 12.5 12.6 12.6 0 0 0 12.9-12.5zm-609.1 26a12.9 12.9 0 1 0 12.8 13.1 12.7 12.7 0 0 0-12.8-13.1zm256-287.5a12.9 12.9 0 1 0-12.9 12.9 12.5 12.5 0 0 0 12.9-12.9zm207.1 29.4a12.9 12.9 0 1 0 12.6 12.9 12.6 12.6 0 0 0-12.6-12.9zm-171-38.2a12.9 12.9 0 1 0 12.6-12.9 12.7 12.7 0 0 0-12.6 12.9zm197.5 47.1a12.8 12.8 0 1 0 12.5 12.9 12.6 12.6 0 0 0-12.5-12.9zm-97.4-60.8a12.8 12.8 0 1 0 12.8 12.7 12.8 12.8 0 0 0-12.8-12.7zm-26.3-8.9a12.8 12.8 0 1 0-.3 25.5 12.8 12.8 0 0 0 .3-25.5zm-253.9 63.8a12.8 12.8 0 1 0 12.5 13 12.7 12.7 0 0 0-12.5-13zM842.7 863a12.8 12.8 0 1 0-12.7 12.7 12.6 12.6 0 0 0 12.7-12.7zM659.8 499.7a12.8 12.8 0 1 0 .8-25.5 12.8 12.8 0 0 0-.8 25.5zm-140-42.2a12.8 12.8 0 1 0 12.9 12.5 12.7 12.7 0 0 0-12.9-12.5zM257.7 660.7a12.8 12.8 0 1 0-12.4-13.1 12.7 12.7 0 0 0 12.4 13.1zm563.6 215.9a12.8 12.8 0 0 0-13 12.6 12.8 12.8 0 1 0 25.6.3 12.8 12.8 0 0 0-12.6-12.9zM322.9 577.2a12.9 12.9 0 1 0-12.6 12.9 12.7 12.7 0 0 0 12.6-12.9zm62.1-48.7l3.9-.2a12.7 12.7 0 0 0 12.3-11 12.8 12.8 0 0 0-24.3-7.4 12.7 12.7 0 0 0 4.6 16.3l3.7 2.4zm73.4-62.2a12.8 12.8 0 1 0-.3 25.6 12.8 12.8 0 0 0 .3-25.6zm-21.8 30.4a12.8 12.8 0 1 0-12.6 12.9 12.7 12.7 0 0 0 12.6-12.9zm-209 204.2a12.8 12.8 0 1 0 12.8-12.7 12.7 12.7 0 0 0-12.8 12.7zm601.6-26.5a12.8 12.8 0 1 0 12.6 12.9 12.8 12.8 0 0 0-12.6-12.9zm22.3 161.8a12.8 12.8 0 1 0-12.5 13 12.7 12.7 0 0 0 12.5-13zm-615-161.7a12.8 12.8 0 1 0 25.5-.4 12.8 12.8 0 0 0-25.5.4zm525.7-92.6a12.8 12.8 0 1 0 13-12.5 12.7 12.7 0 0 0-13 12.5zm-542.4 233a12.8 12.8 0 1 0 12.8-12.8 12.9 12.9 0 0 0-12.8 12.8zm104.3 161.6l-2.8.4c-7 .7-12 5.7-12.2 12.3a13 13 0 0 0 10.6 12.9 12.7 12.7 0 0 0 14.1-8.6c2-6.2-.7-12.4-6.8-15.6l-3-1.5a.1.1 0 0 1 .1.1zM757 535.1a12.7 12.7 0 0 0 .4 25.4 12.7 12.7 0 1 0-.4-25.4zM219.8 726.8a12.8 12.8 0 1 0 12.5-13 12.8 12.8 0 0 0-12.5 13zm614.1-4.8a12.7 12.7 0 1 0 13.4-12.1 12.9 12.9 0 0 0-13.4 12.1zM331.6 550.8a12.7 12.7 0 0 0-25.4-.3 12.7 12.7 0 0 0 12.5 13 12.9 12.9 0 0 0 12.9-12.7zm-52 70.7a12.9 12.9 0 0 0-12.3-12.8 12.8 12.8 0 1 0-.6 25.5 12.9 12.9 0 0 0 12.9-12.7zm567 175.7a12.7 12.7 0 1 0 12.7 12.8 12.9 12.9 0 0 0-12.7-12.8zM578.5 474.5l3.3-.4a12.7 12.7 0 0 0 1.1-25.2 12.7 12.7 0 0 0-14.1 8.6c-2.1 6 .5 12.2 6.3 15.3l3.5 1.8zM799.6 916a12.7 12.7 0 0 0 12.3 12.6 12.7 12.7 0 1 0 .4-25.3 12.7 12.7 0 0 0-12.7 12.7zM493.2 448.7a12.8 12.8 0 1 0 13 12.6 12.9 12.9 0 0 0-13-12.6zM674 495.1a12.7 12.7 0 1 0 12.5-13 12.8 12.8 0 0 0-12.5 13zm163.1 153a12.6 12.6 0 1 0 12.3 12.8 12.9 12.9 0 0 0-12.3-12.8zm-23-56.5a12.6 12.6 0 0 0-25.2-1.2 12.6 12.6 0 1 0 25.2 1.2zM362.2 494a12.6 12.6 0 1 0 12.5 12.6 12.9 12.9 0 0 0-12.5-12.6zm-74.8 101.1a12.7 12.7 0 1 0-12.6 12.5 12.9 12.9 0 0 0 12.6-12.5zM260 898.4a12.6 12.6 0 1 0 .3 25.2 12.8 12.8 0 0 0 12.3-12.7 12.9 12.9 0 0 0-12.6-12.5zm465.8-394.6a12.6 12.6 0 1 0-12.5 12.5 12.8 12.8 0 0 0 12.5-12.5zm-281.5-33a12.7 12.7 0 1 0-12.4 13.1 12.8 12.8 0 0 0 12.4-13.1zm-116.5 40.9c-6.7-.1-12.5 5.7-12.7 12.4a12.6 12.6 0 1 0 12.7-12.4zm492 102a12.7 12.7 0 1 0 12 13 12.8 12.8 0 0 0-12-13zM529 431.2a12.6 12.6 0 1 0 12.3 12.6 12.9 12.9 0 0 0-12.3-12.6zm-131.4 45.1a12.7 12.7 0 1 0 12.4 12.6 12.8 12.8 0 0 0-12.4-12.6zM211.1 753.1a12.6 12.6 0 1 0 12.4-12.7 12.9 12.9 0 0 0-12.4 12.7zm644.5 17.7a12.6 12.6 0 1 0 12.4 12.7 12.9 12.9 0 0 0-12.4-12.7zM555.5 439.9a12.7 12.7 0 1 0 12.4 12.7 12.9 12.9 0 0 0-12.4-12.7zm-76 13c.3-6.6-5.3-12.6-12.1-12.9s-12.9 5.6-13 12.5a13 13 0 0 0 12.4 12.7 12.8 12.8 0 0 0 12.7-12.3zm316.8 102.9a12.5 12.5 0 1 0-12.6 12.4 12.8 12.8 0 0 0 12.6-12.4zm-69.1-43.3a12.5 12.5 0 1 0 12.4-12.5 12.6 12.6 0 0 0-12.4 12.5zm-72.3-61.2a12.4 12.4 0 1 0-12.1 12.7 12.4 12.4 0 0 0 12.1-12.7zm-26.4-8.8a12.4 12.4 0 1 0-12.3 12.7 12.6 12.6 0 0 0 12.3-12.7zM842 696.1a12.5 12.5 0 1 0 12.5-12.5 12.7 12.7 0 0 0-12.5 12.5zM681.4 460.3a12.4 12.4 0 1 0-12.4 12.5 12.4 12.4 0 0 0 12.4-12.5zm-298.2 19.9a12.4 12.4 0 1 0-12.5 12.3 12.5 12.5 0 0 0 12.5-12.3zm-87.1 88.1a12.6 12.6 0 1 0-12.4 12.7 12.9 12.9 0 0 0 12.4-12.7zm122.4-105.9a12.4 12.4 0 1 0-12.4 12.4 12.5 12.5 0 0 0 12.4-12.4zm96.2-27.7a12.4 12.4 0 0 0-24.8.3 12.4 12.4 0 1 0 24.8-.3zM242.2 863.2a12.5 12.5 0 1 0 12.7 12.4 12.8 12.8 0 0 0-12.7-12.4zM696.5 457a12.4 12.4 0 0 0-13.2 11.6 12.3 12.3 0 0 0 24.5 1.4 12.4 12.4 0 0 0-11.3-13zm81.9 65.3a12.3 12.3 0 1 0-13 11.3 12.4 12.4 0 0 0 13-11.3zm-563.2 245a12.2 12.2 0 1 0 11.9 12.4 12.1 12.1 0 0 0-11.9-12.4zm61.5 191.3a12.3 12.3 0 1 0-11.3-12.9 12.2 12.2 0 0 0 11.3 12.9zm46.6-461.2a12.2 12.2 0 0 0 11.8 12.6 12.3 12.3 0 1 0 .6-24.5 12.2 12.2 0 0 0-12.4 11.9zm129.5-51.8a12.3 12.3 0 1 0-12.9 11.4 12.3 12.3 0 0 0 12.9-11.4zm-160.2 84.1a12.3 12.3 0 0 0-12.5 11.9 12.4 12.4 0 0 0 12.4 12.6 12.3 12.3 0 0 0 .1-24.5zM577.3 434a12.3 12.3 0 1 0 13-11.4 12.4 12.4 0 0 0-13 11.4zm286.9 311.7a12.2 12.2 0 1 0 12.3 12 12.2 12.2 0 0 0-12.3-12zM575.3 426.2a12.2 12.2 0 1 0-12.1 12.1 12.1 12.1 0 0 0 12.1-12.1zm-26.7-9a12 12 0 1 0-12.1 12.1 11.8 11.8 0 0 0 12.1-12.1zm161.3 60.2a12.1 12.1 0 1 0 11.9-12.4 12 12 0 0 0-11.9 12.4zm-396.7 38.3a12 12 0 0 0-24-.8c-.2 6.9 4.8 12.4 11.6 12.5a11.8 11.8 0 0 0 12.4-11.7zm-93.8 123.5a12.2 12.2 0 1 0 24.3-.4 12.2 12.2 0 0 0-24.3.4zm626.1-17.1a12.1 12.1 0 1 0 12.2 12 12 12 0 0 0-12.2-12zm-17.3-34.4a12.2 12.2 0 1 0 11.9 12.3 12 12 0 0 0-11.9-12.3zM201.9 692.1a11.8 11.8 0 0 0 11.9 12.1 12 12 0 0 0 12.2-12 11.8 11.8 0 0 0-12-12.1 11.7 11.7 0 0 0-12.1 12zM225 829.2a12.2 12.2 0 1 0 11.9 12.3 12.1 12.1 0 0 0-11.9-12.3zm35.2-243a11.7 11.7 0 0 0-11.5-12.1 12 12 0 1 0-.7 24 11.8 11.8 0 0 0 12.2-11.9zm544.2 344.1a12.2 12.2 0 1 0 12.2 12 12.1 12.1 0 0 0-12.2-12zm-6.2-365.9a12.1 12.1 0 1 0 12.2-12 11.9 11.9 0 0 0-12.2 12zM210.6 665.5a12.2 12.2 0 1 0 12.1-12 12 12 0 0 0-12.1 12zm29.8-65a12.1 12.1 0 1 0 12.1 12.2 11.9 11.9 0 0 0-12.1-12.2zm223.3-173.3a12.1 12.1 0 1 0 24.2-.2 12.1 12.1 0 0 0-24.2.2zm-257.6 367a11.8 11.8 0 1 0 11.8 11.7 11.8 11.8 0 0 0-11.8-11.7zM748.6 474a11.8 11.8 0 0 0-12.1 11.5 12 12 0 1 0 24 .7 11.8 11.8 0 0 0-11.9-12.2zm106.2 122.9a11.8 11.8 0 1 0 11.5 12 11.7 11.7 0 0 0-11.5-12zm8.4 60.7a11.6 11.6 0 0 0-11.9 11.7 11.8 11.8 0 0 0 11.8 12.2 12 12 0 1 0 .1-23.9zM583.8 399.5a11.9 11.9 0 1 0-11.6 11.9 11.8 11.8 0 0 0 11.6-11.9zM402 436.1a12 12 0 1 0 12-12.2 11.8 11.8 0 0 0-12 12.2zm-10.3 17.4a12 12 0 1 0-12.1 12.1 11.8 11.8 0 0 0 12.1-12.1zm-82.4 23.6a11.8 11.8 0 1 0 11.6 11.9 11.8 11.8 0 0 0-11.6-11.9zm539.3 96.6a11.8 11.8 0 1 0-12 11.5 11.7 11.7 0 0 0 12-11.5zm-197-160.5a11.9 11.9 0 1 0 11.7 11.9 11.7 11.7 0 0 0-11.7-11.9zm-201.9-6.9a11.9 11.9 0 1 0-.7 23.8 11.9 11.9 0 0 0 .7-23.8zm254.7 24.6a11.9 11.9 0 1 0 11.8 11.8 11.8 11.8 0 0 0-11.8-11.8zM206.1 706.7a12 12 0 1 0 11.9 11.8 11.7 11.7 0 0 0-11.9-11.8zm574.6-177.5a12 12 0 1 0 12-12 11.6 11.6 0 0 0-12 12zm-6.4-46.2a11.9 11.9 0 1 0-.3 23.7 11.9 11.9 0 0 0 .3-23.7zm-529.1 76.3a11.6 11.6 0 0 0 11.8 12.2 11.9 11.9 0 1 0-11.8-12.2zm87.2-88.2a12 12 0 0 0 23.9.3 12 12 0 0 0-23.9-.3zm540.9 248.4a11.9 11.9 0 1 0 11.7 11.9 11.6 11.6 0 0 0-11.7-11.9zM499.2 408a11.9 11.9 0 1 0 12.1-11.5 11.7 11.7 0 0 0-12.1 11.5zm99.3-11.5a11.8 11.8 0 0 0-11.9 11.7 11.9 11.9 0 1 0 11.9-11.7zm91.2 37.5a11.9 11.9 0 1 0-11.8 11.8 11.6 11.6 0 0 0 11.8-11.8zM625 404.4a11.9 11.9 0 1 0 11.8 11.8 11.8 11.8 0 0 0-11.8-11.8zm-140.3-15.6a11.8 11.8 0 1 0 11.7 11.8 11.8 11.8 0 0 0-11.7-11.8zm334.2 137.4a11.8 11.8 0 1 0 12 11.7 11.8 11.8 0 0 0-12-11.7zm-89.2-87.3a11.8 11.8 0 1 0 11.9 11.7 11.7 11.7 0 0 0-11.9-11.7zm-342.1-23.6a11.8 11.8 0 1 0 11.7 12 11.7 11.7 0 0 0-11.7-12zm-190.4 318a11.9 11.9 0 0 0-11.8 11.9 11.8 11.8 0 1 0 11.8-11.9zm68.6-212a11.8 11.8 0 1 0 11.9 11.7 11.8 11.8 0 0 0-11.9-11.7zm614.8 171.8a11.8 11.8 0 0 0 .4 23.6 11.8 11.8 0 1 0-.4-23.6zm-446-283.6a11.8 11.8 0 1 0-12 11.7 11.9 11.9 0 0 0 12-11.7zM263 506.9a11.7 11.7 0 1 0 23.4 1.3 11.7 11.7 0 0 0-23.4-1.3zm537.7-15a11.8 11.8 0 1 0 11.5 11.7 12 12 0 0 0-11.5-11.7zm-270.1-110a11.7 11.7 0 1 0-11.4 11.7 11.9 11.9 0 0 0 11.4-11.7zm341.6 249.4a11.8 11.8 0 0 0-.4 23.5 11.8 11.8 0 1 0 .4-23.5zm-4.1 240.5a11.7 11.7 0 1 0-11.5 11.7 11.8 11.8 0 0 0 11.5-11.7zM205 618.6a11.7 11.7 0 1 0 11.7 11.5 11.9 11.9 0 0 0-11.7-11.5zM352.9 433a11.8 11.8 0 0 0 .4 23.5 11.8 11.8 0 1 0-.4-23.5zm403.8 14.8a11.7 11.7 0 0 0-.7 23.4 11.7 11.7 0 1 0 .7-23.4zm108.2 385.7a11.8 11.8 0 1 0 12.1 11.6 11.9 11.9 0 0 0-12.1-11.6zm16.9-52.9a11.7 11.7 0 1 0 11.8 11.5 11.9 11.9 0 0 0-11.8-11.5zM533.7 390.8a11.8 11.8 0 1 0 11.9-11.8 11.9 11.9 0 0 0-11.9 11.8zm-215.6 59.9a11.9 11.9 0 0 0-11.9 11.8 11.7 11.7 0 1 0 11.9-11.8zM213.9 592.1a11.7 11.7 0 1 0 11.7 11.5 12 12 0 0 0-11.7-11.5zm670.9 226.5a11.8 11.8 0 1 0-11.7 11.9 11.9 11.9 0 0 0 11.7-11.9zM458.2 380.1a11.7 11.7 0 1 0 11.6 11.6 11.8 11.8 0 0 0-11.6-11.6zM222.8 565.6a11.7 11.7 0 1 0 11.6 11.6 11.9 11.9 0 0 0-11.6-11.6zm384.3-195.3a11.6 11.6 0 1 0 11.8 11.4 11.9 11.9 0 0 0-11.8-11.4zm78.6 25.5a11.7 11.7 0 0 0 .1 23.3 11.7 11.7 0 0 0-.1-23.3zm-40.3-4.9a11.7 11.7 0 1 0-23.3 0 11.7 11.7 0 0 0 23.3 0zm14.1-3.9a11.8 11.8 0 0 0-11.9 11.3 11.7 11.7 0 1 0 11.9-11.3zM196.1 668.4a11.7 11.7 0 1 0-11.5-11.6 11.8 11.8 0 0 0 11.5 11.6zm384.3-306.8a11.5 11.5 0 0 0 .5 23 11.8 11.8 0 0 0 11.4-11.7c-.2-6.3-5.7-11.6-11.9-11.3zm-88 .9a11.6 11.6 0 1 0 .1 23.1A11.7 11.7 0 0 0 504 374a11.8 11.8 0 0 0-11.6-11.5zm-60.6 8.9a11.5 11.5 0 1 0 11.3 11.7 11.7 11.7 0 0 0-11.3-11.7zM228 525a11.4 11.4 0 1 0 11.4-11.2A11.5 11.5 0 0 0 228 525zm168.6-135.9a11.6 11.6 0 0 0-11.7 10.8 11.5 11.5 0 1 0 11.7-10.8zm418.9 122.7a11.5 11.5 0 1 0 11.3-11.8 11.7 11.7 0 0 0-11.3 11.8zM712.2 404.7a11.6 11.6 0 0 0 .1 23.1 11.6 11.6 0 1 0-.1-23.1zm-349.9 2a11.9 11.9 0 0 0-11.8 10.9 11.5 11.5 0 1 0 11.8-10.9zm376.9 7a11.7 11.7 0 0 0-11.9 11.2 11.4 11.4 0 1 0 11.9-11.2zm43.6 43a11.6 11.6 0 1 0 11.6 11.6 11.8 11.8 0 0 0-11.6-11.6zm-444.6-19.8a11.8 11.8 0 0 0-11.1-11.5 11.5 11.5 0 1 0-.5 23 11.8 11.8 0 0 0 11.6-11.5zm-55.6 32.6a11.6 11.6 0 1 0 11.5 11.6 11.8 11.8 0 0 0-11.5-11.6zm24.3 511.4a11.6 11.6 0 1 0-11.7 11.4 11.8 11.8 0 0 0 11.7-11.4zm500.2-12.1a11.5 11.5 0 1 0-11.5 11.6 11.8 11.8 0 0 0 11.5-11.6zM176.8 683.3a11.6 11.6 0 1 0 11.6-11.6 11.9 11.9 0 0 0-11.6 11.6zm56.9 207.3a11.6 11.6 0 1 0 11.4 11.8 11.8 11.8 0 0 0-11.4-11.8zm625.4 7.8a11.6 11.6 0 1 0-11.7 11.4 11.9 11.9 0 0 0 11.7-11.4zm30.6-231.6a11.6 11.6 0 1 0 11.6 11.6 11.8 11.8 0 0 0-11.6-11.6zM227.4 868a11.6 11.6 0 1 0-11.7 11.4 11.8 11.8 0 0 0 11.7-11.4zm-50.6-97.2a11.6 11.6 0 1 0 11.5-11.7 11.9 11.9 0 0 0-11.5 11.7zm714-16.6a11.6 11.6 0 1 0 11.5 11.7 11.9 11.9 0 0 0-11.5-11.7zm-9.6-149.1a11.4 11.4 0 1 0 11.1 11.4 11.6 11.6 0 0 0-11.1-11.4zm-18-34.4a11.5 11.5 0 1 0 11.6 11.5 11.7 11.7 0 0 0-11.6-11.5zM554.5 352.8a11.5 11.5 0 1 0 11.2 11.5 11.6 11.6 0 0 0-11.2-11.5zM219 551.6a11.6 11.6 0 1 0 11.7-11.4 11.8 11.8 0 0 0-11.7 11.4zm625.8-16.3a11.6 11.6 0 1 0 11.4 11.7 11.8 11.8 0 0 0-11.4-11.7zM477.3 365.2a11.3 11.3 0 1 0-11.1 11.3 11.2 11.2 0 0 0 11.1-11.3zm-309 344.6a11.3 11.3 0 1 0 22.5-.3 11.3 11.3 0 0 0-22.5.3zm18.6 122.5a11.3 11.3 0 1 0 11.3-11.1 11.3 11.3 0 0 0-11.3 11.1zm341-487.1a11.2 11.2 0 1 0 11.1 11.3 11.1 11.1 0 0 0-11.1-11.3zm237.3 76.6a11.2 11.2 0 1 0 11.2 11.2 11 11 0 0 0-11.2-11.2zm33 55.2a10.9 10.9 0 0 0 11 11.3 11.2 11.2 0 1 0 .2-22.3 10.9 10.9 0 0 0-11.2 11zm-506.9-33.6a11.2 11.2 0 1 0 11.3 11.1 11.1 11.1 0 0 0-11.3-11.1zM910.7 739a10.9 10.9 0 0 0-11.4-10.9 11.2 11.2 0 1 0 .5 22.3 10.9 10.9 0 0 0 10.9-11.4zM248 487.6a11.2 11.2 0 1 0 11.4 10.9 11 11 0 0 0-11.4-10.9zm121.6-106a11.1 11.1 0 1 0 11.4 10.9 11 11 0 0 0-11.4-10.9zm24.5-7.3a10.8 10.8 0 0 0 10.9 10.8 11.1 11.1 0 1 0 .1-22.1 10.9 10.9 0 0 0-11 11.3zm466 181.6a11 11 0 1 0 10.9-11.2 10.8 10.8 0 0 0-10.9 11.2zm-234-200.7a11 11 0 1 0-10.9 11.2 10.8 10.8 0 0 0 10.9-11.2zm15.5-2a11.1 11.1 0 1 0 11.1 11.2 10.9 10.9 0 0 0-11.1-11.2zm-306.2 46.1a11.1 11.1 0 0 0 0 22.2 11.1 11.1 0 1 0 0-22.2zm348.1-18a11.1 11.1 0 1 0 10.9-11.4 11 11 0 0 0-10.9 11.4zm44.7 649.4a11 11 0 0 0-10.9-11 11.1 11.1 0 1 0-.2 22.2 11 11 0 0 0 11.1-11.2zm-466-93.4a11.1 11.1 0 1 0-10.9 11.3 10.8 10.8 0 0 0 10.9-11.3zm239.2-600.8a11.1 11.1 0 1 0 10.9 11.2 10.9 10.9 0 0 0-10.9-11.2zm177.7 35.7a11.1 11.1 0 1 0-11.3 11 10.9 10.9 0 0 0 11.3-11zm208.4 279.7a11.1 11.1 0 0 0 22.2.2 11.1 11.1 0 1 0-22.2-.2zm-680.4-82.2a10.9 10.9 0 1 0-11 10.6 10.7 10.7 0 0 0 11-10.6zm463.7 478.7a11 11 0 1 0 22 .2 11 11 0 0 0-22-.2zM178.7 610.5a11 11 0 1 0 10.8 10.9 10.8 10.8 0 0 0-10.8-10.9zm674.9-101.1a11 11 0 1 0 10.8 10.8 10.7 10.7 0 0 0-10.8-10.8zm-3.9 415.5a11 11 0 1 0-21.9-.2 11 11 0 0 0 21.9.2zM589.6 335.6a10.8 10.8 0 0 0-11 11.2 11 11 0 0 0 22-.4 10.8 10.8 0 0 0-11-10.8zM191.5 797.2a11 11 0 1 0-10.7 10.9 10.7 10.7 0 0 0 10.7-10.9zm716.1-95.4a11 11 0 1 0 10.7 10.9 10.7 10.7 0 0 0-10.7-10.9zm-725.9 34.6a11 11 0 1 0-10.8 10.8 10.7 10.7 0 0 0 10.8-10.8zM268 472.5a11 11 0 1 0-11 10.7 10.7 10.7 0 0 0 11-10.7zm464-82.3a11 11 0 1 0-11.1 10.5 10.8 10.8 0 0 0 11.1-10.5zm-179.8-52.8a10.9 10.9 0 1 0 21.8.4 10.8 10.8 0 0 0-10.7-11 10.9 10.9 0 0 0-11.1 10.6zm-77.4-9.5a10.9 10.9 0 1 0 10.9 10.8 10.7 10.7 0 0 0-10.9-10.8zm283.6 70.9a10.9 10.9 0 1 0-11 10.7 10.8 10.8 0 0 0 11-10.7zm-457.7 18.3a11 11 0 1 0 10.5 11.1 10.8 10.8 0 0 0-10.5-11.1zm225.1-87.2a10.8 10.8 0 0 0 21.6.2 10.8 10.8 0 1 0-21.6-.2zm-182.3 43.2a10.8 10.8 0 1 0 10.7 11 10.7 10.7 0 0 0-10.7-11zM193.2 542.9A10.9 10.9 0 1 0 204 532a10.8 10.8 0 0 0-10.8 10.9zm706.5 47.3a11 11 0 1 0-10.9 10.8 10.7 10.7 0 0 0 10.9-10.8zM836 474.1a10.9 10.9 0 1 0 10.7 11 10.8 10.8 0 0 0-10.7-11zm-446.5-108a10.8 10.8 0 1 0-10.8 10.9 10.8 10.8 0 0 0 10.8-10.9zm402.4 64.8a10.9 10.9 0 1 0 10.7 10.9 10.7 10.7 0 0 0-10.7-10.9zm-622 206.2a10.9 10.9 0 1 0 10.7 10.9 10.9 10.9 0 0 0-10.7-10.9zm28.5-40.7a11 11 0 1 0-11.2 10.5 10.9 10.9 0 0 0 11.2-10.5zm253.1-239.9a11 11 0 1 0-10.9 10.9 10.9 10.9 0 0 0 10.9-10.9zm-37.4 1.9a10.9 10.9 0 0 0 10.7-10.6 10.8 10.8 0 1 0-21.6-.2 10.8 10.8 0 0 0 10.9 10.8zm404 81.4a10.8 10.8 0 0 0-10.7 10.6 10.8 10.8 0 1 0 10.7-10.6zm-594.4 76.5a10.8 10.8 0 1 0-10.8 10.9 10.8 10.8 0 0 0 10.8-10.9zm681.8 170.6a10.8 10.8 0 1 0 10.8-10.5 10.8 10.8 0 0 0-10.8 10.5zm-8.9-61.5a10.9 10.9 0 0 0 10.5 10.8 10.8 10.8 0 1 0-10.5-10.8zM264.8 434.9a11 11 0 0 0-10.7 10.6 10.8 10.8 0 1 0 10.7-10.6zm44.3-44.1a10.9 10.9 0 0 0-10.8 11 10.8 10.8 0 1 0 10.8-11zm465.4 4.9a10.8 10.8 0 1 0 10.3 11 10.9 10.9 0 0 0-10.3-11zM162 663.7a10.8 10.8 0 1 0 10.7 10.6 10.8 10.8 0 0 0-10.7-10.6zm541.7-320a10.8 10.8 0 1 0 10.4 10.9 10.8 10.8 0 0 0-10.4-10.9zm47.9 658.7a10.7 10.7 0 1 0-.1 21.4 10.7 10.7 0 0 0 .1-21.4zm-64-655.7a10.7 10.7 0 1 0-10.6 10.6 10.8 10.8 0 0 0 10.6-10.6zm-403.2 72.7a10.7 10.7 0 1 0-10.8 10.5 10.9 10.9 0 0 0 10.8-10.5zm526.7-4.2a10.6 10.6 0 1 0-21.2.2 10.6 10.6 0 1 0 21.2-.2zm-171.4-77.7a10.8 10.8 0 0 0 10.7 11 10.8 10.8 0 1 0 0-21.5 10.8 10.8 0 0 0-10.7 10.5zm270.5 490.2a10.9 10.9 0 0 0-10.5-10.8 11.1 11.1 0 0 0-10.8 10.6 10.7 10.7 0 0 0 21.3.2zM448.5 319.1a10.9 10.9 0 0 0-10.9 10.9 10.8 10.8 0 0 0 21.5-.2 11 11 0 0 0-10.6-10.7zm175.7-.9a10.8 10.8 0 0 0-11 10.6 10.8 10.8 0 1 0 21.5.2 10.8 10.8 0 0 0-10.5-10.8zm284.1 472.2a10.9 10.9 0 0 0-10.5 10.8 10.6 10.6 0 1 0 21.2-.2 10.9 10.9 0 0 0-10.7-10.6zM520.9 321.7a10.8 10.8 0 1 0-11.1 10.1 10.9 10.9 0 0 0 11.1-10.1zm87.2-1.4a10.7 10.7 0 1 0-10.8 10.5 10.9 10.9 0 0 0 10.8-10.5zM151.3 762.7a10.9 10.9 0 0 0 10.5 10.8 11.1 11.1 0 0 0 10.8-10.6 10.9 10.9 0 0 0-10.6-10.7 10.7 10.7 0 0 0-10.7 10.5zm567.9-399.6a10.7 10.7 0 1 0 10.8-10.5 10.9 10.9 0 0 0-10.8 10.5zM873 493.8a10.9 10.9 0 0 0-10.6-10.7 11.1 11.1 0 0 0-10.8 11 10.7 10.7 0 0 0 21.4-.3zm6.9 24.6a10.8 10.8 0 1 0 10.8 10.6 11 11 0 0 0-10.8-10.6zm-657.8-39.2a10.7 10.7 0 1 0 10.4 10.8 10.8 10.8 0 0 0-10.4-10.8zm675.6 73.6a10.7 10.7 0 1 0 10.6 10.7 11 11 0 0 0-10.6-10.7zM570.9 301.6a10.7 10.7 0 1 0 .1 21.3 11 11 0 0 0 10.6-10.7 10.8 10.8 0 0 0-10.7-10.6zm-183.2 27.5a10.6 10.6 0 1 0 10.4 10.8 10.8 10.8 0 0 0-10.4-10.8zm358.1 43.2a10.6 10.6 0 1 0 10.4-10.8c-5.6.1-10.6 5.2-10.4 10.8zm-515.2 80.5a10.6 10.6 0 1 0 10.6 10.7 10.9 10.9 0 0 0-10.6-10.7zm613.9-3.9a10.6 10.6 0 1 0 10.7 10.4 10.9 10.9 0 0 0-10.7-10.4zm-538.1-73.6a10.6 10.6 0 1 0 10.4-10.8 10.8 10.8 0 0 0-10.4 10.8zm46-28.5a10.6 10.6 0 1 0 10.4 10.7 10.9 10.9 0 0 0-10.4-10.7zm-188.8 354a10.8 10.8 0 0 0-10.3-10.4 10.6 10.6 0 1 0-.2 21.1 10.7 10.7 0 0 0 10.5-10.7zm319.9-399.2a10.6 10.6 0 1 0 10.8 10.5 10.9 10.9 0 0 0-10.8-10.5zm444.3 473.1a11 11 0 0 0-10.1-10.7 10.6 10.6 0 1 0 10.1 10.7zm-23-175.9a10.7 10.7 0 0 0 10.7 10.6 10.9 10.9 0 0 0 10.3-10.5 10.5 10.5 0 0 0-21-.1zM189.6 848.5a10.7 10.7 0 0 0-10.7 10.5 10.5 10.5 0 1 0 10.7-10.5zm232.3-537a10.7 10.7 0 0 0-10.5 10.7 10.5 10.5 0 0 0 21-.3 10.9 10.9 0 0 0-10.5-10.4zm133.1-7.7a10.5 10.5 0 1 0-10.7 10.1 10.8 10.8 0 0 0 10.7-10.1zm370.5 346.4a10.5 10.5 0 1 0 10.1 10.7 10.7 10.7 0 0 0-10.1-10.7zm-34.6 193.4a10.5 10.5 0 1 0-.3 21 10.5 10.5 0 0 0 .3-21zM508.7 294.4a10.3 10.3 0 1 0 10.4-10.1 10.2 10.2 0 0 0-10.4 10.1zm-270 132.1a10.4 10.4 0 1 0 10.1 10.6 10.5 10.5 0 0 0-10.1-10.6zm598.6-1.9a10.4 10.4 0 1 0-10.7 9.9 10.4 10.4 0 0 0 10.7-9.9zm-669 109.3a10.3 10.3 0 1 0 10.4-10.1 10.4 10.4 0 0 0-10.4 10.1zm614.4-142.6a10.4 10.4 0 1 0-10.2-10.4 10.4 10.4 0 0 0 10.2 10.4zm-586 503A10.4 10.4 0 1 0 207 884a10.5 10.5 0 0 0-10.3 10.3zm-35.8-317.6a10.4 10.4 0 1 0 10.4 10.2 10.5 10.5 0 0 0-10.4-10.2zm132-183.8a10.3 10.3 0 0 0-10-10.5 10.4 10.4 0 1 0 10 10.5zm164.4-99.8a10.3 10.3 0 0 0-.3 20.6 10.3 10.3 0 1 0 .3-20.6zm467.3 465.3a10.4 10.4 0 1 0 .7-20.7 10.4 10.4 0 0 0-.7 20.7zM169.7 550.2a10.6 10.6 0 0 0-10.3 10.3 10.4 10.4 0 1 0 10.3-10.3zm-8.2 273.6a10.3 10.3 0 1 0 10.1-10.4 10.3 10.3 0 0 0-10.1 10.4zm97.4 148.8a10 10 0 1 0 10.1-9.7 9.7 9.7 0 0 0-10.1 9.7zm70.7 52.1a9.9 9.9 0 1 0 10.1-9.7 9.7 9.7 0 0 0-10.1 9.7zm223.9-757.8a10 10 0 1 0 9.7 10.1 9.7 9.7 0 0 0-9.7-10.1zM475.9 278a9.9 9.9 0 1 0-10.1 9.7 9.8 9.8 0 0 0 10.1-9.7zm26.6 8.1a10 10 0 0 0-20-.8 10 10 0 0 0 20 .8zm77.7-10.4a10 10 0 1 0 9.6 10.1 9.7 9.7 0 0 0-9.6-10.1zm25.9 7.7a10.2 10.2 0 0 0 .1 20.3 10.2 10.2 0 1 0-.1-20.3zm-175.2 2.2a10 10 0 1 0 9.8 10 9.7 9.7 0 0 0-9.8-10zM643 302.3a10.2 10.2 0 1 0-20.4.2 10 10 0 0 0 10.3 10.1 10.1 10.1 0 0 0 10.1-10.3zm26.4 9.2a10.2 10.2 0 1 0-20.3-.5 10.2 10.2 0 0 0 20.3.5zm-272.8-8.4a10.1 10.1 0 1 0 9.8 10.1 9.9 9.9 0 0 0-9.8-10.1zm289.1 6.8a10.2 10.2 0 1 0 10.2 10.1 10.1 10.1 0 0 0-10.2-10.1zm36.6 18.1a9.9 9.9 0 0 0-9.6-10.2 10.2 10.2 0 1 0-.7 20.3 9.9 9.9 0 0 0 10.3-10.1zm-361.4-7.3a10.2 10.2 0 1 0 10.3 10.1 10 10 0 0 0-10.3-10.1zm387.8 16.2a10 10 0 1 0-9.9 9.9 9.9 9.9 0 0 0 9.9-9.9zm5.6 8.8a9.9 9.9 0 1 0 9.7-10 9.7 9.7 0 0 0-9.7 10zm-438.6 2.4a10.1 10.1 0 1 0 10.2-9.6 9.9 9.9 0 0 0-10.2 9.6zm-14.3 18.2a10 10 0 1 0-9.9 9.9 9.8 9.8 0 0 0 9.9-9.9zm507.2 12.5a10 10 0 1 0 9.8 10 9.8 9.8 0 0 0-9.8-10zm-561.3 21.6a10 10 0 1 0 10 9.8 9.8 9.8 0 0 0-10-9.8zM853.6 423a10 10 0 1 0 9.8 10 9.7 9.7 0 0 0-9.8-10zm-649.5 21.7a9.6 9.6 0 0 0-9.9 9.8 9.9 9.9 0 0 0 9.9 10 9.9 9.9 0 0 0 0-19.8zm666.7 12.5a9.9 9.9 0 0 0-9.8 10 10.1 10.1 0 1 0 20.2 0 9.9 9.9 0 0 0-10.4-10zm-665.5 24a10 10 0 1 0-20 .2 9.7 9.7 0 0 0 10.1 9.7 9.9 9.9 0 0 0 9.9-9.9zm683.1 31.7a10.2 10.2 0 1 0-9.8-10.6 10.1 10.1 0 0 0 9.8 10.6zm-702.2-15.5a10.1 10.1 0 0 0-10 10.4 10.3 10.3 0 0 0 10.5 10 10.1 10.1 0 0 0 9.9-10.5 10 10 0 0 0-10.4-9.9zm730.3 41.2a10.1 10.1 0 1 0-10.8 9.5 10 10 0 0 0 10.8-9.5zm7.9 23.8a10 10 0 1 0 9.7 10.2 9.7 9.7 0 0 0-9.7-10.2zm-782.5 51.1a10.2 10.2 0 1 0 10.3-10.1 10.1 10.1 0 0 0-10.3 10.1zM934 624.2a10 10 0 1 0 9.9 9.9 9.7 9.7 0 0 0-9.9-9.9zM144.3 630a10.1 10.1 0 1 0 10 9.9 9.9 9.9 0 0 0-10-9.9zm-8.8 26.7a9.9 9.9 0 1 0 9.8 10 9.9 9.9 0 0 0-9.8-10zM952.6 695a9.9 9.9 0 1 0-19.7.1 9.6 9.6 0 0 0 9.9 9.8 9.7 9.7 0 0 0 9.8-9.9zm-18.3 16.5a10.1 10.1 0 0 0-.8 20.2 10.1 10.1 0 0 0 .8-20.2zm-800 15.5a10 10 0 1 0 10.2-9.6 9.8 9.8 0 0 0-10.2 9.6zm29.7 62.4a9.7 9.7 0 0 0-9.7-10 9.9 9.9 0 1 0-.2 19.8 9.6 9.6 0 0 0 9.9-9.8zm719.3 81.1a10.1 10.1 0 1 0 9.7 10.3 9.9 9.9 0 0 0-9.7-10.3zm-53 90.8a9.8 9.8 0 0 0 10.6-9.6 10 10 0 1 0-10.6 9.6zM369.9 294.5a9.9 9.9 0 0 0-9.9 9.4 9.9 9.9 0 1 0 9.9-9.4zm571.9 303.4a9.9 9.9 0 0 0-9.8 10 9.8 9.8 0 0 0 9.7 9.6 9.8 9.8 0 0 0 .1-19.6zM719.6 311.2a10 10 0 0 0 10.2-9.1 9.8 9.8 0 1 0-19.5-1.1 10 10 0 0 0 9.3 10.2zm-385.3 1a9.9 9.9 0 1 0 10.1 9.7 9.8 9.8 0 0 0-10.1-9.7zm-99.8 616.5a9.8 9.8 0 0 0-19.6-.2 9.8 9.8 0 1 0 19.6.2zm556.1-584.1a9.9 9.9 0 0 0-.1 19.7 9.9 9.9 0 1 0 .1-19.7zm-501.1-5.2a9.8 9.8 0 1 0 9.8-9.5 9.9 9.9 0 0 0-9.8 9.5zm378.8-64.5a9.9 9.9 0 0 0-.5 19.7 9.9 9.9 0 0 0 .5-19.7zm-36.5.7a9.8 9.8 0 1 0 9.9-9.5 9.9 9.9 0 0 0-9.9 9.5zm61.9 8.2a9.8 9.8 0 0 0-9.9 9.8 9.8 9.8 0 1 0 9.9-9.8zm-289.3-6.9a9.8 9.8 0 1 0 9.6 9.8 9.8 9.8 0 0 0-9.6-9.8zm511.2 224.8a9.8 9.8 0 0 0-.7 19.6 10 10 0 0 0 10.2-9.7 9.9 9.9 0 0 0-9.5-9.9zm-80.7-113.9a9.7 9.7 0 0 0-9.9 9.4 9.9 9.9 0 1 0 19.7.6 9.7 9.7 0 0 0-9.8-10zm-210-120.7a9.8 9.8 0 1 0-19.6.1 9.8 9.8 0 0 0 19.6-.1zm-88.2 1.1a9.9 9.9 0 1 0-10.1 9.7 9.8 9.8 0 0 0 10.1-9.7zM256.1 374a9.9 9.9 0 1 0 9.8 10 9.8 9.8 0 0 0-9.8-10zm623.1 57.1a9.8 9.8 0 1 0 9.5 9.8 9.8 9.8 0 0 0-9.5-9.8zm-656.5-2.8a9.8 9.8 0 0 0-9.8-10.1 9.9 9.9 0 1 0 9.8 10.1zm684.7 48.2a9.8 9.8 0 0 0-19.6-.7 9.8 9.8 0 1 0 19.6.7zm53.8 192.4a9.7 9.7 0 1 0-19.3-.7c-.3 5.1 4.1 9.8 9.3 10.1a10 10 0 0 0 10-9.4zm-835.4 85.3a9.7 9.7 0 1 0 19.3-.5 9.7 9.7 0 0 0-19.3.5zm660.8 231.6a9.7 9.7 0 1 0 9.8 9.5 9.9 9.9 0 0 0-9.8-9.5zM152.2 515.6a9.7 9.7 0 1 0 9.6 9.7 9.9 9.9 0 0 0-9.6-9.7zm122.4-157.1a9.7 9.7 0 1 0-9.8 9.5 9.8 9.8 0 0 0 9.8-9.5zm155.2-89.8a9.7 9.7 0 1 0 19.4.4 9.8 9.8 0 0 0-9.5-9.8 10 10 0 0 0-9.9 9.4zm431.6 128.1a9.9 9.9 0 0 0-9.8 9.6 9.7 9.7 0 1 0 19.4.1 9.9 9.9 0 0 0-9.6-9.7zm-114.8-96.2a9.7 9.7 0 1 0-.1 19.3 9.8 9.8 0 0 0 9.7-9.6 9.9 9.9 0 0 0-9.6-9.7zm186.3 235.6a9.7 9.7 0 1 0 9.7 9.6 9.9 9.9 0 0 0-9.7-9.6zm-712-143.4a10 10 0 0 0-9.8 9.6 9.8 9.8 0 0 0 9.6 9.8 9.7 9.7 0 0 0 .2-19.4zM153 551.6a9.7 9.7 0 1 0-9.6 9.8 9.9 9.9 0 0 0 9.6-9.8zm654.5-189.1a9.7 9.7 0 1 0 9.4-9.9 10 10 0 0 0-9.4 9.9zM589 249.5a10 10 0 0 0-10.1 9.3 9.7 9.7 0 1 0 10.1-9.3zm-98.4 9.6a9.8 9.8 0 0 0 9.5 9.8 9.7 9.7 0 1 0-9.5-9.8zm383.8 637.3a10 10 0 0 0-10.1 9.3 10.1 10.1 0 0 0 9.7 10.2 9.8 9.8 0 0 0 .4-19.5zM159.6 489.1a9.7 9.7 0 0 0 .4 19.3 10 10 0 0 0 9.6-9.9 9.8 9.8 0 0 0-10-9.4zm218.6-220.8a9.6 9.6 0 1 0 9.1 9.8 9.9 9.9 0 0 0-9.1-9.8zM960 581.1a9.5 9.5 0 1 0-9.2 9.6 9.7 9.7 0 0 0 9.2-9.6zM772.9 309.5a9.6 9.6 0 0 0 0 19.2 9.6 9.6 0 1 0 0-19.2zm-359.6-58.8a9.5 9.5 0 1 0 9.2 9.7 9.6 9.6 0 0 0-9.2-9.7zm-104.7 53a9.5 9.5 0 1 0 9 9.7 9.7 9.7 0 0 0-9-9.7zm227.1-71.6a9.5 9.5 0 1 0 9.4 9.4 9.6 9.6 0 0 0-9.4-9.4zM178.4 473.2a9.6 9.6 0 0 0-19.2-.2 9.6 9.6 0 1 0 19.2.2zm-53.6 105.2a9.9 9.9 0 0 0 9.4 9.5 9.7 9.7 0 1 0 .2-19.3 9.8 9.8 0 0 0-9.6 9.8zm1.8 104.1a9.9 9.9 0 0 0-9.6 9.3c-.3 5.1 4.2 9.8 9.4 10a9.7 9.7 0 1 0 .2-19.3zM353 295.6a9.6 9.6 0 0 0-19.2-.4 9.6 9.6 0 1 0 19.2.4zm112.2-44a9.6 9.6 0 0 0 19.2-.2 9.6 9.6 0 1 0-19.2.2zM125.9 595.2a9.6 9.6 0 1 0 9.3 9.6 9.9 9.9 0 0 0-9.3-9.6zm445.9-344.8a9.7 9.7 0 0 0-19.3-.3 9.8 9.8 0 0 0 9.4 9.9 10 10 0 0 0 9.9-9.6zm104-1.5a9.3 9.3 0 1 0 .2 18.6 9.3 9.3 0 1 0-.2-18.6zM853 371.3a9.4 9.4 0 1 0-9.5 9.2 9.5 9.5 0 0 0 9.5-9.2zm-623.3-4.7a9.6 9.6 0 0 0-9.5 9.3 9.4 9.4 0 1 0 9.5-9.3zm-52 70.7a9.4 9.4 0 1 0 9.3 9.5 9.5 9.5 0 0 0-9.3-9.5zm471.6-197.2a9.3 9.3 0 1 0 9.4 9.2 9.2 9.2 0 0 0-9.4-9.2zm283.1 245a9.3 9.3 0 1 0-9.4 9.2 9.2 9.2 0 0 0 9.4-9.2zm-26.8-44.8a9.4 9.4 0 1 0 9.2 9.5 9.3 9.3 0 0 0-9.2-9.5zM790.1 327.8a9.4 9.4 0 1 0 9.5-9.3 9.5 9.5 0 0 0-9.5 9.3zm-508 4.2a9.3 9.3 0 1 0-9.5 9.2 9.4 9.4 0 0 0 9.5-9.2zm686.6 311.2a9.3 9.3 0 1 0-18.6-.3 9.2 9.2 0 0 0 9.2 9.4 9.3 9.3 0 0 0 9.4-9.1zm-17 104.6a9.1 9.1 0 1 0 8.9 9 8.9 8.9 0 0 0-8.9-9zm-.8-228.1a9.2 9.2 0 1 0-9.2 8.8 9 9 0 0 0 9.2-8.8zM238.7 340.5a9 9 0 1 0-.2 18 9 9 0 0 0 .2-18zm649.5 64.7a9.2 9.2 0 0 0-.8 18.3 9 9 0 0 0 9.5-9.1 8.9 8.9 0 0 0-8.7-9.2zm-701.6 5.9a9.1 9.1 0 1 0 9 9 9 9 0 0 0-9-9zm542.7-144.3a8.8 8.8 0 0 0-9.5 8.9 9.1 9.1 0 1 0 9.5-8.9zm-131.6-43.2a9.1 9.1 0 1 0 8.8 9.1 8.9 8.9 0 0 0-8.8-9.1zM153.8 849.7a9.1 9.1 0 1 0 9.3-8.7 8.9 8.9 0 0 0-9.3 8.7zm154.1-562.3a8.8 8.8 0 0 0 8.7 9.3 9 9 0 1 0-8.7-9.3zM145.4 806.7a9.1 9.1 0 1 0 8.9 9 8.9 8.9 0 0 0-8.9-9zm241.4-564.4a9.1 9.1 0 1 0 8.8 9.2 8.9 8.9 0 0 0-8.8-9.2zm548.5 558.5a9 9 0 0 0-9.5 9 8.8 8.8 0 0 0 8.7 9.2 8.9 8.9 0 0 0 9.5-8.9 9 9 0 0 0-8.7-9.3zm-56.1-420.6a9.1 9.1 0 1 0-18.1-.2 9.1 9.1 0 0 0 18.1.2zm64.9 394.1a8.9 8.9 0 0 0-9.5 9 9.1 9.1 0 1 0 18.2.2 8.8 8.8 0 0 0-8.7-9.2zM117.6 622.1a9 9 0 0 0-9 9.5 9.2 9.2 0 1 0 9-9.5zm594-355.3a9.2 9.2 0 0 0-18.4.3 9.2 9.2 0 1 0 18.4-.3zm-360-6.8a8.9 8.9 0 0 0-9.4 8.5c-.2 5.4 3.6 9.5 8.9 9.5a9 9 0 0 0 .5-18zm157.9-36.4a9.1 9.1 0 1 0 8.8 9.2 9 9 0 0 0-8.8-9.2zm-382.7 495a9 9 0 1 0-8.9 9.1 8.8 8.8 0 0 0 8.9-9.1zm496.8-467.9a9.2 9.2 0 0 0 .9-18.4 9.2 9.2 0 0 0-9.8 8.8 9 9 0 0 0 8.9 9.6zm131.3 42.1a9.1 9.1 0 1 0 .8-18.1 9.1 9.1 0 0 0-.8 18.1zm70.6 52a9 9 0 1 0-8.5-9.4 8.8 8.8 0 0 0 8.5 9.4zM448 233.3a9.2 9.2 0 0 0 .5 18.4 9.2 9.2 0 1 0-.5-18.4zm-35.1.4a8.9 8.9 0 0 0 9 8.9 8.9 8.9 0 1 0-9-8.9zM935 836.6a9 9 0 1 0-9.1 8.8 8.8 8.8 0 0 0 9.1-8.8zm-817.1-179a9 9 0 0 0-17.9.3 8.8 8.8 0 0 0 9.1 8.8 8.9 8.9 0 0 0 8.8-9.1zm850.5-50a9 9 0 1 0-.3 17.9 9 9 0 0 0 .3-17.9zm-695.7-302a8.9 8.9 0 1 0 8.7-9.2 8.7 8.7 0 0 0-8.7 9.2zm-87.3 88a8.7 8.7 0 0 0 8.7 9 8.9 8.9 0 1 0-8.7-9zm766 336.8a9 9 0 0 0 18 .1 9 9 0 1 0-18-.1zm7.6-166.8a8.9 8.9 0 1 0-8.5-9.3 8.7 8.7 0 0 0 8.5 9.3zM579.9 223.7a9 9 0 1 0-8.8 9.1 8.7 8.7 0 0 0 8.8-9.1zm-97.2-7.8a9 9 0 1 0 8.9 9 8.8 8.8 0 0 0-8.9-9zm299.2 67.8a8.7 8.7 0 0 0-9 8.9 9 9 0 1 0 9-8.9zM180.7 876.5a8.9 8.9 0 0 0-9.1 8.9 9 9 0 1 0 9.1-8.9zm275.6-669.3a8.8 8.8 0 1 0 8.7 8.8 8.9 8.9 0 0 0-8.7-8.8zm210.8 15.6a8.9 8.9 0 0 0-8.8-8.7 8.8 8.8 0 1 0 .1 17.6 8.9 8.9 0 0 0 8.7-8.9zm293.3 480.9a8.8 8.8 0 1 0 8.8-8.6 8.8 8.8 0 0 0-8.8 8.6zM142.3 491.5a8.9 8.9 0 1 0-17.7-.8 8.9 8.9 0 0 0 17.7.8zm61.2-133.1a8.8 8.8 0 1 0-.5 17.6 8.8 8.8 0 0 0 8.9-8.6 8.9 8.9 0 0 0-8.4-9zm-95.2 202.2a9.1 9.1 0 0 0-9.1 8.4 8.8 8.8 0 1 0 9.1-8.4zm814.8-137.4a8.8 8.8 0 1 0-8.7 8.8 8.9 8.9 0 0 0 8.7-8.8zm-780.8 32.4a8.8 8.8 0 1 0 8.8 8.7 8.8 8.8 0 0 0-8.8-8.7zm-26.1 96.1a8.8 8.8 0 1 0-8.2-9.2 8.8 8.8 0 0 0 8.2 9.2zm26.2-113.9a8.8 8.8 0 1 0 17.5-.1 8.8 8.8 0 0 0-17.5.1zm710.1-102a8.8 8.8 0 0 0-8.8 9 8.8 8.8 0 1 0 17.6-.4 8.8 8.8 0 0 0-8.8-8.6zm43.6 61.8a8.8 8.8 0 1 0 .8-17.6 8.8 8.8 0 0 0-.8 17.6zM535.6 215.1a8.7 8.7 0 0 0 8.6 8.8 8.9 8.9 0 1 0-8.6-8.8zM134.5 517.5a8.9 8.9 0 1 0-8.7 8.8 8.8 8.8 0 0 0 8.7-8.8zm577-285.7a8.8 8.8 0 1 0 8.5 8.9 9 9 0 0 0-8.5-8.9zM949.9 485a9 9 0 0 0-9.1 8.4 8.8 8.8 0 1 0 9.1-8.4zM874 932.9a8.8 8.8 0 1 0-8.9 8.5 8.8 8.8 0 0 0 8.9-8.5zM360.1 234.7a8.8 8.8 0 1 0 8.7 8.7 8.9 8.9 0 0 0-8.7-8.7zM729 249.2a8.7 8.7 0 1 0 17.4.3 8.8 8.8 0 0 0-8.5-8.8 8.8 8.8 0 0 0-8.9 8.5zm-44.1-26.3a8.8 8.8 0 1 0-.1 17.6 8.8 8.8 0 0 0 .1-17.6zm-79.5-25.4a8.7 8.7 0 1 0 8.6 8.9 8.9 8.9 0 0 0-8.6-8.9zm317.7 260.7a8.9 8.9 0 1 0 8.9-8.5 8.8 8.8 0 0 0-8.9 8.5zM799.5 301.3a8.9 8.9 0 0 0 8.6 8.9 8.8 8.8 0 1 0 .2-17.6 9 9 0 0 0-8.8 8.7zm117.6 551.9a8.8 8.8 0 1 0 .5 17.5 8.8 8.8 0 0 0-.5-17.5zM518.2 198.4a8.8 8.8 0 1 0 8.6 8.9 8.8 8.8 0 0 0-8.6-8.9zm-183.7 62.9a9 9 0 0 0-8.5-8.9 8.8 8.8 0 1 0 8.5 8.9zm61-45.2a8.8 8.8 0 1 0 8.6 8.9 9 9 0 0 0-8.6-8.9zm236.5-9.8a8.8 8.8 0 1 0 8.5 8.8 8.8 8.8 0 0 0-8.5-8.8zM128.1 771.6a8.9 8.9 0 1 0-1 17.7 8.9 8.9 0 0 0 1-17.7zm128-448.5a8.8 8.8 0 0 0-9-8.9 8.9 8.9 0 0 0-8.7 8.7 9 9 0 0 0 9 9 8.9 8.9 0 0 0 8.7-8.8zm34.3-53a8.8 8.8 0 1 0 8.8 8.8 9 9 0 0 0-8.8-8.8zm-139.1 141a8.7 8.7 0 1 0 8.7-8.4 8.9 8.9 0 0 0-8.7 8.4zm728-66.3a8.7 8.7 0 1 0 8.3 8.7 8.9 8.9 0 0 0-8.3-8.7zm-44.4-43.2a8.9 8.9 0 0 0-8.7 8.9 8.8 8.8 0 0 0 8.6 8.4 8.7 8.7 0 1 0 .1-17.3zM978 668.7a8.8 8.8 0 0 0-8.6 8.4 8.7 8.7 0 1 0 8.6-8.4zM764.4 248.6a8.7 8.7 0 1 0 8.4 8.6 8.8 8.8 0 0 0-8.4-8.6zm212.5 332.7a8.9 8.9 0 0 0-8.5 8.5 8.7 8.7 0 1 0 8.5-8.5zM91.5 595.6a8.9 8.9 0 0 0 8.6 9 9.1 9.1 0 0 0 8.7-8.4 8.7 8.7 0 0 0-17.3-.6zM304.3 1016a8.9 8.9 0 0 0 8.2 8.8 9.2 9.2 0 0 0 9.2-8.4 8.7 8.7 0 1 0-17.4-.4zM99.5 692.9a8.9 8.9 0 0 0 9.3-8.3 8.7 8.7 0 1 0-9.3 8.3zm470.7-495.6a8.6 8.6 0 1 0 8.4-8.6 8.8 8.8 0 0 0-8.4 8.6zM203.3 340.5a8.7 8.7 0 0 0 17.3.4 8.7 8.7 0 1 0-17.3-.4zm296.8-142.1a8.6 8.6 0 1 0-8.4 8.6 8.8 8.8 0 0 0 8.4-8.6zM251 964.3a8.9 8.9 0 0 0-8.6-8.9 8.7 8.7 0 1 0 8.6 8.9zM959.7 528a8.6 8.6 0 1 0 8.5-8.4 8.8 8.8 0 0 0-8.5 8.4zM255.3 287.9a8.6 8.6 0 1 0 8.4 8.6 8.9 8.9 0 0 0-8.4-8.6zm-153.9 457a8.7 8.7 0 0 0 8.5 8.8 8.9 8.9 0 0 0 8.6-8.3 8.6 8.6 0 0 0-17.1-.5zm320.7-538.1a8.6 8.6 0 1 0 8.7-8.2 8.9 8.9 0 0 0-8.7 8.2zM830.6 977a8.7 8.7 0 0 0-8.2-8.7 8.5 8.5 0 1 0 8.2 8.7zM368.8 208.7a8.3 8.3 0 0 0 0 16.6 8.3 8.3 0 1 0 0-16.6zm625.4 442a8.3 8.3 0 1 0-8.2 8.5 8.3 8.3 0 0 0 8.2-8.5zM307.6 252.4a8.4 8.4 0 1 0-8.5 8.3 8.4 8.4 0 0 0 8.5-8.3zm245.8-72.3a8.5 8.5 0 1 0 8.3 8.6 8.5 8.5 0 0 0-8.3-8.6zM325.3 235a8.3 8.3 0 0 0 8.2 8 8.4 8.4 0 1 0-8.2-8zM465 181.2a8.3 8.3 0 0 0-.2 16.6 8.3 8.3 0 1 0 .2-16.6zM176.2 384.7a8.4 8.4 0 1 0-8.3 8.6 8.5 8.5 0 0 0 8.3-8.6zM91.1 614.1a8.2 8.2 0 0 0-8.1 8.2 8.3 8.3 0 1 0 8.1-8.2zm699.5-356.4a8.4 8.4 0 1 0 .2 16.8 8.4 8.4 0 0 0-.2-16.8zM198.3 911.4a8.7 8.7 0 0 0-8.5 8.3 8.5 8.5 0 0 0 8.3 8.6 8.5 8.5 0 0 0 8.5-8.3 8.5 8.5 0 0 0-8.3-8.6zM949.1 432a8.4 8.4 0 1 0-8.5 8.3 8.3 8.3 0 0 0 8.5-8.3zm-296 636.1c4.5-.8 5.4-2.4 3.3-6.5a9.9 9.9 0 0 0-12.9-4.7c-5.3 2.3-7.1 7.3-4.8 13.8zM712 214.2a8.1 8.1 0 1 0 7.8-8.2 7.8 7.8 0 0 0-7.8 8.2zm-307.9-24a8.2 8.2 0 1 0 8.2 7.9 8 8 0 0 0-8.2-7.9zm254.9 7.1a8.1 8.1 0 1 0 16.2-.1 8.1 8.1 0 0 0-16.2.1zM221.2 306a8 8 0 0 0-8.6 8 8.2 8.2 0 1 0 8.6-8zm464.2-100.7a8.1 8.1 0 0 0 8.1 8.1 8 8 0 0 0 8.2-8.5 7.9 7.9 0 0 0-8.3-7.8 8 8 0 0 0-8 8.2zM994 563.5a8.1 8.1 0 1 0-16.2.3 8.1 8.1 0 0 0 16.2-.3zM272 269.9a8 8 0 0 0-8-8 8.1 8.1 0 1 0 8 8zm642.9 126.3a8.2 8.2 0 1 0 8.4-7.8 8.2 8.2 0 0 0-8.4 7.8zm-746.3-37.7a8.1 8.1 0 1 0 16.1-.5 8.1 8.1 0 0 0-16.1.5zm437.5-179a8 8 0 1 0 8.2-7.8 7.8 7.8 0 0 0-8.2 7.8zm263.4 139a8.2 8.2 0 1 0-8.3 7.8 8 8 0 0 0 8.3-7.8zM640.9 180.4a8.2 8.2 0 1 0 7.8 8.3 8 8 0 0 0-7.8-8.3zM825.3 275a8.2 8.2 0 1 0-8.1 8.1 8 8 0 0 0 8.1-8.1zM527.1 172.5a8.2 8.2 0 1 0 7.9 8.2 8.1 8.1 0 0 0-7.9-8.2zm370.3 189.6a8.1 8.1 0 1 0 8.1-7.9 7.9 7.9 0 0 0-8.1 7.9zM746.6 214.9a7.8 7.8 0 0 0-8.1 7.9 8.1 8.1 0 1 0 8.1-7.9zm203.6 252.3a8.2 8.2 0 1 0 8.1-8.1 8.2 8.2 0 0 0-8.1 8.1zM193.3 332.3a7.9 7.9 0 1 0-8.1 7.4 7.7 7.7 0 0 0 8.1-7.4zm280.8-177.1a7.8 7.8 0 1 0 7.6 7.9 7.9 7.9 0 0 0-7.6-7.9zM115.9 481.7a8 8 0 1 0-7.7 8.3 7.7 7.7 0 0 0 7.7-8.3zm-.1-34.1a8 8 0 0 0-.2 15.9 7.8 7.8 0 0 0 8.2-7.8 7.9 7.9 0 0 0-8-8.1zm674.9-208a7.8 7.8 0 0 0 7.8 7.8 7.7 7.7 0 0 0 7.9-8.1 7.9 7.9 0 0 0-15.7.3zm-237.4-76.7a7.9 7.9 0 1 0 7.7-7.8 7.7 7.7 0 0 0-7.7 7.8zm-288.4 80.6a7.9 7.9 0 1 0 7.7-7.8 7.9 7.9 0 0 0-7.7 7.8zm235.4-79.6a8 8 0 1 0 8 8 7.7 7.7 0 0 0-8-8zM99.2 710.5a7.9 7.9 0 1 0-7.8 8.2 7.7 7.7 0 0 0 7.8-8.2zm320.6-537.9a7.9 7.9 0 0 0-7.9-7.6 8 8 0 0 0-7.6 8 7.8 7.8 0 1 0 15.5-.4zm489.3 723.8a8 8 0 0 0 .8-15.9 8 8 0 1 0-.8 15.9zM438.4 172.7a7.8 7.8 0 0 0-7.8 7.8 8 8 0 1 0 7.8-7.8zM81.8 656.8a7.9 7.9 0 1 0-7.2-8.3 7.8 7.8 0 0 0 7.2 8.3zm760.8-381a7.7 7.7 0 0 0-7.8 7.6 7.9 7.9 0 1 0 7.8-7.6zM136.5 833.5a7.9 7.9 0 1 0 .1 15.7 7.9 7.9 0 0 0-.1-15.7zm-4-404.1a7.9 7.9 0 1 0-15.7-.7 7.9 7.9 0 0 0 15.7.7zm454.8-266.5a8 8 0 0 0 .4 15.9 8 8 0 1 0-.4-15.9zm-279.7 55a7.9 7.9 0 0 0-8.4 7.7 7.9 7.9 0 0 0 15.8.5 7.9 7.9 0 0 0-7.4-8.2zm-79.3 61.9a7.9 7.9 0 0 0 .4 15.8 7.9 7.9 0 1 0-.4-15.8zm766.3 336.7a7.9 7.9 0 0 0 0 15.8 7.9 7.9 0 1 0 0-15.8zM110.9 807a7.9 7.9 0 1 0 7.7-7.8 7.8 7.8 0 0 0-7.7 7.8zm259-616.8a7.9 7.9 0 1 0 15.7.4 7.9 7.9 0 0 0-7.7-8 7.8 7.8 0 0 0-8 7.6zm589.6 250.5a7.9 7.9 0 0 0 7.7 7.9 7.8 7.8 0 0 0 7.8-7.7 7.9 7.9 0 0 0-7.7-7.9 7.9 7.9 0 0 0-7.8 7.7zM526.9 154.3a7.8 7.8 0 1 0 15.5-.3 7.8 7.8 0 0 0-15.5.3zm368.8 172.5a7.9 7.9 0 1 0-7.9 8.1 7.7 7.7 0 0 0 7.9-8.1zm-123-103a7.7 7.7 0 0 0-7.6 7.8 7.9 7.9 0 0 0 8 8.1 8 8 0 0 0 7.9-8.1 7.9 7.9 0 0 0-8.3-7.8zM81.4 553.7a7.9 7.9 0 0 0-7.7 7.8 7.8 7.8 0 0 0 8.1 7.9 7.9 7.9 0 0 0-.4-15.7zm9.8-45.1a8 8 0 0 0 15.9.2 8 8 0 1 0-15.9-.2zm34.5-106.3a7.9 7.9 0 0 0 7.4 8.1 7.9 7.9 0 1 0 .5-15.7 7.9 7.9 0 0 0-7.9 7.6zm816.1 3.2a7.8 7.8 0 1 0 7.8-7.8 7.9 7.9 0 0 0-7.8 7.8zm34.2 88.2a8 8 0 0 0 0 16 8 8 0 0 0 0-16zM90.6 527.2a7.9 7.9 0 1 0 7.6 7.9 7.8 7.8 0 0 0-7.6-7.9zm243.9-319.3a7.9 7.9 0 1 0 7.9-7.6 7.9 7.9 0 0 0-7.9 7.6zm667 329.3a7.8 7.8 0 1 0-7.9 7.6 7.9 7.9 0 0 0 7.9-7.6zm-15.7 228.2a7.8 7.8 0 1 0-7.5 8.1 8 8 0 0 0 7.5-8.1zm18.1-175.2a7.7 7.7 0 1 0 7.3 7.8 7.9 7.9 0 0 0-7.3-7.8zm-327.6-427a7.7 7.7 0 1 0-.7 15.3c4.1.3 7.9-3.4 8-7.5a7.9 7.9 0 0 0-7.3-7.8zM142.6 368.3a7.8 7.8 0 1 0 7.4 8.1 7.9 7.9 0 0 0-7.4-8.1zm95.3-114.8a7.7 7.7 0 0 0-.9 15.4 8 8 0 0 0 8.1-7.5 7.9 7.9 0 0 0-7.2-7.9zm639 38.2a7.8 7.8 0 1 0-7.9 7.6c4.1.2 7.8-3.5 7.9-7.6zM202 305.2a7.7 7.7 0 1 0-7.7 7.9 7.9 7.9 0 0 0 7.7-7.9zm722.2 64.9a7.8 7.8 0 0 0 15.5.3 7.8 7.8 0 1 0-15.5-.3zm70.3 369.6a7.7 7.7 0 1 0-7.9 7.2 7.9 7.9 0 0 0 7.9-7.2zM710.1 178.8a8 8 0 0 0-7.9-7.8 7.7 7.7 0 1 0 7.9 7.8zm-60.4-24.5a7.9 7.9 0 0 0-7.9 7.7 7.8 7.8 0 0 0 7.4 7.7 7.9 7.9 0 0 0 7.9-7.7 8 8 0 0 0-7.4-7.7zm175.6 86.4a7.7 7.7 0 1 0 7.4 7.8 8 8 0 0 0-7.4-7.8zm-744 347.6a7.7 7.7 0 1 0-7.7 7.4 8 8 0 0 0 7.7-7.4zM150.4 342a7.6 7.6 0 1 0 7.3 7.6 7.8 7.8 0 0 0-7.3-7.6zm604.2-153.2a7.9 7.9 0 0 0-7.8 7.3 7.6 7.6 0 1 0 7.8-7.3zm241.1 516.4a7.6 7.6 0 1 0 .2 15.1 7.6 7.6 0 0 0-.2-15.1zM447.4 146.5a8.1 8.1 0 0 0-7.7 7.5 7.7 7.7 0 1 0 7.7-7.5zm62.3-8.7a7.6 7.6 0 0 0-8 6.9 7.5 7.5 0 1 0 8-6.9zm225.8 49.7a7.6 7.6 0 1 0-7.4 7.7 7.9 7.9 0 0 0 7.4-7.7zm-376.7-5.7a7.8 7.8 0 0 0-7.3-7.7 7.6 7.6 0 1 0-.3 15.1 7.8 7.8 0 0 0 7.6-7.4zm626.1 285.8a7.8 7.8 0 0 0-7.6 7.4 7.6 7.6 0 1 0 15.2.1 7.8 7.8 0 0 0-7.6-7.5zm-15.5 317a7.7 7.7 0 1 0-.1 15.3 7.7 7.7 0 0 0 .1-15.3zm-346.3-639a7.9 7.9 0 0 0-7.8 7.3c-.1 4.1 3.6 8 7.7 7.9a7.6 7.6 0 0 0 .1-15.2zM161.6 876.9a7.8 7.8 0 0 0-7.2-7.8 7.9 7.9 0 0 0-7.9 7.6 7.6 7.6 0 0 0 15.1.2zm752.2-548.7a7.9 7.9 0 0 0-8.1 7c-.4 4.1 3.2 8 7.4 8.2a7.6 7.6 0 0 0 .7-15.2zM108.7 771.6a7.6 7.6 0 1 0-15.2.4 8 8 0 0 0 7.8 7.3 7.9 7.9 0 0 0 7.4-7.7zm207.2-579.8a7.6 7.6 0 1 0 .3 15.1 7.6 7.6 0 0 0-.3-15.1zm579.8 101.3a7.4 7.4 0 1 0 7.3 7.5 7.4 7.4 0 0 0-7.3-7.5zm-614-83.6a7.5 7.5 0 0 0-.2 15 7.5 7.5 0 0 0 .2-15zM81 675.5a7.4 7.4 0 1 0-7.6 7.3 7.5 7.5 0 0 0 7.6-7.3zm922.5 3.4a7.4 7.4 0 1 0 7.4 7.4 7.4 7.4 0 0 0-7.4-7.4zM385.3 156.6a7.4 7.4 0 0 0-7.1 7.3 7.4 7.4 0 1 0 14.7-.1 7.4 7.4 0 0 0-7.6-7.2zM202.1 271.5a7.4 7.4 0 0 0-.2 14.7 7.5 7.5 0 0 0 7.6-7.3 7.4 7.4 0 0 0-7.4-7.4zm656.7-14.4a7.3 7.3 0 1 0-7.3 7.5 7.3 7.3 0 0 0 7.3-7.5zm-78.1-59.2a7.3 7.3 0 0 0-7.2 7.1 7.5 7.5 0 0 0 7.3 7.6 7.4 7.4 0 1 0-.1-14.7zm-176.8-53.2a7.5 7.5 0 1 0-7.8 7.1 7.6 7.6 0 0 0 7.8-7.1zm-364.8 89.7a7 7 0 0 0 6.8 7.4 7.2 7.2 0 1 0 .5-14.3 7.1 7.1 0 0 0-7.3 6.9zm338.1-97.7a7.1 7.1 0 0 0-7.3-7.4 7.2 7.2 0 1 0 7.3 7.4zm-94.5-7.3a7.1 7.1 0 1 0 .2 14.2 7.1 7.1 0 0 0-.2-14.2zm512.7 381.2a7.2 7.2 0 1 0 14.3-.4 6.9 6.9 0 0 0-7.3-6.8 6.9 6.9 0 0 0-7 7.2zM166.1 324.2a6.8 6.8 0 0 0-6.8-7.3 7 7 0 0 0-7.5 7.1 7.2 7.2 0 0 0 14.3.2zm254.9-185a6.9 6.9 0 0 0-7.3 6.9 7.1 7.1 0 0 0 7.3 7.4 6.9 6.9 0 0 0 7-7.2 6.9 6.9 0 0 0-7-7.1zm533.1 678.3a7.3 7.3 0 0 0 14.5.6 7.3 7.3 0 0 0-14.5-.6zM160.9 297.1a6.9 6.9 0 1 0 7-6.5 6.9 6.9 0 0 0-7 6.5zm383-176.5a7.1 7.1 0 1 0 6.7 7.5 6.9 6.9 0 0 0-6.7-7.5zm-94.6 7.9a6.9 6.9 0 1 0 6.8-6.8 6.9 6.9 0 0 0-6.8 6.8zm209.2.1a6.8 6.8 0 0 0-7.1 6.9 6.7 6.7 0 0 0 6.6 6.9 6.8 6.8 0 0 0 7.2-6.9 6.9 6.9 0 0 0-6.7-6.9zm353.7 524.1a6.8 6.8 0 0 0-6.8 6.8 7 7 0 1 0 14 .2 6.8 6.8 0 0 0-7.2-7zm-328-515.3a6.9 6.9 0 0 0-7.4 6.8 7 7 0 1 0 7.4-6.8zm19.1 14.6a7 7 0 1 0 6.9-6.7 6.9 6.9 0 0 0-6.9 6.7zM113.9 394a6.9 6.9 0 1 0-7 6.6 6.8 6.8 0 0 0 7-6.6zm843.4-22.1a7.1 7.1 0 1 0 7.2 6.9 6.8 6.8 0 0 0-7.2-6.9zM79.6 499.7a7 7 0 0 0-13.9 0 7 7 0 1 0 13.9 0zm889.5-85.1a6.7 6.7 0 0 0 6.9 6.7 7 7 0 1 0-.1-14 6.8 6.8 0 0 0-6.8 7.3zm-877.9 5.8a7 7 0 1 0 6.9-7.2 6.8 6.8 0 0 0-6.9 7.2zm921 144.9a7.1 7.1 0 1 0 7.2 6.9 6.8 6.8 0 0 0-7.2-6.9zm-65.4-221a6.8 6.8 0 0 0-7-6.7 7 7 0 1 0 7 6.7zM282.5 190.1a6.9 6.9 0 0 0 6.8 7.3 6.9 6.9 0 0 0 .3-13.8 6.9 6.9 0 0 0-7.1 6.5zM81.2 466.2a6.8 6.8 0 0 0-6.7 7.4 7 7 0 0 0 14-.5 6.9 6.9 0 0 0-7.3-6.9zm745.7-244.6a7 7 0 0 0 13.9.7 7 7 0 0 0-6.8-7.3 6.9 6.9 0 0 0-7.1 6.6zm167 220.2a6.8 6.8 0 0 0-7.1 6.9 6.9 6.9 0 0 0 6.7 6.9 6.8 6.8 0 0 0 7.1-7 6.7 6.7 0 0 0-6.7-6.8zM800.3 213.1a6.8 6.8 0 0 0 7.1 7 6.7 6.7 0 0 0 7-7 7.1 7.1 0 1 0-14.1 0zM64.9 606.5a7.1 7.1 0 1 0 7 7.2 6.9 6.9 0 0 0-7-7.2zm146.2-360.1a7 7 0 1 0 6.8 6.8 6.7 6.7 0 0 0-6.8-6.8zM76.4 736.1a7.1 7.1 0 1 0 7.2-6.9 6.9 6.9 0 0 0-7.2 6.9zM885 265.7a7 7 0 1 0-6.8 7.4 6.8 6.8 0 0 0 6.8-7.4zM96.3 446.6a6.7 6.7 0 0 0-6.7-6.9 7 7 0 1 0-.3 14 6.7 6.7 0 0 0 7-7.1zm228.4-266.8a7 7 0 1 0-.3-13.9 6.8 6.8 0 0 0-6.6 7.1 6.9 6.9 0 0 0 6.9 6.8zm531.8 772.4a7 7 0 1 0 6.8 6.8 6.8 6.8 0 0 0-6.8-6.8zm-570 48a7.1 7.1 0 1 0 7 7.1 6.8 6.8 0 0 0-7-7.1zm73.7-852a7 7 0 1 0 .3 13.9 7 7 0 0 0-.3-13.9zm562.1 154.2a6.8 6.8 0 0 0-7 6.6 6.9 6.9 0 1 0 7-6.6zM638.6 126.8a6.9 6.9 0 0 0-6.5-7 6.9 6.9 0 1 0-.4 13.8 6.8 6.8 0 0 0 6.9-6.8zM517 112a6.9 6.9 0 1 0 6.9 6.7 6.9 6.9 0 0 0-6.9-6.7zm-268.8 97a7 7 0 0 0 6.7 7 6.9 6.9 0 0 0 7.1-7 6.9 6.9 0 0 0-13.8 0zm514.9-32.3a7 7 0 0 0 7-6.7 7.1 7.1 0 0 0-6.8-7 7 7 0 0 0-6.9 6.8 6.8 6.8 0 0 0 6.7 6.9zm-361.9-39.4a7 7 0 0 0-7-6.7 6.9 6.9 0 1 0 7 6.7zM605.4 111a6.9 6.9 0 1 0 6.7 7 6.9 6.9 0 0 0-6.7-7zM57 526.3a6.8 6.8 0 0 0 6.8 6.8 6.9 6.9 0 1 0-6.8-6.8zm672.9-365.5a6.9 6.9 0 1 0 13.7.2 6.9 6.9 0 0 0-13.7-.2zM116.1 361.3a6.9 6.9 0 1 0 6.6 7 7 7 0 0 0-6.6-7zm791.3 553.6a6.9 6.9 0 1 0-6.7 6.9 6.8 6.8 0 0 0 6.7-6.9zm45.5-77.5a6.9 6.9 0 1 0-.5 13.8 6.9 6.9 0 0 0 .5-13.8zM177 264.2a7 7 0 0 0-7.1 6.6 6.8 6.8 0 1 0 13.5.3 7.1 7.1 0 0 0-6.4-6.9zm813.5 123.5a6.8 6.8 0 0 0-6.7-6.5 6.6 6.6 0 1 0 .2 13.2 6.7 6.7 0 0 0 6.5-6.7zM56.2 633.4a6.7 6.7 0 1 0-.5 13.4 6.8 6.8 0 0 0 7-6.7 6.9 6.9 0 0 0-6.5-6.7zm427.6-523.5a6.8 6.8 0 0 0 13.5.2 7 7 0 0 0-6.9-6.8 6.9 6.9 0 0 0-6.6 6.6zm420.6 170.8a6.8 6.8 0 1 0-6.7-6.6 7.1 7.1 0 0 0 6.7 6.6zM585.5 110.2a6.8 6.8 0 0 0-6.8-6.9 6.7 6.7 0 1 0 6.8 6.9zM213.1 226.5a7 7 0 0 0 6.3 7 6.7 6.7 0 1 0-6.3-7zm9.5 728.7c-.2-4-2.5-6.3-6.4-6.7s-7 2.8-7.1 6.5a7 7 0 0 0 6.7 7 6.7 6.7 0 0 0 6.8-6.8zm788.9-477.9a6.8 6.8 0 0 0-6.8 6.9 7.1 7.1 0 0 0 6.6 6.6 6.8 6.8 0 0 0 .2-13.5zM165.1 912.1a6.8 6.8 0 0 0 6.8 6.5 6.7 6.7 0 0 0 6.4-6.7 6.6 6.6 0 0 0-13.2.2zm855.8-285.6c-3.9.4-6.2 2.7-6.4 6.7a6.7 6.7 0 0 0 6.8 6.8 6.9 6.9 0 0 0 6.7-7c-.1-3.6-3.5-6.9-7.1-6.5zM860.5 224a6.8 6.8 0 0 0-.4 13.5 6.8 6.8 0 1 0 .4-13.5zM66.2 695.2a6.9 6.9 0 0 0-7.1 6.5 7 7 0 0 0 6.2 7 6.8 6.8 0 0 0 .9-13.5zm363.4-568.6a7 7 0 0 0 6.8-6.9 6.8 6.8 0 0 0-6.6-6.6 6.9 6.9 0 0 0-6.8 6.8 7 7 0 0 0 6.6 6.7zM54.9 546.1a6.7 6.7 0 1 0 6.8 6.4 6.9 6.9 0 0 0-6.8-6.4zM790 172a6.9 6.9 0 0 0-7 6.6 6.7 6.7 0 1 0 7-6.6zM124 334.9a6.8 6.8 0 1 0 6.4 6.9 7 7 0 0 0-6.4-6.9zm889.5 210.9c.1 4 2.4 6.3 6.3 6.8s7-2.8 7.2-6.4a6.9 6.9 0 0 0-6.6-7.1c-3.7-.1-7.1 3-6.9 6.7zm-40.8-193.2c-.1-3.8-2.2-6.1-6-6.6s-6.7 2.6-6.9 6.1a6.7 6.7 0 0 0 6.2 6.9 6.5 6.5 0 0 0 6.7-6.4zM333.3 139.9c-3.8.3-6 2.6-6.2 6.3a6.5 6.5 0 0 0 6.5 6.6 6.6 6.6 0 0 0 6.5-6.7c-.1-3.5-3.3-6.6-6.8-6.2zm482.9 40.2c-3.7.2-6 2.3-6.5 6.1s2.7 6.7 6.2 6.9a6.7 6.7 0 0 0 6.8-6.4 6.5 6.5 0 0 0-6.5-6.6zm-524.4-15.8c.4 3.7 2.6 5.9 6.4 6.1s6.6-2.9 6.6-6.5a6.7 6.7 0 0 0-6.7-6.4 6.5 6.5 0 0 0-6.3 6.8zM132.3 308.7a6.3 6.3 0 0 0-6.3 6.3 6.6 6.6 0 0 0 6.4 6.7 6.7 6.7 0 0 0 6.6-6.6 6.5 6.5 0 0 0-6.7-6.4zm229.3-180.1a6.2 6.2 0 0 0 6.5 6.4c3.8-.3 6-2.5 6.1-6.3a6.2 6.2 0 0 0-6.5-6.4c-3.8.4-5.9 2.5-6.1 6.3zm668.9 471.8a6.2 6.2 0 0 0-6.8 6.1c0 3.8 2.1 6.1 5.9 6.5a6.2 6.2 0 0 0 6.8-6.3c-.2-3.5-2.1-5.9-5.9-6.3zM457.7 101.8a6.2 6.2 0 0 0 6.2 6.7c3.9-.1 6.1-2.2 6.5-6a6.3 6.3 0 0 0-6.5-6.7c-3.5.2-5.8 2.2-6.2 6zm484.6 216.3a6 6 0 0 0 6.5 6.3c3.8-.2 6-2.4 6.1-6.3a6.2 6.2 0 0 0-6.5-6.4c-3.8.5-5.9 2.6-6.1 6.4zM263.2 176.3a6.2 6.2 0 0 0-6.6 6.3c.2 3.8 2.3 6.1 6.1 6.4a6.3 6.3 0 0 0 6.6-6.5c-.3-3.6-2.3-5.9-6.1-6.2zm282.7-74.8c.4 3.8 2.6 5.9 6.4 6.1a6.4 6.4 0 0 0 6.5-6.6 6.6 6.6 0 0 0-6.7-6.3 6.4 6.4 0 0 0-6.2 6.8zm455.8 315.3a6.1 6.1 0 0 0-6.4 6.4c.2 3.9 2.3 6 6.1 6.3a6.4 6.4 0 0 0 .3-12.7zM666.2 102.9c-3.9 0-6.1 2.2-6.2 6s2.2 6.1 6 6.2 5.9-2.2 6.3-6-2.2-6.1-6.1-6.2zm-32.7-2.8c0 3.9 2.2 6.1 6.1 6.2s6.1-2.2 6.1-6.1-2.2-5.8-6-6.2-6.1 2.2-6.2 6.1zM41 579.2c0 3.8 2.1 6 6 6.2a5.9 5.9 0 0 0 6.4-6.4c-.3-3.8-2.5-5.7-6.3-6s-6.1 2.3-6.1 6.2zm801.7-389.9c-3.8 0-6.1 2.2-6.1 6s2.1 6.1 6 6.2 5.9-2.2 6.3-6.3-2.2-5.9-6.2-5.9zm-664.4 55.2c0 3.8 2.2 6 6 6.2a6 6 0 0 0 6.4-6.4c-.3-3.9-2.5-5.8-6.3-6.1s-6.1 2.4-6.1 6.3zM525.6 86.2c-3.9.2-6 2.5-5.8 6.4s2.4 5.9 6.3 5.8 5.7-2.5 5.9-6.3-2.5-6-6.4-5.9zm193.7 34.3c-3.8-.1-6.1 2-6.4 5.9a6 6 0 0 0 6.2 6.5c3.9-.1 5.9-2.3 6.2-6.2s-2.2-6.1-6-6.2zm161.3 119c0 3.9 2.2 6.1 6 6.3a6 6 0 0 0 6.4-6.4c-.2-3.9-2.5-5.8-6.2-6.1s-6.1 2.4-6.2 6.2zm-645.9-39.3c0-3.8-2.3-6-6.2-6s-6 2.3-6 6.2 2.4 5.8 6.2 6.1 6.1-2.4 6-6.3zm458.1-88.6c-3.8.1-6.1 2.1-6.4 5.9a6 6 0 0 0 6.2 6.6c3.9-.2 5.9-2.4 6.2-5.8s-2.5-6.7-6-6.7zM1023 519.4c0 3.9 2.3 6.1 6.1 6s6.1-2.3 6-6.1-2.3-5.8-6.1-6.1-6.1 2.4-6 6.2zm-91.6-242.7c-3.9-.2-6.3 1.8-6.5 5.7s1.8 6.2 5.7 6.5 6-1.9 6.5-5.7-1.9-6.3-5.7-6.5zM397.1 111.2c.2 3.9 2.5 6 6.4 5.9s5.9-2.5 5.8-6.4-2.5-5.7-6.3-5.9-6 2.5-5.9 6.4zm-89.7 21.4c-3.6-.2-5.8 1.8-6.2 5.4a5.7 5.7 0 0 0 5.8 6.4c3.7-.1 5.6-2.2 6.1-5.7s-2-5.9-5.7-6.1zm197.8-48.9c.1-3.7-1.9-5.8-5.5-6.1a5.8 5.8 0 0 0-6.3 5.9c.2 3.7 2.3 5.6 5.9 6s5.8-2.1 5.9-5.8zm521 374.2a5.8 5.8 0 0 0-5.8-6.4c-3.7 0-5.8 2-6.1 5.6a6 6 0 1 0 11.9.8zM798.5 146.4c-3.7 0-5.8 2.2-5.8 5.9s2.2 5.8 5.9 5.7 5.5-2.3 5.9-5.9-2.3-5.8-6-5.7zm-53.2-17.9c-3.7.2-5.7 2.3-5.7 6s2.1 6.1 6 6.1 5.8-2.4 6.1-6.3-2.5-5.9-6.4-5.8zM72.1 406.4a6 6 0 1 0-.4 11.9c3.7-.1 5.6-2.2 5.9-5.1s-2.2-6.6-5.5-6.8zm700.3-269a5.7 5.7 0 0 0-6.3 5.9c0 3.6 2 5.7 5.6 6s6.3-2.3 6.3-6.5-1.9-5.1-5.6-5.4zm-686 248.4c-.1-3.7-2.2-5.7-5.9-5.9a5.7 5.7 0 0 0-5.9 6.3c.3 3.7 2.5 5.4 6.2 5.6s5.7-2.3 5.6-6zm23.4 441.8c-3.6.1-5.7 2.2-5.8 5.9a5.7 5.7 0 0 0 6.3 5.9c3.6-.3 5.4-2.5 5.6-6.2s-2.4-5.7-6.1-5.6zM619.1 92.5a5.7 5.7 0 0 0-6.1-6.1c-3.6.1-5.6 2.1-5.8 5.8s2.5 6.2 6.7 6.1 5-2.1 5.2-5.8zM341.6 114c-3.7-.1-5.9 2-6 5.6s2 5.9 5.7 6 5.5-2.1 6.1-5.6-2.1-5.9-5.8-6zM266 156.3c.1 3.6 2.3 5.8 5.9 5.7s5.8-2.4 5.7-6-2.4-5.5-6-5.8-5.8 2.4-5.6 6.1zm-72.6 55.8c-3.6 0-5.9 2.1-5.9 5.8s2.1 5.8 5.7 5.9 5.6-2.2 6.1-5.7-2.2-5.9-5.9-6zm-104 141.4c-3.7 0-5.9 2.1-5.9 5.8s2.1 5.8 5.8 5.9 5.5-2.2 6-6-2.2-5.7-5.9-5.7zm-25.3 79.4a6 6 0 1 0-.1 11.9c3.7-.2 5.5-2.3 5.9-5.9s-2.1-5.8-5.8-6zm16.4 330c0-3.6-2.1-5.9-5.8-5.9s-5.8 2-5.9 5.7 2.2 5.6 5.7 6.1 5.9-2.2 6-5.9zm11.4 29.2c-3.6.2-5.7 2.4-5.6 6s2.2 6.1 6.1 6.1 5.8-2.5 6-6.6-2.6-5.7-6.5-5.5zm49.4-509.5c-3.6 0-5.8 2.1-6 5.7s1.9 6.2 5.8 6.4 5.9-2.1 6.3-5.9-2.2-6.2-6.1-6.2zm777.8-35c.1-3.7-2-5.9-5.7-6s-5.8 2-5.9 5.7 2.1 5.6 5.6 6.1 6-2.1 6-5.8zM41.3 666.5c0 3.7 2.1 5.9 5.7 5.9s5.9-2 6-5.7-2.2-5.6-5.7-6.1-5.9 2.2-6 5.9zM944 864.8a6 6 0 1 0-.1 12c3.7-.2 5.5-2.4 5.9-6s-2.1-5.7-5.8-6zM60.9 464.5c0-3.6-2-5.8-5.6-6a5.7 5.7 0 0 0-6.2 6c.2 3.7 2.3 5.5 5.9 5.9s5.8-2.2 5.9-5.9zM1032 579.8c-.2 3.7 1.9 6 5.5 6.2s5.9-1.8 6.2-5.4-1.9-5.7-5.5-6.4-5.9 2-6.2 5.6zM869.1 198.4c-3.6 0-5.8 2.2-5.8 5.9s2.2 5.8 5.9 5.8 5.5-2.3 5.9-5.9-2.3-5.8-6-5.8zM593.5 84c.2-3.6-1.6-5.9-5.2-6.4a5.7 5.7 0 0 0-6.6 5.6c0 3.7 2 5.7 5 6.2s6.7-2.1 6.8-5.4zm-149.1 9.8c.2-3.6-1.6-5.9-5.2-6.4a5.8 5.8 0 0 0-6.6 5.6c0 3.7 2 5.7 5 6.2s6.7-2.1 6.8-5.4zm-25.9-10.6c-2.2-1.5-4.3-3.8-6.6-4.1s-5.5 2.1-5.4 5.5 2.4 5.9 5.6 5.3 4.3-2.9 6.4-4.4zm-36 18.9a5.3 5.3 0 0 0-5.5-5.7c-3.6-.2-5.9 1.9-6 5.6s2.1 5.6 5.7 6.1 5.8-2.3 5.8-6zM40.4 490.6a5.3 5.3 0 0 0 5.2 6c3.6.4 6-1.6 6.3-5.2s-1.8-5.7-5.3-6.4-6 2-6.2 5.6zm996 203.2c-2.1-1.4-4.2-3.8-6.5-4.1s-5.5 2.1-5.4 5.5 2.4 5.9 5.6 5.3 4.3-2.9 6.4-4.4a17.7 17.7 0 0 0-.1-2.3zm7.9-202.2c-2.2-1.5-4.2-3.9-6.6-4.2s-5.5 2.2-5.4 5.6 2.4 5.8 5.7 5.3 4.2-2.9 6.3-4.5zm-46-129.9c.7-3.5-1.8-6-5.4-6.1s-5.6 1.9-5.9 5.3 2.1 5.6 7.1 6.5c1.2-1.5 3.7-3.4 4.2-5.7zM824.2 154.5c-1.7 2-4.2 3.9-4.7 6.3s1.7 5.4 5.1 5.9 6.7-2.6 6-5.5-2.8-4.5-4.2-6.7zM242 174.2c.8-3.5-1.7-5.9-5.3-6.1a5.3 5.3 0 0 0-5.9 5.3c-.3 3.6 1.9 5.6 6.9 6.5 1.3-1.5 3.8-3.4 4.3-5.7zm786.6 546.4c-2.1-1.6-4-4-6.3-4.4s-5.6 1.9-5.7 5.3 2.2 5.9 5.4 5.5 4.4-2.7 6.6-4.2zM96.9 326.3c-1.5 2.2-3.9 4.2-4.2 6.6s2 5.3 5.3 5.6 6.6-3 5.7-5.8-3-4.3-4.6-6.4zM958.7 298c1.5-2.2 3.8-4.2 4.2-6.5s-2.2-5.5-5.6-5.5-5.9 2.4-5.3 5.7 2.9 4.3 4.4 6.4zm16.6 22.4c-3.5-.6-5.9 1.9-5.9 5.6s2.1 5.5 5.4 5.7 5.6-2.2 6.4-7.2c-1.6-1.2-3.6-3.7-5.9-4.1zm44.6 425.6c-2.2-1.6-4.1-4-6.5-4.4s-5.4 1.9-5.7 5.3 2.9 6.6 5.7 5.8 4.4-3 6.5-4.5zM32.8 605.3c-.8 3.5 1.7 6 5.3 6.2a5.4 5.4 0 0 0 5.9-5.3c.3-3.7-2-5.7-7-6.6-1.2 1.6-3.7 3.4-4.2 5.7zm984.1-209.8c-2.1-1.5-4.1-4-6.4-4.4s-5.4 1.9-5.8 5.3 2.9 6.6 5.8 5.8 4.3-2.9 6.5-4.4a17.7 17.7 0 0 1-.1-2.3zM267.4 997.1c-2.2-1.4-4.2-3.8-6.6-4.1s-5.4 2.1-5.4 5.5 2.5 5.8 5.7 5.3 4.2-2.8 6.4-4.4a16.9 16.9 0 0 1-.1-2.3zM36.3 510.9c-1.5 2.1-4 4.1-4.4 6.4s2 5.6 5.3 5.6 6-2.1 5.6-5.4-2.7-4.3-4.2-6.5zm114-254.5c-3.5-.1-5.7 1.9-5.9 5.3s1.8 6 5.4 6.2 5.6-2 6.3-5.7-2.1-5.7-5.8-5.8zM561.2 69.1c-3.5-.6-5.8 2-5.8 5.7a5.4 5.4 0 0 0 5.6 5.6c3.7 0 5.6-2.3 6.2-7.4-1.6-1.1-3.6-3.6-6-3.9zm-81.8 5.3c-2.2-1.5-4.2-3.9-6.5-4.3s-5.4 2-5.7 5.4 2.9 6.5 5.8 5.7 4.3-3 6.4-4.5zm296.6 952c3-1.2 6.7-3.2 7.6-5.8s-1.9-5.6-5.5-5.6-5.9 2.2-6.4 7.5c1 1 3.4 4.3 4.3 3.9zm253.3-589.3c1.4-2 3.7-3.9 4-6.1a4.5 4.5 0 0 0-5.4-5.2c-2 .5-4.8 3.3-4.9 5.2s2.6 4.1 4.1 6.2zm12.2 116.6c-.5 3.3 2 5.5 5.4 5.3s5.7-2.4 5-5.7-2.9-3.9-5.5-7.2c-2.4 3.5-4.6 5.4-4.9 7.6zm-338.9-456c1.5-2.2 4.1-4.4 4-6.5s-3-4.7-5-5.1a4.5 4.5 0 0 0-5.5 5.1c.3 2.3 2.7 4.3 4.2 6.5zm238 164.8c1.5-1.9 3.9-3.7 4.4-5.8s-1.6-5.6-5-5.8-5.7 1.8-5.4 4.9 2.4 4.4 3.7 6.6zM676.1 88.8c1.5-2.1 4.1-4.3 4-6.4s-2.9-4.7-5-5.2a4.6 4.6 0 0 0-5.5 5.2c.3 2.3 2.7 4.3 4.2 6.4zm-26.7-8.9c1.5-2 3.8-3.8 4.2-5.9a4.4 4.4 0 0 0-5-5.5c-2.1.4-5 3.1-5.2 4.9s2.4 4.3 3.8 6.5zm-116-20.4c-1.4 2.2-4 4.5-3.9 6.6s3 4.6 5.1 5a4.5 4.5 0 0 0 5.4-5.3c-.4-2.3-2.8-4.2-4.3-6.3zM104.8 300.2c-1.4 2-3.7 3.9-4 6s2.1 6 5.3 5.3 4.9-3.2 5-5.1-2.6-4.2-4-6.3zM134 866.9c-2.2-1.5-4.3-4.3-6.4-4.2s-4.7 2.7-5.3 4.8a4.6 4.6 0 0 0 5 5.7c2.3-.3 4.4-2.6 6.6-4a16.9 16.9 0 0 1 .1-2.3zm67.2-681.6c-1.5 1.9-3.8 3.7-4.3 5.9s1.8 6 5.1 5.4 5-3 5.2-4.8-2.4-4.3-3.7-6.5zm533-86.2c-2.1-1.5-4.3-4.2-6.3-4.1s-4.8 2.9-5.3 4.9a4.6 4.6 0 0 0 5.1 5.6c2.3-.3 4.4-2.7 6.5-4.1zM852.8 175c1.3-2 3.6-3.9 3.9-6.1a4.4 4.4 0 0 0-5.3-5.2c-2.1.5-4.9 3.3-4.9 5.2s2.5 4.1 4 6.2zm-688.6 59.6c-2-1.5-3.8-3.8-6-4.1s-5.5 1.7-5.5 5.2 2 5.6 5 5.1 4.3-2.6 6.5-4zM902 212.1c-2.1-1.5-4.2-4.2-6.3-4.2s-4.8 2.7-5.3 4.8a4.5 4.5 0 0 0 4.9 5.7c2.3-.2 4.4-2.6 6.6-3.9a19.3 19.3 0 0 0 .1-2.4zm108.9 560.6c-2.1-1.6-4.2-4.3-6.3-4.3s-4.8 2.8-5.3 4.8a4.5 4.5 0 0 0 4.9 5.7c2.3-.2 4.4-2.5 6.6-3.9zM63.3 727.4c-2.1-1.5-4.3-4.2-6.4-4.1s-4.7 2.8-5.2 4.9a4.5 4.5 0 0 0 5 5.6c2.3-.3 4.4-2.7 6.6-4.1zm859.9-500.7c1.3-1.9 3.4-3.6 3.7-5.7s-1.8-5.6-4.9-4.8a6.9 6.9 0 0 0-4.5 4.9c-.2 1.7 2.2 3.7 3.4 5.6zM28.4 537.9c-1.4 2-3.6 3.8-3.9 6s1.7 5.2 5 5.2 5.5-2 5-5.1-2.5-4.1-3.8-6.1zm251.2-414.3c-1.4 2-3.6 3.8-4 6s1.6 5.2 4.9 5.2 5.6-1.9 5.1-5-2.4-4.1-3.7-6.2zM35.2 630.9c-1.9-1.2-4-3.6-5.8-3.3s-4.3 2.8-4.6 4.7 1.8 5.4 5 4.7 3.7-2.5 5.5-3.9c0-.7-.1-1.5-.1-2.2zm1018.2 9.8c-1.9-1.2-4-3.5-5.8-3.3s-4.3 2.8-4.7 4.7 1.9 5.4 5.1 4.8 3.7-2.6 5.5-4zm-8.5 26.9c-1.9-1.4-3.7-3.6-5.9-4.1s-5.2 1.6-5.3 4.9 1.8 5.6 5 5.2 4.1-2.4 6.1-3.7a16.9 16.9 0 0 0 .1-2.3zM601.3 55.7c-1.9-1.3-3.7-3.3-5.8-3.6s-5.6 1.9-4.8 5 3 4.5 4.7 4.6 4-2.3 5.9-3.7zm-91.8 8.2c1.3-2.1 3.6-4.2 3.5-6.1s-2.8-4.3-4.7-4.7a4 4 0 0 0-5 4.8c.3 2.2 2.5 4 3.8 6zm113.6 7.9c1.4-1.9 3.5-3.8 3.9-6s-1.7-5.1-5-5.2-5.6 2-5.1 5.2 2.5 4 3.9 6zm-175.6 1c1.3-1.9 3.5-3.8 3.9-6s-1.7-5.1-4.9-5.2-5.6 1.9-5.1 5.1 2.4 4.1 3.7 6.1zm-60.9 8.7c1.3-1.8 3.4-3.5 3.8-5.5s-1.4-5.3-4.7-5.4-5.5 1.9-5 5.1 2.3 3.9 3.6 5.8zm-35.3 18.8c1.4-1.9 3.6-3.8 4-5.9s-1.6-5.2-4.9-5.3-5.6 1.9-5.2 5 2.4 4.2 3.8 6.2zM996.7 806c1.3-1.8 3.4-3.5 3.9-5.6s-1.4-5.2-4.8-5.3-5.5 1.9-5 5.1 2.4 3.8 3.6 5.7zM755 114.1c1.6-1.9 3.9-3.6 4.4-5.7s-1.3-5.3-4.6-5.5-5.7 1.5-5.4 4.7 2.2 4.2 3.4 6.4zM316.9 118c1.4-1.9 3.6-3.7 4.1-5.9s-1.6-5.2-4.9-5.3-5.6 1.8-5.2 5 2.4 4.1 3.7 6.1zm469.9-2.5c-2.1-1.2-4.2-3.6-6.1-3.4s-4.3 2.7-4.7 4.7a4 4 0 0 0 4.8 5c2.2-.4 4-2.5 6-3.8zm26.3 9c-1.9-1.2-3.9-3.6-5.6-3.5s-4.4 2.7-4.9 4.5 1.7 5.5 4.9 5 3.8-2.4 5.6-3.7zm-561.9 21.8c-1.9-1.3-3.5-3.4-5.6-3.9s-5.2 1.4-5.3 4.8 1.9 5.5 5.1 5 3.8-2.4 5.7-3.6c0-.8.1-1.5.1-2.3zM875.7 172c-1.2 1.9-3.6 3.9-3.4 5.7a7.3 7.3 0 0 0 4.6 4.8 4 4 0 0 0 4.9-4.9c-.4-2.1-2.4-3.8-3.8-5.7zM168 214.9c1.3-1.9 3.7-3.9 3.5-5.6s-2.6-4.4-4.5-4.9-5.5 1.6-5 4.9 2.4 3.7 3.7 5.6zm-51.8 70.7c1.2-1.9 3.2-3.7 3.5-5.8a4 4 0 0 0-5-4.8c-1.9.5-4.5 3.1-4.6 4.8s2.4 3.9 3.8 5.9zm6.6-38c-1.3 1.9-3.7 3.8-3.7 5.6s2.8 4.8 4.1 4.6 4.6-2.4 5-4.2-2-3.9-3.2-5.8zm866.7 51.8c-1.9-1.3-3.8-3.6-5.6-3.5s-4.7 2.9-4.5 4.2 2.6 4.6 4.4 4.9 3.8-2.2 5.7-3.4zM38.1 687.5c-1.2 1.9-3.5 3.9-3.3 5.8s3 4.5 4.3 4.3 4.5-2.7 4.7-4.5-2.2-3.7-3.5-5.6zm980.1-323c-1.3 1.9-3.6 3.8-3.5 5.7s2.9 4.6 4.2 4.5 4.6-2.6 4.9-4.4-2.1-3.8-3.3-5.7zM216.6 163.6c-1.9-1.2-4.1-3.5-5.8-3.2s-3.2 3.1-4.7 4.8c1.7 1.5 3.3 4.2 5.1 4.4s3.6-2.4 5.5-3.7c0-.8-.1-1.5-.1-2.3zm790.7 170.1c-1.9-1.3-4-3.7-5.7-3.5s-4.6 3-4.6 4.6 2.8 4.4 4.6 4.6 3.8-2.2 5.7-3.5zm53.9 193.6c-1.9-1.3-3.7-3.7-5.5-3.7s-4.8 2.8-4.7 4.1 2.5 4.7 4.2 5 3.9-2 5.9-3.1c0-.8.1-1.5.1-2.3zM195.9 945c-1.9-1.1-4-3.3-5.8-3.2s-4.5 3.2-4.3 4.5 2.9 4.4 4.7 4.6 3.7-2.3 5.5-3.6c0-.8-.1-1.5-.1-2.3zM487.3 47.9c-1.9-1.2-3.9-3.4-5.8-3.3s-4.5 3-4.3 4.3 2.7 4.5 4.5 4.8 3.7-2.3 5.6-3.5zm558.2 412.9c-1.2 1.9-3.5 3.9-3.3 5.8s3 4.5 4.3 4.3 4.5-2.8 4.7-4.6-2.2-3.7-3.5-5.6zm-470.9-414c-1.9-1.2-4-3.5-5.7-3.2s-4.5 3.1-4.4 4.7 2.9 4.3 4.7 4.4 3.7-2.3 5.5-3.6a17.7 17.7 0 0 0-.1-2.3zm318.5 900.3c1.2-1.9 3.5-4.1 3.2-5.8s-3.1-3.2-4.8-4.7c-1.5 1.7-4.2 3.3-4.4 5.1s2.4 3.6 3.7 5.5zM425.5 56.9c-1.9-1.3-3.8-3.6-5.7-3.5s-4.6 3-4.4 4.3 2.6 4.5 4.4 4.8 3.8-2.2 5.7-3.4zm385.7 950.9c2.6-1.2 4.8-3.2 7.1-5-1.6-1.5-3.1-4.3-4.7-4.3s-4.1 2.1-7.2 3.9c2.4 2.7 4.3 5.6 4.8 5.4zM289.4 98.7c-1.8.3-3.1 2.9-4.7 4.6 1.6 1.5 3.2 4.1 4.9 4.2s3.5-2.3 6.6-4.6c-3.2-2.1-5.2-4.4-6.8-4.2zm258.5-59.2c-.2-1.8-2.8-3.3-4.3-4.9-1.6 1.5-4.3 2.9-4.5 4.6s2.1 3.6 4.2 6.9c2.3-3.1 4.7-5 4.6-6.6zm355.5 142.7c-1.7.2-4.3 2.9-4.3 4.5s2.8 4.1 4.5 4.3 3.5-2.3 6.7-4.6c-3.3-2.1-5.3-4.5-6.9-4.2zm-584-96.7c.2 1.8 2.9 4.4 4.5 4.3s4.1-2.8 4.3-4.5-2.3-3.5-4.6-6.6c-2.1 3.2-4.5 5.2-4.2 6.8zM935 892.8c-1.8.2-3.3 2.8-4.9 4.3 1.7 1.7 3.1 4.3 5 4.7s3.5-2.3 6.6-4.6c-3.2-2.2-5.1-4.6-6.7-4.4zM41.8 430c-.2-1.8-2.8-3.2-4.4-4.8-1.6 1.7-4.2 3.3-4.5 5.2s2.4 3.4 4.8 6.4c2-3.2 4.3-5.2 4.1-6.8zm795.5-295.2c-.1-1.8-2.6-3.4-4.1-5.1-1.7 1.7-4.4 3.1-4.8 5s2.2 3.5 4.4 6.6c2.2-3 4.7-4.9 4.5-6.5zM40.7 403.3c.1 1.7 2.7 3.3 4.1 5 1.7-1.6 4.4-3 4.9-4.9s-2.2-3.5-4.3-6.7c-2.3 3.1-4.8 4.9-4.7 6.6zM20.8 565.9c-1.7.2-3.3 2.7-4.9 4.2 1.6 1.7 3 4.4 4.9 4.8s3.6-2.3 6.7-4.5c-3.1-2.2-5-4.6-6.7-4.5zm28.7-189.2c.1 1.7 2.6 3.4 4.1 5.1 1.7-1.6 4.4-2.9 4.9-4.8s-2.1-3.6-4.2-6.8c-2.3 3-4.8 4.8-4.8 6.5zm17.7-26c-.1-1.8-2.7-3.3-4.2-4.9-1.6 1.5-4.3 2.9-4.5 4.6s2 3.6 4.2 6.9c2.3-3.1 4.7-5 4.5-6.6zm899.1-90.1c-1.7.2-3.2 2.8-4.8 4.4 1.7 1.6 3.2 4.2 5.1 4.6s3.4-2.4 6.5-4.7c-3.2-2.1-5.1-4.5-6.8-4.3zm-216.6 777.5c-2.1-4.2-5-5.6-8.7-4s-4.3 4.7-2.6 8.8zm193.8-808.4c.4 1.7 2.9 3 4.5 4.5 1.3-1.6 3.7-3.1 3.8-4.7s-2.2-3.2-4.3-6c-2 2.9-4.3 4.9-4 6.2zM142.1 903.1c.1 1.6 2.5 3 3.9 4.5 1.6-1.5 4-2.9 4.3-4.6s-2.1-3.2-4.1-6.1c-2.1 2.9-4.3 4.7-4.1 6.2zm111.1-787.6c-1.2 1.8-3.4 3.6-3.4 5.3s2.8 4.4 3.9 4.3 4.4-2.5 4.7-4.1-2-3.6-3.2-5.4zm509.3-37.1c-1.7.1-3.1 2.4-4.7 3.8 1.5 1.6 2.8 4 4.5 4.4s3.3-2 6.2-4c-2.8-2.1-4.5-4.3-6-4.2zm-27-9.9c-1.1 1.8-3.2 3.7-3.1 5.5s3 4.2 4.2 3.9 4.2-2.6 4.4-4.3-2.2-3.5-3.5-5.2zm-377.3-6c-1.3 1.8-3.4 3.6-3.4 5.3s2.7 4.4 3.9 4.2 4.4-2.4 4.7-4.1-2.1-3.5-3.2-5.4zm357.3 1.1c-1.9-1.1-3.8-3.2-5.5-3.1s-4.2 3-4 4.2 2.7 4.2 4.3 4.4 3.5-2.2 5.2-3.5zM72 319.9c-1.7 0-3.2 2.4-4.7 3.7 1.4 1.6 2.7 4.1 4.4 4.5s3.3-1.9 6.2-3.9c-2.8-2.1-4.4-4.4-5.9-4.3zM455.5 36.2c-1.6 0-3.1 2.4-4.7 3.7 1.5 1.6 2.7 4.1 4.5 4.5s3.2-1.9 6.1-3.9c-2.7-2.1-4.4-4.4-5.9-4.3zm399.7 106c.1 1.6 2.5 3.1 3.9 4.6 1.5-1.5 4-2.8 4.4-4.6s-2.1-3.2-4.1-6c-2.1 2.8-4.3 4.5-4.2 6zm200.4 468.1c-1.3 1.8-3.4 3.6-3.4 5.3s2.8 4.4 4 4.2 4.3-2.4 4.6-4.1-2.1-3.6-3.2-5.4zM33.8 455.8c-1.7-1.3-3.4-3.5-5.2-3.6s-4.4 2.6-4.3 3.8 2.3 4.5 3.9 4.8 3.7-1.9 5.5-3zm99.1-233.1c-1.7 0-3.2 2.3-4.8 3.6 1.4 1.7 2.6 4.2 4.4 4.6s3.3-1.9 6.2-3.8c-2.7-2.1-4.3-4.5-5.8-4.4zM656.3 42.9c-1.2 1.8-3.4 3.6-3.3 5.3s2.8 4.4 4 4.2 4.3-2.5 4.6-4.2-2.1-3.5-3.3-5.3zm379.4 356.4c-1.1 1.8-3.2 3.7-3.1 5.4s2.9 4.3 4.1 4.1 4.3-2.7 4.5-4.4-2.2-3.4-3.4-5.2zm-351.1-338c1.3-1.8 3.5-3.5 3.5-5.3s-2.7-4.4-3.9-4.2-4.4 2.3-4.7 4 2 3.6 3.1 5.4zM176.5 187.9c1.2-1.7 3.5-3.5 3.4-5.2s-2.6-4.5-3.8-4.3-4.4 2.3-4.7 4 1.9 3.6 3.1 5.5zm608.4-97.6c.4 1.6 2.6 2.8 4 4.2 1.3-1.4 3.6-2.7 3.7-4.1s-2-3.2-4-6.1c-1.9 2.9-4 4.7-3.7 6zm-566.4 44.2c-1.4.1-3.8 2.8-3.6 3.9s2.5 3.8 4 4 3.2-2.1 6.2-4.3c-3.2-1.8-5-3.7-6.6-3.6zm179.8-84.3c-.2-1.6-2.4-3.7-4.1-4s-3.7 2.3-3.8 3.7 1.9 3.3 3.8 6.5c2.1-3 4.3-4.8 4.1-6.2zM75.7 297.4c.4 1.6 2.6 2.8 4 4.2 1.3-1.4 3.6-2.7 3.7-4.1s-2-3.2-4-6.1c-1.9 3-4 4.7-3.7 6zM604.5 26.6a6.6 6.6 0 0 0-4 4c-.2 1 2.3 3.7 3.7 3.7s3.2-1.9 6.2-3.8c-2.9-2-4.6-4.1-5.9-3.9zM19.4 479.1c-1.4.1-3.8 2.7-3.6 3.8s2.4 3.9 3.9 4.1 3.2-2 6.3-4.2c-3.2-1.9-4.9-3.8-6.6-3.7zM520.9 31.5c-.1-1.6-2.4-3.7-4.1-4s-3.7 2.3-3.7 3.7 1.8 3.4 3.7 6.6c2.2-3.1 4.3-4.8 4.1-6.3zm466.7 791.2c-1.4.1-3.9 2.7-3.7 3.8s2.4 3.9 4 4.1 3.2-2.1 6.2-4.2c-3.1-1.9-4.9-3.9-6.5-3.7zM626.8 39.2c0 1.5 2.5 4.2 3.5 4s4.1-2.1 4.4-3.6-1.7-3.4-3.6-6.6c-2.2 3-4.2 4.6-4.3 6.2zm188.5 56.3c-1.3 0-3.8 2.2-3.7 3.2s1.9 3.9 3.3 4.2 3.2-1.6 6.2-3.4c-2.8-2-4.3-3.9-5.8-4zM8.2 596.7a6.2 6.2 0 0 0 3.8 3.8c.9.2 3.4-2.2 3.5-3.5s-1.9-3-3.7-5.7c-1.8 2.6-3.8 4.3-3.6 5.4zm921.7-397.6c1.3 0 3.8-2.2 3.7-3.2s-1.9-3.9-3.3-4.2-3.2 1.6-6.2 3.4c2.8 2 4.3 3.9 5.8 4zM578.2 18a6.2 6.2 0 0 0-4 3.6c-.2.9 2.1 3.6 3.3 3.7s3.2-1.7 5.9-3.4c-2.5-2-4-4.1-5.2-3.9zm-87.8.9c-1.3.1-3.7 2.4-3.5 3.4s2.1 3.8 3.5 4 3.1-1.7 6-3.6c-2.9-1.9-4.4-3.8-6-3.8zM184.8 152.5a5.8 5.8 0 0 0-3.9 3.7c-.3.9 2.1 3.5 3.3 3.5s3.1-1.7 5.9-3.4c-2.6-1.9-4.1-4-5.3-3.8zm704.7-1.6c-.1-1.3-2.6-3.6-3.5-3.3s-3.7 2.3-3.8 3.7 1.9 3 3.9 5.8c1.8-3 3.5-4.6 3.4-6.2zM20.9 654.2a5.6 5.6 0 0 0-3.8 3.7c-.3.9 2.1 3.4 3.4 3.5s3.1-1.8 5.8-3.6c-2.6-1.9-4.2-3.9-5.4-3.6zM332.7 55.4c-1.3.1-2.6 2.2-3.9 3.4 1.2 1.3 2.3 3.5 3.7 3.7s2.9-1.7 5.6-3.4c-2.6-1.8-4-3.8-5.4-3.7zm695.2 291.9c1.5-.4 2.7-2.5 4-3.8-1.2-1.2-2.5-3.5-3.7-3.5s-3.1 1.9-5.8 3.7c2.7 1.8 4.3 3.8 5.5 3.6zM83.4 821.1c-1.4.2-3.5 2.4-3.4 3.7s2.2 3.3 3.6 3.4 2.8-1.9 5.3-3.7c-2.6-1.7-4.2-3.6-5.5-3.4zM11 504.9c-1.5.4-2.7 2.5-4 3.8 1.2 1.2 2.5 3.4 3.8 3.5s3-1.9 5.7-3.7c-2.7-1.8-4.3-3.8-5.5-3.6zm977.2-231.2a5.8 5.8 0 0 0 3.7 3.8c.9.3 3.4-2.1 3.5-3.4s-1.8-3.1-3.6-5.8c-1.9 2.6-3.9 4.2-3.6 5.4zm-899.6-6.3a5.8 5.8 0 0 0-3.8 3.7c-.3.9 2.1 3.5 3.4 3.5s3-1.8 5.8-3.6c-2.6-1.8-4.2-3.9-5.4-3.6zM432.3 31.9a5.7 5.7 0 0 0-3.5-4c-.9-.3-3.6 1.9-3.7 3.2s1.7 3.2 3.3 6c2-2.5 4.1-4.1 3.9-5.2zm632.2 466c-1.5.2-2.8 2.4-4.1 3.7 1.3 1.4 2.4 3.6 3.9 3.8s3.1-1.7 6-3.6c-2.8-2-4.4-4-5.8-3.9zM297.6 73a5.8 5.8 0 0 0-3.9 3.7c-.3.9 2.1 3.5 3.3 3.5s3.2-1.7 5.9-3.4c-2.6-2-4.1-4-5.3-3.8zm770.5 516.1c-.2-1.5-2.4-2.7-3.7-4.1-1.4 1.4-3.6 2.6-3.8 4.1s1.8 3 3.7 5.9c2-2.9 4-4.5 3.8-5.9zM66.1 785.7a6.1 6.1 0 0 0-3.9 3.6c-.3.9 2 3.5 3.3 3.6s3.1-1.7 5.9-3.4c-2.5-1.9-4.1-4-5.3-3.8zm992.2-345.8c-.2-1.5-2.4-2.7-3.7-4.1-1.4 1.4-3.6 2.6-3.8 4s1.8 3.1 3.7 6c2-2.9 4-4.5 3.8-5.9zM262.9 90.8c-1.4.2-2.5 2.3-3.7 3.6 1.3 1.2 2.5 3.3 3.9 3.4s2.8-1.8 5.3-3.7c-2.6-1.7-4.2-3.5-5.5-3.3zM136.7 200.1a6 6 0 0 0 3.8 3.8c.9.2 3.4-2.1 3.5-3.4s-1.8-3.1-3.6-5.8c-1.9 2.6-3.9 4.2-3.7 5.4zM1006.8 308a6 6 0 0 0 3.7 3.9c.9.2 3.5-2.1 3.5-3.4s-1.7-3.1-3.5-5.8c-1.9 2.5-3.9 4.1-3.7 5.3zm-29.3-69.3c.1-1.2-2-3.6-2.9-3.5s-3.6 1.8-3.9 3.1 1.5 2.9 3.1 5.6c1.9-2.5 3.7-3.8 3.7-5.2zm95.9 320.6c-1.3.1-3.3 1.9-3.4 3s1.8 3.2 3 3.5 2.7-1.5 5.2-2.9c-2.3-1.8-3.6-3.6-4.8-3.6zm-94.3 290.6c-1.3.1-2.4 2-3.5 3.2 1.1 1.1 2.2 3.1 3.4 3.2s2.6-1.5 5-3.1c-2.3-1.7-3.7-3.4-4.9-3.3zM97 241.3c-1.3.2-2.2 2.2-3.3 3.4 1.3 1.1 2.4 2.9 3.7 3s2.5-1.8 4.8-3.5c-2.5-1.5-4-3.2-5.2-2.9zM551.2 10.4c-1.1 0-3.4 2.2-3.2 3.1s1.9 3.5 3.2 3.7 2.9-1.7 5.5-3.4c-2.6-1.7-4-3.4-5.5-3.4zM47.9 751.5c-1.2.1-3.3 2.4-3.2 3.3s2.1 3.4 3.5 3.5 2.7-1.7 5.3-3.5c-2.7-1.7-4.2-3.3-5.6-3.3zM1042.3 379c0 1.2 2.2 3.5 3.1 3.4s3.5-2 3.7-3.3-1.6-2.8-3.3-5.5c-1.8 2.6-3.5 4-3.5 5.4zM367.7 37.9c-1.2 0-3.4 2.3-3.2 3.2a5.3 5.3 0 0 0 3.5 3.6c1.2.1 2.7-1.8 5.2-3.6-2.6-1.7-4.1-3.3-5.5-3.2zM224.2 112c0 1.2 2.2 3.5 3.1 3.4s3.5-1.9 3.7-3.3-1.5-2.8-3.2-5.5c-1.8 2.6-3.5 4-3.6 5.4zm617.2-7.4c-1.3.3-2.9 2.5-3.1 3.9s2.3 3 3.5 2.9 2.7-1.8 5.2-3.7c-2.7-1.6-4.4-3.3-5.6-3.1zM692.7 26.5c-1.3.3-2.2 2.1-3.3 3.2 1 1 2.1 2.8 3.1 2.8s2.6-1.5 4.8-3c-2.3-1.6-3.7-3.2-4.6-3zM308.8 50.1c-.1-1.1-1.7-1.9-2.6-2.8-1 1-2.5 2-2.8 3.2s1.6 1.9 3 3.6c1.2-1.9 2.5-3 2.4-4zM27.5 365.4c-.9 0-2.8 1.7-2.7 2.4s1.5 2.9 2.6 3.1 2.3-1.3 4.5-2.6c-2.1-1.5-3.2-2.8-4.4-2.9zm929.2-165c-1.1 0-3 1.6-3.1 2.6s1.5 2.9 2.7 3.1 2.4-1.2 4.6-2.5c-2-1.6-3.1-3.2-4.2-3.2zm99.7 505.2c1-.1 2-1.6 3-2.4-1-1.1-1.9-2.6-3.1-2.9s-2 1.3-3.8 2.6c1.8 1.3 2.9 2.8 3.9 2.7zM610.5 3.7c0 1.1 1.4 2.1 2.3 3.1 1-.9 2.6-1.7 3-2.9s-1.3-2.1-2.5-3.9c-1.4 1.7-2.8 2.7-2.8 3.7zM3.5 532.1A5.1 5.1 0 0 0 0 535c-.2.6 1.6 2.9 2.6 3s2.7-1.2 5-2.5c-2-1.7-3.2-3.6-4.1-3.4zm909-375a4.9 4.9 0 0 0-3.2 3.1c-.2.7 1.8 2.8 2.9 2.9s2.5-1.5 4.8-2.9c-2.2-1.6-3.5-3.3-4.5-3.1zm-890 237.3c-.1-.9-2-2.7-2.7-2.5a4.5 4.5 0 0 0-2.9 2.8c-.1 1.1 1.5 2.3 3 4.3 1.3-2.2 2.6-3.4 2.6-4.6zm11.2-52.9c0 1.1 1.6 2 2.4 3 1.1-1 2.6-1.8 2.9-3s-1.3-2-2.6-3.8c-1.3 1.7-2.8 2.8-2.7 3.8zM106 216.2c-.9-.1-2.9 1.7-2.7 2.3s1.4 3 2.5 3.2 2.3-1.2 4.5-2.5c-2-1.5-3.1-2.9-4.3-3zM794.9 63.6c0 1 1.4 2.1 2.2 3.1 1.1-.9 2.7-1.7 3.1-2.9s-1.2-2.1-2.4-3.9c-1.4 1.7-2.9 2.7-2.9 3.7zm-26.7-7.7c.1 1.1 1.8 2.1 2.8 3.2 1-1 2.8-1.9 2.9-3s-1.3-2.4-2.7-4.5c-1.5 2-3.1 3.2-3 4.3zM30.4 716.8c-1.1.1-2 1.8-3 2.9 1.1 1 2 2.7 3.2 2.8s2.2-1.5 4.3-3c-2.1-1.4-3.4-2.9-4.5-2.7zM522 5.2c.2 1.1 2 1.9 3.1 2.8.9-1.1 2.6-2.2 2.6-3.3s-1.6-2.2-3.2-4.1c-1.3 2.1-2.7 3.5-2.5 4.6zM149.6 171.8c-1.3.2-2.4 1.8-3.6 2.8 1.1 1.1 2 2.9 3.3 3.2s2.3-1.4 4.2-2.7c-1.7-1.6-2.9-3.4-3.9-3.3zm42.5-44.1c-1.1.3-1.9 2.1-2.8 3.2 1.1.9 2.1 2.5 3.3 2.6s2.2-1.6 4.1-3.2c-2.2-1.3-3.5-2.8-4.6-2.6zm871.3 282.9c-.9-.1-2.9 1.6-2.8 2.3s1.5 3 2.6 3.2 2.3-1.3 4.5-2.6c-2-1.5-3.1-2.9-4.3-2.9zM718.2 35.3c-1.3.4-2.2 2.1-3.3 3.2 1 1 2.1 2.8 3.1 2.8s2.6-1.5 4.8-3c-2.3-1.6-3.7-3.2-4.6-3zm-313-11.2c-.2-1.4-1.8-2.5-2.8-3.7-1.1 1.1-2.8 2-3.2 3.3s1.5 2.3 2.8 4.3c1.5-1.8 3.4-3 3.2-3.9zm460.1 93c.2 1.1 2 1.9 3.1 2.8 1-1.1 2.6-2.1 2.6-3.3s-1.6-2.2-3.2-4.1c-1.2 2.1-2.7 3.5-2.5 4.6zM639.7 10c-1.1 0-2.1 1.7-3.1 2.7 1 1.1 1.8 2.8 3 3s2.3-1.4 4.4-2.8c-2-1.5-3.2-3-4.3-2.9zm-175.2.8c-1.3.2-2.4 1.8-3.7 2.8 1.1 1.1 2.1 2.9 3.4 3.2s2.3-1.4 4.2-2.7c-1.8-1.6-3-3.4-3.9-3.3zm283.1 36.8a5.2 5.2 0 0 0-2.9-3.4c-.7-.3-3 1.5-3.1 2.6s1.2 2.7 2.5 5c1.8-2 3.6-3.3 3.5-4.2zM13.5 421.3c0-1-1.5-2-2.4-3-1 1-2.6 1.8-2.9 3s1.3 2.1 2.6 3.9c1.3-1.8 2.8-2.9 2.7-3.9zm1058.8 51c-1.1.1-2.1 1.8-3.1 2.8.9 1 1.8 2.8 3 2.9s2.3-1.3 4.4-2.7c-2-1.5-3.2-3.1-4.3-3zM666.4 18.7a5.2 5.2 0 0 0-3.3 3c-.2.6 1.7 2.9 2.7 2.9s2.7-1.3 5-2.6c-2.2-1.8-3.4-3.5-4.4-3.3zM100.7 857.2c-.9.1-2.5 2.3-2.3 2.8a5.2 5.2 0 0 0 3.3 2.7c.7.2 1.8-1.6 3.6-3.2-2.1-1.1-3.4-2.3-4.6-2.3z" fill="url(#a)" data-name=" 2"></path></g></svg>