<svg xmlns="http://www.w3.org/2000/svg" width="961.3" height="693.6" viewBox="0.007921099662780762 0.0011205673217773438 961.2546997070312 693.5880737304688" style=""><g><g fill="#898989" data-name="Layer 2"><g fill-rule="evenodd"><path d="M712.7 85.3a21.6 21.6 0 0 0-6.2.9h-.3c-2.8.2-9.7 3.9-11.7 6.4L497.7 226.9c-15.3-7.7-50.2-.1-58.4 14.8-9.3 16.9-.1 42.8 6.1 53.4l71.1-11c5.9-9.5 5.8-38.5-1.8-42.8-9.1 1.3-22.7 8.4-23.2 2.3l22.7-5.8 207.5-43.9 3.3-1.5 1.2-.5.4-.2 1.2-.8.3-.2c12.7-8.7 21.6-27.8 21.6-50.1 0-30.6-16.6-55.3-37-55.3zm2.8 96.5c-15.9 0-28.8-19.3-28.8-43s12.9-43 28.8-43 28.8 19.3 28.8 43-12.9 43-28.8 43z"></path><path d="M513.7 288.8l-8.4 1.4v25.4l12.4-1.4a24.2 24.2 0 0 0 4.1-9c4-19.1-8.1-16.4-8.1-16.4z"></path></g><path d="M244.6 352.3c-1 0-1.8-1.1-1.8-2.5v-16.3a2.3 2.3 0 0 1 1.5-2.4l25.1-6.9a1.3 1.3 0 0 1 1.5.5 2.7 2.7 0 0 1 .7 2v16.5c0 1.4-.8 2.5-1.8 2.5s-1.8-1.1-1.8-2.5v-13.5l-21.6 5.9v14.2c0 1.4-.8 2.5-1.8 2.5z"></path><path d="M164.3 411l19.1-1.2h38.3s-44.7 16.9-57.4 14.4z"></path><path d="M469.9 461.4l-60.6-.3c3-21.5-7-29.9-7-29.9-20-21.4-191.4-9.6-231.6-2-5.4 1-7.5 4.1-7.9 7-5.9 44.1 1.6 49.8 10.1 61.8s99.4 70.6 185.4 86.4c34.5 6.4 85.3 1.2 97-11.5 27.3-29.4 14.6-111.5 14.6-111.5zm-301.3-2.9c-2.3 0-4.3-4.7-4.3-10.6s2-10.6 4.3-10.6 4.3 4.8 4.3 10.6-1.9 10.6-4.3 10.6zm17.7 42.1c-15.2-2.8-16.8-65.1-.5-67.4 18-2.7 18.8 70.8.5 67.4zm30.5 14.2c-18.6-3.4-20.6-79.7-.6-82.7 22-3.2 23 86.8.6 82.7zm36.7 15.5c-22-4.1-24.4-94.5-.7-97.9 26.1-3.8 27.2 102.7.7 97.9zm44.2 19.8c-25.3-4.7-28.1-108.7-.7-112.7 29.9-4.3 31.3 118.3.7 112.7zm52.4 27.9c-30.8-5.7-34.1-131.7-1-136.5 36.3-5.3 37.9 143.3 1 136.5zm37.2-70.8c-15.1-2.8-16.8-65.1-.4-67.5 17.9-2.6 18.7 70.9.4 67.5z" fill-rule="evenodd"></path><g fill-rule="evenodd"><path d="M346.3 453c-27.5 5.9-21.9 113 5.7 116.2 31.2 3.6 27.6-123.4-5.7-116.2zm7.6 73.8l-1.3-1.2c-4.6-.6-8.3-8.5-8.3-18.2s3.5-17.1 7.9-18l.5-.5c-1.3-6.3 1.3-21 5-26.5 6.1 5.5 8.2 16.3 10.7 26.6l-13.4.4h-.4c4.2 1.5 7.3 8.9 7.3 17.9s-3.3 16.8-7.6 18c.2.1 16.1 0 16.1 0-.4 11.7-3.1 26.1-5.9 28.6-8.2-5.2-11.3-17.9-10.6-27.1z"></path><path d="M294.6 446.9c-22.7 4.9-18 93.4 4.7 96 25.8 2.9 22.8-101.9-4.7-96zm6.3 61l-1.1-1.1c-3.8-.4-6.8-6.9-6.8-14.9s2.8-14.1 6.5-14.9l.4-.4c-1.1-5.3 1.1-17.3 4.2-21.9 4.9 4.6 6.7 13.4 8.8 21.9l-11.1.4h-.3c3.4 1.2 6 7.3 6 14.8s-2.7 13.8-6.3 14.8c.2.1 13.3 0 13.3 0-.3 9.7-2.5 21.5-4.8 23.6-6.8-4.3-9.4-14.8-8.8-22.3z"></path><path d="M250.8 440.6c-19.7 4.2-15.7 81.1 4.1 83.4 22.4 2.5 19.8-88.5-4.1-83.4zm5.5 53l-1-.9c-3.3-.4-5.9-6.1-5.9-13s2.5-12.3 5.6-13l.4-.3c-1-4.6.9-15 3.6-19 4.3 4 5.9 11.7 7.7 19l-9.6.4h-.3c2.9 1.1 5.2 6.4 5.2 12.9s-2.4 12-5.5 12.9h11.6c-.3 8.4-2.2 18.7-4.2 20.4-5.9-3.7-8.1-12.9-7.6-19.4z"></path><path d="M214.5 439.1c-16.7 3.6-13.2 68.5 3.5 70.4 18.9 2.2 16.7-74.7-3.5-70.4zm4.6 44.7l-.8-.7c-2.8-.4-5-5.2-5-11s2.1-10.4 4.8-11l.3-.2c-.8-3.9.8-12.7 3-16.1 3.7 3.4 5 9.9 6.5 16.1l-8.1.3h-.2c2.5.9 4.3 5.4 4.3 10.9s-2 10.1-4.6 10.9h9.8c-.2 7.1-1.9 15.8-3.6 17.2-5-3.1-6.8-10.8-6.4-16.4z"></path><path d="M184.4 438.8c-13.6 2.9-10.8 55.9 2.8 57.5 15.5 1.8 13.7-61-2.8-57.5zm3.8 36.5l-.7-.6c-2.2-.3-4.1-4.1-4.1-8.9s1.8-8.5 3.9-9l.3-.2c-.7-3.1.6-10.4 2.5-13.1 3 2.7 4 8 5.3 13.1l-6.7.3h-.1c2 .7 3.5 4.4 3.5 8.9s-1.6 8.3-3.7 8.9h7.9c-.2 5.7-1.5 12.8-2.9 14.1-4-2.6-5.6-8.9-5.2-13.5z"></path><path d="M385.5 445.4c-13.6 2.9-10.8 55.9 2.8 57.5 15.4 1.7 13.6-61-2.8-57.5zm3.7 36.5l-.6-.6c-2.3-.3-4.1-4.2-4.1-9s1.7-8.4 3.9-8.9l.2-.2c-.6-3.2.7-10.4 2.5-13.1 3 2.7 4.1 8 5.3 13.1l-6.6.2h-.2c2 .7 3.6 4.4 3.6 8.8s-1.7 8.3-3.8 8.9c.1.1 8 0 8 0-.2 5.8-1.5 12.9-2.9 14.1-4.1-2.5-5.6-8.8-5.3-13.3z"></path></g><path d="M841.4 461H718.6l17.1 32.8s-13.4 46.1-199.6 46.1l-7.2.3s6.5 6.1 45.5 10.1c62.4 6.4 181.9 7.3 205.4 3.8 75.3-11.2 61.6-93.1 61.6-93.1z" fill-rule="evenodd"></path><g><path d="M333.8 189c.1-14-4.7-27.3-10-39.3s-12.7-24.8-18.8-37.4c-1.9-3.8-6.7-.4-4.8 3.3 5.7 11.8 12.1 23.1 17.7 35s10.5 24.7 10.4 38.4c-.1 4.4 5.4 4.4 5.5 0z"></path><path d="M272 200.6c-7.6-26.2-16.5-51.1-33.4-56.9-1.8-.6-3.6 5.9-1.8 6.5 16.4 5.6 24.8 30 32.2 55.3.8 3 3.8-2 3-4.9z"></path><path d="M170.9 273c-14.3-5.8-29.3-8.1-44-11.7-3.4-.9-4.9 5.7-1.4 6.6 14.7 3.6 29.6 5.9 43.9 11.7 3.4 1.4 4.8-5.2 1.5-6.6z"></path><path d="M220.4 244.5c-10.7-13.2-23.3-23.5-35.1-34.9-2.8-2.7-6.5 2.4-3.7 5.1 11.9 11.4 24.4 21.7 35.2 34.9 2.5 3.1 6.2-2 3.6-5.1z"></path><path d="M155.8 326.8c-26.9 0-53.8-1.9-80.7-2-2.7 0-2.7 6.9 0 6.9 26.9 0 53.8 1.9 80.7 1.9 2.6 0 2.6-6.8 0-6.8z"></path><path d="M148 383.1c-19.1-.1-38.2-1.7-57.2 2.1-3.5.6-2 7.2 1.4 6.6 18.5-3.7 37.2-1.9 55.8-1.9 3.6 0 3.6-6.8 0-6.8z"></path><path d="M130 449.6c-45.3-1.7-84.6 30.9-128 41.2-3.5.8-2 7.4 1.5 6.6 42.8-10.1 81.8-42.6 126.5-41 3.5.2 3.5-6.7 0-6.8z"></path><path d="M447.5 596.2c-3.2 21.8 5.4 45.4 4.1 67.5-.2 3.9 6 5 6.2 1.1 1.2-21.5-7.5-44.7-4.3-65.8.6-3.8-5.4-6.6-6-2.8z"></path><path d="M245.2 583.2c-18.7 20.8-41.3 35.7-58.7 58.4-2.5 3.2 1.8 7.6 4.2 4.4 17.1-22.3 39.3-36.8 57.7-57.2 2.7-2.9-.5-8.5-3.2-5.6z"></path><path d="M303.1 605.8c-16.5 29.4-34.8 57.1-55.5 81.9-2.5 3.1 1.4 8 3.9 4.9 21-25.2 39.6-53.5 56.3-83.3 2.1-3.6-2.7-7-4.7-3.5z"></path><path d="M766.3 607.1c15.9.3 31.6 11.8 45.2 21s27.7 21 42.8 27.8c3.4 1.5 4.8-5.1 1.5-6.6-15.3-6.9-29.3-18.8-43.5-28.4s-29.8-20.4-46-20.6c-3.5-.1-3.5 6.8 0 6.8z"></path><path d="M580.2 584.9c3 5.7 7 10.4 11 15 5.5 6.5 11 12.9 16.1 20 2.4 3.2 6.1-1.9 3.7-5.2-4.8-6.6-10-12.8-15.3-18.9-3.9-4.5-7.9-9-10.9-14.6-2-3.7-6.6 0-4.6 3.7z"></path><path d="M894.4 485.2c19.8 12.1 42.5 14.8 64.2 12.9 3.5-.3 3.6-7.2 0-6.9-20.7 1.9-42.5-.4-61.4-11.9-3.2-1.9-6 4-2.8 5.9z"></path><path d="M935.5 445.6c3.5-.8 4.4-6.4.5-7.4s-7.4-.9-11.1-1.1-10.2-.5-15.3-.6l-5.6-.2h-1.7c-1.3-.1-.6-.5.5.4-.5 2.1-.9 4.2-1.4 6.4h1.2c3.5 0 3.5-6.8 0-6.8h-1.2c-2.7.4-3.8 4.4-1.4 6.4s4.1.6 5.6.6l11.2.4c4 .1 8.1.3 12.1.6l4.5.4c1.3.1 1.4.8.6-.4l-.8-2.4c-.2-2.8 2.9-3.3.9-2.8s-2 7.4 1.4 6.6z"></path><path d="M714.3 350.2c11.7-4.1 23.4-7.7 35.4-9.7 3.5-.5 3.6-7.4 0-6.8a208.6 208.6 0 0 0-36.8 9.9c-3.4 1.2-2 7.8 1.4 6.6z"></path><path d="M686.7 588.5a201.3 201.3 0 0 1 35.6 8.8c3.3 1.2 5.6-5.1 2.2-6.3-12.1-4.4-24.5-7.1-37-9.3-3.5-.6-4.3 6.2-.8 6.8z"></path><path d="M472.8 167.9c-3.6-21.8-2-43.4-.2-64s4.9-41.5 6.5-62.6c.2-3-3.8-4.4-4-1.4-1.6 21.4-4.6 42.3-6.6 63.6s-3.3 42.4.3 64.2c.6 3.1 4.5 3.3 4 .2z"></path><path d="M805 129.5c14.8-9.6 30.8-4.8 43.6-.5 3.5 1.1 6.7-4.9 3.2-6-15-4.9-32.6-9.5-49.6 1.7-3.6 2.3-.8 7.2 2.8 4.8z"></path><path d="M786.4 48.2c6.1-15.8 16.3-27.8 23.8-42.4 1.9-3.7-2.3-8.1-4.2-4.4-7.8 15.2-18.3 27.5-24.5 43.9-1.6 4 3.4 6.9 4.9 2.9z"></path><path d="M697 58.5c1.5-7.7 3.5-15.3 5.5-22.8s4.1-16.6 7.9-23.3c2.1-3.6-2.7-7-4.7-3.4-4 6.8-6 15.8-8.2 23.7s-4.2 15.9-5.8 24c-.9 4.3 4.4 6.1 5.3 1.8z"></path><path d="M564.8 61.1a4.8 4.8 0 0 0-.4-2c-1.1-2.2-3.6-2.1-4.7 0s-.8 4.5-1 6.4l-1.2 13.3c-.5 4.8-.9 9.6-1.4 14.5-.2 2-.4 5.7-.6 6.6l2.6-2.5c1 1.1 1.9 2.2 2.8 3.4-.2-4.4-5.7-4.4-5.5 0 .1 1.8 1.2 3.4 2.7 3.4a2.9 2.9 0 0 0 2.7-2.5c1.3-6.1 1.3-13 1.8-19.3.5-4.5.9-9 1.3-13.6.2-1.6.3-3.3.5-5s.7-2.5 0-1.2h-4.7c-.3-1.7-.4-2.2-.4-1.5.1 4.4 5.6 4.4 5.5 0z"></path><path d="M543.7 39.6v-1.9c0-1.9-1.3-3.5-2.8-3.5s-2.7 1.6-2.7 3.5v1.9c0 1.9 1.2 3.4 2.7 3.4a3.2 3.2 0 0 0 2.8-3.4z"></path><path d="M891.5 406.9V405a3.2 3.2 0 0 0-2.8-3.4c-1.5 0-2.7 1.5-2.7 3.4v1.9c0 1.9 1.2 3.5 2.7 3.5s2.8-1.6 2.8-3.5z"></path><path d="M876.7 507.8v-1.9c0-1.9-1.2-3.5-2.7-3.5s-2.7 1.6-2.7 3.5v1.9c0 1.9 1.2 3.5 2.7 3.5s2.7-1.6 2.7-3.5z"></path><path d="M390 626.3v-2c0-1.8-1.2-3.4-2.7-3.4s-2.8 1.6-2.8 3.4v2a3.2 3.2 0 0 0 2.8 3.4c1.5 0 2.7-1.5 2.7-3.4z"></path><path d="M379.4 168.7h.2c-.2 0-.7-.3 0 .1l-.3-.2c-.6-.4.4.5-.1 0a.5.5 0 0 0-.2-.4c.5.7.1.2 0 0s.2.7 0 0 0 .8 0 0-1.2-3.4-2.7-3.4a3.1 3.1 0 0 0-2.8 3.4c.1 4 2.7 7.2 5.9 7.3 1.5.1 2.7-1.6 2.7-3.4a3.2 3.2 0 0 0-2.7-3.4z"></path><path d="M175.8 554.7c-.3-.1-.3 0 .2 0s-.7-.3 0 .1l-.3-.2c-.6-.4.4.5-.1-.1l-.2-.3c.4.6.1.2 0-.1s.2.8 0 0 0 .8 0 .1-1.2-3.4-2.8-3.4a3.1 3.1 0 0 0-2.7 3.4c.1 3.9 2.7 7.2 5.9 7.3 1.5.1 2.7-1.6 2.7-3.4s-1.2-3.4-2.7-3.4z"></path><path d="M78.6 505c0-.4 0-.3-.1.2l.2-.4c.3-.6-.5.5 0 0l.3-.3c-.6.5-.1.1 0 0s-.6.2 0 0-.6 0 0 0 2.8-1.2 3-3.1-1-3.6-2.5-3.7c-3.2-.2-6 2.8-6.4 6.7-.2 1.9 1.1 3.6 2.5 3.7s2.8-1.3 3-3.1z"></path><path d="M501.5 611.6c.1-.4 0-.3 0 .3s.3-.9-.1-.1.2-.2.2-.3-.4.5 0-.1l.3-.3c-.5.6-.1.2.1.1s-.6.1 0 0-.7-.1-.1 0a3.2 3.2 0 0 0 3-3.2c.1-1.8-1-3.6-2.5-3.7-3.2-.1-6 2.8-6.4 6.7-.1 1.9 1.1 3.6 2.6 3.7s2.7-1.2 2.9-3.1z"></path><path d="M158.8 532.5c0-.4 0-.3-.1.2.1-.1.1-.2.2-.4l.3-.3c-.5.5-.1.1.1 0s-.6.2 0 0-.7 0-.1 0a3 3 0 0 0 3-3.1c.1-1.8-1-3.6-2.5-3.7-3.2-.2-6 2.8-6.4 6.7-.2 1.9 1.1 3.6 2.5 3.7s2.8-1.3 3-3.1z"></path><path d="M654.8 317.7c0-.4 0-.3-.1.2s.3-.8 0 0l.2-.4c.3-.6-.5.5 0 0l.3-.3c-.6.5-.2.1 0 0s-.6.2 0 0c1.5.1 2.8-1.2 2.9-3.1s-1-3.6-2.5-3.7c-3.1-.2-6 2.8-6.3 6.7-.2 1.9 1 3.6 2.5 3.7s2.8-1.3 3-3.1z"></path><path d="M609 274.2c0-.4 0-.3-.1.3s.4-.9 0-.1l.2-.4.3-.3c-.5.6-.1.1.1 0s-.6.2 0 0h-.1a3 3 0 0 0 3-3.1c.1-1.8-1-3.6-2.5-3.7-3.2-.2-6 2.8-6.4 6.7-.2 1.9 1.1 3.6 2.5 3.7s2.8-1.3 3-3.1z"></path><path d="M501.5 574c.1-.3.1-.3 0 .3s.3-.9-.1 0 .2-.3.2-.4-.4.5.1-.1l.2-.2c-.5.5-.1.1.1 0s-.6.2 0 0-.7-.1 0 0a3 3 0 0 0 2.9-3.1c.1-1.9-1-3.7-2.5-3.7-3.2-.2-6 2.7-6.3 6.7a3.3 3.3 0 0 0 2.5 3.7c1.5.1 2.7-1.3 2.9-3.2z"></path><path d="M442.7 300.1c-7.7-13.7-14.3-32.9-9.2-54.5a31.7 31.7 0 0 1 4.5-8.8c2.6-3.4 8.7-8.8 27.4-13.8l-18.4 2.6v-19c-.4-.9-3.1-1.6-6.4-1.6s-6.1.7-6.4 1.6h-.1v20.8l-8 1.1s-19-12.3-33.2 4.4l-40.2 5.2s-46.3 5.3-66.7 88.5v12.6l214.5-22.9v-25.1zm-59.4-44.6c.4-3.9 3.2-6.9 6.4-6.7 1.5.1 2.6 1.9 2.5 3.7s-1.5 3.2-2.9 3.1h-.1l-.2.2h-.1c0 .1-.1.1-.1.2-.3 1.8-1.5 3.1-3 3a3.4 3.4 0 0 1-2.5-3.5zm-1.7 52.7L362.9 293l-20.2 15.2 9.9-23.5-14.8-12 20.4-1.4 8.4-19.9 5.1 19 23.1-1.5-19.6 14.8z" fill-rule="evenodd"></path><path d="M737.1 237.1c.1-.4.1-.3 0 .2s.3-.8-.1 0l.2-.4c.4-.6-.4.5.1 0l.3-.3c-.6.5-.2.1 0 0 .6-.2-.6 0 0 0s2.8-1.2 2.9-3.1-1-3.6-2.5-3.7c-3.1-.2-6 2.8-6.3 6.7a3.3 3.3 0 0 0 2.5 3.7 3 3 0 0 0 2.9-3.1z"></path><path d="M801.2 371.7c-127.8 17.4-140.1 3.8-140.1 3.8l-87.5-49.1h-.8a.1.1 0 0 0-.1.1c-.2 1.8-1.4 3.2-2.9 3s-2.7-1.8-2.5-3.7a9.5 9.5 0 0 1 .8-3l-13.8-7.7s-219.9 20.8-276.7 26.5c-44.4 4.4-50.4 10.4-50.4 10.4l-47 61.4s152.6-5.4 190.1-5.4c55.3 0 46.4 47.5 46.4 47.5h54.7l40.9-.2c-8.5-47.6-48.7-65.4-48.7-65.4 44.1 8.1 57.5 70.6 57.5 70.6h-44.4c2.1 10.3 4.1 32.8 4.1 32.8h254.9l-7.1-32.4c-17.4-50.5-59.5-65.1-59.5-65.1 83.4-9.9 83.4 55.9 83.4 55.9l101.8-.2c8.3-81.9-53.1-79.8-53.1-79.8zM281.4 395h-27.8a16.2 16.2 0 0 1-7.7-2.4l-8.7-6c-1.9-1.3-1.5-2.4.8-2.4h28.4a14.9 14.9 0 0 1 7.6 2.5l8.2 5.8c1.9 1.4 1.5 2.5-.8 2.5zm55.7 0h-35.9a17.9 17.9 0 0 1-7.8-2.2l-10.9-6.6c-2-1.2-1.7-2.2.6-2.2l39.3-.2a14.9 14.9 0 0 1 7.6 2.5l8 6.1c1.8 1.4 1.4 2.6-.9 2.6zm10.4-34.1l-4.3 27.6c-.4 2.2-2.1 2.9-3.9 1.4l-7-5.8a8.1 8.1 0 0 1-2.5-6.9l4-22.1a3.2 3.2 0 0 1 4.6-2.5l5.9 2.5a5.8 5.8 0 0 1 3.2 5.8zm68.2 2.6l-.2.2h-.1c-.1.1-.1.1-.1.2a.1.1 0 0 1-.1.1c-.2 1.8-1.4 3.2-2.9 3s-2.7-1.8-2.5-3.7c.4-3.9 3.2-6.9 6.3-6.7 1.5.1 2.7 1.9 2.6 3.7s-1.5 3.3-3 3.2zm76.3-10.2c0 1.9-1.2 3.4-2.7 3.4a3.2 3.2 0 0 1-2.8-3.4v-2c0-1.8 1.3-3.4 2.8-3.4s2.7 1.6 2.7 3.4zm80.1 66.8a30 30 0 0 0-12.8-2.7c-6.9 0-12.9 2-16 4.8-3.4-1.7-5.6-4-5.6-6.6 0-5.1 8.3-9.3 18.4-9.3s18.5 4.2 18.5 9.3a6.3 6.3 0 0 1-2.5 4.5zm14.8-30.6l-.3.2h-.1c0 .1-.1.1-.1.2-.2 1.8-1.4 3.1-2.9 3a3.3 3.3 0 0 1-2.5-3.7c.3-3.9 3.2-6.9 6.3-6.7 1.5.1 2.7 1.9 2.5 3.7a3 3 0 0 1-2.9 3.3zm60.1 27.9c-7 0-12.9 2-16.1 4.8-3.4-1.7-5.5-4-5.5-6.6 0-5.1 8.2-9.3 18.4-9.3s18.4 4.2 18.4 9.3a6.2 6.2 0 0 1-2.4 4.5 30 30 0 0 0-12.8-2.7zm22.3 50.1c-.1 1.9-1.4 3.2-2.9 3.1l-.3.2h-.1c0 .1 0 .1-.1.2-.2 1.8-1.4 3.2-3 3s-2.6-1.8-2.5-3.7c.4-3.9 3.2-6.9 6.4-6.7 1.5.3 2.6 2.1 2.5 3.9z"></path><path d="M796.6 150.1l1.3-1.5c1.2-1.4 1.2-3.4.1-4.3s-3.1-.7-4.3.8l-1.3 1.4c-1.2 1.4-1.3 3.4-.1 4.4s3.1.6 4.3-.8z"></path><path d="M770.5 75.9c-.3 0-.3 0 .2.1l-.4-.2c-.5-.4.5.5 0 0l-.2-.4c-.3-.7.2.7 0 0s0 .8 0 0-1.2-3.4-2.8-3.4-2.8 1.6-2.7 3.4c.1 4 2.7 7.2 5.9 7.4 1.5 0 2.7-1.7 2.7-3.5a3.2 3.2 0 0 0-2.7-3.4z"></path><path d="M248.4 259.7c-.3 0-.3 0 .2.1l-.4-.2-.2-.3c.4.6.1.1 0-.1s.2.7 0 0 0 .8 0 0-1.2-3.4-2.8-3.4-2.8 1.6-2.7 3.4c.1 4 2.7 7.2 5.9 7.4 1.5 0 2.7-1.6 2.7-3.5a3.2 3.2 0 0 0-2.7-3.4z"></path><path d="M205.3 182.7c-.3 0-.2 0 .3.1s-.7-.4-.1 0l-.3-.2-.3-.4c.5.7.2.2.1 0s.1.7 0 0 0 .8 0 0-1.2-3.4-2.8-3.4-2.8 1.6-2.7 3.4c.1 4 2.7 7.2 5.8 7.4 1.5 0 2.8-1.6 2.8-3.5a3.2 3.2 0 0 0-2.8-3.4z"></path><path d="M402 115.3c3-17.4-4.6-33.1-9.5-48.8-1.2-4-6.5-2.3-5.3 1.9 4.4 14.1 12.2 29.4 9.5 45.1-.8 4.3 4.5 6.1 5.3 1.8z"></path></g></g></g></svg>