<svg xmlns="http://www.w3.org/2000/svg" width="747.2" height="1080" viewBox="-0.014401713386178017 -0.000028848648071289062 747.2145385742188 1079.9989013671875" style=""><g><g fill="#121212" data-name="Layer 2"><path d="M432.3 1072.8c-1.8.8-3.2 1.8-4.7 2.1s-3.3-.4-4.9-.3a4.2 4.2 0 0 0-2.5 1.4c-.5.5-.8 1.2-1.6 1.7-2.3 1.6-4.5 3.2-7.6 1.7a7.6 7.6 0 0 0-1.4.1c-4.1 0-8.3.3-12.2-1.6a12.9 12.9 0 0 0-4.8-1 9.1 9.1 0 0 1-5.5-2.1l-3.1-2.5a15.7 15.7 0 0 0-7.3-3.9 13 13 0 0 1-5.3-2.5 5.9 5.9 0 0 0-3.5-1.4 20.9 20.9 0 0 1-3.5-.4 5.8 5.8 0 0 1-2.3-.9c-3.2-2.8-6.4-5.6-9.5-8.6a10.4 10.4 0 0 1-1.7-3.5c-.8-2.5-1.5-5.1-2.2-7.6a32.9 32.9 0 0 1-1.5-8.3 31.9 31.9 0 0 0-2.2-9.6 7.2 7.2 0 0 0-1.6-3c-2.1-2-2.9-4.5-3.5-7.1-1.1-4.4-2.7-9-2.8-13.5s-1.3-11.8.5-17.7c1.1-3.6 1.2-7.5 2.2-11.2 1.7-6 1.8-12.4 4.6-18.2 1.2-2.7 1.4-5.8 2.1-8.7.2-.6.1-1.4.5-1.9 2.2-2.7 2.1-6.2 3.3-9.2a74.1 74.1 0 0 0 2.4-7.6c.8-2.9 1.3-5.8 2-8.7a8.4 8.4 0 0 1 .9-2.8c2.1-2.9 2.9-6.3 3.9-9.6a8.3 8.3 0 0 0 .4-1.5c2.4-6.3 4.9-12.6 7.2-19 1.6-4.5 3.2-9 4.4-13.7a96.3 96.3 0 0 1 5.8-15.8c2.2-5 4-10.1 6-15.2a131 131 0 0 0 6-17.3c.7-3 2.5-5.8 3.8-8.7a9.2 9.2 0 0 0 .9-2.3c.6-4.8 2.8-9.1 4.9-13.4a22.1 22.1 0 0 0 1.8-6.2 36 36 0 0 1 3.2-10.1 81 81 0 0 0 3.4-10.9c1.8-7.2 3.5-14.4 5.3-21.6.4-1.8.7-3.6 1.1-5.4a6.3 6.3 0 0 1 1.5-2.6c-.3 1.3-.6 2.5-.8 3.7s-.4 2.3-.6 3.4c-.5 2.9-.7 5.6 2.6 7.6a11.4 11.4 0 0 0 1.5-1.6c.5-1.1.9-2.2 1.4-3.2 2.2-5.5 3.8-6.5 9.8-6.3 1.2-1.9 2.7-3.5 5.3-3.9s2.5-1.5 3.8-2.2a13.4 13.4 0 0 1 2.7-1.3c1.2-.3 2.7-.1 3.8-.6a54.2 54.2 0 0 0 5.4-3.2c.3.8.7 1.6 1 2.5s.5 2.2.8 3.2c3.9.3 5.2 0 9.3-1.9l5.3 2.8 3.4-2.4.9.6c.7.6 1.4 1.9 2 1.9 3.6-.2 6.4 1.3 9 3.4l5-1.2a19.4 19.4 0 0 1 6.8-.2c3.6.3 7.3.3 10.9 1.1a49.9 49.9 0 0 1 7.5 2.3c1.3.5 2.2 1.8 3.3 2.8l5.8 5.5a8.6 8.6 0 0 1 2 3.3c1.4 3.6 2.4 7.2 4 10.7a8 8 0 0 1 .2 5.3c-.6 2.4-.3 5-.5 7.4-.9 7.3-2 14.4-3.5 21.6s-2.6 14.3-3.8 21.5a2.5 2.5 0 0 1-.1.9c-1.5 1.7-1.2 3.7-1.3 5.6s-1 5.8-1.9 8.6-1.9 8.4-2.9 12.6c-.4 1.6-.9 3.1-1.3 4.7-1 3.9-2.1 7.7-3.1 11.5-2.4 9.5-4.6 19-7.2 28.5a78.4 78.4 0 0 0-1.8 8.1 30.9 30.9 0 0 1-1.8 5.1 219.3 219.3 0 0 0-5.6 22.6 23 23 0 0 1-1.2 4.3c-1.3 3-2.5 6.1-2.4 9.5-1.6 2.2-1.6 4.9-2.4 7.4a3.6 3.6 0 0 1-.4.9c-1 1.6.6 3.5-.8 5.2s-1.5 3.3-2.2 4.9c-2.7 6.6-4.3 13.6-6.2 20.4-.7 2.3-2.3 4.5-1.4 7.2a1.2 1.2 0 0 1-.5.8c-2.8 1.9-2.4 5.3-3.8 7.8s-.9 3.2-1.6 4.7a20.7 20.7 0 0 0-2.2 10.1 3.9 3.9 0 0 1-1.6 3.8c-1.8 1.3-2 3.4-1.4 5.4s.4.9.5 1.4c.4 2.2-.3 3.6-2.5 4a3.5 3.5 0 0 0-2.9 2.3 124.3 124.3 0 0 0-5.3 14.4 19.9 19.9 0 0 0-.5 4.9c-.2 3.4-.4 3.6-3.9 4.5s-5.8 2.4-6.3 6.1a2.1 2.1 0 0 1-2.2 2.2c-3.7-.3-5.2 3.2-7.9 4.5-.7.3-.8 1.7-1.1 2.6z"></path><path d="M78.6 1003.6c-1.1-2.4-2.2-4.8-3.3-7.4-3.8 4.9-3.8 10.9-5.8 16.5l-6.9-5.8a3.5 3.5 0 0 1-1.2-1.5 6.8 6.8 0 0 0-4-4.1 6.3 6.3 0 0 0-5.7.3l-3.3-2.4-2.7-2.1c-.9.4-.7 1-.5 1.6s1.5 1.8.8 3.4a5.6 5.6 0 0 1-1.5-1 45.9 45.9 0 0 1-3.6-4.1c-1.6-2-3.2-3.8-6-4a4.3 4.3 0 0 1-3.2-2.2l-5.1-7.9c-.9-1.6-1.7-3.2-3.7-3.8s-1.8-1.8-2.1-3.2c-1.6-6.4-3.5-12.7-6.9-18.5a42.1 42.1 0 0 1-3.9-9.6c-1.1-3.8-2.6-7.1-5.6-9.3-1-5.3-2.1-10.3-2.9-15.4A98.4 98.4 0 0 1 0 909.8c-.2-8.3 1.7-16 4.6-23.7s4.3-12.9 6.5-19.3c1.6-4.5 3.4-8.9 5.1-13.4a6.7 6.7 0 0 0 .7-1.8c1-7.6 4.9-14 7.8-20.8s4.3-11.1 6.8-16.5c1.1-2.6 2.3-5.1 3.4-7.7s1.1-2.4 1.6-3.6l3.9-9.7c2.4-5.6 4.9-11.2 7.4-16.8 4.2-9.4 8.3-18.8 12.6-28.1 2.6-5.4 5.7-10.5 8.2-15.9a186.7 186.7 0 0 0 7.1-17.4c1.1-3.4 1.1-7.2 1.5-10.8s.3-4.7.5-7a21.1 21.1 0 0 1 2.7-8.6c3.8.5 6.2-1.4 8-4.8l1.5 1.3a7.5 7.5 0 0 0 6.3 3.4c2.3.2 4.5.8 6.8 1.2l6.4.8 7.6.8 5-4.5a14.2 14.2 0 0 0 7.4 5.7c1.1 4.8 1.7 10 7.6 11.3.2 1.3.4 2.4.6 3.5 2.7-.6 2.7-.6 5.5-3.7l3 2.3 3.2 2.7 3.4-1.9c.6 2.7 1.1 5.2 1.7 7.7l5.3 3.1 2.9-1.5c2.4 2.7 4.6 5.4 7 7.9a3.7 3.7 0 0 0 2 1.3c4.7 1 6.3 4.5 7.4 8.5s1.5 5.8 2.3 8.6a5.1 5.1 0 0 0 1.4 2.5c2.2 1.3 3.1 3.4 3.8 5.6s2.2 5.3 1.6 8.2l-4.3 4.1c.1 2.3.3 4.6.4 6.9-2.6 2.4-2.6 2.4-3.2 9.6-3.3 1.3-4 4.3-4 7.6a6.9 6.9 0 0 1-1.3 4.1 8 8 0 0 0-1 3.8 99.7 99.7 0 0 1-6.6 27.4c-3.8 10-8.3 19.5-12.5 29.3-1.4 3.3-2.4 6.8-3.6 10.3a2.2 2.2 0 0 0 0 1.4c1.1 2.9-.3 5-1.5 7.5-2.1 4.6-4.8 9-5.4 14.2a10.6 10.6 0 0 1-.6 1.9c-2.9 6.2-5.9 12.3-8.4 18.6s-6.6 13.2-9.2 20.2c0 .2-.1.3-.2.5-4.2 6.9-7.1 14.5-10.9 21.6-5 9.2-9.7 18.6-14.4 27.9-2.7 5.3-4.9 10.8-8 15.9s-5.3 7.1-8.3 10.4c-.8.9-2.3 1.3-3.5 1.7a10 10 0 0 1-3 0z"></path><path d="M625.3 645c3.6.4 7.3-.2 10.7 1.4a4.4 4.4 0 0 0 2.5.4c4.8-1.4 8.8 1.3 13.1 2.7l3.9 1.5 1.9-2.8a40.9 40.9 0 0 1 5.6 1.8c3.3 1.6 5.9.5 6.7-3 .2-1 .2-2 .5-3s.4-1.1.7-2.1a13.9 13.9 0 0 1 2.1 1.7 5.2 5.2 0 0 0 3.3 2c1.6.3 3.1.5 4 2.4s2.3.7 3.7 1.1l1.7-3c3.7.7 3.7.7 6.3-.4l3.7 3.3c2-.2 4.1-.2 5.9 1.4 4.6.6 8.4 3.3 12.5 5.4a6.9 6.9 0 0 0 3.2.8 17.1 17.1 0 0 1 13.4 7.4c.8 1.1 2 2.1 2.3 3.3.8 3.3 3.4 4.6 6.1 6a14 14 0 0 1 3.2 2.2 5.1 5.1 0 0 1 1.9 3.4c.2 2.5.6 4.9.9 7.4.1.3.1.6.2.9 2.9 5.1 1.5 10.6 1.9 15.8l-3.1 3.5-2.5.3a8.9 8.9 0 0 0-.3 1.4c.5 3.8 1.2 7.5 1.7 11.3.6 5.5-.6 10.9-1.1 16.3s-1.1 8.5-1.8 12.8-1.4 6.4-2.1 9.7l-2.4 12.6a3.8 3.8 0 0 1-.3 1c-3.4 7.9-5.1 16.4-7.3 24.7s-4.4 13.9-6.5 20.8-4.4 11.8-6.6 17.7c-1.3 3.5-2.7 7.1-3.9 10.7a95 95 0 0 1-5.6 13.2c-2.8 5.5-5.2 11.1-7.6 16.7a88.2 88.2 0 0 1-11.6 20.2 25.4 25.4 0 0 0-3.7 6.4c-1 2.7-2 3-5 2.6l-4.2-.5a29.3 29.3 0 0 1-3.3 5.6c-1.8 2.2-1.9 4.9-1.1 7.6s-.4 4.6-1.7 6.8c-5.1-4-4.4-3.7-11.4-3.4a7.7 7.7 0 0 0-7-2.5c-2.4.3-4.8-.5-7.3-.1a7 7 0 0 1-5.6-1.5 9.8 9.8 0 0 0-4.1-1.6 17.7 17.7 0 0 1-8.4-5c-3.2-3.6-6.8-6.8-10.2-10.2a38 38 0 0 1-8.3-11.1c-1.3-2.6-3.4-4.9-5-7.4a90.3 90.3 0 0 1-5.2-8.4 22.1 22.1 0 0 0-5.9-7.3 6.4 6.4 0 0 1-2.4-3c-1.1-2.7-2.3-5.5-3.5-8.2s-2.7-6-4.2-8.9a32.8 32.8 0 0 1-3.8-16.2c0-4-.2-7.9.7-11.9s0-6.3-.8-9.3a7.4 7.4 0 0 1 .1-5.3c.8-2.2 1.7-4.3 2.5-6.5.2-.6.7-1.2.7-1.8.3-4.3 2.6-7.8 3.5-11.9a27.9 27.9 0 0 1 2.4-6l6-14.1a9.8 9.8 0 0 0 .8-2.8 10.9 10.9 0 0 1 2.3-5.4 7.8 7.8 0 0 0 1.8-4.6 25.1 25.1 0 0 1 2.7-8.4c1.7-3.4 2.8-7.1 4.9-10.3a6.2 6.2 0 0 0 .7-1.9c.7-2.7 1.7-5.3 2.2-8.1a105.8 105.8 0 0 1 3.2-13.5 28.3 28.3 0 0 1 2.1-5.5 28.4 28.4 0 0 0 2.2-6.6c.8-3.5 1.4-7.1 3.3-10.3a13.2 13.2 0 0 0 1.3-4.8 85.3 85.3 0 0 1 4.1-15.8 28 28 0 0 0 1.2-10.3 18.2 18.2 0 0 1 2.5-9.5z"></path><path d="M234.6 516.6a8 8 0 0 0-5.8-2.4 9.7 9.7 0 0 1-7.1-3.1 46.8 46.8 0 0 0-4.6-4.3c3.1-5.4 2.9-5.4 1-11.6-1-3.5-1.6-7.1-2.3-10.7s-1.4-7.8-3.2-11.4a12.5 12.5 0 0 1-.5-2.9c-.2-.6-.2-1.5-.6-1.8-2-1.3-2.3-3.3-2-5.3.6-4.4-.5-8.5-1.4-12.7s-1.8-10.8-2.5-16.2a7.1 7.1 0 0 1 .2-2.5 68.6 68.6 0 0 0 1.3-12.8 10.3 10.3 0 0 1 .6-3.9c2.8-8.3 5.7-16.6 8.6-24.8l3.3-8.9a23.2 23.2 0 0 1 1.6-3.6 20.2 20.2 0 0 0 3-7.3 9.8 9.8 0 0 1 .9-2.9c3.7-7.5 5.4-15.6 7.4-23.6.6-2.4 1.6-4.8 2.2-7.2l3.6-15.4c.8-3.3 1.7-6.5 2.6-9.6 1.9-6.2 3.9-12.3 5.7-18.5a47.6 47.6 0 0 0 1.1-6.4c1-5.2 2.1-10.4 2.8-15.6.4-3 2-4.8 4.5-5.4s5.2-3.1 6.1-6.3c.1-.4.7-.6 1.3-1.2v5.6a3.7 3.7 0 0 0 4.3-.1c1.9-1.5 4.1-.5 6.1-1.2s2.5.3 3.7.5l2.4-1.9c1 1.5 2 2.7 2.9 3.9 2.5-.9 2.2-3.5 4-4.9.4.3 1.2.5 1.3 1 1.1 3.7 3.5 5.3 7.2 5.5a6.2 6.2 0 0 1 4.6-2.6c.5 1 1 2 1.5 2.8s1.1-1 1.4-1.7 2.1-2.6 3.7-1.3 1.1 1.2 1.7 1.7 2.6 3.5 5.2 2.6l4.7 2.3a11 11 0 0 0 1.5-2.5 5.4 5.4 0 0 1 4.7-3.3l1.4 1.2c.5.5.7 1.2 1.2 1.7 2.7 2.8 4.1 3 7.7.8 1.3.8 2.2 2.3 4.2 1.9s1.8.8 2.7 1.2a3.2 3.2 0 0 0 3.9-.9 14.1 14.1 0 0 0 2.6-5.5c.9.5 1.9.8 2.3 1.4a61.4 61.4 0 0 1 3.1 6.3c.5 1.2.6 2.6 1.1 3.7 2.8 5.9 5.7 11.6 8.5 17.4a4.9 4.9 0 0 1 .5 2.4 109.8 109.8 0 0 0 .7 12.8 57.9 57.9 0 0 1-1.2 20.7 6.7 6.7 0 0 0-.4 2.4c.4 5.2-1.3 10.1-1.3 15.2a48.7 48.7 0 0 1-.6 5.5c-.4 3.3-.7 6.5-1.1 9.8-.2 1.3-.3 2.7-.6 3.9-1 5.2-2.5 10.4-3 15.7s-2 10.3-2.9 15.5-2.8 11.2-4 16.9c-.8 3.7-1.7 7.4-2.5 11.2a31.9 31.9 0 0 0-.6 5.4c.1 4.4-2.1 8.2-3.1 12.3-1.6 6.5-4.7 12.3-7.2 18.4-1.1 2.9-2.3 5.8-3.5 8.7-2.2 4.8-4.1 9.7-6.8 14.3s-4.5 9.5-6.7 14.3a140.3 140.3 0 0 1-12.7 21.9 8 8 0 0 1-2.9 2.6c-4.1 2-5.7 5.3-5.5 9.7a4.5 4.5 0 0 0-2.6 3.8 50.1 50.1 0 0 1-1.9 6.8 10.7 10.7 0 0 1-3.4-.7 39.9 39.9 0 0 0-11.7-4.2 6.2 6.2 0 0 1-4.9-4.3l-1.6-.2c-5.7.1-10.8-1.3-15.1-5.2a27.8 27.8 0 0 0-4.7-2.8l-3.4 1.5a41.7 41.7 0 0 1-4.1-4.3 25.2 25.2 0 0 0-8.6-7.3z"></path><path d="M548.2 296.5a1.1 1.1 0 0 0 1.5-.8.7.7 0 0 0-.1-.5c-1.1-5.6-1.1-5.6.1-10.2-.8-1.1-2.3-2.1-2.5-3.4a15.4 15.4 0 0 1 .1-6.4 77.1 77.1 0 0 0 1.8-10.7c.1-1.4.3-2.3-.6-3.6s-.2-2.5.2-3.8.9-3.8.1-5.8c-.1-.2-.5-.4-.9-.8-1.9 1.2-2.6 3-2.9 5.3-.4 3.8-1.3 7.5-1.8 11.3a10.3 10.3 0 0 1-3.7 6.7l-2.5 2.3c-2.3.8-3-1.6-5-2.4-.2 2-.7 3.8-.5 5.5a26.3 26.3 0 0 1-3.2 13.8c-.8 1.6-.8 3.5-1.3 5.3a6.1 6.1 0 0 1-.7 1.4c-1.3-.3-1.2-1.1-1.3-1.6-.1-4.9-.2-9.7-.1-14.5 0-1.1.8-2.1 1-3.3s.1-2.5-1.1-3c-2.9-1.2-3.9-3.9-5.3-6.3s-1.2-2.3-2.7-2.6-1.4-1.3-1.7-2.3-.7-2.2-2.5-2.5a4.4 4.4 0 0 0-.6 1.6v8.4a52.1 52.1 0 0 0-.2 7.9c.3 2.6 1.5 5.1 2 7.7s1.4 5.4 1.2 8.5a6.5 6.5 0 0 1-5.3-4.2c-.8-1.9-1.5-4-2.4-6.3l-2.6.7-2.7 1.3c-.7 2.2 0 4.6.6 7a44.4 44.4 0 0 1 1.5 5.2c.1.5-.6 1.2-1 1.9s-1-.5-1.1-.7c-.4-4.6-3.7-8.4-3.7-13.7l2.6 4.4a10.5 10.5 0 0 0 .5-2.6c-.5-3.5.4-7.4-2.9-10.2a54.5 54.5 0 0 1-1.4-5.8c-.6-3.2-1-6.5-1.6-10.3a11.7 11.7 0 0 0-1.3 2.4 5.7 5.7 0 0 0-.1 2.9c2.2 5.5-.5 10.8 0 16.5-.7-.5-1.3-.6-1.4-1a13.5 13.5 0 0 1-.9-3.3 16.6 16.6 0 0 0-2.1-7.1 8.3 8.3 0 0 1-.9-4.7c.2-2.1-.5-4-1-5.9s-2.1-6.2-3.2-9.6h-2.1c-1.1-6.7-3.3-13.1-5.4-19.5-.4-1.4-.7-2.9-1-4.3a39 39 0 0 0-1.3-6.3 37.2 37.2 0 0 1-2.1-9.2 43.6 43.6 0 0 0-1.7-7.8 41.8 41.8 0 0 1-1.7-12.2 20.9 20.9 0 0 0-.1-2.5c-1.4-7.1-.6-14.2-.2-21.3.4-8.8 1.3-17.5 2.4-26.2s2.2-15.4 3.3-23.1l3.6-23.1c.8-6 1.6-11.9 2.3-17.8.3-2.1.5-4.3.7-6.4s.9-6.6 2.9-9.4a8.8 8.8 0 0 0 1.2-3.2q1.1-5.4 1.8-10.8a6.8 6.8 0 0 1 1.5-3.6c5.8-5.8 9.6-13 12.9-20.4.7-1.7 1.5-3.3 2.3-5a43.3 43.3 0 0 1 6.2-10.6c2.6-3 4.7-6.3 7.1-9.6 1.8 1.9.9 3.7.7 5.8.9-.2 1.9-.1 2.3-.6s3.3-4.1 5-6.2c.3-.4.8-.7 1.4-1.3.5 3.4-2.6 5.7-1.8 8.7a1.7 1.7 0 0 0 2.7 0c1.1-1 2.1-2.2 4.1-2.2 2.4 2.2 5.1 4.6 8.9 1.3a6.1 6.1 0 0 1 .1 1.8c-1.2 2.8-1.6 5.4 1.3 7.5.6.5.6 1.6 1.2 2.2a21.3 21.3 0 0 0 2.5 1.7l4.3-4.2c2.3 1.7.1 3.9 1.1 6a4.3 4.3 0 0 0 4.1 1.3 3.3 3.3 0 0 1 3.1 1c1.2 1.1 1.4 1 3.4-.4l2 1.7a39.7 39.7 0 0 0-.7 4.8c-.1 1.5 0 2.9 0 4.2a2.9 2.9 0 0 0 3.5.2l4.4-2.9c2.9 3 3.8 6.7 4.3 11 4.6 3.2 8.1 7.8 11.3 12.6a4.2 4.2 0 0 0 5.2 1.8 30.8 30.8 0 0 0 4.7-1.9c2 1.8 2.2 4.1 2 6.4s-.9 6.5-1.2 9.8a33.9 33.9 0 0 0-.2 4.5c-.1 3-.2 5.9-.2 8.9-3.3.2-4.4 2.2-4.8 4.8-1 4.9-1.8 9.8-3 14.6s-3.1 10.9-4.9 16.2c-3.2 9.2-6.7 18.4-9.6 27.7-1.4 4.4-1.8 9.1-2.4 13.7-1.4 10.5-2.6 21-3.9 31.6-.1 1-.2 2 .7 2.7s.9 2.4.6 3.7a15 15 0 0 1-1.5 4.2c-2.2 3.4-2.4 7.2-2.8 10.9-1.6 13.2-1.9 26.5-3.3 39.7-.3 3.3-.4 6.6-.8 9.9a25.6 25.6 0 0 1-1 4.8c-3.1 9.3-6.3 18.5-9.6 27.9l-2.2-1.7zm-53.7-36.3c0 .1-.1.2-.1.4h.5a.6.6 0 0 0-.1-.4z"></path><path d="M500.5 471.9l-3.6 1.3c-.4-.4-.8-.6-.8-.9a32 32 0 0 1-.1-4.4c1-7.7 1.9-15.4 3-23.1s1.9-14.1 3-21.1c.5-2.8 1.5-5.4 2.2-8.2 1.7-7.2 3.3-14.5 5-21.8 1.5.4 1.6 1.6 2 2.6a11 11 0 0 0 1.5 2.5c3.9-1.4 4.6-5.4 7.2-7.6.8-3.2 1.5-6.3 2.3-9.5 1.3-.2 1.2.9 1.6 1.5a14.6 14.6 0 0 1 1.6 1.9l1.1 2.2 3.9.6c3.2.4 3.5.1 4.8-2.9a10.1 10.1 0 0 1 .9-1.8c.1-.2.5-.1 1.1-.3s.1 1.3.2 1.9.3 1.2.4 1.7c1.7.5 2.7-.4 3.7-1.3a6.2 6.2 0 0 1 6.3-1.4c3.8 1.1 7.6-.1 11.2-1.4 1.4-.5 2.4-2.1 3.6-3.3s2.9 1.1 4.6 1.7l3.2-1.4c1.5 1.5 3.4 1.6 5.5 1.2a10.3 10.3 0 0 1 3.9.1c.6 0 1.5.3 1.7.8.8 2 2.6 1.6 4.2 1.7a4 4 0 0 0 3.7-2c.1-.3.5-.5.7-.6l4.1 1.6a6.2 6.2 0 0 0 4.8-.2c1.8-.7 2.3-2 2.8-3.8s2.2-2.8 4.2-1.8l3.4 2c.4 2.9.8 5.9 1.1 8.8a10.3 10.3 0 0 1 0 3.5c-1.3 6.6-1 13.2-1.1 19.8a297.3 297.3 0 0 1-1.9 32.7c-.9 6.6-1.5 13.2-2.6 19.7s-2.2 12.4-3.5 18.5-2.4 10-3.7 15c-2.7 10.5-5.3 21.1-8.2 31.6-1.3 4.8-3.1 9.5-4.7 14.2s-2.2 7.6-3.5 11.3a35.5 35.5 0 0 0-1.5 7.2 8 8 0 0 1-1.7 4c-1.8 2.4-3.4 4.9-3.7 8-.1 1.2-.4 2.7-1.9 3.3s-1.1 1.5-1.4 2.5c-1.2 4.3-2.5 8.5-3.8 12.8-.6 2.1-1.2 4.1-2 6.4a12.6 12.6 0 0 1-10-2.3 36.8 36.8 0 0 1-3.8-3.1 5.1 5.1 0 0 0-4-1.5c-1.8.1-3.8-.8-5.6-1.6s-5.5-2.4-8.5-2.4a14.2 14.2 0 0 1-8.6-3.6c-4-3.4-7.9-7-11.8-10.5-1.3-1-1.6-2.5-1.8-4a40.3 40.3 0 0 1-.3-4.9c0-4.4-1.7-8.4-2.6-12.5-.1-.7-.7-1.3-.6-1.9.2-4.1.4-8.3.8-12.4.2-1.6.2-2.9-1.5-3.6a2.5 2.5 0 0 1-1.6-2.3 33.9 33.9 0 0 1-.2-4.5c.1-2.6.7-5.2-1.1-7.7-.3-.4 0-1.3-.1-1.9s-.3-1.9-.8-2.2-1.3-1.8-1.1-3c.4-5.1 1.1-10.2 1.2-15.3a64.5 64.5 0 0 0-1.3-15.8 20.1 20.1 0 0 1 0-4.9c0-1.3.2-2.7-1.5-3.9z"></path><path d="M343.1 602.8l.8-.6c2.3 0 4.5-2.4 6.6-1.3s3.4 3.1 5.1 4.8c1.8-.2 3.4-.7 5.3.2s4.2-.2 6.1-.7l3.5-4.8.7.2a22.1 22.1 0 0 1-.7 4.6 24.2 24.2 0 0 0-1 8.4c0 3.8.3 7.6-1.4 11.1a10.4 10.4 0 0 0-.2 5.7l5.5 1.5c-.2 3 .1 6.1-.4 9.2s-.9 6.2-1.2 9.4a40.4 40.4 0 0 0 0 9.2c.6-1.9 1.3-3.8 1.9-5.7h.6a7.4 7.4 0 0 1 .1 2.1c-1.7 7.4-3.5 14.8-5.3 22.2s-2.9 11.9-4.3 17.9-2.8 13-4.4 19.4-2.9 9.9-3.9 14.9-4.1 11.9-4.3 18.3c0 .8-.6 1.5-.8 2.3a18.5 18.5 0 0 0-1.2 3.3c-.8 6.6-3.7 12.6-5.1 19.1a4 4 0 0 1-.7 1.8c-2.2 3.2-3.3 6.9-4.6 10.4-1.8 5.2-3.7 10.3-5.4 15.5-1.1 3.6-1.9 7.3-2.9 11-2 7.6-4.1 15.3-6.2 23.5-.4-1.8-.7-3.1-1-4.7l-2.2 1.6a4.9 4.9 0 0 1-1.7.6c-1.4-1.9-2.7-.5-3.9.1s-1.5 1.7-1.8 2.8c-1.8 8.4-4.8 16.5-7.3 24.7-2 6.2-3.7 12.4-5.2 18.7-.6 2.6-2 4.5-3.3 6.6a2.1 2.1 0 0 1-1.7.7c-1 0-1.3-1-1.3-1.8s.1-3.6.2-5.5 0-2-1.2-2.4a2.5 2.5 0 0 0-3.3 1.3 10.2 10.2 0 0 0-1.5 7.2c.5 2.9.2 3.2-2.9 3.6a1.8 1.8 0 0 1-.9-.4c-1.1-2.1-2-4.4-3.3-6.5a44.2 44.2 0 0 0-4.4-5.3c-2.7.8-.8 4.1-3.2 5.3.5-4.1.9-7.9 1.4-11.8s.5-4.5-1.4-9.5a6.8 6.8 0 0 0-1.4 1.8 27.3 27.3 0 0 0-1 4.8c-.5 8.3-1.2 16.6-.2 24.8a25.9 25.9 0 0 1 0 2.8 11.7 11.7 0 0 1-2.1-.8 8.5 8.5 0 0 1-3.4-8.3c.2-1.3.4-2.6.5-4.1-3.6-2.1-4.6-5.1-3.7-9.2a16.3 16.3 0 0 0-.1-7.9c-.5-1.6-.1-3.6.2-5.4.7-4 .8-7.9-1.7-11.4a7.1 7.1 0 0 1-.9-5.7c.4-2.1.7-4.3 1.1-6.4a3.2 3.2 0 0 0 .2-1.4c-.9-7.7.3-15.2 1.2-22.8l1.2-12.3a110.7 110.7 0 0 1 2.2-11.2c.8-3 1.2-6.1 2.9-8.9a6.4 6.4 0 0 0 .4-2.4 37.5 37.5 0 0 1 1.9-9.3 12.1 12.1 0 0 0 .7-3.4 67.5 67.5 0 0 1 5.3-21.1 37 37 0 0 0 1.6-5.7c.6-2.1.8-4.3 2.7-5.8s.8-.8.7-1.2c-.1-4.2 3-7.3 3.9-11.2s2.7-6.3 3.8-9.6a67.4 67.4 0 0 1 5.5-11.1c3.3-5.8 5.1-12.2 7-18.5 2.4-8.4 4.5-17 7.8-25.1 1.2-2.7 2.6-5.3 4-8 .3-.5.8-1.2 1.4-1.3s2.9-1.8 3.6-3.6 3.6-5.2 3.8-8.6c0-.3.7-.8 1-.8 2-.1 2.4-1.7 3.1-2.9s2.4-5.1 3.8-7.5a23.7 23.7 0 0 1 5.3-6.5 9.2 9.2 0 0 0 3.8-6.7 44.4 44.4 0 0 1 1.6-6.3z"></path></g></g></svg>