<svg xmlns="http://www.w3.org/2000/svg" width="1075.1" height="828" viewBox="-0.0019099414348602295 0.0038738250732421875 1075.0950927734375 827.985107421875" style=""><g><path d="M669.3 787.3c41.4-11.7-6.5-12 57.8-57.3-.7.5 247.5-160.4 312.4-299.7 79-169 7.2-251.6-30.4-403.3-3.7-14.6-6.9-32.1-20.7-25.6-6.2-.7-221.3 194.8-315.3 377.8-50.4 97.9-21.5 90.8-45.5 24.7-18.6-51.8-49.1-92.8-68-122.4-26-40.3-107.5 138.7-88.2 242.5-178.9-98.3-349.6-98-436.2-112.8-23.7-3.9-34 5.6-35.1 19.7-1.4 21.6 11.3 5.3 58.7 82.6 68.7 112.3 78.3 425.5 610.5 273.8zM198.2 581.8C90.9 481.7 123 505 133.4 510c183.9 90.4 344.7 119 457.2 212.1 71.8 59.1 35.1 24.8-53.4-6-84.3-29.4-227.2-42.4-339-134.3zm386.1 19c-32.1-79.2-43.1-162.5-38-234.8 1.2-15.5.6-13 2.8-.5 13.7 76.9 37.4 123.8 57.9 233.2 6.6 35.2 12.7 31-22.7 2.1zm89.3 103.1c-4.8-287.8 225.6-496.1 295.9-609.4-15.1 273.7-177 347.6-276.9 586.1-16.8 40.2-13.8 37.8-15 35.6-4.5-8.1-3.9-5.8-4-12.3zm337.8-581.1c76.5 244.4-.5 376.6-299.8 583.3 87.9-204.2 247.9-332.8 277.1-511.7 19.2-114.7 3.6-132.9 22.7-71.6zm-55.1-65.6C899 174.9 757.8 240.1 681.4 504.8c-55.5 192.7-8.5 184.4-55 134.5-36.5-249.2 345-615.6 329.9-582.1zM621.8 455.5c10.5 30.8 13.8 9.3 7.7 33.9-7.7 30.5-13.3 60.1-14.7 70-7.1-56-7.7-22.5-50.5-230.1 49.8 88.9 45 89.4 57.5 126.2zm-90.4-102.6c-3.7 35-.6 77.4 4.3 112.2 20.3 146.2 57.4 135.3-28.5 79.9-14.4-9.3-8.7-3.6-10-9.9-8.4-38.9-15.3-82.7 34.2-182.2zm22.8 295.2c22.6 17.8 46.4 40.9 62.9 64.8 5.1 7.3-33.3-51.1-329.4-154.1-68.1-23.8-193.1-79.3-210-95.4 207.7 26.9 317.6 59.9 476.5 184.7zm-437.1-94.7c-16.9-41.5-30.9-49.6 30.3 11.6 155.4 154.9 302.5 118 460.7 203.4-312.8 75.9-413.7-25.3-491-215z" fill="#ffe9e9" opacity=".61" data-name="Layer 2"></path></g></svg>