<svg xmlns="http://www.w3.org/2000/svg" width="1080" height="990.6" viewBox="-0.010167539119720459 0.002410888671875 1080.0067138671875 990.5732421875" style=""><g><g data-name="Layer 2"><path d="M798.8 376.8l75.6 16.9c50.8 11.2 97.3 29.6 136.7 61.2 26.7 21.5 46.2 48.3 59 80.2 25.8 64.2.6 120.1-69.1 152.4-45.4 21-91.7 32.6-139.1 27.6-15.7-1.7-31.9-1.4-57.4-2.4 14.4 21.1 23.8 35.1 33.4 49 20 28.8 26 62.5 20.4 99.2-9.8 64.6-61.5 115.7-128.5 127-39.4 6.6-75.6.7-109.8-14.5-54.8-24.3-95.6-63.5-131-108.9-18-23.1-35.2-46.8-54.3-72.4-23.5 12.5-44.5 24.6-66.2 35.1-92.8 44.4-177 41.6-251.4-11.9-95.9-69-104.6-205.8-19.6-310.5 14-17.3 29.9-33.3 48-53.2-8.3-8.1-15.4-16.7-24.2-23.3-36.7-27.5-71-57.6-92.8-98.2-12.8-24-24.3-50.7-27.6-78.4C-9 167 63.2 84 152.1 75.4c103.3-10.1 189.6 20.5 263.7 78.7 10.7 8.5 21.5 17 32.5 25.2 1.2 1 3.8.3 9.4.4 10.1-15 21.4-31 31.9-47.4 77.2-121.2 250-175.8 381.3-91.9 62.3 39.8 77.9 116.1 45.8 192.2-13.8 32.8-34.4 62-60.8 87.6-16.1 15.5-31.8 31.4-57.1 56.6z" fill="#f8b755"></path><path d="M380.5 528.9c23.7-20.8 56.8-28.1 75.5-58.2-17.5-41.7-54.5-70.4-78.1-112.7l40.1-34.9c37.3 25.2 55.3 66.8 85.5 94.9 19.5-.5 21.6-15.7 28.1-25.8 15.4-24 30-48.4 46.4-75.1l44.4 17.6c-16.2 33.2-31.4 64.1-49 100.1 24.2 1.7 44.3 2.3 64 4.7s40.2 6.7 63.1 10.6c-3.2 19.4-5.8 35.2-8.2 49.4-7.4 3.2-11.6 6.6-15.1 6.4-29.3-2-58.2-5.2-87.5-6.9-9.9-.6-20.4 2.1-29.6 3.2-8.4 18.4 4.8 24.3 10.1 33.7 6.7 12 15.1 23 21.5 35.3 5.2 10.1 8.6 21.3 13.6 33.8L557 625.1l-69.1-97.5-78.9 41.6c-21.9-5.1-28.3-20.1-28.5-40.3z" fill="#a25f3d"></path></g></g></svg>