<svg xmlns="http://www.w3.org/2000/svg" width="1080" height="691.2" viewBox="0 0.0019235014915466309 1080.0009765625 690.95166015625" style=""><g><path d="M985.6 5.1c-.7.8-42.9 1.3-93.6 1.2H789.5c-5.6.1-19.3-.3-30.4-.8s-32.5-1.1-47.3-1.2l-38.9-.6c-6.5-.2-61.2 0-121.8.3-138.3.9-242.3-.5-246.7-3.3-1.9-1.1-5.3-.9-7.7.6s-45.1 2.2-95.5 1.8-115.9-.9-146.3-.9H0v38.5C.1 61.6 1 79 2 79.1S4 91.8 4 107s.7 49.2 1.4 75.2 1.7 62.6 2.2 81.2 1.6 49.8 2.5 69.4 2 49.1 2.3 66c1.3 58.5 5.4 138.7 8.2 157.3.9 6.5 2 38.4 2.4 70.9.4 42.3 1.8 59.7 4.6 61.6s183.3 3.6 225.9 1.1c12.1-.7 40.3-1.8 62.6-2.4s49.7-1.7 60.9-2.4 36.2-1.3 55.8-1.2c50.7.4 117.7 1.3 133.5 1.8 7.5.2 24.7.5 38.2.6 22.7.2 28.9.3 44 1.3 16.6 1 276.6.4 298.2-.8 14.1-.7 47.1-1.4 73.8-1.5 59.5-.2 58.8.3 59.3-48.3.7-74.7-.5-158.5-2.5-168-1.1-5.6-2.5-28.5-3-50.8s-1.6-49.7-2.4-60.9-1-93-.4-181.9c1.2-153.5.9-161.9-5.1-166.5s-15.8-4.8-42.9-4.9c-19.9 0-37.1.6-37.9 1.3zM741.8 49.9c3.4 5.8-4.5 12.1-9.2 7.3s-1.2-11.2 3.9-11.1c1.7 0 4.1 1.7 5.3 3.8zm-589 124.7c.9.8-.2 3.1-2.6 5.4-4.7 4.5-14.4.1-17-7.7-1.1-3.3.9-3.8 8.3-1.7 5.4 1.5 10.5 3.3 11.3 4zm40.4 24a5.1 5.1 0 1 1-5-5.2 5.3 5.3 0 0 1 5 5.2zM542.9 219a6.8 6.8 0 0 1-5.3 3.3 3.2 3.2 0 0 1-3.2-3.4c0-2 2.3-3.4 5.3-3.3s4.4 1.5 3.2 3.4zm475 7.1a3.1 3.1 0 0 1-3.3 3.3 6.6 6.6 0 0 1-5.2-3.4c-1.1-2 .2-3.4 3.3-3.4s5.2 1.5 5.2 3.5zm-287.6 5.8a3.2 3.2 0 0 1-3.4 3.4 3.3 3.3 0 0 1-3.3-3.5 3.2 3.2 0 0 1 3.4-3.3 3.1 3.1 0 0 1 3.3 3.4zM686 260a5.3 5.3 0 0 1-5.2 5 5.2 5.2 0 0 1-5-5.1 5.3 5.3 0 0 1 5.2-5 5.2 5.2 0 0 1 5 5.1zm-36.1 57.7c-3.3 3.2-6.1-1.8-3.3-6.2s3.1-3.4 4.1-.1.4 5.1-.8 6.3zm-421.3.1c-.1 6.9-9.1 5.6-10.8-1.5-1.3-5.1-.3-6.1 4.7-4.9 3.3.9 6.1 3.8 6.1 6.4zm2.9 33.7c-.1 3-1.5 4.3-3.4 3.1a6.3 6.3 0 0 1-3.3-5.3 3.1 3.1 0 0 1 3.4-3.1c2 0 3.3 2.2 3.3 5.3zm40.5 3.6c0 .9-1.4 2.3-3.4 3.5s-3.4.5-3.4-1.5a3.4 3.4 0 0 1 3.5-3.5c2 0 3.3.6 3.3 1.5zm317.4 30.6c0 1.7-2.4 3-5.1 3-5.4-.1-6.9-4-2.9-7.8s8.1.4 8 4.8zm-256.9-2.5c-.1 2.8-1.7 5.1-3.5 5.1s-3.3-2.4-3.3-5.2 1.7-5 3.5-5 3.3 2.4 3.3 5.1zm35.4 115.7c0 3.1-2.4 4.8-5.8 4.1-8.4-1.8-9.4-9.6-1.2-9.4 4.1 0 7.1 2.3 7 5.3zm294.2 4.2c-.1 2.7-1.5 5.1-3.2 5.1-4.4-.1-7.4-5.5-4.6-8.2s7.8-2.3 7.8 3.1zM52.6 520.6c.9 4.8-.7 6-6.8 5-4.4-.8-8.4-4.1-9-7.6s.7-6 6.8-5c4.4.7 8.4 4.1 9 7.6zm592.1 9.3a5.1 5.1 0 0 1-5.1 5 5.1 5.1 0 1 1 .2-10.1 5 5 0 0 1 4.9 5.1zm-485.6 28.3a6.8 6.8 0 0 1-5.3 3.3 3.2 3.2 0 0 1-3.2-3.4c.1-2 2.3-3.4 5.3-3.3s4.4 1.4 3.2 3.4zM72.8 562a5.2 5.2 0 0 1-5.1 5c-5.5-.1-6.7-4.2-2.6-8.2s7.8-2.2 7.7 3.2zM798 588.3c3.4 5.8-4.5 12.2-9.2 7.3s-1.2-11.1 3.9-11.1c1.7.1 4.1 1.8 5.3 3.8zm-357.4 24.1c0 4.4-4 7.4-7.2 5.4s-.5-8.2 4.2-8.1c1.9 0 3.1 1.1 3 2.7zm212.1 14.7c-2.2 6.4-9.5 7.3-9.4 1.2a5.3 5.3 0 0 1 5.5-5.3c3 0 4.8 1.8 3.9 4.1zm-351.3 27.6c-.1 1.7-2.5 3.8-5.5 4.9-7.5 2.7-8.2 2.5-8.1-3.1 0-2.8 3.1-5 6.8-5s6.8 1.5 6.8 3.2z" fill="#f7f6f4" data-name="Layer 2"></path></g></svg>