<svg xmlns="http://www.w3.org/2000/svg" width="1079.8" height="15.1" viewBox="0 0 1079.800048828125 15.199999809265137" style=""><g><g data-name="Layer 2"><path fill="#c2bbbb" d="M0 0h1079.8v15.12H0z"></path><path fill="#fff" d="M0 0h1079.8v.76H0z"></path><path fill="#c2bbbb" d="M999.4.7v14.4h-.64V.7z"></path><path fill="#fff" d="M998.7.8v14.4h-.64V.8z"></path><path fill="#6e6a6a" d="M1000 .8v13.7h-.64V.8z"></path><path fill="#6e6a6a" d="M1079.2.8v13.7h-.64V.8z"></path><path fill="#6e6a6a" d="M1079.1 1.4h-79.2V.76h79.2z"></path><path fill="#fff" d="M1079.1 14.5h-79.2v-.64h79.2z"></path><g><path fill="#ded5d5" d="M136 1.4h104.8v13.16H136z"></path><path fill="#c2bbbb" d="M240.7 14.1H136.1v-.55h104.6z"></path><path fill="#fff" d="M240.7 14.6H136.1v-.43h104.6z"></path><path fill="#6e6a6a" d="M240.7 1.8H136.1v-.43h104.6z"></path><path fill="#c2bbbb" d="M240.7 2.2H136.1v-.43h104.6z"></path><path fill="#fff" d="M240.4 14.6V1.4h.29v13.2z"></path><path fill="#6e6a6a" d="M135.9 14.6V1.4h.29v13.2z"></path><g><path fill="#c2bbbb" d="M347.1 14.5H242.3V1.34h104.8z"></path><path fill="#c2bbbb" d="M242.3 1.8h104.6v.55H242.3z"></path><path fill="#fff" d="M242.3 1.4h104.6v.43H242.3z"></path><path fill="#6e6a6a" d="M242.3 14.1h104.6v.43H242.3z"></path><path fill="#c2bbbb" d="M242.3 13.7h104.6v.43H242.3z"></path><path fill="#fff" d="M242.6 1.4v13.2h-.29V1.4z"></path><path fill="#6e6a6a" d="M347.1 1.3v13.2h-.29V1.3z"></path></g><g><path fill="#c2bbbb" d="M.8 1.8h49.6v.55H.8z"></path><path fill="#fff" d="M.8 1.4h49.6v.43H.8z"></path><path fill="#6e6a6a" d="M.8 14.1h49.6v.43H.8z"></path><path fill="#c2bbbb" d="M.8 13.7h49.6v.43H.8z"></path><path fill="#fff" d="M.9 1.4v13.2H.37V1.4z"></path><path fill="#6e6a6a" d="M50.8 1.4v13.2h-.42V1.4z"></path></g><g><path fill="#fff" d="M53.9 2.1v11.5h-.53V2.1z"></path><path fill="#6e6a6a" d="M54.2 2v11.5h-.26V2z"></path></g></g><g><path d="M21.6 5.3h.5v1h-1v-.5h-.5v-.5h-2.1v.5H18v1h.5v.5h2.6v.5h.5v.5h.5v2h-.5v.6h-.5v.5H18v-.5h-.5v-.6H17v-1h1v.5h.5v.5h2.1v-.5h.5v-1h-.5v-.5H18v-.5h-.5v-.5H17v-2h.5v-.5h.5v-.6h3.1v.6h.5z"></path><path d="M25.2 5.3h-2.1V4.2h5.1v1.1h-2v6.1h-1z"></path><path d="M30.2 11.4h-1V6.3h.5v-.5h.5v-.5h.5v-.5h.6v-.6h1v.6h.5v.5h.5v.5h.5v.5h.5v5.1h-1V9.3h-3.1zm0-3.1h3.1V6.8h-.5v-.5h-.5v-.5h-1v.5h-.6v.5h-.5z"></path><path d="M36.8 8.3h-.5v3.1h-1V4.2h4.1v.6h.5v.5h.5v2h-.5v.5h-.5v.5h-1v.5h.5v.5h.5v.5h.5v.5h.5v1.1h-1v-.5h-.5v-.6h-.5v-.5h-.5v-.5h-.5v-.5h-.6zm-.5-3v2h2.6v-.5h.5v-1h-.5v-.5z"></path><path d="M43.5 5.3h-2.1V4.2h5.1v1.1h-2v6.1h-1z"></path><g><path d="M1041.1 4.6v-.5h1v4.2h1.1v1.1h-1.1v2.1h-1V9.4h-3.2V7.3h.5v-.6h.5v-.5h.6v-.5h.5v-.5h.5v-.6zm0 3.7V6.2h-.6v.5h-.5v.6h-.5v.5h-.6v.5z"></path><path d="M1046.8 5.2v1h-1v-1zm0 4.2v1h-1v-1z"></path><path d="M1051 10.4h-.5v-1h1.1v.5h.5v.5h2.1v-.5h.5v-1h-.5v-.6h-1.6v-1h1.6v-.6h.5v-1h-.5v-.5h-2.1v.5h-.5v.5h-1.1v-1h.5v-.6h.6v-.5h3.1v.5h.5v.6h.6v2.1h-.6v1h.6v2.1h-.6v.6h-.5v.5h-3.1V11h-.6z"></path><path d="M1056.8 4.1h5.3v1.1h-4.2v1h3.1v.5h.6v.6h.5v3.1h-.5v.6h-.6v.5h-3.1V11h-.6v-.6h-.5v-1h1.1v.5h.5v.5h2.1v-.5h.5V7.8h-.5v-.5h-3.7z"></path><path d="M1064.2 11.5h-1.1V6.2h.6v-.5h.5v-.5h.5v-.6h.5v-.5h1.1v.5h.5v.6h.5v.5h.6v.5h.5v5.3h-1.1V9.4h-3.1zm0-3.2h3.1V6.7h-.5v-.5h-.5v-.5h-1.1v.5h-.5v.5h-.5z"></path><path d="M1070.5 11.5h-1.1V4.1h1.1v1.1h.5v.5h.5v.5h1.1v-.5h.5v-.5h.5V4.1h1.1v7.4h-1.1V6.7h-.5v.6h-.5v1h-1.1v-1h-.5v-.6h-.5z"></path></g></g><g><path d="M5 4.4h3v3.03H5z"></path><path d="M9.2 4.4h3v3.03h-3z"></path><path d="M5 8.5h3v3.03H5z"></path><path d="M9.2 8.5h3v3.03h-3z"></path></g><g fill="#143617"><circle cx="85.1" cy="8" r="4.4" transform="rotate(-76.7 85.033 7.985)"></circle><path d="M104.9 8a4.3 4.3 0 0 1 2.9-4.1 4 4 0 0 0-1.5-.3A4.4 4.4 0 0 0 102 8a4.3 4.3 0 0 0 4.3 4.3l1.5-.2a4.3 4.3 0 0 1-2.9-4.1z"></path><path d="M61.3 4h8v7.96h-8z"></path><path d="M123.5 4.1h4.7l-3.3 3.2h2.6l-6.3 5.3 2.3-4.3h-2.1l2.1-4.2z"></path></g><g><path d="M148.1 6.4h-1.2v-.5h2.9v.5h-1.2v4.8h-.5z"></path><path d="M152.1 5.9h1.5a1.3 1.3 0 0 1 1.2 1.4c0 .7-.2 1.3-.9 1.5l1.1 2.3-.5.2-1.2-2.5h-.6v2.4h-.6zm.6 2.5h.8c.5 0 .8-.4.8-1.1a.8.8 0 0 0-.9-.9h-.7z"></path><path d="M159.7 8.5c0 .7.1 2.7-1.5 2.7s-1.5-2-1.5-2.7 0-2.6 1.5-2.6 1.5 2 1.5 2.6zm-2.4 0c0 1.5.1 2.3.9 2.3s1-1.3 1-2.3 0-2.1-1-2.1-.9 1.4-.9 2.1z"></path><path d="M162.6 11.2h-.6V5.9h1.2c1 0 1.5.5 1.5 1.4s-.5 1.5-1.3 1.5h-.8zm0-2.8h.7c.6 0 .9-.4.9-1.1s-.4-.9-1-.9h-.6z"></path><path d="M167.8 6.4h-.7v-.5h2v.5h-.7v4.3h.7v.5h-2v-.5h.7z"></path><path d="M174.6 10.4a1.6 1.6 0 0 1-1.4.8c-1.5 0-1.7-1.6-1.7-2.6s.2-2.7 1.7-2.7a1.4 1.4 0 0 1 1.3.8l-.5.3a.8.8 0 0 0-.8-.6c-1 0-1.1 1.5-1.1 2.2s.1 2.2 1.1 2.2.7-.4.9-.7z"></path><path d="M177.2 9.6l-.4 1.7-.5-.2 1.4-5.2h.6l1.4 5.2-.5.2-.5-1.7zm.8-3l-.6 2.5h1.2z"></path><path d="M181.8 5.9h.6v4.8h2.3v.5h-2.9z"></path><path d="M191.3 6.4v-.5h1.5c1.1 0 1.7.5 1.7 2.7s0 2.6-1.7 2.6h-1.5v-.5h.5V6.4zm1 4.3h.5c.6 0 1.1-.2 1.1-2.1s-.5-2.2-1-2.2h-.6z"></path><path d="M196.6 5.9h1.5a1.3 1.3 0 0 1 1.2 1.4c0 .7-.2 1.3-.9 1.5l1.1 2.3-.5.2-1.2-2.5h-.6v2.4h-.6zm.6 2.5h.8c.5 0 .8-.4.8-1.1s-.4-.9-1-.9h-.6z"></path><path d="M201.5 5.9h2.7v.5h-2.1v1.7h1.7v.5h-1.7v2.1h2.1v.5h-2.7z"></path><path d="M206.9 9.6l-.4 1.7-.6-.2 1.4-5.2h.7l1.4 5.2-.6.2-.4-1.7zm.7-3l-.6 2.5h1.3z"></path><path d="M213.4 5.9h.7v5.3h-.6V6.8l-.9 2.6-1-2.6v4.4h-.6l.2-5.3h.7l.8 2.3z"></path></g><g><path d="M252.2 10.2a1.7 1.7 0 0 1-1.4.9c-1.4 0-1.6-1.7-1.6-2.7s.2-2.7 1.6-2.7a1.6 1.6 0 0 1 1.4.8l-.5.3a1.1 1.1 0 0 0-.9-.6c-1 0-1 1.5-1 2.2s0 2.2 1 2.2a1.1 1.1 0 0 0 1-.7z"></path><path d="M255.3 7.6h.7v1.2h-.7zm0 2.3h.7V11h-.7z"></path><path d="M259.2 5.1h.4l2.4 6.1h-.4z"></path></g><g><path d="M1021.3 7.4l6.4 4.4V2.9l-6.4 4.5z"></path><path d="M1020.7 8.6V6.1h2.77v2.5z"></path><path d="M1028.4 6.9h1.1v.61h-1.1z"></path><path d="M1029.5 4.1v-.7l-1.1.6v.7l1.1-.6z"></path><path d="M1028.4 9.7v.7l1.1.6v-.7l-1.1-.6z"></path><g><path d="M1005.8 2.9v8.6h8.6V2.9zm7.7 7.7h-6.8V4.7h6.8z"></path><circle cx="1013" cy="10.6" r="2.3"></circle><path d="M1014.6 10.6A1.6 1.6 0 1 1 1013 9a1.6 1.6 0 0 1 1.6 1.6z" fill="#c2bbbb"></path><path d="M1004.3 2.4h4.6v4.61h-4.6z"></path><path fill="#c2bbbb" d="M1008.9 4.4h-1.9v-2h-.7v2h-2v.7h2V7h.7V5.1h1.9v-.7z"></path></g></g></g></g></svg>