<svg xmlns="http://www.w3.org/2000/svg" width="1080" height="967.9" viewBox="-0.0030837655067443848 -0.009499373845756054 1079.9320068359375 967.9447631835938" style=""><g><g data-name="Layer 2"><g fill="#93b4d7"><path d="M1066.7 612.3c-4.8 7.9-13.1 12.7-21.3 16.5a106.5 106.5 0 0 1-26.3 9.1c-12 2.2-25 1.4-37.1.5-24.7-1.7-48.5-8.9-71.7-17.2-19.6-6.9-39.4-13.4-58.7-20.9-21-8.3-42.1-16.3-63-24.8-10.3-4.2-20.4-8.8-30.6-13.3s-19.2-8.1-28.8-12.1c-20.8-8.5-41.6-17-62.3-25.7-9.8-4.1-19.3-8.5-29.1-12.6s-18.9-7-28.6-10c-7.7-2.3-15.2-4.8-22.6-7.7 3.1 3.3 6.3 6.5 9.5 9.7 8.9 9.1 18 18 27 27 17.5 17.5 34.5 35.4 50.3 54.5 8 9.7 15.8 19.6 23.6 29.5s15.9 20.2 23.3 30.6c13.9 19.4 25.2 40.4 38.1 60.4 6.7 10.4 13.2 21 19.5 31.7s13.8 23.5 19.6 35.8c10.4 22.1 22.4 45.3 24.2 70a76.7 76.7 0 0 1-2.7 27.4 48.1 48.1 0 0 1-4.4 9.5c-.8 1.3-1.6 2.5-2.5 3.7-2.7 3.7-5.8 7.6-9.7 10.1a39 39 0 0 1-14.6 6.4 26.2 26.2 0 0 1-5.6.9 43.7 43.7 0 0 1-13.5-.9 71.8 71.8 0 0 1-21.7-8.8c-8-4.7-15.5-11-22.2-17.4-5-4.9-10.2-9.7-14.2-15.5s-6.2-9.9-9-14.9c-11.7-20.1-22.7-40.4-34-60.7l-2.7-4.4a374.9 374.9 0 0 1 15.4 67.7 448.6 448.6 0 0 1 3.7 56.7v-1.6c0 3.6.1 7.3.1 10.9V909c0 4.7.4 9.6-.6 14.2a55.1 55.1 0 0 1-18.8 32q-2.4 2.3-4.8 4.2a38.1 38.1 0 0 1-16.7 8c-10.2 2.2-21.5-2.7-29.4-8.9a96.3 96.3 0 0 1-12.6-12.1 70.2 70.2 0 0 1-7.3-9.2 122.5 122.5 0 0 1-10-19.8 3 3 0 0 1-.4-1 232.7 232.7 0 0 1-16.3-32.3c-4.6-10.8-9.1-21.6-13.1-32.6s-9-22.9-13.2-34.4l-12.8-34.2c-8.6-22.7-16-45.5-22.6-68.9s-13.2-48-19.6-72c-2.7-9.7-5.3-19.3-8.1-28.9s-5.8-18.5-8.3-27.9c-3.5-13.1-6.9-26.3-9.7-39.6l-3.3 6.4c-5.6 10.5-10.8 21.1-16.5 31.5s-11.8 22-17.8 32.8-12.2 20.9-17.3 31.9-10.2 22.9-14.9 34.5-10.1 21.9-15.3 32.8-10.1 22-15.8 32.7-13.1 24.1-20.2 35.7c-12 19.6-24.6 39-38.7 57.3a168.4 168.4 0 0 1-25.6 27.1c-9.1 7.7-20.6 15.7-33.3 13.7-11-1.6-20.5-8.8-24-19.5a45.3 45.3 0 0 1-2.1-19c.9-10.6 4.7-21 8.2-30.9s6.8-18.1 10.6-26.8l6.6-15.1c-5.8 5-11.8 9.9-18 14.4-9 6.7-18.6 12.3-28.1 18-6.1 3.7-12.2 7.7-18.6 10.7a40.7 40.7 0 0 1-7.2 3c-2.8.8-5.6 1.7-8.4 2.3a41.7 41.7 0 0 1-11.2.9c-11.6-.2-23.9-5.2-30.3-15.3-3.7-6.1-6.3-12.5-6.9-19.7a58.1 58.1 0 0 1 1.6-17.6c1.6-6.1 2.9-12.9 6.1-18.5a147.8 147.8 0 0 1 12.7-19.8c3.2-4.2 6.4-8.3 9.8-12.4 7.7-9.1 15.3-18.3 23.3-27.2s16.4-17.5 24.5-26.3c16.2-17.5 32.2-35.1 48.2-52.7s35.7-36.5 54.4-53.7c9.2-8.4 18.4-16.7 27.4-25.3s17.3-16.3 26.5-23.8 18.1-14.2 26.7-21.7 15.4-13.8 22.8-20.9l1.6-1.7q-6.4 2-12.9 3.6c-8.8 2.1-17.8 3.3-26.6 5.1-22.8 4.5-44.9 11.7-67.5 16.8-11.8 2.8-23.8 5.4-35.7 7.7s-23.1 4-34.4 6.7c-22.6 5.3-45 11.4-68 14.3s-44.2 4.1-66.3 5.1c-18.1.8-36.1.8-53.9-3.2a36.8 36.8 0 0 1-17.9-10.3c-6.1-6.2-9.5-17-8.3-25.7a43.8 43.8 0 0 1 14.3-26.7c5.4-5.1 12.4-9 19.1-12.3s11.8-6.2 17.9-9.1 13.7-6.8 20.7-10c-7.3-1.5-14.6-3.2-21.9-5s-15.1-3.3-22.1-6.4c-9.9-4.4-20.1-9.7-26.5-18.8-3.6-5-6.2-10.2-6.9-16.5-.4-3.6-.7-7.9.1-11.6 1.2-5.3 2.4-11.8 6.1-16.1a68.3 68.3 0 0 1 6.9-7.3 104 104 0 0 1 11.9-8.1c8.1-5.2 17.9-8 27.1-10.2a208.7 208.7 0 0 1 31.5-5c12.5-1 25.2-1.9 37.8-1.5 10 .4 20 1.1 29.9 1.8 21 1.5 41.5 5.9 62.2 8.9 23.4 3.4 46.5 7 69.5 12l-2-.4 5.5 1.2h.4c17.6 3.9 35.1 8.3 52.6 12.5 12.2 2.4 24.3 4.7 36.5 6.9s21.4 4.2 32 6.6c-5.1-6.6-10.3-13.2-15.4-19.9-12-15.4-24.8-30.6-35.6-47s-23.4-35.5-34.2-54-20.6-37-30.3-55.9c-4.6-9.1-9.6-18.1-13.6-27.5s-8.2-19.2-12-28.8c-5.8-14.2-11.9-28.6-16-43.4-1.7-6.2-3.3-12.3-3.4-18.7a51.6 51.6 0 0 1 .6-11.8c2.2-10.6 8-20.1 18.3-24.5s20.4-2.2 30.4 1.3a59.5 59.5 0 0 1 17.2 9.2c11.2 8.7 20.2 20 28.8 31.3a176.9 176.9 0 0 1-4.5-24.8 77 77 0 0 1-.2-14.4c.4-4.6 1.7-9 2.9-13.5a37.9 37.9 0 0 1 13.1-18.6A37 37 0 0 1 373.1.3a55.1 55.1 0 0 1 23.5 2.6 83.9 83.9 0 0 1 12.6 5.7c5.9 3.1 11.9 6.2 17.6 9.8a81.1 81.1 0 0 1 17.7 16.4c3.6 4.3 6.3 9.3 9 14.1s3.8 7.1 5.5 10.8a195 195 0 0 1 8.9 23 515.9 515.9 0 0 1 16.4 61.2c4.2 20.6 9.1 41.1 13 61.8 1.9 10.2 4 20.3 5.6 30.6 1.8 12 4.6 23.7 6.9 35.6a306.1 306.1 0 0 1 4.8 35.7l.3 5c4.2-8.7 8.6-17.3 13.4-25.7 10.4-18.5 22.9-35.5 35.4-52.7a1258.9 1258.9 0 0 1 95.6-116.9c15.8-17 32.4-33.6 51.2-47.3a209.8 209.8 0 0 1 18.7-12.5c4.7-2.8 9.8-5.1 14.7-7.4s10.5-5 15.9-7.2c8.6-3.5 17.9-7.3 27.2-7.5a37.4 37.4 0 0 1 11 1.5c4.9 1.3 8.2 4 11.8 7.4 5.2 5 7.6 13.5 6.9 20.5a45.9 45.9 0 0 1-3.6 14.7 161.9 161.9 0 0 1-14.9 28.6c-6.2 9.1-12.5 18.1-19 27a66.4 66.4 0 0 1 10.5 5.7 250.9 250.9 0 0 1 21.5-15.1 208.7 208.7 0 0 1 38.4-17.7 103.4 103.4 0 0 1 16.5-4.6l3.8-.7 9.3-1h2.6c7.6 1.1 13.9 2.2 20.6 6.2s8.1 7.6 11.5 12.5 3.2 9.7 3.5 13.9a36.2 36.2 0 0 1-1.7 12.6 122.4 122.4 0 0 1-7.4 17.5c-3 5.9-6.2 11.8-9.6 17.5-2 3.2-4 6.3-6.1 9.3-7.7 11-17.2 19.8-27.2 28.6s-18.1 15.7-27.3 23.5-19.2 15.6-29 23.1c-11.4 8.5-22.8 17.1-34.6 25-20 13.4-39.2 27.9-59.2 41.4-9.9 6.6-19.9 13.1-29.7 20s-19.5 13.9-29.5 20.5-21.2 14.3-31.7 21.6h.4c18.3-1.6 36.6-1.3 55-1.5 8.3-.1 16.6-.5 25-.6s17.5.1 26.2 0c16.8 0 33.5-.3 50.2-.9 9.2-.6 18.3-2 27.5-2.7a254.1 254.1 0 0 1 34.9-.3c18.8 1 37.4 3.2 56.2 2.7a378.3 378.3 0 0 1 61.1 3.5c19.4 2.6 38.7 5.9 57.6 11.2 11.2 3.3 21.5 7.1 31.6 13 7.4 4.4 14.5 10.6 20.5 16.6s10.4 17.8 9.1 27.5-6.1 19.8-14.2 25.6a79.5 79.5 0 0 1-20.5 11c-5.4 1.8-11 3.8-16.7 4.6s-8.8 1.2-13.2 1.7-11.4 1.6-17.1 2.4c4.7 2.2 9.3 4.6 13.8 7.1s9.2 5.9 13.8 9a171 171 0 0 1 16.2 11.7c5.8 4.9 11.6 10 16.3 16s9 12.2 11.4 19.2c1.5 4.2 3 8.6 3.3 13.1s.7 7.7-.1 11.5c-1.3 6.5-2.4 9.9-5.8 15.5 0 .2-.1.3-.2.5zM868.5 133a1.1 1.1 0 0 1 .1.5.9.9 0 0 0-.1-.5zM151 771.1l-.4-.3.4.3z"></path><path d="M324.4 249.6l-1.2-2.1-.3-.4z"></path></g><path d="M546 466.9a50 50 0 0 0 5.6-16.3 18.1 18.1 0 0 0 .9-4.4c.3-6.6 1-13.3.4-19.9a98 98 0 0 0-4.1-18.6c-3.8-12-10.7-24.5-20.8-32.4-1.4-1-2.8-2-4.3-2.9a44.6 44.6 0 0 0-6.1-3.6c-13.1-7-30.6-.8-38.7 10.9a61.2 61.2 0 0 0-5.6 10.3c-1 1.6-1.9 3.3-2.8 5-7.5 14.4-7.2 32.1-2.2 47.2 3.6 11 8.2 22.1 16.1 30.8 2.8 3.1 5.4 6.1 8.8 8.4 7.7 5.3 15.2 7.7 24.6 7.2 5.2-.3 9.4-2.4 13.8-4.9 2.7-1.6 4.7-4.1 6.9-6.2a26.8 26.8 0 0 0 4.9-6.2c.9-1.4 1.7-2.9 2.6-4.4z" fill="#6384ba"></path></g></g></svg>