<svg xmlns="http://www.w3.org/2000/svg" xmlns:xlink="http://www.w3.org/1999/xlink" width="537" height="1080" viewBox="-0.00023651123046875 0.04168701171875 537.0039672851562 1079.958251953125" style=""><g><defs><linearGradient id="a" x1="169.61" y1="90.88" x2="353.47" y2="927.42" gradientUnits="userSpaceOnUse"><stop offset="0" stop-color="#4badae"></stop><stop offset="1" stop-color="#2a80a8"></stop></linearGradient><linearGradient id="c" x1="26.21" y1="122.39" x2="210.07" y2="958.94" xlink:href="#a"></linearGradient><linearGradient id="d" x1="9.71" y1="126.02" x2="193.57" y2="962.57" xlink:href="#a"></linearGradient><linearGradient id="e" x1="38.95" y1="119.6" x2="222.8" y2="956.14" xlink:href="#a"></linearGradient><linearGradient id="f" x1="16.32" y1="124.57" x2="200.18" y2="961.11" xlink:href="#a"></linearGradient><linearGradient id="g" x1="227.48" y1="78.16" x2="411.34" y2="914.7" xlink:href="#a"></linearGradient><linearGradient id="h" x1="54.1" y1="116.26" x2="237.96" y2="952.81" xlink:href="#a"></linearGradient><linearGradient id="i" x1="130.9" y1="99.39" x2="314.76" y2="935.93" xlink:href="#a"></linearGradient><linearGradient id="b" x1="151.55" y1="93.28" x2="331.9" y2="913.9" gradientUnits="userSpaceOnUse"><stop offset="0" stop-color="#5ecccd"></stop><stop offset="1" stop-color="#2a80a8"></stop></linearGradient><linearGradient id="j" x1="185.58" y1="85.8" x2="365.93" y2="906.43" xlink:href="#b"></linearGradient><linearGradient id="k" x1="25.9" y1="120.89" x2="206.26" y2="941.52" xlink:href="#b"></linearGradient><linearGradient id="l" x1="-14.76" y1="129.83" x2="165.6" y2="950.45" xlink:href="#b"></linearGradient><linearGradient id="m" x1="11.57" y1="124.04" x2="191.93" y2="944.67" xlink:href="#b"></linearGradient><linearGradient id="n" x1="45.26" y1="116.64" x2="225.62" y2="937.26" xlink:href="#b"></linearGradient><linearGradient id="o" x1="20.07" y1="122.18" x2="200.42" y2="942.8" xlink:href="#b"></linearGradient><linearGradient id="p" x1=".41" y1="126.5" x2="180.77" y2="947.12" xlink:href="#b"></linearGradient><linearGradient id="q" x1="15.69" y1="123.14" x2="196.04" y2="943.76" xlink:href="#b"></linearGradient><linearGradient id="r" x1="61.5" y1="113.07" x2="241.85" y2="933.7" xlink:href="#b"></linearGradient><linearGradient id="s" x1="31.32" y1="119.7" x2="211.68" y2="940.33" xlink:href="#b"></linearGradient><linearGradient id="t" x1="32.04" y1="119.54" x2="212.4" y2="940.17" xlink:href="#b"></linearGradient><linearGradient id="u" x1="117.19" y1="102.4" x2="301.04" y2="938.95" xlink:href="#a"></linearGradient><linearGradient id="v" x1="116.86" y1="100.9" x2="297.22" y2="921.53" xlink:href="#b"></linearGradient></defs><g data-name="Layer 2"><path d="M135.8 8.9a174 174 0 0 1 29.9-7.4 174 174 0 0 0-29.9 7.4z" fill="url(#a)"></path><path d="M190.8 853.6c-3.6-4-7.2-8-10.5-12.2 3.3 4.2 6.9 8.2 10.5 12.2z" fill="url(#c)"></path><path d="M141.2 707.7c-1.1 26.9 2.4 56.9 16.4 93.5l.4.7-.4-.7c-14-36.6-17.5-66.6-16.4-93.5z" fill="url(#d)"></path><path d="M210.3 872.4c-5.1-4.2-10.1-8.7-14.7-13.3 4.6 4.7 9.6 9 14.7 13.3z" fill="url(#e)"></path><path d="M173.8 831.5c-2.1-3.2-4.4-6.2-6.3-9.5 1.9 3.3 4.2 6.3 6.3 9.5z" fill="url(#f)"></path><path d="M168.4 1.4a172.1 172.1 0 0 1 66.7 4.8c-170 84.3-116.9 246.7-28 429.8 89.9 185.2-31.8 214.9 9.7 371.5 11.4 43.2 42.3 82.5 82.8 109.1a212.8 212.8 0 0 1-67.4-27.9c52.3 33.4 121 45.1 183.3 16.1-13.6-53-31.3-106.3-39.8-160l-1.4-5.3C333.9 595.7 294.8 447.4 267 299.8l-7.1-20.5c-3.1-9.5-4-19.7-7-29.4-1.8-5.7-2.5-8.9-.6-14.8a3.6 3.6 0 0 1 4.5-1.7c15.2 7.8 15.6 25.3 19.9 38.6 4.9 15 9.5 28.9 10.3 44.1 43.9 137.6 68.3 280.1 107.2 418.9 9.9 35.5 17.1 71.6 23.8 107.8l13.6 53.2c27.3-16.3 52.9-40.5 74.7-75.4 94.5-151.4-60.1-250.7-51.5-410.6C467.1 179.1 322.5-18.3 168.4 1.4z" fill="url(#g)"></path><path d="M231.6 888.2a208.4 208.4 0 0 1-18.6-13.3 189.9 189.9 0 0 0 18.6 13.3z" fill="url(#h)"></path><path d="M95.8 26.8a201.3 201.3 0 0 1 34.6-16.5 201.3 201.3 0 0 0-34.6 16.5z" fill="url(#i)"></path><path d="M130.4 10.3c1.8-.7 3.6-.8 5.4-1.4-1.8.5-3.5.7-5.4 1.4z" fill="url(#b)"></path><path d="M165.7 1.5z" fill="url(#j)"></path><path d="M109.1 445.5c-13.2-21.2-25.8-42-37.5-62.6 11.7 20.6 24.3 41.4 37.5 62.6z" fill="url(#k)"></path><path d="M15.9 264.2a313.8 313.8 0 0 1-13.6-55.1 313.8 313.8 0 0 0 13.6 55.1z" fill="url(#l)"></path><path d="M167.5 822a167.5 167.5 0 0 1-9.5-20.1 153.5 153.5 0 0 0 9.5 20.1z" fill="url(#m)"></path><path d="M213 874.9l-2.7-2.5z" fill="url(#n)"></path><path d="M180.3 841.4c-2.4-3.2-4.4-6.6-6.5-9.9 2.1 3.3 4.1 6.7 6.5 9.9z" fill="url(#o)"></path><path d="M71.6 382.9c-23.4-41.1-43-80.9-55.7-118.7 12.7 37.8 32.3 77.6 55.7 118.7z" fill="url(#p)"></path><path d="M141.2 707.7c.3-6.8.8-13.4 1.6-19.8-.8 6.4-1.3 13-1.6 19.8z" fill="url(#q)"></path><path d="M232.2 888.7l-.6-.5z" fill="url(#r)"></path><path d="M195.6 859.1c-1.7-1.8-3.2-3.7-4.8-5.5 1.6 1.8 3.1 3.7 4.8 5.5z" fill="url(#s)"></path><path d="M145.5 668.9c2-12.4 4.4-24.6 6.5-37-2.1 12.4-4.5 24.6-6.5 37z" fill="url(#t)"></path><path d="M216.8 807.5C175.3 650.9 297 621.2 207.1 436c-88.9-183.1-142-345.5 28-429.8a172.1 172.1 0 0 0-66.7-4.8h-2.7a174 174 0 0 0-29.9 7.4c-1.8.6-3.6.7-5.4 1.4a201.3 201.3 0 0 0-34.6 16.6C15.1 75.3-8 137.7 2.3 209.1a313.8 313.8 0 0 0 13.6 55.1c12.7 37.8 32.3 77.6 55.7 118.7 11.7 20.6 24.3 41.4 37.5 62.6 53 84.6 51 136.9 42.9 186.4-2.1 12.4-4.5 24.6-6.5 37-1.1 6.3-2 12.6-2.7 19s-1.3 13-1.6 19.8c-1.1 26.9 2.4 56.9 16.4 93.5l.4.7a167.5 167.5 0 0 0 9.5 20.1c1.9 3.3 4.2 6.3 6.3 9.5s4.1 6.7 6.5 9.9 6.9 8.2 10.5 12.2c1.6 1.8 3.1 3.7 4.8 5.5 4.6 4.6 9.6 9.1 14.7 13.3l2.7 2.5a208.4 208.4 0 0 0 18.6 13.3l.6.5a212.8 212.8 0 0 0 67.4 27.9c-40.5-26.6-71.4-65.9-82.8-109.1z" fill="url(#u)"></path><path d="M216.8 807.5C175.3 650.9 297 621.2 207.1 436c-88.9-183.1-142-345.5 28-429.8a172.1 172.1 0 0 0-66.7-4.8h-2.7a174 174 0 0 0-29.9 7.4c-1.8.6-3.6.7-5.4 1.4a201.3 201.3 0 0 0-34.6 16.6C15.1 75.3-8 137.7 2.3 209.1a313.8 313.8 0 0 0 13.6 55.1c12.7 37.8 32.3 77.6 55.7 118.7 11.7 20.6 24.3 41.4 37.5 62.6 53 84.6 51 136.9 42.9 186.4-2.1 12.4-4.5 24.6-6.5 37-1.1 6.3-2 12.6-2.7 19s-1.3 13-1.6 19.8c-1.1 26.9 2.4 56.9 16.4 93.5l.4.7a167.5 167.5 0 0 0 9.5 20.1c1.9 3.3 4.2 6.3 6.3 9.5s4.1 6.7 6.5 9.9 6.9 8.2 10.5 12.2c1.6 1.8 3.1 3.7 4.8 5.5 4.6 4.6 9.6 9.1 14.7 13.3l2.7 2.5a208.4 208.4 0 0 0 18.6 13.3l.6.5a212.8 212.8 0 0 0 67.4 27.9c-40.5-26.6-71.4-65.9-82.8-109.1z" fill="url(#v)"></path><path d="M394.2 735C355.3 596.2 330.9 453.7 287 316.1c-.8-15.2-5.4-29.1-10.3-44.1-4.3-13.3-4.7-30.8-19.9-38.6a3.6 3.6 0 0 0-4.5 1.7c-1.9 5.9-1.2 9.1.6 14.8 3 9.7 3.9 19.9 7 29.4l7.1 20.5c27.8 147.6 66.9 295.9 107.3 439.7l1.4 5.3c8.5 53.7 26.2 107 39.8 160 2.8 10.8 5.7 21.7 8 32.5 7.6 35.8 16.8 71.3 26.2 106.9l9.1 35.8h23.7c-11.1-46.4-27.8-92.2-38.6-135.7-4.2-16.3-8.2-32.2-12.3-48.3L418 842.8c-6.7-36.2-13.9-72.3-23.8-107.8z" fill="#257398"></path></g></g></svg>