<svg xmlns="http://www.w3.org/2000/svg" width="647.6" height="648.5" viewBox="-0.0012649442069232464 -0.009039717726409435 647.6025390625 648.509033203125" style=""><g><path d="M319.4 180.4c0 44.7 2 80.9 4.4 80.9s4.3-36.2 4.3-80.9-1.9-80.9-4.3-80.9-4.4 36.3-4.4 80.9zm53.5-60.6C386.6 54.4 395 .8 391.5 0s-17.6 51.6-31.4 117-22.1 119-18.6 119.8 17.5-51.7 31.4-117zm2.7 70.8c-18 40.8-30.9 74.6-28.7 75.6s18.6-31.2 36.7-72 30.9-74.8 28.7-75.7-18.6 31.3-36.7 72.1zm74.2-33.4c39-54.1 68.2-99.6 65.3-101.7s-36.8 39.9-75.9 94-68.2 99.7-65.3 101.8 36.9-40 75.9-94.1zm-26.9 65.7c-33 29.9-58.4 55.6-56.8 57.4s29.6-21 62.6-50.9 58.4-55.6 56.8-57.4-29.7 21-62.6 50.9zm82 .1c57.5-33.5 102.6-63.1 100.8-66.2s-49.8 21.4-107.3 54.8-102.6 63.1-100.8 66.2 49.8-21.4 107.3-54.8zm-49.2 57.1c42.2-13.8 75.8-26.9 75-29.1s-35.5 6.9-77.7 20.8-75.8 26.8-75.1 29.1 35.6-7 77.8-20.8zm-47.2 31.6c.4 3.6 54.2.9 120.2-6.1s119.2-15.6 118.9-19.2-54.2-.8-120.2 6.1-119.3 15.6-118.9 19.2zm51.3 25.7c44.1 4.7 80.1 6.5 80.4 4.1s-35.3-8.1-79.5-12.8-80.1-6.5-80.3-4.1 35.3 8.2 79.4 12.8zm57.3 53.4c63.1 20.7 115.2 34.6 116.3 31.2s-49.2-23-112.3-43.7-115.2-34.5-116.3-31.1 49.2 23 112.3 43.6zm-76.6.7c38.4 22.4 70.5 38.8 71.7 36.7s-28.9-21.9-67.4-44.3-70.5-38.7-71.7-36.6 29 21.9 67.4 44.2zm31.5 72.4c49.4 44.8 91.3 78.9 93.7 76.2s-35.6-41.2-84.9-85.9-91.3-78.8-93.7-76.1 35.6 41.1 84.9 85.8zM357.2 365c-1.9 1.4 17.7 31.9 43.8 68s48.7 64.3 50.7 62.9-17.6-31.9-43.7-68-48.8-64.3-50.8-62.9zm99 255.2c3.3-1.5-15.9-52.2-42.9-113.3s-51.6-109.3-54.9-107.8 16 52.1 43 113.2 51.5 109.3 54.8 107.9zm-99.6-167.3c-9.3-43.6-18.6-78.7-21-78.2s3.3 36.3 12.4 80 18.7 78.7 21 78.2-3.2-36.3-12.4-80zm-32.8 195.6c3.6 0 6.5-54.1 6.5-121s-2.9-121-6.5-121-6.5 54.1-6.5 121 2.9 121 6.5 121zm-24.3-193.8c9.2-43.6 14.8-79.5 12.4-80s-11.7 34.5-20.9 78.2-14.8 79.5-12.5 80 11.8-34.5 21-78.2zm-65.2 52.2c-27 61.1-46.2 111.8-43 113.3s27.9-46.8 54.9-107.9 46.2-111.8 42.9-113.2-27.8 46.8-54.8 107.8zm56-141.9c-1.9-1.4-24.7 26.7-50.7 62.9s-45.6 66.6-43.7 68 24.6-26.7 50.7-62.9 45.6-66.6 43.7-68zm-123.5 89.2c-49.3 44.7-87.4 83.1-85 85.9s44.4-31.4 93.7-76.2 87.4-83.1 85-85.8-44.4 31.3-93.7 76.1zm35.9-70.3c-38.4 22.4-68.6 42.2-67.4 44.3s33.4-14.3 71.8-36.7 68.6-42.1 67.4-44.2-33.3 14.3-71.8 36.6zm40.1-36.7c-1.2-3.4-53.2 10.5-116.4 31.1S13 418.6 14.1 422s53.2-10.5 116.4-31.2 113.4-40.2 112.3-43.6zm24.4-22.6c-.3-2.4-36.3-.6-80.4 4.1s-79.7 10.4-79.4 12.8 36.2.6 80.3-4.1 79.7-10.4 79.5-12.8zm-147-32.1C54.2 285.6.3 282.8 0 286.4s52.8 12.2 118.8 19.2 119.8 9.7 120.3 6.1-52.9-12.2-118.9-19.2zm74.4-20.7c-42.2-13.9-77-23.2-77.8-20.8s32.9 15.3 75.1 29.1 77 23.1 77.7 20.8-32.8-15.3-75-29.1zm-45.4-60.2c-57.5-33.4-105.6-58-107.4-54.8s43.3 32.7 100.9 66.2 105.5 57.9 107.3 54.8-43.3-32.8-100.8-66.2zm132.3 68.7c1.6-1.8-23.9-27.5-56.8-57.4s-61-52.7-62.6-50.9 23.8 27.5 56.7 57.4 61 52.7 62.7 50.9zM132.4 55.5c-2.9 2.1 26.4 47.6 65.4 101.7s73 96.2 75.9 94.1-26.3-47.7-65.4-101.8-73-96.1-75.9-94zm131.5 138.7c18.1 40.8 34.5 73 36.8 72s-10.7-34.8-28.8-75.6-34.4-73.1-36.6-72.1 10.6 34.9 28.6 75.7zM256.1 0c-3.5.8 4.8 54.4 18.6 119.8s27.8 117.7 31.4 117-4.9-54.4-18.7-119.8S259.6-.7 256.1 0z" fill="#f2df81" data-name="Layer 2"></path></g></svg>