<svg xmlns="http://www.w3.org/2000/svg" width="1080" height="1080" viewBox="0 0 1080 1080" style=""><g><g data-name="Layer 2"><circle cx="540" cy="540" r="540" fill="#fff"></circle><g fill="#0b0d4f"><path d="M883.1 472.5c-6.8-31.5-13.1-63.2-31.1-91.3s-36.8-56.9-60.8-81.2c-8.7-8.9-18.2-17-26.6-26.2-9.9-10.8-21.9-18.3-35.1-24.1s-24.2-11.5-36.1-17.5c-16.5-8.5-32.3-18.5-51.3-21.4-7.3-1.1-14.4-4.1-21.7-5.8-11.7-1-23.9-1.8-34.9-5.1-1.6.8-3.6.1-5.2-.1-30.1-3.7-60.1-1.4-90.1 1a46.5 46.5 0 0 1-7.5-.1c-11.6 1.9-23.1 3.8-34.6 6.8a14.4 14.4 0 0 1-3.8 1.8c-21 6.8-40.8 16.5-61 24.9-13.3 5.6-26.2 11.5-38.4 19.3a488.9 488.9 0 0 0-72.1 56.3c-22.6 21.1-32.6 48.9-46.2 75a13 13 0 0 0-1.1 5.6c0 6.4-2.9 12.1-5 17.8-6.2 17.1-13.3 33.9-18.7 51.2-10 31.8-16.2 63.9-7 97.2a201.5 201.5 0 0 1 6.3 32.4 209.8 209.8 0 0 0 12.6 52.8c7.1 18.9 12.8 38 19.4 57 8.4 24.1 21.5 45.2 37.4 63.8 32.5 37.9 69 71.3 116.3 90.8 21.7 8.9 44.8 13.5 66.1 23.3a15 15 0 0 0 5.6.9c30.9 1.7 61.5 7.7 92.6 2.5 29-4.9 58.5-4.9 86.8-15.4 21.4-8 41.7-19.3 64.4-23.7a5.6 5.6 0 0 0 2.6-1.2c22.9-15.5 47-29.5 68.1-47.1 19.1-15.7 34.4-35.7 46.8-57.5 4.3-7.4 10.5-13.6 13.3-22a86.8 86.8 0 0 1 14.7-27.7c9.5-11.7 12.3-26.8 20.6-39.1a15.7 15.7 0 0 0 1.8-6.9c.7-7.7 3.7-14.8 6.2-21.9s7.5-15.8 8.2-24.4c1.9-24.7 3.2-49.5 4.9-74.2 1.1-15.9-3.1-31.3-6.4-46.5zM772 310.7c36.3 36.9 65.7 78.1 81.2 128.3 3.6 11.4 7.8 22.4 8.5 34.5-4.2 3.6-10.5 2.5-13.9 7.3s-2.4 9.3-4.3 13.3c-6 11.5-3.1 22.1 1.1 32.9 4.8 12.6-.5 23.2-7.1 33.4-.6.9-2.6.9-4.7 1.5-5-9.4-6.8-19.6-8.8-29.7s-7.5-14.8-17.8-12.4c-2.3.5-5.1 1.1-6.6 2.6-10.8 11.2-27.1 13.1-39 21.8 4.2 10.7 15.3 6.6 20.7 12 .7 4.9-2.7 6.7-5.5 7.9-8 3.3-11.2 9.9-13.4 17.5-3.6 12.9-8 25.6-7.3 39.2.3 3.9 0 8 1.5 11.3 6.8 15.2 6.1 30.7 3.2 46.5-1.2 6.6-2.3 13.1-1.7 19.8.9 10.3-5.9 18-8.7 27-7.2 22.9-24.7 38.2-42 53.3a19.8 19.8 0 0 1-11.2 4.6c-8.8-7.9-9.6-18.7-8.8-29.7a42.7 42.7 0 0 1 3.9-15.2c13.6-27.8 7.1-54.7-3.1-81.4-1.6-3.9-3.7-8.2-6.8-10.9-12.2-10.2-23.2-22.2-41-24.2-11.5-1.2-22.1-6.3-26.7-18.8-1.4-3.7-2.7-7.4-1.9-11.2 3.1-12.3 2.5-25.5 8.5-37.3 4.2-8.6 6.6-17.9 8.5-27.3 1.3-6.5 2-13.2.2-19.8s-1.8-14.4-1.2-21.4c1.4-15.3 15.4-20.3 29-13.8a137 137 0 0 0 45.9 13.2c2.3.2 4.7-.5 7.3-.8a68.4 68.4 0 0 1 4.4 5.8c9.1 14.2 22.5 18.6 38.4 16.9 20.2-2.1 28.7-17.5 19.7-35.9a23 23 0 0 0-2.3-3.7 119.7 119.7 0 0 1-17.3-32.8c-5.8-17-22.1-21-37-26.1-2.7-1-5.7.4-8 2s-6.2 3.7-7.7 6.3c-13.9 24-36.2 15.5-56.3 14.8-7.4-.3-10.4-5.3-10.5-13s1.1-16.9 9.1-22.9 12.8-11.5 19.2-17.2a58.6 58.6 0 0 1 16.9-10.5c11.6-5 12.7-14.6 3.8-23.5-4.3-4.3-10.4-6.9-13.2-12.8-.4-.8-.4-1.9-1-5.1 15-4.8 27-14.2 40-21.9 15.6-9.1 33.9-8.7 51.4-3.9 5.1 1.4 8.7 5.8 12.4 9.5zm-190.5-84.6c7.9 1.8 12.8 5.6 13.9 14.3-8 6.2-17.3 1.8-25.9 3s-16.2 6-25.4 1.5c-2.9-6.4-1-11.9-1.4-18.1 13.6-.6 26-3.5 38.8-.7zm-20.5-9.8c-10.3 3.3-19.7-2.7-29.6-2.5 10.1-3.3 19.8-.5 29.6 2.5zm-253.7 88c15-9.1 28.1-21.1 43.7-29.4 3.7-1.9 6.5-5.4 9.7-8.4 12.5-12.2 29-16.8 44.6-24.5 8.1 14 19.1 12.4 30.7 8.5a102.5 102.5 0 0 1 13.6-4.3c8-1.7 15.7-2.9 21.7 5.5 3.5 4.9 9.7 5.9 15.5 6.3s9.5.4 14.3.7c5.2 6.9 1.4 12.2-3.1 16.5s-8.5 6.2-13 8.7c-10.1 5.6-20.3 10.9-29.3 18-5.4 4.2-11.8 6.4-18.3 7.9-20.3 4.8-36.3 16.7-50.8 30.9-4.4 4.3-9 8.5-7.3 15.9.9 4-1.5 7.5-4.3 10.2-10.7 10.4-15 23.9-18.8 37.8s-12.8 22.9-27.9 26.9c-13.6-21.1-21.7-42.7-13.1-67.7a53.1 53.1 0 0 0 2-6.8c2.5-10.8.7-13.6-9.9-16.2-4.1-1.1-8.5-1.2-12.2-3.7-3.7-16-1.1-24.9 12.2-32.8zm120.6 411.8c.5 6.2-.2 12.5-3.8 17.9-12.2 17.4-17.1 37.1-17.6 58.1-.1 1.8-.6 3.7-1.2 7.6a44 44 0 0 1-14.6-15.9 138.1 138.1 0 0 0-22.8-29.3c-14.1-14-16.9-32-16.3-50.1 1-26.4-4.7-49.8-22.2-70.2-11.2-13.1-20.6-27.4-30.1-41.9a25.4 25.4 0 0 1-3.8-12.1c-.4-7.1-.9-14.2-1.5-21.4-1.4-18.2 12.1-37.8 28.7-45.9l.8-.3c5.9-3.3 12.4-3.5 19.6-5.9s16.3-6.6 25.1-4.4 16.5 11.1 23.7 16.9c2.5 2 4.8 4.1 7 6.1 8.5 2.2 12.7 9.1 15.9 16.1.6 1.3 1 2.5 1.5 3.7 4.2 6.1 8.1 12.6 11.9 18.8 2.9 4.6 7 15 12.5 17.2l2.5 1.3c3.2-.1 6 2 8.6 4 4.4 3.4 10.2 5.4 12.7 11 1.1 2.8.4 5.7-.5 8.4-2.1 6.3-4.1 12.7-6.6 18.9s-4.2 10.1-6.7 15.2c-2 6.9-5.5 13.3-8 20l-1.2 10.3c-.8 6.1-1.2 13.1-4.2 18.6-.9 3.4-3.1 6.6-4.9 9.6-3.4 5.5-5.2 11.1-4.5 17.7zm439.8-128.3c-1.7 15-5.7 29.1-13.7 41.8-10.6 17.1-17.3 36.3-27.6 53.5l-5.1 8.8c-11.9 20.6-23.4 41.4-37.2 61s-31.2 34.7-50.8 47.7c-8 5.3-16.1 10.3-24.1 15.5s-13.7 8.9-22.2 9.7c-5.9.6-10.6 4.1-15.2 7.5-20.7 15-44.2 22.4-69.2 25.3-16.6 1.9-33.1 4.6-49.8 6.1-48.2 4.5-94.3-3.2-138.9-21-9.7-4-19.4-8.1-29.2-11.9a98 98 0 0 1-23.6-13.4c-17-13.1-34-26.4-50.1-40.7-21.6-19.1-37.2-42.5-50.4-67.4-17.1-32.4-29.5-66.9-40.5-101.8a27.9 27.9 0 0 1-1.4-9.9 105.6 105.6 0 0 0-3-32.6c-4.5-17.7-4.1-35.9-5.8-54-.5-6.1 2.7-11 3-16.8.7-17.6 4.8-34.8 9.1-51.8 2.7-10.9 8.5-21 14.4-30.7 3.3-5.4 7.3-10.3 7.4-16.9.1-3.6 2-6.2 3.7-9s4.5-6.5 5.3-10.1c3.5-14.8 11.5-26.9 21.7-37.6 4-4.3 6.2-9.6 10.9-14.4 4.3 6.2 1.7 13 3.2 18.9 2.3 2.9 5.5 3.9 8.7 4.8s5.7 1.1 8.5 4.2c1.4 5.9-.7 12.4-2.5 18.6-5.9 20.7-1.4 40 8.8 57.9 5.4 9.4 7.2 17.8 4.2 28.4-3.6 12.4-4.8 25.4-.1 38.1 1.7 4.5.5 8.1-3.2 11.4s-8.9 8.8-13.3 13.2c-11.6 11.4-16.1 25.7-15.3 41.7 1.1 20.4 5.4 39.4 19.4 55.7 8.1 9.4 15.2 19.7 22.5 29.7 11 14.9 17 32.1 15.9 51a129.8 129.8 0 0 0 4.7 42.5c1.9 7.2 4.8 13.4 10.2 18.5a161.6 161.6 0 0 1 26.1 32.1c5.8 9.4 13.2 17.3 23.5 22.6 6.7 3.4 12.2 9 18.6 13.3 3.5 2.5 7.6 5.2 11.4.6s1-8.2-1.4-11.8a24.2 24.2 0 0 0-5.1-5c-15.7-13.7-19.2-27.4-9.6-45.4 5.5-10.1 7.9-21.3 13.6-31.4 3.9-7 3.3-16.6 4.7-25.2.2-1.3-.4-2.9.1-4.2a198 198 0 0 0 10.6-45.5 6.2 6.2 0 0 1 1.2-2.6c12.7-13.9 16.2-32.2 22.9-48.9 5.1-12.7 3.7-16.3-7.2-24.1-3.1-2.2-6-4.7-9.5-6.4-8.5-4.2-13.8-10.4-17.1-19.7-4.7-13-15.5-22.9-20.6-36-1.5-3.5-5.5-5.1-8.8-7-12.1-6.8-24.1-13.7-34.2-23.5-3.6-3.5-7.4-3.5-11.7-1.6-5.8 2.4-11.4 5.1-17.4 6.7-15.4 4.2-22.8-1.5-23.3-17.3-.4-10.1 2-19.8 3.6-29.7 1.5-8.3 5.5-14.2 13.9-16.4 16.1-4.4 21.9-17.5 25.2-31.6 2.4-10.2 8.1-18.1 14-25.9 4.3-5.4 9.7-9.3 7.9-18-.7-3.6 3.9-9 7-12.7 8-9.2 16.1-18.3 29.3-21.3 9.2-2 18-6 26.9-9.7s14.6-6.4 20.3-12.8c4-4.5 10.3-6.7 15.8-9.6 9.8-5.1 19.4-10.5 24.8-20.9s1-19.5-10.5-20.3-19-1.4-27-10c-6.2-6.7-16.8-6-26-3.3-6.4 1.9-12.6 4.3-19.1 6.2-3.9 1.1-7.9.9-9.5-3.6s1.2-6.6 4-8.3c9.5-5.5 19.1-10.7 29.9-13 2.9-.6 5.5.7 8.2 1.4 13.8 3.5 27.6 7.6 42.2 5.3 5.3-.9 10.4.3 15.4 2.3 6.8 2.7 10.7 6.7 10.8 14.9.4 11.5 4.7 14.8 16.3 14.2a54.3 54.3 0 0 0 12.7-2c8.3-2.4 16.6-4.2 25.3-2.1a15.6 15.6 0 0 0 5.7 0c11.7-.9 16.9-9.1 13.1-19.9-1.6-4.5-5.9-7.7-5.7-12.9 9.1-3 17.7-1.9 26.4 1.9 25 10.9 50.3 20.6 73.3 35.7 11.1 7.4 24.3 11.1 35.6 18.5 5.2 3.4 10 7 13.3 13-4.9 4-10.4 2.8-15.3 2.9-12.9.4-24.6 3.5-34.1 12.7-3.9 3.8-8.6 6.1-13.5 8a84.7 84.7 0 0 0-20.1 10.8c-8.2 6.1-8.6 11.2-1.8 18.9 4.6 5.3 12.2 7.7 14.5 14.7a8.8 8.8 0 0 1-4.8 5.7c-14.6 6.9-25.3 18.8-37.2 29-7.8 6.5-11.6 14.8-12.8 24.8-1.5 12.4 1.9 18.5 14 23.1s24.6 2.9 36.9 2c4.7-.3 9.4-1.7 14.1-2.3s7.7-2.6 10.7-6.2c13.2-15.4 20.4-16.1 35.8-4.2a32.3 32.3 0 0 1 10.4 15.2c3.4 9.5 7.6 18.5 14.4 26.3a28.3 28.3 0 0 1 3.1 4.8c4.7 8.6 4.8 19.1.2 22.6s-21.8 4.5-27.1.6c-8.3-6.4-15.6-13.9-20.8-23.2-20 3.1-37.6-2.2-54-12.6a26.6 26.6 0 0 0-34.8 5.9 36.7 36.7 0 0 0-8.4 23.9 47.1 47.1 0 0 0 .9 10c4.4 17.1 1.1 32.9-5.7 48.8a113.3 113.3 0 0 0-9.1 40.4c-1 23.6 7 34.8 30 39.5 10.6 2.1 19.4 6.4 28.3 12.6 13.1 9.2 20.7 20.8 24 35.9 1.8 8.4 5 16.5 5.1 25.3.3 12.5-1.3 24.5-7.2 36-7.6 15.2-7.2 30.4 2.3 45 4.1 6.5 8.5 8.3 15.4 4.7 3.7-1.9 7-4.9 10.3-7.6 22.8-19.4 44.4-40.5 51.1-70.6 2.5-11.7 6.6-23.3 8.7-35.2 1.7-9.5 2.2-19.2-.3-29.2-.8-3.2-1.2-6.7-2.6-9.6-5.5-11.4-6.1-22.9-1.6-34.7a33.3 33.3 0 0 0 2-8.4c1.4-12.6 7.6-22.3 18.2-29.2 5-3.2 7-7.3 6-13.3-2.1-12.8 2.1-19.3 14.4-22.9 1.2-.4 2.8-.1 5.6-.3 5.2 12.9 6.6 27.2 10.8 40.3 14.5 1.6 20.5-1.6 25.9-12.7s9-20.7 4.5-31.7-2.5-22.1 1-33.3c5.2-2.3 8.5.8 9.5 5.1 1.7 8.4 5.1 16.4 5.1 25.2.2 22 1.2 43.9-1.3 65.9z"></path><path d="M799.5 649c6.5 3.2 8.1 9.4 6.7 15.3-1.9 8-4.2 16.1-8.3 23.4-.6 1-1.2 2-1.9 3-2.8 4.3-6.5 8-12.4 7.5a46.2 46.2 0 0 1 .3-19.2c2.4-11.3 8.1-22.7 15.6-30z"></path></g></g></g></svg>