<svg xmlns="http://www.w3.org/2000/svg" width="590.5" height="1031.2" viewBox="0.09996700286865234 0 590.4000244140625 1031.1842041015625" style=""><g><g data-name="Layer 2"><path d="M590.5 993c-1.4 8 .2 21.7-1.8 29.7 2.2 8.1-42.8 9.9-53.9 7.5-3.1.4-6-1.3-8.7-.5-6.4-.9-13.3 1.8-19.6-.5h1.1c-5.9-1.1-12.2 1.5-17.9-.4h.4c-5.7-1.3-11.9 1.2-17.6-.3s-11.9 1.2-17.1-.9-12.6 1.4-18.5-.6l-1.1.4c-6.7-.8-13.7 1.6-20.2-.5h1c-12.1-1.4-23.6.4-34.9-1.1-17.1-1.2-34.4-1-51.3-1.6-5.6-1.3-11.8 1.3-17.4-.4-33.8-.9-68.5-.1-101.6-1.3-35.9-.9-73.3 1.1-108.1-.6l-1.1.4c-6.6-.7-13.4 1.4-20-.2-13.2-1-26.6.7-39.5-.5-5.3-.4-10.7-.2-16-.2-2.8 0-5.2 0-8.4-.2a58.2 58.2 0 0 1-9.7-.9l-3.2.6a18.5 18.5 0 0 0-5.3-.1v-.5c.4-1.4.8-2.6 1.2-3.7a76.1 76.1 0 0 0-.2-9.6c-.2-3-.5-6-.7-9a10.9 10.9 0 0 1 .8-1.5c-.2-4.5-.8-9.2.1-13.5a11.8 11.8 0 0 0-.4-2c.8-2.1-.9-6.3.6-7a13.2 13.2 0 0 1 .3-5.3c-2-.9.6-6.4-.6-9.3 1.3-11.6-.8-23.9 1-35.1-.1-3 .3-3.5 1.2-2.1-.6-1.7-.3-3.9-.3-5.9s-1-38.2 0-39.9c-1.2-4.6.5-9.4-.2-14a14.2 14.2 0 0 0 .8-1.8c-.2-5.4-1.9-10.6-.3-16v-.2c1-13.4-1-26.7.7-39.5.2-3.1.3-6.3.4-9.4V581.6a34.7 34.7 0 0 1 0-7.2v-25.6c-.3-8.6-.6-17-.1-25.5a3.8 3.8 0 0 0 .1-1V515c-.5-4.8-1.5-9.6-.2-14.5v.3c.1-.6.1-1.1.2-1.7v-6.6c-.5-4.8-1.5-9.6-.2-14.4s.2-9.1.2-13.7v-31.6c-.1-7.9-.1-15.7 0-23.5v-28a32.9 32.9 0 0 1 0-8.3v-19.6a288.7 288.7 0 0 1 94.4-213.9c17.7-17.1 37.2-32.3 58.7-42.8l.8-.9q8.8-4 17.4-8.4l4.3-2.2 4.3-1.7 8.9-3.6 8.7-3.5a58.2 58.2 0 0 1 8.9-3c6-1.6 12.1-3.1 18.1-4.5h-.6a139.4 139.4 0 0 1 15.9-3l16.1-2.6c10.7-1.3 21.6-1.2 31.7-1.2l1.3-.4c6.6 1 13.5-.7 20 1.1l9.8.7 10 1.6 19.9 3.2c6.4 1.7 12.8 3.5 19.2 5.1 3.2 1 6.4 1.6 9.4 2.9l9.1 3.6c4.7 3.4 11.7 2.9 16 6.6 2.3 1.4 4.7 2.6 7.1 3.8l6.7 3.1c6.6 3 13.2 6 18.9 10.2a292.3 292.3 0 0 1 77.7 66.2 25.1 25.1 0 0 1 2.5 3.2 292.9 292.9 0 0 1 35.6 57.2 298.1 298.1 0 0 1 16.6 40.6c2.3 8.8 5.1 17.5 7.1 26.4s3.1 17.9 4.7 26.8 1.3 18.1 2 27.1.4 17.4.6 26.1c.7 42.6 2.3 86.7 1.7 128-1.4 7.6 2.3 15.2.1 22.8-.8 13.4.7 26.8-.4 39.5-.9 10.6.3 21.6-.7 32.2 1 31.3-.1 82.6-.7 114.9-.2 11.8-.4 23.5-.3 35v-.4c-.6 22.4 1.3 45.5 0 67.6.5 21.7 1 66.7 1.5 88.7.4 17.2.9 34.5 1.6 51.7.3 12 .8 24 1.4 35.8z" fill="#d58882"></path><path d="M590.5 931.2c-1.4 8 .2 21.7-1.8 29.7 2.2 8.1-42.8 9.9-53.9 7.5-3.1.4-6-1.2-8.7-.5-6.4-.9-13.3 1.8-19.6-.5h1.1c-5.9-1.1-12.2 1.5-17.9-.3h.4c-5.7-1.4-11.9 1.1-17.6-.4s-11.9 1.2-17.1-.8-12.6 1.4-18.5-.7l-1.1.4c-6.7-.8-13.7 1.7-20.2-.4h1c-12.1-1.4-23.6.4-34.9-1.1-17.1-1.2-34.4-1-51.3-1.5-5.6-1.4-11.8 1.2-17.4-.5-33.8-.9-68.5 0-101.6-1.2-35.9-1-73.3 1.1-108.1-.7l-1.1.5c-6.6-.8-13.4 1.4-20-.3-13.2-.9-26.6.7-39.5-.5-5.3-.4-10.7-.2-16-.2h-8.4a70.6 70.6 0 0 1-9.7-1l-3.2.6a18.5 18.5 0 0 0-5.3-.1v-.5a37.8 37.8 0 0 1 1.2-3.6 77.3 77.3 0 0 0-.2-9.7c-.2-3-.5-6-.7-8.9a8 8 0 0 1 .8-1.6c-.2-4.5-.8-9.2.1-13.5a11.8 11.8 0 0 0-.4-2c.8-2.1-.9-6.2.6-7a13.2 13.2 0 0 1 .3-5.3c-2-.9.6-6.4-.6-9.2 1.3-11.6-.8-24 1-35.2-.1-3 .3-3.5 1.2-2-.6-1.8-.3-3.9-.3-6s-1-38.2 0-39.9c-1.2-4.5.5-9.4-.2-14a14.2 14.2 0 0 0 .8-1.8c-.2-5.3-1.9-10.5-.3-16v-.2c1-13.4-1-26.7.7-39.4.2-3.2.3-6.3.4-9.5V519.8a34.7 34.7 0 0 1 0-7.2V487c-.3-8.6-.6-16.9-.1-25.5a3.4 3.4 0 0 0 .1-1v-7.3c-.5-4.8-1.5-9.6-.2-14.5v.3c.1-.5.1-1.1.2-1.6v-6.6c-.5-4.9-1.5-9.6-.2-14.5s.2-9.1.2-13.7v-31.5c-.1-8-.1-15.8 0-23.6v-28a32.9 32.9 0 0 1 0-8.3v-19.6C4.5 206.8 41 130.7 99 77.7c17.7-17 37.2-32.3 58.7-42.8l.8-.9q8.8-4 17.4-8.4l4.3-2.2 4.3-1.7 8.9-3.5 8.7-3.6a57.8 57.8 0 0 1 8.9-2.9c6-1.7 12.1-3.2 18.1-4.5h-.6a120.7 120.7 0 0 1 15.9-3.1l16.1-2.6C271.1.3 282 .4 292.1.4l1.3-.4c6.6 1 13.5-.7 20 1.1l9.8.7 10 1.7c6.6 1.1 13.3 2 19.9 3.2l19.2 5.1a72.9 72.9 0 0 1 9.4 2.8l9.1 3.7c4.7 3.3 11.7 2.8 16 6.5 2.3 1.4 4.7 2.6 7.1 3.8l6.7 3.1c6.6 3.1 13.2 6 18.9 10.2a292.7 292.7 0 0 1 77.7 66.3 16.1 16.1 0 0 1 2.5 3.2 289.2 289.2 0 0 1 35.6 57.1 294.2 294.2 0 0 1 16.6 40.7c2.3 8.8 5.1 17.4 7.1 26.3s3.1 17.9 4.7 26.9 1.3 18 2 27 .4 17.5.6 26.1c.7 42.7 2.3 86.7 1.7 128-1.4 7.6 2.3 15.2.1 22.8-.8 13.4.7 26.8-.4 39.5-.9 10.7.3 21.6-.7 32.2 1 31.3-.1 82.6-.7 114.9-.2 11.8-.4 23.5-.3 35v-.3c-.6 22.3 1.3 45.4 0 67.6.5 21.7 1 66.6 1.5 88.6.4 17.2.9 34.5 1.6 51.7.3 12 .8 23.9 1.4 35.7z" fill="#f3c1b2" opacity=".3"></path><g fill="#f6efe9"><path d="M177.2 504.9c.5 3.6-.5 6.9-1.4 10.3a18.3 18.3 0 0 1-1.4 2.9 4.5 4.5 0 0 1-.8-1.9c-.2-4.6-.5-9.2-.3-13.9.3-7.7.9-15.3 1.3-23 .6-12.5.7-25 .4-37.5-.2-15.8-.2-31.6-.6-47.4-.9-28.1-1-56.1-.8-84.1 0-9.8.5-19.5.6-29.2s.2-20.1-.3-30.1c-.2-6.1-.1-12.2-.2-18.3a16.9 16.9 0 0 1 1.3-6.3c.4-.8.9-1.4 1.8-1.4a2.4 2.4 0 0 1 2.3 1.8 4.2 4.2 0 0 1 .2 2.2c-.8 3.7.2 7.4.1 11.1s.1 7.2.2 10.8 1.3 7.2-.3 10.7c1.4 3.3-.5 6.5-.1 9.7a9.6 9.6 0 0 1 0 1.7c.8 6 .8 6.5-.2 11.4a10.9 10.9 0 0 0 .3 6.7 11.9 11.9 0 0 1 .7 4.7c-.2 6.2-.2 12.5-.3 18.7-.1 9.4-.1 18.9-.2 28.3v14.4c.2 7.2.5 14.4.6 21.7.1 4.9 0 9.9 0 14.8-.1 1.2-.4 2.5-.7 4.2a4.7 4.7 0 0 1 .6 4.8c.7 2.7-1.2 5.4-.2 8.1-1.6 2.6-.6 4.8.6 7.1a2.5 2.5 0 0 1 .2 1.3c0 3 0 6-.1 9.1 0 1.4-.1 2.9 0 4.3a66.3 66.3 0 0 1-.5 10.9 15.5 15.5 0 0 0 .1 2.1c-.1 2.7.8 5.4-.2 8a5.6 5.6 0 0 0 .1 1.8c.5 5.6-.1 11.2.1 16.8a13.6 13.6 0 0 1-.1 3.5c-1.1 3.9-.3 8.1-1.5 12 .7 3.7-1.4 7.3-.7 11.1.2 1.3-.4 2.9-.6 4.3h.1c-.6.7-.3 1.3 0 2zm1.2-265.6h.2zm.2 90.2h-.2z"></path><path d="M336.3 502.6c-1.9-3.8-3.6-7.4-3.5-11.8.2-6.5.3-13 .4-19.6.8-1.9 0-4.2 1-6.1a1.9 1.9 0 0 0 0-1.3c-.9-4.5-.4-9.2-.5-13.8s.1-10.5.2-15.7c.1-1 .1-2 .2-3a26.6 26.6 0 0 0 .1-6.9c-.1-3.9 0-7.8 0-11.7.1-6 .6-12.1.3-18.2-.2-4.5-.1-9 0-13.5s0-9 .2-13.5c.1-2.7-.1-5.5.7-8.1-.8-2.1.1-4.3-.4-6.4a9.4 9.4 0 0 1 .2-5 5.5 5.5 0 0 0 .4-2.5c-.2-3.3.1-6.6-.4-9.8a20.6 20.6 0 0 1-.1-4.3v-6.1c.1-8.7.3-17.4.5-26.1a5.6 5.6 0 0 1 .4-2.9.8.8 0 0 0 .1-.8c-1.5-3.7-.5-7.4-.4-11.1s.2-7.8.2-11.7l.3-21a38.9 38.9 0 0 1 .4-4.7c.3-1.5-.1-3 .2-4.6a40.4 40.4 0 0 0 .5-7.8c0-4.2-.1-8.3-.3-12.5s.5-7.7.7-11.6a60.3 60.3 0 0 0 0-9.5 11.3 11.3 0 0 0-.3-2.5 6.1 6.1 0 0 1-.1-4.6 14.1 14.1 0 0 0 .4-6.8 20.6 20.6 0 0 1 .1-4.3 67 67 0 0 0 0-15.5 4.5 4.5 0 0 1 .1-1.2 3.4 3.4 0 0 1 1.4-1.3 1.8 1.8 0 0 1 1.3.5 6.4 6.4 0 0 1 1 3.7q-.5 39.1-.7 78.4l-.6 63.6-.3 30.1c-.1 14.3-.3 28.7-.4 43.1-.3 20.5-.6 40.9-.8 61.4-.1 15.4-.1 30.8-.1 46.2-.1 2.8-.4 5.5-.6 8.3a2.7 2.7 0 0 1-1.8 2.5z"></path><path d="M409.6 285c-.5-3.9-1.4-7.7-.5-11.8.4-1.4 0-3.1-.1-4.6a2.3 2.3 0 0 1 .9-2.2 1 1 0 0 1-.1-.4 1.8 1.8 0 0 0 .1.5 5.9 5.9 0 0 1-.9-2.4 73.8 73.8 0 0 1-.4-8.2c.1-4.2.3-8.3.5-12.5a2.4 2.4 0 0 1 .8-2.2 1.4 1.4 0 0 0-.2-.7 6.4 6.4 0 0 1 .2.7c-1.2-2.6-1-5.3-.4-8a5.3 5.3 0 0 0 0-2.5 9.6 9.6 0 0 1-.2-3.4 2.6 2.6 0 0 1 2.4-2.3c1.1 0 1.6.8 2 1.7a19.1 19.1 0 0 1 1.1 6.4c-.2 7.1-.3 14.2-.4 21.3-.2 11.2-.2 22.4.1 33.5.3 15.4.5 30.8.5 46.2.1 13-.1 25.9-.3 38.8-.1 9-.6 18-.7 27-.2 12.5-.2 25-.3 37.5-.1 4.3-.3 8.7-.4 13 0 13 .4 25.9 1.2 38.8.5 7.2 1.2 14.4.9 21.7-.1 1.8-.2 3.5-.4 5.2a3.4 3.4 0 0 1-.5 1.4c-1.4-.1-1.5-1.4-1.7-2.2s-1.5-4.5-1.4-6.7c.2-4.1-.9-8-.7-12a4.1 4.1 0 0 0 0-2.2c-1-2.8-.6-6-1.2-8.9-.2-1.3-.5-2.5.3-3.7a1.6 1.6 0 0 0-.1-1.2c-1.4-2-1.2-4.5-1.2-6.6-.3-6.1-.1-12.2-.1-18.3 0-.4-.1-1 .1-1.3s.2-1.4 0-2.2a14.6 14.6 0 0 1-.3-5.1c.5-3.2-.2-6.4-.1-9.5s0-6.1 0-9.2-.1-6.1 0-9.1a24.6 24.6 0 0 1 1.1-4.5c.4-1.3.7-2.5-.6-3.4s-.2-1.3 0-1.5a2.6 2.6 0 0 0 .5-3.1c-.9-2.9-1.5-5.8-.1-8.7a1.6 1.6 0 0 0-.1-1.2c-.8-1.3-.5-2.8-.6-4.2-.2-8.7.3-17.4.5-26.1.2-6.8.1-13.7.1-20.5.1-9.6.1-19.2.1-28.7 0-7.3-.1-14.5-.2-21.8 0-2-.1-4 1-5.8s-.1-2-.2-2.9h-.1a1.3 1.3 0 0 0 0-1.9zm.1 44.2c0 .1.1.2.1.3s.2-.2.2-.3l-.2-.2z"></path><path d="M254.4 473.2c.2.3.6.5.7.9a4.7 4.7 0 0 1 .3 1.7c.2 4.8.4 9.5.5 14.3s-1.6 8.6-3.6 12.4c-1.4-.2-1.8-1.4-1.9-2.5-.2-2.7-.5-5.5-.5-8.3-.1-8.4.1-16.8 0-25.2-.1-16.1-.2-32.2-.4-48.4-.2-22.9-.5-45.9-.8-68.8-.2-10.3-.4-20.6-.5-30.9-.2-17.5-.3-34.9-.5-52.3s-.1-34.9-.2-52.3c-.1-14.8-.3-29.7-.4-44.5a7.1 7.1 0 0 1 1.3-4.6 1.9 1.9 0 0 1 2.1 2.4c0 3.1-.2 6.1-.2 9.1s.2 5.3.3 7.9a11.9 11.9 0 0 1 0 4.2 6.3 6.3 0 0 0 .3 3 15.5 15.5 0 0 1 0 8 20.1 20.1 0 0 0-.3 8.1c.3 2.8.2 5.5.5 8.2a75.7 75.7 0 0 1 .2 9.5c0 3.5-.2 7-.1 10.4s.5 4.1.4 6.1 1.3 2.7.1 4.1.4 2.7.5 4.1.1 2.6.1 3.9.1 2.9.1 4.4c0 3-.2 6.1-.1 9.1s.3 4.6.4 6.9c.1 5.9.3 11.9.4 17.8s0 11.9.1 17.9c0 3.9.3 7.8.4 11.7s0 9.6 0 14.4a15.3 15.3 0 0 1-.3 3 2.9 2.9 0 0 0 0 2.4 4 4 0 0 1-.2 2.1 9.6 9.6 0 0 0 0 6.7 12.4 12.4 0 0 1 .5 4.2l.3 14.7c.1 6 .2 11.9.1 17.9-.1 3.7.6 7.5-.4 11.2.8 2.1.2 4.3.4 6.4a158.7 158.7 0 0 1 .4 19.5c-.1 3.4 0 6.6.1 10 .1 5.5.4 11 .5 16.5.1 3.7 0 7.5-.1 11.2 0 1.4-1.2 2.6-.1 4.1s-.4 2.4.2 3.8a3.5 3.5 0 0 1-.6 3.6 2.4 2.4 0 0 1 .2-.8 2.4 2.4 0 0 0-.2.8zm-2.3-177.6l.2-.2h-.3z"></path><path d="M282.1 252.5c-.3.8-.9 1.5-.9 2.3-.2 4.6-1.1 9.3 1.1 13.6-.4 1.3-.9 2.5-1.2 3.7a4.6 4.6 0 0 0 .6 4.4c.5.6 1.3 1.7-.4 1.9.1.7-.1 1.5.2 2.1s1.6 2.1 0 3.2a2.7 2.7 0 0 0 .1 1.2c1.1 2 .8 4.2.3 6.3s-.8 3.1.1 4.9.2 4.2-.3 6.3a30.3 30.3 0 0 0-1.2 5 29.6 29.6 0 0 0 .6 5 7.8 7.8 0 0 1 .2 3.4 17.8 17.8 0 0 0 0 6.5c.4 2.8 0 5.7.8 8.5a5.9 5.9 0 0 1-.2 2.9c-.6 3-1.7 5.9-.4 8.9-.7 2.9.5 6-.9 8.8a4.4 4.4 0 0 0-.2 1.7c.2 4.2-.4 8.4 0 12.6a36.8 36.8 0 0 1 0 4.7 11.3 11.3 0 0 0 0 2.6c.2 1.4.7 2.8 1 4.1s-.7 2.9-.6 4.5a21.7 21.7 0 0 1-.3 4.4 7.1 7.1 0 0 0 .9 4.5 3.8 3.8 0 0 1 0 4c-1.5 3-1.2 4.7.7 8.2-.3.2-.8.3-.9.6a1.3 1.3 0 0 0 .1 1.2c.6 1.2 1.7 2.4.1 3.7-.1 2.8-.1 5.7-.2 8.6a5.7 5.7 0 0 0 .8 3.7c.4.7.2 2.2.1 3.3s-.6 2.2-.9 3.3a34.5 34.5 0 0 0-1.2 4.6 23.8 23.8 0 0 0 .4 4.6c.4 2.5-.1 4.9-.1 7.4s-.9 4.2.2 6.3a2.1 2.1 0 0 1-.2 1.3c-.1.4-.5.8-.4 1.1.5 3.1-.7 5.9-.7 9a92.4 92.4 0 0 1-.7 10.4 21 21 0 0 1-.6 2.4c-1.1.2-1.1-.6-1.2-1.3a112.5 112.5 0 0 1-.6-17.4c.3-6.7.9-13.3.9-20s.7-14.2.4-21.3-.4-13.9-.6-20.9c0-2.9-.1-5.8-.1-8.7-.1-14.8-.2-29.7-.2-44.5 0-9.6.3-19.2.3-28.8.1-6.5 0-13 .1-19.5s.3-13.1.3-19.6c0-9.2-.2-18.3-.3-27.5-.1-1.6 0-3.2 0-4.8a358.9 358.9 0 0 0-.1-37.4c-.2-4.2-.1-8.4-.2-12.7s-.3-8.1-.4-12.1l-.9-25.3c0-2.1 0-4.3.1-6.5a10.5 10.5 0 0 1 .5-3c.5-1.6 1.1-1.9 3.5-1.6 0 1.4.4 2.8-.2 4.4a10.8 10.8 0 0 0-.5 4.7c.3 3.1-.7 6.4.8 9.4.2.5-.3 1.5-.1 2 .6 2.2-.4 4.3.2 6.4a12.7 12.7 0 0 1-.3 6.4c-.2.9.6 1 1.2 1.1-1.2 2.2-1.2 2.2-1.2 4.3a38.2 38.2 0 0 0 .4 6.8c.4 2.1.4 4.3.6 6.5s.3 6.9.7 10.3a15.8 15.8 0 0 0 .9 3.5c-.3 3.1-.9 5.6-.6 7.9a25.1 25.1 0 0 1 .1 6.7 2.4 2.4 0 0 0 0 1.2c1.4 1.8.8 3.4-.1 5.1a11.7 11.7 0 0 0-.7 3.8c-.4 5.3.1 10.6 0 16a7 7 0 0 0 1.5 4.7zm-.9-26.8c.1.1.1.3.2.4l.3-.6-.2-.3zm.1 63.5c0 .1.1.2.2.3a1.4 1.4 0 0 1 .2-.6l-.2-.2z"></path><path d="M306.7 226.8a2.3 2.3 0 0 1-.3-2.4c.9-1.3.5-2.7.5-4.1s-.4-3 .3-4.6a7.8 7.8 0 0 0 0-3.4c-.4-2.9-1.1-5.7.5-8.4-.3-4.1.8-8 .6-12.1a9.8 9.8 0 0 1 .3-3.8 27 27 0 0 0 .4-10.2c-.1-1.3.5-2.3.3-3.4s-.5-2.2-.6-3.3a5 5 0 0 1-.1-1.7c1.2-5.8.9-11.8 1.3-17.7a85.9 85.9 0 0 0-.8-10c2.1-1 3-.7 3.6 1.5a12.1 12.1 0 0 1 .5 3.4c-.2 7.5.3 15.1-.6 22.6-.2 2-.1 4.1-.1 6.1-.5 14.2-1.1 28.4-1.4 42.6-.1 6.1.4 12.2.4 18.3.1 7.8 0 15.7 0 23.5s0 17.1.1 25.7 0 16.3.1 24.4c0 6.5.2 13.1.2 19.6.1 8.7.1 17.4.1 26.1-.1 10.9-.1 21.8-.2 32.7s-.5 19.1-.7 28.7a21.6 21.6 0 0 0 0 4.4c.5 6.6.4 13.3.6 20 .2 4.6.6 9.2.7 13.9a95.5 95.5 0 0 1-.5 16.9l-.4 2.7c-.6-.7-1.1-1.1-1.1-1.4-.4-3.8-.8-7.5-1.1-11.3-.1-1.7.1-3.2-.6-5s-.3-4-.2-6-.2-6.6-.3-10 .2-5.4.2-8.2a6.5 6.5 0 0 0-.2-2c-.5-2.4-1.1-4.8-1.7-7.1-.1-.8-.5-2-.2-2.5 1.2-2.3.8-4.7.9-7.1a25.2 25.2 0 0 0-.7-7.2c-.1-.3-.2-.7 0-.8 1.3-1.7.6-3.9 1.3-5.8a7.5 7.5 0 0 0-.4-5.9 4.3 4.3 0 0 1-.2-4.1c.9-1.7.8-3.5.8-5.4a61 61 0 0 1 .2-11.3c.3-2-.2-4.1-.1-6.1.4-4.6-.1-9.2 0-13.8 0-1.4.1-2.9-.9-4.1s-.5-1-.3-1.2c1.2-2.2-.8-4.4.1-6.6a7.8 7.8 0 0 0 .1-6.5c-.4-1.5-1-3.3-.6-4.6s.3-4.2.3-6.3.3-2.6.4-3.9.7-2.2.3-2.9c-1.5-3.2.3-5.9.5-8.8a9.2 9.2 0 0 0-.1-2.9l-1.5-6.7c-.3-1.4-.7-2.8.4-4.1s.2-1.1.1-1.6-.5-2.2.1-3.4a3.4 3.4 0 0 0-.4-1.5c-.1-.2-.4-.5-.4-.7.9-2.5-.1-5.1-.1-7.6s1.7-.9 1.1-2.2-.1-1.9.3-2.8a5 5 0 0 0 .1-2.1c-.3-1.5-.8-3-1.3-4.9 1.8-4.2 1.6-9.1 1-14a5.7 5.7 0 0 1 .2-2.9 10.2 10.2 0 0 0 .4-5.2 14.7 14.7 0 0 1 0-2.1c.5-4.2 0-8.4 0-12.6a7.7 7.7 0 0 0-1.3-4.9l.5-.5-.2-.3a2.9 2.9 0 0 1-.2.9z"></path><path d="M265.8 492.8a37.2 37.2 0 0 1-1.8-12.2c.1-5.9.1-11.9.4-17.8.3-7.7.2-15.4.4-23.1 0-.5-.1-1.1-.1-1.7 1.1-10.1.1-20.3-.1-30.4-.4-16.8-1.7-33.6-1.6-50.5 0-4.4-.4-8.9-.4-13.4.1-9.9.3-19.7.4-29.6.1-7.2.5-14.5.4-21.7 0-10.9-.3-21.7-.5-32.6-.1-5.1 0-10.2-.2-15.2l-.9-27.4a5.7 5.7 0 0 1-.1-1.3c.3-10.3 0-20.6 0-30.9-.1-5.6.2-11.3.2-17 .1-2.7-.2-5.5-.1-8.2a9.3 9.3 0 0 1 .7-3.3c.2-.8.8-1.5 1.7-1.2a1.8 1.8 0 0 1 1.2 1.9c0 2.6-.1 5.2-.1 7.8s0 3.1.1 4.6h1.2c-2 4.2-1.3 8.8-1.8 13.2a8.6 8.6 0 0 0 1.7 5.6c-.3 1.7-1.4 3.3-.5 5-.9 1.5-.7 3-.6 4.6a5.4 5.4 0 0 1 0 1.8c-1.2 5.7-.4 11.4-.1 17.2 0 1.4 0 2.9.1 4.3.2 3.5.4 7.1.5 10.7a71.6 71.6 0 0 0 1.1 9.3 20 20 0 0 1-.3 6c-.2 1.8-.2 3.4.9 4.9s.3 1.8.5 3l-1-.8c-.1.3-.4.5-.4.7.1 3.4 0 6.7.2 10a9.7 9.7 0 0 1 0 3.4 6.5 6.5 0 0 0 0 3.4 33.4 33.4 0 0 1 .3 9.5 19.6 19.6 0 0 0 .9 6.3 14.7 14.7 0 0 1 .6 4.2 54.2 54.2 0 0 0 .1 5.7c0 1.5.6 3.2-.8 4.3a.8.8 0 0 0-.2.8 7.8 7.8 0 0 1-.9 7.1l1.6 1.5c-1 3.8-2 7.6-.9 11.7a2.6 2.6 0 0 1 .1 1.2c-1.1 4-1.1 4-.1 8.6a5 5 0 0 1-.2 1.7 19.1 19.1 0 0 0-.7 8.9 20.3 20.3 0 0 1 .2 4.3 3.1 3.1 0 0 0 1.8 3.2c-1.1 2-3.2 4.1-.2 5.9v.7l-1.4 1.9c.2 1.9.2 3.6.4 5.3a4.1 4.1 0 0 0 .8 1.9 3.3 3.3 0 0 1 .4 2.9c0 .2-.6.2-1 .3a6.9 6.9 0 0 1-.3 2.4 4.6 4.6 0 0 0 .4 3.8 4.9 4.9 0 0 1 .2 5.2 4.9 4.9 0 0 0-.4 2.1V398c0 1.1.2 2.3.2 3.5a42.9 42.9 0 0 0 .7 12.4 1.4 1.4 0 0 1 .1.9c-.8 2.9-.2 5.7.3 8.5a5.3 5.3 0 0 1-.1 1.3c-1.3 7-.8 14.1-1.4 21.2l-.3 5.6c-.1 1.7-.1 3.5-.2 5.2s.1 1.2.1 1.7c-.1 3.1-1.1 6.1-.6 9.4s-.1 6.3-.5 9.5.4 3.7.1 5.6a14.7 14.7 0 0 0 .4 5.1 20.5 20.5 0 0 1 0 3.5c0 .5-.4.9-.6 1.4z"></path><path d="M320.7 369.5l-.8.3-.3-.7a5.1 5.1 0 0 1 1.1-3.1c.7-1.1.6-1.3-.8-2.9.2-1.2 2-1.4 1.6-3a21.9 21.9 0 0 0-1.3-2.7 11.8 11.8 0 0 0 1.2-3.3c0-1-.8-2-1.4-3.2a4.3 4.3 0 0 0 1.6-3.4 53.4 53.4 0 0 1 .5-6.9c.3-2.3-.7-4.2-1.1-6.3-.1-.5-.3-1.3 0-1.6s.7-3.9.7-5.8c-.1-4-.3-7.9-.5-11.8a28.3 28.3 0 0 0-.9-3.7c.8-.8 1.5-1.8.8-3.2s-1.5-3.3-.8-5.3c.2-.3 0-.9-.1-1.2a15.1 15.1 0 0 1-.3-7.3.6.6 0 0 0 .1-.4 21 21 0 0 1-.2-4.3 24.7 24.7 0 0 1 1.1-3.6 11.7 11.7 0 0 0 .4-4.5c-.3-1.7.2-3.2.1-4.7a15 15 0 0 1 .4-5.6 5 5 0 0 0 .1-1.7c-1.1-3.1.1-6.3-.4-9.4a5.5 5.5 0 0 1 .1-1.8 5.4 5.4 0 0 0-1-5.6c1.6-2.1 1.6-4.3 1.1-6.6a13.1 13.1 0 0 1 .2-6.8c.5-1.9 1.1-3.9.5-6a2.9 2.9 0 0 1 0-1.3c1-3.2.5-6.5.6-9.7s.4-5 .5-7.4l.3-10.8c0-.3.1-.7.1-.9-1.3-4.3-.5-8.9-1.4-13.2a4.7 4.7 0 0 1 .4-3.3 8.5 8.5 0 0 0 .8-5.4 174.3 174.3 0 0 1-.4-21.7 15.1 15.1 0 0 1-.1-3 2.4 2.4 0 0 1 1.3-1.3c.3-.2 1 .2 1.2.6a6.7 6.7 0 0 1 1 2.8 25.1 25.1 0 0 1 .1 3.9c0 14.9 0 29.9-.1 44.8 0 5.7.3 11.4-.2 17-.7 9.7-.5 19.4-.9 29.1s-.4 17.7-.5 26.5c0 7.1.1 14.2.2 21.3.2 10.3.6 20.6.6 30.9 0 12.8-.3 25.6-.6 38.3-.2 8.7-.4 17.4-.9 26.1s-.7 17.4-.8 26.1c0 1.6-.2 3.2-.2 4.8a74.8 74.8 0 0 0 .2 8.2 71.3 71.3 0 0 1 .2 11.3c-.1 6.6.5 13.1.6 19.6s.1 12.2 0 18.3a46.7 46.7 0 0 1-1 7.5c-.7.4-1.1 0-1.1-.6a10.5 10.5 0 0 1-.3-3c1.1-5.3.5-10.6.3-15.9-.1-2.7-.6-5.5.2-8.2a2.8 2.8 0 0 0-.3-2 11.6 11.6 0 0 1-.6-5.2c.2-6.6-.9-13.3-.9-19.9l-.3-7.3c-.1-1.7.1-3.4-.6-5s.2-3.4.3-5a9.8 9.8 0 0 0 .2-3.4c-.6-1.7-.2-3.3 0-5a59.7 59.7 0 0 0 .5-7.3c.1-2.5.1-5 .1-7.4.1-4.9 0-9.8 0-14.7a2.5 2.5 0 0 0-.1-.9c-1.4-2-.8-4 .1-6a5.3 5.3 0 0 0 .4-2.5c-.1-1.2-.4-2.4-.6-3.7z"></path><path d="M162.6 287.9c.7 1.7 1.4 3.4 2.2 5.1l-1.4.6v.5l1.2-1.1c.1.9.3 1.9.5 2.9l-2.1.9c.2.5.2 1.2.5 1.5a8.4 8.4 0 0 1 1.6 5.6c-.1 1.3 0 2.6 0 3.9a5.3 5.3 0 0 1-.2 2.2c-2.1 5.4-.9 11.1-.7 16.6a22.6 22.6 0 0 1 .1 2.6 9.1 9.1 0 0 0 .1 1.7l.8 1.7a13.6 13.6 0 0 0-.9 7c.5 3.3-.1 6.6.3 9.9s.5 8.4.8 12.6a4.9 4.9 0 0 0 .4 2.1c2 3.4 1.3 7.2 1.4 11a5.6 5.6 0 0 1-1.2 2.6 4.9 4.9 0 0 0-.5 4.1c.5 1.8 1.1 3.5 1.7 5.3l-1.4.4a6.2 6.2 0 0 0 .6 5.3 10.9 10.9 0 0 0-.9 2.3 19.3 19.3 0 0 0-.2 4.8c.7 5.3-.4 10.6.1 15.9.1.6-.1 1.3.1 1.7a5.5 5.5 0 0 1 0 3.8 4.6 4.6 0 0 0 .7 4.8c-.3.5-1 1-1 1.6-.5 5.9-.9 11.8-1.3 17.8-.2 2.6-.7 5.2-.4 7.7.5 4.9-1.3 9.5-.5 14.3a66.9 66.9 0 0 0 0 15.4l.3 7.8c.1 1.5-.4 3.1-.4 4.6s.6 3.2.4 4.7a34.1 34.1 0 0 1-1 4.6c-.4 2.1-.3 4.3-1 6.3-1 0-1-.8-1.1-1.4a198.1 198.1 0 0 1-.7-23.1c.3-12.3.8-24.7 1.2-37 .1-2.6.1-5.2.1-7.8.3-7.4.6-14.8.8-22.2s.2-12.5.2-18.7c.1-13.8-.4-27.6-1.1-41.4-.5-11.3-.9-22.6-1.4-33.9-.2-3.5-.6-7-.8-10.4-.3-7.1-.5-14.3-.7-21.4s-.5-14.7-.8-22.1c0-1.8-.1-3.5-.1-5.3-.1-5.5-.1-11-.2-16.5a12.8 12.8 0 0 1 1-5.5c1-2.3 1.7-2.7 3.9-2.3l1.9.9c-.1 4.2.3 8.4-.1 12.6-.1.7 0 1.5-.8 1.8s-.8 1-.8 1.7c.1 2.4.2 4.9.4 7.3.1.6.7 1.1 1.1 1.7s-1.9 1.6-.3 3.1a5.1 5.1 0 0 1 .9 2.7 2.4 2.4 0 0 1-.4 1.6 6.4 6.4 0 0 0-.5 6.4l1 2.1c0 1.7-2 2.2-1.4 4zm.1-3.2a.9.9 0 0 1 .1-.5.2.2 0 0 0-.2.2c-.1.1 0 .2.1.3z"></path><path d="M425.2 265.1c.7-.7 1.5-1.1 1.4-2.4s.1-2.6.1-3.9.2-1.9-.8-2.6-1-1.9-1-3.1v-9.5c.9-1.7 2.3-1.8 3.7-1.7a2.5 2.5 0 0 1 1.5 1 10.4 10.4 0 0 1 1.7 5.3 9.1 9.1 0 0 1 .1 1.7c-.2 7.8-.4 15.7-.5 23.5-.1 2.3 0 4.7-.1 7-.3 8.8-.7 17.7-1 26.5-.2 4.4-.3 8.7-.5 13.1-.5 9.1-1.1 18.2-1.5 27.3-.6 12.9-1.2 25.8-1.5 38.7s-.3 23 .2 34.4c.3 7.7.4 15.4.7 23.1l.9 26.1a358.8 358.8 0 0 1-.1 37.4c-.1 1.4-.3 2.8-.6 4.6a7.7 7.7 0 0 1-.9-1.3c-.6-3.2-1.1-6.5-1.7-9.8 0-.5.1-1.1.1-1.7s.1-4 .2-6v-3.5a9.1 9.1 0 0 0 .1-1.7c-.5-5.3.9-10.6.1-15.9s.3-9.3-.9-13.8a3.1 3.1 0 0 1-.2-.8c.8-5.8-.3-11.6-.5-17.3s-.7-8.9-1.1-13.4a4.5 4.5 0 0 1 .1-1.1 10.1 10.1 0 0 1 .3-1.7c.3-1.9-1.8-3.5-.8-5.4s.2-3.6.4-5.5-.2-3.7-.2-5.6v-16.5c0-1.3.2-2.5-.6-3.7a3.4 3.4 0 0 1 .1-3.4 6.6 6.6 0 0 0-.5-6.8 5.7 5.7 0 0 1-.8-2.9c0-3.3.1-6.6 1.5-9.7a7.5 7.5 0 0 0 .4-3c.1-1.1-.1-2.3.1-3.4a84.5 84.5 0 0 0 .8-15.1 14.6 14.6 0 0 1 .2-3 10.6 10.6 0 0 0-1-7 8.2 8.2 0 0 0 .9-1.9c.4-1.6-1.4-3.3.3-4.8l.3-5.6c.1-1.8.1-3.5.1-5.3a6.8 6.8 0 0 0-.5-2.9c-1.7-3.6-.6-7.4-.8-11.1a2.9 2.9 0 0 1 1.3-2.5c.3-.1.5-.6.7-1s-.3-1.3-1.2-1.3h-.9a43.7 43.7 0 0 0 .9-5c.2-1.3 0-2.4 1.2-3.4s.5-2 .7-3.1l-1.7-.4a14.8 14.8 0 0 0 1.5-3.5 37.1 37.1 0 0 0 .3-4.7c-1.6-1.2-1.9-1.9-1.3-3.4a10 10 0 0 1 .8-1.4 6.7 6.7 0 0 0 .6-1.2c-.9-1.5-2-3-1-5.1.1.3.1.6.3.8s.3.2.5.2 0-.5-.2-.6a.8.8 0 0 0-.7-.3z"></path><path d="M150.5 404.8c.2 2.8.8 5.6.4 8.5-.1.9.3 2.1-1 2.4s-.3.5-.3.7v3.1l1.8 1.4c-.1 1.3-.1 2.9-.2 5a5.6 5.6 0 0 1-.9-1.4c-.2-.2-.2-.5-.3-.8s-.3.4-.3.6c-.2 3.6.8 6.8 1.4 10.2s1.1 8.2-.3 12.3v-.7a1.8 1.8 0 0 0 .1.6 5.9 5.9 0 0 0-.8 4.1c.4 2.2-.9 4.7 1 6.5-.1 1.8-.1 3.7-.3 5.6s-.4 1.2-.3 1.6c1.5 5.3-.1 10.6.3 15.9 0 .3-.1.6-.1.9a29.5 29.5 0 0 0-.7 8.9 4.8 4.8 0 0 1 0 1.7 86.9 86.9 0 0 0-1.4 12.5 5 5 0 0 1-.2 1.2c-.1.2-.4.5-.6.5s-.8-.2-.8-.5a7.1 7.1 0 0 1-.6-2.5c-.2-2.9-.4-5.8-.4-8.7-.1-14.4-.1-28.7-.3-43.1-.2-11.4-.6-22.7-.9-34-.3-9.3-.5-18.6-.7-27.9-.1-6.8-.2-13.6-.2-20.5 0-3 .2-6.1.2-9.1.2-7.8.2-15.7.5-23.5s.6-13.9.9-20.9c.2-3.3.2-6.7.3-10 .2-8 .5-16 .6-24 0-4.3-.2-8.6-.2-13q.2-3.4.6-6.9c.2-1.5.5-3.2 2.2-4l1.6 1.8c-.2 1.4-1.1 2.5-1 4 .2 3.5.1 7 0 10.4a11 11 0 0 1-.2 2.6 13.9 13.9 0 0 0 0 7.3 1.7 1.7 0 0 1 0 1.2c-.9 2.4-.3 4.9-.3 7.3.1 4.3.1 8.6.2 12.9a5.4 5.4 0 0 0 0 1.8c1 2 .8 4.2.5 6.3a3 3 0 0 0-.1 1.3c1.3 2.7.2 5.4 0 8s-.4 5.8-.6 9.4c.2.7 1.7 1.5 1.4 3.1s-.6 1.8-1 3.1a24.3 24.3 0 0 1 1.1 9.2c-.2 9.2.1 18.3.1 27.4.1 3.2.1 6.4.1 9.6a7.5 7.5 0 0 1-.4 1.6c-.1.6-.4 1.2-.2 1.6 1.1 2.2.4 4.5.3 6.8 0 .7-.4 1.5-.2 2.1 1 2.8.1 5.7.2 8.6h-.7zm-1 8l.3.7c.2-.2.4-.4.4-.6a1.5 1.5 0 0 0-.3-.7zm.2-5.7v.3h.2a.4.4 0 0 0-.1-.3z"></path><path d="M225.8 363.2c-.3.5-.8 1-.8 1.5.2 3.1-.5 6.2 0 9.4a8.8 8.8 0 0 1 .2 1.7c.1 3.8.1 7.7.2 11.6a22.5 22.5 0 0 1 0 2.6c-.7 3.5.3 7 .3 10.6 0 .2.5.5.8.8a5.8 5.8 0 0 0 .1 6.3h-.1a2.1 2.1 0 0 0-.9 2.2c.8 7.1.2 14.2.7 21.2.2 2.9.7 5.7.1 8.5a2.5 2.5 0 0 0-.1.8c1.3 5.9-.1 11.8 0 17.7s-.9 8.9-1.4 13.4-1.1 9.1-1.6 13.7-1.1 9.5-1.4 14.2-.4 11.9-.6 17.8a10.5 10.5 0 0 1-.4 1.7c-.9 0-.9-1-.9-1.4-.2-4.1-.4-8.2-.3-12.2s.3-8.7.7-13c.6-7.7 1.5-15.3 2.1-23 .4-4.4.9-8.9.9-13.4 0-9.4-.1-18.9-.3-28.3-.3-11.2-.8-22.3-1.1-33.5-.3-8.3-.3-16.6-.5-24.8s-.8-17.4-1.1-26.1-.3-15.1-.3-22.6c-.1-11.2-.2-22.4.4-33.6.8-15.8.6-31.6.3-47.4-.2-12.9-.6-25.8-1-38.8 0-2.4 0-4.9.2-7.3a23.9 23.9 0 0 1 1.2-4.6c.2-.3.8-.5 1-.7s.9 1.7 1 2.5-.4 4.1.7 5.9c-.9 1.9-.2 3.6.5 5.3a5.7 5.7 0 0 1-.1 1.3 78.7 78.7 0 0 0 .4 16.8 12.4 12.4 0 0 1 .1 4.3 34.9 34.9 0 0 0 0 5.6v6.5c.5.7 1 1 1 1.4a4.5 4.5 0 0 1-.3 1.6 7.6 7.6 0 0 0-.6 2c-.1 5.3 0 10.7-.1 16s-.1 8.1-.2 12.2c0 .3-.1.6 0 .8s.9 2.3 1.3 3.4-.9 2-.3 3.3a3.8 3.8 0 0 1-.6 4.4c-.6.7-.3 2.1-.1 3.3.6 2.9 1.3 5.9.9 9-.2 1.1-.8 2.1-.2 3.3-.8 4.7.8 9.4.1 14.6-.3-1.2-.4-2.1-.6-2.9s-.7.7-.7 1.2 0 3.1.1 4.7a2.5 2.5 0 0 0 .4 1.6 2.5 2.5 0 0 1 .2 3.1c-.6 1 1 1.6.5 2.8a3.7 3.7 0 0 0-.4 2.5c.6 2.3-.3 4.1-.8 6.1a12.5 12.5 0 0 1 1.3 3.5 20.3 20.3 0 0 1-.5 3.3 21.5 21.5 0 0 0-.5 3.4c0 6.3.1 12.5.1 18.7a6.6 6.6 0 0 0 1 3.7z"></path><path d="M352.1 178c1.4-.3 1.9.7 2.2 1.6a22.6 22.6 0 0 1 .8 5.1q.1 7.7 0 15.3c-.2 14.2-.5 28.4-.7 42.6-.1 7.4-.2 14.8-.2 22.3 0 10.8.2 21.7.1 32.6 0 9-.2 18-.4 27-.1 12-.3 24.1-.3 36.1 0 10.2 0 20.4.5 30.5s.7 17.7.6 26.6-.5 17.7-.8 26.5-.7 14.8-.7 22.2.6 15.7.9 23.5.6 13 .7 19.5a43.8 43.8 0 0 1-.4 5.1c-1.1.1-1.2-.7-1.2-1.4v-3.4a15.8 15.8 0 0 0-.1-3.1c-1.1-5.4-.9-10.9-1.5-16.3s-1-7.8-1.5-11.6a10.3 10.3 0 0 1-.1-1.7c-.1-2.5-.6-5-.3-7.3s-.1-4.9-.1-7.3a9.7 9.7 0 0 0 .1-1.7 10.9 10.9 0 0 0 .4-2.5c-.1-3.3-.3-6.6-.5-9.9 0-.3-.2-.6-.1-.8 1.4-2.6.2-5.4.5-8l-.4-.2a.8.8 0 0 0-.2.4c-.2.2-.2.5-.5 1.1-.1-2.6.5-4.9-.1-7.1-.2-.6.2-1.4.4-2s.9-2.8 1.3-4.1.5-3-.5-4.1a7.2 7.2 0 0 1-1.1-4.5 29.6 29.6 0 0 1 .6-5.1c.2-1.5 0-3.1.8-4.5a5.3 5.3 0 0 0 .4-2.5c.1-2.1.1-4.1.1-6.1s.1-4.4.1-6.5c-.1-3.8-.2-7.5-.1-11.3a24.3 24.3 0 0 0-.3-3.8c-.1-2.4 0-4.9 0-7.3-.1-5.5-.1-11-.2-16.6-.1-4-.3-7.9-.2-12s.7-7.8.5-11.6c-.4-7.1.5-14.2-.5-21.2a15.9 15.9 0 0 1 .5-7.2 5.2 5.2 0 0 0-.3-4.2 6.7 6.7 0 0 1-.5-3.7c.1-1.1-.4-2.3-.4-3.4s.4-2.3.5-3.4-.2-.6-.1-.8c1.3-3.2.6-6.6.9-9.9s.1-5.5.3-8.2-.3-6.7.4-10a5.7 5.7 0 0 0-.1-2.6c-.8-2.7-.3-5.5-.2-8.2.3-8.5-.1-17-.3-25.6a5.2 5.2 0 0 1 .2-1.7 8.8 8.8 0 0 1 .2-1.6c.7-2-1.9-3.6-.3-5.7s.3-4 .6-5.9-.4-4.1-.2-6.1a82.3 82.3 0 0 0 .1-8.6c.1-2.9.3-5.8.3-8.7 0-.4 0-1.1-.2-1.2-1.8-1-1.2-2-.3-3.3a7.5 7.5 0 0 0 .9-2.5zm-2.5 255.6v.4l.4-.2-.2-.3z"></path><path d="M438.2 408.3c-.9-1.3-.4-2.4.6-3.4a11.3 11.3 0 0 1-.6-8.3 3.8 3.8 0 0 0-.1-2.1c-.1-1-.5-2 .2-2.9s-.1-1-.2-1.5a4.4 4.4 0 0 1-.1-2c0-.4.3-.9.3-1.2-.8-4-.2-8-.4-12.1s.2-7.8.2-11.7c0-1.9 0-3.8-.1-5.7 0-4.6-.4-9.3-.1-13.9a82.4 82.4 0 0 0 .3-8.6 2.8 2.8 0 0 1 .1-.9c2-3.4.2-7.3 1-10.9a4.1 4.1 0 0 0-.4-2.1 6.9 6.9 0 0 1 0-6.1 4 4 0 0 0-.1-3.8 3.8 3.8 0 0 1 .1-3.3 6.6 6.6 0 0 0 .4-2.5c.1-5.6.3-11.2.3-16.9 0-1.4-.7-2.8-.7-4.1a32.1 32.1 0 0 1 .7-4.3v-.8c-.9-3.3-.5-6.6-.5-9.9s-.4-6.3-.5-9.5a5.5 5.5 0 0 1 .7-2.3c1.7.6 2.1 2 2.3 3.4a49 49 0 0 1 .7 7.7c0 11.6-.1 23.3.3 34.9.4 10 .4 20 1.3 30 .3 3.7.1 7.5.2 11.3.2 6.2.4 12.5.5 18.7 0 9.2-.1 18.3-.2 27.5s-.3 17.4-.5 26.1c-.3 10.3-.8 20.6-1.1 30.9-.1 4.4 0 8.7 0 13.1l-.3 32.7c0 2.6-.1 5.2-.2 7.8a12.3 12.3 0 0 1-.8 4.4c-1 .3-1.5-.2-1.5-1-.3-3.5-.5-7.1-.8-10.7-.1-1.7-1.2-3.2-.8-5.1s0-5.3-.4-8-.4-4.1-.5-6.1 0-4.1-.1-6.1-.1-2.6.7-3.7.3-1.4.1-1.5-.3-2.5-.6-3.7a4.4 4.4 0 0 1 .8-3.6 5 5 0 0 0 .1-3 6.6 6.6 0 0 1 0-2.8 4.1 4.1 0 0 0-.7-3.7 6.7 6.7 0 0 1-.9-4.1c-.1-4.2 0-8.3 1.4-12.4.7-2.1.4-4.7.6-8l-1.4 3c0-2.2-.4-3.7.7-5.4s1.5-3.3-.3-4.8c-.1-1.7-.3-3.4-.3-5.1a19.4 19.4 0 0 1 .5-2l.6-.5c0-.1.1-.2.1-.3v-.3c-.2.1-.4.3-.4.4a2.2 2.2 0 0 0-.2.8zm.8 3.8c-.3.2-.7.3-.7.4a3.6 3.6 0 0 0 .2 1.1c.2-.1.5-.1.5-.3a4.7 4.7 0 0 0 0-1.2z"></path><path d="M362.6 374.6a3.7 3.7 0 0 0 1.1-3.1 154.4 154.4 0 0 1 .3-20.4c.2-2.2-1-4.2-.3-6.4s.7-2.9.2-4.5a28.4 28.4 0 0 1-.8-4.2c-.3-1.9-.2-3.8 1.3-5.1a16.3 16.3 0 0 1-1.2-7.2c.1-1.7.6-3.6-.1-5.3s-.2-.7-.1-.8c1.9-2 .7-4.6 1.3-7.2l-1.7.8c.1-2.6-.2-5.3.5-7.7s-.2-5.1.1-7.6-.3-7.4.3-11.1a9.4 9.4 0 0 0 0-2.9c0-.2-.6-.3-1-.4s-.4-3.3.5-4.9a2.3 2.3 0 0 0-.2-1.6c-.5-1.3-.4-2.2.7-3a2.6 2.6 0 0 0 .5-2c-1.3-4.5 0-9.1-.3-13.7s.4-8.4-.2-12.6a25.3 25.3 0 0 1-.1-5.5c.1-1.8.2-3.5-.6-5s0-1 .3-1.5 1-3.3-.8-4.3c2-1.9 2.1-1.9 1.4-4a3.5 3.5 0 0 1-.1-2 28 28 0 0 0 .6-7.7 12.4 12.4 0 0 1 .5-6 4.2 4.2 0 0 0-.2-2.9 7 7 0 0 1 .1-4.5c.6-2.3.5-4.8.7-7.2s.1-3.1.2-4.5 1.6-.4 2 .5a17.7 17.7 0 0 1 1.3 7.2c-.2 5.5-.4 11-.5 16.5-.3 7.4-.6 14.8-.7 22.2-.1 12.1-.2 24.1-.1 36.2.1 8.7.6 17.4.9 26.1.2 4.6.3 9.3.2 13.9 0 14.7-.4 29.3-1 44s-.8 31-1.3 46.5c-.3 11.4-.8 22.7-1 34s-.6 20 .3 30c.1 1.3.2 2.6.4 3.9 1.3 11.5 2.5 23.1 2.8 34.7.1 4.3-.1 8.7-.2 13a1.9 1.9 0 0 1-.5 1c-.8-.1-.7-.8-.8-1.3-.2-6.2-.2-12.5-.7-18.7s-1.2-12-1.8-18.1l-1.8-15a19.7 19.7 0 0 0-.5-3.5 39.4 39.4 0 0 1-.5-6.9c.1-2.7-.1-5.5-.2-8.2 0-.9.1-1.8.1-2.6a21.3 21.3 0 0 0 .2-4.3c-.7-4 .1-7.9.2-11.7s0-4.6 0-6.9.3-5.5.5-8.2a16.1 16.1 0 0 1 .1-3.1c.4-1.6-.9-2.8-.6-4.5a18.8 18.8 0 0 0 .5-4.7 12.4 12.4 0 0 1 .5-4.3 6.9 6.9 0 0 0 .2-2.5c-.7-4.5.1-9 0-13.4a25.4 25.4 0 0 0-.1-3.9 6.4 6.4 0 0 0-.8-1.9z"></path><path d="M238.6 434.6a2.4 2.4 0 0 1 1.1 3.1c-.4 1.3-.8 2.6-1.3 4h.1a14.3 14.3 0 0 0-.1 2.9 4.9 4.9 0 0 0 .4 2.1 1.9 1.9 0 0 1 .2 1.8 24.5 24.5 0 0 0-.4 3.9c-.1 1.1-.1 2.2-.1 3.4s-.6 3.7.4 5.5.1.8.1 1.3c-.6 6.6-.2 13.2-1.2 19.7-.7 4.6-.9 9.3-1.3 13.9s-.2 6.5-.9 9.8a29.9 29.9 0 0 0-.2 6c0 .9 0 .9-.9 2.7a3.4 3.4 0 0 1-.5-1.1 128.2 128.2 0 0 1 0-19.6c.5-7.5 1.2-15 1.2-22.6 0-15.9-.9-31.9-1.3-47.8a289.7 289.7 0 0 1 .5-30.9c.3-3.9.2-7.8.3-11.8.1-7.6.5-15.3.2-23-.4-14.6-.2-29.3-.4-43.9s-.1-28.2-.2-42.3c0-7.7-.1-15.3-.2-23-.1-14.4-.2-28.8-.4-43.1-.1-3.4-.3-6.7-.4-10s0-7.9.1-11.8a21 21 0 0 1 .9-4.2c.3-.9.8-1.9 2.1-1.5.4 1.9 1.8 3.7.5 5.9a1 1 0 0 0-.1.9c.7 2.5.2 5.2.2 7.7s-.1 2.9 0 4.3c.4 3.9-.1 7.8-.1 11.6.1 1.2.1 2.3.2 3.5a9.4 9.4 0 0 0 .6 2.4 2.8 2.8 0 0 1 0 2.8 3.6 3.6 0 0 0-.4 2.5c.3 1 1 2.2.7 3.1a9.3 9.3 0 0 0-.4 3.3c0 1.2.1 2.4 0 3.5-.4 6.5-.3 13.1-.1 19.6 0 2.6.5 5.2-.3 7.7a8.1 8.1 0 0 0 0 3.1c.5 4 .2 8 .2 12.1 0 1.4.2 2.9.3 4.3s.2 4.1.2 6.1-.1 1.6.2 2.1c1.1 2.2-.4 5 1.2 7 .1.1.1.4.1.5s-.9 1.5-.8 2.3 1.2 1.1.8 2.2l-1.1 2.3a6.5 6.5 0 0 0-.4 4.6 35.7 35.7 0 0 1 .4 4.7 98.8 98.8 0 0 1-.5 12.1c0 .8.2 1.7.2 2.5.1 2.4.1 4.7.1 7a10.3 10.3 0 0 0-.1 1.7c.7 7.2.1 14.4.6 21.5.1 1.6-.4 3.2-.4 4.7-.1 5.7-.1 11.3-.1 17a24.3 24.3 0 0 1-.4 6 12.4 12.4 0 0 0-.1 4.3c.8 3.5-.2 6.9.1 10.4s0 4 0 6 .1 3.8.2 5.6a20.6 20.6 0 0 0 .3 2.6 31.6 31.6 0 0 1 1.4 9.7 6.7 6.7 0 0 1-1.1 4.1 5 5 0 0 0-.3 4.9c.6 1.5 1.1 3.2 1.8 5l-1.4 1.4v-.1z"></path><path d="M290.5 359c.3-.7.8-1.3.8-1.9.1-3.3.6-6.6-.3-9.9a1.4 1.4 0 0 1 .2-1.5 2.2 2.2 0 0 0 .1-1.6c-.8-1.5-1.5-3-.7-4.8.2-.3-.2-.8-.3-1.3s-.2-.8-.1-1.2a31 31 0 0 0 .8-4.2c0-1.2-.7-2.4-.8-3.7a6.6 6.6 0 0 1 .5-3.4c1.1-2.4 1-5 .9-7.6a72 72 0 0 1 .4-13.9c.3-2-.2-4.3-.4-6.4s-.6-3.1-.8-4.7-.3-1.7 0-2.1c1.6-2.6 0-5.3.4-7.9.1-.7-.2-1.5-.1-2.2s.9-3.5-.4-5.3-.1-1.4-.1-2.1a15.5 15.5 0 0 0 .4-2.1c.1-2.1-1.3-4.2.2-6.2s.3-4.3.3-6.5a12.2 12.2 0 0 0-.4-3.4c-1.4-4-.8-8-.6-12.1.1-1.9 1.3-3.8.2-5.8a1.1 1.1 0 0 1 .1-.8c1.1-2.5.8-5.1.9-7.7 0-4.6 0-9.2.1-13.8.1-1.4-1.4-2.1-.8-3.6a8 8 0 0 0 .5-3.4 19.9 19.9 0 0 1 .5-7.3 10.4 10.4 0 0 0 .3-3.5c-.7-4.5-.1-8.9-.1-13.4.1-2.8.4-5.7.5-8.5s-.2-4.6-.1-7 .3-2.3.3-3.4-.4-3.4-.4-5.1.2-5 .4-6.5a8.1 8.1 0 0 0 0-2.2c-1.1-2.8.3-5.6-.1-8.4s.3-1 .1-1.3c-1.2-2.5.1-5-.2-7.8l2.2-.2a7.8 7.8 0 0 1 1.7 5.7c-.2 6.3-.5 14.5-.7 20.9-.3 9.6-.3 19.2-.9 28.7s-.1 17.7-.2 26.6-.1 15.4 0 23.1c.2 13.5.6 26.9.8 40.4s-.1 26.2-.6 39.2c-.1 4.8-.2 9.6-.2 14.4-.1 8.1-.1 16.3 0 24.4s.2 13.3.3 20l.3 21.3c.1 10.5.1 20.9.3 31.4.1 4.9.7 9.8.6 14.8s.6 7.5-.5 11.1c-1.1.5-1.6-.3-1.7-1.1a25.5 25.5 0 0 1-.5-7.8 12.9 12.9 0 0 0 0-3.4c-.3-2.9-.9-5.7-.6-8.7a10.4 10.4 0 0 0-.5-2.9c-.1-.5-.4-1-.3-1.3 1.2-3.1-.1-6.2-.1-9.3a16.1 16.1 0 0 1 0-3.1c.2-1.1-1-1.2-.9-1.8s.6-1.5.7-2.3a4.2 4.2 0 0 0-.1-2.5c-.9-1.3 0-2.5-.1-3.8l.3-.6h-.3v.7a2.6 2.6 0 0 1-.2-2.8 3.3 3.3 0 0 0 .1-3.7c-.9-1.4-.6-3-.6-4.5.1-4.2.3-8.4.5-12.5a12.7 12.7 0 0 0-.7-5.5 2.1 2.1 0 0 1-.3-1.3c.1-4-.9-8 .4-11.9a2.7 2.7 0 0 0-.1-2.5c-.9-1.2-.4-2.5-.4-3.8z"></path><path d="M194.1 283.6a1.4 1.4 0 0 1 .3 2.2 3 3 0 0 0-.3 3.9c1.2 2.1 1.1 4.1.3 6.5s-1.5 4 .1 6a1.1 1.1 0 0 1 0 1.1c-1.5 2.9-.6 5.6.5 8.4-1.5 2.8-2.3 5.6-.5 8.6a2.1 2.1 0 0 0-.7 3.1h.1a1.3 1.3 0 0 0 0 2h-.1a3.8 3.8 0 0 0-.4 1.7c.9 3.2.1 6.2-.3 9.3s-.6 6.6-.7 9.9c0 6.6.3 13.3.1 20s.1 15.1-.4 22.6-.1 12.1-.4 18.2c-.1 4.2.2 8.4.5 12.6.5 8 1.3 15.9 1.7 23.9.4 5.7.5 11.5.7 17.3a20.6 20.6 0 0 1-.2 3.5 5.1 5.1 0 0 0-.3 1.7c.6 4.2-.7 8.3-.7 12.5 0 1.9.1 3.7.1 5.6a7.8 7.8 0 0 1-.4 3.4c-.3.4-.6 1.4-.4 1.6 1.4 1.7.1 3.1-.2 4.7a2.9 2.9 0 0 0-.1 1.3c.8 3.6 0 7.2-.1 10.8a121.8 121.8 0 0 1-1.4 13.4c0 .5-.4.9-.9 1.9-.3-.9-.6-1.3-.7-1.8-.3-4.6-.6-9.3-.8-13.9-.1-2.3.1-4.6.1-7-.1-7.6 1.1-15 1.9-22.5a182.2 182.2 0 0 0 .9-32.2c-.5-9.1-1.4-18.2-1.8-27.3-.3-6.7-.2-13.4-.3-20.1 0-9.7.2-19.4-.1-29.1-.2-6.7 0-13.4-.1-20s-.2-14.8-.2-22.3c-.1-3.1.2-6.3.2-9.5-.1-8.5-.2-16.9-.2-25.3s.2-16.3.3-24.4.1-15.4.1-23.1v-26.3c0-2.4.4-4.6 2.1-6.4l2.9.2c-.3.7-1 1.3-.9 1.9.3 2.7-.6 5.3-.5 8.1.2 5.1.3 10.3.4 15.5.1 1.5-.1 2.9.7 4.2a2.8 2.8 0 0 1 .2 2c-.8 1.2-1.6 2.3.2 3.3.1 0 .2.6.1.8-.8 1.9-.3 3.8 0 5.7a6.3 6.3 0 0 1-.5 3 17.3 17.3 0 0 0-.6 6.8c.2 1.5.7 2.9.1 4.5s.3 1.3.6 2h-.1c.3 1.5-.1 3 .7 4.5a2.7 2.7 0 0 1 .3 2c-.4 2.2-.1 4.5-.3 6.7-1.5.6-1.6.7-.5 2.5z"></path><path d="M139.4 357.7c-1.5 1.9-1.1 4.1-.6 6.1 1.5 5.4 1.4 10.8 1.4 16.3a5.3 5.3 0 0 1-.1 1.3 15.6 15.6 0 0 0 0 6.8c.1.4-.3 1-.4 1.6s-.1-.5-.2-.7l-.6.6c-.3.6-.7 1.3 0 2a3.1 3.1 0 0 0 .1-.9 5 5 0 0 0-.2-1.2h1c.1 1.1.4 2.3.4 3.4.2 9.3.4 18.6.5 27.9.1 4.6.3 9.2.2 13.9s-.4 10.7-.6 16.1a7.4 7.4 0 0 1-1.5 4.2 19.3 19.3 0 0 0 .4 2.7 6.8 6.8 0 0 1-.4 3.7 10 10 0 0 0-.5 6.4 3.4 3.4 0 0 1 0 2c-.9 1.8-.7 3.7-.6 5.5s-.1 4.4-.2 6.6-.3 4-.2 6a14.8 14.8 0 0 1-1.5 6 6.4 6.4 0 0 1-1.1-3.8l-.3-8.3c-.1-5.8-.3-11.6-.3-17.4s.3-9.3.2-13.9c-.1-10-.3-20.1-.5-30.1s-.5-17.4-.5-26.1c.1-20 .2-40.1.5-60.1.1-10.6.5-21.2.9-31.8a187.7 187.7 0 0 1 2-21.2c.2-1.2.5-2.2 1.9-2.2a32.1 32.1 0 0 1 .4 15.4 16.9 16.9 0 0 0 0 5.5 13.4 13.4 0 0 1 .4 3.5v13.9c0 1.2.5 2.6-.7 3.6s-.1.3-.1.4.6 2.2.8 3.3-1.2 1.8-.4 3.2-.8 3.3.1 5a17 17 0 0 1 .4 2.8c-.6 1.6-2.1 3.2-1.5 5.4l1.8 5.3c-.6.2-1.2.1-1.6.5a2.1 2.1 0 0 0-.3 1.6c.2 1.7.5 3.4.8 5.1l-.3 1.2a.8.8 0 0 0 .2.4c.1-.2.4-.3.4-.5l-.3-1.2a6 6 0 0 1 .7 4.2zm.1 89.7z"></path><path d="M449.4 353.9a13.2 13.2 0 0 0 1.2-6l-1.9-1.3a52.7 52.7 0 0 0 1.9-5.6c.6-2-.8-3.5-1.4-4.8s.7-4.1.4-5.8.8-3.5-.4-5a1.5 1.5 0 0 1-.1-1.3 3.5 3.5 0 0 0-.1-4.2c.6-2.5-.4-4.9 0-7.4a73.1 73.1 0 0 0 .3-8.1c.3-4.8.6-9.5-.3-14.3a16.8 16.8 0 0 1 .3-7.7 15.5 15.5 0 0 0 .4-2.9c1-.8 1.6-.2 1.8.7s.8 4.3 1 6.4c1.5 13.3 1.8 26.7 2 40 .2 9.3.5 18.6.5 27.9.1 11.6 0 23.3.1 34.9.2 18.5-.8 36.9-1 55.3 0 4.5.2 9 .3 13.5.2 9.9.1 19.8-.6 29.6-.1 2 .2 4.1-.8 6.2a7 7 0 0 1-1.6-4.8 68.5 68.5 0 0 0-.5-9.1 52.3 52.3 0 0 1 0-5.6c0-1.8 0-3.5-1.1-5 1.1-2.9 1.4-5.8-.4-8.6a4.5 4.5 0 0 1-.4-2c.2-1.2.5-2.3.8-3.6-1.6-1.8-1.7-4.2-1.7-6.7-.1-6.9-.4-13.7-.4-20.5s.1-11.9.3-17.9c.1-3.4-.4-6.9.6-10.3a5.5 5.5 0 0 0-.2-2.2c-.2-2-.4-4 1.1-5.7a3.1 3.1 0 0 0 .4-2c-.1-2.4-.1-4.7-1.1-7a14.2 14.2 0 0 1-.5-4.7c.1-2.6.2-5.2.4-7.8s.5-2.8.7-4.2.5-4.6.6-6.9c0-.6-.7-1.2-1-1.7.1-.3.3-.7.4-1.1h-.1c1.2-1.6 1.2-1.8 0-2.8zm-.1 97.6l.3.2c0-.1.1-.2.1-.3l-.2-.2z"></path><path d="M394 210.4l3-.4a6.5 6.5 0 0 1 2.1 4.9 54.2 54.2 0 0 1 0 5.7c0 5.7-.1 11.3 0 17s.3 13.3.3 20c.1 13 .1 26.1.1 39.2 0 8.1.1 16.2.1 24.4s-.1 18.8-.1 28.3c-.1 5.3-.2 10.7 0 16v1.3c-.6 15-.2 29.9-.4 44.9 0 2.1-.2 4.3-.3 6.5-.6 8.9-1.2 17.9-1.7 26.9a180.3 180.3 0 0 0 1.5 36 154.4 154.4 0 0 1 1.1 30.4v3.5l-.3 3.5c-.1.7-.3 1.3-.6 2.5a6.1 6.1 0 0 1-1.2-1.8c-.4-2.2-.7-4.3-.9-6.5-.5-4.2-.1-8.6-1-12.9a3.8 3.8 0 0 1 .1-2.1 8.2 8.2 0 0 0-1-7c1.1-1.3 1.3-2.6.2-3.8h-.1a15 15 0 0 1 0-3c.6-2.8.2-5.5.1-8.3l-.6-9.5c-.7-10.6 0-21 .8-31.6.6-7.6 1.4-15.2 1.4-22.9s.1-15.1-.1-22.6c-.2-5.9 0-11.9 0-17.8v-.4c.2-2.2-.8-4.1-.3-6.4s0-4.6 0-6.9-.1-4.4-.1-6.5v-6.6a12.7 12.7 0 0 0-.4-2.9c-.5-1.3-.8-2.4-.1-3.7a2.1 2.1 0 0 0-.3-2.4c-.7-.7-.3-1.2.1-1.8s0-.8-.2-1.1a2 2 0 0 1 .1-2h-.1a2.8 2.8 0 0 0 0-2.8h.1c-.4-1.5.3-3-.2-4.6s-.5-1.7-.9-2.6.7-1.4.8-2.2.2-4.6-1.7-6.4l1.7-1.9-.3-5.9c0-.4-.5-.7-.8-1.1a13.6 13.6 0 0 0 1-2.1 5 5 0 0 0-.1-2.1 19.8 19.8 0 0 0-.8-3.3c-.6-2.1-1-4.1.5-6.1a2.9 2.9 0 0 0 .1-3.2c-1.2-2.4-.9-5-.5-7.6a7.1 7.1 0 0 0 0-2.9c-.5-1.5-.7-2.9.5-4.3s-.1-1.6-.5-2.3a3.5 3.5 0 0 0 .9-3.2c-.6-1.7.1-3.3.1-5s.1-4-.7-5.9a5.7 5.7 0 0 1-.4-3.4c.3-2 .7-3.9 0-5.8-.1-.1-.1-.4 0-.4s1.1-2 .6-3.6.3-2.8.4-4.2.2-2.9.2-4.3.1-2.6.1-3.9.1-2.9.2-4.3l.3-4.4a10.3 10.3 0 0 0-.1-2.5 22.4 22.4 0 0 1-.6-5.2 7.4 7.4 0 0 0-1-2.7zm.5 71.9l.4.6c0-.2.2-.5.2-.7a.9.9 0 0 0-.3-.5z"></path><path d="M205 522.9a45.8 45.8 0 0 1-1-10.2c.1-6.4.2-12.7.8-19.1a113.8 113.8 0 0 0 .3-14.3c-.1-8.8.8-17.4 1.1-26.1s.7-15.1.7-22.7c0-10.6 0-21.2-.5-31.7s-.2-23.8-.4-35.7 0-25.5.1-38.3c0-7.5-.3-15.1.2-22.6.6-9.3.3-18.6.4-27.9q.3-20.7 0-41.4c-.1-9.4-.6-18.8-.9-28.3a45.2 45.2 0 0 1 .2-5.2 9.2 9.2 0 0 1 .9-2.8c.2-.4.9-.8 1.2-.7a1.8 1.8 0 0 1 1 1.1c-.2 2.4.6 4.6.9 6.8a10.2 10.2 0 0 1-.3 3c0 .7-.3 1.4-.3 2.1-.1 2.4-.6 4.7.1 7.2a20.7 20.7 0 0 1 .2 6.1c-.2 2.7 1 5.1.8 7.9a67.8 67.8 0 0 0 .3 7.8c0 1.6-.1 3.1-.1 4.7s-.4 2.6 0 4-.2 3.2-.4 4.7a6.6 6.6 0 0 0 1 5.3 4 4 0 0 1 .6 2.8c-.4 1.7.1 3.5-.9 5s.4 2.7.7 4.1-1.7.9-1.7 2.4c.1 5.1-.2 10.2 0 15.2s-.5 10.6-.9 15.9c-.1 1.8 0 3.5 0 5.3l-.6 15.1c0 1.9 0 3.8.1 5.7a14.8 14.8 0 0 1-.1 2.1 85.5 85.5 0 0 0-.4 14.3c0 3.2-.2 6.4.1 9.6s-.5 8.3 0 12.5.3 8.1.4 12.1-.1 6.7-.1 10 .2 7.2.2 10.8c.1 1.7-.1 3.5 0 5.2a49.1 49.1 0 0 0 .4 8.6 48 48 0 0 1 .3 10 82.8 82.8 0 0 0 .4 10c.1 1.7-.8 3.7.5 5.4.2.1-.1.7-.2 1.1s.2 3.4.2 5-.9 3.1-.5 4.7 1 2.7.9 4-.9 2.7-1.1 4.1-.7 4.8-.1 7.3.8 2.5-.4 3.5c.6 2.6-.3 5.1 0 7.7l1.4.2c-.1 3.2-.3 6.3-.5 9.5l-.9.3v8.2c1.8 2.2.6 4.5.2 6.9s-.9 3.9.7 5.6a3.1 3.1 0 0 1 .1 2.5c-1 1.5-.4 3.5-1.3 5.1s-.6 3.3-.9 5-.9 3-2.9 3.5z"></path><path d="M377.1 268.3c.2-.9.5-1.7.6-2.5s.4-3.4-.7-5a3.8 3.8 0 0 1 .3-4.4 5.5 5.5 0 0 0 .9-4.8 31.9 31.9 0 0 1-.2-6.9 7.7 7.7 0 0 0 .1-2.6c-.6-3-.1-6.1-.3-9.1s0-4-.1-6.2c.3-.4 1.2-.3 1.1-1.6s.6-5.4.1-8.2a10.3 10.3 0 0 1 .1-1.7 18.3 18.3 0 0 0-.5-9.2 7.8 7.8 0 0 1 0-3.4 11.2 11.2 0 0 0 .8-5.1 4.5 4.5 0 0 1 .3-1.1 1.1 1.1 0 0 1 1.7-.4 7.6 7.6 0 0 1 .9 1.8 42 42 0 0 1 .6 6.1c-.1 6.9-.4 13.9-.6 20.8-.2 4.7-.5 9.3-.5 14 0 8.8.2 17.7.2 26.5 0 7.1-.1 14.2 0 21.3s.3 12.2.4 18.3c.1 9.9 0 19.7.1 29.6V355c0 12.2.2 24.3 0 36.5-.1 9.9-.5 19.7-.8 29.5-.1 4.1-.2 8.2-.1 12.2.5 10.9 1.1 21.8 1.5 32.6q.5 8.7.6 17.4c0 6.8.4 13.6.7 20.4a79.1 79.1 0 0 1-.5 18.2c0 .3-.2.5-.3.8s-1.5-.3-1.9-1a8.8 8.8 0 0 1-1-2.7c-.4-1.7.1-3.8-1.5-5s-.5-3.7-.8-5.9l1.6-2a18 18 0 0 0-.2 2.2h.2v-2.1c-.2-1.2-.4-2.3-.5-3.4s-.6-3.9-.9-6.4a5.6 5.6 0 0 0 .9-4.3 46.1 46.1 0 0 1 .2-5.2c.1-.9-.5-1.2-1.3-.8.7-3.3-.5-6.5-.2-9.9l.8.9c.7 0 .6-.8.6-1.2 0-2.3 0-4.6-.1-6.9a2.8 2.8 0 0 0-.9-1.3c-.3-.3-.3-.5-.1-1 1.7-3.6 1.2-7.2-.1-10.8a5.6 5.6 0 0 1 .1-4.9 5.3 5.3 0 0 0 .4-2.5 20 20 0 0 1-.1-6.9c.2-1.1-.8-2-.3-3.2a19.5 19.5 0 0 0 .3-3.4 174.3 174.3 0 0 0 .4-17.7 51 51 0 0 1 .4-7.8c.5-5.2.3-10.4.5-15.5s0-9.3 0-13.9.3-11.3.5-17c0-.4.3-.9.2-1.3-1-4.7-.2-9.4-.4-14.2 0-1.7.2-3.5.2-5.2a111.3 111.3 0 0 0-.5-12.9c-.4-2.7.1-5.5 0-8.2-.3-6.1-.6-12.1-.6-18.2 0-2-.3-4-.5-6a112.1 112.1 0 0 1-.5-13c0-4.1-.2-8.3 0-12.5a3.9 3.9 0 0 0-1.4-3.3z"></path><path d="M125.4 457.2a9.1 9.1 0 0 0-1.1 4.9 122.2 122.2 0 0 1-.5 16 39.7 39.7 0 0 1-.8 4.8 6.4 6.4 0 0 1-1.1-1.6 50.4 50.4 0 0 1-.7-5.6 140.7 140.7 0 0 1-.6-19.5c.2-3.6-.2-7.2-.1-10.9 0-13 .2-26.1.1-39.1 0-5.5.7-11 .2-16.5a68 68 0 0 1 .1-7.8c.2-11.9.2-23.8.7-35.6.4-8.6.9-17.1.9-25.7a35.6 35.6 0 0 1 .5-4.7 70.4 70.4 0 0 0 1.6-12.1 29.1 29.1 0 0 1 1-5.9c.1-.5.5-.8.8-1.2s.6.4.7.6a61.6 61.6 0 0 1-1 15.5c-.6 3.2-.9 6.3.3 9.4a3.3 3.3 0 0 1-.1 2.4 9.8 9.8 0 0 0-.8 6.3c.2 1.2.1 2.3.2 3.5a4.4 4.4 0 0 0 .3 2c.7 1.3 1.3 2.5-.3 3.6s-.3 3.4-.4 5.1a7.3 7.3 0 0 0 .4 3c.7 1.6 0 2.8-.5 4.1l1.4 1.8-1.8 3.3 2 2.4c-.1 2.8-.3 5.8-.4 8.8a14.9 14.9 0 0 0 .2 2.1c.4 2.6.6 5.1-1.2 7.4a4.6 4.6 0 0 0-.4 2.9 15.9 15.9 0 0 1 .1 8.1c-.3 1.3-.3 3 .8 4a3.9 3.9 0 0 1 .8 3.6c-.1 1.1-.4 2.2-.6 3.4a4.7 4.7 0 0 0-.2 1.6c1.5 4.5.5 9.2.8 13.8a25.8 25.8 0 0 1-.4 3.8c-1.8 1.2.1 1.7.1 2.6 0 2.7.2 5.4.2 8.1a3.7 3.7 0 0 1-.5 2c-1.8 1.3-1.7 2.9-.9 4.8.2.3.4.9.2 1.1-1.1 1.9-.2 3.6.2 5.4a35.2 35.2 0 0 1 .4 5.6 1.6 1.6 0 0 1-.4 1.2c-1.8 1.4-1.2 3.2-.8 5.1s.3 1.1.6 2.1zm.5-93.5c.1-.8.2-1.2.2-1.5a.7.7 0 0 0-.4-.5l-.3.5a12.6 12.6 0 0 0 .5 1.5zm-.8 32.2l.6.3a1.9 1.9 0 0 0 .2-.7c0-.1-.3-.2-.5-.3zm.7-28.8l.2-.3h-.2z"></path><path d="M466.1 483.3a14.1 14.1 0 0 1-1.5-5.9c-.1-5.2-.3-10.4-.4-15.6a7 7 0 0 0-1.2-4.5c.4-1.4.9-2.7 1.2-4.1a2.7 2.7 0 0 0-1-3c-1.3-.9-1-2.9-.6-3.9s.3-3.7.8-5.5a5.4 5.4 0 0 0-.2-2.5c-.2-.6-.4-1.1 0-1.6s.7-3.8-.1-5.3a10.8 10.8 0 0 1-.9-5 7.4 7.4 0 0 0 0-2.1c-.5-1.9.2-3.4 1.2-4.9l-1.1-2.2a3.5 3.5 0 0 1-.6-1.6c.3-5-.5-10.1 1.2-15-.3-1.2-.8-2.4-1.1-3.7s-.6-2.8 1-3.7a2 2 0 0 0 .6-1.4 10.1 10.1 0 0 0-.1-3.9 9.1 9.1 0 0 1 .1-5.9c.4-1.6.5-3.3-.6-4.5s-1.4-4.1-1-6.2a8.5 8.5 0 0 0 0-4.2 3 3 0 0 1 .8-3.1c1.1-1.3 1-1.4-.4-2.8a1.5 1.5 0 0 1-.3-1.9l.5-.6c1.3-1.3 1.4-1.3.6-3a3 3 0 0 1-.3-2.8c.7-1.7-.5-3.5.1-5.5a8 8 0 0 0 .3-5.1 32 32 0 0 1-.7-3.3 5.6 5.6 0 0 1-.2-1.7c1.2-2.6.2-5.4 1-8.1a7.4 7.4 0 0 0-.3-2.9 17.2 17.2 0 0 0-1.1-2.9c1.5-3.8 1.3-7.8.5-11.8a54.4 54.4 0 0 1-.8-14.5c1-.4 1.4.2 1.5.9.4 2.3.8 4.5 1.1 6.8s.4 5.5.9 8.2a61.2 61.2 0 0 1 1.1 12.1c.2 6.7.6 13.3.9 20l.3 13.9.3 24.8c.1 3.4.6 6.7-.3 10 0 .2.1.5.1.8 1 9.9.6 19.7.7 29.6.1 12.5.1 25-.1 37.5 0 5.7-.5 11.5-.9 17.3a38.6 38.6 0 0 1-1 4.3zm-3.3-87.7l.3.6h.2a1.4 1.4 0 0 0-.2-.6zm.6 14.2l-.2-.2v.2z"></path><path d="M113.8 399.6c-2.2 3.4-1.1 6.9-.9 10.3s1 5.3 1.1 8 .1 5 .1 7.4 0 2.6-.1 3.9a32.3 32.3 0 0 0 .4 10.3c.2.9.4 1.7-.3 2.4s.1 1 .2 1.6c.3 2.2.7 4.5-.4 6.7a9.4 9.4 0 0 0-.3 3.4 29.9 29.9 0 0 0 .4 4.3 14.6 14.6 0 0 1-.5 5.4c-.6-.3-1.2-.4-1.3-.8a18.4 18.4 0 0 1-.9-4.2c-.4-4-.9-8-1-12.1-.1-6.5-.8-13-1.1-19.5-.4-8.3-.3-16.6-.5-24.8-.1-5.4-.3-10.8-.2-16.1s.8-11 1.2-16.5l1.5-24.3c.2-3.4.1-6.7.9-10a14.8 14.8 0 0 1 1.3-3.5c.7-1.4 2.4-1.2 3 .3s.9 2.8 0 4.1a4 4 0 0 0 0 4.1 3.6 3.6 0 0 1 0 3.6 4.3 4.3 0 0 0-.5 3.3c.2 1.2.9 2.6-.7 3.4-.4 2.7-.7 5.5.3 8.1a4.3 4.3 0 0 1 0 3.7c-1.4 3.3-1.5 6.9-2 10.4-.1.8-.5 2.1.8 2.6a1.1 1.1 0 0 1 .3.6l-.6 9.6c-2.1 2.9-1 6.4-1.5 9.6a6.3 6.3 0 0 0 1.3 4.7z"></path><path d="M472.4 348.5c.2-1 .4-2 .6-3.2l-1.6-3.1c.4-1.1.8-2.1 1.1-3.2s.2-2.3-.8-3c-.6-1.6.1-3.1.6-4.5s2.1-1.3 2.6-.4a8.1 8.1 0 0 1 1.3 3 35.1 35.1 0 0 1 .9 6.5c.5 7.9.8 15.9 1.3 23.9.4 5.7 1.2 11.5 1.5 17.3s.1 10.1.1 15.2-.1 12.2-.3 18.3-.5 11-.8 16.5c-.1 3.9-.3 7.8-.5 11.7a152.8 152.8 0 0 1-1.3 16.5 5.4 5.4 0 0 1-1.6 3.6 4.8 4.8 0 0 1-.7-1.5c-.1-1.6-.1-3.2-.1-4.8s.5-5.5-.3-8.2a7.7 7.7 0 0 1 .1-2.6c.1-1.7.4-3.4-.2-5.1a4.9 4.9 0 0 1-.1-1.7c.7-2.4.3-4.9.4-7.3s.8-2.9.2-3.8-.4-2.4-.4-3.6.2-2.9.2-4.3-.2-2.6-.1-3.9a20.5 20.5 0 0 1 .7-5.6 25.4 25.4 0 0 0 .9-7.2c.1-1.4-.5-2.8-1-4.6a10.1 10.1 0 0 0 .8-7 8.3 8.3 0 0 1 .1-2.2 4.7 4.7 0 0 0-.2-2.1c-2-2.7-1.2-6-1.4-9.1-.1-1.4-.8-3.1.6-4.3a30.9 30.9 0 0 0-.1-4.3c-.6-2.9-.8-5.9-1.7-8.8a4.8 4.8 0 0 1 0-2.9c.6-1.6-.5-3.3.4-5s-.2-2.3-.4-3.4a10.8 10.8 0 0 0-.8-1.9z"></path><path d="M102.5 429.5a23.6 23.6 0 0 1-.8-4.5c-.3-4.7-.4-9.3-.6-13.9s-.3-11.6-.4-17.4.1-14.1.1-21.2c0-3.4 0-6.7-.2-10a8.4 8.4 0 0 1 1.7-6c1.7-.1 1.7-.1 2.9 1.2a3.8 3.8 0 0 0-.9.8q-.1 3.5-.3 6.6v3a11.3 11.3 0 0 1 0 2.6 9.7 9.7 0 0 0-.1 3.8 50.3 50.3 0 0 1 0 9.5 13.5 13.5 0 0 0 .7 6.3 7.3 7.3 0 0 1 .3 3 15.3 15.3 0 0 1-.3 3c-1.2 4-.5 8.3-1.3 12.4a2.5 2.5 0 0 0-.1.8c1.1 5.2.2 10.4.4 15.6 0 1.4-.3 2.9-.4 4.3z"></path><path d="M484.4 358.6l-1-1.1a2.2 2.2 0 0 1 2.6-1.2 7.2 7.2 0 0 1 1.9 5.8c-.1 6.8-.5 13.6-.1 20.4s-.2 14.5-.1 21.7-.5 13.9-.9 20.9a15.8 15.8 0 0 1-1.2 5 20.3 20.3 0 0 1-.6-4.2c.3-5.2-1-10.4.2-15.6a1.9 1.9 0 0 0 .1-.8c-.9-5.4-.3-11-1.7-16.3-.2-.7-.4-1.7-.1-2.1 1.7-1.9 1.2-4.4 1.1-6.6a82.2 82.2 0 0 1 .1-11.1 74.8 74.8 0 0 0-.2-8.2c0-2.2-.1-4.3-.1-6.6z"></path><path d="M225.8 363.3c-.1-1.9-.2-3.7-.4-5.5.6 1.7.4 3.6.4 5.4z"></path><g><path d="M413.2 571.5c-.5-3.6.6-6.9 1.4-10.2.3-.9.9-1.7 1.5-3 .4 1 .8 1.4.8 1.9.2 4.6.4 9.3.3 13.9-.3 7.7-.9 15.4-1.3 23-.6 12.5-.7 25-.5 37.5.3 15.8.2 31.7.7 47.5.9 28 1 56 .8 84.1-.1 9.7-.5 19.4-.7 29.2s-.1 20 .3 30c.3 6.1.2 12.2.2 18.3a13.7 13.7 0 0 1-1.3 6.3 1.8 1.8 0 0 1-1.7 1.4 2.4 2.4 0 0 1-2.3-1.8 5.3 5.3 0 0 1-.3-2.1c.9-3.7-.1-7.4 0-11.1a98.5 98.5 0 0 0-.3-10.9c-.1-3.6-1.2-7.2.4-10.7-1.4-3.2.5-6.4 0-9.7 0-.5.1-1.1.1-1.7-.8-6-.9-6.4.2-11.4a11 11 0 0 0-.4-6.7 14.1 14.1 0 0 1-.6-4.7c.2-6.2.2-12.4.3-18.7 0-9.4.1-18.8.1-28.3.1-4.8.1-9.6 0-14.3-.1-7.3-.4-14.5-.5-21.8-.1-4.9-.1-9.8 0-14.8a25.1 25.1 0 0 1 .7-4.1 5.1 5.1 0 0 1-.7-4.9c-.6-2.7 1.2-5.3.3-8.1 1.6-2.6.6-4.8-.7-7.1-.2-.3-.1-.8-.1-1.2v-9.2c0-1.4.1-2.9.1-4.3a55.9 55.9 0 0 1 .5-10.8 16.2 16.2 0 0 0-.1-2.2c0-2.7-.9-5.3.1-8a3.3 3.3 0 0 0 0-1.7c-.5-5.6.1-11.3-.2-16.9a13.7 13.7 0 0 1 .2-3.5c1-3.9.2-8.1 1.5-11.9-.8-3.8 1.4-7.3.7-11.2-.2-1.3.3-2.8.5-4.3h-.1c.7-.7.4-1.3 0-2zm-1.1 265.6h-.2v-.1zm-.2-90.2h.2z"></path><path d="M254.2 573.8c1.9 3.8 3.6 7.4 3.4 11.8-.2 6.5-.2 13.1-.4 19.6-.8 1.9 0 4.2-.9 6.2a1.7 1.7 0 0 0 0 1.2c.9 4.6.4 9.2.5 13.8s-.2 10.5-.3 15.7a14.6 14.6 0 0 1-.2 3 39.8 39.8 0 0 0-.1 6.9q.2 5.8 0 11.7c0 6.1-.5 12.1-.2 18.2.2 4.5 0 9 0 13.5s-.1 9-.2 13.5c-.1 2.7.1 5.5-.7 8.1.8 2.1-.1 4.3.4 6.4a8.9 8.9 0 0 1-.3 5.1 9.3 9.3 0 0 0-.4 2.5c.3 3.2 0 6.5.5 9.7a32 32 0 0 1 .1 4.4v6c-.2 8.7-.4 17.4-.5 26.2a4.5 4.5 0 0 1-.5 2.8 1.4 1.4 0 0 0 0 .9c1.4 3.6.4 7.3.3 11s-.1 7.9-.2 11.8c-.1 6.9-.1 13.9-.2 20.9a35.6 35.6 0 0 1-.5 4.7c-.2 1.5.2 3-.1 4.6a40.4 40.4 0 0 0-.5 7.8c0 4.2 0 8.4.2 12.5s-.5 7.7-.6 11.6a60.3 60.3 0 0 0-.1 9.5 7.3 7.3 0 0 0 .4 2.5 7.2 7.2 0 0 1 .1 4.6 14.2 14.2 0 0 0-.5 6.8 12.4 12.4 0 0 1-.1 4.3 80.3 80.3 0 0 0 0 15.5 1.9 1.9 0 0 1-.1 1.3 3 3 0 0 1-1.3 1.2 1.2 1.2 0 0 1-1.3-.5 6.1 6.1 0 0 1-1-3.6c.3-26.2.5-52.3.7-78.5l.6-63.6c.1-10 .1-20 .2-30 .2-14.4.3-28.8.5-43.2q.4-30.6.8-61.4c.1-15.4 0-30.8.1-46.2 0-2.7.4-5.5.6-8.2a2.7 2.7 0 0 1 1.8-2.6z"></path><path d="M180.9 791.4c.5 3.9 1.4 7.8.4 11.8a17.8 17.8 0 0 0 .1 4.6c.1 1 0 1.7-.8 2.2a1 1 0 0 0 .1.4 1 1 0 0 1-.1-.4 6.5 6.5 0 0 1 .9 2.3c.2 2.7.4 5.5.4 8.2-.1 4.2-.3 8.4-.5 12.5a2.6 2.6 0 0 1-.8 2.3c0 .2.1.4.1.7s-.1-.5-.1-.8c1.2 2.6.9 5.4.4 8.1a3.9 3.9 0 0 0 0 2.4 9.6 9.6 0 0 1 .2 3.4 2.6 2.6 0 0 1-2.4 2.3c-1.1.1-1.6-.8-2-1.7a16.7 16.7 0 0 1-1.1-6.3c.2-7.2.2-14.3.4-21.4.2-11.2.2-22.3-.1-33.5-.3-15.4-.5-30.8-.5-46.2-.1-12.9.1-25.9.3-38.8.1-9 .5-18 .7-27 .2-12.5.2-24.9.3-37.4.1-4.4.3-8.7.3-13.1.1-12.9-.3-25.8-1.1-38.7-.5-7.3-1.2-14.5-.9-21.8l.3-5.2a5.9 5.9 0 0 1 .6-1.4c1.4.1 1.5 1.4 1.7 2.2s1.5 4.5 1.4 6.7c-.2 4.1.9 8 .6 12a8.1 8.1 0 0 0 0 2.2c1.1 2.9.6 6 1.3 8.9.2 1.3.5 2.6-.3 3.8a1.4 1.4 0 0 0 .1 1.1c1.4 2 1.1 4.5 1.2 6.7.3 6 .1 12.1.1 18.2a2.7 2.7 0 0 1-.2 1.3c-.5.8-.1 1.4.1 2.2a14.8 14.8 0 0 1 .3 5.1c-.6 3.3.2 6.4.1 9.5s0 6.1 0 9.2.1 6.1-.1 9.1a24.6 24.6 0 0 1-1.1 4.5c-.3 1.3-.6 2.5.7 3.4a2 2 0 0 1 0 1.5 2.6 2.6 0 0 0-.6 3.1c1 2.9 1.6 5.8.2 8.7a1.5 1.5 0 0 0 0 1.3c.9 1.3.6 2.7.6 4.1.3 8.8-.2 17.5-.4 26.2-.2 6.8-.1 13.6-.1 20.4-.1 9.6-.1 19.2-.1 28.8 0 7.2.1 14.5.2 21.7 0 2 .1 4-1 5.9s.1 1.9.2 2.9h.1a1.4 1.4 0 0 0 0 2zm-.1-44.2c-.1-.1-.1-.2-.2-.2a.3.3 0 0 0-.1.2c0 .1.1.2.1.3z"></path><path d="M336.1 603.3a2.3 2.3 0 0 1-.7-1 4.7 4.7 0 0 1-.3-1.7c-.2-4.7-.4-9.5-.5-14.3s1.6-8.6 3.6-12.4c1.4.3 1.7 1.4 1.8 2.5a77.2 77.2 0 0 1 .6 8.3c0 8.4-.1 16.8 0 25.2 0 16.2.2 32.3.4 48.4.2 22.9.5 45.9.8 68.8.1 10.3.3 20.7.5 31 .1 17.4.3 34.8.4 52.3l.3 52.2c.1 14.9.2 29.7.4 44.5a7.1 7.1 0 0 1-1.3 4.6c-.5-.1-1.3-.1-1.6-.5a2.9 2.9 0 0 1-.5-1.9c0-3 .2-6.1.1-9.1s-.1-5.2-.2-7.8a12.4 12.4 0 0 1 0-4.3 7.9 7.9 0 0 0-.3-3 15.5 15.5 0 0 1 0-8 22 22 0 0 0 .3-8.1c-.4-2.8-.2-5.5-.6-8.2a60.3 60.3 0 0 1-.1-9.5c0-3.5.1-7 .1-10.4s-.5-4-.4-6-1.3-2.8-.1-4.1-.4-2.8-.5-4.2-.1-2.6-.1-3.9-.1-2.9-.1-4.4.2-6 .1-9.1-.3-4.6-.4-6.9c-.2-5.9-.3-11.9-.4-17.8s0-11.9-.1-17.9c0-3.9-.3-7.8-.4-11.7s-.1-9.6 0-14.4a10.2 10.2 0 0 1 .3-3 2.9 2.9 0 0 0 0-2.4 2.4 2.4 0 0 1 .2-2 9.9 9.9 0 0 0 0-6.8 15.2 15.2 0 0 1-.6-4.2c0-4.9-.2-9.8-.2-14.7s-.3-11.9-.1-17.9c0-3.7-.6-7.5.4-11.2-.8-2.1-.3-4.3-.5-6.4a181.3 181.3 0 0 1-.3-19.5c.1-3.3 0-6.6-.1-9.9-.2-5.5-.4-11-.5-16.6-.1-3.7 0-7.5.1-11.2 0-1.4 1.2-2.6.1-4.1s.3-2.4-.3-3.7a3.6 3.6 0 0 1 .7-3.7c-.1.3-.1.5-.2.8a6.4 6.4 0 0 1 .2-.7zm2.2 177.5v.2h.2z"></path><path d="M308.3 823.9a5.2 5.2 0 0 0 1-2.3c.1-4.6 1-9.3-1.1-13.6.4-1.3.9-2.4 1.2-3.7a4.7 4.7 0 0 0-.6-4.4c-.5-.6-1.3-1.7.4-1.9a7.1 7.1 0 0 0-.3-2.1c-.5-1.1-1.5-2.1.1-3.2a1.6 1.6 0 0 0-.2-1.1c-1-2.1-.7-4.3-.2-6.4s.8-3-.1-4.9-.2-4.2.3-6.3a31.7 31.7 0 0 0 1.2-4.9 29.6 29.6 0 0 0-.6-5.1 9.8 9.8 0 0 1-.3-3.4 17.8 17.8 0 0 0 .1-6.5c-.5-2.8 0-5.7-.9-8.4a7.9 7.9 0 0 1 .3-3c.6-2.9 1.7-5.8.4-8.9.7-2.9-.6-6 .9-8.8a4.4 4.4 0 0 0 .2-1.7c-.2-4.2.4-8.3 0-12.5a25.7 25.7 0 0 1 0-4.8 11.3 11.3 0 0 0 0-2.6 31.1 31.1 0 0 0-1.1-4.1c1.1-1.3.8-2.9.7-4.5a20.8 20.8 0 0 1 .3-4.3 7.4 7.4 0 0 0-.9-4.6 3.7 3.7 0 0 1 0-3.9c1.5-3 1.2-4.8-.8-8.3.4-.2.9-.3 1-.6a1.3 1.3 0 0 0-.1-1.2c-.6-1.2-1.7-2.3-.1-3.6 0-2.9.1-5.8.1-8.7a5.9 5.9 0 0 0-.7-3.6c-.5-.8-.2-2.3-.1-3.4s.6-2.2.9-3.3a23.7 23.7 0 0 0 1.1-4.6 17.8 17.8 0 0 0-.3-4.6c-.4-2.5.1-4.9.1-7.4s.9-4.2-.2-6.3c-.2-.3 0-.8.1-1.2s.6-.9.5-1.2c-.5-3 .7-5.9.7-9a92.4 92.4 0 0 1 .7-10.4c.1-.8.4-1.6.5-2.3s1.2.6 1.3 1.2a112.5 112.5 0 0 1 .6 17.4c-.3 6.7-.9 13.4-.9 20s-.7 14.2-.4 21.3.4 14 .6 20.9c0 2.9.1 5.8.1 8.8.1 14.8.2 29.6.2 44.4 0 9.6-.3 19.2-.4 28.8 0 6.5.1 13 0 19.6s-.4 13-.3 19.6c0 9.1.2 18.3.3 27.4v4.8a358.8 358.8 0 0 0 .1 37.4c.2 4.2.1 8.5.2 12.7s.3 8.1.4 12.1c.3 8.5.6 16.9.8 25.3.1 2.2.1 4.3 0 6.5a10.5 10.5 0 0 1-.5 3c-.5 1.7-1.1 1.9-3.5 1.6a9.5 9.5 0 0 1 .2-4.4 12.4 12.4 0 0 0 .5-4.7c-.4-3.1.7-6.4-.8-9.4-.3-.5.3-1.4.1-2s.4-4.3-.2-6.4-.2-4.3.3-6.4-.6-1-1.2-1.1c1.1-2.2 1.2-2.2 1.1-4.3a51.6 51.6 0 0 0-.3-6.8 46.2 46.2 0 0 1-.6-6.4c-.2-3.5-.3-7-.7-10.4a17.5 17.5 0 0 0-.9-3.5c.3-3 .9-5.5.6-7.9a21.5 21.5 0 0 1-.1-6.7 1.6 1.6 0 0 0-.1-1.2c-1.3-1.8-.8-3.3.2-5.1a11.7 11.7 0 0 0 .7-3.8c.4-5.3-.1-10.6 0-16a7.1 7.1 0 0 0-1.6-4.7zm1 26.8c-.1-.1-.2-.2-.2-.3l-.3.5c0 .1.1.2.2.3zm-.1-63.5c0-.1-.1-.2-.2-.3a1.4 1.4 0 0 0-.2.6s.1.2.2.2.1-.3.2-.5z"></path><path d="M283.7 849.6a2 2 0 0 1 .3 2.4c-.8 1.3-.5 2.7-.4 4.1s.4 3-.3 4.6a8.2 8.2 0 0 0-.1 3.5c.5 2.8 1.2 5.6-.4 8.3.3 4.1-.8 8.1-.6 12.1a12.2 12.2 0 0 1-.3 3.8 25.6 25.6 0 0 0-.5 10.3c.2 1.2-.4 2.2-.2 3.3l.6 3.3a5 5 0 0 1 .1 1.7c-1.2 5.9-.9 11.8-1.3 17.7-.2 3.3.5 6.7.7 10-2 1.1-2.9.8-3.5-1.4a13.3 13.3 0 0 1-.5-3.4c.1-7.6-.3-15.1.5-22.7.3-2 .1-4 .2-6.1.5-14.2 1-28.4 1.4-42.6.1-6.1-.4-12.2-.4-18.3-.1-7.8-.1-15.7-.1-23.5V791c0-8.1 0-16.2-.1-24.4 0-6.5-.2-13-.3-19.6v-26.1c0-10.9.1-21.8.2-32.7s.5-19.1.7-28.7c0-1.5.1-2.9 0-4.4-.5-6.6-.4-13.3-.6-19.9-.2-4.7-.6-9.3-.7-14a95.5 95.5 0 0 1 .5-16.9 18.6 18.6 0 0 1 .4-2.6c.6.7 1 1 1.1 1.4.4 3.7.8 7.4 1.1 11.2.1 1.7-.1 3.3.6 5s.3 4 .2 6 .2 6.7.3 10-.2 5.5-.2 8.2a5 5 0 0 0 .2 2.1c.5 2.3 1.1 4.7 1.6 7s.6 2 .3 2.5c-1.2 2.3-.8 4.8-.9 7.1a21.8 21.8 0 0 0 .7 7.2 1.1 1.1 0 0 1 0 .8c-1.3 1.7-.6 4-1.3 5.8a7.5 7.5 0 0 0 .4 5.9 4.6 4.6 0 0 1 .2 4.1 10.4 10.4 0 0 0-.8 5.5 83.8 83.8 0 0 1-.2 11.2c-.3 2 .2 4.1 0 6.1-.3 4.6.2 9.2.1 13.9a5.1 5.1 0 0 0 .9 4 1.9 1.9 0 0 1 .3 1.2c-1.2 2.2.7 4.4-.1 6.6a8 8 0 0 0-.2 6.6 9.1 9.1 0 0 1 .7 4.5c-.7 2.2-.3 4.2-.4 6.3a25.8 25.8 0 0 1-.4 3.9c-.1 1-.6 2.3-.2 3 1.4 3.1-.4 5.9-.5 8.8a8.7 8.7 0 0 0 .1 2.8l1.5 6.8c.3 1.4.6 2.8-.5 4a3.1 3.1 0 0 0-.1 1.7 4.2 4.2 0 0 1 0 3.3c-.1.4.2 1 .3 1.5s.5.6.4.7c-.8 2.6.1 5.1.1 7.6s-1.7.9-1 2.3.1 1.8-.3 2.8a4.5 4.5 0 0 0-.1 2c.3 1.6.8 3 1.2 4.9-1.7 4.3-1.5 9.1-.9 14a6.1 6.1 0 0 1-.2 3 10.9 10.9 0 0 0-.5 5.1 15.5 15.5 0 0 1 .1 2.2c-.5 4.1 0 8.3-.1 12.5a8.8 8.8 0 0 0 1.3 4.9l-.4.6v.2a2.9 2.9 0 0 0 .3-.9z"></path><path d="M324.7 583.6a40.1 40.1 0 0 1 1.8 12.2c-.2 5.9-.1 11.9-.4 17.8-.3 7.7-.2 15.4-.4 23.1a9.7 9.7 0 0 1 0 1.7c-1 10.2 0 20.3.2 30.4.4 16.8 1.6 33.6 1.6 50.5 0 4.5.4 9 .3 13.5 0 9.8-.2 19.7-.4 29.5-.1 7.2-.4 14.5-.4 21.7.1 10.9.4 21.8.5 32.6.1 5.1.1 10.2.3 15.3.2 9.1.6 18.2.9 27.3v1.3c-.3 10.3 0 20.6.1 30.9 0 5.7-.2 11.3-.3 17 0 2.7.2 5.5.2 8.2a10.3 10.3 0 0 1-.7 3.4c-.3.7-.8 1.4-1.7 1.1a1.7 1.7 0 0 1-1.3-1.9c.1-2.6.2-5.2.2-7.8s-.1-3.1-.1-4.6h-1.2c2-4.2 1.2-8.8 1.8-13.2a8.6 8.6 0 0 0-1.7-5.6c.2-1.7 1.4-3.3.5-5 .9-1.4.7-3 .5-4.6a9.6 9.6 0 0 1 0-1.7c1.3-5.8.5-11.5.2-17.2 0-1.5 0-2.9-.1-4.4-.3-3.5-.4-7.1-.5-10.6a71.1 71.1 0 0 0-1.1-9.4 20.3 20.3 0 0 1 .3-6c.2-1.8.2-3.4-.9-4.9s-.3-1.8-.5-2.9l1 .7a2.1 2.1 0 0 0 .3-.7c0-3.3.1-6.7-.1-10a9.7 9.7 0 0 1 0-3.4 6.5 6.5 0 0 0 0-3.4 32.8 32.8 0 0 1-.4-9.4 15.8 15.8 0 0 0-.9-6.4 14.7 14.7 0 0 1-.5-4.2 51.9 51.9 0 0 0-.1-5.6c-.1-1.6-.6-3.2.8-4.4s.2-.6.2-.8a7.5 7.5 0 0 1 .9-7.1l-1.6-1.5c1-3.8 2-7.6.9-11.7a2.5 2.5 0 0 1-.1-1.2c1.1-4 1.1-4 .1-8.6a3 3 0 0 1 .2-1.6 17.9 17.9 0 0 0 .6-8.9 21.4 21.4 0 0 1-.1-4.4 3.4 3.4 0 0 0-1.8-3.2c1-2 3.2-4 .2-5.8 0-.5-.1-.7 0-.8a21.4 21.4 0 0 0 1.3-1.9c-.1-1.9-.1-3.6-.3-5.3a4.1 4.1 0 0 0-.8-1.9 3.7 3.7 0 0 1-.5-2.9l1-.3a22.4 22.4 0 0 1 .3-2.4 4.3 4.3 0 0 0-.3-3.7 5.1 5.1 0 0 1-.3-5.3 3.3 3.3 0 0 0 .4-2c.1-4.9.1-9.8.1-14.8a19.4 19.4 0 0 1-.2-3.4 47.5 47.5 0 0 0-.7-12.5 2.9 2.9 0 0 1-.2-.9c.8-2.9.3-5.7-.2-8.5a5.7 5.7 0 0 1 0-1.3c1.3-7 .9-14.1 1.5-21.1.1-1.9.2-3.8.2-5.7l.3-5.2c0-.6-.1-1.1-.1-1.7.1-3.1 1.1-6.1.6-9.4s.1-6.3.5-9.5-.5-3.7-.1-5.6a14.7 14.7 0 0 0-.4-5.1 20.2 20.2 0 0 1-.1-3.5 6.1 6.1 0 0 1 .7-1.4z"></path><path d="M269.8 706.9l.7-.3a4.3 4.3 0 0 1 .4.7 5.1 5.1 0 0 1-1.1 3.1c-.7 1.1-.6 1.3.7 2.9s-2 1.5-1.5 3a22.8 22.8 0 0 0 1.3 2.8 8.8 8.8 0 0 0-1.2 3.2c0 1 .8 2 1.4 3.2a4.3 4.3 0 0 0-1.6 3.4c-.1 2.3-.2 4.6-.5 6.9s.7 4.2 1 6.3.3 1.4.1 1.6c-1.4 1.8-.7 3.9-.7 5.9 0 3.9.3 7.8.5 11.7a28.3 28.3 0 0 0 .9 3.7c-.8.8-1.5 1.8-.8 3.2s1.5 3.3.8 5.3c-.2.3 0 .9.1 1.3a13.6 13.6 0 0 1 .2 7.2v.5a30.2 30.2 0 0 1 .2 4.3 23.5 23.5 0 0 1-1.1 3.5 14.1 14.1 0 0 0-.5 4.5c.3 1.7-.1 3.2 0 4.8a14.6 14.6 0 0 1-.4 5.5 3.4 3.4 0 0 0-.1 1.7c1 3.1-.1 6.3.3 9.5a4.9 4.9 0 0 1 0 1.7c-.6 2.1-.5 4 1 5.6-1.6 2.1-1.6 4.3-1.1 6.6a13.5 13.5 0 0 1-.2 6.9 9.8 9.8 0 0 0-.5 5.9 2 2 0 0 1-.1 1.3c-.9 3.2-.4 6.5-.6 9.8s-.3 4.9-.4 7.3l-.3 10.9a1.2 1.2 0 0 0-.1.8c1.3 4.3.5 8.9 1.4 13.2a4.6 4.6 0 0 1-.5 3.3 10.1 10.1 0 0 0-.8 5.4c.8 7.2.6 14.5.5 21.7 0 1 .2 2 .1 3a2.4 2.4 0 0 1-1.3 1.3c-.3.2-1.1-.2-1.3-.6a8.6 8.6 0 0 1-.9-2.7 25.5 25.5 0 0 1-.2-3.9c.1-15 .1-29.9.1-44.9.1-5.7-.2-11.3.3-16.9.7-9.8.5-19.5.8-29.2s.5-17.7.6-26.5c0-7.1-.1-14.2-.2-21.3-.2-10.3-.6-20.6-.6-30.9 0-12.8.3-25.5.6-38.3.2-8.7.3-17.4.9-26.1s.6-17.4.8-26.1c0-1.6.2-3.2.2-4.8a75.4 75.4 0 0 0-.2-8.2 84.9 84.9 0 0 1-.3-11.3c.2-6.5-.4-13-.5-19.6s-.2-12.1 0-18.2a47.9 47.9 0 0 1 1-7.6c.7-.4 1 0 1.1.6a7.7 7.7 0 0 1 .2 3c-1 5.3-.5 10.6-.3 15.9.1 2.8.7 5.5-.2 8.2a5.1 5.1 0 0 0 .3 2.1 9.9 9.9 0 0 1 .7 5.1c-.2 6.7.8 13.3.9 19.9 0 2.5.2 4.9.3 7.3a12.1 12.1 0 0 0 .6 5c.8 1.8-.3 3.4-.3 5.1s-.6 2.2-.2 3.3.2 3.3-.1 5-.3 4.9-.4 7.4-.2 4.9-.2 7.4v14.7a1.2 1.2 0 0 0 .2.8c1.4 2.1.8 4-.2 6a6.9 6.9 0 0 0-.3 2.5c.1 1.2.4 2.5.6 3.7z"></path><path d="M427.9 788.6c-.7-1.8-1.5-3.5-2.2-5.2l1.4-.6-.2-.4-1.1 1.1c-.2-1-.3-2-.5-3l2-.9a3.7 3.7 0 0 0-.4-1.5 7.9 7.9 0 0 1-1.6-5.6c.1-1.3 0-2.6 0-3.9a8.1 8.1 0 0 1 .1-2.2c2.2-5.4 1-11 .7-16.6v-2.6a11.1 11.1 0 0 0-.2-1.7 4.8 4.8 0 0 0-.8-1.6 12.1 12.1 0 0 0 .9-7.1c-.4-3.3.1-6.6-.3-9.9s-.4-8.4-.7-12.6a4.2 4.2 0 0 0-.4-2c-2-3.5-1.4-7.3-1.4-11a7 7 0 0 1 1.1-2.7 4.9 4.9 0 0 0 .6-4.1c-.6-1.7-1.1-3.5-1.7-5.3l1.4-.3a6.4 6.4 0 0 0-.6-5.4 10.9 10.9 0 0 0 .9-2.3 18.7 18.7 0 0 0 .2-4.7c-.7-5.4.3-10.7-.2-16a4.8 4.8 0 0 0 0-1.7 4.4 4.4 0 0 1 0-3.7 5.1 5.1 0 0 0-.7-4.9h-.1c.4-.6 1-1.1 1.1-1.7.5-5.9.9-11.8 1.3-17.7.2-2.6.7-5.3.4-7.8-.5-4.8 1.2-9.5.5-14.2a74 74 0 0 0 .1-15.6c-.1-2.5-.2-5.2-.4-7.7s.4-3.2.4-4.7-.5-3.2-.4-4.7a43.5 43.5 0 0 1 1.1-4.6c.4-2.1.3-4.3 1-6.3 1 0 1 .8 1 1.5a195.7 195.7 0 0 1 .8 23c-.3 12.4-.8 24.7-1.2 37-.1 2.6-.1 5.2-.2 7.8-.2 7.4-.5 14.8-.7 22.2l-.3 18.8c0 13.8.5 27.6 1.1 41.3.6 11.3 1 22.7 1.5 34 .2 3.4.6 6.9.8 10.4.3 7.1.5 14.2.7 21.3s.5 14.8.8 22.2c0 1.7 0 3.5.1 5.2 0 5.5.1 11 .2 16.5a14.2 14.2 0 0 1-1 5.5c-1 2.3-1.7 2.8-3.9 2.3a6.5 6.5 0 0 1-1.9-.9c.1-4.2-.4-8.4.1-12.6 0-.6 0-1.4.7-1.7s.9-1.1.9-1.8c-.1-2.4-.2-4.8-.4-7.2-.1-.6-.8-1.2-1.2-1.7s2-1.7.4-3.2-.8-1.7-1-2.7a2.8 2.8 0 0 1 .4-1.5 6.4 6.4 0 0 0 .6-6.5c-.3-.7-.7-1.4-1-2s1.9-2.3 1.4-4zm-.1 3.1c0 .2-.1.4-.1.6s.2-.2.2-.3-.1-.2-.1-.3z"></path><path d="M165.3 811.4c-.7.6-1.5 1-1.5 2.3s-.1 2.6-.1 3.9-.1 2 .9 2.6 1 1.9 1 3.2v9.5c-.9 1.6-2.3 1.7-3.7 1.6a2.5 2.5 0 0 1-1.5-1 10.5 10.5 0 0 1-1.8-5.2v-1.8c.2-7.8.3-15.6.5-23.5 0-2.3 0-4.6.1-7 .3-8.8.7-17.6 1-26.5.2-4.3.2-8.7.5-13 .5-9.1 1.1-18.2 1.5-27.4.6-12.9 1.2-25.8 1.5-38.7s.3-22.9-.2-34.4c-.3-7.7-.4-15.4-.7-23.1s-.7-17.4-.9-26.1c-.5-12.5-.7-24.9 0-37.4.1-1.4.4-2.7.6-4.6a5.4 5.4 0 0 1 1 1.3c.6 3.3 1.1 6.5 1.6 9.8a9.7 9.7 0 0 1 0 1.7c-.1 2-.2 4-.2 6v3.5a9.7 9.7 0 0 0-.1 1.7c.5 5.3-.9 10.6-.2 15.9s-.2 9.3 1 13.8a1.4 1.4 0 0 1 .1.9c-.7 5.8.4 11.5.6 17.2s.7 8.9 1.1 13.4a3.7 3.7 0 0 1-.1 1.1l-.3 1.7c-.3 1.9 1.8 3.5.8 5.4s-.2 3.7-.4 5.5.2 3.7.2 5.6v16.6c0 1.2-.3 2.5.6 3.7a3.5 3.5 0 0 1-.1 3.3 6.4 6.4 0 0 0 .5 6.9 5.1 5.1 0 0 1 .7 2.8c0 3.3 0 6.6-1.4 9.7a9.9 9.9 0 0 0-.5 3 19.3 19.3 0 0 1 0 3.4 85 85 0 0 0-.8 15.1 14.6 14.6 0 0 1-.2 3 10.4 10.4 0 0 0 1 7c-.3.7-.8 1.3-1 1.9s1.5 3.3-.2 4.8c-.1 1.9-.3 3.8-.3 5.7a44.7 44.7 0 0 0-.1 5.2 6.8 6.8 0 0 0 .4 2.9c1.8 3.6.7 7.4.8 11.1a2.5 2.5 0 0 1-1.3 2.5c-.3.1-.5.6-.6 1s.2 1.3 1.2 1.3h.9c-.3 1.7-.8 3.3-1 5s.1 2.4-1.1 3.4-.5 2-.7 3.1l1.7.4a16.7 16.7 0 0 0-1.5 3.5 38.3 38.3 0 0 0-.3 4.7c1.5 1.2 1.8 1.9 1.3 3.4s-.6.9-.8 1.4l-.7 1.2c.9 1.5 2.1 3.1 1.1 5.1-.1-.3-.1-.6-.3-.8s-.4-.1-.6-.2.1.6.3.7z"></path><path d="M440 671.6c-.2-2.8-.8-5.6-.4-8.5.1-.9-.3-2.1 1-2.4s.3-.5.3-.7v-3l-1.8-1.5c0-1.3.1-2.8.2-5l.9 1.4.3.8a1.4 1.4 0 0 0 .2-.6c.3-3.5-.8-6.8-1.3-10.2s-1.1-8.2.3-12.2v.6a4.3 4.3 0 0 1-.1-.5 6.3 6.3 0 0 0 .8-4.2c-.4-2.1.9-4.7-1-6.4.1-1.9.1-3.8.2-5.6s.5-1.2.3-1.7c-1.4-5.3.1-10.6-.2-15.9 0-.3.1-.6.1-.8a30.4 30.4 0 0 0 .6-9 9.1 9.1 0 0 1 .1-1.7 74.6 74.6 0 0 0 1.3-12.4 5 5 0 0 1 .3-1.3c.1-.2.4-.5.5-.5s.8.2.9.5a11.4 11.4 0 0 1 .6 2.5c.2 2.9.4 5.8.4 8.7.1 14.4.1 28.8.3 43.2.1 11.3.6 22.6.9 33.9q.4 13.9.6 27.9c.2 6.8.3 13.7.3 20.5 0 3-.2 6.1-.3 9.1-.1 7.9-.2 15.7-.4 23.6s-.6 13.9-.9 20.8c-.2 3.4-.2 6.7-.3 10-.2 8-.5 16-.6 24-.1 4.3.2 8.7.1 13a52.1 52.1 0 0 1-.5 6.9c-.2 1.6-.6 3.2-2.2 4l-1.7-1.8c.3-1.4 1.1-2.5 1.1-4-.2-3.5-.1-6.9-.1-10.4a20.6 20.6 0 0 1 .3-2.6 13.9 13.9 0 0 0 0-7.3 2.6 2.6 0 0 1-.1-1.2c1-2.4.4-4.9.4-7.3-.1-4.3-.1-8.6-.2-12.9a4.6 4.6 0 0 0-.1-1.7c-.9-2.1-.7-4.2-.4-6.4a3 3 0 0 0 .1-1.3c-1.4-2.7-.2-5.3 0-8s.3-5.8.5-9.4c-.1-.7-1.6-1.5-1.3-3.1s.6-1.8 1-3a25.1 25.1 0 0 1-1.1-9.3c.1-9.2-.1-18.3-.2-27.4v-9.6a9.4 9.4 0 0 1 .4-1.6c.1-.5.4-1.2.2-1.6-1.1-2.2-.4-4.5-.3-6.7 0-.7.4-1.6.2-2.1-1-2.9-.1-5.8-.3-8.7h.8zm1-8a4.3 4.3 0 0 1-.4-.7 1.5 1.5 0 0 0-.3.7c0 .2.2.4.3.6a2.1 2.1 0 0 1 .4-.6zm-.2 5.8a.4.4 0 0 1-.1-.3c0-.1-.2 0-.2 0v.3c.1.1.2 0 .3 0z"></path><path d="M364.7 713.2c.3-.5.8-1 .7-1.5-.2-3.1.6-6.2 0-9.4a9.1 9.1 0 0 1-.1-1.7c-.1-3.8-.2-7.7-.2-11.5a22.5 22.5 0 0 1 0-2.6c.7-3.6-.4-7.1-.4-10.6 0-.3-.5-.6-.7-.9a5.8 5.8 0 0 0-.1-6.3h.1a2 2 0 0 0 .9-2.2c-.9-7-.2-14.2-.8-21.2-.2-2.9-.6-5.6 0-8.5a2.2 2.2 0 0 0 .1-.8c-1.3-5.9.1-11.8 0-17.7 0-4.4.9-8.9 1.4-13.3s1.1-9.2 1.6-13.8 1.1-9.4 1.4-14.2.4-11.9.6-17.8a12.2 12.2 0 0 1 .3-1.7c1 0 1 1 1 1.5.2 4 .4 8.1.3 12.1s-.3 8.7-.7 13.1c-.6 7.6-1.5 15.2-2.2 22.9-.4 4.5-.8 8.9-.8 13.4 0 9.5.1 18.9.3 28.3.3 11.2.8 22.4 1.1 33.5.2 8.3.3 16.6.5 24.8s.8 17.4 1 26.1.3 15.1.4 22.7c.1 11.2.2 22.3-.4 33.5-.9 15.8-.6 31.6-.4 47.5.3 12.9.7 25.8 1 38.7a61.2 61.2 0 0 1-.1 7.4 25.4 25.4 0 0 1-1.3 4.5c-.1.4-.7.5-1 .7s-.8-1.7-.9-2.4.4-4.1-.7-6c.8-1.9.2-3.6-.5-5.3a2.9 2.9 0 0 1 .1-1.3 78.7 78.7 0 0 0-.4-16.8 11.8 11.8 0 0 1-.1-4.2 36.2 36.2 0 0 0 0-5.7V840a8.3 8.3 0 0 1-1.1-1.3 5.3 5.3 0 0 1 .4-1.7 11.7 11.7 0 0 0 .6-2c0-5.3 0-10.6.1-16s.1-8.1.1-12.2c0-.2.1-.6.1-.8s-1-2.3-1.3-3.4.8-2 .2-3.3a3.9 3.9 0 0 1 .6-4.3c.6-.7.4-2.2.1-3.4-.5-2.9-1.2-5.9-.8-9 .2-1.1.8-2.1.1-3.3.9-4.7-.7-9.4 0-14.6.2 1.2.4 2.1.6 3s.7-.8.7-1.3 0-3.1-.1-4.7a2.9 2.9 0 0 0-.4-1.6 2.5 2.5 0 0 1-.2-3.1c.5-1-1-1.6-.5-2.8a5.3 5.3 0 0 0 .4-2.5c-.6-2.2.3-4.1.8-6a13 13 0 0 1-1.3-3.6c-.2-1 .3-2.2.5-3.3a19.7 19.7 0 0 0 .4-3.4c.1-6.2 0-12.5 0-18.7a7.9 7.9 0 0 0-1-3.7z"></path><path d="M238.3 898.4c-1.3.3-1.9-.7-2.1-1.6a28.6 28.6 0 0 1-.9-5.1c0-5.1 0-10.1.1-15.2.2-14.3.5-28.5.7-42.7.1-7.4.2-14.8.2-22.2 0-10.9-.2-21.8-.1-32.6 0-9 .2-18 .3-27 .2-12.1.4-24.1.4-36.2 0-10.2 0-20.3-.5-30.5s-.7-17.7-.6-26.5.5-17.8.7-26.6.8-14.8.7-22.2-.6-15.6-.9-23.4-.5-13.1-.6-19.6a29.2 29.2 0 0 1 .4-5.1c1.1-.1 1.2.8 1.2 1.4v3.5a15.1 15.1 0 0 0 .1 3c1.1 5.4.9 10.9 1.5 16.4.4 3.8 1 7.7 1.5 11.6 0 .5.1 1.1.1 1.7.1 2.4.6 4.9.3 7.3s.1 4.8 0 7.3a8.6 8.6 0 0 1-.1 1.6 10.7 10.7 0 0 0-.3 2.5c.1 3.3.3 6.6.5 9.9 0 .3.1.7 0 .8-1.3 2.6-.1 5.4-.4 8l.4.2a.5.5 0 0 0 .2-.4l.5-1c.1 2.5-.6 4.8.1 7 .2.6-.3 1.4-.5 2.1l-1.2 4.1a4.3 4.3 0 0 0 .4 4.1 6.3 6.3 0 0 1 1.2 4.4 29.6 29.6 0 0 1-.6 5.1c-.2 1.6 0 3.1-.9 4.6a6.4 6.4 0 0 0-.3 2.5c-.1 2-.1 4-.1 6s-.1 4.4-.1 6.5c0 3.8.2 7.6 0 11.3 0 1.3.2 2.5.3 3.8s.1 4.9.1 7.4c0 5.5.1 11 .2 16.5s.3 8 .2 12-.7 7.8-.5 11.7c.3 7-.5 14.1.4 21.2a14.2 14.2 0 0 1-.4 7.1 5.1 5.1 0 0 0 .2 4.2 6.2 6.2 0 0 1 .6 3.8c-.1 1.1.4 2.2.3 3.3s-.3 2.3-.4 3.4.2.7.1.9c-1.3 3.1-.7 6.5-.9 9.8s-.2 5.5-.4 8.3.4 6.6-.3 9.9a5.7 5.7 0 0 0 0 2.6c.9 2.7.4 5.5.3 8.2-.4 8.5.1 17.1.3 25.6a9.9 9.9 0 0 1-.2 1.7 12.2 12.2 0 0 1-.3 1.7c-.6 1.9 2 3.5.4 5.7s-.3 3.9-.6 5.9.4 4 .2 6-.1 5.8-.2 8.7-.2 5.7-.3 8.6c0 .4.1 1.1.3 1.2 1.8 1 1.2 2 .3 3.3a13 13 0 0 0-1 2.5zm2.6-255.6v-.4l-.4.3.2.3z"></path><path d="M152.2 668.1c1 1.4.5 2.4-.6 3.5a10.6 10.6 0 0 1 .7 8.2 5 5 0 0 0 0 2.1c.2 1 .5 2-.1 2.9s.1 1 .2 1.5a12.7 12.7 0 0 1 .1 2c0 .4-.4.9-.3 1.2.8 4 .2 8.1.4 12.1s-.2 7.8-.2 11.7c-.1 1.9 0 3.8 0 5.7.1 4.6.4 9.3.2 13.9a61.8 61.8 0 0 0-.3 8.6 2.5 2.5 0 0 1-.1.9c-2 3.4-.2 7.3-1 10.9a3.9 3.9 0 0 0 .4 2.1 7.1 7.1 0 0 1-.1 6.2 4 4 0 0 0 .1 3.7 3.5 3.5 0 0 1 0 3.3 6.9 6.9 0 0 0-.4 2.5c-.2 5.6-.3 11.3-.3 16.9 0 1.4.7 2.8.7 4.2a30.7 30.7 0 0 1-.7 4.2 1.4 1.4 0 0 0 0 .9c.9 3.2.5 6.5.5 9.8s.4 6.3.5 9.5a11.9 11.9 0 0 1-.7 2.3c-1.7-.5-2.2-2-2.4-3.3a68.5 68.5 0 0 1-.7-7.8c.1-11.6.2-23.2-.3-34.8-.4-10-.4-20-1.2-30-.3-3.8-.2-7.6-.2-11.4-.2-6.2-.5-12.4-.5-18.7 0-9.1.1-18.3.2-27.4s.3-17.5.5-26.2c.3-10.3.8-20.6 1-30.9.2-4.3 0-8.7.1-13.1 0-10.9.1-21.8.2-32.6.1-2.7.2-5.3.2-7.9a19.1 19.1 0 0 1 .8-4.4c1.1-.3 1.5.2 1.6 1 .3 3.6.5 7.1.8 10.7.1 1.7 1.2 3.2.8 5.1s0 5.4.4 8a41.7 41.7 0 0 1 .4 6.1c.1 2 .1 4.1.1 6.1a5.3 5.3 0 0 1-.6 3.7 2.1 2.1 0 0 0-.2 1.5c1.3 1.1.4 2.5.7 3.7a4.3 4.3 0 0 1-.8 3.6 5.8 5.8 0 0 0-.2 3 5.3 5.3 0 0 1 .1 2.8 4.6 4.6 0 0 0 .6 3.8 5.8 5.8 0 0 1 1 4c.1 4.2 0 8.3-1.4 12.4-.8 2.1-.4 4.8-.6 8l1.4-3c0 2.3.4 3.8-.7 5.4s-1.6 3.3.3 4.8c.1 1.7.3 3.4.3 5.1a6.6 6.6 0 0 1-.6 2l-.5.5a.5.5 0 0 0 0 .6c.1-.1.3-.2.4-.4s0-.5 0-.8zm-.7-3.8c.3-.2.7-.3.7-.4a4.3 4.3 0 0 0-.2-1.1l-.6.3a4.9 4.9 0 0 0 .1 1.2z"></path><path d="M227.8 701.8a4.2 4.2 0 0 0-1 3.1 175.3 175.3 0 0 1-.3 20.5c-.2 2.1 1 4.2.2 6.3.7 1.6-.7 2.9-.2 4.5a21 21 0 0 1 .9 4.2c.3 1.9.2 3.8-1.3 5.1a15.1 15.1 0 0 1 1.1 7.2c0 1.8-.5 3.6.2 5.3s.2.7.1.8c-1.9 2-.7 4.7-1.4 7.2l1.8-.8c-.1 2.6.1 5.4-.5 7.7s.2 5.1-.2 7.6c1.2 3.7.4 7.4-.3 11.1a15.3 15.3 0 0 0 .1 3c0 .1.5.2 1 .4s.4 3.2-.5 4.9a2.3 2.3 0 0 0 .1 1.6 2.1 2.1 0 0 1-.6 2.9 2.6 2.6 0 0 0-.5 2c1.3 4.5 0 9.1.3 13.7s-.4 8.4.1 12.6a20.9 20.9 0 0 1 .2 5.6 8.6 8.6 0 0 0 .6 5c.3.5 0 .9-.3 1.4s-1 3.3.8 4.4c-2.1 1.8-2.1 1.8-1.4 3.9a4.6 4.6 0 0 1 .1 2 28.3 28.3 0 0 0-.6 7.7 13.8 13.8 0 0 1-.6 6 3.7 3.7 0 0 0 .3 2.9 7.3 7.3 0 0 1-.1 4.6c-.6 2.2-.5 4.7-.7 7.2s-.2 3.1-.2 4.5-1.6.3-2-.6a16.2 16.2 0 0 1-1.3-7.2c.2-5.5.4-11 .5-16.5.2-7.4.6-14.8.7-22.2.1-12.1.2-24.1.1-36.2-.1-8.7-.7-17.4-.9-26.1-.2-4.6-.3-9.2-.3-13.9.1-14.6.5-29.3 1-44s.9-31 1.3-46.5c.4-11.3.9-22.6 1.1-34s.6-20-.3-30c-.1-1.3-.3-2.6-.4-3.9-1.4-11.5-2.5-23-2.8-34.7-.2-4.3 0-8.7.1-13 0-.4.4-.7.6-1s.7.8.7 1.4c.3 6.2.3 12.4.7 18.6s1.2 12.1 1.9 18.1l1.8 15.1c.1 1.1.2 2.3.4 3.4a26.8 26.8 0 0 1 .5 6.9c0 2.8.2 5.5.2 8.3a20.9 20.9 0 0 1 0 2.5 22 22 0 0 0-.2 4.4c.7 3.9-.1 7.8-.2 11.7-.1 2.3 0 4.6-.1 6.9s-.2 5.4-.4 8.1a15.8 15.8 0 0 1-.1 3.1c-.4 1.6.9 2.9.6 4.5a15.4 15.4 0 0 0-.5 4.7 12.4 12.4 0 0 1-.5 4.3 4.6 4.6 0 0 0-.2 2.6c.7 4.4-.1 8.9 0 13.3a25.1 25.1 0 0 0 .1 3.9 4.6 4.6 0 0 0 .8 1.9z"></path><path d="M351.9 641.8c-1.3-.6-1.6-1.7-1.1-3.1l1.2-3.9c0-1 .1-2 .1-3a4.2 4.2 0 0 0-.4-2 2.5 2.5 0 0 1-.3-1.9 15.8 15.8 0 0 0 .5-3.8c.1-1.2.1-2.3.1-3.5s.6-3.7-.5-5.5a5.6 5.6 0 0 1 0-1.3c.5-6.5.2-13.2 1.2-19.7.7-4.6.9-9.2 1.3-13.9s.2-6.5.9-9.8a29.9 29.9 0 0 0 .2-6c0-.9 0-.9.9-2.7a6.1 6.1 0 0 1 .5 1.2 126.9 126.9 0 0 1-.1 19.5c-.4 7.5-1.1 15-1.1 22.6 0 16 .9 31.9 1.3 47.8a265.6 265.6 0 0 1-.6 30.9c-.3 3.9-.1 7.9-.2 11.8-.1 7.7-.5 15.3-.2 23 .4 14.7.2 29.3.4 44s.1 28.1.2 42.2c0 7.7.1 15.4.1 23.1.2 14.3.3 28.7.5 43.1 0 3.3.3 6.6.3 10s.1 7.8-.1 11.7a14.9 14.9 0 0 1-.8 4.2c-.3.9-.8 1.9-2.2 1.6-.3-2-1.7-3.8-.4-6a1.3 1.3 0 0 0 .1-.9c-.7-2.5-.2-5.1-.3-7.7s.2-2.9.1-4.3c-.4-3.9.1-7.7 0-11.6 0-1.2 0-2.3-.1-3.5a10.5 10.5 0 0 0-.6-2.4 2.8 2.8 0 0 1-.1-2.8 3.2 3.2 0 0 0 .5-2.5c-.3-1-1-2.2-.8-3.1a12.6 12.6 0 0 0 .5-3.3c0-1.2-.1-2.3 0-3.5.4-6.5.3-13 .1-19.6 0-2.5-.5-5.1.3-7.7a7.6 7.6 0 0 0 0-3c-.5-4.1-.2-8.1-.2-12.2 0-1.4-.2-2.9-.3-4.3l-.3-6.1c0-.7.2-1.6-.1-2.1-1.2-2.2.3-5-1.2-7a.6.6 0 0 1-.1-.4 7.5 7.5 0 0 0 .8-2.4c0-.7-1.2-1.1-.8-2.2a22.6 22.6 0 0 1 1.1-2.2 6.6 6.6 0 0 0 .4-4.6 18.7 18.7 0 0 1-.4-4.7 97.1 97.1 0 0 1 .5-12.1c0-.9-.2-1.8-.2-2.6-.1-2.3-.1-4.6-.1-7a9.1 9.1 0 0 0 .1-1.7c-.8-7.1-.1-14.4-.6-21.5-.1-1.6.4-3.1.4-4.7.1-5.6.1-11.3.1-17a24.2 24.2 0 0 1 .3-6 8.9 8.9 0 0 0 .1-4.3c-.7-3.4.3-6.9 0-10.3s0-4.1-.1-6.1-.1-3.7-.2-5.6a7.4 7.4 0 0 0-.3-2.6c-1.1-3.1-1.2-6.4-1.3-9.7a6.2 6.2 0 0 1 1-4 5 5 0 0 0 .4-5 48.1 48.1 0 0 1-1.8-5 18.5 18.5 0 0 0 1.4-1.4v.1z"></path><path d="M300 717.5a4.8 4.8 0 0 0-.8 1.8c-.1 3.3-.6 6.6.3 9.9a2.3 2.3 0 0 1-.2 1.6 2 2 0 0 0-.1 1.5c.8 1.6 1.5 3 .6 4.9-.1.2.2.8.3 1.2a3 3 0 0 1 .2 1.3c-.2 1.3-.8 2.7-.9 4.1s.7 2.4.8 3.7a6.4 6.4 0 0 1-.4 3.4c-1.1 2.5-1 5-.9 7.6a80.4 80.4 0 0 1-.5 13.9c-.3 2 .3 4.3.5 6.4s.5 3.2.8 4.7a4.1 4.1 0 0 1 0 2.2c-1.6 2.5-.1 5.3-.5 7.9-.1.6.3 1.4.1 2.1s-.8 3.6.5 5.3.1 1.4.1 2.1-.4 1.4-.5 2.1 1.4 4.2-.1 6.3-.3 4.3-.3 6.4a10.2 10.2 0 0 0 .4 3.5c1.4 3.9.7 8 .6 12-.1 1.9-1.4 3.8-.3 5.8a1.1 1.1 0 0 1-.1.8c-1 2.5-.8 5.1-.8 7.7-.1 4.6 0 9.3-.2 13.9 0 1.3 1.5 2 .8 3.6a6.5 6.5 0 0 0-.4 3.4 20 20 0 0 1-.5 7.3 9.6 9.6 0 0 0-.3 3.4c.6 4.5.1 8.9 0 13.4 0 2.9-.3 5.7-.4 8.6s.1 4.6.1 6.9-.4 2.3-.3 3.4.4 3.4.4 5.1-.3 5-.4 6.6-.3 1.5 0 2.1c1.1 2.8-.3 5.6 0 8.5s-.2.9 0 1.2c1.2 2.6-.1 5.1.2 7.9h-2.2a7.5 7.5 0 0 1-1.7-5.6c.2-6.4.4-14.6.6-21 .3-9.6.3-19.2 1-28.7s.1-17.7.2-26.6.1-15.4-.1-23c-.2-13.5-.5-27-.7-40.5s.1-26.2.6-39.2c.1-4.8.2-9.6.2-14.4.1-8.1.1-16.2 0-24.4 0-6.6-.2-13.3-.3-20s-.3-14.2-.3-21.3c-.2-10.4-.1-20.9-.3-31.3-.1-5-.7-9.9-.6-14.8s-.6-7.6.5-11.2c1.1-.5 1.6.3 1.7 1.1a25.5 25.5 0 0 1 .5 7.8 12.9 12.9 0 0 0 0 3.4 50.2 50.2 0 0 1 .6 8.7 11.1 11.1 0 0 0 .5 3c0 .4.3.9.2 1.2-1.1 3.2.2 6.2.2 9.3 0 1.1.1 2.1 0 3.1s.9 1.2.9 1.8-.6 1.5-.8 2.3a4.2 4.2 0 0 0 .2 2.5c.8 1.3 0 2.5.1 3.8l-.3.7h.3v-.7a2.4 2.4 0 0 1 .1 2.8 3.8 3.8 0 0 0-.1 3.7c.9 1.5.7 3 .7 4.6-.2 4.1-.4 8.3-.5 12.4a13.3 13.3 0 0 0 .7 5.6 4.2 4.2 0 0 1 .3 1.2c-.2 4 .8 8-.4 12a2.5 2.5 0 0 0 .1 2.4c.8 1.2.3 2.5.4 3.8z"></path><path d="M396.3 792.8a1.4 1.4 0 0 1-.2-2.2 3.2 3.2 0 0 0 .3-3.9 7.1 7.1 0 0 1-.3-6.5c.6-1.8 1.5-4-.1-6a1.2 1.2 0 0 1-.1-1c1.6-3 .6-5.7-.4-8.5 1.5-2.7 2.3-5.6.5-8.6 1.2-.9 1.4-1.9.7-3h-.1a1.3 1.3 0 0 0 0-2h.1c.1-.6.5-1.2.4-1.7-.9-3.1-.1-6.2.2-9.3s.7-6.6.8-9.9c0-6.6-.3-13.3-.1-20s-.1-15.1.4-22.6c.4-6 .1-12.1.3-18.2.2-4.2-.2-8.4-.4-12.6-.6-7.9-1.3-15.9-1.8-23.8-.3-5.8-.5-11.6-.7-17.4 0-1.1.2-2.3.3-3.5a4.7 4.7 0 0 0 .3-1.7c-.6-4.2.7-8.3.7-12.5-.1-1.9-.1-3.7-.1-5.6a6.2 6.2 0 0 1 .4-3.3 2.8 2.8 0 0 0 .4-1.6c-1.5-1.8-.1-3.2.2-4.8a2.9 2.9 0 0 0 .1-1.3c-.8-3.6 0-7.2.1-10.8s.8-8.9 1.3-13.3a14.3 14.3 0 0 1 .9-2 6.2 6.2 0 0 1 .7 1.8c.3 4.6.7 9.3.9 13.9.1 2.3-.1 4.7-.1 7 .1 7.6-1.1 15-2 22.5a203.5 203.5 0 0 0-.9 32.2c.6 9.1 1.5 18.2 1.9 27.3.3 6.7.2 13.4.2 20.1.1 9.7-.1 19.4.2 29.2.2 6.6 0 13.3.1 20s.2 14.8.2 22.2c0 3.2-.2 6.4-.2 9.6 0 8.4.2 16.8.2 25.2s-.2 16.3-.3 24.4-.1 15.4-.1 23.1-.1 17.4 0 26.1a9.4 9.4 0 0 1-2.1 6.5l-2.9-.2c.3-.6 1-1.3.9-1.8-.3-2.8.5-5.4.5-8.1-.2-5.2-.3-10.4-.5-15.6 0-1.4.2-2.8-.6-4.2a2.4 2.4 0 0 1-.2-2c.8-1.2 1.6-2.2-.2-3.2a1.1 1.1 0 0 1-.1-.8c.8-2 .3-3.9 0-5.8a7.3 7.3 0 0 1 .4-2.9 15.8 15.8 0 0 0 .6-6.8c-.1-1.6-.6-3 0-4.6s-.4-1.3-.6-2h.1c-.3-1.4.1-3-.8-4.4a3.6 3.6 0 0 1-.2-2.1c.4-2.2.1-4.5.2-6.7 1.6-.5 1.6-.6.5-2.5z"></path><path d="M451.1 718.7c1.5-1.9 1.1-4.1.6-6.1-1.5-5.3-1.4-10.8-1.4-16.3V695a13.8 13.8 0 0 0 .1-6.7 3.8 3.8 0 0 1 .4-1.7 1.4 1.4 0 0 0 .2.7l.5-.6c.4-.6.8-1.2.1-1.9a2.5 2.5 0 0 0-.1.8c0 .4.1.8.1 1.2h-.9a18.6 18.6 0 0 1-.4-3.4l-.6-27.8c0-4.7-.2-9.3-.1-14s.4-10.7.6-16a7.7 7.7 0 0 1 1.5-4.3c-.2-1-.3-1.9-.4-2.7a5.3 5.3 0 0 1 .4-3.7 9.9 9.9 0 0 0 .5-6.4 3.5 3.5 0 0 1-.1-2c.9-1.8.7-3.6.7-5.5s.1-4.4.2-6.5.2-4.1.2-6.1a14.8 14.8 0 0 1 1.5-6 6.6 6.6 0 0 1 1.1 3.8l.3 8.3c.1 5.8.3 11.6.3 17.4s-.3 9.3-.3 13.9c.1 10.1.3 20.1.5 30.1s.6 17.4.5 26.1c0 20.1-.2 40.1-.4 60.1-.2 10.6-.5 21.2-1 31.8a167.1 167.1 0 0 1-2 21.2c-.2 1.2-.4 2.3-1.8 2.2a32.1 32.1 0 0 1-.5-15.4 12.8 12.8 0 0 0 0-5.5 19.5 19.5 0 0 1-.3-3.4c-.1-4.7 0-9.3 0-14 0-1.2-.5-2.6.6-3.6s.2-.3.1-.4-.5-2.2-.7-3.3 1.2-1.7.4-3.2.8-3.2-.1-5a7.5 7.5 0 0 1-.4-2.8c.6-1.6 2.1-3.1 1.4-5.4s-1.1-3.4-1.7-5.3c.6-.2 1.2-.1 1.5-.4a2.4 2.4 0 0 0 .4-1.7c-.2-1.7-.6-3.4-.9-5.1s.3-.8.4-1.2-.1-.2-.2-.4-.4.4-.4.5l.3 1.2a5.8 5.8 0 0 1-.7-4.1zm-.1-89.6z"></path><path d="M141.1 722.5a13.2 13.2 0 0 0-1.2 6l1.8 1.3c-.6 1.9-1.3 3.7-1.8 5.6s.8 3.5 1.4 4.8-.7 4.1-.4 5.8-.8 3.5.4 5a1.5 1.5 0 0 1 .1 1.3c-.8 1.5-1.1 2.9.1 4.3-.6 2.4.4 4.9 0 7.3s-.2 5.4-.4 8.1c-.2 4.8-.5 9.5.4 14.3a18.2 18.2 0 0 1-.3 7.7 15.5 15.5 0 0 0-.4 2.9c-1 .8-1.6.2-1.8-.7s-.8-4.3-1.1-6.4c-1.4-13.3-1.7-26.7-2-40-.1-9.3-.4-18.6-.5-27.9-.1-11.6.1-23.2 0-34.9-.2-18.4.8-36.9.9-55.3.1-4.5-.1-9-.2-13.5-.2-9.9-.1-19.8.5-29.6.2-2-.1-4 .9-6.2a7 7 0 0 1 1.6 4.8 68.5 68.5 0 0 0 .4 9.1 36.2 36.2 0 0 1 .1 5.7 7.1 7.1 0 0 0 1.1 4.9c-1.1 3-1.4 5.8.4 8.7a3.3 3.3 0 0 1 .3 2 32.1 32.1 0 0 1-.7 3.6c1.6 1.7 1.7 4.1 1.7 6.7.1 6.8.4 13.6.4 20.4s-.1 11.9-.3 17.9c-.1 3.4.4 7-.6 10.4a7.6 7.6 0 0 0 .1 2.1c.2 2.1.5 4-1.1 5.7a3.3 3.3 0 0 0-.3 2c.1 2.4 0 4.7 1 7s.5 3.1.5 4.7-.1 5.2-.3 7.8-.5 2.8-.7 4.3-.5 4.6-.6 6.9c0 .5.7 1.1 1 1.6a5.4 5.4 0 0 1-.5 1.1h.1c-1.1 1.6-1.1 1.8 0 2.8zm0-97.6l-.2-.2c-.1.1-.2.2-.1.3l.2.2c.1.1.1-.2.1-.3z"></path><path d="M196.4 866.1l-2.9.3a6.6 6.6 0 0 1-2.2-4.9v-5.7c.1-5.6.2-11.3.1-16.9s-.3-13.4-.3-20c-.1-13.1-.1-26.2-.1-39.3 0-8.1-.1-16.2-.1-24.3s.1-18.9.1-28.3c0-5.4.2-10.7 0-16.1v-1.3c.6-14.9.2-29.9.4-44.8 0-2.2.1-4.4.3-6.5.5-9 1.2-18 1.7-27a188.4 188.4 0 0 0-1.5-36 154.5 154.5 0 0 1-1.2-30.4c.1-1.1.1-2.3.1-3.5l.3-3.4c.1-.7.3-1.4.6-2.6a17.7 17.7 0 0 1 1.2 1.9c.3 2.1.7 4.2.9 6.4.5 4.3.1 8.7 1 12.9a8.1 8.1 0 0 1-.1 2.2 8.3 8.3 0 0 0 .9 6.9c-1.1 1.4-1.2 2.6-.1 3.9h.1a16.1 16.1 0 0 1 0 3.1c-.6 2.7-.2 5.5-.1 8.2l.6 9.5c.7 10.6 0 21.1-.8 31.6-.6 7.6-1.4 15.3-1.4 23s-.2 15 .1 22.5 0 11.9 0 17.8c0 .2-.1.3-.1.5-.1 2.1.9 4 .4 6.3s-.1 4.6 0 6.9v6.6c.1 2.1.1 4.3.1 6.5a7.5 7.5 0 0 0 .4 3 3.8 3.8 0 0 1 .1 3.6 2.1 2.1 0 0 0 .3 2.4c.6.8.2 1.2-.2 1.8a1.7 1.7 0 0 0 .3 1.1 2 2 0 0 1-.2 2.1h.1a3.1 3.1 0 0 0 0 2.8h-.1c.4 1.5-.3 3 .3 4.6a11.4 11.4 0 0 0 .9 2.6c.2.4-.8 1.4-.8 2.2s-.2 4.6 1.6 6.4l-1.6 2c.1 1.9.1 3.9.3 5.8s.4.7.8 1.2a6.3 6.3 0 0 0-1 2 5 5 0 0 0 .1 2.1 32 32 0 0 0 .7 3.3c.6 2.2 1 4.2-.5 6.1a2.9 2.9 0 0 0 0 3.2c1.2 2.4.9 5 .5 7.6a5.7 5.7 0 0 0 0 2.9c.5 1.5.7 3-.6 4.3s.2 1.6.6 2.4c-.7 1-1.3 2.1-.9 3.2s-.1 3.4-.1 5-.1 4 .7 6a6.2 6.2 0 0 1 .4 3.3c-.3 2-.7 3.9 0 5.8.1.1.1.4 0 .4s-1.1 2-.6 3.6-.3 2.8-.4 4.2-.2 2.9-.3 4.3v4c-.1 1.4-.1 2.8-.2 4.2l-.3 4.4a11.3 11.3 0 0 0 .1 2.6 21.6 21.6 0 0 1 .6 5.1 7.4 7.4 0 0 0 1 2.7zm-.5-72l-.3-.6a2.5 2.5 0 0 0-.2.7c0 .2.2.4.3.6a6.4 6.4 0 0 1 .2-.7z"></path><path d="M385.5 553.6a44.4 44.4 0 0 1 1 10.1c-.2 6.4-.3 12.8-.9 19.1a138.4 138.4 0 0 0-.2 14.4c.1 8.7-.8 17.4-1.1 26.1s-.7 15.1-.8 22.6c0 10.6.1 21.2.6 31.7s.2 23.8.3 35.7 0 25.5 0 38.3c0 7.6.3 15.1-.2 22.7-.6 9.3-.3 18.5-.4 27.8q-.3 20.7 0 41.4c.1 9.4.6 18.9.8 28.3a30.2 30.2 0 0 1-.2 5.2 8.3 8.3 0 0 1-.8 2.8 1.5 1.5 0 0 1-1.3.7 1.7 1.7 0 0 1-.9-1.1c.2-2.4-.6-4.5-.9-6.8a9.5 9.5 0 0 1 .2-2.9c.1-.7.3-1.4.4-2.1.1-2.5.5-4.8-.1-7.3a20 20 0 0 1-.2-6c.2-2.8-1.1-5.2-.9-8s-.2-5.2-.2-7.8.1-3.1.1-4.7.3-2.5 0-4 .2-3.1.4-4.7a7.1 7.1 0 0 0-1-5.3 4 4 0 0 1-.6-2.8c.4-1.6-.1-3.4.9-5s-.4-2.7-.7-4.1 1.7-.8 1.6-2.4c0-5.1.2-10.1 0-15.2s.5-10.6 1-15.9c.1-1.8-.1-3.5 0-5.2l.6-15.2c0-1.9-.1-3.8-.1-5.6a7.9 7.9 0 0 1 .1-2.2 85.2 85.2 0 0 0 .4-14.3c0-3.2.1-6.4-.1-9.5s.5-8.3 0-12.5-.3-8.1-.4-12.2.1-6.7.1-10-.2-7.2-.3-10.8c0-1.7.2-3.5.1-5.2a61.2 61.2 0 0 0-.4-8.6c-.7-3.4-.4-6.7-.3-10a81.1 81.1 0 0 0-.4-9.9c-.2-1.8.8-3.8-.6-5.4a1.7 1.7 0 0 1 .3-1.1c.8-1.8-.2-3.4-.2-5.1s.9-3 .5-4.6-1-2.8-1-4.1.9-2.7 1.2-4 .7-4.9 0-7.4-.8-2.5.4-3.5c-.5-2.5.4-5.1 0-7.7l-1.4-.2.6-9.5.9-.3v-8.2c-1.8-2.2-.6-4.5-.2-6.9s.9-3.9-.7-5.6a2.9 2.9 0 0 1-.1-2.4c1-1.6.4-3.5 1.3-5.2s.5-3.3.9-4.9.8-3.1 2.9-3.5z"></path><path d="M213.4 808.2a10.2 10.2 0 0 0-.6 2.5c-.1 1.7-.4 3.3.7 4.9a3.8 3.8 0 0 1-.3 4.4c-1.3 1.4-1.3 3.2-1 4.9a26.6 26.6 0 0 1 .2 6.9 20.9 20.9 0 0 0-.1 2.5c.7 3 .2 6.1.3 9.1s.1 4 .2 6.2c-.3.4-1.2.3-1.1 1.6s-.6 5.5-.1 8.2a5 5 0 0 1-.2 1.7 20 20 0 0 0 .6 9.3 6.1 6.1 0 0 1-.1 3.3 12.6 12.6 0 0 0-.7 5.1 2.8 2.8 0 0 1-.4 1.2 1 1 0 0 1-1.6.3 3.8 3.8 0 0 1-.9-1.8 40.7 40.7 0 0 1-.6-6c.1-7 .4-14 .6-20.9.2-4.7.4-9.3.4-13.9.1-8.9-.1-17.7-.1-26.6-.1-7.1 0-14.2 0-21.3s-.3-12.2-.4-18.3c-.1-9.8-.1-19.7-.1-29.6 0-6.8 0-13.6-.1-20.5 0-12.1-.1-24.3 0-36.5.2-9.8.6-19.7.9-29.5.1-4.1.2-8.1 0-12.2-.4-10.9-1-21.7-1.5-32.6-.2-5.8-.5-11.6-.5-17.4s-.4-13.6-.8-20.4a85.3 85.3 0 0 1 .6-18.2 2.1 2.1 0 0 1 .3-.7c.9-.5 1.5.2 1.9.9a21.5 21.5 0 0 1 1 2.7c.4 1.8-.1 3.8 1.5 5.1s.4 3.6.7 5.8a17.2 17.2 0 0 1-1.5 2c.1-.7.1-1.5.2-2.2h-.2v2.2c.2 1.1.4 2.2.5 3.3s.6 4 .9 6.4a5.6 5.6 0 0 0-.9 4.3 30.3 30.3 0 0 1-.3 5.2c0 .9.5 1.2 1.4.8-.7 3.3.5 6.5.2 9.9l-.9-.8c-.6 0-.5.7-.5 1.1 0 2.3 0 4.6.1 6.9 0 .5.5.9.9 1.3s.3.5.1 1c-1.7 3.6-1.2 7.3 0 10.8.7 1.8.9 3.2 0 4.9a5.3 5.3 0 0 0-.4 2.5 26.6 26.6 0 0 1 .1 6.9c-.3 1.1.7 2 .3 3.3a17.6 17.6 0 0 0-.3 3.3 175.6 175.6 0 0 0-.4 17.8c0 2.5-.2 5.2-.4 7.7-.6 5.2-.3 10.4-.6 15.6s.1 9.2 0 13.9-.3 11.3-.4 16.9a3 3 0 0 0-.2 1.3c1 4.7.2 9.5.3 14.2.1 1.7-.1 3.5-.1 5.2a79.6 79.6 0 0 0 .5 12.9c.3 2.7-.2 5.5 0 8.2.2 6.1.6 12.2.5 18.2 0 2 .4 4.1.6 6.1.4 4.3.5 8.6.5 12.9s.1 8.4 0 12.5a3.9 3.9 0 0 0 1.4 3.3z"></path><path d="M465 619.2a8.1 8.1 0 0 0 1.1-4.9 142.6 142.6 0 0 1 .6-16c.1-1.4.4-2.8.7-4.8.7.9 1.1 1.2 1.2 1.6s.5 3.7.7 5.6a141.2 141.2 0 0 1 .6 19.5c-.2 3.6.1 7.3.1 10.9 0 13-.2 26.1-.1 39.1 0 5.5-.7 11-.2 16.5.2 2.6-.1 5.2-.1 7.8-.2 11.9-.3 23.8-.7 35.7-.4 8.5-.9 17.1-.9 25.6a26.3 26.3 0 0 1-.6 4.8 78.7 78.7 0 0 0-1.5 12 38.3 38.3 0 0 1-1 5.9 3.5 3.5 0 0 1-.8 1.3c-.4-.4-.7-.5-.7-.7a61.9 61.9 0 0 1 1-15.5c.5-3.2.9-6.2-.4-9.3a4.2 4.2 0 0 1 .2-2.5 9.8 9.8 0 0 0 .8-6.3c-.2-1.1-.1-2.3-.2-3.5a4.6 4.6 0 0 0-.3-2c-.8-1.3-1.3-2.5.3-3.6.1-1.7.3-3.4.3-5.1a7.5 7.5 0 0 0-.3-3c-.7-1.6 0-2.8.4-4.1l-1.3-1.8 1.8-3.3a28.1 28.1 0 0 1-2-2.4c.1-2.8.3-5.8.4-8.8a14.9 14.9 0 0 0-.2-2.1c-.4-2.6-.6-5.1 1.1-7.4a3.4 3.4 0 0 0 .4-2.8 17.1 17.1 0 0 1 0-8.1 4.3 4.3 0 0 0-.8-4.1 4.2 4.2 0 0 1-.9-3.6c.2-1.1.5-2.2.7-3.4s.3-1.1.1-1.6c-1.4-4.5-.4-9.2-.8-13.8a23.5 23.5 0 0 1 .5-3.7c1.7-1.2-.1-1.8-.1-2.6-.1-2.8-.2-5.5-.2-8.2 0-.7.1-1.7.5-2s1.7-2.9.9-4.8a1.7 1.7 0 0 1-.3-1.1c1.2-1.9.3-3.6-.1-5.4a34.3 34.3 0 0 1-.4-5.6 1.6 1.6 0 0 1 .4-1.2c1.8-1.4 1.2-3.2.7-5s-.3-1.1-.6-2.2zm-.4 93.6a2.7 2.7 0 0 0-.2 1.4c0 .2.2.4.4.6s.3-.4.3-.6-.3-.7-.5-1.4zm.7-32.2l-.5-.4a1.9 1.9 0 0 0-.2.7c0 .1.3.2.4.3zm-.7 28.7v.3h.2z"></path><path d="M124.4 593.1a12.4 12.4 0 0 1 1.4 5.9c.2 5.2.4 10.4.5 15.6a6.9 6.9 0 0 0 1.1 4.5c-.4 1.4-.8 2.8-1.1 4.2a2.5 2.5 0 0 0 1 2.9c1.3.9 1 2.9.6 4s-.3 3.7-.8 5.4a5.3 5.3 0 0 0 .2 2.5 1.5 1.5 0 0 1-.1 1.6c-1.2 1.8-.6 3.9.1 5.3a11.2 11.2 0 0 1 1 5 7.4 7.4 0 0 0 0 2.1c.5 1.9-.2 3.4-1.2 4.9a24 24 0 0 1 1.1 2.3c.2.5.6 1 .5 1.5-.2 5 .6 10.1-1.2 15 .4 1.2.9 2.4 1.2 3.7s.5 2.9-1 3.7-.6.9-.6 1.5a9.6 9.6 0 0 0 .1 3.8 9.1 9.1 0 0 1-.1 5.9c-.4 1.6-.5 3.3.6 4.6s1.4 4 1 6.1a10 10 0 0 0-.1 4.2 3.2 3.2 0 0 1-.7 3.2c-1.1 1.2-1 1.4.4 2.7a1.5 1.5 0 0 1 .3 1.9l-.6.6c-1.3 1.3-1.3 1.3-.5 3a3.3 3.3 0 0 1 .3 2.8c-.7 1.7.5 3.6-.1 5.5a8 8 0 0 0-.3 5.1 34.3 34.3 0 0 1 .6 3.4c.1.5.4 1.2.2 1.6-1.1 2.6-.2 5.5-.9 8.1a4.9 4.9 0 0 0 .3 2.9 22.2 22.2 0 0 0 1.1 3 19.4 19.4 0 0 0-.5 11.7 54.4 54.4 0 0 1 .8 14.5c-1 .4-1.4-.2-1.5-.9s-.8-4.5-1.1-6.8-.4-5.5-1-8.2a69.7 69.7 0 0 1-1-12.1l-.9-20c-.2-4.6-.3-9.2-.3-13.9-.2-8.3-.2-16.5-.4-24.8 0-3.3-.5-6.7.3-9.9a2.7 2.7 0 0 0 0-.9c-1-9.8-.6-19.7-.7-29.6-.1-12.5-.1-24.9 0-37.4.1-5.8.6-11.6 1-17.4 0-1.1.5-2.2 1-4.3zm3.2 87.7a1.4 1.4 0 0 0-.2-.6h-.3a1.4 1.4 0 0 1 .2.6zm-.5-14.2z"></path><path d="M476.7 676.9c2.2-3.5 1-7 .9-10.4s-1.1-5.3-1.1-8-.1-4.9-.1-7.4 0-2.6.1-3.9a32.3 32.3 0 0 0-.4-10.3c-.2-.9-.4-1.6.3-2.4s-.2-1-.2-1.5c-.3-2.3-.7-4.5.3-6.8a7.4 7.4 0 0 0 .4-3.4c-.1-1.4-.2-2.9-.4-4.3a14.4 14.4 0 0 1 .4-5.4c.6.3 1.3.4 1.4.8a19.6 19.6 0 0 1 .9 4.2c.4 4 .9 8.1 1 12.1.1 6.5.8 13 1.1 19.5.4 8.3.3 16.6.4 24.9.1 5.3.4 10.7.3 16.1s-.8 10.9-1.2 16.4c-.5 8.1-1.1 16.2-1.5 24.4a66.2 66.2 0 0 1-.9 9.9 15.5 15.5 0 0 1-1.3 3.6c-.7 1.3-2.4 1.1-3-.4s-.9-2.8-.1-4.1a3.8 3.8 0 0 0 .1-4.1 3.3 3.3 0 0 1 0-3.6 4.8 4.8 0 0 0 .5-3.3c-.2-1.2-.9-2.6.6-3.4a14.9 14.9 0 0 0-.3-8.1 4.8 4.8 0 0 1 .1-3.7c1.3-3.3 1.5-6.9 1.9-10.4.1-.8.6-2.1-.7-2.6s-.4-.4-.3-.6l.6-9.5c2.1-2.9.9-6.5 1.4-9.7a5.6 5.6 0 0 0-1.2-4.6z"></path><path d="M118 728c-.1.9-.3 1.9-.5 3.1l1.6 3.1a20.2 20.2 0 0 0-1.1 3.2 2.6 2.6 0 0 0 .8 3c.6 1.7-.1 3.1-.6 4.6s-2.1 1.2-2.6.3a8.3 8.3 0 0 1-1.4-3 46.6 46.6 0 0 1-.8-6.4c-.5-8-.8-16-1.3-23.9-.4-5.8-1.2-11.6-1.5-17.4s-.1-10.1-.1-15.2.1-12.2.3-18.3.5-11 .7-16.5l.6-11.7a152.8 152.8 0 0 1 1.3-16.5 5.6 5.6 0 0 1 1.6-3.6c.3.7.7 1.1.7 1.6s.1 3.1.1 4.7-.5 5.5.2 8.2a5.7 5.7 0 0 1 0 2.6c-.1 1.7-.5 3.4.1 5.1a2.5 2.5 0 0 1 .1 1.7c-.7 2.4-.3 4.9-.3 7.3s-.9 2.9-.2 3.8.3 2.4.4 3.6-.2 2.9-.3 4.3.3 2.7.2 3.9a20.5 20.5 0 0 1-.7 5.6c-.9 2.4-.8 4.8-.9 7.2s.5 2.8.9 4.6a10.8 10.8 0 0 0-.7 7 16.2 16.2 0 0 1-.1 2.2c0 .7-.1 1.7.2 2.1 2 2.8 1.2 6 1.4 9.1.1 1.5.8 3.1-.6 4.3a30.9 30.9 0 0 0 .1 4.3c.6 2.9.7 6 1.7 8.8a4.8 4.8 0 0 1 0 2.9c-.6 1.6.4 3.3-.5 5.1s.2 2.2.5 3.3a6.4 6.4 0 0 0 .8 1.9z"></path><path d="M488 646.9a34 34 0 0 1 .8 4.6c.3 4.6.4 9.2.6 13.8s.3 11.6.4 17.4-.1 14.2-.1 21.3c0 3.3 0 6.6.1 9.9s-.2 4.4-1.6 6-1.7.1-2.9-1.1l.9-.8c.1-2.4.2-4.6.3-6.7s-.1-2-.1-3a11.1 11.1 0 0 1 .1-2.6 9.7 9.7 0 0 0 .1-3.8 59.1 59.1 0 0 1-.1-9.4 11.7 11.7 0 0 0-.7-6.4 9.3 9.3 0 0 1-.2-2.9 9.9 9.9 0 0 1 .3-3c1.1-4.1.5-8.4 1.3-12.5a1.1 1.1 0 0 0 0-.8c-1-5.2-.2-10.4-.3-15.6a32.8 32.8 0 0 1 .4-4.3z"></path><path d="M106.1 717.8l1 1.1c-.6 1.3-1.5 1.3-2.6 1.2a7.1 7.1 0 0 1-1.9-5.7c.1-6.9.4-13.7.1-20.5s.1-14.5.1-21.7.5-13.9.8-20.8a16 16 0 0 1 1.3-5.1 20.3 20.3 0 0 1 .6 4.2c-.3 5.2 1 10.4-.2 15.6a2.5 2.5 0 0 0-.1.8c.8 5.4.3 11 1.7 16.3.2.7.4 1.8.1 2.1-1.7 2-1.2 4.4-1.1 6.6a104.8 104.8 0 0 1-.1 11.2c-.2 2.7.1 5.4.1 8.1s.2 4.4.2 6.6z"></path><path d="M364.7 713.1l.3 5.6a20.1 20.1 0 0 1-.3-5.5z"></path></g></g></g></g></svg>