<svg xmlns="http://www.w3.org/2000/svg" width="1080" height="853.5" viewBox="-0.000013470649719238281 -0.02452281303703785 1080 853.5245361328125" style=""><g><defs><linearGradient id="a" data-name="Áåçûìÿííûé ãðàäèåíò 35" x1="347.76" y1="184.61" x2="439.98" y2="480.26" gradientUnits="userSpaceOnUse"><stop offset=".01" stop-color="#ffcb0e"></stop><stop offset=".99" stop-color="#ff98ac"></stop></linearGradient></defs><g data-name="Layer 2"><path d="M207.7 752.1l-33.2 101.4 58.6-20.8 20.4-31.3.8 24.3 168.6-75s-44.2-47.6-101.4-38.6-113.8 40-113.8 40z" fill="#000347"></path><path d="M651.9 588l10 60s54.4 15.5 62.9 70.9l-175.4-34.7 7.6-41.6-24.3 39.1-53-10.2 25.2-105.2z" fill="#000347"></path><path d="M695.9 312.9c-18.3-34.2-3.2-76.3 11.5-116.1-1.6-5.3-8.3-8.9-14.2-8.5s-13.3 4.9-19.3 8.5c-34.1 20.5-80.2 23.1-112.6.1s-49.9-68.9-88.9-77.5l-3-2.2c-37.1-2.8-72.8 30.9-72 68 .5 26.8 16.7 50.5 33.7 71.2a620.7 620.7 0 0 0 66.7 69.9c20.9 18.7 44.4 36.5 72 41.3 24.4 4.3 49.3-2.2 73.1-9s50.4-15.1 73.8-26.7c-10.1-6-17.7-14.3-20.8-19z" fill="#ff4d8c"></path><path d="M217.1 268.4c-3.4 44.3-26.8 85.3-58.1 116.9S88.8 439.9 49.2 460c-14.8 7.5-31.3 16.3-36.2 32.2l25 6.9a226 226 0 0 0-38 61.1c13.2 3.6 28.4-4.8 32.6-17.8a40 40 0 0 0-10.1 26.3 28.8 28.8 0 0 0 28.7-12.5 38 38 0 0 0-8.5 31.1c9.5 3.8 21.7-2.3 24.5-12.2a32.1 32.1 0 0 0 1.2 23.8c23.8 5.3 39.9-22.3 53.2-42.7 17.3-26.8 40.7-32.9 66.7-49.8 53.4-34.8 109.3-96 132.4-155.9 3.1-8.2-19.7-35.3-21-44.1s-8.4-18.8-15.7-26.1c-18.4-18.1-49.3-31.5-68.9-14.7z" fill="#ff4d8c"></path><path d="M272.1 79a104.4 104.4 0 0 1-50.1-5.9c-4.2-1.6-8.3-3.6-11.1-7.2a13.5 13.5 0 0 1-1.6-14.1c2.5-5.1 7.9-7.4 12.8-9 24-7.7 49-9.1 72.1-3.9 3.9.9 8.1 2.2 10 5.9s1 10-.8 15a110.8 110.8 0 0 1-20.5 36c-2.8 3.4-7.4 6.7-10.2 4.2s2.6-13.3-.8-17.8z" fill="#000347"></path><path d="M321 173.9l-24.2-61.6-14.1 17.2s-35.3-37.6 2-70.3l74.5 67.2z" fill="#ff4d8c"></path><path d="M195 308.5s37.5-19.4 122.2 50.4c0 0-13.6 35.5-36 61.2 0 0 210.8-103.1 266.8-100.5 0 0-57.1-98.6-85.3-124 0 0 25.7-40 62.5-55.7 0 0-71.7-88.5-166-13.5 0 0-18.6 33.7-42.2 37.4 0 0-80.8-3.2-122 144.7z" fill="url(#a)"></path><path d="M207.7 752.1l73.5-332S477.1 308.9 548 319.6 709.3 362.9 651.9 588l-147-21.7 11.9-67.2c3.9-32.5-22.9-57.9-48.3-37.7-31.7 25.3-45.7 66.7-54.3 106.3l-33.3 153.6s-50.4-35.2-173.2 30.8z" fill="#a7aaad"></path><g fill="#939599"><path d="M652.7 382.3a1.4 1.4 0 0 1 0-1.1c-1-1.9-2-3.7-3.1-5.4a2.6 2.6 0 0 0-1.2 1.5 7.2 7.2 0 0 0-.1 3.3l.5 1.1c.8 1.5 4 3.5 6.1 3.9l-.4-.9a4.4 4.4 0 0 1-1.8-2.4z"></path><path d="M654.4 424.9c2.7-.5 7.4-5.6 7.5-7.9 0-.7-.5-1-1.1-1.2a6 6 0 0 0-6.2 1.5c-.5.5-.7 1.3-1.2 1.7s0-1.2-1-.8a5.5 5.5 0 0 0-2.8 4c0 1.2 1.2 2.3 3.1 2.6a3.4 3.4 0 0 0 1.7.1z"></path><path d="M612.2 379.9a3.5 3.5 0 0 0-1.9-1.5 2.4 2.4 0 0 1-1.2.7 3.3 3.3 0 0 1-1.7-.1 3.9 3.9 0 0 0-1.1 2.5c0 .1-.1.2-.1.3a1.3 1.3 0 0 1 .6.5c.8.7 1.2 1.8 2.6 1.8s.3.7.5 1-.2 1.9-1 2-1.7-.1-1.7-1-.6-1.2-1.5-1.5a1.9 1.9 0 0 1-.9-.3c-.9 1.9-.3 3.6 1.8 4.9s2.5.7 3.1-1 .7-2.4 2.3-2.9a2 2 0 0 0 .8-.4 13.1 13.1 0 0 0-.6-2.7 2.6 2.6 0 0 1 0-2.3z"></path><path d="M638.7 454.1c.3.2.8.4 1 0s1.3-.7 2-.4 2.2.5 3-.6c1.8-2.6.6-5.6-2.5-6a8.1 8.1 0 0 0-1.6 0c-2.1.4-3.4 1.1-3.7 2.8a4.6 4.6 0 0 0 1.8 4.2z"></path><path d="M619.4 370a3.5 3.5 0 0 0 4.1-1.4 3.1 3.1 0 0 0 .2-1.9 1.2 1.2 0 0 1-1.6.1.7.7 0 0 1-.2-1.2 1.3 1.3 0 0 1 1.4-.5 5.8 5.8 0 0 0-2.1-2.5c-1.4-.8-4.2.1-5.2 1.7a3.2 3.2 0 0 0 .1.8l1.3 1.4c.2-.2.4 0 .6.3a4.2 4.2 0 0 1 .4 1 1.6 1.6 0 0 0 1 2.2z"></path><path d="M601.6 411c.1.5-.4.6-.8.6a4.4 4.4 0 0 1-3.9-2.1 3.1 3.1 0 0 1 .5-3.5 3 3 0 0 0-.8.8 3.5 3.5 0 0 0-.6 2.6c0 .9 1 .7 1.5 1.2s.9.5.4 1.1a.5.5 0 0 0 .2.7c1.5.5 3 .8 4.3-.1s1.2-1.7 1-3l-.5.2c-.7.2-1.5.3-1.3 1.5z"></path><path d="M631.1 408c.9-1.2.8-2.8-.5-3.3a13.7 13.7 0 0 0-5.6-1.5c-.8 0-1.2.6-1.3 1.4a4.2 4.2 0 0 0 5.2 4.5 2.7 2.7 0 0 0 2.2-1.1z"></path><path d="M642 468.4a3.2 3.2 0 0 0 2.1-1c1-.9 2-1.8 1.8-3.2s-1.8-1.4-2.9-1.7c-3-.7-4.4.6-3.9 3.6s1.1 2.6 2.9 2.3z"></path><path d="M624.6 393.1c.4-1.1 0-1.9-1.4-2.5l-1.7-.6.3.6a1.9 1.9 0 0 1-1.6 1.9c-.9.1-1.4-.4-1.5-1.3a1.5 1.5 0 0 1 1.4-1.7h.3l-.6-.6c-.7-.8-1.7-1.6-2.8-1.1l-.5.5a3.5 3.5 0 0 0-.3 2.5v.5c.1 1 .4 1.6 1.5 1.5a6.4 6.4 0 0 1 4.2 1.2 1.8 1.8 0 0 0 2.7-.9z"></path><path d="M656.3 457.3l1.1.2c1.9.3 2.1.2 2.5-1.8a11.4 11.4 0 0 0 .1-4.1c-.1-.4-.1-.8-.2-1.2a1.8 1.8 0 0 0-2.2-1.1 1.2 1.2 0 0 0-1 1.7c.4 1.5-.4 2.3-1.2 3.3s-1.4 2.4.9 3z"></path><path d="M646.9 415.3a5.8 5.8 0 0 0-.1-2.9c.3-1.3-1.2-2.3-1.9-3.7s-1.3-.5-2 0-.6 1.6-1.1 2.3-.8 2.7 1 3.9l1.8 1.1a1.4 1.4 0 0 0 2.3-.7z"></path><path d="M569.5 365c.2-1.3.9-2.1 1.9-2.1h.7a20.7 20.7 0 0 0 1.9 2.5c.3-.5.6-1.1.2-1.6a10.3 10.3 0 0 0-2.8-2.7 2.4 2.4 0 0 0-2.8.1 4 4 0 0 0-1.1 4 3.2 3.2 0 0 0 1.9 1.5 12.1 12.1 0 0 1 .1-1.7z"></path><path d="M598.4 332.8c.2.2.3.4.6.5l.4.4a1.1 1.1 0 0 0 .1-.5h-.1a1.9 1.9 0 0 1-1-.4z"></path><path d="M578 330.6a1.6 1.6 0 0 1-.8-2.1 1.3 1.3 0 0 1 1.4-.7 4.8 4.8 0 0 0-.9-1.1 1.4 1.4 0 0 1-1.9.2 1.4 1.4 0 0 1-.7-1 1.5 1.5 0 0 0-.9.7c.2.2.4.4.4.6a1.7 1.7 0 0 1-.1 1.4 4 4 0 0 1-1.2 1.6c.4.7 1.2 1.1 2.6 1.3h.9c1.3.1 2-.1 2.2-.9a1.8 1.8 0 0 1-1 0z"></path><path d="M623.3 388c1.3.6 2.4 1.4 3.9 1.3s1.6-.7 1.4-2a21.9 21.9 0 0 0-1.3-2.7c-.1-.2-.5-.5-.7-.4s-2.7.6-3.5 2-.4 1.5.2 1.8z"></path><path d="M635.5 363.7a.1.1 0 0 0-.1.1c-.1.1-.2.3-.4.4l1.1.3a1.6 1.6 0 0 1-.6-.8z"></path><path d="M634.1 362.4a.8.8 0 0 1 1.1-.2c.1 0 .1-.1.1-.2a4 4 0 0 1 2.3-.4 3.6 3.6 0 0 1-.4-.9c-.3-.9-1-1.2-2-.8a3.3 3.3 0 0 0-2.5 1.3 1.2 1.2 0 0 0 .3 2l.8.3a1.7 1.7 0 0 1 .3-1.1z"></path><path d="M656.2 394.7c.7-.2.8-1.9 0-2.3s-1.8-1.4-2.9-1.9-1.2.2-1.7.7a1.5 1.5 0 0 0-.1 1.9 20.1 20.1 0 0 0 4.7 1.6z"></path><path d="M612.6 448a1.1 1.1 0 0 0 .7.3 1.5 1.5 0 0 0 1.1-1.9c-.3-.9-3.3-2.7-4.4-2.6l-.7.5a.5.5 0 0 0 .1.7c1.1 1.1 2.1 2.1 3.2 3z"></path><path d="M578.1 373.4a16.6 16.6 0 0 0 2.1.6 1.2 1.2 0 0 0 .1-.8 4.2 4.2 0 0 0-2.3-1.6 2.4 2.4 0 0 0-1.5 2.3c.1.1.1.2.1.4s.6-1.3 1.5-.9z"></path><path d="M654.6 470.9a2 2 0 0 0 1.1-2.6q-.5-1.5-2.4-.9c-.9.2-1.2 1-.9 2a2.1 2.1 0 0 0 2.2 1.5z"></path><path d="M591 346.4a1.9 1.9 0 0 0 1.6-2.4c-.2-.9-1-1-1.8-1s-2 1-1.9 1.8a1.8 1.8 0 0 0 2.1 1.6z"></path><path d="M662.5 405.9c-.5.2-1.1.4-1.2 1.1a2 2 0 0 0 .8 2.1 4.3 4.3 0 0 0 1.6.5l-1-3.7z"></path><path d="M605.2 398.7a1.7 1.7 0 0 1 .1-2 1.5 1.5 0 0 0-1.6-.6c-1.1 0-2.2 1.2-1.9 2.1a1.7 1.7 0 0 0 2 1.3 1.6 1.6 0 0 0 1.4-.8z"></path><path d="M597.7 402.3a2.1 2.1 0 0 0 1.5-2.2 2 2 0 0 0-2.2-1.5 2 2 0 0 0-1.4 2.3 2.2 2.2 0 0 0 2.1 1.4z"></path><path d="M596.9 375.5c-.1-.2-.1-.4-.2-.5a11.8 11.8 0 0 1-.4 2 1.4 1.4 0 0 0 .6-1.5z"></path><path d="M618.6 453c.3.8 1 1.1 1.6 1.6s.8.4 1 0a.8.8 0 0 0 .2-.8 2 2 0 0 0-2.5-1.3z"></path><path d="M610.1 347.7l.4-.2c-.5 0-.8-.2-.8-.6s.3-.9.8-1h.2a1.4 1.4 0 0 0-1.3-.7c-.8 0-.8.7-.7 1.3s.2 1.1.7 1.3z"></path><path d="M628.7 361.9a6.7 6.7 0 0 0-.6 1.2c.4-.5.8-1 .6-1.2z"></path><path d="M666.1 429.6a1 1 0 0 0 .8-1.1 1.4 1.4 0 0 0-1.7-1.1.7.7 0 0 0-.6.9 1.3 1.3 0 0 0 1.5 1.3z"></path><path d="M584.9 368.3c-.1-.7-.5-.9-1.2-.8s-1.3.4-1.2 1 .7.8 1.3.9a1 1 0 0 0 1.1-1.1z"></path><path d="M667 442.9a.8.8 0 0 0-.9.9c0 .9.6 1 1.4 1.1s.9-.4.7-1a1.2 1.2 0 0 0-1.2-1z"></path><path d="M590.5 366.5c.4-.2.6-.6.4-.9s-.7-1.3-1.5-1a.9.9 0 0 0-.5 1c.2.8.8 1 1.6.9z"></path><path d="M601.8 339l-.6-.2a1.5 1.5 0 0 1-1 1.2.8.8 0 0 0 .4.4h.1z"></path><path d="M644.2 424.6a.9.9 0 0 0 .8-1.1 1.3 1.3 0 0 0-1.5-1.1.9.9 0 0 0-.5 1.2c.2.6.4 1.2 1.2 1z"></path><path d="M585.9 356c.6-1.2 1.8-.5 2.8-.5h1a2.3 2.3 0 0 0-.2-1.8 1.2 1.2 0 0 1-1-.1 1.7 1.7 0 0 1-1-1.9h.1c-.1-.1-.2-.3-.4-.3s-.1-.5.2-.6.5-.2.6-.4a2.6 2.6 0 0 0-1-2.6 2.5 2.5 0 0 0-2.7-.6 3.8 3.8 0 0 0-1.9 2.2l.8.4h.4a1.1 1.1 0 0 1 1.2.8c.3.9 1.2 1.4 1.4 2.4s-.1 1.6-1 1.5l-1.3-.2a2.3 2.3 0 0 1-1.1 1.1c.1 2.2 1.3 3.3 3.4 2.9a2.1 2.1 0 0 1-.3-2.3z"></path><path d="M617 387.8a2.2 2.2 0 0 0 .8-2c-.5-1.4.1-2.2.8-3.3s.5-2.8-1.1-3.6a4.5 4.5 0 0 0-2.9-.6 3.4 3.4 0 0 0-2.4 1.6 2.6 2.6 0 0 0 0 2.3 13.1 13.1 0 0 1 .6 2.7c0 .2.1.4.1.7a4.9 4.9 0 0 0 .5 1.6 2.4 2.4 0 0 0 2.4 1.4l.7-.3zm-2.1-6.4a1.7 1.7 0 0 1 2.3-.2 1.5 1.5 0 0 1 .5 2.2c-.6.5-1.3 1.2-2.3.6a1.8 1.8 0 0 1-.5-2.6zm.5 5.8a.8.8 0 0 1 .2-1.2 1.2 1.2 0 0 1 1.5 0 .8.8 0 0 1 .1 1.2c-.6.4-1.2.7-1.8 0z"></path><path d="M609.1 379.1a2.4 2.4 0 0 0 1.2-.7 2.7 2.7 0 0 0 .7-1.3 1.6 1.6 0 0 1-.4-1.5l.2-.3c-.5-1.7-1.9-2.8-3.3-2.5a3.1 3.1 0 0 0-2.4 2.3 1.2 1.2 0 0 1 1.7 0 .9.9 0 0 1 0 1.3 1.3 1.3 0 0 1-1.8.1 3.1 3.1 0 0 0 2.4 2.5 3.3 3.3 0 0 0 1.7.1z"></path><path d="M574.5 328.6a1.7 1.7 0 0 0 .1-1.4c0-.2-.2-.4-.4-.6a4.3 4.3 0 0 0-2.6-1.2 3.1 3.1 0 0 0-2 2.9 1.5 1.5 0 0 1 .1.7c.1.1.1.2.1.4l.2-.3c.8-1 1.5-1 2.4.1a2.5 2.5 0 0 1 .8 1h.1a4 4 0 0 0 1.2-1.6z"></path><path d="M600 367.8a3.2 3.2 0 0 1 .6 1.5.9.9 0 0 1 1.1-.3 1.7 1.7 0 0 0-.3-1.9 2.3 2.3 0 0 1-1.4.7z"></path><path d="M597.8 366.4a3.6 3.6 0 0 1-.2-1.1 2 2 0 0 0-.7 1 .4.4 0 0 1-.1.3 2 2 0 0 1 1-.2z"></path><path d="M564.8 332.7a1.8 1.8 0 0 0-1.7-.9c-1.4.1-2 .6-2.1 2.2a6.1 6.1 0 0 1-.3 1.3 1.1 1.1 0 0 1 1-.1c.3.3.7.6.6 1.2s-.6.5-1 .3c.9.5 1.8-.2 2.7-.6s1.7-.9 1.3-2-.1-.1-.1-.2a1.1 1.1 0 0 1-.4-1.2z"></path><path d="M652.7 382.3a4.4 4.4 0 0 0 1.8 2.4l-1.8-3.5a1.4 1.4 0 0 0 0 1.1z"></path><path d="M615.9 353.1c.9-.5 2-.6 2.7-1.6s.5-1.4-.1-1.7-2.1-1.4-3.2-1.1-.8 1.1-.9 1.8l1.1 1a1.8 1.8 0 0 1 .4 1.6z"></path><path d="M607.2 386.1c0 .9.9 1.1 1.7 1s1.2-1.1 1-2-.1-.9-.5-1-1.8-1.1-2.6-1.8a1.3 1.3 0 0 0-.6-.5c-.5-.3-.9-.1-1.4.5s-.6 1.6 0 2a1.9 1.9 0 0 0 .9.3c.9.3 1.4.4 1.5 1.5z"></path><path d="M591.3 330.7h.7c.3-.2.6-.2.7-.4l-1.6-.6v.2a1.4 1.4 0 0 1 .2.8z"></path><path d="M646.7 383.6a.8.8 0 0 1 .7 0 1.8 1.8 0 0 0-.1-1 4.3 4.3 0 0 0-.1-.5c-.1-1-.9-1.3-1.7-1.4s-1 .7-1.1 1.4a2.3 2.3 0 0 1 1.1.3 1.8 1.8 0 0 1 1.2 1.2z"></path><path d="M618.7 391.2c.1.9.6 1.4 1.5 1.3a1.9 1.9 0 0 0 1.6-1.9l-.3-.6a2.2 2.2 0 0 0-1.1-.5h-.3a1.5 1.5 0 0 0-1.4 1.7z"></path><path d="M653.2 413a1.6 1.6 0 0 0-1.3 1.6c-.1.8 1.1 1.6 2 1.3s1.2-.7 1.1-1.3-1-1.8-1.8-1.6z"></path><path d="M589.5 362.1c-.1-.1-.1-.1-.1-.2a1.1 1.1 0 0 0-.6 1.2c0 .7.9 1.3 1.8 1.2a1.8 1.8 0 0 0 1.3-1.2l-.5.2a2 2 0 0 1-1.9-1.2z"></path><path d="M581.3 362.9a1 1 0 0 0 .9-1.1 1.2 1.2 0 0 0-1.4-.6c-.5.1-.5.5-.5.8s.4 1 1 .9z"></path><path d="M641 380.4a1.2 1.2 0 0 0-.7 1.4.7.7 0 0 0 .9.5c.7-.2.8-.7.6-1.3s-.5-.8-.8-.6z"></path><path d="M609.7 346.9c0 .4.3.6.8.6h.2a.8.8 0 0 0 .7-1 .7.7 0 0 0-.7-.6h-.2c-.5.1-1 .4-.8 1z"></path><path d="M615.2 403.7a2.4 2.4 0 0 0 1 .5c.2.1.6 0 .4-.3l-.4-.5h-.1a3.2 3.2 0 0 1-.9.3z"></path><path d="M566.1 324.5a2.1 2.1 0 0 1 .9-1.5l-7.1-1.4-.4.5c-1.3 1.7-1.5 3.9-.5 5.1s2.9 1.1 4.5.6l1.1-.4c.3-.2.2-.7-.1-.7s-.6-.6-.3-1 1.7-.4 1.9-1.2zm-6.4.7c-.6-.2-1.2-.4-.9-1.2s.6-.7 1-.5.6.9.8 1.3-.6.6-.9.4z"></path><path d="M558.1 375.3a3.8 3.8 0 0 1-1.7 1.2 4.8 4.8 0 0 0 1.4 2 5.1 5.1 0 0 0 6.8-1c1.6-2.2 1.3-4.2-.9-5.8a5.2 5.2 0 0 0-6.1-.4 3.6 3.6 0 0 1 .7 1 2.4 2.4 0 0 1-.2 3z"></path><path d="M616.1 365.1c-1.9-1.5-4-1.4-6.2 1.2l-.4.5c-1.1 1.7-1.1 4 0 5.1a6 6 0 0 0 2.8 1.3c1.2.2 1.7-.7 2.5-1.3s1.2-.5 1.8-.9a2.7 2.7 0 0 0 .9-4.2c0-.1-.1-.2-.1-.3z"></path><path d="M601.2 338.8c0-.2.1-.3.1-.5a5.2 5.2 0 0 0-1.9-4.6l-.4-.4c-.3-.1-.4-.3-.6-.5-.2 0-.3-.2-.4-.3l-4.6-1.8c-.1.9-.5 1.8.2 2.5h.3a4.5 4.5 0 0 1 2.5 2.4 2.2 2.2 0 0 1-.2 2.8l-1.2.9.2.2a12.4 12.4 0 0 0 4.5.5h.5a1.5 1.5 0 0 0 1-1.2z"></path><path d="M569.9 342.7c.2.3.5.6.9.4h.8a2.3 2.3 0 0 1 .3-1.1l.5-.5c-.4-.9-1.6-1.1-2.3-1.6s-1.6-.7-2.7.9a8 8 0 0 0-.8 1.6l1.1-.2a2.3 2.3 0 0 1 2.2.5z"></path><path d="M566.6 350.8a2.4 2.4 0 0 0 1.5.4l1-.2-.2-.4z"></path><path d="M596.2 386.4c.5 0 1.2.2 1 .7s.3.9.9.8l1.7-.3c3.4-.1 3.7-.6 1.9-3.6a12.7 12.7 0 0 0-1.3-1.9c-2-1.9-4.8-2-6.1-.1l-.3.5c-.7 1.2-.3 2.4.2 3.6s1.3.1 2 .3z"></path><path d="M614 351.9a15 15 0 0 1-3.4 3.7.7.7 0 0 1-1.1 0l-1.5-.8.2.5a1.2 1.2 0 0 0 1.3.9 11.9 11.9 0 0 0 4.2-.3 3.6 3.6 0 0 0 2.2-2.8 1.8 1.8 0 0 0-.4-1.6l-1.1-1a.1.1 0 0 1-.1-.1 2.1 2.1 0 0 1-.3 1.5z"></path><path d="M544.1 345.3a3.1 3.1 0 0 0 .5 1.2c1.8 2.1 4.1 2 5.8-.4s1.4-3.4.7-4.5-2.8-1.6-4.6-1.1c-.3.1-.9.3-.7.6s.1 1.2-.5 1.5h-.1a1.3 1.3 0 0 1 .3 1.1 1.7 1.7 0 0 1-1.4 1.6z"></path><path d="M541.5 323.7l4.3-.7a3.7 3.7 0 0 0-1.3-1.5h-.3c-.6 1.3-1.3.5-2 .1a2.1 2.1 0 0 0-3 .6 3.4 3.4 0 0 0 .4 4.7 2.5 2.5 0 0 1 1.9-3.2z"></path><path d="M632.7 372.3a3.2 3.2 0 0 0 3.1-2.4 10.3 10.3 0 0 0 .2-3.5c-.1-.9-.3-1.9-1.4-1.8s-2.5-.5-3.7 1.2a24.6 24.6 0 0 0-.9 3.1c-.2 1 1.7 3.3 2.7 3.4z"></path><path d="M589.3 372.1a2.4 2.4 0 0 1 1.4.5h.2a6.1 6.1 0 0 1 3.6-3.6h.6a2.9 2.9 0 0 0-1.8-2.9c-.8-.2-1.9-.7-2.5.6s-1.1 1.2-1.9 1.5a2.2 2.2 0 0 0-1.1 2.9 1.9 1.9 0 0 0 .4.9z"></path><path d="M523.2 349.2c1.2-.9 1.1-2.2 1-3.4a2 2 0 0 0-1.9-1.9 2.8 2.8 0 0 0-3 1.2 7 7 0 0 0-1.3 3.2c-.1.8.2 1.6 1.1 1.7a5 5 0 0 0 4.1-.8z"></path><path d="M629 376.7a2.3 2.3 0 0 0-3.3.2 4.6 4.6 0 0 0-1.1 2.6c-.2 2.3.5 3.6 2.8 2.5l1.1-.4c2.5-1.1 2.7-3.2.5-4.9z"></path><path d="M583.9 354.2l-1.2-.2c-.6-.4-1-.6-.9-1.2a16.2 16.2 0 0 1 .3-2 1.4 1.4 0 0 1 1.1-1l-.8-.4-1.3-.5c-1.3-.4-2 .1-1.8 1.3a12 12 0 0 0 .3 2h.2c.7.5 1.9.8 1.5 2a6.7 6.7 0 0 1-.6 1.2l.4.2a2.5 2.5 0 0 0 1.7-.4 2.3 2.3 0 0 0 1.1-1z"></path><path d="M628.7 359.9c-.6-1.2-2-.8-3.1-.9a2.6 2.6 0 0 0-2.7 2.1 3.9 3.9 0 0 0 1.5 3.3 3.6 3.6 0 0 0 3.6-1.3h.1a6.7 6.7 0 0 1 .6-1.2 2.1 2.1 0 0 0 0-2z"></path><path d="M573.7 368.2a12.2 12.2 0 0 1-3.3-.1.5.5 0 0 1-.4-.2 1.5 1.5 0 0 0 .1.7 9.7 9.7 0 0 0 1.1 1.5c2.4 1.6 3.3 1.4 4.4-1.3l.3-.5c.4-1.2-.1-1.9-1.4-2.2h-.2a1.7 1.7 0 0 1 .3 1 .9.9 0 0 1-.9 1.1z"></path><path d="M645.9 384a1.2 1.2 0 0 1 .8-.4 1.8 1.8 0 0 0-1.2-1.2 2.3 2.3 0 0 0-1.1-.3h-2a.8.8 0 0 0-.8.7 5.5 5.5 0 0 0 .2 3.6c.3.7.9.8 1.7.6a2.1 2.1 0 0 0 1-.6 5.2 5.2 0 0 1 1.4-2.4z"></path><path d="M535.3 359.4a1.7 1.7 0 0 1-2.2-1.1 2 2 0 0 0-.9-.6h-.3a7.7 7.7 0 0 1 .2 1.5 1 1 0 0 0 1.1 1.1 12.7 12.7 0 0 0 2.8-.3c1-.2 1.2-.9.9-1.8a3.8 3.8 0 0 1-1.6 1.2z"></path><path d="M521.2 321.4l.2-.2c-1.4-.1-2.1-.3-2.4-.8l-1.3.2h.1c1.1.4 2.3 1.8 3.4.8z"></path><path d="M605.2 398.7a.1.1 0 0 0 .1.1c1.1 1.2 2.5 0 3.8-.2s.8-.7.7-1.3a6.5 6.5 0 0 0-.4-2c-.2-.6-.6-1.3-1.3-1.4s-1.4.4-1.7 1.1l-.3.5-.8 1.2a1.7 1.7 0 0 0-.1 2z"></path><path d="M526.3 332.8c.8-1.4-.8-2.2-1.4-3.2a1.4 1.4 0 0 0-2.2-.3l-1.4 1.1c-1.2 1.7-.8 2.7 1 2.9l.8.2c1.1.1 2.6.4 3.2-.7z"></path><path d="M552.6 391.3a1.7 1.7 0 0 1 1 0l.6.4a1.2 1.2 0 0 1-.2-1 3.7 3.7 0 0 1 1-2.3 1.1 1.1 0 0 0-1.7.3l-1 1.1a1.1 1.1 0 0 1 .3 1.5z"></path><path d="M551.6 392.2z"></path><path d="M597.8 366.4a1.9 1.9 0 0 1 1 .5 3.8 3.8 0 0 1 1.2.9 2.3 2.3 0 0 0 1.4-.7c.2-.1.3-.3.4-.4a2.3 2.3 0 0 0 .1-3.1.1.1 0 0 0-.1-.1 9 9 0 0 1-2 1.9c-.5.3-1.2.5-1.3-.4s-.3-.7-.5-.7a4.2 4.2 0 0 0-.4 1 3.6 3.6 0 0 0 .2 1.1z"></path><path d="M636.8 378.3a2.4 2.4 0 0 1 .6 1.1 1.8 1.8 0 0 0 .7-.5c.5-.7.1-1.7-1.1-2.7a1.4 1.4 0 0 0-2.2 0 2.1 2.1 0 0 0 0 2.3l1.2-.5z"></path><path d="M617.7 383.4a1.5 1.5 0 0 0-.5-2.2 1.7 1.7 0 0 0-2.3.2 1.8 1.8 0 0 0 .5 2.6c1 .6 1.7-.1 2.3-.6z"></path><path d="M635.3 362c0 .1 0 .2-.1.2h.1a.9.9 0 0 1 .2 1.4 1.6 1.6 0 0 0 .6.8 1.4 1.4 0 0 0 2.1-.2 2 2 0 0 0-.4-2.6h-.2a4 4 0 0 0-2.3.4z"></path><path d="M567.7 338.4a2 2 0 0 0-.4-2.7c-.8-.5-1.5 0-2.1.6s-.3 1.8.5 2.4a1.3 1.3 0 0 0 2-.3z"></path><path d="M549.5 378.6a1.7 1.7 0 0 0 .5 2.4c1 .6 1.7.1 2.3-.6s0-1.7-.6-2.3a1.6 1.6 0 0 0-2.2.5z"></path><path d="M620.1 401a1.7 1.7 0 0 0 2.2-.7 1.5 1.5 0 0 0-.6-2.2 1.5 1.5 0 0 0-2.2.3 2.1 2.1 0 0 0 .6 2.6z"></path><path d="M511.3 349.4a1.8 1.8 0 0 0-2.8-2.1 2 2 0 0 0 .5 2.4c.3.4 1.9.1 2.3-.3z"></path><path d="M575.8 326.9a1.4 1.4 0 0 0 1.9-.2v-.2a2.6 2.6 0 0 0 .3-.8l-3-.8a1.7 1.7 0 0 0 0 1 1.4 1.4 0 0 0 .8 1z"></path><path d="M550.5 329.6a1.7 1.7 0 0 1-1.2.4l.6.6a1.7 1.7 0 0 0 2.2-.7 1.5 1.5 0 0 0-.6-2 1.1 1.1 0 0 0-.7-.3 1.9 1.9 0 0 1-.3 2z"></path><path d="M579.2 384.3a2 2 0 0 0 .1 2.5 1.7 1.7 0 0 0 2.1-.2c.7-.5.5-1.7-.1-2.3a1.7 1.7 0 0 0-2.1 0z"></path><path d="M508 358.8a2.1 2.1 0 0 1 1.7-.2 3.5 3.5 0 0 0-.6-.9 4.1 4.1 0 0 1-1.3.8z"></path><path d="M515.5 366a1.8 1.8 0 0 0-.5-.7c-.4-.4-1-.9-1.5-.5s0 1.1.3 1.5l.4.5c.5-.5.9-.8 1.3-.8z"></path><path d="M631.2 424.2a3.6 3.6 0 0 0 2.5.1c.4-.2.3-.5.3-.7a1.6 1.6 0 0 0-1.5-1.2c-.5 0-1.1 0-1.4.7s-.6.9.1 1.1z"></path><path d="M627.2 419.3a1.1 1.1 0 0 0 .1 1.5c.7.7 1.4.1 1.8-.2a.9.9 0 0 0-.1-1.3c-.5-.3-1.3-.6-1.8 0z"></path><path d="M500.5 336a.9.9 0 0 0-.5-1.2c-.7-.5-1.2-.1-1.6.6s0 .7.5 1 1.2.4 1.6-.4z"></path><path d="M530.8 342.4l-.2-.3a.9.9 0 0 0-1.3.3 1.2 1.2 0 0 0 .3 1.7c.4.2.7.2.9-.2s.2-.3.2-.4a1.4 1.4 0 0 1 .1-1.1z"></path><path d="M527.4 345.6c.3-.2.4-.6 0-1a1.5 1.5 0 0 0-1.8 0 .9.9 0 0 0 0 1.3 1.4 1.4 0 0 0 1.8-.3z"></path><path d="M535.5 387.8l.3.2a.8.8 0 0 0 1-.2 1 1 0 0 0-.5-1.2c-.1-.1-.4 0-.7.1a4.5 4.5 0 0 1-.1 1.1z"></path><path d="M600.8 344.3a3.2 3.2 0 0 0 4.6-.2 6.7 6.7 0 0 1 2.8-1.9 6.1 6.1 0 0 0 3.1-3.2c-2.2-1.3-4.5-2.4-6.7-3.5h-.1l-1.4 2-1.3 1.5-1.1 1.3h-.1c-.8 1.5-.8 3.2.2 4z"></path><path d="M568.9 350.6a5.7 5.7 0 0 1-.4-1.4c-.3-1.3.1-1.6 1.5-1.7a1.3 1.3 0 0 0 1.1-.5c.2-.4-.4-1.2.6-1.1l1.3.2a4.6 4.6 0 0 1-1.4-3.1h-.8c-.4.2-.7-.1-.9-.4a2.3 2.3 0 0 0-2.2-.6l-1.1.2-.6.2a2.5 2.5 0 0 1 .4 1.6 7.8 7.8 0 0 0 .4 2.2c.4 1.9.4 1.9-1.4 2.7a5.4 5.4 0 0 1-2.1.5.8.8 0 0 0 .4.4l1 .5a3.6 3.6 0 0 0 1.9.4z"></path><path d="M595.1 380a7 7 0 0 0 1.2-3 11.8 11.8 0 0 0 .4-2 17.1 17.1 0 0 0 0-3.2 2.6 2.6 0 0 1-.8-1.9 1.7 1.7 0 0 0-.1-.7.8.8 0 0 0-.7-.2h-.6a6.1 6.1 0 0 0-3.6 3.6 1.7 1.7 0 0 0 1.7.3h.7a1.5 1.5 0 0 1 1.2 1.7c-.1.9-.9.9-1.6.9s-.6 0-.7-.2-1-.7-1.5-.6a4.1 4.1 0 0 1 .1 1.1c-.3 1.3-.8-.8-1.3.1a5.3 5.3 0 0 0 .3 4.6c.7 1 2.3 1.1 4 .2a5.6 5.6 0 0 0 1.3-.7z"></path><path d="M538.1 372.4l-1.2-.7a4.3 4.3 0 0 0-3.5-.4c1.3 1.6 1.9 7.1.7 9.1l-.4.4a4.2 4.2 0 0 0 3.5 1c1.7-.2 2.3-1.1 1.7-2.7s-.9-2.3 0-3.6.2-2.2-.8-3.1z"></path><path d="M543.4 329.4c.9-.3 1.5-.8 2.5.2a2 2 0 0 0 2.2-.1 1.8 1.8 0 0 1 0-1.9 2 2 0 0 1 1.2-.8 4.4 4.4 0 0 0-1.4-2.9 2.4 2.4 0 0 0-2-.9h-.1l-4.3.7a2.5 2.5 0 0 0-1.9 3.2c0 .1.1.2.1.4a3.7 3.7 0 0 0 .5 1.1h.1a3 3 0 0 1 .8.8 2.6 2.6 0 0 0 2.3.2zm.8-4.8a2.1 2.1 0 0 1 2.2-.6 1.7 1.7 0 0 1 .8 2.2c-.5.7-1.1 1.4-2.1 1a2 2 0 0 1-.9-2.6z"></path><path d="M604.8 407.3c-.2-3.2-2.9-4.7-5.6-3.1l-1.1 1-.7.8a3.1 3.1 0 0 0-.5 3.5 4.4 4.4 0 0 0 3.9 2.1c.4 0 .9-.1.8-.6s.6-1.3 1.3-1.5l.5-.2c1.1-.4 1.5-.9 1.4-2z"></path><path d="M598.4 332.8a1.9 1.9 0 0 0 1 .3l-1.4-.6c.1.1.2.3.4.3z"></path><path d="M593.7 362.3z"></path><path d="M598.5 365c.1.9.8.7 1.3.4a9 9 0 0 0 2-1.9h.1a2.2 2.2 0 0 0-.1-3.1l-.6-.7-.2.3a2.3 2.3 0 0 1-2.7.8c-.7-.1-1.2-1.3-1-2.3h-1.1a.7.7 0 0 1-.8.8h-.5a4.7 4.7 0 0 0-.8 1.9 3.2 3.2 0 0 1-.3.9l.7 1.2c.7 1.1 1.5 2 3 1h.5c.2 0 .4.2.5.7z"></path><path d="M584.3 330.2a1 1 0 0 1-.5.4h.2c.5-.1.6.2.7.5a1.5 1.5 0 0 0 1.2 1.1c.8.2.3-.6.5-.9s.5-.1.7 0a4.6 4.6 0 0 1 1.5 3.4 4.1 4.1 0 0 0 2.6-2.8 1.7 1.7 0 0 0 .1-1.2 1.4 1.4 0 0 0-.2-.7 1.5 1.5 0 0 1-.6.9c-.7.4-1.3 0-2.3-.7l-.5-.3c-.6-.4-.9-.9-.7-1.5l-2-.6-.7.5a1.8 1.8 0 0 1 0 1.9z"></path><path d="M537.5 355.8c-.3-1.8-3.1-3.5-5.3-3.1s-3.2 2.6-3 4.4a5.5 5.5 0 0 0 2.7 1.7c-.1-.1-.1-.3-.2-.5s0-.6.2-.6h.3a2 2 0 0 1 .9.6 1.7 1.7 0 0 0 2.2 1.1 3.8 3.8 0 0 0 1.6-1.2 3 3 0 0 0 .6-2.4zm-.9 2.3a1.7 1.7 0 0 1-2 .5 1.5 1.5 0 0 1-1.2-1.9 1.6 1.6 0 0 1 2-.6 2.1 2.1 0 0 1 1.2 2z"></path><path d="M541.5 400.8c2-1.8 4.7-.9 5.3 1.8a2.2 2.2 0 0 1 .1.8 3.8 3.8 0 0 0 1.1-1.6c.4-1.2-.2-2.2-1.5-3.2a5.1 5.1 0 0 0-3.5-.9 3.2 3.2 0 0 0-2.8 3.5 3.6 3.6 0 0 0 .2 1c.1-.1.2-.2.2-.3z"></path><path d="M564.8 378.9a14.3 14.3 0 0 0-5.2 2.3 1.2 1.2 0 0 0-.1 1.8 4.1 4.1 0 0 0 6.7.4 2.7 2.7 0 0 0 .9-2.3c0-1.4-1-2.5-2.3-2.2z"></path><path d="M570 329.1l-.2.3a6.7 6.7 0 0 0-.9 1.4c-.5 1-.9 1.8-2.2.8a1.2 1.2 0 0 0-1.7.6c-.1.2-.2.3-.2.5a1.1 1.1 0 0 0 .4 1.3c0 .1.1.1.1.2a1.5 1.5 0 0 0 1.7.1 1.3 1.3 0 0 0 .7-.5c.5-1.2 1.2-.7 1.9-.4a4.7 4.7 0 0 0 2.7 1c1 0 1.9-.7 1.6-1.6s-.4-1.7-.7-2.6a2.5 2.5 0 0 0-.8-1c-.9-1.1-1.6-1.1-2.4-.1z"></path><path d="M612 420.5a4.2 4.2 0 0 0 1-2c.2-1.3.5-2.6-.6-3.5s-2.3 0-3.2.4c-2.7 1.3-3 3.1-.8 5.1s2.4 1.3 3.6 0z"></path><path d="M552 373v-.4h-1.3c-1.2.3-2.3 1.1-3.7.8s-2.3-.2-2.8.9.5 1.9 1.2 2.8l.3.3c.7.7 1.3.9 2.1.3a6.1 6.1 0 0 1 3.9-1.7 1.7 1.7 0 0 0 1.6-2.1 1.7 1.7 0 0 0-1.1-.2 2.9 2.9 0 0 1-.2-.7z"></path><path d="M617.9 400a10.8 10.8 0 0 0-2.4-3.2l-.9-.7a1.6 1.6 0 0 0-2.3.4 1.2 1.2 0 0 0 .3 2c1.2.8 1.1 1.9 1 3.2s.3 2.4 1.6 2a3.2 3.2 0 0 0 .9-.3h.1l.9-.5c1.6-.9 1.7-1.1.8-2.9z"></path><path d="M583.5 377.2c-.2-.8-.8-1.3-1.7-2.2a2.3 2.3 0 0 0-1.6-1 16.6 16.6 0 0 1-2.1-.6c-.9-.4-1.2.2-1.5.9v.2c-.3 1 .5 1.6.7 2.5a3.1 3.1 0 0 0 .9 2v-.2a5.5 5.5 0 0 1 .9-2.9c.5-.7 1.1-.6 1.8-.5s1.6 2.2 1.7 3.7a1.3 1.3 0 0 0 .9-1.9z"></path><path d="M496.4 384.9a7.2 7.2 0 0 0-2.3 2.3c0 .1 0 .2-.1.2a4.1 4.1 0 0 0 2.8-1.1 6.5 6.5 0 0 0 1.2-2.8v-.4a6.9 6.9 0 0 1-1.6 1.8z"></path><path d="M494.2 347.8c.4.7 1.2.7 1.9.9h.3l-.2-.2c-.3-.3-.5-.7-.1-1.1a1.2 1.2 0 0 1 1.6-.1.8.8 0 0 1 .1 1.1l-.6.4c1.5.1 2-.8 1.7-2.8a7.6 7.6 0 0 0-1.1-2.6 1.6 1.6 0 0 0-1.4-.9 3.8 3.8 0 0 0-3.2 2.2c-.5.9-.2 2 1 3.1z"></path><path d="M479.6 352.6l-.6-.5c-1.2-.7-3.3-.5-4 .4s-.5 2.9.2 3.8 2 1.1 3.7.2l.7-.5c1.7-1.2 1.7-2 0-3.4z"></path><path d="M505.9 333.2a3.1 3.1 0 0 1-2 .9l-.3 1.2c-.1 1-.3 2.2.7 2.9s2.2-.4 3.2-.7.8-.6 1.1-.8 1-1.7.2-2.7a3.6 3.6 0 0 0-2.8-1.6c0 .1.1.2.1.3a1.7 1.7 0 0 1-.2.5z"></path><path d="M649.1 388.7a.4.4 0 0 0 .1-.3c.3-1.7-.6-3.1-1.2-4.7h-.6a.8.8 0 0 0-.7 0 1.2 1.2 0 0 0-.8.4 5.2 5.2 0 0 0-1.4 2.5 1.1 1.1 0 0 0-.1.5c-.3 1.5 1.5 1.5 2.4 1.9s1.6.6 2.3-.3z"></path><path d="M547.9 369.4c.1.8.6 1.4 1.3 1.3s2.6-.4 3.7-1.4a1.4 1.4 0 0 0-.1-2.3l-.7-.4a.8.8 0 0 1-.5.5c-.7.5-1.4.1-2.5-.6s0 0-.1-.1-1.3 1.8-1.1 3z"></path><path d="M637.2 380.9a1.6 1.6 0 0 0 .2-1.5 2.4 2.4 0 0 0-.6-1.1l-.8-.3-1.2.5a6.5 6.5 0 0 0-2.8 2.1.7.7 0 0 0 0 1 5.2 5.2 0 0 0 3.7 1.4c1.4.2 1-1.3 1.5-2.1z"></path><path d="M543.7 343.4a4.1 4.1 0 0 1-1.5 2.3h.4a4 4 0 0 0 1.5-.3 1.7 1.7 0 0 0 1.4-1.5 1.3 1.3 0 0 0-.3-1.1l-1.3-.7a2.4 2.4 0 0 1-.2 1.3z"></path><path d="M577.1 354.1h-.3c-1.1.3-2.2.1-3.3.3s-.8 1-.9 1.6.5 1.2 1.1 1.5a21.1 21.1 0 0 0 3.8-1.3 7.1 7.1 0 0 1-.4-2.1z"></path><path d="M572.6 422c-.1.3.2.4.5.5l4.2.3.7-.2a1.5 1.5 0 0 0-.2-2.1c-.9-.5-4.2 0-5 .7a1.9 1.9 0 0 0-.2.8z"></path><path d="M504.8 385.7c-.1.1-.2.2-.2.3l.9-.6c-.3.1-.6.1-.7.3z"></path><path d="M623.1 414.8a1.9 1.9 0 0 0-.7-2.7c-.9-.5-1.6-.3-2.4.7a1.5 1.5 0 0 0 .5 2.2 2.2 2.2 0 0 0 2.6-.2z"></path><path d="M499.1 355.8c-.6-.5-1.3-.2-1.9.3a2 2 0 0 0-.4 2.6 1.9 1.9 0 0 0 2.6-.1 1.6 1.6 0 0 0 .4-1.6c0-.2-.1-.3-.1-.5s-.3-.5-.6-.7z"></path><path d="M593.7 362.2z"></path><path d="M591.6 360.1c-.7-.1-1.3-.2-1.8.5s-.6.8-.4 1.3 0 .1.1.2a2 2 0 0 0 1.9 1.2l.5-.2a7.6 7.6 0 0 0 1.8-.9c-.6-.8-.8-1.9-2.1-2.1z"></path><path d="M539 391.5a1.5 1.5 0 0 0 2.3-.3c.8-.7.7-1.8-.3-2.8s-1.3-.3-1.9.3-.9 2.3-.1 2.8z"></path><path d="M538.3 397.1a2.1 2.1 0 0 0-.1-2.6 1.8 1.8 0 1 0-2.3 2.7 2.1 2.1 0 0 0 2.4-.1z"></path><path d="M522 378.4a1.2 1.2 0 0 0-.6-1.2 1.7 1.7 0 0 0-2.3 0c0 .1-.1.2-.1.3s2.2-.1 2.7.7z"></path><path d="M494.9 340.7c1 .8 1.5 0 2-.4s.6-1.6-.1-2.1a1.7 1.7 0 0 0-2.4 0c-.7.5-.4 1.8.5 2.5z"></path><path d="M488.4 348.4a.6.6 0 0 0-.1.4c0-.1.1-.3.1-.4z"></path><path d="M587.1 423.2c.4 0 .8-.2.8-.6a1.2 1.2 0 0 0-.4-.8 2 2 0 0 0-2.7.6 4.3 4.3 0 0 1 .1.5 4.2 4.2 0 0 0 2.2.3z"></path><path d="M512.9 348c.5.4 1 1 1.7.3a1 1 0 0 0 0-1.5 1.3 1.3 0 0 0-2-.2c-.6.5-.1 1 .3 1.4z"></path><path d="M535.7 348.9a.9.9 0 0 0 .3.6.9.9 0 0 0 1.3.1c.4-.3.5-1.8.2-2h-.1a2.5 2.5 0 0 1-1.7 1.3z"></path><path d="M621.9 365.6a.7.7 0 0 0 .2 1.2 1.2 1.2 0 0 0 1.6-.1h.2a.9.9 0 0 0-.2-1.3l-.4-.2a1.3 1.3 0 0 0-1.4.4z"></path><path d="M606.8 376.4a.9.9 0 0 0 0-1.3 1.2 1.2 0 0 0-1.7 0l-.3.2a.7.7 0 0 0 .1 1c0 .1.1.1.1.2a1.3 1.3 0 0 0 1.8-.1z"></path><path d="M507.8 380.4c.6-.4.7-.9.3-1.4a.9.9 0 0 0-1.5.1 1 1 0 0 0-.3 1.5c.4.5 1 .2 1.5-.2z"></path><path d="M635.4 363.8a.1.1 0 0 1 .1-.1.9.9 0 0 0-.2-1.4h-.1a.8.8 0 0 0-1.1.2 1.7 1.7 0 0 0-.3 1.1c0 .2.2.4.4.6a.8.8 0 0 0 .8.1c.2-.2.3-.4.4-.5z"></path><path d="M561.1 336.7c-.4-.2-.9-.5-.6-1.1a.2.2 0 0 1 .2-.2h-.7a.9.9 0 0 1-.5 1.2h-.3v.2c.5.8 1.1.6 1.8.2l.2-.2h-.2z"></path><path d="M617.1 386a1.2 1.2 0 0 0-1.5 0 .8.8 0 0 0-.2 1.2c.6.7 1.2.4 1.8 0a.8.8 0 0 0-.1-1.2z"></path><path d="M511.2 374.2a.8.8 0 0 0-.2-1c-.6-.3-1.4-.5-1.8.3a.8.8 0 0 0 .2 1 1.2 1.2 0 0 0 1.8-.3z"></path><path d="M502.2 346.9a.7.7 0 0 0 0 1c.6.6 1.2.3 1.8 0a.8.8 0 0 0-.1-1 1.1 1.1 0 0 0-1.7 0z"></path><path d="M585.7 385.9c.4.3 1 .6 1.5 0a.9.9 0 0 0 0-1.3 1.5 1.5 0 0 0-1.9 0 .9.9 0 0 0 .4 1.3z"></path><path d="M628.1 352.5a1.4 1.4 0 0 0-.3-1.8.9.9 0 0 0-1.2.3c-.5.6-.2 1 .3 1.4h.1c.4.4.8.6 1.1.1z"></path><path d="M598.3 360.7a2.3 2.3 0 0 0 2.7-.8l.2-.3a8.9 8.9 0 0 0 1.6-2.2c.8-1.2.5-1.9-.8-2.6s-1.6.2-1.8-.2 0-1.5-.2-2.2-1.5-1.6-2.4-2.2-.8 1.4-1.3.1-1.2-1-2-.7a3.6 3.6 0 0 0-2.4 2.9c-.1 1 1 1.7 1.8 2.3a8.3 8.3 0 0 0 2.2.8l2.2.4c.7 0 .7.4.4.8l-1 .8a1.9 1.9 0 0 0-.2.8c-.2 1 .3 2.2 1 2.3z"></path><path d="M539.9 345.3c-1.1-1.2-1.7-3.3-1-4.5a1.6 1.6 0 0 0 .8-1.8 4.5 4.5 0 0 0-1.1-.3 2.8 2.8 0 0 0-3.3 1.6 11.3 11.3 0 0 0-.9 2 4.7 4.7 0 0 0-.6.9c0 .2 0 .3-.1.4l-.4.4-.6 1.1a2.7 2.7 0 0 0 .7 3.4 3.9 3.9 0 0 0 2.3.4 2.5 2.5 0 0 0 1.7-1.3h.1a4.8 4.8 0 0 1 2-2z"></path><path d="M507.8 358.5a4.1 4.1 0 0 0 1.3-.8l.4-.4a3.5 3.5 0 0 0 .2-3.7c-.3-.5-.5-1.1-1-1.4a1.2 1.2 0 0 1-.1 1.3 1.7 1.7 0 0 1-2.5.6 1.8 1.8 0 0 1-.5-2l.3-.4a2.9 2.9 0 0 0-1.6.1 9.1 9.1 0 0 0-4.4 3.3 1.4 1.4 0 0 0-.2 1.4c0 .2.1.3.1.5s.2.2.2.3a7.3 7.3 0 0 0 2 1.9l1 .3a8 8 0 0 0 4.8-1z"></path><path d="M533.4 371.3a.3.3 0 0 0-.1-.2c-.5-.5-1-.3-1.5-.1a5.4 5.4 0 0 0-2.5 5 9.4 9.4 0 0 1 .4 1.6c0 1.2-.8-.6-1.1.3s.1 3.3 1 4 2.2.5 3.5-.5l.6-.6.4-.4c1.2-2 .6-7.5-.7-9.1z"></path><path d="M484 391.1c1.5-.5 1.9-1.3 1.1-2.6s-1.1-1.9-.5-3.1-.2-1.9-1.2-2.6l-1.2-.4c-1.3-.4-2.8-.5-3.7.8a2.7 2.7 0 0 0 .3 3.7 2 2 0 0 1 .6 1.3c.6 2.6 2.2 3.6 4.6 2.9z"></path><path d="M608 354.8l1.5.8a.7.7 0 0 0 1.1 0 15 15 0 0 0 3.4-3.7 2.1 2.1 0 0 0 .3-1.5 2.6 2.6 0 0 0-.8-1.3 5.4 5.4 0 0 0-3.4-1.4h-.7a4.8 4.8 0 0 0-3.4 1.8 1 1 0 0 0-.2.9c.2 1.9.1 3.8 2.2 4.4z"></path><path d="M566.8 346.3a7.8 7.8 0 0 1-.4-2.2 2.5 2.5 0 0 0-.4-1.6 2.2 2.2 0 0 0-2.6-.5 3.3 3.3 0 0 0-2.1 2.1c-.6 1-.9 1.4-1.2 2s-.1 2.9 1.8 3.3a2.3 2.3 0 0 0 1.4.1 5.4 5.4 0 0 0 2.1-.5c1.8-.8 1.8-.8 1.4-2.7z"></path><path d="M484.3 339.1a2.3 2.3 0 0 0-1.9-.5 23.5 23.5 0 0 0-3.7 1.4 2.1 2.1 0 0 0-1 3.3c.8 1.6 2 2.2 3.5 1.3a2.8 2.8 0 0 1 1.4-.6c-.4-.7-1.1-1.6-.2-2.2a4.6 4.6 0 0 1 3.1-1.3 2.8 2.8 0 0 0-1.2-1.4z"></path><path d="M545.5 404.8c.9-.4 1.3-.8 1.4-1.4a2.2 2.2 0 0 0-.1-.8c-.6-2.7-3.3-3.6-5.3-1.8l-.9 1.1c0 .1-.1.2-.2.3s-.9 2.6-.1 3.6a3.7 3.7 0 0 0 3.7 1.2c.4-.1.8-.3.6-.7s.3-1.2.9-1.5z"></path><path d="M529.5 338.9c.8.2 1.9.1 1.9-.7s.5-1.2 1.3-1.4a2.5 2.5 0 0 0 1.5-1.5c.7-1.1 1.3-2.2.5-3.4s-2.6-1.4-3.7-1.1h.6a1.7 1.7 0 0 1 .8 2.3 1.4 1.4 0 0 1-2 .7 1.7 1.7 0 0 1-1.1-1.3v.7c0 1.3.4 2.5-.7 3.6s.1 1.9.9 2.1z"></path><path d="M533.8 366.5c.3-.3.7-.3.9.4s.8.4 1.2.1a7.5 7.5 0 0 0 1.5-2 2.1 2.1 0 0 0-.6-2.8 4.3 4.3 0 0 0-4.5-.8c-1.6.4-1.9 1.5-2 2.9a2.9 2.9 0 0 1-.2.9l.9.9c.8.9 1.6 1.5 2.8.4z"></path><path d="M501.1 328.6l-.4 1a2.1 2.1 0 0 1 .3 2.3c-.1.2-.3.3-.4.4a2.4 2.4 0 0 0 1.7 1.7 2.9 2.9 0 0 0 1.6.1 3.1 3.1 0 0 0 2-.9 1.7 1.7 0 0 0 .2-.5c0-.1-.1-.2-.1-.3s-.8-2 .7-2.7 0-.3-.1-.4a5.6 5.6 0 0 0-.5-.8h-.2a1.2 1.2 0 0 1-.8-1l-1.3-.5a2.8 2.8 0 0 0-2.7 1.6z"></path><path d="M519.4 337.9c-.5.7-.1.9.8 1.1s.1 1.1-.1 1.6a3 3 0 0 1-.7 1.1l.8.6a1.2 1.2 0 0 0 .8-.1c1.4-.4 1.9-1.6 2.2-2.9a2.3 2.3 0 0 0-1.2-2.3 5.8 5.8 0 0 0-2.6-.9c.5.4.7 1 0 1.8z"></path><path d="M476 371a1.9 1.9 0 0 1 .8.3 1.5 1.5 0 0 0 2.1.6 3 3 0 0 0 1.4-3.5c-.6-1.5-3.3-2.5-5.2-1.8a3.8 3.8 0 0 0-1.8 4.2 4.9 4.9 0 0 0 2.5 1.2c-.1-.1-.1-.3-.2-.4s0-.7.4-.6z"></path><path d="M573.3 346.4l-.3-.3-1.3-.2c-1-.1-.4.7-.6 1.1a1.3 1.3 0 0 1-1.1.5c-1.4.1-1.8.4-1.5 1.7a5.7 5.7 0 0 0 .4 1.4l.2.4a2.6 2.6 0 0 0 1.5 1.2c1.3.4 2.3-.2 3.3-1l.8-.9c.7-1.2.8-2.2.2-3a6.5 6.5 0 0 1-1.6-.9z"></path><path d="M494.7 406.2a7.9 7.9 0 0 1-1.6 2.3c-.4.4-1.1.7-1.3-.1s-.7-.7-1-.3l-.6.4a6 6 0 0 0 .8.8c.6.5 1.1-.2 1.7-.3s.8-.3.9.4a.4.4 0 0 0 .6.2 4 4 0 0 0 2.4-2.8c.1-1.1-.6-1.9-1.8-2.5a2.8 2.8 0 0 1-.1 1.9z"></path><path d="M596.4 335.7a4.5 4.5 0 0 0-2.5-2.4h-.3a2 2 0 0 0-2.5 1.2 3.8 3.8 0 0 0-.4 1.9 5.6 5.6 0 0 0 .1.7c1.6-.1 1.3 1.2 1.6 2s.4.3.6.4a2.3 2.3 0 0 0 2 0l1.2-.9a2.2 2.2 0 0 0 .2-2.9z"></path><path d="M509.5 387.9a2.3 2.3 0 0 0 .5-2.1c-.3-1.2-1.4-2-2.4-1.5l-2.1 1.1-.9.6a11.4 11.4 0 0 0-1.1 1.1 1 1 0 0 0 .1 1.6 3.6 3.6 0 0 0 5.9-.8z"></path><path d="M560 335.3c-.3-.5-.9-.8-.3-1.5s.3-2.4-.4-3.6-2.2-1.9-3.5.1a3.1 3.1 0 0 0-.5 3c.2.7.6 1.4 1.3 1.3s1.7.3 1.9 1.4a.7.7 0 0 0 .7.6h.3a.9.9 0 0 0 .5-1.3z"></path><path d="M507.1 344.4c.9-.1 1.5-.9 1.1-1.6s-.7-2.3-1.8-3-1.5-.7-2.1.3l-.6 1.3a.7.7 0 0 1 .1.5c-.2 2.3-1.5 3.2-3.5 2.3a1.2 1.2 0 0 0 .6 1 1.1 1.1 0 0 0 1.6-.1c.2-.1.5-.3.5-.5s1-.8 1.6-.6a5.3 5.3 0 0 0 2.5.4z"></path><path d="M551.7 412.3a3 3 0 0 1 1.6.5 2.4 2.4 0 0 0 1.6.5l.3-.3a4.6 4.6 0 0 0 .5-2c0-1.1 0-2.3-1.1-2.9s-1.9.4-2.7.9-1.9 2.2-1.2 3.3a1.7 1.7 0 0 1 1 0z"></path><path d="M490 382.5a1.7 1.7 0 0 0-1 1 1.1 1.1 0 0 0 .1.8 6.7 6.7 0 0 1 .6-1.2z"></path><path d="M554.2 391.7l-.6-.4a1.7 1.7 0 0 0-1 0 2.2 2.2 0 0 1-1 .9 1.1 1.1 0 0 0 .6 1.6c1.2.5 1.3 1.5 1.4 2.6s.8 2.2 2.4 1.1l.9-.6c1.2-1 1.2-1.3.2-2.7l-.8-.9h-.3a6.8 6.8 0 0 1-1.8-1.6z"></path><path d="M592.2 375.5c.1.2.5.2.7.2s1.5 0 1.6-.9a1.5 1.5 0 0 0-1.2-1.7h-.7a1.7 1.7 0 0 1-1.7-.3h-.2a2.4 2.4 0 0 0-1.4-.5h-1.1c-1.2.1-2.2.5-2.3 1.1s1 2 1.8 2.8 1.1.6 1.6.1a2.4 2.4 0 0 1 1.4-1.1c.5-.4.9-.2 1.5.3z"></path><path d="M522.4 380.2a3.1 3.1 0 0 1 1.3-.3h-.1a3.8 3.8 0 0 0-1.6-1.4l-.3-.2c-.5-.8-1.6-.6-2.7-.7h-.7c-1-.3-1.1.5-1.2 1.2s.7 1.3.9 2 1.1 1.9 2.2 1.7a4.1 4.1 0 0 1 2.2-2.3z"></path><path d="M540.3 328.5h-.1c-2.1-1.1-3.8-.3-4.1 2s.5 2.3 2.1 2.6a4.1 4.1 0 0 0 2.2-.2c1.6-.4 2-1 1.4-2.5a6.1 6.1 0 0 0-.7-1 3 3 0 0 0-.8-.9z"></path><path d="M446.1 397.9a2 2 0 0 0-1.6 1.8 3.6 3.6 0 0 0 2 3.1 3.4 3.4 0 0 0 3.2-1.5 4.4 4.4 0 0 0 .5-2.6c0-.5-.2-1-.9-1a8.5 8.5 0 0 0-3.2.2z"></path><path d="M441.3 368.3c.5.5 1.2.4 1.9.5s2.6-.7 1.9-2.8a4.6 4.6 0 0 0-1.3-2.1 1.3 1.3 0 0 0-1.4-.5 3.3 3.3 0 0 0-2.4 2.3 2.3 2.3 0 0 0 1.3 2.6z"></path><path d="M596.7 371.8a.5.5 0 0 0 .4.2h.5a3.4 3.4 0 0 0 2.8-1.6.9.9 0 0 1 0-1l.2-.2a3.2 3.2 0 0 0-.6-1.5 3.8 3.8 0 0 0-1.2-.9 1.9 1.9 0 0 0-1-.5 2 2 0 0 0-1 .2l-.3.2a2.4 2.4 0 0 0-.7 2.4 1.7 1.7 0 0 1 .1.7 2.6 2.6 0 0 0 .8 2z"></path><path d="M425.4 375.4c-.5.8 0 2.6.8 3.3s1.9.6 3.2-.5l.6-.5c1.3-1.3 1.2-1.9-.6-3l-.6-.3a3.2 3.2 0 0 0-3.4 1z"></path><path d="M452.1 356.4c.4-.9.6-1.6-.2-2.3s-2.2-1.4-2.9-.9a2.7 2.7 0 0 0-1.4 2.8c0 .9.1 2 1.1 2.4s1.8-.7 2.6-1.1a2.3 2.3 0 0 0 .8-.9z"></path><path d="M583.8 330.6a1 1 0 0 0 .5-.4 1.8 1.8 0 0 0 0-1.9l-.6-.9-3-.9-.3.4a3.6 3.6 0 0 1-.4.9c-.1.3-.1.6-.2.8a1.5 1.5 0 0 1 .2 1.4 1.9 1.9 0 0 0 .8.7 2.9 2.9 0 0 0 2.3.2z"></path><path d="M418.9 353c-.6.2-1.1.5-.8 1.3a3.9 3.9 0 0 0 2.3 2.8c1.3.4 2-1 2.7-1.5s.7-2.4-.2-2.5-2.6-.5-4-.1z"></path><path d="M578.9 375.9a5.5 5.5 0 0 0-.9 2.9v.2c.1 1.1 1.5.8 2.3 1.1s1.6.3 2-.6v-.3c-.1-1.5-1-2.5-1.7-3.7s-1.2-.3-1.7.4z"></path><path d="M587.7 329.9l.5.3c1 .7 1.6 1.1 2.3.7a1.5 1.5 0 0 0 .6-.9v-.2l-4.1-1.4c-.2.6.1 1.1.7 1.5z"></path><path d="M495.1 377.4l.7.2a1.2 1.2 0 0 0-.5-1.8l-2.5-.8c-.2 0-.7.1-.7.3s-1.1 2.1-.7 3.4.1.3.2.5a3.2 3.2 0 0 1 3.5-1.8z"></path><path d="M582.1 350.8a16.2 16.2 0 0 0-.3 2c-.1.6.3.8.9 1.2l1.2.2 1.3.2c.9.1 1.2-.6 1-1.5s-1.1-1.5-1.4-2.4a1.1 1.1 0 0 0-1.2-.8h-.4a1.4 1.4 0 0 0-1.1 1.1z"></path><path d="M569.8 376.7c1.3-.1.7-1.4 1-2.1a1.8 1.8 0 0 0-.7-2.2c-.3 0-.6-.2-.7-.1a7.3 7.3 0 0 0-3.2 2.8 1.2 1.2 0 0 0 .2 1 5.1 5.1 0 0 0 3.4.6z"></path><path d="M482.2 359.3l.9-.5c1.1-.3 2.3-.8 2.2-2.1s-1.5-1.1-2.4-1.5-1.3-.1-1.7.8a3.4 3.4 0 0 0-.5 2.3c.1.8.6 1.3 1.5 1z"></path><path d="M515.6 362.1c.3-.5-.8-1.6-1.4-1.3s-2 .4-2.9.8-.6 1-.5 1.5.6 1 1.2 1.1a13.1 13.1 0 0 0 3.6-2.1z"></path><path d="M526 420.1a1.5 1.5 0 0 0-.6-1.8c-.8-.2-3.7.7-4.2 1.4a1.7 1.7 0 0 0-.1.7c0 .3.3.4.5.4l3.8-.4c.2 0 .4-.2.6-.3z"></path><path d="M456.9 401.4h-.1l.3.4a1.7 1.7 0 0 0 2.3-.4v-.2a4.5 4.5 0 0 1-2.5.2z"></path><path d="M562.9 406.9a1.4 1.4 0 0 0 1-.6 1.6 1.6 0 0 0-1-2.2c-.9-.4-1.5-.1-2 1a.9.9 0 0 0-.1.7 2.1 2.1 0 0 1 1.2.5 2.8 2.8 0 0 1 .9.6z"></path><path d="M446.9 374.5c-.7-.4-1.2 0-1.6.6a1.7 1.7 0 0 0 .1 2.3 1.6 1.6 0 0 0 2.1-.5 1.6 1.6 0 0 0-.6-2.4z"></path><path d="M548.1 327.6a1.8 1.8 0 0 0 0 1.9c0 .1.1.1.1.2s.7.2 1.1.3a1.7 1.7 0 0 0 1.2-.4 1.9 1.9 0 0 0 .3-2 1.2 1.2 0 0 0-.5-.5 1.9 1.9 0 0 0-1-.3 2 2 0 0 0-1.2.8z"></path><path d="M530.1 365.2h-.1a.1.1 0 0 1 .1.1z"></path><path d="M528.2 366.5a5.9 5.9 0 0 0 1.8-1.3c-.6-.6-.9-1.6-2-1.5s-1.2 0-1.5.7a1.1 1.1 0 0 0-.1 1.4 1.9 1.9 0 0 0 1.8.7z"></path><path d="M550.9 324.5c.9.5 2.1.3 2.3-.4a2.4 2.4 0 0 0-.8-2.2 2.1 2.1 0 0 0-2.2.7c-.4 1 .2 1.5.7 1.9z"></path><path d="M619.1 351.7a1.5 1.5 0 0 0 .6 2.1 1.9 1.9 0 0 0 2.2-.6 2 2 0 0 0-.8-2.1 1.5 1.5 0 0 0-2 .6z"></path><path d="M486.8 396.8a1.8 1.8 0 0 0 .3 2.5 1.6 1.6 0 0 0 2-.6c.6-.8.4-1.8-.7-2.5a1.2 1.2 0 0 0-1.6.6z"></path><path d="M588.5 353.7a1.2 1.2 0 0 0 1 .1 1.8 1.8 0 0 0 1.2-.9c.3-.6.1-1.2-.7-1.6a1.9 1.9 0 0 0-2.4.4h-.1a1.7 1.7 0 0 0 1 2z"></path><path d="M487.6 403.3a1.6 1.6 0 0 0-.7-1.3 1.6 1.6 0 0 0-2.2.5 1.7 1.7 0 0 0 .7 2.2 1.6 1.6 0 0 0 1.6-.1 3.1 3.1 0 0 1 .6-1.3z"></path><path d="M517.9 329.1a1.6 1.6 0 0 0-.3-2.3 1.5 1.5 0 0 0-2 .5 1.6 1.6 0 0 0 .7 2.2c.7.3 1.3.3 1.6-.4z"></path><path d="M468.4 392.1c.6.4 1.4 0 1.8-.8s.1-1.3-.6-1.7a1.2 1.2 0 0 0-1.9.4 1.6 1.6 0 0 0 .7 2.1z"></path><path d="M442.1 359.6a1 1 0 0 1 .6.5c-.1-.3-.3-.4-.6-.6a1.7 1.7 0 0 0-2.1.4 1.9 1.9 0 0 0-.2.7l.2-.3c.5-.7 1.2-1.2 2.1-.7z"></path><path d="M436.3 370.4c.3-.7-.3-2.1-.9-2.2s-1.3-.3-1.6.6-.2 1.9.5 2.1a2.3 2.3 0 0 0 2-.5z"></path><path d="M611 377.1l.2.3c.6.2 1.8-.6 2-1.4a.9.9 0 0 0-.5-1.3 1.5 1.5 0 0 0-1.9.6l-.2.3a1.6 1.6 0 0 0 .4 1.5z"></path><path d="M531.8 418.9a.8.8 0 0 0 .2.4 2.8 2.8 0 0 0 2-.1.5.5 0 0 0 .5-.6.7.7 0 0 0-.4-.6 1.8 1.8 0 0 0-2.3.9z"></path><path d="M459.1 365.5a.8.8 0 0 0-.2-1.3c-.6-.4-1.3-.5-1.7.1s0 .9.4 1.3 1 .6 1.5-.1z"></path><path d="M479.1 363.1c.3-.4.1-1.7-.2-1.8a.9.9 0 0 0-1.1.5 1.1 1.1 0 0 0 .1 1.5 1 1 0 0 0 1.2-.2z"></path><path d="M555.1 363.7a.7.7 0 0 0 .4 1 1.1 1.1 0 0 0 1.4-.3 3.5 3.5 0 0 1-.5-1.3c-.5-.2-.9.1-1.3.6z"></path><path d="M542 375.7a1.1 1.1 0 0 0 1.7-.3c.3-.3.1-.7-.2-1.1a1.3 1.3 0 0 0-1.7.5.7.7 0 0 0 .2.9z"></path><path d="M457.4 393.2z"></path><path d="M566.6 360a.9.9 0 0 0-.3-1.3.8.8 0 0 0-1.1.3c-.2.6-.3 1.2.4 1.5s.8-.1 1-.5z"></path><path d="M486.5 334.3a1.2 1.2 0 0 0-.3-1.6c-.4-.4-.7.1-.9.4s-.8.8-.2 1.3a1.2 1.2 0 0 0 1.4-.1z"></path><path d="M497.7 347.3a1.2 1.2 0 0 0-1.6.1c-.4.4-.2.8.1 1.1l.2.2a.8.8 0 0 0 .8.1l.6-.4a.8.8 0 0 0-.1-1.1z"></path><path d="M552.8 382.4a.7.7 0 0 0 .1 1.1c.6.5 1 .2 1.5-.2s.2-.9-.2-1.1a1.2 1.2 0 0 0-1.4.2z"></path><path d="M458.4 388.3a.7.7 0 0 0 .4.8c.6.4 1.1 0 1.5-.5a.6.6 0 0 0-.4-.8c-.6-.2-1.2-.3-1.5.5z"></path><path d="M449.7 366c-.6-.3-1.2-.3-1.5.3a.6.6 0 0 0 .1.9c.6.4 1.1 0 1.6-.3s.1-.7-.2-.9z"></path><path d="M527.9 385.6a1.4 1.4 0 0 0-1.5.3 1.1 1.1 0 0 1 0 .8l.4.3c.5.2 1 .4 1.3-.2h.1a1 1 0 0 0-.3-1.2z"></path><path d="M558.5 351.4a1.3 1.3 0 0 0-.6-1.5.7.7 0 0 0-1 .4.8.8 0 0 0 .5 1.2c.4.2.9.4 1.1-.1z"></path><path d="M559.8 323.5c-.4-.2-.8.1-1 .5s.3 1 .9 1.2.6.1.9-.4-.1-1-.8-1.3z"></path><path d="M626 352.5c-.3.3-.1.8.1 1.1s.8.6 1.5.1a4.7 4.7 0 0 0-.3-.9l-.3-.3h-.1c-.3-.2-.6-.3-.9 0z"></path><path d="M382.4 373.3c1.1-.5 2.2-.1 3.3 0a3.1 3.1 0 0 0 3.2-1.7 4.3 4.3 0 0 0 .4-1.9 4.5 4.5 0 0 1 0-2.3 2.5 2.5 0 0 0-.1-2.1l-11.7 5.4a2.9 2.9 0 0 0 1.1 1.6c.2.1.5.2.5.1s1.4-.1 1.9.3.8.9 1.4.6z"></path><path d="M566.1 395.8c.7-1.4.4-2.1-1-2.9s-1.8.3-2.1-.1 0-1.6-.3-2.4-1.6-1.8-2.6-2.4-.8 1.6-1.4.2-1.4-1.1-2.3-.7a4.2 4.2 0 0 0-1.4.9 3.7 3.7 0 0 0-1 2.3 1.2 1.2 0 0 0 .2 1 6.8 6.8 0 0 0 1.8 1.5h.3a4.8 4.8 0 0 0 2.1.7l2.5.4c.7 0 .7.3.4.8s-.8.6-1 1-.1 3.2.9 3.4a2.7 2.7 0 0 0 3-1.1c.5-.9 1.4-1.6 1.9-2.6z"></path><path d="M495.8 377.6l-.7-.2a3.2 3.2 0 0 0-3.5 1.8h-.1c-.3.8-.7 1.6-.9 2.2l-.6 1-.3.6a6.7 6.7 0 0 0-.6 1.2c-.1.1-.2.2-.2.3a2.9 2.9 0 0 0 .9 3.7 3 3 0 0 0 4.2-.9c.1 0 .1-.1.1-.2a7.2 7.2 0 0 1 2.3-2.3 6.9 6.9 0 0 0 1.6-1.8 6.4 6.4 0 0 0 .7-2.7c.1-1.1-1.3-2.3-2.9-2.7z"></path><path d="M453.5 399.1a5.8 5.8 0 0 0 2.3 2l1 .3h.1a4.5 4.5 0 0 0 2.5-.2c1.9-.4 3.8-1.4 4.5-2.5a3.8 3.8 0 0 0 0-4c-.5-.9-1.1-2.3-2.7-1.4s-.7 0-1-.3a2.2 2.2 0 0 0-2.2 0h-.6a11.5 11.5 0 0 0-4.1 3.5 2.1 2.1 0 0 0 .2 2.6z"></path><path d="M426.9 351.5c.3.8.3.8 1.3.1a.9.9 0 0 1 1.3.6 2.2 2.2 0 0 0 2 2c.4 0 .8.7 1.2 1.1s1.5 1 2.8 0a9.3 9.3 0 0 0 1.5-1.3c1.1-1.4 1.1-2.2-.2-3.4s-3-2.5-4.2-3.5l-.6-.3-5.7 2.4a5.8 5.8 0 0 0 .4 1.8z"></path><path d="M402.8 369c-.1-1.3.1-2.6-.8-3.7s-1.5-1.4-2.6-.8l-4.9 2.7-1.1 1a27 27 0 0 0-.8 4.1c-.2 1.9 1.4 2.9 3.1 2a4.5 4.5 0 0 0 2.1-2.2c.2-.4.7-1 1.1-.7s.9.6 1.3-.2a2.8 2.8 0 0 1 1.7-1.3c.4-.1 1-.3.9-.9z"></path><path d="M490.5 424.4a5.7 5.7 0 0 0 1.1-1.2c1.2-2.2.3-8.7-1.3-10.1s-1-.3-1.5 0a5.9 5.9 0 0 0-2.6 5.5 12.1 12.1 0 0 1 .5 1.8c0 1.2-.9-.7-1.2.3s.2 3.6 1.2 4.4 2.4.5 3.8-.7z"></path><path d="M416.7 365.6l.6-.2c1.2-.6 2.4-1 3.2.4a26.6 26.6 0 0 0 2.8 1.1c1.6.5 2.5-.4 1.9-1.8s-.6-3.5 1.5-4.6a1 1 0 0 0 .6-1.4 1.7 1.7 0 0 0-1.4-1.2 1.8 1.8 0 0 0-2 1.7c0 1.1-.4 1.4-1.3 1.7s-1.9 1.1-3.1.2-1-.3-1.6-.1a2.1 2.1 0 0 1-2.5-.2c-1-.8-2-.2-2.1 1.1-.5 3.1.4 3.9 3.4 3.3z"></path><path d="M432 433.7c.7 2.8 2.5 3.8 5.1 2.9s2-1.4 1.1-2.9-1.3-1.9-.7-3.3-.3-2.1-1.4-2.8l-1.2-.5c-1.5-.3-3.2-.3-4.1 1a3 3 0 0 0 .5 4.1 2.6 2.6 0 0 1 .7 1.5z"></path><path d="M577.5 386.3a5.6 5.6 0 0 0-8.2.8 1.4 1.4 0 0 0-.2 1.1c.3 1.8.2 4 2.5 4.5l1.6.9c.5.2.9.3 1.3-.1s2.8-2.4 3.6-4.2a2.5 2.5 0 0 0-.6-3z"></path><path d="M526.4 385.9a6.5 6.5 0 0 0-.2-1.1 9.3 9.3 0 0 1-.5-2.4 2.2 2.2 0 0 0-2-2.5 3.1 3.1 0 0 0-1.3.3 4.1 4.1 0 0 0-2.2 2.1c0 .1-.1.2-.1.3l-1.2 2.2c-.8 1.9 0 3.2 2.1 3.6a5.5 5.5 0 0 0 3.8-.6c1-.5 1.5-.7 1.6-1.1a1.1 1.1 0 0 0 0-.8z"></path><path d="M435.6 379.7a1.9 1.9 0 0 0-2-.4 37.1 37.1 0 0 0-4 1.5c-1.6.9-1.9 2.2-1 3.8s2.3 2.2 3.9 1.3 1.2-1.1 2.4-.4 1.8 0 2.4-.9a3.7 3.7 0 0 0-1.7-4.9z"></path><path d="M514 336.6c-.3.7-.1 1.5-.8 2s-.7 2-.1 3.2 1.7.7 2.7.8 2.8 0 3.6-.9a3 3 0 0 0 .7-1.1c.2-.5.8-1.5.1-1.6s-1.3-.4-.8-1.1.5-1.4 0-1.8l-.6-.5a3.4 3.4 0 0 0-4.8 1z"></path><path d="M504.9 449.6c1.3-.7 1.7-1.3 1.3-2.5-.7-2.9-3.6-3.8-5.8-1.7a5.3 5.3 0 0 0-.9 1.1c-1.1 1.8-1.3 3.1-.3 4.4a4.3 4.3 0 0 0 4.2 1.1c.4-.1.7-.3.6-.7s.3-1.3.9-1.7z"></path><path d="M490.2 373.9c.7-1.3 1.3-2.4.4-3.8s-2.8-1.4-4.1-1a2.5 2.5 0 0 0-1.8 2.8c.1 1.4.5 2.7-.6 3.9s.2 2 1.1 2.2 2 0 2-.8.6-1.3 1.4-1.6a3 3 0 0 0 1.6-1.7z"></path><path d="M580.7 334.1c-.2 1.2.4 2.1 2.3 3.2a10.6 10.6 0 0 0 1.8.5c1.8.2 3.4-.7 3.7-2.1a3.8 3.8 0 0 0 .1-1 4.6 4.6 0 0 0-1.5-3.4c-.2-.1-.5-.3-.7 0s.3 1.1-.5.9a1.5 1.5 0 0 1-1.2-1.1c-.1-.3-.2-.6-.7-.5h-.2l-.7.2a4.9 4.9 0 0 0-2.4 3.3z"></path><path d="M486.7 406.8z"></path><path d="M490.2 408.5l.6-.4c.3-.4.7-.4 1 .3s.9.5 1.3.1a7.9 7.9 0 0 0 1.6-2.3 2.8 2.8 0 0 0 .1-2 3.4 3.4 0 0 0-.8-.9 4.8 4.8 0 0 0-5-.8 3 3 0 0 0-1.4.8 3.1 3.1 0 0 0-.6 1.3 3.7 3.7 0 0 0-.1 1.1 4.3 4.3 0 0 1-.2 1.1l1 .9c.8.8 1.5 1.4 2.5.8z"></path><path d="M596.2 358.5c.1-.1.1-.2 0-.4s-1.7-2.2-2.7-3.1-1.4 0-2.1.4a2.5 2.5 0 0 1-1.7.2h-1c-1 0-2.2-.7-2.8.5a2.1 2.1 0 0 0 .3 2.2l.6.9 1.3 1.5c.5.1 1.1.3 1.3-.1s2.2-1 3.5-1a6.7 6.7 0 0 0 2-.1h.5a.7.7 0 0 0 .8-1z"></path><path d="M482.4 341.8c-.9.6-.2 1.5.2 2.2a.4.4 0 0 0 .1.3l.6 1.9a8.1 8.1 0 0 0 2.5 3.6 1.4 1.4 0 0 0 2.3-.3c.1-.1.1-.4.2-.7a.6.6 0 0 1 .1-.4 14 14 0 0 0 .2-2.5c-.2-.8-.9-.8-1.6-.9s-.7-.8-.6-1.3.5-1 .6-1.6a1.2 1.2 0 0 0-1-1.6h-.5a4.6 4.6 0 0 0-3.1 1.3z"></path><path d="M453.8 367.7a4.6 4.6 0 0 0-.7 3.2 2.8 2.8 0 0 0 2.2 2.6 3.9 3.9 0 0 0 3.8-1c.1-.2.3-.4.2-.5s-1.2-2.4.6-3.3c0 0 0-.4-.1-.5s-1.7-2.4-3.2-2.5-2.2.9-2.8 2z"></path><path d="M471.6 380.8c1.6-.4 2.4.6 3.5 1.2a1.1 1.1 0 0 0 .8-.1 3.7 3.7 0 0 0 2.3-3.3 2.1 2.1 0 0 0-1.3-2.4 6.1 6.1 0 0 0-4.1-.9 2.8 2.8 0 0 0-2.2 2c-.3 1 .5 3.6 1 3.5z"></path><path d="M474.9 350a3.2 3.2 0 0 0-1.7-4.3 4.1 4.1 0 0 0-4.9 2.9c-.7 1.9-.3 2.7 1.6 3.9a4 4 0 0 0 1.3.4c.9.1 2-.1 2.3-1s-.2-2.1 1.4-1.9z"></path><path d="M578.8 343.4c0-.3-.3-1-.6-.8s-1.1-.5-1.4-1 .1-1.1-.7-1.3a4 4 0 0 0-3.7 1.1l-.5.5a2.3 2.3 0 0 0-.3 1.1 4.6 4.6 0 0 0 1.4 3.1l.3.3a6.5 6.5 0 0 0 1.6.9 2.7 2.7 0 0 0 2.7-.3c.3-.2.5-.6.4-.5a5 5 0 0 0 .8-3.1z"></path><path d="M427.6 414.9a2.9 2.9 0 0 1 1 .3 1.5 1.5 0 0 0 2.2.6 3.1 3.1 0 0 0 1.4-3.8c-.7-1.7-3.6-2.6-5.6-1.9a4.1 4.1 0 0 0-1.9 4.7 4.7 4.7 0 0 0 2.8 1.2l-.3-.5c-.3-.5.1-.6.4-.6z"></path><path d="M535.5 387.8a4.5 4.5 0 0 0 .1-1.1 2.5 2.5 0 0 0-1.1-1.7 5.2 5.2 0 0 0-3-.8c-1 0-.3.8-.5 1.2a1.3 1.3 0 0 1-1.2.6c-1 .1-1.5.3-1.6.7h-.1a2.6 2.6 0 0 0 .1 1.2c.3 1.4.9 2.7 2.4 3.1s2.5-.2 3.5-1.2a3.8 3.8 0 0 0 .9-1 3.4 3.4 0 0 0 .5-1z"></path><path d="M558.8 366.1c.1 0 .4.3.8.3s2.7.5 3.6-.7a3.1 3.1 0 0 0 .1-3.7c-.2-.4-.6-1.4-1-1.1s-1.2.1-1.7-.4a2.1 2.1 0 0 0-3.2.2 3.4 3.4 0 0 0-1 2.4 3.5 3.5 0 0 0 .5 1.3 5.3 5.3 0 0 0 1.9 1.7z"></path><path d="M445.4 456.3c.7.5 1.2-.3 1.8-.4s.9-.3 1.1.4.4.4.6.3a4.5 4.5 0 0 0 2.5-3.2c.1-1.2-.7-2.1-2-2.7a4.9 4.9 0 0 0-3.6-.2 3.2 3.2 0 0 0-1.9 3.9 3.5 3.5 0 0 0 1.5 1.9z"></path><path d="M556.4 376.5a3.8 3.8 0 0 0 1.7-1.2 2.4 2.4 0 0 0 .2-3 3.6 3.6 0 0 0-.7-1 4.2 4.2 0 0 0-2.1-1.6 2.3 2.3 0 0 0-3.1 1.3 3.8 3.8 0 0 0-.4 1.6v.4a2.9 2.9 0 0 0 .2.8 1.7 1.7 0 0 1 1.1.2c.5.5.4 1.3.7 2s.4.3.6.4a3.8 3.8 0 0 0 1.8.1z"></path><path d="M464.9 432.3a2.7 2.7 0 0 0 .5-2.3c-.4-1.4-1.6-2.2-2.7-1.6a12.5 12.5 0 0 0-4.4 3.2 1.2 1.2 0 0 0 .2 1.7 3.9 3.9 0 0 0 6.4-1z"></path><path d="M517.9 374.4c.5-.3.9-.8.5-1.4s-1-.8-.4-1.6.3-2.7-.5-3.9-1.3-1.6-2-1.5-.8.3-1.3.8a3.5 3.5 0 0 1-.5.8 3.7 3.7 0 0 0-.5 3.4c.2.8.7 1.5 1.5 1.3s1.8.4 2 1.5a.9.9 0 0 0 1.2.6z"></path><path d="M462 383c-.7-1.1-.9-2.6-2.1-3.2s-1.7-.7-2.3.4a5.6 5.6 0 0 0-.7 1.8c-.3 1.1-.5 1.9-1.9 1.2s-1.3.2-1.5.9a1.3 1.3 0 0 0 .5 1.7 1.3 1.3 0 0 0 1.8-.1c.2-.2.6-.4.6-.6s1-.9 1.7-.7a6.3 6.3 0 0 0 2.7.4c1-.2 1.7-1.1 1.2-1.8z"></path><path d="M515.7 458.2a4.3 4.3 0 0 0 .6-2.2c-.1-1.2-.1-2.5-1.3-3.1s-2.1.4-3 1.1-2.1 3.5.3 4.9 2.5.8 3.4-.7z"></path><path d="M444.4 430.9c.8.5 1.4.6 2-.2a5.7 5.7 0 0 1 3.3-2.4 1.5 1.5 0 0 0 1-2.4c-.5-1-1.4-1.2-2.6-.6s-1.9 1.5-3.3 1.5-2.2.3-2.5 1.4.9 1.8 1.7 2.4z"></path><path d="M517.2 437.6a9.9 9.9 0 0 0-2.9-2.5l-1-.5a1.5 1.5 0 0 0-2.1.8c-.4.9-.2 1.6.6 1.9s1.5 1.6 1.7 2.8.9 2.3 2.7 1.1l.9-.7c1.3-1.1 1.3-1.4.1-2.9z"></path><path d="M538.9 340.8c-.7 1.2-.1 3.3 1 4.5a2.1 2.1 0 0 0 1.1.8h.5l.7-.4a4.1 4.1 0 0 0 1.5-2.3 2.4 2.4 0 0 0 .2-1.4 2.1 2.1 0 0 0-.9-1.7 2.7 2.7 0 0 1-1.6-2c0-.4-.5-.7-1-.7s-1 .6-.8 1 .1.3.1.4a1.6 1.6 0 0 1-.8 1.8z"></path><path d="M550.1 416.5c.8.5 1.2.6 1.7 0s1.9-1.9 3.2-.5l.8.2c.7-.1 1.7-.1 1.7-1.1a1.7 1.7 0 0 0-1.3-1.9h-1.3a2.4 2.4 0 0 1-1.6-.5 3 3 0 0 0-1.6-.5 1.7 1.7 0 0 0-1 0c-1.4 0-2.6.5-2.7 1.2s1.2 2.2 2.1 3.1z"></path><path d="M477.4 425.6l1.8-.6q1.7-.6.9-2.1c-.4-.7-1-1-2.1-1.7s-2.4-.4-3.9-.7-1.1.6-1.2 1.4.8 1.4 1.1 2.1 1.4 2.2 3.4 1.6z"></path><path d="M494.5 371.2a4.9 4.9 0 0 0 2.4-.2c1.8-.5 2.2-1.3 1.4-2.8a8.3 8.3 0 0 0-1.6-2c-2.4-1.3-4.3-.3-4.6 2.2s.6 2.5 2.4 2.8z"></path><path d="M554.6 321.9a3.1 3.1 0 0 0 3.3-.7l-5.5-1a3.4 3.4 0 0 0 1.5 1.4z"></path><path d="M396.5 450.7a3.7 3.7 0 0 0 3.4-1.7 5.6 5.6 0 0 0 .5-2.9c-.1-.5-.3-1.1-1-1.1a11 11 0 0 0-3.6.3 2.4 2.4 0 0 0-1.6 2.1 3.9 3.9 0 0 0 2.3 3.3z"></path><path d="M389.6 413.2c.5.5 1.3.4 2 .4 2.4 0 2.9-.9 2.1-3.1a7 7 0 0 0-1.5-2.3 1.5 1.5 0 0 0-1.5-.5 3.6 3.6 0 0 0-2.6 2.7c-.3 1 .2 2 1.5 2.8z"></path><path d="M559.5 406.3c-1.1.9-.7 2.2-.6 3.4s.2 1.9 1.3 2.3h.6a3.8 3.8 0 0 0 3.3-2.3 3.2 3.2 0 0 0-1.2-2.8 2.8 2.8 0 0 0-.9-.6 2.1 2.1 0 0 0-1.2-.5 1.7 1.7 0 0 0-1.3.5z"></path><path d="M372.4 421.5a3.7 3.7 0 0 0 1 3.5c1 .9 2.1.7 3.5-.6l.6-.6c1.4-1.4 1.3-2.2-.7-3.2l-.6-.3a3.6 3.6 0 0 0-3.8 1.2z"></path><path d="M401.1 399.7a1.9 1.9 0 0 0-.4-2.5c-1-1-2.5-1.4-3.2-.9a3.2 3.2 0 0 0-1.5 3.1c.1 1 .2 2.2 1.3 2.6s2-.7 2.9-1.3.6-.7.9-1z"></path><path d="M503.8 341.9a.7.7 0 0 0-.1-.5 4.9 4.9 0 0 0-.1-1.2c-.2-1.5-.8-1.9-2.3-1.5a3.6 3.6 0 0 0-2.3 1.9c-.9 1.5-.5 2.6 1 3.4l.3.2c2 .9 3.3 0 3.5-2.3z"></path><path d="M363.3 379.2a4.5 4.5 0 0 0 3.8-1.1 2.6 2.6 0 0 0-.2-2.4l-4.5 2.2a2.2 2.2 0 0 0 .9 1.3z"></path><path d="M390.6 377.7q1-1.8-1.2-3c-1.5-.8-2.5-.6-3.3.8s-.5 3.6.7 4.3 3.1-.8 3.8-2.1z"></path><path d="M541 367.2c1 .6 3.4.3 3.8-.6s0-2.1-.7-3.1l-.9-1c-1.1-.9-1.9-.8-2.7.5l-.4 1c-.5 1.5-.2 2.6.9 3.2z"></path><path d="M364.6 397.1c-.7.3-1.2.7-.9 1.5a4.4 4.4 0 0 0 2.6 3c1.4.4 2.2-1.1 3-1.7s.6-2.7-.3-2.8-2.9-.5-4.4 0z"></path><path d="M572.1 363h-.7c-1 0-1.7.8-1.9 2.1a12.1 12.1 0 0 0-.1 1.8 1.1 1.1 0 0 0 .6 1.1.5.5 0 0 0 .4.2 12.2 12.2 0 0 0 3.3.1.9.9 0 0 0 .9-1.1 1.7 1.7 0 0 0-.3-1l-.3-.6a20.7 20.7 0 0 1-1.9-2.6z"></path><path d="M540.5 416.8a5.6 5.6 0 0 0-.9 3.2c.1 1.5 1.7 1.1 2.7 1.3s1.7.3 2.1-.7a.4.4 0 0 0 .1-.3c-.1-1.6-1.3-2.8-2.1-4.1a1.8 1.8 0 0 0-1.9.6z"></path><path d="M549.1 366.5c1.1.7 1.8 1.1 2.5.6a.8.8 0 0 0 .5-.5 3.6 3.6 0 0 0 .2-1.5 9.4 9.4 0 0 0-.4-1.6c-.1-.7.1-1.5-1-1.8s-1.5.4-2.1 1a4.7 4.7 0 0 0-.7 1.2c-.8 1-.4 1.7.5 2.3l.4.2c.1.1.2.1.1.1z"></path><path d="M448.9 419.5l-2.7-.7a1 1 0 0 0-.8.2c-.2 1.3-1.1 2.4-.6 3.8s.8 1.2 1.4.9a7 7 0 0 0 3.3-2c.6-.8.4-1.6-.6-2.2z"></path><path d="M543.9 392.7a17.3 17.3 0 0 0 2.7.4c1 0 1.3-.7 1.1-1.7s-1.2-1.7-1.6-2.6a1.5 1.5 0 0 0-1.3-.9 2.1 2.1 0 0 0-1.7 1.4 15 15 0 0 0-.2 2.2c-.1.6.3.8 1 1.2z"></path><path d="M530.6 418c1.3-.2.7-1.5 1-2.3a2 2 0 0 0-.9-2.4c-.3 0-.6-.2-.8-.1a7.8 7.8 0 0 0-3.3 3.2.8.8 0 0 0 .2 1 5.1 5.1 0 0 0 3.8.6z"></path><path d="M521.4 321.2h.1a2.2 2.2 0 0 0 1.1.1c.3 0 .6-.3.8-.4a1.4 1.4 0 0 0 .3-1.2l-4.7.7c.3.5 1 .7 2.4.8z"></path><path d="M434.7 397.4q-1.2-.6-1.8.9a3.7 3.7 0 0 0-.5 2.6c.2.8.7 1.3 1.6.9l1-.4c1.2-.5 2.5-1 2.4-2.4s-1.7-1.2-2.7-1.6z"></path><path d="M579.8 352.3h-.2a1.7 1.7 0 0 0-2.1-.4c-.7.5-.5 1.4-.4 2.1v.2a7.1 7.1 0 0 0 .4 2 1.1 1.1 0 0 0 1.5.7 3 3 0 0 0 1.7-1.4 6.7 6.7 0 0 0 .6-1.2c.4-1.2-.8-1.5-1.5-2z"></path><path d="M470.7 403.9c.3-.6-.9-1.8-1.6-1.4s-2.1.5-3.1 1-.6 1-.5 1.6a1.4 1.4 0 0 0 1.3 1.2 15.8 15.8 0 0 0 3.9-2.4z"></path><path d="M408.1 449.2a1.6 1.6 0 0 0 2.4-.4 2.4 2.4 0 0 0-.7-2.7 3.8 3.8 0 0 0-2.5.7 2 2 0 0 0 .8 2.4z"></path><path d="M521.7 449.3a1.6 1.6 0 0 0 1 2 2 2 0 0 0 2.4-.7 1.9 1.9 0 0 0-1.2-2.4c-1-.4-1.6 0-2.2 1.1z"></path><path d="M394.4 422.9a1.7 1.7 0 0 0 2.3-.6c.6-.8.3-1.9-.8-2.6a1.4 1.4 0 0 0-1.7.7 1.8 1.8 0 0 0 .2 2.5z"></path><path d="M507.5 364.3a1.8 1.8 0 0 0-2.4.6 2.5 2.5 0 0 0 .2 2.4c.6.4 2.3.3 2.6-.2a2 2 0 0 0-.4-2.8z"></path><path d="M338.3 403.6a1.6 1.6 0 0 0 2-.2c.7-1.2.4-2.4-.4-2.8a1.8 1.8 0 0 0-2.3.3 2 2 0 0 0 .7 2.7z"></path><path d="M484.3 405.2c-.7 0-1.3.1-1.6.8s-.5 1 0 1.5a1.8 1.8 0 0 0 2 .7 5.5 5.5 0 0 0 1.9-1.4c-.7-.7-1-1.7-2.3-1.6z"></path><path d="M486.7 406.7z"></path><path d="M508 358.8a1.6 1.6 0 0 0-.7.7c-.5 1 .2 1.5.8 2s2.3.2 2.5-.5a2.9 2.9 0 0 0-.9-2.4 2.1 2.1 0 0 0-1.7.2z"></path><path d="M584.3 391.3a2.5 2.5 0 0 0 2.5-.7 2.3 2.3 0 0 0-1-2.4 1.6 1.6 0 0 0-2.1.7 1.8 1.8 0 0 0 .6 2.4z"></path><path d="M443 444.8c.6-.9.3-1.9-.9-2.7s-1.3 0-1.8.7a2.1 2.1 0 0 0 .5 2.7 1.8 1.8 0 0 0 2.2-.7z"></path><path d="M552.6 391.3a1.1 1.1 0 0 0-.3-1.5l-.5-.3a2.1 2.1 0 0 0-2.7.7c-.3.6.4 1.7 1.1 2a1.7 1.7 0 0 0 1.4 0 2.2 2.2 0 0 0 1-.9z"></path><path d="M439.1 451.5a1.7 1.7 0 1 0 1.5-3.1 1.9 1.9 0 0 0-2.4.7 1.9 1.9 0 0 0 .9 2.4z"></path><path d="M505.9 328.4h.2c.8.2 1.7-.2 2.3-1.4s-.2-1.1-1.1-1.5a1.4 1.4 0 0 0-2.1.4 1.4 1.4 0 0 0-.1 1.4 1.2 1.2 0 0 0 .8 1.1z"></path><path d="M549.6 352.4c.5-.8.2-1.5-.7-2s-2.2-.3-2.5.3a3.5 3.5 0 0 0 .9 2.5 2.1 2.1 0 0 0 2.3-.8z"></path><path d="M451.7 340.8a1.6 1.6 0 0 0 2.1-.6 1.7 1.7 0 0 0-.1-1.7l-3 1.1c.2.5.6 1.1 1 1.2z"></path><path d="M440.4 362.6c.6.6 1.9.2 2.4-.6a1.6 1.6 0 0 0-.1-1.9 1 1 0 0 0-.6-.5c-.9-.5-1.6 0-2.1.7l-.2.3a1.8 1.8 0 0 0 .6 2z"></path><path d="M472.2 367.7a1.8 1.8 0 0 0-.5-2.5 1.4 1.4 0 0 0-2.1.6 1.6 1.6 0 0 0 .8 2.3c.7.4 1.4.4 1.8-.4z"></path><path d="M578.1 334.6a1.5 1.5 0 0 0-.8-2.1c-.7-.3-2.2.1-2.4.8a2.1 2.1 0 0 0 .8 2.1 1.9 1.9 0 0 0 2.4-.8z"></path><path d="M501 331.9a2.1 2.1 0 0 0-.3-2.3.1.1 0 0 0-.1-.1 1.6 1.6 0 0 0-2.4.5 1.9 1.9 0 0 0 .8 2.2 1.5 1.5 0 0 0 1.6.1c.1-.1.3-.2.4-.4z"></path><path d="M545.1 327.2c1 .4 1.6-.3 2.1-1a1.7 1.7 0 0 0-.8-2.2 2.1 2.1 0 0 0-2.2.6 2 2 0 0 0 .9 2.6z"></path><path d="M530.4 333.9a1.4 1.4 0 0 0 2-.7 1.7 1.7 0 0 0-.8-2.3h-.7a1.3 1.3 0 0 0-1.4.8 2 2 0 0 0-.2 1 1.7 1.7 0 0 0 1.1 1.2z"></path><path d="M419.2 436a1.9 1.9 0 0 0 .9 2.3c.7.4 1.5-.1 1.9-1s0-1.4-.7-1.9a1.6 1.6 0 0 0-2.1.6z"></path><path d="M506.1 354.1a1.7 1.7 0 0 0 2.5-.6 1.2 1.2 0 0 0 .1-1.3 2.8 2.8 0 0 0-.7-.9 1.9 1.9 0 0 0-2.1.4l-.3.4a1.8 1.8 0 0 0 .5 2z"></path><path d="M388.9 406.3c1.1.5 1.4-.3 1.8-.8s.2-1.6-.5-2a1.8 1.8 0 0 0-2.3.5c-.5.7 0 1.8 1 2.3z"></path><path d="M381.4 413.9c-.4 1.1-.2 2.2.6 2.4a2.8 2.8 0 0 0 2.2-.7c.3-.7-.4-2.3-1-2.4s-1.5-.3-1.8.7z"></path><path d="M401.7 376.5a1.5 1.5 0 0 0-1.9.7 1.6 1.6 0 0 0 .5 2.2c.9.5 1.6 0 2.3-.5s-.2-2.2-.9-2.4z"></path><path d="M379.9 381.1a1.8 1.8 0 0 0-2.4.4c-.4.7-.1 1.5.8 2s1.5-.1 2-.8a1 1 0 0 0-.4-1.6z"></path><path d="M578 415.8c.2-.6.1-1.2-.5-1.4a1.7 1.7 0 0 0-2.3 1 1.8 1.8 0 0 0 .7 1.9c.6.2 1.9-.7 2.1-1.5z"></path><path d="M533.7 343.6c.1-.1.1-.2.1-.4a2.1 2.1 0 0 0-1-1.7 1.4 1.4 0 0 0-2 .9 1.4 1.4 0 0 0-.1 1.1 1.9 1.9 0 0 0 .8.7 1.7 1.7 0 0 0 1.8-.2z"></path><path d="M579.8 328.5a1.5 1.5 0 0 0-.6-.5l-.6-.2a1.3 1.3 0 0 0-1.4.7 1.6 1.6 0 0 0 .8 2.1 1.8 1.8 0 0 0 1 .1 1.7 1.7 0 0 0 1-.7 1.5 1.5 0 0 0-.2-1.5z"></path><path d="M535.4 356.1a1.6 1.6 0 0 0-2 .6 1.5 1.5 0 0 0 1.2 1.9 1.7 1.7 0 0 0 2-.5 2.1 2.1 0 0 0-1.2-2z"></path><path d="M408.7 408a1.3 1.3 0 0 0-1.9.3c-.4.6.1 1 .6 1.3s1.1.7 1.6-.1a1 1 0 0 0-.3-1.5z"></path><path d="M430.5 404.2a1.2 1.2 0 0 0-1.2.5 1.3 1.3 0 0 0 .2 1.7 1.2 1.2 0 0 0 1.3-.2c.3-.4.1-2-.3-2z"></path><path d="M600.6 369.3l-.2.2a.9.9 0 0 0 0 1l.2.2c.6.4 1.1.4 1.4-.3s.5-1-.2-1.4h-.1a.9.9 0 0 0-1.1.3z"></path><path d="M514.5 405.4a1.2 1.2 0 0 0 1.6-.6.9.9 0 0 0-.4-1.2 1.1 1.1 0 0 0-1.6.6.8.8 0 0 0 .4 1.2z"></path><path d="M499.9 416.9a.6.6 0 0 0 .2.9 1.3 1.3 0 0 0 1.9-.3 1.1 1.1 0 0 0-.3-1.2 1.2 1.2 0 0 0-1.8.6z"></path><path d="M407.7 440.2c-.4.5-.5 1.2 0 1.5s1 0 1.4-.4.4-1-.1-1.5a.9.9 0 0 0-1.3.4z"></path><path d="M536.9 327.8c.2-.7.1-1.3-.6-1.6a.8.8 0 0 0-1.1.5 1.3 1.3 0 0 0 .8 1.6c.4.2.7-.1.9-.5z"></path><path d="M526.5 399.8a.9.9 0 0 0-.4-1.4.7.7 0 0 0-1.1.4c-.3.6-.4 1.3.4 1.6s.8-.2 1.1-.6z"></path><path d="M437.6 372.6c-.5-.3-.8.1-1.1.5s-.7 1-.1 1.4a1 1 0 0 0 1.5-.2 1.4 1.4 0 0 0-.3-1.7z"></path><path d="M449.1 389.7c.6.6 1.1.2 1.6-.3a.6.6 0 0 0-.1-1.1 1.2 1.2 0 0 0-1.7.2c-.4.3-.2.8.2 1.2z"></path><path d="M513.9 425.7c.2-.5.2-.9-.3-1.2a1.1 1.1 0 0 0-1.4.3.7.7 0 0 0 .1 1.2c.6.5 1.1.2 1.6-.3z"></path><path d="M411.1 434.7c0-.4-.1-.8-.5-.9s-1.3-.2-1.6.6a.8.8 0 0 0 .4.9c.8.4 1.3 0 1.7-.6z"></path><path d="M398.9 411.3a.8.8 0 0 0-.2-1 1.2 1.2 0 0 0-1.7.4.7.7 0 0 0 .2.9c.7.5 1.2.1 1.7-.3z"></path><path d="M483.3 429.6c-.3.4.1 1 .5 1.1s1.2.4 1.5-.2a1 1 0 0 0-.3-1.3 1.2 1.2 0 0 0-1.7.4z"></path><path d="M517.3 390.6a1.4 1.4 0 0 0-.7-1.6.9.9 0 0 0-1.1.6c-.3.6.1 1 .6 1.2s1 .4 1.2-.2z"></path><path d="M517.8 360.1a.7.7 0 0 0-1 .6c-.4.8.3 1.1.9 1.3s.7.1 1-.5-.1-1.1-.9-1.4z"></path><path d="M591.3 389.6c-.4.4-.2.9.1 1.3s.9.5 1.6 0a2.1 2.1 0 0 0-.4-1c-.3-.5-.8-.8-1.3-.3z"></path><path d="M561.1 336.7h.2c.4.2.8.2 1-.3s-.3-.9-.6-1.2a1.1 1.1 0 0 0-1 .1.2.2 0 0 0-.2.2c-.3.7.2 1 .6 1.2z"></path></g><path d="M370.1 193.5a129.4 129.4 0 0 1-20.9-7.3 4.9 4.9 0 0 1-.6-8.5l15.5-9.9a4.9 4.9 0 0 1 7.5 3.8 203.9 203.9 0 0 1 .2 22.1z" fill="#000347"></path><path d="M368.8 189.3l23.3 111.8a4.5 4.5 0 0 0 3.4 3.7l36 7.4c2.6.5 5-1.6 5.2-4.5l1.7-33a5.8 5.8 0 0 0-1.2-3.6z" fill="#000347"></path><path d="M317 163.8l13.1 25.5 11.7-40 32.3 6.9-14.9-29.8a148.8 148.8 0 0 1-42.2 37.4z" fill="#fff"></path><path d="M602.7 759.1l-1.2-.2a5.2 5.2 0 0 1-3.9-6.3l176-748.5a5.4 5.4 0 0 1 6.4-4 5.3 5.3 0 0 1 4 6.4L607.9 755a5.4 5.4 0 0 1-5.2 4.1z" fill="#000347"></path><path fill="#ff151f" d="M1052.8 209.8L753 141.5 780.3 22 1080 90.3 993 135l59.8 74.8z"></path><path d="M359.3 733.7a23.6 23.6 0 0 1 9-17.5c2-1.5-.8-4.3-2.8-2.8a27.2 27.2 0 0 0-10.2 20.3c-.1 2.6 3.9 2.6 4 0z" fill="#fff"></path><path d="M373 742.8l10.3-20.3c1.2-2.2-2.2-4.3-3.4-2l-10.3 20.3c-1.2 2.3 2.2 4.3 3.4 2z" fill="#fff"></path><path d="M653.7 667.5c3.5-7.4 7-14.8 10.4-22.2 1.1-2.3-2.3-4.4-3.4-2-3.5 7.4-7 14.8-10.4 22.2-1.1 2.3 2.3 4.3 3.4 2z" fill="#fff"></path><path d="M668.3 672.7a27 27 0 0 1 7.7-16.9c1.8-1.8-1.1-4.6-2.9-2.8a31.6 31.6 0 0 0-8.8 19.7c-.2 2.6 3.8 2.6 4 0z" fill="#fff"></path><path d="M277.6 77.3l2.1 10.1c.6 2.5 4.4 1.5 3.9-1s-1.4-6.8-2.2-10.2-4.3-1.4-3.8 1.1z" fill="#000347"></path><path d="M267.4 92.3c-1.1 4.1-2.2 8.3-3.2 12.4-.7 2.5 3.2 3.6 3.8 1.1 1.1-4.2 2.1-8.3 3.2-12.4.7-2.5-3.2-3.6-3.8-1.1z" fill="#000347"></path><path d="M269 107.2l6-4.1c2.1-1.5.1-4.9-2-3.5l-6 4.2c-2.1 1.5-.1 4.9 2 3.4z" fill="#000347"></path><path d="M280.7 114.7a11.6 11.6 0 0 0 5.4-9.6c0-2.5-4-2.5-4 0a7.7 7.7 0 0 1-3.4 6.2c-2.1 1.4-.1 4.8 2 3.4z" fill="#000347"></path><path d="M314.7 360.7a154.9 154.9 0 0 0 16.8-76.5c-.1-2.5-4.1-2.5-4 0a151.4 151.4 0 0 1-16.2 74.5c-1.1 2.3 2.3 4.3 3.4 2z" fill="#000347"></path><path d="M204.7 272.8c23.1 2.5 44.6 10.5 65.9 19.2 19.3 8 40 15.8 51.8 34.1 1.4 2.2 4.8.2 3.4-2-10.7-16.6-28-25-45.7-32.4-24.4-10.3-48.9-20-75.4-22.9-2.5-.3-2.5 3.7 0 4z" fill="#000347"></path><path d="M435.5 167.9a51.8 51.8 0 0 1 25.3 27.4c.9 2.3 4.8 1.3 3.9-1.1a55.7 55.7 0 0 0-27.2-29.7c-2.2-1.2-4.3 2.3-2 3.4z" fill="#000347"></path><path d="M455.1 182.5c15.2-21.2 28.1-50.5 57.1-54.2 2.5-.3 2.6-4.3 0-3.9-30.8 3.9-44.3 33.4-60.5 56-1.5 2.1 2 4.1 3.4 2.1z" fill="#000347"></path><path d="M236.6 746c1.2-54.7 15.1-108.4 26.1-161.7l32.7-158.5c.5-2.5-3.3-3.6-3.9-1q-16.8 81.8-33.8 163.6c-10.7 52-23.9 104.3-25.1 157.6 0 2.5 4 2.5 4 0z" fill="#000347"></path><path d="M485.5 444c13.8-1.7 27.9 2.3 38.1 12 12.5 12 14.8 28.6 13.9 45.2-1.8 31.7-12.8 62.8-21.1 93.2-.7 2.5 3.1 3.6 3.8 1.1 9.7-35.6 26.6-76.8 20.6-114.3a49.6 49.6 0 0 0-55.3-41.2c-2.5.4-2.5 4.3 0 4z" fill="#000347"></path><path d="M455.8 356.5c-2.2 4.5.8 9.6 5.4 11s9.2-2.3 9.5-7.2-2.8-9.3-7.7-9.9-10.5 3.2-11.8 8.4c-.7 2.4 3.2 3.5 3.8 1 1.4-5.5 10.5-8.3 11.7-1.2.3 2.4-.8 5.5-3.6 5.3s-5-3-3.9-5.3-2.3-4.4-3.4-2.1z" fill="#000347"></path><path d="M743 261.3l-2.9-.6c9-1.9 15.8-11.2 14.8-20.3s-9.6-16.8-18.8-16.8c13.3-1.7 17-22.5 6.6-30.9s-27.5-3.7-34.9 7.4a11.9 11.9 0 0 0-.4-3.3c-14.7 39.8-29.8 81.9-11.5 116.1 3.1 4.7 10.7 13 20.8 19a207.5 207.5 0 0 0 22-12.5l1.8-1.2c9-6.5 4.1-20.8-6.9-20.7a37.4 37.4 0 0 0 18.6-15.4c5.2-8.1.3-18.9-9.2-20.8z" fill="#ff4d8c"></path><path d="M705 202c-5.5 6.9-14.9 23.4-5.8 31.2 4 3.5 9.8 2.2 14.5 1.3a76.5 76.5 0 0 0 24.4-9.5c2.2-1.3.2-4.8-2-3.5-7.4 4.4-17.9 9.9-26.8 9.7-3.7-.1-8.2-1.9-9.4-5.5s.2-5 .8-7.3a39.4 39.4 0 0 1 7.1-13.6c1.6-1.9-1.2-4.8-2.8-2.8z" fill="#000347"></path><path d="M706.8 233.6c-7 5.5-15.5 23.5-8.2 31.4 3.6 3.9 9.2 2.9 14 2.3a177 177 0 0 0 29.7-6.6c2.4-.8 1.4-4.6-1.1-3.9-9.5 3-22.1 7.7-32.2 7-2.7-.2-6.8-1-8.6-3.4s.3-6.7.9-9c1.4-5.8 3.4-11.1 8.3-15 2-1.6-.8-4.4-2.8-2.8z" fill="#000347"></path><path d="M704.9 265.4c-9.2 5.3-24.1 17.2-14.4 29.1s31.5 5.6 42.7 2.4c2.4-.7 1.4-4.5-1.1-3.8-9.4 2.7-22.1 5.4-31.9 2.4-8.1-2.5-10.2-9.9-5.9-16.7 2.9-4.6 8.1-7.3 12.7-9.9 2.2-1.3.2-4.7-2.1-3.5z" fill="#000347"></path><path d="M709.2 296.9c-9.1 3.7-17.5 15.8-11.1 25.4s22.3 2 29.4-3.5c2-1.6-.8-4.4-2.8-2.8-5.1 4-16.5 10.9-22.3 4.8s.9-17.2 7.9-20.1c2.3-.9 1.3-4.8-1.1-3.8z" fill="#000347"></path><path d="M693.9 278.3a27.5 27.5 0 0 1 5.8 16c0 2.6 4 2.6 3.9 0a30.2 30.2 0 0 0-6.2-18c-1.6-2-5 0-3.5 2z" fill="#000347"></path><path d="M701.5 250.4a18.1 18.1 0 0 1 4.3 14.1c-.3 2.5 3.7 2.5 3.9 0a21.8 21.8 0 0 0-5.4-16.9c-1.7-1.9-4.5.9-2.8 2.8z" fill="#000347"></path><path d="M702.1 306.8a16.5 16.5 0 0 1 7 16c-.3 2.5 3.7 2.5 4 0a20.2 20.2 0 0 0-9-19.4c-2.1-1.4-4.1 2-2 3.4z" fill="#000347"></path><path d="M700.4 216.3a17.5 17.5 0 0 1 4.6 13.6c-.2 2.6 3.8 2.5 4 0a21.6 21.6 0 0 0-5.8-16.4c-1.8-1.9-4.6.9-2.8 2.8z" fill="#000347"></path><path d="M693.3 232c0 9.5-3.3 17.8-9.1 25.3-4.6 5.9-13.9 16.8-21.4 18.3l2.5 1.9v-.5l-2 2h.4c2.6-.1 2.6-4.1 0-4h-.4a2.1 2.1 0 0 0-2 2v.5a1.9 1.9 0 0 0 2.5 1.9c8.2-1.6 18.9-13.6 23.7-19.8 6.2-8.1 9.8-17.4 9.8-27.6a2 2 0 0 0-4 0z" fill="#000347"></path></g></g></svg>