<svg xmlns="http://www.w3.org/2000/svg" width="754.3" height="1168.3" viewBox="0 -0.03697919845581055 754.2999877929688 1168.3026123046875" style=""><g><g data-name="Layer 2"><path d="M327.7 319.9c3.2 31.9 32.3 89.1 69.5 96.1 96.4 18.2 138.4-57.1 101.2-135.1-.4-.9-.7-1.7-1.1-2.5-15-32.5-8.7-45.4 23.4-76.1 37.6-35.9 35.3-112.7-44.1-161.6a4.6 4.6 0 0 0-7 4.8c5.3 23.6 3 65.6-24.5 76.5-61.5 24.4-127.2 100.6-117.4 197.9z" fill="#f9e4c7"></path><path d="M457.4 165.2c22.8-5.9 82.5-69.7 4.9-129.2 22.1 31 47.4 77.4-4.9 129.2z" fill="#38384f"></path><path d="M460.4 109.3c-17.1 9.7-73.4 60.5-44.2 105.5-10.2-24.4-3.9-52.4 44.2-105.5z" fill="#38384f"></path><path d="M142.4 849.9s31.6 97.8 81.8 190.4c18.2 33.6 79.9 107.8 92.6 100.1l30.5-38.2s22.3-84.2-131.9-197.8c-42.3-30.2-38.2-21.9-30.6-39 9.3-20.6-14.6-26.6-14.6-26.6s-9.9-.6-18.8-12-26-29.8-30.1-28.1 21.1 51.2 21.1 51.2z" fill="#db6035"></path><path d="M351 427.5s30.1 10 83.2 6.3c0 0 29.9 73.6-14.2 98.8s-98.9-23-98.9-23 17.3-83.1 29.9-82.1z" fill="#db6035"></path><ellipse cx="388.1" cy="773.3" rx="147.8" ry="196" transform="rotate(-85.7 388.043 773.225)" fill="#ffcb08"></ellipse><path d="M630.4 900.7s47.9-17 63.3-27.2 24-4.3 24-4.3-59.3 61.4-73.2 80.1-178.2 238.8-244.2 213.8c-95.3-36.1 64.2-208 222.8-228.7 0 0 7.2-7-1.1-17.4s8.4-16.3 8.4-16.3z" fill="#db6035"></path><path d="M275 706.5c-26.2-1.7-144.1-29-50.4 271.6 63.5 203.3 131.5 205.1 145.9 111.5 8-52.4-31.2-196.4-10.9-280.6 3-12.5 75.6-4.4 74.6-18-8.1-111.9-159.2-84.5-159.2-84.5z" fill="#ed7632"></path><path d="M474.1 697.1c-13.1-.7-38.7-43-122.6 84-23.6 35.7-18.6 166.3-13.5 248.2 11.6 188.5 117.2 145.2 129.5 99.9 11-40.7 83.6-203.2 108-280.6 3.6-11.5 6.3-23.7 6.3-36.4-.3-105.1-107.7-115.1-107.7-115.1z" fill="#ed7632"></path><path d="M653.8 311.1s-14.3 190.2-150.1 251.2c-66.3 29.9-67.3-126.7-25.4-172.4 60.8-66.4 87-127.2 87-127.2z" fill="#ed7632"></path><path d="M561.3 36.2c-6-10.2 117.9 172.2 90.1 294.4 0 0-89.3 25.2-86.4-98.6 2.2-93.1 3.6-103.4-14.2-172.4 0 0-17.9-39.2 10.5-23.4z" fill="#ed7632"></path><path d="M284.3 498.4S174.9 390 154.5 237c-3.6-27 64.4-2.4 64.4-2.4 60.4 54 139.8 162.7 132.1 192.9-3.4 13.6-66.7 70.9-66.7 70.9z" fill="#ed7632"></path><path d="M194.1 747.6s68.5-32.7 138.5 47c6.3 7.2 9.6 9.4 9.6 9.4s143-131.6 232.3-37.3c0 0 9.6-56.8-106.3-96.7s-246.4 25.7-246.4 25.7z" fill="#ffcb08"></path><path d="M365.4 430.8s6 3.5 11.7-27.6 6.1-36.9 6.1-36.9l40.2 26.4s-11.2 39.5 6.1 41.7-68.5 38.6-64.1-3.6z" fill="#db6035"></path><path d="M285.8 41.8c8-7.1-128 81.8-130.8 199.3 0 0 61 96.2 87.6-14.9 20-83.5 14.4-104.4 47.5-160.2 0 0 26.1-29.3-4.3-24.2z" fill="#ed7632"></path><path d="M342.2 804s-25.8 93.1.3 262.2c0 0-62.5-208.4-27.5-288.5z" fill="#db6035"></path><path d="M284.3 498.4l66.7-70.9 7.7 2s-14.4 9.8-20.7 42.3c-2.4 19.7.6 40.5 20.6 49.4 43.3 19.2 77-67.9 75.6-87.4l22.2 1.4a207.1 207.1 0 0 0-1.6 23.8 183.1 183.1 0 0 0 6.8 39.7c18 62 42.1 63.6 42.1 63.6L452 635.4l-147.3 1.2-12.5-74.7s-33-39.8-7.9-63.5z" fill="#ffcb08"></path><path d="M364.8 359.6c.4 8.5 4.4 15.3 8.9 15.1s8-7.3 7.6-15.8-4.3-15.3-8.9-15.1-7.9 7.2-7.6 15.8z" fill="#db6035"></path><path d="M378.9 330.1c-12.9 27.9-11.8 71.4 8.4 80.8s47.2-5.6 60.1-33.5 7-58.1-13.3-67.5-42.3-7.7-55.2 20.2z" fill="#ed7632"></path><path d="M442.3 377.2c-3.6 7.8-3.2 15.6 1 17.5s10.3-2.8 13.9-10.5 3.2-15.6-.9-17.5-10.4 2.8-14 10.5z" fill="#ed7632"></path><path d="M418.5 343.8c10.1.9 19.2 2.8 24.7 7 6.9.4-9-12.6-24.2-10.9-9.6 1-.5 3.9-.5 3.9z" fill="#cc542f"></path><path d="M400.7 337.1c-8.7-5.2-11.2-7.7-19.5-5.1-5.8-3.7 9.9-8.6 21.3 1.5 7.3 6.5-1.8 3.6-1.8 3.6z" fill="#cc542f"></path><path d="M413.5 388.6c3.5-2.2-12.6 0-32.1-12.1a19 19 0 0 0 10.4 17.4c11.3 6.1 21.7-5.3 21.7-5.3z" fill="#f8eae7"></path><path d="M398 347.7c8 0-12.9 5.7-19-6.4-.6-.8 5.6-2.4 6.2-1.6s4.9 8.1 12.8 8z" fill="#532007"></path><path d="M418 354.8c-7-4.2 7.5 13.2 20 6.3.9-.2-3.2-5-4.2-4.8s-8.9 2.5-15.8-1.5z" fill="#532007"></path><path d="M379.8 326.5s16.5-31.1 61-12.8a82 82 0 0 1 6.4 58.6c-4.3 16.6 41.4-53.8-8.4-77s-59 31.2-59 31.2z" fill="#f9e4c7"></path><path d="M405 352.4s.7 13.3-1.4 20.2c0 0-9.8 1.3-10.4-4.6s11.8-15.6 11.8-15.6z" fill="#dd5e31"></path><path d="M575.4 26.4S563.9 7.9 559.5 4.8s-3.4 1.5-3.4 1.5-3.4-6.9-5.9-6.3-5.2 2.8-5.2 2.8-5.6-1.8-4.4 2.5c.1.3-2.7-1.2-3.2-1.3s-4.2.3-1.3 6.6 4.6 24.9 9.1 34.4c1.8 3.7-5.8-6.8-5.8-6.8s-3.5-11.9-6.8-12.6c-1.7-.3-1.6 4.6-1.1 9.7.8 9 4.8 19.9 10.6 26.8 3.5 4.2 9.8 8.5 16.4 13.7 9.6 7.5 16.4 4.7 19.5-1.9 7.3-15.7-2.6-47.5-2.6-47.5z" fill="#ed7632"></path><path d="M466.1 561.9c-.4 6.5-70.1 61.8-93.1-10.1 0 0 47.7 37.5 93.1 10.1z" fill="#a5936a" opacity=".5"></path><path d="M292.2 561.9c1.3 0 41.1 0 58.2-10.5 0 0-21.9 25.3-54.3 31.1z" fill="#a5936a" opacity=".5"></path><path d="M441.9 720.6s-75.5 49.4-173-5.5c0 0 12.4 39 67.4 44.4 72.9 7.1 105.6-38.9 105.6-38.9z" fill="#a5936a" opacity=".5"></path><path d="M288.1 66s36.7-6.2 41.6-12.3-12 1.1-18.3-.5S328.6 33 328.6 33s21.8-9.3 15.7-11.5-7.6-.1-7.6-.1 16.3-8.4 5.4-9.9c-5-.7-16.2 4.3-16.2 4.3s4.4-1.4 9.4-5c2.8-2.1-13.5-1.8-26.6 9.3-4 3.4-7.7 6.2-10.9 8.6a171.4 171.4 0 0 0-28 25.1l-.6.7z" fill="#ed7632"></path><g><path d="M455.9 516s1.6-1.4-1.3.3-7.3 4.7-19.6 18.4c0-.5-.1-1-.1-1.5s7.1-6.8 9.5-10.3a60.6 60.6 0 0 0 7.1-13.8 3.4 3.4 0 0 1 .4-1c1.4-1.6-.4-1-5.8 5.4s-10.7 18.3-10.7 18.3l-.6 1.1c-.1-.9-.2-1.6-.2-2.1l1-1.3c1.6-2.3 7.4-12.7 7.6-19.5s-.3-9-.9-7.5-1 2.2-1.8 3.9a38.2 38.2 0 0 0-3.2 9.9l-2.7 14.2a4.7 4.7 0 0 0-.3-.9 47.7 47.7 0 0 1 .9-7 59.4 59.4 0 0 0 1.4-13.1c.1-3.8-2.7-14.3-2.3-11.7.1.6-1.4 8.9-1.5 11.8s.9 14.4 1 15.2-1.4.7-1.7-10.3-6.3-22.5-5.8-20c.2.6.1 10.3 1.2 16.4s5.1 14.1 4.4 13.8-5.4-10.9-6.1-12.8-8.2-12.2-7.3-10.2c.1.2.1.3 1.8 6.7s8.2 14.9 10.5 17.2a14.4 14.4 0 0 1 3.1 4.3 4.5 4.5 0 0 1 .2.8v.6l-1-1.4c-.8-1.1-9.5-12-11.8-14.1s-7.9-6.6-7.9-6.6-1.6-.5 1.8 5.4 9.8 10.2 12.2 12.1a69.9 69.9 0 0 0 6.5 4.6c.1.1.2.1.2.2a5.3 5.3 0 0 1 .1 1.3c0-.1-.1-.1-.1-.2-2-1.4-12.8-8.9-15.2-10.1s-8.2-3.5-9.4-4-.1 0 0 .1c2.1 2.8 11.2 9.4 14.2 10.8s10.5 3.8 10.5 3.8h.1c0 .4.1.8.1 1.2-20-8.6-25-6.9-27.7-7.5-.4-.1.1.3.1.4 9.8 7.1 27.3 7.5 27.3 7.5h.4l.4 2.8s.8 1 .5-.4-.2-1.2-.4-2.3l.6-.3s12.9-1.5 20.3-18.6z" fill="#f67b7a"></path><path d="M487.1 575a1.8 1.8 0 0 0-.1-.6s4.4-12.3-7.7-26.4c0 0-.5-2.1-.3 1.3s1 8.6 7.9 25.6l-1.4-.5c-.3-.8-3-9.4-5.1-13.1s-4.8-7.5-9.2-12.4l-.8-.9c-.8-1.9-1 0 2.3 7.7s11.8 17.6 11.8 17.6l.7 1-2-.7-.8-1.4c-1.2-2.5-8-12.3-14-15.5s-8.3-3.7-7.1-2.5 1.5 1.9 2.6 3.3a39.9 39.9 0 0 0 7.5 7.3l11.5 8.7s-.7-.2-.9-.1a67.3 67.3 0 0 1-5.9-4 70.1 70.1 0 0 0-11.1-7c-3.4-1.7-14.1-3.9-11.6-3.1.6.2 7.4 5.2 10 6.6s13.3 5.5 14.1 5.8 0 1.6-10-3.1-23-4.1-20.5-3.6c.6.2 9.3 4.5 15.2 6.2s15 1.7 14.4 2.1-12.2.1-14.2-.1-14.6 1.9-12.4 2l6.9 1.4c6.5 1.2 16.9-.8 20-1.9a16.2 16.2 0 0 1 5.2-.9l.8.2.6.3-1.7.3c-1.3.2-15 3.2-18 4.3s-9.3 4.2-9.3 4.2-1.2 1.3 5.7.7 13.4-4.2 16.1-5.5 7-3.8 7.1-3.8.2-.1.2-.2l1.3.5h-.3c-2.1 1.1-13.6 7.5-15.8 9.1s-6.7 5.8-7.7 6.7h.1c3.4-.7 13.4-5.9 16-8s8-7.8 8-7.8l1.2.4c-16.5 14.2-17.2 19.5-19 21.6-.3.4.3.1.4.1 10.7-5.6 18.7-21.2 18.7-21.2s.2-.2.2-.3l2.8.8s1.2-.2-.2-.5z" fill="#f2e8dd"></path><path d="M290 536.6l-2 2.1s-.3 1.1.5.1l1.7-1.7.6.2s8.9 9.6 27 5.3c0 0 2.1.4-1-.9s-8.1-3.1-26.4-4.7a5.2 5.2 0 0 1 1.1-1c.8.1 9.7 1.6 14 1.5a66.1 66.1 0 0 0 15.2-2.6l1.1-.3c2.1.2.5-.9-7.8-1.4s-21.1 2.4-21.1 2.4l-1.2.2 1.5-1.5h1.7c2.7 0 14.6-1.6 20.2-5.5s7-5.6 5.4-5.2a29.6 29.6 0 0 1-4.2.9 41.9 41.9 0 0 0-9.8 3.3l-13 6.3s.5-.6.5-.8a50.9 50.9 0 0 1 6.2-3.4 72.2 72.2 0 0 0 11.3-6.6c3.1-2.3 9.9-10.8 8.1-9s-8 4.3-10.4 5.9-11 9.4-11.6 9.9-1.4-.7 7.3-7.5 14.2-18.5 12.6-16.6-8.3 6.2-12.5 10.8-8.3 12.5-8.5 11.7 5.6-10.8 6.7-12.5 4.9-13.9 3.8-11.9l-4.4 5.4c-4.1 5.2-7 15.4-7.4 18.7a15.9 15.9 0 0 1-1.6 5.1l-.6.6c-.1.1-.3.2-.4.4a7.9 7.9 0 0 1 .4-1.7c.5-1.3 4-14.8 4.4-18s.5-10.2.5-10.2-.6-1.6-3.2 4.7-2.4 13.9-2.5 17 .2 7.9.2 8v.2l-1 .9v-.2c0-2.5-.4-15.6-.8-18.2s-2.1-8.7-2.4-9.9h-.2c-1 3.4-.9 14.6-.2 17.9s3.3 10.6 3.3 10.6h.1l-.9.8c-5.1-21.1-9.5-24.1-10.6-26.7-.2-.4-.2.2-.2.4.1 12 10.2 26.3 10.2 26.3z" fill="#f67b7a"></path><path d="M426.5 681.2c0 .4.2-.2.3-.3 3.6-11.5-1.6-28.2-1.6-28.2s-.1-.3-.2-.4l2.6-1.3s.6-1.1-.5-.3l-2.1 1-.5-.4s-5.6-11.8-24.1-13.3c0 0-1.8-1 .7 1.2s6.8 5.4 23.7 12.6l-1.4.7c-.8-.5-8.7-4.6-12.8-5.8a66.9 66.9 0 0 0-15.3-2.3 2.8 2.8 0 0 1-1.2-.1c-1.9-.7-.7.8 7 3.9s20.9 4.2 20.9 4.2l1.2.2-1.9.9-1.6-.5c-2.7-.8-14.4-3-20.9-1s-8.5 3.2-6.8 3.2l4.2.5a40.2 40.2 0 0 0 10.4-.1l14.3-2a3.2 3.2 0 0 0-.7.6 55.7 55.7 0 0 1-7 1.3 68.8 68.8 0 0 0-12.8 2.9c-3.6 1.1-12.7 7.2-10.4 5.9.6-.2 8.9-1.5 11.7-2.3s13.4-5.5 14.1-5.8 1.1 1.1-9.3 4.8-19.2 13.3-17 12c.5-.4 9.7-3.4 15.1-6.5s11.8-9.3 11.7-8.5-8.6 8.6-10.2 9.9-8.9 11.6-7.3 10.1l5.8-3.9c5.5-3.6 11.4-12.4 12.9-15.4a15.6 15.6 0 0 1 3.1-4.3l.7-.4.6-.2-1 1.4c-.8 1-8.4 12.9-9.6 15.7s-3.7 9.6-3.7 9.6 0 1.7 4.5-3.5 6.5-12.5 7.6-15.4 2.2-7.5 2.2-7.6v-.3l1.2-.5v.2c-.8 2.3-4.5 14.9-4.9 17.6s-.6 8.9-.7 10.2h.1c2-2.9 5.4-13.7 5.7-17s.2-11.2.2-11.2l1.1-.5c-1.6 21.7 1.6 25.9 1.9 28.7z" fill="#f2e8dd"></path><path d="M369.8 547.1s-5.6-11.8-24.1-13.3c0 0-1.8-1 .7 1.2s6.8 5.4 23.7 12.6l-1.4.7c-.8-.5-8.7-4.6-12.8-5.8a66.9 66.9 0 0 0-15.3-2.3 2.7 2.7 0 0 1-1.2-.1c-1.9-.7-.7.8 7 3.9s20.8 4.2 20.8 4.2l1.3.2-2 .9-1.5-.5c-2.7-.8-14.4-3-20.9-1s-8.5 3.2-6.8 3.2l4.2.5a40.2 40.2 0 0 0 10.4-.1l14.3-2a3.2 3.2 0 0 0-.7.6 60.2 60.2 0 0 1-7 1.3 68.8 68.8 0 0 0-12.8 2.9c-3.6 1.1-12.7 7.2-10.4 6 .6-.3 8.9-1.6 11.7-2.4s13.4-5.5 14.1-5.8 1.1 1.1-9.3 4.8-19.2 13.3-17.1 12 9.8-3.4 15.2-6.5 11.8-9.3 11.7-8.5-8.6 8.6-10.2 9.9-8.9 11.6-7.3 10.1l5.8-3.8c5.5-3.7 11.4-12.5 12.9-15.5a15.6 15.6 0 0 1 3.1-4.3l.7-.4.6-.2-1 1.4c-.8 1-8.4 12.9-9.7 15.7s-3.6 9.6-3.6 9.6 0 1.7 4.5-3.5 6.5-12.5 7.5-15.4a71.8 71.8 0 0 0 2.3-7.6c.1-.2.1-.2.1-.3l1.2-.5a.3.3 0 0 1-.1.2c-.7 2.3-4.4 14.9-4.8 17.6s-.6 8.9-.7 10.2.1.1.1 0c2-2.9 5.4-13.7 5.7-17s.2-11.1.2-11.1l1.1-.5c-1.7 21.7 1.5 25.9 1.8 28.7 0 .4.2-.2.3-.3 3.6-11.5-1.7-28.2-1.7-28.2s0-.3-.1-.4l2.6-1.3s.6-1-.5-.3l-2.1 1z" fill="#f2e8dd"></path><path d="M326.7 475.7l1.4-4.1a39.4 39.4 0 0 0 2.1-10.2l1-12.8-2 2.1c-1.9 4.3-4.7 12.3-4.2 17.6.6 6.8 1.3 9 1.7 7.4z" fill="#f2e8dd"></path><path d="M342 456.5c.5-1.3.9-2.5 1.4-3.7-1.9-1.3-3.5-2.2-4.5-2.8a52.4 52.4 0 0 0-5.9-3.3l-.4.4.2.3c.6.7 5.4 5.5 9.2 9.1z" fill="#f2e8dd"></path><path d="M335.3 479.5c-.2-.6.3-9.1.1-12s-2.5-14.2-2.7-14.9 1.3-.9 2.8 10a37.7 37.7 0 0 0 2.5 9.2c.6-2.8 1.2-5.4 1.8-7.9-2.1-5.6-5.9-11.7-5.2-11.5s3.8 5.6 5.9 9.2a35.9 35.9 0 0 1 1.2-3.9 52.8 52.8 0 0 0-6.2-6.3 21.7 21.7 0 0 1-3.5-3.7l-.3.3a45.2 45.2 0 0 1-.2 6.9 70 70 0 0 0 .1 13.2c.4 3.7 4.4 13.9 3.7 11.4z" fill="#f2e8dd"></path><path d="M316.6 471.3c-1.2 1.7.5.8 5.2-6.1a74.8 74.8 0 0 0 6.4-13.4l-8 8.5a76.1 76.1 0 0 0-3.3 9.9 3.6 3.6 0 0 1-.3 1.1z" fill="#f2e8dd"></path><path d="M346 446.8c.6-1.3 1.2-2.4 1.8-3.5a75.5 75.5 0 0 0-10.9-.8l-1.7 1.8c4.4 1.2 7.9 2 10.8 2.5z" fill="#f2e8dd"></path><path d="M334.6 445l-1 1c2.7 1.4 7 3.8 10.3 5.4l1.4-3.2-3.1-1.4c-1.8-.6-5.1-1.3-7.6-1.8z" fill="#f2e8dd"></path><path d="M433.3 462l8.2-11.9s-.1.8-.1 1a51 51 0 0 1-3.7 5.9 80.6 80.6 0 0 0-6.6 11.4c-1.5 3.5-3.2 14.2-2.6 11.7.2-.6 4.9-7.6 6.2-10.2s5-13.5 5.2-14.3 1.6-.1-2.6 10.1-3.3 23.1-2.8 20.7c.1-.6 4.1-9.5 5.5-15.6s1.1-14.9 1.6-14.3.6 12.1.4 14.1 2.6 14.5 2.5 12.3c0-.3.1-.3 1.1-6.9s-1.4-16.9-2.6-19.9a14 14 0 0 1-1.1-5.2 3.2 3.2 0 0 0 .1-.8l.3-.6a9.5 9.5 0 0 0 .4 1.7c.2 1.3 3.8 14.9 5 17.7s4.6 9.2 4.6 9.2 1.3 1.1.5-5.7-4.8-13.2-6.2-15.9-4.1-6.8-4.1-6.9-.1-.2-.2-.2.3-.9.5-1.3v.2c1.2 2.1 8 13.4 9.7 15.5l2.9 3.2c-.2-1.8-.4-3.7-.5-5.6a34.1 34.1 0 0 0-4-5.9 107.2 107.2 0 0 0-8.1-7.7l.3-1.1a132.8 132.8 0 0 0 11.6 11.1c0-1.6.1-3.1.1-4.5a76 76 0 0 0-11.2-6.8l-.4-.2c.5-1.5.8-2.8.8-2.8s-.3-1.1-.6.2-.3 1.2-.6 2.3h-.6a22.4 22.4 0 0 0-9.6-.2c-.4 1.6-.8 3.3-1.3 5.1 3.2-1.2 6.9-2.8 11.4-4.8-.1.4-.3.9-.4 1.4a90.3 90.3 0 0 0-11.3 4.7c-.6 1.8-1.2 3.8-1.9 5.8a113.7 113.7 0 0 0 12.1-9.5l1-.7c-.3.8-.5 1.6-.7 2l-1.4.8a59.2 59.2 0 0 0-12.1 10.6c-1.3 3.5-2.7 7.1-4.3 10.7l2.5-2.2a36.4 36.4 0 0 0 7.1-7.7z" fill="#f2e8dd"></path><path d="M360.3 720.8l.4.2c-.2 1.5-.3 2.8-.3 2.8s.5 1.1.5-.2.2-1.2.3-2.4l.6-.2s12.9 2 24.5-12.6c0 0 1.9-.9-1.4 0s-8.3 2.6-23.6 12.6a7.7 7.7 0 0 1 .2-1.5c.8-.4 8.7-4.7 11.9-7.4a63.7 63.7 0 0 0 10.4-11.5 3.6 3.6 0 0 1 .7-.9c1.7-1.2-.2-1-7 3.7s-15.1 15-15.1 15l-.9.8c.2-.8.3-1.6.4-2l1.2-1.1c2.2-1.7 10.6-10.2 12.5-16.8s2.1-8.8 1.1-7.4l-2.8 3.3a41.4 41.4 0 0 0-5.7 8.6l-6.3 13v-.9a38.4 38.4 0 0 1 2.7-6.5 68.5 68.5 0 0 0 4.8-12.3c1-3.6 1.1-14.5.8-11.9-.1.6-3.7 8.2-4.6 11s-2.8 14.1-3 14.9-1.5.3 1.2-10.4-.4-23.3-.5-20.8c0 .6-2.6 10-3.1 16.2s1.2 15 .6 14.5-2.3-12-2.5-14-4.7-13.9-4.4-11.7c.1.2 0 .3 0 7s4 16.4 5.7 19.3a15.4 15.4 0 0 1 1.9 4.9 3.2 3.2 0 0 0-.1.8c0 .2-.1.4-.1.6l-.7-1.6c-.4-1.2-6-14.1-7.7-16.8s-5.9-8.3-5.9-8.3-1.4-.9.4 5.7 6.8 12.3 8.5 14.8 5.1 6.1 5.2 6.2.1.1.1.2a6.9 6.9 0 0 1-.2 1.3c0-.1-.1-.1-.1-.2-1.6-1.9-10-12-12-13.8s-7-5.5-8-6.3h-.1c1.3 3.3 8.3 12.1 10.9 14.2s9.2 6.3 9.2 6.3c0 .4-.1.8-.1 1.2-17.1-13.5-22.4-13.1-24.9-14.5-.3-.2 0 .3.1.4 7.5 9.6 24.3 14.5 24.3 14.5z" fill="#f67b7a"></path><path d="M339.6 641.6c-.2 1.6-.4 2.9-.4 2.9s.5 1.1.6-.3a20 20 0 0 1 .3-2.3l.6-.2s12.9 1.9 24.4-12.6c0 0 1.9-1-1.3-.1s-8.3 2.6-23.7 12.6a5.9 5.9 0 0 0 .2-1.4c.8-.5 8.7-4.8 12-7.5a63.9 63.9 0 0 0 10.3-11.5 5.1 5.1 0 0 1 .8-.9c1.7-1.1-.2-1-7.1 3.7s-15.1 15-15.1 15l-.8.9a20.6 20.6 0 0 1 .3-2.1l1.3-1.1c2.1-1.7 10.5-10.2 12.5-16.7s2-8.9 1-7.5-1.5 1.9-2.7 3.3a40 40 0 0 0-5.8 8.7l-6.2 12.9a3.4 3.4 0 0 0-.1-.9 67.2 67.2 0 0 1 2.7-6.5 63.6 63.6 0 0 0 4.8-12.2c1.1-3.7 1.1-14.6.8-12-.1.6-3.7 8.3-4.5 11.1s-2.9 14.1-3 14.9-1.6.3 1.1-10.4-.3-23.4-.4-20.9c0 .7-2.7 10-3.1 16.2s1.2 15 .6 14.5-2.4-12-2.5-14-4.8-13.9-4.4-11.7c0 .3-.1.4-.1 7s4.1 16.4 5.7 19.3a15.4 15.4 0 0 1 1.9 4.9c0 .4-.1.7 0 .8a6.4 6.4 0 0 0-.2.7l-.6-1.6c-.5-1.3-6.1-14.2-7.7-16.8s-6-8.4-6-8.4-1.4-.9.4 5.7 6.8 12.4 8.6 14.8 5 6.1 5.1 6.2l.2.2-.3 1.3a.3.3 0 0 0-.1-.2c-1.5-1.9-9.9-12-11.9-13.8s-7-5.5-8.1-6.2-.1 0-.1 0c1.3 3.3 8.4 12.1 10.9 14.2s9.2 6.4 9.2 6.4h.1c-.1.4-.1.8-.2 1.2-17.1-13.5-22.4-13.1-24.8-14.5-.4-.2 0 .3 0 .4 7.6 9.4 24.4 14.4 24.4 14.4z" fill="#f67b7a"></path><path d="M395.3 603.2a18.3 18.3 0 0 1-.5 5.3 5 5 0 0 0-.5.7l-.4.5c.1-.3.1-1 .2-1.7s.9-15.4.7-18.5-1.6-10.1-1.6-10.1-.8-1.5-2.2 5.2.5 14.1 1 17.1a75.4 75.4 0 0 0 1.8 7.8v.3l-.8 1.1v-.3c-.5-2.4-3.5-15.1-4.5-17.7s-3.7-8-4.3-9.2h-.1c-.3 3.5 2 14.6 3.3 17.6s5.4 9.8 5.4 9.8l-.7 1c-9.2-19.8-14-21.8-15.6-24.1-.3-.4-.2.2-.2.4 2.5 11.7 15.3 23.7 15.3 23.7l.3.3-1.6 2.4s0 1.2.6 0l1.3-1.9h.6s10.7 7.5 27.6-.3c0 0 2.1 0-1.2-.6s-8.6-1.4-26.8.6l.8-1.2c.9 0 9.9-.3 14-1.3a68.2 68.2 0 0 0 14.5-5.6 3.4 3.4 0 0 1 1-.4c2.1-.3.3-1.1-8 .1s-20.2 6.5-20.2 6.5l-1.1.4a19.6 19.6 0 0 0 1.2-1.7l1.6-.3c2.7-.6 14-4.5 18.7-9.4s5.8-7 4.4-6.2l-4 1.7a40.5 40.5 0 0 0-9 5.2l-11.5 8.7a2.9 2.9 0 0 0 .4-.8 59.9 59.9 0 0 1 5.4-4.6 71.2 71.2 0 0 0 9.8-8.8c2.5-2.8 7.5-12.5 6.1-10.3-.4.5-7 5.7-9.1 7.8s-8.9 11.4-9.4 12-1.5-.4 5.7-8.8 10.2-21 9-18.8c-.3.6-6.8 7.8-10 13.1s-5.7 13.9-6 13.2 3.3-11.8 4-13.6 2.1-14.6 1.4-12.5c-.1.3-.2.3-3.2 6.2s-3.8 16.7-3.6 20z" fill="#f67b7a"></path><path d="M271.3 674.1c-2.7-2.3-13-6.9-16.2-7.6s-4.7-.7-7.2-1l-1.4 1c4.2 1.8 12.6 5.3 14.7 5.8s8.7 1.7 10 1.9a.1.1 0 0 0 .1-.1z" fill="#f67b7a"></path><path d="M227.1 684c-.2.8-.5 1.6-.7 2.5s-1.2 1.7 1.3-.6 3.7-3.7 8.1-10.4c-3 2.7-5.9 5.6-8.7 8.5z" fill="#f67b7a"></path><path d="M236.6 686.9c2.7-5.1 4.8-12.8 5.8-17-1.4 1-2.7 2.1-4 3.2s-1.7 3.1-2.2 4.2a64.3 64.3 0 0 0-4 15 2.8 2.8 0 0 1-.2 1.1c-.9 1.9.7.8 4.6-6.5z" fill="#f67b7a"></path><path d="M266.5 679.2c-4.7-5-11.7-7.9-14.4-9.2s-5-2.2-6.5-2.8l-.4.3.6.5c.9.9 11.8 9.8 14.5 11.4s9.1 4.6 9.1 4.6 1.7.2-2.9-4.8z" fill="#f67b7a"></path><path d="M240.1 689.7c1.3 6.7 2.3 8.7 2.5 7.1s.5-2.4.9-4.2a40.1 40.1 0 0 0 1.1-10.3l-.4-14-.7.7c-1.1 2.5-4.6 14-3.4 20.7z" fill="#f67b7a"></path><path d="M256.7 684.1c1.1 1.7 10.6 10.2 9.3 8.4-.1-.2-.1-.3-3.2-6.2s-11.1-12.7-13.9-14.5a17.8 17.8 0 0 1-4-3.5c0-.2-.1-.3-.1-.4l-.4.3c.1.2.2.4.3.4a58 58 0 0 1 .6 7.1 58.9 58.9 0 0 0 1.4 13c.7 3.8 5.7 13.5 4.8 11-.3-.6-.6-9-1.1-11.9s-4-13.8-4.2-14.6 1.2-1 3.8 9.8 11 20.5 9.9 18.2c-.2-.5-2.2-10-4.6-15.8s-8-12.7-7.2-12.5 7.6 9.5 8.6 11.2z" fill="#f67b7a"></path><path d="M272.2 665.4c.5 0-.1-.3-.2-.4-6.1-2.6-14-2.8-19.9-2.5l-3.3 2.4c16.8 2.7 20.8.4 23.4.5z" fill="#f67b7a"></path><path d="M302 729.8c-.2.2-.3.2-4.5 5.3s-7.4 15.2-8 18.5a14.8 14.8 0 0 1-1.1 3.8l1 .6 5.1-2.6a66.3 66.3 0 0 0 11.5-6.3c3.2-2.2 10.1-10.6 8.3-8.7s-8.1 4-10.6 5.6-11.2 9-11.8 9.5-1.4-.7 7.5-7.3 14.6-18.1 13-16.3-8.5 6-12.8 10.5-8.6 12.3-8.7 11.5 5.8-10.7 6.9-12.3 5.3-13.8 4.2-11.8z" fill="#f67b7a"></path><path d="M315 749.7l-4.2.7a39.9 39.9 0 0 0-10 3.1l-10.7 4.9 1.9 1.1c4.7-.4 12.9-1.8 17.4-4.8s7.2-5.5 5.6-5z" fill="#f67b7a"></path><path d="M274.3 735c-.1 5.9 2.2 12.3 4.6 17.4l3.8 1.9c-3.9-14.8-7.2-17.4-8.1-19.7-.2-.4-.3.2-.3.4z" fill="#f67b7a"></path><path d="M289.5 734.5c-2.8 6.3-2.7 13.9-2.9 16.9a40 40 0 0 0 0 4.9l1 .6c1.1-3.4 4.1-14.1 4.5-16.8s.7-10.2.7-10.2-.5-1.6-3.3 4.6z" fill="#f67b7a"></path><path d="M310.8 767.6c-1.3-.6-4.4-1.8-11.3-3.1l6.5 4.8a31 31 0 0 0 5.8-.8s2.1.5-1-.9z" fill="#f67b7a"></path><path d="M283.1 732.1c-.1-.1-.2-.1-.2 0-1 3.3-1.2 14.6-.6 17.9.2 1.2.7 2.9 1.2 4.7l2.1 1.1c0-4.8-.1-11.9-.4-13.7s-1.8-8.7-2.1-10z" fill="#f67b7a"></path><path d="M292.7 760l4.8 3h2.1a59.1 59.1 0 0 0 15.3-2.2l1.1-.2c2.1.2.5-.9-7.8-1.7a72.2 72.2 0 0 0-15.5 1.1z" fill="#f67b7a"></path><path d="M349.1 774.4c-3-.9-10-2.4-10-2.4s-1.7.3 4.1 4 13.2 4.8 16.2 5.5 7.8 1.2 7.9 1.2h.3c.1.3.3.5.4.8l.5-.4c-.4-.4-.6-.9-.8-1.1a8.6 8.6 0 0 1 .3-1.7c.4-2.7 1-14.6-1.8-20.8s-4.3-8-4.1-6.3.1 2.4.1 4.3a40.6 40.6 0 0 0 1.4 10.3l3.9 13.8-.7-.6a54.7 54.7 0 0 1-2.2-6.7 73.5 73.5 0 0 0-4.5-12.3c-1.7-3.5-8.9-11.7-7.4-9.5.4.5 2.8 8.6 4 11.3s7.2 12.4 7.6 13.1-1 1.3-6.1-8.5-15.6-17.3-14.1-15.3c.4.4 4.7 9.2 8.4 14.1s10.8 10.5 10.1 10.5-9.7-7.4-11.2-8.8-12.8-7.3-11-5.9l4.6 5.3c4.4 4.9 13.9 9.6 17 10.7a14.3 14.3 0 0 1 4.7 2.4l.5.7.3.5-1.5-.8c-1.2-.6-13.9-6.5-16.9-7.4z" fill="#f2e8dd"></path><path d="M340.9 790.8c-.4.1.2.3.4.3 6.4 1.1 13.9-.6 19.5-2.3l4.5-3.3c-18.4 1.4-21.8 4.7-24.4 5.3z" fill="#f2e8dd"></path><path d="M369.6 782.4a90.8 90.8 0 0 0 3.4-11.9 65.1 65.1 0 0 0 .2-15.5 3.1 3.1 0 0 1-.1-1.1c.5-2.1-.8-.7-2.8 7.4s-1.4 21.2-1.4 21.2v.4a1.8 1.8 0 0 1 .7-.5z" fill="#f2e8dd"></path><path d="M380.2 759.2s.8-1.9-1 .9-4.1 6.7-8.3 21.3l5.4-3.8c2.4-4.1 4.4-10 3.9-18.4z" fill="#f2e8dd"></path><path d="M366.6 784.5l1-.7c-3.1-.6-15.1-2.4-17.7-2.4s-8.8.5-10.1.6-.1.1-.1.2c3.2 1.5 14.3 3.5 17.6 3.4s6.8-.7 9.3-1.1z" fill="#f2e8dd"></path><path d="M200.2 729.2l-.7-1.3c-.6 1.4-1 2.8-1.5 4.3 3.3 3.6 6.6 6.6 6 6.5s-3.6-2.7-6.4-5.2l-.9 2.9a53.7 53.7 0 0 0 6.7 3.6 14.1 14.1 0 0 1 4.6 2.7l.3.5.7-.2a8.6 8.6 0 0 0 .3-1.3c.6-2.7 1.8-14.6-.7-21a42.2 42.2 0 0 0-3.1-6.4l-.8 1.5v2.7a36.3 36.3 0 0 0 .9 10.4l3.2 14.1s-.5-.7-.7-.7-1-2.9-1.9-6.8a61.4 61.4 0 0 0-3.9-12.6 4.1 4.1 0 0 0-.5-.9l-1.9 4.8c2 4 5.6 10.7 5.9 11.3s-1 1.2-5.6-8.9z" fill="#f2e8dd"></path><path d="M212.6 722.8c-2.1 6.6-2.4 16.8-2.5 20l1.2-.2a80.7 80.7 0 0 0 3.5-10.5 65.2 65.2 0 0 0 1-15.5 3.9 3.9 0 0 1 0-1.1c.6-2-.8-.7-3.2 7.3z" fill="#f2e8dd"></path><path d="M196.4 737.4c-.3 1.2-.6 2.4-.8 3.6l5.1 1.4 5.6 1.2 1.3-.3-.4-.2c-.7-.5-6.2-3.4-10.8-5.7z" fill="#f2e8dd"></path><path d="M204.2 744.1l-9-1.7c-.2 1.2-.5 2.3-.7 3.5l2.8.4a64 64 0 0 1 6.9-2.2z" fill="#f2e8dd"></path><path d="M222.6 721.2s.9-1.9-1.1.8-4.3 6.4-9.2 20.4l3.8-.6c3.1-3.8 6.5-10.3 6.5-20.6z" fill="#f2e8dd"></path><path d="M326.7 649.8s.2-2.1-.8 1.1-2 8.5-1.4 26.8l-1.2-.9c.1-.9.5-9.9-.2-14.1a59.7 59.7 0 0 0-4.4-14.8 4.3 4.3 0 0 1-.4-1.1c-.1-2.1-1-.4-.5 7.9s5 20.7 5 20.7a6.3 6.3 0 0 0 .3 1.2l-1.6-1.4c-.1-.3-.1-.8-.3-1.6-.3-2.7-3.3-14.3-7.8-19.4s-6.5-6.3-5.8-4.8.8 2.3 1.3 4.1a42.7 42.7 0 0 0 4.5 9.4l7.8 12.1a2.9 2.9 0 0 0-.8-.4 54.9 54.9 0 0 1-4.1-5.8 81.9 81.9 0 0 0-8-10.4c-2.6-2.8-11.9-8.5-9.8-6.9.4.4 5.1 7.4 7.1 9.6s10.5 9.8 11.1 10.3-.5 1.5-8.3-6.3-20.1-11.9-18-10.5c.5.4 7.2 7.5 12.2 11.1s13.5 6.7 12.7 7-11.4-4.2-13.2-5.1-14.4-3.2-12.3-2.4l5.9 3.7c5.7 3.4 16.2 5.1 19.5 5.2a16.7 16.7 0 0 1 5.2.9l.6.5.5.4-1.7-.3c-1.3-.3-15.2-2.1-18.4-2.1s-10.2.7-10.2.7-1.5.8 5.1 2.6 14.1.7 17.1.4 7.8-1.1 7.9-1.1h.3l1 .9h-.3c-2.4.3-15.3 2.3-17.9 3.1s-8.4 3.1-9.6 3.6a.1.1 0 0 0 .1.1c3.4.6 14.6-.9 17.7-2s10.2-4.5 10.2-4.5h.1l.9.8c-20.4 7.6-22.8 12.3-25.2 13.7-.4.3.2.2.3.2 12-1.6 24.9-13.4 24.9-13.4l.3-.2 2.3 1.7s1.2.2.1-.5l-1.9-1.5a4.2 4.2 0 0 0 .2-.6s8.3-10.3 1.9-27.7z" fill="#f2e8dd"></path><path d="M526.4 725l-5.4-4.4c-5.1-4.2-15.2-7.3-18.5-7.8a16 16 0 0 1-5-1.7l-.6-.5-.4-.5a9 9 0 0 1 1.6.5c1.3.4 14.8 4.2 17.9 4.6s10.2.7 10.2.7 1.7-.5-4.6-3.3-13.9-2.6-16.9-2.7-7.9 0-8 0h-.3l-.9-1h.3c2.4.1 15.5-.1 18.2-.5s8.7-2 9.9-2.3.1-.1 0-.1c-3.3-1.1-14.6-1.1-17.8-.5s-10.8 3.1-10.8 3.1a3 3 0 0 1-.8-.8c21.2-4.8 24.2-9.1 26.9-10.2.4-.1-.3-.2-.4-.2-12.1-.1-26.5 9.8-26.5 9.8l-.3.3c-1.1-1.2-2.1-2.1-2.1-2.1s-1.1-.3-.1.6a9 9 0 0 1 1.6 1.7l-.2.6s-8.7 8.1-6 24.8h1.8c1.1-3 3-9.6 4.6-25.1l1 1.1c-.2.8-1.8 9.7-1.7 13.9a50.8 50.8 0 0 0 1.1 9.9h2.9c0-.5.1-.8.1-1.3.7-8.3-2-21.1-2-21.1s-.1-.7-.2-1.2l1.4 1.5v1.7c0 2.8 1.3 14.6 5.2 20.3 0 .1.1.1.1.2l3.9.2a36.4 36.4 0 0 0-2.9-9l-6.1-13.2.8.6a37.6 37.6 0 0 1 3.3 6.2 67.2 67.2 0 0 0 6.5 11.4 28.6 28.6 0 0 0 4.3 4.6l2.7.3a82.4 82.4 0 0 0-4-7.2c-1.7-2.6-9.1-11.1-9.6-11.7s.7-1.4 7.4 7.4 18.2 14.5 16.4 12.8-6.1-8.3-10.6-12.6-12.4-8.5-11.6-8.7 10.7 5.7 12.4 6.9 13.8 5.1 11.8 4z" fill="#f2e8dd"></path><path d="M559.1 729.5a61.6 61.6 0 0 0 14.4 2l-.9-1.9-4-1.7c-7.8-3-20.9-3.9-20.9-3.9l-1.2-.2 1.9-.9 1.6.4c2.5.8 13.3 2.7 20 1l-2.3-4.2-4.7.4-14.3 2.2a3.2 3.2 0 0 0 .7-.6 52.1 52.1 0 0 1 7-1.4 75.5 75.5 0 0 0 10.4-2.2l-2-3.3-11 4.9c-.7.3-1.1-1.1 9.2-5l1.4-.6-2.1-3.2c-4.6 3.2-9.1 7.6-9 7s5.1-5.5 8.1-8.3l-2.1-3a63.7 63.7 0 0 0-7.3 10.6 14.4 14.4 0 0 1-3 4.3c-.3.2-.5.4-.7.4l-.5.3a9.6 9.6 0 0 1 .9-1.5c.8-1 8.1-12.8 9.4-15.8l-2.7-3.5c-3.1 4.8-4.7 10.5-5.5 12.9s-2.2 7.6-2.2 7.7a.3.3 0 0 0-.1.2l-1.2.6a.4.4 0 0 1 .1-.3c.7-2.3 4.2-14.9 4.6-17.6s.4-5.6.5-8.1l-.7-.9c-1.9 4-4.6 12.9-4.8 15.8s0 11.2 0 11.2l-1.1.5c1.4-21.7-1.9-25.9-2.2-28.7 0-.4-.2.2-.3.3-3.5 11.5 2 28.2 2 28.2s.1.3.1.4l-2.6 1.3s-.6 1.1.6.3l2.1-1.1.5.4s5.7 11.8 24.2 13c0 0 1.9 1-.7-1.1s-6.9-5.4-23.8-12.4l1.3-.6c.8.5 8.8 4.6 12.9 5.7z" fill="#f67b7a"></path><path d="M486.3 659.7c.8-2.4 1.3-7.9 1.4-10.6l-.5-.3c-1.1 2.3-3.8 7.6-4.6 9.8s-3.5 14-3.7 14.7-1.5.3 1.6-10.3a47.5 47.5 0 0 0 1.4-16.6l-1.8-.8a89.7 89.7 0 0 0-2.9 12.6c-.8 6.2.5 15-.1 14.5s-1.8-12-1.9-14.1-4.1-14.1-3.8-11.9c0 .3 0 .4-.3 7s3.2 16.6 4.7 19.5a16.1 16.1 0 0 1 1.7 5.1 2.8 2.8 0 0 0-.1.8 1.4 1.4 0 0 1-.2.6l-.5-1.6c-.4-1.3-5.4-14.4-7-17.2s-5.5-8.6-5.5-8.6-1.4-1 .1 5.7 6.3 12.7 7.9 15.2 4.8 6.3 4.8 6.4l.2.2-.3 1.3a.3.3 0 0 1-.1-.2c-1.5-2-9.4-12.4-11.3-14.3s-6.8-5.8-7.8-6.6-.1 0-.1.1c1.2 3.3 7.8 12.4 10.3 14.6s8.9 6.8 8.9 6.8a5 5 0 0 1-.2 1.2c-16.5-14.2-21.7-14.1-24.1-15.6-.4-.2-.1.3 0 .4 7.1 9.8 23.6 15.4 23.6 15.4l.4.2-.4 2.9s.4 1.1.5-.3.2-1.2.4-2.3l.6-.2s12.8 2.5 25.1-11.5c0 0 1.9-.8-1.4-.1s-8.4 2.2-24.2 11.6l.3-1.5c.8-.4 8.8-4.3 12.2-6.9a63 63 0 0 0 10.9-11 5.1 5.1 0 0 1 .8-.9c1.7-1.1-.2-1-7.2 3.4s-15.8 14.3-15.8 14.3l-.9.8a13.6 13.6 0 0 0 .4-2 13.6 13.6 0 0 1 1.4-1c2.2-1.7 10.9-9.8 13.2-16.3s2.4-8.7 1.4-7.4l-2.9 3.2a39.3 39.3 0 0 0-6.1 8.4l-6.9 12.7s.1-.8 0-.9a38.1 38.1 0 0 1 3.1-6.4 68.2 68.2 0 0 0 5.3-12z" fill="#f67b7a"></path><path d="M449 727.2a67 67 0 0 0-2.7-15.2 2.9 2.9 0 0 1-.2-1.2c.1-2-1-.4-1.5 7.9s2.5 21.1 2.5 21.1.1.7.2 1.2a20.6 20.6 0 0 0-1.5-1.5v-1.7c0-2.8-1.6-14.6-5.5-20.2s-5.7-7-5.2-5.4.5 2.3.9 4.2a37.5 37.5 0 0 0 3.2 9.8l6.4 13s-.6-.5-.8-.5-1.6-2.6-3.4-6.2a71.3 71.3 0 0 0-6.7-11.3c-2.2-3.1-10.8-9.8-8.9-8 .4.4 4.2 8 5.9 10.4s9.3 10.9 9.9 11.5-.7 1.4-7.5-7.3-18.6-14.1-16.7-12.5 6.3 8.3 10.8 12.4 12.6 8.3 11.8 8.5-10.9-5.5-12.5-6.6-13.9-4.9-12-3.8c.3.1.3.2 5.5 4.3s15.4 7 18.7 7.4a14.8 14.8 0 0 1 5.1 1.6c.3.3.4.5.6.5a1 1 0 0 0 .4.5l-1.7-.4c-1.3-.5-14.8-4-18-4.3s-10.2-.5-10.2-.5-1.6.6 4.7 3.2 14 2.3 17 2.4 7.9-.2 8-.2h.3a3.9 3.9 0 0 0 .8 1h-.2c-2.4.1-15.6.5-18.2 1s-8.6 2.1-9.9 2.4-.1.1 0 .1c3.4 1 14.6.9 17.9.2l3.8-1.1 7.4-2.6c.1-1 1.6-9.8 1.5-14.1z" fill="#f67b7a"></path><path d="M454 714.8s.4-2-.9 1-2.9 8-4.5 25.1l1.5-.5c2.4-3.2 7.3-11.7 3.9-25.6z" fill="#f67b7a"></path></g><path d="M732.8 725.6h.3c4.8-7.7 9.4-11.5 13.7-11.5h.3c3.7 0 6.1 2.3 7.2 6.8a34.9 34.9 0 0 1-1.6 8.1c-2.8 9.6-9.9 20.8-21.1 33.6-3.4 0-7.9-5.6-13.4-16.8s-10.4-20.2-10.8-26.4c.5-4.6 2.4-6.8 5.6-6.8h2.8c3.7 0 9.4 4.3 17 13z" fill="#ffa399"></path><path d="M35.5 750h.4c6.6-12.3 13-18.4 19-18.4h.4c5.2 0 8.6 3.7 10 10.9 0 2.8-.7 7.1-2.2 12.9q-5.9 23.1-29.4 53.5-7.1 0-18.6-26.7C5.7 763.9.6 749.9 0 740c.8-7.2 3.4-10.9 7.8-10.9h3.9c5.2 0 13.2 7 23.8 20.9z" fill="#ffa399"></path><path d="M662.3 549.4h.3c5-9.2 9.8-13.9 14.4-13.9h.3c4 0 6.5 2.8 7.6 8.3a46.2 46.2 0 0 1-1.7 9.8q-4.5 17.4-22.2 40.5c-3.6 0-8.3-6.8-14.1-20.3s-11-24.4-11.5-31.9c.6-5.5 2.6-8.2 5.9-8.2h2.9c4 0 10 5.2 18.1 15.7z" fill="#ffa399"></path><path d="M49.5 391.1h.3q7.5-13.8 14.4-13.8h.3c4 0 6.5 2.7 7.6 8.2a46.2 46.2 0 0 1-1.7 9.8q-4.5 17.4-22.2 40.5c-3.6 0-8.3-6.7-14.1-20.3s-11-24.4-11.5-31.9c.6-5.5 2.6-8.2 5.9-8.2h3c3.9 0 9.9 5.2 18 15.7z" fill="#ffa399"></path><path d="M399.3 17.9h.4c5-9.3 9.8-13.9 14.4-13.9h.3c3.9 0 6.5 2.7 7.5 8.3a43.9 43.9 0 0 1-1.6 9.7c-3 11.6-10.4 25.2-22.3 40.5-3.6 0-8.3-6.7-14.1-20.2S373 17.8 372.5 10.4c.6-5.5 2.5-8.3 5.9-8.3h2.9c4 0 10 5.3 18 15.8z" fill="#ffa399"></path><path d="M182.6 530h.3c4.7-7.6 9.3-11.5 13.6-11.5h.4c3.7 0 6.1 2.3 7.1 6.9a30.4 30.4 0 0 1-1.6 8c-2.8 9.7-9.8 20.9-21.1 33.6-3.4 0-7.8-5.6-13.3-16.8s-10.4-20.2-10.9-26.4c.6-4.5 2.4-6.8 5.6-6.8h2.8c3.8 0 9.5 4.3 17.1 13z" fill="#ffa399"></path></g></g></svg>