<svg xmlns="http://www.w3.org/2000/svg" width="501.7" height="1082.2" viewBox="-0.0014055166393518448 0.0014109611511230469 501.7428283691406 1082.1422119140625" style=""><g><g data-name="Layer 2"><path d="M42.8 1074.3c-3.6 2.2-6.6 4.4-9.8 5.9-5.4 2.6-11.9 3.4-15.3-2.8a37.8 37.8 0 0 1-3.8-9.5c-2.9-14.5-5.6-29.1-7-43.9-.8-8.4-1.6-16.8-2.1-25.3-1-17.5-1.5-35-2.6-52.4-1.5-22-1.6-43.9-1.4-65.9.1-8 .1-15.9-.3-23.9a467.9 467.9 0 0 1 1.9-69c1.2-11.3 2.1-22.7 4.1-33.9 2.8-16.9 7.5-33.4 12.8-49.8 2.4-7.5 4.9-15.1 7.5-22.6A190.5 190.5 0 0 1 53.4 630a221.7 221.7 0 0 1 48-48.2 157.6 157.6 0 0 1 23.6-14.6c8.5-4.2 16.7-8.9 25.5-12.7a221.5 221.5 0 0 1 58.1-15.8 11 11 0 0 1 3.1-.4c6.7.9 13.1-1.3 19.6-1.6s11.1-.5 16.6.2c11.8 1.3 23.6 2 35.3 4.6 2.8.7 5.6 1.3 8.4 2.1 6.4 1.8 12.7 3.6 19 5.7s12.1 4 17.2 8a11.7 11.7 0 0 0 3.4 2c8.5 3.1 15.4 9.2 23.3 13.4 1.8 1 3.6 2.2 5.5 3.1a48.3 48.3 0 0 1 11.2 7.4c2.8 2.4 6.1 4.1 9.1 6.3s7.8 5.5 11.5 8.4c5.4 4.3 10.6 8.8 15.8 13.3l6.5 5.9c3.1 2.9 6.2 5.7 9.2 8.7s4 4.2 5.8 6.5c6.1 7.6 12.4 15.1 18.1 23a69.7 69.7 0 0 1 7.1 13.2c2.3 5 4.2 10.2 7.5 14.8 1.4 1.7 2.5 4.5 2.1 6.5a5.9 5.9 0 0 0 2.1 6.2 10.8 10.8 0 0 1 3.9 6.6 15.2 15.2 0 0 0 1.8 3.3c.7 1.4 2 2.9 1.9 4.2-.4 5.1 2.4 9.1 3.8 13.6s2.8 8.9 4.1 13.4c2.6 9.2 5.3 18.3 7.8 27.5a69.4 69.4 0 0 1 2 10.1c2.2 18.1 6.4 35.9 7.6 54.2.9 13.5.7 26.9 1.1 40.4.2 8.7.9 17.4 1.2 26.1s.3 17 .4 25.5.2 16.4.1 24.6-.7 17.4-1 26.1c-.2 5.8-.5 11.7-.7 17.5s-.1 10.6-.1 15.9c0 7.9.1 15.8 0 23.8-.1 5-.4 10-.5 15 0 2.1.3 4.2.2 6.4a57.4 57.4 0 0 1-.4 7.1 4 4 0 0 1-3.4 3.8c-4 .4-6.9 2.6-9.8 4.9a7 7 0 0 1-2.3 1c-4.1-4-4.9-9.3-5.1-14.5s0-11.7.2-17.5c.4-11.1 1-22.3 1.5-33.4 1.4-34.1 1.1-68.3-.5-102.5-.6-12.4-2.1-24.8-3.3-37.2a608.4 608.4 0 0 0-9.2-61.3c-1.2-5.9-2.8-11.8-4.3-17.7-.3-1.5-.9-3.1-1.2-4.6-2.3-12-6.4-23.5-10.3-35s-6.4-20.2-9.9-30.2a217 217 0 0 0-7.9-20.8c-7-14.5-14.6-28.8-24.1-41.9-7.3-10.1-16.7-18.4-26.2-26.5-7.2-6.1-14.9-11.8-22.2-18s-15-9.9-23-14-18.8-8.5-28.2-12.7a65.5 65.5 0 0 0-7.4-2.7c-12.1-3.2-24-6.8-36.2-9.3a144.6 144.6 0 0 0-45-2.4c-11.6 1.2-22.9 4.3-34.2 7.1-24 5.9-44 19.1-63.5 33.4-5.4 3.9-10.6 8-15.9 11.9a126 126 0 0 0-17.1 15.5c-5.4 5.8-10.6 11.7-15.6 17.9S68 661 64.2 666.1a27.2 27.2 0 0 0-4.3 8.7c-1.3 4.7-4.3 9-6.4 13.5-1.4 2.8-3 5.7-3.7 8.7s-1.6 5.9-4.4 8a5.9 5.9 0 0 0-1.4 5c1.2 4.4-.2 8.4-1.1 12.5-.4 2.3-1.2 4.5-1.8 6.8a33.5 33.5 0 0 1-3.7 9.5c-3.7 5.7-3.6 12.7-5.1 19.1-.7 3-.6 6.3-.9 9.4s-.7 5.2-1.1 7.8a35.5 35.5 0 0 0-.6 5.5c.3 7.1-.9 14.2.6 21.3a21.8 21.8 0 0 1-.9 11.8 27.1 27.1 0 0 0-.9 8.5c.2 5.8.4 11.6 1.7 17.3a35.5 35.5 0 0 1 .6 10.3c-.6 8.7-.2 17.3-.2 26-.1 11.1.4 22.2 1.3 33.2.6 7.4-1.2 14.7.1 22s.1 15.8 2.1 23.5c-1.5 5.6 2.2 11.2.2 17-.4 1.1.1 2.6.2 3.9.1 7.4 1.3 14.6 1.6 22s1.3 14.7 2.1 22.1a14.9 14.9 0 0 0 .9 3c.5 1.2 2 2.5 1.7 3.4-1.2 3.8 2.5 6.9 1.3 10.5-1.8 5.3.6 10.8-.7 16.1a11 11 0 0 0 1 6.9c1.5 3.6 1.9 7.1.4 10.8-.5 1.4 0 3 0 4.1zm452.4-245.5l-.8-1.1c-.1.2-.4.5-.3.6a2.6 2.6 0 0 0 .7 1.1zm.6 30.8v.7l1-.3c-.2-.2-.2-.5-.4-.5s-.4.1-.6.1zM39.2 732.5l-.6-1.1c-.2.1-.5.2-.5.3s.1.9.1 1.3zm457.4 266.4c-.2.2-.4.2-.5.4s0 .5 0 .7l.9-.5z" fill="#ad5432"></path><path d="M158.7 710c-.4.6-1.3 1.3-1.2 1.9.5 7.7-3.9 14-5.8 21-2.4 8.6-5.8 16.9-8.9 25.6l-4.7 1.7 2.7 4.8-2.8 2.3a35.4 35.4 0 0 1 .8 4.5c.1 1.3-.6 2.6-.5 3.9.3 3.3-1.1 6-2.4 9s-.9 6.1-1.7 9.1c-.2 1-1.7 1.7-2.7 2.6l2.1 2.5c-.3 2.3-.6 4.6-2.9 6.1a5.8 5.8 0 0 0-2.2 5.6c.1 1.5-.8 3.1-.9 4.6s-.3 3.4.5 4.5c2.2 3.2 1.8 6.6 1.4 10-.5 5.8-1.2 11.6-2 17.4s-1.8 12.5-2.6 18.8c-.4 2.7-.6 5.2-2.6 7.3a5.8 5.8 0 0 0-.7 7.4c1 1.6.9 2.8-.5 4.1s-.4 1.4-.3 2.1c.4 3.3 1.4 6.6-1.2 9.5 2.2 3.1-1.1 6.3.2 9.7a12.2 12.2 0 0 1 .1 7.8c-1.2 4.8-.4 9.4-.1 14.2a93.2 93.2 0 0 1 .2 16.7 106 106 0 0 0-.5 14.9c.2 7.6.7 15.2-1.2 22.8a6.5 6.5 0 0 0-.1 3.9c1.5 4.4.5 8.9.6 13.4l.3 29.4c.1 2.9-.2 5.8-.1 8.7s.4 6.3.5 9.5c.3 6.3.6 12.7.7 19 .1 3.6-1.5 6.7-3.7 9.4a5.7 5.7 0 0 1-6.7 2 52.1 52.1 0 0 1-6.8-24.8c-.5-12.9-.5-25.9-.3-38.9.8-43.7 1.5-87.5 2.6-131.2.5-21.4 1.5-42.9 2.8-64.3a267.2 267.2 0 0 1 4.6-37.8c4.4-21.8 9.5-43.4 17-64.4a154.6 154.6 0 0 1 16.8-33.2c5.2-7.6 10.2-15.5 16.8-22.1 2.2-2.2 4.6-4.3 7.1-6.4 8.5-7.2 18.7-11.8 28.5-17s23.9-8.7 36.7-9.1a56.5 56.5 0 0 1 19.5 2.7 18.2 18.2 0 0 0 3.8 1.1c11.1 1.3 20.7 6.6 30.3 11.4a89.9 89.9 0 0 1 16.9 11.8 251.2 251.2 0 0 1 36.3 36.6c4.9 6.1 8 13.1 11.8 19.7 1 1.8 1.2 4.1 1.6 6.2.9 5.3 2.3 10.3 7.2 13.6a4.1 4.1 0 0 1 1.9 4.8c-1.3 3 .2 5.2 1.2 7.6a149.2 149.2 0 0 1 9 29.4 66.1 66.1 0 0 0 2.9 10.8c4.6 12.2 6.7 24.9 8.8 37.7s3.6 24.6 5.4 36.9c.8 5.2 1.4 10.5 2.1 15.7s1.3 7.3 1.7 11 .6 8.4.8 12.6a5 5 0 0 1-1 2.1c-.6 1.4-1.4 2.8-1.9 4.2-1 3-.5 3.6 3.7 4.2a14.5 14.5 0 0 1 .3 3c-1.4 6.9-.2 13.6 1.1 20.3a60.4 60.4 0 0 1 1.2 9.4c.5 13.8.6 27.5 1.2 41.3.4 8.4 1.7 16.8 2.3 25.3a100.3 100.3 0 0 1-.3 13.4c-.2 3.2-.3 6.2.9 9.3a16.8 16.8 0 0 1 .3 11.7 21.3 21.3 0 0 0-.7 9.4c1 6.4-.3 12.6-.8 18.6-2.5 1.9-4.8 3.5-6.9 5.2-7.9-4.8-9.7-12.6-9.9-21.2-.1-7.1-.2-14.3-.4-21.4-.8-23.1-1.5-46.1-2.4-69.1-.5-12-1.2-23.9-2.3-35.7-.8-9.5-2.2-19-3.5-28.4-1.8-12.8-3.7-25.7-5.7-38.5-1.6-9.4-3.6-18.7-5.3-28.1-3.5-18.7-9.3-36.9-14.3-55.2-1.5-5.4-3.6-10.5-5.6-15.7-5.2-13.9-9.5-28.2-16.4-41.3a172.9 172.9 0 0 0-20.1-30.5c-7.9-9.6-18.3-15.9-29.1-21.7a82.6 82.6 0 0 0-38.8-10.2 84.3 84.3 0 0 0-39.9 8.8c-7.4 3.7-14.6 7.4-20.9 12.8-7.9 6.8-15 14.2-18.6 24.3-.6 1.6-1.9 3-2.9 4.6v.2c-1.7-2-1.4.2-1.8.9zm203.8 23.4a.7.7 0 0 0-.4.5c0 .2.2.4.3.6l.7-.8zM135.4 781l.3-.4h-.5zm257.8 105.9l-.2.4h.4z" fill="#d58882"></path><path d="M444.6 849.2a27.2 27.2 0 0 0-1.1 3.8 5.5 5.5 0 0 0 .4 2.4l3.3.3c.4 6.1 1.7 12.3 1.1 18.5-2.6.1-1.4-2.1-2.5-2.7s-.8.5-.8.8c-.5 4.2 1.7 7.6 4.3 11l-3.1 3.4c6.1 8.8 4.4 7.3 2.2 16 1.6 1.9 2.9 3.9 2.8 6.8s.7 8.4.9 12.7q1 33.6 1.9 67.4c.2 5.8-.1 11.6 0 17.4.1 3.1-.6 5.7-2.9 7.8-.5.5-.6 1.4-1 2.6l4.1 2.9c1.7 14.5.7 29.5 1.7 44.4-3.6 1.9-7 1.6-10.4 2a23.9 23.9 0 0 1-5.9-16.1c-.2-20.4-.9-40.7-1.4-61.1s-.5-42.9-1.3-64.3-2-40.2-3.2-60.3c-1-15.9-3.7-31.5-6.9-47.1-4.3-21.6-9.9-42.8-15.7-64-3.6-13.1-9.3-25.3-14.6-37.7-3.1-7-6.4-13.9-9.6-20.9a23.9 23.9 0 0 0-2.1-3.4c-5.1-7.3-10.5-14.6-15.5-22-6.7-9.9-14.6-18.7-22.7-27.4a229.8 229.8 0 0 0-25.8-23.5 48.6 48.6 0 0 0-5.3-3.5c-10.1-6.2-20.6-11.6-32.2-14.9-16.2-4.7-32.5-7.5-49.3-5.8a133.8 133.8 0 0 0-47.1 13.3c-11.4 5.6-22.6 11.5-32.7 19.4-3.3 2.6-6.4 5.4-9.6 8.2l-9.1 7.6-.7.3h-.5l1.3-.4c-5 5.7-10 11.4-15.1 17-.8.9-2.3 1-3.9 1.7-.2 3.9-2 7.5-4.5 11.1s-4.9 9.3-7.1 14.1c-3.7 8.2-7.3 16.4-10.7 24.7a141.6 141.6 0 0 0-9.6 35.1c-3.1 20-6.4 40.1-9.6 60.2-.4 2.3-1.3 4.6-1.3 6.9a8.2 8.2 0 0 1-4.2 7.2c2 4 1.3 7.9.7 11.8-.2 1-3 .9-2.2 3.2s0 3-.8 4.5a2.2 2.2 0 0 0 0 2.2c3 3.3 1.2 7.1 1.1 10.6-.3 8.9-1 17.9-1.7 26.8-.9 10.5-.6 21.1-.6 31.6.1 2.6.5 5.3.5 7.9s-.1 6.3-.2 9.5-1.4 5.9.5 9c.8 1.3.4 3.6.1 5.4s-1.8 4.5-1.7 6.7 1.6 4.3 2.4 6.5a3.7 3.7 0 0 1 .3 1.5c.1 2.6-2.2 4.6-1.4 7.5s1.3 4.5.2 7a4 4 0 0 0 .3 3.7c2.1 2 .9 4.5 1.6 6.7-2.7 3.5-2.5 7.5-1.2 11.3s2.1 7.1.6 10.8a5.8 5.8 0 0 0 .1 3.9c1.7 3.9-.4 8.5 2.1 12.2.1.2 0 .5.1.8.8 3.4-3.1 6.8-.1 10.3a101.2 101.2 0 0 1-.5 11 30.3 30.3 0 0 0 2.3 15.5 12.3 12.3 0 0 1 .8 8.4c-.7 2.7.2 5.8-2 8.6-2.6-.2-3.6-2.2-4-4.2-1-4.6-1.8-9.3-2.6-14-1.7-11.5-3.6-23-4.1-34.6-.7-15.1-1.1-30.2-1.8-45.3-.7-12.9-1.6-25.9-2.5-38.8-1.3-17.7-2.4-35.4-1.5-53.2.3-5.8.4-11.6.7-17.5a627.3 627.3 0 0 1 9.2-82q5.3-28 9.8-56.3c2.2-13.2 6.7-25.6 12.1-37.7 2.5-5.6 5-11.1 7.7-16.6a61.4 61.4 0 0 1 5.4-9.7c9.1-12.7 17.9-25.7 29.3-36.5a105 105 0 0 1 17.4-13.7c5-3.1 9.8-6.3 14.6-9.6a120.7 120.7 0 0 1 26.1-13.2c4.5-1.7 8.7-3.8 13.1-5.5 10.8-4.2 22.1-5.8 33.3-7.2a38 38 0 0 1 12.6.9c5 1 10 .3 14.9 1.2l14.8 3.1a168.7 168.7 0 0 1 30.6 10.8c12.6 5.6 22.4 14.8 32.6 23.6a134.3 134.3 0 0 1 20.6 22c1.7 2.3 4.1 4.2 6 6.4 3.2 3.8 5.9 8.1 8.8 12.2 5.7 8.1 12 15.9 18 23.9a9.8 9.8 0 0 1 2 3.4c.3 1.9 1.4 3.1 2.6 4.6a13.9 13.9 0 0 1 2.8 7.1c.1 3 1 5.2 3.7 6.2s3.3 2.6 4.2 4.5c2.5 5.3 5.2 10.4 7.8 15.6a61.2 61.2 0 0 1 3.1 5.6c5.8 14.7 11.5 29.5 13.8 45.4.4 2.2 1.9 4.5-.2 6.8-.2.2 0 1.4.1 1.4 3.3.9 2.4 3.7 2.8 5.8.9 3.9.8 3.9-.1 7.2l.8.2 1.5-.2c.3.4.8.7.9 1.1 1.5 7.3 2.9 14.5 4.4 21.8 1 5.1 2.4 10.3 3.1 15.5.4 2.5-.4 5.2-.7 7.8h.3a3.9 3.9 0 0 0 0 5.1zm2.4 43.2c-.1.4-.1.8-.2 1.2h.8a4.9 4.9 0 0 0-.1-1.2h-.5zm5 148.3v.9c.1-.1.3-.2.3-.4s-.2-.3-.3-.5zm-28.1-281.6l.6.4v-.6zM63.8 897.9a4.6 4.6 0 0 1 .3-.9c-.2 0-.5 0-.5.1a4.5 4.5 0 0 0 .2.8z" fill="#df894d"></path><path d="M161 905.3c3.3 3 2.5 6 .1 8.8.7 2.7 1.8 5.3 1.8 7.8.2 5.8-.2 11.6-.4 17.4s-.3 12.1 0 18.2c.4 10.1-.1 20.1-.1 30.2 0 2.9-2.7 4.3-3.5 6.7l1.9 1.8a7.6 7.6 0 0 1 .1 1.5c-.6 1.7-1.6 3.4-1.8 5.2s-.6 4.1.3 5.3c3.1 4 1.3 6.9-1.4 9.8l-.5 1.2 2.3 4.7c-.6 1.7-1.5 3.7-2 5.7s-1.2 3.5 1 4.9c.7.4 1.1 1.9 1.1 2.8-.2 6.9.7 13.7-2.1 20.3-1.8 4.1-2.5 8.5-3.8 12.7a2.7 2.7 0 0 1-1.8 1.3 2.6 2.6 0 0 1-2.1-.8 6.2 6.2 0 0 1-1.2-2.9 41.5 41.5 0 0 1-.9-7.8c-.5-20.7-.8-41.3-.2-62 .8-26.2.7-52.4 1.5-78.6.5-18.3 2.1-36.5 2.7-54.7s3.2-33.8 5.4-50.5a230.7 230.7 0 0 1 4.7-23.4c2.8-11.5 5.6-23.1 9.1-34.5 3.9-13 10.5-24.8 17.4-36.4 3.1-5.1 19.3-20.4 24.9-23.1 10.4-5.1 21-10 32.7-11.5a40.2 40.2 0 0 1 28.7 6.9 108.1 108.1 0 0 1 27.6 27.2 27 27 0 0 1 3.5 7 22.8 22.8 0 0 0 4.4 8.1 26.3 26.3 0 0 1 4.8 10.6 11.5 11.5 0 0 0 3.1 6.1 9.7 9.7 0 0 1 1.5 1.9c4.8 6.1 8.1 12.8 8.6 20.7a10.9 10.9 0 0 0 1.3 3v.7l.3.4a6.5 6.5 0 0 1-.4-1.3 10.8 10.8 0 0 1 4.4 6.3c.9 2.8 1.7 5.6 2.3 8.4 1.5 5.9 3.3 11.8.6 17.8-.4.8.1 2 .2 3.2l4.1 1.5c1.2 4.9 2.3 10.1 3.8 15.1a58 58 0 0 1 2.4 10.8c.5 4 .9 7.8-1.9 11.2 1.3 3.1 7.6 4.6 2.6 9.1 2.5 1.5 4.2 3 3.7 5.9-1.2 6 2.2 11.8 1.2 17.8 3.4 4.9 2.3 10.7 3 16.1s.6 10.5.9 15.8a2.2 2.2 0 0 0 0 .8 65.7 65.7 0 0 1 .6 18.8c-2.7.9-.9-2.7-3.1-2.5-1.8 3.3-1.5 7.2-1.3 11s2.9 2.7 4.8 4.2v6.1l-3.1-.2c-2.4 6.3.2 12.6-.4 18.6 4.8 4.2 4.9 4.2 5.2 10.1.5 9.2 1.2 18.4 1 27.7-.1 5.2.7 10.4 1 15.7.2 2.3.3 4.7.4 7.1.2 6.8.3 13.7.7 20.5a18.1 18.1 0 0 1-3 11.6c2.5 2 4.1 4.2 3.7 7.5s-1.8 4.5-4.5 4.6-4.7-.4-6.9-.5c-5.2-3.6-7.1-8.3-7-14.4.3-14.3.1-28.6 0-42.9-.1-5.8-.7-11.6-1-17.4s-.8-11.6-.7-17.4c.5-21.7-.7-43.4-1.8-65-.9-17.5-3.2-34.8-5.3-52.2-1.5-12.6-3.4-25.1-5.6-37.6-2.8-15.4-6.1-30.6-9.4-45.9a72.8 72.8 0 0 0-4.1-11.9c-2.7-6.3-5.6-12.5-8.5-18.8s-4.9-10-7.1-15.1c-5.8-13.2-14.8-23.7-26.4-32.2s-22.5-9.6-35.3-5a83 83 0 0 0-26.4 15.6c-10.7 9.3-17.3 21.3-23.5 33.5-1.2 2.4-2 5-3.1 7.3-4.5 9.4-6.7 19.5-9.4 29.5-.6 2.3-1 4.6-1.8 6.9a70.3 70.3 0 0 0-4.6 23.1c0 1.4.3 3-.4 3.9-4 5.1-2.7 11-2.9 16.7a52.9 52.9 0 0 1-.5 5.6c-.4 2.3-4.2 2.6-3.6 5.7s.9 4 1.4 6c-2.2 1.3.3 2.7 0 4.1s-.5 2.5-.8 3.8-.1 1.9-.6 2.2c-5 3.8-1.7 8.5-.8 12.3 1.4 5.9 2.2 12 .1 17.4-.9 2.2-.4 4.1.1 6.1a3.7 3.7 0 0 1-2 4.7c.1.1 0-.1 0-.1zm193.5 18.9c.3-.4.8-.7.8-1.1s-.5-.7-.7-1.1l-1.1 1.5zm-196.6 128l.3-.6-.9-.4a1.7 1.7 0 0 0 .1.7c.1.2.3.2.5.3zm200.4-12.6l.3.5.3-.5zm.1-20.7v-.8h-.6v.7zm-2.2-33.9l.2.5.2-.4zm-23.7-197.3h.6l-.3-.6zm26 258.5a1.4 1.4 0 0 1-.2-.6l-.4.8zm-4.8-131.9h-.5l.2.5z" fill="#f7c6b8"></path><path d="M240.7 267.7a22.7 22.7 0 0 0 2.6-3.5c5.6-9.3 12.4-17.8 20.8-24.3 12.8-9.7 26.7-17.1 43.9-13.6 7.1 1.5 14.4 2.8 21.8.2 2.3-.8 6.1 1.3 8.5 3 14 9.9 22.9 23.2 24.8 40.4 1 8.9-.5 17.8-2.6 26.5-2.9 11.9-5.4 23.9-8.1 35.9-.3 1.1-.2 2.3-.7 3.2-3.5 6.7-3.3 14.3-5.4 21.3-2.8 9-4.2 18.6-10.9 26-.8.9-1 2.4-1.4 3.7-1.4 4.3-3.9 7.7-7 11.2-4.5 5.2-9.8 10-13 16.5a43.2 43.2 0 0 1-8.5 11c-3.8 3.7-6.1 7.6-6.5 12.8a8.5 8.5 0 0 1-1.2 3.7c-2.7 4.3-5.5 8.5-8.4 12.7-.2.3-.7.4-1.5.8l-4.7-4.8c-.8.1-1.4.1-1.6.3-3.6 5.5-7.5 10.9-10.8 16.6-1.4 2.3-1.7 5.4-2.7 8.1a64.3 64.3 0 0 1-3.2 7.1c-3.6 6.8-10.7 11.7-11.5 20.3-.1 1.4-1.2 2.8-2 4.5-6.3-1.4-12.1-2.9-15.6-9.2-1.5-2.6-3.3-6-7.9-4-.8.4-2.8-1.1-3.8-2.1-4.6-4.9-9-9.9-13.5-14.9-2.6-2.8-4.9-5.9-7.8-8.2-15.5-12.8-28.4-27.8-39.8-44.2-14.7-21.2-27.2-43.6-35.7-68.1a190.8 190.8 0 0 1-10.9-57.8c-.3-12.7.9-25.4 5.3-37.6 2.7-7.3 4.3-14.9 8.2-21.9 2.9-5.3 6.1-10.3 11.2-13.9 1.2-.9 2.7-1.7 3.5-3 2.7-3.9 6.6-4.8 11-5.2a81 81 0 0 1 46.6 8.9c11.6 6.1 20.8 14.4 26 26.9a33 33 0 0 0 12.5 14.7z" fill="#f7c6b8"></path><path d="M160.9 43.4a47.1 47.1 0 0 0-3.3 6.3c-3.1 7.2-4.3 15.1-5 22.9-1.1 13.4-.6 27.1 3 40a76 76 0 0 0 26.4 39.7c.1.3.3.6.7.5a38.6 38.6 0 0 0 12.2 6.8c18.9 7.1 35.5 11.1 54.2 10s35.3-8.5 49.2-20.4c8.1-6.9 15.6-14.8 20.6-24.3s7-18.8 8.1-28.7c2.5-23.1-1.5-47.3-13.7-67.1a54.1 54.1 0 0 0-11.7-13.9c-5.3-4.4-11.8-7.2-18.4-9.4-30.7-10.2-63.2-6.6-91.6 8.1a34.5 34.5 0 0 0-5.6 3.8c-9.3 7.6-18.8 15.4-25.1 25.7z" fill="#ad5432"></path></g></g></svg>