<svg xmlns="http://www.w3.org/2000/svg" width="1080" height="1031.9" viewBox="-0.030686378479003906 -0.039214394986629486 1080.038818359375 1031.939208984375" style=""><g><g data-name="Layer 2"><path d="M495.3 1031.9h-1.2c-32.8 0-64.3-5.6-94.4-14.8-87.4-26.8-162-85.4-214.3-136.7L170.9 866C137 833.2 102 799.2 78.6 758.9c-1.2-2-2.4-4-3.5-6.1-24.9-45.3-33.3-96.1-41.5-145.6l-.4-4.1h-.4a537.9 537.9 0 0 1-23.3-72c-2.5-11.7-4.8-22.9-6.4-34.5-9.6-70.7 2.9-140.9 37.2-208.5a125 125 0 0 1 9.7-16.5c-1.4-46.9 21.8-92.1 60.1-117.9 8.1-5.8 15.9-11.8 23.7-17.9 16.5-12.9 33.8-26.1 52.4-37.2 40.1-24 78-41 116-52.6q8.6-2.6 17.1-4.8c12.9-5.7 25.8-11.2 39.2-16.4a340.4 340.4 0 0 1 36.3-13.9l-2 1.7-3.1 2.6-3.3 3.4-2.5 2.6-2.8 3-3 3.4-3 3.4-3.1 3.7-3 3.6-3.1 3.8-2.9 3.4-2.7 3.4-2.6 3.6-2.4 3.3-2.2 3.4-2.2 3.6-2 3.6-2.2 3.8-2 3.3-1.8 3.5-1.9 3.3-1.7 3.4-1.6 3.4-1.6 3.1-1.5 3.2-1.4 3-1.8 4.7-1.6 4.4-1.6 4.1-1.2 4.3-1.3 4.2-1.3 4.8-.9 3.3-1 3.5-.9 3.5-.7 3.6-.6 3.1-1.8 8.3-.9 4.7-1.3 4.6-1.4 4.7-1.2 4.8-1.4 4.6-1.4 4.8-1 4.5-1.2 4.4-1 4-1 3.7-.7 3.6-.6 3.2-1 3.9-.8 4.4-.6 4-.8 3.7-1 2.9-2.4 2.6-3 1.6-3.6 1.2-4.3 1.2-3.3.9-3.9 1-4.5.8-4.5 1.2-4.9 1-5.5 1-5.7 1.2-6.1 1.1-6.4 1.2-6.7 1.3-6.1 1.4-6.1 1.2-6.3 1.3-5.8 1.3-5.8 1.5-5.7 1.4-5.8 1.6-5.9 1.5-5.6 1.6-5.7 1.5-5.2 1.4-5.1 1.8-5 1.7-3.5 1.3-4 1.6-3.6 1.8-3.3 1.3-3.2 1.6-3 1.6-3 1.7-3 1.9-3 1.7-5.5 4.3-3.2 1.7-4 2.8-3.9 2.6-3.9 3.1-3.8 2.5-3.7 2.7-3.6 2.7-3.4 2.2-3.5 2.2-3.2 2.2-2.8 1.7-3.8 2.4-3.2 2-3.3 2.2-3.3 2.4-2.9 2-2.8 2.5-3.1 2.6-2.5 2.6a28.1 28.1 0 0 0-3.4 3.8h.2c-.7.5-.8 2.8-.8 6.4l2.2 3.6 3.1 3.4 2.9 2.6 3.4 2.8 4 3.2 4.3 3.3 4.7 3.6 4.9 3.6 5.1 3.7 4.9 3.7 5.1 3.8 5.2 3.9 2.9 2.3 2.8 2.1 2.9 2.3 3.2 2.4 3.2 2.4 3.2 2.5 3 2.4 3.2 2.1 2.8 2.3 3.4 2.3 3.2 2.2 2.8 2.2 5.5 4 5.1 3.5 4.5 3.4 4.3 3 4.1 3.1 3.9 2.9 4.1 2.8 3.7 2.5 3.5 2.3 5.8 4 3.9 2.4 4 2.4 3.3 2 3.1 2 3.8 1.8c-4.2 11.1-7.9 22-11.4 33.3-6.5 20.9-12.5 41.9-18.4 63l-1.3 5.3-1.5 5.2-1.7 5.4c-3.3 10.3-6.5 20.7-9.4 30.9-1.8 5.6-3.2 11.1-4.6 16.8s-2.2 9.2-1.3 14v4l-.4 4-.5 4v11.5l.2 3.6-.4 6.6 1.2 4.6c.3 0 3.5 2 3.6 2l4.7 1.1h3.8l5.2-.2c10.4 4.3 22.7 1.5 29.8-7l5.1-1.2 3.5-.9 3.4-.8 3.6-1 3.5-.8 3.6-1 3.6-1 3.5-.9 3.4-.9 6.5-2 6.4-1.9 6.2-1.9 6.2-1.7 6-1.8 5.8-1.9 5.7-1.7 5.5-1.8 5.2-1.6 5.3-1.7 5.1-1.7 5.1-1.8 5.5-1.7 5.3-2 5.4-1.7 5.4-1.6 4.7-1.7 4.5-1.8 4.9-1.7 4.5-1.7 4.8-1.8 4.4-2 4.5-1.8 4.3-1.7 4.5-2 4.6-2 4.2-1.8 4.4-1.8 3.9-1.6 3.6-1.4 3.4-1.3 4-1.6 3.5-1.2 4-1.3 4-1.3 3.3-1.2 3.7-.8 3.5-.7 6.6-.8 3.9.5 4.2.3 4 .4 4.6.5 4.9.6 4.9.5 3.7.5 3.4.4 4 .4 4.6.4 4.7.8 5 .2 5.1.7 4.8.3 4.9.3 4.9.5 5.2.5 5.2.7 6.1.8 5.7.5 6 .6 5.9.6 5.8.8 5.9.6 6 .4 6 .6 6.1.4 6.7.8 5.8.3 6 .4 5.9.9 5.5.4 5.4.8 5.6.6 5.9.4 5.8.2h11l5.3-.2 5.4-.3h5.3l5.6-.4 5.6-.4 5.2-.3 5-.5 4.7-.6 4.1-.4 3.6-.5 5.2-.5 4.5-.6 4.5-.5 4.2-.8 4.1-.8 4.4-.9 3.7-.8 3.7-1 4-1.2 3.6-1.3 6-3.4c.7-1 1.7-3 1.9-3.2l1.4-3.9 1-4.7.6-3.6.2-4.2v-9.5l-.2-5.3-.2-5-.7-5.4-.4-5.6-.5-5.5-1-5.9-.9-5.5-1.1-5.5-1.4-5.6-1.5-5.6-1.3-5.7-1.8-5.5-2-5.7-2-5.3-1.7-5-2.1-5.2-2-4.9-1.9-4.6-1.8-4.6-2-4.4-1.8-4-1.7-3.8-1.7-3.9-1.8-3.8-1.5-3.6-1.6-3.6-1.6-3.3-1.4-3.4-1.4-3.6-1.6-3.7c-.3-.9-1-2.1-1.5-3.6l-1.3-4.4-1.5-4.6-1.5-4.3-1.3-4.6c0-.2-1.2-3.8-1.2-3.8l-1.2-3.8-1.2-4-3.8-3 .8-7.7-1.2-3.4-2-6.6 1.2-3.5 2-3.4 2-2.9 3-3.6 3.6-3.7 4-4.1 4-3.9 3.7-3.7 3.7-3.8 4-4a44.9 44.9 0 0 0 4-3.7l3.9-3.7 3.7-3.6 3.3-3.6 3.6-3.6 3.2-3.4 3.2-3.5 3.2-3.6 3.1-3.6 2.8-3.2 3-3.3 3-3.5 2.9-3 2.8-3.4 2.8-3.2 2.6-2.9 2.6-2.9 2.2-2.9 2.3-2.8 2-3 2.1-2.9 2.3-2.9 2.1-3.2 2-2.9 2.9-4.3 2.4-3.7 2.2-3.6 1.8-3.2 1.8-2.9 1.8-3.6 2.4-3.5 2-3.5 2-3.3 1.9-2.9 1.8-2.9 2.3-3.2 2-2.8 2.1-3.1 2.6-3c1.4-.6 3-5 2.9-6h-.2c.3-.6 1.2-3.1 1.5-3.8l-.5-3.4v-.7c0-1-2.7-4.8-3.2-5.3a27.4 27.4 0 0 0-2.8-2l-3.4-1.8-3.9-1.7-4.3-1.6-4.7-1.6-3.5-1.2-3.9-1.2-3.6-1.2-4.2-1.2-4.7-1.2-4.4-1.3-5-.8-5-1.2-5-.7-5.5-.6-5.3-.7-5.3-.8-5.3-.7-5.6-.8-5.2-.5-5.6-.8-5.2-.4-5.4-.8c-.3.1-1.2.1-5.2-.3l-4.8-.4h-19.6l-5.6.3-5.5.8-5.6.2-5.5.7-5 .7-4.9.4-4.9.5-4.4.8-4.5.3-3.9.5-3.9.4-3.7.4-4 .5-3.6.3-4.1.5-3.6.4-3.6.3-4.6.5-3.8.7-4.2.4-4.2.7-3.5.4-3.8.5-3.7.4-3.5.5-6.7.8h-3.5l-3.5-1.1-2.9-1.7-2.9-2-2.4-2.5-2.7-3.2-1.8-2.8-2.3-3.4-2.1-3.5-2.3-4.3-1.7-3.1-2-3.4-1.9-3.6-2.1-3.5-2.5-3.7-2.7-4.1-2.9-4.2-3.1-4-3.3-4.3-3.7-4.4-4-4-4.4-4.3-4.6-4.4-4.9-4.2-4.9-4-4.9-4.3-5.1-4.1-5.2-4.1-4.9-4-5.1-3.9-4.5-3.7-4.2-3.6-4-3.5-4-3.6L431 36l-3.7-3.2-3.2-3.2-3.4-3-2.6-2.4-3.9-3.5-5.6-4.9-5.4-5.7-2.4-1.1c6.1-1.9 12.6-3.7 19-5.2a153.2 153.2 0 0 1 88.1 6c62.8-7.2 119.6-12 176.2 2.5 35.8 9.3 67.7 28.6 98.9 47.4 16 9.4 31.8 19 48.3 27.3l-6.8-2.5c36.7 17.4 63.4 33.6 87 51.7 32.4 25.4 62.3 56.3 91.6 94.6 31.5 41.3 49.1 87.2 62.3 126.7a281.6 281.6 0 0 1 10.9 48.3c4.7 34 4 68.7 2.9 101.2-2 58.5-5.2 115.6-19.8 171.8-14.1 54-41.4 104.9-80.8 150.6-29.3 34.4-59.9 59.5-92.9 76.6a297.4 297.4 0 0 1-63.5 24.7c-9.4 7.5-19.3 14.7-28.8 21.2-38 27-84 45.2-141.1 56.1-15.7 3-31.7 5.5-47.4 7.9-12.1 1.7-24.3 3.7-36.3 5.9l-17.4 3c-17.9 3.5-36.4 7.1-55 7.1z" fill="#3a6373"></path><path d="M176 655.4l-5.2.2H167l-4.6-1.1c-.5-.1-3.5-2-3.7-2a40.5 40.5 0 0 0-1.2-4.7l.3-6.5v-7.2l.2-4.2v-3.7l.6-4 .2-4V614c-.8-4.6.1-9.4 1.5-13.8s2.7-11.3 4.5-16.9c2.6-10.2 6-20.6 9.3-30.9l1.7-5.4 1.4-5.2 1.4-5.3c6-21.1 11.9-42.1 18.3-63 3.4-11.3 7.3-22.2 11.4-33.3l-3.9-1.8-2.9-1.9-3.3-2.1-4-2.4-3.7-2.4-6-4-3.5-2.3-3.6-2.5-4.1-2.8-3.9-2.8-4.4-3.2-4.1-3-4.7-3.4-4.9-3.4-5.6-4.1-3.1-2.2-3-2.2-3.2-2.3-3-2.3-3-2.1-3.4-2.4-2.9-2.5-3.3-2.4-3.1-2.3-3-2.4-2.8-2.1-2.8-2.3-5.2-3.8-5.2-3.9-5.1-3.7-4.9-3.9-4.9-3.4-4.8-3.6-4.4-3.3-3.8-3.2-3.2-2.8-3.1-2.6-3.1-3.4-2.2-3.6c-.2-3.7.1-5.9.8-6.4h-.3l3.5-3.8 2.5-2.6 3.1-2.6 2.9-2.5 2.6-2 3.5-2.3L81 305l3.3-2 3.8-2.4 2.9-1.7 3.2-2.3 3.4-2.1 3.5-2.3 3.6-2.6 3.7-2.7 3.7-2.5 4-3.1 3.8-2.6 4.1-2.8 3-1.7 5.8-4.3 2.9-1.7 2.9-1.9 3-1.7 3-1.6 3.2-1.6 3.5-1.4 3.4-1.7 3.9-1.6 3.6-1.2 5-1.8 5.1-1.6 5.2-1.5 5.6-1.6 5.8-1.5 5.8-1.6 5.7-1.6 6-1.4 5.7-1.4 5.8-1.4 6.2-1.4 6.1-1.1 6.1-1.4 6.5-1.3 6.7-1.1 5.8-1.2 6-1.2 5.5-.9 4.9-1.1 4.5-1 4.4-1 4-.9 3.2-1.1 4.3-1.2 3.6-1.2 2.9-1.5 2.7-2.4.8-3.2.9-3.6.7-3.9.7-4.5.8-3.9.8-3.2.6-3.6 1-3.7 1-4 1.3-4.4.9-4.5 1.4-4.8 1.4-4.6 1.4-4.8 1.3-4.6 1.2-4.8 1.1-4.5 1.7-8.2.5-3.4.8-3.5.9-3.5.8-3.5 1-3.3 1.3-4.8 1.3-4.2 1.2-4.3 1.8-4.1 1.4-4.4 1.8-4.7 1.4-3 1.6-3.2 1.5-3.1 1.7-3.5 1.6-3.3 2-3.2 1.7-3.6 2-3.3 2-3.9 2.3-3.4 2.1-3.7 2.3-3.4 2.4-3.3 2.5-3.5 2.8-3.4 2.8-3.5 3.1-3.8 3.2-3.6 2.9-3.8 3-3.3 3-3.4 2.8-3 2.6-2.6 3.1-3.4 3-2.6 3.1-2.4a16.1 16.1 0 0 1 3.3-2l4 1.8 5.6 5.8 5.6 4.9 3.7 3.3 3 2.7 3 2.8 3.5 3.3 3.4 3.2 3.8 3.3 4 3.6 3.8 3.5 4.4 3.6 4.7 3.7 4.9 3.9 5.1 4.1 5.1 4 4.8 4 5.1 4.4 4.9 4 4.8 4.2 4.7 4.4 4.2 4.3 4.3 4 3.7 4.3 3.3 4.2 3.1 4 2.8 4 2.8 4.2 2.4 3.6 2.1 3.5 2 3.7 2 3.3 1.6 3.1 2.3 4.2 2.2 3.6 2.2 3.4 2 2.8 2.6 3.2 2.3 2.5 2.9 2s2.7 1.6 3.1 1.7l3.3 1.1h3.3l6.9-.7 3.6-.6 3.8-.4 3.6-.6 3.4-.4 4.3-.6 4.2-.4 3.9-.7 4.6-.5 3.6-.3 3.6-.4 4-.5 3.7-.3 3.9-.5 3.7-.4 4-.4 3.9-.5 4.2-.3 4.4-.8 5-.5 5.2-.4 4.9-.6 5.4-.8 5.6-.2 5.6-.7 5.5-.3 5.2-.2h14.6l4.8.4c3.8.4 4.6.4 5.2.3l5.4.8 5.1.4 5.6.8 5.3.7 5.5.6 5.4.7 5.3.8 5.4.7 5.2.6 5 .7 5.1 1.2 5 .8 4.6 1.3 4.6 1.2 4 1.2 3.9 1.2 3.8 1.2 3.5 1.2 4.6 1.6 4.4 1.6 3.8 1.7 3.4 1.7 2.8 2c.5.6 3.2 4.4 3.3 5.4l-.2.7.5 3.4a28 28 0 0 1-1.3 3.8h.1c.1.9-1.6 5.3-2.9 5.8l-2.7 3.1-2 3.1-2 2.8-2.4 3.2-1.8 2.9-1.8 2.9-2 3.3-2 3.6-2.4 3.5-1.9 3.5-1.8 3-1.7 3.2-2.3 3.5-2.5 3.7-2.8 4.3-1.9 3-2.2 3.1-2.1 2.9-2.2 2.9-2 3.1-2.4 2.7-2.4 2.9-2.5 2.9-2.4 2.9-2.8 3.2-2.8 3.4-3 3-3 3.5-2.9 3.4-2.9 3.1-3.1 3.6-3.2 3.6-3 3.4-3.2 3.5-3.8 3.6-3.2 3.6-3.7 3.6-4 3.7c.2.3-4 3.9-4 3.9l-4 3.8-3.6 3.8-3.7 3.7-4.1 3.8-4.1 4.2-3.4 3.8-3 3.5-2 3-2 3.2-1.3 3.8 2 6.4 1.3 3.4-.9 7.7 3.8 3 1.3 4 1.2 3.8s1.1 3.6 1.2 3.7l1.2 4.7 1.5 4.3 1.3 4.6 1.5 4.4c.7 1.5 1.2 2.7 1.5 3.5l1.6 3.8 1.4 3.6 1.5 3.3 1.5 3.4 1.5 3.6 1.8 3.6 1.6 3.8 1.6 3.9 1.8 3.8 1.8 4 2 4.4 1.8 4.5 2 4.8 2 5 1.9 4.9 1.8 5 2.2 5.5 1.8 5.6 1.6 5.4 1.5 5.8 1.5 5.6 1.4 5.5 1.1 5.8 1.1 5.3.8 5.8.6 5.8.4 5.4.4 5.4.4 5.1v5.2l.2 4.8v4.7l-.2 4.2-.9 3.6-.6 4.7-1.5 3.8c-.3.3-1.3 2.3-1.9 3.2l-6 3.5-3.7 1.3-4 1.2-3.7 1-3.7.8-4.4.9-4 .8-4.4.8-4.3.7-4.6.4-5.1.6-3.6.4-4.1.4-4.7.6-5 .5-5.2.3-5.7.4-5.6.3-5.2.2-5.3.4h-16.4l-5.8-.3-5.9-.2-5.5-.7-5.5-.8-5.6-.5-5.7-.7-6-.5-6-.3-6.6-.8-6-.2-6.2-.8-6-.6-5.6-.4-6-.6-5.9-.8-5.8-.6-6-.5-5.9-.7-5.3-.8-5.2-.5-4.9-.5-4.8-.3h-4.8l-5-1h-5.2l-4.7-.8-4.5-.4-4-.4-3.5-.3-3.7-.6-4.9-.6-4.9-.5-4.4-.5-4-.4-4.4-.3-3.8-.5-6.6.8-3.7.6-3.5 1-3.5 1-3.9 1.4-3.9 1.3-3.6 1.2-4.1 1.6-3.4 1.3-3.4 1.5-4 1.5-4.3 2-4.5 1.6-4.4 1.9-4.4 2-4.2 1.8-4.7 1.8-4.5 1.9-4.5 1.9-4.8 1.7-4.8 1.7-4.4 1.8-4.9 1.7-5.2 1.7-5.5 1.6-5.4 2-5.2 1.7-5.2 1.8-5.2 1.7-5.3 1.7-5.1 1.6-5.6 1.8-5.6 1.7-6 2-6.1 1.7-6 1.7-6.2 1.9-6.4 1.9-6.5 2-3.4.8-3.6 1-3.5 1-3.6 1-3.6.8-3.6 1-3.5.8-3.3.9-5.1 1.2a25.5 25.5 0 0 1-19.7 9 26.3 26.3 0 0 1-10.1-1.6z" fill="#a1c0b0"></path></g></g></svg>