<svg xmlns="http://www.w3.org/2000/svg" width="1080" height="533.7" viewBox="0.007500648498535156 0.003276348114013672 1080.005126953125 533.7467041015625" style=""><g><g fill="#6d6764" data-name="Layer 2"><path d="M8.9 219.4C96.6 187 201.9 111.7 187.1 5.2c-.6-4.2-5.5-5.6-9-5.1-34.1 5.5-56.3 33.7-69 64.1-8.7 20.5-13.3 42.3-16.6 64.3-2.6 17.5-8.7 39.8-3.2 57 8.7 27.1 43.7 24.7 65.1 16.2 32-12.7 54.3-41.1 74.6-67.7l-13.6-3.7c-1.7 21-20.9 91.8 19.6 85.9 34.4-4.9 58.3-51.1 66.6-80.6h-14.1a642.9 642.9 0 0 1 19.9 78.4c1 5.4 8.7 7.1 12.2 3.2a245.3 245.3 0 0 0 49.2-79.5c3.4-8.8-10.7-12.6-14.1-3.9a228.3 228.3 0 0 1-45.4 73.1l12.2 3.2a642.9 642.9 0 0 0-19.9-78.4c-2.2-6.7-12.1-7.1-14.1 0-6.6 23.4-19.3 46.7-39.1 61.7-8.7 6.6-18.7 11.8-23.1-2.6-1.3-4.4 1-12.7 1.3-17.3 1.1-14.4 2.3-28.8 3.4-43.2.6-8.1-9.8-8.8-13.6-3.7-14.4 18.9-29.7 38.3-49.5 51.9-9.8 6.7-25.3 15.4-37.9 14.5-8.9-.5-23.8-12.6-27-21.2-1.8-5.1 1.5-15.4 2.2-20.5C110.1 102 122 23.9 182 14.2l-9-5.1c13.5 97.4-89 167-168 196.2-8.8 3.2-5 17.3 3.9 14.1z"></path><path d="M392.4 137.9c-6.7 21-20.5 47.4-21.2 69.3-.3 7.4 2.7 14.9 10.9 16.1 11.1 1.7 23.9-12.8 31.2-19.2 16.2-14.2 30-30.4 42.5-47.8l-13.4-5.6c-3.8 13.9-22.1 79.1 13.8 63.4 15.8-6.8 25.9-28.3 35.5-41.2 3.5-4.8 6.9-10.8 11.1-15 9.7-9.8 14.2-12.1 15 2.8s-4.4 30.7-13.3 44c-1.8 2.8-.9 6.6 1.2 8.9 10.2 11 22.9 6.3 34.1-1.4 23.7-16.2 45.3-37.1 67.5-55.4l-10.4-10.3c-12.7 12-40.2 31.4-43.6 49.8-3.1 16.9 19.1 21.3 31.4 22.4 39.1 3.8 72.3-27.4 67.5-66.9-.9-7.4-12.6-10.8-14.4-2-10 50.3-23.4 103.5-49.3 148.1-13.1 22.6-37.1 56.9-67.2 51.5-20.3-3.7-37.4-20.1-57.2-26.5-8.9-2.9-12.8 11.2-3.8 14.1 24.3 7.9 45.4 29.9 72.5 27.6 21.9-1.9 39.7-20 52.6-36.1 38.4-48.3 54.8-115.6 66.5-174.8l-14.4-1.9c3.5 28.3-23.9 64.6-56.3 51.8-15.6-6.1-5.2-15.7 3.1-24.5s15.2-15 23-22.3-3.2-16.2-10.4-10.3c-9.3 7.6-71.8 66.6-80.9 56.7l1.2 8.9c9.6-14.5 31.9-80.1-2.5-81.1-14-.3-23 17.4-30.1 27-4.6 6.2-23.4 39-30.3 40-11.9 1.9-.1-35.1 2.2-43.5s-8.7-12.1-13.3-5.6c-11.6 16.2-32.2 46.3-51.6 54.1-9.8 3.9-3.9 5.7-3.8-2.5.2-5.5 4.1-12.9 5.8-18.1l12.9-40.6c2.9-9-11.2-12.8-14.1-3.9z"></path><path d="M403.8 87.8l29.4-17.9c8.1-4.9.7-17.5-7.3-12.6-9.9 5.9-19.7 11.9-29.5 17.9-8 4.8-.7 17.5 7.4 12.6z"></path><path d="M715.8 158.4c18.4 4.6 36.9 4.2 54.5-3.6 9-4 27-12.9 26.7-25.2-.2-9.6-10.7-15-19.2-12.7-14.9 4.1-21.8 28-26.2 40.6-8.6 25-22.4 74.8 17.8 73.2s60.7-39.9 63.2-75.6c.6-8.3-12.3-9.9-14.4-2-11.5 44.7-22.7 89.5-34.5 134.1-6.1 22.9-12.9 47.7-32.5 62.8-15.2 11.6-54.9 21.6-33-22.1 3.1-6.1 10.4-12.3 14.6-18.1 5.5-7.6-7.2-14.9-12.7-7.3-11.9 16.5-38.8 41.3-18.2 62.8 15.7 16.4 41.9 9.1 57.6-2.9 23.8-18.1 32.1-47.9 39.4-75.5 11.3-43.2 22.3-86.6 33.4-129.9l-14.3-1.9c-1.6 21.8-9.6 44.7-30 55.6-6.1 3.3-24.4 10.2-30.2 1.3-2.6-4.1 2.1-28.7 2.5-30.8 1-4.7 16.2-52.1 20.2-50-.3-.2-23.8 13-25.3 13.4-12 3.3-23.6 2.7-35.5-.3-9.2-2.3-13.1 11.8-3.9 14.1z"></path><path d="M874.8 136c-26.1 5.3-60.7 53-34.5 76.3 12.3 10.9 37.9 6.5 50-2.3 14.1-10.3 18.1-30.7 16.5-47.2-1.4-13.9-8.3-28.6-24.1-29.3-11.9-.4-22.1 8.5-19.8 20.8 3.3 18 25.3 19.2 39.7 17.9 18.3-1.6 32.2-9.2 38.8-26.6l-14.1-3.9c-5.1 18.3-20.7 71.9 11.1 75.1 30 3 38.6-47.7 45.8-67.1 3.3-8.8-10.8-12.6-14.1-3.9-5.6 15.2-17.6 55.1.8 66 15.3 9.1 36.5-8 44.8-19.8 3.9-5.6 9.7-32.1 13.4-34.1 7.9-4.4 1.8 18.1 1.9 17.7-.7 5.3-1.5 10.8-.8 16.2 2.9 22.5 22.3 30.4 42.8 28.2 9.3-1 9.4-15.6 0-14.6s-25.8-12.1-28.4-20.6c-1.6-5.2 2.5-14.3 3.3-19.9s2.1-11.9 0-17.4c-2.9-8-11.8-14.2-20.4-11.5-11.6 3.7-12.2 18.7-15.1 28.2-3.7 12.1-13.7 35.7-28.7 29.2s-4-31.6.5-43.7l-14.1-3.9c-4.3 11.8-8.7 39.5-18.1 47.5l-17.2 1a139.6 139.6 0 0 1 .5-17.1 169.7 169.7 0 0 1 6.1-31.6c2.6-9.2-10.8-12.5-14.1-3.9-8.2 12.3-19.2 17.7-32.9 16.3h-3.1a61.3 61.3 0 0 1 0 22.6c-.3 8.2-4.4 13.5-12.2 16.1q-16.4 17.1-31.1-11.2a40.1 40.1 0 0 1 3.9-11.5c5.5-12.6 12.9-21 26.8-23.8 9.2-1.8 5.3-15.9-3.9-14.1z"></path><path d="M290.6 337.4a1139.7 1139.7 0 0 0-33.3 172.7c-1 9.3 13.6 9.3 14.7 0a1113.3 1113.3 0 0 1 32.7-168.8c2.5-9.1-11.6-12.9-14.1-3.9z"></path><path d="M239.6 407.4c11.8-18.4 22.8-39.6 39-54.5s37.7-25.8 52.7-2.3c4.8 7.5 6.1 20.8 8 29.5 5.1 23.4 16.4 63.4-5.5 81.9-5.2 4.4-62.4 25.8-62.6 25.2-2.1-9.2-16.2-5.3-14.1 3.9 5.8 24.7 58.5-3.2 71.4-9.6s25.3-13.5 30.2-27.6c6.3-18.1.9-42.1-2.1-60.5-5.2-32.7-9.1-78.6-52.4-70.3-38.4 7.3-58.1 47.2-77.2 76.9-5.1 7.9 7.5 15.3 12.6 7.4z"></path><path d="M396.3 489c1.9-36.6 1.4-74.2 5.7-110.6.6-3.8 1.2-7.7 1.9-11.5q40.4-6.4 18.8 26.1c-5.2 6.2-14.5 9.4-21.6 12.6-5.5 2.5-16.8 4.8-19.1 11.6-5.5 16 26.8 34 34.7 45 13.2 18.2 22.4 37.8 43.5 48 8.5 4.1 15.9-8.5 7.4-12.6-18.6-9-26.8-26.7-38.2-42.8a138.7 138.7 0 0 0-14.9-17.6c-7.3-7.3-16.4-10-6.9-18.5 12.1-10.8 27.2-10.9 34-28.4 4.5-11.4 3.6-29.6-2.3-40.6-11.1-20.6-38-11.9-46.9 6.2-7.6 15.6-5.8 36.2-6.7 52.9l-4 80.2c-.5 9.5 14.2 9.4 14.6 0z"></path><path d="M475.1 377.1c-.6 24.9-1.2 49.9.2 74.9.8 15.6-.5 40.2 11.7 52.3 20.4 20.3 57.9 2.9 75.6-12.3 7.1-6.2-3.3-16.5-10.4-10.3-10.1 8.7-29.2 20.5-43.7 16.1-21-6.3-17.7-29.1-18.6-45.8-1.4-25-.8-50-.2-74.9.2-9.5-14.4-9.5-14.6 0z"></path><path d="M477.2 400.8a186.1 186.1 0 0 0 44.7-3.3c9.3-1.8 5.4-15.9-3.9-14.1a168.9 168.9 0 0 1-40.8 2.7c-9.4-.5-9.4 14.2 0 14.7z"></path><path d="M478.8 448.5a510.3 510.3 0 0 0 56.3-10c9.1-2.2 5.2-16.3-3.9-14.1a487.4 487.4 0 0 1-52.4 9.5c-9.2 1.1-9.3 15.8 0 14.6z"></path><path d="M587.3 496.2L637 361.6l-10.8 4.4c7.5 4.3 7.4 35.7 8.3 43.9l4.4 37.9c3 25.3 5.9 50.5 8.9 75.8 1 9.2 15.7 9.3 14.6 0q-6.3-54.5-12.7-108.9c-2-17.4 1.6-51-16.1-61.3-4.4-2.6-9.1 0-10.8 4.4q-24.7 67.2-49.6 134.5c-3.2 8.8 10.9 12.6 14.1 3.9z"></path><path d="M605.4 438.6h59.2c9.4 0 9.5-14.6 0-14.6h-59.2c-9.4 0-9.4 14.6 0 14.6z"></path><path d="M691.6 498.7A858.6 858.6 0 0 1 708.2 374h-14.1c3.7 24.5 8.3 49 14.1 73.2 2.7 11 3.9 33.6 15.2 39.7 8.3 4.5 15.7-.1 21.2-6.3 17.4-19.8 30.1-47.4 44.2-69.7l-13.7-3.7q3.9 59.7 1.9 119.5c-.3 9.4 14.4 9.4 14.7 0q1.8-59.9-1.9-119.5c-.5-7.2-9.7-10-13.7-3.7l-25.8 41c-3.5 5.5-7.7 17.3-12.9 20.5-1.1 4.7-3.2 5.4-6.1 1.8-4.5-1.8-6.4-5.3-5.8-10.8-10.1-26.3-13.1-58.1-17.3-85.9-1-7.2-12.6-6.8-14.1 0A871 871 0 0 0 677 498.7c-.5 9.4 14.1 9.4 14.6 0z"></path></g></g></svg>