<svg xmlns="http://www.w3.org/2000/svg" width="1080" height="691.7" viewBox="0 0.004081696271896362 1079.9998779296875 691.796142578125" style=""><g><g data-name="Layer 2"><g fill="#f0cdb9"><path d="M741.5 333.2c-1.4-.1-2.6-.9-3.9-1.3a53.9 53.9 0 0 1-8.1-2.3c-2.6-.2-5.2-1-7.8-1.4a34.5 34.5 0 0 1-6.4-2.2c-.6-1.3-1.8-1.9-2.8-2.8a7.3 7.3 0 0 1-2.2-5.4 6.7 6.7 0 0 0 0-2c-.1-1.9 1.2-2.9 2.3-4.1a1.4 1.4 0 0 1 1.8 0 4.1 4.1 0 0 1 1.5 2c.3 1.3 1.1 1.1 2 .8a56.6 56.6 0 0 1 8.8-2.9 58.9 58.9 0 0 1 16.2-1 98.8 98.8 0 0 1 15.2 2.7c4.2.9 8.5 1.6 12.7 1.1s8.4-.9 12.5-1.5l9.7-1.5c7.1-1 14-2.6 21-4.3s12.4-3.2 18.7-4.5 9.8-1.6 14.7-2.4 8-1 12-1.3l12.6-1c4-.3 8 0 12-.4a63.3 63.3 0 0 1 9.7-.3c4.8.1 9.7.1 14.5.5 8.8.6 17.6.2 26.4.3 3.1 0 6.3-.8 9.4-1.2 6.7-.8 13.2-2.6 19.9-3.3l9.9-.9c3.2-.5 6.3-.2 9.5-.7a69.1 69.1 0 0 1 9.1-.1l13.3-.6c4-.2 7.9-.7 11.9-.8 6-.1 10.4 2.4 14.1 7s4.1 7.2 5.5 11.1a116.8 116.8 0 0 1 5.7 20q.9 5.7 1.5 11.4c.8 6 .5 11.9.3 17.8q-.2 4.1-.6 8.1a37.2 37.2 0 0 0 .1 10c.4 2 .3 4 .6 6s.2 5.1.8 7.7a4.1 4.1 0 0 1 0 2.2 15.6 15.6 0 0 0-.3 5.3c.1 3.6-1 6.7-4 8.9-.5.4-1.1.7-.4 1.6 3.7 4.7 5.1 10.4 6.8 16s2.9 8.6 4.5 12.8a42 42 0 0 1 3.5 10.9 5.2 5.2 0 0 1 .2 1.1c0 3.6.8 7.1.5 10.6a4.3 4.3 0 0 0 1.6 4 55.9 55.9 0 0 1 5.7 6.2 19.3 19.3 0 0 1 4.2 9.7c.4 2 1.1 4 1 6.1-.1.4.1.9-.1 1.3-.9 1.9-.1 3.5 1.1 4.9s3.7 4.6 5.7 6.8 2.9 3.3 4.4 5v10.2a3.4 3.4 0 0 1-3.2.6c-7.4-1.2-15-1.4-22.5-2.5s-16.9-1-25.3-.8a124.5 124.5 0 0 0-13.7 1.2c-8.5 1-17.1.8-25.6 1s-19.2.3-28.5 2.7c-11.8 3.2-22.6 1.3-33-4.6a26.4 26.4 0 0 0-6.8-1.9c-4.8-1-8.7-3.8-12.6-6.5a158 158 0 0 1-18.7-16c-6.8-6.8-14.1-13.2-21.5-19.4a139.9 139.9 0 0 1-23.8-26 19.5 19.5 0 0 1-3.1-6.1c-1.3-1-1.6-2.6-2.5-3.9-2.4-3.7-4.4-7.7-6.9-11.3a113.8 113.8 0 0 0-7.9-10.4c-4.9-5.9-10.7-11-16.1-16.6l-1.7-1.9c-2.4-2.6-5-4.9-7.2-7.6l-1.3-1.8c-1.4-.8-2.1-2.3-3.1-3.4-2.7-3-5.2-6.1-7.9-9s-3.4-4.1-5.3-5.9-2.5-3.1-4-4.4c-3.8-3.6-7.4-7.4-11.5-10.6s-8.2-6.6-13-8.8a35 35 0 0 1-4.2-2.4 66.1 66.1 0 0 1-7.6-3.6z"></path><path d="M303.8 380.8c-2.5-.8-5-.5-7.5-.2-7.9 1-15 4.1-22.2 7.4s-13.6 7.5-20.2 11.7l-3.2 1.9a181 181 0 0 0-19.7 11.1l-1.2.7a1 1 0 0 1-.3-1.2l.9-1.8c.9-1.9 1.9-3.5 1.3-5.9s.2-4.2.9-6.3c2.4-7.6 3.5-15.5 5.3-23.3.6-3 1.6-5.9 2.4-8.9s1.6-5.7 2.3-8.6a34.1 34.1 0 0 0 .5-5.5 39.2 39.2 0 0 1 5.3-18.6 130.2 130.2 0 0 1 7.6-11.7 5.3 5.3 0 0 0 .8-4.4 13.9 13.9 0 0 1 .6-10.4 5.9 5.9 0 0 0 .5-3.2c-.7-5.7 1.5-10.2 5-14.5a19 19 0 0 1 7.2-5.7 17.8 17.8 0 0 1 9.7-1.1c4.6.6 9 1.5 13.5 2.3a98.6 98.6 0 0 1 17.8 5.3c7.1 2.7 13.9 6.1 20.8 9 5.1 2.2 10.3 4.1 15.4 6.4a3.3 3.3 0 0 0 2.4.1c4.8-1.2 9.6-2.1 14.5-2.9a77.2 77.2 0 0 1 15.2-.9c2.3 0 4.6-.1 6.9 0s5.2.1 7.2 2.2 1.3.1 1.7-.4 1.5-1.2 2.5-.5a5.5 5.5 0 0 1 1.4 3.9c-.1 1.8.6 3.6.4 5.5-.7 4.9-.3 9.9-.5 14.8s-2.3 11.9-4.4 17.6c-1.1 3-2.3 6.1-3.7 9a32.4 32.4 0 0 1-4.8 7.4c-4.1 4.5-8.3 8.8-12.7 13s-6.3 5.5-9.5 8.3-9.3 7.5-14 11.2c-2.7 2.1-5.4 4.3-8.7 5.5a7.1 7.1 0 0 1-6.9-.9 75.8 75.8 0 0 0-9.1-5.5c-2.8-1.4-5.5-3.1-8.3-4.7l-7.6-4.9a18.9 18.9 0 0 0-5.5-2.3z"></path></g><path d="M946 538a59.7 59.7 0 0 0-10.3-11c-4.9-4.3-10.6-7.6-16-11.3a112.3 112.3 0 0 1-12.4-9.4c-9.9-8.5-19.7-17.1-29.8-25.4-7.6-6.2-15.1-12.5-22.3-19.1s-10.5-12.1-14.7-19a27.8 27.8 0 0 0-6.5-7.2c-1.8-1.4-3.8-2.6-5.6-4.1-3.8-3.2-5.5-7.7-6.7-12.3-1.6-6.5-5.8-10.8-11.3-14.2a90.4 90.4 0 0 1-12.2-8.3 16.5 16.5 0 0 1-5.3-7.7 3.4 3.4 0 0 1 1-3.9 7.6 7.6 0 0 0 1.8 5.7 39.4 39.4 0 0 0 5 5 82.6 82.6 0 0 0 10.1 6.5c6.7 3.7 11.8 8.8 13.5 16.5.2 1.1.7 2.1 1 3.2a16.6 16.6 0 0 0 3.6 5.8c3.2 3.6 7.7 5.6 11 9.1a1.2 1.2 0 0 0 1.2.3 1.8 1.8 0 0 0 1-2.3c-1.7-3.4-3.9-6.6-5.8-9.9a107.9 107.9 0 0 0-18.1-23.3c-3.8-3.7-7.6-7.5-11.3-11.3a47.5 47.5 0 0 1-8.6-9.3c-7.4-8.6-14.7-17.5-22.9-25.5s-16.3-14.5-26.3-19.2a24.6 24.6 0 0 1-7.5-3.5 19.3 19.3 0 0 0-4-1.5 24.9 24.9 0 0 1-8.4-2.2c-4.2-1.2-8.7-1.6-12.9-3.4a1.2 1.2 0 0 0-1 .2c-1.2.3-2.2-.4-3.3-.3a2.9 2.9 0 0 1-2.9-2c-1.3-2.9-2.3-5.9-3.7-8.8s-2.5-6.9-3.9-10.4-3.9-9.7-5.7-14.6c-1.3-3.2-2.5-6.5-3.8-9.7l-7.5-20.9c-.5-1.4-1.2-2.9-1.6-4.3-1-3.8-2.5-7.3-3.8-10.9s-2.8-7.5-4-11.3-3-10.2-4.3-15.3c-.3-1.1-.8-2.1-1-3.2a74.8 74.8 0 0 0-3.6-12.5c-1.2-3.2-2.4-6.4-3.4-9.6-1.6-4.9-3.6-9.7-5-14.7a21.1 21.1 0 0 0-2.6-4.9 35.7 35.7 0 0 1-6-12.4c-1.3-4.6-1.8-9.3-2.9-13.9-1.9-7.6-3.4-15.4-5.7-22.9a33.1 33.1 0 0 0-1.8-5.3c-1.9-4.4-3.6-8.9-5.6-13.3-3.6-8.3-6.7-17-10.5-25.4-1.8-3.9-3.2-8-5.5-11.8l-2.6-4.6c-1.6-2.7-3-5.4-4.7-8s-4.3-5.9-6.1-9-4-4.9-6-7.4a41.8 41.8 0 0 0-11-9.1c-.9-.6-2.1-.8-2.9-1.6a41.9 41.9 0 0 1-4.9-5.4 49.9 49.9 0 0 0-5.4-7.6c-2.2-2.3-4.8-4.1-6.9-6.6a2.7 2.7 0 0 0-1.3-.7c-4-1.4-8-2.7-11.4-5.3l-1.2-.5c-3.1-.7-6.1-1.2-9 .5a2.9 2.9 0 0 1-3 .1 20 20 0 0 0-4.2-1.9c-2.1-.1-4.2.3-6.3-.2a2.1 2.1 0 0 0-1.7.2 8.1 8.1 0 0 0-5.1 2.4 8 8 0 0 1-7.8 1.8 5.2 5.2 0 0 0-4.8 1.1l-3.1 2.1c-2.4 1.6-4.7 3.5-5.7 6.5a19.4 19.4 0 0 1-5.6 8.2 9.3 9.3 0 0 0-1.3 1.5 174.9 174.9 0 0 0-11 16.9 45.9 45.9 0 0 0-3.8 7.3 169.5 169.5 0 0 0-5.9 18.3c-.3 1.3-1 2.7-.6 4.1a13.4 13.4 0 0 1 .4 4.4 80.3 80.3 0 0 1-.4 9.8c-.2 2-.5 3.9-.9 5.9s-2 4.7-2.7 7.2c-2.1 3.3-4 6.7-6.2 9.9a135.5 135.5 0 0 0-9.5 16.5c-2.6 5.5-5 11.1-7.9 16.4-2 3.6-3.9 7.3-6 10.9a105.9 105.9 0 0 0-8.5 16.8c-3.1 8.2-7 16-9.7 24.3a151.2 151.2 0 0 0-5.2 17.4c-1.8 3.8-2.8 7.9-4.1 11.9a165 165 0 0 0-6 22.2c-.7 3.8-1.4 7.6-1.9 11.5s-.5 6.3-1 9.4c-.7 4.7-1.3 9.4-2.1 14s-1.8 10.4-2.9 15.6a56.6 56.6 0 0 0-1.6 8c.7 3.6 1.5 7.2 1.1 10.8a67.4 67.4 0 0 0-.4 7.7 50.8 50.8 0 0 1-2.3 16.9c-3.3 11.1-8 21.3-16.8 29.3-4.8 4.2-9.2 8.9-14.1 13a270 270 0 0 1-21.6 16.7c-3.1 1.9-6.5 2.6-9.9-.3a13.7 13.7 0 0 0-2-1.3c-7.5-4.5-15.4-8.4-22.6-13.4a13.1 13.1 0 0 0-5.2-2h-.3c-.3-.5-1-.4-1.5-.5a42.8 42.8 0 0 0-6.2.2c-11.5 1.7-21.7 6.9-31.7 12.5-6.9 3.8-13.3 8.6-20.5 12a122.7 122.7 0 0 0-11.1 6.4c-1.1.7-2.3 1.1-2.8 2.5l-.9.6c-3 1.9-6.1 3.6-9 5.6s-5.1 3.7-7.8 5.5a23.2 23.2 0 0 0-9.3 11.2 35.2 35.2 0 0 0-1.5 4.2 4.5 4.5 0 0 1-3.5 3.3 10.8 10.8 0 0 0-5.3 2.7c-1.4 1.6-3.1 1.8-4.9 2l-10.3 1.6a97.5 97.5 0 0 1-12.1 1.5 47.1 47.1 0 0 0-9.2 1l-3.5.8c-10.6 1.5-20.7 5.2-31.1 7.8l-13 3.5c-3.2.8-6.4 1.2-9.6 1.8-5.5 1.1-11 2.4-16.4 3.7a253.5 253.5 0 0 0-25.8 7.4l-11.8 3.8-11.3 3.4c-3.8 1.3-7.5 2.8-11.2 4.2L9.7 494c-3.6 1.5-6.6 4-9.7 6.2v22.7q3.5 5 7.2 9.6c6.7 8 13.7 15.6 20.3 23.6a124.4 124.4 0 0 0 18.9 18.8A173.7 173.7 0 0 1 61 587.3c9.3 8.8 18.3 18 27.9 26.5 4.9 4.3 9.7 8.7 14.8 12.8 10.1 7.8 21 14.5 30.8 22.6 7.9 6.5 16.6 11.9 25.2 17.1s15.5 9.4 22.9 14.6a136.1 136.1 0 0 0 17.4 10.8h195.9a10.8 10.8 0 0 1-2.4-1.8l-42.1-42.2c-2.5-2.4-2.5-2.6 0-5.1s3.5-3.6 5.3-5.3a3.5 3.5 0 0 1 2.6-1.3c0 .2.1.3.1.5a2 2 0 0 0-1.9.8c-2.3 2.3-4.6 4.7-7 6.9-.8.8-.7 1.3.1 2s3.9 3.9 5.8 5.8l37.8 37.7a10.6 10.6 0 0 1 1.7 2H587a6.7 6.7 0 0 0 1-2.3c.2-1.1.3-2.2.5-3.2a231.7 231.7 0 0 1 10.3-34.5c3.9-10.8 7.9-21.6 13.8-31.6 3-4.9 3.6-10 2.7-15.6a62.8 62.8 0 0 0-3.3-12 14.2 14.2 0 0 1-.4-9.1 60.6 60.6 0 0 1 5.9-14.4 41.2 41.2 0 0 0 5.3-14.3 107.5 107.5 0 0 0 1.8-17.9c.1-2.9-.4-5.8-.4-8.7a59.4 59.4 0 0 0-3.9-19.5 23.8 23.8 0 0 0-6.8-9.5c-2.1-1.8-2.1-3.2 0-4.9l4.7-4.1a17.4 17.4 0 0 0 6.4-11.2c.3-3.1.4-6.2.5-9.3.3-7.8 1.7-15.4 5.8-22.1s8-16.4 10.6-25.2a23 23 0 0 0 .7-10.1 21.6 21.6 0 0 1 .5-8.4c1.3-4.5 3.7-8.4 5.5-12.6 4.1-9.7 5-19.3-1.6-28.4a7.2 7.2 0 0 1-1.2-2.1c-1.3-2.8-.6-5.1 2.2-6.5a8.9 8.9 0 0 1 3.6-1.1c5.5-.5 10.8.4 15.5 3.6a41.5 41.5 0 0 0 11.7 5.4c9.1 2.5 16.9 7 22.8 14.6 9.2 11.8 14 25.1 12.9 40.2a17.7 17.7 0 0 1-1.7 7.3c-.4-.6-.1-1.2-.1-1.6a54 54 0 0 0-.6-18.8 59.4 59.4 0 0 0-8.4-20.3c-5.9-9.2-13.8-15.9-24.5-18.8a44.3 44.3 0 0 1-13.5-6 20.7 20.7 0 0 0-13.2-3.4c-5 .3-6.3 2.8-3.6 7s4 6.7 4.6 10.7a33.6 33.6 0 0 1-3 19.5c-.9 2-2 4-2.9 6-2.1 4.4-3.6 9-2.8 14a22 22 0 0 1-.5 9.2c-2.5 9.1-5.5 17.9-10.5 25.9a42.2 42.2 0 0 0-5.1 13.3c-1.3 5.9-.7 11.9-1.4 17.9a21.8 21.8 0 0 1-5.4 11.7c-1.4 1.6-3.3 2.6-4.7 4.1s-2.1 2.4 0 4.5a22 22 0 0 1 4.8 6.9 56.7 56.7 0 0 1 4.4 15.6c.4 2.6.3 5.3 1.1 7.9a71.7 71.7 0 0 1-.1 13.1c-.8 2.5-.6 5.2-1 7.7-1.1 7.1-2.7 14-6.5 20.2a60.4 60.4 0 0 0-4.9 11 16.8 16.8 0 0 0 0 11.9 66.6 66.6 0 0 1 2.7 9.7c1.2 6.5 1 12.6-2.7 18.4a72.1 72.1 0 0 0-5.2 10.4c-4.4 9.5-7.9 19.3-11.4 29.2s-6.3 17.6-8.3 26.8c-.1.5-.3 1.1-.4 1.6a2.9 2.9 0 0 0 .4 2.2h65.9c1.1-1.1 1.3-2.6 1.6-4 1.9-7.7 4.1-15.2 6.6-22.7a185.4 185.4 0 0 1 10.1-24.9c4.1-7.9 8.5-15.7 13.3-23.1 7.5-11.6 15-23.2 25.2-32.8 7.6-7.1 15.7-13.4 25.8-16.9s17.5-7.7 26.6-10.7c13.2-4.4 25.6-10.5 37.7-17.4 5.4-3.1 10.3-7 15.5-10.4s13.7-7.4 21.7-8a4.8 4.8 0 0 0 2.3-.7c2.2-.7 4.4.1 6.6-.1s2.6-.6 3.8.2c4.1 1.4 8.4.5 12.6 1 6.3.8 12.7 1.3 19 2.4 9.2 1.7 17.6 5.2 24 12.4a49.2 49.2 0 0 0 6.7 6.2 22 22 0 0 0 13.3 5h2.9c1.2-.1 2.1-.6 2.1-2a4.6 4.6 0 0 0-1.2-2.4 90.7 90.7 0 0 0-13-14c-6.9-5.7-14.9-9-23.4-11.4-6.8-1.9-13.7-3.5-20.3-6.1a114.3 114.3 0 0 0-12.9-4.2c-15.5-3.8-31.1-7.1-46.4-11.8a64.5 64.5 0 0 1-17.7-8.1 30.1 30.1 0 0 0-11.8-5c-5.4-1.1-10.9-1.9-16.5-2.6a124.7 124.7 0 0 1-32.4-8.4 210.4 210.4 0 0 0-26.8-8.9 126.9 126.9 0 0 1-21-7.2c-8.5-3.9-16.9-8.2-25.7-11.3a9.7 9.7 0 0 1-3.1-1.8c-.7-.6-.7-.7-1.2-2.2 1.8 2.1 4.3 2.9 6.7 3.7a83.7 83.7 0 0 1 13.6 5.4c10.1 4.7 20.4 8.9 31.3 11.6a156.8 156.8 0 0 1 24.1 7.6 144 144 0 0 0 40.2 10.2c7.6.9 15.3 1.9 22 6 2.6 1.6 5.1 3.2 7.8 4.6 4.7 2.4 9.7 3.8 14.6 5.3 8.4 2.6 16.9 4.7 25.4 6.7 6.4 1.5 12.9 2.6 19.1 4.6 10.3 3.2 20.4 7.2 31 9.7a66 66 0 0 1 19.2 7.9c9.6 6 16.4 14.8 22.7 23.9 1.3 1.9.7 3.1-1.6 2.9a74.4 74.4 0 0 1-11.5-1 27.8 27.8 0 0 1-10.6-4.9 69.6 69.6 0 0 1-6.8-6.5 39.9 39.9 0 0 0-21.6-11.6 216 216 0 0 0-44.7-3l-1.6.2c-8.7 1.1-16.2 5.1-23.2 10.2-14.3 10.5-30.1 18.3-46.8 24.4-11.7 4.1-23 9.2-34.4 13.9s-19.9 13.2-27.7 22.3c-12.1 14.3-21.6 30.4-30.2 46.9s-13 32.5-17.9 49.3a2 2 0 0 0 0 1.7h35.6a10.5 10.5 0 0 0 2.7-2c7-6.8 14.5-13.1 21.7-19.7l19-17.5c6.4-5.9 12.8-11.6 19.4-17.3s15.8-13.5 23.4-20.6a349.3 349.3 0 0 0 25.1-26.5c10.2-11.8 20.5-23.6 32.1-34.2a92.1 92.1 0 0 1 13.5-10.5 4.8 4.8 0 0 1 3.1-1c5.9.6 11.8 1.1 17.6 2.6 8.5 2.2 16.8 4.8 25.2 7.5a48.3 48.3 0 0 0 9.3 2.1c8.4 1 16.8 1.3 25.3 1.5a10.8 10.8 0 0 0 7.5-2.7 34.1 34.1 0 0 0 4.2-4.3 17 17 0 0 0 4-8.3 6.2 6.2 0 0 0-1.4-2.9zm-713.8-14.9a133 133 0 0 1-27.4-3.1c-13.1-2.8-25.3-8-37.5-13.2-8.5-3.7-17-7.4-26-9.7-6.8-1.8-13.6-3.5-20.1-5.9s-12.1-4.1-18.3-5.6a48.5 48.5 0 0 0-26.7.5c-14.2 4.3-28.3 8.4-42.7 11.9a23.6 23.6 0 0 0-6.3 2.2c-1.2.6-2.9 1-2.9 2.7s1.5 2.3 2.6 3.1c4 2.8 8.5 2.7 13.1 2.2s6.5-1.1 9.8-1.2a46.2 46.2 0 0 1-15.1 3.1 14.4 14.4 0 0 1-11.2-4.5c-2-2.1-1.8-4 .5-5.7a18 18 0 0 1 5.6-2.6c3.7-1.3 7.6-2.1 11.4-3.1 12.9-3.7 25.7-7.7 38.7-11.2 3.5-1 7.1-1.9 10.7-1.6a89.7 89.7 0 0 1 18.6 3.4c11.9 3.7 23.7 7.7 35.8 10.8s21 7.9 31.3 12.1c12 4.9 24.2 9.2 37 11.3 7.3 1.1 14.6 1.8 21.9 2.3 4.6.3 9.2.1 13.8 0h.7v1.6c-5.7.6-11.5.2-17.3.2zM484.7 61.3c.1-.6.2-1.4 1-1.2s.4.8.3 1.3-.1.6-.1.9c-.4 5.6-.3 11.2 2.5 16.3a107 107 0 0 1 9.5 23.6c.6 2.3 1.4 4.6 1.1 7.5-1.7-3.1-2-6.2-3.5-8.9h-.3a1 1 0 0 0-1.1.2 2.1 2.1 0 0 0 .7-1.8v-.5a107.9 107.9 0 0 0-6.6-16.2c-2.3-4.5-4-8.8-4.2-13.9a28.9 28.9 0 0 1 .7-7.3zm4.2 196.2c-6.7-10.8-12.9-21.8-16.4-34.2-2.5-9.1-3.9-18.3-2.3-27.7.9-5.6 2-11.1 1.6-16.8s-2.1-11.2-7-15h-.3a2.2 2.2 0 0 0-.6-1.9 22.9 22.9 0 0 1-3.3-9.6 59.6 59.6 0 0 1 .1-14 76.3 76.3 0 0 1 8.6-25.8c-1.6 4.2-3.2 8.3-4.5 12.5a101.8 101.8 0 0 0-2.9 13.3 37.5 37.5 0 0 0 1.3 18.8 15 15 0 0 0 3.8 6c4.5 4.2 6.5 9.4 7.1 15.4a4.9 4.9 0 0 0 .9 3.1.8.8 0 0 0-.2.4 25.8 25.8 0 0 0-.9 6.2c-.7 4.9-2 9.7-2 14.7 0 11.7 3.2 22.7 8 33.3 7.3 15.8 17 30 28.2 43.3 3.8 4.6 7.7 9.2 11.2 14.1a6.8 6.8 0 0 1 1.4 3.1c-3.3-3.8-6.5-7.6-9.8-11.3-7.8-9-15.7-17.8-22-27.9zm118.6 115.3c-1 7.3-3.6 14.1-6.5 20.8a54.1 54.1 0 0 1-12 18c-4 3.9-8.2 7.6-12.4 11.4a95.4 95.4 0 0 1-23.4 15.8c-14.1 6.8-28.7 12.5-42.1 20.8l1.1-.7a236.4 236.4 0 0 1 32.6-17.3 110.8 110.8 0 0 0 20.3-11.6c7-5.2 13.1-11.3 19.6-17.1a63.1 63.1 0 0 0 12.7-15.9c2.5-4.4 3.8-9.3 5.6-14a41.5 41.5 0 0 0 2.9-15.9c-.1-4.4-.7-8.7-.8-13.1-.5-13.5-3-26.7-5.9-39.8a254.9 254.9 0 0 1-4.9-32.5c-1.1-12.3-2.5-24.5-4.3-36.7-1.6-10.3-5.5-20-9.9-29.4-1.7-3.6-3.4-7.2-6.2-10.1s-7.2-8.2-11.5-11.6c-1-.8-2.3-1.1-3-2.3a1.9 1.9 0 0 0-.3-.8c-.9-1.7-2.3-3-3.3-4.6a16.2 16.2 0 0 0-3.4-4.4 69.7 69.7 0 0 1-6.9-7.5c-5-6.4-8.7-13.6-12.5-20.7a196.9 196.9 0 0 0-10.4-17.8h-.2c.4-.8-.2-1.5-.6-2.2-3.2-5.5-6.7-10.8-10.2-16.1-.3-.5-.6-1.1-1.3-1.1s-.1-.1-.1-.2a15.2 15.2 0 0 1-1.8-3.3c-.9-2.2-2.1-4.4-.9-6.9a9.1 9.1 0 0 0-.5-3.3c-1.7-5.9-3.2-11.9-4.6-17.9-2.1-9.2-2.5-18.3 1.2-27.3a26.8 26.8 0 0 0 1.7-6.9 97.8 97.8 0 0 1 3-13 21 21 0 0 1 5-8.5 33.4 33.4 0 0 1 10.5-7.4c5.7-2.8 11.6-3.2 17.5-.2a8.9 8.9 0 0 0 3.6 1.1c10 1.1 18 5.8 24.5 13.3a3.6 3.6 0 0 0 3.4 1.5 20.7 20.7 0 0 1 13.3 3.5 57.3 57.3 0 0 1 6.3 4.7c6.5 5.5 10.9 12.2 12 20.9a47.2 47.2 0 0 1 .2 8.4c0 5.4-1.3 10.5-2.4 15.8a5.9 5.9 0 0 1-1.4 2.7c-.7 1.9-1.6 3.7-1 5.8s.4 2.3-.2 3.4-.7 2.7 1.5 3.2 1.9-.1 2.8.6a28.1 28.1 0 0 1-2.9 0c-.9.1-2 0-2.3 1.2s1.4 1.6 0 2.4a7.7 7.7 0 0 0 .3 2.6c.3 3.2 2 6 2 9.3 0 12-1.5 23.8-6.2 35a52.8 52.8 0 0 1-14 19c-3.8 3.4-8.8 4.4-13.7 5.6-3 2-4.7 5.2-6.8 8a1.4 1.4 0 0 0-.2 1.1c.5 1 1.5 1.4 2.4 2a57.4 57.4 0 0 1 15.6 14.7 49.5 49.5 0 0 1 5.5 10.1c4 9.1 7.7 18.2 9.2 28.1 1.1 6.5 1.8 13.1 2.4 19.6s1.4 12.3 1.8 18.4a170.8 170.8 0 0 0 4.1 29.3c2.2 9.2 3.5 18.5 4.9 27.8 1 6.9 1.1 13.9 1.6 20.8a54.3 54.3 0 0 1-.1 11.4z" fill="#fbf7f5"></path><path d="M395.9 691.7a10.8 10.8 0 0 1-2.4-1.8l-42.1-42.2c-2.5-2.4-2.5-2.6 0-5.1s3.5-3.6 5.3-5.3a3.5 3.5 0 0 1 2.6-1.3c0 .2.1.3.1.5a2 2 0 0 0-1.9.8c-2.3 2.3-4.6 4.7-7 6.9-.8.8-.7 1.3.1 2s3.9 3.9 5.8 5.8l37.8 37.7a10.6 10.6 0 0 1 1.7 2z" fill="#fbf7f5"></path><path d="M395.9 691.7a10.8 10.8 0 0 1-2.4-1.8l-42.1-42.2c-2.5-2.4-2.5-2.6 0-5.1s3.5-3.6 5.3-5.3a3.5 3.5 0 0 1 2.6-1.3c0 .2.1.3.1.5a2 2 0 0 0-1.9.8c-2.3 2.3-4.6 4.7-7 6.9-.8.8-.7 1.3.1 2s3.9 3.9 5.8 5.8l37.8 37.7a10.6 10.6 0 0 1 1.7 2z" fill="#faf6f4"></path><path d="M932.6 544.8a92.4 92.4 0 0 0-13.2-14.7 49.3 49.3 0 0 0-14.7-9c-6.2-2.5-12.7-4-19.2-5.8a62.9 62.9 0 0 1-7.4-2.2c-3.6-1.6-7.4-2.7-11.2-4a164.8 164.8 0 0 0-17.1-4.4l-17.7-4.3c-6.4-1.6-12.7-3.4-18.9-5.3a53.1 53.1 0 0 1-16-7.9 28.2 28.2 0 0 0-12.5-4.8c-5.2-.9-10.4-1.6-15.7-2.3a121.7 121.7 0 0 1-24.4-5.7c-4.6-1.6-9.2-3.5-13.8-5.2s-10.3-3.7-15.5-5.1a182.8 182.8 0 0 1-22.1-6.9c-3.4-1.3-6.7-2.8-9.9-4.4a174.1 174.1 0 0 0-18.9-8.2 11.8 11.8 0 0 1-4.9-3 10.1 10.1 0 0 1-1.2-2.3.8.8 0 0 1 .3-.8 1 1 0 0 1 .9.1h.2c2 3.1 5.4 3.5 8.5 4.6a119.6 119.6 0 0 1 11.7 4.8c7 3.1 13.9 6.6 21.3 8.8l17.9 5c4.5 1.2 8.9 2.8 13.3 4.4 8.2 3 16.3 6.5 24.9 8.3 4 .8 8 1.5 12 2s5.5 1 8.3 1.3a76.3 76.3 0 0 1 11.6 2.1 29 29 0 0 1 9.5 4.2 64.2 64.2 0 0 0 18.8 8.7c4.5 1.1 8.9 2.5 13.4 3.7s9 2.4 13.5 3.4l17.5 4c4.2 1.1 8.3 2.6 12.4 4.1 8 2.9 16.3 5.1 24.6 7.3a66.7 66.7 0 0 1 12.1 4.9 48.1 48.1 0 0 1 13.2 9.6 88.7 88.7 0 0 1 11.2 13.3c.9 1.4 2.1 2.6 2.9 4s.4 3.4-1.7 3.3c-5.9-.2-11.8-.2-17.5-2.6a26.9 26.9 0 0 1-8.2-5.5c-2.8-2.5-5.3-5.4-8.2-7.9a38.3 38.3 0 0 0-17.6-8 176.8 176.8 0 0 0-17.8-2.3 191.4 191.4 0 0 0-25.1-.8 34.6 34.6 0 0 0-14.4 3.4 76.2 76.2 0 0 0-14.7 9 109.2 109.2 0 0 1-13.7 8.7c-7.9 4.1-15.8 8.3-24.1 11.4-6.3 2.4-12.6 4.5-18.8 7.1-8 3.3-16 6.6-23.9 10.1-4.8 2-8.8 5.2-12.7 8.6s-6 5.7-9 8.6a84.6 84.6 0 0 0-10.2 12.2 360.4 360.4 0 0 0-20.6 32.8 191.4 191.4 0 0 0-12 27c-3.1 8.6-5.7 17.3-8.2 26.1l-1.2 3.3h-3.1c.9-3.7 1.7-7.4 2.7-11.1s2.3-8.2 3.7-12.3c2.1-6.1 4.1-12.3 6.7-18.2a189.1 189.1 0 0 1 8.6-17.5c3.1-5.4 6.1-10.8 9.5-16s7.7-11.8 11.8-17.6 10.4-12.4 16.3-17.9 10.6-9.1 17.2-11.9c3.4-1.5 7-2.7 10.4-4.2s9.2-4.1 13.8-5.9 11.3-4.1 16.9-6.3a95.9 95.9 0 0 0 16.6-7.7c2.5-1.4 5.2-2.4 7.8-3.8a151.3 151.3 0 0 0 15.2-9.8 95.9 95.9 0 0 1 11.5-7.1 42.8 42.8 0 0 1 11.3-3.7c2-.4 4.1-.2 6.1-.9s2.6-.2 3.9-.2 4.6-.5 6.8.2 4.3.7 6.4.5c3.6-.4 7 .6 10.5.8s6 .5 9 .9c7 1 14 2.3 20.3 5.8a31.3 31.3 0 0 1 7.6 5.5 80.7 80.7 0 0 0 10.1 9.3 20 20 0 0 0 11.3 3.9 9 9 0 0 0 4 .2c1.3.1 1.9-.5 1-1.8z" fill="#bfbab4"></path><path d="M587 691.7a58 58 0 0 1 1.9-10.1 193.5 193.5 0 0 1 6.6-22.5c2.5-7.4 5.2-14.7 8.2-21.9a123.1 123.1 0 0 1 7.8-16.4 41.8 41.8 0 0 0 2.8-5.6 9.4 9.4 0 0 0 .8-3.4 43.5 43.5 0 0 0-3-17.1 35.1 35.1 0 0 1-1.9-6.3 9.5 9.5 0 0 1 .5-4.1 61.6 61.6 0 0 1 7-16.7 39.7 39.7 0 0 0 4.5-12.9 92.7 92.7 0 0 0 1.4-11.8 59.4 59.4 0 0 0 .3-7.3c0-3.9-.5-7.8-.7-11.7a58 58 0 0 0-1.9-10.1 28.2 28.2 0 0 0-5.6-11.7 15 15 0 0 0-2.9-2.7c-2.2-1.7-2.3-3.2-.3-5.2s3.1-2.8 4.8-4.2c3.3-2.7 5.9-5.9 6.5-10.2a45.4 45.4 0 0 0 .7-7.5 48.8 48.8 0 0 1 5.3-24.3c1-1.8 2.2-3.6 3.2-5.4a79.5 79.5 0 0 0 6.1-14.8 63.2 63.2 0 0 0 2.4-8.5 22.8 22.8 0 0 0 .1-6.9 19.4 19.4 0 0 1 0-6.8 48.5 48.5 0 0 1 4.8-12.1 34.6 34.6 0 0 0 3.6-9.9c.9-4.9 1.1-9.8-.6-14.6a40.3 40.3 0 0 0-2.8-5c-.7-1.2-1.5-2.4-2.1-3.7a4.7 4.7 0 0 1 1.6-6.1 11.9 11.9 0 0 1 5.4-1.8c5.9-.4 11.3.7 16.2 4.2a35.2 35.2 0 0 0 10.4 4.8 54.6 54.6 0 0 1 11.6 4.5 41.5 41.5 0 0 1 12 10.5 63.2 63.2 0 0 1 10.6 19.6 43.7 43.7 0 0 1 2.5 15.2c0 3.7.1 7.4-.9 11a25.8 25.8 0 0 1-.8 2.6c-.2.5-.5 1-1.1.8s-.8-.8-.7-1.4a17 17 0 0 0 .4-2.2 53 53 0 0 0 .1-13.2 47.5 47.5 0 0 0-2.6-12 88.3 88.3 0 0 0-5.3-11.2 49.4 49.4 0 0 0-13.5-14.9c-3.5-2.7-7.6-4.2-11.8-5.4a40.7 40.7 0 0 1-13.3-5.9c-4.1-2.9-8.7-3.7-13.6-3.5a5.8 5.8 0 0 0-1.8.4c-3.1 1.4-3.1 2.2-1.5 4.6s4.4 6.9 5.1 11 1 5.6.4 8.6-.3 3.6-.7 5.4a33.9 33.9 0 0 1-2.8 7.5c-2 4-4.1 7.9-5.2 12.2a17.9 17.9 0 0 0-.2 6.9 20.7 20.7 0 0 1-.3 8.6 100.9 100.9 0 0 1-7.6 21.4c-1.5 3.2-3.7 6-5.1 9.1a43.5 43.5 0 0 0-3.7 13.7c-.2 2.8-.7 5.7-.1 8.6-.9 5.2-1 10.7-4.8 15.1a17 17 0 0 1-3.5 3.6 40.7 40.7 0 0 0-4.3 4 2.5 2.5 0 0 0 1.2 1.6 24.9 24.9 0 0 1 6.7 10.8 60.6 60.6 0 0 1 3.6 17.3 28.9 28.9 0 0 0 .4 2.9 79.5 79.5 0 0 1 0 13.8c-.6 3.3-.7 6.7-1.3 10-1 6-2.5 11.7-5.7 17a59.6 59.6 0 0 0-5.7 12.9 15.1 15.1 0 0 0 .1 9.4 56.6 56.6 0 0 1 3 10.9c.6 3.9 1.3 7.9.2 11.8a17.8 17.8 0 0 1-1.9 4.7 206.5 206.5 0 0 0-12.3 27.1c-3.2 8.4-6.2 16.8-9.1 25.2a135.8 135.8 0 0 0-5.1 19.7z" fill="#bfbab4"></path><path d="M495.2 100.7a1 1 0 0 0-1.1.2 2.1 2.1 0 0 0 .7-1.8c.7.3.7.9.4 1.6z" fill="#faf6f4"></path><path d="M359.4 636.5l-4.8-1.7a32.3 32.3 0 0 1-14.9-10.1c-3.5-4.1-6.8-8.4-10.7-12.1l-5.4-5a154 154 0 0 1-17.2-20.6 111.3 111.3 0 0 0-15.6-17.9c-3.7-3.4-7.5-6.6-11.1-10s-8.7-8.4-12.8-12.9a90.8 90.8 0 0 1-10.4-14.2c-1.3-2.3-2.5-4.8-3.7-7.3a2.2 2.2 0 0 0-2.3-1.3c-4.5.7-8.9.4-13.4.4a111.8 111.8 0 0 1-15.3-.5 134.9 134.9 0 0 1-25.2-4.7 247.9 247.9 0 0 1-26.5-9.9c-7.9-3.4-15.8-7.2-24.1-9.6-4.8-1.4-9.6-2.6-14.4-3.9-6.6-1.7-12.9-4.3-19.4-6.4a147.2 147.2 0 0 0-18.6-4.2c-5.3-1-10.3.3-15.3 1.7-14.8 4-29.4 8.6-44.3 12.2a27.7 27.7 0 0 0-7.3 2.6l-1 .5c-1.3.9-1.4 1.3-.3 2.4a13.3 13.3 0 0 0 8.6 3.8 52.8 52.8 0 0 0 11.9-1.1c1.1-.2 2.2-.5 3.3-.6a2 2 0 0 1 1.5.2c.4.2.8.4.7 1a1 1 0 0 1-.8.7c-3.7.3-7.2 1.9-10.8 2.3s-7.7.8-11.4-.7a14.4 14.4 0 0 1-5.8-4c-1.8-2-1.6-4.2.5-5.9a19 19 0 0 1 6.4-3.1l15.4-4.3 23.5-6.8c5.2-1.4 10.3-3.1 15.6-4.2a33 33 0 0 1 11.3 0c10.9 1.4 21.1 5 31.4 8.5 5.4 1.9 11 3.1 16.5 4.6a134 134 0 0 1 18.4 6.5c11.2 4.8 22.3 9.7 33.9 13.3a123 123 0 0 0 18.9 4.3c5.9.9 11.8 1.4 17.8 1.9s11.4.2 17.1.3l1.2-.2c-.1-2.1-1.3-3.8-2-5.6-4.6-10.5-9.2-21.1-13.5-31.7a103.5 103.5 0 0 0-17.5-29 25.4 25.4 0 0 0-8.1-6.8c-1.2-.5-2.4-.7-3.6-1.1s-.9-.2-.8-.8.5-.5.9-.5a9.2 9.2 0 0 1 5.4 1 28.6 28.6 0 0 1 9.5 7.8 8.6 8.6 0 0 0 1.9 1.9l5.2 7.4c5.3 7.6 9.1 15.9 12.6 24.4 2 5 4.2 10 6.4 14.9l7.3 16.5c.4.9.8 1.4 1.9 1.4 4-.2 7.9-.4 11.9-.8h2.9a5.7 5.7 0 0 0 2.6-.4 3.9 3.9 0 0 1 3-.2c1.1.3 2.3-.3 3.4-.6s1-.2 1.2.3-.2.7-.4.9a6.6 6.6 0 0 1-2.9 1.7c-2.3.9-4.9.9-7.3 1.4s-5 .2-7.5.8a26.7 26.7 0 0 1-4 0c-2 .1-2.6.8-1.6 2.6a84.6 84.6 0 0 0 7.1 11.5c4.9 6.5 10.7 12.1 16.5 17.8 2.5 1.1 3.7 3.9 6.2 5.2s1.6 1.9 2.6 2.7c3.9 3.1 7.3 6.9 10.8 10.5a78.1 78.1 0 0 1 7.1 9c4.1 5.5 8.2 11 12.7 16.2s9.6 9.7 14.3 14.6c2.7 2.7 5 5.9 7.5 8.7s7.2 7.1 12.1 8.8 12.3 3.5 18.5 5.1 9.9 2.4 14.9 3.3a51.6 51.6 0 0 0 13 1.2 3.2 3.2 0 0 0 1.7-.3 3.9 3.9 0 0 1 2.8-.2 1.4 1.4 0 0 0 1.1 0c3.5-.8 7.1-.1 10.6-.8 1.6-.6 3.2-1.1 4.9 0 3.8.9 7.4.2 11.1-.8s9.2-3.2 13.9-4.6c6.3-1.9 12.8-3.4 19.3-4.8 4.8-1.1 9.6-1.9 14.3-2.9 2.1-.4 4.1.1 6.1-.6a3.9 3.9 0 0 1-2.9 2.1c-3.4 1.1-7 1.7-10.5 2.6s-6.2 1.8-9.3 2.5-7.2 1.8-10.7 2.9a157 157 0 0 0-15.1 5c-4.5 1.6-8.9 3.3-13.8 2.9-2.3-.2-4.7-.7-7-.3s-7.1-.1-10.6.8c-1 .2-2.1 0-3.1.1a50.6 50.6 0 0 1-10.3 0c-3.9-.1-7.6-1.1-11.4-1.9-5.4-1.2-10.7-2.6-16-4a37.9 37.9 0 0 1-6.4-1.8z" fill="#bfbab4"></path><path d="M429.3 258.9a42.4 42.4 0 0 0 1.9 11.1 146.5 146.5 0 0 0 8.8 23.1 6.4 6.4 0 0 0 .8 1.4c1.9 3.1 2 3.2 5.6 2.2a5.2 5.2 0 0 1 5.9 1.8 38.4 38.4 0 0 1 4.2 6.3c4.9 8.5 10 16.9 14.6 25.6 2.9 5.3 5.9 10.4 8.7 15.7 4.1 8.1 8 16.2 11.7 24.4s7 16.7 10.2 25.1c.7 1.9 1.2 3.9 1.8 5.9a3.1 3.1 0 0 1 0 1.9 2.5 2.5 0 0 1-1.5-1.5c-.8-1.6-1.7-3.3-2.5-5-2.1-4.9-4.3-9.8-6.4-14.8s-4.7-10.3-7.2-15.4c-3.5-7.2-7.1-14.3-11-21.2-1.4-2.5-2.6-5-3.9-7.5-3.1-5.4-6-10.9-9-16.3s-6.8-11.6-10.1-17.4a23.9 23.9 0 0 0-1.3-2.1c-1.4-2-2.6-2.4-5-1.7s-4.3.4-6.3-2-3.2-5.7-4.4-8.7-3.6-9-5.1-13.7a80.2 80.2 0 0 1-3.2-13.9 52.7 52.7 0 0 1-.7-7.9 50.9 50.9 0 0 1 2.8-16.4 16 16 0 0 1 1.9-4.7c.2-.3.4-.6.9-.5s.4.5.5.9a8 8 0 0 1-.5 2.6 37.2 37.2 0 0 0-2.2 11.4 71.1 71.1 0 0 0 0 11.3z" fill="#bfbab4"></path><path d="M390.1 400a43.8 43.8 0 0 0 3.5 16.4 114.6 114.6 0 0 0 5.9 10.9 23.4 23.4 0 0 1 2.6 6.8c.3 1.6-.7 3-2.4 3.8a9.3 9.3 0 0 1-8.3-.4l-2-1c-1.5-.6-1.9-.3-2 1.3v1.5c.2 1.7-.1 3.1-1.9 3.8s-1.2 1.4-.9 2.6c.8 2.7 2 5.1 3 7.7a62.2 62.2 0 0 1 3.5 12.3c.7 3.7 0 7.1-.9 10.6a54.3 54.3 0 0 1-1.7 5.3 4.5 4.5 0 0 0-.3 2.6c.3.8-.9 2-1.7 1.9s-1.3-.9-1.3-1.8.1-1.1.2-1.7c.7-3.1 1.6-6.2 2-9.3a30.3 30.3 0 0 0-.5-9c-.9-5.4-3-10.3-5.1-15.2-1.2-2.6-2.1-5.3-.9-8.1.2-.6.4-1.3.8-1.5s1.7-2.6 2.2-4.1 0-.4.1-.6c.8-3.3 3-4.2 5.8-2.3s5.2 2.7 8.4 1.6a3.2 3.2 0 0 0-.6-2.3c-1.6-3-3.1-6-4.7-8.9a48.8 48.8 0 0 1-5.1-13.8c-.6-3.2-1.4-6.4-1.2-9.6a11.7 11.7 0 0 0-.4-4.9 3.3 3.3 0 0 1 0-1.7c.6-2.2.3-4.3.4-6.4a58.4 58.4 0 0 1 2.7-16.1 7.8 7.8 0 0 1 1.8-3.2c.4-.4.9-.7 1.4-.3s.3.8.1 1.2c-1.7 3.6-1.8 7.4-2.4 11.2a29.5 29.5 0 0 0-.1 4.2 151.4 151.4 0 0 0 0 16.5z" fill="#bfbab4"></path><path d="M383 410.7c-1-3.5-2-3.9-5.2-2.3a4.7 4.7 0 0 0-2.6 2.2l-1.1 1.1a8.9 8.9 0 0 0-3.6 7.9 3.3 3.3 0 0 0 1.1 2.6 18.8 18.8 0 0 1 3.8 5.8c1.1 2.3.6 3.5-1.7 4.4a7.7 7.7 0 0 1-3 .6 63 63 0 0 1-13-1.3c-2.5-.5-5.1-.5-7.6-1a49.7 49.7 0 0 0-7.7-.4 22 22 0 0 0-4.4.5 4.7 4.7 0 0 0-2.5 1.7c-.3.4-.7 1.1-1.2.6a1.4 1.4 0 0 1-.5-1.8 5.2 5.2 0 0 1 3-3 24.4 24.4 0 0 1 6.9-1.5 73.8 73.8 0 0 1 14.1 1.1 86 86 0 0 0 12.3 1.5c1.9 0 2.3-.6 1.3-2.2s-1.7-2.5-2.5-3.7a8.4 8.4 0 0 1-1-7.8c1.8-4.7 4.8-8.3 9.6-10a7.8 7.8 0 0 1 4-.3c2.3.4 3 2.7 1.5 5.3z" fill="#bfbab4"></path><path d="M631.5 125.8a.7.7 0 0 1-.1.9c-2.3 4.8-4.6 9.7-7 14.5a51.1 51.1 0 0 1-4.5 6.6c-2.4 3.3-5.9 5.6-8.3 8.9-2.7 1.3-4.2 4.1-6.7 5.7a5.2 5.2 0 0 0-1.1 1c-3.7 3.6-7.4 7.1-10.9 10.9s-7.8 9.2-9.1 15.3a1.9 1.9 0 0 1-.3.8c-.2.3-.3.6-.7.5a.9.9 0 0 1-.6-.6 4.6 4.6 0 0 1 .1-2.6 33.6 33.6 0 0 1 8.6-15.4c4.5-4.5 8.9-9 13.5-13.3s8-7.2 11.8-11.1a46.1 46.1 0 0 0 8-11.1c1.7-3.2 3.1-6.5 5.2-9.5.5-.7 1-1.7 2.1-1.5z" fill="#c0bbb5"></path><path d="M625.5 109.4a29.2 29.2 0 0 1-1.8 8.6 100.5 100.5 0 0 1-10.9 23.5 34.5 34.5 0 0 0-2.5 4.1 3.8 3.8 0 0 1-1.3 1.8 11 11 0 0 0-3.4 3.4c-.5.8-1.4 1.7-2.1 1.3s-.2-1.6.2-2.3a35.1 35.1 0 0 1 2.7-4 113.9 113.9 0 0 0 14.5-26.8 80.9 80.9 0 0 0 2.8-8.3 6.2 6.2 0 0 0 .2-2.7.4.4 0 0 1 .2-.5c.2 0 .5 0 .6.2s.6 1.3.8 1.7z" fill="#c0bbb5"></path><path d="M393.2 644.1h10.3a1 1 0 0 1-1 .6 27.5 27.5 0 0 0-8.1.1c-.6.1-.9-.3-1.2-.7z" fill="#faf6f4"></path><path d="M421.8 639.2h-4.9c1.9-1.7 3.4-1.7 4.9 0z" fill="#faf6f4"></path><path d="M565.6 16.5a3.4 3.4 0 0 1-1.3 2.4c-1.7 1.4-3.6 2.7-5.4 4.1a.8.8 0 0 1-1 0 1.1 1.1 0 0 1-.2-1.1 6.3 6.3 0 0 1 2.2-2.9l1.7-1.4a1.7 1.7 0 0 0 .8-2.1c-.6-.9-1.2-2-2.5-1.9s-1.3 0-1.3-.8a1.4 1.4 0 0 1 1.3-1.6c2-.2 3.2 1.1 4.4 2.4a4.3 4.3 0 0 1 1.3 2.9z" fill="#c0bbb5"></path><path d="M552.6 18.5c0 .7-.1 1.3-.7 1.4s-.7-.2-.9-.7a31.7 31.7 0 0 1-2.1-4.1 4.5 4.5 0 0 0-2.5-2.9 1.5 1.5 0 0 1-1.2-1.8c.1-1.2.6-1.6 1.7-1.1a8.7 8.7 0 0 1 5.3 6.6 17.8 17.8 0 0 0 .4 2.6z" fill="#c0bbb6"></path><path d="M798.1 381.3c1.2.7 1.8 1.9 2.7 2.8s3 3.1 4.4 4.6 1.3 1 1.4 2a16.3 16.3 0 0 1-4.5-4.2 29.1 29.1 0 0 0-3-3.1 2.5 2.5 0 0 1-1-2.1z" fill="#faf6f4"></path><path d="M598.9 108.1c-1.1-.4-2.3-.3-3.7-1.2 1.2-.5 1.7-1.1 3.2-.6a15 15 0 0 0 7.3.1c-.5.7-1.2.5-1.8.6h-3.6c-.8 0-1.3.2-1.4 1.1z" fill="#faf6f4"></path><path d="M390.1 400a1.8 1.8 0 0 1-.4-1.4v-13.7a1.8 1.8 0 0 1 .4-1.4z" fill="#faf6f4"></path><path d="M741.5 333.2a24.1 24.1 0 0 1 7.6 3.6c-2.8-.6-5.5-1.4-7.6-3.6z" fill="#faf6f4"></path><path d="M729.5 329.6a28.8 28.8 0 0 1 8.1 2.3h-.5c-.6.2-1.2.5-1.7 0s-4.5-.1-5.9-2.3z" fill="#faf6f4"></path><path d="M627.5 543v-13.8c.5.3.5.9.5 1.4v11a1.6 1.6 0 0 1-.5 1.4z" fill="#faf6f4"></path><path d="M852.4 519.8h-10.7a1.3 1.3 0 0 1 1.6-.7 18.3 18.3 0 0 0 7 0 2.1 2.1 0 0 1 2.1.7z" fill="#faf6f4"></path><path d="M429.3 258.9a2.1 2.1 0 0 1-.4-1v-9.3a1.4 1.4 0 0 1 .4-1z" fill="#faf6f4"></path><path d="M555.4 186.3l3.4 3.2.2.3c.1.4.3.7.4 1.1s-.1.6-.5.6-1.6-3.1-3.1-4-.4-.8-.4-1.2z" fill="#faf6f4"></path><path d="M733.5 333.6c-.9.1-1.8-.9-2.7.1a3.7 3.7 0 0 1-1.7-.5.8.8 0 0 1-.4-.9c.2-.4.7-.7.9-.6s2.9.6 3.9 1.9z" fill="#faf6f4"></path><path d="M932.6 544.8l.7.5c.3.4.5.9 1 1.7-2.4-.1-4.5.4-6.7-.5h3.3c1.2.1 1.7-.6 1.7-1.7z" fill="#faf6f4"></path><path d="M560.2 190.3c2 1.6 4.3 2.6 6.3 4.1a13.9 13.9 0 0 1 1.9 1.5c2.7 2.6 5.2 5.4 8 7.9s2 2.7 2.9 4.1a108.1 108.1 0 0 1 8.1 16.8 132.3 132.3 0 0 1 5.1 15.4 80.2 80.2 0 0 1 1.6 10c.4 3.1.9 6.2 1.2 9.4s.4 3.8.5 5.7c.2 4.1.9 8.1 1.3 12.1.2 1.9.4 3.8.5 5.8a164.9 164.9 0 0 0 4.3 30.4c1.3 5.1 2.1 10.4 2.9 15.6.5 3.1 1.1 6.1 1.6 9.2s.3 3.8.6 5.7.2 6.3.8 9.5c0 .1.1.3.1.4.1 5.8.8 11.5.4 17.3a35 35 0 0 1-1.8 9.1 148.2 148.2 0 0 1-5.4 15 85.1 85.1 0 0 1-7 11.6 23.7 23.7 0 0 1-3.3 3.8c-2.4 2.1-4.4 4.5-6.9 6.5s-4.1 4-6.4 5.8a102.6 102.6 0 0 1-9 7.3 117.1 117.1 0 0 1-17.4 10.3c-4.3 2-8.7 3.7-12.9 5.7s-10.1 4.6-15 7.3-8.5 4.9-12.9 7c-.4.1-.7.5-1.4.2a30.8 30.8 0 0 1 6.3-4.6 238 238 0 0 1 21.1-11.4c5.8-2.7 11.7-5.3 17.4-8.3a102.1 102.1 0 0 0 14.3-9.6c6-4.8 11.4-10.2 17.2-15.3a59 59 0 0 0 11.2-14.2 47.4 47.4 0 0 0 4.2-9.5c1.1-3.4 2.5-6.7 3.4-10.3a40 40 0 0 0 1.2-13.8c-.3-4.4-.5-8.8-.9-13.2a147.3 147.3 0 0 0-2.5-18.7c-1-5.2-1.6-10.4-2.8-15.6-.7-3.5-1.5-7-2.3-10.5s-.8-5.2-1.3-7.8a48.1 48.1 0 0 0-.7-5.3c-.5-1.6-.2-3.3-.5-5s-.3-4-.5-5.9c-.2-3.9-.9-7.8-1.2-11.6-.2-2-.6-3.9-.7-5.9a63 63 0 0 0-1-8.6c-.4-2.9-.7-5.8-1.1-8.7a51.2 51.2 0 0 0-1.5-7.8 144.8 144.8 0 0 0-9.5-25.2c-2.1-3.8-4.3-7.6-7.6-10.6a41.2 41.2 0 0 1-2.8-3.1c-2.1-2.4-4.7-4.2-7-6.5a4.4 4.4 0 0 0-1.9-1c-.6-.2-1.1-.6-.5-1.3s-.6-1.2.1-1.8 1-.1 1.2.6z" fill="#bfbab4"></path><path d="M946.4 534c1.1 1.5 2.2 2.9 3.1 4.3a15.4 15.4 0 0 1 2.7 8.6 7 7 0 0 1-4.9 6.8 7.6 7.6 0 0 1-3.2.8c-.6 0-1.1-.2-1.1-.9s.5-.7.9-.8a10.5 10.5 0 0 0 2.3-.8c2.5-1 3.5-2.9 3.4-5.6a16.1 16.1 0 0 0-1.8-5.2c-.1-.4-.5-.4-.9-.5-1.1-2.7-3.1-4.8-5-7-5.9-6.6-13.2-11.4-20.5-16.2a141.5 141.5 0 0 1-18.6-14.3c-4.6-4.2-9.6-8.1-14.3-12.2-3.1-2.8-6.4-5.5-9.6-8.2l-8.8-7.4-6.7-5.5c-3.3-2.9-6.7-5.9-9.8-9a87.8 87.8 0 0 1-12.7-16.4c-1.6-2.5-3-5-5.3-6.8s-3.4-2.7-5.1-3.9a19.5 19.5 0 0 1-8.1-10.8c-.7-1.9-1.4-3.9-2-5.9-1-3.9-3.7-6.7-6.7-9.1s-6-3.9-9.1-5.9-4.8-3.4-7.1-5.2a16.4 16.4 0 0 1-5.4-8.5c-.3-1 .6-3.7 1.4-4.2a.6.6 0 0 1 .9.3 2.8 2.8 0 0 1 .1.9c-.1 2.8 1.3 4.7 3.2 6.7a35.7 35.7 0 0 0 8.1 6.4 72 72 0 0 0 7 4.2 28.6 28.6 0 0 1 4.1 3 23 23 0 0 1 7.7 12c.7 2.7 1.4 5.5 3.1 7.8a19.3 19.3 0 0 0 4.4 4.6 73.2 73.2 0 0 1 8.7 6.9c2 1.2 2.8 3.4 3.9 5.3a97.6 97.6 0 0 0 18 21c9.3 8.3 19.2 15.9 28.5 24.1s15.8 14 23.9 20.6c5 4 10.5 7.3 15.7 10.9a79.5 79.5 0 0 1 13.2 11.3c1 1.1 2.2 2.2 2.4 3.8z" fill="#bfbab4"></path><path d="M464.5 164c-3.7-5.2-4.9-11-5-17.2 0-9.7 2.3-18.9 5.9-27.8a51.1 51.1 0 0 1 2.9-6.3c.7-1.3.7-1.3 2.2-2.1a3.6 3.6 0 0 1-.5 2.3 92.5 92.5 0 0 0-6.6 20.5 62.7 62.7 0 0 0-1.5 12.3 31.7 31.7 0 0 0 2.3 12.1 10.3 10.3 0 0 0 2.9 4.5c5 4.4 7.2 10.1 7.7 16.6.1 1 .3 1.9.4 2.9-.4 4-.9 8-1.6 12a47.6 47.6 0 0 0-1 13 86.2 86.2 0 0 0 2.5 14.2 101.3 101.3 0 0 0 9.4 22.9 175.9 175.9 0 0 0 14.4 22.9c4 5.3 8.2 10.4 12.4 15.6a136.9 136.9 0 0 1 8.8 11.3 10.4 10.4 0 0 1 1.8 4.5 2.1 2.1 0 0 1-2-1.2c-2.7-3.6-5.8-6.9-8.7-10.4s-3.9-4.6-6-6.8a164 164 0 0 1-16.8-22 154.6 154.6 0 0 1-11.3-20.3 104.9 104.9 0 0 1-7.2-22 65.1 65.1 0 0 1-.9-15.9 49.8 49.8 0 0 1 1.4-8.6 49.1 49.1 0 0 0 .8-10.8 23.9 23.9 0 0 0-1.9-9.9 15.5 15.5 0 0 0-3.2-4.5z" fill="#bfbab4"></path><path d="M946.4 534a69.5 69.5 0 0 0-16.5-15c-4.3-2.9-8.6-5.8-12.8-8.8a110.6 110.6 0 0 1-10-8.1c-4.4-3.9-8.7-7.8-13.2-11.5s-7.1-6.2-10.6-9.2l-11.6-9.6c-6.4-5.3-12.8-10.7-18.3-16.8a91.4 91.4 0 0 1-10.9-15.2c-.5-.9-1.4-1.7-1.7-2.8s1-1.3.9-2.2a21.1 21.1 0 0 1 1.8 2.7c2.3 4.6 5.7 8.3 8.9 12.2a145.6 145.6 0 0 0 10.7 11.5c3.8 3.6 7.7 7 11.8 10.2 1.4 1.1 2.7 2.3 4 3.5 4.2 3.6 8.1 7.6 12.1 11.5a154.5 154.5 0 0 0 21.7 17.8 27.7 27.7 0 0 0 11.3 4.5 7.2 7.2 0 0 1 3.7 1.3 27.4 27.4 0 0 0 4.5 4.5 26.5 26.5 0 0 1 3.4 3.3c2.5 3.1 5.8 5.7 8 9.2a23.2 23.2 0 0 1 3 5.6c.1.5.4 1-.2 1.4z" fill="#faf6f4"></path><path d="M733.5 333.6c3.3 1 6.6 2.3 9.8 3.5s3.7 1.8 5.6 2.6a36.3 36.3 0 0 1 5.5 3.5c1.7 1.2 3.4 2.3 5 3.6a96.5 96.5 0 0 1 8.4 7.2 38.7 38.7 0 0 0 5.4 4.6c.9.6 1.3 1.6 2 2.3l4.9 4.9c.4.4 1 .7.8 1.6a32.4 32.4 0 0 1-5.6-3.8c-4.1-3-7.6-6.9-11.5-10.1a53.3 53.3 0 0 0-11.8-7.4l-5.5-2.8c-2.7-1.5-5.5-2.8-8.1-4.4a48.7 48.7 0 0 1-7.6-5.2c.9-1.4 1.8-.6 2.7-.1z" fill="#f7e3cb"></path><path d="M495.2 100.7c-.3-.6-.3-1.3-.8-1.8-2-4.9-3.9-9.9-5.9-14.8-.9-1.9-2-3.8-3-5.7a13.6 13.6 0 0 1-1.8-7.4c.1-1-.4-1.9-.4-2.8a31.5 31.5 0 0 1 .9-8.1c.2-.7.7-1.4 1.6-1.1a1.4 1.4 0 0 1 1.1 1.9c-1.3 4.5-.3 9.1.4 13.6a9.3 9.3 0 0 0 1.7 3.8c2.4 3.4 3.5 7.5 5.2 11.2a76.7 76.7 0 0 1 4.2 11.9 71.4 71.4 0 0 1 1.5 7.8v.9c-.3.8-.7.9-1.3.4a4.1 4.1 0 0 1-.7-1.1c-.9-2.9-2-5.7-2.7-8.7z" fill="#c0bbb4"></path><path d="M536.6.5a3.6 3.6 0 0 0-2 .6 2.1 2.1 0 0 1-1.9.1 7.3 7.3 0 0 0-4.1-.7c.2-.1.4-.3.6-.3 2.5 0 5-.6 7.4.3z" fill="#faf6f4"></path><g><path d="M522.3 135.9a117.9 117.9 0 0 0-7.4-12.3l-4.2-6.5a1.4 1.4 0 0 0-.8-.7c-1.5-1.3-1.8-3.3-2.6-5a6.3 6.3 0 0 1-.9-3.8 1.6 1.6 0 0 1 .8-1.5c.4.2.5.7 1 1.3.6-4.6 2.6-8.4 4.3-12.3a13 13 0 0 1 .8-1.7c.3-.5.6-1.3 1.4-1.1s.7.9.7 1.5c-.2 6.8 2.5 13.2 3.1 19.9s1.5 11.5 3.8 16.9a19.5 19.5 0 0 0 5.6 7.2c-.9-4.1-1.4-8.3-1.9-12.4a15 15 0 0 1-.2-4.2 49.6 49.6 0 0 0-1-17.2 2.8 2.8 0 0 1 0-1.8c1.6-.6 4.8.4 5.5 1.7s-.5 1.7-1.2 2.1a9.6 9.6 0 0 1 3.8-.9c1.1.2 2.3.3 2.8 1.4s-.7 1.7-1.1 2.4a5.6 5.6 0 0 1 4.5-2.5c2.1-.1 2.6.6 1.8 2.6-.1.3-.3.5-.3.8 1.3-3.2 2.5-4 5.2-3.4s1.6.9 1.2 2.1a4.2 4.2 0 0 1 4.5-3.1c2 .1 1.4 1.8 1.9 2.9-.7-3.3-.7-3.3 3.7-4.1a14.2 14.2 0 0 0-5.1.1 46.8 46.8 0 0 1-11.2 1.1 20.6 20.6 0 0 1-7-1.2 43.6 43.6 0 0 0-9.3-2.9c-4.3-7.7-4.5-15.9.6-23.3q1.6-2.4 3.6-4.8a66.7 66.7 0 0 0 8.4-12.5 31.7 31.7 0 0 1 4.8-7.1c3.4-3.7 8-4.7 12.7-5.1s7.4.4 11 1a65.6 65.6 0 0 1 11.8 2.9c7.6 2.9 13.7 7.4 17 15.1a69.1 69.1 0 0 1 5.4 17.8 2.8 2.8 0 0 1-.2 2.5c-1.2.2-1.3-.8-1.7-1.4-2.1-3.8-4.2-4.9-8.5-4.3-2.1.3-4.2 0-6.2.4s-2.4 1.1-2.3 2.8 0 2.8.1 4.2.6 1.4 1.6.8l2.5-1.4a12.9 12.9 0 0 1 10.2-.5 5.1 5.1 0 0 1 2.8 2 3.2 3.2 0 0 0 2 1.6 1.4 1.4 0 0 1 1.1 1.6c-.4 1.5-.9 2.9-1.2 4.4a1 1 0 0 0 .3 1.2c-1.1 3.6-5.2 6.7-9.6 7a21 21 0 0 1-9-.9 8.7 8.7 0 0 0-5.3-.1c0 .3 0 .3.3.3s2.4-.9 3 .4-1.3 1.9-1.6 2.9l1.7-1.8a2.3 2.3 0 0 1 3.3-.4c1.2.9.6 1.9 0 2.9s-.1.4-.2.4 1.1-3.1 3.3-3 2.3 2 2.9 3.4c-.5-2.5.9-4.1 3.4-3.3a30.8 30.8 0 0 1 6.5 2.7c.9 3.2 1.2 6.5 2.5 9.6a6.2 6.2 0 0 1 .2 1.9 87.9 87.9 0 0 1-1.3 17 69.5 69.5 0 0 1-3.2 14.2 48.8 48.8 0 0 1-7.5 14.5 58.5 58.5 0 0 0-4.5 5.4 19.1 19.1 0 0 1-6.2 5.5 59.3 59.3 0 0 1-6.9 2.9c-1.7.6-3.3 1.3-5.2 1.1h-.2a1.6 1.6 0 0 0-1.2-.6c-6.3-.8-11.8-3.7-17.6-6a3.9 3.9 0 0 0-2.8-.5 121.9 121.9 0 0 1-9.9-15.7c-2.9-5.8-6.1-11.5-9.5-17.1-1.1-2-2.6-3.8-3.4-6z" fill="#f8af74"></path><path d="M599.5 87.8a25.1 25.1 0 0 0-1-6 74.6 74.6 0 0 0-5.3-15.5 17.8 17.8 0 0 0-3.5-5.1 31.3 31.3 0 0 0-15.1-9c-1-.2-2-.6-3-.9s-3.2-1.1-4.9-.7a2.1 2.1 0 0 1-1.3-.3 26.4 26.4 0 0 0-19.7 1.2 9.4 9.4 0 0 0-4 3.4 67.5 67.5 0 0 0-5.1 8c-2.4 4.7-5.7 8.7-9 12.7a35.8 35.8 0 0 0-3.4 5.2 19.6 19.6 0 0 0-1.2 15.7c.6 1.5 1.1 3.1 1.6 4.6s.6.6.5 1a52.1 52.1 0 0 1 1.6 15.7 66.2 66.2 0 0 0 1 15.4 34.5 34.5 0 0 0 1.2 4.6c.1.5.5 1.2-.1 1.5s-1.2-.2-1.6-.6a36.5 36.5 0 0 1-3.5-4.3c-2.7-4-3.9-8.6-4.9-13.3s-1-9.5-2.1-14.2a53 53 0 0 1-2.1-14.2c-2.2 4.5-4.8 8.8-5.5 13.9a13.3 13.3 0 0 1-.5 1.9.6.6 0 0 1-.5.6.6.6 0 0 1-.6-.6l-.3-2.4c-.8-2.5-1.1-5.1-2-7.5a59.8 59.8 0 0 1-2-8.1c-.8-3.4-1.4-6.7-2.1-10a34.8 34.8 0 0 1-.9-11.1 30.7 30.7 0 0 1 2.1-9.8 36 36 0 0 0 2.4-9.1 93.7 93.7 0 0 1 1.9-9.2 32.4 32.4 0 0 1 3.7-9.5 6.7 6.7 0 0 1 .6-1.2 35.1 35.1 0 0 1 8.8-7.5c2.9-1.6 5.7-3.2 9-3.9s7.1-.9 10.5.6 5.1 2.3 8.1 2.4 5.6 1.7 8.4 2.6 5.6 3.1 8.2 5.1c1 .8 2.1 1.4 3 2.1a21.1 21.1 0 0 1 3.6 4.3c.3.4.5.9 1.2.7 5.7-1.4 10.5.7 15.2 3.6a49.9 49.9 0 0 1 11.2 9.8 29.1 29.1 0 0 1 6.7 14.7 28.3 28.3 0 0 1 .6 5.7 58.6 58.6 0 0 1-.3 7.3 85.8 85.8 0 0 1-2.6 13.4c-.2.9-.4 1.7-1.3 2.1a2.9 2.9 0 0 1-.8-1.4 4 4 0 0 1-.9-4.4z" fill="#562d1c"></path><path d="M599 109.7l-2.7-.4a4 4 0 0 1-2.9-1.4 1.2 1.2 0 0 0-1.1-.4c-3.1.1-3.2.2-2.3 3.3a1.5 1.5 0 0 1-.1 1.3 4.3 4.3 0 0 1-1.9-3c-.2-1.1-.6-1.4-1.7-1.6a1.7 1.7 0 0 0-2 1.1 13.1 13.1 0 0 1-2.4 3.7c-.5-.5-.3-.9-.1-1.3l1.2-2.4c.1-.5.8-1.2.1-1.6s-1.6-1-2.4 0l-2.7 2.6c-.4.4-.8 1-1.7.7.9-1.6 2.3-2.7 3.4-4.2-1.2-.7-2.3-.1-3.4.1s-1.3.5-1.5-.3.5-1 1-1.2a7.5 7.5 0 0 1 5.7-.1 20.5 20.5 0 0 0 7.4 1.1 11.6 11.6 0 0 0 9.7-4.5c.6-.7 1.1-1.4 1.7-2s1 1 .7 1.8a8.7 8.7 0 0 1-2 3.1 3.2 3.2 0 0 0 2.4 1.1l3.9.5c.4 0 .3.4.4.7-2.8.8-5.7 0-8.4.5.4.5 1.4.2 1.6 1.2s1.7-.2 2.3.6-1.5.7-2.2 1z" fill="#050303"></path><path d="M560.2 190.3a3.1 3.1 0 0 0-1.2-.5l-.5-.5c-3.2-3.6-5.4-7.9-9.1-11.1-.4-.4-1.1-1-.6-1.7s1.2-.5 1.8-.2a54.8 54.8 0 0 0 15.9 5.1l.4.3c-2.3 2.8-4.6 5.6-6.7 8.6z" fill="#f7af74"></path><path d="M566.9 181.7a25.4 25.4 0 0 1-9.9-2c-2.3-.9-4.6-1.8-6.8-2.9a1 1 0 0 0-1.4 0l2.5 2.5a24.3 24.3 0 0 1 4.1 4.9 18.7 18.7 0 0 0 3.2 4.2c.3.3.8.6.2 1.1s-2.4-2.1-3.4-3.2a26.3 26.3 0 0 0-4.6-5.4 42.7 42.7 0 0 1-5.7-6.3c0-1.1.4-1.3 1.4-.8 2.5 1.1 5.2 2 7.7 3.2a40.6 40.6 0 0 0 11.4 3.4c.8.1 1.5.2 1.3 1.3z" fill="#d18b67"></path><path d="M571.8 157.3c-3.6-.1-6.8-1.4-10.1-2.6-4.8-1.8-8.6-5.1-12.7-8-.4-.3-.8-.7-.6-1.3s.8-.7 1.3-.6c4.1.9 7.8-.8 11.6-1.6a14.9 14.9 0 0 0 3-.9 8.9 8.9 0 0 1 7.5.5 2 2 0 0 0 2.8-.3c2-1.9 4.1-1.4 6.2-.2l4.5 2.1 1.5.9a.9.9 0 0 1 .2 1.5c-1.1 1.5-2 3.2-3 4.7a13.2 13.2 0 0 1-6.8 4.8c-1.7.5-3.5 1.2-5.4 1z" fill="#f49076"></path><path d="M524.2 92.7a2.2 2.2 0 0 1 .1-2.1 14.9 14.9 0 0 1 3.7-6.3 19.3 19.3 0 0 1 11-5.7 37.7 37.7 0 0 1 16.7 1.1c2.6.8 2.7 1 2.2 3.7a16.3 16.3 0 0 1-.8 4.3c-.9 2-1.5 2.2-3.3 1a26.7 26.7 0 0 0-10-4.2 21.6 21.6 0 0 0-8.4 0c-3.7.7-6.5 3.1-8.8 5.9a6.6 6.6 0 0 1-2.4 2.3z" fill="#562d1c"></path><path d="M599.5 87.8c.6 1.4.4 3 .9 4.4-1.6.8-1.7.8-2.3-.6s-3.7-3-6.1-3.3a12.2 12.2 0 0 0-8.8 2.5l-1.1.7c-.8.4-1.5.2-1.7-.7a31.4 31.4 0 0 1-.1-7.5 1.1 1.1 0 0 1 .9-.9 10.5 10.5 0 0 1 2.4-.6 79.1 79.1 0 0 1 8.4-.6c3.2.1 5.1 2.1 6.4 4.8.4.6.4 1.4 1.1 1.8z" fill="#562d1c"></path><path d="M525.1 102.1a1.2 1.2 0 0 1-.5-1 10.4 10.4 0 0 1 6.3 1.3c5.1 2.7 10.6 2.4 16.1 2.1a31.5 31.5 0 0 0 5.2-.9 10.2 10.2 0 0 1 4.6-.1c.7.1 1.5.3 1.4 1.1s-.9.7-1.4.7h-2.5q-1 0-.9 1.2a22.8 22.8 0 0 0 1.1 3.5c-1.6-1.2-1.7-2.7-2.1-4h-.3c-1.4.3-3 .1-4 1.1s-.5 2.5-.9 3.9c-1.2-1.2-.3-2.6-.6-3.8-4.5-.4-4-.6-5.8 3.2-.2.5-.1 1.1-.8 1.3-.3-1.6.7-3 1.1-4.5-3.8-1.2-5.5 1.6-7.6 4.1-.3-2.2 1.2-3.2 2-4.6-1.3-.5-2.6-1.3-4.2-.7l-4.4 1.5c.7-1.8 2.4-1.8 3.5-2.9a12.2 12.2 0 0 0-5.3-2.5z" fill="#050202"></path><path d="M577.8 132.1c0-1 1.1-1.2.9-2.3s-1.5 1.1-2.1 1.7-1.8 1.8-3.1 2-2.4 0-2.9-1.3a13.1 13.1 0 0 0-2.4-2.8 2.1 2.1 0 0 0-1.7-.6c-1.5 0-2 .6-1.6 2s.3.5.4.8c-1.5-.1-2.3-1.3-1.6-2.4a3.3 3.3 0 0 1 3.6-1.4 6 6 0 0 1 4 3.6c.7 1.5 1.5 1.7 3 1.1a7.9 7.9 0 0 0 2.2-1.9l1.1-1c1.2-1 1.5-.8 1.9.7s.1.2.3.4c2.3-1.7 1-4.2 1.6-6.8a7 7 0 0 1-.1 6.6c-.7 1.2-1.7 2.4-3.5 1.6z" fill="#d89067"></path></g></g></g></svg>