<svg xmlns="http://www.w3.org/2000/svg" width="840" height="1080" viewBox="-0.035313189029693604 -0.016845703125 840.0009765625 1079.9168701171875" style=""><g><g data-name="Layer 2"><path d="M267.7 290.2c9.5 20.7 34.1 32.8 58.8 26.8s48.2-26.3 43.7-38.8 0-31.7-51.3-24.1-51.2 36.1-51.2 36.1z" fill="#63362d"></path><path d="M365.7 290.2s7.6 2.8 8.1 8.5c.4 3.5 2.9 13.7 4.7 20.9a162.6 162.6 0 0 0 14.4 22.5s34.2 22.4 75.9 45.7c32.3 18.2 56.6 12.1 64.8 9.2l3.6-1.5c19.7-9.7 28.9-49 31.5-58.2s8.4-91.1 8.4-91.1-111.8 34.4-211.4 44z" fill="#97573d"></path><path d="M365.7 290.2l-39.2.9s10.8 35.3 26.5 37.2a84 84 0 0 0 27.5-1s-.8-3.3-2-7.7-4.1-8.2-4.1-8.2z" fill="#97573d"></path><path d="M365.7 290.2l8.7 21.2s1.5 3.3 4.1 8.2c-1.8-7.2-4.3-17.4-4.7-20.9-.5-5.7-8.1-8.5-8.1-8.5z" fill="#794336"></path><path d="M537.2 395.5l-3.6 1.5a21.1 21.1 0 0 0 3.6-1.5z" fill="none"></path><path d="M405.4 354.5c16.2 10.8 45.6 30.9 63.1 38.3s45.3 11.7 65.1 4.2c-8.2 2.9-30 7.3-62.3-10.8-41.8-23.4-81.2-48.9-81.2-48.9l-1.6 1.9c3.9 5 12.6 12.4 16.9 15.3z" fill="#794336"></path><path d="M333.9 81.5c97.4.1 189.5-46.4 189.5-56.4S506.5-2.6 457.3.3 339.4 7.9 296.2 35.8c-14.6 9.5-22.7 14.1-22.7 21.4 0 2-.7 4.6 1.1 8.7s22.5 15.6 59.3 15.6z" fill="#dda875"></path><path d="M707.4 111.8c-29.1-27.7-162.6-31.3-162.6-31.3l-20-52.2c0 13.2-56.7 34.8-93.2 49.3S309 90.1 292.9 82c-11.8-5.9-17.5-5.5-19.2-10.7-2.8-2.2-3.5-8.9-4.7-8.1-4 2.6 10.5 76.7 10.5 76.7s-48.9 17.8-80.7 42.3-67.6 57.3-30.8 91.8 243.4 20.8 304.9 6.8 175.8-52.7 207.1-83 56.6-58.4 27.4-86z" fill="#d8a36b"></path><path d="M552.2 340.2a57 57 0 0 1-10 5.4 57.1 57.1 0 0 1 6.4-.7c3.4.2 8.4-7.7 12.2-13.9-2.6 3.4-5.9 7.2-8.6 9.2z" fill="none"></path><path d="M566 323.9s-2.2 3.3-5.2 7.1c-3.8 6.2-8.8 14.1-12.2 13.9a57.1 57.1 0 0 0-6.4.7 70.2 70.2 0 0 1-16.3 4.9c-7.7 1.2-22.4 4.1-27 4-.4.5-.7 1.1-.4 1.4s11.3 12.5 26.5 13.2 27.5-4.3 30.7-7.8 5.9-17 7.3-20.8 5.4-17.5 3-16.6z" fill="#864937"></path><path d="M500.3 353.5c4.2.1 29-5.8 41.9-7.9a57 57 0 0 0 10-5.4c2.7-2 6-5.8 8.6-9.2s4.2-6.8 5.2-7.1-6.2-4.7-11.5-3.7-6.6 6.4-9.1 9.1-6.8-.2-15.2 2.9-28.1 18.2-30 19.5-3.8 1.1-2.7 2.5a2.2 2.2 0 0 0 1.4.3c.4-.5 1-1 1.4-1z" fill="#703c32"></path><path d="M560.8 331c3-3.8 5.2-7.1 5.2-7.1s-2.9 3.4-5.2 7.1z" fill="#7a4139"></path><path d="M542.2 345.6c-12.9 2.1-37.7 8-41.9 7.9-.4 0-1 .5-1.4 1 4.6.1 19.3-2.8 27-4a70.2 70.2 0 0 0 16.3-4.9z" fill="#63362d"></path><g><path d="M56.2 331.9a48 48 0 0 0-8.9 11.3s18.5-8.3 22.9-9.5c1.4-.4 6.3 1.2 12.6 3.5-.1-3.7-.2-7.3-.3-10.3l-3.2-.3c-8.9-.6-17.8.6-23.1 5.3z" fill="none"></path><path d="M65.7 363.7c-1.2 2.9 17.7.8 17.7.8s-.1-1.5-.1-4c-6.4 0-16.6.8-17.6 3.2z" fill="none"></path><path d="M113 313.2c-.3-2.8-.6-5.7-1-8.6l-17.3-.5z" fill="#97573d"></path><path d="M107.2 275.8c-3.9-13.4-7.8-13.8-13.7-12.6s-8.7 5.1-11.1 9.5a20.5 20.5 0 0 0-1 5.9c8.5 1.3 19.9 2.5 27.5 4.4-.6-2.8-1.1-5.3-1.7-7.2z" fill="#97573d"></path><path d="M124.8 304.7c11.9 0 10.7-7.7 10.7-11.2s-11.3-5.4-23.1-9.5a24.7 24.7 0 0 0-3.5-1c1.1 6 2.2 13.8 3.1 21.6z" fill="#97573d"></path><path d="M121.1 367.7c13.8.2 12.6-9.9 12.6-9.9s-10.2-5.1-15.1-6.3l-.7-.2c.6 5 1.2 10.7 1.7 16.4z" fill="#97573d"></path><path d="M83.3 360.5h2.8c5.3.2 20.1 6.5 33.5 7.1-.5-5.7-1.1-11.4-1.7-16.4-4.8-1.6-22.5-9.4-35.1-14.1.2 8.7.4 18.2.5 23.4z" fill="#97573d"></path><path d="M94.7 304.1l17.3.5c-.9-7.8-2-15.6-3.1-21.6-7.6-1.9-19-3.1-27.5-4.4-.9 11.7 0 35.7.6 41.4.2 1.4.3 3.9.5 6.9 7.7 1.1 21 4.3 33 7.4-.6-4.6-1.5-12.5-2.5-21.1z" fill="#97573d"></path><path d="M133.1 323.8c-3.4-2.1-11.9-6.5-20.1-10.6 1 8.6 1.9 16.5 2.5 21.1l11.7 3c13.2 3.4 13.1-6.7 13.1-6.7s1-1.6-7.2-6.8z" fill="#97573d"></path><path d="M82.8 337.2c12.6 4.7 30.3 12.5 35.1 14.1-.8-6.6-1.5-11.9-2-14.5-.1-.7-.3-1.5-.4-2.5-12-3.1-25.3-6.3-33-7.4.1 3 .2 6.6.3 10.3z" fill="#97573d"></path></g><g><path d="M448.4 895.4s-7.9 2-25.4-7c-14.2-7.3-71.5-19-94-24 19.3 5.8 56.9 20.7 75.3 25 22.1 5.3 36 15.1 40.7 13.4s100.5-52.9 100.5-52.9a24.7 24.7 0 0 0-6-.7 120.4 120.4 0 0 1-25.4 17c-15.4 7.6-65.7 29.2-65.7 29.2z" fill="none"></path><path d="M423 888.4c17.5 9 25.4 7 25.4 7s50.3-21.6 65.7-29.2a120.4 120.4 0 0 0 25.4-17 153.5 153.5 0 0 0-19.6.7c-20.8 1.9-165.5-23.8-178.3-26.7-8.6-1.9-14.4-.7-19.2-.1-1.7 9.5-4.9 21.3-6.1 26.1s1.5 11.4 3.5 12.9a67.1 67.1 0 0 1 9.2 2.3c22.5 5 79.8 16.7 94 24z" fill="#c7905b"></path><path d="M472.5 644h8.9s-1.9-17.7 10.7-54.3 27.2-129 35.4-156.1 9.7-38.1 9.7-38.1a21.1 21.1 0 0 1-3.6 1.5c-19.8 7.5-48.6 2.8-65.1-4.2s-46.9-27.5-63.1-38.3c-4.3-2.9-8.6-7.4-12.5-12.4v15.6c.6 11.4 1.2 22.8 3.1 29.1.8 2.5 4.1 14.5 8.3 30C418 446.2 445.5 539 447 561.7c1.6 25.4 25.5 82.3 25.5 82.3z" fill="#874d39"></path><path d="M458.3 647l23.1-3h-8.9s-23.9-56.9-25.5-82.3c-1.5-22.7-29-115.5-42.7-144.9 6.4 23.2 14.9 54.3 20.5 73.2 9.3 31.6 6.8 92.1 33.5 157z" fill="#794336"></path><path d="M319.8 862.1c.4.3 3.8 1.1 9.2 2.3a67.1 67.1 0 0 0-9.2-2.3z" fill="#fff5e5"></path></g><path d="M392.9 342.1c-3.1-4.1-6.8-15.1-14.4-22.5s-17.2-4.9-22.4-1.7c-10.7 6.6-11.1 16.3-7 28.6s2.6 17.2 13.1 19 21 2.3 24.5-3.8 9.2-15.5 6.2-19.6zm-15.5 7.8c-1.5 2.7-6.1 2.5-10.7 1.7s-4-2.9-5.8-8.3-1.6-9.7 3.1-12.6c2.3-1.4 6.5-2.5 9.9.8s4.9 8.1 6.3 9.9-1.2 5.9-2.8 8.5z" fill="#bc8b46"></path><g><path d="M276 946.6l-5-1.2s-7.6-.2-27.4 15.2c-1.8 1.3-6.9 8.5-10.1 10.9 6.8-.6 12.4-.9 19.4-6.1s23.1-18.8 23.1-18.8z" fill="none"></path><path d="M361.6 937.5a13.5 13.5 0 0 1 .9-2.2s-17.4-2.9-28.5-6.9c-3.5-1.3-12.9-2.4-24-3.3l16.9 4.5c17.6 4.7 27.1 7 34.7 7.9z" fill="none"></path><path d="M65.7 363.7c-1.2 2.9 17.7.8 17.7.8s-.1-1.5-.1-4c-6.4 0-16.6.8-17.6 3.2z" fill="none"></path><path d="M104.5 529.6c5-3.2 8.2-26 8.2-26s.8-33.4-.7-48.4 7.8-45.6 9-57.6c.6-5.8-.2-17.9-1.4-29.9-13.4-.6-28.2-6.9-33.5-7.1h-2.8c0 2.5.1 4 .1 4s-18.9 2.1-17.7-.8 11.2-3.2 17.6-3.2c-.1-5.2-.3-14.7-.5-23.3-6.3-2.3-11.2-3.9-12.6-3.5-4.4 1.2-22.9 9.5-22.9 9.5a48 48 0 0 1 8.9-11.3c5.3-4.7 14.2-5.9 23.1-5.3l3.2.3c-.2-3-.3-5.5-.5-6.9-.6-5.7-1.5-29.7-.6-41.4-6.7-1-11.5-2-11-3.5 1.2-3.5 19.4-14.3 25.4-18.9 3.5-2.6 2-12.4-2.9-12.4-7.1 0-66.8 24.2-71.6 32.5s-1.7 32-2.9 43.7S3 336.1.6 346.5s2.4 6.1 7.7 13.8 5.3 5.3 8.9 18.9 34.3 59.8 34.9 74-1.2 16.5.6 32.5 3.8 54.6 4.1 64c2.1-.5 5.6-1.9 11-5.4 11.1-7 31.6-11.6 36.7-14.7z" fill="#97573d"></path><path d="M810.3 537.6c-7.7-62.6-29-127-44.9-142.1s-26.5-30.4-72.2-31.9-73.8 5.8-87-3.5-32.2-25.3-32.2-25.3l-8 25.7c-3.7 11.7-24.4 38.2-28.8 46.3s-37.1 168.1-44.1 198.1-11.7 39.1-11.7 39.1l-23.1 3c-26.7-64.9-24.2-125.4-33.5-157-5.6-18.9-14.1-50-20.5-73.2a41.5 41.5 0 0 0-4.2-7.5c-11.1-14.3-9-29.3-8.7-34.1a73.7 73.7 0 0 0-.9-12.5l-6.4 4s1.2 13.6-1.8 20.3-3.6 11.8-8.9 17.6-4.8 15-47.2 29.7-60.7 28.3-72.8 37.7-20.9 29.8-33 41.4-23 18.8-24.1 27.7 6.9 21-2 33.5-22 12.1-26.2 22.5-13.6 26.2-14.2 33c0 0-16.7-6.8-22-18.3s-3.6-11-4.7-17.3 0-48.7-1.6-61.8-12.9-29.1-12.9-29.1 4 12 1.2 20.3-13.3 12.5-16.5 14.1-40.6 13.3-40.6 13.3v-1.6c-2.3.6-3.1.2-3.1.2l-3.6-36.8c-6.1.4-5.7.4-7.8 6.2s2.1 7.3-7.3 15.1-20.4 10.2-18 20.8 17.9 43.7 16.4 57.1 2.6 34.3 0 69.1-9.6 61 3.1 100.6 27.4 85.9 53.5 95.8 60.4-1.7 72.6-3.5 22.1-22 47.1-41.2 36.6-30.8 53.4-45.9 23.9-10.5 26.8-28.5l2.9-18s6.4 19.2 10.4 23.8-4 28.5 0 37.8 6.5 19.7 12.7 20.9a20.3 20.3 0 0 0 6.5-.1c.4-2 .7-4 1-5.7 0 0 55.8 4.1 96.4 10.8l120.9 19.9-1.2 1.1a24.7 24.7 0 0 1 6 .7s-95.9 51.2-100.5 52.9-18.6-8.1-40.7-13.4c-18.4-4.3-56-19.2-75.3-25-5.4-1.2-8.8-2-9.2-2.3-12.5-1.7-20.6-1.1-21.8.6s5.8 9.3-1.2 13.4-7.5.1-20.3 19.5-20.3 26.8-20.3 26.8l5 .2a41.8 41.8 0 0 1 15.5-4.2c4.7-.5 18.8 2.9 33.3 6.7 11.1.9 20.5 2 24 3.3 11.1 4 28.5 6.9 28.5 6.9a13.5 13.5 0 0 0-.9 2.2h1.3s0 28.9 12 52 14.7 36.4 14.7 36.4l-4.5 1.6c5.1 12 9.6 21.8 11.7 26.3 4.9 10.6 16.9 26.1 16.9 26.1s93.8-43.1 157.1-68.9 112.3-57.4 167.2-88.6 66.3-65.2 81.3-95.3 9.5-71 19.6-134.2c6.1-37.7-15.4-48.5-28.6-155.3z" fill="#fff5e5"></path><path d="M97.4 538c3.2-1.6 13.8-5.9 16.5-14.1s-1.2-20.3-1.2-20.3-3.2 22.8-8.2 26-25.6 7.7-36.7 14.7c-5.4 3.5-8.9 4.9-11 5.4v1.6s37.5-11.8 40.6-13.3z" fill="#794336"></path><path d="M361.6 937.5c-7.6-.9-17.1-3.2-34.7-7.9l-16.9-4.5c-17.5-1.4-39.2-2.2-48.8-2.5-7.6 3.5-18.3 10.2-33.7 23.2-7.8 6.6-12.5 24-11.9 25.6s.1.2.1.3c6.7.2 13.5.2 16.7-.1h1.1c3.2-2.4 8.3-9.6 10.1-10.9 19.8-15.4 27.4-15.2 27.4-15.2l5 1.2s-15.8 13.4-23.1 18.8-12.6 5.5-19.4 6.1a2.5 2.5 0 0 1-1.9.8c-2.5-.5-13.6 4.5-15.9-.6-8.6-.2-17-.6-17-.6s-1.7-15.8-4.3-20.5-8.9-9.9-13-8.3-6.6 11.1-6.3 19.8-1.9 25.3.9 28.8 11.1 5.9 11.1 5.9-.7 7.8 0 11.5a18.6 18.6 0 0 0 8.7 12.8 51.5 51.5 0 0 0 13.5 5.1s-2.6 7.8-2.6 10.9 2.3 6.6 11.8 10.4 39.1 1.2 39.1 1.2a4.1 4.1 0 0 0 0 4.9c1.8 2.7 15.6 6.2 29.8 4.9 12.3-1.2 79.7-24.6 97.7-30.9-7-16.2-15.2-36.4-20.3-52.8-6.7-21.4-4.6-33-3.2-37.4z" fill="#97573d"></path><path d="M231.6 972.3a2.5 2.5 0 0 0 1.9-.8h-1.1c-3.2.3-10 .3-16.7.1 2.3 5.2 13.4.2 15.9.7z" fill="#97573d"></path><path d="M276.7 918.4a41.8 41.8 0 0 0-15.5 4.2c9.6.3 31.3 1.1 48.8 2.5-14.5-3.8-28.6-7.2-33.3-6.7z" fill="#97573d"></path><path d="M374.9 989.6c-12-23.1-12-52-12-52h-1.3c-1.4 4.4-3.5 16 3.2 37.3 5.1 16.4 13.3 36.6 20.3 52.8l4.5-1.6s-2.7-13.4-14.7-36.5z" fill="#794336"></path></g></g></g></svg>