<svg xmlns="http://www.w3.org/2000/svg" width="1080" height="762.6" viewBox="-0.009646892547607422 0.032985687255859375 1080.04443359375 762.595458984375" style=""><g><g fill="#a8a8a8" data-name="Layer 2"><path d="M532.1.3c51.8-2.9 85.5 27.2 106.4 74.4 43.4 98-1.6 213.2-99.3 256.8-26.4 11.7-54.1 16-82.4 12.2-45.4-6.1-76-30.9-91.1-74.9-16.5-48.2-14.6-95 6.4-141.5 15.4-33.9 34.8-64.9 61.7-90.8S491.5-2 532.1.3z"></path><path d="M909.8 500.6c-26.2 3.3-44.9-7.5-61.1-27.1-11.1-13.3-25.2-24.1-37.3-36.6-32.3-33.3-39.3-72.2-24.3-115.5 18.3-52.9 56.8-89.2 100.1-121.5 10.7-8 22.2-15.5 31.4-25.1 27.7-28.7 70.1-41.4 113.5-4.7s50.6 81.7 47.2 130.8c-2.8 39.5-11.1 79.5-33.3 113.5-24.8 38-59.6 65.6-102.1 82.3-10.3 4-22.7 2.7-34.1 3.9z"></path><path d="M492.1 457.2c18.4 4.5 38.6 5.7 55.1 14.2 33.1 17 54.2 62.2 43.3 99.7-11.5 39.7-31 77-45.6 115.9-13.9 36.9-44.8 54.1-77 70.3-25.8 12.9-48.1 0-67.7-13.5-21.6-14.9-38.5-35-46.1-61.8-2.8-9.9-8.7-19.2-14.7-27.8-20.5-29.6-23.8-60-9.4-93.5 22.9-53.1 74.1-107.2 162.1-103.5z"></path><path d="M202.2 485.2c-4.8 47.6-19.5 88.7-55.9 119.5C101.1 642.8 33.6 630 7.5 576.8.3 562.2-1.1 542.7.7 526c4.2-40.2 20.1-76.8 45.8-108.4 28.3-34.9 74.2-44.7 112.9-22.9 11 6.2 21.6 17.9 26.4 29.5 8 19.3 11.2 40.6 16.4 61z"></path></g></g></svg>