<svg xmlns="http://www.w3.org/2000/svg" width="1080" height="978.3" viewBox="-0.0016350746154785156 0.00036559998989105225 1079.9892578125 978.305908203125" style=""><g><g data-name="Слой 2"><g data-name="Device71_482504564"><path d="M786.4 365.6c-108.1.3-213 69.6-255.6 169-27.5 64.1-30.1 136.6-19.2 205.5 9.3 59.6 29.7 119.8 72 162.8 37.8 38.5 90.3 59.9 143.4 69.6 54.6 9.9 112.4 8.1 163.8-12.9 63.3-25.9 112.6-79.1 144.8-139.4 45.4-85.2 59.1-189.1 26.4-279.9S946.9 375.6 851.2 363.2c-34.6-4.5-70.6-1-102.8 12.7" fill="#7878d6"></path><path d="M903.2 203.2c-12-5.2-27.3.4-33.9 11.7s-4.5 26.7 4.4 36.3 23.3 13.3 35.9 9.9c8-2.1 15.5-7.1 19.6-14.3 7.4-13 1.3-31.3-11.8-38.5s-30.9-3-40.6 8.4" fill="#7878d6"></path><path d="M72.1 139.6c-4.9 3.3-10.1 8.3-8.8 14s8.9 8.2 15.1 8.7c34.6 2.9 69.1-5 102.9-12.9 5.9-1.4 12-2.9 16.6-6.8 24.7-21-34.7-27.6-46.8-28.5-27-1.8-57.1 10.6-79 25.5z" fill="#7878d6"></path><path d="M1040.4 478c-12.7-24.7-26.5-43.5-42.1-57.5s-32.5-23.8-56.6-34c-65.3-27.7-136.9-34.6-201.4-19.5-68.9 16.1-129.3 57.4-165.8 113.5-21.5 33-35 71.1-48 110.4-1 2.8-1.9 5.6-2.8 8.4a116.9 116.9 0 0 0-17.5 23.1c-16.2 28-20.5 64-12.2 101.4 6.5 29 19.8 58.1 43.1 94.3 42 65.3 87.2 107.5 138 128.6-27.7-5.4-51.5-23.5-74.7-41.1l-5.6-4.3c-20.4-15.4-36.5-27.1-57.2-36.7s-43.9-21.3-65.1-33.2a922.4 922.4 0 0 1-81.2-51.1 103.8 103.8 0 0 0-13.7-9.9c-9-6.5-17.9-13.3-26.6-20.1-64.5-50.8-76.4-146.3-79.6-223.9-2-47.1 5.6-86.9 22.6-118.4 11-20.5 26.8-39.7 49.8-60.6 37.2-33.7 96.3-73.9 167.2-74.3 28.4-.2 56.5 6.2 83.7 12.3 57.3 13 116.6 26.5 174.9 40.1 51.9 12.1 95 22.6 137.7 39.3 48.4 19 84.8 42.2 111.1 70.9a.9.9 0 0 0 1.4-1.1c-28.7-37.5-35.4-91.7-16.6-135 2.9-6.7.7-16.3-4.9-21.7l.7-.8c2.8-3.9.6-9.1-1.3-12.7a262.6 262.6 0 0 0-57.8-74.2c-8.1-7.3-19.1-16.3-32.2-21.6-11.4-4.7-23.7-6.3-35.6-8-78.5-10.5-159.6-21.4-241.3-16.5a.8.8 0 0 0-.7.5.6.6 0 0 0 0 .8c32 56.5 48.2 107.5 48.2 151.5l-24.9-75.7c-6.1-18.5-12.4-37.6-20.1-55.9-17.2-40.6-42.1-77.7-72.1-107.1-13-12.8-24.7-21.9-36.6-28.6S500.4 18.4 484 14.1C441.6 2.9 397.1 1.5 354.1.2c-14.5-.4-32.6-1-47.2 7.1a.9.9 0 0 0-.5.8l.3.6a75.2 75.2 0 0 0-27.5 6.1c-15.1 6.3-27.9 16.2-39.5 26-31 26.1-44.6 50.4-41.6 74.3a.8.8 0 0 0 .4.6.8.8 0 0 0 .7.2 5.3 5.3 0 0 1 5.4 1.7c-2.1-.6-4.1-1-6.1-1.4a176.9 176.9 0 0 0-122.9 20.2c-4.1 2.3-9.2 6.8-10.3 11.6a7.9 7.9 0 0 0 1.1 6.2l.5.4c-7.2 5.8-7.9 16.3-8.6 26.5s-1.4 21.4-9.7 26.3c-2.8 1.6-6.5 2.6-10 3.5-6.8 1.8-13.9 3.6-14.4 10.6-.3 4.3 2.4 7.5 6.3 9.7-5.2 4.8-6.8 12.4-8 19.8-2.9 18.7-6 37.9-7.8 57-2.1 21.7-2.7 43.8-3.3 65.1-.3 11.2-.6 22.8-1.1 34.2-1.1 22.2-3 45-4.8 67-5.4 65.4-10.9 133 4.9 197.4-5.2 13.9 5 28.3 16.8 41.9s25.5 29.3 42.4 39.1c24.6 14.3 53.8 16 84.1 16.6 62 1.1 124.9-.1 186.8-3.7h.2c6.7-.4 13.5-.8 20.1.4a49.7 49.7 0 0 1 15.8 6l13.6 9.7c3.2 2.8 6.3 5.6 9.2 8.4a13 13 0 0 1 2.3 1.8 1.1 1.1 0 0 0 .9-.5 1.1 1.1 0 0 0-.2-1l-1-.9c22.8 15.5 46.2 30.1 70.2 43.5 21.3 11.9 43.2 23.1 65.3 33.3 20.5 9.4 36.5 21.1 56.9 36.5l5.5 4.2c25.5 19.4 51.8 39.4 83.3 42.6a1 1 0 0 0 1-.7.9.9 0 0 0-.6-1.1c-43.5-16.2-82.9-47.6-119.7-95.5 33.6 39.8 80.4 73.5 139.1 100.4 20.6 9.4 44.2 18.5 68.3 18.9v.2c0 .1 0 .1.1.1q6.5-1.2 13.2-2.1c4.8-.6 10.2-1.5 15.3-1 99.2-18.3 188.5-82.3 237.4-171.9 26-47.7 40.1-102.7 40.7-159s-12.1-111.7-37-159.9zm-408-332.2c81-4.6 161.5 6.2 239.5 16.6 11.7 1.6 23.9 3.3 35.1 7.8 12.9 5.3 23.7 14.2 31.7 21.3a260.4 260.4 0 0 1 57.4 73.7c2.7 5 3.1 8.5 1.4 10.8a3.7 3.7 0 0 1-1.3 1.2 23 23 0 0 1-3.4 1.2 15.6 15.6 0 0 1-5.2-.2 65.1 65.1 0 0 1-42.6-26.4c-3.9-5.3-7-11.4-10-17.2l-4.6-8.9c-.4-1.7-.7-3.4-1.1-5-4.4-17.9-10-36.1-25.3-44.6-9.2-5.1-21.2-6-36.5-2.8-6 1.3-12.9 3.2-18.3 7.7-7.3 5.9-11.3 16.4-10.4 27.4s6.2 21.4 10.1 28.1a153.7 153.7 0 0 0 34.1 40.4c5.4 4.5 12.7 10.1 21.5 12.9s16.6 2.6 24.5 2.3a229.8 229.8 0 0 0 64.2-11.9 10.7 10.7 0 0 0 3.7-1.2c5.1 4.9 7.3 13.8 4.7 19.8-17.6 40.5-13.3 90.3 10.3 127.6-25.8-25.3-59.9-46-104-63.3S822 335.8 770 323.7l-90.3-20.8a.6.6 0 0 0 .3-.6c1.4-45.2-14.6-97.9-47.6-156.5zm290.4 68.4c-9.5-11.7-27.4-19-39.6-10.5-10.2 7.2-11.2 22.4-5.8 32.2s15.7 16.2 28.8 18.5c8 1.4 14.3.4 18.7-3.1 6.1-4.8 7-12.7 6.2-20.3.8 1.5 1.6 2.9 2.3 4.4a139.1 139.1 0 0 0 10.1 17.5 67.3 67.3 0 0 0 43.8 27.1h.4a233.9 233.9 0 0 1-58.8 10.2c-7.8.3-16.1.3-23.9-2.2s-15.6-8.2-20.9-12.6a151.5 151.5 0 0 1-33.6-39.9c-3.9-6.6-9.1-16.5-9.9-27.3s2.9-20.4 9.7-25.9c5.1-4.2 11.8-6.1 17.6-7.3 14.9-3.1 26.4-2.3 35.2 2.6 14.5 8.1 20 25.6 24.3 43a69.9 69.9 0 0 0-4.6-6.4zm5.9 12.1c1.5 8.5 1.8 18.3-4.9 23.6-4 3.1-9.8 4.1-17.3 2.7-12.3-2.1-22.6-8.7-27.5-17.6s-4.1-23.2 5.3-29.8c11.3-8 28.1-.9 37.1 10.2a90 90 0 0 1 7.3 10.9zM67.1 148.4c1-4.3 5.7-8.3 9.4-10.4a175.7 175.7 0 0 1 121.7-20.1 47.7 47.7 0 0 1 7.8 2.1 15 15 0 0 1-1 12.2c-3.9 6.9-12.3 9.7-20.8 11.7a365.5 365.5 0 0 1-116.5 8.9 5.6 5.6 0 0 1-.6-4.4zm141.1-27.5a20.6 20.6 0 0 1 4 2.5c9.1 7.4 8.5 21.2 6.7 33.8-.6 4-1.3 9-4.3 12.3s-4.1 3.1-6.7 4.4a293.7 293.7 0 0 1-133.2 29.3 100.9 100.9 0 0 1-4.8-48.4 369 369 0 0 0 114.7-9.1c8.9-2.1 17.7-5.1 22-12.6a16.8 16.8 0 0 0 1.6-12.2zm152.9 643.3a59.6 59.6 0 0 0-10.3-.8c-3.4 0-6.8.2-10.2.4h-.2c-61.9 3.6-124.7 4.8-186.6 3.7-30.1-.6-59.1-2.3-83.3-16.3-16.6-9.7-29.5-24.5-42-38.8S7.1 685.2 12.2 672a.4.4 0 0 0 0-.5C-3.6 607.4 1.9 539.8 7.3 474.4c1.9-22 3.7-44.8 4.8-67 .5-11.4.8-23 1.1-34.2.6-21.4 1.2-43.4 3.3-65 1.8-19 4.8-38.3 7.8-56.9 1.2-7.4 2.7-14.9 7.9-19.2a31.6 31.6 0 0 0 7.8 2.3c28 4.6 56.8 1.9 84.4-2.9 33 .9 66.2.7 99-2.3 24.5-2.3 52.5-6.7 74.3-22.1s35.9-42.7 26.2-68.7c-3.4-9.4-10.3-18.3-19.9-25.8-27.8-22-66.2-24.5-97.1-26.5a.9.9 0 0 0-.2 1.8c27.6 3.5 59.2 8.6 85.6 23.6 7.1 4 30.1 18.9 27.8 40.4-1.5 14.1-13.6 26.1-35.9 35.7-38.8 16.9-80.9 25.8-121.5 34.5-12.4 2.6-25.3 5.4-38.5 7.6-22.9-.6-45.8-1.8-68.3-2.9l-4.9-.3c-5.5-.2-13.1-.6-18.8 3.3l-.2.2c-3.7-1.9-6.3-4.6-6-8.3.4-5.8 6.3-7.3 13.1-9.1 3.6-.9 7.4-1.9 10.4-3.7 9.2-5.3 9.9-16.7 10.6-27.7s1.3-19.7 7.8-25.1a103.1 103.1 0 0 0 5.3 48.3 1.1 1.1 0 0 0 .9.6 294.1 294.1 0 0 0 134.5-29.5 23.6 23.6 0 0 0 7.4-4.8c3.3-3.7 4.1-9 4.7-13.2 1.8-13.1 2.4-27.6-7.3-35.5a21.6 21.6 0 0 0-6.1-3.4 3.8 3.8 0 0 0-.9-1.5 7.2 7.2 0 0 0-6.6-3.2c-2.4-22.9 11-46.4 41-71.7 11.6-9.7 24.3-19.6 39-25.7 10.8-4.5 21.6-6.5 31.7-5.9a145.3 145.3 0 0 1 46.9 31.2 134.3 134.3 0 0 1 12.3 26.3c9.8 28.1 12.3 54.4 7.4 78.1-1.4 6.6-3.4 13.2-5.3 19.7-3.4 11.1-6.9 22.6-7.2 34.4a25.8 25.8 0 0 0 .3 4.8 69.3 69.3 0 0 0-5.7 16 .9.9 0 0 0 .1.7 1 1 0 0 0 .7.4c53.6 4.8 108.1.4 159.2-6.8 15.2 2 30.2 4.6 45.2 7.9 19 4.1 40.9 9.9 59.6 21.5a111.6 111.6 0 0 1 41.6 46.9 1 1 0 0 0 1.1.5.9.9 0 0 0 .6-1.1 152.7 152.7 0 0 0-47.1-79.8c-4.6-4.1-9.6-8-15.7-9.5s-12.2-.3-17.7.7c-21.6 3.8-44.2 7.7-67.6 11a557.8 557.8 0 0 0-134.2-1.3c-6 .6-14.3.9-17.4-4.7a7.2 7.2 0 0 1-.8-2.2c3.8-7.7 8.7-15 13.5-22.2 8.4-12.7 17.1-25.8 19.9-40.9 1.9-10.4 1-22.1-2.7-35.8a147.6 147.6 0 0 0-38.7-65.7c-7.9-12.7-18.9-24-33.9-29.1a58.9 58.9 0 0 0-14-2.8l-2.3-.9c13.8-6.8 30.7-6.3 44.5-5.9 42.8 1.3 87.2 2.7 129.5 13.8 16.2 4.3 29 9.2 40.1 15.4s23.3 15.6 36.2 28.3c29.8 29.3 54.6 66.1 71.7 106.5 7.7 18.2 14 37.3 20.1 55.8l26.5 80.8-83.1-18.9c-27.3-6.2-55.5-12.6-84.1-12.4-71.5.4-131 40.9-168.4 74.8-23.1 21-39.1 40.4-50.2 61-17.1 31.8-24.8 72-22.8 119.4 3.2 77.9 15.2 174 80.3 225.2q9.5 7.5 19.2 14.7a52.4 52.4 0 0 0-8-2.2zM33.9 230.9c4.7-2.9 10.7-2.9 17.1-2.5l4.8.2c19.5 1 39.2 2 59.1 2.7-24.6 3.7-49.9 5.4-74.6 1.3a28.8 28.8 0 0 1-6.4-1.7zm259.3-121c-18.5-10.5-39.4-16.2-59.8-19.8 24.2 2.6 49.7 8.2 69.5 23.9 9.3 7.3 16 15.9 19.3 25 9.4 25.2-5.8 52.6-25.6 66.6-21.4 15.2-49.1 19.5-73.4 21.8-29.8 2.7-59.9 3.2-90 2.5 10.2-1.9 20.2-4 29.8-6.1 40.8-8.6 83-17.6 122-34.5 22.9-9.9 35.3-22.4 36.9-37.2 2.5-22.6-21.3-38-28.7-42.2zm24.5-98.5a49.7 49.7 0 0 1 7.6 1.9c11.8 4 21.1 12 28.3 21.6a142.7 142.7 0 0 0-35.9-23.5zm46 35.9a145.4 145.4 0 0 1 33 59.6c3.7 13.4 4.5 24.9 2.7 35-2.7 14.7-11.3 27.7-19.6 40.2a229.2 229.2 0 0 0-12.4 20v-1.8c.3-11.6 3.8-22.9 7.1-33.9 1.9-6.5 4-13.2 5.3-19.9 5-24 2.5-50.5-7.4-79a143.1 143.1 0 0 0-8.7-20.2zM386.2 214a552.1 552.1 0 0 1 127.2.5c-48.8 6.6-100.4 10.4-151.2 6a64.9 64.9 0 0 1 4.5-12.8l.3.7c3.6 6.5 12.7 6.3 19.2 5.6zm140.5.4c21.2-3.1 41.7-6.6 61.4-10.1a61.3 61.3 0 0 1 11.2-1.4 26.9 26.9 0 0 1 5.7.6c5.8 1.4 10.6 5.2 15 9.1a151.7 151.7 0 0 1 44.6 71.2 113.5 113.5 0 0 0-38.6-40.5c-19-11.8-41.1-17.7-60.2-21.8-13-2.8-26-5.2-39.1-7.1zm-30.9 509c-8.3-36.9-4-72.5 12-100.1a119.5 119.5 0 0 1 14.6-20c-9.7 30-17.3 58-18.7 87.1-1.8 38.9 8.6 79.9 29.1 117.4-19.6-31.8-31.1-58.1-37-84.4zm292.7 244.9c-29.7 5.5-59.8-5.6-85.3-17.3-59.2-27-106.1-61-139.6-101.1-39.4-47.3-60.6-105.3-58.1-159.4 1.4-30.1 9.6-59 19.8-90.2 28-28.5 67.3-40 95.4-44.5-19.7 35-32 76.6-36.7 123.7-5 50.9 2.9 88.4 24.4 114.9 18.3 22.5 47.3 36.8 79.6 39 27.9 1.9 58.2-5 87.7-19.9 51.1-25.8 88.3-70.5 99.7-119.7 12.6-54.3-9.5-113.9-52.5-141.8-23.3-15-53.2-20-82-13.8a103 103 0 0 0-34.5 14.2 81.9 81.9 0 0 0-9.6 2c-15.9-3.4-33.9-4.4-54.4-3-5 .4-11.2 1-18.3 2l3-4.9c25.6-41.9 62.6-72.8 104-87.3 31-10.7 64.9-12.4 94.4-12.4h2.7c34.8.2 70.9 2.8 99.8 21.2s51.3 54.8 62.4 105.6c15.9 72.6 9.2 149.3-19 216-29.1 68.8-80.3 126-144 161.3-10.3 5.7-24.1 12.6-38.9 15.4zm-86.4-410.8a117.9 117.9 0 0 1 22.3 8.2c26.8 13.3 45.3 38.5 47 64.2 2 28.6-20.1 56.6-46.2 58.7-17.5 1.4-35.6-6.8-56.8-25.8l-4.4-4.1c-1.4-11-.8-23.1 1.7-36.3 3.1-16.8 8.4-31.2 15.9-42.8a86.1 86.1 0 0 1 20.5-22.1zm-1.4-2.2l2-.5-.9.7zm72.6 74.5c-1.8-26.3-20.7-52.1-48.1-65.7a124 124 0 0 0-21.2-8l3-2a89.1 89.1 0 0 1 12.6-1 75.8 75.8 0 0 1 23.7 3.7c30.8 10 52.4 40.7 50.2 71.4-1.3 18.5-10.5 37.4-27.3 56.3-12.2 13.7-31.3 29.8-53.4 28.5-17.8-1.1-35.2-14.6-43.3-33.5a73.5 73.5 0 0 1-5.1-18 34.5 34.5 0 0 0 2.8 2.6c21.6 19.4 40.1 27.7 58.2 26.3 27.5-2.2 49.9-30.5 47.9-60.6zm-93.2-51.2c-7.6 11.8-13 26.4-16.2 43.4a119.1 119.1 0 0 0-1.9 34.7c-16.5-16.6-23.7-32.1-21.8-47.2 1.3-10.1 6.8-20.2 16.4-29.9a90.7 90.7 0 0 1 40.2-23.4l3.1.7a85 85 0 0 0-19.8 21.7zm-24.8-.3c-9.9 10-15.6 20.4-16.9 30.9-2 16.2 5.8 32.7 23.9 50.3a78.7 78.7 0 0 0 5.5 20.7c8.4 19.5 26.4 33.4 44.9 34.6 22.8 1.4 42.4-15.1 54.9-29.1 17.1-19.2 26.4-38.5 27.7-57.3 2.3-31.6-19.9-63.1-51.5-73.3a78.4 78.4 0 0 0-33.1-3.3 101.9 101.9 0 0 1 30.5-11.8 116.2 116.2 0 0 1 24.1-2.6c20.4 0 40.2 5.5 56.6 16.2 42.4 27.4 64.2 86.2 51.8 139.8-11.3 48.6-48.2 92.9-98.8 118.5-29.2 14.8-59.2 21.6-86.7 19.7-31.9-2.2-60.4-16.2-78.4-38.4-21.1-26-29-63.2-24-113.6 4.7-47.4 17.2-89.1 37.2-124.2 7.6-1.1 14.2-1.8 19.5-2.2 18.9-1.3 35.6-.6 50.5 2.3a92.5 92.5 0 0 0-37.7 22.8zM1035.1 796C987 884.1 899.9 947.3 802.7 966.3a157.3 157.3 0 0 0 25.6-11.8C892.4 919 943.8 861.4 973 792.3c28.4-67 35.2-144.1 19.2-217C981 523.9 959.7 488 929 468.5s-65.8-21.4-100.8-21.5c-30.2-.1-65.5 1.3-97.6 12.5-41.9 14.6-79.2 45.8-105.1 88-1.2 2.1-2.4 4.2-3.7 6.3-27.6 4.3-66.7 15.2-95.3 42.7.6-1.7 1.1-3.4 1.7-5.1 13-39.2 26.4-77.1 47.8-109.9 36.2-55.7 96.3-96.8 164.7-112.8a300.4 300.4 0 0 1 68.5-7.7A339.6 339.6 0 0 1 941 388.2c23.9 10.1 41.7 20.8 56 33.7s29.2 32.4 41.8 56.9c50.8 98.4 49.4 220-3.7 317.2z" fill="#fff"></path></g></g></g></svg>