<svg xmlns="http://www.w3.org/2000/svg" width="1080" height="758.6" viewBox="0 -3.694821073987713e-14 1080 758.5999755859375" style=""><g><g data-name="Слой 2"><g data-name="Device127_424594742"><path d="M921 0H159a5.2 5.2 0 0 0-5.2 5.2v455h772.4V5.2A5.2 5.2 0 0 0 921 0z" fill="#0a5593"></path><path fill="#fff" d="M905.5 20.7v418.8H174.51V20.7z"></path><path d="M918.2 509.6H145.8L3 740.8a11.7 11.7 0 0 0 10 17.8h1038a11.7 11.7 0 0 0 10-17.8z" fill="#0a5593" opacity=".3"></path><path fill="#d6dde4" d="M926.2 460.2H153.8L0 709.3h1080L926.2 460.2z"></path><path d="M540 709.3H0c0 19.2 37.6 27.8 83.2 28.7s435 0 456.8 0 411.2.8 456.8 0 83.2-9.5 83.2-28.7z" fill="#0a5593"></path><path d="M705.7 691.5H374.3a2.6 2.6 0 0 1-2.4-3.5l28.7-76.2a2.5 2.5 0 0 1 2.4-1.7h274a2.5 2.5 0 0 1 2.4 1.7l28.7 76.2a2.6 2.6 0 0 1-2.4 3.5z" fill="#a6b2bc"></path><g fill="#0a5593"><path d="M876.9 510.2a2.8 2.8 0 0 0-2.3-1.3h-39.8a2.5 2.5 0 0 0-2.3 3.6l6.3 13.7a2.7 2.7 0 0 0 2.4 1.5H882a2.5 2.5 0 0 0 2.2-3.8z"></path><path d="M826.3 508.9h-40a2.6 2.6 0 0 0-2.4 3.5l5.3 13.7a2.4 2.4 0 0 0 2.4 1.6h41a2.7 2.7 0 0 0 2.4-3.7l-6.4-13.6a2.4 2.4 0 0 0-2.3-1.5z"></path><path d="M778 508.9h-40.2a2.6 2.6 0 0 0-2.5 3.3l4.2 13.7a2.7 2.7 0 0 0 2.5 1.8h41.2a2.6 2.6 0 0 0 2.5-3.5l-5.3-13.7a2.6 2.6 0 0 0-2.4-1.6z"></path><path d="M729.6 508.9h-40.3a2.5 2.5 0 0 0-2.5 3.1l3.1 13.7a2.6 2.6 0 0 0 2.5 2h41.5a2.5 2.5 0 0 0 2.4-3.3l-4.2-13.7a2.5 2.5 0 0 0-2.5-1.8z"></path><path d="M681.3 508.9h-40.5a2.6 2.6 0 0 0-2.6 2.9l2.2 13.7a2.4 2.4 0 0 0 2.5 2.2h41.6a2.6 2.6 0 0 0 2.5-3.2l-3.2-13.6a2.6 2.6 0 0 0-2.5-2z"></path><path d="M592.3 508.9a2.6 2.6 0 0 0-2.6 2.8l1.1 13.6a2.5 2.5 0 0 0 2.6 2.4h41.7a2.6 2.6 0 0 0 2.5-3l-2.1-13.6a2.6 2.6 0 0 0-2.6-2.2z"></path><path d="M543.9 527.7h41.7a2.6 2.6 0 0 0 2.6-2.8l-1.1-13.6a2.5 2.5 0 0 0-2.6-2.4h-40.6a2.6 2.6 0 0 0-2.6 2.6v13.6a2.6 2.6 0 0 0 2.6 2.6z"></path><path d="M494.4 527.7h41.7a2.6 2.6 0 0 0 2.6-2.6v-13.6a2.6 2.6 0 0 0-2.6-2.6h-40.6a2.5 2.5 0 0 0-2.6 2.4l-1.1 13.6a2.6 2.6 0 0 0 2.6 2.8z"></path><path d="M442.4 524.7a2.6 2.6 0 0 0 2.6 3h41.6a2.5 2.5 0 0 0 2.6-2.4l1.1-13.6a2.6 2.6 0 0 0-2.6-2.8h-40.6a2.6 2.6 0 0 0-2.6 2.2z"></path><path d="M395.5 527.7h41.6a2.6 2.6 0 0 0 2.6-2.2l2.1-13.7a2.6 2.6 0 0 0-2.6-2.9h-40.5a2.6 2.6 0 0 0-2.5 2l-3.2 13.6a2.6 2.6 0 0 0 2.5 3.2z"></path><path d="M390.7 508.9h-40.3a2.5 2.5 0 0 0-2.5 1.8l-4.2 13.7a2.5 2.5 0 0 0 2.4 3.3h41.5a2.6 2.6 0 0 0 2.5-2l3.2-13.7a2.6 2.6 0 0 0-2.6-3.1z"></path><path d="M342.2 508.9H302a2.6 2.6 0 0 0-2.4 1.6l-5.3 13.7a2.6 2.6 0 0 0 2.5 3.5H338a2.7 2.7 0 0 0 2.5-1.8l4.2-13.7a2.6 2.6 0 0 0-2.5-3.3z"></path><path d="M293.7 508.9h-40a2.4 2.4 0 0 0-2.3 1.5L245 524a2.7 2.7 0 0 0 2.4 3.7h41a2.4 2.4 0 0 0 2.4-1.6l5.3-13.7a2.6 2.6 0 0 0-2.4-3.5z"></path><path d="M245.2 508.9h-39.8a2.8 2.8 0 0 0-2.3 1.3l-7.3 13.7a2.5 2.5 0 0 0 2.2 3.8h40.8a2.7 2.7 0 0 0 2.4-1.5l6.3-13.7a2.5 2.5 0 0 0-2.3-3.6z"></path><path d="M191.6 531.7l-7.4 13.6a2.6 2.6 0 0 0 2.2 3.9h42.5a2.5 2.5 0 0 0 2.3-1.5l6.4-13.7a2.6 2.6 0 0 0-2.4-3.7h-41.3a2.4 2.4 0 0 0-2.3 1.4z"></path><path d="M227.5 570.6h44.4a2.7 2.7 0 0 0 2.4-1.7l5.3-13.6a2.6 2.6 0 0 0-2.5-3.5h-43.2a2.4 2.4 0 0 0-2.4 1.5l-6.3 13.6a2.6 2.6 0 0 0 2.3 3.7z"></path><path d="M332.9 570.6h44.7a2.6 2.6 0 0 0 2.6-2l3.1-13.7a2.5 2.5 0 0 0-2.5-3.1h-43.7a2.7 2.7 0 0 0-2.5 1.8l-4.2 13.6a2.6 2.6 0 0 0 2.5 3.4z"></path><path d="M339.5 549.2h43.1a2.6 2.6 0 0 0 2.5-2l3.2-13.7a2.6 2.6 0 0 0-2.5-3.2h-42.1a2.5 2.5 0 0 0-2.4 1.8l-4.3 13.7a2.7 2.7 0 0 0 2.5 3.4z"></path><path d="M385.6 570.6h44.9a2.6 2.6 0 0 0 2.6-2.2l2.1-13.7a2.6 2.6 0 0 0-2.6-2.9h-43.8a2.5 2.5 0 0 0-2.5 2l-3.2 13.6a2.6 2.6 0 0 0 2.5 3.2z"></path><path d="M438.4 570.6h44.9a2.5 2.5 0 0 0 2.6-2.4l1.1-13.7a2.5 2.5 0 0 0-2.6-2.7h-43.9a2.6 2.6 0 0 0-2.6 2.1l-2.1 13.7a2.6 2.6 0 0 0 2.6 3z"></path><path d="M488.6 533.1a2.6 2.6 0 0 0-2.6-2.8h-42.2a2.6 2.6 0 0 0-2.6 2.2l-2.1 13.7a2.6 2.6 0 0 0 2.6 3H485a2.7 2.7 0 0 0 2.6-2.4z"></path><path d="M491.1 570.6h45a2.6 2.6 0 0 0 2.6-2.6v-13.7a2.6 2.6 0 0 0-2.6-2.5h-43.9a2.5 2.5 0 0 0-2.6 2.3l-1.1 13.7a2.6 2.6 0 0 0 2.6 2.8z"></path><path d="M543.9 570.6h45a2.6 2.6 0 0 0 2.6-2.8l-1.1-13.7a2.5 2.5 0 0 0-2.6-2.3h-43.9a2.6 2.6 0 0 0-2.6 2.5V568a2.6 2.6 0 0 0 2.6 2.6z"></path><path d="M543.9 549.2h43.3a2.6 2.6 0 0 0 2.6-2.8l-1-13.7a2.6 2.6 0 0 0-2.6-2.4h-42.3a2.6 2.6 0 0 0-2.6 2.6v13.7a2.6 2.6 0 0 0 2.6 2.6z"></path><path d="M649.5 570.6h44.9a2.6 2.6 0 0 0 2.5-3.2l-3.2-13.6a2.5 2.5 0 0 0-2.5-2h-43.8a2.6 2.6 0 0 0-2.6 2.9l2.2 13.7a2.4 2.4 0 0 0 2.5 2.2z"></path><path d="M596.7 570.6h45a2.6 2.6 0 0 0 2.5-3l-2.1-13.7a2.6 2.6 0 0 0-2.6-2.1h-43.9a2.5 2.5 0 0 0-2.6 2.7l1.1 13.7a2.5 2.5 0 0 0 2.6 2.4z"></path><path d="M755.3 570.6h44.5a2.6 2.6 0 0 0 2.4-3.5l-5.3-13.7a2.4 2.4 0 0 0-2.4-1.6H751a2.5 2.5 0 0 0-2.4 3.3l4.2 13.7a2.5 2.5 0 0 0 2.5 1.8z"></path><path d="M736.3 530.3h-42.1a2.6 2.6 0 0 0-2.5 3.2l3.2 13.7a2.6 2.6 0 0 0 2.5 2h43.1a2.7 2.7 0 0 0 2.5-3.4l-4.3-13.7a2.5 2.5 0 0 0-2.4-1.8z"></path><path d="M808.1 570.6h44.4a2.6 2.6 0 0 0 2.3-3.7l-6.3-13.6a2.4 2.4 0 0 0-2.4-1.5h-43.2a2.6 2.6 0 0 0-2.5 3.5l5.3 13.6a2.7 2.7 0 0 0 2.4 1.7z"></path><path d="M851.1 549.2h42.5a2.6 2.6 0 0 0 2.2-3.9l-7.4-13.6a2.4 2.4 0 0 0-2.3-1.4h-41.3a2.6 2.6 0 0 0-2.4 3.7l6.4 13.7a2.5 2.5 0 0 0 2.3 1.5z"></path><path d="M148.7 527.7h40.5a2.4 2.4 0 0 0 2.3-1.4l7.4-13.6a2.6 2.6 0 0 0-2.3-3.8h-39.4a2.4 2.4 0 0 0-2.2 1.2l-8.5 13.7a2.6 2.6 0 0 0 2.2 3.9z"></path><path d="M135.5 549.2h42.1a2.7 2.7 0 0 0 2.3-1.4l7.4-13.7a2.6 2.6 0 0 0-2.3-3.8h-41.1a2.7 2.7 0 0 0-2.2 1.2l-8.4 13.7a2.6 2.6 0 0 0 2.2 4z"></path><path d="M122.2 570.6H219a2.5 2.5 0 0 0 2.3-1.5l6.3-13.7a2.5 2.5 0 0 0-2.3-3.6h-94.6a2.4 2.4 0 0 0-2.2 1.2l-8.5 13.7a2.6 2.6 0 0 0 2.2 3.9z"></path><path d="M161.8 573.2h-44.4a2.7 2.7 0 0 0-2.2 1.2l-8.4 13.7a2.6 2.6 0 0 0 2.2 4h45.4a2.6 2.6 0 0 0 2.3-1.4l7.4-13.7a2.6 2.6 0 0 0-2.3-3.8z"></path><path d="M285.4 530.3h-41.6a2.8 2.8 0 0 0-2.4 1.5l-6.3 13.7a2.6 2.6 0 0 0 2.4 3.7h42.6a2.7 2.7 0 0 0 2.5-1.7l5.2-13.7a2.5 2.5 0 0 0-2.4-3.5z"></path><path d="M288.5 549.2h42.9a2.8 2.8 0 0 0 2.5-1.9l4.2-13.7a2.6 2.6 0 0 0-2.5-3.3h-41.8a2.7 2.7 0 0 0-2.5 1.7l-5.2 13.6a2.6 2.6 0 0 0 2.4 3.6z"></path><path d="M876.9 504.9a2.7 2.7 0 0 0 2.3 1.4h38.9a2.6 2.6 0 0 0 2.2-4l-8.5-13.7a2.7 2.7 0 0 0-2.2-1.2h-37.8a2.6 2.6 0 0 0-2.3 3.8z"></path><path d="M881.1 512.7l7.4 13.6a2.5 2.5 0 0 0 2.3 1.4h40.5a2.6 2.6 0 0 0 2.2-3.9l-8.5-13.7a2.4 2.4 0 0 0-2.2-1.2h-39.4a2.6 2.6 0 0 0-2.3 3.8z"></path><path d="M973.2 588.1l-8.4-13.7a2.7 2.7 0 0 0-2.2-1.2h-44.4a2.6 2.6 0 0 0-2.3 3.8l7.4 13.7a2.6 2.6 0 0 0 2.3 1.4H971a2.6 2.6 0 0 0 2.2-4z"></path><path d="M748.6 549.2h93.9a2.6 2.6 0 0 0 2.4-3.7l-6.3-13.7a2.8 2.8 0 0 0-2.4-1.5h-91.8a2.6 2.6 0 0 0-2.5 3.3l4.3 13.7a2.6 2.6 0 0 0 2.4 1.9z"></path><path d="M861 570.6h44.1a2.6 2.6 0 0 0 2.3-3.8l-7.4-13.7a2.5 2.5 0 0 0-2.2-1.3h-43.1a2.5 2.5 0 0 0-2.3 3.6l6.3 13.7a2.5 2.5 0 0 0 2.3 1.5z"></path><path d="M904.3 555.6l7.4 13.6a2.4 2.4 0 0 0 2.3 1.4h43.8a2.6 2.6 0 0 0 2.2-3.9l-8.5-13.7a2.4 2.4 0 0 0-2.2-1.2h-42.7a2.6 2.6 0 0 0-2.3 3.8z"></path><path d="M892.7 534.1l7.4 13.7a2.7 2.7 0 0 0 2.3 1.4h42.1a2.6 2.6 0 0 0 2.2-4l-8.4-13.7a2.7 2.7 0 0 0-2.2-1.2H895a2.6 2.6 0 0 0-2.3 3.8z"></path><path d="M162 506.3h38.8a2.7 2.7 0 0 0 2.3-1.4l7.4-13.7a2.6 2.6 0 0 0-2.3-3.8h-37.8a2.7 2.7 0 0 0-2.2 1.2l-8.4 13.7a2.6 2.6 0 0 0 2.2 4z"></path><path d="M209.6 506.3h39.2a2.5 2.5 0 0 0 2.3-1.5l6.4-13.7a2.6 2.6 0 0 0-2.4-3.7H217a2.7 2.7 0 0 0-2.3 1.4l-7.4 13.7a2.6 2.6 0 0 0 2.3 3.8z"></path><path d="M257.3 506.3h39.4a2.6 2.6 0 0 0 2.4-1.7l5.3-13.7a2.6 2.6 0 0 0-2.4-3.5h-38.3a2.8 2.8 0 0 0-2.4 1.5l-6.3 13.7a2.6 2.6 0 0 0 2.3 3.7z"></path><path d="M305 506.3h39.6a2.6 2.6 0 0 0 2.5-1.8l4.2-13.7a2.6 2.6 0 0 0-2.4-3.4h-38.6a2.7 2.7 0 0 0-2.4 1.7l-5.3 13.7a2.6 2.6 0 0 0 2.4 3.5z"></path><path d="M352.8 506.3h39.7a2.8 2.8 0 0 0 2.6-2l3.1-13.7a2.6 2.6 0 0 0-2.5-3.2H357a2.6 2.6 0 0 0-2.5 1.8l-4.2 13.7a2.6 2.6 0 0 0 2.5 3.4z"></path><path d="M400.5 506.3h39.9a2.7 2.7 0 0 0 2.6-2.2l2.1-13.7a2.6 2.6 0 0 0-2.6-3h-38.8a2.5 2.5 0 0 0-2.5 2l-3.2 13.7a2.6 2.6 0 0 0 2.5 3.2z"></path><path d="M448.3 506.3h40a2.7 2.7 0 0 0 2.6-2.4l1-13.7a2.6 2.6 0 0 0-2.6-2.8h-38.9a2.6 2.6 0 0 0-2.6 2.2l-2.1 13.7a2.6 2.6 0 0 0 2.6 3z"></path><path d="M496.1 506.3h40a2.6 2.6 0 0 0 2.6-2.6V490a2.6 2.6 0 0 0-2.6-2.6h-39a2.5 2.5 0 0 0-2.5 2.4l-1.1 13.7a2.6 2.6 0 0 0 2.6 2.8z"></path><path d="M543.9 506.3h40a2.6 2.6 0 0 0 2.6-2.8l-1-13.7a2.7 2.7 0 0 0-2.6-2.4h-39a2.6 2.6 0 0 0-2.6 2.6v13.7a2.6 2.6 0 0 0 2.6 2.6z"></path><path d="M591.7 506.3h40a2.6 2.6 0 0 0 2.6-3l-2.1-13.7a2.6 2.6 0 0 0-2.6-2.2h-38.9a2.6 2.6 0 0 0-2.6 2.8l1 13.7a2.7 2.7 0 0 0 2.6 2.4z"></path><path d="M639.6 506.3h39.9a2.6 2.6 0 0 0 2.5-3.2l-3.1-13.7a2.7 2.7 0 0 0-2.6-2h-38.8a2.6 2.6 0 0 0-2.6 3l2.1 13.7a2.7 2.7 0 0 0 2.6 2.2z"></path><path d="M685 504.3a2.6 2.6 0 0 0 2.5 2h39.7a2.6 2.6 0 0 0 2.5-3.4l-4.2-13.7a2.5 2.5 0 0 0-2.5-1.8h-38.7a2.6 2.6 0 0 0-2.5 3.2z"></path><path d="M732.9 504.5a2.6 2.6 0 0 0 2.5 1.8H775a2.6 2.6 0 0 0 2.4-3.5l-5.3-13.7a2.6 2.6 0 0 0-2.4-1.7h-38.6a2.6 2.6 0 0 0-2.4 3.4z"></path><path d="M780.9 504.6a2.6 2.6 0 0 0 2.4 1.7h39.4a2.6 2.6 0 0 0 2.3-3.7l-6.3-13.7a2.7 2.7 0 0 0-2.4-1.5H778a2.6 2.6 0 0 0-2.4 3.5z"></path><path d="M828.9 504.8a2.5 2.5 0 0 0 2.3 1.5h39.2a2.6 2.6 0 0 0 2.3-3.8l-7.4-13.7a2.7 2.7 0 0 0-2.3-1.4h-38.1a2.6 2.6 0 0 0-2.4 3.7z"></path><path d="M436.4 547l2.1-13.7a2.6 2.6 0 0 0-2.6-3h-42.2a2.6 2.6 0 0 0-2.5 2l-3.1 13.7a2.6 2.6 0 0 0 2.5 3.2h43.2a2.7 2.7 0 0 0 2.6-2.2z"></path><path d="M538.7 532.9a2.6 2.6 0 0 0-2.6-2.6h-42.3a2.6 2.6 0 0 0-2.6 2.4l-1 13.7a2.6 2.6 0 0 0 2.6 2.8h43.3a2.6 2.6 0 0 0 2.6-2.6z"></path><path d="M636.2 530.3H594a2.6 2.6 0 0 0-2.6 2.8l1 13.7a2.8 2.8 0 0 0 2.6 2.4h43.3a2.6 2.6 0 0 0 2.6-3l-2.1-13.7a2.6 2.6 0 0 0-2.6-2.2z"></path><path d="M646.2 549.2h43.2a2.6 2.6 0 0 0 2.5-3.2l-3.1-13.7a2.6 2.6 0 0 0-2.5-2h-42.2a2.6 2.6 0 0 0-2.6 3l2.1 13.7a2.7 2.7 0 0 0 2.6 2.2z"></path><path d="M215.4 573.2h-44.7a2.5 2.5 0 0 0-2.3 1.3l-7.4 13.7a2.6 2.6 0 0 0 2.3 3.9H209a2.8 2.8 0 0 0 2.4-1.5l6.3-13.7a2.6 2.6 0 0 0-2.3-3.7z"></path><path d="M268.9 573.2h-45a2.5 2.5 0 0 0-2.3 1.5l-6.4 13.7a2.6 2.6 0 0 0 2.4 3.7h46a2.6 2.6 0 0 0 2.4-1.7l5.3-13.7a2.6 2.6 0 0 0-2.4-3.5z"></path><path d="M280.2 570.6h44.6a2.5 2.5 0 0 0 2.4-1.8l4.3-13.7a2.6 2.6 0 0 0-2.5-3.3h-43.5a2.4 2.4 0 0 0-2.4 1.6l-5.3 13.7a2.6 2.6 0 0 0 2.4 3.5z"></path><path d="M322.4 573.2h-45.2a2.5 2.5 0 0 0-2.4 1.6l-5.3 13.7a2.6 2.6 0 0 0 2.4 3.6h46.2a2.6 2.6 0 0 0 2.5-1.9l4.2-13.7a2.6 2.6 0 0 0-2.4-3.3z"></path><path d="M698.7 575.2a2.6 2.6 0 0 0-2.5-2H330.5a2.5 2.5 0 0 0-2.5 1.8l-4.2 13.7a2.6 2.6 0 0 0 2.5 3.4h373.1a2.6 2.6 0 0 0 2.5-3.2z"></path><path d="M702.4 570.6h44.7a2.6 2.6 0 0 0 2.5-3.4l-4.2-13.6a2.7 2.7 0 0 0-2.5-1.8h-43.7a2.5 2.5 0 0 0-2.5 3.1l3.1 13.7a2.7 2.7 0 0 0 2.6 2z"></path><path d="M752 575a2.5 2.5 0 0 0-2.5-1.8h-45.3a2.7 2.7 0 0 0-2.6 3.2l3.2 13.7a2.7 2.7 0 0 0 2.5 2h46.4a2.6 2.6 0 0 0 2.5-3.4z"></path><path d="M805.2 574.8a2.5 2.5 0 0 0-2.4-1.6h-45.1a2.6 2.6 0 0 0-2.5 3.3l4.2 13.7a2.6 2.6 0 0 0 2.5 1.9h46.2a2.6 2.6 0 0 0 2.4-3.6z"></path><path d="M858.4 574.7a2.5 2.5 0 0 0-2.3-1.5h-45a2.6 2.6 0 0 0-2.4 3.5l5.3 13.7a2.7 2.7 0 0 0 2.4 1.7h46a2.6 2.6 0 0 0 2.4-3.7z"></path><path d="M911.6 574.5a2.5 2.5 0 0 0-2.3-1.3h-44.7a2.6 2.6 0 0 0-2.3 3.7l6.3 13.7a2.8 2.8 0 0 0 2.4 1.5h45.7a2.6 2.6 0 0 0 2.3-3.9z"></path></g></g></g></g></svg>