<svg xmlns="http://www.w3.org/2000/svg" width="806.3" height="1080" viewBox="-0.0009307861328125 0 806.3009033203125 1080" style=""><g><g data-name="Слой 2"><g data-name="494051432"><path d="M273 207.5s100.4-39 229.9-3.2l-113.2 44.9z" fill="#f1ddc2"></path><path d="M378.2 0s-110.6 174.3-2.8 174.9S382.1 49.5 378.2 0z" fill="#e4ae6a"></path><path d="M377.7 123.1a5 5 0 0 0-3.9 3.9c-.1.4-.1.7-.2 1-5.5 27.8-4.1 57.4 1.4 85.8 1.1 5.4 2.2 10.4 3.4 14.7.4 1.6.7 2.9 1.1 4.1s.3 1.2.4 1.4a5 5 0 1 0 9.6-3s-.3-.8-.4-1.2-.6-2.4-1-3.8c-1.1-4.2-2.2-8.9-3.2-14.1-5.3-27.2-6.6-55.6-1.4-81.9a4.4 4.4 0 0 1 .2-1 5.1 5.1 0 0 0-4-5.9z" fill="#6c4940"></path><path d="M186.6 463.9s264-24.7 416.4-1.8l-201.5 64.6z" fill="#6c4940"></path><path d="M273 207.5s103.3 28.3 229.9-3.2l17.6 331.8-247.5 8.2z" fill="#eed5b3"></path><path d="M593.4 488.3s64.3-124.8 142.9-111.9 25.9 167.2-75.7 172-97.4 8.5-97.4 8.5l23.2-45.4s89 14.4 108.2-13.6-1.2-43.7-14.4-46.5c-40.8-8.9-86.4 49.1-86.4 49.1z" fill="#6c4940"></path><path d="M186.6 463.9s190 57.6 416.4-1.8c0 0 8.9 84.1-35.4 107.8 0 0-71.4 3.8-156.7 4.9-67.2.9-143.1 0-172.2-.3a29.2 29.2 0 0 1-22.5-11.3c-11.6-14.9-28.8-46.1-29.6-99.3z" fill="#8f5f53"></path><g><path d="M648.5 593.8s-36.5 55.1-2.1 117.7L151 708.3s-52-42 .3-119.8z" fill="#eed5b3"></path><path fill="#ce833f" d="M653.4 568.5l-.4-1.6h.4v1.6z"></path><path d="M646.7 730.1a59.8 59.8 0 0 0-.3-18.6L151 708.3s-43.4-55.6.3-119.8l497.2 5.3s4.9-16.6 2.8-26c0 0-503.9-1-513.9 0-7.4.8-66 96.2 4.9 160.3z" fill="#80a29b"></path><path d="M170.4 615a2.3 2.3 0 1 0-.1 4.5l430.3 2.3a2.2 2.2 0 1 0 0-4.4z" fill="#ce833f"></path><path d="M162.3 645.4a2.2 2.2 0 0 0-2.2 2.2 2.1 2.1 0 0 0 2.1 2.2l448 5.4a2.2 2.2 0 0 0 2.3-2.2 2.3 2.3 0 0 0-2.2-2.3z" fill="#ce833f"></path><path d="M176.7 678.2a2.2 2.2 0 0 0-2.3 2.2 2.1 2.1 0 0 0 2.2 2.3l429.6 9a2.1 2.1 0 0 0 2.2-2.1 2.2 2.2 0 0 0-2.1-2.3z" fill="#ce833f"></path></g><g><path d="M799.1 919.7s-53.9 64.9-3.2 138.5l-731.8-3.8s-76.8-49.4.4-140.8z" fill="#eed5b3"></path><path fill="#ce833f" d="M806.3 890l-.5-1.9h.5v1.9z"></path><path d="M796.4 1080a55.5 55.5 0 0 0-.5-21.8l-731.8-3.8s-64.1-65.3.4-140.8l734.6 6.1s7.2-19.5 4.1-30.5c0 0-744.4-1.1-759.2 0-11 .9-97.5 113.1 7.2 188.4z" fill="#8a8532"></path><path d="M93.6 936.7c-1.8 0-3.3 1.2-3.3 2.6s1.4 2.7 3.3 2.7l635.7 2.7c1.8 0 3.3-1.1 3.3-2.6s-1.5-2.6-3.3-2.6z" fill="#ce833f"></path><path d="M80.8 972.2c-1.9 0-3.4 1.2-3.3 2.7a3 3 0 0 0 3.2 2.6l661.9-1.3c1.8 0 3.3-1.1 3.3-2.6s-1.5-2.6-3.3-2.6z" fill="#ce833f"></path><path d="M94.6 999.2c-1.8 0-3.4 1.2-3.4 2.6s1.5 2.7 3.3 2.7l634.8 4c1.8 0 3.3-1.1 3.3-2.5s-1.5-2.7-3.3-2.7z" fill="#ce833f"></path><path d="M94.6 1035.1c-1.8 0-3.4 1.1-3.4 2.6s1.5 2.6 3.3 2.6l634.8 4.1c1.8 0 3.3-1.1 3.3-2.6s-1.5-2.6-3.3-2.6z" fill="#ce833f"></path></g><g><path d="M733.9 746.7s-46.8 58.1-2.7 124l-634.9-3.4s-66.6-44.2.3-126.2z" fill="#eed5b3"></path><path fill="#ce833f" d="M740.2 720l-.5-1.7h.5v1.7z"></path><path d="M731.6 890.3a52.2 52.2 0 0 0-.4-19.6l-634.9-3.4s-55.6-58.5.3-126.2l637.3 5.6s6.3-17.5 3.6-27.4c0 0-645.8-1-658.7 0-9.5.8-84.6 101.4 6.3 168.9z" fill="#b95b42"></path><path d="M121.9 761.9c-1.6 0-2.9 1-2.9 2.3a2.6 2.6 0 0 0 2.8 2.4l551.5 2.5a2.7 2.7 0 0 0 2.9-2.4c0-1.3-1.3-2.3-2.9-2.3z" fill="#ce833f"></path><path d="M110.7 793.7a2.7 2.7 0 0 0-2.9 2.4c0 1.3 1.3 2.3 2.9 2.3l574.2-1.1a2.7 2.7 0 0 0 2.8-2.4c0-1.3-1.3-2.3-2.9-2.3z" fill="#ce833f"></path><path d="M122.7 817.9c-1.6 0-2.9 1-2.9 2.3a2.6 2.6 0 0 0 2.8 2.4l550.7 3.6c1.6 0 2.9-1 2.9-2.3a2.7 2.7 0 0 0-2.8-2.4z" fill="#ce833f"></path><path d="M122.7 850a2.7 2.7 0 0 0-2.9 2.4 2.5 2.5 0 0 0 2.8 2.3l550.7 3.7c1.6 0 2.9-1 2.9-2.3a2.7 2.7 0 0 0-2.8-2.4z" fill="#ce833f"></path></g></g></g></g></svg>