<svg xmlns="http://www.w3.org/2000/svg" width="745.1" height="1080" viewBox="-0.029526710510253906 0 745.0841064453125 1080" style=""><g><g data-name="Слой 2"><g data-name="363116012"><path d="M339.3 0S70.5 261.7 13.9 473.9 84.6 792.1 190.7 785s176.8-77.8 176.8-77.8S509 827.5 643.4 770.9s134.3-297 7-473.9S339.3 0 339.3 0z" fill="#3e59a4"></path><path d="M348.9 89.5s6.3 210.9 0 440.9-25.6 549.6-25.6 549.6h57.5s0-389.8-6.4-607.1-25.5-383.4-25.5-383.4z" fill="#cf4a5d"></path><path d="M187.4 606.4c-4.7-1.4-7.8 2.6-8.9 6.6-.5 2-1.3 4.4-1.8 6.8a19.8 19.8 0 0 0 1.7 14.3c1.8 3.4 6.4 2.3 8.1-.4 3.8-5.9 11.7-24.2.9-27.3z" fill="#e6a731"></path><path d="M262.5 652.4c-1.4-2.2-5.2-3.3-7.1-.9-5 6-9.1 14.5-6.8 22.4a4.4 4.4 0 0 0 1.7 2.3 18.6 18.6 0 0 0 .5 2.7c.7 2.9 4.7 4.2 7.1 2.5 8.8-6.7 10.6-19.8 4.6-29z" fill="#e6a731"></path><path d="M265 570.4a10.7 10.7 0 0 0-1.4-1.6 6.9 6.9 0 0 0-7.5-3.1c-4.6 1.3-6.1 6.7-6.6 10.9a26.8 26.8 0 0 0 2.8 15.5c1.5 2.9 6.3 4.7 8.4 1.2 3.6-5.9 8.4-16.1 4.3-22.9z" fill="#e6a731"></path><path d="M198.2 537.2a11.9 11.9 0 0 0-4.7-5.7 7.5 7.5 0 0 0-7.5-2.4c-5.5 1.6-7.8 8.6-8.6 13.7s.7 10.1 5.1 12.9c11.1 7 19.1-9.5 15.7-18.5z" fill="#e6a731"></path><path d="M243 479l-1.6.4-.9.6h-.2a10.8 10.8 0 0 0-2.9 2.7c-2.4 3-3.8 7.1-4.6 10.3a36.6 36.6 0 0 0 .2 18c1.1 4.4 7.1 4.1 9.5 1.3a29.4 29.4 0 0 0 7.3-20.3 14.7 14.7 0 0 0 .8-3.5c.7-4.9-1.9-10.5-7.6-9.5z" fill="#e6a731"></path><path d="M120 664.3v-1.7a5.1 5.1 0 0 0-.6-2 14.2 14.2 0 0 0-.8-1.8c-1-2-3.8-2.1-5.5-1.1l-.5.3a3.9 3.9 0 0 0-1.4.8c-.1.2-.3.3-.4.4-7.1 5.4-9.8 15.2-7.3 23.8 1.1 4 6.6 4.8 9.2 1.8a30.1 30.1 0 0 0 7.3-19.5 1.7 1.7 0 0 0 0-1z" fill="#e6a731"></path><path d="M189.1 707.2a8.5 8.5 0 0 0-1.2-2.6c-4.2-6.6-12.6-4.2-14.7 2.6a44.9 44.9 0 0 0-2.1 13.1c0 2.9.6 5.9 2.6 8 5.1 5.9 12.5 2 15.3-3.9s3.7-12.2.1-17.2z" fill="#e6a731"></path><path d="M116 592.2c-.7-4.7-5.4-8.3-10.1-6.5-9.2 3.6-8.5 19.6-6.4 27.1.9 3.3 5.5 6 8.4 2.8a27.4 27.4 0 0 0 7.5-18.3 12.6 12.6 0 0 0 .6-5.1z" fill="#e6a731"></path><path d="M131 505.5a6.3 6.3 0 0 0-4-3.6c-12.1-4.2-16.4 19.1-13.7 26.5 2.1 5.6 8.7 8.5 13.5 4s5.3-11 6.8-15.8.6-8.8-2.6-11.1z" fill="#e6a731"></path><path d="M61.8 547.3c-.6-3.2-4.7-4.8-7-2.1a2.4 2.4 0 0 0-.6.8 5.7 5.7 0 0 0-2.1 3 27.1 27.1 0 0 0-3.9 11.7c-.4 4.8.8 10.9 6.6 11.5s9.3-6.4 10.3-11.8.1-9.8-3.3-13.1z" fill="#e6a731"></path><path d="M58.4 637.9a40.8 40.8 0 0 0-.9-8 3.8 3.8 0 0 0-6.1-2.1c-7.3 6.4-9 16.1-5.3 25a4.2 4.2 0 0 0 4.2 2.3c0 .3-.1.6-.1.9a1.5 1.5 0 0 0 2.5 1.2 23 23 0 0 0 5-10.7 17.7 17.7 0 0 0 .7-8.6z" fill="#e6a731"></path><path d="M312.7 526.2c-1.2-4-7.1-5.9-9.4-1.7-1.1 2.1-2.3 4-3.1 6a26.7 26.7 0 0 0-3.1 7.3 22.8 22.8 0 0 0 .9 14.6c1.2 3.1 6.1 3.5 8.2 1.2a28.6 28.6 0 0 0 6.5-27.4z" fill="#e6a731"></path><path d="M317.1 617.2c0-3.4-2-6.6-5.5-7.3s-8 2.5-8.9 6.5 1.7 8.7 4.5 12.1a4.2 4.2 0 0 0 7.1-.7 20.1 20.1 0 0 0 2-6.3v-1.3a7.9 7.9 0 0 0 .8-3z" fill="#e6a731"></path><path d="M173.6 437.6a5 5 0 0 0-1.4 4.2 19.1 19.1 0 0 0-1 23.5c1.9 2.8 6.3 1.9 8-.5 4.1-6 7.6-13.7 7.2-21.1s-7.3-11.3-12.8-6.1z" fill="#e6a731"></path><path d="M83.4 469a5.7 5.7 0 0 0 .3-1.8 7.5 7.5 0 0 0-4.3-7.4c-3.8-1.7-7.2.5-8.9 3.9a62.9 62.9 0 0 0-4.2 10.9c-2.2 7.5 4.1 13.5 11.5 10.8s7.4-10.1 5.6-16.4z" fill="#e6a731"></path><path d="M132.7 390.5a7.3 7.3 0 0 0 .3-2.2c-.2-3.4-2.9-6.4-6.5-6.1s-6.6 5.4-7.7 9.1a33 33 0 0 0-.8 16.2c.4 2.4 3.5 3.6 5.6 2.4 6.1-3.5 11.3-12 9.1-19.4z" fill="#e6a731"></path><path d="M302.6 433.6c-1.9-2.7-6.8-2.9-8.1.6l-.9 2c-2.4 2.3-3.2 6-3.1 9.2a18.1 18.1 0 0 0 1.4 6.9c1.2 2.9 2.6 4 5.6 4.8a4.9 4.9 0 0 0 4.5-1.8 17.9 17.9 0 0 0 .6-21.7z" fill="#e6a731"></path><path d="M240.4 392c-.6-3.1-3.1-4.1-5.5-3.8a7.1 7.1 0 0 0-7.5 1c-3 2.5-3.8 6.4-3.7 10.1.1 5.9 2.1 18.8 11 15.2s7-15.9 5.7-22.5z" fill="#e6a731"></path><path d="M295.1 344.8a9.6 9.6 0 0 0-2.7-6.6 6 6 0 0 0-2.8-2.4 6.5 6.5 0 0 0-6.4.9 6.1 6.1 0 0 0-3.1 4.4c-1.9 4.7-1.9 11.1.1 14.2a7.4 7.4 0 0 0 11.2 1.1c2.8-2.8 3.9-7.8 3.7-11.6z" fill="#e6a731"></path><path d="M194.9 322.8a5.6 5.6 0 0 0-1.2-2.7 2.9 2.9 0 0 0-.2-.9 7.6 7.6 0 0 0-6.8-5.5c-8.6-.3-9.8 12.9-11.4 18.8-1 3.7-1.9 7.6 1 10.6s7.6 1.9 10.7-.5a20.8 20.8 0 0 0 7.9-19.8z" fill="#e6a731"></path><path d="M250.1 265.2c-3.9-2.4-8.6 0-10.6 3.6s-1.1 12.1 3.1 15.4a4.7 4.7 0 0 0 7.3-1.3 15.1 15.1 0 0 0 2.3-6.3 11.2 11.2 0 0 0 1.2-3.2 7.7 7.7 0 0 0-3.3-8.2z" fill="#e6a731"></path><path d="M317 232a7.7 7.7 0 0 0-10.8-7.2c-3.2 1.6-4.9 6.2-5.7 9.5s-.2 9 3.3 12a9 9 0 0 0 10.6.5c5.3-3.8 5.1-9.7 2.6-14.8z" fill="#e6a731"></path><path d="M131.7 301.6a10.8 10.8 0 0 0-.5-5c-.7-2.1-4-3.2-5.9-2.1a20.7 20.7 0 0 0-9.1 21.6c.7 3.5 3.9 4.7 7 3.7a13.7 13.7 0 0 0 8.8-8.9c1-2.8 1.5-6.8-.3-9.3z" fill="#e6a731"></path><path d="M191.3 234.4c-.9-2.3-3.7-3.8-6-2.2-5.8 4.1-14.1 14.3-8.8 21.7 2.6 3.7 7.7 3.9 11.3 1.2a9.1 9.1 0 0 0 3.2-5.3 21 21 0 0 0 .3-15.4z" fill="#e6a731"></path><path d="M250.8 181.5a5.5 5.5 0 0 0-6.4 1.1c-3.5.9-5.8 4.7-6.4 8.5s-1.9 10.2-.4 14.3a7.3 7.3 0 0 0 9.3 4.7c3.8-1.2 5.9-4.5 7.5-7.9 3.4-7.1 4.2-16.4-3.6-20.7z" fill="#e6a731"></path><path d="M315.3 133.7c-1.5-2.4-5.6-3-7.4-.6l-.6.8a10.4 10.4 0 0 0-3.8 2.8c-3.8 4.9-2 10.8.1 16 1.3 3.1 4.9 3.6 7.5 2 7-4.3 8.4-14.3 4.2-21z" fill="#e6a731"></path><path d="M271.4 110.5c-1-2.2-4-3.8-6.2-2a10.2 10.2 0 0 0-3 3.6 9.5 9.5 0 0 0-2.1 3.1 8.3 8.3 0 0 0 2 8.2c3 2.8 7.5 1.5 9.6-1.6s1.4-7.6-.3-11.3z" fill="#e6a731"></path><path d="M322.5 68.5a6.7 6.7 0 0 0-6-6.9c-9.6-.9-8.4 14.6-6.9 20.2.8 2.9 4.7 5 7.2 2.4a16.7 16.7 0 0 0 5.1-13 6 6 0 0 0 .6-2.7z" fill="#e6a731"></path><path d="M412.2 558.9c-5.8-4.4-12 1.2-14.4 6.6a19.9 19.9 0 0 0 .4 17.2c2.4 4.8 9 4.1 11.3.3 5.9-5.2 10-18.5 2.7-24.1z" fill="#e6a731"></path><path d="M449 475.4c-2.1-2.3-6.9-1.8-8.6.7a35.2 35.2 0 0 0-5.9 20.4c.5 4.5 2.4 9.5 6.8 11.4s10.1-1.2 12.6-5.8c4.7-9 1.8-19.7-4.9-26.7z" fill="#e6a731"></path><path d="M410.4 410.6c-1-2.7-5.1-4.2-7.6-2.7l-.9.6a6.5 6.5 0 0 0-2.3.9c-1.9 1.3-2.7 3.4-3.2 5.6a11.4 11.4 0 0 0-.9 2.6 6.2 6.2 0 0 0-.1 1.3c-1.2 4.2-3.6 9.3-1.2 13.4s7 4.1 10.5 2.2c8.4-4.3 8.7-16.3 5.7-23.9z" fill="#e6a731"></path><path d="M468.8 377.6a10.6 10.6 0 0 0-14 4.3 13.6 13.6 0 0 0-1.7 5.4l-.7 2.3a17.1 17.1 0 0 0-.4 4.5 13.9 13.9 0 0 0 2.8 7 10.2 10.2 0 0 0 3.6 3 8.2 8.2 0 0 0 10.3 2.4c5.4-2.4 7.1-9.8 7.4-15.2s-2.1-11.1-7.3-13.7z" fill="#e6a731"></path><path d="M424.3 314a7 7 0 0 0-9-3 7.8 7.8 0 0 0-2.6 1.7 11.2 11.2 0 0 0-2 1.8 12.5 12.5 0 0 0-2.1 10.5c0 4.9 2.3 9.9 7.7 10.7 10.7 1.7 13.7-15.1 8-21.7z" fill="#e6a731"></path><path d="M498.4 291a9.8 9.8 0 0 0-4-1.9 9.2 9.2 0 0 0-2.9-.4c-10.2.6-11 17.1-5.9 23.1a8.3 8.3 0 0 0 10.6 1.7c3.5-2.1 5-6.6 5.7-10.4s.1-9.1-3.5-12.1z" fill="#e6a731"></path><path d="M450.4 249.9a13.3 13.3 0 0 0-2.7-4.1 7.9 7.9 0 0 0-3.4-3.6c-9.2-5-12.7 8.8-13 15s.3 10.8 5 13.3 9.2-.3 11.7-4.4 4.4-11.1 2.4-16.2z" fill="#e6a731"></path><path d="M399.2 210.3c.6-3.6 1.4-7.5-.3-10.8a9.5 9.5 0 0 0-7.6-5.2c-8.4-.5-9.2 8.8-9.4 15-.1 3.4-.6 7.3 1 10.5a8.4 8.4 0 0 0 9.2 4.2 10.5 10.5 0 0 0 7.1-6.5 11.5 11.5 0 0 0 .4-5.5c-.1-.6-.3-1.2-.4-1.7z" fill="#e6a731"></path><path d="M486.7 188.6a5 5 0 0 0-5.1-2.7 4.1 4.1 0 0 0-4.3 1c-3.5 3.5-3.7 9.4-3.4 14s1.3 9.8 6.4 10.7 8.8-5.8 9.3-10.5a19.4 19.4 0 0 0-2.9-12.5z" fill="#e6a731"></path><path d="M433.4 135.6a4.2 4.2 0 0 0-1.5-1.9 9.6 9.6 0 0 0-4.4-4.5c-1.9-1-4.9 0-5.6 2.1a28.9 28.9 0 0 0-1.1 13.7c.7 4.5 2.3 10 7.3 10.7a4.9 4.9 0 0 0 5.2-2.7 18.5 18.5 0 0 0 .1-17.4z" fill="#e6a731"></path><path d="M395.3 87.1a7 7 0 0 0-1.9-1.6 8.6 8.6 0 0 0-3.9-2.7 4.4 4.4 0 0 0-4.4.8c-1.5 1.7-2.7 3-3.2 5.3a19.1 19.1 0 0 0-.5 4.8 27 27 0 0 0 1.2 8.9c.9 3 4.2 5.3 7.3 3.5 6.1-3.4 10.2-12.9 5.4-19z" fill="#e6a731"></path><path d="M532.1 437.2c-14.4-10-24.8 20.2-17.2 29.4a7.3 7.3 0 0 0 5.9 2.3 8.8 8.8 0 0 0 3.3.6c2.9 0 5.5-2.2 6.8-4.8 7.4-6.3 9.1-22 1.2-27.5z" fill="#e6a731"></path><path d="M574.9 360.1c-.2-3.7-1.6-7.2-4.7-9.4a9.9 9.9 0 0 0-11.3-.1 13.5 13.5 0 0 0-5.4 9 19.5 19.5 0 0 0-.2 4.8 11.3 11.3 0 0 0 .8 3.4 19.3 19.3 0 0 0 .9 4.3 8.8 8.8 0 0 0 11.5 5.2c6.5-2.4 8.8-10.9 8.4-17.2z" fill="#e6a731"></path><path d="M570.4 250.4a11.7 11.7 0 0 0-11.1-6.6 12 12 0 0 0-9.3 5.6c-2.8 4.2-2.4 9-1.2 13.6.1.4.3.7.4 1.1a18.6 18.6 0 0 0 1.5 5.6 10.5 10.5 0 0 0 9.6 5.8c8.5-.4 10.5-8.7 11.1-15.6.3-3.2.4-6.5-1-9.5z" fill="#e6a731"></path><path d="M641.2 429.4a9.6 9.6 0 0 0-11.1-2.1c-5 2.2-7.9 9.3-6.9 15.1-1 5.6.1 11.2 6.7 12.9 9.3 2.3 12.6-7.7 13.8-14.8.6-3.9.4-8-2.5-11.1z" fill="#e6a731"></path><path d="M590.4 518.3c-.6-7.9-7.4-14-15.5-12-6.5 1.6-9.1 8.5-10.1 14.4s-1.3 14.8 5.4 18.7a10 10 0 0 0 2.9 1 11.6 11.6 0 0 0 11.3-3.9 27.2 27.2 0 0 0 6-18.2z" fill="#e6a731"></path><path d="M515.7 579.5a9.4 9.4 0 0 0-9.7-6.6c-5.1.3-8.7 4.5-9.4 9.2a9.4 9.4 0 0 0 .3 4.1c-1.1 4.9-1.5 10.2 1.4 14.6s6.5 4.1 10.2 2.2 5.5-5.8 6.6-9.9 1.9-9.3.6-13.6z" fill="#e6a731"></path><path d="M697 522a9 9 0 0 0-11.2-3.9c-6.3 2.5-9.2 11.3-7.6 17.6h.1c0 4 1.5 7.5 6 9.2 8.9 3.2 13.4-6.9 14.2-13.9.3-2.9.1-6.3-1.5-9z" fill="#e6a731"></path><path d="M643.7 599.1c-1.3-8.3-8.7-11.7-15.7-7.4-2.2 1.3-3.1 3.9-3.1 6.4-1.6 5.7-3.4 13-.6 18.4 3.8 7 13.2 5 16.7-1.2a28.2 28.2 0 0 0 2.7-16.2z" fill="#e6a731"></path><path d="M564.4 655.4c-4.8-1.5-9.4.7-12 4.8a14.3 14.3 0 0 0-2.5 8.8 15.8 15.8 0 0 0 1.1 8.6 9.4 9.4 0 0 0 9.3 5.7c4.6-.4 7.7-4.1 9.6-8 3.1-6.6 2.5-17.2-5.5-19.9z" fill="#e6a731"></path><path d="M469 676c-.7-4.5-3.1-7.2-7.5-8.5s-7 1.7-8.2 4.9c-3.5 4.7-4.9 12.5-1.8 17.2a8.7 8.7 0 0 0 10.4 3.3c3.1-1.2 4.9-3.8 6.1-6.8a21.6 21.6 0 0 0 1-10.1z" fill="#e6a731"></path><path d="M659.5 686.9c-5.1-3.9-11.6-.6-14.4 4.3a19.7 19.7 0 0 0-2.6 7.5 12.9 12.9 0 0 0 .9 6.8 21.4 21.4 0 0 0 3 7.8c2.6 4.2 8.2 2.9 11 0 5.9-6.3 10.2-20 2.1-26.4z" fill="#e6a731"></path><path d="M533.6 729.3c-5-1.5-9.6 2.8-12 6.7s-3.1 8.5-1.9 12.6a6.4 6.4 0 0 0 6.9 4.9l.9-.2a6 6 0 0 0 4.9-1c6.1-4.6 11.8-19.9 1.2-23z" fill="#e6a731"></path></g></g></g></svg>