<svg xmlns="http://www.w3.org/2000/svg" width="989.7" height="1080" viewBox="0 0.000004649162292480469 989.7008056640625 1080" style=""><g><g data-name="Слой 2"><g fill="#5d7569" data-name="489957596"><path d="M989.7 100.8c-1 3.6-2 7.3-2.9 10.9l-14.9 25-3.9 5.6-13.7 13.8 21.4 18a2.3 2.3 0 0 0 1.5 2.5l-3.6 33.8-6.9 9.9-4.1 6.3-4.3 5.3c-14.2 7.1-16 19.3-13.6 33.1a1.7 1.7 0 0 0-.9 2.4c-.7 1.8-1.4 3.7-2.2 5.5l-.8.5.2 1-4.1 5.7-14 16-23.6 32.2-2.9 6.2c-1.7 2.9-3.4 5.7-5 8.6s-4.8 6.1-7.1 9.2c-.8.9-1.6 1.7-2.3 2.6L852.1 385l-72.5 51.2h.2l-4.7 1.6a1.5 1.5 0 0 0-2.2.9l-13.4 3.2-8.9 3.8-32.8 24.7-11.6 10.5-28.1 16.5c45 8 87.6 13.5 112 54.8h-.1l2.6 7.7 1.8 7.8 38.8 46.6v1.2l1 .7c.6 1.8 1.2 3.5 1.9 5.3s1.5 5.3 2.3 7.9 1.2 5.1 1.7 7.7v-.4c.2 1.7.5 3.4.7 5.1.4 4.3.9 8.7 1.3 13s-.6 11.2-.8 16.8l-3 17.5-2.4 7.7c-13.9 16 3.9 20.9 10.4 29.8a1.9 1.9 0 0 0 1.5 2.2c1.2 2.6 2.3 5.2 3.4 7.9 1.7 8.3 3.4 16.7 5 25 .1 1.6.2 3.3.2 4.9l-9.6 48.5c-2.6 2.8-5.3 5.5-7.9 8.2-4-3.5-9.7-6.3-11.6-10.7-2.8-6.7-2.9-14.5-4.2-21.8a3.8 3.8 0 0 0-.3-3.3l-2.8-23.9c-2.2-6.4-4.4-12.8-6.5-19.2l-12.2-8.1h.1l-5 .6-7.2 1.9c-13-.5-27.7-.5-28.8-17.9s11-21.1 24.9-23.9c5.1-1 11-4.5 13.8-8.6 15.4-23.3 6.7-65.4-13.3-79.6l-45 27.3h-6l-11.1-2-19.9-14.8-.7-.9c-.8-2-1.6-4-2.3-6-.8-4.2-1.5-8.3-2.2-12.4.1-1.8.3-3.6.4-5.3v.3c3.8-7.6 7.6-15.2 11.5-22.8l7.8-6.9 28.5-10.3c.4-1.8.8-3.6 1.3-5.4l-55-16.3-.8 1 .7-1-17.9-1.8-3.9-.4-22.9-.5-.8-.6-1 .5-16.1 1.4h.4l-5.4.4h.3l-24.8 5.9-4.4 2.3-9 9.7-6.5 8.1c-.8.8-1.5 1.7-2.3 2.6l-4.8 6.3c-7.4 14.9 6.7 8.8 11.6 11.8l6.3 3c26.7 20.5 42.5 45.4 33.6 80.7v-.2c-1.5 3.1-3.2 6.2-4.5 9.4-15.2 37.3-53.9 63.7-94.4 50.3-7.9-2.7-16.6-2.8-25-4.1h.6L488.9 701c-1.1-4.5-2.3-9-3.4-13.6q1-32 1.9-64.1v.2a2 2 0 0 0 1.1-2.9l3.3-7 5.8-8.5 20.8-19.5 29.1-41.8-4.5-5.3c-15.5 21.5-35.4 33.6-61.3 33l-22.7-6.6-33.6-35.6-3.6-10c0-11.8 0-23.6-.1-35.4v.4c.7-2.6 1.4-5.3 2-7.9v.2c10.6-27.3 25.1-50.7 56.7-57.3l4.6-.3 25.1-.3 4.7.6 13.7 3a5 5 0 0 0 3.1 1.4c40.8 18.1 42.5 50.9 29.4 90.4l25-9.7 24.2-6.1 4.9-.6h.3l47.1-22.5a1.4 1.4 0 0 0 2-1.1l33-18.8 8.6-5.9-5.7-26.8v.2c-.4-6.6-.7-13.3-1-19.9 0-1.7.1-3.4.2-5.2s.1-3.5.2-5.2c-.6-10.6-1.3-21.2-1.9-31.8-3.5-23.5-6.9-47-10.4-70.5-.9-2.3-1.7-4.5-2.6-6.7L675 263l-6.6-11c-10.1-26.7-9.6-29.5 9.5-46.1L667 195.1l-26.6-28.2-2.1-2.8-2.9-4.3-2-5.7c-.4-2.4-.7-4.8-1-7.1 2.9-5.3 6.8-10.3 8.4-16 1.1-3.7-1.2-8.4-2-12.6l-7.3-9c-9.4-18.4-16.4-36.7 4.4-52.6l1.1-.8 21.1-6.2h-.3l34.3-1.1c-9.6-28.9 1.2-42.5 32-35.6 19.6 4.4 37.9 15 54 21.6l14.2-31.5a1.7 1.7 0 0 0 2.1-1.3l5.2-1.4c.8.5 1.5.4 1.9-.5 29.2 2.6 50 19.4 68.5 40.2l4.6 6.6c1.1 1.9 2.1 3.8 3.1 5.7a2.1 2.1 0 0 0 1.5 2.4l3.6 7.4a1.6 1.6 0 0 0 1 2.3c2.1 8.1 4.1 16.2 6.7 26.4l11.7-8.9 4.5-2.8 23.4-8.1v-1l-.2.9 19.9-1.5 9.9.6 5.4 1h-.3c14.2 4.9 25 12.7 24.9 29.6zM818.1 262.6c.3 1.1.5 2.2.7 3.3l1.8-3.3c4.8-12 8.9-24.1 14.4-35.7 6.9-14.8 7.6-29.2-.5-43.5-20.7-36.5-40.2-73.9-63.1-109-8.7-13.3-25.3-21.4-38.2-31.9l-3.7 3.9c4.6 11.5 16.2 25.5 0 33.4-9.8 4.7-24.1.1-35.8-.2 13.5 13.4 26.2 25.5 38.4 38.1 40.3 41.4 68.2 90.2 86 144.9zM782.2 337l6.4.5c4.6-13.9 15.2-29.1 12.4-41.2-6.4-27.8-18.6-54.3-30-80.7-22-51-59-91.5-97-130.8-4.2-4.4-13.6-3.7-20.6-5.3-.4 7.4.4 9.6 1.9 11.3 7.4 9.1 15.6 17.7 22.5 27.1 5.4 7.2 13 15.6 12.8 23.2s-10.7 12-17.2 18.5c5.9 5.8 13.9 12.1 19.8 20 7 9.7 12.4 20.6 18 31.2 3.1 5.8 4.1 13.3 8.3 18 28.1 31.8 56.3 63.5 62.7 108.2zm-73.3-89.5c-1.8 1-3.6 2-5.5 2.9 28.5 50.8 27.6 107.6 34.9 163.7 11.1-14.4 22.5-28.5 27.9-44.5 2.6-7.7-6-19.1-9.5-28.9s-6.1-21.7-11.3-31.3c-11.4-21-24.2-41.3-36.5-61.9zM812.5 34.8c.7 14 1.3 26.2 2 38.4.4 6.8-1.2 15 1.9 20.1 12.5 20.2 26.5 39.5 39.6 58.6 15.4-47.7-3.1-100.2-43.5-117.1zm139 152.5c-8.6-2.2-15.2-2.9-20.7-5.7s-10.7-8.1-16.1-12.2c-35 14.6-47.1 31.8-49.4 72.6 25.6-23.9 69.2-14.3 86.2-54.7zm13.1-92.4C940 87.4 916 88.3 901.1 106c-10.2 12.1-9.8 33.1-14.3 50.7 38.7-7.8 63.5-26.6 77.8-61.8zM830.5 322c15.3-6 32-9.5 44.8-18.5s21.7-24 32.9-35.8c7.7-8.1 7.9-14.7-.2-20.8-39.7 10.8-70.5 30.2-77.5 75.1zm-45.3 77.5l75.1-65.4c-35.1 7.5-61.7 25.1-75.1 65.4z"></path><path d="M331.3 990.8l-10.4-9.3-6-9.1-3.5-6.2c-5.7-20.1-3.3-39.1 6.8-57.3l4.5-5.5 2.4-2.5 7.8-7.2c19-9.8 36-23.3 59.9-21.8 34.2 2.1 67.3 5.3 91.4 37-.3-11.2-1.1-18.8-.6-26.4 2.8-38.1 29-58.1 66.1-51.2 23.3 4.3 38 19.3 49.2 38.9v-.2c1.1 4.9 2.3 9.9 3.5 14.9v.3c.2 4 .3 8 .5 12.1v.3c-4 22-16.4 37.6-36.1 47.8l-10.6 2.9-16.3.8-22.3-6-12.5-7.5-5.3-4.6-7.7-9-14.6 40.7c-6.1 6-12.1 12-18.1 18.1l-28.6 14.8-42.4 6.7h.2l-29.7-1.5h-.5l-11.3-2.1-9.3-4.1z"></path><path d="M322.7 456.1l-.7-1.1h-1.3l-2.9-2c-2.7-2.3-5.4-4.6-8-7l-6.2-8.7c-.8-2.3-1.5-4.7-2.3-7 1.1-11.2 2.3-22.4 3.4-33.5a1.3 1.3 0 0 0 .6-2l1.8-5.5.9-.7v-1.2c.7-1.9 1.5-3.9 2.2-5.9s1.7-2.9 2.5-4.3 1.5-3.8 2.3-5.6l.6-1.4 5.3-9.9 5.8-9.5c16.3-24.7 37.9-42.7 65.8-52.9h-.2l4.8-1 7.6-1.7 20.1-.7h.1l15.6 3.7 13.9 7.2 12.6 11.7 8.1 13.6c1.4 3 2.7 6 4 9s1.7 7.8 2.6 11.7c0 1.8-.1 3.7-.1 5.5v-.3c-1.3 6.7-2.6 13.4-4 20.1-.9 2.6-1.9 5.1-2.9 7.7s-3.1 6.4-4.6 9.7c-13.8 27.3-38.7 41.6-64.7 54.7l-7.1 2.9-27.9 7-15.1 1.8H352a2 2 0 0 0-2.9.1h-6.6l-6.9-.8-5-.8h.5z"></path><path d="M733.1 760c.5 2 .9 4 1.4 6 .1 5.3.3 10.7.4 16l.2-.4c-.2 2.2-.5 4.4-.7 6.5l-.5 1.1c-3 7.9-5.9 15.8-8.9 23.8l-2.7 4.3-40.8 43.5-21.8 8.6-17.8 1.9a2 2 0 0 0-2.9-.5c-20.8-4.4-38.1-13.6-49.3-32.7-34.2-57.8-15-112.7 48.7-138.5a1.7 1.7 0 0 0 2.4-.6l5.9-.5h-.4l22.7 2.3h-.4l7.8 2.1h-.1l16.1 7.5.5 1 32 32.6 3.6 5.6c1.6 3.3 3.1 6.9 4.6 10.4z"></path><path d="M129.4 768l-3-4.7c-2.2-8.4-4.3-16.9-6.4-25.4 1.2-8.6 2.3-17.1 3.4-25.6.6-1.4 1.1-2.8 1.7-4.3l4.9-10c2-2.9 4-5.9 6.1-8.8l15-15.1 5.7-4.2 3-2a18.6 18.6 0 0 0 3.1-1c.4-.2.5-1 .7-1.5l16.3-7.1 9.1-4.3 25.4-6.7 5.6-.7 24.9 1.9 9.7 3.7 24.5 30v-.2c.4 6.6.8 13.2 1.3 19.8v.6c-.2 1.5-.4 3.1-.5 4.6h-.1l-9.3 28.5c-1 1.4-1.9 2.8-2.8 4.2l-6.4 9.1-6.2 8.2c-21 22.5-48.5 31.3-77.8 36.4l-11.9-.8z"></path><path d="M344.5 752.3l10.7 3.9 2.9 1.9 5.8 4.2 11.4 13.8c2.5 5.4 5 10.8 7.6 16.2-4.1 16-4.3 34.8-13.3 47.3-12.1 16.9-31 29-47.1 43.1l-7.2 3.3-17.2 7.9-24.5 4.6q-41.7-5.8-53.1-46.4c-.9-25.3 8.5-45.7 28.8-60.9l5.6-4.4 2.7-2.3 10.3-9.4 32-18.1 7.2-1.8 5.2-.9 5.4-.6z"></path><path d="M378.6 606.4l9.8-3.6 5.4-1.3h.2l7.7-1.6 10-1.3 34.9 1.2a2.2 2.2 0 0 0 2.6 1.4l17.6 17.3a2.2 2.2 0 0 0 1.5 2.6c.8 2.9 1.5 5.9 2.3 8.8s.5 5 .8 7.6c-.8 35.7-22.5 57.6-49.7 76.1l-11.3 6.1-8.6 3.8-7 2.5-13 2.4h-9.4l-22.7-6.8-6-3.8-30.6-43.5v.4c-.1-1.8-.3-3.7-.5-5.5s-.1-3-.2-4.6c4.1-10.8 8.2-21.6 12.4-32.4l7.2-7.2 19.8-10.3 7-2 15.5-4.7h-.3z"></path><path d="M238.7 524l.5-.9c6.2-8.7 12.5-17.4 18.8-26l5.7-4.4 17.2-7.9 12.5-2.2c16.3 1.1 32.7 1.7 48.9 3.5 25.4 2.8 44.1 14.6 51.2 40.7-1.4 9.5-2.9 19.1-4.4 28.6-.9 1.4-1.8 2.7-2.6 4.1l-49.7 35.3a1.3 1.3 0 0 0-2 .6l-25.7 4.7v1.2c0-.4.1-.8.1-1.2l-22.6-1.2h.3L254 587.6l-7.6-7.4c-3.7-9.2-7.5-18.5-11.3-27.7v.4c-.1-1.9-.3-3.8-.4-5.6l.6-9 .9-6.9.4-.9z"></path><path d="M501.5 718.3a12.4 12.4 0 0 0 2.2 2.8c31.4 23.9 35.2 43 15 77.3-5.1 8.6-10.5 17.1-17.1 24.6-17 19.3-38 29.5-64.2 23s-39.2-27.5-44-53.5l.6-12 32.4-47.5 12-9.7 20.3-8 8.2-1.8h9.9l4.9.3 20.4 4.6z"></path><path d="M173.1 844.9a3.4 3.4 0 0 0 1 3.2c.6 1.4 1.1 2.8 1.6 4.2h.1c.2 1.4.4 2.7.7 4.1a2.9 2.9 0 0 0 1 3.1c.1 1.8.3 3.6.4 5.5v4.5c-.2 1.9-.3 3.8-.5 5.7l-1.5 7c-.5 2-1 3.9-1.4 5.8a1.2 1.2 0 0 0-.7 2c-4.2 12.4-8.3 24.9-12.5 37.3l-3.9 6-15.9 14.1a17.3 17.3 0 0 0-3.2 1.1c-.4.2-.6.9-.8 1.5l-28.5 5h-.1l-5.2-.8-7.1-1.9c-35-21.3-42-37.3-32.7-75.2L77 859l8.4-11.6 11-13.9 5-5.2 5.9-3.9 6-3.4h-.2l7.9-2h-.5l5.4-.7h9.6l24.5 9.9 9.9 10.7c1 2.2 2.1 4.1 3.2 6z"></path><path d="M59.6 1079.8l-4.9.2-10.1-.6h.2l-13.7-4.1-4-2.5L0 1030.2c.1-3.2.3-6.3.4-9.4 3.5-19.4 16.5-31.8 31.2-43l5.4-4.7 19.7-8.9h-.3l5.3-.8h4.7c23.6 3.4 41.5 15.3 53.1 36.2a2 2 0 0 0 1.2 2.5c1.1 4.3 2.2 8.6 3.2 12.9.1 1.6.3 3.3.4 4.9s0 3.4-.1 5.1l-.6 5.2v-.3l-6.6 16.2-.8.5-9.5 10.8-15.1 9.4-23 11.1-3.4 1.2z"></path><path d="M237.1 924.4l6.7 4.6c7.4 7.5 14.9 15 22.3 22.6a1.7 1.7 0 0 0 1.5 2.1c1.3 2.5 2.5 5 3.8 7.4l4.8 15.4c.5 4.3 1 8.6 1.6 12.9s0 6.1.1 9.2l-1.5 10.2.5.9-.6-.9-5.1 12.5-17.5 17c-20.2 8-39.3 5.8-57.3-6.2l-6.9-7.9c-7.1-26.5-14.2-52.9-21.2-79.4v-.3l1.9-5.6.9-.6v-1.2c10.3-14.7 24.6-21.5 42.4-21.2l-.3-1.1.2 1.2z"></path></g></g></g></svg>