<svg xmlns="http://www.w3.org/2000/svg" width="1080" height="1552.01" viewBox="-0.000762939453125 -0.0006084442138671875 1079.9906005859375 1552.0047607421875" style=""><g><g data-name="Слой 2"><g data-name="8"><path d="M246.83 552.72c1.93-13.81-1.92-26.46-3.7-39.12-6.48-46.22-14.38-92.25-20.79-138.49-5.8-41.76-10.1-83.69-8.59-126 1-27.46 5.74-54.15 15.34-79.88a151.61 151.61 0 0 1 35.3-55.37c35.83-35.59 85.71-43.5 130.83-20.66a156.84 156.84 0 0 1 39.27 28.41c3.7 3.64 7.18 7.5 10.94 11.08 5.2 4.95 7.36 4.62 9.62-1.64 2.64-7.31 4.82-14.79 7.4-22.12C469.6 88.66 478.34 69.2 491 51.66c10.8-14.93 23.84-27.39 39.82-36.6 29.34-16.91 60-19.74 91.73-7.68 28.26 10.74 50 29.7 66.62 54.66a239.25 239.25 0 0 1 21 39.45c3.89 9.18 5.15 10 14.81 8.25 44.6-8.27 79.93 9.37 110.43 39.6 25.69 25.47 39.41 57.48 47.8 92.09.31 1.26.41 2.56.71 3.82 1.79 7.48 1 16.72 6.46 21.84 5.85 5.44 14.92 1.24 22.55 1.65 38.09 2.05 67.83 20 92.21 48.07 17.24 19.87 28.83 43 37.85 67.54 12.16 33 19 67.39 23.79 102.11 8.57 62.42 12.12 125.24 12.77 188.21.9 87.59 1.06 175.22-6 262.59-7.13 88-18.27 175.44-41.56 260.88-18.41 67.5-47.45 130.27-85 189.24-50.6 79.52-123.13 128.11-213.37 152.19-47.69 12.72-96 15.06-144.76 9.83-19.34-2.07-38.61-4.83-57.91-7.32-92.47-11.94-169.55-54.37-235.3-119-60.06-59.07-104.6-128.5-137.34-205.88-22.05-52.11-38.42-106-53.48-160.45C82 974.2 58 892.07 26.76 812.2 9.13 767.06-1.08 720.45.09 671.68c.53-22.24 4-44 11.6-64.85 11.51-31.45 30.47-57 60-74 22.66-13.07 47.09-18 73-16 28.28 2.25 54.49 11.16 79.3 24.73 7.17 3.98 13.65 9.74 22.84 11.16zm37.95 522.52c.81 3.3 1.38 6.3 2.29 9.2a683 683 0 0 0 43 106.34c22.55 44.3 51.48 84.08 87.62 118.32 39.17 37.11 84.41 62.2 139 68.22 13.54 1.5 27 4.06 40.53 5.26 25.24 2.23 50.73 3.71 75.74-.58 60.74-10.43 108.71-40.15 140.2-94.68 24.46-42.33 45.23-86.12 58-133.44 19.15-71 27.56-143.77 34.92-216.7 2.86-28.44 3.37-57 4.45-85.49 2.08-54.46 2.91-109 2.15-163.45-.15-10.21-.18-20.54-3.19-30.57-2.54 13.45-4.17 26.9-5.79 40.34-2.08 17.39-3.25 34.92-7.56 52-9.09 36-36.21 60.58-71.61 65.32-34.67 4.64-67.63-13-85.35-45.76-1.85-3.41-3.46-7-5.6-10.18a3.25 3.25 0 0 0-5-.56 86.93 86.93 0 0 0-6.78 6.93c-33.74 38.07-101.8 38.71-133.6-17.23-1.92-3.38-3.4-7-5.4-10.34-1.51-2.49-3.87-3.3-6.53-1.48-4.29 2.92-8.33 6.24-12.82 8.81-31.17 17.81-61.9 16.75-91.79-3C456 732.19 445.65 717.45 439 700c-1.59-4.21-2.17-9.1-7.23-12.84 0 7.52-.05 13.32 0 19.11.37 33.07 4.56 66 2.85 99.17-2.4 46.64-4 93.32-6.41 140-1.26 24.6-.35 49.32-3.89 73.81-2.07 14.33-6.49 27.73-14.4 39.94-25.09 38.74-71.9 48.71-110.61 23.62-4.13-2.74-7.21-7.51-14.53-7.57zm-113.2-363.48c.87 12.64 3.66 20.53 6.56 28.37 5.63 15.21 11.52 30.32 17.05 45.57 21.45 59.18 40.28 119.21 57.45 179.76.9 3.18 0 8.2 6.15 7.94 3.25-27.94 4.53-55.59-6.1-82.53-2.84-7.2-4.2-15-6.31-22.47-12.87-45.86-32.85-88.74-55.21-130.58-4.5-8.42-9.35-16.89-19.59-26.06z" fill="#fff"></path><path d="M989.52 821.08c-1.08 87-5 173.69-20.29 259.59-12.31 69.53-34.36 135.68-68.45 197.77-22.72 41.56-52.78 76.71-88.6 107.56-41.8 36.12-90.91 54.24-144.88 60.47-113.23 13.25-210.22-23.68-292.6-99.16-64.12-58.85-109.3-131.35-141.63-212-18.54-46.53-30.85-95-42.35-143.66q-14.81-62.49-32.19-124.18c-.95-3.52-1.9-7-3-10.55-1.89-7.31-4.05-14.48-6.22-21.65-.68-3-1.62-5.81-2.43-8.65-1.22-4.47-2.57-8.93-3.93-13.4-8.79-29.22-20.15-57.62-29.76-86.57-5.81-17.18-10.82-34.63-15.55-52.22-3.25-11.9-4.47-24.21-1.63-36.52 4.74-20.84 18.26-32.74 39.5-33.82 30.44-1.36 55.33 11.63 77.65 30.71 16.37 14.2 28.81 31.65 39.23 50.45a558.87 558.87 0 0 1 29.89 63.85v.14c1.36 3.65 2.85 7.3 4.2 11 2.57 6.49 5 13 7.31 19.61 1.35 3.65 2.7 7.44 4.05 11.23.54 1.76 1.22 3.38 1.76 5.14 11.77 33.68 23.4 67.37 35.31 101 2.57 7.3 6.09 14.34 9.47 21.24.67 1.48 3 3.24 4.05 3.11 1.63-.27 3.39-2.17 3.93-3.79a320.44 320.44 0 0 0 19.75-73.18c9.33-62.64 8-125.27-1.22-187.9-7.3-50.46-17.18-100.37-26-150.56-.54-3.65-1.22-7.31-1.9-11-.94-5.68-1.89-11.23-2.84-16.91-.27-1.35-.4-2.84-.67-4.19-.68-3.65-1.22-7.44-1.76-11.09-6.63-43-10.82-86.17-13.26-129.6q-3-52.55-3.11-105.11c0-11.77 1.62-23.26 6.09-34.22 9.06-21.92 29.08-26.51 46.8-10.82 8.39 7.44 14.34 16.77 19.62 26.51a317.69 317.69 0 0 1 22.18 51.81c6.76 20.29 13.4 40.72 19.21 61.28q14 50.52 28.28 100.78c1.08 3.79 2.16 7.44 3.24 11.23 1.62 6.09 3.38 12 5 18.13 1.08 3.78 2.16 7.43 3.11 11.22 7.57 27.19 15 54.52 22 81.85 7.31 28.81 16.65 57.22 25.17 85.89.67 2.3 1.35 4.87 5.68 6.36 0-16.37.67-32.19 0-48-2.71-61.69-2.44-123.37-1.62-184.92.94-79.14 3.92-158.27 13.66-236.87 1.49-11.63 3.52-23.13 7.17-34.22 2.16-6.09 4.46-12.31 7.71-17.86 12.72-21.64 33.82-24.21 51.81-6.49 8 7.84 13 17.72 17.86 27.73 10.68 22.32 16.64 46.26 21.51 70.48a960.36 960.36 0 0 1 14.33 96.18c1.76 18.67 1.76 37.6 2.17 56.41 1.89 79.13 6.49 158.13 11.5 237 1.08 18.13.67 36.39 3.38 54.38.54 4.33.27 9.2 5.82 12.18 6.22-17.86 6.35-36.12 7.43-54.11 2.84-45.32 3.79-90.64 6.9-136 .14-1.35.14-2.7.27-4.06.28-3.65.55-7.44.95-11.09.41-7 1-14.07 1.63-21.23.26-3.52.54-7.17.81-10.83 2.7-31.38 5.68-62.76 8.52-94.28 2.16-24.49 4.46-49.11 9.2-73.32a168.42 168.42 0 0 1 11.49-37.07 56 56 0 0 1 10.56-16.23c9.47-9.88 22.18-10.82 33.41-2.71 9.74 7.17 15.15 17.59 19.62 28.41 8.25 20 12.71 40.85 16 62.09 7 44.91 10.68 90.1 12.17 135.41.14 3.92.27 8 .41 11.91v1.89c.13 6.76.4 13.53.54 20.29.13 3.52.13 7.17.41 10.69 1.89 70.75 4.6 141.36 6.89 212.11a210.61 210.61 0 0 0 3.39 28.54c5.81-3.24 5.68-8.11 6.63-12.44a491.92 491.92 0 0 0 11.76-86.58q2.85-73.86 7.18-147.72c1.21-22.18 6.89-43.56 16-63.85 3.65-8.39 8.25-16.23 15-22.59 13.39-12.85 29.49-13.39 43.69-1.22 9.61 8.25 15.56 18.94 19.89 30.71 8.25 22.73 12.31 46.4 14.75 70.21 7.71 75.62 14.2 151.1 18 227 1.91 37.68 3.54 75.28 2.99 112.89z" fill="#ef9940"></path><path d="M842.75 1069.71c-6.63-8.11-13.12-16.23-20.43-23.53C767 990.58 700 964.06 621.71 971.5c-73.32 7-132.43 42.21-178.7 99.3a45.9 45.9 0 0 0-6.49 9.6c-3.11 6.36-2.84 12.45 2.43 17.86 14.21 14.2 28 28.81 42.62 42.47a260.64 260.64 0 0 0 30.57 24c39.09 26.78 82.38 40.58 133.11 41.53 32.06-1.22 65.74-9.74 97.8-25 36.53-17.72 67.91-42.48 97.27-70.34 13.52-12.92 13.79-27.41 2.43-41.21zM537.3 1141c1.35 2.71 1.89 5.82 2.84 8.8.14.13.14.13.27.13l-.13.27c0-.13-.14-.27-.14-.4-12.72-3.52-22.19-12.45-32.2-20.43a281 281 0 0 1-37.6-36.39c-3.92-4.46-4.33-8.52-.54-13.66 14.61-19.62 48-46 70.88-55.19 2.3 2.7.14 4.87-.95 7-19.2 36.28-20.15 72.81-2.43 109.87zm105.38 37.48c-51.13 4.19-92.12-42.21-92-89.83.14-48.15 37.74-92.25 91.18-92.25 60.6-.14 93.06 49.1 93.06 92.25.15 45.86-38.67 93.48-92.24 89.83zm176.94-83.87c-21.51 21-44.51 39.63-73.86 55.46 4.33-12.58 7.84-22.59 11-32.6 3.38-10.69 3.11-21.78 3-32.88s-1.08-22-5-32.46c-3.92-10.15-8.52-20-14.47-33.68 34.23 16.5 58.71 38.28 79.81 64.25 3.17 4.06 3.58 7.85-.48 11.91z" fill="#152236"></path><path d="M865.42 1048.1a16.49 16.49 0 0 1-12.28-5c-5.53-5.47-10.8-11.21-16.23-16.78-37.46-38.4-81.3-67-133.27-80.69-93.48-24.65-175.72-1.89-246.65 63-10 9.16-18.64 19.83-27.87 29.84-10.63 11.53-15.84 12.45-28 2.85-8.62-6.79-16.36-14.73-24.3-22.35a14.69 14.69 0 0 1-4.62-10.42c-.19-7.61 7.73-12.6 15.22-9.45 6.15 2.58 10.33 7.72 15.14 12 8.28 7.39 8.49 7.52 16.81-1.56a314 314 0 0 1 36.77-34.69c6.62-5.21 13.44-10.17 20.25-15.15 10.26-7.5 10.47-7.54 5.8-18.84-7.92-19.19-16.07-38.27-24.18-57.37-2-4.78-4.46-9.45-4-14.86.42-4.88 2.51-8.77 7.5-10.23a10.44 10.44 0 0 1 10.7 2.94c4.25 4.22 6.26 9.79 8.6 15.13 7.81 17.82 15.42 35.72 23.44 53.45 4.17 9.2 5.25 9.64 14.78 5.42 22.06-9.78 44.79-17.37 68.6-21.19 12.79-2 25.78-2.74 38.65-4.3 8.78-1.07 9.83-2.27 10.37-10.79.41-6.46.05-13 .91-19.4.93-6.88 5.81-10.86 11.68-10.76s10.42 4.1 11.42 11.1a128.63 128.63 0 0 1 .71 17.46c0 10.16.72 13.61 12.56 15.22 25.18 3.41 49.44 10.68 72.78 20.69 10.71 4.6 21 10.22 31.5 15.26 6.9 3.31 8.82 3 12.68-3.45 10.69-17.79 21.05-35.77 31.67-53.6a82.61 82.61 0 0 1 8.79-12.77 11.13 11.13 0 0 1 14.22-2.05c4.51 2.87 5.53 7.45 4 11.94a91 91 0 0 1-7.26 15.81c-9.83 17.54-20.1 34.83-29.78 52.45-4.84 8.82-4.52 10 3.47 16.26a448.53 448.53 0 0 1 42.21 37.4c7.1 7.16 7.82 6.91 16.12.35 4.06-3.21 7.85-6.84 12.18-9.63 5.3-3.42 10.74-2.75 14.25.91a11.26 11.26 0 0 1 .78 14.35c-3.49 4.59-7.92 8.49-12.08 12.56-4.63 4.53-9.5 8.82-14.1 13.38-2.8 2.86-5.88 5.02-9.94 5.56z" fill="#152236"></path><path d="M462.44 616.36c-2.69-.8-7-2.05-11.26-3.36-9.64-2.93-9.67-3-15.45 5.65-2.52 3.75-4.59 7.84-7.41 11.32-4.59 5.68-11.09 4.59-13.51-2a11.16 11.16 0 0 1-1.06-3.71c.13-14.19-5.28-23.75-19.37-29.5-9-3.66-8.39-14.79.89-17.49 15.2-4.42 23-12.33 21.31-28.49-.13-1.18.56-2.5 1-3.69 1.21-3.07 2.68-6 6.56-6.12 3.67-.12 5.82 2.27 7.54 5.11.66 1.1 1 2.4 1.65 3.5 3.26 5.38 1.74 13.55 8.59 16.63 5.77 2.59 11-2.66 16.84-2.59 3.35 0 6.6.37 8.32 3.62s.39 6.24-1.63 8.93a42.85 42.85 0 0 1-3.74 4.44c-5.23 5.25-3.87 10.12.34 15.3a75.27 75.27 0 0 1 8.61 12.7c2.14 4.13-1.79 9.39-8.22 9.75z" fill="#152236"></path><path d="M954.32 563.36c0 21.43-9.84 37.45-24.72 42-15.9 4.81-35.56-2.43-46.52-17-6-8-8.72-17.27-10.86-26.77a19.67 19.67 0 0 1 1-11.44c2.73-7.23 7.92-8.46 13.15-2.87 4.41 4.72 8.21 10.16 13.2 14.13 11.08 8.81 20.63 8.43 31.63-.61 3.48-2.85 6.18-6.64 9.55-9.64 5.42-4.81 11.71-2.67 13 4.35a59.72 59.72 0 0 1 .57 7.85z" fill="#152236"></path><path d="M297.86 791.05q-57.63 28.2-112.41 62c-8.66 5.28-17.86 9.74-26.92 14.48-.95-3.52-1.9-7-3-10.55 1.35-.95 2.71-1.76 4.06-2.57 44-26.11 88.06-52.08 134.2-74.54 1.37 3.6 2.72 7.39 4.07 11.18z" fill="#152236"></path><path d="M286.5 760.21c-9.74 5.54-19.5 10.79-29.22 16.09-32.47 17.72-65.2 34.77-96.72 54.11-3.52 2.17-6.9 5-11.23 4.87-.68-3-1.62-5.81-2.43-8.65a56.08 56.08 0 0 1 9.06-7.17c13.39-8 26.65-16 40.31-23.41 28.54-15.82 57.36-31.25 86-46.8 1.39 3.65 2.88 7.3 4.23 10.96z" fill="#152236"></path><path d="M466.82 434.87c-41 10.14-81.44 23-121.34 37.34-2 .67-3.92 1.35-6 1.89-.68-3.65-1.22-7.44-1.76-11.09a4.63 4.63 0 0 1 1.49-.68c40.71-15.15 82.11-28.41 124.32-38.69 1.13 3.79 2.21 7.44 3.29 11.23z" fill="#152236"></path><path d="M474.94 464.22c-43 11.1-85 25.84-126.76 41.13a14.78 14.78 0 0 1-3.24.81c-.54-3.65-1.22-7.31-1.9-11 .27-.27.55-.27.82-.41 41.93-16.09 84.41-30.43 128-41.79 1.05 3.82 2.14 7.47 3.08 11.26z" fill="#152236"></path><path d="M822.46 441.23h-.27c-18.13.13-36.26 0-46.67 0-28.95-1.09-50.19-2-71.56-3a16.73 16.73 0 0 1-3.65-.4c.26-3.52.54-7.17.81-10.83a7.07 7.07 0 0 1 1.76-.27c7.16-.27 14.34-.81 21.37-.13 32.2 3.38 64.52 1.89 96.72 2.7h1.08c.14 3.94.27 8 .41 11.93z" fill="#152236"></path><path d="M767.54 472.88v-.4l-63.85-2c-2-.14-3.92-.14-6-.28.28-3.65.55-7.44.95-11.09 32.47 1.35 64.94 0 97.4 3.52 8.93.95 17.86.81 26.92.81.13 3.52.13 7.17.41 10.69-18.5-.3-37.17-.84-55.83-1.25z" fill="#152236"></path><path d="M598.49 442.19c-3.89-.45-6.24-2.5-8.17-5.23-4.09-5.79-8.16-11.6-12.37-17.3-3-4-4.19-8.26-.78-12.37 5.43-6.53 9.17-13.88 12.68-21.57s9.93-7.19 14.51.25a5.58 5.58 0 0 1 .87 1.72c2 9.64 14.15 15.37 12.24 25.38-1.6 8.45-7.9 16-12 24-1.61 3.08-3.71 5.18-6.98 5.12z" fill="#152236"></path><path d="M762 275.91a8.07 8.07 0 0 1-5.93-3.8c-3-4.2-5.92-8.41-9-12.55-2.16-2.92-3.05-6-.57-9 3.94-4.74 6.65-10.07 9.2-15.65s7.2-5.22 10.53.18a4.33 4.33 0 0 1 .63 1.25c1.44 7 10.27 11.16 8.89 18.42-1.17 6.13-5.74 11.6-8.73 17.4-1.12 2.27-2.64 3.84-5.02 3.75z" fill="#152236"></path><path d="M202.49 706a19.76 19.76 0 0 1-20 19.4c-9.18-.09-16.65-8.3-16.44-18.06.23-10.37 10.22-20.06 20.24-19.65 9.25.36 16.29 8.31 16.2 18.31z" fill="#152236"></path><path d="M318.39 1139.8c-.41 9.82-9.52 18.19-19.51 17.94-9.25-.23-17.22-10.16-16.48-20.52.65-9.09 9-16.72 18.37-16.81 9.74-.11 18.05 9.04 17.62 19.39z" fill="#152236"></path><path d="M662.6 1336.45c9.35-.29 17.18 7.4 17.47 17.14.28 9.16-7.31 17.48-16.69 18.29a17.08 17.08 0 0 1-18.31-16.13 18.06 18.06 0 0 1 17.53-19.3z" fill="#152236"></path><path d="M538.86 779.21c0 10-7.14 17.16-16.91 16.84-10.33-.34-19.28-8.88-18.86-18 .4-8.54 9.32-16.2 18.63-16a17.13 17.13 0 0 1 17.14 17.16z" fill="#152236"></path><path d="M908.27 658.68c.52.26 1.33.39 1.51.8 3 6.92 10.5 12.5 9.86 20-.57 6.57-8.63 10.52-10.5 17.38-2.09-.88-3.73-1-4.31-1.89-11.69-17.47-11.67-17.49 3.44-36.29z" fill="#152236"></path><path d="M464.53 1223.93a10.53 10.53 0 0 1 9.71 11.91 11.51 11.51 0 0 1-12.4 9.59c-6-.45-10.8-6.22-9.9-11.89s6.65-10 12.59-9.61z" fill="#152236"></path><path d="M260.26 921.66a11.47 11.47 0 0 1-12.88 11.23 10.45 10.45 0 0 1-9.13-10.64 12.1 12.1 0 0 1 13.06-11.36 10.27 10.27 0 0 1 8.95 10.77z" fill="#152236"></path><path d="M423.26 961.9a10.8 10.8 0 0 1-11.38-10.58 10.44 10.44 0 0 1 9.18-10.64c6-.63 11 4.15 11.23 10.56.17 5.64-3.76 10.27-9.03 10.66z" fill="#152236"></path><path d="M565 874.7a10.52 10.52 0 0 1 10.38 11.22c-.46 5.24-5.09 9-10.69 8.62a9.67 9.67 0 0 1-9.34-10 9.81 9.81 0 0 1 9.65-9.84z" fill="#152236"></path><path d="M879.48 1197.78a10.86 10.86 0 0 1-11.63 10 9.77 9.77 0 0 1-9-10.32c.19-6.14 5.17-10.41 11.45-9.82 5.53.5 9.52 4.93 9.18 10.14z" fill="#152236"></path><path d="M871.91 958.56c-5.08-.34-9.1-5.22-8.65-10.49a9.14 9.14 0 0 1 8.82-8.26 9.57 9.57 0 0 1 9.81 9.44 9.77 9.77 0 0 1-9.98 9.31z" fill="#152236"></path><path d="M595.31 201.28a9.49 9.49 0 0 1-9.81 9.42 9.08 9.08 0 0 1-8.38-8.74 9.7 9.7 0 0 1 9.9-9.44 8.9 8.9 0 0 1 8.29 8.76z" fill="#152236"></path><path d="M747.48 877.83a8.71 8.71 0 0 1-7.31 9.71A8.87 8.87 0 0 1 730 878.7a9 9 0 0 1 8.41-8.89 8.66 8.66 0 0 1 9.07 8.02z" fill="#152236"></path><path d="M738.34 721.07a8.53 8.53 0 0 1 8.72 8.13 8.36 8.36 0 0 1-7.76 9c-5.54.49-10-3.64-9.71-9a8.6 8.6 0 0 1 8.75-8.13z" fill="#152236"></path><path d="M603.13 593.29c-3.64-.47-7-2.12-7.39-6.8-.41-5 4.41-10.2 9.32-10.48 4-.22 8.68 4.28 8.91 8.56.28 5.15-4.41 9.13-10.84 8.72z" fill="#152236"></path><path d="M160.94 658.4a5.53 5.53 0 0 1 1.88-.12c6.32 1.9 12 14.55 9 20.35a3.64 3.64 0 0 1-4.88 1.62c-5.78-2.78-10.25-12.92-8.55-19.35.3-.98 1.69-1.67 2.55-2.5z" fill="#152236"></path><path d="M392.34 387.65c-3.78-.39-6.52-2.75-6.75-7.24-.25-4.64 3.62-8.55 8.32-8.9a7.82 7.82 0 0 1 8.31 8.4c-.4 4.76-4.22 7.94-9.88 7.74z" fill="#152236"></path><path d="M201.84 734c.87.42 2.76.89 4 2.05 3.36 3.11 4.89 7.34 5.92 11.67.64 2.73-.59 4.88-3.09 6.19a4.2 4.2 0 0 1-5.2-1c-3.91-4.25-7-9-6.19-15.18.27-1.9 1.37-3.45 4.56-3.73z" fill="#152236"></path><path d="M950.19 830.06a8.74 8.74 0 0 1-7.88 9.22 8.52 8.52 0 1 1 7.88-9.22z" fill="#152236"></path><path d="M368.49 270.42c-4.24-.68-6.93-3-7.14-7.42-.25-5.22 5.1-9.83 10.07-8.53 4.08 1.07 6.36 4 6.13 8.37a8.12 8.12 0 0 1-9.06 7.58z" fill="#152236"></path><path d="M150.3 729.91c-1.16-.71-3.3-1.31-4-2.66a5.71 5.71 0 0 1 .33-5.06c2.7-3.72 6.63-5.81 11.33-5.13 1.55.22 3.68 1.6 4.12 2.92a6.09 6.09 0 0 1-1.29 5.07 15.3 15.3 0 0 1-10.49 4.86z" fill="#152236"></path><path d="M209.76 691.3c-1-.71-2.76-1.52-3.8-2.86-.58-.75-.09-2.42.08-3.65a3.27 3.27 0 0 1 .86-1.68c3.14-3.28 6.39-6.82 11.48-5.39 1.31.36 2.94 3 2.82 4.43-.4 5.13-4.66 8.43-11.44 9.15z" fill="#152236"></path><path d="M926.94 498.08c0 4.09-1.72 7.22-6.05 8.43-3.61 1-7.39-2.46-7.35-6.65.05-4.56 2.67-7.35 6.88-7.74 3.58-.32 5.75 2.22 6.52 5.96z" fill="#152236"></path><path d="M766.84 582c-.13 2.07-2.75 4.74-7 5-3.74.21-5.64-2.48-5.68-6.13-.06-4.52 2.34-7.41 6.81-7.34 3.38.01 5.92 2.08 5.87 8.47z" fill="#152236"></path><path d="M757.7 393.72c-2.83-.56-4.67-2.36-4.48-5 .24-3.26 2-5.91 5.88-5.5 2.73.29 4.64 2.11 4.48 4.84-.2 3.45-2.39 5.46-5.88 5.66z" fill="#152236"></path><path d="M762.9 334.7c-2.8-.15-4.9-1.32-5.2-4.29-.36-3.73 1.41-6 5.29-6 3.18 0 4.39 2.5 4.32 5.07s-1.31 4.86-4.41 5.22z" fill="#152236"></path><path d="M647 1044.73c19.11.27 34.94 16.57 34.14 35.13a34.17 34.17 0 0 1-34.67 32.41c-18.82-.3-36.2-15.69-35.73-31.63.61-19.87 17.09-36.19 36.26-35.91z" fill="#152236"></path></g></g></g></svg>