<svg xmlns="http://www.w3.org/2000/svg" width="931.04" height="1080" viewBox="0 0 931.04 1080"><g id="Слой_2" data-name="Слой 2"><g id="woman_401712568"><g id="woman_401712568-2" data-name="woman_401712568"><rect x="762.73" width="43.71" height="52.64" rx="9.39" fill="#ef7d5e"/><path d="M676.15 290.17c19.15-11.53 70.9-69.35 94.81-110.24 8.67 16.16 1.84 43.76-4 61.14s-26.72 51.64-39.56 64.73c-59.64 60.79-71.93 44.88-163.67 44.88-17.92.0-50-2.33-70.49-17.21-14.49-10.55-7.53-23.36-4.58-41 2.2-13.15 1.78-30.5 16.07-27.77 13.07 2.49 42 8.1 56 12.82C593.91 288.67 667.44 295.42 676.15 290.17z" fill="#ef7d5e"/><path d="M536.38 694.45c-3.89-22 8.25-43.47 17-64.32 12.52-29.88 19.18-65 16-98.54-1.92-20.21-7.52-40.2-17.73-57.82-9.36-16.15-26.23-22.87-27-42.8-.49-12.43 1.15-24.8 3.35-37 .34-1.92.63-3.94 1-6-12.66 6.39-26.83 7.74-40.87-1.11a39.7 39.7.0 0 1-17.34-24.63c-1.15-5-.84-8.95 1.43-14.64 1.12-2.81-.11 4.45.65 9.32 1.53 9.84 11.42 20.32 20.12 25.25a32.8 32.8.0 0 0 23.83 3.59c4.69-1.11 9.44-2.83 13.24-5.87a25.66 25.66.0 0 0 8-11.71 41.76 41.76.0 0 0 1.25-16.46c-1.29-12.14-7-19.91-11.57-30.37-4.38-10 2.72-21.16.45-31.78-1.35-6.34-4.86-13.58-10.1-17.64-3.89-3-9.24-4.32-13.37-7.28-9.91-7.11-15.18-18-15.64-30.11.22 5.65-27.9 3.14-35.41 3.6.59.0.91 15.13.59 16.73-1.55 7.54-5.41 14.45-10 20.53-5.85 7.73-13 14.38-19.35 21.69-4.26 4.89-9 10.56-11.45 16.62-2.67 6.51-4.11 14.77-10.12 19-8.73 6.11-12.09 18.58-11.1 28.72 1.27 13.11 11.73 20.38 17.39 31.35 4.4 8.51-1.54 32-5.71 40.09-3.56 6.89-11.15 14.24-15.77 21.45a263.56 263.56.0 0 0-16 28.82 268.75 268.75.0 0 0-21.49 66.2c-4.25 22.86-3.5 45.68-5.36 68.63-4.16 51.33 1.08 103.13 7.38 154.06a60.23 60.23.0 0 1 .85 6.87c5.79 46 12.51 91.85 15.27 138.12a604 604 0 0 1 .49 68.87c-1.09 19.88-4.67 57.1-5.13 58.22a13.14 13.14.0 0 1-6.48 7.49c-11.54 6.49-9.29 15.5-5.14 17 2.14.77 18.91.18 22.63-2.17 10.06-6.33 7.13-11.37 10.83-25 2.87-10.57 5.21-21.92 10.08-31.81 4.67-9.51 15.31-15.41 16.15-26.68.73-9.72-3.29-19.13-5-28.74-3.73-20.45 5.35-32.58 12.76-50.26 6.62-15.81 9.38-33.48 12.51-50.56 7.48-40.88 10.71-83.57-2.48-123.78-3.67-11.2-6.17-22.63-9.15-34-.91-3.49 18.53-30.44 24.52-63-.12-6.26 1.85-41.17 1.9-47.44.26-26.57-6.94-13.41-.87-39.4a46.81 46.81.0 0 1 1.85-6.63c-9.74-9.93-5.69-15.11 3.78-5.47l.1-.1c11.54-10 22.5-10.2 14.79-4.2-2.35 1.83-4.54 3.83-6.76 5.81-1.29 1.14-2.55 2.33-3.9 3.42-.44.35-1.17 1.12-1.35 1.22-.26.64-.78 2.22-1.12 3.4-.87 3-1.53 6.11-2.14 9.2a298.39 298.39.0 0 0-4.38 32.75 577.4 577.4.0 0 0-1.76 61c7.17 44.39 22.78 92.54 33.14 132.8 9.11 35.35 19.07 70.49 27.38 106 6.77 29 12.44 58.24 15.48 87.86 1.51 14.79 2.37 29.66 2.4 44.54.0 7.14 1 14.26.0 21.38-.48 3.36-1.25 7.1-3.45 9.8-1 1.28-2.58 2-3.49 3.33-2 2.89-5.44 9.52-2.12 12.24 4.88 4 20.83 2 25.3-1.9 6.27-5.43 6.27-16.66 7.22-24.2 1.23-9.74 1.77-19.69 5-29 3.41-10 13.2-17.26 12.59-28.54-.53-9.74-5.73-18.55-8.7-27.85-6.33-19.81 1.11-33 6.18-51.49 4.54-16.52 5-34.41 5.9-51.75 2.16-41.5-.13-84.25-18.38-122.43C544.74 716.33 538.43 706 536.38 694.45z" fill="#ef7d5e"/><path d="M604.5 494.92c11.59-17 21.51-34.23 16.54-56-5.6-24.51-32.59-41.23-33.88-66.34-.75-14.63 8-27.45 9.82-41.58 2.29-17.4-1.68-35.12-12.69-49-8.4-10.62-20.19-18.45-27.31-30-10.57-17.1-5.53-37-12.84-54.78-7-17.15-19.7-37.51-35.28-47.86-7.93-5.27-18.9-8.58-28.47-7.12-2.6.4-8.18 10.34-3.93 16-3.47-5-8-9.44-14.37-9.09-7.24.41-14 .55-20.13 5a25.59 25.59.0 0 0-10.37 19.05c-.27 5 .76 10.66-2.49 14.47-1.56 1.83-3.84 2.84-5.72 4.34-4.71 3.77-6.39 10.34-5.95 16.37s2.64 11.75 4.4 17.53 3.1 11.94 1.77 17.83S418.33 255 418.24 261a13.83 13.83.0 0 0 1.34 6.15c2.15 4.54 6.69 7.56 12 6.31 6.84-1.6 15.28-5.54 22.05-7.21 2.24-.55 3.11-10.71 3.32-18.69.1-3.67-2.64-9.25-3.94-13.93-2.13-7.73-3.15-14.24-7.22-21.15-3.75-6.37 6.36-11.19 6.51-19.23.17-9.51-5.78-18.27 1.44-24.86 2-1.78-.51-5 1.89-6.07 10.23-4.71 23.07-3.69 32.78 1.84 11.54 6.58 15.84 19.51 13.36 32.33-1.2 6.25-3.74 12.14-5.53 18.25-4.52 15.48-4.9 29-1.69 39 1.11 3.47 2.8 4 5.93 14.78 8.59 29.56-7.61 59.7-28.8 80-8 7.66-17.26 14-24.53 22.39-21 24.19-10.32 50.91-18.68 78.42-7.78 25.59-28.48 49.87-23.77 78 4.46 26.66 31.37 44.62 38.19 70.77 4 15.44.53 31.68-.48 47.59-2.82 44.44 28.69 74.63 72.82 70.83 55.43-4.78 82.91-48.22 73-100.39-3.87-20.46-10.18-40.64-10.5-61.46C577.44 531.44 592 513.33 604.5 494.92z" fill="#0e0e0e"/><path d="M496.63 231.49c1.57-5.8 2.82-11.42 3.88-14.18 1.52-4 3.3-2.28 4.18-8.57.83-6-1.31-13.13-2.12-19.09-.65-4.68.41-8.22-1.63-12.49-4.64-9.71-13.8-17.62-24.48-18.88-15.36-1.81-29.57 13.69-30 28.47-.13 4.34.12 7.32-3.33 9.89-2.44 1.82-8.79 2.85-6.27 7.85a21.09 21.09.0 0 0 1.91 2.46c1.82 2.6 1 4.37.62 6.83a61 61 0 0 0-.82 9.74c.12 4.25.71 9.31 4.48 11.3 2.64 1.39 6.1.75 8.54 2.48a9.85 9.85.0 0 1 3.83 7.26c.34 7.28.94 17.06-6.17 20.95 1.74 8.68 37.44 3.59 51.25 3C492.08 259.78 493.83 241.87 496.63 231.49z" fill="#ef7d5e"/><path d="M448.83 177.79c-6.31 1.21-12.1-1.39-9.57-7.3a38.38 38.38.0 0 1 6.4-10.32c3.91-4.44 14.9-14.17 20.39-7.51C471.74 159.56 458.29 176 448.83 177.79z" fill="#0e0e0e"/><path d="M500.46 277.64c-.84-11.56-5.82-9.56-17.89-9.12-7.1.26-12.1-15.4-17.71-11.07a45 45 0 0 1-25.4 9.09c-30.51 1.11-44.54 5-60 18.36-25.52 22-62.85 48.81-70.68 54.57a3.91 3.91.0 0 1-3.38.6c-14.78-4.28-111.41-33.74-140.56-44.26L160.56 297c-3.9 4.55-6.27 10.46-7.79 16.17v0a3.87 3.87.0 0 0 2.14 4.49c.84.39 1.5.75 1.85.92l.29.16c16.36 9.8 105 52.63 128.45 64.31 9.4 4.68 22.94 17.46 49.7 2.85 7.62-4.16 96.12-66 97.64-66.89 1.94-1.13-.65-6.14 1.36-7.15l1.32-.64.23-.1a187.42 187.42.0 0 1 25.4-8.5c1.91-.47 3.82-.92 5.74-1.33s10-1.34 2-.48c3.57-.38 7.08-.91 10.68-1C490.78 299.35 501.31 289.32 500.46 277.64z" fill="#ef7d5e"/><path d="M497.79 126.94c3.88 10.47-1.34 25.28-10.74 31.81-10.43 7.26-23 5.59-28.16-6.87-3.72-9-1.76-19.18 3.8-27s13.55-11.1 23.15-8.5A16.77 16.77.0 0 1 497.79 126.94z" fill="#0e0e0e"/><rect x="128.04" y="15.23" width="58.26" height="68.24" rx="9.39" fill="#ef7d5e"/><path d="M309.18 554.21c6.71-121.51 18.26-203.21-69.82-222.1-34.21-7.34-52-168.61-47.91-259.8a3.24 3.24.0 0 0-3.12-3.38c-17.8-.66-42.84-2.16-64.07-1.65a3.24 3.24.0 0 0-3.16 3.39c4.35 91.19-12.94 252.47-47.13 259.92C-14 349.75-2.25 431.41 4.83 552.9 9 624.42 24.27 1010.35 49.29 1060.14c13.85 27.56 225.84 23.52 234.91-1.67C303.09 1006 305.23 625.74 309.18 554.21z" fill="#0e0e0e"/><path d="M192.1 144.08a11.39 11.39.0 0 0 4.77-1.77c6.83-4.56 4-17.06-4.7-16.86-15.22.34-58.89-1.35-65.43-.78-4.46.39-9-.22-11.25 4.35a11.86 11.86.0 0 0-.67 8.68c1.13 3.7 3.26 5.34 6.88 6.09s37.15 2.42 50.15 1.62C175.56 145.19 189.14 144.54 192.1 144.08z" fill="#0e0e0e"/><path d="M287.41 559.52c-38.78 4.62-78.23 4.56-117.22 4.06-39.67-.5-139.87-5.8-147-2.85-3.43 1.42 5 128.79 10.44 208.17.13 2 3.65 1.42 5.62 1.64 72.08 8 160.58 7.74 240.39 1.15 1.87-.15 4.75.25 4.79-1.63 1.32-74.17 4.87-183.75 5.94-206.77C290.49 561 289.65 559.26 287.41 559.52z" fill="#cc4b42"/><path d="M222.08 872c4.62 1.74 7.32-5.42 2.7-7.17S217.46 870.25 222.08 872z" fill="#cc4b42"/><path d="M181.27 986.12c5.81 2.19 9.2-6.81 3.4-9S175.47 983.93 181.27 986.12z" fill="#cc4b42"/><path d="M142 955.84a2.92 2.92.0 0 0 3.83-1.45c.74 1.7.73 3.74 2.07 5l-1.69 1.24C144.65 958.53 141.12 958.59 142 955.84z" fill="#cc4b42"/><path d="M176.28 9e2a2.24 2.24.0 0 0-.43 3.12c-1.42-.19-2.78-1-4.09-.66l-.21-1.63C173.49 900.66 174.74 898.29 176.28 9e2z" fill="#cc4b42"/><path d="M117.29 932.47c.46-.76 1.27-1.34 1.36-2.17l1 .25c-.35 1.14.73 2.39-.63 2.87A1.4 1.4.0 0 0 117.29 932.47z" fill="#cc4b42"/><path d="M79.33 976.82c.46-.76 1.27-1.34 1.36-2.17l1 .25c-.35 1.15.73 2.39-.63 2.87A1.4 1.4.0 0 0 79.33 976.82z" fill="#cc4b42"/><path d="M100.2 926.18c-.44-1.81 1.79-1.34 2.86-2.42l1 1c-.9.6-1 1.86-1.54 2.83A2.09 2.09.0 0 0 100.2 926.18z" fill="#cc4b42"/><path d="M136.12 877.53a2.05 2.05.0 0 0 2.71-1c.53 1.21.53 2.65 1.48 3.52l-1.21.88C138 879.46 135.48 879.49 136.12 877.53z" fill="#cc4b42"/><path d="M119.67 976.6a1.39 1.39.0 0 0-.26 1.94c-.88-.12-1.72-.65-2.53-.42l-.13-1C118 977 118.73 975.53 119.67 976.6z" fill="#cc4b42"/><path d="M129.09 901.27c.16 2 1.35 3 3.37 3.19-1.55 1.48-3.83 2.36-4.56 4.2l-2.17-1.15C127.29 905.08 125.59 901.58 129.09 901.27z" fill="#cc4b42"/><path d="M229.4 904.36a.93.93.0 0 0-.17 1.29c-.58-.08-1.14-.43-1.68-.27l-.08-.67C228.26 904.63 228.77 903.66 229.4 904.36z" fill="#cc4b42"/><path d="M157.67 923.24a.94.94.0 0 0-.18 1.29c-.58-.08-1.14-.43-1.67-.27l-.09-.67C156.53 923.51 157 922.54 157.67 923.24z" fill="#cc4b42"/><path d="M250.36 888a.93.93.0 0 0-.17 1.29c-.58-.09-1.14-.43-1.68-.28l-.08-.67C249.22 888.22 249.73 887.25 250.36 888z" fill="#cc4b42"/><path d="M214.56 913a.93.93.0 0 0-.18 1.29c-.58-.09-1.14-.43-1.68-.28l-.08-.67C213.41 913.31 213.93 912.34 214.56 913z" fill="#cc4b42"/><path d="M208.83 878.19a.93.93.0 0 0-.18 1.29c-.58-.08-1.14-.43-1.68-.27l-.08-.67C207.68 878.46 208.2 877.49 208.83 878.19z" fill="#cc4b42"/><path d="M224.9 932.11c.19-.31.52-.55.56-.89l.41.11c-.15.46.3 1-.26 1.17A.58.58.0 0 0 224.9 932.11z" fill="#cc4b42"/><path d="M232.24 852.4c.19-.32.52-.56.56-.89l.4.1c-.14.47.3 1-.26 1.18A.57.57.0 0 0 232.24 852.4z" fill="#cc4b42"/><path d="M225.44 885.4a.86.86.0 0 0 1.12-.42c.22.49.21 1.09.6 1.44l-.49.36C226.21 886.19 225.18 886.2 225.44 885.4z" fill="#cc4b42"/><path d="M85.59 908.17a.84.84.0 0 0 1.11-.42c.22.5.22 1.09.61 1.45l-.5.36C86.36 909 85.32 909 85.59 908.17z" fill="#cc4b42"/><path d="M243.11 876a.86.86.0 0 0 1.12-.42c.22.49.21 1.09.6 1.44l-.49.36C243.88 876.82 242.85 876.83 243.11 876z" fill="#cc4b42"/><path d="M208 854.2a.83.83.0 0 0 1.11-.42c.22.5.22 1.09.61 1.45l-.5.36C208.76 855 207.72 855 208 854.2z" fill="#cc4b42"/><path d="M222.56 895.13a1.34 1.34.0 0 0 1.38 1.31c-.63.61-1.57 1-1.87 1.72l-.89-.47C221.82 896.7 221.12 895.26 222.56 895.13z" fill="#cc4b42"/><path d="M94.53 882.46a1.79 1.79.0 0 0 2.52-.12c0 1.16-.53 2.36-.1 3.35l-1.27.41C95.33 884.58 93.34 883.93 94.53 882.46z" fill="#cc4b42"/><path d="M112.85 851.82a.65.65.0 0 0-.29.89c-.43-.13-.8-.44-1.22-.39v-.48C112 851.88 112.47 851.25 112.85 851.82z" fill="#cc4b42"/><path d="M177.87 524.35c7.64 2.88 12.11-9 4.47-11.85S170.24 521.47 177.87 524.35z" fill="#cc4b42"/><path d="M198.92 440.11a2.07 2.07.0 0 0 2.71-1c.54 1.21.54 2.65 1.49 3.52l-1.21.88C200.8 442 198.28 442.06 198.92 440.11z" fill="#cc4b42"/><path d="M215.4 413a2.06 2.06.0 0 0 2.71-1c.54 1.2.53 2.65 1.48 3.51l-1.21.88C217.28 414.9 214.76 414.93 215.4 413z" fill="#cc4b42"/><path d="M232.84 497.24a2.05 2.05.0 0 0 2.71-1c.54 1.21.53 2.65 1.49 3.52l-1.22.88C234.72 499.17 232.2 499.2 232.84 497.24z" fill="#cc4b42"/><path d="M191.9 463.84c.16 2 1.35 3 3.37 3.19-1.55 1.49-3.83 2.36-4.56 4.2l-2.17-1.15C190.1 467.66 188.4 464.15 191.9 463.84z" fill="#cc4b42"/><path d="M157.34 445a1.78 1.78.0 0 0 2.52-.12c0 1.16-.53 2.37-.1 3.36l-1.27.4C158.14 447.15 156.15 446.5 157.34 445z" fill="#cc4b42"/><path d="M146.83 469.47a1.79 1.79.0 0 0 2.52-.12c0 1.16-.54 2.37-.1 3.36l-1.27.4C147.63 471.59 145.64 470.94 146.83 469.47z" fill="#cc4b42"/><path d="M175.66 414.4a.64.64.0 0 0-.29.88c-.43-.13-.8-.44-1.22-.39v-.48C174.77 414.45 175.28 413.83 175.66 414.4z" fill="#cc4b42"/><path d="M180.11 441a.65.65.0 0 0-.29.89c-.43-.13-.81-.44-1.22-.4v-.48C179.22 441 179.72 440.39 180.11 441z" fill="#cc4b42"/><path d="M192.66 375a.64.64.0 0 0-.29.88c-.43-.13-.8-.44-1.22-.39v-.48C191.77 375 192.28 374.38 192.66 375z" fill="#cc4b42"/><path d="M204.74 644c-2.67-15.35-21.91-26.16-37.46-17.25-5.22 3-8.2 8.48-9.61 16a.72.72.0 0 1-1.41.0c-1.41-7.5-4.39-13-9.61-16-15.55-8.91-34.79 1.9-37.46 17.25-5 28.69 42.08 66.85 47.76 68.47h0C162.66 710.89 209.73 672.73 204.74 644z" fill="#0e0e0e"/><path d="M930.36 642.71c-.82-153.18-22-168-61-243.46-16.84-32.6-36.16-67-50.4-101.21C807 269.42 809.23 92.46 811.1 37.88c-9.55-.1-17.36-.35-25.31-.58v0h-.56-.56v0c-8 .07-15.77.15-25.31.0.71 54.61-.85 231.58-13.38 259.94-15 33.88-33.72 63.69-51.24 95.92-40.57 74.64-62.43 79.21-71.33 249.71-6.6 126.54-3.75 365.87-3.36 406.61a10.41 10.41.0 0 0 6.39 9.5c63.24 26.84 226.84 28.44 298 1.91a10 10 0 0 0 6.51-9.37C931.14 1010.94 931.09 778.84 930.36 642.71z" fill="#0e0e0e"/><path d="M879.93 648.57A11.63 11.63.0 0 1 892 660.22c-.14 88.95 3.22 264.39.38 268.69S729.19 921.37 655 924c-.94.0 2.57-210.18 4.41-265.27a11.62 11.62.0 0 1 11.86-11.23C708.56 648.26 827.47 650.46 879.93 648.57z" fill="#cc4b42"/><rect x="780.93" y="9.57" width="7.83" height="56.16" rx="1.61" transform="translate(747.2 822.5) rotate(-90)" fill="#0e0e0e"/><path d="M94.58 309.86c-2.12-.77-4.83-1.63-6 1-.55 1.26-.94 3.14-.25 4.42a3.94 3.94.0 0 0 1.86 1.63 23.67 23.67.0 0 0 4.24 1.22c2.18.54 4.63.33 5.64-1.88C101.83 312.51 97.72 311 94.58 309.86z" fill="#ef7d5e"/><path d="M91.24 306.42a2.8 2.8.0 0 0 .64.85 7 7 0 0 0 2.51 1.25c2.73.93 8 3.37 9.84-.4 3-5.44-5.93-7.22-9.42-7.89-1.39-.27-1.9.21-2.77 1.19A4.92 4.92.0 0 0 91.24 306.42z" fill="#ef7d5e"/><path d="M94.44 295.93A2 2 0 0 0 96 298.51c1.62.43 3.15 1 4.71 1.49 1.75.56 3.67.36 4.69-1.42s.22-3.28-1.48-4.15a21 21 0 0 0-3.25-1.35c-1.16-.37-2.69-1.32-4-.85S94.62 294.55 94.44 295.93z" fill="#ef7d5e"/><path d="M96.9 288.76a1.66 1.66.0 0 0 .15.55c.79 1.52 3.11 1.87 4.61 2.12 1.87.31 3.8.94 5.34-.42a2.74 2.74.0 0 0 1-1.79c.19-2.68-4.61-3.48-6.44-4.19a3.83 3.83.0 0 0-1.71-.37C98.49 284.79 96.78 287.22 96.9 288.76z" fill="#ef7d5e"/><path d="M806.24 171.1c2.25-.09 5.09-.32 5.14-3.21.0-1.37-.32-3.26-1.44-4.19a4 4 0 0 0-2.34-.8 24 24 0 0 0-4.38.47c-2.23.32-4.42 1.45-4.52 3.87C798.53 171.39 802.9 171.23 806.24 171.1z" fill="#ef7d5e"/><path d="M810.63 173a2.78 2.78.0 0 0-.91-.54 6.93 6.93.0 0 0-2.8-.21c-2.88.17-8.65-.11-9 4.09-.68 6.15 8.21 4.44 11.7 3.75 1.39-.28 1.69-.92 2.12-2.15A4.93 4.93.0 0 0 810.63 173z" fill="#ef7d5e"/><path d="M811.64 183.94c-.34-1.28-1.06-2-2.41-1.8-1.66.21-3.28.28-4.92.4-1.83.14-3.54 1.05-3.81 3.09s1 3.11 2.94 3.28a21.77 21.77.0 0 0 3.52.0c1.21-.1 3 .2 4-.7S812 185.29 811.64 183.94z" fill="#ef7d5e"/><path d="M812.06 191.52a1.45 1.45.0 0 0-.34-.46c-1.31-1.11-3.59-.55-5.08-.22-1.84.42-3.87.56-4.78 2.41a2.79 2.79.0 0 0-.22 2c.83 2.56 5.58 1.48 7.54 1.45a3.75 3.75.0 0 0 1.73-.31C812.09 195.79 812.76 192.9 812.06 191.52z" fill="#ef7d5e"/><path d="M781.15 775.14c2.87-2.35-.78-6.79-3.64-4.44S778.29 777.49 781.15 775.14z" fill="#cc4b42"/><path d="M840.05 844.41c3.6-3-1-8.54-4.58-5.58S836.45 847.36 840.05 844.41z" fill="#cc4b42"/><path d="M805.66 858.59a2.19 2.19.0 0 0 .49-3c1.39.15 2.71.92 4 .51l.16 1.56C808.4 857.88 807.12 860.19 805.66 858.59z" fill="#cc4b42"/><path d="M782.21 815.4a1.69 1.69.0 0 0 1.88 1.45c-.66.85-1.72 1.42-2 2.41l-1.13-.48C781.59 817.46 780.52 815.75 782.21 815.4z" fill="#cc4b42"/><path d="M781.22 865.9c-.33-.59-.41-1.33-.91-1.7l.54-.55c.61.65 1.82.42 1.63 1.49A1 1 0 0 0 781.22 865.9z" fill="#cc4b42"/><path d="M795.82 907.18c-.32-.58-.4-1.33-.9-1.69l.54-.55c.61.65 1.82.42 1.62 1.48A1.06 1.06.0 0 0 795.82 907.18z" fill="#cc4b42"/><path d="M770.73 874.65c-1.35-.4-.21-1.67-.51-2.77l1-.3c0 .81.84 1.34 1.26 2.06A1.55 1.55.0 0 0 770.73 874.65z" fill="#cc4b42"/><path d="M752.56 833.08a1.54 1.54.0 0 0 .35-2.14c1 .1 1.92.64 2.84.35l.12 1.12C754.51 832.58 753.59 834.23 752.56 833.08z" fill="#cc4b42"/><path d="M810.79 880.88a1.05 1.05.0 0 0 1.16.9c-.41.52-1.06.87-1.22 1.48L810 883C810.4 882.15 809.74 881.09 810.79 880.88z" fill="#cc4b42"/><path d="M765.35 846.54a2.45 2.45.0 0 0 3.34-1c.38 1.57.1 3.38 1 4.54l-1.56 1C767.16 849.14 764.24 848.93 765.35 846.54z" fill="#cc4b42"/><path d="M804.94 782.5a.7.7.0 0 0 .77.6c-.27.34-.71.58-.81 1l-.46-.19C804.68 783.34 804.24 782.64 804.94 782.5z" fill="#cc4b42"/><path d="M790.34 836.19a.7.7.0 0 0 .77.6c-.27.35-.71.58-.8 1l-.47-.2C790.09 837 789.65 836.34 790.34 836.19z" fill="#cc4b42"/><path d="M802.12 762.73a.69.69.0 0 0 .77.59c-.27.35-.71.59-.8 1l-.47-.19C801.86 763.57 801.43 762.87 802.12 762.73z" fill="#cc4b42"/><path d="M805 795.4a.7.7.0 0 0 .77.6c-.27.34-.71.58-.81 1l-.47-.19C804.76 796.24 804.32 795.54 805 795.4z" fill="#cc4b42"/><path d="M780.22 786.07a.7.7.0 0 0 .77.6c-.27.34-.71.58-.8 1l-.47-.2C780 786.91 779.53 786.22 780.22 786.07z" fill="#cc4b42"/><path d="M821.29 795.82c-.14-.24-.17-.55-.37-.7l.22-.22c.25.27.75.17.67.61A.43.43.0 0 0 821.29 795.82z" fill="#cc4b42"/><path d="M772.22 761.19c-.13-.24-.16-.54-.37-.69l.22-.23c.25.27.75.17.67.61A.43.43.0 0 0 772.22 761.19z" fill="#cc4b42"/><path d="M791.13 778a.63.63.0 0 0 .14-.88c.41.0.79.27 1.17.14v.46C791.93 777.76 791.55 778.44 791.13 778z" fill="#cc4b42"/><path d="M753.55 877.4a.63.63.0 0 0 .14-.88c.4.0.79.27 1.17.15v.46C754.35 877.2 754 877.87 753.55 877.4z" fill="#cc4b42"/><path d="M791.65 763a.62.62.0 0 0 .15-.88c.4.0.79.26 1.16.14v.46C792.46 762.77 792.08 763.45 791.65 763z" fill="#cc4b42"/><path d="M764.31 777.63a.62.62.0 0 0 .15-.88c.4.0.79.27 1.16.15v.46C765.12 777.43 764.74 778.1 764.31 777.63z" fill="#cc4b42"/><path d="M796.38 783.49a1 1 0 0 0 1.37-.41c.15.64.0 1.39.41 1.86l-.63.4C797.12 784.56 795.92 784.47 796.38 783.49z" fill="#cc4b42"/><path d="M740.18 862a1.34 1.34.0 0 0 .87-1.68c.75.45 1.34 1.24 2.14 1.33l-.21 1C741.86 862.23 740.69 863.28 740.18 862z" fill="#cc4b42"/><path d="M727.13 838.57a.48.48.0 0 0 .47.52c-.24.24-.59.36-.71.65l-.31-.19C726.84 839.17 726.62 838.61 727.13 838.57z" fill="#cc4b42"/><path d="M789.93 555.68a2.21 2.21.0 0 0 2.88-1.09c.55 1.27.55 2.8 1.55 3.71l-1.27.93C791.92 557.7 789.27 557.74 789.93 555.68z" fill="#cc4b42"/><path d="M815.64 513.8a1.69 1.69.0 0 0-.32 2.34c-1.06-.15-2.08-.78-3.06-.49l-.16-1.23C813.55 514.28 814.49 512.5 815.64 513.8z" fill="#cc4b42"/><path d="M715.91 499.68a1.68 1.68.0 0 0-.32 2.35c-1.07-.15-2.09-.79-3.07-.5l-.15-1.22C713.82 500.16 714.76 498.39 715.91 499.68z" fill="#cc4b42"/><path d="M771.4 538.15c.34-.58 1-1 1-1.63l.75.18c-.26.86.55 1.8-.48 2.16A1 1 0 0 0 771.4 538.15z" fill="#cc4b42"/><path d="M742.92 571.42c.34-.58 1-1 1-1.63l.74.19c-.26.85.55 1.79-.47 2.15A1 1 0 0 0 742.92 571.42z" fill="#cc4b42"/><path d="M758.58 533.43c-.33-1.37 1.34-1 2.14-1.82l.76.72c-.67.45-.74 1.4-1.15 2.12A1.55 1.55.0 0 0 758.58 533.43z" fill="#cc4b42"/><path d="M785.52 496.93a1.54 1.54.0 0 0 2-.77c.41.91.4 2 1.11 2.64l-.9.66C786.93 498.37 785 498.4 785.52 496.93z" fill="#cc4b42"/><path d="M780.25 514.74a2.44 2.44.0 0 0 2.53 2.39c-1.17 1.11-2.88 1.77-3.42 3.15l-1.63-.86C778.9 517.6 777.62 515 780.25 514.74z" fill="#cc4b42"/><path d="M801.69 531.22a.69.69.0 0 0-.13 1c-.44-.06-.86-.32-1.26-.2l-.06-.5C800.83 531.42 801.22 530.69 801.69 531.22z" fill="#cc4b42"/><path d="M747.61 519.92a.65.65.0 0 0 .84-.32c.16.37.16.82.45 1.08l-.37.27C748.19 520.51 747.42 520.52 747.61 519.92z" fill="#cc4b42"/><path d="M681.16 600.94a1.33 1.33.0 0 0 1.89-.09c0 .88-.4 1.78-.07 2.52l-1 .31C681.76 602.54 680.27 602.05 681.16 600.94z" fill="#cc4b42"/><path d="M768.07 477.64a.5.5.0 0 0-.22.67c-.32-.1-.6-.33-.92-.3v-.36C767.4 477.69 767.78 477.22 768.07 477.64z" fill="#cc4b42"/><path d="M821.18 1052.07c5.74 2.16 9.09-6.73 3.36-8.89S815.46 1049.91 821.18 1052.07z" fill="#cc4b42"/><path d="M834.78 563.08c5.73 2.16 9.08-6.73 3.35-8.89S829.05 560.92 834.78 563.08z" fill="#cc4b42"/><path d="M797.87 439.63a1.54 1.54.0 0 0 2-.77c.41.91.4 2 1.11 2.64l-.9.66C799.28 441.08 797.39 441.1 797.87 439.63z" fill="#cc4b42"/><path d="M810.23 419.28a1.54 1.54.0 0 0 2-.77c.41.91.4 2 1.12 2.64l-.91.66C811.64 420.73 809.75 420.75 810.23 419.28z" fill="#cc4b42"/><path d="M823.31 482.49a1.54 1.54.0 0 0 2-.76c.4.9.4 2 1.11 2.64l-.91.66C824.72 483.94 822.83 484 823.31 482.49z" fill="#cc4b42"/><path d="M792.6 457.44a2.44 2.44.0 0 0 2.53 2.39c-1.16 1.11-2.88 1.77-3.42 3.15l-1.63-.86C791.25 460.3 790 457.67 792.6 457.44z" fill="#cc4b42"/><path d="M766.68 443.33a1.32 1.32.0 0 0 1.88-.1c0 .88-.4 1.78-.07 2.52l-1 .31C767.28 444.92 765.78 444.43 766.68 443.33z" fill="#cc4b42"/><path d="M758.79 461.66a1.34 1.34.0 0 0 1.89-.09c0 .87-.4 1.77-.08 2.52l-1 .3C759.39 463.25 757.9 462.76 758.79 461.66z" fill="#cc4b42"/><path d="M780.42 420.35a.48.48.0 0 0-.22.66c-.32-.1-.6-.33-.92-.29v-.36C779.75 420.39 780.13 419.92 780.42 420.35z" fill="#cc4b42"/><path d="M783.75 440.27a.48.48.0 0 0-.21.67c-.33-.1-.61-.33-.92-.3v-.36C783.09 440.31 783.47 439.84 783.75 440.27z" fill="#cc4b42"/><path d="M793.17 390.76a.47.47.0 0 0-.21.66c-.33-.09-.61-.33-.92-.29v-.36C792.5 390.8 792.88 390.33 793.17 390.76z" fill="#cc4b42"/><path d="M717.1 1033.05a1.58 1.58.0 0 0 1.69 1.44c-.62.8-1.59 1.33-1.82 2.28l-1-.49C716.51 1035 715.56 1033.34 717.1 1033.05z" fill="#cc4b42"/><path d="M752.62 1034.83a1.23 1.23.0 0 0-1.6.61c-.27-.72-.23-1.59-.75-2.12l.73-.52C751.59 1033.67 753 1033.65 752.62 1034.83z" fill="#cc4b42"/><path d="M716.92 952.5a1.7 1.7.0 0 0-2.22.84c-.38-1-.31-2.2-1-2.93l1-.72C715.49 950.9 717.5 950.87 716.92 952.5z" fill="#cc4b42"/><path d="M721.79 1015.19c.49.0 1 .25 1.39.08l.14.54c-.63.13-1 1-1.53.44A.75.75.0 0 0 721.79 1015.19z" fill="#cc4b42"/><path d="M666.94 1010.62c.67.0 1.34.35 1.91.11l.2.74c-.88.18-1.31 1.34-2.12.62A1.05 1.05.0 0 0 666.94 1010.62z" fill="#cc4b42"/><path d="M720.34 1005.41c.75-.68 1.11.5 1.9.73l-.2.73c-.52-.27-1.14.0-1.74.0A1.14 1.14.0 0 0 720.34 1005.41z" fill="#cc4b42"/><path d="M752.87 1009.84a1.12 1.12.0 0 0 1.2 1c-.44.57-1.13.94-1.29 1.62l-.74-.35C752.44 1011.24 751.77 1010.05 752.87 1009.84z" fill="#cc4b42"/><path d="M893.55 734a1.13 1.13.0 0 0 1.49-.52c.27.66.25 1.44.76 1.92l-.67.47C894.55 735.1 893.18 735.08 893.55 734z" fill="#cc4b42"/><path d="M739.73 1012.68a1.77 1.77.0 0 0-.64 2.44c-1.11-.36-2.12-1.21-3.19-1.08v-1.33C737.45 1012.82 738.67 1011.09 739.73 1012.68z" fill="#cc4b42"/><path d="M736.71 1032a.51.51.0 0 0-.66.25c-.11-.3-.09-.65-.31-.87l.3-.21C736.29 1031.54 736.88 1031.54 736.71 1032z" fill="#cc4b42"/><path d="M725.11 993.75a.45.45.0 0 0 .49.42c-.18.24-.46.39-.53.67l-.3-.14C724.94 994.33 724.66 993.84 725.11 993.75z" fill="#cc4b42"/><path d="M761.28 987.69a.48.48.0 0 0-.69.13c-.07-.33.0-.69-.18-1l.32-.16C760.92 987.12 761.51 987.23 761.28 987.69z" fill="#cc4b42"/><path d="M808.93 995.6a1.55 1.55.0 0 0 1.65 1.42c-.61.78-1.56 1.3-1.78 2.24l-1-.48C808.34 997.53 807.41 995.88 808.93 995.6z" fill="#cc4b42"/><path d="M832.71 996.68a1.55 1.55.0 0 0 1.65 1.42c-.6.79-1.55 1.3-1.78 2.24l-1-.48C832.12 998.61 831.19 997 832.71 996.68z" fill="#cc4b42"/><path d="M775.16 1028.83a1.12 1.12.0 0 0 1.2 1c-.44.57-1.13.94-1.29 1.62l-.74-.35C774.74 1030.23 774.06 1029 775.16 1028.83z" fill="#cc4b42"/><path d="M685.71 995.46a2.46 2.46.0 0 0-.89 3.37c-1.53-.48-2.93-1.67-4.4-1.49v-1.84C682.55 995.65 684.25 993.27 685.71 995.46z" fill="#cc4b42"/><path d="M790.72 970a1.34 1.34.0 0 0 1 1.62c-.78.4-1.76.5-2.25 1.14l-.72-.69C789.61 971.29 789.32 969.75 790.72 970z" fill="#cc4b42"/><path d="M770.85 971.88a1.33 1.33.0 0 0 1 1.61c-.78.41-1.75.51-2.25 1.15l-.72-.69C769.74 973.17 769.45 971.63 770.85 971.88z" fill="#cc4b42"/><path d="M817.48 971a.48.48.0 0 0-.69.12c-.07-.33.0-.68-.18-.94l.32-.16C817.12 970.47 817.71 970.58 817.48 971z" fill="#cc4b42"/><path d="M801.59 983.52a.47.47.0 0 0-.68.13c-.08-.33.0-.69-.19-.95l.33-.15C801.24 983 801.83 983.06 801.59 983.52z" fill="#cc4b42"/><path d="M849.55 968a.47.47.0 0 0-.68.13c-.07-.33.0-.69-.18-.95l.32-.16C849.2 967.46 849.79 967.57 849.55 968z" fill="#cc4b42"/><path d="M476.07 624.47a1.64 1.64.0 0 0-2.61-2A1.64 1.64.0 0 0 476.07 624.47z" fill="#cc4b42"/><path d="M518 655.34c1.62-2.13-1.67-4.63-3.28-2.51S516.41 657.45 518 655.34z" fill="#cc4b42"/><path d="M500.72 667.77a1.26 1.26.0 0 0-.13-1.76c.8-.09 1.63.16 2.3-.24l.3.85C502.15 667 501.74 668.47 500.72 667.77z" fill="#cc4b42"/><path d="M482 646.78a1 1 0 0 0 1.24.56c-.26.56-.77 1-.78 1.6l-.69-.12C481.89 648 481.07 647.2 482 646.78z" fill="#cc4b42"/><path d="M488.05 675.06c-.26-.28-.39-.69-.72-.83l.22-.38c.43.29 1.08.0 1.11.62A.61.61.0 0 0 488.05 675.06z" fill="#cc4b42"/><path d="M501.63 696.15c-.26-.28-.4-.69-.73-.82l.23-.38c.43.28 1.07.0 1.1.61A.6.6.0 0 0 501.63 696.15z" fill="#cc4b42"/><path d="M483.36 681.32c-.8-.05-.34-.91-.65-1.48l.52-.3c.14.45.65.64 1 1A.9.9.0 0 0 483.36 681.32z" fill="#cc4b42"/><path d="M423.34 855.59a.87.87.0 0 0-.09-1.24c.57-.07 1.16.11 1.63-.18l.22.61C424.37 855.06 424.07 856.1 423.34 855.59z" fill="#cc4b42"/><path d="M506.51 679.52a.61.61.0 0 0 .77.35c-.16.34-.48.62-.49 1l-.43-.08C506.46 680.28 506 679.78 506.51 679.52z" fill="#cc4b42"/><path d="M476.66 666.35a1.39 1.39.0 0 0 1.73-1c.42.82.5 1.87 1.17 2.4l-.74.75C478 667.57 476.36 667.83 476.66 666.35z" fill="#cc4b42"/><path d="M490.3 625.44a.4.4.0 0 0 .51.23c-.1.23-.32.42-.32.66l-.28-.05C490.27 626 489.94 625.62 490.3 625.44z" fill="#cc4b42"/><path d="M489.23 657.3a.4.4.0 0 0 .51.23c-.11.23-.32.42-.32.66l-.29-.05C489.2 657.8 488.86 657.47 489.23 657.3z" fill="#cc4b42"/><path d="M486.13 614.79a.4.4.0 0 0 .51.23c-.11.23-.32.42-.32.66h-.29C486.1 615.3 485.76 615 486.13 614.79z" fill="#cc4b42"/><path d="M492.05 632.62a.39.39.0 0 0 .5.24c-.1.22-.31.41-.32.65h-.28C492 633.13 491.68 632.8 492.05 632.62z" fill="#cc4b42"/><path d="M477 630.69a.39.39.0 0 0 .5.23c-.1.23-.32.42-.32.66l-.28-.05C477 631.19 476.63 630.86 477 630.69z" fill="#cc4b42"/><path d="M501.17 630.72c-.1-.12-.16-.29-.3-.34l.1-.16c.17.12.44.0.45.26A.24.24.0 0 0 501.17 630.72z" fill="#cc4b42"/><path d="M469.26 617.87c-.1-.12-.16-.28-.3-.34l.1-.15c.17.11.44.0.45.25A.25.25.0 0 0 469.26 617.87z" fill="#cc4b42"/><path d="M482 624.74a.36.36.0 0 0 0-.51c.23.0.48.0.67-.08l.09.25C482.43 624.52 482.31 624.94 482 624.74z" fill="#cc4b42"/><path d="M474.14 685.11a.36.36.0 0 0 0-.51c.23.0.47.0.67-.07l.08.25C474.56 684.89 474.44 685.32 474.14 685.11z" fill="#cc4b42"/><path d="M480.33 616.31a.36.36.0 0 0 0-.51c.24.0.48.0.67-.08l.09.25C480.75 616.09 480.63 616.51 480.33 616.31z" fill="#cc4b42"/><path d="M467 628.08a.36.36.0 0 0 0-.51c.23.0.48.0.67-.08l.09.25C467.44 627.86 467.31 628.28 467 628.08z" fill="#cc4b42"/><path d="M485.66 627.12a.57.57.0 0 0 .71-.41c.17.34.21.77.48 1l-.3.3C486.21 627.62 485.54 627.73 485.66 627.12z" fill="#cc4b42"/><path d="M464.66 678.26a.76.76.0 0 0 .26-1c.48.15.91.51 1.37.45v.58C465.63 678.19 465.12 678.93 464.66 678.26z" fill="#cc4b42"/><path d="M454.31 666.94a.27.27.0 0 0 .33.23c-.11.16-.28.28-.32.46l-.19-.07C454.22 667.32 454 667 454.31 666.94z" fill="#cc4b42"/><path d="M452.09 501a1.26 1.26.0 0 0 1.46-1c.48.64.67 1.49 1.35 1.87l-.58.68C453.46 501.83 452 502.2 452.09 501z" fill="#cc4b42"/><path d="M460.91 474.24a1 1 0 0 0 .13 1.35c-.61.05-1.27-.17-1.77.12l-.25-.66C459.81 474.78 460.1 473.67 460.91 474.24z" fill="#cc4b42"/><path d="M403.45 479.49a1 1 0 0 0 .13 1.35c-.61.06-1.26-.16-1.77.13l-.25-.66C402.35 480 402.64 478.92 403.45 479.49z" fill="#cc4b42"/><path d="M439.45 493.63c.11-.36.4-.69.35-1h.44c0 .51.54.93.0 1.26A.6.6.0 0 0 439.45 493.63z" fill="#cc4b42"/><path d="M428 515.93c.12-.37.4-.69.35-1h.44c0 .51.55.93.0 1.27A.59.59.0 0 0 428 515.93z" fill="#cc4b42"/><path d="M431.68 492.69c-.36-.72.62-.74 1-1.3l.52.31c-.32.34-.23.87-.37 1.33A.89.89.0 0 0 431.68 492.69z" fill="#cc4b42"/><path d="M441.9 468.8a.89.89.0 0 0 1-.7c.34.45.48 1.06 1 1.33l-.42.49C442.87 469.42 441.82 469.68 441.9 468.8z" fill="#cc4b42"/><path d="M441.3 479.42a1.41 1.41.0 0 0 1.73 1c-.5.77-1.37 1.36-1.5 2.21l-1-.27C440.93 481.19 439.87 479.89 441.3 479.42z" fill="#cc4b42"/><path d="M455.42 485.79a.39.39.0 0 0 .06.55c-.25.0-.52-.07-.73.05l-.1-.27C455 486 455.09 485.55 455.42 485.79z" fill="#cc4b42"/><path d="M423.79 486.6a.36.36.0 0 0 .42-.28c.14.18.2.43.4.54l-.17.2C424.19 486.85 423.76 487 423.79 486.6z" fill="#cc4b42"/><path d="M397.41 540.52a.77.77.0 0 0 1-.3c.11.49.0 1 .29 1.41l-.49.3C398 541.33 397.06 541.25 397.41 540.52z" fill="#cc4b42"/><path d="M429.63 460.34a.28.28.0 0 0 0 .4c-.2.0-.38-.1-.55.0v-.2C429.26 460.45 429.41 460.14 429.63 460.34z" fill="#cc4b42"/><path d="M534.84 773.59c3.48.45 4.17-5 .69-5.4S531.36 773.14 534.84 773.59z" fill="#cc4b42"/><path d="M364.86 651.64c3.48.45 4.18-4.95.7-5.4S361.38 651.19 364.86 651.64z" fill="#cc4b42"/><path d="M441.24 435.23a.88.88.0 0 0 1-.7c.35.46.49 1.06 1 1.33l-.42.49C442.22 435.85 441.17 436.11 441.24 435.23z" fill="#cc4b42"/><path d="M445.45 422.26a.89.89.0 0 0 1-.7c.34.45.48 1.06 1 1.33l-.41.49C446.43 422.88 445.38 423.14 445.45 422.26z" fill="#cc4b42"/><path d="M461.07 455.78a.89.89.0 0 0 1-.7c.34.45.48 1.06 1 1.33l-.42.48C462 456.4 461 456.66 461.07 455.78z" fill="#cc4b42"/><path d="M440.65 445.85a1.39 1.39.0 0 0 1.72 1c-.5.77-1.37 1.37-1.49 2.21l-1-.27C440.27 447.62 439.21 446.32 440.65 445.85z" fill="#cc4b42"/><path d="M424.34 441.39a.75.75.0 0 0 1-.3c.11.49.0 1.05.29 1.42l-.49.29C424.88 442.2 424 442.13 424.34 441.39z" fill="#cc4b42"/><path d="M422.35 452.65a.76.76.0 0 0 1-.3c.11.49.0 1 .3 1.42l-.5.29C422.9 453.46 422 453.38 422.35 452.65z" fill="#cc4b42"/><path d="M429 426.77a.28.28.0 0 0 0 .4c-.19.0-.38-.1-.55.0v-.2C428.61 426.89 428.76 426.57 429 426.77z" fill="#cc4b42"/><path d="M433.46 437.44a.28.28.0 0 0 0 .4c-.19.0-.38-.1-.55.0v-.2C433.09 437.55 433.24 437.24 433.46 437.44z" fill="#cc4b42"/><path d="M569.23 316.76a1.25 1.25.0 0 0 1.45-1c.48.64.68 1.49 1.36 1.87l-.59.68C570.6 317.62 569.13 318 569.23 316.76z" fill="#cc4b42"/><path d="M578.05 290a1 1 0 0 0 .13 1.35c-.62.05-1.27-.17-1.78.12l-.25-.66C576.94 290.57 577.24 289.46 578.05 290z" fill="#cc4b42"/><path d="M556.58 309.42c.12-.36.4-.69.36-1h.44c0 .51.54.93.0 1.26A.62.62.0 0 0 556.58 309.42z" fill="#cc4b42"/><path d="M545.09 331.72c.11-.37.39-.69.35-1h.44c0 .51.54.93.0 1.27A.59.59.0 0 0 545.09 331.72z" fill="#cc4b42"/><path d="M548.82 308.48c-.37-.72.61-.74.95-1.3l.52.31c-.32.34-.23.87-.36 1.33A.89.89.0 0 0 548.82 308.48z" fill="#cc4b42"/><path d="M559 284.59a.89.89.0 0 0 1-.7c.34.45.48 1.06 1 1.33l-.42.49C560 285.21 559 285.47 559 284.59z" fill="#cc4b42"/><path d="M558.44 295.21a1.4 1.4.0 0 0 1.72 1c-.5.77-1.37 1.37-1.49 2.21l-1-.27C558.06 297 557 295.68 558.44 295.21z" fill="#cc4b42"/><path d="M572.56 301.58a.39.39.0 0 0 .05.55c-.25.0-.52-.07-.73.05l-.1-.27C572.11 301.8 572.23 301.34 572.56 301.58z" fill="#cc4b42"/><path d="M540.93 302.39a.36.36.0 0 0 .42-.28c.14.18.2.43.4.54l-.18.2C541.33 302.64 540.89 302.75 540.93 302.39z" fill="#cc4b42"/><path d="M546.77 276.13a.28.28.0 0 0 0 .4c-.19.0-.38-.1-.55.0v-.2C546.4 276.24 546.55 275.93 546.77 276.13z" fill="#cc4b42"/><path d="M558.38 251a.88.88.0 0 0 1-.7c.34.46.48 1.06 1 1.33l-.42.49C559.35 251.64 558.3 251.9 558.38 251z" fill="#cc4b42"/><path d="M562.59 238.05a.88.88.0 0 0 1-.7c.35.45.49 1.06 1 1.33l-.42.49C563.57 238.67 562.52 238.93 562.59 238.05z" fill="#cc4b42"/><path d="M578.2 271.57a.9.9.0 0 0 1-.7c.34.45.48 1.06 1 1.33l-.42.48C579.18 272.19 578.13 272.45 578.2 271.57z" fill="#cc4b42"/><path d="M557.78 261.64a1.4 1.4.0 0 0 1.73 1c-.5.77-1.37 1.37-1.5 2.21l-1-.27C557.41 263.41 556.35 262.11 557.78 261.64z" fill="#cc4b42"/><path d="M541.47 257.18a.75.75.0 0 0 1-.3c.11.49.0 1.05.29 1.42l-.49.29C542 258 541.12 257.92 541.47 257.18z" fill="#cc4b42"/><path d="M539.49 268.44a.76.76.0 0 0 1-.3c.11.49.0 1.05.29 1.42l-.49.29C540 269.25 539.14 269.17 539.49 268.44z" fill="#cc4b42"/><path d="M546.11 242.56a.28.28.0 0 0 0 .4c-.2.0-.38-.1-.55.0v-.2C545.74 242.68 545.89 242.36 546.11 242.56z" fill="#cc4b42"/><path d="M550.59 253.23a.28.28.0 0 0 0 .4c-.19.0-.38-.1-.55.0v-.2C550.23 253.35 550.38 253 550.59 253.23z" fill="#cc4b42"/><path d="M432.19 408.6a.28.28.0 0 0 0 .4c-.2.0-.38-.1-.55.0v-.21C431.82 408.71 432 408.4 432.19 408.6z" fill="#cc4b42"/><path d="M407.7 870.33a.9.9.0 0 0 1.13.58c-.24.53-.71 1-.71 1.51l-.64-.13C407.63 871.5 406.88 870.7 407.7 870.33z" fill="#cc4b42"/><path d="M427.74 866.65a.69.69.0 0 0-.81.55c-.25-.37-.34-.86-.7-1.08l.33-.39C427 866.14 427.82 865.94 427.74 866.65z" fill="#cc4b42"/><path d="M397 825.45a1 1 0 0 0-1.12.76c-.35-.51-.47-1.19-1-1.5l.47-.53C396 824.74 397.11 824.46 397 825.45z" fill="#cc4b42"/><path d="M408 859.76c.27-.06.57.0.78-.14l.15.28c-.34.16-.4.67-.8.45A.42.42.0 0 0 408 859.76z" fill="#cc4b42"/><path d="M376.78 864.43c.38-.08.8.0 1.09-.19l.2.39c-.46.21-.55.92-1.1.62A.59.59.0 0 0 376.78 864.43z" fill="#cc4b42"/><path d="M405.87 854.5c.33-.48.68.13 1.15.15v.44c-.32-.09-.63.16-1 .23A.64.64.0 0 0 405.87 854.5z" fill="#cc4b42"/><path d="M424.59 852.69a.64.64.0 0 0 .8.41c-.17.38-.5.68-.51 1.07l-.45-.09C424.53 853.52 424 852.94 424.59 852.69z" fill="#cc4b42"/><path d="M533.33 586.76a.64.64.0 0 0 .76-.49c.24.34.33.78.67 1l-.31.34C534 587.22 533.26 587.4 533.33 586.76z" fill="#cc4b42"/><path d="M417.64 856a1 1 0 0 0 0 1.44c-.66-.05-1.34-.4-1.92-.18l-.18-.74C416.38 856.37 416.84 855.25 417.64 856z" fill="#cc4b42"/><path d="M379.14 721.94a1 1 0 0 0 0 1.44c-.67.0-1.35-.4-1.92-.18l-.19-.74C377.89 722.31 378.34 721.19 379.14 721.94z" fill="#cc4b42"/><path d="M383.37 983.06a1 1 0 0 0 0 1.44c-.67.0-1.34-.4-1.92-.18l-.19-.74C382.11 983.43 382.57 982.31 383.37 983.06z" fill="#cc4b42"/><path d="M418.5 867.18a.29.29.0 0 0-.34.22c-.1-.15-.13-.35-.28-.44l.14-.16C418.2 867 418.53 866.88 418.5 867.18z" fill="#cc4b42"/><path d="M407 847.37a.26.26.0 0 0 .32.17c-.07.15-.2.28-.2.44h-.19C407 847.71 406.76 847.48 407 847.37z" fill="#cc4b42"/><path d="M426.36 839.23a.28.28.0 0 0-.37.16c-.08-.17-.09-.38-.22-.5l.16-.13C426.09 839 426.43 838.94 426.36 839.23z" fill="#cc4b42"/><path d="M520.57 743.72a.89.89.0 0 0 1.11.57c-.23.52-.7.93-.7 1.49l-.63-.14C520.5 744.87 519.76 744.08 520.57 743.72z" fill="#cc4b42"/><path d="M534 741.19a.9.9.0 0 0 1.11.58c-.23.51-.7.93-.7 1.48l-.63-.13C533.9 742.35 533.16 741.55 534 741.19z" fill="#cc4b42"/><path d="M506.12 766.69a.64.64.0 0 0 .8.41c-.17.38-.5.68-.5 1.08l-.46-.1C506.07 767.52 505.54 767 506.12 766.69z" fill="#cc4b42"/><path d="M385.26 853.51a1.4 1.4.0 0 0-.06 2c-.92-.07-1.85-.54-2.65-.25l-.25-1C383.52 854 384.15 852.48 385.26 853.51z" fill="#cc4b42"/><path d="M507.05 731.85a.77.77.0 0 0 .76.77c-.37.32-.91.51-1.1.93l-.49-.29C506.6 732.71 506.24 731.89 507.05 731.85z" fill="#cc4b42"/><path d="M429.62 829.16a.77.77.0 0 0 .76.77c-.38.32-.91.51-1.1.93l-.5-.29C429.17 830 428.8 829.2 429.62 829.16z" fill="#cc4b42"/><path d="M436.33 339.24a.89.89.0 0 0-.09-1.24c.56-.08 1.16.1 1.63-.18l.21.61C437.35 338.7 437.05 339.74 436.33 339.24z" fill="#cc4b42"/><path d="M420.69 354a.91.91.0 0 0 1.13.58c-.24.52-.72.95-.72 1.51l-.64-.14C420.61 355.15 419.87 354.34 420.69 354z" fill="#cc4b42"/><path d="M440.72 350.3a.7.7.0 0 0-.81.55c-.25-.37-.34-.86-.7-1.09l.34-.38C440 349.78 440.8 349.58 440.72 350.3z" fill="#cc4b42"/><path d="M384.41 308.08a1 1 0 0 0-1.13.76c-.34-.51-.46-1.19-1-1.5l.46-.53C383.4 307.37 384.52 307.09 384.41 308.08z" fill="#cc4b42"/><path d="M421 343.4c.28.0.58.0.79-.14l.15.29c-.34.15-.41.66-.8.45A.44.44.0 0 0 421 343.4z" fill="#cc4b42"/><path d="M389.77 348.07c.38-.07.8.0 1.08-.19l.21.39c-.47.22-.56.92-1.1.62A.6.6.0 0 0 389.77 348.07z" fill="#cc4b42"/><path d="M418.85 338.14c.33-.48.69.13 1.16.16v.43c-.33-.08-.64.16-1 .23A.65.65.0 0 0 418.85 338.14z" fill="#cc4b42"/><path d="M437.57 336.33a.65.65.0 0 0 .81.42c-.17.37-.51.67-.51 1.07l-.46-.1C437.52 337.17 437 336.59 437.57 336.33z" fill="#cc4b42"/><path d="M544.83 444.16a.63.63.0 0 0 .8.42c-.17.37-.51.67-.51 1.07l-.45-.09C544.77 445 544.24 444.42 544.83 444.16z" fill="#cc4b42"/><path d="M725.34 285a.65.65.0 0 0 .8.42c-.17.37-.5.67-.5 1.07l-.46-.1C725.29 285.8 724.75 285.22 725.34 285z" fill="#cc4b42"/><path d="M430.62 339.64a1 1 0 0 0 0 1.44c-.67.0-1.35-.39-1.92-.18l-.19-.74C429.37 340 429.82 338.9 430.62 339.64z" fill="#cc4b42"/><path d="M329.82 347.83a1 1 0 0 0 0 1.44c-.67.0-1.35-.39-1.92-.18l-.19-.74C328.57 348.21 329 347.08 329.82 347.83z" fill="#cc4b42"/><path d="M431.48 350.82a.29.29.0 0 0-.33.23c-.1-.15-.14-.35-.29-.45l.14-.16C431.18 350.61 431.52 350.53 431.48 350.82z" fill="#cc4b42"/><path d="M619.41 330.75a.28.28.0 0 0-.33.23c-.1-.15-.14-.35-.29-.45l.14-.16C619.11 330.54 619.45 330.46 619.41 330.75z" fill="#cc4b42"/><path d="M420 331a.25.25.0 0 0 .33.17c-.07.16-.21.28-.21.45h-.18C420 331.36 419.74 331.12 420 331z" fill="#cc4b42"/><path d="M439.35 322.88a.27.27.0 0 0-.37.16c-.08-.18-.09-.39-.23-.51l.16-.13C439.07 322.61 439.42 322.59 439.35 322.88z" fill="#cc4b42"/><path d="M398.24 337.15a1.41 1.41.0 0 0-.05 2c-.92-.07-1.86-.55-2.65-.25l-.26-1C396.5 337.68 397.14 336.12 398.24 337.15z" fill="#cc4b42"/><path d="M442.6 312.8a.76.76.0 0 0 .76.77c-.37.33-.91.51-1.1.93l-.49-.28C442.15 313.67 441.79 312.84 442.6 312.8z" fill="#cc4b42"/><path d="M481.57 249.47a.76.76.0 0 0 .76.77c-.37.33-.91.51-1.1.93l-.49-.28C481.12 250.34 480.76 249.51 481.57 249.47z" fill="#cc4b42"/><path d="M522.1 728.9a.27.27.0 0 0-.36.16c-.08-.17-.09-.38-.23-.5l.16-.13C521.83 728.63 522.18 728.61 522.1 728.9z" fill="#cc4b42"/><path d="M514.89 738a.27.27.0 0 0-.36.16c-.09-.17-.09-.38-.23-.5l.16-.13C514.62 737.68 515 737.67 514.89 738z" fill="#cc4b42"/><path d="M539.59 723a.27.27.0 0 0-.36.17c-.09-.18-.1-.39-.23-.51l.16-.13C539.32 722.73 539.66 722.72 539.59 723z" fill="#cc4b42"/><path d="M512.84 201.14c-1.71-3.31-5-6.07-8.75-6s-7.24 3.92-6.09 7.47l-1.09.66c-4.53 3-4.65 10.54-.56 14.13s11 2.89 14.74-1.06S515.34 206 512.84 201.14z" fill="#ef7d5e"/><path d="M452.77 194.9c2.39 8.62 12.86 10.12 17 2.16.73-1.4-1.26-2.66-2-1.26-3.14 6-11 5-12.8-1.57a1.16 1.16.0 1 0-2.22.67z" fill="#0e0e0e"/><path d="M467.21 200.15l2.22 1.93a1.13 1.13.0 0 0 1.63.0 1.33 1.33.0 0 0 0-1.76l-2.22-1.93a1.13 1.13.0 0 0-1.63.0 1.32 1.32.0 0 0 0 1.76z" fill="#0e0e0e"/><path d="M462.67 201.07c.19 1.17.38 2.35.56 3.52a1.16 1.16.0 0 0 1.42.87 1.3 1.3.0 0 0 .81-1.53c-.19-1.18-.37-2.35-.56-3.53a1.15 1.15.0 0 0-1.42-.86 1.29 1.29.0 0 0-.81 1.53z" fill="#0e0e0e"/><path d="M456.73 200.09a5 5 0 0 1-1 3.07c-1 1.22.67 3 1.63 1.76a7.73 7.73.0 0 0 1.69-4.83 1.16 1.16.0 1 0-2.31.0z" fill="#0e0e0e"/><path d="M454.38 196.82c-.83.65-1.78 1.07-2.61 1.72a1.34 1.34.0 0 0-.41 1.7 1.11 1.11.0 0 0 1.58.45c.83-.65 1.77-1.08 2.6-1.72a1.35 1.35.0 0 0 .42-1.71 1.12 1.12.0 0 0-1.58-.44z" fill="#0e0e0e"/><path d="M481.39 212.4a7 7 0 0 0 .47 4.17c1 2 3.37 2.94 5.59 3.05 6.38.3 10.7-7.81 5.08-11.86A6.9 6.9.0 0 0 481.39 212.4z" fill="#cc4b42"/><path d="M506 191.51a1.21 1.21.0 0 1 .05-.18c1.47-4.33 2.09-7.42 1.42-12.09a34.2 34.2.0 0 0-9.86-20 28.54 28.54.0 0 0-30.16-5.63c-11.31 4.75-13.17 12-12.22 21.56.8 7.88 16.71 22.49 39.15 26.94a1.64 1.64.0 0 0 1.52-.24c.62-.68-.19-1.71-.95-2.22-1.82-1.22-.6-2 .95-2.35 2.12-.44 2.4.55 3.75 1.88 2.75 2.71 6.52 4.28 10.41 3.34C507.49 199.66 504.78 195.35 506 191.51z" fill="#0e0e0e"/><path d="M456.61 187.85a30.73 30.73.0 0 1 12.9 1.62c1.66.58 2.38-2.06.73-2.63a32.54 32.54.0 0 0-13.63-1.71c-1.74.14-1.75 2.87.0 2.72z" fill="#0e0e0e"/><path d="M441.2 214.89c-1.23-1.16-2.07-2.07-3.43-1.27a2.13 2.13.0 0 0-.77 3.22c.43.59.87 1.17 1.32 1.75l-.06.09c-.4.6-1.17.7-1.5 1.34-1.28 2.42.93 3.77 4 2 2.35-1.37 2.9-1.83 3.26-2.69C444.46 218.16 442.94 216.53 441.2 214.89z" fill="#cc4b42"/></g></g></g></svg>