<svg xmlns="http://www.w3.org/2000/svg" width="1080" height="1080" viewBox="0 0 1080 1080"><g id="Слой_2" data-name="Слой 2"><g id="sweets15_411105436"><g id="sweets15_411105436-2" data-name="sweets15_411105436"><path d="M707.2 319.07h67.5v843.75H707.2z" transform="translate(-306.91 740.95) rotate(-45)" fill="#f6f0e5"/><circle cx="371.25" cy="371.25" r="320.62" fill="#d89670"/><path d="M690.79 218.76a352.63 352.63.0 0 0-69-98.09c-138.39-138.39-362.77-138.39-501.16.0s-138.39 362.77.0 501.16a352.63 352.63.0 0 0 98.09 69l7.8-5.81c48.9-26.47 79.24 14.23 118.56-25.09s-8.4-87 30.92-126.38 87 8.43 126.34-30.88-8.39-87.07 31-126.41 87.1 8.37 126.46-31S658.47 275.5 685 226.55z" fill="#a8d7e4"/><path d="M282.8 114.82 339.85 134.17 388.13 98.14 387.36 158.37 436.54 193.16 379.01 211.03 361.13 268.56 326.35 219.38 266.12 220.14 302.15 171.87 282.8 114.82z" fill="#fcea81"/><path d="M164.68 367.95 221.72 387.29 270 351.27 269.23 411.5 318.41 446.28 260.89 464.16 243.01 521.68 208.23 472.5 148 473.27 184.02 424.99 164.68 367.95z" fill="#e36861"/><path d="M1075.06 1003.9l-432-432a336.28 336.28.0 0 0 65.24-182.46 16.87 16.87.0 1 0-33.7-1.75A302.76 302.76.0 0 1 387.25 675a16.88 16.88.0 0 0 .86 33.73c.29.0.59.0.89.0a336.1 336.1.0 0 0 182.46-65.25l432 432a18 18 0 0 0 23.86.0l47.74-47.72a16.88 16.88.0 0 0 0-23.86zm-59.67 34.51L597.71 620.71a335.68 335.68.0 0 0 23.86-23.86l417.69 417.69z" fill="#0e0e0e"/><path d="M377.21 594.93c-2.2-22.75-2.79-36.27 10.59-49.66s26.89-12.74 49.61-10.58c22.94 2.21 51.45 5 76.73-20.3s22.55-53.82 20.34-76.74c-2.19-22.75-2.78-36.26 10.61-49.66s26.95-12.8 49.69-10.64c22.93 2.21 51.45 4.94 76.77-20.35 27-27 24.09-53 21.78-73.95-1.78-16.17-3.33-30.17 5.78-47.61l5-6.74a16.88 16.88.0 0 0 1.71-17.37A369.26 369.26.0 0 0 371.25.0C276.18.0 180.94 36.19 108.57 108.57c-144.76 144.75-144.76 380.28.0 525a369.35 369.35.0 0 0 102.76 72.25 16.82 16.82.0 0 0 17.34-1.7l6.77-5c17.42-9.1 31.4-7.53 47.54-5.73 20.93 2.35 47 5.22 73.9-21.72C382.18 646.37 379.42 617.83 377.21 594.93zm-33.6 3.23c2.2 22.74 2.79 36.25-10.59 49.63-15.46 15.48-27 14.17-46.3 12.05-18.36-2.06-41.18-4.57-68.37 10.12-.53.29-1 .61-1.55.95a334.17 334.17.0 0 1-84.37-61.17C.83 478.15.83 264 132.43 132.43A336.65 336.65.0 0 1 670.91 216.8c-.34.5-.65 1-.94 1.54-14.72 27.2-12.21 50-10.19 68.42 2.13 19.25 3.4 30.87-12.09 46.37-13.4 13.4-26.93 12.81-49.68 10.63-22.93-2.22-51.47-5-76.78 20.37S498.68 418 500.89 440.88c2.19 22.74 2.78 36.27-10.61 49.65s-26.87 12.75-49.61 10.58c-22.93-2.21-51.45-5-76.73 20.3S341.4 575.23 343.61 598.16z" fill="#0e0e0e"/><path d="M453.85 195a16.85 16.85.0 0 0-6.92-16.41L405 148.94l.65-51.37a16.88 16.88.0 0 0-27-13.74l-41.16 30.72L288.87 98.07a16.87 16.87.0 0 0-21.39 21.41L284 168.11l-30.72 41.18A16.84 16.84.0 0 0 251.73 227c2.93 5.72 9.65 9.19 15.25 9.21l51.37-.66L348 277.51a16.85 16.85.0 0 0 13.77 7.14 15.66 15.66.0 0 0 2.64-.21 16.89 16.89.0 0 0 13.48-11.66l15.24-49 49.05-15.24A16.89 16.89.0 0 0 453.85 195zm-79.41-.1A16.87 16.87.0 0 0 363.33 206l-7.73 24.86-15-21.25a16.83 16.83.0 0 0-13.77-7.14h-.22l-26 .33L316.11 182a16.86 16.86.0 0 0 2.45-15.51l-8.36-24.65 24.69 8.36a16.85 16.85.0 0 0 15.49-2.46l20.87-15.59-.33 26.05a16.9 16.9.0 0 0 7.13 14l21.26 15z" fill="#0e0e0e"/><path d="M328.81 431.73l-41.94-29.66.66-51.37a16.89 16.89.0 0 0-27-13.74l-41.17 30.71-48.65-16.48a16.88 16.88.0 0 0-21.39 21.41l16.5 48.63-30.73 41.18a16.86 16.86.0 0 0-1.51 17.75c2.91 5.72 9.53 9.64 15.25 9.22l51.36-.66 29.66 41.92a16.88 16.88.0 0 0 13.78 7.14 15.65 15.65.0 0 0 2.63-.22 16.87 16.87.0 0 0 13.48-11.65l15.25-49 49.05-15.25a16.88 16.88.0 0 0 4.74-29.89zM256.31 448a16.9 16.9.0 0 0-11.1 11.11L237.48 484l-15-21.26a16.87 16.87.0 0 0-13.78-7.14h-.21l-26 .33L198 435.07a16.87 16.87.0 0 0 2.46-15.5l-8.36-24.66 24.67 8.36a16.89 16.89.0 0 0 15.52-2.47l20.85-15.58-.32 26.06a16.86 16.86.0 0 0 7.12 14l21.27 15.05z" fill="#0e0e0e"/><path d="M573.75 286.88H607.5a16.88 16.88.0 0 0 0-33.76H573.75a16.88 16.88.0 0 0 0 33.76z" fill="#0e0e0e"/><path d="M168.75 219.38H202.5a16.88 16.88.0 0 0 0-33.76H168.75a16.88 16.88.0 0 0 0 33.76z" fill="#0e0e0e"/><path d="M270 573.75H236.25a16.88 16.88.0 1 0 0 33.75H270a16.88 16.88.0 0 0 0-33.75z" fill="#0e0e0e"/><path d="M438.75 438.75a16.87 16.87.0 0 0 16.87-16.87V388.12a16.88 16.88.0 0 0-33.75.0v33.76A16.87 16.87.0 0 0 438.75 438.75z" fill="#0e0e0e"/><path d="M489.37 219.38a16.88 16.88.0 0 0 33.75.0V185.62a16.88 16.88.0 0 0-33.75.0z" fill="#0e0e0e"/><path d="M101.25 303.75a16.87 16.87.0 0 0-16.88 16.87v33.76a16.88 16.88.0 0 0 33.75.0V320.62A16.87 16.87.0 0 0 101.25 303.75z" fill="#0e0e0e"/><path d="M438.75 286.88h33.75v33.75H438.75z" fill="#0e0e0e"/><path d="M135 523.13h33.75v33.75H135z" fill="#0e0e0e"/><path d="M455.62 84.38h33.75v33.75H455.62z" fill="#0e0e0e"/><path d="M185.62 270h33.75v33.75H185.62z" fill="#0e0e0e"/><path d="M337.5 337.5h33.75v33.75H337.5z" fill="#0e0e0e"/></g></g></g></svg>