<svg xmlns="http://www.w3.org/2000/svg" width="685.81" height="1080" viewBox="0 0 685.81 1080"><g id="Слой_2" data-name="Слой 2"><g id="animals01_370238318"><g id="animals01_370238318-2" data-name="animals01_370238318"><path d="M518.33 1063.49c53.57-21.74 116.24-151.47 135-213.11 10.46-34.42 26-108.36 30.47-145.22 3.59-29.34 3-86-6-132.47-2-10.16-19.46-71.9-22.11-78C583.27 326.83 509 306.64 489.26 279.7 440.71 213.42 395.79 41.13 313 17.09c-.92-.28-1.86-.53-2.8-.76-1.87-.46-3.7-.84-5.47-1.12a47.42 47.42.0 0 0-9-.65 29.06 29.06.0 0 0-7.23 1 20.86 20.86.0 0 0-9.7 5.63A22.23 22.23.0 0 0 275 26.76a33.34 33.34.0 0 0-3 10.41C265.23 85 401.34 211.44 350.78 243.52c-3.57 2.26-4.85 2.44-18.65 2.64-19.08.28-18.17-.56-20.93 8.22-12.54 39.95-49.55 98-92.77 145.6-7.67 8.44-10.44 12.95.49 14.9 9 1.6 44.55 19.75 68.16 34.3 3.82 2.34 7.32 4.59 10.34 6.67Q306.36 462 314.84 469a269.49 269.49.0 0 1 26.31 24.7q9 9.58 17.15 20.08a314.11 314.11.0 0 1 26.41 39.85q3.9 7 7.45 14.15a320 320 0 0 1 15.33 36.33q4.38 12.45 7.73 25.27a306.24 306.24.0 0 1 8 42.89q1.19 10.41 1.63 20.86a279.41 279.41.0 0 1-.71 35 265.31 265.31.0 0 1-3.92 28.37c-.31 1.58-.62 3.15-1 4.73-.66 3.13-1.39 6.24-2.18 9.36q-2.82 11.16-6.71 22.14c-5 14.14-11.81 27-19.34 39.86h0q-3.71 6.3-7.62 12.62c-.3.51-.6 1-.9 1.49-2.74 4.46-5.5 9-8.29 13.55-4.89 8.14-9.8 16.58-14.49 25.6-3.15 6.06-6.19 12.39-9.05 19.07-9.17 21.27-16.59 46.07-20 77.16-6.27 56.91 34.36 70.48 65 27.92 28-38.93 46.18-86.4 66.16-129.75C472.52 857 482 825.84 507.09 815.06c4.79-2.06 10.33-3.37 15.16-1.38 5 2.06 8 7.2 10.11 12.22 4.4 10.76 5.44 22.32 4.6 34a144 144 0 0 1-2.82 19.19c-2.66 12.65-6.6 25.09-9.94 36.52-.72 2.43-1.44 4.84-2.18 7.27h0q-3.32 10.92-7 21.75c-5.53 16.5-11.56 32.86-17.84 49.09C472.92 1056.61 493.5 1073.58 518.33 1063.49z" fill="#fff"/><path d="M293.71 10.74h0c7.43 13.61 8.21 15.7 6.38 17.11-2.67 2.07-5.53-1-11.57-12.29C281.82 3 281.33.78 285.09.11 287.54-.33 287.92.13 293.71 10.74z" fill="#0e0e0e"/><path d="M285.9 29.94c.73 2.33.51 2.72-1.76 3.11s-3.82-.82-10.73-7.94c-8.49-8.73-9.94-11.89-5.76-12.52C270.86 12.11 285 27 285.9 29.94z" fill="#0e0e0e"/><path d="M304.69 15c-3.9-8-4.38-11.46-1.72-12.26 2.28-.68 4 1.36 7.77 9.09 3.94 8.13 4.25 11.05 1.26 12C309.53 24.56 309 24 304.69 15z" fill="#0e0e0e"/><path d="M392.07 567.42c3-2.26 7.69-5.73 12.68-9.42 66.55-49.35 130.12-122.25 115.72-128.35-7.54-3.19-3.14 11.1-135.86 123.63Q388.51 560.24 392.07 567.42z" fill="#0e0e0e"/><path d="M607.71 699.26c9.18-3.66 21.92-7.72 20.51-12.42a4.92 4.92.0 0 0-1.89-2.35C623 682 615.7 684 566.14 697.93c-96.68 27.14-130.3 28.08-142.07 29.81a265.31 265.31.0 0 1-3.92 28.37c-.31 1.58-.62 3.15-1 4.72 1.13-.23 2.49-.51 4.66-1 4.64-1.15 12.94-3.4 30.35-8.46l4.89-1.42c6.84-2 14.92-4.38 24.48-7.22C536.51 727 550.5 722.07 607.71 699.26z" fill="#0e0e0e"/><path d="M350.59 904.52c16.61 3.51 67.82 10.36 79.83 6.74 5.23-1.57 5.05-7.25-.29-9-5.88-1.9-19.29-2.89-70.49-16.84z" fill="#0e0e0e"/><path d="M608.35 871.51a5 5 0 0 0 .89-4.63 3.81 3.81.0 0 0-2.09-2.5c-2.82-1.2-37.24-.87-59.2-3.5-4.19-.51-8.2-1-11.09-1.27A142.34 142.34.0 0 1 534 878.8c4.85.12 12.9.17 26 .19C592 879.06 603.43 877.3 608.35 871.51z" fill="#0e0e0e"/><path d="M574.89 948.32c6.72-2 6.09-7.26-1.25-10.29-2.77-1.14-17-5.54-31.58-9.79-9.93-2.88-16.18-4.67-20.13-5.64q-3.33 10.9-7 21.75C530.57 946.07 569.16 950.05 574.89 948.32z" fill="#0e0e0e"/><path d="M415.12 629c36.74-26.66 192-140.43 169.27-149.14-13.91-5.3-26.33 31.52-177 123.86Q411.79 616.21 415.12 629z" fill="#0e0e0e"/><path d="M424.78 692.78c38.07-13.31 177.39-72.46 172.92-87.29-.31-1-1.29-1.82-3-2.39-3.41-1.12-5.93-.27-23.84 8.09-96.3 44.95-133.74 55.88-147.69 60.73Q424.35 682.33 424.78 692.78z" fill="#0e0e0e"/><path d="M434.27 856.75a4.69 4.69.0 0 0-.14-.65 4.78 4.78.0 0 0-2.19-2.91c-2.44-1-7.79-.64-48.62-8.37-.3.51-.59 1-.9 1.49-2.73 4.45-5.5 9-8.29 13.55 10.06.8 23.83 1.56 36.17 1.87C430.33 862.25 435.05 861.26 434.27 856.75z" fill="#0e0e0e"/><path d="M358.3 513.75c2.95-3.06 6.89-7.34 12.08-13.07 43.9-48.5 69.87-93.66 98.19-170.75 4.94-13.44 5.26-15.63 2.55-17.09-11.81-6.34-32.49 85.83-123.79 174.78-2.27 2.21-4.4 4.3-6.18 6.05Q350.12 503.26 358.3 513.75z" fill="#0e0e0e"/><path d="M314.75 468.64c25.45-27.06 103.14-149.31 94-165.65-8.28-14.75-41 80-120.8 145.1l-.93.76c3.82 2.35 7.32 4.6 10.35 6.68Q306.26 461.67 314.75 468.64z" fill="#0e0e0e"/><path d="M323.91 1030.64a2.67 2.67.0 0 1 .83-3.63 34.27 34.27.0 0 0 3.63-2.31l.93-.71.34-.27.14-.12c.56-.48 1.1-1 1.63-1.5a32 32 0 0 0 2.87-3.19l.63-.83.09-.12.27-.4c.44-.65.85-1.31 1.24-2a2.64 2.64.0 1 1 4.65 2.5 35.88 35.88.0 0 1-13.61 13.4A2.68 2.68.0 0 1 323.91 1030.64z" fill="#0e0e0e"/><path d="M334 1040.31c-.63-1.11-.52-3 .83-3.64a21.61 21.61.0 0 0 3.59-2.05c.29-.2.57-.4.84-.61l.38-.31.07-.06c.55-.48 1.08-1 1.59-1.51s.93-1 1.36-1.56l.28-.36.16-.21.51-.76a22.06 22.06.0 0 0 1.93-3.78 2.65 2.65.0 0 1 3.58-1.08 2.72 2.72.0 0 1 1.07 3.57 24.89 24.89.0 0 1-12.55 13.19A2.73 2.73.0 0 1 334 1040.31z" fill="#0e0e0e"/><path d="M352 1045.6a2.66 2.66.0 0 1-1.86-.71c-.9-.91-1.26-2.77-.14-3.72a26.3 26.3.0 0 0 2.41-2.31q.54-.6 1.05-1.23l.52-.68.13-.17.08-.12a26.84 26.84.0 0 0 1.66-2.78c.26-.51.5-1 .72-1.55.1-.21.18-.43.27-.64s.11-.32.17-.48a2.85 2.85.0 0 1 1.16-1.62 2.64 2.64.0 0 1 4 2.85 28 28 0 0 1-8.27 12.32A2.94 2.94.0 0 1 352 1045.6z" fill="#0e0e0e"/><path d="M480 1064.65a2.69 2.69.0 0 1 .83-3.64c.55-.35 1.1-.71 1.63-1.1.27-.19.53-.39.79-.59l.34-.28h0 .06a30.5 30.5.0 0 0 2.8-2.77c.41-.46.8-.94 1.18-1.43l.33-.44v0c.17-.25.35-.5.52-.76a29.82 29.82.0 0 0 2-3.55 2.65 2.65.0 0 1 3.57-1.07 2.7 2.7.0 0 1 1.08 3.57 30.68 30.68.0 0 1-11.48 13A2.67 2.67.0 0 1 480 1064.65z" fill="#0e0e0e"/><path d="M489.78 1072.55a2.69 2.69.0 0 1 .83-3.64A15.17 15.17.0 0 0 492 1068l.64-.48.23-.21a16.57 16.57.0 0 0 2.23-2.43 1.64 1.64.0 0 1 .2-.29c.15-.22.29-.46.43-.69.28-.47.54-1 .77-1.44q.16-.35.3-.69v0a.25.25.0 0 1 0-.07v0a.94.94.0 0 0 .06-.18v-.1a15.59 15.59.0 0 0 .48-1.65 2.63 2.63.0 0 1 5.12 1.24 19.57 19.57.0 0 1-9.09 12.33A2.68 2.68.0 0 1 489.78 1072.55z" fill="#0e0e0e"/><path d="M496.78 1061.8a.53.53.0 0 1 .09-.24.58.58.0 0 0-.07.21z" fill="#0e0e0e"/><path d="M500.36 1078.82c-.64-1.13-.5-3 .83-3.64a14.71 14.71.0 0 0 1.92-1.11c.3-.21.6-.43.89-.66h0v0c.13-.13.27-.25.41-.37a15.41 15.41.0 0 0 1.5-1.63c.12-.14.23-.29.35-.44v0h0c.2-.3.41-.61.59-.93a16.76 16.76.0 0 0 1-2v-.1a3.47 3.47.0 0 0 .17-.48c.12-.35.23-.71.32-1.06s.17-.72.24-1.08c0-.16.05-.31.08-.46s.11-.71.0-.3.0-.22.0-.3.0-.37.0-.56c0-.4.0-.8.0-1.2a2.66 2.66.0 0 1 2.58-2.7 2.7 2.7.0 0 1 2.7 2.58A18.81 18.81.0 0 1 504 1079.65 2.71 2.71.0 0 1 500.36 1078.82z" fill="#0e0e0e"/><path d="M326.2 418.49c-.48 2.14 23.32 29.75 24.56 47.93C352 484 329 503.68 285.08 522.8c-76.64 33.33-98.89 40.15-146.49 44.88-47.09 4.69-76.79 2.12-94.87-19.34C-10.61 483.82 191.23 487 248.5 456.69c15.39-8.16 64-31 70.11-39.1 1.45-1.92 3.32-3.58 4.16-3.7C324.76 413.6 326.72 416.23 326.2 418.49z" fill="#fff"/><path d="M47.58 524.78a3.77 3.77.0 0 1-.2 2.69c-.57 1.47-3.42 2.16-13.74 3.32-14.59 1.64-18.85 1.37-18.78-1.19.17-6 31-7.65 32.72-4.82z" fill="#0e0e0e"/><path d="M11.67 514.6c-2.11-1.75-.79-4.23 2.65-5 2.84-.64 36.76 1.85 38.76 4.47h0c1.43 1.86 1.41 2.4-.13 3.93S13.8 516.36 11.67 514.6z" fill="#0e0e0e"/><path d="M32.4 536.3c7.24-1.78 10.51-1.85 11.53-.22 2.44 3.89-5.46 5.57-9.92 6.66-8.7 2.13-9.73 2.18-10.77.52C21.41 540.35 24 538.36 32.4 536.3z" fill="#0e0e0e"/><path d="M296.56 452c-2.78-11.91-9.1-22.28-6.55-23.49 4.89-2.33 11.11-8.19 17.9-16.45a251.51 251.51.0 0 0 19.48-27.83c3.1-5 6.16-10.33 9.13-15.78 5.11-9.39 10-19.26 14.25-29.14a265.62 265.62.0 0 0 9.83-26.2 151.37 151.37.0 0 0 5.65-24.2c.34-2.44.56-4.8.7-7.09l.59-10.28c7.26-2.31 22.45-.8 38.38-20.53 8.18-10.1 13.61-25.18 9.84-37.68a25.28 25.28.0 0 0-5-9.16c-20.08-23.62-52.06-10.42-52.92-10.49.0-.06-3-6.07-8-14.48-3.17-5.27-7.16-11.48-11.78-17.76a163.6 163.6.0 0 0-10.48-12.89c-.44-.49-.89-1-1.34-1.44a131 131 0 0 0-22.3-18.46c-37-24.83-88.6-39-108.12-39.29-39.39-.7-77.94 4.14-115.23 31.88-106.67 79.34-94 213.5-39.29 280.3 12.2 14.88 29.94 29.7 51.29 42.84q6.63 4.08 13.09 7.27A149.8 149.8.0 0 0 131 461.55a142.63 142.63.0 0 0 30.14 5.3 154 154 0 0 0 26.36-.58c11.7-1.21 19.55-3.18 22.17-2.52.49.11 3.47 3.17 6.64 6.78C262.46 523.24 306.62 495 296.56 452z" fill="#fff"/><path d="M225.19 300.12c-12.19 33.67-73 62.21-114.76 63.65C-14.33 368.07-21.36 137 140 119.66c48.92-5.25 86.31 39.1 92.45 93C235.51 239.54 232.06 281.18 225.19 300.12z" fill="#ffdbe3"/><path d="M248.87 282.6h0c12.31 14.88.59 42.48-15.31 52.74-28.77 18.56-45.31-29.47-15.62-53.82C227.92 273.32 241.58 273.8 248.87 282.6z" fill="#0e0e0e"/><path d="M360.6 313.1a151.37 151.37.0 0 0 5.65-24.2L354.5 290c-11 1-26.13.91-19.66 8.86C336.27 300.61 355.29 311.05 360.6 313.1z" fill="#0e0e0e"/><path d="M131 461.55c-.28-1.39-.64-3.07-1-5.08-5.81-36 2.65-51.21-4.47-51.49-2.72-.1-3.78 1.17-7.19 8.5-8.38 18.1-11.4 30.69-12.69 38.16A149.8 149.8.0 0 0 131 461.55z" fill="#0e0e0e"/><path d="M187.49 466.27c-.16-1.93-.57-6.07-1.07-10.73-2.9-26.85 1.61-41-5.66-40.47-5.4.41-13.46 11.15-17.14 22.89-1.92 6.07-3.21 22.74-2.49 28.89A154 154 0 0 0 187.49 466.27z" fill="#0e0e0e"/><path d="M307.91 412.05a251.51 251.51.0 0 0 19.48-27.83c-.58-.32-1.25-.67-2-1.06-2.91-1.53-6.89-3.57-11.23-5.75-33.52-16.77-38.52-22.79-42.09-18-1.82 2.44.18 6.52 10.25 20.89C289.18 390.08 305.22 409.94 307.91 412.05z" fill="#0e0e0e"/><path d="M336.52 368.44c5.11-9.39 10-19.26 14.25-29.14-8.78-1.7-53.16-9.65-55.63-7.15-3.62 3.63-1.7 5.45 30.09 28.37C329.9 363.88 334.09 366.82 336.52 368.44z" fill="#0e0e0e"/><path d="M316.05 152.7c4.19-2.2 7.88-4.25 10.18-5.6a131 131 0 0 0-22.3-18.46c-9.22 5.54-24.41 22.43-26.63 26.29-5.25 9.09-5.36 16.51-.26 18.08C282.58 174.73 289.85 166.44 316.05 152.7z" fill="#0e0e0e"/><path d="M295.54 208.14c25.63-19.1 47.59-25.82 54.29-28.95-3.17-5.27-7.16-11.48-11.78-17.76-.21.0-.44.1-.67.17-14.73 4.16-65.58 43-56.22 52.08C283.53 216 286.67 214.75 295.54 208.14z" fill="#0e0e0e"/><path d="M217.77 115.53h0c3-.21 3.46 3.31 1 7.23-6.84 10.84-26 36.9-27.45 37.26-2.82.71-4.15-2.85-2.26-6.06C189.13 153.82 213.67 115.81 217.77 115.53z" fill="#0e0e0e"/><path d="M258.63 117.41h0a2.91 2.91.0 0 1 3 1.85c1.25 2.68-.21 4-16.33 15.3-42.37 29.57-45.86 37.11-50.1 36.88-2.44-.14-3.48-1.9-2.42-4.13C195 162.48 253.7 118.05 258.63 117.41z" fill="#0e0e0e"/><path d="M76 337h0c2.36 1.7 2.06 2.71-3.42 11.72-45 73.95-47.9 101.51-54.06 95.56-6.95-6.71 51.28-106.23 54.7-107.83A3.19 3.19.0 0 1 76 337z" fill="#0e0e0e"/><path d="M355.32 234.48c-2.06-12.36-6.93-24 9.79-23.86 29.64.33 42.44 23.14 17.08 38.73C353.11 267.23 357.5 247.51 355.32 234.48z" fill="#ffdbe3"/><path d="M324.71 276.56a24.36 24.36.0 0 0-4-21.48c-6.24-8-17.69-11.9-27.59-10.48a26.71 26.71.0 0 0-18.73 12.09 23.74 23.74.0 0 0-1.68 21.15 29 29 0 0 0 14.36 15.46 26.68 26.68.0 0 0 22.86-.18C316.92 289.87 322.56 284.06 324.71 276.56zm-14.33 9.14c-13.21 6.63-22.71-1.06-22.71-1.06s14.53-2.52 18.11-12.61c4.59-12.88-5.57-20.7-5.57-20.7s7.13.45 12.05 4.11c4.45 3.31 7.57 7.92 6.8 15.62C318.63 275.29 315.66 283.05 310.38 285.7z" fill="#0e0e0e"/><path d="M78.8 404.57c.08-2 1.67-14.58 3.52-27.9C84.65 360 85.47 349 90.6 350.89h0a2.84 2.84.0 0 1 1.32 1.29c.4.87-4.85 42.95-6.78 54.35C83.82 414.29 78.48 412.64 78.8 404.57z" fill="#0e0e0e"/><path d="M78.23 350.11h0c5.48 2-15 43.8-23.37 83.61-1.7 8.1-2.7 10.78-4.2 11.23-11.5 3.49 5.53-42.87 12.4-63.12C73 352.61 74.78 348.85 78.23 350.11z" fill="#0e0e0e"/><path d="M237.43 414.81c27.29-12.55 13.28-47.29-16.41-47-21 .21-28.36 28.57-11 42.58C217.49 416.45 229.62 418.4 237.43 414.81zm-10.25-4.61c-3.85-.65-13.59-5.4-13.59-5.4s15.88 2.82 23.64-9.83c3.82-6.23 1.75-13.9 1.75-13.9s5.28 5.88 6 12.83C245.94 404.48 236.54 411.78 227.18 410.2z" fill="#0e0e0e"/><path d="M278.41 448.27c18.59 35.47-18.68 46.5-38.6 25.47a49 49 0 0 1-7.36-9.51c-2.47-4.6-1.16-5.79 3.09-8.06C275.09 435 274.41 440.66 278.41 448.27z" fill="#ffdbe3"/><path d="M177.82 151.25c-1.68.78-4.37-.69-4.43-2.44.0-.9 38.11-82.13 45.75-79.35h0c5.79 2.11-5.84 14.33-32 65.3C182.69 143.52 178.48 150.94 177.82 151.25z" fill="#0e0e0e"/><path d="M206.47 290.52c7.81 4.26 7.94 4.15 6.8 7.27-1.59 4.36-4.42 3.63-54.93-27.78L96.92 231.94a28.74 28.74.0 0 0-.89 14.2c1 6.23 6.71 19.6 7.83 22.57 1.29 3.39-.61 5.18-3.54 3.75-5.31-2.59-12.87-24.25-11.93-34.19 1.6-17.08 13.41-25.55 40.53-29.07 10.88-1.41 12.51-1.27 13.67 1.21 2.82 6.06-12.81 1.84-32.52 10a42.56 42.56.0 0 0-9.42 5.37s99.76 61.42 105.82 64.73z" fill="#0e0e0e"/><path d="M171.29 985.43c4-2.79 6-5.8 15.25-22.67A273.37 273.37.0 0 1 203 936.31a231.29 231.29.0 0 1 30.18-35l1.5-1.4h0c2.56-2.38 5.17-4.69 7.86-6.93l1.51-1.27c3.36-2.77 6.79-5.41 10.33-8 .53-.39 1.06-.75 1.59-1.13 1.92-1.37 3.86-2.68 5.84-4 .56-.39 1.14-.75 1.7-1.12a202.63 202.63.0 0 1 34.5-17.7c5-2 10-3.85 15.06-5.62l1.42-.5c2.84-1 5.67-2 8.51-2.89l1.23-.42c5-1.68 10.06-3.29 15.08-4.9L350.21 842c.46-.16.93-.3 1.4-.45 11-3.54 22-7.2 32.71-11.41.49-.17 1-.38 1.46-.56 2.52-1 5-2 7.52-3.12l1.42-.61a200.65 200.65.0 0 0 35.66-19.7l1.69-1.2c2.42-1.73 4.78-3.55 7.11-5.44.5-.39 1-.81 1.51-1.22q1.85-1.53 3.67-3.13a95.06 95.06.0 0 0 14.14-15.75c.39-.54.77-1.08 1.16-1.64 1.68-2.42 3.28-4.93 4.78-7.5.3-.49.6-1 .89-1.52A188 188 0 0 0 478.65 739c.37-1 .72-2 1.05-3 .8-2.26 1.58-4.52 2.3-6.78.21-.63.42-1.26.62-1.88l.93-2.87c3-9.47 15.6-47.27-4.62-47.3a11.56 11.56.0 0 0-9.33 5.4c-4 6.06-3 15.55-4.63 22.55-.89 3.82-2 7.62-3.15 11.36-.24.77-.48 1.53-.74 2.28-.65 2-1.35 4-2.07 6-.33.91-.66 1.82-1 2.74-.56 1.54-1.15 3.08-1.73 4.61-2.63 6.87-7.35 14-13.65 21-.56.61-1.12 1.23-1.71 1.84-1.62 1.71-3.32 3.42-5.13 5.1-.73.67-1.46 1.34-2.21 2A150.65 150.65.0 0 1 417 775l-1.56 1q-4.68 3.06-9.68 5.87c-.68.39-1.36.77-2 1.13-3.77 2.07-7.66 4-11.64 5.81q-5.28 2.37-11.14 4.49l-2.55.92c-2.65.93-5.38 1.83-8.18 2.72-.73.23-1.47.47-2.22.69-10.13 3.15-21.16 6.07-32.76 9.2l-.67.17c-3.3.88-6.66 1.8-10.06 2.72l-.78.21q-5.75 1.56-11.64 3.26l-.82.23c-4.28 1.24-8.59 2.51-13 3.88l-.53.16c-21.65 6.75-44.09 15.22-65.66 27.38l-1.08.61q-3.48 2-6.93 4.11c-.74.46-1.49.92-2.22 1.4-4.35 2.73-8.65 5.62-12.9 8.72-.27.21-.55.4-.82.62-3.77 2.76-7.47 5.65-11.11 8.73-.81.67-1.6 1.36-2.4 2.05a212.72 212.72.0 0 0-24.81 25.46q-2.43 3-4.71 6.07c-19.67 26.8-30.41 61.07-23.33 76.56C146.86 990.22 160.4 993.09 171.29 985.43z" fill="#fff"/><path d="M430.38 806.17c-3.49-2.58-7.4-5.68-11.7-9.41-1.28-1.1-2.6-2.28-4-3.49-1.64-1.49-6.73-6.21-11-10.26.69-.36 1.37-.74 2-1.13q5-2.8 9.68-5.87c.64.7 1.08 1.2 1.12 1.26 1.53 1.6 3.27 3.39 5.25 5.4 1.15 1.15 2.39 2.38 3.69 3.69 3.77 3.76 8.28 8.11 13.66 13.17z" fill="#0e0e0e"/><path d="M458.5 779.43a247.91 247.91.0 0 1-24.92-17.24c.75-.67 1.48-1.34 2.21-2 1.81-1.68 3.51-3.39 5.13-5.1 7 4.85 16.95 11.24 23.52 15.21z" fill="#0e0e0e"/><path d="M384.32 830.16c-3.59-8.23-10.64-22.15-16.32-32.52.75-.22 1.49-.46 2.22-.69 2.8-.89 5.53-1.79 8.18-2.72 5.54 11.34 12.27 26.09 14.9 32.25z" fill="#0e0e0e"/><path d="M339.36 845.46 350.21 842q-.29-.75-.54-1.26c-5.51-10.88-11.08-25-15.1-33.75-3.3.88-6.66 1.8-10.06 2.72l-.78.21c6.22 13.86 15.57 35.41 15.61 35.48S339.35 845.46 339.36 845.46z" fill="#0e0e0e"/><path d="M254.43 883.71c.53-.39 1.06-.75 1.59-1.13 1.92-1.37 3.86-2.68 5.84-4l-1.7-1.4c-9.41-7.7-16.17-14.73-24.92-25.85-.72-.92-2.47-3.45-4.2-5.9q-3.48 2-6.93 4.11c-.74.46-1.49.92-2.22 1.4C230.83 860.76 245.71 875.28 254.43 883.71z" fill="#0e0e0e"/><path d="M313.12 854.17l1.42-.5c2.84-1 5.67-2 8.51-2.89-.51-2.23-1.26-4.95-2.14-7.87-3.27-10.85-8.27-24.5-9.16-26.56-.08-.19-.27-1.45-.48-2.92-4.28 1.24-8.59 2.51-13 3.88l-.53.16C301.65 825.24 307.34 838.77 313.12 854.17z" fill="#0e0e0e"/><path d="M233.22 901.27l1.5-1.4h0c2.56-2.38 5.17-4.69 7.86-6.93-11.47-9.78-25-23.47-34.42-32.63-3.77 2.76-7.47 5.65-11.11 8.73-.81.67-1.6 1.36-2.4 2.05 6.42 6.26 14.68 13.71 17.14 15.77 2.72 2.24 10.4 7.49 17.07 11.63C230.43 899.45 231.87 900.39 233.22 901.27z" fill="#0e0e0e"/><path d="M171.29 985.43c4-2.79 6-5.8 15.25-22.67A273.37 273.37.0 0 1 203 936.31c-.75-1.38-2.21-2.88-4.28-5.32-9.17-10.83-21.8-22.23-29.64-26.73a12.53 12.53.0 0 0-4-1.64c-19.67 26.8-30.41 61.07-23.33 76.56C146.86 990.22 160.4 993.09 171.29 985.43z" fill="#0e0e0e"/><path d="M478.65 739c.37-1 .72-2 1.05-3 .8-2.26 1.58-4.52 2.3-6.78-3-1.57-7.13-3.66-10-5.17-3.38-1.78-7.72-3.79-10.93-5.29-.65 2-1.35 4-2.07 6-.33.91-.66 1.82-1 2.74C464.11 731.33 472.8 736.29 478.65 739z" fill="#0e0e0e"/></g></g></g></svg>