<svg xmlns="http://www.w3.org/2000/svg" width="918.79" height="1080" viewBox="0 0 918.79 1080"><g id="Слой_2" data-name="Слой 2"><g id="phone_453921428"><g id="phone_453921428-2" data-name="phone_453921428"><path d="M918.79 850.51V1080H660.32c-5.67-7.23-11.25-14.4-17.14-21.34-7.35-8.66-14.72-17.72-22.28-26-1.53-1.68-3.3-3.15-4.83-4.83-6.16-6.79-12.34-13.58-19-19.63a85.83 85.83.0 0 0-11.22-8.1c-2-1.3-3.84-2.65-5.92-3.74-6.58-3.45-13.91-4.77-22.12-6.86-5-1.28-9.93-3.05-14.81-4.52-10-3-20-5.76-29.6-9-4.75-1.62-9.35-3.6-14-5.3-9.57-3.48-18.74-7.18-27.42-11.22-8.9-4.14-17.82-8.24-26.95-11.68s-18-7.63-26.8-11.84c-13.22-6.3-26.6-12.08-39.26-18.7s-25-13.84-37.39-20.56c-8.3-4.5-16.44-9.31-24.3-14.34-15.76-10.07-31.62-19.62-45.81-31.47-13.92 1.25-28.65 4.3-43.31 5-2.2.1-4.45-.16-6.54.15a23 23 0 0 1-3 .47A75.8 75.8.0 0 1 197 853.78a36.2 36.2.0 0 1-17.6-10.12 69.15 69.15.0 0 1-6.08-7.79 75.18 75.18.0 0 1-10-17.76c-1.23-3.2-2.16-7.74-5.14-8.73-2.32-.76-4.19-.12-6.08-.46s-3.14-1.34-4.83-2.19c-3-1.5-6.25-3-9.35-4.52-6.06-3-11.68-6.29-17.91-9.81-5.72-3.23-11.3-7.09-16.83-10.91-2.71-1.87-5.5-3.77-8.1-5.76s-5.46-4-7.79-6.08a20.55 20.55.0 0 1-3-3.89c-4.62-7-9.13-14.19-11.53-23.21-1.48-5.57-2.72-11.08-3.89-16.83-.39-1.89-1-3.7-1.41-5.61-.82-4-1.14-8.08-1.71-12.15a104.08 104.08.0 0 0-5.61-22.13c-1.23-3.25-2.53-6.64-3.58-10.28a46.12 46.12.0 0 1-2.18-11.68c-.15-10.39 5.83-14.88 11.68-19A7.24 7.24.0 0 0 65 643.15c-7.77-9.26-15.18-19.73-18.7-33.19a218.73 218.73.0 0 1-4-21.81 61.85 61.85.0 0 0-2.5-10.44c-1.05-3.11-2.56-6-3.89-9.19-2.07-5-4.41-11.06-6.39-16.2a8.16 8.16.0 0 0-.47-1.09c-.27-.45-.53-.36-.93-.78-1.86-2-2.35-7-2.5-10.44a28.08 28.08.0 0 1 1.72-11.37c2-5.9 7.51-10.87 12.77-13.25 3.22-1.45 6.68-1.92 10.44-2.49a38.9 38.9.0 0 1 6.08-.47c2.77.0 7.08.94 8.88-.46.67-.28-.28-1-.47-1.41-.3-.8-.79-.83-1.24-1.24-5.35-4.87-11.66-8.7-17.61-12.93A153.22 153.22.0 0 1 15 466.47 60.16 60.16.0 0 1 4.42 446.53 37.21 37.21.0 0 1 2.7 433c.95-14 10-20.87 19.48-26.33A37.09 37.09.0 0 1 47 402.13 35.72 35.72.0 0 1 58.32 406c3.23 1.76 6.3 3.92 10.13 5.15.41.0.51-.22.47-.63.25-3.2-1.11-6.19-2-9.34s-1.39-6.35-2-9.67c-.61-3.15-1.28-6.41-2-9.65s-1.16-6.72-2.34-9.51c-.84-2-3.12-3.27-5.45-4.67A93.63 93.63.0 0 1 37.6 354.46a115.18 115.18.0 0 1-9.35-11.07 63.42 63.42.0 0 1-7.94-12.62c-4.15-9.18-7.28-22.28-2.65-33.65 2-4.85 5.49-7.94 9.81-10.59s9.69-4.17 16.52-4h.47c-1.17-10.62-3.09-21-5.15-31.16a863.85 863.85.0 0 1-14-95.19c-1.89-1-1.63-3.3-1.71-5-.1-2.14.0-4.57.0-6.7.0-8.71-.62-17.57-.62-26.17.0-4.48-.32-9 0-13.24.59-8 3.05-15.14 7.47-19.48S40.84 78.24 47.1 75.27c6-2.85 12.46-5.43 19-8a188.25 188.25.0 0 1 20.57-6.39c14.14-3.65 28.63-7.29 42.37-11.52 1.71-.53 3.38-1.15 5.15-1.56s3.55-.87 5.29-1.4c13.76-4.23 27.62-8.45 42.22-11.53 11.13-2.35 22.07-5.1 33-7.48 14.68-3.2 29.53-6.5 44.4-9.51 7.55-1.52 15.19-2.81 22.75-4.2s15-3.07 22.59-4.36 15.7-2.28 23.68-3.12c8.2-.86 16.68-.79 24.77-2.18a97.39 97.39.0 0 1 12.47-.94 78.22 78.22.0 0 1 12.93.32c8.28 1.14 14.74 3.43 19 7.94s7.58 10.42 10.43 16.52a178.41 178.41.0 0 1 7.48 19.47c4.56 13.71 8.32 27.53 12 41.91 3.59 14.07 7.58 28.57 10.28 43.47.7 3.85 1.15 7.69 1.87 11.53.69 3.63 1.72 7.28 2.65 10.9 1.88 7.35 3.22 14.81 4.67 22.28 2.92 15 5.84 30.14 8.57 45.34s4.73 30.63 8.57 45.33c.62-.36.57-1.14.78-1.71a124.68 124.68.0 0 0 4.67-15.11 75 75 0 0 1 5.61-17 37.75 37.75.0 0 1 4.52-6.7c3.63-4.38 7.74-6.82 13.55-9 2.89-1.1 6.46-1.86 9.51-.93 3.45 1.05 5.93 4.55 7.94 8.41s3.48 7.79 5 11.37c3.34 8 7.57 14.68 10.9 21.81s7.36 14.54 11.07 21.66c.94 1.8 1.74 3.6 2.8 5.3a111.88 111.88.0 0 0 10.28 14.49c2.52 2.83 5.48 5.35 7.95 8.41s5.68 5.35 8.72 7.63c6.42 4.83 12.43 9.88 16.52 16.36s7.41 14.26 10.75 22c6.68 15.45 11.77 32.08 17.6 48 1.44 3.92 3.12 7.72 4.83 11.52s3.27 7.66 5 11.37c6.85 14.83 14.31 29.05 23.83 41.76 4.65 6.19 9.22 12.52 13.4 19.32a197.38 197.38.0 0 1 11.38 21.5c3.43 7.53 7.11 14.83 10.59 22.12 2.69 5.62 5.25 11.27 8.57 16.05 1.12 1.61 2.69 2.95 3.58 4.67.51 1 .68 1.9 1.25 2.81s1 1.65 1.56 2.49a316.14 316.14.0 0 1 20.41 36.92c3.48 7.36 6.74 14.93 10.44 22.28s6.93 14.83 10.9 22 7.94 13.92 11.69 21 7.22 14.65 10.9 22c3.54 7 8.16 13.72 12 20.72 1.93 3.53 3.89 7.07 5.76 10.59s3.67 7.32 5.77 10.75a143.2 143.2.0 0 0 13.86 18.86c5 5.83 10.52 11.25 15.74 17.14 3.91 4.4 7.83 8.59 11.68 12.77 1.31 1.42 2.84 2.68 4.21 4.05 5.45 5.45 11.26 10.56 17 15.89 8.47 7.9 16.61 16.23 25.86 23.21 3.11 2.35 6.12 4.87 9.19 7.33C893.34 831.73 904.79 843.19 918.79 850.51zM520.1 514.77a48.89 48.89.0 0 0 3.9-16.51 95.11 95.11.0 0 0-.94-19.17 83.73 83.73.0 0 0-4.2-16.2c-1.68-4.75-3.73-9.54-5.92-14.33a93.33 93.33.0 0 1-5.77-14.65 171.47 171.47.0 0 1-4.83-25.71c-.54-5-1.24-9.39-.31-14 .24-1.19 1.2-3.42 1.09-4.36-.19-1.6-2.94-3.22-4.21-4.36-4.64-4.2-8.43-9.46-12.46-13.4-.2.0-.22-.2-.47-.16a.71.71.0 0 1-.15.47c-.1 6.92 1.61 13.26 3.27 19.48 1.62 6.06 2.59 12.38 3.89 18.69s2.47 12.68 3.43 19.17c1 6.65 1.88 13.3 2.81 19.78 1.87 13.11 4.25 26.06 6.23 38.95 2 13.09 3.69 26.11 6.7 38.64A46.19 46.19.0 0 0 520.1 514.77z" fill="#fff" fill-rule="evenodd"/><path d="M918.79 863.29v216.4c0 .18.0.28-.16.31H671.85c-10.18-15.55-23.23-28.21-34.9-42.22-5.89-7.07-11.66-14.09-17.92-20.57a106.51 106.51.0 0 0-21.5-17.13c-12-7.34-24.78-14.06-39.26-18.54-4.85-1.51-10-2.75-15.27-4-10.23-2.54-20.42-5.11-30.38-8.26-9.81-3.11-19.45-6.47-29.13-9.5-9.93-3.12-19.52-6.16-28.67-9.82s-17.67-8-26.33-12.31-17.45-8.36-26.17-12.46-17.26-8.4-26-12.62c-8.6-4.15-17.18-8.32-25.55-12.93s-16.49-9.47-24.93-13.71c-15-7.54-30.22-15-42.22-25.4-1.7-1.47-3.68-2.8-4.83-4.83-.65-.47-1.27-.08-1.86-.31a2.33 2.33.0 0 1-1.1-.93c-1.13-1.77.19-3.27 1.72-3.74 4.12-1.28 8.56-.92 13.08-1.4 9.18-1 18.39-1 26.33-3 4-1 7.71-2.26 11.38-3.28 8-2.2 16-3.36 24-5.14s16-3.33 23.84-5.45c7.48-2 15-4.38 22.59-6.54 7.73-2.22 15.58-4 23.37-5.92 15.53-3.88 30-9.36 43.78-14.65 7.14-2.73 14.31-5.19 21-8.1a125.43 125.43.0 0 0 18.85-10.44c5.89-3.86 12.16-7.27 16.67-12.46s6.58-12.82 8.41-20.88a152.45 152.45.0 0 0 3.27-25.86c.72-13.73 1.86-28.25.47-41.76s-2.67-26.52-3.89-40c-.42-4.59-.85-9-1.09-13.4a16.58 16.58.0 0 0-.32-3.28c-.22-.79-1-1.37-1.4-2.33-.71-1.95-.68-4.46-.93-6.39-1.14-8.52-2.27-17-3.43-25.86-1.1-8.41-2.65-16.68-4.21-24.93s-3.38-16.4-4.67-24.61c-.73-4.69-1.3-8.86-.78-13.4a31.4 31.4.0 0 1 3.58-11.07 95.87 95.87.0 0 0 4.37-10.28 43.33 43.33.0 0 0 2.8-11.84 65.14 65.14.0 0 0-1.25-16.51 26 26 0 0 0-.46-3.27c-.3-.87-.94-1.51-1.25-2.34s-.48-2-.78-3c-1.12-3.72-2.45-7.36-3.74-10.91-1.36-3.74-2.11-7.64-3.11-11.53-3-11.67-5.69-23.81-5.61-38.17.0-4.68-.07-9.42.15-14.17.12-2.42.17-4.62-.62-6.24s-2.32-2.19-3.74-3.58c-1.2-1.18-2.58-2.23-3.74-3.58a25.1 25.1.0 0 0-3.89-3.43 35.27 35.27.0 0 1-7.32-7.32c-2-2.9-3.8-5.95-5.61-9-7.21-12.24-11.92-27-14.8-43.62a156.71 156.71.0 0 1-2.19-26.95c0-9.4.13-19.21.32-29-1-2.51.0-5.12.46-7.32 1.54-7.72 3.28-13.82 6.55-20a21.62 21.62.0 0 1 8.41-9.19c3.86-2.14 8.91-3.7 14.33-2 4.11 1.27 7.09 4.45 9.66 7.94a62.1 62.1.0 0 1 6.23 11.37c3.79 8.44 7.14 17.06 10.13 25.24 1.63 4.45 3.11 8.66 5 12.62 5.8 12.24 12.62 22.22 22 30.85 3.15 2.91 6.55 5.3 9.66 7.95a123.74 123.74.0 0 1 24.93 28 227.21 227.21.0 0 1 12.46 22.75c3.81 7.85 7.64 15.84 11.38 23.83s6.89 16.56 10.59 24.62c1.85 4 3.79 7.88 5.92 11.68s4.38 7.63 6.23 11.53c1.93 4.05 3.56 8.16 5.46 12.15 3.73 7.88 8.52 15.28 11.84 23.37 1.72 4.2 3.15 8.51 4.67 13.09a265.59 265.59.0 0 0 9.66 25.55c3.66 8.09 7.72 15.93 11.84 23.53s8.41 14.93 13.09 22.12c9.24 14.21 18.38 28.69 26 44.4 3.84 7.9 7.52 15.87 11.53 23.84s8 15.63 11.84 23.37c5.78 11.81 13.48 22 20.56 32.25 2.4 3.47 4.69 7 7.17 10.44C772 710 781 719 788.23 729.15c2.44 3.44 4.49 7.13 7 10.59s5 6.73 7.48 10.13 4.91 6.83 7.32 10.28c4.72 6.74 10.61 12.82 16.2 19s11.1 12.61 16.52 18.85c10.85 12.49 23.84 22.66 36 34.59a112.87 112.87.0 0 0 9.66 7.94C898.24 848.23 908.13 856.6 918.79 863.29z" fill="#fbb67d" fill-rule="evenodd"/><path d="M26.85 292.29a15.14 15.14.0 0 1 7 1.72c5 2.67 8.24 8.43 10.75 14 4.56 10.16 7.79 27.33 10.6 39 1.11 4.6 2.49 10.17 3.73 14.8.5 1.85 1 3.66.78 5-1.06 6.11-7.29 1-10.43-1.4-2.57-1.92-4.93-3.64-7-5.45a86.63 86.63.0 0 1-21.19-28.67 64.91 64.91.0 0 1-3.43-9 48.42 48.42.0 0 1-2.18-10.29c-.58-8.53 2.19-15.76 7.32-18.54A9.87 9.87.0 0 1 26.85 292.29z" fill="#fbb67d" fill-rule="evenodd"/><path d="M28.88 405.4s.05-.15.15-.16a28.37 28.37.0 0 1 17.45 4.68A40.94 40.94.0 0 1 58 420.51c12.79 17.23 18.11 40.76 23.37 65.12 2 9.47 3.57 17.48 5.14 28a22.26 22.26.0 0 1 .62 5c-.15 1.64-1.29 3.08-2.18 3.28-2.06.45-4.86-2.4-6.85-3.74-6.38-4.32-12.69-8.55-19-12.47a129.51 129.51.0 0 1-12.46-8.56c-3.87-3.08-7.91-5.94-11.53-9.35a170.58 170.58.0 0 1-19.94-22C10.79 460 6.76 453.39 4.57 445a53.19 53.19.0 0 1-1.71-8.72 25.84 25.84.0 0 1 0-3.74A31.89 31.89.0 0 1 6.44 421c.65-1.2 2.15-2.47 3.27-4.05a45.54 45.54.0 0 1 3-4.36A26.59 26.59.0 0 1 28.88 405.4z" fill="#fbb67d" fill-rule="evenodd"/><path d="M900.25 836c1.39.69 2.36 1.79 3.74 2.5-1.72 1.23-2.94-1.49-4.21-2.19l.26-.1z" fill="#fbb67d" fill-rule="evenodd"/><path d="M69.54 643.15c9-.89 17.7 3.82 23.37 7.79 10.94 7.66 17.91 18.94 24 31.16 2.34 4.69 4.21 9.46 6.23 14.48a50.58 50.58.0 0 0 1.87 5 2.67 2.67.0 0 0 .94 1.09c.42.35.82.48 1.09.94.49.84.48 2 .93 3 1.19 2.48 3 4.86 4.37 7.32-.38 2.41.86 4.24 1.55 6.39a170.34 170.34.0 0 1 6.39 28.2c.3 2.06 1 4.45.47 6.54-.36 1.54.11 2.81.62 4.83 2 8.11 4.62 16.2 7.17 23.52 1.44 4.14 3.31 8.54 5 12.62a43.44 43.44.0 0 1 2.19 6.7c.47 2.16.62 4.57-1.72 6.08-12.14-4.93-23.17-11.32-34.74-17.14-8.29-4.16-16.24-9.74-23.68-15.27-1.25-.92-2.51-1.83-3.74-2.8a33.86 33.86.0 0 1-3.59-2.81A36 36 0 0 1 85 766.23a102 102 0 0 1-8.25-14.8 139.24 139.24.0 0 1-7.48-23.37c-2-8.13-3.09-17.07-5-25.87-1.29-6-3-12.35-4.36-18.69-.12-.55-.16-1.18-.31-1.72s-.5-.77-.63-1.24c-.29-1.1-.11-2.4-.46-3.27-.46-1.14-1.52-1.16-2-2.5a21 21 0 0 1-.62-5c-.77-8.95 1.82-16.54 6.23-20.88 1.85-1.82 4.2-3 5.77-5.14-2.24.76-2.47-.8-3.59-2-.48-.53-1.26-.93-1.71-1.4-9.25-9.6-12.84-24.28-16.67-39.26-1.69-6.58-3.58-13.13-5.3-19.63-.89-3.36-1.43-6.71-2.49-9.81-.93-2.7-2.51-5.34-3.74-8.1-2.38-5.32-4.91-10.46-6.23-17.14A40.32 40.32.0 0 1 27 535.8c.11-1.6.53-3.18.78-4.67 1.3-8 5.79-11.88 12.62-14.65a26.69 26.69.0 0 1 9.19-2.18c2.84.0 7.3 1.7 10.28 3.12a60.79 60.79.0 0 1 15.58 10.75 66.4 66.4.0 0 1 6.08 7 116.16 116.16.0 0 1 10.59 15.73 85.79 85.79.0 0 1 4.52 8.73 84.82 84.82.0 0 1 5.3 21c.51 3.89.58 8 .77 12.31a113.06 113.06.0 0 0 1.1 12.15c.57 3.76 1.36 7.42 2.18 10.91 2.39 10.27 4.79 21.26 7.63 31.94.38 1.42.78 3.1 1.4 5.14s1.14 4.54-.78 5a2.94 2.94.0 0 1-2-.31c-.23-.11-.19-.39-.47-.62s-.64-.18-.78-.31a24.84 24.84.0 0 1-1.87-2.65 48.92 48.92.0 0 0-5-4.21c-4.09-3.42-8.73-6.53-15-7.79-1.25-.25-2.61-.2-4-.47-1.25-.23-2.58-1-4.05-1.09a25.08 25.08.0 0 0-6.23.78A55.45 55.45.0 0 0 69.54 643.15z" fill="#fbb67d" fill-rule="evenodd"/><path d="M896.58 833.45c1.17.88 2.35 1.8 3.46 2.78" fill="#fbb67d" fill-rule="evenodd"/><path d="M376 63.43c2.74-.18 7-.06 9.35.93 4.29 1.79 6.72 8 8.26 13.09A213.27 213.27.0 0 1 400.76 113c.56 4.36 1.07 9.38 2.49 13.4s.93 6-3.11 7.63a136.18 136.18.0 0 1-15.74 4.68c-7.45 1.88-14.48 3.87-21.5 5.76-14.56 3.93-29.28 7.35-43.62 10.75-14.77 3.51-29.6 7-44.25 10.28-18.65 4.23-36 9.53-54.37 13.71-3.54.81-6.95 2.06-10.44 3.12-7.12 2.18-14.33 4-21.5 5.77-10.81 2.66-21.43 5.65-32.09 8.72-10.42 3-21.58 5.34-32.87 7.94-7.37 1.7-14.81 3.51-22.28 5-3.8.75-7.67 1.26-11.53 2.18A25.57 25.57.0 0 1 84.18 213a11.45 11.45.0 0 0-2.8.31c-5.92 1.47-12.34 3.16-18.85 4.83-.49.13-.93.24-1.4.32s-.87.0-1.41.0c-1.35.11-2.09.43-2.8.15-1.46-.56-2-3.47-2.49-5.3-4.09-13.73-6-30.91-8.26-46.27-1.13-7.59-3.77-21.71 2.34-26 3.07-2.16 7-3.41 10.75-4.83 19.53-7.37 42.32-12.42 64.34-17.45 32.48-7.41 66.88-13.61 99.24-21.34 16.87-4 33.88-7.77 50.79-11.53 16.65-3.7 33.34-8 50.33-12 14.21-3.31 29.46-7.07 44.86-9.66A71 71 0 0 1 376 63.43zM101.63 137c-11 3.65-18.66 10.75-21.34 22.59-2.88 12.71 2.17 22 8.72 28.52a26.42 26.42.0 0 0 9 6.07c5.27 2.06 12.87 3.3 19.32 1.56 1.44-.39 3-1.13 4.36-1.4a11 11 0 0 0 4-1.72c4.11-2.64 6.55-5.73 9-9.66 4.79-7.55 7.77-19.58 4.52-30.53A37.79 37.79.0 0 0 134.66 142c-3.46-4.89-10.06-7.85-17.76-7.64A53.31 53.31.0 0 0 101.63 137z" fill="#f7a2cb" fill-rule="evenodd"/><path d="M364.31 380.47a52.33 52.33.0 0 1 3.58-10.28c1.49-2.88 3.3-5.85 6.23-7.48a6.58 6.58.0 0 1 9 2.18c1.72 3 1.77 7.76 1.56 12.31a148.26 148.26.0 0 1-4.84 30.23c-.47 1.83-1.12 3.62-1.55 5.45-.58 2.4-.46 4.54-2.5 4.67-1.74.12-1.83-1-2.64-2a86.33 86.33.0 0 1-11.53-6.7c-6.81-4.54-14.37-10-19.32-16.83-2.39-3.3-5.17-7.92-5.14-12.93.0-5.23 3.68-9.94 9.81-9.35a17.13 17.13.0 0 1 6.7 2.5C357.58 374.49 360.53 378.18 364.31 380.47z" fill="#f7a2cb" fill-rule="evenodd"/><path d="M364 487c2.05-5.84 4.54-13.21 8.57-17.14 1.55-1.51 4.38-3.63 7.64-2.34 5.67 2.26 4.59 12.69 3.42 20.1a97.34 97.34.0 0 1-9.5 29.45c-1 2-2 4-3.27 6.54-1.11 2.21-2.21 5.55-4.52 5.14-1.19-.21-2-1.47-1.56-3.11a124.61 124.61.0 0 1-16.35-19 63.58 63.58.0 0 1-6.71-10.91c-1.8-4-3.64-9.11-3.27-14.33.31-4.26 2.55-8.89 7.17-9s8.09 3.53 10.44 6.08C358.86 481.53 361.05 484.55 364 487z" fill="#f7a2cb" fill-rule="evenodd"/><path d="M428.81 517c2.18-5.9 4.71-11.76 8.88-15.58a18.37 18.37.0 0 1 4.36-3.11c1.68-.8 4.83-1.5 7-.47s3.45 4.38 3.58 8.1a49.48 49.48.0 0 1-1.4 12.15 69.23 69.23.0 0 1-10.13 23.37c-.87 1.33-2.09 3.25-3.42 3.27-1.52.0-1.8-1.23-2.81-2.18a13.77 13.77.0 0 0-4.2-2.49 8.74 8.74.0 0 0-3.43-.31c-2.79.31-5.76 3.29-9.35 2.33-2.13-.56-4.35-3.22-5.77-5a48.39 48.39.0 0 1-7.94-13.24c-1.4-3.73-2.66-7.53-2.18-12.78.45-5 3.24-10 9.19-9.35a9.83 9.83.0 0 1 2.49.78C420.12 505.06 423.93 511.74 428.81 517z" fill="#f7a2cb" fill-rule="evenodd"/><path d="M413.23 566.18c1.18-6.08 2.33-13.19 5.45-17.91 1.69-2.56 5-6 9.35-3.74 3.29 1.68 4.52 7.26 5 12a102 102 0 0 1 0 16.21 256.42 256.42.0 0 1-3.27 26.33c-.25 1.43-.83 2.32-1.71 2.49-1.66.31-2.42-1.15-3.43-1.56s-2.46-.55-3.74-.93a76.73 76.73.0 0 1-9.66-3.9c-7.68-3.5-15.57-8.64-21.34-14.8-3.08-3.28-7-7.56-6.39-13.87.32-3.11 1.86-5 3.89-6.85 1.84-1.67 3.23-3 6.7-3.27A20 20 0 0 1 406.22 560C408.83 561.86 410 564.62 413.23 566.18z" fill="#f7a2cb" fill-rule="evenodd"/><path d="M453.58 653.12c2-3.06 3.48-7.28 7.32-7.79s5.73 2.55 6.08 5.92a19.64 19.64.0 0 1 0 3.27c-.24 4.27-1.43 8.93-2.81 14-1 3.85-2.64 11.34-4.83 11.84-1.12.26-3.24-.62-4.67-1.4a27 27 0 0 1-3.43-2.49c-4.67-3.57-8.74-7.37-11.53-12.47-2.13-3.89-4.28-11.76-.62-15.58C442.94 644.43 451.3 650.5 453.58 653.12z" fill="#f7a2cb" fill-rule="evenodd"/><path d="M227.52 729.15c-5.46 3.39-14.63 4.12-20.1.31-5.81-4.05-10.11-13.93-10.13-23.22.0-3.28.76-7.3 3-8.1 3.46-1.25 5.05 2 7.33 2.5a14.73 14.73.0 0 0 4.51-.32c1.4-.18 2.86-.35 4.21-.62 2.29-.45 6-.89 7.17-2.49 1.53-2.06.3-6.87 4.05-6.55 1.91.17 3.07 2.8 3.89 4.68 3.31 7.54 6 20.15 2.49 29.29C232.81 727.51 230.84 731.73 227.52 729.15z" fill="#f7a2cb" fill-rule="evenodd"/><path d="M119.71 183.7a20.35 20.35.0 0 1-18.23-.31 17 17 0 0 1-8.42-19.94c.37-1.29 1.34-2.68 1.25-3.74s-1.81-2.34-2.34-3.58a5.35 5.35.0 0 1 6.55-7.33 9.19 9.19.0 0 1 2.65 1.56 50.6 50.6.0 0 1 12.3-2.8 11.18 11.18.0 0 0 4-.94c1.84-1.14 3-7.6 7.48-5.29 1.65.83 2.45 4 1.09 6.07-.3.54-1.43.33-1.87.62a2.73 2.73.0 0 0-.93 1.56c-.25 2.26 3.28 4.29 4.36 6.08 3 5 3.47 12.63.78 17.92a17.28 17.28.0 0 1-5.76 6.69C121.25 181.22 119.87 181.38 119.71 183.7zM107.4 158.46c-.17 1.89.89 1.85.62 3.59-.18 1.19-1.15 1.47-1.4 2.18-1.09 3.05.63 6.11 1.87 7.32a11 11 0 0 0 7.16 2.8 8.4 8.4.0 0 0 6.24-4c1.08-2.23.67-6.83-.78-8.57-.91-1.08-3-1.41-4-2-2-1.23-3.16-4.91-6.23-4.52A3.87 3.87.0 0 0 107.4 158.46z" fill="#ffce43" fill-rule="evenodd"/><path d="M379.11 158.93c4-.09 9.23.52 12.93 2.18 10.13 4.54 15 15 18.85 26a184.46 184.46.0 0 1 6.54 23.53c5.07 25 5.94 54.18 10.29 79.61 1.43 8.4 3.63 16.46 5.6 24.46 4 16.16 8 31.63 11.69 48.29 1.82 8.25 3.15 16.78 4.67 25.24s3 17.23 4.21 25.87 3.2 17 4.83 25.08c1.74 8.66 2.66 17.43 3.89 26.17s2.91 17.13 4.37 25.55 2.91 17 4.51 25.4 2.85 16.91 4.68 25.24c1.88 8.58 3 17.07 4.67 25.39.83 4.2 1.9 8.08 2.81 12.15 1.07 4.83 1.26 10 1.55 15.43.0.32.0.64.0.93s.29.41.32.63a11.83 11.83.0 0 1-.32 3.42 9.7 9.7.0 0 1-2.18 5.3c-2.43 2.78-6.91 3-11.21 3.74-4.07.72-8.23 1.68-12.47 2.49-12.58 2.41-25 5.08-37.7 7.33-8.31 1.47-16.5 3.41-24.3 5.6s-15.5 4.68-23.53 6.55-16.12 3.63-24.46 5.45-16.24 3.69-24.3 5.76-15.88 4-24.15 5.77-17 2.85-25.4 4.67c-8.21 1.79-16.4 3.46-24.61 5.3-8 1.78-15.66 4.1-23.53 6.54-7.71 2.4-15.64 4.49-23.68 6.23-8.57 1.86-17.33 2.44-25.71 4.21-8.1 1.71-15.85 4.7-23.68 6.23-1.46.29-2.5.7-3.74-.31a4.71 4.71.0 0 1-1.4-2.18c-3.1-6.47-4.71-14.55-6.23-22.74s-3.08-16.43-4.68-24.15c-3.28-15.91-6.46-32.48-10.43-47.21-4.09-15.16-8.64-30-12.47-45.18C107.7 508.59 102.62 474.24 97 442c-2.9-16.5-5.6-32.87-8.88-48.76-6.37-30.84-14-62.54-20.72-94.57-1.65-7.87-2.89-16.07-3.9-24.93s-1.54-18.16-.15-26.79c.69-4.32 1.61-8.07 3.74-10.75s5.15-4.39 8.25-6.08a128.52 128.52.0 0 1 20.41-8.41c14.21-4.77 30.16-8.18 46.27-11.38s31.84-6.76 47.05-10.59c30.21-7.61 61.27-15.72 92.39-22.9 15.41-3.56 31.23-7 47.36-10.29 7.86-1.61 16-3.1 24.31-4.51S370.18 159.14 379.11 158.93zm-32.56 25.71c-9.77 1.23-18.77 3-28.52 4.2-6.57.85-13.07 1.35-19.47 2.34s-12.36 2.33-18.38 3.43c-6.29 1.14-12.3 2.27-18.08 3.58-17.63 4-34.05 10.28-49.23 16.2-10.6 4.14-20.3 8.45-28.2 15.27S171 244.3 167.85 256.46c-2.93 11.47-3.28 25.55-3.27 40.19a300.5 300.5.0 0 0 3 40.67c.89 6.68 1.67 12.76 3.27 18.38a49.38 49.38.0 0 0 6.85 15c3 4.33 6.38 8.5 11.06 10.75s11.37 2.71 18.86 1.71c6.16-.82 12.22-2.06 18.22-3.42 12.06-2.76 23.81-5.22 34.9-8.73 5.5-1.74 10.78-3.93 16.21-5.61s11.06-3.33 16.66-5 10.83-3.76 16.05-5.77c10.61-4.07 21.37-7.39 32.09-11.53 10.22-3.93 21.5-7 32.72-10.75 8-2.64 15.51-6.39 23.68-9 2.78-.9 6.9-1.55 9.51-.78 1.56.45 3.34 2.79 4.2 4.36S413 332 416 331.4c1.74-.32 1.75-2.35 1.4-4.52-.95-5.88-2-11.42-2.8-16.83-1.14-7.45-2.45-15.55-3.74-22.59-1.34-7.28-3.17-14.3-4.67-21.5s-3.18-14.64-4.68-21.65c-1.55-7.29-2.86-14.62-4.67-21.5A114 114 0 0 0 390 203.33c-2.79-5.92-6.49-11.43-11.53-14.8s-13.67-5.05-21.65-4.67C353.32 184 349.85 184.22 346.55 184.64zm34.74 229.17a116.71 116.71.0 0 0 6.7-20.25c2.14-8.91 3.66-23.78-.47-31.31-1.56-2.85-4.86-5.57-9-4.83-8.47 1.48-10.93 11-13.24 19.16-5.05-4.14-10.33-10.38-19.32-10-4.23.19-8 2.68-9.35 5.45-3.87 8.17.34 16.76 4.37 22.12 5.89 7.86 14.14 13.75 22.28 19 4.35 2.82 9.21 5.69 14.64 6.08C379.83 418.24 380.36 415.9 381.29 413.81zM241.54 427.37c-5.84 1.25-11.42 2.55-17 4.05-11.13 3-22 5.78-33.34 8.57-2.7.66-5.5 1.44-8.26 2.18-8.33 2.22-16.77 4.44-24.31 7.17-10.69 3.87-19.21 9.2-24.45 17.45-2.72 4.26-3.9 10.14-3.9 17a119.87 119.87.0 0 0 1.87 19.16c3 17.62 8.46 34 12.62 50.17 1.4 5.46 2.3 11.29 3.58 17.45 1.12 5.38 2.55 11.11 3.59 17.29.42 2.51.7 5.46 1.4 9 .48 2.45.54 7.39 3.43 7.16 2.48-.2 2.13-4.81 2.8-7.16a30.19 30.19.0 0 1 3-7c2.66-4.25 8.91-6 15.27-7.32s13.27-2.53 18.85-3.89c6.11-1.5 12.46-2.53 18.54-4 3-.76 5.92-1.73 8.88-2.5 3.12-.81 6.33-1.28 9.35-2s5.84-1.64 8.88-2.34c9.41-2.17 19.34-3.16 28.51-5.61 6.14-1.64 11.88-3.24 17-5.76 9.94-4.92 18.88-11.9 21.19-24.15A98.62 98.62.0 0 0 310.24 511a355.08 355.08.0 0 0-3.58-41.75c-2.16-13.73-5.43-24.57-12.15-33.19-3.63-4.65-7.09-7.5-13.56-9.19a74.73 74.73.0 0 0-20.72-2A111.32 111.32.0 0 0 241.54 427.37zm116.38 44.71a20.58 20.58.0 0 0-5-3.27 11.69 11.69.0 0 0-11.53 1.71 17.67 17.67.0 0 0-5.14 10.6c-.61 6.16 1.47 11.73 3.59 16.36 4.49 9.82 10.09 16.39 16.82 24a47.35 47.35.0 0 0 5.14 5c2.17 1.76 4.64 3.88 6.7 3.58 1.43-.21 3.27-2.69 4.68-4.52 6.85-8.95 11.14-19.51 14.49-31.63 1.34-4.88 2.82-10.27 2.8-15.73a27.42 27.42.0 0 0-1.4-7.79c-.7-2.19-2-4.62-3.58-5.61a8.15 8.15.0 0 0-5.3-.78c-7.92 2.33-10.86 11.07-14.49 18.38C363.56 478.77 361.14 474.87 357.92 472.08zm88 64.19c4.91-7.33 9.77-15 11.38-26 .79-5.45.72-12.72-2-15.73-2.07-2.26-6.58-2.39-9.5-1.09-7.62 3.38-10.85 12.61-15.58 19-2.75-3.69-4.76-8.28-8.1-11.21a14.24 14.24.0 0 0-3.43-2.34c-6.33-2.72-12.93.24-15.89 3.74a18.17 18.17.0 0 0-4.05 12.93 32.73 32.73.0 0 0 2.49 9.66 43.39 43.39.0 0 0 9.66 14.8c2.15 2.15 4.54 3.8 6.39 5.92-1.26 5.5-3.1 10.4-4.37 15.89-5.34-3.86-9.22-9-17.91-8.1-3.57.39-7.25 3-9.19 5.14-2.3 2.57-4.08 5.92-3.59 11.53.42 4.71 3.19 9.16 6.23 12.46 3.94 4.27 9.77 7.7 16.05 11.38 6 3.49 12.85 6.46 20.57 7 1.74.12 4.15.39 5.45.0 1.72-.52 2.09-2.06 2.65-4 .29-1.06.69-2.09.93-3 1.71-6 2.46-13.42 3.27-19.63 1.19-9 2.08-19.84.16-28.2A92.09 92.09.0 0 0 445.94 536.27zm-215 85.84a5.44 5.44.0 0 0 2.5 4.37c3.43 1.73 6.69-1.61 6.38-5-.27-3-3-4.36-6.23-3.58C231.89 618.31 230.9 620.17 230.94 622.11zm-13.86 2.34a6.08 6.08.0 0 0-1.09-1.4c-1.28-.86-4.25-.49-5.46.15-4.72 2.52-3.2 12.16 3.12 10.91 1.37-.27 1.73-1.09 3-2.49C220.54 631.31 218.1 626 217.08 624.45zm-27.58 4c-4.49 1.88-4.06 11.39 2 11.22 2.63-.08 3.92-2.66 5-4.36a5.45 5.45.0 0 0 .94-3.74c-.4-2.67-2.16-3.81-4.83-3.59A12 12 0 0 0 189.5 628.5z" fill="#ffce43" fill-rule="evenodd"/><path d="M308.06 684.59a10.62 10.62.0 0 0-.15-2.18c1.6-.49 3.53-2.09 5.61-1.72a2.77 2.77.0 0 1 2.18 2.5c.07 1.86-1.9 3.63-3 5a55 55 0 0 1-3.59 4.36c-.75.0-1.37-.45-2.18-.31a2.49 2.49.0 0 0-1.71 1.72c-.41 2 1.53 4.58 2.65 6.38.56.91 1 1.93 1.71 2.81s1.59 1.59 2 2.34a19.36 19.36.0 0 1 1.4 4.2c-2.66.29-4.78-1.06-6.54-2.18s-3.41-2.72-5.15-3.89c-.74 1.89-1.39 3.81-2.33 5.92-.79 1.76-1.66 4.33-3.59 4.67-5.12.91-3.34-7.43-4.51-11.37-5.59.21-11.77.08-11.84-4.37.0-2.59 2.94-4.57 4.67-5.76 2.24-1.54 4.36-2.62 6.23-4.05-.39-5.33-2.74-13.83 2.18-15.89.13.0.15.06.16.15s.15.06.15.16a73.13 73.13.0 0 0 5.3 12.46c.94 1.67 1.84 3.38 4.21 3.12S306.7 686.05 308.06 684.59z" fill="#ffce43" fill-rule="evenodd"/><path d="M301.91 683.26c-1.06-2.16-2.19-4.24-3.12-6.38" fill="#ffce43" fill-rule="evenodd"/><path d="M918.79 846.15v5.61c-12-7.69-22.94-16.64-33.81-25.55-5.47-4.48-11-8.88-16.2-13.56s-10.69-9-15.9-13.71c-20.79-18.68-40.61-38.23-58.26-60.29-4.4-5.49-8.39-11.48-12.31-17.45-11.75-17.87-20.94-38-31.63-57.18-3.53-6.32-7.14-12.63-10.75-19-10.65-18.8-20.11-38.93-30.07-58.74-1.68-3.34-3.38-6.6-5-10a215.44 215.44.0 0 0-10.6-19c-1.87-3.09-3.56-6.3-5.45-9.35-3.83-6.17-7.14-12.59-10.44-19.16s-6.61-13.1-10-19.63S661.8 496 658 489.84c-7.43-11.93-16.55-23.11-23.68-35.52-3.6-6.26-6.84-12.79-10.12-19.47a404.25 404.25.0 0 1-17.45-41.91c-2.6-7.24-5.35-14.35-8.11-21.5-5.37-13.94-10.55-29.58-18.85-40.51a44.25 44.25.0 0 0-7.16-7.63c-2.62-2.17-5.27-4.43-8.11-6.7a116.91 116.91.0 0 1-14.8-14.8 94.28 94.28.0 0 1-9.65-12.62c-.47-.76-1-1.58-1.41-2.34a6.78 6.78.0 0 0-1.4-2.18c-7.17 2.14-17.18 3.26-22.75-1.09-5.06-3.95-7.84-10.46-10.28-17.14a192.22 192.22.0 0 1-10-45c-7.88 2.41-12.85 8.07-16.51 14.65s-6.24 14.44-8.1 23.06c-3.59 16.58-3.14 40.42-.32 57.8a154.83 154.83.0 0 0 6.23 24.93 134.69 134.69.0 0 0 9.2 22c3.49 6.3 7.92 12.75 13.4 17.76A63.78 63.78.0 0 0 512 391.07c1.56.77 5.68 2.29 3.43 4.83-1.42 1.6-4 0-5.61-.78-2.2-1.09-3.56-2.15-5.14-2.81-1.46 6.75-.79 13.39.0 19.63 3.15 24.94 14.2 42.87 19.78 65.59a67.35 67.35.0 0 1 2 19.32c-.54 12.22-5 19.61-9.19 28.2a39.29 39.29.0 0 0-1.72 3.59c-.56 1.58.35 5.37.78 8.1 3.06 19.12 6.69 38 9.51 56.86.83 5.54 1.54 11.06 2.33 16.67 2.31 16.36 4.63 33.34 6.08 50.79 1.86 22.45 4.62 48.14 2.18 72.14-1.16 11.4-2.37 23.27-5.76 32.25s-9.43 15.72-16.83 21a107.3 107.3.0 0 1-12 7c-4.12 2.19-8.36 4.57-12.61 6.39-8.79 3.76-18.2 6.79-27.74 10.13s-19.45 6-29.44 8.56-19.75 5.9-29.29 8.57c-10 2.8-20.06 5.34-30.23 7.79s-20.41 4.6-30.69 7.17c-5.18 1.3-10.3 2.53-15.58 3.43-5.46.93-11 1.45-16.67 2.33-10.69 1.68-21.44 4.46-32.56 5.3-.6.14.44.81.78 1.09 6.39 5.29 13.78 10.13 20.88 15 7.63 5.19 15.76 9.75 23.83 14.49 12 7 24 14.34 36.3 21.18 4.12 2.3 8.43 4.33 12.62 6.55C388.2 920.3 405.09 929 422.57 937c8.83 4 17.93 7.62 27 11.37s17.93 7.62 27 11.38 18.07 7.34 27.42 10.9 19 6.52 28.82 9.5c24.16 7.32 51.54 12.44 67.62 28.2 3.18 3.13 6.13 6.48 9.35 9.82 6.32 6.56 13 13 18.54 19.78 11.57 14.09 23.18 27.47 34.43 42.07h-5.92c-5.6-7.29-11.23-14.29-17-21.19s-11.39-14-17.45-20.88c-2.93-3.34-6.25-6.47-9.35-9.81s-6.21-6.55-9.35-9.82a115.1 115.1.0 0 0-9.66-9.5 60.78 60.78.0 0 0-11.68-7.48A162.92 162.92.0 0 0 554.38 991c-20-5.6-39.87-11.15-58.27-18.38S460 957.58 442.05 950.22c-9.05-3.71-18-7.46-26.8-11.53-17.38-8.05-34.2-16.89-50.94-25.7s-32.62-18.7-48.61-28c-8.07-4.72-16.08-9.41-23.68-14.64a265.63 265.63.0 0 1-21.82-16.52c-8.48.56-16.8 1.6-25.23 2.65s-16.89 2.25-25.55 2.5a93 93 0 0 1-25.4-2.65 34.22 34.22.0 0 1-17.45-10.6 65.77 65.77.0 0 1-6.23-7.63 134.48 134.48.0 0 1-12-23.06 15.48 15.48.0 0 0-.93-2.49c-.53-.71-1.32-.86-2.34-1.25A218.8 218.8.0 0 1 117.21 793a257.67 257.67.0 0 1-24.92-17 65.23 65.23.0 0 1-7.48-6.54c-8.93-9.8-14.32-23-17.45-38.64S62.7 698.72 58 684.12c-2.09-6.49-5.77-14.26-5.61-22.43.13-6.68 2.78-11.46 6.39-14.65 1.21-1.07 2.6-2 3.89-3.11a76 76 0 0 1-15.89-25.71c-3.52-9.31-5.29-20.59-7.32-31.31-1.31-7-3.88-13.28-6.39-19.48-2.4-5.95-5.11-11.8-7.16-18.54s-3.35-15.44-.63-22a23.22 23.22.0 0 1 5.46-7.32c6.46-6.34 15.94-10.78 29-9.19.31-.59-.55-.6-.78-.78-2.52-2-5-3.95-7.47-5.92-8.62-6.76-17.41-12.92-25.4-20.41a99.15 99.15.0 0 1-14.33-16.2c-4.2-6.19-8.18-12.71-10.28-20.41-5.37-19.63 5-34.89 16.67-41.6a42.43 42.43.0 0 1 10.75-4.52c13.2-3.26 27.24 1.33 35.83 5.92.4.21 1 .79 1.09.31q-3.27-17.52-7.32-34.27c-4.92-1.61-9.07-4.74-13.09-7.79a90.13 90.13.0 0 1-28-35.06 57.81 57.81.0 0 1-4.68-16.36 29.6 29.6.0 0 1 3-17.44c4.77-9 12.66-15.36 25.71-16.36.27.0.36-.27.31-.63-6.93-35.25-14.06-70.46-18.07-108.74-1-9.49-1.63-19.11-2.34-29s-1.45-19.85-1.4-29.91a79.35 79.35.0 0 1 1.09-14.49 26.33 26.33.0 0 1 5-10.75c4.37-5.8 10.68-9.48 18.22-13.09A254.3 254.3.0 0 1 78 59.84C86 57.35 94.72 55.73 103 53.61c12.35-3.14 24.7-6.89 36.76-10.28 16.39-4.6 32.78-9.24 49.7-12.93 8.55-1.87 17.13-3.66 25.86-5.45s17.43-3.33 26.33-5c17.42-3.24 34.11-7.35 51.42-11.06C301.75 7 310.74 5.66 319.9 4.38S338.34 1.76 348 1.11 368.42-.52 377.86.33 395 4.27 400.3 9.21 408.65 21.43 411.82 29a233.62 233.62.0 0 1 8.11 23.21c4.87 16.12 9 32.77 13.08 49.54s8.25 33.79 11.69 50.95 7.11 34.52 10.75 51.88 6.7 34.79 9.66 53c2.59-9.7 4.94-18 9.66-25.39 4.46-7 10.35-13.6 19.63-15.58 5.76-1.24 10.92-1.07 14.17 1.87 2.9 2.61 4.93 6.8 6.7 10.9s3.31 8.49 5 12.62 3.86 8.05 5.76 11.84c3.88 7.72 8.15 15.11 12.31 22.75 2.13 3.9 4 7.78 6.23 11.37a79.2 79.2.0 0 0 7.64 10c2.73 3.12 5.47 6.25 8.41 9.19 5.83 5.84 13.48 10.4 18.85 16.36 8.46 9.39 13.75 21.32 18.7 34 3.25 8.32 6.6 16.83 9.81 25.39s6 17.45 9.35 25.86 7.39 16.3 11.06 24.15a242.11 242.11.0 0 0 12 23.06c4.37 7.21 9.47 14 14.33 20.88a195.53 195.53.0 0 1 13.4 21.81c6.07 11.6 11.89 23.29 17.76 34.9 1.94 3.84 4.2 7.49 6.39 11.21 4.33 7.39 8.87 14.67 12.93 22.28s7.9 15.52 11.84 23.37c5.86 11.66 11.71 23.61 17.45 35.21 1.92 3.89 4.08 7.59 6.23 11.37 4.26 7.5 8.41 15.08 12.62 22.6 8.53 15.22 16.19 30.79 24.62 45.8a257.41 257.41.0 0 0 29 41.29c5.37 6.25 11.11 12.34 17 18.22s11.56 11.9 17.6 17.61 12.17 11.2 18.54 16.67 12.39 11 18.85 16.36C891.45 825.76 905.05 837.1 918.79 846.15zM331.28 7.34C325 8.15 318.84 9.13 312.74 10s-12.17 2-18.08 3.27c-17.63 3.8-34.8 7.77-52.5 11.22-5.95 1.16-12 2.13-18.07 3.27-11.86 2.23-23.45 4.89-34.9 7.48s-22.86 5.33-34 8.57S133.05 50.09 122 53.15s-22.32 6-33.81 8.72A148.89 148.89.0 0 0 71.88 66.7 250.91 250.91.0 0 0 42 79.16c-4.79 2.46-9.3 5.49-12.15 9.19-3.14 4.09-4.77 9.14-5.14 16.05a175.73 175.73.0 0 0 .15 20.88c1 13.64 1.46 26.53 2.81 39.73 3.95 38.54 10.69 74.35 17.76 109.68 4.73 23.61 7.84 49 12.31 72.6 2.23 11.8 4.94 23.36 7.63 34.9s5 23.22 7.48 35.05 4 24.06 6.08 36.46c3.75 22.63 7.35 45.88 11.21 68.24a47.33 47.33.0 0 0 .78 4.67c.32 1.07 1.34 1.95 2.18 3.12a68.41 68.41.0 0 1 11.38 25.86c2.52 11.47 2.52 26.74 1.09 39.26-.09.79-.22 1.59-.31 2.34a20.13 20.13.0 0 0-.47 2.18 9.52 9.52.0 0 0 .62 2c.21.72.31 1.44.47 2.18 3.72 17.59 8 34.83 11.84 51.73 1.34 5.92 2.23 11.91 4 17.29.93 2.74 1.68 5.47 2.34 8.26 4 17.14 9 33.73 13.24 50.63s8.43 34.29 13.4 50.33c1.67 5.4 3.49 10.76 5.45 15.89a277.06 277.06.0 0 0 13.09 29.44c1.23 2.33 2.37 4.64 3.74 6.86a45.32 45.32.0 0 0 4.67 5.92c3.57 4 7.06 7.56 11.53 9.81 4.63 2.33 10.63 3.52 17 4.21 13.57 1.48 27.11-.69 39.26-2.18 12.8-1.57 26-2.37 38.49-4 6.18-.84 12.22-2 18.22-3.12s12.24-1.94 18.39-2.8a165.53 165.53.0 0 0 17.76-3.59c11.54-2.9 23.11-5.25 34.43-7.94s22.57-5.73 33.65-8.88c5.43-1.54 10.77-3.45 16.2-5 5.64-1.59 11.35-2.84 17-4.36 11-3 21.71-6.8 32.09-10.44 5.42-1.9 10.55-3.63 15.42-5.76s9.37-4.63 14-7.17a93.93 93.93.0 0 0 13.08-8.1A39.8 39.8.0 0 0 524 769c5.15-9 6.34-21.55 7.63-34.9 2.68-27.63-.2-55.17-2.65-80.39-2.5-25.75-6.26-50.39-10.12-74.94-1.93-12.21-4.3-24.34-6.24-36.3-2-12.32-3.89-24.43-5.92-36.45-3.08-18.33-5.75-36.89-8.56-55.16-1-6.18-1.86-12.3-3-18.38-2.16-11.88-4.74-23.6-7.17-35.37-1.6-7.73-2.62-15.28-3.9-22.59a22.36 22.36.0 0 0-.93-4.36 35 35 0 0 0-1.87-3.43 143.45 143.45.0 0 1-13.4-34.43 150.81 150.81.0 0 1-5.14-37.39c0-3.53-.16-7-.16-10.44s.5-6.92.32-10.28a81 81 0 0 0-1.41-9.19c-.54-3.11-.95-6.31-1.4-9.35-3.58-24.24-8.77-48.4-13.55-71.35-2.44-11.69-4.94-23.42-7.32-35.21-2.36-11.63-5.22-23.16-7.95-34.59C425.92 92 420.52 68.94 413.69 47.07c-1.65-5.3-3.72-10.42-5.76-15.43a94.35 94.35.0 0 0-7-14.33 23.53 23.53.0 0 0-11.53-9.66c-5.16-2.23-12.45-3-18.38-3A327.8 327.8.0 0 0 331.28 7.34zm188.2 243.82c-3.45-7.32-6.31-16-10.13-23.52-1.17-2.32-2.9-5.55-4.83-6.55a9.47 9.47.0 0 0-5.45-.62c.74 15.4 5.07 32.25 9.82 45 1.72 4.64 3.39 9.29 6.07 12.46a13 13 0 0 0 3.27 2.8c4.53 2.32 11.86 1.1 16.83-.31C530.58 271.31 524.74 262.34 519.48 251.16zm-479.23 33a25.07 25.07.0 0 0-15 6.39c-5.11 4.48-8.84 11.31-8.25 20.72a48.27 48.27.0 0 0 5.45 18.54A87.66 87.66.0 0 0 43.21 357.1c4 3.43 8.2 7.17 13.09 9.35.07.0.64.77.78.16-6-26.27-9.87-54.74-14.49-82.42A6.26 6.26.0 0 0 40.25 284.19zM489.57 379.7c1.65 11.69 4.56 23.08 6.85 34.74 4.57 23.28 8 47.65 11.69 71.51 1.59 10.36 3.51 21 5.14 31.16a17.73 17.73.0 0 0 .93 4.36c4-8.34 8-15.93 7.79-28.2-.11-9.21-2.52-17.57-5.14-25.55-5.16-15.72-11.59-29.11-15.27-46.27-1.85-8.66-3.78-22.75-.78-31.47-1.7-2-3.94-3.32-5.76-5.14s-3.7-4-5.45-5.61zM53.18 406.49a48.27 48.27.0 0 0-18.85-2.34 27.47 27.47.0 0 0-8.57 2.34 44.42 44.42.0 0 0-10.44 6.23c-7.66 6.24-13.51 18.77-9.5 33 1.76 6.28 5.12 11.94 8.57 17.14a103.11 103.11.0 0 0 11.68 14.18 113.3 113.3.0 0 0 13.87 11.84c10 7.51 19.16 15 29.13 22.28a35.67 35.67.0 0 0 3.74 2.65c1.43.75 2.92 1.38 4.36 2.18a63.24 63.24.0 0 1 8 5c.12.38.46.0.15-.15C82.13 503 79.61 485 76.39 467.1s-5.35-36-9-53.6A52.15 52.15.0 0 0 53.18 406.49zm48.45 213.6c-.18 2.72.51 6.38-2.33 6.39-3.29.0-2.27-5.31-2-7.79.93-9.53 3.06-18.16 4-27.58 1.43-13.53.47-27.57-2.34-38.17C95.45 539.58 88.22 528 77.8 521.63a44.69 44.69.0 0 0-15-6.08c-8.84-1.88-18-.46-23.84 3.27-3.55 2.26-6.84 5-8.88 8.88A178.3 178.3.0 0 1 45.7 559c1.52 4 3 8.1 3.27 12.46a24.39 24.39.0 0 1-3 13.4c-.59 1.06-1.59 1.83-1.71 2.8s.53 2.63.78 4.05c1.72 9.94 3.46 19.22 6.7 27.11A66.91 66.91.0 0 0 67.36 641.9a43.16 43.16.0 0 1 13.4-3.12c15.36-1 24.88 7.34 31.47 15.58.24.3.53 1.45.78.78-3.44-14.27-6.66-28.76-10.13-43A77.24 77.24.0 0 0 101.63 620.09zM28.41 534.4c-.4 2.15.07 5 .47 7.32a47.29 47.29.0 0 0 1.55 6.08c3.61 11.81 9 21.68 12.47 33 2.62-6.08 1.29-13.24-.94-19a166.54 166.54.0 0 0-13.39-27.73c0-.1.0-.18-.16-.16zm97.37 194.12c.15.86.92 2.38.94 3.74s-.52 2.66-2.18 2.65c-3.5.0-3.83-10.25-3.9-13.24-.28-11.54 1.24-23 .16-33.34a64.78 64.78.0 0 0-3.28-14c-4-11.79-11.56-23.87-22.9-28.67a30.82 30.82.0 0 0-15.42-2.18c-7.85 1.16-15.11 3.74-19.32 9.19 3.6 4.46 6.11 9.67 8.72 15 1.28 2.57 2.64 5.25 3.74 8.1 1.62 4.17 3.4 8.64 3 14.33-.39 5.15-2.66 9.17-5.14 12.62-.75 1.05-2.21 2.68-2.33 3.58a15.47 15.47.0 0 0 .31 2.5c.13.87.34 1.72.46 2.49 2 12.17 3.91 23.35 7.33 33.5a60.71 60.71.0 0 0 7.63 15.73c4.74 6.94 11.26 12 18.07 16.83 16 11.31 33.19 21.6 53 28.82-12.51-30.8-19.54-67.08-29-101C125.66 712.52 124.58 721.29 125.78 728.52zm-67-56.24c2.74 8.84 6.38 17.79 7.79 27.42 2.39-2.48 4-6.67 4.21-10.9.21-3.91-1.05-7.1-2.19-10.13-2.81-7.53-7.14-14.84-10.59-21.19-.16.0-.18-.13-.31-.15s0-.19-.16-.16C56.35 662.63 57.29 667.43 58.79 672.28z" fill="#0e0e0e" fill-rule="evenodd"/><path d="M281.58 40.84c2.38-.12 3.86.31 4.83 2.49.73 1.66 1.46 5.35.62 7.48-1.24 3.13-6.7 4.25-10.59 5.3-12.83 3.44-25.31 6.45-38.64 9-14.48 2.8-25.35 5.14-39.57 8.1-1.89.4-4.24.88-6.7 1.25s-5.74.59-7-.16-3.18-6-2.18-8.41c.55-1.37 2.7-1.76 5.29-2.49 5.34-1.51 13.2-4 17.92-5.3 20.31-5.7 41.62-9.78 62.78-14.8 2.05-.49 4.12-1.1 6.24-1.56A42.9 42.9.0 0 1 281.58 40.84zm-12.31 6.85c-4 .92-8 2-12 3C241 54.45 224.58 57.55 209 61.87c-5.88 1.63-11.52 3.53-17.3 5.14-1.6.45-5.17.24-4.36 3.12 4.16.05 8.27-1.06 12.31-1.87s8.1-1.68 12.15-2.5c22.29-4.5 45-9 65.75-14.8 1.75-.48 3.82-.77 5.14-2.18a6.46 6.46.0 0 0-.47-3.42C278.28 45.51 273.58 46.7 269.27 47.69z" fill="#0e0e0e" fill-rule="evenodd"/><path d="M391.26 53.15s.05-.16.16-.16A5.13 5.13.0 0 1 395 55.17a23.18 23.18.0 0 1 1.71 4.21c1.57 4.3 3 9.1 4.21 13.55 1.73 6.42 3.5 12.65 5 18.7 3.26 13.25 5.85 26.07 8 39.26 1.09 6.88 2.11 13.71 3.27 20.41s2.68 13.21 3.74 19.78c4.34 26.81 8.78 54.39 13.87 80.71 5.12 26.52 9.87 52.41 15.42 79 2.78 13.29 4.4 26.85 7 40.2s5.25 26.34 7.79 39.57c1.29 6.73 2.17 13.52 3.43 20.26 3.67 19.64 7.09 39.89 11.22 59.51 1.35 6.44 3 12.78 4.51 19.16s2.76 13 3.9 19.63c2.29 13.26 4.91 26.47 7.32 39.89 2.37 13.18 4.43 26.83 6.39 40.82 1.84 13.11 3.83 27.56 6.23 41 1.13 6.34 2 13.48 3.12 20.57.73 4.58 1.67 10.22 2.18 15.58.39 4.14.74 6.66-2.34 7.79-6.48 2.36-13.33 4.1-20.25 5.92-20.42 5.34-41.7 10.9-62.79 15.73-28.38 6.51-57.48 12.14-86.47 18.23-14.67 3.08-28.87 6-42.84 9.5-27.67 6.89-56.15 13.23-84.91 19.79-6.8 1.55-13.67 3.65-20.88 5.3-3.35.76-6.67 1.64-10.43 2.65-1.6.42-3.83 1.21-5.46 1.08a5 5 0 0 1-3.74-2.64 39.21 39.21.0 0 1-1.4-4.68c-6.58-22.53-14.33-45.55-19.94-68.86C145.6 671 139.31 645.88 134 619.62c-2.7-13.44-4.73-26.85-7.48-40s-5.43-26.26-8.1-39.26-5.36-26.07-8.41-39c-1.53-6.43-3-12.87-4.37-19.32s-3-12.88-4.36-19.32C95.7 436.5 91 410 86.21 383 81.5 356.41 76.7 329.81 72 302.42c-2.23-13.09-4.63-27-7.16-40.35-2.57-13.55-5.09-26.88-7-40.35s-3.41-27.87-5.6-41.76c-1.82-11.48-3.51-24.19-5-36.45-.51-4.2-.88-7.14 2.18-8.88 2.55-1.46 6.31-2.28 9.82-3.43 9.92-3.26 20.22-6.71 30.07-9.66 14.14-4.24 27.87-7.87 41.44-11.37 14.19-3.67 28.4-6.88 42.53-10.44 21.19-5.34 43.06-9.93 64.5-14.8 7.24-1.65 14.41-3.16 21.5-5 14.13-3.63 28.24-7.12 42.53-10.28 7.16-1.58 14.47-3 21.81-4.67 17.86-4 36.66-7.36 55.78-10.29 3.83-.58 7.73-1.3 11.53-1.55zm-23.53 8.1C345 64.8 323.49 69.77 302 74.33c-14.23 3-28.18 6.92-42.22 10.29-14.25 3.41-28.52 6.56-42.85 9.66-28.69 6.2-57 13.2-84.75 20.25-26 6.6-51.69 14.11-75.87 22.43a24.39 24.39.0 0 0-4.83 1.87c2.8 27.12 7.4 52.43 10.44 79.3 7.2-1.72 14.32-3.76 21.5-5.61s14.59-3.61 22-5.29c14.64-3.34 29.31-6.91 43.94-10.44s28.94-7.47 43.46-10.91 28.94-7.25 43.32-11.06 29-7.27 43.46-10.9c14.65-3.69 29.35-6.83 43.94-10.44 7.17-1.78 14.26-3.79 21.34-5.77 14.51-4.06 29.07-7.24 43.16-11.21 7.08-2 14.18-3.7 21-6.24C404.62 104.65 399.24 80 391.26 58c-.16.0-.19-.12-.31-.15C383.55 58.55 375.38 60.05 367.73 61.25zm30.85 77c-3.53 1-7.07 2-10.59 3-14.38 3.94-28.64 7.4-42.85 11.37-21.41 6-43.49 10.62-65.28 16.05-14.55 3.63-29.06 7.21-43.31 10.91-28.87 7.5-57.76 14.66-86.62 21.81C128 206.73 106 211.5 84.18 216.89 77 218.65 70 221.07 62.84 222.65c0 .2-.2.22-.16.47 2.94 19.42 7.08 38.63 10.29 58 6.48 39.05 13.64 77.66 20.41 116.06 3.38 19.2 6.92 38.37 10.9 57.34 3.89 18.51 8.34 37.09 12.46 55.77 8.25 37.37 15.62 75.55 22.91 113.58 3.41 17.82 7.76 35.28 11.84 52 .3 1.23.22 2.71 1.09 3.28 17.16-4.7 34.81-9.07 52-13.71 10.39-2.81 21.07-5.43 31.93-7.64 21.69-4.4 43.68-9.42 65-14 7.19-1.55 14.46-3 21.66-4.67 14.2-3.32 28.48-6.78 42.84-9.82 21.64-4.57 43.21-9.9 64.81-14.18 7.37-1.46 14.78-2.67 22.12-4.2q21.57-4.51 42.85-9.82c-1.21-10-2.87-19.92-4.67-29.76s-3.39-19.6-5.3-29.29-3.51-19.3-5.61-28.82-4.5-18.78-6.39-28.2c-1.93-9.62-3.74-19.32-5.45-29s-3.65-19.51-5.3-29.29c-3.28-19.45-7.29-38.76-10.91-58.26-1.81-9.81-3.27-19.69-5-29.45s-4-19.09-5.92-28.66-3.87-19.21-5.61-28.83c-.89-4.91-1.53-9.91-2.49-14.8-2.83-14.32-5.78-28.79-8.41-43.31-1.8-9.88-3.22-19.83-4.83-29.76-2.42-14.84-5.2-29.73-7.64-44.24-.72-4.28-1.4-8.86-2.18-12.93-.09-.48.0-1.33-.62-1.56A96.53 96.53.0 0 1 398.58 138.21zM485.36 608.4c-10.82 2.52-21.53 5-32.25 7.17-7.28 1.51-14.65 2.71-22 4.21-22 4.51-43.24 9.25-64.81 14-14.32 3.17-28.46 6.72-42.53 10-7.2 1.67-14.5 2.89-21.66 4.52s-14.34 3.12-21.5 4.83c-14.43 3.44-29.06 6-43.46 9-14.23 3-28.15 6.91-42.07 10.44s-27.77 7.46-41.6 10.91c.41 3.68 1.59 7.19 2.5 10.75 4.64 18.33 9.41 35.81 15 53.12 2.24 7 4.17 14 6.39 20.88 13.62-3.23 27.22-6.94 41-10.12s27.81-6.31 41.76-9.51c20.7-4.74 41.31-10.2 62-14.64 14.09-3 28.32-5.8 42.38-8.88 7-1.55 14.16-2.88 21.19-4.37 28.35-6 56.37-11.73 83.35-19 13.47-3.63 27-6.67 39.89-11.38-3.11-29.19-8.95-55.66-12.31-84.6-.16.0-.19-.12-.31-.15C492.77 606.52 489 607.55 485.36 608.4z" fill="#0e0e0e" fill-rule="evenodd"/><path d="M154.92 71.37c4.83-.66 8.56 3.65 8.56 8.42.0 3.07-1.7 6.3-4 7.47C154 90 148.5 84.94 148.53 79.32 148.55 75.44 151.11 71.89 154.92 71.37zm1.55 12c3.63-.37 2.88-8.58-1.4-7.32C151.91 77 153 83.73 156.47 83.37z" fill="#0e0e0e" fill-rule="evenodd"/><path d="M342 104.87c2.34-.69 5 .6 4.2 3-.44 1.25-2 1.43-3.74 1.71a15.07 15.07.0 0 0 .63 4.83c1.89-.92 6-2.07 6.07.94.07 1.63-1.46 2.39-3 3a16.78 16.78.0 0 1-2.49.78c-4.66.61-5.55-4.06-5.92-8.42-4.47 1.15-5-5-.31-4.67.1-2-.76-4.06.47-5.3C340 98.64 342.88 101.57 342 104.87z" fill="#0e0e0e" fill-rule="evenodd"/><path d="M326 117.8c2.09 1.51 5.81-.63 6.08 2.49.18 2.12-2.46 2.81-4.05 2.81a8.17 8.17.0 0 1-8.11-7.48c-.58-4.85 1.57-8.32 4.37-9.82.67-.36 4.1-1.42 6.23.0a5 5 0 0 1 2 3.9C332.63 113.74 329 116.51 326 117.8zm-1.4-4.52a4.19 4.19.0 0 0 3.27-3.58C325.58 109.71 324.8 111.22 324.58 113.28z" fill="#0e0e0e" fill-rule="evenodd"/><path d="M311.33 120.29c1.42 2.56 6.72-.54 6.86 3.12.08 2.12-2.5 2.79-4.83 2.65-5.14-.32-8.69-5.15-7.94-11.06.42-3.41 3.26-6.75 6.85-6.86a5 5 0 0 1 5.14 4.21 7.47 7.47.0 0 1-3.74 7.16A6.77 6.77.0 0 1 311.33 120.29zm-1.24-4.36a3 3 0 0 0 2.65-3.12A2.75 2.75.0 0 0 310.09 115.93z" fill="#0e0e0e" fill-rule="evenodd"/><path d="M293.89 126.21c-.89 2.5-2 5.12-4.83 4.52-2.65-.55-4.56-6.09-5.61-9a12.06 12.06.0 0 1-1.09-3.73 2.31 2.31.0 0 1 2.65-2.18c1.64.2 2.24 2.7 2.64 3.89.66 1.91 1.12 3.25 1.72 4.83 1.28-2.34-.49-8.33 3.89-7.32 2 .46 2.69 4.68 4.21 5.92 1.41-2.47-.39-8.44.93-11.22a2.37 2.37.0 0 1 4.37.78 26.28 26.28.0 0 1-.16 4.21c-.2 4.49-.17 10.67-3.11 12C297 130 295.48 127.89 293.89 126.21z" fill="#0e0e0e" fill-rule="evenodd"/><path d="M277.06 129.64c-2.15-2.59-5-2.18-5.3-6.08a6 6 0 0 1 1.25-4.2c1.17-1.58 4.82-4 6.54-2 1.57 1.8-.2 3.17-1.4 3.9-.68.41-1.77.68-1.71 1.71s1.91 1.47 2.8 2.18c1.43 1.14 3.18 3.08 2.34 5.92a7.33 7.33.0 0 1-2.49 3c-1.21.83-6.15 2.6-5.77-1.24C273.51 130.82 275.66 131.05 277.06 129.64z" fill="#0e0e0e" fill-rule="evenodd"/><path d="M247.93 134c-1.14-.81-3.06-1.32-4.52-2.49-1.14-.91-2.68-2.37-2.81-3.58a2.19 2.19.0 0 1 2.65-2.5c2.05.3 3.07 3.58 5.61 3.74 1-2.26.33-5.58 2.49-6.07a2.38 2.38.0 0 1 3 2c.14 1.08-.44 2.92-.77 4.68-.64 3.31-1.9 11.72-4.21 12.15C244.62 142.82 247.53 136.2 247.93 134z" fill="#0e0e0e" fill-rule="evenodd"/><path d="M233.44 140.39c.75 2.19 1.08 5.78-2.18 5.14-2.34-.45-2.73-5.76-3.28-8.57-.25-1.28-.56-2.56-.77-3.74a19.67 19.67.0 0 1-.63-3.89c.4-2.07 4.56-3.26 7.32-2.8 3 .49 5.59 4.47 4.21 8.1a23.29 23.29.0 0 1-1.56 2c.07.91 5 2.75 5.61 3.9.53 1 .23 2.91-1.24 3.27-1.8.43-3.41-1-4.06-1.4A38.05 38.05.0 0 0 233.44 140.39zM232 134.16a1.75 1.75.0 0 0 1.1-3.12C230.58 130.58 232.15 132.74 232 134.16z" fill="#0e0e0e" fill-rule="evenodd"/><path d="M111 128.39c11-1 20.53 3.9 26.17 9a35.5 35.5.0 0 1 11.22 23.84c.7 10.85-4.23 20.12-9.35 25.7a35.63 35.63.0 0 1-23.68 11.38A35 35 0 0 1 77.8 165.63 35 35 0 0 1 87 139.77a34.63 34.63.0 0 1 19.78-10.91C108.08 128.61 109.41 128.54 111 128.39zm-21 15a31.05 31.05.0 0 0-7.48 22.75 29.48 29.48.0 0 0 10.28 20.25 29.94 29.94.0 0 0 22.9 7.32 30.74 30.74.0 0 0 20.26-10.28c4.84-5.51 8.54-12.21 7.79-22.75a30.67 30.67.0 0 0-10.28-20.25c-4.85-4.3-13.46-8.57-23.06-7.48A30.66 30.66.0 0 0 90 143.35z" fill="#0e0e0e" fill-rule="evenodd"/><path d="M220.82 140.7c1.57 1.73 5.61 1.78 5.61 4.68.0 3.39-3.76 1.82-5.61.78a25.65 25.65.0 0 0-3.27-1.87c-.23 1.12.76 2.5.46 3.73a2.28 2.28.0 0 1-2.65 1.56c-2.2-.28-2.69-5-3.11-7-.29-1.38-.48-2.89-.78-4.36-.34-1.68-1.1-3.83-.31-5.14 1.21-2 6.29-3.08 8.88-1.72a6.19 6.19.0 0 1 3 5.46C222.9 138.57 222.17 139.23 220.82 140.7zm-5.14-5.14a19.86 19.86.0 0 0 .46 2.81c1.05-.48 3-1.61 1.72-3C217.15 135.47 216.14 135.25 215.68 135.56z" fill="#0e0e0e" fill-rule="evenodd"/><path d="M266.31 133.07c1.52-.23 3.17-.21 3.43 1.56.4 2.79-2.88 2.92-5.61 3.74-2.05.61-4 1.72-5.45 1.55a2.45 2.45.0 0 1-2-1.87c-.29-2.31 2.33-2.77 4.05-3.27A42.7 42.7.0 0 1 266.31 133.07z" fill="#0e0e0e" fill-rule="evenodd"/><path d="M205.08 148.18c-.73.61-.78 1.7-1.24 2.49-1.26 2.13-4.79 4.42-7.33 1.72-4.18-4.46-2.84-17.31 5.3-16.36a14.21 14.21.0 0 1 2 .78c.85.29 1.47.1 2 .62s.85 2.19 1.25 3.43a26.94 26.94.0 0 0 2.8 6.54c.74 1.15 1.67 1.8 1.25 3.43a2.08 2.08.0 0 1-2.5 1.4C206.77 152 206.15 149.44 205.08 148.18zm-5.61.31c1.66-1.56 1.74-4.7 2.34-7.32C199 138.49 198.13 146.4 199.47 148.49z" fill="#0e0e0e" fill-rule="evenodd"/><path d="M171.9 147.87c5.74.76 7.58 6.93 4.2 11.06a14.38 14.38.0 0 1-4.67 3.12c-2.57 1.18-6.13 3.17-7.79.46-.7-1.13-1-4-1.4-5.6-.83-3.73-1.55-7.51-2.34-11.69-.32-1.71-1.24-4.35-.62-5.92.49-1.25 2.39-2 3.89-2.18C170 136.24 174.79 142 171.9 147.87zm-6.7.78c1.19-.93 3.24-2.51 3.11-4.36s-2-2.69-4.36-2.65C164.19 144.16 164.79 146.31 165.2 148.65zm7.94 6.07c.53-3.58-5-1.87-6.85-1.4.2 2 .8 3.57 1.09 5.45C169.39 158 172.81 157 173.14 154.72z" fill="#0e0e0e" fill-rule="evenodd"/><path d="M129.21 148.8c4.16 3.19 8.17 8.4 8.26 15.58.07 5.54-2.55 10.86-5.92 14.65a27.75 27.75.0 0 1-12.78 7.79c-12.81 3.55-24-2.8-27.57-11.69-1.72-4.28-1.8-10.85.31-15.11-.17-.81-1-1-1.41-1.4A8.84 8.84.0 0 1 87.61 153c-.08-6.68 9.14-10.7 13.56-5a44.45 44.45.0 0 1 15.57-4.51c.81-2 1.54-3.92 3.12-5a7.75 7.75.0 0 1 2.81-1.09C129.13 136.46 133 143.82 129.21 148.8zm-8-2.33c-.65 1.53-2.8 1.36-5.14 1.55a37.5 37.5.0 0 0-12.46 3.9c-1.44.74-2.14 1.79-4 1.4s-1.78-3-3.27-3.43A3.54 3.54.0 0 0 92.91 151a3.44 3.44.0 0 0-.16 3.74c.65 1.05 1.62.86 2.5 1.41a3.38 3.38.0 0 1 1.55 2.33c.17 1.66-1.26 3.35-1.71 4.83a15.41 15.41.0 0 0 3.43 14.8c3.54 3.59 8.72 5.52 15.58 5A22.16 22.16.0 0 0 130.46 173a17.52 17.52.0 0 0 2.33-9 13.68 13.68.0 0 0-5-10.44c-.79-.69-4.69-2.4-4.68-4.52.0-2.4 2.6-1.94 3-4.05a2.27 2.27.0 0 0-2.8-2.81C120.81 142.67 122 144.87 121.26 146.47z" fill="#0e0e0e" fill-rule="evenodd"/><path d="M185.61 151.61c2.23 1 6.43-.81 5.92 3-.25 1.83-2.58 2.19-5 2-4.77-.32-8.22-4.07-7.63-10.12a10.33 10.33.0 0 1 1.87-5c1.52-1.84 5.32-4.24 8.72-2.34a6.1 6.1.0 0 1 2.5 5C191.73 147.87 188.87 150 185.61 151.61zm-2.18-4.36c2.21-.3 3.92-1.87 3.89-3.9C185.13 142.6 183.63 145 183.43 147.25z" fill="#0e0e0e" fill-rule="evenodd"/><path d="M117.52 157.68c4.47.25 7.75 4.75 7.79 9 .06 6.28-5.94 10.79-12.61 10.13-7.22-.71-12.16-10-6.39-16-1.75-5.67 4.79-10 9-6.7A7.58 7.58.0 0 1 117.52 157.68zm-5.45 3c1.32-.19 1.25-3.23-.31-3C109.89 158 110.71 160.84 112.07 160.64zM108.33 168c.58 4.55 7.63 5.91 11.06 2.33 1.74-1.8 1.46-5.57-.15-7.16-.07-.07-1.41-1-2-.94a2.3 2.3.0 0 0-1.4 2.34c1.41.83 3.12.85 3.12 2.8a2.44 2.44.0 0 1-1.72 2.18c-.64.14-1.47-.31-2.18-.15s-1 .9-1.71 1.09a2.14 2.14.0 0 1-2.81-2c0-1.4.8-1.12.94-2.8-.45-.69-1.54-.74-2.49-.93C108.61 166.21 108.14 166.45 108.33 168z" fill="#0e0e0e" fill-rule="evenodd"/><path d="M123.76 155.5c3-1 3.76 3.19 1.4 3.9C123.12 160 120.85 156.45 123.76 155.5z" fill="#0e0e0e" fill-rule="evenodd"/><path d="M99.45 162.82c3.6-.81 3.08 4.4.16 4.06C97.86 166.67 97 163.38 99.45 162.82z" fill="#0e0e0e" fill-rule="evenodd"/><path d="M405.44 321.27c-6.09 1-11.78 3-17.45 4.83s-11.26 3.54-16.83 5.45c-11.15 3.83-22.42 7.08-33.81 10.6s-22.55 7.18-33.81 10.59-22 7.74-32.71 11.69c-2.81 1-5.69 1.76-8.57 2.64s-5.46 2-8.26 2.81c-5.64 1.68-11.6 3-17.76 4.52-5.82 1.39-11.94 3-18.23 4.05-6.56 1.08-13.2 2.28-20.09 2-14.34-.53-21.07-8.19-25.71-18.69-2.3-5.19-3.66-11.15-5.14-17.14s-2.84-12.09-3.9-18.23c-2.24-13.07-2.8-26.92-2.8-41.75s1.33-28.25 5-39.42a40.16 40.16.0 0 1 7.79-14.49c10.15-11.63 26.51-18 42.69-23.83 10.83-3.88 22.5-6.8 34.28-10.13s23.94-5.75 36.14-8.26 24.24-5.31 36.61-7.79c12.57-2.51 25.79-3.7 39.89-4.52a53.2 53.2.0 0 1 13.4.78c11.18 2.54 18 9.59 22.12 19.17 2.75 6.35 4.48 13.7 6.39 21.18s3.93 15.15 5.29 22.28c2.91 15.19 4.06 32.2 6.24 48.92 1.65 12.68 4 22.8 4.67 36.77.18 4.05.43 10.26-2.49 10.91s-6-4.23-7.48-6.39C408.9 326.86 407.16 323.62 405.44 321.27zm5.61-36.92c-1.67-14.86-3-30.05-5.77-44.4-1.26-6.59-3-13.48-4.67-20.26s-3.31-13.51-5.61-19.47c-4.74-12.29-13.37-20.44-30.54-19.63-3.4.16-7.19.45-10.59.77s-6.69.57-10 .94c-19.62 2.23-36.93 6.65-55 10.28-12.13 2.44-23.89 5.08-35.36 8.1s-22.86 6.12-33.81 9.82c-15.71 5.3-32.48 11.71-42.54 22.75a35.35 35.35.0 0 0-7.79 14c-3.45 11.23-4.51 24.43-4.51 39 0 14.21.75 27.88 3 40.66 1 5.86 2.42 12 3.89 17.76 3 11.82 5.85 23.45 15.11 28.51 4.59 2.51 11.31 3.17 18.7 2.49a154.89 154.89.0 0 0 18.54-3.11 350.45 350.45.0 0 0 50.79-14.65c20.72-7.89 43.39-14.6 65.59-21.5 5.39-1.67 10.93-3.49 16.51-5.14 11.43-3.36 21.54-6.94 33-10.59 2.54-.81 5.18-1.72 8.42-2.49 2.77-.67 7.16-2.11 9.19-1.41 1 .35 1.64 1.78 2.33 3 1.79 3 3.31 5.9 5.15 8.42.22.3 1 1.6 1.24.93C416 313.12 412.72 299.3 411.05 284.35z" fill="#0e0e0e" fill-rule="evenodd"/><path d="M326 251.94a40.44 40.44.0 0 1-2.65 4.21c-1.24 1.65-3 4.15-6.39 3a7.1 7.1.0 0 1-2.33-2c-2.55-3.44-3.24-10.63-3.43-16-.63.0-1.08.94-1.71 1.55a16.33 16.33.0 0 1-4.68 3.28c.13 7.31-1.4 14.54-4.52 19.31-1.67 2.57-4.4 6-8.57 4.21a8.64 8.64.0 0 1-2.64-2.34c-3.12-4-4-10.88-4.05-17.91-.51-.08-.78.58-1.09.93a26.64 26.64.0 0 1-3.59 3.43c.26 8.66-1.68 18.55-6.07 23.21-1.29 1.36-4.42 3-7 1.87-1.81-.77-3.18-3.44-4.05-5.45a32 32 0 0 1-2-7.48c-1.65 2.42-3.25 7-5.61 9.19a4.87 4.87.0 0 1-4.67 1.25c-1.75-.67-2.64-3.91-3.12-6.08a71.69 71.69.0 0 1-1.25-7.94c-.58-.28-.88.57-1.24.93s-.86.69-1.09 1.4c-.52 1.56-.36 3.51-.63 5.15a59.49 59.49.0 0 1-7.47 21.19c-2.16 3.49-5.86 8.45-12.16 7.78a9.67 9.67.0 0 1-3.58-1.24c-4.78-3-7.36-9.7-8.72-15.89-3-13.62-3.22-32 3.27-41.91a27.63 27.63.0 0 1 5.92-6.39c2.76-2.25 6.19-4.28 10.44-4.21 3.18.06 5.92 1.46 5.92 3.43a2.68 2.68.0 0 1-1.56 2.18c-1.39.33-2.41-.76-3.43-.93a8.1 8.1.0 0 0-3.12.15c-4 .9-8.35 5.09-10.43 8.42-4.87 7.77-5.26 20.58-3.59 32.56.78 5.58 2.15 11.08 4.21 14.64 1.27 2.2 3.72 5.65 7.48 4.36 4-1.35 6.85-7.41 8.41-11.21a56.39 56.39.0 0 0 4-15.58c-5.07.32-9.44-1.55-9.81-6.08s3.55-9.69 9-8.72a6.57 6.57.0 0 1 5 5.45c2.31-1.43 1.22-6.62 4.52-6.7 2 0 2.32 1.69 2.49 3.74.44 5.5 1 12.16 2.34 16.2 1.77-2 3.15-4.92 4.51-8.1.9-2.08 1.67-4.35 2.65-6.7a29.11 29.11.0 0 0 1.56-4.2 12.54 12.54.0 0 1 5-7.48c1.3-1 2.19-2.19 3.89-2.5 4.82-.85 7.81 2.83 8.88 6.39 3-2.31 4.49-6.1 7.17-8.72a11.07 11.07.0 0 1 5-6.86 7 7 0 0 1 3.9-1.56c5.4-.12 7.77 5.34 8.88 9.82a20.49 20.49.0 0 0 5.76-5.92 14.65 14.65.0 0 0 1.56-2.34c.45-1.06.41-2.11.78-3a7.58 7.58.0 0 1 8-4.83 67.39 67.39.0 0 1 0-13.55c.47-4.2 1.2-8.42 3.58-10.6a5 5 0 0 1 5-.77c4.79 2.22 3.66 16 3.12 22.43a128 128 0 0 1-3 20.1 14.26 14.26.0 0 0-.62 2.65 13.89 13.89.0 0 0 1.4 4.36c.41.93 1.43 3.14 2.34 3.27 1.8.26 3.83-3.56 4.67-5.14a69.06 69.06.0 0 0 5.61-14c.66-2.32.93-6.45 3.12-6.7a2.7 2.7.0 0 1 2.64 1.87c.15.85-.5 2.8-.93 4.36a84.1 84.1.0 0 1-4.05 11.53 45.19 45.19.0 0 1-3.43 7c-1.95 2.93-5.17 7.42-9.82 5.3C327.92 256 327.29 254.32 326 251.94zM326 234c1.18-8.72 2.73-20.22.94-29.44h-.47C323.25 212.35 324.48 225.28 326 234zm-9.35-3c-1.08 2-1.09 6.3-.93 9.82.25 5.62 1.05 11.32 2.8 13.71 1.46-.83 2.19-2.56 3-4.21.65-1.37 2-3.71 2-5.29.0-1-.64-2.32-.94-3.59-.88-3.78-1.33-7.94-2-11.68A2.77 2.77.0 0 0 316.63 231.06zm-22.12 5c-2.85 3.27.53 7.93 5.3 6.39C299.18 239.34 298.08 235.17 294.51 236.05zm-3.27 25.39c.52 1.39 1.75 3.81 3 3.74.9.0 2.32-2.29 2.8-3.11 2.42-4.14 2.92-9.19 3.12-15-4.65.61-8.11-1.06-10-3.74C289.08 248.39 289.51 256.86 291.24 261.44zm-21-14.33c-.47.74-.21 1.62-.31 3 .83 1.59 3.54 1.87 5.46 1.09C275.72 248.6 271.89 244.49 270.2 247.11zm-5 11.69c0 5.91 1.25 13.1 4.36 15.58 4.79-3.32 5.94-11.1 6.08-18.54a8.75 8.75.0 0 1-9.66-3.28A23 23 0 0 0 265.22 258.8zm-27.89-2.18c-1.9-.28-3.81 2.36-3.27 4.2.49 1.66 3.73 1.92 5.45.94C239.38 259.22 239.2 256.89 237.33 256.62z" fill="#0e0e0e" fill-rule="evenodd"/><path d="M396.87 243.37c0 8.44-.65 17.1-.94 26.33-.08 2.74.25 6.75-2.49 6.7-3 0-2.14-4.32-2-7.48.22-6 .45-12.67.77-18.85.17-3.23-.36-8 2.65-7.94C395.77 242.15 396.33 242.93 396.87 243.37z" fill="#0e0e0e" fill-rule="evenodd"/><path d="M367.73 289.49c1 5.58 1 11.23-1.4 15.27a11.57 11.57.0 0 1-4.21 4.36c-4.22 1.94-7.4-1.46-7.78-4.83-.8-7 4.2-10.65 6.69-14.49-4.48.67-6.39-2.53-7.63-5.61-1.72 4.26-3.77 10.56-6.7 14-1.43 1.69-4.6 3.8-6.85 1.41a8.78 8.78.0 0 1-1.25-2.34c-1.76-5.11-.6-14.38-1.4-20.26-1.6 1.24-2.24 3.31-3.12 5.3a47.76 47.76.0 0 0-3.74 17.3c-.08 2.22.28 4.91-2 5.14-2.95.29-3-3.71-3.43-6.7-.34-2.5-.55-4.66-.78-6.55-.61.43-.58 1.3-.78 2-1.15 4.23-3.29 10.19-6.07 12.77a5.31 5.31.0 0 1-5.61 1.09c-2.48-1.2-3.77-4.75-4.83-7.47-.86 2.15-1.18 5-2.18 7.47-.9 2.19-2.48 4.72-4.21 5.46-5.11 2.18-7.22-5.31-7.79-9.19-.64-4.35-.54-8.82-1.4-12.62-2.07 1.82-3.33 5.36-4.36 9.34a59 59 0 0 0-1.72 12c-.12 2.81.64 6.78-2.34 6.86-2.78.06-2.63-3.48-3.11-6.39-.42-2.51-.93-4.69-1.09-6.55-1.14 3.08-2.05 6.69-3.59 10-1.41 3.05-3.14 6.41-5.6 8a7.28 7.28.0 0 1-2.34.93c-6 1-8.36-5.24-8.73-11.06-1.94 1-5.4.26-6.23-1.71-1.87 2.7-3.85 5.29-7.32 6.39-.32 4.35-1.28 10.14-3.43 13.4-1.21 1.83-2.9 3.56-5.61 3.58s-4-1.55-5.45-3.12c-1.91 2.32-2.94 8-7.48 6.7-3.54-1-4.05-7.9-4.05-13.4.0-4.91.39-10.2.16-14a5.68 5.68.0 0 0-1.56 2.81c-2.47 6.4-3.65 15-4.36 23.68-.21 2.55-.31 5-2.65 5-2.56.0-2.24-3.05-2.34-5.76-.29-7.81.0-16.37-1.87-22.44-1.26.34-1.71 1.49-2.33 2.34a31.7 31.7.0 0 0-3.43 5.61c-1 2.15-1.42 3-.63 5.3.6 1.68 1.44 3.82 1.87 5.61 1.18 4.84 1.69 10.76-.46 14.8-1 1.84-3.68 4.44-6.7 2.8-2.44-1.32-3.41-5.67-3.43-9.5a43.57 43.57.0 0 1 2-12c.35-1.26 1.14-2.7 1.09-3.58-.08-1.25-1.43-2.95-2.18-4.05-.38-.55-.9-1.07-1.41-1.72-1.08-1.39-1.24-4.08 1.25-4.2s3.39 3.12 4.67 4.2c1.21-2.17 3.53-6.78 6.08-9a5.64 5.64.0 0 1 5.3-1.25c1.08.39 2 1.79 2.49 3a16.28 16.28.0 0 1 1.09 4.21 35.83 35.83.0 0 0 1.25-3.43 21.78 21.78.0 0 1 3.11-6.23c1.37-1.79 4.64-3.9 6.55-1.09s1.24 8.9 1.09 13.4c-.18 5-.33 10 .78 13.55 1.64-2.09 2.45-5 3.89-7.32-.95-7.51.3-16.36 5.61-19.17.46-.24 1.2-.48 1.87-.77a9.09 9.09.0 0 1 1.87-.78c4.67-.73 6.39 3.72 7.16 7.79 2.53-1.14 5-5.59 6.08-8.88.65-2 .42-4 2.49-4.21 4.61-.37 1 6.18 2.65 9.19 1.63-.73 2.76-2.94 3.27-5 .63-2.49.77-5.19 3-5.3a2.6 2.6.0 0 1 2.5 1.87c.4 1.91-.89 3.83-1.25 6.23a33.68 33.68.0 0 0-.31 7.17c.16 2.28.85 5.74 2.65 5.92s3.61-3 4.51-4.68c2.78-5.22 4.11-10.92 5.3-17.45a13.12 13.12.0 0 1 .94-3.58 3.82 3.82.0 0 1 2.49-1.56c2.84.05 2.36 4 3.27 6.55a69.21 69.21.0 0 1 2.81-8.1c1.11-2.29 3-5 5-5.77 5.48-2.16 6.13 5.26 6.55 10.13.38 4.56.64 9 2.18 12 1.57-1.38 2-3.67 2.64-5.92 1.17-4.23 2.19-8.84 3.28-13.55.52-2.28.56-5.54 2.64-5.77 3.31-.36 2.51 3.52 2.65 6.86.21 4.93 1.21 11.12 3.74 13.24 1.8-1 2.48-3.29 3.43-5.61a106.51 106.51.0 0 0 4-14c.62-2.48 1-6.25 3.27-6.39 3.61-.21 2.73 5.45 3.43 8.57a80.35 80.35.0 0 1 3.27-7.94c1.24-2.27 3-5.34 5-6.23a3.76 3.76.0 0 1 4.67 1.71 15.87 15.87.0 0 1 1.25 6.08c.3 5.29-.11 12.05.78 16 .89-.14 1.16-1.23 1.55-1.87 3.09-5 4.79-12.39 7.79-17.6a14.43 14.43.0 0 1 4.37-10 7.68 7.68.0 0 1 3.89-2 16 16 0 0 1 1.71.16 17.79 17.79.0 0 1 2-.31c6.74.43 7 12.49 4.21 18.07 5.24-5.11 10.17-13.16 13.08-21.66.57-1.64 1-4.54 2.81-4.83a2.48 2.48.0 0 1 2.65 1.56c.33 1.35-.69 3.75-1.25 5.3C381.6 273.37 375 281.73 367.73 289.49zM365.09 277c.58-2.87.66-7.1-1.25-8.72C362.92 271.37 364.33 274.61 365.09 277zm-5.15 8.42c.69-.58 1.85-.88 2-1.87.12-.66-.45-2-.78-3.27-.76-2.86-2.26-7.77-2.49-10C355.57 273.38 356.33 283.74 359.94 285.44zm3.59 8.72c-1.35 1.35-3.94 4.54-4.52 7.17-.23 1.05-.48 2.77.62 3.58C362.82 304 364.34 299.13 363.53 294.16zm-123.39 20.1c-.41-1.25-.41-2.91-1.41-3.58C237.39 311.6 238.75 314.67 240.14 314.26zm-7.79 8.41c0 3 1.05 8.56 3.42 8.42 1.56-.1 2.81-3.34 3.28-4.83a31.67 31.67.0 0 0 1.09-7c-3.37-.42-5-2.56-6.24-5.15C233 315.84 232.33 319.23 232.35 322.67zm-36.62 20.88c.09 1.28.21 2.81 1.09 3.58 2.13-3.05 1.25-9.76-.15-12.93A40.57 40.57.0 0 0 195.73 343.55z" fill="#0e0e0e" fill-rule="evenodd"/><path d="M307.44 273.75c3.7-.94 3.22 4.48.94 4.83C305.37 279.05 304.67 274.46 307.44 273.75z" fill="#0e0e0e" fill-rule="evenodd"/><path d="M392.5 283.72c4.13-1 3.62 4.38.78 4.37C391.28 288.07 390.07 284.61 392.5 283.72z" fill="#0e0e0e" fill-rule="evenodd"/><path d="M363.84 373.31a30.05 30.05.0 0 1 4.05-10.44c2.42-3.85 5.38-7.55 10.75-8.1a10.34 10.34.0 0 1 9.81 4.36c5.45 8.25 4 23.43 1.41 34a91.65 91.65.0 0 1-8.11 21.81c-1.31 2.41-2.7 4.9-4.82 5.15-1.6.18-5-1.67-7.17-3A144.7 144.7.0 0 1 351.69 404c-5.73-4.69-11.33-9.47-14.49-16.83a26.39 26.39.0 0 1-2.34-7.94 13.84 13.84.0 0 1 1.71-8.26 13 13 0 0 1 10-5.92 17.25 17.25.0 0 1 10.12 2.65C359.32 369.31 361.38 371.37 363.84 373.31zm18.23 29.91c3-8.51 6.07-18.53 5.45-30.07-.3-5.53-1.33-11.21-4.83-13.09-6.54-3.5-11.34 5.07-12.93 9.2a35.05 35.05.0 0 0-1.71 6.23c-.5 2.83-.63 5.19-3 5.14-1.4.0-2.35-1.69-3.28-2.65-2.79-2.9-6.57-6.31-10.12-7.63-6.19-2.31-12.23 1.15-12.31 7.32-.06 4.87 3 10.19 5.3 13.24a55.45 55.45.0 0 0 9.34 9.35c7.62 6.16 14 10.82 22.28 15A52.38 52.38.0 0 0 382.07 403.22z" fill="#0e0e0e" fill-rule="evenodd"/><path d="M555.47 366.45c3 1.62.25 4.32-1.4 5.77a52.81 52.81.0 0 1-7.33 5.61c-1.14.68-3.2 2-4.67 1.71a2.62 2.62.0 0 1-1.71-2.49c.09-1.06 1.48-1.9 3.11-2.81a32.41 32.41.0 0 0 3.58-2.34c3-2.17 4.34-3.79 6.39-5.29C553.78 366.36 554.68 366.5 555.47 366.45z" fill="#0e0e0e" fill-rule="evenodd"/><path d="M165.67 588.62c-1.09 1.51-1.32 3.15-1.87 4.67-1.11 3-2.32 6.24-3.43 9.66-.53 1.64-1.29 3.33-3.74 3.12-2.91-.26-3.42-5-3.74-7.64-.49-4.17-.31-7.12-.47-10.75-.33-7.61-1.72-13.19-3.11-19.31-1.43-6.29-2.43-12.68-4.05-18.39s-3.28-11.77-4.68-17.76c-2.87-12.33-5.8-23.91-8.1-36.92A136.07 136.07.0 0 1 130 475.35c-.21-7.43 1-13.51 3.89-18.54 5-8.57 18.07-13.17 28.67-16.36 11.75-3.53 23.62-6.6 35-9.81 11.83-3.32 24-6 36.15-8.73 12.45-2.8 25.27-5.73 39.1-6.38 8.11-.39 15 .86 20.1 3.27 5.48 2.6 8.67 6.34 11.69 11.68 5.41 9.59 8.44 22.93 10.75 36 1.13 6.45 1.79 13.55 2.49 20.88 1.3 13.57 3.16 30.71-.31 43.31a38.62 38.62.0 0 1-7.79 15.42c-6.95 8-17.83 13.1-30.07 16.68-18.28 5.33-37.14 9.51-56.24 13.71-6.4 1.4-12.75 2.9-19.17 4.2C191.48 583.28 178.62 585.73 165.67 588.62zM158 595.47c.59-1.62 1.11-3.07 1.72-4.67.74-2 1.25-4.63 2.64-5.77.92-.75 2.37-.76 4.37-1.24 9.21-2.2 21.06-4.38 29.6-6.08 11.24-2.24 22.72-4.78 33.34-7.32s22-4.74 33-7.63c10.58-2.79 21.91-5.49 30.69-10.13 9.34-4.93 15.82-10.62 19.32-21.35 1.69-5.18 2.18-11.58 2.18-18.22a192.54 192.54.0 0 0-.94-19.48c-.64-6.15-1.13-12.35-1.87-18.38s-1.91-11.65-3.11-17.3c-1.8-8.43-4-16.47-7.32-23.21a38 38 0 0 0-3.74-6.54c-5-6.38-14.77-8.92-27.27-7.95-1.59.13-3.6.44-5.29.62a258.87 258.87.0 0 0-31.32 5.77c-11.52 2.69-22.87 5-34.43 8.1-10.68 2.85-21.79 6.07-33 9.35a125.86 125.86.0 0 0-15.74 5.45c-4.81 2.14-10 5.15-12.62 8.73-2.87 4-4 10.67-3.73 16.82a158.58 158.58.0 0 0 2.33 18.39c4 23.84 10.68 44.8 15.43 67.14.59 2.78 1.2 5.61 1.87 8.42s1.39 5.67 1.87 8.57c1 6 1 12.32 1.4 19.32C158 596.63 157.88 595.89 158 595.47z" fill="#0e0e0e" fill-rule="evenodd"/><path d="M295.29 445.44c3.46-1.16 3.16 3.58 3.27 6.86.15 4.19.2 9.47.31 14 .07 3 .2 5-1.56 5.29-2.37.45-2.93-1.56-3-4.36.0-4.55-.15-9.82-.31-14.18C293.93 450.08 293 446.2 295.29 445.44z" fill="#0e0e0e" fill-rule="evenodd"/><path d="M364.77 477.38c2.33-5.9 6.72-12.33 12.47-15.11 2.55-1.24 6.5-1.85 9.5-.31 4.13 2.1 6.76 7.81 6.86 14.64a48.1 48.1.0 0 1-3.28 17c-1.73 4.84-3.7 9.45-5.92 14.18a130.44 130.44.0 0 1-11.06 19.32c-1.47 2.08-3.39 4.45-5.45 4.52-2.53.08-5.06-2.87-6.86-4.83a152.22 152.22.0 0 1-15.42-19.48 70.06 70.06.0 0 1-7.95-15.42c-2.06-5.79-2.74-13.65.47-19A12.57 12.57.0 0 1 350 466.47C357.1 467 361.56 472.61 364.77 477.38zM383.31 499a69.1 69.1.0 0 0 5.14-16.51c1.09-6.91.52-14.52-4.2-16.52-2.63-1.11-5.37.39-7.17 1.72a23.46 23.46.0 0 0-8.72 14c-.49 3 0 6.78-3 6.7-2.47-.07-2.18-2.77-2.81-4.83a21.68 21.68.0 0 0-5.45-8.72c-2.83-2.54-7.5-5.38-11.84-3-3.51 1.95-5.32 6.55-4.83 12.62.37 4.53 2.64 9 4.52 12.77a101.14 101.14.0 0 0 14.18 20.57 69.46 69.46.0 0 0 8.56 8.88C374 518.79 378.67 509.57 383.31 499z" fill="#0e0e0e" fill-rule="evenodd"/><path d="M284.69 480.18a17.89 17.89.0 0 0 2.81-3.89c.76-1.25 1.48-3.35 3.11-3.43a2.49 2.49.0 0 1 2.34 1.72c.4 2-1.84 4.27-3 6.07-1.36 2.18-2.45 3.9-3.58 5.45 1.78 8.37-.83 18.62-8.73 17.92a5.39 5.39.0 0 1-4.83-5.45c0-3.22 1.93-6 3.59-8.1 1.3-1.68 2.86-3 4.2-4.68.44-.55 1.08-1.05.63-1.87-1.11-.19-1.71.52-2.81.63-3.41.31-5.53-2.2-6.85-4.37-1.71 2.14-2.28 5.6-5.3 6.08a5.16 5.16.0 0 1-3.89-1.09c-3.09-2.83-4.27-10.11-5.61-14.18-.94 1.23-1.69 4.21-1.87 7.79-.2 3.87 1 8.87-2.5 8.73-2.27-.1-2.28-2.81-3.11-4.68-1 3.38-2.48 8.14-7 6.86-1.64-.47-2.17-1.7-3.27-3-.72 3.13-2.41 7.46-6.08 6.23a5.63 5.63.0 0 1-2.18-2.18c-1.72-3-2.22-8.44-3.58-11.53-1 .77-1.71 3.57-1.87 5.92a52.7 52.7.0 0 0 0 5.76c.12 2.78.93 5.54-1.41 6.08-2.75.63-2.89-2.1-3.73-3.9-1 3.55-1.79 7.45-5.61 7.95-6 .79-7.79-7.41-8-13.71-.79-.36-2.12-.17-2.65-.78a32.52 32.52.0 0 1-3.11 4.52c-.41.48-1 1-1.1 1.4-.21.92.26 2.78.16 4.05-.26 3.5-1.42 7.15-3.43 9.19-2.29 2.35-7.26 3-9.81-.15-2 2.15-4.06 6.31-8.1 4.67a5.51 5.51.0 0 1-2.5-2.18c-2-3.23-2.72-10.23-3.58-15.73-.35-2.23-.83-5.55-1.4-8.26-.53-2.5-1.57-6.4-3.27-6.39-.93.0-1.45 1.17-2 2.34a11.52 11.52.0 0 0-1.24 3.11c0 1.05 1.42 3.5 1.86 4.68a55.49 55.49.0 0 1 3.43 16.05 35.72 35.72.0 0 1 0 4.51c-.24 3.17-2.5 9.1-7.32 6.55-3.83-2-5-9.85-4.83-16a72.72 72.72.0 0 1 1.09-11.53c.24-1.23.86-2.55.78-3.43a5.75 5.75.0 0 0-1.4-2.49 4 4 0 0 0-2-1.87c-1.46 1-1.77 3.29-2 5.3-1.15 9.24-.32 20.89.78 29.91.36 3 1.2 7.18-1.72 7.32-2.57.13-2.46-2.61-2.8-5.76a171.84 171.84.0 0 1-1.25-26.18c.2-4.68.69-9.93 2.34-12.46a7.87 7.87.0 0 1 2.65-2.49c3-1.26 5.54.63 7.32 3.11 1.54-2.69 4-6.65 8.57-4.83 4.3 1.71 5.64 9 6.54 14.65 1.05 6.54 1.53 13.27 3.58 17.6 2-.73 2.53-2.87 3.59-4.51-1.87-4.71-1.74-11.29.47-15.43.8-1.51 2.67-3.88 4.2-4.05.49-.06 1.22.06 1.87.0s1.23-.32 1.72-.31c3.4.08 5.1 2.72 6.38 5.3 2.11-1.62 1.44-7.39 4.68-7.48 1.92-.05 2.12 1.68 2.8 3.27 2.12-.9 1.46-4.23 3.9-4.52a2.44 2.44.0 0 1 2.65 1.87 11 11 0 0 1-.63 2.81c-.95 4.31-.54 11.66 1.87 13.86 1.23-.46 1.46-2.14 1.87-3.89a78.21 78.21.0 0 0 1.4-10.13c.26-2.89-.12-5.74 3-5.3 1.16.17 1.46 1 2 2 .77-3.44 4.94-7 8.1-4.05 2.4 2.27 2.78 8.06 4.05 11.68.83-1.4 1-3.77 1.25-6.23.34-3.29-.14-7.52 2.49-7.79 3-.3 2.6 3.48 3.12 5.92a14.56 14.56.0 0 0 2.64 6.23c1.3-1.84 1.91-6.69 2.34-10.28.28-2.39.21-5 2.65-5 1.55.0 2.23 1.07 2.65 2.5 1.16-2.52 2.81-8.74 7.48-6.55 2.07 1 2.83 5 3.58 7.64.9 3.19 1.55 6.17 3 8.1 1.58-1.39 2.41-3.72 3.43-5.92a9.36 9.36.0 0 0 .93-2 11.7 11.7.0 0 0-.15-1.71c0-4.74 1.89-8.19 4.67-9.5a7.21 7.21.0 0 1 2.18-.63c1.05-.07 1.28.32 2.18.32s1-.37 2-.32c5.53.33 6.86 8.81 5.45 14.49C285.59 477.53 284.73 478.8 284.69 480.18zm-4.05-10a7.1 7.1.0 0 0 1.25 2.65c0-2.7.05-5.45-1.71-6.39A7.47 7.47.0 0 0 280.64 470.21zm-1.24 9c-1.45-3.9-3.48-7.22-4-12C272.42 469.76 275 482.68 279.4 479.25zm-88.34 8.26c0 1.29 1.54 2.14 3.43 2C194.73 487.22 191 484.77 191.06 487.51zm-2.18 13.86c1.47 2 3.62 2.4 5 .47 1.22-1.74 1.47-5.42 1.4-7.79-3.82.64-6.29-1.39-8-3.43C186.63 494.1 187.09 499 188.88 501.37zm93.48-10.44h-.47c-1.54 2.57-4.63 4.41-4.21 8.42C281.71 499.61 282.24 495.09 282.36 490.93zm-119.5 1.25c-.59 4.54-.81 10.79.16 14.8.33 1.41.74 2.9 1.71 3.58 1.49-6.1-.25-13.55-1.71-18.69.0-.1.0-.19-.16-.16z" fill="#0e0e0e" fill-rule="evenodd"/><path d="M236.24 464.76a2.13 2.13.0 0 1 3 1.87c.29 3.28-4.46 3.59-4.67.62A2.15 2.15.0 0 1 236.24 464.76z" fill="#0e0e0e" fill-rule="evenodd"/><path d="M296.69 476.29c3.2-.89 3.63 3.62 1.4 4.2a2.23 2.23.0 0 1-3-2.33A1.94 1.94.0 0 1 296.69 476.29z" fill="#0e0e0e" fill-rule="evenodd"/><path d="M440 547.64c3.15 11.44 1.23 25.85-1.55 37.08A104.26 104.26.0 0 1 435.35 595c-1.32 3.61-2.62 8-6.23 8.56-2.47.39-6.09-.91-8.73-1.87A101.2 101.2.0 0 1 399.52 591c-2.06-1.31-4.21-2.81-6.24-4.36a43.13 43.13.0 0 1-5.6-4.83c-3.33-3.65-6.84-7.93-6.86-14.17.0-8.1 5.4-13.42 12.93-14 7.7-.62 12.93 2.85 17.76 6.23 1-5.48 2.39-10.49 4.83-14.48-5.15-5-10.41-11-13.86-18.7-3.59-8-3.76-19.43 1.71-25.39a12.19 12.19.0 0 1 9.5-4.21c8.34.24 12.63 7.39 16.21 12.93 3.18-6.8 7.68-14.6 14.64-17.76a11.86 11.86.0 0 1 6.86-1.09c5.85.88 8.48 8.4 8.88 14.33a36.08 36.08.0 0 1-2 13.71A65.61 65.61.0 0 1 440 547.64zm.16-6.54a47.56 47.56.0 0 0 5.14-6.54c4.38-6.21 8.14-12.51 9.82-21.5.81-4.39 1-9.71-.78-13.71-.62-1.35-2-3.17-3.28-3.59a6.57 6.57.0 0 0-4.67.63 19.18 19.18.0 0 0-4.21 3c-3.91 3.58-6.62 8.64-8.56 14.17-.87 2.46-1.59 4.36-3.28 4.37-2.21.0-3.16-3.84-4.67-6.24-2.26-3.6-5.34-8.23-9.5-9.65-4.63-1.59-8.67 1.63-10.13 4.36a15.24 15.24.0 0 0-1.56 6.07 24.11 24.11.0 0 0 2.18 12.16 47.78 47.78.0 0 0 12.47 16.82c2.67-3.8 9.89-6.38 14.8-3.27a13.88 13.88.0 0 1 4.05 4.67A6 6 0 0 0 440.18 541.1zM431.3 593c.79-2.2 1.56-4.45 2.18-6.86 2.42-9.4 4.48-20.67 3.12-32.4-.6-5.11-2.31-10.74-6.08-12.15-2.95-1.11-5.91.68-7.63 2.33-3.77 3.63-6.57 11.79-7 17.92-.19 2.69.17 5-2.18 5.14-1.24.06-2.27-1.4-3.42-2.33s-2.41-1.92-3.28-2.5a27.86 27.86.0 0 0-7.79-3.74c-7.95-1.91-14.64 2.57-13.7 10.6.6 5.2 5.3 9.8 8.56 12.46a107 107 0 0 0 21.5 13.09c3.9 1.85 7.83 4 12.78 4.52C429.84 597.49 430.5 595.18 431.3 593z" fill="#0e0e0e" fill-rule="evenodd"/><path d="M220.51 513.21c2.44-.55 5.77 2.58 7.16 4A30.14 30.14.0 0 1 235 536.11c0 5.34-2 10.41-4.06 14.34-.72 1.38-1.72 3-3.11 3a2.33 2.33.0 0 1-2.18-1.72c-.21-1.15 1-3 1.56-4.05 1.85-3.58 3.55-8.41 3-13.55-.88-7.59-4.27-13.16-9.66-16.52-.67-.41-1.59-.86-1.72-1.86A2.12 2.12.0 0 1 220.51 513.21z" fill="#0e0e0e" fill-rule="evenodd"/><path d="M562.64 516.33c1.37-.48 2.85.53 4.51 1.24a125.68 125.68.0 0 0 12.47 4.37c14.25 4.28 30.1 6.3 44.09 11.68 1.71.66 6.76 1.78 6.7 4.36-.08 3.22-3.85 1.8-5.61 1.09a118.16 118.16.0 0 0-12.47-4.36c-14.59-3.93-30.47-6.62-44.24-11.84-2.36-.89-6.64-2.18-6.86-4.21A2.07 2.07.0 0 1 562.64 516.33z" fill="#0e0e0e" fill-rule="evenodd"/><path d="M212.87 526.14c3.31-1 3.48 4.07.63 4.05C211.26 530.18 210.52 526.83 212.87 526.14z" fill="#0e0e0e" fill-rule="evenodd"/><path d="M216.46 544.22c-4.57.8-3.22-5.93.31-4.37C218.47 540.61 218.16 543.5 216.46 544.22z" fill="#0e0e0e" fill-rule="evenodd"/><path d="M235.62 614.79c4.21-.55 7.83 3.18 7.94 7.32.14 5.11-5 9.81-10.28 7.33-2.43-1.15-3.95-4.15-4.05-6.7A7.41 7.41.0 0 1 235.62 614.79zm.93 10.75c3.16-.25 3.11-7.07-.78-6.07C233.14 620.14 233.25 625.81 236.55 625.54z" fill="#0e0e0e" fill-rule="evenodd"/><path d="M213.5 619.78a7.18 7.18.0 0 1 8.1 7.32c.09 5.8-5.8 10-10.91 7.63-2.66-1.24-4.07-4.41-4.05-7A7.8 7.8.0 0 1 213.5 619.78zm.31 11.06c3.87.0 4.33-7.75-.31-6.39C210.67 625.28 210.46 630.8 213.81 630.84z" fill="#0e0e0e" fill-rule="evenodd"/><path d="M192.31 624.92a8.06 8.06.0 0 1 8.1 11.53 8 8 0 0 1-8.57 4.2c-5-.81-7.89-7.33-5.3-12A7.28 7.28.0 0 1 192.31 624.92zM192.15 636c5.79 2.08 5.61-8.25.16-6.39C188.69 630.58 190.4 635.35 192.15 636z" fill="#0e0e0e" fill-rule="evenodd"/><path d="M454.36 625.39a29.37 29.37.0 0 1 23.21 8.88 31.92 31.92.0 0 1 9 22.9 34.71 34.71.0 0 1-9 23.05c-5 5.54-12.43 10.2-21.19 10.76a28.73 28.73.0 0 1-23.21-8.88A31.19 31.19.0 0 1 424 659.35a35.1 35.1.0 0 1 8.88-23.21 32.49 32.49.0 0 1 8.88-7.17A32 32 0 0 1 454.36 625.39zm-17.45 13.08a29.83 29.83.0 0 0-8.26 19.17c-.37 9.29 2.37 15.53 6.86 20.56a24.7 24.7.0 0 0 19.31 8.26 28 28 0 0 0 18.85-8.57c4.58-4.9 7.59-10.61 8.11-19.32a27.82 27.82.0 0 0-6.7-20.41c-4-4.46-11.34-8.63-19-8.26C447.4 630.33 441.25 633.77 436.91 638.47z" fill="#0e0e0e" fill-rule="evenodd"/><path d="M453.58 647.35c1.82-3.4 4.16-6.67 7.63-8.1a8.41 8.41.0 0 1 10.28 3.27c4.82 8-.06 22-3.11 28.36-.62 1.3-1.52 2.53-2.18 3.74-1.51 2.75-4 7.65-7.64 7.79-2.48.09-5.47-3-7.63-4.83a54 54 0 0 1-11.53-13.09c-1.66-2.83-3.39-6.13-3.74-9.81a14 14 0 0 1 .31-4.83c.88-2.93 3.63-6.24 7.33-6.7C448.3 642.51 450.83 645.23 453.58 647.35zm11.84 18.85a39.44 39.44.0 0 0 3.43-15.11c0-3.29-.77-6.8-2.65-7.63-2.45-1.09-4.89.79-6.39 2.49a16.64 16.64.0 0 0-2.65 4.83c-.74 1.94-.86 4.63-3.12 4.52-1.27-.07-1.77-1.32-2.33-2.34a14.34 14.34.0 0 0-1.87-2.8c-1.11-1.14-3.27-2.87-5.92-2.5-1.74.25-3.48 2.36-3.74 4.37-.4 3.1 1.16 6.29 2.34 8.57a44.73 44.73.0 0 0 9.65 12.15 36.36 36.36.0 0 0 6.24 4.83C461.52 674.87 463.59 670.5 465.42 666.2z" fill="#0e0e0e" fill-rule="evenodd"/><path d="M377.24 642.21a30 30 0 0 1 24.15 9 34.51 34.51.0 0 1 9.5 23.68 33.4 33.4.0 0 1-17.61 29.91 30.83 30.83.0 0 1-19.94 2.65c-11.89-2.53-20.8-11.76-23.83-23.68a34.85 34.85.0 0 1 1.09-20.41c2.89-8 8.57-15.15 16.82-18.85A30.13 30.13.0 0 1 377.24 642.21zm-17.61 14.18a30.18 30.18.0 0 0-6.54 20.88 28 28 0 0 0 8.57 18.85 25.48 25.48.0 0 0 37.86-2.18 29 29 0 0 0 6.7-20.72 29.92 29.92.0 0 0-8.42-19 25.51 25.51.0 0 0-38.17 2.18z" fill="#0e0e0e" fill-rule="evenodd"/><path d="M387.68 654.05a4.5 4.5.0 0 1 3 .78c1.29 1.28 1.74 6.28 2.18 8.41 1.17 5.76 2.18 11.26 3 18.08.39 3.44.73 7-.94 8.57-1 1-3.23 1.35-5.14 1.87-3.7 1-6.71 1.7-11.06 2.64-1.79.39-4.36 1.07-6.08.47-2.28-.8-3-4.48-3.74-7.32-1.41-5.49-2.95-12-4.2-17.76-.57-2.62-2-6.82-1.09-9.19 1.12-2.86 7.19-3.44 11.06-4.21 2.4-.48 4.47-.84 6.39-1.25A31.27 31.27.0 0 1 387.68 654.05zm.31 7.48c-.2-1-.31-3.23-1.56-3-5.88 1.26-12.72 2.44-18.54 4a255.85 255.85.0 0 0 6.54 27.89 131.91 131.91.0 0 0 17.14-4C391.24 678.22 389.5 669.16 388 661.53z" fill="#0e0e0e" fill-rule="evenodd"/><path d="M299.34 657.64c10.84-.89 19.34 4.56 24.62 10.28a37.28 37.28.0 0 1 9.81 24.92c.23 15.47-8.59 27.35-18.7 32.57a30.61 30.61.0 0 1-21.34 2.8c-12.85-3.1-21.8-12.92-24.93-26.33a40.25 40.25.0 0 1 1.4-22A34.21 34.21.0 0 1 280.8 665C285.71 660.87 291 658.32 299.34 657.64zm-6.86 5.76a29.65 29.65.0 0 0-15.42 12.77A33.66 33.66.0 0 0 273 686.3a34.67 34.67.0 0 0-.16 13.09A30.69 30.69.0 0 0 283 717.62a25.88 25.88.0 0 0 21.19 6.54 27.33 27.33.0 0 0 17.91-10.28 32.76 32.76.0 0 0 7-21.35c-.13-8.41-3.66-16.28-7.64-20.72-4.84-5.39-12.46-10.41-23.06-9.5A24.59 24.59.0 0 0 292.48 663.4z" fill="#0e0e0e" fill-rule="evenodd"/><path d="M382.38 663.56c.92.0 2.75.24 2.8 2 .09 2.7-5 3.08-7.48 3.58-2.37.48-5.8 1.37-6.54-.62-1.24-3.33 3.86-3.35 5.77-3.74C379.16 664.35 380.35 663.65 382.38 663.56z" fill="#0e0e0e" fill-rule="evenodd"/><path d="M303.39 683a14.65 14.65.0 0 0 3.27-1.71 47.71 47.71.0 0 1 6.7-3.12c2.47-.93 5.62-1.34 6.08 1.56S317.3 686 316 687.7c-1.86 2.47-4 4.22-5.3 5.92 1.44 3 4.88 6.83 6.23 10.29 1.15 2.91-.07 5.61-3.73 5.29s-6.66-3.49-9.51-4.83c-1.2 1.62-2 3.93-3.43 6.24-.82 1.36-2.67 4.75-4.51 5.14-5.19 1.08-4.23-8.43-4.37-13.24-2.46-.61-5.5-.72-8.25-1.41-2.42-.6-5.52-1.39-5.61-3.89-.11-2.88 3.87-4.31 6.23-5.45 2.73-1.33 5-2.91 7.63-3.9.0-2.51-.46-4.46-.46-7.17.0-4.3.55-11.56 5.29-9.5 1.76.76 3.06 3.19 4.21 5.3A41.8 41.8.0 0 1 303.39 683zm-7.63-4.83c-.63 3.65.62 8 .46 10.91-.1 1.84-2 2.42-3.42 3.11-3.05 1.51-6.09 3-8.73 4.52 3.15 1.14 7.83.17 10.28 1.87 2.77 1.91.89 6.32 1.87 10 .86-1.45 1.62-3.09 2.5-4.83.78-1.55 1.7-3.55 3.27-4 3.93-1.25 6.54 3.42 9.66 3.9-1-1.51-2-3.15-3.12-4.83-1.31-1.91-3.34-4.31-2.34-6.7.64-1.53 2.41-3 3.74-4.37a17.74 17.74.0 0 0 3.59-4.51 26.75 26.75.0 0 0-4.68 2.18c-1.55.89-2.95 2.14-4.36 2.65-4.06 1.47-4.81-2.49-6.08-5.3a38.91 38.91.0 0 0-2.49-5C295.69 677.75 295.79 678 295.76 678.2z" fill="#0e0e0e" fill-rule="evenodd"/><path d="M383.78 671.5c1.13-.09 3-.09 3.12 1.87.13 2.55-2.95 2.59-5.3 3.12-1.12.25-2.3.5-3.43.78-2.16.52-5.52 1.62-5.45-1.56.0-1.86 2.84-2.56 4.52-3A42 42 0 0 1 383.78 671.5z" fill="#0e0e0e" fill-rule="evenodd"/><path d="M216.92 675.86c16.5-1.35 27 8.48 31.94 19.63a36.86 36.86.0 0 1 3.12 14 37.3 37.3.0 0 1-9 25.23 33 33 0 0 1-22.43 11.85 30.21 30.21.0 0 1-24.93-9.2c-5.78-5.77-9.79-13.21-10.13-24.14a37.94 37.94.0 0 1 8.88-25.4 33.24 33.24.0 0 1 15.27-10.44A30.49 30.49.0 0 1 216.92 675.86zm-8.26 6.7c-7.84 3.37-13.34 9.69-16.35 17.61a35 35 0 0 0-1.41 19.63c2.71 11.67 11.2 20.42 23.22 22.12A27.18 27.18.0 0 0 232.19 738a31.21 31.21.0 0 0 10.91-11.69 31.75 31.75.0 0 0 4.2-18.54 32.29 32.29.0 0 0-3-11.22c-4.16-9.08-13.16-17.11-26.33-16.2A29.06 29.06.0 0 0 208.66 682.56z" fill="#0e0e0e" fill-rule="evenodd"/><path d="M386.12 679.6c1.06-.06 2.94.08 3 2 0 2.92-5.91 3.07-8.88 3.74-2.16.48-5.23 1.57-5.3-1.4.0-2.09 2.51-2.69 4.52-3.12A47.09 47.09.0 0 1 386.12 679.6z" fill="#0e0e0e" fill-rule="evenodd"/><path d="M222.38 694.72c.45-3.91.63-10.78 5-10.29 2 .23 4.49 3.93 5.45 5.14a42.53 42.53.0 0 1 7.64 13.25 28.8 28.8.0 0 1 1.71 8.72 26.13 26.13.0 0 1-2.65 11.22c-1.94 3.72-5.87 6.9-10.12 8.88-4.49 2.08-10.13 3.75-15.74 2.8a20.3 20.3.0 0 1-12.15-7.16c-2.44-3-4-7.2-4.83-12.78-.4-2.63-.61-5.33-.78-8.1-.25-4-1.11-12.21 2.65-12.78 2.54-.38 4.91 2.07 6.39 3.43.68.63 1 1.27 1.71 1.4 1.2.25 2.94-.36 4.36-.62A71.69 71.69.0 0 0 222.38 694.72zM207.73 727c8 5.82 20.15 2.35 25.71-3.59 2.58-2.76 4.44-8.11 4.05-13.24-.66-8.56-5.68-14.36-9.82-19.48.0-.18-.17-.09-.31.0-.35 1.83.0 4.36-.78 6.08-1 2.44-5.88 3.44-9.19 4.36-1.72.48-3.69.91-5.61 1.25-2.15.38-4.47.92-6.23.62-2.64-.44-3.6-3-5.3-3.58C200.69 711.43 200.68 721.81 207.73 727z" fill="#0e0e0e" fill-rule="evenodd"/><path d="M221.75 709.67c1.18 1.39 4.89 1.7 4.83 4.36a2.17 2.17.0 0 1-1.87 2.19c-2.11.27-2.83-1.67-4.67-2-1.45 1.27-1.51 4.23-3.58 4.52a2.28 2.28.0 0 1-2.65-1.87c-.31-2.2 2.53-4.54 2.8-6.39-.33-.9-1.84-1.32-2-2.65a2.3 2.3.0 0 1 3.89-2c.55-1.89 2.72-3.22 4.21-2a3.2 3.2.0 0 1 .78 1.56C223.64 707.08 222.15 708.1 221.75 709.67z" fill="#0e0e0e" fill-rule="evenodd"/><path d="M228.61 704.53a2 2 0 0 1 2.65 1.56c.57 3.47-4.42 3.53-4.37.47A1.87 1.87.0 0 1 228.61 704.53z" fill="#0e0e0e" fill-rule="evenodd"/><path d="M207 710.3c3.89-1.09 3.67 4.06.94 4.2C205.7 714.62 204.57 711.28 207 710.3z" fill="#0e0e0e" fill-rule="evenodd"/><path d="M474.3 736.62c2.32-.45 2.69 1.83 3.27 4.52s1.27 6.17 1.87 9.19c.54 2.71 1.65 6.19-1.4 6.24s-3.39-6.2-3.9-9c-.29-1.64-.5-3.3-.78-4.67C472.9 740.55 471.42 737.19 474.3 736.62z" fill="#0e0e0e" fill-rule="evenodd"/><path d="M463.7 739.27c2.48-.62 2.7 1.24 3.12 4.36s.93 5.9 1.56 9.2c.48 2.55 1.38 5.91-1.87 5.61-2.36-.22-2.75-4.92-3.27-7.79-.31-1.66-.59-3.29-.78-4.68C462.14 743.68 461.32 739.88 463.7 739.27z" fill="#0e0e0e" fill-rule="evenodd"/><path d="M451.86 742.23c3.74-1 3.43 6.49 4.05 9.66.31 1.54.66 3.12.94 4.52.51 2.57 2.08 6.81-1.56 6.54-2.67-.19-2.75-5.24-3.43-8.57-.39-1.93-.7-3.48-.93-5C450.57 747.13 449.25 742.91 451.86 742.23z" fill="#0e0e0e" fill-rule="evenodd"/><path d="M542.38 753.45c2-.49 4.8 1.92 6.23 2.81 2.22 1.35 4 2.57 5.46 3.42 11.33 6.65 24 10.9 37.86 15.11 4.31 1.32 8.93 2.75 13.86 3.9 11.6 2.7 25.61 4.06 37.39 6.7.63.14 1.25.19 1.87.31 1.94.39 3.9 1 3.9 2.65.0 1.14-.88 2.07-2.5 2.18-1.79.13-2.3-.27-3.89-.62-2.76-.62-6.29-1.36-7.48-1.56-5.64-1-10.73-1.66-15.73-2.49A213 213 0 0 1 589.9 779c-14.16-4.48-27.09-8.7-38.79-15.74-1.26-.75-3.42-2-5.61-3.42-1.35-.87-4.75-2.41-4.83-4.21A2.18 2.18.0 0 1 542.38 753.45z" fill="#0e0e0e" fill-rule="evenodd"/><path d="M366.18 759.06c1.62-.12 4.14-.39 5.45.47s1.54 3.43 1.87 5.14.84 3.47 1.24 5.61c.77 4 2.38 11 0 13.08a17.8 17.8.0 0 1-4.2 1.87 55.82 55.82.0 0 1-9.51 2.34c-2.38.43-5.81 1.07-7.79.0-2.35-1.27-3.19-6.53-3.89-9.66-.46-2-.76-3.9-1.09-5.61-.37-1.91-1.42-5.47-.47-7.32s4.9-2.69 7.79-3.58A42.78 42.78.0 0 1 366.18 759.06zM352 767.32c1.06 5.58 1.83 11.46 3.74 16.2a41.84 41.84.0 0 0 15.73-3.74 152.91 152.91.0 0 0-2.8-16.2C362.21 763.3 357.24 765.85 352 767.32z" fill="#0e0e0e" fill-rule="evenodd"/><path d="M545 783.83c1.8-.28 3.54 1.92 4.83 3.12a115.33 115.33.0 0 0 27.26 18.38c1.28.63 4.09 1.31 3.9 3.59-.21 2.45-3.26 1.93-5.3.93a125.35 125.35.0 0 1-29-19.63c-1.21-1.09-3.62-2.52-3.58-4.36A2 2 0 0 1 545 783.83z" fill="#0e0e0e" fill-rule="evenodd"/><path d="M269.74 791.78A100.71 100.71.0 0 0 255.56 789c-2.86-.32-5 .08-5.14-2.33-.14-3.35 5.28-2.27 8.26-1.87a82.12 82.12.0 0 1 11.21 2.33c2.44.66 5.14 1.25 5.3 3.74.13 2.06-2.23 4.58-3.58 6.08-1.51 1.66-3.5 3.24-5 4.67-2.61 2.51-4.63 4.79-7.32 7.17-.74.65-2.05 1.79-3.12 1.71a2.16 2.16.0 0 1-1.87-2.65c.17-1.36 2.4-3 3.74-4.2 1.57-1.45 3.06-2.84 4.05-3.74A66.26 66.26.0 0 0 269.74 791.78z" fill="#0e0e0e" fill-rule="evenodd"/><path d="M772.65 808.76a2.23 2.23.0 0 1 2.65 1.87c.19 2.1-2.25 4-3.9 5.61-.79.79-1.48 1.6-2.33 2.49s-1.69 1.85-2.81 1.87a2.36 2.36.0 0 1-2.18-1.4c-.62-2.26 2.38-4.26 3.74-5.61.85-.85 1.56-1.76 2.18-2.5C770.78 810.18 771.38 809 772.65 808.76z" fill="#0e0e0e" fill-rule="evenodd"/><path d="M744.76 835.56a2.16 2.16.0 0 1 2.65 1.4c.33 1.59-1.3 3.21-2.8 4.83A92.5 92.5.0 0 1 732.92 853a84 84 0 0 1-19.47 10.91c-7.16 2.84-14.48 5.7-20.57 9.82s-10.31 9.24-14.18 16.2c-3.62 6.51-6.27 14.06-8.88 21.66a147.94 147.94.0 0 1-9 21.34c-5 9.35-11.92 18.67-18.85 26.8-.81.95-2.16 2.54-3.59 4s-2.7 3.19-4.36 2.8a1.86 1.86.0 0 1-1.56-1.25c-.61-1.79 1.21-3.12 2.65-4.67a157.67 157.67.0 0 0 10.28-12.46 143.14 143.14.0 0 0 12-18.23c6.81-12.89 10.57-30.13 17.61-42.85a49.8 49.8.0 0 1 14-16.2c5.78-4.15 12.59-7.35 19.94-10.28 3.81-1.52 7.28-2.84 10.59-4.52 9.15-4.65 16.17-11.39 22.9-18.69C743.14 836.65 743.64 835.8 744.76 835.56z" fill="#0e0e0e" fill-rule="evenodd"/></g></g></g></svg>