<svg xmlns="http://www.w3.org/2000/svg" width="989.89" height="1080" viewBox="0 0 989.89 1080"><g id="Слой_2" data-name="Слой 2"><g id="podcast_490818648"><g id="podcast_490818648-2" data-name="podcast_490818648"><path d="M498.24 75.56c-2.39-.29-8.39-1.23-16.33-1.7-2.15-.13-3.86-1.39-5.85-1.88-1.11-.27-2.53-.34-2.48-2 0-1.36 1-2.07 2.12-2.65A29.5 29.5.0 0 1 491.58 64a13.64 13.64.0 0 0 2-.18c-.29-.79-1.07-.84-1.69-1-12.23-2.66-22.44-4.29-31.44-7.82-2.11-.83-5.06-1-4.89-4.36.32-6.52 10.71-5.36 50.77-5.79 1.14.0 3 .51 3.25-.45.31-1.22-1.52-1.49-2.56-2a197.94 197.94.0 0 1-31.7-18.1 37.52 37.52.0 0 1-6.39-5.18c-2.16-2.39-2.3-4-.72-7s3-3.91 6.17-3.39c11.11 1.77 22.41 7.05 40.18 14.26a4.54 4.54.0 0 0 1.48.08 4.6 4.6.0 0 0-.65-1.29c-5-5-7.55-6.2-6.07-9.2.88-1.77 2-3.26 4.16-3.4a9.53 9.53.0 0 1 3.06.26c56.89 15.42 50.17 21.78 73.12 33 6.42 3.13 11.06 8.64 16.37 13.22 37 32 54.31 88.63 58.91 137.35 1 11.11 3.47 22.05 4 33.22 1 20.09 2.89 41.15 6.56 82.11.44 4.83.46 5-4.23 5.31-15.09.91-30 3.27-45.1 4.46-10.28.8-20.37 3.11-30.61 4.18-12.06 1.26-10.08.63-9.71-8.77 1.07-26.9-5-100.82-7.32-123.81-2.06-20.1-14.3-68.14-18.21-98.67-.31-2.36-1-3.72-3.45-4.26-10.19-2.18-20.28-4.76-30.46-7C507.82 75.71 512.31 77.27 498.24 75.56z" fill="#b25538"/><path d="M524.72 62.4c2.43 3.39 1.5 6-2.6 6.51-15.56 1.78-30.7 1.1-30.74 1.7.0.82.69 1.13 1.33 1.29 17.21 4.64 9.07 2.24 22.71 4.41a4.47 4.47.0 0 1 4 3.52c1.15 4.27-.06 6.13-4.49 6.31-22.31.93-44.24-1.24-65.56-8.24-3.72-1.22-3.72-1.21-4.66 2.62-5.37 22-10.27 44.11-16.25 65.93q-8.32 30.45-14.81 61.28c-.21 1-5 25.14-5.75 29.19h0c-.15.79-2.58 14.51-2.75 15.51-11.14 66.23-4.24 69-13 72.66-19.14 7.93-28.24 9-83.59 25.75-6.19 1.88-7.2 1.33-6.42-5 1-8.5 1.45-17.05 1.93-25.58.08-1.16.15-2.31.21-3.46.33-5.4.85-10.77 1.37-16.15 3.49-35.89 3.34-56.08 9.17-78.17.58-2.2 1.13-4.3 1.67-6.34h0l1.17-4.48c11.33-43.79 11-48.56 14.1-60.61.15-.56.3-1.14.46-1.75.36-1.33.77-2.77 1.24-4.36 6.37-21.59 14.79-42.15 26.33-61.05a196.55 196.55.0 0 1 16.38-23c.81-1 1.65-2 2.5-3C407.25 24.58 425.71 15.43 468.42.81A10 10 0 0 1 475 .39c2.55.88 3.32 2.28 2.21 4.73a30.25 30.25.0 0 1-6.07 8.27c-11.7 12-11.73 11.2-11.34 12.29.74 2.09 3.25-1.63 51.32 9.78 4.87 1.15 9.36 3.33 13.85 5.48 4.93 2.36 3.9 6.45.65 7.22a23.54 23.54.0 0 1-8.2.2c-15.91-1.84-31.91-.78-47.85-1.56a15.44 15.44.0 0 0-5.11.34c-2 .56-3.77 1.52-3.74 3.68s1.78 3.24 3.83 3.52c5.62.73 11.22 1.73 16.87 2 12.7.62 25.37 1.41 37.93 3.49C521.41 60.2 523.4 60.52 524.72 62.4z" fill="#a84a31"/><path d="M298.34 494c-7.23-32-10.34-117.26-9.91-135.82.13-5.34-.79-6 3.83-6.66S345.81 335.31 350.1 334c53.18-16.68 40.47-14.24 55-19 3.45-1.14 4.62 40.29 21.8 87.77 5.86 16.18 3.4 16 9.07 15.48 98.3-9.76 48.86-7.19 128.35-14.95 7.68-.75 4 2.37 8.34-43.94.57-6.1 2.43-41.53 5.92-41.75 18.14-1.14-12.14-1.21 98.77-8.31 8.32-.53 18.05-3.18 26.21-2.6 1.59 38-2.49 61.93-.83 132.7 3.1 132.05-16.14-14 13.2 245q2.13 18.84 4.64 37.62c1 7.56.15 19.64 3.72 26.15-38.24 18-396.72 8.26-438.8 17.18-3.78-10.48.44-28.22 1.28-39.3C303 513.89 318.94 585.08 298.34 494z" fill="#231f20"/><path d="M578.59 506.94A104.44 104.44.0 0 1 573 535.62a64.89 64.89.0 0 1-7.84 15.69 50.88 50.88.0 0 1-20.68 16.79c-9.86 4.43-20.84 5.84-30.82 10S494 590.36 493.22 601.14c-8.5-14.45-22.75-24.8-38-31.67-20.84-9.38-39.15-24-55.87-39.29a1.12 1.12.0 0 1-.45-.67 1.14 1.14.0 0 1 .27-.75c6-9.14 15.16-15.75 20.44-25.41 6.87-12.57 89 2.9 134.55-27.91 3.46-2.34 6.28-2.4 9.8.1 8 5.65 15.2 13.67 15 23.78Q578.84 503.16 578.59 506.94z" fill="#b25538"/><path d="M493.43 339.62c14.17.91 24.45 5.5 32.81 14.66a129.68 129.68.0 0 1 12.11 15.05c2.35 3.5 4.44 7 5.37 11.13a22.17 22.17.0 0 1 .5 6.24c5.24-1.37 12.25.53 12.56 6.78.26 5-2.37 10.18-7.79 10.82a22.17 22.17.0 0 1-5.45-.27c-.35 2.28-.91 4.58-1.47 6.81a67.18 67.18.0 0 1-15.9 30.05c-7.86 8.39-17.9 14.38-28.58 18.45-16.13 6.15-35 7.17-50.75.11-13.82-6.18-20.8-17.29-22.57-32.08a69.7 69.7.0 0 1-.12-18.42c-5 .23-11.42-2.26-11.47-8.13.0-3.77 1.47-6.67 4.85-8.42a12.86 12.86.0 0 1 10.57-.29q.81-5.6 2.18-11.09c.74-3 2.62-5.82 4.38-8.33 3.47-4.95 7.88-9.11 11.72-13.76 7-8.51 16.15-13.82 26.6-16.75C480.26 340.13 487.75 339 493.43 339.62z" fill="#b25538"/><path d="M415.58 476.6c.5-5.55 1.36-11.09 2.39-16.54 1.49-7.88 3.33-15.73 3.69-23.74s-.5-15.91.85-23.82c1.38-8.09 5.3-29.78 5.93-33.52a29.69 29.69.0 0 1 5.22.0s-.08 2.06.17 12.72 2.05 21.52 3.1 32.28c.61 6.22-.44.0 35.73-4.92 12.69-1.71 25.38-.52 38.06-.22 3.6.08 7.19.55 10.79.79 3.83.25 3.9.24 4.83-3.53 9.14-37.08 10-37.7 10-37.7l10 .74c-1.06 9.07-1 25.32-1 34.42.07 26.32 14.39 42.27 19 51.93 4.23 8.92-2.26 10-3.25 24.3-.27 3.9-2 6.73-4.35 9.58-2.72 3.23-4.85 7.17-7.27 10.63l-4.19 5.95c-4.65 6.59-9.22 12.08-16.53 15.82-7 3.59-14.4 6.3-21.18 10.42a26.46 26.46.0 0 1-9.18 3.14c-16.4 3-31.69-.76-46.56-7.3-1.42-.62-2.77-1.4-4.22-1.92a29.2 29.2.0 0 1-12.45-8.86c-.9-1.07-9.26-11.21-8.15-11.86-1.87 1.09-4.38.37-5.93-1.14a13 13 0 0 1-3-5.7C415 498.22 414.61 487.39 415.58 476.6zm59.29-45.82a12.63 12.63.0 0 0 1.27 6.62c1.79 3.19 5.48 4.28 8.91 4.56 11.91 1 12.77-17 12.4-17a100.8 100.8.0 0 1-10.68 1 98.11 98.11.0 0 1-11.48-.69C475.16 427.05 474.92 428.92 474.87 430.78z" fill="#fbd2ff"/><path d="M492.39 354.24c-7.69-.09-15.68-1-21.71-6.13-2.9-2.46-.29-14.47 9.47-22.09 6.43-5 17.28-5 14.59 5 1.12-5.16 9.3-7.08 13.31-4.32 1.79 1.24 2.49 4.18.83 5.58 1.86-1.57 11.71-2.67 4.67 8.25C506.22 351.89 505.46 354.4 492.39 354.24z" fill="#ba8abe"/><path d="M443.67 389.61c-1.56.0-3.06-.22-3.81-1.37-1-1.51.14-2.92 1-4.22 6.18-9.1 15.07-12 25.53-10.82a10.91 10.91.0 0 1 9.37 7.82c.07.21.14.43.2.64.34 1.15.72 2.52-.1 3.55-1.08 1.36-3.53 1.61-5.1 1.87-4.27.72-8.63 1-12.95 1.34l-10.32.82C446.52 389.32 445.07 389.58 443.67 389.61z" fill="#231f20"/><path d="M506.14 382.4c-2.05-.15-4.1-.25-6.14-.48-1.3-.14-1.67-1-1.31-2.22a8.12 8.12.0 0 1 4.48-5.24 14.93 14.93.0 0 1 8.36-1.21 29.55 29.55.0 0 1 6.26 2.16l6.05 2.6c2.48 1.07 5.1 2.41 5.27 5.4a2 2 0 0 1-2 2.37c-1.94.26-4.09-.38-6-.79-3-.65-5.93-1.35-8.93-1.85C510.23 382.8 508.19 382.54 506.14 382.4z" fill="#231f20"/><path d="M489.08 399.66c-.7 1.7-.54 4.43-2.23 5.54a3.79 3.79.0 0 1-4.83-1c-1.48-1.69-1.8-4-1.79-6.18a52.36 52.36.0 0 0 0-7.41c-.16-1.16-1.94-.81-1.78.35.7 5.09-1.59 11.58 3.17 15.33a5.41 5.41.0 0 0 6.2.41c2.24-1.46 2.05-4.21 3-6.44C491.23 399.19 489.52 398.59 489.08 399.66z" fill="#9e432b"/><path d="M515.27 396.05c-1.42-2-3.17-4.18-5.82-4.4-2.9-.24-5.23 1.74-7.18 3.62-.83.8.34 2.18 1.18 1.37 1.58-1.52 3.49-3.38 5.86-3.18 2.11.17 3.48 2.2 4.59 3.77a.92.92.0 0 0 1.28.1A.93.93.0 0 0 515.27 396.05z" fill="#231f20"/><path d="M454.19 394.74c-3.26.05-5.8 2.24-7.5 4.85-.64 1 .85 2 1.49 1 1.29-2 3.1-3.81 5.56-4.05 2-.21 4.29 1.2 4.14 3.44a.9.9.0 0 0 1.8.13A5.31 5.31.0 0 0 454.19 394.74z" fill="#231f20"/><path d="M490.86 429.77a7.52 7.52.0 0 1-4.58 1.24 7.39 7.39.0 0 1-4-.76c-.61-.3-2.26-1.16-2.38.1-.3 3.37 1.81 6.91 5.44 7.13 3.8.23 5.81-3.67 6.94-6.72A.91.91.0 0 0 490.86 429.77zm-5.21 5.91a4.08 4.08.0 0 1-3.82-3.5 8.57 8.57.0 0 0 4.32.64 13.86 13.86.0 0 0 3.53-.49C488.82 434.06 487.56 435.73 485.65 435.68z" fill="#231f20"/><path d="M449.53 457.44a19 19 0 0 1-.06-2.52 19.67 19.67.0 0 1 .27-2.65.91.91.0 0 0-.84-1 .93.93.0 0 0-1 .83 22.83 22.83.0 0 0-.18 5.66.92.92.0 0 0 1.07.71A.93.93.0 0 0 449.53 457.44z" fill="#ba8abe"/><path d="M434.7 468a.93.93.0 0 0-.84-1 .9.9.0 0 0-1 .83v7.53a.93.93.0 0 0 .84 1 .9.9.0 0 0 1-.83z" fill="#ba8abe"/><path d="M429.52 505.53c0-1.16-1.76-1.3-1.8-.13-.13 3.3-.25 6.6-.38 9.9.0 1.16 1.76 1.3 1.81.13C429.27 512.13 429.4 508.83 429.52 505.53z" fill="#ba8abe"/><path d="M460.37 507.28a.91.91.0 0 0-1.78.35 25.24 25.24.0 0 1 .4 5.82.91.91.0 0 0 1.81.13A28.27 28.27.0 0 0 460.37 507.28z" fill="#ba8abe"/><path d="M472.76 542.81c-.39-1.73-.79-3.45-1.18-5.18a.91.91.0 1 0-1.78.35c.4 1.73.79 3.45 1.18 5.18a.91.91.0 0 0 1.78-.35z" fill="#ba8abe"/><path d="M497 536.3c-.31 2.68-.63 5.37-.94 8.05-.13 1.16 1.67 1.29 1.8.14.32-2.69.63-5.37.94-8.06C499 535.28 497.17 535.15 497 536.3z" fill="#ba8abe"/><path d="M545.71 506.59a.91.91.0 0 0-1.63.8 12.14 12.14.0 0 1 .89 5.33.9.9.0 0 0 1.8.14A14.17 14.17.0 0 0 545.71 506.59z" fill="#ba8abe"/><path d="M534.4 494.77l-.72-6.08a.9.9.0 1 0-1.77.35q.35 3 .71 6.08a.91.91.0 0 0 1.06.71A.92.92.0 0 0 534.4 494.77z" fill="#ba8abe"/><path d="M494.24 513.07a.93.93.0 0 0-.84-1 .91.91.0 0 0-1 .83l-.18 7.21a.91.91.0 0 0 1.81.13z" fill="#ba8abe"/><path d="M510.26 475.49a.91.91.0 0 0-1.78.35 38.55 38.55.0 0 1 .77 9.15c0 1.16 1.77 1.3 1.81.14A41.6 41.6.0 0 0 510.26 475.49z" fill="#ba8abe"/><path d="M476.91 476c0-1.16-1.76-1.3-1.81-.14-.14 3.31-.27 6.61-.41 9.91-.05 1.16 1.75 1.3 1.8.14z" fill="#ba8abe"/><path d="M508 446.67a.91.91.0 1 0-1.81-.13q.06 3.31.1 6.63a.94.94.0 0 0 .83 1 .91.91.0 0 0 1-.84z" fill="#ba8abe"/><path d="M527.51 438.26a38.47 38.47.0 0 1 .13-6.07.9.9.0 0 0-.83-1 .91.91.0 0 0-1 .83 39.79 39.79.0 0 0-.1 6.55.9.9.0 0 0 1.77-.35z" fill="#ba8abe"/><path d="M552.14 453.36a.92.92.0 0 0-1.07-.72.94.94.0 0 0-.71 1.07 27.94 27.94.0 0 1-.17 6.06.91.91.0 1 0 1.81.13A30.43 30.43.0 0 0 552.14 453.36z" fill="#ba8abe"/><path d="M561.83 481.72l-.25-.36-.23-.33s-.14-.21-.17-.27-.17-.27-.24-.4a17.58 17.58.0 0 1-.82-1.62.91.91.0 0 0-1.21-.41.93.93.0 0 0-.41 1.21 17.66 17.66.0 0 0 2 3.36.9.9.0 0 0 1.37-1.18z" fill="#ba8abe"/><path d="M538.74 412.55a.93.93.0 0 0-1 .84l-.18 2.39a.91.91.0 0 0 1.81.14l.18-2.4A.93.93.0 0 0 538.74 412.55z" fill="#ba8abe"/><path d="M533 464.8a.91.91.0 0 0-1.81-.13c.06 1.61.11 3.22.17 4.83a.9.9.0 0 0 1.8.14C533.1 468 533 466.41 533 464.8z" fill="#ba8abe"/><path d="M429.51 436.61a.93.93.0 0 0-1 .83l-.45 6a.91.91.0 0 0 1.81.14l.44-6A.91.91.0 0 0 429.51 436.61z" fill="#ba8abe"/><path d="M459.81 432.88a.92.92.0 0 0-1.16.55 10.74 10.74.0 0 0-.59 3.81 1 1 0 0 0 .22.65.89.89.0 0 0 1.58-.52 11.81 11.81.0 0 1 .1-1.78c0-.13.05-.27.07-.4s0-.06.0-.08a1.42 1.42.0 0 1 .05-.22c.07-.29.16-.57.25-.86A.9.9.0 0 0 459.81 432.88z" fill="#ba8abe"/><path d="M488.09 458.19l-.66-3.36a.9.9.0 0 0-1.77.35c.22 1.12.43 2.24.65 3.36a.91.91.0 0 0 1.78-.35z" fill="#ba8abe"/><path d="M522.38 525.47c0-.18.0-.37.0-.56a1.36 1.36.0 0 0 0-.21 1.41 1.41.0 0 0 0-.2c0-.37.0-.73.0-1.09a15 15 0 0 1 .25-2.21.91.91.0 0 0-.84-1 .93.93.0 0 0-1 .83 16.52 16.52.0 0 0-.13 4.76.92.92.0 0 0 1.06.72A.93.93.0 0 0 522.38 525.47z" fill="#ba8abe"/><path d="M399.27 177.59q-7 7.53-13.65 15.36a1.4 1.4.0 0 1-1.53.43 1.27 1.27.0 0 1-1.37.0c-6.86-4.45-11.66-11.19-17.71-16.56q.58 12.33 2.26 24.58a1.64 1.64.0 0 1 0 .5 1.26 1.26.0 0 1-.37 1.39q-11.11 9.94-22.94 19l22.27 1.7a1.32 1.32.0 0 1 1.15 1.76q-.17 16.81-.32 33.62a225.87 225.87.0 0 0 15.47-26.43 1.46 1.46.0 0 1 2.67.14q10.23 8.17 20.44 16.37c-.17 1-.35 2.05-.52 3.05l-21-16.8A233.25 233.25.0 0 1 367 264.18c-.17 1.57-2.7 1.33-2.69-.36l.36-37.29-24.07-1.84a1.28 1.28.0 0 1-1.19-1.52 1.14 1.14.0 0 1 .47-1.22q12.76-9.64 24.72-20.3-1.89-13.77-2.41-27.66a1.18 1.18.0 0 1 .27-.82 1.22 1.22.0 0 1 1.9-.48c7 5.47 12.1 13.17 19.54 18.14q7.85-9.21 16.15-18a1.15 1.15.0 0 1 1.9.24 1.09 1.09.0 0 1 .58 1.22 110.19 110.19.0 0 0-1.46 23.09 1.6 1.6.0 0 1 .32.23 122.26 122.26.0 0 0 12.23 10.14c-.21 1-.41 1.94-.61 2.92a129.75 129.75.0 0 1-13.68-11.29 1 1 0 0 1-.27-.45 1.39 1.39.0 0 1-.68-1.16A110.47 110.47.0 0 1 399.27 177.59z" fill="#231f20"/><path d="M410.14 224.78a95.21 95.21.0 0 0-9.79 1.36 66.74 66.74.0 0 1 7.5 10.78h0c-.15.79-.64 3.4-.73 3.93-3.09-4.91-5.8-10.1-10-14.16a1.17 1.17.0 0 1-.34-.52 1.37 1.37.0 0 1 .73-2.24A100.75 100.75.0 0 1 410.68 222z" fill="#231f20"/><path d="M353.07 252.59Q337.79 263 323.47 274.8q10.74 15.21 22 30a1.32 1.32.0 0 1 .24 1.2 1.18 1.18.0 0 1-1.39 1.26Q330 305 315.68 303q-.63 11.88-1.26 23.74a1.14 1.14.0 0 1-.18 1.1 1.32 1.32.0 0 1-1.42.61h0l-.23-.06v0a1.29 1.29.0 0 1-.57-.4q-3.93-3.87-8-7.63c.08-1.16.15-2.31.21-3.46q3.87 3.56 7.64 7.21.59-11.25 1.2-22.51a1.23 1.23.0 0 1 1.18-1.21 1.2 1.2.0 0 1 .89-.18q13.25 1.85 26.47 3.94Q330.86 290 320.65 275.49a1.36 1.36.0 0 1-.25-1.05 1.23 1.23.0 0 1 .47-1q13-10.77 26.93-20.43l-16.27 1.48a1.4 1.4.0 0 1-.95-.25 1.11 1.11.0 0 1-.71-.75q-6.39-18.77-13.46-37.29h0l1.17-4.48q7.65 19.86 14.53 40 9.88-.91 19.78-1.8a1.44 1.44.0 0 1 1.56 1.22A1.07 1.07.0 0 1 353.07 252.59z" fill="#231f20"/><path d="M413.21 84.24c-2.62-8.31-10-9.89-17.75-10.16a59.64 59.64.0 0 0-11.24.7 1.35 1.35.0 0 0-.62.26c-1.47-3.87-1.82-8.17-4.38-11.58a8.38 8.38.0 0 0-3.13-2.59 196.55 196.55.0 0 0-16.38 23c1.32-.26 2.62-.56 3.92-.89 4.25-1.07 8.4-2.44 12.61-3.66a61.45 61.45.0 0 1 19.84-2.61c6 .27 12.06 1.36 14.36 7.69 1.27 3.53 1.21 7.55.91 11.23-.34 4-1.56 7.74-4.55 10.58s-6.53 4.45-10.1 6.07a.83.83.0 0 0-.72-.18 210.17 210.17.0 0 0-27 6.75.91.91.0 0 0-.59.57.84.84.0 0 0-.26.75 27.06 27.06.0 0 0 3.1 8.74c-2.54 4.33-4.28 9.11-7.19 13.23a23.77 23.77.0 0 1-9.81 8 24.4 24.4.0 0 1-12.64 2 35.11 35.11.0 0 1-9.48-2.83c-.16.61-.31 1.19-.46 1.75a37 37 0 0 0 9.8 2.89 26.33 26.33.0 0 0 22.74-9c3.55-4.19 5.43-9.44 8.1-14.18 1.79 2.9 4.33 5 7.84 5.4 6.92.73 13.17-4.31 15.91-10.31a24.79 24.79.0 0 0 2-11.19 39.28 39.28.0 0 0 10.13-6 17.78 17.78.0 0 0 5.71-11.36A31.39 31.39.0 0 0 413.21 84.24z" fill="#231f20"/><path d="M385.64 1079.06c-34.68-2.78-69.05-12-94.14-31.46C259.78 1023 249.43 977.88 215 957.11c-13.93-8.41-30.29-11.79-46.44-13.85-33.32-4.26-67.6-3.58-99.69-13.52-29.74-9.22-52.57-28.07-65.56-56.29-12.61-27.38 14-54.07 30.34-75.59C48.73 778 59.38 772 78.06 756.66c4-3.25 22.24-15.13 27.35-14.8 6.85.44 36-1.8 68-.7 207 7.16 700.49-11.43 700.58-11.37 2 1.34 30.44 42.39 35 50.55 16.27 28.6 78.15 30.61 80.67 71.45 2.7 43.79-20.68 88.93-56.82 114.27-12.21 8.56-26.38 13.87-40.53 18.6-27.48 9.18-53.44 15-82.27 13.61-44.75-2.12-89.14 1.77-133.5 6.61-33.22 3.62-63.89 19.09-94 32.49-39 17.36-79.54 32-121.71 38.65A326.48 326.48.0 0 1 385.64 1079.06z" fill="#335c64"/><path d="M863.94 845.92c-1.13 6.34-1.52 11.64-2 16.94-.63 7.12-3.6 10-10.46 9.83-9.38-.31-18.84.49-27.85-3.47-3.33-1.47-5-3.31-5.08-6.79a139.19 139.19.0 0 1 .18-15.42 114.47 114.47.0 0 0 .92-14.89c-.2-6.51 2.34-12.43 3.3-18.67.37-2.42 2.24-3.6 4.74-4a53.38 53.38.0 0 1 20.92.92c2.69.62 5.4.86 8.07 1.43 5.15 1.11 6.15 1.88 6.54 7C864.31 833.06 864.29 820.62 863.94 845.92z" fill="#fcfcfc"/><path d="M725.84 519.06A1137.11 1137.11.0 0 0 648 798.33q-5.89 40.75-8.81 81.86c-.25 3.49 5.17 3.9 5.41.41A1131.41 1131.41.0 0 1 701.94 597q13.13-38.58 29-76.14C732.32 517.67 727.2 515.86 725.84 519.06z" fill="#d86648"/><path d="M868 641.75a700.73 700.73.0 0 0-126.38-118.2c-2.83-2.06-5.9 2.42-3.08 4.47A695.39 695.39.0 0 1 863.92 645.29C866.16 648 870.27 644.44 868 641.75z" fill="#d86648"/><path d="M878.67 806.27a37.62 37.62.0 0 0-24.39-16.14q9.3-67.78 16.36-135.85c.36-3.47-5-3.87-5.41-.4q-7.05 67.93-16.33 135.61c-.49.0-1-.06-1.47-.07-27-.34-46.72 25.23-41.3 51.25a2.83 2.83.0 0 0 .53 1.16 2.46 2.46.0 0 0 2.12 1.37l13.77 1c3.48.26 3.89-5.15.4-5.41l-11.8-.88C807.62 816 824.09 794.68 847 794.84A32.6 32.6.0 0 1 874 809c7 10.4 5.31 22.32 2.71 33.84a87.46 87.46.0 0 0-13-.27c-3.44.19-3.89 5.6-.41 5.41a89.47 89.47.0 0 1 15 .45 2.35 2.35.0 0 0 2.23-.87 2.25 2.25.0 0 0 1-1.5C884.61 832.43 886.76 818.6 878.67 806.27z" fill="#d86648"/><path d="M742.69 523.13c-.06-5.1-4-12.29-9-14.19a8.15 8.15.0 0 0-7.25.81h-.17c-6.08.8-8.25 7.16-6.47 12.44s6.91 10.4 12.86 10.41C738.09 532.63 742.75 528.66 742.69 523.13z" fill="#231f20"/><path d="M880 646.93c-2.13-4.74-7.78-6.88-12.74-6-6-.45-10.71 5.6-9.37 11.43 1.42 6.15 8 9.85 14.07 8.69C878.2 659.86 882.79 653.05 880 646.93z" fill="#231f20"/><path d="M692.46 893.48c-31.22-20.2-69.6-17.31-104.08-8.52a2.65 2.65.0 0 0-1.57 1.08 9.41 9.41.0 0 0-3.41 2.75 2.61 2.61.0 0 0-.2 2.73c1.89 2.94 4.42 4 7.82 4.45 5.2.76 10.52 1.06 15.75 1.52q17 1.49 33.92 2.38 16.53.89 33.09 1.2c4.92.09 19.37 2.93 19.84-5.16A2.72 2.72.0 0 0 692.46 893.48z" fill="#231f20"/><path d="M254.05 742.68c9.42 13.39 10.87 30.67 10.33 46.7-.15 4.54-.78 9.23-.12 13.74a16.54 16.54.0 0 0 5.23 9.89c5.78 5.41 14.25 7.88 21.74 9.78A77.69 77.69.0 0 0 318.47 825a60.09 60.09.0 0 0 13.5-3 95.79 95.79.0 0 0 12.46-5.67c4.13-2.19 8.16-4.53 12.27-6.72s8.28-4.59 12.8-5.51c5-1 10 .36 14.73 2 4.23 1.49 8.54 3 12.34 5.4a19.23 19.23.0 0 1 8.16 9.82 12.88 12.88.0 0 1-1.72 12c-2.49 3.27-6.16 5.35-9.8 7.11s-7.1 3.16-10.75 4.53c-14.75 5.5-30.25 8.91-44.71 15.21a76.82 76.82.0 0 0-19.2 11.55c-2.9 2.46-6.33 5.35-7.68 9a9.54 9.54.0 0 0 1.52 8.88 20.47 20.47.0 0 0 8.48 6.73c4 1.73 8.34 2.32 12.57 3 4.54.74 9.17 1.51 13.42 3.34a26.36 26.36.0 0 1 9.54 7A27.8 27.8.0 0 1 363 931.23c-.63 4.53-2.53 8.65-4.5 12.73-1.85 3.82-3.79 7.74-4.32 12-.46 3.73.18 7.54 3 10.26 2.61 2.54 6.41 3.62 10 3.74 4.81.16 9.54-1.28 14.11-2.62l15.1-4.45a2.24 2.24.0 0 1 2.55 1.43c2.55-6 7.48-10.13 11.9-14.65 7.18 3.38 13.12 11.09 18.82 16.47l19.54 18.46a1.79 1.79.0 0 1-.05 2.39 1.65 1.65.0 0 1-.23.43c-.71.94-1.45 1.89-2.21 2.83 6.16 4 11.34 10.33 18.64 12.27 6.84 1.82 13.45-2.26 18.47-6.49a139.68 139.68.0 0 0 16.91-17.48 101.09 101.09.0 0 0 7.6-9.87c1.9-2.95 3.29-6.43 1.55-9.78-1.58-3.07-4.67-5.21-7.28-7.34l-8.45-6.88a33.41 33.41.0 0 1-5.08 5 1.81 1.81.0 0 1-2.62-.38c-4.93-6.36-13.24-11.65-19.31-17S454.6 922.13 448.44 917c2-2.54 4.21-4.79 6.41-7.14 2.39-2.62 4.84-5.3 8-6.93 5.89-3.05 12.34.19 17.79 2.8 5.78 2.77 11.29 6.49 14.91 11.89a21.75 21.75.0 0 1 3.55 17.21 22.38 22.38.0 0 1-2.41 6.06c3.58 2.91 7.17 5.81 10.72 8.74 3.31 2.73 6.74 5.92 7.62 10.31s-1.26 8.84-3.78 12.43-5.49 7.2-8.43 10.62-6 6.78-9.23 10a82.71 82.71.0 0 1-9.28 8.37c-6.39 4.76-14.22 7.77-22.09 4.88-7.13-2.64-12.23-8.62-18.55-12.61a21.28 21.28.0 0 1-8.74 5.71c-6.69 2.09-13.11-1.39-18.78-4.65-5.49-3.16-11.13-6.66-14.82-12-3.25-4.69-4.72-10.29-3.3-15.8a2.71 2.71.0 0 1-.77.36c-4.9 1.43-9.79 2.89-14.69 4.33-8.55 2.53-18.3 4.91-26.32-.43a14.9 14.9.0 0 1-6.5-10.21 25.29 25.29.0 0 1 1.84-12.64c1.68-4.31 4.08-8.3 5.66-12.65a22.19 22.19.0 0 0 1.23-11.15 23 23 0 0 0-11.84-16.93c-8.19-4.2-17.87-3.3-26.35-6.58-6.93-2.68-14-8.77-14.43-16.68-.24-4.5 2-8.28 5-11.48a57.53 57.53.0 0 1 8.72-7.63 93 93 0 0 1 20.6-10.9c14.69-5.78 30.2-9.17 44.82-15.17a63.58 63.58.0 0 0 10.7-5.18c2.94-1.93 5.53-4.74 5.35-8.48s-2.74-7.24-5.75-9.42c-3.57-2.59-7.83-4-11.94-5.5-4.57-1.64-9.3-3.1-14.14-1.77a36.14 36.14.0 0 0-6.19 2.62c-2.06 1-4.08 2.09-6.1 3.19-8.21 4.49-16.27 9.29-25.22 12.21a69.26 69.26.0 0 1-27.82 2.7 90.13 90.13.0 0 1-26.5-6.56c-7.33-3.11-14.37-8-16.85-15.89-1.38-4.44-1-9.23-.82-13.8.24-4.9.38-9.81.22-14.71-.43-12.6-3.47-26.22-11.57-36z" fill="#fcfcfc"/><path d="M855.41 855.55 850 855q.63-9.74 1.25-19.46c.94.09 1.87.16 2.81.26 1.74.17 1.94-2.53.2-2.71l-2.84-.26c.16-2.56.33-5.13.49-7.69l4.92.43a1.36 1.36.0 0 0 .2-2.71l-4.94-.43.39-6.21a1.35 1.35.0 0 0-2.7-.2q-.21 3.09-.4 6.18-7-.56-13.95-1c.17-2.22.33-4.43.5-6.65a1.35 1.35.0 0 0-2.7-.2l-.51 6.69c-1.88-.1-3.75-.21-5.63-.3s-2 2.62-.2 2.71 3.75.19 5.62.3l-.58 7.73c-1.74-.08-3.48-.15-5.22-.2s-2 2.65-.21 2.7 3.48.13 5.22.2q-.72 9.45-1.43 18.89l-4.77-.46a1.35 1.35.0 0 0-.2 2.7l4.76.46q-.42 5.63-.85 11.25a1.35 1.35.0 0 0 2.7.2q.43-5.6.85-11.18l14.35 1.38-.6 9.28a1.36 1.36.0 0 0 2.71.21c.2-3.08.39-6.15.59-9.23l5.37.52C857 858.43 857.15 855.72 855.41 855.55zM835.23 824q7 .42 14 1l-.49 7.67q-7-.6-14.08-1zM833 853.39l1.44-19q7.06.36 14.11 1l-1.24 19.45z" fill="#d86648"/></g></g></g></svg>