<svg xmlns="http://www.w3.org/2000/svg" width="1080" height="860.21" viewBox="0 0 1080 860.21"><g id="Слой_2" data-name="Слой 2"><g id="bottle01_111613018"><g id="bottle01_111613018-2" data-name="bottle01_111613018"><path d="M766.29 413.81c4.75-9.12 7.24-19 9.54-28.91.38-1.61-.1-3.43-.17-5-1.38-1.05-2.28-2.14-3.45-2.59-22.17-8.49-41.16-22.46-60.58-35.59-18.15-12.26-32.91-28.25-46.85-45-1.93-2.31-3.08-5.5-7.27-6.34-1 .6-2.77 1.2-3.88 2.4q-10.78 11.73-21.32 23.71c-6.26 7.1-10.16 15.44-12.83 24.52a302.59 302.59.0 0 1-16.65 43.33c-4.89 10.37-10.07 20.59-15.69 32.06a33.14 33.14.0 0 0 4.9 1.67 295.9 295.9.0 0 1 60.27 15.46c14.52 5.44 28.75 11.62 42.94 17.83 4.87 2.11 8.86 2.42 13.69-.46q23.4-13.92 47.32-27A23.29 23.29.0 0 0 766.29 413.81zm-104.8.6c-1.88.5-4.46-1.24-4.92-3.29-.94-3.95.08-7.2 3.2-9.16a67.35 67.35.0 0 1 9.19-5c3.23-1.36 6-.4 7.53 3.24C674.84 408.32 669.18 412.42 661.49 414.41zm11.62-30.05c-1.94-4.08-2.77-8.33-.33-12.5 1-1.63 2.08-2.27 3.28-2.22 4.66.21 10.42 11 11.66 13.12.85 1.5-.68 4.83-2.32 5.56C680.7 390.44 675.15 388.7 673.11 384.36zm26.74 29.25c-2.2 2.43-5 2.66-8.19.69-5-3.14-9.4-6.73-8.24-13.55.2-1.1 1.31-2 1.81-2.78.89-.17 1.45-.47 1.72-.29 4 2.52 8.22 4.8 11.84 7.79C701.75 407.93 701.79 411.48 699.85 413.61zm14.35-21.82a35.66 35.66.0 0 1-7.51 2c-2.07.33-4.24.06-7.26.06-.46-2.37-.75-3.63-.92-4.93-.8-5.71 1.15-8.34 6.5-8.49a60.25 60.25.0 0 1 7.82.4c2.21.19 4.3.8 4.93 3.4C718.55 387.5 717.24 390.62 714.2 391.79z" fill="#ffe571"/><path d="M636.51 248.43c-2.39 19.83-4.59 38-7.1 58.67 9.56-9.87 17.15-17.68 24.72-25.47C648.25 270.53 642.72 260.12 636.51 248.43z" fill="#ffe571"/><path d="M504.36 619c11.39 7.77 22 16.59 28.9 28.89 6.3 11.17 12.41 22.45 18.67 33.67.79 1.47 1.84 2.78 4.26 6.33 1.69-9.46 2.91-16.4 4.17-23.36s5-13.17 4.48-20.94c-10.18-5.24-20.33-10.53-30.57-15.71-19.85-10-38.66-21.58-55.62-36-2.69-2.28-5.26-4.76-8.12-6.83-3.13-2.26-4-6.76-8-8.41-3.23 2.42-6.3 4.28-8.8 6.71-2.3 2.24-6 3.4-6.83 7.51 2.39 1.05 4.37 2 6.43 2.8C471.23 600.22 488.54 608.15 504.36 619z" fill="#ffe571"/><path d="M602.8 144.36c-3.66 9.51-7 19.14-10.92 28.52-7 16.58-16.55 31.3-31.53 41.86-23.61 16.67-49.06 29.95-75.61 41.26C461.51 265.87 438 274.79 413.43 281c-5 1.25-8.23 4-10.83 8.76C386 320.19 373 351.86 365.58 386c-7.26 33.21-7.1 65.78 3.31 98.22a106.93 106.93.0 0 0 12.29 26.37c7.91 12 19.22 18.16 33.08 19.54A88.71 88.71.0 0 0 442 528.56c16.33-3.51 31-10.72 44.63-19.84 22.9-15.26 43.74-33.13 63.33-52.41a89.67 89.67.0 0 0 13.47-16.37c22-35.49 41.06-72.38 51.72-113 3.46-13.24 6.34-26.68 8.53-40.18 2-12.2 2.12-24.71 4.12-36.91 1.85-11.28.4-21.88-2.66-32.7-3.86-13.65-7-27.59-5.76-41.87 1.29-14.66-5.59-26.09-12.88-39.25C604.86 139.67 603.72 142 602.8 144.36zM479.25 370.05c-2 .91-4.3 2-6.31.58-1.42-1-3.3-2.81-3.28-4.67.0-2.4 3.2-3.42 5.11-4 1.15-.32 2.32-.55 3.46-.9a2.7 2.7.0 0 1 1.5-.08c1.61.46 2.42 2.6 2.89 4.2C483.41 367.88 481.55 369 479.25 370.05zm4.3-18.23c-.9 2.21-4 3.2-5.28 1.5a56.41 56.41.0 0 1-6.63-9.72c-1.5-3.11-.3-6 3.56-7.46 4 2 6.07 6 8.72 9.44C485.48 347.59 484.39 349.78 483.55 351.82zm10.71-4.65c.72-3.71 1.73-7.41 2.75-11 .81-2.83 6.12-5.57 9-4.23a3 3 0 0 1 1.7 2.16c.86 3.36-1.07 7.25-3.26 9.62-1.13 1.22-2.36 2.35-3.6 3.46-.69.62-3.65 4-4.49 3.92C493.74 350.84 494 348.51 494.26 347.17zm11.92 20.11c-2.48 1.34-6.73.45-10.37.09-2.5-.24-3.84-1.84-4.18-4.26-.42-3 .93-5.63 3.48-6.2a23.12 23.12.0 0 1 6.41-.59c3.13.23 6 1.28 6.54 4.65C508.65 364.57 507.79 366.4 506.18 367.28z" fill="#ffe571"/><path d="M774.57 515.14c-2.46-2.51-5.57-4.35-8.09-6.8-25.34-24.87-55.85-41.73-87.81-56.15a340.45 340.45.0 0 0-77-24.19c-3.9-.75-7.89-1.05-11.76-1.89-6-1.28-10.24.21-12.78 6.33-1.85 4.48-4.53 8.61-7 12.8-12.75 21.81-27.52 42.23-43.6 63 11.94 11.73 24.82 20.35 38.3 27.82 33.38 18.53 68.25 33.49 105.65 42.15 22.51 5.22 45.22 8.28 68.33 7.26 7.89-.34 15.77-1.86 23.53-3.5 7-1.47 13.1-5.07 18.61-9.75 13.66-11.66 14.76-32.27 5.17-44.4A156.17 156.17.0 0 0 774.57 515.14zM608.91 499a8.36 8.36.0 0 1-7.22 4.76c-2.23.22-4.38.0-5.72-2.07-1.16-1.79.0-5.09 2.35-6.61a42.34 42.34.0 0 1 5.61-3.22c2.4-1.15 5.53.81 5.86 4.17A14.39 14.39.0 0 1 608.91 499zM615 485.17c-.63.82-1.56 2-2.69 2.13h-.11c-.55.0-4.71-2.07-4.76-2.46-.38-3.34 1.71-4.53 3.53-5.11 1.27-.41 3.77.19 4.38 1.18A3.39 3.39.0 0 1 615 485.17zm17.13 22.47c-.63 3.53-3.46 4.58-6.71 4.63-3.1-1.77-3.72-4.74-3.72-7.83s4.34-5 6.89-3.24C630.85 502.75 632.66 504.85 632.17 507.64zm2.69-16.07c-1 1.05-3 1.2-4.44 1.7-1.48-.41-3-.41-3.8-1.11s-1.34-2.78-1-3.05a21.54 21.54.0 0 1 6.34-4c1-.33 3.44.87 3.92 2A5.09 5.09.0 0 1 634.86 491.57z" fill="#ffe571"/><path d="M567 710a34.91 34.91.0 0 0 2.78-5.53c4.67-15.27 12.26-29.17 19.55-43.23.92-1.8 3-3.45 1.5-6.49-4.56-2.69-10-4.45-16.94-6.69-1.78 5.4-3.8 9.86-4.64 14.52-2.27 12.54-4.12 25.15-5.92 37.75C562.87 703.74 562.61 707.46 567 710z" fill="#ffe571"/><path d="M781.44 663.28c8.69-2.44 16.28-6.87 23.58-11.93a11.84 11.84.0 0 0 5.44-10.12c0-2.22.15-4.44.15-6.64-.05-23.18-4.13-45.79-9.37-68.23-.28-1.19-1.44-2.13-2.19-3.23-.77.68-1.59 1.1-1.95 1.75-7.58 14.39-20.27 21.48-35.4 25.64-16.13 4.45-32.54 4.13-48.84 2.86A303 303 0 0 1 653 582.18a415.66 415.66.0 0 1-81-32.95c-16.84-8.93-33.22-18.64-47.67-31.28a10.17 10.17.0 0 0-3.45-2.54c-5.7 6.24-11.81 13.51-17.44 19.68-5.38 5.89-11 11.57-16.05 17.74-5.29 6.49-13.41 10.2-18.14 18.74 12.31 13.68 26.13 23.91 40.75 33.09C530.31 617.32 551.64 628 573.34 638A355.34 355.34.0 0 0 721.17 671.3 212.42 212.42.0 0 0 781.44 663.28z" fill="#ffe571"/><path d="M282.94 150.69a122 122 0 0 0 30.63 12.53 173.12 173.12.0 0 0 46.51 5.22c24.08.79 45.42-2.68 66.67-7.41 29.1-6.49 56.93-16.64 84.22-28.4 24.52-10.55 47.75-23.41 68.82-39.89 13.7-10.7 25.63-23.09 34.85-38a47.75 47.75.0 0 0 5.54-13.42c1.91-7.28-.47-13.25-5.49-18.11a34.94 34.94.0 0 0-10-6.41A93.8 93.8.0 0 0 572.61 9c-32.79-2.15-65.45-1.43-97.9 4.87C422.54 24 373 41 327.43 68.79 310.74 79 295.08 90.38 281.36 104.43a53.52 53.52.0 0 0-11.75 19 18.28 18.28.0 0 0 .05 12.93C271.94 143.23 277.16 147.34 282.94 150.69zM438.7 87c4.74-6.35 15.77-9.62 23.35-6.82.74.27 1.28 1.11 1.8 1.6.12 5.75-2.61 9.12-7.92 10.51-4.6 1.22-9.16 2.63-14 1.62C438.66 93.28 436.85 89.5 438.7 87zm-.31 11.58c2.84 3.34 1.61 8.13-.51 11.41-.74 1.15-3 2.27-4.16 2s-2.74-2.18-3-3.6a9.35 9.35.0 0 1 1.38-7.58c1.12-1.56 2.95-3.54 4.74-3.22A2.85 2.85.0 0 1 438.39 98.62zm-12.67-24A21.72 21.72.0 0 1 431.59 77c.69.35 1 1.39 1.5 2.12 1 1.46 1.87 2.93 3.26 5.1-7.44 5.79-11.08 5.17-13.51-1.65a13.94 13.94.0 0 1-.69-5.14A2.89 2.89.0 0 1 425.72 74.59zm-8.49 19.27c3.35-.62 6.88-.4 10.31-.35.62.0 1.49.93 1.73 1.6s.21 2.07-.24 2.37c-3.13 2.18-6.21 5-9.75 6-2.65.74-6.43-1.14-8.87-2.14A9 9 0 0 1 417.23 93.86z" fill="#ffe571"/><path d="M573.49 758.32c-2-8.6-4-17.3-7.28-25.48-5.38-13.55-11.47-26.85-17.81-40-3-6.1-5.48-12.69-11.23-18.64-3.84 11-11.1 18.12-19.52 24a112 112 0 0 1-30.79 15.41c-34 10.67-69.05 15.37-104.39 18.23-30.2 2.44-60.24.0-89.94-5.34-40.58-7.35-80.35-17.95-118.28-34.41-16.69-7.24-32.62-16-45.95-28.79-1.8-1.74-3.94-3.13-7.11-5.62.27 3.66.08 5.9.62 7.93 2.85 10.66 5.61 21.38 8.91 31.93 6.34 20.26 13 40.45 19.6 60.62 3.73 11.35 7.77 22.59 11.61 33.91 1.2 3.51 3.11 6.32 6.56 7.95 7.61 3.59 15.08 7.49 22.83 10.76 20.08 8.48 41.2 13.56 62.59 17 24.88 4 50 6 75.25 7.39a502 502 0 0 0 74.29-1.35c12.33-1.17 24.71-2.23 36.92-4.24 35.22-5.87 68.23-18.55 100.26-33.88 10.77-5.18 20.77-11.72 28.47-21.38C573 769.37 574.87 764.22 573.49 758.32z" fill="#ffe571"/><path d="M135.28 658.6c13.76 12.13 29.64 20.72 46.49 27.86A436.12 436.12.0 0 0 243.43 707c18.8 4.83 37.54 10.07 56.94 12.55 8.78 1.13 17.65 1.45 26.34 2.93 14.11 2.41 28.3 2.29 42.4 1.61 18.09-.88 36.15-2.92 54.16-5 19.83-2.27 39.22-6.88 58.4-12.31 11.19-3.17 21.32-8.71 31-15A49.78 49.78.0 0 0 524.25 681c6.16-7.81 8.44-16.43 3.15-25.9-3.46-6.22-6.54-12.59-12.48-17-7.09-5.26-13.76-11.13-21.12-16-15.63-10.27-33.14-16.72-50.34-23.8-5.09-2.1-9.26-1.69-13.67 1.28-15.33 10.22-32.71 15.57-50.21 20.29a112.39 112.39.0 0 1-24.9 3.56c-34.59 1.29-60.81-12.65-77.15-43.76-2-3.87-4-7.8-6.1-11.87-2.56-.19-4.72-.51-6.89-.53a246.24 246.24.0 0 0-35.76 2.26c-5 .72-9.21 2-13.19 5.27-13.28 10.86-28.7 17.44-45.33 21.21-11.25 2.55-22.75 3.93-34.24 2.85-8.39-.8-13.1 2.89-17 9.66-4.61 8-4.62 16.06-1.88 24.31C120.57 643.18 127.23 651.46 135.28 658.6zm210.25-18.26a6.2 6.2.0 0 1 4.54 1c.66.44.6 2.48.3 3.64a7.29 7.29.0 0 1-6.37 5.7 10.72 10.72.0 0 1-1.73-1.91C339.55 644 340.3 641.79 345.53 640.34zm-5 15.23c2.61.52 7 .93 8.83 3.27a3.78 3.78.0 0 1 .68 1.41c1 4.09-1.83 10.11-6.42 10.3-4.12.17-6.17-4.32-7.9-7.92S336.83 654.86 340.55 655.57zm-28.74-12.65c.36-.69 1.45-1 3.62-1.26 3.66-.45 7.24-.47 10.51 1.46a7.45 7.45.0 0 1 2.81 4.07c.58 1.82-1.6 4.88-3.49 4.87a42.09 42.09.0 0 1-8.94-1.13c-2.12-.5-2.76-2.38-3.57-4.17C311.87 644.8 311.41 643.65 311.81 642.92zm.52 11.1a39 39 0 0 1 10.19 1.44c1.32.37 2.63 2.24 3.13 3.7.58 1.69-.4 3.25-2.31 4-2.69 1.07-6 2.5-8.9 1.28s-5.07-5.16-6.21-8C308.2 655.83 312 654 312.33 654z" fill="#ffe571"/><path d="M233.32 250.2c12.9 13.67 29.06 21.49 46.64 26.85 54.41 16.57 115.24 3.54 167.35-15.07 16.2-5.79 32.09-12.49 47.67-19.82 21.26-10 43.84-19.92 61.93-35.19 10.2-8.59 18.72-18.53 24.36-30.71 6.91-14.87 13.82-29.71 18.6-45.46 5-16.49 10.24-32.9 15.24-49.39C615.83 79 621 65 621.41 61c-2.92 2-9.88 14.43-11.49 15.67-2.47 1.86-4.33 4.82-6.4 7.06-16.12 17.46-36.37 29.15-57 40.64-27.58 15.37-57 26.4-86.84 36.23a329.63 329.63.0 0 1-67.19 15c-24.22 2.68-48.72 2.63-72.75-2.33-13-2.7-25.77-6.44-37.37-13.34-8.1-4.81-15.56-10.13-19.55-19.12-.29-.67-1.35-1-2.27-1.63-4.88 3.4-6.74 9.12-10 13.77-11.49 16.49-19.37 34.8-26.73 53.33-2.6 6.59-4.4 13.75-2.75 20.74A50 50 0 0 0 233.32 250.2z" fill="#ffe571"/><path d="M936.64 410c-16 .95-31.76-1.89-47.6-3.6-8.34-.89-16.71-2.38-25.06-2.22-8.8.18-17.53 2.3-26.33 3.08-21.43 1.9-41.6 7.89-61.14 16.82a443.46 443.46.0 0 0-53.88 28.73c-2.83 1.78-5.22 4.29-8.37 6.93 26.45 15.58 50.77 32.44 71.06 53.36 2.27.0 3.66.29 4.89.0 17.33-4.62 35-5.55 52.73-4.23 19.33 1.45 37.56 6.57 53.16 18.57a138.6 138.6.0 0 1 36.6 41.68c5.32 9.39 7.5 19.81 11.12 29.8a46 46 0 0 1 2.94 18.19c-.46 9.55-1 19.11-1.46 29.53a56.82 56.82.0 0 0 3.76-4.58c16-25.06 30.61-50.92 41.78-78.49 9.34-23 15.94-46.83 17.48-71.94 1.42-23-5.09-43-21.12-59.36C973.5 418.27 957.45 408.76 936.64 410z" fill="#ffe571"/><path d="M924.13 568.23a208 208 0 0 0-20-24.72 83 83 0 0 0-36.63-23.24c-22.92-7-46.31-6-69.66-2.06-1.65.29-3.16 1.46-5.32 2.48 9 12.79 13.29 27.09 17 41.68 4.52 17.67 7 35.64 8.72 53.7.9 9.22.42 18.58.23 27.86-.15 7.22-3.85 12.71-10 16.2a100.16 100.16.0 0 1-15.53 7.45 206.67 206.67.0 0 1-41.15 10.08 273.64 273.64.0 0 1-79.35-.68c-7.41-1.13-14.66-3.25-22-4.73a273.53 273.53.0 0 1-44.64-12.55 28.93 28.93.0 0 0-5.51-1.09c-1.13.83-1.61 1-1.84 1.36-11.77 17.9-19.11 37.84-26.33 57.81a13.59 13.59.0 0 0-.05 7.74c2.42 8.51 5.12 16.91 8 25.28 3.56 10.38 3 20-4.37 28.64-1.69 2-3.2 4.11-5.06 6.49 5.3 17.43 14.46 32.38 26.3 45.75 8.78 9.93 20 15.75 33 18.51 13.22 2.8 26.25 1.75 39.53.06 22.26-2.85 43.12-9.7 63.3-19a537 537 0 0 0 62.78-34.59c35.23-22.38 67.79-48.14 95.91-79.23 13.67-15.12 27-30.48 38.55-47.33 2-2.88 4.1-6 4.85-9.3 4.11-18.28 5.44-36.79 2.69-55.41C935.5 592.13 931.67 579.32 924.13 568.23zM746.55 717c-2.7 2.53-6.43 2.38-9.88 2.62-2.45.18-5.21-.86-5.24-3.67.0-3 2.38-4 4.67-5 2.54-1.2 4.82-3.45 7.8-3.42a8.61 8.61.0 0 1 6.77 4C752.33 714.58 748.3 715.4 746.55 717zM756.84 703c-1.2 2.35-3.89 3.52-6.09 1.75a38.56 38.56.0 0 1-5.32-5.37c-1.29-1.54-2.37-3.56-4.21-4.47l-.57-.29a5 5 0 0 1-3-4.1c-.35-3.46 4.32-3.75 6.48-2 4.13 3.31 8.14 6.78 12.1 10.3a4.52 4.52.0 0 1 1.35 2.2A8.82 8.82.0 0 1 756.84 703zm17.3 13.41c-1.94 2.87-5.07 6.08-8.8 5-2.5-.73-4.58-2.47-6.56-4.09-.35-.28 1.48-4.75 1.74-5.3a7.06 7.06.0 0 1 2.08-3c2.38-1.62 5.29.0 7.53 1 1.37.63 3 .74 4.24 1.72a2.32 2.32.0 0 1 .84 1.43A4.8 4.8.0 0 1 774.14 716.36zM779 689c-1.13 3.28-2.72 6.4-4.38 10.17-4.14 1.42-8.14 1.49-11.3-2.78 1-6.07 5.61-8.9 10.17-11.55 1.11-.64 3.33.0 4.66.72C778.84 686 779.31 688 779 689z" fill="#ffe571"/><path d="M95 257.42c21.49-13.38 44.11-16.85 68.52-11.64a110.92 110.92.0 0 1 41.25 17.63c8.27 5.82 16.42 12.3 23.06 19.86a144.41 144.41.0 0 1 29.73 52.79c7 22.11 10.66 44.69 12.74 67.62.48 5.3.42 10.6 3.93 16.61 1.36-3.8 2.34-6.74 3.45-9.62a49.27 49.27.0 0 0 3.06-24.76c-1-7.44-1.59-14.94-2.2-22.42a213.67 213.67.0 0 0-12.85-58.15c-6-16-14.51-30.23-28.61-40.53-14.32-10.49-22.39-24.79-25.11-42.14-.58-3.67-1.61-6.75-4.24-9.44-2.78-2.86-5-6.23-7.8-9.06-8.14-8.22-17-15.44-27.86-20-18.93-7.9-38-7.48-57-.45-30.31 11.2-53 31.81-69.51 59-18 29.78-29.16 62.06-34.52 96.43a266.38 266.38.0 0 0-3 30.12A251.3 251.3.0 0 0 9.2 406.76c.25 2.35 4.16 34.81 3.91 37.49 1-10.59 2.28-36.92 3.71-46.45 3.61-24.21 11.66-47.24 20.1-70.07C48.06 297.63 67.59 274.45 95 257.42z" fill="#ffe571"/><path d="M261.92 492.59c-5.16 13-9.56 23.63-13.56 34.38s-9.77 20.42-15.64 31.46l34.62-1.1c-1.65-10.77-3.71-20.67-4.55-30.67C261.91 516.18 262.2 505.61 261.92 492.59z" fill="#ffe571"/><path d="M194.09 578.75c9.55-4.57 18.89-10 25.11-19.12 4.49-6.57 8.59-13.42 12.6-20.28 10.75-18.48 16.83-38.94 24.66-58.64 2.93-7.38 5-15.13 7.13-22.78a37.49 37.49.0 0 0 1.6-10.44c-.14-10.62-.09-21.31-1.25-31.82-1.82-16.26-4.39-32.44-7-48.6-2.55-15.77-6.82-31.15-13.8-45.55-18.34-37.79-46.84-62.65-89.45-69.3a75.31 75.31.0 0 0-21.15-.2c-16.8 2.1-31.13 9.93-44.33 19.78-22.31 16.63-37.19 38.79-46.13 65-3.85 11.31-7.59 22.67-10.88 34.13-5.91 20.59-7.92 41.94-9 63.27-.27 5.36-.48 10.69-.68 16-.26 6.88-.37 13.8 1.27 20.53a204.46 204.46.0 0 0 30.67 68.62 125.42 125.42.0 0 0 45.08 40.24 93.26 93.26.0 0 0 26 9.63C149.08 593.92 172.08 589.3 194.09 578.75zm-51.8-166.39c2.17-2.67 5-4.66 7.37-7.07 4-.11 6.89 1.88 9.47 4.19 4.57 4.14 3.25 10.16-2.6 12.37a12.3 12.3.0 0 1-3.74 1c-4.42.12-9.19.51-13.55.0C139.09 418.8 139.71 415.56 142.29 412.36zm-4.9 23.52c0-.07.0-.16.0-.25.43-1.82 3.42-5.18 5.24-5.68 3.48-1 6.17 4.09 6.14 6.84a22.24 22.24.0 0 1-1.33 7.58c-.88 2.32-3.22 2.22-5.24 2.95-1-2.16-1.85-4.38-2.88-6.52C138.68 439.42 137.18 437.55 137.39 435.88zm-17.56-29.31c1.1-3.31 1.6-6.35 5.38-6.51 2-.08 5.07-1 6.48 1 1.24 1.76.81 5.13.77 7.15a19 19 0 0 1-1.21 7.24c-.59 1.39-1.81 4.06-3.4 4.51s-3.32-1.07-4.74-1.56c-.84-.28-2-.49-3.06-.78-.29-.64-.58-1.28-.64-1.45a14.87 14.87.0 0 1-.51-3.25A17.35 17.35.0 0 1 119.83 406.57zm-4.5 38.23c-1.52.42-4.22.32-4.86-.61-1.07-1.55-1.88-4.46-1.13-5.92 2.47-4.76 5.49-9.16 8.07-13.85.88-1.6 1.79-4.46 4-4.15a3 3 0 0 1 .45.12 15.18 15.18.0 0 1 3.42 2c1.23.93 1.66 2.43 2.11 3.85s1.48 3.05 1.27 4.66-1.65 2.91-2.58 4.17a83.83 83.83.0 0 1-5.28 6.6A11.91 11.91.0 0 1 115.33 444.8z" fill="#ffe571"/><path d="M827.42 395.68c-6.74-3.72-14.09-5.05-21.2-7s-13.76-5.1-21.5-6c-1.23 5.45-2.44 10.12-3.31 14.88-.91 5-4.06 9.5-3.38 15.75 8.4-3.27 16.08-6.44 23.9-9.22C810.24 401.12 818.69 398.53 827.42 395.68z" fill="#ffe571"/><path d="M325.9 301.11a27.15 27.15.0 0 0 2.19-4.75 3.21 3.21.0 0 0-2.2-4.17 17.49 17.49.0 0 0-5.19-.71 148.56 148.56.0 0 1-50.56-9c-1.43-.5-3.14-1.85-4.48.14 3.52 9.53 6.74 19.11 10.58 28.43 4.08 9.9 5.23 20.45 7.63 30.72 2.29 9.79 1.63 20.06 5.55 33.07 4.23-9.57 7-16.53 10.34-23.19C308.33 334.72 317.19 318 325.9 301.11z" fill="#ffe571"/><path d="M277.89 442.45a298.24 298.24.0 0 0-7.05 81.77c1.1 20.17 6.11 39.46 16.69 56.76 13.13 21.51 32.57 33.16 58 34.29 22.7 1 44-5.07 64.23-14.31 18.92-8.69 36.11-20.64 51.65-34.69 18.75-17 35.59-35.8 52-55 6.78-7.93 12.86-16.46 19.42-24.93-1.18-.39-1.71-.77-1.88-.63-3.18 2.37-6.41 4.68-9.43 7.24-16.25 13.85-33.57 26-52.94 35.21-16.76 8-34.27 11.65-52.83 10.3-21.34-1.58-36.76-12.24-46.1-31.1-16.2-32.76-20.48-67.49-15.55-103.47 2.16-15.8 6.37-31.07 10.75-46.45 6.84-24.08 17.24-46.36 29.11-68.17.3-.56-.17-1.56-.31-2.56q-27.51 3.21-55 6.44c-9.08 17.85-18.63 35.32-27 53.36-13.2 28.42-27.29 56.6-32.23 88.1C279 437.25 278.47 439.85 277.89 442.45z" fill="#ffe571"/><path d="M647.26 252.67c9.48 19.62 20.1 38.44 35.71 54 .86.84 1.79 3.39 4 1-1.08-2.42-2.07-4.87-3.21-7.26A125.51 125.51.0 0 1 673 265a96.79 96.79.0 0 1 9-58.05c13-26.76 35.62-42.5 63.11-51.26a214.6 214.6.0 0 1 81.24-9.16c11.89.9 23.92 1.86 35.5 4.51a371.39 371.39.0 0 1 64.41 20.56 504.87 504.87.0 0 1 85.92 47.25c7.9 5.42 15.84 10.77 23.75 16.14l1.18-1.06c-2.17-3.64-4.29-7.33-6.57-10.92-20.5-32.28-44.79-61.53-71.17-89.18a148.66 148.66.0 0 0-34.55-26.67 360.55 360.55.0 0 0-88.38-35.67c-31.16-8.09-63.28-14.4-95.59-10.94-24.75 2.63-48.71 12.27-69 26.57A132.65 132.65.0 0 0 656.23 99.9a118.4 118.4.0 0 0-12.05 13.46c-13.15 17.15-17.31 40.51-17.39 61.75a107.94 107.94.0 0 0 1.3 19.79A229.12 229.12.0 0 0 647.26 252.67z" fill="#ffe571"/><path d="M1028.72 237.54c-17.35-13.12-36-24.32-54.51-35.46-30.48-18.27-62.89-32.46-97.59-40.69-24.14-5.72-48.49-10.53-73.55-8.86C796 153 789 154.08 782 155c-23.52 3.17-45.57 10.21-65.63 23.35-23 15-33.82 37-36.13 63.31-2.3 26.07 5 49.9 20.27 71.2 17.46 24.29 40.11 42.29 67 54.94 18.06 8.51 37.48 13.15 56.58 18.66 18.72 5.39 37.88 8.69 57.14 11.62 16.65 2.52 33.28 4.88 45.53 4.48 17.05.0 29.39-.46 41.67-2.56 21.94-3.71 43.25-9 62.33-21.2a140.69 140.69.0 0 0 32-27.61c7.71-9.13 12-19.64 11.37-31.74a86.93 86.93.0 0 0-2-17.06C1065.41 275.67 1050.75 254.21 1028.72 237.54zM853.89 287.2c-1 .56-3 .84-3.57.26-6-5.82-12-11.75-17.66-17.85-1.85-2 .09-5.62 2.92-5.9a8 8 0 0 1 3.87.07c9.1 3.8 15.66 9.73 16.42 20.84C855.46 285.23 854.91 286.63 853.89 287.2zM858.37 310c-.42-1.68-1.16-3.5-.91-5.09a6.12 6.12.0 0 1 2.65-3.9c2-1.12 4.8-.78 5.83 1.19 2.26 4.32 5.16 9.08 5.62 14C865.13 317.81 860 316.69 858.37 310zm16.29-25.29c-.42 2-3.65 3.63-5.18 2.38-2-1.59-4.42-3.32-5.19-5.49-2-5.69-4.27-11.44-3.74-17.64 2-2.56 4.45-3.22 6.63-.76 4.8 5.37 7.19 11.84 7.9 19A8.3 8.3.0 0 1 874.66 284.74zm16.53 23.19c-6.06-2.28-13.38-2.73-15.16-11 3.4-4.78 7.89-2.86 12-1.68 3.53 1 8.8 2.73 11.3 5.56C903.7 305.72 895.54 309.55 891.19 307.93z" fill="#ffe571"/><path d="M1056.52 247.8c-4.33-6.15-8-12.78-11.9-19.24a410.41 410.41.0 0 0-39.47-55.06c-14.73-17.13-30.19-33.66-45.72-50.07A124.5 124.5.0 0 0 941.27 108c-21.46-15.3-45.34-26-70-34.75a323.5 323.5.0 0 0-80.12-17.92c-17.76-1.6-35.2-2.31-53 .15a173.43 173.43.0 0 0-45.32 12.3c-30.64 13.29-58.63 38.4-68.18 71.25-.59 2-1.09 4.05-1.88 7-4.32-4.52-5.4-10-8.59-14.14-4.36-5.61-3.87-11.18-1.37-17.44s4.08-12.63 5.92-19c2.83-9.79 5.43-19.62 8.3-29.38a83.17 83.17.0 0 0 3-25c-.2-16.31-8.86-26.27-22.92-32.64a36.45 36.45.0 0 0-5-1.71c-12-3.26-24-6.15-36.55-6.38-12-.21-23.94-.52-35.9-.41-21.76.22-43.3 2.34-64.52 7.53-12.89 3.16-25.87 5.94-38.78 9-3.89.92-7.75 1.95-11.53 3.19-48.93 16-93.69 39.75-133.49 72.57-8.24 6.8-15.65 14.51-20.76 24-14.95 27.66-30.91 54.8-42.56 84.13a44.66 44.66.0 0 1-2.14 4.11c-5-.72-7.51-4-10.54-6.57-5.75-4.83-11.29-10-17.43-14.25A69.66 69.66.0 0 0 154.67 171a97.6 97.6.0 0 0-51.77 8.71c-26.12 12.19-46.28 31.18-61.81 55-16.12 24.67-27 51.8-33.81 80.45C4.83 325.47 2.39 336 1.53 346.47-.51 371.63-.7 397 2.1 422c2 18 6.34 35.64 11.58 53.13A321 321 0 0 0 37.87 534a107.41 107.41.0 0 0 10.05 15.6c16.26 20.79 37.42 34.87 61.8 44.43 2 .77 3.8 1.78 5.9 2.78-.79 1.89-1.06 3.19-1.79 4.16-6.5 8.8-7.54 18.76-6.31 29.17 1 8.34 1.82 16.75 3.62 24.93 4.35 19.88 9.15 39.65 16.43 58.76 4.72 12.4 7.91 25.36 12 38q6.81 20.82 14.13 41.44a28.43 28.43.0 0 0 15.52 17.15 287.5 287.5.0 0 0 60.1 20.69c11.66 2.55 23.59 3.85 35.34 6 24.47 4.59 49.29 5.13 74 6.61a423.53 423.53.0 0 0 69-1.89c11.45-1.21 23-2.09 34.27-4.15 37.75-6.92 73.41-20 107.44-37.6 4.23-2.19 8.3-4.66 13.16-7.4 2.26 3.9 4.64 7.1 6.08 10.67 3.71 9.14 9.18 17.19 14.91 25.06C599 849.65 620 860.2 646.18 860.21c32.06.0 62.24-8.24 90.86-21.92 24.76-11.85 48.92-24.95 71.63-40.47 7.68-5.24 15.46-10.34 22.85-16 18-13.7 36.21-27.08 51.55-43.86 6.56-7.18 13-14.49 19.83-21.42 12.75-13 23.68-27.54 34.34-42.19 15.33-21.15 28.87-43.5 41.44-66.35 16.51-30 29.49-61.54 35.73-95.42 2.72-14.8 4.05-30.1.82-44.83-4.79-21.92-16.41-40-35.66-52.46-3.21-2.07-6.77-3.66-9.38-7.95 2.33-.75 3.86-1.34 5.43-1.74 9.87-2.43 20-4.23 29.6-7.37 25-8.17 46.18-22.29 62.91-42.74 5.68-6.94 10.45-14.62 11.18-23.71 1.35-16.86 1.29-33.65-5.5-49.7C1068.81 270.26 1064 258.39 1056.52 247.8zM644.18 113.36A118.4 118.4.0 0 1 656.23 99.9 132.65 132.65.0 0 1 671.8 87.09c20.29-14.3 44.25-23.94 69-26.57 32.31-3.46 64.43 2.85 95.59 10.94a360.55 360.55.0 0 1 88.38 35.67 148.66 148.66.0 0 1 34.55 26.67c26.38 27.65 50.67 56.9 71.17 89.18 2.28 3.59 4.4 7.28 6.57 10.92l-1.18 1.06c-7.91-5.37-15.85-10.72-23.75-16.14a504.87 504.87.0 0 0-85.92-47.25A371.39 371.39.0 0 0 861.8 151c-11.58-2.65-23.61-3.61-35.5-4.51a214.6 214.6.0 0 0-81.24 9.16c-27.49 8.76-50.11 24.5-63.11 51.26A96.79 96.79.0 0 0 673 265a125.51 125.51.0 0 0 10.76 35.39c1.14 2.39 2.13 4.84 3.21 7.26-2.18 2.42-3.11-.13-4-1-15.61-15.54-26.23-34.36-35.71-54a229.12 229.12.0 0 1-19.17-57.77 107.94 107.94.0 0 1-1.3-19.79C626.87 153.87 631 130.51 644.18 113.36zM311.65 346.52c8.38-18 17.93-35.51 27-53.36q27.54-3.24 55-6.44c.14 1 .61 2 .31 2.56-11.87 21.81-22.27 44.09-29.11 68.17-4.38 15.38-8.59 30.65-10.75 46.45-4.93 36-.65 70.71 15.55 103.47 9.34 18.86 24.76 29.52 46.1 31.1 18.56 1.35 36.07-2.34 52.83-10.3C488 519 505.31 506.81 521.56 493c3-2.56 6.25-4.87 9.43-7.24.17-.14.7.24 1.88.63-6.56 8.47-12.64 17-19.42 24.93-16.41 19.19-33.25 38-52 55-15.54 14.05-32.73 26-51.65 34.69-20.2 9.24-41.53 15.34-64.23 14.31-25.47-1.13-44.91-12.78-58-34.29-10.58-17.3-15.59-36.59-16.69-56.76a298.24 298.24.0 0 1 7.05-81.77c.58-2.6 1.12-5.2 1.53-7.83C284.36 403.12 298.45 374.94 311.65 346.52zm-27.78-4.77c-2.4-10.27-3.55-20.82-7.63-30.72-3.84-9.32-7.06-18.9-10.58-28.43 1.34-2 3-.64 4.48-.14a148.56 148.56.0 0 0 50.56 9 17.49 17.49.0 0 1 5.19.71 3.21 3.21.0 0 1 2.2 4.17 27.15 27.15.0 0 1-2.19 4.75c-8.71 16.84-17.57 33.61-26.14 50.52-3.36 6.66-6.11 13.62-10.34 23.19C285.5 361.81 286.16 351.54 283.87 341.75zM453.73 583.26c2.5-2.43 5.57-4.29 8.8-6.71 4 1.65 4.87 6.15 8 8.41 2.86 2.07 5.43 4.55 8.12 6.83 17 14.46 35.77 26 55.62 36 10.24 5.18 20.39 10.47 30.57 15.71.56 7.77-3.23 14.1-4.48 20.94s-2.48 13.9-4.17 23.36c-2.42-3.55-3.47-4.86-4.26-6.33-6.26-11.22-12.37-22.5-18.67-33.67-6.93-12.3-17.51-21.12-28.9-28.89-15.82-10.8-33.13-18.73-51-25.38-2.06-.77-4-1.75-6.43-2.8C447.69 586.66 451.43 585.5 453.73 583.26zm109.63 117c1.8-12.6 3.65-25.21 5.92-37.75.84-4.66 2.86-9.12 4.64-14.52 7 2.24 12.38 4 16.94 6.69 1.48 3-.58 4.69-1.5 6.49-7.29 14.06-14.88 28-19.55 43.23A34.91 34.91.0 0 1 567 710C562.61 707.46 562.87 703.74 563.36 700.29zm10-62.27c-21.7-10-43-20.7-63.31-33.36-14.62-9.18-28.44-19.41-40.75-33.09 4.73-8.54 12.85-12.25 18.14-18.74 5-6.17 10.67-11.85 16.05-17.74 5.63-6.17 11.74-13.44 17.44-19.68a10.17 10.17.0 0 1 3.45 2.54c14.45 12.64 30.83 22.35 47.67 31.28a415.66 415.66.0 0 0 81 32.95 303 303 0 0 0 59.82 11.2c16.3 1.27 32.71 1.59 48.84-2.86 15.13-4.16 27.82-11.25 35.4-25.64.36-.65 1.18-1.07 1.95-1.75.75 1.1 1.91 2 2.19 3.23 5.24 22.44 9.32 45 9.37 68.23.0 2.2-.13 4.42-.15 6.64A11.84 11.84.0 0 1 805 651.35c-7.3 5.06-14.89 9.49-23.58 11.93a212.42 212.42.0 0 1-60.27 8A355.34 355.34.0 0 1 573.34 638zM781 572.23c-5.51 4.68-11.62 8.28-18.61 9.75-7.76 1.64-15.64 3.16-23.53 3.5-23.11 1-45.82-2-68.33-7.26-37.4-8.66-72.27-23.62-105.65-42.15-13.48-7.47-26.36-16.09-38.3-27.82 16.08-20.78 30.85-41.2 43.6-63 2.45-4.19 5.13-8.32 7-12.8 2.54-6.12 6.75-7.61 12.78-6.33 3.87.84 7.86 1.14 11.76 1.89a340.45 340.45.0 0 1 77 24.19c32 14.42 62.47 31.28 87.81 56.15 2.52 2.45 5.63 4.29 8.09 6.8a156.17 156.17.0 0 1 11.59 12.69C795.75 540 794.65 560.57 781 572.23zM695.25 451.35c-14.19-6.21-28.42-12.39-42.94-17.83A295.9 295.9.0 0 0 592 418.06a33.14 33.14.0 0 1-4.9-1.67c5.62-11.47 10.8-21.69 15.69-32.06A302.59 302.59.0 0 0 619.48 341c2.67-9.08 6.57-17.42 12.83-24.52q10.53-12 21.32-23.71c1.11-1.2 2.86-1.8 3.88-2.4 4.19.84 5.34 4 7.27 6.34 13.94 16.73 28.7 32.72 46.85 45 19.42 13.13 38.41 27.1 60.58 35.59 1.17.45 2.07 1.54 3.45 2.59.07 1.6.55 3.42.17 5-2.3 9.92-4.79 19.79-9.54 28.91a23.29 23.29.0 0 1-10 10.1q-23.94 13-47.32 27C704.11 453.77 700.12 453.46 695.25 451.35zM629.41 307.1c2.51-20.67 4.71-38.84 7.1-58.67 6.21 11.69 11.74 22.1 17.62 33.2C646.56 289.42 639 297.23 629.41 307.1zm-10-131.86c-1.26 14.28 1.9 28.22 5.76 41.87 3.06 10.82 4.51 21.42 2.66 32.7-2 12.2-2.13 24.71-4.12 36.91-2.19 13.5-5.07 26.94-8.53 40.18-10.66 40.66-29.77 77.55-51.72 113a89.67 89.67.0 0 1-13.47 16.37c-19.59 19.28-40.43 37.15-63.33 52.41-13.67 9.12-28.3 16.33-44.63 19.84a88.71 88.71.0 0 1-27.72 1.52c-13.86-1.38-25.17-7.5-33.08-19.54a106.93 106.93.0 0 1-12.29-26.37c-10.41-32.44-10.57-65-3.31-98.22 7.46-34.09 20.43-65.76 37-96.24 2.6-4.78 5.87-7.51 10.83-8.76 24.52-6.16 48.08-15.08 71.31-24.95 26.55-11.31 52-24.59 75.61-41.26 15-10.56 24.57-25.28 31.53-41.86 3.94-9.38 7.26-19 10.92-28.52.92-2.39 2.06-4.69 3.68-8.37C613.77 149.15 620.65 160.58 619.36 175.24zM269.61 123.48a53.52 53.52.0 0 1 11.75-19C295.08 90.38 310.74 79 327.43 68.79 373 41 422.54 24 474.71 13.89c32.45-6.3 65.11-7 97.9-4.87a93.8 93.8.0 0 1 32.11 7.79 34.94 34.94.0 0 1 10 6.41c5 4.86 7.4 10.83 5.49 18.11a47.75 47.75.0 0 1-5.54 13.42c-9.22 14.9-21.15 27.29-34.85 38-21.07 16.48-44.3 29.34-68.82 39.89-27.29 11.76-55.12 21.91-84.22 28.4-21.25 4.73-42.59 8.2-66.67 7.41a173.12 173.12.0 0 1-46.51-5.22 122 122 0 0 1-30.63-12.53c-5.78-3.35-11-7.46-13.28-14.28A18.28 18.28.0 0 1 269.61 123.48zM223.89 206.2c7.36-18.53 15.24-36.84 26.73-53.33 3.23-4.65 5.09-10.37 10-13.77.92.63 2 1 2.27 1.63 4 9 11.45 14.31 19.55 19.12 11.6 6.9 24.4 10.64 37.37 13.34 24 5 48.53 5 72.75 2.33a329.63 329.63.0 0 0 67.19-15c29.88-9.83 59.26-20.86 86.84-36.23 20.59-11.49 40.84-23.18 57-40.64 2.07-2.24 3.93-5.2 6.4-7.06C611.53 75.38 618.49 63 621.41 61c-.44 4.08-5.58 18-6.3 20.46-5 16.49-10.24 32.9-15.24 49.39-4.78 15.75-11.69 30.59-18.6 45.46-5.64 12.18-14.16 22.12-24.36 30.71-18.09 15.27-40.67 25.22-61.93 35.19-15.58 7.33-31.47 14-47.67 19.82C395.2 280.59 334.37 293.62 280 277.05c-17.58-5.36-33.74-13.18-46.64-26.85a50 50 0 0 1-12.18-23.26C219.49 220 221.29 212.79 223.89 206.2zM13.11 444.25c.25-2.68-3.66-35.14-3.91-37.49a251.3 251.3.0 0 1-1.14-37.41 266.38 266.38.0 0 1 3-30.12c5.36-34.37 16.51-66.65 34.52-96.43 16.48-27.23 39.2-47.84 69.51-59 19-7 38-7.45 57 .45 10.83 4.52 19.72 11.74 27.86 20 2.8 2.83 5 6.2 7.8 9.06 2.63 2.69 3.66 5.77 4.24 9.44 2.72 17.35 10.79 31.65 25.11 42.14 14.1 10.3 22.6 24.57 28.61 40.53a213.67 213.67.0 0 1 12.85 58.15c.61 7.48 1.24 15 2.2 22.42a49.27 49.27.0 0 1-3.06 24.76c-1.11 2.88-2.09 5.82-3.45 9.62-3.51-6-3.45-11.31-3.93-16.61-2.08-22.93-5.77-45.51-12.74-67.62a144.41 144.41.0 0 0-29.73-52.79c-6.64-7.56-14.79-14-23.06-19.86a110.92 110.92.0 0 0-41.25-17.63c-24.41-5.21-47-1.74-68.52 11.64-27.38 17-46.91 40.21-58 70.31-8.44 22.83-16.49 45.86-20.1 70.07C15.39 407.33 14.1 433.66 13.11 444.25zM98.53 579.61a125.42 125.42.0 0 1-45.08-40.24 204.46 204.46.0 0 1-30.67-68.62c-1.64-6.73-1.53-13.65-1.27-20.53.2-5.34.41-10.67.68-16 1.08-21.33 3.09-42.68 9-63.27 3.29-11.46 7-22.82 10.88-34.13 8.94-26.2 23.82-48.36 46.13-65 13.2-9.85 27.53-17.68 44.33-19.78a75.31 75.31.0 0 1 21.15.2c42.61 6.65 71.11 31.51 89.45 69.3 7 14.4 11.25 29.78 13.8 45.55 2.62 16.16 5.19 32.34 7 48.6 1.16 10.51 1.11 21.2 1.25 31.82a37.49 37.49.0 0 1-1.6 10.44c-2.15 7.65-4.2 15.4-7.13 22.78-7.83 19.7-13.91 40.16-24.66 58.64-4 6.86-8.11 13.71-12.6 20.28-6.22 9.07-15.56 14.55-25.11 19.12-22 10.55-45 15.17-69.55 10.49A93.26 93.26.0 0 1 98.53 579.61zm168.81-22.28-34.62 1.1c5.87-11 11.68-20.82 15.64-31.46s8.4-21.34 13.56-34.38c.28 13 0 23.59.87 34.07C263.63 536.66 265.69 546.56 267.34 557.33zM119 608.52c3.9-6.77 8.61-10.46 17-9.66 11.49 1.08 23-.3 34.24-2.85 16.63-3.77 32.05-10.35 45.33-21.21 4-3.25 8.16-4.55 13.19-5.27a246.24 246.24.0 0 1 35.76-2.26c2.17.0 4.33.34 6.89.53 2.09 4.07 4.07 8 6.1 11.87 16.34 31.11 42.56 45.05 77.15 43.76a112.39 112.39.0 0 0 24.9-3.56c17.5-4.72 34.88-10.07 50.21-20.29 4.41-3 8.58-3.38 13.67-1.28 17.2 7.08 34.71 13.53 50.34 23.8 7.36 4.84 14 10.71 21.12 16 5.94 4.39 9 10.76 12.48 17 5.29 9.47 3 18.09-3.15 25.9a49.78 49.78.0 0 1-11.62 10.82c-9.64 6.28-19.77 11.82-31 15-19.18 5.43-38.57 10-58.4 12.31-18 2.07-36.07 4.11-54.16 5-14.1.68-28.29.8-42.4-1.61-8.69-1.48-17.56-1.8-26.34-2.93C281 717 262.23 711.8 243.43 707a436.12 436.12.0 0 1-61.66-20.51c-16.85-7.14-32.73-15.73-46.49-27.86-8-7.14-14.71-15.42-18.14-25.77C114.4 624.58 114.41 616.48 119 608.52zM540.63 795.7c-32 15.33-65 28-100.26 33.88-12.21 2-24.59 3.07-36.92 4.24a502 502 0 0 1-74.29 1.35c-25.21-1.35-50.37-3.42-75.25-7.39-21.39-3.42-42.51-8.5-62.59-17-7.75-3.27-15.22-7.17-22.83-10.76-3.45-1.63-5.36-4.44-6.56-7.95-3.84-11.32-7.88-22.56-11.61-33.91-6.64-20.17-13.26-40.36-19.6-60.62-3.3-10.55-6.06-21.27-8.91-31.93-.54-2-.35-4.27-.62-7.93 3.17 2.49 5.31 3.88 7.11 5.62 13.33 12.79 29.26 21.55 45.95 28.79 37.93 16.46 77.7 27.06 118.28 34.41 29.7 5.37 59.74 7.78 89.94 5.34 35.34-2.86 70.4-7.56 104.39-18.23a112 112 0 0 0 30.79-15.41c8.42-5.89 15.68-13 19.52-24 5.75 5.95 8.26 12.54 11.23 18.64 6.34 13.14 12.43 26.44 17.81 40 3.25 8.18 5.25 16.88 7.28 25.48 1.38 5.9-.46 11-4.39 16C561.4 784 551.4 790.52 540.63 795.7zM934.79 660.79c-.75 3.31-2.89 6.42-4.85 9.3-11.53 16.85-24.88 32.21-38.55 47.33-28.12 31.09-60.68 56.85-95.91 79.23a537 537 0 0 1-62.78 34.59c-20.18 9.31-41 16.16-63.3 19-13.28 1.69-26.31 2.74-39.53-.06-13-2.76-24.21-8.58-33-18.51-11.84-13.37-21-28.32-26.3-45.75 1.86-2.38 3.37-4.5 5.06-6.49 7.37-8.65 7.93-18.26 4.37-28.64-2.85-8.37-5.55-16.77-8-25.28a13.59 13.59.0 0 1 .05-7.74c7.22-20 14.56-39.91 26.33-57.81.23-.34.71-.53 1.84-1.36a28.93 28.93.0 0 1 5.51 1.09 273.53 273.53.0 0 0 44.64 12.55c7.36 1.48 14.61 3.6 22 4.73a273.64 273.64.0 0 0 79.35.68 206.67 206.67.0 0 0 41.15-10.08 100.16 100.16.0 0 0 15.53-7.45c6.18-3.49 9.88-9 10-16.2.19-9.28.67-18.64-.23-27.86-1.76-18.06-4.2-36-8.72-53.7-3.73-14.59-8-28.89-17-41.68 2.16-1 3.67-2.19 5.32-2.48 23.35-4 46.74-4.9 69.66 2.06a83 83 0 0 1 36.63 23.24 208 208 0 0 1 20 24.72c7.54 11.09 11.37 23.9 13.35 37.15C940.23 624 938.9 642.51 934.79 660.79zM987.2 432.24c16 16.33 22.54 36.32 21.12 59.36-1.54 25.11-8.14 48.9-17.48 71.94C979.67 591.11 965.05 617 949.06 642a56.82 56.82.0 0 1-3.76 4.58c.51-10.42 1-20 1.46-29.53a46 46 0 0 0-2.94-18.19c-3.62-10-5.8-20.41-11.12-29.8a138.6 138.6.0 0 0-36.6-41.68c-15.6-12-33.83-17.12-53.16-18.57-17.75-1.32-35.4-.39-52.73 4.23-1.23.33-2.62.0-4.89.0-20.29-20.92-44.61-37.78-71.06-53.36 3.15-2.64 5.54-5.15 8.37-6.93a443.46 443.46.0 0 1 53.88-28.73c19.54-8.93 39.71-14.92 61.14-16.82 8.8-.78 17.53-2.9 26.33-3.08 8.35-.16 16.72 1.33 25.06 2.22 15.84 1.71 31.63 4.55 47.6 3.6C957.45 408.76 973.5 418.27 987.2 432.24zM781.41 397.53c.87-4.76 2.08-9.43 3.31-14.88 7.74.92 14.46 4.08 21.5 6s14.46 3.29 21.2 7c-8.73 2.85-17.18 5.44-25.49 8.38-7.82 2.78-15.5 5.95-23.9 9.22C777.35 407 780.5 402.5 781.41 397.53zm281.39-46.32a140.69 140.69.0 0 1-32 27.61C1011.7 391 990.39 396.31 968.45 4e2c-12.28 2.1-24.62 2.57-41.67 2.56-12.25.4-28.88-2-45.53-4.48-19.26-2.93-38.42-6.23-57.14-11.62-19.1-5.51-38.52-10.15-56.58-18.66-26.91-12.65-49.56-30.65-67-54.94-15.31-21.3-22.57-45.13-20.27-71.2 2.31-26.34 13.15-48.26 36.13-63.31C736.43 165.23 758.48 158.19 782 155c7-.94 14-2 21.07-2.49 25.06-1.67 49.41 3.14 73.55 8.86 34.7 8.23 67.11 22.42 97.59 40.69 18.56 11.14 37.16 22.34 54.51 35.46 22 16.67 36.69 38.13 43.42 64.87a86.93 86.93.0 0 1 2 17.06C1074.77 331.57 1070.51 342.08 1062.8 351.21z" fill="#fcfcfc"/><path d="M839.45 263.78a8 8 0 0 0-3.87-.07c-2.83.28-4.77 3.91-2.92 5.9 5.71 6.1 11.63 12 17.66 17.85.6.58 2.61.3 3.57-.26s1.57-2 2-2.58C855.11 273.51 848.55 267.58 839.45 263.78z" fill="#fcfcfc"/><path d="M860.55 264c-.53 6.2 1.72 11.95 3.74 17.64.77 2.17 3.22 3.9 5.19 5.49 1.53 1.25 4.76-.4 5.18-2.38a8.3 8.3.0 0 0 .42-2.55c-.71-7.12-3.1-13.59-7.9-19C865 260.77 862.58 261.43 860.55 264z" fill="#fcfcfc"/><path d="M888.05 295.23c-4.13-1.18-8.62-3.1-12 1.68 1.78 8.29 9.1 8.74 15.16 11 4.35 1.62 12.51-2.21 8.16-7.14C896.85 298 891.58 296.26 888.05 295.23z" fill="#fcfcfc"/><path d="M860.11 301a6.12 6.12.0 0 0-2.65 3.9c-.25 1.59.49 3.41.91 5.09 1.64 6.66 6.76 7.78 13.19 6.23-.46-4.95-3.36-9.71-5.62-14C864.91 300.26 862.1 299.92 860.11 301z" fill="#fcfcfc"/><path d="M128.69 430.87c.21-1.61-.8-3.19-1.27-4.66s-.88-2.92-2.11-3.85a15.18 15.18.0 0 0-3.42-2 3 3 0 0 0-.45-.12c-2.24-.31-3.15 2.55-4 4.15-2.58 4.69-5.6 9.09-8.07 13.85-.75 1.46.06 4.37 1.13 5.92.64.93 3.34 1 4.86.61a11.91 11.91.0 0 0 5.5-3.16 83.83 83.83.0 0 0 5.28-6.6C127 433.78 128.47 432.51 128.69 430.87z" fill="#fcfcfc"/><path d="M120.05 417.63c1.07.29 2.22.5 3.06.78 1.42.49 3.17 2 4.74 1.56s2.81-3.12 3.4-4.51a19 19 0 0 0 1.21-7.24c0-2 .47-5.39-.77-7.15-1.41-2-4.45-1.09-6.48-1-3.78.16-4.28 3.2-5.38 6.51a17.35 17.35.0 0 0-.93 6.36 14.87 14.87.0 0 0 .51 3.25C119.47 416.35 119.76 417 120.05 417.63z" fill="#fcfcfc"/><path d="M152.79 422.82a12.3 12.3.0 0 0 3.74-1c5.85-2.21 7.17-8.23 2.6-12.37-2.58-2.31-5.47-4.3-9.47-4.19-2.41 2.41-5.2 4.4-7.37 7.07-2.58 3.2-3.2 6.44-3 10.46C143.6 423.33 148.37 422.94 152.79 422.82z" fill="#fcfcfc"/><path d="M142.24 447.32c2-.73 4.36-.63 5.24-2.95a22.24 22.24.0 0 0 1.33-7.58c0-2.75-2.66-7.81-6.14-6.84-1.82.5-4.81 3.86-5.24 5.68.0.09.0.18.0.25-.21 1.67 1.29 3.54 2 4.92C140.39 442.94 141.28 445.16 142.24 447.32z" fill="#fcfcfc"/><path d="M743.9 707.52c-3 0-5.26 2.22-7.8 3.42-2.29 1.09-4.72 2-4.67 5 0 2.81 2.79 3.85 5.24 3.67 3.45-.24 7.18-.09 9.88-2.62 1.75-1.63 5.78-2.45 4.12-5.48A8.61 8.61.0 0 0 743.9 707.52z" fill="#fcfcfc"/><path d="M744.11 688.44c-2.16-1.72-6.83-1.43-6.48 2a5 5 0 0 0 3 4.1l.57.29c1.84.91 2.92 2.93 4.21 4.47a38.56 38.56.0 0 0 5.32 5.37c2.2 1.77 4.89.6 6.09-1.75a8.82 8.82.0 0 0 .72-2 4.52 4.52.0 0 0-1.35-2.2C752.25 695.22 748.24 691.75 744.11 688.44z" fill="#fcfcfc"/><path d="M770.13 710c-2.24-1-5.15-2.61-7.53-1a7.06 7.06.0 0 0-2.08 3c-.26.55-2.09 5-1.74 5.3 2 1.62 4.06 3.36 6.56 4.09 3.73 1.06 6.86-2.15 8.8-5a4.8 4.8.0 0 0 1.07-3.18 2.32 2.32.0 0 0-.84-1.43C773.18 710.77 771.5 710.66 770.13 710z" fill="#fcfcfc"/><path d="M778.11 685.58c-1.33-.73-3.55-1.36-4.66-.72-4.56 2.65-9.16 5.48-10.17 11.55 3.16 4.27 7.16 4.2 11.3 2.78 1.66-3.77 3.25-6.89 4.38-10.17C779.31 688 778.84 686 778.11 685.58z" fill="#fcfcfc"/><path d="M501.52 356.32a23.12 23.12.0 0 0-6.41.59c-2.55.57-3.9 3.18-3.48 6.2.34 2.42 1.68 4 4.18 4.26 3.64.36 7.89 1.25 10.37-.09 1.61-.88 2.47-2.71 1.88-6.31C507.51 357.6 504.65 356.55 501.52 356.32z" fill="#fcfcfc"/><path d="M496.35 351.07c.84.08 3.8-3.3 4.49-3.92 1.24-1.11 2.47-2.24 3.6-3.46 2.19-2.37 4.12-6.26 3.26-9.62a3 3 0 0 0-1.7-2.16c-2.87-1.34-8.18 1.4-9 4.23-1 3.62-2 7.32-2.75 11C494 348.51 493.74 350.84 496.35 351.07z" fill="#fcfcfc"/><path d="M475.2 336.14c-3.86 1.51-5.06 4.35-3.56 7.46a56.41 56.41.0 0 0 6.63 9.72c1.31 1.7 4.38.71 5.28-1.5.84-2 1.93-4.23.37-6.24C481.27 342.17 479.23 338.12 475.2 336.14z" fill="#fcfcfc"/><path d="M479.73 361a2.7 2.7.0 0 0-1.5.08c-1.14.35-2.31.58-3.46.9-1.91.54-5.09 1.56-5.11 4 0 1.86 1.86 3.7 3.28 4.67 2 1.41 4.31.33 6.31-.58 2.3-1 4.16-2.17 3.37-4.83C482.15 363.62 481.34 361.48 479.73 361z" fill="#fcfcfc"/><path d="M343.64 670.55c4.59-.19 7.42-6.21 6.42-10.3a3.78 3.78.0 0 0-.68-1.41c-1.8-2.34-6.22-2.75-8.83-3.27-3.72-.71-6.47 3.57-4.81 7.06S339.52 670.72 343.64 670.55z" fill="#fcfcfc"/><path d="M316.32 650.93a42.09 42.09.0 0 0 8.94 1.13c1.89.0 4.07-3 3.49-4.87a7.45 7.45.0 0 0-2.81-4.07c-3.27-1.93-6.85-1.91-10.51-1.46-2.17.26-3.26.57-3.62 1.26s.06 1.88.94 3.84C313.56 648.55 314.2 650.43 316.32 650.93z" fill="#fcfcfc"/><path d="M314.44 664.43c2.87 1.22 6.21-.21 8.9-1.28 1.91-.74 2.89-2.3 2.31-4-.5-1.46-1.81-3.33-3.13-3.7A39 39 0 0 0 312.33 654c-.36.0-4.13 1.81-4.1 2.44C309.37 659.27 311.53 663.18 314.44 664.43z" fill="#fcfcfc"/><path d="M344 650.69a7.29 7.29.0 0 0 6.37-5.7c.3-1.16.36-3.2-.3-3.64a6.2 6.2.0 0 0-4.54-1c-5.23 1.45-6 3.65-3.26 8.44A10.72 10.72.0 0 0 344 650.69z" fill="#fcfcfc"/><path d="M441.91 94c4.86 1 9.42-.4 14-1.62 5.31-1.39 8-4.76 7.92-10.51-.52-.49-1.06-1.33-1.8-1.6-7.58-2.8-18.61.47-23.35 6.82C436.85 89.5 438.66 93.28 441.91 94z" fill="#fcfcfc"/><path d="M419.28 103.43c3.54-1 6.62-3.77 9.75-6 .45-.3.5-1.68.24-2.37s-1.11-1.6-1.73-1.6c-3.43-.05-7-.27-10.31.35a9 9 0 0 0-6.82 7.43C412.85 102.29 416.63 104.17 419.28 103.43z" fill="#fcfcfc"/><path d="M436.35 84.2C435 82 434 80.56 433.09 79.1c-.47-.73-.81-1.77-1.5-2.12a21.72 21.72.0 0 0-5.87-2.39 2.89 2.89.0 0 0-3.57 2.82 13.94 13.94.0 0 0 .69 5.14C425.27 89.37 428.91 90 436.35 84.2z" fill="#fcfcfc"/><path d="M432.06 100.81a9.35 9.35.0 0 0-1.38 7.58c.3 1.42 1.77 3.28 3 3.6s3.42-.81 4.16-2c2.12-3.28 3.35-8.07.51-11.41a2.85 2.85.0 0 0-1.59-1C435 97.27 433.18 99.25 432.06 100.81z" fill="#fcfcfc"/><path d="M603.93 491.88a42.34 42.34.0 0 0-5.61 3.22c-2.35 1.52-3.51 4.82-2.35 6.61 1.34 2.1 3.49 2.29 5.72 2.07a8.36 8.36.0 0 0 7.22-4.76 14.39 14.39.0 0 0 .88-3C609.46 492.69 606.33 490.73 603.93 491.88z" fill="#fcfcfc"/><path d="M628.63 501.2c-2.55-1.79-6.89.2-6.89 3.24s.62 6.06 3.72 7.83c3.25.0 6.08-1.1 6.71-4.63C632.66 504.85 630.85 502.75 628.63 501.2z" fill="#fcfcfc"/><path d="M631.93 485.15a21.54 21.54.0 0 0-6.34 4c-.31.27.28 2.42 1 3.05s2.32.7 3.8 1.11c1.42-.5 3.44-.65 4.44-1.7a5.09 5.09.0 0 0 1-4.44C635.37 486 633 484.82 631.93 485.15z" fill="#fcfcfc"/><path d="M611 479.73c-1.82.58-3.91 1.77-3.53 5.11.0.39 4.21 2.46 4.76 2.46h.11c1.13-.09 2.06-1.31 2.69-2.13a3.39 3.39.0 0 0 .35-4.26C614.78 479.92 612.28 479.32 611 479.73z" fill="#fcfcfc"/><path d="M669 396.91a67.35 67.35.0 0 0-9.19 5c-3.12 2-4.14 5.21-3.2 9.16.46 2.05 3 3.79 4.92 3.29 7.69-2 13.35-6.09 15-14.26C674.93 396.51 672.19 395.55 669 396.91z" fill="#fcfcfc"/><path d="M712.83 380.86a60.25 60.25.0 0 0-7.82-.4c-5.35.15-7.3 2.78-6.5 8.49.17 1.3.46 2.56.92 4.93 3 0 5.19.27 7.26-.06a35.66 35.66.0 0 0 7.51-2c3-1.17 4.35-4.29 3.56-7.53C717.13 381.66 715 381.05 712.83 380.86z" fill="#fcfcfc"/><path d="M687.72 382.76c-1.24-2.13-7-12.91-11.66-13.12-1.2-.05-2.33.59-3.28 2.22-2.44 4.17-1.61 8.42.33 12.5 2 4.34 7.59 6.08 12.29 4C687 387.59 688.57 384.26 687.72 382.76z" fill="#fcfcfc"/><path d="M698.79 405.47c-3.62-3-7.85-5.27-11.84-7.79-.27-.18-.83.12-1.72.29-.5.75-1.61 1.68-1.81 2.78-1.16 6.82 3.2 10.41 8.24 13.55 3.15 2 6 1.74 8.19-.69C701.79 411.48 701.75 407.93 698.79 405.47z" fill="#fcfcfc"/></g></g></g></svg>