<svg xmlns="http://www.w3.org/2000/svg" width="1001.97" height="1080.73" viewBox="0 0 1001.97 1080.73"><g id="Слой_2" data-name="Слой 2"><g id="hands06_432265354"><g id="hands06_432265354-2" data-name="hands06_432265354"><path d="M560 455.79a.36.36.0 0 1-.2-.06c-35.68-22.09-60.74-60.55-75.48-88.91A354.14 354.14.0 0 1 460.62 310a.36.36.0 0 1 .25-.46.38.38.0 0 1 .47.25A352.43 352.43.0 0 0 485 366.48c14.69 28.28 39.67 66.61 75.2 88.62a.37.37.0 0 1-.2.69z" fill="#fcfcfc"/><path d="M731.15 421.58a.36.36.0 0 1-.32-.18c-.8-1.37-19.65-33.57-19.77-41.26-.12-8.06 21.94-16.1 37.23-18.58 10.54-1.71 38.43 3.17 58.79 6.73 7.13 1.24 13.3 2.32 17.26 2.86 5.65.76 10.7 3.42 17.69 7.11 12.06 6.35 28.57 15.06 61.67 21.63 36.34 7.21 70.09-8.13 86.07-25.44 9.66-10.47 13.39-21.87 10.5-32.09-4.29-15.11-22.59-19.85-45.77-25.86-18.54-4.8-39.57-10.25-58.63-22.36-22.3-14.17-38.3-16.84-55.24-19.67-15.31-2.56-55.51-11.4-98.06-38.08-38.62-24.2-55.33-22-88.64-17.76l-5.54.71c-41.54 5.25-87.32 1.07-153.1-14-39.93-9.13-102.91-51.49-148.71-85.42C288.15 76.66 232.54 28.63 202.66.65a.37.37.0 0 1 0-.53.38.38.0 0 1 .53.0c29.85 28 85.45 76 143.85 119.24 45.74 33.88 108.63 76.18 148.43 85.29 65.68 15 111.39 19.21 152.84 14l5.53-.71c33.49-4.32 50.29-6.48 89.14 17.87 42.44 26.61 82.52 35.41 97.78 38 17 2.84 33.1 5.53 55.52 19.78 19 12 39.93 17.47 58.42 22.27 23.41 6.06 41.9 10.85 46.3 26.37 3 10.49-.82 22.14-10.67 32.81-13.32 14.43-38.87 27.5-68 27.5a95.69 95.69.0 0 1-18.76-1.84c-33.2-6.59-50.45-15.68-61.87-21.7-6.92-3.65-11.93-6.29-17.44-7-4-.54-10.15-1.61-17.29-2.86-20.31-3.56-48.12-8.42-58.54-6.73-15.36 2.49-36.71 10.48-36.6 17.83s19.47 40.56 19.66 40.89a.36.36.0 0 1-.13.51A.32.32.0 0 1 731.15 421.58z" fill="#fcfcfc"/><path d="M182.84 541.51c-23 0-46.06-.92-62.93-1.81a.38.38.0 0 1-.36-.4.36.36.0 0 1 .4-.35c37.12 2 104.06 4.06 135.29-3.82 5-1.26 9.47-2.49 13.79-3.68 20.65-5.69 34.29-9.46 58.22-2.51 28.87 8.37 40.79 8.46 83-10.19 20.69-9.16 56.34-24.2 90.81-38.76 37.58-15.86 73.08-30.85 86.86-37.19 28.2-13 68.44-21.74 97.92-21.26 4.86.08 10 .14 15.36.2 29 .32 61.82.69 75.44 4.59 15.61 4.48 33.12 14.83 34.66 27 1.45 11.49 7.74 55.43 7.8 55.87a.36.36.0 0 1-.32.42.38.38.0 0 1-.42-.31c-.07-.45-6.35-44.39-7.81-55.89-1.49-11.82-18.73-22-34.12-26.36-13.52-3.87-46.31-4.24-75.24-4.56-5.32-.06-10.5-.12-15.37-.2-29.36-.48-69.48 8.24-97.59 21.19-13.79 6.35-49.29 21.34-86.88 37.2-34.47 14.56-70.11 29.6-90.79 38.75-42.41 18.76-54.4 18.66-83.48 10.23-23.72-6.89-37.28-3.15-57.81 2.51-4.32 1.19-8.8 2.43-13.81 3.69C238.32 540.18 210.56 541.51 182.84 541.51z" fill="#fcfcfc"/><path d="M855.46 593.62a.36.36.0 0 1-.2-.06.38.38.0 0 1-.12-.52c.14-.21 13.39-21.22 13.67-29.16.29-8.34-7.48-28.14-18.81-38.42-8.1-7.34-17.21-9.73-29.82-13.05-5.18-1.36-11.06-2.91-17.73-5-19.66-6.22-60.84-21.82-90.5-40.78a.38.38.0 0 1 .41-.63c29.59 18.92 70.69 34.48 90.32 40.7 6.65 2.1 12.52 3.65 17.69 5 12.71 3.34 21.9 5.75 30.13 13.22 11.48 10.41 19.35 30.52 19.06 39-.29 8.15-13.23 28.67-13.79 29.54A.38.38.0 0 1 855.46 593.62z" fill="#fcfcfc"/><path d="M914.74 673.23h0a.36.36.0 0 1-.34-.4c0-.18 1.27-18.05.07-27.54-1.17-9.22-17.38-27.64-34.69-39.41-7-4.74-23.06-11.52-41.7-19.36-25.5-10.74-57.23-24.1-79.08-37.94a.38.38.0 1 1 .41-.63c21.79 13.8 53.49 27.15 79 37.88 18.68 7.86 34.81 14.65 41.83 19.43 17.46 11.87 33.82 30.53 35 39.94s0 27.5-.07 27.68A.37.37.0 0 1 914.74 673.23z" fill="#fcfcfc"/><path d="M905.55 808.11a.35.35.0 0 1-.25-.1.38.38.0 0 1 0-.53c9.19-10 20.64-20.69 29-28.48 1.9-1.78 3.65-3.4 5.16-4.83 5.56-5.24 19.49-26.48 21.61-32.93 2.06-6.28 1.78-30.79-2.93-40.56-3.62-7.54-30-22-36.92-24.35-5.22-1.74-20.38-4.25-33.76-6.46-4.31-.72-8.38-1.39-11.77-2C859.07 665 798.14 651 778.43 641.5a.37.37.0 0 1-.17-.5.37.37.0 0 1 .5-.18c19.65 9.49 80.47 23.43 97 26.33 3.39.59 7.46 1.26 11.76 2 13.41 2.21 28.6 4.73 33.88 6.49 7.21 2.42 33.58 16.88 37.36 24.73 4.87 10.12 5.11 34.59 3 41.13s-16.2 27.95-21.8 33.23l-5.17 4.84c-8.36 7.78-19.79 18.44-29 28.44A.36.36.0 0 1 905.55 808.11z" fill="#fcfcfc"/><path d="M626.1 851.35a.38.38.0 0 1-.12-.73c72.81-25 114.77-51.21 120-55.33 4.32-3.39 22-8.16 46.28-12.45a433.47 433.47.0 0 0 43.29-10.16 144.15 144.15.0 0 1 14.51-3.61c3.27-.49 11.46-.62 21.84-.78 12.17-.19 27.31-.42 39-1.38a.35.35.0 0 1 .4.34.37.37.0 0 1-.34.41c-11.68 1-26.84 1.19-39 1.38-9.94.15-18.52.29-21.74.77a143.75 143.75.0 0 0-14.41 3.59 433.68 433.68.0 0 1-43.37 10.18c-23.75 4.2-41.78 9-45.95 12.3-5.26 4.14-47.33 30.42-120.23 55.45z" fill="#fcfcfc"/><path d="M816.75 899.33c-14 0-27.87-2-43.91-4.37l-7.77-1.13c-20.55-2.93-43.19-2.65-69.41-2.32-11 .13-22.32.27-34.79.22h-12.45c-32.7.0-42.57.0-89.22-9.65-49.77-10.25-71.87-16.7-106.79-44-27.24-21.27-57.82-38.48-72.76-43.86-39.81-14.35-263.47-22-265.73-22.06a.38.38.0 0 1-.36-.39.38.38.0 0 1 .38-.36h0c2.26.08 226 7.71 266 22.1 15 5.41 45.66 22.66 73 44 34.8 27.18 56.84 33.61 106.48 43.84 46.58 9.6 56.43 9.6 89.07 9.63h12.45c12.47.0 23.81-.09 34.78-.22 26.25-.33 48.92-.61 69.52 2.33l7.78 1.13c24.69 3.61 44.2 6.45 67 2.3 22.07-4 57.29-9 83.93-10 29.52-1 36.28-18.91 36.76-33.72.6-18.36-26.61-41.64-68.06-47.05-28.75-3.76-53.91-.4-72.27 2.05-10.07 1.34-18 2.4-22.75 1.66-.68-.11-2.36-.46-4.91-1-11.51-2.37-38.2-7.87-52.87-7.87h-.78a.37.37.0 0 1-.37-.37.38.38.0 0 1 .37-.38c14.56-.2 42.06 5.47 53.8 7.88 2.45.51 4.22.87 4.87 1 4.63.72 12.54-.33 22.54-1.67 18.41-2.45 43.61-5.82 72.47-2.05 19.88 2.6 37.94 9.43 50.85 19.25 11.65 8.86 18.17 19.27 17.86 28.57C961 868 954.05 886.25 924 887.31c-26.61.93-61.79 5.94-83.83 10A129.28 129.28.0 0 1 816.75 899.33z" fill="#fcfcfc"/><path d="M899.94 873.72c1.74-7.53 8.6-15.55 23-20.82 12.59-4.61 38.57-8 46.06.52s4.21 26.6-4.15 30.61-34.52 6.64-47 6.54C909.54 890.5 896.36 889.13 899.94 873.72z" fill="#fcfcfc"/><path d="M918.68 891.07h-.8c-5.42-.05-13.06-.66-16.8-5.4-2.27-2.88-2.82-6.94-1.63-12.06l.49.11-.49-.11c1.19-5.16 5.81-14.77 23.32-21.18 12.5-4.58 38.76-8.27 46.61.66 3.79 4.32 5.23 11.51 3.76 18.76-1.24 6.08-4.26 10.8-8.07 12.63C956.94 888.38 932.13 891.07 918.68 891.07zm32.15-42.4a89.71 89.71.0 0 0-27.72 4.7c-17.06 6.25-21.54 15.5-22.69 20.47h0c-1.11 4.81-.63 8.58 1.45 11.21 3.46 4.4 10.8 5 16 5 12.89.11 38.71-2.63 46.75-6.49 3.53-1.7 6.34-6.16 7.52-11.93 1.41-6.95.06-13.81-3.53-17.9C965.37 850 958.5 848.67 950.83 848.67z" fill="#fcfcfc"/><path d="M278.31 529.67a.37.37.0 0 1-.34-.22c-8.27-18.15-16.3-43.11-23.39-65.13-8.08-25.1-15.71-48.82-21.92-56.9-19.9-25.94-33.5-32.17-47.9-38.77-10.87-5-22.1-10.12-36.83-23.9-12.13-11.33-20.1-23.52-28.55-36.43s-17.1-26.14-30.81-40.26c-19.84-20.44-50.78-50-71.24-69.51C9.73 191.3 3.73 185.57.11 182a.37.37.0 0 1 0-.53.37.37.0 0 1 .53.0c3.61 3.52 9.61 9.25 17.21 16.5 20.47 19.54 51.4 49.08 71.26 69.53 13.76 14.17 22.47 27.49 30.9 40.37s16.37 25 28.43 36.29C163.09 357.89 174.26 363 185.07 368c14.48 6.63 28.17 12.9 48.19 39 6.29 8.19 13.58 30.87 22 57.13 7.08 22 15.1 46.94 23.35 65.05a.37.37.0 0 1-.18.5A.45.45.0 0 1 278.31 529.67z" fill="#fcfcfc"/><path d="M890.32 960.09a20.24 20.24.0 0 1-9.72-2.31.38.38.0 1 1 .35-.67c12.9 7 32.27-3.32 43.94-16.52s8.37-29.62-1.29-53.52a.37.37.0 0 1 .2-.49.38.38.0 0 1 .49.21c9.77 24.17 13.1 40.8 1.16 54.3C916.25 951.5 902.3 960.09 890.32 960.09z" fill="#fcfcfc"/><path d="M597.91 985.42c-27.62.0-53.16-34.85-65-51l-.55-.75c-14-19-34.7-55.34-44.67-72.8a.37.37.0 0 1 .65-.37c10 17.44 30.69 53.74 44.63 72.73l.54.75c13.64 18.6 45.59 62.17 77.49 47.86 19.43-8.72 27.38-23.19 23.61-43-2.19-11.56-11.06-29.62-23.71-48.32a.37.37.0 0 1 .1-.52.38.38.0 0 1 .52.1c12.71 18.78 21.62 36.94 23.83 48.6 3.84 20.21-4.25 35-24.05 43.85A32.36 32.36.0 0 1 597.91 985.42z" fill="#fcfcfc"/><path d="M760.56 1080.73c-27.14.0-48.73-29.79-60.24-45.69-1.56-2.15-2.9-4-4.08-5.55-12.06-15.78-47.83-66.36-61.6-90.56a.37.37.0 0 1 .14-.51.36.36.0 0 1 .51.14c13.75 24.17 49.5 74.71 61.54 90.47 1.19 1.56 2.54 3.42 4.1 5.57 14.1 19.47 43.44 60 79.32 39.94 13.44-7.49 21.71-17 24.6-28.14 3.31-12.81-.33-27.86-10.82-44.75-5-8-15.49-23.7-26.64-40.33-18.83-28.1-40.17-60-45.32-70.21a.39.39.0 0 1 .17-.51.38.38.0 0 1 .5.17C727.87 901 749.2 932.82 768 960.9c11.15 16.64 21.68 32.36 26.66 40.36 10.6 17.06 14.27 32.31 10.91 45.33-2.94 11.38-11.34 21-25 28.61A40.71 40.71.0 0 1 760.56 1080.73z" fill="#fcfcfc"/><path d="M853.49 1057.34H853c-21.21-.27-45-31.47-52.44-43.46a.39.39.0 0 1 .13-.52.37.37.0 0 1 .51.12c7.34 11.9 30.94 42.84 51.81 43.11h.48c17.5.0 38.91-12.44 43.36-32.81 3.7-16.91-1.21-36.7-16.41-66.16-7.5-14.55-17.26-28.66-25.86-41.11-5-7.26-9.75-14.11-13.09-19.74a.38.38.0 1 1 .65-.39c3.33 5.62 8.05 12.46 13.06 19.7 8.61 12.47 18.38 26.61 25.91 41.19 15.29 29.64 20.21 49.58 16.48 66.67C893.05 1044.68 871.28 1057.34 853.49 1057.34z" fill="#fcfcfc"/></g></g></g></svg>