<svg xmlns="http://www.w3.org/2000/svg" width="394.31" height="1080.75" viewBox="0 0 394.31 1080.75"><g id="Слой_2" data-name="Слой 2"><g id="hands05_432265354"><g id="hands05_432265354-2" data-name="hands05_432265354"><path d="M309.79 401.65a.43.43.0 0 1-.24-.08.38.38.0 0 1-.05-.53q1.83-2.22 3.61-4.37c15.11-18.26 27-32.69 26.73-47.95s-15-119.66-24.11-167.4c-7.82-41-8.8-108.67-2.62-181a.38.38.0 1 1 .75.07c-6.18 72.24-5.2 139.82 2.6 180.76 9.11 47.78 23.83 152.18 24.13 167.54.32 15.54-11.7 30.06-26.9 48.44q-1.79 2.14-3.61 4.37A.36.36.0 0 1 309.79 401.65z" fill="#fcfcfc"/><path d="M77.08 497.44H77c-8.19.0-14.18-2.49-17.8-7.33C53 481.82 55 468.45 57.88 458.7c3.15-10.79 5.3-19.68 7.19-27.52 2.52-10.42 4.7-19.42 8.38-29.67 2.48-6.91 6.58-16 11.32-26.49 8.1-17.95 17.29-38.29 21.58-54.92 3.16-12.24 6.27-29.91 9.57-48.62 3.73-21.19 7.59-43.1 11.69-57.68 5.06-18 17.3-40 28.1-59.43 5.35-9.63 10.41-18.72 13.59-25.66 8.06-17.6 10.44-74.51 12-112.17.25-5.91.48-11.38.71-16.18a.37.37.0 0 1 .39-.36.38.38.0 0 1 .36.39c-.23 4.81-.46 10.27-.71 16.18C180.49 54.29 178.11 111.29 170 129c-3.19 7-8.25 16.07-13.61 25.71-10.78 19.39-23 41.37-28 59.27-4.09 14.55-8 36.44-11.67 57.61-3.3 18.72-6.42 36.41-9.58 48.68-4.31 16.69-13.51 37.06-21.62 55-4.74 10.49-8.83 19.55-11.3 26.43C70.49 412 68.31 421 65.8 431.36c-1.9 7.85-4 16.75-7.2 27.55-2.79 9.59-4.86 22.71 1.15 30.75 3.47 4.64 9.26 7 17.2 7h.13c23.43.0 40.86-20.65 51.8-61.38 2.25-8.36 4-16.13 5.56-23 6.24-27.55 10.37-45.76 35.66-62.91 3.77-2.55 10.73-4.92 20.36-8.21l2.77-.94c16.2-5.54 27.07-10.26 41.53-20.74a.38.38.0 0 1 .44.61c-14.53 10.53-25.46 15.28-41.73 20.84l-2.77.94c-9.57 3.27-16.49 5.62-20.17 8.12-25.06 17-29.15 35.08-35.36 62.46-1.55 6.86-3.31 14.64-5.56 23C118.56 476.61 100.89 497.44 77.08 497.44z" fill="#fcfcfc"/><path d="M239.33 369.9a.34.34.0 0 1-.14.0c-11-4.6-36.48-18.62-46.12-29a.38.38.0 1 1 .55-.51c9.57 10.31 34.94 24.25 45.86 28.82a.37.37.0 0 1 .2.49A.37.37.0 0 1 239.33 369.9z" fill="#fcfcfc"/><path d="M254 527.56h-.15a.38.38.0 0 1-.21-.22c-.18-.51-17.61-50.75-22.22-70.57-4.38-18.83-.5-30.06.0-31.32-.59-2.45-10.2-42.69-9.6-64.54a.38.38.0 0 1 .38-.37h0a.37.37.0 0 1 .36.39c-.62 22.33 9.51 64 9.61 64.46a.36.36.0 0 1 0 .23c0 .11-4.55 11.32.0 31 4.38 18.84 20.39 65.28 22.06 70.09 8.47-4.32 16.08-18 23.23-41.91 7.78-25.91 36.93-96.53 43.11-108.9 5.09-10.17 3.44-19.37 1.17-32.1-.39-2.22-.81-4.53-1.2-7a.37.37.0 0 1 .31-.43.38.38.0 0 1 .43.31c.39 2.43.8 4.74 1.2 7 2.21 12.39 4 22.18-1.24 32.57C315 388.54 285.9 459.09 278.13 485c-7.33 24.43-15.18 38.35-24 42.56A.45.45.0 0 1 254 527.56z" fill="#fcfcfc"/><path d="M301.07 611.71c-5.91.0-11.19-6.89-18.38-17.19-9.85-14.1-22.77-45.88-29.08-67.23a.36.36.0 0 1 .25-.46.36.36.0 0 1 .46.25c6.31 21.29 19.18 53 29 67 7.47 10.7 12.79 17.65 18.75 16.8 5.58-.8 12.12-16.43 15.22-36.37a171 171 0 0 0 1.57-20.83c.36-11 .7-21.4 5-31.91a.38.38.0 0 1 .5-.2.37.37.0 0 1 .2.49c-4.29 10.38-4.63 20.71-5 31.64A170.66 170.66.0 0 1 318 574.63c-2.74 17.65-9.07 36-15.86 37A8 8 0 0 1 301.07 611.71z" fill="#fcfcfc"/><path d="M361.47 1039.08a.38.38.0 0 1-.37-.31c-.22-1.28-21.58-128-19.39-178.9 2.14-49.6 30.77-154.73 44.86-190.57 10.11-25.7 7.34-36.54 3.51-51.53-1.16-4.56-2.48-9.72-3.53-15.76-2.52-14.5-3.13-32.35-3.67-48.1-.41-12-.77-22.35-1.89-28.6-1.69-9.41-8.86-17.27-17.94-27.21-4.76-5.21-10.16-11.12-15.65-18.2a124.16 124.16.0 0 1-13.51-22c-3.88-7.7-6.22-12.34-12.53-14.19a14.14 14.14.0 0 0-12.54 2.54c-7.14 5.26-11.35 15.82-11.56 29-.37 23.06 16 47.74 24.45 55.24a.37.37.0 0 1 0 .53.39.39.0 0 1-.53.0c-8.52-7.58-25.07-32.51-24.7-55.81.21-13.39 4.54-24.16 11.87-29.56A14.86 14.86.0 0 1 321.57 443c6.62 1.94 9.15 7 13 14.57A122.82 122.82.0 0 0 348 479.44c5.47 7.06 10.86 12.95 15.61 18.15 9.16 10 16.4 18 18.13 27.59 1.13 6.3 1.49 16.68 1.9 28.71.54 15.72 1.15 33.55 3.66 48 1 6 2.36 11.16 3.52 15.7 3.86 15.13 6.65 26.07-3.54 52-14.08 35.81-42.68 140.8-44.81 190.33-2.19 50.86 19.16 177.47 19.38 178.74a.39.39.0 0 1-.31.44z" fill="#fcfcfc"/><path d="M176.51 561.74a.39.39.0 0 1-.38-.37c-.57-26.23-4.42-45.3-8.5-65.49-1.66-8.23-3.37-16.74-4.91-26-4.76-28.55-4.26-32.75-2.92-44 .15-1.26.31-2.62.48-4.1 1.58-14.24 5.22-33.68 6.95-37.14s20.17-18.5 26.09-18.91c6.21-.43 19.78.51 29.12 3.39a.38.38.0 0 1-.22.72c-9.26-2.86-22.7-3.79-28.85-3.36-5.56.38-23.89 15.34-25.47 18.5s-5.21 21.84-6.88 36.88c-.16 1.49-.32 2.84-.47 4.11-1.33 11.16-1.83 15.33 2.91 43.77 1.53 9.21 3.25 17.72 4.91 25.94 4.08 20.23 7.94 39.33 8.51 65.62a.38.38.0 0 1-.36.39z" fill="#fcfcfc"/><path d="M132.76 421.7h-.15a.39.39.0 0 1-.19-.5c7.11-15.54 18.83-34.09 34.28-34.19h0a.38.38.0 0 1 .37.37.37.37.0 0 1-.37.38c-15.06.1-26.59 18.41-33.61 33.75A.37.37.0 0 1 132.76 421.7z" fill="#fcfcfc"/><path d="M108.81 574.17h-.08a.37.37.0 0 1-.28-.45c8.57-35.31 6.76-60.43 5.44-78.78-.65-9.05-1.16-16.19-.24-22a.37.37.0 0 1 .43-.31.38.38.0 0 1 .31.43c-.91 5.75-.4 12.86.25 21.86 1.33 18.39 3.14 43.59-5.46 79A.38.38.0 0 1 108.81 574.17z" fill="#fcfcfc"/><path d="M58.46 634.08h-.1a.38.38.0 0 1-.26-.47c15-53.13 7.51-116.25 3.59-140.92a.38.38.0 0 1 .31-.43.38.38.0 0 1 .43.31c3.93 24.72 11.43 88-3.61 141.25A.38.38.0 0 1 58.46 634.08z" fill="#fcfcfc"/><path d="M190.8 1080.75a.39.39.0 0 1-.38-.32c-.08-.6-8.54-59.68-19.2-88.38-9.62-25.88-20.31-38.28-33.85-54-1.59-1.86-3.23-3.75-4.89-5.7-10.54-12.39-10-26.75-9.61-39.42.22-6.22.42-12.08-.66-17.22-3.49-16.57-51-136.57-58.41-147.59-8.09-12-27.29-47.4-31.33-61.76-2.5-8.93-10.94-31.6-18.38-51.61C9.42 602.26 5 590.43 2.64 583.48c-5.91-17.22-.84-26.72 4.91-33.75.76-.92 1.86-2.31 3.21-4 7.56-9.52 21.63-27.22 26.06-28.41 8.4-2.26 19-1.08 27.44-.13l1.06.12a.38.38.0 0 1 .33.41.36.36.0 0 1-.41.33l-1.07-.12C55.76 517 45.28 515.82 37 518c-4.19 1.13-18.7 19.38-25.68 28.15-1.34 1.7-2.45 3.09-3.21 4-5.62 6.86-10.58 16.15-4.78 33 2.38 6.93 6.78 18.76 11.44 31.28 7.45 20 15.89 42.7 18.41 51.66 4 14.3 23.15 49.58 31.22 61.55 7.45 11 55 131.26 58.52 147.86 1.1 5.22.9 11.13.68 17.39-.43 12.54-.92 26.75 9.43 38.91 1.67 2 3.29 3.85 4.89 5.7 13.59 15.75 24.32 28.19 34 54.2 10.69 28.77 19.16 87.94 19.25 88.53a.38.38.0 0 1-.32.43z" fill="#fcfcfc"/><path d="M64.9 601.81a.37.37.0 0 1-.37-.35c-1.73-24.19-20-48.76-20.23-49a.38.38.0 0 1 .07-.52.39.39.0 0 1 .53.07c.19.25 18.63 25 20.38 49.41a.37.37.0 0 1-.35.4z" fill="#fcfcfc"/><path d="M56.44 572.68a.37.37.0 0 1-.14-.72c5.31-2.12 10.75-10.44 10.8-10.52a.37.37.0 0 1 .52-.11.38.38.0 0 1 .11.52c-.23.35-5.61 8.6-11.15 10.8A.35.35.0 0 1 56.44 572.68z" fill="#fcfcfc"/><path d="M344.86 483.86a18.07 18.07.0 0 1-9.24-3C325.55 474.6 309.37 454.34 310 447a3 3 0 0 1 1.92-2.73c9.78-3.85 16.14 1.68 18.36 5.56h0c.6 1.05 1.34 2.44 2.19 4.06a200.84 200.84.0 0 0 16.21 26.47 1.72 1.72.0 0 1 0 2.33A5.3 5.3.0 0 1 344.86 483.86zm-26.52-40.14a16.66 16.66.0 0 0-6.12 1.25 2.24 2.24.0 0 0-1.44 2.09c-.63 7 15.55 27.14 25.23 33.15 5.91 3.66 11 3.24 12.13 2a1 1 0 0 0 0-1.37 201.8 201.8.0 0 1-16.26-26.57c-.85-1.61-1.58-3-2.18-4h0A13.16 13.16.0 0 0 318.34 443.72z" fill="#fcfcfc"/><path d="M73.31 443.24c10.12-.93 20.32 4.68 21.19 14.89.93 10.81-5.93 38.95-14.65 43.4-7.79 4-28.14-.68-28.14-12.51C51.71 472.44 58.38 444.62 73.31 443.24z" fill="#fcfcfc"/><path d="M72.76 503.41a29.85 29.85.0 0 1-14.79-4c-4.42-2.7-6.76-6.31-6.76-10.43.0-17.84 7-44.89 22.05-46.28v.5-.5a22.33 22.33.0 0 1 16.11 4.62A15.45 15.45.0 0 1 95 458.09C95.94 469 89 497.43 80.08 502A16.56 16.56.0 0 1 72.76 503.41zm2.7-59.77c-.7.0-1.4.0-2.11.1C58.41 445.12 52.21 473.91 52.21 489c0 4.74 3.41 7.83 6.28 9.58 6.29 3.86 16.17 5 21.13 2.49 8.43-4.31 15.28-32.48 14.39-42.92a14.5 14.5.0 0 0-5.28-10A20.89 20.89.0 0 0 75.46 443.64z" fill="#fcfcfc"/></g></g></g></svg>