<svg xmlns="http://www.w3.org/2000/svg" width="1080" height="738.98" viewBox="0 0 1080 738.98"><g id="Слой_2" data-name="Слой 2"><g id="kitchen12_380526242"><g id="kitchen12_380526242-2" data-name="kitchen12_380526242"><path d="M1060.09 682.39c-8.3 22-26.53 38-55.68 37.11-176.65-5.8-353.44-3-530.13-1.37q-122.62 1.35-245.2 1.19c-37.39.0-74.65 4.65-112 5.07-26.26.26-74 4.05-93.23-18.24-16.08-18.57-7.31-52.64-7.21-74.65.29-85.13 116-59.26 169.81-59 179.52.89 359.1-1.94 538.57 1.29 46.82.79 93.42.79 140.07-2.94 43.39-3.44 90.67-13.53 133.95-4.62C1050.9 576.9 1078.4 634.07 1060.09 682.39z" fill="#fcfcfc"/><path d="M92.17 739c-27.63.0-61.15-2.85-79-23.56C-2.94 696.86-.54 669.86 1.39 648.17c.54-6.14 1.06-11.94 1.08-16.73C2.54 609 9.65 591 23.59 578.1c31-28.7 86.86-24.68 131.76-21.45 11.55.83 22.46 1.61 31.19 1.65 68.28.34 137.73.14 204.9.0 109.42-.32 222.56-.65 333.86 1.35 43.93.74 91.15.9 138.68-2.89 10.63-.85 21.36-2.08 32.72-3.39 34.69-4 70.55-8.13 105.22-1 27.51 5.65 51.25 23.38 65.13 48.61a103.3 103.3.0 0 1 6.31 86.47c-11.48 30.4-36.76 47.26-69.38 46.26-155.55-5.1-313.92-3.51-467.07-2q-31.24.31-62.5.61c-78.39.86-160.94 1.25-245.34 1.19h-.46c-19.06.0-38.62 1.28-57.54 2.52-17.57 1.16-35.74 2.35-53.81 2.55-2.79.0-5.8.1-9 .17C103.28 738.86 97.85 739 92.17 739zm16.2-156.15c-26.26.0-51.68 3.28-65.49 16.08-8 7.47-12 18.14-12 32.64.0 6-.59 12.38-1.19 19.13-1.53 17.21-3.26 36.71 4.94 46.18 12.83 14.85 50.53 14 73 13.51 3.32-.07 6.45-.14 9.32-.17 17.28-.19 35.06-1.36 52.25-2.49 19.38-1.27 39.42-2.58 59.4-2.58h.49c84.26.07 166.73-.33 245-1.19q31.28-.29 62.51-.61c153.45-1.54 312.12-3.14 468.24 2 25.6.8 37-14.76 41.94-27.93v0a74.91 74.91.0 0 0-4.64-62.72c-10-18.21-26.34-30.46-46-34.5-30.21-6.22-63.78-2.35-96.25 1.38-11.11 1.28-22.6 2.61-33.71 3.49-48.73 3.89-96.77 3.73-141.44 3-111-2-224-1.67-333.28-1.35-67.22.2-136.73.4-205.12.06-9.67-.05-21-.87-33.08-1.73C139.5 584 123.79 582.83 108.37 582.83z" fill="#1d160f"/><path d="M1e3 565.05c28.87-30.09-30.4-143.49-42.7-173.8-23.49-58-56.92-113.65-100.36-158.85a380.1 380.1.0 0 0-88.6-67.84c-66.63-37.26-140.35-58.12-217-57.4-49.86.47-106.62 7.88-154 24.33C249 183.17 127 298 89.61 453.88c-6.9 28.76-28.46 82.69-4.75 109.06 25.28 28.16 109.37 3.91 142.54 3.29 59.56-1.06 119.1 2.69 178.65 2.75 131.64.08 263.23 1.87 394.8 1.87 35.6.18 71.14 3 106.69 4.07C930.55 575.65 981.89 583.88 1e3 565.05z" fill="#fcfcfc"/><path d="M953.29 591.54c-11.07.0-22.11-.82-31.93-1.54-5.59-.41-10.41-.77-14.27-.89-14-.44-28.23-1.15-42-1.83-21.14-1-43-2.13-64.35-2.24-67.26.0-135.71-.47-201.9-.93-63.2-.44-128.56-.9-192.84-.94-26 0-52.32-.76-77.78-1.47-33-.92-67.17-1.88-100.61-1.28-8 .15-20.55 2-33.84 4-42.74 6.36-95.93 14.27-119.51-12-25-27.77-12.13-73.06-2.75-106.12 1.63-5.76 3.18-11.21 4.26-15.74 36.39-151.75 154.86-276 316.89-332.47C437.76 102.43 494.05 93.5 551.2 93c77.17-.73 152.47 19.19 224 59.2a393.54 393.54.0 0 1 91.9 70.39c42 43.65 77.66 100.14 103.28 163.36 1.81 4.45 4.88 11.22 8.43 19.06 31.56 69.6 60 140 31.37 169.89h0C997.29 588.33 975.23 591.54 953.29 591.54zM1e3 565.05h0zm-750.45-13.2c26.72.0 53.47.75 79.53 1.48 25.27.7 51.41 1.43 77 1.46 64.35.0 129.76.5 193 .94 66.14.46 134.54.93 201.77.93 22.07.11 44.24 1.21 65.68 2.28 13.61.67 27.68 1.37 41.45 1.8 4.45.14 9.81.54 15.47 1 19.6 1.45 56.09 4.15 66.28-6.47 2.37-2.48 9.1-13.84-3.74-56.17-8.8-29-23.36-61.1-33-82.35-3.83-8.45-6.86-15.13-8.88-20.11-24.28-59.92-58-113.29-97.44-154.36A365.1 365.1.0 0 0 761.38 177C695.36 140 626 121.33 555.25 121.33h-3.79c-53.36.5-107.83 9.08-149.42 23.55-152.86 53.23-264.5 170-298.63 312.28-1.22 5.1-2.84 10.81-4.56 16.86-7.15 25.2-17.95 63.28-3.44 79.41 13.39 14.92 64 7.39 94.22 2.89 14.85-2.21 27.67-4.11 37.51-4.29Q238.3 551.84 249.52 551.85z" fill="#1d160f"/><path d="M957.26 391.25c-23.49-58-56.92-113.65-100.36-158.85a380.1 380.1.0 0 0-88.6-67.84 469.9 469.9.0 0 0-82.36-36.18c3.68 2 7.37 3.9 11 5.9a382.6 382.6.0 0 1 88.58 67.82C829 247.32 862.39 303 885.87 361c12.36 30.27 71.56 143.78 42.76 173.8-18.1 18.85-69.43 10.55-92.46 9.88-35.56-1.12-71.06-3.87-106.66-4.08-131.58.0-263.24-1.79-394.81-1.86-59.56-.08-119.1-3.87-178.67-2.83-17.72.36-50 7.44-80.14 9.69a40.1 40.1.0 0 0 9 17.36c25.28 28.16 109.37 3.91 142.54 3.29 59.56-1.06 119.1 2.69 178.65 2.75 131.64.08 263.23 1.87 394.8 1.87 35.6.18 71.14 3 106.69 4.07 23 .73 74.35 9 92.42-9.87C1028.83 535 969.56 421.56 957.26 391.25z" fill="#1d160f"/><path d="M634.29 119.21c5.94-6.18 8.16-15.82 3.82-30.81C618.33 20.14 518-11.39 464.16 38.92c-8.45 7.94-13.5 18.07-16.53 29.17-2.39 8.73-9 34-4.84 42.11 24.87 48.49 92.11 22.62 133.3 21C595.89 130.41 622.47 131.56 634.29 119.21z" fill="#fcfcfc"/><path d="M500.13 153.63c-27.76.0-54.85-7.47-70-36.95-3.4-6.64-5.6-18 3.79-52.34 4.07-14.93 10.78-26.63 20.49-35.76 28.09-26.25 69.58-35.1 111-23.7C607.83 16.54 640.9 47 651.74 84.45c5.47 18.92 3 33.92-7.21 44.6C630.22 144 606 144.59 584.6 145.14c-2.73.07-5.4.14-7.94.24-8.7.34-19.12 1.93-30.16 3.61C532.25 151.17 516.08 153.63 500.13 153.63zm-44.39-49.29c13.6 25.56 44.47 23 86.48 16.6 11.85-1.81 23-3.52 33.31-3.92 2.67-.1 5.47-.18 8.34-.25 14.33-.37 34-.87 40.17-7.37v0c3.4-3.53 2.1-11.21.42-17-8.12-28-33.62-51-66.56-60.11-31.86-8.76-63.28-2.39-84.07 17-5.76 5.41-9.86 12.79-12.53 22.54C455 95 455.51 102.78 455.74 104.34z" fill="#1d160f"/><path d="M806.68 442.73a14.19 14.19.0 0 1-10.09-24.17 44.15 44.15.0 0 0 4.07-6.33A14.19 14.19.0 0 1 826 425c-1.85 3.68-6 10.36-9.4 13.68A14.13 14.13.0 0 1 806.68 442.73z" fill="#1d160f"/><path d="M753.62 454.32a14.16 14.16.0 0 1-6.25-1.46l-5.08-2.52c-1.63-.82-3.26-1.64-4.91-2.45a14.19 14.19.0 0 1 12.53-25.46q2.55 1.24 5.08 2.52l4.91 2.44a14.19 14.19.0 0 1-6.28 26.93z" fill="#1d160f"/><path d="M768.58 520.71a14.21 14.21.0 0 1-13.5-18.61 90 90 0 0 1 5.76-13.6 14.19 14.19.0 1 1 25.34 12.77 62.91 62.91.0 0 0-4.12 9.65A14.19 14.19.0 0 1 768.58 520.71z" fill="#1d160f"/><path d="M834.85 480.87a14.08 14.08.0 0 1-6.33-1.5 23.08 23.08.0 0 0-3.59-.15 14.19 14.19.0 1 1 0-28.38c4 0 10 0 16.28 3.14a14.19 14.19.0 0 1-6.36 26.89z" fill="#1d160f"/><path d="M192.29 467.6a14.16 14.16.0 0 1-11.84-6.36c-1.33-2-2.72-3.74-4.33-5.76s-3.6-4.51-5.56-7.41a14.19 14.19.0 0 1 23.52-15.89c1.32 2 2.73 3.73 4.23 5.6 1.77 2.22 3.78 4.74 5.8 7.79a14.2 14.2.0 0 1-11.82 22z" fill="#1d160f"/><path d="M169.08 507.39A14.19 14.19.0 0 1 163.93 480v0h0a14.28 14.28.0 0 1 5.08-.94 11.16 11.16.0 0 0-4.9 1.13l9.91 9.76 9.73 10.33C181.24 502.74 176.48 507.39 169.08 507.39z" fill="#1d160f"/><path d="M225.49 482.55a13.92 13.92.0 0 1-3.42-.42A14.17 14.17.0 0 1 211.7 465c4-16.14 14.19-21.78 22.05-23.67a14.19 14.19.0 0 1 6.63 27.6c0-.12-.56.57-1.13 2.87A14.18 14.18.0 0 1 225.49 482.55z" fill="#1d160f"/><path d="M1011.9 570a89.87 89.87.0 0 1 10.33 82.48c-8.3 22-26.47 38-55.66 37.07-176.64-5.79-353.41-3-530.15-1.32q-122.55 1.29-245.2 1.14c-37.39.0-74.56 4.66-111.94 5.08-16.56.11-41.68 1.75-62.81-2.75a36.91 36.91.0 0 0 7.4 14.49c19.26 22.29 67 18.5 93.23 18.24 37.33-.42 74.59-5.11 112-5.07q122.61.1 245.2-1.19c176.69-1.64 353.48-4.43 530.13 1.37 29.15.89 47.38-15.1 55.68-37.11C1076.82 638.16 1055.28 586.67 1011.9 570z" fill="#1d160f"/><path d="M237.06 349.53c-11.08-.3-18.2-13.74-15.29-25.23 3.67-14.68 17.87-28.85 27.48-40a302.4 302.4.0 0 1 58.95-52.78c21.83-14.85 45.7-26.41 69.8-37 9-4 20.71-9.78 29.93-3.13 10.17 7.34 5.94 19.65-2.36 26.74-15.82 13.46-38.29 13.14-56.41 21.89-20.45 9.92-40.49 25.21-56.31 41.41-17.35 17.86-25.24 53.64-47 65.81A18 18 0 0 1 237.06 349.53z" fill="#1d160f"/></g></g></g></svg>