<svg xmlns="http://www.w3.org/2000/svg" width="765.3" height="1080" viewBox="0 0 765.3 1080"><g id="Слой_2" data-name="Слой 2"><g id="adventure13_144868967"><g id="adventure13_144868967-2" data-name="adventure13_144868967"><path d="M686.07 79.86c25.49 8.71 47.38 20.32 69.57 31.3 5 2.46 10.52 5.26 9.55 11.35-1.1 7-7.32 7.12-13.59 7.91-42 5.27-83.83 11.28-125.78 16.73-6.42.83-5.17 4.86-5.3 8.75-.79 24.35.16 48.78-3.44 73-.52 3.54-.63 7-1.94 10.51-1.84 5-4.87 8.1-9.82 7.21-5.24-.94-4.3-5.89-4.17-9.86 1.41-43.39 3.07-86.77 4.13-130.17.7-28.51.56-57 .78-85.54.15-20.79 6-24.57 25.09-18.33 28.94 9.49 58.23 17.92 87.34 26.89 5 1.54 9.88 3.44 14.73 5.39 5.71 2.3 13.75 4.45 13.62 10.84C746.73 51.52 740 56.44 734.48 59 719.31 66.18 703.69 72.37 686.07 79.86zm40.29 36.26C705.68 104.84 687 98.36 668.61 91.06c-6.2-2.46-12.8-6-12.19-14.37.58-7.85 7.35-9.53 13.28-11.53 15.15-5.09 30.62-9.38 45.16-17.79C685.42 35.69 655.73 28.72 626 20.68c-3.93 28.66-3 56.68-3.46 84.62-.44 25.9-.31 25.6 25.22 21.7C673 123.13 698.35 120 726.36 116.12z" fill="#f9f4ed"/><path d="M1.32 670.84c0-64.7 2.37-129.54-1.21-194-1.35-24.27 10.11-37.39 21.26-54 8.4-12.54 17.19-25.68 27.06-36 21.75-22.65 38.65-48.88 59.28-72.23 33.17-37.53 67-74.44 100.63-111.54 39.34-43.44 81.28-84.09 123.4-124.49 23.17-22.21 48.95-42.24 75.77-60.44 9.08-6.16 28.85-3.23 34.87 6.91C458.17 51.59 481.58 71.63 501 95.1c38.5 46.62 75 94.73 110.4 143.71 47.39 65.52 91.76 133.24 142.23 196.53 7.68 9.63 11.9 20.33 11.51 33.36-3.1 105.37-4 210.84-9 316.11-4.31 89.36-7.14 178.69-7.53 268.12-.07 17-4.65 20.42-22.43 19.92-37.84-1-75.85-3.84-113.53-1.6-71.4 4.24-142.84 6.69-214.3 8.41-39.79 1-79.64-.37-119.46-1-41.12-.68-82-5.11-123.22-6.14-32.31-.81-64.65-1.55-97-1.88-12.16-.13-23.89 3.1-36.09 3.28-11.22.17-16.47-2.45-16.45-14.27.0-24.17.8-48.35.7-72.53.0-9 3.14-18.87-5.42-26.43-1.13-1-1-4.6-.19-6.42 9.54-21.13 5.49-42.83 2.67-64.36-1.83-14 2.23-27.41 2-41.34-.92-59.23-.39-118.47-.39-177.71zM79.73 379.13c2.84 3.27 6.79 2.31 10.2 2.18 77-3.06 153.88.68 230.83 2.67 87.82 2.27 175.51 8.37 263.39 8.27 37.76.0 75.51.0 114.26.0-8.82-12.57-17.69-24.91-26.22-37.49-3.05-4.51-7.25-4.58-11.83-4.85-56-3.27-112-7.87-168-9.65-81.88-2.59-163.71-6.38-245.67-7.29-41.09-.46-82.29 2.23-123.32-1.77-5.42-.53-7 2.92-9.48 5.95q-17 20.94-34 41.87L81.55 381l.6-1.27zM264.51 921.44c0 48.18.37 87.57-.29 127-.15 8.93 1.53 11.92 10.81 12.39 71.58 3.68 143.1 1.64 214.64-1 6.81-.25 6.62-3.07 6.3-8.34-3.5-57.46-2.46-115-.09-172.42 1-25 .09-49.8-6.24-74-11.79-45.17-34.79-82.07-82.12-96-36.53-10.75-70.39.7-102.09 19.56-24.49 14.57-36.71 35.91-38.45 64.48C264.19 838.79 264.92 884.51 264.51 921.44zm478-322.4c.83-15.94 1.17-31.77 2.65-47.49.82-8.66-1-11.86-10.45-11.62-20.81.53-41.65.0-62.47-.42-148.82-3.18-297.63-6.78-446.45-9.53-64.29-1.18-128.53-5.35-192.88-3-10 .36-15 2.72-13.4 13.91 1.18 8.46.65 17.17.76 25.77C20.56 592 20.54 592 45.84 592c90.54-.31 181 3 271.54 4.51 125.76 2.14 251.54-5.08 377.3.76C710.48 598 726.35 596.45 742.47 599zm-376-83.42c80.61-.81 147.05 3.21 213.55 4.9 52 1.32 104.12 1.55 156.17 2.56 7.41.14 10.44-2 10.35-9.76A271.84 271.84.0 0 1 748 480.79c1.14-10.57-2.26-13.68-13.23-13.77-68.8-.51-137.51-4.27-206.24-7.33-151.57-6.75-303.19-9.17-454.88-3.63-16.07.59-32.29 3.6-48.5-.8-6.15-1.66-9.32 4.63-7.82 8.88 4.41 12.6.69 25.13 1.32 37.63.33 6.66 1.46 9.32 9.16 8.69A483 483 0 0 1 78 508.61C178.82 510.84 279.65 513.47 366.46 515.62zM83.27 608.94c-15.09 1.26-34.55-1.13-54 1.51-5.65.77-7.76 2.24-7.51 8.11.52 12.22.67 24.47.37 36.68-.16 6 1.86 7.55 7.74 7.57 22.16.05 44.36 1.68 66.49.93 63.86-2.17 127.61-.3 191.33 3.47a46.14 46.14.0 0 0 21-3.64c40.48-16.66 81.46-17.9 122.82-3.31 9.27 3.27 17.83 8.37 28.35 8 16.74-.55 33.51.0 50.27-.16 71.87-.63 143.78-4.58 215.55 2.32 13.2 1.27 19.37-2 17.17-16.3-.95-6.19-.19-12.66-.12-19 .22-19.56.24-20-20.19-20.14-86.38-.78-172.69-4.4-259.16-1.8C338.14 617 212.86 610.85 83.27 608.94zM131.89 315c175.91-.49 348.62 6.45 524.07 17.29-14.1-20.25-26.45-37.91-38.71-55.64-2.65-3.83-6.35-4.62-10.6-4.75-41.69-1.21-82.89-8.28-124.39-11.15-92.12-6.36-184.35-11.08-276.53-16.68-6.91-.42-11.77 1.22-16.47 6.62C171.15 271.52 152.55 291.93 131.89 315zM743.82 450.88c-9.89-13.21-17.85-23.49-25.37-34.06-2.85-4-6.62-4-10.63-4.19C691.55 412 675.27 411 659 410.68c-73.28-1.34-146.55-2.41-219.82-5.28C318.09 400.67 197 394.7 75.72 398.83c-4 .13-8.94-1.76-11.7 1.47-10.59 12.37-20.6 25.23-33.27 40.91C270.35 427.64 505.24 442.55 743.82 450.88zM601.74 255.77c-15.4-21.71-28.14-39.76-41-57.7-2.26-3.15-3.82-7.38-8.88-7.4-16.63.0-32.89-3.86-49.68-3.86-26.21.0-52.42-2.67-78.63-4-50.17-2.52-100.19-8-150.49-7.67-5.32.0-11.84-1.65-15.71 2.35-15.16 15.68-29.68 32-45.53 49.24C342.47 234.68 470.69 239.71 601.74 255.77zM247.55 1057.86c0-44.06-.23-87 .06-130 .33-47.48-1.46-95 2.89-142.41 2.5-27.23 13.64-49.19 36.19-65.26A177 177 0 0 1 339.88 694c55-16.1 99.51-2.45 135.5 41.83 32.78 40.32 40.09 88.29 38.15 137.87-2.26 57.52-2.15 115-.74 172.48.2 8.16 1.55 14.66 13 13.09 9-1.23 14.26-2.22 13.59-13.83-2.75-47.43-3.83-95-6.61-142.38-2.4-41-3.72-82.24-12.92-122.56-6.75-29.55-16.64-59.4-41.44-77.23-30.09-21.64-64.92-35.37-103.52-35.51-36.18-.12-68.05 13.06-97.75 31.9-18.85 12-32.76 28.66-36.57 51.64-6 36.17-10.84 72.51-11.34 109.22-.84 62.06-.36 124.07 4.88 186C234.91 1056.27 237.82 1059 247.55 1057.86zm-161-5.42c43.22-1.7 82 2 120.79 3.89 6.48.32 11.58.62 10.24-8.64-3.47-24.18-4.35-48.58-4.69-73-.09-6.6-1.74-8.49-8.57-7.73-29.72 3.34-59.59 3.28-89.45 2.75-27.1-.48-54.25.66-81.31-1.82-4.26-.38-8.93-2-8.8 5.79.42 25.78.31 51.58.2 77.37.0 4.94 1.85 6.28 6.45 5.33C51 1052.38 71.05 1053.94 86.54 1052.44zM643.66 978v-2c-27.11.0-54.23.29-81.33-.19-7.17-.13-9.21.91-8.3 8.69 1.55 13.44 1.65 27.08 2 40.64.91 35.4.81 35.19 37.14 30.14 22.57-3.13 45.27-4.1 67.93-8.2 19.06-3.45 40.11 3.09 60.11 6.31 7.87 1.26 10.47.22 10.34-8.08-.32-19.87-.25-39.77.4-59.62.22-6.84-1.63-8-8.2-7.93C697.06 978.23 670.36 978 643.66 978zM486.92 685.57c16.25 14.62 25.81 29.82 34.26 45.83 1.54 2.91 2.08 5.79 7.47 5.61a1859.24 1859.24.0 0 1 194 3.51c17.28 1.21 17.38.81 18.52-17 .52-8.1.11-16.31 1.19-24.32 1.19-8.86-1.63-12-10.72-12.08-17.61-.18-35.21-1.78-52.83-2.28C616 683.07 553.28 685.05 486.92 685.57zM281.74 157.31c84.86 2.75 170 12.44 257.1 13.3-14.22-18.46-27.56-35.86-41-53.18-1.57-2-3.13-3.68-6.56-3.69-51.46-.15-102.57-5.82-153.77-10.1-3.17-.26-5.18.14-7.09 2.15C314.35 122.75 298.32 139.75 281.74 157.31zM265.52 684.82l-.54-4.41c-30.55.0-61.12-.48-91.67.12q-69.77 1.37-139.5-1c-9.69-.31-12.55 2.51-11.62 12a119.48 119.48.0 0 1 0 27.13c-1.75 13.21 4.11 15.56 15.7 14.85a962.62 962.62.0 0 1 122-.1c18.95 1.25 37.95 2 56.94 2.6 3.73.13 9.06 2 10.74-3.1C234.33 712.24 250.29 698.85 265.52 684.82zM117.94 809.54v.05c29.38.0 58.77-.13 88.15.1 6.22.0 9.46-.58 9.85-8.39.65-13 2.86-26 5.17-38.87 1.24-6.89.41-9.23-7.53-9.53-60.94-2.29-121.86-5.11-182.88-2.71-6.59.26-8.58 2-8.39 8.44.39 13.54.67 27.14-.09 40.65-.48 8.39 1.88 10.65 10.35 10.48C61 809.18 89.48 809.54 117.94 809.54zM625.49 825.9c-23.92-5.48-47.83-2.64-71.73-3-8-.11-9.82 2.07-8.83 9.92 1.73 13.86 2.56 27.87 2.93 41.83.17 6.68 2.57 8.45 8.83 8.32 56-1.18 111.93-1.42 167.81 2.75 7.51.56 10.3-1.6 10.22-9.5a333.36 333.36.0 0 1 1.73-40.6c.94-8.39-2.08-9.9-9.37-9.85C693.22 826 659.35 825.9 625.49 825.9zm17 76.81c0-.91.0-1.83.0-2.75-27.18.0-54.37.53-81.52-.26-10.44-.3-12 3.57-10.83 12.47 1.38 10.75 2.78 21.7 2.09 32.43-.75 11.52 5.62 14.17 14.32 14.08 52.51-.57 105 3.79 157.5 1.44 6.29-.28 8.54-1.26 8.35-8-.38-13.57-.2-27.2.68-40.75.5-7.68-2.49-8.85-9.22-8.77C696.76 902.91 669.64 902.71 642.51 902.71zM531.72 754c3 14.72 6.7 29.58 9 44.65 1.13 7.59 4.8 8 10.79 7.61 14-.9 28-2.14 42-1.81 44.74 1 89.45 2.76 134.18 4.18 4.52.15 10.12 2.87 10.24-5.87.16-12.18 1-24.37 2.13-36.49.64-6.69-1.68-8.19-8.11-8.48C665.19 754.83 598.5 751.18 531.72 754zm-417 196.86a562.65 562.65.0 0 0 70.53.26c26.56-1.42 26.58-1.07 26.45-27.46-.13-27.92-.15-28.23-27.43-27.11-44.44 1.81-88.71-3.75-133.12-2.76-6.78.15-14 1.32-20.24-.54-6.9-2-7.55-.47-7.28 5.64.62 14 1.22 28.06.82 42.07-.22 8 2.86 10.06 10.14 10C61.27 950.73 88 950.88 114.69 950.88zm-92.13-66.3c8.13-10.92 19.25-8.11 29.11-7.94 39.71.66 79.4 2.88 119.1 2.82 42.81-.07 42.81-.9 42-43.83a7.59 7.59.0 0 1 0-1.35c1-6.11-1.87-7.57-7.57-7.56-57.81.1-115.61.15-173.41-.26-8.36-.06-9.6 3.26-9.41 10.34C22.85 852.44 22.56 868.1 22.56 884.58zm456-787.44c-18.16-21.62-34.91-41.55-51.62-61.51C424.64 33 422.56 31.47 419 34c-23.06 16.09-46 32.28-68.46 53.91z" fill="#f9f4ed"/><path d="M383.82 899.47c-40 0-68.86-28.43-68.12-68.42.82-43.86 27.48-62.62 63.23-65.33 40.53-3.07 73.16 25.09 72.46 58.88C450.59 863.13 424 901.78 383.82 899.47zm49.83-72.26c.63-24.76-21.31-45.53-51.11-44.31-26 1.06-49.31 17.1-50 47.88-.64 27.47 21.6 50.86 49.75 51.72C409.65 883.34 432.84 858.38 433.65 827.21z" fill="#f9f4ed"/></g></g></g></svg>