<svg xmlns="http://www.w3.org/2000/svg" width="741.72" height="1080" viewBox="0 0 741.72 1080"><g id="Слой_2" data-name="Слой 2"><g id="kitchen04_380526242"><g id="kitchen04_380526242-2" data-name="kitchen04_380526242"><path d="M16.85 552.87C-1.42 544.73-.94 520.94.79 504.35c2-18.64 2.64-37 2.92-55.72C4.8 387.79-2.37 325.21 5.4 264.7c7.35-56.76 58-84.92 112.54-76 10.7 1.69 41.54 12.47 22.88 25.59-15.45 10.87-42.61 1.94-59.84 2.51-23.8.72-37.94 15.69-46.59 37-15.74 39-5.21 80.64-5.1 121.15.06 50.5-.11 101.13.16 151.44.0 3.37 1 15.52.94 16C28.59 553.58 22.78 555.52 16.85 552.87z" fill="#1d160f"/><path d="M578 668.75a12.73 12.73.0 0 0-7.34-3.51c-39.26-6-79.52.06-118.91.32-47.75.25-95.54.68-143.26.68-28.43.0-56.68 1.76-85-1.39-15.35-1.69-45-8.46-55.84 7-6.2 8.81-4.1 25.86-5.7 36.12C146.16 812.33 136.48 921.13 108 1023c-4.73 16.88-15.4 49.44 12.08 51.6 54.51 4.3 110.74-3.16 165.44-3.91 58.13-.75 116.24.07 174.37 1.22 32.75.68 65.5 1.43 98.28 2.08 16.4.29 32.62 2.12 49.06 1.72 8.44-.22 18.07.57 25.77-3.69 10.63-6 5.09-8.75 1.94-20.75a170.73 170.73.0 0 1-4.16-25.12c-2.11-18.56-4.06-37.2-5.64-55.86-5.62-66.65-16.86-132.38-27.54-198.34-3.83-23.57-9.14-46.8-12.9-70.41C583.11 691.36 585.16 675.85 578 668.75z" fill="#fcfcfc"/><path d="M156.46 1080c-12.31.0-24.58-.38-36.72-1.34-8-.62-13.95-3.64-17.65-9-8.3-11.93-2.57-32 1.21-45.37.25-.86.49-1.69.71-2.49 21.22-75.82 32.11-156.56 42.64-234.64 3.54-26.27 7.2-53.44 11.19-79.84a99.56 99.56.0 0 0 .75-10.76c.33-9.41.71-20.08 5.66-27.12 10.76-15.41 36-11.93 52.74-9.63 2.51.34 4.87.67 6.92.89 20.61 2.29 41.66 2 62 1.62 7.39-.13 15-.25 22.57-.25 33.92.0 68.45-.22 101.84-.43q20.7-.13 41.4-.25c12.67-.09 25.71-.78 38.33-1.46 26.68-1.42 54.28-2.9 81.22 1.18a16.91 16.91.0 0 1 9.6 4.65v0c6.24 6.18 6.71 16.56 7.12 25.72.16 3.4.31 6.62.72 9.32 1.92 12 4.29 24.24 6.59 36 2.18 11.22 4.43 22.83 6.31 34.35q1.51 9.32 3 18.62c9.57 58.75 19.46 119.5 24.56 180 1.4 16.59 3.19 34.31 5.62 55.74a167.21 167.21.0 0 0 4 24.54 63.38 63.38.0 0 0 2.43 7.15c2.84 7.26 3.93 12.45-6.33 18.23-7.37 4.08-15.93 4.12-23.48 4.16-1.43.0-2.83.0-4.21.06-9.87.24-19.74-.32-29.28-.85-6.54-.37-13.31-.75-19.95-.87q-28.87-.57-57.7-1.21l-40.59-.87c-55-1.09-114.24-2-174.24-1.22-19.72.27-40 1.44-59.69 2.57C203 1078.66 179.68 1080 156.46 1080zm37.65-413.94c-9.66.0-18.67 1.8-23.11 8.16-3.55 5-3.88 14.42-4.18 22.68a103.63 103.63.0 0 1-.83 11.72c-4 26.32-7.64 53.45-11.18 79.69C144.25 866.67 133.32 947.7 112 1024.07l-.72 2.53c-3.16 11.1-8.44 29.68-2.38 38.4 2.25 3.23 6 5 11.53 5.45 34.5 2.72 70.34.66 105-1.34 19.74-1.13 40.15-2.31 60.05-2.58 60.13-.77 119.41.13 174.51 1.22q20.31.42 40.6.87 28.83.62 57.68 1.21c6.8.12 13.64.51 20.26.88 9.38.52 19.08 1.07 28.62.84 1.42.0 2.89.0 4.37-.06 6.88.0 14-.07 19.5-3.12 3.65-2 4-3.08 4.08-3.26.17-.76-.63-2.8-1.4-4.77a70.22 70.22.0 0 1-2.73-8.06 176.66 176.66.0 0 1-4.27-25.72c-2.44-21.49-4.24-39.28-5.65-56-5.07-60.22-14.93-120.81-24.47-179.41l-3-18.62c-1.85-11.4-4.09-22.93-6.26-34.09-2.31-11.87-4.7-24.13-6.64-36.33a98.32 98.32.0 0 1-.81-10.23c-.34-7.64-.74-16.31-4.68-20.23a8.71 8.71.0 0 0-5-2.38c-26.13-4-53.29-2.5-79.56-1.1-12.71.68-25.85 1.39-38.73 1.47q-20.68.11-41.39.25c-33.4.21-67.94.43-101.89.43-7.48.0-15.08.12-22.44.25-20.61.33-41.93.69-63.06-1.67-2.15-.23-4.57-.56-7.13-.92A164.08 164.08.0 0 0 194.11 666.06z" fill="#1d160f"/><path d="M737 192.1c-39-12.79-85.52-1.21-125.77-1.21H372.28c-83.58.0-167.33-4.06-250.69-4.06-27.27 2-24.67 20.39-19.44 42.46 11.4 48.27 17 97.15 25.26 146 9.68 57.62 21.11 115.24 29.39 173 1.57 11-.31 24.61 4.14 34.93 14.33 33.37 82.82 14.81 109.57 13.52 69-3 138.3.1 207.26.5 25.64.14 51.73 7.64 77.49 2.8 36.57-6.82 32.43-55.37 36.37-84.64q6.07-44.63 11.14-89.38c3.77-34 3-69.19 14.68-101.79 13.83-38.59 50.47-59.56 80.21-85.22C7e2 237 743 194 737 192.1z" fill="#fcfcfc"/><path d="M206.51 607.22c-3.11.0-6.18-.09-9.18-.31-21-1.52-34.56-8.92-40.18-22-3.18-7.38-3.43-15.82-3.66-24a112.43 112.43.0 0 0-.77-12c-5.33-37.25-12.09-75.06-18.63-111.63-3.59-20.1-7.31-40.87-10.74-61.31-2.59-15.32-5-30.87-7.24-45.91-5-32.86-10.17-66.84-18-99.85-3.44-14.53-6-28.34.82-37.62 4.28-5.85 11.58-9.09 22.32-9.89h.31c41.7.0 84.19 1 125.28 2s83.64 2 125.41 2H611.19c12.6.0 25.64-1.13 39.44-2.33 29.6-2.58 60.22-5.24 87.62 3.76a4.87 4.87.0 0 1 3.29 3.67c.53 2.5 1.18 5.62-19.66 28.19-9.84 10.65-20.19 21-21.48 22.1-6.7 5.78-13.78 11.36-20.63 16.75-23.63 18.6-48.07 37.85-58.44 66.78-8.35 23.34-10.24 48.7-12.07 73.21-.68 9.08-1.38 18.47-2.4 27.65-3.16 28.39-6.81 57.66-11.14 89.47-.69 5.11-1.13 10.87-1.6 17-2.21 29-5 65-38.1 71.18-16.76 3.15-33.59 1.27-49.87-.55-9.37-1.05-19.06-2.13-28.4-2.17-21.19-.13-42.75-.51-63.61-.89-47.08-.84-95.76-1.71-143.45.37-5.3.26-12.39 1.23-20.6 2.36C237 605.06 221.28 607.22 206.51 607.22zM121.74 191c-8.1.62-13.37 2.76-16.13 6.52-4.71 6.45-2.43 18.28.55 30.86 7.88 33.34 13.07 67.49 18.09 100.51 2.29 15 4.65 30.53 7.23 45.78 3.43 20.4 7.13 41.15 10.72 61.23 6.55 36.64 13.32 74.52 18.67 111.91a113.93 113.93.0 0 1 .85 12.91c.22 7.39.44 15 3 21 10.15 23.62 54.74 17.5 84.25 13.45 8.4-1.15 15.66-2.14 21.34-2.42 48-2.09 96.77-1.22 144-.38 20.83.38 42.37.76 63.51.88 9.77.05 19.68 1.16 29.26 2.23 15.68 1.75 31.9 3.56 47.44.64 26.93-5 29.31-36.2 31.41-63.7.47-6.22.92-12.09 1.64-17.44 4.32-31.76 8-61 11.12-89.28 1-9 1.7-18.34 2.37-27.35 1.87-25.06 3.8-51 12.53-75.38 11.17-31.17 36.56-51.15 61.11-70.48 6.77-5.33 13.78-10.85 20.29-16.47 4.37-3.89 31.09-31.37 37.27-41-25-7.18-53.39-4.71-80.9-2.32C638 193.8 624.15 195 611.19 195H372.28c-41.87.0-84.44-1-125.61-2C205.68 192 163.29 191 121.74 191zm614 5.06h0z" fill="#1d160f"/><path d="M553.67 660.93c-12.74 9.51-32.4 3.92-46.93 3.3-18.77-.72-37.44-.89-56.25-.14-69 2.9-138.17 1.61-207.21 1.29-13-.08-26 1.75-38.9 1.07-21.1-1.21-12.9-26.05-14.31-39.76-1.57-14.35-.9-29 15.89-31.9 21.28-3.65 44.42-.25 65.85.83 24.75 1.14 49.56 2.29 74.41 2.14 40.27-.28 80.72-.64 121-2.75 25-1.29 65.88-14.55 85.73 7 10.59 11.53 12.84 40.7 4.73 54.45A14 14 0 0 1 553.67 660.93z" fill="#fcfcfc"/><path d="M210.48 670.73c-2.1.0-4.21-.05-6.31-.16-20.1-1.16-19-20.1-18.33-32.63a75.23 75.23.0 0 0 .13-10.83c-1.06-9.67-3.53-32.38 19.28-36.38 16.68-2.86 34.21-1.54 51.17-.27 5.4.4 10.5.79 15.6 1h.58c24.12 1.11 49.07 2.25 73.6 2.11 43.16-.3 82.05-.72 120.81-2.75 5.65-.29 12.28-1.23 19.29-2.23 23.61-3.36 53-7.55 69.68 10.54 11.68 12.73 14.43 43.79 5.25 59.35a18.21 18.21.0 0 1-5.1 5.69c-11 8.24-25.86 6.57-38.93 5.08-3.79-.42-7.37-.83-10.64-1-20.38-.78-38.68-.83-55.91-.14-56.19 2.36-113.36 1.94-168.64 1.54q-19.38-.13-38.75-.25c-5.48.0-11.13.3-16.58.61S215.94 670.73 210.48 670.73zm17.19-73.46a125.3 125.3.0 0 0-21 1.58c-11.07 1.94-14.46 9.37-12.5 27.39a80.12 80.12.0 0 1-.09 12.16c-.89 15.81-.14 23.32 10.55 23.94a199.41 199.41.0 0 0 21.58-.46c5.59-.32 11.35-.66 17.11-.62q19.37.09 38.76.25c55.18.4 112.24.81 168.25-1.54 17.45-.69 36-.65 56.58.15 3.57.15 7.29.57 11.23 1 12.11 1.37 24.64 2.79 33.08-3.51h0a9.85 9.85.0 0 0 2.87-3.19c7.29-12.35 5-39.69-4.18-49.65-13.73-14.9-39.62-11.21-62.45-8-7.2 1-14 2-20 2.3-38.93 2-77.92 2.46-121.19 2.76-24.75.15-49.8-1-74-2.12h-.6c-5.22-.27-10.61-.67-15.82-1.06C246.49 598 237 597.27 227.67 597.27z" fill="#1d160f"/><path d="M105.84 186.37c-2.53-11.18 20.21-29.28 30-38.53C188.05 99 259.1 68 330.26 62.67a340 340 0 0 1 61.12.83c52.38 5.8 105.39 21.38 151.09 48.05 22.82 13.29 45.22 29.74 63.4 49 39.38 41.7-31.37 32.07-54.81 32.28q-45.25.54-90.47.07c-59.17-.5-118.36-1.61-177.5-1.75-27.5.0-55-1.69-82.54-.32-26.32 1.32-52.86 8.12-79.2 4.33C111.29 193.79 106.82 190.52 105.84 186.37z" fill="#fcfcfc"/><path d="M138.23 200.43a122.2 122.2.0 0 1-17.47-1.18c-11.05-1.52-17.43-5.54-18.93-11.94v0c-2.48-11 10.4-23.65 26.22-37.86 1.85-1.67 3.6-3.24 5-4.58C185.91 95.39 257.67 64 330 58.56a341.07 341.07.0 0 1 61.87.84c56.07 6.21 108.88 23 152.72 48.59 25.61 14.92 47.25 31.65 64.32 49.75 11.14 11.8 15 21 11.7 28.22-6.1 13.39-34.31 12.26-57 11.35-4.93-.2-9.21-.37-12.49-.34-29 .35-59.49.37-90.55.07-23.07-.19-46.53-.49-69.22-.77-35.49-.44-72.19-.89-108.25-1-9.82.0-19.8-.22-29.45-.43-17.35-.38-35.31-.77-52.88.1-8.81.44-17.87 1.54-26.63 2.6C162.36 199 150.33 200.43 138.23 200.43zm-28.37-15c.62 2.62 5 4.68 12 5.65 16.86 2.43 34.33.33 51.22-1.72 8.9-1.07 18.11-2.18 27.21-2.64 17.87-.89 36-.49 53.47-.11 9.61.21 19.54.43 29.28.43 36.11.09 72.83.54 108.34 1 22.68.28 46.14.57 69.2.77 31 .3 61.41.28 90.38-.07 3.52.0 7.87.14 12.91.34 15.85.64 45.34 1.82 49.14-6.52C614.69 179 611 172 602.87 163.4c-16.52-17.53-37.54-33.77-62.48-48.29-42.85-25-94.53-41.44-149.47-47.52a338.18 338.18.0 0 0-60.36-.81C260.13 72 190.2 102.67 138.7 150.85c-1.48 1.4-3.26 3-5.15 4.7C125.34 162.93 108.27 178.27 109.86 185.44z" fill="#1d160f"/><path d="M293.53 582a15.73 15.73.0 0 1-6.51-2.47c-14.2-8.28-12.89-33.4-13.41-47.08-1.64-44.44-10-89.34-15.2-133.48-7.35-62.57-16.22-125.1-24.12-187.66-1.17-9 9.25-16.59 17.32-13.19 6.88 2.91 8 11.79 9.77 18.2 4.43 16.16 3.29 32.65 5.34 49 11.72 94 23.58 187.94 36.38 281.8C303.94 553.55 308 583.72 293.53 582z" fill="#1d160f"/><path d="M467.29 593.17c-6.91.22-13.62-4.65-12.52-13.9Q471.75 434.15 489 289c2.54-20.67 2-41.75 5.18-62.45 1.57-10.28 21.1-53.75 29.83-23.52 4.51 15.88-3.15 34.22-5.71 49.89-9.13 56.29-13.5 114.2-19.75 170.85-5 45.22-12.67 90-14.79 135.41-.42 8.82-.32 21.32-6 28.6A14 14 0 0 1 467.29 593.17z" fill="#1d160f"/><path d="M370 592.14a11.44 11.44.0 0 1-3.9-.72c-20.05-6.48-8.3-65.92-8.09-81.3 1-69.16.0-138.35.32-207.44.11-21.82.11-43.61.22-65.44.0-11.28-3.17-23.64.36-34.67 4.26-13.45 20.39-14.56 25.45-1.94 6 15.12-.6 38-.63 54-.11 19.41-.2 38.81-.11 58.19.28 54.29-2 108.61-1.5 162.94.26 22.17 1.57 44.43 3.2 66.54C385.91 551.21 387 592.25 370 592.14z" fill="#1d160f"/><path d="M458.23 662a17.28 17.28.0 0 1 6.55 2.47c14.15 8.38 12.83 33.43 13.35 47.16 1.69 44.43 10 89.25 15.19 133.36 7.35 62.71 16.27 125.2 24.19 187.67 1.12 9-9.3 16.65-17.36 13.26-6.86-2.9-8-11.69-9.79-18.21-4.37-16.09-3.29-32.54-5.33-49-11.72-94-23.59-188-36.37-281.83C447.78 690.46 443.76 660.25 458.23 662z" fill="#1d160f"/><path d="M279.94 661.91c6.91-.3 13.64 4.58 12.53 13.94q-16.89 145-34.19 290.16c-2.58 20.72-2 41.72-5.2 62.47-1.58 10.32-21.11 53.82-29.8 23.5-4.58-15.87 3.15-34.22 5.69-49.81 9.1-56.29 13.47-114.15 19.73-170.91 5-45.16 12.68-90 14.82-135.49.4-8.7.27-21.26 5.94-28.53A14 14 0 0 1 279.94 661.91z" fill="#1d160f"/><path d="M377.28 661.91a14.67 14.67.0 0 1 3.9.64c20.06 6.56 8.35 66 8.14 81.41-1 69.12.0 138.28-.35 207.47-.12 21.72-.16 43.54-.24 65.33.0 11.36 3.17 23.68-.35 34.76-4.25 13.4-20.42 14.59-25.42 2-6.06-15.23.57-38.06.63-54.07q.14-29.07.09-58.2c-.25-54.29 2-108.61 1.45-162.9-.19-22.21-1.5-44.43-3.12-66.5C361.33 702.79 360.27 661.8 377.28 661.91z" fill="#1d160f"/><path d="M413.82 63.5c1.62-1.84 2.72-4.84 3.24-9.39 7-61.25-93.95-66.09-111.22-15.24-10.73 31.83 35.53 27.67 53.91 27 12.83-.51 24.61-1.94 37.46-.19C404.84 66.65 410.48 67.36 413.82 63.5z" fill="#fcfcfc"/><path d="M405.74 70.56a74.2 74.2.0 0 1-9.06-.8c-9.49-1.29-18.43-.78-27.88-.24-2.89.17-5.87.34-8.89.46l-3.73.16C340.26 70.85 313.6 72 303.79 59c-4.16-5.53-4.79-12.75-1.85-21.44 4.84-14.25 16.25-25.63 32.15-32a80 80 0 0 1 46.34-3.68c28.12 6.31 43.73 26.52 40.72 52.73-.6 5.28-2 9.08-4.22 11.62C414 69.59 410.17 70.56 405.74 70.56zm-22-9.86a102.24 102.24.0 0 1 14 .89c7 .9 11.13 1.31 12.95-.79v0c.74-.84 1.73-2.76 2.23-7.13 2.52-22-10.31-38.36-34.34-43.75-26.18-5.87-60 4-68.88 30.31-2 6-1.83 10.57.64 13.85 7.19 9.56 32.07 8.45 45.43 7.85l3.79-.16c2.94-.11 5.88-.28 8.72-.45C373.55 61 378.62 60.7 383.76 60.7z" fill="#1d160f"/><path d="M144.42 1027.18C173 920.69 182.59 807 198.4 697.84c1.45-9.92-.19-25.91 4.41-35.5-13.68-1.18-28.29-.36-35.19 9.53-6.2 8.81-4.1 25.86-5.7 36.12C146.16 812.33 136.48 921.13 108 1023c-4.73 16.88-15.4 49.44 12.08 51.6 7.84.61 15.63 1 23.52 1.15C133.4 1064.88 140.69 1041.06 144.42 1027.18z" fill="#1d160f"/><path d="M197.42 580.49c-4.43-10.32-2.58-23.82-4.13-34.9-8.37-57.79-19.8-115.46-29.48-173.11-8.18-48.8-13.82-97.71-25.19-145.94-4.21-17.85-6.73-33.15 6.75-39.53-7.9.0-15.84-.18-23.78-.18-27.27 2-24.67 20.39-19.44 42.46 11.4 48.27 17 97.15 25.26 146 9.68 57.62 21.11 115.24 29.39 173 1.57 11-.31 24.61 4.14 34.93 10.4 24.3 49.57 21 80.42 17C221.51 600.06 203.92 595.65 197.42 580.49z" fill="#1d160f"/><path d="M544.49 450.75c-36.76 1.81 8.62-151.4 15.84-167.95 3.74-8.57 9.64-18.93 18.59-22.87 8.73-3.8 23.35.25 21.3 12.4-1.93 11.22-18.68 19.34-23.3 30.77-5.19 12.88-5.86 27.06-8.18 40.57-2.62 15.23-5.52 30.35-7.06 45.72C560.3 403.59 568.88 449.42 544.49 450.75z" fill="#1d160f"/><path d="M585.47 995.44a4.18 4.18.0 0 1-1.57-.31c-2-.84-3.94-1.44-5.94-2.06s-4.08-1.27-6.36-2.2a4.12 4.12.0 0 1 3.09-7.64c2 .8 3.79 1.37 5.72 2 2.09.65 4.24 1.33 6.63 2.31a4.12 4.12.0 0 1-1.57 7.93z" fill="#1d160f"/><path d="M569 959.43a4 4 0 0 1-.69-.06 4.12 4.12.0 0 1-3.38-4.75c.33-2 .89-5.26 3.45-7.08a4.12 4.12.0 0 1 5.13 6.43 12.71 12.71.0 0 0-.45 2A4.13 4.13.0 0 1 569 959.43zm4.16-5.18z" fill="#1d160f"/><path d="M543.22 1009.81a4.11 4.11.0 0 1-3.05-6.89c1.54-1.7 2.85-4.17.89-9.64a4.12 4.12.0 1 1 7.76-2.77c2.58 7.21 1.72 13.25-2.55 18A4.14 4.14.0 0 1 543.22 1009.81z" fill="#1d160f"/><path d="M217 284.88a4 4 0 0 1-1.55-.31c-2-.81-3.86-1.39-5.82-2s-4.16-1.29-6.49-2.24a4.12 4.12.0 1 1 3.11-7.63c2 .82 3.86 1.39 5.83 2s4.14 1.29 6.47 2.24a4.12 4.12.0 0 1-1.55 7.94z" fill="#1d160f"/><path d="M200.51 248.78a3.94 3.94.0 0 1-.9-.1 4.11 4.11.0 0 1-3.12-4.92l.08-.39c.47-2.14 1.06-4.8 3.37-6.42a4.12 4.12.0 0 1 5.13 6.43 16.18 16.18.0 0 0-.45 1.77l-.09.41A4.12 4.12.0 0 1 200.51 248.78zm4.15-5.07z" fill="#1d160f"/><path d="M174.79 299.2a4.12 4.12.0 0 1-3-6.89c1.55-1.71 2.87-4.17.92-9.54a4.12 4.12.0 1 1 7.74-2.83c2.61 7.15 1.75 13.18-2.56 17.92A4.13 4.13.0 0 1 174.79 299.2z" fill="#1d160f"/></g></g></g></svg>