<svg xmlns="http://www.w3.org/2000/svg" width="1021.1" height="1080" viewBox="0 0 1021.1 1080"><g id="Слой_2" data-name="Слой 2"><g id="set07_539644210"><g id="set07_539644210-2" data-name="set07_539644210"><path d="M904 754.09l1.63-9.49a2.43 2.43.0 0 1 1.37-1.78l8.74-4a2.41 2.41.0 0 0 .11-4.32L907.3 730a2.41 2.41.0 0 1-1.27-1.85l-1.14-9.56a2.42 2.42.0 0 0-4.08-1.44l-6.89 6.72a2.43 2.43.0 0 1-2.15.64l-9.44-1.87A2.4 2.4.0 0 0 879.7 726l4.25 8.64a2.4 2.4.0 0 1-.05 2.24l-4.7 8.4a2.41 2.41.0 0 0 2.45 3.56l9.53-1.38a2.43 2.43.0 0 1 2.11.75l6.54 7.07A2.41 2.41.0 0 0 904 754.09z" fill="#e03f3f"/><path d="M256.81 579.76q0 12-.07 23.93c-.07 28.74-15.68 47.17-45.56 52.2s-45.28-9.55-45.3-40.91V513.72c0-31.32 15.57-49.13 45.63-49S257.09 481.34 257 510q0 8.74-.05 17.49-14.44.69-28.89 1.45.0-9.87.0-19.74c0-13.14-6.08-18-15.81-17.81s-15.85 5.49-15.86 19q-.06 51.12-.13 102.23c0 13.55 6.06 17.5 15.75 16.11s15.81-6.93 15.83-20.07l.06-26.32Q242.37 581 256.81 579.76z" fill="#e03f3f"/><path d="M305.78 640.8q-15.3 1.69-30.57 3.65.27-88.83.55-177.66h30.6q-.12 37.29-.25 74.59 17.38-.84 34.78-1.53l.24-73.1h31.16l-.51 168q-15.61 1.17-31.21 2.6l.24-73.1q-17.4.93-34.78 2Q305.9 603.5 305.78 640.8z" fill="#e03f3f"/><path d="M394.54 466.66h30.6q-.17 82.41-.35 164.82-15.35.7-30.7 1.67z" fill="#e03f3f"/><path d="M474.62 511.62l-.12 118.2q-13.83.27-27.65.75l.27-163.94h38.39Q501.2 515.4 517 564.1q0-48.75.0-97.48h27.26q.07 81.57.14 163.14-15.78-.28-31.57-.3C5e2 590.13 487.3 551 474.62 511.62z" fill="#e03f3f"/><path d="M662.91 725l1.63-9.49a2.41 2.41.0 0 1 1.37-1.77l8.74-4a2.41 2.41.0 0 0 .11-4.32l-8.52-4.48a2.41 2.41.0 0 1-1.27-1.85l-1.14-9.56a2.41 2.41.0 0 0-4.07-1.44l-6.9 6.72a2.4 2.4.0 0 1-2.15.63l-9.44-1.87a2.41 2.41.0 0 0-2.63 3.43l4.26 8.64a2.4 2.4.0 0 1-.06 2.24l-4.7 8.4a2.41 2.41.0 0 0 2.45 3.56l9.53-1.38a2.43 2.43.0 0 1 2.11.75l6.54 7.06A2.4 2.4.0 0 0 662.91 725z" fill="#e03f3f"/><path d="M596.93 536.1q21 .42 42.07 1 0 11.94.07 23.89-21-.82-42.09-1.39.06 24.14.11 48.27 26.5 1.05 53 2.76.0 12 .07 24-41.82-3.13-83.73-4.38l-.24-163.66q41.73.0 83.46.05.0 12 .08 24-26.44-.3-52.88-.49z" fill="#e03f3f"/><path d="M709.73 464.76c29.76-.12 45.12 16.23 45.2 44.94.0 1.88.0 3.75.0 5.62q-14.45-.52-28.92-1 0-3.63.0-7.26c0-12.53-5.62-17.38-15.36-17.51S695.36 494 695.4 506.27c.13 35 60 44.76 60.08 96.42.09 28.77-15.4 42.84-45.44 39.42s-45.72-19.88-45.8-46.9v-10.39q14.47.84 28.95 1.84.0 6.14.0 12.26c0 12.26 6.19 17.19 15.92 18.1s15.84-2.95 15.8-15.47c-.1-36.47-60-46.37-60.13-94.26C664.7 480.29 680 464.84 709.73 464.76z" fill="#e03f3f"/><path d="M803.35 545.15q21 1.41 41.89 3.05.0 13.75.0 27.53-20.89-2.16-41.85-4.05.06 27.18.11 54.38 26.31 3.6 52.54 7.84v27.82q-41.35-7.8-83-13.72-.24-90.59-.49-181.17 41.73.06 83.45.15V494.8q-26.38-.75-52.8-1.39Q803.3 519.29 803.35 545.15z" fill="#e03f3f"/><path d="M472 254.53h-6.31l-2-6.51H451.5l-2 6.51h-6l10.64-33.05h7.18zM457.52 227a42.63 42.63.0 0 1-1 4.48l-3.37 11H462l-3.32-11a42.68 42.68.0 0 1-1-4.48z" fill="#e03f3f"/><path d="M497.9 254.53h-6.22l-10.07-33.05H488l6.94 23.65h.19L502 221.48h6z" fill="#e03f3f"/><path d="M510.86 254.53V221.48h21.06V227H517v7.9H529.8v5.49H517V249h15.18v5.49z" fill="#e03f3f"/><path d="M543.39 240.75v13.78h-6.17V221.48h13.83c6.7.0 10.12 4 10.12 9.44a8.78 8.78.0 0 1-5.54 8.48L562 254.53h-6.7l-5.49-13.78zm0-13.78v8.33h6.79c3 0 4.34-1.63 4.34-4.38.0-2.41-1.26-3.95-4.1-3.95z" fill="#e03f3f"/><path d="M577.69 242.05v12.48h-6.16V242.05l-10.12-20.57h6.5l6.75 14.5h.19l6.7-14.5h6.22z" fill="#e03f3f"/><path d="M1020.79 880.54a4.21 4.21.0 0 0-3.39-2.6L957 870.4l-3.17-72.6a4.21 4.21.0 0 0-7.59-2.33 513.62 513.62.0 0 1-58.54 66.22l-8.12-14a4.11 4.11.0 0 0-2-1.74 2 2 0 0 0-.31-.13h-.13l-.31-.09h-.24-.14-.11-.45c-.15.0-.28.0-.41.0h-.23-.3a3.88 3.88.0 0 0-.45.14 1.38 1.38.0 0 0-.29.12 1.08 1.08.0 0 0-.29.13h0a2.39 2.39.0 0 0-.34.21 2.7 2.7.0 0 0-.34.25 4 4 0 0 0-.31.27 514.44 514.44.0 0 1-46.63 41.24L813 866.83a2.07 2.07.0 0 0-.27-.37 2.28 2.28.0 0 0-.29-.34 2 2 0 0 0-.27-.24 3.25 3.25.0 0 0-.47-.36 2.61 2.61.0 0 0-.28-.17h-.09l-.26-.12a1.77 1.77.0 0 0-.42-.15 1.7 1.7.0 0 0-.43-.11h0a.38.38.0 0 1-.1.0h0-.2-.15-.06a5.93 5.93.0 0 0-.73.0 2.41 2.41.0 0 0-.37.07 3.6 3.6.0 0 0-.93.3 3.65 3.65.0 0 0-.34.18l-.24.15-.29.21C722.91 933.8 626 966.85 510.55 966.85s-212.16-33-296-100.85l-.26-.21a3.68 3.68.0 0 0-.6-.4 4.22 4.22.0 0 0-.65-.3 3.37 3.37.0 0 0-.34-.1l-.34-.07a1.71 1.71.0 0 0-.3.0h-.41-.35a1.64 1.64.0 0 0-.37.0 3.29 3.29.0 0 0-.43.09 4.11 4.11.0 0 0-.42.15 3 3 0 0 0-.41.18l-.36.21v0l-.32.26a4.28 4.28.0 0 0-.33.29l-.3.34a2.65 2.65.0 0 0-.25.37L194.79 888.1a514.56 514.56.0 0 1-46.64-41.24l-.3-.27a2.7 2.7.0 0 0-.34-.25 2.16 2.16.0 0 0-.3-.18 1.55 1.55.0 0 0-.29-.14 1.51 1.51.0 0 0-.35-.14 3.36 3.36.0 0 0-.45-.14h-.29-.23c-.14.0-.27.0-.41.0h-.45-.11-.14-.24l-.31.09h-.13a2 2 0 0 0-.31.13 4.1 4.1.0 0 0-1.7 1.33 3.62 3.62.0 0 0-.27.41l-8.13 14a513.55 513.55.0 0 1-58.53-66.22 4.21 4.21.0 0 0-7.59 2.33l-3.17 72.6L3.7 877.94a4.21 4.21.0 0 0-2.76 6.84A621.15 621.15.0 0 0 106.67 987.32l.36.27.31.19a3.21 3.21.0 0 0 .78.35h.14.1a2.26 2.26.0 0 0 .42.09h.09a2.78 2.78.0 0 0 .58.05 3 3 0 0 0 .6-.05 3.22 3.22.0 0 0 .6-.13h0a4 4 0 0 0 .45-.16 4.48 4.48.0 0 0 .65-.35l14.45-9.49c15.61 12.15 31.8 23.54 48.43 34.1.09.0.17.1.26.15a3.6 3.6.0 0 0 .58.32l.22.09c.1.0.19.07.29.09h.06.1a1.83 1.83.0 0 0 .32.07h.09.17.42a3.87 3.87.0 0 0 .48.0 2.24 2.24.0 0 0 .44-.07 4 4 0 0 0 1.41-.6l.3-.21 23.89-19a617 617 0 0 0 78.88 40.19c73.32 31 150 46.65 228 46.65s154.66-15.69 228-46.65a620.47 620.47.0 0 0 78.91-40.17l23.79 18.91.09.08c.09.08.19.14.28.21a4.24 4.24.0 0 0 1.44.6 1.94 1.94.0 0 0 .42.07 3.75 3.75.0 0 0 .48.0h.42.16.1a1.83 1.83.0 0 0 .32-.07h.1.05l.3-.09.22-.09a4.08 4.08.0 0 0 .58-.32l.25-.15q25-15.84 48.44-34.1l14.44 9.49a5.19 5.19.0 0 0 .66.35 3.43 3.43.0 0 0 .45.16h0a3.3 3.3.0 0 0 .59.13 3.14 3.14.0 0 0 .61.05 2.84 2.84.0 0 0 .58-.05h.09a2 2 0 0 0 .41-.09h.1.15a4.63 4.63.0 0 0 .79-.35 2.08 2.08.0 0 0 .29-.19l.36-.27a621.21 621.21.0 0 0 105.74-102.54A4.25 4.25.0 0 0 1020.79 880.54zM12.33 885.36l56.36-7a4.23 4.23.0 0 0 3.69-4l2.81-64.49a521.35 521.35.0 0 0 53.86 59.36L87.39 940.85a4.23 4.23.0 0 0-.36 3.43c0 .14.1.28.15.41v.08l11.42 25.54A612.76 612.76.0 0 1 12.33 885.36zm98.94 92.53-8.41-18.8q8.07 6.93 16.36 13.58zm22.39-4.62c-2.35-1.8-4.7-3.63-7-5.48q-15.56-12.33-30.25-25.64l39-67.07 4.34-7.46v0l6-10.31.36-.62Q162.83 873 180.91 887.8q4.67 3.81 9.4 7.49h0l-1.49 2.38h0l-4.14 6.63-.59 1-3.88 6.22-22.3 35.75h0l-4.56 7.31a4.32 4.32.0 0 0-.47 1.08c0 .15-.07.3-.1.46a3.89 3.89.0 0 0 0 1.18 2.33 2.33.0 0 0 .08.46 2.5 2.5.0 0 0 .11.39l.06.18.69 1.79 14.81 38.1Q150.67 986.39 133.66 973.27zM179 1002l-.72-1.87L166 968.6q11.64 8.21 23.64 15.87c2.1 1.36 4.21 2.69 6.34 4zm631.38-14.43a613 613 0 0 1-75.13 38c-72.28 30.52-147.88 46-224.71 46s-152.44-15.47-224.72-46a611.59 611.59.0 0 1-75.13-38c-2.58-1.54-5.13-3.1-7.69-4.67l-1.23-.75c-2.39-1.48-4.78-3-7.15-4.51q-16.37-10.44-32.07-21.92l1.52-2.43 10.65-17.08h0l12.36-19.81 2.58-4.13 1.9-3 2.83-4.55 2.63-4.22 4.48-7.18 10.64-17.06.55-.88q12.85 10.21 26.11 19.38c78.43 54.17 167.7 80.58 271.73 80.58s193.34-26.44 271.77-80.64q13.24-9.14 26.07-19.33l.54.89 10.65 17.06 4.48 7.18 2.63 4.22 2.83 4.55h0l1.89 3 2.58 4.12h0l12.35 19.81h0L857 953.29l1.52 2.43q-15.67 11.47-32.07 21.93c-2.37 1.51-4.75 3-7.15 4.49l-1.23.76Q814.26 985.26 810.39 987.57zM842.1 1002l-17-13.51c2.12-1.33 4.24-2.66 6.33-4q12-7.66 23.63-15.88l-12.25 31.54zm10.51-3.79 14.8-38.1.69-1.78h0a1.57 1.57.0 0 0 .09-.23 1.92 1.92.0 0 0 .08-.3.13.13.0 0 0 0 0 3.25 3.25.0 0 0 .08-.45 3.6 3.6.0 0 0 0-1.18 3.4 3.4.0 0 0-.09-.46 4 4 0 0 0-.48-1.08l-4.55-7.31h0l-22.3-35.75L837 905.28l-.6-1-4.13-6.64-1.5-2.39q4.74-3.67 9.41-7.49Q858.27 873 875 856.67l.36.62 6 10.31v0l4.34 7.46 39 67.07q-14.69 13.3-30.26 25.64c-2.31 1.85-4.66 3.68-7 5.48Q870.46 986.37 852.61 998.21zm49.27-25.54q8.29-6.64 16.35-13.58l-8.4 18.8zm20.58-2.36 11.42-25.54v-.08a1.73 1.73.0 0 0 .1-.24l.07-.19a4.32 4.32.0 0 0-.12-2.9c-.08-.18-.16-.34-.25-.51L892.05 869.2a522.28 522.28.0 0 0 53.86-59.36l2.81 64.49a4.21 4.21.0 0 0 3.68 4l56.37 7A612.23 612.23.0 0 1 922.46 970.31z" fill="#e03f3f"/><path d="M240.36 953.79A9.37 9.37.0 1 1 237 941 9.39 9.39.0 0 1 240.36 953.79z" fill="#e03f3f"/><path d="M283.5 997.74l-7.14-24.52-8.05 17.55-10.66-4.89 16.58-36.16 10.14 4.65 7 24.78 8.17-17.81 10.67 4.89-16.58 36.16z" fill="#e03f3f"/><path d="M317.11 968.93l32.32 11.81-3.28 9-20.31-7.42L324 987.44l17.38 6.35-3.13 8.58L320.82 996l-2.08 5.7 20.69 7.56-3.28 9-32.69-11.94z" fill="#e03f3f"/><path d="M373.77 1029l1.23-24.74-.23-.06-11.18 22.1-13.58-3.6 1.19-40.84 12.86 3.41-1.36 23 .22.06 10.14-20.64 12.18 3.22-1.14 23 .23.06 9.91-20.7 12.3 3.26-19.19 36.07z" fill="#e03f3f"/><path d="M447.67 1042.6 435 1041l1.94-15.31-12.6-26.13 14.57 1.84 5.91 14.1h.23l9.23-12.17 13.82 1.74-18.48 22.2z" fill="#e03f3f"/><path d="M471.62 1005.15l34.38 1.49-.42 9.54-21.6-.94-.24 5.49 18.49.8-.4 9.13-18.49-.8-.26 6.06 22 1-.41 9.53-34.78-1.51z" fill="#e03f3f"/><path d="M540.14 1045.42l-1.89-5.54-13.92.54-1.46 5.66-13.06.5 13-40.3 14.84-.57 16 39.2zm-13.49-14 8.61-.33-4.7-14h-.24z" fill="#e03f3f"/><path d="M588.37 1023.94l10.83 15.44L585 1041.15l-8.79-13.53-4.71.58 1.8 14.4-12.68 1.58-4.92-39.47 24.16-3c8.78-1.09 14 4 14.82 10.45A11.38 11.38.0 0 1 588.37 1023.94zM577.8 1011.1l-8.32 1 .9 7.28 8.32-1a3.59 3.59.0 0 0 3.1-4.12A3.54 3.54.0 0 0 577.8 1011.1z" fill="#e03f3f"/><path d="M650.31 998.92c2 8.37-5.44 14.54-12 22.21L655.2 1017l2.31 9.49-32 7.8-.66-2.69c-1-4.22.5-7.74 3-11.32 6.86-9.94 12.39-14.62 11.5-18.27-.52-2.13-2.41-3.76-5.83-2.92s-4.9 3.57-4.16 6.61l.27 1.12-10 2.43a9.2 9.2.0 0 1-.36-1.22c-1.93-7.92 2.32-14.43 13.39-17.12C641.75 988.69 648.6 991.9 650.31 998.92z" fill="#e03f3f"/><path d="M690.34 995.35c3.76 11.73 2.76 20.74-9.79 24.76s-18.66-2.7-22.42-14.43-2.71-20.75 9.84-24.77S686.58 983.62 690.34 995.35zm-22.25 4.1 1.75 5.45c2.14 6.66 4.47 9 8.32 7.78s4.28-4.47 2.14-11.13l-1.75-5.45c-2.13-6.67-4.34-9-8.19-7.76S666 992.79 668.09 999.45z" fill="#e03f3f"/><path d="M722.53 973.4c3.19 8-3.35 15.16-8.79 23.68l16.17-6.45 3.62 9.07-30.61 12.23-1-2.58c-1.61-4-.6-7.73 1.34-11.62 5.39-10.81 10.21-16.22 8.81-19.71-.81-2-2.9-3.38-6.18-2.08s-4.35 4.23-3.19 7.13l.43 1.08L693.54 988a8.42 8.42.0 0 1-.53-1.16c-3-7.57.27-14.61 10.85-18.84C712.61 964.47 719.85 966.68 722.53 973.4z" fill="#e03f3f"/><path d="M757.18 957c3.73 7.76-2.32 15.35-7.16 24.22l15.69-7.54 4.23 8.81-29.71 14.28-1.2-2.5c-1.88-3.91-1.12-7.68.54-11.69 4.65-11.15 9.09-16.87 7.46-20.26-.95-2-3.13-3.18-6.31-1.65s-4.05 4.51-2.7 7.33l.5 1-9.28 4.46a9.55 9.55.0 0 1-.6-1.12c-3.53-7.35-.73-14.6 9.54-19.54C746.68 948.74 754 950.46 757.18 957z" fill="#e03f3f"/><path d="M801.49 941.46a9.37 9.37.0 1 1-12.85-3.2A9.4 9.4.0 0 1 801.49 941.46z" fill="#e03f3f"/><path d="M703.09 159.75l3.5-8.55a556 556 0 0 0-392.08.0l3.5 8.54a22.74 22.74.0 0 0 17.26 42.07l3.49 8.51a492.09 492.09.0 0 1 343.58.0l3.49-8.51a22.74 22.74.0 0 0 17.26-42.07zm-376.34 30a9 9 0 1 1 9-9A9 9 0 0 1 326.75 189.75zm367.6.0a9 9 0 1 1 9-9A9 9 0 0 1 694.35 189.75z" fill="#e03f3f"/><path d="M402.12 140.6c.77-.17 1.25.15 1.29.83q1.06 17.3 2.52 34.55a1 1 0 0 1-.92 1.17c-1.84.44-3.69.89-5.53 1.36a1.11 1.11.0 0 1-1.36-.62q-5-9.7-10.15-19.31.22 10.92.69 21.82a1.1 1.1.0 0 1-.87 1.21c-1.87.52-3.73 1-5.6 1.6a1 1 0 0 1-1.39-.62q-7.2-15.69-14.73-31.26c-.31-.62-.05-1.13.72-1.36q2.56-.79 5.15-1.54a1.05 1.05.0 0 1 1.42.61q4.36 10 8.61 20.05l.26-.07q-.41-11.21-.56-22.43a1.15 1.15.0 0 1 1-1.17l3.36-.9a1.17 1.17.0 0 1 1.44.54q5.42 9.84 10.61 19.76l.27-.07Q397.09 153.91 396 143a1 1 0 0 1 .93-1.23z" fill="#fffdfa"/><path d="M429.34 172.07a.75.75.0 0 1-1-.67q-3.11-17-6.22-34c-.09-.51.13-.87.74-1q2.91-.52 5.82-1a.8.8.0 0 1 1 .67l5.69 34.13a.77.77.0 0 1-.69 1C432.93 171.43 431.13 171.74 429.34 172.07z" fill="#fffdfa"/><path d="M463.64 130.76c5.31-.5 8.34 1.88 8.71 6.73.08 1.13.18 2.27.27 3.4.0.52-.21.85-.82.9-1.85.15-3.71.31-5.56.48a.79.79.0 0 1-1-.74c-.07-.72-.13-1.44-.2-2.17-.13-1.34-.92-2-2.42-1.84l-3.06.31a2 2 0 0 0-2 2.3l.48 4.37c4.57.86 9.1 1.77 13.6 2.76a1.86 1.86.0 0 1 1.57 1.79c.26 3.24.51 6.48.77 9.71.37 4.86-2 7.63-6.94 8.09q-2.93.28-5.84.6c-4.84.53-7.82-1.69-8.44-6.52-.14-1.11-.28-2.23-.41-3.34-.08-.57.21-.86.75-.93l5.39-.64c.59-.06.88.17.95.73l.24 2.17a1.89 1.89.0 0 0 2.34 1.83l2.86-.29a1.87 1.87.0 0 0 1.92-2.27c-.16-1.74-.32-3.47-.49-5.21q-6.64-1.41-13.39-2.62a1.85 1.85.0 0 1-1.7-1.72l-1.11-8.89c-.62-4.82 1.92-7.77 7.17-8.35Q460.48 131.05 463.64 130.76z" fill="#fffdfa"/><path d="M506.46 129.37a.8.8.0 0 1 .89-.84h5.83c.68.0 1 .31 1 .83q-.12 17.31-.25 34.61c0 .51-.26.82-.9.82h-5.39a.77.77.0 0 1-.85-.82q0-6.89-.11-13.78c-2.31.0-4.61.05-6.92.11q.17 6.88.32 13.77a.77.77.0 0 1-.82.85c-1.8.05-3.6.1-5.4.17-.62.0-.9-.28-.92-.8q-.66-17.28-1.33-34.57c0-.52.24-.84.93-.87l5.82-.18a.8.8.0 0 1 .92.81q.16 7 .32 14 3.51-.08 7-.11Q506.51 136.36 506.46 129.37z" fill="#fffdfa"/><path d="M573.27 132.53c.85.11 1.17.68.75 1.3q-6.53 10-12.6 20.14l-1.35 12.47a.94.94.0 0 1-1.16.91c-1.67-.18-3.34-.34-5-.5a.94.94.0 0 1-.95-1.13l1.17-12.49q-3.93-11.16-8.31-22.25c-.29-.7.15-1.19 1-1.12q2.82.21 5.64.45a1.3 1.3.0 0 1 1.23.93q2.57 6.91 5 13.85 3.74-6.32 7.63-12.57a1.29 1.29.0 0 1 1.39-.68Q570.47 132.17 573.27 132.53z" fill="#fffdfa"/><path d="M590.44 142.61c.8-4.81 4-6.91 9.28-6 2.08.39 4.17.78 6.25 1.19 5.25 1.05 7.48 4.2 6.45 9q-2.25 10.44-4.49 20.87c-1 4.76-4.14 6.72-9 5.76l-5.79-1.11c-4.85-.89-7-3.86-6.23-8.66Q588.69 153.13 590.44 142.61zm8.64 24a1.89 1.89.0 0 0 2.51-1.62q1.83-9.19 3.67-18.39a1.94 1.94.0 0 0-1.8-2.47l-3.52-.67a1.93 1.93.0 0 0-2.57 1.63q-1.68 9.23-3.37 18.45a1.88 1.88.0 0 0 1.73 2.43C596.85 166.21 598 166.43 599.08 166.65z" fill="#fffdfa"/><path d="M654.25 150a1.08 1.08.0 0 1 .79 1.32l-8.16 26.54c-1.45 4.65-4.74 6.33-9.5 5q-2.85-.83-5.7-1.61c-4.78-1.31-6.7-4.46-5.49-9.18q3.46-13.46 6.92-26.89a1.1 1.1.0 0 1 1.37-.72c1.76.46 3.53.93 5.29 1.41a1.08 1.08.0 0 1 .82 1.3l-7 25.37a1.89 1.89.0 0 0 1.52 2.58l2.69.75a1.87 1.87.0 0 0 2.64-1.39l7.35-25.27a1.09 1.09.0 0 1 1.39-.67C650.9 148.94 652.58 149.45 654.25 150z" fill="#fffdfa"/><path d="M341.4 412.23h-22v-140q10.91 2.08 21.83 3.92.0 29.16.07 58.31 12.46 1.2 24.93 2.22l-.12-56.64q11.16 1.6 22.35 3l.33 129.19h-22.4l-.12-56.64q-12.48-.76-24.94-1.67Q341.36 383.08 341.4 412.23z" fill="#e03f3f"/><path d="M476 412.23H453.77q-1.92-11.19-3.85-22.42-13.5-.15-27-.37-1.87 11.37-3.74 22.79H399c7.35-42.67 14.7-84.5 22.07-125.74q16.13 1.45 32.27 2.4C460.89 330.44 468.44 371.47 476 412.23zm-50.29-39.76q10.6.3 21.21.51-5.37-31.39-10.75-63.19Q430.9 340.93 425.67 372.47z" fill="#e03f3f"/><path d="M551.46 320.21q0 7.94.0 15.89c0 19.56-10.85 30.42-32.88 30.45H508.14q0 22.83.0 45.68h-22q-.06-61-.13-121.94 16.28.43 32.54.37C540.66 290.51 551.49 300.58 551.46 320.21zM508.13 308q0 20.58.0 41.16h10.42c7 0 10.82-2.84 10.83-11.53q0-9.12.0-18.25c0-8.69-3.81-11.41-10.83-11.38Q513.35 308 508.13 308z" fill="#e03f3f"/><path d="M628 316q0 8.31.0 16.61c0 20.51-10.88 32.16-32.89 32.76l-10.41.28q0 23.3-.1 46.58h-22l.21-122.7q16.25-.75 32.49-2C617.27 285.67 628 295.44 628 316zm-43.21-10-.09 42 10.41-.39c7-.28 10.81-3.34 10.84-12.32q0-9.42.05-18.84c0-9-3.78-11.55-10.79-11.07Q590 305.67 584.76 306z" fill="#e03f3f"/><path d="M659.2 368.56c-9.19-28.93-18.37-57-27.55-84.55q11.49-1.32 23-2.88 8.31 28.74 16.63 58.43 8.43-31.12 16.82-63.54 10.43-1.77 20.84-3.76c-9.19 32.94-18.44 64.59-27.73 95.19q0 22.4-.07 44.78h-22z" fill="#e03f3f"/><path d="M510.55.0 521.17 21.51 544.91 24.96 527.73 41.71 531.79 65.35 510.55 54.19 489.32 65.35 493.37 41.71 476.19 24.96 499.93 21.51 510.55.0z" fill="#e03f3f"/><path d="M606.21 32.66 596.62 46.45 579.82 46.38 589.98 59.76 584.71 75.71 600.58 70.19 614.13 80.13 613.77 63.33 627.41 53.52 611.33 48.66 606.21 32.66z" fill="#e03f3f"/><path d="M414.89 32.66 424.48 46.45 441.29 46.38 431.13 59.76 436.39 75.71 420.52 70.19 406.98 80.13 407.33 63.33 393.69 53.52 409.78 48.66 414.89 32.66z" fill="#e03f3f"/><path d="M766.82 704.52c0 7.43 2.26 47 2.26 47s2.27-39.92 2.27-47c0-19.16-1-22.34-2.27-22.34S766.82 685.36 766.82 704.52z" fill="#e03f3f"/><path d="M781 730c-1.49 3.61-7.1 22.52-7.1 22.52s9.46-17.49 10.9-20.95c3.86-9.32 4.44-12.23 3.08-12.8S784.89 720.69 781 730z" fill="#e03f3f"/><path d="M801.73 748.48c-3.61 1.5-21 10.9-21 10.9s19.06-5.67 22.52-7.11c9.32-3.86 11.79-5.5 11.23-6.87S811.05 744.62 801.73 748.48z" fill="#e03f3f"/><path d="M803.3 776.18c-3.61-1.5-22.52-7.11-22.52-7.11s17.49 9.47 21 10.9c9.32 3.86 12.23 4.44 12.8 3.08S812.62 780 803.3 776.18z" fill="#e03f3f"/><path d="M784.83 796.88c-1.5-3.62-10.9-21-10.9-21S779.6 795 781 798.45c3.86 9.32 5.51 11.79 6.88 11.22S788.69 806.2 784.83 796.88z" fill="#e03f3f"/><path d="M757.13 798.45c1.5-3.61 7.11-22.52 7.11-22.52s-9.47 17.48-10.91 21c-3.86 9.32-4.43 12.23-3.07 12.79S753.27 807.77 757.13 798.45z" fill="#e03f3f"/><path d="M736.43 780c3.61-1.49 21-10.9 21-10.9s-19.06 5.68-22.52 7.11c-9.32 3.86-11.79 5.51-11.22 6.87S727.11 783.83 736.43 780z" fill="#e03f3f"/><path d="M734.86 752.27c3.61 1.5 22.52 7.11 22.52 7.11s-17.49-9.46-21-10.9c-9.32-3.86-12.23-4.44-12.79-3.08S725.54 748.41 734.86 752.27z" fill="#e03f3f"/><path d="M753.33 731.58c1.5 3.61 10.91 20.95 10.91 20.95s-5.68-19.06-7.11-22.52c-3.86-9.32-5.51-11.79-6.87-11.23S749.47 722.26 753.33 731.58z" fill="#e03f3f"/><path d="M809.7 720.41c-5.25 5.25-31.66 34.86-31.66 34.86s29.83-26.62 34.86-31.66c13.55-13.55 15.09-16.52 14.2-17.4S823.25 706.86 809.7 720.41z" fill="#e03f3f"/><path d="M828.79 762c-7.43.0-47 2.27-47 2.27s39.93 2.26 47 2.26c19.16.0 22.34-1 22.34-2.26S848 762 828.79 762z" fill="#e03f3f"/><path d="M812.9 804.85c-5.25-5.26-34.86-31.67-34.86-31.67S804.66 803 809.7 808.05c13.55 13.55 16.52 15.08 17.4 14.2S826.45 818.4 812.9 804.85z" fill="#e03f3f"/><path d="M728.46 808.05c5.26-5.26 31.67-34.87 31.67-34.87s-29.83 26.63-34.87 31.67c-13.55 13.55-15.08 16.51-14.2 17.4S714.91 821.6 728.46 808.05z" fill="#e03f3f"/><path d="M709.37 766.49c7.44.0 47-2.26 47-2.26s-39.92-2.27-47-2.27c-19.16.0-22.34 1-22.34 2.27S690.21 766.49 709.37 766.49z" fill="#e03f3f"/><path d="M771.35 823.94c0-7.44-2.27-47.05-2.27-47.05s-2.26 39.92-2.26 47.05c0 19.16 1 22.34 2.26 22.34S771.35 843.1 771.35 823.94z" fill="#e03f3f"/><path d="M725.26 723.61c5.26 5.25 34.87 31.66 34.87 31.66s-26.63-29.83-31.67-34.86c-13.55-13.55-16.51-15.09-17.4-14.2S711.71 710.06 725.26 723.61z" fill="#e03f3f"/><path d="M358.19 725l-1.63-9.49a2.41 2.41.0 0 0-1.37-1.77l-8.74-4a2.41 2.41.0 0 1-.11-4.32l8.52-4.48a2.38 2.38.0 0 0 1.27-1.85l1.14-9.56a2.41 2.41.0 0 1 4.08-1.44l6.89 6.72a2.4 2.4.0 0 0 2.15.63l9.45-1.87a2.41 2.41.0 0 1 2.63 3.43l-4.26 8.64a2.43 2.43.0 0 0 .05 2.24l4.7 8.4a2.41 2.41.0 0 1-2.45 3.56L371 718.44a2.43 2.43.0 0 0-2.12.75l-6.54 7.06A2.41 2.41.0 0 1 358.19 725z" fill="#e03f3f"/><path d="M311.38 886.88l-1.63-9.49a2.43 2.43.0 0 0-1.37-1.78l-8.74-4a2.41 2.41.0 0 1-.11-4.32l8.52-4.49a2.4 2.4.0 0 0 1.27-1.84l1.14-9.56a2.41 2.41.0 0 1 4.08-1.45l6.89 6.72a2.38 2.38.0 0 0 2.15.64l9.44-1.87a2.41 2.41.0 0 1 2.63 3.43l-4.25 8.63a2.4 2.4.0 0 0 .05 2.24l4.7 8.41a2.41 2.41.0 0 1-2.45 3.56l-9.53-1.38a2.39 2.39.0 0 0-2.11.74l-6.54 7.07A2.41 2.41.0 0 1 311.38 886.88z" fill="#e03f3f"/><path d="M709.72 886.88l1.63-9.49a2.43 2.43.0 0 1 1.37-1.78l8.74-4a2.41 2.41.0 0 0 .11-4.32l-8.52-4.49a2.4 2.4.0 0 1-1.27-1.84l-1.14-9.56a2.41 2.41.0 0 0-4.07-1.45l-6.9 6.72a2.38 2.38.0 0 1-2.15.64l-9.44-1.87a2.41 2.41.0 0 0-2.63 3.43l4.26 8.63a2.4 2.4.0 0 1-.06 2.24l-4.7 8.41a2.41 2.41.0 0 0 2.45 3.56l9.53-1.38A2.39 2.39.0 0 1 699 881l6.54 7.07A2.41 2.41.0 0 0 709.72 886.88z" fill="#e03f3f"/><path d="M117.13 754.09l-1.63-9.49a2.39 2.39.0 0 0-1.36-1.78l-8.74-4a2.41 2.41.0 0 1-.12-4.32l8.53-4.48a2.43 2.43.0 0 0 1.27-1.85l1.13-9.56a2.42 2.42.0 0 1 4.08-1.44l6.89 6.72a2.44 2.44.0 0 0 2.15.64l9.45-1.87a2.4 2.4.0 0 1 2.63 3.42l-4.26 8.64a2.4 2.4.0 0 0 .06 2.24l4.69 8.4a2.4 2.4.0 0 1-2.44 3.56l-9.53-1.38a2.43 2.43.0 0 0-2.12.75l-6.54 7.07A2.41 2.41.0 0 1 117.13 754.09z" fill="#e03f3f"/><path d="M254.29 704.52c0 7.43-2.27 47-2.27 47s-2.26-39.92-2.26-47c0-19.16 1-22.34 2.26-22.34S254.29 685.36 254.29 704.52z" fill="#e03f3f"/><path d="M240.07 730c1.49 3.61 7.11 22.52 7.11 22.52s-9.47-17.49-10.91-20.95c-3.86-9.32-4.44-12.23-3.07-12.8S236.21 720.69 240.07 730z" fill="#e03f3f"/><path d="M219.37 748.48c3.61 1.5 20.95 10.9 20.95 10.9s-19.06-5.67-22.52-7.11c-9.32-3.86-11.79-5.5-11.22-6.87S210.05 744.62 219.37 748.48z" fill="#e03f3f"/><path d="M217.8 776.18c3.61-1.5 22.52-7.11 22.52-7.11s-17.49 9.47-20.95 10.9c-9.32 3.86-12.23 4.44-12.79 3.08S208.48 780 217.8 776.18z" fill="#e03f3f"/><path d="M236.27 796.88c1.5-3.62 10.91-21 10.91-21s-5.68 19.06-7.11 22.52c-3.86 9.32-5.51 11.79-6.87 11.22S232.41 806.2 236.27 796.88z" fill="#e03f3f"/><path d="M264 798.45c-1.49-3.61-7.1-22.52-7.1-22.52s9.46 17.48 10.9 21c3.86 9.32 4.44 12.23 3.07 12.79S267.83 807.77 264 798.45z" fill="#e03f3f"/><path d="M284.67 780c-3.61-1.49-20.95-10.9-20.95-10.9s19.06 5.68 22.52 7.11c9.32 3.86 11.79 5.51 11.23 6.87S294 783.83 284.67 780z" fill="#e03f3f"/><path d="M286.24 752.27c-3.61 1.5-22.52 7.11-22.52 7.11s17.49-9.46 20.95-10.9c9.32-3.86 12.23-4.44 12.8-3.08S295.56 748.41 286.24 752.27z" fill="#e03f3f"/><path d="M267.77 731.58c-1.5 3.61-10.9 20.95-10.9 20.95s5.67-19.06 7.1-22.52c3.86-9.32 5.51-11.79 6.87-11.23S271.63 722.26 267.77 731.58z" fill="#e03f3f"/><path d="M211.4 720.41c5.26 5.25 31.67 34.86 31.67 34.86s-29.83-26.62-34.87-31.66c-13.55-13.55-15.08-16.52-14.2-17.4S197.85 706.86 211.4 720.41z" fill="#e03f3f"/><path d="M192.31 762c7.43.0 47.05 2.27 47.05 2.27s-39.92 2.26-47.05 2.26c-19.16.0-22.34-1-22.34-2.26S173.15 762 192.31 762z" fill="#e03f3f"/><path d="M208.2 804.85c5.26-5.26 34.87-31.67 34.87-31.67S216.44 803 211.4 808.05c-13.55 13.55-16.51 15.08-17.4 14.2S194.65 818.4 208.2 804.85z" fill="#e03f3f"/><path d="M249.76 823.94c0-7.44 2.26-47.05 2.26-47.05s2.27 39.92 2.27 47.05c0 19.16-1 22.34-2.27 22.34S249.76 843.1 249.76 823.94z" fill="#e03f3f"/><path d="M292.64 808.05c-5.26-5.26-31.66-34.87-31.66-34.87s29.83 26.63 34.86 31.67c13.55 13.55 15.08 16.51 14.2 17.4S306.19 821.6 292.64 808.05z" fill="#e03f3f"/><path d="M311.73 766.49c-7.43.0-47.05-2.26-47.05-2.26S304.61 762 311.73 762c19.16.0 22.34 1 22.34 2.27S330.89 766.49 311.73 766.49z" fill="#e03f3f"/><path d="M295.84 723.61c-5.25 5.25-34.86 31.66-34.86 31.66s26.62-29.83 31.66-34.86c13.55-13.55 16.52-15.09 17.4-14.2S309.39 710.06 295.84 723.61z" fill="#e03f3f"/><path d="M221.49 265.01H229.05 243.45 251.01V268.13H243.44h-6.75H229.06 221.49V265.01z" fill="#e03f3f"/><path d="M218.31 356.43c-17.17-8.4-27.73-23.46-27.73-40.7.0-17.06 10.16-31.53 27.22-39.73a53.5 53.5.0 0 0-17.34 39.7 54.16 54.16.0 0 0 8.63 29.73A57.79 57.79.0 0 0 218.31 356.43z" fill="#e03f3f"/><path d="M266.05 355.65a57.16 57.16.0 0 0 8.89-8 47.3 47.3.0 0 0 12.46-31.94 46 46 0 0 0-12.33-31.42 55.44 55.44.0 0 0-8.23-7.36c15.87 8.09 25.77 22.44 25.77 38.79C292.61 332.63 282.39 347.43 266.05 355.65z" fill="#e03f3f"/><path d="M229.89 260.21h12.72v3.12H229.89z" fill="#e03f3f"/><path d="M235.45 211.21h1.61v47.08H235.45z" fill="#e03f3f"/><path d="M241.87 359c6.09-12.57 9.29-27.46 9.29-43.43.0-15.78-3-30-9-42.24 15.56 9.59 24.4 24.84 24.4 42.36S257.4 349.25 241.87 359z" fill="#e03f3f"/><path d="M230.63 359c-15.53-9.76-24.69-25.69-24.69-43.31s8.84-32.77 24.4-42.36c-6 12.27-9 26.46-9 42.24C221.34 331.55 224.54 346.44 230.63 359z" fill="#e03f3f"/><path d="M254.19 356.43a57.42 57.42.0 0 0 9.22-11A54.16 54.16.0 0 0 272 315.7 53.5 53.5.0 0 0 254.7 276c17.05 8.2 27.22 22.67 27.22 39.73C281.92 333 271.36 348 254.19 356.43z" fill="#e03f3f"/><path d="M236.25 358c-6.18-12.09-9.43-26.67-9.43-42.41s3.17-29.83 9.43-41.78c6.26 11.95 9.43 26 9.43 41.78S242.43 345.89 236.25 358z" fill="#e03f3f"/><path d="M232.25 407.55V449.15H230.65V407.55H231.45 232.25z" fill="#e03f3f"/><path d="M235.45 368.65h1.61v23.33H235.45z" fill="#e03f3f"/><path d="M229.53 364.36v0H232.94v0 0H236.17v0H236.18 236.33v0H236.34 239.56v0H242.97v0H242.98 251.01V367.48H221.49V364.36H229.52 229.53z" fill="#e03f3f"/><path d="M236.17 393.16a5.74 5.74.0 0 1 5.94 5.52v8H230.23v-8A5.74 5.74.0 0 1 236.17 393.16z" fill="#e03f3f"/><path d="M206.45 355.65c-16.34-8.22-26.56-23-26.56-39.91.0-16.35 9.9-30.7 25.77-38.79a55.44 55.44.0 0 0-8.23 7.36 46.06 46.06.0 0 0-12.33 31.42 47.3 47.3.0 0 0 12.46 31.94A57.16 57.16.0 0 0 206.45 355.65z" fill="#e03f3f"/><path d="M241.85 407.55V449.15H240.25V407.55H241.05 241.85z" fill="#e03f3f"/><path d="M239.45 407.55V449.15H237.85V407.55H238.65 239.45z" fill="#e03f3f"/><path d="M234.65 407.55V449.15H233.05V407.55H233.85 234.65z" fill="#e03f3f"/><path d="M237.05 407.55V449.15H235.45V407.55H236.25 237.05z" fill="#e03f3f"/><path d="M799.61 265.01H792.05 777.65 770.09V268.13H777.66h6.75H792.04 799.61V265.01z" fill="#e03f3f"/><path d="M802.79 356.43C820 348 830.52 333 830.52 315.73c0-17.06-10.16-31.53-27.22-39.73a53.5 53.5.0 0 1 17.34 39.7A54.16 54.16.0 0 1 812 345.43 57.42 57.42.0 0 1 802.79 356.43z" fill="#e03f3f"/><path d="M755.05 355.65a57.16 57.16.0 0 1-8.89-8 47.3 47.3.0 0 1-12.46-31.94A46.06 46.06.0 0 1 746 284.31a55.44 55.44.0 0 1 8.23-7.36c-15.87 8.09-25.77 22.44-25.77 38.79C728.49 332.63 738.71 347.43 755.05 355.65z" fill="#e03f3f"/><path d="M778.49 260.21h12.72v3.12H778.49z" fill="#e03f3f"/><path d="M784.05 211.21h1.61v47.08H784.05z" fill="#e03f3f"/><path d="M779.23 359c-6.09-12.57-9.29-27.46-9.29-43.43.0-15.78 3-30 9-42.24-15.56 9.59-24.4 24.84-24.4 42.36S763.7 349.25 779.23 359z" fill="#e03f3f"/><path d="M790.47 359c15.54-9.76 24.69-25.69 24.69-43.31s-8.84-32.77-24.39-42.36c6 12.27 9 26.46 9 42.24C799.77 331.55 796.56 346.44 790.47 359z" fill="#e03f3f"/><path d="M766.91 356.43a58.16 58.16.0 0 1-9.22-11 54.24 54.24.0 0 1-8.63-29.73A53.51 53.51.0 0 1 766.41 276c-17.06 8.2-27.22 22.67-27.22 39.73C739.19 333 749.74 348 766.91 356.43z" fill="#e03f3f"/><path d="M784.85 358c6.18-12.09 9.43-26.67 9.43-42.41s-3.17-29.83-9.43-41.78c-6.26 11.95-9.43 26-9.43 41.78S778.67 345.89 784.85 358z" fill="#e03f3f"/><path d="M788.85 407.55V449.15H790.46V407.55H789.65 788.85z" fill="#e03f3f"/><path d="M784.05 368.65h1.61v23.33H784.05z" fill="#e03f3f"/><path d="M791.58 364.36H791.57 788.16v0 0H784.93v0 0H784.77v0 0H781.55 781.54 778.13v0H778.12 770.09V367.48H799.61V364.36H791.58v0z" fill="#e03f3f"/><path d="M784.93 393.16a5.74 5.74.0 0 0-5.94 5.52v8h11.89v-8A5.75 5.75.0 0 0 784.93 393.16z" fill="#e03f3f"/><path d="M814.66 355.65c16.33-8.22 26.55-23 26.55-39.91.0-16.35-9.9-30.7-25.77-38.79a55.44 55.44.0 0 1 8.23 7.36A46 46 0 0 1 836 315.73a47.3 47.3.0 0 1-12.46 31.94A57.54 57.54.0 0 1 814.66 355.65z" fill="#e03f3f"/><path d="M779.25 407.55V449.15H780.86V407.55H780.05 779.25z" fill="#e03f3f"/><path d="M781.65 407.55V449.15H783.26V407.55H782.45 781.65z" fill="#e03f3f"/><path d="M786.45 407.55V449.15H788.06V407.55H787.25 786.45z" fill="#e03f3f"/><path d="M784.05 407.55V449.15H785.66V407.55H784.85 784.05z" fill="#e03f3f"/><path d="M679.63 796.25l-46-46a3.77 3.77.0 0 0-5.34.0l-31.37 31.37a3.77 3.77.0 0 0 0 5.35l7 7a3.78 3.78.0 0 0 5.35.0l21.61-21.61a.13.13.0 0 1 .1.0.13.13.0 0 1 .09.0l26.5 26.5v.09a.13.13.0 0 1 0 .1L631 825.51a.12.12.0 0 1-.18.0l-60.64-60.64a3.8 3.8.0 0 0-2.68-1.11 3.76 3.76.0 0 0-2.67 1.11l-7 7a3.77 3.77.0 0 0 0 5.35l70.4 70.4a3.79 3.79.0 0 0 5.34.0l46-46a3.77 3.77.0 0 0 1.11-2.69A3.72 3.72.0 0 0 679.63 796.25z" fill="#e03f3f"/><path d="M525.86 872a3.75 3.75.0 0 0 5.33.0L587 816.23a3.8 3.8.0 0 0 0-5.35l-7-7a3.77 3.77.0 0 0-5.35.0l-23 23-9.75 9.75-23 23a3.78 3.78.0 0 0 0 5.34z" fill="#e03f3f"/><path d="M570.21 842.9a3.78 3.78.0 0 0-5.34.0l-7 7a3.8 3.8.0 0 0 0 5.35l21.62 21.62a.11.11.0 0 1 0 .18L553 903.55a.1.1.0 0 1-.09.0.09.09.0 0 1-.08.0l-60.65-60.64a3.77 3.77.0 0 0-5.34.0l-7 7a3.81 3.81.0 0 0 0 5.34L502 877.4 512.61 888l37.63 37.63a3.75 3.75.0 0 0 5.34.0l47.28-47.27 1.22-1.35h0l.12-.12z" fill="#e03f3f"/><path d="M501.93 881.92a3.79 3.79.0 0 0-5.34.0L475 903.55a.13.13.0 0 1-.1.0.11.11.0 0 1-.09.0L448.19 877l60.74-60.73a3.8 3.8.0 0 0 0-5.35l-7-7a3.77 3.77.0 0 0-5.34.0l-22.88 22.88-.12.13-9.76 9.75-37.64 37.64a3.78 3.78.0 0 0 0 5.34l46 46a3.78 3.78.0 0 0 5.35.0l31.37-31.37a3.79 3.79.0 0 0 0-5.35z" fill="#e03f3f"/><path d="M487.56 784.92l50.72 50.73 9.66-9.67a3.77 3.77.0 0 0 0-5.34l-23-23-24-24-8.74-8.74a3.77 3.77.0 0 0-5.35.0l-7 7a3.78 3.78.0 0 0 0 5.34z" fill="#e03f3f"/><path d="M430.89 810.88l-7-7a3.76 3.76.0 0 0-2.67-1.11 3.8 3.8.0 0 0-2.68 1.11l-21.62 21.62a.1.1.0 0 1-.09.0.11.11.0 0 1-.09.0L370.25 799a.15.15.0 0 1 0-.19l26.5-26.49a.13.13.0 0 1 .1.0.13.13.0 0 1 .09.0L457.58 833a3.74 3.74.0 0 0 2.66 1.1 3.79 3.79.0 0 0 2.68-1.1l7-7a3.8 3.8.0 0 0 0-5.34l-70.4-70.4a3.77 3.77.0 0 0-5.34.0l-46 46a3.78 3.78.0 0 0 0 5.36l46 46a3.79 3.79.0 0 0 5.34.0l31.39-31.39A3.81 3.81.0 0 0 430.89 810.88z" fill="#e03f3f"/><path d="M510 735.52a3.72 3.72.0 0 0-1.1-2.67l-7-7a3.77 3.77.0 0 0-5.34.0l-55.77 55.76a3.78 3.78.0 0 0 0 5.34l7 7a3.76 3.76.0 0 0 2.68 1.11 3.72 3.72.0 0 0 2.67-1.11l55.76-55.76A3.72 3.72.0 0 0 510 735.52z" fill="#e03f3f"/><path d="M457.57 754.93a3.78 3.78.0 0 0 5.35.0l7-7a3.75 3.75.0 0 0 0-5.34L448.29 721v-.09-.09l26.49-26.5a.13.13.0 0 1 .09.0.13.13.0 0 1 .1.0l60.63 60.63a3.76 3.76.0 0 0 2.68 1.11 3.69 3.69.0 0 0 2.67-1.11l7-7a3.75 3.75.0 0 0 0-5.34l-6.74-6.76-63.66-63.66a3.8 3.8.0 0 0-5.34.0l-46 46a3.77 3.77.0 0 0 0 5.35z" fill="#e03f3f"/><path d="M525.85 715.91a3.75 3.75.0 0 0 5.34.0l21.64-21.62h.08.09l26.5 26.5v.09.08l-52.71 52.72-7.92 7.92a3.76 3.76.0 0 0-1.11 2.68 3.7 3.7.0 0 0 1.11 2.67l7 7a3.75 3.75.0 0 0 5.34.0l7-7 63.37-63.36a3.78 3.78.0 0 0 0-5.34l-46-46a3.79 3.79.0 0 0-5.34.0l-31.37 31.38a3.78 3.78.0 0 0 0 5.35z" fill="#e03f3f"/></g></g></g></svg>