<svg xmlns="http://www.w3.org/2000/svg" width="1080" height="309.95" viewBox="0 0 1080 309.95"><g id="Слой_2" data-name="Слой 2"><g id="set08_535147732"><g id="set08_535147732-2" data-name="set08_535147732"><circle cx="294.36" cy="43.92" r="43.92" transform="translate(55.16 221.01) rotate(-45)" fill="#f3b456"/><circle cx="295.92" cy="46.73" r="27.72" transform="translate(53.63 222.93) rotate(-45)" fill="#a80000"/><circle cx="545.02" cy="43.92" r="43.92" transform="translate(377.05 564.27) rotate(-76.72)" fill="#f3b456"/><circle cx="543.47" cy="46.73" r="27.72" transform="translate(23.49 211.53) rotate(-22.5)" fill="#a80000"/><path d="M244.47 177.55c0 79.74 78.45 132.4 175.22 132.4s175.23-52.66 175.23-132.4S516.47 21.18 419.69 21.18 244.47 97.81 244.47 177.55z" fill="#f3b456"/><path d="M466.86 229.64a2.12 2.12.0 0 0-3-.5 2.1 2.1.0 0 0-.86 1.38c-1.55 9.14-10.31 12.95-17.35 13.44-12.25.83-19.91-7.32-24.17-14.31a2.12 2.12.0 0 0-3.64.0c-4.26 7-11.92 15.15-24.17 14.31-7-.49-15.8-4.3-17.35-13.44a2.1 2.1.0 0 0-.86-1.38 2.12 2.12.0 0 0-3 .5 2.09 2.09.0 0 0-.36 1.59c1.95 11.58 12.67 16.38 21.25 17 10.4.72 19.48-4 26.28-13.58 6.36 9 14.68 13.65 24.22 13.65.68.0 1.37.0 2.07-.07 8.58-.59 19.29-5.39 21.24-17A2.09 2.09.0 0 0 466.86 229.64z" fill="#a80000"/><circle cx="486.5" cy="187.62" r="6.87" fill="#a80000"/><circle cx="352.88" cy="187.62" r="6.87" fill="#a80000"/><path d="M367.65 221.49h0a19.54 19.54.0 0 0-6.63-2 23.57 23.57.0 0 0-6.94.19 24 24 0 0 0-6.58 2.18 19.56 19.56.0 0 0-5.58 4.09 1.11 1.11.0 0 0 .82 1.87 1.1 1.1.0 0 0 .57-.16 36.85 36.85.0 0 1 5.55-2.73 32.35 32.35.0 0 1 11.94-2.15 37.65 37.65.0 0 1 6.19.61 1 1 0 0 0 .66-1.95z" fill="#a80000"/><path d="M370.08 213.39a26.81 26.81.0 0 0-7.3-2.65 32.26 32.26.0 0 0-15.46.52 27.24 27.24.0 0 0-7.12 3.12 1.11 1.11.0 0 0-.46 1.29 1.07 1.07.0 0 0 .56.64 1 1 0 0 0 .49.12 1 1 0 0 0 .35-.06 57.59 57.59.0 0 1 6.95-1.85 46.66 46.66.0 0 1 14.15-.52 56 56 0 0 1 7.08 1.31 1 1 0 0 0 1.17-.51A1 1 0 0 0 370.08 213.39z" fill="#a80000"/><path d="M491.88 221.91a24 24 0 0 0-6.59-2.18 23.49 23.49.0 0 0-6.93-.19 19.54 19.54.0 0 0-6.63 2 1.05 1.05.0 0 0-.11 1.79 1.06 1.06.0 0 0 .78.16 37.53 37.53.0 0 1 6.18-.61 31.44 31.44.0 0 1 6.08.51 31.88 31.88.0 0 1 5.86 1.63 38.51 38.51.0 0 1 5.56 2.74 1 1 0 0 0 .57.16 1.14 1.14.0 0 0 .76-.3 1.12 1.12.0 0 0 0-1.58A19.73 19.73.0 0 0 491.88 221.91z" fill="#a80000"/><path d="M499.19 214.38a27.38 27.38.0 0 0-7.12-3.12 32.27 32.27.0 0 0-15.46-.52 26.57 26.57.0 0 0-7.3 2.65 1 1 0 0 0 .75 1.92 56.35 56.35.0 0 1 7.08-1.31 46.63 46.63.0 0 1 14.15.52 57.1 57.1.0 0 1 6.95 1.85 1.07 1.07.0 0 0 .35.06 1.11 1.11.0 0 0 .6-2.05z" fill="#a80000"/><path d="M494 153.41l-10.13-.36a2.48 2.48.0 0 0-.18 4.95l10.14.37h.09a2.48 2.48.0 0 0 .08-5z" fill="#a80000"/><path d="M355.55 153.05l-10.13.36a2.48 2.48.0 0 0 .09 5h.09l10.13-.37a2.48 2.48.0 1 0-.18-4.95z" fill="#a80000"/><path d="M318.31 230.71h0A82.18 82.18.0 0 1 306 232.27a65.2 65.2.0 0 1-11.87-.55A63.53 63.53.0 0 1 282.62 229a81 81 0 0 1-11.27-4.84v0a1.76 1.76.0 0 0-2.22 2.61 31.35 31.35.0 0 0 10.61 8.91 39.9 39.9.0 0 0 27.35 3.62 31 31 0 0 0 12.51-5.88 1.53 1.53.0 0 0-1.25-2.69z" fill="#a80000"/><path d="M281.08 207.74a39.36 39.36.0 0 0 15.62 3.91 33.89 33.89.0 0 0 15.49-2.88 1.53 1.53.0 0 0 .88-1.39 1.51 1.51.0 0 0-1.52-1.51h0a69 69 0 0 1-14-1.25 53.24 53.24.0 0 1-12.79-4.31 51.88 51.88.0 0 1-11.22-7.48 67.49 67.49.0 0 1-9.5-10.3v0a1.75 1.75.0 0 0-3.09 1.49 34.25 34.25.0 0 0 7.43 13.94A39.69 39.69.0 0 0 281.08 207.74z" fill="#a80000"/><path d="M279.66 174.11a41.19 41.19.0 0 0 14.6 8.38 38.17 38.17.0 0 0 16.34 1.79 1.51 1.51.0 0 0 .26-2.95h0a83.73 83.73.0 0 1-13.9-5.38 54.67 54.67.0 0 1-11.77-8 48.21 48.21.0 0 1-8.93-10.88 59.45 59.45.0 0 1-5.85-13.42v0A1.75 1.75.0 0 0 267 144a34.27 34.27.0 0 0 2.78 16.37A39.24 39.24.0 0 0 279.66 174.11z" fill="#a80000"/><path d="M568.07 224.14v0A81.66 81.66.0 0 1 556.76 229a63.53 63.53.0 0 1-11.55 2.72 65.2 65.2.0 0 1-11.87.55 82.18 82.18.0 0 1-12.24-1.56h0a1.5 1.5.0 0 0-1.47.53 1.53 1.53.0 0 0 .22 2.16 31.1 31.1.0 0 0 12.51 5.88 39.9 39.9.0 0 0 27.35-3.62 31.25 31.25.0 0 0 10.61-8.91 1.76 1.76.0 0 0-2.22-2.61z" fill="#a80000"/><path d="M577.88 182.17a1.76 1.76.0 0 0-2.46.33v0a67.49 67.49.0 0 1-9.5 10.3 51.82 51.82.0 0 1-11.21 7.48 53.31 53.31.0 0 1-12.8 4.31 68.92 68.92.0 0 1-14 1.25h0a1.52 1.52.0 0 0-.64 2.9 33.91 33.91.0 0 0 15.5 2.88 39.62 39.62.0 0 0 28.39-13.72A34.39 34.39.0 0 0 578.52 184 1.77 1.77.0 0 0 577.88 182.17z" fill="#a80000"/><path d="M528.78 184.28a38.17 38.17.0 0 0 16.34-1.79 41.23 41.23.0 0 0 14.61-8.38 39.34 39.34.0 0 0 9.91-13.76A34.27 34.27.0 0 0 572.42 144a1.75 1.75.0 0 0-3.42-.35v0a59.47 59.47.0 0 1-5.86 13.42A47.68 47.68.0 0 1 554.21 168a54.67 54.67.0 0 1-11.77 8 83.73 83.73.0 0 1-13.9 5.38h0a1.51 1.51.0 0 0 .26 2.95z" fill="#a80000"/><path d="M426 82.67q.25-5.22.26-10.44c0-4.32-.14-8.64-.42-13q13 .27 26 1.73c10.76 1.17 21.46 3 32.47 5.1a109.65 109.65.0 0 0-31.08-12.75 138.14 138.14.0 0 0-28.28-4l-.09-.82c-.52-3.95-1.13-7.89-2-11.83-.42-2-.86-3.94-1.4-5.92a60.75 60.75.0 0 0-1.83-5.91c-.73 2-1.31 3.94-1.83 5.91s-1 4-1.4 5.92c-.83 3.94-1.44 7.88-1.95 11.83.0.27-.07.55-.1.82a137.82 137.82.0 0 0-28.31 4 109.25 109.25.0 0 0-31.05 12.83c11-2.07 21.71-4 32.46-5.16q13-1.5 26-1.79c-.28 4.31-.41 8.63-.42 12.94q0 5.22.27 10.45a93 93 0 0 0-18.62 3.12A72 72 0 0 0 372 96.27c8.32-1 16.23-2.13 24.14-2.8q9-.81 18-1c.12 1.15.24 2.29.39 3.44q.74 5.91 1.95 11.82c.43 2 .87 4 1.41 5.92s1.1 3.94 1.84 5.91a60.84 60.84.0 0 0 1.84-5.91c.54-2 1-3.94 1.41-5.92q1.21-5.91 2-11.82c.14-1.15.27-2.3.39-3.46 6 .12 11.94.45 17.95 1 7.92.65 15.82 1.75 24.14 2.76a72.53 72.53.0 0 0-22.75-10.41A94.12 94.12.0 0 0 426 82.67z" fill="#a80000"/><path d="M459.14 197.86a3.64 3.64.0 0 1-.14.8c-.6 2.16-2.48 3.75-3.84 5.44a102.6 102.6.0 0 1-7.51 8.23 120.64 120.64.0 0 1-14.74 12.37c-3.84 2.74-8.24 5.38-13.19 5.32s-9.36-2.59-13.2-5.32a121.39 121.39.0 0 1-14.74-12.37c-2.3-2.28-4.52-4.65-6.6-7.14-1.56-1.86-4.25-4.44-5.21-6.65-2.56-5.89 11.18-4.46 13.43-4 10.7 2.37 21.07 5.28 32.13 4a110.07 110.07.0 0 0 14.71-3c4.74-1.21 10.09-2 15-.8C457.18 195.36 459.23 195.88 459.14 197.86z" fill="#a80000"/><path d="M220 246.79v55.83H0V290.89q0-34 9.21-53.31a94.07 94.07.0 0 1 24.57-32.1q15.35-12.84 48.57-31.27t50.52-34.61q17.3-16.18 17.31-35.73T139.85 73.16Q129.52 62 111.93 62T67.55 68.7l-8.37 39.64H14.52L7.81 29.62q58.62-17.3 109.71-17.31t77.6 23.17q26.5 23.18 26.52 62t-26 64.48q-26 25.68-68.11 44.94T83.74 246.79z" fill="#f3b456"/><path d="M90.73 42.18c-.21-1.44-.41-2.89-.59-4.34a.58.58.0 0 1 .51-.65.62.62.0 0 1 .44.12l.35.28a29.32 29.32.0 0 1 3.86 3.86 46 46 0 0 1 3 4.19c.43.72.82 1.45 1.23 2.19s.74 1.48 1.11 2.23a48.31 48.31.0 0 1 1.8 4.58 47.36 47.36.0 0 1 1.77 7.65q-5.77.42-12.36 1.41.08-4.23-.08-8.48l-.22-4.35-.37-4.35zm94.35 204.61H172.37a29.82 29.82.0 0 0-2.62 9.17 28.86 28.86.0 0 0 2.3 15.3 35.19 35.19.0 0 0 1.94 3.51 37.42 37.42.0 0 0 2.54 3.22 27.93 27.93.0 0 0 3.2 2.82 20.06 20.06.0 0 0 4 2.25l.5.2a.56.56.0 0 0 .34.0.56.56.0 0 0 .41-.67q-.39-1.56-.81-3.09l-.65-3.12-.51-3.13-.34-3.16a60.6 60.6.0 0 1 .21-12.63A59.41 59.41.0 0 1 185.08 246.79zM28.91 264.56c-1.26.21-2.53.43-3.79.67s-2.47.68-3.71 1-2.39.92-3.6 1.38-2.31 1.09-3.48 1.64a102.41 102.41.0 0 0-12.79 8.27l-1.2.89Q0 284.4.0 290.89v2.66c.94-.4 1.87-.81 2.77-1.27 1.18-.61 2.34-1.28 3.46-2 .54-.33 1.06-.69 1.59-1l1.55-1.09a56.57 56.57.0 0 0 10.06-9.53c.73-.83 1.46-1.77 2.18-2.73.36-.47.75-.91 1.12-1.41s.74-1 1.14-1.54.79-1 1.2-1.56l1.26-1.73c.88-1.11 1.81-2.33 2.8-3.84l.31-.47a.52.52.0 0 0 .09-.38A.54.54.0 0 0 28.91 264.56zm31.32 22.26c-.16-.65-.27-1.3-.46-2l-.56-2.05c-.36-1.37-.75-2.8-1.26-4.32a41.64 41.64.0 0 0-1.66-4.78l-.21-.48a.55.55.0 0 0-.3-.3.56.56.0 0 0-.73.31c-.52 1.28-1 2.57-1.52 3.86l-1.28 4-1 4-.76 4.1a70.94 70.94.0 0 0-.74 13.43H62.92a116.71 116.71.0 0 0-1.83-12C60.87 289.39 60.6 288.13 60.23 286.82zm86.1.2c-.14-1.32-.33-2.68-.62-4.09-.11-.69-.19-1.39-.33-2.11s-.27-1.45-.43-2.19c-.27-1.48-.56-3-1-4.62a40.31 40.31.0 0 0-1.35-5.08l-.16-.47a.56.56.0 0 0-.3-.34.57.57.0 0 0-.75.28c-.61 1.34-1.21 2.67-1.79 4l-1.53 4.13-1.25 4.23-1 4.29a80.11 80.11.0 0 0-1.49 17.55h13.23v-.38A144.41 144.41.0 0 0 146.33 287zm38.88-140.89a39.77 39.77.0 0 0-8.73-2.71c-.79-.16-1.61-.25-2.41-.36s-1.65-.15-2.48-.16-1.69.0-2.53.0-1.72.15-2.56.27-1.7.34-2.53.56-1.67.54-2.47.88a24.6 24.6.0 0 0-2.34 1.22 17.31 17.31.0 0 0-2.14 1.67l-.35.33a.58.58.0 0 0 .38 1 29 29 0 0 1 7.62 1.29 41.68 41.68.0 0 1 7.19 2.92 151 151 0 0 1 13.54 8.12c2.25 1.4 4.55 2.75 6.93 4 1.14-1.06 2.25-2.14 3.35-3.22 1.86-1.85 3.63-3.75 5.29-5.69a80.9 80.9.0 0 0-8.52-6.25A51.8 51.8.0 0 0 185.21 146.13zm-82.2 56c-.78-.25-1.61-.46-2.43-.67s-1.65-.41-2.53-.54-1.71-.33-2.58-.44-1.78-.19-2.67-.26-1.82-.07-2.73-.06h-1.37c-.46.0-.93.08-1.4.13a22.57 22.57.0 0 0-5.58 1.23l-.4.15a.62.62.0 0 0-.35.34.59.59.0 0 0 .34.77 73.83 73.83.0 0 1 8.28 3.82c2.69 1.4 5.3 3 7.89 4.63l7.78 4.95c.71.45 1.42.9 2.14 1.34q5.92-3.75 13.33-7.46l-1.07-.61A82.69 82.69.0 0 0 103 202.17zm-5.22 52.48a28.49 28.49.0 0 0-1.5 15.53 32.94 32.94.0 0 0 1.07 3.89 34.16 34.16.0 0 0 1.72 3.74 29.1 29.1.0 0 0 2.47 3.5A20 20 0 0 0 105 284.4l.44.31a.48.48.0 0 0 .33.1.55.55.0 0 0 .55-.56c0-1.07.0-2.13-.1-3.19l.08-3.18.22-3.16.41-3.15a57.13 57.13.0 0 1 3.25-12.19 57.81 57.81.0 0 1 5.72-11.25l.92-1.34H102.31A29.63 29.63.0 0 0 97.79 254.65zM167.14 88.18a49.85 49.85.0 0 0 5.23-5 .58.58.0 0 0 .14-.33.56.56.0 0 0-.52-.58h-.55c-.88.0-1.66.0-2.44.0s-1.51.0-2.21.09c-1.44.06-2.75.16-4 .25s-2.46.18-3.59.3c-.58.0-1.14.09-1.68.15s-1.09.09-1.6.17a89.72 89.72.0 0 0-9 1.39 48.26 48.26.0 0 1 3 12.78 47.94 47.94.0 0 0 17.28-9.15zM136 29.49l1.49-4.33a91.24 91.24.0 0 0 2.8-11.55q-6.17-.73-12.79-1.06c-.19 3.11-.3 6.27-.26 9.58.0 1.41.0 2.86.13 4.37.0.74.0 1.48.1 2.24s.11 1.54.19 2.33c.11 1.57.25 3.18.52 4.89a40.24 40.24.0 0 0 .9 5.34l.11.46a.61.61.0 0 0 .28.37.57.57.0 0 0 .78-.23c.73-1.33 1.44-2.68 2.14-4l1.93-4.14zM168.52 59.2c1.18-1 2.36-2 3.52-3L175.43 53l3.24-3.34 3.11-3.46a121.37 121.37.0 0 0 10-13.46 78.39 78.39.0 0 0-11.07-7.17 116 116 0 0 0-7.12 13.79c-.61 1.34-1.19 2.73-1.7 4.21-.28.72-.58 1.42-.84 2.17s-.52 1.51-.76 2.29c-.52 1.53-1 3.11-1.44 4.82a38.43 38.43.0 0 0-1.19 5.39l-.06.46a.54.54.0 0 0 .13.45A.56.56.0 0 0 168.52 59.2zm-127-28.73c.31.85.58 1.71.92 2.56s.68 1.7 1 2.56c.76 1.7 1.55 3.4 2.5 5.1a38.26 38.26.0 0 0 3.24 5.09l.25.33a.56.56.0 0 0 .46.23.59.59.0 0 0 .61-.58c.08-3.44.07-6.88.11-10.32v-10.32c0-2 0-4-.06-6Q44.85 20.22 39 21.53c.27 1.27.57 2.54.91 3.81C40.39 27.05 40.89 28.76 41.51 30.47zM127 174.4a75.26 75.26.0 0 0-16.69-17.19q-5.61 3.79-12 7.7l.18.12 1.56 1.08c4.23 2.89 8.56 5.64 13.4 8.39l1.84 1 1.91 1 2 1 2 1.05c1.4.69 2.82 1.42 4.37 2.12.75.36 1.56.71 2.37 1.07s1.66.72 2.6 1l.45.15a.52.52.0 0 0 .44.0.57.57.0 0 0 .26-.77A69.21 69.21.0 0 0 127 174.4zM55.35 232.73a32.35 32.35.0 0 0 4.76-1.31l.49-.18a.48.48.0 0 0 .3-.26.56.56.0 0 0-.23-.76c-2.29-1.2-4.62-2.3-7-3.4s-4.71-2.09-7.07-3.12c-4.72-2-9.47-4-14.07-6.14-2.56-1.15-5.07-2.4-7.53-3.72a91.33 91.33.0 0 0-7.63 9.58A42.21 42.21.0 0 0 27 229.57a44.44 44.44.0 0 0 15.58 4c1.34.09 2.7.14 4.1.1.69.0 1.37.0 2.08-.08s1.42-.11 2.14-.19C52.36 233.26 53.82 233.06 55.35 232.73zM220.17 80.12q-1.47.78-2.91 1.59a137 137 0 0 0-16.49 10.91c-1.35 1-2.69 2.1-4 3.27-.66.58-1.34 1.12-2 1.72s-1.32 1.21-2 1.84c-1.32 1.24-2.65 2.53-3.95 4A42.14 42.14.0 0 0 185 108l-.25.34a.61.61.0 0 0-.09.51.59.59.0 0 0 .73.41c1.67-.48 3.34-1 5-1.47l5-1.62 4.89-1.81 4.85-1.94a181 181 0 0 0 16.54-8A96.35 96.35.0 0 0 220.17 80.12z" fill="#a80000"/><path d="M828.22 246.79v55.83h-220V290.89q0-34 9.21-53.31A94.19 94.19.0 0 1 642 205.48q15.35-12.84 48.57-31.27t50.52-34.61q17.29-16.18 17.31-35.73T748.1 73.16Q737.77 62 720.19 62T675.8 68.7l-8.37 39.64H622.77l-6.7-78.72q58.62-17.3 109.7-17.31t77.6 23.17q26.5 23.18 26.52 62t-26 64.48q-26 25.68-68.11 44.94T692 246.79z" fill="#f3b456"/><path d="M659 235.53a.54.54.0 0 1-.35.34l-.45.15a47.2 47.2.0 0 1-5.48 1.5c-1.75.52-3.4.9-5 1.25l-2.36.62c-.78.2-1.53.33-2.28.5-1.51.45-3 .79-4.4 1.07-5.73 1.37-11 2.58-16.4 3.78l-8.36 1.88a73.36 73.36.0 0 1 3.54-9q1.47-3.08 3.11-6a69.41 69.41.0 0 1 18.69-1.31l5 .54 4.91.91 4.82 1.33q2.34.84 4.67 1.71A.58.58.0 0 1 659 235.53zm45.67-51.12c2.39.86 4.76 1.71 7.17 2.48a.56.56.0 0 0 .68-.76l-.21-.47a29.73 29.73.0 0 0-2.37-4.29c-.82-1.31-1.69-2.47-2.55-3.6s-1.73-2.16-2.6-3.12-1.72-1.92-2.58-2.78-1.85-1.84-2.75-2.69q-4.28 2.5-8.84 5L687.49 176a68.35 68.35.0 0 0 10.12 5.57C699.93 182.56 702.29 183.51 704.65 184.41zm68.89 80.78a49.42 49.42.0 0 0 1.14 4.81c.27.8.51 1.59.81 2.37s.61 1.56 1 2.33a43.05 43.05.0 0 0 2.49 4.5 27.83 27.83.0 0 0 3.44 4.21l.31.31a.64.64.0 0 0 .43.17.59.59.0 0 0 .57-.61q0-2.14-.12-4.29l.05-4.29.19-4.28.38-4.26a102.68 102.68.0 0 1 3.21-16.78c.23-.86.48-1.73.74-2.59H774.41A44.39 44.39.0 0 0 773.54 265.19zm-127.2-5.62-.05-.44a.61.61.0 0 0-.28-.44.59.59.0 0 0-.81.2c-.91 1.48-1.82 3-2.71 4.48L640.06 268l-2.14 4.79L636 277.72a99 99 0 0 0-4.69 20.47c-.15 1.47-.28 2.95-.38 4.43h13.17l.36-2.91c.71-6.08 1.3-12.14 1.68-18.61.14-1.6.24-3.24.24-5 0-.83.12-1.66.13-2.53s0-1.73.0-2.63c.06-1.75.1-3.55.0-5.47A47.75 47.75.0 0 0 646.34 259.57zm104 16.4-.47.17a21.55 21.55.0 0 0-4.32 2.17 31.61 31.61.0 0 0-3.51 2.9 37 37 0 0 0-2.85 3.39 36.45 36.45.0 0 0-2.23 3.76 31.14 31.14.0 0 0-3.1 14.26h13.19a57.11 57.11.0 0 1 .42-12.53l.58-3.42.82-3.37 1-3.33c.42-1.08.82-2.17 1.21-3.27a.62.62.0 0 0 0-.38A.58.58.0 0 0 750.38 276zm65.35 16.22c-.28-.61-.52-1.23-.83-1.86s-.62-1.27-1-1.91c-.64-1.29-1.31-2.6-2.14-4a36.05 36.05.0 0 0-2.69-4.27l-.3-.41a.53.53.0 0 0-.36-.22.56.56.0 0 0-.65.46c-.22 1.34-.42 2.69-.61 4l-.42 4.07-.17 4.09v4.09q.07 3.17.41 6.32h12.64c-.68-2.23-1.46-4.48-2.37-6.79C816.83 294.63 816.34 293.43 815.73 292.19zM681 274.31c-.93-1.47-1.89-2.94-3-4.38a35.37 35.37.0 0 0-3.75-4.25l-.31-.3a.56.56.0 0 0-.46-.16.59.59.0 0 0-.54.64c.28 3.13.64 6.26.94 9.38l.5 4.68.45 4.68c.55 6 1 12 1.06 18h13.22a57.23 57.23.0 0 0-3.66-19.17A56.63 56.63.0 0 0 681 274.31zm-15.11-61.67-.82-1.3-.87-1.27a55.46 55.46.0 0 0-3.88-4.78 54.14 54.14.0 0 0-8.35-7.36c-3.75 2.66-7.06 5.18-9.89 7.55-.34.28-.66.57-1 .85.81.66 1.63 1.27 2.49 1.86a34.2 34.2.0 0 0 4.18 2.45 42.1 42.1.0 0 0 4.85 2.05c.9.31 1.8.63 2.8.91.49.15 1 .3 1.51.44s1.07.27 1.61.42c1.12.27 2.28.55 3.55.81s2.6.54 4.22.71l.63.07a.52.52.0 0 0 .3-.06.51.51.0 0 0 .2-.7C666.88 214.4 666.41 213.49 665.84 212.64zm160.1-96.93a44.62 44.62.0 0 0-11.4-6.25c-1-.4-2.14-.69-3.2-1s-2.22-.51-3.32-.7c-.54-.11-1.13-.16-1.7-.22s-1.12-.13-1.69-.16-1.16.0-1.72.0-1.14.0-1.71.0-1.15.13-1.71.2-1.12.14-1.67.26a33.42 33.42.0 0 0-3.27.93 31.2 31.2.0 0 0-3 1.42 22.48 22.48.0 0 0-2.69 2l-.27.25a.63.63.0 0 0-.2.52.61.61.0 0 0 .68.54 27 27 0 0 1 10.43.86 36.33 36.33.0 0 1 9.59 4.28 65 65 0 0 1 14.83 13.09A87.63 87.63.0 0 0 828 117.36C827.33 116.8 826.65 116.24 825.94 115.71zm-63.86 16.91c-1.3-1.07-2.62-2-3.93-2.86-.66-.43-1.32-.82-2-1.24s-1.32-.74-2-1.12-1.41-.76-2.11-1.11a57.85 57.85.0 0 1-7 9.27l3.69.45c2.83.31 5.66.61 8.5.88s5.68.47 8.53.61a.57.57.0 0 0 .45-1l-.32-.35A31.75 31.75.0 0 0 762.08 132.62zM781.6 78.68c1.41-.89 2.82-1.8 4.21-2.71l4.32-2.51 4.41-2.33L799.06 69a105.65 105.65.0 0 1 18.88-6.29c1.63-.4 3.27-.75 4.92-1.06a72.51 72.51.0 0 0-6.78-12.07l-1.17.25a53.6 53.6.0 0 0-20.29 9.45c-1.48 1.19-2.92 2.41-4.29 3.72-.66.7-1.33 1.36-2 2.08s-1.26 1.43-1.87 2.17a52.83 52.83.0 0 0-3.24 4.83 32.75 32.75.0 0 0-2.44 5.52l-.12.37a.58.58.0 0 0 .06.51A.61.61.0 0 0 781.6 78.68zM717.44 216.49c-2.9-1.32-5.9-2.54-9.2-3.7a36.76 36.76.0 0 0-3.54-1.16c-.61-.2-1.19-.42-1.84-.61l-2-.55c-1.31-.39-2.68-.79-4.2-1.13a41.21 41.21.0 0 0-4.82-1.06l-.53-.08a.58.58.0 0 0-.4.09.55.55.0 0 0-.13.77c.76 1.09 1.53 2.18 2.32 3.25l2.55 3.09 2.78 2.9 2.95 2.72c1.46 1.26 3 2.45 4.57 3.57A95 95 0 0 1 717.44 216.49zm-9.67 31.45a39.33 39.33.0 0 0-1.63 18.2 43 43 0 0 0 1 4.57c.25.75.48 1.5.77 2.24s.57 1.48.89 2.21a37.45 37.45.0 0 0 2.41 4.26 25.47 25.47.0 0 0 3.35 3.94l.34.32a.59.59.0 0 0 .4.16.58.58.0 0 0 .58-.58c0-1.33.0-2.66.0-4l.13-4 .28-3.95.47-3.93a86 86 0 0 1 3.59-15.37c.57-1.78 1.2-3.53 1.9-5.27h-14C708.05 247.17 707.9 247.55 707.77 247.94zm63.13-79.31a37 37 0 0 0-3.9-2c-.7-.28-1.37-.58-2.08-.82s-1.42-.5-2.14-.71a35.7 35.7.0 0 0-4.56-.9 24.26 24.26.0 0 0-5 0h-.49a.59.59.0 0 0-.36.18.56.56.0 0 0 0 .81c.91.85 1.84 1.69 2.77 2.52l2.67 2.61 2.6 2.68 2.47 2.79a95.75 95.75.0 0 1 8.68 11.75q5.67-3.65 10.91-7.46A37.13 37.13.0 0 0 770.9 168.63zM726.61 12.32a40 40 0 0 0-2.67 10 47.73 47.73.0 0 0-.3 4.78c0 .82.0 1.61.11 2.43s.13 1.62.23 2.42a41.28 41.28.0 0 0 1.11 4.87 26.16 26.16.0 0 0 2.1 4.85l.23.4a.61.61.0 0 0 .35.27.58.58.0 0 0 .72-.41c.38-1.32.74-2.64 1.09-4l1.26-3.9 1.39-3.85 1.57-3.78a91 91 0 0 1 7.31-13.53Q734.14 12.34 726.61 12.32zM748.1 73.16a35.27 35.27.0 0 1 4.13 5.48c1.48-1.72 3-3.5 4.42-5.36 1-1.16 1.89-2.38 2.79-3.7.47-.63 1-1.24 1.42-1.91s.92-1.34 1.38-2c.94-1.36 1.88-2.77 2.79-4.33a43.13 43.13.0 0 0 2.75-4.92L768 56a.54.54.0 0 0 0-.48.58.58.0 0 0-.77-.29c-1.46.66-2.91 1.34-4.37 2l-4.26 2.25L754.43 62l-4 2.66c-2.18 1.52-4.3 3.14-6.35 4.82A34.63 34.63.0 0 1 748.1 73.16zM698.91 45.59l.18 4.33.13 4.33c.08 3.19.15 6.38.18 9.56q6.69-1 12.54-1.48a53.09 53.09.0 0 0-2-8.55 50.67 50.67.0 0 0-3.83-8.69 37.38 37.38.0 0 0-6.23-8.3l-.32-.32a.59.59.0 0 0-1 .45c.05 1.44.12 2.89.21 4.33zm-42.14-6.73a35.2 35.2.0 0 0 5.54 9l.3.33a.55.55.0 0 0 .42.2.6.6.0 0 0 .61-.57c.05-1.46.09-2.92.11-4.38l.19-4.38.24-4.38.34-4.36c.37-4.18.82-8.35 1.41-12.49-4.3.75-8.65 1.6-13 2.51a49.87 49.87.0 0 0 1 9.24A47.34 47.34.0 0 0 656.77 38.86z" fill="#a80000"/><path d="M1078.33 246.79v55.83h-220V290.89q0-34 9.21-53.31a94.19 94.19.0 0 1 24.57-32.1q15.35-12.84 48.57-31.27t50.52-34.61q17.31-16.18 17.31-35.73T998.21 73.16Q987.88 62 970.3 62t-44.39 6.7l-8.37 39.64H872.88l-6.7-78.72q58.62-17.3 109.7-17.31t77.6 23.17q26.51 23.18 26.52 62t-26 64.48q-26 25.68-68.11 44.94T942.1 246.79z" fill="#f3b456"/><path d="M1007.46 113.4a54.19 54.19.0 0 1 13.26 7.49l3.3 2.81 3.06 3.07 2.74 3.34c.81 1.19 1.62 2.38 2.4 3.58a.55.55.0 0 1-.16.77.53.53.0 0 1-.42.08l-.52-.12a46.57 46.57.0 0 1-4.92-1.41c-1.57-.4-3-.85-4.31-1.28l-2-.58c-.66-.18-1.27-.41-1.89-.61a36.07 36.07.0 0 1-3.66-1.09c-4.19-1.28-8-2.51-11.74-3.81A44.34 44.34.0 0 0 1007.46 113.4zm-5.23-36.8c2.46-4.7 4.83-9.4 7.26-14.57.64-1.26 1.27-2.57 1.83-4 .32-.68.67-1.33 1-2l.93-2.18c.66-1.43 1.34-2.93 2-4.58a46.51 46.51.0 0 0 2-5.15l.15-.46a.58.58.0 0 0-.85-.67q-2 1.24-4.06 2.53l-3.86 2.83L1005 51.46l-3.41 3.38a71.44 71.44.0 0 0-9.62 13 33.66 33.66.0 0 1 6.25 5.29 35.8 35.8.0 0 1 3.49 4.45C1001.87 77.27 1002.06 76.94 1002.23 76.6zm-45 95.27c.66.3 1.32.61 2 .89l4.22 1.93c.74.33 1.45.7 2.23 1s1.5.74 2.33 1.09 1.6.76 2.44 1.15 1.69.81 2.66 1.19l.42.17a.64.64.0 0 0 .47.0.6.6.0 0 0 .27-.79 50.75 50.75.0 0 0-5.26-8.35 57.94 57.94.0 0 0-6.77-7.24l-1-.87q-5.24 3.33-11 6.73l5 2.21C955.9 171.29 956.57 171.57 957.24 171.87zM937.42 286.66a36 36 0 0 0-.58-3.72c-.1-.63-.17-1.27-.3-1.93l-.4-2c-.24-1.36-.51-2.78-.9-4.3a40.53 40.53.0 0 0-1.21-4.83l-.16-.51a.56.56.0 0 0-1-.09c-.63 1.2-1.26 2.4-1.87 3.61l-1.61 3.74-1.32 3.86L927 284.4a65.1 65.1.0 0 0-1.66 16.23c0 .66.06 1.33.1 2h13.15c0-.78.0-1.56.0-2.35A116.34 116.34.0 0 0 937.42 286.66zm71.43.61c-.23-.66-.42-1.33-.68-2s-.52-1.36-.81-2.05c-.53-1.39-1.1-2.81-1.81-4.29a38.67 38.67.0 0 0-2.34-4.62l-.26-.43a.55.55.0 0 0-.35-.26.57.57.0 0 0-.68.42c-.33 1.38-.65 2.76-.95 4.15l-.73 4.19-.5 4.24-.31 4.25a90.51 90.51.0 0 0 .24 11.76h13.12a96.4 96.4.0 0 0-2.67-11.44C1009.76 289.9 1009.36 288.6 1008.85 287.27zM912 228.81q-3.86-3.19-8-6a93.56 93.56.0 0 0-17.79-9.24c-.62-.24-1.24-.46-1.86-.68a92.6 92.6.0 0 0-8.67 10.75l5.76 2.27c5.4 2.08 10.85 4.05 16.77 5.88l2.24.68 2.31.65 2.36.66q1.22.3 2.43.63c1.67.4 3.34.83 5.14 1.2.88.21 1.81.38 2.74.56s1.89.35 2.94.46h.44a.57.57.0 0 0 .46-.15.6.6.0 0 0 0-.84A87.45 87.45.0 0 0 912 228.81zm-8.26 30a44.14 44.14.0 0 0-8.82 5.24 54.22 54.22.0 0 0-7.5 7 69.53 69.53.0 0 0-10.9 17.33 89.12 89.12.0 0 0-4.81 14.19h12.88c1.4-3 2.72-5.93 4-8.83l6.94-15.74.91-2c.29-.7.63-1.35.92-2.08.65-1.38 1.3-2.81 2-4.27.34-.75.73-1.46 1.09-2.24s.8-1.5 1.18-2.33.85-1.59 1.28-2.44.92-1.67 1.37-2.64l.19-.41a.61.61.0 0 0 0-.48A.59.59.0 0 0 903.71 258.83zM945.28 64.52c-.54-1.59-1.1-3.18-1.7-4.82-.44-1.32-.93-2.66-1.54-4-.26-.68-.48-1.38-.77-2.08l-.9-2.15c-.57-1.45-1.17-2.94-1.92-4.52A45.11 45.11.0 0 0 936.14 42l-.24-.42a.53.53.0 0 0-.37-.28.57.57.0 0 0-.69.43c-.34 1.51-.66 3-1 4.55l-.66 4.62-.3 4.66v4.68c.07 2.24.26 4.47.55 6.69Q939.63 65.52 945.28 64.52zM976.1 211.67a36.94 36.94.0 0 0-4-2.79 36 36 0 0 0-17.21-5.18 41.53 41.53.0 0 0-4.6.19c-.78.12-1.54.21-2.31.37s-1.52.31-2.28.5a35.17 35.17.0 0 0-4.49 1.67 24.79 24.79.0 0 0-4.3 2.7l-.37.3a.59.59.0 0 0-.2.36.57.57.0 0 0 .48.66c1.26.21 2.51.4 3.77.57l3.73.77 3.68.94 3.62 1.14a72.53 72.53.0 0 1 11.81 5.26A138.09 138.09.0 0 1 976.1 211.67zM962.34 258a42.61 42.61.0 0 0 .49 4.65c.16.78.29 1.55.49 2.32s.39 1.54.61 2.3a39.29 39.29.0 0 0 1.85 4.54 25.83 25.83.0 0 0 2.8 4.38l.29.36a.6.6.0 0 0 .38.21.58.58.0 0 0 .65-.5c.18-1.33.34-2.66.49-4l.64-4 .76-3.92.94-3.89a98.2 98.2.0 0 1 4.64-13.67H963.56A39.42 39.42.0 0 0 962.34 258zm80.22 18c-.17-1.06-.36-2.11-.52-3.17s-.29-2.13-.42-3.19c-.5-4.26-.87-8.54-1-12.82-.15-3.32-.13-6.64.0-10h-11.85a33 33 0 0 0-1.34 10.4 32 32 0 0 0 3.62 13.9 29.71 29.71.0 0 0 2 3.25 34.36 34.36.0 0 0 2.51 3.07 23.8 23.8.0 0 0 7 5.22l.49.23a.49.49.0 0 0 .34.0.56.56.0 0 0 .44-.65c-.21-1.05-.44-2.1-.67-3.15S1042.73 277 1042.56 275.93zM885.11 47c.32 1 .6 1.94.95 2.89s.69 1.9 1.06 2.83A58.28 58.28.0 0 0 890 58.13 34 34 0 0 0 894 63.05l.25.26a.59.59.0 0 0 .51.17.62.62.0 0 0 .54-.68c-.2-1.75-.42-3.49-.64-5.23l-.33-5.26v-5.25l.29-5.24a89.12 89.12.0 0 1 4.11-20.53v-.05q-7.17 1.59-14.46 3.43a52.22 52.22.0 0 0-.34 16.41C884.21 43.08 884.6 45.05 885.11 47zm144.13 135.46q5.55-3.9 10.64-8c-.64-.72-1.31-1.42-2-2.09a41 41 0 0 0-16.07-9.66 43.3 43.3.0 0 0-4.66-1.12c-.81-.11-1.6-.24-2.41-.31s-1.62-.15-2.43-.19a41.72 41.72.0 0 0-5 .27 26 26 0 0 0-5.13 1.27l-.43.15a.66.66.0 0 0-.32.3.58.58.0 0 0 .28.78c1.23.59 2.47 1.17 3.71 1.73l3.63 1.9 3.54 2 3.44 2.2a87.6 87.6.0 0 1 12.67 10.2zm37.15-84.05c-1.82-.11-3.64-.16-5.46-.09-.92.08-1.83.13-2.74.25s-1.82.24-2.72.39a47.12 47.12.0 0 0-5.38 1.51 29.62 29.62.0 0 0-5.19 2.6l-.33.22a.59.59.0 0 0-.27.41.6.6.0 0 0 .5.69c1.56.24 3.11.46 4.66.67l4.59.93 4.54 1.15 4.46 1.42a85.84 85.84.0 0 1 15.39 7.1 100.57 100.57.0 0 0 1.47-13.91A45.6 45.6.0 0 0 1066.39 98.41zM958.24 31.29c.33.86.63 1.72 1 2.56s.73 1.68 1.12 2.49a43.22 43.22.0 0 0 3 4.66 27.09 27.09.0 0 0 4.06 4l.32.25a.59.59.0 0 0 .47.12.6.6.0 0 0 .49-.7c-.24-1.5-.5-3-.77-4.48l-.44-4.51-.14-4.52.21-4.52a66.16 66.16.0 0 1 2.77-14.29q-6.68.12-13.47.53a40.43 40.43.0 0 0 0 13.08A52.13 52.13.0 0 0 958.24 31.29zm80.41 38.57c1.1-.71 2.18-1.42 3.26-2.14l3.38-1.93 3.47-1.72 3.58-1.49a62 62 0 0 1 15-3.71c1.38-.19 2.76-.32 4.14-.4a72.24 72.24.0 0 0-7.89-12.4 35.52 35.52.0 0 0-15.23 6.6 41.41 41.41.0 0 0-3.56 3.18c-.54.61-1.08 1.18-1.59 1.82s-1 1.25-1.47 1.9a36.79 36.79.0 0 0-2.39 4.3 23 23 0 0 0-1.49 4.94l-.08.46a.55.55.0 0 0 .08.41A.6.6.0 0 0 1038.65 69.86z" fill="#a80000"/></g></g></g></svg>