<svg xmlns="http://www.w3.org/2000/svg" width="1000.93" height="894.53" viewBox="0 0 1000.93 894.53"><g id="Слой_2" data-name="Слой 2"><g id="set02_535147732"><g id="set02_535147732-2" data-name="set02_535147732"><path d="M920.62 454.18l-84.45-83.09c34.68-42.28 63.22-111.19 40.47-165.19-30.68-72.8-115.41-54.46-176.54-44-21.72 3.72-43.65 7.44-65.67 6.34C589 165.93 528.08 133 550 78.55c6.21-15.46 19.76-28 35.92-32.06 21.31-5.32 40.19 3.64 61.1 5.09a188.89 188.89.0 0 0 21 .3 164.63 164.63.0 0 0 31.69-4.3q5.19-1.21 10.26-2.83A213.91 213.91.0 0 1 737.34 38a257.57 257.57.0 0 1 58.54-3.81A239.78 239.78.0 0 1 827 37.8c33.33 6.13 64.3 19.33 90.66 39.12a201 201 0 0 1 24.07 21.26c21.86 22.65 39 51 49.43 84.69C1019.36 273.51 983.7 386 920.62 454.18z" fill="#f3b456"/><path d="M941.72 98.18c-.89 1.69-1.83 3.34-2.8 5a126.79 126.79.0 0 1-21.67 26.67l-6.53 5.61-6.89 5.13-7.28 4.52c-2.53 1.35-5.07 2.66-7.6 3.93a1.31 1.31.0 0 1-1.75-.57 1.41 1.41.0 0 1-.1-.88l.32-1.39a107.8 107.8.0 0 1 3.11-10.64c1-3.32 2-6.27 3-9.07s1.84-5.61 2.85-8a78 78 0 0 1 2.81-7.3A165.58 165.58.0 0 1 911.34 86.5c2-3.23 4-6.4 6.31-9.58A201 201 0 0 1 941.72 98.18z" fill="#a80000"/><path d="M827.18 48.09a128.17 128.17.0 0 1-5.77 34l-2.95 8.11L815 98.11l-4.14 7.54c-1.54 2.42-3.12 4.82-4.7 7.18a1.3 1.3.0 0 1-2.33-.35l-.4-1.38a107.16 107.16.0 0 1-2.5-10.81c-.81-3.38-1.35-6.46-1.85-9.39s-1.16-5.8-1.47-8.44c-.52-2.72-.9-5.3-1.14-7.76A167.33 167.33.0 0 1 795 47.18c.15-4.29.44-8.57.92-13A239.78 239.78.0 0 1 827 37.8Q827.27 42.94 827.18 48.09z" fill="#a80000"/><path d="M706.06 87.25l-.35 8.62-.91 8.57-1.63 8.44q-1.08 4.17-2.27 8.27a1.29 1.29.0 0 1-1.6.9 1.33 1.33.0 0 1-.71-.51l-.81-1.18a104.73 104.73.0 0 1-5.71-9.52c-1.81-3-3.27-5.74-4.65-8.39s-2.85-5.21-3.95-7.64a72.48 72.48.0 0 1-3.43-7.1 161.44 161.44.0 0 1-9.64-26c-.88-3.23-1.66-6.48-2.35-9.81a164.63 164.63.0 0 0 31.69-4.3q.93 2.74 1.72 5.52A130.66 130.66.0 0 1 706.06 87.25z" fill="#a80000"/><path d="M924.62 715.32c-12.93 35.16-26.18 70.5-44.55 103.26-14.49 25.83-35.46 59.07-64.77 69.23-16.87 5.84-35 6.24-52.89 6.57-25.07.49-51.8.53-72.95-13-16.72-10.66-27.47-28.26-40.34-43.35-32-37.52-78.76-59.19-127.37-64.13-83.6-8.5-163.2 23.11-216.94 86.66-23 27.25-46 32-81 32.63-30.34.57-63.28 1.17-90.6-13.92-27-14.9-43.08-53-57.21-79.52C41.82 735.65 14.42 661 5.66 585.65c-6.21-53.3-3.09-106.93 13.52-157.47 15.42-46.88 43-83.9 80.09-115.74 118.33-101.52 273.31-133.63 425.17-135q13-.1 26 .2c14 .34 27.94 1.07 41.86 2.26a556.39 556.39.0 0 1 99 17.06c1.6.43 3.21.87 4.8 1.33q16.39 4.64 32.41 10.53 18.18 6.69 35.69 15A395.19 395.19.0 0 1 810 249.32a370.45 370.45.0 0 1 30.71 22.24c50.46 40.7 89 94.46 105.49 159C969.93 523.69 957.5 626 924.62 715.32z" fill="#f3b456"/><path d="M823.06 701.87a169 169 0 0 1-40.28 15.66 207.67 207.67.0 0 1-43 6.19 205.27 205.27.0 0 1-43.32-2.84 166.38 166.38.0 0 1-41.32-12.57 3.21 3.21.0 0 1 1.7-6.09h0c14 1.55 27.65 3 41.33 3.7s27.28.82 40.87.24 27.14-1.87 40.67-3.81 27-4.54 40.75-7.34h0a3.7 3.7.0 0 1 2.54 6.86z" fill="#a80000"/><path d="M819.85 764a120.6 120.6.0 0 1-34.93 16.71 147.82 147.82.0 0 1-38.53 6.18 146.19 146.19.0 0 1-38.79-4A119.31 119.31.0 0 1 671.87 768a3.22 3.22.0 0 1 2.38-5.87h0a361.78 361.78.0 0 0 36 5.86 260.69 260.69.0 0 0 35.63 1.32 253.76 253.76.0 0 0 35.45-3.66 349.49 349.49.0 0 0 35.36-8.25h0a3.71 3.71.0 0 1 3.15 6.6z" fill="#a80000"/><path d="M264.83 762a101.41 101.41.0 0 1-31.43 16.26 125.09 125.09.0 0 1-35.2 5.88 123.54 123.54.0 0 1-35.42-4.24A1e2 1e2.0 0 1 130.71 765a3.23 3.23.0 0 1 2.6-5.77h0a303.63 303.63.0 0 0 32.37 5.84 220.37 220.37.0 0 0 32 1.45 214.09 214.09.0 0 0 31.86-3.31 297 297 0 0 0 31.84-7.75h0a3.72 3.72.0 0 1 3.35 6.5z" fill="#a80000"/><path d="M271.34 706.82a123.09 123.09.0 0 1-37.29 17.3 153.17 153.17.0 0 1-82 .11A122.06 122.06.0 0 1 114.75 707a3.21 3.21.0 0 1 2.7-5.72h0a311.47 311.47.0 0 0 37.72 8.22A248.24 248.24.0 0 0 193 712.19a242.48 242.48.0 0 0 37.7-3.17 296.31 296.31.0 0 0 37.47-8.78h0a3.71 3.71.0 0 1 3.18 6.59z" fill="#a80000"/><path d="M166.16 890.17a28.5 28.5.0 0 1-5.52-3.63c-.31-.88-.59-1.77-.93-2.64l-.88-2.65a95.54 95.54.0 0 1-4.22-21.9q-.2-2.79-.24-5.58a31.55 31.55.0 0 1 3.76-5.42c1.39 1.86 2.44 3.62 3.57 5.32.0 1.72.1 3.44.21 5.15a88.4 88.4.0 0 0 3.9 20.21c.54 1.63 1.06 3.28 1.74 4.86C167.15 885.88 166.82 887.91 166.16 890.17z" fill="#a80000"/><path d="M201.55 892.29a28.33 28.33.0 0 1-4.62-4.35c-.12-.86-.22-1.73-.38-2.58l-.35-2.59q-.66-5.19-.87-10.43t.06-10.46c.1-1.74.22-3.48.38-5.21A33 33 0 0 1 2e2 852c1.23 1.87 2.11 3.64 3.06 5.37-.14 1.63-.26 3.26-.35 4.9q-.24 4.9-.05 9.81c.12 3.27.39 6.54.8 9.78.23 1.62.42 3.25.76 4.85A53.77 53.77.0 0 1 201.55 892.29z" fill="#a80000"/><path d="M241.19 890.57a29.77 29.77.0 0 1-4-4.75c0-1.69-.08-3.37-.09-5.05.0-3.36.06-6.72.26-10.08s.51-6.7.93-10c.21-1.66.45-3.33.71-5a34.34 34.34.0 0 1 4.47-4.26 59.17 59.17.0 0 1 2.76 5.42c-.24 1.58-.47 3.16-.67 4.75-.4 3.17-.7 6.36-.89 9.55s-.26 6.4-.24 9.6c0 1.59.0 3.2.15 4.79A46.38 46.38.0 0 1 241.19 890.57z" fill="#a80000"/><path d="M722.08 891.41a28.08 28.08.0 0 1-5.52-3.64c-.31-.87-.59-1.76-.93-2.63l-.88-2.65a94.13 94.13.0 0 1-4.22-21.9c-.13-1.86-.21-3.72-.24-5.59a31.87 31.87.0 0 1 3.76-5.41c1.39 1.86 2.44 3.62 3.56 5.32.0 1.72.11 3.44.22 5.15a85.87 85.87.0 0 0 1.36 10.22 88.58 88.58.0 0 0 2.54 10c.54 1.63 1.06 3.27 1.74 4.86C723.07 887.12 722.74 889.15 722.08 891.41z" fill="#a80000"/><path d="M757.47 893.53a28.76 28.76.0 0 1-4.62-4.35c-.13-.86-.22-1.73-.38-2.59l-.36-2.59c-.44-3.46-.72-6.93-.86-10.42s-.11-7 .06-10.46c.09-1.74.22-3.48.38-5.22a34.08 34.08.0 0 1 4.23-4.69c1.23 1.88 2.11 3.65 3.06 5.38-.15 1.63-.26 3.26-.35 4.9-.16 3.26-.18 6.54-.06 9.81s.4 6.53.81 9.78c.23 1.62.42 3.25.76 4.85A54.75 54.75.0 0 1 757.47 893.53z" fill="#a80000"/><path d="M797.11 891.81a28.89 28.89.0 0 1-4-4.76c0-1.68-.09-3.36-.09-5 0-3.36.06-6.72.26-10.08s.51-6.7.93-10c.21-1.67.45-3.33.71-5a35.07 35.07.0 0 1 4.47-4.27 59.29 59.29.0 0 1 2.76 5.43c-.25 1.58-.47 3.16-.68 4.75-.4 3.17-.69 6.36-.88 9.55s-.27 6.39-.24 9.59c0 1.6.0 3.2.15 4.8A48.91 48.91.0 0 1 797.11 891.81z" fill="#a80000"/><path d="M840.66 271.56a342.94 342.94.0 0 1-8.57 45.2c-11.75 45.2-32.6 87.34-60.91 122.65A319.11 319.11.0 0 0 810 249.32 370.45 370.45.0 0 1 840.66 271.56z" fill="#a80000"/><path d="M724 283.49C715.9 330 698.06 374 671.92 411.5a309.31 309.31.0 0 0 30.2-130.09A304.52 304.52.0 0 0 691.32 197c1.6.43 3.21.87 4.8 1.33q16.39 4.64 32.41 10.53A334.27 334.27.0 0 1 724 283.49z" fill="#a80000"/><path d="M588.86 391.23a318.55 318.55.0 0 0-3.53-125.31 311.3 311.3.0 0 0-34.91-88.29c14 .34 27.94 1.07 41.86 2.26a342.43 342.43.0 0 1 14.82 83A329.46 329.46.0 0 1 588.86 391.23z" fill="#a80000"/><path d="M624.19 267.15a257.94 257.94.0 0 0-45.14-94.49 4.22 4.22.0 0 0-7 4.76v0c17.72 28.79 30.88 60.23 36.74 92.94a212.17 212.17.0 0 1 3.32 49.29A194.86 194.86.0 0 1 604 367.86l-1.8 5.83c-.66 1.92-1.44 3.81-2.15 5.71l-2.17 5.69-2.53 5.55c-.85 1.84-1.63 3.72-2.52 5.54l-2.83 5.4c-1 1.78-1.82 3.63-2.88 5.36l-3.16 5.22a206.17 206.17.0 0 1-30.31 38.16c-23 23.21-51.13 41.4-81.3 54.89-30.15 13.68-62.46 22.83-95.44 28A442.32 442.32.0 0 1 327 538.34c-8.38.26-16.75.53-25.13.41h-6.29c-2.1.0-4.19-.14-6.28-.2-4.19-.19-8.39-.25-12.57-.54a450.15 450.15.0 0 1-49.91-5.9L220.62 531c-2.06-.37-4.13-.73-6.16-1.22l-12.28-2.71L190 523.86c-4.06-1.06-8-2.43-12.06-3.58-32-9.95-62.75-24.32-90.34-43.72v0a4.88 4.88.0 0 0-6 7.73c26.74 22.66 58.15 39.47 91 51.69l6.19 2.22c2.08.72 4.13 1.5 6.24 2.11l12.57 3.89 12.72 3.39c2.11.6 4.25 1.08 6.39 1.55l6.42 1.45c2.15.47 4.28 1 6.44 1.41l6.47 1.19c4.31.77 8.63 1.61 13 2.16s8.68 1.29 13 1.79l13.09 1.37a470.84 470.84.0 0 0 52.59 1.7 467.58 467.58.0 0 0 52.53-4.48 381.28 381.28.0 0 0 51.73-11 371.21 371.21.0 0 0 49.91-18.12 312.78 312.78.0 0 0 46.58-26 263 263 0 0 0 41.18-34.41 228.84 228.84.0 0 0 32.62-42.94l3.37-5.87c1.13-2 2-4 3.09-6l3-6.07c.94-2 1.78-4.15 2.66-6.23l2.59-6.26 2.2-6.4c.72-2.14 1.5-4.26 2.15-6.42l1.79-6.52a206.15 206.15.0 0 0 7.1-53.27A227.14 227.14.0 0 0 624.19 267.15z" fill="#a80000"/><circle cx="88.47" cy="77.88" r="77.88" fill="#f3b456"/><circle cx="91.23" cy="82.85" r="49.16" transform="translate(-7.07 8.53) rotate(-5.15)" fill="#a80000"/><circle cx="532.91" cy="77.88" r="77.88" fill="#f3b456"/><circle cx="530.15" cy="82.85" r="49.16" transform="translate(96.69 399.14) rotate(-45)" fill="#a80000"/><path d="M0 314.81C0 456.2 139.1 549.57 310.69 549.57S621.38 456.2 621.38 314.81 482.28 37.56 310.69 37.56.0 173.42.0 314.81z" fill="#f3b456"/><path d="M394.32 407.17a3.7 3.7.0 0 0-2.44-1.53 3.76 3.76.0 0 0-4.35 3.09c-2.74 16.2-18.28 23-30.76 23.82-21.71 1.5-35.3-13-42.86-25.37a3.77 3.77.0 0 0-6.44.0c-7.56 12.4-21.16 26.85-42.87 25.37-12.47-.86-28-7.62-30.75-23.82a3.77 3.77.0 1 0-7.44 1.25c3.46 20.54 22.46 29 37.67 30.1 1.24.09 2.46.13 3.66.13 16.89.0 31.7-8.36 42.95-24.2 12.09 17 28.15 25.37 46.6 24.07C372.51 439 391.5 430.52 395 410A3.72 3.72.0 0 0 394.32 407.17z" fill="#a80000"/><path d="M417 332.67a12.18 12.18.0 1 0 12.18-12.18A12.19 12.19.0 0 0 417 332.67z" fill="#a80000"/><path d="M180.05 332.67a12.18 12.18.0 1 0 12.17-12.18A12.18 12.18.0 0 0 180.05 332.67z" fill="#a80000"/><path d="M218.41 392.72h0a34.67 34.67.0 0 0-11.75-3.46 42.21 42.21.0 0 0-12.3.34 42.82 42.82.0 0 0-11.67 3.86 35.17 35.17.0 0 0-9.89 7.25 2 2 0 0 0 1.44 3.32 2 2 0 0 0 1-.28 65.37 65.37.0 0 1 9.86-4.85 56 56 0 0 1 10.4-2.91 55 55 0 0 1 10.76-.9 67.29 67.29.0 0 1 11 1.09 1.85 1.85.0 0 0 1.17-3.46z" fill="#a80000"/><path d="M222.72 378.36a47.45 47.45.0 0 0-12.94-4.7 57.14 57.14.0 0 0-27.42.92 48.21 48.21.0 0 0-12.62 5.53 2 2 0 0 0-.81 2.29 1.94 1.94.0 0 0 1 1.14 2 2 0 0 0 1.51.11 99.51 99.51.0 0 1 12.32-3.28 78.82 78.82.0 0 1 12.51-1.43 81.9 81.9.0 0 1 12.56.49 101.7 101.7.0 0 1 12.57 2.34 1.85 1.85.0 0 0 2.07-.91 1.85 1.85.0 0 0-.73-2.5z" fill="#a80000"/><path d="M438.69 393.46A42.73 42.73.0 0 0 427 389.6a41.72 41.72.0 0 0-12.28-.34A34.73 34.73.0 0 0 403 392.72a1.89 1.89.0 0 0-1 2 1.85 1.85.0 0 0 2.15 1.48 67.17 67.17.0 0 1 11-1.09 55.87 55.87.0 0 1 10.78.91 55.18 55.18.0 0 1 10.38 2.9 65 65 0 0 1 9.87 4.85 1.93 1.93.0 0 0 1 .28 2 2 0 0 0 1.44-3.33A35.34 35.34.0 0 0 438.69 393.46z" fill="#a80000"/><path d="M451.64 380.11h0A48.36 48.36.0 0 0 439 374.58a57 57 0 0 0-13.66-2.13 57.69 57.69.0 0 0-13.75 1.21 47.28 47.28.0 0 0-12.95 4.7 1.85 1.85.0 0 0 1.33 3.41 102.39 102.39.0 0 1 12.57-2.34 82.16 82.16.0 0 1 12.58-.49 78.71 78.71.0 0 1 12.49 1.43A99.17 99.17.0 0 1 450 383.65a2.17 2.17.0 0 0 .62.1 2 2 0 0 0 1.06-3.64z" fill="#a80000"/><path d="M442.38 272l-18-.65a4.4 4.4.0 0 0-.31 8.79l18 .64h.16a4.4 4.4.0 0 0 .16-8.79z" fill="#a80000"/><path d="M197 271.36 179 272a4.4 4.4.0 0 0 .15 8.79h.16l18-.64a4.4 4.4.0 0 0-.32-8.79z" fill="#a80000"/><path d="M130.93 409.06h-.05a146.07 146.07.0 0 1-21.71 2.76 115.23 115.23.0 0 1-21-1A113 113 0 0 1 67.65 406a144.49 144.49.0 0 1-20-8.59h-.06a3.12 3.12.0 0 0-3.94 4.63 55.61 55.61.0 0 0 18.82 15.8 70.32 70.32.0 0 0 23.68 7.53A69.44 69.44.0 0 0 111 424.26a55.07 55.07.0 0 0 22.18-10.43 2.71 2.71.0 0 0-2.22-4.77z" fill="#a80000"/><path d="M64.92 368.34a70 70 0 0 0 27.69 6.94 60.2 60.2.0 0 0 27.48-5.12 2.7 2.7.0 0 0-1.15-5.14h0A122.22 122.22.0 0 1 94 362.8a93.72 93.72.0 0 1-22.69-7.63A92.19 92.19.0 0 1 51.45 341.9 119.9 119.9.0 0 1 34.6 323.64v-.05a3.11 3.11.0 0 0-5.49 2.63A60.84 60.84.0 0 0 42.26 351 70.58 70.58.0 0 0 64.92 368.34z" fill="#a80000"/><path d="M62.4 308.7a72.89 72.89.0 0 0 25.9 14.87 67.92 67.92.0 0 0 29 3.18 2.69 2.69.0 0 0 .45-5.24v0A146.21 146.21.0 0 1 93.05 312 95.71 95.71.0 0 1 72.18 297.8a84.45 84.45.0 0 1-15.84-19.29A105.07 105.07.0 0 1 46 254.71v-.05a3.1 3.1.0 0 0-6 .64 60.59 60.59.0 0 0 4.93 29A69.38 69.38.0 0 0 62.4 308.7z" fill="#a80000"/><path d="M573.77 397.42v0a144.49 144.49.0 0 1-20 8.59 113.22 113.22.0 0 1-20.48 4.82 115.29 115.29.0 0 1-21 1 145.94 145.94.0 0 1-21.7-2.76h-.06a2.71 2.71.0 0 0-2.22 4.77 55 55 0 0 0 22.19 10.43 69.43 69.43.0 0 0 24.81 1.12 70.39 70.39.0 0 0 23.68-7.53 55.57 55.57.0 0 0 18.81-15.8 3.12 3.12.0 0 0-3.94-4.63z" fill="#a80000"/><path d="M591.16 323a3.1 3.1.0 0 0-4.35.59v0a119.85 119.85.0 0 1-16.84 18.26 92.43 92.43.0 0 1-19.88 13.27 93.65 93.65.0 0 1-22.7 7.63A122.06 122.06.0 0 1 502.48 365h-.05a2.7 2.7.0 0 0-1.14 5.14 60.2 60.2.0 0 0 27.48 5.12A70.31 70.31.0 0 0 579.12 351a60.84 60.84.0 0 0 13.18-24.73A3.11 3.11.0 0 0 591.16 323z" fill="#a80000"/><path d="M504.11 326.75a67.92 67.92.0 0 0 29-3.18A73 73 0 0 0 559 308.7a69.51 69.51.0 0 0 17.58-24.38 60.71 60.71.0 0 0 4.93-29 3.1 3.1.0 0 0-6.06-.63v0A105.51 105.51.0 0 1 565 278.51 84.71 84.71.0 0 1 549.2 297.8 95.71 95.71.0 0 1 528.33 312a146.21 146.21.0 0 1-24.64 9.54v0a2.69 2.69.0 0 0 .46 5.24z" fill="#a80000"/><path d="M321.94 146.58q.46-9.26.47-18.51.0-11.49-.75-23 23 .48 46.07 3.07c19.07 2.07 38 5.4 57.57 9-16.9-10.51-35.74-17.69-55.11-22.6a244.67 244.67.0 0 0-50.14-7c-.06-.49-.11-1-.17-1.46-.91-7-2-14-3.46-21-.75-3.5-1.54-7-2.48-10.49s-1.95-7-3.25-10.48c-1.3 3.49-2.32 7-3.25 10.48s-1.73 7-2.48 10.49c-1.47 7-2.55 14-3.47 21-.06.49-.11 1-.17 1.46a244.58 244.58.0 0 0-50.19 7.11c-19.36 5-38.18 12.18-55 22.74 19.52-3.66 38.49-7 57.55-9.14q23.06-2.64 46.08-3.18Q299 116.6 299 128.07q0 9.27.47 18.52a166 166 0 0 0-33 5.54c-14.32 4-28.19 9.86-40.29 18.56 14.76-1.8 28.77-3.77 42.79-5q16-1.44 31.85-1.8.32 3 .69 6.09 1.31 10.48 3.47 21c.75 3.49 1.54 7 2.49 10.48s2 7 3.27 10.49c1.31-3.5 2.33-7 3.27-10.49s1.74-7 2.49-10.48q2.16-10.49 3.47-21 .38-3.08.69-6.13 15.87.33 31.84 1.73c14 1.15 28 3.11 42.79 4.89-12.12-8.65-26-14.45-40.33-18.45A167 167 0 0 0 321.94 146.58z" fill="#a80000"/><path d="M380.63 350.82a6.11 6.11.0 0 1-.24 1.42c-1.07 3.83-4.39 6.65-6.82 9.64a176.8 176.8.0 0 1-13.31 14.59 213 213 0 0 1-26.14 21.94c-6.81 4.85-14.6 9.55-23.39 9.44-8.79.11-16.58-4.59-23.39-9.44a212.92 212.92.0 0 1-26.13-21.94c-4.09-4-8-8.24-11.72-12.64-2.77-3.31-7.53-7.89-9.23-11.8-4.53-10.45 19.83-7.91 23.81-7 19 4.21 37.36 9.37 57 7.15a193.12 193.12.0 0 0 26.07-5.23c8.42-2.14 17.89-3.62 26.59-1.41C377.15 346.38 380.8 347.32 380.63 350.82z" fill="#a80000"/></g></g></g></svg>