<svg xmlns="http://www.w3.org/2000/svg" width="1080" height="814.95" viewBox="0 0 1080 814.95"><g id="Слой_2" data-name="Слой 2"><g id="manicure05_459360378"><g id="manicure05_459360378-2" data-name="manicure05_459360378"><path d="M1034 134.12V77.53A77.53 77.53.0 0 0 956.47.0H123.9A77.53 77.53.0 0 0 46.37 77.53V108L46 134.11C44.17 184.08-2.2 260.32.08 300.55 2 333.81 31.35 354 73.24 339.81a43.77 43.77.0 0 1 27.84.0c41.89 14.17 71.63-6 73.16-39.26.65-14.33-3-30.54-8.35-47.4.0.0-37.21-98.09-37.21-119a72 72 0 1 1 144 0c0 20.95-36.29 119-36.29 119-6.13 18.11-10.36 34.58-9.63 47.4 1.88 33.26 31.27 53.43 73.16 39.26a43.74 43.74.0 0 1 27.83.0c41.89 14.17 71.63-6 73.16-39.26.66-14.33-3-30.54-8.35-47.4.0.0-37.57-98.09-37.57-119a72 72 0 1 1 144 0c0 20.95-36.29 119-36.29 119-6.13 18.1-10.36 34.58-9.63 47.4 1.88 33.26 31.27 53.43 73.16 39.26a43.74 43.74.0 0 1 27.83.0c41.89 14.17 71.63-6 73.16-39.26.66-14.33-3-30.54-8.35-47.4.0.0-37.58-98.09-37.58-119a72 72 0 0 1 144 0c0 20.95-36.29 119-36.29 119-6.13 18.1-10.36 34.58-9.63 47.4 1.88 33.26 31.27 53.43 73.16 39.26a43.74 43.74.0 0 1 27.83.0c41.89 14.17 71.63-6 73.16-39.26.66-14.33-3-30.54-8.35-47.4.0.0-37.58-98.09-37.58-119a72 72 0 1 1 144 0c0 20.95-36.29 119-36.29 119-6.13 18.1-10.36 34.58-9.63 47.4 1.88 33.26 31.27 53.43 73.16 39.26a43.74 43.74.0 0 1 27.83.0c41.89 14.17 71.63-6 73.16-39.26C1082.2 251 1034 179.13 1034 134.12z" fill="#5677c6"/><path d="M1034 604.66V548.07a77.53 77.53.0 0 0-77.52-77.53H123.9a77.53 77.53.0 0 0-77.53 77.53v30.49L46 604.65C44.17 654.62-2.2 730.86.08 771.09 2 804.35 31.35 824.52 73.24 810.35a43.77 43.77.0 0 1 27.84.0c41.89 14.17 71.63-6 73.16-39.26.65-14.33-3-30.54-8.35-47.4.0.0-37.21-98.09-37.21-119a72 72 0 0 1 144 0c0 21-36.29 119-36.29 119-6.13 18.11-10.36 34.58-9.63 47.4 1.88 33.26 31.27 53.43 73.16 39.26a43.74 43.74.0 0 1 27.83.0c41.89 14.17 71.63-6 73.16-39.26.66-14.33-3-30.54-8.35-47.4.0.0-37.57-98.09-37.57-119a72 72 0 0 1 144 0c0 21-36.29 119-36.29 119-6.13 18.11-10.36 34.58-9.63 47.4 1.88 33.26 31.27 53.43 73.16 39.26a43.74 43.74.0 0 1 27.83.0c41.89 14.17 71.63-6 73.16-39.26.66-14.33-3-30.54-8.35-47.4.0.0-37.58-98.09-37.58-119a72 72 0 0 1 144 0c0 21-36.29 119-36.29 119-6.13 18.11-10.36 34.58-9.63 47.4 1.88 33.26 31.27 53.43 73.16 39.26a43.74 43.74.0 0 1 27.83.0c41.89 14.17 71.63-6 73.16-39.26.66-14.33-3-30.54-8.35-47.4.0.0-37.58-98.09-37.58-119a72 72 0 0 1 144 0c0 21-36.29 119-36.29 119-6.13 18.11-10.36 34.58-9.63 47.4 1.88 33.26 31.27 53.43 73.16 39.26a43.74 43.74.0 0 1 27.83.0c41.89 14.17 71.63-6 73.16-39.26C1082.2 721.49 1034 649.67 1034 604.66z" fill="#5677c6"/></g></g></g></svg>