<svg xmlns="http://www.w3.org/2000/svg" width="1080" height="799.09" viewBox="0 0 1080 799.09"><g id="Слой_2" data-name="Слой 2"><g id="eye03_537482828"><g id="eye03_537482828-2" data-name="eye03_537482828"><path d="M944.09 394.18l1.24-13.66-1.77-3.22c-28.73-52.42-142-223.66-393.77-226.22-248.65-2.44-383.26 169.4-418.56 222.16l-1.78 2.66-.85 12.15 1.7 3.11c28.92 52.76 142.72 225.1 393 227.65h5.45c245.76.0 378.58-169.76 413.61-222.11zm-605.84-6.89c0-111.17 90.45-201.61 201.61-201.61s201.61 90.44 201.61 201.61S651 588.89 539.86 588.89 338.25 498.45 338.25 387.29zm-184.72-4c30.15-44 121.23-157.19 280.58-195.36-71.3 38-120 113.07-120 199.34.0 85 47.2 159.08 116.75 197.59C262.44 549.63 179.56 429.31 153.53 383.31zm767.11 2.54c-27.95 41-110.94 145.36-255.53 189.1 60.53-40.52 100.47-109.51 100.47-187.66.0-89.36-52.19-166.75-127.69-203.3 173.16 33.86 257 156 282.76 201.71z" fill="#40a851"/><path d="M543.26 111.84a12.06 12.06.0 0 0 12.06-12V12.05a12.06 12.06.0 0 0-24.11.0V99.79A12.06 12.06.0 0 0 543.26 111.84z" fill="#40a851"/><path d="M12.76 289.71 91.41 328.6A12.06 12.06.0 1 0 102.09 307L23.45 268.09a12.06 12.06.0 0 0-10.69 21.62z" fill="#40a851"/><path d="M279.54 161.88a12.05 12.05.0 1 0 20.3-13L252.56 75a12.05 12.05.0 1 0-20.31 13z" fill="#40a851"/><path d="M172.67 235.57a12.06 12.06.0 0 0 17.14-17l-61.7-62.37a12.06 12.06.0 1 0-17.14 17z" fill="#40a851"/><path d="M400.06 120.35a12 12 0 1 0 23-7.19l-26.2-83.73a12.06 12.06.0 1 0-23 7.2z" fill="#40a851"/><path d="M1079.12 295.52a12 12 0 0 0-15.7-6.65L982.1 321.78A12.05 12.05.0 0 0 986.62 345a11.82 11.82.0 0 0 4.52-.89l81.32-32.91A12.06 12.06.0 0 0 1079.12 295.52z" fill="#40a851"/><path d="M808.11 168.49a12 12 0 0 0 16.9-2.26l53.25-69.72A12.05 12.05.0 1 0 859.1 81.88L805.85 151.6A12 12 0 0 0 808.11 168.49z" fill="#40a851"/><path d="M913.25 249.68a12 12 0 0 0 7.81-2.88L987.88 190a12.06 12.06.0 0 0-15.62-18.37l-66.83 56.85a12.06 12.06.0 0 0 7.82 21.24z" fill="#40a851"/><path d="M686.94 125.24a12.22 12.22.0 0 0 3.61.55A12 12 0 0 0 702 117.33L728.25 33.6a12.05 12.05.0 1 0-23-7.2L679 110.13A12.06 12.06.0 0 0 686.94 125.24z" fill="#40a851"/><path d="M536.74 687.25a12.05 12.05.0 0 0-12.06 12V787a12.06 12.06.0 1 0 24.11.0V699.3A12.05 12.05.0 0 0 536.74 687.25z" fill="#40a851"/><path d="M1067.23 509.38l-78.64-38.89A12.05 12.05.0 1 0 977.9 492.1L1056.55 531a12.05 12.05.0 1 0 10.68-21.61z" fill="#40a851"/><path d="M800.47 637.2a12.06 12.06.0 0 0-20.31 13l47.29 73.9a12.05 12.05.0 0 0 20.3-13z" fill="#40a851"/><path d="M907.33 563.52a12 12 0 0 0-17.13 17l61.7 62.38a12.05 12.05.0 1 0 17.13-17z" fill="#40a851"/><path d="M679.94 678.73a12.06 12.06.0 0 0-23 7.2l26.21 83.73a12.05 12.05.0 0 0 11.5 8.46 11.85 11.85.0 0 0 3.6-.56 12 12 0 0 0 7.91-15.1z" fill="#40a851"/><path d="M104.56 461.61A12.06 12.06.0 0 0 88.86 455L7.54 487.87a12.05 12.05.0 1 0 9 22.35L97.9 477.3A12 12 0 0 0 104.56 461.61z" fill="#40a851"/><path d="M271.89 630.59A12 12 0 0 0 255 632.86l-53.26 69.72a12.05 12.05.0 1 0 19.16 14.63l53.25-69.72A12.05 12.05.0 0 0 271.89 630.59z" fill="#40a851"/><path d="M159 552.28 92.12 609.13a12.05 12.05.0 0 0 15.62 18.36l66.82-56.84A12.05 12.05.0 1 0 159 552.28z" fill="#40a851"/><path d="M393.06 673.85a12 12 0 0 0-15.1 7.9l-26.21 83.73a12.06 12.06.0 0 0 7.9 15.11 12.22 12.22.0 0 0 3.61.55 12.06 12.06.0 0 0 11.5-8.46L401 689A12.05 12.05.0 0 0 393.06 673.85z" fill="#40a851"/><path d="M539.86 280.72A103.89 103.89.0 1 0 643.75 384.61 103.88 103.88.0 0 0 539.86 280.72zm-3.05 181.41h-.82a81 81 0 0 1-52.13-18.94l52.95-55.92zm3.53-82.67V304.62h.81a80.9 80.9.0 0 1 52.13 18.94z" fill="#40a851"/></g></g></g></svg>