<svg xmlns="http://www.w3.org/2000/svg" width="1080" height="541.22" viewBox="0 0 1080 541.22"><g id="Слой_2" data-name="Слой 2"><g id="eye_328219126"><g id="eye_328219126-2" data-name="eye_328219126"><path d="M1080 295.32 865.32 132.67C679.73-7.95 528.93-64.75 34.42 103.18 7.49 112.33 8.86 169.71 1.76 201.66c-7.26 32.7 8 28 44.19 18 482.36-133.08 604.13-140.84 784.46-50L1080 295.32z" fill="#070707"/><path d="M144.56 480.35a26.1 26.1.0 0 0-15.09.36c-29.06 9.94-28.35-5.43-8.31-16.36 11.67-6.36 22.63.53 36.73 6.53C197.94 487.93 277 551.4 380.89 516 589 445.19 786.31 185.93 1079 296.5 761.56 191.26 669.56 470.8 383.65 533.57c-78.78 17.3-146.13 7.55-239.09-53.22z" fill="#070707"/><path d="M50.07 439.51c333.2-410.29 764.24 11.68 1028.9-143C875.91 456.41 363.45 86.3 54.33 442.19c-11.5 13.24-29 27.8-4.26-2.68z" fill="#070707"/><path d="M336.22 327.79a105.73 105.73.0 1 1-114.16 96.56 105.74 105.74.0 0 1 114.16-96.56z" fill="#070707" fill-rule="evenodd"/><path d="M277.22 354.52c53.06-7.73 64.17 80.78 59.44 108.88 28.75-17.59 39.12-63.66 19.39-96.3-18.76-3.07-61.93-15.25-78.83-12.58z" fill="#fcfcfc" fill-rule="evenodd"/><path d="M394.83 392.3c11.51 14.12 17.7 31.67 16.16 50.14-3.47 41.45-44.54 71.85-91.74 67.91-33.21-2.77-60.61-21.8-72.73-47.28 14.32 17.58 36.88 29.87 63 32.05 47.2 3.95 88.28-26.46 91.74-67.91a67.66 67.66.0 0 0-6.48-34.91z" fill="#fcfcfc" fill-rule="evenodd"/><path d="M520.84 330.66c129.7 49.78 237.9 142.86 354.58 90.25.55-.24-.83.86-1.44 1.17-263.39 135.67-359.2 15.19-479.15-29.78-80.35-30.13-218.15-6.11-284.92 66.94-30.62 33.51-29.71 2.64-21.78-9.5C141 368.8 272.57 306.14 362.84 303.06c54.2-1.85 108.65 8.65 158 27.6z" fill="#070707"/></g></g></g></svg>