<svg xmlns="http://www.w3.org/2000/svg" width="1080" height="908.52" viewBox="0 0 1080 908.52"><g id="Слой_2" data-name="Слой 2"><g id="set05_541193264"><g id="set05_541193264-2" data-name="set05_541193264"><path d="M1080 680.33s-4.26 10.75-16.49 26.22c-3.23 4.09-22.5 25.17-44.68 53.66-5.47 7.07-11.22 14.51-17.07 22.13-40.47 52.73-85.57 113.46-85.57 113.46-16.29 2.71-347.9 14.13-478.81 12.54-1.4.0-2.81-.05-4.26-.05-6.74-.09-13.89-.14-21.43-.19-141.15-1.12-410.36.42-410.36.42s-3.6-303.4 1-357S27.58 312.42 27.58 312.42l103.49-79 25-19.14 47.3-36.11s165.39-1.59 316.09-1.88c9 0 18 0 26.81.0 81.69-.1 155.65.28 191.82 1.59 96.33 3.51 246.93-3.6 272.76-4.87 2.53-.14 3.84-.18 3.84-.18s.51 2.33 1.35 6.69c2.67 13.56 8.75 46.78 13.29 89.17C1035.35 324.64 1080 680.33 1080 680.33z" fill="#f2d383"/><path d="M171.22 584.45q1.82 2.63 5.55 7.11a69.92 69.92.0 0 0 10.43 9.75l-3.28 7.6-18.86-17.38c-1.87 1.15-3.19 1.28-3.95.36a5.12 5.12.0 0 1-.79-3.35 25.28 25.28.0 0 0-.12-3.73 5.83 5.83.0 0 0-1-2.58q-.81-1.2-3-4.26c-1.45-2-3-4.18-4.69-6.43s-3.25-4.39-4.72-6.41-2.54-3.4-3.18-4.17a14.81 14.81.0 0 1 .69-3.85q1-2.43 3-1.32l18.41 23q17.75-14.78 19.42-20.07L166.28 536q-.59-1.57 3-4.57a14.21 14.21.0 0 1 1.35-1c.76.91 2 2.26 3.55 4s3.43 3.82 5.45 6.11 4.18 4.69 6.45 7.22 4.42 4.93 6.47 7.19c4.22 4.77 7.32 8.26 9.34 10.48q7.68 8.21 15.12 11a24.59 24.59.0 0 1-6 7.22q-10.12-5.43-21.41-18.55-4.86 3.81-6.58 5.24a50.41 50.41.0 0 0-3.7 3.45A47.37 47.37.0 0 0 171.22 584.45z" fill="#353330"/><path d="M258.31 544.28c.72.86.33 1.91-1.15 3.14a7.45 7.45.0 0 1-2.24 1.33 4.28 4.28.0 0 1-1.56.38l-6.94-9.79q-1.89 11.19-3.71 15.13A28 28 0 0 1 235 564.92c-.62.51-1.29 1-2 1.54q-11.44 7.57-21.67-4.7-4.66-5.6-13-21.42a72.92 72.92.0 0 0-5.12-8.63 4.22 4.22.0 0 1 .87-.86l.86-.71a5.12 5.12.0 0 1 .59-.62c1.53-1.27 3.26-.76 5.17 1.54a30.85 30.85.0 0 1 4 6.67q6.76 13.95 10.47 18.41 3.89 4.67 8.54 5.29c2 .28 4.24-.41 6.7-2l.86-.72q11.7-9.75 6-24.08a77.11 77.11.0 0 0-10.77-18q-3.37-4.49-6.76-8.85-1-2.81.36-3.95a6.84 6.84.0 0 1 4-1.29q3.68 4 7 8l22.13 28C254.9 540.47 256.58 542.4 258.31 544.28z" fill="#353330"/><path d="M301.35 516.34l-11-13.14q-2.94 10.35-4.33 14.08-3.37 8.52-8 12.4a16.94 16.94.0 0 1-13 3.92 17.66 17.66.0 0 1-12.17-6.28 56.12 56.12.0 0 1-7.25-13.67q-6.09-16.09-.95-30.23a28.46 28.46.0 0 1 9-12.45l.29-.24 1.88-1.69c2.2-1.83 3.93-1.81 5.17.08a37 37 0 0 0-8.56 11.63 36.49 36.49.0 0 0-3.43 13.62 38.47 38.47.0 0 0 1.93 14.15 37.69 37.69.0 0 0 6.91 12.61q4.61 5.54 9.51 5.58a14.31 14.31.0 0 0 9.43-3.72q3.89-3.22 8-12.35a24.28 24.28.0 0 0 2.47-10.32 5.46 5.46.0 0 0-1.2-3.63l-8.85-10.63q-2.16 1.8-8.65 10c-4.32 5.46-6.84 8.61-7.53 9.43-.36.06-.78.14-1.25.25a1.25 1.25.0 0 1-1.2-.28c-.7-.64-.56-2.61.41-5.93.28-.73 3-3.92 8.07-9.59s8.34-9.27 9.72-10.82 2.53-2.85 3.47-3.87a6.54 6.54.0 0 0 1.77-1.53 10.88 10.88.0 0 1 1.92-1.78q2.35-1.85 4.25.72l-3.93 7.4q2.28 5.54 12.39 17.66l9.06 10.58 2.21 2.66a12 12 0 0 1-3.27 4.55C303.2 516.63 302.14 516.91 301.35 516.34z" fill="#353330"/><path d="M309.56 492.9a4.14 4.14.0 0 1-.86-3.3 17.38 17.38.0 0 1 .53-2.87 9.18 9.18.0 0 0 .32-1.29q5.79 6.22 14.27-.83 6.69-5.57 12.12-17.14 3.93-8.14 3.57-13a3.67 3.67.0 0 0-.57-2.15 2.4 2.4.0 0 0-1-.78l-35.37 18.14a8.39 8.39.0 0 1-3.53.87c-2.36.18-3.9-.15-4.62-1q-4.12-4.95-.44-14.84 4.11-10.85 15.25-23.9a56.46 56.46.0 0 1 3.91-4.22 9.81 9.81.0 0 0 1.53-.86c.66-.42 1.36-.82 2.11-1.2q2.64-1.35 3.42.32 2 2.43-6.11 11.65-10.57 11.85-12.53 15.55a18 18 0 0 0-2.22 6.1 5.74 5.74.0 0 0 1.17 4.26c.2.24 1 .05 2.31-.58s2.95-1.39 4.82-2.26 4.31-2 7.31-3.34q10.94-5 27-12a9.34 9.34.0 0 1 3.17 2.35q3.17 3.79 1.65 11-1.74 8.14-8.37 18.28-5.55 8.4-9.93 12a24.41 24.41.0 0 1-8.05 4.51 29.54 29.54.0 0 1-7 1.62C311.55 494.18 310.3 493.79 309.56 492.9z" fill="#353330"/><path d="M289.55 625.17l2-1.67a15.87 15.87.0 0 1 2.51-1.73 1.8 1.8.0 0 1 2.44.65c1.92 1.63 1.58 3.51-1.05 5.61l-2.09 1.5a16.71 16.71.0 0 0-1.51 1.19c-.36.35-.42.62-.17.82 1.63 1 3.45 2.11 5.43 3.38s4 2.48 6.14 3.65q7.9 4.24 12.54 5.12a14.56 14.56.0 0 1-.74 4.88 18.88 18.88.0 0 1-.89 2.44.31.31.0 0 1-.24.08L286 638.19l-15.6 21.14 1.79 3.62q4.8 10 4.9 15.38c.11.72-.44 1.26-1.67 1.64-2 .7-3.18.86-3.5.48-.08-.1-.73-1.9-2-5.42s-2.47-7.09-3.74-10.7-2.59-7.39-4-11.35-2.72-7.71-4-11.28-2.4-6.78-3.4-9.64-1.75-4.91-2.23-6.17a21.1 21.1.0 0 0-1.47-3.16 9.64 9.64.0 0 1-1.05-2.35c-.44-1.5.3-3 2.22-4.64a16.55 16.55.0 0 1 8.51.51 46.09 46.09.0 0 1 7.81 3.53q3.82 2.18 7.66 4.45a29.75 29.75.0 0 0 8 3.32 3 3 0 0 0 2.84-.54C288.1 626.34 288.88 625.73 289.55 625.17zm-30.88-.56a43.11 43.11.0 0 1 4.89 11.13q1.81 6.28 2.72 9.84c.6 2.38 1.22 4.53 1.84 6.44q4.88-4.07 9.6-12.86 1.14-2.28 2.25-4.31Q264.58 623.23 258.67 624.61z" fill="#353330"/><path d="M341.69 583.33q18.18 21.84 19.5 27.07l-5.61 3.94q-9.63-3.54-29.26-8.12L311 602.6q-7.63-1.8-14.6-4 3.88 7.59 19.85 26.77 6.1 7.32 10 12.59a5.58 5.58.0 0 1-1.91 3.78 7.14 7.14.0 0 1-2.53 1.55 1.43 1.43.0 0 1-1.54-.53 30.2 30.2.0 0 1-1.8-2.52c-.77-1.18-2.14-3.1-4.08-5.79s-4-5.48-6.23-8.43q-8.64-11.54-15.31-19.55T281.7 593.39c.25-1.83.49-3.21.71-4.12a2.06 2.06.0 0 1 2-1.58 16.36 16.36.0 0 1 5.22.65q3.57.85 10.37 2.73 23.06 6.23 44.21 10.87L315.74 565a7.33 7.33.0 0 1-.06-3.29 4.76 4.76.0 0 1 1.63-2.28q2.52-2.1 6.34 2.5l2.15 2.72z" fill="#353330"/><path d="M336.06 556.27q3.75-6.28 12.52-13.59 16-13.33 28.49-10.35a16.13 16.13.0 0 1 8.7 5.77c.4.4.79.81 1.15 1.24q6 7.18 3.74 21.58a76.21 76.21.0 0 1-9.64 27q-5.07 9.09-10 13.16a12.1 12.1.0 0 1-3.93 2.3l-37.32-44.82 1-.84a7.3 7.3.0 0 1 3.1-1.68A2.66 2.66.0 0 1 336.06 556.27zm45.37-13.58q-6-5.87-15-3.56-6.74 1.71-14 7.75L351.21 548a42.81 42.81.0 0 0-10 12l28.53 34.26q5-4.18 9.52-14.14 7.68-17.34 5.45-30A15.59 15.59.0 0 0 381.43 542.69z" fill="#353330"/><path d="M297.68 810.58a4.4 4.4.0 0 1-.54-1 25.43 25.43.0 0 0-2.09-3.25q-1.8-2.52-4.47-6l-5.89-7.5q-3.21-4.08-6.57-8.33c-2.24-2.84-4.42-5.62-6.54-8.37s-4-5.28-5.64-7.65q-5.34-7.71-5.4-10c-.53-1.42.3-3 2.51-4.88l1-.84q2.28 2.73 9 12t8 11q2.7-6.27 4.74-12.65t3.87-11.86c1.22-3.64 2.43-6.85 3.63-9.59s2.31-4.53 3.31-5.37c1.68-1.4 3.05-1.45 4.13-.16q1.26 1.52.48 5.26a58 58 0 0 1-2.58 8.59c-1.19 3.23-2.59 6.65-4.18 10.23s-3 7-4.24 10.18a75.18 75.18.0 0 0-2.79 8.33c-.62 2.39-.58 4 .09 4.79a52.44 52.44.0 0 0 6-1.44c2.73-.76 5.79-1.62 9.2-2.54s7-1.87 10.67-2.81 7.21-1.69 10.49-2.23q11-2 13.33.81a1.81 1.81.0 0 1-.14 2.32 4.87 4.87.0 0 1-.89 1l-.71.59a17.16 17.16.0 0 1-7.84 3.74q-4.39.85-9.72 1.4T306.19 786a57.08 57.08.0 0 0-13.86 4.54l12 14.37c.06.27-.19.84-.76 1.72a15.35 15.35.0 0 1-3.1 3.43C299.2 811.14 298.27 811.3 297.68 810.58z" fill="#353330"/><path d="M346.61 769.71c.67.81.44 1.7-.71 2.66a7.6 7.6.0 0 1-4.11 1.35q-2.48-1.23-8.58-8.55T323.28 753q-3.84-4.91-7-9-6.87-9.12-7.29-9.63a9.5 9.5.0 0 1 2.43-4.09c.91-.76 1.7-.73 2.38.09z" fill="#353330"/><path d="M347 760.68a4.12 4.12.0 0 1-.87-3.29 20.32 20.32.0 0 1 .53-2.88 6.79 6.79.0 0 0 .32-1.29q5.81 6.24 14.28-.82 6.67-5.58 12.12-17.15 3.93-8.13 3.57-13a3.64 3.64.0 0 0-.57-2.14 2.4 2.4.0 0 0-1-.79L340 737.51a8.36 8.36.0 0 1-3.53.88q-3.54.27-4.62-1-4.12-5-.43-14.84 4.11-10.85 15.25-23.91a56.33 56.33.0 0 1 3.9-4.21 9.81 9.81.0 0 0 1.54-.86 21.26 21.26.0 0 1 2.1-1.2q2.65-1.35 3.43.31 2 2.45-6.11 11.66Q340.93 716.16 339 719.87a17.61 17.61.0 0 0-2.21 6.1 5.72 5.72.0 0 0 1.17 4.25c.2.24 1 0 2.31-.58l4.82-2.25c1.87-.87 4.31-2 7.3-3.35q11-5 27-12a9.27 9.27.0 0 1 3.18 2.34q3.17 3.81 1.64 11-1.73 8.13-8.37 18.28-5.55 8.38-9.92 12a24.88 24.88.0 0 1-8.05 4.51 28.91 28.91.0 0 1-7.05 1.61C349 762 347.73 761.57 347 760.68z" fill="#353330"/><path d="M394.26 721.32a4.13 4.13.0 0 1-.86-3.3 17.38 17.38.0 0 1 .53-2.87 7.69 7.69.0 0 0 .32-1.29q5.79 6.23 14.27-.83 6.69-5.56 12.12-17.14 3.93-8.13 3.57-12.95a3.67 3.67.0 0 0-.57-2.15 2.49 2.49.0 0 0-1-.78l-35.37 18.14a8.4 8.4.0 0 1-3.53.88q-3.54.27-4.62-1-4.12-5-.44-14.85 4.11-10.83 15.26-23.9a54.71 54.71.0 0 1 3.9-4.22 8.83 8.83.0 0 0 1.53-.85 20.34 20.34.0 0 1 2.11-1.2q2.64-1.35 3.42.31 2 2.44-6.11 11.66-10.56 11.84-12.53 15.54a18 18 0 0 0-2.22 6.1 5.74 5.74.0 0 0 1.17 4.26c.2.24 1 0 2.31-.58l4.82-2.25q2.81-1.31 7.31-3.35 10.94-5 27-12a9.47 9.47.0 0 1 3.17 2.35c2.11 2.54 2.66 6.21 1.65 11q-1.74 8.13-8.37 18.28-5.55 8.38-9.93 12a24.62 24.62.0 0 1-8 4.5 28.74 28.74.0 0 1-7 1.62C396.25 722.6 395 722.21 394.26 721.32z" fill="#353330"/><path d="M433.05 622.42q7.18-6 10.33-7l2.93 3.51a53.11 53.11.0 0 1-5 4.75c-2.23 1.91-4.6 3.93-7.1 6.09q-10.44 9.07-13.61 13.17 3.57 6.76 5.37 8.78c1.21 1.35 2.15 2.39 2.84 3.11 1.74 1.71 3.68 3.84 5.79 6.37A109.05 109.05.0 0 0 445 651q5.57-6.09 8.69-9.36a80.68 80.68.0 0 1 6.78-6.32l3.29 3.95-24.64 26.36 10.24 11.42q7.11-5.93 14-12.8t10.44-10.4q3.57-3.52 7.88-7.11a6.36 6.36.0 0 1 1.42 3.45c.12 2.49-.53 3.81-2 3.94q-11.5 11.9-20.79 21t-12.5 12.23L410 641.28q2.34-1 7.37-5.16z" fill="#353330"/><path d="M485.05 645.71a4.16 4.16.0 0 1-.86-3.3 18.53 18.53.0 0 1 .53-2.87 7.69 7.69.0 0 0 .32-1.29q5.81 6.22 14.28-.83 6.68-5.56 12.12-17.14c2.61-5.43 3.81-9.75 3.57-12.95a3.67 3.67.0 0 0-.57-2.15 2.48 2.48.0 0 0-1-.79L478 622.54a8.25 8.25.0 0 1-3.53.87c-2.36.18-3.9-.15-4.62-1q-4.12-4.95-.44-14.84 4.11-10.83 15.26-23.9a54.71 54.71.0 0 1 3.9-4.22 9.81 9.81.0 0 0 1.54-.86q1-.63 2.1-1.2 2.64-1.35 3.42.32 2 2.44-6.11 11.65Q479 601.19 477 604.89a18 18 0 0 0-2.22 6.1 5.75 5.75.0 0 0 1.18 4.26c.19.24 1 0 2.31-.58l4.81-2.26 7.31-3.35q10.93-5 27-12a9.14 9.14.0 0 1 3.17 2.35q3.18 3.81 1.65 11-1.74 8.14-8.37 18.29-5.55 8.38-9.92 12a24.77 24.77.0 0 1-8.05 4.5 29.49 29.49.0 0 1-7.05 1.62C487.05 647 485.79 646.6 485.05 645.71z" fill="#353330"/><path d="M546.3 176.28c-13.43 15-30.74 34.43-44 49.64h-.05c-5.85 6.69-10.95 12.54-14.55 16.84-.79.94-1.5 1.83-2.15 2.62-16.14 19.7-69.9 96.75-69.9 96.75s3.6 173.81 7.21 241.89c3 57.22 8.51 260.78 10.24 324.27-6.74-.09-13.89-.14-21.43-.19-1.35-55.91-5.56-223.87-8.56-259.57-3.55-43-8.93-301-8.93-301 5.1-15.29 39-61.24 73.12-105.31h.05c4.4-5.76 8.89-11.46 13.29-17.08 14.27-18.15 27.93-35.28 38.83-48.8C528.47 176.32 537.45 176.28 546.3 176.28z" fill="#e83d3d"/><path d="M1018.83 760.21c-2.29-17.68-5.19-42.71-7.06-69.29-3.6-50.15-12.54-207.82-25.08-290.26s-17.92-171.42-17.92-171.42S854.1 230.46 809.28 234s-161.83-7.76-204.88-5.94c-18.1.75-58.1-.61-102.08-2.15h-.05c-7.16-.28-14.32-.56-21.61-.8-54.14-1.92-109.86-3.65-135.45-1.82-25.26 1.78-110.65-3.42-189.11-9l-25 19.14c14.51 1.36 27 2.48 33.78 3 25.08 1.82 236.5 9.59 258 6 4.67-.8 21.1-.71 44.44-.19h.05q9.47.21 20.35.56c88.66 2.57 238.52 9.4 269.63 6.78 43-3.55 197.06-2.38 197.06-2.38s10.76 110.51 14.36 128.43 17.92 200.66 19.7 259.8c1.26 42.29 9 111.21 13.29 147z" fill="#e83d3d"/><path d="M436 47.07C391.22-26.38 358.94 2.3 348.18 25.6s21.52 98.53 50.2 130.76S471.83 246 471.83 246l10.77-19.7S480.77 120.52 436 47.07zm-4 126.27c-8.52-10.24-42.44-57-49.22-71.3s-18.29-41.4-16.75-57.36 8-23.72 19.84-23.3 34.25 27.42 54.18 80.05 24.14 98.35 24.14 98.35l2.62 10.57S440.53 183.59 432 173.34z" fill="#e83d3d"/><path d="M613.41 9.45c-23.3-10.76-55.58 5.38-87.82 53.76s-55.53 168.43-55.53 168.43L480.77 246s25.12-17.92 43-28.64 87.77-66.29 100.31-95S636.66 20.21 613.41 9.45zm-3 71.07c-4.21 29.29-8.37 40-19.13 56.14s-81.22 65.13-81.22 65.13l-17.31 11.32 4.16-13.71S528 108.59 547.07 78.74 581.13 28.59 595.49 31 614.58 51.28 610.41 80.52z" fill="#e83d3d"/><path d="M836.2 361.84 652.21 365.42 653.69 511.16 842.14 507.57 836.2 361.84z" fill="#fcfcfc"/><path d="M27.6 312.43S348.8 330.78 404.94 326s305.8-3.59 347.61-2.39 145.73-7.17 145.73-7.17S915 751.26 916.2 779.93s0 115.87.0 115.87l-8.36 2.39s-8.36-161.27-8.36-217.41-7.17-273.55-7.17-277.13-1.2-74.06-1.2-74.06-180.37 3.58-199.48 3.58-256.83 2.39-275.94 2.39S188.73 332 166 332s-142.15-8.36-142.15-8.36z" fill="#c20e1a"/><path d="M1016.07 179.51c-19.69 23.76-46.31 55.72-55.67 66.48-15.53 17.92-62.13 86-62.13 86l-5.94-9.54s50.15-68.12 68.07-89.6C972 218.9 995.63 191 1010.88 173c2.53-.14 3.84-.18 3.84-.18S1015.23 175.15 1016.07 179.51z" fill="#c20e1a"/><path d="M311.77 360.05S293.85 370.8 286.68 378 66.29 553.56 66.29 553.56l9 9s37.63-30.46 75.25-59.13S318.93 369 318.93 369z" fill="#e83d3d"/><path d="M566.2 616.28S444.36 729.16 413.9 761.41 304.6 865.34 304.6 865.34l7.17 8.95s125.42-120 146.92-139.75 112.89-111.1 112.89-111.1z" fill="#e83d3d"/><path d="M140.23 660.61c-13.57 13.79-2.55 46.87-2.55 46.87S111 703.9 103 708.59s-18.11 18.68.35 32.93 79.08 7.71 85.63 5.08-1.12-26.56-6.84-39.27S153.8 646.81 140.23 660.61z" fill="#e83d3d"/><path d="M734.4 680.07c-12.36-4.77-40.81-14.45-50.21-6.73-8.21 6.75-14.93 11.93-18.42 14.58a6.25 6.25.0 0 1-5.49 1c-6.68-1.89-23.49-5.51-34.87 2.11-11.21 7.49-24.47 29.82-29.91 39.57a6.26 6.26.0 0 0 1.65 8.05c10.12 7.73 37.34 25.32 67.54 18 38.25-9.24 56.13-31.38 61-39.85 3.38-5.94 9.2-20.49 12.37-28.65A6.29 6.29.0 0 0 734.4 680.07z" fill="#e83d3d"/><path d="M821.98 388.92 671.02 389.95 670.13 393.4 822.43 392.02 821.98 388.92z" fill="#353330"/><path d="M823.1 417.54s-95.64 1.09-113.55 1.45-42.11.37-42.11.37l-.23 4s63.84-1.82 69.88-1.82 86.68-.36 86.68-.36z" fill="#353330"/><path d="M826.39 449s-76.83 1.79-92.06 2.24-64.05.9-64.05.9l.44 3.13S746.87 454 753.59 454s73.24-1.79 73.24-1.79z" fill="#353330"/><path d="M715.52 480.21c-24.19.18-46.14.53-46.14.53l-.22 2.65s109.3-1.24 121.17-1.77 36.5-1.23 36.5-1.23v-2.83S739.71 480 715.52 480.21z" fill="#353330"/><path d="M580.76 447.94s-27.23-34-35.79-38.59-23.7 1.22-23.7 1.22S506.69 391.4 491.8 391s-49.67 11.42-51.17 15c-4.36 10.42 24.14 43.78 54.42 63.24s76.61-5.91 83-11.82S580.76 447.94 580.76 447.94z" fill="#e83d3d"/></g></g></g></svg>