<svg xmlns="http://www.w3.org/2000/svg" width="657.15" height="1080" viewBox="0 0 657.15 1080"><g id="Слой_2" data-name="Слой 2"><g id="corgi01_540645372"><g id="corgi01_540645372-2" data-name="corgi01_540645372"><path d="M58.51 1.86C-27.49 32.94 46 301.43 91.33 392.19c.11.47-.61 1.81-2 3.8-13.1 18.35-57 125.61-76.73 213.83-48.75 217.6 50.88 351.93 185.37 403.07 10.08 38.6 26.68 68.15 53.81 67.08 20.24-.8 34.42-19 44.32-44.88a378.49 378.49.0 0 0 64.67.0c10.28 27.12 25.2 45.71 46.81 44.85 25.64-1 41.55-29.9 51.36-67 134.63-51.09 234.45-185.39 185.67-403.13C624.81 521.6 581 414.34 567.85 396c-1.42-2-2.14-3.33-2-3.8q.84-4.65 1.8-9.07c44.16-95.58 108-337.09 35.1-378.18A23.91 23.91.0 0 0 593 .22 38.82 38.82.0 0 0 588.62.0c-.81.0-1.59.0-2.36.06-60.57-1.6-148.41 160.72-184.91 200.45a244.9 244.9.0 0 0-147.56.58C215.6 160.22 119.27-20.09 58.51 1.86z" fill="#f6a445" fill-rule="evenodd"/><path d="M58.51 1.86C-27.49 32.94 46 301.43 91.33 392.19c.11.47-.61 1.81-2 3.8a105.53 105.53.0 0 0-7.16 12.65L97.06 426.7 290.65 192.26a224.14 224.14.0 0 0-36.86 8.83C215.6 160.22 119.27-20.09 58.51 1.86z" fill="#f6a445" fill-rule="evenodd"/><path d="M81.81 42.36c33.75 10.75 101.74 108.13 125.4 135.37 3.85 4.38 8.15 9.86 11.23 14.2 2 2.78 2.29 3.51 2.42 5.11A4.79 4.79.0 0 1 218 202c-1.87 1-3.33.8-8.74-1l-4.9-1.61h-5.83a59.94 59.94.0 0 0-6.92.23c-1.07.3-1 .34 3.77 4 2.67 2.08 6.64 5.38 8.81 7.34a96.33 96.33.0 0 0 13.57 10.84 54.56 54.56.0 0 1 5.92 4.42c3.28 3.33 2.2 7.87-2.27 9.73-5.68 2.39-19.53 5.84-27.6 6.87a20.49 20.49.0 0 0-2.81.45 36.07 36.07.0 0 0 3.39 3.18c5.26 4.63 6.59 6 7.38 7.53a5.33 5.33.0 0 1-2.57 7.23 34.32 34.32.0 0 1-5.12 1.2 18.28 18.28.0 0 0-4.75 1.21c-2.83 1.75-9 9.84-10.67 13.94-.9 2.22-.76 3.09.87 6.75 1.31 2.88 1.52 3.72 1.6 6.22s0 3.11-1 4.87a8.22 8.22.0 0 1-2.63 3c-1.5 1-1.83 1.05-4.93 1-4.12-.09-4.77-.39-16.34-7.35-14.95-9-16.32-9.77-16.44-9.41-.34.93 1.88 7.31 4.47 13 5 11 6.85 18.24 6 23.36-.87 5.67-3.47 10.14-7.22 12.56-2.46 1.62-10.6 8.33-10.6 8.8.0.9-13.71 21.59-22.42 3.43-2.06-4.28-5.84-11.7-8.44-16.53C91.83 309 88.68 301 78.82 269.53 65.43 226.86 34.51 89.83 61.61 49.41c2.56-3.79 6.86-6.27 13.07-7.52a18.33 18.33.0 0 1 7.13.47z" fill="#f9f6d0" fill-rule="evenodd"/><path d="M572.87 41.45c-4 1.19-8.21 3.65-13 7.57-1.49 1.22-4.6 3.61-6.88 5.32-4 3-5.9 4.81-14.08 13.64a104.37 104.37.0 0 1-8 7.64 103.24 103.24.0 0 0-13.82 14.12c-2.07 2.46-7.32 8.15-11.66 12.6-8.76 9-12.24 12.92-17.34 19.62-4 5.21-6.48 8.21-12.2 14.7a157.93 157.93.0 0 0-11.69 14.62c-9.85 14-12.27 17.12-17.56 23.06-3.87 4.31-8.22 9.7-11.33 14-2 2.75-2.32 3.48-2.46 5.07a4.85 4.85.0 0 0 2.82 5c1.85 1 3.3.87 8.69-.87l4.89-1.52 5.79.07a62.55 62.55.0 0 1 6.88.36c1.05.33 1 .36-3.8 4-2.68 2-6.66 5.25-8.84 7.16a93.57 93.57.0 0 1-13.61 10.58 53.35 53.35.0 0 0-5.93 4.3c-3.3 3.26-2.29 7.82 2.13 9.78 5.61 2.49 19.33 6.22 27.33 7.42a21.13 21.13.0 0 1 2.79.5 33.89 33.89.0 0 1-3.4 3.12c-5.29 4.52-6.63 5.83-7.42 7.38a5.36 5.36.0 0 0 2.46 7.28 34.19 34.19.0 0 0 5.07 1.3 17.75 17.75.0 0 1 4.7 1.31c2.79 1.8 8.83 10 10.43 14.15.87 2.24.72 3.11-.94 6.73a12.69 12.69.0 0 0-1.67 6.19c-.11 2.61.0 3.12.91 4.89a8.37 8.37.0 0 0 2.57 3.08c1.48 1 1.81 1.08 4.88 1.08 4.09.0 4.74-.29 16.33-7 14.95-8.69 16.33-9.45 16.43-9.09.33.95-1.95 7.28-4.59 13-5.07 10.86-7 18.1-6.27 23.24.8 5.69 3.33 10.21 7 12.71 2.42 1.66 10.42 8.54 10.42 9 0 .9 13.36 21.87 22.23 3.88 2.1-4.24 5.94-11.59 8.58-16.36 9.92-18.07 13.14-25.92 23.31-57.24 8.91-27.33 11.8-38.3 19.87-75.33 5.83-26.68 7-35.33 8-62.37.73-17.74.8-40 .18-48-1-13.5-4.7-28.52-8.32-34.13-2.5-3.84-6.74-6.41-12.89-7.79a18.45 18.45.0 0 0-7.1.33z" fill="#f9f6d0" fill-rule="evenodd"/><path d="M309 190.18c7-.55 14.22-.79 21.54-.76 6 0 12.42.32 17.55.76a7 7 0 0 0-4.41 5.72c-5.06 36.19-18 178.73 25.84 193.43 6.61 2.22 3.88 2.46 12.6 6.88 18.05 9.15 8.61 30.9 30.94 22.3a46.61 46.61.0 0 0 12.63-3.62 43.39 43.39.0 0 1 5-2c4.53-1.44 25.89-11.69 33.89-16.21 20.57-11.55 35.6-9.46 47.56 14.3 50.43 99.87 75.27 172 76.8 229.09L579.27 638l8.07 33.26a155.67 155.67.0 0 1-16.32 51l-8.94-5.81-3.26 25.75a224.75 224.75.0 0 1-23.27 27.56l-6.78-13.55-16 34.51a588.46 588.46.0 0 1-52.83 39l-9.65-22L434.88 846q-17.47 11-36.82 22.51l-9-23.1L366 887.43q-18 10.56-37.4 21.78-17.19-10-33.32-19.4l-24.42-44.44-9.5 24.44Q242.79 858.76 226 848.27l-16.39-40.51L199.3 831.14c-18.74-12.42-35.6-24.53-50.47-36.69l-17.69-38.26-7.71 15.42a233.37 233.37.0 0 1-21.76-24.88l-3.84-30.3-11 7.16A155.28 155.28.0 0 1 70.91 678.1L80.64 638l-12.49 2.72c1.36-57.2 26.19-129.46 76.79-229.69 12-23.76 27-25.85 47.57-14.3 8 4.52 29.36 14.77 33.89 16.21a43.39 43.39.0 0 1 5 2 46.61 46.61.0 0 0 12.63 3.62c22.33 8.6 12.89-13.15 30.94-22.3 8.71-4.42 6-4.66 12.6-6.88 43.88-14.7 30.9-157.24 25.84-193.43a7 7 0 0 0-4.41-5.72z" fill="#f9f6d0" fill-rule="evenodd"/><path d="M284.38 528.91a5.07 5.07.0 1 1 9.79-2.62 30.77 30.77.0 0 0 19.11 19.78c12.44 4.34 25.23 4.17 36.21-.22a45.68 45.68.0 0 0 24.7-24 5.06 5.06.0 1 1 9.2 4.2 55.67 55.67.0 0 1-30.13 29.18c-13.23 5.29-28.53 5.54-43.31.38-20.51-7.15-25.56-26.67-25.57-26.72z" fill="#2a2929" fill-rule="evenodd"/><path d="M248.66 283.73a11.75 11.75.0 0 1 6.62 10.83c0 3.44-.76 6.15-3.08 10.75s-4.77 8-10.17 14.05c-12.92 14.3-23.2 19.51-30.33 15.31-3.12-1.85-4.38-4.27-5-9.56-.83-6.77-.39-9.84 2.18-15.2 5.68-12 18.46-23.64 29.14-26.5 3.55-1 8-.83 10.68.32z" fill="#f9f6d0" fill-rule="evenodd"/><path d="M260.42 333c-13.78 7.07-13.47 34.12-6.59 44.41l.76 1.12-3 1a152 152 0 0 0-15.75 6.77 42.42 42.42.0 0 1-4.52 2c-2.5.84-4.38 3.95-3.77 6.34a5.84 5.84.0 0 0 3.3 3.48c1.73.57 3 .21 7.53-2.07 15-7.46 26.53-11 40.36-12.42a20.59 20.59.0 0 0 5-.94 4.29 4.29.0 0 0 1.78-5.93c-.8-1.56-2.28-2.17-5.11-2.17-2.13.0-2.35-.08-2.13-.66a39 39 0 0 0 2.6-16.86c-.46-9.18-6.73-29.82-20.45-24.11z" fill="#2a2929" fill-rule="evenodd"/><path d="M270.85 345.49a4.37 4.37.0 0 1 1 6.56 4.27 4.27.0 1 1-1-6.56z" fill="#fcfcfc" fill-rule="evenodd"/><path d="M409 283.73a11.75 11.75.0 0 0-6.62 10.83c0 3.44.76 6.15 3.07 10.75s4.78 8 10.18 14.05c12.92 14.3 23.2 19.51 30.33 15.31 3.11-1.85 4.38-4.27 5-9.56.84-6.77.4-9.84-2.17-15.2-5.68-12-18.46-23.64-29.14-26.5-3.55-1-8-.83-10.68.32z" fill="#f9f6d0" fill-rule="evenodd"/><path d="M397.27 333c13.78 7.07 13.47 34.12 6.59 44.41l-.76 1.12 3 1a153 153 0 0 1 15.75 6.77 41.54 41.54.0 0 0 4.52 2c2.5.84 4.38 3.95 3.77 6.34a5.84 5.84.0 0 1-3.3 3.48c-1.74.57-3 .21-7.53-2.07-14.95-7.46-26.53-11-40.36-12.42a20.81 20.81.0 0 1-5-.94 4.3 4.3.0 0 1-1.77-5.93c.8-1.56 2.28-2.17 5.11-2.17 2.13.0 2.35-.08 2.13-.66a39.17 39.17.0 0 1-2.61-16.86c.47-9.18 6.73-29.82 20.46-24.11z" fill="#2a2929" fill-rule="evenodd"/><path d="M386.84 345.49a4.37 4.37.0 0 0-1 6.56 4.27 4.27.0 1 0 1-6.56z" fill="#fcfcfc" fill-rule="evenodd"/><path d="M306.43 426.3c-31.56 15.86-16 35.8 6.12 51.43 3.52 2.5 14.12 7.64 16.29 7.93 7 .82 21.41-9.09 26.25-13.87 11.56-11.34 23.81-30.57 5-43.11-11-7.28-42.64-7.89-53.66-2.38z" fill="#2a2929" fill-rule="evenodd"/><path d="M314.36 547.31a.39.39.0 0 1-.39.36c-.19.0-.26-.18-.15-.36s.29-.36.4-.36.14.14.14.36z" fill="#e5007e" fill-rule="evenodd"/><path d="M341.91 443.81c-1.85 1.39-42.19 13.58-33.77-2.17 15.73-15.55 50.59-5 33.77 2.17z" fill="#fcfcfc" fill-rule="evenodd"/><path d="M249.82 1029.63c15 0 27.22 8.15 27.22 18.21s-12.19 18.2-27.22 18.2-27.23-8.15-27.23-18.2 12.19-18.21 27.23-18.21z" fill="#f9f6d0" fill-rule="evenodd"/><path d="M406.79 1029.63c15 0 27.23 8.15 27.23 18.21s-12.19 18.2-27.23 18.2-27.22-8.15-27.22-18.2 12.19-18.21 27.22-18.21z" fill="#f9f6d0" fill-rule="evenodd"/><path d="M353.79 794.22C410.21 784 502.63 741.9 538.57 685.3c30.26-47.66 11.14-110.42-45-125.7-34.94-9.52-56.74 1.43-83 28.35-8.71-36.55-21.82-57.12-56.71-66.85-56-15.62-104.59 28.48-103 84.91 1.86 67 59.68 150.51 102.87 188.21z" fill="#e74b0f"/><path d="M324.11 502.87a5.06 5.06.0 1 1 9.4-3.73 30.82 30.82.0 0 0 21.26 17.48c12.86 2.89 25.55 1.25 36-4.37a45.67 45.67.0 0 0 21.78-26.65 5.07 5.07.0 0 1 9.64 3.14 55.75 55.75.0 0 1-26.62 32.43c-12.53 6.77-27.7 8.76-43 5.32-21.17-4.75-28.42-23.57-28.44-23.62z" fill="#2a2929" fill-rule="evenodd"/><path d="M324.11 499.14a5.06 5.06.0 1 1 9.4 3.73c0 .05-7.27 18.87-28.44 23.62-15.28 3.44-30.45 1.45-43-5.32a55.68 55.68.0 0 1-26.62-32.43 5.07 5.07.0 0 1 9.64-3.14 45.67 45.67.0 0 0 21.78 26.65c10.41 5.62 23.1 7.26 36 4.37a30.76 30.76.0 0 0 21.26-17.48z" fill="#2a2929" fill-rule="evenodd"/><path d="M439.26 419.35c-23.91 7.83-7.79 62.27 9.15 69.39 22.15 2.53 46.26-43.28 38.84-57.16-4.27-8-16.8-10-29.39 4.1-.49-5.24-2.41-21.63-18.6-16.33z" fill="#ee7b82" fill-rule="evenodd"/><path d="M206.14 419.35c23.92 7.83 7.79 62.27-9.14 69.39-22.16 2.53-46.26-43.28-38.85-57.16 4.27-8 16.8-10 29.4 4.1.48-5.24 2.41-21.63 18.59-16.33z" fill="#ee7b82" fill-rule="evenodd"/></g></g></g></svg>