<svg xmlns="http://www.w3.org/2000/svg" width="1080" height="1017.42" viewBox="0 0 1080 1017.42"><g id="Слой_2" data-name="Слой 2"><g id="wreath_122367202"><g id="wreath_122367202-2" data-name="wreath_122367202"><path d="M635.8 174.44s82.84-46.93 108.63-29.93 88.92 86 88.92 86-79.69 11-114.81 8.3S635.8 174.44 635.8 174.44z" fill="#1f9e59"/><path d="M731.41 239.87c-4.74.0-9.1-.13-12.93-.43-14.73-1.13-33.22-12.36-55-33.37a327.54 327.54.0 0 1-28.25-31.21l-.49-.63.69-.38a421.75 421.75.0 0 1 44.72-21.38c32-12.84 53.72-15.71 64.62-8.53 25.56 16.86 88.41 85.37 89 86.06l.88 1-1.29.18C832.73 231.23 769.78 239.87 731.41 239.87zm-94.58-65.22c5.13 6.47 49.22 60.92 81.76 63.44 32.2 2.48 102.93-6.73 113.37-8.13-7.74-8.4-64.13-69.21-87.9-84.88S644.89 170.18 636.83 174.65z" fill="#070707"/><path d="M818.89 227.12s-60.12-48.72-76.75-54S666.93 178 666.93 178s43.58 2.36 68.6 8.87S818.89 227.12 818.89 227.12z" fill="#070707"/><path d="M818.55 227.71C818 227.38 760 194 735.36 187.55s-68-8.81-68.46-8.84l-6-.32 6-1c2.39-.41 58.93-10.08 75.53-4.85s74.51 52.09 77 54.08zM673 177.74c12.87.91 43.43 3.48 62.7 8.5 19.49 5.07 59.52 26.81 76.1 36.08-16.12-12.78-56.82-44.4-69.86-48.51S688.31 175.36 673 177.74z" fill="#070707"/><path d="M775.05 396.15S868.2 392.26 885 419.67s47.26 119.24 47.26 119.24-76.41-27.15-107.17-46S775.05 396.15 775.05 396.15z" fill="#1f9e59"/><path d="M933.32 540l-1.31-.47c-.76-.27-76.83-27.38-107.29-46-12.89-7.89-25.28-26.65-36.83-55.78a362.39 362.39.0 0 1-13.5-41.42l-.2-.81h.83A404.8 404.8.0 0 1 823.79 397c33.91 3.28 54.69 10.8 61.77 22.36 16.62 27.16 47 118.46 47.32 119.38zM775.92 396.81c2.17 8.36 21 78.11 49.51 95.55 28.13 17.21 95.44 41.73 105.72 45.43-3.83-11.4-31.31-92.53-46.75-117.77S785.26 396.52 775.92 396.81z" fill="#070707"/><path d="M941.51 561.47s-45.71-87.65-61-103.66-78.63-43.9-78.63-43.9 43.87 30.61 67.38 53.33S941.51 561.47 941.51 561.47z" fill="#070707"/><path d="M940.94 561.85c-.49-.71-49-71.71-72.19-94.12s-66.86-53-67.3-53.26l.67-1.18c2.59 1.14 63.6 28.12 78.85 44s59.27 100.23 61.14 103.82zM808 417.43c12.71 9.11 43.49 31.7 61.72 49.32s51.8 64.78 65.89 85c-12.5-23.5-43.61-80.92-55.6-93.44C867.8 445.56 824.45 425 808 417.43z" fill="#070707"/><path d="M823.51 782.67s-10.3 56.08-14.42 63.76-28.81 27.52-53 43.5S715 913.79 713.17 915.2s5.24-23.4 5.24-23.4l-8.6 13.62-9.1 14.37s-11.12 3.15-13.36 4.56 4.9-26.11 4.9-26.11l-20 32.57s-23.3 16-47.36 25.67-89.57 12.12-89.57 12.12l-3.8 14s67.31-3.87 98-12.1 72.71-37.08 72.71-37.08l81.39-48.7s29.21-25.09 36.84-31.24 74.16 8.42 74.16 8.42l2.92-14.5s-69.88-.56-66.26-5.33 29.8-33.33 42.55-53.44 19.85-45.68 27.56-55.71 56.4-36.63 56.4-36.63l-47.24 19.36s37.35-59.38 40.81-104S941.1 494.46 941.1 494.46s.29-64.56-10.54-101.69-34.95-72.61-35.69-80.39-69-96.66-73.2-110.34-5.57-34.11-5.57-34.11l-4.77 19.32L787.41 164.4s21 35.41 21.78 42.7-34.58 4.59-34.58 4.59 44.09 7.76 50.14 15.66S864.09 302 864.09 302l48.08 80.67a397.49 397.49.0 0 1 18.26 66.42c6.42 36.06 4.67 83.6 4.67 83.6l-39.76-51.36 41.9 79.56s1.3 26.24-11.22 82.28-26.19 78.07-29.71 77-9.77-46.82-9.77-46.82-.18 58.74 1.42 68-31 49.8-31 49.8l-1.37 2.4L821.27 833.1z" fill="#070707"/><path d="M530.57 983.32l4.17-15.39h.5c.66.0 65.67-2.55 89.35-12.07 22.84-9.17 45.27-24.27 47.1-25.51L694.05 894l-1.14 4.39c-2.75 10.6-5.33 22.22-5.33 25 2.91-1.42 11.11-3.79 12.69-4.25l9-14.14 11.12-17.61L719.07 892c-2.56 9-5.13 19.09-5.48 22.14.84-.49 2.19-1.21 4.13-2.25 6.69-3.57 20.6-11 38-22.51 25.25-16.68 48.92-36.09 52.76-43.26 4-7.49 14.26-63 14.36-63.56l1.35.16L822 831.18l33-38 1.4-2.42c11.2-14 32.07-42.19 30.84-49.27-1.59-9.21-1.44-65.71-1.43-68.11l1.36-.09c3 21.85 7.28 45.13 9.31 46.26.0.0.17.0.58-.2 4.2-2.46 16.64-24.37 28.24-76.32 11.87-53.15 11.29-79.75 11.22-82l-41.84-79.42 1.15-.74 38.59 49.85c.24-9.2.9-50-4.71-81.55A4e2 4e2.0 0 0 911.55 383l-48-80.62c-.36-.71-33.36-66.82-39.3-74.58-5.82-7.6-49.28-15.32-49.72-15.4l.17-1.35c8 .61 29.54 1.34 33.36-2.58a1.52 1.52.0 0 0 .5-1.26c-.73-7.06-21.49-42.07-21.7-42.43l-2.54-4.28L811 185.94l5.53-22.39.3 4.34c0 .2 1.44 20.5 5.54 34 2.14 7 22.11 35.11 39.74 59.93 17.77 25 33.11 46.61 33.48 50.54.28 2.85 4.12 10.14 9 19.38 8.43 16 20 37.9 26.68 60.89 10.58 36.28 10.57 99.42 10.56 101.81.48 2.54 13.65 73.74 10.26 117.33-3.1 39.93-33.63 92.24-39.82 102.49l45.31-18.56.58 1.23c-.48.26-48.66 26.65-56.18 36.45-3.61 4.69-7.11 12.91-11.16 22.42-4.52 10.61-9.64 22.63-16.36 33.23-9.63 15.18-27 35.3-36.33 46.11-3.06 3.54-5.29 6.12-6.21 7.32 2.41 2.62 39.66 4.09 65.67 4.3h.83l-3.22 16-.68-.14c-18.41-4-67.53-13.43-73.58-8.56-7.54 6.07-36.53 31-36.83 31.22l-.09.07L702.58 934c-.39.26-42.4 29-72.89 37.15s-97.5 12.08-98.18 12.12zm5.22-14.06-3.41 12.59c8.28-.51 68.62-4.43 97-12 30.27-8.11 72.08-36.7 72.5-37l81.38-48.7c1.3-1.11 29.4-25.24 36.81-31.21s66.62 6.53 74.06 8.14l2.62-13c-3.5.0-17.52-.21-31.59-.78-33-1.33-34.09-3.45-34.53-4.35a1.18 1.18.0 0 1 .15-1.28c.91-1.2 3.17-3.82 6.31-7.45 9.31-10.78 26.64-30.85 36.21-46 6.66-10.5 11.76-22.47 16.26-33 4.08-9.59 7.61-17.88 11.33-22.72 5.61-7.31 32.1-23 46.79-31.32l-38.8 15.9 1.13-1.8c.37-.59 37.3-59.75 40.71-103.65s-10.11-116.31-10.25-117v-.13c0-.64.17-64.88-10.51-101.49-6.67-22.86-18.18-44.69-26.58-60.63-5.14-9.74-8.84-16.78-9.14-19.89-.34-3.57-17.07-27.11-33.24-49.88-18.55-26.12-37.73-53.13-39.93-60.32-3-9.91-4.6-23.44-5.25-30.14l-4.07 16.45-21.24-20.29c5.62 9.66 18.8 32.86 19.41 38.77a2.84 2.84.0 0 1-.87 2.35c-3.23 3.31-15.94 3.65-25 3.43 13.38 2.77 36.85 8.33 41.28 14.12 6 7.86 38.05 72 39.41 74.76l48.08 80.67v.05A400.53 400.53.0 0 1 931.1 449c6.36 35.72 4.7 83.26 4.68 83.74l-.07 1.88-36.13-46.67 38.34 72.79v.15c0 .26 1.16 27-11.24 82.45C915.4 693.82 903 717.47 897.8 720.51a2.13 2.13.0 0 1-1.69.32c-.84-.25-2.6-.77-6.68-24.34-.84-4.85-1.6-9.72-2.21-13.71.0 17 .23 51.62 1.41 58.46 1.63 9.38-29.33 48.12-31.09 50.31L856.12 794 820.5 835l1.91-42.81c-3.14 16.38-9.6 48.71-12.72 54.53-4.47 8.33-30.57 28.78-53.21 43.75-17.46 11.53-31.41 19-38.11 22.57-2.51 1.34-4.32 2.31-4.77 2.67a.82.82.0 0 1-1 .07c-.46-.31-1.31-.87 3.89-19.7l-15.36 24.26-.25.07c-3.06.87-11.41 3.37-13.17 4.49a.87.87.0 0 1-1 0c-.55-.4-1.22-.89 1.79-14.14.69-3 1.42-6.06 2-8.4l-17.8 28.91-.12.08c-.23.16-23.63 16.15-47.48 25.74C602.31 966.26 541.94 969 535.79 969.26z" fill="#070707"/><path d="M1037 444.94s-83 25-95.86 49.52-4.91 124.65-4.91 124.65 59.43-41.09 81-58.75S1037 444.94 1037 444.94z" fill="#1f9e59"/><path d="M935.6 620.34l-.09-1.18c-.33-4.1-7.78-100.64 5-125s92.86-48.83 96.26-49.85l.86-.26v.9c.07 4 1.52 98.3-20 116-21.33 17.47-80.43 58.37-81 58.78zm100.69-174.48c-8.88 2.76-82.73 26.3-94.58 48.91s-5.76 111.74-4.93 123.1c7.81-5.42 60.19-41.84 80-58C1036.69 543.49 1036.39 455.79 1036.29 445.86z" fill="#070707"/><path d="M820.19 819.48s63-60.75 54.55-113.36-49.5-99.47-49.5-99.47-40.64 28.89-37.79 99.5S820.19 819.48 820.19 819.48z" fill="#1f9e59"/><path d="M820.09 820.53l-.46-.66c-.3-.42-30-43.69-32.86-113.69-1.48-36.65 8.93-61.89 17.92-76.61 9.77-16 20-23.4 20.15-23.47l.5-.36.41.46c.41.47 41.25 47.6 49.67 99.81 4.41 27.4-10.73 56.94-24.21 76.9A257.43 257.43.0 0 1 820.66 820zm5-212.95c-2.15 1.68-10.92 9-19.32 22.76-8.88 14.55-19.15 39.52-17.69 75.78 2.62 64.85 28.43 106.58 32.17 112.3a260.44 260.44.0 0 0 29.8-36.29c13.33-19.75 28.31-49 24-75.91C866.17 657.23 829.46 612.68 825.14 607.58z" fill="#070707"/><path d="M860.35 264.53S839.8 251 829.87 237.65s-74.08-16-74.08-16l-27.38.72s-3.77 37.29 22.66 67.48 41.52 51.88 79.56 52.23S886 336.45 886 336.45z" fill="#1f9e59"/><path d="M833.77 342.74h-3.15c-35-.32-51.06-18.92-73.31-44.68-2.18-2.52-4.42-5.11-6.75-7.78-26.33-30.06-22.87-67.62-22.83-68l.06-.6 28-.73c2.68.12 64.64 2.89 74.65 16.32 9.74 13.07 30.1 26.58 30.3 26.72l.19.12 26 72.79-.65.22C886.08 337.16 869.33 342.74 833.77 342.74zM729 223c-.32 4.9-1.57 38.83 22.55 66.38 2.33 2.66 4.57 5.26 6.75 7.78 22.84 26.43 37.92 43.9 72.3 44.21 33.42.32 51-4.31 54.5-5.35l-25.36-71c-2.11-1.42-21.08-14.34-30.45-26.92-9.63-12.91-72.93-15.74-73.57-15.76z" fill="#070707"/><path d="M942.27 503.22s56-41 68.36-86.37S987.21 294 987.21 294s-50.34 43.56-58.77 69.59S942.27 503.22 942.27 503.22z" fill="#1f9e59"/><path d="M941.81 504.4l-.21-1c-.91-4.64-22.2-114.06-13.81-140s56.91-68.11 59-69.9l.69-.59.38.82a369.23 369.23.0 0 1 16.37 44.51c6.77 22.93 13.5 55.21 7.09 78.8-12.25 45.07-68 86.33-68.62 86.74zM987 295.13c-6.06 5.35-50.13 44.78-57.87 68.68C921.24 388 940.5 490.39 942.73 502c7.13-5.42 56-43.81 67.25-85.35C1021.41 374.58 990.75 303.62 987 295.13z" fill="#070707"/><path d="M926.82 404.34s45.27-57.27 41-115.61-32.14-81.29-32.14-81.29S898.19 227 893.84 271.58 926.82 404.34 926.82 404.34z" fill="#1f9e59"/><path d="M926.64 405.66l-.45-1.06c-.38-.88-37.34-88.86-33-133.09a82.93 82.93.0 0 1 22.74-49.18 84 84 0 0 1 19.48-15.49l.4-.21.35.29c.29.23 7.16 6 14.64 19 6.88 11.95 15.55 32.54 17.75 62.81s-9.11 60.25-19 80a230.12 230.12.0 0 1-22.18 36zm9-197.39c-4.06 2.3-37.07 22.19-41.09 63.37S922.76 392.74 927 403a234.71 234.71.0 0 0 21.34-34.91c9.79-19.63 21-49.33 18.83-79.3C963.24 234.94 938.81 211.17 935.61 208.27z" fill="#070707"/><path d="M796.15 121.38s-28.74-49.17-54.56-64.3S660 43.65 660 43.65s-1.83 27.63 5.77 47.21S799 162.22 799 162.22z" fill="#1f9e59"/><path d="M799.7 163.27l-1-.42c-5.14-2.12-125.93-52.11-133.55-71.74s-5.84-47.23-5.82-47.51v-.62h.62c.55.0 56.25-1.52 81.95 13.53s54.52 64.05 54.81 64.55l.08.14v.15zm-139.06-119c-.2 4.2-1.07 28.7 5.77 46.3 7.06 18.17 119.82 65.57 131.78 70.56l-2.71-39.58c-1.7-2.89-29.53-49.45-54.24-63.92C717.35 43.67 666.85 44.19 660.64 44.31z" fill="#070707"/><path d="M815.41 213.53s-13.62-53.69-66.06-89.31-129.21 2.52-129.21 2.52 42.51 70.83 87.49 78.61S815.41 213.53 815.41 213.53z" fill="#1f9e59"/><path d="M816.29 214.22h-.88c-.63.0-63.38-.49-107.9-8.19-23.43-4.05-46.11-25.32-61-42.45a291.63 291.63.0 0 1-26.94-36.48l-.38-.64.66-.32A200.32 200.32.0 0 1 665 111.46c23.62-4.66 57.5-6.33 84.79 12.2a171.85 171.85.0 0 1 52.9 58.24c9.89 17.75 13.4 31.33 13.43 31.46zM621.12 127c4.39 7.09 44.73 70.41 86.62 77.66 41.49 7.17 98.89 8.07 106.77 8.16-2-7-17.54-55.45-65.54-88-26.88-18.26-60.37-16.61-83.72-12A202.08 202.08.0 0 0 621.12 127z" fill="#070707"/><path d="M894.61 326.45s18.52-94.26 9-130.39-50.83-74.9-50.83-74.9S820.94 169 821.67 202s.52 44.67 14.7 67.31 55.49 62.38 55.49 62.38z" fill="#1f9e59"/><path d="M892.05 332.85l-.66-.63c-.41-.4-41.52-40.06-55.59-62.51-13.83-22.06-14.08-33.61-14.74-64.49l-.07-3.17c-.72-32.86 30.9-80.78 31.22-81.26l.45-.68.58.56c.42.39 41.58 39.31 51 75.22s-8.8 129.75-9 130.69l-.06.18zM852.9 122.22c-3.85 6-31.21 49.5-30.55 79.8l.07 3.17c.66 30.61.91 42.06 14.53 63.8 13 20.75 49.39 56.42 54.73 61.61l2.28-4.38c.68-3.49 18.23-94.92 9-130C894.22 163.05 858 127.13 852.9 122.22z" fill="#070707"/><path d="M927.46 466.49s4.54-55.24-21.25-96.58-120.8-46.33-120.8-46.33S782 365.25 807 401.72s119 69.59 119 69.59z" fill="#1f9e59"/><path d="M926.49 472.19l-.68-.24c-.94-.33-94.55-33.61-119.39-69.85s-21.73-78.16-21.69-78.58v-.66h.66a322.78 322.78.0 0 1 50.85 7.69c24.74 5.88 57.05 17.41 70.5 39 25.61 41.05 21.39 96.44 21.35 97v.14zM786 324.3c-.28 5.48-1.35 43.68 21.51 77 23.47 34.25 109.5 66 118 69.1l1.19-4.07c.17-2.23 3.82-56.07-21.15-96.09-13.2-21.16-45.15-32.54-69.63-38.36A322.18 322.18.0 0 0 786 324.3z" fill="#070707"/><path d="M847.44 488s76.8 58 75.32 91S895.69 705.6 895.69 705.6s-46.47-71.89-60.87-107.16S847.44 488 847.44 488z" fill="#1f9e59"/><path d="M895.94 707.25l-.82-1.28c-.47-.72-46.67-72.35-60.93-107.27-14.33-35.1 12.34-110.14 12.61-110.89l.32-.87.73.56a445.17 445.17.0 0 1 38.28 33.17c25.38 24.85 37.93 44.49 37.31 58.37-1.47 32.67-26.84 125.8-27.09 126.74zm-48.16-218.1c-2.95 8.54-25.63 76.46-12.33 109 13.16 32.21 53.66 95.89 60 105.75 3.27-12.1 25.29-94.7 26.65-125C923.45 548.46 855.68 495.25 847.78 489.15z" fill="#070707"/><path d="M792.06 712.07s22.29 87.87 1.27 125.27-83.52 68.08-83.52 68.08 1.62-89.28 12-125S792.06 712.07 792.06 712.07z" fill="#1f9e59"/><path d="M709.11 906.52v-1.11c0-.89 1.74-89.79 12-125.16 10.34-35.56 70-68.45 70.58-68.78l.77-.42.21.85a403.78 403.78.0 0 1 8.54 48.71c2.69 24.4 3.61 57.59-7.34 77.07C773 874.84 710.74 905.73 710.11 906zm82.5-193.42c-7 4-59.6 34.71-69.14 67.53-9.61 33-11.71 113.19-12 123.67 8.13-4.15 63-33.09 82.21-67.29C812.28 802.24 793.84 722.32 791.61 713.1z" fill="#070707"/><path d="M707 766.52S717.4 813 706 866.33s-81.12 90.15-81.12 90.15S614.69 882 627 837.59 707 766.52 707 766.52z" fill="#1f9e59"/><path d="M624.3 957.53l-.13-1c-.1-.75-10-75.15 2.17-119.16 6.42-23.14 28-41.36 44.91-52.57a216.88 216.88.0 0 1 35.53-19l.74-.29.17.78c.11.46 10.28 47.25-1.06 100.1-6 27.73-27.8 50.89-45.08 65.44a232.19 232.19.0 0 1-36.39 25.16zm82.23-190.06c-7.44 3.09-67.49 29.25-78.87 70.3s-3.4 108.68-2.27 117.63a236 236 0 0 0 35.3-24.54c17.11-14.41 38.73-37.32 44.6-64.67C715.76 817.41 707.8 773.83 706.53 767.47z" fill="#070707"/><path d="M828.47 856.39s42.36 32.35 93.71 32.07 92.18-43.8 92.18-43.8-64.1-50.38-86.3-55.95-102.53 63.87-102.53 63.87z" fill="#1f9e59"/><path d="M921.52 889.14c-50.69.0-93-31.88-93.46-32.21l-.13-.12-3.33-4.33.48-.42c3.3-2.84 80.87-69.58 103.15-64 22.08 5.54 83.93 54 86.55 56.07l.59.46-.51.54a165 165 0 0 1-27 21.9c-15.25 10-39 22-65.71 22.12zM829 855.9c2 1.47 43.3 31.88 92.56 31.88h.66c47.37-.26 86.25-38.06 91.16-43-6.55-5.1-64.78-50.17-85.44-55.35s-94.68 57.52-101.43 63.3z" fill="#070707"/><path d="M825.53 852.58s60.23-23.49 85-26.4S992.6 839 992.6 839s-44.4-3.7-75.72.14-88.41 17.25-88.41 17.25z" fill="#070707"/><path d="M828.2 857.15l-3.76-4.88.84-.33c.61-.23 60.6-23.55 85.12-26.44s81.8 12.68 82.38 12.84l-.24 1.33c-.44.0-44.69-3.64-75.57.14s-87.77 17.11-88.34 17.24zm-1.57-4.27 2.12 2.75c5.32-1.24 58.48-13.54 88-17.17 23.45-2.88 54.54-1.51 68.51-.65-16.14-4.06-55.58-13.2-74.75-10.95C887.8 829.53 834 850 826.63 852.88z" fill="#070707"/><path d="M627 960.89s35.08 41.55 85.29 53.32 98.59-21.14 98.59-21.14-52.8-64.26-73.4-74.91-112.61 38.32-112.61 38.32z" fill="#1f9e59"/><path d="M734.71 1017.42a99.08 99.08.0 0 1-22.6-2.54c-49.86-11.7-85.3-53.13-85.66-53.55l-.09-.14-2.42-5 .58-.31c3.77-2 92.56-49 113.24-38.31 20.49 10.58 71.45 72.45 73.61 75.08l.48.57-.62.42a155.77 155.77.0 0 1-30.61 15.07C768.71 1013.08 752.44 1017.42 734.71 1017.42zm-107.16-56.9c1.59 1.85 36.37 41.65 84.87 53 46.28 10.86 91.59-16.89 97.42-20.63-5.37-6.48-53.51-64.23-72.7-74.15s-103.54 33.88-111.4 38z" fill="#070707"/><path d="M934.47 908.39s-59.74-41.11-103.58-49.84S730.38 918 730.38 918s54.81 34.69 110.75 33S934.47 908.39 934.47 908.39z" fill="#1f9e59"/><path d="M837.19 951.75c-54.13.0-106.64-32.83-107.18-33.17l-.65-.41.49-.6a274.87 274.87.0 0 1 33.92-33.09c18-14.65 44.36-31.15 67.26-26.59 43.47 8.65 103.23 49.53 103.83 49.94l.64.45-.53.57c-.09.11-9.6 10.42-25.83 20.79-15 9.58-38.94 21.18-68 22.05Q839.17 951.75 837.19 951.75zM731.41 917.84c6.43 3.9 57.92 34.08 109.7 32.49 51.39-1.55 87.5-36.87 92.31-41.82-6.67-4.5-61.93-41.18-102.66-49.29-22.38-4.45-48.31 11.85-66.12 26.31A276.83 276.83.0 0 0 731.41 917.84z" fill="#070707"/><path d="M1021.52 743s-78.6-23.72-116.11-4.48-68.53 87.66-68.53 87.66 67.9 12 112.39-1.91S1021.52 743 1021.52 743z" fill="#1f9e59"/><path d="M895.44 831.61a382.43 382.43.0 0 1-58.68-4.78l-.86-.15.36-.8c.31-.69 31.56-68.85 68.84-88 19.54-10 50.23-8.27 72.53-5a340.62 340.62.0 0 1 44.09 9.48l.72.22-.29.69a226.43 226.43.0 0 1-19.51 35.54c-11.46 17-30 38.87-53.17 46.12C933.18 830 913.64 831.61 895.44 831.61zm-57.57-6c8.1 1.32 70.1 10.82 111.2-2s68.41-73 71.52-80.18c-8.05-2.32-80-22.23-114.87-4.31C871 756.9 841.51 817.89 837.87 825.64z" fill="#070707"/><path d="M1062.41 537.4s-75.17-1.64-105.88 33.12S920.47 680.9 920.47 680.9s52.81-9.53 91.81-38.28S1062.41 537.4 1062.41 537.4z" fill="#1f9e59"/><path d="M919.73 681.73l.06-.88c.05-.76 5.72-76.24 36.23-110.78 16-18.1 44.1-26.21 64.85-29.82a242.65 242.65.0 0 1 41.56-3.53h.77l-.11.76a269.52 269.52.0 0 1-10.47 41.94c-7 20.82-19.64 48.76-39.93 63.73-38.69 28.52-91.57 38.31-92.1 38.4zm141.4-143.66c-10 0-76.11 1.23-104.09 32.91C928.62 603.15 922 671.47 921.22 680.06c7-1.4 55-11.67 90.66-38 36.25-26.73 48.42-95.9 49.74-104z" fill="#070707"/><path d="M901.76 907.05s-52.56-20-86.69-16.21-80.05 24-80.05 24 60.94-10.69 81.24-13.11S901.76 907.05 901.76 907.05z" fill="#070707"/><path d="M729.58 916.51l5.16-2.27C735.2 914 781.16 894 815 890.16s86.48 16.06 87 16.26l5.14 2-5.47-.65c-.65-.08-65.36-7.69-85.34-5.31s-80.6 13-81.21 13.11zM824.31 891a82 82 0 0 0-9.16.48c-26.7 3-61 16.21-74.31 21.63 15.85-2.74 59-10.13 75.34-12.08 16.54-2 63.29 2.83 79.8 4.64C883.14 901.3 850.46 891 824.31 891z" fill="#070707"/><path d="M624.84 956.48s63.42-8.81 88.13-5.84 77.72 31.79 77.72 31.79-42.65-14-74-17.63S627 960.89 627 960.89z" fill="#070707"/><path d="M790.48 983.08c-.43-.14-43-14.06-73.86-17.61s-89.07-3.89-89.65-3.9h-.42l-2.73-5.64.93-.13c.63-.09 63.79-8.78 88.31-5.84s77.43 31.59 78 31.87zM627.4 960.21c5.38.0 59.76.51 89.38 3.91 23.41 2.69 53.42 11.29 67 15.41-15-7.76-51.7-25.92-70.84-28.22-22.72-2.72-79.1 4.65-87 5.71z" fill="#070707"/><path d="M998.82 750.58s-68.71 8.2-91.07 21.79-70.87 53.79-70.87 53.79 45.66-29.58 74.23-44S998.82 750.58 998.82 750.58z" fill="#070707"/><path d="M837.25 826.73l-.81-1.09c.49-.41 48.8-40.39 70.95-53.85s88.54-21.55 91.35-21.89l.27 1.33c-.59.17-59.41 17.3-87.59 31.53S837.71 826.44 837.25 826.73zm153.16-74.35c-19.08 2.7-65 10.06-82.31 20.57-16.26 9.89-46.75 34.18-61.85 46.42 15-9.49 44.25-27.58 64.55-37.83C932.74 770.47 973.1 757.66 990.41 752.38z" fill="#070707"/><path d="M1034.15 559.11s-52.28 29-73.5 52.77-50.33 91.62-50.33 91.62 44.58-67.48 55-82.78S1034.15 559.11 1034.15 559.11z" fill="#070707"/><path d="M910.89 703.87l-1.19-.64c.29-.68 29.39-68.19 50.44-91.81s73.15-52.61 73.68-52.9l.75 1.13c-.58.46-58.38 46.41-68.66 61.45S911.34 703.2 910.89 703.87zm115.93-139.75c-15.31 9-49.62 30.21-65.66 48.21-16.76 18.8-38.73 65.77-46.93 84 11.58-17.51 42.19-63.76 50.56-76S1011 576.91 1026.82 564.12z" fill="#070707"/><path d="M959.35 537.09c8.24-15.35 63.79-78.22 63.79-78.22s-34.95 49.24-50.91 75.59c-6.17 10.18-11.94 23.64-16.69 36.32a68.21 68.21.0 0 0-7.73 9.53C950.89 563.88 955.1 545 959.35 537.09z" fill="#070707"/><path d="M946.52 583.5l.62-3.31c2.86-15.28 7.21-35.22 11.61-43.42h0c8.18-15.25 61.61-75.78 63.88-78.35l1.07.85c-.35.49-35.13 49.51-50.89 75.54-5.32 8.79-10.92 21-16.63 36.2v.14l-.1.1a67.4 67.4.0 0 0-7.66 9.44zM960 537.41h0c-3.25 6.07-7 19.83-10.88 39.92A73 73 0 0 1 955 570.4c5.73-15.25 11.34-27.46 16.69-36.29C983 515.43 1004 485 1015.19 469 999.31 487.24 966.11 525.94 960 537.41z" fill="#070707"/><path d="M977.37 409.33c7.32-37.71 12.5-79.34 12.5-79.34s-.26 63.1-5 82.41c-3.1 12.51-19.38 46.72-30.48 69.28-1.72 1.61-4.2 2.12-6.46 2.82C956.22 468.84 972.07 436.65 977.37 409.33z" fill="#070707"/><path d="M946.52 485.64l.78-1.46c8.73-16.43 24.17-48 29.4-75h0c7.23-37.25 12.44-78.88 12.5-79.29l1.35.08c0 .63-.31 63.41-5 82.58-3 12.23-18.27 44.49-30.53 69.41l-.05.11-.09.09a13.5 13.5.0 0 1-5.65 2.65l-1.08.32zM978 409.46c-5.12 26.36-19.9 57.07-28.78 73.92a11.64 11.64.0 0 0 4.55-2.12c10-20.37 27.22-56.3 30.37-69 3.46-14 4.54-51.74 4.87-70.84-2 15-6.06 42.55-11 68.06z" fill="#070707"/><path d="M929.77 241.3s-10.75 56.56-10.66 76 3 78.22 3 78.22-14.35-62.45-11.75-83.76S929.77 241.3 929.77 241.3z" fill="#070707"/><path d="M921.45 395.65c-.59-2.56-14.35-62.81-11.77-84s19.28-70.09 19.45-70.59l1.31.35c-.1.57-10.74 56.72-10.65 75.85s3 77.61 3 78.19zm5.89-144.86c-5 15.3-14.43 45.65-16.3 61-2 16.43 6.27 58.1 10 75.6-.8-16.84-2.55-55.27-2.61-70.15C918.36 302.89 924.29 267.84 927.34 250.79z" fill="#070707"/><path d="M853.5 154.67s-8.24 63.9-1.25 92.7 42.6 90.25 42.6 90.25-23.61-64.11-31-97.77S853.5 154.67 853.5 154.67z" fill="#070707"/><path d="M894.26 338c-.35-.61-35.73-61.87-42.67-90.43s1.15-92.3 1.23-92.94h1.36c0 .51 3.12 51.85 10.38 85.07s30.7 97 30.93 97.67zM853.32 162.13c-1.89 17.64-5.89 62.5-.4 85.08s29.05 66.07 38.54 83C885 312.23 869 266.47 863.23 240 857.6 214.24 854.47 177.65 853.32 162.13z" fill="#070707"/><path d="M800.46 176.33c-2.17-2-35.09-64.85-47.25-77.25s-71.39-39.42-71.39-39.42 56.38 37.64 68.92 53.45S800.46 176.33 800.46 176.33z" fill="#070707"/><path d="M8e2 176.83a3 3 0 0 1-.4-.5c-3.71-4.73-37.62-48-49.39-62.8C737.88 98 682 60.6 681.45 60.22l.66-1.18c2.42 1.1 59.47 27.22 71.59 39.57 8.44 8.61 26.92 41.54 38 61.22 4.11 7.34 7.73 13.78 8.93 15.56l.41.52zM689.29 63.9c15.61 10.68 52.06 36.27 62 48.78 9.18 11.59 31.86 40.47 43.14 54.84l-3.95-7c-11-19.62-29.43-52.46-37.75-60.94C743.42 90.08 705.75 71.68 689.29 63.9z" fill="#070707"/><path d="M815.16 213.05S752.52 159 726.57 149.34s-85.27-14.85-85.27-14.85 78 19.81 86.78 24.33S815.16 213.05 815.16 213.05z" fill="#070707"/><path d="M814.79 213.63c-.78-.5-78.38-49.75-87-54.21s-85.86-24.07-86.63-24.27l.22-1.34c.6.06 59.71 5.36 85.45 14.89S815 212 815.61 212.54zM650.21 136.07c20.71 5.33 71.12 18.5 78.18 22.14s58.25 36 78.76 49c-17.46-14.61-60.62-49.7-80.82-57.19C706.8 142.74 667.8 138 650.21 136.07z" fill="#070707"/><path d="M884 328.64c-2.21-.53-31.53-41.95-48.12-54S759 243.39 759 243.39s43 18.9 71.38 39.91S886 336.45 886 336.45z" fill="#070707"/><path d="M887.46 339.19l-2-2.29c-.28-.33-27.56-32.34-55.55-53.06S759.15 244.2 758.72 244l.48-1.27c2.46.78 60.54 19.45 77 31.39 11.12 8.05 27.56 28.77 38.44 42.47 4.44 5.6 8.64 10.89 9.48 11.39l.35.09zM770.13 247.81c14.67 7 41.21 20.55 60.65 34.94 23.81 17.63 47.11 43.39 53.83 51l-1.24-4.7c-1.08-.77-3.41-3.63-9.76-11.64-10.83-13.65-27.21-34.28-38.17-42.22C823.51 266.6 788.41 254 770.13 247.81z" fill="#070707"/><path d="M938.16 486.14s-25.77-67.07-49.2-91.85-80.86-53.71-80.86-53.71 55.41 42 77 68.19 51.5 87.05 51.5 87.05z" fill="#070707"/><path d="M937 498.06l-1-1.94c-.3-.61-30.07-61.08-51.41-86.92s-76.39-67.66-76.94-68.08l.72-1.15c.57.29 57.79 29.26 81 53.85s49.09 91.4 49.34 92.08l.07.17zM814.64 344.76c15.06 11.75 53.87 42.78 71 63.57C905 431.67 931 483 936.31 493.59l1.15-7.37c-1.47-3.77-26.49-67.66-49-91.47C870.17 375.41 830.57 353.27 814.64 344.76z" fill="#070707"/><path d="M890.83 729.77s11.1-100.25 7.54-123.14-39.12-86.78-39.12-86.78 18.49 53.32 25 87S890.83 729.77 890.83 729.77z" fill="#070707"/><path d="M891.5 729.84l-1.36-.07c0-.9-.22-89.65-6.6-122.84s-24.75-86.32-24.93-86.85l1.24-.56c1.45 2.61 35.65 64.25 39.19 87S892 725.74 891.5 729.84zM862.41 527.08c5.3 15.89 17.5 53.75 22.47 79.6s6.22 85.5 6.53 111.07c2.8-27.29 9.06-93.19 6.29-111C894.88 588.66 871.65 544.22 862.41 527.08z" fill="#070707"/><path d="M820.19 819.48s27.55-80 26.22-103.79-20.68-79.58-20.68-79.58 9 41.46 10.12 76.44S820.19 819.48 820.19 819.48z" fill="#070707"/><path d="M820.84 819.71l-1.31-.38c.17-.72 16.75-72.28 15.63-106.76s-10-75.9-10.09-76.32l1.31-.36c.19.55 19.38 56.12 20.71 79.76S822 816.44 820.84 819.71zm7.64-173.19c2.74 14.63 7.27 42 8 66 .83 25.79-8.16 72.1-12.88 94.42 7.61-23.39 23.07-73.43 22.08-91.21C844.75 698.43 834.09 663.75 828.48 646.52z" fill="#070707"/><path d="M784 743.45s-9.15 65.82-18.4 87.95-56.25 76.92-55.76 74 37.24-53.07 48.4-82.92S784 743.45 784 743.45z" fill="#070707"/><path d="M709.86 906.22a.59.59.0 0 1-.2.0.74.74.0 0 1-.52-.87c.16-.95 2.47-4.46 8.14-13 11.32-17.09 32.39-48.9 40.29-70 11-29.49 25.6-78.51 25.75-79l1.33.28c-.09.66-9.28 66.16-18.46 88.12C761 844 744.68 865.49 735.41 877.17c-5.74 7.23-11.93 14.68-17 20.45C711.66 905.35 710.4 906.22 709.86 906.22zm72.08-153.67c-4.75 15.6-14.9 48.27-23.09 70.19-8 21.29-29.09 53.18-40.44 70.31-2.44 3.68-4.68 7.07-6.15 9.4 10.1-10.66 45-53 52.68-71.32C772 814.29 779.05 771.46 781.94 752.55z" fill="#070707"/><path d="M695.3 803.16S690 854 678.46 878s-53.62 78.44-53.62 78.44S665 887 672.4 871.11 695.3 803.16 695.3 803.16z" fill="#070707"/><path d="M625.38 956.89l-1.13-.76c.4-.69 40.26-69.66 47.53-85.31s22.71-67.33 22.87-67.85l1.33.26c-.05.51-5.49 51.25-16.9 75.1S625.8 956.35 625.38 956.89zm68.29-146c-4.6 15.05-15 48.43-20.66 60.5-5.68 12.23-31.11 56.78-42.28 76.23 12.25-16.25 38.5-51.86 47.12-69.88S691.67 826.08 693.67 810.89z" fill="#070707"/><path d="M908.27 726.81s49.93 14.32 98-5.38 72.76-76 72.76-76-76-23-98.59-19.84-76.17 98.75-76.17 98.75z" fill="#1f9e59"/><path d="M950.16 732.46c-24.19.0-41.78-4.91-42.08-5l-.17-.08-4.51-2.81.31-.57c2.2-3.91 54-95.9 76.68-99.09 22.48-3.16 95.77 18.93 98.88 19.87l.73.22-.31.71a180.77 180.77.0 0 1-18.41 30.74c-11.17 15.16-29.72 35.38-54.72 45.61C987 730.09 967 732.46 950.16 732.46zm-41.61-6.29c2.4.67 51.13 13.62 97.5-5.37 44.41-18.18 69-68.4 72.07-74.94-7.95-2.37-76.56-22.55-97.54-19.6s-70.87 89.94-75.36 97.84z" fill="#070707"/><path d="M904.31 724.34s49.15-44.85 71.45-56.93 81.1-19 81.1-19-42.84 13.33-71 28.79-77.56 49.66-77.56 49.66z" fill="#070707"/><path d="M908.29 727.62l-5.1-3.18.66-.61c.49-.44 49.47-45 71.58-57s80.76-19.06 81.35-19.13l.28 1.33c-.42.13-43.09 13.49-70.9 28.74s-77 49.27-77.5 49.62zm-2.85-3.38 2.81 1.75c4.6-3.17 50.64-34.84 77.26-49.44 21.12-11.58 50.74-22.07 64.11-26.55-16.45 2.31-56.28 8.66-73.54 18C955.52 679.15 911.39 718.84 905.44 724.24z" fill="#070707"/><path d="M793.64 1.46s57.05 58 57 99.09-36.07 99.2-36.07 99.2-38.63-72-46.33-106S793.64 1.46 793.64 1.46z" fill="#1f9e59"/><path d="M814.56 201.11l-.56-1c-.38-.72-38.77-72.46-46.39-106.18C759.94 60 792.72 1.7 793.05 1.12l.45-.79.63.65a337.25 337.25.0 0 1 28.59 34.2c13.07 18 28.64 43.94 28.63 65.37.0 40.83-35.81 99-36.17 99.56zM793.79 2.59c-3.9 7.12-31.92 59.78-24.86 91s40.92 95.74 45.71 104.78C819.41 190.43 850 138 850 100.55 850 62.51 8e2 9.12 793.79 2.59z" fill="#070707"/><path d="M801.23 30.8s22.14 57.36 24.67 80-10.39 91.57-11.3 89 5.93-62.33 1.46-92.11S801.23 30.8 801.23 30.8z" fill="#070707"/><path d="M814.67 200.5A.73.73.0 0 1 814 2e2c-.28-.81-.07-4.26.66-14.74 1.37-19.71 3.93-56.39.77-77.49C811 78.32 800.67 31.42 800.57 31l1.3-.39c.22.57 22.2 57.69 24.71 80.13 1.42 12.66-2 38.57-4.18 52.89-1.34 8.86-2.94 18.13-4.38 25.44-2.22 11.24-2.67 11.34-3.19 11.46zM803.85 39.71c3.23 15.18 9.65 46.21 12.89 67.83 3.18 21.24.62 58-.76 77.79-.27 3.85-.52 7.42-.66 10 3.41-14.84 12-65.92 9.91-84.52C823.32 93.84 810.1 56.62 803.85 39.71z" fill="#070707"/><path d="M444.19 174.1s-82.83-46.92-108.62-29.92-88.92 85.95-88.92 85.95 79.69 11 114.81 8.3S444.19 174.1 444.19 174.1z" fill="#1f9e59"/><path d="M348.59 239.54c-38.37.0-101.32-8.64-102-8.74l-1.29-.18.88-1c.63-.69 63.48-69.21 89-86.06 10.9-7.18 32.63-4.31 64.62 8.52a424 424 0 0 1 44.72 21.38l.68.39-.48.62a328.54 328.54.0 0 1-28.25 31.22c-21.74 21-40.23 32.23-55 33.37C357.69 239.4 353.33 239.54 348.59 239.54zM248 229.63c10.44 1.4 81.16 10.62 113.37 8.12 32.54-2.51 76.62-57 81.75-63.44-8-4.46-83.3-45.33-107.22-29.56C312.17 160.42 255.78 221.23 248 229.63z" fill="#070707"/><path d="M261.11 226.79s60.12-48.73 76.75-54 75.21 4.87 75.21 4.87-43.58 2.35-68.6 8.86S261.11 226.79 261.11 226.79z" fill="#070707"/><path d="M261.45 227.38l-.77-1.12c2.46-2 60.41-48.87 77-54.08s73.13 4.43 75.53 4.85l5.95 1-6 .33c-.43.0-43.79 2.42-68.46 8.84S262 227 261.45 227.38zM352.5 172c-6 0-11.1.42-14.44 1.48-13 4.1-53.74 35.73-69.86 48.51 16.58-9.27 56.61-31 76.1-36.09 19.27-5 49.83-7.58 62.7-8.49C395.58 175.63 370.14 172 352.5 172z" fill="#070707"/><path d="M305 395.82S211.8 391.92 195 419.33s-47.26 119.24-47.26 119.24 76.41-27.14 107.17-46S305 395.82 305 395.82z" fill="#1f9e59"/><path d="M146.67 539.68l.44-1.32c.31-.92 30.71-92.22 47.33-119.38 7.07-11.56 27.86-19.09 61.77-22.36A402.4 402.4.0 0 1 305 395.14h.83l-.2.81a365.71 365.71.0 0 1-13.5 41.42c-11.56 29.13-23.94 47.9-36.83 55.78-30.46 18.65-106.53 45.76-107.29 46zm147-143.35c-25.27.0-85.13 2.28-98 23.36-15.44 25.23-42.92 106.37-46.75 117.77 10.28-3.7 77.59-28.22 105.72-45.44 28.49-17.43 47.34-87.18 49.51-95.55C302.5 396.42 298.78 396.33 293.63 396.33z" fill="#070707"/><path d="M138.49 561.13s45.71-87.64 61-103.65 78.64-43.9 78.64-43.9-43.87 30.6-67.38 53.32S138.49 561.13 138.49 561.13z" fill="#070707"/><path d="M139.06 561.52l-1.17-.7c1.87-3.58 45.92-87.91 61.14-103.82s76.26-42.91 78.85-44.05l.67 1.18c-.44.31-44.1 30.84-67.3 53.26S139.54 560.8 139.06 561.52zM272 417.09c-16.47 7.56-59.82 28.13-72 40.86-12 12.52-43.1 69.93-55.6 93.43 14.09-20.19 47.7-67.39 65.88-85S259.32 426.21 272 417.09z" fill="#070707"/><path d="M256.49 782.33s10.3 56.09 14.42 63.76 28.81 27.53 53 43.51 41.13 23.85 42.92 25.27-5.24-23.41-5.24-23.41l8.61 13.63 9.1 14.36s11.12 3.16 13.36 4.56-4.9-26.1-4.9-26.1l20.05 32.57s23.3 16 47.36 25.66 89.57 12.12 89.57 12.12l3.8 14s-67.31-3.86-98-12.09-72.71-37.08-72.71-37.08l-81.39-48.71s-29.21-25.09-36.84-31.23-74.16 8.42-74.16 8.42l-2.92-14.5s69.88-.56 66.26-5.34-29.8-33.33-42.55-53.44-19.85-45.68-27.56-55.7S122.21 696 122.21 696l47.24 19.35s-37.35-59.38-40.81-104S138.9 494.12 138.9 494.12s-.29-64.55 10.54-101.69 34.95-72.6 35.69-80.39 69-96.65 73.2-110.34 5.57-34.1 5.57-34.1l4.77 19.31 23.92-22.85s-21 35.41-21.78 42.71 34.58 4.58 34.58 4.58S261.3 219.11 255.25 227s-39.34 74.65-39.34 74.65l-48.08 80.66a396.37 396.37.0 0 0-18.26 66.42c-6.42 36.07-4.67 83.6-4.67 83.6L184.66 481l-41.9 79.55s-1.3 26.24 11.22 82.28 26.19 78.07 29.71 77S193.46 673 193.46 673s.18 58.73-1.42 68 31 49.81 31 49.81l1.37 2.4 34.34 39.54z" fill="#070707"/><path d="M549.43 983l-.94-.06c-.68.0-67.73-4-98.18-12.11s-72.5-36.89-72.93-37.18L296 884.93v0c-.3-.25-29.29-25.16-36.83-31.22-6.05-4.87-55.17 4.52-73.59 8.55l-.67.15-3.22-16h.83c26-.21 63.25-1.68 65.66-4.31-.93-1.21-3.15-3.78-6.2-7.31-9.33-10.81-26.7-30.93-36.33-46.11-6.72-10.6-11.84-22.63-16.36-33.24-4-9.51-7.55-17.72-11.16-22.42-7.52-9.8-55.7-36.18-56.18-36.45l.58-1.23 45.31 18.57c-6.19-10.25-36.72-62.56-39.82-102.49-3.39-43.59 9.78-114.8 10.25-117.33.0-2.39.0-65.54 10.57-101.82 6.7-23 18.25-44.89 26.68-60.88 4.87-9.24 8.72-16.54 9-19.38.38-3.93 15.72-25.53 33.49-50.55 17.62-24.81 37.6-52.94 39.74-59.93 4.1-13.45 5.53-33.74 5.54-33.95l.3-4.34 5.53 22.4 26.67-25.48-2.55 4.28c-.2.35-21 35.36-21.69 42.43a1.5 1.5.0 0 0 .5 1.25c3.82 3.93 25.37 3.2 33.36 2.58l.17 1.35c-.44.08-43.9 7.81-49.72 15.41-5.94 7.76-38.94 73.87-39.27 74.53l-48.08 80.66a401.94 401.94.0 0 0-18.2 66.24c-5.61 31.53-5 72.35-4.72 81.56l38.6-49.85 1.14.73-41.83 79.42c-.07 2.21-.66 28.81 11.22 81.95 11.6 52 24 73.86 28.24 76.33a.94.94.0 0 0 .61.19c2-1.12 6.3-24.4 9.28-46.25l1.36.09c0 2.4.16 58.9-1.43 68.11-1.23 7.08 19.64 35.32 30.84 49.26l.06.09 1.34 2.34 33 38-2.16-48.48 1.36-.15c.1.56 10.33 56.06 14.35 63.56 3.85 7.17 27.52 26.57 52.77 43.26 17.41 11.5 31.32 18.94 38 22.51 1.94 1 3.29 1.76 4.13 2.25-.35-3.06-2.92-13.12-5.48-22.14l-1.29-4.54 20.09 31.76c1.58.45 9.78 2.83 12.68 4.24.0-2.82-2.57-14.44-5.32-25L386 893.69 408.31 930c1.83 1.24 24.26 16.33 47.1 25.51 23.68 9.51 88.69 12 89.35 12.07h.5zM296.78 883.82l81.34 48.67c.46.31 42.27 28.91 72.54 37 28.34 7.59 88.67 11.51 97 12l-3.42-12.6c-6.14-.25-66.51-3-89.3-12.15-23.85-9.58-47.25-25.57-47.48-25.73l-.12-.08-.08-.12-17.7-28.76c5.36 21.34 4.18 22.21 3.77 22.5a.87.87.0 0 1-1 0c-1.76-1.11-10.11-3.61-13.17-4.48l-.25-.07L363.5 895.77c5.2 18.83 4.35 19.39 3.89 19.71a.82.82.0 0 1-1-.08c-.45-.35-2.26-1.32-4.76-2.66-6.7-3.58-20.65-11-38.12-22.58-22.64-15-48.74-35.42-53.21-43.75-3.12-5.81-9.58-38.15-12.72-54.52l1.91 42.8-35.7-41.13-1.34-2.35c-1.76-2.19-32.72-40.92-31.1-50.31 1.19-6.84 1.39-41.48 1.42-58.46-.61 4-1.37 8.86-2.21 13.72-4.08 23.56-5.84 24.08-6.69 24.34a2.13 2.13.0 0 1-1.68-.33c-5.18-3-17.6-26.68-28.88-77.2-12.4-55.49-11.26-82.2-11.25-82.46v-.15l.07-.13 38.27-72.65-36.13 46.66-.07-1.87c0-.48-1.68-48 4.68-83.75a400.24 400.24.0 0 1 18.3-66.54v-.1l48.08-80.67c1.34-2.68 33.37-66.85 39.39-74.71 4.43-5.79 27.9-11.36 41.28-14.12-9.05.21-21.76-.12-25-3.44a2.81 2.81.0 0 1-.87-2.34c.61-5.91 13.79-29.12 19.4-38.78l-21.23 20.3-4.07-16.46C263.58 178.47 262 192 259 201.9c-2.2 7.2-21.38 34.21-39.93 60.32-16.17 22.78-32.9 46.32-33.24 49.89-.3 3.11-4 10.15-9.14 19.89-8.41 15.94-19.91 37.77-26.58 60.63-10.68 36.61-10.51 100.84-10.51 101.49v.13c-.14.72-13.67 73-10.25 117S169.66 714.35 170 714.94l1.13 1.8-38.8-15.9c14.69 8.36 41.18 24 46.79 31.32 3.72 4.83 7.25 13.12 11.33 22.72 4.5 10.56 9.6 22.53 16.26 33 9.58 15.1 26.91 35.17 36.22 46 3.13 3.62 5.39 6.24 6.3 7.44a1.18 1.18.0 0 1 .15 1.28c-.44.91-1.48 3-34.53 4.36-14.07.57-28.09.74-31.59.78l2.62 13c7.44-1.6 66.6-14.14 74.06-8.13S295.48 882.7 296.78 883.82z" fill="#070707"/><path d="M43 444.61s83 25 95.86 49.51 4.91 124.65 4.91 124.65-59.43-41.09-81-58.74S43 444.61 43 444.61z" fill="#1f9e59"/><path d="M144.4 620l-1-.68c-.6-.41-59.7-41.31-81-58.77-21.56-17.66-20.11-112-20-116v-.9l.86.26c3.4 1 83.44 25.4 96.26 49.86s5.32 120.92 5 125zM43.71 445.52c-.1 9.93-.4 97.64 19.55 114 19.77 16.2 72.14 52.61 80 58 .83-11.36 6.92-100.49-4.93-123.09S52.59 448.29 43.71 445.52z" fill="#070707"/><path d="M259.81 819.15s-63-60.75-54.55-113.37 49.5-99.46 49.5-99.46 40.63 28.88 37.79 99.49S259.81 819.15 259.81 819.15z" fill="#1f9e59"/><path d="M259.91 820.19l-.58-.55a259.22 259.22.0 0 1-30.54-37.06c-13.48-20-28.62-49.51-24.21-76.91 8.42-52.2 49.26-99.33 49.67-99.8l.41-.46.5.35c.1.07 10.38 7.49 20.14 23.47 9 14.72 19.41 40 17.93 76.61-2.82 70-32.56 113.27-32.86 113.7zm-5.05-212.94c-4.31 5.09-41 49.65-48.93 98.64-4.35 27 10.64 56.15 24 75.9a260.79 260.79.0 0 0 29.8 36.3c3.74-5.73 29.55-47.46 32.17-112.3 1.46-36.31-8.83-61.29-17.73-75.85C265.74 616.19 257 608.92 254.86 607.25z" fill="#070707"/><path d="M219.65 264.2s20.55-13.56 30.48-26.88 74.08-16 74.08-16l27.38.71s3.77 37.3-22.66 67.49-41.53 51.88-79.56 52.23-55.4-5.59-55.4-5.59z" fill="#1f9e59"/><path d="M246.23 342.4c-35.56.0-52.31-5.58-52.48-5.63l-.65-.23 26-72.78.19-.13c.2-.13 20.56-13.64 30.3-26.72 10-13.43 72-16.2 74.6-16.31l28 .73.06.6c0 .37 3.5 37.93-22.83 68-2.33 2.66-4.57 5.26-6.75 7.78-22.25 25.75-38.33 44.36-73.32 44.68zm-51.37-6.72c3.51 1 21.07 5.66 54.5 5.34 34.37-.31 49.46-17.77 72.3-44.2 2.18-2.53 4.42-5.12 6.75-7.79 24.13-27.56 22.87-61.48 22.55-66.37l-26.77-.7c-.59.0-63.89 2.85-73.52 15.77-9.37 12.58-28.34 25.49-30.45 26.91z" fill="#070707"/><path d="M137.73 502.89s-56-41-68.36-86.37S92.79 293.67 92.79 293.67s50.33 43.56 58.77 69.59S137.73 502.89 137.73 502.89z" fill="#1f9e59"/><path d="M138.19 504.07l-.86-.63C136.76 503 81 461.77 68.71 416.7c-6.41-23.59.32-55.88 7.09-78.81a368.65 368.65.0 0 1 16.37-44.5l.38-.83.69.6c2.06 1.78 50.57 44 59 69.89s-12.9 135.32-13.81 140zM93 294.79c-3.79 8.5-34.45 79.45-23 121.55 11.29 41.53 60.12 79.92 67.25 85.35 2.23-11.64 21.49-114 13.64-138.22C143.17 339.57 99.1 300.14 93 294.79z" fill="#070707"/><path d="M153.18 404s-45.27-57.26-41-115.6 32.14-81.29 32.14-81.29 37.51 19.57 41.86 64.13S153.18 404 153.18 404z" fill="#1f9e59"/><path d="M153.36 405.33l-.71-.9a230.54 230.54.0 0 1-22.18-36.05c-9.88-19.79-21.2-49.74-19-80s10.87-50.87 17.75-62.82c7.48-13 14.35-18.71 14.64-18.95l.35-.28.4.2A84.25 84.25.0 0 1 164.1 222a82.9 82.9.0 0 1 22.74 49.18c4.31 44.22-32.65 132.21-33 133.09zm-9-197.39c-3.2 2.89-27.63 26.67-31.55 80.5-2.18 30 9 59.67 18.83 79.31A234.38 234.38.0 0 0 153 402.65c4.23-10.25 36.49-90.11 32.47-131.34S148.45 210.23 144.39 207.94z" fill="#070707"/><path d="M283.85 121.05s28.74-49.18 54.56-64.3S420 43.31 420 43.31s1.83 27.63-5.77 47.22-133.18 71.36-133.18 71.36z" fill="#1f9e59"/><path d="M280.29 162.93l2.89-42.09.08-.14c.29-.49 29.13-49.5 54.81-64.54S419.46 42.61 420 42.63h.62v.62c0 .27 1.76 28-5.82 47.5S286.45 160.4 281.31 162.52zm4.23-41.68-2.72 39.58c12-5 124.73-52.38 131.79-70.55 6.84-17.6 6-42.1 5.77-46.3-6.21-.13-56.71-.65-80.6 13.35C314.05 71.81 286.22 118.37 284.52 121.25z" fill="#070707"/><path d="M264.59 213.2s13.62-53.7 66.06-89.31 129.21 2.51 129.21 2.51S417.35 197.23 372.37 205 264.59 213.2 264.59 213.2z" fill="#1f9e59"/><path d="M263.71 213.88l.22-.85c0-.14 3.54-13.72 13.43-31.46a171.86 171.86.0 0 1 52.9-58.25c27.28-18.52 61.17-16.86 84.79-12.2a200.91 200.91.0 0 1 45.11 14.67l.66.33-.38.63a291.66 291.66.0 0 1-26.94 36.49c-14.9 17.13-37.58 38.39-61 42.45-44.52 7.7-107.27 8.18-107.9 8.19zM385.06 109.41c-17.87.0-37.24 3.64-54 15-48 32.61-63.5 81-65.54 88.06 7.88-.09 65.28-1 106.77-8.17 41.89-7.24 82.23-70.57 86.62-77.65a201.87 201.87.0 0 0-44.13-14.24A154.64 154.64.0 0 0 385.06 109.41z" fill="#070707"/><path d="M185.39 326.11s-18.52-94.25-9-130.38 50.84-74.9 50.84-74.9 31.83 47.85 31.11 80.87-.52 44.67-14.71 67.32-55.48 62.37-55.48 62.37z" fill="#1f9e59"/><path d="M188 332.52l-3.23-6.27c-.19-.95-18.44-94.83-9-130.7s50.61-74.83 51-75.22l.58-.55.45.67c.32.48 31.94 48.41 31.22 81.27l-.07 3.17c-.67 30.87-.91 42.43-14.74 64.49-14.07 22.45-55.18 62.11-55.59 62.51zM186 325.89l2.28 4.38c5.34-5.19 41.72-40.86 54.73-61.62 13.62-21.74 13.87-33.19 14.53-63.79l.07-3.17c.66-30.31-26.7-73.83-30.55-79.8-5.08 4.91-41.32 40.83-50.06 74C167.81 231 185.36 322.39 186 325.89z" fill="#070707"/><path d="M152.54 466.15s-4.54-55.24 21.25-96.58 120.8-46.33 120.8-46.33S298 364.91 273 401.38 154 471 154 471z" fill="#1f9e59"/><path d="M153.51 471.86l-1.65-5.65c0-.56-4.26-55.94 21.35-97 13.45-21.55 45.76-33.09 70.5-39a320.66 320.66.0 0 1 50.85-7.68h.66v.66c0 .41 3.15 42.33-21.7 78.58s-118.44 69.52-119.39 69.85zm-.29-5.83 1.19 4.06C163 467 249 435.25 272.45 401c22.85-33.35 21.79-71.55 21.51-77a323.51 323.51.0 0 0-50 7.61c-24.48 5.83-56.43 17.21-69.63 38.36C149.4 410 153.05 463.8 153.22 466z" fill="#070707"/><path d="M232.56 487.71s-76.8 58-75.32 91 27.07 126.6 27.07 126.6 46.47-71.89 60.87-107.16S232.56 487.71 232.56 487.71z" fill="#1f9e59"/><path d="M184.05 706.92l-.4-1.47c-.25-.94-25.62-94.07-27.09-126.75-.62-13.88 11.93-33.51 37.31-58.36a448.47 448.47.0 0 1 38.28-33.18l.73-.56.32.87c.27.76 26.94 75.79 12.61 110.9-14.26 34.92-60.46 106.55-60.93 107.27zm48.17-218.1c-7.9 6.1-75.67 59.3-74.3 89.82 1.36 30.26 23.38 112.87 26.65 125 6.32-9.86 46.82-73.54 60-105.76C257.85 565.28 235.17 497.36 232.22 488.82z" fill="#070707"/><path d="M287.94 711.74s-22.3 87.87-1.27 125.27 83.52 68.08 83.52 68.08-1.63-89.29-12-125S287.94 711.74 287.94 711.74z" fill="#1f9e59"/><path d="M370.89 906.19l-1-.49c-.63-.31-62.92-31.2-83.81-68.36-10.95-19.48-10-52.66-7.34-77.07a403.37 403.37.0 0 1 8.54-48.7l.21-.85.77.42c.6.33 60.24 33.22 70.58 68.78 10.28 35.37 12 124.26 12 125.15zm-82.5-193.42c-2.23 9.22-20.67 89.14-1.12 123.91 19.22 34.2 74.08 63.14 82.21 67.29-.24-10.49-2.35-90.64-12-123.67C348 747.48 295.43 716.76 288.39 712.77z" fill="#070707"/><path d="M373 766.19S362.6 812.69 374 866s81.12 90.14 81.12 90.14 10.15-74.49-2.16-118.88S373 766.19 373 766.19z" fill="#1f9e59"/><path d="M455.7 957.2l-.86-.46a232.51 232.51.0 0 1-36.39-25.15c-17.28-14.55-39.13-37.72-45.08-65.45C362 813.29 372.2 766.51 372.31 766l.17-.78.74.29a217.43 217.43.0 0 1 35.53 19c16.94 11.21 38.49 29.43 44.91 52.56 12.2 44 2.27 118.42 2.17 119.16zM373.47 767.13c-1.27 6.36-9.23 49.94 1.24 98.73 5.86 27.34 27.49 50.26 44.6 64.66a235.58 235.58.0 0 0 35.3 24.55c1.13-9 9.1-76.63-2.27-117.63S380.9 770.23 373.47 767.13z" fill="#070707"/><path d="M251.53 856.06s-42.37 32.34-93.71 32.06-92.18-43.8-92.18-43.8 64.1-50.38 86.3-55.94 102.53 63.86 102.53 63.86z" fill="#1f9e59"/><path d="M158.48 888.8h-.67c-26.69-.15-50.46-12.11-65.71-22.12a164.15 164.15.0 0 1-27-21.89l-.51-.55.58-.46c2.63-2.06 64.48-50.53 86.56-56.06 22.29-5.6 99.85 61.16 103.14 64l.49.42-3.46 4.45C251.52 856.92 209.17 888.8 158.48 888.8zM66.65 844.39c4.92 5 43.8 42.79 91.17 43.05h.66c49.26.0 90.6-30.4 92.56-31.87l2.49-3.23c-6.75-5.78-80.72-68.5-101.43-63.3S73.21 839.28 66.65 844.39z" fill="#070707"/><path d="M254.47 852.24s-60.23-23.49-84.95-26.39S87.4 838.66 87.4 838.66s44.4-3.7 75.72.14 88.41 17.26 88.41 17.26z" fill="#070707"/><path d="M251.8 856.82l-.43-.1c-.57-.13-57.41-13.45-88.34-17.24s-75.13-.18-75.58-.14L87.22 838c.57-.15 57.81-15.72 82.37-12.83s84.52 26.2 85.13 26.44l.84.33zm-123-20.43a293.16 293.16.0 0 1 34.4 1.74c29.57 3.63 82.73 15.92 88.05 17.16l2.12-2.74c-7.41-2.86-61.17-23.35-83.93-26-19.16-2.25-58.61 6.9-74.75 11C102.31 837 115 836.39 128.8 836.39z" fill="#070707"/><path d="M453 960.56s-35.08 41.54-85.29 53.32-98.59-21.15-98.59-21.15 52.8-64.26 73.4-74.9 112.61 38.31 112.61 38.31z" fill="#1f9e59"/><path d="M345.29 1017.08c-17.73.0-34-4.33-45.91-8.72a156.1 156.1.0 0 1-30.61-15.06l-.62-.42.48-.58c2.16-2.63 53.12-64.49 73.61-75.08 20.67-10.68 109.47 36.31 113.24 38.32l.58.31L453.55 961c-.36.41-35.8 41.85-85.66 53.54A98.46 98.46.0 0 1 345.29 1017.08zm-75.13-24.5c5.83 3.75 51.15 31.49 97.42 20.63 48.5-11.37 83.27-51.17 84.87-53l1.81-3.74c-7.86-4.13-92.2-47.94-111.4-38S275.53 986.1 270.16 992.58z" fill="#070707"/><path d="M145.53 908.06S205.27 867 249.1 858.22s100.52 59.45 100.52 59.45-54.81 34.7-110.75 33S145.53 908.06 145.53 908.06z" fill="#1f9e59"/><path d="M242.81 951.42q-2 0-4-.06c-29-.88-53-12.48-68-22.05A142 142 0 0 1 145 908.52l-.52-.58.64-.44c.6-.41 60.36-41.29 103.83-50 22.9-4.56 49.22 12 67.26 26.6a274.87 274.87.0 0 1 33.92 33.09l.49.59-.65.42C349.45 918.59 296.94 951.42 242.81 951.42zm-96.23-43.25c4.81 5 40.92 40.27 92.31 41.82 51.79 1.59 103.27-28.58 109.7-32.48a275.78 275.78.0 0 0-33.23-32.32c-17.82-14.46-43.74-30.75-66.12-26.3C208.51 867 153.24 903.67 146.58 908.17z" fill="#070707"/><path d="M58.48 742.65s78.6-23.73 116.11-4.48 68.53 87.66 68.53 87.66-67.9 12-112.39-1.91S58.48 742.65 58.48 742.65z" fill="#1f9e59"/><path d="M184.56 831.28c-18.2.0-37.74-1.62-54-6.71-23.17-7.25-41.71-29.08-53.17-46.13a226.6 226.6.0 0 1-19.51-35.53l-.29-.7.72-.21a340.62 340.62.0 0 1 44.09-9.48c22.31-3.23 53-5 72.53 5 37.28 19.13 68.53 87.3 68.84 88l.36.8-.86.16A383.91 383.91.0 0 1 184.56 831.28zM59.41 743.09c3.11 7.18 30.27 67.27 71.52 80.18 41.1 12.85 103.1 3.36 111.19 2-3.63-7.74-33.17-68.73-67.84-86.53C139.36 720.86 67.46 740.77 59.41 743.09z" fill="#070707"/><path d="M17.59 537.07s75.17-1.65 105.88 33.12 36.06 110.38 36.06 110.38S106.72 671 67.71 642.28 17.59 537.07 17.59 537.07z" fill="#1f9e59"/><path d="M160.27 681.39l-.86-.15c-.53-.1-53.41-9.89-92.1-38.41-20.29-15-32.91-42.91-39.93-63.72a269.81 269.81.0 0 1-10.47-41.94l-.11-.77h.77a241.46 241.46.0 0 1 41.56 3.53C79.88 543.53 108 551.63 124 569.74c30.51 34.54 36.18 110 36.23 110.78zM18.38 537.74c1.32 8.1 13.5 77.27 49.74 104 35.7 26.33 83.63 36.6 90.66 38-.73-8.59-7.4-76.92-35.82-109.09S26.45 537.73 18.38 537.74z" fill="#070707"/><path d="M178.24 906.72s52.56-20.05 86.69-16.21 80.05 24 80.05 24-60.94-10.7-81.24-13.12S178.24 906.72 178.24 906.72z" fill="#070707"/><path d="M350.42 916.17l-5.56-1c-.61-.11-61.15-10.72-81.2-13.11s-84.69 5.23-85.34 5.31l-5.47.64 5.14-2c.53-.2 53.11-20.06 87-16.25s79.8 23.87 80.26 24.07zm-97-15.9a91.35 91.35.0 0 1 10.4.47c16.34 1.94 59.48 9.33 75.33 12.08-13.25-5.42-47.6-18.63-74.3-21.64-27.12-3-66.44 9.26-80.83 14.2C197.8 903.86 232.65 900.27 253.42 900.27z" fill="#070707"/><path d="M455.16 956.14s-63.42-8.81-88.13-5.84-77.72 31.8-77.72 31.8 42.65-14 74-17.64 89.73-3.9 89.73-3.9z" fill="#070707"/><path d="M289.52 982.75 289 981.5c.53-.29 53.4-28.93 78-31.88s87.68 5.76 88.31 5.85l.93.12-2.73 5.65H453c-.58.0-58.71.35-89.65 3.9S290 982.61 289.52 982.75zm90.22-32.37a110 110 0 0 0-12.63.6c-19.14 2.3-55.83 20.46-70.84 28.22 13.53-4.13 43.54-12.73 67-15.42 29.62-3.4 84-3.86 89.38-3.9l1.54-3.19C447.43 955.79 406.08 950.38 379.74 950.38z" fill="#070707"/><path d="M81.18 750.24s68.71 8.21 91.07 21.8 70.87 53.79 70.87 53.79-45.66-29.59-74.23-44S81.18 750.24 81.18 750.24z" fill="#070707"/><path d="M242.75 826.4c-.46-.3-45.95-29.73-74.17-44s-87-31.36-87.59-31.54l.27-1.33c2.81.34 69.11 8.38 91.35 21.89s70.46 53.45 70.94 53.85zM89.59 752.05c17.31 5.28 57.67 18.08 79.61 29.16 20.3 10.25 49.52 28.33 64.55 37.83-15.1-12.25-45.59-36.54-61.85-46.42C154.59 762.1 108.67 754.74 89.59 752.05z" fill="#070707"/><path d="M45.85 558.78s52.28 29 73.5 52.76 50.32 91.62 50.32 91.62-44.57-67.47-55-82.78S45.85 558.78 45.85 558.78z" fill="#070707"/><path d="M169.11 703.53c-.45-.67-44.7-67.64-55-82.76s-68.07-61-68.65-61.46l.75-1.13c.52.29 52.63 29.29 73.68 52.91s50.15 91.12 50.44 91.8zM53.18 563.78c15.82 12.8 53.69 44 62 56.22s39 58.51 50.56 76c-8.21-18.25-30.17-65.23-46.93-84C102.8 594 68.49 572.8 53.18 563.78z" fill="#070707"/><path d="M120.65 536.75c-8.24-15.35-63.79-78.21-63.79-78.21s35 49.23 50.91 75.58c6.17 10.19 11.94 23.64 16.69 36.32a67.72 67.72.0 0 1 7.73 9.54C129.11 563.54 124.9 544.67 120.65 536.75z" fill="#070707"/><path d="M133.48 583.16l-1.86-2.8a67.35 67.35.0 0 0-7.65-9.45l-.1-.1-.05-.13c-5.71-15.23-11.3-27.41-16.63-36.2-15.76-26-50.54-75.06-50.89-75.55l1.07-.84c2.27 2.57 55.69 63.09 63.88 78.34h0c3.53 6.59 7.44 21.19 11.61 43.42zm-8.43-13.09a73 73 0 0 1 5.88 6.92c-3.88-20.08-7.63-33.85-10.88-39.91h0c-6.16-11.47-39.36-50.17-55.23-68.42 11.17 16 32.23 46.44 43.54 65.11C113.71 542.61 119.33 554.82 125.05 570.07z" fill="#070707"/><path d="M102.63 409c-7.32-37.7-12.5-79.34-12.5-79.34s.26 63.11 5 82.42c3.09 12.51 19.38 46.72 30.48 69.27 1.72 1.61 4.2 2.12 6.46 2.82C123.78 468.51 107.93 436.32 102.63 409z" fill="#070707"/><path d="M133.48 485.3l-1.58-.49-1.08-.32a13.32 13.32.0 0 1-5.65-2.65l-.09-.08v-.11c-12.26-24.92-27.51-57.19-30.53-69.42-4.74-19.17-5-81.94-5-82.57l1.35-.09c.06.42 5.26 42 12.49 79.29h0c5.24 27 20.68 58.55 29.41 75zm-7.29-4.37a11.78 11.78.0 0 0 4.55 2.12c-8.88-16.85-23.66-47.55-28.78-73.93h0c-4.95-25.5-9-53.05-11-68.06.33 19.1 1.41 56.83 4.87 70.84C99 424.62 116.17 460.56 126.19 480.93z" fill="#070707"/><path d="M150.22 241s10.76 56.56 10.67 76-3 78.22-3 78.22 14.35-62.45 11.75-83.75S150.22 241 150.22 241z" fill="#070707"/><path d="M158.55 395.32l-1.34-.19c0-.59 2.91-59 3-78.19s-10.55-75.29-10.66-75.85l1.32-.35c.17.49 16.87 49.46 19.44 70.59S159.14 392.76 158.55 395.32zm-5.89-144.86c3.05 17 9 52.09 8.91 66.48-.06 14.89-1.81 53.31-2.61 70.15 3.73-17.49 12-59.17 10-75.6C167.09 296.11 157.63 265.76 152.66 250.46z" fill="#070707"/><path d="M226.5 154.34s8.24 63.9 1.24 92.69-42.59 90.25-42.59 90.25 23.61-64.1 31-97.76S226.5 154.34 226.5 154.34z" fill="#070707"/><path d="M185.74 337.63l-1.23-.58c.23-.64 23.67-64.45 30.93-97.68s10.35-84.55 10.38-85.07l1.36-.05c.08.64 8.17 64.36 1.23 92.94S186.09 337 185.74 337.63zM226.67 161.8c-1.14 15.52-4.27 52.11-9.9 77.86C211 266.13 195 311.89 188.54 329.92c9.49-17 33-60.42 38.54-83.05S228.57 179.44 226.67 161.8z" fill="#070707"/><path d="M279.54 176c2.17-2 35.09-64.85 47.25-77.25s71.39-39.43 71.39-39.43S341.8 97 329.26 112.77 279.54 176 279.54 176z" fill="#070707"/><path d="M280 176.5l-1-.92.41-.52c1.2-1.78 4.81-8.22 8.93-15.56 11-19.68 29.52-52.62 38-61.23 12.11-12.35 69.17-38.46 71.59-39.57l.66 1.19c-.56.38-56.43 37.76-68.76 53.31C318 128 284.11 171.27 280.4 176A3.5 3.5.0 0 1 280 176.5zM390.71 63.56c-16.46 7.79-54.13 26.18-63.43 35.67-8.32 8.48-26.75 41.32-37.75 60.94l-3.95 7c11.28-14.37 33.95-43.26 43.14-54.84C338.65 99.84 375.1 74.25 390.71 63.56z" fill="#070707"/><path d="M264.84 212.72s62.64-54.09 88.59-63.71 85.27-14.85 85.27-14.85-78 19.8-86.78 24.32S264.84 212.72 264.84 212.72z" fill="#070707"/><path d="M265.2 213.29l-.81-1.09c.63-.54 63-54.28 88.8-63.83s84.85-14.84 85.45-14.89l.22 1.34c-.77.2-78 19.84-86.63 24.27S266 212.8 265.2 213.29zm164.59-77.55c-17.59 1.88-56.59 6.67-76.12 13.91-20.21 7.48-63.36 42.58-80.82 57.19 20.51-13 71.68-45.31 78.76-49S409.08 141.07 429.79 135.74z" fill="#070707"/><path d="M196 328.31c2.21-.54 31.53-41.95 48.12-54S321 243.05 321 243.05 278 262 249.63 283 194 336.12 194 336.12z" fill="#070707"/><path d="M192.54 338.86l3-11.12.35-.08c.84-.5 5-5.79 9.48-11.39 10.88-13.71 27.32-34.43 38.44-42.48 16.49-11.94 74.57-30.6 77-31.39l.48 1.27c-.43.19-43.26 19.12-71.25 39.84s-55.26 52.73-55.54 53.05zm4.09-10.11-1.25 4.71c6.73-7.66 30-33.41 53.84-51 19.44-14.39 46-27.9 60.65-34.94-18.28 6.22-53.39 18.79-65.31 27.43-11 7.94-27.34 28.57-38.17 42.22C2e2 325.12 197.71 328 196.63 328.75z" fill="#070707"/><path d="M141.84 485.81S167.61 418.74 191 394s80.86-53.71 80.86-53.71-55.41 42-77.06 68.19-51.5 87.05-51.5 87.05z" fill="#070707"/><path d="M143 497.72l-1.86-12 .07-.17c.25-.67 26.08-67.48 49.34-92.08s80.47-53.56 81-53.85l.72 1.15c-.55.42-55.6 42.25-76.94 68.09s-51.12 86.3-51.41 86.91zm-.46-11.84 1.15 7.38C149 482.68 175 431.34 194.32 408c17.17-20.79 56-51.82 71-63.57-15.94 8.5-55.53 30.65-73.82 50C169 418.22 144 482.12 142.54 485.88z" fill="#070707"/><path d="M189.17 729.43s-11.11-100.24-7.54-123.13 39.12-86.78 39.12-86.78-18.5 53.32-25 87S189.17 729.43 189.17 729.43z" fill="#070707"/><path d="M188.5 729.51c-.46-4.1-11.08-100.6-7.54-123.32s37.74-84.39 39.19-87l1.24.55c-.18.53-18.55 53.66-24.93 86.86s-6.6 121.94-6.61 122.83zm29.08-202.76c-9.23 17.14-32.46 61.58-35.28 79.65-2.77 17.83 3.49 83.73 6.29 111 .3-25.58 1.54-85.15 6.53-111.08S212.29 542.64 217.58 526.75z" fill="#070707"/><path d="M259.81 819.15s-27.55-80-26.22-103.8 20.68-79.57 20.68-79.57-9 41.46-10.12 76.43S259.81 819.15 259.81 819.15z" fill="#070707"/><path d="M259.16 819.37c-1.12-3.27-27.58-80.38-26.25-104s20.52-79.21 20.71-79.77l1.31.37c-.09.41-9 41.8-10.1 76.31s15.47 106 15.64 106.77zm-7.65-173.18c-5.6 17.22-16.26 51.9-17.24 69.2-1 17.78 14.47 67.83 22.08 91.21-4.72-22.31-13.71-68.62-12.88-94.41C244.25 688.15 248.78 660.81 251.51 646.19z" fill="#070707"/><path d="M296 743.11s9.15 65.82 18.4 87.95 56.25 76.93 55.76 74S333 852 321.79 822.17 296 743.11 296 743.11z" fill="#070707"/><path d="M370.14 905.89c-.54.0-1.8-.87-8.56-8.6-5.06-5.77-11.25-13.23-17-20.46-9.28-11.68-25.61-33.13-30.79-45.51-9.17-22-18.36-87.45-18.45-88.11l1.33-.29c.15.49 14.73 49.51 25.75 79 7.9 21.14 29 53 40.29 70 5.67 8.55 8 12.06 8.14 13a.75.75.0 0 1-.52.88A.65.65.0 0 1 370.14 905.89zM298.06 752.22c2.89 18.9 10 61.74 17 78.58 7.66 18.32 42.59 60.66 52.69 71.32-1.48-2.33-3.72-5.72-6.16-9.4-11.35-17.13-32.48-49-40.44-70.32C313 800.49 302.81 767.81 298.06 752.22z" fill="#070707"/><path d="M384.69 802.83s5.35 50.85 16.85 74.87 53.62 78.44 53.62 78.44S415 886.63 407.6 870.77 384.69 802.83 384.69 802.83z" fill="#070707"/><path d="M454.62 956.56c-.42-.55-42.3-54.75-53.7-78.56s-16.85-74.59-16.9-75.1l1.33-.27c.15.52 15.61 52.22 22.87 67.86s47.13 84.61 47.53 85.31zm-68.29-146c2 15.19 7.2 48.83 15.82 66.86S437 931 449.27 947.29c-11.17-19.46-36.61-64-42.28-76.23C401.37 859 390.93 825.6 386.33 810.55z" fill="#070707"/><path d="M171.73 726.47s-49.93 14.33-98-5.37S.93 645.1.93 645.1s76-23 98.59-19.85S175.69 724 175.69 724z" fill="#1f9e59"/><path d="M129.83 732.13c-16.81.0-36.81-2.38-56.4-10.4-25-10.24-43.55-30.45-54.71-45.61A180.61 180.61.0 0 1 .31 645.37l-.31-.7.73-.22c3.11-1 76.4-23 98.88-19.87 22.66 3.19 74.48 95.18 76.67 99.09l.32.57-4.68 2.89A171.06 171.06.0 0 1 129.83 732.13zm-128-86.6c3.05 6.54 27.67 56.76 72.07 74.94 46.37 19 95.09 6 97.5 5.37l3.32-2.07c-4.48-7.91-54.25-94.87-75.35-97.84S9.83 643.16 1.88 645.53z" fill="#070707"/><path d="M175.69 724s-49.15-44.84-71.45-56.93S23.14 648 23.14 648s42.84 13.34 71 28.79 77.56 49.66 77.56 49.66z" fill="#070707"/><path d="M171.71 727.29l-.37-.26c-.49-.34-49.67-34.35-77.5-49.62s-70.48-28.6-70.91-28.74l.29-1.32c.59.07 59.19 7.12 81.35 19.13s71.09 56.57 71.58 57l.66.61zM30.37 649.67c13.38 4.48 43 15 64.12 26.55 26.62 14.6 72.66 46.27 77.26 49.44l2.81-1.76c-5.95-5.39-50.08-45.08-70.64-56.23C86.66 658.32 46.83 652 30.37 649.67z" fill="#070707"/><path d="M286.36 1.12s-57.05 58-57 99.09 36.06 99.2 36.06 99.2 38.64-72 46.34-106S286.36 1.12 286.36 1.12z" fill="#1f9e59"/><path d="M265.44 200.77l-.62-1c-.37-.58-36.16-58.72-36.17-99.56.0-21.42 15.56-47.37 28.63-65.36A339.44 339.44.0 0 1 285.87.64L286.5.0l.45.79c.33.58 33.11 58.88 25.44 92.77-7.62 33.72-46 105.45-46.4 106.17zM286.21 2.26C280 8.79 230 62.18 230 100.21c0 37.49 30.58 89.89 35.35 97.82 4.79-9 38.62-73.47 45.7-104.77S290.11 9.37 286.21 2.26z" fill="#070707"/><path d="M278.77 30.47s-22.15 57.35-24.68 80 10.4 91.56 11.3 89-5.92-62.32-1.45-92.11S278.77 30.47 278.77 30.47z" fill="#070707"/><path d="M265.33 200.16h-.16c-.52-.12-1-.23-3.19-11.47-1.44-7.31-3-16.58-4.38-25.44-2.17-14.32-5.6-40.23-4.18-52.89 2.51-22.43 24.49-79.55 24.71-80.13l1.3.39c-.1.48-10.41 47.37-14.82 76.79-3.16 21.1-.61 57.78.77 77.49.73 10.48.94 13.94.66 14.75A.74.74.0 0 1 265.33 200.16zM276.15 39.37c-6.25 16.91-19.48 54.14-21.38 71.13-2.08 18.6 6.5 69.69 9.91 84.53-.14-2.61-.39-6.19-.66-10.05-1.38-19.76-3.94-56.53-.76-77.78C266.5 85.58 272.92 54.55 276.15 39.37z" fill="#070707"/></g></g></g></svg>