<svg xmlns="http://www.w3.org/2000/svg" width="1080" height="778.45" viewBox="0 0 1080 778.45"><g id="Слой_2" data-name="Слой 2"><g id="war05_90323928"><g id="war05_90323928-2" data-name="war05_90323928"><path d="M800.15 445.11l10.31-7.86-13.18-20.06c-2.18 2.38-6.74-.15-6.09-3.69h-.19a10.34 10.34.0 0 1-2.86 5.9 3 3 0 0 1-.32.3 42.31 42.31.0 0 1 6.71 6.35c1.29 1.54.51 4.08-1 5.11a3.78 3.78.0 0 1-5.11-1c-3.31-4-7.77-6.74-12.09-9.45a3.94 3.94.0 0 1-1-5.66l-7.93.77L790 495.88 805 494.41a4 4 0 0 1 .6.0l15.76.79L797.61 464A13.53 13.53.0 0 1 800.15 445.11z" fill="none"/><path d="M781.89 415.57a4 4 0 0 1 .74-1 1.32 1.32.0 0 0 .18-.22l-2.51.25z" fill="none"/><path d="M998.79 405c.09-.91.22-1.81.32-2.72-.74 1-1.53 2-2.34 2.92z" fill="none"/><path d="M174.33 344.18a3.55 3.55.0 0 1 .77.27l2.41 1.13a4 4 0 0 1 .61-1.12 3.65 3.65.0 0 0 .4-.69z" fill="none"/><path d="M480.06 335.83a3.39 3.39.0 0 1 .7-1 2.77 2.77.0 0 0 .44-.58l-3.09.3z" fill="none"/><path d="M859.81 440.82 843 451.87l18.65 24.43 35.09-33.11a45.69 45.69.0 0 1 4.55-4.25c.25-.2.5-.41.76-.59a44.7 44.7.0 0 1 27.47-9.45h43a85.63 85.63.0 0 0-7.58-5.15v0a55.12 55.12.0 0 1-35-4.88l-67.19-3.36 1.78 2.72A16.39 16.39.0 0 1 859.81 440.82z" fill="none"/><path d="M666.84 526.05 663.04 596.51 669.67 596.85 671.78 596.64 667.06 526.05H666.84z" fill="none"/><path d="M884.54 524a5.66 5.66.0 0 1-.43-.54 29.4 29.4.0 0 0-3.5-4.06 12.46 12.46.0 0 1-1.8 1.67l-6.74 5.15-.55.52a13.14 13.14.0 0 1-2.68 1.94L865.73 531a13.53 13.53.0 0 1-18.91-2.54L828 503.85l-21.93-1.1a4.58 4.58.0 0 1-.85-.13l-13 1.26 6.27 22.17H749.39l4.2 62.64 29-2.82c-.51-1.37-1.07-2.62-1.46-3.51a57.66 57.66.0 0 0-6.53-11.52c-2.83-3.83 3.32-7.9 6.13-4.09 3 4.08 7.65 11.34 9.59 18.37l1.08-.11a10.19 10.19.0 0 0-.45-1c-2.24-4.15 3.87-8.27 6.13-4.09a20.78 20.78.0 0 1 1.74 4.32l1.38-.13c-.29-.74-.62-1.46-.95-2.15-.87-1.82.56-4.09 2.29-4.68 2.08-.71 3.81.49 4.68 2.3a26.73 26.73.0 0 1 1.7 4.52l2.11.1c.44-5.06 1.06-10.11 2-15.11.85-4.68 8.06-3.15 7.21 1.53s-1.44 9.28-1.86 14l69 3.45a44.41 44.41.0 0 1-1.81-12.54z" fill="none"/><path d="M342.22 518.67c.72.53 1.42 1.07 2.12 1.62a3.7 3.7.0 0 1 .83-1 3.57 3.57.0 0 0 .73-.91l-4.52-.22A3.6 3.6.0 0 1 342.22 518.67z" fill="none"/><path d="M537.94 418.7 473.5 425c-.11 1.82-.2 3.65-.25 5.48a3.58 3.58.0 0 1 2.5 5.16A73.2 73.2.0 0 0 472 445.76a3.76 3.76.0 0 1-4.37 2.84c-1.8-.38-3.46-2.46-2.84-4.37 1.11-3.37 2.1-6.8 3.51-10.06a3 3 0 0 1-2.4-3.22c.05-1.76.13-3.52.23-5.27l-.95.09a17.76 17.76.0 0 1-1.16 5.8c-1.69 4.43-8.25 1.07-6.57-3.33a7.91 7.91.0 0 0 .42-1.76l-2.08.2a20.36 20.36.0 0 1-1.25 4.78c-1.74 4.41-8.3 1.06-6.57-3.33.09-.24.16-.47.24-.71l-.5.05a10.76 10.76.0 0 1-3 7.35l-.32.3a41.82 41.82.0 0 1 6.7 6.35c1.29 1.54.52 4.08-1 5.11a3.77 3.77.0 0 1-5.11-1c-3.31-4-7.78-6.74-12.1-9.45-4-2.5-.7-9.1 3.34-6.57l2.25 1.43a3.8 3.8.0 0 1 .74-1 3.64 3.64.0 0 0 .92-1.73l-34.31 3.33a2.55 2.55.0 0 1-.39.0h-.21L334.43 428v6.78c0 1.06-.06 2.1-.13 3.14a46.28 46.28.0 0 1 1 7l4.34 64.79 5.91.3c-.33-1.08-.66-2-.91-2.77a57.73 57.73.0 0 0-5.53-12c-2.49-4.06 4-7.59 6.46-3.56 2.61 4.25 6.53 11.7 7.92 18.75l1.05.06c-.08-.23-.16-.46-.26-.69-1.88-4.33 4.56-7.91 6.45-3.55a19.78 19.78.0 0 1 1.39 4.62l1.45.07c-.25-.85-.55-1.68-.85-2.48-.71-1.88.91-4 2.69-4.46 2.12-.53 3.75.81 4.46 2.68a26.89 26.89.0 0 1 1.31 4.64l2.12.11c.86-4.95 1.91-9.86 3.22-14.71 1.25-4.58 8.3-2.45 7.06 2.14-1.16 4.27-2.11 8.59-2.9 12.93L404.78 513a3.87 3.87.0 0 1 .84.13l74.77-7.27c-.38-1-.77-1.82-1.05-2.47a54.1 54.1.0 0 0-6.1-10.82c-2.64-3.6 3.13-7.39 5.76-3.82s6.77 10.08 8.7 16.4l.87-.08s0 0 0-.06c-2.09-3.9 3.65-7.74 5.75-3.82a20.23 20.23.0 0 1 1.36 3.19l1.21-.12-.54-1.16c-.81-1.7.54-3.83 2.17-4.38 1.94-.65 3.57.47 4.38 2.17A26.42 26.42.0 0 1 504 503.6l2.63-.25q.61-6.17 1.73-12.26c.8-4.38 7.56-2.93 6.75 1.45-.62 3.37-1.1 6.74-1.48 10.13l24.6-2.4a4 4 0 0 1 .6.0v.4h0l2.86.14L564.51 420z" fill="none"/><path d="M1024.72 575.53a44.85 44.85.0 0 1-.52 6.79l12.88-1.25-12.36-23.71z" fill="none"/><path d="M996.82 431.87c1.11-3.37 2.1-6.8 3.52-10.06a3 3 0 0 1-2.41-3.22c.05-1.76.14-3.52.23-5.27l-.94.09a18 18 0 0 1-1.17 5.8c-1.69 4.43-8.25 1.07-6.57-3.33a7.91 7.91.0 0 0 .42-1.76l-2.08.2a20.36 20.36.0 0 1-1.25 4.78c-1.34 3.41-5.54 2.18-6.6-.57-.34.17-.67.35-1 .51a9.88 9.88.0 0 1-2.22 3.42c-.11.11-.21.21-.32.3a42.76 42.76.0 0 1 6.64 6.28 44.48 44.48.0 0 1 13.7 3.23A3.06 3.06.0 0 1 996.82 431.87z" fill="none"/><path d="M582.67 527.1c-.31-.37-.68-.69-1-1.05H534.53l4.85-17.17-1-.05a4.06 4.06.0 0 1-1.15-.24L512.91 511c-.08 1.41-.16 2.81-.21 4.22A3.36 3.36.0 0 1 515 520a69 69 0 0 0-3.55 9.52 3.53 3.53.0 0 1-4.1 2.66c-1.69-.37-3.24-2.32-2.65-4.11 1-3.16 2-6.37 3.32-9.43a2.82 2.82.0 0 1-2.26-3c0-1.33.12-2.66.19-4l-.91.09a16.7 16.7.0 0 1-1 4.48c-1.59 4.16-7.74 1-6.16-3.14.09-.22.13-.44.2-.66l-1.9.18a19.45 19.45.0 0 1-1 3.5c-1.59 4-7.41 1.15-6.25-2.79h-.25a9.8 9.8.0 0 1-2.74 5.9l-.3.28a39.75 39.75.0 0 1 6.28 6c1.2 1.45.47 3.83-1 4.79a3.54 3.54.0 0 1-4.79-1c-3.09-3.72-7.27-6.34-11.32-8.89a3.73 3.73.0 0 1-.68-5.67l-68.33 6.65h-.39-.21l-25.79-1.29c-.11.88-.24 1.75-.34 2.62a3.6 3.6.0 0 1 2.05 5.36 73 73 0 0 0-4.6 9.81 3.76 3.76.0 0 1-4.59 2.45c-1.77-.53-3.25-2.74-2.46-4.59 1.39-3.27 2.67-6.6 4.35-9.73a3 3 0 0 1-2.12-3.42c.11-1 .25-1.91.37-2.87l-1.08-.05a18.82 18.82.0 0 1-1.22 3.38c-2 4.24-8.18.44-6.31-3.76l-1.94-.09a22.27 22.27.0 0 1-1.18 2.94c-2 4.07-7.8.67-6.47-3.33h-.23a10.45 10.45.0 0 1-3.39 5.86l-.35.26a42.66 42.66.0 0 1 6.14 6.9c1.16 1.65.17 4.11-1.45 5a3.76 3.76.0 0 1-5-1.44 40.52 40.52.0 0 0-8.8-8.59l4.9 73.21 59.09 3a3.87 3.87.0 0 1 .84.13l32.94-3.2c-.33-.82-.66-1.55-.91-2.13a57.66 57.66.0 0 0-6.53-11.52c-2.84-3.83 3.31-7.9 6.13-4.09s7 10.4 9.16 17l.88-.09c-1.63-4 4.13-7.71 6.3-3.67a21.28 21.28.0 0 1 1.29 2.93l1.24-.12c-.12-.26-.23-.52-.36-.77-.87-1.82.57-4.09 2.3-4.68 2.07-.7 3.81.49 4.68 2.3.38.8.71 1.6 1 2.41l3-.29c.43-4.22 1-8.43 1.76-12.61.85-4.68 8.05-3.15 7.21 1.53-.63 3.44-1.11 6.89-1.5 10.35l60.16-5.85a4.2 4.2.0 0 1 1.94-.4l1.43.07h.44a4 4 0 0 1 .6.0v.11L574 592.06c-.2-.49-.4-.93-.56-1.3a54.05 54.05.0 0 0-6.09-10.82c-2.65-3.6 3.12-7.4 5.75-3.82a63.17 63.17.0 0 1 8 14.42l3.35-62.14A4.29 4.29.0 0 1 582.67 527.1z" fill="none"/><path d="M503.19 259.48l-8.11-15.37c-.17-.31-.3-.64-.45-1l-21.13 2.06c-.11 1.82-.2 3.65-.25 5.48a3.58 3.58.0 0 1 2.5 5.16A72.73 72.73.0 0 0 472 266a3.76 3.76.0 0 1-4.37 2.84c-1.8-.38-3.46-2.46-2.84-4.37 1.11-3.38 2.1-6.81 3.51-10.07a3 3 0 0 1-2.4-3.22c.05-1.76.13-3.51.23-5.27l-.95.1a17.76 17.76.0 0 1-1.16 5.79c-1.69 4.44-8.25 1.07-6.57-3.33a7.82 7.82.0 0 0 .42-1.75l-2.08.2a20.36 20.36.0 0 1-1.25 4.78c-1.74 4.41-8.3 1-6.57-3.34.09-.23.16-.47.24-.7h-.5a10.78 10.78.0 0 1-3 7.36c-.11.11-.22.2-.32.29a42.73 42.73.0 0 1 6.7 6.35c1.29 1.55.52 4.09-1 5.11a3.76 3.76.0 0 1-5.11-1c-3.31-4-7.78-6.74-12.1-9.45-4-2.51-.7-9.11 3.34-6.58l2.25 1.44a3.84 3.84.0 0 1 .74-1 3.55 3.55.0 0 0 .92-1.73l-21.24 2.07c-.33.27-.65.53-1 .78l-1.58 81.07 64.09-6.23c-.38-1-.77-1.82-1.05-2.47a54.1 54.1.0 0 0-6.1-10.82c-2.64-3.6 3.13-7.4 5.76-3.82s6.77 10.08 8.7 16.4l.87-.08s0 0 0-.06c-2.09-3.9 3.65-7.75 5.75-3.82a19.84 19.84.0 0 1 1.36 3.19l1.21-.12-.54-1.16c-.81-1.7.54-3.83 2.17-4.38 1.94-.66 3.57.47 4.38 2.17a26.42 26.42.0 0 1 1.09 2.68l2.46-.24-1.19-61.15A16.55 16.55.0 0 1 503.19 259.48z" fill="none"/><path d="M904.12 346.53A3 3 0 0 1 904 344c1.39-3.27 2.67-6.6 4.36-9.73a3 3 0 0 1-2.13-3.41c.11-1 .25-1.92.38-2.87L905.5 328a18 18 0 0 1-1.21 3.38c-2 4.24-8.18.44-6.31-3.75l-2-.1a21 21 0 0 1-1.18 2.94c-2 4.07-7.79.68-6.47-3.33h-.23a10.42 10.42.0 0 1-3.39 5.86l-.35.26a42.72 42.72.0 0 1 6.15 6.9c1.15 1.65.16 4.11-1.45 5a3.76 3.76.0 0 1-5-1.44c-3-4.23-7.18-7.38-11.25-10.45a4 4 0 0 1 1-6.84L806.08 323a4.57 4.57.0 0 1-.85-.14l-3.15.31 55 83.68 59.85 3A55.43 55.43.0 0 1 904.12 346.53z" fill="none"/><path d="M1014.57 323.88a3.56 3.56.0 0 1 .7-1 3.48 3.48.0 0 0 .45-.58l-3.09.3z" fill="none"/><path d="M361.75 276.23 362.27 249.66 342.24 248.65 361.75 276.23z" fill="none"/><path d="M781.89 235.82a3.84 3.84.0 0 1 .74-1c.07-.07.12-.15.18-.22l-2.51.25z" fill="none"/><path d="M572 242.07c.71.44 1.41.89 2.11 1.34a3.56 3.56.0 0 1 .7-1 3.51 3.51.0 0 0 .87-1.62l-15.27-.76c0 .22.0.43.05.65l.69 35.51 15.79-22.32a69.45 69.45.0 0 0-8.07-5.69C565.13 245.86 568.23 239.68 572 242.07z" fill="none"/><path d="M582.93 241.19h-.23A9.82 9.82.0 0 1 580 247l-.31.28c.42.32.83.66 1.24 1l2.76-3.89A3.47 3.47.0 0 1 582.93 241.19z" fill="none"/><path d="M582.67 347.35a24.93 24.93.0 0 0-2.14-2.22l-16.74 23.64a30.64 30.64.0 0 1-17 9.17l-22.94.45a16.38 16.38.0 0 1-16.65-16L507 352.3a3.42 3.42.0 0 1-2.25-4c.68-2.06 1.32-4.14 2.05-6.18l-.08-4a2.88 2.88.0 0 1-.91-2.3c0-1.33.12-2.66.19-4l-.91.09a16.77 16.77.0 0 1-1 4.49c-1.59 4.15-7.74 1-6.16-3.14.09-.22.13-.44.2-.67l-1.9.19a19.45 19.45.0 0 1-1 3.5c-1.59 4-7.41 1.14-6.25-2.79h-.25a9.8 9.8.0 0 1-2.74 5.9l-.3.27a40.21 40.21.0 0 1 6.28 6c1.2 1.46.47 3.83-1 4.79a3.53 3.53.0 0 1-4.79-1c-3.09-3.72-7.27-6.34-11.32-8.89a3.73 3.73.0 0 1-.68-5.67l-58 5.64-.43 21.76a16.38 16.38.0 0 1-16.65 16l-22.94-.45a16.39 16.39.0 0 1-14.86-10.31 15.59 15.59.0 0 1-2.66-2.83l-5.31-7.31a4 4 0 0 1-3.7-1.87c-3-4.22-7.17-7.37-11.24-10.44a4 4 0 0 1 1-6.85l-4.66-.23-.24 81.59 70.32 3.51a4.6 4.6.0 0 1 .84.14l32.94-3.2c-.33-.82-.66-1.56-.91-2.14a57.86 57.86.0 0 0-6.53-11.51c-2.84-3.84 3.31-7.9 6.13-4.1s7 10.41 9.16 17l.88-.08c-1.63-4 4.13-7.71 6.3-3.67a20.76 20.76.0 0 1 1.29 2.93l1.24-.12c-.12-.26-.23-.52-.36-.78-.87-1.81.57-4.08 2.3-4.67 2.07-.71 3.81.49 4.68 2.3.38.79.71 1.6 1 2.41l3-.3c.43-4.22 1-8.42 1.76-12.61.85-4.67 8.05-3.14 7.21 1.53-.63 3.44-1.11 6.9-1.5 10.36l60.16-5.85a4.07 4.07.0 0 1 1.94-.4l1.43.07h.44a4 4 0 0 1 .6.0v.11l28 1.4 2.49-8.81c-.63-1-1.28-2-2-2.94-2.21-3 1.43-6.13 4.23-5l13.13-46.45A4.25 4.25.0 0 1 582.67 347.35z" fill="none"/><path d="M917.06 328.55l-3.13-.16c-.11.88-.25 1.75-.35 2.63a4.17 4.17.0 0 1 .68.31C915.16 330.37 916.09 329.44 917.06 328.55z" fill="none"/><path d="M876.74 327l2.12 1.62a3.7 3.7.0 0 1 .83-1 3.44 3.44.0 0 0 .72-.9l-4.52-.23A3.87 3.87.0 0 1 876.74 327z" fill="none"/><path d="M747.18 344.07a2.27 2.27.0 0 1-.06.25l18 63.5 17.48-1.7c-.51-1.38-1.07-2.63-1.46-3.52a58.22 58.22.0 0 0-6.53-11.52c-1.72-2.32-.12-4.72 2-5.41l-28.94-44.05C747.49 342.44 747.34 343.25 747.18 344.07z" fill="none"/><path d="M587.27 335.6l-2.77 3.92c.74.66 1.47 1.35 2.18 2.08l1.58-5.62A3.75 3.75.0 0 1 587.27 335.6z" fill="none"/><path d="M152.49 276.23 167.5 255.02 152.11 256.51 152.49 276.23z" fill="none"/><path d="M259.16 605.61h-.19a10.31 10.31.0 0 1-2.86 5.9 3 3 0 0 1-.32.3 42.31 42.31.0 0 1 6.71 6.35c1.29 1.54.51 4.08-1 5.11a3.77 3.77.0 0 1-5.11-1 28.71 28.71.0 0 0-3.21-3.22l-3.72 69.11 19.69-1.91L264 610.1A4 4 0 0 1 259.16 605.61z" fill="none"/><path d="M568.87 607.73c-3.74-2.36-.64-8.54 3.13-6.16l2.11 1.35a3.6 3.6.0 0 1 .7-1 3.47 3.47.0 0 0 .87-1.61l-37.74-1.89-64.44 6.26c-.11 1.83-.2 3.65-.25 5.48a3.59 3.59.0 0 1 2.5 5.16A72.85 72.85.0 0 0 472 625.52a3.76 3.76.0 0 1-4.37 2.83c-1.8-.38-3.46-2.45-2.84-4.36 1.11-3.38 2.1-6.81 3.51-10.07a3 3 0 0 1-2.4-3.22c.05-1.76.13-3.51.23-5.27l-.95.09a17.76 17.76.0 0 1-1.16 5.8c-1.69 4.43-8.25 1.07-6.57-3.33a7.91 7.91.0 0 0 .42-1.76l-2.08.21a20.29 20.29.0 0 1-1.25 4.77c-1.74 4.42-8.3 1.06-6.57-3.33.09-.24.16-.47.24-.71l-.5.05a10.78 10.78.0 0 1-3 7.36l-.32.29a42.27 42.27.0 0 1 6.7 6.35c1.29 1.54.52 4.08-1 5.11a3.76 3.76.0 0 1-5.11-1c-3.31-4-7.78-6.74-12.1-9.45-4-2.5-.7-9.1 3.34-6.57l2.25 1.43a3.8 3.8.0 0 1 .74-1 3.64 3.64.0 0 0 .92-1.73L405.8 611.3h-.6l-58.95-2.95 5 74.35a44 44 0 0 1 2.27 7.51h1.05c-.08-.23-.16-.46-.26-.69-1.88-4.32 4.56-7.91 6.45-3.55a19.92 19.92.0 0 1 1.39 4.62l1.45.07c-.25-.85-.55-1.68-.85-2.48-.71-1.88.91-4 2.69-4.46 2.12-.53 3.75.81 4.46 2.69a26.79 26.79.0 0 1 1.31 4.63l2.12.11c.86-5 1.91-9.86 3.22-14.71 1.25-4.58 8.3-2.44 7.06 2.14-1.16 4.28-2.11 8.59-2.9 12.94l24.09 1.2a3.88 3.88.0 0 1 .84.14l74.77-7.27c-.38-1-.77-1.82-1.05-2.48a54.37 54.37.0 0 0-6.1-10.82c-2.64-3.6 3.13-7.39 5.76-3.82s6.77 10.08 8.7 16.41l.87-.09s0 0 0-.06c-2.09-3.89 3.65-7.74 5.75-3.82a20.23 20.23.0 0 1 1.36 3.19l1.21-.11c-.18-.4-.36-.78-.54-1.16-.81-1.7.54-3.84 2.17-4.38 1.94-.66 3.57.46 4.38 2.16a26.58 26.58.0 0 1 1.09 2.69l2.63-.26q.61-6.15 1.73-12.25c.8-4.38 7.56-2.93 6.75 1.45-.62 3.36-1.1 6.73-1.48 10.12L538.2 680a4 4 0 0 1 .6.0v.4h0l37.33 1.87v-.6l-.3-.68a54.1 54.1.0 0 0-6.1-10.82c-2.65-3.6 3.13-7.4 5.76-3.83.42.58.88 1.24 1.36 1.93l2.81-52.16C576.67 612.68 572.72 610.16 568.87 607.73z" fill="none"/><path d="M580 606.55a2.61 2.61.0 0 1-.31.27l.53.43v-1C580.14 606.32 580.07 606.44 580 606.55z" fill="none"/><path d="M670.16 605h-.39-.21l-7-.34-4.41 81.7 14 .7 5.65-.55-5.47-81.73z" fill="none"/><path d="M480.06 695.34a3.26 3.26.0 0 1 .7-1 3.06 3.06.0 0 0 .44-.58l-3.09.3C478.77 694.5 479.41 694.92 480.06 695.34z" fill="none"/><path d="M876.74 686.47l2.12 1.62a3.83 3.83.0 0 1 .83-1 3.33 3.33.0 0 0 .72-.91l-4.52-.22A3.81 3.81.0 0 1 876.74 686.47z" fill="none"/><path d="M781.89 595.32a3.8 3.8.0 0 1 .74-1c.07-.07.12-.15.18-.22l-2.51.24z" fill="none"/><path d="M480.06 515.58a3.53 3.53.0 0 1 .7-1 3 3 0 0 0 .44-.57l-3.09.3z" fill="none"/><path d="M254.79 588.94a45.37 45.37.0 0 1 3.46 8.54l1.08-.11a10.19 10.19.0 0 0-.45-1 4 4 0 0 1 3.84-5.8l-4.44-66.4z" fill="none"/><path d="M951.31 620.5 951.38 679.88 957.93 679.24 957.86 620.5H951.31z" fill="none"/><path d="M174.33 523.93a4.17 4.17.0 0 1 .77.27l.88.42.05-.85z" fill="none"/><path d="M889.82 596.58l-73-3.66c0 .63-.07 1.25-.09 1.87A3.6 3.6.0 0 1 819.2 6e2a71.65 71.65.0 0 0-3.76 10.17 3.75 3.75.0 0 1-4.36 2.83c-1.81-.38-3.47-2.46-2.84-4.36 1.1-3.38 2.09-6.81 3.51-10.07a3 3 0 0 1-2.41-3.22c0-.92.08-1.83.12-2.74l-1.09-.06a17.51 17.51.0 0 1-.91 3.42c-1.69 4.43-8.25 1.07-6.57-3.33.0-.1.05-.19.08-.29l-2 .2a19.71 19.71.0 0 1-1 3.31c-1.63 4.15-7.52 1.43-6.79-2.56h-.19a10.31 10.31.0 0 1-2.86 5.9 3 3 0 0 1-.32.3 42.77 42.77.0 0 1 6.71 6.35c1.29 1.54.51 4.08-1 5.11a3.77 3.77.0 0 1-5.11-1c-3.31-4-7.77-6.74-12.09-9.45a3.94 3.94.0 0 1-1-5.66l-21.13 2.06 5.48 81.72L805 674.16a4 4 0 0 1 .6.0l74.43 3.72c-.32-1.07-.66-2-.9-2.76a58.57 58.57.0 0 0-5.53-12c-2.5-4.05 4-7.58 6.45-3.55 2.62 4.25 6.53 11.7 7.93 18.75l1 .05c-.08-.22-.16-.45-.25-.68a4 4 0 0 1 2.47-5.33V599C890.71 598.2 890.25 597.4 889.82 596.58z" fill="none"/><path d="M999.66 436.24a3.76 3.76.0 0 1-2.91-4 44.48 44.48.0 0 0-13.7-3.23l.06.07c1.29 1.54.52 4.08-1 5.11a3.77 3.77.0 0 1-5.11-1 30.57 30.57.0 0 0-4.51-4.3h-43A44.7 44.7.0 0 0 902 438.35c-.26.18-.51.39-.76.59a45.69 45.69.0 0 0-4.55 4.25L861.64 476.3 843 451.87l16.82-11.05a16.39 16.39.0 0 0 4.68-22.63l-1.78-2.72-45.93-2.3c0 .62-.07 1.24-.09 1.87a3.59 3.59.0 0 1 2.51 5.16 72 72 0 0 0-3.76 10.16 3.75 3.75.0 0 1-4.36 2.84c-1.81-.38-3.47-2.46-2.84-4.37 1.1-3.37 2.09-6.8 3.51-10.06a3 3 0 0 1-2.41-3.23c0-.91.08-1.82.12-2.74l-1.09-.05a17.7 17.7.0 0 1-.91 3.42c-1.69 4.43-8.25 1.07-6.57-3.33.0-.1.05-.2.08-.29l-2 .19a19.81 19.81.0 0 1-1 3.32 3.62 3.62.0 0 1-.7 1.13l13.18 20.06-10.31 7.86A13.53 13.53.0 0 0 797.61 464l23.79 31.17 58.67 2.93c-.32-1.07-.66-2-.9-2.77a58.49 58.49.0 0 0-5.53-12c-2.5-4.06 4-7.58 6.45-3.55 2.62 4.24 6.53 11.69 7.93 18.75l1 .05c-.08-.23-.16-.46-.25-.68-1.88-4.33 4.56-7.91 6.45-3.56a20.94 20.94.0 0 1 1.39 4.62l1.45.07c-.26-.84-.55-1.68-.85-2.48-.72-1.88.91-4 2.68-4.46 2.13-.53 3.75.81 4.47 2.69a27.71 27.71.0 0 1 1.31 4.63l2.12.11c.86-4.94 1.91-9.85 3.22-14.7 1.24-4.59 8.29-2.45 7.05 2.13-1.16 4.28-2.11 8.59-2.9 12.94l24.09 1.2a4.57 4.57.0 0 1 .85.14L1014.9 494c-.38-1-.76-1.82-1-2.48a54.8 54.8.0 0 0-6.1-10.81c-2.65-3.61 3.13-7.4 5.76-3.83s6.77 10.08 8.69 16.41l.88-.09v0c-2.09-3.9 3.65-7.75 5.76-3.83a20.23 20.23.0 0 1 1.36 3.19l1.2-.11c-.17-.4-.35-.78-.53-1.16-.82-1.7.54-3.83 2.16-4.38 2-.66 3.57.47 4.38 2.16a26.68 26.68.0 0 1 1.1 2.69l.93-.09-18-34.54a45.3 45.3.0 0 0-18.57-21.69A3.42 3.42.0 0 1 999.66 436.24z" fill="#070707"/><path d="M964.85 423.71c-3.9-2.53-.64-9 3.38-6.53l2.25 1.43a3.8 3.8.0 0 1 .74-1 3.64 3.64.0 0 0 .92-1.73l-34.31 3.33a2.55 2.55.0 0 1-.39.0h-.21l-7.33-.37A55.12 55.12.0 0 0 964.85 423.71z" fill="#070707"/><path d="M980 415.77c.09-.24.16-.47.24-.71l-.5.05A12.16 12.16.0 0 1 979 419c.35-.16.68-.34 1-.51A3.76 3.76.0 0 1 980 415.77z" fill="#070707"/><path d="M940.14 321.47l35.5-3.46a55.4 55.4.0 0 0-47.76 2.75l11.41.57A3.87 3.87.0 0 1 940.14 321.47z" fill="#070707"/><path d="M939.92 329.69h-.2l-22.66-1.13c-1 .89-1.9 1.82-2.8 2.78a3.51 3.51.0 0 1 1.38 5 70.66 70.66.0 0 0-4.6 9.81 3.79 3.79.0 0 1-4.6 2.46 4 4 0 0 1-2.32-2.11 55.43 55.43.0 0 0 12.78 63.32l19.91 1a4.86 4.86.0 0 1 .85.14l32.93-3.2c-.33-.82-.66-1.56-.91-2.14a57.86 57.86.0 0 0-6.53-11.51c-2.83-3.84 3.31-7.9 6.13-4.1s7 10.41 9.16 17l.88-.08c-1.63-4 4.13-7.71 6.3-3.67a20.76 20.76.0 0 1 1.29 2.93l1.24-.12c-.12-.26-.23-.52-.36-.78-.87-1.81.57-4.08 2.3-4.67 2.07-.71 3.81.49 4.68 2.3.38.8.71 1.6 1 2.41l1-.1c.81-1 1.6-1.91 2.34-2.92.39-3.31.85-6.61 1.44-9.89.52-2.86 3.43-3.39 5.41-2.29A55.42 55.42.0 0 0 988 325l-47.66 4.63z" fill="#070707"/><path d="M939.92 689.19h-.2l-25.79-1.29c-.11.87-.25 1.75-.35 2.62a3.6 3.6.0 0 1 2.06 5.36 71.09 71.09.0 0 0-4.6 9.8c-.79 1.85-2.52 3.09-4.6 2.46-1.76-.53-3.24-2.74-2.46-4.59 1.39-3.27 2.67-6.6 4.36-9.73a3 3 0 0 1-2.13-3.42c.11-1 .25-1.91.38-2.87h-1.09a18 18 0 0 1-1.21 3.38c-2 4.24-8.18.44-6.31-3.76l-2-.1a20.62 20.62.0 0 1-1.18 3 3 3 0 0 1-3.55 1.73v32c0 19.79 13.56 36 30.09 36s30-16.22 30-36v-35.47l-11.07 1.08z" fill="#070707"/><path d="M1008.64 682.53l-50.7 4.93v36.17c0 19.79 13.56 36 30.09 36s30-16.22 30-36v-29.17a64 64 0 0 0-8.71-6.2A3.73 3.73.0 0 1 1008.64 682.53z" fill="#070707"/><path d="M1012.63 682.15c.65.41 1.3.82 1.94 1.24a3.6 3.6.0 0 1 .7-1 2.82 2.82.0 0 0 .45-.58z" fill="#070707"/><path d="M1005.53 592.35c-.11 1.83-.2 3.65-.25 5.48a3.6 3.6.0 0 1 2.51 5.16 71.65 71.65.0 0 0-3.76 10.17 3.76 3.76.0 0 1-4.37 2.83c-1.8-.38-3.46-2.45-2.84-4.36 1.11-3.38 2.1-6.81 3.52-10.07a3 3 0 0 1-2.41-3.22c.05-1.76.14-3.51.23-5.27l-.94.09a18 18 0 0 1-1.17 5.8c-1.69 4.43-8.25 1.07-6.57-3.33a7.91 7.91.0 0 0 .42-1.76l-2.08.21a20.29 20.29.0 0 1-1.25 4.77c-1.73 4.42-8.3 1.06-6.57-3.33.09-.23.16-.47.24-.71l-.5.05a10.78 10.78.0 0 1-3 7.36l-.32.29a42.73 42.73.0 0 1 6.7 6.35c1.29 1.55.52 4.08-1 5.11a3.76 3.76.0 0 1-5.11-1c-3.31-4-7.77-6.73-12.09-9.45-4-2.5-.71-9.1 3.33-6.57l2.25 1.43a3.8 3.8.0 0 1 .74-1 3.64 3.64.0 0 0 .92-1.73l-34.31 3.34h-.39-.21l-47.41-2.37c.43.82.89 1.62 1.38 2.41l.08 73.32a3 3 0 0 1 4 1.77 21.1 21.1.0 0 1 1.39 4.62l1.45.08c-.26-.85-.55-1.68-.85-2.48-.72-1.88.91-4 2.68-4.47 2.13-.52 3.75.81 4.47 2.69a27.81 27.81.0 0 1 1.31 4.64l2.12.1c.86-4.94 1.91-9.85 3.22-14.7 1.24-4.59 8.29-2.45 7.05 2.14-1.16 4.27-2.11 8.59-2.9 12.93l24.09 1.21a3.87 3.87.0 0 1 .85.13l11.24-1.09-.07-59.38h6.55l.07 58.74 57-5.54c-.38-1-.76-1.82-1-2.47a54.59 54.59.0 0 0-6.1-10.82c-2.65-3.6 3.13-7.4 5.76-3.82a71.21 71.21.0 0 1 4.48 6.93l-.07-64.32a45.26 45.26.0 0 0 4.12-8.45z" fill="#070707"/><path d="M865.73 531l3.11-2.38a13.14 13.14.0 0 0 2.68-1.94l.55-.52 6.74-5.15a12.46 12.46.0 0 0 1.8-1.67 76.34 76.34.0 0 0-7.75-6.38 4 4 0 0 1 1-6.85L828 503.85l18.81 24.64A13.53 13.53.0 0 0 865.73 531z" fill="#070707"/><path d="M875.89 506.24a4.33 4.33.0 0 1 .85.48l2.12 1.62a3.87 3.87.0 0 1 .83-1 3.14 3.14.0 0 0 .72-.9z" fill="#070707"/><path d="M1058.16 592.31l12-6.24-28.68 2.79A13.54 13.54.0 0 0 1058.16 592.31z" fill="#070707"/><path d="M1041.91 520.24c-1.69-.36-3.25-2.31-2.66-4.1 1-3.17 2-6.38 3.32-9.43a2.82 2.82.0 0 1-2.25-3c0-1.34.12-2.67.19-4l-.91.09a17.18 17.18.0 0 1-1 4.49c-1.59 4.15-7.73 1-6.15-3.14.08-.22.13-.45.19-.67l-1.89.19a19.94 19.94.0 0 1-1 3.49c-1.59 4-7.41 1.15-6.26-2.79h-.25a9.78 9.78.0 0 1-2.73 5.9l-.3.27a40.12 40.12.0 0 1 6.27 6c1.21 1.45.48 3.83-1 4.79a3.52 3.52.0 0 1-4.79-1c-3.1-3.72-7.28-6.33-11.32-8.89a3.72 3.72.0 0 1-.69-5.66l-68.32 6.64a2.61 2.61.0 0 1-.4.0h-.2l-25.79-1.29c-.11.87-.25 1.74-.35 2.62a3.59 3.59.0 0 1 2.06 5.35 70.66 70.66.0 0 0-4.6 9.81c-.79 1.85-2.52 3.09-4.6 2.46-1.76-.54-3.24-2.75-2.46-4.59 1.39-3.27 2.67-6.61 4.36-9.74a3 3 0 0 1-2.13-3.41c.11-1 .25-1.91.38-2.87l-1.09-.06a17.88 17.88.0 0 1-1.21 3.39c-2 4.23-8.18.43-6.31-3.76l-2-.1a20.05 20.05.0 0 1-1.18 2.94c-2 4.07-7.79.68-6.47-3.32h-.23a10.4 10.4.0 0 1-3.39 5.85 3 3 0 0 1-.35.27 42.64 42.64.0 0 1 6.15 6.89c1.15 1.65.16 4.12-1.45 5a3.64 3.64.0 0 1-4.57-.91v51.56a44.41 44.41.0 0 0 1.81 12.54l50.46 2.53a4.06 4.06.0 0 1 .85.13l32.93-3.2c-.33-.82-.66-1.55-.91-2.13a57.66 57.66.0 0 0-6.53-11.52c-2.83-3.83 3.31-7.89 6.13-4.09s7 10.4 9.16 17l.88-.09c-1.63-4 4.13-7.7 6.3-3.67a21.28 21.28.0 0 1 1.29 2.93l1.24-.12c-.12-.26-.23-.52-.36-.77-.87-1.81.57-4.09 2.3-4.68 2.07-.7 3.81.49 4.68 2.3.38.8.71 1.6 1 2.41l3-.29c.43-4.22 1-8.43 1.76-12.61.85-4.67 8.05-3.15 7.21 1.53-.63 3.44-1.11 6.89-1.5 10.35l17.94-1.74a44.85 44.85.0 0 0 .52-6.79V557.36l12.36 23.71 33.15-3.23a4 4 0 0 1 .6.0l-.1 7.93 2-1.06a13.53 13.53.0 0 0 5.73-18.2l-29.64-56.86c-1.13 2.58-1.94 5.27-2.83 8A3.52 3.52.0 0 1 1041.91 520.24z" fill="#070707"/><path d="M1014.57 503.64a3.6 3.6.0 0 1 .7-1 3.11 3.11.0 0 0 .45-.58l-3.09.3z" fill="#070707"/><path d="M746.48 328.57a.61.61.0 0 0 0 .14 3.59 3.59.0 0 1 3.13 4.8 54.19 54.19.0 0 0-2 8.11l28.94 44.05a3.58 3.58.0 0 1 4.11 1.32c3 4.08 7.65 11.35 9.59 18.38l1.08-.11a9.12 9.12.0 0 0-.45-.95c-2.24-4.16 3.87-8.27 6.13-4.09a20.57 20.57.0 0 1 1.74 4.32l1.38-.13c-.29-.74-.62-1.46-.95-2.16-.87-1.81.56-4.08 2.29-4.67 2.08-.71 3.81.49 4.68 2.29a27.39 27.39.0 0 1 1.7 4.52l2.11.11c.44-5.06 1.06-10.11 2-15.12.85-4.67 8.06-3.14 7.21 1.53s-1.44 9.28-1.86 14l39.74 2-55-83.68z" fill="#070707"/><path d="M523.84 378.39l22.94-.45a30.64 30.64.0 0 0 17-9.17l16.74-23.64a60.07 60.07.0 0 0-9.18-6.67c-3.73-2.36-.64-8.54 3.14-6.16l2.11 1.35a3.7 3.7.0 0 1 .69-1 3.26 3.26.0 0 0 .87-1.61l-39.76-2a4.08 4.08.0 0 1-1.15-.25l-24.34 2.37c-.08 1.4-.16 2.81-.21 4.21a3.37 3.37.0 0 1 2.34 4.85 68 68 0 0 0-3.55 9.52 3.52 3.52.0 0 1-4.1 2.65 3.1 3.1.0 0 1-.4-.13l.2 10.07A16.38 16.38.0 0 0 523.84 378.39z" fill="#070707"/><path d="M508.06 338.9a3.07 3.07.0 0 1-1.35-.73l.08 4C507.18 341.05 507.59 340 508.06 338.9z" fill="#070707"/><path d="M591.45 233.41 591.44 233.43H591.46L591.45 233.41z" fill="#070707"/><path d="M585.41 331.43h-.23a9.76 9.76.0 0 1-2.73 5.86l-.3.28c.8.62 1.58 1.28 2.35 2l2.77-3.92A3.65 3.65.0 0 1 585.41 331.43z" fill="#070707"/><path d="M609.13 220.38c-.84 4.59-1.43 9.2-1.83 13.84l62.37 3.12 69.43-6.75c-.19-.1-.37-.21-.56-.3a43.89 43.89.0 0 0-38.36-23.37l-67.47-.45a43.24 43.24.0 0 0-27.78 9.87A3.51 3.51.0 0 1 609.13 220.38z" fill="#070707"/><path d="M596.93 228.75a24.71 24.71.0 0 1 1.79 5l1.71.08c.42-5 1-10 2-15 0-.15.08-.28.12-.42a44.37 44.37.0 0 0-7 8.54A4.44 4.44.0 0 1 596.93 228.75z" fill="#070707"/><path d="M630.41 189.44A65.5 65.5.0 1 0 610.9 98.88 65.5 65.5.0 0 0 630.41 189.44z" fill="#070707"/><path d="M672.33 604.81l5.47 81.73 33.47-3.26c-.61-1.13-1.23-2.15-1.67-2.9a57.8 57.8.0 0 0-7.93-10.6c-3.3-3.44 2.29-8.25 5.56-4.83 3.6 3.76 9.33 10.64 12.06 17.55l1.18-.11a11.29 11.29.0 0 0-.91-1.56c-2.75-3.83 2.79-8.69 5.55-4.83a19.52 19.52.0 0 1 2.87 5.66l1.65-.16a27.82 27.82.0 0 0-2.1-3.75c-1.1-1.69.0-4.13 1.68-4.93 2-1 3.84.0 4.93 1.68a25.5 25.5.0 0 1 3 6.27l1.47-.15a165.42 165.42.0 0 1-.05-17.25c.25-4.74 7.6-4.14 7.35.6a154.29 154.29.0 0 0 0 15.95l13.71-1.34-5.48-81.72z" fill="#070707"/><path d="M746.49 688.22a3.59 3.59.0 0 1 3.13 4.8 73.16 73.16.0 0 0-2.44 10.56 3.75 3.75.0 0 1-4 3.36c-1.84-.15-3.75-2-3.37-4 .67-3.49 1.22-7 2.21-10.43a3 3 0 0 1-2.79-2.89c0-.29.0-.57-.07-.86l-1.43.14c-.08.52-.16 1-.29 1.57-1 4-6.41 2.62-7-.86l-2.05.2c-.1.58-.21 1.16-.36 1.75-1 4.09-6.62 2.57-7-1h-.23a10.24 10.24.0 0 1-2.08 5.59c-.09.12-.19.23-.29.34a42.52 42.52.0 0 1 7.46 5.45c1.48 1.37 1 4-.36 5.2a3.77 3.77.0 0 1-5.2-.37c-3.78-3.51-8.56-5.7-13.19-7.84a4 4 0 0 1-.23-7l-28.56 2.77 2.84 42.43c1.6 23.91 21.36 42.24 43.9 40.73s39.67-22.3 38.07-46.21l-3-44.9-13.67 1.33A.66.66.0 0 0 746.49 688.22z" fill="#070707"/><path d="M709.62 692l2.41 1.13a4 4 0 0 1 .6-1.12 2.82 2.82.0 0 0 .4-.69l-4.18.41A3.74 3.74.0 0 1 709.62 692z" fill="#070707"/><path d="M609.24 692.74a3.37 3.37.0 0 1 2.34 4.85 66.77 66.77.0 0 0-3.55 9.52 3.52 3.52.0 0 1-4.1 2.65c-1.69-.36-3.24-2.31-2.65-4.1 1-3.16 2-6.38 3.31-9.43a2.82 2.82.0 0 1-2.25-3c0-.47.0-.94.07-1.41l-1.19-.06a18.55 18.55.0 0 1-.64 2c-1.5 3.9-7 1.34-6.36-2.4l-1.77-.09a18.45 18.45.0 0 1-.76 2.36c-1.58 4-7.34 1.19-6.28-2.71h-.23a9.79 9.79.0 0 1-2.73 5.86 3.65 3.65.0 0 1-.3.27 40.15 40.15.0 0 1 6.27 6c1.21 1.46.48 3.83-1 4.79a3.53 3.53.0 0 1-4.79-1 34.42 34.42.0 0 0-7.51-6.41l-1.73 32.21c-1.29 23.94 16.11 44.51 38.67 45.73s42.07-17.37 43.36-41.3l2.29-42.53-48.48-2.43z" fill="#070707"/><path d="M576.44 682.3l-.26-.62v.6z" fill="#070707"/><path d="M606.79 601.89c0 .21.0.41.0.61a3.38 3.38.0 0 1 2.33 4.85 68 68 0 0 0-3.54 9.52 3.52 3.52.0 0 1-4.11 2.65c-1.69-.36-3.24-2.31-2.65-4.1 1.05-3.16 2-6.38 3.32-9.43a2.81 2.81.0 0 1-2.25-3c0-.47.0-.94.06-1.41l-1.19-.06a16.64 16.64.0 0 1-.64 2c-1.49 3.9-7 1.34-6.36-2.4l-1.76-.09a23.18 23.18.0 0 1-.76 2.37c-1.59 4-7.34 1.18-6.28-2.72h-.23a9.91 9.91.0 0 1-2.46 5.52v1a39.53 39.53.0 0 1 5.75 5.54c1.21 1.46.47 3.83-1 4.79a3.53 3.53.0 0 1-4.79-1c-.14-.18-.32-.32-.47-.5l-2.81 52.16a56.79 56.79.0 0 1 7.31 14.4l.93.05-.06-.11c-2.09-3.9 3.66-7.75 5.76-3.82a19.31 19.31.0 0 1 1.68 4.3l1.42.07c-.32-.85-.69-1.67-1.07-2.46-.81-1.7.54-3.83 2.17-4.38 1.94-.66 3.56.47 4.37 2.17a24 24 0 0 1 1.79 5l1.71.09c.42-5 1-10 2-15 .81-4.38 7.56-2.93 6.76 1.45-.85 4.59-1.44 9.21-1.84 13.84l48.41 2.43 4.41-81.7z" fill="#070707"/><path d="M577.29 692.19a3.3 3.3.0 0 0 .87-1.61l-2.46-.13-.11 2.07 1 .64A3.55 3.55.0 0 1 577.29 692.19z" fill="#070707"/><path d="M342.22 338.91c.72.54 1.42 1.08 2.12 1.62a4.05 4.05.0 0 1 .83-1 3.36 3.36.0 0 0 .73-.9l-4.52-.22A3.55 3.55.0 0 1 342.22 338.91z" fill="#070707"/><path d="M361.26 367.63a16.39 16.39.0 0 0 14.86 10.31l22.94.45a16.38 16.38.0 0 0 16.65-16l.43-21.76-10.34 1a2.55 2.55.0 0 1-.39.0h-.21l-25.79-1.29c-.11.87-.24 1.74-.34 2.62a3.6 3.6.0 0 1 2.05 5.36 73.5 73.5.0 0 0-4.6 9.8 3.75 3.75.0 0 1-4.59 2.46c-1.77-.53-3.25-2.74-2.46-4.59 1.39-3.27 2.67-6.61 4.35-9.73a3 3 0 0 1-2.12-3.42c.11-1 .25-1.91.37-2.87l-1.08-.05a18.82 18.82.0 0 1-1.22 3.38c-2 4.23-8.18.44-6.31-3.76l-1.94-.1a21.85 21.85.0 0 1-1.18 2.95c-2 4.06-7.8.67-6.47-3.33h-.23a10.4 10.4.0 0 1-3.39 5.85 4.11 4.11.0 0 1-.35.27 42.24 42.24.0 0 1 6.14 6.9c1.16 1.64.17 4.11-1.45 5a3.47 3.47.0 0 1-1.3.42l5.31 7.31A15.59 15.59.0 0 0 361.26 367.63z" fill="#070707"/><path d="M172.4 344.37l-34.27 3.33h-.39-.21l-39.33-2 .33 16.63a16.38 16.38.0 0 0 16.65 16l22.94-.45a16.19 16.19.0 0 0 9.65-3.43 16.17 16.17.0 0 0 7.36-5.74l15.33-21.66A3.73 3.73.0 0 1 172.4 344.37z" fill="#070707"/><path d="M137.64 339.52l39.12-3.8c-.61-1.14-1.23-2.15-1.67-2.9a58.31 58.31.0 0 0-7.94-10.6c-3.29-3.44 2.29-8.25 5.56-4.83 3.61 3.76 9.33 10.64 12.06 17.55l1.19-.11a11.37 11.37.0 0 0-.92-1.56c-2.75-3.84 2.8-8.69 5.56-4.83a19.48 19.48.0 0 1 2.86 5.66l1.66-.16a28.63 28.63.0 0 0-2.11-3.76c-1.09-1.68.05-4.12 1.69-4.92 2-1 3.84.0 4.93 1.68a25.1 25.1.0 0 1 3 6.27l1.47-.15a165.42 165.42.0 0 1 0-17.25c.25-4.75 7.59-4.14 7.34.6a156.94 156.94.0 0 0 0 15.94l59.15-5.75a4 4 0 0 1 .6.0l74.43 3.72c-.33-1.07-.66-2-.91-2.76a58 58 0 0 0-5.53-12c-2.49-4.06 4-7.58 6.46-3.55 2.61 4.24 6.53 11.69 7.92 18.75l1.05.05c-.08-.23-.16-.45-.26-.68-1.88-4.33 4.56-7.91 6.45-3.56a20.07 20.07.0 0 1 1.39 4.62l1.45.08c-.25-.85-.55-1.68-.85-2.48-.71-1.88.91-4 2.69-4.47 2.12-.52 3.75.81 4.46 2.69a26.89 26.89.0 0 1 1.31 4.64l2.12.1c.86-4.94 1.91-9.85 3.22-14.7 1.25-4.59 8.3-2.45 7.06 2.13-1.16 4.28-2.11 8.6-2.9 12.94l24.09 1.21a3.87 3.87.0 0 1 .84.13l10.68-1 1.58-81.07c.34-.25.66-.51 1-.78a16.11 16.11.0 0 0 4.9-7.15l.55-1.6 2.85-8.35A16.39 16.39.0 0 0 417 212.67l-21.72-7.42a16.39 16.39.0 0 0-20.74 10.18l-3.4 9.95c-.17.49-.31 1-.43 1.49a16.36 16.36.0 0 0-8.27 13.85v.61l12.39.62a16.21 16.21.0 0 0 6.5 4.18l15.36 5.25-34.41-1.72-.52 26.57-19.52-27.58-57.48-2.87c0 .62-.07 1.24-.09 1.86a3.6 3.6.0 0 1 2.51 5.16A71.65 71.65.0 0 0 283.41 263a3.76 3.76.0 0 1-4.36 2.84c-1.81-.39-3.47-2.46-2.84-4.37 1.1-3.38 2.09-6.81 3.51-10.07a3 3 0 0 1-2.41-3.22c0-.91.08-1.83.12-2.74h-1.09a17.42 17.42.0 0 1-.91 3.41c-1.69 4.43-8.25 1.07-6.57-3.33.0-.09.05-.19.08-.28l-2 .19a19.71 19.71.0 0 1-1 3.31c-1.63 4.16-7.52 1.43-6.79-2.55H259a10.36 10.36.0 0 1-2.86 5.91l-.32.29a43.23 43.23.0 0 1 6.71 6.35c1.29 1.55.51 4.09-1 5.11a3.76 3.76.0 0 1-5.11-1c-3.31-4-7.77-6.73-12.09-9.45a3.94 3.94.0 0 1-1.05-5.66L167.5 255l-15 21.21-.38-19.72-14 1.36a2.55 2.55.0 0 1-.39.0h-.21l-4.56-.23 3.93-2.08a16.13 16.13.0 0 0 6.59-6.45l8.46-.82-.15-7.59a16.39 16.39.0 0 0-12.46-15.53l-3.73-7.05a16.37 16.37.0 0 0-22.07-6.82L93.24 222a16.4 16.4.0 0 0-6.82 22.08l1.64 3.11 4.45 8.41 2 3.85a16 16 0 0 0 2 3l1.47 75.08z" fill="#070707"/><path d="M249.86 248.18a3.7 3.7.0 0 1 .74-1c.07-.07.12-.15.18-.22l-2.51.24z" fill="#070707"/><path d="M250.52 238.72c-.51-1.37-1.07-2.62-1.46-3.51a57.94 57.94.0 0 0-6.53-11.52c-2.83-3.83 3.32-7.89 6.13-4.09 3 4.08 7.65 11.35 9.59 18.37l1.08-.1a10.35 10.35.0 0 0-.45-1c-2.24-4.15 3.87-8.26 6.13-4.09a20.86 20.86.0 0 1 1.74 4.33l1.38-.14c-.3-.73-.62-1.46-.95-2.15-.87-1.81.56-4.09 2.29-4.68 2.08-.7 3.81.49 4.68 2.3a27.06 27.06.0 0 1 1.7 4.52l2.11.11c.44-5.07 1.06-10.11 2-15.12.85-4.67 8.06-3.14 7.21 1.53s-1.44 9.28-1.86 13.95L336.12 240l-4.84-6.84a43.92 43.92.0 0 0-39.76-26.26l-67.46-.45A43.52 43.52.0 0 0 185.2 230l-11.45 16.18z" fill="#070707"/><path d="M220 188.92a68.69 68.69.0 1 0-20.46-95A68.69 68.69.0 0 0 220 188.92z" fill="#070707"/><path d="M75.27 246.58c.4-4.64 1-9.25 1.83-13.84.81-4.38-5.95-5.84-6.75-1.46-.91 4.95-1.53 9.95-1.95 14.95l-1.71-.08a25.1 25.1.0 0 0-1.79-5c-.81-1.7-2.44-2.82-4.38-2.17-1.62.55-3 2.68-2.17 4.38.38.79.75 1.62 1.07 2.46L58 245.71a18.89 18.89.0 0 0-1.69-4.3c-2.1-3.92-7.84-.08-5.75 3.82a1.17 1.17.0 0 0 0 .11h-.92c-1.94-6.3-6-12.68-8.68-16.33s-8.4.22-5.75 3.82a54.05 54.05.0 0 1 6.09 10.82c.16.37.36.81.56 1.3L4.3 243a4.09 4.09.0 0 0-.41 8.17l39.76 2a3.43 3.43.0 0 1-.87 1.61 3.76 3.76.0 0 0-.7 1L40 254.42c-3.77-2.38-6.87 3.8-3.14 6.16 4.05 2.55 8.23 5.17 11.32 8.89a3.54 3.54.0 0 0 4.79 1c1.44-1 2.17-3.34 1-4.79a39.75 39.75.0 0 0-6.28-6l.31-.28a9.82 9.82.0 0 0 2.73-5.86h.23c-1.06 3.9 4.69 6.71 6.28 2.72a22.42 22.42.0 0 0 .76-2.37l1.76.09c-.64 3.75 4.87 6.3 6.36 2.4a17.91 17.91.0 0 0 .64-2l1.19.06c0 .47.0.94-.06 1.41a2.8 2.8.0 0 0 2.25 3c-1.34 3.06-2.27 6.27-3.32 9.43-.59 1.79 1 3.75 2.65 4.11a3.54 3.54.0 0 0 4.11-2.65 67.3 67.3.0 0 1 3.54-9.53 3.36 3.36.0 0 0-2.33-4.84c0-.21.0-.41.0-.61l17.75.88-4.45-8.41z" fill="#575756"/><path d="M136.9 255.58 133 257.66l4.56.23h.21a2.55 2.55.0 0 0 .39.0l14-1.36L167.5 255l75.73-7.37a3.94 3.94.0 0 0 1.05 5.66c4.32 2.72 8.78 5.49 12.09 9.45a3.76 3.76.0 0 0 5.11 1c1.53-1 2.31-3.56 1-5.11a43.23 43.23.0 0 0-6.71-6.35l.32-.29a10.36 10.36.0 0 0 2.86-5.91h.19c-.73 4 5.16 6.71 6.79 2.55a19.71 19.71.0 0 0 1-3.31l2-.19c0 .09-.05.19-.08.28-1.68 4.4 4.88 7.76 6.57 3.33a17.42 17.42.0 0 0 .91-3.41h1.09c0 .91-.1 1.83-.12 2.74a3 3 0 0 0 2.41 3.22c-1.42 3.26-2.41 6.69-3.51 10.07-.63 1.91 1 4 2.84 4.37a3.76 3.76.0 0 0 4.36-2.84 71.65 71.65.0 0 1 3.76-10.17 3.6 3.6.0 0 0-2.51-5.16c0-.62.07-1.24.09-1.86l57.48 2.87 20 1 34.41 1.72-15.36-5.25a16.21 16.21.0 0 1-6.5-4.18l-12.39-.62L336.12 240l-50.84-2.55c.42-4.67 1-9.32 1.86-13.95s-6.36-6.2-7.21-1.53c-.91 5-1.53 10-2 15.12l-2.11-.11a27.06 27.06.0 0 0-1.7-4.52c-.87-1.81-2.6-3-4.68-2.3-1.73.59-3.16 2.87-2.29 4.68.33.69.65 1.42.95 2.15l-1.38.14a20.86 20.86.0 0 0-1.74-4.33c-2.26-4.17-8.37-.06-6.13 4.09a10.35 10.35.0 0 1 .45 1l-1.08.1c-1.94-7-6.57-14.29-9.59-18.37-2.81-3.8-9 .26-6.13 4.09a57.94 57.94.0 0 1 6.53 11.52c.39.89.95 2.14 1.46 3.51l-76.77 7.47L152 248.31l-8.46.82A16.13 16.13.0 0 1 136.9 255.58zm113.7-8.44a3.7 3.7.0 0 0-.74 1l-1.59-1 2.51-.24C250.72 247 250.67 247.07 250.6 247.14z" fill="#575756"/><path d="M418.87 250.52l21.24-2.07a3.55 3.55.0 0 1-.92 1.73 3.84 3.84.0 0 0-.74 1l-2.25-1.44c-4-2.53-7.32 4.07-3.34 6.58 4.32 2.71 8.79 5.49 12.1 9.45a3.76 3.76.0 0 0 5.11 1c1.53-1 2.3-3.56 1-5.11a42.73 42.73.0 0 0-6.7-6.35c.1-.09.21-.18.32-.29a10.78 10.78.0 0 0 3-7.36h.5c-.08.23-.15.47-.24.7-1.73 4.39 4.83 7.75 6.57 3.34a20.36 20.36.0 0 0 1.25-4.78l2.08-.2a7.82 7.82.0 0 1-.42 1.75c-1.68 4.4 4.88 7.77 6.57 3.33a17.76 17.76.0 0 0 1.16-5.79l.95-.1c-.1 1.76-.18 3.51-.23 5.27a3 3 0 0 0 2.4 3.22c-1.41 3.26-2.4 6.69-3.51 10.07-.62 1.91 1 4 2.84 4.37A3.76 3.76.0 0 0 472 266a72.73 72.73.0 0 1 3.75-10.16 3.58 3.58.0 0 0-2.5-5.16c.05-1.83.14-3.66.25-5.48l21.13-2.06a16.33 16.33.0 0 1-1.35-8.09l-19 1.85c.39-3.46.87-6.91 1.5-10.35.84-4.67-6.36-6.2-7.21-1.53-.76 4.18-1.33 8.39-1.76 12.61l-3 .29c-.31-.8-.64-1.61-1-2.41-.87-1.81-2.61-3-4.68-2.3-1.73.59-3.17 2.87-2.3 4.68.13.25.24.52.36.78l-1.24.12a20.87 20.87.0 0 0-1.29-2.94c-2.17-4-7.93-.33-6.3 3.67l-.88.09c-2.13-6.58-6.35-13.17-9.16-17s-9 .26-6.13 4.09a58.22 58.22.0 0 1 6.53 11.52c.25.58.58 1.31.91 2.13l-14.24 1.39-.55 1.6A16.11 16.11.0 0 1 418.87 250.52z" fill="#575756"/><path d="M552.38 233.5a16.25 16.25.0 0 1 1.83 6.26l6.2.31 15.27.76a3.51 3.51.0 0 1-.87 1.62 3.56 3.56.0 0 0-.7 1c-.7-.45-1.4-.9-2.11-1.34-3.77-2.39-6.87 3.79-3.13 6.15a69.45 69.45.0 0 1 8.07 5.69 26.48 26.48.0 0 1 3.24 3.2 3.52 3.52.0 0 0 4.79 1c1.44-1 2.18-3.34 1-4.79a38.76 38.76.0 0 0-5-5c-.41-.34-.82-.68-1.24-1L580 247a9.82 9.82.0 0 0 2.73-5.86h.23a3.47 3.47.0 0 0 .73 3.24c1.49 1.76 4.47 2.18 5.55-.52a23 23 0 0 0 .76-2.36l1.76.08c-.64 3.75 4.87 6.3 6.36 2.4a16.12 16.12.0 0 0 .64-2.05l1.19.06c0 .47.0.94-.06 1.41a2.8 2.8.0 0 0 2.25 3c-1.34 3.06-2.27 6.27-3.32 9.43-.59 1.79 1 3.75 2.65 4.11a3.53 3.53.0 0 0 4.11-2.65 68.55 68.55.0 0 1 3.54-9.53 3.36 3.36.0 0 0-2.33-4.84c0-.21.0-.41.0-.61l62.77 3.14h.21a2.55 2.55.0 0 0 .39.0l76.05-7.39 29-2.82a3.93 3.93.0 0 0 1 5.65c4.32 2.72 8.78 5.5 12.09 9.45a3.76 3.76.0 0 0 5.11 1c1.53-1 2.31-3.56 1-5.11a43.23 43.23.0 0 0-6.71-6.35l.32-.29a10.37 10.37.0 0 0 2.86-5.9h.19c-.73 4 5.16 6.71 6.79 2.55a19.71 19.71.0 0 0 1-3.31l2-.19c0 .09.0.19-.08.28-1.68 4.4 4.88 7.77 6.57 3.33a17.42 17.42.0 0 0 .91-3.41l1.09.05c0 .91-.1 1.83-.12 2.74a3 3 0 0 0 2.41 3.22c-1.42 3.26-2.41 6.69-3.51 10.07-.63 1.91 1 4 2.84 4.37a3.76 3.76.0 0 0 4.36-2.84 72.11 72.11.0 0 1 3.76-10.17 3.6 3.6.0 0 0-2.51-5.16c0-.62.07-1.24.09-1.86l120.45 6h.21.39l34.31-3.34a3.55 3.55.0 0 1-.92 1.73 4 4 0 0 0-.74 1l-2.25-1.43c-4-2.54-7.32 4.06-3.33 6.57 4.32 2.71 8.78 5.49 12.09 9.45a3.76 3.76.0 0 0 5.11 1c1.53-1 2.3-3.56 1-5.11a42.2 42.2.0 0 0-6.7-6.34l.32-.3a10.76 10.76.0 0 0 3-7.35l.5-.05c-.08.23-.15.47-.24.71-1.73 4.38 4.84 7.74 6.57 3.33a20.36 20.36.0 0 0 1.25-4.78l2.08-.2a7.82 7.82.0 0 1-.42 1.75c-1.68 4.4 4.88 7.77 6.57 3.33a18 18 0 0 0 1.17-5.79l.94-.09c-.09 1.75-.18 3.5-.23 5.26a3 3 0 0 0 2.41 3.23c-1.42 3.26-2.41 6.69-3.52 10.06-.62 1.91 1 4 2.84 4.37a3.76 3.76.0 0 0 4.37-2.84 71.53 71.53.0 0 1 3.76-10.16 3.59 3.59.0 0 0-2.51-5.16c.05-1.83.14-3.66.25-5.48l65.19-6.34.11-8.19a4 4 0 0 0-.6.0l-64 6.22c.39-3.47.87-6.92 1.5-10.36.84-4.67-6.36-6.2-7.21-1.53-.76 4.18-1.33 8.39-1.76 12.61l-3 .29c-.31-.8-.64-1.61-1-2.41-.87-1.8-2.61-3-4.68-2.29-1.73.58-3.17 2.86-2.3 4.67.13.25.24.52.36.78l-1.24.12a20.76 20.76.0 0 0-1.29-2.93c-2.17-4-7.93-.34-6.3 3.67l-.88.08c-2.13-6.58-6.35-13.17-9.16-17s-9 .26-6.13 4.09a58.22 58.22.0 0 1 6.53 11.52c.25.58.58 1.32.91 2.13l-32.93 3.21a4.08 4.08.0 0 0-.85-.14l-119.5-6c.42-4.67 1-9.32 1.86-14s-6.36-6.2-7.21-1.53c-.91 5-1.53 10.05-2 15.12l-2.11-.11a27.06 27.06.0 0 0-1.7-4.52c-.87-1.81-2.6-3-4.68-2.3-1.73.59-3.16 2.87-2.29 4.68.33.69.66 1.42.95 2.15l-1.38.14a20.86 20.86.0 0 0-1.74-4.33c-2.26-4.17-8.37-.06-6.13 4.09a10.35 10.35.0 0 1 .45 1l-1.08.1c-1.94-7-6.57-14.29-9.59-18.37-2.81-3.8-9 .26-6.13 4.09a58.22 58.22.0 0 1 6.53 11.52c.39.89.95 2.14 1.46 3.52l-43.45 4.22-69.43 6.75-62.37-3.12c.4-4.64 1-9.25 1.83-13.84a3.51 3.51.0 0 0-4.2-4 3 3 0 0 0-2.43 2.16c0 .14-.09.27-.12.42-.91 5-1.53 10-2 15l-1.71-.08a24.71 24.71.0 0 0-1.79-5 4.44 4.44.0 0 0-1.39-1.71 3.16 3.16.0 0 0-3-.45c-1.62.54-3 2.67-2.16 4.38.37.78.74 1.6 1.06 2.45h0l-1.4-.07a18.89 18.89.0 0 0-1.69-4.3c-2.1-3.92-7.84-.08-5.75 3.82a1.17 1.17.0 0 0 0 .11h-.92c-1.94-6.3-6-12.68-8.68-16.33s-8.4.22-5.75 3.82a54.05 54.05.0 0 1 6.09 10.82c.16.37.36.81.56 1.3l-16.43-.82-6.24-.31zm230.25 1.28a3.84 3.84.0 0 0-.74 1l-1.59-1 2.51-.25C782.75 234.63 782.7 234.71 782.63 234.78z" fill="#575756"/><path d="M349.9 704.68q1.56 1.43 3 3l-.41-6.07a10 10 0 0 1-2.24 2.8z" fill="#070707"/><path d="M341.38 697.94a4 4 0 0 1 .84.48c.72.54 1.42 1.08 2.12 1.62a3.87 3.87.0 0 1 .83-1 3.7 3.7.0 0 0 .73-.9z" fill="#070707"/><path d="M349.59 715.13c-3-4.23-7.17-7.38-11.24-10.45a4 4 0 0 1 1-6.84l-67.8-3.39a4.08 4.08.0 0 1-.85-.14l-1 .11 2.86 42.71c1.61 23.91 21.36 42.24 43.9 40.73s39.67-22.3 38.07-46.21l-1-14.7A3.93 3.93.0 0 1 349.59 715.13z" fill="#070707"/><path d="M284.75 605.28c0 .63-.07 1.25-.09 1.87a3.59 3.59.0 0 1 2.51 5.16 72 72 0 0 0-3.76 10.16 3.75 3.75.0 0 1-4.36 2.84c-1.81-.38-3.47-2.46-2.84-4.37 1.1-3.37 2.09-6.8 3.51-10.06a3 3 0 0 1-2.41-3.22c0-.92.08-1.83.12-2.74l-1.09-.06a17.51 17.51.0 0 1-.91 3.42c-1.69 4.43-8.25 1.07-6.57-3.33l.08-.29-2 .2a19.71 19.71.0 0 1-1 3.31A3.08 3.08.0 0 1 264 610.1l5.1 76.15 1.4-.14a4 4 0 0 1 .6.0l74.43 3.72c-.33-1.07-.66-2-.91-2.77a58 58 0 0 0-5.53-12c-2.49-4.06 4-7.58 6.46-3.56a74.91 74.91.0 0 1 5.65 11.25l-5-74.35z" fill="#070707"/><path d="M175.09 692.33a58.89 58.89.0 0 0-7.59-10.22l-.76 14.09 10-1C176.15 694.09 175.53 693.07 175.09 692.33z" fill="#070707"/><path d="M176.5 515v.5h.28C176.67 515.31 176.59 515.15 176.5 515z" fill="#070707"/><path d="M249.06 594.72a57.66 57.66.0 0 0-6.53-11.52c-2.83-3.84 3.32-7.9 6.13-4.09a74 74 0 0 1 6.13 9.83l3.49-64.72 4.44 66.4a3.05 3.05.0 0 1 2.29 1.71 20.78 20.78.0 0 1 1.74 4.32l1.38-.13c-.3-.74-.62-1.46-.95-2.15-.87-1.82.56-4.09 2.29-4.68 2.08-.71 3.81.49 4.68 2.3a26.73 26.73.0 0 1 1.7 4.52l2.11.1c.44-5.06 1.06-10.11 2-15.11.85-4.68 8.06-3.15 7.21 1.53s-1.44 9.28-1.86 14l60.41 3-4.9-73.21-2.44-1.86a4 4 0 0 1 1-6.84l-67.8-3.4a4.06 4.06.0 0 1-.85-.13L212 520.27a.71.71.0 0 1 0 .14 3.59 3.59.0 0 1 3.14 4.8 71.86 71.86.0 0 0-2.44 10.56 3.77 3.77.0 0 1-4 3.37c-1.83-.15-3.74-2-3.36-4 .67-3.49 1.22-7 2.21-10.43a3 3 0 0 1-2.8-2.89c0-.28.0-.57-.07-.86l-1.43.14c-.08.52-.16 1-.29 1.58-1 4-6.4 2.62-7-.87l-2 .2c-.1.58-.21 1.16-.36 1.76-1 4.09-6.61 2.56-7-1h-.23a10.19 10.19.0 0 1-2.08 5.6 3 3 0 0 1-.28.33 43 43 0 0 1 7.46 5.45c1.47 1.37 1 4-.37 5.2a3.75 3.75.0 0 1-5.19-.37 40.7 40.7.0 0 0-10.26-6.47l-4 73.39 78.92-7.67C250 596.86 249.45 595.61 249.06 594.72z" fill="#070707"/><path d="M176 523.77l-.05.85c.52.24 1 .47 1.53.72a3.75 3.75.0 0 1 .61-1.12 3.73 3.73.0 0 0 .4-.7z" fill="#070707"/><path d="M248.27 606.67l1.59 1a3.8 3.8.0 0 1 .74-1c.07-.07.12-.15.18-.22z" fill="#070707"/><path d="M186 514.58A11.37 11.37.0 0 0 185 513c-2.75-3.83 2.8-8.69 5.56-4.83a19.61 19.61.0 0 1 2.86 5.66l1.66-.16a27.88 27.88.0 0 0-2.11-3.75c-1.09-1.69.05-4.13 1.69-4.93 2-1 3.84.0 4.93 1.69a25 25 0 0 1 3 6.26l1.47-.14a165.62 165.62.0 0 1 0-17.26c.25-4.74 7.59-4.14 7.34.61a156.94 156.94.0 0 0 0 15.94l59.15-5.75a4 4 0 0 1 .6.0l68.52 3.43L335.31 445a46.28 46.28.0 0 0-1-7c.07-1 .13-2.08.13-3.14v-6.78l-49.68-2.49c0 .62-.07 1.24-.09 1.87a3.59 3.59.0 0 1 2.51 5.16 72 72 0 0 0-3.76 10.16 3.75 3.75.0 0 1-4.36 2.84c-1.81-.38-3.47-2.46-2.84-4.37 1.1-3.37 2.09-6.8 3.51-10.06a3 3 0 0 1-2.41-3.23c0-.91.08-1.82.12-2.74l-1.09-.05a17.42 17.42.0 0 1-.91 3.41c-1.69 4.44-8.25 1.08-6.57-3.32.0-.1.05-.2.08-.29l-2 .19a20.09 20.09.0 0 1-1 3.32c-1.63 4.15-7.52 1.43-6.79-2.56h-.19a10.34 10.34.0 0 1-2.86 5.9 3 3 0 0 1-.32.3 42.31 42.31.0 0 1 6.71 6.35c1.29 1.54.51 4.08-1 5.1a3.77 3.77.0 0 1-5.11-1c-3.31-4-7.77-6.74-12.09-9.45a3.94 3.94.0 0 1-1.05-5.66l-63.43 6.16v.21a42.67 42.67.0 0 0 .79 8.35c-.16 1.2-.29 2.42-.36 3.65l-3 56.49a51.27 51.27.0 0 1 7.58 12.43z" fill="#070707"/><path d="M172.71 676.89c3.61 3.77 9.33 10.65 12.06 17.56l1.19-.12a10.71 10.71.0 0 0-.92-1.55c-2.75-3.84 2.8-8.69 5.56-4.83a19.43 19.43.0 0 1 2.86 5.65l1.66-.16a28.5 28.5.0 0 0-2.11-3.75c-1.09-1.69.05-4.13 1.69-4.93 2-1 3.84.0 4.93 1.69a25 25 0 0 1 3 6.26l1.47-.14a165.61 165.61.0 0 1 0-17.26c.25-4.74 7.59-4.13 7.34.61a156.94 156.94.0 0 0 0 15.94l38.06-3.7 3.72-69.11a71.88 71.88.0 0 0-8.88-6.23 3.94 3.94.0 0 1-1.05-5.66l-72.07 7L167.8 676.5A3.63 3.63.0 0 1 172.71 676.89z" fill="#070707"/><path d="M175.1 704l2.41 1.14a3.88 3.88.0 0 1 .61-1.12 4 4 0 0 0 .4-.69l-4.19.41A3.5 3.5.0 0 1 175.1 704z" fill="#070707"/><path d="M212 700.16a3.6 3.6.0 0 1 3.14 4.81 71.73 71.73.0 0 0-2.44 10.55 3.77 3.77.0 0 1-4 3.37c-1.83-.15-3.74-2-3.36-4 .67-3.49 1.22-7 2.21-10.43a3 3 0 0 1-2.8-2.89c0-.29.0-.58-.07-.86l-1.43.13c-.08.53-.16 1-.29 1.58-1 4-6.4 2.62-7-.87l-2 .2c-.1.58-.21 1.16-.36 1.76-1 4.09-6.61 2.56-7-1h-.23a10.17 10.17.0 0 1-2.08 5.6 3 3 0 0 1-.28.33 43 43 0 0 1 7.46 5.45c1.47 1.37 1 4-.37 5.2a3.75 3.75.0 0 1-5.19-.36c-3.79-3.51-8.57-5.7-13.19-7.85a4 4 0 0 1-.23-7l-6.11.6-1.52 28.19c-1.29 23.94 16.11 44.51 38.67 45.73s42.07-17.37 43.36-41.3L249 696.43 212 7e2A.57.57.0 0 1 212 700.16z" fill="#070707"/><path d="M250.52 418.48c-.51-1.38-1.07-2.63-1.46-3.52a58.22 58.22.0 0 0-6.53-11.52c-2.83-3.83 3.32-7.89 6.13-4.09 3 4.08 7.65 11.35 9.59 18.38l1.08-.11a9.12 9.12.0 0 0-.45-.95c-2.24-4.16 3.87-8.27 6.13-4.09a20.57 20.57.0 0 1 1.74 4.32l1.38-.14c-.3-.73-.62-1.45-.95-2.15-.87-1.81.56-4.09 2.29-4.67 2.08-.71 3.81.49 4.68 2.29a27.39 27.39.0 0 1 1.7 4.52l2.11.11c.44-5.06 1.06-10.11 2-15.12.85-4.67 8.06-3.14 7.21 1.53s-1.44 9.28-1.86 14l49.18 2.46.24-81.59-63.14-3.16a4.06 4.06.0 0 1-.85-.13L212 340.52a.66.66.0 0 1 0 .14 3.59 3.59.0 0 1 3.14 4.8A71.86 71.86.0 0 0 212.67 356a3.76 3.76.0 0 1-4 3.36c-1.83-.15-3.74-2-3.36-4 .67-3.49 1.22-7 2.21-10.43a3 3 0 0 1-2.8-2.89c0-.29.0-.57-.07-.86l-1.43.14c-.08.52-.16 1-.29 1.57-1 4-6.4 2.62-7-.86l-2 .2c-.1.58-.21 1.16-.36 1.75-1 4.09-6.61 2.57-7-1h-.23a10.16 10.16.0 0 1-2.08 5.59c-.09.12-.18.23-.28.34a42.52 42.52.0 0 1 7.46 5.45c1.47 1.37 1 4-.37 5.19a3.75 3.75.0 0 1-5.19-.36 31.14 31.14.0 0 0-5.79-4.14l-.21 70.26z" fill="#070707"/><path d="M248.27 426.92l1.59 1a4 4 0 0 1 .74-1 1.32 1.32.0 0 0 .18-.22z" fill="#070707"/><path d="M670.16 425.27h-.39-.21l-62.77-3.14c0 .2.0.41.0.61a3.38 3.38.0 0 1 2.33 4.85 68 68 0 0 0-3.54 9.52 3.52 3.52.0 0 1-4.11 2.65c-1.69-.36-3.24-2.31-2.65-4.1 1.05-3.17 2-6.38 3.32-9.43a2.81 2.81.0 0 1-2.25-3c0-.47.0-.94.06-1.41l-1.19-.06a16.64 16.64.0 0 1-.64 2.05c-1.49 3.9-7 1.34-6.36-2.4L590 421.3a23 23 0 0 1-.76 2.36c-1.59 4-7.34 1.18-6.28-2.71h-.23a9.82 9.82.0 0 1-2.73 5.86 2.7 2.7.0 0 1-.31.28 39.75 39.75.0 0 1 6.28 6c1.21 1.45.47 3.83-1 4.79a3.52 3.52.0 0 1-4.79-1c-3.09-3.72-7.27-6.33-11.31-8.89-3.74-2.35-.64-8.54 3.13-6.15.71.44 1.41.89 2.11 1.35a3.6 3.6.0 0 1 .7-1 3.51 3.51.0 0 0 .87-1.62L564.51 420 541.67 500.8l34.77 1.74-.56-1.3a54.37 54.37.0 0 0-6.1-10.82c-2.65-3.6 3.13-7.39 5.76-3.82s6.74 10 8.67 16.33l.93.05-.06-.12c-2.09-3.89 3.66-7.74 5.76-3.82a19.2 19.2.0 0 1 1.68 4.31l1.42.07c-.32-.85-.69-1.67-1.07-2.46-.81-1.7.54-3.83 2.17-4.38 1.94-.66 3.56.46 4.37 2.16a24.33 24.33.0 0 1 1.79 5l1.71.09c.42-5 1-10 2-14.95.81-4.38 7.56-2.93 6.76 1.45-.85 4.59-1.44 9.2-1.84 13.84l62.37 3.12 39.12-3.8c-.61-1.14-1.23-2.15-1.67-2.9a57.8 57.8.0 0 0-7.93-10.6c-3.3-3.45 2.29-8.25 5.56-4.84 3.6 3.77 9.33 10.65 12.06 17.56l1.18-.12a10.64 10.64.0 0 0-.91-1.55c-2.75-3.84 2.79-8.69 5.55-4.83A19.47 19.47.0 0 1 728 501.9l1.65-.16a29.11 29.11.0 0 0-2.1-3.75c-1.1-1.69.0-4.12 1.68-4.93 2-1 3.84.0 4.93 1.69a25.33 25.33.0 0 1 3 6.27l1.47-.15a165.61 165.61.0 0 1-.05-17.26c.25-4.74 7.6-4.13 7.35.61a154.09 154.09.0 0 0 0 15.94L790 495.88l-22.64-80.06z" fill="#070707"/><path d="M743.21 347.44c-1.84-.15-3.75-2-3.37-4 .67-3.48 1.22-7 2.21-10.42a3 3 0 0 1-2.79-2.9c0-.28.0-.57-.07-.86l-1.43.14c-.08.53-.16 1.05-.29 1.58-1 4-6.41 2.62-7-.87l-2.05.2c-.1.58-.21 1.16-.36 1.76-1 4.09-6.62 2.56-7-1h-.23a10.24 10.24.0 0 1-2.08 5.6 3.11 3.11.0 0 1-.29.33 43 43 0 0 1 7.46 5.45c1.48 1.37 1 4-.36 5.2a3.77 3.77.0 0 1-5.2-.36c-3.78-3.51-8.56-5.71-13.19-7.85a4 4 0 0 1-.23-7l-34.26 3.33a2.68 2.68.0 0 1-.4.0h-.2l-62.78-3.14v.61a3.36 3.36.0 0 1 2.34 4.84 67.35 67.35.0 0 0-3.55 9.53 3.54 3.54.0 0 1-4.1 2.65c-1.69-.36-3.24-2.32-2.65-4.11 1-3.16 2-6.37 3.31-9.43a2.82 2.82.0 0 1-2.25-3c0-.47.0-.94.07-1.41l-1.19-.06a17.91 17.91.0 0 1-.64 2c-1.5 3.9-7 1.35-6.36-2.4l-1.77-.09a18.58 18.58.0 0 1-.76 2.37 2.8 2.8.0 0 1-3.43 1.83l-1.58 5.62c.6.62 1.18 1.25 1.74 1.93 1.21 1.45.48 3.83-1 4.79a3.2 3.2.0 0 1-2.8.4l-13.13 46.45a3.41 3.41.0 0 1 1.52 1.19c2.69 3.66 6.74 10 8.68 16.33l.92.05v-.12c-2.09-3.89 3.65-7.74 5.75-3.82a18.78 18.78.0 0 1 1.69 4.31l1.41.07c-.32-.85-.69-1.67-1.06-2.46-.82-1.7.54-3.83 2.16-4.38 2-.66 3.57.47 4.38 2.16a24.92 24.92.0 0 1 1.79 5l1.71.09c.42-5 1-10 2-14.95.8-4.38 7.56-2.93 6.75 1.45-.84 4.59-1.43 9.21-1.83 13.84l62.37 3.12 95.4-9.27-18-63.5A3.71 3.71.0 0 1 743.21 347.44z" fill="#070707"/><path d="M798.5 526.05l-6.27-22.17-45.75 4.45a.71.71.0 0 0 0 .14 3.59 3.59.0 0 1 3.13 4.8 73 73 0 0 0-2.44 10.55 3.76 3.76.0 0 1-4 3.37c-1.84-.15-3.75-2-3.37-4 .67-3.49 1.22-7 2.21-10.43a3 3 0 0 1-2.79-2.89c0-.29.0-.58-.07-.86l-1.43.14c-.08.52-.16 1-.29 1.57-1 4-6.41 2.62-7-.87l-2.05.2c-.1.58-.21 1.17-.36 1.76-1 4.09-6.62 2.56-7-1h-.23a10.24 10.24.0 0 1-2.08 5.6 3.11 3.11.0 0 1-.29.33 43.09 43.09.0 0 1 7.46 5.46c1.48 1.36 1 4-.36 5.19-1.64 1.43-3.73 1-5.2-.36-3.78-3.51-8.56-5.7-13.19-7.85a4 4 0 0 1-.23-7l-34.26 3.34h-.4-.2l-62.78-3.14v.61a3.37 3.37.0 0 1 2.34 4.84 67.35 67.35.0 0 0-3.55 9.53 3.53 3.53.0 0 1-4.1 2.65c-1.69-.36-3.24-2.31-2.65-4.1 1-3.17 2-6.38 3.31-9.44a2.81 2.81.0 0 1-2.25-3c0-.47.0-.94.07-1.41l-1.19-.06a18.55 18.55.0 0 1-.64 2c-1.5 3.9-7 1.34-6.36-2.4l-1.77-.09a19 19 0 0 1-.76 2.36c-1.58 4-7.34 1.18-6.28-2.71h-.23a9.76 9.76.0 0 1-2.73 5.86 3.84 3.84.0 0 1-.3.28 39.69 39.69.0 0 1 6.27 6c1.21 1.45.48 3.83-1 4.79a3.18 3.18.0 0 1-3 .33l-3.35 62.14c.23.64.44 1.27.64 1.9h.92v-.11c-2.09-3.9 3.65-7.75 5.75-3.82a18.89 18.89.0 0 1 1.69 4.3l1.41.07c-.32-.84-.69-1.67-1.06-2.46-.82-1.7.54-3.83 2.16-4.38 2-.66 3.57.47 4.38 2.17a24.5 24.5.0 0 1 1.79 5l1.71.08c.42-5 1-10 2-15 .8-4.38 7.56-2.93 6.75 1.45-.84 4.59-1.43 9.21-1.83 13.84L663 596.51l3.8-70.46h.22l4.72 70.59 81.81-7.95-4.2-62.64z" fill="#070707"/><path d="M581.66 526.05a51.88 51.88.0 0 0-10.31-7.84c-3.73-2.35-.64-8.54 3.14-6.15.71.44 1.41.89 2.11 1.35a3.55 3.55.0 0 1 .69-1 3.33 3.33.0 0 0 .87-1.62l-38.78-1.94-4.85 17.17z" fill="#070707"/><path d="M574 412.3c-.2-.48-.4-.92-.56-1.3a56.05 56.05.0 0 0-4.11-7.87l-2.49 8.81z" fill="#070707"/><path d="M709.62 332.5l2.41 1.14a3.83 3.83.0 0 1 .6-1.12 3 3 0 0 0 .4-.69l-4.18.4A4.44 4.44.0 0 1 709.62 332.5z" fill="#070707"/><path d="M709.62 512.25l2.41 1.14a3.83 3.83.0 0 1 .6-1.12 3 3 0 0 0 .4-.69l-4.18.41A3.68 3.68.0 0 1 709.62 512.25z" fill="#070707"/><path d="M642.8 64.76a96.35 96.35.0 0 1 10.6-1.68 94.69 94.69.0 0 1 33.82 2.72 36.39 36.39.0 1 0-44.42-1z" fill="#070707"/><path d="M191 359.59c1.39-1.21 1.84-3.82.37-5.19a42.52 42.52.0 0 0-7.46-5.45c.1-.11.19-.22.28-.34a10.16 10.16.0 0 0 2.08-5.59h.23c.42 3.61 6 5.13 7 1 .15-.59.26-1.17.36-1.75l2-.2c.6 3.48 6 4.9 7 .86.13-.53.21-1.05.29-1.57l1.43-.14c0 .29.0.57.07.86a3 3 0 0 0 2.8 2.89c-1 3.41-1.54 6.94-2.21 10.43-.38 2 1.53 3.82 3.36 4a3.76 3.76.0 0 0 4-3.36 71.86 71.86.0 0 1 2.44-10.56 3.59 3.59.0 0 0-3.14-4.8.66.66.0 0 0 0-.14l58.75-5.71a4.06 4.06.0 0 0 .85.13l63.14 3.16 4.66.23a4 4 0 0 0-1 6.85c4.07 3.07 8.28 6.22 11.24 10.44a4 4 0 0 0 3.7 1.87 3.47 3.47.0 0 0 1.3-.42c1.62-.89 2.61-3.36 1.45-5a42.24 42.24.0 0 0-6.14-6.9 4.11 4.11.0 0 0 .35-.27 10.4 10.4.0 0 0 3.39-5.85h.23c-1.33 4 4.46 7.39 6.47 3.33a21.85 21.85.0 0 0 1.18-2.95l1.94.1c-1.87 4.2 4.27 8 6.31 3.76a18.82 18.82.0 0 0 1.22-3.38l1.08.05c-.12 1-.26 1.91-.37 2.87a3 3 0 0 0 2.12 3.42c-1.68 3.12-3 6.46-4.35 9.73-.79 1.85.69 4.06 2.46 4.59a3.75 3.75.0 0 0 4.59-2.46 73.5 73.5.0 0 1 4.6-9.8 3.6 3.6.0 0 0-2.05-5.36c.1-.88.23-1.75.34-2.62l25.79 1.29h.21a2.55 2.55.0 0 0 .39.0l10.34-1 58-5.64a3.73 3.73.0 0 0 .68 5.67c4.05 2.55 8.23 5.17 11.32 8.89a3.53 3.53.0 0 0 4.79 1c1.44-1 2.17-3.33 1-4.79a40.21 40.21.0 0 0-6.28-6l.3-.27a9.8 9.8.0 0 0 2.74-5.9h.25c-1.16 3.93 4.66 6.8 6.25 2.79a19.45 19.45.0 0 0 1-3.5l1.9-.19c-.07.23-.11.45-.2.67-1.58 4.12 4.57 7.29 6.16 3.14a16.77 16.77.0 0 0 1-4.49l.91-.09c-.07 1.34-.15 2.67-.19 4a2.88 2.88.0 0 0 .91 2.3 3.07 3.07.0 0 0 1.35.73c-.47 1.06-.88 2.15-1.27 3.25-.73 2-1.37 4.12-2.05 6.18a3.42 3.42.0 0 0 2.25 4 3.1 3.1.0 0 0 .4.13 3.52 3.52.0 0 0 4.1-2.65 68 68 0 0 1 3.55-9.52 3.37 3.37.0 0 0-2.34-4.85c0-1.4.13-2.81.21-4.21l24.34-2.37a4.08 4.08.0 0 0 1.15.25l39.76 2a3.26 3.26.0 0 1-.87 1.61 3.7 3.7.0 0 0-.69 1l-2.11-1.35c-3.78-2.38-6.87 3.8-3.14 6.16a60.07 60.07.0 0 1 9.18 6.67 24.93 24.93.0 0 1 2.14 2.22 4.25 4.25.0 0 0 2 1.37 3.2 3.2.0 0 0 2.8-.4c1.44-1 2.17-3.34 1-4.79-.56-.68-1.14-1.31-1.74-1.93s-1.44-1.42-2.18-2.08-1.55-1.34-2.35-2l.3-.28a9.76 9.76.0 0 0 2.73-5.86h.23a3.65 3.65.0 0 0 1.86 4.17 3.75 3.75.0 0 0 1 .38 2.8 2.8.0 0 0 3.43-1.83 18.58 18.58.0 0 0 .76-2.37l1.77.09c-.65 3.75 4.86 6.3 6.36 2.4a17.91 17.91.0 0 0 .64-2l1.19.06c0 .47.0.94-.07 1.41a2.82 2.82.0 0 0 2.25 3c-1.33 3.06-2.27 6.27-3.31 9.43-.59 1.79 1 3.75 2.65 4.11a3.54 3.54.0 0 0 4.1-2.65 67.35 67.35.0 0 1 3.55-9.53 3.36 3.36.0 0 0-2.34-4.84v-.61l62.78 3.14h.2a2.68 2.68.0 0 0 .4.0l34.26-3.33a4 4 0 0 0 .23 7c4.63 2.14 9.41 4.34 13.19 7.85a3.77 3.77.0 0 0 5.2.36c1.39-1.21 1.84-3.83.36-5.2a43 43 0 0 0-7.46-5.45 3.11 3.11.0 0 0 .29-.33 10.24 10.24.0 0 0 2.08-5.6h.23c.41 3.6 6 5.13 7 1 .15-.6.26-1.18.36-1.76l2.05-.2c.59 3.49 6 4.9 7 .87.13-.53.21-1.05.29-1.58l1.43-.14c0 .29.0.58.07.86a3 3 0 0 0 2.79 2.9c-1 3.41-1.54 6.94-2.21 10.42-.38 2 1.53 3.83 3.37 4a3.71 3.71.0 0 0 3.91-3.12 2.27 2.27.0 0 0 .06-.25c.16-.82.31-1.63.46-2.45a54.19 54.19.0 0 1 2-8.11 3.59 3.59.0 0 0-3.13-4.8.61.61.0 0 1 0-.14l55.6-5.4 3.15-.31a4.57 4.57.0 0 0 .85.14l67.8 3.39a4 4 0 0 0-1 6.84c4.07 3.07 8.29 6.22 11.25 10.45a3.76 3.76.0 0 0 5 1.44c1.61-.89 2.6-3.35 1.45-5a42.72 42.72.0 0 0-6.15-6.9l.35-.26a10.42 10.42.0 0 0 3.39-5.86h.23c-1.32 4 4.46 7.4 6.47 3.33A21 21 0 0 0 896 327.5l2 .1c-1.87 4.19 4.27 8 6.31 3.75A18 18 0 0 0 905.5 328l1.09.06c-.13 1-.27 1.91-.38 2.87a3 3 0 0 0 2.13 3.41c-1.69 3.13-3 6.46-4.36 9.73a3 3 0 0 0 .14 2.49 4 4 0 0 0 2.32 2.11 3.79 3.79.0 0 0 4.6-2.46 70.66 70.66.0 0 1 4.6-9.81 3.51 3.51.0 0 0-1.38-5 4.17 4.17.0 0 0-.68-.31c.1-.88.24-1.75.35-2.63l3.13.16 22.66 1.13h.2.4L988 325l20.66-2a3.72 3.72.0 0 0 .69 5.66c4 2.55 8.22 5.17 11.32 8.89a3.52 3.52.0 0 0 4.79 1c1.44-1 2.17-3.34 1-4.79a40.12 40.12.0 0 0-6.27-6l.3-.28a9.73 9.73.0 0 0 2.73-5.89h.25c-1.15 3.94 4.67 6.81 6.26 2.79a20.3 20.3.0 0 0 1-3.5l1.89-.18c-.06.22-.11.44-.19.66-1.58 4.13 4.56 7.3 6.15 3.14a17.12 17.12.0 0 0 1-4.48l.91-.09c-.07 1.33-.15 2.66-.19 4a2.81 2.81.0 0 0 2.25 3c-1.33 3.06-2.27 6.27-3.32 9.43-.59 1.79 1 3.75 2.66 4.11a3.53 3.53.0 0 0 4.1-2.65 68.55 68.55.0 0 1 3.54-9.53 3.37 3.37.0 0 0-2.33-4.84c0-1.41.12-2.81.2-4.21l25.79-2.51.11-8.19a4 4 0 0 0-.6.0l-24.6 2.39c.38-3.39.86-6.76 1.48-10.12.8-4.38-5.95-5.84-6.76-1.46q-1.12 6.11-1.73 12.26l-2.62.25a27.51 27.51.0 0 0-1.1-2.68c-.81-1.7-2.43-2.82-4.38-2.16-1.62.54-3 2.67-2.16 4.38.18.37.36.76.53 1.15l-1.2.12a20.23 20.23.0 0 0-1.36-3.19c-2.11-3.92-7.85-.08-5.76 3.82v.06l-.88.09c-1.92-6.33-6-12.74-8.69-16.41s-8.41.22-5.76 3.82a54.59 54.59.0 0 1 6.1 10.82c.28.66.66 1.52 1 2.48L975.64 318l-35.5 3.46a3.87 3.87.0 0 0-.85-.14l-11.41-.57-12.68-.63c.79-4.35 1.74-8.67 2.9-12.94 1.24-4.59-5.81-6.72-7.05-2.14-1.31 4.85-2.36 9.76-3.22 14.71l-2.12-.11A28.08 28.08.0 0 0 904.4 315c-.72-1.87-2.34-3.21-4.47-2.68-1.77.44-3.4 2.58-2.68 4.46.3.8.59 1.63.85 2.48l-1.45-.07a20.94 20.94.0 0 0-1.39-4.62c-1.89-4.36-8.33-.77-6.45 3.55.09.23.17.46.25.69l-1-.05c-1.4-7.06-5.31-14.51-7.93-18.76-2.48-4-9-.5-6.45 3.56a58.25 58.25.0 0 1 5.53 12c.24.73.58 1.69.9 2.77l-74.43-3.73a4.06 4.06.0 0 0-.6.0l-8 .78-51.1 5a154.09 154.09.0 0 1 0-15.94c.25-4.75-7.1-5.35-7.35-.61a165.61 165.61.0 0 0 .05 17.26l-1.47.14a25.43 25.43.0 0 0-3-6.26c-1.09-1.68-3-2.65-4.93-1.69-1.64.8-2.78 3.24-1.68 4.93a27.82 27.82.0 0 1 2.1 3.75l-1.65.16a19.64 19.64.0 0 0-2.87-5.66c-2.76-3.86-8.3 1-5.55 4.83a11.29 11.29.0 0 1 .91 1.56l-1.18.12c-2.73-6.91-8.46-13.8-12.06-17.56-3.27-3.42-8.86 1.39-5.56 4.83a58.14 58.14.0 0 1 7.93 10.6c.44.75 1.06 1.77 1.67 2.91l-39.12 3.8-62.37-3.12c.4-4.64 1-9.25 1.84-13.84.8-4.39-6-5.84-6.76-1.46-.91 4.95-1.53 9.94-2 14.95L601.2 324a23.92 23.92.0 0 0-1.79-5c-.81-1.7-2.43-2.82-4.37-2.17-1.63.55-3 2.68-2.17 4.38.38.79.75 1.62 1.07 2.46l-1.42-.07a19.31 19.31.0 0 0-1.68-4.3c-2.1-3.92-7.85-.08-5.76 3.82l.06.11h-.93c-1.93-6.3-6-12.68-8.67-16.33s-8.41.22-5.76 3.82a54.1 54.1.0 0 1 6.1 10.82l.56 1.3-37.63-1.88h0v-.4a4 4 0 0 0-.6.0l-24.6 2.39c.38-3.38.86-6.76 1.48-10.12.81-4.38-6-5.83-6.75-1.45q-1.12 6.09-1.73 12.25h-.17l-2.46.24a26.42 26.42.0 0 0-1.09-2.68c-.81-1.7-2.44-2.83-4.38-2.17-1.63.55-3 2.68-2.17 4.38l.54 1.16-1.21.12a19.84 19.84.0 0 0-1.36-3.19c-2.1-3.93-7.84-.08-5.75 3.82.0.0.0.0.0.06l-.87.08c-1.93-6.32-6-12.74-8.7-16.4s-8.4.22-5.76 3.82a54.1 54.1.0 0 1 6.1 10.82c.28.65.67 1.51 1.05 2.47l-64.09 6.23-10.68 1a3.87 3.87.0 0 0-.84-.13l-24.09-1.21c.79-4.34 1.74-8.66 2.9-12.94 1.24-4.58-5.81-6.72-7.06-2.13-1.31 4.85-2.36 9.76-3.22 14.7l-2.12-.1a26.89 26.89.0 0 0-1.31-4.64c-.71-1.88-2.34-3.21-4.46-2.69-1.78.44-3.4 2.59-2.69 4.47.3.8.6 1.63.85 2.48l-1.45-.08a20.07 20.07.0 0 0-1.39-4.62c-1.89-4.35-8.33-.77-6.45 3.56.1.23.18.45.26.68l-1.05-.05c-1.39-7.06-5.31-14.51-7.92-18.75-2.48-4-8.95-.51-6.46 3.55a58 58 0 0 1 5.53 12c.25.73.58 1.69.91 2.76l-74.43-3.72a4 4 0 0 0-.6.0l-59.15 5.75a156.94 156.94.0 0 1 0-15.94c.25-4.74-7.09-5.35-7.34-.6a165.42 165.42.0 0 0 0 17.25l-1.47.15a25.1 25.1.0 0 0-3-6.27c-1.09-1.68-3-2.65-4.93-1.68-1.64.8-2.78 3.24-1.69 4.92a28.63 28.63.0 0 1 2.11 3.76l-1.66.16a19.48 19.48.0 0 0-2.86-5.66c-2.76-3.86-8.31 1-5.56 4.83a11.37 11.37.0 0 1 .92 1.56l-1.19.11c-2.73-6.91-8.45-13.79-12.06-17.55-3.27-3.42-8.85 1.39-5.56 4.83a58.31 58.31.0 0 1 7.94 10.6c.44.75 1.06 1.76 1.67 2.9l-39.12 3.8-39.59-2L75.27 336.4c.4-4.63 1-9.25 1.83-13.84.81-4.38-5.95-5.83-6.75-1.45-.91 4.95-1.53 9.94-1.95 14.95L66.69 336a25.24 25.24.0 0 0-1.79-5c-.81-1.7-2.44-2.83-4.38-2.17-1.62.55-3 2.68-2.17 4.38.38.79.75 1.61 1.07 2.46L58 335.54a18.89 18.89.0 0 0-1.69-4.3c-2.1-3.93-7.84-.08-5.75 3.82a1.17 1.17.0 0 1 0 .11l-.92-.05c-1.94-6.3-6-12.67-8.68-16.33s-8.4.23-5.75 3.83a54.05 54.05.0 0 1 6.09 10.82c.16.37.36.81.56 1.29L4.3 332.85A4.1 4.1.0 0 0 3.89 341l39.76 2a3.46 3.46.0 0 1-.87 1.62 3.6 3.6.0 0 0-.7 1L40 344.25c-3.77-2.38-6.87 3.8-3.14 6.15 4.05 2.56 8.23 5.17 11.32 8.9a3.53 3.53.0 0 0 4.79 1c1.44-1 2.17-3.34 1-4.79a40.21 40.21.0 0 0-6.28-6 3.74 3.74.0 0 0 .31-.27 9.84 9.84.0 0 0 2.73-5.86h.23c-1.06 3.9 4.69 6.71 6.28 2.71a22.26 22.26.0 0 0 .76-2.36l1.76.09c-.64 3.74 4.87 6.3 6.36 2.4a18.55 18.55.0 0 0 .64-2.05l1.19.06c0 .47.0.94-.06 1.41a2.81 2.81.0 0 0 2.25 3c-1.34 3.05-2.27 6.27-3.32 9.43-.59 1.79 1 3.74 2.65 4.1a3.52 3.52.0 0 0 4.11-2.65A66.72 66.72.0 0 1 77.06 350a3.38 3.38.0 0 0-2.33-4.85c0-.2.0-.4.0-.61l23.44 1.17 39.33 2h.21.39l34.27-3.33a3.73 3.73.0 0 0-1.94 2.74 3.82 3.82.0 0 0 2.17 4.27c2.48 1.16 5 2.33 7.4 3.71a31.14 31.14.0 0 1 5.79 4.14A3.75 3.75.0 0 0 191 359.59zm688.68-32a3.7 3.7.0 0 0-.83 1L876.74 327a3.87 3.87.0 0 0-.85-.48l4.52.23A3.44 3.44.0 0 1 879.69 327.62zm135.58-4.7a3.56 3.56.0 0 0-.7 1l-1.94-1.24 3.09-.3A3.48 3.48.0 0 1 1015.27 322.92zm-302.64 9.6a3.83 3.83.0 0 0-.6 1.12l-2.41-1.14a4.44 4.44.0 0 0-.77-.27l4.18-.4A3 3 0 0 1 712.63 332.52zm-231.87 2.34a3.39 3.39.0 0 0-.7 1l-1.95-1.25 3.09-.3A2.77 2.77.0 0 1 480.76 334.86zm-135.59 4.7a4.05 4.05.0 0 0-.83 1c-.7-.54-1.4-1.08-2.12-1.62a3.55 3.55.0 0 0-.84-.47l4.52.22A3.36 3.36.0 0 1 345.17 339.56zm-167.66 6-2.41-1.13a3.55 3.55.0 0 0-.77-.27l4.19-.41a3.65 3.65.0 0 1-.4.69A4 4 0 0 0 177.51 345.58z" fill="#575756"/><path d="M243.23 427.41a3.94 3.94.0 0 0 1.05 5.66c4.32 2.71 8.78 5.49 12.09 9.45a3.77 3.77.0 0 0 5.11 1c1.53-1 2.31-3.56 1-5.1a42.31 42.31.0 0 0-6.71-6.35 3 3 0 0 0 .32-.3 10.34 10.34.0 0 0 2.86-5.9h.19c-.73 4 5.16 6.71 6.79 2.56a20.09 20.09.0 0 0 1-3.32l2-.19c0 .09-.05.19-.08.29-1.68 4.4 4.88 7.76 6.57 3.32a17.42 17.42.0 0 0 .91-3.41l1.09.05c0 .92-.1 1.83-.12 2.74a3 3 0 0 0 2.41 3.23c-1.42 3.26-2.41 6.69-3.51 10.06-.63 1.91 1 4 2.84 4.37a3.75 3.75.0 0 0 4.36-2.84 72 72 0 0 1 3.76-10.16 3.59 3.59.0 0 0-2.51-5.16c0-.63.07-1.25.09-1.87L334.43 428l70.77 3.54h.21a2.55 2.55.0 0 0 .39.0l34.31-3.33a3.64 3.64.0 0 1-.92 1.73 3.8 3.8.0 0 0-.74 1l-2.25-1.43c-4-2.53-7.32 4.07-3.34 6.57 4.32 2.71 8.79 5.49 12.1 9.45a3.77 3.77.0 0 0 5.11 1c1.53-1 2.3-3.57 1-5.11a41.82 41.82.0 0 0-6.7-6.35l.32-.3a10.76 10.76.0 0 0 3-7.35l.5-.05c-.08.24-.15.47-.24.71-1.73 4.39 4.83 7.74 6.57 3.33a20.36 20.36.0 0 0 1.25-4.78l2.08-.2a7.91 7.91.0 0 1-.42 1.76c-1.68 4.4 4.88 7.76 6.57 3.33a17.76 17.76.0 0 0 1.16-5.8l.95-.09c-.1 1.75-.18 3.51-.23 5.27a3 3 0 0 0 2.4 3.22c-1.41 3.26-2.4 6.69-3.51 10.06-.62 1.91 1 4 2.84 4.37a3.76 3.76.0 0 0 4.37-2.84 73.2 73.2.0 0 1 3.75-10.16 3.58 3.58.0 0 0-2.5-5.16c.05-1.83.14-3.66.25-5.48l64.44-6.26L564.51 420l11.17.56a3.51 3.51.0 0 1-.87 1.62 3.6 3.6.0 0 0-.7 1c-.7-.46-1.4-.91-2.11-1.35-3.77-2.39-6.87 3.8-3.13 6.15 4 2.56 8.22 5.17 11.31 8.89a3.52 3.52.0 0 0 4.79 1c1.44-1 2.18-3.34 1-4.79a39.75 39.75.0 0 0-6.28-6 2.7 2.7.0 0 0 .31-.28 9.82 9.82.0 0 0 2.73-5.86h.23c-1.06 3.89 4.69 6.71 6.28 2.71a23 23 0 0 0 .76-2.36l1.76.09c-.64 3.74 4.87 6.3 6.36 2.4a16.64 16.64.0 0 0 .64-2.05l1.19.06c0 .47.0.94-.06 1.41a2.81 2.81.0 0 0 2.25 3c-1.34 3.05-2.27 6.26-3.32 9.43-.59 1.79 1 3.74 2.65 4.1a3.52 3.52.0 0 0 4.11-2.65 68 68 0 0 1 3.54-9.52 3.38 3.38.0 0 0-2.33-4.85c0-.2.0-.41.0-.61l62.77 3.14h.21.39l97.17-9.45 7.93-.77a3.94 3.94.0 0 0 1 5.66c4.32 2.71 8.78 5.49 12.09 9.45a3.78 3.78.0 0 0 5.11 1c1.53-1 2.31-3.57 1-5.11a42.31 42.31.0 0 0-6.71-6.35 3 3 0 0 0 .32-.3 10.34 10.34.0 0 0 2.86-5.9h.19c-.65 3.54 3.91 6.07 6.09 3.69a3.62 3.62.0 0 0 .7-1.13 19.81 19.81.0 0 0 1-3.32l2-.19c0 .09.0.19-.08.29-1.68 4.4 4.88 7.76 6.57 3.33a17.7 17.7.0 0 0 .91-3.42l1.09.05c0 .92-.1 1.83-.12 2.74a3 3 0 0 0 2.41 3.23c-1.42 3.26-2.41 6.69-3.51 10.06-.63 1.91 1 4 2.84 4.37a3.75 3.75.0 0 0 4.36-2.84 72 72 0 0 1 3.76-10.16 3.59 3.59.0 0 0-2.51-5.16c0-.63.07-1.25.09-1.87l45.93 2.3 67.19 3.36 7.33.37h.21a2.55 2.55.0 0 0 .39.0l34.31-3.33a3.64 3.64.0 0 1-.92 1.73 3.8 3.8.0 0 0-.74 1l-2.25-1.43c-4-2.52-7.28 4-3.38 6.53v0a85.63 85.63.0 0 1 7.58 5.15 30.57 30.57.0 0 1 4.51 4.3 3.77 3.77.0 0 0 5.11 1c1.53-1 2.3-3.57 1-5.11l-.06-.07a42.76 42.76.0 0 0-6.64-6.28c.11-.09.21-.19.32-.3A9.88 9.88.0 0 0 979 419a12.16 12.16.0 0 0 .79-3.93l.5-.05c-.08.24-.15.47-.24.71a3.76 3.76.0 0 0 0 2.76c1.06 2.75 5.26 4 6.6.57a20.36 20.36.0 0 0 1.25-4.78l2.08-.2a7.91 7.91.0 0 1-.42 1.76c-1.68 4.4 4.88 7.76 6.57 3.33a18 18 0 0 0 1.17-5.8l.94-.09c-.09 1.75-.18 3.51-.23 5.27a3 3 0 0 0 2.41 3.22c-1.42 3.26-2.41 6.69-3.52 10.06a3.06 3.06.0 0 0-.07.4 3.76 3.76.0 0 0 2.91 4 3.42 3.42.0 0 0 3.18-.9 4.74 4.74.0 0 0 1.19-1.94 72 72 0 0 1 3.76-10.16 3.59 3.59.0 0 0-2.51-5.16c.05-1.83.14-3.66.25-5.48l65.19-6.34.11-8.19a4 4 0 0 0-.6.0l-64 6.22c.39-3.46.87-6.92 1.5-10.36a3.5 3.5.0 0 0-1.8-3.82c-2-1.1-4.89-.57-5.41 2.29-.59 3.28-1 6.58-1.44 9.89-.1.91-.23 1.81-.32 2.72l-2 .2-1 .1c-.31-.81-.64-1.61-1-2.41-.87-1.81-2.61-3-4.68-2.3-1.73.59-3.17 2.86-2.3 4.67.13.26.24.52.36.78l-1.24.12a20.76 20.76.0 0 0-1.29-2.93c-2.17-4-7.93-.33-6.3 3.67l-.88.08c-2.13-6.57-6.35-13.17-9.16-17s-9 .26-6.13 4.1a57.86 57.86.0 0 1 6.53 11.51c.25.58.58 1.32.91 2.14L937.66 411a4.86 4.86.0 0 0-.85-.14l-19.91-1-59.85-3-39.74-2c.42-4.68 1-9.33 1.86-14s-6.36-6.2-7.21-1.53c-.91 5-1.53 10.06-2 15.12l-2.11-.11a27.39 27.39.0 0 0-1.7-4.52c-.87-1.8-2.6-3-4.68-2.29-1.73.59-3.16 2.86-2.29 4.67.33.7.66 1.42.95 2.16l-1.38.13a20.57 20.57.0 0 0-1.74-4.32c-2.26-4.18-8.37-.07-6.13 4.09a9.12 9.12.0 0 1 .45.95l-1.08.11c-1.94-7-6.57-14.3-9.59-18.38a3.58 3.58.0 0 0-4.11-1.32c-2.14.69-3.74 3.09-2 5.41a58.22 58.22.0 0 1 6.53 11.52c.39.89.95 2.14 1.46 3.52l-17.48 1.7-95.4 9.27L607.3 414c.4-4.63 1-9.25 1.83-13.84.81-4.38-6-5.83-6.75-1.45-.91 4.95-1.53 9.94-2 14.95l-1.71-.09a24.92 24.92.0 0 0-1.79-5c-.81-1.69-2.43-2.82-4.38-2.16-1.62.55-3 2.68-2.16 4.38.37.79.74 1.61 1.06 2.46l-1.41-.07a18.78 18.78.0 0 0-1.69-4.31c-2.1-3.92-7.84-.07-5.75 3.82v.12l-.92-.05c-1.94-6.3-6-12.67-8.68-16.33a3.41 3.41.0 0 0-1.52-1.19c-2.8-1.11-6.44 2-4.23 5 .7.95 1.35 1.93 2 2.94a56.05 56.05.0 0 1 4.11 7.87c.16.38.36.82.56 1.3l-7.16-.36-28-1.4v-.11a4 4 0 0 0-.6.0h-.44l-1.43-.07a4.07 4.07.0 0 0-1.94.4l-60.16 5.85c.39-3.46.87-6.92 1.5-10.36.84-4.67-6.36-6.2-7.21-1.53-.76 4.19-1.33 8.39-1.76 12.61l-3 .3c-.31-.81-.64-1.62-1-2.41-.87-1.81-2.61-3-4.68-2.3-1.73.59-3.17 2.86-2.3 4.67.13.26.24.52.36.78l-1.24.12a20.76 20.76.0 0 0-1.29-2.93c-2.17-4-7.93-.33-6.3 3.67l-.88.08c-2.13-6.57-6.35-13.17-9.16-17s-9 .26-6.13 4.1A57.86 57.86.0 0 1 437.65 418c.25.58.58 1.32.91 2.14l-32.94 3.2a4.6 4.6.0 0 0-.84-.14l-70.32-3.51-49.18-2.46c.42-4.68 1-9.33 1.86-14s-6.36-6.2-7.21-1.53c-.91 5-1.53 10.06-2 15.12l-2.11-.11a27.39 27.39.0 0 0-1.7-4.52c-.87-1.8-2.6-3-4.68-2.29-1.73.58-3.16 2.86-2.29 4.67.33.7.65 1.42.95 2.15l-1.38.14a20.57 20.57.0 0 0-1.74-4.32c-2.26-4.18-8.37-.07-6.13 4.09a9.12 9.12.0 0 1 .45.95l-1.08.11c-1.94-7-6.57-14.3-9.59-18.38-2.81-3.8-9 .26-6.13 4.09A58.22 58.22.0 0 1 249.06 415c.39.89.95 2.14 1.46 3.52l-70.7 6.87-42.18 4.1-62.37-3.12c.4-4.64 1-9.25 1.83-13.84.81-4.38-5.95-5.83-6.75-1.45C69.44 416 68.82 421 68.4 426l-1.71-.09a25.55 25.55.0 0 0-1.79-5c-.81-1.69-2.44-2.82-4.38-2.16-1.62.55-3 2.68-2.17 4.38.38.79.75 1.61 1.07 2.46L58 425.47a18.78 18.78.0 0 0-1.69-4.31c-2.1-3.92-7.84-.07-5.75 3.82v.12l-.92-.05c-1.94-6.3-6-12.67-8.68-16.33s-8.4.22-5.75 3.82a54.33 54.33.0 0 1 6.09 10.82c.16.37.36.82.56 1.3L4.3 422.78A4.09 4.09.0 1 0 3.89 431l39.76 2a3.51 3.51.0 0 1-.87 1.62 3.6 3.6.0 0 0-.7 1c-.7-.46-1.4-.91-2.11-1.35-3.77-2.39-6.87 3.8-3.14 6.15 4.05 2.56 8.23 5.17 11.32 8.89a3.52 3.52.0 0 0 4.79 1c1.44-1 2.17-3.34 1-4.79a39.75 39.75.0 0 0-6.28-6 3.92 3.92.0 0 0 .31-.28 9.82 9.82.0 0 0 2.73-5.86h.23c-1.06 3.89 4.69 6.71 6.28 2.71a23 23 0 0 0 .76-2.36l1.76.09c-.64 3.74 4.87 6.3 6.36 2.4a18.55 18.55.0 0 0 .64-2l1.19.06c0 .47.0.94-.06 1.41a2.81 2.81.0 0 0 2.25 3c-1.34 3-2.27 6.26-3.32 9.43-.59 1.79 1 3.74 2.65 4.1a3.53 3.53.0 0 0 4.11-2.65A67.3 67.3.0 0 1 77.06 440a3.37 3.37.0 0 0-2.33-4.84c0-.2.0-.41.0-.61l62.77 3.14h.21.39l41.67-4.06zm539.4-12.88a4 4 0 0 0-.74 1l-1.59-1 2.51-.25A1.32 1.32.0 0 1 782.63 414.53zm-532.77 13.4-1.59-1 2.51-.25a1.32 1.32.0 0 1-.18.22A4 4 0 0 0 249.86 427.93z" fill="#575756"/><path d="M191 539.35c1.39-1.21 1.84-3.83.37-5.2a43 43 0 0 0-7.46-5.45 3 3 0 0 0 .28-.33 10.19 10.19.0 0 0 2.08-5.6h.23c.42 3.6 6 5.13 7 1 .15-.6.26-1.18.36-1.76l2-.2c.6 3.49 6 4.9 7 .87.13-.53.21-1.06.29-1.58l1.43-.14c0 .29.0.58.07.86a3 3 0 0 0 2.8 2.89c-1 3.42-1.54 6.94-2.21 10.43-.38 2 1.53 3.83 3.36 4a3.77 3.77.0 0 0 4-3.37 71.86 71.86.0 0 1 2.44-10.56 3.59 3.59.0 0 0-3.14-4.8.71.71.0 0 0 0-.14l58.75-5.71a4.06 4.06.0 0 0 .85.13l67.8 3.4a4 4 0 0 0-1 6.84l2.44 1.86a40.52 40.52.0 0 1 8.8 8.59 3.76 3.76.0 0 0 5 1.44c1.62-.89 2.61-3.35 1.45-5a42.66 42.66.0 0 0-6.14-6.9l.35-.26a10.45 10.45.0 0 0 3.39-5.86h.23c-1.33 4 4.46 7.4 6.47 3.33a22.27 22.27.0 0 0 1.18-2.94l1.94.09c-1.87 4.2 4.27 8 6.31 3.76a18.82 18.82.0 0 0 1.22-3.38l1.08.05c-.12 1-.26 1.92-.37 2.87a3 3 0 0 0 2.12 3.42c-1.68 3.13-3 6.46-4.35 9.73-.79 1.85.69 4.06 2.46 4.59a3.76 3.76.0 0 0 4.59-2.45 73 73 0 0 1 4.6-9.81 3.6 3.6.0 0 0-2.05-5.36c.1-.87.23-1.74.34-2.62l25.79 1.29h.21.39l68.33-6.65a3.73 3.73.0 0 0 .68 5.67c4.05 2.55 8.23 5.17 11.32 8.89a3.54 3.54.0 0 0 4.79 1c1.44-1 2.17-3.34 1-4.79a39.75 39.75.0 0 0-6.28-6l.3-.28a9.8 9.8.0 0 0 2.74-5.9h.25c-1.16 3.94 4.66 6.81 6.25 2.79a19.45 19.45.0 0 0 1-3.5l1.9-.18c-.07.22-.11.44-.2.66-1.58 4.13 4.57 7.3 6.16 3.14a16.7 16.7.0 0 0 1-4.48l.91-.09c-.07 1.33-.15 2.66-.19 4a2.82 2.82.0 0 0 2.26 3c-1.34 3.06-2.28 6.27-3.32 9.43-.59 1.79 1 3.74 2.65 4.11a3.53 3.53.0 0 0 4.1-2.66A69 69 0 0 1 515 520a3.36 3.36.0 0 0-2.34-4.84c0-1.41.13-2.81.21-4.22l24.34-2.36a4.06 4.06.0 0 0 1.15.24l1 .05 38.78 1.94a3.33 3.33.0 0 1-.87 1.62 3.55 3.55.0 0 0-.69 1c-.7-.46-1.4-.91-2.11-1.35-3.78-2.39-6.87 3.8-3.14 6.15a51.88 51.88.0 0 1 10.31 7.84c.33.36.7.68 1 1.05a4.29 4.29.0 0 0 1.77 1.3 3.18 3.18.0 0 0 3-.33c1.44-1 2.17-3.34 1-4.79a39.69 39.69.0 0 0-6.27-6 3.84 3.84.0 0 0 .3-.28 9.76 9.76.0 0 0 2.73-5.86h.23c-1.06 3.89 4.7 6.71 6.28 2.71a19 19 0 0 0 .76-2.36l1.77.09c-.65 3.74 4.86 6.3 6.36 2.4a18.55 18.55.0 0 0 .64-2l1.19.06c0 .47.0.94-.07 1.41a2.81 2.81.0 0 0 2.25 3c-1.33 3.06-2.27 6.27-3.31 9.44-.59 1.79 1 3.74 2.65 4.1a3.53 3.53.0 0 0 4.1-2.65 67.35 67.35.0 0 1 3.55-9.53 3.37 3.37.0 0 0-2.34-4.84v-.61l62.78 3.14h.2.4l34.26-3.34a4 4 0 0 0 .23 7c4.63 2.15 9.41 4.34 13.19 7.85 1.47 1.36 3.56 1.79 5.2.36 1.39-1.21 1.84-3.83.36-5.19a43.09 43.09.0 0 0-7.46-5.46 3.11 3.11.0 0 0 .29-.33 10.24 10.24.0 0 0 2.08-5.6h.23c.41 3.6 6 5.13 7 1 .15-.59.26-1.18.36-1.76l2.05-.2c.59 3.49 6 4.91 7 .87.13-.53.21-1.05.29-1.57l1.43-.14c0 .28.0.57.07.86a3 3 0 0 0 2.79 2.89c-1 3.41-1.54 6.94-2.21 10.43-.38 2 1.53 3.82 3.37 4a3.76 3.76.0 0 0 4-3.37 73 73 0 0 1 2.44-10.55 3.59 3.59.0 0 0-3.13-4.8.71.71.0 0 1 0-.14l45.75-4.45 13-1.26a4.58 4.58.0 0 0 .85.13l21.93 1.1 45.87 2.29a4 4 0 0 0-1 6.85 76.34 76.34.0 0 1 7.75 6.38 29.4 29.4.0 0 1 3.5 4.06 5.66 5.66.0 0 0 .43.54 3.64 3.64.0 0 0 4.57.91c1.61-.89 2.6-3.36 1.45-5a42.64 42.64.0 0 0-6.15-6.89 3 3 0 0 0 .35-.27 10.4 10.4.0 0 0 3.39-5.85h.23c-1.32 4 4.46 7.39 6.47 3.32a20.05 20.05.0 0 0 1.18-2.94l2 .1c-1.87 4.19 4.27 8 6.31 3.76a17.88 17.88.0 0 0 1.21-3.39l1.09.06c-.13 1-.27 1.91-.38 2.87a3 3 0 0 0 2.13 3.41c-1.69 3.13-3 6.47-4.36 9.74-.78 1.84.7 4.05 2.46 4.59 2.08.63 3.81-.61 4.6-2.46a70.66 70.66.0 0 1 4.6-9.81 3.59 3.59.0 0 0-2.06-5.35c.1-.88.24-1.75.35-2.62l25.79 1.29h.2a2.61 2.61.0 0 0 .4.0l68.32-6.64a3.72 3.72.0 0 0 .69 5.66c4 2.56 8.22 5.17 11.32 8.89a3.52 3.52.0 0 0 4.79 1c1.44-1 2.17-3.34 1-4.79a40.12 40.12.0 0 0-6.27-6l.3-.27a9.78 9.78.0 0 0 2.73-5.9h.25c-1.15 3.94 4.67 6.81 6.26 2.79a19.94 19.94.0 0 0 1-3.49l1.89-.19c-.06.22-.11.45-.19.67-1.58 4.12 4.56 7.29 6.15 3.14a17.18 17.18.0 0 0 1-4.49l.91-.09c-.07 1.33-.15 2.66-.19 4a2.82 2.82.0 0 0 2.25 3c-1.33 3.05-2.27 6.26-3.32 9.43-.59 1.79 1 3.74 2.66 4.1a3.52 3.52.0 0 0 4.1-2.65c.89-2.68 1.7-5.37 2.83-8 .23-.53.45-1.06.71-1.57a3.38 3.38.0 0 0-2.33-4.85c0-1.41.12-2.81.2-4.21l25.79-2.51.11-8.19a4 4 0 0 0-.6.0l-24.6 2.39c.38-3.39.86-6.76 1.48-10.12.8-4.38-5.95-5.83-6.76-1.45q-1.12 6.09-1.73 12.25l-1.69.17-.93.09a26.68 26.68.0 0 0-1.1-2.69c-.81-1.69-2.43-2.82-4.38-2.16-1.62.55-3 2.68-2.16 4.38.18.38.36.76.53 1.16l-1.2.11a20.23 20.23.0 0 0-1.36-3.19c-2.11-3.92-7.85-.07-5.76 3.83v0l-.88.09c-1.92-6.33-6-12.74-8.69-16.41s-8.41.22-5.76 3.83a54.8 54.8.0 0 1 6.1 10.81c.28.66.66 1.52 1 2.48l-74.76 7.27a4.57 4.57.0 0 0-.85-.14l-24.09-1.2c.79-4.35 1.74-8.66 2.9-12.94 1.24-4.58-5.81-6.72-7.05-2.13-1.31 4.85-2.36 9.76-3.22 14.7l-2.12-.11a27.71 27.71.0 0 0-1.31-4.63c-.72-1.88-2.34-3.22-4.47-2.69-1.77.44-3.4 2.58-2.68 4.46.3.8.59 1.64.85 2.48l-1.45-.07a20.94 20.94.0 0 0-1.39-4.62c-1.89-4.35-8.33-.77-6.45 3.56.09.22.17.45.25.68l-1-.05c-1.4-7.06-5.31-14.51-7.93-18.75-2.48-4-9-.51-6.45 3.55a58.49 58.49.0 0 1 5.53 12c.24.73.58 1.7.9 2.77l-58.67-2.93-15.76-.79a4 4 0 0 0-.6.0L790 495.88l-44.07 4.28a154.09 154.09.0 0 1 0-15.94c.25-4.74-7.1-5.35-7.35-.61a165.61 165.61.0 0 0 .05 17.26l-1.47.15a25.33 25.33.0 0 0-3-6.27c-1.09-1.68-3-2.65-4.93-1.69-1.64.81-2.78 3.24-1.68 4.93a29.11 29.11.0 0 1 2.1 3.75l-1.65.16a19.47 19.47.0 0 0-2.87-5.65c-2.76-3.86-8.3 1-5.55 4.83a10.64 10.64.0 0 1 .91 1.55l-1.18.12c-2.73-6.91-8.46-13.79-12.06-17.56-3.27-3.41-8.86 1.39-5.56 4.84a57.8 57.8.0 0 1 7.93 10.6c.44.75 1.06 1.76 1.67 2.9l-39.12 3.8-62.37-3.12c.4-4.64 1-9.25 1.84-13.84.8-4.38-6-5.83-6.76-1.45-.91 4.95-1.53 9.94-2 14.95l-1.71-.09a24.33 24.33.0 0 0-1.79-5c-.81-1.7-2.43-2.82-4.37-2.16-1.63.55-3 2.68-2.17 4.38.38.79.75 1.61 1.07 2.46l-1.42-.07a19.2 19.2.0 0 0-1.68-4.31c-2.1-3.92-7.85-.07-5.76 3.82l.06.12-.93-.05c-1.93-6.3-6-12.67-8.67-16.33s-8.41.22-5.76 3.82a54.37 54.37.0 0 1 6.1 10.82l.56 1.3-34.77-1.74-2.86-.14h0v-.4a4 4 0 0 0-.6.0l-24.6 2.4c.38-3.39.86-6.76 1.48-10.13.81-4.38-6-5.83-6.75-1.45q-1.12 6.11-1.73 12.26l-2.63.25a26.42 26.42.0 0 0-1.09-2.68c-.81-1.7-2.44-2.82-4.38-2.17-1.63.55-3 2.68-2.17 4.38l.54 1.16-1.21.12a20.23 20.23.0 0 0-1.36-3.19c-2.1-3.92-7.84-.08-5.75 3.82.0.0.0.0.0.06l-.87.08c-1.93-6.32-6-12.73-8.7-16.4s-8.4.22-5.76 3.82a54.1 54.1.0 0 1 6.1 10.82c.28.65.67 1.51 1.05 2.47l-74.77 7.27a3.87 3.87.0 0 0-.84-.13l-24.09-1.21c.79-4.34 1.74-8.66 2.9-12.93 1.24-4.59-5.81-6.72-7.06-2.14-1.31 4.85-2.36 9.76-3.22 14.71l-2.12-.11a26.89 26.89.0 0 0-1.31-4.64c-.71-1.87-2.34-3.21-4.46-2.68-1.78.44-3.4 2.58-2.69 4.46.3.8.6 1.63.85 2.48l-1.45-.07a19.78 19.78.0 0 0-1.39-4.62c-1.89-4.36-8.33-.78-6.45 3.55.1.23.18.46.26.69l-1.05-.06c-1.39-7-5.31-14.5-7.92-18.75-2.48-4-8.95-.5-6.46 3.56a57.73 57.73.0 0 1 5.53 12c.25.73.58 1.69.91 2.77l-5.91-.3-68.52-3.43a4 4 0 0 0-.6.0l-59.15 5.75a156.94 156.94.0 0 1 0-15.94c.25-4.75-7.09-5.35-7.34-.61a165.62 165.62.0 0 0 0 17.26l-1.47.14a25 25 0 0 0-3-6.26c-1.09-1.69-3-2.65-4.93-1.69-1.64.8-2.78 3.24-1.69 4.93a27.88 27.88.0 0 1 2.11 3.75l-1.66.16a19.61 19.61.0 0 0-2.86-5.66c-2.76-3.86-8.31 1-5.56 4.83a11.37 11.37.0 0 1 .92 1.56l-1.19.12a51.27 51.27.0 0 0-7.58-12.43c-1.61-2-3.18-3.78-4.48-5.13-3.27-3.42-8.85 1.39-5.56 4.83a58.66 58.66.0 0 1 7.94 10.6c.38.65.89 1.49 1.41 2.43.09.15.17.31.26.47h-.28l-38.84 3.78-62.37-3.12c.4-4.64 1-9.26 1.83-13.85.81-4.38-5.95-5.83-6.75-1.45-.91 4.95-1.53 9.94-1.95 14.95l-1.71-.08a25.1 25.1.0 0 0-1.79-5c-.81-1.7-2.44-2.82-4.38-2.17-1.62.55-3 2.68-2.17 4.38.38.79.75 1.62 1.07 2.46L58 515.29a18.89 18.89.0 0 0-1.69-4.3c-2.1-3.93-7.84-.08-5.75 3.82a1.17 1.17.0 0 0 0 .11h-.92c-1.94-6.3-6-12.68-8.68-16.33s-8.4.22-5.75 3.82a54.05 54.05.0 0 1 6.09 10.82c.16.37.36.81.56 1.3L4.3 512.6a4.1 4.1.0 0 0-.41 8.18l39.76 2a3.43 3.43.0 0 1-.87 1.61 3.6 3.6.0 0 0-.7 1L40 524c-3.77-2.38-6.87 3.8-3.14 6.16 4.05 2.55 8.23 5.17 11.32 8.89a3.54 3.54.0 0 0 4.79 1c1.44-1 2.17-3.34 1-4.79a40.28 40.28.0 0 0-6.28-6 3.74 3.74.0 0 0 .31-.27 9.82 9.82.0 0 0 2.73-5.86h.23c-1.06 3.9 4.69 6.71 6.28 2.72a23.18 23.18.0 0 0 .76-2.37l1.76.09c-.64 3.74 4.87 6.3 6.36 2.4a17.91 17.91.0 0 0 .64-2.05l1.19.06c0 .47.0.94-.06 1.41a2.8 2.8.0 0 0 2.25 3c-1.34 3.06-2.27 6.27-3.32 9.43-.59 1.79 1 3.74 2.65 4.11a3.54 3.54.0 0 0 4.11-2.66 67.63 67.63.0 0 1 3.54-9.52 3.36 3.36.0 0 0-2.33-4.84c0-.21.0-.41.0-.62l62.77 3.15h.21.39l34.27-3.33a4 4 0 0 0 .23 7l2.93 1.37A40.7 40.7.0 0 1 185.82 539 3.75 3.75.0 0 0 191 539.35zm824.26-36.68a3.6 3.6.0 0 0-.7 1l-1.94-1.25 3.09-.3A3.11 3.11.0 0 1 1015.27 502.67zm-136.41 5.67-2.12-1.62a4.33 4.33.0 0 0-.85-.48l4.52.23a3.14 3.14.0 0 1-.72.9A3.87 3.87.0 0 0 878.86 508.34zm-166.23 3.93a3.83 3.83.0 0 0-.6 1.12l-2.41-1.14a3.68 3.68.0 0 0-.77-.26l4.18-.41A3 3 0 0 1 712.63 512.27zm-367.46 7.05a3.7 3.7.0 0 0-.83 1c-.7-.55-1.4-1.09-2.12-1.62a3.6 3.6.0 0 0-.84-.48l4.52.22A3.57 3.57.0 0 1 345.17 519.32zm135.59-4.71a3.53 3.53.0 0 0-.7 1l-1.95-1.24 3.09-.3A3 3 0 0 1 480.76 514.61zM177.51 525.34c-.5-.25-1-.48-1.53-.72l-.88-.42a4.17 4.17.0 0 0-.77-.27l1.7-.16 2.49-.25a3.73 3.73.0 0 1-.4.7A3.75 3.75.0 0 0 177.51 525.34z" fill="#575756"/><path d="M244.28 612.82a71.88 71.88.0 0 1 8.88 6.23 28.71 28.71.0 0 1 3.21 3.22 3.77 3.77.0 0 0 5.11 1c1.53-1 2.31-3.57 1-5.11a42.31 42.31.0 0 0-6.71-6.35 3 3 0 0 0 .32-.3 10.31 10.31.0 0 0 2.86-5.9h.19A4 4 0 0 0 264 610.1a3.08 3.08.0 0 0 1.92-1.93 19.71 19.71.0 0 0 1-3.31l2-.2-.08.29c-1.68 4.4 4.88 7.76 6.57 3.33a17.51 17.51.0 0 0 .91-3.42l1.09.06c0 .91-.1 1.82-.12 2.74a3 3 0 0 0 2.41 3.22c-1.42 3.26-2.41 6.69-3.51 10.06-.63 1.91 1 4 2.84 4.37a3.75 3.75.0 0 0 4.36-2.84 72 72 0 0 1 3.76-10.16 3.59 3.59.0 0 0-2.51-5.16c0-.62.07-1.24.09-1.87l61.5 3.08 58.95 2.95h.6L440.11 608a3.64 3.64.0 0 1-.92 1.73 3.8 3.8.0 0 0-.74 1l-2.25-1.43c-4-2.53-7.32 4.07-3.34 6.57 4.32 2.71 8.79 5.49 12.1 9.45a3.76 3.76.0 0 0 5.11 1c1.53-1 2.3-3.57 1-5.11a42.27 42.27.0 0 0-6.7-6.35l.32-.29a10.78 10.78.0 0 0 3-7.36l.5-.05c-.08.24-.15.47-.24.71-1.73 4.39 4.83 7.75 6.57 3.33a20.29 20.29.0 0 0 1.25-4.77l2.08-.21a7.91 7.91.0 0 1-.42 1.76c-1.68 4.4 4.88 7.76 6.57 3.33a17.76 17.76.0 0 0 1.16-5.8l.95-.09c-.1 1.76-.18 3.51-.23 5.27a3 3 0 0 0 2.4 3.22c-1.41 3.26-2.4 6.69-3.51 10.07-.62 1.91 1 4 2.84 4.36a3.76 3.76.0 0 0 4.37-2.83 72.85 72.85.0 0 1 3.75-10.17 3.59 3.59.0 0 0-2.5-5.16c.05-1.83.14-3.65.25-5.48l64.44-6.26 37.74 1.89a3.47 3.47.0 0 1-.87 1.61 3.6 3.6.0 0 0-.7 1L572 601.57c-3.77-2.38-6.87 3.8-3.13 6.16s7.8 4.95 10.84 8.39c.15.18.33.32.47.5a3.53 3.53.0 0 0 4.79 1c1.44-1 2.18-3.33 1-4.79a39.53 39.53.0 0 0-5.75-5.54l-.53-.43a2.61 2.61.0 0 0 .31-.27c.1-.11.17-.23.27-.34a9.91 9.91.0 0 0 2.46-5.52h.23c-1.06 3.9 4.69 6.71 6.28 2.72a23.18 23.18.0 0 0 .76-2.37l1.76.09c-.64 3.74 4.87 6.3 6.36 2.4a16.64 16.64.0 0 0 .64-2l1.19.06c0 .47.0.94-.06 1.41a2.81 2.81.0 0 0 2.25 3c-1.34 3-2.27 6.27-3.32 9.43-.59 1.79 1 3.74 2.65 4.1a3.52 3.52.0 0 0 4.11-2.65 68 68 0 0 1 3.54-9.52 3.38 3.38.0 0 0-2.33-4.85c0-.2.0-.4.0-.61l55.81 2.8 7 .34h.21.39l2.17-.21 81.8-7.95 21.13-2.06a3.94 3.94.0 0 0 1 5.66c4.32 2.71 8.78 5.49 12.09 9.45a3.77 3.77.0 0 0 5.11 1c1.53-1 2.31-3.57 1-5.11a42.77 42.77.0 0 0-6.71-6.35 3 3 0 0 0 .32-.3 10.31 10.31.0 0 0 2.86-5.9h.19c-.73 4 5.16 6.71 6.79 2.56a19.71 19.71.0 0 0 1-3.31l2-.2c0 .1.0.19-.08.29-1.68 4.4 4.88 7.76 6.57 3.33a17.51 17.51.0 0 0 .91-3.42l1.09.06c0 .91-.1 1.82-.12 2.74a3 3 0 0 0 2.41 3.22c-1.42 3.26-2.41 6.69-3.51 10.07-.63 1.9 1 4 2.84 4.36a3.75 3.75.0 0 0 4.36-2.83A71.65 71.65.0 0 1 819.2 6e2a3.6 3.6.0 0 0-2.51-5.16c0-.62.07-1.24.09-1.87l73 3.66L937.23 599h.21.39l34.31-3.34a3.64 3.64.0 0 1-.92 1.73 3.8 3.8.0 0 0-.74 1l-2.25-1.43c-4-2.53-7.32 4.07-3.33 6.57 4.32 2.72 8.78 5.49 12.09 9.45a3.76 3.76.0 0 0 5.11 1c1.53-1 2.3-3.56 1-5.11a42.73 42.73.0 0 0-6.7-6.35l.32-.29a10.78 10.78.0 0 0 3-7.36l.5-.05c-.08.24-.15.48-.24.71-1.73 4.39 4.84 7.75 6.57 3.33a20.29 20.29.0 0 0 1.25-4.77l2.08-.21a7.91 7.91.0 0 1-.42 1.76c-1.68 4.4 4.88 7.76 6.57 3.33a18 18 0 0 0 1.17-5.8l.94-.09c-.09 1.76-.18 3.51-.23 5.27a3 3 0 0 0 2.41 3.22c-1.42 3.26-2.41 6.69-3.52 10.07-.62 1.91 1 4 2.84 4.36a3.76 3.76.0 0 0 4.37-2.83 71.65 71.65.0 0 1 3.76-10.17 3.6 3.6.0 0 0-2.51-5.16c.05-1.83.14-3.65.25-5.48l16.52-1.6 19.4-1.89 28.68-2.79.59-.05v-.26l.1-7.93a4 4 0 0 0-.6.0l-33.15 3.23-12.88 1.25-17.94 1.74c.39-3.46.87-6.91 1.5-10.35.84-4.68-6.36-6.2-7.21-1.53-.76 4.18-1.33 8.39-1.76 12.61l-3 .29c-.31-.81-.64-1.61-1-2.41-.87-1.81-2.61-3-4.68-2.3-1.73.59-3.17 2.87-2.3 4.68.13.25.24.51.36.77l-1.24.12a21.28 21.28.0 0 0-1.29-2.93c-2.17-4-7.93-.33-6.3 3.67l-.88.09c-2.13-6.58-6.35-13.17-9.16-17s-9 .26-6.13 4.09a57.66 57.66.0 0 1 6.53 11.52c.25.58.58 1.31.91 2.13l-32.93 3.2a4.06 4.06.0 0 0-.85-.13l-50.46-2.53-69-3.45c.42-4.67 1-9.33 1.86-14s-6.36-6.21-7.21-1.53c-.91 5-1.53 10.05-2 15.11l-2.11-.1a26.73 26.73.0 0 0-1.7-4.52c-.87-1.81-2.6-3-4.68-2.3-1.73.59-3.16 2.86-2.29 4.68.33.69.66 1.41.95 2.15l-1.38.13A20.78 20.78.0 0 0 797 580c-2.26-4.18-8.37-.06-6.13 4.09a10.19 10.19.0 0 1 .45 1l-1.08.11c-1.94-7-6.57-14.29-9.59-18.37-2.81-3.81-9 .26-6.13 4.09a57.66 57.66.0 0 1 6.53 11.52c.39.89.95 2.14 1.46 3.51l-29 2.82-81.81 7.95-2.11.21-6.63-.34-55.74-2.79c.4-4.63 1-9.25 1.83-13.84.81-4.38-6-5.83-6.75-1.45-.91 5-1.53 9.94-2 15l-1.71-.08a24.5 24.5.0 0 0-1.79-5c-.81-1.7-2.43-2.83-4.38-2.17-1.62.55-3 2.68-2.16 4.38.37.79.74 1.62 1.06 2.46l-1.41-.07a18.89 18.89.0 0 0-1.69-4.3c-2.1-3.93-7.84-.08-5.75 3.82v.11h-.92c-.2-.63-.41-1.26-.64-1.9a63.17 63.17.0 0 0-8-14.42c-2.63-3.58-8.4.22-5.75 3.82a54.05 54.05.0 0 1 6.09 10.82c.16.37.36.81.56 1.3L538.8 590.3v-.11a4 4 0 0 0-.6.0h-.44l-1.43-.07a4.2 4.2.0 0 0-1.94.4l-60.16 5.85c.39-3.46.87-6.91 1.5-10.35.84-4.68-6.36-6.21-7.21-1.53-.76 4.18-1.33 8.39-1.76 12.61l-3 .29c-.31-.81-.64-1.61-1-2.41-.87-1.81-2.61-3-4.68-2.3-1.73.59-3.17 2.86-2.3 4.68.13.25.24.51.36.77l-1.24.12a21.28 21.28.0 0 0-1.29-2.93c-2.17-4-7.93-.33-6.3 3.67l-.88.09c-2.13-6.58-6.35-13.17-9.16-17s-9 .26-6.13 4.09a57.66 57.66.0 0 1 6.53 11.52c.25.58.58 1.31.91 2.13l-32.94 3.2a3.87 3.87.0 0 0-.84-.13l-59.09-3-60.41-3c.42-4.67 1-9.33 1.86-14s-6.36-6.21-7.21-1.53c-.91 5-1.53 10-2 15.11l-2.11-.1a26.73 26.73.0 0 0-1.7-4.52c-.87-1.81-2.6-3-4.68-2.3-1.73.59-3.16 2.86-2.29 4.68.33.69.65 1.41.95 2.15l-1.38.13a20.78 20.78.0 0 0-1.74-4.32 3.05 3.05.0 0 0-2.29-1.71 4 4 0 0 0-3.84 5.8 10.19 10.19.0 0 1 .45 1l-1.08.11a45.37 45.37.0 0 0-3.46-8.54 74 74 0 0 0-6.13-9.83c-2.81-3.81-9 .25-6.13 4.09a57.66 57.66.0 0 1 6.53 11.52c.39.89.95 2.14 1.46 3.51L171.6 605.9l-34 3.31-62.37-3.13c.4-4.63 1-9.25 1.83-13.84.81-4.38-5.95-5.83-6.75-1.45-.91 5-1.53 9.94-1.95 15l-1.71-.09a25.24 25.24.0 0 0-1.79-5c-.81-1.7-2.44-2.83-4.38-2.17-1.62.55-3 2.68-2.17 4.38.38.79.75 1.61 1.07 2.46L58 605.22a18.89 18.89.0 0 0-1.69-4.3c-2.1-3.93-7.84-.08-5.75 3.82a1.17 1.17.0 0 1 0 .11l-.92-.05c-1.94-6.3-6-12.67-8.68-16.32s-8.4.22-5.75 3.82a54.05 54.05.0 0 1 6.09 10.82c.16.37.36.81.56 1.3L4.3 602.53a4.1 4.1.0 0 0-.41 8.18l39.76 2a3.47 3.47.0 0 1-.87 1.61 3.6 3.6.0 0 0-.7 1L40 613.93c-3.77-2.38-6.87 3.8-3.14 6.16 4.05 2.55 8.23 5.17 11.32 8.89a3.53 3.53.0 0 0 4.79 1c1.44-1 2.17-3.33 1-4.79a40.21 40.21.0 0 0-6.28-6 3.74 3.74.0 0 0 .31-.27 9.84 9.84.0 0 0 2.73-5.86h.23c-1.06 3.9 4.69 6.71 6.28 2.71a22.26 22.26.0 0 0 .76-2.36l1.76.09c-.64 3.74 4.87 6.3 6.36 2.4a18.55 18.55.0 0 0 .64-2l1.19.06c0 .47.0.94-.06 1.41a2.81 2.81.0 0 0 2.25 3c-1.34 3-2.27 6.27-3.32 9.43-.59 1.79 1 3.74 2.65 4.1a3.52 3.52.0 0 0 4.11-2.65 66.72 66.72.0 0 1 3.54-9.52 3.38 3.38.0 0 0-2.33-4.85c0-.2.0-.4.0-.61l62.77 3.14h.21.39l33-3.21 72.07-7A3.94 3.94.0 0 0 244.28 612.82zm538.35-18.53a3.8 3.8.0 0 0-.74 1l-1.59-1 2.51-.24C782.75 594.14 782.7 594.22 782.63 594.29zM249.86 607.68l-1.59-1 2.51-.24c-.06.07-.11.15-.18.22A3.8 3.8.0 0 0 249.86 607.68z" fill="#575756"/><path d="M1018 663.52a71.21 71.21.0 0 0-4.48-6.93c-2.63-3.58-8.41.22-5.76 3.82a54.59 54.59.0 0 1 6.1 10.82c.28.65.66 1.51 1 2.47l-57 5.54-6.55.64L940.14 681a3.87 3.87.0 0 0-.85-.13l-24.09-1.21c.79-4.34 1.74-8.66 2.9-12.93 1.24-4.59-5.81-6.73-7.05-2.14-1.31 4.85-2.36 9.76-3.22 14.7l-2.12-.1a27.81 27.81.0 0 0-1.31-4.64c-.72-1.88-2.34-3.21-4.47-2.69-1.77.44-3.4 2.59-2.68 4.47.3.8.59 1.63.85 2.48l-1.45-.08a21.1 21.1.0 0 0-1.39-4.62 3 3 0 0 0-4-1.77 4 4 0 0 0-2.47 5.33c.09.23.17.46.25.68l-1-.05c-1.4-7-5.31-14.5-7.93-18.75-2.48-4-9-.5-6.45 3.55a58.57 58.57.0 0 1 5.53 12c.24.73.58 1.69.9 2.76l-74.43-3.72a4 4 0 0 0-.6.0l-45.43 4.42-13.71 1.34a154.29 154.29.0 0 1 0-15.95c.25-4.74-7.1-5.34-7.35-.6a165.42 165.42.0 0 0 .05 17.25l-1.47.15a25.5 25.5.0 0 0-3-6.27c-1.09-1.68-3-2.65-4.93-1.68-1.64.8-2.78 3.24-1.68 4.93a27.82 27.82.0 0 1 2.1 3.75l-1.65.16a19.52 19.52.0 0 0-2.87-5.66c-2.76-3.86-8.3 1-5.55 4.83a11.29 11.29.0 0 1 .91 1.56l-1.18.11c-2.73-6.91-8.46-13.79-12.06-17.55-3.27-3.42-8.86 1.39-5.56 4.83a57.8 57.8.0 0 1 7.93 10.6c.44.75 1.06 1.77 1.67 2.9l-33.47 3.26-5.65.55-14-.7L609.78 684c.4-4.63 1-9.25 1.84-13.84.8-4.38-6-5.83-6.76-1.45-.91 5-1.53 9.94-2 15l-1.71-.09a24 24 0 0 0-1.79-5c-.81-1.7-2.43-2.83-4.37-2.17-1.63.55-3 2.68-2.17 4.38.38.79.75 1.61 1.07 2.46l-1.42-.07a19.31 19.31.0 0 0-1.68-4.3c-2.1-3.93-7.85-.08-5.76 3.82l.06.11-.93-.05a56.79 56.79.0 0 0-7.31-14.4c-.48-.69-.94-1.35-1.36-1.93-2.63-3.57-8.41.23-5.76 3.83a54.1 54.1.0 0 1 6.1 10.82l.3.68.26.62h-.3l-37.33-1.87h0V680a4 4 0 0 0-.6.0l-24.6 2.39c.38-3.39.86-6.76 1.48-10.12.81-4.38-6-5.83-6.75-1.45q-1.12 6.09-1.73 12.25l-2.63.26a26.58 26.58.0 0 0-1.09-2.69c-.81-1.7-2.44-2.82-4.38-2.16-1.63.54-3 2.68-2.17 4.38.18.38.36.76.54 1.16l-1.21.11A20.23 20.23.0 0 0 494.3 681c-2.1-3.92-7.84-.07-5.75 3.82.0.0.0.0.0.06l-.87.09c-1.93-6.33-6-12.74-8.7-16.41s-8.4.22-5.76 3.82a54.37 54.37.0 0 1 6.1 10.82c.28.66.67 1.52 1.05 2.48l-74.77 7.27a3.88 3.88.0 0 0-.84-.14l-24.09-1.2c.79-4.35 1.74-8.66 2.9-12.94 1.24-4.58-5.81-6.72-7.06-2.14-1.31 4.85-2.36 9.76-3.22 14.71l-2.12-.11a26.79 26.79.0 0 0-1.31-4.63c-.71-1.88-2.34-3.22-4.46-2.69-1.78.44-3.4 2.58-2.69 4.46.3.8.6 1.63.85 2.48l-1.45-.07a19.92 19.92.0 0 0-1.39-4.62c-1.89-4.36-8.33-.77-6.45 3.55.1.23.18.46.26.69h-1.05a44 44 0 0 0-2.27-7.51 74.91 74.91.0 0 0-5.65-11.25c-2.48-4-8.95-.5-6.46 3.56a58 58 0 0 1 5.53 12c.25.73.58 1.7.91 2.77l-74.43-3.72a4 4 0 0 0-.6.0l-1.4.14-19.69 1.91-38.06 3.7a156.94 156.94.0 0 1 0-15.94c.25-4.74-7.09-5.35-7.34-.61a165.61 165.61.0 0 0 0 17.26l-1.47.14a25 25 0 0 0-3-6.26c-1.09-1.68-3-2.65-4.93-1.69-1.64.8-2.78 3.24-1.69 4.93a28.5 28.5.0 0 1 2.11 3.75l-1.66.16A19.43 19.43.0 0 0 190.6 688c-2.76-3.86-8.31 1-5.56 4.83a10.71 10.71.0 0 1 .92 1.55l-1.19.12c-2.73-6.91-8.45-13.79-12.06-17.56a3.63 3.63.0 0 0-4.91-.39c-1.62 1.15-2.42 3.38-.65 5.23.12.12.23.25.35.38a58.89 58.89.0 0 1 7.59 10.22c.44.74 1.06 1.76 1.67 2.9l-10 1L137.64 699l-62.37-3.12c.4-4.64 1-9.25 1.83-13.84.81-4.38-5.95-5.83-6.75-1.45-.91 5-1.53 9.94-1.95 15l-1.71-.09a25.55 25.55.0 0 0-1.79-5c-.81-1.7-2.44-2.82-4.38-2.16-1.62.54-3 2.67-2.17 4.38.38.79.75 1.61 1.07 2.46L58 695.05a18.78 18.78.0 0 0-1.69-4.31c-2.1-3.92-7.84-.08-5.75 3.82v.12h-.92c-1.94-6.3-6-12.68-8.68-16.33s-8.4.22-5.75 3.82a54.05 54.05.0 0 1 6.09 10.82c.16.37.36.82.56 1.3L4.3 692.36a4.09 4.09.0 0 0-.41 8.17l39.76 2a3.51 3.51.0 0 1-.87 1.62 3.45 3.45.0 0 0-.7 1c-.7-.46-1.4-.91-2.11-1.35-3.77-2.39-6.87 3.79-3.14 6.15 4.05 2.56 8.23 5.17 11.32 8.89a3.52 3.52.0 0 0 4.79 1c1.44-1 2.17-3.34 1-4.79a39.75 39.75.0 0 0-6.28-6l.31-.28a9.82 9.82.0 0 0 2.73-5.86h.23c-1.06 3.9 4.69 6.71 6.28 2.72a23 23 0 0 0 .76-2.36l1.76.08c-.64 3.75 4.87 6.31 6.36 2.4a17.31 17.31.0 0 0 .64-2.05l1.19.06c0 .47.0.94-.06 1.42a2.8 2.8.0 0 0 2.25 3c-1.34 3.06-2.27 6.27-3.32 9.44-.59 1.79 1 3.74 2.65 4.1a3.53 3.53.0 0 0 4.11-2.65 67.3 67.3.0 0 1 3.54-9.53 3.37 3.37.0 0 0-2.33-4.84c0-.21.0-.41.0-.61l62.77 3.14h.21a2.55 2.55.0 0 0 .39.0l28.16-2.73 6.11-.6a4 4 0 0 0 .23 7c4.62 2.15 9.4 4.34 13.19 7.85a3.75 3.75.0 0 0 5.19.36c1.39-1.21 1.84-3.83.37-5.2a43 43 0 0 0-7.46-5.45 3 3 0 0 0 .28-.33 10.17 10.17.0 0 0 2.08-5.6h.23c.42 3.6 6 5.13 7 1 .15-.6.26-1.18.36-1.76l2-.2c.6 3.49 6 4.9 7 .87.13-.53.21-1.05.29-1.58l1.43-.13c0 .28.0.57.07.86a3 3 0 0 0 2.8 2.89c-1 3.41-1.54 6.94-2.21 10.43-.38 2 1.53 3.82 3.36 4a3.77 3.77.0 0 0 4-3.37A71.73 71.73.0 0 1 215.11 705a3.6 3.6.0 0 0-3.14-4.81.57.57.0 0 0 0-.13l37-3.6 20.68-2 1-.11a4.08 4.08.0 0 0 .85.14l67.8 3.39a4 4 0 0 0-1 6.84c4.07 3.07 8.28 6.22 11.24 10.45a3.93 3.93.0 0 0 3.93 1.82 3.68 3.68.0 0 0 1.07-.37c1.62-.9 2.61-3.36 1.45-5a38.66 38.66.0 0 0-3.14-3.89q-1.44-1.57-3-3l.35-.27a10 10 0 0 0 2.24-2.8 11.37 11.37.0 0 0 1.15-3.06h.23c-1.33 4 4.46 7.39 6.47 3.32a21.23 21.23.0 0 0 1.18-2.94l1.94.1c-1.87 4.19 4.27 8 6.31 3.76a18.92 18.92.0 0 0 1.22-3.39l1.08.06c-.12.95-.26 1.91-.37 2.87a3 3 0 0 0 2.12 3.41c-1.68 3.13-3 6.46-4.35 9.73-.79 1.85.69 4.06 2.46 4.6a3.75 3.75.0 0 0 4.59-2.46 73 73 0 0 1 4.6-9.81 3.59 3.59.0 0 0-2.05-5.35c.1-.88.23-1.75.34-2.62l25.79 1.29h.21.39l68.33-6.64a3.72 3.72.0 0 0 .68 5.66c4.05 2.56 8.23 5.17 11.32 8.89a3.52 3.52.0 0 0 4.79 1c1.44-1 2.17-3.34 1-4.79a39.75 39.75.0 0 0-6.28-6l.3-.28a9.8 9.8.0 0 0 2.74-5.89h.25c-1.16 3.94 4.66 6.81 6.25 2.79a19.21 19.21.0 0 0 1-3.5l1.9-.18c-.07.22-.11.45-.2.67-1.58 4.12 4.57 7.29 6.16 3.14a16.86 16.86.0 0 0 1-4.49l.91-.09c-.07 1.33-.15 2.66-.19 4a2.81 2.81.0 0 0 2.26 3c-1.34 3.06-2.28 6.27-3.32 9.44-.59 1.79 1 3.74 2.65 4.1a3.53 3.53.0 0 0 4.1-2.65 68.6 68.6.0 0 1 3.55-9.53 3.37 3.37.0 0 0-2.34-4.84c0-1.41.13-2.81.21-4.21l24.34-2.37a4.08 4.08.0 0 0 1.15.25l37.3 1.86 2.46.13a3.3 3.3.0 0 1-.87 1.61 3.55 3.55.0 0 0-.69 1l-1-.64-1.1-.71c-3.78-2.38-6.87 3.8-3.14 6.16 1.27.8 2.55 1.63 3.81 2.48a34.42 34.42.0 0 1 7.51 6.41 3.53 3.53.0 0 0 4.79 1c1.44-1 2.17-3.33 1-4.79a40.15 40.15.0 0 0-6.27-6 3.65 3.65.0 0 0 .3-.27 9.79 9.79.0 0 0 2.73-5.86h.23c-1.06 3.9 4.7 6.71 6.28 2.71a18.45 18.45.0 0 0 .76-2.36l1.77.09c-.65 3.74 4.86 6.3 6.36 2.4a18.55 18.55.0 0 0 .64-2l1.19.06c0 .47.0.94-.07 1.41a2.82 2.82.0 0 0 2.25 3c-1.33 3-2.27 6.27-3.31 9.43-.59 1.79 1 3.74 2.65 4.1a3.52 3.52.0 0 0 4.1-2.65 66.77 66.77.0 0 1 3.55-9.52 3.37 3.37.0 0 0-2.34-4.85v-.61l48.48 2.43 14.3.71h.2.4l5.7-.56 28.56-2.77a4 4 0 0 0 .23 7c4.63 2.14 9.41 4.33 13.19 7.84a3.77 3.77.0 0 0 5.2.37c1.39-1.22 1.84-3.83.36-5.2a42.52 42.52.0 0 0-7.46-5.45c.1-.11.2-.22.29-.34a10.24 10.24.0 0 0 2.08-5.59h.23c.41 3.6 6 5.12 7 1 .15-.59.26-1.17.36-1.75l2.05-.2c.59 3.48 6 4.9 7 .86.13-.53.21-1 .29-1.57l1.43-.14c0 .29.0.57.07.86a3 3 0 0 0 2.79 2.89c-1 3.42-1.54 6.94-2.21 10.43-.38 2 1.53 3.82 3.37 4a3.75 3.75.0 0 0 4-3.36A73.16 73.16.0 0 1 749.62 693a3.59 3.59.0 0 0-3.13-4.8.66.66.0 0 1 0-.14l13.67-1.33 45.08-4.38a3.87 3.87.0 0 0 .85.13l67.8 3.4a4 4 0 0 0-1 6.84c4.07 3.07 8.29 6.22 11.25 10.44 1.15 1.64 3.1 2.5 5 1.45 1.61-.89 2.6-3.36 1.45-5a42.3 42.3.0 0 0-6.15-6.9 3 3 0 0 0 .35-.27 10.4 10.4.0 0 0 3.39-5.85h.23a4 4 0 0 0 2.92 5.06 3 3 0 0 0 3.55-1.73 20.62 20.62.0 0 0 1.18-3l2 .1c-1.87 4.2 4.27 8 6.31 3.76a18 18 0 0 0 1.21-3.38h1.09c-.13 1-.27 1.91-.38 2.87a3 3 0 0 0 2.13 3.42c-1.69 3.13-3 6.46-4.36 9.73-.78 1.85.7 4.06 2.46 4.59 2.08.63 3.81-.61 4.6-2.46a71.09 71.09.0 0 1 4.6-9.8 3.6 3.6.0 0 0-2.06-5.36c.1-.87.24-1.75.35-2.62l25.79 1.29h.6l11.07-1.08 6.55-.64 50.7-4.93a3.73 3.73.0 0 0 .69 5.67 64 64 0 0 1 8.71 6.2 27.66 27.66.0 0 1 2.61 2.69 3.53 3.53.0 0 0 4.79 1c1.44-.95 2.17-3.33 1-4.78a40.19 40.19.0 0 0-6.27-6 3.65 3.65.0 0 0 .3-.27 9.73 9.73.0 0 0 2.73-5.9h.25c-1.15 3.93 4.67 6.8 6.26 2.79a20.3 20.3.0 0 0 1-3.5l1.89-.19c-.06.23-.11.45-.19.67-1.58 4.12 4.56 7.29 6.15 3.14a17.18 17.18.0 0 0 1-4.49l.91-.09c-.07 1.34-.15 2.67-.19 4a2.82 2.82.0 0 0 2.25 3c-1.33 3-2.27 6.27-3.32 9.43-.59 1.79 1 3.74 2.66 4.1a3.52 3.52.0 0 0 4.1-2.65 68 68 0 0 1 3.54-9.52 3.38 3.38.0 0 0-2.33-4.85c0-1.4.12-2.81.2-4.21l25.79-2.5.11-8.19a4 4 0 0 0-.6.0l-24.6 2.39c.38-3.38.86-6.76 1.48-10.12.8-4.38-5.95-5.83-6.76-1.45q-1.12 6.09-1.73 12.25l-2.62.26a26.52 26.52.0 0 0-1.1-2.68c-.81-1.7-2.43-2.83-4.38-2.17-1.62.55-3 2.68-2.16 4.38.18.38.36.77.53 1.16l-1.2.12a19.84 19.84.0 0 0-1.36-3.19c-2.11-3.93-7.85-.08-5.76 3.82v.06l-.88.08A47.6 47.6.0 0 0 1018 663.52zM178.12 704a3.88 3.88.0 0 0-.61 1.12L175.1 704a3.5 3.5.0 0 0-.77-.26l4.19-.41A4 4 0 0 1 178.12 704zm167.05-4.9a3.87 3.87.0 0 0-.83 1c-.7-.54-1.4-1.08-2.12-1.62a4 4 0 0 0-.84-.48l4.52.23A3.7 3.7.0 0 1 345.17 699.07zm135.59-4.7a3.26 3.26.0 0 0-.7 1c-.65-.42-1.29-.84-1.95-1.25l3.09-.3A3.06 3.06.0 0 1 480.76 694.37zM712.63 692a4 4 0 0 0-.6 1.12L709.62 692a3.74 3.74.0 0 0-.77-.27l4.18-.41A2.82 2.82.0 0 1 712.63 692zm167.06-4.89a3.83 3.83.0 0 0-.83 1l-2.12-1.62a3.81 3.81.0 0 0-.85-.47l4.52.22A3.33 3.33.0 0 1 879.69 687.13zm134.88-3.74c-.64-.42-1.29-.83-1.94-1.24l3.09-.31a2.82 2.82.0 0 1-.45.58A3.6 3.6.0 0 0 1014.57 683.39z" fill="#575756"/><path d="M494.63 243.15c.15.32.28.65.45 1l8.11 15.37a16.55 16.55.0 0 0 2.05 3l1.19 61.15h.17q.61-6.15 1.73-12.25c.8-4.38 7.56-2.93 6.75 1.45-.62 3.36-1.1 6.74-1.48 10.12l24.6-2.39a4 4 0 0 1 .6.0v.4h0l37.63 1.88-.56-1.3a54.1 54.1.0 0 0-6.1-10.82c-2.65-3.6 3.13-7.39 5.76-3.82s6.74 10 8.67 16.33h.93l-.06-.11c-2.09-3.9 3.66-7.74 5.76-3.82a19.31 19.31.0 0 1 1.68 4.3l1.42.07c-.32-.84-.69-1.67-1.07-2.46-.81-1.7.54-3.83 2.17-4.38 1.94-.65 3.56.47 4.37 2.17a23.92 23.92.0 0 1 1.79 5l1.71.08c.42-5 1-10 2-14.95.81-4.38 7.56-2.93 6.76 1.46-.85 4.59-1.44 9.2-1.84 13.84l62.37 3.12 39.12-3.8c-.61-1.14-1.23-2.16-1.67-2.91a58.14 58.14.0 0 0-7.93-10.6c-3.3-3.44 2.29-8.25 5.56-4.83 3.6 3.76 9.33 10.65 12.06 17.56l1.18-.12a11.29 11.29.0 0 0-.91-1.56c-2.75-3.83 2.79-8.69 5.55-4.83a19.64 19.64.0 0 1 2.87 5.66l1.65-.16a27.82 27.82.0 0 0-2.1-3.75c-1.1-1.69.0-4.13 1.68-4.93 2-1 3.84.0 4.93 1.69a25.43 25.43.0 0 1 3 6.26l1.47-.14a165.61 165.61.0 0 1-.05-17.26c.25-4.74 7.6-4.14 7.35.61a154.09 154.09.0 0 0 0 15.94l51.1-5-50.79-77.32-76.05 7.39a2.55 2.55.0 0 1-.39.0h-.21l-62.77-3.14c0 .2.0.4.0.61a3.36 3.36.0 0 1 2.33 4.84 68.55 68.55.0 0 0-3.54 9.53 3.53 3.53.0 0 1-4.11 2.65c-1.69-.36-3.24-2.32-2.65-4.11 1.05-3.16 2-6.37 3.32-9.43a2.8 2.8.0 0 1-2.25-3c0-.47.0-.94.06-1.41l-1.19-.06a16.12 16.12.0 0 1-.64 2.05c-1.49 3.9-7 1.35-6.36-2.4l-1.76-.08a23 23 0 0 1-.76 2.36c-1.08 2.7-4.06 2.28-5.55.52l-2.76 3.89a38.76 38.76.0 0 1 5 5c1.21 1.45.47 3.83-1 4.79a3.52 3.52.0 0 1-4.79-1 26.48 26.48.0 0 0-3.24-3.2l-15.79 22.32-.69-35.51c0-.22.0-.43-.05-.65l-6.2-.31a16.25 16.25.0 0 0-1.83-6.26l-1.1-2.08 6.24.31a16.39 16.39.0 0 0-9.52-6.54l-3.73-7.05a16.38 16.38.0 0 0-22.08-6.82L501.9 222a16.39 16.39.0 0 0-7.27 21.12z" fill="#070707"/></g></g></g></svg>