<svg xmlns="http://www.w3.org/2000/svg" width="1080" height="307.31" viewBox="0 0 1080 307.31"><g id="Слой_2" data-name="Слой 2"><g id="ukraine02_98732782"><g id="ukraine02_98732782-2" data-name="ukraine02_98732782"><path d="M37.63 22.78c3 0 4.52 4 4.52 11.84q-6.24 54.83-9.47 91.72t-3.22 50.43q0 67.51 17.74 88.39T82.36 286q26.9.0 47.32-26t25.59-84.95q4.08-86.24 7.09-142.16.0-18.91 6.24-20.43 18.92.87 22.15 29.68-3.23 97.22-3.22 107.1.0 76.56-28.39 112.26t-66 39.36q-34.85.0-63.77-24.19T0 182.79Q6.23 77.21 14.83 43.21 18.92 22.81 37.63 22.78z" fill="#0076c8"/><path d="M258.92 13.33Q268.82.0 289.46.0 261.29 112.46 254.3 165.15t-7 76.56Q247.75 277 261.08 277q10.76.0 24.3-16a462.17 462.17.0 0 0 28.17-37.41q14.63-21.41 24.51-21.83 8.82.0 11.08 2.89a12.53 12.53.0 0 1 2.26 7.86q0 8.39-9.89 24.51t-9.9 32q2.16 23.45 38.93 23.65 29.9.22 29.89 2.37c0 .71-4 2.55-12 5.48s-20 5.13-35.91 6.56q-22.16.0-32.59-10.11T309.46 274.4a58.89 58.89.0 0 1 1.08-11.18q-3.23 6-15.81 21.62t-32.36 15.79q-22.59.0-32.37-14.94t-9.78-57.52q0-18.07 6.34-66.78T258.92 13.33z" fill="#0076c8"/><path d="M396.12 160c.72-4.58 4.1-6.87 10.11-6.87q20.43.0 20.43 43.87 25.38-33.12 51.4-34 16.33.0 19.47 4.3t3.11 6.89q0 5.59-20.43 11.39t-36.34 28.17a90.24 90.24.0 0 0-16.77 50.76q-.87 28.39-6.24 32.9a18.83 18.83.0 0 1-12.47 4.52q-8 0-8-19.36a227.26 227.26.0 0 1 1.5-26.66A212.53 212.53.0 0 0 403.44 231q0-34.4-3.66-50T396.12 160z" fill="#0076c8"/><path d="M617.41 197.2q-2.79-24.73-16.77-24.73-17 0-34.08 24.94t-17.1 45.38q.21 30.77 17.21 31.61 11.39.0 32-20.86t36.78-20.85q17.63.84 28.4 21t10.75 28.7a9.26 9.26.0 0 1-.66 3.23 2.65 2.65.0 0 1-2.79 1.71q-4.08.0-14.63-14.62t-21.73-14.62q-6 0-28 23.23t-48.08 23.22q-17.41.0-28.17-17.52t-10.75-41.62q.86-28.6 23.87-61.94T608.6 150.1q16.13.0 25 12.16t8.94 33.43q0 23.66-5.49 28.61t-13.87 4.94Q618.05 229.24 617.41 197.2z" fill="#0076c8"/><path d="M704.73 194.62q4.72-18.7 13.88-18.82t16-.11q5.8.0 5.81 16.14-1.74 47.08-4.63 76.77t-8.71 29.68v-.23q-5.8.0-12.46-3.86-4.3-2.16-4.31-40 0-19.8 1.73-69.46zm12-79.57c3.45-3.72 7.39-5.6 11.83-5.6q5.16.0 11.5 4.42c4.23 2.93 6.35 6.27 6.35 10 0 3.16-1.73 6.68-5.16 10.54s-7.39 5.82-11.83 5.82c-3.44.0-7.28-1.59-11.51-4.74s-6.34-6.67-6.34-10.53Q711.61 120.65 716.77 115.05z" fill="#0076c8"/><path d="M784.09 292.25q-3.44-5.6-3.44-40.86.0-41.29 1.71-57.52t3.45-30.22q1.73-14 14.4-14 10.54.0 14 10.32-3.68 35.07-5.06 56.34t-1.4 33.78q3 0 13.77-26.89 20.64-36.12 43.87-36.13 20.21.0 30.11 14.63t11.6 47.52a290.73 290.73.0 0 1-2.36 37.42q-2.37 18.29-8.6 20-8.61.0-9.68-9.89.0-7.95-.31-21.07t-2.48-36.88Q881.5 215 864.74 212.9q-14 0-32.27 42.47t-39.56 42.47Q787.53 297.84 784.09 292.25z" fill="#0076c8"/><path d="M1003.23 212.8q31-17.76 31.39-35 0-10.31-11-10.32-22.15.0-41.4 20.11T963 243q0 19.35 14.09 31.82t36 12.47q31.83-1.92 57-18.27 7.53-5.8 8.61-5.81c.85.0 1.28.8 1.28 2.37q0 1.92-7.31 11.61t-25.27 19.9q-18 10.22-45.69 10.21-26.25.0-45-15.27t-21.29-46.88q0-43 26.24-67.32t66.66-24.29q13.33.0 22 6.13c5.8 4.07 8.71 10.07 8.71 17.95q-2.36 19.35-21.28 34.84t-48 24.29q-17.64 4.31-22.8 4.31c-2 0-3-.5-3-1.5a5.88 5.88.0 0 1 1.5-3Q972.25 230.55 1003.23 212.8z" fill="#0076c8"/><path d="M388.82 27.53c8.38 10.8 13.61 21.57 11.69 24s-10.28-4.27-18.66-15.07-13.6-21.56-11.68-24S380.45 16.73 388.82 27.53z" fill="#ffdf00"/><path d="M413.16 27.53c-8.38 10.8-13.61 21.57-11.68 24s10.27-4.27 18.65-15.07 13.61-21.56 11.68-24S421.54 16.73 413.16 27.53z" fill="#ffdf00"/><path d="M527.83 27.53c8.38 10.8 13.61 21.57 11.69 24s-10.28-4.27-18.66-15.07-13.61-21.56-11.68-24S519.45 16.73 527.83 27.53z" fill="#ffdf00"/><path d="M552.17 27.53c-8.38 10.8-13.61 21.57-11.69 24s10.28-4.27 18.66-15.07 13.61-21.56 11.68-24S560.55 16.73 552.17 27.53z" fill="#ffdf00"/><path d="M666.84 27.53c8.38 10.8 13.61 21.57 11.68 24s-10.27-4.27-18.65-15.07-13.61-21.56-11.68-24S658.46 16.73 666.84 27.53z" fill="#ffdf00"/><path d="M691.18 27.53c-8.38 10.8-13.61 21.57-11.69 24s10.28-4.27 18.66-15.07 13.6-21.56 11.68-24S699.55 16.73 691.18 27.53z" fill="#ffdf00"/></g></g></g></svg>