<svg xmlns="http://www.w3.org/2000/svg" width="1080" height="841.75" viewBox="0 0 1080 841.75"><g id="Слой_2" data-name="Слой 2"><g id="war_374451874"><g id="war_374451874-2" data-name="war_374451874"><path d="M327 99.41c.39-.14.78-.27 1.18-.39 11.13-3.46 25-2.34 34.85 4.17a33.46 33.46.0 0 1 14 18.54 30 30 0 0 1 1.08 5.78 33.34 33.34.0 0 1 8.56 2 35.86 35.86.0 0 1 17.89 14.21 32.66 32.66.0 0 1 4.92 19.23 37.07 37.07.0 0 1-4.8 16.24c8.55 4.13 16.08 11.09 19.28 19.86 4.17 11.44-1.63 23.32-9.63 31.44a49.87 49.87.0 0 1-25.08 13.63 78.72 78.72.0 0 1-17.45 1.5c-17.44-.19-34.88-.13-52.31-.13q-32 0-64 0h-10.89A65.49 65.49.0 0 0 267.39 280h422c5.16-.22 12.78-3.26 16.29-7a19.75 19.75.0 0 0 4.6-18.41c10.43 1.54 21.27-6.53 22.86-16.94s-6.18-21.12-16.43-22.94c12.56-.09 22.75-12.87 22.19-25.41s-10-23.57-21.62-28.39c-13.82-5.74-30-3.78-43.81 1.19 11-6.21 17.4-18.16 18.26-30.46H618.33a23.29 23.29.0 0 1-5.52-.67c-6.91-1.68-12-7.06-14.23-13.62a19.25 19.25.0 0 1 0-12.12A24.42 24.42.0 0 1 608.27 93a21.6 21.6.0 0 1 5.28-2.53c-.1-1-.16-1.9-.19-2.83a32.27 32.27.0 0 1 15.49-28.4c.32-.2.65-.38 1-.56a33.41 33.41.0 0 1 9.79-3.45 49.73 49.73.0 0 0-17-22c-20.19-14.61-49.3-12-67.42 7-6.38-26.08-29.71-42.58-52.13-40C486.74 2.17 472.44 14 465.54 30.5A33.39 33.39.0 0 0 453 10.7a32.45 32.45.0 0 0-32.67-3.13c-14.09 6.78-21.82 24.81-16.68 42.74-8.14-8.66-20.24-11.81-30.23-8-12.88 4.92-20.53 20.74-15.64 36.14A39 39 0 0 0 338 75.34a39.76 39.76.0 0 0-19.95 8.08 47.9 47.9.0 0 1 5.84 8.67A48.55 48.55.0 0 1 327 99.41z" fill="#070707"/><path d="M628.93 72.57A22.79 22.79.0 0 0 627.87 1e2c-.9-.22-10-2.32-16 3.31a11 11 0 0 0-3.87 7.45 10.56 10.56.0 0 0 3.83 8.34 10.19 10.19.0 0 0 6.25 2.09h152.5l5.29-.26c11.07-.54 22.15-5.61 28.66-14.59s7.71-21.92 1.76-31.27-19.27-13.67-29-8.45c6.5-9.33 3.71-23.8-5.8-30s-23.89-3.07-29.88 6.6a23.9 23.9.0 0 0-10.65-23.13 23.31 23.31.0 0 0-35.63 22 10.93 10.93.0 0 0-9.43-7.93c-5-.44-10 2.6-12.4 7A17.49 17.49.0 0 0 671.79 53a20.35 20.35.0 0 0 .72 2.68 10.17 10.17.0 0 0-16.67 11.64 20.09 20.09.0 0 0-2.75-1.17 22.52 22.52.0 0 0-10.6-.88 23.14 23.14.0 0 0-9.88 4A20.44 20.44.0 0 0 628.93 72.57z" fill="#070707"/><path d="M232 235.11h21c64.11-.06 107-.09 120.6.11 3.88.05 19 .32 30.52-9.44 1.72-1.46 12.81-10.77 10.55-21.56-1.41-6.73-6.9-10.77-10.45-13.23a34.8 34.8.0 0 0-21.66-5.82c14-5.35 20.24-21.41 14.43-33.7-5.22-11-19-16.72-31.55-12 4.32-7.19 2.6-17.08-3-23.31-7.69-8.53-18.71-8.67-22.81-8.53a34.56 34.56.0 0 0-20.65 8 37.81 37.81.0 0 0-1.55-12.35 36 36 0 0 0-4.7-10c-.53-.78-1.07-1.51-1.63-2.21A35.56 35.56.0 0 0 303.41 84 43.36 43.36.0 0 0 294 79.17c-9.55-3.7-20.65-4.42-29.85.06s-15.8 14.87-14 25c-1.12-2.3-10.6-21-31.65-25-3.24-.62-19.31-3.69-32.67 7.3-15.88 13.07-13.39 34.08-13.2 35.44a16.47 16.47.0 0 0-20.51.0 16.3 16.3.0 0 0-4.92 17 24 24 0 0 0-41 21c-6.27-3.41-13.36-5.63-20.47-5.16-3.24.21-12.55 1.55-18.15 9.83-5.78 8.56-3.11 18.15-2.69 19.58a26.4 26.4.0 0 0-41 27.8c-6-3.45-13.2-3.16-18.07.7-4.11 3.24-6.69 9.1-5.46 14a14.37 14.37.0 0 0 2.55 5 13.93 13.93.0 0 0 4.4 3.56H17.41C100.42 235.24 173.59 235.17 232 235.11z" fill="#070707"/><path d="M720.07 803.94l-47.14-56.18-1.16 1L296 300.68l-1.86 1.56L669.91 750.3l-8.21 6.89-383-456.51-1.86 1.56 383 456.51-8.17 6.85L261.29 300.68l-1.87 1.56L649.81 767.17l-1.42 1.19 47.14 56.17.08.1c6.32 7.43 24.29 17.74 31 12.08s-.28-25.16-6.5-32.67z" fill="#070707"/><path d="M585 477.28l-47.13-56.17-1 .85L435.05 300.68l-1.86 1.56L535 423.53l-8.4 7.05L417.67 300.68l-1.86 1.56 108.92 129.9L516.5 439 400.3 300.68l-1.87 1.56 116.2 138.37v0l47.14 56.18.09.1c6.31 7.43 24 18 30.41 12.6s-.91-24.63-7.13-32.14z" fill="#070707"/><path d="M770.36 368.82l-57.29-68.14-1.86 1.56 57.29 68.14-8.37 7-64.44-76.72-1.86 1.56L758.26 379l-8.31 7-71.64-85.26-1.86 1.56 71.64 85.27-1 .82 47.14 56.18.08.09c6.31 7.43 24.25 17.77 30.95 12.15s-.36-25.09-6.58-32.59l-.08-.1-47.14-56.18z" fill="#070707"/><path d="M508.44 647.29 383 497.76l-16.82-55.33-12.33-14.7-1.88 1.58-108-128.63-1.86 1.56 108 128.64-6.43 5.4-149.81-178.7L192 259.15 341.77 437.84l-5.33 4.47L306 406l-2.9 2.44L176.49 257.58l-1.86 1.57L301.23 410l-8.33 7L159.12 257.58l-1.87 1.57L291 418.59l-6.08 5.1L315.4 460l-2.18 1.83L141.74 257.58l-1.86 1.57L311.35 463.37l-8.26 6.93L124.36 257.58l-1.86 1.57L301.22 471.87l-3.12 2.61 12.34 14.7 51.33 26.05L487.4 665l.09.1c6.11 7 15.68 12.86 30.77 15.31.21-15.29-3.86-25.72-9.73-33z" fill="#070707"/><path d="M507.62 810 398.21 679.65l-11.72-50.71-10.76-12.82L357.64 631.3 300.33 563l24.87-20.87L410.69 644l-4.87 4.09L453 704.29l.08.1c6.31 7.43 24 18 30.41 12.6s-.91-24.63-7.13-32.13l-.08-.11L429.1 628.58l-6.35 5.32L337.26 532l3.47-2.9-5.31-6.33L332 525.69 107 257.58l-1.87 1.57 225 268.1-8.33 7L89.61 257.58l-1.86 1.57L319.89 535.81l-8.17 6.86L72.23 257.58l-1.86 1.57L309.85 544.23l-8.43 7.08L54.86 257.58 53 259.15 299.56 552.87 295 556.68l-1.56-1.87-3.86 3.24L37.48 257.58l-1.86 1.57L287.74 559.61l-8.34 7-259.29-309-1.87 1.57 259.3 309-6 5 1.57 1.86-40.23 33.76 5.31 6.33 40.23-33.76 57.31 68.3-18 15.11 10.76 12.82 47.68 20.26L485.72 828.42l.08.09c5.94 7 22.58 16.91 28.6 11.85s-.85-23.16-6.7-30.22zM335.4 533.58l85.49 101.89-8.33 7-85.5-101.89z" fill="#070707"/><path d="M551.61 566.17l18.44 22 .08.09c5.29 6.08 13.79 10.91 27.47 12.49.82-13.75-2.47-23-7.54-29.22l-.07-.09-18.32-21.83L574.44 525l-16.73 8-76.19-90.79-13.09-49-10.66-12.71-4.56 3.83-70.29-83.56-1.86 1.56 70.29 83.56-8.44 7.08-77.37-92.2-1.86 1.56 51.05 60.85-8.35 7-58.21-69.42-1.87 1.56 58.22 69.42-8.33 7-65.4-78-1.86 1.56 91.71 109.33-8.44 7.09-98.78-118-1.87 1.56 98.78 118L405 424.71l10.66 12.71 45.82 21.31 76.34 91-10.61 14.94z" fill="#070707"/><path d="M1073.44 791.09l-.08-.1-18.31-21.83 5-26.45-19 9.81L964.9 661.73l-10.42-51.27-10.66-12.71-19.13 16-26.32-31.36-.59.5L660.94 300.68l-1.86 1.56L895.92 584.5l-8.33 7L767.69 448.61l3.59-3-5-6-3.59 3L643.56 300.68l-1.86 1.56 119.11 142-8.33 7L626.19 300.68l-1.87 1.56L750.61 452.75l-8.25 6.93-133.55-159L607 302.24l133.54 159-8.46 7.1L591.43 300.68l-1.86 1.56L730.16 469.91l-4.3 3.6-1.47-1.76-4 3.34L574.06 300.68l-1.87 1.56L718.54 476.65l-8.33 7-153.53-183-1.86 1.56 153.53 183-5.87 4.92 1.48 1.76L701.42 494 539.31 300.68l-1.87 1.56L699.55 495.59l-8.36 7L521.93 300.68l-1.86 1.56L689.33 504.17 681.14 511 504.55 300.68l-1.86 1.56L679.27 512.61l-8.39 7-183.7-219-1.87 1.56L669 521.22l-5.29 4.43 5 6 5.29-4.44L699.7 557.8l-8.28 6.94L469.8 300.68l-1.86 1.56L689.56 566.31l-8.32 7L452.43 300.68l-1.87 1.56L679.38 574.85l-.76.63 47.14 56.18.09.1c6.31 7.43 24 18 30.41 12.6s-.91-24.63-7.13-32.14l-.08-.1-47.14-56.18-.35.29-25.67-30.6L709 497.87l54.14 64.53-18 15.11 10.16 12.11 46 18.3 103.5 123.34.07.09c5.61 6.6 21.61 15.74 27.63 10.69s-.2-22.4-5.73-29.07l-.07-.09L823.35 589.69 813.27 541l-10.16-12.11L785 544l-54.15-64.53 24.75-20.77 119.9 142.89-.32.27 26.31 31.36-19 16 10.66 12.7L941.61 681 1018 772l-12.81 16.79 26.62-.33 18.44 22 .08.09c5.31 6.06 14.23 10.54 29.08 11.14C1081.35 806.93 1078.49 797.36 1073.44 791.09zm-316-333.93 8.34-7L885.72 593.06l-8.33 7z" fill="#070707"/></g></g></g></svg>