<svg xmlns="http://www.w3.org/2000/svg" width="732.39" height="1080" viewBox="0 0 732.39 1080"><g id="Слой_2" data-name="Слой 2"><g id="war24_104196090"><path id="war24_104196090-2" data-name="war24_104196090" d="M729.85 197.39l-2.45 1.16c-2.22-7.89-9.67-16.82-17.19-13.08-56.44 28-101.15 70.35-133.58 122-1.85 2.4-3.72 4.86-5.6 7.46A338.87 338.87.0 0 0 552 344.34a368.91 368.91.0 0 0-18.3 36.38c-11.61 26.46-21.38 57.34-28.6 91.26-3.63 17-6.66 34.67-9.28 52.9q-1 6.84-1.9 13.76-1.08 8.46-2.22 17.08Q490 569 488.16 582.48q-.92 6.76-1.83 13.57-.45 3.39-.92 6.8l-.23 1.7-.05.42v.37l-.07.71-.23 2.89c9.73-3.1 20.58-6.55 30.64-9.66 2.48-.72 5-1.55 7.33-2l1.77-.39a17.07 17.07.0 0 1 1.77-.33l3.46-.48.86-.12.81-.07 1.62-.11 1.61-.13h.8.39c1 0 1.92-.06 2.89.0a71 71 0 0 1 22.58 3.56c7.08 2.38 13.36 6.1 17.57 10.52a24.74 24.74.0 0 1 4.79 7 22.06 22.06.0 0 1 1.84 8 30 30 0 0 1-.17 4.59 40.4 40.4.0 0 1-1 5 55 55 0 0 1-4.21 10.71c-1 1.81-2 3.66-3.12 5.49l-.85 1.38-.71 1a11 11 0 0 1-.72 1l-.8 1a48.39 48.39.0 0 1-8.3 7.84c-6.63 5.07-15.1 9.6-24.19 13.74-4.54 2.1-9.27 4.08-14.13 6s-9.8 3.86-14.86 5.78c-13.54 5.13-27.61 10.26-41.81 16.09a544.18 544.18.0 0 0-38-79c-17.38-30-34.71-59.6-50.51-90 2-4.49 4-9.08 5.82-14-.12-.9-.22-1.86-.33-2.79 10.62-24.14 20.82-49.87 28.9-77.32l.5-2c20.44-60.07 32-122.66 25.58-186.56-8.46-84.29-45.54-163.77-73.94-242.64-2.87-8-22.16-15.37-26-4.4-25 71-46.75 144-54 218.85-.08.51-.19 1-.27 1.52-.33 2-.68 4-1 6s-.67 4-1 6-.59 4-.89 6.06c-.56 4-1.14 8.1-1.7 12.16s-.91 8.17-1.37 12.26-.76 8.21-1.12 12.34c-.17 2.05-.33 4.13-.49 6.19-.1 1-.17 2.06-.21 3.11l-.15 3.1c-.2 4.15-.44 8.31-.59 12.47s-.12 8.35-.19 12.53v3.13l.06 3.16c0 2.09.07 4.19.12 6.29l.12 6.31c.08 2.1.22 4.2.33 6.31s.24 4.21.34 6.32.21 4.22.43 6.32q.58 6.31 1.16 12.66a491.43 491.43.0 0 0 8.24 50.56c1 4.19 2 8.36 3 12.56.52 2.08 1 4.19 1.56 6.27s1.16 4.15 1.74 6.24 1.17 4.16 1.75 6.24l.87 3.13 1 3.09q2 6.19 3.95 12.42c.66 2.07 1.47 4.08 2.22 6.11l2.27 6.09 2.28 6.07c.78 2 1.63 4 2.44 6l4.9 12q2.63 5.88 5.23 11.75L326.3 523c.92 1.92 1.83 3.85 2.75 5.76 1.82 3.84 3.63 7.65 5.45 11.47.35.72.72 1.43 1.07 2.15l-.16.34-4.68 9.8c-.76 1.57-1.49 3.12-2.22 4.63s-1.51 3-2.23 4.44c-2.93 5.78-5.63 11.07-8 15.87-1.89 3.9-3.94 7.72-5.92 11.56q-3.42 6.48-6.93 13.11c-.58 1.12-1.17 2.24-1.75 3.33l-1.83 3.33c-1.22 2.22-2.45 4.45-3.67 6.69L290.7 629q-3.87 7.11-7.74 14.29a472.09 472.09.0 0 0-26.36 59.74c-19.21-5.88-38.32-9-56.6-11.44-10.84-1.43-21.43-2.55-31.44-3.84-2.49-.34-5-.67-7.34-1-1.21-.19-2.39-.38-3.55-.58-1.32-.2-2-.37-2.8-.53a28.64 28.64.0 0 1-4.57-1.43c-.74-.26-1.41-.62-2.11-.93-.35-.16-.66-.36-1-.53a10.45 10.45.0 0 1-1-.57 26.76 26.76.0 0 1-6.75-5.92 33.14 33.14.0 0 1-2.67-3.81 38.61 38.61.0 0 1-2.12-4.33 40.89 40.89.0 0 1-2.52-19.81 39 39 0 0 1 6.79-18 33.26 33.26.0 0 1 13.81-11.15 46.38 46.38.0 0 1 18.79-3.62h1.28l1.28.05 1.29.06h.49.33l1.48.17 2.94.34 1.46.17a14.2 14.2.0 0 1 1.5.21l6.21 1.3c1 .19 2.07.45 3.13.72s2.11.5 3.16.77l6.29 1.54 12.28 3 .25-1.33.13-.66c0-.24.06-.52.09-.77.1-1 .22-2.08.32-3.12l.66-6.2q.63-6.13 1.25-12.21.3-3 .59-6.07c.1-1 .2-2 .29-3l.21-3.06c.14-2 .29-4.06.42-6.09.06-1 .13-2 .19-3l.1-2.17c.45-9 .61-17.82.58-26.35-.06-17.06-.94-33.09-2.28-48.07a562.21 562.21.0 0 0-12.12-76.53c-2-8.46-4.2-16.85-6.66-25.18a405 405 0 0 0-21-56.77 292 292 0 0 0-32.53-54.84A233.69 233.69.0 0 0 127.5 268c-21.1-30.14-47.92-55.59-81.77-71.12A170.4 170.4.0 0 0 9.48 185a7.47 7.47.0 0 0-9.25 7.45v775c-1.69 8.54 6.32 22.6 15.2 21.4 85.87-11.53 172-22.25 258.37-30.13 1.83 3.9 3.72 7.76 5.72 11.6 20.3 39 49.53 78.61 85.34 105l.22.16c5.85 4.78 14.65 6.68 19.47 1.15a8.84 8.84.0 0 0 1.12-1.29c34.46-39.65 66.08-81.14 86.78-128.84q45.23-1.25 90.53-.8c44.09.47 88.22 2.41 132.12 6.79 6.9.68 9.83-4.24 9.19-10.8q-1.08-11-1.86-22l3.4.3-1.91-20.78L703 888.82l-.47-5.22-.22-2.61-.18-2.58-.63-9.55-.31-5-.53-10.12c-.18-3.37-.32-6.77-.46-10.14l-.42-10.18c-.23-6.79-.52-13.57-.7-20.38s-.38-13.56-.54-20.34c-.06-6.95-.13-13.86-.19-20.78q-1.29-134 3.55-268c1.66-45.23 3.53-90.75 6.73-136.17q2-23.81 4.51-47.53c.69-6.84 1.55-13.64 2.37-20.44.42-3.4.78-6.82 1.28-10.2l1.41-10.32 1.52-10.3.37-2.58.45-2.6.89-5.2q1.79-10.42 3.59-20.84l1.8-10.41 1.85-10.35 3.72-20.71-2.54 1.18zm-149.57 698h0c-7.49-.19-15.45-.43-23.65-.49l-12.47-.17c-4.19-.06-8.43.0-12.67.0H518.8l-12.56.13-12.25.16c-1.49.0-3 .06-4.45.1 10.91-47.61 8.12-95.84-3.5-142.42 19.63-8.57 39.78-16 59.53-24.26 21.56-9 44.55-19.71 59.63-38.27 17.75-21.82 23.94-52.14 14.33-77.71-.27-1.07-.54-2.14-.86-3.19a59 59 0 0 0-14.91-24.64 75.12 75.12.0 0 0-22.34-15.21 97.38 97.38.0 0 0-24.7-7.3 107.72 107.72.0 0 0-12.65-1.26c-2.11-.1-4.24-.12-6.36-.1-1.06.0-2.12.07-3.17.1h-.38-.39l-.54.05a29.87 29.87.0 0 0-6.17 1.28c6.61-50.7 14-101.05 29.76-149.84 2.75-7.49 5.72-14.93 9-22.27a318.24 318.24.0 0 1 24.51-45.22 282.4 282.4.0 0 1 32.49-40.87q9.12-9.53 19.24-18.23t21.17-16.47l2.76-1.95 2.8-1.88 2-1.34c.47-.33 1-.64 1.45-.95 1-.62 2-1.28 3-1.9l3.05-1.85c2.08-1.2 4.18-2.42 6.37-3.57q1.62-.88 3.3-1.71l1.68-.86L690 253l.21-.11.11-.06s0 .07.0.1l-.14.87c-.61 3.92-1.3 8.11-1.87 12.6-.28 2.23-.64 4.56-.9 6.91-.06.58-.14 1.17-.2 1.77-.14 1.12-.29 2.23-.43 3.37q-.43 3.4-.87 6.86c-.31 2.29-.57 4.61-.82 6.94s-.51 4.65-.77 7c-.51 4.69-1.09 9.4-1.52 14.16-.92 9.5-1.89 19.11-2.66 28.75-2.45 32.46-4.13 64.93-5.41 97.08s-2.18 64-2.9 95.28c-2.5 92.58-3.86 210.72-.64 301.1.83-2.73 1.91 3.38 3.17 14.67.32 2.82.67 6 1 9.37.18 1.7.36 3.47.55 5.3s.41 3.73.62 5.68c.19 1.69.39 3.44.59 5.23s.45 3.67.68 5.55c.43 3.78 1 7.8 1.56 12 0 .09.0.19.0.29H679h-.57-1.16l-2.35-.1-4.81-.2-10.05-.45-21.61-.67c-14.29-.27-27.74-.41-38.59-.18a220.37 220.37.0 0 0-22.93 1.14c-3.85.55-3.32 1.25 3.35 2.15zM342.23 925h0q-23.93 1.62-47.82 3.59c-.94-2.22-1.88-4.42-2.77-6.66 4-.31 8-.64 12-1q18.62-1.4 37.22-2.63a24.92 24.92.0 0 0 1.38 6.66zm-1.29-18.1h0c-.05 1.17.0 2.36-.07 3.54-14.66 1.61-31.69 3.44-51.5 5.6-.38-1-.77-2.06-1.14-3.11q-3.71-10.5-6.53-21.24c-1.88-7.18-3.38-14.43-4.67-21.73s-2.13-14.66-2.78-22.05c-.15-1.85-.24-3.7-.37-5.55l-.18-2.77c-.05-.93-.07-1.85-.11-2.78l-.18-5.57v-5.57A281.13 281.13.0 0 1 277 781.15c.77-4.95 1.69-9.88 2.72-14.8a118.89 118.89.0 0 1 32.92 29.58 122.63 122.63.0 0 1 17.68 34 193.07 193.07.0 0 1 3.37 21.18 274.84 274.84.0 0 1 1 36.7h.19v.77l5.71.09c.28 6.13.4 12.23.37 18.25zm-6.08-274.41h0c3.94-7 7.67-14.22 11.44-21.38-.64-.59-4.58 5.11.05-4.55 3.79-7.51 7.36-14.71 11-21.64.0-.07.07-.14.11-.22l6.63 12.21c3.33 5.86 6.72 11.8 10.12 17.8.84 1.5 1.72 3 2.61 4.47s1.77 3 2.65 4.46q2.67 4.46 5.32 8.91c1.75 3 3.51 5.91 5.25 8.84l2.61 4.37c.86 1.45 1.67 2.93 2.51 4.4 3.36 5.83 6.53 11.7 9.6 17.47 6.09 11.59 11.5 23 16.13 33.69.18-1.05 1.12-.38 2.56 1.6a93.37 93.37.0 0 1 5.57 9.46c1.45 2.72 3 5.84 4.56 9.21q-7.63 4.11-15.14 8.79c-5.12 3.25-10.21 6.65-15.13 10.41a179.31 179.31.0 0 0-14.37 11.94l-1.74 1.58L385.5 756c-1.12 1.11-2.27 2.19-3.36 3.33-2.18 2.3-4.37 4.58-6.43 7s-4.07 4.89-6.08 7.38-3.85 5.09-5.59 7.79c-2.18 3.19-4.22 6.49-6.14 9.85-1.65-4.05-3.44-8.05-5.42-12a143.63 143.63.0 0 0-9.92-16.79 140.92 140.92.0 0 0-12.13-15.32 144.54 144.54.0 0 0-29.71-24.58c-2.39-1.5-4.82-2.91-7.25-4.26q4.35-12 9.46-23.77 9.09-21 20.34-41.06 5.81-10.55 11.59-21.09zm56.37-286.86h0l-.09 2.15-.18 4.3c0 1.42-.12 2.84-.18 4.27l-.08 2.13c0 .71-.12 1.43-.18 2.13l-.75 8.46c-.12 1.41-.25 2.82-.37 4.21s-.37 2.79-.56 4.18a405.56 405.56.0 0 1-13.58 63.65q-2.31 7.49-4.55 14.75-2.47 7.23-4.9 14.21c-.4 1.17-.79 2.33-1.2 3.48s-.86 2.29-1.29 3.42c-.86 2.28-1.72 4.52-2.57 6.75-.48 1.26-1 2.5-1.43 3.74-4-9.09-7.76-18.29-11.3-27.65A524.29 524.29.0 0 1 315.3 313.26q-.93-12.76-1.14-25.49c.77-9.26 1.86-19.17 3.4-29.72a685 685 0 0 1 15.93-76.15c.94-3.44 1.92-6.91 2.89-10.4s1.92-7 3-10.58q.78-2.65 1.58-5.33l.37-1.26v-.14l.08-.31.33-1.2c.23-.83.48-1.68.75-2.57l.42-1.36.22-.71.11-.35c0-.09.08-.34.12-.14.49 1.25 1 2.52 1.51 3.81.28.68.56 1.37.83 2.07l.21.53 1.47 3.89q1.65 4.41 3.3 8.84c2.18 5.89 4.4 11.81 6.52 17.71l3.22 8.87c1 2.95 2.07 5.91 3.1 8.87 2.11 5.93 4 11.85 6 17.78l.73 2.22.69 2.23 1.38 4.44 1.38 4.45c.46 1.48.94 3 1.34 4.45 6.9 23.71 12.36 47.44 14.59 70.89.27 2.93.6 5.86.83 8.78l.45 8.74.24 4.35c0 1.45.0 2.91.0 4.36.0 2.89.0 5.77.0 8.64.0.72.0 1.44.0 2.16zM362.65 919.31h0c0-.78.08-1.55.11-2.32 5.51-.34 11-.72 16.55-1q37.59-2.16 75.1-3.28-1.1 3.3-2.28 6.55-43.81 1.49-87.54 4.25l-2 .13q0-2.16.06-4.32zm98.21-29.25h0c-.46 2-1 3.9-1.46 5.83-6 .24-11.41.45-16 .7-10 .56-16.51 1-17.65 1.44A127.06 127.06.0 0 1 408.1 902c-8.7 1.42-20.68 3.12-37.16 5-2.45.3-5 .61-7.66.91.49-6.35 1.22-12.65 2.24-18.91l6.93.1v-.79h.19a196.76 196.76.0 0 1 2.82-34.19c.26-1.39.53-2.79.82-4.18a146.16 146.16.0 0 1 16.43-29.83c15.42-21.49 36.3-37.56 59-50.51.64 1.95 1.21 3.76 1.72 5.34.64 1.8 1.13 3.33 1.6 4.51a10.78 10.78.0 0 0 1.22 2.43c.69.85 1.14.0 1.23-3 1.43 7.91 2.61 16.9 3.39 26s1.13 18.23 1.11 26.45-.45 15.51-.7 20.92c-.19 2.7-.32 4.92-.37 6.57a12 12 0 0 0 .06 3 22.37 22.37.0 0 1 1.05 3.92 48.85 48.85.0 0 1 .64 6.09c.08 1.23.11 2.56.09 4s0 3-.1 4.78c0 .43-.06.89-.09 1.36q-.81 4-1.75 8.06zm-50.41-669.7h0c.49 2.63.94 5.28 1.37 7.9-2.54-9.08-5.32-18.36-8.41-27.61-1.47-4.27-3-8.46-4.54-12.6-1.41-3.16-2.15-3.84-2.61-4.27-2.26-6.43-4.39-12.51-6.42-18.3s-4-11.23-5.87-16.49q-1.53-3.92-3.07-7.81-2.73-7.14-5.48-14.29Q370 112.6 364.41 98L352.83 67.14c1.49-4.7 3-9.37 4.55-14 20.76 54.77 42.3 109.7 53.07 167.27zM258 919.49h0l-2.33.26a263.58 263.58.0 0 1-8.3-39.92c.41 2 .73 4 1.2 6s.9 4 1.35 6 1 3.94 1.47 5.89q.38 1.47.75 2.91c.27 1 .55 1.92.81 2.87 1.55 5.58 3.28 10.93 5 16zM81.75 951.28h0Q51.83 955.12 22 959.2V743.71c.79-12.55 1.65-28.19 2.56-42 1.43-35.46 3.63 12.47 5.09-43-.07 40-.1 60.05-.18 100.23 1.37 4.59-.69-123.48 1.54-95.64-.52 38.56.31 81.76.24 121.82 1.85-13.89.7-138.8 2.51-132.63.42 21.62-2.47 112.58-.2 120.33.45 1.53.52-38.56.55-58.62.7 123.39 2.86 191.38 5.33 78.75-.06 39.1-1 94.38-.71 135.73.0.0.0-.22.0-.31.08-20.63.54-56.23.58-75.29.0 23.43-.09 47-.13 70.42.33-3.69.64-7.89 1-12.3.28-17.52.51-35.14.55-53.42q-.06 23.31-.09 46.75c.74-11.66 1.45-25.08 2.12-39.82 1.46-55.55 3.61-108.75 3.66-138.79q.67-182 1.34-364.51.14-45.57.23-91.16v-5.7-2.61-.34-.31-.07h.08.16a3.57 3.57.0 0 1 .62.26 135 135 0 0 1 17.62 8.75A152.79 152.79.0 0 1 97.7 295.05a202.22 202.22.0 0 1 25.41 32.31c15 23.47 26.33 50 34.83 77.45.48.07.0-2.87.13-3.58s1 .79 3.94 9.95a374.73 374.73.0 0 1 10.21 42.46c2.53 13.88 4.3 27.53 5.58 41.23s2 27.43 2.33 41.52c.16 7 .23 14.18.13 21.43.0 3.62-.1 7.28-.21 11 0 1.85-.11 3.69-.18 5.55v.71.36a1.38 1.38.0 0 0 0 .14v.16a4.19 4.19.0 0 1 .91.58c0 .57-.09 1.16-.12 1.74-.61-.2-1.17-.38-1.71-.51h-.34-.18-.08s0 0-.28.0c-1.69-.09-3.37-.2-5.09-.24a94.64 94.64.0 0 0-10.46.33A82.65 82.65.0 0 0 141 582.17a72.11 72.11.0 0 0-36.2 28.74 68.61 68.61.0 0 0-3.47 6c-15.18 24.57-14.54 57.15-.94 82.26 7 12.89 18.06 24.06 31.67 29.79 10.88 4.59 22.74 5.68 34.36 7.16 25.33 3.23 50.68 6.29 75.25 13.55q.72.21 1.44.45c-1.2 5.56-2.27 11.08-3.15 16.56-.93 5.09-1.49 10.2-2.18 15.18-.26 2.51-.5 5-.75 7.46-.12 1.23-.26 2.45-.34 3.67s-.17 2.45-.25 3.66c-.72 9.69-.81 19-.61 27.91a287.91 287.91.0 0 0 19.78 95.22q-22 2.46-47.72 5.42c-15.48 1.66-33 3.52-51 5.45s-36.34 3.93-53.46 5.86C69.26 940.36 40 944 29.1 945.73c-8.56 1.42-7.79 1.66-2.37 1.33s15.54-1.26 25.61-2.18c20.15-1.85 40.27-3.58 23.19-.82q76.39-9.3 152.26-16.58 16-1.5 32.07-2.91c0 .1.07.2.1.29.75 2 1.51 3.91 2.27 5.78.08.22.15.46.23.68-60.36 5.45-120.6 12.26-180.71 20zm280.7 91.78h0c.05.0-2.93-2.93-3.51-3.53-1.61-1.64-3.2-3.32-4.78-5q-5.71-6.13-11.1-12.55c-5.12-6.07-10-12.37-14.64-18.81 1.38 1.43 2.62 2.64 3.62 3.58 3.44 3.21 4.46 3.49 2.31.28s-7.38-10-15.35-21.77a320.81 320.81.0 0 0 21.23 26.31c4 4.47 8.25 8.81 12.49 12.81 2.11 2 4.22 3.91 6.31 5.68 1.05.9 2.08 1.76 3.1 2.58.5.39 1 .78 1.5 1.18l.73.55.6.45a.15.15.0 0 0 0-.07c-.83-.65-1.92-1.53-3-2.45s-2.28-2-3.49-3c-2.41-2.17-4.94-4.57-7.42-7-4.95-4.87-9.61-9.93-12.84-13.49q6 6.56 12.32 12.7c4.21 4.07 8.62 8 13 11.58-1.19-1.36-2.55-2.93-4-4.56-6.35-5.85-12.52-12.19-18.73-18.92 5.28 5.72 10.82 11.25 16.57 16.41-3.81-4.38-8.14-9.52-12.72-15.29A270.8 270.8.0 0 1 321.45 979c-3.16-5-6-9.82-8.43-14.12l-5.13-9.14c44-3.62 88.05-6.46 132.15-8.2-18.17 37.11-43.65 70.58-70.6 102.11-2.37-2.17-4.7-4.39-7-6.62zM681.61 924.45h0c-66-6.07-132.27-7.48-198.52-6.06.69-2.14 1.36-4.3 2-6.46l7.42-.16c12.56-.13 25.11-.32 37.64-.27 25.07.0 50.1.37 75.05 1.43 6.24.19 12.46.54 18.69.86l9.34.49c3.11.16 6.21.4 9.32.6l9.31.63 2.33.16 4.06.31 4.81.39 4.76.41 13.27 1.13C681.26 920.1 681.42 922.28 681.61 924.45z" fill="#262324" fill-rule="evenodd"/></g></g></svg>