<svg xmlns="http://www.w3.org/2000/svg" width="759.39" height="1080" viewBox="0 0 759.39 1080"><g id="Слой_2" data-name="Слой 2"><g id="blood_84554988"><g id="blood_84554988-2" data-name="blood_84554988"><path d="M379.69 37.4s357 465.77 357 662.91H22.75C22.75 503.17 379.69 37.4 379.69 37.4m0-37.4L361.64 23.56c-.9 1.17-90.89 118.88-179.64 259.21C61.23 473.7.0 614.18.0 700.31v22.75H759.39V700.31c0-86.13-61.24-226.61-182-417.54-88.76-140.33-178.74-258-179.64-259.21L379.69.0z" fill="#212121"/><path d="M379.69 1057.25c197.14.0 357-159.81 357-356.94H22.75C22.75 897.44 182.56 1057.25 379.69 1057.25z" fill="#b71c1c"/><path d="M379.69 700.31s-132.84-121-212.57-121S22.75 633.5 22.75 700.31s64.64 121 144.37 121 212.57-121 212.57-121z" fill="#ef5350"/><path d="M379.69 700.31s132.84-121 212.58-121 144.37 54.15 144.37 121-64.64 121-144.37 121S379.69 700.31 379.69 700.31z" fill="#b71c1c"/><path d="M592.27 579.35c79.73.0 144.37 54.15 144.37 121 0 197.13-159.81 356.94-356.95 356.94S22.75 897.44 22.75 700.31c0-66.81 64.64-121 144.37-121s212.57 121 212.57 121 132.84-121 212.58-121m0-22.75c-37.83.0-88 21.73-149.24 64.6-26.53 18.58-49.23 37-63.34 48.95-14.1-11.95-36.8-30.37-63.33-48.95-61.2-42.87-111.41-64.6-149.24-64.6-43.9.0-85.34 14.47-116.7 40.74C17.91 624.58.0 661.15.0 700.31a379.79 379.79.0 0 0 729.54 147.8 377.44 377.44.0 0 0 29.85-147.8c0-39.16-17.91-75.73-50.43-103-31.35-26.27-72.8-40.74-116.69-40.74z" fill="#212121"/><path d="M339.5 985.67A218.75 218.75.0 0 0 653.31 768.31z" fill="#ffcdd2"/><path d="M152.33 464.61l-9-4.42C222.31 300.26 365.85 112.3 367.29 110.42l7.94 6.09C373.79 118.38 230.84 305.58 152.33 464.61z" fill="#212121"/></g></g></g></svg>