<svg xmlns="http://www.w3.org/2000/svg" width="455.34" height="1080" viewBox="0 0 455.34 1080"><g id="Слой_2" data-name="Слой 2"><g id="war89_376394698"><g id="war89_376394698-2" data-name="war89_376394698"><path d="M21.63 564.22c-1.24-11-3-21.48-3.51-32-1.89-41 3.85-81.06 15.65-120.27Q45 374.52 56.85 337.29c7.53-23.82 14.52-47.85 23.3-71.2 6.71-17.85 16.49-34.23 35.35-42.49.52-.23.83-.94 1.55-1.8-1.52-1-3.29-1.6-4.19-2.85a19.37 19.37.0 0 1-3.46-7.15c-.13-.62 3.41-2.36 5.44-2.93 4.44-1.22 5.45-4.35 2.71-9.68-2.18-4.25-4.76-8.32-6.66-12.69-7.33-16.84-9.66-34.69-6-52.44 5.22-25.51 11.72-50.8 18.63-75.93 3.17-11.57 9.18-22.09 19.7-29.2 1.55-1 2.42-3 3.74-4.47 4.57-4.92 8.7-10.41 13.91-14.54 16.33-13 28.69-13.12 45.64-1 3.64 2.6 6.12 3.6 10.82 1.19 6.67-3.42 13.92-3.4 20.8 1.69 5.79 4.29 12.56 7.23 18.72 11.05a9.33 9.33.0 0 1 3.4 4.52c7.61 20.54 13.41 41 8.13 63.59-3.52 15.11-3.18 31.07-5.48 46.52-4.07 27.27-12.88 53.15-25.65 79.09 2.27.0 4.63.63 5.2-.11 3.1-4 6.23-1.74 9.28-.42 9.12 3.92 18 8.55 27.32 11.83 14 4.93 27.38 10.55 35.84 23.52s12 27.88 14.34 43c3.85 25.15 8 50.27 10.8 75.54 1.83 16.57 1.59 33.39 1.93 50.1.07 3.73.7 6.09 4.42 7.57 31.48 12.49 46.39 38.08 53.39 69.25 3.07 13.72 4.45 27.84 6.23 41.82.59 4.63 2.58 4.82 6.56 4.5 8.33-.67 17-1.85 25-.33 6 1.12 11.28 6 16.63 9.62 1 .67 1.27 3.18 1.1 4.76-1.29 12.3-2.14 24.69-4.32 36.84-5.7 31.85-12.5 63.5-17.85 95.4-2.72 16.26-3.07 32.9-4.88 49.32-.61 5.53-5.35 34.44-10.24 39.87-2.75 3.06-42.06 17.81-60.53 16.72-18.08-1.07-36.52-1-54.36-11 .64 8.33 1.05 15.79 1.8 23.22 2.71 26.61 5.44 53.22 8.35 79.81 2 17.9 4.58 35.74 6.29 53.66 3 31.07-1.48 60.75-17.93 87.94a66.54 66.54.0 0 0-3 6.31c3 2.4 6.18 4.62 9 7.19 11.72 10.62 9.68 21.13-5 26.42-18.66 6.73-37.75 9.91-57.63 7.76-9.51-1-13.54-8.14-8.86-17.44-6.52 1.4-12.46 4.78-18.68 3.81 9.61-12.14 19.62-23 27.57-35.18 21.34-32.75 40-66.83 43.29-106.94.81-9.74.86-19.54 1.65-29.29.48-6 1.64-6.68 8-6.47-1.55-9.91-3.15-19.73-4.6-29.57-5-34.26-8.22-68.67-7.86-103.33.26-24.34-5-47.88-9.34-71.63-5.49-30.1-9.91-60.39-14.61-90.63-.55-3.6-.85-7.72.34-11 4.53-12.65-3.15-22.07-8.78-32.47.0 2.3-.35 4.67.07 6.89 1 5.34 2.48 10.59 3.52 15.92.25 1.28.0 3.5-.82 3.92a4.29 4.29.0 0 1-4.08-.63c-3.68-4.18-7.86-8.24-10.37-13.11-8.59-16.71-7.94-34.89-7.36-53 .13-4-.69-8.1-1.1-12.14-.45-4.52-1.38-8.07 2.86-12.7 4-4.32 3.82-12.4 5.49-18.83l-1.56-.89c-5.87 5.59-11.46 11.51-17.69 16.67a132.47 132.47.0 0 1-16.67 11.18c-1.61 1-5.05 1.37-6 .42a7.37 7.37.0 0 1-1.44-6.42c1.87-4.8 4-9.71 7.17-13.74 9.62-12.35 19.75-24.29 29.66-36.41.94-1.15 1.72-2.44 3.1-4.42-2-.27-3.33-.73-4.62-.6-11.66 1.2-23.3 2.65-35 3.68-3.85.34-5.68 1.76-5.27 5.6.86 7.88 1.6 15.78 2.8 23.61.51 3.34-3.43 14.59-6.54 15.21a6.33 6.33.0 0 1-5.39-2.23c-2-3.26-3.91-7-4.49-10.69-1.45-9.43-2-19-3.28-28.45-.3-2.22-1.54-5.58-3.15-6.16-12.81-4.55-24.56-10.73-35.62-21.83-1.11 8.35-2.87 15.13-2.75 21.88.41 22 2.07 43.89 2.19 65.84.14 24.28 2.91 48.78-3.87 72.7a47.37 47.37.0 0 1-2.62 6.06l-2.65-.31c0-2.9-.35-5.86.06-8.7 3-20.77 4.29-41.54 1.13-62.42-2.47-16.34-5-32.68-7-49.07-2.51-20.22-3-40.34 4.22-60 1-2.65.14-6.42-.9-9.3-6.15-17.13-6.65-34.63.55-51 4.17-9.49 5.77-18.73 6.42-28.61.16-2.6.26-5.4 1.3-7.7 4.77-10.53 4-20.28-2.23-30.13-2.6-4.13-3.58-9.29-5.18-14-1.9-5.68-5.41-6.95-11-4.56-7 3-9.42 9.18-11.61 15.57-11.23 32.67-22.88 65.21-33.44 98.09-10.22 31.84-20.78 63.69-28.5 96.17-8.68 36.52-10.91 74-5.29 111.39 1.48 9.81 5.13 19.29 7.75 28.94.76 2.75 1.41 5.54 2.11 8.31l-2.53 1.47L32 592.77h-1.81c0 9 .23 18-.05 27C29.17 649.91 37 678 49.22 705.4c6.07 13.59 9.58 28.32 14.59 42.41 1 2.87 3.25 5.48 5.43 7.71 6.53 6.7 14.6 13.05 14.44 23.07-.18 10.84 3.49 21.62-.58 32.63C76.93 827.88 73 845.45 65.86 861.64 58.11 879.27 48 895.91 38.54 912.75c-13.26 23.57-23.29 47.74-17.43 75.68.75 3.55 1.58 6 6.22 5.49 17.64-2 32.24 5 45.26 16.13 4.62 4 9 8.19 13.59 12.19 5.1 4.46 10 8.47 16.81 11.21 7.55 3 14.47 7.85 22.61 10.51 5.25 1.71 9.4 6.73 14.15 10.11a19.34 19.34.0 0 0 5.63 2.87c12.74 3.74 18.1 6.81 4.48 7.37-.14.64-.29 1.28-.43 1.91 4.23 1.36 8.65 2.33 12.61 4.25 1.86.9 4 3.74 3.83 5.54-.11 1.52-3.56 4.24-5.09 4-19-3.33-38.83.82-57.27-6.85-6.19-2.57-12.66-4.48-18.81-7.13-7.23-3.11-11.4-14.54-7.91-21.6 2.55-5.17 2.6-8.79-3-12.26-5.89-3.62-11-8.47-16.44-12.85-8.89-7.2-18.29-12.95-30-14.79-18.76-2.94-20.62-7.07-24.77-26-3.14-14.3-3.86-29.12.7-43.24 3.18-9.84 8.25-19.09 12.76-28.46 9.22-19.16 20.38-37.59 27.51-57.48 8.21-22.88 11.72-47.2 12.09-71.73.13-8.49-1.68-16.08-7.6-22.85-5-5.66-8.44-12.22-7.31-20.71.48-3.64-2-7.88-3.66-11.58-17.76-38.77-29.65-79-29.21-122 .1-9.42 2.6-18.87 4.54-28.2C13.33 567.59 15.16 562.79 21.63 564.22zm310.16-88.74c1.8-9.46 3.38-17.75 5-26 .13-.64.61-1.4.41-1.88-.69-1.55-1.25-3.74-2.52-4.38-8.9-4.48-25.3.66-30.28 9-1 1.65-3.23 4.1-4.31 3.83a8 8 0 0 1-4.92-4.34c-.67-1.7-.06-4.53 1.05-6.13 1.64-2.38 4.21-4.11 6.39-6.12-3.37.65-5.85 2.43-8.23 4.32-3.87 3.07-6.94 1-9.78-1.58-3.14-2.88-.83-4.79 1.33-6.89 12.66-12.33 28.1-14.51 44.74-12.44 2.21.28 4.42.49 7.1.79-3.61-27.53-12.05-84.09-13.24-84.47-4.05-1.28-10.76-54.64-13.48-72-2.89-18.49-27.63-30.65-43.18-30.75 3.94 10.12 9.59 20.23 11.71 31a525.79 525.79.0 0 1 8.39 61.2c1.57 20.59.83 41.29-5.46 61.39-1.51 4.83-4.35 6.5-10.27 6.34.7-5.41 1.31-10.46 2-15.5 5.54-39.87 2.53-79-10.28-117.23-2.71-8.1-7.55-15.57-12-23-2.2-3.65-5.66-3.49-7.21 1-3.27 9.45-11.44 13.06-19.58 16.22-10.85 4.21-21.11 1-31.42-3.41-20.73-8.82-37.34-22-47.92-42.19a23.75 23.75.0 0 0-2.83-3.45q-1 42.12 18.12 78.11c8 15 19.58 27.37 35.65 34.14 17.39 7.33 35.51 11.57 54.65 9.95 1.63-.14 3.41 1.46 5.12 2.26-1.41 1.64-2.53 3.76-4.3 4.79-1.55.9-3.81.83-5.75.77-23.32-.74-45.86-4.85-66.4-16.55-7.25-4.12-14-9.15-21.83-14.34a70 70 0 0 0-.49 7.09c1.07 25.84 1.85 51.7 3.44 77.51 1 16.16 2.5 17.29 18.24 21.19 30.67 7.59 60.49 2.85 89.81-6.79 4-1.33 7.26-5 10.92-7.5 2.66-1.81 5.24-4.15 8.22-5 1.94-.53 5.79.67 6.49 2.17a8.36 8.36.0 0 1-1 7.42 26.43 26.43.0 0 1-8.91 6.41c-7.06 3.33-14.41 6.05-21.56 9.21-1.65.73-3.88 1.94-4.3 3.37-2.3 7.89-4.13 15.93-6.34 24.81 4.76 3.31 6.93 9.56 6.19 16.64-1.11 10.58-2.33 21.18-4.27 31.63a38 38 0 0 0 3.14 24.64c5.87 12.11 11.39 24.44 16.3 37 6.54 16.69 6.24 16.64 23.67 17.46 5.58.26 7.95-1.74 7.9-7.58-4.71-.54-9.28-.74-13.69-1.69a13.67 13.67.0 0 1-6.48-3.64c-1.09-1.1-.92-3.47-1.31-5.26 1.59-.24 3.24-.86 4.77-.66 31.89 4.19 63.85 2.49 95.8 1.42 1.61-.05 4.37-.73 4.59-1.62 1.41-5.57 6.8-10 4.16-16.83-1.84-4.8-2.13-10.19-3.19-15.29-4-19.61-8.12-39.21-17.41-57.21-4.61-8.93-10.7-16.52-19.51-22.12-.29 3.4-.52 6.12-.82 9.73L343.48 449c-2.82 16.05-9.14 30.56-7.77 46.58.78 9.19.86 18.43-5.2 26.21-1.27 1.62-3.8 2.26-5.75 3.35-.29-2.13-1.2-4.4-.77-6.37 3.24-14.71 1.17-28.7-6.51-41.46-2.17-3.61-7-5.66-10.78-8.25-2.29-1.57-5.22-2.39-7.13-4.3-2.32-2.33-1.93-5.17 1.86-5.53 8.18-.76 16.24-.25 22.36 6.32C326.41 468.32 328.63 471.5 331.79 475.48zM399 640l-2.77-.4c0-3.22-.74-6.65.12-9.62 4.9-17.1 4.13-34.41 2.57-51.78-.58-6.48-3.34-7.72-8.91-4.07-2.51 1.65-4.84 4.3-7.56 4.79-16.4 2.94-32.8 6.24-49.36 7.71-12.69 1.12-25.61-.28-38.43-.56-5-.11-7.71 1.37-6.88 7.3 2.21 15.7 4.43 31.42 5.8 47.21 2.23 25.77 3.69 51.6 5.69 77.38 1 12.77 1.68 25.63 3.88 38.21 3.2 18.32 5.63 19.57 24.1 21.56C349 780 369 774.09 389 766.87c10.58-3.83 10.58-3.77 10.84-15.37.06-2.61.18-5.22.44-7.81 3.19-31.52 6.2-63.07 9.69-94.56 2.05-18.55 4.83-37 7.37-55.52 1.19-8.67 2.58-17.31 3.89-26-10.51-.39-11.4 1-11.58 10-.29 14.73-.9 29.5-2.34 44.15C406.61 628.42 404.9 635.45 399 640zM212 245.59c-.33-5.68 1.06-9.67 8.11-10.29 9.37-.82 14.95-11.75 12.37-21.05a58.31 58.31.0 0 1-2.2-18.45c.55-9.73 2.46-19.39 3.73-29.08.22-1.68.81-3.88.0-5-5.69-8.33-3.55-17.56-3.75-26.59-.06-2.86-1.92-5.68-2.92-8.53-1.62-4.63-4.25-9.2-4.59-13.92-.54-7.54.26-15.2.85-22.78.72-9.44-1.93-12.94-11.34-14.43a97.82 97.82.0 0 0-42.57 2.87c-2.94.84-5.07 4.22-7.89 5.88a16.73 16.73.0 0 1-7.43 2.42c-1.61.06-3.3-1.79-6.83-3.91-.9 6.35-2.18 11.66-2.31 17-.34 14.15 11.08 63.11 13.94 69.25 11.54 24.82 25.92 37.54 55.34 37.62 1.9.0 3.8 2.37 5.7 3.64-1.64 1.57-3.36 4.55-4.91 4.46-8.84-.49-17.89-.73-26.37-3-7.74-2-14.84-6.49-22.2-9.87C169.85 220.53 196.22 246.3 212 245.59zM224.16 64.34c-1-5.59-1.54-10.67-2.79-15.57-3.35-13.13-8.18-25.25-21.82-31.44-6.17-2.81-12.08-2.94-17.16 1.25a162.63 162.63.0 0 0-18.86 17.87c-6.5 7.39-8.78 16.88-11.47 26.77C184 52.3 195.15 52.46 224.16 64.34zm-93 11.54h-2.06c-15 31.61-20.91 92.57-10.19 104.08 1.11-12.88 2.55-25.85 3.24-38.85C122.69 131.33 131.18 94.43 131.18 75.88zm282 673 2.94.83c1.87-4.51 5.49-9.07 5.35-13.51-1.34-42.7 5.63-84.51 12.41-126.37.77-4.76.31-14.91-.49-15.2-1.47 3-3.9 5.84-4.27 8.95q-7.5 62.79-14.46 125.65C414 735.71 413.7 742.29 413.22 748.84zm-151.9 285.78c7.52-.83 14.35-1.52 21.16-2.4a3.83 3.83.0 0 0 2.49-1.78c7.33-13.72 10.6-28.51 10.92-44.2C284.54 1002.12 273.19 1018 261.32 1034.62z" fill="#fcfcfc"/><path d="M135.28 1028.61c.61-5.92.87-11.9 1.88-17.75 3.81-22.09 7.53-44.21 11.93-66.2 3.13-15.6 7.32-31 11-46.5 6.27-26.59 12.43-53.2 18.9-79.74.58-2.39 3.07-4.31 4.68-6.45 2.65 2.49 7 4.64 7.61 7.53a61.81 61.81.0 0 1 .41 19.44q-4.2 32.28-9.43 64.42c-4.56 28.18-15.82 54.41-24.63 81.34-4.42 13.51-9.84 26.71-15.09 39.94-.8 2-3.1 3.46-4.7 5.17z" fill="#fcfcfc"/><path d="M61 619.37c22.7 5.22 42.27-1 61.1-14.54 1.31 2.8 2.65 5.7 4.4 9.45.19-3.94 4.67-4.92 5-2 2.29 22.47 11 42.88 20.44 62.94 3.73 7.9 2.56 14.68-1.68 21.5-2.74 4.41-5.66 8.73-8.74 12.9-2.71 3.67-11 4.93-14.07 1.71-1.59-1.67-1.55-4.9-2.24-7.43a58.8 58.8.0 0 0 6.06-1.64 62.23 62.23.0 0 0 6-2.84c.15-.08.17-.39.27-.58 5.58-11.27 5.34-11-3.63-19.86s-14.36-19-9.68-32.26c3.7-10.46-1-19.83-4.28-29.73l-28 13.56c2 8.54 4.7 17 5.72 25.62 1 8.41.21 17 .21 25.54l-1.64.21a59.88 59.88.0 0 1-1.42-6.45c-.87-8-1.17-16.07-2.53-24-.9-5.25-3-10.36-5-15.33-1.38-3.38-4-5-8.23-4.8-3.78.2-7.79-.87-11.44-2.13C63.54 627.87 60.27 625.4 61 619.37z" fill="#fcfcfc"/><path d="M96.36 691l25.72 15.37C107.36 707.35 94.58 700.41 96.36 691z" fill="#fcfcfc"/><path d="M108.4 674.8c-.26-2.28-1.32-6.24-.64-6.56 3-1.47 6.6-1.91 10-2.71.39.88.77 1.77 1.15 2.66l-8.23 7.09z" fill="#fcfcfc"/><path d="M324.27 530.55a85.73 85.73.0 0 1-9.48-2c-18.37-6-33.41-16.46-43-33.59-6.21-11.06-4.52-24.92 3.21-32.69 4-4.06 8.43-5.29 13.35-1.92 3.47 2.38 4.76 5.28 1.86 9.32-9.67 13.49-9.09 24.05 2.38 36a113.76 113.76.0 0 0 15.32 13.06c5.22 3.77 11 6.75 16.56 10.08C324.4 529.39 324.34 530 324.27 530.55z" fill="#fcfcfc"/></g></g></g></svg>