<svg xmlns="http://www.w3.org/2000/svg" width="941.85" height="1080" viewBox="0 0 941.85 1080"><g id="Слой_2" data-name="Слой 2"><g id="war110_364541070"><g id="war110_364541070-2" data-name="war110_364541070"><g><g><path d="M383.35 597.06 535.21 722.5s-10.78 263.28-9.62 307.07L413 873.27z" fill="#ffc200"/><path d="M733.13 674.2 717.19 962.33c-97.13 34.47-191.6 67.24-191.6 67.24-1.16-43.79 9.62-307.07 9.62-307.07C582.71 712.54 659.36 693.35 733.13 674.2z" fill="#ffc200"/><path d="M776.09 663 764.83 945.36c-15.68 5.61-31.7 11.31-47.64 17L733.13 674.2C747.64 670.44 762 666.68 776.09 663z" fill="#fff"/><path d="M938.48 619.51 908.05 892.38c-27.21 11-82.73 31.34-143.22 53L776.09 663C864.26 639.82 938.48 619.51 938.48 619.51z" fill="#ffc200"/><path d="M933.63 617.1 806.89 578.17 762.59 531.75 933.63 617.1z" fill="#ffc200"/><path d="M938.48 619.51S864.26 639.82 776.09 663l.12-2.94-74.38-60.1 105.06-21.77 126.74 38.92z" fill="#ffc200"/><path d="M762.59 531.75 806.89 578.17 701.83 599.94 641.37 551.08 762.59 531.75z" fill="#ffc200"/><path d="M776.21 660l-.12 2.94c-14.05 3.7-28.45 7.46-43 11.22L662 609.64l-46.57-42.26c3.78-4.16 7.76-8.83 11.78-14l14.16-2.25 60.46 48.86z" fill="#fff"/><path d="M662 609.64l71.13 64.56c-73.77 19.15-150.42 38.34-197.92 48.3L517 646.5l143-34.65z" fill="#ffc200"/><path d="M662 609.64l-2 2.21L517 646.5l-25.3 6.14L383.35 597.06l97.95-16.48c9.07 4.38 18.32 7.79 27 9.21v.17c5.91 23.36 24.74 28.82 43.54 24.37a68.45 68.45.0 0 0 23.57-10.84A109.35 109.35.0 0 0 590 590.79c1.7-1.22 12.39-9.13 25.42-23.41z" fill="#ffc200"/><path d="M516.99 646.5 535.21 722.5 383.35 597.06 491.69 652.64 516.99 646.5z" fill="#ffc200"/><path d="M123.91 945.09c20.16-.15 39.09 1.9 53 7.95-32.08 1.15-46.82 40-46.82 40s-60.68-.68-70.79-4.65S42.48 978.88 31 985.46s-26.25.0-26.25.0c1.23-9.72 3.48-21 7.63-26.83C23.64 957.18 54 950.79 87 947.33c4.32-.46 8.69-.87 13-1.19C108.08 945.52 116.07 945.14 123.91 945.09z" fill="#ffc200"/><path d="M184.71 957.14h0c-5.22 20.82-9.87 38.2-13.06 49.92h0c-19.54 1.72-42.64 1.22-59.94.81-38.21-.9-61.13-3.37-65.18-8.76s-12.81-1.35-14.16 4.72a142.32 142.32.0 0 1-29-.68s.19-8.1 1.39-17.69c0 0 14.79 6.58 26.25.0s18.21-1.05 28.32 2.93S130.12 993 130.12 993s14.74-38.85 46.82-40A67.34 67.34.0 0 1 184.71 957.14z" fill="#fff"/><path d="M389.75 1045.65c8 10.36 4.18 21.84-11.95 25-18 3.53-47.3 7-91.07 5.69-71.9-2.11-71.53-15.71-79.07-15.75s-10.06 4.87-11 6.17-24.7-3-34.46-5.55c0 0 1.12-7.81 2.88-16.75.0.0 22.59 4.26 31.36 3.33s15.84-3.45 42.26 5 70 4.72 70 4.72c10.6-36.83 52-36.81 53.16-36.8A102.33 102.33.0 0 1 389.75 1045.65z" fill="#fff"/><path d="M317.35 1005.43c18.25 2.43 32.86 8.21 44.45 15.28-1.2.0-42.56.0-53.16 36.8.0.0-43.58 3.71-70-4.72s-33.5-5.91-42.26-5-31.36-3.33-31.36-3.33c1.64-8.17 3.79-17.33 6.11-22.3 12.44-3.55 51.86-14 93.64-17.4a298.08 298.08.0 0 1 29.84-1A202.22 202.22.0 0 1 317.35 1005.43z" fill="#ffc200"/><path d="M109.26 465l-2-20-40.93-3.46c0-12.71.49-27.42 1-48.22 34.8 4 144.21 16.07 226.3 20.17C297.42 524 364.17 668.7 363.17 711.81c-1.55 67.87-98.39 293-98.39 293-41.78 3.36-81.2 13.85-93.64 17.4-2.61.74-4 1.17-4 1.17s1.71-5.93 4.53-16.29h0c3.19-11.72 7.84-29.1 13.06-49.92 20.23-80.71 49.1-213 36.34-266.58-44.13 98.29-121 255.57-121 255.57h0c-4.36.32-8.73.73-13 1.19-33.08 3.46-63.4 9.85-74.65 11.3-3.26.41-4.93.41-4.58-.19 2.69-4.74 29.1-185.79 91.11-266.7.0-15.1-10.06-69.09-16.38-107.25l36-30.8C116.25 533.59 111.85 490.44 109.26 465zm119.49 12.31c-.81-10.7-1.24-17.94-1.24-17.94-33.19 1.1-100.12-8.92-100.12-8.92.71 5.38 1.87 12 3.73 20.05 5.14 22.4 15.62 55.83 36.42 104.39l20.4 9.65L239.52 560C234.45 544.83 230.61 501.9 228.75 477.26z" fill="#94cea8"/><path d="M118.5 553.69l-36 30.8c-1.11-6.62-2.09-12.77-2.89-18.15-8.57-57.73-12-81.93-13-105.39 2.46.66 18.07 4.49 42.59 4C111.85 490.44 116.25 533.59 118.5 553.69z" fill="#94cea8"/><path d="M107.25 445l2 20c-24.52.49-40.13-3.34-42.59-4-.27-6.33-.38-12.58-.35-19.43z" fill="#94cea8"/><path d="M227.51 459.32s.43 7.24 1.24 17.94c-40.19 4.21-96.89-6.67-97.63-6.81-1.86-8.05-3-14.67-3.73-20.05C127.39 450.4 194.32 460.42 227.51 459.32z" fill="#94cea8"/><path d="M239.52 560l-51.58 24.45-20.4-9.65c-20.8-48.56-31.28-82-36.42-104.39.74.14 57.44 11 97.63 6.81C230.61 501.9 234.45 544.83 239.52 560z" fill="#94cea8"/><path d="M359.57 345c12.26-30 32.9-45.27 32.9-45.27 29.1 24.27 61.14 25.77 76.16 24.84v.2l-21.58 44.67v0l-24.73 51.21 82.94 100.82c15.42-13.19 27.73-10.34 28.21-10.22-7.56 8.95-11.61 16.84-10.23 19.09 2 3.32 12.23 6.56 22.07 10.06 10.36 3.69 20.32 7.68 19.91 12.4-.81 9.21-10.31 10.58-10.31 10.58.27 10.25-10 16.67-15.64 19.39a34.44 34.44.0 0 1-3.53 1.53 26 26 0 0 1-6.73 3.93c-6.12 2.47-13.2 2.74-20.75 1.5-8.66-1.42-17.91-4.83-27-9.21-29.27-14.09-56.76-38.24-56.76-38.24C341.81 451.32 343.22 385.08 359.57 345z" fill="#fff"/><path d="M602.68 495.25a44.11 44.11.0 0 0-7.63 1.48c-25.51 7.19-49.72 43.73-49.72 43.73-9.84-3.5-20.05-6.74-22.07-10.06-1.38-2.25 2.67-10.14 10.23-19.09h0c15.26-18 44.87-40.41 73.37-29.62 7.63 2.88 12.87 7.59 16.11 13.52A34.65 34.65.0 0 1 626.87 508C626.43 506.79 621 493.42 602.68 495.25z" fill="#fff"/><path d="M590 590.79a109.35 109.35.0 0 1-14.65 12.7 68.45 68.45.0 0 1-23.57 10.84c-29.87-5.11-22.76-26-22.76-26v0a26 26 0 0 0 6.73-3.93 34.44 34.44.0 0 0 3.53-1.53c6 14.23 32 2 46.7-20.2 28.34-42.91 17.23-66.29 16.69-67.38 18.35-1.83 23.75 11.54 24.19 12.72C629.8 532.76 612.46 567.77 590 590.79z" fill="#fff"/><path d="M699.15 447c.57.65 14.51 16.77 9.05 22.46-3.67 3.82-16.79-4.27-34.44-15.15 16.54-36.18 38.47-58.11 59.18-59.25a185.16 185.16.0 0 1 18.78 9.17c6.61 3.82 10.87 7.4 10.87 10.26.0 12.74-30.35 1.14-30.35 1.14s23 26 13.07 38.92S7e2 447.49 699.15 447z" fill="#fff"/><path d="M732.94 395.08c-5.1-2.2-10.45-4.37-15.75-6.42l22.14-7.19 36.88 10.14-24.49 12.64A185.16 185.16.0 0 0 732.94 395.08z" fill="#fff"/><path d="M626.87 508A34.65 34.65.0 0 0 623 495.21h0s15.39-14.55 27.52-53.69c1.12-3.62 2.22-7.45 3.27-11.49 11.35-43.66 36-50.84 36.74-51h0c7.21 2.47 16.81 5.87 26.64 9.67 5.3 2 10.65 4.22 15.75 6.42-20.71 1.14-42.64 23.07-59.18 59.25a256.78 256.78.0 0 0-12.31 32.95 206 206 0 0 1-34.24 66.05c-4 5.22-8 9.89-11.78 14-13 14.28-23.72 22.19-25.42 23.41C612.46 567.77 629.8 532.76 626.87 508z" fill="#fff"/><path d="M708.25 359.25c22.63 5.35-10.18 16.88-30.07 15.61.0.0 4.91 1.57 12.35 4.13-.77.2-25.39 7.38-36.74 51-1 4-2.15 7.87-3.27 11.49-9-5.17-17.21-9.47-23.22-11.49C605 422.5 511 431.65 478.82 424.63c-31.88-6.94-31.75-54.1-31.75-55.13v0l21.58-44.67v-.2a68 68 0 0 0 8.69-1s3.45-5.55 9-14.7h.07s11.38.61 26.83-3.64c0 0 2.31 60.25 2 64.05-.06.05-.08.07-.07.11s.05.1.07-.11C519 366.45 685.93 354 708.25 359.25z" fill="#fff"/><path d="M513.24 305.32c-15.45 4.25-26.83 3.64-26.83 3.64h-.07c10.53-17.27 28.63-47.38 45.25-77l-9.31 70.47C519.15 303.57 516.13 304.53 513.24 305.32z" fill="#ff3600"/><path d="M392.47 299.77s-20.64 15.29-32.9 45.27c-41.6 37.46-39.92 69.47-39.92 69.47-8.26-.23-17-.6-26-1-82.09-4.1-191.5-16.18-226.3-20.17L56.2 392S82.47 157 304.79 89.56C446.21 46.67 549.68 86.3 549.68 86.3s-6.73 4.16-3.59 26.79c8.68 4.84 19 13.31 22.44 25.58a32.79 32.79.0 0 1 .74 13.92c-2 13.08-18.92 45.9-37.68 79.34-16.62 29.61-34.72 59.72-45.25 77-5.57 9.15-9 14.7-9 14.7a68 68 0 0 1-8.69 1C453.61 325.54 421.57 324 392.47 299.77z" fill="#ff3600"/><g><path d="M701.75 168.8l-3.29 10.31c-13.75-25.69-50.65-54.7-60.85-71.48a18.65 18.65.0 0 1-2.47-5.65c-3.17-15.19.0-26.65.0-26.65l5.78 6.43 71.44-2.64s6.06 36.61 20.27 55.45a79.59 79.59.0 0 1-4.3 7.78A82.32 82.32.0 0 1 701.75 168.8z" fill="#fff"/><path d="M622.49 127.16c10.8-6.87 15.12-19.53 15.12-19.53 10.2 16.78 47.1 45.79 60.85 71.48.0.0-7.91 14.71-39.83 10.81-56.84-6.92-74.33-56-74.33-56a81.69 81.69.0 0 1-5.62-16.14l.42-.11s18.79 17.27 35.46 13A26.88 26.88.0 0 0 622.49 127.16z" fill="#ffc200"/><path d="M635.14 46.18c19.39 5.74.0 29.15.0 29.15s-3.17 11.46.0 26.65a18.65 18.65.0 0 0 2.47 5.65s-4.32 12.66-15.12 19.53a26.88 26.88.0 0 1-7.93 3.47c-16.67 4.3-35.46-13-35.46-13L600.89 76.4c.67-.33 1.37-.68 2.07-1.07C6e2 67.4 615.75 40.45 635.14 46.18z" fill="#fff"/><path d="M600.89 76.4 579.1 117.66l-.42.11a81.69 81.69.0 0 0 5.62 16.14l-15.77 4.76c-3.43-12.27-13.76-20.74-22.44-25.58-3.14-22.63 3.58-26.8 3.58-26.8l29.43-8.22S587.08 83.07 600.89 76.4z" fill="#fff"/></g><path d="M732.63 134.57c-14.21-18.84-20.27-55.45-20.27-55.45l-71.44 2.65-5.78-6.43s19.39-23.41.0-29.16S6e2 67.41 603 75.34c-15.08 8.23-23.87 2.73-23.87 2.73S584.78 44 599.34 28.38c41.25-44.15 78.84-16.69 78.84-16.69C719.94-3.6 765.38 74 764 101.24s6.33 47.3 6.33 47.3H756l8.41 12c-14.21 5-36.07-18.17-36.07-18.17A79.59 79.59.0 0 0 732.63 134.57z" fill="#0c0852"/><path d="M527.42 590.51s-3 19 16.86 23.37c0 0-16.71 1.29-26-7.36s-8.21-14.47-8.21-14.47S522.79 591.81 527.42 590.51z" fill="#fff"/><path d="M554.67 570.18l29.91-5.5s-14.83 19.37-27.79 22.76-16.39-5.16-16.39-5.16S553 577.23 554.67 570.18z" fill="#ffc200"/></g><g><path d="M701.76 172.18a3.37 3.37.0 0 1-1.78-6.24 79.4 79.4.0 0 0 25.49-25.37 80.78 80.78.0 0 0 4.13-7.47 3.37 3.37.0 0 1 6.06 2.94 83.83 83.83.0 0 1-4.48 8.11 86.18 86.18.0 0 1-27.66 27.53A3.34 3.34.0 0 1 701.76 172.18z" fill="#0c0852"/><path d="M584.31 137.28a3.38 3.38.0 0 1-3.06-1.93 85.91 85.91.0 0 1-7.8-44.68 3.37 3.37.0 1 1 6.71.64 78.93 78.93.0 0 0-.33 9.22 79.39 79.39.0 0 0 7.52 31.94 3.37 3.37.0 0 1-1.61 4.49A3.31 3.31.0 0 1 584.31 137.28z" fill="#0c0852"/><path d="M696.16 142a3.38 3.38.0 0 1-3.26-4.25c.22-.82 4.89-19.08-10.37-26.54a3.37 3.37.0 1 1 3-6.06c16.26 8 16.21 26 13.92 34.37A3.37 3.37.0 0 1 696.16 142z" fill="#0c0852"/><path d="M686.33 137.28a3.37 3.37.0 0 1-.61-6.68l1.38-.26a3.37 3.37.0 1 1 1.23 6.63l-1.38.26A4.21 4.21.0 0 1 686.33 137.28z" fill="#0c0852"/><path d="M760 164.61c-6 0-13-2.85-20.93-8.54a99.56 99.56.0 0 1-13.21-11.41 3.37 3.37.0 0 1 4.91-4.62c4.81 5.1 17.71 16.56 27.58 17.74l-5.13-7.3a3.37 3.37.0 0 1 2.76-5.31h9.73a136.07 136.07.0 0 1-5.05-44.1c.84-16.93-19.33-58.67-45.77-78.13-12.7-9.36-24.66-12.07-35.56-8.09a3.35 3.35.0 0 1-3.15-.44c-1.43-1-35.78-25-74.39 16.27C590.37 42.91 584.57 67.84 582.92 76c2.79.75 8.35 1.27 16.32-2.53-.23-6.42 4.46-15.33 10-21.32C617.19 43.61 627 40.25 636.09 43c6.95 2.06 9.52 6.15 10.45 9.22 2.52 8.28-3.72 18.41-7 23l2.86 3.18 69.86-2.58a3.33 3.33.0 0 1 3.45 2.81c.06.36 6.09 36 19.63 54a29.52 29.52.0 0 0 7.09 7 3.37 3.37.0 1 1-3.71 5.63 36 36 0 0 1-8.76-8.57c-12.33-16.34-18.59-44.78-20.37-54l-68.52 2.54A3.42 3.42.0 0 1 638.42 84l-5.79-6.43a3.37 3.37.0 0 1-.09-4.4c2.53-3.07 9.35-13.16 7.55-19.07-.25-.8-1-3.25-5.91-4.71-9-2.65-16.38 3.45-20 7.32-6.27 6.74-9 15-8.08 17.41a3.37 3.37.0 0 1-1.54 4.15c-16.62 9.08-26.84 2.91-27.27 2.64a3.39 3.39.0 0 1-1.54-3.41c.24-1.43 6-35.31 21.11-51.44 38.06-40.73 74-22.78 81.75-18.1 12.55-3.93 26.43-.66 40.27 9.53 12.75 9.39 25.17 24.3 35 42 9 16.24 14 31.9 13.55 41.9-1.3 26.21 6.05 45.73 6.12 45.93a3.37 3.37.0 0 1-3.15 4.57h-7.9l4.69 6.67a3.37 3.37.0 0 1-1.63 5.11A16.23 16.23.0 0 1 760 164.61z" fill="#0c0852"/><path d="M546.09 116.47a3.37 3.37.0 0 1-3.36-3c-3.24-23.52 3.74-29.13 5.17-30a3.38 3.38.0 0 1 .87-.38l29.42-8.22A3.37 3.37.0 1 1 580 81.32l-28.63 8c-1 1.23-4.26 6.71-2 23.31a3.55 3.55.0 0 1 0 .46A3.38 3.38.0 0 1 546.09 116.47z" fill="#0c0852"/><path d="M668.82 194a87.49 87.49.0 0 1-10.6-.68c-50-6.09-70.82-44.24-75.84-55.26L569.5 141.9a3.37 3.37.0 0 1-2-6.46l15.78-4.76a3.38 3.38.0 0 1 4.15 2.1c.17.47 17.55 47.22 71.56 53.8 15.22 1.85 24.37-.78 29.36-3.31a18.58 18.58.0 0 0 7-5.6l6.26-19.61a3.36 3.36.0 0 1 3.59-2.32l7.51.83a3.37 3.37.0 0 1-.75 6.7l-4.77-.53-5.55 17.39a2.87 2.87.0 0 1-.24.57C701.1 181.3 694 194 668.82 194z" fill="#0c0852"/><path d="M462.05 328.18a111.17 111.17.0 0 1-71.73-25.82c-2.33-1.93-4.57-3.95-6.66-6a3.36 3.36.0 0 1-.28-4.51c37.26-46.8 97.12-124.06 99.07-132.12a3.42 3.42.0 0 1 4-2.55 3.34 3.34.0 0 1 2.57 3.93c-2.31 11-78.49 107.39-98.47 132.51q2 1.81 4.05 3.55a104.94 104.94.0 0 0 73.8 24.06c3.1-.18 5.45-.48 6.82-.69 1.33-2.13 4.22-6.84 8.21-13.38 9.55-15.66 28.11-46.46 45.19-76.89 28.75-51.25 36.14-70.82 37.29-78.21a29.65 29.65.0 0 0-.66-12.49c-3.43-12.29-14.53-20-20.83-23.54-5.76-3.2-10.05-4.38-11-4.47a3.37 3.37.0 0 1-1-6.66c3-.57 10.05 2.32 15.3 5.24 7.22 4 20 13 24 27.61a36 36 0 0 1 .83 15.34c-1.79 11.55-14.59 38.63-38.07 80.48-17.13 30.52-35.74 61.4-45.31 77.1-5.58 9.16-9 14.72-9 14.72a3.34 3.34.0 0 1-2.18 1.52 68.86 68.86.0 0 1-9.17 1.05C466.8 328.1 464.52 328.18 462.05 328.18zm71.62-216.64h0z" fill="#0c0852"/><path d="M319.64 417.88h-.09c-7.63-.22-16.17-.56-26.08-1-83-4.15-194.36-16.51-226.53-20.2l-11.13-1.29a3.38 3.38.0 0 1-3-3.72c.07-.6 7-60.14 41.27-127.1 20.13-39.35 45.61-73.58 75.73-101.73 37.68-35.21 82.75-60.93 134-76.46 73.59-22.33 136.77-22 176.8-17.85 43.49 4.54 69.2 14.25 70.27 14.66a3.37 3.37.0 0 1-2.41 6.3c-.26-.1-26.14-9.85-68.83-14.28-39.36-4.08-101.48-4.34-173.88 17.62-50.16 15.21-94.3 40.39-131.19 74.83C145 195.21 120 228.77 100.24 267.38 71.08 324.31 62 375.74 60 389.05l7.7.9c32.12 3.68 143.35 16 226.09 20.15 8.44.42 15.87.72 22.59.94.8-9.69 6.25-37.28 40.93-68.51a3.37 3.37.0 1 1 4.51 5c-20.78 18.72-30.23 35.9-34.5 47-4.6 12-4.32 19.71-4.32 19.79a3.38 3.38.0 0 1-3.37 3.53z" fill="#0c0852"/><path d="M540.26 619.13c-17.62.0-30.69-10.18-35.28-28.34a3.37 3.37.0 0 1 6.54-1.65c6.73 26.62 29.86 24.19 39.5 21.91a64.71 64.71.0 0 0 22.39-10.31 105.19 105.19.0 0 0 14.18-12.31c23.46-24 38.57-57.72 35.93-80.07A31.27 31.27.0 0 0 620 496.83c-3-5.49-7.82-9.52-14.35-12-25.35-9.6-53.34 9.43-69.6 28.65a3.37 3.37.0 0 1-5.15-4.36c17.68-20.89 48.49-41.44 77.14-30.6 8.08 3.06 14.09 8.13 17.88 15.07a38.26 38.26.0 0 1 4.27 14c3.24 27.41-16.57 63.79-37.8 85.56a112.13 112.13.0 0 1-15.1 13.1 71.59 71.59.0 0 1-24.75 11.37A53.43 53.43.0 0 1 540.26 619.13z" fill="#0c0852"/><path d="M516.59 593.88a55.63 55.63.0 0 1-8.86-.76c-8.25-1.35-17.64-4.55-27.9-9.51-29.34-14.12-56.38-37.74-57.51-38.74a2.23 2.23.0 0 1-.27-.26c-84.19-92.63-82.14-160.35-65.6-200.85 12.47-30.5 33.14-46.05 34-46.7a3.37 3.37.0 0 1 4 5.42c-.32.24-20.1 15.25-31.79 43.83-28.61 70.06 19.09 143.93 64.21 193.62 2.14 1.85 28.42 24.4 55.86 37.61 9.68 4.68 18.45 7.68 26.06 8.92 7.42 1.22 13.8.78 18.95-1.29a23 23 0 0 0 5.88-3.44 3.44 3.44.0 0 1 1-.56 32.41 32.41.0 0 0 3.15-1.36c5.24-2.55 14-8 13.75-16.28a3.39 3.39.0 0 1 2.89-3.43c.68-.1 6.88-1.27 7.43-7.54-.2-1.26-3.43-3.86-17.68-8.92l-3.48-1.23c-11.12-3.91-18.05-6.49-20.34-10.25-3.25-5.33 5.21-16.71 10.54-23a3.37 3.37.0 1 1 5.15 4.36c-6.91 8.17-9.43 13.72-9.68 15.46 1.92 1.95 10.67 5 16.57 7.1l3.5 1.24c12.49 4.44 22.77 8.69 22.13 15.86-.66 7.6-6.13 11.42-10.41 12.93-1.27 10.4-11.25 16.79-17.42 19.78-1.47.73-2.66 1.22-3.33 1.47a29.23 29.23.0 0 1-7.15 4.09A36.26 36.26.0 0 1 516.59 593.88z" fill="#0c0852"/><path d="M549.11 592.31c-.56.0-1.12.0-1.66-.07a13 13 0 0 1-11.26-8.09 3.37 3.37.0 0 1 6.2-2.64 6.21 6.21.0 0 0 5.67 4c8.49.78 24.35-8.46 35.12-24.75 26.46-40.07 17.47-61.9 16.54-63.9a3.37 3.37.0 0 1 5.32-4 3.72 3.72.0 0 1 .66.91c1.31 2.66 11.93 27.11-16.9 70.75C578.09 580.7 561.37 592.31 549.11 592.31z" fill="#0c0852"/><path d="M447.07 372.85a3.31 3.31.0 0 1-1.46-.33A3.37 3.37.0 0 1 444 368l21.57-44.68a3.37 3.37.0 1 1 6.07 2.93L450.11 371A3.38 3.38.0 0 1 447.07 372.85z" fill="#0c0852"/><path d="M505.28 524.9H505a3.39 3.39.0 0 1-2.31-1.22L419.74 422.85a3.37 3.37.0 0 1-.43-3.61L444 368a3.37 3.37.0 0 1 6.07 2.93l-23.79 49.27 79.45 96.58c14.85-11.32 26.9-9.13 28.4-8.8a3.37 3.37.0 0 1-.66 6.67h0a3.15 3.15.0 0 1-.81-.1c-.44-.1-11.19-2.48-25.2 9.51A3.36 3.36.0 0 1 505.28 524.9z" fill="#0c0852"/><path d="M650.52 444.89a3.41 3.41.0 0 1-1.68-.45c-10.12-5.83-17.51-9.5-22.61-11.22-10.76-3.62-41.11-3.15-70.47-2.69-30.17.46-61.36 1-77.66-2.6-34-7.42-34.4-56.34-34.4-58.42a3.39 3.39.0 0 1 3.37-3.39h0a3.36 3.36.0 0 1 3.37 3.36c0 1.89.32 45.59 29.09 51.86 15.55 3.38 46.34 2.9 76.12 2.44 31.31-.48 60.88-.94 72.73 3.05 5.6 1.89 13.17 5.63 23.83 11.76a3.38 3.38.0 0 1-1.69 6.3z" fill="#0c0852"/><path d="M705.59 473.83c-6.63.0-17.32-6.6-33.58-16.62a3.37 3.37.0 1 1 3.52-5.75c12 7.4 26.92 16.58 30.31 15.6 1.54-2-2.86-10.54-9.21-17.8a3.37 3.37.0 0 1 4.83-4.7v0l.22.22c3.9 4.46 16.07 19.58 8.94 27A6.63 6.63.0 0 1 705.59 473.83z" fill="#0c0852"/><path d="M734.43 462.18c-14 0-32.25-9.62-36.91-12.21a3.37 3.37.0 0 1 3.27-5.9 126.21 126.21.0 0 0 19.26 8.52c11.56 3.86 19.58 3.83 22.58-.08 6.71-8.72-7.43-28.41-12.92-34.63a3.37 3.37.0 0 1 3.73-5.38c7.9 3 21.32 6.27 25.06 3.69.35-.24.72-.58.72-1.68.0-.05-.49-2.31-9.19-7.35a181.85 181.85.0 0 0-18.43-9c-4.84-2.09-10.1-4.23-15.63-6.37-10.19-3.94-20-7.41-26.51-9.62a3.37 3.37.0 1 1 2.18-6.38c6.53 2.23 16.47 5.73 26.77 9.71 5.6 2.17 10.94 4.35 15.87 6.47a190.38 190.38.0 0 1 19.14 9.35c8.67 5 12.54 9.09 12.54 13.18a8.37 8.37.0 0 1-3.63 7.24c-4.82 3.31-13.77 2.11-21 .3 1.35 2 2.76 4.22 4.08 6.59 6.69 12.06 7.54 21.47 2.54 28C744.86 460.67 740 462.18 734.43 462.18z" fill="#0c0852"/><path d="M690.53 382.36a3.46 3.46.0 0 1-1.09-.18c-7.32-2.52-12.23-4.09-12.28-4.11a3.35 3.35.0 0 1-2.29-3.83 3.38 3.38.0 0 1 3.52-2.74c13.44.86 30.15-4.19 33.68-7.39a18 18 0 0 0-4.6-1.58c-20.07-4.74-180 6.48-190.66 9.83a3.37 3.37.0 0 1-3.63-5.65c1-.8 2.19-1.7 30.37-4.25 17.21-1.56 39.45-3.23 61-4.59C631.31 356.2 695 352.65 709 356c7.36 1.74 10.79 4.68 10.19 8.73s-6 7.64-16 10.46a83.92 83.92.0 0 1-9.76 2.14 3.37 3.37.0 0 1-2.92 5.06zM517.3 372h0z" fill="#0c0852"/><path d="M515.21 372.93a3.46 3.46.0 0 1-2-6.24 3.37 3.37.0 0 1 5.4 2.9 3.41 3.41.0 0 1-3.18 3.33zm.09-3.47 2 2.6zM515 366.2a3.35 3.35.0 0 0-3.11 3l3.29.21z" fill="#0c0852"/><path d="M515.24 372.75h-.28a3.36 3.36.0 0 1-3.08-3.63c.21-2.74-1.09-39.57-2-63.65a3.37 3.37.0 0 1 6.74-.26c.24 6.19 2.3 60.57 2 64.46A3.38 3.38.0 0 1 515.24 372.75z" fill="#0c0852"/><path d="M623 498.58a3.37 3.37.0 0 1-2.31-5.82c.14-.13 14.95-14.62 26.61-52.24 1.13-3.64 2.22-7.46 3.23-11.34 11.53-44.35 36.43-52.66 39-53.4a3.3 3.3.0 0 1 1-.17 3.37 3.37.0 0 1 3.37 3.37h0a3.37 3.37.0 0 1-2.61 3.28c-.72.23-6.33 2.13-13.06 8.58-6.56 6.29-15.56 18.33-21.2 40-1 4-2.15 7.9-3.31 11.63C641.49 482.05 626 497 625.32 497.66A3.35 3.35.0 0 1 623 498.58z" fill="#0c0852"/><path d="M589.78 594.32a3.37 3.37.0 0 1-1.92-6.14l.13-.09c1.22-.88 11.83-8.6 24.94-23 4.05-4.44 8-9.1 11.61-13.84a201.83 201.83.0 0 0 33.68-65 261.26 261.26.0 0 1 12.47-33.39c17.19-37.58 39.75-59.88 61.91-61.2a4.1 4.1.0 0 1 .53.0 3.37 3.37.0 0 1 .16 6.74h-.16c-19.34 1.07-40.39 22.49-56.31 57.29a254.23 254.23.0 0 0-12.14 32.52 208.42 208.42.0 0 1-34.8 67.13c-3.76 4.89-7.79 9.69-12 14.27-13.59 14.89-24.73 23-25.95 23.88l-.32.23A3.4 3.4.0 0 1 589.78 594.32zm143.87-196z" fill="#0c0852"/><path d="M751.73 407.62a3.37 3.37.0 0 1-1.55-6.37L767 392.57 739.41 385l-21.18 6.87a3.37 3.37.0 0 1-2.08-6.41l22.14-7.19a3.37 3.37.0 0 1 1.94.0l36.88 10.14a3.38 3.38.0 0 1 .65 6.25l-24.49 12.63A3.28 3.28.0 0 1 751.73 407.62z" fill="#0c0852"/><path d="M545.33 543.83a3.37 3.37.0 0 1-2.81-5.23c1-1.53 25.2-37.67 51.62-45.11a46.89 46.89.0 0 1 8.21-1.59c20.63-2.07 27 13.13 27.67 14.87l.05.12a3.37 3.37.0 0 1-6.15 2.72 2.78 2.78.0 0 1-.21-.49c-.55-1.41-5.2-12.05-20.69-10.51a40.31 40.31.0 0 0-7 1.37c-24 6.76-47.59 42-47.83 42.35A3.38 3.38.0 0 1 545.33 543.83z" fill="#0c0852"/><path d="M551.8 617.7a2.9 2.9.0 0 1-.58-.05c-11.47-2-19.34-6.4-23.39-13.21a22.13 22.13.0 0 1-2-17.22 3.37 3.37.0 0 1 6.39 2.15 15.42 15.42.0 0 0 1.44 11.7c3 5 9.3 8.33 18.69 9.94a3.37 3.37.0 0 1-.56 6.69z" fill="#0c0852"/><path d="M488.07 312.37c-1.1.0-1.74.0-1.84.0a3.37 3.37.0 1 1 .35-6.73 91 91 0 0 0 25.77-3.53c2.32-.64 4.62-1.36 6.85-2.14l9-68.44a3.37 3.37.0 0 1 6.68.88l-9.31 70.47a3.38 3.38.0 0 1-2.16 2.71c-3 1.13-6.14 2.15-9.32 3A101.33 101.33.0 0 1 488.07 312.37z" fill="#0c0852"/><path d="M304.85 1080q-8.66.0-18.22-.27c-54.94-1.61-68.72-10-75.35-14.09-1.92-1.18-2.74-1.66-3.64-1.66h0a8.58 8.58.0 0 0-7.88 4.26c-.15.23-.29.42-.4.57-1.23 1.64-1.92 2.55-17.19.0-7.57-1.28-15.94-3-20.83-4.29a3.38 3.38.0 0 1-2.48-3.74c0-.08 1.15-8 2.92-16.92a172 172 0 0 1 4.21-17.32 3.27 3.27.0 0 1-1.19-.76 3.35 3.35.0 0 1-.88-3.33c0-.06 1.74-6 4.52-16.24a3.37 3.37.0 1 1 6.5 1.77c-1.16 4.27-2.14 7.8-2.88 10.48 13.36-3.74 52-13.75 92.5-17a3e2 3e2.0 0 1 30.18-1 205.74 205.74.0 0 1 23.1 1.67 116.71 116.71.0 0 1 45.76 15.74 105.56 105.56.0 0 1 28.87 25.76c4.56 5.9 5.9 12.27 3.77 17.92-2.34 6.24-8.64 10.67-17.73 12.47C363.83 1076.85 339.83 1080 304.85 1080zm-97.25-22.76h.07c2.82.0 4.82 1.23 7.13 2.65 6.13 3.75 18.88 11.54 72 13.1 44.4 1.3 73.62-2.34 90.32-5.63 6.72-1.32 11.24-4.25 12.73-8.23 1.27-3.38.28-7.43-2.8-11.41a98.59 98.59.0 0 0-27-24.13 110 110 0 0 0-43.14-14.82 201.89 201.89.0 0 0-22.35-1.61c-9.09-.19-19 .14-29.51 1-40.14 3.23-78.45 13.2-91.44 16.85-1.26 3.15-3.06 9.07-5.27 20.15-1.07 5.44-1.91 10.5-2.39 13.56 9.42 2.22 24.33 4.8 28.75 5A15.06 15.06.0 0 1 207.6 1057.24zm-13.68 7.52z" fill="#0c0852"/><path d="M171.66 1010.43a3 3 0 0 1-.89-.12 3.37 3.37.0 0 1-2.37-4.14c4.54-16.62 8.93-33.39 13-49.85 19-76 49.08-211.43 36.33-265a3.37 3.37.0 1 1 6.56-1.56c5.74 24.12 3.81 66-5.75 124.45C210.17 865.69 197.31 920.8 188 958c-4.13 16.5-8.54 33.32-13.08 50A3.37 3.37.0 0 1 171.66 1010.43z" fill="#0c0852"/><path d="M221.06 693.92a3.39 3.39.0 0 1-3.28-2.59 50.08 50.08.0 0 0-3.9-11.1c-19.34-37.67-36-72.68-49.43-104.07-17.9-41.76-30.22-77.08-36.61-104.95-1.7-7.33-3-14.18-3.8-20.36-2-15.17-.56-21.09-.39-21.72a3.37 3.37.0 0 1 6.51 1.75c0 .19-1.23 5.51.57 19.08.79 6 2 12.61 3.68 19.73 6.3 27.49 18.49 62.42 36.23 103.82 13.4 31.24 30 66.11 49.24 103.64a57.16 57.16.0 0 1 4.46 12.61 3.37 3.37.0 0 1-2.49 4.06A3.11 3.11.0 0 1 221.06 693.92z" fill="#0c0852"/><path d="M286.16 1061.71c-14.84.0-34-1.08-48.54-5.71-22.57-7.2-30.27-6.19-37.72-5.22-1.05.14-2.09.27-3.16.38-9.16 1-31.39-3.19-32.33-3.37a3.37 3.37.0 1 1 1.25-6.62c6.15 1.16 23.59 4 30.37 3.29 1-.11 2-.24 3-.37 7.8-1 16.64-2.17 40.64 5.49 22.11 7.05 57.25 5.33 66.43 4.73 12.29-37 53.95-37 55.73-37a3.37 3.37.0 0 1 0 6.74h0a65.89 65.89.0 0 0-21.83 4.35c-14.54 5.66-24 15.76-28.09 30a3.37 3.37.0 0 1-2.95 2.43C308.1 1060.94 298.69 1061.71 286.16 1061.71z" fill="#0c0852"/><path d="M273.18 1027.46a3.3 3.3.0 0 1-1.73-.48 3.36 3.36.0 0 1-1.17-4.61c.34-.57 8.4-13.9 22.75-21.56a3.37 3.37.0 0 1 3.18 6c-12.65 6.75-20.06 18.94-20.14 19.06A3.36 3.36.0 0 1 273.18 1027.46z" fill="#0c0852"/><path d="M298.86 1027.46a3.36 3.36.0 0 1-2.61-5.49c.4-.5 10.05-12.3 22.71-18.51a3.37 3.37.0 0 1 3 6c-11.34 5.57-20.35 16.59-20.44 16.71A3.37 3.37.0 0 1 298.86 1027.46z" fill="#0c0852"/><path d="M264.78 1008.16a3.28 3.28.0 0 1-1.33-.28 3.38 3.38.0 0 1-1.77-4.43c.24-.56 24.47-57 48.57-120.92C342 798.17 359.18 739.1 359.8 711.73c.4-17-10.65-52.1-23.45-92.78-19.52-62.07-43.82-139.32-46.08-205.37a3.37 3.37.0 0 1 6.73-.23c2.24 65.13 26.38 141.9 45.78 203.58 13.51 43 24.18 76.87 23.76 95-1.54 67.74-94.7 285-98.67 294.23A3.37 3.37.0 0 1 264.78 1008.16z" fill="#0c0852"/><path d="M138.3 1011.64c-9.85.0-19.16-.22-26.67-.4-50.88-1.2-63.91-4.91-67.81-10.11a3 3 0 0 0-3.34-1.07 6.61 6.61.0 0 0-4.83 4.5 3.36 3.36.0 0 1-2.95 2.62 143.83 143.83.0 0 1-29.76-.69A3.37 3.37.0 0 1 0 1003.07c0-.33.21-8.38 1.42-18 1.7-13.5 4.47-23 8.22-28.36a3.37 3.37.0 1 1 5.51 3.89c-3.07 4.34-5.5 13.09-7 25.31C7.38 991.69 7 997 6.87 1000.17a143.66 143.66.0 0 0 23.06.46 13.55 13.55.0 0 1 9.13-7.16 9.8 9.8.0 0 1 10.16 3.61c1.69 2.26 12.07 6.23 62.56 7.42 15.86.37 39.83.93 59.57-.8a3.37 3.37.0 1 1 .51 6.73C161.21 1011.36 149.41 1011.64 138.3 1011.64z" fill="#0c0852"/><path d="M9.06 962.29c-1.86.0-3.2-.42-4.08-1.74A3.58 3.58.0 0 1 4.77 957c.42-1.23 1.62-7.38 3-14.47 8.9-45.43 35.88-183.25 87.75-251.87-.37-12.42-6.28-46.87-11.52-77.37-1.69-9.8-3.34-19.43-4.8-28.22-1.16-7-2.14-13.11-2.89-18.21-8.85-59.53-12-82.45-13-105.74-.27-6.3-.38-12.52-.36-19.59.0-9.95.33-21.2.69-35.45.11-4 .21-8.28.33-12.84a3.37 3.37.0 0 1 3.37-3.29h.08a3.37 3.37.0 0 1 3.29 3.45c-.12 4.56-.22 8.83-.33 12.84-.36 14.21-.65 25.43-.68 35.31.0 7 .08 13.08.34 19.27 1 23 4.15 45.77 13 105.05.75 5.06 1.71 11.14 2.87 18.08 1.46 8.79 3.11 18.4 4.79 28.19 5.72 33.29 11.63 67.71 11.64 79.62a3.41 3.41.0 0 1-.69 2.06c-51.38 67-78.34 204.74-87.2 250-1.08 5.52-1.79 9.1-2.29 11.47 3.54-.46 9-1.41 16-2.62 15.23-2.66 36.08-6.3 58.63-8.67 4.56-.48 9-.88 13.15-1.19 8.39-.65 16.49-1 24-1.06 23.11-.2 41.43 2.6 54.4 8.23a68.55 68.55.0 0 1 8.18 4.31A3.37 3.37.0 0 1 183 960a65.32 65.32.0 0 0-7.32-3.88c-12.15-5.27-29.53-7.86-51.71-7.69-7.4.0-15.33.4-23.57 1-4.12.31-8.47.7-13 1.18-22.32 2.34-43.05 6-58.18 8.6-7.1 1.24-12.7 2.22-16.4 2.69A31.92 31.92.0 0 1 9.06 962.29zM10.82 960a1.09 1.09.0 0 0-.08.15A1.09 1.09.0 0 1 10.82 960zm-5.95-3.17-.06.1z" fill="#0c0852"/><path d="M130.12 996.41h0c-6.28-.07-61.6-.8-72-4.89-1.86-.73-3.58-1.5-5.24-2.24-7.36-3.28-12.22-5.46-20.17-.9-12.8 7.35-28.63.46-29.3.16a3.37 3.37.0 0 1 2.73-6.16c.16.07 13.42 5.78 23.22.16 10.92-6.27 18.37-2.94 26.27.59 1.59.71 3.24 1.44 5 2.12 6.78 2.67 43.11 4.06 67.32 4.39a89.59 89.59.0 0 1 11-18.24c10.7-13.71 23.83-21.22 38-21.72a3.37 3.37.0 1 1 .24 6.73c-12.21.44-23.25 6.83-32.79 19a81.86 81.86.0 0 0-11 18.83A3.37 3.37.0 0 1 130.12 996.41z" fill="#0c0852"/><path d="M100.09 949.5a3.36 3.36.0 0 1-3-4.85c.76-1.57 77.27-158.27 120.88-255.39a3.37 3.37.0 0 1 6.48 1.29 3.5 3.5.0 0 1-.29 1.39c-43.65 97.21-120.25 254.09-121 255.67A3.37 3.37.0 0 1 100.09 949.5z" fill="#0c0852"/><path d="M75.65 962.52h-.17a3.37 3.37.0 0 1-3.2-3.53c0-.82.75-8.15 13.2-14.65a3.37 3.37.0 1 1 3.12 6c-8.68 4.54-9.58 9-9.59 9A3.36 3.36.0 0 1 75.65 962.52z" fill="#0c0852"/><path d="M103.65 959.73c-.18-1.07-1.22-10.59 19-17.79a3.45 3.45.0 0 1 1.23-.24 3.37 3.37.0 0 1 1.36 6.46l-.26.11c-14.62 5.17-14.71 10.48-14.71 10.54a.65.65.0 0 0 0-.23z" fill="#0c0852"/><path d="M82.54 587.86a3.37 3.37.0 0 1-2.19-5.93L115 552.29c-2.16-19.49-6-56.57-9-87l-1.73-17.19L66 444.87a3.37 3.37.0 1 1 .57-6.71l40.94 3.46a3.37 3.37.0 0 1 3.07 3l2 20c3.18 31.37 7.11 69.79 9.23 88.71a3.36 3.36.0 0 1-1.16 2.93l-36 30.8A3.32 3.32.0 0 1 82.54 587.86z" fill="#0c0852"/><path d="M105 468.36c-23 0-37.54-3.71-39.21-4.16l-.25-.07a3.37 3.37.0 0 1 1.53-6.56l.54.14c1.61.43 17 4.36 41.59 3.87l.08 3.37v3.37C107.81 468.35 106.39 468.36 105 468.36z" fill="#0c0852"/><path d="M187.94 587.86a3.47 3.47.0 0 1-1.44-.32l-20.4-9.66a3.37 3.37.0 0 1 2.88-6.09l19 9 47.52-22.52c-4.77-17.54-8.33-57.58-10.07-80.72-.49-6.42-.84-11.63-1-14.76-34 .46-94.8-8.63-97.46-9a3.37 3.37.0 1 1 1-6.67c.66.1 67 10 99.5 8.88a3.35 3.35.0 0 1 3.48 3.16c0 .08.44 7.35 1.24 17.9 1.83 24.21 5.64 67 10.61 82a3.36 3.36.0 0 1-1.75 4.11l-51.58 24.45A3.48 3.48.0 0 1 187.94 587.86z" fill="#0c0852"/><path d="M208.24 481.6c-34.9.0-72.68-6.88-77.65-7.82a3.66 3.66.0 0 1-1.79-.89 3.37 3.37.0 0 1 3.18-5.71c7.1 1.33 59 10.64 96.42 6.73h.17.48a3.37 3.37.0 1 1 .8 6.69c-.27.0-.54.06-.83.08A201.78 201.78.0 0 1 208.24 481.6z" fill="#0c0852"/><path d="M535.21 725.87a3.39 3.39.0 0 1-2.15-.77L381.2 599.66a3.38 3.38.0 0 1 1.59-5.93l97.95-16.48a3.37 3.37.0 0 1 1.12 6.65l-90.68 15.26L536.1 718.87c41-8.65 107-24.77 196.18-47.93 14.51-3.76 28.91-7.52 43-11.22 70-18.39 131.83-35.15 153.83-41.14l-167-83.33L627.74 556.66a3.37 3.37.0 0 1-1.06-6.66l135.38-21.58a3.42 3.42.0 0 1 2 .32L940 616.49a3.37 3.37.0 0 1-.61 6.27c-.74.2-75.24 20.58-162.42 43.48-14.06 3.7-28.46 7.46-43 11.23C643.49 701 576.85 717.21 535.9 725.8A3.23 3.23.0 0 1 535.21 725.87z" fill="#0c0852"/><path d="M717.19 965.71H717a3.36 3.36.0 0 1-3.18-3.55l15.84-286.53L613.16 569.87a3.37 3.37.0 0 1 4.53-5l117.7 106.83a3.32 3.32.0 0 1 1.1 2.68L720.56 962.52A3.38 3.38.0 0 1 717.19 965.71z" fill="#0c0852"/><path d="M764.83 948.73h-.13a3.39 3.39.0 0 1-3.24-3.51L772.77 661.6 639.25 553.7a3.37 3.37.0 0 1 4.24-5.25l134.84 109a3.39 3.39.0 0 1 1.25 2.76l-.12 2.94L768.2 945.49A3.37 3.37.0 0 1 764.83 948.73z" fill="#0c0852"/><path d="M938.48 622a3.38 3.38.0 0 1-1-.15l-4.86-1.48L806.73 581.64l-104.21 21.6a3.37 3.37.0 1 1-1.37-6.6L806.2 574.86a3.53 3.53.0 0 1 1.68.08l131.59 40.42a3.37 3.37.0 0 1-1 6.59z" fill="#0c0852"/><path d="M525.59 1032.94a3.37 3.37.0 0 1-2.73-1.4L410.28 875.24a3.35 3.35.0 0 1-.62-1.61L380 597.42a3.38 3.38.0 0 1 4.9-3.36l107.23 55 167.08-40.5a3.37 3.37.0 0 1 1.58 6.56L492.49 655.92a3.44 3.44.0 0 1-2.34-.28L387.37 602.91 416.27 872 528.33 1027.6a3.38 3.38.0 0 1-2.74 5.34z" fill="#0c0852"/><path d="M806.89 581.54a3.34 3.34.0 0 1-2.44-1l-44.3-46.41a3.37 3.37.0 1 1 4.88-4.65l44.3 46.41a3.38 3.38.0 0 1-2.44 5.7z" fill="#0c0852"/><path d="M525.59 1032.94a3.45 3.45.0 0 1-1.92-.6 3.38 3.38.0 0 1-1.45-2.68c-1.12-42.53 9.09-294.26 9.6-306.83l-18.11-75.54a3.37 3.37.0 0 1 6.56-1.57l18.22 76a3.55 3.55.0 0 1 .09.92c-.11 2.55-10.11 247.76-9.69 302.22 19.77-6.87 102.94-35.81 187.17-65.7 15.94-5.67 32-11.37 47.64-17 69.16-24.74 116.64-42.29 141.22-52.17l30.21-270.88a3.37 3.37.0 0 1 6.7.75L911.4 892.75a3.38 3.38.0 0 1-2.08 2.75c-24.09 9.78-72.32 27.62-143.35 53-15.69 5.61-31.71 11.32-47.65 17-96 34.08-190.68 66.92-191.62 67.24A3.28 3.28.0 0 1 525.59 1032.94z" fill="#0c0852"/><path d="M553.35 573.86a3.37 3.37.0 0 1-.79-6.65l32.64-7.86a3.37 3.37.0 0 1 1.58 6.56l-32.64 7.86A3.55 3.55.0 0 1 553.35 573.86z" fill="#0c0852"/><path d="M698.46 182.47a3.35 3.35.0 0 1-3-1.78c-7.68-14.33-23.06-30-36.63-43.86-14.12-14.4-25.27-25.77-27-34.16-3.3-15.81-.09-27.73.0-28.23a3.37 3.37.0 0 1 6.5 1.79h0a59.22 59.22.0 0 0 .05 25.06c1.35 6.46 12.95 18.29 25.24 30.82 13.88 14.16 29.62 30.21 37.75 45.4a3.37 3.37.0 0 1-1.38 4.56A3.26 3.26.0 0 1 698.46 182.47z" fill="#0c0852"/><path d="M609 134.69c-16.13.0-31.45-13.88-32.17-14.55a3.37 3.37.0 0 1-.7-4.06l21.79-41.26a3.37 3.37.0 0 1 6 3.15l-20.52 38.86c5 4 18.59 13.58 30.37 10.54 14.73-3.8 20.64-20.66 20.7-20.83a3.37 3.37.0 0 1 6.38 2.18c-.28.83-7.18 20.48-25.4 25.18A25.57 25.57.0 0 1 609 134.69z" fill="#0c0852"/><path d="M611 144a3.37 3.37.0 0 1-3.34-2.88l-1-7a3.37 3.37.0 0 1 6.67-1l1 7a3.37 3.37.0 0 1-2.84 3.83A2.7 2.7.0 0 1 611 144z" fill="#0c0852"/><path d="M627.07 136a3.37 3.37.0 0 1-2.58-1.2l-4.58-5.43a3.37 3.37.0 1 1 5.16-4.34l4.57 5.42a3.37 3.37.0 0 1-.4 4.75A3.33 3.33.0 0 1 627.07 136z" fill="#0c0852"/></g></g></g></g></g></svg>