<svg id="Слой_1" xmlns="http://www.w3.org/2000/svg" xmlns:xlink="http://www.w3.org/1999/xlink" width="839.3" height="1080" viewBox="0 0 839.3 1080" style="enable-background:new 0 0 839.3 1080;"><style>.st0{fill:#005A82;}
.st1{fill:#F2F0D8;}
.st2{fill:none;}
.st3{fill:#02B2B2;}
.st4{fill:#191308;}</style><g id="Слой_2_00000060721966739009166010000013141151340786195357_"><g id="set02_377343844"><g id="set02_377343844-2"><path class="st0" d="M563.4 135.7"/><path class="st0" d="M563.7 135.8"/><path class="st1" d="M166.2 800.4c24.4-1.1 48.8-2.1 73.2-2.8 23.7-.6 47.6.3 71.4-1.1 7.9-.5 15.6-.8 23.5-1 7-.2 6.6-3.8 6.5-10.2-.1-16.7-1.1-33.3-1.1-50-5.6 4.2-15.6 2.2-22 1.5-10.2-1.1-20.4-1.3-30.6-1.6-26.4-.7-52.8-1.1-79.1-1h-77.5c-10.1.0-20.1-.2-30.2.6-6.1.5-16.9 2.5-22-2.1 1.4 15.8 2 31.6 2.1 47.5.0 4.8-1 10.5-.3 15.2.7 5 3.3 5.2 8.1 5.5 27.1 2 54.8.5 81.9-.6-2.3.1-4.6.2-7 .3L166.2 800.4v0z"/><path class="st1" d="M81.8 723c46 0 92.1.0 138.1.0 21.7.0 43.3.4 65 1 10.5.2 20.9.8 31.4 1.2 6.4.2 17.9-2.6 23.4 1.4.0-12.8.6-25.6.9-38.3.1-2.4 1.6-9.5.2-11.7-1.9-2.9-8.3-1.5-11.1-1.3-25.9 1.4-52.2 1-78.2 1.2-52.2.4-104.5-1.5-156.7-1-4.3.0-10.5-.5-14.3 1.8-3.6 2.2-3.4 6-3.4 9.9.0 12.6.0 25.3.6 37.8C78.7 723.8 80.2 723.1 81.8 723 127.3 723 80.1 723.1 81.8 723z"/><path class="st0" d="M117 1066c70.9.0 141.9.5 212.8-.9 67.2-1.3 132.9-18.2 199.8-22.8 18.3-1.3 36.7-2.2 55-3.8 9-.8 18-1.9 27-3 3-.4 6-.8 9-1.2.7-.1 5.1-.7 2.3-.3 25.2-3.4 50.5-6.1 75.9-7.7 24-1.5 48-2.2 71.9-5.2 16.3-1.9 38.3-7.9 56.6-10.4.4-30.2-3.9-62.1-7.1-92.7-6.9-66.5-8.7-133.5-14.7-200.1-4.1-45.3-9.1-90.5-13.8-135.7-13.3 2.2-26.4 5.2-39.4 8.6-5.9 1.5-11.8 3.1-17.8 4.2-.6.1-7.1 1.1-4.1.7-21.1 2.9-42.4 2.3-63.4 5.4-21.5 3.2-42.7 4.3-64.5 5.1-40 1.5-79.9 7.5-119.8 10.8.4-.1.7-.2 1.1-.2-30.4 4.2-61 2.6-91.5 4.9-30 2.2-60.1 3.2-90.1 6.1-15.4 1.5-30.8 2.8-46.4 2.9-15.3.1-30.6-.3-45.9 1.3-14.3 1.5-28.7 2-43.1 3.3s-28.6 4.5-43 5.7c-17.2 1.4-34.6 1.8-51.9 2.8s-34.7 1.4-51.9-1.2c11.8 64 18.9 129.1 19.3 194.2.4 66.5 4.5 132.5 9.4 198.8.6 8 1 16.3 2.5 24.2.2 1.2.8 8.2 1.6 8.8 1.7 1.5 6.9-.9 8.9-1.3C79.8 1063.7 98.6 1066 117 1066zM139.8 945.7c-5.4.7-6.1-5.1-3.5-8.6 3.9-5.2 13.7-4.7 19.3-4.7 18.4-.2 36.7-.2 55.1-.1 41.2.2 82.3.0 123.4.0s81.9-2.1 122.9-2.8 81.9-1.4 122.9-4.2c39-2.6 78.3-6.2 117.1-11.2 3.7-.5 10.2-2.1 13.2 1.1 4.4 4.5-1 8.8-5.2 9.9-4.5 1.1-9.3.6-13.8.8-10.7.7-21.3 2.6-31.9 3.9-41.3 5.3-83.5 7-125 9.3-41 2.3-82 1-123 2.4-45.5 1.5-91.1 1.9-136.7 1.7C229.6 943.2 184.6 940.9 139.8 945.7c.8-.1 1.8-.2 2.7-.3L139.8 945.7C132.4 946.6 146.7 944.9 139.8 945.7zM714.3 977.4c-2.2 2.2-7 2.1-9.4 2.4-1 .1-2 .2-3 .4.1-.3-.2-.2-.9.1.4-.1.8-.1 1.2-.1-1.1 1.6-17.3 2.6-17.9 2.7 4.7-.6-5.4.8-1.5.2-37.2 5.1-75 4.4-112.4 5-37.7.6-75.4 2.7-113.1 4.2s-75.5 4.5-113.3 5.1c-38.8.6-77.7-.1-116.6-.1-16.6.0-33.3-.8-49.8.5-4.9.4-11.8 1.7-16.4-.8-8.3-4.4-.9-10.5 5-11.4 7.1-1.1 14.4.3 21.5.6 9.9.3 19.9.0 29.8.0 19 0 37.9.0 56.9.1 77.2.6 153.9-3.8 231-7.4 42.7-2 85.3-1.2 128-3 19.5-.8 39.1-2.1 58.4-5.2 5.1-.8 11.7-2.9 16.9-2.7 3 .1 6.2 1.3 6.9 4.7C716.2 974.8 713.7 977.9 714.3 977.4 712.2 979.4 715.3 976.3 714.3 977.4v0zM389.1 663.7c.3-6.3 10.1-7.2 14.7-7.8 10.2-1.2 20.5-1.4 30.7-2.1 18.4-1.3 36.7-3 55.1-4.7-.2.3-.6.4-1.1.2 1.1-.1 11.6-1.6 7.6-1 1.2-.2 12.1-1.7 8.3-1.1 62-8.4 125.1-9.3 187.6-11 15.2-.4 30.4-.3 45.5-.5 9.9-.1 21.2-1.9 24.7 9.8 3.4 11.1 2.2 25.1 3.2 36.6 1.4 15.5 3 31 4.8 46.4.9 7.3 1.8 14.6 2.5 21.9.4 4.3 1.6 10.4-1.5 14-2.3 2.7-6.3 3-9.5 3.5-8.1 1.2-16.3 1.8-24.5 2.7-29 3.2-57.9 7.2-87 9.6-61.5 4.9-122.8 8.6-184.5 7.4-16.4-.3-33 .1-49.3-1-5-.3-10.7-.6-14-5-3.5-4.8-3.5-12.5-4.3-18.2-2.3-16.7-3.5-33.5-5.5-50.2s-4.3-33.2-3.5-50l-.1 2.7L389.1 663.7C389.4 657.4 388.8 669.8 389.1 663.7zM389.9 868c45.5-1.5 91-1.7 136.5-3.1 44.7-1.4 89-6 133.5-8.8 10.3-.7 20.5-1.3 30.8-2.6 6.3-.8 20.2-4.7 25.6.6 11.1 10.9-29.9 11-34.4 11.4-44.2 4.4-88.7 8.8-133.1 10.7-45 1.9-90 1.8-135 2.4-44.8.6-89.6 3.2-134.4 4.5-45.2 1.3-90.4-.3-135.5.8-4.2.1-32.3 6.5-28.4-4.6 2.4-6.7 17.3-6.5 22.7-6.9 11.3-.7 22.6.0 33.8.3 22.4.6 44.9.2 67.3.2C289.6 872.7 339.8 869.6 389.9 868v0zM91.7 812c-7.9-.1-17.5.0-21.2-8.4-2.2-5.1-1.7-11.6-1.8-17-.1-7.8.0-15.5-.1-23.3-.2-14.7-1.8-29.3-2.3-44.1-.2-7.4-.1-14.9.0-22.3.1-5-1.4-12.1.4-16.8.7-1.8 2.3-2.8 3.2-4.5s.8-3.7 1.8-5.1c2.8-4.2 10.4-4.6 15-5.3 15.7-2.4 32.5-.9 48.4-.8 31.8.3 63.5 1.2 95.3 1.1 29.9-.1 60.3.5 90.1-1.3 8.4-.5 23-4 29.1 3.8 5.4 6.8 3 18.8 2.1 26.6-3.1 27.8.8 55.8-.3 83.7-.4 9.7 1.1 24.5-10.8 27.2-11.3 2.6-24.7 1.7-36.3 2.3-35.6 1.7-71.3 1.1-106.9 2.3-35.4 1.2-70.8 2.2-106.2 2 1.7.0 3.4.0 5 .1L91.7 812C78.2 811.8 103.6 812.1 91.7 812z"/><path class="st0" d="M80.4 800.5"/><path class="st0" d="M682.4 972c.39999999999997726.0.0.0.0.0z"/><path class="st0" d="M682.9 972"/><path class="st0" d="M682.7 972C682.9 972 682.6 972 682.7 972z"/><path class="st0" d="M683.2 971.9"/><path class="st0" d="M681.3 972.2l1.3-.2C682.5 972 681.7 972.1 681.3 972.2z"/><path class="st0" d="M24.5 600.2c11.2-15.4 21.1-31.7 32.7-46.8 3.6-4.6 12.9-17.1 18.6-23.7 9.6-11.1 20-21.6 27.3-34.4-18.8.0-37.7 1.1-56.5 1.4-7.8.1-15.6.2-23.4.8-6.2.5-11.2.1-11.6 7.4-1 16.7 2.2 34.2 3 50.9.9 18.4-1 37 .8 55.4 1.8-2.2 7-11 9.8-12-.7.6-1.2 1.3-1.6 2.1C23.9 600.8 24.2 600.5 24.5 600.2 35.7 584.8 21.6 603.6 24.5 600.2z"/><path class="st1" d="M24.1 632.1c25.2 2.6 49.9-.4 75-1.2 8.3-.3 16.9 1.3 25.1-.2 8.9-1.7 10.4-9.4 15-16.2 27.5-41.2 55.2-82 87.1-120.1-28.9.0-57.8-.3-86.7.1-9.1.1-21.4-2.6-27 6.2-6.5 10.2-13.8 19.9-21.8 29.1-16.6 19.3-32 39.5-46.1 60.6-6.8 10.1-15.4 18.8-22.3 28.8-1.7 2.4-7 8.7-4 11.8 1.8 1.8 7.2 1.4 9.4 1.6C26.8 632.4 24.6 632.2 24.1 632.1 48.6 634.7 22.5 631.9 24.1 632.1z"/><path class="st0" d="M340.9 673.9v0z"/><path class="st1" d="M402.1 698.2c1.6 14 3.3 27.9 4.9 41.8.8 6.8 1.5 13.5 2.2 20.3.4 3.7-.2 11 2.8 13.8 6.1 5.8 24 1.7 31.7 1.8 14.7.2 29.4.4 44.1.4 58.7.1 117.3-2.9 175.6-9 33-3.5 65.9-7.4 98.8-10.6-4.3-32.5-6.7-65.2-9.8-97.8-.4-4.3.2-9.1-3.5-11.5-4.3-2.8-12-1.4-16.7-1-15 1-30.3.2-45.3.3-32.7.2-65.3 1.6-98 4.2-16.2 1.3-32.3 2.6-48.5 3.9-11.3.9-22.8 2.9-34.1 3.2.3-.1.7-.2 1.1-.2-28.1 3.7-56.6 6.8-84.9 8-5.8.2-18.9-2.4-22.5 3.3-1.7 2.6.3 11.8.5 14.6.5 5.4 1.1 10.8 1.7 16.3-.1-1.1-.2-2.2-.4-3.3C401.9 697.3 402 697.8 402.1 698.2 404.1 716.8 401.5 692.7 402.1 698.2z"/><path class="st0" d="M499.2 659l-1.6.2C498.1 659.1 498.6 659 499.2 659z"/><path class="st0" d="M683.1 983C681.9 983.2 682.9 983 683.1 983z"/><path class="st0" d="M340.5 794.8c.5-.39999999999997726.0.0.0.0z"/><path class="st0" d="M683.6 982.9"/><path class="st0" d="M411.4 775.7C411.8 776 411.4 775.7 411.4 775.7s0 0 0 0z"/><path class="st0" d="M683.6 982.9C684.6 982.8 684.8 982.9 683.6 982.9z"/><path class="st0" d="M208.6 632.1C209.1 632 210.9 631.8 208.6 632.1z"/><path class="st1" d="M767.6 430.7c-11.6-52.3-21-105.5-30.1-158.3-2.2-12.6-4.3-25.2-6.8-37.8-2.1-10.3-5.7-13.7-14.7-19-21.3-12.6-44.3-22.2-67.3-31.4 9 56.2 21.2 112 29 168.4 1.7 12.1 2.1 23.9 2.8 36 .7 11.7 7.7 12.9 17.5 16.9 11.8 4.8 23.8 9.2 35.2 14.8 12.2 6 23.8 13.1 36.2 18.6-.5-3.1-1.4-6.1-2-9.2C767.5 430.1 767.9 432 767.6 430.7 757 382.9 768 432.7 767.6 430.7zM678 356c0 .2.0.4.1.6C678.1 356.4 678.1 356.2 678 356z"/><path class="st0" d="M208.4 632.1"/><path class="st0" d="M788 445.4c.8-10.5 7.4-19.7 10.8-29.4 4-11.5 6.4-23.8 8.8-35.7 4.5-22.6 8.6-47.4 4.1-70.3-7.2-36.9-40.6-59.8-70.5-78.3 7.5 40.8 15.1 81.6 22.4 122.4 3.5 19.7 8.7 39 12 58.8 1.4 8.3 2.3 16.8 4 25C780.8 443 783.5 445.4 788 445.4 788.7 435.7 787.3 445.4 788 445.4z"/><path class="st0" d="M65.7 560.3C66.1 559.8 65 561.2 65.7 560.3 65.7 560.3 65.6 560.4 65.7 560.3z"/><path class="st0" d="M214 526.4c-24.2 33-48.2 66.1-69.8 100.9 21-3.4 42.4-3.3 63.5-6.1-.3-.1-.5-.1-.6.1 13.4.3 27.3-.8 40.7-1 7.9-.1 15 .3 20.3-6 6.2-7.4 11.1-16.2 17.1-23.8 13.4-17.1 27.7-33.4 40.2-51.2 12.3-17.5 23.5-35.8 37.5-52.2-32.5 4.2-66.2 7.3-99.1 7.4-10.1.0-20.8-4-28 4.8-3.7 4.5-6.9 9.3-10.7 13.7-3.4 4-10.2 9.6-11.9 14.5.3-.9 1.5-1.9 2-2.7C214.9 525.3 214.4 525.9 214 526.4 189.9 559.2 218 521.2 214 526.4z"/><path class="st0" d="M65.3 560.8"/><path class="st0" d="M777.9 473.4c-12.8 18.2-23.2 37.9-34.5 57.1-11.4 19.4-25.8 36.9-36.5 56.7 18.9-1 36.9-6 55.2-10.4 6.1-1.6 12.4-2.8 18.7-3.6 4.3-.5 9.2.2 10.1-4.4.4-2.2-.9-5.2-1.2-7.4-.6-4.3-.9-8.8-1.2-13.2-.6-9.5-.9-19-1-28.5-.2-20.1.6-40.2.8-60.2-3.2 4.6-6.5 10.1-10.5 14.1.2-.3.5-.6.7-.9S778.5 472.6 777.9 473.4C764.9 492 779.7 471.1 777.9 473.4z"/><path class="st1" d="M653.9 480.2c-12.7 20.8-26 41.2-40 61.1-6.8 9.7-14.2 18.9-21.3 28.4-6.9 9.3-13 19.4-21.2 27.7 12.9-1.2 25.8-2.3 38.7-2.6 11.9-.3 23.9.4 35.7-1.4 11.5-1.7 23.2-5.1 34.9-6 4.2-.3 9.6 1 13.3-1.7 2.9-2.1 4.4-6.5 6.2-9.4 11.8-19.9 25.6-38.6 37.7-58.3 12.7-20.7 25-41.7 38.9-61.6-13.2.1-26.3 3.1-39.5 3.7s-26.1 1.2-39.2 2.4c-6 .5-12.1 1.3-18.1 1.6-4.3.2-9.2-.7-13.4.3-7.1 1.7-9.7 10.8-13.2 16.4C653.8 480.6 654.7 479 653.9 480.2 641.5 500.6 655.1 478.3 653.9 480.2z"/><path class="st1" d="M368.5 497.4c-15.1 20.3-28.3 41.9-43.9 61.8s-32 39-46.6 59.6c29.1-2.3 58.1-3.9 87.2-5.8 13.1-.9 26-3.1 39.1-3.5 8.2-.2 23.5 3.2 30.2-2.9 8.5-7.8 14.6-20.9 20.8-30.6 7.2-11.4 14.2-22.9 21.3-34.3 14.6-23.8 29.4-47.5 46.7-69.5-32.2 3.3-64.5 3.5-96.6 7.8-13.2 1.8-26.2 2.6-39.4 3.5-5.1.4-8.5 1.1-12 5-2.3 2.5-4.6 8.5-7.5 10 .7-.5 1.2-1.2 1.6-2C369.1 496.8 368.8 497.1 368.5 497.4 352.9 518.5 371.4 494 368.5 497.4z"/><path class="st0" d="M535 474.9c-17 21.8-31.6 45.5-47.2 68.2-6.9 10.1-12 21.1-18.1 31.7-6.9 12-15.4 23.1-23.4 34.4 25.2-.5 50.3-4.7 75.4-6.8 10.2-.8 22.7-.6 32.5-3.4 5.6-1.6 8.2-8.9 12.2-13.2 16.2-17.4 29.3-38.5 42.7-58 14-20.4 27.6-41 40.9-61.8-23.7 1.2-47.5 2.2-71.2 3.5-10.6.6-21.2.7-31.8 1-5.4.1-10.6-1.2-12.5 4.8C534.6 475.5 535.4 474.4 535 474.9 518.1 496.6 535.8 474 535 474.9zM477.4 606.6h.4H477.4z"/><path class="st0" d="M447.8 237.5C447.6 235.8 448 238.8 447.8 237.5 447.8 237.3 447.9 237.6 447.8 237.5z"/><path class="st0" d="M448 238.4C447.8 237.2 448 238.1 448 238.4 447.9 238.2 447.9 238.3 448 238.4z"/><path class="st0" d="M447.9 238C447.8 237.2 448 239.1 447.9 238c0 0 0 .09999999999999432.0.0z"/><path class="st1" d="M218.2 199.9c-6.9-41.9-12.4-84.2-23.5-125.4-2.6-9.8-5.5-19.5-8.1-29.2-1.2-4.3-2.4-8.5-3.3-12.8-.6-2.8-.3-6.6-2.1-9-3.5-4.5-14.4-5.6-19.5-6.6-8.6-1.7-17.1-3.8-25.8-4.9-15-2-30.7-1.1-41.8 10.2-4.6 4.7-9.1 10.3-8.3 17.1.9 7.6 4.8 15.4 7.7 22.4 8 19 14.9 38.5 21.1 58.2 6.2 19.5 10.8 39.6 17.6 58.8 1.9 5.5 4.1 10.9 5.8 16.4 1.1 3.4 1.4 7.9 3.1 11 3 5.4 10.4 6.5 16.2 8.1 22.3 6.4 44.6 13.2 66.6 20.5-1.4-11.8-3.8-23.5-5.7-35.2.2 1.6.5 3.1.8 4.6C218.7 202.7 218.5 201.3 218.2 199.9 212.4 164.4 220 210.8 218.2 199.9z"
				/><path class="st0" d="M573 344.5c-9.3-38.3-15.2-77.7-21.7-116.5-3.2-18.8-6.7-37.4-11.3-55.8-2.2-8.5-4.6-17-6.2-25.6-1.1-5.9-.6-11.6-6.5-14.1.2.0.4.1.6.3-3-1.2-5.9-2.5-8.8-3.7.4.2.8.3 1.2.5-10.8-3.4-21.2-8.2-32.1-11.4-17.5-5.1-35.5-8.1-53-13.1 15.4 54.9 19.1 111.9 32 167.3 2.9 12.5 5.6 24.9 7.5 37.6 1.7 11.3 10.8 11.4 20.4 13.8 27.1 6.8 53.3 18.6 79.8 27.4-.7-2.9-2-5.7-2.3-8.6C572.5 342.9 573 344.8 573 344.5 569 328.1 573.4 346.2 573 344.5z"/><path class="st0" d="M458.7 235.9C458.7 236 458.8 236.3 458.7 235.9z"/><path class="st1" d="M455.8 272.7c-1.9-8.4-4.3-16.7-6.1-25.1-.6-3-1.2-6-1.7-9-.1-.5-.8-5.8-.5-3.6-2.9-21.7-6-43.4-9.7-64.9s-7.3-44.2-14.2-65.1c-2-6.2-9-7.4-14.9-9.4-10.3-3.5-20.8-6.8-31.3-9.8-21.2-6.1-42.1-13.4-63.2-20 11.1 25.6 16.1 53.2 23 80.1 7.1 27.4 15 54.6 22.4 81.9 3.6 13.2 7.8 26.2 11.1 39.4 1.9 7.8 1.2 15.3 9.3 18.5 27.5 10.5 56.4 19.2 84.5 27.9-2.2-14-6-27.6-8.9-41.4.3 1.6.8 3.1 1.1 4.7C456.5 275.5 456.1 274.1 455.8 272.7 453.3 262 458.4 283.7 455.8 272.7z"/><path class="st0" d="M669.7 382.2c-4.5-57.9-16.4-114.7-27.3-171.6-1-5.4-2.3-10.8-2.9-16.3-.4-3.7.3-8.9-1.2-12.4-2.7-6.3-12.7-7-18.6-9.5-20.7-8.6-40.5-19.6-61.7-27l1.2.5c-5.3-2.2-10.7-4.4-16-6.7 4.5 26.4 12.4 52 17.4 78.2 5 26.4 8.5 53.1 14.5 79.4 2.8 12.2 4.8 24.5 7 36.8 1.1 6 2.1 12.3 4.2 18.1 1.7 4.5-2.7.7 2.4 4.5 2.2 1.6 5.6 2.5 8.2 3.7 12.2 5.9 24.7 10.7 37.2 15.9s24.1 11.6 36.2 17.4c-.3-4-.3-8-.6-12C669.6 381.6 669.8 384.4 669.7 382.2 665.8 332.5 670 385.6 669.7 382.2z"/><path class="st0" d="M119.5 176.2c-6.7-22-13.4-44-20.1-66.1-6.2-20.3-15.4-39.5-22-59.7C67.2 68.3 58.8 86.8 54.5 107c-4 19.2-7.4 38.1-13.5 56.8-2 6.2.5 6.5 5.8 9.4 6.9 3.8 13.6 7.9 20.8 11 19.8 8.4 41.2 12.8 61.4 20.3-2.9-9.7-6.9-19.1-9.8-28.8.2.8.5 1.7.8 2.5L119.5 176.2C113 154.7 121.2 181.8 119.5 176.2z"/><path class="st0" d="M356.5 256.9c-15.3-54-28.4-108.6-44.3-162.5-1.8-6-3.5-12-5.7-17.9-1.3-3.8-3.1-12.2-6.1-14.9-2.5-2.2-6.9-2.4-10-3.3-6.4-1.9-12.7-4-19.1-5.7-26.5-7-52-16.3-77.8-25.5 5 30.4 16.4 59.3 21.5 89.8 5.2 31.1 10.8 62.1 16.1 93.1 1.5 8.7-.8 23.9 7.3 29.6 4.3 3 10.3 3.7 15.2 5.1 6.2 1.8 12.3 3.9 18.5 5.8 30.2 9.5 60.1 20 90.2 29.8-1.6-8-3.8-15.9-6-23.8.2.8.4 1.6.7 2.4L356.5 256.9C342.1 206.1 358 262.2 356.5 256.9z"/><path class="st2" d="M763.3 1033.1l-.8.1"/><path class="st0" d="M42.2 1070.6l.1.4"/><path class="st0" d="M477.4 606.6h.4"/><path class="st0" d="M678 356c0 .2.0.4.1.6"/><path class="st0" d="M504.9 647.1l.9-.1"/><path class="st0" d="M497.1 648.2l.5-.1"/><path class="st0" d="M681.8 972.1l.9-.1"/><path class="st0" d="M705.3 979.7l-.6.1"/><path class="st0" d="M683.6 982.9l.5-.1"/><path class="st0" d="M682.6 983.1c-.3.0-.6.1-1 .1"/><path class="st3" d="M750.1 448.3C749.7 448.3 748.1 448.6 750.1 448.3z"/><path class="st3" d="M750.7 448.2"/><path class="st3" d="M726.5 585.2"/><path class="st3" d="M725.8 585.2"/><path class="st4" d="M772.2 1031.9l-1.5.2L772.2 1031.9z"/><path class="st4" d="M11.2 495.3c.1 1.6.2 3.1.3 4.7 21.9-7.2 47.2-4.3 70-4.6 6.2-.1 19 3.2 23.5-1.9 1.7-1.9 1.7-5.4 4.5-6.3 4.6-1.5 8.9 3.9 6.5 8 26.8-.5 53.6-.7 80.4-.7 6.2.0 12.4-.1 18.6.0 3.9.1 8 .7 11.5-1.3s5.4-7.4 9.5-8.2c5.8-1.2 8 5.6 4.8 9.5 28.6.0 56.9-2 85.4-3.3 10.6-.5 25.7.9 35.3-4.6 3.8-2.2 5.8-7.5 10.5-8.2 4.2-.7 8.2 2.2 6.6 6.8 32.1-2.5 63.9-8.6 96-10.2 8.2-.4 16.4-.7 24.6-1.1 6.5-.3 13.8.5 20.1-1.4 4-1.2 7.1-6.1 11.4-5.9 3.2.2 4.9 3.2 7.6 4.1 5.8 2 16.2-.2 22.3-.4 8.3-.2 16.5-.7 24.8-1.3 15-1.1 30-2.6 45.1-2.2 5.3.1 11.3 1.5 16.5.2 4.3-1.1 5-3.4 7-7 5.3-9.2 15.5-4.1 9.6 5.2 24.3-1.6 48.4-4.2 72.8-5.1 7.9-.3 15.9-1.1 23.8-1.6 4.3-.3 14.9.2 17.8-4-9.6-4-16-8.1-26.5-6.5-10.3 1.5-20.7 2.3-31.1 2.8-23.9 1.3-47.8 3-71.8 4-52.8 2.1-105.7 4.6-158.5 8-51.3 3.3-101.9 12-153 16.4-52.2 4.5-104.9 4.2-157.3 4.2-28.8.0-57.6.5-86.4.8-15 .1-30 .9-45.1 1.3-14 .4-28.4-.1-41.9 4.5C9.1 490.4 11.1 492.6 11.2 495.3 11.3 496.9 10.9 492.6 11.2 495.3z"/><path class="st4" d="M791.9 451.1c-4.2-1.1-3.5-5.7-8.3-5.7 1.4 1.2.8 2.9 1.7 4.2s2.4 1.6 3.2 2.9c2.4 4.6-.6 13.3-.9 18.2-.8 13.2-.5 26.5-.4 39.7.1 13 .6 26 1.5 39 .3 5.2-.8 16 1.7 20.3 1.3 2.2 1.8 1.1 4.5 2 1.7.6 3.8 1.7 4.3 3.5 1.6 5.5-4.3 4.4-6.6 6.4-2.4 2.1-1.2 5.8-.6 8.8 2 10.9 3.2 21.9 4.4 33 3 26.9 5.8 53.8 7.8 80.8 6 79.8 11.1 159.7 18.7 239.3 2.1 22.1 4.6 45.4 4.3 67.1-18.3 2.5-40.2 8.5-56.6 10.4-23.9 3.1-47.8 3.8-71.9 5.2-25.4 1.6-50.7 4.3-75.9 7.7-24.2 3.6-55.3 5.8-81.9 7.5-36.3 2.2-72.5 6.5-108.3 12.9-70.8 12.8-142 11.4-213.7 11.5-20.2.0-40.4.0-60.7.0s-40.5-1.7-60.7.6c4.8 5.2-2 9.2-7 9.4 2.9 3.5 10.8 2.1 14.7 1.7 6.7-.6 13.3-.7 20.1-.7h54.7c37.1.0 74.2-.5 111.4-.7 37.3-.2 74.7.1 111.7-5.3 36.8-5.4 73.2-13 110.3-16.4 41.7-3.8 83.6-5.9 125.2-11.6l-1.5.2c17.8-4.3 37.7-4.3 55.9-5.5 26.6-1.8 53.3-2.6 79.7-5.9 13.2-1.7 26.1-4.7 39.2-7.1 7-1.3 16.5-.6 22.3-5.5 7.6-6.2 4.3-21.7 3.5-30.2-1.3-13.3-2.5-26.6-3.9-39.9-11.5-111.6-14.9-223.9-27.7-335.4-3.5-30.9-8-61.5-8.3-92.7-.1-13.8-.6-27.9.7-41.6.9-9 4.2-22-1.4-30.1-1.6 1.7-4 2.3-6.2 1.5C791.6 451 793.4 451.5 791.9 451.1 786.3 449.5 794.1 451.7 791.9 451.1z"/><path class="st4" d="M750.2 448.3C749.6 448.4 750.1 448.3 750.2 448.3z"/><path class="st4" d="M1 514.6c.2 20.4 3 40.7 3 61.1.0 20.8.2 41.2 3.7 61.8 6.7 39.7 12.6 79.7 16.5 119.8 4 41.7 3.8 83.7 4.6 125.6.8 40.3 4.8 80.3 6.9 120.5 1 18.8 2 37.7 4 56.4.7 6.6 1.3 16.3 8.4 19.2 6.7 2.7 17.2-.8 24.1-1.4 6.3-.5 13.5-.1 19.7-1.4 4.3-.9 10.7-5.4 5.6-9.7-2.9-2.5-8.4-1.6-11.8-1.4-9.3.6-18.4 1.5-27.6 2.8-5.7.8-5.9-2.3-7-8.1-1.7-8.9-2-18.3-2.8-27.3-1.6-20.4-2.2-40.8-3.5-61.2C42.3 931 39.4 891 39 850.6c-.5-46-3-91.1-8.9-136.8-2.7-20.7-5.7-41.3-8-62-.3-2.4-.1-6.3-1.6-8.4-2-2.7-4.6-1.1-6.6-2.9-5.6-5.1 4.1-8.2 3.4-13.1-5 6.5-10.5-1.9-8.3-7.3 1.3-3.2 4.7-5 6-8.2 1.2-2.8.4-5.8.2-8.7-1.3-20.5.3-41.1-1.5-61.6-.9-9.7-1.6-19.4-1.6-29.1.0-5.4 1.4-18.7-4.6-22-11.5-6.4-6.6 22-6.6 26.3C1 516.4 1 512.9 1 514.6 1.2 533.4 1 511.4 1 514.6z"/><path class="st4" d="M65.4 560.7C66 559.9 65.5 560.5 65.4 560.7 65.5 560.5 65.4 560.6 65.4 560.7z"/><path class="st4" d="M56.6 554.2c.3-.4.6-.7.9-1.1L56.6 554.2z"/><path class="st4" d="M18.1 626.5c4.1-10.2 14.6-18.8 20.9-27.7 8-11.3 15.6-22.9 23.7-34.1 15.2-21.3 35.6-39.1 49.5-61.3 2.1-3.3 5.2-8.2 3.9-12.3-1.5-5.1-6.3-4.5-9.6-1.5-3.7 3.2-5.6 8.5-7.9 12.7-3.1 5.2-6.8 10.1-11 14.5-18.1 19.8-33.8 40.7-48.8 62.8-7.8 11.6-16.3 22.8-25.3 33.5-2.8 3.3-7.5 8.5-5.1 13.2C10.2 630.1 16.5 630.8 18.1 626.5 20.7 620 16.1 631.6 18.1 626.5z"/><path class="st4" d="M66.2 559.7"/><path class="st4" d="M132.6 640.1c1 .3 2.1.1 3-.4-3 .2-4 .3-2.8.5L132.6 640.1C133.7 640.3 132.7 640.1 132.6 640.1z"
				/><path class="st4" d="M209.7 514c-14.6 18.8-28.3 38.3-41.5 58.1-12.7 19-26.5 37.4-38.1 57.2 4.2-.5 9.3-.2 13.2-2.2s5.6-6.4 7.8-10c5.7-9.2 12.1-18.1 18.4-26.9 14-19.7 27-40.2 41.4-59.7 6.1-8.3 12.8-16.1 20-23.5 3.4-3.5 15.2-14 10.4-19.8-7.5-9-30.7 25.5-34.4 30.3l3.4-4.3L209.7 514C194.5 533.5 213.2 509.4 209.7 514z"/><path class="st4" d="M346 509.4c-14.2 19.3-27 39.6-42.1 58.2-7.3 9-15.1 17.6-21.9 26.9-6.2 8.3-11 17.8-18.6 25 10-.2 15 .6 20.6-8.5 5.8-9.4 13.1-17.9 20.1-26.4 14.9-18.1 28.7-36.8 42-56 6.2-9 12.7-17.9 19.2-26.8 3.5-4.8 16-13.6 13-20.5-4.5-10.4-15.9 6.4-18.6 9.9-5.6 7-10.8 14.3-16 21.6 1-1.5 2.1-2.9 3.2-4.4L346 509.4C332.1 528.3 349.7 504.4 346 509.4z"/><path class="st4" d="M514.7 484.9c-13.9 22.1-31 41.9-43.9 64.6-11.7 20.6-21.7 42.9-38.6 59.9 7.8.0 13.3 2.7 18-4.8 5-8 10.6-15.5 15.7-23.5 12.1-18.7 22.7-38.3 35.2-56.8 6.3-9.4 12.5-18.8 18.8-28.1 4.6-6.8 12.5-14.5 14.8-22.6 1.9-6.7-4-8.8-9.1-5-5.3 4-7.9 11.5-11.4 16.9L514.7 484.9C501.6 505.7 516.3 482.4 514.7 484.9z"/><path class="st4" d="M431.1 620.6c1.8 1 4 1 5.7-.2C436.5 620.4 431 620.5 431.1 620.6z"/><path class="st4" d="M637 487.4c-12.5 20.6-26.4 40.4-40.6 59.8-6.5 8.9-13.6 17.3-20 26.2-3.2 4.6-6.6 9.1-10.2 13.3-3.2 3.6-7.2 6.7-7.7 11.8 6.4-.6 12-1 16.8-5.7 7.4-7.2 12.7-17 18.9-25.2 14-18.4 27.1-37 39.9-56.2 5.9-8.8 11.4-17.8 17.4-26.5 4.7-6.8 11.9-13.8 13.9-22.1.9-3.8.2-7.8-4.4-8-4-.2-5.9 3.6-7.8 6.5-6 9-11.5 18.2-17 27.4l1.7-2.9L637 487.4C624.5 507.9 640.1 482.4 637 487.4z"/><path class="st4" d="M39.8 644c29.6.2 59.4.0 88.8-3.4 14.5-1.6 28.7-4.7 43.2-5.8 14.1-1.1 28.1-2 42.2-3.4 25.4-2.6 51.1-.3 76.6-2.5 30.4-2.7 60.8-3.9 91.2-6.4 33.9-2.8 68-1 101.7-5.6-.5.1-1.1.1-1.6.2 14-.2 28.6-2.5 42.6-3.8 16.6-1.5 33.2-3.4 49.8-5s33-2.3 49.5-2.6 32.6-2.8 48.9-5.7c-5.9.1-7.2-7-3.1-10.2 4-3.1 11.1-2.2 15.8-2.3-4.8-2.2-12 1.2-16.9 2.1-7.5 1.3-15 2.8-22.5 4-15.7 2.6-31.6 1.1-47.4 1.7-33.4 1.3-66.7 5.9-1e2 8.9-16.6 1.5-33 4.4-49.6 5.1-16.3.7-32.6-.5-48.8.5-17 1-33.8 3.2-50.8 3.8-16.1.5-32.2 1.9-48.2 3.4-31.5 2.8-63.1 3.2-94.7 4.5.4-.1.8-.2 1.1-.2-23.6 3.2-47.5 4.3-71.1 7.2s-48.2 4-72.1 4.9c-11.5.5-23 .3-34.4-.5-3.8-.3-14.9-2.7-17.5 2-6.3 11.1 25.5 9.2 29.9 9.3H39.8C68.7 644.2 36.4 643.9 39.8 644z"/><path class="st4" d="M208.2 632.2C208.9 632.1 208.3 632.2 208.2 632.2z"/><path class="st4" d="M208.5 632.1C209.2 632 208.7 632.1 208.5 632.1 208.6 632.1 208.6 632.1 208.5 632.1z"/><path class="st4" d="M775.1 574c-18 3.6-35.3 9.5-53.6 11.8-6.1.8-12 .3-16.7 4.8-2.6 2.5-4.7 6.7-8.9 5.9-4.1-.8-5.6-5.9-3-9-6.3.0-13.3-1.3-19.4.6-5.7 1.8-9.9 7.8-2.6 10.8s19.4.1 27.1-.3c10.8-.6 21.5-1.4 32.2-2.8-2.7.3 6.3-1.2 7.1-1.3 6.3-1.3 12.5-3 18.8-4.6 11.6-3 23.2-5 34.9-7.5 2.8-.6 6.7-1.1 7.8-4.2 1.3-3.5-1.5-6.1-4.4-7-6.4-2-14.8 1.9-21.1 3.3L775.1 574C759.2 577.2 777.7 573.4 775.1 574z"/><path class="st4" d="M725.1 596.4l-1.5.2C729.2 595.9 723.6 596.6 725.1 596.4z"/><path class="st4" d="M726 585.2C725.4 585.3 725.9 585.2 726 585.2z"/><path class="st4" d="M772 463.2c-17.5 22.2-29.4 48-44.1 71.9-7.4 12-15.5 23.5-23.3 35.2-2.3 3.5-19.9 23.8-9.5 26.3 8.4 2 17.1-16.5 20.2-21.6 7.7-12.3 15.9-24.4 23.5-36.7 13.1-21.2 23.6-45.4 39.5-64.7 3.4-4.1 13.5-13.9 10.8-20.1-2.1-4.7-4.7-1-7.3.4-2.1 1.1-3.5 1-5.4 2.9-1.8 2.1-3.4 4.5-4.8 6.9C771.6 463.6 772.4 462.7 772 463.2 752.8 487.5 772.6 462.3 772 463.2z"/><path class="st4" d="M563.5 135.8C561.9 135.1 563.2 135.6 563.5 135.8 563.3 135.7 563.5 135.8 563.5 135.8z"/><path class="st4" d="M778.2 454.6c8.2 3.3 9.2-11.7 2.3-10.9-3.4.4-4.5 6.6-9.4 1.4-1.4-1.5-1-3.5-2-5-1.7-2.4-3.3-3-6-4.3C736 423.6 709 411 682 398.6c.6 4.9-5 10.2-9.3 5.8-3.1-3.2-1.1-8.6-4.6-12s-10.2-5.6-14.5-7.6c-6.4-3.1-12.8-5.9-19.4-8.6-12.9-5.3-26.1-10.1-38.4-16.8-3.1-1.7-7.2-5.1-10.8-3.7-1.6.6-1.8 2.7-3.8 3-3.1.4-3.3-1.8-4.8-3.5-7.4-8.9-22.7-10.4-33.4-14.6-13.2-5.2-26.6-10-40.1-14.3-5.9-1.9-11.9-3.5-17.6-5.7-3.9-1.5-7.3-4-11-1.8-2.5 1.5-2.7 5.3-6.7 2.5-2.4-1.6-2.6-5.5-4.8-7.4-4.1-3.6-10.9-4-15.9-5.6-7.4-2.3-14.7-5.1-22-7.7-16.6-5.9-33.5-11.1-50.4-16.3.9 4.9-4.3 8.1-8.4 5.9-3.8-2-2.3-6-4.2-8.8-2.5-3.8-12.2-5.3-16.3-6.7-7.5-2.6-14.9-5.4-22.4-8.1-28.8-10.5-58.5-18-87.5-27.9.8 4-.7 9.7-5.7 9-5.9-.8-3.8-7.8-6.3-11.4s-7.7-4-11.5-5.2c-7.8-2.4-15.6-4.6-23.4-6.9-14.3-4.2-28.5-8.8-42.4-14.1-1.6-.6-3.8-1.8-5.6-1.3s-2.2 2.8-3.7 3.3c-5.6 2-5.6-3.8-8.4-6.9-3.5-3.8-10.6-5.3-15.3-6.7-6.2-1.9-12.3-3.8-18.5-5.5-13.8-3.8-27.3-7.6-39.8-14.8-2.9-1.7-5.6-3.6-8.5-5.2-1.3-.7-5.7-2-6.3-3.5s1-5.9 1.4-7.6c.9-3.7 2-7.3 3.5-10.8 5.2-13.9 6.5-28.4 9.5-42.9 3.6-16.9 9.6-33.2 17.8-48.3 3.2-6 4.2-9.3 3.6-16-.3-3.1-1.2-6.3 1.7-8.5 2.4-1.9 5.8-1.6 7.7.8.1.1.1.1.2.2 7.7-13.3 17.3-23 33.3-24.1C140 10.3 162 16.5 182 23c.2-4.5 5.7-6.3 8.9-3.7 2.8 2.2 2.4 6.4 5.1 8.8 3.2 2.9 9 3.8 13 5.2 5.2 1.8 10.4 3.7 15.7 5.5 25 8.5 50.6 14.7 75.6 22.8-1.6-3.7-1.7-8.9 3.1-9.7 5.2-.9 6.2 4.2 7.8 7.8 4.2 9.5 16.8 10.8 25.9 13.8 28.4 9.5 57.5 17 85.5 27.6.2-3 2.7-5.3 5.7-5.1 1.2.1 2.4.5 3.3 1.3 2.6 2.2 1.3 6.2 4.2 8.5 2.5 1.8 6.8 1.7 9.8 2.2 5.4 1 10.7 2.3 16.1 3.6 19.6 4.6 39 10.6 57.8 17.8-.2-.1-.4-.2-.6-.3 2.9 1.2 5.8 2.5 8.8 3.7-.2-.2-.4-.3-.6-.3 4.6 1.9 3 .4 6.3-1 4.8-2 7.3-.8 9.7 3.9 1.4 2.6.5 2.9 3.2 5.1 3.5 2.9 8.7 3.6 12.8 5.3-.3.0-.6-.2-.8-.4 26.9 10.3 52.4 23.6 79.1 34.3.3-6.6 9.7-11.5 11.7-3 1 4-1.6 5.9 2.2 9.1 3.2 2.7 8.5 3.5 12.2 5.1 22.1 8.9 44.6 19.5 64.6 32.5-1.5-6.3 4.5-12.2 9.4-6.3 3.5 4.3 1.8 11 5.6 15.3 4.8 5.4 13.5 8.7 19.5 12.7 7.5 4.8 14.4 10.4 20.8 16.6 12.2 12.1 22.4 27.4 27.4 43.9 5.3 17.6 3.5 36.8.5 54.7-3 18.5-6 38.3-12.6 55.8-3.3 8.9-11.5 19.3-10.7 29.2.3 3.4 2.1 6.7 6 5.6s6.5-7.8 7.9-11.1c4.5-10.7 8.2-21.8 11-33.1 9-34.6 18.5-76.6 6-111.5-10-28-33.5-48.3-57.5-64.5-27.9-18.9-57.6-35.1-88.7-48.4-37.3-15.8-74.6-31.9-112-47.6-18.5-7.8-37.2-15.3-56.2-21.9-19.7-6.8-39.8-11.5-59.9-16.9-40.4-10.8-80.1-24.9-119.9-38-38.6-12.7-78.2-22.7-116.4-36.8C190.8 14.6 173 7.9 154.5 3.9c-16.2-3.5-36.3-6.6-52.2-.2C87 9.8 79.4 24.3 71.7 37.8c-10 17.6-20.2 35.5-25.2 55.3-4.8 19.3-6.9 39-12.6 58.2-1.8 5.9-5.7 13.5-4.3 19.8 1.6 7 9.9 10.5 15.6 13.6 16.8 9.3 34.3 14.8 52.5 20.4 19.9 6.2 39.3 13.9 59.2 20.3 39.8 13 79.9 25.2 119.8 37.9 79.4 25.3 158.2 52.3 237.5 77.9 16.4 5.3 32.3 11.8 48.7 17.4 18.6 6.3 36 15 54.1 22.5 17.9 7.4 35.2 15.8 52.8 23.9 18.2 8.4 37.1 15 55.2 23.7C742.7 437.4 760 447.1 778.2 454.6 785.5 457.6 757.5 446.1 778.2 454.6z"/><path class="st4" d="M234 227.7c-5.5-36.6-12.3-73-18.8-109.4-3.2-17.8-6.8-35.2-11.8-52.8-2.4-8.5-4.8-17-7-25.5-1.3-5.3-1.2-15.1-4.5-19.5-3-4-7.2-3.5-8.9 1-2 5.1.4 12.1 1.5 17 3.8 16.8 9.5 33 13.5 49.8 8.5 35.7 13.4 72.3 19.8 108.4 1.7 9.8 3.4 19.5 4.8 29.4.8 5.3.7 12.6 3 17.6s8 5.5 10.1-.2c1.8-4.9-1.1-11.4-1.8-16.3C234 227.4 234.3 229.7 234 227.7 229 194.3 234.4 230.5 234 227.7z"/><path class="st4" d="M373 277.3c-8.3-36.8-18.9-72.8-29.4-109-9.8-33.8-17.3-68.4-28.5-101.8-1.4-4.3-3.8-12.8-9-14.2-7.2-1.9-7.2 6.4-5.7 11 2.4 7.2 6.3 13.7 8.6 20.9 2.7 8.6 5.4 17.2 7.8 25.9 5 17.7 8.7 35.8 13.7 53.5 5 17.4 10.2 34.7 14.8 52.2 4.8 18.4 11.5 36.8 14.4 55.5.8 5 .8 12.9 4.5 17 2.5 2.8 5.9 3.5 8.6.6C375.9 285.8 373.9 280.9 373 277.3 365.4 243.4 373.7 280.4 373 277.3z"/><path class="st4" d="M474.1 304.8c-6.1-32.4-14.4-64-18.9-96.8-4.3-31.2-12.8-61.6-17.8-92.7-.8-4.8-.8-10.7-3.3-15.1-2.9-5.1-9-6.4-11 .3-1.5 5.1 1.3 11.6 2.7 16.4 2.2 7.4 3.7 15 5.3 22.5 7.1 32.6 12.3 65.4 16.7 98.5.0-.3.0-.3.0.0-.1-.4-.2-.7-.1-1.1 2.9 21.2 9.3 42.1 14 63 1.2 5.2 1 21.5 8.4 21.8 9.4.4 4.7-12.8 3.8-17.7.1.6.2 1.2.4 1.9C474.2 305.6 474.1 305.2 474.1 304.8 468.6 275.4 474.9 308.7 474.1 304.8zM458.7 235.9C458.8 236.3 458.7 236 458.7 235.9z"/><path class="st4" d="M448 238.4C447.8 237.2 448.3 240.8 448 238.4 447.9 238.3 448 238.6 448 238.4z"/><path class="st4" d="M447.9 237.8"/><path class="st4" d="M447.6 235.6c-.1-.5-.1-1-.2-1.5C447.4 234.6 447.5 235.1 447.6 235.6z"/><path class="st4" d="M586.3 351.7c-8.7-36.1-14.6-72.8-21.1-109.3-5.5-30.9-12.9-61.2-18.9-91.9-1-4.8-2.5-19-8.8-20.3-11.5-2.4-2.3 23.7-1.4 27.5 9.2 36.2 15.9 72.5 22 109.2 3.4 20.1 8.1 39.9 11.6 59.9 1.5 8.9 2.5 18.3 5.8 26.7 2.8 7.4 12.4 5.4 10.6-2.7C586.1 350.9 586.4 352.1 586.3 351.7 570.9 287.7 586.6 352.9 586.3 351.7z"/><path class="st4" d="M680.7 381.2c-3-37.4-10-74.4-16.2-111.3-3.1-18.8-6.5-37.6-10.6-56.3-1.8-8-3.6-16-4.6-24.1-.5-3.8.6-14-2.8-16.8-4.8-4-8.7 3.2-9.1 7.1-.7 7.5 2 16.1 3.3 23.3 3.2 17.2 7 34.3 10 51.6 6.3 36.3 13.2 73 17 109.7 1 10 1.6 20 2.6 30 .4 3.5.7 10.7 5.1 11.8 11.1 2.8 5.5-21.3 5.2-25.9C680.6 380.7 680.9 383.5 680.7 381.2 678 347.1 681 384.8 680.7 381.2z"/><path class="st4" d="M780.8 440.1c-14.1-70.6-25.3-141.9-40.2-212.4-.8-3.7-2.5-13.2-7.9-13.3-6.8-.2-5.1 9.4-4.1 13.3 3.5 14.5 6.2 29.1 8.7 43.8 6 34.4 11.5 69.1 18.8 103.3 3.8 17.6 7.8 34.9 10.2 52.8.7 5.2 1.1 14.6 5.9 17.9 5.2 3.5 9.4-1 8.4-6.3C780.6 439.3 780.9 440.6 780.8 440.1 767.6 374.1 781.1 441.4 780.8 440.1z"/><path class="st4" d="M140.8 205.4c-7.1-29.3-18.2-58-27.3-86.8-4.3-13.7-8.5-27.3-13.5-40.7-4.8-12.7-10.2-24.5-12.9-37.7-.6-3-3-8.3-7-6.9-3 1-3.8 6.5-3.9 9.1C75.5 54.2 83.3 67.3 88 77.8c11.7 26.5 19 55.7 27.1 83.5 2.4 8.2 4.9 16.4 7.6 24.5 2.1 6.6 3.4 14.1 6.7 20.3C133.3 213.5 142.6 212.6 140.8 205.4 136.9 189.2 141 206.5 140.8 205.4z"/><path class="st4" d="M391.3 700.9c1.6 14.9 3.5 29.8 5.2 44.7 1.1 9.5.4 20.4 3.4 29.6 3.7 11.5 14.1 11.3 24.6 12 15.2 1 30.5 1.2 45.8 1.1 30.7-.1 61.5-.2 92.1-1.7 29.5-1.5 58.9-4.5 88.3-6.7 29-2.2 57.7-6.1 86.5-9.3 7.5-.8 15-1.5 22.5-2.5 3.6-.5 8.4-.6 11.1-3.3 2.6-2.6 2.5-6.3 2.3-9.8-.3-8.3-1.7-16.7-2.7-25-1.8-14.9-3.3-29.8-4.7-44.8-1.1-12.2-.4-25.8-3-37.8-2.5-11.6-11.6-12.3-22-12-14.3.5-28.7.2-43 .6-67.3 1.6-134.9 3-201.6 12.2l-7.6 1c.4.0.7-.1 1.1-.2-9.5.0-19.3 2.4-28.8 3.2-15.9 1.3-31.9 2.3-47.8 3-10.3.4-24.5.2-24.5 13.5.0 11.2 1.8 22.7 3.1 33.8-.1-1.2-.3-2.3-.4-3.5C391.2 699.7 391.3 700.3 391.3 700.9 393.2 718.4 390.6 694.6 391.3 700.9zM411.4 775.7C411.4 775.7 411.8 776 411.4 775.7zm351.1-16.5C762.5 759.2 762.4 759.5 762.5 759.2zM499.2 659c-.5.1-1.1.2-1.6.2L499.2 659zM4e2 667.4c7.8 1.1 15.8-.8 23.6-1.6 8.9-.9 17.9-1.3 26.8-1.8 19.1-1 38-3.6 57-6.2-.4.0-.9.1-1.3.2 10.9-.2 21.9-2.2 32.7-3.1 15.7-1.3 31.5-2.5 47.2-3.8 32.6-2.6 65.3-4.2 98-4.5 16-.1 32 0 48 0 4.2.0 14.4-1.9 18 .7 3.1 2.2 2.5 10.5 2.7 13.8 2.2 31.9 5.5 63.9 9.6 95.6-63.1 6.1-126.2 13.2-189.5 17.3-30.8 2-61.6 3.2-92.5 3-15.8-.1-31.7-.5-47.5-1.1-5-.2-14.5 1.3-19.1-.9-3.1-1.5-3.5-4.9-4.1-8.3-2.7-15.5-3.2-31.9-5.3-47.6C402.2 702.1 399.6 684.8 4e2 667.4c.6.0.4 1.8.3 2C399.9 668.8 399.8 668 4e2 667.4 408 668.5 399.9 672.1 4e2 667.4z"/><path class="st4" d="M144.9 812c30.4-.2 60.8-3.2 91.2-3.7 30.2-.5 60.2.1 90.5-1.7 11.5-.7 23.3.9 24.1-13.6.8-13.8.0-27.9.0-41.7.0-14.2-.6-28.5.3-42.7.7-10.9 5.4-29.5-.7-39.4-4.4-7.2-15.1-5.2-22.1-5-15.4.5-30.8.5-46.1.7-30.3.3-60.7.7-91 .6-29.5.0-59.1-.5-88.5-1.3-8.6-.2-25-1.9-30.7 6.6-1 1.6-.5 2.8-1.3 4-.6.9-1.9.9-2.5 2.1-1.3 2.6-1.6 5.3-1.8 8.2-.4 6.8.2 13.7.2 20.5.0 17.3.9 34.7 1.7 52 .4 8.7.8 17.3.9 26 .1 6.1-.8 13.4 1 19.4 3.9 13.3 22.9 9 33.4 9.1 14.4.1 28.9.1 43.4.0h-3.4L144.9 812zM340.9 673.8v0zM80.4 800.5c-.5-.6000000000000227.0.0.0.0s0 0 0 0zM92 800.9c-2.8.0-7.6 1.1-9.9-.9-3.4-2.9-2-10.8-1.9-14.7.3-14.6-.1-29.3-1.2-43.9-.5-5.8-2.3-11.3-2.2-17.1.0-5.5.7-11 .7-16.5.0-6.5.2-12.9.3-19.4.0-2.5-.9-6.9.8-9.1s6.6-2.8 9-3.2c7-1.2 14.1-1.1 21.2-.9 13.7.3 27.4.0 41.1.3 27.5.7 55.1 1 82.6 1 28.5.0 56.9-.9 85.3-1.2 5.1.0 21.5-3.3 23.2 2.7 1.2 4.4-.4 11.4-.6 16-.3 7-.6 14.1-.7 21.1-.1 5.4 2 10.6 1.8 15.9-.1 2.6-1.4 4.5-1.9 6.9-.6 3.1-.1 6.4.0 9.6.4 13.7-.5 27.5.0 41.2.1 3.8 1.2 5.3-2.3 6.5-4.3 1.5-12.7.1-17.4.5-14 1.3-28 1.3-42 1.3-62.3-.3-124.5 4.4-186.8 3.8h2.3L92 800.9v0z"/><path class="st4" d="M331.1 870.4c-42.7 2.9-85.5 2.5-128.2 2.4-20.9.0-41.8-.1-62.8.2-3.5.0-33.8.8-24.1 10.9 2.6 2.8 9.1 1.3 12.4 1 10.4-1.1 20.9-1.6 31.4-1.5 21.1.2 42.2.6 63.3.6 42.8.1 85.6-2.1 128.4-3.7 85.4-3.2 171.3.2 256.5-8.5 20.7-2.1 41.4-3.8 62.2-5.3 10.2-.7 20.5-1.7 30.7-2.7 4.4-.4 17 0 17.5-7.1.9-10.5-37.5-2-42.8-1.5-21.3 2.1-42.6 3.3-63.9 5.4-94 9.6-188.3 3.1-282.4 9.9l3.7-.2L331.1 870.4C289.6 873.2 337.8 869.9 331.1 870.4z"/><path class="st4" d="M179.2 943.4c82-.5 164.1-.3 246.1-2.2 81.3-1.8 163-2.2 243.8-12.5 9.9-1.3 19.9-2.3 29.9-3.5 3.6-.4 11.1-1.1 12.9-4.9 5.3-11.5-25.1-5-29-4.6-40.3 4.5-80.8 8.4-121.3 10.8s-81.2 2.2-121.8 3.2c-41.4 1-82.6 2.5-124 2.5-46.5.0-93-.4-139.5.0-6.8.0-44.2-3.8-41.8 8.9 1.4 7.6 17.4 3.5 22.3 3.2 8.9-.6 17.8-.9 26.8-1-1.9.0-3.7.0-5.6.0L179.2 943.4C260.3 943 173 943.5 179.2 943.4z"/><path class="st4" d="M682.7 972v0z"/><path class="st4" d="M683.6 982.9v0z"/><path class="st4" d="M684.1 982.9l1.7-.2C680.7 983.4 686.1 982.6 684.1 982.9z"/><path class="st4" d="M710.7 967.9c-9.3.0-19.1 2.8-28.3 4.1.5-.1.2.0-1.1.1.2.0.4.0.6-.1-34.4 4.8-69.5 4.5-104.2 4.8-36.2.3-72.4 2.4-108.6 4.1-72.5 3.3-145 5-217.5 5.2-17.1.0-34.2.2-51.3-.6-7.9-.4-15.8-.8-23.6-.5-4.9.2-16.7-.8-19 5.1-4.5 11 19.7 7.3 24.2 7.1 17.2-.7 34.5.0 51.7.0 72.1.0 144.2-.4 216.2-4.6 40.3-2.4 80.6-4.5 121-4.6 37.7-.2 75.2.3 112.3-4.9l-.5.1c6.3-.8 13.1-1.4 19.7-2.9-.4.0-.8.1-1.2.1 3.4-.5 9.3.0 12.2-2.1C717.1 975.4 716.2 967.9 710.7 967.9z"/><path class="st4" d="M682.9 972C682.4 972.1 682.8 972 682.9 972z"/><path class="st4" d="M682.5 972"/><path class="st4" d="M153.4 734.1c43 0 86-.6 128.9 1 16.4.6 33.6 2.8 49.9 1.9 3.7-.2 11.3-1.7 9.9-7.3-1.1-4.2-7.2-4.3-10.6-4.5-37.2-2-75.1-2.1-112.4-2.2H156c-18.2.0-36.6.9-54.7-.5-6.2-.5-14.5-2-20.4.5-7.6 3.3-4.4 8.9 2 10.6 10.1 2.6 23.2.7 33.6.6C128.8 734.3 141.1 734.1 153.4 734.1z"/></g></g></g></svg>