<svg xmlns="http://www.w3.org/2000/svg" width="1080" height="1445.74" viewBox="0 0 1080 1445.74"><g id="Слой_2" data-name="Слой 2"><g id="Слой_2-2" data-name="Слой 2"><path d="M1076.31 513.09a16 16 0 0 0-6.17.0c-16.58 3.16-31.79 9.39-43.17 22.44-14.51 16.65-28.58 33.88-46.85 46.4-34.88 23.9-68.71 49.22-105.57 70.36-38.44 22-74.72 47.94-111.73 72.46-6.16 4.09-11.57 9.49-16.79 14.82q-43.57 44.64-86.85 89.58c-9.78 10.18-20.26 20-28.28 31.53-33.32 47.87-65.77 96.36-98.68 144.51-5.63 8.25-11.91 16-18.06 23.92-.85 1.1-2.67 1.43-4 2.12-.49-1.44-1.37-2.87-1.39-4.32a24.23 24.23.0 0 1 .89-6.19c5.21-21.07 9.65-42.39 16-63.11 4.25-13.85 10.79-27.07 17.13-40.17 8-16.48 16.92-32.5 25.25-48.81 10.61-20.76 20.41-42 31.7-62.35 11.86-21.4 20.7-43.82 24.08-68 2.67-19.12 2.56-38.53-6.76-56.39-13.16-25.22-12-52.43-11-79.56a14.83 14.83.0 0 1 4.63-9.44c21.79-19.26 44.4-37.41 69.37-52.48 43.65-26.35 88.78-50.2 130.29-80.19C837 441 863.86 422 884 395.51c31.57-41.45 46.64-88.89 47.45-141 .34-22.14.0-44.31 1-66.42a139.45 139.45.0 0 1 5.06-30.8c12.64-45.76 39.27-81.46 78.12-108 11.63-7.93 23.58-15.41 35.14-23.45a27.9 27.9.0 0 0 8.32-8.92c1.08-1.95-.42-5.36-.75-8.12-2.47.79-5.18 1.15-7.34 2.46-7 4.25-13.34 10.22-20.85 13a263.66 263.66.0 0 1-41.65 12.08c-38.41 7.46-75.4 19-110.85 35.71-7.08 3.34-14.67 5.61-22.06 8.25-63.87 22.86-113.55 61.52-142.58 125.43-10.26 22.59-25.47 42.9-38.42 64.25-3.18 5.25-5.44 5-8.31-.61-6.87-13.33-14.92-26.06-21.23-39.63-12.32-26.46-23.88-53.28-35.55-80-5.33-12.21-11-24.35-15.12-37C583.2 78.24 572.83 43.47 561.76 8.93c-1.09-3.39-4.64-6-7-8.93-.67 3.78-2.24 7.65-1.85 11.32 1.58 14.87 4.66 29.63 5.53 44.53 1.62 27.77-1.15 55.1-12.69 80.85-9.18 20.48-18.54 40.88-27.92 61.27-9.58 20.84-19.8 41.39-28.81 62.47-17.36 40.58-29.75 82.5-29.66 127.25.05 26.9 1.75 54.14 12.82 78.64S497.27 514.42 512 537c16.82 25.78 36.94 49.38 53.66 75.21 14.44 22.31 25.86 46.59 39.17 69.67a77.08 77.08.0 0 1 10.63 40.57c0 24.32-6.44 47.1-16.33 69-4.43 9.8-6.41 10.09-15.72 5.49-12.63-6.23-25.32-12.38-38.23-18-6.55-2.85-11.06-6.72-13.05-13.85-4.13-14.88-9-29.56-12.93-44.49-10.82-41.09-17-83.37-33.86-122.92-11.64-27.29-21.35-55.5-39-79.57-24.86-33.91-49.7-67.9-76.14-100.54-36-44.44-70.4-90-95.92-141.39C262.79 253 246.88 237 222.48 229.5c-2.75-.86-5.28-2.49-8.06-3.25-3.23-.88-6.61-1.21-9.93-1.78 2.22 2.6 4.17 5.53 6.73 7.7 2.17 1.84 5 2.91 7.63 4.16a60 60 0 0 1 25.41 23.36c14.48 23.85 29.57 47.45 37.42 74.75 10.38 36.11 22.28 71.83 31.21 108.29 11.32 46.19 19.45 93 38.18 137.3 18 42.66 42 80.43 76.42 111.24 26 23.27 51.7 46.91 78 69.89 11.13 9.73 23.06 18.12 37.65 22.94 12.85 4.24 24.72 11.58 36.94 17.71 2 1 3.84 2.1 4.74 3.72a8.23 8.23.0 0 1 1.79 6.19c-.75 9.65-5.72 17.95-10.49 26.12-3.69 6.32-7 12.84-11.1 18.86-9.15 20.84-18.75 41.48-30 61.37a255.86 255.86.0 0 0-27.56 73.55c-2.83 13.43-3.73 27.27-5.65 40.91-.55 3.9-1.42 8.53-6.64 3.55-29.12-27.8-58.9-54.94-87-83.76-19.49-20-36-42.81-44-70.44-4.95-17.22-9.26-34.66-13.17-52.15-4.08-18.34-5.95-37.29-11.21-55.24-17-58-46.41-108.06-96.47-143.4-17.24-12.18-35.65-22.68-53.56-33.89-21.85-13.66-45-24.57-68.29-35.6C96.94 550 69.28 545.22 47.56 527.27c-8.91-7.37-18.9-13.39-28.22-20.26-4.33-3.2-8.11-7.18-12.46-10.34-1.34-1-4.26-1.17-5.56-.32-1.09.71-1.68 3.8-1.08 5.25 1.88 4.59 3.68 9.56 6.84 13.2 11.46 13.18 23 26.31 35.35 38.67C61.18 572.28 80.9 590.12 99.64 609c24.94 25.08 41.27 55.6 49.73 89.75 7.42 30 12.18 60.6 18.19 90.92 8.59 43.39 31.62 76.53 69.43 99 12.84 7.61 26.08 14.55 39 22.07 7.86 4.59 15.08 10.42 23.19 14.43C320.27 935.52 341.82 945 363 955.33c17.88 8.71 35.54 17.9 53.15 27.17 11.71 6.17 24.34 11.37 34.47 19.62 16.06 13.07 30.23 28.49 45.52 42.57 4.29 3.94 5 8.36 4.61 13.5-3 36.76 2.31 72.65 12.74 107.66 6 20.32 13.84 40.19 22 59.76 8.51 20.4 18.45 40.19 27.64 60.31.75 1.64.49 3.75.71 5.64-1.6-.1-3.31.14-4.78-.37a45.48 45.48.0 0 1-6.69-3.19c-20.39-11.06-40.82-22-61.12-33.28a81 81 0 0 1-10.66-6.59l-.17-.08a11.61 11.61.0 0 1-3.1-1.12 8.37 8.37.0 0 1-2.59-2.29c-4.61-2.6-8.83-5.87-13.64-8.12a39.07 39.07.0 0 1-7.44-4.13 10.1 10.1.0 0 1-5.31-2.7v-.06a8.4 8.4.0 0 1-5-4.81c-.34-.25-.68-.49-1-.78-29.74-25.56-57.93-52.43-78.66-86.41-11.06-18.13-21-37.54-35-53.11A529.35 529.35.0 0 0 262.59 1022c-38.84-30.53-80.24-57.73-119.43-87.83-27.53-21.15-54.83-42.72-71.6-75.22C55.42 827.72 39.7 796.74 35.8 761.05a168.56 168.56.0 0 0-4.51-23.33c-.59-2.33-3.37-4.09-5.15-6.11-1.68 1.61-4 2.93-4.89 4.9a30.35 30.35.0 0 0-3 10.77c-.45 10.36-.36 20.75-.33 31.13.13 42.53 11.43 83.49 17.5 125.18C38.65 925.87 45.11 947.68 48 970c2.58 19.67 5.55 38.76 15.45 56.26 16.2 28.64 30.26 58.71 48.54 85.9 26.43 39.33 65.78 61.43 110.57 73.85 20.32 5.64 41.15 9.57 61.26 15.87 22.9 7.16 45 17.13 67.94 24s46.31 13.91 69.93 16.19c24.67 2.37 46.48 11.14 67.83 21.68 26.74 13.2 52.65 28.13 78.64 42.83a31.58 31.58.0 0 1 11.83 11.9c5.85 11 10.48 22.71 15.49 34.18 12.18 27.9 24.26 55.84 36.47 83.72a66.39 66.39.0 0 0 5 8.63 2.25 2.25.0 0 0 2.08.7 2.29 2.29.0 0 0 1-2 20.81 20.81.0 0 0-1.4-4.74c-15-34.83-29.4-69.94-45.44-104.27a21.66 21.66.0 0 1-1.51-4.66 7.3 7.3.0 0 1-1.4-3.16 42.85 42.85.0 0 0-2.58-8.12 37.32 37.32.0 0 1-2.27-10 6.66 6.66.0 0 1 0-.77c-.39-1.42.74-5 2-6.43 4.58-5.25 9-11.24 14.81-14.66 11.4-6.7 23.3-13 35.69-17.47 44.08-16 81.37-42.86 115.58-74a478 478 0 0 0 85.24-102.3c14.35-23.23 26.49-47.09 31.67-74.33a393.66 393.66.0 0 0 6.86-62c0-.1.0-.2.0-.29-1.64-5.71-3.12-11.52-3.08-17.29-3.44-13.17 1.08-25.61 10.23-36.52 4.95-5.89 10.91-10.95 16.07-16.68 1.78-2 3.55-4 5.33-6-2.91-.24-5.83-.61-8.74-.57-1.1.0-2.17 1.13-3.26 1.72-16.41 9-30.11 21.25-43.72 34.13-18.65 17.66-37.86 35.27-59 49.53-31.3 21-64.63 39-96.94 58.53-8.11 4.91-16.92 9.62-23.2 16.49-25.27 27.66-49.65 56.15-65.1 91-12.2 27.54-23.52 55.25-24.76 86.1-.86 21.29-2.72 42.54-4.3 63.79-.27 3.58-1.42 7.09-2.17 10.63-2.46-3.05-5.63-5.76-7.27-9.2-9.32-19.59-18.86-39.1-27.17-59.13-8-19.21-15.25-38.8-21.48-58.65-3.7-11.81-3.93-24.7-7.26-36.67a168.38 168.38.0 0 1-5.57-58.35c.91-12.21 4-23.72 16.13-30.49a234.07 234.07.0 0 0 23.57-15.57c9-6.58 17.11-14.75 26.68-20.35 39.72-23.23 76.79-50.73 118.12-71.52 34-17.1 66.26-37.82 98.75-57.82 47.07-29 88.64-64.49 121.48-109.62 22.54-31 45.18-61.91 66.66-93.64 10.68-15.77 19.17-33.1 28.06-50 13.71-26.11 26.64-52.63 40.48-78.67a41.16 41.16.0 0 1 26.7-20.94c1.6-.42 3.37-.62 4.69-1.49s1.89-2.34 2.8-3.56C1078.78 514.79 1077.66 513.38 1076.31 513.09zM977.41 73.67C956 95.52 942.09 122 933.84 151.13a211.56 211.56.0 0 0-7.12 45.51c-1.26 22.45.82 45.13-1 67.51-5 64.06-27.4 119.7-78.75 161.22-41.44 33.52-86.1 61.85-132.12 88.26-19 10.93-37.75 22.48-56.64 33.69-4.24 2.52-8.64 4.77-11.94 6.58h-3.6c.57-1.36.79-3.07 1.75-4 12.12-11.93 23.41-25 36.72-35.36 32.37-25.28 66-48.86 98.55-73.94 51.18-39.48 89-89.33 110.17-151.1 8.92-26 16.72-52.39 23.89-78.92 3.45-12.78 4.57-26.26 6.2-39.49 2.77-22.54 12.54-42.18 24-61.15 5.19-8.55 10-17.43 16.12-25.26 4.16-5.33 10.23-9.17 15.57-13.52.72-.59 2.16-.28 3.27-.4A12.27 12.27.0 0 1 977.41 73.67zM676.59 504.76c41.93-32.69 76.6-72.52 109.36-114.1 30.34-38.51 50.53-82.13 62.06-129.92a159.28 159.28.0 0 1 8.32-26.22c10.82-24.85 22.19-49.45 33.57-74.05a59.89 59.89.0 0 1 7.91-12.7c15.06-18.32 30.35-36.45 45.63-54.58 1-1.23 2.62-2 3.94-2.93.19.62.37 1.25.62 2.07-.86 1.27-1.9 2.59-2.7 4-7.08 12.71-14.34 25.34-21.11 38.22-8.9 16.9-11.93 35.74-13.63 54.25-2.67 29-10 56.71-19.9 83.77-9.76 26.61-19.93 53-35.09 77.29C828.79 392.79 792.89 426.09 752 454.7c-24.13 16.88-47.4 35-71 52.61-3.66 2.73-7.1 5.77-10.82 8.4-1.06.75-2.76.56-4.17.8.53-1.07.82-2.37 1.61-3.17A95.9 95.9.0 0 1 676.59 504.76zM674 496.65c2.46-4 4.55-8.28 7.43-11.93 41.34-52.33 69-111.9 90-174.83 11.52-34.44 21.92-69.25 39.89-101.1 12.93-22.89 25.82-45.78 45.16-64 17.89-16.87 37.28-31.67 59.14-43 4-2.1 7.86-4.64 11.92-6.69 1-.49 2.49.14 4.61.33-1.6 2.45-2.4 3.91-3.42 5.19-5.7 7.17-10.83 15-17.33 21.3-17.09 16.67-27.8 37.23-37.24 58.74-5.36 12.21-11.43 24.13-16.32 36.53-5.8 14.7-12 29.46-15.7 44.76-12.77 52.23-37.09 98.16-71.39 139C745 431.53 718.24 461.19 688 487.42a18.11 18.11.0 0 1-1.86 1.66C682.1 491.63 678 494.13 674 496.65zm4.32-226c10.44-13.44 20.77-27 30.22-41.19a48.46 48.46.0 0 1 6.73-12c1.46-3.23 2.78-6.55 4.05-10a28.15 28.15.0 0 1 4.26-8c1.16-2.69 2.4-5.33 3.81-7.87 6-10.82 12.63-21.54 20.5-31C772.18 131.3 801.22 108 836.52 93.7c34.54-14 69.17-27.78 104.33-40 18.27-6.34 37.78-9 56.75-13.34 1.2-.27 2.52.0 5.68.0-3.14 2.72-4.53 4.28-6.22 5.34-22.15 13.79-44.13 27.88-66.59 41.14-20.32 12-41.18 22.91-60.13 37.35-32.8 25-52.62 59.45-71.2 95.11-17.84 34.27-26.64 71.91-39.76 107.92-24.12 66.21-56.85 127-104.51 179.18-9.49 10.39-17.43 22.23-26.26 33.26-1 1.29-3.15 1.69-4.76 2.5a37.3 37.3.0 0 1 .88-4.62Q641.91 485.24 659.16 433c3-9.11 7.07-17.94 9.25-27.23a299.86 299.86.0 0 0 4.12-114.51C671.28 283.11 673.34 277 678.32 270.61zm-101 349.06c-20.51-28.3-41.86-56-61-85.23-14.82-22.56-28.57-46.18-39.59-70.8-6.8-15.2-7.76-33.12-10.95-49.89-1-5.29-.72-10.82-1-16.25.38-28 3-55.61 10.67-82.86 13.19-46.68 36.52-88.56 58.06-131.35 4.3-8.54 8-17.39 12.09-26a25.7 25.7.0 0 1 2.85-4c-.05 1.83.37 3.82-.2 5.46-5.71 16.51-11.59 33-17.42 49.43-14.88 42.06-30.07 84.06-38.21 128.13-6.75 36.53-8.27 72.93 4.61 108.79 11 30.59 20.31 61.83 32.31 92 5.75 14.45 15.76 27.23 24.26 40.48S571.32 603.78 580 617c.78 1.19.59 3 .85 4.59C579.66 620.93 578 620.65 577.3 619.67zM588 617c-.76-.91-1.6-1.76-2.28-2.73-11-15.57-22.36-30.93-32.92-46.81a215.76 215.76.0 0 1-17.27-30.36 583.41 583.41.0 0 1-40.29-123.42c-4.64-22.8-2-45.68 1.56-68.5 5.23-33.61 16-65.65 26.5-97.77 6.34-19.41 12.48-39 20.21-57.83 9.58-23.35 16.15-47.24 18.42-72.39.13-1.48 1.22-2.87 1.86-4.3.65 1.47 1.68 2.9 1.88 4.44 3 22.76 5.87 45.55 8.91 68.32 3.66 27.31 7.85 54.57 11.06 81.94 2 16.56 2.64 33.29 3.61 50 1.28 22.11 2.27 44.24 3.5 68.57-1.19 21.58-3 45.35-3.7 69.16q-1.8 62-2.32 124.09c-.11 11.22 1.79 22.46 2.61 33.7C589.42 614.37 588.47 615.72 588 617zm7.41-85.24c-.47 1.11-1 2.17-1.55 3.26-.44-1.34-1.27-2.67-1.28-4-.08-19.65-.05-39.3-.05-58.94H593a12.51 12.51.0 0 1 .42-5.28c.08-.23.17-.42.25-.63 1.39-30.19 4.11-60.43 3.12-90.54-1.87-57.59-5.44-115.09-14.92-172.17-6.9-41.57-10.51-83.7-15.55-125.59a40.61 40.61.0 0 1-.22-6.24c0-.72.66-1.43 1-2.15.93.52 2.49.87 2.69 1.59q2.57 9.65 4.7 19.4c2.83 13 4.93 26.2 8.39 39 9.36 34.64 18.63 69.32 29.15 103.61 11.23 36.61 18.79 73.72 18.37 112.09-.18 16.21-2.24 32.45-4.12 48.6-5.33 45.81-19.14 89.76-29.54 134.46A21.57 21.57.0 0 1 595.4 531.79zm7.23 44.09A39.47 39.47.0 0 1 600.4 580c-.63-1.71-1.92-3.49-1.77-5.13 1.35-14.5 1.74-29.24 4.75-43.4 6.51-30.57 15.46-60.63 21.44-91.29 6.21-31.87 11.94-64 11.7-96.74-.25-34.92-6-68.86-15.72-102.3-9-30.81-17.09-61.88-25.69-92.8-2-7.23-4.51-14.31-6.68-21.5a14.22 14.22.0 0 1-.14-3.59c1.09.81 2.67 1.38 3.17 2.47 12.59 27.18 24.95 54.48 37.6 81.64 6.86 14.73 12.81 30.14 21.56 43.67 16.91 26.13 21.66 54.63 22.72 85.19-3.1 22.21-4 45-9.77 66.51-9.46 35.39-21.42 70.14-33.5 104.75C622 530.63 611.87 553.1 602.63 575.88zm-313-255.47c1 .26 2.41.19 2.93.84 2.87 3.56 5.48 7.32 8.25 11q38.55 50.6 77.11 101.18c19.87 26.17 40.14 52.06 59.19 78.82a288.21 288.21.0 0 1 25 43.15c17.22 36.15 31.51 73.52 40.41 112.73 3.87 17 6.7 34.33 10.11 51.49.86 4.36 2.13 8.67 3.82 15.36-.83-.56-1.91-1-2.37-1.75-5.33-8.91-9.93-18.35-15.92-26.79-31.14-43.82-58.53-90-85.06-136.73-11.7-20.59-20.56-42.8-31.18-64-12.85-25.69-26.39-51-39.28-76.71-8.4-16.75-15.94-33.94-24.28-50.73-8-16-16.47-31.78-24.74-47.65-1.34-2.58-2.76-5.13-4-7.77C289.26 322.13 289.56 321.21 289.58 320.41zM515.08 762.1c-23.63-20.28-47.57-40.21-70.57-61.21-15-13.69-28.7-28.84-42.76-43.56-21.1-22.09-32.69-49.91-45.35-77.15-20.28-43.6-27.46-90.8-38.39-137-7.19-30.42-16.91-60.22-25.58-90.28-1.5-5.21-3.48-10.28-5.07-15.46-.37-1.24-.05-2.69-.05-6.07 2.36 3.18 3.52 4.36 4.25 5.77 8.79 17 17.66 34 26.23 51.12C345 442.63 372.45 497 399.22 551.6c22 45 47.88 87.7 76 129 16.89 24.83 32.94 50.1 45 77.76.9 2.07.83 4.58 1.21 6.89C519.26 764.23 516.82 763.59 515.08 762.1zM97.57 556.77c1.27.5 2.43.92 3.57 1.4 43.55 18.47 85.49 40.13 125.25 65.84 56.31 36.4 91.28 88.61 108.56 153.25 4 14.88 6.37 30.21 9.12 45.41 4.48 24.68 9.73 49.12 19.52 72.33a19.77 19.77.0 0 1 .77 4.55c-1.11-1.08-2.31-2.07-3.32-3.24-11.34-13-19.16-28.11-25.75-44C322 820.37 308 788.73 295.35 756.56c-17.85-45.23-41.28-86.8-78.05-118.94-21.49-18.79-44.29-36-70.91-47.81-16.83-7.48-31.91-19-47.73-28.79a8.53 8.53.0 0 1-2.29-2.85C96.28 558 97.14 557.26 97.57 556.77zm-47.9-13.08c-1.05-.82-1.4-2.57-2.07-3.88l2.7-.52c2.24 1.24 4.85 2.51 7.29 4.05 24.47 15.44 48.9 31 73.4 46.35a119.1 119.1.0 0 0 13.08 7.13c48.62 22.71 86.89 57.65 116.44 102.25 9.36 14.13 16.62 29.89 23.34 45.56 17.9 41.75 34.72 84 52.6 125.75 4.05 9.46 10.53 17.9 16.16 26.63 5.84 9.06 12 17.88 18 26.88.62.92.57 2.3.83 3.47-1.33-.41-3-.42-3.95-1.29-16-15.08-32.24-29.9-47.7-45.52-30.88-31.18-52.46-68.63-69.87-108.7-11.62-26.76-22.56-53.82-34.31-80.52-8.73-19.81-23.39-35.21-38.35-50.36-27.09-27.46-59.54-47.65-90.86-69.44C73.79 562.77 61.83 553.08 49.67 543.69zM388.81 960.45c-5.4-2-10.69-4.39-16-6.61l-40-16.58a37 37 0 0 1-4.59-1.85c-15.23-9.08-30.34-18.36-45.63-27.32-15-8.8-30.09-17.52-45.36-25.85-22.65-12.34-39.24-30.93-50.51-53.55-5.58-11.2-6.46-24.84-9.12-37.45-6.88-32.61-12.19-65.65-20.73-97.81-9-33.95-27.2-63.35-51.71-88.59-5.77-6-11-12.45-16.19-19-1.27-1.59-1.34-4.16-2-6.28 1.84.64 3.92.92 5.48 2 25.07 17 50.64 33.21 72.78 54.24 18.48 17.54 36.36 35.57 47 59.25 9.22 20.53 17.73 41.4 26.15 62.28 20.66 51.21 48.22 98 87.58 136.86 17.72 17.5 36.77 33.62 55.05 50.55 4.19 3.88 7.68 8.51 12.59 14C391 959.74 389.67 960.78 388.81 960.45zm39.11 275.45a59.65 59.65.0 0 1-6.14.0c-5-.87-12.41-1.73-19.62-3.53-35.74-8.88-71.1-18.77-105.68-32-24.24-9.25-50-14.29-75.09-21.4-40.92-11.6-75.61-32.08-101.57-67.49-23.08-31.47-40.57-65.89-57.39-100.79-3.71-7.71-5.1-16.7-6.73-25.27-5.13-27.05-10-54.16-14.73-81.27-2.54-14.4-4.76-28.85-7.07-43.29a18.31 18.31.0 0 1 .18-3.68c.85 1.08 2.09 2 2.5 3.25C44.36 883.83 51 907.6 60 930.47c17.81 45.53 38.89 89.28 69.22 128.17 18.18 23.31 39.74 42 63.47 59.1 24.59 17.76 49.38 35 75.31 50.71 25.76 15.65 54 25.38 81.24 37.34a447.08 447.08.0 0 0 78.88 25.76c1.64.37 3 2.13 4.44 3.24C431 1235.17 429.47 1235.67 427.92 1235.9zM59 897.42a25.84 25.84.0 0 1 3.54 3.11c22.74 28.69 45 57.74 68.23 86.05 31.41 38.33 64.7 75 101.47 108.18 20.65 18.66 40.95 37.92 63.15 54.55 21.83 16.36 44.91 31.19 70.27 42.12 13.57 5.85 26 14.5 38.81 22 1.32.77 2.15 2.39 3.21 3.61l-6.22 1.75c-21.75-8.55-45.09-16.93-67.76-26.86s-45.18-20.63-67-32.48c-17-9.27-32.95-20.66-49.16-31.43-7.24-4.81-13.68-10.85-21-15.58-45.14-29.31-77.44-69.63-100.47-118.14C83.61 968 68.56 942.86 61.54 914.16c-1-4.06-2.21-8.06-3-12.15C58.21 900.57 58.78 899 59 897.42zM426.74 1221c-7.73-4.82-15.27-10-23.12-14.62-11.38-6.73-22.5-14.25-34.57-19.41-33.51-14.33-63.2-34.53-91.07-57.72-49.3-41-93.92-86.94-135.42-135.85-23.91-28.2-46.32-57.71-69-86.92-14.52-18.66-22.69-40.61-30-62.87-3.64-11.08-7.06-22.24-10.49-33.4a65.3 65.3.0 0 1-1.91-8.53 13.05 13.05.0 0 1 .42-3.62c1 1 2.47 1.88 2.85 3.09 7.64 24.27 22.81 44.25 35.47 65.77C82.28 888 99.13 904.4 117.48 919.12c25.88 20.77 53 40 80 59.24 43.71 31 86.29 63.45 123 102.95 7 7.55 12.7 16.43 18.5 25 13.25 19.66 25 40.5 39.59 59 13.83 17.54 30.53 32.77 46 49 2 2.07 4.12 4 8.41 8.1C429 1221.57 427.68 1221.6 426.74 1221zM870.11 964.19l1.45 4.11c-2.34 33.69-6.37 66-21.69 94.65-14.67 27.43-30.43 54.59-52 77.6-13.91 14.84-26.27 31.29-41 45.2-27.85 26.29-58.18 49.63-92.57 66.67-17.38 8.61-35.79 15.09-53.77 22.44-.93.38-2.22-.14-3.34-.25.45-1.09.66-2.4 1.41-3.21 1.68-1.83 3.6-3.44 5.46-5.1 36.82-33 73.79-65.77 110.41-99 18.75-17 37.28-34.29 55.2-52.17 16.89-16.83 30.09-36.64 41.15-57.81 15.44-29.54 30.59-59.23 45.93-88.83A29.41 29.41.0 0 1 870.11 964.19zm-4.77-17.87c-1.55 6.6-1.83 13.74-4.77 19.48-19.39 37.79-38.48 75.78-59.41 112.7-15.36 27.09-39 47.47-61.59 68.37-20.43 18.9-40.73 38-61.55 56.4-24.53 21.75-49.53 43-74.41 64.31-1.38 1.18-3.53 1.45-5.33 2.15.23-1.93.0-4.06.75-5.78 7.83-18.37 14.88-37.18 24-54.86 8-15.52 19.71-28.57 33.54-39.71 23.7-19.09 49-35.54 75.5-50.35 7.12-4 13.36-9.74 19.54-15.21 8.4-7.43 16.34-15.37 24.5-23.07 25-23.65 46.17-50 58.49-82.9 2.62-7 6.63-13.44 10-20.12 5.45-10.76 10.88-21.52 16.42-32.23a22 22 0 0 1 3.08-3.66C864.55 943.31 864.93 944.78 865.34 946.32zm-11.25-14.24a56.59 56.59.0 0 1 4.26-6.16c.87-1 2.38-1.45 3.6-2.14.0 1.2.44 2.55.0 3.58-4.41 11.23-8.53 22.6-13.53 33.56-6.74 14.78-14.33 29.16-21.27 43.85-13.77 29.11-33.45 53.59-57.14 75a10.76 10.76.0 0 0-1 .79c-21.19 22.89-47.4 38.56-73.75 54.52-18.33 11.1-35.42 24.88-51.26 39.46-20.21 18.6-32.54 42.94-42 68.7-2.15 5.85-4.7 11.56-7.18 17.28-.47 1.07-1.49 1.9-2.88 3.61-.39-1.62-.93-2.57-.75-3.36.53-2.44 1.33-4.83 2-7.24 5.56-19.22 11.62-38.31 16.58-57.68 10.57-41.26 32.24-73.27 70.2-94.06 32.78-17.94 63.53-39.21 90.16-66A639.48 639.48.0 0 0 854.09 932.08zM583 1243.87c.14-56.37 19.23-106.45 50.63-152.06A370.91 370.91.0 0 1 669 1048.3c7.81-8.29 17.87-14.7 27.61-20.82 36.16-22.75 73-44.45 108.75-67.76 14.16-9.22 26.29-21.62 39.38-32.52a31.62 31.62.0 0 1 4.07-2.49c-.51 1.77-.62 3.79-1.59 5.25a689.68 689.68.0 0 1-63.12 81.92c-32.07 35.54-69.66 62.66-110.68 85.76-38 21.38-58.6 55.18-69.35 96.5-4.73 18.17-10.17 36.15-15.55 54.14-.71 2.38-2.95 4.3-4.47 6.44-.38-2.36-.82-4.72-1.1-7.09A31.4 31.4.0 0 1 583 1243.87zM995.9 630.65c-5.48 10.28-10.33 21-16.94 30.55-23.52 33.82-47.17 67.57-71.69 100.65C872.32 809 828.46 846 777.84 875.07c-28.74 16.53-56.25 35.4-85.71 50.43-31.87 16.27-61.84 35.34-91.66 54.87-2.4 1.57-4.89 3-7.23 4.44-.81-.91-1.71-1.73-1.63-1.84a15.31 15.31.0 0 1 2.41-2.73c30.74-26.57 61.18-53.34 97-73.27 46.51-25.86 88.53-58.27 128.18-93.94 11.68-10.5 25.49-18.54 37.84-28.32 31.32-24.82 59.66-52.67 83.46-85.07 17.47-23.79 35.15-47.43 52.78-71.11a17.63 17.63.0 0 1 2.73-2.41C996 627.65 996.53 629.46 995.9 630.65zM593.15 972.7c1.18-3.43 1.28-4.8 2-5.61 5.45-6.28 10.6-12.92 16.64-18.57 25.48-23.83 51.25-47.33 76.87-71 5.5-5.07 11.54-9.74 16.16-15.54 26.55-33.41 61.05-57.3 95.09-81.75 26.28-18.88 53.39-36.67 78.73-56.75 21.1-16.71 40.28-35.92 60.1-54.27 14.63-13.53 28.9-27.46 43.37-41.17a17.82 17.82.0 0 1 3-1.93c-.25 1.38-.06 3.08-.81 4.08-25.64 34.28-48.42 71-78.59 101.51-23.3 23.61-47.78 46-75.15 65.12-19.63 13.74-36.84 31-56.07 45.36-24.2 18.11-49.11 35.29-74.2 52.15-19.27 12.94-39.9 23.86-58.76 37.34-14.42 10.3-27 23.22-40.43 34.93C599.28 968.22 597.23 969.6 593.15 972.7zm447.6-432.27c-3.6 4.88-7.59 9.47-11.32 14.24-1.22 1.56-2.49 3.09-3.76 4.6l-.09.14a21.89 21.89.0 0 1-1.55 2.1 18.62 18.62.0 0 1-1.76 3.7c-16.66 25.43-33.15 51.11-55.19 72.23-23.7 22.71-47.75 45.1-72.52 66.6-17.21 15-35.57 28.61-54 42.07-29.47 21.56-60 41.65-88.91 64-16.31 12.6-30.11 28.47-45.17 42.74-16 15.13-32.18 30-48.11 45.16-20.44 19.47-40.73 39.11-61.06 58.71-19.73 19-39.39 38.13-59.19 57.09-1.18 1.12-3.25 1.29-4.91 1.91a22.23 22.23.0 0 1 1.67-4.44c9.15-14.39 18.2-28.86 27.65-43q28.41-42.62 57.25-85c14.64-21.4 32.54-39.93 50.77-58.23q37.81-37.95 74.54-77c17.63-18.73 39.17-32.13 60.28-45.88 34.38-22.38 70.38-42.24 104.44-65.08 31.64-21.22 61.75-44.78 92.23-67.71 5.88-4.42 10.31-10.8 15.52-16.15a24.51 24.51.0 0 1 3.12-2.61c.46-.57.93-1.14 1.42-1.68.28-.31.59-.58.89-.87.56-.86 1.13-1.73 1.71-2.55 3-4.24 7.22-6.79 11.35-9.77C1038.79 533.73 1042.78 537.68 1040.75 540.43z" fill="#85cee9"/></g></g></svg>