<svg xmlns="http://www.w3.org/2000/svg" width="770.6" height="1080" viewBox="0 0 770.6 1080"><g id="Слой_2" data-name="Слой 2"><g id="Easter85_41690805"><g id="Easter85_41690805-2" data-name="Easter85_41690805"><path d="M536.34 239.83c-21.93-24.77-55.67-32.32-88.15-35C433.25 162.23 424.29 118 409.7 75.33 401.88 52.42 386.3-2 352.86.06c-13.74.83-23.75 16.6-25.9 28.2-3.85 20.75 2.1 42 8.5 61.7 12.9 39.71 32.94 78.68 56.2 114.19-21.16 1.58-42.55 5.89-60 15.48-25.64-47.89-42.5-97.82-64.65-147.1-11-24.44-51.42-73.76-79.87-38.21-31.32 39.15 7 91.48 30.44 124.58 19.89 28.09 41.29 62.73 67.26 87.69-47.52 40.78-48.54 117.86-4 169.6a132.26 132.26.0 0 0 26 23.08c-38 45.76-65.17 102.23-75.43 158.61-2.74 15-4.43 30.81-3.83 46.4-11.1-4.66-22.66-9.64-34.91-8.1-16.33 2.06-24 17.73-21.82 34.45 4 30.18 43 15.5 60.21-.2a105.05 105.05.0 0 0 5 15.52c12 29.16 49.16 40.93 78.48 44.47 19.41 2.35 39 .67 58.46-2.55 3.13 4.48 10.67 6 15.82 3.62 3.56-1.61 6.93-4.8 9.73-8.54 9.31-2 18.53-4.09 27.63-6 12.41-2.63 25.37-4.21 37.77-7 2.85 6.23 9.21 7.89 15.88 6.09 6.46-1.75 10.94-9.27 13.37-16.85a61.79 61.79.0 0 0 15.33-12.7c19.48-22.6 6.45-62.61 1.95-87.78-8.77-49.31-14.36-99.1-22.28-148.5a171.54 171.54.0 0 0 23.38-12.37c64.82-41.23 73.67-142.74 24.72-198z" fill="#f2dbc2"/><path d="M319.47 226.81c-6.7-19.67-16.87-38.18-27.15-56.26-18.93-33.34-43.49-78.18-63.81-93.28-4-3-12-1.44-9.25 6.43 3.24 34 44.39 103.65 83.11 150.77a113.71 113.71.0 0 1 17.1-7.66z" fill="#ff7a69"/><path d="M413.72 203.36c5.15.0 10.17.1 15 .29-5.87-33.09-17.37-64.93-29-96.84C393.94 91 383.25 50.89 366.87 45.29c-1.06-.36-3.1 3.67-2.36 5-3.34 26.55 23.11 99.83 49.21 153.07z" fill="#ff7a69"/><path d="M350.31 360.82c-2-5.42-8.78-9.58-15.32-9.86-3.55-.16-7.44-.45-10.94.34-7.31 1.05-13.17 6.92-14.13 13.3-1.08 7.18 3.4 13 10.1 15.81a4.11 4.11.0 0 0 .57.25c18.89 3.9 34.46-7.21 29.72-19.84z" fill="#ff7a69"/><path d="M529.3 322.21c-3.09-4.26-10-6.34-15.72-5.11-3.14.69-6.6 1.31-9.44 2.79-6.12 2.59-9.8 9-9.07 14.79.8 6.5 6.12 10.53 12.62 11.46a2.8 2.8.0 0 0 .57.08c17.39-.88 28.23-14.09 21-24z" fill="#ff7a69"/><path d="M479.57 361.07a2.58 2.58.0 0 0-4.54-1.14c-5.55 7.52-7.54 25.07-21.23 16.48-4.7-3-7.95-7.89-10.35-12.65-1.66-3.29-2.09-7.48-3.17-11.19.42-.16.85-.3 1.25-.49 11-5.52 13-23.22 8.87-33a.77.77.0 0 0-1.28-.14c-4.86 6.64-6 15.38-11.26 21.88-5.41 6.69-17.61-9-23-10.58a3.27 3.27.0 0 0-4.43 3.33c.8 9.91 12.68 19.62 23.46 20 0 2.93.24 5.91.08 8.74-.32 5.82-1.53 11.91-5.36 16.55A18.39 18.39.0 0 1 418 385c-5 .94-6.82-2.57-9.7-5.59-2.29-2.4-6.92-1-6.36 2.61 2.07 13.26 17.7 11.86 26.4 6.27a24.35 24.35.0 0 0 10.28-14.5c.35-1.45.66-3.06.9-4.77 2.94 5.69 7.43 11.26 13.27 14.17 14.11 7.05 29.28-8.16 26.74-22.13z" fill="#e34d3d"/><path d="M344.11 299.24c-2.46-6.09-12.18-2.1-9.65 3.95 2.39 5.71 5.16 16.16-2.18 19.87-7.58 3.85-15.57-5.89-18.59-11.22S302 310 304.77 315.49c5.78 11.52 16.58 21.47 30.61 17 14.33-4.6 13.06-22.52 8.73-33.22z" fill="#e34d3d"/><path d="M518.15 271.69c-2-5.72-10.8-2.9-10.23 2.7s1.35 18.09-6.16 20c-8.28 2.08-15.59-10.3-18.48-16.06-2.73-5.41-11.24-2-8.93 3.65 4.81 11.71 15.47 26.09 30.46 22.45 13.13-3.18 17.19-21.87 13.34-32.72z" fill="#e34d3d"/><path d="M368 693.89c-8.22-7.51-19.91-13.28-29.59-17.92C328.15 671 311.3 663 299.54 664.89c-2.84.45-4.27 4.32-1.62 6 6.34 4.05 14.47 4.91 21.65 7.21 9.08 2.91 18.18 6.24 26.93 9.95 17.79 7.54 37.51 25.73 14.66 40.78-.41.27-.18 1.49 1.92 1.09 19.23-3.66 19.55-22.68 4.94-36z" fill="#de9457"/><path d="M355.74 689.3a26.61 26.61.0 0 1 6.55 2.2c-1.39-9.71-1.55-19.71-1.83-29.36-.94-33.44 3.24-67.81-1.18-101-.29-2.12-3.82-2.21-3.95.0-.73 14-7.38 80.28-.87 128.09a7.1 7.1.0 0 1 1.28.08z" fill="#de9457"/><path d="M409 566.74c-6.21 50.94 5.18 103.72-12.85 153.37-6.38 17.55-16.26 10.38-23.43-.41-1.15 3.12-4 4.76-6.15 7.26-.24.26-.46.52-.69.78 5.27 8 12.94 13.47 22.18 12.1 16.45-2.44 20.23-35.77 22.41-47.47 7.73-41.38.77-83.44 5.74-124.73.53-4.51-6.66-5.4-7.21-.9z" fill="#de9457"/><path d="M489.65 539.63c-.37-3.21-5.65-3.34-5.67.0-.3 41.51 9.81 82.7 9.72 124.34.0 15.36-.27 41.08-15.08 49.83-10.16 6-16.43-14-18.66-20.51-8.77-25.49-11-53.92-14-80.56-1.57-14-.56-51.68-6.76-49.48-.3.11-.66-.2-.74.11-3.67 14.64 1.31 50.56 3.41 71.46 2.52 25.14 4.88 61.45 22.09 81.64 16.19 19 32.16-7.4 34.78-20.33 8.62-42.64-3.66-109.44-9.1-156.5z" fill="#de9457"/><path d="M191.58 676.9c-3.53 2.35-10.32-1.54-10.38-5.61a1.18 1.18.0 0 1 1.61-1.2c1.78.83 3.45 1.9 5.32 2.57s3.1 1.13 3.79 3a1.1 1.1.0 0 1-.34 1.29zm19.34-9.59h0c-1.56-.46-11.49-.2-10.85 2.73 1 4.45 9.69 3.75 11.87.79a2.29 2.29.0 0 0-1-3.52zM204 679.1h0c-2.3-1.41-4.8.3-7.15.94-.78.22-.55 1.24.0 1.52 2.19 1.05 5.95 1.75 7.39-.69a1.25 1.25.0 0 0-.26-1.77zM226 663h0a14.13 14.13.0 0 0-3.77 1.67c-1 .59-1.17 1.41-1.84 2.2a.42.42.0 0 0 .09.61c.78.61 1.2 1.3 2.36 1.45a8.28 8.28.0 0 0 5.19-1.3c2.23-1.33.5-5.26-2-4.63zm68.62-161.26h0a34.56 34.56.0 0 0-4.37 8.2c-1 2.56-3 5.86-1.43 8.54a1.72 1.72.0 0 0 2.16.85c3-1.12 3.61-4.69 4.4-7.39a88.11 88.11.0 0 0 2.3-9c.29-1.65-2.07-2.49-3.06-1.19zm-15.1-3.27h0c-4.11 7.11-9.89 15-8.86 23.61a1.34 1.34.0 0 0 2.35.59c4.87-6.79 5.16-16 8.31-23.5.48-1.15-1.21-1.72-1.8-.7zm-21.73 48.73h0a53.83 53.83.0 0 0-4.05 11.34c-.79 3.74-2.4 8.88-.48 12.38a1.23 1.23.0 0 0 2.06.24c1.85-2.61 1.42-5.72 1.77-8.81a81.29 81.29.0 0 1 2.7-14.37 1.07 1.07.0 0 0-2-.78zm20.83-12.72h0a27.78 27.78.0 0 0-4.81 6.22c-1.24 2.53-2.87 5-2.42 7.91a1.22 1.22.0 0 0 1.93.74c2.29-1.56 2.71-4 3.61-6.42 1-2.64 1.46-5.33 2.77-7.86.34-.66-.63-1.06-1.08-.59zm36.26-35.82h0a10.19 10.19.0 0 0-4.06 3.62c-1.12 1.69-2.31 3.75-1.33 5.71a1.47 1.47.0 0 0 1.86.72c3.5-1.05 3.64-6.18 4.65-9 .22-.59-.42-1.45-1.12-1.06zm26-45.86h0c-3.42 4.66-8.05 9.92-8.48 15.8a1.44 1.44.0 0 0 2.29 1.26c5.35-3.39 7.14-10.47 8.43-16.18.27-1.2-1.54-1.83-2.24-.88zM253.68 593.17h0c-3.12 4.29-4.51 11.62-3.12 16.64a1 1 0 0 0 2 .23c2.57-4.61 3.25-11.19 3-16.41a1 1 0 0 0-1.85-.46zM244 643.07h0A56.93 56.93.0 0 1 242.84 629a.74.74.0 0 0-1.47-.18 36.78 36.78.0 0 0-.86 13.18c.4 3.58.75 9.39 3.89 11.78a1 1 0 0 0 1.63-.66c.66-3.23-1.37-6.85-2-10zm34.66-37.15h0c0-.6-1-.71-1.2-.15-1.33 4.09-3.57 9-2.17 13.23a1.1 1.1.0 0 0 1.86.21c2.61-3.7 1.59-9 1.51-13.29zM262 672.8h0c-1.26-2.75-2.06-5.54-3.56-8.19a.7.7.0 0 0-1.26.0 14.12 14.12.0 0 0-.58 8.55c.55 2.76 1.51 6.16 4.58 7a1.68 1.68.0 0 0 2.14-.88c.74-2.41-.3-4.29-1.32-6.52zm-15.38 1.57h0c-.42-1.42-2.65-.7-2.5.66.69 6.36 1.9 13.26 7.95 16.76.75.43 2.05.0 1.8-1-1.38-5.86-5.51-10.58-7.25-16.39zm29.87 37.47h0c-3.35-3.84-7.81-6.32-12.38-8.62-.44-.21-.75.35-.52.68 2.9 4.28 6.48 8.69 12 9.45a1 1 0 0 0 .88-1.51zm10-10.57h0c-1.07-2-2.64-3.06-4.54-4.33-.93-.63-1.92-1.11-2.87-1.7s-2.21-.9-2.74-1.65c0-.05-.11.0-.09.06.31 1-.2 2.13.0 3.2a9.88 9.88.0 0 0 1.23 3.59c1.76 2.55 3.77 4.23 7 4.17a2.42 2.42.0 0 0 2-3.34zm21.74 16.49h0a16.94 16.94.0 0 0-1.87-1.92 12.07 12.07.0 0 0-3.48-1.36c-.91-.25-1.76-.54-2.69-.71s-1.68.26-2.49.13a.56.56.0 0 0-.52.89c.51.61.59 1.55 1.18 2.11a16.61 16.61.0 0 0 2.76 2.1c2.4 1.56 4.32 1.49 6.88.65a1.09 1.09.0 0 0 .23-1.89zm11.14-256h0c-3.77 1.59-6.63 5.12-8.95 8.26-2.1 2.85-5.24 7.24-3.4 10.76a1.66 1.66.0 0 0 2.08.82c3.38-.93 4.63-4.91 6-7.68 1.78-3.61 4.08-7.38 5.23-11.23a.74.74.0 0 0-1-.93zm-8.59-11.87h0c-6 5.46-13 11.61-14.6 19.75-.23 1.14 1.17 1.62 2 1.1 6.88-4.27 10.11-12.53 14.85-18.73 1-1.36-.92-3.35-2.26-2.12zM258.83 634.45h0a60.63 60.63.0 0 1-.84-8.18.69.69.0 0 0-1.31-.32 14.27 14.27.0 0 0-1.8 7.11c.09 2.63.13 6.39 2.41 8.18a1.33 1.33.0 0 0 2-.55c.73-2-.18-4.15-.45-6.24zm-17.72-45.08h0c-.12-.34-.59-.2-.66.09-1.07 4.52-4.45 12-1.12 16.13a1.43 1.43.0 0 0 2.17.0c1.43-2.13 1.25-4.81 1.13-7.28a32.7 32.7.0 0 0-1.52-8.91zm46.05-24h0c-1.4 2.2-2.88 4.26-4.11 6.57s-2.6 6.12-.59 8.26a1.91 1.91.0 0 0 2.14.52c2.48-1.06 3.11-4.19 3.62-6.55a38.17 38.17.0 0 0 .88-8.05c0-.92-1.29-1.75-1.94-.75z" fill="#de9457"/><path d="M544.73 283a1.69 1.69.0 0 1-2.82.39c-5.8-7.69-5-18.6-8.94-27.33-.14-.32.25-.56.53-.4 8.87 5.45 14.1 17.48 11.23 27.34zm1.92 26.08h0a23 23 0 0 0-4.7-9.18.28.28.0 0 0-.5.12 29.76 29.76.0 0 0-.11 9.74c.45 3.26.0 6.81 2.63 9.18a2 2 0 0 0 2.62-.38c2.3-2.66.88-6.43.06-9.48zm8.2-18.08h0c-.14-.22-.48-.12-.58.08-2.69 5.61-2 15.62 2.9 19.81a1.45 1.45.0 0 0 2.16-.58c2.5-5.55-1.3-14.44-4.48-19.31zm2.44 38h0c-2.23 6.11-4 12.17-2.36 18.61.28 1.05 1.9 1.88 2.65.67 3.63-5.86 3.75-12.16 3.41-18.83-.09-1.87-3.07-2.16-3.7-.45zm-10.73 24.72h0a.75.75.0 0 0-1.32-.34c-3 4.23-5.61 9.74-5 14.9a1.5 1.5.0 0 0 2.38.93c2.52-1.88 3.38-3.91 4-6.92a18.94 18.94.0 0 0-.14-8.57zm-9 33.28h0a59.44 59.44.0 0 0-3.51 5.68c-.57 1.14-1.27 2.21-1.8 3.36a25.13 25.13.0 0 0-1 3.66 1.41 1.41.0 0 0 1.87 1.77 11.54 11.54.0 0 0 6.36-5.88 15.36 15.36.0 0 0 1.68-7.7c0-1.68-2.67-2.22-3.56-.89zM515.93 233h0c-2.64-2.2-5.66-2.9-9-3.16a.44.44.0 0 0-.41.7c.92 1.15 1.71 2.42 2.69 3.52a43.67 43.67.0 0 0 3.55 3.07c1.28 1.16 5.11 5.15 7 2.72 2-2.59-2.1-5.42-3.8-6.85zm-31.79-14.18h0c-1.9-1.85-4.16-2.39-6.71-3.06a12.33 12.33.0 0 0-3.64-.26c-1 0-1.77.85-2.5 1a.71.71.0 0 0-.34 1.28c.2.13.87 1.05 1.28 1.45a9.75 9.75.0 0 0 3 1.74 17.73 17.73.0 0 0 7.3 1.62c1.74.0 2.81-2.54 1.57-3.76zm32.33 30.55h0c-2.23-1.22-4.71 1.74-2.45 3.17a15 15 0 0 1 3.4 2.79c1.14 1.29 1.55 2.2 3.32 2.74a1.31 1.31.0 0 0 1.77-1c.72-3.51-3.24-6.15-6-7.69z" fill="#fff"/><path d="M404.31 260.36a1.53 1.53.0 0 1-1.74.47c-3.58-1.38-3.67-5.17-4.12-8.4-.53-3.77-1.51-7.5-1.9-11.3a.74.74.0 0 1 1-.74c4 1.5 5.51 5.66 6.62 9.36 1 3.32 2.8 7.65.13 10.61zm10.23-15h0c-.64-2.08-4.25-1.1-3.79 1 1.21 5.64 1.55 13 5 17.85a1.21 1.21.0 0 0 2-.28c1.78-5.87-1.5-13-3.24-18.57zM415.86 278h0a.34.34.0 0 0-.52.13c-1.17 3.28-.2 7.6.77 10.83.75 2.5 1.63 8.14 5.52 7.64 7.24-.93-3.33-16.58-5.77-18.6zm12.43-1.18h0c-.31-.59-1.29-.38-1.19.32.36 2.57.66 5.06 1.2 7.6s.75 4.77 2.44 6.78a1 1 0 0 0 1.65-.23c1.58-4.8-2-10.29-4.1-14.47zm4 32.86h0c-.73-1.68-3.65-1-3.25.86.63 2.91.87 6 1.64 8.83.66 2.45.62 5 2.94 6.61a1.57 1.57.0 0 0 1.87.0c4.49-4.19-1.34-12-3.2-16.27zm-10.55 4.22h0c-.56-1.12-2.58-.72-2.29.61 1 4.3 1.23 9.62 4 13.23a1.16 1.16.0 0 0 2-.54c1.09-4.44-1.82-9.39-3.74-13.3zm-14.08-89.06h0c-1.48-1.9-4.18.32-2.94 2.26 1.36 2.11 1.48 4.44 3.49 6.15.77.66 1.77.0 2-.82.72-2.74-.86-5.43-2.53-7.59zm-5.49 58.05h0a20.54 20.54.0 0 0-4.9-6c-.55-.5-1.41.24-1.12.85a53 53 0 0 1 2.31 6.7c.66 2 1.1 4.85 3.32 5.7a1.4 1.4.0 0 0 1.6-.44c1.35-2.22-.24-4.65-1.21-6.79zm29.95-24h0c-.31-.29-.92-.34-1.08.14-1.06 3.25-1.24 8.43 2.08 10.55a1.42 1.42.0 0 0 2.08-.56c1.81-3.27-.63-7.81-3.08-10.13z" fill="#de9457"/><path d="M266.31 289.09a.5.5.0 0 0-.49-.26c-3.1.3-5.09 4.48-6.12 6.92-1.19 2.84-2.44 7.05.05 9.6a1.74 1.74.0 0 0 2.31.26c2.47-1.55 2.9-4.82 3.36-7.39s2.1-6.6.89-9.13zm12.54 7.63h0a15.56 15.56.0 0 0-2.24 1.89 12.16 12.16.0 0 0-1.86 3.11c-.79 2.07-1.67 4.75.0 6.59a1.4 1.4.0 0 0 1.85.21c1.83-1.09 2-3.26 2.51-5.1a18.72 18.72.0 0 0 .53-2.88c.13-1.06.0-2.26.24-3.27.12-.5-.62-.9-1-.55zm-16.29 42.61h0c-.83-4.44-.92-8.71-2.09-13.11-.13-.47-.89-.87-1.23-.31-3.92 6.68-5.44 19.64 1.8 24.8a1.39 1.39.0 0 0 2.07-.56c1.17-3.84.18-7-.55-10.82zM281 367.61h0a76.61 76.61.0 0 0-4.57-12.11c-.56-1.09-2.49-1-2.59.35a33.91 33.91.0 0 0 .65 11c.61 2.52 1.21 7.67 5 7.17 3.3-.42 2.08-4.54 1.47-6.41zm-11.09 10.73h0c-1.47-2.89-2.89-6-4.1-9-.44-1.11-2.5-1-2.5.33.0 5.67.69 17.58 8.45 18.62a1.72 1.72.0 0 0 1.91-1.85c-.05-2.95-2.48-5.55-3.76-8.11zM291 394.88h0c-1.65-2.31-2.74-4.85-4.7-6.94a.64.64.0 0 0-1.11.3c-.71 2.63.1 4.91 1.22 7.29s2.35 5.3 5.26 6.05a1.23 1.23.0 0 0 1.63-.92c.34-2.43-.94-3.88-2.3-5.78zm8.33 25.73h0c-1.13-2.24-3.53-3.74-5.19-5.64s-4-3-6.15-4.31a.29.29.0 0 0-.44.18 10.56 10.56.0 0 0 1.26 7.19c1.49 2.65 4.47 5.69 7.53 6.4a2.81 2.81.0 0 0 3-3.82zm19.06 7.24h0a20.09 20.09.0 0 0-3.18-3 8.18 8.18.0 0 0-2.93-1.88.86.86.0 0 0-1.1.46c-1.52 2.95 1.45 7.16 4.37 8.08a2.41 2.41.0 0 0 2.84-3.67zM287.12 263.72h0c-.61 2.71-4.74 19.25-9.59 15.77-3-2.18.43-6.69 1.7-8.87a30.88 30.88.0 0 1 6.6-7.61c.51-.42 1.44.05 1.29.71zm22.48-22.11h0c-3.75 3.63-7.14 9.47-12.89 10a1.4 1.4.0 0 1-1.5-1.88c1.77-5.8 9.26-6.24 14-8.64.37-.18.6.32.35.56zm33-17.08h0c-.83 1.47-2.57 2.24-3.93 3.16a11.67 11.67.0 0 1-5.59 2.29c-.68.0-1.54-.51-1.34-1.28.86-3.32 7.82-8.07 10.83-4.38a.18.18.0 0 1 0 .21z" fill="#de9457"/><path d="M405.33 490.17a27.45 27.45.0 0 1-.35 5.2c-.59 3.74-.61 8.16-3.39 11.08-.4.42-1.27.63-1.65.0-2.05-3.31-1-6.92-.31-10.52a49 49 0 0 1 1.6-6.28c.47-1.39 2-3 2.21-4.43a.24.24.0 0 1 .47.0c.34 1.78 1.35 3 1.42 4.93zm-12.95 32.2h0c-.26-2-.39-4-1.76-5.54a.45.45.0 0 0-.6-.06c-4.42 2.82-4.3 10.62-2.83 14.89 1.1 3.21 5.47 1.39 5.44-1.44a66.22 66.22.0 0 0-.25-7.85zm23 4.35h0q-.15-7-.68-13.9c-.12-1.53-2.18-1.48-2.8-.34a32.37 32.37.0 0 0-3.48 12.63c-.4 4.15-2.19 9.31 1.56 12.28a2.55 2.55.0 0 0 3 0c3.67-2.25 2.49-7 2.42-10.63zm15.39-42.53h0c-.65-1.85-3.05-1.33-3.83.0-3.11 5.41-3.34 13.29-3 19.33.22 4.33 7.85 4.33 7.87.0.0-3.09-.06-6.17-.11-9.26-.05-3.47.28-6.75-.89-10.09zm20.54 16h0a.53.53.0 0 0-.89-.1 30.27 30.27.0 0 0-4.21 10.15c-1 4-2.1 7.4-.86 11.42.33 1.09 1.8 1.2 2.61.65 6.5-4.37 6.25-15.76 3.35-22.12zm-17.87 30.49h0c-.64-.65-2-.73-2.34.32a33.94 33.94.0 0 0-1.35 7.19c-.21 2.56-1.68 5.25-.53 7.76a2.12 2.12.0 0 0 2.14 1.17c3.63-.17 5.09-4.26 5.37-7.19a11.5 11.5.0 0 0-3.29-9.25zm13.72-55.49h0a14.74 14.74.0 0 0-2.92 7.74c-.28 3.08 4.5 4.57 5.59 1.42.91-2.68.21-5.26.38-8a1.72 1.72.0 0 0-3.05-1.19zm-25.8-4.57h0c-.26-1.37-2.5-1.49-2.62.0-.19 2.3-1.1 5.21.88 6.94a1.28 1.28.0 0 0 1.72-.24c1.63-1.75.4-4.67.0-6.7zm45.35 33h0a.61.61.0 0 0-1.17-.3 26 26 0 0 0-2.29 6.16c-.33 1.47-1 4.26.89 5s2.85-1.93 3.05-3.25c.38-2.58-.59-5.07-.48-7.63zm-78.8-22.13h0c-1.42 3.56-5.16 10.71-.78 13.56a1.64 1.64.0 0 0 1.9.0c1.91-1.41 1.83-3.17 2-5.33.2-2.44.0-4.93.06-7.39.0-1.71-2.44-2.61-3.17-.8zM455 533.28h0a.38.38.0 0 0-.68-.17c-.51.73-1.36.87-1.94 1.49a15.24 15.24.0 0 0-3.74 10.22c.22 2.21 3.7 3.3 5 1.26a14.92 14.92.0 0 0 2.15-6.45 13.5 13.5.0 0 0 .13-3.53c-.15-1-.84-1.82-.88-2.82z" fill="#fff"/><path d="M372.1 593.9a2.07 2.07.0 0 1-2 .29c-3.38-1.81-3-6.09-2.54-9.43.49-3.75 1.95-6 3.52-9.37.09-.19.43-.18.45.05.25 3.49 1.9 6.86 2.21 10.43.24 2.76 1.07 6.26-1.62 8zm-.34 17.8h0a1.24 1.24.0 0 0-2-.77c-2.84 2.46-3.36 6.19-3.3 9.74.06 3.92 6.67 3.2 6.33-.81-.23-2.74-.88-5.43-1.06-8.16zm9-18.44h0a.53.53.0 0 0-.93-.37 29.68 29.68.0 0 0-3.12 4.8 7.6 7.6.0 0 0-.21 6.24 1.79 1.79.0 0 0 3.23.0 10.76 10.76.0 0 0 1.07-5.14c0-1.78-.4-3.79.0-5.51zM366.27 637.5h0c-.85 4.47-1.4 9.55-.26 14 .7 2.7 4.78 3 5.24.0.68-4.4.16-8.82 1-13.24.7-3.71-5.28-4.43-6-.75zm6.43 42.84h0c-.06-2.05-.62-4.06-.61-6.11a.9.9.0 0 0-1.6-.63 9.47 9.47.0 0 0-2.74 7.37 2.46 2.46.0 0 0 2.15 2.08h-.43a1.36 1.36.0 0 0 1.77-.15 2.45 2.45.0 0 0 1.46-2.52zM453 574.44h0a1.49 1.49.0 0 0-2.31.0c-2.51 4.13-1.82 10.18-2.28 14.84a3.06 3.06.0 0 0 1.25 2.87 2.73 2.73.0 0 0 2.34.58 3.27 3.27.0 0 0 2.74-2.66c.93-4.72 1.38-11.59-1.74-15.67zM458 619.82h0a18.92 18.92.0 0 0-1.22-5.71 3.25 3.25.0 0 0-.88-1.2l-.15-.1s.07.0.0-.27c-.23-.66-1.14-.4-1.27.17s-.25.31.24.06a2.63 2.63.0 0 0-1 1.37c-.83 1.6-.71 3.81-.68 5.54.0 3-.68 9.06 2.1 11.14a1.58 1.58.0 0 0 1.9.0c2.61-2.45 1.19-7.85 1-11zm3.4 36.9h0c-.37-2-1.07-4.39-.55-6.39.31-1.2-1.48-1.42-2-.51a12.59 12.59.0 0 0-1.84 6.75c.06 2.11.32 5.9 2.88 6.59a1.55 1.55.0 0 0 1.72-.47c1.28-1.78.13-4-.22-6zm6.8 27.67h0a12.61 12.61.0 0 0-1.29-5.23 1.64 1.64.0 0 0-3 0 12.3 12.3.0 0 0-.77 5.24c.09 2 0 4.31 1.84 5.57a1.56 1.56.0 0 0 1.84.0c1.75-1.44 1.47-3.56 1.34-5.58zm-6.34-87.85h0c-.72-1.47-3.13-1.67-3.74.0a19.18 19.18.0 0 0-.74 8.18c.27 3.8 6.13 2.93 6-.77a17.71 17.71.0 0 0-1.51-7.43z" fill="#de9457"/><path d="M346.38 12.29c-.77 2.69-2.43 4.88-4 7.19-1.74 2.64-2.41 5.7-5 7.63a1.17 1.17.0 0 1-1.75-.43c-1.28-3.53 1-6.93 3-9.86 1.73-2.45 4.11-4.67 7.27-5a.36.36.0 0 1 .4.49zm-11.45 28h0a27.84 27.84.0 0 0-2.56 7.18c-.47 2.31-.49 6.06 1.87 7.36a1.62 1.62.0 0 0 2.18-.31c1.24-1.72.59-3.49.46-5.47a18 18 0 0 1 1.19-7.53c.74-2-2.18-3.12-3.14-1.23zm11.83-7.82h0c-.31-1.72-3.14-1.86-3.28.0-.21 3.08-.57 6.6 1.07 9.37a1.16 1.16.0 0 0 2.09.0c1.34-2.91.66-6.32.12-9.36zm-1.11 47.62h0c-1.07-3.62-2-7.16-3.36-10.71-.52-1.41-2.64-.72-2.52.66a72.22 72.22.0 0 0 1.82 11.12c.73 2.9 1.09 6.58 4 8.06a1.24 1.24.0 0 0 1.59-.66c1.12-2.73-.77-5.8-1.57-8.47zm1.67-26h0a1.21 1.21.0 0 0-2.18.0c-1.37 4.1-1.19 9.38 1.91 12.66a1.06 1.06.0 0 0 1.84-.5 21.25 21.25.0 0 0-1.57-12.17zM351.11 103h0c-.45-1.32-2.73-.71-2.44.64.73 3.4.88 6.72 2 10.08.85 2.57 1.89 6.66 5.34 6.49 5.56-.28-4.22-15.25-4.88-17.21zm20.49 42h0c-1.3-2.8-2.51-5.79-4.77-8a1.24 1.24.0 0 0-2.18.89c.26 3.09 1.63 6 2.81 8.83 1.08 2.58 2 5.58 4.53 7.2a1.25 1.25.0 0 0 1.95-.81c.38-2.86-1.17-5.54-2.34-8.09zm14 27.18h0c-.62-.59-2-.31-1.76.72.64 3 .8 7 4 8.46a1.09 1.09.0 0 0 1.41-.58c1.31-3.14-1.43-6.47-3.65-8.6zM198.11 36.78h0A16.25 16.25.0 0 0 194 41.91c-1.39 2.4-3.47 5.42-2.91 8.29a1 1 0 0 0 1.59.62c2.05-1.69 2.79-4.66 3.78-7a30.09 30.09.0 0 0 2.38-6.68.42.42.0 0 0-.68-.37zm-11.3 34.06h0a30.5 30.5.0 0 1-.68-5.64 1.38 1.38.0 0 0-2.63-.66c-1.72 3.56-3 9.74 1.14 12.09a1.24 1.24.0 0 0 1.8-.49c1-1.91.63-3.21.37-5.3zM198.49 72h0a14.35 14.35.0 0 0-.59-3.37c-.39-1.19-1.33-2.13-1.68-3.28-.12-.38-.66-.22-.73.09a19 19 0 0 1-1.11 2.54 12.72 12.72.0 0 0-.43 3.3c-.16 2.12-.16 4.53 1.7 5.91a1.35 1.35.0 0 0 1.61.0c1.64-1.51 1.37-3.13 1.23-5.17zM195 93.81h0c-1-3-1.9-7.3-5.09-8.76a.2.2.0 0 0-.22.06c-2 2.32-1.42 6.26-.9 9 .74 3.92 1.28 8.43 5.13 10.56a1.62 1.62.0 0 0 2.37-.65c1.3-3.58-.15-6.73-1.29-10.22zm15.23 23.47h0c-.7-2-2.19-3.36-3.3-5.06-.35-.55-1.28-.11-1.17.48.37 2 .11 4.07.82 6.07.58 1.65 1.07 3.74 2.95 4.42a1.18 1.18.0 0 0 1.47-.61c.89-1.68-.19-3.68-.77-5.3zm7.44 25.65h0c-1.73-3.58-4.55-6.76-6.92-10a1.5 1.5.0 0 0-2.57 1.47c1.59 3.52 3.09 7.75 5.95 10.52 1.55 1.49 4.62.18 3.54-2zm18.69 23.23h0c-1.18-1.81-2.28-3.63-3.62-5.33-1.54-1.93-4.41.34-3 2.32 1.8 2.61 3.26 7.89 6.83 8.59a1.32 1.32.0 0 0 1.48-1.1c.21-1.63-.78-3.14-1.66-4.48zm20.34 32.78h0a.79.79.0 0 0-1 1c1.41 3.06 2.38 6.33 3.83 9.39a2.48 2.48.0 0 0 2.55 1.41 1.63 1.63.0 0 0 .62-.17 2.36 2.36.0 0 0 1.46-2.46c-1.05-4-3.3-7.63-7.42-9.19z" fill="#de9457"/><path d="M128.83 1032.5c-18.49 19.76-43.46 38.27-67.88 17-17.69-15.43-23-43.51-19-65.83a54.47 54.47.0 0 1 15.24-28.82c9.35 9 22.53 13.74 34.73 9.93 11.65-3.62 32.8-19.41 22.94-34.39-11.45-17.4-42.38-4.52-56.56 3-8.13-21.47 20.38-46.47 42.26-47.21 6.25-.22 5.14-9.37-.76-9.64-29.15-1.32-54.5 19.77-55.16 50.16a34.5 34.5.0 0 0 2.81 14C17.85 965.34 18.18 1013 35.57 1045.5c25.39 47.43 77.75 34 106.45-1.8 7.07-8.83-5.61-19.29-13.19-11.2zm-27.15-94h0c-1.49 14.26-24 13.91-31.92 8.44h0c12.11-5.17 32.35-12.31 31.94-8.44z" fill="#ff7a69"/><path d="M272 1062.19c-5.29-21.08 5.47-201.79-45.52-176.08-17.49 8.82-28 32.45-35.54 54.13-14.95-.83-31.82 4.11-38.25 17.88-6.69 14.35 11.74 24.3 22.81 28.28-8.29 25.05-15.82 50.64-20.25 76.47-1 5.69 7.29 8.47 9.68 3.08 10.51-23.73 16.74-50.11 23.9-76.1 19.43 3.34 39.81.09 58.88-4.25-1.1 28-3.86 57.79 4.16 83.91 4.11 13.41 23.43 5.81 20.13-7.32zM226.51 904.54h0c17.73-22.35 21 42.35 21.51 59.18a152.13 152.13.0 0 0-43.55-21c5.75-13.61 12.79-26.52 22-38.18zM173 960.43h0a29.93 29.93.0 0 1 12.84-4.83c-1.26 3.9-2.46 7.59-3.6 10.88-.42 1.22-.83 2.45-1.25 3.67-7.66-2.39-13.73-5.83-8-9.72zm24.81 13.22h0a41.62 41.62.0 0 1-4.17-.54q2.63-8.68 5.67-17.13c12.44 2.12 25.43 8.42 36.73 14.24-12.56 2.63-25.39 4.2-38.23 3.43z" fill="#ff7a69"/><path d="M514.88 881.45c-39.41 1.66-82.61-8.88-121.18.48-4.91 1.19-3.23 7.86.76 8.92 17.34 4.56 36.2 7 55.28 8.21a663.56 663.56.0 0 0-23.9 109c-1.94 14.32-8.68 81.09 24.71 70 26.36-8.74 22.15-64.83 22.45-85.43.32-23.2-.73-46.45-2.33-69.6-.5-7.25-.74-15.31-1.76-23.13 16.2.39 32.26.08 47.41-.49 11.64-.44 10.13-18.46-1.44-18zm-66 178.24h0c-5.62 12-9.39-13.49-9.6-16.83-1.1-17.74 2.25-36 5.34-53.36 2.94-16.53 7.86-33.07 12.2-49.63.48 6.68.88 13.34 1.05 20 .82 30.89 4.51 71-9 99.86z" fill="#ff7a69"/><path d="M606.4 1043.65C591 1056.79 574 1068.23 553 1060.92c-18-6.24-24.69-25.87-22-43a180.79 180.79.0 0 1 13.83-43.59c24.4 1.07 73-13.36 55.87-36.31-12.49-16.75-35.28-11.83-48.49.8a103.23 103.23.0 0 0-14.33 17.36c-3.8-3.77-4.64-9.82-3.61-16.92 4.41-30.22 31.35-44.8 58.44-50.53 4.61-1 6-8.36.45-9-31.5-3.62-60.66 18.59-70.85 47.43-5.38 15.22-5.3 32.7 7.83 42.33a186.06 186.06.0 0 0-14.85 41.9c-14.4 62.07 64.81 93.12 101.88 43.86 5.2-6.91-3.59-17.76-10.78-11.62zM579.23 942.6h0c15.41.92 4.74 7.85-2.32 11.4a59 59 0 0 1-24.23 6.32c7.26-10.78 16.17-18.34 26.55-17.72z" fill="#ff7a69"/><path d="M737.49 1068.15c-16.73-21.65-28.87-54.55-47.09-78.84 23.37-14.45 35.68-48.22 28.17-74.25-5-17.44-23-45.68-45.48-38.54-27.48 8.74-30.22 47.45-31.1 71.3-.13 3.41-.16 6.82-.17 10.23a71.89 71.89.0 0 0-14.35-.16c-20.33 1.83-20.69 26.94-6.7 37.06 6 4.34 13.36 6.39 21.19 6.89-.05 1.27-.08 2.55-.15 3.81-1.27 22.51-3.84 44.78-2.15 67.31.37 4.94 8.3 5.55 8.79.45 2.3-24 3.16-47.87 3.91-71.76a95.59 95.59.0 0 0 25.31-6.14c19.9 22.91 29 59.51 47.27 81.56 6.25 7.56 18.67-1 12.55-8.92zM655.27 936.28h0c1.35-18.43 11.11-61.76 36.81-41.29 21.66 17.26 17.72 51.1 2.9 70.88A43 43 0 0 1 680.76 978c-7.68-7.8-16.45-14-26.89-17.4.37-8.1.81-16.23 1.4-24.34zM631.9 973.15h0a31.62 31.62.0 0 1 10.09 1c.07 3.74.14 7.45.17 11.18a45.39 45.39.0 0 1-9.79-1.8c-10.86-3.47-6.24-9.88-.47-10.39zM653.15 978h0l2.93 1.22a52.6 52.6.0 0 1 8.32 4.56 90.17 90.17.0 0 1-11.51 1.53q.14-3.64.26-7.31z" fill="#ff7a69"/><path d="M386.51 999.24c-18.48-24.53-47.41-39.49-65.95-63.89-10-13.15-.78-25.24 12.06-32.25a49.42 49.42.0 0 0 13.11 10.17c11.41 5.73 32.21 1.09 30.83-15.4C375.37 883.8 358 883.73 347 884.15a42.89 42.89.0 0 0-10.91 1.92c-3.42-4.58-6.54-9.42-10.07-13.85-2.69-3.38-9.31-1.74-8.57 3.06a46.25 46.25.0 0 0 6.45 16.38c-11.13 6.89-20 17.74-22.82 29.38-6.38 26.49 41.65 56.08 57.39 70.59 10.55 9.73 31.55 28.35 20.8 44-15.4 22.46-55.84 24.13-71.29 2.69-5.46-7.56-16.53-1-14.11 7.26 15.79 54.37 137.94 13.7 92.68-46.38zm-32-102.44h0c6.17-.11 10 6.79 1.74 6.38-3.17-.16-6.57-2.82-9.42-5.42a40.5 40.5.0 0 1 7.68-1z" fill="#ff7a69"/><path d="M296.49 827.6c-4.09-17.36-5.77-36.13-17.13-50.69a5.43 5.43.0 0 0-8.5-.31c-11.67 14.24-19.47 33.57-25.13 50.95-1.4 4.31 4 8.78 7.21 4.57a84.11 84.11.0 0 0 9.45-16.67 33.92 33.92.0 0 0 4.49.74 49.46 49.46.0 0 0 14-.34c.24.0.44-.12.67-.18.74 5 1.41 10 2.38 14.67 1.91 9.28 14.77 6.46 12.6-2.74zm-28.84-24.17h0a110.66 110.66.0 0 1 7-13.76 59.39 59.39.0 0 1 4.43 12.88c-3.82.16-7.64.65-11.46.88z" fill="#e34d3d"/><path d="M393.37 774c-8.94-3.47-19.29-1.71-23.84 7.38-3.06 6.12-1.82 15.12-1.68 21.67.17 8.47.41 17.25 2 25.58 1.14 5.84 10.1 7.3 11.09.55a87.64 87.64.0 0 0 .47-16.53c11.81 1.77 24.71-4.49 27.2-16.94 2-9.94-6.89-18.46-15.29-21.71zm-12.71 24.12h0c-.47-5-.85-12.23 3.2-12.71 3.63-.45 8.92 2.46 10.57 5.71 3.71 7.32-9.46 8.12-13.77 7z" fill="#e34d3d"/><path d="M626.58 774.24c-.22-3.63-5.44-5.59-7.68-2.43A98.35 98.35.0 0 0 608.34 792a8.6 8.6.0 0 1-1.46-.41 24.22 24.22.0 0 1-7.17-5.13c-4.24-4-7.68-8.85-11.64-13.09-2.78-3-7.4 1-6.18 4.35a56.12 56.12.0 0 0 12 20 29 29 0 0 0 9.93 6.77c-2.6 7.91-4.87 15.84-7.16 23.13-2.74 8.72 11.33 11.21 14 2.54 5.36-17.49 17-37.28 15.91-56z" fill="#e34d3d"/><path d="M180.36 771.87c-3.27-1.3-7.42-1.17-8.65 1.94-2.05 5.2-2.07 13.79-2.46 19.76a6.34 6.34.0 0 0-2.69-.33c-5.41.59-10.84.81-16.26 1.29-1.82.16-3.8.29-5.72.61.13-7.18.21-14.61-2.25-21.13-1.25-3.34-6.62-4-8-.35-3.07 8.12-2.34 17.33-2.58 25.91-.28 10.44-1.68 21.69.73 31.91 1.46 6.25 10.82 4.61 11.86-1 1.32-7.1.8-14.72.43-22.11 1.49.0 3-.1 4.61-.19 6.11-.33 12.21-.41 18.31-1a6.24 6.24.0 0 0 .82-.16c0 7.37.44 14.76.19 22.12-.35 10.41 15.81 9 16.11-1.29.32-10.86 2.38-53.23-4.43-56z" fill="#e34d3d"/><path d="M504.65 772.33c-9.28-4.1-19.79-2.27-25.11 6.67-3.9 6.57-3.29 16.89-3.4 24.24-.11 8.54-.38 18.7 2.05 26.9 1.21 4.05 7.48 4.26 9 .4 1.18-2.91 1.19-10.5 1.24-18.75 12.84.93 26.91 1.49 31-14.15 2.95-11.35-4.85-20.93-14.8-25.31zm0 24.58h0c-2.78 3.87-10.94.79-14.67.32a7.17 7.17.0 0 0-1.13.0c.5-7.29 1.71-13 4.7-13.45 4.77-.77 9.73 2.64 12.28 6.37 1.52 2.21.16 4.92-1.18 6.78z" fill="#e34d3d"/><path d="M72.36 806.58a32.18 32.18.0 0 0-3.66-2.76c-.42-.32-.84-.65-1.26-1a14.27 14.27.0 0 0 3.86-5 7.11 7.11.0 0 0-3.39-9.31l-.38-.19a6.27 6.27.0 0 0-8.23 2 83.56 83.56.0 0 0-5.23-9c-2.4-3.61-8.27-1.36-7.88 2.87C46.64 789 47.92 793.49 49 798a86.79 86.79.0 0 0-11.74 3c-7.84 2.71-4.83 14 3 13.78a40.51 40.51.0 0 0 5.91-.6c-.31 3.06-.54 6.11-.61 9.21-.19 8.16 12.93 8.56 14.1.7.42-2.84.72-5.7 1-8.54a22.48 22.48.0 0 1 2.57 1.94c7.37 5.36 16-4.85 9.09-10.95z" fill="#ffc26b"/><path d="M728.87 796.49a37.31 37.31.0 0 0-7.93-2.09c1.45-3.65 2.46-7.52 1.24-10.62-.73-1.83-2.26-3.35-4.14-3.07-3.42.53-6 3.94-8 7.69-1.71-1.31-3.42-2.61-5.09-4-6.71-5.55-14.74 5.2-8.28 11.47a20.61 20.61.0 0 1 1.6 1.77 42.37 42.37.0 0 0-7.22 7.11c-5.23 6.33 2.91 15.91 8.88 11a73.64 73.64.0 0 1 7-5 23.28 23.28.0 0 1 .76 2.37 25.49 25.49.0 0 0 1.07 4.42c3.32 9.15 14.28 4.13 12.33-5.16-.17-.76-.35-1.49-.54-2.22a14.3 14.3.0 0 0 6.16.19c5.41-1.29 8.93-11.18 2.17-13.9z" fill="#ffc26b"/><path d="M137.22 320.87c5.89-.68 19.53-6.66 15.59-15.14-3.3-7.09-13.69-5.28-19.9-4.46-3.25.43-7 .94-10.85 1.7a152.47 152.47.0 0 1 20.39-16.55c2-1.35.21-5-2-3.87a109.93 109.93.0 0 0-25.3 18.35c.84-3.4 1.37-6.63 1.75-8.68 1.3-7 1.26-18.47-7.93-20.07-13.67-2.39-7.89 34.78-6.24 41.2a2.69 2.69.0 0 0 .25.51 238.16 238.16.0 0 0-18.66 25.88A91.53 91.53.0 0 0 82 321.53c-1.28-5.77-9.17-20.44-17.41-14.6-6.13 4.36-2.86 15.15-1.49 21 2 8.63 4.75 19.8 10.29 27A4.07 4.07.0 0 0 74.58 356c-1.78 3.13-3.53 6.26-5.22 9.33a272.3 272.3.0 0 0-17.91 40.05 101.27 101.27.0 0 0-5.35-19.81c-2.93-7.74-11.9-18.27-21.1-11.62-15.06 10.88 9.69 44.55 19.12 52.3a3.1 3.1.0 0 0 .74.39A282.61 282.61.0 0 0 36 482.85a82.58 82.58.0 0 0-8.81-15.24c-4.64-6.28-17.81-14.88-24.69-6.25-6.08 7.62 2.7 18.32 7.6 24 5.87 6.79 15.72 17 25.5 17.78a248.76 248.76.0 0 0 6 49c-10.38-8.93-26.77-13.33-37.42-7.38-8.74 4.89-1.89 15.49 3.39 19.65 9.91 7.8 26.81 8.4 38.11 3.67A273.42 273.42.0 0 0 64 614.59c2 3.91 4.1 7.91 6.36 11.93a73.78 73.78.0 0 0-25.55-5.85c-8.94-.44-22.64 5.82-18.86 16.9 3 8.87 18.76 8.35 25.92 8.33 8.14.0 19.59-.23 27.93-3.73a259.86 259.86.0 0 0 23.64 31.34 38.21 38.21.0 0 0-19.16 3.8c-6.3 3.35-13.91 13.42-8.31 20.55 4.78 6.08 15.08.64 20.17-2a93.9 93.9.0 0 0 17.64-11.53A143 143 0 0 0 141.9 706c3.4 1.94 7.53-2.93 4.94-5.93-11.82-13.64-26.18-24.92-38.2-38.49A241.72 241.72.0 0 1 89 635.82c11.19-9.44 21.4-21.3 25.42-35.81 2.43-8.74-1.46-27.14-14.62-23-10.81 3.42-14.36 19.77-17 29.18-1.32 4.82-2.37 9.72-3.32 14.63-.4-.66-.82-1.31-1.21-2A236.43 236.43.0 0 1 55.71 565.7c11.66-2.47 22.93-11.29 29.84-20.32 5.27-6.87 8-22.32-3.1-25.61-9.12-2.7-17.59 9.34-22 15.41a133.68 133.68.0 0 0-8.9 14.21A275.17 275.17.0 0 1 45.4 504c12.43.87 27.29-7.21 35.54-15.28 5.56-5.43 11.4-20.33 2.24-25.3-7.54-4.09-19 6.94-23.86 11.17-4.15 3.61-9.65 8.12-14.21 13.06a256.78 256.78.0 0 1 7.33-58c12.84 1.63 27.93 1.5 39.21-4.69 7.35-4 18.5-16.34 10.64-24.66-6.34-6.71-23 2.1-28.94 4.92-4.14 2-10.79 4.9-16.53 8.65a270 270 0 0 1 14.26-36.3c2.91-6.06 6-12.11 9.27-18.1 11.26 6.45 26.7 8.68 39.13 6.56 6.07-1 20.23-8.75 14.28-16.81-4.89-6.62-19.71-4.28-26.41-3.68-4.34.39-13.46.7-20.56 2.7a240.28 240.28.0 0 1 22.37-31.6c7.75 4.82 19.79 5.1 28.06 4.17zm7.28-13.48h0c3.28.44 1.39 2.48-.58 4.1-3.34 2.73-8.6 2.92-12.69 3.09a56.44 56.44.0 0 1-15.5-1.82c9.14-3.39 19.23-6.66 28.77-5.37zM18.94 483.93h0c-2-1.84-15-14.74-11.19-18.17 7.85-7.12 18.14 10.77 20.66 15.58 2.23 4.27 4 8.78 5.85 13.22a58.94 58.94.0 0 1-15.32-10.63zm-.77 77.24h0c-5.3-2-16.58-9.81-5-11.78 6.72-1.15 13.9 2.26 19.65 5.36a49.79 49.79.0 0 1 9.4 6.54c-8.21.35-15.78 3-24.07-.12zm65 131.69h0c-2 .34-1.54.54-1.14-1.82.67-4 3.43-6.3 6.91-8 5.88-2.81 12.23-3.44 18.59-3.07-6.8 5.73-16.28 11.52-24.36 12.85zm4.28-71h0c2.05-10.61 4.54-21.47 9.4-31.18.92-1.83 3.47-6.87 6.24-5.87 7.14 2.56 4.27 12.07 2.34 17-2.81 7.16-7.43 13.65-12 19.81-2.35 3.2-4.61 7-7.12 10.37l-.12-.17c.62-3.63.76-7.55 1.22-10zM37.19 637.37h0c-3.75-.87-5.81-2.42-3.43-6.07 3.23-5 12.75-3.63 17.49-2.94 8.23 1.19 15.77 4.19 23.24 7.55-11.79 3.48-26 4.09-37.3 1.46zm18.89-79.88h0a120.22 120.22.0 0 1 6.16-11.11c4.11-6.74 9.15-14.39 16-18.64 2.51-1.56 3.27.46 4.06 2.65 1.88 5.22-2.49 10.31-5.73 13.9a65.66 65.66.0 0 1-21.29 15.15c.26-.67.53-1.33.83-2zm20.35-86h0c9.32-4.73-.17 11.76-3.36 14.54-7.17 6.25-15.76 8.16-24.29 10.78 8-9.69 16.43-19.62 27.65-25.32zm-40.33-67h0c-3.94-6.24-9.68-15.33-8.65-23.1.73-5.5 7.9-1.33 9.67.91 2.9 3.67 4.34 8.61 5.67 13 2.33 7.73 3 15.61 3.8 23.53-4.19-4.11-7.46-9.54-10.49-14.36zm57.08 1.12h0c4.87-.92 5.33.41 3.64 4.95-2.28 6.13-8.64 9.13-14.39 11-7.66 2.5-15.76 2.36-23.78 2.64 10.59-7.86 20.89-16 34.53-18.59zM77.25 347.18h0c-5-9.77-9.9-22.65-9.33-33 .2-3.63 3.71.22 5.14 2.13 2.94 4 3.66 9.72 4.27 14.44.71 5.56.29 11-.08 16.41zM97 354.51h0a92.18 92.18.0 0 1 25.28-2 30.89 30.89.0 0 1 3.84.56c2.34.45 2-.16 1.08 1-3.61 4.64-9.56 5.44-15 5.72-7.5.37-14.81-1.29-22.1-3A54.26 54.26.0 0 1 97 354.51zm11.46-75.36h0a1.94 1.94.0 0 1 .31-.61 4.84 4.84.0 0 1 2.47 2.53c1.52 3.44.56 8.13.0 11.68a69.47 69.47.0 0 1-2.91 12.16c-1.63-8.41-2.4-18.78.14-25.76z" fill="#ffc26b"/><path d="M661.44 316.7a240.28 240.28.0 0 1 22.37 31.6c-7.1-2-16.22-2.31-20.56-2.7-6.7-.6-21.52-2.94-26.41 3.68-6 8.06 8.21 15.78 14.28 16.81 12.43 2.12 27.87-.11 39.13-6.56 3.27 6 6.36 12 9.27 18.1a270 270 0 0 1 14.26 36.3c-5.74-3.75-12.39-6.69-16.53-8.65-6-2.82-22.6-11.63-28.94-4.92C660.45 408.68 671.61 421 679 425c11.28 6.19 26.37 6.32 39.22 4.69a257.91 257.91.0 0 1 7.32 58c-4.56-4.94-10-9.45-14.21-13.06-4.87-4.23-16.32-15.26-23.85-11.17-9.17 5-3.33 19.87 2.23 25.3 8.25 8.07 23.12 16.15 35.54 15.28a275.15 275.15.0 0 1-6.12 45.35 133.76 133.76.0 0 0-8.91-14.21c-4.43-6.07-12.9-18.11-22-15.41-11.09 3.29-8.37 18.74-3.1 25.61 6.91 9 18.18 17.85 29.84 20.32a235.52 235.52.0 0 1-22.55 53.15c-.39.67-.81 1.32-1.21 2-1-4.91-2-9.81-3.32-14.63-2.59-9.41-6.15-25.76-17-29.18-13.16-4.15-17.05 14.25-14.62 23 4 14.51 14.24 26.37 25.43 35.81A243 243 0 0 1 662 661.56c-12 13.57-26.4 24.85-38.21 38.49-2.59 3 1.54 7.87 4.94 5.93a143 143 0 0 0 28.16-21.66 93.9 93.9.0 0 0 17.64 11.53c5.09 2.65 15.39 8.09 20.18 2 5.59-7.13-2-17.2-8.32-20.55a38.19 38.19.0 0 0-19.16-3.8 258.82 258.82.0 0 0 23.64-31.34c8.34 3.5 19.79 3.71 27.93 3.73 7.16.0 22.89.54 25.92-8.33 3.79-11.08-9.91-17.34-18.86-16.9a73.84 73.84.0 0 0-25.55 5.85c2.26-4 4.39-8 6.36-11.93a272.6 272.6.0 0 0 18.28-46.53c11.3 4.73 28.2 4.13 38.11-3.67 5.28-4.16 12.13-14.76 3.39-19.65-10.65-6-27-1.55-37.42 7.38a248.76 248.76.0 0 0 6-49c9.78-.73 19.63-11 25.5-17.78 4.91-5.67 13.68-16.37 7.6-24-6.88-8.63-20 0-24.69 6.25a82.58 82.58.0 0 0-8.81 15.24 282.61 282.61.0 0 0-8.83-56.24 3.1 3.1.0 0 0 .74-.39c9.43-7.75 34.18-41.42 19.12-52.3-9.2-6.65-18.17 3.88-21.1 11.62a101.27 101.27.0 0 0-5.35 19.81 272.3 272.3.0 0 0-17.91-40.05c-1.69-3.07-3.44-6.2-5.22-9.33a4 4 0 0 0 1.21-1.06c5.54-7.17 8.26-18.34 10.29-27 1.37-5.86 4.65-16.65-1.49-21-8.24-5.84-16.13 8.83-17.41 14.6a90.85 90.85.0 0 0-2.3 18.21 239.61 239.61.0 0 0-18.67-25.88 2.69 2.69.0 0 0 .25-.51c1.65-6.42 7.43-43.59-6.23-41.2-9.2 1.6-9.24 13-7.94 20.07.38 2 .91 5.28 1.75 8.68a109.93 109.93.0 0 0-25.3-18.35c-2.24-1.15-4.06 2.52-2 3.87A151.84 151.84.0 0 1 648.54 303c-3.8-.76-7.6-1.27-10.85-1.7-6.21-.82-16.6-2.63-19.9 4.46-3.94 8.48 9.7 14.46 15.59 15.14 8.27.93 20.31.65 28.06-4.17zm-6.57-3.94h0a56.47 56.47.0 0 1-15.51 1.82c-4.08-.17-9.34-.36-12.68-3.09-2-1.62-3.86-3.66-.58-4.1 9.54-1.29 19.63 2 28.77 5.37zm81.48 181.8h0c1.87-4.44 3.61-8.95 5.84-13.22 2.52-4.81 12.81-22.7 20.66-15.58 3.78 3.43-9.22 16.33-11.19 18.17a59.06 59.06.0 0 1-15.31 10.63zm-8 66.73h0a49.74 49.74.0 0 1 9.39-6.54c5.74-3.1 12.93-6.51 19.65-5.36 11.6 2 .32 9.78-5 11.78-8.29 3.14-15.86.47-24.06.12zM663.07 680h0c6.35-.37 12.71.26 18.59 3.07 3.47 1.66 6.23 4 6.9 8 .4 2.36.9 2.16-1.14 1.82-8.08-1.33-17.56-7.12-24.35-12.85zm21.29-48.23h0l-.12.17c-2.51-3.33-4.77-7.17-7.12-10.37-4.53-6.16-9.14-12.65-12-19.81-1.93-4.93-4.8-14.44 2.34-17 2.77-1 5.32 4 6.24 5.87 4.86 9.71 7.35 20.57 9.4 31.18.47 2.41.6 6.33 1.22 10zm11.75 4.13h0c7.47-3.36 15-6.36 23.24-7.55 4.75-.69 14.26-2.05 17.5 2.94 2.37 3.65.31 5.2-3.44 6.07-11.33 2.63-25.51 2-37.3-1.46zm19.25-76.47h0a65.6 65.6.0 0 1-21.3-15.15c-3.24-3.59-7.61-8.68-5.73-13.9.79-2.19 1.55-4.21 4.06-2.65 6.83 4.25 11.86 11.9 16 18.64a120.22 120.22.0 0 1 6.16 11.11c.3.62.57 1.28.84 2zm6.47-62.63h0c-8.54-2.62-17.13-4.53-24.3-10.78-3.19-2.78-12.68-19.27-3.36-14.54 11.22 5.7 19.69 15.63 27.66 25.32zm2.18-78h0c.85-7.92 1.47-15.8 3.8-23.53 1.33-4.41 2.77-9.35 5.67-13 1.77-2.24 8.94-6.41 9.67-.91 1 7.77-4.71 16.86-8.65 23.1-3 4.82-6.31 10.25-10.49 14.36zM712 424.2h0c-8-.28-16.13-.14-23.78-2.64-5.75-1.87-12.11-4.87-14.39-11-1.69-4.54-1.23-5.87 3.64-4.95 13.64 2.59 23.94 10.73 34.53 18.59zm-18.68-93.43h0c.61-4.72 1.33-10.48 4.28-14.44 1.42-1.91 4.93-5.76 5.13-2.13.57 10.33-4.28 23.21-9.33 33-.37-5.44-.79-10.85-.08-16.41zm-12.7 26h0c-7.29 1.68-14.6 3.34-22.09 3-5.47-.28-11.42-1.08-15-5.72-.87-1.12-1.26-.51 1.08-1a31.17 31.17.0 0 1 3.84-.56 92.18 92.18.0 0 1 25.28 2 54.26 54.26.0 0 1 6.92 2.25zm-18.24-51.85h0a69.47 69.47.0 0 1-2.91-12.16c-.57-3.55-1.52-8.24.0-11.68a4.82 4.82.0 0 1 2.48-2.53 2.24 2.24.0 0 1 .3.61c2.54 7 1.77 17.35.14 25.76z" fill="#ffc26b"/></g></g></g></svg>