<svg xmlns="http://www.w3.org/2000/svg" width="817.85" height="1080" viewBox="0 0 817.85 1080"><g id="Слой_2" data-name="Слой 2"><g id="Easter23_145207665"><g id="Easter23_145207665-2" data-name="Easter23_145207665"><g><path d="M817.85 659.38C817.85 938.76 634.77 1080 409 1080S0 938.76.0 659.38 183.09.0 409 0 817.85 380 817.85 659.38z" fill="#e13c57"/><path d="M409 1080C183.09 1080 0 938.76.0 659.38S183.09.0 409 0z" fill="#eb5674"/></g><g id="Small_Flower"><path d="M364.92 637.15c-206.06 359.26-459-75.42-44.75-76.72-414.22 1.3-164-435 44.21-77-208.24-358 294.53-359.62 88.69-.27 205.84-359.35 458.86 75.33 44.56 76.7 414.3-1.37 164.07 434.94-44.09 77C661.7 994.82 158.86 996.41 364.92 637.15z" fill="#f7cb47"/><path d="M364.38 483.45c-208.24-358-458.43 78.28-44.21 77-414.22 1.3-161.31 436 44.75 76.72-103.07 179.57-28.77 269 45.31 268.83L407.9 214.29C333.88 214.55 260.11 304.43 364.38 483.45z" fill="#fbe858"/><path d="M479.82 559.88a70.91 70.91.0 1 1-70.94-70.75 70.86 70.86.0 0 1 70.94 70.75z" fill="#8528d6"/><path d="M409.25 631.15a71 71 0 1 1-.37-142z" fill="#9a3bf1"/></g></g></g></g></svg>