<svg xmlns="http://www.w3.org/2000/svg" width="1080" height="463.86" viewBox="0 0 1080 463.86"><g id="Слой_2" data-name="Слой 2"><g id="Easter83_246445960"><g id="Easter83_246445960-2" data-name="Easter83_246445960"><ellipse cx="540" cy="404.29" rx="540" ry="59.57" fill="#c27f72"/><path d="M337.44 332.49c-73.67-22.07-119 32.26-107.62 78.76a179 179 0 0 1 5 42.18c40.61 3.08 85.22 5.56 132.8 7.32A169.22 169.22.0 0 1 378.17 429C388 372.17 369.47 342.09 337.44 332.49z" fill="#fff"/><g><path d="M320.98 420.38h3.64v21.92H320.98z" transform="translate(-3.42 2.58) rotate(-0.45)"/><path d="M316.23 444.27c-18.2-2.75-31.74-16.78-32.38-17.46l2.63-2.51c.17.18 16.92 17.49 37.1 16.78 11.06-.4 21.22-6.11 30.2-17l2.81 2.32c-9.68 11.72-20.75 17.87-32.9 18.29A39.85 39.85.0 0 1 316.23 444.27z"/><path d="M322.36 422.38c-.36.0-.72.0-1.08.0-11.55-.77-18-13.66-18.28-14.21l4.76-1.41-2.38.7 2.38-.7c1.53 3.09 7 11.22 14 11.68 5 .33 10.75-3.47 16.5-11l4.38 2C336 418 329.23 422.38 322.36 422.38z"/><path d="M338.48 376.74S320 255.67 415.38 133s17-148.64-9.18-125.11S306.1 91.78 322.78 373.64z" fill="#fff"/><path d="M285 385.36S270.19 259.23 141.09 162.77 83.22 18.84 115.86 35.16 239 91.55 299.87 377.94z" fill="#fff"/><path d="M235.42 216c4.17 10-9.55 17.7-15.92 8.88-32.69-45.23-62.65-73.68-102.71-120.41-26.59-31-23.74-49.7-4.45-46C128.41 61.55 198.05 125.94 235.42 216z" fill="#fd7e6d"/><path d="M356.18 175.68c-1.2 8.66 11 11.81 14.17 3.67C386.56 137.57 404.06 109.4 425.68 65 440 35.46 434 21.53 419.8 28.33 407.94 34 366.93 98.14 356.18 175.68z" fill="#fd7e6d"/><path d="M340.59 377c0 10.06 2.81 18.22 6.23 18.21S353 387 353 377s-2.81-18.22-6.23-18.21S340.57 366.91 340.59 377z"/><path d="M275.69 366c-6.4-19.59-38-20.54-38.33-20.55l.09-4.1a73 73 0 0 1 18.08 3.12c12.7 3.92 21 10.92 24.07 20.25z" fill="#fd7e6d"/><path d="M279.21 351.63h4.11v6.8H279.21z" transform="translate(-135.94 178.68) rotate(-28.7)" fill="#fd7e6d"/><circle cx="244.24" cy="421.49" r="25.63" transform="translate(-210.93 595.07) rotate(-80.78)" fill="#fd7e6d"/><circle cx="385.74" cy="412.24" r="25.63" fill="#fd7e6d"/><path d="M335.48 360.71c6.41-19.59 38-20.53 38.34-20.54l-.1-4.11a73.65 73.65.0 0 0-18.08 3.12c-12.69 3.93-21 10.93-24.06 20.26z" fill="#fd7e6d"/><path d="M326.51 347.66h6.8v4.11H326.51z" transform="translate(-135.26 471.17) rotate(-61.3)" fill="#fd7e6d"/><path d="M271.34 398.69A34.22 34.22.0 0 1 284 399c1.89.39 5.19.87 6.33-1.33s-1.78-6-2.89-7.74a49.17 49.17.0 0 0-7.36-9.08c-1.19-1.16-5.78.65-4.53 1.88a50.54 50.54.0 0 1 5.82 6.75c1.52 2.15 4.61 5.82 4.18 8.65l1.48-1.27-.61.27 2.45-.33c-5.79-.84-10.94-1.66-16.82-.71-2.28.37-4.06 3.16-.69 2.61z"/></g><path d="M640.92 411.21C652.6 363.63 606.19 308 530.8 330.61c-32.79 9.82-51.7 40.61-41.69 98.8a172.22 172.22.0 0 1 11.24 34.29q19.64.15 39.65.16c32.84.0 65-.33 96.22-.95C634.78 444.09 637.82 423.83 640.92 411.21z" fill="#fff"/><path d="M534.56 417.65h22.43v3.73H534.56z" transform="translate(121.94 961.94) rotate(-89.54)"/><path d="M545.93 411.48c.36.0.73.09 1.1.12 11.81.83 20.16-11.34 20.51-11.86l-4.62-2.1 2.31 1.05-2.31-1.05c-2 2.93-8.69 10.4-15.79 9.9-5.16-.37-10.42-5-15.19-13.45l-4.72 1.43C532.67 405.16 539 410.52 545.93 411.48z"/><path d="M516.16 376.12c0 10.3-2.87 18.64-6.38 18.64s-6.33-8.37-6.31-18.66 2.87-18.65 6.38-18.64S516.18 365.82 516.16 376.12z"/><path d="M598.14 386c0 10.74-2.88 19.44-6.38 19.43s-6.33-8.71-6.32-19.45 2.88-19.44 6.39-19.43S598.16 375.26 598.14 386z"/><path d="M594 364.94c6.55-20.05 38.9-21 39.23-21l-.1-4.2a74.57 74.57.0 0 0-18.5 3.19c-13 4-21.5 11.18-24.62 20.73z" fill="#fd7e6d"/><path d="M584.8 351.58h6.96v4.2H584.8z" transform="translate(-4.44 699.86) rotate(-61.3)" fill="#fd7e6d"/><circle cx="626.16" cy="421.69" r="26.23" fill="#fd7e6d"/><circle cx="481.37" cy="412.22" r="26.23" transform="translate(-81.83 121.62) rotate(-13.28)" fill="#fd7e6d"/><path d="M532.79 359.5c-6.55-20.05-38.9-21-39.22-21l.09-4.2a75.05 75.05.0 0 1 18.5 3.19c13 4 21.51 11.18 24.63 20.73z" fill="#fd7e6d"/><path d="M536.39 344.76h4.2v6.96H536.39z" transform="translate(-101.07 301.36) rotate(-28.7)" fill="#fd7e6d"/><g><path d="M545.77 337S576.05 126.55 819.53 89.23c242.21-37.12 182.74 104.83 70.46 66.69-66.45-22.57-218.06 8.2-278.39 91.22-52.13 71.72-50.79 105.19-50.79 105.19z" fill="#fff"/><path d="M691.11 154.52c20.46-14 124.13-78.16 249.45-50.16 8.3 1.85 15.16 7.47 15.16 16h0c5.73 20.85-30.1 20.51-40.71 20.39-25.38-.3-58.32-6.51-96.54-6.37a248.73 248.73.0 0 0-133 39.45l-7.21 4.62c-4.82 1.82-14.72 8.73-17.24 2.22l.79-2.63C663.29 172.76 690.66 154.83 691.11 154.52z" fill="#fd7e6d"/></g><g><path d="M567.54 342S640 166.47 859 187.66c217.87 21.08 135.19 130.92 46.36 73.22-52.57-34.14-190.61-40.81-261.09 17.81-60.89 50.65-67.09 79.92-67.09 79.92z" fill="#fff"/><path d="M733.48 216c20.79-7.62 124.65-40.4 227 11.38 6.79 3.43 11.49 9.8 9.62 17.17h0c.37 19.31-30.57 11.15-39.73 8.71-21.91-5.84-49.07-18.45-82.19-26.73a222.23 222.23.0 0 0-123.84 4.93l-7.26 2.41c-4.57.52-14.66 4.33-15.42-1.86l1.27-2.1C705.39 225.65 733 216.14 733.48 216z" fill="#fd7e6d"/></g></g></g></g></svg>