<svg xmlns="http://www.w3.org/2000/svg" width="1080" height="806.6" viewBox="0 0 1080 806.6"><g id="Слой_2" data-name="Слой 2"><g id="celebration03_536159234"><g id="celebration03_536159234-2" data-name="celebration03_536159234"><path d="M1070.1 440.47c0 210.58-209.5 359.22-493.4 359.22-450.05.0-569.79-233-569.79-334.44s242.54-97 526.44-97S1070.1 339 1070.1 440.47z" fill="#fcfcfc"/><path d="M576.7 806.6c-105.59.0-200.12-12.89-281-38.3-69.53-21.86-129.11-53-177.08-92.44-40.14-33-71.14-70.85-92.17-112.43C9.41 529.65.0 494.78.0 465.25c0-25.95 14.36-46.92 42.69-62.33 24.56-13.36 60.05-23.05 108.53-29.62 89.88-12.17 215.18-12.09 347.79-12h34.34c54.44.0 107.29-1.07 158.39-2.1 179.1-3.61 320.57-6.47 368 40.06A55.72 55.72.0 0 1 1077 440.48a302.93 302.93.0 0 1-38 148.3c-24.41 44.15-59.76 83.13-105.07 115.87-44.94 32.47-98.24 57.76-158.42 75.16C714 797.59 647.14 806.6 576.7 806.6zM466.23 375.1c-119.87.0-231.59.85-313.16 11.9-46.78 6.34-80.72 15.52-103.77 28.06-23.87 13-35.48 29.41-35.48 50.19.0 49.11 29.75 130.93 113.61 199.94 70.73 58.2 206.1 127.59 449.27 127.59 136.47.0 260.46-35.28 349.12-99.33s137.37-153.85 137.37-253c0-12.46-4.28-22.71-13.08-31.34C1006.78 366.68 860.92 369.62 692 373c-51.17 1-104.09 2.1-158.67 2.1H499z" fill="#010319"/><path d="M1072.19 425.28c-7.18-72.22-56.05-153.8-97.86-207.07-79.83-101.71-198.5-167.12-322.7-198-23.17-5.77-47-11.06-70.8-13.24C107.1 3.36 23.46 335.69 9.55 424.88a56.07 56.07.0 0 0-2.64 17.27c0 1.21.0 2.46.06 3.71.0.53-.06.81-.06.81l.08.05C10.51 550.44 133.28 776.59 576.7 776.59c125.87.0 258.86-28.85 360.76-106.27C1003.4 620.22 1070.21 534.07 1073 448A173.07 173.07.0 0 0 1072.19 425.28z" fill="#fcfcfc"/><path d="M576.71 783.5h0c-104.13.0-197.54-12.54-277.63-37.26-69.06-21.33-128.45-51.71-176.51-90.3C35.64 586.15 2.36 503 .12 448A7.18 7.18.0 0 1 0 446.22s0-.18.0-.53c0-1.19.0-2.38.0-3.54a63 63 0 0 1 2.81-18.86C9.53 380.57 34.09 272.2 117.55 176.58c46.61-53.4 105-95.37 173.39-124.74C373 16.63 470.53-.81 580.88.0a5.63 5.63.0 0 1 .58.0c25 2.28 49.28 7.8 71.84 13.41 65.05 16.19 125.56 40.84 179.86 73.24 58.35 34.83 107.68 77.64 146.6 127.23 16.89 21.52 41.47 55.91 62.65 97.56 21 41.25 33.3 79.3 36.66 113.09a179.9 179.9.0 0 1 .84 23.67c-3 92.72-76.37 180.54-138.27 227.56C892.8 712.93 834.34 741 767.9 759.15 708.86 775.31 644.53 783.5 576.71 783.5zM13.87 446.11c0 .12.0.25.0.38 1.76 51.92 33.5 131.38 117.31 198.67 101.45 81.46 255.5 124.52 445.49 124.52 99.71.0 242.5-18.19 356.58-104.86 59.48-45.19 130-129.14 132.82-217a166.13 166.13.0 0 0-.79-21.85h0c-8.52-85.69-75.95-177.42-96.42-203.49C895.79 129.35 782.53 59.88 650 26.88c-21.93-5.46-45.53-10.82-69.47-13h-7.28C116.3 13.82 31.52 328.91 16.38 425.94a7.3 7.3.0 0 1-.25 1.05 49.47 49.47.0 0 0-2.31 15.16c0 1.15.0 2.33.06 3.52C13.88 445.82 13.88 446 13.87 446.11z" fill="#010319"/><path d="M718.86 239.59l99.06-106.72H619.8l-84-90.46-82.38 90.46H259.1l97.18 106.72L259.1 346.32H453.45l82.38 90.46 84-90.46H817.92zm23.33-73.69-45.86 49.42L650.46 165.9zm-68.4 73.69-68.4 73.69H468.05L401 239.59l67.1-73.69H605.39zM536.06 91.21l38.67 41.66h-76.6zM333.85 165.9h89.53l-44.77 49.16zm0 147.38 44.76-49.16 44.77 49.16zM536.06 388l-37.93-41.65h76.6zm160.27-124.1 45.86 49.41H650.46z" fill="#010319"/></g></g></g></svg>