<svg xmlns="http://www.w3.org/2000/svg" width="606.95" height="1080" viewBox="0 0 606.95 1080"><g id="Слой_2" data-name="Слой 2"><g id="woman_162782976"><g id="woman_162782976-2" data-name="woman_162782976"><path d="M509.53 274.32c4.13 38.57 1.69 84.84-14.34 121.22C506 357.09 508.1 313.82 509.53 274.32z" fill="#1d1d1b"/><path d="M488.7 416.62s-.57 1.32-1.73 3.77-2.89 6-5.28 10.47-5.39 9.81-9 15.86-7.85 12.78-12.87 19.86c-2.43 3.6-5.16 7.2-7.91 11-1.41 1.87-2.89 3.74-4.36 5.65s-3 3.86-4.59 5.76l-4.81 5.84-5.11 5.83-2.61 3-2.74 2.88-5.57 5.85-23.35 23.81c-8 8.06-16.2 16.25-24.92 23.94S355.69 574.8 345.34 580a94.55 94.55.0 0 1-32.44 9.49l-8.13.59c-2.69.11-5.35.0-8 0h-2c-.34.0-.63.0-1 0l-1-.05-3.83-.23c-2.53-.11-5.08-.42-7.57-.64-1.25-.11-2.49-.26-3.71-.45l-3.63-.53c-2.41-.37-4.75-.91-7.07-1.35-2.28-.64-4.55-1.13-6.72-1.86s-4.31-1.39-6.3-2.32l-3-1.29-2.83-1.47a50.42 50.42.0 0 1-5.28-3.15 71.72 71.72.0 0 1-8.88-7c-1.36-1.14-2.49-2.44-3.67-3.6-.57-.59-1.16-1.16-1.69-1.74l-1.54-1.77c-1-1.16-2-2.23-2.86-3.33l-2.47-3.15c-3.07-4-5.3-7.31-6.77-9.57l-2.29-3.47 2.46 3.35c1.57 2.2 4 5.33 7.19 9.23l2.57 3c.89 1.06 1.93 2.08 2.95 3.2.52.55 1.05 1.11 1.58 1.69s1.15 1.09 1.74 1.66c1.21 1.1 2.36 2.33 3.75 3.4a69.59 69.59.0 0 0 19.84 12c1.95.86 4.06 1.42 6.17 2.11s4.34 1.09 6.57 1.66c2.27.38 4.57.85 6.93 1.17l3.57.43c1.2.16 2.41.28 3.64.35 2.45.17 4.89.42 7.45.47L293 587h1c.27.0.63.0.94.0h1.92c2.57-.07 5.18.0 7.8-.15l7.89-.66c2.63-.38 5.27-.87 7.93-1.31a14.86 14.86.0 0 0 2-.43l2-.52 3.95-1a13.39 13.39.0 0 0 1.95-.62l1.93-.7 3.88-1.4c2.55-1 5-2.29 7.57-3.43 9.95-5.05 19.08-12 27.68-19.53s16.8-15.65 24.82-23.66L419.74 510l5.59-5.73 2.76-2.83 2.64-2.87 5.2-5.66 4.9-5.68c1.64-1.85 3.18-3.74 4.68-5.61s3-3.69 4.46-5.51c2.81-3.7 5.61-7.22 8.11-10.74 5.12-6.95 9.54-13.51 13.42-19.36s7-11.11 9.54-15.47 4.48-7.82 5.74-10.21S488.7 416.62 488.7 416.62z" fill="#1d1d1b"/><path d="M545.39 190.79a18.15 18.15.0 0 1 1.29 1.55 38.06 38.06.0 0 1 3.13 4.79c.64 1.06 1.2 2.31 1.88 3.64s1.28 2.83 1.81 4.47a60.93 60.93.0 0 1 2.91 11.22c.29 2.11.64 4.31.73 6.6a69.43 69.43.0 0 1 .14 7.11c0 1.23-.11 2.46-.2 3.71s-.17 2.51-.31 3.79c-.39 2.52-.72 5.15-1.22 7.73-1 5.18-2 10.53-3.2 15.94s-2.43 10.9-3.77 16.37-2.83 10.9-4.38 16.22-3.25 10.53-5 15.51c-3.55 10-7.52 19.08-12.07 26.29a43.75 43.75.0 0 1-7.27 9.07 17.41 17.41.0 0 1-7.75 4.46 10.82 10.82.0 0 1-5.71-.19 10 10 0 0 1-1.42-.51l-.47-.2.48.17a10.67 10.67.0 0 0 1.44.41 11 11 0 0 0 5.56-.17 16.57 16.57.0 0 0 7.21-4.66 45.76 45.76.0 0 0 6.67-9.14c4.18-7.23 7.85-16.33 11.2-26.26 1.68-5 3.23-10.16 4.75-15.46s2.94-10.72 4.28-16.16 2.65-10.89 3.84-16.28 2.36-10.69 3.41-15.85c.55-2.58.88-5.09 1.34-7.56.17-1.24.27-2.48.4-3.69s.29-2.42.3-3.61.07-2.37.11-3.53.0-2.3-.06-3.42a63.42 63.42.0 0 0-.48-6.48 66.78 66.78.0 0 0-2.36-11.12c-.44-1.65-1.07-3.11-1.56-4.5s-1.09-2.61-1.66-3.69A34.91 34.91.0 0 0 545.39 190.79z" fill="#1d1d1b"/><path d="M439.35 493.15l-.44 3.21c-.26 2.09-.64 5.16-1.13 9.07-1 7.82-2.07 19-3.13 32.45-.52 6.73-1 14-1.4 21.72s-.67 15.85-.85 24.26-.1 17.11.08 25.94.61 17.79 1.33 26.72 1.61 17.85 2.89 26.57 2.83 17.25 4.76 25.41a225.71 225.71.0 0 0 6.71 23.19 164.43 164.43.0 0 0 8.46 19.9A111.86 111.86.0 0 0 475 758.14l1.93 2 1.78 1.7 1.53 1.46 1.33 1.15 2.46 2.1-2.59-1.94-1.41-1.07-1.63-1.36-1.89-1.59-2-1.93a95.4 95.4.0 0 1-9.58-10.58 114.31 114.31.0 0 1-10.23-15.47 151.56 151.56.0 0 1-9.21-19.94 205.52 205.52.0 0 1-7.3-23.38c-2.05-8.24-3.84-16.85-5.14-25.66s-2.34-17.81-3.05-26.82-1.06-18.05-1.21-27 0-17.64.26-26.1.78-16.62 1.36-24.35 1.31-15 2.07-21.74c1.49-13.45 3.29-24.58 4.58-32.35.64-3.89 1.25-6.93 1.65-9S439.35 493.15 439.35 493.15z" fill="#1d1d1b"/><path d="M436.93 18.85c-49 96.06-131.07 196.24-234.23 235.41-85.65 31-221.47 57-193.77 178.53C-36.85 313 104 269.34 189.59 240.09 293.6 206.05 376.46 105 436.93 18.85z" fill="#1d1d1b"/><path d="M371.63.0c-198.19 139.52-313.55 323-239 564.43C171 690.81 273 781.12 300.78 913.05c24 114.14-30.07 199.32-154 155C249.52 1097.23 311 1046 293.7 940.87c-24-143.09-146.53-235.07-187.81-369.78C30.38 325.38 158.47 128.65 371.63.0z" fill="#1d1d1b"/><path d="M545.67 99.65c96.58 178.31 78.75 278.2-51.79 453.9-40.33 54.28-48.4 204.94 57.74 179.09-81.92 32.41-127.79-50.52-99.19-139.8 8.07-25.21 30.54-51.11 44.21-72.68C605.63 387.9 591.33 255.15 545.67 99.65z" fill="#1d1d1b"/><path d="M224.13 441.39s48.14-23.6 57.61-17.28c10.64 7.09 17.73 12.41 17.73 12.41s17.06-10.86 23-8.87 48.7 21 48.7 21-9.7 29.53-54.84 39.21c-51.49 11-87.92-29.63-95.07-46" fill="#e40f2c"/><path d="M362.46 183.63s40.82-20.23 49.13-24.24 17.23-8.13 26.26-11.84c4.51-1.85 9.07-3.55 13.57-5a81.47 81.47.0 0 1 13.19-3.33l1.57-.22 1.51-.09a18.06 18.06.0 0 1 2.85.0 6.37 6.37.0 0 1 1.24.18l.6.11h.24l.4.12 3.1 1c4.07 1.31 7.95 2.47 11.54 3.53s6.74 2.18 9.64 3.06 5.4 1.71 7.49 2.36l6.59 2-1.49-1c-1-.69-2.44-1.58-4.31-2.73s-4.16-2.55-6.87-4-5.77-3.09-9.16-4.77-7.07-3.26-11-5l-3-1.31-.38-.17c-.27-.1-.36-.11-.55-.18l-1-.3a12 12 0 0 0-2-.48 25.64 25.64.0 0 0-3.93-.39h-1.95l-1.89.1a89.4 89.4.0 0 0-15 2.36c-4.94 1.13-9.82 2.58-14.65 4.13-9.69 3.06-19.08 6.72-27.8 10.31s-16.79 7.1-23.59 10.33-12.45 5.95-16.39 7.92l-6.17 3.19z" fill="#1d1d1b"/><path d="M498 211.38s-26.27 11.26-27.21-.94c3.76-10.31 12.2-27.2 12.2-27.2S454.89 217 420.18 221.7c-20.64 1.88-35.65-8.44-49.72 2.82 21.58 1.87 38.29 19.07 61.91 18.76C464.61 242.85 487.72 223.58 498 211.38z" fill="#050708"/></g></g></g></svg>