<svg xmlns="http://www.w3.org/2000/svg" width="1058.47" height="1080" viewBox="0 0 1058.47 1080"><g id="Слой_2" data-name="Слой 2"><g id="money02_538456658"><g id="money02_538456658-2" data-name="money02_538456658"><path d="M9.68 528.42V685.99L675.36 1070.33 1048.79 854.73V697.16L675.36 912.75 9.68 528.42z" fill="#57a400"/><path d="M210.05 644.11 9.68 528.42 383.12 312.82l665.67 384.34L675.36 912.75 474.99 797.06 210.05 644.11z" fill="#57a400"/><path d="M801.75 608.42l126.6 73.08c-21.27 12.28-23.58 30.86-5.16 41.47L720.11 840.23c-18.41-10.65-50.58-9.29-71.84 3L521.65 770.1l-264.91-153L130.13 544.07c21.25-12.28 23.57-30.85 5.15-41.5L338.36 385.35c18.41 10.61 50.58 9.28 71.84-3l126.62 73.11z" fill="#fcfcfc"/><path d="M359.53 514.82c-23.42 13.49-56.06 16.59-72.91 6.85s-11.52-28.56 11.89-42.09 56.06-16.59 72.91-6.89S383 501.28 359.53 514.82z" fill="#57a400"/><path d="M698.94 710.76c-23.42 13.53-28.74 32.38-11.9 42.09S736.53 759.49 760 746s28.74-32.39 11.9-42.09S722.36 697.23 698.94 710.76z" fill="#57a400"/><path d="M583.49 428.52 210.05 644.11 268.27 677.71 368.52 735.6 474.99 797.06 848.42 581.46 583.49 428.52z" fill="#fcfcfc"/><path d="M268.27 677.71 210.05 644.11V801.69L474.99 954.64V797.06L368.52 735.6 268.27 677.71z" fill="#fcfcfc"/><path d="M397.93 95.14V321.38L789.91 547.86V95.14H397.93z" fill="#ffb048"/><path d="M555.38 95.14v317.2L789.91 547.86V95.14H555.38z" fill="#ff9124"/><path d="M789.91 95.14c0 41-87.74 74.3-196 74.3s-196-33.26-196-74.3 87.75-74.34 196-74.34S789.91 54.09 789.91 95.14z" fill="#ffb048"/><path d="M737.46 44.56c-2.47 40.21-89.18 72.56-195.88 72.56-56.7.0-107.74-9.15-143.54-23.72.0.55-.11 1.15-.11 1.74.0 41 87.75 74.3 196 74.3s196-33.26 196-74.3C789.91 75.59 770 57.81 737.46 44.56z" fill="#ff9124"/><path d="M629.67 83.97V455.16l391.99 226.31V83.97H629.67z" fill="#ffb048"/><path d="M941.54 83.97V635.21L1021.66 681.47V83.97H941.54z" fill="#ff9124"/><path d="M1021.65 84c0 41.05-87.75 74.34-196 74.34S629.67 125 629.67 84s87.75-74.3 196-74.3S1021.65 42.93 1021.65 84z" fill="#ffb048"/><path d="M969.2 33.39C966.74 73.64 880 106 773.33 106c-56.71.0-107.76-9.15-143.54-23.76.0.59-.12 1.18-.12 1.74.0 41.05 87.75 74.34 196 74.34s196-33.29 196-74.34C1021.65 64.46 1001.73 46.68 969.2 33.39z" fill="#ff9124"/><path d="M675.36 922.43a10 10 0 0 1-4.84-1.29L470.15 805.44a9.67 9.67.0 1 1 9.67-16.76L675.36 901.59l354.09-204.43L383.12 324 29 528.42 214.88 635.73a9.67 9.67.0 1 1-9.67 16.76L4.84 536.8a9.68 9.68.0 0 1 0-16.77L378.28 304.44a9.63 9.63.0 0 1 9.68.0l665.67 384.33a9.66 9.66.0 0 1 0 16.74L680.19 921.14A10 10 0 0 1 675.36 922.43z" fill="#1e1e1e"/><path d="M312.38 537c-12.12.0-22.69-2.4-30.6-7-9.46-5.46-14.67-13.74-14.67-23.24.0-12.9 9.68-25.87 26.57-35.61a107 107 0 0 1 52-13.85c12.11.0 22.68 2.4 30.59 7 9.46 5.46 14.67 13.71 14.67 23.24.0 12.87-9.68 25.84-26.57 35.58A107 107 0 0 1 312.38 537zm33.29-60.32A88.24 88.24.0 0 0 303.35 488c-12.47 7.2-16.9 14.65-16.9 18.85.0.88.0 3.59 5 6.48s12.32 4.38 20.92 4.38a88.54 88.54.0 0 0 42.31-11.24c12.47-7.2 16.9-14.64 16.9-18.85.0-.9.0-3.62-5-6.51S354.27 476.69 345.67 476.69z" fill="#1e1e1e"/><path d="M712.81 768.22h0c-12.11.0-22.69-2.43-30.59-7-9.46-5.46-14.67-13.7-14.67-23.23.0-12.91 9.69-25.85 26.57-35.62a107 107 0 0 1 52-13.85c12.11.0 22.69 2.44 30.59 7 9.47 5.47 14.68 13.71 14.68 23.24.0 12.87-9.68 25.84-26.57 35.62A107 107 0 0 1 712.81 768.22zm33.28-60.35a88.21 88.21.0 0 0-42.31 11.27c-12.47 7.2-16.9 14.65-16.9 18.86.0.86.0 3.58 5 6.47s12.32 4.38 20.91 4.38h0a88.18 88.18.0 0 0 42.31-11.24C767.59 730.41 772 723 772 718.76c0-.87.0-3.62-5-6.5S754.68 707.87 746.09 707.87z" fill="#1e1e1e"/><path d="M268.25 583.17a9.68 9.68.0 0 1-4.82-1.29L192 540.66a9.68 9.68.0 0 1 9.68-16.77l71.42 41.23a9.67 9.67.0 0 1-4.85 18z" fill="#1e1e1e"/><path d="M861.62 703a9.75 9.75.0 0 1-4.83-1.29l-71.42-41.26A9.66 9.66.0 1 1 795 643.69l71.42 41.22A9.68 9.68.0 0 1 861.62 703z" fill="#1e1e1e"/><path d="M256.73 626.82a9.8 9.8.0 0 1-4.84-1.28l-126.6-73.09a9.67 9.67.0 0 1 0-16.76c7.87-4.56 12.75-10.33 12.75-15.1.0-4.56-4.76-8-7.6-9.63a9.69 9.69.0 0 1 0-16.77L333.53 377a9.66 9.66.0 0 1 9.67.0c15.45 8.91 43.92 7.55 62.16-3a9.82 9.82.0 0 1 9.68.0l126.61 73.12A9.66 9.66.0 1 1 532 463.82L410 393.38c-22 10.54-51.2 11.72-71.28 2.92L151.79 504.21a26.9 26.9.0 0 1 5.59 16.38c0 7.9-3.51 15.58-10 22.3l114.15 65.88a9.67 9.67.0 0 1-4.84 18.05z" fill="#1e1e1e"/><path d="M648.27 852.89a9.94 9.94.0 0 1-4.84-1.29L516.82 778.48a9.67 9.67.0 1 1 9.67-16.76l122 70.44c22-10.54 51.2-11.69 71.29-2.92l186.9-107.91a26.82 26.82.0 0 1-5.6-16.34c0-7.9 3.53-15.62 10-22.3L796.91 616.8A9.67 9.67.0 0 1 806.58 6e2l126.6 73.08a9.68 9.68.0 0 1 0 16.77c-7.87 4.52-12.76 10.33-12.76 15.1.0 4.55 4.77 8 7.6 9.63a9.65 9.65.0 0 1 0 16.73L724.94 848.61a9.61 9.61.0 0 1-9.67.0c-15.45-8.94-43.92-7.55-62.17 3A9.87 9.87.0 0 1 648.27 852.89z" fill="#1e1e1e"/><path d="M210 706.31a9.69 9.69.0 0 1-4.83-1.29L4.84 589.33a9.68 9.68.0 0 1 9.67-16.77L214.88 688.25A9.68 9.68.0 0 1 210 706.31z" fill="#1e1e1e"/><path d="M675.36 975a9.94 9.94.0 0 1-4.84-1.29L470.14 858a9.68 9.68.0 0 1 9.67-16.77L675.36 954.11 1044 741.3a9.66 9.66.0 1 1 9.68 16.73L680.19 973.66A9.87 9.87.0 0 1 675.36 975z" fill="#1e1e1e"/><path d="M210 758.83a9.79 9.79.0 0 1-4.83-1.28L4.84 641.85a9.68 9.68.0 0 1 9.67-16.77l200.37 115.7A9.67 9.67.0 0 1 210 758.83z" fill="#1e1e1e"/><path d="M675.36 1027.48a9.62 9.62.0 0 1-4.84-1.29L470.14 910.49a9.67 9.67.0 0 1 9.67-16.76l195.55 112.91L1044 793.83a9.66 9.66.0 1 1 9.68 16.73L680.19 1026.19A9.56 9.56.0 0 1 675.36 1027.48z" fill="#1e1e1e"/><path d="M210 811.36a9.69 9.69.0 0 1-4.83-1.29L4.84 694.38a9.68 9.68.0 0 1 9.67-16.77L214.88 793.3A9.68 9.68.0 0 1 210 811.36z" fill="#1e1e1e"/><path d="M675.36 1080a9.94 9.94.0 0 1-4.84-1.29L470.15 963a9.68 9.68.0 0 1 9.67-16.77l195.54 112.91L1044 846.35a9.66 9.66.0 1 1 9.68 16.73L680.19 1078.71A9.87 9.87.0 0 1 675.36 1080z" fill="#1e1e1e"/><path d="M475 806.73a9.63 9.63.0 0 1-4.85-1.29L363.68 744a9.68 9.68.0 0 1 9.67-16.77L475 785.9 829.08 581.46 583.49 439.68 229.4 644.11l43.71 25.22a9.68 9.68.0 0 1-9.68 16.77l-58.22-33.61a9.68 9.68.0 0 1 0-16.76l373.44-215.6a9.63 9.63.0 0 1 9.68.0l264.92 153a9.68 9.68.0 0 1 0 16.77L479.82 805.44A9.56 9.56.0 0 1 475 806.73z" fill="#1e1e1e"/><path d="M475 752.5a9.67 9.67.0 0 1-4.85-18l25-14.44a9.66 9.66.0 1 1 9.67 16.73l-25 14.44A9.48 9.48.0 0 1 475 752.5z" fill="#1e1e1e"/><path d="M536.93 716.74a9.67 9.67.0 0 1-4.84-18L749.62 573.08a9.68 9.68.0 0 1 9.67 16.77L541.76 715.42A9.45 9.45.0 0 1 536.93 716.74z" fill="#1e1e1e"/><path d="M475 964.31a9.63 9.63.0 0 1-4.85-1.29L205.21 810.07a9.71 9.71.0 0 1-4.83-8.38V644.11a9.67 9.67.0 0 1 14.5-8.38l58.23 33.6a9.68 9.68.0 0 1-9.68 16.77l-43.71-25.26V796.09L465.31 937.87V802.66L363.68 744a9.68 9.68.0 0 1 9.67-16.77l106.47 61.47a9.72 9.72.0 0 1 4.84 8.38V954.64a9.72 9.72.0 0 1-4.84 8.38A9.56 9.56.0 0 1 475 964.31z" fill="#1e1e1e"/><path d="M329 722.48a9.75 9.75.0 0 1-4.82-1.32l-25.24-14.58a9.66 9.66.0 1 1 9.67-16.73l25.24 14.58A9.68 9.68.0 0 1 329 722.48z" fill="#1e1e1e"/><path d="M593.92 179.14c-117.25.0-205.66-36.14-205.66-84s88.41-84 205.66-84c12.23.0 24.48.42 36.42 1.25A9.68 9.68.0 1 1 629 31.69c-11.5-.8-23.29-1.22-35.08-1.22-109.8.0-186.31 34.09-186.31 64.67s76.51 64.63 186.31 64.63a9.69 9.69.0 0 1 0 19.37z" fill="#1e1e1e"/><path d="M452.92 98.65a9.68 9.68.0 0 1-4.53-18.23c10.7-5.67 51.35-24.35 125-27.41a9.68 9.68.0 0 1 .8 19.34c-69.6 2.86-107 20-116.75 25.19A10.05 10.05.0 0 1 452.92 98.65z" fill="#fcfcfc"/><path d="M450.12 223.84a9.13 9.13.0 0 1-3.66-.73c-37.53-15.34-58.2-36.45-58.2-59.45V95.14a9.68 9.68.0 0 1 19.35.0c0 11 9.82 20.45 18.06 26.43 31.85 23.2 97.89 38.2 168.25 38.2a9.67 9.67.0 1 1 0 19.34c-75.32.0-144.16-16-179.64-41.88-2.44-1.78-4.65-3.55-6.67-5.32v31.75c0 14.4 16.83 29.54 46.18 41.57a9.67 9.67.0 0 1-3.67 18.61z" fill="#1e1e1e"/><path d="M593.92 247.67c-33.55.0-66.77-3.24-96.09-9.32a9.67 9.67.0 1 1 3.94-18.93c28 5.81 59.9 8.91 92.15 8.91a9.67 9.67.0 1 1 0 19.34z" fill="#1e1e1e"/><path d="M450.11 292.4a9.67 9.67.0 0 1-3.66-.73c-37.52-15.37-58.19-36.45-58.19-59.45V163.66a9.68 9.68.0 0 1 19.35.0c0 11 9.82 20.46 18.06 26.47 7.44 5.43 16.9 10.51 28.12 15.1a9.68 9.68.0 0 1-7.34 17.91c-12.65-5.18-23.47-11-32.17-17.39-2.45-1.77-4.65-3.55-6.67-5.32v31.79c0 14.41 16.83 29.54 46.17 41.54a9.68 9.68.0 0 1-3.67 18.64z" fill="#1e1e1e"/><path d="M593.92 316.23c-33.53.0-66.74-3.24-96-9.32A9.67 9.67.0 1 1 501.82 288c28 5.81 59.87 8.87 92.1 8.87a9.69 9.69.0 0 1 0 19.38z" fill="#1e1e1e"/><path d="M450.12 292.4a9.72 9.72.0 0 1-3.67-.73 154.23 154.23.0 0 1-32.17-17.36c-2.45-1.77-4.65-3.55-6.67-5.32v12.59a9.68 9.68.0 0 1-19.35.0V232.22a9.68 9.68.0 0 1 19.35.0c0 11 9.82 20.46 18.06 26.48 7.44 5.42 16.9 10.47 28.12 15.06a9.68 9.68.0 0 1-3.67 18.64z" fill="#1e1e1e"/><path d="M825.66 168C708.42 168 620 131.87 620 84S708.42.0 825.66.0s205.67 36.11 205.67 84S942.91 168 825.66 168zm0-148.64C715.86 19.34 639.35 53.4 639.35 84s76.51 64.67 186.31 64.67S1012 114.58 1012 84 935.46 19.34 825.66 19.34z" fill="#1e1e1e"/><path d="M825.66 236.54a482.16 482.16.0 0 1-89-7.93 9.68 9.68.0 0 1 3.59-19 461.7 461.7.0 0 0 85.44 7.58c109.8.0 186.32-34 186.32-64.63V120.74c-2 1.77-4.23 3.55-6.66 5.32C969.83 151.91 901 168 825.66 168S681.5 151.91 646 126.1q-3.66-2.71-6.67-5.36v31.79c0 15.31 19.54 31.73 52.3 43.94a9.67 9.67.0 1 1-6.75 18.12C643.05 199 620 177 620 152.53V84a9.67 9.67.0 1 1 19.34.0c0 11 9.82 20.45 18.07 26.47 31.84 23.2 97.88 38.2 168.24 38.2s136.41-15 168.26-38.2C1002.16 104.42 1012 95 1012 84a9.68 9.68.0 0 1 19.35.0v68.56C1031.33 200.43 942.91 236.54 825.66 236.54z" fill="#1e1e1e"/><path d="M825.66 305.06a482 482 0 0 1-89-7.89 9.68 9.68.0 0 1 3.59-19 461.39 461.39.0 0 0 85.44 7.58c109.8.0 186.32-34.05 186.32-64.63V189.3c-2 1.77-4.23 3.55-6.66 5.32C969.83 220.47 901 236.54 825.66 236.54a482.35 482.35.0 0 1-89-7.93 9.68 9.68.0 0 1 3.59-19 461.89 461.89.0 0 0 85.45 7.58c70.36.0 136.41-15 168.26-38.16 8.24-6 18.06-15.48 18.06-26.47a9.68 9.68.0 0 1 19.35.0v68.56C1031.33 269 942.91 305.06 825.66 305.06z" fill="#1e1e1e"/><path d="M688.69 283.91a9.51 9.51.0 0 1-3.37-.62C643.2 267.71 620 245.58 620 221.09V152.53a9.67 9.67.0 1 1 19.34.0c0 11 9.82 20.46 18.07 26.47 8.79 6.4 20.31 12.28 34.22 17.47a9.67 9.67.0 1 1-6.75 18.12c-15.57-5.81-28.65-12.52-38.87-20-2.44-1.77-4.66-3.55-6.67-5.32v31.79c0 15.38 19.7 31.83 52.69 44.08a9.67 9.67.0 0 1-3.35 18.74z" fill="#1e1e1e"/><path d="M825.66 373.62a481.37 481.37.0 0 1-89-7.93 9.66 9.66.0 1 1 3.59-19 464.3 464.3.0 0 0 85.44 7.58c109.8.0 186.32-34.09 186.32-64.66V257.86c-2 1.77-4.23 3.55-6.66 5.32C969.83 289 901 305.06 825.66 305.06a482.07 482.07.0 0 1-89-7.89 9.68 9.68.0 0 1 3.59-19 461.54 461.54.0 0 0 85.44 7.58c70.36.0 136.41-15 168.26-38.19 8.24-6 18.06-15.48 18.06-26.44a9.68 9.68.0 0 1 19.35.0v68.53C1031.33 337.52 942.91 373.62 825.66 373.62z" fill="#1e1e1e"/><path d="M688 352.2a9.67 9.67.0 0 1-3.39-.63C642.93 336 620 314 620 289.62V221.09a9.67 9.67.0 1 1 19.34.0c0 11 9.82 20.46 18.07 26.44C666.3 254 678 260 692 265.17a9.68 9.68.0 0 1-6.72 18.15c-15.75-5.84-29-12.62-39.3-20.14-2.43-1.77-4.66-3.55-6.67-5.32v31.76c0 15.27 19.44 31.65 52 43.83A9.69 9.69.0 0 1 688 352.2z" fill="#1e1e1e"/><path d="M825.66 442.15a481.11 481.11.0 0 1-89-7.9 9.68 9.68.0 0 1 3.59-19 461.39 461.39.0 0 0 85.44 7.58c109.8.0 186.32-34.05 186.32-64.63V326.39c-2 1.77-4.23 3.54-6.66 5.32C969.83 357.55 901 373.62 825.66 373.62a481.14 481.14.0 0 1-89-7.93 9.66 9.66.0 1 1 3.59-19 464.14 464.14.0 0 0 85.44 7.58c70.36.0 136.41-15 168.26-38.19 8.24-6 18.06-15.48 18.06-26.47a9.68 9.68.0 0 1 19.35.0v68.56C1031.33 406 942.91 442.15 825.66 442.15z" fill="#1e1e1e"/><path d="M688.67 421a10.43 10.43.0 0 1-3.36-.59C643.2 404.79 620 382.67 620 358.18V289.62a9.67 9.67.0 1 1 19.34.0c0 11 9.82 20.45 18.07 26.47 8.74 6.37 20.15 12.21 34 17.36a9.68 9.68.0 1 1-6.79 18.12c-15.42-5.77-28.4-12.45-38.56-19.86-2.43-1.78-4.66-3.55-6.67-5.32v31.79c0 15.37 19.69 31.83 52.69 44.07A9.68 9.68.0 0 1 688.67 421z" fill="#1e1e1e"/><path d="M825.66 510.71c-13.56.0-27.1-.52-40.24-1.53a9.68 9.68.0 0 1 1.49-19.3c12.65 1 25.69 1.49 38.75 1.49 109.8.0 186.32-34.09 186.32-64.66V395c-2 1.77-4.23 3.55-6.66 5.32C969.83 426.11 901 442.15 825.66 442.15a481.19 481.19.0 0 1-89-7.9 9.68 9.68.0 0 1 3.59-19 461.62 461.62.0 0 0 85.44 7.58c70.36.0 136.41-15 168.26-38.19 8.24-6 18.06-15.45 18.06-26.44a9.68 9.68.0 0 1 19.35.0v68.53C1031.33 474.6 942.91 510.71 825.66 510.71z" fill="#1e1e1e"/><path d="M688.67 421a10.39 10.39.0 0 1-3.36-.59c-15.75-5.84-29-12.63-39.29-20.14-2.43-1.77-4.66-3.55-6.67-5.32v15.37a9.67 9.67.0 1 1-19.34.0V358.18a9.67 9.67.0 1 1 19.34.0c0 11 9.82 20.45 18.07 26.47 8.87 6.44 20.52 12.38 34.61 17.6A9.67 9.67.0 0 1 688.67 421z" fill="#1e1e1e"/><path d="M901.94 573.43a9.68 9.68.0 0 1-1.52-19.24C966.11 543.65 1012 519.44 1012 495.27V463.51c-2 1.74-4.23 3.55-6.66 5.32C969.83 494.68 901 510.71 825.66 510.71c-13.84.0-27.66-.52-41.06-1.6a9.66 9.66.0 1 1 1.52-19.27c12.9 1 26.21 1.53 39.54 1.53 70.36.0 136.41-15 168.26-38.19 8.24-6 18.06-15.48 18.06-26.47a9.68 9.68.0 0 1 19.35.0v68.56c0 35.48-49 65.39-127.85 78A8.09 8.09.0 0 1 901.94 573.43z" fill="#1e1e1e"/><path d="M972.82 622.58A9.66 9.66.0 0 1 969 604c27.33-11.79 43-26.44 43-40.21V532c-2 1.77-4.23 3.54-6.66 5.32-22.27 16.21-58.43 29-101.84 35.93a9.67 9.67.0 0 1-3.06-19.1c40.46-6.47 73.66-18 93.5-32.45 8.24-6 18.06-15.48 18.06-26.47a9.68 9.68.0 0 1 19.35.0v68.56c0 22.5-18.92 42.54-54.69 57.95A9.26 9.26.0 0 1 972.82 622.58z" fill="#1e1e1e"/><path d="M1021.66 642a9.66 9.66.0 0 1-9.68-9.67V600.6c-2 1.77-4.23 3.54-6.66 5.32a149.17 149.17.0 0 1-28.68 15.86A9.66 9.66.0 1 1 969 604a129.88 129.88.0 0 0 24.94-13.78c8.24-6 18.06-15.44 18.06-26.43a9.68 9.68.0 0 1 19.35.0v68.52A9.66 9.66.0 0 1 1021.66 642z" fill="#1e1e1e"/><path d="M684.67 87.48a9.67 9.67.0 0 1-4.54-18.22c10.71-5.64 51.34-24.35 125-27.38a9.66 9.66.0 1 1 .8 19.31c-69.6 2.88-107 20-116.75 25.18A9.52 9.52.0 0 1 684.67 87.48z" fill="#fcfcfc"/></g></g></g></svg>