<svg xmlns="http://www.w3.org/2000/svg" width="1080" height="1067.24" viewBox="0 0 1080 1067.24"><g id="Слой_2" data-name="Слой 2"><g id="virtual04_544830888"><g id="virtual04_544830888-2" data-name="virtual04_544830888"><path d="M1014.73 410H81.27a23.74 23.74.0 0 0-23.84 23.64v595.76h958V615.93z" fill="#fcfcfc"/><path d="M1015.43 1040.59h-958a11.24 11.24.0 0 1-11.24-11.24V433.59a35 35 0 0 1 35.09-34.88h933.45a11.24 11.24.0 1 1 0 22.47H81.28a12.53 12.53.0 0 0-12.62 12.41v584.53h935.53V615.93a11.24 11.24.0 0 1 22.47.0v413.42A11.23 11.23.0 0 1 1015.43 1040.59z" fill="#220733"/><path d="M1024.06 962.58H694.23c.09 1.1.33 2.15.33 3.27a39.05 39.05.0 0 1-39.11 38.77H424.55a39.05 39.05.0 0 1-39.11-38.77c0-1.12.24-2.17.33-3.27H55.94c-24.59.0-44.71 19.94-44.71 44.32v4.79c0 24.37 20.12 44.32 44.71 44.32h968.12c24.59.0 44.71-20 44.71-44.32v-4.79C1068.77 982.52 1048.65 962.58 1024.06 962.58z" fill="#7796f7"/><path d="M1024.06 1067.24H55.94c-30.85.0-55.94-24.92-55.94-55.55v-4.79c0-30.63 25.09-55.55 55.94-55.55H385.77a11.24 11.24.0 0 1 11.2 12.2c-.06.61-.13 1.21-.22 1.81.0.22-.06.43-.08.65.0 15 12.51 27.38 27.88 27.38h230.9a27.74 27.74.0 0 0 27.88-27.54c0-.07-.05-.29-.08-.51-.08-.59-.16-1.18-.21-1.77a11.22 11.22.0 0 1 11.19-12.22h329.83c30.85.0 55.94 24.92 55.94 55.55v4.79C1080 1042.32 1054.91 1067.24 1024.06 1067.24zM55.94 973.82a33.31 33.31.0 0 0-33.47 33.08v4.79a33.31 33.31.0 0 0 33.47 33.08h968.12a33.31 33.31.0 0 0 33.47-33.08v-4.79a33.31 33.31.0 0 0-33.47-33.08H705.16a50.32 50.32.0 0 1-49.71 42H424.55a50.33 50.33.0 0 1-49.71-42z" fill="#220733"/><path d="M402.35 614.4V38.6a27.27 27.27.0 0 1 27.16-27.37H1041.6a27.28 27.28.0 0 1 27.17 27.37v550a27.27 27.27.0 0 1-27.17 27.37H411.41z" fill="#fcfcfc"/><path d="M1041.6 627.17H411.41a10.65 10.65.0 0 1-1.87-.16l-9.06-1.53a11.23 11.23.0 0 1-9.37-11.08V38.6A38.55 38.55.0 0 1 429.51.0H1041.6A38.54 38.54.0 0 1 1080 38.6v550A38.54 38.54.0 0 1 1041.6 627.17zm-628-22.47h628a16.06 16.06.0 0 0 15.93-16.14V38.6a16.05 16.05.0 0 0-15.93-16.13H429.51A16.05 16.05.0 0 0 413.58 38.6z" fill="#220733"/><path d="M779.82 191.49a42.07 42.07.0 1 1 42.33-42.07A42.25 42.25.0 0 1 779.82 191.49zm0-61.67a19.6 19.6.0 1 0 19.86 19.6A19.75 19.75.0 0 0 779.82 129.82z" fill="#220733"/><path d="M632.85 273.14a42.07 42.07.0 1 1 42.34-42.07A42.25 42.25.0 0 1 632.85 273.14zm0-61.67a19.6 19.6.0 1 0 19.87 19.6A19.75 19.75.0 0 0 632.85 211.47z" fill="#220733"/><path d="M914.55 123.85a42.07 42.07.0 1 1 42.34-42.06A42.25 42.25.0 0 1 914.55 123.85zm0-61.66a19.6 19.6.0 1 0 19.87 19.6A19.75 19.75.0 0 0 914.55 62.19z" fill="#220733"/><path d="M841 178.45a71 71 0 0 1-21.62-3.37l-11.86-3.8a11.23 11.23.0 1 1 6.85-21.4l11.86 3.8c23 7.36 48.31-3.31 58.86-24.84l10.37-21.17a11.24 11.24.0 1 1 20.18 9.9l-10.38 21.16C893.07 163.5 867.61 178.45 841 178.45z" fill="#220733"/><path d="M642.37 211.48a11.41 11.41.0 0 1-3.87-.69 11.25 11.25.0 0 1-6.69-14.41l11.07-30.25c12.58-34.34 50.1-53.24 85.46-43l23.49 6.79a11.24 11.24.0 1 1-6.24 21.59l-23.49-6.79c-24.06-7-49.58 5.87-58.11 29.18L652.92 204.1A11.25 11.25.0 0 1 642.37 211.48z" fill="#220733"/><path d="M1015.32 476.72H627.64a11.24 11.24.0 0 1 0-22.47h376.44V165.89a11.24 11.24.0 0 1 22.47.0V465.48A11.24 11.24.0 0 1 1015.32 476.72z" fill="#220733"/><path d="M904.43 200.24h56.36v265.24H904.43z" fill="#ed6498"/><path d="M960.79 476.72H904.43a11.24 11.24.0 0 1-11.23-11.24V200.24A11.23 11.23.0 0 1 904.43 189h56.36A11.24 11.24.0 0 1 972 200.24V465.48A11.24 11.24.0 0 1 960.79 476.72zm-45.12-22.47h33.89V211.47H915.67z" fill="#220733"/><path d="M792.29 270.17h56.36v195.31H792.29z" fill="#ed6498"/><path d="M848.65 476.72H792.29a11.24 11.24.0 0 1-11.24-11.24V270.17a11.23 11.23.0 0 1 11.24-11.23h56.36a11.23 11.23.0 0 1 11.23 11.23V465.48A11.24 11.24.0 0 1 848.65 476.72zm-45.13-22.47h33.89V281.41H803.52z" fill="#220733"/><path d="M680.14 332.86h56.36v132.62H680.14z" fill="#ed6498"/><path d="M736.5 476.72H680.14a11.24 11.24.0 0 1-11.23-11.24V332.86a11.23 11.23.0 0 1 11.23-11.24H736.5a11.24 11.24.0 0 1 11.24 11.24V465.48A11.24 11.24.0 0 1 736.5 476.72zm-45.12-22.47h33.89V344.09H691.38z" fill="#220733"/><path d="M679.78 679.47 679 644.09a21.53 21.53.0 0 1 18.73-21.27l85.48-11.54a19.68 19.68.0 0 0 12-5.85l60.17-53.51c14.8-13.15 1.51-27.57 1.51-27.57s-12.51-15.11-25.29-3.74l-30.39 27-6.76 6a21.71 21.71.0 0 1-13.38 5.46l-152.84 7.56a20.56 20.56.0 0 0-4.69.73c-5.14 1.5-15.9 6.29-23.63 21.07a21.8 21.8.0 0 0-2.49 10.06v82.15z" fill="#fcfcfc"/><path d="M597.43 691.91a11.23 11.23.0 0 1-11.23-11.24V598.52A33.14 33.14.0 0 1 590 583.26c9.55-18.25 23.17-24.53 30.44-26.65a31.05 31.05.0 0 1 7.29-1.17l152.84-7.56a10.52 10.52.0 0 0 6.46-2.63l37.16-33c5.75-5.12 12.53-7.54 19.54-7 11.82.9 20.13 9.95 21.69 11.76s8.79 10.64 8.21 22.44c-.27 5.43-2.35 13.46-10.73 20.91L803 613.59a31 31 0 0 1-18.38 8.84L699.22 634a10.34 10.34.0 0 0-9 10l.79 35.22a11.23 11.23.0 1 1-22.46.51l-.8-35.38v-.25a32.88 32.88.0 0 1 28.47-32.41l85.48-11.54h.31a8.39 8.39.0 0 0 5.17-2.51c.18-.19.38-.38.57-.56l60.18-53.5c3.09-2.75 3.18-4.62 3.21-5.24.14-2.79-2.15-5.95-2.5-6.33l-.39-.44c-1.3-1.5-4.28-3.78-6.3-3.91-.33.0-1.22-.07-2.87 1.39l-37.15 33a33.09 33.09.0 0 1-20.3 8.28l-152.84 7.56a8.89 8.89.0 0 0-2.09.3c-3.1.9-10.93 4.21-16.82 15.49a10.52 10.52.0 0 0-1.21 4.85v82.15A11.24 11.24.0 0 1 597.43 691.91z" fill="#220733"/><path d="M584.3 681.18h124v173.3a30.15 30.15.0 0 1-30.28 30H155.8a30.15 30.15.0 0 1-30.28-30V750.6c0-87.59 74.65-159.24 165.9-159.24l139.46 2.77c84.4.0 155.37 58 171.8 134.53.0.0 10.43 46.68 9.77 82.51z" fill="#7796f7"/><path d="M678 895.73H155.8a41.42 41.42.0 0 1-41.51-41.25V750.6c0-94 79.46-170.48 177.13-170.48L431.1 582.9c66.36.0 126.45 34.4 159.57 87H708.32a11.24 11.24.0 0 1 11.24 11.24v173.3A41.43 41.43.0 0 1 678 895.73zM291.2 602.59c-85.06.0-154.45 66.4-154.45 148V854.48a18.94 18.94.0 0 0 19.05 18.78H678a18.94 18.94.0 0 0 19.05-18.78V692.41H602.64a173.55 173.55.0 0 1 11 33.89c.42 1.87 10.7 48.32 10 85.08a11.24 11.24.0 1 1-22.47-.41c.62-34-9.41-79.41-9.51-79.87A152.3 152.3.0 0 0 575 687.46a11.27 11.27.0 0 1-.78-1.35c-28.49-48.66-82.89-80.74-143.32-80.74z" fill="#220733"/><path d="M249.7 662a21.28 21.28.0 0 0 .24 3.21c2.14 14.4 20 20.47 31.58 11.54l55.71-43 43.66 2.37 56.67 41.25c11.84 8.42 29.33 2.11 31.46-12.17a21.64 21.64.0 0 0 .24-3.23V598.38a181 181 0 0 0-38.38-4.25l-139.46-2.77a170.93 170.93.0 0 0-42.25 5.46z" fill="#fcfcfc"/><path d="M449.55 692.39a32 32 0 0 1-18.5-5.85L377 647.18l-36.17-2-52.41 40.41a31.77 31.77.0 0 1-31.18 4.21 29.34 29.34.0 0 1-18.37-23 32.12 32.12.0 0 1-.36-4.8l-.54-65.13a11.23 11.23.0 0 1 8.46-11 182.62 182.62.0 0 1 45-5.82L431.1 582.9h0a192.79 192.79.0 0 1 40.5 4.5 11.25 11.25.0 0 1 8.86 11V662a31.89 31.89.0 0 1-.37 4.91 29.63 29.63.0 0 1-18 22.94A32.09 32.09.0 0 1 449.55 692.39zM337.23 622.54h.61l43.66 2.37a11.33 11.33.0 0 1 6 2.13l56.68 41.25a9.56 9.56.0 0 0 9.14.87 7.28 7.28.0 0 0 4.58-5.61A10.28 10.28.0 0 0 458 662V607.67a165.94 165.94.0 0 0-27.14-2.3L291.2 602.59a156.46 156.46.0 0 0-30.73 3.17l.47 56.14V662a11.57 11.57.0 0 0 .11 1.56A7 7 0 0 0 265.6 669a9.23 9.23.0 0 0 9-1.16l55.72-43A11.21 11.21.0 0 1 337.23 622.54z" fill="#220733"/><path d="M425.26 557.33v33.9c0 24.7-30 44.91-66.76 44.91h0c-36.72.0-66.76-20.21-66.76-44.91v-33.9z" fill="#fcfcfc"/><path d="M358.5 647.37c-43 0-78-25.19-78-56.14v-33.9a11.24 11.24.0 0 1 22.47.0v33.9c0 18.25 25.42 33.67 55.52 33.67S414 609.48 414 591.23v-33.9a11.23 11.23.0 0 1 22.46.0v33.9C436.49 622.18 401.51 647.37 358.5 647.37z" fill="#220733"/><path d="M358.5 186.3h0c-83.81.0-153.2 63.07-160.74 142.91h-.72.0c-28.06.0-51 22.37-51 49.72s22.95 49.72 51 49.72h0 .72C205.3 508.43 274.69 571.5 358.5 571.5h0c83.81.0 153.2-63.07 160.75-142.91.24.0.47.0.71.0 28.06.0 51-22.37 51-49.72s-23-49.72-51-49.72c-.24.0-.47.0-.71.0z" fill="#fcfcfc"/><path d="M358.5 582.74A174.31 174.31.0 0 1 242 538.36c-29.39-26.31-48.44-61.23-54.29-99.18-29.93-4.4-53-29.76-53-60.28s23-55.88 53-60.28c5.85-37.95 24.9-72.87 54.29-99.18A174.31 174.31.0 0 1 358.5 175.06a11.24 11.24.0 1 1 0 22.47c-76.83.0-142.52 58.31-149.56 132.74a11.28 11.28.0 0 1-11.34 10.18h-.81c-21.82.13-39.53 17.34-39.53 38.48s17.71 38.35 39.53 38.48h.81a11.18 11.18.0 0 1 11.34 10.18C216 502 281.67 560.27 358.5 560.27S501 502 508.06 427.53a11.24 11.24.0 0 1 11.18-10.18h.16.81c21.82-.13 39.53-17.34 39.53-38.48S542 340.55 520.21 340.42h-.81a11.23 11.23.0 0 1-.56-22.46c.39.0.75.0 1.12.0 34.32.0 62.25 27.34 62.25 60.95.0 30.52-23 55.88-53 60.28-5.85 37.95-24.89 72.87-54.28 99.18A174.35 174.35.0 0 1 358.5 582.74z" fill="#220733"/><path d="M454.78 281.8v80.52a32.09 32.09.0 0 0 37 31.46c15.91-2.36 27.23-16.69 27.23-32.64V224.38a38.25 38.25.0 0 0-38.42-38.08H358.49C211.69 196.74 198.09 328.69 198 329.21v33.11a32.09 32.09.0 0 0 37 31.46c15.91-2.36 27.23-16.69 27.23-32.64v-50.5s98.88 31.73 192.56-28.84z" fill="#ffe08a"/><path d="M486.94 405.36a43.44 43.44.0 0 1-28.43-10.54 42.93 42.93.0 0 1-15-32.5V301.46C372.71 339.37 303 331.22 273.46 325v36.1c0 21.84-15.83 40.64-36.82 43.75a43.57 43.57.0 0 1-34.87-10.07 42.91 42.91.0 0 1-15-32.5V329.23a10.93 10.93.0 0 1 .06-1.15c.15-1.47 3.91-36.35 26.88-72.61 21.22-33.51 63.41-74.65 144-80.38h.29H480.55a49.54 49.54.0 0 1 49.65 49.32V361.14c0 21.84-15.82 40.64-36.81 43.75A43.84 43.84.0 0 1 486.94 405.36zM454.78 270.57A11.23 11.23.0 0 1 466 281.8v80.52a20.49 20.49.0 0 0 7.17 15.49 20.85 20.85.0 0 0 16.91 4.85c10-1.49 17.63-10.74 17.63-21.52V224.38a27 27 0 0 0-27.18-26.85H358.91c-56.69 4.12-99 27.46-125.81 69.38-19 29.66-23.3 58.87-23.83 63v32.44a20.5 20.5.0 0 0 7.18 15.49 20.84 20.84.0 0 0 16.9 4.85C243.4 381.17 251 371.92 251 361.14v-50.5a11.23 11.23.0 0 1 14.66-10.7c.93.3 95.17 29.23 183-27.57A11.21 11.21.0 0 1 454.78 270.57z" fill="#220733"/></g></g></g></svg>