<svg xmlns="http://www.w3.org/2000/svg" width="1050.81" height="1080" viewBox="0 0 1050.81 1080"><g id="Слой_2" data-name="Слой 2"><g id="beauty07_430653060"><g id="beauty07_430653060-2" data-name="beauty07_430653060"><path d="M597.41 635.55 577.21 642l-2.18-1.9a40.46 40.46.0 0 0-50.23-2.61l-1.49 1.06a3.28 3.28.0 0 1-3.89.0 40.61 40.61.0 0 0-51.61 2.74c-.6.54-19-5.61-19-5.61A18.62 18.62.0 0 0 437 671l28.84 9.63a18.56 18.56.0 0 0 18.51-4l8.68-8a3.3 3.3.0 0 1 4.21-.23 40.56 40.56.0 0 0 47.63.52l1.49-1.07a3.28 3.28.0 0 1 4.11.21l10.08 8.85a18.67 18.67.0 0 0 17.94 3.74L608.72 671a18.62 18.62.0 1 0-11.31-35.48z" fill="#db639c"/><path d="M548.26 697.53l-6.33 3.41c-12.54 6.75-25.82 6.89-38.44.47l-8-4.06a18.62 18.62.0 0 0-16.92 33.17l7.95 4.06a76.63 76.63.0 0 0 73-.84l6.33-3.4a18.63 18.63.0 0 0-17.64-32.81z" fill="#db639c"/><path d="M459.43 546.52a18.6 18.6.0 0 0 3.29 26.12l10.91 8.48c15.28 11.88 32 17.8 48.68 17.8 17.48.0 35-6.5 50.85-19.49l8.65-7.09a18.62 18.62.0 1 0-23.6-28.8l-8.64 7.08c-17.86 14.61-35.2 15-53.1 1.09l-10.91-8.47A18.61 18.61.0 0 0 459.43 546.52z" fill="#db639c"/><path d="M444.65 491.83a18.62 18.62.0 0 0 11.44-33.33L445.17 450c-15.23-11.83-31.87-17.64-48.5-17.68-.36.0-.66-.21-1-.21-17.7.54-34.6 7-50 19.57L337 458.79a18.62 18.62.0 1 0 23.56 28.84l8.68-7.09a60.17 60.17.0 0 1 7.78-5.38V495a18.62 18.62.0 0 0 37.24.0V474.25a58.18 58.18.0 0 1 8.08 5.21l10.9 8.46A18.58 18.58.0 0 0 444.65 491.83z" fill="#db639c"/><path d="M697.7 450c-15.51-12-32.46-17.92-49.39-17.75a6.4 6.4.0 0 0-2.1.14c-16.55.66-33 7-48 19.29l-8.67 7.08a18.62 18.62.0 1 0 23.57 28.84l8.67-7.09a62.82 62.82.0 0 1 7.22-5.08V495a18.62 18.62.0 0 0 37.24.0V474a56.11 56.11.0 0 1 8.64 5.48l10.91 8.46a18.62 18.62.0 0 0 22.84-29.42z" fill="#db639c"/><path d="M700.63 379l-3.77-2.41a88.62 88.62.0 0 0-71.17-10.93L585 376.69a18.62 18.62.0 0 0 4.86 36.59 18.28 18.28.0 0 0 4.89-.66l40.71-11.06a51.71 51.71.0 0 1 41.32 6.36l3.78 2.42A18.62 18.62.0 0 0 700.63 379z" fill="#db639c"/><path d="M365.42 410.34l3.8-2.43a51.77 51.77.0 0 1 41.31-6.35l40.7 11.06a18.28 18.28.0 0 0 4.89.66A18.62 18.62.0 0 0 461 376.69L420.3 365.63a88.73 88.73.0 0 0-71.18 10.92L345.34 379a18.62 18.62.0 0 0 20.08 31.37z" fill="#db639c"/><path d="M1040.31 598.06A72.14 72.14.0 0 0 965.7 489.48q-3.45-12.86-7.31-25.91l18.15-4.4A72.47 72.47.0 0 0 942 318.41l-36.36 8.81c-4.49-9.09-9.14-18.1-14-27L937.4 282.4a18.68 18.68.0 0 0 3.5-1.8 74.51 74.51.0 0 0 21.25-103.06c-29.35-44.57-71-34.46-99.56-23l-61.36 23.85q-9.24-9.15-19.09-17.71l15.41-8.58a18.52 18.52.0 0 0 3.22-2.27 74.39 74.39.0 0 0 6.91-105c-35.19-40.15-75-24.41-101.76-9.18L638.55 73.17a17.66 17.66.0 0 0-2 1.7c-.63.36-1.32.57-1.94.95-1.69 1-3.08 2.37-4.66 3.52-10.51-2.77-21.22-5.26-32.33-7.21a72.2 72.2.0 0 0-144.4-.94 390.21 390.21.0 0 0-52.06 11.59L359.29 43.3a18.32 18.32.0 0 0-3.13-2.38A74.48 74.48.0 0 0 254 66.06c-24.08 39.79-6.65 70.12 13.19 91.09q-11.82 10.18-22.84 21.17l-61.12-23.75c-28.79-11.5-70.39-21.59-99.7 23A74.5 74.5.0 0 0 104.76 280.6a18.68 18.68.0 0 0 3.5 1.8l47 18.28c-4.57 8.52-8.89 17.13-13.07 25.82l-33.33-8.08A72.47 72.47.0 1 0 74.34 459.18l16.64 4c-2.49 8.77-4.81 17.47-7 26.1A72.31 72.31.0 0 0 55.25 630.93l1.61.39C54.77 647.33 53.18 662 52 675A69.77 69.77.0 0 0 4.64 725.59l-1.53 6.2A71.21 71.21.0 0 0 55.23 818L230.33 861a19.21 19.21.0 0 0 4.47.53 18.36 18.36.0 0 0 7.08-1.57c1.26.07 2.5.39 3.76.39a72 72 0 0 0 47.2-17.55c29.22-25.27 33-68.9 9.45-99-2.38-12.11-4.81-26.62-7-43.82a314.71 314.71.0 0 0 65.31 78.64v81.81c0 36.84-27.09 65.69-61.68 65.69a18.61 18.61.0 0 0-14.67 30.09C346.67 1036 431.17 1080 522.15 1080s175.49-44 238-123.79a18.62 18.62.0 0 0-14.68-30.09c-34.58.0-61.68-28.85-61.68-65.69V773.81a334 334 0 0 0 65.56-78c-3.61 26.48-7.32 48.35-10.3 64.25a71.78 71.78.0 0 0-5.69 28.06 19.18 19.18.0 0 0 1.2 13 71.33 71.33.0 0 0 70.65 59.17c1.26.0 2.49-.33 3.75-.39a18.41 18.41.0 0 0 7.09 1.57 19.21 19.21.0 0 0 4.47-.53L995.57 818a71.21 71.21.0 0 0 52.12-86.16l-1.53-6.19a70.64 70.64.0 0 0-32.25-43.92 72.13 72.13.0 0 0-13.79-6.36c-1.4-13.14-3.2-27.93-5.52-44.15l1-.25A72 72 0 0 0 1040.31 598.06zM950.82 354.58a35.26 35.26.0 0 1 42.63 25.79A35.3 35.3.0 0 1 967.7 423l-28.41 6.88a70.29 70.29.0 0 0-16.8-68.43zm-57.2 30.27A33.17 33.17.0 0 1 874.32 443a33.17 33.17.0 0 1-4.8-66.16q1.23-.09 2.46-.09A32.93 32.93.0 0 1 893.62 384.85zm-17.37-195.7c35.93-14.36 45.72-4.92 54.81 8.88a37.2 37.2.0 0 1-9.19 50.45L886.8 262.11a72.24 72.24.0 0 0-25.73-67.06zM782.89 238a35 35 0 1 1 19.9 45.36A35.06 35.06.0 0 1 782.89 238zM724.19 68.08c33.59-19.15 44.61-11.15 55.48 1.28a37.16 37.16.0 0 1-2.14 51.22l-32.9 18.33A70.77 70.77.0 0 0 710 76zM638.4 129.25a35.07 35.07.0 0 1 34-26.9 35.26 35.26.0 0 1 8.2 1 35 35 0 1 1-42.19 25.93zm-113-92a35 35 0 1 1-35 35 35.06 35.06.0 0 1 35-35.01zM383.11 132a35.26 35.26.0 1 1-2.56.1C381.4 132 382.26 132 383.11 132zM285.86 85.33A37.2 37.2.0 0 1 335.34 71.9l27.4 25.82a72.24 72.24.0 0 0-49.48 52.06l-11.85-11.17C273 112.37 277.32 99.47 285.86 85.33zM217.42 218.08a34.68 34.68.0 0 1 12.69-2.39 35 35 0 1 1-12.69 2.39zm-93.63 30.4A37.2 37.2.0 0 1 114.62 198c9.09-13.8 18.88-23.22 54.95-8.81l15 5.83a72.22 72.22.0 0 0-25.71 67.07zm33.4 136.37a33.22 33.22.0 0 1 24.09-8 33.17 33.17.0 1 1-27.49 54.78A33.21 33.21.0 0 1 157.19 384.85zm6.89 96.09a17.45 17.45.0 0 0 11.35-1c1.17.0 2.32.36 3.49.36A70.2 70.2.0 0 0 207.6 345.88a18.28 18.28.0 0 0-9-5.72l-19.67-4.77q5.36-10.71 11.13-21.22l4.9 1.91a18.59 18.59.0 0 0 6.75 1.26c9.57 3.52 19 5.62 28.59 5.61a72.23 72.23.0 0 0 67.2-98.52 71.24 71.24.0 0 0-19-27.09c5.18-4.87 10.43-9.67 15.89-14.24l37.82 35.63a18.27 18.27.0 0 0 1.77 1.13 72.14 72.14.0 0 0 49.15 19.38c1.74.0 3.51-.06 5.27-.19a72.35 72.35.0 0 0 66.83-77.3 71.56 71.56.0 0 0-23.83-48.17q15.21-3.72 31.33-6.17c12.4 22 35.72 37.11 62.74 37.11 26.7.0 49.79-14.71 62.31-36.3 6 1 11.7 2.35 17.48 3.62a70.81 70.81.0 0 0-3 8.77 72.16 72.16.0 0 0 107.27 78.78 18.46 18.46.0 0 0 6.87-2.08l30.8-17.16q10.3 8.32 20 17.33a71.44 71.44.0 0 0-18.88 27 71.92 71.92.0 0 0 94.95 92.79 18 18 0 0 0 7.59-1.14l6-2.32q6.24 11.08 12 22.4l-16.49 4a18.28 18.28.0 0 0-9 5.72 70.27 70.27.0 0 0 28.68 134.45c1.17.0 2.32-.31 3.48-.36a17.45 17.45.0 0 0 11.35 1l35.67-8.64q3.83 12.84 7.24 25.47l-58.31 14.14a18.37 18.37.0 0 0-9.07 5.75 70.3 70.3.0 0 0 28.66 134.46c1.34.0 2.68-.07 4-.15a17.85 17.85.0 0 0 10.88.72L958.32 640c1.65 11.88 3 23 4.16 33.13-.81.17-1.64.16-2.45.35l-175.1 43.06c-.32.08-.56.32-.87.41a1404.24 1404.24.0 0 0 15.16-202.6c0-160.5-90.9-263.74-94.77-268.06a18.69 18.69.0 0 0-20.1-5.11c-4.18 1.5-103.28 35.13-144.29-58.92a18.62 18.62.0 0 0-16.38-11.12A18.94 18.94.0 0 0 506.49 181c-.49.92-50.88 93-204.5 133.56a18.56 18.56.0 0 0-10.76 7.73c-1.7 2.56-41.52 64.72-41.52 235.63.0 66.69 4.45 118.51 9.9 157L90.78 673.45c-.45-.11-.91-.09-1.36-.19 1-10.13 2.22-21.26 3.7-33.15L145 652.69a17.85 17.85.0 0 0 10.88-.72c1.34.08 2.69.15 4 .15a70.21 70.21.0 0 0 28.65-134.46 18.33 18.33.0 0 0-9.07-5.75l-59.54-14.44q3.24-12.69 6.91-25.56zm760 98.36a33.13 33.13.0 1 1-11.4-22.7A32.94 32.94.0 0 1 924.09 579.3zm-797.38.0a33.19 33.19.0 1 1 8 24.09A33.08 33.08.0 0 1 126.71 579.3zM83.18 423a35.24 35.24.0 0 1 8.33-69.45 35.9 35.9.0 0 1 8.55 1l28.26 6.86a70.31 70.31.0 0 0-16.81 68.43zM42.36 578.79A35.24 35.24.0 0 1 72.43 525.3a36.23 36.23.0 0 1 8.55 1l28.25 6.85a68.71 68.71.0 0 0-16.8 68.44l-28.34-6.88A35 35 0 0 1 42.36 578.79zM176.63 809.45 64.14 781.78A34 34 0 0 1 39.26 740.7l1.53-6.21a33.87 33.87.0 0 1 41.08-24.87l112.78 27.74A72.17 72.17.0 0 0 176.63 809.45zm91.85 5.18a35 35 0 1 1-45.79-53 35 35 0 0 1 49.37 3.59A35 35 0 0 1 268.48 814.63zM710.41 957c-52.46 55.56-118.34 85.8-188.26 85.8S386.37 1012.52 333.91 957c37.69-14.42 63.89-51.7 63.89-96.53v-53.7c62.6 40.79 121.14 50.47 122.4 50.66a18.47 18.47.0 0 0 6.6-.19c1.25-.26 58.2-13 119.71-54.61v57.84C646.51 905.26 672.71 942.54 710.41 957zm-188-137C494.27 814.78 312.74 772.75 287 556.3c.18-113.24 18.5-174.25 28.68-199.38 1.36-2.93 2.82-5.78 4.26-8.64 113.49-32 174-89.47 201.24-123.28 42.92 63.25 113.62 66.48 158.65 56.11a279.45 279.45.0 0 1 27.39 34.3c24.27 41.64 54.2 110.37 54.72 196.67C757 753.51 552.34 812.67 522.42 820zm309.32-9a35 35 0 1 1-29-57.82c.86-.06 1.73-.1 2.59-.1a34.69 34.69.0 0 1 22.84 8.54A35 35 0 0 1 831.74 811zm162.87-97.5a33.7 33.7.0 0 1 15.4 21l1.53 6.2a34 34 0 0 1-24.88 41.08L874.18 809.45a72.17 72.17.0 0 0-18-72.09l112.79-27.74A33.61 33.61.0 0 1 994.61 713.54zm-7.82-118.8-28.41 6.89a70.49 70.49.0 0 0 2.85-25 69.72 69.72.0 0 0-19.65-43.41l28.32-6.86a35.23 35.23.0 0 1 16.89 68.41z" fill="#db639c"/></g></g></g></svg>