<svg xmlns="http://www.w3.org/2000/svg" width="1080" height="911.24" viewBox="0 0 1080 911.24"><g id="Слой_2" data-name="Слой 2"><g id="set16_78568372"><g id="set16_78568372-2" data-name="set16_78568372"><path d="M1046.27 911.24H33.73A33.73 33.73.0 0 1 0 877.51v-675a33.73 33.73.0 0 1 33.73-33.73H1046.27A33.73 33.73.0 0 1 1080 202.49v675A33.73 33.73.0 0 1 1046.27 911.24zM67.46 843.78h945.08V236.22H67.46z" fill="#35738a"/><path d="M765 208.09a33.74 33.74.0 0 1-33.73-33.73V67.46H348.72v106.9a33.73 33.73.0 0 1-67.46.0V33.73A33.74 33.74.0 0 1 315 0H765a33.74 33.74.0 0 1 33.73 33.73V174.36A33.74 33.74.0 0 1 765 208.09z" fill="#35738a"/><path d="M736.88 573.73H343.12a33.73 33.73.0 0 1 0-67.46H736.88a33.73 33.73.0 1 1 0 67.46z" fill="#cd2614"/><path d="M540 770.61a33.73 33.73.0 0 1-33.73-33.73V343.12a33.73 33.73.0 0 1 67.46.0V736.88A33.73 33.73.0 0 1 540 770.61z" fill="#cd2614"/></g></g></g></svg>