<svg xmlns="http://www.w3.org/2000/svg" width="1078.56" height="1080" viewBox="0 0 1078.56 1080"><g id="a"/><g id="b"><g id="c"><g id="d"><g><path d="M507.4 224.36c-1.57 34.16 17.76 62.76 43.19 63.87 25.43 1.11 47.33-25.66 48.92-59.82 1.56-34.16-17.75-62.77-43.2-63.91-25.43-1.1-47.34 25.68-48.91 59.86z" fill="#f29100"/><path d="M325.08 102.93c113.68 125.77 190.71 235.28 268.47 234.95 53.05-.22 27.56-206.24 23.07-284.44-7.37-128.7 33.59 8.94 41.64 60.26 24.56 156.6 48.38 355.38-13.08 506.55-46.16 113.6-149.31 207.39-241.01 284.74-58.76 49.54-121.41 104.74-190.73 139.03 41.87-56.88 205.55-234.86 254.9-334.06 45.13-90.72 149.85-214.29 79.57-299.25-60.81-73.52-197.33-184.97-222.84-307.77z" fill="#1d1d1b"/><path d="M692.33 603.98c-9.99 16.65 56.95 208.45 53.61 259.09-1.49 22.66-47.99 213.04-40.16 216.94-47.45-4.67-22.3-130.45-22.15-184.37.09-32.36 2.05-36.78-10.85-67.03-6.16-14.45-61-90.59-51.73-105.78.09-.14 71.15-118.64 71.28-118.85z" fill="#1d1d1b"/></g><path d="M900.73 764.26c-60.51-26.74-106.16-31.71-157.01-77.6-59.08-53.32-31.69-151.99 29.27-192.34 71.26-47.17 226.9-107.83 227.73-108.16 18.28-7.16 97.2-59.84 41.44-48.04-37.53 1.52-95.26 28.79-135.7 45.75-52.1 21.84-112.44 43.37-169.83 36.19-59.62-7.46-118.52-24.25-176.41-39.83-54.49-14.66-232.5-56.8-183.07-29.41 10.61 5.88 24.73 14.36 36.14 18.23 25.44 8.63 71.99 33.3 98.23 39.37 16.65 3.85 145.15 26.87 141.25 51.99-4.19 27.03-31.77 123.56-117.63 145.76-85.58 22.13-172.48-60.11-172.57-60.47 5 17.79-23.67 78.55 1.68 128.12-93.77 24.99-185.69 64.6-264.62 94.95-47.65 18.33-169.45 81.73-46.03 45.24 106.91-31.63 207.04-65.53 322.9-71.81 122.02-6.62 244.24 4.83 364.13 22.65 173.25 25.75 317.61 143.8 337.91 111.38-88.03-68.68-147.82-98.71-177.84-111.97z" fill="#e20613"/><path d="M715.76 320.14c-11.25 30.67-1.88 62.01 20.96 69.98 22.84 7.97 50.49-10.42 61.76-41.1 11.25-30.69 1.87-62.02-20.97-70.01-22.83-7.96-50.49 10.44-61.75 41.13z" fill="#f29100"/></g></g></g></svg>