<svg xmlns="http://www.w3.org/2000/svg" width="552.4" height="1080" viewBox="0 0 552.4 1080"><g id="a"/><g id="b"><g id="c"><g id="d"><g><g><path d="M86.89 301.38c1.79-.67 3.57-1.36 5.37-2.02 2.64-1.35 5.27-2.71 7.96-3.95 2.93-1.35 5.97-2.65 9.1-3.54 2.21-1.28 4.39-2.59 6.56-3.91-6.22-8.99-8.85-20.13-11.27-30.89-3.99-17.8-5.18-36.74-6.1-54.97-5.8 5.27-12.41 9.63-19.53 12.88-10.88-19.27-21.75-38.54-32.63-57.81-3.02-5.35-6.13-11.09-5.75-17.22.45-7.2 5.7-13.55 5.66-20.77-.01-1.98-.42-4 .07-5.92.62-2.4 2.55-4.2 4.39-5.87 6.02-5.45 12.04-10.89 18.07-16.34 1.32-1.2 2.72-2.52 3.06-4.28.34-1.75-1.04-3.9-2.8-3.59 2.2-12.06 3.51-24.27 3.92-36.52.02-.66.03-1.38-.37-1.91-.53-.71-1.57-.8-2.45-.66-5.33.87-7.63 7.11-8.92 12.35-1.02 4.15-2.04 8.3-3.06 12.44l-3.91-21.19c-.41-2.2-1.27-4.87-3.48-5.22-3.12-.49-4.36 3.9-4.17 7.05.43 7.16 1.66 14.27 3.65 21.16-3.35-6.6-6.7-13.2-10.05-19.8-.44-.87-.97-1.83-1.9-2.15-2.27-.79-3.58 2.59-3.46 5 .25 5.03 1.28 10.02 3.06 14.73-2.11-2.59-5.32-5.46-8.32-4-2.74 1.33-2.82 5.28-1.71 8.12 1.11 2.84 3.02 5.53 2.89 8.58-.13 2.98-2.17 5.47-3.77 7.99-3.3 5.23-5.38 9.43-8.53 14.76-4.83 8.15-12.76 16.25-15.25 25.39-2.76 10.13 6.64 26.93 7.21 28.67 2.99 9.22 2.85 19.14 4.6 28.68 2.42 13.24 5.8 26.29 9.18 39.33 3.33 12.87 6.68 25.78 11.48 38.17 3.78 9.75 8.46 19.16 13.96 28.06 1.27 2.06 2.6 4.11 4.37 5.76 7.18 6.67 17.97 4.83 27.73 3.96 1.86-.17 3.55-.35 5.14-.55z" fill="#ffddc0" fill-rule="evenodd"/><path d="M79.82 264.16h-.02c-1.34.0-2.43-1.09-2.43-2.43.0-.31.07-1.27.2-2.72 1.85-22.07 1.27-36.77-1.73-43.71-5.42-12.53-37.95-69.25-38.28-69.82-.32-.56-.41-1.23-.24-1.86.31-1.14 7.63-27.91 8.66-31.36 1.25-4.15 10.36-15.28 14.29-18.49 1.08-.88 2.54-1.83 4.09-2.83 1.68-1.09 4.6-2.98 5.67-4.18-3.09-1.11-10.35 1.9-13.97 4.73-3.43 2.69-6.67 7.83-6.7 7.89-.19.3-.43.55-.72.74l-12.28 8.13c-4.28 2.3-14.59 9.43-13.31 16.19.25 1.33-.62 2.61-1.95 2.86-1.34.26-2.61-.62-2.86-1.95-2.21-11.67 14.88-20.91 15.61-21.3l11.65-7.73c.96-1.45 4.06-5.96 7.54-8.68 3.35-2.62 14.35-8.62 20.16-4.74 1.8 1.2 2.06 2.74 2.05 3.55-.02 3.26-4.02 5.85-8.25 8.59-1.43.93-2.78 1.8-3.65 2.51-3.7 3.03-11.89 13.42-12.7 16.11-.91 3.02-7 25.29-8.36 30.26 4.32 7.54 32.8 57.37 38.02 69.43 5.01 11.58 2.83 37.53 2.11 46.06-.1 1.21-.17 2.02-.18 2.32-.02 1.34-1.11 2.43-2.45 2.43z" fill="#070707"/><path d="M67.15 305.08c-7.44.0-14.38-3.32-19.03-9.13-5.1-6.37-11.8-21.11-13.09-24-3.31-7.42-5.63-15.74-9.46-29.54-1.29-4.63-2.75-9.91-4.49-15.99-6.55-22.92-13.16-63.13-13.85-67.33-1.24-2.61-8.69-18.88-6.98-29.55 1.73-10.73 17.43-28.6 19.72-31.16.88-1.89 5.08-10.93 7.71-15.87-1.77-5.28-3.97-13.53-1.79-16.77 1.8-2.67 3.82-2.98 5.19-2.76 4.82.76 7.93 9.83 9.04 13.7.37 1.3-.37 2.65-1.67 3.03-1.29.37-2.65-.38-3.03-1.67-1.34-4.64-3.7-9.41-4.99-10.15-.11.09-.27.27-.5.6-.58 1.29.67 7.6 2.7 13.45.23.66.17 1.38-.17 1.99-2.69 4.88-8.17 16.73-8.22 16.85-.1.23-.24.43-.41.62-4.77 5.26-17.45 20.71-18.77 28.93-1.58 9.85 6.62 26.79 6.7 26.96.11.22.18.45.22.69.07.43 6.98 43.31 13.78 67.11 1.74 6.1 3.21 11.38 4.5 16.03 3.78 13.58 6.05 21.77 9.22 28.86 3.45 7.72 8.77 18.36 12.44 22.93 3.74 4.67 9.28 7.31 15.31 7.3 13-.06 27.19-5.91 47.35-14.84 1.23-.55 2.68.01 3.23 1.25.55 1.23-.01 2.68-1.25 3.23-20.72 9.18-35.35 15.2-49.31 15.26h-.11z" fill="#070707"/><path d="M46.09 94.94c-.56.0-1.13-.19-1.59-.59-1.03-.88-1.14-2.42-.27-3.45l12.5-14.58c.57-4.26 3.09-21.87 6.42-27.86 2.8-5.05 6.64-6.3 9.33-5.76 2.14.42 3.66 1.95 3.89 3.89.42 3.6-3.68 31.04-4.51 36.51-.2 1.34-1.45 2.27-2.78 2.05-1.34-.2-2.25-1.45-2.05-2.78 2.24-14.83 4.51-31.63 4.5-34.87-.14-.03-.36-.04-.66.03-.56.13-2 .72-3.44 3.3-2.65 4.77-5.19 20.99-5.94 26.84-.06.47-.26.92-.57 1.28l-12.97 15.13c-.48.56-1.17.85-1.86.85z" fill="#070707"/><path d="M30.35 96.73c-.41.0-.82-.1-1.2-.32-1.17-.67-1.59-2.16-.92-3.33 3.87-6.84 8.16-15.42 8.34-17.36.0-.7-.93-3.55-1.67-5.83-2.85-8.8-6.4-19.76-.39-23.23 1.04-.61 2.31-.74 3.48-.35 1.2.4 2.17 1.29 2.67 2.44l9.14 18.96c.59 1.22.08 2.68-1.14 3.27-1.21.58-2.68.08-3.27-1.14l-8.91-18.47c-1.59 2.66 1.74 12.96 3.06 17.02 1.37 4.24 2.03 6.34 1.89 7.8-.37 3.98-7.52 16.79-8.96 19.31-.45.79-1.28 1.24-2.13 1.24z" fill="#070707"/><path d="M38.99 95.69c-.38.0-.77-.09-1.13-.28-1.2-.63-1.66-2.1-1.03-3.3l9.15-17.46c-1.36-8.76-3.26-23.43-1.65-27.61 1.87-4.85 3.95-7.37 6.38-7.71.89-.12 2.61-.04 4.09 1.93 2.2 2.94 5.69 23.93 7.09 32.82.21 1.33-.7 2.59-2.04 2.8-1.34.21-2.59-.7-2.8-2.04-2.01-12.75-4.7-26.97-5.99-30.23-.51.62-1.29 1.89-2.17 4.18-.83 2.15.02 12.99 2.02 25.79.0.06.03.23.04.29.04.46-.05.93-.27 1.34l-9.51 18.16c-.44.83-1.29 1.31-2.17 1.31z" fill="#070707"/><path d="M79.13 218.81c-.74.0-1.48-.34-1.96-.98-.81-1.08-.59-2.61.49-3.42l11.2-8.41c2.79-2.1 5.68-4.27 8.96-5.93 1.2-.61 2.67-.12 3.28 1.08.61 1.21.12 2.68-1.08 3.29-2.89 1.46-5.6 3.5-8.22 5.47l-11.2 8.41c-.44.33-.96.49-1.47.49z" fill="#070707"/></g><g><path d="M409.66 329.14c15.48 2.69 29.72 9.92 44.19 16.06 14.46 6.14 29.98 11.34 45.6 9.62 2.58-7.58 5.17-15.16 7.75-22.73 1.1-3.22 2.22-6.48 4.2-9.24 2.38-3.31 5.85-5.66 9.35-7.75 7.99-4.77 16.57-8.54 25.48-11.22 1.97 2.64 1.31 6.85-1.37 8.77 3.01.04 4.55 4.09 3.35 6.85-1.21 2.75-4.02 4.39-6.65 5.83 3.12-1.03 5.84 3.3 4.67 6.37-1.17 3.07-4.43 4.75-7.49 5.96 2.29.56 2.82 3.91 1.42 5.81-1.4 1.89-3.88 2.61-6.2 3.03-2.32.42-4.78.72-6.67 2.13-1.14 10.9-6.85 21.25-15.46 28.03-14.1 11.1-37.94 17.09-55.88 17.07-23.54-.03-42.41-8.03-65.16-14.1-2.07-.55-9.37-20.38-9.28-21.33.08-.84-9.04-23.43-8.69-24.19.86-1.89 4.35 3.03 4.35-9.22.0-2.69 18.05-6.29 27.6-10.32 3.02 3.93 4.44 9.68 4.89 14.57z" fill="#ffddc0" fill-rule="evenodd"/><path d="M489.35 358.27c-2.98.0-6.09-.08-8.47-.35-6.49-.72-29.72-8.64-43.7-15.45-13.1-6.38-29.44-10.51-29.6-10.55-.95-.24-1.67-1.03-1.82-2l-2.19-14.13c-.21-1.34.71-2.59 2.04-2.79 1.33-.2 2.59.71 2.79 2.04l1.94 12.54c4.5 1.21 17.69 4.99 28.98 10.49 12.98 6.32 36.17 14.33 42.1 14.99 5.96.67 17.48.08 17.59.08 1.32-.09 2.5.97 2.57 2.32.07 1.35-.97 2.5-2.32 2.57-.31.02-4.94.25-9.92.25z" fill="#070707"/><path d="M453.37 396.22c-3.83.0-7.68-.2-11.51-.64-18.37-2.09-52.48-15.06-53.93-15.61-1.26-.48-1.9-1.89-1.41-3.16.48-1.26 1.9-1.9 3.16-1.41.35.13 34.98 13.3 52.74 15.32 27.32 3.11 55.14-6.55 63.96-12.42 7.04-4.68 17.41-19.85 17.66-22.93.35-4.3 1.7-12.09 1.76-12.42.05-.29.15-.56.3-.81 1.59-2.72 5.7-10.79 5.6-15.32-.03-1.42.01-2.63.05-3.65.03-.77.06-1.69.02-2.19-.18-.03-.47-.06-.91-.07-1.53 1.06-4.36 8.03-6.15 15.17-.04.17-.11.34-.19.5-6.86 13.65-7.89 14.34-8.44 14.7-1.13.75-2.64.44-3.39-.68-.68-1.03-.49-2.38.4-3.18.86-1.1 4.21-7.38 6.94-12.8 2.17-8.56 5.75-18.61 10.61-18.61 1.64.0 3.48.18 4.75 1.5 1.41 1.47 1.34 3.39 1.25 5.83-.03.94-.08 2.06-.05 3.36.14 6.23-4.79 15.3-6.04 17.5-.29 1.69-1.34 8.02-1.63 11.55-.45 5.57-12.5 21.73-19.83 26.6-9.3 6.19-31.98 13.84-55.71 13.84zm59.98-48.99h0z" fill="#070707"/><path d="M499.14 358.02c-.26.0-.52-.04-.77-.13-1.28-.43-1.97-1.81-1.54-3.09l9.2-27.53c.91-2.85 2.78-5.4 5.24-7.15l18.29-12.98c.15-.11.32-.2.49-.27 4.26-1.74 14.59-5.5 18.68-2.95 1.18.74 1.89 1.92 1.98 3.32.43 6.37-11 10.42-15.3 11.71-.21.18-.31.27-.36.32-.28.27-.45.38-.75.55-1.17.67-2.67.27-3.34-.9-.66-1.15-.29-2.61.84-3.3.15-.14.4-.36.88-.76.26-.21.56-.37.88-.46 5.85-1.69 11.51-4.73 12.21-6.45-1.96-.37-8.04 1.11-13.6 3.35l-18.06 12.81c-1.61 1.14-2.82 2.8-3.42 4.68l-9.21 27.56c-.34 1.02-1.3 1.67-2.32 1.67z" fill="#070707"/><path d="M534.8 331.99c-.87.0-1.71-.46-2.15-1.28-.64-1.19-.2-2.67.98-3.31.07-.04 7.02-3.82 12.48-7.89.92-.68 1.24-1.29 1.35-1.7-.27.03-.66.12-1.2.35-4.09 1.72-10.26 4.99-10.32 5.02-1.2.63-2.68.18-3.31-1.02-.63-1.19-.18-2.67 1.02-3.31.26-.14 6.42-3.4 10.72-5.2 2.79-1.17 4.67-.75 5.75-.19 1.11.57 1.89 1.58 2.15 2.76.21.97.61 4.36-3.24 7.22-5.75 4.28-12.77 8.1-13.07 8.26-.37.2-.77.29-1.16.29z" fill="#070707"/><path d="M531.31 342.35c-1.02.0-1.96-.64-2.31-1.65-.44-1.28.24-2.67 1.52-3.11 3.84-1.32 7.58-2.99 11.13-4.96.74-.41 1.45-.83 1.95-1.31-2.75.63-5.37 1.43-7.9 2.39-1.26.48-2.67-.15-3.15-1.42-.48-1.26.15-2.68 1.42-3.15 3.39-1.29 6.9-2.3 10.45-3 .5-.1 1.86-.37 3.09.45.5.34 1.17.99 1.48 2.19.48 1.82-.06 3.87-1.44 5.48-1.03 1.2-2.3 1.96-3.51 2.64-3.8 2.12-7.81 3.9-11.92 5.31-.26.09-.53.13-.79.13z" fill="#070707"/><path d="M528.47 351.88c-1 0-1.95-.62-2.3-1.63-.45-1.27.21-2.67 1.48-3.12 2.28-.82 6.64-2.49 10.11-4.56.05-.03.09-.06.14-.09-1.04.18-2.27.52-3.47.85-1.93.54-3.76 1.05-5.36 1.12-1.32.03-2.49-.98-2.55-2.33-.06-1.35.98-2.49 2.33-2.55 1.04-.05 2.68-.51 4.26-.95 2.03-.57 4.12-1.15 5.88-1.16 2.19-.04 3.85 1.19 4.38 3.06.63 2.26-.62 4.77-3.11 6.25-3.83 2.28-8.52 4.09-10.97 4.96-.27.1-.55.14-.82.14z" fill="#070707"/><path d="M397.78 340.99c-.68.0-1.36-.28-1.84-.84-.89-1.02-.78-2.56.23-3.45l10.15-8.86c1.02-.89 2.56-.78 3.45.23s.78 2.56-.23 3.45l-10.15 8.87c-.46.41-1.04.6-1.61.6z" fill="#070707"/><path d="M518.25 339.1c-.63.0-1.27-.25-1.75-.73-.95-.96-.93-2.51.04-3.46 1.98-1.94 4.5-5.58 5.63-8.11.55-1.23 1.99-1.79 3.23-1.24 1.23.55 1.79 1.99 1.24 3.23-1.38 3.1-4.25 7.24-6.68 9.62-.48.47-1.09.7-1.71.7z" fill="#070707"/></g><path d="M191.73 769.61c18.54-7.27 71.49-31.83 88.71-41.83 20.96-12.17 20.08-10.64 48.17-18.17 18.95-5.08 28.39 15.25 47.64 11.41 14.46-2.89 28.49-7.61 42.46-12.32 8.99-3.03 18.23-6.2 25.41-12.4 2.29-1.97 4.4-4.36 5.16-7.28 1.14-4.39-1.09-9.14-4.53-12.11-3.43-2.97-7.87-4.48-12.26-5.66-22.65-6.11-46.95-6.1-69.76-.6-31.41 7.58-46 18.39-67.94 26.7-11.3 4.28-64.63 8.48-79.7 21.35-7.46 6.36-17.33 7.91-24.43 14.67-4.66 4.43-15.96 18.57-16.62 25.5-1.25 13.01 9.08 14.12 17.68 10.75z" fill="#edb34c"/><path d="M441.65 612.37c-1.05-7.38-2.22-17.64-2.82-25.07-1.18-14.77-3.74-35.36-6.26-49.97-3.16-18.31-19.96-79.34-21.62-86.93-6.72-30.8-8.1-25.55-17.27-53.71-5.36-16.45-17.43-53.21-23.54-61.15 8.32-13.95 6.8 2.91 7.02-13.33 5.34-1.63 24.03-6.39 29.37-8.02 1.58-.48 3.26-1.03 4.28-2.34 1.19-1.52 1.14-3.63 1.02-5.55-1.53-23.58-7.28-46.64-14.36-69.11-1.75-5.56-3.59-11.1-5.48-16.62-1.59-4.66-2.86-13.55-6.05-17.25-2.28-2.64-7.44-7.26-10.56-9.15-5.23-3.17-10.16-4.66-15.03-8.34-12.59-9.51-24.93-18.67-39.23-24.62-1.84 2.75-6.7 5.4-9.03 7.02-5.64 3.91-11.47 6.31-17.97 8.54-8.01 2.74-21.08 4.49-30.14 3.36-11.03-1.38-9.64-19.07-9.64-19.07.0.0-3.78-.75-10.07-4.93-2.6-1.85-6.03-4.17-9.4-6.83-7.06-.93-13.45-3.36-20.57-4.03-9.93-.93-20.01-1.59-29.72 1.26-8.51 2.5-16.04 7.46-23.44 12.35-18.75 12.41-37.51 24.82-56.26 37.22-1.17.77-2.37 1.58-3.13 2.76-.78 1.22-1.01 2.7-1.17 4.14-1.79 15.48.91 31.1 3.6 46.45 1.01 5.77 2.03 11.56 3.81 17.13 2.85 8.94 7.61 17.14 12.32 25.26 11.67 2.7 22.08-8.46 33.99-9.77 6.19 10.32 10.82 21.56 13.69 33.24-9.22 10.77-17.31 56.06-18.7 66.88-1.65 12.85-1.53 30.25-1.18 43.2.18 6.49.86 12.96 1.02 19.45.38 14.73-1.89 29.41-5.11 43.79-12.56 56.21-7.12 113.55 11.45 176.15-.66-.75 14.63 47.51 15.75 53.91 1.1 6.3 2.61 24.22 2.82 30.62.36 10.78 6.81-6.83 12.35-11.01 8.8-6.66 7.05-3.66 14.91-11.42 11.14-11.01 18.05-9.84 31.85-17.27 7.27-3.91 34.01-5.13 41.79-7.88 4.91-1.73 13.54-2.2 18.46-3.88 7.16-2.45 19.93-10.08 26.72-13.42 40.57-19.96 83.43-19.17 127.22-7.92-3.57-24.94-2.12-39.19-5.69-64.14z" fill="#ffcd6a"/><g><g><g><path d="M254.34 161.04s-1.39 17.69 9.64 19.07c9.06 1.14 22.12-.61 30.14-3.36 6.5-2.22 12.33-4.63 17.97-8.54 2.33-1.62 7.19-4.27 9.03-7.02.22-.33.43-.67.55-1 .01-.03.02-.08.03-.12-.77-.88-1.31-1.68-1.49-2.35-.19 4.03-4.05-41.51-4.05-41.51l-11.7-4s-1.05-.7-9.49-6.56c-8.44-5.86-6.95-22.5-13.77-29.3-6.82-6.8-16.53-6.96-23.05-12.3-6.46-5.05-11.54-12.2-15.56-18.65-3.15-5.12-14.32-4.98-21.64-.78-2.73 1.46-3.6 4.66-5.52 5.65-2.67 1.75-3.02 6.05-3.02 6.05.0.0-.05 7.27-1.38 14.2-1.27 7.21-3.82 14.08-3.82 14.08.0.0 1.7 6.9 3.49 14.22l2.6 7.75s.21 2.35.55 5.36c1.06 4.75 1.34 7.87 1.33 10.06 1.99 13.83-.67 2.14 10.37 18.02 2.37 3.37 5.81 6.5 9.31 9.26 3.37 2.66 6.8 4.98 9.4 6.83 6.29 4.18 10.07 4.93 10.07 4.93z" fill="#ffddc0"/><path d="M424.08 188.16c-5.71-1.45-9.08-4.65-11.08-8.72-2.73-5.55-2.93-12.73-3.12-19.33-.24-8.56 2.12-21.37-1.48-29.39-5.72-13.37-8.05-25.32-35.59-39.07-12.39-6.19-21.65-7.71-30.92-22.18-7.58-12.09-11-27.33-17.01-39.13-4.84-9.01-21.73-22.25-30.81-25.26-11.06-3.82-26.65-4.62-39.44-2.04-24.72 4.98-53.78 21.43-60.49 46.68-3.7 14.66-6.09 40.61-10.65 58.05-5.64 16.97-34.2 20.91-32.25 32.61-.56 12.14.12 13.41 4.03 23.82.24.65 19.64-18.53 33.16-18.53 6.77.0 18.3-1.73 25.08-2.39 4.62-.45 9.72 1.82 14.5 2.21-.72-.75-1.42-1.49-2.05-2.23-14.38-17.09-10.8-13.55-10.77-21.27.0-2.19-.28-5.31-1.33-10.06-.05-.21-.09-.41-.14-.63-.78-3.3-1.91-7.97-3.01-12.48-1.78-7.32-3.49-14.22-3.49-14.22.0.0 2.55-6.87 3.82-14.08 1.33-6.92 1.38-14.2 1.38-14.2.0.0.34-4.3 3.02-6.05 1.92-.99 2.79-4.19 5.52-5.65 7.32-4.2 18.49-4.33 21.64.78 4.02 6.45 9.09 13.6 15.56 18.65 6.52 5.34 16.24 5.5 23.05 12.3 6.82 6.8 5.33 23.44 13.77 29.3 8.44 5.86 9.49 6.56 9.49 6.56l11.7 4s3.86 45.54 4.05 41.51c.18.67.72 1.47 1.49 2.35 3.87 4.44 14.17 11.07 21.16 14.46 12.52 6.09 24.1 14.18 35.17 22.58 3.29 2.49 7.84 5.07 10.64 8.05 4.9 5.23 6.77 15.35 7.21 22.21 7.88-6.19 12.02-16.79 10.43-26.68 9.89 1.7 20.38-.35 28.9-5.65 2.51-1.56 5.05-3.72 5.39-6.66-5.51.57-11.16 1.13-16.53-.23z" fill="#f08c65"/></g><path d="M254.99 164.6c-1.23.0-2.4-.14-3.51-.44-6.47-1.94-13.75-7.91-16.57-10.39-.9-.77-1.99-1.53-3.25-2.41-4.87-3.4-11.53-8.05-17.36-20.51-.04-.1-.08-.2-.12-.3-2.41-7.56-2.37-11.7-2.33-15.35.02-2.23.04-4.15-.57-6.62-.59-2.28-1.09-4.75-1.58-7.15-.69-3.37-1.4-6.86-2.36-9.93-.03-.08-.05-.16-.06-.25-.06-.21-.49-1.17-.81-1.88-.83-1.87-1.44-3.28-1.64-4.28-.27-1.32.59-2.61 1.91-2.88 1.32-.27 2.61.59 2.88 1.91.11.55.87 2.25 1.32 3.26.62 1.4.95 2.15 1.1 2.75 1.02 3.28 1.75 6.86 2.46 10.32.5 2.44.97 4.75 1.53 6.93.76 3.1.74 5.41.71 7.86-.03 3.42-.07 6.96 2.06 13.68 5.25 11.16 11.02 15.19 15.66 18.43 1.31.92 2.55 1.78 3.65 2.72 5.41 4.74 10.91 8.24 14.72 9.38 7.13 1.93 22.45-6.97 33.86-16.78 6.74-5.97 8.76-9.66 11.49-15.84.54-1.22 1.96-1.79 3.18-1.27h0c1.26.53 1.84 2 1.29 3.26-2.85 6.47-5.25 10.91-12.74 17.54-2.36 2.03-21.63 18.24-34.91 18.24z" fill="#070707"/><path d="M257.67 162.15s15.8-5.56 25.33-12.32c9.01-6.35 17.83-21.14 17.83-21.14.0.0-6.83 23.16-16.24 32.02-8.89 8.45-23.73 9.92-23.73 9.92l-3.18-8.47z" fill="#070707" fill-rule="evenodd"/><path d="M239.32 123.25c-.51.0-1.02-.16-1.46-.49-7.22-5.39-5.57-8.9-3.07-12.31.99-1.35 1.85-2.52 1.89-4.2.05-5.78-3.09-11.04-5.73-14.43-.83-1.07-.64-2.6.42-3.43 1.06-.83 2.6-.64 3.43.43 4.47 5.74 6.81 11.79 6.76 17.51-.08 3.25-1.68 5.42-2.84 7.01-1.59 2.17-1.88 2.56 2.05 5.49 1.08.81 1.31 2.34.5 3.42-.48.64-1.22.98-1.96.98z" fill="#070707"/><path d="M245.48 75.72c-.75.0-1.49-.34-1.97-1-.8-1.09-.56-2.62.52-3.42 8.43-6.19 16.48-2.7 16.81-2.55 1.23.55 1.78 2 1.23 3.23-.55 1.23-1.99 1.78-3.22 1.24-.27-.11-5.87-2.43-11.93 2.02-.44.32-.94.47-1.44.47z" fill="#070707"/><path d="M208.5 84.37c-.6.0-1.2-.22-1.67-.66-.98-.92-1.04-2.45-.13-3.43.22-.24 5.53-5.83 14.7-3.83 1.32.29 2.16 1.59 1.87 2.91-.29 1.32-1.6 2.15-2.91 1.87-6.36-1.4-9.93 2.23-10.08 2.39-.48.5-1.13.75-1.78.75z" fill="#070707"/><path d="M180.25 117.17c-.4.0-.8-.1-1.17-.3-1.19-.65-1.62-2.13-.98-3.32 6.64-12.17 7.94-25.02 9.2-37.45 1.5-14.87 3.06-30.24 13.64-44.42 4.82-6.74 11.56-9.65 20.54-8.91 1.35.11 2.35 1.3 2.23 2.64-.11 1.35-1.29 2.35-2.64 2.23-7.32-.61-12.31 1.52-16.18 6.92-9.8 13.14-11.22 27.17-12.72 42.03-1.31 12.92-2.66 26.27-9.77 39.3-.44.81-1.28 1.27-2.15 1.27z" fill="#070707"/><path d="M155.27 166.65c-.89.0-1.75-.49-2.18-1.34-6.15-12.14-7.72-20.97-4.92-27.77 3.55-8.63 13.23-11.85 23.48-15.27 11.29-3.77 22.96-7.66 26.96-19 2.95-8.41 4.65-17.97 6.3-27.23 2.8-15.72 5.21-29.3 13.16-34.08 1.16-.7 2.66-.32 3.36.83.7 1.16.32 2.66-.83 3.36-6.05 3.64-8.39 16.81-10.87 30.75-1.68 9.45-3.42 19.21-6.5 27.99-4.79 13.6-18.2 18.07-30.02 22.02-9.16 3.05-17.81 5.94-20.5 12.49-2.18 5.31-.63 13.07 4.76 23.7.61 1.2.13 2.68-1.08 3.29-.35.18-.73.26-1.1.26z" fill="#070707"/><path d="M337.61 145.51h0c-1.35.0-2.44-1.1-2.44-2.45.02-17.77-17.02-23.65-28.29-27.54-1.73-.6-3.3-1.14-4.64-1.66-12.45-4.89-16.37-15.29-18.74-25.8-2.56-11.77-9.05-14.36-16.58-17.36-3.97-1.58-8.07-3.22-11.81-6.25-9.9-7.7-13.85-17-16.73-23.78-1.08-2.53-2.01-4.73-2.98-6.14-1.16-1.68-2.36-2.6-3.23-2.5-1.06.14-2.75 1.82-4.32 6.15-.46 1.27-1.86 1.92-3.13 1.47-1.27-.46-1.93-1.86-1.47-3.13 2.08-5.75 4.87-8.9 8.29-9.34 1.98-.26 4.96.33 7.89 4.57 1.25 1.82 2.27 4.22 3.46 7 2.67 6.29 6.34 14.91 15.27 21.87 3.2 2.59 6.79 4.02 10.58 5.53 8.08 3.23 16.44 6.56 19.54 20.85 2.88 12.72 7.3 18.98 15.76 22.3 1.28.5 2.79 1.02 4.45 1.59 11.82 4.08 31.61 10.9 31.59 32.17.0 1.35-1.1 2.44-2.45 2.44z" fill="#070707"/><path d="M429.99 192.71c-5.39.0-9.87-1.43-13.39-4.27-10.63-8.6-10.06-27.76-9.61-43.15.09-3.21.18-6.24.16-8.89-.32-24.25-21.85-35.49-40.84-45.41-11.16-5.83-20.8-10.86-24.85-17.92-7.68-13.83-9.03-17.92-10.6-22.65-.5-1.49-1.02-3.07-1.78-5.08-8.34-21.62-20.15-29.47-24.59-32.42-26.41-17.55-73.43-2.43-81.82 6.19-.94.97-2.49.99-3.46.04-.97-.94-.99-2.49-.05-3.46 10.89-11.18 60.54-25.12 88.03-6.85 4.8 3.19 17.55 11.66 26.45 34.74.8 2.1 1.34 3.74 1.86 5.29 1.56 4.69 2.78 8.39 10.22 21.79 3.32 5.78 12.81 10.74 22.85 15.99 19.21 10.03 43.12 22.52 43.47 49.69.03 2.75-.06 5.83-.16 9.09-.42 14.31-.95 32.12 7.79 39.2 4.23 3.42 10.35 4.1 18.7 2.07 1.31-.31 2.64.48 2.96 1.8.32 1.31-.49 2.64-1.8 2.96-3.44.84-6.63 1.26-9.55 1.26z" fill="#070707"/><path d="M219.69 99.95c-.88-2.85.34-5.82 2.38-6.23 1.98-.7 4.48 1.22 5.36 4.06.88 2.85-.34 5.82-2.38 6.23-2.04.41-4.48-1.22-5.36-4.06z" fill="#070707" fill-rule="evenodd"/><path d="M253.48 91.93c-.59-2.91.63-5.88 2.96-6.35 2.33-.47 4.83 1.45 5.42 4.36.59 2.91-.63 5.88-2.96 6.34-2.27.76-4.48-1.22-5.42-4.35z" fill="#070707" fill-rule="evenodd"/></g><g><path d="M247.91 129.64c7.21-1.76 14.13-4.96 14.13-4.96.0.0.25 14.78-9.98 18.05-11.4 3.51-18.28-11.14-18.28-11.14.0.0 6.86-.47 14.13-1.94z" fill="#fcfcfc" fill-rule="evenodd"/><path d="M248.63 145.7c-8.52.0-14.73-8.12-17.06-13.08-.34-.73-.3-1.58.1-2.28.41-.7 1.13-1.15 1.94-1.2.07.0 6.77-.48 13.77-1.89 6.86-1.68 13.56-4.76 13.63-4.79.75-.35 1.63-.29 2.33.15.7.44 1.13 1.2 1.15 2.03.01.68.15 16.64-11.68 20.42-1.44.44-2.84.64-4.18.64zm-10.77-12.05c2.48 3.56 7.27 8.65 13.48 6.74 5.47-1.75 7.32-7.83 7.94-11.89-2.76 1.1-6.71 2.52-10.79 3.52l-.09.02c-3.99.8-7.82 1.31-10.53 1.61zm10.05-4.01h0z" fill="#070707"/></g><path d="M320.21 163.66h-.03c-1.35-.02-2.43-1.13-2.41-2.48.15-11.05-.83-17.43-1.86-24.18-.87-5.68-1.76-11.56-2.19-20.67-.06-1.35.98-2.49 2.33-2.56 1.34-.04 2.49.98 2.56 2.33.41 8.85 1.29 14.6 2.14 20.16 1.06 6.96 2.07 13.53 1.91 24.99-.02 1.34-1.11 2.41-2.44 2.41z" fill="#070707"/></g><path d="M122.92 296.09c-2.24.0-4.41-1.15-5.61-3.12-4.46-7.31-15.31-28-19.73-62.29-1.6-12.37-.71-25.65-.26-30.78.21-2.33 1.54-4.44 3.56-5.64 11.84-7.03 61.32-36.75 70.26-43.04 17.04-11.99 53.11-8.64 54.64-8.49 1.34.13 2.33 1.33 2.2 2.67-.13 1.34-1.33 2.34-2.67 2.2-.36-.03-35.8-3.32-51.35 7.63-9.18 6.46-58.23 35.91-70.58 43.24-.68.41-1.11 1.09-1.18 1.87-.44 4.98-1.3 17.83.24 29.73 4.3 33.35 14.76 53.33 19.06 60.36.41.67 1.22.95 1.98.69l31.08-10.92c1.28-.45 2.67.22 3.12 1.5.45 1.27-.22 2.67-1.5 3.12l-31.08 10.92c-.71.25-1.44.37-2.16.37z" fill="#070707"/><path d="M177.57 337.98c-.97.0-1.89-.58-2.27-1.54-.1-.25-10.12-25.2-18-41.75-6.16-12.93-5.69-23.46-2.45-40.8.96-5.12 3.35-12.44 7.1-21.78 6.41-15.95-.36-33.24-.43-33.42-.5-1.25.11-2.68 1.36-3.18 1.26-.5 2.67.1 3.18 1.35.31.78 7.59 19.26.43 37.07-3.63 9.04-5.93 16.05-6.83 20.85-3.11 16.61-3.55 26.01 2.06 37.79 7.95 16.69 18.02 41.78 18.12 42.03.5 1.25-.11 2.68-1.36 3.18-.3.12-.61.18-.91.18z" fill="#070707"/><path d="M280.44 730.22c-.86.0-1.7-.46-2.14-1.26-.65-1.18-.22-2.67.96-3.32 6.43-3.55 24.07-12.46 48.78-18.41 1.3-.31 2.63.49 2.95 1.81.32 1.31-.49 2.63-1.81 2.95-24.13 5.81-41.3 14.47-47.56 17.93-.38.21-.78.31-1.18.31z" fill="#070707"/><path d="M174.05 761.31c-1.35.0-2.44-1.09-2.45-2.44-.02-9.36-.67-35.05-3.35-41.51-4.26-10.25-34.13-101.07-33.79-177.02.09-20.89 5.51-46.61 9.1-63.63 1.55-7.36 2.89-13.71 2.89-15.7.0-1.41-.18-4-.4-7.28-.87-12.83-2.5-36.72.41-65.85 2.85-28.46 18.19-71.48 18.84-73.29.46-1.27 1.86-1.93 3.13-1.48 1.27.46 1.93 1.86 1.48 3.13-.16.44-15.79 44.27-18.58 72.13-2.87 28.72-1.26 52.34-.4 65.03.24 3.5.41 6.03.41 7.61.0 2.5-1.19 8.16-3 16.71-3.55 16.82-8.91 42.25-9 62.64-.34 75.15 29.2 164.98 33.42 175.12 3.54 8.52 3.72 39.83 3.72 43.38.0 1.35-1.09 2.45-2.44 2.45h0z" fill="#070707"/><path d="M372.82 336.56c-.38.0-.76-.09-1.11-.27-1.2-.62-1.68-2.09-1.06-3.29.18-.34 17.33-34.85 2.02-84.49-3.47-11.25.6-23.07.77-23.57.45-1.27 1.84-1.94 3.11-1.5 1.27.45 1.95 1.84 1.5 3.11-.04.11-3.7 10.84-.71 20.51 15.93 51.65-1.59 86.7-2.35 88.16-.43.84-1.29 1.33-2.18 1.33z" fill="#070707"/><path d="M450.61 688.45c-1.22.0-2.28-.92-2.42-2.16-.11-.97-11.38-96.96-15.48-130.33-4.28-34.79-45.69-199.52-66.97-222.06-.93-.98-.88-2.53.1-3.46.98-.93 2.53-.88 3.46.1 23.38 24.77 64.52 194.36 68.27 224.82 4.11 33.38 15.37 129.39 15.48 130.36.16 1.34-.8 2.56-2.14 2.71-.1.01-.19.02-.29.02z" fill="#070707"/><path d="M272.96 184.08c-4.12.0-8.28-.72-12.17-2.68-7.15-3.61-10.27-15.51-11.06-19.07-.29-1.32.54-2.62 1.86-2.92 1.33-.29 2.62.54 2.92 1.86 1.42 6.43 4.6 13.8 8.49 15.77 7.38 3.73 16.54 1.89 23.7-.12 8.91-2.51 33.03-15.41 33.27-15.54 1.19-.64 2.67-.19 3.31 1 .64 1.19.19 2.67-1 3.31-1.01.54-24.83 13.29-34.26 15.94-4.51 1.27-9.76 2.46-15.07 2.46z" fill="#070707"/><path d="M390.64 204.29c-4.84-10.27-61.01-39.63-67.4-42.94-1.2-.62-2.68-.15-3.3 1.04-.62 1.2-.15 2.67 1.04 3.3 23.56 12.22 62.11 34.07 65.22 40.68 7.7 16.36 23.02 93.55 24.19 104.56-4.03 1.7-19.64 5.69-33.78 8.88-1.32.3-2.14 1.61-1.85 2.92.26 1.14 1.27 1.91 2.38 1.91.18.0.36-.02.54-.06 36.21-8.18 36.94-10.08 37.48-11.48 1.66-4.35-17.41-93.7-24.53-108.82z" fill="#070707"/><g><g><path d="M275.84 1000.44l-3 .1c.14 9.33-.63 21.15-6.02 26.13-1.96 1.81-4.73 7.44-7.29 8.19-2.45.72-9.54-4.46-12.09-4.62-9.1-.58-16.7-11-20.11-19.46-1.11-2.76-1.43-5.72-1.42-8.71h-.14c-2.92 11.91-4.07 44.07 2.22 54.6 11.69 19.59 35.87 23.17 42.27 19.81 4.77-2.51 9.63-15.6 10.76-20.87 3.56-16.63-1.91-38.48-5.17-55.17z" fill="#a8a660"/><path d="M247.43 1030.23c2.55.17 9.64 5.34 12.09 4.62 2.56-.75 5.33-6.39 7.29-8.19 5.4-4.98 6.16-16.8 6.02-26.13-.04-2.48-.13-4.8-.23-6.76-.45-9.28-3.1-18.31-4.31-27.53-2-15.24-.02-30.7 2.25-45.9 3.77-25.25 8.36-50.49 8.97-76.02.47-19.73 2.61-37.76.75-57.4-2.41-25.42-3.04-57.28-1.16-84.07-2.94.47-5.89.81-8.85 1.03-.49.04-.91-.3-1.1-.72-9.86 2.21-20.09 2.95-30.04 4.92-.36.07-.67-.01-.91-.17-19.04 7.36-37.13 16.4-51.79 30.4-1.98 1.89 2.86 17.93 2.13 20.56-8.1 29.43-.8 65.22 9.55 93.94 10.35 28.72 24.06 56.46 29.89 86.42.14.7.96 1.18.95 1.9.0.39-.41.33-.67.2 1.25 18.49-.32 35.84-1.99 54.31-.19 2.13-.36 4.29-.37 6.43.0 2.99.31 5.95 1.42 8.71 3.4 8.46 11.01 18.87 20.11 19.46z" fill="#ffddc0"/></g><path d="M227.63 785.85c-.78.0-1.55-.38-2.03-1.08-2.22-3.28-4.45-6.17-6.62-8.95-5.8-7.48-11.27-14.54-15.89-28.07-.44-1.28.24-2.67 1.52-3.1 1.28-.43 2.67.24 3.11 1.52 4.36 12.75 9.59 19.5 15.13 26.65 2.21 2.85 4.49 5.79 6.8 9.21.76 1.12.46 2.64-.65 3.4-.42.28-.9.42-1.37.42z" fill="#070707"/><path d="M268.35 772.06c-.23.0-.46-.03-.69-.1-1.3-.38-2.04-1.74-1.65-3.04 6.62-22.45 10.03-42 11.42-65.36.08-1.35 1.21-2.35 2.59-2.29 1.35.08 2.38 1.24 2.29 2.59-1.41 23.75-4.89 43.63-11.62 66.46-.31 1.06-1.29 1.75-2.34 1.75z" fill="#070707"/><path d="M275.84 1004.52c-1.11.0-2.11-.75-2.38-1.88-.82-3.42-1.2-5.42-1.56-7.36-.37-1.97-.72-3.82-1.51-7.14-3.29-13.75-5.75-35.08-5.26-45.65.0-.11.02-.22.04-.34 6.02-32.2 7.86-48.87 10.41-71.93.72-6.49 1.49-13.51 2.44-21.55 2.89-24.64 2.06-43.03.57-66.32-.54-8.44-1.13-17.8-1.71-27.16-.59-9.4-1.18-18.79-1.72-27.27-.09-1.35.94-2.51 2.28-2.6 1.36-.06 2.51.94 2.6 2.29.54 8.48 1.13 17.87 1.72 27.27.59 9.36 1.17 18.71 1.71 27.15 1.5 23.55 2.34 42.15-.59 67.2-.94 8.03-1.72 15.04-2.43 21.52-2.56 23.13-4.41 39.85-10.43 72.12-.42 10.09 2.01 31.04 5.14 44.12.82 3.43 1.2 5.43 1.56 7.37.37 1.97.72 3.82 1.51 7.13.31 1.31-.5 2.63-1.81 2.95-.19.05-.38.07-.57.07z" fill="#070707"/><path d="M264.02 1080c-10.89.0-28.49-5.93-38.13-22.08-6.69-11.2-5.6-43.75-2.49-56.43.32-1.31 1.64-2.12 2.96-1.79 1.31.32 2.11 1.65 1.79 2.96-2.91 11.86-3.83 43.09 1.94 52.75 10.87 18.21 33.61 21.74 39.03 18.89 3.71-1.95 7.83-11.5 9.51-19.22 3.04-13.95-.6-31.72-3.81-47.39-.48-2.34-.94-4.6-1.37-6.79-.26-1.32.61-2.61 1.93-2.87 1.33-.27 2.61.6 2.87 1.93.42 2.17.89 4.42 1.36 6.74 3.31 16.15 7.06 34.46 3.8 49.42-1.38 6.33-5.66 19.17-12.01 22.51-1.67.88-4.24 1.37-7.37 1.37z" fill="#070707"/><path d="M258.49 1037.44c-5.1.0-13.79-5.11-23.02-13.68-6.66-6.18-9.72-13.71-12.03-20.94-.41-1.29.29-2.66 1.58-3.08 1.28-.41 2.66.3 3.07 1.58 2.11 6.59 4.87 13.44 10.7 18.85 11.48 10.66 18.66 12.79 19.96 12.35 5.99-1.96 13.08-22.44 13.08-37.78.0-1.35 1.09-2.45 2.45-2.45s2.45 1.09 2.45 2.45c0 14.92-6.91 39.31-16.45 42.43-.53.17-1.13.26-1.79.26z" fill="#070707"/><path d="M228.17 929.03s-.03-.05-.03-.09c0-.03.0-.06.0-.09-6.22-24.65-12.69-39.54-19.54-55.3-3.21-7.39-6.53-15.03-9.84-23.8-9.29-24.62-15.86-59.99-9.58-83.53.01-.05.0-.1.0-.16.01-.06.05-.11.05-.17 1.11-9.05.91-18.2-.59-27.2-.22-1.33-1.47-2.24-2.81-2.01-1.33.22-2.23 1.48-2.01 2.82 1.42 8.5 1.61 17.16.57 25.72-6.45 24.59.25 61 9.79 86.27 3.36 8.89 6.7 16.58 9.94 24.02 6.76 15.55 13.14 30.24 19.26 54.44 3.71 21.38 1.87 46.26.24 68.22l-.28 3.74c-.1 1.35.91 2.52 2.26 2.62.06.0.12.0.18.0 1.27.0 2.34-.98 2.44-2.27l.28-3.73c1.65-22.26 3.52-47.49-.31-69.49z" fill="#070707"/></g><g><g><path d="M445.51 923.74c-.3-5.04-3.77-17.04-4.5-21.97-2.14-14.47-6.38-23.67-8.94-29.29 1.02 6.92 2.29 13.84 3.76 20.77 2.46 17.12-6.54 39.26-18.31 40.88-6.8.94-14.52-10.43-21.5-19.47-4.78-7.68-3.25-17.49-2.98-26.53.02-.54-.01-1.08.0-1.62l-.08.04c-6 30.39-3.14 65.33 4.49 87.44 6.34 18.36 30.18 17.93 42.52-9.96 4.1-9.26 6.15-29.89 5.54-40.31z" fill="#a8a660"/><path d="M396.03 914.68c6.98 9.04 14.7 20.4 21.5 19.47 11.77-1.62 20.78-23.76 18.31-40.88-1.47-6.93-2.75-13.85-3.76-20.77-2.88-19.63-3.62-39.31-.47-59.4 3.76-48.08-1.02-96.37-5.8-144.35-25.23-2.66-86.21-1.63-104.01 15.68-1.41 6.87 6.31 14.89 8.56 20.91 4.26 21.58 6.37 43.97 16.04 64.2 10.67 24.8 26.77 47.01 37.04 71.97 5.88 14.29 9.77 29.59 9.6 45.02.0.54.02 1.08.0 1.62-.27 9.04-1.8 18.85 2.98 26.53z" fill="#ffddc0"/></g><path d="M424.03 727.78c-.35.0-.71-.08-1.05-.24-1.22-.58-1.74-2.04-1.16-3.26 3.91-8.24 4.08-18.14 4.23-26.87l.47-27.1c.02-1.35 1.15-2.4 2.49-2.4 1.35.02 2.43 1.14 2.4 2.49l-.47 27.1c-.16 9.23-.34 19.69-4.71 28.88-.42.88-1.3 1.4-2.21 1.4z" fill="#070707"/><path d="M349.17 735.81c-.63.0-1.26-.24-1.74-.73-14.68-14.86-21.48-27.01-27.98-49.99-.37-1.3.39-2.65 1.69-3.02 1.29-.37 2.65.39 3.02 1.69 6.25 22.07 12.75 33.7 26.76 47.89.95.96.94 2.51-.02 3.46-.48.47-1.1.7-1.72.7z" fill="#070707"/><path d="M416.53 936.6c-.73.0-1.48-.1-2.26-.31-7.45-2.01-21.25-19.69-22.87-31.73-1.46-10.88-1.65-25.74-1.74-32.88-.02-1.77-.03-2.95-.06-3.31-4.76-20.93-14.61-38.4-25.04-56.9-4.03-7.14-8.19-14.52-12.1-22.21-11.1-21.85-20.7-57.5-23.56-79.34-.17-1.34.77-2.57 2.11-2.74 1.32-.18 2.57.76 2.74 2.11 2.74 20.97 12.34 56.66 23.07 77.76 3.86 7.6 8 14.93 12 22.03 10.61 18.82 20.64 36.59 25.59 58.45.09.4.1.67.14 4.1.08 6.5.27 21.71 1.69 32.29 1.41 10.49 13.95 26.22 19.3 27.65 3.89 1.04 8.54-4.84 13.83-17.5 4.56-10.91 5.17-18.96 1.94-25.32-1.14-2.24-1.84-7.5-2.86-15.88-.17-1.41-.34-2.81-.51-4.12-.44-3.4-1.74-15.79-1.82-19.75-.36-19.62 1.06-35.44 3.12-55.65 2.83-27.84 4.47-52.97-4.19-78.77-.43-1.28.26-2.67 1.54-3.1 1.28-.43 2.67.26 3.1 1.54 8.97 26.72 7.31 52.41 4.42 80.82-2.04 20.03-3.46 35.71-3.1 55.06.06 3.49 1.31 15.57 1.78 19.22.17 1.32.34 2.73.51 4.15.65 5.32 1.54 12.61 2.37 14.25 5.16 10.17 1.45 21.66-1.79 29.42-4.09 9.79-9.67 20.64-17.36 20.64z" fill="#070707"/><path d="M415.47 989.25c-4.6.0-10.66-1.87-16.82-9.17-16.21-19.21-12.94-71.53-8.84-90.12.29-1.32 1.59-2.15 2.91-1.86 1.32.29 2.15 1.59 1.86 2.91-4.67 21.22-6.11 69.42 7.81 85.91 4.74 5.61 9.73 8.07 14.86 7.3 7.53-1.12 15.38-9.22 20.48-21.13 5.86-13.67 5.86-30.43 5.34-39.2-.16-2.76-1.43-8.12-2.56-12.85-.83-3.48-1.61-6.77-1.92-8.91-1.89-12.76-4.89-17.11-7.08-20.29-.96-1.4-1.87-2.72-2.45-4.39-.44-1.28.24-2.67 1.52-3.11 1.28-.43 2.67.24 3.11 1.52.36 1.04.98 1.95 1.85 3.2 2.33 3.37 5.84 8.47 7.89 22.35.29 1.92 1.04 5.12 1.84 8.49 1.22 5.17 2.49 10.51 2.68 13.68.55 9.21.53 26.83-5.73 41.42-4.52 10.55-13.26 22.41-24.25 24.05-.77.12-1.61.19-2.5.19z" fill="#070707"/><path d="M388.73 723.7c-.24.0-.48-.03-.72-.11-1.29-.39-2.02-1.76-1.63-3.05l8.49-27.82c.39-1.29 1.75-2.03 3.05-1.62 1.29.39 2.02 1.76 1.63 3.05l-8.49 27.82c-.32 1.05-1.29 1.73-2.34 1.73z" fill="#070707"/></g><path d="M288.89 593.48c-1.24.0-2.3-.93-2.43-2.19-1.07-10.14.72-20.27 2.3-29.2 6.71-37.92 14.44-74.54 35.04-105.61.75-1.12 2.26-1.43 3.39-.69 1.12.75 1.43 2.26.69 3.39-20.08 30.28-27.68 66.36-34.3 103.75-1.52 8.62-3.25 18.38-2.25 27.83.14 1.34-.83 2.55-2.18 2.69-.09.0-.17.01-.26.01z" fill="#070707"/><path d="M272.97 557.25c-1.24.0-2.31-.94-2.43-2.2-1.58-15.84-1.41-31.88.5-47.68.16-1.34 1.38-2.31 2.72-2.14 1.34.16 2.3 1.38 2.13 2.72-1.87 15.45-2.03 31.13-.49 46.61.13 1.34-.85 2.54-2.19 2.67-.08.0-.16.01-.24.01z" fill="#070707"/><path d="M311.03 346.12c-.26.0-.53-.04-.79-.13-17.1-5.83-34.91-8.42-52.97-7.74-1.39.12-2.49-1-2.54-2.35-.05-1.35 1-2.49 2.35-2.54 18.66-.72 37.07 1.97 54.74 8 1.28.44 1.96 1.82 1.52 3.1-.35 1.02-1.3 1.66-2.31 1.66z" fill="#070707"/><path d="M185.29 775.65c-.12.0-.24.0-.36-.03-9.35-1.38-12.43-6.11-13.38-9.83-2.76-10.87 9.3-26.59 15.05-30.9 1.22-1.12 34.47-30.84 77.51-32.94 19.53-.95 34.25-8.43 49.83-16.34 13.03-6.62 26.51-13.47 43.26-16.46 17.74-3.17 76.95-11.71 94.06 11.37 1.68 2.28 2.22 5.3 1.45 8.09-3.76 13.57-22.94 20.29-23.75 20.57-1.28.43-2.67-.24-3.1-1.52-.44-1.28.24-2.67 1.52-3.11.18-.06 17.55-6.17 20.62-17.25.37-1.35.12-2.8-.67-3.87-12.26-16.54-54.14-15.74-89.26-9.47-16.04 2.86-29.19 9.54-41.91 16.01-15.35 7.8-31.23 15.86-51.8 16.87-41.25 2.01-74.31 31.53-74.64 31.83-5.11 3.84-15.49 17.78-13.42 25.93.85 3.36 3.91 5.39 9.35 6.2 1.34.2 2.26 1.44 2.06 2.78-.18 1.21-1.22 2.09-2.42 2.09z" fill="#070707"/></g></g></g></g></svg>