<svg xmlns="http://www.w3.org/2000/svg" width="649.59" height="1080" viewBox="0 0 649.59 1080"><g id="a"/><g id="b"><g id="c"><g id="d"><path d="M314.95 504.47c-1.87-19.19-5.62-63.16-1.87-77.66 3.74-14.5 5.14-42.57 9.82-53.79 4.68-11.22 7.02-15.44 2.34-22.91-4.68-7.5-17.31-24.34-22.46-35.1-5.15-10.76-21.05-36.02-24.79-51.92-3.75-15.91.0-42.1.0-61.29.0-7.05.06-25.64.14-46.3-.84 8.36-1.71 16.86-2.49 23.84-2.1 18.94-11.92 34.85-17.07 44.21-5.14 9.36-7.95 15.9-7.95 15.9.0.0-.47 6.31.0 7.71.46 1.41-2.11 6.09-3.51 10.29-1.4 4.21-.93 18.72-6.55 25.74-5.61 7.02-11.69 19.64-13.1 25.26-1.4 5.61-.93 20.12 2.81 30.42 3.75 10.29 13.57 21.99 25.26 29.94 11.7 7.95 27.13 15.44 30.41 25.26 3.28 9.83-1.41 44.44 3.28 68.76 4.68 24.33 13.58 46.57 16.84 58.49 1.53 3.33 3.14 8.79 4.65 14.79 3.57 10.5 7.81 21.76 10.28 28.23.02-.44.05-.89.05-1.39.0-7.95-4.21-39.3-6.09-58.47z" fill="none"/><path d="M296.82 31.48c.27-.32.53-.64.82-.96-.29-.51-.46-.89-.46-.89.0.0-.14.74-.36 1.85z" fill="none"/><path d="M491.12 578.5c1.23-3.81 3.6-11.66 3.95-16.49.48-6.55-5.62-25.73-7.49-41.17-1.87-15.44-6.09-30.4-9.83-43.5-3.74-13.1-8.89-22.46-8.89-22.46.0.0-4.21 14.98-12.17 27.14-7.96 12.16-21.05 29.48-20.11 44.44.93 14.97-1.87 30.41 4.21 37.44.3.34.66.97 1.06 1.76 16.96 2.57 42.38 10.39 49 12.73.09.03.17.08.26.12z" fill="none"/><path d="M310.49 702.88c2.7 1.14 5.17 2.44 6.9 3.59.05.03.04.13-.01.27 2.59 1.38 4.68 1.51 5.46 1.49 1.27-.84 2.66-1.91 4.16-3.31 5.26-4.91 17.19-20.34 23.5-27.36 6.32-7.01 27.37-28.76 27.37-28.76.0.0-14.74 4.21-30.17 6.31-11.9 1.61-29.84.83-37.46.39-3.54 17.8-7.52 33.95-11.43 42.72.16.36.31.69.46 1.01 3.51.39 7.63 1.91 11.21 3.65z" fill="#070707"/><path d="M141.05 360.73c2.1-5.26 6.32-17.07 12.05-22.81 2.33-2.34 5.91-4.61 9.55-8.25-.16.0-.26.01-.26.01l2.28-2.47s.1-.01.25-.03c1.06-1.26 2.12-2.63 3.12-4.22 4.36-6.96 6.21-18.71 7.1-28.55.76-8.37 1.02-23.34-1.52-22.08-1.92.96-5.04-.25-7.89-2.84-2.14 1.64-8.3 6.77-9.87 12.74-1.9 7.23 1.14 22.84-3.04 25.12-4.19 2.28-11.8 15.98-11.8 22.84s-5.33 17.89-6.09 24.36c-.76 6.47-6.85 11.81-7.99 15.99-1.14 4.19-1.14 14.46-1.14 14.46.0.0-.87 5.68-2.15 14.24 2.3-4.51 4.08-7.97 4.08-7.97.0.0 11.23-25.27 13.33-30.54z" fill="#381c12"/><path d="M162.1 423.19s-14.36 23.4-23.86 38.6c-4.63 7.41-13.96 19.21-18.59 30.87-4.13 10.41-3.86 20.84-3.86 25.97.0 6.74-5.8 23.82-8.48 31.37 1.12 1.59 2.36 2.32 3.64 2.11 4.57-.76 10.66-10.66 11.42-3.42.76 7.23 15.61 11.04 20.17 10.65 4.57-.38 6.47-15.99 9.14-21.69 2.66-5.71 19.03-53.67 18.27-64.71-.38-5.56.2-18.04.49-31.16-1.56-3.2-2.8-5.93-3.42-7.7-2.81-8.07-4.91-10.88-4.91-10.88z" fill="#381c12"/><path d="M636.81 1009.24c-4.68-13.1-19.64-45.85-26.67-63.62-7.01-17.77-36.48-88.42-44.9-103.39-8.43-14.97-39.77-63.63-50.53-80-10.76-16.37-26.19-54.26-34.15-72.52-1.69-3.86-4.18-11.44-7.1-21.05-5.05 2.06-12.97-.24-19.95 2.57-5.24 2.11-7.86 1.78-13.96 7.11-15.73 8.62-19.05 11.3-26.92 13.33-.2-.11-.3-.29-.41-.46-8.62 5.96-17.28 11.76-22.89 14.89-12.62 7.01-29.93 21.05-38.83 28.06-6.05 4.78-18.18 15.84-29.29 24.79l1.6 2.27-4.37 2.45s-.46-.62-1.19-1.59c-3.74 2.88-7.26 5.4-10.25 7.17-6.4 3.79-13.95 6.76-19.86 8.79-3.34 1.68-6.75 3.66-10.56 5.54-2.09 8.59-9.46 37.52-16.59 49.41-7.59 12.64-19.42 26.37-28.36 33.09-2.05 11.06-5.79 32.37-8.37 43.51-2.81 12.16-8.42 30.88-17.3 43.51-8.89 12.63-18.72 35.09-21.99 45.37-3.27 10.3-20.58 34.15-28.54 42.58-7.95 8.42-22.92 6.54-33.21 14.96-10.29 8.41 9.83 11.23 9.83 11.23.0.0 50.99-.94 59.41-4.67 8.42-3.74 30.41-9.84 34.15-11.23 3.75-1.41 5.61 7.94 5.61 7.94l18.71-2.34s4.21-14.98 7.95-14.98 25.73-.92 25.73-2.8 11.23-20.59 13.57-32.74c2.34-12.16 14.04-56.14 19.18-77.19 5.15-21.04 14.03-53.8 16.38-65.96 2.34-12.17 22.45-63.62 29-80.47 6.55-16.84 17.31-57.54 17.31-57.54.0.0 18.71 40.24 26.2 54.74 7.48 14.49 43.04 93.56 55.67 119.29 12.63 25.73 35.09 75.79 45.38 91.22 10.29 15.44 44.44 56.6 46.78 59.88 2.34 3.27 4.67 14.03 4.67 14.03l31.35-.46v10.76c0 3.26 14.04 4.2 24.32 4.2s23.39-8.89 28.54-11.23c5.15-2.34 3.74-14.04 3.74-14.04.0.0 2.34-3.27 3.75-6.08 1.4-2.8-7.96-25.26-12.64-38.36z" fill="#070707"/><path d="M290.16 91.86c-3.74 3.28-7.72 22.46-8.66 30.41-.59 5.02-1.92 18.91-3.36 33.22-.08 20.66-.14 39.25-.14 46.3.0 19.19-3.75 45.37.0 61.29 3.74 15.9 19.64 41.17 24.79 51.92 5.14 10.76 17.78 27.6 22.46 35.1 4.68 7.48 2.34 11.69-2.34 22.91-4.68 11.23-6.08 39.29-9.82 53.79-3.75 14.51.0 58.48 1.87 77.66 1.87 19.17 6.09 50.52 6.09 58.47.0.49-.02.94-.05 1.39.85 2.22 1.46 3.81 1.8 4.66 2.79.51 6.59.96 11.35.96 10.76.0 30.4-5.61 42.58-5.61s41.16.46 56.13.46c2.51.0 5.6.32 9.02.84-.4-.79-.76-1.42-1.06-1.76-6.08-7.03-3.28-22.46-4.21-37.44-.94-14.96 12.15-32.28 20.11-44.44 7.95-12.16 12.17-27.14 12.17-27.14.0.0 5.15 9.36 8.89 22.46 3.74 13.1 7.95 28.06 9.83 43.5 1.87 15.44 7.96 34.62 7.49 41.17-.34 4.83-2.71 12.69-3.95 16.49.57.21 1.11.49 1.65.82-.14 3.22-.2 6.06-.97 8.89-1.41 5.14-7.02 6.08-7.49 9.82-.46 3.74-2.34 14.98-4.68 18.71-2.34 3.74-8.89 7.48-8.89 7.48.0.0 5.18 10.01 7.51 11.61 5.51 3.79 23.83 9.91 23.83 9.91.0.0 18.25 9.83 31.81 3.28 13.57-6.54 13.1-19.65 15.44-36.96 2.34-17.31 10.76-65.02 12.63-76.71 1.87-11.71 1.87-30.42-2.81-40.24-4.68-9.82-14.5-38.35-23.39-55.2-8.88-16.84-24.33-50.99-29.47-61.76-5.14-10.75-14.5-18.71-27.13-31.34-12.63-12.64-19.66-21.05-21.99-24.33-2.34-3.27-2.34-7.49-4.21-13.56-1.87-6.09-7.95-19.66-7.95-19.66.0.0-14.08 23.16-25.25 32.81-4.81 4.16-46.48 82.13-48.21 85.77-10.66 22.33-46.34 134.89-48.21 115.71-1.87-19.18 3.75-98.75 4.57-105.05 4.57-35.02 25.12-73.59 33.5-81.2 1.34-1.21 11.12-10.38 12.69-19.29 2.44-13.92 4.06-31.96 4.06-31.96.0.0-.97-7.06-3.31-12.21 2.34 5.14-.46 10.76-.46 10.76.0.0-3.28-1.4-6.55-4.68-3.27-3.27-14.97-15.43-18.71-20.58-3.74-5.14-5.14-7.94-6.55-19.17-1.41-11.22-6.55-37.43-7.95-44.91-1.41-7.49-8.89-43.04-11.23-54.28-2.34-11.22-7.95-43.97-8.42-56.14.0.0-28.54 10.3-24.8 7.02z" fill="#070707"/><path d="M412.08 689.93c.47-2.19 3.33-5.51 5.8-5.82-2.75.34-5.93 3.93-5.8 5.82z" fill="#070707"/><path d="M325.02 22.58c.81-.12 1.56-.15 2.11.04 2.57.94 1.16 2.81 1.16 2.81.0.0.23.02.56.05.44-2.72.73-5.13.61-6.66-.35-4.74-3.86-10.52-6.66-14.04-2.81-3.51-6.85-6.14-8.95-4.03-2.11 2.1 1.93 5.79 3.5 7.55 1.19 1.31 3.06 4.21 3.56 6.54.14-.01.25-.07.39-.07 3.52.0 3.74 3.79 3.71 7.81z" fill="#c48768"/><path d="M412.08 689.93c-.14-1.89 3.04-5.48 5.8-5.82 3.75-.47 14.97-12.16 21.51-21.06 6.55-8.88 7.02-13.57 4.21-14.96-2.81-1.41-15.44-1.86-22.46-5.14-7.02-3.27-5.15-6.55-3.75-8.42 1.41-1.87 8.9-1.41 18.25-1.41s16.84 1.87 21.53-2.33c4.67-4.22 13.56-6.56 13.56-6.56.0.0 6.55-3.74 8.89-7.48 2.34-3.74 4.21-14.97 4.68-18.71.47-3.74 6.08-4.68 7.49-9.82.77-2.84.83-5.67.97-8.89-.53-.33-1.08-.6-1.65-.82-.09-.04-.17-.09-.26-.12-6.62-2.34-32.04-10.16-49-12.73-3.41-.51-6.51-.84-9.02-.84-14.97.0-43.97-.46-56.13-.46s-31.81 5.61-42.58 5.61c-4.75.0-8.55-.46-11.35-.96.17.44.29.75.29.75.0.0-1.37 4.44-1.02 6.59.45 2.69-4.83 44.03-11.82 79.16 7.62.44 25.56 1.23 37.46-.39 15.44-2.11 30.17-6.31 30.17-6.31.0.0-21.05 21.75-27.37 28.76-6.31 7.02-18.24 22.46-23.5 27.36-1.49 1.39-2.88 2.47-4.16 3.31.22.0.37-.01.37-.01l1.84 37.94-5.63 10.26 1.79 2.54c11.11-8.94 23.24-20.01 29.29-24.79 8.9-7.02 26.21-21.06 38.83-28.06 5.62-3.13 14.27-8.93 22.89-14.89-.2-.34-.25-.76-.14-1.29z" fill="#e8976b"/><path d="M289.33 541.83s-14.21-42.63-26.9-57.86c-1.95-2.34-11.39-11.56-22.66-22.39-6.18 2.41-20.1 7.81-27.84 10.71-9.13 3.43-20.29 8.29-22.44 9.22 3.1 7.51 8.01 17.6 9.44 24.48 1.75 8.41 4.56 21.04 4.91 29.47.25 6.03-.78 16-3.06 24.15 4-1.65 22.91-3.57 41.84-7.13 23.25-4.37 46.69-10.66 46.69-10.66z" fill="#e8976b"/><path d="M327.12 22.62c-.54-.2-1.29-.16-2.11-.04-.01 1.77-.06 3.59.09 5.14.2 1.99.32 4.9.39 7.88.62-.53 1.26-1.13 1.88-1.76 3.03-3.03 5.74-6.8 4.42-7.47-1.25-.62-2.33-.82-2.96-.89-.33-.03-.56-.05-.56-.05.0.0 1.41-1.87-1.16-2.81z" fill="#e8976b"/><path d="M74.59 918.48c.03-.12.05-.24.08-.36-3.27 14.7-6.9 29.24-9.42 38.02-4.21 14.74-8.07 31.93-17.89 39.3.88-.66 2.29-1.04 2.29-1.04.0.0 1.72 17.04 9.13 28.16 4.15 6.22 17.25 5.19 22.87 4.41 1.97-11.37 5.7-29.28 9.21-40.66 4.21-13.69 9.82-25.61 14.03-32.97 4.21-7.37 5.96-12.64 5.96-12.64.0.0-39.52-7.65-36.27-22.22z" fill="#e8976b"/><path d="M235.81 457.79c-16.83-16.13-36.11-34.34-40.79-38.76-5.44.24-13.5.46-17.34-.02-6.09-.76-13.7-5.32-13.7-5.32l2.28-3.56s9.64 4.31 16.24 5.58c4.06.78 9.83.21 13.68-.33 4.96-5.75 16.64-19.5 19.56-24.79 2.81-5.08 5.82-17.76 7.04-23.26-4.5-5.17-12.77-14.57-17.06-18.87-6.09-6.09-12.18-12.94-20.18-16.37-7.4-3.17-20.94-2.53-22.89-2.42-3.64 3.64-7.22 5.91-9.55 8.25-5.73 5.74-9.95 17.55-12.05 22.81-2.11 5.26-13.33 30.54-13.33 30.54.0.0-1.78 3.46-4.08 7.97-2.39 4.7-5.36 10.53-7.51 14.82-4.21 8.43-9.82 21.41-13.33 26.67-3.51 5.26-9.82 18.94-10.53 25.61-.7 6.67-6.66 27.02-9.47 38.95-2.81 11.92-7.01 31.57-8.77 43.51-1.76 11.93-5.62 37.54-5.62 43.51s-1.41 5.96-9.47 10.18c-8.08 4.21-17.19 8.06-20.7 8.06s-25.61-1.4-27.02-1.4-7.72 4.91-2.8 5.26c4.9.36 23.86 3.16 23.86 3.16.0.0 4.21 4.56 2.1 6.32-2.1 1.76-15.09 7.37-21.4 11.94-6.32 4.56-11.93 8.76-11.93 9.82s1.41 5.26 5.26 3.51c3.86-1.75 25.97-17.2 28.42-14.74 2.46 2.45-7.72 7.01-13.33 10.88-5.61 3.86-16.14 10.86-16.14 11.92s-1.4 7.01 6.67 2.81c8.07-4.21 27.72-17.54 29.48-18.24 1.75-.71 10.52-2.46 5.26 4.55-5.26 7.03-12.98 20.7-12.98 23.17s3.86 6.66 7.37.34c3.51-6.32 11.93-16.49 15.09-21.39 3.16-4.93 16.14-14.04 22.1-19.31 5.96-5.26 9.12-9.47 10.52-18.24 1.41-8.77 5.97-23.86 9.12-33.69 3.16-9.82 8.07-23.51 8.07-23.51.0.0.54-1.44 1.34-3.71 2.68-7.55 8.48-24.63 8.48-31.37.0-5.14-.27-15.56 3.86-25.97 4.64-11.66 13.96-23.46 18.59-30.87 9.5-15.2 23.86-38.6 23.86-38.6.0.0 2.1 2.81 4.91 10.88.62 1.77 1.86 4.5 3.42 7.7 5.56 11.43 15.37 29.34 17.28 35.1.04.12.1.27.15.39 2.06-.84 16.32-6.6 27.13-11.3 7.17-3.13 15.48-6.24 20.83-8.17z" fill="#e8976b"/><path d="M61.46 1031.32c-7.99 7.61-15.99 11.41-15.99 11.41.0.0-2.25 12.25 2.85 16.37 5.11 4.12 17.26.06 17.33.58h0c.47-.93 1.24-1.99 2.4-3.19 9.05-9.41 11.2-13.64 12.6-23.29-5.65.06-19.03-2.05-19.2-1.89z" fill="#e8976b"/><path d="M315.86 762.92s-17.96 10.67-23.99 12.98c-1.6.61-3.16 1.35-4.73 2.14 5.91-2.02 13.47-5 19.86-8.79 2.99-1.77 6.51-4.29 10.25-7.17-.17-.21-.35-.46-.54-.71l-.85 1.54z" fill="#e8976b"/><path d="M310.72 536.1c-1.51-6-3.12-11.46-4.65-14.79 1.15 4.22 2.81 9.4 4.65 14.79z" fill="#e8976b"/><path d="M298.81 698.22c-.15.33-.29.65-.44.95.3.02.59.02.9.06-.15-.31-.3-.65-.46-1.01z" fill="#e8976b"/><path d="M173.62 272.34c2.54-1.26 2.29 13.71 1.52 22.08-.89 9.84-2.74 21.59-7.1 28.55-1 1.59-2.05 2.96-3.12 4.22 1.95-.21 15.88-1.5 24.81 3.39 6.72 3.68 10.79 7.74 17.13 14.09 9.61 9.6 15.84 16.36 18.83 19.7 5.68-.73 20.54-1.89 29.85 4.44-11.7-7.95-21.52-19.64-25.26-29.94-3.74-10.29-4.21-24.8-2.81-30.42 1.4-5.61 7.48-18.24 13.1-25.26 5.62-7.02 5.15-21.52 6.55-25.74 1.4-4.2 3.97-8.89 3.51-10.29-.47-1.41.0-7.71.0-7.71.0.0 2.81-6.54 7.95-15.9 5.15-9.36 14.97-25.27 17.07-44.21.78-6.98 1.65-15.48 2.49-23.84 1.44-14.31 2.77-28.2 3.36-33.22.94-7.96 4.92-27.14 8.66-30.41 3.75-3.27 7.25-3.27 11.7-8.89 4.44-5.61 10.52-13.34 13.09-18.72 2.57-5.38 2.81-13.56.0-13.56s-5.15 3.74-7.01 7.01c-1.87 3.27-4.45 3.51-4.45 3.51.0.0.0-3.74 2.11-8.89 1.19-2.91 5.67-6.64 10.02-9.8.0-3.61.11-7.87.11-13.29.0-2.9.08-5.55.39-7.78-.02.0-.05.0-.08.0-1.89-.14-5.29 2.56-5.29 2.56.0.0.94-2.34-1.87-2.34-.8.0-1.9.53-3.13 1.33.15 3.94-.23 8.58-2.02 10.37-2.54 2.53-5.07-1.11-6.08-2.87-.29.32-.55.64-.82.96-.83 4.17-3.04 14.13-5.26 15.23-2.8 1.41-3.51-.46-3.51-.46.0.0-.24 4.44-2.34 5.61-1 .56-2.1-.26-3.09-1.48-.05.09-.13.21-.19.31-2.8 4.91-8.42 18.48-8.42 22.45s-2.34 6.79-4.21 9.36c-1.87 2.57-1.64 12.17-3.27 17.79-1.64 5.6-3.04 7.71-6.08 16.6-3.04 8.89-5.39 18.01-10.29 29.24-4.91 11.23-10.99 22.45-13.8 31.58-2.13 6.92-4.39 15.17-5.36 18.76 3.03 2.65 6.01 5.65 9.1 8.9 9.64 10.14 9.64 21.31 9.64 21.31.0.0-4.06-9.13-9.13-14.21-5.08-5.08-16.75-4.06-25.37-3.05-8.63 1.01-24.87 13.2-29.94 21.83-5.07 8.63-10.15 20.3-10.15 20.3.0.0-4.57-6.09-9.14-8.64-1.35-.74-3.38.15-4.19.56-2.44 2.31-2.9 7.25-2.53 12.89.37 5.58 3.23 10.25 6.44 13.15 2.85 2.59 5.97 3.79 7.89 2.84z" fill="#e8976b"/><path d="M285.72 51.86c2.1-1.16 2.34-5.61 2.34-5.61.0.0.7 1.88 3.51.46 2.21-1.1 4.42-11.06 5.26-15.23.22-1.11.36-1.85.36-1.85.0.0.17.37.46.89 1.01 1.76 3.54 5.4 6.08 2.87 1.79-1.79 2.18-6.44 2.02-10.37 1.22-.8 2.32-1.33 3.13-1.33 2.81.0 1.87 2.34 1.87 2.34.0.0 3.39-2.7 5.29-2.56-.97-.45-2.66-1.35-4-2.7-1.99-1.99-3.97-3.86-5.73-3.16-1.76.71-3.98 1.17-3.98 1.17l-.05.3c-1.13.44-2.36 1.13-3.17 1.75-1.58 1.23-2.45 5.44-2.45 5.44.0.0-4.56-.87-7.2.71-2.63 1.57-2.8 2.63-2.8 5.79s.23 5.67.23 5.67c0 0-4.68-1.17-5.85 1.4-1.17 2.59-1.87 6.57-.94 8.43.49.99 1.44 2.79 2.53 4.13.98 1.21 2.09 2.04 3.09 1.48z" fill="#c48768"/><path d="M259.99 832.99c7.13-11.88 14.49-40.81 16.59-49.41-.51.26-1.04.51-1.57.75-.12 1.06-.4 1.81-.95 2.06-7.27 3.15-15.95 10.34-22.12 16.11-6.17 5.78-12.5 6.49-16.61 4.74-.56-.23-.94-.69-1.19-1.3-3.64-2.16 1.17-14.54 5.51-27.44 4.43-13.19 12.65-18.51 12.65-18.51.0.0 7.09-.74 11.06-3.79 3.97-3.04 10.59-19.78 11.14-26.71.11-1.34-.22-2.34-.73-3.19-2.81-2.33-8.62-1.99-13.45-1.09-6.82 1.26-15.39 3.39-15.39 3.39l-.19-1.32c-.44.1-.76.18-.76.18l-1.6-11.15s13.42-.93 22.51-3.06c9.07-2.14 6.05.11 12.95-7.03 6.9-7.13 13.64-6.93 19.47-7.1.34.0.71.04 1.07.06.14-.3.29-.62.44-.95 3.9-8.77 7.88-24.92 11.43-42.72 6.99-35.13 12.27-76.47 11.82-79.16-.36-2.16 1.02-6.59 1.02-6.59.0.0-.12-.31-.29-.75-.34-.86-.95-2.44-1.8-4.66-2.47-6.46-6.71-17.73-10.28-28.23-1.83-5.39-3.49-10.56-4.65-14.79-3.26-11.92-12.16-34.16-16.84-58.49-4.69-24.33.0-58.94-3.28-68.76-3.28-9.82-18.71-17.31-30.41-25.26-9.31-6.33-24.18-5.17-29.85-4.44-2.99-3.34-9.22-10.1-18.83-19.7-6.34-6.34-10.4-10.41-17.13-14.09-8.93-4.89-22.86-3.59-24.81-3.39-.15.01-.25.03-.25.03l-2.28 2.47s.1.0.26-.01c1.95-.11 15.49-.75 22.89 2.42 7.99 3.43 14.08 10.28 20.18 16.37 4.3 4.3 12.57 13.71 17.06 18.87-1.22 5.49-4.24 18.18-7.04 23.26-2.92 5.29-14.6 19.04-19.56 24.79-3.85.54-9.63 1.11-13.68.33-6.6-1.26-16.24-5.58-16.24-5.58l-2.28 3.56s7.61 4.56 13.7 5.32c3.83.48 11.89.26 17.34.02 4.68 4.42 23.96 22.63 40.79 38.76-5.35 1.94-13.66 5.04-20.83 8.17-10.81 4.7-25.06 10.46-27.13 11.3-.17.07-.28.11-.28.11l1.52 4.31s.16-.06.4-.17c2.15-.94 13.31-5.79 22.44-9.22 7.74-2.9 21.66-8.3 27.84-10.71 11.27 10.83 20.71 20.05 22.66 22.39 12.69 15.23 26.9 57.86 26.9 57.86.0.0-23.44 6.29-46.69 10.66-18.93 3.56-37.84 5.48-41.84 7.13-.39.16-.69.32-.79.49-4.01 7.1-16.73 35.06-23.08 54.82-.86 2.69-1.62 5.24-2.21 7.55-4.91 19.3-15.79 70.53-21.75 95.09-5.96 24.56-9.13 42.09-13.33 56.14-4.21 14.04-20 40-28.08 48.77-8.07 8.76-27.71 46.66-31.22 67.36-.32 1.88-.68 3.86-1.05 5.87-.09.46-.17.92-.26 1.39-.37 1.96-.77 3.99-1.18 6.05-.08.41-.17.81-.25 1.21-.42 2.09-.86 4.2-1.31 6.34-.03.12-.05.24-.07.35-.5 2.35-1.02 4.71-1.54 7.07-.03.12-.05.24-.08.36-3.25 14.57 36.27 22.22 36.27 22.22.0.0 24.91-9.12 41.05-20.01 16.14-10.87 31.23-20.34 41.06-28.41 9.82-8.06 26.66-18.59 35.79-24.2.91-.56 1.87-1.24 2.87-2 8.94-6.72 20.78-20.46 28.36-33.09z" fill="#eb008b"/><path d="M58.79 1022.56c-7.41-11.12-9.13-28.16-9.13-28.16.0.0-1.41.38-2.29 1.04-9.83 7.37-24.91 13.68-26.31 20.35-1.41 6.66-2.46 20.35-10.18 27.01-7.72 6.67-10.88 9.48-10.88 9.48l11.23 8.07s1.75-9.48 6.32-14.38c4.56-4.91 14.39-7.36 15.79-4.91 1.4 2.45 2.81 15.08 1.05 22.45-1.76 7.37 5.26 16.49 10.88 16.49s28.07-2.46 29.82-2.81c1.76-.35 5.26-7.72 1.76-9.12-.24-.1-.55-.19-.83-.28-3.36-1.04-9.48-1.8-10.35-8.09h0c-.07-.54-12.23 3.53-17.33-.59-5.11-4.12-2.85-16.37-2.85-16.37.0.0 7.99-3.81 15.99-11.41.17-.16 13.56 1.95 19.2 1.89 1.46-.01 2.43-.17 2.49-.56.49-3.07 1.14-6.09 1.14-6.09.0.0-1.03.2-2.63.42-5.62.77-18.73 1.81-22.87-4.41z" fill="#ca3793"/><path d="M305.41 722.02l.45 15.17 13.56 19.23 5.63-10.26-1.84-37.94s-.15.01-.37.01c-.79.02-2.87-.11-5.46-1.49-.8 2.11-11.97 15.28-11.97 15.28z" fill="#e8976b"/><path d="M315.86 762.92l.85-1.54c-4.04-5.28-14.06-17.91-17.78-18.11-6.35-.34-20.44-.94-24.61 9-3.65 8.69 1.36 26.06.69 32.07.53-.24 1.06-.49 1.57-.75 3.81-1.89 7.22-3.86 10.56-5.54 1.57-.79 3.13-1.53 4.73-2.14 6.03-2.31 23.99-12.98 23.99-12.98z" fill="#e8976b"/><path d="M265.84 714.38c9.07-2.14 5.83-.43 12.72-7.57 6.9-7.14 13.76-6.8 19.6-6.98 3.53-.1 8.2 1.29 12.33 3.04-3.58-1.74-7.7-3.26-11.21-3.65-.31-.04-.6-.04-.9-.06-.36-.01-.73-.06-1.07-.06-5.84.17-12.57-.03-19.47 7.1-6.9 7.14-3.87 4.89-12.95 7.03-9.08 2.13-22.51 3.06-22.51 3.06l1.6 11.15s.32-.08.76-.18l-1.41-9.83s13.43-.93 22.51-3.06z" fill="#999"/><path d="M240.6 779.64c4.43-13.19 12.66-18.5 12.66-18.5.0.0 7.09-.74 11.06-3.79 3.97-3.05 10.59-19.78 11.15-26.71.16-2.02-.54-3.39-1.69-4.34.51.85.84 1.85.73 3.19-.55 6.94-7.17 23.67-11.14 26.71-3.97 3.05-11.06 3.79-11.06 3.79.0.0-8.22 5.32-12.65 18.51-4.34 12.91-9.15 25.28-5.51 27.44-1.58-3.9 2.63-14.91 6.46-26.31z" fill="#999"/><path d="M305.86 737.19l-.45-15.17s11.17-13.16 11.97-15.28c.05-.14.07-.24.01-.27-1.74-1.15-4.21-2.45-6.9-3.59-4.13-1.76-8.81-3.14-12.33-3.04-5.84.18-12.69-.16-19.6 6.98-6.9 7.14-3.65 5.44-12.72 7.57-9.08 2.13-22.51 3.06-22.51 3.06l1.41 9.83.19 1.32s8.58-2.12 15.39-3.39c4.84-.89 10.65-1.23 13.45 1.09 1.15.95 1.85 2.31 1.69 4.34-.56 6.94-7.18 23.66-11.15 26.71-3.97 3.05-11.06 3.79-11.06 3.79.0.0-8.22 5.31-12.66 18.5-3.83 11.4-8.04 22.41-6.46 26.31.25.61.63 1.07 1.19 1.3 4.11 1.75 10.44 1.04 16.61-4.74 6.18-5.78 14.86-12.96 22.12-16.11.55-.24.82-.99.95-2.06.67-6.01-4.34-23.38-.69-32.07 4.17-9.94 18.26-9.34 24.61-9 3.71.21 13.74 12.84 17.78 18.11.19.25.37.49.54.71.74.97 1.19 1.59 1.19 1.59l4.37-2.45-1.6-2.27-1.79-2.54-13.56-19.23z" fill="#ca3793"/><path d="M166 242.9c4.57 2.54 9.14 8.64 9.14 8.64.0.0 5.08-11.67 10.15-20.3 5.07-8.63 21.31-20.82 29.94-21.83 8.62-1.01 20.3-2.03 25.37 3.05 5.07 5.08 9.13 14.21 9.13 14.21.0.0.0-11.16-9.64-21.31-3.09-3.25-6.08-6.25-9.1-8.9-6.43-5.64-13.07-9.54-21.35-9.89-12.18-.51-27.41 2.03-33.5 9.14-6.09 7.11-16.24 26.91-16.24 34.01s1.52 13.95 1.52 13.95c0 0 .15-.09.37-.2.82-.41 2.85-1.31 4.19-.56z" fill="#381c12"/><path d="M373.97 184.11c1.52-2.25 3.02-4.17 4.39-5.61-1.6 1.61-3.06 3.51-4.39 5.61z" fill="#c48768"/><path d="M374.08 318.01c-1.56 8.91-11.35 18.08-12.69 19.29-8.37 7.61-28.93 46.18-33.5 81.2-.82 6.3-6.44 85.87-4.57 105.05 1.87 19.18 37.56-93.38 48.21-115.71 1.73-3.64 43.4-81.61 48.21-85.77 11.17-9.64 25.25-32.81 25.25-32.81.0.0 1.87-12.15 2.34-17.77.46-5.61-.47-16.37-.47-16.37.0.0 5.16 3.04 9.37-3.26 3.12-4.7 3.74-17.55 2.8-23.17-.94-5.61-6.08-3.03-6.08-3.03.0.0-.02-.04-.03-.04l-4.76 1.81s-3.12-25.56-8.37-32.99c-4.68-6.63-16.49-16.23-29.95-14.46-10.26 1.34-22.9 2.41-28.61 6.6-14.53 10.66-12.75 45.68-12.75 45.68.0.0-1.17 2.99-1.77 1.65.09.41.15.64.15.64.0.0-4.08-.06-4.91.71-2.81 2.57 1.4 21.75 3.28 24.08 2.91 3.65 8.18 1.41 8.18 1.41.0.0-.93 7.96 1.4 13.1 2.34 5.14 3.31 12.21 3.31 12.21.0.0-1.62 18.04-4.06 31.96z" fill="#c48768"/><path d="M366.45 232.62c-.51-4.75-1.89-11.8-1.91-19.28-.35 7.51 1.14 15.67 1.91 19.28z" fill="#c48768"/><path d="M470.74 624.23s-8.89 2.34-13.56 6.56c-4.69 4.2-12.17 2.33-21.53 2.33s-16.84-.46-18.25 1.41c-1.4 1.87-3.27 5.15 3.75 8.42 7.02 3.28 19.65 3.74 22.46 5.14 2.81 1.4 2.34 6.09-4.21 14.96-6.54 8.9-17.76 20.59-21.51 21.06-2.47.31-5.32 3.63-5.8 5.82-.11.52-.06.95.14 1.29.1.17.2.35.41.46 7.87-2.03 11.19-4.71 26.92-13.33 6.09-5.33 8.72-5 13.96-7.11 6.99-2.81 14.91-.51 19.95-2.57 4.2-1.72 9.93-5.64 14.12-9.81 5.62-5.61 14.5-13.11 14.5-13.11.0.0-18.32-6.12-23.83-9.91-2.33-1.6-7.51-11.61-7.51-11.61z" fill="#c48768"/><path d="M368.5 232.25s-1.78-35.02 12.75-45.68c5.71-4.19 18.35-5.26 28.61-6.6 13.46-1.77 25.27 7.83 29.95 14.46 5.24 7.44 8.37 32.99 8.37 32.99l4.76-1.81.57-.22s-1.53-5.08-1.27-10.91c.31-7.08-3.96-15.96-6.77-24.39-2.81-8.42-14.96-14.97-23.85-18.25-8.9-3.27-32.76-1.87-41.17 4.68-.63.49-1.35 1.18-2.09 1.96-1.37 1.45-2.87 3.36-4.39 5.61-3.48 5.19-6.94 12.14-8.51 19.46-.7 3.24-.92 6.54-.91 9.77.01 7.48 1.4 14.53 1.91 19.28.0.04.01.09.02.14.06.56.15.91.26 1.14.6 1.34 1.77-1.65 1.77-1.65z" fill="#3b2821"/><path d="M325.62 46.75c0 2.79-3.55 5.59-6.09 7.11.0.0-3.55-1.78-3.81-6.35-.08-1.52-.11-3.17-.11-4.98-4.35 3.16-8.82 6.89-10.02 9.8-2.11 5.15-2.11 8.89-2.11 8.89.0.0 2.58-.24 4.45-3.51 1.87-3.28 4.21-7.01 7.01-7.01s2.57 8.19.0 13.56c-2.57 5.38-8.65 13.1-13.09 18.72-4.45 5.61-7.95 5.61-11.7 8.89-3.74 3.28 24.8-7.02 24.8-7.02l1.4-21.05c1.35-3.39 5.03-7.6 6.95-9.18 1.94-1.58 3.34-7.71 3.16-12.8-.06-1.85.37-4.78.91-7.97-.62.63-1.26 1.23-1.88 1.76.11 4.65.11 9.46.11 11.16z" fill="#c48768"/><path d="M315.61 42.53c0 1.81.02 3.46.11 4.98.25 4.57 3.81 6.35 3.81 6.35 2.54-1.52 6.09-4.32 6.09-7.11.0-1.7.0-6.51-.11-11.16-.08-2.98-.2-5.89-.39-7.88-.15-1.55-.1-3.36-.09-5.14.02-4.01-.19-7.81-3.71-7.81-.15.0-.26.06-.39.07-2.96.23-4.26 2.76-4.8 6.62-.31 2.24-.39 4.89-.39 7.78.0 5.42-.11 9.68-.11 13.29z" fill="#c48768"/></g></g></g></svg>