<svg xmlns="http://www.w3.org/2000/svg" width="399.2" height="1080" viewBox="0 0 399.2 1080"><g id="Layer_2" data-name="Layer 2"><g id="tool12_102249980"><g id="tool12_102249980-2" data-name="tool12_102249980"><path d="M4.66 55.47 62.82 55.68 62.89 36.73 17.14 36.57 4.66 55.47z" fill="#fc5e2b"/><path d="M62.91 32.33l-45.75-.17h0a4.41 4.41.0 0 0-3.68 2L1 53.05a4.47 4.47.0 0 0-.2 4.51 4.41 4.41.0 0 0 3.87 2.32l58.16.21h0a4.42 4.42.0 0 0 4.4-4.39l.07-19A4.41 4.41.0 0 0 62.91 32.33zM58.44 51.26 12.82 51.1 19.5 41l39 .13z" fill="#383127"/><path d="M16.75 142.03 62.49 142.21 62.57 123.26 4.41 123.05 16.75 142.03z" fill="#fc5e2b"/><path d="M62.58 118.85l-58.15-.21h0a4.4 4.4.0 0 0-3.7 6.8l12.34 19a4.37 4.37.0 0 0 3.68 2l45.75.17h0a4.47 4.47.0 0 0 3.1-1.27 4.37 4.37.0 0 0 1.3-3.12l.07-19a4.43 4.43.0 0 0-1.27-3.12A4.37 4.37.0 0 0 62.58 118.85zm-4.47 18.94-39-.14-6.59-10.16 45.59.15z" fill="#383127"/><path d="M175.46 213.36l-17.21 37.82-.05 19.59s17.74 23.42-.2 51.78L157.94 339l49.43.17L192.68 213.42z" fill="#fc5e2b"/><path d="M192.68 209h-17.2.0a4.42 4.42.0 0 0-4 2.58l-17.21 37.82a4.53 4.53.0 0 0-.39 1.81v19.58a4.47 4.47.0 0 0 .89 2.68c.16.21 15.71 21.29-.41 46.75a4.37 4.37.0 0 0-.69 2.34L153.54 339a4.4 4.4.0 0 0 4.39 4.42l49.41.17h0a4.42 4.42.0 0 0 3.29-1.46 4.38 4.38.0 0 0 1.08-3.46L197 212.9A4.41 4.41.0 0 0 192.68 209zM162.37 334.59v-10.79c15.85-26.17 3.75-48.75.21-54.36v-17.29l15.64-34.38h10.44l13.67 116.92z" fill="#383127"/><path d="M16.75 142.03 177.93 175.46 312.85 175.95 313.04 124.16 4.41 123.05 16.75 142.03z" fill="#92e2d0"/><path d="M313.06 119.76 4.43 118.64h0a4.4 4.4.0 0 0-3.7 6.8l12.34 19a4.41 4.41.0 0 0 2.8 1.93l162.05 33.5 134.94.5h0a4.4 4.4.0 0 0 4.4-4.39l.19-51.79a4.39 4.39.0 0 0-1.27-3.11A4.34 4.34.0 0 0 313.06 119.76zm-4.59 51.77-129.65-.39-159.37-33-6.9-10.61 296.07 1.06z" fill="#383127"/><path d="M17.14 36.57 4.66 55.47 313.28 56.59 313.46 4.79 178.54 4.32 17.14 36.57z" fill="#92e2d0"/><path d="M313.48.39 177.68.0 16.28 32.25a4.39 4.39.0 0 0-2.82 1.89L1 53.05a4.47 4.47.0 0 0-.2 4.51 4.41 4.41.0 0 0 3.87 2.32L313.25 61h0a4.4 4.4.0 0 0 4.4-4.39l.19-51.8A4.39 4.39.0 0 0 313.48.39zm-4.6 51.78L12.82 51.1l7-10.58L178.52 8.72 309 9.18z" fill="#383127"/><path d="M286.14 56.49l51.18.19C370.66 52.37 394.79 31 394.79 31l-90-.33z" fill="#fff3bb"/><path d="M394.81 26.58l-89.95-.32h0a4.39 4.39.0 0 0-3.56 1.82L282.57 53.91a4.4 4.4.0 0 0 3.55 7l51.19.19h0a5.44 5.44.0 0 0 .57.0c34.3-4.42 58.8-25.86 59.83-26.76a4.41 4.41.0 0 0-2.91-7.71zM337.05 52.27l-42.31-.15 12.34-17 74.29.27C371.64 41.59 355.82 49.8 337.05 52.27z" fill="#383127"/><path d="M286.08 71 304.6 97l90 .33s-24-21.57-57.29-26.11z" fill="#fff3bb"/><path d="M337.29 66.8l-51.19-.19h0a4.37 4.37.0 0 0-3.9 2.37 4.43 4.43.0 0 0 .32 4.6l18.52 26a4.37 4.37.0 0 0 3.56 1.84l90 .35h0a4.4 4.4.0 0 0 2.95-7.68C396.48 93.12 372.13 71.51 337.29 66.8zM306.87 92.57 294.65 75.43l42 .14c18.84 2.57 34.71 10.93 44.46 17.29z" fill="#383127"/><path d="M273.04 84.01h53.05v27.15H273.04z" transform="translate(200.97 396.82) rotate(-89.81)" fill="#92e2d0"/><path d="M313.25 66.71l-27.15-.1h0a4.4 4.4.0 0 0-4.4 4.39l-.19 53a4.42 4.42.0 0 0 4.39 4.43l27.15.1h0a4.43 4.43.0 0 0 3.09-1.27 4.34 4.34.0 0 0 1.31-3.12l.19-53.05A4.41 4.41.0 0 0 313.25 66.71zm-4.59 53-18.34-.07.15-44.24 18.34.07z" fill="#383127"/><path d="M183.53 339.07 240.14 339.27 240.73 173.8 184.13 173.59 183.53 339.07z" fill="#92e2d0"/><path d="M240.74 169.4l-56.59-.21h0a4.39 4.39.0 0 0-3.09 1.28 4.3 4.3.0 0 0-1.31 3.11l-.6 165.48a4.4 4.4.0 0 0 4.38 4.42l56.61.19h0a4.41 4.41.0 0 0 4.41-4.39l.58-165.46A4.41 4.41.0 0 0 240.74 169.4zm-5 165.44-47.8-.15L188.52 178l47.78.17z" fill="#383127"/><path d="M203.38 1075.31 281.12 1075.59 286.32 4.71 208.58 4.42 203.38 1075.31z" fill="#92e2d0"/><path d="M286.34.3 208.6.0h0a4.41 4.41.0 0 0-4.4 4.38L199 1075.29a4.42 4.42.0 0 0 4.39 4.42l77.74.29h0a4.4 4.4.0 0 0 4.4-4.39L290.73 4.72A4.4 4.4.0 0 0 286.34.3zm-9.6 1070.87-68.93-.26L213 8.84l68.93.25z" fill="#383127"/><path d="M264.95 339.36 312.25 339.55 313.04 124.16 265.74 123.99 264.95 339.36z" fill="#fff3bb"/><path d="M313.06 119.76l-47.3-.17h0a4.41 4.41.0 0 0-4.4 4.38l-.79 215.36a4.42 4.42.0 0 0 4.39 4.43l47.3.19h0a4.42 4.42.0 0 0 3.1-1.28 4.34 4.34.0 0 0 1.31-3.11l.79-215.38a4.39 4.39.0 0 0-1.27-3.11A4.34 4.34.0 0 0 313.06 119.76zm-5.19 215.36L269.38 335l.75-206.55 38.49.14z" fill="#383127"/><path d="M100.07 207.82h215.38v47.3H100.07z" transform="translate(-24.5 438.35) rotate(-89.78)" fill="#fff3bb"/><path d="M231.81 119.47l-47.3-.18h0a4.39 4.39.0 0 0-3.09 1.28 4.3 4.3.0 0 0-1.31 3.11l-.77 215.38a4.41 4.41.0 0 0 4.38 4.42l47.3.17h0a4.42 4.42.0 0 0 3.1-1.27 4.36 4.36.0 0 0 1.31-3.11l.77-215.38A4.4 4.4.0 0 0 231.81 119.47zm-5.18 215.36-38.49-.14.74-206.57 38.49.14z" fill="#383127"/></g></g></g></svg>