<svg xmlns="http://www.w3.org/2000/svg" width="1046.38" height="1080" viewBox="0 0 1046.38 1080"><g id="Layer_2" data-name="Layer 2"><g id="tool_painting13_57812009"><g id="tool_painting13_57812009-2" data-name="tool_painting13_57812009"><path d="M583.57 958.07a26.13 26.13.0 0 1-26.13-26.14V594L26.93 425.54A26.14 26.14.0 0 1 8.72 401.48L0 131.48a26.14 26.14.0 0 1 27.12-26.95l226.47 8.71a26.13 26.13.0 1 1-2 52.22L53.15 157.82l7.2 223.51L591.47 549.92a26.14 26.14.0 0 1 18.23 24.91v357.1A26.13 26.13.0 0 1 583.57 958.07z" fill="#36d2de"/><path d="M654.12 1027.74A52.26 52.26.0 0 1 601.85 1080H574a52.26 52.26.0 0 1-52.26-52.26V679.36A52.26 52.26.0 0 1 574 627.1h27.86a52.25 52.25.0 0 1 52.27 52.26z" fill="#ca3105"/><path d="M148.09.0h879.68v304.84H148.09z" fill="#fdc000"/><path d="M587.93 1044.47a15.23 15.23.0 0 1-15.23 15.24h0a15.25 15.25.0 0 1-15.26-15.24V664.11a15.25 15.25.0 0 1 15.26-15.24h0a15.24 15.24.0 0 1 15.23 15.24z" fill="#db3e0b"/><path d="M1046.38 200.63a9.3 9.3.0 0 1-9.31 9.3h0a9.3 9.3.0 0 1-9.3-9.3V104.21a9.3 9.3.0 0 1 9.3-9.3h0a9.3 9.3.0 0 1 9.31 9.3z" fill="#db3e0b"/></g></g></g></svg>