<svg xmlns="http://www.w3.org/2000/svg" width="546.02" height="1080" viewBox="0 0 546.02 1080"><g id="Layer_2" data-name="Layer 2"><g id="instrument01_111677146"><g id="instrument01_111677146-2" data-name="instrument01_111677146"><path d="M273 99.2c12.11.0 21.91-22.85 21.91-35s-9.8-18.5-21.91-18.5-21.86 6.43-21.86 18.5S260.92 99.2 273 99.2z" fill="none"/><path d="M366.17 579.74q-5.16-6.07-9.92-11.41h0C359.41 571.88 362.73 575.68 366.17 579.74z" fill="#ebebeb"/><path d="M189.73 568.37q-4.72 5.29-9.86 11.34c3.42-4 6.72-7.8 9.86-11.34z" fill="#ebebeb"/><path d="M366.18 579.75a18.35 18.35.0 0 1-10.63 9.08 264.23 264.23.0 0 1-165.08.0 18.35 18.35.0 0 1-10.63-9.08C113.7 657.64.0 828.15.0 1080H546C546 828.15 432.32 657.64 366.18 579.75z" fill="#ebebeb"/><path d="M190.47 588.83a264.23 264.23.0 0 0 165.08.0 18.35 18.35.0 0 0 10.63-9.08h0c-3.44-4.06-6.76-7.86-9.92-11.41a31.32 31.32.0 0 1-3.55 1.52c-53.83 19.1-107 19.25-159.57.0a31.48 31.48.0 0 1-3.4-1.49c-3.14 3.54-6.44 7.31-9.86 11.34v0h0A18.35 18.35.0 0 0 190.47 588.83z" fill="#a3a3a3"/><path d="M199.97 498.22 197.26 502.35 199.99 498.22H199.97z" fill="#c0ce26"/><path d="M193.13 569.86c52.54 19.24 105.74 19.09 159.57.0a31.32 31.32.0 0 0 3.55-1.52h0c14.52-7.18 20.78-24 11.32-37.34l-2.21-3.14c6.4 13.21-1 29.31-16.26 33.39-51.38 13.67-102.19 13.88-152.39.0-15.66-4.34-23-21.32-15.26-34.8L178 531.75c-8.77 13.38-2.41 29.53 11.77 36.62h0A31.48 31.48.0 0 0 193.13 569.86z" fill="#c0ce26"/><path d="M196.71 561.24c50.2 13.88 101 13.67 152.39.0 15.29-4.08 22.66-20.18 16.26-33.39a24.57 24.57.0 0 0-2-3.51L337.2 487.58a20.39 20.39.0 0 1-3.64-14.52q32.08-242.56 12.08-409.5C341.35 27.85 310 .2 272.59.0h-1.33c-37.41.2-68.77 27.85-73 63.56q-20 167.07 12.14 409.91a20.33 20.33.0 0 1-3.2 13.91L2e2 498.22l-2.73 4.13-15 22.74c-.3.44-.52.9-.78 1.35C173.74 539.92 181.05 556.9 196.71 561.24zM273 42.34c15.14.0 25.31 8.8 25.31 21.9.0 13.48-10.44 38.36-25.31 38.36s-25.26-24.88-25.26-38.36C247.73 51.14 257.88 42.34 273 42.34zm-46.17 88.35c9.54 39.95 26.33 66.5 45.47 66.5s35.93-26.55 45.46-66.5c8.73 24.85 14 56.93 14 92 0 78.85-26.62 142.77-59.46 142.77s-59.46-63.92-59.46-142.77C212.83 187.62 218.09 155.54 226.82 130.69z" fill="#373837"/><path d="M273 102.6c14.87.0 25.31-24.88 25.31-38.36.0-13.1-10.17-21.9-25.31-21.9s-25.26 8.8-25.26 21.9C247.73 77.72 258.15 102.6 273 102.6zm0-56.86c12.11.0 21.91 6.43 21.91 18.5s-9.8 35-21.91 35-21.86-22.85-21.86-35S260.92 45.74 273 45.74z" fill="#c0ce26"/><path d="M272.29 365.44c32.84.0 59.46-63.92 59.46-142.77.0-35-5.27-67.13-14-92-9.53 39.95-26.32 66.5-45.46 66.5s-35.93-26.55-45.47-66.5c-8.73 24.85-14 56.93-14 92C212.83 301.52 239.45 365.44 272.29 365.44z" fill="#434645"/></g></g></g></svg>