<svg xmlns="http://www.w3.org/2000/svg" width="383.42" height="1080" viewBox="0 0 383.42 1080"><g id="a"/><g id="b"><g id="c"><g id="d"><path d="M141.42 352.58h92.54v126H141.42z" fill="#c1d0d3"/><path d="M237.87 855.57c0 203.55-26.55 218.45-50.08 218.45s-50.08-14.9-50.08-218.45 26.55-518.66 50.08-518.66 50.08 315.12 50.08 518.66z" fill="#cc5e18"/><path d="M187.79 1080c-18.54.0-37.1-8.53-47.29-70.37-.54-3.26 1.67-6.34 4.93-6.88 3.27-.53 6.34 1.67 6.88 4.93 9.95 60.35 26.56 60.35 35.48 60.35 14.31.0 44.09.0 44.09-212.46.0-88.84-5.69-224.26-13.53-321.98-.27-3.29 2.19-6.18 5.49-6.44 3.28-.28 6.18 2.19 6.44 5.49 7.86 98 13.57 233.82 13.57 322.94s-5.4 153.58-16.52 187.42c-10.71 32.61-26 37.01-39.55 37.01z" fill="#3c2b2a"/><path d="M0 452.23H375.59v-163.89c0-59.04-24.18-116.43-68.81-163.32L187.79.0 66.6 130.27C23.36 176.74.0 233.21.0 291.24v160.99z" fill="#c1d0d3"/><path d="M377.44 294.71c-3.3.0-5.98-2.68-5.98-5.98.0-57.16-23.85-113.69-67.16-159.19L210.82 31.31c-2.28-2.39-2.19-6.18.21-8.46 2.4-2.28 6.18-2.18 8.46.21l93.48 98.22c45.44 47.74 70.46 107.21 70.46 167.45.0 3.3-2.68 5.98-5.98 5.98z" fill="#3c2b2a"/><ellipse cx="187.79" cy="963.86" rx="15.85" ry="40.78" fill="#fcfcfc"/><path d="M151.18 447h73.14v86.11H151.18z" fill="#c1d0d3"/><path d="M233.96 484.56h-92.54c-3.3.0-5.98-2.68-5.98-5.98v-169.16c0-28.81 23.44-52.25 52.26-52.25s52.25 23.44 52.25 52.25v169.16c0 3.3-2.68 5.98-5.98 5.98zm-86.56-11.97h80.57v-163.18c0-22.21-18.07-40.29-40.29-40.29s-40.29 18.07-40.29 40.29v163.18z" fill="#3c2b2a"/><path d="M19.49 433.7h-.04c-3.3-.02-5.97-2.72-5.95-6.02l.7-112.79c-4.86-63.33 16.88-112.91 35.99-143.36 20.73-33.04 42.43-50.91 43.34-51.66 2.56-2.09 6.33-1.7 8.42.86 2.09 2.56 1.71 6.33-.85 8.42h0c-.21.17-21.33 17.63-41.01 49.13-18.06 28.89-38.6 75.93-33.94 135.94.01.17.02.33.02.5l-.7 113.04c-.02 3.29-2.7 5.95-5.98 5.95z" fill="#fcfcfc"/><path d="M224.32 539.09h-73.14c-3.3.0-5.98-2.68-5.98-5.98s2.68-5.98 5.98-5.98h73.14c3.3.0 5.98 2.68 5.98 5.98s-2.68 5.98-5.98 5.98z" fill="#3c2b2a"/><path d="M224.57 569.04h-73.56c-3.3.0-5.98-2.68-5.98-5.98s2.68-5.98 5.98-5.98h73.56c3.3.0 5.98 2.68 5.98 5.98s-2.68 5.98-5.98 5.98z" fill="#3c2b2a"/><path d="M217.92 919.14c-.08.0-.15.0-.23.0-3.3-.12-5.88-2.9-5.76-6.2l8.76-234.06c.12-3.3 2.86-5.88 6.2-5.76 3.3.12 5.88 2.9 5.76 6.2l-8.76 234.06c-.12 3.23-2.77 5.76-5.98 5.76z" fill="#fcfcfc"/></g></g></g></svg>