<svg xmlns="http://www.w3.org/2000/svg" width="659.64" height="1080" viewBox="0 0 659.64 1080"><g id="Layer_2" data-name="Layer 2"><g id="tools18_116345654"><g id="tools18_116345654-2" data-name="tools18_116345654"><path d="M234.14 270.64H351.81l14.38 762.73A45.76 45.76.0 0 1 320.44 1080H265.53a45.74 45.74.0 0 1-45.75-46.63z" fill="#e5c99d" fill-rule="evenodd"/><path d="M293 270.64h58.83l14.38 762.73A45.76 45.76.0 0 1 320.44 1080H293z" fill="#e2b484" fill-rule="evenodd"/><path d="M158.18 14.82V129.26a14.74 14.74.0 0 0 14.7 14.7H413.1a14.73 14.73.0 0 0 14.69-14.69V.13H172.87A14.74 14.74.0 0 0 158.18 14.82z" fill="#666" fill-rule="evenodd"/><path d="M293 144H413.1a14.73 14.73.0 0 0 14.69-14.69V.13H293z" fill="#535353" fill-rule="evenodd"/><path d="M78.46 14.82V129.26A14.75 14.75.0 0 1 63.75 144H0V.13H63.77A14.73 14.73.0 0 1 78.46 14.82z" fill="#666" fill-rule="evenodd"/><path d="M78.46 14.84h79.72v114.42H78.46z" fill="#4d4d4d"/><path d="M427.79.13C533.8-3 639.2 51.89 659.64 153.47L634 169.17c-47.16-45.72-138-54.67-206.24-52.47z" fill="#535353" fill-rule="evenodd"/><path d="M234.14 270.64 189.05 143.96H396.92L351.81 270.64H234.14z" fill="#4d4d4d" fill-rule="evenodd"/><path d="M292.98 143.96V270.64H351.81L396.92 143.96H292.98z" fill="#333" fill-rule="evenodd"/></g></g></g></svg>