<svg xmlns="http://www.w3.org/2000/svg" width="758.73" height="1080" viewBox="0 0 758.73 1080"><g id="Layer_2" data-name="Layer 2"><g id="tools16_116345654"><g id="tools16_116345654-2" data-name="tools16_116345654"><path d="M0 632.16h758.73v165.78H0z" fill="#989898"/><path d="M379.36 632.16h379.37v165.78H379.36z" fill="#7c7c7c"/><path d="M64.29 667.08h630.16v17.35H64.29z" fill="#cbcbcb"/><path d="M741.53 797.94H17.2V1080H101.74l36.39-85L167.68 1080H542.22L589.89 935.51 640.09 1080H741.53V797.94z" fill="#abbc2a" fill-rule="evenodd"/><path d="M741.53 797.94H379.36V1080H542.22L589.89 935.51 640.09 1080H741.53V797.94z" fill="#8b9822" fill-rule="evenodd"/><path d="M64.29 742.02h630.16v17.35H64.29z" fill="#cbcbcb"/><path d="M379.37 632.16H187.73c133.88-36 173-231.72 133.1-349.35C271.65 138 271.61 39 379.37.0c107.76 39 107.71 138 58.55 282.81-40 117.63-.8 313.38 133.08 349.35z" fill="#e5c99d" fill-rule="evenodd"/><path d="M379.36.0c107.77 39 107.72 138 58.56 282.81-40 117.64-.8 313.38 133.08 349.35H379.36z" fill="#e2b484" fill-rule="evenodd"/><path d="M379.37 667.08h315.07v17.35H379.37z" fill="#a0a0a0"/><path d="M379.37 742.02h315.07v17.35H379.37z" fill="#a0a0a0"/></g></g></g></svg>