<svg xmlns="http://www.w3.org/2000/svg" width="1080" height="857.91" viewBox="0 0 1080 857.91"><g id="Layer_2" data-name="Layer 2"><g id="instruments18_216093240"><g id="instruments18_216093240-2" data-name="instruments18_216093240"><path d="M540 11.06H12.36l33 295.8h989.36l33-295.8zM156.44 18.93l126-.77 252.06-.65 252.06.64 126 .77 126 1.35-126 1.36-126 .77L534.53 23l-252.06-.65-126-.78-126-1.34zm186 199.12 172.15-38.67L687 142l86.31-18.26L859.76 106l-85.85 20.35-86 19.77L515.77 184.77 343.34 222.19c-57.52 12.24-115.07 24.4-172.74 36C227.78 244.36 285.1 231.16 342.43 218.05zm-101.61-8.73c37.95-9.54 76-18.5 114.12-27.36L469.37 156l114.71-24.67 57.45-11.9c19.2-3.77 38.35-7.72 57.58-11.32-19 4.83-38 9.31-57 14L585 135.51 470.56 161.42 355.85 186.09C317.56 194.09 279.26 202 240.82 209.32zM51.15 300.87S626.62 276.45 939.93 132.7c99.82-45.8 121.18-116.11 121.18-116.11L1026.9 300.87z" fill="#f0f0f0"/><path d="M540 323.45H26L57.14 434c69.88-1.61 139.71-1.85 209.54-2.22l104.72.05 26.18.12A83.83 83.83.0 0 1 482 502.07a88.52 88.52.0 0 1 1.14 15.08 139.94 139.94.0 0 1-1.21 14.22l-6.14 52-12.28 104a457.42 457.42.0 0 0-4 50.75c-.17 8.84-.19 16.05 1.26 23.43a79.45 79.45.0 0 0 7 21.2 80.59 80.59.0 0 0 151.53-21.2c1.45-7.38 1.43-14.59 1.26-23.43a448.07 448.07.0 0 0-4-50.75l-12.27-104-6.14-52a139.8 139.8.0 0 1-1.23-14.23A89.67 89.67.0 0 1 598 502.06 83.67 83.67.0 0 1 682.42 432l26.18-.14h104.72c69.83.37 139.66.63 209.54 2.25L1054 323.45zm160.46 12.94a12.87 12.87.0 1 1-12.86 12.86A12.87 12.87.0 0 1 700.46 336.39zm-320.92.0a12.87 12.87.0 1 1-12.88 12.86A12.87 12.87.0 0 1 379.54 336.39zM45.74 349.25a12.87 12.87.0 1 1 12.87 12.88A12.87 12.87.0 0 1 45.74 349.25zM540 792.7h0a48.36 48.36.0 0 1-48.36-48.35h0a216.93 216.93.0 0 1 2-29.26l7.16-52.74a39.29 39.29.0 0 1 3.56-11.76 62 62 0 0 0-9.29 14.26c-2-11.28 2.33-23.88 10.88-32.9a47.18 47.18.0 0 1 68.15.0c8.56 9 12.87 21.64 10.87 32.92a61.86 61.86.0 0 0-9.26-14.2 39.23 39.23.0 0 1 3.52 11.7l7.17 52.74a216.86 216.86.0 0 1 2 29.27A48.36 48.36.0 0 1 540 792.7zm35-293.25v47H505v-47c0-40.54-35-65.42-35-65.42H610S575 458.91 575 499.45zm317.14-84.13-117.39 1.15c-78.25.68-156.51.62-234.77 1-78.26-.33-156.51-.3-234.77-1l-117.39-1.15c-39.13-.7-78.26-1.09-117.39-2 39.13-.94 78.26-1.34 117.39-2l117.39-1.16c78.26-.66 156.51-.63 234.77-1 78.26.35 156.52.29 234.77 1l117.39 1.15c39.13.69 78.26 1.09 117.39 2C970.42 414.23 931.29 414.63 892.16 415.32zm6.63-25.81-119.6 1.16c-79.73.68-159.46.62-239.19 1-79.73-.32-159.46-.29-239.19-.95l-119.6-1.15c-39.86-.7-79.73-1.1-119.59-2 39.86-.94 79.73-1.34 119.59-2l119.6-1.16c79.73-.66 159.46-.63 239.19-.95 79.73.34 159.46.28 239.19 1l119.6 1.15c39.86.68 79.73 1.09 119.59 2C978.52 388.43 938.65 388.83 898.79 389.51zm122.6-27.38a12.87 12.87.0 1 1 12.87-12.88A12.87 12.87.0 0 1 1021.39 362.13z" fill="#fdb73b"/><path d="M579.21 662.34a39.23 39.23.0 0 0-3.52-11.7 61.86 61.86.0 0 1 9.26 14.2c2-11.28-2.31-23.89-10.87-32.92a47.18 47.18.0 0 0-68.15.0c-8.55 9-12.86 21.62-10.88 32.9a62 62 0 0 1 9.29-14.26 39.29 39.29.0 0 0-3.56 11.76l-7.16 52.74a216.93 216.93.0 0 0-2 29.26h0A48.36 48.36.0 0 0 540 792.7h0a48.36 48.36.0 0 0 48.36-48.35 216.86 216.86.0 0 0-2-29.27zM540 776.12h0a31.82 31.82.0 0 1-31.78-31.77 202 202 0 0 1 1.83-27l7.17-52.74a23 23 0 0 1 45.56.0L570 717.31a202 202 0 0 1 1.83 27A31.81 31.81.0 0 1 540 776.12z" fill="#161616"/><path d="M540 0H0L34.19 306.86H26a16.59 16.59.0 0 0-16 21.08l31.1 110.58a16.59 16.59.0 0 0 16 12.09H376.62l20.74.84a64.16 64.16.0 0 1 22.38 4.12c1.73.64 3.42 1.37 5.07 2.16l.53.28c.75.38 1.47.8 2.21 1.2a60.39 60.39.0 0 1 28.85 60l-23 169.05a440.88 440.88.0 0 0-4 59.11 110.58 110.58.0 0 0 221.16.0 440.88 440.88.0 0 0-4-59.11l-23-169.05a60.19 60.19.0 0 1 28.49-59.72 59.32 59.32.0 0 1 8.18-3.86 64.37 64.37.0 0 1 22.37-4.11l21.81-.88h318.41a16.58 16.58.0 0 0 16-12.09l31.1-110.58a16.58 16.58.0 0 0-16-21.08h-8.15L1080 0zm68.28 813.27c18.28-17.54 29.33-42.44 30.42-68.28a96.88 96.88.0 0 1-6.27 38.28 100.3 100.3.0 0 1-21.14 33C593 835.37 566.56 846.33 540 846.44c-26.55-.12-53-11.06-71.28-30.17a100.42 100.42.0 0 1-21.14-33A96.7 96.7.0 0 1 441.31 745c1.07 25.84 12.13 50.74 30.4 68.29s43.08 27.93 68.29 27.64C565.2 841.2 590.14 830.91 608.28 813.27zm205-381.49H708.56l-26.18.14A83.86 83.86.0 0 0 598 502.06a89.67 89.67.0 0 0-1.14 15.09 139.8 139.8.0 0 0 1.23 14.23l6.14 52 12.27 104a448.07 448.07.0 0 1 4 50.75c.17 8.84.19 16.05-1.26 23.43a80.59 80.59.0 0 1-158.55.0c-1.45-7.38-1.43-14.59-1.26-23.43a457.42 457.42.0 0 1 4-50.75l12.28-104 6.14-52a139.94 139.94.0 0 0 1.21-14.22A88.52 88.52.0 0 0 482 502.07 83.66 83.66.0 0 0 397.58 432l-26.18-.12-104.72-.05c-69.83.37-139.66.61-209.54 2.22L26 323.45H1054L1022.86 434C953 432.41 883.15 432.15 813.32 431.78zM540 306.86H45.32l-33-295.8H1067.64l-33 295.8z" fill="#161616"/><path d="M471.71 813.28c-18.27-17.55-29.33-42.45-30.4-68.29a96.7 96.7.0 0 0 6.27 38.28 100.42 100.42.0 0 0 21.14 33C487 835.38 513.45 846.32 540 846.44c26.56-.11 53-11.07 71.29-30.16a100.3 100.3.0 0 0 21.14-33A96.88 96.88.0 0 0 638.7 745c-1.09 25.84-12.14 50.74-30.42 68.28S565.2 841.2 540 840.92C514.79 841.21 489.86 830.9 471.71 813.28z" fill="#fcfcfc"/><path d="M71.48 349.25a12.87 12.87.0 1 0-12.87 12.88A12.87 12.87.0 0 0 71.48 349.25z" fill="#161616"/><path d="M379.54 362.13a12.87 12.87.0 1 0-12.88-12.88A12.88 12.88.0 0 0 379.54 362.13z" fill="#161616"/><path d="M700.46 362.13a12.87 12.87.0 1 0-12.86-12.88A12.88 12.88.0 0 0 700.46 362.13z" fill="#161616"/><path d="M1021.39 336.39a12.87 12.87.0 1 0 12.87 12.86A12.86 12.86.0 0 0 1021.39 336.39z" fill="#161616"/><path d="M774.77 410.12c-78.25-.68-156.51-.62-234.77-1-78.26.32-156.51.29-234.77 1l-117.39 1.16c-39.13.69-78.26 1.09-117.39 2 39.13.95 78.26 1.34 117.39 2l117.39 1.15c78.26.66 156.51.63 234.77 1 78.26-.35 156.52-.29 234.77-1l117.39-1.15c39.13-.69 78.26-1.09 117.39-2-39.13-.93-78.26-1.33-117.39-2z" fill="#161616"/><path d="M779.19 384.32c-79.73-.69-159.46-.63-239.19-1-79.73.32-159.46.29-239.19.95l-119.6 1.16c-39.86.69-79.73 1.09-119.59 2 39.86.94 79.73 1.34 119.59 2l119.6 1.15c79.73.66 159.46.63 239.19.95 79.73-.34 159.46-.28 239.19-1l119.6-1.16c39.86-.68 79.73-1.08 119.59-2-39.86-.93-79.73-1.34-119.59-2z" fill="#161616"/><path d="M470 434s35 24.88 35 65.42v47h70v-47c0-40.54 35-65.42 35-65.42H470zm88.47 95.84H521.57V499.45c0-19.63-6.59-36.1-14.56-48.84h66c-8 12.74-14.56 29.21-14.56 48.84z" fill="#161616"/><path d="M939.93 132.7C626.62 276.45 51.15 300.87 51.15 300.87H1026.9l34.21-284.28S1039.75 86.9 939.93 132.7z" fill="#161616"/><path d="M282.47 22.39 534.53 23.04 786.59 22.4 912.61 21.63 1038.64 20.27 912.61 18.92 786.59 18.15 534.53 17.51 282.47 18.16 156.44 18.93 30.41 20.27 156.44 21.61 282.47 22.39z" fill="#161616"/><path d="M343.34 222.19l172.43-37.42 172.16-38.65 86-19.77L859.76 106l-86.44 17.7L687 142 514.58 179.38 342.43 218.05c-57.33 13.11-114.65 26.31-171.83 40.1C228.27 246.59 285.82 234.43 343.34 222.19z" fill="#161616"/><path d="M470.56 161.42 585 135.51l57.12-13.4c19-4.66 38-9.14 57-14-19.23 3.6-38.38 7.55-57.58 11.32l-57.45 11.9L469.37 156 354.94 182c-38.09 8.86-76.17 17.82-114.12 27.36 38.44-7.32 76.74-15.23 115-23.23z" fill="#161616"/></g></g></g></svg>