<svg xmlns="http://www.w3.org/2000/svg" width="628.07" height="1080" viewBox="0 0 628.07 1080"><g id="Layer_2" data-name="Layer 2"><g id="tools22_116345654"><g id="tools22_116345654-2" data-name="tools22_116345654"><path d="M0 0h220.53v1080H0z" fill="#cbcbcb"/><path d="M220.53 41.44V0H75.15L0 130.16V423.42L220.53 41.44z" fill="#e5e5e5" fill-rule="evenodd"/><path d="M220.53 761.61V468.35L0 850.33V1080H36.71L220.53 761.61z" fill="#e5e5e5" fill-rule="evenodd"/><path d="M220.53 1080V876.67L103.14 1080H220.53z" fill="#e5e5e5" fill-rule="evenodd"/><path d="M220.53 1080V0H259a38.61 38.61.0 0 1 38.5 38.5v1003A38.61 38.61.0 0 1 259 1080z" fill="#4d4d4d" fill-rule="evenodd"/><path d="M297.53 540V687.06c19.08-102.74 122.84-132.79 185.2-102.13 193.78 95.28 193.78-185.13.0-89.86-62.36 30.67-166.12.61-185.2-102.13V540zm267-24.17A24.17 24.17.0 1 1 540.36 540 24.17 24.17.0 0 1 564.53 515.83z" fill="#4d4d4d" fill-rule="evenodd"/><path d="M628.07 540c0-46.28-48.45-92.57-145.34-44.93-62.36 30.67-166.12.61-185.2-102.13V540H540.36a24.17 24.17.0 0 1 48.34.0z" fill="#666" fill-rule="evenodd"/></g></g></g></svg>