<svg xmlns="http://www.w3.org/2000/svg" width="833" height="1080" viewBox="0 0 833 1080"><g id="a"/><g id="b"><g id="c"><g id="d"><path d="M71.76 483.95s70.66 456.55 74.28 480.1c3.62 23.55 45.29 115.95 264.51 115.95s248.2-92.4 251.83-103.27c3.62-10.87 94.21-494.59 94.21-494.59l-684.82 1.81z" fill="#fdef22"/><path d="M800.06 425.98c0 69.04-173.17 125.01-386.8 125.01S26.46 495.02 26.46 425.98s170-121.84 383.63-121.84 389.97 52.8 389.97 121.84z" fill="#fff958"/><path d="M760.2 412.13c0 50.67-155.74 91.75-347.84 91.75s-347.84-41.08-347.84-91.75 152.88-89.42 344.99-89.42 350.7 38.75 350.7 89.42z" fill="#d3b600" opacity=".5"/><path d="M309.99 522c81.91.9 150.4 1.09 231.9-7.25-69.73 15.49-167.46 15.47-231.9 7.25z" fill="#fcfcfc"/><path d="M256.1 325.43c36.17-6.43 73.63-10.02 110.92-11.83 7.3-.44 31.31-1.07 37.21-1.06 24.82-.32 49.66.65 74.41 2.53 24.76 1.86 49.38 5.5 73.67 10.36-12.37-1.09-24.58-3-36.95-3.65-72.39-5.34-148.44-5.88-259.26 3.65z" fill="#fcfcfc"/><path d="M26.46 425.98S51.77 32.8 409.59 32.8s390.47 393.18 390.47 393.18c0 0 5.33 31.4-43.48 56.16l-7.06 24.76s83.49-32.8 83.49-71.56S785.3.0 412.57.0-7.86 411.49 1.08 444.29c8.95 32.8 77.53 62.62 77.53 62.62l-6.85-22.95s-40.78-46.46-45.29-57.97z" fill="#282828"/><path d="M18.97 393.6c3.95-43.87 17.67-98.84 40.07-149.61 44.87-100.7 118.97-174.33 220.62-207.72 24.02-7.75 35.93-10.19 56.82-14.23 2.26-.45 17.02-2.7 19.31-2.96 52-6.65 104.96-5.54 155.42 5.36 136.08 28.75 223.57 129.3 267.71 258.85 16.09 47.51 27.78 103.62 30.23 152.05-1.62-23.67-6.59-53.6-11.67-76.64-27.96-127.76-95.21-249.85-214.52-304.53-69.77-32.41-150.72-38.9-226.44-29.48-6.71.72-27.64 4.12-37.98 6.6-25.06 5.29-49.39 13.54-73.11 23.98C159.65 94.23 100.09 161.6 61.68 245.18c-23.81 51.55-38.45 108.72-42.7 148.42z" fill="#1e1e1e"/></g></g></g></svg>