<svg xmlns="http://www.w3.org/2000/svg" width="366.77" height="1080" viewBox="0 0 366.77 1080"><g id="Layer_2" data-name="Layer 2"><g id="tools13_116345654"><g id="tools13_116345654-2" data-name="tools13_116345654"><path d="M91.68 322.81H167.38L148.98 500.55 91.68 428.51V322.81z" fill="#b2b2b2" fill-rule="evenodd"/><path d="M277.36 322.81H201.67L210.23 428.51H277.36V322.81z" fill="#989898" fill-rule="evenodd"/><path d="M184.51.0H207.4l70 193.25v95.27H184.51V172.21c13.67.0 24.76-18.72 24.76-41.82s-11.09-41.8-24.76-41.8z" fill="#989898" fill-rule="evenodd"/><path d="M184.51.0H161.65l-70 193.25v95.27h92.83V172.21c-13.64.0-24.73-18.72-24.73-41.82s11.09-41.8 24.73-41.8z" fill="#b2b2b2" fill-rule="evenodd"/><path d="M170.05 164.3v71.26h14.46V172.21C179.12 172.21 174.12 169.27 170.05 164.3z" fill="gray" fill-rule="evenodd"/><path d="M199 164.3v71.26H184.51V172.21C189.92 172.21 194.92 169.27 199 164.3z" fill="#b2b2b2" fill-rule="evenodd"/><path d="M184.51 226.22a79.44 79.44.0 1 1-79.43 79.43A79.44 79.44.0 0 1 184.51 226.22z" fill="#b2b2b2" fill-rule="evenodd"/><path d="M169.74 424.06l-7.91 76.49c-106 98.27-50 443-37.48 579.45l-53.11-2a54 54 0 0 1-51.78-47.31C-6.66 828-14.26 680.22 46.72 475.12A47.41 47.41.0 0 0 35.81 428.3L21.42 412.71A28 28 0 0 1 16 382.27v-.06z" fill="#526ad7" fill-rule="evenodd"/><path d="M197 424.06l7.92 76.49c106 98.27 50 443 37.46 579.45l53.11-2a53.92 53.92.0 0 0 51.78-47.31C373.43 828 381 680.22 320.05 475.12a47.4 47.4.0 0 1 10.89-46.82l14.41-15.59a28 28 0 0 0 5.36-30.44v-.06z" fill="#4356ae" fill-rule="evenodd"/><path d="M184.51 271.41a34.26 34.26.0 1 1-34.25 34.24A34.24 34.24.0 0 1 184.51 271.41z" fill="#989898" fill-rule="evenodd"/></g></g></g></svg>