<svg xmlns="http://www.w3.org/2000/svg" width="1080" height="1005.67" viewBox="0 0 1080 1005.67"><g id="Layer_2" data-name="Layer 2"><g id="tools17_120492286"><g id="tools17_120492286-2" data-name="tools17_120492286"><path d="M309.29 334.84 651.05 676.62 701.01 626.66 750.93 576.74 409.19 234.93 359.23 284.89 309.29 334.84z" fill="#00e500"/><path d="M676.05 701.6 980.08 1005.66 1030.04 955.75 1080 905.79 775.93 601.73 725.95 651.64 676.05 701.6z" fill="#00e500"/><path d="M190 127.19c-14.56 16.18-30.34 33.79-40.3 53.07-9.22 14.09-10.78 45.32-28.84 65.49C103.56 265 74.84 270.46 61 280.17c-1.52 1-2.26 1.51-2.87 2C58 282.11.0 340 0 340l78.43 78.38L138 358.59l2.18-2.74c.67-.84 1.27-1.92 1.93-2.87 9.51-13.7 13.17-41.56 30.43-60.85 12.67-14.12 30.75-21.43 44.52-28.64l68.34 50.29 99.9-99.88-55.84-72.56C351 90.06 434 23.66 505.14 9.07c-2.64-.86-5.43-1.44-8.13-2.22C406-18 281.36 25.21 190 127.19z" fill="#00e500"/></g></g></g></svg>