<svg xmlns="http://www.w3.org/2000/svg" width="162.24" height="1080" viewBox="0 0 162.24 1080"><g id="Layer_2" data-name="Layer 2"><g id="tools06_120492286"><g id="tools06_120492286-2" data-name="tools06_120492286"><path d="M135.47.06 26.74.0.0.06V28.44 56.81v966.38 28.43V1080H162.21v-28.38-28.37-966.38-28.43V.06zM26.74 499.65H37.49v21.7c0-.07.0 9.23.0 9.23s0 24.37.0 24.37.0 9.29.0 9.29.0 16.17.0 16.17H26.74zm39.55 27.77V499.65h9.54a2.87 2.87.0 0 1 2.92 2.92v74.92a2.86 2.86.0 0 1-2.89 2.92H66.32zm69.24 495.77H26.74V607.51H75.83a30 30 0 0 0 30-30V502.57a30.07 30.07.0 0 0-30-30.08H26.74V56.81l108.79.06z" fill="#00e500"/><path d="M29.41 852.69A50.19 50.19.0 1 0 79.63 802.5 50.21 50.21.0 0 0 29.41 852.69zm36.06-44.24L70 807.3l2 8.32-4.49 1.09zm5 53.11v15.92H54.84V827.89H70.39zM45.21 821.45l3.34-3.22 5.89 6.14-3.37 3.22zm-9.72 16.89 8.14 2.44-1.28 4.49-8.17-2.43zm-1.31 24 8.35-2 1.07 4.44-8.26 2zm11 21.39 6.16-5.9 3.2 3.4-6.17 5.84zm24.61 14.4-4.53-1.34 2.46-8.14L72.13 890zm24-1.16-4.53 1.1-2-8.33 4.52-1zm-5-30.38V827.89h15.55v49.59H88.77zM114 884l-3.37 3.22-5.83-6.2 3.37-3.22zm9.72-17-8.14-2.43 1.28-4.44c.06.0 8.17 2.43 8.17 2.43zM125 843l-8.29 2-1.1-4.5 8.33-1.94zM114.11 821.7l-6.19 5.83-3.22-3.34 6.16-5.9zM93.94 808.57l-2.43 8.21-4.43-1.34 2.39-8.14z" fill="#00e500"/><path d="M29.44 227.5a50.18 50.18.0 1 0 50.19-50.19A50.16 50.16.0 0 0 29.44 227.5zm36-44.24 4.5-1.15 2 8.32-4.52 1.09zm4.92 19.44h34v49.59H54.84V202.76zm-25.18-6.5L48.58 193l5.83 6.14L51 202.4zm-9.72 17 8.14 2.44L42.35 220l-8.14-2.37zm-1.28 24 8.32-2 1.1 4.5-8.29 2zm10.88 21.39 6.2-5.9 3.22 3.4-6.17 5.84zM69.76 273l-4.5-1.34 2.43-8.14 4.47 1.33zm24-1.16-4.53 1.09-2-8.26 4.52-1.09zm20.2-13L110.62 262l-5.83-6.2 3.34-3.22zm9.75-16.89-8.14-2.44 1.25-4.49 8.2 2.37zm1.28-24-8.33 1.94-1.09-4.5 8.3-2zm-10.91-21.45-6.16 5.89L104.7 199l6.16-5.9zM93.94 183.38l-2.43 8.14-4.43-1.27 2.43-8.14z" fill="#00e500"/><path d="M88.77 252.29V202.7H70.39v49.59z" fill="#00e500"/><path d="M56.72 369.26a22.9 22.9.0 1 0 22.91-22.91A22.88 22.88.0 0 0 56.72 369.26z" fill="#00e500"/><path d="M56.72 759.48H79.63L79.6 709.83H56.72V759.48z" fill="#00e500"/></g></g></g></svg>