<svg xmlns="http://www.w3.org/2000/svg" width="984.44" height="1080" viewBox="0 0 984.44 1080"><g id="Layer_2" data-name="Layer 2"><g id="Icon_game05_246202606"><g id="Icon_game05_246202606-2" data-name="Icon_game05_246202606"><path d="M950.85 922.56 962.26 911.08 943.75 892.86 952.09 884.54 878.75 811.16 870.41 819.54 851.41 800.5 837.04 814.79 805.35 783.1 799.58 788.91 795.42 784.78l-5.75 5.75L777.02 777.83 774.21 780.62 759.37 765.78 750.68 774.45 748.59 772.36 772.06 748.86 763.48 740.28 756.94 734 748.09 725.15 780.6 692.66 762.7 674.75H776.42V635.56H797.34V484.4H776.42V470.78L776.53 460.54V446.5H747.6V400.36H585.58V446.5H556.43L556.51 455.58H550.09V446.36H499.66V423.56H469.39V410.51H352.68V423.56h-10.5L334.24 423.5H323.42V441.52H287.77V481.75 502.56 542.72H323.42V560.92L352.68 560.72V574.04H469.39V560.72H499.66V537.94H535.49V635.56H556.76V645.71H525.91V658.19L526.07 667.28V679.42H492.85V813.75H526.07V848.63h15.5V891.68H521.31V918.6H509.7V1022.32H521.31V1031.7L521.25 1038.67V1048.35H537.3V1080H573.02 591.53 627.27V1048.35H643.44L643.24 1022.32H655.03V918.6H643.24V891.68H622.96V846.88H614.8V841.02H606.64V823.08H602.7V802.05H590.45V799.11H623.69V786.97L623.65 785.44 689.92 851.72 713.41 828.21 738.07 852.87 749.04 841.9 779.49 872.38 765.16 886.71 784.2 905.73 775.95 913.93 849.34 987.27 857.54 979.06 864.13 985.7 869.06 990.7 875.87 997.51 887.22 986.16 909.62 1008.52 934.88 983.29 947.99 970.2 973.23 944.94 950.85 922.56z" fill="#e0114a"/><path d="M584.1 861.08h6.3v45.58H584.1z" fill="#f22890"/><path d="M643.24 891.68H622.96V846.88H614.8V841.02H606.64V823.08H602.7V802.05H590.45V787.27H574.13V795.9H579.76V810.7H592.09V831.73H595.98V849.62H604.12V855.48H612.32V900.33H632.56V927.22H644.37V1022.32H655.03V918.6H643.24V891.68z" fill="#f22890"/><path d="M632.56 1030.95 632.69 1048.35h10.75L643.3 1030.95H632.56z" fill="#f22890"/><path d="M615.99 1023.25H463.37V1054.92H436.14V1064.56L436.26 1071.62V1080H616.59 627.27 643.13L643.44 1054.92H615.99V1023.25z" fill="#f22890"/><path d="M824.61 848.43l-32.25-32.25L787.9 820.65 820.18 852.87 824.61 848.43z" fill="#f22890"/><path d="M654.38 717.86 646.8 710.27 641.05 704.74 633.26 696.95 661.9 668.32 636.36 642.77 652.48 626.67 644.72 618.89 614.31 649.3 639.86 674.84 611.24 703.48 619.02 711.26 624.79 716.79 632.33 724.36 611.64 745.08 695.3 828.72 709.59 814.43 633.66 738.53 654.38 717.86z" fill="#f22890"/><path d="M793.98 798.38 798.11 802.54 803.91 796.76 835.65 828.46 849.91 814.13 868.97 833.19 877.31 824.83 944.52 892.06 952.09 884.54 878.75 811.16 870.41 819.54 851.41 800.5 837.04 814.79 805.35 783.1 799.58 788.91 795.42 784.78l-5.75 5.75L777.02 777.83 774.21 780.62 759.37 765.78 750.68 774.45 740.22 763.97 728.65 775.53 734.75 781.64 738.78 777.61 749.24 788.1 757.91 779.4 772.79 794.29 775.53 791.48 788.21 804.17 793.98 798.38z" fill="#f22890"/><path d="M942.29 906.5 954.67 918.71 962.26 911.08 949.87 898.89 942.29 906.5z" fill="#f22890"/><path d="M966.95 915.77 947.53 935.19 925.13 912.8 817.25 1020.73 839.63 1043.07 820.36 1062.31 827.17 1069.19 832.22 1074.05 838.19 1080 984.44 933.73 966.95 915.77z" fill="#f22890"/><path d="M893.74 725.37V667.99H936.07V627.31H960.31V470.67H936.07V456.51L936.18 445.94V431.39h-33.5V383.53H715.62V374.38H728.25V348.28H754.5V339.72H780.91V274.41H846.17V235.18H883.57V84.08H846.17V70.39L846.37 60.18V46.13H794.66V0H679.55 619.91 504.79V46.13H452.69L453.31 84.08H415.27V235.18H453.31V258.29H431.92V275.47H415.27V341.67H431.92L431.68 358.3H454.5V378.53H454.94 504.93 531.05 581.47V374.38H583.86V404.98H623.4V426.59H676.08V404.98H714.85V431.39H681.08L681.48 470.67H656.84V627.31H681.48V667.99H723.76V676.96H704.85V727.83H693.31V730.17H706.27V718.76H717.7V712.08H723.76V725.37H893.74z" fill="#f22890"/><path d="M46.47 257.63H35.61V319.24H0V623.6 664.53H25.9h9.71V685.45 726.61L55.18 726.15V726.14L63.83 725.93V257.85H54.36L46.47 257.63z" fill="#f22890"/><path d="M469.39 560.72H499.66V537.94H550.09V528.74H556.7V519.56H576.83V515.16H600.49V501.36H617.14V482.96H607.46V489.33H590.76V503.13H567.14V507.58H546.97V516.71H540.38V525.93H489.95V543.96H456.47V559.68H459.65V562.03H352.68V574.04H469.39V560.72z" fill="#f22890"/><path d="M334.24 423.5H323.42V441.52H287.77V529.41H279.32V544.56H259.2V575.74H252.56V607.21H202.16V684.97H171.88V730.28H64.89V771.26h116.7V725.93H211.85V648.15H262.29V616.67H268.88V585.45H289.05V570.37H312.67V542.72H313.69 323.42V548.87 560.92L351.64 560.77V423.56H342.18L334.24 423.5z" fill="#f22890"/><path d="M600.36 609.44V573.51H558.91V589.23H575.98V625.14H582.49V653.28H542.01V664.29L542.19 672.27V682.98H512.91V801.3H533.1V693.95H562.4V683.24L562.21 675.26V664.27H602.7V628.13H625.52V617.16H622.87V609.44H600.36z" fill="#f22890"/><path d="M914.93 486.15V474.6L915.04 466V454.13H887.71V415.11H859.46V454.13H886.78V466L886.67 474.6V486.15h19.75V613.87H886.67V646.97H914.93V613.87h19.75V486.15H914.93z" fill="#85c72d"/><path d="M852.17 646.97h28.26v46.82H852.17z" fill="#85c72d"/><path d="M312.67 413.39H289.05V398.33H268.88V367.1H262.29V335.63H211.85V257.85H181.59V213.31H64.89V257.85H54.36L46.47 257.63H35.61V319.24H0V456.38 527.41 664.53H35.61V726.61L64.89 725.93V771.26h116.7V725.93H211.85V648.15H262.29V616.67H268.88V585.45H289.05V570.37H312.67V523.26H329.35V460.49H312.67V413.39z" fill="#85c72d"/><path d="M846.17 235.18H883.57V84.08H846.17V70.39L846.37 60.18V46.13H794.66V0H679.55 619.91 504.79V46.13H452.69L453.31 84.08H415.27v50.58H453.79L454.08 165.23H513.71 628.82V211.36H680.55V225.4L680.35 235.62 773.79 235.37V339.72H780.91V274.41H846.17V235.18z" fill="#85c72d"/><path d="M820.94 533.61h77.01v20.79H820.94z" fill="#85c72d"/><path d="M686.65 363.32V341.73H647.11V311.12H634.44V285.03h-14H608.25V276.45H581.84L581.82 258.29V211.14H546.86 516.58V191.61 172.77H415.27v62.41H453.31V258.29 274.41H518.57v65.31H544.98V348.28H571.21V374.38H581.47 583.86V404.98H623.4V426.59H676.08V404.98H715.62V374.38H728.25V363.32H686.65z" fill="#fdcaa4"/><path d="M685.79 387.45h29.83v17.54H685.79z" fill="#fca176"/><path d="M653.21 345.91h29.83v17.51H653.21z" fill="#fca176"/><path d="M601.62 286.97h29.79v17.56H601.62z" fill="#fca176"/><path d="M633.09 387.45H593.54V356.86H591.18 580.89V330.72H554.69V322.18H528.28V256.87H463.02V240.73 217.62H424.98V172.77H415.27v62.41H453.31V258.29 274.41H518.57v65.31H544.98V348.28H571.21V374.38H581.47 583.86V404.98H623.4V426.59H676.08V409.05H633.09V387.45z" fill="#fca176"/><path d="M429.64 215.03H479.77V172.77L429.64 215.03z" fill="#e83d8d"/><path d="M548.21 910.26H531.07V933.02H521.25V1020.73H531.07V1028.63L531.05 1034.58V1042.73H544.58V1069.52H569.81V1056.03H561.85V1047.89L561.94 1042.73H556.26V1034.58 1034.04H552.12V1020.73H546.48V933.02H556.3V910.26H571.72V880.49H548.21V910.26z" fill="#fcfcfc"/><path d="M915.68 968.58 910.07 974.24 904.29 968.45 900.69 964.75 896.66 968.8 890.89 963.03 890.51 962.65 887.6 965.57 878.17 956.15 874.17 960.13 812.18 898.12 819.13 891.18 803 875.08 813.93 864.19 792.85 843.14 776.22 859.75 797.3 880.8 785.2 892.92 801.28 909.02 794.36 915.95 856.32 977.98 863.29 971.04 868.88 976.63 873.07 980.88l5.75 5.75L888.43 977.03 907.35 995.96 925.17 978.14 915.68 968.58z" fill="#fcfcfc"/><path d="M181.59 459.56H145.13V468.17H25.43V516.05H145.13V524.67L239.91 524.54V459.61H208.11L181.59 459.56z" fill="#fcfcfc"/><path d="M39.65 396.76H48.3L53.77 396.91V377.43H62.41L62.99 377.45V363.27H77.1V343.99h92.93V377.63H194.16V430.35h31.53V349.87H194.16V291.24H170.03V257.63H77.1V291.24H68.71L62.41 291.04H53.77V337.53H25.43V423.91H39.65V396.76z" fill="#fcfcfc"/><path d="M507.07 109.98V81.81H498.64L499.11 109.98H507.07z" fill="#fcfcfc"/><path d="M775.62 129.13V139.86H805.06v83.91H837.61V111.62H808.2V100.87L808.38 92.84V81.81H767.64V45.49H539.67V73.71H735.11V109.98H775.75V121.08L775.62 129.13z" fill="#fcfcfc"/><path d="M724.29 319.48H736.06V312.76H756.85V289.6H724.29V319.48z" fill="#fcfcfc"/><path d="M478.76 434.53H453.15V423.5H354.5V434.53H345.56L338.9 434.49H329.73V449.75H299.63V478.12H314.75V469.21H323.93L329.73 469.25V462.86H338.9 339.5V458.22h15V451.87H453.15V462.95H478.76V480.24H512.29V453.81H478.76V434.53z" fill="#fcfcfc"/><path d="M176.93 480.66h-33V483.67H35.61V500.52H143.93V503.57L229.72 503.53V480.71H200.92L176.93 480.66z" fill="#e0114a"/></g></g></g></svg>