<svg xmlns="http://www.w3.org/2000/svg" width="617.71" height="1080" viewBox="0 0 617.71 1080"><g id="Layer_2" data-name="Layer 2"><g id="Space01_146324433"><g id="Space01_146324433-2" data-name="Space01_146324433"><path d="M616.54 194.14c4.53 41.32-4.08 85.69-26.34 135.47-21.21 47.64-49.93 83.18-85.32 105.58a162.16 162.16.0 0 1-32.12 15.58c39.69 14.32 68.25 35.24 87 63.73 9.65 14.69 17.29 32.06 23.45 53.27 4.82 16.62 9.94 38.59 6.38 60.4a153.06 153.06.0 0 1-26 63.29c-18.48 25.67-43.85 39.61-71.38 39.32a103.56 103.56.0 0 1-27.67-4.31 105.79 105.79.0 0 1-26.86-11.94 83.45 83.45.0 0 1-11.8-9.13 288 288 0 0 1-8.23 70.78c.07.45.29.89.37 1.41a7.74 7.74.0 0 1-2.3 6.16A290.89 290.89.0 0 1 363.4 887.92a5.65 5.65.0 0 0-.75.67c5.2 1.85 6.68 7 5.35 11.27a59.14 59.14.0 0 1-3.64 7.13L333.2 960a7.79 7.79.0 0 1-1.41 1.71c2.67 27 5 57.05-5.27 83.91-9.79 25.45-30 38-53.86 33.54a69.3 69.3.0 0 1-7.2-1.78c-23.07-6.68-44.29-23.52-52.83-41.85-5.26-11.5-6.6-24-7.49-35.76-.74-9.72-1.19-19.59-1.26-29.9-.07-5.94-.07-12 .07-18.33.0-2.3 1.64-11 3.05-13.35a98.16 98.16.0 0 1 20.25-24.63s20-59.66 20.92-61.88a9.89 9.89.0 0 1 7.2-6 9 9 0 0 1 5.71-.89 258.4 258.4.0 0 0 11.28-84.21c-14.17 1.19-26.78.22-38.06-3a75.32 75.32.0 0 1-12.39-4.83 121.13 121.13.0 0 1-15.58-9.34c-14.54 30.42-29.61 64.25-33.91 100.08a9.82 9.82.0 0 1 5.27.0 7.89 7.89.0 0 1 5.86 8.54l-4.9 73.74a12.75 12.75.0 0 1-.37 1.86c8.31 13.06 13.95 25.45 16.62 36.72a25.12 25.12.0 0 1 .67 5.64c0 12-9.57 20.33-18.25 27.83l-.74.66c-17.29 15-38.73 28.2-65.66 40.29-19 8.46-41.33 16.32-62.92 10.09a53.8 53.8.0 0 1-7.27-2.74c-14.4-6.46-23.3-16.7-25.6-30.65C8.68 975.76 44.59 933 53.49 923.09a417.5 417.5.0 0 1-9.27-68.26 8 8 0 0 1 2.89-6.9c2.23-1.71 10.39-.67 11.2-.08H59.5C40 769.8 54.9 681.74 94.3 611.18c1.55-2.75-2.45-16.47-.52-24.56 3-12.32 6.9-24.26 10-33.24a529.34 529.34.0 0 1 28.12-65.29c.6-1 1.19-2.22 1.78-3.26a9.47 9.47.0 0 1-2.82-.37c-.52-.15-1-.38-1.63-.6C47.78 444 2.89 350.17 22.55 260.84a7.8 7.8.0 0 1 3.12-4.9A138.83 138.83.0 0 1 1.11 193.32c-2.67-22.63-1.86-52.9 17.81-68.41 10.83-8.53 25.74-10.83 40.88-6.45A56 56 0 0 1 77.08 127c13.21 9.8 22.19 24.93 27.53 46.37 7.42-5.34 19-13 31.61-9.27 6.45 1.85 11.05 7.27 11.72 16.25 1.48 17.58-24.49 59-35.84 70.18 20.48 47.78 52.38 89.41 92.89 120.57a5.56 5.56.0 0 1 .89 1c.6-.75 1.12-1.49 1.71-2.23-5.79-6.9-11.57-14.32-17.36-22.33-17.36-24.19-27.45-47.49-30.79-71.3-8.24-58.54 15.95-112.92 40.73-158.33C213.45 93.38 227 69.71 244.83 49.83a145.63 145.63.0 0 1 58.1-39.25c36.28-13.5 79.76-14.09 122.42-1.7 4.45 1.33 47.33 12.76 50.45 13.8C518.46 37 553.85 61.85 578 94.42 599.18 122.91 612.46 157.41 616.54 194.14zm-29.3 93.18c13.5-41.69 15.8-81.16 6.82-117.3a179.22 179.22.0 0 0-49.63-86.58c-22-21.07-50.31-36.72-84.14-46.59-7.79-2.3-52-14-57.72-15.06-44.74-9-88.74-1.86-120.86 19.51-22 14.61-36.95 36.28-47.56 53.49-15.58 25.23-27.9 48.38-37.76 70.78-17.14 39.1-32.35 96.16-7.5 145.72 9.94 19.81 24.78 40 45.34 61.65A216.05 216.05.0 0 0 288 414.57a249.26 249.26.0 0 0 124.57 29.3c43.1-1.41 81.46-17.51 110.91-46.37C550.81 370.64 572.25 333.62 587.24 287.32zM572.77 615.63c.67-21.07-6.16-42.66-12.17-59.06A166.7 166.7.0 0 0 547 528.08c-.07.15-.07.22-.15.3a351.27 351.27.0 0 1-58.24 63.43c.74 1.41 1.48 2.82 2.15 4.38 4.6 11.2 4.53 25.3-6 31.31a15.6 15.6.0 0 1-3.63 1.56c5.49 27.52 12 55.35 30.19 76.94a9.11 9.11.0 0 1 1.78 3.34c20.93-7.28 34.8-25.08 42.89-39.62C566.09 651.46 572.25 631.8 572.77 615.63zM538 515c-.52-.66-1-1.33-1.48-2-16.77-20.4-40.36-35.32-73.38-46.52a547.27 547.27.0 0 1-1 103.35 60.9 60.9.0 0 1 14.69 8.31C497.54 560.43 535.45 515.32 538 515zM470.09 709.34a79.6 79.6.0 0 0 23.74 3.26c-17.88-24-25.23-53.57-31.24-84.36a83.26 83.26.0 0 1-9.87-4 127.1 127.1.0 0 1-29.9-20c-.14.52-.44 1.19-.59 1.78l-13.06 48.82a7.81 7.81.0 0 1 1 1.11l1.34 2.08c11.79 17.95 24 36.58 44.36 45.92A105.53 105.53.0 0 0 470.09 709.34zm5.19-98.16c1-1.41.37-5.12-1.78-9.57-3.27-6.61-9-10.76-13.65-13.14q-1.23 8.91-2.67 18a51 51 0 0 0 10.53 4.68 20.1 20.1.0 0 0 3.71.81C472.76 612.22 474.54 612.22 475.28 611.18zM440.7 595.75a543.18 543.18.0 0 0 3.71-137.19c-26.19 4.83-51.11 4-70.92 1.41a273.61 273.61.0 0 1-43.7-9.05c-32-9.27-60.17-23.67-83.77-42.59a250.52 250.52.0 0 1-26.34-24.63c-32.79 44.37-56.83 82.43-75.16 119.23a476.08 476.08.0 0 0-25.44 61.58c-2 5.94-3.86 12-5.57 18l-.59 2.16c-1.11 3.56-2.08 6.9-1.41 10.38 1.48 8.39 5.71 16.62 9.27 22.78 7.2 12.91 16.92 24.41 26.34 35.61l5.57 6.76c2.22 2.59 4.3 5.26 6.38 8A149 149 0 0 0 171.53 683l3.64 3.48c5.78 5.64 31.45 33.91 39.39 40.22 9 7 17.14 11.5 25.15 13.8 16.33 4.75 36.58 3.63 60.4-3.42 16.84-5 34.8-12.76 56.53-24.41 10.91-5.86 21.37-12.68 31.54-19.29 5.78-3.71 11.79-7.56 17.88-11.27-3.27-4.68-6.38-9.43-9.5-14.17l-2-3.12a4.4 4.4.0 0 1-.52-1c-6.61 1.11-13.73 1.63-21.37-.59a39.58 39.58.0 0 1-6.31-2.38c-3.19-1.48-6.45-3-9.64-4.82-.15.15-.3.22-.45.37-14.54 7.5-31.6 10.31-50.6 8.68-3 8.31-7.27 16-15.13 21.15-9.8 6.45-22.11 8.9-34.43 8.9a107.61 107.61.0 0 1-29.38-4.3c-1.19-.3-2.37-.67-3.56-1-20.63-6.9-38.36-20.26-51.56-38.73-.89-1.26-1.78-2.52-2.6-3.78a7.66 7.66.0 0 1-.52-8c6.08-24.11 11.94-48.37 17.81-72.56q4.33-17.91 8.68-35.83l-18.63-11.21c-4.08-2.52-5.34-7.56-3-12.31L199.5 454a7.54 7.54.0 0 1 7.94-4.45c.37.07.74.07 1.11.15.08.07.15.0.23.07h.07c.3.08.59.08.89.15l3.64 1c11.94 3.49 23.81 7.05 35.76 10.68a1.1 1.1.0 0 1 .44.15c18-1.93 36 2.67 54.61 7.5l1.85.52 1.19.37c10.31 3.34 21.15 9.49 28.71 18.17 4.46 1.27 8.91 2.53 13.36 3.86 16.17 4.68 37.32 11.2 57.87 20.18 3.41 1.49 6.9 4.6 6.31 8.91-1.78 13-3.94 28.71-6.76 44.29a61.5 61.5.0 0 1 9.35 6.31c.82.66 1.78 1.33 2.75 2 3.19 2.3 6.82 4.9 7.94 9 .07.07.07.22.07.37a9.25 9.25.0 0 1 1.93 1.55A93.57 93.57.0 0 0 440.7 595.75zM400.2 771.58a273.26 273.26.0 0 0 7.49-69.07c-1.56 1.11-3.19 2.15-4.82 3.26-5.27 3.64-10.76 7.35-16.4 10.69-12.32 7.27-22.63 13-32.5 17.88C336.61 743 314 753.26 290.31 758c.23 5.26.23 10.53.15 15.73C336.09 784.94 371.11 784.2 400.2 771.58zm6.23-175.46c.81-2.53 1.63-5.12 2.15-7.57a63.14 63.14.0 0 0-13.43-8.76h-.44a11.81 11.81.0 0 1-3.2-1.63c-1.48-.59-3-1.18-4.52-1.63a37.11 37.11.0 0 0-6-1.19 8.44 8.44.0 0 1-3.34-.29h-.07c-7-.15-14.25 1.48-19.29 4.45-6.68 3.93-8.31 11.72-9.95 19.14l-.22 1.26c-4 18.47.0 29.83 13.28 38.14 6.09 3.85 10.54 6 14.84 7.27a34.55 34.55.0 0 0 16.55.52.25.25.0 0 1 .22-.08l11.94-44.66C405.39 599.46 405.91 597.82 406.43 596.12zM389.73 559c1.78-10.09 3.34-20.56 5-32.43a500.39 500.39.0 0 0-49.27-16.69 31 31 0 0 1-.15 8.31c-.07.59-.22 1.11-.29 1.71a10 10 0 0 1-.38 2.07l-.59 2.3c17.07 5 37 13.43 43.92 34.28zM369.85 846.74a277.16 277.16.0 0 0 24.34-53.94c-29.24 9-63.74 8.68-104.62-.81a242.93 242.93.0 0 1-3.19 24.41c.15.22.37.29.45.52 7.42 11.2 21.59 16.32 34.13 20.92l2.07.74c3.79 1.41 7.65 2.67 11.43 3.78 12.32 3.64 23.37 5 33.91 4.23A5.32 5.32.0 0 1 369.85 846.74zM356 560.73a51.1 51.1.0 0 1 11.57-3.05c-6.08-8.75-16.77-12.68-28.19-16.1l-2.23 8.31A85.88 85.88.0 0 1 356 560.73zM346.41 883c0-1.63 8.6-13.8 11.79-18.32a116.58 116.58.0 0 1-28.27-4.9c-5.49-1.56-11.27-3.56-17.73-6.08-11-4.31-21.59-9-30.34-16.18-1.49 5.64-3.19 11.35-5.05 17A618.92 618.92.0 0 0 346.41 883zM318.29 949.8 346.41 902c-30.5-10.32-56.69-21-80.58-32.87a10.59 10.59.0 0 1-2.6-.22l-18.84 49.93c-.22.74-2.38 5.56-4.08 7a84.94 84.94.0 0 0-18 21.59c-.29.44-.59.74-.89 1.18.3 1 .45 25.53.89 36.14a112.21 112.21.0 0 1 47.93-14.1c11.65-.74 22.63.3 31.83 3a56.62 56.62.0 0 1 13.06 5.71c-.52-8.9-1.26-16.47-1.71-21.52C313.17 955.06 317.47 950.09 318.29 949.8zM340 643.6a41.71 41.71.0 0 1-3.7-4.38c-.45-.66-.9-1.33-1.27-2a5.12 5.12.0 0 1-1 .44A60.83 60.83.0 0 1 312.8 640l-2 7.34C321.77 647.83 331.49 646.64 340 643.6zm.45-72.19a74.64 74.64.0 0 0-8.09-4.08L317.62 622a45.64 45.64.0 0 0 11.28-1.56 64.27 64.27.0 0 1 .74-20.1C331.64 589.51 334.09 579.2 340.47 571.41zm-12.91-55a13.65 13.65.0 0 0 0-1.7c.07-16.85-16.47-24.56-26.41-27.6l-5.27-1.41c-21.74-5.72-42.22-11.13-62.69-.67-5.49 2.82-10.47 5.86-10.69 11.65.0.22.08.52.08.74 17.36-5.56 36.28-9.79 56.83-4.53.89.23 1.85.52 2.74.75a89.38 89.38.0 0 1 42.66 28 12.61 12.61.0 0 0 2.3-4l.08-.14.15-.6A3.38 3.38.0 0 0 327.56 516.43zM297.29 628.17 320.07 544a87.4 87.4.0 0 1-25.23 3 120 120 0 0 1-30.94-5.19 228.84 228.84.0 0 1-39.54-16.1 50.93 50.93.0 0 1-8.24-5.12q-6.35 25.49-12.46 51C198 594.71 192.38 617.93 186.59 641a84.53 84.53.0 0 0 45 32.43c15.66 4.52 47 8 55.65-10.54 3.56-7.64 5.71-16.4 7.71-24.85C295.66 634.7 296.47 631.36 297.29 628.17zm18.25 375.27a11.37 11.37.0 0 1-1.63-1.56c-4.08-5.19-9.94-8.9-17.44-11-7.86-2.3-17.58-3-28.78-1.93a94.24 94.24.0 0 0-44.08 16.32 81.17 81.17.0 0 0 3.34 17.43c6.09 18.85 26.86 32.5 44.67 37.69l1.11.3c10.91 3 19.88 1.63 26.56-4C311.09 1046.69 314.87 1024.73 315.54 1003.44zM301.15 528.9c1.56-.08 3.41-.15 5.41-.37a71.67 71.67.0 0 0-29.82-17.66c-.74-.22-1.49-.45-2.3-.67-13.13-3.34-25.75-1.48-37.84 1.78 1.71.74 3.41 1.49 5 2.08l3.27 1.33a233.74 233.74.0 0 0 25 9.13C281.49 527.86 291.72 529.34 301.15 528.9zM220.2 471.77 212 469.32l-19.15 39.1 6.76 4.16c1.55-6.53 3.19-13.06 4.82-19.59a11.13 11.13.0 0 1 .89-1.93C207.07 483.57 212 477 220.2 471.77zm-24.7-85.4c-.08-.07-.15-.07-.23-.15-8.38-6.45-16.32-13.35-24-20.55a192.79 192.79.0 0 1-84.66 64.92 184.76 184.76.0 0 0 51.87 37.77 9 9 0 0 1 2.74 2.22C155.88 444.17 173.53 416.72 195.5 386.37zm-6.38 351.46c1-2.08 1.92-4.16 3-6.24-6.82-6.38-39.76-43.18-42.88-47.11-4.68-6.08-9.57-11.94-14.47-17.88l-3.41-4.08C121 650.2 111.88 638.7 104.91 626.17a292.54 292.54.0 0 0-22.93 54c27.15 31.31 68 44.44 104.09 56A9.91 9.91.0 0 1 189.12 737.83zm-7.42 15.8a.9.9.0 0 1-.45-.08l-.3-.07c-33.68-10.83-74.78-24-104.53-53a306.12 306.12.0 0 0-8.24 79.24c6.23 2.22 12.39 4.37 18.55 6.15a244.3 244.3.0 0 0 25.82 6.16l3.86.74c14.61 2.82 48.3 1 49.33 1C170.42 780 175.91 766.54 181.7 753.63zM154.62 993.2c8.3-5.86 23.44-16.55 22.77-24.78-.44-4.9-3.19-10.61-5.71-15.66l-1.26-2.67c-2.6-5.41-11.58-22.85-9.72-25.52l4.08-61.43L63 865.74A389.58 389.58.0 0 0 71.67 922a15.21 15.21.0 0 1-2.45 10.61A173.62 173.62.0 0 0 54.6 949.87a89.54 89.54.0 0 1 1e2 43.33zm-.52-147.79a213.35 213.35.0 0 1 5.71-31.76c-13.21 2.38-27.9-.07-41.18-2.3l-4.67-.81a281 281 0 0 1-32.35-7.35c-4.08-1.19-8.09-2.52-12.17-3.86a300.72 300.72.0 0 0 8.46 48zM158.47 353A330 330 0 0 1 130 318.63 567.87 567.87.0 0 1 41.4 349.5a181.75 181.75.0 0 0 32.79 66.62A174.37 174.37.0 0 0 158.47 353zM99.93 240.29c26.94-34 31.17-55 30.28-57.73-3.34-9.86-23.82 5.72-30.28 12.62-2.15 2.22-9.86 4.6-9.86-3.05C90 174.33 82.5 155 68.33 142.94a39.45 39.45.0 0 0-13.73-7.27c-10.76-3.11-20.55-1.18-26.78 5.42C14.46 155.19 17.21 182.78 20 198a119.28 119.28.0 0 0 22.48 50.74 1.64 1.64.0 0 1 .15.3S99 241.4 99.93 240.29zm39.7 763.15a70.6 70.6.0 0 0-43-35.32 71.73 71.73.0 0 0-57.06 7.5 84.07 84.07.0 0 0-7 27c-1.41 19 11.8 25.75 19.74 28.12 9.12 2.6 20.62 2.45 30.86-.59C101.05 1025 120.71 1015.61 139.63 1003.44zM119.74 303.5a305.75 305.75.0 0 1-23.81-45.19l-56.46 9.43a182.59 182.59.0 0 0-1.71 64A546.27 546.27.0 0 0 119.74 303.5z" fill="#624e87"/><path d="M594.06 170c9 36.14 6.68 75.61-6.82 117.3-15 46.3-36.43 83.32-63.74 110.18-29.45 28.86-67.81 45-110.91 46.37A249.26 249.26.0 0 1 288 414.57a216.05 216.05.0 0 1-53.79-41.63c-20.56-21.66-35.4-41.84-45.34-61.65-24.85-49.56-9.64-106.62 7.5-145.72 9.86-22.4 22.18-45.55 37.76-70.78 10.61-17.21 25.6-38.88 47.56-53.49 32.12-21.37 76.12-28.49 120.86-19.51 5.71 1.11 49.93 12.76 57.72 15.06 33.83 9.87 62.18 25.52 84.14 46.59A179.22 179.22.0 0 1 594.06 170zm-56.46 141c11.58-19.52 30.94-58.47 30.64-99.42-.29-30.87-15.28-57.8-45.85-82.21-26.41-21.14-59.8-37.91-96.6-48.67L424 80.25c-7.49-2.52-16.4-5.49-25.22-8-28.27-8.24-50-10.91-70.49-8.53-39 4.52-62.84 31.45-81 57.2-24.41 34.65-36.57 64-38.28 92.37-1.93 32.2 13.72 62.47 45.18 87.55 33.24 26.41 73.08 40.95 104.1 50.75 7 2.15 14.17 4.45 21.44 6.52 24.48 7.13 53.42 13.88 81.91 9.57C491.68 363.15 518.68 343 537.6 311.07z" fill="#a2f5e2"/><path d="M560.6 556.57c6 16.4 12.84 38 12.17 59.06-.52 16.17-6.68 35.83-16.84 54.09-8.09 14.54-22 32.34-42.89 39.62a9.11 9.11.0 0 0-1.78-3.34c-18.17-21.59-24.7-49.42-30.19-76.94a15.6 15.6.0 0 0 3.63-1.56c10.54-6 10.61-20.11 6-31.31-.67-1.56-1.41-3-2.15-4.38a351.27 351.27.0 0 0 58.24-63.43c.08-.08.08-.15.15-.3A166.7 166.7.0 0 1 560.6 556.57z" fill="#a2f5e2"/><path d="M568.24 211.65c.3 40.95-19.06 79.9-30.64 99.42-18.92 32-45.92 52.08-76 56.6-28.49 4.31-57.43-2.44-81.91-9.57-7.27-2.07-14.4-4.37-21.44-6.52-31-9.8-70.86-24.34-104.1-50.75-31.46-25.08-47.11-55.35-45.18-87.55 1.71-28.42 13.87-57.72 38.28-92.37 18.18-25.75 42-52.68 81-57.2 20.48-2.38 42.22.29 70.49 8.53 8.82 2.52 17.73 5.49 25.22 8l1.78.52c36.8 10.76 70.19 27.53 96.6 48.67C553 153.85 568 180.78 568.24 211.65zm-34.79 68c10.46-24.26 23.22-60.09 13.35-91.33-7.79-24.71-31.53-43-48.74-54.53A276.85 276.85.0 0 0 420.6 98.06l-.89-.3-.37-1.56-.45 1.34s-.67-.23-1-.3c-9.05-3.12-17.29-5.86-25.9-8.31C373 83.37 347.89 77.58 323.4 82.62c-33.53 6.9-55.27 36.58-73.74 67.59-19.52 32.87-26.49 60.47-21.15 84.58 5.64 25.82 26.49 48.75 63.66 69.89 28.64 16.4 60.32 26.64 84.65 33.76l11.8 3.34c28.27 7.87 60.84 15.21 89.26 2.75C500.43 334.58 519.13 312.77 533.45 279.68z" fill="#624e87"/><path d="M546.8 188.35c9.87 31.24-2.89 67.07-13.35 91.33-14.32 33.09-33 54.9-55.57 64.85-28.42 12.46-61 5.12-89.26-2.75l-11.8-3.34c-24.33-7.12-56-17.36-84.65-33.76-37.17-21.14-58-44.07-63.66-69.89-5.34-24.11 1.63-51.71 21.15-84.58 18.47-31 40.21-60.69 73.74-67.59 24.49-5 49.57.75 68.63 6.31 8.61 2.45 16.85 5.19 25.9 8.31.29.07 1 .3 1 .3l.45-1.34.37 1.56.89.3a276.85 276.85.0 0 1 77.46 35.76C515.27 145.39 539 163.64 546.8 188.35z" fill="#736b9e"/><path d="M536.49 513c.52.67 1 1.34 1.48 2-2.52.3-40.43 45.41-61.21 63.14a60.9 60.9.0 0 0-14.69-8.31 547.27 547.27.0 0 0 1-103.35C496.13 477.7 519.72 492.62 536.49 513z" fill="#a2f5e2"/><path d="M493.83 712.6a79.6 79.6.0 0 1-23.74-3.26A105.53 105.53.0 0 1 455.91 704c-20.4-9.34-32.57-28-44.36-45.92L410.21 656a7.81 7.81.0 0 0-1-1.11l13.06-48.82c.15-.59.45-1.26.59-1.78a127.1 127.1.0 0 0 29.9 20 83.26 83.26.0 0 0 9.87 4C468.6 659 476 688.56 493.83 712.6z" fill="#a2f5e2"/><path d="M444.41 458.56a543.18 543.18.0 0 1-3.71 137.19 93.57 93.57.0 0 1-11.94-11 9.25 9.25.0 0 0-1.93-1.55c0-.15.0-.3-.07-.37-1.12-4.08-4.75-6.68-7.94-9-1-.67-1.93-1.34-2.75-2a61.5 61.5.0 0 0-9.35-6.31c2.82-15.58 5-31.31 6.76-44.29.59-4.31-2.9-7.42-6.31-8.91-20.55-9-41.7-15.5-57.87-20.18-4.45-1.33-8.9-2.59-13.36-3.86-7.56-8.68-18.4-14.83-28.71-18.17l-1.19-.37-1.85-.52c-18.62-4.83-36.58-9.43-54.61-7.5a1.1 1.1.0 0 0-.44-.15c-11.95-3.63-23.82-7.19-35.76-10.68l-3.64-1c-.3-.07-.59-.07-.89-.15h-.07c-.08-.07-.15.0-.23-.07-.37-.08-.74-.08-1.11-.15A7.54 7.54.0 0 0 199.5 454l-26.11 53.35c-2.38 4.75-1.12 9.79 3 12.31L195 530.83q-4.35 17.91-8.68 35.83c-5.87 24.19-11.73 48.45-17.81 72.56a7.66 7.66.0 0 0 .52 8c.82 1.26 1.71 2.52 2.6 3.78l-18.92 9.13-5.57-6.76c-9.42-11.2-19.14-22.7-26.34-35.61-3.56-6.16-7.79-14.39-9.27-22.78-.67-3.48.3-6.82 1.41-10.38l.59-2.16c1.71-6 3.56-12 5.57-18a476.08 476.08.0 0 1 25.44-61.58c18.33-36.8 42.37-74.86 75.16-119.23A250.52 250.52.0 0 0 246 408.33c23.6 18.92 51.79 33.32 83.77 42.59a273.61 273.61.0 0 0 43.7 9.05C393.3 462.57 418.22 463.39 444.41 458.56z" fill="#a2f5e2"/><path d="M407.69 702.51a273.26 273.26.0 0 1-7.49 69.07c-29.09 12.62-64.11 13.36-109.74 2.16.08-5.2.08-10.47-.15-15.73 23.67-4.75 46.3-15 63.66-23.67 9.87-4.9 20.18-10.61 32.5-17.88 5.64-3.34 11.13-7.05 16.4-10.69C404.5 704.66 406.13 703.62 407.69 702.51z" fill="#a2f5e2"/><path d="M408.58 588.55c-.52 2.45-1.34 5-2.15 7.57-.52 1.7-1 3.34-1.49 5L393 645.75a.25.25.0 0 0-.22.08 34.55 34.55.0 0 1-16.55-.52c-4.3-1.26-8.75-3.42-14.84-7.27-13.28-8.31-17.28-19.67-13.28-38.14l.22-1.26c1.64-7.42 3.27-15.21 9.95-19.14 5-3 12.31-4.6 19.29-4.45h.07a8.44 8.44.0 0 0 3.34.29 37.11 37.11.0 0 1 6 1.19c1.48.45 3 1 4.52 1.63a11.81 11.81.0 0 0 3.2 1.63h.44A63.14 63.14.0 0 1 408.58 588.55z" fill="#b4a2db"/><path d="M396.56 667.94c3.12 4.74 6.23 9.49 9.5 14.17-6.09 3.71-12.1 7.56-17.88 11.27C378 7e2 367.55 706.81 356.64 712.67c-21.73 11.65-39.69 19.44-56.53 24.41-23.82 7-44.07 8.17-60.4 3.42-8-2.3-16.17-6.83-25.15-13.8-7.94-6.31-33.61-34.58-39.39-40.22L171.53 683a149 149 0 0 1-12.46-14.84c-2.08-2.75-4.16-5.42-6.38-8L171.61 651c13.2 18.47 30.93 31.83 51.56 38.73 1.19.37 2.37.74 3.56 1a107.61 107.61.0 0 0 29.38 4.3c12.32.0 24.63-2.45 34.43-8.9 7.86-5.12 12.09-12.84 15.13-21.15 19 1.63 36.06-1.18 50.6-8.68.15-.15.3-.22.45-.37 3.19 1.78 6.45 3.34 9.64 4.82a39.58 39.58.0 0 0 6.31 2.38c7.64 2.22 14.76 1.7 21.37.59a4.4 4.4.0 0 0 .52 1z" fill="#a2f5e2"/><path d="M394.71 526.52c-1.64 11.87-3.2 22.34-5 32.43L388 558.5c-7-20.85-26.85-29.31-43.92-34.28l.59-2.3a10 10 0 0 0 .38-2.07c.07-.6.22-1.12.29-1.71a31 31 0 0 0 .15-8.31A500.39 500.39.0 0 1 394.71 526.52z" fill="#b4a2db"/><path d="M394.19 792.8a277.16 277.16.0 0 1-24.34 53.94 5.32 5.32.0 0 0-1.48-.15c-10.54.75-21.59-.59-33.91-4.23-3.78-1.11-7.64-2.37-11.43-3.78l-2.07-.74c-12.54-4.6-26.71-9.72-34.13-20.92-.08-.23-.3-.3-.45-.52A242.93 242.93.0 0 0 289.57 792C330.45 801.48 365 801.78 394.19 792.8z" fill="#a2f5e2"/><path d="M367.55 557.68A51.1 51.1.0 0 0 356 560.73a85.88 85.88.0 0 0-18.85-10.84l2.23-8.31C350.78 545 361.47 548.93 367.55 557.68z" fill="#fcfcfc"/><path d="M358.2 864.7c-3.19 4.52-11.79 16.69-11.79 18.32a618.92 618.92.0 0 1-69.6-28.49c1.86-5.64 3.56-11.35 5.05-17 8.75 7.2 19.36 11.87 30.34 16.18 6.46 2.52 12.24 4.52 17.73 6.08A116.58 116.58.0 0 0 358.2 864.7z" fill="#a2f5e2"/><path d="M346.41 902 318.29 949.8c-.82.29-5.12 5.26-4.83 8.08.45 5 1.19 12.62 1.71 21.52a56.62 56.62.0 0 0-13.06-5.71c-9.2-2.67-20.18-3.71-31.83-3a112.21 112.21.0 0 0-47.93 14.1c-.44-10.61-.59-35.17-.89-36.14.3-.44.6-.74.89-1.18a84.94 84.94.0 0 1 18-21.59c1.7-1.49 3.86-6.31 4.08-7l18.84-49.93a10.59 10.59.0 0 0 2.6.22C289.72 881 315.91 891.7 346.41 902z" fill="#b4a2db"/><path d="M336.32 639.22a41.71 41.71.0 0 0 3.7 4.38c-8.53 3-18.25 4.23-29.23 3.71l2-7.34a60.83 60.83.0 0 0 21.29-2.31 5.12 5.12.0 0 0 1-.44C335.42 637.89 335.87 638.56 336.32 639.22z" fill="#fcfcfc"/><path d="M332.38 567.33a74.64 74.64.0 0 1 8.09 4.08c-6.38 7.79-8.83 18.1-10.83 28.94a64.27 64.27.0 0 0-.74 20.1A45.64 45.64.0 0 1 317.62 622z" fill="#a2f5e2"/><path d="M327.56 514.73a13.65 13.65.0 0 1 0 1.7 3.38 3.38.0 0 1-.22.52l-.15.6-.08.14a12.61 12.61.0 0 1-2.3 4 89.38 89.38.0 0 0-42.66-28c-.89-.23-1.85-.52-2.74-.75-20.55-5.26-39.47-1-56.83 4.53.0-.22-.08-.52-.08-.74.22-5.79 5.2-8.83 10.69-11.65 20.47-10.46 40.95-5.05 62.69.67l5.27 1.41C311.09 490.17 327.63 497.88 327.56 514.73z" fill="#fcfcfc"/><path d="M320.07 544l-22.78 84.21c-.82 3.19-1.63 6.53-2.38 9.87-2 8.45-4.15 17.21-7.71 24.85-8.68 18.55-40 15.06-55.65 10.54a84.53 84.53.0 0 1-45-32.43c5.79-23.07 11.43-46.29 17.07-69.44q6.12-25.48 12.46-51a50.93 50.93.0 0 0 8.24 5.12 228.84 228.84.0 0 0 39.54 16.1A120 120 0 0 0 294.84 547 87.4 87.4.0 0 0 320.07 544z" fill="#fcfcfc"/><path d="M313.91 1001.88a11.37 11.37.0 0 0 1.63 1.56c-.67 21.29-4.45 43.25-16.25 53.2-6.68 5.63-15.65 7-26.56 4l-1.11-.3c-17.81-5.19-38.58-18.84-44.67-37.69a81.17 81.17.0 0 1-3.34-17.43 94.24 94.24.0 0 1 44.08-16.32c11.2-1 20.92-.37 28.78 1.93C304 993 309.83 996.69 313.91 1001.88z" fill="#b4a2db"/><path d="M306.56 528.53c-2 .22-3.85.29-5.41.37-9.43.44-19.66-1-31.24-4.38a233.74 233.74.0 0 1-25-9.13l-3.27-1.33c-1.63-.59-3.33-1.34-5-2.08 12.09-3.26 24.71-5.12 37.84-1.78.81.22 1.56.45 2.3.67A71.67 71.67.0 0 1 306.56 528.53z" fill="#a89393"/><path d="M212 469.32l8.23 2.45c-8.16 5.19-13.13 11.8-14.91 19.29a11.13 11.13.0 0 0-.89 1.93c-1.63 6.53-3.27 13.06-4.82 19.59l-6.76-4.16z" fill="#b4a2db"/><path d="M195.27 386.22c.08.08.15.08.23.15-22 30.35-39.62 57.8-54.24 84.21a9 9 0 0 0-2.74-2.22 184.76 184.76.0 0 1-51.87-37.77 192.79 192.79.0 0 0 84.66-64.92C179 372.87 186.89 379.77 195.27 386.22z" fill="#a2f5e2"/><path d="M192.08 731.59c-1 2.08-2 4.16-3 6.24a9.91 9.91.0 0 0-3.05-1.64c-36.13-11.57-76.94-24.7-104.09-56a292.54 292.54.0 0 1 22.93-54c7 12.53 16.1 24 26.41 36.35l3.41 4.08c4.9 5.94 9.79 11.8 14.47 17.88C152.32 688.41 185.26 725.21 192.08 731.59z" fill="#a2f5e2"/><path d="M181.25 753.55a.9.9.0 0 0 .45.08c-5.79 12.91-11.28 26.34-16 40.21-1 0-34.72 1.78-49.33-1l-3.86-.74a244.3 244.3.0 0 1-25.82-6.16c-6.16-1.78-12.32-3.93-18.55-6.15a306.12 306.12.0 0 1 8.24-79.24c29.75 28.93 70.85 42.14 104.53 53z" fill="#a2f5e2"/><path d="M177.39 968.42c.67 8.23-14.47 18.92-22.77 24.78a89.54 89.54.0 0 0-1e2-43.33 173.62 173.62.0 0 1 14.62-17.29A15.21 15.21.0 0 0 71.67 922 389.58 389.58.0 0 1 63 865.74l101.79-2.6-4.08 61.43c-1.86 2.67 7.12 20.11 9.72 25.52l1.26 2.67C174.2 957.81 177 963.52 177.39 968.42z" fill="#b4a2db"/><path d="M159.81 813.65a213.35 213.35.0 0 0-5.71 31.76l-76.2 1.93a300.72 300.72.0 0 1-8.46-48c4.08 1.34 8.09 2.67 12.17 3.86A281 281 0 0 0 114 810.54l4.67.81C131.91 813.58 146.6 816 159.81 813.65z" fill="#a2f5e2"/><path d="M130 318.63A330 330 0 0 0 158.47 353a174.37 174.37.0 0 1-84.28 63.14A181.75 181.75.0 0 1 41.4 349.5 567.87 567.87.0 0 0 130 318.63z" fill="#a2f5e2"/><path d="M130.21 182.56c.89 2.75-3.34 23.74-30.28 57.73C99 241.4 42.66 249 42.66 249a1.64 1.64.0 0 0-.15-.3A119.28 119.28.0 0 1 20 198c-2.82-15.22-5.57-42.81 7.79-56.91 6.23-6.6 16-8.53 26.78-5.42a39.45 39.45.0 0 1 13.73 7.27C82.5 155 90 174.33 90.07 192.13c0 7.65 7.71 5.27 9.86 3.05C106.39 188.28 126.87 172.7 130.21 182.56z" fill="#b4a2db"/><path d="M96.6 968.12a70.6 70.6.0 0 1 43 35.32c-18.92 12.17-38.58 21.51-56.54 26.71-10.24 3-21.74 3.19-30.86.59-7.94-2.37-21.15-9.12-19.74-28.12a84.07 84.07.0 0 1 7-27A71.73 71.73.0 0 1 96.6 968.12z" fill="#b4a2db"/><path d="M95.93 258.31a305.75 305.75.0 0 0 23.81 45.19 546.27 546.27.0 0 1-82 28.27 182.59 182.59.0 0 1 1.71-64z" fill="#a2f5e2"/><path d="M479.68 177.76c-20.31-14.61-45.88-7.39-70.51-4.12-33.9 4.5-41.62-22.39 29.67-69.55-6-2.17-12-4.23-18.24-6l-.89-.3-.37-1.56-.45 1.34s-.67-.23-1-.3c-9.05-3.12-17.29-5.86-25.9-8.31-18.12-5.29-41.68-10.67-65-6.86-.35.48-.73.92-1.07 1.4C299.52 120.38 266.44 186.05 287 231c8.87 19.4 38.85 24 59.66 18 62.54-18 74.82 8.54 41.93 34.55-12.48 9.87-37.24 31.76-48.63 42.84 13.16 4.83 25.81 8.77 36.89 12l11.8 3.34c20.4 5.68 43 11 64.72 8.93C504.51 294.52 545.16 224.89 479.68 177.76z" fill="#8279b3"/></g></g></g></svg>