<svg xmlns="http://www.w3.org/2000/svg" width="1080" height="629.57" viewBox="0 0 1080 629.57"><g id="Layer_2" data-name="Layer 2"><g id="Text02_335339874"><g id="Text02_335339874-2" data-name="Text02_335339874"><path d="M210.72 131.58h653.87V439.4H210.72z" transform="translate(3.46 -6.43) rotate(0.69)" fill="#121819"/><path d="M346.16 236.38h269.21v202.34H346.16z" transform="translate(4.08 -5.74) rotate(0.69)" fill="#121819"/><path d="M85.4 336.6l-32-40 15.73-71.27h35.78L78.86 190.19 100.11 90.05l46.43-36.54H252.72l34.72 39.9-18.53 71.35H234.16l27.64 35L240.91 300.06l-46.44 36.55zm77.35-88.12 4.87-18.11H156.49L153 248.48zm18.94-89.1 4.86-17.74h-9l-4.65 17.74z" fill="#121819"/><path d="M150.38 64.58h97.29l27.59 31.69-14.92 57.4h-65.6l6.33-23.11H169l-10.44 39.88h66l25.36 32.06-19 91.33-40.26 31.68H90.72L65.37 293.85l12.68-57.41h66l-4.47 23.11h31.69l10.81-40.26H114.21L90.73 187.6l19.38-91.33 40.27-31.69m-7.67-22.14-6 4.74L96.42 78.87l-6.3 5-1.67 7.84L69.07 183 67 192.77l6 8 10 13.5H60.26l-3.84 17.37L43.75 289.07l-2.29 10.34 6.62 8.27 25.35 31.69 6.65 8.31H198.3l6-4.74 40.26-31.69 6.34-5 1.64-7.9 19-91.33 2.11-10.13-6.42-8.12L257 175.83h20.44l4.31-16.58 14.91-57.41 2.94-11.3L292 81.73 264.38 50.05l-6.62-7.61h-115z" fill="#121819"/><path d="M284.49 336.61 328.85 141.64H277.8L297.72 53.51 486.02 53.52 465.59 141.65H417.17L372.81 336.61H284.49z" fill="#121819"/><path d="M306.57 64.59H472.09l-15.29 66H408.34L364 325.54H298.36l44.37-195H291.66l14.91-66m-17.7-22.15L285 59.7l-14.92 66-6.11 27h51l-38.21 167.9-6.16 27.06h111l3.92-17.24L426 152.72H474.4l4-17.15 15.29-66L5e2 42.45H288.87z" fill="#121819"/><path d="M533.15 336.62l14.91-66H536.85l-14.91 66H433.68L488.26 89.87 537 53.52H643.67l32 40L621.5 336.62zm34.55-151.5 8.4-43.47h-9.44l-9.88 43.46z" fill="#121819"/><path d="M540.68 64.59h97.67L663.7 96.29 612.62 325.55H547l14.91-66H528l-14.91 66H447.47L498.18 96.28l42.5-31.69m36.16 131.6 12.67-65.61H557.82l-14.91 65.61h33.93M533.33 42.45l-5.89 4.39-42.5 31.69-6.6 4.92-1.78 8L425.85 320.76l-6 26.93H630.37l3.86-17.33L685.32 101.1l2.3-10.36L681 82.45 655.65 50.76 649 42.45H533.33z" fill="#121819"/><path d="M621.48 336.62l64.31-283.1h145.8l31.93 40.39L847 168.35l-35.2 29.39 22.3 27.78-17.39 74.62-45.93 36.48H721.14l21.24-97.3h-9.21l-23.49 97.3zM762.55 151.2l2.65-9.92H754.8l-2 9.92z" fill="#121819"/><path d="M694.63 64.6h131.6l25.35 32.06L837 162.27 796.4 196.2l25.72 32.05-15.28 65.62L767 325.55H734.89l21.25-97.3H724.45L701 325.55h-65.6l59.27-261m85 65.61H745.7l-6.34 32.06h31.69l8.58-32.06M677 42.45 673 59.69l-59.28 261-6.15 27.05H774.67l6.05-4.81 39.89-31.68 6-4.8 1.75-7.52 15.29-65.61 2.44-10.49-6.74-8.39-12.12-15.12 24-20 5.79-4.84 1.64-7.37 14.54-65.6 2.27-10.28L869 82.93 843.6 50.87 837 42.46H677z" fill="#121819"/><path d="M864.54 336.63 908.9 141.66H857.85L877.77 53.53 1066.07 53.54 1045.64 141.66H997.22L952.85 336.63H864.54z" fill="#121819"/><path d="M886.62 64.6h165.51l-15.29 66H988.38L944 325.56H878.41l44.36-195H871.7l14.92-66m-17.7-22.14L865 59.72l-14.92 66-6.11 27h51l-38.2 167.91-6.16 27.06h111l3.92-17.23 40.45-177.73h48.38l4-17.15 15.29-66L1080 42.46H868.92z" fill="#121819"/><path d="M85.4 618.47l-32-40 46.4-207 46.4-36.08H252.9L285.4 375l-18.5 79.87H178.52l8.2-31.32H176.1l-9.19 43.09h98.9L241.25 581.94l-46.42 36.54zm77.13-87.75 1.91-9.54h-9.17l-2 9.54z" fill="#121819"/><path d="M150 346.45h97.66l25.72 31.31-15.28 66H192.86l8.2-31.31H167.14L139.55 541.79h32.06L178 510.11H162.66l7.09-32.43h82.38l-20.87 98L191 607.4H90.72L65.37 575.71l44.36-198L150 346.45m-7.6-22.14-6 4.66L96.14 360.28l-6.28 4.88-1.74 7.76-44.36 198-2.33 10.37 6.64 8.31 25.35 31.69 6.65 8.31H198.66l6-4.74L245 593.12l6.3-5 1.67-7.84 20.87-98 5.7-26.76H278.1l1.57-6.78 15.29-66 2.46-10.63-6.92-8.43L264.78 332.4l-6.65-8.09H142.4z" fill="#121819"/><path d="M235 618.48l54.57-246.75 48.75-36.34H445l32 40L422.79 618.48H334.45l14.91-66H338.15l-14.92 66zM369 467l8.39-43.47H368L358.08 467z" fill="#121819"/><path d="M342 346.46h97.68L465 378.15 413.92 607.41H348.31l14.91-66H329.3l-14.92 66h-65.6l50.7-229.26L342 346.46m2.24 131.59h33.92l12.68-65.61H359.12l-14.91 65.61m-9.58-153.74-5.89 4.39-42.5 31.69-6.61 4.92-1.78 8.05-50.7 229.26-6 26.93H431.67l3.86-17.33L486.61 383l2.31-10.36-6.63-8.29-25.35-31.68-6.65-8.31H334.63z" fill="#121819"/><path d="M523.78 618.49 568.52 423.15 559.55 423.14 514.81 618.49H426.59L481.13 371.89 527.51 335.39h75.13L624.46 362.65 659.1 335.39 734.24 335.4 766.23 375.38 712.07 618.49H623.69L668.42 423.15H657.22L612.48 618.49H523.78z" fill="#121819"/><path d="M531.34 346.46h66l25.35 31.69 40.26-31.68h66l25.35 31.68L703.19 607.42H637.58l44.74-195.34H648.4L603.66 607.41h-66l44.73-195.33H550.73L506 607.41H440.38l50.7-229.26 40.26-31.69m-7.67-22.14-6 4.74-40.26 31.68-6.22 4.9-1.71 7.72-50.7 229.27-6 26.92H720.94l3.87-17.33L775.88 383l2.31-10.36-6.63-8.29-25.35-31.69-6.65-8.31H655.27l-6 4.74-23 18.1-11.62-14.53L608 324.32h-84.3z" fill="#121819"/><path d="M757.14 618.49l-32-40L771.91 371.91 817.88 335.4H967.13L947.68 423.16H849.62L846.97 433.07H946.33L926.38 520.83 826.73 520.82 824.77 530.74H922.84L902.89 618.5 757.14 618.49z" fill="#121819"/><path d="M821.74 346.47H953.33l-14.54 65.61H841.12l-8.57 32.06h99.91l-14.92 65.61h-99.9l-6.35 32.06H909l-14.92 65.61H762.46l-25.35-31.69 44.74-197.57 39.89-31.69M814 324.32l-6 4.81-39.89 31.68L762 365.66l-1.72 7.6L715.52 570.84l-2.36 10.4 6.66 8.32 25.35 31.69 6.65 8.31H911.73l3.92-17.24 14.91-65.61 3.37-14.82h1.29l3.92-17.24 14.91-65.61L960.2 422h-.92l1.14-5.12L975 351.27l6-26.94H814z" fill="#121819"/><path d="M109 22.15h97.29l27.59 31.69-14.92 57.4H153.3l6.34-23.11H127.58L117.14 128h66l25.36 32.06-19 91.33L149.2 283.1H49.29L23.94 251.41 36.62 194h66l-4.47 23.11h31.68l10.82-40.26H72.78L49.3 145.16 68.68 53.83 109 22.15M101.28.0l-6 4.74L55 36.43l-6.31 5L47 49.24 27.63 140.57l-2.07 9.76 6 8 10 13.5H18.83L15 189.22 2.32 246.63.0 257l6.62 8.27L32 296.93l6.65 8.31H156.87l6-4.74 40.26-31.69 6.34-5 1.65-7.9 19-91.33 2.11-10.14-6.42-8.12-10.25-13H236l4.31-16.58 14.91-57.4L258.2 48.1l-7.67-8.8L223 7.61 216.33.0h-115z" fill="#121819"/><path d="M265.14 22.15H430.66l-15.3 66H366.9l-44.36 195H256.93l44.37-195H250.22l14.92-66M247.44.0l-3.9 17.27-14.92 66-6.11 27h51L235.34 278.19l-6.16 27.05h111L344.13 288l40.45-177.74H433l4-17.14 15.29-66L458.52.0H247.44z" fill="#121819"/><path d="M499.25 22.16h97.67l25.35 31.69L571.19 283.11H505.58l14.91-66H486.57l-14.91 66H406L456.75 53.84l42.5-31.68m36.16 131.59 12.67-65.61H516.39l-14.91 65.61h33.93M491.9.0 486 4.4l-42.5 31.69L436.9 41l-1.78 8.05-50.7 229.26-6 26.93H588.94l3.86-17.33L643.88 58.66l2.31-10.36L639.56 40 614.22 8.33 607.57.0H491.9z" fill="#121819"/><path d="M653.2 22.16H784.8l25.34 32.06-14.54 65.6L755 153.76l25.72 32.06L765.4 251.43l-39.88 31.68H693.46l21.24-97.3H683l-23.49 97.3H593.92L653.2 22.16m85 65.61H704.27l-6.34 32.06h31.69l8.57-32.06M635.52.0l-3.91 17.25L572.33 278.2l-6.15 27.05H733.24l6-4.81 39.89-31.68 6-4.8 1.75-7.52 15.29-65.61 2.44-10.48L798 172l-12.13-15.12 24-20 5.79-4.84 1.64-7.37L831.77 59 834 48.75l-6.52-8.26L802.17 8.43 795.52.0h-160z" fill="#121819"/><path d="M845.19 22.17H1010.7l-15.29 66H947l-44.36 195H837l44.36-195H830.27l14.92-66M827.49.0l-3.9 17.26-14.92 66-6.11 27h51L815.38 278.2l-6.15 27.06h111L924.18 288 964.62 110.3H1013l4-17.15 15.29-66L1038.57.0H827.49z" fill="#121819"/><path d="M108.56 304h97.67L232 335.33l-15.28 66H151.43l8.2-31.31H125.71L98.12 499.35h32.06l6.34-31.68H121.23l7.09-32.43H210.7l-20.88 98L149.56 565H49.29L23.94 533.28 68.3 335.33 108.56 304M101 281.87l-6 4.66L54.71 317.85l-6.28 4.88-1.74 7.75L2.33 528.43.0 538.81l6.64 8.3L32 578.8l6.65 8.31H157.23l6-4.74 40.26-31.69 6.3-4.95 1.66-7.84 20.88-98 5.7-26.76h-1.39l1.57-6.78 15.29-66L256 329.7l-6.92-8.42L223.35 290l-6.65-8.09H101z" fill="#121819"/><path d="M300.54 304h97.67l25.35 31.69L372.48 565h-65.6l14.91-66H287.87L273 565H207.34L258 335.71 300.54 304m2.24 131.59H336.7L349.38 370H317.69l-14.91 65.61M293.2 281.87l-5.89 4.4L244.81 318l-6.61 4.93-1.78 8-50.7 229.26-5.95 26.93H390.24l3.86-17.33 51.08-229.27 2.31-10.36-6.64-8.29-25.34-31.68-6.65-8.31H293.2z" fill="#121819"/><path d="M489.91 304h66l25.35 31.68L621.5 304h66l25.35 31.69L661.76 565H596.15l44.74-195.34H607L562.23 565h-66L541 369.64H509.3L464.56 565H399l50.7-229.26L489.91 304m-7.67-22.15-6 4.74L436 318.31l-6.22 4.89L428 330.93l-50.7 229.26-6 26.93H679.51l3.86-17.34 51.08-229.26 2.31-10.36-6.63-8.29L704.78 290.2l-6.65-8.31H613.84l-6 4.75-23 18.09-11.63-14.53-6.64-8.31h-84.3z" fill="#121819"/><path d="M780.31 304H911.9l-14.54 65.61H799.69l-8.57 32.06H891l-14.91 65.61H776.2l-6.34 32.06h97.67L852.62 565H721l-25.35-31.69 44.74-197.57L780.31 304m-7.73-22.14-6.05 4.8-39.88 31.69-6.11 4.85-1.72 7.6L674.08 528.4l-2.35 10.4 6.66 8.33 25.35 31.68 6.65 8.32H870.3l3.92-17.24 14.91-65.61 3.37-14.82h1.29l3.92-17.24 14.91-65.61 6.15-27.05h-.92l1.13-5.12 14.54-65.61 6-26.94H772.58z" fill="#121819"/><path d="M49.3 145.16 58.7 157.85H206.71L183.12 128.02H117.14L127.58 88.13H159.64L153.3 111.24H218.91L233.83 53.84 206.24 22.15H108.95L68.68 53.83 49.3 145.16z" fill="#ffd150"/><path d="M72.78 176.85h67.85L129.81 217.11H98.13L102.6 194H36.62L23.94 251.41 49.29 283.09 149.2 283.1 189.46 251.41 208.47 160.08 206.71 157.85H58.7L72.78 176.85z" fill="#ff8b35"/><path d="M250.22 88.13H301.3L285.43 157.85H351.04L366.9 88.14H415.37L430.66 22.16 265.14 22.15 250.22 88.13z" fill="#ffd150"/><path d="M256.93 283.1H322.54L351.04 157.85H285.43L256.93 283.1z" fill="#ff8b35"/><path d="M501.48 153.75H535.41L548.08 88.14H516.39L501.48 153.75z" fill="none"/><path d="M499.25 22.16l-42.5 31.68-23 104H599.1l23.17-104L596.92 22.16zm36.16 131.59H501.48l14.91-65.61h31.69z" fill="#ffd150"/><path d="M406.04 283.1 471.65 283.11 486.57 217.12 520.49 217.13 505.58 283.11H571.19L599.1 157.85H433.74L406.04 283.1z" fill="#ff8b35"/><path d="M697.93 119.83H729.62L738.19 87.77H704.27L697.93 119.83z" fill="none"/><path d="M653.2 22.16 622.38 157.85H758.26L755 153.76l40.63-33.93 14.54-65.6L784.8 22.17zm76.42 97.67H697.93l6.34-32.06h33.92z" fill="#ffd150"/><path d="M593.92 283.11H659.53L683.02 185.81H714.71L693.46 283.11H725.52L765.4 251.43 780.69 185.82 758.26 157.85H622.38L593.92 283.11z" fill="#ff8b35"/><path d="M830.27 88.15H881.34L865.48 157.85H931.09L946.95 88.15H995.41L1010.7 22.17H845.19L830.27 88.15z" fill="#ffd150"/><path d="M836.98 283.12H902.59L931.09 157.85H865.48L836.98 283.12z" fill="#ff8b35"/><path d="M108.56 304.02 68.3 335.33 47.24 429.27H113.07L125.71 370h33.92L151.43 401.31 216.67 401.32 231.95 335.33 206.23 304.02H108.56z" fill="#ff461b"/><path d="M23.93 533.27 49.28 564.96 149.56 564.97 189.82 533.28 210.7 435.24H128.32L121.23 467.67H136.52L130.18 499.35H98.12L113.07 429.27H47.24L23.93 533.27z" fill="red"/><path d="M336.7 435.61 337.93 429.27 349.38 370H317.69L304.22 429.27 302.78 435.61H336.7z" fill="none"/><path d="M300.54 304.02 258.04 335.71 237.35 429.27H304.22L317.69 370H349.38L337.93 429.27H402.72L423.56 335.71 398.21 304.02H300.54z" fill="#ff461b"/><path d="M336.7 435.61H302.78L304.22 429.27H237.35L207.34 564.97H272.95L287.86 498.99H321.79L306.88 564.97H372.48L402.72 429.27H337.93L336.7 435.61z" fill="red"/><path d="M712.84 335.72 687.49 304.03H621.5L581.24 335.71 555.89 304.03H489.91L449.65 335.71 428.96 429.27h66.68L509.3 369.64H540.98L527.33 429.27H593.31L606.96 369.64H640.89L627.23 429.27H691.99L712.84 335.72z" fill="#ff461b"/><path d="M496.25 564.98H562.23L593.31 429.27H527.33L496.25 564.98z" fill="red"/><path d="M398.95 564.97H464.56L495.64 429.27H428.96L398.95 564.97z" fill="red"/><path d="M627.23 429.27 596.15 564.98H661.76L691.99 429.27H627.23z" fill="red"/><path d="M721.03 564.98v0H852.62v0H721.03z" fill="none"/><path d="M891.02 401.7H791.12L799.69 369.64 897.36 369.65 911.9 304.04 780.31 304.03 740.42 335.72 719.24 429.27H884.76L891.02 401.7z" fill="#ff461b"/><path d="M867.53 499.37H769.86L776.21 467.31 876.11 467.32 884.76 429.27H719.24L695.68 533.29 721.03 564.98H852.62L867.53 499.37z" fill="red"/><path d="M109 22.15h97.29l27.59 31.69-14.92 57.4H153.3l6.34-23.11H127.58L117.14 128h66l25.36 32.06-19 91.33L149.2 283.1H49.29L23.94 251.41 36.62 194h66l-4.47 23.11h31.68l10.82-40.26H72.78L49.3 145.16 68.68 53.83 109 22.15m-1.28-3.69-1 .79L66.4 50.93l-1.05.83-.28 1.31L45.69 144.4 45.34 146l1 1.33 23.48 31.69 1.11 1.49h64.89L127 213.42H102.6l3.62-18.72.85-4.39H33.65L33 193.2 20.34 250.61 20 252.34l1.1 1.37L46.41 285.4l1.11 1.39h103l1-.79 40.26-31.69 1.06-.83.27-1.32 19-91.33.35-1.69-1.07-1.35L186 125.73l-1.11-1.4h-63l8.51-32.51H154.8l-5.06 18.45-1.27 4.66h73.3l.71-2.77 14.92-57.4.49-1.89-1.28-1.47L209 19.73l-1.11-1.27H107.67z" fill="#fcfcfc"/><path d="M265.14 22.15H430.66l-15.3 66H366.9l-44.36 195H256.93l44.37-195H250.22l14.92-66m-2.95-3.69-.65 2.88-14.92 66-1 4.5h51.07L253.33 282.28l-1 4.51h73.17l.66-2.87L369.85 91.83H418.3L419 89l15.29-66 1.05-4.53H262.19z" fill="#fcfcfc"/><path d="M499.25 22.16h97.67l25.35 31.69L571.19 283.11H505.58l14.91-66H486.57l-14.91 66H406L456.75 53.84l42.5-31.68m36.16 131.59 12.67-65.61H516.39l-14.91 65.61h33.93M498 18.47l-1 .73-42.5 31.68-1.1.82-.3 1.35-50.7 229.26-1 4.48h73.16l.65-2.88 14.26-63.11h26.35L502 282.29l-1 4.51h73.19l.64-2.89L625.87 54.65l.39-1.73-1.11-1.38L599.8 19.85l-1.1-1.38H498zm8.07 131.59 13.24-58.23h24.27l-11.25 58.23z" fill="#fcfcfc"/><path d="M653.2 22.16H784.8l25.34 32.06-14.54 65.6L755 153.76l25.72 32.06L765.4 251.43l-39.88 31.68H693.46l21.24-97.3H683l-23.49 97.3H593.92L653.2 22.16m85 65.61H704.27l-6.34 32.06h31.69l8.57-32.06m-87.93-69.3-.66 2.87-59.28 261-1 4.51h73.14l.68-2.82 22.81-94.48h24.19l-20.27 92.82-1 4.48H726.8l1-.8 39.89-31.68 1-.8.29-1.25 15.28-65.62.41-1.74-1.12-1.4-23.46-29.24L798 122.67l1-.81.27-1.23L813.75 55l.38-1.72L813 51.94 787.69 19.88l-1.11-1.41H650.26zm57 73h26.09l-6.6 24.68H702.43l4.87-24.68z" fill="#fcfcfc"/><path d="M845.19 22.17H1010.7l-15.29 66H947l-44.36 195H837l44.36-195H830.27l14.92-66m-3-3.69-.65 2.87-14.92 66-1 4.51h51.07L833.38 282.3l-1 4.51h73.18l.66-2.87L949.9 91.84h48.44L999 89l15.29-66 1.05-4.53H842.24z" fill="#fcfcfc"/><path d="M108.56 304h97.67L232 335.33l-15.28 66H151.43l8.2-31.31H125.71L98.12 499.35h32.06l6.34-31.68H121.23l7.09-32.43H210.7l-20.88 98L149.56 565H49.29L23.94 533.28 68.3 335.33 108.56 304m-1.26-3.7-1 .78L66 332.41l-1.05.82-.29 1.29-44.37 198L20 534.2l1.1 1.38L46.4 567.27l1.11 1.38H150.84l1-.79 40.26-31.69 1-.83.27-1.3 20.88-98 .95-4.46H125.35l-.64 2.91-7.08 32.43-1 4.48H132l-4.87 24.3H102.68l26-122h26.16l-7 26.69L146.65 405H219.6l.66-2.86 15.29-66 .41-1.78L234.8 333l-25.72-31.31-1.1-1.35H107.3z" fill="#fcfcfc"/><path d="M300.54 304h97.67l25.35 31.69L372.48 565h-65.6l14.91-66H287.87L273 565H207.34L258 335.71 300.54 304m2.24 131.59H336.7L349.38 370H317.69l-14.91 65.61m-3.46-135.28-1 .73-42.5 31.69-1.1.82-.3 1.34-50.7 229.26-1 4.49H275.9l.65-2.88 14.27-63.1h26.35l-13.89 61.48-1 4.5h73.18l.65-2.89 51.07-229.26.39-1.73-1.11-1.38L401.1 301.72 4e2 300.33H299.32zm8.08 131.59 13.24-58.23H344.9l-11.24 58.22z" fill="#fcfcfc"/><path d="M489.91 304h66l25.35 31.68L621.5 304h66l25.35 31.69L661.76 565H596.15l44.74-195.34H607L562.23 565h-66L541 369.64H509.3L464.56 565H399l50.7-229.26L489.91 304m-1.28-3.7-1 .8-40.26 31.68-1 .81-.28 1.29-50.7 229.27-1 4.48H467.5l.66-2.87 44.08-192.47h24.11l-43.7 190.82-1 4.52h73.56l.65-2.87 44.09-192.47h26.35L592.55 564.15l-1 4.52h73.2l.64-2.89 51.08-229.26.38-1.73-1.1-1.38-25.35-31.68-1.11-1.39h-69l-1 .79-37.38 29.42-23.07-28.83-1.1-1.38h-69z" fill="#fcfcfc"/><path d="M780.31 304H911.9l-14.54 65.61H799.69l-8.57 32.06H891l-14.91 65.61H776.2l-6.34 32.06h97.67L852.62 565H721l-25.35-31.69 44.74-197.57L780.31 304M779 300.34l-1 .8-39.89 31.69-1 .81-.29 1.26L692.08 532.48l-.39 1.73 1.11 1.39 25.35 31.69 1.11 1.38H855.57l.65-2.88 14.91-65.61 1-4.51h-97.8L779.24 471h99.82l.65-2.88 14.91-65.61 1-4.51H795.92l6.6-24.67h97.8l.64-2.9 14.54-65.6 1-4.49H779z" fill="#fcfcfc"/></g></g></g></svg>