<svg xmlns="http://www.w3.org/2000/svg" width="1039.93" height="1080" viewBox="0 0 1039.93 1080"><g id="Layer_2" data-name="Layer 2"><g id="Space03_146324433"><g id="Space03_146324433-2" data-name="Space03_146324433"><path d="M444.57 860.46c7.31 5.61 14.7 11.12 22 16.63Q449.26 925.3 428.21 972q-18.12-12.63-36-25.57l.16-.19Q418.42 903.45 444.57 860.46z" fill="#a2f5e2"/><path d="M425.4 846.05q-26.29 43.23-52.7 86.38c-9-6.5-18-13.19-26.91-19.88a13.71 13.71.0 0 0 1.76-2.07c18.12-27.45 35.87-55 53.52-82.79C409.23 833.74 417.31 839.9 425.4 846.05z" fill="#a2f5e2"/><path d="M361.19 797.86l20.7 15.33c-17.5 27.47-35.09 54.86-53.06 82a10.65 10.65.0 0 0-1.53 3.39c-11.87-8.9-23.67-18-35.38-27.07z" fill="#a2f5e2"/><path d="M341.67 783.48Q307.27 820 273 856.55l-.08.1c-12.4-9.74-24.64-19.67-36.89-29.6q37.27-33.48 75.95-65.49z" fill="#a2f5e2"/><path d="M275.52 734.77 292 747q-38.14 31.56-74.86 64.75c-8.34-6.93-16.6-13.87-24.94-20.81A548.46 548.46.0 0 1 275.52 734.77z" fill="#a2f5e2"/><path d="M849.17 898.11c8.85 6.61 17.7 13.22 26.54 19.74-22.44 30.77-46.23 60.6-71.51 89.15q-10.59 11.87-21.31 23.48c-6.54 7-13 15.07-20.81 20.64-4.93 3.47-17.12 8.69-18.14-1.07C742.33 1034.62 819.36 939.87 849.17 898.11z" fill="#b4a2db"/><path d="M157.12 318.09a227.13 227.13.0 0 1 18.1 15.33C133.94 386.51 45.77 493 44.21 495.31c-2.5 3.49-13.1 20.56-19.46 14.59-4.67-4.36 5.88-22.77 8.24-26.78C44.61 463 59.71 444.37 73.45 425.63Q113.86 370.72 157.12 318.09z" fill="#b4a2db"/><path d="M1026.07 13.92c13 15.24 14.82 37.29 13.49 56.35-1.2 18.6-7.5 37.28-12.74 55a565.26 565.26.0 0 1-20.55 57.48C987.66 227.05 964 269 940.41 310.71a12.2 12.2.0 0 1-2.54 3.14 13.57 13.57.0 0 1-2.25 5.08q-47.7 62.4-95.42 124.73l-52.65 68.8c-21.13 54.48-26.32 222.45 1.76 277.64a335.69 335.69.0 0 1 61.42-58.68c17.41-12.76 49.33-34.29 69.61-15.24 20.68 19.46-4.19 54.42-15 72.32-16.74 27.84-36.2 53.63-56.14 79.2-.23.3-.48.5-.72.8.3.32.6.56.9.89.8.81 36.61 26.05 50.8 36.59 5.54 4.08 5.37 11.9 1.69 17-33.82 47.2-70.81 92.39-111.29 134.28-15.06 15.55-39.29 32.61-60.15 15.68-15.48-12.56-12-31.12-2.79-45.71Q618.41 952.15 514 870.09c-3.79 4.88-8 9.53-11.29 14.71-7.33 11.35-13.73 5-15.16 5.08q-18.09 49.77-40 98.15c-1.24 2.73-8 21.55-23.67 10.36C336.49 936 250.35 871.91 168.51 802.51c-5.22-4.48-12.74-13.83 2-25.14 29.5-22.45 58.83-44.69 91.33-62.43a11.65 11.65.0 0 1 2.43-9.4c3.25-4.1 6.41-8.2 9.56-12.39L55.57 520c-6.32 7.29-14 13.29-24.13 14.53C19.84 536 7.65 530.87 2.81 519.71c-10.5-24.19 10.84-51.79 24-70.47q55.8-79 117.61-153.59a11.1 11.1.0 0 1 4.31-3.41 12.32 12.32.0 0 1 14 .07A220.42 220.42.0 0 1 193.79 318c20.26-20.68 40.08-42.21 62-61.17 17.83-15.58 47-36.55 72.12-28.23 33.52 11 14.57 47.72 3.27 68.44-13.39 24.63-30.06 47.17-47.11 69.39a383 383 0 0 0 75.39 17.79c55.38 7.33 119.16 5 170.09-20.05.6-.25 1.22-.4 1.73-.63 59.09-72.34 121-142.28 188.77-206.56a16 16 0 0 1 6.26-3.61c40.9-38.7 84.36-74.26 133.36-102.33C895.09 30.71 934.51 9.65 975 1.75 993.22-1.76 1013.21-1.06 1026.07 13.92zm-10.68 56.71c1.43-12.88 1.71-36-11-44.14-11.81-7.47-32.79.28-44.67 4.21-79.37 26.65-149.63 77-210.35 133.75Q836 229 922.56 293.47c22.33-39.63 44.53-79.61 62.12-121.62a529.87 529.87.0 0 0 18.52-51.25C1008.06 104.49 1013.56 87.5 1015.39 70.63zm-436 674.17Q744.34 529.34 909.25 313.69 819.84 247 730.34 180.33c-35.3 33.9-69 69.25-101.52 105.82-61.48 69.18-118.65 142-175.42 215q-82.66 106.41-165.23 213 101.15 73.55 200.48 149.32Q534 804.15 579.41 744.8zm315.15 14c1.72-3.31 12.91-20.71 9.24-24.9-4.38-5-20.87 5.4-24.92 7.8a223.11 223.11.0 0 0-27.21 19.51 323.05 323.05.0 0 0-49.86 51.56c8.85 13.52 19.2 26 30.13 37.93 15.27-19.61 30.35-39.3 43.87-60.08C882.54 780.29 888.88 769.68 894.56 758.77zM875.71 917.85c-8.84-6.52-17.69-13.13-26.54-19.74-29.81 41.76-106.84 136.51-105.23 151.94 1 9.76 13.21 4.54 18.14 1.07 7.85-5.57 14.27-13.68 20.81-20.64q10.75-11.61 21.31-23.48C829.48 978.45 853.27 948.62 875.71 917.85zm-134.32 89.6q44.25-61.92 88.53-123.74c-20.76-21.87-41.47-44.2-56.07-70.75-16.38-29.77-45.21-89.63-24.73-250.22q-110.24 144-220.45 288.15Q632.56 932.47 741.39 1007.45zM501.3 400.6c-46.76 13.39-99.12 13.55-145.67 7.47a406.59 406.59.0 0 1-162.32-58.6Q133.4 426.48 71.72 502l217 172.17q36.39-47.11 73-94.15C408 520.26 454 459.87 501.3 400.6zM466.57 877.09c-7.3-5.51-14.69-11-22-16.63q-26.07 42.94-52.22 85.8l-.16.19q17.9 12.93 36 25.57Q449.31 925.3 466.57 877.09zM372.7 932.43q26.3-43.23 52.7-86.38c-8.09-6.15-16.17-12.31-24.33-18.36-17.65 27.75-35.4 55.34-53.52 82.79a13.71 13.71.0 0 1-1.76 2.07C354.74 919.24 363.68 925.93 372.7 932.43zm9.19-119.24-20.7-15.33-69.27 73.67c11.71 9.09 23.51 18.17 35.38 27.07a10.65 10.65.0 0 1 1.53-3.39C346.8 868.05 364.39 840.66 381.89 813.19zm-63-546.13c6-16.86-3.74-16.11-6.56-15.54-20.9 4.24-39.07 20.93-53.88 35.38-15.45 15.25-30.6 30.81-45.85 46.3a373.56 373.56.0 0 0 47.92 24.33c14.6-19.09 29.47-38.13 41.95-58.71C308.57 288.59 314.94 278.33 318.88 267.06zM273 856.55q34.4-36.54 68.71-73.07l-29.73-21.92q-38.64 32-75.95 65.49c12.25 9.93 24.49 19.86 36.89 29.6zM292 747l-16.51-12.18a548.46 548.46.0 0 0-83.29 56.12c8.34 6.94 16.6 13.88 24.94 20.81Q253.8 778.43 292 747zM175.22 333.42a227.13 227.13.0 0 0-18.1-15.33q-43.2 52.67-83.67 107.54C59.71 444.37 44.61 463 33 483.12c-2.36 4-12.91 22.42-8.24 26.78 6.36 6 17-11.1 19.46-14.59C45.77 493 133.94 386.51 175.22 333.42z" fill="#624e87"/><path d="M1004.42 26.49c12.68 8.09 12.4 31.26 11 44.14-1.83 16.87-7.33 33.86-12.19 50a529.87 529.87.0 0 1-18.52 51.25c-17.59 42-39.79 82-62.12 121.62Q836 229.06 749.4 164.45c60.72-56.73 131-107.1 210.35-133.75C971.63 26.77 992.61 19 1004.42 26.49z" fill="#b4a2db"/><path d="M909.25 313.69Q744.33 529.3 579.41 744.8q-45.35 59.34-90.76 118.69-99.37-75.74-200.48-149.32 82.65-106.53 165.23-213c56.77-73.09 113.94-145.86 175.42-215 32.51-36.57 66.22-71.92 101.52-105.82Q819.76 247 909.25 313.69zm-133.73 54c37.75-62.86-28.83-105.33-78.49-57.83C677 329 682.9 367.05 705.34 383.64 727 399.59 762.68 389.14 775.52 367.72zM642.86 525c-1.47-21-50.85-75-103.55-22.12-11.2 11.3-16.94 28.48-15.25 44.72 5.35 51.28 51.52 57.14 68.25 52.52C644.1 585.88 644 542.12 642.86 525z" fill="#ffadc6"/><path d="M903.8 733.87c3.67 4.19-7.52 21.59-9.24 24.9-5.68 10.91-12 21.52-18.75 31.82-13.52 20.78-28.6 40.47-43.87 60.08-10.93-11.95-21.28-24.41-30.13-37.93a323.05 323.05.0 0 1 49.86-51.56 223.11 223.11.0 0 1 27.21-19.51C882.93 739.27 899.42 728.85 903.8 733.87z" fill="#a2f5e2"/><path d="M697 309.89c49.66-47.5 116.24-5 78.49 57.83-12.84 21.42-48.52 31.87-70.18 15.92C682.9 367.05 677 329 697 309.89zm58 45c25-38.93-17.34-54.51-37.29-31.63-9.94 11.26-10.55 29.53.36 39.6C728.38 372.36 748.51 365 755 354.88z" fill="#624e87"/><path d="M829.92 883.71q-44.28 61.78-88.53 123.74Q632.57 932.57 528.67 850.89 638.89 706.77 749.12 562.74C728.64 723.33 757.47 783.19 773.85 813 788.45 839.51 809.16 861.84 829.92 883.71z" fill="#b4a2db"/><path d="M717.7 323.25C737.65 300.37 780 316 755 354.88c-6.48 10.09-26.61 17.48-36.93 8C707.15 352.78 707.76 334.51 717.7 323.25z" fill="#736b9e"/><path d="M539.31 502.91C592 450.06 641.39 504 642.86 525c1.16 17.09 1.24 60.85-50.55 75.12-16.73 4.62-62.9-1.24-68.25-52.52C522.37 531.39 528.11 514.21 539.31 502.91zm69.31 60.93c16.8-16.91 10.17-33.17 8.68-37.14-11-28.8-45.42-24.5-57.19-11-5.78 6.52-11.09 15-12.05 23.77-1 9.34 4.17 40.91 34.32 37.67C592.4 576 601.8 570.74 608.62 563.84z" fill="#624e87"/><path d="M617.3 526.7c1.49 4 8.12 20.23-8.68 37.14-6.82 6.9-16.22 12.18-26.24 13.31-30.15 3.24-35.32-28.33-34.32-37.67 1-8.8 6.27-17.25 12.05-23.77C571.88 502.2 606.32 497.9 617.3 526.7z" fill="#736b9e"/><path d="M355.63 408.07c46.55 6.08 98.91 5.92 145.67-7.47C454 459.87 408 520.26 361.71 580q-36.52 47.13-73 94.15L71.72 502q61.66-75.57 121.59-152.48A406.59 406.59.0 0 0 355.63 408.07z" fill="#b4a2db"/><path d="M312.32 251.52c2.82-.57 12.6-1.32 6.56 15.54-3.94 11.27-10.31 21.53-16.42 31.76-12.48 20.58-27.35 39.62-41.95 58.71a373.56 373.56.0 0 1-47.92-24.33c15.25-15.49 30.4-31.05 45.85-46.3C273.25 272.45 291.42 255.76 312.32 251.52z" fill="#a2f5e2"/></g></g></g></svg>