<svg xmlns="http://www.w3.org/2000/svg" width="1080" height="738.93" viewBox="0 0 1080 738.93"><g id="Layer_2" data-name="Layer 2"><g id="Open_air06_504775064"><g id="Open_air06_504775064-2" data-name="Open_air06_504775064"><path d="M0 373.94V3.06H75.47V310.93H263.22v63z" fill="#759843"/><path d="M309.53 373.94V0H385V373.94z" fill="#759843"/><path d="M547.14 373.94 413.49.0h81.86L590 276.75 681.57.0h80.09L627.76 373.94z" fill="#759843"/><path d="M794.94 373.94V0h277.28V63.25H870.45v82.9h187.74v63H870.45V310.93h208.91v63z" fill="#759843"/><path d="M165.79 735.29V522h42.48l50.47 151q7 21.09 10.19 31.55 3.63-11.62 11.33-34.18L331.34 522h38V735.29H342.1V556.78l-62 178.51H254.65L193 553.73V735.29z" fill="#48a09d"/><path d="M551.83 522H580V645.24q0 32.14-7.25 51T546.5 727.07q-19 11.85-49.83 11.86-29.94.0-49-10.33a59 59 0 0 1-27.21-29.89q-8.16-19.59-8.17-53.47V522h28.24V645.09q0 27.79 5.18 41a39.08 39.08.0 0 0 17.73 20.29q12.57 7.11 30.79 7.13 31.11.0 44.36-14.12t13.25-54.26z" fill="#48a09d"/><path d="M614.44 666.76l26.61-2.33q1.91 16 8.8 26.27t21.46 16.59q14.6 6.33 32.74 6.32 16.14.0 28.52-4.8T751 695.65a30.65 30.65.0 0 0 6-18.27 27.64 27.64.0 0 0-5.83-17.53q-5.8-7.49-19.18-12.57-8.62-3.36-38-10.41t-41.16-13.32q-15.24-8-22.77-19.85a48.89 48.89.0 0 1-7.5-26.55A54.23 54.23.0 0 1 631.74 547q9.16-14 26.78-21.31t39.14-7.28q23.72.0 41.84 7.64t27.84 22.48a64.66 64.66.0 0 1 10.48 33.6l-27.06 2q-2.19-20.22-14.78-30.54t-37.15-10.34q-25.62.0-37.33 9.38c-7.81 6.27-11.72 13.79-11.72 22.62a24.19 24.19.0 0 0 8.31 18.91q8.16 7.44 42.55 15.21T747.85 623q18.64 8.6 27.48 21.75t8.89 30.33a58 58 0 0 1-9.74 32.09q-9.75 15.06-28 23.43t-41.09 8.36q-28.93.0-48.52-8.44a68 68 0 0 1-30.69-25.39A72.07 72.07.0 0 1 614.44 666.76z" fill="#48a09d"/><path d="M824.56 735.29V522H852.8V735.29z" fill="#48a09d"/><path d="M1051.76 660.51l28.24 7.14q-8.89 34.76-32 53t-56.36 18.26q-34.47.0-56.08-14T902.7 684.22a145.31 145.31.0 0 1-11.26-57.17q0-33.31 12.71-58.12t36.23-37.69a106.08 106.08.0 0 1 51.72-12.87q32 0 53.84 16.3t30.4 45.82L1048.57 587q-7.47-23.28-21.53-33.9t-35.51-10.62q-24.62.0-41.1 11.79a62.41 62.41.0 0 0-23.23 31.63 128.4 128.4.0 0 0-6.67 41q0 27.2 7.92 47.49t24.68 30.34a69.3 69.3.0 0 0 36.23 10q23.71.0 40.13-13.68T1051.76 660.51z" fill="#48a09d"/></g></g></g></svg>