<svg xmlns="http://www.w3.org/2000/svg" width="853.96" height="1080" viewBox="0 0 853.96 1080"><g id="Layer_2" data-name="Layer 2"><g id="Tourism07_50978689"><g id="Tourism07_50978689-2" data-name="Tourism07_50978689"><path d="M567.82 870.35 538.23 564.57 508.95 569.06 540.82 841.78 567.82 870.35z" fill="#444" fill-rule="evenodd"/><path d="M492.75 131.25 540.18 576.6 506.59 580.74 448.99 35.35 472.95 37.07 478.98 57.08 484.66 81.92 492.75 131.25z" fill="#666" fill-rule="evenodd"/><path d="M461.55 64.47h0a13.38 13.38.0 0 1-.24 1.7v.07.05h0v.22h0v.11h0v.1l-.06.21v0 .06.0h0a8.76 8.76.0 0 1-2.33 3.79h0a5.17 5.17.0 0 1-3.47 1.45h0c-3.46.0-6.29-3.9-6.29-8.66V46.92a11.92 11.92.0 0 1 .29-2.58 7.94 7.94.0 0 1 4.11-5.68 4.68 4.68.0 0 1 1.89-.4h0a5.06 5.06.0 0 1 3.24 1.25h0a8.59 8.59.0 0 0 5.25-3.65 11.93 11.93.0 0 0-8.49-3.55h0a11.88 11.88.0 0 0-6 1.6h0a12 12 0 0 0-4.81 5.2 11.74 11.74.0 0 0-1.18 5.16V67.44a12 12 0 0 0 12 12h0a12 12 0 0 0 12-12V44.28a11.91 11.91.0 0 0-.2-2.17v0l-.28.28a13.88 13.88.0 0 1-2.25 1.87v0a14.31 14.31.0 0 1-3 1.51c0 .36.06.74.06 1.11V63.67C461.58 63.94 461.57 64.2 461.55 64.47z" fill="#444" fill-rule="evenodd"/><path d="M449.24 66a15 15 0 0 0-5.09 5.84 15.64 15.64.0 0 0-1.6 6.91V95.47c0 8.29 6.44 15.08 14.31 15.08h0a13.67 13.67.0 0 0 7.63-2.35v0a13.82 13.82.0 0 0 2.25-1.86L467 106h0a15.45 15.45.0 0 0 4.11-10.55V78.71a15.52 15.52.0 0 0-3.95-10.38 11.89 11.89.0 0 1-2.93 7 12.07 12.07.0 0 1 1.55 6V93a11.82 11.82.0 0 1-2.06 6.76h0a8.55 8.55.0 0 1-5.25 3.65 6.9 6.9.0 0 1-1.44.15h0c-4.82.0-8.76-4.75-8.76-10.56V81.26a12.29 12.29.0 0 1 .57-3.73 10.25 10.25.0 0 1 4.27-5.72 7.47 7.47.0 0 1 3.92-1.12h0a7.52 7.52.0 0 1 1.65.19 8.76 8.76.0 0 0 2.33-3.79h0v0-.06.0l.06-.21v-.1h0v-.11h0v-.22h0v-.05-.07a13.38 13.38.0 0 0 .24-1.7 13.39 13.39.0 0 0-4.69-.84h0A13.62 13.62.0 0 0 449.24 66z" fill="#a4a3a3" fill-rule="evenodd"/><path d="M461.55 128.64h0a12.89 12.89.0 0 1-.24 1.7v.07.0h0v.22h0v.12h0v.1l-.06.2v0 .07.05h0a8.85 8.85.0 0 1-2.33 3.8h0a5.17 5.17.0 0 1-3.47 1.45h0c-3.46.0-6.29-3.9-6.29-8.67V111.09a12.09 12.09.0 0 1 .29-2.59 7.92 7.92.0 0 1 4.11-5.67 4.52 4.52.0 0 1 1.89-.4h0a5 5 0 0 1 3.24 1.25h0a8.63 8.63.0 0 0 5.25-3.65 11.94 11.94.0 0 0-8.49-3.56h0a11.89 11.89.0 0 0-6 1.61h0a12.08 12.08.0 0 0-4.81 5.2 11.82 11.82.0 0 0-1.18 5.17V131.6a12 12 0 0 0 12 12h0a12 12 0 0 0 12-12V108.45a11.91 11.91.0 0 0-.2-2.17v0l-.28.28a14.41 14.41.0 0 1-2.25 1.87v0a14.82 14.82.0 0 1-3 1.51c0 .35.06.73.06 1.11v16.74Q461.58 128.23 461.55 128.64z" fill="#444" fill-rule="evenodd"/><path d="M449.24 130.13a14.94 14.94.0 0 0-5.09 5.84 15.61 15.61.0 0 0-1.6 6.91v16.75c0 8.3 6.44 15.09 14.31 15.09h0a13.67 13.67.0 0 0 7.63-2.35v0a13.82 13.82.0 0 0 2.25-1.86l.28-.29v0h0a15.43 15.43.0 0 0 4.11-10.55V142.88a15.5 15.5.0 0 0-3.95-10.38 11.89 11.89.0 0 1-2.93 7 12.07 12.07.0 0 1 1.55 6v11.74a11.84 11.84.0 0 1-2.06 6.76h0a8.59 8.59.0 0 1-5.25 3.65 6.9 6.9.0 0 1-1.44.15h0c-4.82.0-8.76-4.75-8.76-10.56V145.43a12.29 12.29.0 0 1 .57-3.73 10.25 10.25.0 0 1 4.27-5.72 7.47 7.47.0 0 1 3.92-1.12h0a7 7 0 0 1 1.65.19 8.85 8.85.0 0 0 2.33-3.8h0v-.05-.07.0l.06-.2v-.1h0v-.12h0v-.22h0v0-.07a12.89 12.89.0 0 0 .24-1.7 13.62 13.62.0 0 0-4.69-.83h0A13.62 13.62.0 0 0 449.24 130.13z" fill="#a4a3a3" fill-rule="evenodd"/><path d="M461.55 193.65h0a13.13 13.13.0 0 1-.24 1.7v.07.05h0v.22h0v.11h0v.11l-.06.2v0 .06.0h0a8.85 8.85.0 0 1-2.33 3.8h0a5.16 5.16.0 0 1-3.47 1.44h0c-3.46.0-6.29-3.89-6.29-8.66V176.1a12.07 12.07.0 0 1 .29-2.58 8 8 0 0 1 4.11-5.68 4.68 4.68.0 0 1 1.89-.4h0a5.06 5.06.0 0 1 3.24 1.25h0a8.59 8.59.0 0 0 5.25-3.65 11.93 11.93.0 0 0-8.49-3.55h0a11.88 11.88.0 0 0-6 1.6h0a12 12 0 0 0-4.81 5.2 11.81 11.81.0 0 0-1.18 5.16v23.15a12 12 0 0 0 12 12h0a12 12 0 0 0 12-12V173.46a11.81 11.81.0 0 0-.2-2.16h0l-.28.29a13.82 13.82.0 0 1-2.25 1.86v0a14.31 14.31.0 0 1-3 1.51c0 .36.06.74.06 1.11v16.75C461.58 193.12 461.57 193.39 461.55 193.65z" fill="#444" fill-rule="evenodd"/><path d="M449.24 195.15a15 15 0 0 0-5.09 5.83 15.68 15.68.0 0 0-1.6 6.92v16.75c0 8.3 6.44 15.08 14.31 15.08h0a13.6 13.6.0 0 0 7.63-2.35h0a14.41 14.41.0 0 0 2.25-1.87l.28-.29h0a15.43 15.43.0 0 0 4.11-10.55V207.9a15.48 15.48.0 0 0-3.95-10.38 11.92 11.92.0 0 1-2.93 7 12 12 0 0 1 1.55 6v11.74a11.87 11.87.0 0 1-2.06 6.77h0a8.59 8.59.0 0 1-5.25 3.65 6.9 6.9.0 0 1-1.44.15h0c-4.82.0-8.76-4.76-8.76-10.57V210.44a12.27 12.27.0 0 1 .57-3.72 10.18 10.18.0 0 1 4.27-5.72 7.47 7.47.0 0 1 3.92-1.12h0a7 7 0 0 1 1.65.19 8.85 8.85.0 0 0 2.33-3.8h0v0-.06.0l.06-.2v-.11h0v-.11h0v-.22h0v-.05-.07a13.13 13.13.0 0 0 .24-1.7 13.62 13.62.0 0 0-4.69-.84h0A13.56 13.56.0 0 0 449.24 195.15z" fill="#a4a3a3" fill-rule="evenodd"/><path d="M461.55 257.81h0a13.29 13.29.0 0 1-.24 1.71v.07.05h0v.22h0v.12h0v.1l-.06.21v0 .06.05h0a8.76 8.76.0 0 1-2.33 3.79h0a5.21 5.21.0 0 1-3.47 1.44h0c-3.46.0-6.29-3.9-6.29-8.66V240.27a12 12 0 0 1 .29-2.58A7.94 7.94.0 0 1 453.4 232a4.68 4.68.0 0 1 1.89-.4h0a5.06 5.06.0 0 1 3.24 1.25h0a8.59 8.59.0 0 0 5.25-3.65 11.93 11.93.0 0 0-8.49-3.55h0a11.88 11.88.0 0 0-6 1.6h0a12.11 12.11.0 0 0-4.81 5.21 11.74 11.74.0 0 0-1.18 5.16v23.15a12 12 0 0 0 12 12h0a12 12 0 0 0 12-12V237.63a11.81 11.81.0 0 0-.2-2.16h0l-.28.3a14.35 14.35.0 0 1-2.25 1.86h0a14.35 14.35.0 0 1-3 1.52c0 .36.06.74.06 1.11V257C461.58 257.28 461.57 257.56 461.55 257.81z" fill="#444" fill-rule="evenodd"/><path d="M449.24 259.31a15 15 0 0 0-5.09 5.84 15.67 15.67.0 0 0-1.6 6.91v16.76c0 8.29 6.44 15.08 14.31 15.08h0a13.67 13.67.0 0 0 7.63-2.35v0a14.35 14.35.0 0 0 2.25-1.86l.28-.29h0a15.39 15.39.0 0 0 4.11-10.54V272.06a15.45 15.45.0 0 0-3.95-10.37 11.89 11.89.0 0 1-2.93 6.95 12.07 12.07.0 0 1 1.55 6v11.74a11.82 11.82.0 0 1-2.06 6.76h0a8.55 8.55.0 0 1-5.25 3.65 6.9 6.9.0 0 1-1.44.15h0c-4.82.0-8.76-4.75-8.76-10.56V274.61a12.22 12.22.0 0 1 .57-3.72 10.24 10.24.0 0 1 4.27-5.73 7.47 7.47.0 0 1 3.92-1.11h0a7.52 7.52.0 0 1 1.65.18 8.76 8.76.0 0 0 2.33-3.79h0v-.05-.06.0l.06-.21v-.1h0v-.12h0v-.22h0v-.05-.07a13.29 13.29.0 0 0 .24-1.71 13.62 13.62.0 0 0-4.69-.83h0A13.62 13.62.0 0 0 449.24 259.31z" fill="#a4a3a3" fill-rule="evenodd"/><path d="M449 320.93V304.17a12.07 12.07.0 0 1 .29-2.58 7.94 7.94.0 0 1 4.11-5.67 4.52 4.52.0 0 1 1.89-.4h0a5 5 0 0 1 3.24 1.24h0a8.55 8.55.0 0 0 5.25-3.65 11.93 11.93.0 0 0-8.49-3.55h0a11.79 11.79.0 0 0-6 1.61h0a12 12 0 0 0-4.81 5.2 11.77 11.77.0 0 0-1.18 5.16v23.52.34h0l.06.69h0v.08c.05.42.13.84.22 1.25v0h0a12 12 0 0 0 11.64 9.22h0a12 12 0 0 0 12-12V301.53a11.81 11.81.0 0 0-.2-2.16h0l-.28.29a14.35 14.35.0 0 1-2.25 1.86v0a13.84 13.84.0 0 1-3 1.51c0 .37.06.74.06 1.11v16.76c0 4.76-2.83 8.65-6.29 8.65h0a5.5 5.5.0 0 1-4.3-2.35S449 322.07 449 320.93z" fill="#444" fill-rule="evenodd"/><path d="M491.75 346.94a3.1 3.1.0 1 0 3.54-5.09 165.37 165.37.0 0 0-28.11-15.72c-2-.83-4-1.6-6-2.27A50.07 50.07.0 0 0 449 321.2c.05 2.13.76 4.9 2 6a65.73 65.73.0 0 1 6.8 1.64c2.36.76 4.81 1.72 7.23 2.77 13.47 5.9 26.67 15.26 26.73 15.3zm-43.88 63.52c-2.76-1.54-5.52-3.19-8.21-4.88a304.25 304.25.0 0 1-25.93-18.41 3.09 3.09.0 0 1 3.86-4.83c.08.07 17.19 13.85 33.47 23A89.38 89.38.0 0 0 462.84 411a27.68 27.68.0 0 0 9.78 2.18 11.74 11.74.0 0 0 8-3.09h0a11.64 11.64.0 0 0 3.41-6.72 18.23 18.23.0 0 0-1.43-9.82c-2.86-6.9-9.66-14.59-21.94-21.6-11.08-6.33-18.6-12.12-23.46-17.34-4.47-4.8-6.78-9.23-7.57-13.24a15.9 15.9.0 0 1 1.75-11.05l.12-.23A22.06 22.06.0 0 1 435.6 325a14.45 14.45.0 0 1 7.72-3.56 29.75 29.75.0 0 0 .33 6 9.13 9.13.0 0 0-3.83 2.06 15.86 15.86.0 0 0-3 3.65l-.08.13a9.93 9.93.0 0 0-1.08 6.88c.58 2.94 2.41 6.33 6 10.2 4.45 4.79 11.49 10.17 22 16.18 13.59 7.77 21.25 16.57 24.59 24.64a24.27 24.27.0 0 1 1.81 13.14 17.8 17.8.0 0 1-5.28 10.24h0a17.88 17.88.0 0 1-12.09 4.76c-6.53.13-15.69-3.75-24.85-8.86h0z" fill="#a4a3a3" fill-rule="evenodd"/><path d="M722.88 694.29 853.96 1080 811.08 1041.53 692.39 703.95 722.88 694.29z" fill="#c5c6c6" fill-rule="evenodd"/><path d="M482.61.0 700.57 627.06 667.17 638.43 446.8 8.26 482.61.0z" fill="#a4a3a3" fill-rule="evenodd"/><path d="M333.41 515.18s-66.15-1.21-48.75 31.74 16.88 21.22 16.88 21.22l21-31z" fill="#444" fill-rule="evenodd"/><path d="M283.13 567.15c24.88 100.17 28 175.92 153.58 177.12 61.12.59 97-7.27 120.65-30.09 19.57-18.91 31.07-47.59 38.08-94.64l4.81-32.29C599.76 581.9 385.32 663.24 283.13 567.15z" fill="#666" fill-rule="evenodd"/><path d="M606.77 575s23.71 28.71-7.9 41.08-60.46-1.38-60.46-1.38l-7.56-8.24 10.3-11.68L561.08 590l26.8-4.81z" fill="#444" fill-rule="evenodd"/><path d="M447.7 498.61c-91.63.0-165.95 27.38-165.95 61.15s74.32 61.16 166 61.16 166-27.39 166-61.16S539.33 498.61 447.7 498.61z" fill="#a4a3a3" fill-rule="evenodd"/><path d="M458.19 522.65c0-13.59 16.45-14.18 16.45-20.35.0-11.3-60.85-10.59-60.85.0.0 6.17 16.45 6.76 16.45 20.35C430.24 527.19 458.19 527.33 458.19 522.65z" fill="#444" fill-rule="evenodd"/><path d="M599.39 601.62c-2.06-83.16-47-196-148.35-196.31A91.79 91.79.0 0 0 462.86 411c89.47 8.13 129.88 112 131.38 190.75l5.15-.12zm-159.74-196C369.83 409.35 313.76 450 302.91 525l5.11.73c10.92-75.47 68.81-114.4 139.86-115.29C445.11 408.94 442.35 407.28 439.65 405.59z" fill="#444" fill-rule="evenodd"/><path d="M152.31 684.04.0 1061.87 44.95 1025.84 182.22 695.38 152.31 684.04z" fill="#c5c6c6" fill-rule="evenodd"/><path d="M430.79 4.17 178.32 618.15 211.04 631.36 466.09 14.41 430.79 4.17z" fill="#a4a3a3" fill-rule="evenodd"/><path d="M472.43 2.35 853.96 1080 831.16 1035.86 464.71 4.13 472.43 2.35z" fill="#fcfcfc" fill-rule="evenodd"/><path d="M699.84 623.23a146.84 146.84.0 0 1-33.71 12.49c-2.69.67-2.45.34-1.57 3.13L689.77 707c2 5.14 1.32 5.73 6.64 4.86a75.93 75.93.0 0 0 27.4-9.65c5.75-3.38 4.9-3.19 2.77-9.31-8.05-23-16-45.67-24.05-68.77C701.91 622.41 701.53 622.38 699.84 623.23z" fill="#666" fill-rule="evenodd"/><path d="M696.69 676.7a7.08 7.08.0 1 0-6.89-7.08A7 7 0 0 0 696.69 676.7z" fill="#fcfcfc" fill-rule="evenodd"/><path d="M438.62 6.44.0 1061.87 22.8 1017.73 446.31 8.67 438.62 6.44z" fill="#fcfcfc" fill-rule="evenodd"/><path d="M179.27 614.37a146.85 146.85.0 0 0 33 14.34c2.66.82 2.43.48 1.4 3.21l-29 66.69c-2.27 5-1.63 5.64-6.89 4.48A75.73 75.73.0 0 1 151 691.93c-5.56-3.7-4.73-3.45-2.25-9.45 9.31-22.54 18.49-44.71 27.83-67.32C177.25 613.43 177.63 613.42 179.27 614.37z" fill="#666" fill-rule="evenodd"/><path d="M180.22 653.8a7.08 7.08.0 1 1-7.27 6.68A7 7 0 0 1 180.22 653.8z" fill="#fcfcfc" fill-rule="evenodd"/><path d="M515.49 12.23 493.22 30.5 490.15 21.68 508.25 5.67 515.49 12.23z" fill="#f4ac14" fill-rule="evenodd"/><path d="M450.72 28.1 422.82 28.79 407.31 6.71 399.05 12.92 415.93 39.14 442.11 38.45 450.72 28.1z" fill="#f4ac14" fill-rule="evenodd"/><path d="M461.54 33.82 508.57 34.1 524.07 12.02 532.34 18.23 515.46 44.45 470.16 44.17 461.54 33.82z" fill="#f4ac14" fill-rule="evenodd"/><path d="M389.9 536.05c11.09 7.63 32 12.77 56 12.77 35.57.0 64.42-11.32 64.42-25.28.0-6.72-6.69-12.83-17.6-17.36 5.37 3.69 8.45 8 8.45 12.52.0 14-28.85 25.28-64.43 25.28C418.27 544 401.64 540.93 389.9 536.05z" fill="#fcfcfc" fill-rule="evenodd"/><path d="M364.55 557.63c18.85 8.7 48.27 14.3 81.32 14.3 56.88.0 103-16.56 103-37 0-10.8-12.89-20.53-33.43-27.29 13.57 6.27 21.65 14.15 21.65 22.7.0 20.44-46.12 37-103 37C407.29 567.35 382.88 563.67 364.55 557.63z" fill="#fcfcfc" fill-rule="evenodd"/><path d="M317.6 565.36c20.84 17.69 70.42 30.13 128.27 30.13 76.64.0 138.8-21.84 138.8-48.78.0-9.78-8.2-18.9-22.31-26.53 6.79 5.75 10.54 12.05 10.54 18.67.0 26.94-62.16 48.78-138.8 48.78C385.28 587.63 342.34 578.76 317.6 565.36z" fill="#fcfcfc" fill-rule="evenodd"/><path d="M421.47 504.05c4.63 1.79 13.35 3 23.36 3 14.84.0 26.88-2.66 26.88-5.94.0-1.58-2.79-3-7.34-4.09 2.24.87 3.52 1.88 3.52 3 0 3.28-12 5.94-26.88 5.94A91 91 0 0 1 421.47 504.05z" fill="#fcfcfc" fill-rule="evenodd"/><path d="M349.88 947.26c-29.64-19.44-50.39-60-47.68-91.78 1.57-18.48 25.23-23.33 18.64-46 6.39 1.06 18.43 15.88 13.26 30.44-3 8.49-.47 13.1 3.71 17.51 11.29-22.88-5.51-27.32-2.8-59.21 2.8-32.95 45-41.63 33.27-82.13 11.41 1.91 28.18 22.55 22 49.39-6.4 27.78 18 19.12 26.69 51.76 11.76-26.62-12-36.16-4.86-58.72s39.2-35.19 43.53-61.1c5.39 5.2 14.12 13.06 7 35-5.58 17.2 16.77 26 29.67 42.66 4.45 5.74 14.8 27.37 8.87 41.62 7.33-2.24 11.84-21.86 7.9-32.1-6.49-16.88-12.93-40.08 2.15-50.09-2.18 8.07 2.1 18.66 17.94 32 17.48 14.66 27.82 30 20.69 57.35-4.84 18.57-13.53 28.37-15.61 43.55 10.17-7.31 21.38-7.41 20.58-22.58-.82-15.42 14.91-26.21 21.35-25.43-12.78 19.91 8.54 31.29 4.8 49.45-3.79 18.37-17.28 17.64-16.27 34.2 3.09 50.75-90.92 71.83-131.92 68C399.57 967.81 376.41 964.66 349.88 947.26z" fill="#f4ac14" fill-rule="evenodd"/><path d="M385 903.76c8.29-12.84-2.24-14.51-.62-31.12 1.59-16.44 25.62-20.76 18.93-41 6.49 1 16 11.24 12.51 24.63-3.63 13.85 10.26 9.53 15.2 25.81 6.69-13.28-6.83-18-2.77-29.28s22.31-17.55 24.77-30.47c3.07 2.59 8 6.52 4 17.46-3.18 8.58 9.55 13 16.89 21.27 2.53 2.86 8.42 13.65 5 20.75 4.17-1.11 6.74-10.89 4.5-16-3.69-8.42-7.35-20 1.22-25-1.24 4 1.19 9.31 10.21 15.94 9.95 7.31 15.83 15 11.78 28.6s-12.84 17.76-7.43 34.94C520.18 986.92 331.54 986.7 385 903.76z" fill="#f60" fill-rule="evenodd"/><path d="M322 910.28l251 63.1a9.54 9.54.0 0 1 6.9 11.54L573 1012.58a9.54 9.54.0 0 1-11.54 6.9l-251-63.1a9.54 9.54.0 0 1-6.91-11.54l7-27.66A9.52 9.52.0 0 1 322 910.28z" fill="#7e5845" fill-rule="evenodd"/><path d="M561.41 910.28l-251 63.1a9.54 9.54.0 0 0-6.9 11.54l7 27.66a9.52 9.52.0 0 0 11.53 6.9l251-63.1a9.54 9.54.0 0 0 6.91-11.54L573 917.18A9.54 9.54.0 0 0 561.41 910.28z" fill="#9b6b54" fill-rule="evenodd"/></g></g></g></svg>