<svg xmlns="http://www.w3.org/2000/svg" width="1080" height="709.62" viewBox="0 0 1080 709.62"><g id="Слой_2" data-name="Слой 2"><g id="Слой_1-2" data-name="Слой 1"><g id="b"><g id="c"><g id="d"><path d="M873.18 606.73s-23.92 18.54-42.5 27.11-52.87 24-71.45 19.87-41.67-4.48-38.57-23.15 22.85-25.78 22.85-25.78 106.44-10.88 129.66 2z" fill="#fcfcfc"/><path d="M215.2 592c10.9 8.74 28.2 37.6 11.06 43.31s-60.1 14-62.21 18.44 6.48 31.58 22.21 27.29 55.27-8.59 76.92-8.59 35.95.0 53.1-7.16 40-29.94 40-37.82-141.1-35.49-141.1-35.49z" fill="#fcfcfc"/><path d="M403.44 650.52c-4.76 12.38-20.95 21-35.25 23.81s-36 5.73-30.88 14.28 24.39 9.54 38.58 12.39 9.45 8.57 39 8.57 35.25.95 53.34-5.71 31.44-14.24 38.12-23.79 16.17-24.79 7.6-29.55-52-28.59-68.37-35.25-18.61-10.49-18.61-10.49v32.39l-23.51 13.35z" fill="#fcfcfc"/><path d="M862.83 14s107.55 22.59 147.71 74 56.62 88.59 61.62 113.6 7.84 39.28 7.84 39.28l-6.41-5s5.71 45 2.86 77.18-6.43 40-6.43 40l-5-15s10-.73-3.56 43.55c-10 32.52-18.4 54.64-22.18 64.11-1.36 3.43-2.13 5.2-2.13 5.2s0 7.86-11.43 30-30 52.16-30 52.16l-1.44-9.28s-18.57 28.58-27.14 38.58-17.14 19.3-28.57 24.28-20 17.21-38.58 20-50.13-3.61-58.59-2-32.14-11.66-32.14-11.66z" fill="#282828"/><path d="M556.9 28s58-21.22 133.74-25.61S792.1 1 792.1 1L781.39 2.41S825.67 2.16 862.84 14 957.14 65.16 970 83.73 998.58 133 998.58 133L980 123s26.42 56.44 29.3 99.3.0 60 0 60l-7.86-11.43s2.86 20 2.86 27.14-5.71 47.75-5.71 47.75l-6.44-15.25s-7.84 62.53-9.28 89.65-8.57 45-8.57 45V453.08s-7.86 42.88-13.58 51.45-16.41 27.85-17.86 30.71-7.84.0-7.84.0-5.73 2.87-15 17.15-15.71 27.85-30 36.44-37.14 10.48-48.58 15.94-64.75-2.67-81.43.0S556.93 28 556.93 28z" fill="#c98835"/><path d="M438.54 7.41s82.08 6.33 126.39 23.47 67.85 24.18 67.85 24.18H617.07a246.43 246.43.0 0 0 45 17.25c24.3 6.43 65 16.41 65 16.41l-25.72 6.44s-10 2.87 20.71 7.86 83.6 16.43 83.6 16.43l-27.15 7.16s15.71 2.87 27.15 4.29 40.72 6.43 40.72 6.43l-22.87 5s55 16.44 60.72 16.44h22.87S870 204.48 867.84 204.48h14.3l-8.57 10.73 20.7 4.28-23.57 24.3s40.71 15.11 47.15 15.42 20.73.0 20.73.0-37.87 22.44-46.44 38.88-14.3 30-14.3 30h6.43s2.16 10.53-3.57 17.76-15 28.69-15 28.69L881.42 366s-5.71 22.88-10 31.44-16.43 30-16.43 30L872.85 416s-8.57 35-17.86 52.15-17.15 33.58-17.15 33.58l9.3-5s.7 14.27-3.58 20.71-17.87 21.42-27.15 27.87-7.86 12.14-7.86 12.14h10.73s7.14 19.3-15.71 30S782.13 602.91 760 604.8s-80.73 19.06-80.73 19.06l9.33 3.59s-15.05 9.28-49.34 16.43-92.87 7.84-102.16 7.14-20.28 2.72-20.28 2.72l-106.53-7.06s-44.66-4.94-65.38-7.82-45-9.28-45-9.28l9.3 7.16s-43.59-10.71-70-27.17-40.72-34.28-40.72-34.28v9.29s-15.71-24.28-30-44.28-32.15-55.73-32.15-55.73v9.27s-17.14-60-18.57-72.15S438.54 7.41 438.54 7.41z" fill="#f8f8f8"/><path d="M573.86 362.69s.24 86.84-56.51 127.56S454.89 571 463.48 583.84s82.15 68.75 113 66.63S262 682.43 194.85 641 64.68 509.55 67.61 462.37s-49.92-60 38-68.58 468.31-31.1 468.31-31.1h0z" fill="#ececec"/><path d="M327 9.44s-112.16-13-144.56-3.66S107.21 50.4 106.26 65.65s-4.57 37.14 22 41.9S327 9.44 327 9.44z" fill="#444"/><path d="M607.07 277.35s6.41-26.64.0-48.2-8.35-33-8.35-33l8.35 4.8s-16.92-42-35-72.44-21.92-36.2-21.92-36.2l11.43 4.76s-4-21.9-37.71-44.77S455.26 4.24 447.27 5.87s14.28 146.47 20 177.91 72.39 104.82 81 104.79S607.07 277.35 607.07 277.35z" fill="#c98835"/><path d="M299.86 490.25s32.17 17.14 58.59 19.3S402 517.41 402 517.41l-10-13.57s8.58 6.43 27.87 5.71 77.16-31.44 77.16-31.44l-16.44 3.56S506.34 476 528.48 451s47.88-65.72 47.88-65.72l-15 7.87s12.84-34.32 27.85-62.18 17.87-33.58 17.87-33.58l-12.87 3.58 12.87-23.58s-20.74-16.43-47.17-34.3-40.74-22.13-40.74-22.13 11.06.11 7.87-5.73-3.57-30.54-10.71-42.43.38-49.34.38-49.34 6-33.26-1.09-45.41l-7.14-12.14h7.86S493.49 41.59 484.92 33s-31.44-21.44-31.44-21.44h14.28S380.59-2 359.16 1.58s-49.83 7.86-67.77 19.3S109.28 191.78 84.09 242.34s-18.57 122.88.0 127.18S299.85 490.25 299.85 490.25z" fill="#282828"/><path d="M1.5 286.31s-3.14-31.78 9-57.17 15-28.19 15-28.19v5.67s3.56-12.87 37.12-45.74 42.88-38.57 42.88-38.57L102 127.55s26.66-19.77 37.14-28.8 12.39-9.52 12.39-9.52V91.6s39.06-27.5 45.14-35a79.26 79.26.0 0 1 12.14-12.14L200.2 59.8S220.55 52 231.62 44.45a143.77 143.77.0 0 1 18.93-11.08l-9.28 11.44s22.87-16.09 39.64-24.66A309.45 309.45.0 0 1 313.78 5.87L295.56 20.52 327 9.44S290.2 47 285.21 50.88s-6.08 5.71-6.08 5.71l26.78-11.43L278.77 65.65l15.73-3.33s-24.66 12.14-51.8 27.85-31.8 25.73-31.8 25.73l17.52-9.29s-47.88 41.44-57.88 47.87-12.14 12.86-12.14 12.86L175.19 162a79.8 79.8.0 0 0-21.43 14.28c-9.65 9.28-11.44 16.06-11.44 16.06l17.87-8.22S146.26 205.9 133 223.42s-14.28 25-14.28 25l12.14-11.81S122 254.48 119.84 262a82.68 82.68.0 0 0-2.51 16.78l10-7.84s-2.84 8.25-4.27 10.91 3.57 17.66 14.28 21.94 48.22 23.57 66.08 47.15 25 36.45 25 36.45l-22.85-15.74s15.71 19.3 25 29.3 18.57 25.71 18.57 25.71L227 418.09s13.84 13.58 36.2 35 36.66 37.15 36.66 37.15S227.7 472.4 202 463.81 152 446 152 446l12.09 9.28S124.11 446 111.25 438.8s-40.71-23.57-40.71-23.57l5.07 8.57s-32.22-32.87-45.09-47.16S-1 324.07 1.5 286.3z" fill="#fcfcfc"/><path d="M338.42 105.18s40.74 22.13 52.89 61.45S407 224.48 440.6 232.34s66.43-9.28 75-15 18.58-22.15 22.86-32.85.0-63.59-70.72-95.76S328.43 54.46 338.41 105.19z" fill="#444"/><path d="M235 160.89c-13.93 11.87-23 23.93-18.75 40.06A216.84 216.84.0 0 0 225 227.57v-5.71s-2.21 5.22 10 19 22.21 25.25 30.3 33.36 10.95 14.76 30.49 14.27 34.77-1.9 49.06-14.27S382 257.1 374.4 237.58 349.63 190.92 342 178.53s-15-17.63-15-17.63l13.08 4.76s-5.24-12.38-31.42-17.6S248.1 149.77 235 160.9z" fill="#c98835"/><path d="M291.4 201a28.19 28.19.0 1 0-28.2 28.19A28.2 28.2.0 0 0 291.4 201z" fill="#070707"/><path d="M264 166.25s-4.09 11.13 5.7 22 28.18 4.09 28.18 4.09S295.64 161.47 264 166.25z" fill="#fcfcfc"/><path d="M23.19 329C17.84 326.11 2.3 304.15.52 296.65s.7-16.08 12.67-14.66S30 289.5 37.85 289.5 68 287 73 293.8s2.84 15-7.16 22.14-25 19.28-30.72 19.28-12-6.23-12-6.23z" fill="#f1a9c6"/><path d="M46.71 329.75c.07-2.39-.83-8.64 4.35-11.48s10.9.53 10.9.53S51.09 330 46.71 329.75z" fill="#da88ad"/><path d="M4.3 304.88s7.65.14 10 5.15-1.58 7.52-1.58 7.52S5.22 311 4.3 304.88z" fill="#da88ad"/><path d="M18.19 290c-2.27 1.2-4.12 11.43 8.75 15.36 9.12 2 33.76 3 38.4-.18s3.75-12.51-6.43-12.32-21.79 1.25-27.15-.35S21.23 288.42 18.19 290z" fill="#ffc9e1"/></g></g></g></g></g></svg>