<svg xmlns="http://www.w3.org/2000/svg" width="1080" height="947.77" viewBox="0 0 1080 947.77"><g id="a"/><g id="b"><g id="c"><g id="d"><path d="M329.57 266.38s-36.1-23.98-71.38-39.32c-35.28-15.34-121.19-55.23-168.74-73.63C41.89 135.01 6.61 124.27.47 145.75c-6.14 21.48 49.09 38.35 88.97 67.5 39.89 29.15 123.35 64 142.67 87.44 19.32 23.44 26.08 41.42 26.08 41.42l71.38-75.73z" fill="#38261c"/><path d="M945.33 470.25s1.65 59.01-13.69 111.17c-15.34 52.16-21.48 199.43-13.81 237.78 7.67 38.35 3.07 41.42 21.48 39.89 18.41-1.53 32.21 26.08 32.21 26.08.0.0-55.23 18.41-79.77.0-24.54-18.41-30.68-52.16-35.28-73.63-4.6-21.48-16.87-142.67-23.01-170.28-6.14-27.61-16.76-38.35-16.76-38.35l128.63-132.65z" fill="#38261c"/><path d="M434.22 548.71s-2.68 57.26-25.69 84.87c-23.01 27.61-90.51 90.51-95.11 116.59-4.6 26.08 16.16 62.9 16.16 62.9.0.0 26.8-16.87 37.54.0 10.74 16.87 6.38 33.75 6.38 33.75.0.0-41.66 3.07-66.2.0-24.54-3.07-27.61-30.68-39.88-59.83-12.27-29.15-24.09-97.84-24.09-97.84.0.0 34.92-139.94 86.26-172.15 51.34-32.21 104.64 31.72 104.64 31.72z" fill="#2e1f17"/><path d="M1070.17 112.1c-21.47 33.77-95.14 52.03-101.31 64.29-3.76 7.47-.17 22.13-1.32 70.81v.04c-.71 31.08-2.29 67.86-6.49 106.69-10.76 99.69-17.16 169.17-63.19 216.75-45.99 47.57-67.46 32.23-75.14 49.08-7.67 16.89-4.63 188.71-7.67 220.9-3.08 32.23 15.34 62.92 21.47 67.5 6.13 4.63 19.93-1.62 24.52 18.43 4.63 20.01-4.59 20.01-4.59 20.01.0.0-67.5 6.05-76.72-9.29-9.17-15.34-26.06-44.49-30.65-95.11-4.63-50.62-19.97-208.6-19.97-208.6.0.0-92.02-1.54-170.28-19.97-78.22-18.39-134.97-87.43-168.74-79.76-33.73 7.67-119.66 115.04-151.85 162.61-9.21 13.56-17.36 24.52-24.4 33.81-17.83 23.37-28.63 36.5-30.84 55.17-3.04 26.06 1.54 58.29 10.76 70.55 9.21 12.3 16.89 13.8 16.89 24.56v10.76s-55.24 6.13-69.05-4.63c-13.8-10.72-4.59-153.4.0-171.82 4.59-18.39 39.86-27.6 41.4-53.66 1.54-26.1-27.6-135.01 6.13-233.2 33.77-98.15 79.88-152.17 150.35-164.11 33.57-5.69 231.52 20.66 283.82 12.26 100.48-16.13 94.86-65.33 120.92-102.14 26.1-36.82 46.04-137.11 84.36-153.99C866.94 3.12 887.15.0 930.1.0s49.08 26.1 56.75 27.64c7.67 1.5 84.39-1.54 84.39-1.54.0.0 20.41 52.26-1.06 86z" fill="#452f22"/><path d="M876.4 174.91c-6.13 18.39-27.6 6.13-50.62-7.67-23.02-13.8-70.55-32.23-70.55-46.03s18.39-44.49 38.36-75.18c19.93-30.69 51.01-25.55 51.01-25.55 12.65-5.62-3.48 39.35 11.86 68.49 7.63 14.55 14.16 31.36 17.95 46.82 3.87 15.62 5.06 29.86 1.98 39.11z" fill="#38261c"/><path d="M1079.53 53.25s-14.66 2.11-24.54-8.76c-9.89-10.88-9.88-17.46-9.88-17.46l26.12-.94s7.13 9.13 8.29 27.16z" fill="#212121"/><path d="M1069.73 86.65s-10.55 24.32-41.99 39.05c-31.44 14.73-73.68 8.59-70.56 21.21 3.12 12.62 102.69-13.28 112.54-60.26z" fill="#38261c"/><path d="M967.55 247.24c-.71 31.08-2.29 67.86-6.49 106.69-10.76 99.69-17.16 169.17-63.19 216.75-45.99 47.57-67.46 32.23-75.14 49.08-7.67 16.89-4.63 188.71-7.67 220.9-3.08 32.23 15.34 62.92 21.47 67.5 6.13 4.63 19.93-1.62 24.52 18.43 4.63 20.01-4.59 20.01-4.59 20.01.0.0-67.5 6.05-76.72-9.29-9.17-15.34-26.06-44.49-30.65-95.11-4.63-50.62-19.97-208.6-19.97-208.6.0.0-92.02-1.54-170.28-19.97-78.22-18.39-134.97-87.43-168.74-79.76-33.73 7.67-119.66 115.04-151.85 162.61-9.21 13.56-17.36 24.52-24.4 33.81l-.04-.04s68.06-124.21 105.63-164.75c37.57-40.53 31.64-54.37.0-64.26-31.64-9.89-44.49-46.47 10.12-51.41 54.61-4.94 99.61 41.52 163.88 71.18 64.26 29.66 122.59 14.83 205.64 25.7 83.05 10.88 129.51-3.95 195.04-52.4 64.97-48.05 73.32-243.8 73.44-247.08z" fill="#4d3426"/><path d="M957.11 26.09s-12.85-.39-16.81 6.53c-3.95 6.92.0 20.79.0 20.79.0.0 2.2-9.5 7.52-13.66 5.33-4.16 21.15-7.34 9.28-13.66z" fill="#212121"/><path d="M961.4 30.67s2.63 4.84-4.79 9.08c-7.41 4.24-8.79.0-8.79.0.0.0 2.54-10.54 13.57-9.08z" fill="#212121"/><path d="M876.4 174.91c-6.13 18.39-27.6 6.13-50.62-7.67-23.02-13.8-70.55-32.23-70.55-46.03s18.39-44.49 38.36-75.18c19.93-30.69 51.01-25.55 51.01-25.55.0.0-30.85 15.11-42.71 40.81-11.86 25.7-16.81 45.48-5.93 59.32 10.88 13.84 44.37 63.23 63.27 53.39 18.07-9.41 15.46-35.91 15.19-38.2 3.87 15.62 5.06 29.86 1.98 39.11z" fill="#2e1f17"/></g></g></g></svg>