<svg xmlns="http://www.w3.org/2000/svg" width="796.54" height="1080" viewBox="0 0 796.54 1080"><g id="a"/><g id="b"><g id="c"><g id="d"><path d="M754.95 376.16c-.75-.36-1.4-1.04-1.65-1.85-.25-.8-.46-1.61-.65-2.43-1.07 3.23-5.84 3.03-6.51-.25-1.87 2.98-6.12 1.47-6.35-1.77-.22 2.86-3.97 4.25-5.86 2.1-1.63-2.29-1.48-5.46-2.17-8.14-.06 2.73.18 5.48-.13 8.2-.79 3.9-6.52 3.31-6.69-.53-1.36 2.92-5.79 2.23-6.34-.83-4.13 3.1-6.19-1.72-6.34-5.26-1.45 5.28-7.4 3.78-7.62-1.2-4.6 3.39-6.44-2.82-6.52-6.41-5 2.34-5.36-3.63-5.24-7.07-.4 1.6-.63 3.34-1.53 4.76-1.57 2.46-5.5 1.75-6.05-1.06-.61-7.68.81-15.44 1.07-23.15.57-3.88-.39-8.93 2.47-11.98.28-2.71 3.04-5.31 5.65-3.61 3.74-2.39 17.42-.6 13.22 5.94-2.79 2.95-6.2-1.01-9.54-.28-.33.7-.64 1.43-1.05 2.09.41-.09.85-.1 1.29-.03 1.85.3 2.65 1.84 3.12 3.48 1.32-4.33 6.9-2.82 6.94 1.31 1.61-2.8 5.53-2.17 6.52.71.45-3.25 5.23-4.21 6.5-1.12.48-.55 1.17-.94 1.85-1.1.75-.17 1.48-.07 2.14.24-.57-7.04 6.66-8.88 7.89-1.6.12-6.88 7.46-6.11 7.85.21.68.09 1.3.3 1.84.76.2.17.38.37.54.59l.03-.03c.61-.64 1.38-1.03 2.17-1.14-.43-1.85-1.41-4 .08-5.68 1.91-2.24 5.3-1.02 6.03 1.55 3.76 9.21 4.94 19.23 7.19 28.9.36 4.03 3.63 9.14.67 12.73.24 2.71 2.93 6.37-.24 8.43.05.25.1.5.15.75.33 1.69-.8 3.68-2.6 3.98-.75.13-1.47.1-2.17-.23z" fill="#fff5e4"/><path d="M34.35 516.61c-2.58-6.66-2.05-14.39-2.84-21.49.04-8.18-2.25-22.98 3.68-29.32.53-1.19 1.79-2.03 3.1-2.04.37.0.73.06 1.07.17.84-2.36 4.3-2.91 5.71-.93.4-1.51.61-3.08 1.32-4.49 1.36-2.59 5.5-2.09 6.1.71.24.95.3 1.92.27 2.9.15-3.07 4.57-4.26 6.09-1.68.18-.69.38-1.38.58-2.06.74-2.85 4.88-3.39 6.24-.85.26-2.5 1.69-5.84 4.75-5.03.1-3.04 3-5.97 5.87-3.84.8-.91 1.98-1.5 3.19-1.31.18-.61.53-1.08.95-1.55.35-.4.82-.69 1.33-.85 1.19-2.54 5.01-3.67 6.53-.94 1.33 2.84 1.89 6.01 2.95 8.96.76 3.97 8.07 16.79.9 17.43 1.44 3.91-3.39 7.29-5.99 3.73-.04 1.99.17 4.21-1.11 5.92-1.55 2.11-5.17 1.64-5.82-.94-.55 3.51.34 8.09-2.53 10.75-1.4 1.01-3.24.91-4.39-.22-.21 2.88-3.45 5.26-5.97 3.4-.44 3.61-2.1 10.74-7.08 7.96-.24 3.47-1.9 10.11-6.61 7.73-.51 8.24-8.64 8.53-8.06-.05-.44.35-.98.59-1.59.68-.48.07-.94.03-1.37-.1-.35.53-.84.91-1.4 1.15.03 1.5.27 3.01.04 4.51-.35 2.85-4.24 3.98-5.94 1.68z" fill="#fff5e4"/><path d="M294.7 48.63c.12-.07.24-.14.37-.21-.1.03-.21.06-.31.09-.02.04-.04.08-.05.12zm-49.45 57.73c-5.32-2.51 1.11-11.96 2.51-15.83 5.29-10.89 8.11-22.2 15.53-31.91-2.02-2.18 1.93-5.07 3.14-7.19-8.55-2.99 8.23-18.43 11.59-21.57 3.71-2.71 14.01-13.74 18.05-8.64.66-.25 1.32-.25 1.98-.1 9.94-2.81 20.01-7.25 30.45-5.57 2.16.42 5.09.58 6.02 2.91 3.82-.11 12.53-3.3 12.34 2.98 2.59 1 5.45 2.08 7.26 4.26.56.2 1.11.42 1.65.65 2.8 1.2 6.91 3.55 6.5 7.01 3.89 1.83 9.38 4.03 9.8 8.93 3.21 1.39 9.21 4.29 6.7 8.63 3.43 1.61 10.08 4.75 6.48 9.38 1.72 1.04 3.86 1.95 4.65 3.93.81 1.84 4.11 4.86 2.19 5.44 2.8 2.38.54 4.51 2.78 7.41 2 1.68 5.19 4.02 3.63 7.02-2.48 3.94-6.52.34-8.37-2.17-1.34-1.02-2.73-1.96-4.14-2.89-12.35-7.98-26.51-12.51-40.44-17.1-10.36-1.71-20.04 1.1-30.2 2.91-5.84 1.07-11.67 2.3-17.14 2.88-1.85.41-3.8-.72-4.13-2.62-.12.0-.23.0-.35.0-5.78 4.02-11.3 8.41-16.67 12.98-2.93 2.43-5.95 8-10.19 7.24-2.81 2.82-6.02 12.93-10.95 8.82-1.49 2.27-3.22 4.41-4.62 6.72-1.07 2.52-2.64 6.73-6.08 5.51z" fill="#fff5e4"/><path d="M421.1 783.56c.35-.01.69-.03 1.04-.04-.05-.51-.1-1.01-.15-1.52-.03-.3-.06-.59-.09-.89-.21-.07-.42-.14-.63-.21-.06.88-.11 1.76-.17 2.65zm-138.57 44.85c-1.14-2.63-1.44-5.51-1.75-8.35-.17-1.61-.32-3.22-.44-4.83-14.54-.77-10.43-19.2-12.07-29.32-1.13-18.15-1.4-36.37-1.67-54.57.25-42.64-2.65-87.52 13.83-128.12-1.22-4.76-1.87-9.65-2.43-14.53-9.01-7.35-9.15-41.85-10.66-54.26-2.9-37.96-.09-76.14 6.84-113.78 2.41-13.87 5.16-27.69 8.52-41.39 3.84-10.95 3.43-36.25 21.08-29.75 2.26-4.37 7.3-6.88 12.13-5.85 1.04.22 2.01.6 2.9 1.1 2.34-.59 4.85-.5 7.16.32 1.44.51 2.65 1.29 3.67 2.25 3.42-11.74 11.84-22.89 23.36-12 3.72 4.28 2.14 10.02 1.1 15.08-1.27 6.83-2.63 13.65-4.05 20.46 2.69-7.06 9.52-14.3 17.44-10.31 2.52-10.73 9.82-30.59 23.47-20.05 5.33-4.91 14.46-6.62 19.03-.12 1.34-.39 2.74-.54 4.06-.43.93.08 1.81.27 2.64.57.86-7.45 2.26-14.43 3.47-21.75-.08.46-.16.92-.24 1.37.85-4.98 2.09-9.9 3.59-14.74 2.56-7.71 13.75-9.68 18.58-3.31 1.8 2.13 2.47 4.63 2.7 7.34 2.09 18.17 3.78 35.39 5.04 53.29 2.34 29.86-.58 59.87-.62 89.81.0 25.62.68 51.22 2.21 76.77.69 15.68 1.84 31.35 1.59 47.07-.06 5.71-.23 11.39-1.27 17.05.76 8.95 1.82 17.87 2.94 26.77 4.15 34.24 10.16 68.24 12.73 102.69.21 12.24 5.27 47.28-1.2 55.55.0.49.0.98.0 1.47 7.98 3.39 10.16 15.43 1.99 20.24-2.82 2.01-6.24 1.73-9.3 2.8-4.66 2.02-9.58-.17-14.45.98-3.4 7.43-14.79 7.98-18.66 1.12-3.4.13-6.8.24-10.2.36-.73.89-1.55 1.71-2.5 2.49-4.8 3.98-12.14 2.94-15.57-1.85-1.32.05-2.64.11-3.96.17-2.05 2.95-5.1 4.93-8.78 5.1-3.58.16-7.45-1.64-9.38-4.71-.29.0-.57.0-.86.0-1.17.0-2.34-.01-3.5-.04-.79 6.11-1.17 13.76-6.94 17.46-8.8 5.43-18.7-2.95-17.5-12.44-.87 5.44-1.8 11.32-6.06 15.31-5.33 5.93-15.33 3.87-18-3.35-.82.25-1.69.4-2.59.44-2.55.12-4.97-.69-6.9-2.16-.19.71-.43 1.4-.66 2.1-1.38 4.1-5.17 6.58-9.14 7.05-5.66 6.65-17.33 5.57-20.72-2.55z" fill="#fff5e4"/><path d="M590.34 1065.64c-.49-5.22-1.21-10.48-1.79-15.69-1.94-23.49-4.94-47.05-5.23-70.67.42-20.9-.61-129.43-5.94-162.96 2.44-2.55-1.15-9.81-4.86-8.37-3.29.95-2.32 7-1.48 12.06-16.17-6.1-33.51-9.75-49.63-16.03-16.24-5.77-32.9-10.4-49.7-14.42.94-.23 1.87-.46 2.81-.69 4.19-1.33 2.06-7.67-1.98-6.3-2.27.6-4.55 1.15-6.84 1.7-.08-.34-.24-.72-.51-1.15.19-.39.28-.84.24-1.26 2.83-.58 5.65-1.17 8.47-1.76 1.3-.12 2.39-1.2 2.23-2.55-.14-1.2-1.25-2.06-2.45-1.9-5.07.69-10.13 1.44-15.16 2.42 5.1-1.39 10.14-3.03 15.07-4.98 1.12-.48 1.7-1.79 1.25-2.91-.85-2.13-3.24-1.07-4.92-.74-2.29.46-4.88.93-7.47 1.37.89-1.52-.49-3.47-2.19-3.2-1.98.2-3.95.52-5.92.8-5.74.79-11.48 1.67-17.22 2.47-19.52 2.7-38.87 3.65-58.53 4.86-29.42 1.6-59.41 2.58-88.92 2.36-7.01.0-14.02.0-21.03-.04-2.79-.01-5.59-.08-8.38.02-.89.03-1.71.52-2.08 1.35-.59 1.29.24 2.77 1.53 3.16.77.25 1.6.23 2.39.36-.79 2.31 1.49 3.1 3.36 3.34 1.86.38 3.73.68 5.61.96-4.01.34-3.13 4.73.38 5.06-2.15.2-4.29.39-6.44.59-1.21.11-2.09 1.34-1.96 2.49.14 1.24 1.25 2.01 2.45 1.9 2.38-.21 4.76-.43 7.14-.65-1.65 1.31-.84 4 1.28 4.02 1.23-.02 2.42.19 3.64.22-.56.62-.7 1.46-.46 2.19-1.61-.17-3.22-.35-4.83-.56-2.85.0-6.31-2.9-8.53.12-.97 1.72-.72 3.04.34 4.04-6.3 5.5-9.81 20.59-10.71 28.01-3.42 29.24-5.39 58.57-5.5 87.91-4.88 50.46-7.17 101.03-9.33 151.62-.16.34-.27.71-.31 1.1.0.52.08.97.22 1.36.16 2.67 2.88 3.39 4.79 2.48 2.13.11 4.49-.14 6.12.17 6.44.18 12.89.32 19.33.39 19.72-.45 39.59-.7 59.3.28 12.92.31 25.73-2.15 38.64-2.75 2.81-.74 10.91.32 15.57-.83.53.53 1.24.88 2.03.94 1.8.14 3.45-1.26 3.63-3.07 1.12-9.53 1.84-19.1 3.16-28.6 2.95-16.93 5.21-34.57 9.19-51.49 2.73-9.99 2.89-22.53 10.17-30.81 9.34-1.74 8.05 25.49 9.68 32.05 1.22 12.44 3.83 24.68 5.18 37.1 1.05 10.98 3.28 21.86 4.59 32.81.28 1.86.03 4.82.61 6.96h0c-.3 1.55.45 3.27 2.07 3.82 2.58.57 5.33.51 7.96.83 9.18.61 18.36 1.52 27.57 1.58 29.38-1.24 58.76-1.88 88.13-3.37 9.72.16 19.29.33 29.07-1.27.63.56 1.47.88 2.36.83 4.57-.57 2.95-5.91 2.76-9.04zm-309.77-274.18c-.08-.05-.17-.1-.25-.15.13.0.26.0.39.0.68-.01 1.36-.02 2.04-.04-.73.07-1.45.13-2.18.2zm116.77 6.26c-.11-.23-.25-.44-.45-.62 1.77-.29 3.54-.57 5.31-.86-.02.29.01.55.06.8-1.64.24-3.28.46-4.93.68z" fill="#9eceed"/><path d="M789.16 435.67c4.16 10.76 7.71 22.29 7.36 34.03-1.15 6.22-1.63 12.45-1.78 18.74-.08 4.38-1.27 8.6-2.28 12.85-.51 7.04-1.42 14.07-1.84 21.12.45 10-.69 19.69-3.28 29.39-10.06 47.31-34.77 108.49-90.79 111.48-22.08-1.19-42.3-11.46-59.24-24.79-13.93-11.03-27.46-23.7-36.82-38.92 2.73 21.59 5.15 43.24 9.26 64.57 7.31 29.87 13.64 60.43 9.19 91.53.39 8.81-2.34 17.73-1.71 26.48.99.31 1.79 1.1 1.98 2.46.36 6.73 2.64 13.69.99 20.41-9.03 14.9-31.71 17.14-47.13 20.83-18.62 5.21-37.31 9.37-56.38 11.98-11.58 1.46-23.04 5.02-34.74 4.65-1.72-.15-3.82-.72-5.82-1.63-.81-.02-1.67-.32-2.52-.99-.33-.33-.65-.68-.93-1.06h0c-2.73-2.1-4.44-4.96-3.13-8.26-.94-5.6-.62-11.98-.77-16.43-.06-.16-.1-.33-.14-.49-1.34-1.25-2.1-3.24-3.22-4.66-3.32-3.95-2.56-9.3-3.24-14.14-1-12.32-.66-24.71-1.34-37.04-2.19-19.39-1.02-39.05-2.81-58.49-1.49-14.28-3.33-28.53-3.54-42.94.11-30.25-3.57-60.23-6.9-90.16-1.8-19.91-2.43-39.93-3.75-59.9-2.01-31.08-3.28-62.2-5.2-93.29-.74-24.81-5.17-49.6-3.02-74.49.34-3.46.82-6.93.98-10.4.08-1.81 1.88-3.2 3.63-3.08 1.42.25 2.24.97 2.66 1.97 8.57-4.29 18.07-7.02 27.38-8.94.1-.26.23-.51.39-.74-5.47-7.37 12.55-7.76 16.65-9.39 4.63-1.02 8.91-3.2 13.34-4.85 2.19-1.31 5.55-1.3 6.18 1.63 5.33-1.03 27.95-2.31 30.89 1.88 1.96.69 6.54 1.23 10.37 2.24.39-1.75 2.16-3.22 4.11-2.71 1.1.21 1.95.98 2.35 1.95 1.89 1.9 3.88 3.71 5.82 5.56 3.58 3.52 7.83 6.25 10.46 10.66 9.58 8.78 18.23 18.37 25.16 29.43 6.97 9.73 12.12 20.76 20.02 29.77 4.37 5.34 7.73 11.41 11.75 17 5.66 7.91 11.74 15.51 16.8 23.84 4.47 7.43 8.31 15.31 12.52 22.87 1.82 3.43 3.72 6.59 5.41 9.83.71-10.73 1.46-21.44 3.79-32.04 1.7-7.14 2.77-15.91 8.31-21.12-.7-17.14-.73-34.94 2.85-51.78.26-1.97 1.67-3.5 3.31-4.53 2.54-2.4 7.59-4.29 8.53-.01 5.08 1.36 9.82 4.19 14.92 5.5 7.84 3.31 16.23 4.65 24.63 5.82 10.89 1.89 21.4 4.2 32.41 4.64.8.12 1.42.45 1.86.91.49-.11 1.04-.1 1.64.06 11.77 3.29 14.11 17.45 15.7 27.98 1.17 7.79 2.22 15.66 1.22 23.58-.13 1.61-.25 3.22-.37 4.83 1.49 1.71 2.28 4.81 3.18 6.61 1.67 2.66 3.6 5.18 4.67 8.18z" fill="#ffc561"/><path d="M299.95 368.57c-2.43 16.92-2.13 33.5-2.83 50.23-1.01 18.44-2.77 36.86-3.12 55.31-1.12 26.76-5.18 53.4-5 80.2-1.79 27.18-4.11 54.33-5.62 81.52-2.49 16.07-4.44 32.25-4.49 48.49 1.08 31.89.9 64.01-1.19 95.83-.94 6.79-.46 13.61-.29 20.41.02.81.06 1.62.04 2.45.42.51.67 1.13.71 1.83.26 7.16-.75 14.31-1.42 21.44-.04 9.29-6.36 18.41-16.52 15.5-8.54-2.07-17.49-4.88-25.55-8.07-5.1-1.52-9.64-4.27-12.47-8.84-4.05-4.86-3.75-11.47-3.53-17.5.09-3.64.02-7.35.9-10.87-3.06-7.08-3.98-15.15-5.67-22.68-1.09-9.87-1.22-19.9-1.66-29.85-.19-8.87-.83-17.76-.8-26.65-2.58 3.98-5.37 7.8-8.56 11.37-18.02 19.25-42.43 44.78-70.57 43.18-30.93-4.03-46.06-15.76-61.72-41.83-13.23-17.86-20.17-39.6-25.23-61.1-4.21-15.79-8.2-31.55-11.26-47.62-2.68-14.39-5.52-29.2-1.51-43.79.58-1.72.85-3.63 1.29-5.46-5.13-14.18-6.89-29.31-6.15-44.51-.95-16.58 7.14-21.76 20.54-28.93 10.78-6.48 21.14-13.65 30.49-22.08 4.59-3.5 11.37-10.45 17.43-9.91 2.2-.96 5.88.03 9.92 6.21 7.28 10.06 8.37 29.41 10.75 41.74-.19 4.26 3.64 6.34 5.82 9.46 1.84 2.48 3.35 5.25 4.77 7.99 6.23 13.43 10.07 27.96 14.12 42.21 3.71 14.18 7.69 28.24 11.32 42.42 3.73-18.12 7.19-36.31 11.47-54.31 2.98-15.44 4-30.81 6.63-46.16 3.33-23.56 11.04-46.26 17.93-69.03 4.54-16.3 11.57-31.81 19.43-46.84 4.91-9.64 9.81-19.34 16.54-27.89 5.56-7.46 10.23-15.74 17.29-21.95 1.94-1.83 4.8-4.46 7.16-1.88 1.18 1.33 1.05 3.48-.33 4.7-.12.1-.25.19-.37.29 3.77.85 8.34 3.83 10.86 4.75 6.2 2.63 12.51 5.07 18.87 7.3 5.12 2.05 9.91 2.71 14.82 4.38.04-.31.09-.63.14-.94-.19-4.06 6.3-5.11 6.64-.54z" fill="#ffc561"/><path d="M563.7 316.22c.66.97.8 1.96-.07 2.92-.83.81-2.16.8-2.95.0-1.15-1.24-2.63-2.39-3.97-3.3-8.71-6.69-19.99-9.9-30.85-11.07-15.65-.83-30.75 4.12-45.41 9.11-9.21 3.16-18.27 6.78-26.97 11.22-13.08 6.16-24.34 15.4-36.76 22.69-5.64 3.39-11.28 6.8-17.2 9.68-6.54 3.46-12.76 7.6-19.65 10.36-7.43 2.94-14.61 5.18-22.19 7.39-7.77 2.06-15.84 2.62-23.8 2.58-12.08.43-23.61-2.96-35.13-5.85-12.58-3.21-25.16-6.41-37.18-11.3-4.61-2.04-9.72-2.94-13.84-5.96-1.41-.87-3.9-2.35-4.99-4.02-3.51-3.64 10.31-14.59 12.45-17.34 3.24-3.88 5.96-8.18 9.6-11.73 3.99-3.78 8.17-7.32 12.36-10.85 2.79-2.11 5.63-4.16 8.44-6.24.21-.15.42-.31.63-.46-1.3-6.94.53-14.26 2.39-21.03.8-2 1.48-4.12 2.39-6.11-1.29-.93-2.56-1.88-3.82-2.82-4.92-4.06-9.13-8.85-13.71-13.27-16.15-16.44-27.7-36.9-33.28-59.38-2.09-7.53-3.26-15.27-4.91-22.9-2.29-8.98-3.09-18.22-3.52-27.49-.16-5.55-.78-10.56-.64-16.03.27-5.13.65-10.63 1.19-15.66.82-9.93 2.21-19.81 5.25-29.38 1.26-4.85 2.23-9.78 3.77-14.56 3.48-9.59 7.86-18.92 12.93-27.81 2.92-5.5 6.58-10.89 10.94-15.32 1.8-2.54 3.91-4.81 6.19-6.93h.01c.54-.57 1.1-1.17 1.76-1.59 1.38-1.19 2.8-2.34 4.23-3.47 4.72-3.24 9.3-6.66 14.48-9.1 7.78-3.67 16.22-5.55 24.37-8.14 6.53-1.56 13.37-2.14 19.98-2.63 5.49-.48 11.05-.86 16.38.64 6.38 1.28 12.4 3.74 18.34 6.26 3.89 1.79 7.32 4.4 11.12 6.38 6.31 3.19 12.27 7.77 17.38 12.49 7.06 6.05 13.63 12.59 19.11 20.13 6.61 9.32 11.48 19.83 16.31 30.12 3.72 9.07 6.56 18.49 9.18 27.95 1.38 4.27 2.24 8.7 3.53 13 1.22 4.15 2.52 8.3 3 12.64 1.59 12.34 2.42 25.03.78 37.4-.42 6.86-1.07 13.69-2.05 20.5-1.22 6.75-3.24 13.41-5.79 19.84h0c.38 1.13.7 2.12.95 2.76 1.06 2.52 1.25 5.14.98 7.86 1.12 5.81 5.31 10.93 4.55 17.18-.16.88-.17 2.32-.35 3.69.13.53.32 1.03.63 1.48.85 2.37 3.08 3.26 5.16 4.32 4.16 2.31 8.67 3.72 13.25 5 4.4 1.41 9.2 1.31 13.51 2.97 2.27.91 4.11 2.44 6.02 3.91 1.27.53 2.77.71 4.02.96 12.29 2.05 25.22 3.73 35.56 11.05 6.52 3.81 11.7 9.46 16.71 14.98 5.35 5.84 10.76 11.71 14.7 18.64 2.52 4.07 4.38 8.81 4.49 13.64zm-155.93-136.39c1.76-11.11 2.6-22.76 2.13-33.87-.55-17.86-5.46-39.8-10.12-56.83-5.5-14.53-12.42-23.88-21.91-36.16-7.51-9.51-15.63-18.53-26.05-24.74-8.08-3.76-16.29-7.71-25.37-8.42-11.78-.45-23.86 2.26-34.58 7.29-3.19 1.61-6.26 3.5-9.03 5.76-.76.77-1.53 1.55-2.3 2.32-3.86 4.47-6.53 9.45-10.33 13.9-2.7 4.43-5.44 9.27-7.99 13.73-4.25 8.28-10.48 16.9-12.42 26.03-3.92 12.39-3.93 24.96-4.03 37.85-.56 12.24.15 24.54 2.03 36.59 1.56 6.81 3.17 13.61 4.77 20.41 2.35 9.09 4.48 18.27 8.4 26.81 2.98 7.54 6.23 14.9 10.53 21.46 6.95 10.37 14.58 20.65 25.37 27.28.35.25.71.49 1.06.73.43-.07.89.0 1.3.27 5.44 3.08 11.15 5.83 17.19 7.56 5.72 1.07 11.64.48 17.45.3 2.97.1 10.97-1.99 12 1.53 5.09-1.31 10-3.34 14.83-5.39 5.56-2.59 10.55-6.31 15.91-9.21 3.42-5.51 6.32-11.33 9.49-16.98 1.05-1.83 1.94-3.77 3.14-5.5.31-.42.75-.66 1.21-.75 1.03-1.71 2.11-3.39 3.19-5.07.67-.92 1.08-2.28 2.26-2.64 1.1-1.71 1.27-4.54 3.36-5.34 4.09-12.7 6.62-25.77 8.51-38.91z" fill="#806599"/><path d="M766.03 236.09c4.33 8.14 3.97 19.83 1.93 28.78-1.54 6.37-5.08 12-7.48 18.06-3.37 8.81-5.72 18.02-6.19 27.41-.23 3.81-.01 7.01.14 10.68.01 3.35.91 6.88-.34 10.12-2.35 4.79-8.5 3.63-12.87 3.97-9.74-.68-19.32-1.53-28.98-2.54-5.75-1.16-11.2-3.46-16.91-4.34-.86-.24-1.22-.42-1.9-.85-2.23-.83-4.93-1.56-6.29-3.66-.21-.36-.31-.73-.33-1.09-1.42-4.06-2.62-8.18-4.55-12.03-3.25-6.1-6.68-11.52-9.75-17.63-7.28-13.78-12.2-30.57-5.62-45.88 2.67-6.12 6.58-11.68 10.18-17.25 1.42-2.24 2.83-4.49 4.25-6.73-4.5-17.4-8.53-34.94-11.78-52.66-1.02-7.54-4.62-14.52-4.11-22.3.0-4.39 3-9.12 7.62-9.68 7.84-.4 10.63 8.32 11.64 14.64 1.18 3.43 2.31 6.9 3.28 10.41 2.55 9.9 4.69 19.9 8.28 29.47 1.09 3.17 2.15 6.35 3.08 9.58.42 1.08.71 2.4 1.65 3.14.66-.28 1.2-.66 1.66-1.13h0c.48-1.57 1.26-3.21 1.47-4.32.72-2.56 1.66-5.08 2.27-7.65.18-1.39.71-2.71 1.17-4.04-.03-.28.0-.58.09-.86.75-2.54 1.51-5.07 2.26-7.61 1.07-3.32 2.04-6.98 2.6-10.35 1.8-6.3 3.35-12.69 4.82-19.05 2.17-7.72 2.74-19.1 10.91-23.03 1.95-.82 4.13-.5 5.8.67 4.31 2.64 6.72 7.85 5.89 12.92-.55 3.24-1.42 6.42-2.37 9.58-1.8 8.51-2.85 17.14-4.2 25.72-1.83 9.58-4.19 19.22-6.22 28.78 7.53-1.82 15.88 2.2 19.22 9.07 6.98-.38 13.71 4.34 15.89 10.88.73 2.15 1.49 4.3 1.9 6.54.08 1.7.85 3 1.89 4.27z" fill="#e1947c"/><path d="M92.19 348.11c10.01 13.96 5.38 24.3 2.67 39.58-2.18 12.72-5.04 25.41-5.74 38.29-.16 5.89-.42 11.79-.89 17.68.26.36.42.83.42 1.42-.03 1.94-1.24 3.57-2.88 4.56-4.49 2.21-8.68 4.98-13.09 7.35-7.26 3.4-14.66 6.48-22.07 9.55-2.8 1.5-5.51 3.18-8.26 4.79-1.86 1.13-4 2.07-6.19 1.74-2.17-.34-3.02-2.62-3.32-4.54-.05-.52.1-1.03.39-1.46-1.63-7.62-1.34-15.75-5.22-22.62-2.96-4.44-7.29-7.73-10.51-11.97-6.63-8.46-12.16-18.05-15.39-28.38-3.32-12.53-2.33-25.96.23-38.68.08-.28.2-.52.36-.72-.09-1.25-.18-2.53-.28-3.85-.93-10.26 5.3-25.21 17.06-21.64.12-.52.22-.98.28-1.34 1.56-7.36 10.11-12.04 17.06-9.95-.14-1.55-.28-3.1-.37-4.65-.84-8.2-1.21-16.43-1.11-24.71-.3-6.54-1.05-13.05-1.22-19.6-.21-5.24-.28-10.47-.64-15.66.1-4.58-.36-9.63 2.14-13.74 2.04-2.76 6.37-2.99 9.18-1.55 6.05 3.62 6.18 14.46 7.95 20.74 1.57 6.14 1.94 13.02 3.01 19.15 1.44 6.31 1.82 12.81 2.44 19.25 3.82-11.58 6.83-23.4 11.23-34.81 1.59-4.15 2.65-8.57 5.43-12.17 5.2-7.56 13.01-1.63 13.9 5.43.82 6.84-1.04 13.6-2.03 20.36-.7 3-.51 6.05-.93 9.07-1.41 8.52-3.23 16.98-4.41 25.54.13 4.7-1.11 9.25-2.2 13.82 3.96 4.91 9.18 8.61 13.01 13.68z" fill="#e1947c"/><path d="M412.24 148.85c.72 7.41.77 14.58.17 21.87-.12 1.23-.11 2.5-.54 3.68-.13.29-.31.54-.54.73-.27 2.04-.6 4.08-.86 6.12-2.72 12.85-6.18 25.58-10.07 38.16-2.19 5.84-5.14 11.38-7.86 17-2.04 3.75-3.9 7.69-6.73 10.94-7.89 9.43-17.57 18.53-29.62 21.88-9.63 2.22-19.68 3.7-29.44 2.29-13.54-2.21-26.77-7-37.8-15.12-9.37-7.7-16.71-17.7-22.12-28.53-3.57-7.52-7.92-14.64-10.97-22.42-6.17-15.77-8.99-32.75-9.99-49.67-.93-11.28-1.03-22.39-1.14-33.6.03-4.19.18-8.4.5-12.59.37-3.11.53-6.4 2.13-9.2 2.75-4.82 6.67-8.84 10.03-13.24 3.33-3.98 7.28-7.41 11.65-10.2 1.15-.66 2.25-1.76 3.6-1.84 7.43-7.26 16.26-9.46 25.86-12.25 7.49-2.92 15.57-3.76 23.5-4.09 10.16-.71 20.12 1.19 29.84 3.71 9.05 1.86 18.14 4.09 26.01 9 5.43 3.31 10.51 7.07 15.61 10.81 1.57 1.45 6.63 4.35 6.31 6.84 1.19 2.09 1.98 4.44 2.79 6.71 2 5.19 3.38 10.61 4.6 16.05.85 3.17 1.28 6.9 1.68 10.02 1.03 3.96 1.22 8.04 1.49 12.14.47 4.96 1.59 9.81 1.9 14.8zM260.61 90.74c-.29.06-.58.08-.85.04-.61.73-1.19 1.48-1.77 2.23.85-.78 1.73-1.53 2.61-2.27z" fill="#eb9b81"/><path d="M256.79 99.14c.02-.88.49-1.6 1.09-2.24-.09-.07-.17-.16-.24-.25-1.2.39-2.57-.51-2.64-1.75-.72-1.33.29-2.64 1.48-3.29 1.55-1.17 3.08-2.36 4.66-3.48 2.91-2.1 8.57-7.64 9.78-1.22 2.27 1.72-.35 4.07-1.86 5.31-1.81 1.66-3.6 3.33-5.41 4.99-.92.89-1.92 1.7-2.82 2.6-.31.81-1.1 1.41-2.01 1.41-1.14.0-2.07-.95-2.04-2.09z" fill="#eb9b81"/><path d="M317.01 187.66c-5.15-.87-10.68-4.54-10.64-10.28-.23-3.15 1.5-5.91 2.41-8.84 1.13-3.48 2.86-6.8 3.49-10.41.45-2.84.0-5.75-.57-8.52-.07-2.16-2.36-6.15.78-6.98 1.09-.2 2.06.54 2.26 1.59.33 1.76.66 3.51.98 5.27.84 3.95 1 8.2-.21 12.12-1.38 3.73-2.75 7.47-4.13 11.21-3.09 5.75.75 10.02 6.45 10.96 1.42.46 3.67.29 3.7 2.31-.16 2.61-2.77 2.15-4.53 1.58z" fill="#bd664c"/><path d="M286.84 158.03c-5.13.04-9.29-4.82-8.38-9.91.23-4.09 3.73-8.9 8.18-8.44 3.85-.79 7.13 2.37 8.38 5.71 1.34 5.29-1.82 13.06-8.17 12.64z" fill="#2f2439"/><path d="M370.33 148.87c-.12-.03-.24-.07-.35-.11-.12.04-.25.08-.37.11.06.0.12.0.18.0-.06.0-.13.0-.2.0h0c.25.0.5.0.74.0zm-2.62 3.71c-7.54-1.88-8.59-11.25-2.41-15.71 2.73-1.9 5.32-2.88 8.51-1.47 9.61 3.84 3.75 19.65-6.1 17.17z" fill="#2f2439"/><path d="M265.31 128.01c-2.09-.91-2.65-3.48-1.43-5.37 1.39-2.49 4.38-3.19 6.93-3.87 7.66-1.95 20.92-4.74 27.17.88 1.95 1.58 1.79 5.02-.73 6.04-1.54.66-3.4.28-4.94.25-4.95-.44-9.77-.52-14.66.55-2.73.67-5.46 1.36-8.24 1.8-1.36.18-2.88.51-4.08-.28z" fill="#2f2439"/><path d="M384.09 118.29c1.95-1.24 2.21-3.89.8-5.59-1.65-2.27-4.66-2.5-7.25-2.77-7.75-.74-21.11-1.43-26.62 5.18-1.74 1.89-1.19 5.3 1.41 5.92 1.59.42 3.37-.26 4.89-.53 4.82-1.22 9.55-2.06 14.48-1.77 2.76.24 5.53.49 8.31.5 1.36-.04 2.89.06 3.98-.93z" fill="#2f2439"/><path d="M352.01 197.83c4.11.73 7.94 4.39 7.76 8.76-.42 5.98-5.07 10.39-9.66 13.77-6.86 4.79-14.5 8.97-23.01 8.82-9.53-.56-20.39-4.11-26.08-12.02-3.76-4.26-3.24-12.43 2.86-14.45 3.7-1.83 7.7-.38 11.57-.3 5.66.31 11.23-.34 16.82-1.26 6.68-.41 13.02-4.44 19.73-3.32z" fill="#fff5e4"/><path d="M528.04 416.27c-1.22-.06-2.11-1.12-2.04-2.33.28-5.51.57-11.03.89-16.53 1.12-18.95 11.79-49.84 25.78-63.21 2.58-2.51 5.59 1.49 2.65 3.54-13.22 13.69-19.85 35.5-23.53 53.65-.77 7.57-.91 15.19-1.37 22.77-.06 1.21-1.2 2.16-2.38 2.1z" fill="#eb881e"/><path d="M598.63 599.89c-11.93-14.48-21.47-30.57-30.54-46.94-5.48-9.84-9.79-20.29-14.98-30.29-4.34-10.28-9.16-20.39-12.89-30.92-1.37-4.22-2.71-8.46-4.14-12.66-3.24-8.78-5.45-17.85-7.83-26.85-.81-2.7 3.24-4.25 4.22-1.47.44 1.43.87 2.86 1.21 4.33 2.19 10.48 6.04 20.46 9.28 30.62 3.66 12.05 9.13 22.92 13.92 34.44 3.71 7.85 7.85 15.49 11.29 23.47 2.84 5.92 6.19 11.01 9.27 16.69 4.63 8.63 9.95 16.84 15.59 24.84 2.8 4.06 5.98 7.86 8.96 11.78.74.94.71 2.29-.25 3.13-.88.78-2.39.77-3.13-.17z" fill="#eb881e"/><path d="M440.93 390.42c-1.58-1.62.18-3.37 1.37-4.59 2.79-3.11 5.25-5.87 8.01-8.89 1.36-1.93 2.76-3.8 4.22-5.61.61-1.07 1.41-2.03 2.38-2.8.73-1.2 2.31-1.77 3.46-.86 2.01 1.76.0 3.69-1.47 5-1.38 2.05-2.96 3.93-4.42 5.92-2.73 3.59-6.08 6.83-9.01 10.24-1.19 1.47-2.72 3.23-4.55 1.59z" fill="#eb881e"/><path d="M461.52 366.61c-.85-.87-.79-2.26.06-3.14 2.47-2.64 5.24-5.21 7.55-7.96 8.34-10.15 17.5-19.59 26.17-29.46 1.87-2.01 3.91-3.87 5.82-5.85 1.28-1.28 2.81-2.95 4.54-1.35 1.24 1.25.4 3.01-.88 3.91-2.2 2.21-4.49 4.35-6.61 6.63-7 7.74-13.9 15.58-21 23.23-3.93 5.03-8.07 9.49-12.52 13.96-.85.88-2.31.85-3.14.02z" fill="#eb881e"/><path d="M652.63 534.92c-.03-17.7.35-35.52 2.59-53.16 1.13-8.38 3.2-16.03 4.89-24.15.55-2.84 4.8-2.31 4.38.6-1.58 7.7-3.55 15.04-4.7 22.73-1.17 8.42-1.83 16.77-2.16 25.21-.3 9.6-.77 19.18-.56 28.78-.14 2.89-4.45 2.92-4.43-.01z" fill="#eb881e"/><path d="M628.35 511.8c-.12-.95.5-1.88.95-2.69.87-1.46 1.77-2.9 2.71-4.32 4.74-7.13 10.21-13.87 16.07-20.11 1.75-1.42 4.31.58 3.37 2.62-.6 1.08-1.29 2.56-2.57 2.93-4.78 5.6-9.55 11.22-13.53 17.43-.93 1.46-1.87 2.91-2.68 4.44-.26.82-1 1.49-1.88 1.61-1.19.17-2.3-.7-2.45-1.91z" fill="#eb881e"/><path d="M751.84 433.45c-11.52.14-23.01-1.69-33.98-4.9-10.18-3.85-19.98-8.82-29.57-13.78-2.28-1.76-4.93-3.77-6.98-5.5-.55-.44-1.04-.94-1.13-1.68-.29-1.88 2.05-3.36 3.57-2.18 1.47 1.41 3.16 2.59 4.76 3.86 1.89 1.78 4.15 2.8 6.48 3.9 3.9 1.83 7.67 3.89 11.54 5.76 4.8 2.05 9.51 4.38 14.5 5.96 8.69 2.18 17.57 3.86 26.59 4.11 6.26.06 12.76.11 18.74-2.16 1.93-.72 3.83-1.55 5.6-2.62 1.04-.63 2.43-.27 3.03.75.6 1.04.22 2.41-.83 3.04-3.22 1.89-6.91 3.39-10.47 4.26-3.9.75-7.89 1.22-11.85 1.17z" fill="#eb881e"/><path d="M283.24 410.16c-8.8-5.65-15.31-14.12-20.9-22.83-3.64-4.95-7-10.1-10.6-15.07-.76-.96-1.69-2.1-1.68-3.41.04-2.74 4.2-3.04 4.49-.32 7.92 10.33 14.15 22.07 23.23 31.45 2.39 2.09 4.8 4.43 7.39 6.14 2.58 1.25.73 5.18-1.93 4.04z" fill="#eb881e"/><path d="M473.73 503.43c-1.56-27-4.39-54.25-8.24-80.74-3.04-22.86-4.98-46-12.98-67.7-1.79-5.4 6.47-8.54 8.39-3.08 5.59 16.36 9.32 33.27 10.86 50.58 1.9 14.49 3.92 28.94 5.71 43.18 2.43 18.9 3.9 37.95 5.11 57 .16 3.06-2.26 4.72-4.62 4.72-2.04.0-4.04-1.26-4.24-3.96z" fill="#fff5e4"/><path d="M257.12 508.46c-.85-16.33 1.94-32.61 3.09-48.88 2.94-27.75 6.75-55.67 14.43-82.62 1.13-2.22 3.76-3.08 5.96-2.1 3.12 1.4 2.55 4.95 1.56 7.66-6.66 25.69-10.51 51.77-13.16 77.96-.97 12.86-2.65 25.69-3.23 38.56-.4 3.89 1.42 8.44-.89 11.9-.85 1.06-2.08 1.54-3.31 1.54-2.21.0-4.43-1.55-4.45-4.01z" fill="#fff5e4"/><path d="M593.32 718.78c-5.67-7.5-12.28-14.22-18.45-21.29-4.25-4.91-9.19-9.28-13.79-13.78.05.04.09.09.14.13.03.03.05.06.06.06-6.57-6.53-14.26-11.71-22.21-16.42-4.13-2.49-8.33-4.88-12.25-7.69-1.54-1.11-.93-3.77 1-4.09.91-.19 1.81.2 2.29.93 5.54 3.86 11.57 6.95 17.18 10.69 6.77 4.09 13.07 9.28 18.58 14.81 6.92 6.15 13.06 13.06 19.16 20 3.21 3.36 6.2 6.91 9.16 10.48 1.31 1.85 4.86 4.49 2.21 6.7-.38.27-.83.4-1.26.4-.7.0-1.39-.33-1.81-.93z" fill="#eb881e"/><path d="M476.61 812.19c-1.63-1.66.2-4.52 2.42-3.67 4.81-.68 9.62-1.44 14.39-2.46 19.56-2.81 39.49-5.04 58.89-8.85 8.17-1.86 16.63-3.52 24.77-5.24 7.65-1.6 15.42-3.1 22.69-6.07 1.05-.63 2.43-.26 3.02.77 1.17 2.29-1.34 3.54-3.22 3.99-6.9 2.65-14.16 4.07-21.36 5.57.06-.01.12-.03.17-.04-13.87 2.82-27.26 5.95-41.16 8.19-11.42 1.86-22.91 3.07-34.34 4.88-6.87.63-13.6 2.23-20.43 3.21-1.18.05-2.51.52-3.72.52-.78.0-1.5-.19-2.11-.8z" fill="#eb881e"/><path d="M265.51 812.73c-8.54-.49-16.78-3.08-24.89-5.46-5.38-1.98-11.4-3.11-16.08-6.5-2-2.01 1.06-5.17 3.14-3.21 2.87 1.88 6.04 2.61 9.21 3.77 8.91 3.03 17.99 5.7 27.24 6.93 1.09.03 1.64.06 2.55.1 3.35.33 2.6 4.48-.33 4.48-.26.0-.54-.03-.84-.11z" fill="#eb881e"/><g><path d="M162.61 673.02c-1.38-13.8-5.01-26.99-8.34-40.32-.75-2.78 3.35-4.15 4.24-1.39 3.35 13.52 7.08 26.95 8.48 40.89.39 2.86-3.84 3.68-4.38.82z" fill="#eb881e"/><path d="M183.66 649.04c-3.86-4.96-8.23-8.91-12.45-13.43-2.26-2.15-4.48-4.36-6.93-6.3-.95-.78-2.09-1.63-2.11-2.98-.02-1.21.94-2.26 2.16-2.33 1.67-.07 2.24 1.71 3.51 2.44 3.39 2.78 6.48 5.91 9.51 9.07 3.46 3.83 7.54 7.24 10.35 11.6 1.16 2.61-2.8 4.53-4.04 1.93z" fill="#eb881e"/><path d="M213.53 715.29c-1.25-.03-2.11-1.06-2.11-2.27-.01-11.1.01-22.19-.06-33.29.0-23.27 2.79-46.49 4.04-69.74.58-8.24 2-16.41 2.53-24.65.73-3.13 5.15-2.04 4.31 1.14-1.37 14.43-3.05 28.09-3.64 42.66-1.02 14.04-2.41 28.07-2.72 42.13-.19 13.96.0 27.9-.04 41.86.0 1.2-1.16 2.19-2.32 2.17z" fill="#eb881e"/><path d="M218.46 591.62c-2.04-1.28-.87-6.26-1.13-8.51-.35-11.51.3-22.63.82-34.09.67-16.02 1.54-32.06 3.26-48.03 3.45-23.35 7.48-46.74 14.65-69.36.91-2.71 5.04-1.65 4.23 1.23-7.2 22.73-11.23 46.25-14.63 69.71-1.45 13.98-2.22 28-2.91 42.01-.29 11.39-1.44 22.87-1 34.19.03 3.36-.04 6.73-.01 10.09.82 1.87-1.54 3.92-3.28 2.78z" fill="#eb881e"/><path d="M212.16 708.27c-1.53-1.59.24-3.49 1.18-4.94 1.36-1.9 2.73-3.8 4.1-5.7 5.84-7.8 11.82-15.56 18.59-22.59 3.15-3.43 6.35-6.73 9.18-10.41 1.82-2.27 5.24.38 3.44 2.71-6.86 8.56-15.03 16-21.53 24.86-3.58 4.56-7.06 9.19-10.39 13.92-.69.88-.96 2.19-2.11 2.6-.29.12-.6.19-.91.19-.57.0-1.14-.21-1.55-.64z" fill="#eb881e"/><path d="M42.21 569.28c-.68-.83-.53-2.18.26-2.92.81-.89 1.98-.45 2.96-.9 4.84-1.79 9.46-4.13 13.99-6.6 16.16-7.69 30.83-18.19 44-30.33.54-.47 1.05-.98 1.54-1.51 1.3-1.42 3.88-.32 3.75 1.57-.29 2.08-2.61 3.18-3.97 4.59-3.29 3.04-6.71 5.93-10.17 8.76-10.51 8.32-21.85 15.41-33.89 21.22-3.83 2.16-7.83 4.03-11.89 5.7-1.32.49-2.96 1.33-4.43 1.33-.79.0-1.53-.24-2.14-.91z" fill="#eb881e"/></g><g><path d="M80.13 332.46c-.73-.92-1.43-1.88-2.33-2.63-2.45-3.22-5.57-5.68-9.01-7.79-5.33-5.07-14.89-4.66-16.68 3.68-.77 4.51 1.59 8.48 3.73 12.19 1.86 3.44 4.3 6.49 6.02 10.05 5.56 8.6 3.78 15.69.57 24.97-2.44 8.37-3.49 17.19-2.43 25.79.19 1.3 1.14 1.88 2.11 1.88 1.21.0 2.46-.91 2.3-2.48-.19-1.36-.27-2.73-.34-4.1-.21-5.4.36-10.82 1.62-16.11 1.36-6.29 4.3-11.94 4.24-18.53.16-7.86-4.54-14.51-8.51-20.84-1.83-3.44-4.6-6.74-4.99-10.74-.49-3.28 3.02-5.62 5.95-4.43 3.42 1.59 6.76 4.25 9.68 6.63 1.45 1.93 3.27 3.5 4.72 5.43 1.19 1.72 4.13.94 4.16-1.25.02-.7-.3-1.33-.81-1.74z" fill="#bd664c"/><path d="M43 345.5c-.76-4.61-1.28-9.84-1.97-14.55-.14-2.13-.44-6-3.52-4.96-1.11.47-1.61 1.68-1.29 2.77 1.03 6.26 1.5 12.64 2.67 18.89 1.38 6.9 4.24 25.77-.34 31.33-1.65 1.85-4.42 1.93-6.63 1.39-2.05-.95-3.05-3.11-3.78-5.14-3.56-9.38-4.12-19.47-5.47-29.37-.18-1.5-.39-3.01-.51-4.52.2-1.39-.67-2.78-2.15-2.78-1.21.0-2.24 1.01-2.27 2.22.45 7.28 1.77 14.5 2.6 21.74.53 4.11 1.51 8.12 2.92 11.99.69 2.66 1.87 5.65 3.8 7.75.21 3.84-3.51 6.93-7.15 7.21-3.71.26-6.55-2.68-8.03-5.76-2.46-4.92-3.51-10.29-5.43-15.5-.76-1.8.05-4.88-2.69-4.98-2.54.08-2.72 2.5-2.03 4.38.72 3.16 2.04 6.15 2.79 9.32 2.13 6.53 4.7 14.83 12.2 16.63.88.24 1.78.36 2.69.36 5.29.0 10.62-3.95 11.84-9.12.37.08.74.15 1.14.18.66.08 1.29.12 1.88.12 9.43.0 11.4-9.61 11.2-17.84-.19-7.4-.85-14.49-2.45-21.75z" fill="#bd664c"/></g><g><path d="M703.2 260.99v.02c-2.89-4.46-8.06-8.9-4.69-14.76 2.16-4.19 4.79-8.56 7.05-12.77 2.78-5.05 5.45-10.67 4.47-16.5-.46-3.03-1.88-6.1-4.85-7.33-7.55-3.49-16.54 1.36-21.57 7.43-.91 1.06-1.84 2.1-2.78 3.14-.58.33-1.01.9-1.12 1.61-.18 1.12.51 2.11 1.56 2.45 1.42.44 2.56-.74 3.38-1.76 1.22-1.33 2.38-2.69 3.52-4.09 4.18-3.67 10.46-7.62 15.81-4.3 5.6 6.79-2.97 17.98-6.34 24.52-2.62 4.66-6 9.83-4.1 15.33 1.92 5.65 6.77 9.19 8.97 14.81 2.27 4.68 2.93 10.28 3.41 15.48.19 1.29 1.14 1.88 2.12 1.88 1.2.0 2.44-.9 2.29-2.48-.58-8.08-2.32-16.06-7.13-22.68z" fill="#bd664c"/><path d="M764.69 233.56c-1.73-2.13-4.08.29-5.59 1.55-3.81 2.92-7.43 6.35-10.32 10.23-2.46 3.41-4.4 7.18-6.51 10.81-2.15 4.26-7.31 13.05-11.59 5.97-2.72-4.91-1.61-9.06-.38-14.25 2.81-11.58 9.59-21.16 16.75-30.7.72-.99.65-2.35-.33-3.11-.9-.71-2.4-.59-3.12.4-2.18 3.01-4.36 6.03-6.53 9.05-6.12 8.74-10.89 18.91-12.24 29.48-.26.24-.5.53-.75.82-.63.74-1.29 1.47-2.36 1.46-6.06.32-5.48-12.34-5.19-16.51.99-7.86 3.71-15.5 7.2-22.64 1.47-2.91 2.85-5.86 4.47-8.7.76-.8.85-2.16.0-3.05-3.38-2.62-4.86 3.29-6.27 5.52-5.49 10.63-10.19 22.2-10.04 34.23.31 5.56 1.05 13.27 7.1 15.33.72.17 1.48.27 2.24.27 1.24.0 2.48-.25 3.58-.82.96 4.81 3.72 9.76 8.93 10.29.22.02.43.03.65.03 9.03.0 13.3-16.54 18.77-22.35 2.55-3.35 5.77-6.05 9.03-8.66 1.46-1.27 3.99-2.36 2.49-4.65z" fill="#bd664c"/></g><g><path d="M291.34 280.86c5.21 2.65 10.2 5.83 15.31 8.69 11.45 5.83 23.98 8.6 37.01 8.18 1.15.07 2.3.1 3.44.1 11.76.0 23.21-3.6 33.82-8.87 8.47-3.35 16.01-8.5 23.88-13.03 5.23-3.65 9.75-8.36 14.26-12.86 2.07-2.15-.98-5.14-3.06-3.14-2.46 2.73-5.23 5.15-7.95 7.61-2.66 2.79-5.78 4.99-9.18 6.76-4.29 2.49-8.44 5.24-12.85 7.54-8.73 3.86-17.31 8.35-26.69 10.35-8.09 1.52-16.33 1.2-24.48.87-11.51-.79-22.94-5.11-32.6-11.24-3.03-1.78-6.09-3.53-9.22-5.12-.56-.31-1.18-.46-1.82-.28-2.36.68-2.06 3.85.12 4.43z" fill="#604c73"/><path d="M491.96 257.7c-.3-2.39-2.92-1.91-4.68-1.67-7.52.69-15.14 3.09-22.21 5.9-10.6 3.63-19.85 10.31-29.43 16.02-4.9 3.49-10.04 6.62-15.02 10.01-4.56 3.61-9.3 6.98-13.79 10.67-6.64 5.75-12.56 12.28-18.88 18.37-7.27 6.7-14.31 13.65-22.11 19.74-.63.49-1.27.97-1.91 1.45-9.32.16-18.49-2-26.98-5.58-6.01-2.33-12-4.73-17.76-7.6-9.78-5.65-18.52-12.83-26.91-20.32-.92-.84-1.89-1.76-2.81-2.75-.39-.55-1.03-.91-1.75-.91-1.93-.05-3.02 2.43-1.69 3.79 8.71 8.71 18.51 16.3 28.91 22.93 4.85 2.86 10.16 4.84 15.33 7.05 8.81 3.74 17.99 6.87 27.6 7.65-3.6 2.39-7.3 4.62-11.17 6.79-5.81 2.94-11.72 4.65-18.19 6.11-4.34.28-8.83-.31-13.06-1.15-1.32-1.28-3.71-.21-3.73 1.65-.21 4.02 10.31 3.44 13.44 4.01.45.05.89.07 1.34.07 3.04.0 6-1.02 8.94-1.8 11.44-2.73 21.33-9.52 30.89-16.21 15.48-11.81 28.63-26.28 42.82-39.53 5.15-4.17 10.44-8.17 15.77-12.1 11.48-7.43 22.78-15.23 34.91-21.54 9.65-4.1 19.7-7.86 30.18-8.57 1.21-.08 2.09-1.36 1.96-2.49z" fill="#604c73"/><path d="M384.31 311.32c-6.1 1.01-12.34.58-18.39-.33-6.03-1.29-12.72-2.66-18.83-4.23-1.51-.27-2.91-.9-4.39-1.21-1.21.0-2.24 1.01-2.27 2.22-.05 2.15 2.43 2.53 4.04 2.93 1.71.43 3.42.86 5.13 1.28 7.24 1.47 14.38 3.66 21.81 4.08 1.87.18 3.74.28 5.63.28 2.6.0 5.19-.19 7.76-.63 1.19-.22 2.1-1.26 1.96-2.5-.13-1.16-1.26-2.12-2.45-1.9z" fill="#604c73"/><path d="M372.18 266.54c1.3-.04 2.4-.96 3.46-1.64 3.61-2.44 7.14-4.98 10.47-7.79 10.03-7.73 19.31-16.34 28.14-25.4 4.7-4.35 8.42-9.58 12.67-14.33 1.24-1 1.73-2.84.39-3.91-1.13-.9-2.65-.37-3.43.75-1.53 1.68-3.02 3.43-4.47 5.23-2.67 3.48-5.69 6.63-8.79 9.72l.02-.04c4.07-7.06 8.45-13.97 12.07-21.27 3.38-6.96 5.91-14.22 9.15-21.25 1.14-2.72-2.78-4.36-4.05-1.73-3.53 7.76-6.34 15.8-10.2 23.41-3.75 6.66-7.48 13.36-11.58 19.82-3.96 5.61-8.15 11.06-12.25 16.56-.18.24-.31.51-.39.78-4.87 4.2-9.89 8.23-14.98 12.17-2.21 1.54-4.37 3.17-6.68 4.56-.95.25-1.69 1.13-1.71 2.14-.03 1.21.96 2.22 2.16 2.22z" fill="#604c73"/></g></g></g></g></svg>