<svg xmlns="http://www.w3.org/2000/svg" width="1014.95" height="1080" viewBox="0 0 1014.95 1080"><g id="Слой_2" data-name="Слой 2"><g id="Lips09_142200386"><g id="Lips09_142200386-2" data-name="Lips09_142200386"><path d="M1003.39 716.38l1.35-9.33c1.69-12.13 3.12-24.15 4.42-37 2.35-23.42 4-47.43 5-71.45.47-12.13.73-23.91.78-35 .07-5.57.06-11.45.0-17.28l-.12-7-.11-6.73c-.37-17.32-1.31-35.26-2.71-52.24-3.11-35.88-6.81-56.79-13-84.75-2.4-12.33-5.2-25.73-9.33-40.28-3.14-11.25-7.37-25.37-14.42-43.72-1.41-3.84-3.51-9-6.05-15.23-1.36-3.44-3-7.11-4.7-11l-1.18-2.71-.95-2.17-.74-1.64-1-2.31c-3.35-7.2-7.11-15.14-11.32-23.31-17.48-34-36.39-63.59-57.77-90.53-27.19-34.18-55.23-60.83-85.74-81.47a263.25 263.25.0 0 0-59-30.06 221.19 221.19.0 0 0-33-8.63l-1.9-.32-1.72-.29c-4-.68-8.54-1.45-13.6-2-5.29-.72-10.69-1.25-16.07-1.57A258.66 258.66.0 0 0 614 41.8q-4.43.84-8.69 1.82C576.26 24.25 542 10.87 503.15 3.67L5e2 3.1a221.19 221.19.0 0 0-60.35-1.88A292 292 0 0 0 382.48 13C350 23.15 317.41 38.57 285.6 58.89a535.07 535.07.0 0 0-78.66 61.58c-45.69 43.12-84.58 94.41-112.51 148.38-22.86 43.55-41.9 90.58-59.8 147.78A1105.11 1105.11.0 0 0 2.77 545.88c-.2 1.08-.36 2.16-.48 3.26-5.13 45.52-.66 83.6 3.8 111.68a513.9 513.9.0 0 0 16.55 68.29c4.24 13.11 7.08 20.86 8 23.32.77 2.18 2.9 8 6.53 16.91 5.74 14.39 12.75 29.81 20.65 45.39a594.75 594.75.0 0 0 40 67.45c9.89 14.31 19.64 27.15 29.93 39.45a363.66 363.66.0 0 0 40.42 41.73 230.37 230.37.0 0 0 28 20.95q11.34 7.41 27 16a529.38 529.38.0 0 0 59.12 27.19c40.2 15.67 84.21 28.26 130.77 37.41 5.81 1.13 11.58 2.2 17.37 3.21A780.1 780.1.0 0 0 559.86 1080c29.4.0 55.43-1.75 79.89-5.3a418.59 418.59.0 0 0 41.59-8.33c.31-.08.61-.17.91-.23a270.86 270.86.0 0 0 43.68-16.5c23.39-11 46.91-24.87 72-42.49a592.61 592.61.0 0 0 63.6-51.94c41.56-39 75.6-82.43 101.05-128.93a429.24 429.24.0 0 0 32.52-76.14c1.28-3.91 2.56-8.54 3.83-13.17.48-1.77 1-3.54 1.47-5.31l.3-1.08.31-1.18c.33-1.29.62-2.58.85-3.88l.26-1.44.46-2.74z" fill="#fcfcfc"/><path d="M498.78 10.07h-.11-.13-.09.0-.09-.26-.06-.43v0h-.06s0 0-.05.0H497h-.05-.22-.05-.1-.07-.16-.06-.16-.05-.39v0h-.11-.06-.1-.06H495s0 0-.06.0h-.44-.05-.71v0h-.11-.05-.18s0 0 0 0h-.6-.05-.29-.1.0l-.83-.12h0-.18H491a.12.12.0 0 0-.08.0h-.65v0h-.44-.07-.32v0h-.55s0 0-.06.0h-.27a.16.16.0 0 0-.07.0h-.26-.06H488v0h-.29a0 0 0 0 1 0 0s0 0-.07.0H487s-.05.0-.06.0h-1v0h-.75-.21-.11-.11-.18-.64-.07-.11s0 0-.05.0h-.66s0 0-.07.0h0a.09.09.0 0 0-.07.0h-.37-.08H482v0h-.45-.09-.8-.1-.35c-3.15-.25-6.32-.42-9.52-.54l-.48 14.16A187.64 187.64.0 0 1 496.34 24l2.44-13.95zm-56.43-2c-.67.0-1.33.12-2 .19h-.88a0 0 0 0 0-.05.0h-.26a.08.08.0 0 0-.06.0h-.31a0 0 0 0 1-.05.0h-.2s0 0-.06.0h-.73s0 0 0 0h-.2a.07.07.0 0 1-.06.0h-.21s0 0 0 0h-.11-.06.0-.29-.21-.07H436s0 0 0 0h-.48a0 0 0 0 0 0 0h-.09a5 5 0 0 0-.56.06H434h-.05-.34-.09.0a2.35 2.35.0 0 0-.37.05h-.2s0 0 0 0h-.57-.06H432s0 0-.07.0h-.11-.09-.15-.16-.06-.1-.05-.57-.06-.25-.08-.14s-.05.0-.07.0h0l-.53.08h0-.1-.12-.1-.54-.1-.11q-7 1-14 2.45l2.79 13.88c8.29-1.67 16.58-2.91 24.65-3.72l1.87-.19-1.3-14.09zm-55.46 11c-.78.22-1.55.46-2.32.7h0l-.18.05h-.13-.06L384 20h0a.44.44.0 0 1-.15.05h0-.16.0l-.16.05h0l-.16.05h0l-.16.05h0a.67.67.0 0 1-.17.06h0a.38.38.0 0 1-.15.05v0l-.15.05h0l-.17.06h0a.58.58.0 0 1-.16.05s0 0 0 0h-.17.0l-.17.06h0a.69.69.0 0 0-.17.0h0l-.17.05v0l-.18.05h0l-.19.05h0l-.17.05h0l-.18.06h0l-.19.07h0l-.18.05h0l-.19.06h0q-9.94 3.26-19.92 7.19l5.19 13.16c7.78-3.06 15.66-5.83 23.41-8.25l2.21-.68L386.89 19.1zM334.23 39.77q-6.27 3-12.52 6.3h0l-.15.07s0 0 0 0l-.13.07h-.06l-.13.07h-.07l-.1.06h-.09a.53.53.0 0 1-.1.06l-.1.05h-.09a.53.53.0 0 1-.1.06h-.08a.34.34.0 0 1-.12.06l-.07.05-.13.06a.11.11.0 0 1-.07.0.74.74.0 0 1-.13.08h-.05l-.15.07v0l-.18.09h0c-3.47 1.84-6.91 3.74-10.36 5.69l7 12.31c8-4.55 16.15-8.83 24.21-12.72l-6.14-12.75zM285 67.71q-8.61 5.6-17.12 11.69h0l-.17.12h0l-.16.12v0l-.7.5a0 0 0 0 0 0 0l-.15.11v0a1.3 1.3.0 0 0-.15.1.0.0.0 0 0 0 0 .83.83.0 0 0-.15.11s0 0 0 0-.24.16-.35.25v0l-.14.1h-.05a.58.58.0 0 0-.12.1s0 0-.06.0l-.1.06-.07.06-.11.07-.06.06a.5.5.0 0 0-.12.08l-.11.08-.1.07a.28.28.0 0 1-.09.06l-.08.06a.24.24.0 0 1-.08.06s-.06.0-.08.07a.2.2.0 0 0-.09.06h-.07l-.11.07h-.05l-.42.31h0a.67.67.0 0 1-.14.09s0 0 0 0l-.13.09v0l-.14.11h0l-1.54 1.14 8.41 11.39c7.43-5.48 15-10.76 22.58-15.69L285 67.71zm-45.58 33.56-.33.28v0l-.17.12s0 0 0 0a.67.67.0 0 1-.14.11s0 0 0 0a.64.64.0 0 0-.13.1v0a.5.5.0 0 0-.13.12s0 0 0 0l-.15.12s0 0 0 0l-.67.56h0a.75.75.0 0 1-.14.12v0a.58.58.0 0 1-.14.13s0 0 0 0l-.14.12h0l-.83.71h0l-.16.12s0 0 0 0l-.15.12h0l-.16.14h0l-1 .85h0c-.45.37-.9.76-1.34 1.14h0c-1.78 1.52-3.57 3.05-5.35 4.61h0a1.07 1.07.0 0 0-.16.14h0c-.28.24-.56.48-.83.73h0l-.13.13v0l-.12.1h-.05a.65.65.0 0 1-.12.11s0 0 0 0l-.12.11v0a.81.81.0 0 1-.14.12s0 0 0 0l-.17.14h0l-.15.14v0l-.13.11s0 0-.06.05l-.09.09-.08.06a.27.27.0 0 1-.08.07.46.46.0 0 1-.07.07s-.06.06-.09.07a.6.6.0 0 1-.08.08s0 0-.07.0l-.08.09a.07.07.0 0 0-.05.0l-.55.48a0 0 0 0 0 0 0 .74.74.0 0 0-.13.12.0.0.0 0 0 0 0l-.12.11h0l-.13.12a0 0 0 0 1 0 0c-2 1.75-3.93 3.52-5.87 5.29l9.53 10.46c6.82-6.22 13.83-12.3 20.84-18.08l-9-10.94zm-41.78 38.2q-5.91 6-11.64 12.14h0l-.13.15v0a1.36 1.36.0 0 1-.12.12.07.07.0 0 1 0 0l-.11.13s0 0 0 0l-.14.15s0 0 0 0l-.12.12a.15.15.0 0 0 0 .06.41.41.0 0 0-.1.09v.06a.34.34.0 0 0-.08.09.34.34.0 0 0-.06.06l-.08.08-.11.12-.09.1-.07.07s0 0-.05.07-.06.06-.09.08.0.0.0.06l-.08.1v0c-.15.18-.31.34-.47.52h0a.71.71.0 0 0-.12.13h0c-1.82 2-3.63 4-5.43 6l10.58 9.43c6.11-6.86 12.46-13.63 18.88-20.14l-10.07-9.95zM160 181.72c-1.35 1.67-2.68 3.33-4 5h0a1 1 0 0 0-.12.16h0c-.08.11-.16.23-.25.34v0a.76.76.0 0 1-.11.14s0 0 0 .05l-.1.11a.07.07.0 0 1 0 0 .63.63.0 0 1-.1.12v.05L155 188s0 0 0 0a1.13 1.13.0 0 1-.1.13l-.05.07-.07.08-.07.09v.08a.29.29.0 0 0-.07.08s0 0-.06.06l-.26.35v0a.76.76.0 0 0-.08.11.1.1.0 0 0 0 0 .33.33.0 0 0-.09.11v0q-4.28 5.51-8.41 11.1h0l-.42.56v0a.44.44.0 0 1-.08.11v.06l-.07.09a.1.1.0 0 1 0 .06.18.18.0 0 1-.07.1l-.06.09-.08.1-.09.13v.05l-.09.13v0a.54.54.0 0 0-.09.12v0l-1.55 2.13 11.45 8.32c5.37-7.4 11-14.77 16.78-21.92l-11-8.88zm-33.26 45.81q-7.75 11.92-14.8 24.14l12.27 7.07c4.54-7.86 9.38-15.76 14.39-23.49l-11.86-7.72zm-28.3 49Q92 289 85.9 302l12.82 6c3.93-8.4 8-16.78 12.25-24.92l-12.58-6.49zm-24 51.27Q69 340.64 63.78 354.08L77 359.17c3.37-8.78 6.88-17.46 10.42-25.81l-13-5.53zM54 380.67c-1 2.82-2 5.65-3 8.52.0.0.0.05.0.06l-.05.11s0 .06.0.09a.92.92.0 0 1 0 .09 1.15 1.15.0 0 0-.06.17v.06a1.09 1.09.0 0 0-.05.14s0 0 0 0c-2 5.74-3.9 11.58-5.83 17.54l13.46 4.37c2.95-9.09 5.92-17.9 8.93-26.5L54 380.67zm-17.38 53.9c-.23.77-.47 1.54-.69 2.32a.06.06.0 0 1 0 0l-.05.15a.29.29.0 0 1 0 .09 1.31 1.31.0 0 1-.05.15.31.31.0 0 1 0 .08.7.7.0 0 0 0 .14.42.42.0 0 0 0 .12v.11c0 .09.0.15-.07.23v.06l-.05.18v.09c0 .05.0.1.0.15v.1a.65.65.0 0 1 0 .13.29.29.0 0 1 0 .1.49.49.0 0 1 0 .16.24.24.0 0 1 0 .08l-.06.23a.62.62.0 0 0 0 .1 1.21 1.21.0 0 1-.05.14s0 .06.0.09a.66.66.0 0 0 0 .15.15.15.0 0 0 0 .09s0 .1.0.16a.08.08.0 0 0 0 .07 1.21 1.21.0 0 0 0 .18.14.14.0 0 0 0 .07 2.17 2.17.0 0 0-.07.24s0 0 0 0a1.46 1.46.0 0 1-.05.2.36.36.0 0 1 0 .09.58.58.0 0 1 0 .14.62.62.0 0 1 0 .1c0 .05.0.1.0.14a.38.38.0 0 1 0 .1v.16a.24.24.0 0 0 0 .08 2 2 0 0 0-.07.23.36.36.0 0 0 0 .1v.13a.5.5.0 0 0 0 .13v.1a.38.38.0 0 0 0 .13.32.32.0 0 1 0 .09.66.66.0 0 1 0 .15s0 .05.0.06l-.24.8v0q-2.62 9.17-5.06 18.28l13.68 3.66q3.59-13.38 7.57-26.94l-13.58-4zM22 489.27c-.19.79-.37 1.58-.57 2.36.0.0.0.0.0.05v.14a.3.3.0 0 0 0 .1.53.53.0 0 0 0 .12.61.61.0 0 0 0 .13v.1c0 .05.0.11.0.18a.43.43.0 0 0 0 .05q-2 8.49-3.88 16.92v0a1 1 0 0 1-.05.21v.05a1 1 0 0 0 0 .18.14.14.0 0 0 0 .07c0 .06.0.11.0.17a.25.25.0 0 1 0 .07s0 .11.0.16a.19.19.0 0 0 0 .08v.14a1.62 1.62.0 0 0 0 .19.5.5.0 0 0 0 .12 1.55 1.55.0 0 1 0 .15.25.25.0 0 0 0 .08c0 .05.0.11.0.15s0 0 0 .07a1.09 1.09.0 0 1-.05.17v.05a1 1 0 0 0 0 .17.08.08.0 0 0 0 0q-.57 2.57-1.12 5.12l13.85 3q2.88-13.53 6.19-27.25L22 489.27zM10.18 544.66c0 .2-.08.4-.11.6.0.0.0.0.0.07s0 .11.0.19v.13a.43.43.0 0 1 0 .12c0 .06.0.13.0.18s0 .16.0.24.0.0.0.07.0.16.0.24.0.0.0.0.0.19-.05.28h0c0 .11.0.21.0.3h0c0 .1.0.21-.05.31-.15.82-.26 1.65-.36 2.48.0.06.0.11.0.16a.17.17.0 0 1 0 .07.34.34.0 0 1 0 .1s0 0 0 .06.0.1.0.14.0.06.0.08a.19.19.0 0 1 0 .08.28.28.0 0 1 0 .09v.06c0 .07.0.11.0.19s0 0 0 0a.5.5.0 0 0 0 .12v0c0 .12.0.26.0.38h0Q8.42 558.28 8 564.82v0c0 .11.0.22.0.33v.06a.12.12.0 0 1 0 .08v.09s0 .08.0.11v.09a.15.15.0 0 1 0 .07v.11s0 0 0 0a.76.76.0 0 0 0 .15.0.0.0 0 0 0 0 .51.51.0 0 0 0 .13v0c0 .1.0.23.0.34h0c-.13 2.11-.24 4.22-.35 6.3l14.14.68c.35-7.34.94-14.74 1.76-22 .07-.63.16-1.26.28-1.89l.44-2.44-13.93-2.55zm11.21 56.07-14.15.42c.07 2.49.17 5 .29 7.38h0a1.55 1.55.0 0 0 0 .22h0s0 .07.0.11h0v.23s0 .06.0.08.0.0.0.0v.19s0 0 0 0a.28.28.0 0 1 0 .09s0 0 0 0a.25.25.0 0 0 0 .08s0 0 0 0 0 .05.0.07.0.0.0.0V610a.16.16.0 0 1 0 .07v0c0 .24.0.49.0.73h0v.11a.22.22.0 0 0 0 .08v0s0 0 0 .08v.12h0v.1h0v.1h0a.34.34.0 0 0 0 .1h0v.11h0c.18 3.16.4 6.25.64 9.27h0v.1h0a.06.06.0 0 0 0 .08v.1a.1.1.0 0 0 0 0v.1s0 0 0 .06.0.0.0.06v0a.07.07.0 0 1 0 .05v.11s0 0 0 0v.07a.08.08.0 0 0 0 0s0 0 0 .06a0 0 0 0 1 0 0 .19.19.0 0 1 0 .08v0c.21 2.49.44 5 .68 7.36L23.18 628c-.94-9.36-1.52-18.28-1.79-27.25zm5.33 54.57-14 2.18c.12.75.24 1.49.35 2.23h0s0 .07.0.1v0s0 0 0 0a.08.08.0 0 1 0 .06v0 0s0 0 0 .05a.51.51.0 0 1 0 .13h0a.28.28.0 0 1 0 .09h0v.08h0c0 .11.0.22.07.34h0c.56 3.29 1.15 6.5 1.75 9.61v0l.09.46v0c0 .1.0.2.05.29v0c0 .11.0.21.06.32h0a.13.13.0 0 0 0 .06v0s0 0 0 .06v0a1.62 1.62.0 0 1 0 .19s0 0 0 0v0s0 0 0 0v.06.0c0 .06.0.12.0.19a.08.08.0 0 1 0 0s0 0 0 .05a.06.06.0 0 1 0 0 .09.09.0 0 1 0 0v.06.0s0 0 0 .06a.09.09.0 0 0 0 0s0 0 0 .05v0a.19.19.0 0 0 0 .07v0 .17s0 0 0 0v.06s0 0 0 0 0 0 0 0 0 0 0 0a.11.11.0 0 0 0 .08v0a.19.19.0 0 1 0 .07v0 .08h0l.06.29v0s0 .06.0.09h0c.46 2.29.92 4.51 1.39 6.68h0v.19.0a.17.17.0 0 1 0 .07v0s0 .05.0.07.0.0.0.0a.14.14.0 0 0 0 .07v0s0 0 0 .07.0.0.0.06v0 0s0 0 0 0a.07.07.0 0 0 0 .06h0c.27 1.32.56 2.61.85 3.87l13.81-3.1c-1.82-8.11-3.47-16.46-4.88-24.67l-.34-2.19zm12 53.53-13.61 3.88c1 3.42 1.93 6.65 2.85 9.69h0a.76.76.0 0 1 .06.2.06.06.0 0 1 0 0s0 0 0 .05.0.0.0.06a0 0 0 0 0 0 0c.42 1.39.83 2.74 1.24 4.05v0s0 0 0 .06a.64.64.0 0 0 0 .07h0c1.63 5 3.06 9.27 4.23 12.7L47 735.11c-1.16-3.37-2.55-7.52-4.1-12.3-1.31-4.23-2.72-8.88-4.18-14zm17.92 52-13.11 5.35h0l13.11-5.35zm.17.42-13.28 4.93h0l13.28-4.93-13.1 5.36h0a.94.94.0 0 0 .06.15s0 0 0 0a.47.47.0 0 1 .06.15v0a1.39 1.39.0 0 0 .06.13.06.06.0 0 0 0 0s0 .08.0.11a.08.08.0 0 1 0 .05 1.39 1.39.0 0 1 .06.13v0s0 .09.0.13.0.0.0.0l.06.13a.06.06.0 0 0 0 0 1 1 0 0 0 0 .1s0 0 0 .07a.49.49.0 0 1 0 .11s0 0 0 0a.61.61.0 0 1 0 .12v.07.06s0 .08.0.13v0a.67.67.0 0 0 .06.17h0a.21.21.0 0 1 0 .1v0a.76.76.0 0 0 .06.16.0.0.0 0 1 0 0c.06.16.13.31.19.47a0 0 0 0 1 0 0l.07.18v0c2.33 5.72 4.86 11.59 7.54 17.54v0l.07.14a.64.64.0 0 1 0 .07v.09.1a.06.06.0 0 0 0 .06.78.78.0 0 0 .05.14v0a2.37 2.37.0 0 1 .14.32h0l1.79 3.9 12.86-6c-3.93-8.49-7.54-16.86-10.79-25zm23 49.8-12.57 6.54q4 7.59 8.22 15.19v0l.19.36s0 0 0 0 0 .09.07.13.0.08.06.11a197520575452.78 197520575452.78.0 0 0 .1.18s0 .05.05.06a.67.67.0 0 0 .08.17v.05a.74.74.0 0 1 .08.13v0a1 1 0 0 0 .1.17s0 0 0 0l.09.16s0 0 0 0q2.23 4 4.55 7.91l12.22-7.16c-4.69-8-9.18-16.12-13.36-24.15zm27.91 47.65-11.87 7.75.47.7a.25.25.0 0 1 0 .07s0 0 .06.08.0.0.0.09v0c0 .09.1.15.14.22s0 0 0 0q2 3 4 6h0c.07.11.14.22.23.34s0 0 0 .06.0.07.07.08a.93.93.0 0 0 0 .1l.08.11a.47.47.0 0 1 .06.09v.07l.07.11v.05a1.19 1.19.0 0 1 .09.15v0l.09.13s0 0 0 0a1.2 1.2.0 0 0 .11.17v0l.09.13s0 0 0 0l.24.34s0 0 0 0l.62.9h0l.5.72s0 0 0 0l.12.17h0l.12.18h0a.91.91.0 0 0 .11.16v0c0 .06.08.12.11.17q2.58 3.74 5.15 7.33v0a1.7 1.7.0 0 1 .1.14v.06a.39.39.0 0 0 .08.1.47.47.0 0 0 .06.09l.06.08a.2.2.0 0 0 .07.09v0a1.1 1.1.0 0 0 .09.14h0l2.53 3.51 11.46-8.33c-2.67-3.68-5.36-7.45-8-11.29s-5.14-7.6-7.63-11.44zm32.44 44.54-11 9c1.33 1.63 2.66 3.24 4 4.85h0l.11.12s0 0 0 0a.73.73.0 0 0 .08.09v0l.08.1a.13.13.0 0 1 0 .06.12.12.0 0 1 0 .05 1.42 1.42.0 0 1 .12.13v0l.07.07v0c.07.08.14.18.21.27h0c4.65 5.52 9.18 10.65 13.68 15.5L158.16 924c-4.63-5-9.23-10.22-14.09-16-1.29-1.56-2.6-3.12-3.88-4.7zm37.19 39.82-9.52 10.47h0q2.49 2.25 5 4.45h0l.09.07v0a.23.23.0 0 1 .07.07.0.0.0 0 1 0 0h.06v0s0 0 0 .05a.13.13.0 0 1 .06.0v0a.5.5.0 0 0 .08.07v0h.05.0c4.33 3.78 9 7.51 13.87 11.08v0a.09.09.0 0 0 .07.0s0 0 .07.06.0.0.0.0.0.0.06.0.0.0.0.0l.07.07h0a1.49 1.49.0 0 0 .2.15h0c.62.44 1.23.9 1.84 1.34l8.24-11.52c-5.65-4-11-8.25-15.89-12.56q-2.4-2.08-4.78-4.25zm43.42 31.4-7.16 12.21c1.31.78 2.63 1.54 4 2.32v0h.08v0h.06a.05.05.0 0 0 0 0l.06.05H218s0 0 .05.0.0.0.0.0h.05s0 0 0 0v0l.47.26h0c1.66 1 3.38 1.91 5.13 2.88h0l.09.05h0a.19.19.0 0 1 .09.0h0a.24.24.0 0 1 .08.06h0l.62.34h0 .07a.05.05.0 0 0 0 0h.07v0h.07v0h.09.0.09v0a.15.15.0 0 0 .08.0h0l.26.15h.06v0h.06.05a.07.07.0 0 1 .06.0h.06.06s0 0 0 0h.06s0 0 .05.0h.07v0h.07v0h.11.0a1.32 1.32.0 0 1 .2.12h.06l.14.08h.08l.13.07a.13.13.0 0 0 .06.0.46.46.0 0 1 .14.07h.07l.15.08a0 0 0 0 0 0 0l.2.12h0l.22.11h0l.19.1s0 0 .05.0l.16.07h.05a.55.55.0 0 1 .15.08h.06l.15.07h.06l.15.09v0l.42.22s0 0 0 0a.44.44.0 0 1 .15.08h.07l.13.08s.05.0.08.0a.47.47.0 0 0 .12.07s.06.0.07.0l.15.07h.06l.19.1h0a.86.86.0 0 0 .19.11l.07.05.13.06h.09l.11.06.09.06h.1l.11.06s.06.0.09.0l.11.06h.09l.43.23h.06a.54.54.0 0 1 .13.07h.06l.15.07v0a.6.6.0 0 0 .16.08v0c1.86 1 3.72 1.92 5.61 2.87l6.38-12.65c-3.92-2-7.76-4-11.49-6Q226.7 978 220.8 974.5zm49 24.8-5.66 13c1.22.53 2.43 1.06 3.67 1.58h0l.29.11v0h.13.08a.67.67.0 0 0 .21.09.15.15.0 0 0 .07.0l.12.06h.08.11l.17.08s.07.0.08.0h.13.09a.71.71.0 0 0 .18.08h.08l.13.06h.08a.64.64.0 0 0 .19.08h.05l.17.07h.05l.22.09h0l.21.09h0c.15.08.29.13.44.2h0l.46.18h0l1.18.5h0l.48.19h0l3.58 1.47h0l.47.19h0l.47.19h0l.46.19h0a4.17 4.17.0 0 1 .47.19h0a1.45 1.45.0 0 1 .22.09h0a1 1 0 0 0 .22.09v0l.21.09h0l.22.08h0l.21.08h0a1 1 0 0 0 .22.09h0l.22.09h0l.22.09h0l.22.08a.06.06.0 0 0 .05.0l.43.18h.06l.2.07v0l.21.08h.06l.19.09h0l.22.09h0l.2.08h0l.21.08h.06l.17.08h.05l.21.08a.06.06.0 0 1 .05.0l.18.06h.05l.21.08v0l.18.07h.06a.78.78.0 0 0 .21.09h0l.18.07h.07l.21.08h0l.19.08h.12v0l3 1.17h0l.16.06h0l.26.1h.11a.11.11.0 0 0 .07.0.89.89.0 0 0 .19.07h0l1.23.47 5-13.25-5.32-2q-10.33-4-20.27-8.37zm51.71 19.7L317 1032.44q5.4 1.8 10.87 3.53h0l.21.06h0l.19.07h0l.81.25h0a1 1 0 0 0 .16.06h.07.15.09.13.11l.12.05.22.07h.07.16.08.15.1l.14.05h.09.16.07l.22.07h0l.25.07h0l.22.07h0l.2.07h.05l.2.07h0c.08.0.14.0.23.07h0a7 7 0 0 1 .74.23h0l.24.06h0l1.5.46h0l2.51.76h0l.25.07h0l.22.07h0c.25.09.5.15.74.23h0 .19.08.15.09a.49.49.0 0 1 .16.0h.07l.18.05h.07l.22.07h.12.11.12.11.13.08.16.0l3 .88 3.95-13.6c-8.95-2.6-17.87-5.39-26.51-8.27zm53.36 15.54-3.46 13.73q10.5 2.65 21.24 5.06h0a1 1 0 0 0 .17.0h.07a1 1 0 0 0 .17.0h.09.15.22.07.19.06l.21.05h0l4.86 1.06 3-13.84c-9.11-2-18.22-4.1-27.1-6.34zm81.88 16.23q-11.26-1.63-22.61-3.62l-4.86-.86-2.52 13.93 1.69.3h.05.2.11.17.15.12l.59.09v0a2.3 2.3.0 0 1 .26.0h.08.21.1.19.1.19.11a1.2 1.2.0 0 1 .2.0h.09.3l.31.06h.1.25.08a1.8 1.8.0 0 0 .32.06h.06.26.1l.32.05h0 .3a.16.16.0 0 1 .09.0h.26.06.32.09.25H435l.32.06h0l.3.06h.07.3.0l.33.05h.06.27.07l.33.06h0 .32.08l.66.11h0 .33.0l.7.12h0l1.79.28h0q6.81 1.13 13.63 2.12l2-14zm55.28 6.08c-9.12-.66-18.44-1.53-27.68-2.54l-1.55 14.07c.14.0.3.0.44.0h0 .21.22v0h.27a.32.32.0 0 1 .14.0h.31.18.07.2.0.22.0q13 1.38 25.84 2.33l1-14.12zm55.39 1.87c-2.48.0-5 0-7.44.0q-10 0-20.22-.41l-.5 14.15 6 .18h3.39a1.06 1.06.0 0 1 .25.0h2.64.62.34.93.0 1 8.68 4.45l-.16-14.16zm55.1-3.21c-8.82 1-18 1.76-27.43 2.3l.79 14.14c9.73-.56 19.1-1.35 28.21-2.37l-1.57-14.07zm53.62-9.73c-8.87 2.24-17.81 4.19-26.57 5.78l2.54 13.94q5.65-1 11.35-2.25h0a3.1 3.1.0 0 0 .42-.08h0 .19.0.2.0.2.05.14.07.14H665h.17a.13.13.0 0 1 .08.0h.11.09.1.2.06.11H666a.35.35.0 0 1 .12.0h0l.26-.07h0 .15.05.13.0l.46-.1h0q5.35-1.18 10.75-2.54h0 .14.0l.26-.07h0 .12.06.12.09.14.12a.11.11.0 0 0 .08.0h.13.07l.19-.06-3.47-13.71zM726 1026c-3 1.52-6.05 3-9 4.39-5.53 2.59-10.65 4.83-15.67 6.85l5.3 13.14c3.28-1.34 6.62-2.75 10.06-4.28h0 .12v0s.06.0.11.0h0l.11-.06h0 .1s0 0 0 0h.12.0.08s0 0 .05.0h.07.09v0a.11.11.0 0 0 .07.0h0l.12-.06h0 .08.0a2.18 2.18.0 0 0 .27-.11h0l3.93-1.81h0 .07.0l.14-.07v0 0h.09.06.08.0l.13-.06.13-.06s0 0 .07.0a.35.35.0 0 0 .08-.05h.08.06.07s.05.0.06.0h.09v0l.09-.05v0h.09a.06.06.0 0 1 0 0h.09v0h.1v0l.12-.05h0l.65-.31h0 .11v0h.11v0l.11-.05h0l.12-.06h0 .11.0l.11-.06h0l.12-.06h0l.12-.06h0l.51-.24v0h.08s0 0 .05.0h.09s0 0 .06.0a.09.09.0 0 0 .08.0h.06s0 0 .07.0h.08.06.09.05a.19.19.0 0 0 .08.0h.06.09v0l.14-.07h0l.45-.22h0l.28-.13h0l.15-.08h0c1.23-.6 2.44-1.21 3.68-1.83L726 1026zm47.37-27.76c-7.88 5.23-15.73 10.15-23.34 14.62l7.19 12.21 1.29-.76h0a.81.81.0 0 0 .18-.12h0l.36-.21h0l.15-.09v0l.18-.1h0a.54.54.0 0 1 .15-.09s0 0 0 0l.12-.07h.06l.16-.09s0 0 0 0a.67.67.0 0 0 .11-.07.16.16.0 0 0 .08-.05h.09.08a.2.2.0 0 1 .09-.05s.1-.06.14-.1h.08.09a.1.1.0 0 0 0 0l.36-.21v0l.12-.06v0l.37-.22h0l.13-.08v0q9.51-5.75 19.27-12.23l-7.84-11.78zm44.41-32.84c-7 5.7-14.35 11.41-21.83 17l8.42 11.38q9.54-7.05 18.53-14.28v0l.11-.09v0l.17-.14s0 0 .07-.05a.5.5.0 0 0 .08-.07s0 0 .07-.05l.07-.06.14-.11s0 0 .06-.05a.39.39.0 0 0 .1-.08l.05-.05.14-.1h0a1.53 1.53.0 0 1 .16-.13h0l2.54-2.06-9-11zm41-37c-3.84 3.82-7.75 7.6-11.78 11.39q-4.05 3.83-8.26 7.64l9.49 10.49c.54-.47 1.09-1 1.62-1.46h0l.12-.11.07-.06v0l.08-.08s0 0 0 0l.09-.1h0c2.09-1.91 4.17-3.83 6.2-5.76v0l.1-.09.11-.1.17-.16v0a1.66 1.66.0 0 0 .14-.13l.09-.08.07-.07.32-.3h0q3.83-3.63 7.58-7.28h0l.33-.33.06-.06a.74.74.0 0 1 .13-.12s.07-.06.08-.09l.07-.07.15-.14v0l.16-.16v0l.18-.17h0l2.41-2.39-10-10zm37-40.86c-5.73 7.05-11.76 14.07-18 20.9L888.27 918q7-7.73 13.64-15.65h0a.58.58.0 0 0 .1-.12h0c.09-.12.18-.22.28-.33v0l.08-.1v-.05l.11-.13a.61.61.0 0 0 .07-.1h.05l.08-.1h.05c0-.06.09-.1.13-.16h0a1.5 1.5.0 0 1 .11-.13v0l.27-.32h0q1.68-2 3.35-4.07l-11-8.94zM928 843c-4.89 7.63-10.1 15.27-15.49 22.71L924 874q8.37-11.55 15.95-23.39L928 843zm26.63-47.91c-3.33 7-6.93 14.09-10.68 21l-1.85 3.36 12.37 6.9c.25-.48.51-1 .78-1.42.0.0.0.0.0.0s0-.06.05-.09l.09-.18h0l.94-1.72a.83.83.0 0 1 .09-.16s0-.05.0-.08a.43.43.0 0 1 0-.07.2.2.0 0 1 .05-.09s0 0 0-.06a.3.3.0 0 1 0-.1s0 0 0-.05l.06-.12h0q5.65-10.42 10.66-21l-12.8-6.06zm20.06-50.84c-2.69 8.55-5.77 17.21-9.14 25.74l13.16 5.2q4.78-12.06 8.68-24.16v0l.12-.39a.08.08.0 0 0 0 0 1.15 1.15.0 0 0 .06-.17v0l.06-.19a.11.11.0 0 0 0-.05.58.58.0 0 0 .05-.14.14.14.0 0 1 0-.06 1.21 1.21.0 0 1 0-.18v0a1 1 0 0 1 0-.14.19.19.0 0 0 0-.07.56.56.0 0 1 0-.12.19.19.0 0 0 0-.07 1 1 0 0 1 .06-.16s0-.06.0-.08v-.11a.19.19.0 0 0 0-.08.39.39.0 0 1 0-.14s0-.07.0-.11.0.0.0-.08.0.0.0-.06l-13.5-4.26zm24.74-51.12-14.06-1.76c-.53 4.25-1.08 8.47-1.67 12.62l-1.32 9.1-.73 4.7-.17 1 14 2.35.17-1h0v-.22h0c0-.13.06-.33.09-.55h0c0-.23.08-.5.12-.78h0c0-.29.1-.59.15-.89h0c0-.31.09-.61.14-.9h0c0-.28.08-.55.12-.78h0c0-.23.06-.42.09-.55h0a1.4 1.4.0 0 1 0-.21h0l.05-.39h0c0-.26.1-.63.15-1h0c.07-.44.14-1 .23-1.49h0c.07-.54.15-1.12.25-1.7h0c.07-.58.16-1.16.23-1.7h0c.09-.54.16-1.05.22-1.48h0c.06-.44.12-.8.15-1.05h0l.06-.4h0c.29-2.08.56-4.15.84-6.22v0c0-.06.0-.1.0-.16s0 0 0 0v-.16a.23.23.0 0 1 0-.07s0-.07.0-.09a.44.44.0 0 0 0-.1.43.43.0 0 1 0 0c.18-1.34.34-2.67.52-4a.13.13.0 0 1 0-.06.14.14.0 0 1 0-.09s0-.11.0-.18h0c.07-.54.13-1.07.21-1.61zm5.48-56.37-14.12-1q-1 14-2.35 27.86l14.09 1.36c0-.43.09-.85.13-1.29.0.0.0.0.0.0a.9.9.0 0 0 0-.16.28.28.0 0 1 0-.09.57.57.0 0 1 0-.13s0-.1.0-.15a.28.28.0 0 0 0-.1 1.94 1.94.0 0 1 0-.24.0.0.0 0 0 0 0 1.12 1.12.0 0 1 0-.24s0 0 0 0 0-.15.0-.23v0c.72-7.57 1.37-15.21 1.93-22.87v0a1.55 1.55.0 0 0 0-.22s0 0 0-.07.0-.11.0-.17a.25.25.0 0 1 0-.09v-.16a2.28 2.28.0 0 0 0-.26v0a1.41 1.41.0 0 1 0-.2v0c0-.44.06-.88.1-1.33zm2.68-56.56-14.15-.32c-.13 5.86-.31 11.85-.55 17.9q-.2 5-.43 10l14.13.68c.17-3.39.31-6.78.46-10.16h0q.3-8.36.5-16.46s0 0 0 0a.14.14.0 0 0 0-.09.22.22.0 0 0 0-.08v-.05-1.43zm-.26-56.62-14.16.45c.1 3 .18 6 .24 8.81l.1 6.76.12 6.94.06 5.43 14.15-.08c0-1.72.0-3.45.0-5.19h0a.75.75.0 0 1 0-.15s0 0 0 0a.43.43.0 0 0 0-.16h0v-.3h0c0-.2.0-.46.0-.79h0c0-.33.0-.71.0-1.13h0c0-.41.0-.84.0-1.28h0c0-.44.0-.86.0-1.28h0c0-.42.0-.79.0-1.12h0c0-.33.0-.6.0-.79h0v-.3h0v-.29h0c0-.19.0-.45.0-.77h0c0-.32.0-.69.0-1.08h0c0-.4.0-.82.0-1.24h0c0-.42.0-.84.0-1.24h0c0-.4.0-.76.0-1.08h0c0-.32.0-.57.0-.76h0c0-.18.0-.29.0-.29h0c0-.1.0-.19.0-.28h0c-.06-2.91-.14-5.84-.23-8.76zm-3.75-56.51-14.07 1.44q.65 6.42 1.26 13.51c.39 4.66.74 9.41 1.05 14.19l14.12-.93c-.08-1.36-.18-2.71-.26-4.07a.28.28.0 0 1 0-.09s0-.07.0-.12v-.2c0-.05.0-.11.0-.17v0c0-.06.0-.12.0-.17v0c-.21-2.79-.41-5.58-.64-8.34v0a.81.81.0 0 1 0-.16s0 0 0 0a.77.77.0 0 1 0-.15.17.17.0 0 1 0-.07v-.13a.12.12.0 0 1 0-.08.53.53.0 0 1 0-.12.36.36.0 0 0 0-.11v-.1a1.65 1.65.0 0 1 0-.21h0s0-.08.0-.1v0a.28.28.0 0 0 0-.09v-.11s0 0 0 0a.16.16.0 0 0 0-.07.13.13.0 0 1 0-.06.06.06.0 0 1 0-.06.0.0.0 0 1 0 0 .22.22.0 0 0 0-.08s0 0 0 0 0-.13.0-.2v0c0-.15.0-.29.0-.45h0c0-.15.0-.29.0-.43s0 0 0 0c-.36-4.18-.74-8.15-1.14-12zm-8.53-56L981.19 414c2 9.8 3.56 18.42 4.89 27.16l14-2.12c-1.18-7.77-2.49-15.13-4-22.63v0a.38.38.0 0 1 0-.1h0a.25.25.0 0 1 0-.1h0a.41.41.0 0 1 0-.11h0a.25.25.0 0 1 0-.08.0.0.0 0 1 0 0 .29.29.0 0 1 0-.09s0 0 0 0a.43.43.0 0 1 0 0 .18.18.0 0 0 0-.06s0-.05.0-.07h0s0 0 0 0c-.29-1.47-.58-2.93-.89-4.42zm-12.59-55.2-13.63 3.84.37 1.29c2.22 7.82 4.26 16.09 6.23 25.31l13.84-3c-.2-.95-.41-1.9-.62-2.87v0s0-.07.0-.11a.13.13.0 0 1 0-.06v-.1s0 0 0-.05a.81.81.0 0 1 0-.11.19.19.0 0 0 0-.07.08.08.0 0 0 0 0c-1.47-6.67-3.15-13.61-5.16-20.82v0c0-.06.0-.13.0-.17v0a.41.41.0 0 1 0-.08v-.06-.14a.08.08.0 0 1 0-.05.22.22.0 0 1 0-.08s0 0 0-.07v-.12a.14.14.0 0 1 0-.06s0-.05.0-.08a.81.81.0 0 0 0-.11s0 0 0-.06a.24.24.0 0 0 0-.09s0 0 0-.06a.65.65.0 0 0 0-.13.07.07.0 0 0 0 0v-.11s0 0 0 0a.93.93.0 0 0 0-.13v0a1.31 1.31.0 0 0 0-.15h0c0-.18-.1-.35-.14-.53s-.15-.49-.22-.74zM964 302.41l-13.11 5.34c1.81 4.44 3.33 8.23 4.48 11.36 2 5.14 3.71 9.93 5.27 14.42L974 328.89c-1.55-4.47-3.27-9.23-5.23-14.32h0v-.09s0 0 0 0a.34.34.0 0 0 0-.08s0 0 0 0 0-.06.0-.08v-.05a.14.14.0 0 1 0-.07.66.66.0 0 1 0-.11h0s0 0 0 0h0a0 0 0 0 1 0 0h0a.13.13.0 0 0 0-.05h0a.08.08.0 0 0 0 0h0a.41.41.0 0 1 0-.08h0s0 0 0 0h0a0 0 0 0 0 0 0s0 0 0 0 0 0 0 0h0a.05.05.0 0 1 0 0h0s0 0 0 0h0a0 0 0 0 1 0 0h0v-.08h0s0 0 0 0v0h0a.19.19.0 0 0 0-.07h0v-.07-.08.0s0 0 0 0v0h0a0 0 0 0 0 0 0 .19.19.0 0 0 0-.09h0s0 0 0 0 0 0 0-.05h0a0 0 0 0 0 0 0h0a.19.19.0 0 0 0-.08v0c-.05-.12-.09-.25-.14-.37h0s0-.05.0-.08h0c-.09-.21-.17-.42-.25-.64h0c-1-2.62-2.25-5.7-3.66-9.17zm-23.85-51.36-12.53 6.6 2.72 5.25c3.49 6.79 6.67 13.43 9.55 19.55l12.82-6c-.34-.71-.66-1.42-1-2.13v0a.61.61.0 0 1-.07-.14v0-.07l-.06-.13s0 0 0 0c-2.24-4.75-4.67-9.77-7.26-14.9h0l-.23-.47h0l-.09-.17h0l-.23-.47h0s0-.05.0-.08.0.0.0.0v-.06s0 0 0 0l-.1-.22h0v-.06a.06.06.0 0 1 0 0s0 0 0-.05v0-.06s0 0 0 0v-.07s0 0 0 0 0 0 0-.06.0.0.0-.06.0-.05.0-.07a.06.06.0 0 0 0 0 .08.08.0 0 0 0 0v-.05a.05.05.0 0 0 0 0s0 0 0 0v-.05.0.0-.06.0-.09a1.14 1.14.0 0 1-.1-.19s0 0 0 0-.07-.13-.1-.19h0l-2.58-5zm-28.74-48.77-11.8 7.79c4.94 7.52 9.85 15.39 14.56 23.42l12.22-7.18c-1.28-2.17-2.56-4.31-3.85-6.45h0c0-.06-.07-.11-.1-.16s0 0 0 0a.6.6.0 0 0-.09-.15s0 0 0 0l-.1-.15s0 0 0 0l-.08-.14a.1.1.0 0 0 0 0A.52.52.0 0 1 922 219v-.06l-.07-.13a.05.05.0 0 1 0 0l-.08-.13s0 0 0-.06l-.08-.13v-.05a.75.75.0 0 1-.1-.17l-.08-.13s0-.07-.06-.09a.53.53.0 0 1-.06-.1.35.35.0 0 1-.05-.08l-.07-.11v0a.91.91.0 0 1-.07-.14.13.13.0 0 1 0-.06.83.83.0 0 0-.08-.12v-.06a1.34 1.34.0 0 0-.06-.12.18.18.0 0 1 0-.08 1.25 1.25.0 0 1-.08-.12s0 0 0 0l-.08-.13a.09.09.0 0 1 0-.05c0-.06-.06-.09-.09-.14v-.05l-.09-.14a.05.05.0 0 0 0 0l-.1-.16s0 0 0 0a1.74 1.74.0 0 1-.11-.18h0c-.35-.57-.71-1.13-1.05-1.7h0l-.1-.18h0c0-.07-.07-.13-.1-.2h0l-.12-.18h0q-3.62-5.81-7.35-11.44zm-33.8-45.41L866.77 166c2.71 3.22 5.39 6.51 8.07 9.88q4.57 5.76 9 11.69l11.36-8.44q-4.34-5.85-8.82-11.49h0s-.09-.12-.14-.17v0l-.13-.16s0 0 0 0l-.14-.18h0l-.12-.16h0s-.09-.1-.13-.16h0q-4-5-8-9.85zM838.52 116 829 126.48c6.55 5.93 13.11 12.34 19.51 19l10.25-9.76q-10-10.48-20.25-19.79zm-45-34.27-7.48 12c2.62 1.63 5.23 3.33 7.79 5.05 4.82 3.27 9.65 6.75 14.34 10.33l8.6-11.25q-2.25-1.71-4.52-3.4h0l-.1-.07h0a1.91 1.91.0 0 1-.21-.15v0l-.08-.07v0l-.09-.07v0h-.07s0 0 0 0a.18.18.0 0 0-.07.0v-.05h-.09s-.05.0-.06.0v0l-.07-.06v0l-.23-.16v0h-.06s0 0 0 0l-.22-.16h0q-3.57-2.6-7.19-5.09h0-.07a0 0 0 0 1 0 0s0 0-.07.0h0a.42.42.0 0 0-.14-.09v0h-.07s0 0 0 0h-.06a0 0 0 0 1 0 0l-.15-.09v0s0 0-.06.0h-.06v0l-.1-.06s0 0 0 0a.15.15.0 0 1-.06.0.1.1.0 0 1 0 0h-.06v0l-.1-.06v0l-.08-.05v0a.7.7.0 0 0-.1-.08h0l-.11-.07s-.06.0-.09-.06.0.0.0.0l-.09-.06h0c-2.11-1.39-4.19-2.76-6.3-4.09a0 0 0 0 1 0 0l-.1-.06s0 0 0 0h-.09v0s0 0-.06.0a2.2 2.2.0 0 1-.25-.17h0l-.12-.07h0l-.91-.56zM742.61 57.19l-4.46 13.44 1.53.51a218.88 218.88.0 0 1 22.9 9.59L768.76 68a230.45 230.45.0 0 0-23.48-9.89h0l-.44-.16h0a.35.35.0 0 1-.11.0h0-.09.0-.09.0-.1l-1.78-.6zm-30.08-7.73h-.08.0-.21.0-.29.0l-.32-.06h0-.35.0-.28.0-.21-.08-.07.0-.21.0l-.28-.05h0-.33.0-.33.0l-.27-.05h0-.21-.07c-3.94-.68-8.37-1.42-13.27-2h-.3a.12.12.0 0 1-.08.0H695h-.07-.19-.07.0-.07-.19-.08.0a.12.12.0 0 1-.08.0H694s-.06.0-.08.0h-.18a.13.13.0 0 0-.08.0h-.18-.12-.05-.09H692a.11.11.0 0 0-.08.0h-.29-.1.0c-1.44-.17-2.89-.32-4.34-.45L685.89 60c2.64.25 5.26.55 8.27 1 4.58.49 8.71 1.2 12.39 1.83l1.78.29 1.76.31 2.5.46L715.24 50c-.64-.13-1.28-.25-1.94-.36h-.09-.07H713v0h-.09-.12.0-.08.0-.1zM659 44.63c-1.84.0-3.69.0-5.52.09h-1c-7.28.24-14.53.78-21.68 1.64l1.69 14A241.64 241.64.0 0 1 659 58.79V44.63zm-80.27-8.44L572.2 48.78a216.51 216.51.0 0 1 22.85 13.56l8-11.72v0s0 0-.05.0l-.08-.06-.1-.07a.18.18.0 0 1-.07.0.52.52.0 0 1-.11-.07h-.06l-.12-.07s0 0 0 0l-.12-.08v0L602 50v0l-.14-.1h0l-.15-.1v0l-.14-.09v0l-.16-.09s0 0 0 0a1.4 1.4.0 0 1-.16-.1h0q-7.49-5-15.46-9.44h0l-.18-.09h0l-1.09-.61h0l-.17-.1h0a.76.76.0 0 0-.18-.09h0l-.18-.1h0l-.91-.49h0l-.19-.1h0c-1.36-.74-2.73-1.45-4.1-2.17zM525.86 16 522.2 29.72a267.52 267.52.0 0 1 25.59 8.22l5-13.23c-1.24-.48-2.49-.93-3.73-1.39h0l-.2-.07h0l-.18-.08h0l-.18-.07h0a.76.76.0 0 0-.16-.06v0l-.16-.05h-.05l-.15-.06h-.07-.13-.08-.13-.09-.12-.09-.1-.12s-.05.0-.09.0l-.12-.05s-.05.0-.08.0h-.13-.08-.13-.07-.14s-.05.0-.07.0h-.15v0l-.16-.05s0 0 0 0a1.27 1.27.0 0 1-.18-.06h0l-.17-.06h0l-.19-.06s0 0 0 0l-.2-.07h0l-.2-.07h0q-3.75-1.27-7.56-2.47v0a.43.43.0 0 1-.16-.05.4.4.0 0 1-.13.0h-.09q-5.31-1.63-10.76-3.1z" fill="#101b21"/><path d="M69.52 593.52s169.21-455.1 473.93-400.1 416.41 272.78 384.89 518c-52 105.05-154 207-334.05 177.51S44.11 768.34 69.52 593.52z" fill="#101b21"/><path d="M218.6 313.27s72.09 17.78 104.77 23.49 52.66-1.57 57-26.59 12.71-73 12.71-73S227 286.35 218.6 313.27z" fill="#fcfcfc"/><path d="M322 344.93h0c-32.61-5.69-102.38-22.87-105.33-23.6a8.3 8.3.0 0 1-5.93-10.52c9-28.9 140.11-69.76 180.07-81.61a8.3 8.3.0 0 1 7.87 1.78 8.22 8.22.0 0 1 2.65 7.61l-12.72 73c-2.63 15.07-10.27 25.49-22.72 31C354.88 347.39 340.53 348.16 322 344.93zm-88.31-36.54c22.26 5.37 67.48 16.07 91.16 20.19l-1.42 8.18 1.42-8.17c15 2.62 26.59 2.22 34.37-1.2 7.25-3.19 11.39-9.11 13.06-18.64L382.64 249C319.91 268.27 255 293.3 233.64 308.39z" fill="#101b21"/><path d="M556.78 278.26l-10.32 59.18s-.35 34.3-27.59 29.57-88.58-6.86-107.85-14.5c-48.86-19.41-26.77-71.91-18.52-119.29l168.88 18.7z" fill="#fcfcfc"/><path d="M877.17 427.23s-73.84-7.65-106.53-13.35-49-19.3-44.65-44.31 12.71-73 12.71-73S878.39 399.08 877.17 427.23z" fill="#fcfcfc"/><path d="M769.21 422.06h0c-48.75-8.5-54.86-34-51.39-53.92l12.73-73a8.29 8.29.0 0 1 13.08-5.27c33.61 24.66 143.16 107.46 141.86 137.71a8.31 8.31.0 0 1-9.15 7.89C873.29 435.16 801.81 427.72 769.21 422.06zM744.57 311.24 734.16 371c-2.21 12.69.08 28.1 37.88 34.69l-1.43 8.19 1.46-8.19c23.67 4.13 69.84 9.38 92.6 11.87C849.69 396.12 797.08 350.61 744.57 311.24z" fill="#101b21"/><path d="M568.12 280.24 557.8 339.41s-11.23 32.41 16 37.17 85.68 23.52 106.41 22.85c52.55-1.73 49.51-58.61 57.77-106L572.71 253.89z" fill="#fcfcfc"/><path d="M599.16 672.73c-37.23-6.48-73.39-5.2-105.7 2.35-27.82-18-61.42-31.47-98.65-38C282 617.45 178.72 668.77 164.26 751.75S229.57 918 342.44 937.62c37.22 6.49 73.39 5.22 105.67-2.33 27.85 18 61.44 31.47 98.67 38 112.86 19.67 216.06-31.66 230.53-114.64S712 692.41 599.16 672.73z" fill="#e5187d"/><path d="M950.45 405.61C920.19 260 813.07 117.86 706.84 99.34c-66.5-11.6-106.57 6.59-113.65 10.19-5.47-5.78-37-36.46-103.51-48C383.46 43 234.54 140.52 156.82 267.27s-102 292.54-102 292.54C42.4 727.62 160.36 888.13 220.9 929.56c105 71.87 320.87 110 445.19 77.59 71-18.5 236.28-129.63 281.37-291.75C947.46 715.4 980.7 551.21 950.45 405.61zM769.37 825.06c-39.38 1-80.54-19.22-118.6-27.21-53.13-11.18-104.33-5-157.66-10.77-56.94-6.14-109.87-36.86-167-46.34-44.65-7.41-98.35-.94-140.81-17.5-35.67-13.91-66-98.25-71.5-134.8-7-46.12 15.5-93.28 37.8-132.13 42.87-74.65 97.23-108.22 167.58-157.82 24.95-17.58 52.2-34.55 80.91-45.4 54.16-20.45 113.05-4.06 167.7 5.13 55.58 9.34 113.65 13.42 158.57 51.74 52.5 44.81 92.72 112 119.8 174.6 26.26 60.69 54.24 94.4 54.72 161.22C901.36 714.13 846.43 823 769.37 825.06z" fill="#466085"/><path d="M914 594.6c-.48-66.82-28.47-100.52-54.73-161.24C832.23 370.78 792 303.58 739.5 258.78c-44.9-38.3-103-42.42-158.55-51.75-54.66-9.18-113.55-25.57-167.72-5.12-28.69 10.83-55.94 27.82-80.88 45.38C262 296.91 207.62 330.46 164.75 405.11c-17.46 30.43-34.93 65.94-38.4 102.06 7.13-17.91 16.18-35.08 25.24-50.86 42.87-74.65 97.23-108.22 167.58-157.82 24.95-17.58 52.2-34.55 80.91-45.4 54.16-20.45 113.05-4.06 167.7 5.13 55.58 9.34 113.65 13.42 158.57 51.74 52.5 44.81 92.72 112 119.8 174.6 26.26 60.69 54.24 94.4 54.72 161.22a149.1 149.1.0 0 1-1.19 19.16C909.07 640.51 914.19 615.62 914 594.6z" fill="#5b2567"/><path d="M679.25 956c-124.32 32.42-340.17-5.74-445.19-77.59C173.52 837 55.56 676.43 68 508.63c0 0 3.22-21.95 11-55.88C61.5 514.29 54.82 559.81 54.82 559.81 42.4 727.62 160.36 888.13 220.9 929.56c105 71.87 320.87 110 445.19 77.59 71-18.5 236.28-129.63 281.37-291.75.0.0 1.71-8.49 4-23.22C896.43 839 746.06 938.56 679.25 956z" fill="#179ad7" opacity=".6"/><path d="M80.89 633.94c-1-76.46 29.83-37.08 29.83-37.08l6.86 9.67c-1.71-6.75-3-12.92-3.79-18.09-6.87-45.63 15-92.26 37.08-130.86 4-21.66 7.12-40.34 5.4-37.14-3.91 7.16-41.79 76.14-57.18 67.85s8-110 8-110l-13.2 26.9c-28.7 84.15-39 154.59-39 154.59A357 357 0 0 0 58.4 641C70.92 659 81.3 664.89 80.89 633.94z" fill="#5b2567"/><path d="M960.43 563.21c-4.67 30-13.81 54.09-27.2 53.95s-21.85-55-21.85-55-7 14.25-16.36 35.65a202.64 202.64.0 0 1 5.85 48c.28 39.91-18.34 93.59-49.2 131.8.25.74.46 1.56.75 2.28 75.09-78.73 46.31 8.07 46.31 8.07l33.1-28.41a343.83 343.83.0 0 0 15.63-44.12s11.6-57.3 14.86-134.2C962.22 564 961.7 555.12 960.43 563.21z" fill="#5b2567"/><path d="M769.37 825.06c-13.87-.17-25.34-2.25-37.24-5.12s-24.24-6.9-40-12.14l-18.65-6.09c-4-1.21-8.4-2.58-13.16-3.87l-2.79-.75-5.08-1.28c-3.42-.82-6.88-1.5-10.35-2.28q-10.5-2.06-21.39-3.54c-14.54-1.93-29.54-3.09-44.84-4-30.52-1.82-62.66-2.28-93.93-8.09-31.24-6.18-62-19.12-94.66-30.6-16.33-5.66-33.16-11.09-50.8-14.6-17.74-3.71-35.78-4.87-53.22-5.6s-34.73-1-51.52-2.65a212.79 212.79.0 0 1-24.73-3.61c-4.05-.75-7.94-1.91-11.89-3L189.41 716a26.87 26.87.0 0 1-4.83-2c-6.15-3.23-12-8.77-17.12-14.84a153.59 153.59.0 0 1-14-20A293.22 293.22.0 0 1 132 634.74c-5.86-15.24-10.9-30.8-13.76-46.19a126.36 126.36.0 0 1 1-45.86A205.52 205.52.0 0 1 132.94 5e2a387 387 0 0 1 19.44-38.45 320 320 0 0 1 46-62.76 398.78 398.78.0 0 1 49.07-42.92C263 344.21 277 334.78 288.5 327l36.12-24.16s3.26-2.12 9.37-6.14 15.21-9.71 27.14-16.3 26.74-14.19 44.45-20.13c17.36-5.88 38.34-8.59 61.7-7.29 23.37 1.05 48.87 5.86 76.5 11.31 27.78 5.8 57.9 9.47 87.51 15.71s59.37 16.1 83.35 35.47C739 335.38 761 360.85 780.23 388.27s36.11 57.5 50.66 88.48l11 23.69c3.83 7.94 7.78 15.8 11.77 23.53 8 15.46 16.19 30.45 22.89 45.66s12 30.68 14.83 46.66c.76 4 1.44 8 1.84 12 .59 4 .93 8 1.15 12.09a133 133 0 0 1-.14 23.87 209 209 0 0 1-9.83 46.29A224.75 224.75.0 0 1 876 732.27c-1.57 3.52-3.18 7-4.91 10.38-.83 1.73-1.72 3.41-2.64 5.06l-1.88 3.5a187.72 187.72.0 0 1-28.45 38.88c-11.47 11.71-22 19.34-32.84 24.92a88.63 88.63.0 0 1-35.93 10 89 89 0 0 0 36.73-8.38c11.27-5.18 22.38-12.56 34.5-24.15A203.86 203.86.0 0 0 871.27 754l2.12-3.49c1-1.65 2-3.32 3-5 1.95-3.39 3.8-6.85 5.6-10.38 3.54-7.05 6.95-14.31 9.87-21.83a224.64 224.64.0 0 0 13.36-47.65A144 144 0 0 0 907.05 640c.06-4.29.0-8.56-.34-12.88-.16-4.33-.6-8.66-1.13-13A209.1 209.1.0 0 0 892.65 563c-6.23-16.53-13.91-32.22-21.18-47.85-3.68-7.79-7.23-15.58-10.71-23.39l-10.3-23.95c-14.34-32.3-31.27-63.62-51.25-92.71S756.3 319.29 729 297.29a172.91 172.91.0 0 0-45.63-25.63 291.5 291.5.0 0 0-47.64-13.25c-15.65-3.08-30.92-5.27-45.62-7.4s-28.73-4.34-42.59-6.83c-27.64-4.92-54.31-9.56-79.53-10.17-25.16-.87-48.77 2.78-68.16 10.11-19.14 7.17-34.18 15.84-46.38 23.1s-21.1 13.72-27.24 18L317 291.88s-12.66 9.27-35.07 25.74C270.68 325.91 257 336 241.67 348.35a446.48 446.48.0 0 0-48.74 45.29 351.22 351.22.0 0 0-46.21 64.66c-7 12.32-13.78 25.24-19.86 39a230.48 230.48.0 0 0-14.79 43.88 139.52 139.52.0 0 0-2.5 48.73c2.43 16.48 6.88 32.51 12.16 48.54a308.9 308.9.0 0 0 19.94 47.38 164.29 164.29.0 0 0 14.26 22.57c5.55 7.19 11.92 14.28 20.79 19.56a42.68 42.68.0 0 0 6.9 3.34l6.46 2.42c4.34 1.36 8.71 2.84 13.13 3.83a217.16 217.16.0 0 0 26.56 4.88c17.75 2.25 35.34 3 52.6 3.94s34.05 2.19 50.26 5.56c16.36 3.19 32.51 8.19 48.63 13.39 32.15 10.51 64.56 22.63 98.25 27.4 33.74 4.29 65.71 2.38 96.16 2.3 15.2-.1 30 .12 44.4 1.24q10.77.88 21.15 2.4c3.46.6 6.89 1.11 10.26 1.77l5 1 2.76.63c4.72 1.09 9.15 2.25 13.16 3.33 8 2.22 14.47 4.14 18.77 5.42 15.86 4.77 28.44 8.28 40.53 10.77S755.52 825.58 769.37 825.06z" fill="#101b21"/><path d="M950.45 405.61c-2.64-13.58-5.12-25-8.48-36.83s-7.16-24.31-13.13-39.82c-1.28-3.49-3.25-8.33-5.64-14.14-1.15-2.94-2.53-6.06-4-9.39-.72-1.66-1.48-3.38-2.24-5.13l-.6-1.33-.93-2.07c-3.26-7-6.61-14-10.21-21-14.4-28-31.59-56-52.54-82.43s-45.37-51.39-74.7-71.24a212.43 212.43.0 0 0-47.7-24.38 167.93 167.93.0 0 0-26.4-6.77c-4.4-.73-8.82-1.55-13.29-2-4.44-.63-8.92-1.07-13.41-1.34a209.19 209.19.0 0 0-54 2.76 155 155 0 0 0-26.48 7.36l-1.47.58h.05v0 0l-2.16-2-2.62-2.26c-1.79-1.44-3.57-2.88-5.4-4.24-27.13-20.19-59-31.68-91-37.6a171.65 171.65.0 0 0-49.51-1.88 241.5 241.5.0 0 0-47.47 9.85c-30.59 9.52-58.91 23.7-84.87 40.29a483.18 483.18.0 0 0-71.38 55.9c-43.18 40.75-77.71 87.25-102.46 135.07-25 47.67-42.61 95.34-56.51 139.79a1053.53 1053.53.0 0 0-30.4 123.25c-4.33 38.49-.78 71.42 3.5 98.38A467.31 467.31.0 0 0 70 714.4c4.5 13.86 7.27 21.09 7.27 21.09s1.81 5.3 5.8 15.06 10 24.07 19 41.77a545.9 545.9.0 0 0 36.73 61.86c7.95 11.51 16.87 23.48 27 35.62a319 319 0 0 0 35 36.21 180.89 180.89.0 0 0 22 16.44c7.7 5 15.8 9.74 24.15 14.29a477.26 477.26.0 0 0 53.4 24.54c37.59 14.65 78.74 26.39 122.35 35s89.75 14 137.45 14.21a505 505 0 0 0 72.47-4.79 360.56 360.56.0 0 0 36.56-7.34 223.69 223.69.0 0 0 35.8-13.57C727.73 994 749 980.92 769.49 966.57a536.31 536.31.0 0 0 58-47.36c36.37-34.14 68-73.54 91.63-116.72a375.72 375.72.0 0 0 28.7-67.18c1.89-5.71 3.32-11.6 5-17.35l.32-1.18.25-1.44.37-2.21.69-4.42L955.7 7e2c1.62-11.7 3-23.33 4.16-34.88 2.32-23.11 3.86-46 4.75-68.39q.64-16.83.73-33.34.1-8.26.0-16.44c-.07-4.58-.16-9.13-.22-13.66-.47-21.95-1.81-39.93-2.55-48.87-2.85-33.1-6.13-51.72-12.11-78.76 4.63 27.31 7 46 9.21 79 .58 8.94 1.53 26.85 1.42 48.7v5.5l-.14 8.11c-.1 5.41-.25 10.85-.49 16.33q-.64 16.42-2 33.13-2.55 33.39-7.66 67.6Q948.26 681 945 698.18l-1.67 8.57-.9 4.26-.45 2.12-.16.74-.31.93c-1.89 5.48-3.52 11.05-5.61 16.49a374.72 374.72.0 0 1-30.66 63.22c-24.56 40.45-56.23 77.2-92 109.28s-75.52 60.33-118 80.17a204.5 204.5.0 0 1-32 12 342.26 342.26.0 0 1-34 6.67 499.83 499.83.0 0 1-69.08 4.59c-45.92-.09-90.83-5-133.32-12.76S344.16 975.72 307.73 962a459.94 459.94.0 0 1-51.47-22.8c-8-4.23-15.67-8.56-22.95-13.18a167.22 167.22.0 0 1-20.14-14.57A314.87 314.87.0 0 1 179.64 878c-10-11.44-18.86-22.8-26.81-33.71a552.25 552.25.0 0 1-37.3-59c-9.26-16.94-15.65-30.64-19.76-40.05s-6.13-14.47-6.13-14.47-2.94-6.94-7.75-20.27a453.9 453.9.0 0 1-16.42-59.3 411 411 0 0 1-6.11-43.58c-.46-8-1.08-16.33-1-25-.08-4.33-.05-8.74.2-13.22.09-2.25.17-4.51.27-6.79l.06-1.7v-.64l.12-.78.5-3.42A924.69 924.69.0 0 1 88.18 433.36c13.61-44.2 31.34-91.54 57-138.1 25.33-46.66 60.78-91 104.39-129.15a474.7 474.7.0 0 1 71.12-51.75c25.52-15.17 52.94-27.92 81.74-36.26s59.09-12.18 88.13-6.47c29.71 5.55 59 16.16 83.17 33.65 1.61 1.15 3.19 2.38 4.74 3.61l2.28 1.89 2.64 2.33c1.63 1.48 3.09 3 4.67 4.56l2.27 2.29c.42.24.71 1 1.2.87l1.48-.72 5.94-3c1-.51 2-.9 3-1.36l1.52-.66a142.73 142.73.0 0 1 23.18-7 199.61 199.61.0 0 1 49.63-4c4.19.11 8.37.38 12.58.8 4.22.27 8.39.86 12.58 1.41a153.8 153.8.0 0 1 24.36 5.18 203.13 203.13.0 0 1 45.65 20.82c28.81 17.58 53.9 40.82 75.56 65.8a455.92 455.92.0 0 1 54.76 79.56c3.75 6.83 7.26 13.74 10.64 20.6l1 2 .6 1.31c.81 1.72 1.59 3.42 2.35 5 1.53 3.29 3 6.37 4.17 9.27 2.48 5.74 4.54 10.52 5.85 14 6.18 15.34 10.31 27.62 14 39.32S947.14 392.17 950.45 405.61z" fill="#101b21"/><path d="M420.87 838.44c13.31 6.6 23.78 31.77 49.6 29.29 20.16-1.91 120.06-21.62 109-47-5.89-13.53-53.15 14.53-86.76 5.53-53.81-14.42-81.51-5.79-79 4.36C414.6 834.52 417.11 836.57 420.87 838.44z" fill="#fcfcfc"/><path d="M409.52 866.6c4.64 4.79 11.68 5.51 15.72 1.61s3.52-11-1.13-15.74-11.69-5.52-15.7-1.63S404.88 861.81 409.52 866.6z" fill="#fcfcfc"/><path d="M407.43 127.41c4.65 4.8 11.67 5.5 15.7 1.61s3.52-11-1.1-15.74-11.69-5.52-15.72-1.62S402.78 122.62 407.43 127.41z" fill="#fcfcfc"/><path d="M775.83 191.62c4.64 4.8 11.66 5.51 15.7 1.61s3.52-10.95-1.12-15.74-11.67-5.51-15.69-1.62S771.18 186.83 775.83 191.62z" fill="#fcfcfc"/><path d="M548.43 122.05c-6.6-9.56-28.59-21.16-48.21-27-15.32-4.55-52.44-9.25-54.32 15.71-1 13.3 37.64-5 58 12.74 32.5 28.48 43.7 16.46 46.29 7.26C551.18 127.19 550.29 124.74 548.43 122.05z" fill="#fcfcfc"/><path d="M629.11 725c-1.12 4.73-5.27 7.79-9.23 6.85s-6.28-5.56-5.16-10.28 5.27-7.79 9.25-6.84S630.24 720.23 629.11 725z" fill="#fcfcfc"/><path d="M706.61 753.05s-9.55-13.92-31.44-25.94c-6-3.31-47.79-22.47-33.09 3 6.76 11.7 19.41 9.18 31.67 17.08S717.33 764.49 706.61 753.05z" fill="#fcfcfc"/></g></g></g></svg>