<svg xmlns="http://www.w3.org/2000/svg" width="1080" height="1080" viewBox="0 0 1080 1080"><g id="Слой_2" data-name="Слой 2"><g id="Retro11_550041870"><g id="Retro11_550041870-2" data-name="Retro11_550041870"><circle cx="540" cy="540" r="540" transform="translate(-223.68 540) rotate(-45)" fill="#5a257f"/><path d="M493.24 29.21A35.94 35.94.0 0 1 501 39.1c8 14.53 8.85 31.9 7.45 48.41-3.79 44.44-17.1 84.67-34.24 125.85-24.74 59.47-52.55 123.54-37.06 186.06C454.57 469.56 523 520.13 534 591.55c11.52 74.83-43.24 142.51-60.54 216.22a225.57 225.57.0 0 0 20.75 156.78c9.21 17.1 21 34.15 21.2 53.57s-17.83 27.58-35.8 20.23c1.5-26.74-18.23-49.76-38.68-67.06S397.14 938 386.41 913.42c-10.23-23.38-6.12-49.21-4.68-73.71 1.62-27.54 4.82-55.09 7.23-82.58 1.1-12.54 2.17-25.39-1.15-37.54s-12-23.63-24.2-26.66c-16.82-4.16-32.83 8.27-45.63 20s-28.47 24.38-45.42 20.79c-12.06-2.56-21.15-13.28-24.84-25s-2.82-24.44-1-36.63A251.37 251.37.0 0 1 274 589.74c7.61-14.14 16.68-27.8 20.57-43.38s1.34-34.09-11.1-44.24c-17.22-14-45.63-6.94-61.89-22.09-10.43-9.72-12.23-25.92-9-39.81s10.53-26.42 16.12-39.54A165.18 165.18.0 0 0 196.37 222c-12.33-13-43.12-29.62-24-50.48 9.2-10 24.91-15 37.45-19.13 20.67-6.88 42.62-9.38 63.2-16.55 37.58-13.1 70.9-41.15 102-65.09 15.52-12 26.74-26 44.89-35C441.75 24.87 474.1 12.43 493.24 29.21z" fill="#ff7bc4"/><path d="M524.89 1053.66a5.12 5.12.0 0 1-2.86-4.21c-.13-2.17 1.22-4.13 2.5-5.89 9.4-12.93 19.61-23.07 20.55-39.17 1.07-18.32-1.74-37.47-6.45-55.13-9.35-35-25.44-68.82-27-105-2-45.2 9.8-87.94 25.31-129.91 15.07-40.8 32.41-84.44 22.71-128.62-8.53-38.86-36.42-70-56.43-104.42-44.5-76.42-49.29-174.6-12.44-255C508 188.71 534.15 152.76 534 111.44c-.07-21.17-8.12-47.66 5.44-66.39 13.17-18.18 33.89-17.68 51.71-9 39.8 19.39 79.05 33.15 91.11 81.39 1.74 7 2.77 14.19 5.92 20.63s9.06 12.15 16.22 12.58c10.08.6 17.86-9.21 20.69-18.91s2.7-20.23 6.74-29.49c19.7-45.18 82.73-7.61 101.72 17 8.83 11.45 13.57 20.08 25.14 28.89 12.65 9.64 28.09 20.05 34.53 35.15 4.42 10.34 7.12 21.65 14 30.55 11.87 15.39 34.27 21 43.39 38.18 7.16 13.47 3.67 30.6-4.75 43.32-9.4 14.16-24.53 25-36.05 37s-26.93 19.15-42.64 23.88c-31.26 9.39-65.72 9.75-94.11 27.44-21.78 13.58-39.35 36.79-39 62.46.27 23 14.29 43.3 21.72 65.09 12.52 36.75 4.44 79.38-19.23 109.91-5.37 6.93-12.83 11.8-18.29 18.28-7 8.38-11.83 19.52-18.4 28.45-13.91 18.91-30 36.14-46.26 53-39.09 40.5-81 84.82-87.37 140.74-3.27 28.56 15.65 60.27 17.23 89.85 1.28 23.65-3.87 44.74-14.77 65.55-8.24 15.73-15.52 34-35.48 37.72A13.07 13.07.0 0 1 524.89 1053.66z" fill="#f9b825"/><path d="M573 1047.43c-2.32-11.49 24.15-30.54 28.72-42 7.15-18 7.1-38.7 3.73-57.5-5.49-30.59-17.92-60.66-15-91.6 3.69-39.51 31.5-72.23 60.09-99.73 34.31-33 72-63 100.88-100.86S800.14 569.84 791.72 523c-5.23-29.12-20.79-59.88-7.92-86.53 10.07-20.83 34.16-30.57 56.72-35.69s46.71-7.86 65.4-21.48c15.83-11.53 25.61-29.39 38.84-43.83s33.57-26 51.86-19c18 6.85 25.37 27.79 30.64 46.28q12.91 45.32 25.82 90.63c7 24.71 14.15 50 12.7 75.63-1.73 30.71-21.93 68.33-54.66 75.21-10.23 2.15-21.25-.8-31.12 2.64-16.49 5.75-22.39 26.93-19 44.07s13.22 32.27 18.65 48.88c14.11 43.13-6.29 94.89-46 116.8-32.24 17.78-71.36 16.17-106.88 25.9s-71.92 41.09-63.47 76.93c2.9 12.31 10.89 23.39 11.35 36 1.19 32.9-44.3 47.56-67.09 61.2-35.16 21-80.6 31.69-120.83 36.59-4.13.5-8.89.73-11.81-2.23A7 7 0 0 1 573 1047.43z" fill="#a39940"/><path d="M51.72 366.88c-4.91 21.25-8.22 47.86-3.07 69.38 6 24.93 16.06 45.3 15.94 71.93-.11 25.13-19.25 19.24-35.14 26.86C11.12 543.85 7.27 568.91 16 586.74c8.27 16.84 26.5 27.73 32.66 45.46 4.23 12.18 2 25.51 1.53 38.4a140.91 140.91.0 0 0 21.12 78.92c10.47 16.88 25.76 49.35 48.79 49.78 23.61.45 20.92-52.78 51.52-36.8 9.15 4.78 12 16.25 13.93 26.39 10 53.38 19.08 108.65 48.18 154.5s84.26 80.1 136.94 66.92c14.27-3.57 30.62-10 42.52-1.4 10.66 7.76 14.47 26 27.66 26.48 13.41.45 17.56-20.35 8.87-30.57s-23-13.05-35.45-18.05c-33.38-13.38-56.81-45.58-66.21-80.3s-6.3-71.72 1.5-106.84c4-18 6.29-42.15-10.59-49.46-12.91-5.59-26.81 4-40.19 8.33-29.81 9.74-63.64-8.79-78.85-36.23-15.37-27.69-16.67-67.32-7.84-97.49 8-27.37 30-45.46 33.17-76.18 1.53-14.79-1.69-32.45-15-39.07-11.78-5.87-25.87-.4-39-1.34-83.89-6-6.38-129.78 4.27-162.35C207.28 310 194.29 253 168.73 224.42c-28.3-31.63-49.73 15-64.33 35.77-16.83 24-32.44 49.09-43.25 76.46A213.59 213.59.0 0 0 51.72 366.88z" fill="#8c64ed"/><path d="M801.45 871.52c-12.9 9.73-21.33 25.68-15.89 39.33 4.59 11.53 18 19.57 19.77 31.76 1.49 10.34-4.88 23.72 4.71 29.68 8.83 5.5 20.94-2.21 28.28-9.66 16-16.27 87.29-91.17 74.28-111.8C897.19 826.42 816.83 859.92 801.45 871.52z" fill="#a39940"/><path d="M981.47 648.24c-.11-4.11.0-8.46 2.13-12 2.57-4.16 6.81-4.81 10.88-2.42 3.83 2.25 5 6.78 8.37 9.31 1.46-7.87 2.88-14.87 7.85-21.47 5.5-7.3 17.58-16.43 27.39-15.24 9.29 1.13 11.65 13.54 10.63 22.83a135.28 135.28.0 0 1-32.17 73.54C988.26 735.34 981.92 663.79 981.47 648.24z" fill="#f9b825"/><path d="M639.67 793.67c-15.66.0-25.87-2.51-33.11-8.12a32 32 0 0 1-5.91-5.95 29.5 29.5.0 0 1-11.54 8.8c-6.67 2.8-15 4.16-25.37 4.16s-18.08-1.39-24.16-4.37c-.51.27-1 .54-1.57.8l-1.92.93-2.07.51a89.82 89.82.0 0 1-10.48 2 81.12 81.12.0 0 1-10.51.66 66.43 66.43.0 0 1-10.29-.81A55.92 55.92.0 0 1 492 789.45l-2.76-1-2.38-1.78a36.52 36.52.0 0 1-4.06-3.54 38.43 38.43.0 0 1-15 6.23c-5.12.94-10.57 1.66-16.2 2.13s-11.09.69-16.6.69c-5 0-11.14-.11-18.76-.35-9.63-.3-11.77-.34-12.25-.34-10.68.0-19.89-4.27-25.93-12-5.14-6.58-7.53-15.36-7.53-27.64s1.91-26.5 5.67-42.12a308.35 308.35.0 0 1 10.92-36.84C391 662.68 397 650.46 408.7 646A51.44 51.44.0 0 1 426.91 643c10.84.0 19.62 1.41 26.84 4.31a47.86 47.86.0 0 1 20.72 16.12l.43.58.37.57a260.73 260.73.0 0 1 14.23 24.67l.58 1.2a178.69 178.69.0 0 1 12.81-28.77l.32-.55.37-.55a36.42 36.42.0 0 1 16.74-13.68 48.54 48.54.0 0 1 18.62-3.49 65.59 65.59.0 0 1 17.8 2.43c8.71 2.46 16.24 8.32 22.39 17.4l.2.3a26.6 26.6.0 0 1 9.21-12.88A29.77 29.77.0 0 1 607 644.33c12 0 23 6.07 32.84 18 7.7-8.69 18.23-18.58 31.65-18.58a32.18 32.18.0 0 1 20.53 7.5 29.7 29.7.0 0 1 11 23.35c0 8.82-3.36 17.68-10.28 27.1-4.07 5.54-8.11 11-12 16.18a18.47 18.47.0 0 0-2.6 5A77.33 77.33.0 0 0 680.89 733c3.26 10.15 4.78 17.87 4.78 24.31.0 11.61-4.53 21.58-12.75 28.06C665.64 791.11 655.39 793.67 639.67 793.67zM162.33 625.35a66.4 66.4.0 0 1-10.28-.81 56.23 56.23.0 0 1-10.75-2.85l-2.77-1-2.37-1.78a34.68 34.68.0 0 1-9-9.8c-3.36 5.72-7.24 9.9-12.46 12.39-4.65 2.23-10.62 3.61-26 3.61-14.53.0-24.93-3.62-31.79-11.07-5.12-5.55-9.06-13.81-13.15-27.61-3-10.22-5.67-19.54-7.82-27.68-2.26-8.53-4.19-17.47-5.76-26.58a175.61 175.61.0 0 1-2.5-29.68V498L29.55 494a32.1 32.1.0 0 1 8.51-11.53 28.19 28.19.0 0 1 18.45-6.28c7.46.0 21.45 2.88 31.23 22.2l.28.56L90 503.35l1.65-4.08.25-.54c9-18.9 21.4-22.86 30.25-22.86 12.61.0 22.62 5.76 27.48 15.8a36.8 36.8.0 0 1 1.61 4l1-1.76.33-.56.38-.56a36.87 36.87.0 0 1 16.72-13.66 48.58 48.58.0 0 1 18.62-3.49A65.66 65.66.0 0 1 206.05 478c8.7 2.46 16.23 8.31 22.38 17.4 3.42 5.06 6.8 11.72 10.44 20.61q2.06-6.42 4.37-12.12c2.83-7 11.43-28.18 31.4-28.18 12.74.0 23.45 6.51 28.64 17.43 3.15 6.63 4.69 14.58 4.69 24.3.0 3.89-.11 7.55-.32 10.88-.07 1-.13 2.12-.2 3.29a37 37 0 0 1 14.2 3.77q1-3.87 2-7.81a207.51 207.51.0 0 1 11.16-32.11l.77-1.68 1.06-1.51a36.74 36.74.0 0 1 17.92-13.87 54.16 54.16.0 0 1 18-2.83h4.89c1.21.0 2.47.0 3.75-.11h.94.2c9.4.0 16.49 1.17 22.32 3.69 10.69 4.64 17.07 14.89 17.07 27.43a26.22 26.22.0 0 1-1.54 8.84c.34.4.67.82 1 1.24.38-1.07.77-2.11 1.18-3.13 7.36-18.44 12-25 16.7-29.3a35.31 35.31.0 0 1 24-9.18 29.29 29.29.0 0 1 21.25 9.2 25.71 25.71.0 0 1 19.81-9.07c10 0 18.23 4.44 24.7 13.23a40.8 40.8.0 0 1 19.56-10.52l2.23-.5H553c6.19.0 15.92-.09 28.93-.27 19.92-.28 21.43-.28 21.92-.28a33.65 33.65.0 0 1 26.94 13.51c3.91-5.77 9-11.94 17-14.23a34.28 34.28.0 0 1 9.4-1.35c6.61.0 16.26 2.38 24.74 13.74a42.47 42.47.0 0 1 5.67 11.06c4.12-8.33 7.34-12.4 10.59-15.34a35.31 35.31.0 0 1 24-9.18 29.29 29.29.0 0 1 21.25 9.2 25.71 25.71.0 0 1 19.82-9.07c14.14.0 24.82 8.92 31.87 26.56.88-2.18 1.78-4.27 2.69-6.25l.76-1.68 1.06-1.51a36.75 36.75.0 0 1 17.93-13.87 54.06 54.06.0 0 1 18-2.83h4.89c1.21.0 2.48.0 3.75-.11h1 .19c9.4.0 16.49 1.17 22.32 3.69a27.66 27.66.0 0 1 15.59 17.42c7.18-18.4 18.58-22.49 27.27-22.49h4.83c10.84.0 19.15 6.11 24.79 18.2.81-.92 1.66-1.83 2.56-2.7 9.12-9 21.77-13.71 36.58-13.71 13.83.0 25.95 3.77 36 11.2 11.85 8.74 18.11 21.59 18.11 37.15a26 26 0 0 1-2 9.85c8.47 9.43 12.59 23.75 12.59 43.62.0 14.32-4 25.78-11.79 34-8 8.46-19 12.93-31.74 12.93h-3.83l-1-.14h-1.33L992.3 624c-.08.0-.45-.08-1-.12s-1.85-.09-3.68-.09c-2.93.0-6.88.13-11.73.39-8.4.44-8.4.44-9.08.44-12.87.0-24-3.83-33.23-11.39-10.25-8.42-15.67-20.53-15.67-35a73.3 73.3.0 0 1 .8-10.93c-2.23.13-4.45.16-6.6.16-1.91.0-3.93-.05-6-.21a70.45 70.45.0 0 1 2.26 18.15c0 17-7.85 26.15-14.44 30.85-7.72 5.52-18.31 8-34.32 8l-48.37.14a33.09 33.09.0 0 1-21.36-7.65c-6.64 5.22-15.18 8.06-24.8 8.06-9.78.0-16.94-2.36-22.16-5.53a32.22 32.22.0 0 1-4.26 1.75c-5.77 1.9-12.73 2.82-21.26 2.82-1.78.0-4.16-.05-7.28-.15-2.53-.08-4.28-.13-5.26-.13a27.35 27.35.0 0 1-16.16-5.07c-.22.13-.43.26-.64.37-6.53 3.72-14.56 5.53-24.54 5.53-1.44.0-2.9.0-4.4-.08-1 0-2-.06-2.9-.06h-4.69c-10.36.0-18.59-1.66-25.17-5.08a29 29 0 0 1-8-6.12c-5 5.69-12.22 9.27-20.67 10.24-4.24.49-7.68.85-10.49 1.09-3.19.28-6.74.42-10.53.42a87 87 0 0 1-13-.85 56.07 56.07.0 0 1-12.43-3.39 28.15 28.15.0 0 1-13.62-11c-7 9.75-18.29 15.24-31.68 15.24-9.77.0-16.94-2.36-22.15-5.53a32.22 32.22.0 0 1-4.26 1.75c-5.77 1.9-12.73 2.82-21.26 2.82-1.78.0-4.16-.05-7.28-.15-2.53-.08-4.28-.13-5.26-.13a27.39 27.39.0 0 1-17.15-5.8c-7.5 4.48-17.55 6.49-32.05 6.49l-48.32.14a33.11 33.11.0 0 1-19.71-6.33l-.61.33a46.33 46.33.0 0 1-22 5.31l-40.41.28a40.48 40.48.0 0 1-22.09-6 30 30 0 0 1-5 2.69c-6.67 2.8-15 4.16-25.37 4.16s-18.08-1.39-24.17-4.37c-.51.27-1 .54-1.56.79l-1.92.93-2.06.52a92.53 92.53.0 0 1-10.49 2A81.27 81.27.0 0 1 162.33 625.35zM736.82 450.57c-15.66.0-25.88-2.5-33.12-8.12-5.88-4.55-12.89-13.22-12.89-28.65a72.34 72.34.0 0 1 2-15.15 36.27 36.27.0 0 1-14.9 8q-2.38.64-4.93 1.11a45.91 45.91.0 0 1 1.52 11.13 29.76 29.76.0 0 1-9.85 22.23 31.46 31.46.0 0 1-21.55 8.2H617.9c-12.92.0-22.62-4-28.83-12-5.07-6.49-7.53-14.68-7.53-25 0-1.68.0-3.34.05-5-.76.17-1.52.32-2.31.47a45.47 45.47.0 0 1 1.53 11.13A29.76 29.76.0 0 1 571 441.13a31.46 31.46.0 0 1-21.55 8.2H524.19c-8.87.0-16.23-1.91-22-5.69a30.91 30.91.0 0 1-3.36 1.67c-6.66 2.8-15 4.16-25.37 4.16s-18.07-1.39-24.16-4.38c-.51.28-1 .54-1.57.8l-1.91.93-2.06.51a92.66 92.66.0 0 1-10.49 2 83.24 83.24.0 0 1-10.52.65 65.18 65.18.0 0 1-10.28-.81 55.7 55.7.0 0 1-10.75-2.85l-2.77-1-2.19-1.64c-.73.41-1.48.79-2.25 1.15-6.88 3.16-15.6 4.64-27.43 4.64-10 0-18-1.6-24.22-4.88-.66.29-1.33.56-2 .8-6 2.13-13.28 3.12-22.95 3.12-10.87.0-19.49-1.56-26.36-4.76-5.41-2.52-18-10.72-18-32.43.0-18.64 3.86-40.46 11.48-64.86 7.82-25.06 18.06-48.25 39.76-48.25 6.94.0 12.9 1.36 17.79 4.05a30 30 0 0 1 14.73-3.5c12.67.0 23.44 6 30.34 16.92 4.3 6.81 7.74 15.49 10.5 26.55q.72 2.86 1.43 5.73c4.24-11.91 8.62-21.79 13-29.41L413 318l.38-.56a36.48 36.48.0 0 1 16.72-13.66 48.77 48.77.0 0 1 18.62-3.49 65.59 65.59.0 0 1 17.8 2.43c8.72 2.47 16.25 8.32 22.39 17.41 3.67 5.42 7.29 12.68 11.24 22.57q1.92-6.49 3.55-11.93c4.87-16.18 15.29-23.16 23.18-26.16A70.67 70.67.0 0 1 552 300.27c18 0 33.35 6.77 44.38 19.58 1.21 1.41 2.36 2.86 3.43 4.35a37 37 0 0 1 20.7-19.61 70.71 70.71.0 0 1 25.19-4.32c13.65.0 25.78 3.9 35.65 11.36a29.05 29.05.0 0 1 4.31-4.11 29.8 29.8.0 0 1 18.47-6.28c12 0 23 6.06 32.84 18 7.7-8.69 18.23-18.58 31.65-18.58a32.12 32.12.0 0 1 20.53 7.5 29.67 29.67.0 0 1 11 23.34c0 8.82-3.36 17.68-10.27 27.1-4.1 5.59-8.15 11-12 16.18a18.6 18.6.0 0 0-2.59 5A77.79 77.79.0 0 0 778 389.91c3.26 10.14 4.78 17.86 4.78 24.3.0 11.62-4.53 21.58-12.75 28.07C762.79 448 752.54 450.57 736.82 450.57z" fill="#faefdc"/><path d="M639.67 778.92c-12 0-19.66-1.6-24.08-5-4.76-3.68-7.18-9.4-7.18-17 0-4.33 1.17-10.79 3.58-19.73 2.76-10.25 3.17-14.06 3.17-15.41.0-3.51-1.55-7.69-4.63-12.43-3.7-5.72-7.37-11.28-10.9-16.53l-.18-.28c-4.38-7.42-6.61-14.5-6.61-21.06a11.38 11.38.0 0 1 4.76-9.2 15 15 0 0 1 9.41-3.18c7.66.0 15.18 4.63 22.35 13.77 5.69 7.25 8.39 8.89 9.08 9.22 1.15-.15 4.9-1.37 12.31-9.76 8.41-9.53 14.81-13.78 20.75-13.78a17.32 17.32.0 0 1 11.18 4.16 15 15 0 0 1 5.61 11.94c0 5.57-2.43 11.58-7.42 18.37-4.11 5.61-8.2 11.11-12.15 16.35-3.57 5.26-5.38 9.85-5.38 13.65.0 1.35.46 5 3.51 14.52 2.74 8.52 4.07 15 4.07 19.79.0 9-3.88 13.91-7.14 16.48C659.35 777.29 651.68 778.92 639.67 778.92zM513 778.37a50.09 50.09.0 0 1-8-.63 40.8 40.8.0 0 1-7.89-2.09l-.79-.3-.68-.51a19.4 19.4.0 0 1-6.65-8.66 27.54 27.54.0 0 1-1.77-10c0-1.89.51-5.66 4.25-20.27 2.73-10.71 6.32-22.65 10.67-35.5 4.42-13.09 8.94-23.65 13.44-31.39l.09-.16.1-.15a22.05 22.05.0 0 1 10.1-8.25 34.14 34.14.0 0 1 13-2.37 51 51 0 0 1 13.8 1.87c5.26 1.49 10 5.35 14.17 11.47 3.64 5.4 7.55 13.71 11.93 25.42a272.66 272.66.0 0 1 10.29 33.88c2.65 11.49 3.94 19.9 3.94 25.72.0 11.78-5.26 16.47-9.68 18.33-4.82 2-11.24 3-19.65 3-8.09.0-14-1-17.9-3a13 13 0 0 1-6-6.32 18.46 18.46.0 0 1-8.29 7.2L531 776l-.59.14a76.79 76.79.0 0 1-8.81 1.72A67.82 67.82.0 0 1 513 778.37zm-78-1c-4.81.0-10.8-.11-18.31-.34-7.22-.23-11.49-.35-12.7-.35-7.73.0-12-3.44-14.3-6.33-3-3.86-4.41-9.77-4.41-18.58.0-11.17 1.77-24.17 5.26-38.66a294.75 294.75.0 0 1 10.35-35c4.14-10.81 8.14-16.45 13-18.29a36.73 36.73.0 0 1 13-2.1c8.92.0 15.9 1.06 21.35 3.24a33.3 33.3.0 0 1 14.38 11.26l.12.16.11.17a246.38 246.38.0 0 1 13.42 23.23 120.2 120.2.0 0 1 8.62 23.41 109.23 109.23.0 0 1 3.29 27.38c0 6.45-2.38 12.57-7.09 18.19s-10.06 9-15.93 10.08c-4.66.85-9.63 1.5-14.77 1.93S440.14 777.4 435 777.4zM162.33 610.6a50 50 0 0 1-8-.63 40.9 40.9.0 0 1-7.9-2.09l-.79-.3-.67-.51a19.5 19.5.0 0 1-6.66-8.66 27.76 27.76.0 0 1-1.77-10c0-1.9.52-5.66 4.25-20.27 2.73-10.71 6.32-22.65 10.67-35.5 4.42-13.09 9-23.65 13.44-31.39l.09-.16.1-.15a22.05 22.05.0 0 1 10.1-8.25 34.14 34.14.0 0 1 13-2.37 51 51 0 0 1 13.8 1.87c5.26 1.49 10 5.35 14.17 11.47 3.65 5.4 7.55 13.71 11.94 25.42A273.26 273.26.0 0 1 238.43 563a179.79 179.79.0 0 1 3.48 18.73 240.67 240.67.0 0 1 15-72.26c3.3-8.14 8.73-19 17.73-19 7.11.0 12.55 3.2 15.32 9 2.19 4.61 3.26 10.49 3.26 18 0 3.58-.1 6.93-.29 9.95-.18 2.83-.36 6.18-.54 10 0 5.91 1.26 7.31 1.28 7.32.76.41 3.56 1.52 11 1.52 10 0 17.31 5.18 20.71 14.58a69.05 69.05.0 0 1 3.42 15.56c.43-3.47 1-7.5 1.81-12.12 1.73-10.26 4.18-21.32 7.29-32.87a192.92 192.92.0 0 1 10.33-29.8l.22-.48.3-.43a21.83 21.83.0 0 1 10.73-8.39 39.58 39.58.0 0 1 13.13-2h4.89c1.48.0 3 0 4.56-.13h.33c7.21.0 12.6.81 16.46 2.48 3.06 1.33 8.18 4.89 8.18 13.89.0 4.37-2.23 11.86-17.13 12.91a22 22 0 0 0-6 1.06 7.09 7.09.0 0 0 1.37.11c.51.0 1.83.0 5-.38 2.9-.3 5.17-.44 6.94-.44a15 15 0 0 1 10 3.4 11.93 11.93.0 0 1 4.42 9.25c0 5-1.46 8.68-4.34 11-2.56 2.07-6.16 3-11.35 3h-3.51c-1.23.0-2.44.0-3.61-.14a16.35 16.35.0 0 0-3.49.33c0 .14.0.3.0.49a21.51 21.51.0 0 0 7 .89c1.84.0 3.64-.05 5.35-.13l5.52-.29h.15c8.55.0 15.64 4.16 20.52 12a41.45 41.45.0 0 1 4.62 10.58c.33-22.71 2.79-39.51 7.48-51.28 6.74-16.88 10.43-21.6 12.9-23.82a20.48 20.48.0 0 1 14.15-5.38c8.32.0 14.75 6.74 19.11 20 2.37 7.24 4.38 10.14 5.45 11.27.6-1.35 1.49-4.22 2.09-10 1.46-14.07 6.31-21.21 14.41-21.21 15 0 20.38 22.66 22.14 30.1 4.13 17.42 6.22 33.57 6.22 48 0 13.69-1.71 23.58-5.23 30.25C524.51 603.65 518.51 610 506 610c-10.11.0-17-3.2-20.35-9.51-.51-.94-1-2-1.51-3.08-1 4.53-4.23 7.92-9.16 9.54-4.26 1.41-9.71 2.09-16.65 2.09q-2.41.0-6.81-.14c-2.75-.09-4.67-.14-5.73-.14-3.9.0-10.94-1.65-14.33-12.71q-.75-2.46-1.31-5.05c-1 5.78-3.6 10.22-7.81 13.22-5 3.57-13.18 5.23-25.75 5.23l-48.37.14a18.58 18.58.0 0 1-14.85-7.22 23.82 23.82.0 0 1-4.12-7.44A15.29 15.29.0 0 1 321 605.36a31.76 31.76.0 0 1-15.1 3.58l-40.51.28c-7 0-12.76-2-17-6-3.2-3-5.24-7.21-6.09-12.54-.55 10.36-5.46 14.62-9.62 16.37-4.82 2-11.25 3-19.65 3-8.1.0-14-1-17.9-3a13 13 0 0 1-6-6.32 18.46 18.46.0 0 1-8.29 7.2l-.55.26-.59.15a76.9 76.9.0 0 1-8.8 1.71A66.14 66.14.0 0 1 162.33 610.6zm-73.58-.28c-10.18.0-17-2.06-20.94-6.31-3.41-3.69-6.54-10.63-9.86-21.82-3-10.07-5.58-19.24-7.7-27.25s-4-16.63-5.48-25.31a160.64 160.64.0 0 1-2.29-27.18v-1.27L43 5e2a17.36 17.36.0 0 1 4.55-6.29 13.49 13.49.0 0 1 9-2.83c7.25.0 13.33 4.75 18.07 14.12l.09.16.07.16c2.87 6.65 5.84 13.37 8.83 20 2.73 5 5.61 7.63 8.56 7.74.4-.25 2.06-1.56 4.35-6.94 3-7 5.86-14 8.57-20.76l.06-.18.08-.16c4.54-9.55 10.23-14.4 16.91-14.4 8.75.0 12.55 4.06 14.2 7.47 1.74 3.6 2.58 8.37 2.58 14.56v4.13c0 7.78-2.19 19.31-6.69 35.23-4.36 15.37-8.43 28-12.1 37.39-5.23 13.42-8.46 17.2-11.71 18.76C106.15 609.23 102.07 610.32 88.75 610.32zM765.07 610c-10.12.0-17-3.2-20.36-9.51-.5-.94-1-2-1.51-3.08-1 4.53-4.23 7.92-9.16 9.54-4.26 1.41-9.71 2.09-16.65 2.09q-2.42.0-6.81-.14c-2.75-.09-4.66-.14-5.73-.14-3.9.0-10.94-1.65-14.32-12.71a62 62 0 0 1-1.83-7.71v.47c0 8.4-2.67 14.19-7.94 17.18-4.25 2.42-9.89 3.6-17.25 3.6-1.27.0-2.55.0-3.87-.07-1.17.0-2.32-.07-3.43-.07h-4.69c-7.93.0-13.94-1.12-18.36-3.42-5.63-2.92-8.49-8.9-8.49-17.77.0-14.71 2.33-32.35 6.9-52.44 6.2-27.21 9.32-34.13 11.34-37.12 3.5-5.19 6.08-7.63 8.92-8.44a19.44 19.44.0 0 1 5.34-.78c4.7.0 9.05 2.63 12.93 7.81 2.24 3 5.6 9.93 11.77 37a283.71 283.71.0 0 1 5.83 35c.38-22.24 2.83-38.75 7.47-50.36 6.73-16.88 10.43-21.6 12.89-23.82a20.48 20.48.0 0 1 14.15-5.38c8.32.0 14.75 6.74 19.11 20 2.37 7.24 4.38 10.14 5.46 11.27.6-1.35 1.49-4.22 2.08-10 1.47-14.07 6.31-21.21 14.42-21.21 15 0 20.37 22.66 22.13 30.1 4.13 17.42 6.23 33.57 6.23 48 0 13.69-1.71 23.58-5.23 30.25C783.58 603.65 777.57 610 765.07 610zM576.7 610a73.78 73.78.0 0 1-10.75-.68 41.12 41.12.0 0 1-9.16-2.5c-5.39-2.15-7.39-5.85-8.12-8.57a35.64 35.64.0 0 1-1-9.17c0-7.13 1.44-15.76 4.42-26.39 2.7-9.64 5.56-19.61 8.5-29.63a5.1 5.1.0 0 0-.23-1.38 6 6 0 0 0-1.6-.22 25.82 25.82.0 0 0-3.94 1.89c-5 2.78-7.29 3.35-9.11 3.35a12.31 12.31.0 0 1-11.77-7.52 29.75 29.75.0 0 1-2.4-12.44 23.91 23.91.0 0 1 5.8-15.79 25.79 25.79.0 0 1 14.38-8.71l.64-.14H553c6.23.0 16-.09 29.13-.27s20.46-.28 21.72-.28c5.09.0 12.23 1.9 17.39 11a41.61 41.61.0 0 1 5.32 20.84 15 15 0 0 1-1.93 7.45 9.72 9.72.0 0 1-8.65 5.06c-2.48.0-5.87-.78-10.7-2.47a40.82 40.82.0 0 0-5.95-1.75 7.71 7.71.0 0 0-1 .62 45.19 45.19.0 0 0 3 12.94q3.43 9.3 6.75 18.1l.1.29a80.27 80.27.0 0 1 3.85 24.24c0 5.42-1.11 10-3.3 13.47-1.79 2.86-5.45 6.44-12.74 7.28-4.12.47-7.42.82-10.08 1S580.06 610 576.7 610zm421.1-.13-.42-.06a6 6 0 0 0-.7-.08h-.62l-.59-.13a22 22 0 0 0-3.21-.43c-1.3-.09-2.86-.13-4.65-.13-3.19.0-7.4.14-12.51.41-8 .42-8.07.42-8.3.42-9.36.0-17.39-2.7-23.86-8-6.83-5.61-10.29-13.56-10.29-23.64a49.89 49.89.0 0 1 4.74-22.17A20 20 0 0 1 951.45 545c-5.34-4.23-8.05-11.49-8.05-21.58a31.54 31.54.0 0 1 9.69-23.3c6.4-6.29 15.23-9.48 26.25-9.48 10.61.0 19.79 2.8 27.27 8.32 8 5.93 12.12 14.44 12.12 25.28a13.14 13.14.0 0 1-3.22 8.17 12.64 12.64.0 0 1-4.66 3.76 60.11 60.11.0 0 1 8.26 6.34c6.88 6.37 10.23 17.89 10.23 35.2.0 10.43-2.61 18.47-7.75 23.9s-12.3 8.32-21 8.32zm-186.57-.28a18.62 18.62.0 0 1-14.86-7.22A23.84 23.84.0 0 1 791 587.06c0-4.79.86-12.23 2.63-22.75 1.72-10.25 4.17-21.31 7.29-32.87a192.62 192.62.0 0 1 10.32-29.8l.22-.48.3-.43a21.89 21.89.0 0 1 10.74-8.39 39.52 39.52.0 0 1 13.12-2h4.89c1.48.0 3 0 4.57-.13h.32c7.22.0 12.6.81 16.47 2.48 3.06 1.33 8.17 4.89 8.17 13.89.0 4.37-2.22 11.86-17.12 12.91a22 22 0 0 0-6 1.06 7 7 0 0 0 1.37.11c.5.0 1.83.0 5-.38 2.9-.3 5.17-.44 6.95-.44a15 15 0 0 1 10 3.4 11.9 11.9.0 0 1 4.42 9.25c0 5-1.46 8.68-4.33 11-2.56 2.07-6.17 3-11.35 3h-3.52c-1.22.0-2.43.0-3.6-.14a15.47 15.47.0 0 0-3.49.33c0 .14.0.3.0.49a21.51 21.51.0 0 0 7.05.89c1.84.0 3.64-.05 5.36-.13l5.51-.29h.16c8.55.0 15.64 4.16 20.51 12 4.39 7.07 6.61 15.72 6.61 25.71.0 8.59-2.78 14.94-8.26 18.85-5 3.57-13.18 5.23-25.75 5.23l-48.35.14zM912.1 552.72c-8.72.0-13.9-1.38-16.83-4.46s-4.09-7.52-4.09-14.39a97.43 97.43.0 0 1 4.23-27.08c1.43-4.91 5.23-18 15.17-18h4.83c8.37.0 12.14 9.75 14.5 18.24A103.46 103.46.0 0 1 934 534.42c0 7.18-1.17 11.59-3.8 14.3C927.4 551.6 922.33 552.72 912.1 552.72zM736.82 435.82c-12 0-19.66-1.59-24.08-5-4.76-3.69-7.18-9.41-7.18-17 0-4.33 1.17-10.78 3.58-19.72 2.76-10.26 3.17-14.06 3.17-15.42.0-3.5-1.56-7.69-4.63-12.43-3.7-5.71-7.37-11.27-10.9-16.52l-.18-.29c-4.39-7.41-6.61-14.5-6.61-21.06a11.35 11.35.0 0 1 4.76-9.2 14.94 14.94.0 0 1 9.41-3.17c7.66.0 15.18 4.63 22.35 13.76 5.69 7.26 8.39 8.9 9.08 9.23 1.15-.16 4.89-1.38 12.31-9.77 8.41-9.52 14.81-13.77 20.75-13.77a17.32 17.32.0 0 1 11.18 4.16 15 15 0 0 1 5.6 11.93c0 5.57-2.42 11.58-7.41 18.38-4.12 5.61-8.21 11.11-12.15 16.34-3.57 5.26-5.38 9.85-5.38 13.65.0 1.36.46 5 3.51 14.52 2.74 8.53 4.07 15 4.07 19.79.0 9-3.88 13.92-7.14 16.49C756.5 434.19 748.83 435.82 736.82 435.82zm-314.05-.55a51.15 51.15.0 0 1-7.95-.62 40.93 40.93.0 0 1-7.9-2.1l-.79-.29-.68-.51a19.5 19.5.0 0 1-6.65-8.67 25.32 25.32.0 0 1-1.25-4.4c-1.18 7.87-6.09 11.33-9.17 12.75-4.82 2.21-11.78 3.29-21.28 3.29-8.51.0-14.64-1.31-18.74-4a15.51 15.51.0 0 1-5.15-5.59 12.84 12.84.0 0 1-7.28 6.36c-4.3 1.52-10.19 2.27-18 2.27-8.67.0-15.26-1.11-20.13-3.38-4.32-2-9.47-6.95-9.47-19.06.0-17.15 3.63-37.49 10.81-60.46 8.29-26.57 16-37.9 25.68-37.9 5.9.0 10.16 1.27 13 3.89 2 1.88 4.46 5.32 4.46 11.1a53 53 0 0 1-1.51 10.35 42.59 42.59.0 0 0-1.24 8.12c0 2.1.67 2.77.89 3a2.76 2.76.0 0 0 2.17.89 3.51 3.51.0 0 0 2.7-1.08 5 5 0 0 0 1-3.63 68.1 68.1.0 0 0-1.21-7.6c-1.26-6.77-1.41-9.29-1.41-10.59.0-4.06 1-7.34 3-9.75 2.28-2.75 5.85-4.14 10.61-4.14 7.53.0 13.71 3.47 17.87 10.05 3.45 5.46 6.28 12.74 8.66 22.25q3.3 13.23 6.61 26.31c2.22 8.79 4 16.77 5.32 23.71a122 122 0 0 1 1.77 13c.55-3 1.63-7.75 3.73-16 2.73-10.71 6.32-22.65 10.67-35.5 4.42-13.08 8.94-23.64 13.44-31.39l.09-.15.1-.16a22 22 0 0 1 10.1-8.24 34 34 0 0 1 13-2.38 51 51 0 0 1 13.8 1.88c5.26 1.49 10 5.34 14.17 11.47 3.65 5.39 7.55 13.71 11.94 25.42a273.26 273.26.0 0 1 10.28 33.88A158.42 158.42.0 0 1 502.61 409a159.49 159.49.0 0 1 2.13-24.66 238.79 238.79.0 0 1 6.14-26q3.95-13.45 6.91-23.33c2.52-8.38 7.33-14 14.29-16.63A56.09 56.09.0 0 1 552 315c13.77.0 24.94 4.87 33.2 14.46 8 9.33 12.11 21.15 12.11 35.13A40.62 40.62.0 0 1 593.13 383l-.15.32-.19.29a21 21 0 0 1-12.42 8.86 58.54 58.54.0 0 1-15.11 1.79h-3.45c-.6.0-1.19.0-1.76.0a42.63 42.63.0 0 0 2.63 9.77c2.27 6.32 3.38 11.21 3.38 15a15 15 0 0 1-5 11.32 16.74 16.74.0 0 1-11.62 4.36H524.19c-8.24.0-13.87-2.07-17.19-6.34-2.43-3.11-3.84-7.18-4.27-12.36-.69 10-5.51 14.11-9.6 15.83-4.81 2-11.24 3-19.65 3-8.09.0-13.94-1-17.89-3a13 13 0 0 1-6-6.32 18.45 18.45.0 0 1-8.29 7.19l-.55.27-.59.15a79.13 79.13.0 0 1-8.8 1.71A68.1 68.1.0 0 1 422.77 435.27zm195.13-.69c-8.25.0-13.88-2.07-17.2-6.34-3-3.8-4.41-9-4.41-16a165.12 165.12.0 0 1 2.15-27.94 240.58 240.58.0 0 1 6.14-26q3.95-13.45 6.91-23.33c2.52-8.38 7.33-14 14.3-16.63A56.07 56.07.0 0 1 645.73 315c13.77.0 24.94 4.87 33.2 14.46 8 9.33 12.11 21.15 12.11 35.13a40.61 40.61.0 0 1-4.2 18.34l-.16.32-.19.29a20.94 20.94.0 0 1-12.42 8.86A58.48 58.48.0 0 1 659 394.21h-3.45c-.59.0-1.18.0-1.76.0a42.63 42.63.0 0 0 2.63 9.77c2.28 6.32 3.38 11.21 3.38 15a15 15 0 0 1-5 11.32 16.7 16.7.0 0 1-11.62 4.36z" fill="#5a257f"/><path d="M294.21 411.32q0-24.94 10.54-58.7t20.05-33.76c4.32.0 7.32.78 9 2.34a8.73 8.73.0 0 1 2.54 6.75 49.85 49.85.0 0 1-1.37 9.1 49.13 49.13.0 0 0-1.38 9.37 9.65 9.65.0 0 0 2.62 7.16 8.6 8.6.0 0 0 6.34 2.62 9.42 9.42.0 0 0 6.82-2.76q2.82-2.74 2.82-7.85a71.12 71.12.0 0 0-1.31-8.68 64.7 64.7.0 0 1-1.31-9.51q0-4 1.66-6t6.06-2q8.26.0 12.88 7.3t7.93 20.53q3.3 13.23 6.61 26.32T390 396.92A100.11 100.11.0 0 1 391.91 415q0 8.26-6 11t-18.81 2.76q-10.87.0-15.5-3T347 415.87q0-3.45 2-11.85c1.33-5.61 2-9.46 2-11.58a9.57 9.57.0 0 0-1.86-6.34q-1.86-2.21-6.54-2.2c-2.67.0-4.55.64-5.66 1.93a8.22 8.22.0 0 0-1.65 5.51q0 3.45 2.07 11.85c1.38 5.6 2.07 9.56 2.07 11.85q0 9-5.45 10.89t-16 1.93q-11.58.0-17.64-2.83T294.21 411.32zM404.31 421a21.7 21.7.0 0 1-1.38-7.86q0-2.89 4.07-18.81t10.54-35.07q6.46-19.16 12.95-30.31a16.14 16.14.0 0 1 7.44-6.07 28.16 28.16.0 0 1 10.75-1.93 44.47 44.47.0 0 1 12.2 1.66q5.85 1.65 10.88 9.09t11.3 24.18A265.29 265.29.0 0 1 493.12 389q3.79 16.39 3.79 24.39.0 10.33-6.06 12.88t-17.37 2.55q-10.61.0-15.22-2.34t-4.62-10.89a46.79 46.79.0 0 1 1.59-9.51 48.13 48.13.0 0 0 1.58-8.95 9.9 9.9.0 0 0-2.14-6.48 6.13 6.13.0 0 0-4.75-2.62 4.76 4.76.0 0 0-4 2.55q-1.65 2.55-1.65 7.65a58.3 58.3.0 0 0 1 8.68 57.86 57.86.0 0 1 1 7.85 15.94 15.94.0 0 1-1.58 7.52 12.5 12.5.0 0 1-5.86 5 70.52 70.52.0 0 1-8.13 1.59 61.46 61.46.0 0 1-7.86.48 44 44 0 0 1-7-.55A34.94 34.94.0 0 1 409 427 13.61 13.61.0 0 1 404.31 421zm40.79-67.66a10.56 10.56.0 0 0 1.1 5.16 3.64 3.64.0 0 0 3.44 2 6.36 6.36.0 0 0 5.38-2.34 9.27 9.27.0 0 0 1.79-5.79 11.61 11.61.0 0 0-1.93-6.61 5.78 5.78.0 0 0-5-2.9c-1.29.0-2.41 1.11-3.38 3.31A17.76 17.76.0 0 0 445.1 353.31zm66.55 71.31q-3.16-4.06-3.17-12.34a158.49 158.49.0 0 1 2.07-26.94 234.85 234.85.0 0 1 6-25.35q3.93-13.44 6.89-23.29t10.75-12.81a49.85 49.85.0 0 1 17.85-3q18 0 28.73 12.41t10.68 31.28a34.77 34.77.0 0 1-3.58 15.71 15.15 15.15.0 0 1-9 6.4 52.07 52.07.0 0 1-13.57 1.59h-3.45c-1.1.0-2.16-.05-3.17-.14a4.22 4.22.0 0 0-3.1 1.58 5.12 5.12.0 0 0-1.44 3.52c0 2.85 1 7.07 3 12.67s3 9.93 3 13a9 9 0 0 1-3.1 7 11 11 0 0 1-7.65 2.82H524.19C517.94 428.68 513.77 427.33 511.65 424.62zM548 348.07q0 6.35 1.59 7.44c1 .74 3.74 1.1 8.06 1.1a4.85 4.85.0 0 0 3.93-2.41 8.21 8.21.0 0 0 1.72-4.75 10.65 10.65.0 0 0-2.76-7.17q-2.76-3.16-5.79-3.17a6.47 6.47.0 0 0-5.09 1.86Q548 342.83 548 348.07zm126.43-14.74q10.68 12.39 10.68 31.28a34.64 34.64.0 0 1-3.58 15.71 15.12 15.12.0 0 1-9 6.4A52 52 0 0 1 659 388.31h-3.45c-1.1.0-2.15-.05-3.16-.14a4.19 4.19.0 0 0-3.1 1.58 5.09 5.09.0 0 0-1.45 3.52q0 4.28 3 12.67t3 13a9 9 0 0 1-3.1 7 11 11 0 0 1-7.65 2.82H617.9q-9.37.0-12.54-4.06t-3.17-12.34a159.59 159.59.0 0 1 2.06-26.94 232.66 232.66.0 0 1 6-25.35q3.93-13.44 6.89-23.29t10.75-12.81a49.79 49.79.0 0 1 17.84-3Q663.78 320.92 674.46 333.33zM657 349.45a10.65 10.65.0 0 0-2.76-7.17q-2.74-3.16-5.78-3.17-3.45.0-5.1 1.86t-1.65 7.1c0 4.23.52 6.71 1.58 7.44s3.74 1.1 8.06 1.1a4.85 4.85.0 0 0 3.93-2.41A8.14 8.14.0 0 0 657 349.45zM712.63 363q5.58 8.61 5.58 15.64.0 4.41-3.37 16.95t-3.38 18.19q0 8.55 4.89 12.33t20.47 3.79q15.57.0 20.46-3.86t4.89-11.85q0-6.19-3.79-18t-3.79-16.33q0-7.57 6.48-17.09Q767 355 773.26 346.42t6.27-14.89a9.09 9.09.0 0 0-3.44-7.37 11.53 11.53.0 0 0-7.44-2.82q-5.92.0-16.33 11.78t-17 11.78q-4.41.0-13.44-11.51t-17.7-11.5a9.12 9.12.0 0 0-5.79 1.93 5.64 5.64.0 0 0-2.48 4.54q0 8.28 5.79 18.06Q707.05 354.4 712.63 363zM122.1 496.52q-6.34.0-11.58 11-4.12 10.34-8.61 20.87T92.33 539q-8.13.0-14-11-4.55-10.05-9-20.25-5.5-10.89-12.81-10.89a7.85 7.85.0 0 0-5.17 1.45 11.41 11.41.0 0 0-3 4.2 154.09 154.09.0 0 0 2.2 26.18q2.2 12.81 5.38 24.81t7.64 27.07q4.49 15.09 8.55 19.5t16.6 4.41q13.78.0 17.09-1.58t8.75-15.57q5.44-14 11.92-36.87T133 516.78v-4.13q0-7.86-2-12T122.1 496.52zm110.58 67.8q3.8 16.41 3.79 24.39.0 10.34-6.06 12.89t-17.36 2.54c-7.08.0-12.15-.77-15.23-2.34s-4.62-5.19-4.62-10.88a46.79 46.79.0 0 1 1.59-9.51 48.05 48.05.0 0 0 1.58-9 10 10 0 0 0-2.13-6.48 6.13 6.13.0 0 0-4.76-2.61 4.76 4.76.0 0 0-4 2.55q-1.65 2.55-1.65 7.64a57.15 57.15.0 0 0 1 8.68 58.92 58.92.0 0 1 1 7.86 15.89 15.89.0 0 1-1.58 7.51 12.46 12.46.0 0 1-5.86 5 70.35 70.35.0 0 1-8.13 1.58 59.64 59.64.0 0 1-7.86.49 44 44 0 0 1-7-.56 34.24 34.24.0 0 1-6.76-1.79 13.61 13.61.0 0 1-4.68-6.06 21.65 21.65.0 0 1-1.38-7.85q0-2.9 4.07-18.81t10.54-35.07q6.48-19.15 13-30.32a16.18 16.18.0 0 1 7.44-6.06 28 28 0 0 1 10.75-1.93 44.8 44.8.0 0 1 12.2 1.65q5.85 1.65 10.88 9.1t11.3 24.18A264.65 264.65.0 0 1 232.68 564.32zm-36.31-36.65a11.64 11.64.0 0 0-1.93-6.62 5.77 5.77.0 0 0-5-2.89q-1.93.0-3.37 3.31a17.56 17.56.0 0 0-1.45 7.16 10.57 10.57.0 0 0 1.1 5.17 3.67 3.67.0 0 0 3.45 2 6.32 6.32.0 0 0 5.37-2.35A9.26 9.26.0 0 0 196.37 527.67zm108.31 24.52c-6.52.0-11.18-.77-14-2.34s-4.2-5.74-4.2-12.54c.18-3.95.37-7.37.55-10.26s.28-6.09.28-9.58q0-9.78-2.69-15.43t-10-5.65q-6.06.0-12.26 15.29A201.82 201.82.0 0 0 252 548.34q-4.2 21.36-4.2 36.24.0 9.92 4.68 14.33t13 4.41l40.51-.28a25.85 25.85.0 0 0 12.33-2.89q5.44-2.89 5.45-8.54.0-18.06-3.86-28.74T304.68 552.19zm114.24 47.27q5.77-4.14 5.78-14.05.0-13.36-5.71-22.6t-15.51-9.24l-5.37.28c-1.84.09-3.72.14-5.65.14a26.41 26.41.0 0 1-9.44-1.38 5.17 5.17.0 0 1-3.51-5.24c0-2.84.77-4.7 2.34-5.58s4-1.31 7.3-1.31c1.1.09 2.23.14 3.38.14H396q5.5.0 7.65-1.72c1.42-1.15 2.14-3.29 2.14-6.41a6.06 6.06.0 0 0-2.35-4.75 9.24 9.24.0 0 0-6.2-2q-2.34.0-6.34.41c-2.66.28-4.55.41-5.65.41a8.75 8.75.0 0 1-5.51-1.51q-1.93-1.51-1.93-5.51.0-5.1 11.65-5.93t11.64-7q0-6.46-4.62-8.47t-14.12-2c-1.65.09-3.29.14-4.89.14h-4.89a33.76 33.76.0 0 0-11.17 1.65 16 16 0 0 0-7.85 6.2 186.56 186.56.0 0 0-10 28.87q-4.62 17.16-7.17 32.32t-2.55 21.77A18 18 0 0 0 338 598.7a12.63 12.63.0 0 0 10.26 5l48.37-.14Q413.14 603.59 418.92 599.46zm103.21-3.93q4.54-8.61 4.54-27.49.0-21.07-6.06-46.64t-16.4-25.57q-6.88.0-8.54 15.92t-7.3 15.92q-6.48.0-11.72-16t-13.5-16a14.67 14.67.0 0 0-10.2 3.86q-4.27 3.85-11.37 21.63t-7.09 54.43a63.54 63.54.0 0 0 2.62 18.74q2.61 8.55 8.68 8.54 1.65.0 5.92.14c2.85.09 5.05.14 6.62.14q9.36.0 14.81-1.79t5.44-7.17q0-4.12-4.82-12.26t-4.82-13.23a3.37 3.37.0 0 1 1.72-2.82 6.84 6.84.0 0 1 3.93-1.18q5.51.0 9.16 13.3t7.1 19.71q3.43 6.4 15.15 6.4T522.13 595.53zm81.64 2.69q2.41-3.86 2.41-10.34a74 74 0 0 0-3.58-22.46q-3.3-8.8-6.75-18.12T592.4 531c0-1.1.83-2.25 2.48-3.44a7.76 7.76.0 0 1 4.14-1.79q2.07.0 8.2 2.13T616 530a3.79 3.79.0 0 0 3.51-2.07 9.06 9.06.0 0 0 1.17-4.54 35.6 35.6.0 0 0-4.54-17.92q-4.56-8-12.27-8-1.79.0-21.63.27T553 498a19.91 19.91.0 0 0-11.16 6.75 18.09 18.09.0 0 0-4.41 12 24 24 0 0 0 1.86 10 6.53 6.53.0 0 0 6.41 4.07c1 0 3.1-.88 6.27-2.62s5.31-2.62 6.41-2.62q4.41.0 6.27 2t1.86 6.27q-4.54 15.43-8.75 30.45t-4.2 24.8a30.18 30.18.0 0 0 .82 7.65q.82 3.11 4.62 4.62a35.75 35.75.0 0 0 7.85 2.14 67.34 67.34.0 0 0 9.86.61q4.81.0 8.75-.34t9.92-1Q601.36 602.08 603.77 598.22zm61.6-97.36q-4.07-5.43-8.2-5.44a13.74 13.74.0 0 0-3.72.55q-1.94.55-5.65 6.07t-10.47 35.13q-6.76 29.64-6.76 51.13.0 9.78 5.31 12.54t15.64 2.75h4.69c1.19.0 2.41.0 3.65.07s2.45.07 3.65.07q9.38.0 14.33-2.82t5-12.06q0-23.83-6.68-53.19T665.37 500.86zm97.91-5q-6.9.0-8.55 15.92t-7.3 15.92q-6.48.0-11.71-16t-13.51-16a14.67 14.67.0 0 0-10.2 3.86q-4.26 3.85-11.36 21.63t-7.1 54.43a63.54 63.54.0 0 0 2.62 18.74q2.61 8.55 8.68 8.54 1.65.0 5.92.14t6.62.14q9.36.0 14.81-1.79t5.44-7.17q0-4.12-4.82-12.26T728 568.73a3.37 3.37.0 0 1 1.72-2.82 6.84 6.84.0 0 1 3.93-1.18q5.51.0 9.16 13.3t7.1 19.71q3.44 6.4 15.16 6.4 11.56.0 16.12-8.61T785.74 568q0-21.07-6.07-46.64T763.28 495.83zm103.21 57.74-5.38.28c-1.84.09-3.72.14-5.65.14a26.45 26.45.0 0 1-9.44-1.38 5.17 5.17.0 0 1-3.51-5.24q0-4.26 2.34-5.58t7.31-1.31c1.1.09 2.22.14 3.37.14h3.52q5.51.0 7.64-1.72t2.14-6.41a6.05 6.05.0 0 0-2.34-4.75 9.26 9.26.0 0 0-6.2-2q-2.35.0-6.34.41c-2.67.28-4.55.41-5.65.41a8.73 8.73.0 0 1-5.51-1.51q-1.93-1.51-1.93-5.51.0-5.1 11.64-5.93t11.64-7q0-6.46-4.61-8.47t-14.13-2c-1.65.09-3.28.14-4.89.14h-4.89a33.65 33.65.0 0 0-11.16 1.65 16 16 0 0 0-7.86 6.2 186.56 186.56.0 0 0-10 28.87q-4.61 17.16-7.16 32.32t-2.55 21.77A18 18 0 0 0 801 598.7a12.65 12.65.0 0 0 10.27 5l48.37-.14q16.53.0 22.32-4.13t5.79-14.05q0-13.36-5.72-22.6T866.49 553.57zm48.92-58.84h-4.83q-5.51.0-9.51 13.71a91.49 91.49.0 0 0-4 25.43q0 7.71 2.48 10.33t12.54 2.62q11.71.0 13.85-2.2t2.13-10.2a97 97 0 0 0-3.86-25.77Q920.37 494.73 915.41 494.73zm99.69 52.09q-8.34-7.71-22.46-13.16T978.52 520.5a2.88 2.88.0 0 1 1.44-2.82 8.86 8.86.0 0 1 4.07-.76 18.68 18.68.0 0 1 5.92 1q2.89 1.25 6.41 7.24a11.46 11.46.0 0 0 10.54 6q2.07.0 4-2.41a7.43 7.43.0 0 0 1.93-4.48q0-13.37-9.72-20.53t-23.77-7.17q-14.19.0-22.11 7.79a25.7 25.7.0 0 0-7.93 19.09q0 13.08 6.55 17.5t17.29 7.37q10.75 3 10.75 6.82t-1.93 5.1a12.39 12.39.0 0 1-5.92 1.1h-1.8q-3.59.0-7.37-5.51t-9.44-5.51q-10.6.0-14.74 8.4a43.81 43.81.0 0 0-4.14 19.57q0 12.4 8.13 19.08T966.8 604l8-.42q7.86-.4 12.82-.41c1.93.0 3.61.05 5 .14a27 27 0 0 1 4.06.55 10.2 10.2.0 0 1 1.52.14h2.34q10.62.0 16.75-6.48t6.13-19.84Q1023.44 554.53 1015.1 546.82zM479.2 720.66a103 103 0 0 1 3.1 25.9q0 7.58-5.72 14.4T464.11 769q-6.75 1.25-14.19 1.86T435 771.5q-7.17.0-18.12-.34T404 770.81q-6.48.0-9.64-4.06t-3.17-15q0-16.12 5.1-37.28a287.18 287.18.0 0 1 10.12-34.31q5-13.15 9.58-14.88a30.73 30.73.0 0 1 10.89-1.72q12.12.0 19.15 2.82a27.37 27.37.0 0 1 11.85 9.3A238.09 238.09.0 0 1 471 698.4 113.62 113.62.0 0 1 479.2 720.66zm-31.35-10.75a47 47 0 0 0-3.1-16.75q-3.09-8.19-7.64-8.2-3.32.0-4.69 4.55a35.06 35.06.0 0 0-1.38 10.2c0 1.38.0 2.73-.07 4.06s-.07 2.69-.07 4.07a24.74 24.74.0 0 0 1.45 9.44c1 2.25 3 3.51 6 3.79a8.46 8.46.0 0 0 6.95-3.17A12.34 12.34.0 0 0 447.85 709.91zm135.53 22.18q3.78 16.41 3.79 24.39.0 10.34-6.07 12.89t-17.36 2.55q-10.61.0-15.22-2.35t-4.62-10.88a47.31 47.31.0 0 1 1.58-9.51 47.49 47.49.0 0 0 1.59-9 9.86 9.86.0 0 0-2.14-6.47 6.1 6.1.0 0 0-4.75-2.62 4.74 4.74.0 0 0-4 2.55q-1.65 2.55-1.65 7.65a58.43 58.43.0 0 0 1 8.68 59.22 59.22.0 0 1 1 7.85 15.77 15.77.0 0 1-1.59 7.51 12.43 12.43.0 0 1-5.85 5 70.76 70.76.0 0 1-8.13 1.58 59.64 59.64.0 0 1-7.86.49 45.36 45.36.0 0 1-7-.55 35.06 35.06.0 0 1-6.75-1.8 13.54 13.54.0 0 1-4.68-6.06 21.65 21.65.0 0 1-1.38-7.85q0-2.9 4.06-18.81t10.55-35.07q6.46-19.16 12.95-30.32a16.08 16.08.0 0 1 7.44-6.06A27.94 27.94.0 0 1 538.94 664a44.73 44.73.0 0 1 12.19 1.65q5.86 1.67 10.89 9.1T573.32 699A264.65 264.65.0 0 1 583.38 732.09zm-36.31-36.65a11.72 11.72.0 0 0-1.93-6.62 5.77 5.77.0 0 0-5-2.89c-1.29.0-2.41 1.1-3.38 3.31a17.72 17.72.0 0 0-1.45 7.16 10.57 10.57.0 0 0 1.11 5.17 3.66 3.66.0 0 0 3.44 2 6.34 6.34.0 0 0 5.38-2.35A9.26 9.26.0 0 0 547.07 695.44zm131.87-28.18a11.55 11.55.0 0 0-7.44-2.83q-5.93.0-16.33 11.79t-17 11.78q-4.41.0-13.43-11.51T607 665a9.2 9.2.0 0 0-5.79 1.93 5.68 5.68.0 0 0-2.48 4.55q0 8.26 5.79 18 5.37 8 11 16.61t5.58 15.64q0 4.41-3.37 17t-3.38 18.19q0 8.54 4.89 12.33T639.67 773q15.57.0 20.46-3.86T665 757.31q0-6.19-3.79-18T657.44 723q0-7.57 6.48-17.09 5.93-7.86 12.2-16.4t6.27-14.88A9.07 9.07.0 0 0 678.94 667.26z" fill="#ff7bc4"/></g></g></g></svg>