<svg xmlns="http://www.w3.org/2000/svg" width="1080" height="893.15" viewBox="0 0 1080 893.15"><g id="a"/><g id="b"><g id="c"><g id="d"><path d="M104.11 409.92c131.77-37.74 239.28-135.53 374.7-176.88 42.96-13.11 144.05-64.33 175.96-54.72 75.67 22.79 128.76 116.92 158.12 182.01 19.53 43.28 52.08 139.18-12.62 155.21-86.96 21.57-170.92 46.17-254.54 78.6-24.2 9.38-170.8 92.42-179 86.11-69.65-53.46-107.27-208.51-116.48-289.12-26.84 21.28-53.68 42.58-80.55 63.87 191.31-54.84 384.68-101.86 576.39-155.14 107.76-29.94 86.96-108.97-21.13-78.92-191.74 53.28-385.11 100.31-576.39 155.14-26.44 7.58-84.79 26.82-80.55 63.87 20.97 183.96 121.18 410.74 336.29 317.23 139.54-60.65 266.82-128.76 417.11-162.72 84.14-19.02 204.04-51.11 196.96-148.04-8.96-122.73-143.19-368.98-309.91-366.73-107.69 1.43-223.15 60.86-321.82 96.74-64.83 23.57-126.89 50.16-188.98 80.07-28.84 13.02-56.6 28.04-83.28 45.05-8.85 5.19-76.47 42.35-31.42 29.45-107.35 30.74-86.87 109.86 21.13 78.92h0z" fill="#fcfcfc"/><path d="M679.15 123.44c48.46 32.77 78.06 120.07 109.41 169.23 37.65 59.07 78.43 117.97 68.73 191.07-7.96 59.8 191.58 24.13 180.99-27.42-16.26-79.19-47.37-138.16-91.5-207.19-35.25-55.21-118.13-207.32-148.09-225.1-34.24-20.33-34.3 23.61-68.11 36.85-11.58 4.53-83.68 40.78-51.44 62.57h0z" fill="#fcfcfc"/><path d="M786.63 265.89c-88.23 41.93-184.77 58.28-274.38 97.63-76.77 33.72-148.47 82.74-226.13 112-34.79 13.1-68.88 59.89-42.72 95.23 29.02 39.18 85.58 28.8 123.97 14.34 77.51-29.17 151.24-75.73 226.17-111.99 87.46-42.35 185.72-55.52 274.35-97.64 112.57-53.49 12.22-153.98-81.25-109.56h0z" fill="#fcfcfc"/><path d="M683.42 330.37c-30 17-66.94 21.04-99.19 33.56-42.32 16.45-77.36 46.16-119.24 64.21-31.29 13.48-142.27 45.83-147.06 88.38-16.52 146.52 297.16-16.34 336.07-36.54 61.94-32.2 157.47-29.62 208.91-82.64 47.78-49.21 19.87-86.98-39.98-95.96-51.47-7.71-102.84 4.18-142.73 40.04-32.64 29.37-15.2 91.71 28.9 102.41 16.92 4.1 45.38-1.41 54.75-17.67 17.32-29.97-10.63-68.29-29.97-90.25-11.55-13.08-69.03 8.2-56.93 21.93 16.86 19.1 41.98 51.24 26.68 77.78 18.24-5.9 36.48-11.78 54.75-17.67-46.58-11.32-36.39-68.49-7-86.89 15.2-.81 30.16.4 44.83 3.65 5.65 1.6 11.33 3.18 16.98 4.78 4.92 56.18-20.7 85.31-76.86 87.38-78.58 23.28-145.65 59.16-221.56 89.05-34.15 15.94-70.72 24.72-109.69 26.33-74.8-15.55 22.39-66.74 31.84-73.62 22.75-16.6 51.5-20.3 76.22-33.53 66.98-35.83 141.32-55.9 206.39-92.69 35.41-20.04-19.81-21.25-36.11-12.04h0z" fill="#ffec00"/><path d="M461.4 474.24c7.09 7.72 20.3 18.72 13.91 29.6 2.98-3.45 5.96-6.91 8.91-10.36 7.15-2.97 7.83-3.73 2.06-2.29 5.34-.43 10.72-.85 16.09-1.27 5.53 3.48 6.88 3.33 4.06-.49-2.06-4.85-1.6-9.41-2.55-14.43-1.66-8.78.64-17.72-2.64-26.19-10.56-27.42-70.97-10.24-60.74 16.27 2.33 6.03 1.2 14.59 1.72 21.3.58 8.11 2.09 16.09 5.28 23.6 8.91 21.02 28.56 26.73 49.9 22.77 19.72-3.65 38.42-15.4 41.43-36.85 2.76-19.67-9.12-34.55-21.77-48.39-10.47-11.42-28.13-10.81-41.27-4.5-9.7 4.67-24.84 19.78-14.37 31.24h0z" fill="#ffec00"/><path d="M152.01 265.22c73.33 103.15 217.08 4.53 301.47-24.6 63.16-21.79 118.41-59.88 183.42-77.31 44-11.78 44.53-59.63 39.92-97.11-.95-7.82-12.9-11.72-19.25-11.72-97.84.02-215.66 68.02-300.36 110.56-19.44 9.75-182.56 57.87-127.59 103.7 15.29 12.74 34.12 12.67 52.27 4.44 61.08-27.68 123.94-46.97 186.03-72.07 22.11-8.94 44.31-23.58 64.92-35.55 21.9-14.92 44.8-27.96 68.72-39.14 16.06 9.36 10.41 13.6-16.98 12.7-60.25 13.5-115.03 66.21-173.23 72.69-31.9 3.55-48.49 44.13-6.75 39.49 43.17-4.81 70.47-20.99 107.45-43.98 48.49-30.14 109.75-24.72 152.77-61.66 4.27-3.69 6.54-9.76 5.43-15.28-20.02-100.43-129.13-20.55-176.51 11.9-58.84 40.3-130.51 51.79-195.49 77.78-36.05 14.42-25.36 25.78 9 10.07 34.85-15.94 69.83-31.41 104.1-48.63 71.06-35.7 145.92-61.37 221.62-85.03 15.81-5.63 10.53-3.73-15.82 5.73 15.57 17.35 15.85 25.99.83 25.95-28.07 7.51-55.76 20.22-83.1 30.65-65.13 24.89-270.26 160.69-326.92 81.01-14.06-19.82-72.53 2.1-55.95 25.4h0z" fill="#ffec00"/><path d="M486.94 354.21c-85.19 45.05-195.86 65.47-266.61 131.48-50.67 47.26 88.72 178.97 121.14 196.99 51.96 28.9 194.81-57.32 232.09-71.49 102.23-38.83 229.33-61.55 319.21-125.75 81.53-58.26 74.19-42.22 38.17-132.31-16.49-41.27-61.2-137.57-116.78-122.68-223.65 59.93-405.04 128.15-594.97 263.44 15.75 1.55 31.54 3.09 47.29 4.64 6.72-5.18 13.69-9.98 20.97-14.4 26.44-17.61-34.92-12.88-47.29-4.64-7.25 4.42-14.25 9.21-20.97 14.4-26.04 19.5 35.4 13.11 47.29 4.64 135.09-96.23 290.01-181.15 452.08-214.5 20.48-4.21 41-9.11 60.71-16.12 66.98-23.78-5.07-28.76 48.27 33.49 41.03 47.87 100.57 126.99 36.27 166.3-128.82 78.75-295.47 86.54-422.76 162.95-63.78 38.29-56.84 19.33-98.67-19.05-29.05-26.68-109.07-116.88-33.5-149.78 71.86-31.26 144.42-59.31 213.98-96.1 35.9-19-19.84-20.04-35.93-11.52h0z" fill="#00b8ed"/><path d="M280.86 423.42c-47.38 20.31-74.75 18.92-112.95 57.04-5.83 5.82-7.4 13.96-2.76 20.9 40.14 60.07 145.28 123.74 145.28 201.99.0 17.9 22.08 20.99 35.87 16.61 13.05-4.16 24.84-8.87 34.39-19.29 46.16-50.32 3.47-32.69.64-32.96 51.31 4.9 106.5-26.92 152.37-46.25 109.69-46.25 200.43-118.03 317.03-150.44 43.67-12.14 91.94-31.67 74.96-82.5-3.59-10.72-17.19-14.1-27.3-12.67-15.57 2.23-32.24 4.53-41.06 19.38-32.21 54.31-74.68 61.4-116.88 103.58-54.23 54.23-183.82 50.82-259.11 65.88-44.99 9-103.73 25.23-145.47 46.09-16.8 8.41-25.49 26.69-4.73 35.9 62.77 27.87 165.18-30.06 220.7-51.1 94.67-35.88 177.98-43.24 258.47-110.36 31.69-26.43-17.6-43.5-39.61-25.15-63.5 52.95-128.02 52.83-198.99 83.89-32.46 14.22-169.85 79.46-204.95 63.87-1.57 11.96-3.16 23.94-4.73 35.9 110.86-55.44 245.54-50.84 362.91-85.75 81.13-24.14 274.9-175.36 57.76-108.6-100.23 30.83-209.55 94.61-298.95 148.26-34.42 20.65-72.62 17.69-108.55 27.31-27.88 7.48-26.81 52.36-39.31 56.33 11.95 5.54 23.92 11.08 35.87 16.61.0-43.02-23.77-72.76-48.61-105.91-21.65-28.84-49.29-55.35-72.07-83.85-39.64-49.55 11.15-32.58 55.92-51.77 38.45-16.51 4.02-45.89-26.16-32.95h0z" fill="#00b8ed"/><path d="M503.38 365.22c18.09.46 33.78-4.11 50.3-11.15 43.05-18.35 87.61-31.6 131.15-48.66 45.54-17.86 124.15-40.58 155.72-80.73.19-.86.34-1.72.49-2.56-.62-1.32-1.2-2.63-1.81-3.93-3.16-6.86-19.41-3.27-24.51-2.27-42.1 8.14-75.82 35.07-119.58 40.83-14.62 1.94-66.24 28.21-26.72 23 57.15-7.54 110.24-19.99 157.66-54.17-11.09 4.38-22.14 8.75-33.23 13.13 3.38-.66 6.76-1.3 10.13-1.97-8.17-.75-16.34-1.52-24.51-2.27 4.18 9.04-130.85 65.29-131.89 65.7-22.76 8.91-46.28 15.77-69.43 23.58-8.05 3.04-16.06 6.17-24.08 9.4-5.68 2.3-11.33 4.59-17.01 6.9-24.94 9.76-22.6 10.29 7.03 1.57-12.07-.31-69.15 22.86-39.73 23.61h0z" fill="#00b8ed"/><path d="M5.47 445.42c21.19 70.64 227.15 425.93 322.25 394.22 182.28-60.76 356.56-118 538.04-181.99 77.51-27.32 170-46.72 186.92-131.67 2.49-12.59-18.36-11.89-25.61-10.61-15.2 2.67-29.48 6.62-41.73 16.58-56.81 46.18-129.99 42.56-192.23 76.2-74.47 40.26-147.83 81.01-226.32 113.33-62.77 25.84-143.53 90.82-210.51 99.17-27.85 3.47-51.68 35.16-9.33 29.88 130.23-16.23 284.97-119.09 399.08-180.56 69.77-37.59 190.45-48.8 247.97-98.05 25.95-12.94 24.47-21.01-4.39-24.17-1.84 22.86-14.92 39.06-39.28 48.61-25.85 12.48-48.83 30.52-75.63 41.26-81.32 32.55-523.42 203.26-558.95 152.54-78.68-112.34-209.49-227.59-249.54-361-5.68-18.93-66.24-2.04-60.74 16.27h0z" fill="#eb639f"/><path d="M733.01 696.15c89.64-26.81 169.86-51.45 263.44-85.25 39.63-14.31 2.89-38.39-24.01-24.93-79.29 39.66-163.43 54.69-247.54 79.84-35.96 10.75-28.22 41.21 8.11 30.34h0z" fill="#eb639f"/><path d="M443.55 797.71c42.53-23.82 99.53-28.65 146.32-41.15 7.89-2.1 29.88-10.06 26.62-22.14-3.22-12.1-26.23-7.97-34.11-5.87-58.47 15.62-122.59 23.31-175.99 53.19-7.68 4.3-18.92 16.43-5.74 22.08 13.2 5.67 31.05.51 42.9-6.11h0z" fill="#eb639f"/><g><path d="M278.83 758.67c17.81 4.52 27.3 16.64 26.29 34.21-.68 11.46-2.06 22.91-2.67 34.36-.31 5.41-1.2 10.99 1.14 16.15 19.65 12.65 20.36 12.87 32.06 10.38-7.13-6.69-15.32-9.98-22.94-14.07-6.23-3.32-7.31-7.46-2.52-14.62 9 5.37 18.55 9.73 26.44 16.09 11.79 9.46 22.45 7.74 33.84.49-1.29-4.48-5.01-5.37-7.95-7.06-12.13-6.94-25-12.65-35.74-21.86-3.29-2.8-7.43-2.67-11.09-4.05-5.65-2.15-6.63-7.71-2.36-11.95 4.02-3.96 9.3-5.74 14.43-7.71 42.41-16.34 84.66-32.98 127.22-48.8 104.38-38.78 209.15-76.37 312.49-117.83 4.18-1.69 8.41-3.25 12.78-4.3 3.93-.92 8.01-.95 10.72 4.21-.49 6.36-6.14 7.89-10.99 9.98-15.6 6.75-31.14 13.67-46.92 19.9-107.26 42.38-214.56 84.69-321.91 126.82-19.04 7.46-38.48 13.88-57.73 20.88-4.58 1.66-9.67 2.27-13.39 5.65-.52 4.3 2.95 5.1 5.34 6.57 10.26 6.2 20.73 12.07 30.86 18.49 8.72 5.47 16.64 5.16 24.57-1.35-2.55-5.71-8.57-5.07-12.65-7.65-3.71-2.36-8.2-3.78-8.81-9.06 3.62-3.81 7.58-2.27 11.21-.92 5.59 2.12 10.99 4.79 16.52 7.16 12.22 5.19 13.05 5.07 26.26-2.83.89-5.01-7.28-5.53-5.62-11.08 1.69-3.5 4.3-3.01 7.43-1.78 5.07 2.06 8.94 7.06 14.74 6.94 6.63-.18 12.19-4.18 18.15-6.39 3.01-2.89-1.38-7 1.38-9.4 2.12-1.97 4.15-1.57 6.05-1.11q13.27 3.01 23.98-2.52c-.71-2.27-1.47-4.54-2.12-6.81-.09-.34.43-.86 1.29-2.46 19.75 7.74 35.99 1.02 51.71-14.56 6.85 3.32 15.17.68 23.64-2.58 102.94-39.77 205.22-81.13 306.87-124.06 10.96-4.61 21.93-9.15 32.95-13.76-.65-6.26-8.29-6.02-9.21-12.22 2-3.47 5.9-3.25 8.41-1.1 14.18 12.22 26.72 4.11 39.64-1.78-.68-6.94-9.89-8.11-8.69-15.23 2.12-2.3 4.7-2.36 6.91-.95 7.74 5.01 13.26 12.01 16.55 20.63 1.97 5.16.15 8.57-5.4 10.1-39.18 10.81-75.11 29.73-112.36 45.29-85.21 35.65-170.18 71.89-255.37 107.63-41.89 17.63-84.05 34.58-126.03 51.96-19.35 7.98-38.54 16.83-58.1 23.65-36.17 12.68-71.12 29.29-109.01 37.03-18.89 3.87-25.03 2.03-35.53-13.76-20.45-30.83-39.77-62.4-61.02-92.68-40.44-57.73-82.05-114.66-122.89-172.15-18.79-26.47-36.85-53.49-55.24-80.3-1.97-2.89-3.56-6.05-5.74-8.78C-.55 497.01-2.21 466.12 1.63 434.06c.74-6.45 2.09-12.96 1.69-19.35-1.2-21.1 2.83-41.83 3.56-62.8.61-17.6 8.14-32.09 23.74-42.72 31.9-21.67 66.18-36.87 105.3-42.73 2.58-8.17 10.59-12.96 13.7-21.69 1.97-5.56 9.03-7.57 14.31-10.3 27.51-14.25 55.73-27.02 84.02-39.67 119.95-53.66 242.38-101.11 365.58-146.68 18.24-6.76 36.36-13.7 55.21-18.89 10.13-2.78 17.38-3.63 22.54 6.92 25.98-9.58 51.16-18.95 76.43-28.16 6.54-2.4 13.18-4.64 19.93-6.43 13.18-3.52 18.98-1.44 27.02 9.74 12.87 17.9 23.22 37.36 33.69 56.69 9.27 17.13 18.3 34.42 26.87 51.94 21.1 43.25 47.29 83.46 73.64 123.57 35.47 53.99 66.36 110.54 95.16 168.27 8.72 17.44 16.58 35.44 26.93 51.87 10.5 16.74 9.98 33.87 7.68 51.93-1.87 14.8-4.3 29.63-4.88 44.53-.67 17.41-7.86 29.17-24.2 35.68-16.21 6.51-32.03 14.03-48.3 20.33-13.94 5.4-16.15 3.47-16.52-11.61-.03-.92-.58-1.84-.95-2.95-11.45-9.58-29.08-10.5-37.83-25.61 6.73-5.03 11.98-1.29 16.89 1.41 11.33 6.27 22.48 12.96 34.73 20.05 6.88-3.78 14.12-7.71 22.42-12.25-9.58-13.76-28.5-16.52-34.18-34 11.48-1.75 17.26 5.75 23.98 10.81 7.19 5.37 13.94 11.27 21.12 17.13 4.02-1.6 7.86-2.76 11.33-4.58 7.22-3.75 7.62-8.54 1.32-13.33-4.79-3.63-9.61-7.16-14.37-10.75-3.56-2.76-7.49-5.16-10.53-8.41-2.98-3.19-5.07-7.22-7.83-11.3-6.02.55-11.09 3.93-16.43 6.39-46.77 21.37-93.51 42.9-140.27 64.31-4.55 2.06-9.21 3.87-13.97 5.4-4.73 1.47-10.41 3.44-13.17-2.49-2.52-5.31 2.58-7.95 6.17-10.47 3.69-2.52 7.62-4.79 11.57-6.88 60.96-32.24 122.83-62.65 185.17-92.13 7.19-3.38 14.59-6.3 22.11-9.52-51.5-118.6-122.28-225.63-190.76-334.8-6.51-.61-12.74 2.95-19.01 5.68-127.32 55.55-258.93 99.75-389.04 147.95-18.7 6.92-38.14 11.81-57.33 17.24-6.42 1.84-13.24 4.18-19.71.12.15-6.48 4.85-8.05 8.72-9.83 8.6-4.05 17.29-7.89 26.1-11.33 111.72-43.38 223.34-86.87 335.18-129.85 31.75-12.21 62.65-26.23 93.69-39.95 3.1-1.38 6.79-2.13 9.12-7.06-9-18.96-18.76-38.49-29.91-57.32-2.64-4.5-7.4-6.51-12.07-8.45-16.61-6.88-33.22-13.77-49.75-20.88-3.9-1.67-7.4-1.47-11.55-.84-17.44 2.64-30.68 14.19-46.12 21.02-4.33 1.94-4.42 6.13-4.33 10.3.31 14.49-.06 29.03.92 43.5 1.42 19.9 4.64 39.72-2.7 60.77-5.59 3.67-13.94 5.51-21.86 8.28-53.31 18.59-105.08 41.16-157.96 60.83-72.04 26.82-143.34 55.61-216.06 80.59-12.47 4.27-25.24 5.9-38.02 7.92-10.38 1.66-19.78-1.72-28.68-6.6-23.28-12.68-46.46-25.45-69.71-38.14-4.33-2.36-8.14-5.86-14.19-6.75-28.4 15.05-60.4 24.04-89.57 40.54.67 20.02-5.47 38.69-8.45 57.85-.8 5.22-1.26 9.83 1.35 14.43 8.41 14.68 16.86 29.36 25.15 43.85 10.99 1.11 19.71-3.01 28.31-6.54 44.34-18.21 88.59-36.57 132.17-56.6 34.95-16.03 69.59-32.8 105.67-46.25 3.72-1.35 7.56-2.64 11.42-3.32 2.73-.52 4.76 1.51 5.62 3.99.71 2.03-.34 4.05-1.97 5.28-1.93 1.47-4.18 2.7-6.42 3.75-54.51 25-108.12 51.81-161.92 78.28-23.31 11.45-46.89 22.2-71.3 31.23-8.81 3.25-18.61 3.38-26.25 8.02-2.21 4.21.25 6.6 1.75 9 48.95 76.65 94.12 155.72 145.68 230.74 10.75 15.66 21.83 31.08 33.28 46.25 4.73 6.3 7.74 12.71 7.52 20.57-6.11 3.16-9.76.68-13.69-4.45-25.24-32.89-49.93-66.2-72.72-100.84-34.06-51.74-67.65-103.76-101.52-155.6-2.42-3.75-4.05-8.41-10.9-12.16 13.63 33.53 20.42 66.3 30.37 98.12 2.92 9.21 4.91 18.21-.37 26.99 5.5 7.61 10.32 14.58 15.48 21.31 3.56 4.61 5.52 10.81 12.04 12.65.31 1.23-.03 2.83 1.72 3.25.86-1.72-.34-2.58-1.48-3.47.15-9.3-4.58-17.23-7.19-25.76-6.17-20.02-14.28-39.46-18.12-60.19-.55-2.89-1.75-5.93 2.49-8.38 4.79 2.95 5.83 8.47 7.74 13.3 10.29 26.04 17.26 53.16 26.16 79.66 2.4 7.07 5.65 14.16 6.39 21.44 1.54 15.2 10.6 25.06 21.25 34.24.28.95.49 1.87.83 2.79.09.19.95.37.98.31.86-1.69-.25-2.58-1.47-3.38.55-6.82-2.98-12.53-5.04-18.61-4.67-13.7-9.55-27.33-14.03-41.09-1.75-5.47-3.19-11.27 1.29-18.06 5.77 6.05 7.74 12.84 9.86 19.16 7.83 23.15 14.56 46.68 23.62 69.43.89 2.27 1.9 5.01 1.44 7.22-1.2 5.77-.55 10.59 3.41 15.26 3.56 4.21 6.17 9.24 13.17 13.97-5.1-17.2-9.36-31.51-13.51-45.88-1.19-4.12-3.25-8.6 1.84-11.98 5.35 2.52 6.27 7.58 7.65 12.29 3.19 11.02 5.96 22.17 9.58 33.04 2.49 7.52 3.19 14.37-2.95 20.33 3.01 4.55 5.41 8.35 8.05 11.91 2.36 3.25 4.48 6.88 9.27 9.58.03-7.71-4.54-13.57-.37-21.68 5.37 12.84 10.19 23.71 11.67 35.56.68 5.19 2.09 9.58 4.88 13.85 8.44 12.99 16.7 26.07 25.18 39.03 1.47 2.21 2.21 5.71 6.97 4.91.43-6.75.74-13.69 1.38-20.57 1.81-19.1 7.19-38.14-.62-57.24-1.26-3.07-.67-6.91-.92-10.41zm-77.84-480.35c.4 1.49.8 1.81.98.91.03-.12-.83-.41-1.26-.63-1.14-2.12-2.98-3.23-5.28-3.72-7.74-6.82-15.45-13.63-23.25-20.5-4.02.85-7.58 1.61-9.4 4.56 1.66 4.33 4.73 5.2 7.34 6.4 8.05 3.69 15.39 8.93 24.23 10.79 1.63 2.47 4.15 2.24 6.63 2.18zm-99.13 318.18.8.98-1.04-.68c1.01-9.89-3.44-18.55-6.39-27.45-8.75-26.53-17.63-53.06-24.38-80.21-1.97-8.05-1.84-8.05 5.07-15.17-8.38-14.58-17.01-29.17-25.3-43.94-8.41-15.08-16.49-30.31-25.45-46.83-8.51 44.16 4.36 115.74 25.52 138.34-8.11-29.57-16.4-56.9-19.84-84.85 4.73-2.49 7.25-.92 8.69 1.93 1.81 3.53 3.19 7.31 4.45 11.09 9.34 27.94 16.83 56.5 23.06 85.21 5.37 24.54 18.92 43.51 34.82 61.57zM668.37 53.95c-162.54 59.36-323.23 120.56-482.67 193.6 33.29 19.82 62.89 39.7 91.85 60.48 131.28-51.62 262.62-103.24 393.77-154.79 3.74-21.6 2.09-86.98-2.95-99.29zm379.43 495.48c4.52-13.45 5.75-29.2 2.98-37.12-10.19 3.5-20.14 7.43-30.31 13.82 9.64 7.37 16.43 16.52 27.33 23.31zM39.53 367.24c3.62-14.96 5.74-27.21 6.63-42.25-9.7 5.52-17.75 9.33-22.75 18.33 6.39 6.3 8.57 14.8 16.12 23.92zM792.65 24.03c-5.65 1.93-12.59.29-17.53 7.23 9.36 4.85 17.99 9.81 31.17 13.47-4.42-9.3-7.65-15.39-13.63-20.7zM311.17 861.79c-.98-4.14-3.25-5.99-7.34-4.02-1.32.68-1.66 2.58-.8 3.9 2.55 3.96 5.31 3.16 8.14.12z" fill="#25213f"/><path d="M375.26 610.94c-27.85.8-51.77-5.93-70.26-26.23-16.15-17.72-22.05-39.06-18.7-62.46 2.21-15.54 12.34-27.02 23.89-36.97 17.51-15.14 37-27.39 57.76-37.37 91.33-43.82 182.84-87.36 275.36-128.67 38.75-17.29 78.12-33.21 120.07-41.3 17.07-3.3 34.12-6.51 51.87-3.1 22.23 4.27 38.39 16.24 49.6 35.28 9.74 16.52 16.12 34.24 16.64 53.71.43 15.32-5.04 28.34-15.14 39.52-12.19 13.51-26.47 24.32-42.28 33.23-43.15 24.26-88.38 44.22-133.52 64.46-59.21 26.53-118.96 51.83-179.34 75.66-31.14 12.29-62.74 23.12-95.62 29.63-13.7 2.7-27.39 5.65-40.32 4.61zm-.71-24.44c10.84-.89 19.41-.86 27.73-2.4 28.5-5.22 56.17-13.63 83.22-23.95 69.95-26.72 138.71-56.29 206.97-87.03 40.48-18.27 81.13-36.3 119.79-58.35 12.68-7.24 24.2-15.85 34.27-26.41 5.28-5.56 9.21-11.67 9.58-19.75.95-21.65-6.6-40.2-20.67-56.1-8.26-9.4-19.1-13.53-31.94-13.96-22.85-.77-44.49 4.64-65.99 11.19-41.64 12.71-81.5 29.97-120.78 48.52-58.68 27.7-117.18 55.77-179.03 75.85-35.22 11.45-65.93 30.65-95.1 52.79-9.52 7.22-19.25 14.34-26.19 24.38-4.95 7.15-9.21 14.8-7.89 23.61 3.56 23.89 15.54 43.7 44.53 49.99 7.71 1.66 15.88 1.23 21.5 1.6z" fill="#25213f"/><path d="M204.74 469c3.19 10.75.28 19.72-2.76 28.74-1.44 4.24-2.49 8.63-4.05 12.84-4.54 12.41.92 20.82 10.87 28.68 5.56-10.63 5.65-21.93 9.06-32.21 3.25-9.83 1.81-21.77 13.27-30.43 3.1 14.46-3.38 25.61-5.87 37.28-2.58 12.16-5.99 24.13-9.3 37.22 15.2 20.27 31.02 40.9 46.34 61.85 20.67 28.25 40.87 56.81 61.48 85.12 8.93 12.19 9.15 12.04 23.37 7.06 49.99-17.53 98.39-39.06 147.46-58.87 66.24-26.68 132.66-53 197.11-83.86 3.99-1.9 7.92-4.39 12.74-3.9 2.7.28 4.73 1.53 5.71 4.08.92 2.55.65 5.28-1.41 6.88-2.73 2.12-5.9 3.72-8.97 5.35-49.99 26.32-102.11 48.15-153.45 71.61-43.61 19.96-87.21 39.92-131.19 58.96-22.45 9.7-45.66 17.6-68.66 25.98-18.21 6.6-24.78 4.97-36.05-10.57-15.85-21.86-30.74-44.4-46.27-66.48-31.66-44.99-64.58-89.05-94.46-135.27-4.88-7.58-9.61-15.26-12.74-23.74-6.2-16.61-4.97-20.57 10.16-29.26 13.45-7.68 27.15-14.92 40.9-22.05 60.86-31.45 123.75-58.35 186.92-84.75 84.79-35.38 169.02-72.12 254.67-105.45 27.45-10.67 55.03-21.07 82.6-31.51 4.64-1.75 9.24-4.08 14.46-2.79 2.61.64 4.51 2.18 5.07 4.88.43 2.17-.95 3.72-2.33 5.22-2.86 3.13-7.03 3.71-10.69 5.2-41.12 16.86-82.45 33.26-123.48 50.33-64.12 26.7-127.35 55.32-190.73 83.66-52.88 23.68-105.82 47.2-158.61 71.09-20.39 9.24-40.44 19.22-61.17 29.11zm-10.13 7.31c-9.49 1.07-17.44 5.22-24.84 12.01 3.72 8.72 9.58 14.89 16.68 21.83 5.62-11.36 7.03-22.39 8.69-33.35.28-.28.55-.55.83-.83-.19-.15-.46-.52-.49-.46-.31.21-.58.49-.86.8z" fill="#25213f"/><path d="M774.07 219.12c2.24-3.35 2.98-5.42 4.45-6.5 13.45-9.75 28.65-16.14 43.94-22.26 5.8-2.32 10.72.37 15.2 3.93 5.56 4.47 9.24 10.52 12.99 16.4 28.4 44.7 56.63 89.51 84.97 134.26 6.69 10.57 14.52 20.48 20.18 31.57 8.63 16.92 23.46 28.84 33.81 44.34 9.18 13.82 9.24 21.99-1.87 34.73-7.43 8.51-16.34 14.83-26.87 18.49-65.53 22.82-129.5 49.81-194.72 73.45-7.22 2.61-14.46 6.51-22.29 5.25-2.42-4.7.74-6.45 2.98-7.95 4.51-3.1 9.27-5.87 14.13-8.45 37.56-19.84 76.83-36.05 115.77-52.94 3.65-1.6 7.25-3.44 11.06-4.54 11.12-3.23 17.1-10.19 19.74-21.71 4.05-17.47 9.43-34.7 14.68-51.87 1.93-6.45 2.61-13.82 9.09-18.06 5.8 2.36 4.24 6.76 3.25 10.29-3.38 12.01-7.31 23.86-10.75 35.83-2.98 10.41-7.46 20.42-8.66 32.49 8.02-.18 13.91-4.08 20.18-6.51 4.21-1.66 5.8-5.59 6.51-9.52 2.49-13.73 4.52-27.58 6.91-41.33 1.69-9.55-1.17-17.63-6.97-25.12-11.06-14.19-21.62-28.78-32.98-42.72-22.45-27.61-41.58-57.46-59.73-88-7.89-13.26-16.46-26.15-24.63-39.06-17.01-.2-31.66 12.22-50.36 5.5zm177.06 232.6c23.74-9.18 23.4-20.36 9.37-40.2-5.96 12.56-6.08 25.74-9.37 40.2z" fill="#25213f"/><path d="M757.39 67.83c4.67-3.01 8.41-.44 11.73 1.09 15.26 7.11 30.4 14.48 45.42 22.08 4.33 2.18 8.63 5.11 6.72 11.38-7.15-.97-53.59-21.27-60.53-26.36-2.46-1.81-4.76-3.72-3.35-8.19z" fill="#25213f"/><path d="M881.94 466.73c-3.99-4.67-2.33-9-1.04-13.21 6.36-20.63 16-39.37 23.89-46.61 2.15.8 3.62 2.58 2.8 4.55-7.65 18.12-15.51 36.17-23.34 54.23-.15.34-.86.43-2.3 1.04z" fill="#25213f"/><path d="M262.9 539.08c5.47 15.29 2.09 29.61 2.83 43.55.21 3.75.74 8.17-5.59 10.26-4.42-11.58-4.24-23.65-4.3-35.62-.03-5.77-1.23-12.04 7.06-18.18z" fill="#25213f"/><path d="M225.03 555.32c3.9-19.44 8.75-38.6 17.84-56.1 3.87.43 5.16 2.27 4.67 4.24-4.39 17.26-9.73 34.21-15.94 50.92-.4 1.04-2.24 1.57-3.41 2.33-1.04-.46-2.09-.92-3.16-1.38z" fill="#25213f"/><path d="M66.06 396.9c-4.14-14.19 3.01-26.84 4.36-40.23.61-5.93 2.49-8.11 7.19-13.57 3.87 3.01 2.86 7.43 1.91 10.78-4.08 14.4-3.96 30.09-13.45 43.02z" fill="#25213f"/><path d="M804.71 126.04c-18.06-5.2-34.03-7.46-50.12-17.4 13.33-6.82 22.42.58 31.63 3.22 6.33 1.81 15.26 1.52 18.49 14.17z" fill="#25213f"/><path d="M854.15 473.52c.37-14.71 8.05-29.73 16.62-34.18-1.14 12.53-6.91 25.03-16.62 34.18z" fill="#25213f"/><path d="M90.26 406.73c-5.04-14.62-.58-25.37 1.97-38.72 4.36 14.31 3.87 26.56-1.97 38.72z" fill="#25213f"/><path d="M278.53 577.77c4.97 14.07 4.73 25.64-.34 37.1-3.65-13.45-2.58-25.27.34-37.1z" fill="#25213f"/><path d="M748.09 139.64c3.04-6.02 6.69-4.13 10.1-2 4.67 2.93 11.02 4.9 8.63 13.94-7.68-2.75-14.19-5.76-18.73-11.95z" fill="#25213f"/><path d="M119.18 410.11c-3.84-9.21-2.03-16.58 1.78-24.32 4.58 7.49 4.45 9.4-1.78 24.32z" fill="#25213f"/><path d="M835.27 470.05c-1.44 6.39-3.44 12.35-11.18 15.91-.4-9.21 5.86-12.28 11.18-15.91z" fill="#25213f"/><path d="M742.75 161.37c-.4 1.68-1.63 2.5-3.16 2.26-2.12-.35-3.56-1.75-3.41-4.01.09-1.63 1.35-2.81 3.01-2.35 1.9.53 3.44 1.81 3.56 4.1z" fill="#25213f"/><path d="M303.4 634.12c-3.56-6.51-3.47-9.49.52-11.52 3.41 3.25.92 5.96-.52 11.52z" fill="#25213f"/><path d="M292.38 234.1c12.93-.08 21.83 6.99 21.68 17.24-.09 8.53-8.45 16.17-17.9 16.34-9.27.15-18.7-8.35-19.19-17.26-.46-8.72 6.66-16.28 15.41-16.32z" fill="#25213f"/><path d="M628.45 96.37c9.67.36 16.46 6.91 16.15 15.58-.31 8.63-8.05 15.16-17.23 14.51-9.36-.66-15.66-7.54-15.17-16.63.46-8.45 6.91-13.82 16.24-13.47z" fill="#25213f"/><path d="M548.88 135.11c8.45.18 13.82 4.24 13.57 10.15-.34 6.71-8.23 12.8-16 12.31-7.31-.46-12.07-5.28-12.07-12.21.0-7.52 4.21-10.49 14.49-10.25z" fill="#25213f"/><path d="M381.77 224.01c-7.95-.26-12.62-5.28-12.35-13.28.21-6.57 6.3-12.33 12.44-11.81 5.86.51 13.82 8.17 13.91 13.36.12 6.92-5.93 12.01-14 11.73z" fill="#25213f"/><path d="M647.24 366.28c7.12-.77 12.1 2.18 15.35 7.83 9.43 16.49 20.36 32 30.71 47.9 6.66 10.26 4.79 17.17-5.16 24.2-2.03 1.47-4.27 2.58-6.48 3.75-33.13 17.38-66.27 34.76-99.43 52.08-3.53 1.87-7.16 3.62-10.9 4.97-10.78 3.87-20.82 2.7-28.84-6.02-12.59-13.63-22.97-28.89-32-45.05-4.24-7.58-.3-19.01 9.15-25.7 8.91-6.36 18.27-12.28 28.01-17.26 28.01-14.31 56.26-28.01 84.45-41.95 4.91-2.43 9.67-5.41 15.14-4.76zm-77.39 65.07c-6.3-.12-11.12 2.7-11.85 8.96-1.29 10.87-4.48 21.56-3.9 32.68.15 3.25-.71 7.12 5.43 9.15 4.42-16.74 9.3-33.1 10.87-50.3.24-.28.52-.55.74-.86.0.0-.43-.43-.46-.4-.28.21-.55.49-.83.77zm27.73 33.84c4.85-.12 8.41-2.61 11.48-5.92 1.72-19.25 8.35-39.74 15.85-47.38 1.97 14.99-8.38 27.7-6.05 43.55 16.52-9.64 32.89-16.58 48.52-26.84-8.11-12.53-15.35-23.71-22.88-35.34-12.22 4.45-22.57 10.47-33.14 15.94-3.25 1.72-5.37 4.24-6.14 7.98-3.07 15.6-8.47 30.77-8.78 46.92-.83 1.63-.43 1.97 1.14 1.1zm-3.69-45.14c-7.22.8-11.91 2.27-12.1 8.72-.37 12.16-5.31 23.22-8.08 34.79-1.23 5.01-3.63 9.98-2.06 15.63 11.15-4.67 12.22-4.82 13.11-9.52 2.98-16.03 7.71-31.75 9.12-49.62zm-66.39 28.07c4.79 6.11 7.89 12.84 16.46 16.77 2.49-8.02 3.1-14.96 1.32-22.54-6.36-.86-11.09 1.63-17.78 5.77z" fill="#25213f"/><path d="M401.67 557.2c-11.55 1.14-23.37-2.03-33.32-10.65-11.61-10.04-15.9-22.27-11.73-37.56 8.78-32.28 44.68-52.27 76.49-42.38 29.57 9.21 42.81 48.73 19.07 72.65-13.66 13.76-30.34 18.49-50.51 17.93zm.95-22.66c10.69-1.93 21.74-2.8 30.18-10.99 6.88-6.63 8.2-16.34 3.47-24.51-6.6-11.45-26.87-17.35-38.08-10.59-8.72 5.28-15.23 12.71-18.36 22.73-2.7 8.69-.71 14.58 7.06 18.85 4.79 2.64 9.92 4.7 15.72 4.51z" fill="#25213f"/><path d="M778.46 412.84c-15.2 2.18-34.7-9.89-40.9-31.11-5.77-19.8-1.23-36.05 15.11-47.78 9.58-6.88 20.42-10.19 31.69-12.62 29.54-6.39 52.82 26.81 44.65 52.36-7.28 22.72-30.92 41.85-50.55 39.15zm26.66-51.59c.55-5.31-1.78-10.1-5.31-14.52-2.89-3.69-6.14-6.82-11.24-5.77-10.47 2.21-19.96 6.45-26.56 15.23-5.44 7.25-4.48 14.93.09 22.29 4.21 6.76 10.14 11.33 18.3 10.84 12.84-.77 24.6-14.28 24.72-28.07z" fill="#25213f"/></g></g></g></g></svg>