<svg xmlns="http://www.w3.org/2000/svg" width="571.56" height="1080" viewBox="0 0 571.56 1080"><g id="Слой_2" data-name="Слой 2"><g id="Sticker02_239194180"><g id="Sticker02_239194180-2" data-name="Sticker02_239194180"><path d="M529.34 586.67c14.37-9.84 25-21.71 30.07-38.7 10.8-36.23-4.06-71.63-22.26-102.39-10.74-18.17-18.69-36.33-18.78-57.78-.09-20.45 5.5-40.46 11.31-59.89 5.92-19.79 12.59-39.54 15.48-60.07 3.31-23.52-.15-46.74-5.84-69.62-9.9-39.76-25-79-49.18-112.4C446.06 25 359-15 289.7 28.09c-69.79-46.51-159-6.21-203.78 55.61-24.18 33.37-39.28 72.63-49.18 112.4-5.69 22.88-9.15 46.09-5.84 69.62 2.9 20.53 9.56 40.28 15.48 60.07 5.81 19.43 11.41 39.43 11.31 59.88-.09 21.45-8 39.61-18.78 57.78-18.2 30.77-33.06 66.16-22.25 102.4 5.06 17 15.69 28.85 30.06 38.7 16.55 11.34 29.68 23.42 25 45.36-7.51 35.5-61.36 69.2-32.38 107.73 25.18 33.48 79.22 35.64 114.62 20.27 33.83-14.7 64.16-45.59 103.57-42.3 9.63.81 49.55 3.08 60.94 2.13 39.41-3.3 69.74 27.6 103.57 42.3 35.4 15.37 89.44 13.21 114.62-20.28 29-38.53-24.87-72.22-32.38-107.72C499.66 610.1 512.79 598 529.34 586.67z" fill="#d78929"/><path d="M468 777.25a125.06 125.06.0 0 1-49.13-9.9C407.72 762.5 397 756 386.54 749.67c-22.11-13.38-43-26-67.38-24-12.53 1.06-53.6-1.4-62.26-2.12-24.41-2-45.27 10.6-67.38 24-10.41 6.3-21.17 12.82-32.35 17.67C117.5 782.44 60.22 778.63 33 742.43c-22.12-29.41-3-57.2 12.4-79.54 8.34-12.11 16.22-23.56 18.56-34.63 3.46-16.32-5-25.64-21.74-37.13-17.47-12-28-25.64-33.2-43-12.26-41.14 5.87-79.72 23-108.74 8.68-14.68 17.57-32.56 17.67-53.76.08-19-5.15-38.06-11-57.56q-1.4-4.67-2.83-9.34c-5.11-16.71-10.38-34-12.9-51.9-3-21.44-1.18-43.85 6-72.66C40.61 147.52 57.12 109.86 79.46 79c24-33.11 59.16-59.1 96.5-71.33 40.41-13.23 80.65-9.29 113.88 11 71.68-40.82 160.77-1.06 206.76 62.41 22.34 30.84 38.85 68.5 50.46 115.16 7.17 28.8 9 51.21 6 72.66-2.53 17.9-7.8 35.18-12.9 51.89q-1.44 4.68-2.84 9.35c-5.83 19.49-11.06 38.56-11 57.56.1 21.2 9 39.07 17.67 53.76 17.17 29 35.3 67.6 23 108.73-5.18 17.36-15.73 31-33.2 43h0c-16.77 11.48-25.2 20.8-21.74 37.13 2.34 11.07 10.22 22.51 18.56 34.63 15.38 22.33 34.52 50.13 12.4 79.54C526 767.29 497 777.25 468 777.25zM324.41 709.52C351 709.52 373.24 723 394.8 736c10.42 6.31 20.26 12.26 30.45 16.69 33.25 14.44 82.88 11.76 105.07-17.75 14.19-18.87 4.64-35.6-12.78-60.91-8.87-12.87-18-26.18-21-40.37-6.32-29.85 16.22-45.29 28.33-53.59h0c14.5-9.94 22.8-20.55 26.93-34.4 10.5-35.22-6-69.84-21.47-96.06-9.78-16.53-19.79-36.8-19.9-61.81-.09-21.18 5.46-41.51 11.65-62.2q1.41-4.72 2.86-9.43c4.92-16.13 10-32.8 12.36-49.47 2.72-19.32 1-39.86-5.68-66.58-11.1-44.63-26.77-80.5-47.9-109.65C441 31.66 358.39-5.24 293.91 34.87a8 8 0 0 1-8.64-.14c-51-34-137.16-23.27-192.89 53.65-21.13 29.15-36.79 65-47.9 109.64-6.65 26.73-8.4 47.26-5.68 66.58 2.35 16.67 7.44 33.35 12.36 49.48q1.44 4.71 2.86 9.42c6.19 20.69 11.74 41 11.65 62.2-.11 25-10.12 45.28-19.9 61.81-15.51 26.23-32 60.85-21.47 96.06C28.43 557.43 36.73 568 51.23 578c12.11 8.3 34.65 23.74 28.33 53.59-3 14.19-12.17 27.5-21 40.38-17.42 25.3-27 42-12.78 60.9 22.2 29.51 71.82 32.2 105.07 17.76 10.19-4.43 20-10.39 30.45-16.7 23.32-14.11 47.43-28.73 77-26.24 10.59.89 49.39 3 59.6 2.13C320.06 709.6 322.25 709.52 324.41 709.52z" fill="#3f3f3e"/><path d="M226.48 513.8h108.46v148.16H226.48z" fill="#f9c6a2"/><path d="M334.94 669.93H226.48a8 8 0 0 1-8-8V513.8a8 8 0 0 1 8-8H334.94a8 8 0 0 1 8 8V662A8 8 0 0 1 334.94 669.93zM234.46 654H327V521.77h-92.5z" fill="#1d1d1b"/><path d="M481.67 736c0-60.1-11.51-166.42-67.53-166.42-16.43.0-52.46-1.83-71.81-14.62-7.53-5-12.32 4.9-18.56 11.43-8.18 8.56-31.1 72.67-46.25 81.34.0.0-34-74.89-46.25-87.72-6.24-6.53-10-13.22-17.51-8.24-19.35 12.79-55.38 14.62-71.81 14.62-56 0-67.53 106.32-67.53 166.42L129.19 903 74.42 1029.45a38.39 38.39.0 0 0 38.28 38.28l125 4.3 205.74-1.11a38.4 38.4.0 0 0 38.28-38.28L426.9 906.15z" fill="#d766a2"/><path d="M237.69 1080l-125.27-4.3h0a46.25 46.25.0 0 1-46-46.25 8 8 0 0 1 .66-3.17l53.58-123.73L66.83 735.29a7.83 7.83.0 0 1-.39-2.44c0-18.9 1.28-67.26 13.08-108 8.78-30.3 26.74-66.42 62.43-66.42 11.1.0 48.75-1 67.41-13.3 12.11-8 20.54 1.45 25.07 6.54.83.92 1.68 1.88 2.6 2.84 10.32 10.8 32.66 57.4 42.83 79.26 7.16-10.59 16.17-30 22.16-42.91 7.86-16.92 12.14-25.94 16-30 1.15-1.21 2.31-2.63 3.53-4.13 4.32-5.29 13.3-16.31 25.19-8.44 18.66 12.34 56.31 13.3 67.41 13.3 35.69.0 53.65 36.12 62.43 66.42 11.8 40.71 13.07 89.07 13.07 108a8.12 8.12.0 0 1-.38 2.44L435.41 905.74 489 1029.47a8 8 0 0 1 .65 3.17 46.31 46.31.0 0 1-46.25 46.25zM82.43 1031a30.34 30.34.0 0 0 30.27 28.74l125.22 4.31 205.43-1.12a30.36 30.36.0 0 0 30.31-28.74L419.58 909.32a8 8 0 0 1-.27-5.61l54.38-168.92C473.52 662 457.85 577.6 414.14 577.6c-15.57.0-54-1.54-75.8-15.68a42.57 42.57.0 0 0-4.44 5c-1.36 1.67-2.77 3.41-4.36 5.07-2.24 2.38-8.24 15.29-13.05 25.67-13.72 29.54-24.26 50.93-35 57.08a8 8 0 0 1-11.22-3.62c-12.93-28.48-36.52-76.88-44.76-85.51-1.05-1.1-2-2.19-3-3.25a38.29 38.29.0 0 0-4-4.09l-.38.24c-21.76 14.39-60.55 15.95-76.21 15.95-20.7.0-36.56 18.47-47.12 54.91-11 37.89-12.38 83.26-12.43 102.28l54.38 168.92a8 8 0 0 1-.27 5.61z" fill="#3f3f3e"/><path d="M98.89 1068.84V770.7c0-21.21-15-38.4-33.5-38.4S31.9 749.49 31.9 770.7v298.14z" fill="#f9c6a2"/><path d="M98.89 1076.81h-67a8 8 0 0 1-8-8V770.69c0-25.56 18.61-46.36 41.47-46.36s41.47 20.8 41.47 46.36v298.15A8 8 0 0 1 98.89 1076.81zm-59-16h51V770.69c0-16.77-11.45-30.41-25.52-30.41s-25.52 13.64-25.52 30.41z" fill="#1d1d1b"/><path d="M535.9 1065.65V767.51c0-21.21-15-38.4-33.5-38.4s-33.49 17.19-33.49 38.4v298.14z" fill="#f9c6a2"/><path d="M535.9 1073.62h-67a8 8 0 0 1-8-8V767.5c0-25.56 18.6-46.36 41.46-46.36s41.47 20.8 41.47 46.36v298.15A8 8 0 0 1 535.9 1073.62zm-59-15.95h51V767.5c0-16.77-11.44-30.41-25.52-30.41s-25.51 13.64-25.51 30.41z" fill="#1d1d1b"/><path d="M148.9 568.8S33.49 561.65 20.73 663.72L8 765.8l111.65-9.57L126 651" fill="#d766a2"/><path d="M8 773.77a8 8 0 0 1-7.91-9L12.82 662.73c13.53-108.25 135.34-102 136.57-101.88a8 8 0 1 1-1 15.91c-.44.0-28.07-1.49-56.55 8.89-37.08 13.51-58.34 40.11-63.21 79.06L17.11 757l95-8.14 6-98.39a8 8 0 1 1 15.92 1l-6.38 105.26a8 8 0 0 1-7.28 7.46L8.66 773.74z" fill="#3f3f3e"/><path d="M422.66 572s115.4-7.15 128.16 94.92L563.58 769l-111.64-9.57-6.38-105.27" fill="#d766a2"/><path d="M563.58 777h-.68l-111.64-9.57A8 8 0 0 1 444 759.9L437.6 654.63a8 8 0 1 1 15.92-1l6 98.39 95 8.14-11.54-92.3c-4.89-39.11-26.31-65.76-63.66-79.22a157.79 157.79.0 0 0-56.1-8.73 8 8 0 1 1-1-15.91c1.24-.09 123-6.37 136.58 101.88L571.49 768a8 8 0 0 1-7.91 9z" fill="#3f3f3e"/><ellipse cx="286.68" cy="320.81" rx="179.93" ry="212.13" fill="#f9c6a2"/><path d="M286.68 540.91c-103.61.0-187.9-98.73-187.9-220.1s84.29-220.1 187.9-220.1 187.9 98.74 187.9 220.1S390.29 540.91 286.68 540.91zm0-424.25c-94.82.0-172 91.58-172 204.15S191.86 525 286.68 525s172-91.59 172-204.16S381.49 116.66 286.68 116.66z" fill="#1d1d1b"/><path d="M75.91 280.94c0 1.93-3.28 2-4.91 3.06 2.31 8.61 1.69 17.72 3 26.54s5.22 18.15 13.29 21.95c5.18 2.44 11.18 2.18 16.87 1.65a209.12 209.12.0 0 0 122-55 209.05 209.05.0 0 0 63-118.1s6.85-75.77-9.1-85.34S75.91 117.19 75.91 280.94z" fill="#d78929"/><path d="M97.79 342.46a32.17 32.17.0 0 1-13.91-2.75 8 8 0 1 1 6.79-14.43c3.47 1.63 8.38 1.32 12.72.92a199.27 199.27.0 0 0 177.9-166.42A8 8 0 0 1 297 162.34 215.23 215.23.0 0 1 104.89 342.07C102.56 342.3 100.18 342.46 97.79 342.46z" fill="#3f3f3e"/><path d="M497.86 258.61c0 1.93 4.33 2 6.49 3.06-3.06 8.61-2.24 17.72-3.94 26.54s-6.89 18.15-17.54 22c-6.83 2.44-14.74 2.19-22.26 1.65-59.68-4.29-117.25-23.95-161-55s-73.49-73.26-83.11-118.1c0 0-9-75.77 12-85.34S497.86 94.86 497.86 258.61z" fill="#d78929"/><path d="M469.05 320.14c-3.11.0-6.14-.17-9-.38-61.33-4.41-120-24.44-165.07-56.42-45.57-32.31-76.22-76-86.3-122.94a8 8 0 1 1 15.6-3.34c9.23 43 37.62 83.27 79.92 113.27 42.78 30.31 98.53 49.32 157 53.52 6.3.45 13.49.77 19-1.2a8 8 0 0 1 5.37 15A49 49 0 0 1 469.05 320.14z" fill="#3f3f3e"/><circle cx="206.17" cy="326.13" r="63.27" transform="translate(-108.51 102.87) rotate(-22.34)" fill="#45aee3"/><path d="M206.17 397.37a71.24 71.24.0 1 1 71.24-71.24A71.32 71.32.0 0 1 206.17 397.37zm0-126.53a55.29 55.29.0 1 0 55.29 55.29A55.35 55.35.0 0 0 206.17 270.84z" fill="#3f3f3e"/><circle cx="369.91" cy="326.13" r="63.27" transform="translate(-96.21 165.12) rotate(-22.34)" fill="#45aee3"/><path d="M369.91 397.37a71.24 71.24.0 1 1 71.25-71.24A71.32 71.32.0 0 1 369.91 397.37zm0-126.53a55.29 55.29.0 1 0 55.3 55.29A55.36 55.36.0 0 0 369.91 270.84z" fill="#3f3f3e"/><path d="M306.65 334.1a8 8 0 0 1-6.44-3.26c-3-4-6.07-6.14-9.51-6.39-6.32-.55-13.41 5.08-15.58 7.27a8 8 0 0 1-11.4-11.16c1.31-1.34 13.2-13.1 28.06-12 5.71.41 14.05 3 21.3 12.89a8 8 0 0 1-6.43 12.68z" fill="#3f3f3e"/><circle cx="395.43" cy="311.24" r="20.73" fill="#fdfdfc"/><circle cx="227.43" cy="310.18" r="20.73" fill="#fdfdfc"/><path d="M288.27 453.44a116.47 116.47.0 0 1-47.92-10.66 8 8 0 0 1 7.12-14.27c.58.29 44.45 21.44 81.4-2.73a8 8 0 0 1 8.72 13.36A88.81 88.81.0 0 1 288.27 453.44z" fill="#3f3f3e"/><path d="M267.84 468.08s18.07 5.31 36.15.0" fill="#934419"/><path d="M286.58 478.41a81.14 81.14.0 0 1-21-2.68 8 8 0 0 1 4.48-15.31c.27.08 16.24 4.55 31.67.0a8 8 0 0 1 4.5 15.3A70 70 0 0 1 286.58 478.41z" fill="#3f3f3e"/><path d="M533.77 208.63 44.66 209.7 66.99 134.74 513.57 135.8 533.77 208.63z" fill="#d766a2"/><path d="M44.66 217.67A8 8 0 0 1 37 207.42l22.32-75a8 8 0 0 1 7.65-5.7h0l446.58 1.07a8 8 0 0 1 7.66 5.84l20.21 72.83a8 8 0 0 1-7.67 10.11L44.68 217.67zm28.27-74.94-17.57 59 467.93-1L507.5 143.76z" fill="#3f3f3e"/><path d="M151.93 141.15c-1.35 23.55-23.54 45.52-23.54 45.52S106.31 163.93 104 140.46c-2.43-24.66 5.56-39.25 24.39-39.22C146.75 101.27 153.32 116.84 151.93 141.15z" fill="#e44488"/><path d="M128.39 191.46h0A4.8 4.8.0 0 1 125 190c-.94-1-23.26-24.23-25.71-49.08-1.61-16.28 1.08-28.39 8-36 5.11-5.63 12.21-8.48 21.11-8.48h.07c8 0 14.51 2.6 19.31 7.69 7 7.37 10 19.92 9 37.27-1.44 25.1-24 47.71-25 48.66A4.79 4.79.0 0 1 128.39 191.46zM128.33 106c-6.18.0-10.76 1.74-14 5.34-4.94 5.44-6.86 15.33-5.55 28.61 1.59 16.14 13.67 32.36 19.68 39.54 6-7 17.8-22.64 18.71-38.64h0c.83-14.42-1.39-24.85-6.4-30.17-3-3.14-7-4.67-12.37-4.68z" fill="#3f3f3e"/><path d="M103.75 232.2c1.35-23.55 23.55-45.52 23.55-45.52s22.07 22.74 24.38 46.22c2.43 24.66-5.55 39.24-24.38 39.21C108.93 272.08 102.37 256.51 103.75 232.2z" fill="#e44488"/><path d="M127.36 276.9h-.07c-8 0-14.52-2.6-19.32-7.69-7-7.38-10-19.93-9-37.28 1.43-25.1 24-47.7 25-48.65a4.79 4.79.0 0 1 3.37-1.39h0a4.8 4.8.0 0 1 3.39 1.45c1 1 23.26 24.23 25.71 49.09 1.61 16.28-1.08 28.39-8 36C143.35 274 136.25 276.9 127.36 276.9zm-.12-83.06c-6 7-17.79 22.63-18.71 38.64h0c-.82 14.42 1.39 24.85 6.4 30.16 3 3.15 7 4.68 12.37 4.69h.06c6.17.0 10.75-1.75 14-5.34 4.94-5.44 6.86-15.34 5.55-28.62C145.33 217.23 133.26 201 127.24 193.84z" fill="#3f3f3e"/><path d="M82.32 162.59c23.55 1.35 45.52 23.54 45.52 23.54S105.1 208.2 81.62 210.52C57 213 42.38 205 42.41 186.13 42.44 167.77 58 161.2 82.32 162.59z" fill="#e44488"/><path d="M73.38 215.73c-11.95.0-21.1-2.82-27.28-8.43-5.64-5.13-8.49-12.25-8.48-21.18.0-8 2.6-14.51 7.69-19.31 7.38-7 19.92-10 37.28-9 25.1 1.44 47.7 24 48.65 24.95a4.79 4.79.0 0 1-.07 6.8c-1 .95-24.22 23.27-49.08 25.72Q77.52 215.73 73.38 215.73zm3-48.53c-11.5.0-19.9 2.24-24.49 6.57-3.15 3-4.68 7-4.69 12.37.0 6.19 1.74 10.8 5.34 14.07 5.44 4.94 15.34 6.86 28.62 5.54 16.14-1.58 32.35-13.66 39.53-19.67-7-6-22.63-17.8-38.64-18.71h0C80.08 167.25 78.18 167.2 76.37 167.2z" fill="#3f3f3e"/><path d="M173.37 210.76c-23.56-1.34-45.53-23.54-45.53-23.54s22.74-22.07 46.22-24.38c24.66-2.44 39.25 5.55 39.22 24.38C213.25 205.59 197.68 212.15 173.37 210.76z" fill="#e44488"/><path d="M179.31 215.73c-2 0-4.07-.07-6.22-.19-25.1-1.43-47.7-24-48.65-24.95a4.79 4.79.0 0 1 .07-6.8c1-.95 24.23-23.27 49.08-25.72 16.28-1.59 28.39 1.09 36 8 5.64 5.12 8.5 12.24 8.48 21.17.0 8-2.6 14.52-7.69 19.32C203.9 212.65 193.47 215.72 179.31 215.73zM135 187.27c7 6 22.63 17.8 38.64 18.71h0c14.42.85 24.85-1.38 30.17-6.39 3.14-3 4.67-7 4.68-12.38.0-6.19-1.73-10.8-5.34-14.07-5.44-4.93-15.33-6.85-28.62-5.54C158.35 169.19 142.16 181.26 135 187.27z" fill="#3f3f3e"/><path d="M176.38 170.47C158.77 186.17 127.54 186 127.54 186S128 154.32 143 136.08c15.72-19.15 31.68-23.82 45-10.48C200.92 138.6 194.55 154.26 176.38 170.47z" fill="#e44488"/><path d="M127.62 190.8h-.1a4.8 4.8.0 0 1-4.76-4.86c0-1.36.68-33.58 16.52-52.89 10.38-12.65 20.84-19.31 31.1-19.81 7.6-.31 14.66 2.66 21 9 5.66 5.68 8.43 12.11 8.22 19.1-.29 10.14-7 21.15-20 32.72h0C161.14 190.47 130 190.8 127.62 190.8zm44-68c-.25.0-.5.0-.75.0-7.34.35-15.69 6-24.16 16.31-10.29 12.53-13.21 32.54-14 41.87 9.16-.7 28.59-3.42 40.55-14.09h0C184 157.28 189.78 148.34 190 141c.13-4.32-1.65-8.27-5.44-12.06C180.42 124.82 176.17 122.79 171.59 122.79z" fill="#3f3f3e"/><path d="M77.53 201.62c17.61-15.71 48.84-15.55 48.84-15.55s-.47 31.69-15.44 49.93c-15.71 19.15-31.68 23.82-45 10.48C53 233.48 59.36 217.83 77.53 201.62z" fill="#e44488"/><path d="M82.3 258.87c-7.14.0-13.77-3-19.73-9-5.66-5.68-8.43-12.1-8.22-19.1.3-10.13 7-21.14 20-32.71h0C93.12 181.3 125 181.24 126.4 181.29a4.78 4.78.0 0 1 3.39 1.43 4.87 4.87.0 0 1 1.37 3.42c0 1.37-.68 33.59-16.53 52.89-10.37 12.65-20.83 19.31-31.09 19.81zm39-67.78c-9.16.7-28.59 3.43-40.55 14.1h0c-10.78 9.61-16.59 18.55-16.8 25.86-.13 4.32 1.65 8.26 5.43 12.06 4.37 4.39 8.87 6.4 13.73 6.17 7.33-.36 15.69-6 24.15-16.32C117.52 220.43 120.45 200.42 121.27 191.09z" fill="#3f3f3e"/><path d="M142.53 235.46c-15.7-17.6-15.54-48.83-15.54-48.83s31.69.47 49.92 15.43c19.16 15.72 23.83 31.68 10.49 45C174.39 260 158.74 253.64 142.53 235.46z" fill="#e44488"/><path d="M172.4 258.66h-.72c-10.14-.3-21.15-7-32.72-20h0C122.23 219.88 122.2 188 122.2 186.6a4.81 4.81.0 0 1 1.44-3.39 4.87 4.87.0 0 1 3.42-1.37c1.36.0 33.58.68 52.89 16.53 12.64 10.37 19.31 20.83 19.8 31.09.37 7.61-2.65 14.66-9 21C185.29 255.89 179.12 258.66 172.4 258.66zm-26.3-26.38c9.62 10.78 18.56 16.59 25.86 16.8 4.35.18 8.27-1.65 12.06-5.43 4.39-4.38 6.41-8.87 6.17-13.73-.35-7.34-6-15.69-16.31-24.16-12.53-10.28-32.54-13.21-41.87-14 .7 9.16 3.42 28.58 14.09 40.55z" fill="#3f3f3e"/><path d="M111.38 136.62c15.7 17.61 15.55 48.84 15.55 48.84S95.24 185 77 170c-19.16-15.72-23.82-31.68-10.48-45C79.52 112.08 95.17 118.45 111.38 136.62z" fill="#e44488"/><path d="M126.92 190.24h-.07c-1.36.0-33.58-.68-52.89-16.53-12.64-10.37-19.3-20.83-19.8-31.09-.37-7.61 2.65-14.66 9-21 5.68-5.66 12.09-8.38 19.09-8.23 10.14.3 21.15 7 32.72 20h0c16.73 18.76 16.77 50.69 16.76 52a4.8 4.8.0 0 1-4.79 4.76zM81.52 123c-4.15.0-8 1.79-11.63 5.44-4.39 4.38-6.41 8.87-6.17 13.73.35 7.34 6 15.69 16.31 24.16 12.54 10.28 32.54 13.21 41.87 14-.69-9.16-3.42-28.59-14.09-40.56C98.2 129 89.26 123.22 82 123z" fill="#3f3f3e"/><path d="M144.63 187A17.6 17.6.0 1 1 127 169.4 17.59 17.59.0 0 1 144.63 187z" fill="#ffea00"/><path d="M127 209.38A22.39 22.39.0 1 1 149.42 187 22.41 22.41.0 0 1 127 209.38zm0-35.2A12.82 12.82.0 1 0 139.85 187 12.82 12.82.0 0 0 127 174.18z" fill="#3f3f3e"/><path d="M133.74 179.91 135.84 186.24 142.49 188.67 135.84 191.2 133.74 197.42 131.63 191.35 124.98 188.67 131.33 186.24 133.74 179.91z" fill="#fdfdfc"/><path d="M142.63 174.62 144.21 179.35 149.18 181.17 144.21 183.06 142.63 187.71 141.06 183.18 136.09 181.17 140.83 179.35 142.63 174.62z" fill="#fdfdfc"/></g></g></g></svg>