<svg xmlns="http://www.w3.org/2000/svg" width="1080" height="723.74" viewBox="0 0 1080 723.74"><g id="a"/><g id="b"><g id="c"><g id="d"><path d="M921.95 15.39H111.44c-17.58.0-31.84 14.25-31.84 31.83V175.68h13.8V74.05c0-17.58 14.25-31.83 31.84-31.83H908.15c17.58.0 31.84 14.25 31.84 31.83v101.63h13.79V47.23c0-17.58-14.25-31.83-31.83-31.83z" fill="#bdbdb7"/><path d="M171.47.0H861.92c6.2.0 11.23 5.03 11.23 11.23V47.6c0 6.2-5.03 11.23-11.23 11.23H171.47c-6.2.0-11.23-5.03-11.23-11.23V11.23c0-6.2 5.03-11.23 11.23-11.23z" fill="#242423"/><path d="M795.19 122.81h90.08v17.97H795.19z" fill="#bdbdb7"/><path d="M248.18 138.53h13.48v32.58H248.18z" fill="#d62839"/><path d="M286.02 138.53h13.48v32.58H286.02z" fill="#242423"/><g><path d="M381.7 143.31h57.7v23.03H381.7z" fill="#6b6b6b"/><path d="M452.46 143.31h57.7v23.03H452.46z" fill="#6b6b6b"/><path d="M523.23 143.31h57.7v23.03H523.23z" fill="#6b6b6b"/><path d="M593.99 143.31h57.7v23.03H593.99z" fill="#6b6b6b"/></g><path d="M777.03 133.03h126.39v47.35H777.03z" fill="#6b6b6b"/><path d="M1060.88 257.9H1080v29.21H1060.88z" fill="#6b6b6b"/><path d="M1019.35 228.7h50.55v87.61H1019.35z" fill="#242423"/><rect y="162.12" width="1033.39" height="561.62" rx="11.23" ry="11.23" fill="#f5cb5c"/><path d="M381.7 143.31h57.7v6.83H381.7z" fill="#bdbdb7"/><path d="M452.46 143.31h57.7v6.83H452.46z" fill="#bdbdb7"/><path d="M523.23 143.31h57.7v6.83H523.23z" fill="#bdbdb7"/><path d="M593.99 143.31h57.7v6.83H593.99z" fill="#bdbdb7"/><g><path d="M0 416.58h346.22v196.47H0z" fill="#d62839"/><path d="M685.34 416.58h348.05v196.47H685.34z" fill="#d62839"/></g><circle cx="173.66" cy="514.82" r="157.25" fill="#cec288"/><path d="M1016.99 514.82c0 86.85-70.41 157.25-157.26 157.25s-157.25-70.41-157.25-157.25 70.41-157.25 157.25-157.25 157.26 70.41 157.26 157.25z" fill="#cec288"/><path d="M199.02 204.8h635.35v76.38H199.02z" fill="#4281a4"/><circle cx="173.66" cy="514.82" r="139.64" fill="#242423"/><g><path d="M72.1 406.63c1.83 1.83 1.84 4.8.0 6.63-1.83 1.83-4.81 1.83-6.64.0-1.83-1.83-1.83-4.81.0-6.63 1.83-1.83 4.8-1.83 6.63.0z" fill="#5f5449"/><path d="M65.47 616.38c1.83-1.83 4.8-1.84 6.64.0 1.83 1.83 1.83 4.81.0 6.64-1.83 1.83-4.8 1.83-6.63.0-1.83-1.83-1.83-4.8.0-6.63z" fill="#5f5449"/><path d="M275.22 623.01c-1.83-1.83-1.83-4.81.0-6.64 1.83-1.83 4.8-1.83 6.63.0 1.83 1.83 1.83 4.8.0 6.63-1.83 1.83-4.8 1.83-6.63.0z" fill="#5f5449"/><path d="M281.85 413.26c-1.83 1.83-4.8 1.83-6.63.0-1.83-1.83-1.83-4.81.0-6.63 1.83-1.83 4.8-1.83 6.63.0 1.83 1.83 1.83 4.8.0 6.63z" fill="#5f5449"/></g><circle cx="173.66" cy="514.82" r="36.62" fill="#6b6b6b"/><path d="M999.37 514.82c0 77.12-62.52 139.64-139.64 139.64S720.1 591.94 720.1 514.82s62.51-139.64 139.63-139.64 139.64 62.52 139.64 139.64z" fill="#242423"/><g><path d="M758.17 406.63c1.83 1.83 1.84 4.8.0 6.63-1.84 1.83-4.81 1.83-6.64.0-1.83-1.83-1.83-4.81.0-6.63 1.83-1.83 4.8-1.83 6.63.0z" fill="#5f5449"/><path d="M751.54 616.38c1.83-1.83 4.81-1.84 6.64.0 1.83 1.83 1.83 4.81.0 6.64-1.83 1.83-4.8 1.83-6.63.0-1.83-1.83-1.83-4.8.0-6.63z" fill="#5f5449"/><path d="M961.29 623.01c-1.83-1.83-1.83-4.81.0-6.64 1.83-1.83 4.8-1.83 6.63.0 1.83 1.83 1.83 4.8.0 6.63-1.83 1.83-4.8 1.83-6.63.0z" fill="#5f5449"/><path d="M967.92 413.26c-1.83 1.83-4.8 1.83-6.63.0-1.83-1.83-1.83-4.81.0-6.63 1.83-1.83 4.8-1.83 6.63.0 1.83 1.83 1.83 4.8.0 6.63z" fill="#5f5449"/></g><path d="M896.35 514.82c0 20.22-16.4 36.62-36.62 36.62s-36.61-16.39-36.61-36.62 16.39-36.62 36.61-36.62 36.62 16.39 36.62 36.62z" fill="#6b6b6b"/><path d="M207.7 213.48h617.99v59.02H207.7z" fill="#fffae2"/><path d="M996.65 242.99c0 30.4-24.64 55.04-55.04 55.04s-55.04-24.64-55.04-55.04 24.64-55.04 55.04-55.04 55.04 24.64 55.04 55.04z" fill="#242423"/><path d="M941.61 283.99c-22.61.0-41-18.39-41-41S919 202 941.61 202s41 18.39 41 40.99-18.39 41-41 41zm0-76.38c-19.51.0-35.38 15.87-35.38 35.38s15.87 35.39 35.38 35.39 35.38-15.87 35.38-35.39-15.87-35.38-35.38-35.38z" fill="#cec288"/><path d="M146.82 242.99c0 30.4-24.64 55.04-55.04 55.04s-55.04-24.64-55.04-55.04 24.64-55.04 55.04-55.04 55.04 24.64 55.04 55.04z" fill="#242423"/><path d="M91.78 283.99c-22.61.0-41-18.39-41-41S69.17 202 91.78 202s41 18.39 41 40.99-18.39 41-41 41zm0-76.38c-19.51.0-35.38 15.87-35.38 35.38s15.87 35.39 35.38 35.39 35.38-15.88 35.38-35.39-15.87-35.38-35.38-35.38z" fill="#cec288"/><path d="M370.11 318.81h293.17v193.2H370.11z" fill="#242423"/><path d="M370.11 528.86h293.17v83.33H370.11z" fill="#242423"/><g><path d="M370.11 640.06h40.44v42.68H370.11z" fill="#242423"/><path d="M420.66 640.06h40.44v42.68H420.66z" fill="#242423"/><path d="M471.2 640.06h40.44v42.68H471.2z" fill="#242423"/><path d="M521.75 640.06h40.44v42.68H521.75z" fill="#242423"/><path d="M572.29 640.06h40.44v42.68H572.29z" fill="#242423"/><path d="M622.84 640.06h40.44v42.68H622.84z" fill="#242423"/></g><path d="M415.6 366.68h202.18v90.29H415.6z" fill="#cec288"/><path d="M426.84 377.91h179.72v67.82H426.84z" fill="#5f5449"/><g><path d="M474 411.83c0 5.49-4.45 9.95-9.95 9.95s-9.95-4.46-9.95-9.95 4.45-9.95 9.95-9.95 9.95 4.46 9.95 9.95z" fill="#242423"/><path d="M579.29 411.83c0 5.49-4.45 9.95-9.95 9.95s-9.95-4.46-9.95-9.95 4.46-9.95 9.95-9.95 9.95 4.46 9.95 9.95z" fill="#242423"/></g><path d="M399.88 559.19h118.39v23.59H399.88z" fill="#4281a4"/><path d="M584.98 549.75h48.53v42.46H584.98z" fill="#4281a4"/><path d="M595.65 553.38h27.19v35.2H595.65z" fill="#6b6b6b"/><path d="M543.43 558.51h24.94v24.94H543.43z" fill="#d62839"/><g><path d="M370.11 640.06h40.44v11.58H370.11z" fill="#6b6b6b"/><path d="M420.66 640.06h40.44v11.58H420.66z" fill="#6b6b6b"/><path d="M471.2 640.06h40.44v11.58H471.2z" fill="#6b6b6b"/><path d="M521.75 640.06h40.44v11.58H521.75z" fill="#6b6b6b"/><path d="M572.29 640.06h40.44v11.58H572.29z" fill="#6b6b6b"/><path d="M622.84 640.06h40.44v11.58H622.84z" fill="#6b6b6b"/></g><path d="M687.16 705.21H346.22V296.35h340.94v408.86zm-337.57-3.37h334.2V299.72H349.59v402.12z" fill="#5f5449"/><path d="M222.52 228.2h320.91v2.62H222.52z" fill="#242423"/><path d="M222.52 241.68h320.91v2.62H222.52z" fill="#242423"/><path d="M307.32 222.77h2.62v40.43H307.32z" fill="#d62839"/><path d="M222.52 255.16h320.91v2.62H222.52z" fill="#242423"/><path d="M103.94 242.99c0 6.72-5.45 12.17-12.17 12.17s-12.17-5.45-12.17-12.17 5.45-12.17 12.17-12.17 12.17 5.45 12.17 12.17z" fill="#6b6b6b"/><path d="M953.78 242.99c0 6.72-5.45 12.17-12.17 12.17s-12.17-5.45-12.17-12.17 5.45-12.17 12.17-12.17 12.17 5.45 12.17 12.17z" fill="#6b6b6b"/><path d="M657.1 262.65h0c0-21.71-17.6-39.32-39.31-39.32s-39.31 17.6-39.31 39.32h78.63z" fill="#4281a4"/><path d="M777.03 262.65h0c0-21.71-17.6-39.32-39.31-39.32s-39.31 17.6-39.31 39.32h78.62z" fill="#4281a4"/><path d="M619.59 268.39 596.41 241.09 623.72 264.26 619.59 268.39z" fill="#d62839"/><path d="M732.75 266.72 749.81 235.23 738.1 269.08 732.75 266.72z" fill="#d62839"/><g><path d="M595.65 556.66h27.19v2.47H595.65z" fill="#bdbdb7"/><path d="M595.65 561.89h27.19v2.47H595.65z" fill="#bdbdb7"/><path d="M595.65 567.12h27.19v2.48H595.65z" fill="#bdbdb7"/><path d="M595.65 572.36h27.19v2.48H595.65z" fill="#bdbdb7"/><path d="M595.65 577.6h27.19v2.48H595.65z" fill="#bdbdb7"/><path d="M595.65 582.83h27.19v2.48H595.65z" fill="#bdbdb7"/></g><g><path d="M370.11 647.36h40.44v4.28H370.11z" fill="#bdbdb7"/><path d="M420.66 647.36h40.44v4.28H420.66z" fill="#bdbdb7"/><path d="M471.2 647.36h40.44v4.28H471.2z" fill="#bdbdb7"/><path d="M521.75 647.36h40.44v4.28H521.75z" fill="#bdbdb7"/><path d="M572.29 647.36h40.44v4.28H572.29z" fill="#bdbdb7"/><path d="M622.84 647.36h40.44v4.28H622.84z" fill="#bdbdb7"/></g></g></g></g></svg>