<svg xmlns="http://www.w3.org/2000/svg" width="1080" height="720.19" viewBox="0 0 1080 720.19"><g id="Слой_2" data-name="Слой 2"><g id="Hippy02_562893494"><g id="Hippy02_562893494-2" data-name="Hippy02_562893494"><path d="M136 453.42s127.4-134.61 198.11-178.55 182.33-147.4 333-109.72 327.08 278.74 353.07 310.5 53.66 42.84 40.86 63.27c-6.3 10.06-32.06 15.15-59.48 24.67-28.27 9.82-58.41 24-77.07 30.44-36.77 12.69-216.21 93.54-434.68 61.16C233.17 617.14 136 453.42 136 453.42z" fill="#42b1e6"/><path d="M995.26 443.9s16 63.91-3 89-75.11 64.23-75.11 64.23 67.32-30.49 84.51-33.53 63.52-14.3 62.06-32.66S995.26 443.9 995.26 443.9z" fill="#f65831"/><path d="M414.87 229.19s-61.52 66.67-30.78 198.21 90.54 206 230.14 226.69C739.85 672.71 856 557.36 876.62 465.52s-10.84-167.88-10.84-167.88S743.61 179.84 653 163.34s-238.13 65.85-238.13 65.85z" fill="#f65831"/><path d="M643.58 456.1c-1.77 2.53-29.35 198-29.35 198l111.36-17L676.65 477.74z" fill="#ff8871"/><path d="M614.4 474.1 539.94 637.49 501.4 615S572.67 463.73 577 463 614.4 474.1 614.4 474.1z" fill="#ff8871"/><path d="M457.22 576.93l92.09-125-15.12-20.38-121.44 80.7S430.33 554 457.22 576.93z" fill="#ff8871"/><path d="M546.43 405.41 382.62 446.72s-12.23-49.26-9.9-83.8l169.57 14z" fill="#ff8871"/><path d="M542.7 336.48 383.85 287.82 420.89 220.88 552.61 307.25 548.16 337.29 542.7 336.48z" fill="#ff8871"/><path d="M524.28 172.77l56.15 116.28L604.09 280 621.7 161.23S551.53 162.34 524.28 172.77z" fill="#ff8871"/><path d="M671.51 267.67 685.17 171.33 765.8 213.31 704.38 290.68 671.51 267.67z" fill="#ff8871"/><path d="M745.64 313.54 809.33 246.42 872.03 298.78 754.7 337.21 745.64 313.54z" fill="#ff8871"/><path d="M887.09 366.6 763.85 379l-4.46 30 118.5 50.4S892.3 378.54 887.09 366.6z" fill="#ff8871"/><path d="M740.07 445.28 849.15 528.43 802.97 585.78 721.36 477.39 740.07 445.28z" fill="#ff8871"/><path d="M134.8 454.34C169.41 510 220.78 555.22 277 588.25c62.21 36.58 132.45 59.47 203.64 70.33 82.53 12.58 167.09 9.79 249.23-4.27a982.58 982.58.0 0 0 136.6-33.87q35.43-11.46 70-25.37 17.42-7 34.58-14.54 9.13-4 18.2-8.19c4-1.87 7.83-4.17 12.18-5.1 14.29-3.07 28.8-5.54 42.62-10.47 12.68-4.52 26.42-12 24.3-27.63-1.28-9.35-7.63-16.66-14.06-23.09-3.54-3.52-7.27-6.85-10.91-10.26a99.54 99.54.0 0 1-12.51-14.3q-21.87-30-44.59-59.41C937.12 358.86 884.52 296.92 823.1 245.21c-43.43-36.56-92.48-68.13-147.72-83.13C627 149 576.64 151.22 528.73 165c-57.72 16.62-110.58 48-159.45 82.2-65.76 46.1-126.39 99.37-185.47 153.62-17.18 15.78-33.89 32-50.83 48-5.34 5 1.48 14.36 6.87 9.26 61.52-58.17 124.59-115.5 191.51-167.45 49.7-38.57 102.43-75 160.67-99.5 45.18-19 94.09-29.72 143.18-24.22 51.38 5.76 98.93 28.26 140.94 57.62C834.4 265.27 884 317.65 929.7 371.7c29.64 35.07 57.76 71.42 85 108.37 3.55 4.82 7 9.76 10.62 14.5s8.35 8.76 12.74 12.81c6.27 5.78 14.7 12.09 17.6 20.47 2.08 6 .82 8.79-3.84 12-5.57 3.88-12.47 6-18.92 8-7.22 2.17-14.59 3.79-22 5.33-5.89 1.23-12.31 1.93-17.85 4.3-23.13 9.92-45.77 20.75-69.2 30a1028.71 1028.71.0 0 1-135.33 43.19c-82.22 19.89-167.48 29.17-252 23.35-73-5-145.55-21-212.24-51.45-59.44-27.14-114.23-65.69-157.06-115.28-10-11.54-19.47-23.6-28.42-35.94-1.92-2.65-5.71.28-4 3z" fill="#070707"/><path d="M911.51 596.62c29-11.6 57.66-28.17 75.38-54.7a99.68 99.68.0 0 0 15.4-37.3 97.8 97.8.0 0 0-1.37-41.08 133.1 133.1.0 0 0-8.76-24.72c-2.06-4.39-4.35-8.66-6.81-12.85-2.62-4.47-5.19-9-9.06-12.51-2.92-2.65-7.29 1-5.95 4.42 1.67 4.24 4.37 7.92 6.69 11.82 2 3.31 3.74 6.6 5.49 10.13a132 132 0 0 1 8.42 21.06 92.7 92.7.0 0 1 2.34 9.49c.65 3.29 1.14 6.62 1.46 10s.53 6.49.55 9.75c0 1.35.0 2.08-.09 3.88s-.22 3.32-.4 5a89.19 89.19.0 0 1-1.54 9.32 69.17 69.17.0 0 1-2.36 8.45 95.51 95.51.0 0 1-8 17.34c-6.66 11.37-16.29 22.09-26.55 30.84a203.88 203.88.0 0 1-20.47 15.6 206.74 206.74.0 0 1-25.26 13.93 1.19 1.19.0 0 0 .88 2.2z" fill="#070707"/><path d="M135.34 454.72c11.58 36.8 28.81 71.42 52.12 102.21a349.39 349.39.0 0 0 78.89 75.34c63.33 44.17 138.59 68.89 214.48 80.27 85.37 12.81 172.63 9.9 256.37-11.54 37.09-9.49 73.25-22.2 108.57-37 27.85-11.64 55.07-24.67 82.51-37.23 12-5.47 24-10.75 36.3-15.32 20.57-7.62 41.65-13.71 62.39-20.83 21.37-7.34 63.24-21.4 50.75-52-3.21-7.88-8.51-14.7-14.15-21-1.67-1.85-4.79.36-3.17 2.35 8.19 10 19.25 25.35 11.31 38.54-7 11.72-23.07 17.29-35.12 21.85-19.24 7.28-39.11 12.75-58.58 19.36-14.38 4.89-28.49 10.38-42.35 16.58-25.62 11.47-50.81 23.85-76.52 35.12-32.92 14.42-66.53 27.32-101 37.56a613.44 613.44.0 0 1-124.36 23.82c-42 3.46-84.56 2.24-126.46-2.36-75.47-8.29-150.88-29-216.26-68.41C227.89 604 176.84 548 147.84 479.91q-5.49-12.9-10-26.21c-.57-1.69-3.08-.66-2.55 1z" fill="#070707"/><path d="M1055 509.93c-9.45-22.6-21.28-44.09-32.59-65.8s-22.57-43.08-34.19-64.43C966 338.88 942.77 298.53 917 259.84 869.2 188.2 810.79 121.16 734.32 79.37a354.36 354.36.0 0 0-57.86-25.26c-21-7-43.11-13-65.25-14.69-45.5-3.37-91.45-.64-135.94 9.72-94.42 22-178 76.21-245.29 144.94-33.16 33.88-63.2 70.64-92.33 108C112.89 333.82 89.1 366.4 63.2 397.24c-4.9 5.83-9.9 11.57-15.08 17.16-2.1 2.26-1.48 6.39.9 8.19 24.91 18.81 55.92 32.61 86.77 37.19 7.17 1.07 8.81-10 1.65-11.14-28.7-4.64-57.87-17.58-81.13-35.14l.9 8.19c24.6-26.52 46.08-55.95 68.1-84.61 28-36.46 56.31-72.78 86.9-107.14 31.48-35.34 65.47-68 104.1-95.5 39.56-28.12 82.77-51 129-66 42.73-13.81 87.57-20.3 132.44-20.19 11.16.0 22.33.51 33.46 1.33 11.36.83 22.51 3.17 33.58 5.81a348.36 348.36.0 0 1 60.24 20.36C783 110.28 843.8 172.36 893.42 240.28c55.15 75.51 98.15 159.09 141.49 241.68 5.34 10.17 11 20 17.14 29.64 1.07 1.66 3.74.12 3-1.67z" fill="#070707"/><path d="M137.4 453.63C48 454.33.0 335.58.0 335.58c74.36 56.83 136.84 74.71 210.18 50.69z" fill="#070707"/><path d="M228 369.38c-41.93 28.67-125.93 2.27-163-77.19L51.17 262.9s147.82 100.84 221.18 66z" fill="#070707"/><path d="M280.78 324.17C199.14 346.89 139 269 130.37 187l-.16-.29c67.69 84.69 138.44 106.34 213.13 82.53z" fill="#070707"/><path d="M343.34 269.26c-88.75-13.16-101.79-94.63-91.85-166.42l-.53-.13c14 76 108 127 157.63 121.8z" fill="#070707"/><path d="M416.22 220.06C312.71 155.87 401.5 13.44 401.5 13.44 391.4 114.51 413.67 150 490.42 180.82z" fill="#070707"/><path d="M506.85 173.49C465 107.28 512.3 28.47 555.59.0l-.45.07c-29.48 37-10 131.65 15.23 159.11z" fill="#070707"/><path d="M667.17 165.15c-27.86-47.38-8-116.64 18-154.32l.61-.24c-49.73 24-93.81 91.87-77.11 144.5z" fill="#070707"/><path d="M747.22 199.35c-2.39-37.86-8.46-98.24 27.5-143.15-46.3 6.4-89.27 72.43-89 115.88z" fill="#070707"/><path d="M837.29 260.14C824.76 214.75 824 157 858.77 110.53l.23.6c-46.33 4.42-90.09 67.1-78.5 108.5z" fill="#070707"/><path d="M901 333.23c-6.51-32.36 3-101.64 16.84-131.62l-.49-.25c-27.72 19.5-62.25 51.65-58.71 84.27z" fill="#070707"/><path d="M412.82 217.48c-25.23 32.89-38.89 74.07-43.67 114.94-4.93 42-.65 84.84 11.08 125.43a316 316 0 0 0 23.12 58c9.34 18 20.35 35.69 33.77 50.93 24.13 27.41 52.8 50.76 85.45 67.31a245.89 245.89.0 0 0 92.71 26 249.23 249.23.0 0 0 92.6-10.8 255.36 255.36.0 0 0 81.43-43.08 261 261 0 0 0 62.84-72c17.25-29.12 28.55-61.61 34.12-95 6.3-37.72 5.14-76.79-2.45-114.23-2.07-10.21-4.89-20.17-7.67-30.2-.7-2.53-4.07-3.6-6.31-2.7-2.66 1.07-3.4 3.78-2.7 6.31 2.71 9.78 4.62 19.87 6.43 29.84 1.77 9.75 3.2 19.56 4.21 29.41a303.88 303.88.0 0 1 .89 54.9c-2.6 34.16-10.77 65.81-25.64 96.49q-5.22 10.77-11.42 21c.62-1-.26.42-.32.51l-.67 1.1c-.5.8-1 1.6-1.51 2.39-1.1 1.73-2.23 3.44-3.37 5.15q-3.27 4.86-6.76 9.58-6.93 9.35-14.63 18.06-3.83 4.32-7.84 8.46-1.92 2-3.87 3.9L800.85 581c.92-.89-.27.26-.38.36-.48.46-1 .92-1.45 1.37a253.39 253.39.0 0 1-35.8 28q-4.74 3.06-9.62 5.91l-2.12 1.22-1.28.73c1.14-.64-.29.15-.43.23-1.72 1-3.44 1.88-5.18 2.79q-10 5.2-20.37 9.5t-21.11 7.61q-5.24 1.62-10.55 3c-.94.25 1.32-.33-.2.06l-1.42.35q-1.43.36-2.85.69c-1.82.43-3.65.83-5.48 1.22a241.69 241.69.0 0 1-44.46 5.14c-1.81.0-3.61.05-5.42.05h-1.48c-.21.0-1.87.0-.42.0l-3-.06c-3.79-.11-7.59-.31-11.38-.59q-11.44-.88-22.79-2.86c-7.65-1.34-15.24-3.05-22.72-5.13l-1.48-.41c-1.64-.47 1.17.35-.47-.14l-2.45-.74q-3-.9-5.89-1.88c-3.77-1.26-7.52-2.61-11.22-4.06q-11.33-4.41-22.18-9.92-5.53-2.82-10.92-5.89c-1.74-1-3.46-2-5.18-3-1.55-.93 1 .59-.58-.36l-1.41-.86-2.79-1.77A279.58 279.58.0 0 1 465 578.94c-7-6.62-12.48-12.37-18.84-19.64a217.06 217.06.0 0 1-17.68-23.78 294.73 294.73.0 0 1-27.55-52.91 314.13 314.13.0 0 1-22.73-119.52 280.64 280.64.0 0 1 7-59.34 238.81 238.81.0 0 1 8.14-27.95 236.3 236.3.0 0 1 11.89-27.68c4.39-8.62 9.17-17.1 14.39-25.24 1.25-2 1.28-4.5-.67-6.06a4.36 4.36.0 0 0-6.06.66z" fill="#070707"/><path d="M503.69 432c20.06 48.34 71.46 91.15 122.54 94.11 92.69 5.37 135.92-50.35 150.92-110.15 17-67.63-15-145.28-108.47-166.83C549.94 221.74 464.43 344.77 503.69 432z" fill="#070707"/><path d="M635.77 428.59c50.93 18.31 101.38-43.44 60-86.27-22.91-30.22-68.62-19.82-84.56 2.92S588.76 411.69 635.77 428.59z" fill="#fcfcfc"/><path d="M1032.16 491.48c-34.7-67.82-74.75-133.28-121.11-193.77-25.33-33.06-53.17-64.53-85-91.54-32.6-27.67-70.22-48.33-110.57-62.41-86.37-30.12-185.87-30.71-271.11 4-29.3 11.92-56.21 29.84-81.48 48.66-30.69 22.86-59.47 48.25-86.94 74.87a1039.19 1039.19.0 0 0-79.27 85.67c-20.19 24.54-40.06 50.24-55.37 78.19q-4.34 7.94-8.2 16.1c-2.23 4.68 5.13 7.91 7.35 3.25 12.42-26.07 30-50.12 47.55-72.89A1026.56 1026.56.0 0 1 345.5 220.68c25.87-20.93 53.14-40.9 82.79-56.19 35.43-18.27 75.5-28 115-32.29A392.66 392.66.0 0 1 682 142.13c42.32 10.78 83.49 28.73 119 54.29 32.65 23.5 60.65 52.6 86.87 82.93 51.2 59.23 94.12 126 132 194.39Q1025 483 1030 492.34c.69 1.3 2.84.48 2.15-.86z" fill="#070707"/></g></g></g></svg>