<svg xmlns="http://www.w3.org/2000/svg" width="1080" height="451.95" viewBox="0 0 1080 451.95"><g id="Слой_2" data-name="Слой 2"><g id="Hippy07_464519132"><g id="Hippy07_464519132-2" data-name="Hippy07_464519132"><path d="M594.15 452c-4.49.0-9.06-.18-13.53-.39-2.07-.09-4.09-.21-6-.21h-4.13c-16.75.0-30.77-2.39-42.52-6.33a120.42 120.42.0 0 1-37 5.16c-2.85.0-5.7-.07-8.47-.15-1.36.0-2.68-.08-3.94-.08l-2.18.18c-4.75.4-9.64.74-14.43.74a98.6 98.6.0 0 1-32.14-5.08A95.22 95.22.0 0 1 411.22 449c-3.38.24-6.77.36-10.13.36a164.08 164.08.0 0 1-17.95-1c-5.52-.61-10.92-1.46-16.32-2.35-4-.65-7.81-1.27-10.24-1.45-3.63-.27-7.19-.39-10.69-.39-10.18.0-20.93 1-36 3.28a178.54 178.54.0 0 1-27.52 2.29c-20.58.0-39.42-4.42-56-13.16a106.78 106.78.0 0 1-36 10.56 151.08 151.08.0 0 1-17 .93 253.66 253.66.0 0 1-28.28-1.91c-3.42-.38-6.83-.79-10.27-1-1.29-.07-2.62-.09-3.94-.09-5 0-9.95.3-14.92.57l-9 .51c-4.83.31-9.73.58-14.58.58A130 130 0 0 1 78 446a83 83 0 0 1-48.27-22C10.79 406.13-.57 378.47.0 351.76c.38-17.93 5.57-31.83 8.67-40.14l.44-1.16C20.5 279.89 23.61 244.67 19 199.57c-1.18-11.42-2.83-23.69-5-37.5Q12.15 151 9.94 140a89.83 89.83.0 0 1-1.68-16.25l-.13-1.17C1.78 69.22 23.32 33.37 72.18 16 90.71 9.4 115.58 1.83 143.71 1.83c2.52.0 5.06.06 7.6.19A170.87 170.87.0 0 1 211.08 16c12.4-6.59 28.28-11.32 48.34-11.32a183.79 183.79.0 0 1 25.83 2.12l3.06.41c5.38.64 10.78 1.37 16.18 2.11 11.76 1.61 22.87 3.13 31.83 3.13 1.75.0 3.5-.06 5.25-.21.65-.13 4.52-1.15 7.34-1.89 10.79-2.84 25.57-6.72 43.16-6.72a111.23 111.23.0 0 1 33.39 5 88.32 88.32.0 0 1 18.3 8.14c.78.45 1.54.92 2.29 1.39 1.8 1.16 3.55 2.36 5.23 3.63C474.08 7.6 499.43.0 524.75.0a123.51 123.51.0 0 1 69.89 21.63A163.45 163.45.0 0 1 624.4 47.87C653 19.12 689.7 2.93 729 2.93A151.26 151.26.0 0 1 792 17c13-8 30.48-14.19 53.34-14.19A184.21 184.21.0 0 1 871.18 5l3.05.41C879.57 6 885 6.74 890.38 7.48c11.76 1.61 22.86 3.13 31.81 3.13 1.76.0 3.51-.06 5.26-.21.65-.14 4.52-1.15 7.34-1.89C945.58 5.67 960.35 1.79 978 1.79a111 111 0 0 1 33.39 5A89.13 89.13.0 0 1 1029.66 15c.76.46 1.52.92 2.28 1.41 35.17 22.46 48.31 66.91 32.7 110.6a217.89 217.89.0 0 1-22.81 45.81c6.25 16.91 7.17 32.74 7.66 41.41.06 1 .1 1.92.16 2.84l.2.77c2.28 8.9 7 27.25 2.43 49.38.1.16.19.32.28.48a209.16 209.16.0 0 1 24.65 63.42c8.37 39.6-3.66 66.25-15.24 81.61-15.32 20.36-38.36 32.62-64.87 34.53-3.39.24-6.77.35-10.13.35a166.2 166.2.0 0 1-17.94-1c-5.52-.61-10.93-1.46-16.34-2.35-4-.65-7.8-1.27-10.24-1.45-3.63-.27-7.18-.39-10.69-.39-10.16.0-20.92 1-36 3.28a178.82 178.82.0 0 1-27.51 2.29c-20.73.0-39.68-4.5-56.35-13.35-1.51-.8-3-1.64-4.45-2.5A159.75 159.75.0 0 1 738.21 448 164 164 0 0 1 707.52 445a170.39 170.39.0 0 1-44.58-15.22C646.35 443.34 623.57 452 594.15 452z" fill="#1f9eb5"/><path d="M594.15 425.32c-4.09.0-8.25-.17-12.33-.36-2.48-.11-4.91-.24-7.2-.24h-4.13c-17.86.0-31.55-3.3-42-8.3-13.68 6.25-27.43 7.12-37.45 7.12-2.61.0-5.22-.06-7.76-.13-1.6.0-3.17-.09-4.65-.09-2.08.0-3.24.18-4.45.27-4 .35-8.13.64-12.16.64a71.93 71.93.0 0 1-25-4.15 65.71 65.71.0 0 1-6.4-2.72 66.28 66.28.0 0 1-21.28 5.06q-4.12.29-8.22.28a135.75 135.75.0 0 1-15-.87c-5.05-.55-10-1.34-14.94-2.15s-8.95-1.46-12.57-1.73c-4.3-.32-8.5-.46-12.65-.46-11.6.0-23.56 1.07-40 3.59a153 153 0 0 1-23.49 2c-16.32.0-31.07-3.44-43.85-10.23A74.29 74.29.0 0 1 226.65 405a77.08 77.08.0 0 1-39.25 15.69 124.32 124.32.0 0 1-14 .76A228.49 228.49.0 0 1 148 419.66c-3.87-.42-7.75-.87-11.64-1.09-1.8-.11-3.64-.14-5.46-.14-5.46.0-10.91.32-16.36.61l-9.33.52c-4.25.28-8.57.53-12.85.53A102 102 0 0 1 81 419.48C68.07 418 57 413 48 404.61 34.59 392 26.22 371.46 26.64 352.35c.29-13.43 4.33-24.25 7-31.4l.46-1.22c12.84-34.54 16.44-73.58 11.34-122.9-1.23-11.91-2.94-24.66-5.22-39q-1.86-11.6-4.16-23.11a62.6 62.6.0 0 1-1.17-12.69l-.32-2.69c-2.11-17.72-7.06-59.23 46.54-78.3 17.53-6.24 38.68-12.62 62.6-12.62q3.15.0 6.31.16a143 143 0 0 1 57.35 15c1.85.93 3.67 1.91 5.47 2.92 9.95-8.23 24.82-15.29 46.58-15.29a159.12 159.12.0 0 1 22.19 1.87l3.56.47c5.22.62 10.46 1.34 15.71 2.06C313.57 37.39 325.55 39 336.32 39c2.51.0 5-.09 7.53-.31s7.45-1.52 11.84-2.66c9.89-2.61 22.23-5.85 36.38-5.85A84.53 84.53.0 0 1 417.47 34a62.06 62.06.0 0 1 12.79 5.69l1.46.89a57.43 57.43.0 0 1 16.74 16.24c22.6-19.51 49.58-30.21 76.29-30.21a97 97 0 0 1 54.88 17c17 11.6 31.52 27.46 43.76 47.82 25.31-39 63.82-61.88 105.56-61.88 19.59.0 39.15 4.94 58.16 14.68q3.85 2 7.59 4.16c9.81-9.68 25.7-18.94 50.61-18.94a159.41 159.41.0 0 1 22.22 1.88l3.54.47c5.21.62 10.45 1.33 15.7 2.05 12.69 1.74 24.67 3.38 35.43 3.38 2.52.0 5-.09 7.54-.31s7.43-1.52 11.82-2.67c9.91-2.6 22.23-5.84 36.4-5.84a84.63 84.63.0 0 1 25.4 3.81 62.32 62.32.0 0 1 12.8 5.69c.48.29 1 .58 1.44.89 24.86 15.87 33.48 47 22 79.2a191.47 191.47.0 0 1-28.47 52.1c10.16 17 11.25 35.73 11.82 45.61.11 2.09.18 4.11.44 6 .12.64.44 1.69.7 2.74 2.09 8.14 5.59 21.76 2 38.23a60.35 60.35.0 0 1-2.66 8.84c2.5 3.48 4.57 6.8 6.28 9.7a182.63 182.63.0 0 1 21.52 55.38c6.31 29.83-2.2 49.16-10.45 60.11-10.63 14.11-26.79 22.63-45.5 24-2.76.2-5.51.29-8.23.29a136 136 0 0 1-15-.87c-5-.56-10-1.34-14.95-2.15-4.8-.79-9-1.46-12.56-1.73-4.3-.32-8.51-.47-12.66-.47-11.59.0-23.55 1.08-40 3.59a152 152 0 0 1-23.48 2c-16.32.0-31.08-3.45-43.86-10.24a75.12 75.12.0 0 1-15-10.47 133.84 133.84.0 0 1-71.28 20.73 137.06 137.06.0 0 1-25.7-2.45 145.21 145.21.0 0 1-54.26-22.6c-11.6 16.83-32 29.05-64.1 29.05z" fill="#ffca2b"/><path d="M594.15 398.69c-3.69.0-7.45-.16-11.12-.33-2.91-.13-5.74-.27-8.41-.27h-4.13c-22 0-34.53-6.05-41.61-13.85a35.81 35.81.0 0 1-4.24 3.67c-10.77 8-23.64 9-33.64 9-2.38.0-4.74-.06-7.06-.12-1.83-.05-3.64-.1-5.35-.1h-1.86c-1.54.05-3.17.2-4.84.34-3.27.28-6.63.54-9.91.54a45.72 45.72.0 0 1-15.87-2.54 40 40 0 0 1-15-9.8c-4.58 4.84-12.05 9.75-23.73 10.59q-3.18.22-6.32.22a110.69 110.69.0 0 1-12.14-.71c-4.56-.5-9.05-1.23-13.55-2-5.2-.85-10.11-1.66-14.89-2-5-.36-9.83-.54-14.62-.54-12.84.0-26.43 1.21-44 3.9a126.21 126.21.0 0 1-19.46 1.68c-12.08.0-22.34-2.33-31.35-7.12a46.75 46.75.0 0 1-21.26-23.11c-7.83-18.76-.43-36.14 5-48.82 1-2.34 2-4.61 2.78-6.81 4.93-13.35 7.47-29 9.47-43.93a252.42 252.42.0 0 0 2.24-42.48 119.34 119.34.0 0 1-38.63 47.39c-3.38 2.43-6.9 4.66-10.43 6.89-5.47 3.45-10.63 6.71-14.3 10.37A19.93 19.93.0 0 0 183 292.3c1.9 3.37 9 9.64 13.46 13.51 13.46 11.8 33.8 29.62 28 55.68-3.94 17.83-19.31 30.36-40.11 32.7a96.92 96.92.0 0 1-11 .6 204.61 204.61.0 0 1-22.49-1.6c-4.33-.48-8.66-1-13-1.21-2.32-.13-4.65-.18-7-.18-5.93.0-11.87.33-17.8.65l-9.61.54c-3.68.24-7.43.47-11.13.47A72.85 72.85.0 0 1 84 393a30 30 0 0 1-17.73-7.79c-9.23-8.7-13.2-22.83-13-32.27.19-8.95 3-16.56 5.32-22.68l.48-1.28c14.31-38.5 18.39-81.36 12.86-134.9-1.28-12.4-3.05-25.62-5.41-40.41q-1.93-12.12-4.34-24.13a38.19 38.19.0 0 1-.66-8.06v-1.07L61 116.23c-2.49-20.86-2-39 29-50.06 15.39-5.48 33.8-11.08 53.67-11.08 1.67.0 3.34.0 5 .13a116.26 116.26.0 0 1 46.61 12.17 113.8 113.8.0 0 1 23.53 15.93 29.21 29.21.0 0 1 2.87-6.73c5-8.53 15.55-18.7 37.68-18.7A135.32 135.32.0 0 1 278 59.51l4 .53c5.07.61 10.15 1.3 15.25 2 13.6 1.86 26.46 3.62 39 3.62 3.27.0 6.56-.12 9.82-.4 4.76-.41 10.37-1.89 16.31-3.45 8.86-2.33 18.91-5 29.62-5a57.84 57.84.0 0 1 17.41 2.59 34.59 34.59.0 0 1 7.28 3.23c14.85 9.47 19.15 27.79 11.83 48.19a164.61 164.61.0 0 1-39.36 61.64c12.67 7.63 17.53 19.79 19.58 30.93 1.64-11 3.75-21.84 6.35-32.5 10.16-41.75 26.27-72.06 49.28-92.67 18-16.12 39.45-25 60.31-25a69.52 69.52.0 0 1 39.87 12.36c25.56 17.46 44.85 47.66 58.53 91.84a216.94 216.94.0 0 1 15.67-39.61c20-38.61 53.71-61.66 90.13-61.66 15.32.0 30.8 4 46 11.75a133.4 133.4.0 0 1 28.62 19.79 31.57 31.57.0 0 1 4-12.93c5-8.54 15.55-18.7 37.69-18.7a135.78 135.78.0 0 1 18.58 1.62l4 .54c5.07.6 10.16 1.29 15.26 2 13.6 1.86 26.45 3.62 39 3.61 3.28.0 6.55-.11 9.83-.4 4.74-.41 10.36-1.88 16.29-3.44 8.87-2.33 18.92-5 29.64-5a57.73 57.73.0 0 1 17.4 2.59 34.37 34.37.0 0 1 7.28 3.23c14.83 9.46 19.13 27.77 11.84 48.17a164.81 164.81.0 0 1-39.36 61.66c19.18 11.55 20.45 33.46 21.2 46.56.17 2.79.29 5.51.63 8a55 55 0 0 0 1.3 5.79c1.69 6.59 4 15.62 1.75 25.89a29.52 29.52.0 0 1-10.49 17.21c8.08 6.2 13.37 14.12 17.18 20.58a156.12 156.12.0 0 1 18.4 47.34c3.41 16.1 1.5 29.09-5.66 38.6-4.2 5.57-12.14 12.42-26.14 13.43q-3.18.23-6.32.22a110.69 110.69.0 0 1-12.14-.71c-4.56-.5-9.05-1.23-13.55-2-5.2-.85-10.11-1.66-14.89-2-5-.37-9.83-.54-14.63-.54-12.84.0-26.41 1.2-44 3.9a127.33 127.33.0 0 1-19.44 1.68c-12.09.0-22.34-2.33-31.36-7.13a46.74 46.74.0 0 1-21.26-23.1c-.28-.66-.53-1.31-.76-2-20.86 20.6-48.24 32.21-76.71 32.21a110.65 110.65.0 0 1-20.69-2c-30.15-5.76-57.27-23.42-73.12-47.07-.08 3.25-.16 6.52-.27 9.83-.53 16.17-7.74 43.21-50 43.21zm-80.43-72.26c1.57 1.32 3.33 2.67 4.66 3.68a104.41 104.41.0 0 1 8.83 7.33c1 1 1.91 1.95 2.77 3a81.32 81.32.0 0 1 14.08-11.53 47.07 47.07.0 0 0 4.77-3.46 21.21 21.21.0 0 0 3.66-5.23 56.36 56.36.0 0 0-9.06-.71A67.89 67.89.0 0 0 513.72 326.43zM348 266.2s-.3.11-.83.42c-9.82 5.57-14.28 33.55-15.75 42.75a24.32 24.32.0 0 0-.42 3.73c.08.41.16.75.24 1a14.42 14.42.0 0 0 9.19-6.27c.22-.62.89-4 1.33-6.19 1.95-9.69 4.6-22.95 16.58-30l-.54-.33C354.78 269.44 349.73 266.32 348 266.2zm585.88-1.79s-.29.11-.83.41c-9.82 5.58-14.28 33.56-15.74 42.75a20 20 0 0 0-.42 3.73c.07.41.16.76.23 1a14.38 14.38.0 0 0 9.2-6.27c.21-.63.89-4 1.33-6.2 1.94-9.68 4.6-22.95 16.57-30l-.54-.33C940.66 267.65 935.61 264.53 933.88 264.41zM735.07 169.94c-4.29.15-9 4.65-11.28 10.24-11.58 28.66-11.92 62.06-.95 91.64 3.86 10.38 8.2 16.9 13.26 19.94a11.47 11.47.0 0 0 5.44 1.37 9 9 0 0 0 1.56-.13 21.68 21.68.0 0 0-1.5-2.47c-1-1.59-2-3.19-2.87-4.86-5.68-10.64-6.93-21.9-3.52-31.7a32.85 32.85.0 0 1 18.25-19.3 43.32 43.32.0 0 1 8.89-2.77c-15.68-5.29-21.73-15.08-24.06-21.72-4.33-12.31.47-23.32 2-26.94 1.52-3.47 1.25-8.4-.58-11.21C739.05 171 738.11 169.94 735.07 169.94zM404.9 277c0-.67.0-1.33-.07-2-.4.35-.79.68-1.2 1C404.06 276.27 404.48 276.61 404.9 277zm119-110.23c-2.3 1.14-8.71 6.17-16.95 28-8.46 22.36-10.78 48.1-7 54.57a47.45 47.45.0 0 0 7-1.17l2.59-.59c11.16-2.5 21.71-4.86 29.27-10l.53-.41c3.13-2.5 3.55-9.66 1.53-21.46C535.29 182.79 527.23 169.76 523.89 166.72zm297.38 64.14a49.75 49.75.0 0 1 14 4.92q.13-6 0-11.86A46.79 46.79.0 0 1 821.27 230.86zM157.35 153.13c-2 1.78-3.86 5-5.22 9.08-3.35 10.07-3.55 23.23-1.83 34.33q1.74-2.07 3.33-4.2c4.23-5.72 9.37-14.53 9.79-24 .19-6.63-3.39-13.5-5.68-15.42A2.3 2.3.0 0 0 157.35 153.13zm162.84-10a21.41 21.41.0 0 0-.88 3c-1.65 7.33-.27 14.83 2.51 24.55a41.89 41.89.0 0 0 4.3 10.62c2.06 3.29 4.6 4.77 5.45 4.81h.05c4 0 6.37-1.51 12.69-6.13l.56-.41a38.35 38.35.0 0 1-7.79-10.34c-1.49-2.8-2.88-5.67-4.28-8.54-2.89-6-5.62-11.63-9-15.15A10.23 10.23.0 0 0 320.19 143.1zm585.88-1.8a23.45 23.45.0 0 0-.87 3c-1.67 7.36-.27 14.84 2.5 24.56a42.2 42.2.0 0 0 4.3 10.63c2.06 3.28 4.61 4.77 5.46 4.81h0c4 0 6.37-1.51 12.7-6.14l.54-.4A38.3 38.3.0 0 1 923 167.36c-1.47-2.75-2.87-5.61-4.25-8.48-2.91-6-5.64-11.64-9-15.17A10.15 10.15.0 0 0 906.07 141.3z" fill="#eb50b2"/><path d="M205 357.19c-2 8.88-10.08 15.72-22.85 17.16-14.48 1.63-28.71-1.49-43.12-2.31-10.76-.61-21.52.2-32.26.74-6.73.34-13.85 1.15-20.57.39a10.37 10.37.0 0 1-6.27-2.5c-4.12-3.88-6.83-11.8-6.71-17.28.13-6.05 2.45-11.79 4.55-17.46 17.33-46.59 19.08-94.88 14-143.89-1.44-13.89-3.36-27.72-5.56-41.51q-2-12.5-4.48-24.88c-.48-2.41-.11-4.81-.38-7.24C79.2 98.75 76.56 92.16 96.73 85c16.4-5.84 33.48-10.68 51-9.82a95.67 95.67.0 0 1 38.56 10c30.14 15.25 51.37 47.3 53.91 81.4s-13.67 69-41.21 88.73c-9.07 6.48-19.29 11.46-27.21 19.36C137.51 308.91 212.32 324.13 205 357.19zM133.19 155.9c-6.93 20.75-4.08 49.63 3.8 65.5.43.88 6.06 10.25 6.35 10 9.38-8.46 18.81-17 26.35-27.17s13.11-22.24 13.68-35c0-.22.0-.44.0-.66.53-18.13-14.14-44.45-35.44-33.09a20.56 20.56.0 0 0-4.08 2.84C139 142.69 135.55 148.82 133.19 155.9zM991.86 374.17c15.74-1.13 16.37-15.29 13.69-28a137.13 137.13.0 0 0-16.07-41.32c-3.72-6.3-8.11-12.46-14.28-16.37s-14.49-5.16-20.79-1.46c-7.14 4.19-6.45 21.24-10.64 28.76-10.08 18.08-41.64 26.36-46.57-1.14a30.83 30.83.0 0 1 .38-10.22c2.86-18 8.06-47 25.61-57 15.89-9 27.37 4.45 41.07 10.75 7.38 3.39 14.45 2.54 16.24-5.57 1.85-8.39-2.23-16.57-3.34-24.71-1.8-13.31.71-32.33-12.42-40.15a12.84 12.84.0 0 0-12.14-.42c-12.37 6.41-19.8 17.57-36 16.89-8.94-.37-16.8-6.59-21.54-14.17a60.87 60.87.0 0 1-6.57-15.73c-3.26-11.39-5.49-22.45-2.79-34.43 1.38-6.14 4.06-12.38 9.23-16 8.93-6.18 21.81-1.86 29.28 6s11.25 18.44 16.36 28c1.77 3.3 4.34 6.91 8.08 7 2.75.09 5.12-1.78 7.17-3.61a144.87 144.87.0 0 0 39.84-59.08c3-8.31 4.29-19.48-3.16-24.23a15 15 0 0 0-3.14-1.4c-18.28-5.75-37.46 5.1-55.63 6.67-22.77 2-45.67-2.6-68.19-5.27-12-1.44-33.15-6.13-40.67 6.77-4.7 8 2.49 27.08 5 35.24 4.48 14.41 10.53 28.28 15.16 42.64 10.9 33.74 12.34 69.82 7.64 104.79-2.16 16.05-4.9 33-10.53 48.2-4.62 12.53-13.79 27.3-8.06 41a27 27 0 0 0 12.19 13.16c11.64 6.19 25.81 5.27 38.41 3.34 21.44-3.29 41.29-5.16 63.15-3.54 10 .74 19.42 3 29.14 4A81.39 81.39.0 0 0 991.86 374.17zM406 376c15.73-1.13 16.37-15.28 13.69-28a137.23 137.23.0 0 0-16.07-41.32c-3.72-6.29-8.11-12.45-14.28-16.37s-14.49-5.16-20.8-1.46c-7.13 4.19-6.44 21.24-10.63 28.76-10.08 18.09-41.64 26.36-46.57-1.13a30.61 30.61.0 0 1 .38-10.23c2.86-18 8.06-47 25.61-57 15.89-9 27.37 4.45 41.07 10.75 7.38 3.39 14.45 2.53 16.24-5.57 1.85-8.4-2.23-16.57-3.34-24.72-1.81-13.31.71-32.32-12.43-40.15a12.82 12.82.0 0 0-12.13-.42c-12.37 6.42-19.8 17.57-36 16.9-8.94-.38-16.8-6.59-21.54-14.18a61 61 0 0 1-6.57-15.72c-3.26-11.4-5.5-22.46-2.8-34.43 1.39-6.14 4.06-12.39 9.24-16 8.93-6.17 21.81-1.86 29.28 6s11.24 18.44 16.36 28c1.76 3.31 4.33 6.91 8.08 7 2.74.08 5.12-1.79 7.17-3.62a144.91 144.91.0 0 0 39.84-59.08c3-8.31 4.28-19.48-3.16-24.23a15.51 15.51.0 0 0-3.14-1.4c-18.28-5.75-37.46 5.11-55.63 6.68-22.77 2-45.67-2.6-68.19-5.28-12-1.43-33.16-6.12-40.68 6.77-4.69 8 2.49 27.09 5 35.25 4.48 14.41 10.53 28.27 15.16 42.63 10.89 33.74 12.34 69.82 7.64 104.8-2.16 16-4.91 33-10.53 48.19-4.63 12.53-13.79 27.3-8.06 41a27 27 0 0 0 12.19 13.16c11.64 6.19 25.81 5.27 38.41 3.34 21.43-3.28 41.29-5.15 63.14-3.53 10 .73 19.43 2.95 29.15 4A82.28 82.28.0 0 0 406 376zM612.6 196.23C604 156.35 588 105.77 553.35 82.12c-24.59-16.79-54.43-7.9-75.58 11-23.07 20.67-35.66 51.53-43.2 82.52-11.83 48.68-13 100.51-4.47 149.87 2 11.45 4.69 25.78 9.47 36.9 2.71 6.15 7.27 11.69 13.37 13.91 7 2.56 15.85.71 23.15.47 11.29-.37 27 2.27 36.66-4.89 7.44-5.51 6.89-14 .56-20.11-7-6.75-20.48-13.54-22.47-24.08-1.55-8.18 4.91-14.21 11.32-17.76 17.2-9.51 39.54-13 58.66-8.49 20.24 4.75 13.33 26.51 2.28 38-6.18 6.39-24.79 13.94-22.47 25.13 2.93 14.08 23.12 13.68 33.43 13.58 19.93-.13 49.11 6.76 50.11-23.26C625.8 301.88 623.78 248 612.6 196.23zm-60.45 56.21c-.52.41-1.09.82-1.6 1.23-11.58 8.1-25.86 10.92-39.24 13.94-7.37 1.65-15.63 3.23-22-1-20.22-13.28-7.81-61.08-1.07-78.92 5.66-15 15.78-37.58 32.75-40.89 25.94-4.95 36.41 47 39.55 65.46C563 226.26 564.1 242.79 552.15 252.44zM798.77 111.17a115.29 115.29.0 0 0-32.92-25.46c-46.86-24-87.9.05-109.31 41.34-13.32 25.69-21.43 56.86-22 85.85-.82 39.18 3.71 78.6 22.3 114.57C669 351 694.91 368.06 721.26 373.1c34 6.48 65.4-6.92 86.22-32 12.86-15.52 45.74-69.82 19.83-86.78-12.62-8.26-34.71-3.47-48.95-3.55-5.75.0-11.71.0-16.9 2.23-10.13 4.43-9.52 15-5.11 23.3 1.7 3.21 4 6.07 5.35 9.45 3.31 8.28 2.2 16.52-5 22.46-8.18 6.76-21.79 6.14-30.87.71-11-6.59-17.37-18.43-21.72-30.12-12.74-34.33-12.33-72.7 1.15-106.07 4.55-11.25 15.13-22.2 28.51-22.71 24-.92 32.35 24 24.87 41.23-1.69 3.88-2.94 8.27-1.52 12.34 6.18 17.57 55 13.19 66.07 4.38 15.13-12.07 5.11-32.57.55-47.58C818.4 142.76 811.5 125.31 798.77 111.17z" fill="#fff1c9"/></g></g></g></svg>