<svg xmlns="http://www.w3.org/2000/svg" width="1080" height="1029.58" viewBox="0 0 1080 1029.58"><g id="a"/><g id="b"><g id="c"><g id="d"><path d="M448.9 18.34v20.9h97.55v24.63c185.99 60.17 279.99 181.21 323.02 269.37 8.95 18.34 16.26 36.12 22.25 52.91 6.86-1.31 13.71-2.08 20.5-2.25 1.05-.03 2.09-.04 3.14-.04 8.68.0 17.26.91 25.64 2.66 28.19 5.91 54.25 21.41 74.9 44.34 18.93 21.02 33.31 48.26 40.62 80.07 3.32 14.46 4.99 29 5.13 43.34.11 11.48-.74 22.83-2.51 33.91-1.76 11.08-4.43 21.9-7.93 32.3-.88 2.6-1.8 5.18-2.78 7.72-1.96 5.09-4.12 10.07-6.47 14.93-18.85 38.81-50.2 69.29-89.6 82.25-.06.02-.13.04-.19.06h0c-13.3 4.35-26.66 6.43-39.8 6.43-64.58.0-123.52-50.26-141.17-127.08-20.63-89.73 22.62-182.73 97.13-211.89.11-.04.22-.08.33-.12-5.71-15.92-12.67-32.74-21.14-50-59.7-121.68-158.56-205.55-301.08-251.65v27.74h-97.55v19.91h34.84c4.93.0 9.63 1.01 13.91 2.83 1.07.46 2.12.96 3.13 1.51 11.17 6.09 18.79 17.94 18.79 31.49v132.37c0 1.22-.06 2.42-.18 3.61-.04.41-.13.8-.18 1.2-.1.77-.2 1.54-.35 2.3-.11.53-.26 1.04-.39 1.56-.15.61-.29 1.22-.47 1.81-.19.61-.42 1.19-.64 1.78-.18.48-.34.98-.53 1.45-.27.65-.59 1.28-.9 1.91-.19.39-.36.78-.56 1.16-.37.69-.79 1.36-1.2 2.02-.18.29-.34.59-.53.87-.48.72-1 1.41-1.52 2.1-.15.2-.3.41-.45.61-.59.73-1.22 1.43-1.86 2.11-.12.13-.23.26-.35.38-.7.73-1.44 1.41-2.2 2.08-.07.07-.15.14-.22.2-.81.7-1.66 1.35-2.53 1.98-.03.02-.06.05-.09.07-5.49 3.9-12.11 6.28-19.25 6.56h0c-.34.01-.68.05-1.03.05l11.98 32.05c156.85 37.46 271.73 158.18 271.73 301.44v.03c0 4.81-.18 9.59-.43 14.35-.07 1.33-.16 2.66-.26 3.98-.27 3.85-.61 7.69-1.04 11.5-.11.99-.2 2-.32 2.99-.57 4.61-1.28 9.2-2.09 13.75-.21 1.2-.47 2.39-.69 3.58-.68 3.53-1.43 7.04-2.25 10.54-.32 1.34-.62 2.69-.96 4.02-1.1 4.39-2.29 8.76-3.61 13.08-.27.89-.58 1.76-.86 2.65-1.12 3.53-2.31 7.03-3.57 10.51-.55 1.53-1.12 3.05-1.7 4.56-1.21 3.18-2.49 6.33-3.83 9.46-.5 1.18-.97 2.38-1.49 3.55-1.73 3.92-3.57 7.79-5.48 11.64-.82 1.66-1.69 3.3-2.54 4.94-1.29 2.48-2.63 4.95-4 7.39-.95 1.7-1.89 3.41-2.87 5.09-2.06 3.53-4.19 7.02-6.41 10.47-1.16 1.8-2.38 3.57-3.58 5.35-1.33 1.98-2.68 3.96-4.07 5.91-1.39 1.97-2.8 3.92-4.24 5.86-1.3 1.75-2.64 3.46-3.98 5.19-2.71 3.49-5.5 6.93-8.36 10.32-1.16 1.38-2.31 2.76-3.51 4.12-1.88 2.14-3.79 4.26-5.73 6.36-1.06 1.15-2.15 2.3-3.23 3.44-6.85 7.23-14.07 14.19-21.65 20.87-.79.7-1.59 1.4-2.39 2.1-8.35 7.24-17.12 14.14-26.26 20.69-.19.14-.38.28-.57.41-3.11 2.22-6.27 4.39-9.46 6.52-.21.14-.43.28-.64.42-9.73 6.46-19.85 12.51-30.33 18.15-.21.11-.41.22-.62.33-8.69 4.66-17.6 9.04-26.76 13.09v57.71H246.12v-46.49C112.21 916.94 18.34 805.79 18.34 676.28c0-143.25 114.87-263.98 271.72-301.44l9.46-32.98c-15.86-3.68-27.78-17.94-27.78-34.88V174.6c0-14.22 8.41-26.53 20.48-32.31.17-.08.33-.16.5-.24 1.46-.67 2.96-1.27 4.51-1.74.04-.01.07-.02.11-.03 1.42-.43 2.89-.74 4.38-.99.37-.06.74-.12 1.11-.17 1.56-.21 3.13-.35 4.74-.35h40.81V18.34h100.52zm0-18.34H348.38c-10.13.0-18.34 8.21-18.34 18.34V120.43h-22.47c-2.24.0-4.59.17-7.18.52-.58.08-1.14.17-1.71.26-2.25.37-4.32.84-6.3 1.42-.14.04-.28.08-.41.12-2.32.71-4.56 1.56-6.91 2.64l-.73.35c-18.79 9-30.91 28.17-30.91 48.86v132.37c0 18.27 9.49 35.08 24.15 44.96l-2.21 7.7c-76.09 20.18-144.48 60.35-193.48 113.86C28.31 531.98.0 602.1.0 676.28c0 129.92 88.97 246.93 227.78 301.19v33.77c0 10.13 8.21 18.34 18.34 18.34h321.93c10.13.0 18.34-8.21 18.34-18.34v-45.97c5.71-2.73 11.42-5.63 17.09-8.67l.64-.34c10.94-5.89 21.63-12.29 31.79-19.03l.69-.45c3.41-2.27 6.75-4.58 9.91-6.83l.45-.33c9.72-6.95 19-14.27 27.75-21.86.77-.66 1.53-1.34 2.29-2.01l.22-.19c7.96-7.03 15.64-14.43 22.82-22 1.14-1.2 2.28-2.4 3.4-3.62 2.05-2.23 4.08-4.46 6.06-6.73.95-1.09 1.89-2.2 2.82-3.3l.88-1.05c3.06-3.62 6.03-7.29 8.85-10.92l.25-.32c1.33-1.71 2.66-3.43 3.95-5.16 1.53-2.06 3.02-4.13 4.5-6.22 1.46-2.07 2.89-4.16 4.31-6.26l.95-1.41c.96-1.42 1.92-2.84 2.85-4.28 2.25-3.51 4.48-7.14 6.8-11.11.86-1.48 1.69-2.96 2.52-4.45l.54-.96c1.45-2.59 2.87-5.22 4.24-7.86l.39-.75c.78-1.5 1.56-3 2.31-4.51 2.2-4.43 4.11-8.49 5.84-12.39.37-.85.73-1.7 1.08-2.55l.52-1.24c1.45-3.42 2.83-6.81 4.08-10.08.62-1.62 1.22-3.24 1.81-4.87 1.34-3.7 2.62-7.47 3.81-11.21l.29-.87c.22-.65.44-1.31.64-1.97 1.31-4.27 2.57-8.84 3.86-13.97.28-1.12.55-2.25.81-3.38l.22-.92c.87-3.69 1.67-7.48 2.4-11.26l.24-1.21c.17-.87.35-1.75.5-2.63.88-4.95 1.63-9.9 2.23-14.69.09-.72.16-1.44.24-2.16l.11-1.03c.46-4.03.83-8.17 1.12-12.3.1-1.51.2-2.88.27-4.25.19-3.53.32-6.71.39-9.71 30.57 42.2 76.38 68.26 126.28 68.26 15.23.0 30.46-2.44 45.27-7.26.16-.05.32-.1.45-.14 42.86-14.1 78.51-46.65 100.37-91.66 2.58-5.31 4.96-10.81 7.1-16.36 1.06-2.77 2.09-5.61 3.04-8.45 3.84-11.4 6.75-23.27 8.66-35.27 1.94-12.18 2.86-24.62 2.73-36.97-.16-15.9-2.04-31.8-5.6-47.27-7.76-33.75-23.27-64.25-44.86-88.23-23.43-26.01-52.74-43.31-84.76-50.02-9.67-2.03-19.57-3.05-29.4-3.05-1.2.0-2.4.01-3.6.05-2.64.07-5.3.21-7.98.44-5.39-13.88-11.37-27.56-17.83-40.8-36.19-74.15-125.63-206.95-321.16-274.54v-11.42c0-10.13-8.21-18.34-18.34-18.34h-79.21v-2.56c0-10.13-8.21-18.34-18.34-18.34h0zm73.98 137.2h23.57c10.13.0 18.34-8.21 18.34-18.34v-2.02c124.25 45.62 211.5 122.37 266.28 234.01 5.16 10.52 9.98 21.37 14.38 32.41-53.39 28.33-89.15 86.77-96.36 151.9-12.09-21.64-27.05-42.28-44.79-61.65-49.2-53.73-117.94-94.01-194.4-114.1l-1.57-4.21c2.31-1.18 4.55-2.54 6.69-4.06.09-.06.19-.14.29-.21 1.28-.92 2.52-1.89 3.66-2.87.14-.12.33-.29.5-.45 1.13-.99 2.17-1.98 3.15-2.99.21-.21.43-.46.66-.71 1.05-1.12 1.89-2.08 2.66-3.05.27-.34.52-.67.77-1.01.77-1.01 1.51-2.01 2.21-3.06.27-.41.55-.85.81-1.31.64-1.04 1.24-2.03 1.79-3.05.28-.52.55-1.07.8-1.62l.21-.43c.42-.86.83-1.72 1.2-2.6.26-.62.5-1.28.74-1.94l.08-.23.13-.34c.3-.79.59-1.59.84-2.41.23-.75.44-1.57.64-2.38l.08-.34.06-.23c.19-.7.37-1.41.51-2.13.21-1.04.37-2.1.51-3.17l.04-.32c.1-.56.19-1.2.26-1.85.18-1.8.28-3.64.28-5.44V174.6c0-14.14-5.52-27.46-15.03-37.4h0z" fill="#1e1e1e"/><g><path d="M894.81 513.23c-.01-.79-2.61-79.42-47.28-170.46-59.7-121.68-158.56-205.55-301.08-251.65v-27.25c185.99 60.17 279.99 181.21 323.02 269.37 46.63 95.59 49.14 176.01 49.23 179.39l-23.88.6z" fill="#821413"/><path d="M894.81 513.23c-.01-.79-2.61-79.42-47.28-170.46-59.7-121.68-158.56-205.55-301.08-251.65v-27.25c185.99 60.17 279.99 181.21 323.02 269.37 46.63 95.59 49.14 176.01 49.23 179.39l-23.88.6z" fill="#fdbccc"/><path d="M448.9 39.24h97.55v79.62H448.9z" fill="#46836e"/><path d="M448.9 39.24V43.54h90.38v75.32H546.45V39.24H448.9z" fill="#fcfcfc" opacity=".8"/><path d="M448.9 39.24h97.55v79.62H448.9z" fill="#414d7d"/><path d="M348.37 18.34h100.52v120.43H348.37z" fill="#414d7d"/><path d="M348.37 18.34V25.51h93V138.77H448.9V18.34H348.37z" fill="#fcfcfc" opacity=".8"/><path d="M448.9 18.34v120.43H348.38V18.34H448.9zm0-9.17H348.38c-5.06.0-9.17 4.11-9.17 9.17v120.43c0 5.06 4.11 9.17 9.17 9.17H448.9c5.06.0 9.17-4.11 9.17-9.17V18.34c0-5.06-4.1-9.17-9.17-9.17h0z" fill="#1e1e1e"/><path d="M246.12 938.08h321.93v73.16H246.12z" fill="#f4c460"/><path d="M496.09 374.84l-14.93-39.96-179.44-.72-11.67 40.68C133.21 412.3 18.34 533.03 18.34 676.28c0 173.15 167.78 313.52 374.75 313.52s374.74-140.37 374.74-313.52c0-143.25-114.88-263.98-271.73-301.44z" fill="#f4c460"/><g><path d="M496.09 374.84l-14.93-39.96-179.44-.72-11.67 40.68C133.21 412.3 18.34 533.03 18.34 676.28c0 173.15 167.78 313.52 374.75 313.52s374.74-140.37 374.74-313.52c0-143.25-114.88-263.98-271.73-301.44z" fill="#f4c460"/><path d="M301.73 334.16l179.44.72 14.93 39.96c156.85 37.46 271.73 158.18 271.73 301.44.0 173.15-167.78 313.52-374.74 313.52S18.34 849.43 18.34 676.28c0-143.25 114.87-263.98 271.72-301.44l11.67-40.68h0zm0-9.17c-4.09.0-7.69 2.71-8.81 6.64l-10.2 35.57c-76.43 19.27-145.19 59.09-194.09 112.49-51.98 56.76-79.45 124.74-79.45 196.58.0 177.93 172.22 322.69 383.92 322.69S777.01 854.2 777.01 676.27c0-71.85-27.48-139.83-79.45-196.58-49-53.51-117.94-93.38-194.55-112.61l-13.23-35.42c-1.33-3.57-4.74-5.94-8.55-5.96l-179.44-.72h-.04z" fill="#1e1e1e"/></g><path d="M496.09 374.84l-14.93-39.96-179.44-.72-2.48 8.64 163.01.65 14.93 39.96c156.85 37.46 271.73 158.18 271.73 301.44.0 115.94-75.28 217.1-187.11 271.35 122.18-51.65 206.01-157.57 206.01-279.92.0-143.25-114.88-263.98-271.73-301.44z" fill="#fcfcfc" opacity=".8"/><path d="M519.58 306.98c0 19.71-16.13 35.83-35.84 35.83h-176.17c-19.7.0-35.82-16.12-35.82-35.83V174.6c0-19.71 16.12-35.83 35.82-35.83h176.17c19.71.0 35.84 16.12 35.84 35.83v132.37z" fill="#414d7d"/><path d="M483.74 138.77h-176.17c-7.17.0-13.85 2.15-19.47 5.82.47-.02.93-.07 1.4-.07h176.17c19.71.0 35.84 16.12 35.84 35.83v132.37c0 12.54-6.54 23.6-16.37 30.01 19.06-.75 34.43-16.53 34.43-35.76V174.6c0-19.71-16.13-35.83-35.84-35.83z" fill="#fcfcfc" opacity=".8"/><path d="M483.74 138.77c19.71.0 35.84 16.12 35.84 35.83v132.37c0 19.71-16.13 35.83-35.84 35.83h-176.17c-19.7.0-35.82-16.12-35.82-35.83V174.6c0-19.71 16.12-35.83 35.82-35.83h176.17zm0-9.17h-176.17c-24.81.0-44.99 20.19-44.99 45v132.37c0 24.81 20.18 45 44.99 45h176.17c24.82.0 45.01-20.19 45.01-45V174.6c0-24.81-20.19-45-45.01-45h0z" fill="#1e1e1e"/><path d="M1056.52 510.93c21.27 92.51-25.37 188.53-104.16 214.45-78.77 25.92-159.9-28.07-181.16-120.59-21.27-92.51 25.37-188.51 104.16-214.43 78.8-25.93 159.9 28.06 181.16 120.57z" fill="#414d7d"/><path d="M1056.52 510.93c-21.27-92.51-102.37-146.5-181.16-120.57-4.74 1.56-9.36 3.39-13.86 5.44 78.74-25.78 159.72 28.19 180.97 120.63 19.99 86.95-20.01 176.97-90.3 209.01.06-.02.13-.04.19-.06 78.79-25.92 125.42-121.94 104.16-214.45z" fill="#fcfcfc" opacity=".8"/><path d="M915.36 383.86c64.59.0 123.5 50.26 141.16 127.07 21.27 92.51-25.37 188.53-104.16 214.45-13.36 4.4-26.79 6.49-39.99 6.49-64.59.0-123.52-50.26-141.18-127.08-21.27-92.51 25.37-188.51 104.16-214.43 13.37-4.4 26.81-6.5 40.01-6.5h0zm0-9.17h0c-14.42.0-28.84 2.34-42.87 6.96-83.04 27.32-132.49 128.34-110.23 225.2 18.16 79.01 79.89 134.2 150.11 134.2 14.41.0 28.83-2.34 42.85-6.95 83.04-27.32 132.49-128.35 110.23-225.21-18.16-79.01-79.88-134.18-150.09-134.18h0z" fill="#1e1e1e"/><ellipse cx="500.48" cy="524.53" rx="130.55" ry="193.32" transform="translate(-130.67 881.27) rotate(-75.82)" fill="#fcfcfc" opacity=".8"/><path d="M1022.47 498.09c-6.87 32.51-44.79 48.33-84.69 35.32-39.91-13-66.69-49.89-59.82-82.4 6.87-32.51 44.79-48.33 84.69-35.32 39.91 13 66.69 49.89 59.82 82.4z" fill="#fcfcfc" opacity=".8"/></g><path d="M448.9 18.34v20.9h97.55v24.63c185.99 60.17 279.99 181.21 323.02 269.37 8.95 18.34 16.26 36.12 22.25 52.91 6.86-1.31 13.71-2.08 20.5-2.25 1.05-.03 2.09-.04 3.14-.04 8.68.0 17.26.91 25.64 2.66 28.19 5.91 54.25 21.41 74.9 44.34 18.93 21.02 33.31 48.26 40.62 80.07 3.32 14.46 4.99 29 5.13 43.34.11 11.48-.74 22.83-2.51 33.91-1.76 11.08-4.43 21.9-7.93 32.3-.88 2.6-1.8 5.18-2.78 7.72-1.96 5.09-4.12 10.07-6.47 14.93-18.85 38.81-50.2 69.29-89.6 82.25-.06.02-.13.04-.19.06h0c-13.3 4.35-26.66 6.43-39.8 6.43-64.58.0-123.52-50.26-141.17-127.08-20.63-89.73 22.62-182.73 97.13-211.89.11-.04.22-.08.33-.12-5.71-15.92-12.67-32.74-21.14-50-59.7-121.68-158.56-205.55-301.08-251.65v27.74h-97.55v19.91h34.84c4.93.0 9.63 1.01 13.91 2.83 1.07.46 2.12.96 3.13 1.51 11.17 6.09 18.79 17.94 18.79 31.49v132.37c0 1.22-.06 2.42-.18 3.61-.04.41-.13.8-.18 1.2-.1.77-.2 1.54-.35 2.3-.11.53-.26 1.04-.39 1.56-.15.61-.29 1.22-.47 1.81-.19.61-.42 1.19-.64 1.78-.18.48-.34.98-.53 1.45-.27.65-.59 1.28-.9 1.91-.19.39-.36.78-.56 1.16-.37.69-.79 1.36-1.2 2.02-.18.29-.34.59-.53.87-.48.72-1 1.41-1.52 2.1-.15.2-.3.41-.45.61-.59.73-1.22 1.43-1.86 2.11-.12.13-.23.26-.35.38-.7.73-1.44 1.41-2.2 2.08-.07.07-.15.14-.22.2-.81.7-1.66 1.35-2.53 1.98-.03.02-.06.05-.09.07-5.49 3.9-12.11 6.28-19.25 6.56h0c-.34.01-.68.05-1.03.05l11.98 32.05c156.85 37.46 271.73 158.18 271.73 301.44v.03c0 4.81-.18 9.59-.43 14.35-.07 1.33-.16 2.66-.26 3.98-.27 3.85-.61 7.69-1.04 11.5-.11.99-.2 2-.32 2.99-.57 4.61-1.28 9.2-2.09 13.75-.21 1.2-.47 2.39-.69 3.58-.68 3.53-1.43 7.04-2.25 10.54-.32 1.34-.62 2.69-.96 4.02-1.1 4.39-2.29 8.76-3.61 13.08-.27.89-.58 1.76-.86 2.65-1.12 3.53-2.31 7.03-3.57 10.51-.55 1.53-1.12 3.05-1.7 4.56-1.21 3.18-2.49 6.33-3.83 9.46-.5 1.18-.97 2.38-1.49 3.55-1.73 3.92-3.57 7.79-5.48 11.64-.82 1.66-1.69 3.3-2.54 4.94-1.29 2.48-2.63 4.95-4 7.39-.95 1.7-1.89 3.41-2.87 5.09-2.06 3.53-4.19 7.02-6.41 10.47-1.16 1.8-2.38 3.57-3.58 5.35-1.33 1.98-2.68 3.96-4.07 5.91-1.39 1.97-2.8 3.92-4.24 5.86-1.3 1.75-2.64 3.46-3.98 5.19-2.71 3.49-5.5 6.93-8.36 10.32-1.16 1.38-2.31 2.76-3.51 4.12-1.88 2.14-3.79 4.26-5.73 6.36-1.06 1.15-2.15 2.3-3.23 3.44-6.85 7.23-14.07 14.19-21.65 20.87-.79.7-1.59 1.4-2.39 2.1-8.35 7.24-17.12 14.14-26.26 20.69-.19.14-.38.28-.57.41-3.11 2.22-6.27 4.39-9.46 6.52-.21.14-.43.28-.64.42-9.73 6.46-19.85 12.51-30.33 18.15-.21.11-.41.22-.62.33-8.69 4.66-17.6 9.04-26.76 13.09v57.71H246.12v-46.49C112.21 916.94 18.34 805.79 18.34 676.28c0-143.25 114.87-263.98 271.72-301.44l9.46-32.98c-15.86-3.68-27.78-17.94-27.78-34.88V174.6c0-14.22 8.41-26.53 20.48-32.31.17-.08.33-.16.5-.24 1.46-.67 2.96-1.27 4.51-1.74.04-.01.07-.02.11-.03 1.42-.43 2.89-.74 4.38-.99.37-.06.74-.12 1.11-.17 1.56-.21 3.13-.35 4.74-.35h40.81V18.34h100.52zm0-18.34H348.38c-10.13.0-18.34 8.21-18.34 18.34V120.43h-22.47c-2.24.0-4.59.17-7.18.52-.58.08-1.14.17-1.71.26-2.25.37-4.32.84-6.3 1.42-.14.04-.28.08-.41.12-2.32.71-4.56 1.56-6.91 2.64l-.73.35c-18.79 9-30.91 28.17-30.91 48.86v132.37c0 18.27 9.49 35.08 24.15 44.96l-2.21 7.7c-76.09 20.18-144.48 60.35-193.48 113.86C28.31 531.98.0 602.1.0 676.28c0 129.92 88.97 246.93 227.78 301.19v33.77c0 10.13 8.21 18.34 18.34 18.34h321.93c10.13.0 18.34-8.21 18.34-18.34v-45.97c5.71-2.73 11.42-5.63 17.09-8.67l.64-.34c10.94-5.89 21.63-12.29 31.79-19.03l.69-.45c3.41-2.27 6.75-4.58 9.91-6.83l.45-.33c9.72-6.95 19-14.27 27.75-21.86.77-.66 1.53-1.34 2.29-2.01l.22-.19c7.96-7.03 15.64-14.43 22.82-22 1.14-1.2 2.28-2.4 3.4-3.62 2.05-2.23 4.08-4.46 6.06-6.73.95-1.09 1.89-2.2 2.82-3.3l.88-1.05c3.06-3.62 6.03-7.29 8.85-10.92l.25-.32c1.33-1.71 2.66-3.43 3.95-5.16 1.53-2.06 3.02-4.13 4.5-6.22 1.46-2.07 2.89-4.16 4.31-6.26l.95-1.41c.96-1.42 1.92-2.84 2.85-4.28 2.25-3.51 4.48-7.14 6.8-11.11.86-1.48 1.69-2.96 2.52-4.45l.54-.96c1.45-2.59 2.87-5.22 4.24-7.86l.39-.75c.78-1.5 1.56-3 2.31-4.51 2.2-4.43 4.11-8.49 5.84-12.39.37-.85.73-1.7 1.08-2.55l.52-1.24c1.45-3.42 2.83-6.81 4.08-10.08.62-1.62 1.22-3.24 1.81-4.87 1.34-3.7 2.62-7.47 3.81-11.21l.29-.87c.22-.65.44-1.31.64-1.97 1.31-4.27 2.57-8.84 3.86-13.97.28-1.12.55-2.25.81-3.38l.22-.92c.87-3.69 1.67-7.48 2.4-11.26l.24-1.21c.17-.87.35-1.75.5-2.63.88-4.95 1.63-9.9 2.23-14.69.09-.72.16-1.44.24-2.16l.11-1.03c.46-4.03.83-8.17 1.12-12.3.1-1.51.2-2.88.27-4.25.19-3.53.32-6.71.39-9.71 30.57 42.2 76.38 68.26 126.28 68.26 15.23.0 30.46-2.44 45.27-7.26.16-.05.32-.1.45-.14 42.86-14.1 78.51-46.65 100.37-91.66 2.58-5.31 4.96-10.81 7.1-16.36 1.06-2.77 2.09-5.61 3.04-8.45 3.84-11.4 6.75-23.27 8.66-35.27 1.94-12.18 2.86-24.62 2.73-36.97-.16-15.9-2.04-31.8-5.6-47.27-7.76-33.75-23.27-64.25-44.86-88.23-23.43-26.01-52.74-43.31-84.76-50.02-9.67-2.03-19.57-3.05-29.4-3.05-1.2.0-2.4.01-3.6.05-2.64.07-5.3.21-7.98.44-5.39-13.88-11.37-27.56-17.83-40.8-36.19-74.15-125.63-206.95-321.16-274.54v-11.42c0-10.13-8.21-18.34-18.34-18.34h-79.21v-2.56c0-10.13-8.21-18.34-18.34-18.34h0zm73.98 137.2h23.57c10.13.0 18.34-8.21 18.34-18.34v-2.02c124.25 45.62 211.5 122.37 266.28 234.01 5.16 10.52 9.98 21.37 14.38 32.41-53.39 28.33-89.15 86.77-96.36 151.9-12.09-21.64-27.05-42.28-44.79-61.65-49.2-53.73-117.94-94.01-194.4-114.1l-1.57-4.21c2.31-1.18 4.55-2.54 6.69-4.06.09-.06.19-.14.29-.21 1.28-.92 2.52-1.89 3.66-2.87.14-.12.33-.29.5-.45 1.13-.99 2.17-1.98 3.15-2.99.21-.21.43-.46.66-.71 1.05-1.12 1.89-2.08 2.66-3.05.27-.34.52-.67.77-1.01.77-1.01 1.51-2.01 2.21-3.06.27-.41.55-.85.81-1.31.64-1.04 1.24-2.03 1.79-3.05.28-.52.55-1.07.8-1.62l.21-.43c.42-.86.83-1.72 1.2-2.6.26-.62.5-1.28.74-1.94l.08-.23.13-.34c.3-.79.59-1.59.84-2.41.23-.75.44-1.57.64-2.38l.08-.34.06-.23c.19-.7.37-1.41.51-2.13.21-1.04.37-2.1.51-3.17l.04-.32c.1-.56.19-1.2.26-1.85.18-1.8.28-3.64.28-5.44V174.6c0-14.14-5.52-27.46-15.03-37.4h0z" fill="#1e1e1e"/></g></g></g></svg>