<svg xmlns="http://www.w3.org/2000/svg" width="1080" height="346.26" viewBox="0 0 1080 346.26"><g id="a"/><g id="b"><g id="c"><g id="d"><path d="M680.42 178.95c135.63 4.94 243.27 8.76 350.9 12.93 11.16.44 22.86 1.31 33.12 5.15 6.3 2.35 12.75 9.97 14.84 16.58 2.98 9.42-3.67 16.93-12.43 20.83-5.79 2.57-12.14 4.42-18.42 5.25-14.32 1.89-28.74 4.01-43.14 4.18-77.16.93-154.34 2.61-231.49 1.54-119.84-1.66-239.48 2.12-359.1 8.46-15.24.81-30.6 1.53-45.78.46-11.01-.78-22.17-3.59-32.6-7.31-10.41-3.72-17.31-12.11-17.83-23.67-.52-11.59 5.52-21.32 15.8-24.89 15.71-5.46 32.29-10.99 48.66-11.54 108.42-3.63 216.88-5.94 297.47-7.97z" fill="#dbab5e"/><path d="M327.01 235.02c4.7 1.39 9.17 2.22 13.24 3.99 55.97 24.42 111.89 48.94 167.79 73.51 4.12 1.81 8.34 3.71 11.9 6.4 5.67 4.28 7.39 12.28 4.7 18.32-2.67 6-8.63 10.04-15.31 8.8-35.86-6.63-72.07-3.13-108.09-3.53-126.08-1.42-252.18-1.89-378.27-2.75-3.6-.02-7.31.02-10.78-.8-7.78-1.83-12.07-7.74-12.2-15.68-.19-11.13 4.05-19.35 13.16-26.52C130.35 204.49 247.27 111.9 364.26 19.39c5.32-4.21 10.63-8.42 15.98-12.57 11.09-8.59 17-8.95 26.71-1.71 9.9 7.38 11.47 13.17 6.08 25.97-13.5 32.1-27.23 64.11-40.87 96.16-13.28 31.22-26.57 62.43-39.81 93.66-1.56 3.67-2.84 7.46-5.36 14.11zm-235.59 40.02c.45.83.9 1.66 1.35 2.49 7.21-1.81 14.42-3.63 21.63-5.43 56.96-14.25 113.89-28.61 170.91-42.6 7.8-1.91 12.11-5.76 15.22-13.2 20.38-48.78 41.24-97.36 61.89-146.02 1.36-3.2 2.35-6.57 3.52-9.85m46.99 253.67c.57-1.03 1.15-2.06 1.72-3.09-3.45-.9-7.07-1.55-10.31-2.73-26.72-9.69-53.63-19.14-79.89-29.41-9.74-3.81-19.14-3.8-30.37-1.58-38.05 7.53-76.19 14.41-114.29 21.61-20.2 3.82-40.38 7.78-60.57 11.68-.03.59-.05 1.18-.08 1.76 97.93.59 195.86 1.18 293.79 1.76z" fill="#dbab5e"/></g></g></g></svg>