<svg xmlns="http://www.w3.org/2000/svg" width="715.08" height="1080" viewBox="0 0 715.08 1080"><g id="a"/><g id="b"><g id="c"><path id="d" d="M697.96 617.04c-3.8-12.66-16.69-22.08-29.6-22.06-34.04.05-52.97 36.61-64.46 63.22-6.4 14.82-13.27 29.78-20.9 44.03-1.34 2.51-13.5 24.24-12.67 11.54 2.8-43-.14-130.38-4.38-150.62-7.38-35.19-43.29-48.57-69.12-24.01-39.14 37.22-73.72 145.19-83.2 132.09-3.07-4.24 2.02-45.66 3.51-59.64 2.7-25.32 5.66-50.68 6.63-76.09.93-24.3 11.33-75.96-19.79-86.82-35.46-12.37-61.96 34.18-74.42 59.93-10.37 21.43-17.16 44.55-25.32 66.87-8.51 23.28-43.2 113.53-44.57 116.36 5.15-37.02 11.91-73.12 18.98-109.15 9.03-46.02 18.88-91.89 27.32-138.02 7.77-42.49 14.33-85.2 21.04-127.88 3.22-20.45-14.12-36.68-34.25-35.5-23.77 1.4-45.02 30.94-55.53 49.69-9.34 16.65-17.42 33.97-25.04 51.47-27.21 62.5-44.55 128.32-59.71 194.4-16.9 73.65-29.37 148.31-44.26 222.43-10.76 53.53-39.28 184.01-42.16 195.85-4.59-15.25-12.44-95.97-13.33-109.8-2.68-41.56-3.54-83.34-4.36-124.97-2.96-150.33 18.49-294.32 51.8-440.33 7.62-33.41 14.01-67.13 22.45-100.33 6.88-27.09 15.99-53.61 25.21-84.01.21 2.35.63 8.48 1.16 16.36 1.14 17.06 2.78 42.3 3.79 54.96.72 9.01 5.52 15.39 15.13 15.93 9.81.54 18.22-3.16 20.03-13.6 1.92-11.08 1.69-66.91 2.06-83.48.81-35.6 2.62-71.18 3.04-106.77.06-5.13-4.05-13.12-8.34-15.01-27.31-12.08-43.63 4.73-59.22 24.62-21.16 27-44.56 52.44-67.15 78.24-14.14 16.15-28.16 32.38-42.02 48.77-6.97 8.24-2.85 29.23 10.8 26.07 9.13-2.12 19.02-5.58 25.96-11.57 11.56-9.97 21.12-22.28 31.38-33.73 6.78-7.56 13.31-15.34 19.95-23.03-2.61 21.43-29.02 107.71-34.43 131.61-12.3 54.33-23.1 108.98-33.96 163.62C6.7 556.1-6.17 707.33 2.83 857.53c2.28 38.1 5.82 76.15 12.3 113.79 5.06 29.36 13.77 60.1 23.54 89.25 5.19 15.48 15.29 24.04 31.66 16.87 12.85-5.63 22.71-17.73 25.96-31.41 8.39-35.27 38.1-175.33 41.99-196.39 3.41-18.48 7.07-36.92 9.98-55.49 5.87-37.35 13.33-74.38 20.31-111.53 2.05-10.94 4.14-21.87 6.51-32.75 5.94-27.18 11.78-54.41 18.7-81.35 9.14-35.57 32.54-135.17 73.94-217.39 3.04-6.05 7.4-11.96 11.91-17 6.08-6.8 7.04-.92 5.82 5.52-10.24 54.02-20.1 108.11-30.98 162-11.16 55.27-22.62 110.49-31.63 166.14-8.99 55.5-17.01 111.16-24.79 166.84-1.68 12.04-1.36 24.26-.42 36.35 1.34 17.07 11.82 21.99 27.08 14.84 17.49-8.2 25.22-21.68 30.26-40.26 12.28-45.2 27.06-89.73 41.45-134.33 13.4-41.53 26.25-83.33 41.95-124 4.99-12.95 9.62-26.03 14.84-38.89 2.45-6.03 16.41-49.21 28.35-36.58 3.77 3.99 2.62 13.12 2.16 18-5.78 61.21-12.35 122.36-17.43 183.63-1.15 13.87-1.4 27.8-.9 41.71.36 9.98-.72 24.08 7.38 31.53 9.47 8.72 22.84.77 30.92-5.57 18.79-14.74 68.23-125.89 72.22-134.56 10.58-22.95 40.66-70.67 43.28-71.73 13.68-5.55 16.65 8.88 17.03 19.17.61 16.63-3.13 116.11-2.83 135.81.2 13.3-.96 30.24 5.84 42.27 2.94 5.21 8.93 9.96 15.09 10.67 15.76 1.81 33.36-13.01 41.16-25.53 10.21-16.4 39.66-94.66 58.47-107.19 15.7-10.46 14.98 52.24 14.97 58.15-.02 16.74 2.02 80.74 12.97 86.78 13.1 7.21 28.56-6.93 32.18-19.07.3-1 .52-1.98.65-2.94 2.19-16.22-6.02-119.96-16.76-155.81z" fill="#e5d07a"/></g></g></svg>