<svg xmlns="http://www.w3.org/2000/svg" width="1080" height="817.73" viewBox="0 0 1080 817.73"><g id="a"/><g id="b"><g id="c"><g id="d"><path d="M397.87 82.31 402.47 79.05 396.53 82.78 397.87 82.31z" fill="#768eb2"/><path d="M273.9 267.49c-.57-3.41-.84-6.85-1.28-10.31.53 7.85 1.84 15.59 3.49 23.2-.09-.91-.18-1.83-.16-2.75l-2.05-10.15z" fill="#768eb2"/><path d="M274.67 267.43l1.35 6.06-.06-5.44c-.91-3.12-1.3-6.29-2-9.49l-.92-4.83-.51-4.86c.05 4.17.65 8.32 1.24 12.43.32 2.05.46 4.1.91 6.13z" fill="#768eb2"/><path d="M284.01 230.84s0 .05-.01.08c-.45 3.42-.71 6.85-1.13 10.24-.27 4.09-.14 8.2-.27 12.27.53-18.05 4.68-34.31 8.34-48.74-2.94 7.98-5.07 16.11-6.69 24.22-.11.64-.15 1.29-.24 1.94z" fill="#768eb2"/><path d="M275.99 262.62l-1.18-6.78c.41 4.1.52 8.17 1.14 12.21-.17-1.81.0-3.62.04-5.43z" fill="#768eb2"/><path d="M279.69 317.03l.42-.15-3.5-7.86c-5.46-14.81-8.86-33.22-9.94-49.04l-.2 6.37c.04 2.12.25 4.24.38 6.36l.49 6.36c.21 2.12.66 4.2.99 6.31 2.38 14.43 6.89 28.5 12.85 41.89l-1.91-10.09.42-.15z" fill="#768eb2"/><path d="M276.7 301.57c.99 3.63 2.67 7.07 3.96 10.6l-3.81-7.7-3.25-7.95c1.19 3.38 2.08 6.82 3.49 10.11l4.05 9.87 2.71 2 .21-.08 1.15 1.06c-1.69-2.86-3.08-5.84-4.46-8.84-1.35-3.01-2.97-5.97-4.05-9.08z" fill="#768eb2"/><path d="M522.25 78.83h-8.19c3.91.54 7.9.91 11.86 1.56-1.19-.63-2.44-1.04-3.66-1.56z" fill="#768eb2"/><path d="M221.15 348.49c-1.65-3.95-3.1-7.99-4.65-12l1.55 4.92c2.38 6.46 5.55 12.55 8.46 18.74l-5.35-11.67z" fill="#768eb2"/><path d="M698.86 259.65l1.44-9.91c1.97-22.72 2.2-45.8-.72-68.73.14 1.35.28 2.69.4 4.04.32 3.56.74 7.14.97 10.7.2 7.12.78 14.29.54 21.39.12 14.28-1.19 28.4-2.62 42.5z" fill="#768eb2"/><path d="M703.67 214.7c-.68-23.61-3.77-47.44-11.02-70.22 4.11 14.71 7.29 29.77 8.5 44.91.48 3.79.74 7.57.88 11.35.17 3.78.43 7.58.52 11.37-.05 7.54.15 15.15-.34 22.66.81-6.63 1.09-13.35 1.47-20.07z" fill="#768eb2"/><path d="M623.74 32.81c13.78 9.43 26.88 20.33 38.13 33.35 3 3.05 5.6 6.52 8.24 9.95 2.65 3.42 5.35 6.82 7.54 10.53 2.29 3.65 4.64 7.28 6.85 10.98l5.25 10.35c.4.83.78 1.67 1.17 2.51 6.85 15.16 12.25 30.98 15.28 47.03-3.23-18.29-9.21-36.11-17.22-52.53-3.76-8.35-8.83-15.95-13.61-23.53-2.72-3.59-5.43-7.15-8.11-10.69-2.72-3.5-5.83-6.57-8.71-9.81-23.93-25.15-51.88-41.38-78.37-51.9 7.63 3.09 14.96 6.92 22.33 10.68 7.17 4.17 14.45 8.18 21.25 13.08z" fill="#768eb2"/><path d="M703.73 194.37c-.98-8.48-1.81-16.93-3.55-25.34 2.65 15.18 3.38 30.47 3.49 45.67.32-6.74.06-13.55.06-20.33z" fill="#768eb2"/><path d="M661.08 382.67l-2.5 9.81.2.1-1.64 4.77c9.72-21.28 17.11-43.59 22.45-66.06-1.54 6.34-3.62 12.73-5.41 19.1-2.18 6.27-4.06 12.66-6.53 18.83 6.6-18.86 11.29-38.18 15.22-57.31-5.38 23.78-11.99 47.9-21.8 70.76z" fill="#768eb2"/><path d="M694.83 227.13c.05-7.25.57-14.4.17-21.47-.12-3.53-.23-7.03-.35-10.49-.32-3.46-.63-6.89-.94-10.27 1.21 14.53.66 29.06-.09 43.49-1.1 14.42-2.78 28.76-5.23 42.94-4.11 24.42-9.98 48.35-17.12 72.07-7.22 23.75-17.09 46.71-29.28 68.38l4.64-7.27 4.35-7.45c2.98-4.94 5.62-10.06 8.29-15.19l.4.18.41.18c3.75-9.18 7.11-18.51 10.05-27.95 2.29-6.4 4.04-13.14 6.09-19.88 1.77-6.77 3.68-13.61 5.3-20.63 3.46-13.96 6.35-28.4 8.69-42.94 2.43-14.53 3.76-29.26 4.63-43.7z" fill="#768eb2"/><path d="M294.86 569.35 255.74 588.75 269.19 583.24 294.86 569.35z" fill="#768eb2"/><path d="M1024.46 647.01c10.33 9.2 21.2 17.31 32.23 24.93 5.53 3.86 11.31 7.8 16.02 13.45 4.82 5.56 7.42 13.43 7.15 20.81.57-6.2-.6-13.15-4.04-18.81-3.33-5.69-7.94-10.07-12.41-13.88-6.63-5.23-12.75-9.85-18.88-15.04-31.18-21.66-61.87-56.76-82.97-98.09l-1.98-3.87-2.5-4.01c-1.93-2.49-4.24-4.72-7-6.3-5.49-3.2-12.14-3.75-18.03-2.25-5.91 1.48-11.32 5-14.67 10.03-3.44 5-4.07 11.53-2.21 17.01 2.51 5.58 5.23 11.01 8.09 16.35 12.4 24.15 27.26 46.97 45.1 67.51 6.62 7.63 13.64 14.98 20.91 22.05-151.36-40.47-300.05-90.74-444.84-150.62-1.92-.79-3.85-1.59-5.77-2.39 1.66-1.19 3.34-2.34 4.98-3.54 37.13-27.23 67.92-59.84 91.59-97.29-5.07 8.52-10.45 16.8-16.2 24.78-5.23 7.21-10.63 14.29-16.37 21.05-2.75 3.45-5.82 6.77-8.69 9.98-2.77 3.18-5.64 6.2-8.53 9.14-11.47 11.86-23.29 22.38-35.22 31.72l-2.91 2.2-.72.54c-.23.1-.07.16.12.22l.47.18 1.88.71-1.75-.73-.44-.18-.22-.09s.11-.09.15-.13l.78-.55 3.14-2.22c15.72-11.39 30.4-24.05 43.81-37.8l5.33-5.56c1.89-1.91 3.62-3.97 5.41-5.97 3.58-4 7.12-8.04 10.44-12.27l5.06-6.27 4.81-6.47c3.28-4.26 6.26-8.74 9.28-13.18 19.97-30.97 35.62-67.42 44.57-102.9 8.6-32.67 13.61-64.09 14.72-89.77 4.9-51.57-.75-103.96-29.46-146.26C626.67 37.15 549.15 5.39 480.88 3.4c.53.0 1.06-.02 1.58-.02 22.9.06 45.02 3.38 65.17 8.39-6.22-1.88-12.52-3.52-18.84-5.05-15.48-3.67-32.26-5.87-49.66-6.39-17.37-.52-35.54 1.1-53.18 5.57-35.48 8.76-67.91 27.78-95.42 48.33 13.64-11.84 28.3-22.64 44.05-31.93 15.75-9.25 32.57-17.14 50.51-22.31-17.22 4.56-33.39 11.72-48.69 19.97-15.26 8.35-29.69 17.96-42.99 28.83-13.35 10.81-25.84 22.55-37.48 35.06-11.53 12.61-22.2 25.99-31.89 40.08-19.67 28.07-33.9 60.49-40.22 94.78-3.15 17.14-4.37 34.74-3.33 52.32 1.09 17.58 4.33 35.11 9.62 52.12 13.15 42.36 37.98 80.24 69.79 112.07 15.92 15.96 33.58 30.5 52.58 43.85 4.68 3.44 9.65 6.5 14.5 9.8 4.8 3.12 9.76 6.11 14.71 9.2 10.06 5.93 20.4 11.83 31.18 17.41l8.49 4.5c3.83 1.78 7.71 3.57 11.57 5.36 3.49 1.72 6.98 3.41 10.47 5.13-44.24 23.45-90.85 42.89-136.29 63.19l-13.25 5.92c16.17-7.5 32.32-14.97 47.98-22.24l-17.91 7.41c-51.03 23-1e2 45.07-148.29 66.84-22.88 10.22-45.64 20.27-68.44 30.15 48.13-22.95 105.65-48.64 158.36-73.15l21.76-10.69-.45-1.01-65.73 31.05 52.06-25.92-35.09 16.4 60.96-29.89-5.15.36-22.71 8.69-17.83 7.48-65.09 32.47-18.07 7.1-74.42 35.42 65.5-31.68-13.47 5.53-78.36 38.39 60.49-30.9-39.45 18.59 26.1-12.87-8.86 3.96-37.51 16.99-18.75 8.5-9.38 4.25-4.69 2.12c-2.07 1.1-4.23 2.35-6.27 3.61-2.01 1.28-4.11 2.61-6.05 4.2-1.72 1.82-3.7 3.63-5.08 5.83 3.28-6.73 9.02-12.25 15.17-15.34l1.13-.64.78-.39 1.56-.78 3.12-1.55 6.24-3.11 24.96-12.42 49.92-24.84 60.87-30.1-75.13 33.79-13.71 4.91 51.27-27.75-100.52 48.29-9.07 3.44c-1.6.62-2.83 1.04-4.72 1.83-2.77 1.33-5.53 2.8-8.19 4.42-2.64 2.04-5.28 4.17-7.62 6.63-2.16 2.7-4.48 5.45-6.04 8.54-1.51 3.11-3.13 6.35-3.8 9.62-.42 1.64-.79 3.3-1.11 4.97-.26 1.64-.31 3.25-.41 4.89-.4-9.66 2.72-21.23 10.37-30.35 1.91-2.09 3.99-4.14 6.17-6.09 2.18-1.83 4.45-3.17 6.83-4.67l3.15-1.83 1.79-1.01c1.2-.67 2.42-1.35 3.64-2.04 9.81-5.49 20.45-11.37 32.21-17.73 23.51-12.71 51.49-27.33 86.27-44.56-22.79 11.3-44.25 21.93-65.58 32.5-10.64 5.32-21.25 10.63-31.97 16-5.37 2.68-10.76 5.37-16.2 8.09-2.72 1.36-5.46 2.72-8.21 4.08l-4.57 2.3c-2.99 1.61-5.92 3.37-8.73 5.28-2.85 2.35-5.62 4.88-8.13 7.61-2.34 3.04-4.67 6.22-6.4 9.62-3.41 6.93-5.31 14.47-5.35 21.55-.03 1.78.0 3.56.07 5.34.18 1.71.45 3.41.74 5.11.49 3.44 1.56 6.65 2.73 9.85 1.06 3.22 2.89 6.21 4.54 9.21 1.91 2.93 4.07 5.79 6.54 8.45 2.78 2.6 5.28 5.2 8.81 7.28 1.69 1.07 3.42 2.08 5.18 3.02 1.83.87 3.84 1.58 5.8 2.26 3.92 1.49 8.11 1.97 12.31 2.3 4.19.33 8.05-.38 12.05-.97 3.66-.85 7-2.11 10.42-3.44 1.64-.78 3.29-1.56 4.94-2.35 3.16-1.52 6.35-3.05 9.57-4.6 25.82-12.37 54.07-25.63 86.02-40.27l9.63-2.11 26.01-13.07c-29.44 17.27-95.08 48.53-120.04 63.8l78.15-38.79c-3.43 4.2-42.52 23.6-54.99 31.35 64.16-32 70.69-42.98 147.16-77.13 1.14-.51 2.31-1.03 3.48-1.55 1.79-.8 3.6-1.61 5.38-2.4 136.15-60.86 138.72-52.62 84.47-21.95l26.05-12.77c49.59-20.62 6.25 2.07 20.44-2.06 28.48-14.42 44.77-24.04 53.04-30.06 8.3-6.03 8.71-8.37 5.9-9.13-5.63-1.46-24.07 2.93-18.93-3.58l3.83-3.31c5.53-3.66 11.06-7.34 16.54-11.11 7.84-4.24 15.64-8.63 23.39-13.13l2.91-1.68 1.71-1.07 3.3-2.07 6.64-4.28 8.46 3.11c-4.52-2.93-4.13-3.43-.47-2.33.92.3 2.03.65 3.29 1.06.64.22 1.32.46 2.03.71 1.01.38 2.06.78 3.15 1.2 4.7 1.81 10.08 3.88 15.64 6.03 22.24 8.55 47.43 17.69 43.45 14.47 36.59 13.43 73.39 25.98 110.2 38.3 19.39 8.09 38.93 16.13 58.52 23.96-41.86-12.69-84.88-25.72-117.01-35.46-32.15-9.56-53.52-15.39-52.28-11.81 37.78 11.43 86.6 28.12 137.64 46.05 12.53 4.35 25.22 8.76 37.91 13.17 34.56 11.99 69.21 23.71 102.83 34.69l6.29 2.05 3.07 1.07c1.87.66 3.73 1.31 5.58 1.96 3.54 1.24 7.05 2.47 10.51 3.69 6.3 2.2 12.43 4.34 18.34 6.39 3.24.48 6.45.95 9.56 1.41 1.67.25 3.32.49 4.94.73.84.13 1.67.25 2.49.37l.31.05s-.06.05-.08.08l-.18.15-.36.31c-4.72 3.44-10.58 8.22-17.85 13.25-4.02 2.77-7.95 5.48-11.78 8.13-2.21 1.48-4.4 2.95-6.56 4.39-1.16.69-2.22 1.62-3.3 2.54-.27.1-1.78 1.81-2.86 2.98-1.12 1.35-2.38 2.28-3.34 3.95-4.33 6.09-6.12 13.27-6.36 19.84-.12 6.64 1.62 12.71 4.25 18.15 2.8 5.39 6.92 10.09 12.06 13.58 5.34 3.42 11.84 4.99 17.9 4.6 1.47-.17 2.89-.51 4.3-.81 1.41-.31 2.81-.62 3.98-1.25 2.33-1.07 5.12-2.34 6.38-3.3 3.18-2.05 6.32-4.07 9.42-6.07 6.2-3.99 12.25-7.88 18.17-11.69 9.81-6.45 19.22-12.64 28.24-18.58 14.9-6.86 29.86-13.6 44.92-20.12 22.45-9.73 69.61-18.84 70.93-49.82.66-15.34-9.18-23.25-20.63-31.54-14.03-10.17-27.6-21.01-39.79-33.37-24.07-24.41-43.38-52.82-57.91-83.79-9.64-20.55-37.76-13.89-42.43 2.86.56-2.35 1.55-4.61 3.03-6.62 4.35-5.54 11.22-9.25 18.59-9.67 7.27-.42 15.42 2.68 19.71 9.44 2.23 3.33 3.71 6.74 5.48 10.15 1.75 3.41 3.6 6.83 5.5 10.29 3.85 6.89 8.05 13.87 12.68 20.92-3.77-5.21-7.34-10.58-10.79-16.03 15.7 27.22 34.38 49.86 54.93 68.35zM604.67 116.02c-1.49-1.37-3-2.76-4.52-4.16-1.47-1.43-2.97-2.87-4.83-4.19-3.55-2.67-6.86-5.62-10.61-7.95 7.34 4.41 14.34 9.56 20.25 14.91 3.05 2.43 5.22 5.65 7.8 8.54 2.69 2.81 4.64 6.2 6.8 9.45-4.1-5.15-9.16-10.92-14.89-16.61zm23.56 31.97h0c-.34-.87-.75-1.71-1.14-2.56.39.85.79 1.69 1.13 2.56zm47.31 184.94c3.19-11.13 6.22-22.71 8.92-34.57-1.43 6.69-2.92 13.31-4.5 19.77-5.21 21.61-11.5 42.12-19.86 61.9-8.31 19.79-18.45 38.94-31.06 57.72-3.15 4.69-6.56 9.29-9.96 13.99-3.63 4.52-7.11 9.28-11.05 13.77-3.89 4.54-7.84 9.16-12.14 13.58-3.82 4.19-7.97 8.17-12.2 12.25-1.75 1.75-3.62 3.4-5.52 5.08 3.97-3.72 7.94-8.21 12.41-12.78 4.08-4.7 9.21-10.12 13.84-15.95 9.54-11.49 18.94-24.26 27.23-37.7 4.74-7.62 9.15-15.41 13.22-23.19 12.81-22.99 23.14-47.63 30.67-73.88zm-404.78-42.27c2.37 10.33 5.8 19.44 9.62 28.28 5.55 11.81 11.83 23.17 19.64 36.37.43.68.87 1.37 1.31 2.07-4.69-5.7-10.15-13.63-14.97-22-1.57-2.68-3.04-5.39-4.46-8.08-4.91-11.88-8.68-24.14-11.13-36.65zm77.85 128.08c-26.72-23.51-49.94-53.37-64.6-86.43 7.44 13.56 16.19 25.77 25.9 36.92-7.62-11.29-14.62-23.04-20.04-35.48-10.72-18.86-17.17-42.55-21.42-58.53-1.67-16.22-1.01-32.74 2.5-49.28 1.62-7.64 3.85-15.22 6.57-22.71.05-.08.09-.17.14-.25.07-.24.14-.48.21-.72 4.39-11.89 10.08-23.51 16.79-34.72-3.5 7.27-6.48 14.5-8.58 21.34l2.81-5.14c9.18-16.64 21.88-36.71 37.26-50.49-3.01 4.47-5.77 9.1-8.59 13.63-2.53 4.73-5.3 9.26-7.58 14.05 10.22-17.27 22.67-33.04 36.8-47.47 14.15-14.43 30-27.6 47.86-39.16 11.24-7 22.83-13.17 35.7-17.61 12.91-4.2 26.74-7 41.54-8.03h2.97c1.95-.23 3.92-.38 5.89-.54 17.75.27 35.64 3.08 52.87 8.09-.28-.06-.56-.14-.84-.19-2.81-.62-5.62-1.25-8.41-1.87-2.82-.42-5.62-.85-8.37-1.26l5.69 1.64c16.63 3.7 32.29 8.96 46.76 16.2 6.91 3.3 13.35 7.39 19.61 11.64-14.26-7.81-31.51-16.22-48.52-20.8-2.37-.59-4.81-.91-7.23-1.28l-.31 1.06c3.59.63 7.09 1.59 10.59 2.58 3.51.98 7.08 1.83 10.49 3.12-5.63-1.64-11.5-2.47-17.15-3.69l11.11 3.18-9.93-2.19c-3.31-.67-6.68-1.06-9.99-1.6l.91 2.09 6.44 3.17 5.15 2.27c7.03 1.17 13.87 3.12 20.85 5.01l4.68 3.38c3.75 1.49 7.5 3.03 11.08 4.9 3.62 1.79 7.34 3.48 10.78 5.62-3.08-1.82-6.36-3.31-9.62-4.8-3.24-1.51-6.43-3.06-9.82-4.25l3.57 2.32 11.74 5.2 11.41 6.05c-6.21-2.84-12.18-5.8-18.54-7.97l5.68 2.86c1.87 1 3.64 2.15 5.47 3.21-2.54-1.29-4.98-2.68-7.65-3.73l2.42 1.44 9.91 6.62c3.19 2.35 6.26 4.85 9.42 7.27.33 1.07.56 2.19.72 3.32-8.92-5.73-18.29-10.87-28.07-14.78-5.8-2.66-11.94-4.58-17.89-6.65l10.24 5.07 9.85 5.71c.98.96 1.83 2.08 2.72 3.13-2.53-.98-5.26-1.61-7.89-2.34-2.66-.68-5.2-1.49-7.87-2.04 9.16 4 18.3 8.44 26.64 14.03 2.24 2.76 4.59 5.47 6.09 8.27-1.14-.49-2.31-.98-3.52-1.5-1.38-.48-2.8-.98-4.27-1.5-2.98-.98-5.82-2.36-9.34-3.4-6.78-2.33-14.48-5.17-23.96-8.21 12.17 4.4 23.16 8.67 34.04 15.45 9.87 6.25 19.8 14.73 27.42 30.42l-.85 2.9c1.37 1.97 2.37 4.22 3.61 6.34-1.65-1.66-3-4.12-4.95-6.4-1.91-2.31-3.82-4.83-5.64-7.29-2.18-2.19-4.28-4.3-6.18-6.08-.48-.43-.94-.85-1.4-1.26-.53-.32-1.04-.63-1.54-.93-.99-.57-1.92-1.02-2.77-1.34 1.17 1.04 2.43 2.03 3.6 3.12l3.15 3.63 3.3 3.66 2.83 4.16c-1.42.06-3.24-2.2-5.63-4.16-2.41-1.96-4.76-4.1-6.33-4.86 2.45 2.84 5.02 4.75 7.3 6.61 2.09 2.01 4.18 3.69 6.28 5.56l1.58 1.45 1.35 1.72c.9 1.2 1.8 2.51 2.69 4 1.95 2.88 3.24 6.87 4.45 12.05l.22.94.35 1.45c.75 4.78 1.21 9.02 1.52 12.68.02 3.78-.09 6.98-.33 9.64-.47 5.32.26 5.43-.08 8.11-.51 4.04.0 6.14-.34 7.57.64 2.32 1.1 1.37 1.53 3.83-.1.9.85 1.7 1.36 3.15.25 1.66.85 3.32.85 3.32.85.68 1.62 1.7 2.34 6.26l1.15 4.54.38 5.19c.26 6.53-.23 6.62-.36 13.27 2.38-4.66 2.37 1.4 1.72 8.4-.47 6.99-1.57 14.9.24 13.78-1.44 11.52-3.49 23.07-5.6 34.61-2.78 5.71-5.32 11.43-8.39 16.91 1.25-6.31 1.9-12.84 2.66-18.9.54-6.29 1.09-12.21 1.09-17.27.19-10.13-1-16.84-3.95-16.71.45 5.84-.13 12.55-1.12 19.73-.58 3.6-1.28 7.31-2.08 11.1-.81 3.77-1.81 7.32-2.82 11.05-.92 3.64-2.3 7.18-3.5 10.78-6.99 19.47-17.44 37.34-27.65 51.65-3.76 13.44-7.85 25.73-12.03 36.95-4.04 11.34-8.24 21.54-11.89 31.23-1.35 3.69-2.65 7.24-3.89 10.73-10.18 9.85-21.09 19.16-32.78 27.88-9.5 7.09-19.28 13.75-29.24 20.13-12.93-5.7-25.77-11.63-38.42-17.89 1.23.5 2.46 1 3.7 1.5 8 3.25 16.16 6.44 25.25 10.45l-5.42-1.5c4.35 1.88 8.53 3.57 12.53 5.12l1.49.58.74.28.66-.51 2.61-2.02c1.71-1.33 3.39-2.65 5.06-3.96 6.64-5.24 12.32-9.97 18.78-15.22l-9.39 4.31-5.62 3.07c-1.91 1.86-4.02 3.8-6.3 5.84-1.16 1.02-2.33 2.05-3.52 3.09l-1.84 1.58c-.32.15-.6.79-.96.54l-1.05-.33c-5.65-1.78-11.81-3.92-18.18-6.28-8.39-3.12-16.99-6.57-25.2-9.9-34.44-17.48-67.32-37.69-96.46-63.34zM85.63 758.57c-6.41 3.02-13 6.12-19.74 9.3l-.63.3-1.09.42-2.2.8c-1.48.52-2.97 1-4.48 1.45-1.63.32-3.36.52-5.05.71-1.71.16-3.39.38-5.21.13-7.24-.23-14.23-3.29-19.84-7.41-10.72-8.76-16.25-21.21-15.6-34.92.44-6.78 2.58-14.14 7.14-20.03 2.04-3.17 4.83-5.39 7.55-7.77 1.38-1.15 2.84-1.86 4.3-2.76l2.21-1.24c.69-.37 1.65-.9 1.97-1.02 14.56-6.58 29.19-13.18 43.54-19.66l-41.66 19.58-1.3.61-.65.31-1.02.55c-1.4.77-2.78 1.57-4.14 2.4l-2.02 1.27-1.93 1.64c-1.27 1.12-2.51 2.29-3.7 3.48-4.44 5.21-7.9 11.71-8.76 18.3-.36 1.65-.54 3.28-.51 4.88-.02 1.61-.06 3.23.04 4.82.46 3.09.8 6.26 1.91 9.14 1.77 5.92 5.13 11.3 9.56 15.95 4.22 4.44 10 7.92 16.44 9.71 3.18.68 6.64 1.19 9.8 1.02 3.14-.3 6.5-.53 9.16-1.6 1.4-.45 2.8-.94 4.18-1.45.79-.28 1.23-.48 1.6-.66l1.24-.57 4.96-2.27 9.91-4.55 39.65-18.19c-10.83 5.45-22.83 11.27-35.62 17.35zm39.73-19.92c18.14-8.4 36.37-16.66 54.71-24.85h.02c-18.36 8.19-36.59 16.46-54.73 24.85z" fill="#768eb2"/></g></g></g></svg>