<svg id="_лой_2" xmlns="http://www.w3.org/2000/svg" width="912.62" height="1080" viewBox="0 0 912.62 1080"><g id="Contour26_275028902"><path id="Contour26_275028902-2" d="M595.51 1080c-2.2.0-4.39-.57-6.32-1.69l-308.71-178.23c-2.9-1.68-5.03-4.45-5.89-7.69-.87-3.24-.41-6.69 1.25-9.59l87.72-151.92H12.64c-6.98.0-12.64-5.66-12.64-12.64V361.77c0-6.98 5.66-12.64 12.64-12.64H363.56l-87.72-151.92c-1.67-2.9-2.12-6.35-1.25-9.59.86-3.24 2.98-6.01 5.89-7.69L589.18 1.69c2.9-1.67 6.36-2.13 9.59-1.25 3.24.86 6.01 2.98 7.69 5.89l304.47 527.36c2.25 3.91 2.25 8.73.0 12.64l-304.47 527.36c-1.68 2.9-4.45 5.03-7.69 5.89-1.08.3-2.17.43-3.27.43zM304.08 884.5l286.8 165.58L885.38 540 590.87 29.92 304.07 195.5l92.34 159.94c2.25 3.91 2.25 8.73.0 12.64-2.26 3.91-6.44 6.32-10.95 6.32H25.29v331.18H385.46c4.51.0 8.69 2.41 10.95 6.32 2.25 3.91 2.25 8.73.0 12.64l-92.34 159.94z" fill="#a331fd"/></g></svg>