<svg id="_лой_2" xmlns="http://www.w3.org/2000/svg" width="1080" height="1002.86" viewBox="0 0 1080 1002.86"><g id="Contour02_275028902"><path id="Contour02_275028902-2" d="M983.67 1002.86H96.33c-30.69.0-58.81-14.11-77.16-38.71-18.34-24.6-23.85-55.57-15.1-84.98L169.19 323.89c12.05-40.51 49.99-68.82 92.27-68.82h50.61v-27.14C312.07 102.24 414.32.0 540 0s227.93 102.24 227.93 227.93v27.14h50.61c42.27.0 80.22 28.3 92.27 68.82l165.12 555.28h0c8.74 29.42 3.24 60.39-15.1 84.98-18.35 24.6-46.47 38.71-77.16 38.71zM261.46 282.81c-30.09.0-57.1 20.14-65.68 48.99L30.66 887.08c-6.23 20.94-2.31 42.99 10.75 60.5 13.06 17.5 33.08 27.54 54.93 27.54H983.67c21.85.0 41.86-10.04 54.93-27.54 13.06-17.51 16.97-39.56 10.75-60.5l-165.13-555.28c-8.58-28.84-35.58-48.99-65.67-48.99h-64.48c-7.66.0-13.87-6.21-13.87-13.87v-41.01c0-110.38-89.81-200.19-200.19-200.19s-200.19 89.81-200.19 200.19v41.01c0 7.66-6.21 13.87-13.87 13.87h-64.48zm402.51.0h-247.92c-7.66.0-13.87-6.21-13.87-13.87v-41.01c0-76 61.83-137.83 137.83-137.83s137.83 61.83 137.83 137.83v41.01c0 7.66-6.21 13.87-13.87 13.87zm-234.05-27.74h220.19v-27.14c0-60.7-49.39-110.09-110.09-110.09s-110.09 49.39-110.09 110.09v27.14z" fill="#fad811"/></g></svg>