<svg id="_лой_2" xmlns="http://www.w3.org/2000/svg" width="1067.49" height="1067.49" viewBox="0 0 1067.49 1067.49"><g id="Forme08_568121346"><g id="Forme08_568121346-2"><path d="M624.01 533.74l.15.79.46.8.77.81 1.1.84 1.43.87 1.79.92 2.17.97 2.58 1.04 3.03 1.12 3.52 1.22 4.06 1.34 4.67 1.47 5.36 1.64 6.14 1.83 7.04 2.06 8.07 2.33 9.27 2.66 10.68 3.05 12.34 3.52 14.31 4.09 16.67 4.79 19.53 5.66 23.01 6.73 27.31 8.07 32.66 9.76 39.37 11.92 47.77 14.67 57.21 17.92 58.56 19.35 22.45 10.79-21.09-.85-29.56-3.65-27.01-3.43-23.53-2.85-20.38-2.29-17.61-1.76-15.15-1.25-12.96-.77-10.99-.3-9.19.16-7.54.61-6 1.08-4.55 1.55-3.17 2.04-1.83 2.55-.51 3.1.8 3.68 2.12 4.31 3.48 5.01 4.9 5.77 6.39 6.61 7.99 7.56 9.71 8.62 11.6 9.83 13.69 11.21 16.03 12.79 18.66 14.62 21.52 16.67 23.48 18.32 15.51 14.32-23.5-8.24-55.09-27.72-53.12-27.78-44.16-23.41-36.27-19.41-29.99-16.19-25.02-13.61-21.03-11.52-17.81-9.81-15.18-8.4-13.01-7.22-11.21-6.23-9.71-5.4-8.44-4.68-7.36-4.06-6.43-3.52-5.64-3.05-4.95-2.63-4.35-2.26-3.82-1.93-3.35-1.63-2.93-1.35-2.56-1.09-2.22-.85-1.91-.62-1.63-.4-1.37-.18-1.12.03-.89.24-.67.45-.45.67-.24.89-.03 1.12.18 1.37.4 1.63.62 1.91.85 2.22 1.09 2.56 1.35 2.93 1.63 3.35 1.93 3.82 2.26 4.35 2.63 4.95 3.05 5.64 3.52 6.43 4.06 7.36 4.68 8.44 5.4 9.71 6.23 11.21 7.22 13.01 8.4 15.18 9.81 17.81 11.52 21.03 13.61 25.02 16.19 29.99 19.41 36.27 23.41 44.16 27.78 53.12 27.72 55.09 8.24 23.5-14.32-15.51-18.32-23.48-16.67-21.52-14.62-18.66-12.79-16.03-11.21-13.69-9.83-11.6-8.62-9.71-7.56-7.99-6.61-6.39-5.77-4.9-5.01-3.48-4.31-2.12-3.68-.8-3.1.51-2.55 1.83-2.04 3.17-1.55 4.55-1.08 6-.61 7.54-.16 9.19.3 10.99.77 12.96 1.25 15.15 1.76 17.61 2.29 20.38 2.85 23.53 3.43 27.01 3.65 29.56.85 21.09-10.79-22.45-19.35-58.56-17.92-57.21-14.67-47.77-11.92-39.37-9.76-32.66-8.07-27.31-6.73-23.01-5.66-19.53-4.79-16.67-4.09-14.31-3.52-12.34-3.05-10.68-2.66-9.27-2.33-8.07-2.06-7.04-1.83-6.14-1.64-5.36-1.47-4.67-1.34-4.06-1.22-3.52-1.12-3.03-1.04-2.58-.97-2.17-.92-1.79-.87-1.43-.84-1.1-.81-.77-.8-.46-.79-.15-.79.15-.8.46-.81.77-.84 1.1-.87 1.43-.92 1.79-.97 2.17-1.04 2.58-1.12 3.03-1.22 3.52-1.34 4.06-1.47 4.67-1.64 5.36-1.83 6.14-2.06 7.04-2.33 8.07-2.66 9.27-3.05 10.68-3.52 12.34-4.09 14.31-4.79 16.67-5.66 19.53-6.73 23.01-8.07 27.31-9.76 32.66-11.92 39.37-14.67 47.77-17.92 57.21-19.35 58.56-10.79 22.45.85-21.09 3.65-29.56 3.43-27.01 2.85-23.53 2.29-20.38 1.76-17.61 1.25-15.15.77-12.96.3-10.99-.16-9.19-.61-7.54-1.08-6-1.55-4.55-2.04-3.17-2.55-1.83-3.1-.51-3.68.8-4.31 2.12-5.01 3.48-5.77 4.9-6.61 6.39-7.56 7.99-8.62 9.71-9.83 11.6-11.21 13.69-12.79 16.03-14.62 18.66-16.67 21.52-18.32 23.48-14.32 15.51 8.24-23.5 27.72-55.09 27.78-53.12 23.41-44.16 19.41-36.27 16.19-29.99 13.61-25.02 11.52-21.03 9.81-17.81 8.4-15.18 7.22-13.01 6.23-11.21 5.4-9.71 4.68-8.44 4.06-7.36 3.52-6.43 3.05-5.64 2.63-4.95 2.26-4.35 1.93-3.82 1.63-3.35 1.35-2.93 1.09-2.56.85-2.22.62-1.91.4-1.63.18-1.37-.03-1.12-.24-.89-.45-.67-.67-.45-.89-.24-1.12-.03-1.37.18-1.63.4-1.91.62-2.22.85-2.56 1.09-2.93 1.35-3.35 1.63-3.82 1.93-4.35 2.26-4.95 2.63-5.64 3.05-6.43 3.52-7.36 4.06-8.44 4.68-9.71 5.4-11.21 6.23-13.01 7.22-15.18 8.4-17.81 9.81-21.03 11.52-25.02 13.61-29.99 16.19-36.27 19.41-44.16 23.41-53.12 27.78-55.09 27.72-23.5 8.24 15.51-14.32 23.48-18.32 21.52-16.67 18.66-14.62 16.03-12.79 13.69-11.21 11.6-9.83 9.71-8.62 7.99-7.56 6.39-6.61 4.9-5.77 3.48-5.01 2.12-4.31.8-3.68-.51-3.1-1.83-2.55-3.17-2.04-4.55-1.55-6-1.08-7.54-.61-9.19-.16-10.99.3-12.96.77-15.15 1.25-17.61 1.76-20.38 2.29-23.53 2.85-27.01 3.43-29.56 3.65-21.09.85 22.45-10.79 58.56-19.35 57.21-17.92 47.77-14.67 39.37-11.92 32.66-9.76 27.31-8.07 23.01-6.73 19.53-5.66 16.67-4.79 14.31-4.09 12.34-3.52 10.68-3.05 9.27-2.66 8.07-2.33 7.04-2.06 6.14-1.83 5.36-1.64 4.67-1.47 4.06-1.34 3.52-1.22 3.03-1.12 2.58-1.04 2.17-.97 1.79-.92 1.43-.87 1.1-.84.77-.81.46-.8.15-.79-.15-.79-.46-.8-.77-.81-1.1-.84-1.43-.87-1.79-.92-2.17-.97-2.58-1.04-3.03-1.12-3.52-1.22-4.06-1.34-4.67-1.47-5.36-1.64-6.14-1.83-7.04-2.06-8.07-2.33-9.27-2.66-10.68-3.05-12.34-3.52-14.31-4.09-16.67-4.79-19.53-5.66-23.01-6.73-27.31-8.07-32.66-9.76-39.37-11.92-47.77-14.67-57.21-17.92-58.56-19.35L0 390.73l21.09.85 29.56 3.65 27.01 3.43 23.53 2.85 20.38 2.29 17.61 1.76 15.15 1.25 12.96.77 10.99.3 9.19-.16 7.54-.61 6-1.08 4.55-1.55 3.17-2.04 1.83-2.55.51-3.1-.8-3.68-2.12-4.31-3.48-5.01-4.9-5.77-6.39-6.61-7.99-7.56-9.71-8.62-11.6-9.83-13.69-11.21-16.03-12.79-18.66-14.62-21.52-16.67-23.48-18.32-15.51-14.32 23.5 8.24 55.09 27.72 53.12 27.78 44.16 23.41 36.27 19.41 29.99 16.19 25.02 13.61 21.03 11.52 17.81 9.81 15.18 8.4 13.01 7.22 11.21 6.23 9.71 5.4 8.44 4.68 7.36 4.06 6.43 3.52 5.64 3.05 4.95 2.63 4.35 2.26 3.82 1.93 3.35 1.63 2.93 1.35 2.56 1.09 2.22.85 1.91.62 1.63.4 1.37.18 1.12-.03.89-.24.67-.45.45-.67.24-.89.03-1.12-.18-1.37-.4-1.63-.62-1.91-.85-2.22-1.09-2.56-1.35-2.93-1.63-3.35-1.93-3.82-2.26-4.35-2.63-4.95-3.05-5.64-3.52-6.43-4.06-7.36-4.68-8.44-5.4-9.71-6.23-11.21-7.22-13.01-8.4-15.18-9.81-17.81-11.52-21.03-13.61-25.02-16.19-29.99-19.41-36.27-23.41-44.16-27.78-53.12-27.72-55.09-8.24-23.5 14.32 15.51 18.32 23.48 16.67 21.52 14.62 18.66 12.79 16.03 11.21 13.69 9.83 11.6 8.62 9.71 7.56 7.99 6.61 6.39 5.77 4.9 5.01 3.48 4.31 2.12 3.68.8 3.1-.51 2.55-1.83 2.04-3.17 1.55-4.55 1.08-6 .61-7.54.16-9.19-.3-10.99-.77-12.96-1.25-15.15-1.76-17.61-2.29-20.38-2.85-23.53-3.43-27.01-3.65-29.56-.85-21.09 10.79 22.45 19.35 58.56 17.92 57.21 14.67 47.77 11.92 39.37 9.76 32.66 8.07 27.31 6.73 23.01 5.66 19.53 4.79 16.67 4.09 14.31 3.52 12.34 3.05 10.68 2.66 9.27 2.33 8.07 2.06 7.04 1.83 6.14 1.64 5.36 1.47 4.67 1.34 4.06 1.22 3.52 1.12 3.03 1.04 2.58.97 2.17.92 1.79.87 1.43.84 1.1.81.77.8.46.79.15.79-.15.8-.46.81-.77.84-1.1.87-1.43.92-1.79.97-2.17 1.04-2.58 1.12-3.03 1.22-3.52 1.34-4.06 1.47-4.67 1.64-5.36 1.83-6.14 2.06-7.04 2.33-8.07 2.66-9.27 3.05-10.68 3.52-12.34 4.09-14.31 4.79-16.67 5.66-19.53 6.73-23.01 8.07-27.31 9.76-32.66 11.92-39.37 14.67-47.77 17.92-57.21 19.35-58.56 10.79-22.45-.85 21.09-3.65 29.56-3.43 27.01-2.85 23.53-2.29 20.38-1.76 17.61-1.25 15.15-.77 12.96-.3 10.99.16 9.19.61 7.54 1.08 6 1.55 4.55 2.04 3.17 2.55 1.83 3.1.51 3.68-.8 4.31-2.12 5.01-3.48 5.77-4.9 6.61-6.39 7.56-7.99 8.62-9.71 9.83-11.6 11.21-13.69 12.79-16.03 14.62-18.66 16.67-21.52 18.32-23.48 14.32-15.51-8.24 23.5-27.72 55.09-27.78 53.12-23.41 44.16-19.41 36.27-16.19 29.99-13.61 25.02-11.52 21.03-9.81 17.81-8.4 15.18-7.22 13.01-6.23 11.21-5.4 9.71-4.68 8.44-4.06 7.36-3.52 6.43-3.05 5.64-2.63 4.95-2.26 4.35-1.93 3.82-1.63 3.35-1.35 2.93-1.09 2.56-.85 2.22-.62 1.91-.4 1.63-.18 1.37.03 1.12.24.89.45.67.67.45.89.24 1.12.03 1.37-.18 1.63-.4 1.91-.62 2.22-.85 2.56-1.09 2.93-1.35 3.35-1.63 3.82-1.93 4.35-2.26 4.95-2.63 5.64-3.05 6.43-3.52 7.36-4.06 8.44-4.68 9.71-5.4 11.21-6.23 13.01-7.22 15.18-8.4 17.81-9.81 21.03-11.52 25.02-13.61 29.99-16.19 36.27-19.41 44.16-23.41 53.12-27.78 55.09-27.72 23.5-8.24-15.51 14.32-23.48 18.32-21.52 16.67-18.66 14.62-16.03 12.79-13.69 11.21-11.6 9.83-9.71 8.62-7.99 7.56-6.39 6.61-4.9 5.77-3.48 5.01-2.12 4.31-.8 3.68.51 3.1 1.83 2.55 3.17 2.04 4.55 1.55 6 1.08 7.54.61 9.19.16 10.99-.3 12.96-.77 15.15-1.25 17.61-1.76 20.38-2.29 23.53-2.85 27.01-3.43 29.56-3.65 21.09-.85-22.45 10.79-58.56 19.35-57.21 17.92-47.77 14.67-39.37 11.92-32.66 9.76-27.31 8.07-23.01 6.73-19.53 5.66-16.67 4.79-14.31 4.09-12.34 3.52-10.68 3.05-9.27 2.66-8.07 2.33-7.04 2.06-6.14 1.83-5.36 1.64-4.67 1.47-4.06 1.34-3.52 1.22-3.03 1.12-2.58 1.04-2.17.97-1.79.92-1.43.87-1.1.84-.77.81-.46.8-.15.79" fill="#fddebf"/></g></g></svg>