<svg xmlns="http://www.w3.org/2000/svg" width="587.14" height="1080" viewBox="0 0 587.14 1080"><g id="a"/><g id="b"><g id="c"><g id="d"><path d="M587.14 707.78v284.18c0 48.62-22.28 88.03-49.77 88.03H49.75c-27.47.0-49.75-39.41-49.75-88.03V707.78c0-43.36 17.86-80.27 42.04-86.94l39.15-10.82 38.52-10.67 23.56-6.51c3.49-.97 6.92-2.58 10.18-4.78l3.53-2.42 2.17-1.47c1.34-.93 2.65-1.85 3.93-2.81.63-.49 1.27-.97 1.89-1.46 1.16-.9 2.3-1.84 3.42-2.78.77-.67 1.54-1.32 2.28-2.03 2.88-2.56 5.6-5.27 8.16-8.12.81-.9 1.6-1.8 2.37-2.73.79-.93 1.58-1.88 2.33-2.84.7-.88 1.38-1.79 2.04-2.69.9-1.18 1.73-2.36 2.56-3.6.62-.9 1.21-1.82 1.8-2.74.66-1.03 1.32-2.09 1.94-3.14.61-1.06 1.23-2.13 1.82-3.21.02-.04.07-.11.09-.15 1.14-2.1 2.22-4.26 3.23-6.44 2.37-5.07 4.35-10.36 5.88-15.77 1.52-5.18 2.61-10.51 3.34-15.93l1.78-13.61c4.59-34.52 25.21-64.82 55.69-81.67l26.4-14.61v-2.39l2.17 1.21 2.13-1.21v2.39l26.42 14.61c30.46 16.85 51.11 47.15 55.68 81.67l1.53 11.68c.77 5.7 1.96 11.33 3.58 16.77.33 1.13.68 2.25 1.08 3.37.29.92.62 1.84.95 2.76.32.92.68 1.84 1.03 2.76.04.1.07.19.11.27.35.85.7 1.71 1.05 2.56 1.74 4.08 3.71 8.08 5.92 11.91.79 1.36 1.58 2.7 2.43 4.02.42.67.84 1.32 1.28 1.97.44.67.88 1.3 1.32 1.94.44.63.87 1.27 1.36 1.9.86 1.18 1.76 2.35 2.68 3.51.11.17.26.35.4.52.83 1.03 1.69 2.07 2.52 3.05.96 1.09 1.93 2.18 2.92 3.24.33.35.66.7.99 1.02.9.97 1.84 1.89 2.78 2.81l.2.2c.99.95 1.98 1.89 3.01 2.79 1.3 1.16 2.61 2.3 3.97 3.4 1.12.9 2.26 1.8 3.45 2.68.16.12.31.24.48.35 1.16.88 2.37 1.74 3.6 2.56l8.53 5.85c3.27 2.2 6.69 3.81 10.18 4.78l22.23 6.14 79 21.86c24.18 6.67 42.07 43.58 42.07 86.94z" fill="#c6825c"/><path d="M459.98 289.04h.24l-34.26 133.17c-5.77 22.47-18.5 42.5-36.38 57.29l-23.75 19.62c-3.4 2.81-6.96 5.4-10.66 7.73-17.6 11.34-38.14 17.41-59.27 17.41h-7.26c-19.6.0-38.69-5.22-55.41-15.02-5.09-2.94-9.96-6.35-14.52-10.12l-23.75-19.62c-17.89-14.79-30.61-34.82-36.41-57.29l-34.23-133.18h.24c-3.1-8.95-5.62-18.26-7.51-27.8-2.68-13.46-4.11-27.44-4.11-41.76.0-100.71 69.24-183.74 158.42-195.04 4.59-.6 9.22-.98 13.89-1.18 2.33-.14 4.67-.17 7.02-.17 7.52.0 14.94.5 22.23 1.51 88.52 11.99 157.05 94.67 157.05 194.89.0 24.51-4.12 47.94-11.58 69.57z" fill="#d68e61"/><g><path d="M471.08 324.22c-6.19 26.89-18.39 47.03-27.22 45-8.84-2.04-10.98-25.48-4.79-52.37 6.19-26.89 18.38-47.03 27.22-45 8.84 2.04 10.99 25.48 4.79 52.37z" fill="#d68e61"/><path d="M116.06 324.22c6.2 26.89 18.38 47.03 27.22 45 8.84-2.04 10.98-25.48 4.79-52.37-6.19-26.89-18.38-47.03-27.22-45-8.84 2.04-10.99 25.48-4.79 52.37z" fill="#d68e61"/></g><path d="M587.14 707.78v284.18c0 48.62-22.28 88.03-49.77 88.03H49.75c-27.47.0-49.75-39.41-49.75-88.03V707.78c0-43.36 17.86-80.27 42.04-86.94l39.15-10.82 38.52-10.67 23.56-6.51c3.49-.97 6.92-2.58 10.18-4.78l3.53-2.42 2.17-1.47c1.34-.93 2.65-1.85 3.93-2.81.63-.49 1.27-.97 1.89-1.46 1.16-.9 2.3-1.84 3.42-2.78.77-.67 1.54-1.32 2.28-2.03 2.88-2.56 5.6-5.27 8.16-8.12.81-.9 1.6-1.8 2.37-2.73l113.14 97.35 116.26-91.17c.99.95 1.98 1.89 3.01 2.79 1.3 1.16 2.61 2.3 3.97 3.4 1.12.9 2.26 1.8 3.45 2.68.16.12.31.24.48.35 1.16.88 2.37 1.74 3.6 2.56l8.53 5.85c3.27 2.2 6.69 3.81 10.18 4.78l22.23 6.14 79 21.86c24.18 6.67 42.07 43.58 42.07 86.94z" fill="#e6e7e8"/><path d="M187.02 549.26 268.9 617.63 227.94 709.8 168.41 577.13 187.02 549.26z" fill="#d0d2d3"/><path d="M399.52 549.26 317.63 617.63 358.59 709.8 418.12 577.13 399.52 549.26z" fill="#d0d2d3"/><path d="M263.64 627.6 322.34 628.15 335.51 659.42 293.81 698.37 251.02 658.33 263.64 627.6z" fill="#404041"/><path d="M293.02 1076.9 318.5 1007.24 308.19 670.4 293.02 667.23V667.1L292.71 667.17 292.41 667.1V667.23L277.24 670.4 266.93 1007.24 292.41 1076.9V1078.56L292.71 1077.72 293.02 1078.56V1076.9z" fill="#404041"/><path d="M117.31 271.85s99.45-55.69 124.27-119.33c0 0 88.02 116.31 223.42 116.31.0.0 52.67-76.87-1.67-166.78C398.34-5.48 300.25-25.23 194.19 29.63c0 0-141.21 52.67-76.88 242.22z" fill="#614219"/><g><path d="M418.25 577.13 432.73 760.37 355.93 815.23 423.95 927.15 293.14 1078.56 329.59 808.65 418.25 577.13z" fill="#d0d2d3"/><path d="M167.18 577.13 152.7 760.37 229.5 815.23 161.48 927.15 292.29 1078.56 255.84 808.65 167.18 577.13z" fill="#d0d2d3"/></g><path d="M419.44 834.98h96.55v8.78H419.44z" fill="#d0d2d3"/><path d="M82.6 688.03l-15.36-.15c.01-1.72.57-42.6 17.1-84.34 22.41-56.63 67.16-87.59 122.25-88.22l-3.6 16.06c-48.92.56-83.98 26.61-104.22 77.45-15.58 39.1-16.16 78.8-16.16 79.2z" fill="#58595b"/><g><path d="M131.97 705.51c0 32.12-26.03 58.16-58.15 58.16s-58.15-26.04-58.15-58.16 26.04-58.15 58.15-58.15 58.15 26.03 58.15 58.15z" fill="#e6e7e8"/><path d="M131.97 705.51c0 32.12-26.03 58.16-58.15 58.16s-58.15-26.04-58.15-58.16 26.04-58.15 58.15-58.15 58.15 26.03 58.15 58.15z" fill="#bbbdbf"/><path d="M114.42 705.51c0 22.42-18.17 40.61-40.6 40.61s-40.59-18.19-40.59-40.61 18.17-40.59 40.59-40.59 40.6 18.17 40.6 40.59z" fill="#929497"/><path d="M103.44 705.51c0 16.36-13.26 29.63-29.63 29.63s-29.62-13.27-29.62-29.63 13.26-29.63 29.62-29.63 29.63 13.27 29.63 29.63z" fill="#58595b"/></g><path d="M504.48 692.17l15.36-.14c-.02-1.73-.58-42.62-17.1-84.35-22.42-56.63-67.16-87.58-122.25-88.21l3.6 16.05c48.92.56 83.98 26.63 104.22 77.45 15.57 39.1 16.16 78.8 16.16 79.2z" fill="#58595b"/><path d="M496.73 685.03h30.48c.27.0.49.22.49.49v16.58c0 .27-.22.49-.49.49h-30.48c-.27.0-.49-.22-.49-.49v-16.58c0-.27.22-.49.49-.49z" fill="#58595b"/><rect x="504.29" y="697.46" width="15.36" height="17.55" rx=".34" ry=".34" fill="#929497"/><g><path d="M462.17 887.8c-25-63.06-27.91-112.47-8.65-146.84 18.77-33.49 51.56-39.53 52.95-39.77l1.5 8.65-.75-4.33.76 4.33c-.3.05-30.23 5.7-46.88 35.55-17.81 31.95-14.7 78.78 9.24 139.17l-8.16 3.24z" fill="#929497"/><path d="M458.7 872.29h18.05c.27.0.49.22.49.49v15.11c0 .27-.22.49-.49.49h-18.04c-.27.0-.49-.22-.49-.49v-15.11c0-.27.22-.49.49-.49z" fill="#bbbdbf"/></g><g><path d="M557.76 887.8l-8.16-3.24c23.98-60.49 27.06-107.37 9.16-139.32-16.75-29.88-46.49-35.35-46.79-35.4l1.49-8.65c1.39.24 34.18 6.29 52.95 39.77 19.26 34.37 16.35 83.78-8.66 146.84z" fill="#929497"/><path d="M543.19 872.29h18.05c.27.0.49.22.49.49v15.11c0 .27-.22.49-.49.49H543.2c-.27.0-.49-.22-.49-.49v-15.11c0-.27.22-.49.49-.49z" transform="translate(1104.44 1760.66) rotate(180)" fill="#bbbdbf"/></g></g></g></g></svg>