<svg xmlns="http://www.w3.org/2000/svg" width="814.19" height="1080" viewBox="0 0 814.19 1080"><g id="a"/><g id="b"><g id="c"><g id="d"><path d="M103.09 805.09c47.2 6.5 209.3 27.96 280.28 13.39 10.19-2.09 17.93-12.78 23.73-29.52 5.81 16.74 13.55 27.44 23.73 29.52 70.98 14.56 233.08-6.89 280.28-13.39l12.74-441.61-316.75 9.11h0l-316.75-9.11 12.74 441.61z" fill="#ccc" fill-rule="evenodd"/><path d="M715.01 993.76l-11.26-150.94c-4.91-65.81-80.12-104.92-146.09-104.92H262.14c-69.07.0-139.86 42.93-145.14 108.7l-12.1 150.57c88.47 52.6 191.8 82.83 302.2 82.83s218.2-31.52 307.92-86.24z" fill="#333" fill-rule="evenodd"/><path d="M318.93 674.98h176.34c.74 2.1-.97 4.91-.39 7.06v49.7c-10.88 39.58-44.74 71.82-87.79 71.82s-79.28-32.93-90.16-72.52v-49.69c.59-2.15 1.25-4.27 2-6.37z" fill="#f2d291" fill-rule="evenodd"/><path d="M321.31 689.08l173.96-14.1c.74 2.1-1.01 4.22-.41 6.37v49.69c-8.98 32.62-29.34 60.65-62.36 68.6l-111.19-110.56z" fill="#d4a15e" fill-rule="evenodd"/><path d="M407.09 61.46c63.39 1.38 254.35 7.46 257.67 230.11 3.32 222.64-44.33 304.29-74.41 337.58-30.08 33.3-61.33 63.43-123.05 79.43-16.12 16.13-33.13 22.3-60.21 25.79-27.07-3.49-44.09-9.66-60.19-25.79-61.72-16-92.98-46.12-123.06-79.43-30.07-33.29-77.72-114.94-74.4-337.58 3.32-222.65 194.28-228.73 257.66-230.11z" fill="#f2d291" fill-rule="evenodd"/><path d="M407.09 246.72c-72.3-41.27-203.27-53.24-255.95 14.64C33.89 175.98 129.36-73.08 407.09 20.84V246.72z" fill="#fcfcfc" fill-rule="evenodd"/><path d="M146.15 543.11c19.88 15.18 32.73 39.13 32.73 66.07.0 45.87-37.2 83.07-83.07 83.07s-83.07-37.2-83.07-83.07c0-20.64 7.53-39.51 19.99-54.04C12.83 539.96.0 516.02.0 489.07s12.76-50.75 32.55-65.94c-15.57-15.1-25.26-36.24-25.26-59.65.0-29.9 15.8-56.1 39.5-70.73-11.07-14.11-17.66-31.89-17.66-51.2.0-45.88 37.2-83.07 83.07-83.07s83.06 37.19 83.06 83.07c0 29.9-15.8 56.1-39.5 70.73 11.07 14.11 17.66 31.88 17.66 51.2.0 26.86-12.75 50.75-32.54 65.94 15.57 15.1 25.27 36.23 25.27 59.65.0 20.63-7.54 39.51-19.99 54.04z" fill="#fcfcfc" fill-rule="evenodd"/><path d="M407.09 246.72c72.3-41.27 203.28-53.24 255.97 14.64 117.25-85.38 21.79-334.45-255.97-240.53V246.72z" fill="#fcfcfc" fill-rule="evenodd"/><path d="M668.05 543.11c-19.88 15.18-32.73 39.13-32.73 66.07.0 45.87 37.2 83.07 83.07 83.07s83.07-37.2 83.07-83.07c0-20.64-7.54-39.51-20-54.04 19.9-15.19 32.73-39.13 32.73-66.07s-12.75-50.75-32.54-65.94c15.59-15.1 25.27-36.24 25.27-59.65.0-29.9-15.8-56.1-39.5-70.73 11.07-14.11 17.66-31.89 17.66-51.2.0-45.88-37.2-83.07-83.07-83.07s-83.07 37.19-83.07 83.07c0 29.9 15.8 56.1 39.5 70.73-11.05 14.11-17.65 31.88-17.65 51.2.0 26.86 12.75 50.75 32.55 65.94-15.57 15.1-25.27 36.23-25.27 59.65.0 20.63 7.53 39.51 19.99 54.04z" fill="#fcfcfc" fill-rule="evenodd"/><path d="M184.03 404.99c-5.72-14.83-12.74-25.16-31.12-29.02-18.38-3.87-51.78 5.49-51.71 57.62.08 52.14 43.54 96.94 71.05 90.73 27.49-6.21 14.42-105.43 11.78-119.33z" fill="#f2d291" fill-rule="evenodd"/><path d="M626.02 405.36c7.61-14.08 16.88-25.54 35.26-29.39 18.39-3.87 51.79 5.49 51.71 57.62-.08 52.14-43.54 96.94-71.03 90.73-27.49-6.21-15.93-118.95-15.93-118.95z" fill="#f2d291" fill-rule="evenodd"/><path d="M329.06 771.52 272.99 1007.53 401.16 1033.58H413.03L541.21 1007.53 485.14 771.52 403.72 766.71 329.06 771.52z" fill="#fcfcfc" fill-rule="evenodd"/><path d="M290.62 989.75c-11.16-2.66-80.65-29.78-80.65-29.78l106.97-227.52 29.54 38.05-55.86 219.25z" fill="#fcfcfc" fill-rule="evenodd"/><path d="M523.59 989.75c11.16-2.66 80.65-29.78 80.65-29.78L494.86 732.45l-27.13 38.05 55.86 219.25z" fill="#fcfcfc" fill-rule="evenodd"/><g><path d="M693.88 1006.03 656 770.66c98.6-16.89 146.63 76.01 153.85 120.64l4.31 26.64c-36.1 34.15-76.49 63.81-120.28 88.08z" fill="#333" fill-rule="evenodd"/><path d="M120.31 1006.04l37.88-235.38c-98.59-16.89-146.62 76.01-153.85 120.64L.03 917.94c36.1 34.15 76.49 63.81 120.28 88.1z" fill="#333" fill-rule="evenodd"/></g><path d="M716.05 638.96c45.87.0 83.07 37.19 83.07 83.07s-37.2 83.06-83.07 83.06-83.07-37.19-83.07-83.06 37.2-83.07 83.07-83.07z" fill="#fcfcfc" fill-rule="evenodd"/><path d="M103.09 638.96c45.88.0 83.07 37.19 83.07 83.07s-37.19 83.06-83.07 83.06-83.06-37.19-83.06-83.06 37.19-83.07 83.06-83.07z" fill="#fcfcfc" fill-rule="evenodd"/><path d="M273.95 601.58c7.83-53.17 42.73-111.88 92.42-110.44.49 17.06 18.54 30.78 40.72 30.78s40.25-13.71 40.74-30.78c49.69-1.45 84.59 57.27 92.42 110.44-31.65-12.17-120.28-.53-133.16-38.74-12.85 38.21-101.48 26.57-133.14 38.74z" fill="#59351d" fill-rule="evenodd"/></g></g></g></svg>