<svg id="_лой_2" xmlns="http://www.w3.org/2000/svg" width="1022.89" height="1080" viewBox="0 0 1022.89 1080"><g id="Education02_459796682"><g id="Education02_459796682-2"><path d="M966.21 476.63h-58.63v-6.72h58.63c6.56.0 11.9-5.34 11.9-11.89V225.73c0-6.56-5.34-11.89-11.9-11.89h-47.19v-6.72h47.19c10.26.0 18.62 8.35 18.62 18.61v232.29c0 10.26-8.35 18.61-18.62 18.61z" fill="#7f7f7f"/><path d="M115.3 476.63H56.67c-10.26.0-18.61-8.35-18.61-18.61V225.73c0-10.26 8.35-18.61 18.61-18.61h47.19v6.72H56.67c-6.56.0-11.89 5.34-11.89 11.89v232.29c0 6.56 5.34 11.89 11.89 11.89h58.63v6.72z" fill="#7f7f7f"/><path d="M738.77.0H281.85C181.64.0 100.67 74.12 101.61 165l6.16 538.53H912.85L919.01 165C919.95 74.12 838.98.0 738.77.0z" fill="#f4aa4a"/><path d="M840.3 166.18c.26-26.37-10.19-51.2-29.4-69.93-19.22-18.73-44.83-29.05-72.14-29.05H281.85c-27.3.0-52.92 10.32-72.13 29.05-19.21 18.73-29.66 43.57-29.4 69.93l.32 130.5H839.98l.32-130.5z" fill="#ff8c3e"/><g><path d="M269.92 94.69c.83.24 1.9-.24 2.84.0.12.0.24.24.47.24.83.12 1.78.0 2.61.24.24.0.35.12.94.24.47.12 1.3.59 2.13.95.71.24 1.54.83 2.24 1.3.24.24.71.24.95.36.24.24.48.71.83.94 1.18.71 2.24 1.89 2.95 2.84.24.48.72.6.95.95.12.24.12.59.35.83l.59.94c.71 1.19 1.89 2.84 2.13 3.79v.71c.12.35.36.35.48.6.0.24-.12.47.0.59.24 1.3 1.18 2.84 1.42 4.14.12.83.0 1.18.24 2.13.0.47.35.95.47 1.31.12.47-.12 1.18.0 1.54.35 2.13 1.18 5.68-.95 6.27-.35.0-.83-.12-1.18.0-.12.0-.35.12-.48.12-1.06.24-1.89.0-3.07.24l-.47.35c-1.19.24-2.37-.24-3.79.0-1.78.24-3.67.24-4.03-1.42-.12-.36.12-.83.0-1.42-.12-.83-.59-1.54-.71-2.36-.35-1.42-.47-2.84-.95-4.15l-.71-1.54-.47-1.06c-.83-1.31-1.78-2.72-3.08-3.55-.47-.24-1.42-.47-1.78-.83-.24-.12-.24-.35-.47-.35-.24-.12-.83.12-1.18.0-.59-.12-.47-.12-1.18.0-.35.12-.83-.12-1.19.0-.24.0-.24.24-.47.47l-1.77.71c-1.31.83-2.49 2.96-2.84 4.61l-.24 2.01c0 1.65-.35 4.97.0 6.39.59 2.13 1.18 4.02 2.37 5.8.24.35.71.59.95 1.06.24.71 1.65 2.01 2.36 2.49.48.35 1.07 1.06 1.42 1.18 1.42.71 2.61 1.9 3.9 2.84l.83.24 2.49 1.77c.47.35 1.06.47 1.54.83.83.47 1.9 1.42 2.72 2.01.35.24.95.47 1.3.83l1.19.95c.59.24 1.06 1.18 1.65 1.77.83.71 1.42 1.3 2.01 2.01.72 1.18 1.66 2.36 2.49 3.67l.24.83c.59.83.83 1.3 1.19 2.48l.71 2.01c0 .47-.12.83.0 1.18.12.71.71 2.13.71 2.72.0.24-.24.35-.24.59-.35 1.42.12 3.55-.24 4.73.0.12-.24.36-.24.48-.12.35.0.59.0.95-.24 1.18-.71 2.6-1.19 3.55-.12.24-.47.35-.47.59-.12.24.0.47.0.71-.24 1.06-1.18 1.42-1.42 2.49-.12.47-1.06.94-1.42 1.65-.72 1.42-1.9 2.61-3.2 3.55-.71.35-1.07 1.06-1.78 1.54l-.83.24c-2.01 1.3-4.26 1.89-6.75 2.84-.35.12-1.06.12-1.77.24-.12.0-.24.24-.47.24-1.9.36-3.79-.24-5.8.24-.24.0-.35.24-.59.24-.35.12-.47-.12-.95-.24-1.19-.24-2.49.0-3.79-.24-.12.0-.24-.24-.35-.24-.48-.12-1.07.12-1.54.0-1.18-.24-2.48-1.06-3.55-1.42-2.96-1.06-5.68-3.08-7.1-5.2-.12-.12-.12-.24-.12-.35l-.71-.6c-.35-.47-.59-1.3-.94-1.89-.24-.47-.35-.35-.47-.95-.12-.6-.83-1.19-.95-1.66.0-.24.12-.47.0-.59-.24-1.06-.95-1.89-1.19-3.08.0-.24.12-.59.0-.95.0-.35-.35-.71-.47-1.18-.24-1.31-.12-2.49-.47-4.14-.35-2.13-.35-4.38 1.42-4.86.72-.12 1.54.12 2.37.0.95-.12 1.77-.24 2.61-.47.83-.12 1.54.24 2.36.0.24.0.24-.24.47-.24.48-.12.72.12 1.19.24 1.06.24 2.01.0 2.6.59.72.72.35 1.9.6 3.2.0.47.35.83.35 1.18.24.83.24 1.54.47 2.37 1.06 2.72 3.2 4.61 5.68 5.57.59.24 1.07.59 1.54.71l1.42.24c.71.12 2.37-.24 3.08-.47 3.08-1.07 6.86-3.43 7.46-6.75.47-2.25-.24-4.26-.95-5.45-.83-1.42-2.49-2.6-3.9-3.67-.24-.12-.36-.47-.6-.59-1.18-.83-2.48-1.54-3.79-2.48-2.48-1.66-5.8-3.55-8.05-5.09-.24-.24-.35-.59-.59-.71l-1.3-.71c-.83-.47-1.54-1.42-2.37-1.9-.47-.35-1.06-1.18-1.65-1.65-.83-.95-1.66-1.65-2.37-2.61-.35-.47-.47-1.06-.71-1.54-.35-.59-.95-1.18-1.18-1.54-.48-1.07-.72-2.37-1.19-3.43-.12-.48-.35-.83-.47-1.19l-.71-3.07c-.12-.95.0-1.66-.24-2.72.0-.24-.24-.35-.24-.59-.12-.72.0-2.01.0-3.08.0-1.18-.24-2.25.0-3.08.0-.12.24-.12.24-.35.35-1.3.0-2.61.24-3.79.24-.83.35-1.78.47-2.84.12-.95.47-1.54.71-2.61.24-.95.83-2.01 1.19-2.84 2.24-4.62 6.39-8.53 11.6-10.3.47-.24.95-.59 1.54-.71l4.02-.71c.47-.12 1.18-.12 1.54-.24.71-.12 1.89.12 2.48.24z" fill="#ffca6c"/><path d="M324.73 92.44c1.3.24 2.72.24 3.9.35.83.24 1.65.12 2.36.24.48.12 1.07.59 1.54.71 1.3.6 2.72.95 3.9 1.78.71.47 1.3.83 2.01 1.42 1.07.71 2.13 2.13 2.72 2.84.24.35.71.59.83.95.24.24.35.83.59 1.31.83 1.06 1.9 2.48 2.25 3.67l.35 1.18c.47 1.3 1.06 2.61 1.42 4.26.12.71.47 1.42.59 2.13.12.35.0.83.0 1.18l.35.59c.12.59-.12 1.3.0 2.01.0.24.12.35.24.47.24 1.3-.12 3.2.24 4.73.12 1.3.24 2.72.0 4.02-.12.24-.59 1.3-.95 1.42-.72.35-2.72-.24-3.9.0-.12.12-.24.24-.36.24-.59.12-1.42-.12-2.13.0-.59.12-.83.24-1.78.0-1.06-.12-2.36.12-2.84.0-.12.0-.24-.12-.35-.24-.83-.12-1.31.0-1.54-.59-.35-1.06.0-2.36-.24-3.31.0-.24-.12-.35-.24-.47-.12-1.06.0-2.36-.12-3.55-.24-.59-.35-1.65-.59-2.6-.12-.6-.47-.95-.59-1.54-.71-1.77-1.07-3.2-2.01-4.5-.83-1.3-2.13-2.25-3.79-2.96-.35-.12-.71-.47-1.18-.59-.83-.24-2.13-.12-2.61.0-.71.12-2.48 1.06-3.2 1.65-1.54 1.07-3.07 3.31-3.9 5.21-.24.83-.35 1.77-.59 2.84-.24.71-.59 1.3-.71 1.89-.12.59-.24 1.06-.24 1.42-.24.95-.12 2.01-.24 2.84-.12.12-.24.35-.24.47-.12.72.12 1.42.0 2.13l-.35.47c-.24 1.18.35 2.84.0 4.02.0.47-.24 1.42-.35 1.78-.12.47.12.59.24 1.18.12 1.18-.12 2.72.12 4.02l.35.59c.12.59-.12.83-.35 1.54-.12 1.07-.12 2.84.0 3.67l.35.6c.12.59-.12 1.77.0 2.6.12.47.12.35.0.95-.24.71.12 1.77.24 2.24.12.47-.12 1.06.0 1.66.0.47.35.95.47 1.42.12.71-.24 1.42.0 2.13.0.12.12.24.12.35.24.83-.12 1.65.0 2.36.35 1.54.59 3.43 1.06 4.97.24 1.18.59 2.24.95 3.67.12.71.47 1.06.83 1.65.47.59.71 1.54.95 2.13 1.06 1.65 2.61 2.6 4.14 3.54.59.48 3.2.6 4.5.36.47-.12 1.9-.95 2.49-1.31 1.18-.83 2.61-2.48 2.96-4.14.0-.35.12-.83.12-1.18.35-1.66.12-2.96 1.89-3.31.47.0 1.07.12 1.66.0.47-.12 1.65-.35 2.48-.24 1.19.24 2.25.24 2.96.47 1.06.24 2.49.0 3.2.24.95.35 1.42 2.49 1.06 4.14-.12 1.06.0 1.66-.12 2.49l-.24 1.42c-.24 1.19-.83 2.25-1.06 3.31-.12 1.3-1.06 2.49-1.78 3.67-.35.59-.59 1.18-1.06 1.78-.35.47-1.3 1.54-2.01 2.01l-1.78 1.06c-1.18.83-2.72 1.66-3.79 2.13l-1.18.24c-.47.12-.83.59-1.18.71-.48.0-1.07-.12-1.42.0-.24.0-.35.24-.59.24-1.42.35-2.61.12-4.14.47-1.42.24-2.61.24-3.67.0-.47-.12-1.06.12-1.54.0-.83-.12-1.54-.59-2.37-.71-.35-.12-.83.0-1.06.0-.47-.24-1.19-.95-1.9-1.18-1.89-.59-3.2-1.78-4.61-3.2-1.42-1.3-2.25-2.72-3.31-4.5-.95-1.54-2.01-2.96-2.61-4.5l-.24-1.19c-.12-.71-.47-1.54-.71-2.24-.24-.72-.71-1.31-.95-2.01-.12-1.06-.35-2.36-.71-3.31-.24-1.18-.35-2.96-.59-4.38l-.36-.59-.24-1.42c-.12-.83.0-1.78-.24-2.61.0-.35-.35-1.3-.35-1.78-.35-1.42.0-2.95-.24-4.26l-.35-.59c-.12-.71.12-1.54.0-2.36.0-.12-.12-.24-.24-.36-.12-.59.12-1.54.0-2.36-.24-1.54-.24-3.31.0-4.5.12-.6-.12-1.19-.24-1.9-.12-1.06.24-2.13.0-2.72-.24-1.54-.24-3.19.0-4.97.24-.83-.12-1.77.0-2.61.12-.12.24-.35.24-.47.12-.71-.12-1.42-.12-2.01.0-.35.35-.83.35-1.31.12-.35.0-.71.0-1.06.12-.35.24-.35.35-.59.12-.59-.12-1.3.0-1.9.0-.59.35-1.06.35-1.65.24-.83.12-1.3.24-2.37.47-2.24 1.07-4.38 1.66-6.74.95-3.55 3.55-7.46 5.68-10.53.35-.47 1.07-1.18 1.42-1.42 1.06-.71 1.89-1.42 2.84-2.13l.83-.35c1.54-.95 3.31-1.78 5.2-2.37.71-.12 2.13-.24 2.84-.47.59.0 1.18.0 1.54-.12.47-.12 1.66-.12 2.37.0z" fill="#ffca6c"/><path d="M362.62 96.82c1.3.24 5.09.24 6.39.0.6-.12.95-.24 1.9.0 1.77.47 1.06 2.25 1.42 4.14.0.24.12.47.12.71.12.48.0.95.0 1.54.12.12.24.35.24.47.24 1.06-.12 2.37.0 3.43.24.83.83 1.89.6 3.31-.12.24-.36.47-.36.71.0.47.36.95.36 1.54l-.36.72c-.24 1.18.6 2.6.36 4.14-.12.59-.48 1.89-.48 2.84.0 2.13.24 4.62-.12 6.51.0.24-.24.59-.24.83.0.6.35 1.07.24 1.66.0.35-.47 2.72-.24 3.31.24.35 1.19.83 1.42.83 1.65.35 3.79.0 6.03.0 2.49.0 4.38.24 6.04.0.59-.12 1.54-.59 1.77-1.06.12-.6-.24-1.66.0-2.61.0-.59.35-1.06.35-1.42.24-.95-.12-2.49-.12-3.43.0-2.01.24-4.26.0-5.8-.35-1.54.24-3.2.0-4.73-.35-1.54-.24-2.96-.47-4.38-.24-1.42.24-2.72.0-4.14l-.35-.6c0-.47.12-1.06.0-1.54-.24-2.01-1.18-6.51.95-6.98.83-.12 1.78.12 2.61.0 1.3-.24 5.21-.47 7.1-.24 1.54.24 2.37.71 2.72 2.49.12.47-.12 1.18.0 1.65.0.24.24.47.24.71s-.24.35-.24.72c0 .12.35 1.3.47 1.54.0.59-.12 1.18.0 1.77.0.36.24.83.12 1.42v1.3c.12.59.0 1.42.0 2.01l.35.59c.24 1.06-.24 2.84.0 4.38.24 1.3.24 3.67.24 5.8.0 5.09-.24 9.11-.24 14.2v4.14c0 1.54.24 2.96.0 4.27l-.35.71c-.12.83.47 1.65.59 2.48.12.72.12 1.78.0 2.49-.12.35-.47.71-.47.95.0.35.24.83.24 1.31l-.35 1.54c0 .24-.12.47-.12.59.0.47.35 1.06.35 1.54s-.24 1.3-.35 2.01c-.12.59.0 1.18.0 1.78-.12.59-.35.83-.24 1.3.0.35.35.71.35 1.18.12.71.12 1.66.0 2.25.0.24-.35.59-.35.83.0.35.35.95.24 1.66-.24.83-.47 3.31-.24 4.38.24 1.3.24 4.5.0 5.79-.47 1.9.24 4.61.0 6.51-.24 1.06-.47 2.01-1.42 2.24-.71.12-1.65-.12-2.36.0-.24.0-.35.24-.59.24-.72.12-1.54-.12-2.25.0-1.65.24-6.16.71-6.86-.83-.24-.47-.35-1.65-.47-2.36-.47-2.25.0-5.21.0-8.05.0-3.2.12-6.51-.24-8.64-.24-1.18.0-2.95.24-3.79.0-.47-.12-1.06.0-1.65.0-.24.12-.35.12-.59.24-.83.0-1.9.0-2.61.24-1.18-.12-2.84.0-3.9.24-.83.47-2.72.24-4.26.0-.35-.35-1.3-.47-1.42-.35-.24-1.89.0-2.49.0-2.72.0-6.15-.12-8.16.24-.95.24-2.6-.24-3.31.0-.35.12-.71 1.65-.83 2.36-.35 1.78.24 4.26.0 5.92l-.35.71c-.12 1.06-.12 2.72.0 3.55.12.35.35.59.35.95s-.24.47-.35.83c-.24 1.54.59 3.79.35 5.21-.12.24-.59.59-.59.83.0.35.35.95.24 1.42-.35 2.25.0 5.09-.35 7.1-.35 1.06.35 2.49.12 3.79-.12.71-.35 2.25-.95 2.49-.47.24-1.42.0-2.25.12s-1.89.35-2.6.24q-.72-.12-1.42.0c-1.18.24-4.14.24-5.44.0-1.54-.24-1.78-2.49-1.54-4.14.35-1.54.0-3.55.0-5.45v-10.76c0-2.13.0-4.5.24-6.04.24-1.18.24-3.67.0-4.85-.12-.71-.12-1.07.0-1.78.47-2.24-1.3-2.6-1.65-4.61-.12-.95.24-2.01.0-2.96-.24-1.3-.47-4.85-.12-6.63.35-2.24 2.01-2.01 2.37-3.9.12-1.18-.12-2.6.12-4.14.24-1.42.0-3.07.24-4.38.12-.24.24-.47.24-.59.12-.47-.12-1.18.0-1.77.12-.6.47-2.13.24-3.31-.47-2.84.24-6.98-.24-9.12.0-.24-.12-.35-.24-.59.0-.47.12-1.18.0-1.77-.12-.72-.12-1.19.0-2.01.24-1.3-.24-2.24-.35-3.2-.24-1.06.0-2.6.24-3.31.35-.83 1.89-.83 2.6-.95.47-.12 1.42.0 1.9.12z" fill="#ffca6c"/><path d="M434.12 93.98c.94.24 2.24.0 3.08.24 1.3.36 2.6.95 3.9 1.54.35.12.95.35 1.42.71 1.77 1.06 3.55 2.25 4.85 4.02l1.66 2.61c.59.95 1.06 2.13 1.65 3.08.24.35.83.83.95 1.18v.59c0 .12.6 1.06.83 1.06.71.24 1.3-.83 1.65-1.06 1.06-.71 2.96-1.18 3.31.47.24.71 1.3 2.72 1.65 3.31.24.35.47.47.47.71.12.12.0.35.0.47.24.6.95.95 1.19 1.66.35 1.06.94 2.01 1.42 3.2.12.47.35.95.0 1.65-.24.35-1.06 1.06-1.54 1.31-.47.24-.83.83-1.42 1.18-1.65 1.06-3.31 1.3-2.72 4.26l.35.59c.12.71-.24 1.54.0 2.25.0.47.35.83.35 1.18.24 1.3-.12 2.61.0 3.79.12.12.24.35.24.47.24.71-.35 1.42-.24 2.13.12.12.24.35.24.47.24.83-.12 1.65.0 2.36.12.48.35.6.24.95.0.12-.12.24-.24.47-.24 1.3.35 2.84.0 4.26-.35 1.54.0 3.9-.35 6.04-.12.71.12 1.42.0 2.13-.12.12-.24.24-.24.47-.24.95.12 1.9.0 2.72l-.35.59c-.24.95.0 1.9-.24 2.84.0.12-.12.24-.24.47.0.24.12.59.0.94.0.12-.12.24-.12.47-.24 1.19-.24 2.49-.47 3.55l-.35.35c0 .35.12.72.0.95-.24 1.65-1.3 3.19-1.65 4.73.0.24.12.35.0.59-.12.35-.47.59-.59.95-.47 1.07-.72 2.13-1.31 2.96-.59.83-1.18 1.9-1.89 2.84l-.95 1.06c-.83 1.18-2.96 2.96-4.27 3.67l-2.84 1.42-1.19.24c-.47.12-.83.6-1.18.72-.59.0-1.06-.12-1.42.0-.24.0-.35.24-.59.24-.36.0-.72-.12-1.07.0-2.6.47-5.68.47-8.52.0-.24.0-.35-.24-.59-.24-.71-.24-1.42.0-2.01-.24l-1.54-.95c-.94-.47-1.78-.71-2.49-1.18-.59-.47-1.3-1.06-1.89-1.42-.71-.59-1.66-1.54-2.13-2.25l-1.42-2.37c-.71-1.18-1.66-2.36-2.13-3.54-.12-.48-.24-.95-.47-1.42-.12-.12-.35-.24-.35-.35-.35-.71-.47-1.65-.83-2.72-.12-.47-.35-.83-.47-1.18-.35-1.3-.72-2.37-.95-3.55.0-.24.12-.47.0-.71-.12-1.06-.71-2.37-.95-3.43-.12-.83.24-1.65.0-2.37l-.35-2.84c-.12-.24-.35-.35-.35-.6-.12-.71.12-1.54.0-2.36.0-.12-.12-.24-.24-.35-.24-.94.24-1.9.0-2.84-.24-1.9.12-3.79-.24-5.44.0-.12-.12-.24-.24-.48-.12-.59.24-1.65.0-2.6.0-.35-.35-1.19-.12-1.9.35-2.24.0-4.5.35-6.03.24-.83-.12-1.66.0-2.37l.47-1.42c.12-.59-.12-1.19.0-1.66.0-.12.24-.35.35-.47.12-1.06-.12-2.49.12-3.55.12-.47.47-1.42.47-1.89.24-1.19.24-2.37.47-3.55.0-.12.24-.24.24-.47.24-.83.12-1.66.24-2.37l.48-1.77c.24-1.07.83-2.13 1.18-3.08.47-1.07.59-2.25.95-3.31.59-1.42 1.54-2.61 2.37-3.9l.24-.71c.24-.36.47-.6.71-1.07.12-.24.59-.59.83-.95.47-.71 1.66-1.89 2.25-2.25 1.3-.95 3.08-2.13 4.61-2.72.71-.24 1.66-.35 2.49-.71l1.3-.48c.71-.12 1.78.0 2.37-.12 1.06-.24 2.84.0 3.79.12zm-10.89 35.39c0 .12-.24.35-.24.47-.12.71.12 1.89.0 2.49l-.35.59c-.12.59.24 1.42.0 2.13-.24 1.07-.24 2.84-.24 4.61s.12 3.67.24 4.74c.12.71.0 1.54.0 2.01.12.24.35.47.35.71s-.24.48-.35.72c-.12.71.24 1.89.35 2.24.0.59-.24 1.66.0 2.25.0.24.12.35.24.59.0.47-.12 1.06.0 1.54.0.48.35.95.35 1.42.24 1.3.12 2.6.24 3.67.12.59.35 1.18.59 1.89.24.95.47 1.9.59 2.72.24.83.71 1.65.95 2.25.71 1.89 1.89 3.67 3.31 4.61.72.47 1.54 1.18 2.13 1.3 1.77.24 3.08-.24 3.9-.71 1.18-.47 2.01-.94 2.72-1.9 2.48-3.43 3.67-7.57 4.5-12.42v-.95c0-.24.24-.35.24-.59.24-.71-.12-1.54.0-2.37.47-1.89.24-4.02.47-5.8.35-2.01.24-4.74.24-7.22.0-2.25.12-4.97-.24-6.39-.12-.71.12-1.77.0-2.25-.12-.94-.59-2.6-1.42-2.6-.12.0-.35.24-.59.24-.48.12-1.07-.12-1.42.0-.12.0-.35.24-.59.24-1.06.24-4.5.24-5.56.0-.24.0-.36-.24-.6-.24-1.18-.24-2.01.0-3.19-.24-.48-.12-1.07-.24-1.54-.47l-1.89-.95c-.12.0-.24.12-.47.0-.48-.24-1.9-1.42-2.49-1.06-.24.12-.47 1.18-.47 1.54-.12.48.24.83.24 1.19zm6.39-20c-.72.48-1.78.83-2.01 1.9-.12.71.71 1.18 1.18 1.54.59.36 1.66.83 2.01.95.59.12.83.35 1.18.47 1.06.47 2.25.71 3.31.95 1.18.24 3.08-.12 3.31-.95.12-.59-.24-.47-.47-.95l-.71-1.19-.35-.71c-.48-.83-1.78-2.01-2.13-2.25-.12.0-.24.12-.47.0-.35-.12-.83-.59-1.06-.59-.48-.12-1.07-.24-1.54-.24-.24.0-.95.12-1.3.24-.24.0-.59.59-.95.83zm64.25-14.9c1.66.35 2.72.0 4.27.24.24.0.24.24.35.24 2.95.94 5.44 1.89 7.69 3.43.59.35 1.18.95 1.77 1.42.95.59 2.37 2.01 2.84 2.72.83 1.06 1.89 2.6 2.61 3.79.59.83.47 2.36 1.77 1.54.47-.35.95-1.18 1.3-1.3 1.31-.59 2.96.0 3.31 1.06v.35c.12.24.47.24.6.47.35.24.47.83.83 1.31.35.47.83.71 1.18 1.06l.24.71c.59 1.06 1.9 2.25 2.13 3.43.24.83-.24 2.13-.47 2.61-.48.71-1.66 1.89-2.37 2.36-.95.59-2.13 1.42-2.37 2.61-.12.71.59 1.3.71 2.01.0.36-.12.72.0.95.12.83.6 2.01.72 2.84.12.47-.12.95.0 1.42.0.12.24.35.24.47.12.59-.12 1.18.0 1.65.0.24.24.24.24.48.12.71-.12 1.54.0 2.36.35 1.78-.12 3.55.24 5.09.0.24.24.47.24.71s-.24.35-.24.59c-.24.95.12 2.01.0 3.08.0.24-.24.24-.24.47-.12.47.12 1.18.0 1.65l-.47 1.78c-.12.47.12.83.0 1.18.0.24-.24.35-.24.47-.12.35.12.83.0 1.18-.24 1.19-.72 2.13-.95 3.08.0.35.12.71.0.95-.12.59-.59 1.18-.71 1.89l-.24 1.54-.47.72c-.35 1.06-.71 2.36-1.18 3.43-.24.83-.72 1.54-1.07 2.36-.71 1.31-1.18 2.25-1.89 3.31-.24.35-.35.94-.59 1.3-.35.6-.95 1.07-1.31 1.66.0.12.0.35-.12.47-.35.59-.95 1.06-1.3 1.54-.35.47-.47 1.07-.83 1.54-.47.71-1.66 1.3-2.01 2.01-.35.59-.95.95-1.42 1.66-.83.94-1.18 1.42-2.13 2.13-.35.24-.59.71-.94.95-1.18.94-2.61 2.01-4.02 2.84-.95.59-2.72 1.42-3.79 1.78-.71.12-1.42.83-2.01.95-.95.24-1.89.0-2.84.24-1.54.24-3.79.47-5.21.24l-1.89-.47c-.35-.12-.71.0-1.18.0-.95-.24-2.01-.83-3.2-1.18-.35-.12-.59-.47-.95-.72-.47-.35-1.06-.47-1.54-.83l-.71-.83c-3.08-1.65-4.73-5.32-6.39-8.64-.83-1.66-1.54-4.02-2.13-6.27-.12-.59-.48-1.3-.6-2.01-.12-.35.0-.6.0-.95l-.35-.59c0-.24.12-.47.0-.83.0-.12-.24-.35-.24-.47-.12-.83.0-1.78-.24-2.61.0-.35-.35-1.3-.35-1.89-.35-1.19.0-2.61-.24-3.9l-.35-.6c-.12-.71.12-1.54.0-2.24.0-.24-.12-.35-.24-.47-.12-.83.24-1.78.0-2.61-.24-1.3-.24-2.37-.47-3.31-.12-.83.24-1.77.0-2.6.0-.36-.35-1.07-.12-1.9.0-.24.12-.24.12-.47.24-.71-.12-1.66.0-2.61.12-.12.24-.35.24-.47.24-1.18-.24-2.49.0-3.79.12-.12.24-.24.24-.47.12-.59-.12-1.42.0-2.01.12-.12.24-.35.24-.47.12-.59-.12-1.06.0-1.54.0-.12.24-.24.35-.35.24-1.42.12-3.2.35-4.5.24-.72.59-1.42.71-2.13.12-.83.12-1.06.35-1.89.12-.83.48-1.42.6-2.37.24-.83.59-1.54.71-2.61.24-.83.71-1.42.94-2.36.24-.83.71-2.01 1.3-2.72l2.37-4.02c.24-.35.24-.71.35-.94l1.9-2.01c1.77-2.49 4.38-4.73 6.62-6.27l.83-.24c.59-.35 1.18-.95 1.65-1.18l1.54-.47c.48-.12.83-.47 1.31-.59.71-.24 1.42-.12 2.36-.35.12.0.35-.12.48-.24.47.0 1.06-.12 1.3-.12.83-.24 1.89.0 2.48.12zm-13.96 35.14c-.12.59.12 1.18.0 1.65s-.47.83-.59 1.19c-.12.71.24 1.42.0 2.13.0.12-.12.35-.24.47-.12.71.24 1.42.0 2.13-.24 1.3-.24 4.97.0 6.15.12.48-.12 1.54.0 2.13.24.59.12.59.0 1.18-.12.59.24 1.9.24 2.37.12.59.0 1.18.0 1.65.12.48.47.83.59 1.19.12.94-.24 1.77.0 2.6.0.24.12.35.24.48.12.47-.12 1.18.0 1.65.0.47.35.83.35 1.06.12.47-.24.83-.24 1.19.12.0.24.24.24.24.12.47.12 1.3.24 2.01.12.35.47.71.59 1.18.12.95.0 1.42.12 2.37.24 1.18.83 2.01 1.31 3.2.95 2.72 3.07 4.5 5.8 5.2.95.12 2.13-.59 2.72-.83 2.72-1.06 4.85-2.72 6.63-5.09.47-.59 1.3-1.31 1.77-1.9.94-1.42 2.25-3.55 2.84-5.2.35-1.06 1.3-2.25 1.65-3.43.35-1.18.95-2.25 1.19-3.31.35-1.54.71-3.43.95-4.97.0-.24-.12-.71.0-.83.0-.24.24-.36.24-.6.12-.47-.12-.95.0-1.42.35-1.77.35-4.38.71-6.04.12-.71-.12-1.06-.24-1.89s.12-1.78.0-2.37c-.24-.95-.24-2.84-.47-3.9.0-.35-.71-1.54-.83-1.54-.83-.47-2.61.95-3.55 1.06-.47.12-1.19.0-1.42.0s-.35.24-.47.24c-.47.12-1.06-.12-1.65.0-.71.12-1.66.24-2.72.24-1.3.0-2.13-.12-2.72-.24-1.06-.12-2.13.0-3.07-.24-.83-.12-1.42-.95-2.37-1.18-.12.0-.35.12-.47.0-.47-.12-.83-.59-1.19-.83-.35-.35-.95-.35-1.3-.6l-1.42-.95c-.59-.47-1.66-1.77-2.13-1.54-.71.24-.71 1.65-.94 2.48.0.48-.35.95-.35 1.42zm8.64-17.75c-.35 1.06.59 1.42.95 2.01.12.47.47.83 1.07 1.06.83.59 1.89.83 2.72 1.18.59.24.95.12 1.9.24.95.24 2.01.47 2.72.24.95-.24 2.95-.35 2.84-1.54.0-.24-.47-1.18-.83-1.65l-1.42-1.42c-.83-.83-1.54-1.54-2.37-2.13-.24-.12-.95-.24-1.3-.48-.12-.12-.12-.35-.47-.47-.35-.12-1.19.0-1.66.12-.59.12-1.3.72-1.89 1.07-.71.47-2.01 1.06-2.25 1.77z" fill="#ffca6c"/><path d="M541.6 96.7c1.66-.24 4.97-.71 5.33.59.35 1.19-.12 3.43.0 4.97.59 3.31.24 8.16.24 12.07v5.68c0 1.9.35 4.02.0 5.68-.12.71-.12 1.06.0 1.77.24.95-.24 2.13-.35 3.08-.24 1.06-.24 2.61.0 3.55v1.42c-.47 2.49.35 5.33.0 7.81l-.35.6c-.24 1.18.0 2.48-.24 3.9-.24 1.54.0 3.55.0 5.56.0 1.9-.24 4.02.0 5.57.12.71.35 1.3.24 2.01-.12.83-.12 1.18.0 1.9.35 2.13-.12 4.38.35 5.79.35 1.18 3.43.71 4.73.47.47.0 1.06.24 1.54.24 1.42.24 3.43-.24 5.33.0 1.54.24 2.96.24 4.38.47.59.12 1.18-.12 1.77.0.24.0.48.24.72.24.59.12 1.3-.12 1.65.0.24.0.47.24.83.24 1.78.35 4.14-.24 4.62 1.42v1.77c-.24 1.42-.6 2.49-.83 3.79-.12.95.12 1.9.0 2.72.0.35-.35.71-.35 1.06-.12.36-.24.83-.24.95.0.24.24.47.24.71-.12.24-.95 1.42-1.3 1.54-.95.24-2.25-.12-2.96-.24-.94-.24-2.01.12-3.08.0l-2.72-.47c-.72-.12-1.54.0-2.01.0q-.59.12-1.3.0c-.59-.12-1.66.12-2.37.0-.59-.12-.47-.12-1.18.0-1.07.24-3.2.24-4.5.0-.83-.12-2.01-.24-2.61.0-.24.12-.24.47-.47.71-1.31.95-3.9.12-6.16.47-.95.12-3.55.48-5.09.24-.83-.12-1.9-.12-2.13-.71-.47-.95-.35-2.6-.47-3.9l-.35-.71c-.12-.83.24-1.65.0-2.61-.35-2.13.0-5.32-.47-7.93-.47-3.2.59-6.75.0-9.94-.24-2.01.0-5.09.0-8.05.0-1.9.24-3.79.0-5.33-.12-.71-.12-1.06.0-2.01.24-.95-.12-1.9.0-2.84.24-1.42.71-2.61.47-3.79.0-.35-.47-1.54-.47-2.01.0-.24.24-.47.24-.83.24-1.06-.12-2.84.0-3.9.12-.24.24-.47.24-.71.35-2.01-.35-4.38.0-6.27l.35-.83c.12-.71.0-2.13.24-3.31.12-1.3.0-3.31.0-4.97.0-2.13-.12-4.26-.24-5.68-.35-1.89.24-4.38.0-6.15l-.35-.72c-.35-1.77.12-4.26 1.06-4.85.95-.47 2.49-.24 3.43-.47 1.06-.24 2.96.47 4.61.24z" fill="#ffca6c"/><path d="M618.08 95.4c2.95-.24 6.27.0 8.99.47.83.12 1.77.0 2.61.24.12.0.35.24.47.24.47.12.95-.12 1.42.0.47.12.83.35 1.18.47l1.9.24c.24.0.47.35.83.47 1.18.48 2.84.72 3.9 1.19.59.12 1.06.35 1.66.71l.59.47c1.18.71 2.72 1.3 4.02 2.13.47.35.94.95 1.54 1.3.94.59 1.66 1.42 2.49 2.37.71.59 1.77 1.42 2.13 2.01l.24.71.95 1.19c.24.71.35.59.59 1.06.83 1.06 1.42 2.84 1.77 4.26.35 1.06.48 2.49.72 3.67.0.47.35.71.47.95.12.71-.24 1.42.0 2.37.0.24.24.35.24.59.0.35-.47.95-.47 1.42-.24 1.07.12 2.61.0 3.43-.35 1.19-.47 3.08-.72 4.26-.12.35-.47.6-.47.83-.24.94-.35 2.01-.71 2.72-.24.47-.71.72-.71 1.07-.12.24.0.59.0.83-.24.59-1.06 1.42-1.42 1.89-.95 1.42-2.01 3.08-3.31 4.02-.59.48-1.78 1.19-1.78 2.01.0.35.47.59.59.95.48.59.72 1.42 1.07 2.25.71 1.3.95 2.13 1.54 3.67.59 1.3 1.42 2.6 1.65 4.02v.71c.24 1.18.95 2.61 1.19 3.79.12.83-.12 1.65.0 2.37.0.12.24.35.24.47.12.35-.12 1.18.0 1.77.12.59.12.47.0 1.06-.12.6.12 1.42.0 1.9l-.71 2.72c0 .35.12.71.0 1.06-.12.59-.59.95-.72 1.89-.12.36-.24.95-.47 1.31l-2.13 3.08c-.24.35-.83.83-1.18 1.18-1.42.94-2.96 2.01-4.38 2.61-.35.12-.59.47-.95.47-.71.35-1.65.47-2.49.71-.24.12-.59.47-.95.47-.59.24-.94.0-1.3.0-.24.12-.59.47-.95.47-1.07.24-2.01.12-3.08.24-.12.0-.24.24-.35.24-1.19.35-2.84-.12-4.26.24-.24.0-.36.24-.6.24-1.06.36-3.19.0-4.73.0h-9.46c-2.25.0-5.09.48-5.68-.83-.35-.59-.47-2.01-.35-2.84l.35-.59c.12-.59-.24-1.77.0-2.6.24-1.31.47-5.09.12-6.86.0-.24-.12-.35-.12-.47-.35-1.66.24-3.31.0-4.74-.12-.71-.47-.95-.35-1.65.0-.12.24-.35.35-.59.24-1.31-.12-3.2.12-4.61.35-1.54.24-4.38.24-6.51.0-2.01.35-4.5.0-5.92-.24-1.18-.71-4.26-.35-6.15.12-.71.12-1.07.0-1.78-.59-2.96.47-6.39.0-9.35l-.35-.71c-.12-.83.24-1.78.0-2.72.0-.12-.12-.35-.24-.47-.12-.83.12-1.66.0-2.49-.24-1.65-.24-4.38-.24-6.63.0-3.79-.24-6.27-.24-9.7.0-1.06.24-2.25.0-3.08.0-.24-.12-.47-.12-.71.0-.47.47-1.54.35-2.37-.12-1.3-.71-1.89-.24-3.08.12-.24.71-.71.83-.83.59-.24 1.06-.12 1.78-.24.24.0.24-.24.59-.24.35-.12.83.0 1.3.0.12-.12.35-.24.47-.24 1.54-.35 3.67.12 4.85-.24.12.0.12-.12.24-.12v-.12zm4.38 17.75c-.24.95.35 2.13.59 3.07.0.47-.35.83-.35 1.07.0.12.24.35.35.59.12.95-.24 2.36-.24 3.31.0.35.35 1.65.35 2.01.35 1.3-.24 3.31.0 4.85.12.48.47.95.47 1.42.24 1.18-.24 3.08.0 4.38.12.83.59 1.89.83 2.13.71.24 2.72-.12 3.08-.24.71-.12 1.3.12 1.9.0.24.0.35-.24.59-.24 1.54-.35 2.95-.71 4.14-1.18 1.65-.59 4.26-2.13 5.2-3.55.59-.71 1.9-2.84 2.01-3.79.24-.83.0-1.65.24-2.36.12-.36.35-1.07.24-1.78l-.71-3.08c-.47-1.42-1.54-2.84-2.49-4.14-1.18-1.54-3.31-2.72-5.09-3.43-1.07-.47-2.49-1.42-3.43-1.65l-2.13-.24c-.12.0-.24-.24-.47-.24-.83-.24-2.49-.24-3.31.0-.24.12-.95.47-1.18.71-.35.35-.47 1.89-.59 2.37zm3.31 37.51c-.48.0-.95-.12-1.31.0-.47.36-.71 2.01-.83 2.61-.12.83.0 2.01.0 2.96.0 2.96-.24 7.46.24 9.58.24.72-.12 2.37-.24 2.84-.12.59.35 1.9.59 2.01.47.24 2.01.0 2.72.0 2.61.0 4.26.0 6.16-.72 1.54-.59 3.19-1.54 4.02-2.72 1.18-1.66 1.42-4.61.95-6.98-.24-1.42-.95-2.37-1.54-3.67-.47-.95-.95-1.9-1.42-2.49-.47-.71-.71-1.3-1.06-1.89-.24-.24-.83-.59-1.07-.95-.24-.24-.71-.95-.95-1.07-.59-.24-2.13-.12-2.72.0-.47.12-2.13.0-3.07.24-.24.0-.35.12-.47.24z" fill="#ffca6c"/><path d="M676.56 96.58c.35.12.83-.12 1.3.0.35.12.24.24.6.24 1.18.24 4.02-.12 4.61 1.06.35.72.24 2.25.0 2.96-.12.47.12 1.31.0 1.9l-.35 3.43c-.12.24.0.71.0 1.06-.12.59-.47 1.18-.47 1.54s.24.59.24.95l-.35.59c-.12.83.0 1.42-.24 2.24-.12.72-.12.47.0 1.07.24.83-.35 1.3-.35 1.89-.12.47.0 1.06.0 1.54-.24 1.42-.24 2.95-.47 4.38l-.35.71c-.24 1.42-.12 3.43-.35 4.61-.24.59.0 1.42.0 2.13-.24.71-.47 1.42-.47 1.89.0.35.24.59.24.83.0.35-.24.47-.24.83-.24 1.18.0 2.6-.24 3.9l-.35.59c-.35 1.89.24 5.2-.12 6.98-.35 1.42.0 3.9.0 5.91.0 2.37-.12 4.73-.12 6.39.0.83.24 1.89.24 2.37.12.71.0.95.0 1.42.24.95.47 2.36.83 3.43.12.47.47 1.06.83 1.65.47.83.71 1.66 1.31 2.49.94 1.42 3.07 2.49 4.5 3.08l1.89.24c1.31.12 2.37.24 3.79.0.24-.12.47-.35.83-.47 2.72-1.07 5.21-2.72 6.27-5.57.71-1.89 1.66-4.02 2.01-6.15.24-1.19.24-2.72.47-3.91.0-.24.24-.35.24-.59.12-.71-.12-1.65.0-2.36.12-.59.12-.71.0-1.31-.24-1.54.24-3.43.47-5.09.12-.71.0-2.01.0-3.31.0-1.18.24-2.24.0-3.31l-.47-1.65c-.47-2.96.71-5.8.24-8.4.0-.24-.12-.47-.24-.6-.12-.71.12-1.77.0-2.48.0-.24-.24-.35-.24-.71-.35-2.01.12-4.86-.24-6.63-.24-.95.12-1.9.0-2.84-.47-2.84.12-5.91-.47-7.93-.24-1.3.24-2.72.0-3.79-.48-2.01-.6-5.79 1.42-6.27.83-.12 2.13.24 3.31.0 2.24-.35 4.85-.24 6.39.0 1.3.24 1.89.0 2.13 1.42.24.83-.12 2.13.0 2.96.12.83.71 1.54.59 2.72-.12.59-.24.35.0.95.0.47-.12 1.18.0 1.65.24 1.89-.12 4.26.12 5.79.12.24.24.36.24.6l.24 1.77c.48 1.54-.24 3.55.0 5.33.12.24.24.35.24.59.48 2.72-.47 5.68.0 8.16.0.24.24.35.36.59.0.59-.12 1.54.0 2.25v1.06c-.24.71.12 1.77.12 2.24.47 2.37-.6 4.86-.12 7.57.0.48.35.83.35 1.42.24.83.0 2.13.0 3.2.0 1.18.24 2.36.0 3.31-.12.94-.12 2.36-.35 3.79-.24.94.12 2.01.0 2.84-.12.35-.24.24-.36.47-.24 1.19.0 2.37-.24 3.31l-.47 2.49c-.24 1.89-.94 3.31-1.3 4.97-.12.47-.59.83-.71 1.31-.12.24.0.47-.12.59.0.12-.35.24-.35.35-.24.47.0.83-.24 1.18-.12.12-.36.24-.48.47-.59.95-.94 2.37-1.54 3.08-.12.35-.59.59-.83.83-.47.83-1.19 1.54-2.01 2.37-1.65 1.65-3.67 3.31-6.15 4.26l-1.07.24c-.59.24-1.54.83-2.36.95-.35.0-.71-.12-1.07.0l-1.89.47c-.59.12-1.42-.12-2.13.0-.59.12-2.36.36-3.67.24-1.54-.36-2.95-.12-4.14-.24l-1.89-.47c-.47-.12-.95.12-1.42.0-.59-.12-1.18-.59-1.77-.71-3.67-1.06-7.22-2.84-9.23-5.68-.6-.83-1.19-1.54-1.66-2.37l-.35-.83c-.47-.83-1.18-2.01-1.42-3.2-.12-.71-.47-1.18-.72-2.13-.24-1.18-.83-2.24-1.06-3.67-.12-.24.0-.59.0-.83l-.35-.71c0-.47.12-.94.0-1.3-.12-.83-.24-1.78-.47-2.61.0-.35.12-.94.0-1.3.0-.59-.12-.59.0-1.19.24-.71-.12-1.65-.12-2.24-.35-1.78.0-4.38.0-6.63.0-2.49-.24-5.56.12-7.22.24-.83-.12-1.54.0-2.24.12-.48.47-1.78.24-2.61q-.12-.47.0-1.06c.12-.6-.12-1.66.0-2.25l.83-3.67c.12-.71-.24-1.54.0-2.25.0-.71.24-1.3.35-2.01.24-1.42.0-2.72.24-4.26.12-.83.36-1.66.6-2.25.12-.95.0-1.89.12-2.84l.47-2.01c.12-.35.0-.83.0-1.18.24-1.19.24-2.37.47-3.43.0-.24.24-.47.24-.72.24-.83.12-1.89.24-2.72.12-.12.24-.35.24-.47.24-1.19.0-1.78.24-2.96.0-.12.24-.35.24-.47.24-1.07.0-2.25.24-3.31.0-.12.24-.24.24-.47.12-.59.12-1.31.24-1.66.24-.24.95-.95 1.19-.95 1.54-.59 3.9.12 5.32.35z" fill="#ffca6c"/><path d="M749 94.81c.95.24 2.13-.12 2.96.0.24.12.35.24.47.24l1.9.24c1.65.47 3.19 1.06 4.61 2.01 2.61 1.66 4.85 3.9 6.03 6.98.48 1.31 1.42 2.49 1.66 3.79.12.35.0.71.0.95.12.24.35.35.47.72.12.24-.12.71.0 1.18.12.71.47 1.65.71 2.49.0.47-.12 1.06.0 1.65.0.24.24.35.24.59.24.83.0 1.54-.24 2.61-.24.71.12 1.3.24 1.77.24 1.07.12 3.43.0 4.02.0.24-.24.24-.24.47-.24.72.12 1.66-.35 1.9-.35.24-1.06-.12-1.77.12-.12.0-.35.12-.47.24-.95.12-1.9-.24-2.84.0-1.9.24-3.79.12-4.97.0-1.3-.24-2.13.0-2.6-.95-.83-1.54-.12-4.73-.47-6.39-.12-.59.12-1.18.0-1.89-.24-.95-.59-1.78-.72-2.84-.35-1.9-1.89-3.79-3.31-4.73-.72-.47-.36-.47-1.42-.72-.59-.12-1.06-.24-2.01.0-.12.12-.24.36-.47.48-.95.59-2.13.83-2.72 1.65l-.59 1.18c-.24.35-.59.6-.72.95.0.12.12.35.0.47-.12.47-.47.71-.59 1.06-.35.59-.12 1.18-.24 1.77-.12.48-.47.95-.59 1.42.0.35.12.94.0 1.54-.12 1.07-.47 4.5-.24 5.8.35 1.3.83 2.6 1.18 3.67.24.59.35 1.54.83 2.24 1.65 2.61 4.85 6.04 7.57 8.05l1.42 1.19c.24.24.35.59.59.59l1.54 1.06c.47.24.95.95 1.54 1.31l1.54 1.06c.35.24.72.95 1.07 1.06.94.47 1.65 1.54 2.6 2.37.72.83 1.66 1.42 2.25 2.24 1.42 2.01 2.72 3.79 3.55 6.04.47 1.42 1.06 2.72 1.42 4.38.0.47-.12.95.0 1.42.12.83.59 1.07.47 1.9.0.24-.24.35-.24.47.0.35.12.71.0 1.18.0.24-.24.36-.24.6-.35 1.3.0 2.6-.24 3.67-.12.83-.71 1.89-.95 2.72v.71c-.12.12-.35.12-.35.24-.12.24.0.59-.12.94-.24.59-.59 1.42-.95 2.01-.36.47-.72 1.19-.95 1.66-.47.59-1.65 1.42-2.13 2.13-.47.95-1.31 1.78-2.25 2.37-.83.59-1.54 1.54-2.49 2.13-1.06.6-2.36 1.19-3.66 1.66l-3.08.71c-.95.24-2.13.0-3.08.24-1.78.24-3.55.12-5.45-.24-.47-.12-.95.12-1.42.0-.12.0-.35-.24-.47-.24-.47-.12-.94.12-1.42.0-.72-.12-1.66-.59-2.61-.71-.24-.12-.59-.24-.83-.24-2.37-.83-4.97-3.2-6.39-5.33-1.42-1.89-2.61-4.73-3.08-7.57-.12-.35.0-.71.0-.95l-.35-.59c-.24-1.18-.35-2.84-.59-3.9-.24-.71.12-1.54.0-2.13-.12-.47-.35-.95.0-1.77.35-1.54 4.26-.83 5.79-1.18.6-.12.48-.12 1.07.0 1.77.35 4.14-.72 5.68.0.83.35.71 1.42.95 2.48.0.35.36.59.48.83.12.72.0 1.31.24 1.9.59 2.72 3.07 5.2 5.56 5.68 2.96.48 5.8-.83 6.86-2.36 1.06-1.42 1.65-2.61 2.01-4.38.12-.71-.24-1.07-.24-1.42-.12-.71.12-1.54.0-2.24-.12-.47-.94-1.9-1.42-2.61-.47-.71-1.42-1.42-2.13-2.13-1.54-1.42-2.72-2.72-4.38-3.9-.71-.47-1.3-1.3-2.01-1.77-.83-.47-1.66-1.18-2.49-1.77-.83-.36-1.65-1.66-2.49-2.25l-1.3-.71c-.35-.24-.47-.71-.71-.83-.95-.59-2.84-2.24-3.31-3.31-.12-.24-.47-.35-.71-.6-.24-.35-.24-.83-.47-1.06l-1.54-2.01c-.47-.6-.71-1.54-1.06-2.25-.47-.83-.95-1.54-1.18-2.49-.12-.47-.35-.59-.47-1.3-.24-1.65-1.07-2.96-1.42-4.73-.12-.71.24-1.54.0-2.37.0-.24-.12-.12-.12-.35-.24-.71.12-1.42.0-2.25-.24-.71-.47-2.84-.24-4.02.0-.47.35-.95.35-1.42.12-.35.0-.83.0-1.18l.71-3.9c.24-1.07.6-2.61.95-3.67l.47-.71c.59-1.54.95-2.84 1.77-4.15l.83-1.06c.35-.59.59-1.42 1.06-1.89 2.01-2.96 5.09-4.97 8.87-6.51.83-.24 1.54-.71 2.49-.95.47.0.95.12 1.42.0.35.0 1.31-.24 1.78-.35.71-.12 1.54.0 2.36.12z" fill="#ffca6c"/></g><g><circle cx="457.97" cy="36.68" r="17.08" transform="translate(20.46 176.94) rotate(-22.35)" fill="#f85a23"/><circle cx="510.31" cy="36.68" r="17.08" transform="translate(43.83 246.81) rotate(-28.36)" fill="#f85a23"/><circle cx="562.65" cy="36.68" r="17.08" transform="translate(28.33 216.75) rotate(-22.35)" fill="#f85a23"/></g><path d="M180.64 210.48 184.11 479.7h652.4L839.98 210.48H180.64z" fill="#38659a"/><g opacity=".48"><path d="M839.98 210.48H824.7L555.47 479.7H734.43L837.85 376.29 839.98 210.48z" fill="#97d5d7"/><path d="M237.53 210.48 181.36 266.65 183.94 466.98l256.5-256.5H237.53z" fill="#97d5d7"/><path d="M571.12 210.48 301.9 479.7h60L631.12 210.48h-60z" fill="#97d5d7"/><path d="M661.61 210.48 392.38 479.7H461.7L730.92 210.48H661.61z" fill="#97d5d7"/></g><path d="M300.57 639.36l414.2 6.34 141.54-159.84c-9.62-7.8-22.28-12.59-36.21-12.59H203.07c-15.85.0-30.08 6.19-40.02 16l127.31 131.61 10.21 18.48z" fill="#ffbb53"/><path d="M874.5 522.6c0-14.61-7.05-27.7-18.18-36.74l-141.54 159.84-414.2-6.34-10.21-18.48-127.31-131.61c-8.89 8.78-14.37 20.46-14.37 33.32v120.19h0c41.3.0 74.79 33.48 74.79 74.78v114.9H801.85v-114.9c0-41.3 33.48-74.78 74.79-74.78h-2.14v-120.19z" fill="#ff8c3e"/><path d="M148.68 642.79h-20.81c-51.61.0-93.45 37.94-93.45 84.74v104.94H223.46v-114.9c0-41.3-33.48-74.78-74.79-74.78z" fill="#ffca6c"/><path d="M896.1 642.79h-19.46c-41.3.0-74.79 33.48-74.79 74.78v114.9h187.7V727.53c0-46.8-41.84-84.74-93.45-84.74z" fill="#ffca6c"/><g><path d="M287.27 617.26H735.9c1.07.0 1.93.87 1.93 1.93v213.29H285.34v-213.29c0-1.07.87-1.93 1.93-1.93z" fill="#7f7f7f"/><g><path d="M285.34 806.43h452.5v10.08H285.34z" fill="#252530"/><path d="M285.34 777.75h452.5v10.08H285.34z" fill="#252530"/><path d="M285.34 749.06h452.5v10.08H285.34z" fill="#252530"/><path d="M285.34 720.38h452.5v10.08H285.34z" fill="#252530"/><path d="M285.34 691.7h452.5v10.08H285.34z" fill="#252530"/><path d="M285.34 663.01h452.5v10.08H285.34z" fill="#252530"/><path d="M285.34 634.32h452.5v10.08H285.34z" fill="#252530"/></g></g><path d="M133.86 729.36c-32.11.0-58.14 23.6-58.14 52.72v20.32h96.43l-1.06-73.05h-37.23z" fill="#f77f26"/><path d="M234.6 729.36h-63.51l1.06 73.05h62.45c8.71.0 15.78-6.41 15.78-14.31v-44.43c0-7.9-7.06-14.31-15.78-14.31z" fill="#f85a23"/><path d="M891.53 729.36c32.11.0 58.14 23.6 58.14 52.72v20.32h-96.43l1.06-73.05h37.23z" fill="#f77f26"/><path d="M790.79 729.36h63.51l-1.06 73.05h-62.45c-8.71.0-15.78-6.41-15.78-14.31v-44.43c0-7.9 7.06-14.31 15.78-14.31z" fill="#f85a23"/><path d="M791.04 884.52h135.01v191.86c0 2-1.62 3.61-3.61 3.61H794.66c-2 0-3.61-1.62-3.61-3.61v-191.86h0z" fill="#7f7f7f"/><path d="M103.58 884.52H238.59v191.86c0 2-1.62 3.61-3.61 3.61H107.19c-2 0-3.61-1.62-3.61-3.61v-191.86h0z" fill="#7f7f7f"/><path d="M34.42 832.48v81.5c0 15.15 13.54 27.42 30.24 27.42H959.31c16.7.0 30.24-12.28 30.24-27.42v-81.5H34.42z" fill="#252530"/><rect x="940.05" y="245.22" width="82.84" height="195.87" rx="2.93" ry="2.93" fill="#252530"/><rect x="0" y="245.22" width="82.84" height="195.87" rx="2.93" ry="2.93" transform="translate(82.84 686.3) rotate(180)" fill="#252530"/><path d="M276.73 610.15c-.88.0-1.76-.34-2.41-1.02L168.68 499.92c-1.29-1.33-1.25-3.46.08-4.75 1.33-1.29 3.47-1.25 4.75.08l105.64 109.21c1.29 1.33 1.25 3.46-.08 4.75-.65.63-1.5.95-2.34.95z" fill="#ffca6c"/><path d="M745.16 614.74c-.79.0-1.59-.28-2.22-.85-1.39-1.23-1.52-3.35-.29-4.74l45.95-51.89c1.23-1.4 3.35-1.53 4.74-.29 1.39 1.23 1.52 3.35.29 4.74l-45.95 51.89c-.66.75-1.59 1.14-2.51 1.14z" fill="#ffca6c"/><path d="M808.37 543.36c-.79.0-1.59-.28-2.22-.85-1.39-1.23-1.52-3.35-.29-4.74l28.44-32.11c1.23-1.4 3.35-1.53 4.74-.29 1.39 1.23 1.52 3.35.29 4.74l-28.44 32.11c-.66.75-1.59 1.14-2.51 1.14z" fill="#ffca6c"/></g></g></svg>