<svg xmlns="http://www.w3.org/2000/svg" width="1024.95" height="1080" viewBox="0 0 1024.95 1080"><g id="a"/><g id="b"><g id="c"><g id="d"><g><path d="M637.56 1066.41c-12.37.0-24.36-6.65-30.61-18.35l-185.35-302.03-185.28 302.03c-9.01 16.92-30.12 23.24-46.91 14.23-16.97-9.07-23.33-30.1-14.24-47l215.85-359.21c6.01-11.29 17.82-18.33 30.58-18.33s24.61 7.04 30.61 18.31l215.93 359.21c9.09 16.92 2.72 37.95-14.24 47.02-5.16 2.79-10.75 4.12-16.33 4.12z" fill="#ffd655"/><path d="M637.56 1080c-17.85.0-34.18-9.77-42.6-25.52l-173.36-282.44-173.68 283.13c-11.49 21.69-42.17 31.28-64.94 19.11-11.38-6.1-19.76-16.28-23.48-28.63-3.75-12.36-2.44-25.42 3.68-36.78l216.18-359.78c8.06-15.15 24.36-24.92 42.25-24.92s34.22 9.77 42.6 25.51l215.61 358.61c6.43 11.95 7.74 25.01 3.99 37.37-3.75 12.37-12.09 22.54-23.51 28.63-6.89 3.75-14.78 5.73-22.73 5.73zm-215.96-359.97 196.94 320.92c5.9 10.98 19.06 14.72 28.88 9.37 5.05-2.7 8.73-7.14 10.36-12.55 1.63-5.39 1.06-11.1-1.63-16.07l-215.61-358.65c-7.99-14.88-30.19-14.35-37.51-.6l-216.21 359.83c-2.37 4.4-2.93 10.09-1.31 15.48 1.63 5.39 5.3 9.85 10.29 12.53 10.14 5.41 23.23 1.27 28.53-8.64l197.26-321.63z" fill="#0f0f0f"/></g><g><path d="M349.23 458.97c66.85-38.13 151.91-14.83 190.02 51.99 38.14 66.83 14.92 151.93-51.93 190.05-66.85 38.13-151.94 14.85-190.09-51.99-38.11-66.81-14.84-151.92 52-190.05z" fill="#ffd655"/><path d="M418.42 732.93c-54.87.0-105.84-29.57-132.99-77.17-20.22-35.48-25.46-76.72-14.67-116.11 10.78-39.4 36.27-72.24 71.73-92.48 23.08-13.15 49.25-20.12 75.66-20.12 54.83.0 105.77 29.57 132.92 77.17 20.26 35.48 25.49 76.72 14.71 116.12-10.75 39.4-36.24 72.24-71.69 92.48-23.08 13.17-49.24 20.12-75.65 20.12zm-.28-278.69c-21.71.0-43.2 5.73-62.15 16.54-29.2 16.63-50.13 43.64-59 76.04-8.87 32.4-4.56 66.3 12.05 95.47 22.34 39.14 64.23 63.46 109.38 63.46 21.71.0 43.2-5.73 62.15-16.54 29.2-16.63 50.13-43.64 58.97-76.04 8.87-32.38 4.56-66.28-12.09-95.47-22.34-39.13-64.2-63.46-109.31-63.46z" fill="#0f0f0f"/></g><g><path d="M764.12 88.82 919.46 361.1 423.47 566.13 335.2 411.34 764.12 88.82z" fill="#b37258"/><path d="M417.6 583.27l-100.15-175.61L768.29 68.69 938.9 367.77l-521.3 215.5zm-64.66-168.25 76.39 133.97 470.68-194.54-140.06-245.48L352.94 415.02z" fill="#0f0f0f"/></g><g><path d="M321.41 427.27l81.31 142.64L119.41 690.74 73.2 609.68 321.41 427.27z" fill="#b37258"/><path d="M113.61 707.99l-58.22-102.1 270.26-198.62 96.44 169.16L113.61 707.99zm-22.59-94.53 34.19 60.03 258.14-110.1-66.18-116.13-226.15 166.21z" fill="#0f0f0f"/></g><g><path d="M296.13 372.97c21.49-12.23 48.86-4.76 61.05 16.7l96.19 168.56c12.23 21.46 4.77 48.82-16.76 61.09h0c-21.42 12.23-48.78 4.76-61.05-16.72l-96.12-168.54c-12.3-21.48-4.81-48.82 16.69-61.09h0z" fill="#ffd655"/><path d="M414.53 638.79c-20.93.0-40.37-11.29-50.77-29.45l-96.12-168.56c-7.74-13.5-9.76-29.24-5.65-44.26 4.1-15.06 13.86-27.62 27.4-35.37 27.22-15.48 64.34-5.13 79.61 21.79l96.19 168.54c7.71 13.54 9.72 29.27 5.59 44.31-4.1 15.04-13.86 27.59-27.43 35.32-8.77 5.02-18.74 7.67-28.81 7.67zm-96.26-258.1c-5.38.0-10.71 1.42-15.41 4.1-7.25 4.12-12.45 10.83-14.64 18.88-2.19 8.03-1.1 16.4 3.04 23.63l96.12 168.56c8.24 14.37 28.07 19.9 42.49 11.65 7.28-4.14 12.48-10.83 14.67-18.88 2.19-8.04 1.13-16.44-2.97-23.67l-96.19-168.56c-5.51-9.7-15.91-15.71-27.11-15.71z" fill="#0f0f0f"/></g><g><path d="M39.55 570.88c21.14-12.06 45.11-9.9 53.49 4.79l65.79 115.3c8.34 14.71-1.98 36.41-23.08 48.47h0c-21.18 12.05-45.07 9.88-53.45-4.83l-65.79-115.28c-8.41-14.7 1.95-36.39 23.05-48.45h0z" fill="#ffd655"/><path d="M108.06 760.83c-16.83.0-30.54-7.11-37.58-19.48L4.69 626.07c-6.26-10.91-6.26-24.7.0-37.81 5.51-11.61 15.52-21.99 28.1-29.18 27.22-15.43 60.24-10.96 72.05 9.86l65.79 115.3c12.23 21.58-.14 51-28.14 67.01-11.03 6.27-22.91 9.58-34.43 9.58zm-40.83-184.15c-6.68.0-14.14 2.14-20.93 6.01-7.71 4.4-13.93 10.69-17.08 17.27-1.38 2.9-3.32 8.39-.92 12.62l65.79 115.3c4.14 7.26 21.32 7.48 34.93-.25 15.1-8.64 21.96-22.94 17.96-29.94l-65.75-115.28c-2.05-3.59-7.28-5.73-14-5.73z" fill="#0f0f0f"/></g><g><path d="M795.23 17.26c12.97-7.41 28.81-4.12 35.35 7.33l177.96 312.02c6.58 11.44 1.27 26.73-11.63 34.15l-56.74 32.31c-12.94 7.42-28.81 4.12-35.35-7.3L726.9 83.75c-6.54-11.45-1.34-26.74 11.66-34.17l56.67-32.33z" fill="#ffd655"/><path d="M925.54 420.64c-13.86.0-26.02-6.77-32.53-18.12L715.09 90.49c-5.06-8.84-5.97-19.67-2.54-29.71 3.25-9.6 10.11-17.76 19.27-22.99l56.67-32.33c19.02-10.78 43.94-5 53.91 12.41l177.96 312.01c10.25 17.84 2.79 41.49-16.65 52.67l-56.81 32.33c-6.54 3.76-13.93 5.76-21.35 5.76zM809.87 26.89c-2.69.0-5.41.76-7.88 2.18L745.32 61.4c-3.36 1.91-5.94 4.9-7.04 8.15-.53 1.57-1.2 4.63.42 7.48l177.93 312.01c2.65 4.62 10.64 5.76 16.79 2.24l56.78-32.33c6.29-3.62 9.33-10.77 6.57-15.57L818.78 31.33c-1.59-2.78-4.92-4.44-8.91-4.44z" fill="#0f0f0f"/></g></g></g></g></svg>