<svg id="_лой_2" xmlns="http://www.w3.org/2000/svg" width="1080" height="647.58" viewBox="0 0 1080 647.58"><g id="Map_576666624"><g id="Map_576666624-2"><g><path d="M758.86 54.25h-2.54V9.79c0-3.62-2.64-6.79-6.24-7.2-4.26-.48-7.88 2.85-7.88 7.01v23.15h-2.54V9.82c0-4.99 3.73-9.32 8.7-9.78 5.69-.52 10.49 3.97 10.49 9.56V54.25z" fill="#4d5cb0"/><g><path d="M984.96 432.41c-6.32-20.49-20.74-42.81-20.74-42.81l-44.14-55.84-79.43-108.23-41.96 132.8s11.54 66.32 77.79 87.95c0 0 5.19 8.83 6.99 22.53l18.28 133.54 87.11-154.86c-1.14-5.18-2.44-10.3-3.91-15.07z" fill="#937d6f"/><path d="M881.92 213.56s19.8 8.97 28.47 25.19c8.67 16.21 26.37 116.11 26.37 116.11l-54.84-141.3z" fill="#937d6f"/></g><g><path d="M96.41 432.41c6.32-20.49 20.74-42.81 20.74-42.81l44.14-55.84 53.63-122.98 67.76 147.55s-11.54 66.32-77.79 87.95c0 0-5.19 8.83-6.99 22.53l-18.28 133.54-87.11-154.86c1.14-5.18 2.44-10.3 3.91-15.07z" fill="#937d6f"/><path d="M199.45 213.56s-19.8 8.97-28.47 25.19c-8.67 16.21-26.37 116.11-26.37 116.11l54.84-141.3z" fill="#937d6f"/></g><g><path d="M864.85 466.52V28L703.02 9.77 541.48 27.97 379.94 9.77 218.1 28V466.52L379.94 448.29 541.48 466.49 703.02 448.29 864.85 466.52z" fill="#fcfcfc"/><g><path d="M351.11 236.15c-2.51 1.69-7.81 17.76-8.46 20.04-.65 2.28 2.28 12.85-1.14 15.94-3.41 3.09-8.78 12.03-2.93 22.6 5.85 10.57 17.56 5.65 21.3 11.67 3.74 6.02 1.95 40.33 5.04 48.95 3.09 8.62 7.48 29.43 21.14 34.96 13.66 5.53 9.59 1.79 9.59.98s-6.99-4.39-8.62-12.36c-1.63-7.97-5.37-20.65 3.41-23.74 8.78-3.09 13.17-16.91 17.24-24.72 4.07-7.81.98-11.38 5.2-12.36 4.23-.98 12.52 8.66 12.68 3.13.16-5.53-2.6-13.01 1.14-16.1 3.74-3.09 8.94-14.15.0-19.51-8.94-5.37-10.57-19.39-16.59-20.53-6.02-1.14-7.32-13.01-16.26-15.94-8.94-2.93-13.5-5.37-14.8-9.76-1.3-4.39-5.53-1.95-11.38-2.11-5.85-.16-8.8-6.36-16.59-1.14z" fill="#c9bdbd"/><path d="M333.29 234.78c2.17 2.06-1.95 9.43.0 12.52 1.95 3.09 6.99 5.85 4.88 6.99-2.11 1.14-9.76-2.93-11.55-7.48-1.79-4.55-6.18-5.2-10.08-8.29-3.9-3.09-9.76 6.04-14.8 3.6-5.04-2.44-12.68-6.83-13.01-11.55-.32-4.72-6.18-18.38-7.8-18.05-1.63.33 1.95 10.73.0 12.68-1.95 1.95-7.64-6.33-7.64-10.72s-.16-10.08-2.28-10.73c-2.11-.65-2.76-4.23-3.58-11.22-1.34-11.51 11.14-21.79 11.38-20.49-.65-3.42-1.95-4.07-2.11-5.69-1.48-14.84 7.83-12.62-.98-19.51-7.48-5.85-18.05-1.46-24.72.81-6.67 2.28-20 9.43-20.81 6.99-.81-2.44 4.88-4.39 4.07-8.46-.81-4.07 13.17-7.97 12.2-9.92-.98-1.95.0-5.2 3.09-5.69 3.09-.49 4.23-2.93 10.25-4.88 6.02-1.95 23.09-10.91 43.42-5.54.0.0 9.92-12.71 20.49-10.6 10.57 2.11 15.77-10.61 24.07-10.61 4.03.0 10.91 2.18 15.04.57 4.38-1.71 6.05-7.36 9.84-6.1 1.72.57 2.37 4.47 3.9 4.55 1.32.08 1.36-4.01 3.58-6.34 2.57-2.71 13.51-3.93 19.6-2.19.74.21 1.91 2.81 3.74 3.9 1.52.9 3.66.18 4.88 1.54 1.06 1.2 1.14 3.62 1.79 4.96 1.56 3.2 3.86 3.36 2.28 5.2-.76.89-1.75 1.87-2.88 2.83-.6.51-3.77-3.4-4.44-2.91-.66.49 1.18 5.38.48 5.82-4.06 2.52-8.5 3.85-10.65.93.0.0-.29-2.4-2.68-3.17-2.56-.82-6.75-.46-6.67-1.46.16-1.95 10.16-.16 10.33-4.07.16-3.9-3.25-7.8-9.76-3.09-6.5 4.72-5.37 8.62-8.13 9.76-2.76 1.14-8.78.65-15.45 2.28-6.67 1.63-14.15 5.85-8.46 10.57 5.69 4.72 18.21 7.8 21.3 2.93 3.09-4.88 3.09-13.5 7.64-13.5s8.29.49 9.43 2.44c1.14 1.95-.16 5.85 1.79 5.85s5.69-3.09 8.94.49c3.25 3.58 4.39 10.73 4.72 14.47.33 3.74 5.37 10.57 2.11 11.55-3.25.98-10.57 1.3-11.55-1.3-.97-2.6-2.6-8.29-6.83-4.72-4.23 3.58 2.76 9.11 1.14 10.24-1.63 1.14-9.11 5.04-11.71 3.25-2.6-1.79-6.83 1.46-8.94 4.07-2.11 2.6-10.73 6.02-12.85 11.38-2.11 5.37-10.08 7.32-13.33 11.06-3.25 3.74.49 31.26-4.72 31.1-5.2-.16-.65-8.78-3.25-10.41-2.6-1.63-6.02-3.25-9.43-.65-3.42 2.6-12.85 9.3-16.42 13.2-3.58 3.9-8.78 20.33-.65 21.3 8.13.98 6.66-13.04 9.59-14.34 2.93-1.3 6.18-1.95 6.67.33.49 2.28-7.81 10.41-3.42 11.71 4.39 1.3 5.69-1.3 8.94 1.79z" fill="#c9bdbd"/><path d="M414.87 81.28c-1.93 1.54 4.01 18.79 8.56 18.36 4.55-.43 8.24 2.38 7.26 5.31-.98 2.93-1.96 3.36.16 5.85 2.12 2.49-.7 1.84-3.41 3.79-2.71 1.95-.54 13.23 1.73 14.31 2.28 1.08 2.93-.43 4.01.54 1.08.97.54 2.38 3.25 1.73 2.71-.65 7.48-11.49 10.3-11.49s7.26 8.16 11.38 6.1c4.12-2.06 4.01-2.39 5.64-2.28 1.63.11 13.12 2.83 14.09-.1.98-2.93-1.19-3.47.0-4.66 1.19-1.19 5.42 1.86 7.37-2.26 1.95-4.12.87-3.04 1.95-4.12 1.08-1.08 10.19-2.82 9.87-4.44-.32-1.63-3.79.11-8.78-1.3-4.99-1.41-13.23-11.41-22.33-9.89-9.11 1.52-16.37-9.13-22.87-7.72-6.5 1.41-15.29 1.84-16.48 3.04-1.19 1.19-1.73 1.08-3.69 1.52-1.95.43-5.31-14.46-8.02-12.29z" fill="#c9bdbd"/><path d="M471.35 128.51c-.75.78 1.41 2.71 2.39 3.69.98.98 2.71 5.98 7.05 4.57 4.34-1.41 9.65 2.94 7.59.88-2.06-2.06-3.23-6.84-8.28-6.3-5.05.54-6.03-5.65-8.74-2.83z" fill="#c9bdbd"/><path d="M497.56 159.56c-1.06-2.31-3.9-1.84-5.31-.76-1.41 1.08-4.51 1.08-3.88 2.28.63 1.19-.19 2.93.0 3.79.19.87.41 2.06 2.8 1.41 2.38-.65 4.66-.11 4.88-.87.22-.76-.63-3.58.55-4.12 1.18-.54 1.62-.32.97-1.73z" fill="#c9bdbd"/><path d="M502.22 150.56c-2.01-.81-5.84.98-5.63 3.79.21 2.82 3.79 4.66 4.44 5.85.65 1.19.43 1.35-.87 1.98-1.3.62-2.11 5.34-2.3 6.37-.19 1.03-.19 1.63 1.54 1.03 1.73-.6 6.07-1.14 7.81-1.68 1.73-.54 3.04-2.17 2.82-3.9-.22-1.73-2.17-1.84-2.93-3.36-.76-1.52-2.28-2.82-2.93-4.77-.65-1.95.76-4.23-1.95-5.31z" fill="#c9bdbd"/><path d="M542.6 132.37c-3.17.74-9.76 7.15-14.85 11.05-5.1 3.9-11.38 5.64-11.06 8.46.32 2.82 1.19 7.48 3.79 7.05 2.6-.43 5.42-1.95 6.94-.87 1.52 1.08 3.69 3.58 2.93 4.44-.76.87-3.36 1.95-1.63 2.82 1.73.87 4.45-1.84 5.85-1.84s2.93-1.19 3.04-3.14c.11-1.95-.98-2.39.0-2.6.98-.22 2.82-1.52 3.04-2.93.22-1.41-2.49-2.49-2.49-4.44.0.0 2.71-2.49 4.44-3.79 1.74-1.3 2.93-4.12 4.55-3.9 1.63.22 3.04.65.76 2.49-2.28 1.84-4.66 3.25-3.79 6.72.87 3.47 5.41 2.97 4.98 5.34-.43 2.36-3.79 2.04-4.12 3.77-.33 1.73.76 3.7-2.17 4.51-2.93.81-4.12.69-6.83 1.45-2.71.76-3.58-.75-5.2-.54-1.63.22-2.71 1.72-3.79.75-1.08-.97 1.08-6.28-.98-6.72-2.06-.43-4.34 1.14-4.12 4.31.22 3.17-2.82 3.93-4.12 4.8-1.3.87-7.37-1.41-7.91-.11-.54 1.3-2.49 2.06-3.36 1.73-.87-.33-2.17-.65-3.04.65-.87 1.3-6.81.76-5.95 1.63.86.87 1.08 1.84 2.48 2.17 1.41.33 5.64 3.69 5.1 6.07-.54 2.39.0 3.69-1.84 3.79-1.84.11-7.34-.43-9.26-.54-1.91-.11-4.85-.22-4.79 1.63.06 1.84.59 4.34.0 6.07-.59 1.73-1.57 3.25-1.03 4.45.54 1.19.43 4.23 3.04 3.9 2.6-.33 3.14 1.41 5.1 1.41s2.38.33 4.12.0c1.73-.33 4.66-1.63 4.88-2.93.22-1.3 1.3-1.73 1.3-2.38s-.43-1.19-.11-2.17c.33-.98.76-3.04 2.06-3.14 1.3-.11 4.44 5.96 4.66 4.33.22-1.63-.43-2.71 1.95-3.79 2.39-1.08 3.9 1.63 4.77.76.87-.87.87-1.41 1.84-1.41s2.06-2.38 3.47-1.08c1.41 1.3.33 2.93 4.01 5.2 3.69 2.28 8.13 4.77 7.48 7.05-.65 2.28-2.49 1.73-4.01 1.63-1.52-.11-2.38.22-2.28.76.11.54 1.95.98 3.25 1.73 1.3.76 2.06.43 2.82-1.08.76-1.52 2.17-1.08 2.82-2.71.65-1.63-.11-4.12.43-3.79.54.33 2.17 1.84 2.71.87.54-.98-2.93-4.12-4.99-4.99-2.06-.87-3.9-1.08-4.34-2.39-.43-1.3-3.25-4.23-1.84-4.88 1.41-.65 3.9.54 4.77 2.06.87 1.52 2.49 1.63 4.34 3.04 1.84 1.41 2.82 4.12 3.36 5.85.54 1.73 2.82 4.01 3.58 5.96.76 1.95 1.19 3.25 3.14 3.47 1.95.22 2.71-1.84 2.71-3.47s-.76-3.9.0-5.2c.76-1.3 2.71-3.69 3.47-2.28.76 1.41-.54 4.66.98 6.4.0.0 1.73 1.3 3.36 1.73 1.63.43 2.6 1.48 3.96 1.12 1.36-.36 2.77-.36 3.96.07 1.19.43 1.19-.43 2.71.0 1.52.43 5.09-8.24 5.2-5.74.11 2.49-2.49 13.77-2.49 16.48s2.38 3.47 6.07 8.89c3.69 5.42 8.89 13.66 11.06 18 2.17 4.34 3.14 12.79 6.72 11.6 3.58-1.19 13.99-17.16 16.8-17.91 2.82-.76 9.76-6.5 11.49-11.6 1.74-5.1-.76-6.4-2.06-6.4s-1.95.76-2.6-.22c-.65-.98-1.84-3.47-4.12-2.82-2.28.65-3.47 2.71-5.2 2.17l-1.73-.54s.54-3.04-1.08-4.23c-1.63-1.19-8.24-.85-6.83-3.13 1.41-2.28 3.69-4.57 6.18-.88 2.49 3.69 5.85 4.23 8.02 3.79 2.17-.43 3.47-1.73 4.01-.76.54.97-.98 4.56 6.83 5.64 7.81 1.08 11.82-10.76 13.01-8.48 1.19 2.28 3.9 5.1 5.42 7.05 1.52 1.95 2.71 3.25 3.47 3.58.76.32 3.04-1.84 4.23.43 1.19 2.28 5.37 15.5 6.94 20.6 1.57 5.1 3.25 8.78 6.29 7.1 3.04-1.68 4.01-23.94 4.34-29.15.33-5.2 7.91-9.65 9-10.3 1.08-.65 2.93-2.39 3.36-3.69.43-1.3 4.77-3.47 9.65.54 4.88 4.01 5.2 8.78 5.42 10.41.22 1.63 1.3 2.39 2.82 2.06 1.52-.33 3.36-2.17 5.1.43 1.73 2.6 1.63 10.3 2.17 12.68.54 2.39-1.41 4.23.0 5.31 1.41 1.08 2.49 2.93 4.12 5.53 1.63 2.6 5.75 10.84 8.13 9.76 2.38-1.08.22-4.55.0-6.83-.22-2.28-1.41-4.77-3.8-6.61-2.38-1.84-3.9-4.23-4.44-5.2-.54-.98-1.63-1.08-1.63-1.08.0.0-.22-7.16 3.36-6.83 3.58.32 5.96 7.97 7.15 8.86 1.19.89.65 2.3 2.17.89 1.52-1.41 4.66-4.34 5.96-5.64 1.3-1.3 1.95-3.8 1.63-5.64-.33-1.84-2.82-8.24-6.4-10.52-3.58-2.28-1.08-5.53-.11-7.37.98-1.84 3.36-.65 4.55.22 1.19.87 4.66 13.37 6.5 12.29 1.84-1.08 8.13-3.47 10.95-8.67 2.82-5.2 4.01-12.03 2.6-13.88-1.41-1.84-8.35-9.65-8.02-10.84.33-1.19 1.74-2.06 2.6-2.39.87-.32 1.74-1.08 1.08-1.95-.65-.87-3.47-1.08-4.01-1.08s-1.63.0-2.28.11c-.65.11-4.01-5.31-1.3-5.86 2.71-.54 1.73 2.49 3.25 3.04 1.52.54 4.23-2.93 6.07-1.08 1.84 1.84 1.08 2.17 2.06 3.25.98 1.08 5.42 5.53 5.42 8.35s6.07-.43 5.42-2.06c-.65-1.63-3.25-6.5-7.59-10.3 3.04-.33 2.49-1.73 2.6-2.82.11-1.08.87-3.79 2.38-3.9 1.52-.11 4.45-1.08 4.88-4.12.43-3.03 1.52-10.84 2.93-10.3 1.41.54 3.69 15.53 5.64 15.74 1.95.22 2.6-.32 1.95-1.84-.65-1.52-1.84-5.85-3.69-7.05-1.84-1.19-2.17-10-3.14-11.95-.98-1.95-4.12-4.12-4.66-4.77-.54-.65-1.84-2.82-2.93-2.71-1.08.11-6.29-.32-7.26.0-.97.33-6.61-.87-5.53-3.58 1.08-2.71 1.41-7.16 5.64-7.26 4.23-.11 6.4-.43 8.89-.33 2.49.11 2.39 1.08 4.55 1.19 2.17.11 4.12 9.02 4.45 7.94 7.76-25.84-11.33-4.15.11-4.77 4.01-.22 2.01 1.08 3.82 1.84 1.81.76 3.87-.22 3.98 1.08.11 1.3-2.93 3.79.0 9 2.93 5.2 9.76 11.38 12.25 11.49 2.49.11 2.39-6.72 1.41-9.65-.98-2.93-6.5-7.59-5.1-8.89 1.41-1.3 3.25-1.84 4.34-1.52 1.08.32 3.47-.76 5.2-2.93 1.73-2.17 2.28-1.95 3.47-1.84 1.19.11 3.68-.87.0-2.49-3.69-1.63-3.47-3.58-1.19-3.69 2.28-.11 6.94 6.52 9.32 6.52s3.36-2.38.0-4.12c-3.36-1.73-8.24-5.22-9.87-6.63-1.63-1.41-13.88-5.1-19.62-5.53-5.75-.43-12.68-9.35-14.53-8.92-1.84.43-8.46.02-12.25-1.62-3.79-1.64-11.71-.33-13.98-.77-2.28-.43-7.15-16.41-11.71-16.63-4.55-.22-8.67-.76-10.62.0-1.95.76-3.69 2.28-6.07 1.84-2.39-.43-5.1-2.82-8.35-3.36-3.25-.54-13.22-1.19-16.04-.98-2.82.22-7.91.67-9.54-.04-1.63-.72-3.36-3.64-6.07-4.51-2.71-.87-10.95 12.62-12.9 11.75-1.95-.87-4.23.22-7.37 1.3-3.14 1.08-7.7.43-10.84 1.95-3.14 1.52-6.18 12.49-8.02 12.6-1.84.11-2.93-1.52-3.47-.77-.54.76-4.66.98-6.18.98s-4.55-2.06-6.4-1.52c-1.84.54-.87 2.6-1.95 3.36-1.08.76-1.73 2.39-3.79 2.82-2.06.43-2.06 7.94-7.37 10.87-5.31 2.93-6.29-.43-7.91.0-1.63.43-8.02 2.38-8.89 2.28-.87-.11-2.28-1.63-3.58-1.52-1.3.11-1.52 2.28-3.47 2.17-1.95-.11-5.1 4.22-7.54 3.57-2.44-.65-7.53-.54-12.3-1.08-4.77-.54-7.16-1.17-13.66.33z" fill="#c9bdbd"/><path d="M598.51 284.09s7.48-15.19 8.67-19.53c1.19-4.34 5.85-13.88 3.14-15.5-2.71-1.63-11.92 14.99-14.31 11.95-2.38-3.04-1.73-3.9-2.82-4.99-1.08-1.08-2.6-2.49-4.88-4.23-2.28-1.74-1.73-4.44-3.14-6.61-1.41-2.17-3.25-2.93-3.58-5.96-.32-3.04-1.84-5.2-3.36-7.48-1.52-2.28-4.99-1.63-4.99-3.15s-.33-6.18-3.8-9.32c-3.47-3.14-6.4 1.08-6.4 1.08l-5.1-2.25s-4.88 2.47-5.96.95c-1.09-1.52-5.1-1.84-6.5.0-1.41 1.84.22 3.47-1.52 4.12-1.73.65-2.17-.98-4.55-1.52-2.39-.54-3.04-.98-3.04-.98.0.0.11-1.98-2.06-2.89-2.17-.9-5.2.61-6.61-1.12-1.41-1.73.0-3.69.0-5.31s1.13-4.12-.63-4.23c-1.76-.11-4.14 1.3-6.75 1.19-2.6-.11-4.55.33-4.55.33.0.0-1.63-6.72-4.12-6.39-2.49.32-3.79-.43-5.2.76-1.41 1.19-3.25 1.52-4.77 2.06-1.52.54-4.23 1.3-4.88.87-.65-.43-1.95-.87-2.82-.65-.87.22-2.28 2.6-2.71 3.58-.43.98-2.27 1.52-3.74 2.49-1.47.98-2.33 3.14-2.44 4.88-.11 1.73-3.25.64-5.64 1.5-2.39.87-2.49 2.82-2.71 4.12-.22 1.3-2.06.76-2.28 3.04-.22 2.28-4.01 1.4-4.23 4-.22 2.6.76 5.96.98 7.81.22 1.84-.71 4.99-1.01 5.53-.29.54-3.11 3.69-1.59 6.94 1.52 3.25 6.72 10.31 7.16 12.7.43 2.38 3.69 6.29 6.18 8.67 2.49 2.39 3.25 8.47 6.29 8.69 3.04.22 5.53-1.95 7.26-1.84.0.0 2.49.98 5.09.54 2.6-.43 9.43 1.73 12.36 3.14 2.93 1.41 2.49 3.79 4.01 4.44 1.52.65 5.96-1.19 7.16 1.3 1.19 2.49.76 8.46-.54 9.76-1.3 1.3.32 4.23 3.36 8.13 3.03 3.9 3.79 5.64 4.23 7.59.43 1.95 2.17 8.89 1.84 10.95-.33 2.06-3.36 5.75-4.01 9.87-.65 4.12 1.19 6.4 1.84 9.22.65 2.82 3.25 5.64 3.36 8.02.11 2.38.43 10.41 2.38 12.25 1.95 1.84 2.12 1.73 3.07 4.12.95 2.39 1.16 5.2 1.16 6.23s.54 4.61 3.58 4.72c3.04.11 6.51-.98 10.08-1.08 3.58-.11 7.59-5.97 10.03-8.68 2.44-2.71 5.48-4.88 6.13-6.94.65-2.06 1.73-4.34 2.28-5.85.54-1.52 4.66-8.78 4.99-12.9.33-4.12-1.3-6.5.0-8.89 1.3-2.39 3.25-4.12 4.23-4.34.98-.22 6.29-3.25 6.94-6.83.65-3.58-.11-4.12-.11-5.31s.33-2.6.11-4.66c-.22-2.06-2.28-2.71-2.17-4.99.11-2.28-.98-6.18-.54-8.02.43-1.84 6.4-10.54 12.14-15.08z" fill="#c9bdbd"/><path d="M606.97 306.4c-1.34-.06-4.12 11.29-6.07 12.59-1.95 1.3-6.51 5.54-6.07 10.31.43 4.77.11 5.96-.76 7.7-.87 1.73-2.28 3.79-.76 7.37 1.52 3.58 7.16.42 8.13-2.62.98-3.04 4.34-15.84 4.77-18.23.43-2.39 1.19-4.99 1.73-5.85.54-.87 1.52-1.41 1.3-4.01-.22-2.6.22-7.15-2.28-7.26z" fill="#c9bdbd"/><path d="M338.33 215.65c-3.2.27-7.26 3.14-6.29 4.34.98 1.19 4.66-1.3 6.29-.76 1.63.54 4.12.0 5.2 1.09 1.08 1.08 2.28-10.34 3.04-9.69.76.65 1.95-.33 2.82.0.87.33 3.69.98 4.01-.54.33-1.52-4.01-1.52-4.99-2.82-.98-1.3-4.99 7.95-10.08 8.39z" fill="#c9bdbd"/><path d="M354.7 210.51c-.54.54.65 2.06.54 2.49-.11.43-3.69.22-3.25.98.43.76 2.71 1.63 6.29 1.41 3.58-.22 5.31-.43 5.96-1.41.65-.98-1.95-1.52-3.04-2.49-1.08-.98-1.78-1.41-3.06-.98-1.28.43-2.36-1.08-3.45.0z" fill="#c9bdbd"/><path d="M770.89 173.17c-.75.58-.32 2.36.0 3.5.33 1.14-.65 1.87.49 3.33 1.14 1.46 2.6 2.68 3.17 4.64.57 1.95 2.2 4.07 1.14 5.53-1.06 1.46-3.17 1.22-3.58 2.19-.41.98-.24 2.52-2.2 3.17-1.95.65-5.29-9.05-6.42-6.37-1.14 2.68-1.87 4.15-.49 5.77 1.38 1.63 2.28 3.74 3.98 2.6 1.71-1.14.41 5.8 2.68 5.15 2.28-.65 3.17-.08 4.8-.98 1.63-.89.81-1.79 2.19-2.6 1.38-.81 4.23-.16 4.96-2.28.73-2.11.33-6.67-.98-8.54-1.3-1.87-3.9-6.18-2.93-6.59.98-.41 4.71-1.87 4.26-3.5-.44-1.63-1.5-2.52-2.07-2.68-.57-.16-2.36.57-3.66-.33-1.3-.89-3.58-3.41-5.37-2.03z" fill="#c9bdbd"/><path d="M753 227.14c-2.02.39-2.67 5.43-1.71 7.72 1.87 4.47 4.96 3.9 6.1 4.47 1.14.57 4.55 2.76 4.72 1.54s1.46-2.2.0-2.85c-1.46-.65-3.33-.08-4.72-1.3-1.38-1.22-2.03-2.6-1.14-3.58.89-.98 1.32-3.98.5-5.12-.82-1.14-2.04-1.22-3.75-.9z" fill="#c9bdbd"/><path d="M747.8 254.13c-.64-.52-3.36 4.66-4.99 5.42-1.63.76-1.84 2.17-3.04 3.14-1.19.98-3.79 2.06-5.64 2.71-1.84.65-3.58-11.64-2.93-10.12.65 1.52.65 1.84.87 3.47.22 1.63 1.63 18.69 2.28 19.55s2.71.54 3.47 1.08c.76.54 1.95.32 3.69.87 1.73.54 4.12 1.3 5.53.0 1.41-1.3.22-4.44.76-5.53.54-1.08 1.3-.76 2.06-1.73.76-.98.98-2.71 2.6-4.12 1.63-1.41-.54-2.17-.87-3.14-.33-.98-2.01-1.95-.73-3.79 1.28-1.84 2.36-2.49 2.2-4.01-.16-1.52-2.2-1.3-5.26-3.79z" fill="#c9bdbd"/><path d="M757.23 267.54c-.7.52-1.19.69-1.95 1.56-.76.87-1.52 2.49-1.63 3.47-.11.98-.61 2.38-.58 3.14.04.76-1.37 1.95-1.16 2.93.22.98.58.98 1.16 2.71.58 1.73-.72 3.36.47 3.47 1.19.11 2.93-2.6 4.77-1.84 1.84.76 1.41 1.41 2.71.98 1.3-.43-1.73-7.05-.98-8.46.76-1.41 2.46-1.52 2.75-2.49s-.15-1.63 1.26-2.71c1.41-1.08 2.06-2.71 1.63-3.47-.43-.76-.35.56-2.89 1.29-.8.23-1.77-.01-2.75.0-.98.0-1.44-1.6-2.82-.57z" fill="#c9bdbd"/><path d="M782.6 281.15c-1.42-.14-2.93.11-3.69.76-.76.65-2.49.0-2.49.76s3.04 1.3 3.09 2.6c.05 1.3-.43 1.95.0 2.44.43.49 1.19 2.87 2.22 2.98 1.03.11 1.41-1.19 2.44-.76 1.03.43 3.85 1.08 5.37 2.22 1.52 1.14 2.71 3.9 2.17 5.1-.54 1.19-1.79 2.98-.43 3.2 1.36.22 3.47-.92 4.61-.22 1.14.7 2.66 7.55 5.26 6.57 2.6-.98 2.28-3.9 4.34-3.41 2.06.49 4.39 4.55 6.07 5.37 1.68.81 2.06.0 2.93.38.87.38 2.44 1.68 3.31.92.87-.76-1.74-3.41-2.49-4.34-.76-.92-1.9.05-2.22-1.52-.32-1.57.11-4.66-1.19-5.47-1.3-.81-2.22-.71-2.66-1.68-.43-.98-3.09-4.23-8.51-6.13-5.42-1.9-7.97-7.87-9.43-7.39-1.46.49-2.22 2.17-3.47 2.28.0.0-.65.81-1.3.49-.65-.32-1.9-1.19-1.79-2.49.11-1.3-.11-1.03-.65-1.35-.54-.33-.86-1.24-1.46-1.3z" fill="#c9bdbd"/><path d="M703.08 244.25c-.72.97.89 3.17 2.6 4.63 1.71 1.46 2.36 2.93 2.6 3.5.24.57.73-.16 1.22.89.49 1.06 1.06 2.77 2.6 5 1.54 2.23 2.36 4.51 3.25 5.4.89.9 2.6 3.74 3.58 4.39.98.65 1.3 1.2 2.44 2.51 1.14 1.31 2.11 2.94 3.42 3.51 1.3.57 3.25 1.63 4.8 1.79 1.54.16 2.68-.24 3.74.41 1.06.65 3.17 15 5.28 15.08 2.11.08 3.27-.24 3.46.0.19.24 1.17-.05 2.15.01.98.07 1.14-.75 1.06-1.4-.08-.65-.65-.98-2.03-1.22-1.38-.24-1.3-2.19-2.6-2.11.0.0-1.79.57-2.44.12-.65-.45-2.64-.9-3.5-.61-.85.28-1.87-13.01-2.24-13.13-.37-.12-1.21-.24-1.4-.37-.19-.12-.47-.57-1.45-.73-.98-.16-1.06.32-2.03-.33-.98-.65-2.11-2.48-2.15-3.9-.04-1.42.41-2.4.45-2.76.04-.36-.37-1.59-.69-2.11-.33-.53-1.1-.08-1.34-.83-.24-.75-1.14-4.01-2.68-5.27-1.54-1.26-6.26-4.96-6.26-4.96.0.0-3.05-3.09-4.35-4.39-1.3-1.3-1.83-2.11-2.81-2.76-.98-.65-2.44-.12-3.01-.37-.57-.24-1.22-.61-1.67.0z" fill="#c9bdbd"/><path d="M771.86 314.33c-1.88.51-2.66-12.39-6.05-11.25-3.39 1.14-7.78 5.85-8.43 6.83-.65.98-1.97 4.23-4.32 6.02-2.35 1.79-7.62 2.6-11 4.55-3.38 1.95-5.01 1.14-5.17 2.93-.16 1.79-.98 4.07-1.95 6.34-.98 2.28.16 1.79.0 5.69-.16 3.9.65 8.94.65 10.57s-3.58-9.8-3.09-7.85c.49 1.95 4.07 17.12 6.34 15.98 2.28-1.14 7.64-3.09 9.92-2.93 2.28.16 5.2-3.9 7.48-3.9s9.59-1.95 11.22-1.14c1.63.81 3.9 11.57 4.39 13.04.49 1.46.33 2.59 2.11 4.46 1.79 1.88 3.41.58 4.06 2.53.65 1.95-.98 3.09 3.9 5.04 4.88 1.95 12.03 4.73 17.73-.15 5.69-4.88 7.48-7.64 10.57-11.55 3.09-3.9 7.48-11.22 5.85-15.28-1.63-4.07-8.13-12.68-9.76-15.29-1.63-2.6-1.3-9.1-3.25-12.44-1.95-3.34-1.95-7.37-3.58-6.25-1.63 1.12-3.74 5.34-3.9 6.96.0.0.49 3.41-1.79 3.58-2.28.16-8.13-3.9-7.64-5.85.49-1.95 2.76-4.07 1.95-6.02-.81-1.95-3.41-.98-5.2-1.3-1.79-.32-2.28-3.22-4.88-1.93-2.6 1.28-4.39 8.11-6.18 8.6z" fill="#c9bdbd"/><path d="M846.34 365.89s-.81.57-.81 2.36.41 3.42.0 4.72c-.41 1.3-1.06 3.18-2.6 3.62-1.54.44-1.95 1.01-2.03 1.58-.08.57-.81.98-2.11 1.46-1.3.49-1.06-.33-2.68.73-1.63 1.06-.73 1.95-2.28 2.19-1.54.24-1.71.08-2.52 1.38-.81 1.3-.89 1.71-3.17 2.44-2.28.73-2.36.73-4.15 1.54-1.79.81-2.93 1.06-4.23 1.95-1.3.89-2.31 2.2-3.31 2.76-1 .57-1.03 1.3.0 1.71 1.03.41 3.31.33 4.36.0 1.06-.32 7.81-5.04 8.46-4.96.65.08 4.23-1.14 4.96-1.79.73-.65 3.98-4.47 4.8-4.39.81.08 4.63-1.02 6.83-2.95 2.2-1.93 2.03-2.41 2.68-2.66s4.39-2.6 4.31-3.82c-.08-1.22-2.52.0-3.5-1.06-.97-1.06-.49-3.42-.73-4.64-.24-1.22-.73-2.6-2.28-2.19z" fill="#c9bdbd"/></g><path d="M864.78 137.57 703.02 119.34 541.48 137.54 541.4 137.53 379.94 119.34 218.18 137.57 218.03 136.21 379.94 117.96 380.02 117.97 541.48 136.16 703.02 117.96 703.1 117.97 864.93 136.21 864.78 137.57z" fill="#c9bdbd"/><path d="M864.78 246.45 703.02 228.23 541.48 246.42H541.4L379.94 228.23 218.18 246.45 218.03 245.09 379.94 226.85 380.02 226.86 541.48 245.05 703.02 226.85 703.1 226.86 864.93 245.09 864.78 246.45z" fill="#c9bdbd"/><path d="M864.78 355.33 703.02 337.11 541.48 355.31 541.4 355.3 379.94 337.11 218.18 355.33 218.03 353.97 379.94 335.73 380.02 335.74 541.48 353.93 703.02 335.73 703.1 335.74 864.93 353.97 864.78 355.33z" fill="#c9bdbd"/><path d="M379.25 9.77h1.37v438.86H379.25z" fill="#c9bdbd"/><path d="M702.22 9.77h1.37v438.86H702.22z" fill="#c9bdbd"/><path d="M540.79 27.97h1.37v438.61H540.79z" fill="#c9bdbd"/></g><g><g><path d="M207.57 182.94c3.93-7.59 6.18-33.49 12.62-32.78 6.45.71 25.81 27.48 16.8 53.11-15.53 44.2-21.51 74.25-19.9 99.58 1.94 30.46 18.69 89.42-24.22 119.67-42.91 30.24-87.03-13.76-87.03-13.76.0.0 97.79-218.23 101.72-225.82z" fill="#937d6f"/><path d="M155.15 247.24h48.01v1.04H155.15z" transform="translate(-119.46 313.42) rotate(-66.53)" fill="#66544c"/></g><path d="M94.76 436.49s77.84 49.22 119.33 211.08H0l94.76-211.08z" fill="#171e26"/><path d="M201.72 416.05l-.9-1.03c5.78-5.03 12.14-17.31 12.2-17.43l1.22.63c-.26.51-6.55 12.64-12.52 17.84z" fill="#66544c"/><path d="M150.16 464.98h60.44v1.37H150.16z" transform="translate(-317.65 502.41) rotate(-73.05)" fill="#66544c"/></g><g><g><path d="M872.43 182.94c-3.93-7.59-6.18-33.49-12.62-32.78-6.45.71-25.81 27.48-16.8 53.11 15.53 44.2 21.51 74.25 19.9 99.58-1.94 30.46-18.69 89.42 24.22 119.67 42.91 30.24 87.03-13.76 87.03-13.76.0.0-97.79-218.23-101.72-225.82z" fill="#937d6f"/><path d="M900.33 223.75h1.04v48.01H900.33z" transform="translate(-24.15 379.25) rotate(-23.47)" fill="#66544c"/></g><path d="M985.24 436.49s-75.56 49.22-117.05 211.08h211.8l-94.76-211.08z" fill="#171e26"/><path d="M878.28 416.05c-5.98-5.2-12.26-17.33-12.52-17.84l1.22-.63c.06.12 6.43 12.4 12.21 17.43l-.9 1.03z" fill="#66544c"/></g></g><g><path d="M337.56 99.65c.02 8.09-14.57 27.74-14.57 27.74.0.0-14.7-19.57-14.72-27.66s6.52-14.67 14.61-14.69c8.09-.02 14.67 6.52 14.69 14.61z" fill="#171e26"/><circle cx="322.91" cy="99.76" r="6.6" transform="translate(213.01 419.36) rotate(-88.19)" fill="#fcfcfc"/></g><g><path d="M404.84 247.53c.02 8.09-14.57 27.74-14.57 27.74.0.0-14.7-19.57-14.72-27.66-.02-8.09 6.52-14.67 14.61-14.69 8.09-.02 14.67 6.52 14.69 14.61z" fill="#8785d6"/><circle cx="390.19" cy="247.64" r="6.6" transform="translate(-66.57 177.31) rotate(-23.65)" fill="#fcfcfc"/></g><g><path d="M576.4 269.14c.02 8.09-14.57 27.74-14.57 27.74.0.0-14.7-19.57-14.72-27.66-.02-8.09 6.52-14.67 14.61-14.69s14.67 6.52 14.69 14.61z" fill="#171e26"/><circle cx="561.75" cy="269.24" r="6.6" fill="#fcfcfc"/></g><g><path d="M789.1 303.72c.02 8.09-14.57 27.74-14.57 27.74.0.0-14.7-19.57-14.72-27.66-.02-8.09 6.52-14.67 14.61-14.69 8.09-.02 14.67 6.52 14.69 14.61z" fill="#171e26"/><circle cx="774.46" cy="303.83" r="6.6" fill="#fcfcfc"/></g><g><path d="M676.51 82.07c.02 8.09-14.57 27.74-14.57 27.74.0.0-14.7-19.57-14.72-27.66-.02-8.09 6.52-14.67 14.61-14.69 8.09-.02 14.67 6.52 14.69 14.61z" fill="#171e26"/><circle cx="661.86" cy="82.18" r="6.6" transform="translate(135.75 492.08) rotate(-45)" fill="#fcfcfc"/></g><g><path d="M707.71 114.4c0 8.09-14.65 27.7-14.65 27.7.0.0-14.65-19.61-14.65-27.7s6.56-14.65 14.65-14.65c8.09.0 14.65 6.56 14.65 14.65z" fill="#dafb35"/><circle cx="693.06" cy="114.47" r="6.6" transform="translate(422.42 762.69) rotate(-76.72)" fill="#fcfcfc"/></g><g><path d="M554.7 336.01c-24.77-48.08-44.22-97.57-54.76-139.33-10.62-42.04-10.91-71.37-.83-82.58 2.9-3.22 6.57-4.9 10.93-4.99 9.72-.22 22.78 7.25 38.03 22.38.0.0-1.62.18-2.57.3-14.15-13.68-26.62-20.78-35.42-20.59-3.75.08-6.92 1.53-9.41 4.3-4.79 5.33-7.08 15.2-6.8 29.35.27 13.85 3 31.12 8.1 51.31 10.51 41.62 29.9 90.94 54.6 138.89l-1.86.96z" fill="#151c28"/><path d="M548.77 332.12 556.69 327.97 559.85 343.62v0L548.77 332.12z" fill="#151c28"/></g><g><path d="M454.02 180.48 448.97 166.96 462.79 171.14 454.02 180.48z" fill="#151c28"/><path d="M465.22 199.41h-4.96v-16.07c0-6.68 5.43-12.11 12.11-12.11v4.96c-3.94.0-7.15 3.21-7.15 7.15v16.07z" fill="#151c28" opacity=".4"/><path d="M465.27 199.41h-4.96v-16.07c0-3.94-3.21-7.15-7.15-7.15v-4.96c6.68.0 12.11 5.43 12.11 12.11v16.07z" fill="#151c28"/></g><g><path d="M433.08 196.2v1.31h-7.18v-.84l3.6-3.63c1.3-1.28 1.87-2.03 1.87-3.02s-.57-1.79-1.69-1.79c-1.18.0-1.76.75-1.9 2.11v.15h-1.66v-.15c.22-2.18 1.55-3.36 3.73-3.36s3.29 1.27 3.29 2.9c0 1.36-.72 2.31-2.52 4.08l-2.27 2.24h4.73z" fill="#151c28"/><path d="M424.88 196.2v1.31h-7.18v-.84l3.6-3.63c1.3-1.28 1.87-2.03 1.87-3.02s-.57-1.79-1.69-1.79c-1.18.0-1.76.75-1.9 2.11v.15h-1.66v-.15c.22-2.18 1.55-3.36 3.73-3.36s3.29 1.27 3.29 2.9c0 1.36-.72 2.31-2.52 4.08l-2.27 2.24h4.73z" fill="#151c28"/><path d="M449.27 192.72v4.79h-1.64v-4.2c0-.6-.01-1.03-.06-1.43-.1-.85-.63-1.3-1.48-1.3-.96.0-1.6.79-1.6 2.94v3.99h-1.63v-4.2c0-.6-.01-1.03-.06-1.43-.12-.85-.63-1.3-1.48-1.3-.97.0-1.6.79-1.6 2.94v3.99h-1.64v-7.93h1.64v1.18l.54-.93c.42-.33.97-.46 1.69-.46 1.25.0 2.05.63 2.34 1.51l.73-1.05c.43-.33.99-.46 1.69-.46 1.46.0 2.3.85 2.48 1.94.06.4.07.76.07 1.4z" fill="#151c28"/><path d="M453.07 187.76c0 .55-.42.96-.97.96s-.96-.4-.96-.96.4-.94.96-.94.97.4.97.94zm-1.79 9.75v-7.93h1.64v7.93h-1.64z" fill="#151c28"/></g><g><path d="M562.21 361.38h-6.81v-9.44h6.67v1.48h-4.79v2.49h4.44v1.49h-4.44v2.49h4.92v1.49z" fill="#151c28"/><path d="M568.01 353.42v7.96h-1.89v-7.96h-3.2v-1.48h8.29v1.48h-3.2z" fill="#151c28"/><path d="M573.38 358.54l-.94 2.84h-2.01l3.41-9.44h2.37l3.34 9.44h-2.05l-.93-2.84h-3.17zm.48-1.49h2.22l-1.09-3.49-1.12 3.49z" fill="#151c28"/><path d="M561.73 375.13c0 1.76-1.56 2.86-3.53 2.86s-3.23-.9-3.43-2.9v-.14h1.49v.14c.15 1.16.94 1.75 2.01 1.75s1.83-.63 1.83-1.64-.67-1.61-2.07-1.63h-.27v-1.11h.27c1.07-.03 1.85-.64 1.85-1.7.0-.86-.59-1.45-1.5-1.45s-1.61.6-1.72 1.68v.14h-1.5v-.14c.18-1.68 1.35-2.83 3.39-2.83 1.89.0 2.97 1.03 2.97 2.42.0 1.09-.64 1.9-1.71 2.2 1.22.3 1.93 1.09 1.93 2.34z" fill="#151c28"/><path d="M564.92 371.34c0 .57-.42 1-1 1s-1-.42-1-1 .41-1 1-1 1 .41 1 1zm0 5.65c0 .57-.42 1-1 1s-1-.42-1-1 .41-1 1-1 1 .41 1 1z" fill="#151c28"/><path d="M573.16 374.7c0 2.11-1.67 3.28-3.47 3.28-1.98.0-3.13-.9-3.32-2.74v-.14h1.49v.14c.21.97.74 1.59 1.79 1.59 1.16.0 1.89-.78 1.89-2.07s-.68-2.11-1.85-2.11c-.81.0-1.37.34-1.78 1.22h-1.41l.67-5.53h5.59v1.19h-4.38l-.38 3 .53-.64c.44-.26.92-.38 1.48-.38 2.05.0 3.15 1.33 3.15 3.19z" fill="#151c28"/><path d="M581.38 372.69c0 3.67-1.68 5.29-3.76 5.29-1.75.0-2.9-1.01-3.05-2.6v-.14h1.55l.03.14c.21.97.71 1.45 1.59 1.45 1.18.0 1.97-1 2.07-3.54l-.51.85c-.51.41-1.03.57-1.71.57-2.01.0-3.12-1.34-3.12-3.15.0-2.09 1.52-3.41 3.45-3.41 2.23.0 3.47 1.35 3.47 4.53zm-1.67-1.27c0-1.2-.71-2.11-1.79-2.11s-1.83.86-1.83 2.08.56 2.17 1.83 2.17c.97.0 1.79-.74 1.79-2.15z" fill="#151c28"/></g><path d="M387.74 419.76c-10.18.0-19.7-5.73-24.84-14.96-5.01-8.98-4.91-19.34.26-27.7 4.8-7.76 11.71-11.16 18.48-13.68l2.51 6.74c-6.61 2.46-11.41 5.12-14.87 10.72-3.78 6.11-3.81 13.74-.09 20.41 3.88 6.95 10.99 11.27 18.56 11.27 16.43.0 26.24-10.1 26.24-27.01.0-7.19-2.5-13.32-7.23-17.74-5.49-5.12-13.53-7.61-22.64-6.98-7.22.49-12.33 2.51-17.08 6.74l-4.78-5.37c5.96-5.31 12.55-7.95 21.37-8.55 11.12-.76 21.08 2.4 28.04 8.9 6.22 5.81 9.51 13.76 9.51 22.99.0 10.15-3.09 18.72-8.94 24.79-5.94 6.16-14.41 9.41-24.5 9.41z" fill="#dafb35" opacity=".69"/><path d="M746.81 51.75c-3.94-.36-7.14-4.07-7.14-8.03V9.55h2.54V43.77c0 2.63 1.84 4.98 4.43 5.4 3.34.55 6.24-2.02 6.24-5.26V19.58h2.54v24.33c0 4.58-3.94 8.26-8.6 7.84z" fill="#4d5cb0"/><path d="M191.79 77.59l-2.58-23.11 55.73-6.4c6.53-.75 12.43 3.95 13.16 10.49h0c.72 6.54-4.01 12.42-10.55 13.11l-55.75 5.91z" fill="#f938f4" opacity=".54"/><path d="M250.87 59.88 244.53 67.69 243.07 53.54 250.87 59.88z" fill="#171e26"/></g></g></svg>