<svg id="_лой_2" xmlns="http://www.w3.org/2000/svg" width="672.22" height="1080" viewBox="0 0 672.22 1080"><g id="Tourism31_573921992"><g id="Tourism31_573921992-2"><path d="M472.5 492.68c-1.45.4-3.02.49-4.6.19-5.46-1.05-9.04-6.33-8-11.79.76-4 74.57-400.18-101.81-454.7-41.75-12.91-78.13-5.27-108.14 22.7-86.02 80.16-99.52 297.82-71.34 418.58 1.26 5.42-1.99 10.8-7.52 12.1-5.42 1.26-10.84-2.1-12.1-7.52-15.7-67.28-18.29-155.37-6.93-235.65 13.02-91.99 42.91-163.81 84.15-202.24C271.89 1.08 314.9-8.08 364.04 7.12c45.7 14.13 80.12 48.81 102.29 103.07 17.23 42.17 27.1 96.35 29.35 161.01 3.79 109.2-15.79 212.64-15.98 213.67-.75 3.88-3.63 6.81-7.2 7.81z" fill="#b79279"/><path d="M660.38 1040.7c-43.73 81.67-641.77 17.39-658.59-25.29-1.25-3.19-1.82-9.19-1.79-17.58.04-23.21 4.59-64.66 11.63-115.05 3.56-25.55 7.77-53.43 12.37-82.41 4.29-27.04 8.9-55.03 13.62-83.01.94-5.46 1.89-10.95 2.79-16.4 7.17-41.79 14.47-83.01 21.25-120.45 2.75-15.45 5.47-30.21 8.01-44.14 12.31-67.08 21.28-113.66 21.28-113.66l301.49-2.48 220.26-1.81s10.06 59.34 21.89 141.73c2.54 17.87 5.18 36.82 7.88 56.5 4.01 29.98 8.07 61.61 11.8 93.59 2.25 19.31 4.41 38.74 6.38 58.03 3.1 29.88 5.72 59.32 7.71 87.31 1.1 15.63 2.03 30.81 2.66 45.31 2.94 66 .76 118.49-10.65 139.82z" fill="#f9b253"/><path d="M508.6 500.49c-1.62.45-3.37.5-5.12.07-5.4-1.34-8.69-6.8-7.36-12.2 1-4.03 97.73-403.34-78.19-457.72-43.46-13.43-82.44-4.46-115.86 26.69-85.55 79.73-117.2 290.24-87.35 418.13 1.26 5.42-2.03 10.79-7.52 12.1-5.42 1.26-10.84-2.1-12.1-7.52-15.17-65-15.22-152.44-.12-233.88 16.84-90.87 50-163.17 93.36-203.57C326.88 6.67 373.74-4.11 423.88 11.38c45.88 14.18 79.1 49.18 98.74 104.03 15.23 42.52 22.3 97.15 21.04 162.37-2.14 110.07-27.71 214.38-27.97 215.42-.91 3.65-3.7 6.34-7.08 7.28z" fill="#b79279"/><path d="M642.47 616.65c-21.38-2.53-42.43-11.62-64.09-14.55-69.31-9.36-135.08 44.65-204.61 37.13-35.82-3.9-67.8-23.77-102.5-33.48-34.7-9.71-79.04-5.18-96.58 26.32-32.86-26.45-73.27-54.27-113.02-51.56 2.76-15.45 5.47-30.22 8-44.14 90.57-5.21 185.03 56.69 278 44.65 48.65-6.31 93.58-36.14 142.54-33.25 42.44 2.52 83.65 29.64 124.8 19.03 6.34-1.65 12.95-4.1 19.58-6.66 2.56 17.87 5.19 36.82 7.88 56.51z" fill="#d38937"/><path d="M660.66 768.27c-12.6-2.11-24.95-7.15-37.39-10.63-31.09-8.75-64.88-7.75-95.39 2.87-18.8 6.55-36.85 16.73-56.75 18.03-31.08 2-59.74-18.01-90.86-19.66-39.11-2.04-81.86 24.35-114.88 3.25-8.48-5.44-15.08-13.54-23.82-18.52-33.03-18.69-73.16 15.27-110.8 10.29-18.67-2.49-34.52-14.34-51.32-22.92-13.19-6.7-27.29-11.23-41.83-13.62.94-5.47 1.88-10.93 2.79-16.4 1.15-.09 2.32-.22 3.48-.38 29.2-4.09 58.92-24.09 85.77-11.92 17.37 7.88 27.83 27.63 46.08 33.2 27.75 8.48 54.16-20.03 83.19-19.73 28.36.26 49.38 27.31 76.9 34.3 42.71 10.79 83.04-29.04 127.1-28.44 31.49.42 59.61 21.45 91.02 23.51 33.84 2.24 67.77-17.67 100.32-21.25 2.25 19.32 4.4 38.75 6.38 58.04z" fill="#d38937"/><path d="M671.04 900.88c-32.7 1.24-61.61 30.34-94.44 26.61-26.26-3-45.99-26.13-71.58-32.67-43.14-11.05-84.01 27.46-128.54 28.92-27 .93-52.8-11.97-79.8-13.11-23.97-.99-47.62 7.29-71.57 6.34-23.99-.93-50.94-16.76-50.52-40.75-40.32 45.36-118.85 47.17-162.95 6.56 3.57-25.55 7.78-53.43 12.36-82.4 21.04 6.3 40.33 15.46 55.81 31.42 10.36 10.7 18.68 24.21 32.22 30.37 33.72 15.34 72.05-24.3 107.59-13.83 10.52 3.14 19.28 10.32 28.79 15.75 67.16 38.34 152.91-16.4 228.11 1.62 37.53 9.01 76.47 35.82 111.03 18.66 16.13-7.99 27.29-24.47 44.24-30.42 12.08-4.22 24.3-2.44 36.59 1.63 1.12 15.64 2.03 30.81 2.67 45.31z" fill="#d38937"/><circle cx="202.84" cy="477.3" r="23.33" transform="translate(-1.37 .58) rotate(-.16)" fill="#ad6842"/><path d="M481.93 481.25c2.72-12.59 15.14-20.6 27.74-17.87 12.59 2.72 20.6 15.14 17.87 27.74-2.72 12.59-15.14 20.6-27.74 17.87-12.59-2.72-20.6-15.14-17.87-27.74z" fill="#ad6842"/><path d="M660.39 1040.7c-43.73 81.67-641.77 17.39-658.59-25.29-1.25-3.19-1.82-9.19-1.79-17.58.35.07.71.12 1.04.18 87.61 15.03 177.34-4.4 266.14-.81 105.64 4.28 208.32 41.04 314.03 41.42 7.43.04 15.63-.42 20.91-5.64 4.98-4.92 5.79-12.54 6.26-19.54 4.52-66.48 4.24-133.29-.84-199.74 4.44-106.68-47.7-356.1-55.96-394.78l61.13-.5s10.06 59.34 21.89 141.73c2.54 17.87 5.18 36.82 7.88 56.5 4.01 29.98 8.07 61.61 11.8 93.59 2.25 19.31 4.41 38.74 6.38 58.02 3.1 29.87 5.72 59.32 7.71 87.31 1.11 15.63 2.03 30.81 2.66 45.31 2.94 66 .76 118.49-10.65 139.82z" fill="#d38937" opacity=".5"/></g></g></svg>