<svg id="_лой_2" xmlns="http://www.w3.org/2000/svg" width="1080" height="359.66" viewBox="0 0 1080 359.66"><g id="Traveling02_403709348"><g id="Traveling02_403709348-2"><path d="M815.64 321.94c3.22-.27 6.43-.54 9.64-.88 15-1.62 30.17-4.23 45.07-8 .25.56.52 1.11.83 1.63.65 1.73 1.41 3.42 2.23 5.09-18.52 4.89-37.53 7.98-56.73 9.63-.24-2.51-.54-5.01-1.04-7.47z" fill="#456684"/><path d="M639.94 308.86c.72-2.24 1.22-4.55 1.5-6.91 15.81 4.86 31.94 8.96 48.27 12.22-.36 2.4-.61 4.8-.65 7.23-16.69-3.3-33.04-7.54-49.11-12.54z" fill="#456684"/><path d="M598.76 286.65c5.94 2.43 11.9 4.79 17.94 7 7.14 2.62 14.37 5.05 21.67 7.34-.57 2.29-1.04 4.6-1.41 6.93-13.5-4.29-26.8-9.13-39.93-14.43.59-2.28 1.18-4.56 1.74-6.85z" fill="#456684"/><path d="M560.08 269.2c10.45 5.12 21.02 10.01 31.74 14.57-.57 2.3-1.13 4.6-1.69 6.9-10.67-4.46-21.23-9.23-31.69-14.25.69-2.38 1.25-4.78 1.64-7.22z" fill="#456684"/><path d="M519.21 247.77c12.15 6.71 24.39 13.24 36.8 19.42-.68 2.37-1.28 4.77-1.83 7.18-12.81-6.24-25.48-12.86-38.03-19.77 1.24-2.16 2.24-4.45 3.07-6.82z" fill="#456684"/><path d="M419.52 193.86c.55-.96 1-1.98 1.4-3.02 6.71 3.86 13.4 7.76 20.05 11.65 7.8 4.56 15.59 9.16 23.39 13.74-.21.54-.37 1-.46 1.27-.68 1.92-1.33 3.93-1.87 5.96-14.59-8.59-29.16-17.2-43.83-25.63.49-1.31.93-2.63 1.32-3.98z" fill="#456684"/><path d="M384.77 173.56c.28-.82.51-1.66.72-2.51 10.55 5.67 21.01 11.52 31.37 17.46-1.06 2.23-1.87 4.56-2.28 6.99-.12.0-.23.04-.33.09-10.47-5.99-21.01-11.86-31.64-17.55.93-1.37 1.64-2.91 2.16-4.47z" fill="#456684"/><path d="M345.61 159.11c.89-2.35 1.38-4.82 1.87-7.29 10.75 5.08 21.39 10.42 31.92 15.99-.3 1.22-.54 2.45-.73 3.69-.21 1.39-.38 2.78-.52 4.18-10.1-5.35-20.29-10.54-30.63-15.46-.64-.31-1.29-.6-1.94-.91.0-.06.0-.13.02-.19z" fill="#456684"/><path d="M314.32 143.54c.39-1.91.7-3.84 1.09-5.75 8.89 3.56 17.69 7.36 26.4 11.37-.1.55-.17 1.1-.24 1.62-.21 1.7-.23 3.42-.15 5.14-.05.45-.06.91-.1 1.37-8.85-4.11-17.83-8.03-26.89-11.72-.05-.68-.08-1.35-.11-2.03z" fill="#456684"/><path d="M108.41 172.4c1.68-2.92 3.51-5.76 5.42-8.55 2.17 1.27 4.4 2.41 6.66 3.51-5.71 8.21-10.35 17.17-13.83 26.54-2.29-.91-4.71-1.8-7.03-2.87 2.43-6.42 5.36-12.66 8.78-18.63z" fill="#456684"/><path d="M91.69 233.65c0-13.19 2.29-26.32 6.55-38.8 2.32 1.07 4.67 2.07 7.04 3.03-4.01 12.1-6.06 24.83-5.88 37.56-2.58-.55-5.15-1.14-7.71-1.78z" fill="#456684"/><path d="M99.61 240.92c.47 7.19 1.66 14.35 3.65 21.38.71 2.51 1.53 4.97 2.41 7.41-2.61.12-5.23.27-7.84.49-2.49-7.31-4.3-14.84-5.28-22.52-.38-2.94-.59-5.88-.72-8.83.45.1.9.2 1.33.33 2.11.64 4.27 1.21 6.45 1.73z" fill="#456684"/><path d="M105.92 274.47c.53.0 1.06.0 1.59.0 3.29 7.99 7.48 15.56 12.39 22.62-2.07 1.46-4.09 2.98-6.06 4.55-5.87-8.48-10.8-17.63-14.48-27.25 1.35.01 2.7.03 4.05.05.84.02 1.68.03 2.52.02z" fill="#456684"/><path d="M145.88 324.58c-1.4 2.19-2.69 4.44-3.88 6.75-5.08-3.93-9.9-8.2-14.38-12.84-3.64-3.76-7.04-7.78-10.22-11.95 2.18-1.3 4.31-2.67 6.35-4.18 6.42 8.28 13.89 15.74 22.14 22.22z" fill="#456684"/><path d="M175.68 342.16c-.7 2.48-1.37 4.97-2.02 7.46-10.08-4.16-19.71-9.52-28.58-15.99 1.32-2.21 2.65-4.43 3.97-6.64 8.24 6.08 17.2 11.19 26.63 15.17z" fill="#456684"/><path d="M210.02 351.08c-.05 2.62-.08 5.24-.04 7.86-11.15-1.21-22.16-3.88-32.71-7.88.76-2.46 1.44-4.94 2.01-7.45 9.87 3.81 20.21 6.34 30.75 7.47z" fill="#456684"/><path d="M241.33 350.14c.79 2.63 1.68 5.23 2.67 7.79-9.72 1.68-19.6 2.12-29.4 1.42.16-2.61.28-5.22.27-7.84 3.1.2 6.21.31 9.33.25 5.7-.1 11.44-.66 17.13-1.61z" fill="#456684"/><path d="M280.58 344.94c-10.24 5.77-21.04 9.77-32.08 12.12-.7-2.63-1.39-5.27-2.14-7.88 10.59-2.27 20.88-6.04 30.29-11.31 1.12 2.46 2.43 4.83 3.92 7.08z" fill="#456684"/><path d="M301.06 318.24c1.14-1.31 2.23-2.65 3.28-4.02 2.03 1.63 4.06 3.26 6.06 4.93-6.89 8.95-15.42 16.89-25.77 23.36l-.03-.04c-1.37-2.29-2.74-4.58-4.16-6.84 7.66-4.75 14.66-10.53 20.61-17.38z" fill="#456684"/><path d="M325.97 290.37c-3.14 8.79-7.34 17.14-12.67 24.82-2.07-1.59-4.05-3.31-5.97-5.1 4.84-7.05 8.63-14.73 11.49-22.77 2.38 1.01 4.76 2.03 7.14 3.04z" fill="#456684"/><path d="M325.38 253.97c2.49.8 5.01 1.5 7.55 2.13-.7 10.23-2.5 20.29-5.51 29.89-2.33-1.14-4.68-2.27-7.08-3.24 2.86-9.31 4.49-19.03 5.04-28.79z" fill="#456684"/><path d="M331.2 221.56c1.54 9.47 2.27 19.07 2.02 28.59-2.58-.2-5.14-.46-7.67-.89.09-4.71-.03-9.41-.43-14.06-.43-5-1.11-9.93-2.03-14.79 2.7.38 5.41.76 8.11 1.15z" fill="#456684"/><path d="M321.54 190.84c-2.29.3-4.58.61-6.87.88-.13-.32-.27-.64-.4-.97 1.51-.03 3.02-.09 4.54-.19.91.08 1.82.18 2.73.27z" fill="#456684"/><path d="M299.37 160.5c2.61.0 5.21-.03 7.81-.17.27.0.54.03.82.04 5.09 8.33 9.54 17.06 13.28 26.18-2.55.8-5.13 1.45-7.84 1.29-.13.0-.24.02-.35.05-4.03-9.47-8.97-18.55-14.59-27.23.29-.05.58-.11.87-.15z" fill="#456684"/><path d="M228.31 92.37c.72-.65 1.45-1.3 2.17-1.95 1.54-.83 2.97-1.84 4.27-3.02 16.85 10.9 32.63 23.64 46.42 38.17 9.74 3.02 19.35 6.41 28.85 10.09-.2 2.67-.36 5.35-.33 8.03-6.17-2.44-12.36-4.8-18.62-6.98 5.54 6.68 10.63 13.71 15.26 21.04-.84.04-1.68.06-2.51.14l-7.5-.57c-6.08-8.99-12.91-17.52-20.34-25.5-6.12-1.86-12.27-3.62-18.48-5.15-4.41-1.09-8.9-2.06-13.42-2.91-.08-1.03-.13-2.06-.13-3.08.22-1.47.4-2.94.36-4.42 5.9 1.07 11.76 2.33 17.51 3.79 1.13.29 2.24.62 3.36.91-9.02-8.48-18.68-16.25-28.71-23.19-2.69-1.86-5.42-3.65-8.17-5.41z" fill="#456684"/><path d="M207.5 71.83c8.01 4.02 15.87 8.45 23.54 13.24-1.35 1.51-2.68 3.03-4.02 4.55-.05.05-.11.11-.16.16-.58.21-1.18.4-1.78.56-6.73-4.16-13.63-8-20.68-11.59 1.06-2.29 2.1-4.6 3.1-6.92z" fill="#456684"/><path d="M180.37 59.88c8.32 3.2 16.53 6.74 24.62 10.7-.45 1.17-.9 2.34-1.38 3.5-.63 1.12-1.22 2.26-1.79 3.41-7.66-3.8-15.49-7.25-23.45-10.45.7-2.37 1.34-4.77 2-7.16z" fill="#456684"/><path d="M147.51 49.17c9.97 2.74 19.83 5.86 29.55 9.48-.09.1-.17.22-.2.38-.51 2.25-1.17 4.45-1.91 6.63-9.42-3.67-19.03-6.94-28.75-9.87.48-2.2.92-4.4 1.3-6.62z" fill="#456684"/><path d="M110.25 40.69c11.47 2.12 22.85 4.61 34.1 7.61.15.07.31.12.47.13-.39 2.2-.78 4.4-1.17 6.6-11.25-3.32-22.66-6.18-34.13-8.67.26-1.89.49-3.78.73-5.67z" fill="#456684"/><path d="M78.22 35.75c9.76 1.26 19.5 2.69 29.16 4.42-.39 1.83-.71 3.68-.99 5.54-9.39-1.98-18.82-3.69-28.24-5.21.02-1.58.03-3.16.06-4.74z" fill="#456684"/><path d="M53.86 33.02c6.95.69 13.9 1.43 20.83 2.29-.05.35-.11.7-.15 1.05-.26 1.15-.47 2.3-.65 3.46-6.63-1.04-13.25-1.98-19.85-2.83-.01-1.33-.08-2.65-.18-3.97z" fill="#456684"/><path d="M27.82 30.76c6.88.54 13.76 1.11 20.64 1.76.13 1.27.27 2.53.42 3.8-7-.88-14-1.78-21-2.65-.03-.97-.04-1.93-.05-2.9z" fill="#456684"/><path d="M.89 28.85c8.08.52 16.19 1.08 24.3 1.7.07.94.18 1.87.28 2.81-8.22-1.02-16.45-1.99-24.71-2.81-1.09-.11-.97-1.77.13-1.7z" fill="#456684"/><path d="M323.65 192.65c2.7 7.44 4.87 15.13 6.45 22.96-2.7.01-5.4-.11-8.1-.29-1.66-7.38-3.88-14.59-6.57-21.62 2.74-.33 5.47-.7 8.21-1.05z" fill="#456684"/><path d="M142.47 134.19c.49.69.99 1.37 1.52 2.04.65 1 1.29 2 1.91 3.02.22.42.45.83.67 1.25-8.87 6.47-16.68 14.28-23.29 23.01-2.11-1.33-4.2-2.69-6.26-4.1 7.2-9.57 15.77-18.16 25.44-25.21z" fill="#456684"/><path d="M165.69 121.23c7.99-3.21 16.22-5.35 24.56-6.64.01.11.03.22.04.33.05 2.4.25 4.8.56 7.18-9.89 1.59-19.56 4.45-28.75 8.97-3.6 1.77-7.06 3.76-10.41 5.92-.02-.12-.03-.24-.11-.36-1.31-2.05-2.6-4.04-4.11-5.88 5.76-3.74 11.84-6.95 18.22-9.51z" fill="#456684"/><path d="M240.5 115.58c-.73.53-.98 1.69-1.05 2.81-.61 1.43-1.25 2.82-1.66 4.29-13.93-2.18-28.17-2.91-42.04-1.27-.41-2.47-.92-4.93-1.36-7.4 15.24-1.84 30.83-.95 46.11 1.57z" fill="#456684"/><path d="M472.08 220.77c13.75 8.07 27.54 16.1 41.46 23.88-.95 2.32-1.84 4.66-2.63 7.04-14.07-7.85-28-15.95-41.91-24.11.97-2.29 1.96-4.58 3.07-6.8z" fill="#456684"/><path d="M695.14 315.23c15.48 2.91 31.12 5.08 46.8 6.44-.49 2.38-.87 4.79-1.28 7.19-14.1-1.3-28.1-3.2-41.86-5.61-1.55-.27-3.08-.59-4.62-.87.68-2.32 1.04-4.73.95-7.14z" fill="#456684"/><path d="M746.29 322.05c20.66 1.59 41.39 1.79 61.93.44.0 2.52-.03 5.05-.01 7.57-20.89 1.32-41.96.93-62.81-.79.49-2.39.79-4.8.89-7.22z" fill="#456684"/><path d="M878.34 312.05c-.08-.36-.16-.72-.25-1.08 11.69-3.31 23.18-7.35 34.23-12.26.88 2.15 1.84 4.28 2.88 6.35-10.7 4.88-21.79 8.96-33.01 12.29-.74.22-1.49.4-2.24.62-.43-2-.99-3.97-1.63-5.92z" fill="#456684"/><path d="M924.49 297.5c-.54-1.27-1.02-2.57-1.48-3.87 18.55-9.45 35.62-21.53 50.11-36.77 9.05-9.52 16.76-20.51 23.02-32.04.98-1.8 4.08-.23 3.22 1.66-15.14 33.23-42.21 57.13-73.69 73.49-.4-.82-.79-1.65-1.18-2.47z" fill="#456684"/><path d="M954.73 59.63c3.96-17.14 13.06-32.69 26.68-43.94 12.56-10.37 28.94-17.12 45.43-15.43 16.52 1.69 30.82 11.53 39.91 25.18 9.67 14.52 13.81 31.72 13.19 49.07-.77 21.42-8.09 42.01-15.68 61.82-7.76 20.26-15.61 40.48-23.42 60.72-5.77 14.95-12.09 31.95-25.65 41.65-1.73 1.24-3.54 2.42-5.43 3.41-2.43 1.27-4.82 1.65-7.53 1.54-1.12-.04-2.05-.37-2.83-.86-.32-.03-.64-.09-.93-.16-5.84-1.52-9.95-8.54-12.2-13.71-2.76-6.34-4.71-13.07-6.58-19.71-.07-.26-.14-.52-.21-.77-3.39-9.19-6.57-18.45-9.5-27.8-6.13-19.56-11.47-39.46-15.03-59.66-3.57-20.28-4.88-41.14-.21-61.35z" fill="#c54f31"/><path d="M984.18 69.43c.66-13.7 8.61-27.81 21.99-31.98 3.67-2.22 8.13-3.25 12.69-3.49 7.04-.37 14.99.53 21.37 3.66 8.26 4.05 13.06 11.51 14.14 20.59 1.05 8.79.55 17.98-1.45 26.6-1.86 8.03-6.09 15.85-12.59 21.07-7.48 6.01-16.13 6.9-25.4 5.96-8.85-.9-17.5-3.12-22.94-10.75-5.02-7.04-7.75-15.69-8.22-24.29-.14-2.52.0-4.99.41-7.37z" fill="#f7e5d1"/><path d="M974.3 38.77c6.42-11.77 15.84-21.55 27.89-27.56 1.37-.68 2.34 1.38 1.03 2.12-21.15 11.92-32.71 36.07-35.25 59.51-1.6 14.76.13 29.48 2.82 44 2.78 14.96 6.41 29.77 10.24 44.49 4.48 17.24 8.8 34.5 13.06 51.79.35 1.44-1.83 1.82-2.23.44-4.59-16-9.15-31.98-13.54-48.04-4.25-15.53-9.13-30.94-12.27-46.75-5.31-26.71-5.08-55.57 8.24-79.99z" fill="#fff2ec"/><path d="M986.68 141.06c1.11 5.33 2.22 10.67 3.42 15.98.58 2.56 1.19 5.11 1.84 7.66.68 2.69 1.64 5.49 1.89 8.26.08.9-1.18 1.48-1.6.54-1.09-2.42-1.59-5.22-2.15-7.81-.58-2.66-1.11-5.33-1.62-8.01-1.03-5.48-1.82-10.95-2.33-16.51-.03-.36.48-.47.56-.11z" fill="#fff2ec"/><path d="M1065.87 39.77c1.05 1.87 1.88 3.67 2.52 5.72.6 1.95 1.12 3.93 1.55 5.92.43 2.01.66 4.02.8 6.07.14 2.08.33 4.2.02 6.27-.18 1.23-1.99 1.45-2.25.13-.38-1.92-.46-3.88-.74-5.82-.29-2.02-.67-4.02-1.02-6.03-.34-1.94-.76-3.86-1.26-5.76-.52-1.97-.93-3.92-1.37-5.91-.23-1.07 1.25-1.49 1.76-.59z" fill="#fff2ec"/></g></g></svg>