<svg id="_лой_2" xmlns="http://www.w3.org/2000/svg" width="1080" height="853.42" viewBox="0 0 1080 853.42"><g id="Tourism19_573921992"><g id="Tourism19_573921992-2"><g><path d="M1076.74 202.87c-1.66 7.32-3.49 13.27-5.37 18.14-4.04 12.73-9.53 25.21-15.64 36.61C1031.18 303.18 927.83 375 927.83 375c0 0-8.74-38.53 8.78-54.3 11.94-10.78 93.28-79.51 124.2-143.26 2.75-6.7 7.12-18.81 9.78-32.7-4.74-8.74-11.9-16.27-21.89-22.01-45.52-26.3-241.74-33.29-360.86 5.24-119.12 38.53-238.29 84.09-360.91 231.26-41.98 50.39-52.55 78.85-52.55 78.85l-14.02-64.82s77.1-154.16 259.3-234.75c182.2-80.59 478.7-109.3 540.03-42.73 2.41 2.66 4.41 5.08 5.99 7.36 4.12 5.78 5.95 10.69 7.11 15.64.0.0 13.15 43.36 3.95 84.09z" fill="#545c77"/><path d="M898.03 410.49c-23.63 76.18-53.84 112.97-66.99 131.36-6.12 8.57-40.49 22.76-61.33 30.79-.08.04-.12.08-.21.08-8.78 3.41-15.15 5.66-15.89 5.91t-.08.04l-78.6-48.81c18.56 6.91 38.28 10.03 59.54 5.58 80.05-16.85 109.26-197.55 91.83-244.65-17.27-46.77-459.89-80.26-555.01-11.69l-38.11-23.67s55.21-56.5 76.23-66.99c21.01-10.53 141.92-31.54 312.72-23.67 170.8 7.91 249.65 34.16 265.42 52.55 15.77 18.43 34.16 116.96 10.49 193.19z" fill="#aa4848"/><path d="M326.92 577.51c-3.58-.75-7.24-1.66-10.94-2.79-81.18-24.05-107.56-180.25-99.57-265.92l82.47-45.94s-26.25 82.34-15.77 140.18c10.53 57.79 33.29 140.14 94.62 133.15 45.48-5.2-15.98 25.26-50.8 41.32z" fill="#aa4848"/><path d="M863.87 267.24c-19.68-55.17-528.17-94.57-630.69-11.82-8.49 6.87-14.31 26.71-16.77 53.38-7.99 85.67 18.39 241.87 99.57 265.92 3.7 1.12 7.36 2.04 10.94 2.79 99.36 21.47 152.99-77.81 217.69-81.63 66.99-3.95 118.25 102.48 208.91 82.8t.08-.04c5.49-1.17 10.82-3.16 15.89-5.91.08.0.12-.04.21-.08 79.1-42.15 112.67-253.6 94.16-305.4zm-129.4 268.2c-21.26 4.45-40.98 1.33-59.54-5.58-51.34-19.22-94.03-67.53-137.47-65.07-59.21 3.37-116.25 94.2-210.29 67.28-93.99-26.92-89.66-226.64-57.96-251.39.67-.54 1.37-1.04 2.08-1.58 95.12-68.57 537.74-35.08 555.01 11.69 17.43 47.1-11.78 227.8-91.83 244.65z" fill="#c45f5b"/><path d="M269.23 280.69c-31.7 24.74-36.06 224.46 57.95 251.38s151.08-63.92 210.27-67.29c59.19-3.36 116.94 87.47 197.02 70.65 80.08-16.82 109.26-197.55 91.85-244.65-17.41-47.1-466.56-80.74-557.09-10.09z" fill="#dae6f7" opacity=".5"/><path d="M340.94 285.65c26.92-11.78 28.91 26.28 2.63 42.05-26.28 15.77-2.63 49.93-26.28 47.3-23.65-2.63-18.4-70.95 23.65-89.35z" fill="#fcfcfc"/><path d="M322.54 403.91c-23.27 11.63-7.88 97.23 18.39 81.46 26.28-15.77 2.63-52.56 2.63-73.58s-5.26-15.77-21.02-7.88z" fill="#fcfcfc"/><path d="M1076.74 202.87c-1.66 7.32-3.49 13.27-5.37 18.14-4.04 12.73-9.53 25.21-15.64 36.61C1031.18 303.18 927.83 375 927.83 375c0 0-8.74-38.53 8.78-54.3 11.94-10.78 93.28-79.51 124.2-143.26 2.75-6.7 7.12-18.81 9.78-32.7 5.24-20.26-1.29-35.37-4.91-41.61 4.12 5.78 5.95 10.69 7.11 15.64.0.0 13.15 43.36 3.95 84.09z" fill="#70799d"/><path d="M899.8 324.19s24.53-26.28 33.29-26.28 3.5 73.58-3.5 87.6c-7.01 14.02-35.04 15.77-35.04 15.77.0.0 8.76-52.56 5.26-77.08z" fill="#545c77"/></g><path d="M16.46 7.36 27.97 2.32c15.58-6.82 33.55 2.01 37.64 18.52 35.57 143.55 188.32 721.78 216.89 752.84 30.22 32.85 130.81 13.88 125.36-72.93-.8-12.77 8.19-24.11 20.7-26.79h0c16.91-3.62 32.56 9.8 31.69 27.08-2.41 47.71-18.38 130.87-98.91 147.54-114.31 23.65-138.2-43.64-161.61-106.43C174.07 673.34 32.48 155.32.97 39.69-2.61 26.56 3.99 12.81 16.46 7.36z" fill="#c45f5b"/></g></g></svg>