<svg xmlns="http://www.w3.org/2000/svg" width="1080" height="487.94" viewBox="0 0 1080 487.94"><g id="a"/><g id="b"><g id="c"><g id="d"><g><path d="M440.78 6.04l2.48 99.26c.07 2.84-2.17 5.2-5.01 5.27-.04.0-.09.0-.13.0-2.78.0-5.07-2.22-5.14-5.02l-1.72-68.66-16.13 50.69c-.68 2.14-2.67 3.59-4.9 3.59-.03.0-.05.0-.08.0-2.27-.03-4.25-1.55-4.87-3.73l-9-31.49-2.42 58.53c-.11 2.77-2.39 4.93-5.14 4.93-.07.0-.14.0-.22.0-2.84-.12-5.05-2.51-4.93-5.35l3.74-90.43c.1-2.52 2.03-4.6 4.53-4.9 2.5-.3 4.86 1.27 5.56 3.7l13.08 45.79 20.24-63.62c.76-2.39 3.14-3.88 5.63-3.53 2.49.36 4.36 2.45 4.42 4.97zM499.93.0 472.5 1.02c-2.77.1-4.95 2.38-4.95 5.14v95.87c0 1.46.62 2.85 1.7 3.82.95.86 2.18 1.32 3.44 1.32.18.0.36.0.54-.03l25.84-2.72c2.83-.3 4.88-2.83 4.58-5.66-.3-2.83-2.83-4.88-5.66-4.58l-20.15 2.12V59.73l16.39-2.59c2.81-.44 4.72-3.08 4.28-5.89-.44-2.81-3.1-4.72-5.88-4.28l-14.79 2.34V11.13l22.47-.84c2.84-.11 5.06-2.49 4.95-5.33-.11-2.84-2.47-5.09-5.33-4.95zm72.02 104.95c1.95 2.06 1.87 5.32-.2 7.27-2.07 1.96-5.32 1.86-7.27-.2l-31.91-33.68v33.89c0 2.84-2.3 5.15-5.15 5.15s-5.15-2.3-5.15-5.15V67.48l-.63-.66c-1.04-1.1-1.55-2.61-1.38-4.11.16-1.41.89-2.68 2.01-3.53V14.67c0-2.14 1.33-4.06 3.34-4.82 2.97-1.11 18.2-6.56 26.74-4.62 6.03 1.37 13.92 5.61 16.31 13.06 2.02 6.3-.15 13.1-6.46 20.2-9.76 10.98-22.19 20.63-28.99 25.58l38.74 40.89zm-39.38-53.3c6.52-5.06 15.05-12.26 21.94-20.01 2.56-2.88 5.39-6.99 4.35-10.22-.95-2.95-5.14-5.33-8.79-6.16-3.43-.78-11.38 1.08-17.51 3.06V51.65zm103.3 57.45c1.73 2.26 1.3 5.49-.96 7.21-.93.71-2.03 1.06-3.12 1.06-1.55.0-3.08-.7-4.09-2.02l-32.3-42.21.4 26.43c.04 2.84-2.23 5.18-5.07 5.22-.03.0-.05.0-.08.0-2.81.0-5.1-2.25-5.14-5.07l-.61-40.31-2.07-2.7c-.91-1.2-1.26-2.73-.94-4.21.32-1.47 1.26-2.73 2.59-3.45.09-.05.17-.1.26-.15l-.59-38.88c-.04-2.84 2.23-5.18 5.07-5.22 1.42-.05 2.72.51 3.66 1.43 6.54-2.8 17.97-6.69 28.44-5.15 4.89.72 8.29 3.87 9.1 8.44 2.09 11.83-13.95 31.96-35.29 45.25l.02 1.1 40.74 53.24zm-40.94-66.56c17.86-12.66 26.35-27.49 25.37-31.17-.1-.03-.25-.07-.48-.11-8.71-1.27-19.77 2.87-25.28 5.49l.39 25.79zM693.46 3.21c-2.57-1.21-5.64-.1-6.84 2.47l-20.84 44.36-12.75-41.6c-.83-2.72-3.71-4.25-6.43-3.41-2.72.83-4.24 3.71-3.41 6.43l16.41 53.53-1.33 43.68c-.09 2.84 2.15 5.21 4.99 5.3.05.0.11.0.16.0 2.77.0 5.06-2.2 5.14-4.99l1.33-43.47 26.06-55.46c1.21-2.57.1-5.64-2.47-6.85z" fill="#ff6613"/><g><g><path d="M32.63 247.58c2.55 39.26 20.65 42.58 26.52 42.58s10.96-2.55 12.24-10.96c1.27-8.41 7.14-14.53 20.14-13.51 13 1.02 18.1 10.45 17.5 17.85-.6 7.39-2.72 43.9-49.88 43.9S-3.07 283.27.5 231.52c3.57-51.76 31.36-86.55 70.11-82.35 38.75 4.2 39.01 34.67 38.24 40.54-3.76 28.85-28.81 29.32-38.75 19.89-9.94-9.43-1.02-22.69-1.02-22.69-12.49-2.29-39.01 21.42-36.46 60.68z" fill="#ea500c"/><path d="M250.49 195.06s.51-30.34-1.78-36.2c-2.29-5.86-8.67-13.89-15.55-13.89.0.0-18.61-3.2-21.16 17.2l-1.17 74.35h-38.64c-.09-22.72-.36-41.46-.36-41.46.0.0.51-30.34-1.78-36.2-2.29-5.86-8.67-13.89-15.55-13.89.0.0-18.61-3.2-21.16 17.2l-2.29 146.34s-.51 16.68 10.45 18.92c10.96 2.24 25.75.46 28.81-13.06 1.24-5.47 1.73-26.1 1.87-48.7h38.2l-.67 42.83s-.51 16.68 10.45 18.92c10.96 2.24 25.75.46 28.81-13.06 3.06-13.51 1.53-119.32 1.53-119.32z" fill="#459781"/><path d="M383.7 305.71c-3.31-9.43-51.5-58.93-51.5-58.93.0.0 29.83-4.04 41.81-22.65 7.16-11.12 10.2-36.2-4.08-56.6-14.28-20.4-45.89-22.55-66.29-22.55s-29.32 7.26-32.63 20.26c0 0-3.57 52.01-3.82 87.45-.25 35.44 3.06 71.49 13 74.75s24.48-2.35 25.75-18.92c1.27-16.57 1.27-34.42 1.27-34.42l41.05 40.79s17.08 14.02 25.5 11.47c8.41-2.55 13.26-11.22 9.94-20.65zm-77.76-93.31 1.53-36.2c22.69-2.29 31.61 10.96 27.28 22.95-4.33 11.98-28.81 13.26-28.81 13.26z" fill="#ea500c"/><path d="M416.08 144.97c-7.9.0-18.87 1.14-22.18 33.77-3.31 32.63-4.33 101.98-2.29 114.98 2.04 13 5.36 33.71 19.63 33.71s20.91-11.53 22.44-29.63c1.53-18.1 1.53-130.03 1.53-130.03.0.0.0-22.81-19.12-22.81z" fill="#ff6613"/><path d="M521.37 182.82s-5.61 4.59-4.08 15.55c1.53 10.96 16.32 11.98 21.42 11.98s17.08-3.82 17.08-20.14-8.16-43.32-51.76-45.25c-43.6-1.92-59.15 37.34-56.34 60.03 2.8 22.69 14.53 30.59 42.58 42.07 28.04 11.47 34.42 25.22 32.38 34.92-2.04 9.7-24.73 33.16-46.15 6.9.0.0 11.22-4.08 12.49-14.79 1.27-10.71-7.39-18.87-18.61-19.38-11.22-.51-28.55 6.12-28.55 29.06s19.89 46.91 53.8 49.21c33.91 2.29 56.85-11.98 64.5-28.04 7.65-16.06 12.49-46.09-18.87-65.88-31.36-19.79-52.27-26.17-54.05-44.9-1.78-18.74 27.28-23.58 34.16-11.34z" fill="#459781"/><path d="M1035.55 182.82s-5.61 4.59-4.08 15.55c1.53 10.96 16.32 11.98 21.42 11.98s17.08-3.82 17.08-20.14-8.16-43.32-51.76-45.25c-43.6-1.92-59.15 37.34-56.34 60.03 2.8 22.69 14.53 30.59 42.58 42.07 28.04 11.47 34.42 25.22 32.38 34.92-2.04 9.7-24.73 33.16-46.15 6.9.0.0 11.22-4.08 12.49-14.79 1.27-10.71-7.39-18.87-18.61-19.38-11.22-.51-28.55 6.12-28.55 29.06s19.89 46.91 53.8 49.21c33.91 2.29 56.85-11.98 64.5-28.04 7.65-16.06 12.49-46.09-18.87-65.88-31.36-19.79-52.27-26.17-54.05-44.9-1.78-18.74 27.28-23.58 34.16-11.34z" fill="#ea500c"/><path d="M572.87 147.13s-14.79 2.29-15.04 16.06c-.25 13.77 14.53 17.85 42.07 17.85l-.51 111.16s-1.71 35.24 13.68 35.24 21.25-6.94 21.25-20.19v-126.46l21.42-1.53s15.3-1.02 17.85-15.04c2.55-14.02-11.98-19.24-23.2-19.24s-77.51 2.16-77.51 2.16z" fill="#ff6613"/><path d="M751.85 216.22l-27.28-56.34s-5.86-11.61-19.38-13.26c-13.51-1.65-18.36 9.18-20.91 15.55-2.55 6.37-11.98 40.79-11.47 82.1s-2.8 81.02 16.06 82.1c18.87 1.07 20.14-17.34 21.42-30.34 1.27-13-2.29-80.31-2.29-80.31l18.61 47.93s5.86 17.06 19.89 18.34c14.02 1.29 20.65-12.48 27.54-20.89 6.88-8.41 13-22.02 13-22.02v66.9s0 21.42 14.53 22.95c14.53 1.53 20.91-7.39 22.18-18.1 1.27-10.71 2.8-101.73 2.8-101.73.0.0 2.55-46.91-6.63-57.62-9.18-10.71-22.44-6.88-31.87 7.39-9.43 14.28-36.2 57.36-36.2 57.36z" fill="#ea500c"/><path d="M917.83 164.72s-4.33-17.63-18.1-19.4c-6.33-.81-15.81 1.55-23.71 23.22-7.9 21.67-39.01 124.42-39.01 124.42.0.0-10.2 31.97 6.88 34.47 17.08 2.5 24.22-14.33 24.22-14.33l10.96-29.57h30.08l10.96 35.95s2.04 7.96 15.55 7.96 15.55-13.05 15.81-19.17c.25-6.12-33.65-143.54-33.65-143.54zm-33.14 95.86 10.45-31.36 7.65 31.36h-18.1z" fill="#459781"/></g><g><path d="M198.59 419.46l-6.26.31-9.99-58.16c-.55-3.19-3.25-5.55-6.47-5.68-3.21-.08-6.11 2.01-6.91 5.15l-15.51 60.63-10.29.51c-3.78.19-6.69 3.4-6.5 7.18.18 3.66 3.21 6.51 6.83 6.51.11.0.23.0.35.0l6.06-.3-9.88 38.62c-.94 3.66 1.27 7.39 4.94 8.33.57.15 1.14.22 1.7.22 3.05.0 5.84-2.06 6.63-5.15l10.93-42.72 16.67-.83 7.39 43.01c.64 3.73 4.17 6.22 7.91 5.59 3.73-.64 6.23-4.18 5.59-7.91l-7.11-41.38 4.6-.23c3.78-.19 6.69-3.4 6.5-7.18-.19-3.78-3.41-6.66-7.18-6.5zm-30.82 1.53 6.51-25.44 4.28 24.91-10.78.54z" fill="#ff6613"/><path d="M269.94 362.01l-61.9 7.34c-3.76.44-6.44 3.85-5.99 7.61.41 3.48 3.37 6.04 6.79 6.04.27.0.54-.02.81-.05l19.12-2.27v90.47c0 3.78 3.07 6.85 6.85 6.85s6.85-3.07 6.85-6.85v-92.1l29.09-3.45c3.76-.44 6.44-3.85 5.99-7.61-.44-3.75-3.84-6.44-7.61-5.99z" fill="#ff6613"/><path d="M406.63 367.58h-61.75c-3.78.0-6.85 3.07-6.85 6.85s3.07 6.85 6.85 6.85h23.9l-1.81 94.5c-.07 3.78 2.93 6.9 6.71 6.98h.13c3.72.0 6.77-2.98 6.84-6.72l1.81-94.77h24.16c3.78.0 6.85-3.07 6.85-6.85s-3.07-6.85-6.85-6.85z" fill="#ff6613"/><path d="M464.06 365.63c-3.78.0-6.85 3.07-6.85 6.85v41.01l-26.04 4.14v-38.89c0-3.78-3.07-6.85-6.85-6.85s-6.85 3.07-6.85 6.85v85.5c0 3.78 3.07 6.85 6.85 6.85s6.85-3.07 6.85-6.85v-32.75l26.04-4.14v48.55c0 3.78 3.07 6.85 6.85 6.85s6.85-3.07 6.85-6.85V372.47c0-3.78-3.07-6.85-6.85-6.85z" fill="#ff6613"/><path d="M535.54 367.61l-45.77 4.32c-3.51.33-6.2 3.28-6.2 6.82v97.16c0 3.78 3.07 6.85 6.85 6.85h35.41c3.78.0 6.85-3.07 6.85-6.85s-3.07-6.85-6.85-6.85h-28.56v-41.14l27.27-1.75c3.77-.24 6.64-3.5 6.4-7.27-.24-3.77-3.47-6.63-7.27-6.4l-26.4 1.69v-29.22l39.57-3.73c3.76-.36 6.53-3.7 6.17-7.46-.35-3.76-3.67-6.49-7.46-6.17z" fill="#ff6613"/><path d="M633.11 416.87c14.41-14.18 20.23-28.22 19.23-37.58-.57-5.37-3.42-9.46-7.81-11.22-7.51-3-20.78-.39-29.69 1.99-1.19-1.42-2.93-2.38-4.92-2.47-3.81-.18-6.98 2.74-7.16 6.52l-4.75 101.48c-.18 3.78 2.74 6.98 6.52 7.16.11.0.22.0.33.0.4.0.78-.05 1.16-.11.39.07.8.12 1.2.12.68.0 1.38-.1 2.06-.32 9.91-3.13 59.03-20.05 53.2-46.03-3.07-13.68-15.97-18.65-29.37-19.54zm5.62-36.3c.69 3.72-3.61 18.31-24.17 34.3l1.45-30.91c8.81-2.48 18.84-4.23 22.73-3.39zm-26.61 86.38 1.64-34.99c8.9-1.83 32.77-4.12 35.37 7.44 1.95 8.67-18.51 20.58-37 27.55z" fill="#ff6613"/><path d="M723.82 362.9l-38.75 3.65c-.91-.51-1.93-.85-3.04-.91-3.73-.18-6.98 2.74-7.16 6.52l-4.75 100.41c-.09 1.87.59 3.69 1.89 5.05 1.29 1.35 3.08 2.12 4.95 2.12h40.59c3.78.0 6.85-3.07 6.85-6.85s-3.07-6.85-6.85-6.85h-33.42l1.6-33.81h26.63c3.78.0 6.85-3.07 6.85-6.85s-3.07-6.85-6.85-6.85h-25.99l1.82-38.53 36.9-3.48c3.77-.36 6.53-3.7 6.18-7.46-.36-3.76-3.71-6.5-7.46-6.18z" fill="#ff6613"/><path d="M772.69 366.06c-.49-3.23-3.19-5.67-6.46-5.82-3.22-.18-6.18 2.03-6.96 5.2L732.5 474.27c-.9 3.67 1.34 7.38 5.01 8.29.55.13 1.1.2 1.64.2 3.08.0 5.88-2.09 6.64-5.21l7.57-30.78 17.4-1.64 4.8 31.8c.56 3.74 4.04 6.33 7.79 5.75 3.74-.56 6.31-4.05 5.75-7.79l-16.41-108.83zm-15.86 66.63 7.48-30.39 4.41 29.27-11.89 1.12z" fill="#ff6613"/><path d="M851.76 373.69c-19.54-2.8-43.94 20.95-51.07 65.64-4.25 26.65 9.21 33.93 15.19 35.82 2.43.77 5 1.13 7.63 1.13 12.88.0 27.17-8.75 33.42-21.56 1.66-3.4.25-7.5-3.15-9.16-3.39-1.66-7.5-.25-9.16 3.15-4.82 9.87-17.56 15.59-24.61 13.37-7.53-2.38-6.86-13.94-5.8-20.61 5.96-37.38 24.85-55.72 35.58-54.24.52.08.91.17 1.2.25-.4 1.56-1.94 4.35-3.55 6.31-2.41 2.9-2.01 7.21.89 9.63 2.9 2.42 7.22 2.04 9.64-.87 2.22-2.66 9.21-12 5.99-20.41-1.24-3.23-4.36-7.32-12.2-8.46z" fill="#ff6613"/><path d="M939.02 422.06l4.3-47.91c.34-3.77-2.44-7.09-6.21-7.43-3.76-.36-7.09 2.44-7.43 6.21l-3.8 42.4-31.14 3.64 5.8-45.62c.48-3.75-2.18-7.18-5.93-7.66-3.76-.44-7.18 2.18-7.66 5.93l-13.82 108.61c-.48 3.75 2.18 7.18 5.93 7.66.29.03.58.05.87.05 3.4.0 6.34-2.53 6.79-5.98l6.23-48.99 31.67-3.7-3.55 39.55c-.34 3.77 2.44 7.09 6.21 7.43.21.02.41.03.62.03 3.5.0 6.49-2.68 6.81-6.23l4.3-47.95v-.03z" fill="#ff6613"/></g></g></g></g></g></g></svg>