<svg xmlns="http://www.w3.org/2000/svg" width="1080" height="657.34" viewBox="0 0 1080 657.34"><g id="a"/><g id="b"><g id="c"><g id="d"><g><g><g><g><path d="M435.11 24.42h133.45v128.24H435.11z" fill="#e44c42"/><path d="M427.66.0h140.9v32.2H427.66z" fill="#e44c42"/><path d="M511.44 24.42H644.9v128.24H511.44z" fill="#e44c42"/><path d="M511.44.0h140.9v32.2H511.44z" fill="#e44c42"/></g><path d="M512 75.12h56.01v77.53H512z" fill="#401412"/></g><g><path d="M385.03 646.28 712.04 637.98 650.41 170.83 422.66 172.39 385.03 646.28z" fill="#e44c42"/><path d="M394.62 145.91h206.64v49.85H394.62z" fill="#e44c42"/><path d="M355.15 191.62h138.64v49.84H355.15z" fill="#e44c42"/><path d="M315.69 237.31h138.64v49.83H315.69z" fill="#e44c42"/><path d="M276.22 282.99h158.89v49.85H276.22z" fill="#e44c42"/><path d="M236.77 328.69h187.68v49.84H236.77z" fill="#e44c42"/><path d="M197.31 374.38h220.93v49.84H197.31z" fill="#e44c42"/><path d="M157.85 420.07h252.34v49.85H157.85z" fill="#e44c42"/><path d="M118.37 465.77h282.47v49.84H118.37z" fill="#e44c42"/><path d="M78.91 511.46h321.93v49.84H78.91z" fill="#e44c42"/><path d="M39.45 557.16h349.28V607H39.45z" fill="#e44c42"/><path d="M1080 652.69H483.38.0V602.84H1080V652.69z" fill="#e44c42"/><path d="M548.31 145.91h138.62v49.85H548.31z" fill="#e44c42"/><path d="M587.75 191.62h138.64v49.84H587.75z" fill="#e44c42"/><path d="M627.22 237.31h138.64v49.83H627.22z" fill="#e44c42"/><path d="M646.44 282.99h158.89v49.85H646.44z" fill="#e44c42"/><path d="M657.09 328.69h187.71v49.84H657.09z" fill="#e44c42"/><path d="M663.31 374.38h220.93v49.84H663.31z" fill="#e44c42"/><path d="M671.37 420.07H923.7v49.85H671.37z" fill="#e44c42"/><path d="M680.71 465.77h282.46v49.84H680.71z" fill="#e44c42"/><path d="M680.71 511.46h321.94v49.84H680.71z" fill="#e44c42"/><path d="M692.82 557.16h349.28V607H692.82z" fill="#e44c42"/></g></g><g><g><path d="M391.07 626.01h298.21v26.67H391.07z" fill="#f3ac35"/><path d="M391.07 572.68h298.21v26.65H391.07z" fill="#f3ac35"/><path d="M391.07 519.32h298.21v26.67H391.07z" fill="#f3ac35"/><path d="M400.41 465.97h279.52v26.69H400.41z" fill="#f3ac35"/><path d="M417.03 412.63h246.28v26.69H417.03z" fill="#f3ac35"/><path d="M420.14 359.29H660.2v26.68H420.14z" fill="#f3ac35"/><path d="M434.68 305.95h210.99v26.65H434.68z" fill="#f3ac35"/><path d="M431.56 252.6h217.21v26.66H431.56z" fill="#f3ac35"/><g opacity=".5"><path d="M391.07 599.34h298.21v26.68H391.07z" fill="#f3ac35"/><path d="M391.07 546h298.21v26.69H391.07z" fill="#f3ac35"/><path d="M391.07 492.66h298.21v26.66H391.07z" fill="#f3ac35"/><path d="M408.2 439.32h263.94v26.65H408.2z" fill="#f3ac35"/><path d="M417.03 385.97h246.28v26.66H417.03z" fill="#f3ac35"/><path d="M424.69 332.61h230.94v26.69H424.69z" fill="#f3ac35"/><path d="M433.63 279.27h213.06v26.69H433.63z" fill="#f3ac35"/><path d="M446.62 225.94h187.1v26.66H446.62z" fill="#f3ac35"/></g><path d="M450.25 199.25h179.83v26.69H450.25z" fill="#f3ac35"/><path d="M450.25 172.59h179.83v26.66H450.25z" fill="#f3ac35" opacity=".5"/><path d="M458.56 145.91h163.2v26.67H458.56z" fill="#f3ac35"/></g><g><path d="M445.24 145.91 362.69 652.69H403.96L472.24 145.91h-27z" fill="#ec8333"/><path d="M634.76 145.91 717.32 652.69H676.05L607.77 145.91H634.76z" fill="#ec8333"/></g></g></g><path d="M0 636.56h1080v20.79H0z" fill="#401412"/></g></g></g></svg>