<svg id="_лой_2" xmlns="http://www.w3.org/2000/svg" width="1080" height="605.33" viewBox="0 0 1080 605.33"><g id="Nature05_189994502"><g id="Nature05_189994502-2"><path d="M537.9 17.39S432.27 48.56 372.27 162.64c-60 114.08-61.54 224.35-143.88 293.45C146.05 525.2.0 512.54.0 512.54c0 0 221.84 63.38 391.78 39.62 169.93-23.76 198.23-104.97 198.23-104.97.0.0-8.46-125.91 58.35-201.06 66.81-75.15 145.92-75.26 145.92-75.26.0.0 6.97-5.55-19.72-55.11-26.69-49.56-100.29-120.79-236.67-98.36z" fill="#5face0"/><path d="M648.1 179.85s-57.85 6.98-96.62 93.43c-38.77 86.45-63.24 196.28-97.21 266.12.0.0 41.54-9.5 84.32-36.84 42.79-27.33 51.41-55.39 51.41-55.39.0.0-4.55-78.63 22.11-139.67 26.66-61.04 75.03-98.67 75.03-98.67.0.0 12.72-30.05-3.49-37.63-16.21-7.59-35.55 8.64-35.55 8.64z" fill="#5face0"/><path d="M572.61 109.33s-52.91 24.08-105.26 145.24c-52.35 121.15-91.33 243.98-176.98 302.7.0.0 84.98 6.56 163.91-17.86.0.0 18.5-38.13 38.71-100.88 20.21-62.75 53.4-158.37 71.65-187.67 42.13-67.65 16.73-99.03 16.73-99.03l-8.75-42.49z" fill="#74bfe8"/><path d="M360.48 316.27s35.38-125.88 85.06-197.48C495.22 47.19 584.84 13.16 584.84 13.16c0 0 101.08-1.54 149.89 52.78 48.8 54.32 59.55 104.91 59.55 104.91.0.0-77.06 6.03-134.03 62.78-56.97 56.75-65.42 136.84-65.42 136.84.0.0 8.72-48.44 20.13-82.5 11.41-34.07-20.74-46.46-38.73-38.64-17.99 7.81-29.13 37.9-29.13 37.9.0.0 33.97-71.23 7.18-87.28-26.79-16.05-64.79 8.5-91.2 65.83.0.0 37.43-92.21 16.84-110.62-20.59-18.41-62.61 21.35-87.99 81.21-25.38 59.86-31.44 79.89-31.44 79.89z" fill="#469ace"/><path d="M0 512.54s79.96 19.73 112.38 25.25c32.42 5.53 141.62-17.49 201.88-112.64 36.69-57.93 51.83-134.94 86.68-222.25 34.86-87.31 104.16-159.25 183.9-189.74.0.0-25.85 1.21-46.95 4.23-21.1 3.02-115.99 51.15-167.18 148.22-51.19 97.07-64.79 224.06-138.23 286.95-73.44 62.88-178.31 61.91-232.48 59.97z" fill="#469ace"/><path d="M679.64 216.7s17.14-19.13 4.57-33.62-56.52 13.1-56.52 13.1c0 0 29-33.16 11.47-55.06-17.53-21.9-63.83-13.87-89.58 8.3.0.0 28.34-51.81.51-69.54-27.84-17.74-99.51 36.27-99.51 36.27.0.0 41.47-63.27 134.25-102.99.0.0 83.63-5.13 139.4 42.6 55.77 47.73 70.03 115.1 70.03 115.1.0.0-52.05 2.29-114.64 45.84z" fill="#2d82ad"/><path d="M753.95 162.56s-36.01 20.98-27.23 58.12c8.79 37.14 89.26 57.49 127.21 17.08 37.95-40.4 40.81-119.25-45.52-185.56C722.08-14.1 583.66-8 513.52 19.77c-70.13 27.76-129.94 80.35-175.34 219.27.0.0 37.44-86.33 95.67-138.77 58.22-52.44 109.11-57.15 134.27-50.93 25.17 6.22 26.82 12.48 38.48 40.27 11.66 27.79 47.26 19.68 69.62 18.68 22.36-1 15.49 11.38 13.92 23.29-1.57 11.92 20.23 51.06 63.81 30.98z" fill="#d1ebf2"/><path d="M412.1 104.23s38.09-61.14 122.8-87.4c84.71-26.25 218.52-7.11 285.47 51.91 66.95 59.02 61.62 145.82 16.5 166.59-45.12 20.76-103.61-24.87-54.42-88.23.0.0-40.13 8.26-57.5-14.72-17.36-22.98-7.3-55.72-7.3-55.72.0.0-33.13 17.5-72.06 1.15-38.94-16.35-45.27-53.9-121.07-41.17-75.8 12.72-112.43 67.6-112.43 67.6z" fill="#fcfcfc"/><path d="M333.92 253.54s2.45-22.59 37.65-76.34c35.2-53.75 85.64-109.79 155.94-127.86l-7.27 29.4s-20.52-.25-86.69 50.08c-66.17 50.32-99.63 124.73-99.63 124.73z" fill="#2d82ad"/><path d="M0 512.54s126.27 1.13 203.88-44.01c77.61-45.15 91.89-121.84 113.33-178.89 21.44-57.05 66.13-129.62 66.13-129.62.0.0 64.13-53.38 91.98-60.44.0.0-55.56 30.34-89.6 92.83-34.04 62.49-44.35 94.45-65.21 154.03-20.85 59.58-50.22 119.58-126.5 150.22-76.28 30.64-127.44 31.63-127.44 31.63L0 512.54z" fill="#2d82ad"/><path d="M554.11 83.04s13.71 17.92-24.75 63.44c-27.82 32.92-42.26 61.29-75.41 127.5-33.16 66.2-47.43 117.05-82.24 178.82-34.81 61.77-89.52 104.25-89.52 104.25l27.59.56s49.34-32.01 108.51-163.58c56.15-124.84 54.48-131.29 89.73-185.52 35.25-54.23 58.77-73.7 100.2-80.3l-54.11-45.18z" fill="#2d82ad"/><path d="M640.04 142.28s6.62 10.87-.23 28.9c-6.85 18.03-42.74 33-79.73 83.83-36.99 50.83-86.39 251.07-105.81 284.4l23.59-10.21s58.04-213.13 94.73-267.15c36.69-54.02 82.48-88.67 109.77-80.67l-42.32-39.11z" fill="#2d82ad"/><path d="M1080 465.94s-93.6-33.24-178.06 1.42c-84.46 34.66-160.57 167.16-332.84 131.09-172.27-36.07-175.72-191.12-140.72-250.68 35-59.56 70.26-71.38 91.84-76.94 21.58-5.56 138.78 74.65 138.78 74.65.0.0-14.08 63.48 34.3 93.21 48.37 29.73 122.96 19.26 177.1 3.55 54.14-15.71 137.09-20.54 209.61 23.7z" fill="#5face0"/><path d="M932.87 431.56s-64.04 1.55-118.58 36.01c-54.54 34.46-172.82 84.97-232.69 21.56-59.87-63.41-6.25-159.8-6.25-159.8l83.64 16.14s-17.94 71.86 47.87 100.24c65.8 28.39 168.17-5.33 179.17-7.78 11-2.44 38.55-5.99 46.84-6.38z" fill="#74bfe8"/><path d="M1040.52 446.78s-85.21-26.49-158.95 2.8c-73.73 29.28-137.06 113.2-267.62 106.05-130.57-7.15-139.73-117.6-112.4-145.69 34.68-35.63 61.16-5.35 92.81 16.95 31.65 22.3 80.17 20.41 79.6-5.7.0.0-22.3-26.03-14.97-75.73l-138.78-74.65s-87.51 24.02-107.09 121.86c-19.57 97.83 46.92 163.08 104.41 189.54 57.49 26.46 145.6 37.11 230.73-10.65 85.13-47.77 96.25-80.71 159.27-106.39 63.02-25.68 155.75-6.59 172.46.77.0.0-23.09-13.71-39.48-19.16z" fill="#469ace"/><path d="M669.54 414.57s-14.01 16.56-32.57 4.74c-18.56-11.82-26.57-36.74-39.52-38.04s-35.3 7.55-51.94-10.51c-16.64-18.06-28.02-36.96-63.25-28.71-35.23 8.25-64.46 61.18-60.63 107.19 3.83 46.01 24.38 77.9 24.38 77.9.0.0-41.75-37.88-35.51-117 6.24-79.12 58.31-114.22 76.51-123.9 18.2-9.67 93.55 6.32 125.11 21.27 31.56 14.95 45.14 69.99 45.14 69.99.0.0 3.91 25.07 12.29 37.07z" fill="#2d82ad"/><path d="M622.19 348.88s-12.35 64.3 45.22 62.48c57.57-1.81 63.53-64.38 23.8-106.67s-126.75-58.29-197.25-28.77c-70.5 29.52-79.05 114.99-82.51 130.17.0.0 9.31-50.87 35.57-80.92 26.26-30.05 67.61-41.55 73.8-38.2 6.19 3.35 2.24 29.91 16.38 36.44 14.15 6.53 27-12.48 27-12.48.0.0-.46 33.54 19.55 45.59 20 12.05 38.44-7.65 38.44-7.65z" fill="#d1ebf2"/><path d="M450.62 313.09s22.25-33.97 83.1-46.5c60.85-12.54 135.69 13.41 162.48 51.55 26.79 38.15 12.52 77.43-18.7 83.79-31.22 6.36-57.41-39.77-43.65-84.52.0.0-12.82 20.26-35.01 11.62-22.18-8.64-28.1-43.64-28.1-43.64.0.0-12.63 25.23-26.83 19.06-14.2-6.17-11.56-23.79-19.88-27.03-8.32-3.24-52.1 11.78-73.41 35.67z" fill="#fcfcfc"/><path d="M413.1 397.34s-19.02 75.75 33.93 136.59c52.95 60.85 143.37 84.81 234.47 64.08 91.1-20.74 150.65-89.94 201.47-121.16 50.82-31.23 136.04-28.79 197.03-10.91.0.0-43.03-22.03-113.09-18.57-70.07 3.46-97.63 25.26-135.43 58.7-37.8 33.44-112.96 90.05-225.61 86.39-123.86-4.03-191.37-107.63-174.18-199.67l-18.6 4.55z" fill="#2d82ad"/><path d="M487.11 341.06s12.69-.99 2.62 28.28c-10.07 29.27-39.99 173.7 101.63 190.52 141.62 16.82 217.08-65.95 250.11-87.39 33.03-21.43 117.34-47.05 197.6-26.12.0.0-21.57-8.35-40.59-11.07.0.0-88.07-14.93-161.73 28.6-73.66 43.53-129.34 96.45-241.59 85.11-112.24-11.34-104.89-135.89-96.66-162.39 8.24-26.5 30.42-37.11 30.42-37.11.0.0 5.63-12.28-13.75-17.61-19.38-5.33-28.07 9.19-28.07 9.19z" fill="#2d82ad"/><path d="M548.35 367.29s6.39 6.89 4.76 16.31c-1.62 9.42-28.02 128.41 76.72 139.55 104.74 11.14 143.26-35.71 248.44-82.79l-40.46 8.1s-62.42 41.78-144.93 59.04c-82.51 17.27-128.98-26.54-127.46-79.43 1.52-52.89 26.36-50.12 26.36-50.12l-43.44-10.67z" fill="#2d82ad"/></g></g></svg>