<svg id="_лой_2" xmlns="http://www.w3.org/2000/svg" width="1080" height="1071.36" viewBox="0 0 1080 1071.36"><g id="Cataclysms03_491976104"><g id="Cataclysms03_491976104-2"><path d="M171.45 415.85c.06 26.01 3.47 51.78 1.54 77.77-2.89 38.98-8.87 77.59-10.91 116.67-.7 13.35-1.41 26.67-2.71 39.97-.28 2.87-3 13.11-1.45 15.56.9 1.42 16.1 6.78 18.27 6.53.83-.1.96-7.5.99-8.28.14-4.69.05-9.38.07-14.06.12-25.16-.58-50.32 2.13-75.41 4.05-37.55 9.88-74.66 12.1-112.44.74-12.66.91-25.29 1.39-37.95.15-3.98.19-7.98.49-11.95.16-2.09 2.57-6.75.53-6.26-7.34 1.74-15.6 6.75-22.44 9.84h0z" fill="#a0544a" fill-rule="evenodd"/><path d="M924.54 494.18c1.7 16.49 6.71 32.65 6.43 49.25-.42 24.89-3.95 49.72-3.54 74.63.14 8.5.27 16.99-.18 25.51-.1 1.84-2.17 8.49-.46 9.96.98.85 16.49 3.39 18.64 3.1.83-.11.49-4.81.47-5.31-.15-2.98-.54-5.95-.82-8.93-1.46-15.97-3.74-31.88-2.62-47.95 1.69-24.05 5.16-47.92 4.99-72.01-.05-8.07-.69-16.09-1-24.15-.1-2.53-.31-5.07-.26-7.61.03-1.33 2.14-4.43.14-4.01-7.22 1.52-15.14 5.17-21.77 7.52h0z" fill="#a0544a" fill-rule="evenodd"/><path d="M193.21 423.03c56.83 14.94 139.39 15.81 152.12-58.39 2.04-11.89-3.78-25.76-12.29-34.04-2.98-2.91-6.62-5.4-10.33-7.3-2.1-1.07-8.17-1.62-6.34-3.09 18.65-14.96 68.28-12.44 69.57-46.07 1.16-29.92-37.16-47.11-37.32-48-1.12-6.15 18.61-25.81 21.82-32.57 14.76-31.17-11.16-68.47-46.28-66.16-.02.0.0-.02.01-.04 2.1-6.01 4.31-11.99 6.35-18.02 4.39-13.02 7.97-27.56 7.98-41.36.04-35.3-22.44-60.32-57.34-67.03-42.05-8.08-42.56 38.52-54.42 45.28-2.07 1.18-1.35-4.56-2.14-6.8-1.86-5.27-5.33-9.53-9.82-12.86-12.67-9.4-31.05-10.5-46.39-10.8C83.46 14.06 34.59 86 57.74 153.61c8.88 25.96 32.8 43.18 32.8 43.18.0.0-7.26 1.86-10.92 2.7-9.54 2.19-19.18 3.57-27.16 9.65-24.27 18.49-42.72 49.94-37.64 81.25 2.65 16.3 15.17 38.7 28.55 48.45 2.99 2.18 26.77 12.71 27.37 14.85 1.6 5.65-24.06 18.92-6.39 46.49 21.12 32.93 57.21 20.6 87.53 29.62 9.83 2.93 16.75 14.58 26.23 16.78 6.77 1.57 10.98-19.76 15.09-23.55h0z" fill="#9f922a"/><path d="M632.16 406.15c-33.79 2.51-83.11-36.25-84.24-70.45-.5-15.07 10.29-28.54 21.78-37.21 4.02-3.03 8.54-4.57 13.53-5.09 1.96-.21 7.86.21 5.91-.06-36.31-5.03-73.9-53.2-55.33-88.79 4.77-9.15 11.18-16.07 21.21-19.48 3.1-1.05 10.8.98 9.61-2.05-6.12-15.54-34.59-33.27-8.81-65.03 17.18-21.17 42.87-14.7 43.91-16.24 6.69-9.94 7.63-24.47 11.09-35.7 9.68-31.44 43.01-45.67 74.22-46.6 20.42-.61 52.4 13.48 56.6 35.44 1.98 10.37-.8 21.88-2.56 32.13-.76 4.44-7.74 12.19-3.3 13.11 24.17 5.03 57.57 6.6 63.48 36.76 2.24 11.4-5.72 20.92-12.93 28.8-3.01 3.29-6.19 6.48-10.22 8.49-.23.11-.91.23-.68.33 24.32 10.89 43.55 33.52 28.43 61.59-6.77 12.56-18.71 21.56-31.6 27.27-6.07 2.69-12.86 5.14-19.56 5.55-.26.02-1.02.1-.77.02 12.81-4.36 41.39 5.04 44.62 21.39 3.82 19.29-1.42 28.18-24.68 32.78-11.3 2.23-32.23-3.58-31.81-3.38 20.15 9.81 17.36 23.61 13.71 34.22-3.56 10.32-7.45 17.56-26.02 21.02-1.43.26 2.19 1.91 3.27 2.89 4.02 3.63 7.48 7.57 9.71 12.55 4.94 11.06-2.45 20.55-11.03 27.66-33.15 27.44-60.63-11.62-95.54-8.39l-1.99-3.52z" fill="#9f922a"/><path d="M929.97 520.26c-34.99 11.97-82.55-5.66-45.28-36.6.55-.46-10.43-5.77-17.71-10.55-11.81-7.76-41.09-21.62-34.96-40.66 1.89-5.87 7.73-9.29 13.34-11.06 2.72-.85 10.53 1 8.5-.99-11.89-11.6-61.43-17.97-52.99-53.24 7.41-30.96 47.16-42.82 47.16-42.82.0.0-5.91-41.87 1.84-59.85 11.94-27.74 19.68-39.41 40.78-38.67 15.59.55 37.39 17.42 49.89 14.84 23.83-4.93 36.91-23.44 63.3-16.39 50.23 13.42 16.82 52.83 20.21 61.38.57 1.43 3.07.32 4.6.45 15.41 1.32 36.3.49 45.72 15.01 11.28 17.4 3.83 41.46-6.92 56.85-4.43 6.36-9.53 12.05-15.85 16.62-1.88 1.36-7.43 1.59-6.03 3.43 9.77 12.93 29.19-.39 28.11 30.09-.84 23.53-24.55 40.07-45.4 44.74-6.7 1.5-13.58 2.26-20.42 2.62-3.86.2-15.33.96-11.6-.09 26.89-7.57 70.53 12.3 58.61 46.41-6.48 18.55-35.2 22.18-51.86 22.65-6.45.18-13.69-.43-19.44-3.65-.59-.34-2.4-1.25-1.74-1.09 16.59 4.08 45.75 37.31 24.41 51.76-26.29 17.81-65.29-28.25-76.27-51.18h0z" fill="#9f922a"/><path d="M261.72 515.97c8.11 48.71 9.73 97.37 16.34 145.79 2.71 19.84 208.87 9.53 281.54 6.99 45.61-1.59 168.91-5.48 170.58-8.57 7.93-14.63-3.83-169.75-3.83-169.75.0.0-110.9-69.07-141.14-88.57-11.99-7.73-88.8-62.58-101.78-61.99-27 1.22-194.05 147.5-221.71 176.09h0z" fill="#eebd7c" fill-rule="evenodd"/><path d="M220.93 511.46c5.42 4.82 23.35 24.2 23.35 24.2.0.0 53.13-41.23 64.71-49.9 40.41-30.26 149.44-123.62 165.86-130.6 10.76-4.57 113.35 61.7 188.14 108.8 42.26 26.62 77.61 45.85 77.61 45.85l21.67-27.89s-48.01-27.8-57.83-32.92c-59.04-30.75-113.1-70.58-169.89-105.33-15.4-9.42-37.13-27.11-54.52-31.96-11.66-3.24-62.77 41.72-72.14 49.6-55.65 46.82-125.57 112.52-186.96 150.15h0z" fill="#be704b" fill-rule="evenodd"/><path d="M407.68 468c-1.37-1.05-2.23-.9-7.16-.77-8.79.23-22.2.59-28.65.86-7.77.33-20.41-.62-23.28 1.46-2.08 1.51.18 11.78.28 17.68.05 2.87.12 7.3.19 11.23.08 4.55-.47 6.4.85 7.78 1.32 1.37 2.51.58 7.08.48l42.05-.88c5.95-.13 7.8.0 9.54-1.25 1.7-1.21 1.12-2.15.86-6.19-.3-4.57-.64-10.25-.73-13.66-.08-3-.02-7.52.06-11.25.07-3.61.29-4.46-1.08-5.5h0z" fill="#fbf8e1" fill-rule="evenodd"/><path d="M677.77 524.12c-1.37-1.04-2.24-.89-7.16-.76-8.8.22-22.2.59-28.65.86-7.77.32-20.41-.62-23.28 1.46-2.08 1.51.18 11.78.28 17.67.05 2.88.12 7.31.19 11.23.08 4.55-.47 6.41.85 7.79 1.32 1.37 2.51.57 7.08.48l42.05-.88c5.95-.13 7.8.0 9.54-1.25 1.7-1.22 1.12-2.15.85-6.19-.3-4.57-.64-10.25-.73-13.67-.08-3-.02-7.52.06-11.24.07-3.61.29-4.46-1.08-5.5h0z" fill="#fbf8e1" fill-rule="evenodd"/><path d="M595.1 525.73c-1.37-1.05-2.24-.9-7.16-.77-8.8.23-22.2.59-28.65.86-7.77.33-20.41-.62-23.28 1.47-2.08 1.51.18 11.78.28 17.67.05 2.88.12 7.3.18 11.23.08 4.55-.47 6.4.86 7.78 1.32 1.38 2.51.58 7.08.48l42.05-.88c5.95-.13 7.81.0 9.54-1.25 1.7-1.21 1.12-2.15.85-6.19-.3-4.57-.64-10.24-.73-13.66-.08-3-.02-7.52.06-11.25.07-3.61.29-4.45-1.08-5.5h0z" fill="#fbf8e1" fill-rule="evenodd"/><path d="M514.35 528.04c-1.37-1.05-2.23-.9-7.16-.77-8.79.23-22.2.59-28.65.86-7.77.33-20.41-.62-23.28 1.47-2.08 1.51.19 11.78.28 17.67.05 2.88.12 7.3.19 11.23.08 4.55-.47 6.4.85 7.78 1.32 1.38 2.51.58 7.08.48l42.06-.88c5.95-.13 7.81.0 9.54-1.24 1.7-1.22 1.11-2.16.85-6.19-.3-4.57-.64-10.24-.73-13.66-.08-3-.02-7.52.05-11.25.08-3.61.29-4.45-1.08-5.5h0z" fill="#fbf8e1" fill-rule="evenodd"/><path d="M646.83 461.58c-1.37-1.05-2.24-.9-7.16-.77-8.8.23-22.2.59-28.65.86-7.77.33-20.41-.62-23.28 1.47-2.08 1.51.18 11.78.28 17.67.05 2.88.12 7.3.18 11.23.08 4.55-.47 6.41.86 7.78 1.32 1.38 2.51.58 7.08.48l42.05-.88c5.95-.12 7.81.0 9.54-1.24 1.7-1.22 1.12-2.16.85-6.19-.3-4.57-.64-10.24-.73-13.66-.07-3-.02-7.52.06-11.25.07-3.61.29-4.45-1.08-5.5h0z" fill="#fbf8e1" fill-rule="evenodd"/><path d="M561.73 462.59c-1.37-1.05-2.24-.9-7.16-.77-8.8.23-22.2.59-28.65.86-7.77.32-20.41-.62-23.28 1.46-2.08 1.51.18 11.78.28 17.67.05 2.88.12 7.31.19 11.23.08 4.55-.47 6.41.85 7.79 1.32 1.37 2.51.57 7.08.48l42.05-.88c5.95-.13 7.8.0 9.54-1.25 1.7-1.21 1.12-2.15.85-6.19-.3-4.57-.64-10.25-.73-13.67-.08-3-.02-7.52.06-11.24.07-3.61.29-4.46-1.08-5.5h0z" fill="#fbf8e1" fill-rule="evenodd"/><path d="M485.25 464.16c-1.37-1.05-2.23-.89-7.16-.76-8.79.23-22.2.59-28.65.86-7.77.32-20.42-.62-23.28 1.46-2.08 1.51.18 11.78.28 17.67.05 2.88.12 7.3.19 11.23.08 4.55-.47 6.41.85 7.78 1.32 1.38 2.51.58 7.08.48l42.06-.88c5.94-.12 7.8.0 9.53-1.24 1.7-1.22 1.12-2.16.85-6.19-.3-4.57-.64-10.25-.73-13.67-.08-3-.02-7.52.05-11.25.07-3.61.29-4.45-1.08-5.5h0z" fill="#fbf8e1" fill-rule="evenodd"/><path d="M477.78 377.11c-28.96 2.52-42.38 30.6-31.59 54.15 4.73 10.31 19.2 18.32 30.23 19.96 16 2.39 34.93-3.52 42.72-20.47 3.16-6.87 4.97-18.99.66-30.5-5.2-13.88-18.72-25.19-42.02-23.16h0z" fill="#fbf8e1" fill-rule="evenodd"/><path d="M403.07 472.67c-1.14-.78-1.86-.66-5.97-.56-7.34.18-18.52.48-23.9.69-6.48.26-17.03-.42-19.42 1.14-1.74 1.13.13 8.82.2 13.22.03 2.15.09 5.47.13 8.4.06 3.41-.4 4.79.69 5.82 1.1 1.03 2.09.43 5.91.35l35.07-.73c4.96-.1 6.51-.02 7.96-.95 1.42-.91.94-1.61.72-4.63-.24-3.42-.51-7.66-.58-10.22-.06-2.25.0-5.63.07-8.41.07-2.7.25-3.33-.89-4.11h0z" fill="#4f9f92" fill-rule="evenodd"/><path d="M480.73 469.29c-1.14-.78-1.87-.66-5.97-.56-7.33.18-18.52.48-23.9.7-6.48.25-17.03-.43-19.42 1.13-1.74 1.14.13 8.82.2 13.22.03 2.16.09 5.47.13 8.4.06 3.41-.4 4.8.7 5.83 1.1 1.03 2.08.43 5.91.35l35.07-.74c4.96-.1 6.51-.02 7.96-.95 1.42-.91.93-1.62.72-4.64-.24-3.42-.51-7.66-.58-10.22-.06-2.24.0-5.62.07-8.41.07-2.7.25-3.33-.89-4.11h0z" fill="#4f9f92" fill-rule="evenodd"/><path d="M557.01 467.18c-1.14-.78-1.86-.66-5.97-.56-7.33.19-18.52.48-23.9.69-6.48.26-17.03-.42-19.42 1.14-1.74 1.13.13 8.81.2 13.22.03 2.15.09 5.47.13 8.4.06 3.41-.4 4.79.7 5.83 1.1 1.03 2.09.42 5.91.34l35.07-.73c4.96-.1 6.51-.02 7.96-.95 1.42-.92.94-1.62.73-4.64-.24-3.42-.51-7.66-.58-10.22-.06-2.24.0-5.62.06-8.41.07-2.7.25-3.33-.89-4.11h0z" fill="#4f9f92" fill-rule="evenodd"/><path d="M642.36 466.33c-1.14-.78-1.86-.66-5.97-.56-7.33.19-18.52.49-23.9.7-6.48.25-17.02-.43-19.42 1.13-1.74 1.14.13 8.81.2 13.22.03 2.16.09 5.47.13 8.4.06 3.41-.4 4.8.7 5.83 1.1 1.03 2.09.43 5.91.35l35.07-.74c4.96-.1 6.51-.02 7.96-.95 1.42-.91.94-1.62.73-4.63-.24-3.42-.51-7.67-.58-10.23-.06-2.24.0-5.62.06-8.41.07-2.7.25-3.33-.89-4.11h0z" fill="#4f9f92" fill-rule="evenodd"/><path d="M509.89 533.31c-1.14-.77-1.87-.66-5.97-.56-7.34.19-18.52.49-23.9.7-6.48.25-17.03-.43-19.42 1.14-1.74 1.13.13 8.81.2 13.22.03 2.15.09 5.46.14 8.4.06 3.41-.4 4.8.69 5.83 1.1 1.03 2.09.43 5.91.35l35.08-.74c4.96-.1 6.51-.02 7.96-.95 1.42-.91.93-1.62.72-4.63-.24-3.42-.51-7.67-.58-10.22-.06-2.24.0-5.62.07-8.41.06-2.7.25-3.33-.89-4.11h0z" fill="#4f9f92" fill-rule="evenodd"/><path d="M590.89 530.93c-1.14-.78-1.87-.66-5.97-.56-7.34.18-18.52.48-23.9.69-6.48.26-17.03-.42-19.42 1.14-1.74 1.13.13 8.82.19 13.22.03 2.15.09 5.47.14 8.4.06 3.41-.4 4.79.69 5.82 1.1 1.03 2.09.43 5.91.35l35.07-.73c4.96-.1 6.51-.02 7.96-.95 1.42-.92.93-1.62.72-4.64-.24-3.42-.51-7.66-.58-10.22-.06-2.24.0-5.62.07-8.41.06-2.7.25-3.33-.89-4.11h0z" fill="#4f9f92" fill-rule="evenodd"/><path d="M673.43 528.48c-1.14-.78-1.87-.66-5.97-.56-7.34.19-18.52.48-23.9.69-6.48.26-17.02-.42-19.42 1.14-1.74 1.14.13 8.82.2 13.22.04 2.15.09 5.47.14 8.4.05 3.41-.41 4.8.69 5.83 1.1 1.03 2.09.42 5.91.34l35.08-.73c4.95-.1 6.51-.02 7.96-.95 1.42-.91.93-1.62.72-4.64-.24-3.42-.51-7.66-.58-10.22-.06-2.24.0-5.62.06-8.41.07-2.7.25-3.33-.88-4.11h0z" fill="#4f9f92" fill-rule="evenodd"/><path d="M478.86 381.62c-25.08 2.19-36.7 26.63-27.35 47.13 4.09 8.98 16.63 15.95 26.18 17.38 13.85 2.09 30.25-3.05 36.99-17.81 2.73-5.98 4.31-16.53.57-26.54-4.51-12.08-16.22-21.93-36.39-20.16h0z" fill="#4f9f92" fill-rule="evenodd"/><path d="M348.55 674.5c-2.2-24.01-.92-48.26-2.64-72.31-1.36-18.99-3.57-72.48-1.36-74.39 4.45-3.83 89.26-4.66 90.79-2.98 1.88 2.05 2.03 33.69 2.47 66.49.54 40.37 1.11 83.18 1.11 83.18.0.0-69.63 2.17-90.38.0h0z" fill="#be704b" fill-rule="evenodd"/><path d="M451.88 426.1 499.95 386.82 505.95 391.9 456.52 430.31 451.88 426.1v0z" fill="#417e74" fill-rule="evenodd"/><path d="M459.34 432.97 507.67 394.35 508.52 396.78 460.72 435.01 459.34 432.97v0z" fill="#417e74" fill-rule="evenodd"/><path d="M483.45 442.32l29.81-25.96s.68 11.53-9.51 20.73c-8.91 8.05-20.3 5.22-20.3 5.22h0z" fill="#417e74" fill-rule="evenodd"/><path d="M433.7 489.22 433.17 472.82 452.36 471.92 433.7 489.22v0z" fill="#417e74" fill-rule="evenodd"/><path d="M435.04 496.64 459.79 471.72 463.96 472.08 439.18 496.72 435.04 496.64v0z" fill="#417e74" fill-rule="evenodd"/><path d="M510.95 489.17 510.24 471.17 530.38 470.27 510.95 489.17v0z" fill="#417e74" fill-rule="evenodd"/><path d="M524.26 493.79 547.03 469.66 553.28 469.24 530.82 493.46 524.26 493.79v0z" fill="#417e74" fill-rule="evenodd"/><path d="M595.45 476.28c-.38-.76-.2-6.94-.2-6.94l7.88-.68s-7.29 8.38-7.68 7.62h0z" fill="#417e74" fill-rule="evenodd"/><path d="M595.37 486.89c.41-.89 12.93-18.27 12.93-18.27l6.66-.42s-19.47 24.83-19.64 25.02c-.17.19-.36-5.44.05-6.33h0z" fill="#417e74" fill-rule="evenodd"/><path d="M623.36 492.52 639.67 467.66 642.26 468.51 628.38 492.8 623.36 492.52v0z" fill="#417e74" fill-rule="evenodd"/><path d="M355.95 487.78 355.49 476.05 366.54 475.16 355.95 487.78v0z" fill="#417e74" fill-rule="evenodd"/><path d="M355.67 493.46 370.08 474.54 374.28 474.83 355.84 497.49 355.67 493.46v0z" fill="#417e74" fill-rule="evenodd"/><path d="M366.49 500.01 384.54 474.71 388.28 474.52 369.79 499.74 366.49 500.01v0z" fill="#417e74" fill-rule="evenodd"/><path d="M463.22 558.99 462.75 536.79 488.87 535.04 463.22 558.99v0z" fill="#417e74" fill-rule="evenodd"/><path d="M473.07 560.17 497.66 534.78 503.04 534.86 480.04 559.87 473.07 560.17v0z" fill="#417e74" fill-rule="evenodd"/><path d="M545.26 558.23 563.01 532.25 573.2 531.9 556.43 557.81 545.26 558.23v0z" fill="#417e74" fill-rule="evenodd"/><path d="M627.34 554.79 643.87 530.09 652.39 529.79 635.37 554.8 627.34 554.79v0z" fill="#417e74" fill-rule="evenodd"/><path d="M625.92 552.66 640.14 530.13 636.67 530.46 625.43 549.45 625.92 552.66v0z" fill="#417e74" fill-rule="evenodd"/><path d="M665.18 554.49 672.8 543.49 672.71 554.19 665.18 554.49v0z" fill="#417e74" fill-rule="evenodd"/><path d="M12.29 624.05c68.57 9.21 261.09 39.07 263.84 46.31 1.31 3.46-7.27 40.49-7.27 40.49l19.46 34.05-10.52 33.28s5.31 80.27 7.01 81.63c1.36 1.08 1.92-81.46 1.92-81.46l16.01-34.41-2.25-30.99s21.63-35.6 24.66-42.09c1.52-3.24 120.25-3.1 252.99-10.11 116.65-6.16 314.68-28.87 314.68-28.87l16.66 31.91-3.05 11.98 10.51 28.17-1.54 49.82 22.83 47.17-20.94-47.47 3.75-49.62-8.26-27.41c1.36-4.15 5.21-8.57 5.36-12.8.26-7.22.44-24.99.08-37.31.0.0 109.77-7.34 121.97-2.12 12.02 5.13 21.3 17.63 28.26 33.67 16.93 39.03-10.47 80.2-14.88 106.62-4.87 29.18-6.84 98.78-66.78 151.57-51.58 45.44-151.97 26.08-171.79 34.39-21.62 9.07-22.8 95.38-115.77 116.88-66.12 15.29-94.93-17.19-145.93-23.04-36.29-4.16-68.74 3.98-118.28 9.77-49.22 5.74-103.64-5.13-146.79-28.35-38.66-20.8-48.07-71.99-82.71-97.58-48.17-35.58-124.55-25.11-164.74-71.94-28.89-33.66-11.43-78.1-17.71-116.36-3.97-24.19-16.76-39.27-21.96-63.46-5.37-24.99 10.18-27.68 11.17-52.3h0z" fill="#9f7043" fill-rule="evenodd"/><path d="M836 956.85c-21.15.02-31.32 16.72-34.61 35.86-2.19 12.78-4.75 27.38 13.05 26.89 20.04-.55 56.06-16.86 65.71-35.48 11.05-21.3-20.72-27.3-44.15-27.27h0z" fill="#9f7043" fill-rule="evenodd"/><path d="M14.4 678.28l33.6-4.61 186.32 33.04 34.85 32.35 19.31 6.02-19.49-34.44s4.84-21.57 6.05-28.35c2.1-11.75.8-12.39.8-12.39.0.0-6.33-3.27-16.46-5.58-19.43-4.43-51.54-9.81-70.77-13.41-44.56-8.32-177.99-27.04-177.99-27.04l-8.61 31.62 12.38 22.8h0z" fill="#c2925e" fill-rule="evenodd"/><path d="M303.05 744 317.71 711.04 428.47 722.84 505.25 714.73 573.31 714.62 617.83 719.92 653.69 693.44 700.65 702.4 747.05 694.5 784.68 675.95 816.99 690.09 865.61 684.54 896.06 673.87 906.96 676.48 910.13 664.02 892.96 631.84 333.33 669.73 325.21 670.65 300.25 713.13 303.05 744v0z" fill="#c2925e" fill-rule="evenodd"/><path d="M822.54 653.74c-4.41.07-18.81.65-21.33 5.77-1.06 2.15 9.35 5.45 10.41 5.63 9.62 1.62 25.26.03 34.39-4.3 4.89-2.32-4.49-5.88-6.77-6.46-7.41-1.9-17.01-.8-24.17 1.5l7.46-2.14z" fill="#a46a48" fill-rule="evenodd"/><path d="M745.71 657.28c-10.01.0-22.94.92-32.07 5.24-4.76 2.26-12.83 7.64-4.94 11.99 1.09.59 2.32.99 3.51 1.36 1.88.58 3.87.87 5.84.96 9.7.5 20.5-3.53 29.68-6.33 3.57-1.08 7.55-1.33 10.67-3.56 2.82-2.02 1.59-4.9-.91-6.57-3.78-2.51-8.41-3.58-12.88-3.07l1.11-.03z" fill="#a46a48" fill-rule="evenodd"/><path d="M653 667.41c-1.73.55 3.23 3.39 3.71 3.56 4.73 1.67 10.67 1.4 15.47.12 1.26-.34 3.85-.82 3.98-2.53.14-1.85-2.44-3.54-3.77-4.32-4.39-2.55-10.48-2.94-15.22-1.15-3 1.13-8.39 1.36-4.16 4.33h0z" fill="#a46a48" fill-rule="evenodd"/><path d="M382.85 685.6c-11.22.53-19.07.16-29.25 6.18-1.43.84-2.64 1.94-3.75 3.17-10 11.17 7.54 15.66 16.37 15.34 4.99-.17 9.99-.62 14.97-.91 6.51-.38 22.5-3.2 26.09-10.36 1.51-3.02-.71-5.66-2.92-7.67-5.45-4.95-14.74-7.2-21.51-5.75h0z" fill="#a46a48" fill-rule="evenodd"/><path d="M443.81 677.67c-3.48.9-17.25 1.17-7.82 7.41 4.85 3.21 12.17 3.13 17.76 2.83 5.53-.29 11.64-3.79 3.87-8.4-3.71-2.19-10.21-2.77-13.82-1.84h0z" fill="#a46a48" fill-rule="evenodd"/><path d="M578.82 671.85c-5.14-.03-10.78.32-15.56 2.59-10.06 4.77-1.64 8.47 5.94 8.42 4.61-.03 9.26.1 13.21-2.57 5.43-3.67 3.14-8.62-3.58-8.44h0z" fill="#a46a48" fill-rule="evenodd"/><path d="M491.17 681.68c-2.24 9.34 17.15 16.49 23.83 16.93 2.22.15 9.32.2 9.99-3.09 2.02-10.07-17.94-16.88-25.22-17.13-3.74-.13-7.88.3-8.6 3.28h0z" fill="#a46a48" fill-rule="evenodd"/><path d="M912.63 675.88l32.58-15.48 22.26 1.04 25.71 6.4 20.28-14.69 29.92 2.34 25.5 6.18s-6.53-15.46-13.56-24.58c-3.78-4.9-14.68-14.73-15.4-14.26.0.0-47.35-.49-67.65.07-18.08.5-54.17 3.3-54.17 3.3l.57 32.44-6.04 17.25h0z" fill="#c2925e" fill-rule="evenodd"/><path d="M59.68 662.79c9.98 3 19.39 4.13 29.91 2.99 15.29-1.66 7.14-10.37-4.47-13.94-12.85-3.96-50.45 1.4-25.44 10.95h0z" fill="#a46a48" fill-rule="evenodd"/><path d="M146.76 651.68c-4.69-1.05-10.18-2.17-15.69-1.54-4.54.51-7.56 1.93-4.73 4.14.92.73 2.27 1.39 3.47 1.99 1.35.67 2.86 1.22 4.6 1.62 3.76.87 9.31 1.29 13.48.18 6.09-1.62 3.87-5-1.13-6.39h0z" fill="#a46a48" fill-rule="evenodd"/><path d="M205.17 672.18c-11.08-1.83-18.68-3.84-29.9-.08-1.57.53-2.99 1.35-4.32 2.32-12.12 8.83 4.09 16.89 12.79 18.43 4.91.87 9.89 1.47 14.83 2.23 6.44.99 22.67 1.58 27.68-4.67 2.11-2.64.5-5.68-1.25-8.12-4.3-5.99-12.91-10.13-19.83-10.12h0z" fill="#a46a48" fill-rule="evenodd"/><path d="M936.48 642.26c2.44 1.55 16.46 2.38 21.49-.83 1.18-.76 6.07-3.05 5.09-6.43-1.2-4.13-6.2-4.34-8.49-4.2-6.48.39-19.51.98-19.95 9.43-.06 1.08 1.76 1.96 1.87 2.03h0z" fill="#a46a48" fill-rule="evenodd"/><path d="M1024.2 630.83c-1.85.0-3.71-.1-5.55.18-3.16.49-10.32 3.09-5.32 8.48.58.62 1.22 1.14 1.89 1.55 4.91 3.05 11.34 3.15 16.6 2.78 3.23-.23 10.25-2.05 5.5-8.44-.55-.74-1.2-1.42-1.85-1.96-3.69-3.08-8.82-2.71-12.89-2.32l1.63-.26z" fill="#a46a48" fill-rule="evenodd"/><path d="M986.11 654.41c.54 1.39 2.69 2.6 4.51 2.08 3.4-.96 6.07-3.67 8.23-7.6.75-1.36 1.95-3.4 1.2-5.25-2.79-6.86-10.63.17-12.66 4.48-.61 1.3-1.82 4.89-1.28 6.28h0z" fill="#a46a48" fill-rule="evenodd"/><path d="M211.85 990.52c7.6-23.35-5.36-40.75-20.28-53.03-9.25-7.61-23.04-12.67-34.58-15.14-13.95-2.99-46.33-8.64-48.83 12.22-1.22 10.16 6.99 18.09 13.68 24.31 16.47 15.31 35.78 25.11 56.8 32.4 9.22 3.2 26.17 11.39 33.2-.77h0z" fill="#9f7043" fill-rule="evenodd"/></g></g></svg>