<svg id="_лой_2" xmlns="http://www.w3.org/2000/svg" width="1080" height="473.21" viewBox="0 0 1080 473.21"><g id="Lightning06_89354342"><g id="Lightning06_89354342-2"><path d="M1079.98 6.77l.02 1.83c-.03.91-.18 2.16-.35 3.22-.21.99-.5 1.86-.77 2.78-.35.86-.72 1.73-1.13 2.54-1.73 3.21-3.94 5.51-5.9 7.41-1.97 1.88-3.8 3.44-5.19 4.87-.72.71-1.28 1.38-1.72 1.99-.27.33-.38.6-.57.88l-.06.11-.03.05c-.15.32.18-.38.12-.27l-.19.42-.37.85c-.33.69-.23.75-.38 1.09-.1.2-.19.71-.28 1.12-.19.87-.34 1.81-.43 2.84-.2 2.05-.21 4.33-.25 6.84-.05 2.51-.11 5.26-.57 8.25-.46 2.98-1.43 6.3-3.28 9.31l-.08.14c.05-.07-.81 1.16-.48.68l-.14.18-.29.36-.57.72c-.7.78-1.74 1.73-2.65 2.45-.68.45-1.41.96-2.06 1.36l-1.75 1c-1 .56-1.82 1.05-2.14 1.35-.15.13-.37.27-.31.3-.02.02-.05.03-.08.03-.08.12.63-1.24.3-.61l-.04.11-.1.21-.18.42-.37.84c-.04.13-.16.34-.14.38l.04.11c.04.17.02.14-.05.43l-.11 1.35c-.05.45-.05 1.08-.06 1.61-.13 2.34.08 5.13-.91 8.93-.33.97-.77 1.99-1.21 2.95l-.18.37c.18-.27-.35.58-.31.52l-.06.1-.26.38-.52.76-.52.76c-.12.21-.59.73-.87 1.08-.68.75-1.33 1.55-2.1 2.18-.77.61-1.55 1.23-2.4 1.77-.93.48-1.88.96-2.85 1.33-1.01.28-2.07.57-3.1.7-.99.06-2.04.15-2.97.09-3.82-.26-6.73-1.45-9.26-2.55-2.52-1.13-4.71-2.3-6.77-3.27-1.03-.51-1.99-.93-2.91-1.29l-.67-.24-.33-.13c-.26-.08.26.08.16.05l-.11-.04-.22-.06-1.76-.5-3.55-1c-1.19-.36-2.37-.67-3.39-.81-2.17-.33-4.23-.9-6.47-1.08-2.23-.13-4.46-.52-6.7-.46-8.94-.18-17.81 1.66-26.29 5.06-2.13.94-4.15 1.75-6.38 2.78l-6.63 3.18-13.26 6.35-3.17 1.52-3.28 1.65c-1.21.56-1.97 1.09-2.8 1.59l-1.27.77-1.01.84c-.33.28-.73.53-1.01.82-.23.31-.48.61-.73.9-.58.48-.86 1.41-1.33 2.09-.44.79-.79 1.88-1.21 2.81l-1.15 3.31c-.83 2.31-1.53 4.59-2.5 7.12-.79 2.17-1.97 4.9-3.1 7.2-2.27 4.72-4.95 9.27-8.15 13.53-3.21 4.25-6.95 8.25-11.51 11.57-4.52 3.32-10.03 5.92-16.1 6.61-1.5.11-3.03.12-4.55.15-1.49-.15-3-.35-4.48-.55-1.37-.29-2.37-.48-3.74-.82-1.31-.3-2.63-.64-4-1.09-2.69-.87-5.66-2.13-8.18-4.14-1.33-.91-2.36-2.09-3.46-3.18l-1.4-1.75-.35-.44-.17-.21-.09-.11c-.12-.17.12.21-.28-.4l-.48-.78c-.13-.19-.36-.64-.59-1.09l-.62-1.31c-.26-.68-.56-1.42-.77-2.07-.44-1.34-.81-2.62-1.14-3.84-.66-2.45-1.23-4.75-1.9-6.79-.65-1.99-1.51-3.85-2.18-4.5-.15-.13-.28-.31-.36-.31l-.05-.06h-.02c-.05-.04.52.22.23.09l-.2-.1-.85-.37c.02.07.12.07.2.05.19.05.58-.1.74-.17.34-.29-.36.34-1.66 1.59-.68.6-1.63 1.34-2.88 1.89-1.23.59-2.71.85-3.94.83h-.49c.19.03-.54-.03-.5-.03h-.12l-.46-.07c-.33-.05-.53-.05-.98-.14-1.01-.2-2.12-.46-2.89-.79-1.71-.61-3.21-1.54-4.5-2.5-2.58-1.96-4.29-4-5.89-5.59-1.53-1.56-2.99-2.77-4.16-3.2l-1.69-.71-.84-.34-.58-.09c-.78-.11-1.42-.41-2.49-.43-.98-.1-1.96-.21-3.04-.13l-1.58.03-1.66.17c-2.22.19-4.6.59-7.1.93-1.21.18-2.54.31-3.83.46l-.97.11-1.02.07-1.83.11c-4.85.36-9.87.51-14.63.87-2.31.25-4.7.36-6.95.73l-6.55 1.27c-2.52.7-4.37 1.29-6.04 2.12l-1.01.59c-.16.19-.52.36-.59.52-.31.26-.34.5-.55 1.08-.33 1.32-.36 3.95-.6 6.58-.23 2.67-.72 5.42-1.42 8.07l-1.09 4.15-4.86-.76c-.36-.06-.72-.13-1.08-.24-.25.05-.57-.03-.75.0-.37.05-.52.13-.85.34-.68.55-1.72 2.29-2.63 4.47-1.01 2.19-1.84 4.73-4.05 7.61-.55.7-1.34 1.51-1.7 1.83-.49.45-.81.8-1.44 1.33-1.21 1.03-2.3 2.01-4.14 2.92-.8.44-2.05.85-3.32 1-1.35.16-2.78-.08-3.84-.46-2.16-.82-3.21-1.71-4.21-2.3-1.95-1.3-3.58-2.1-5.55-2.73l-.73-.19-.37-.11-.18-.05c.24.02-.83-.15.51.05l-1.85.05-3.09.29-3.57.31-3.9.3c-.41.0-.52.06-1.17.05l-.92-.03-1.85-.03-3.9-.2-3.46-.11c-.93.08-2.16.05-2.88.19l-3.63.68c-.81.35-1.7.52-2.48.89-1.59.75-2.86 1.8-4.36 3.47-1.52 1.73-3.2 3.74-5.02 5.66l-1.42 1.4-.7.7-.36.36-.18.18c.19-.17-.46.42-.46.4-1 .76-1.9 1.51-2.99 2.29-1.32.78-2.74 1.66-4.03 2.27-1.22.53-2.5 1.13-3.68 1.58-2.38.93-4.69 1.74-6.65 2.69-.99.46-2 .91-2.78 1.48l-1.28.82c-.37.3-.69.66-1.05.97l-1.07.96-.94 1.23c-.14.31-.32.52-.5.91-.16.41-.39.76-.51 1.22-1.3 3.43-.76 8.32-1.67 14.04-.22 1.42-.62 2.91-1.17 4.36-.26.73-.64 1.44-.97 2.15.07-.1-.23.45-.25.45l-.12.19-.24.4-.5.78c-.24.46-.85 1.22-1.37 1.87-.53.7-1.1 1.32-1.73 1.83-.59.56-1.21 1.1-1.94 1.54-.69.48-1.4.93-2.2 1.24-3.11 1.42-6.53 1.64-9.49 1.24-2.98-.39-5.67-1.29-8.18-2.33-9.91-4.38-17.73-10.78-25.76-16.42-1.99-1.41-3.98-2.79-5.95-4.04-1.96-1.23-4.04-2.38-5.63-2.8l-.27-.08-.14-.05c-.11-.03.52.07.14.0l-.93-.08c-.57-.05-1.35-.19-1.66-.08-.41.04-.8.07-1.21.08l-1.52.27c-2.05.42-4.18 1.13-6.21 2.08-4.06 1.72-7.66 4.86-12.43 7.49-2.31 1.33-4.84 2.54-7.63 3.33-1.36.44-2.78.57-4.15.85-1.37.16-2.68.21-4.03.32-2.59.04-5.15.06-7.62.0l-1.87-.03h-.93c.05.0-.47.0.07-.03l-.24.02-.45.03-3.71.24c-1.13.15-1.85.5-2.81.68-.91.17-1.84.81-2.77 1.17-.93.44-1.84 1.17-2.76 1.72l-2.88 2.18c-1.07.76-2.08 1.56-3.18 2.3-1.18.71-2.35 1.45-3.56 2.12l-3.83 1.64-.48.21-.69.19-.9.23c-.31.08-.56.16-.93.22l-1.18.17c-3.17.42-5.69.21-8.18.08-2.43-.14-4.75-.19-6.57.11-1.56.32-3.84 1.49-6.25 2.5-1.24.52-2.56 1.02-4.11 1.37-1.52.34-3.35.5-5.24.0l-.7-.21-.35-.12s-1-.48-.68-.34l-.39-.24c-.13-.07-.51-.38-.74-.58-.26-.23-.53-.49-.74-.72l-.39-.49c-.28-.34-.52-.67-.7-.97-.84-1.25-1.44-2.41-2.05-3.57l-3.27-6.65c-.53-1.06-1.1-2.05-1.66-2.9-.62-1-.85-1.09-1.99-2.08-1.88-1.79-3.74-2.83-5.58-4.14-1.97-1.23-4.1-2.47-6.18-3.65-2.16-1.09-4.27-2.29-6.47-3.29-2.21-.97-4.37-2.11-6.62-2.91-2.23-.91-4.47-1.78-6.71-2.38-1.12-.33-2.27-.76-3.31-.85l-1.59-.27-.8-.14-.2-.04c-.13-.03.45.0.1.0l-.46.02c-.6.04-1.3.03-1.82.1-.33.13-.66.23-1.01.29l-1.28.56c-.44.22-.93.53-1.38.8-1.87 1.14-4.43 3.29-8.35 3.4l-1.88-.03c-.79-.08-1.58-.18-2.37-.29-1.44-.31-2.81-.73-4.11-1.26-5.18-2.21-9.04-5.55-13.06-7.67-1.97-1.08-4.05-1.85-5.95-2.13-2.58-.35-4.57-.44-7.06-.43-1.25-.03-2.5.11-4.34-.25-.95-.2-1.95-.65-2.77-1.27-.36-.32-.75-.64-1.07-.98l-.77-.98c-1.73-2.59-2.56-4.87-3.57-7.22-3.86-9.25-6.69-18.81-12.42-26.06l-1.08-1.33-.28-.33c-.14-.15.05.02-.04-.06l-.17-.16-.67-.65-.67-.65-.6-.46c-.41-.3-.76-.63-1.25-.93-1.83-1.27-3.93-2.29-6.14-3.25-4.37-1.97-9.34-3.46-13.83-6.9-2.23-1.74-4.12-3.97-5.36-6.74-.44-.93-1.04-2.78-1.17-4.21-.19-1.47-.16-2.95.05-4.33.8-5.57 3.46-10.03 3.89-14.26.21-2.14-.09-3.81-1.2-5.84-.84-1.53-2.48-3.1-4.32-4.18-3.79-2.26-8.56-3.26-13.33-4.1l-7.34-1.24c-2.49-.48-4.75-.68-7.48-1.29-.69-.2-1.4-.47-2.1-.71-.7-.24-1.33-.75-1.99-1.13-.69-.38-1.15-.93-1.68-1.41-.49-.52-1.07-1.01-1.42-1.57-1.69-2.15-2.93-4.29-4.26-6.55-1.18-2.12-2.36-4.47-3.46-6.59-1.14-2.14-2.21-3.82-4.04-5.09-1.73-1.34-3.89-2.43-6.06-3.49-2.18-1.05-4.42-2.05-6.64-2.88-4.46-1.66-9.12-2.76-13.47-1.88-4.31.78-8.23 3.73-11.04 7.27-1.33 1.71-2.31 3.88-3.48 6.16-.6 1.16-1.33 2.35-2.24 3.46-.92 1.1-2.08 2.03-3.3 2.77-2.42 1.45-5.26 2.03-7.59 2.48-2.44.5-4.91.92-7.22 1.47-2.32.55-4.47 1.28-6.12 2.56-1.64 1.3-2.82 3.23-3.75 5.35-1.82 4.29-2.77 9.17-3.84 14-1.1 4.83-2.18 9.97-5.33 14.46-1.62 2.21-3.89 3.98-6.44 5.04-2.55 1.07-5.26 1.29-7.85 1.32-1.32.02-2.59-.18-3.88-.26-1.53-.21-2.5-.53-3.78-.79-2.65-.97-5.02-2.21-7.04-3.76-4.12-3.01-7.63-6.49-11.85-8.45-4.54-2.3-8.71-3.38-13.31-1.46-2.29.78-4.65 1.64-7.12 2.36l-7.2 1.86c-4.8 1.22-9.57 2.44-13.55 4.94-3.66 2.62-6.29 7.17-10.52 10.34-4.47 3.02-9.92 3.64-14.91 3.49-5.07-.14-10-1.04-14.89-1.97-4.88-.91-9.67-2.03-14.58-2.28-2.44-.14-4.8-.06-7.2.23-2.32.49-4.68 1.03-6.69 2.29-4.15 2.33-7.05 6.41-9.67 10.55-2.63 4.16-5.14 8.48-8.04 12.55l.06-.13-.42.97c-.16.37-.58.54-.94.37-.37-.15-.53-.58-.37-.94l.41-.97.03-.07.05-.07c2.84-4.02 5.27-8.31 7.9-12.54 2.61-4.19 5.59-8.56 10.14-11.19 2.22-1.41 4.78-2.03 7.28-2.56 2.51-.35 5.11-.44 7.62-.31 5.02.21 9.95 1.31 14.81 2.17 4.86.88 9.71 1.72 14.57 1.81 4.81.1 9.74-.58 13.55-3.2 3.74-2.78 6.18-7.24 10.55-10.52 4.41-2.8 9.44-4.09 14.18-5.35l7.18-1.91c2.29-.69 4.56-1.55 6.95-2.38 1.17-.45 2.49-.75 3.79-1.04 1.37-.11 2.76-.26 4.09.0 1.38.08 2.62.61 3.91.98 1.27.43 2.3 1 3.47 1.48 4.85 2.23 8.5 5.87 12.4 8.63 1.93 1.47 4.02 2.45 6.02 3.24l1.81.39.91.2.44.11c-.11-.03.23.0.32.0 1.18.06 2.37.24 3.54.21 2.32-.06 4.66-.27 6.69-1.16 2.03-.87 3.76-2.23 5.08-4.04 2.58-3.72 3.66-8.54 4.69-13.32 1.02-4.83 1.9-9.76 3.91-14.65 1.02-2.39 2.44-4.86 4.69-6.7 2.28-1.8 4.96-2.67 7.43-3.28 2.5-.6 4.93-1.04 7.33-1.55 2.51-.51 4.61-1.01 6.47-2.12 1.8-1.08 3.06-2.69 4.11-4.8 1.08-2.11 2.09-4.54 3.79-6.77 1.59-2.13 3.61-3.96 5.76-5.52 2.21-1.55 4.78-2.69 7.47-3.25 5.47-1.11 10.86.22 15.63 1.94 2.41.89 4.72 1.89 7 2.96 2.29 1.1 4.62 2.23 6.82 3.9 2.31 1.54 4.06 4.14 5.21 6.37 1.2 2.26 2.25 4.33 3.5 6.54 1.2 2 2.47 4.14 3.87 5.86 1.46 1.71 2.85 2.86 4.89 3.3l14.51 2.34c4.94.85 10.12 1.77 14.95 4.55 2.4 1.43 4.59 3.26 6.17 6.07.46.74.67 1.32.89 1.88l.33.86c.15.47.08.29.13.46l.06.28.12.55c.35 1.48.33 2.99.2 4.42-.68 5.68-3.3 10.07-3.77 14.39-.16 1.07-.15 2.09.0 3.08.14 1.02.25 1.59.85 2.9.81 1.73 2.18 3.43 3.88 4.71 3.43 2.64 8.13 4.13 12.79 6.14 2.34.99 4.74 2.12 7.01 3.65 1.07.72 2.5 1.81 3.25 2.6l.68.65.17.16s.3.31.27.28l.32.39 1.28 1.53c6.69 8.41 9.56 18.34 13.41 27.23.93 2.2 1.94 4.56 3.02 6.08.6.8.76.86 1.26 1 .6.13 1.85.1 3.07.09 2.47-.07 5.44.08 7.77.39 3.01.41 5.64 1.44 8.02 2.7 4.74 2.54 8.56 5.71 12.59 7.31 1 .39 1.99.68 2.99.9.44.05.88.1 1.32.18l1.84.02c.11-.06.66-.17.98-.2l1.17-.48 1.34-.82 1.56-1.02c.61-.36 1.17-.74 1.82-1.07.7-.33 1.36-.66 2.13-.95.85-.23 1.72-.45 2.6-.62.7-.08 1.25-.07 1.9-.12l.46-.02c-.19.0.53-.02.55.0l.26.04 1.04.16 2.06.33c1.43.17 2.64.6 3.9.95 2.54.68 4.94 1.59 7.3 2.52 2.44.85 4.68 2 7.02 3.01 2.31 1.03 4.53 2.26 6.81 3.39 2.24 1.25 4.41 2.48 6.64 3.86 2.22 1.51 4.65 3.02 6.38 4.66l.71.6.35.3.18.16c-.11-.11.34.29.37.34.59.65 1.09 1.28 1.49 1.88.8 1.21 1.47 2.38 2.06 3.52l3.35 6.65c.55 1.05 1.11 2.08 1.66 2.87.14.23.27.4.4.54l.18.23s-.04-.05-.07-.07c0 0-.19-.05-.04.04l.39.24c.45.23-.38-.18-.27-.13l.1.02.19.06c1.01.31 2.95-.18 5.03-1.1 2.16-.89 4.25-2.18 7.55-2.97 3.05-.53 5.73-.4 8.24-.3 2.46.14 4.91.2 6.67-.05l.65-.06c.24-.04.58-.14.88-.22l.89-.24.22-.05s.39-.11-.02.0l.37-.17 2.99-1.3 2.83-1.72c.93-.64 1.87-1.39 2.81-2.07l3.03-2.33c1.17-.75 2.22-1.59 3.52-2.24 1.34-.59 2.53-1.37 4.04-1.75 1.45-.36 3.09-.85 4.42-1.01l3.7-.27.46-.03.23-.02h3.32c2.48.04 4.87.0 7.25-.06 4.75-.12 8.41-1.25 12.41-3.63 3.92-2.13 7.89-5.65 12.97-7.91 2.45-1.17 5.03-2.09 7.83-2.69l2.13-.39c.83-.07 1.66-.13 2.5-.15.93-.07 1.38.05 2.04.09l.93.08c-.23-.03.56.07.6.09l.32.07.61.17c3.19.91 5.43 2.29 7.71 3.64 2.23 1.38 4.32 2.81 6.38 4.25 8.16 5.69 16.02 11.79 24.37 15.34 4.11 1.72 8.36 2.46 11.12 1.09.37-.12.69-.37 1.02-.59.35-.18.65-.48.95-.77.34-.28.61-.57.82-.88.25-.31.48-.47.83-1.11l.82-1.34c.17-.42.39-.8.54-1.25.3-.86.56-1.78.71-2.8.76-4.04-.06-9.34 1.88-15.4.21-.75.59-1.49.91-2.21.34-.74.87-1.57 1.34-2.32.22-.31.38-.51.58-.76l.74-.94 1.66-1.58c.56-.52 1.1-1.06 1.68-1.53l1.85-1.22c1.23-.87 2.48-1.46 3.73-2.05 2.49-1.21 4.87-2.06 7.09-2.95 1.14-.45 2.09-.93 3.14-1.38l2.47-1.33c.93-.67 1.93-1.51 2.89-2.26.12-.1-.43.36-.11.09l.14-.15.3-.3.6-.61 1.21-1.23c1.58-1.68 3.06-3.49 4.78-5.51 1.78-2.04 4.28-4.32 7.22-5.67 1.44-.69 3-1.09 4.5-1.58l3.67-.72c1.71-.32 3-.27 4.52-.39l3.98.08 3.52.17 1.87.03h.92l.68-.05 7.35-.67c1.43-.11 2.99-.24 4.33-.3l1.85-.07c1.49.23.56.11.96.17l.27.08.52.13 1.06.3c2.77.82 5.62 2.26 7.79 3.7 1.09.71 2.08 1.31 2.27 1.33.1.03-.07-.03-.19-.02-.06-.03-.08.05.19-.11.42-.19 1.24-.84 1.89-1.41.71-.67 1.97-1.84 2.1-2.11.85-1.04 1.75-3.24 2.74-5.56 1.07-2.31 2.14-5.24 5.21-8 1.6-1.34 3.78-2.32 5.89-2.54 1.04-.13 1.97-.04 2.95.0.86.15 1.73.32 2.57.51l-5.95 3.37c.52-2.08.89-4.17 1.06-6.38.24-2.25.06-4.55.77-8.05.44-1.75 1.33-3.89 2.78-5.35.68-.83 1.41-1.3 2.16-1.93.71-.48 1.42-.88 2.13-1.31 2.72-1.39 5.57-2.24 7.77-2.88 2.76-.64 5.23-1.08 7.85-1.63 2.58-.44 5.1-.58 7.65-.88 5.02-.43 9.79-.59 14.71-.99l1.83-.12.82-.07.85-.1c1.15-.15 2.25-.26 3.46-.45 2.36-.33 4.82-.77 7.48-1.03l1.97-.21 2.1-.07c1.37-.1 2.84.0 4.31.14 1.38.03 3.11.48 4.72.87l1.21.32.87.36 1.7.69c3.41 1.39 5.68 3.55 7.6 5.43 1.86 1.88 3.39 3.55 4.75 4.53.68.49 1.29.85 1.9 1.05.36.17.46.11.64.22.15.03.56.07.83.11l.46.04h.12c.12.03-.54-.03-.28-.02h-.03c-.1-.11-.81.36-.23-.07.53-.37 1.36-1.74 3.9-3.16 1.24-.68 2.88-1.01 4.29-1.01 1.31.04 2.6.34 3.79.79l.85.36.21.1c-.23-.11.42.19.43.2l.19.1.72.44c1.01.6 1.73 1.3 2.45 2.02 2.7 2.96 3.64 5.82 4.59 8.41.89 2.61 1.5 5.07 2.14 7.35.31 1.14.63 2.21.98 3.19.16.51.35.9.52 1.37l.16.34c.05.11.06.22.28.53l.49.78c-.37-.54-.07-.11-.14-.21l.06.07.11.13.24.28.89 1.11c.67.59 1.23 1.32 1.96 1.76 1.32 1.07 2.95 1.74 4.9 2.37.96.31 2.01.57 3.09.81 1.01.25 2.43.52 3.45.72l2.81.33 2.79-.13c7.48-.89 14.51-6.79 19.76-13.92 2.65-3.61 4.94-7.57 6.88-11.68 1-2.12 1.76-3.89 2.64-6.32.78-2.05 1.51-4.47 2.31-6.78l1.24-3.63c.55-1.33.96-2.58 1.66-3.95.82-1.4 1.4-2.84 2.57-4.11l1.62-1.94c.57-.59 1.19-1.05 1.79-1.56.6-.51 1.21-1.01 1.82-1.49l1.86-1.17c1.25-.77 2.55-1.58 3.57-2.07l3.27-1.67 3.43-1.69 13.21-6.47 6.6-3.23c2.21-1.06 4.71-2.12 7.06-3.17 9.67-3.98 20.33-6.33 31-6.2 2.67-.07 5.31.32 7.97.48 2.65.19 5.35.86 8.02 1.3 1.4.21 2.6.53 3.74.86l3.56.97 1.77.48.71.2.53.19 1.06.38c1.38.52 2.66 1.09 3.83 1.65 2.38 1.11 4.52 2.22 6.49 3.09 1.94.85 3.72 1.38 4.82 1.41 1.1.0 1.33-.06 2.18-.79.19-.13.27-.34.44-.46.11-.12.11.0.32-.33l.51-.76.51-.76.26-.39.05-.09c.08-.13-.41.65-.2.31v-.07c.02-.16.09-.26.19-.44.28-.96.32-3.13.37-5.67.02-.69.0-1.3.05-2.05l.2-2.32c.13-.93.41-2.13.7-3.17l.22-.79c.08-.26.12-.32.2-.49l.36-.84.18-.43.09-.2.05-.11c-.3.56.45-.88.43-.81.32-.49.67-.96 1.03-1.43.72-1.01 1.48-1.64 2.25-2.3 1.55-1.27 2.88-1.99 4-2.65l1.44-.85.99-.66c.02-.09-.07.09.11.02l.57-.73.27-.36.14-.19c.38-.53-.44.63-.34.5l.03-.06c1.47-2.29 1.82-6.11 1.82-10.91.12-4.79-.28-10.43 2.32-17.08l.37-.85.18-.42s.34-.72.22-.47l.08-.14.17-.29c.44-.77.88-1.6 1.38-2.24.97-1.39 2.02-2.59 3.02-3.61 2.02-2.09 3.93-3.72 5.47-5.24 1.56-1.5 2.7-2.87 3.27-4.01.13-.28.23-.55.36-.82.05-.26.15-.55.2-.75-.03-.17.04-.11.09-.44l-.03-1.83c-.08-3.77 2.91-6.89 6.69-6.97 3.77-.08 6.89 2.92 6.97 6.68v.09z" fill="#7474af"/><path d="M667.4 164.67s-.91.44-2.62 1.24c-1.72.77-4.17 2.03-7.46 3.42-3.27 1.31-7.52 2.8-12.57 2.65-2.53.0-5.14-.6-7.84-1.29-1.32-.37-2.7-.81-4.06-1.36-1.37-.54-2.78-1.26-3.97-2.41-1.22-1.17-1.78-2.82-2.21-4.3-.45-1.52-.9-3.02-1.52-4.5-1.22-2.9-2.86-5.96-5.01-8.47-1.07-1.3-2.41-2.39-3.97-2.82-1.56-.44-3.26.09-4.86.79-1.62.73-3.21 1.66-4.88 2.48-1.67.86-3.44 1.54-5.17 2.28-6.95 2.86-13.93 6.49-21.66 8.61-3.85 1.03-7.9 1.6-11.95 1.44-4.06-.14-8.07-1.1-11.87-2.45-3.85-1.3-7.43-3.28-10.92-5.21l-2.64-1.45c-.85-.52-1.67-1.11-2.51-1.66-1.64-1.15-3.41-2.13-4.86-3.51-6.33-4.91-10.92-11.39-16.05-16.84-2.59-2.71-5.54-5.01-8.81-6.47-3.25-1.59-6.86-1.92-10.27-1.75-6.88.74-12.27 5.05-17.82 7.36-5.57 2.48-11.28 2.95-16.16 2.71-4.92-.28-9.11-1.23-12.5-2.18-3.41-.91-6.05-1.77-7.84-2.32-1.8-.56-2.76-.86-2.76-.86-.05-.02-.06-.05-.05-.09.02-.05.05-.06.09-.05.0.0.96.3 2.77.85 1.8.54 4.44 1.41 7.84 2.29 3.39.92 7.59 1.85 12.48 2.11 4.84.22 10.5-.28 16.01-2.77 5.5-2.3 10.83-6.68 17.95-7.48 3.42-.19 7.15.13 10.47 1.74 3.36 1.49 6.38 3.82 9.01 6.55 5.2 5.49 9.79 11.89 16.07 16.71 1.44 1.36 3.18 2.31 4.81 3.45.83.53 1.64 1.1 2.49 1.63l2.63 1.43c3.52 1.93 7.03 3.85 10.84 5.11 3.76 1.3 7.68 2.23 11.65 2.35 3.97.13 7.91-.44 11.69-1.48 7.6-2.1 14.54-5.75 21.5-8.66 1.74-.76 3.47-1.42 5.1-2.28 1.64-.83 3.22-1.75 4.92-2.52 1.66-.75 3.61-1.4 5.55-.88 1.88.51 3.38 1.77 4.51 3.12 2.35 2.74 3.93 5.7 5.24 8.77.65 1.52 1.13 3.1 1.58 4.58.45 1.5.94 2.88 1.95 3.82.99.95 2.26 1.63 3.59 2.13 1.3.52 2.62.93 3.95 1.31 2.62.65 5.13 1.21 7.53 1.2 4.8.13 8.84-1.3 12.04-2.61 3.21-1.37 5.68-2.65 7.39-3.44 1.71-.8 2.61-1.23 2.61-1.23.34-.16.75-.02.91.33.16.34.02.75-.32.91h0z" fill="#7474af"/><path d="M556.39 199.03c-.11.02.07.39-1.77 2.12-.63.52-1.41 1.04-2.14 1.5-.75.48-1.54 1.02-1.86 1.44l-.08.08c-.05.05.3-.47.13-.22l-.02.04-.06.1-.24.41c-.15.27-.32.55-.49.84-.45.64-.45 1.03-.62 1.52-.17.38-.33 1.14-.48 1.86-.17.8-.35 1.63-.53 2.49-.37 1.72-.87 3.64-1.55 5.65-.35 1.01-.78 2.08-1.32 3.21-.38.61-.58 1.13-1.2 1.84l-.45.51-.24.24c-.16.13.19-.11-.38.31l-.08.05-.35.23c-.17.08-.13.11-.54.29-1.45.68-2.67.52-3.48.34-.81-.19-1.33-.38-1.6-.42-.15-.05-.26-.04-.3-.03l-.06-.02s.36-.06.14-.02l-.11.02-.44.09c-.19.03-.28.07-.27.09-.04.03-.06.03-.11.05-.09.02-.3.16-.45.23-.7.43-1.52 1.22-2.56 2.16l-.51.44-.38.3-.76.61c-.49.37-1.79 1.15-2.55 1.32l-1.28.33-1.02.19-.52.1-.26.04-.12.02s-.29.07.07-.02l-1.01.27-1.01.29-.73.34c-.48.21-.99.42-1.51.79-.53.31-1.06.64-1.51 1.07l-.71.6-.69.72c-.75.86-1.43 1.94-2.09 3.24-.65 1.29-1.25 2.78-2.14 4.38-.86 1.58-2.19 3.31-3.97 4.47-1.78 1.18-3.62 1.88-5.67 2.15l-1.27.2h-1.65c-1.19.03-2.05-.18-3.02-.32-.96-.14-1.77-.35-2.66-.53-.3.0-1.75-.23-2.28-.11-.83.05-1.66.11-2.51.16-.45.06-1.05.02-1.63-.03l-.87-.07-.44-.05s-.7-.17-.48-.12l-.17-.06c-.85-.3-1.7-.54-2.82-1.24-.82-.49-1.64-.98-2.46-1.47-1.11-.6-2.92-.97-3.99-.73-1.28.2-2.45.91-3.45 2.13l-.67.9-.76 1.26c-.5.84-1.06 1.72-1.41 2.53-.38.83-.85 1.64-1.19 2.5l-.96 2.61c-.4 1.79-.79 3.34-.68 5.44.04 3.6 1.32 8.22.03 13.08l-.23.9s-.2.55-.15.42l-.09.19-.16.36c-.25.51-.35.93-.82 1.56-.38.56-.8 1.25-1.19 1.68l-1.18 1.33c-1.57 1.61-2.97 3-3.69 4.53-.19.37-.41.75-.44 1.17l-.14.6-.08.3c-.02.34-.02-.3-.02-.15l.02.2c.04.52.0 1.21.12 1.57.16.3.2.54.35.91.71 1.68 2.15 3.52 3.23 5.82.29.54.55 1.15.73 1.8.19.66.47 1.26.49 1.98l.11 1.05.04.52v.27s0 .52.0.42c-.08.59-.11 1.09-.24 1.74-.18.69-.37 1.4-.59 2.08l-.76 1.76c-.57 1.11-1.15 2.23-1.85 3.23-2.71 4.13-6.16 7.59-10.03 10.64-1.95 1.53-4.07 2.86-6.41 3.97-1.15.56-2.41 1.01-3.77 1.31l-1.05.19-.27.05-.28.02-.45.04c-.6.05-1.17.11-1.89.09-1.38.02-2.79-.11-4.34-.73-1.58-.62-2.82-2.05-3.47-3.17-1.31-2.24-2.36-3.81-4.1-5.18l-.31-.25c.08.03-.19-.14-.27-.19l-.77-.51-1.52-1.01c-1.01-.75-2.04-1.21-3.05-1.73-1.96-1.16-4.25-1.86-6.45-2.7l-3.44-.83-.86-.21-.21-.05c.15.02-.1.0-.12-.02l-.46-.05-1.85-.21c-2.54-.44-4.77-.27-7.05-.21-4.64.47-8.95 2.43-12.19 5.88-6.54 6.95-9.73 17.05-15.75 25.59-3.01 4.3-6.55 8.29-11.06 11.35-2.3 1.46-5.16 2.64-8.2 2.37-3.05-.26-5.49-1.8-7.69-3.09-2.21-1.35-4.31-2.68-6.53-3.66-2.18-1.02-4.54-1.55-7.02-1.94-2.3-.38-4.78-.35-6.79.4-2.04.79-3.57 2.46-4.71 4.54-2.29 4.2-3.34 9.34-5.67 14.03-1.25 2.47-2.96 4.71-5.42 6.24-2.46 1.56-5.45 1.85-8.09 1.58-5.36-.6-10.03-2.73-14.68-4.46-4.63-1.77-9.28-3.43-14-3.92-4.71-.57-9.44.48-13.25 3.13-1.88 1.3-3.68 2.92-5.04 4.7-.68.97-1.54 1.9-2.08 2.91l-1.67 3c-4.07 8.52-5.87 17.83-9.11 26.64-.84 2.14-1.68 4.29-2.52 6.4-.97 2.1-1.94 4.17-2.91 6.23-1.95 4.09-4.02 8.04-5.85 12.01-.94 2.01-1.96 3.89-2.45 5.92-.52 1.92-.52 4.12-1.01 6.32-.5 2.25-1.69 4.21-3.25 5.91-1.42 1.47-3.51 2.72-5.37 3.58-1.91.9-3.84 1.6-5.63 2.46-1.82.78-3.31 1.97-4.86 3.25-3 2.53-5.82 5.29-8.75 7.81-2.92 2.53-5.98 4.85-9.36 6.49-3.36 1.68-7.08 2.59-10.74 2.18-.86-.11-1.72-.16-2.6-.51-.44-.14-.89-.27-1.32-.44l-1.18-.6c-1.58-.8-2.93-1.86-4.27-2.81-2.63-1.99-5.45-3.27-8.54-3.75-6.02-.95-11.96-.45-17.3-.3-1.33.11-2.67.14-3.95.29-1.26.19-2.5.4-3.71.6-2.42.35-4.7 1-6.88 1.44-8.66 2.18-15.53 3.98-20.37 4.29-1.19.19-2.25.27-3.18.23-.92.0-1.69.02-2.32.03-1.25.0-1.88.0-1.88.0-.16.0-.29-.12-.29-.28s.12-.29.28-.29h.04s.64.0 1.87-.04c.61.0 1.38-.02 2.29-.03.92.03 1.97-.05 3.14-.25 4.78-.34 11.57-2.18 20.25-4.43 8.72-2.31 19.64-3.53 32.24-2.28 3.11.44 6.31 1.86 8.97 3.87 2.71 1.98 5.39 3.84 8.88 4.08 3.33.34 6.86-.51 10.04-2.13 3.22-1.59 6.18-3.88 9.04-6.38 2.88-2.5 5.64-5.27 8.72-7.9 1.5-1.26 3.2-2.64 5.12-3.49 1.87-.91 3.81-1.63 5.64-2.49 1.85-.93 3.41-1.81 4.94-3.38 1.25-1.41 2.34-3.16 2.73-5.11.45-1.98.43-4.14 1.01-6.44.52-2.19 1.59-4.2 2.49-6.17 1.82-4.02 3.87-7.99 5.77-12.06.93-2.04 1.87-4.07 2.81-6.13.82-2.15 1.64-4.28 2.46-6.44 3.09-8.54 4.83-17.98 8.99-26.87l1.82-3.32c.6-1.11 1.41-1.97 2.11-2.98 1.56-2.08 3.41-3.74 5.51-5.23 4.2-2.99 9.64-4.22 14.73-3.62 5.13.5 9.96 2.21 14.65 3.96 4.67 1.73 9.33 3.72 14.03 4.2 2.33.2 4.65-.07 6.5-1.26 1.86-1.16 3.34-3.09 4.36-5.13 2.18-4.41 3.13-9.45 5.66-14.26 1.26-2.37 3.33-4.75 6.12-5.83 2.77-1.05 5.6-1.04 8.32-.62 2.55.38 5.25.97 7.73 2.1 2.47 1.07 4.72 2.48 6.88 3.78 2.16 1.27 4.28 2.49 6.41 2.61 2.1.19 4.24-.67 6.22-1.93 3.95-2.7 7.3-6.49 10.08-10.56 2.8-4.09 5.04-8.58 7.4-13.11 2.37-4.49 4.84-9.13 8.54-13.06 3.65-3.99 8.99-6.5 14.3-7.03 2.7-.11 5.47-.24 7.84.17l1.85.21.46.05.34.04.24.05.94.22 3.78.89c2.43.89 4.87 1.63 7.18 2.94 1.17.6 2.37 1.17 3.34 1.88l1.54 1.01.76.5c.17.11.17.09.47.33l.4.31c2.17 1.6 3.88 4.16 4.98 6.08.6.94 1.06 1.38 1.75 1.66.68.29 1.71.43 2.72.38 2.4.0 4.09-.39 6.13-1.37 1.96-.94 3.87-2.13 5.62-3.55 3.51-2.78 6.7-6.06 9.03-9.69.61-.9 1.09-1.83 1.56-2.76l.59-1.4c.11-.43.23-.82.36-1.22.11-.47.14-1.1.21-1.65-.04-.11-.1-.77-.13-1.13.02-.44-.21-.87-.34-1.3-.11-.44-.28-.88-.54-1.32-.84-1.81-2.23-3.51-3.34-5.91-.27-.67-.51-1.5-.7-2.27-.14-.7-.09-1.15-.14-1.73v-.21s.03-.76.03-.56l.11-.51.22-1.01c.11-.69.41-1.31.71-1.91 1.18-2.45 3.01-4.16 4.41-5.67l.97-1.11c.33-.36.44-.62.69-.93.25-.19.45-.84.68-1.29l.15-.36.08-.19c.11-.26-.04.15.0.05l.15-.66c.97-3.53-.07-7.4-.25-12.02-.16-2.05.28-4.55.81-6.71.36-1.03.74-2.06 1.11-3.09.39-1.01.92-1.96 1.38-2.94.46-1.01.98-1.82 1.48-2.68l.75-1.27 1.07-1.49c1.45-1.83 3.73-3.4 6.25-3.8 2.73-.4 4.79.1 7.03 1.18l2.35 1.39c.33.16.46.37.93.52l1.3.46.17.05c.33.1-.27-.05-.16-.05h.26l.5.05c.31.03.65.06 1.09.02.97-.07 1.93-.13 2.89-.19.59-.05 1.02-.02 1.46.02l.67.06.34.03c.17.02-.15-.04.43.04l.17.04c.84.16 1.74.38 2.51.49.76.11 1.61.27 2.15.23l.93.05 1.26-.21c1.32-.13 2.7-.71 3.66-1.37 2.01-1.28 2.94-3.98 4.42-7.02.72-1.49 1.66-3.06 2.9-4.46l.86-.91.99-.85c.64-.59 1.35-1.06 2.07-1.5.68-.47 1.48-.86 2.32-1.22l1.23-.51 1.01-.29 1.01-.28 1.22-.24.99-.19.68-.19c.28-.04.35-.14.47-.21.13-.09.2-.03.52-.3l.76-.62.38-.3c-.1.08.16-.15.22-.21.88-.78 1.85-1.81 3.26-2.71.39-.21.69-.42 1.17-.62.43-.17 1.16-.43 1.35-.44l.44-.09.11-.03c-.15.03.33-.06.36-.05l.38-.02c.55-.03 1.04.0 1.47.1.9.17 1.47.39 1.77.44.31.11.27-.09-.12.16-.14.14.11-.04.19-.09l.35-.23.09-.06c-.51.38-.13.09-.24.16l.04-.05.07-.12c.13-.09.36-.59.54-.86.37-.78.71-1.63 1-2.5.58-1.77 1.01-3.48 1.37-5.15.17-.85.34-1.66.51-2.45.19-.85.3-1.59.68-2.59.31-.91.66-1.89 1-2.37.17-.29.34-.58.49-.85l.23-.41.06-.1.03-.04c-.14.2.22-.36.21-.33l.22-.25c1.23-1.44 2.29-2 3.05-2.54.81-.52 1.3-.87 1.63-1.14.08.13.65-.83.6-.76.76-1.29 2.45-1.71 3.74-.92 1.3.77 1.71 2.45.93 3.74z" fill="#7474af"/><path d="M721.67 165.75s-1.26.98-3.62 2.84c-1.28.9-2.45 2.13-3.86 3.56-1.48 1.33-2.96 3.25-4.68 5.33-3.34 4.27-6.87 9.97-11.26 16.56-2.24 3.31-4.69 6.67-7.77 10.17-1.37 1.54-3.3 3.38-5.32 4.82-1.01.72-2.05 1.44-3.19 2.02-1.09.66-2.28 1.16-3.49 1.64-4.82 1.96-10.09 2.54-15.1 3.31-5.05.72-10.01 1.87-14.59 4.29-4.38 2.12-7.15 6.8-9.39 11.92-1.14 2.57-2.13 5.28-3.28 8.07-.6 1.39-1.17 2.79-1.91 4.2-.79 1.5-1.52 2.62-2.29 3.97-3.29 5.33-7.09 9.99-9.64 15.33-.31.67-.66 1.33-.94 2l-.71 2.08c-.57 1.37-.77 2.83-1.09 4.27l-.21 1.09c-.07.14-.07.71-.11 1.04l-.17 2.35c-.13 1.57.04 2.99.04 4.51.28 6.11 1.51 12.49 1.11 19.14-.39 6.69-2.79 13.31-7.67 18.32-4.94 4.89-11.61 6.95-17.77 8.52-6.24 1.53-12.49 2.63-17.95 5.25-1.25.81-2.69 1.37-3.76 2.39l-1.72 1.4-1.42 1.67c-1.02 1.02-1.68 2.42-2.57 3.72-.8 1.33-1.4 2.62-2.08 3.98-1.25 2.75-2.36 5.64-3.75 8.46-.83 1.34-1.52 2.77-2.55 3.98-.49.62-.93 1.27-1.46 1.84l-1.66 1.65c-4.46 4.15-9.22 7.76-14.27 10.77-5.04 2.96-10.5 5.19-16.14 5.89-2.78.28-5.57.37-8.27.18-2.68-.12-5.28-.39-7.79-.18-1.27.0-2.49.3-3.72.47-1.18.27-2.41.65-3.52.97-2.37.89-4.55 1.8-6.48 3.11-3.97 2.52-6.85 6.14-9.7 9.44-2.97 3.21-4.92 6.8-6.86 10.2-3.75 6.82-6.94 12.87-10.12 17.52-3.15 4.66-6.33 7.95-9.13 9.32-1.4.69-2.6.9-3.4.97-.8.0-1.22.0-1.22.0-.15.0-.28-.13-.27-.29.0-.16.12-.28.28-.28h1.17c.73-.1 1.84-.28 3.14-.96 2.63-1.31 5.72-4.55 8.77-9.19 3.11-4.64 6.2-10.69 9.88-17.58 1.87-3.38 3.89-7.19 6.85-10.46 2.82-3.31 5.71-7.08 9.87-9.8 2.05-1.41 4.4-2.43 6.69-3.33 1.28-.38 2.47-.77 3.74-1.07 1.3-.2 2.59-.53 3.92-.54 2.65-.25 5.32.0 7.97.08 2.65.16 5.27.03 7.98-.27 5.33-.71 10.53-2.9 15.38-5.83 4.85-2.95 9.51-6.58 13.77-10.65l1.53-1.55c.49-.53.88-1.14 1.32-1.72.94-1.1 1.57-2.44 2.31-3.7 1.29-2.66 2.35-5.52 3.62-8.41.68-1.41 1.39-2.93 2.18-4.27l1.22-1.99c.23-.35.36-.61.68-1.04l.78-.95 1.61-1.91 1.9-1.6c1.22-1.17 2.76-1.8 4.15-2.7 5.92-2.92 12.33-4.07 18.42-5.67 6.04-1.6 12.11-3.66 16.32-7.95 4.07-4.22 6.34-10.39 6.56-16.35.31-6.13-.94-12.33-1.34-18.8-.03-1.64-.21-3.38-.08-4.92l.14-2.35c.03-.44.0-.68.11-1.29l.23-1.21c.32-1.61.55-3.26 1.16-4.78l.77-2.32c.3-.76.68-1.48 1.01-2.22 2.72-5.85 6.66-10.79 9.59-15.71 1.58-2.65 2.84-4.97 3.87-7.72 1.07-2.68 2.06-5.45 3.22-8.18 1.16-2.73 2.49-5.44 4.27-7.94.89-1.25 1.91-2.41 3.06-3.5.62-.51 1.32-1.11 1.91-1.51l.87-.56.44-.28.6-.32c5.15-2.8 10.77-4.14 15.94-4.94 5.17-.83 9.96-1.47 14.05-3.19 8.3-3.29 13.05-10.81 17.36-17.08 4.19-6.44 7.75-12.38 11.26-16.98 1.82-2.28 3.37-4.32 5.11-5.95 1.64-1.69 3.04-3.12 4.23-3.96 2.34-1.89 3.57-2.88 3.57-2.88 1.18-.95 2.9-.76 3.85.41.94 1.18.76 2.9-.42 3.84l-.03.03z" fill="#7474af"/><path d="M654.6 215.87c-.61.44-1.26.85-1.84 1.31-.52.5-1.07.94-1.57 1.48-1.01 1.07-1.9 2.22-2.7 3.46-1.59 2.5-2.8 5.24-3.77 8.06-1.94 5.66-2.97 11.65-3.66 17.61-.34 3.02-.59 6 .04 8.85.52 2.92 2.86 4.83 5.15 6.84 2.24 2.07 4.39 4.36 5.87 7.05 1.64 2.56 2.67 5.59 3.48 8.51 1.46 5.95 1.73 12.05 2.52 18 .42 3.01.95 5.98 1.29 9.01.23 1.5.2 3.05.22 4.59-.21 1.53-.38 3.09-1.02 4.53l-.39 1.09-.6.99c-.41.66-.79 1.33-1.21 1.97-1.02 1.14-1.94 2.37-3.03 3.44-2.13 2.14-4.45 4.14-6.72 6.13-2.32 1.96-4.68 3.87-7.12 5.66-1.26.86-2.44 1.81-3.79 2.55-.66.37-1.29.81-1.98 1.15l-2.14.89.2-.19c-.76 2.86-1.66 5.69-2.52 8.53-.78 2.82-1.65 5.74-1.17 8.63.2 1.44.75 2.81 1.49 4.06.7 1.28 1.62 2.45 2.58 3.55.95 1.13 2.02 2.14 3.07 3.2l3.14 3.14c1.05 1.05 2.06 2.13 3.07 3.22.99 1.11 1.98 2.21 2.84 3.44.89 1.19 1.61 2.52 2.14 3.91.44 1.42.71 2.94.57 4.42-.05 1.49-.36 2.96-.69 4.4-.34 1.44-.74 2.87-1.15 4.3l-2.45 8.54s-.05.06-.09.05c-.04-.02-.05-.05-.05-.1l2.4-8.54c.4-1.42.78-2.86 1.12-4.3.32-1.43.62-2.89.67-4.36.13-1.47-.15-2.93-.58-4.32-.53-1.36-1.25-2.66-2.13-3.83-.85-1.2-1.85-2.29-2.83-3.4-1.01-1.09-2.03-2.15-3.08-3.19l-3.17-3.11c-1.04-1.05-2.13-2.08-3.1-3.21-.99-1.11-1.91-2.29-2.66-3.59-.76-1.29-1.34-2.71-1.56-4.21-.52-3.02.36-6 1.13-8.84.84-2.85 1.72-5.66 2.45-8.53.02-.09.08-.14.16-.18l.03-.02 2.05-.85c.66-.33 1.28-.76 1.93-1.14 1.31-.73 2.48-1.69 3.73-2.54 2.43-1.8 4.76-3.72 7.05-5.67 2.28-2 4.53-3.97 6.65-6.13 1.07-1.06 1.95-2.27 2.93-3.38.41-.62.77-1.27 1.16-1.9l.57-.96.36-1.03c.61-1.37.75-2.84.95-4.29-.04-1.49.0-2.98-.24-4.47-.35-2.97-.91-5.96-1.34-8.96-.84-6.03-1.15-12.09-2.61-17.9-.84-2.89-1.76-5.66-3.42-8.2-1.44-2.62-3.52-4.8-5.71-6.81-1.12-1.01-2.31-1.96-3.36-3.14-1.07-1.18-1.82-2.69-2.16-4.23-.68-3.08-.42-6.23-.12-9.2.67-6.06 1.67-12.09 3.61-17.89.99-2.91 2.22-5.75 3.87-8.37.83-1.31 1.78-2.54 2.85-3.69.53-.57 1.17-1.09 1.74-1.64.6-.47 1.23-.88 1.84-1.33.3-.22.73-.15.95.15.23.3.16.73-.14.95h0l-.02.02z" fill="#7474af"/><path d="M958.24 91.89s-.29.28-.82.84c-.58.56-1.23 1.36-2.56 2.49-.63.56-1.32 1.18-2.1 1.86-.73.6-1.51 1.25-2.37 1.96-1.68 1.41-3.66 2.94-5.69 4.7-2.1 1.74-4.23 3.73-6.09 5.87-.44.53-.66 1.03-1.04 1.54l-.27.39c.04-.11-.13.27.08-.21l-.03.08-.06.15-.13.31c-.13.36-.42.95-.43 1.14-.04.24-.1.44-.17.69l-.13.98c-.04.68-.06 1.42.0 2.21.14 3.23 1.62 7.27 1.58 12.68-.1 2.69-.65 5.68-2.37 8.26-.49.66-1.2 1.48-1.8 2.09l-1.53 1.33c-.92.73-1.84 1.47-2.77 2.21l-1.15 1.01c-.27.32-.63.65-.88.95-.13.27-.46.63-.52.78-.24.54-.55 1.16-.74 1.65-.11.43-.25.84-.39 1.25l-.34 1.56c-.19 1.08-.33 2.2-.39 3.37-.32 4.67.47 9.86.59 15.7-.03 1.48-.03 2.99-.17 4.53-.25 1.58-.38 3.2-.95 4.75-.88 3.19-2.49 5.9-4.03 8.49-1.55 2.56-3.43 5.03-4.73 7.29-1.48 2.48-2.99 5.17-4.96 7.81-1.01 1.32-2.08 2.66-3.74 3.9-.4.32-.94.61-1.43.89l-.92.37-.24.08c-.16.05.04.0-.42.12l-.27.05-1.14.22c-.59.06-1.17.1-1.76.11-2.23.04-4.71-1.14-6.14-2.55-1.49-1.4-2.33-2.75-3.2-3.68-.87-1-1.48-1.42-2.33-1.62-.82-.21-1.26-.18-1.92-.3l-2.22-.24c-1.5-.13-3.01-.22-4.52-.28-.73.0-1.5-.05-2.2-.02-.68.0-1.48.05-1.66.1h-.13c.43-.17.04.0.11-.05l-.14.06-.54.24-1.07.47c-.62.33-.85.59-1.34.89-.93.81-1.79 1.77-2.83 3.09-1.05 1.27-2.36 2.71-3.95 3.78l-1.21.78-.3.19s-.37.19-.29.14l-.13.06-.54.25c-.76.33-1.32.68-2.37.99-1.91.68-3.84.92-5.89.76-2.01-.25-3.9-.96-5.47-1.86-3.09-1.81-5.38-3.75-7.9-4.64-.61-.27-1.26-.34-1.9-.53-.65-.02-1.29-.19-1.97-.14l-1.01.04h-.25l-.13.02c-.2.03.16-.04.06-.03l-.59.13-1.17.23c-.4.08-.55.22-.85.31-1.04.33-2.22 1.17-3.2 2.01-.96.94-1.87 2-2.62 3.24-3.11 4.95-4.48 11.09-6.44 17.22l-1.36 4.45c-.27 1.44-.7 2.84-.84 4.3-.52 2.9-.31 5.8-.03 8.79.63 5.99 2.21 12.03 1.12 18.57-.91 6.17-2.86 11.84-4.94 17.29-1.06 2.71-2.15 5.37-3.26 7.96-1.15 2.6-2.48 5.24-4.2 7.57-1.71 2.35-3.94 4.38-6.5 5.69-2.56 1.33-5.3 1.98-7.92 2.36-5.31.74-10.19.61-14.97 1.17-9.48.89-17.95 2.85-25.5 4.8-3.76.93-7.18 2.05-9.99 3.7-2.84 1.64-4.99 3.79-6.63 5.97-3.19 4.47-5.43 8.38-7.49 10.62-.99 1.16-1.79 2-2.36 2.54-.56.55-.84.84-.84.84-.19.19-.48.19-.66.0-.18-.18-.18-.46.0-.65l.02-.02s.27-.28.8-.84c.55-.53 1.32-1.38 2.25-2.52 1.97-2.24 4.04-6.04 7.26-10.72 1.66-2.29 3.94-4.66 6.92-6.45 2.97-1.83 6.53-3.05 10.3-4.07 7.47-2.08 16.15-4.26 25.73-5.35 4.74-.63 9.89-.63 14.8-1.42 2.47-.41 4.92-1.05 7.07-2.23 2.16-1.17 4.01-2.91 5.5-5.03 2.94-4.17 4.75-9.68 6.8-14.98 1.93-5.35 3.7-10.94 4.43-16.65.9-5.44-.67-11.49-1.48-17.67-.37-3.13-.66-6.48-.16-9.76.14-1.65.6-3.27.9-4.9l1.3-4.59c1.77-5.83 3-12.34 6.56-18.34 1.79-2.97 4.32-5.82 8.13-7.3.45-.16 1.02-.42 1.4-.49l1.17-.26.58-.13s.47-.08.36-.05l.17-.02.34-.03 1.4-.09c.92-.06 1.87.11 2.8.16.91.23 1.88.36 2.73.71 3.57 1.23 6.25 3.49 8.72 4.8 1.23.68 2.38 1.03 3.54 1.16 1.12.08 2.42-.11 3.49-.52 2.98-1.15 4.58-2.24 6.45-4.7.9-1.17 2.07-2.65 3.52-3.92.78-.6 1.82-1.32 2.59-1.72l1.07-.49.54-.25.13-.06c.15-.06-.15.05.36-.15l.45-.1c1.34-.33 2.13-.3 3.01-.36.86-.03 1.67-.02 2.5-.03 1.63.03 3.25.11 4.85.21l2.42.2c.88.12 2 .24 2.69.4 2.21.44 4.19 1.98 5.33 3.3 1.22 1.33 2.1 2.58 2.88 3.24.8.67 1.26.86 2.11.88.18-.03.35-.04.52-.03l1.09-.22.27-.06c-.36.08-.09.0-.16.02l.04-.02s.08-.04.13-.05c.15-.12.29-.17.48-.34.75-.58 1.6-1.58 2.38-2.66 1.57-2.21 2.96-4.73 4.42-7.33 1.62-2.86 3.25-5.05 4.64-7.45 1.35-2.36 2.62-4.66 3.17-6.94.41-1.11.44-2.32.63-3.49.08-1.22.05-2.48.05-3.74-.15-5.14-1.12-10.57-.88-16.23.04-1.42.2-2.85.42-4.28l.43-2.14.72-2.34c.26-.67.5-1.17.74-1.75.43-.99.92-1.58 1.41-2.35.51-.65 1.03-1.17 1.55-1.76l1.54-1.41c.93-.76 1.84-1.53 2.75-2.28l1.09-.99c.19-.24.26-.27.5-.48.88-1.23 1.15-2.86 1.17-4.49.05-3.38-1.35-7.32-1.8-11.85-.12-1.14-.13-2.33-.06-3.51.06-.6.14-1.21.2-1.8.13-.67.31-1.34.49-1.99.19-.69.33-.93.49-1.41l.12-.31.05-.15.03-.08c.23-.53.09-.19.16-.34l.43-.75c.59-.93 1.17-1.98 1.79-2.76 2.48-3.02 4.89-5.26 7.05-7.14 2.16-1.95 4.1-3.5 5.72-4.92.81-.69 1.56-1.33 2.24-1.92.6-.54 1.13-1.05 1.62-1.49.96-.8 1.79-1.78 2.3-2.31.53-.56.8-.85.8-.85l.05-.05c1.67-1.78 4.46-1.86 6.24-.19 1.79 1.67 1.87 4.46.2 6.24-.02.02-.05.04-.06.06z" fill="#7474af"/><path d="M821.09 217.9s-.29.68-.84 1.93c-.48 1.23-1.18 3.09-1.95 5.52-.79 2.42-1.66 5.4-2.87 8.77-1.2 3.36-2.71 7.19-5.39 10.82-1.39 1.77-3.1 3.44-5.32 4.61-2.11 1.11-4.77 1.62-7.28 1.69-5.09.19-10.38-1.02-15.68-.09-2.62.44-5.16 1.63-7.23 3.41-2.14 1.76-4.04 3.9-6.18 5.85-2.11 1.96-4.62 3.79-7.62 4.37-.72.1-1.55.22-2.27.15-.72-.04-1.44.03-2.19-.16-1.52-.23-2.93-.71-4.3-1.28-5.46-2.45-9.64-6.73-14.6-9.52-2.46-1.4-5.16-2.41-7.92-2.45-2.74-.08-5.5.83-7.74 2.25-2.27 1.4-3.78 3.74-4.41 6.25-.66 2.52-.72 5.1-.76 7.6.0 4.98.05 9.88-1.7 14.01-1.71 4.16-5.26 6.71-8.47 8.16-3.24 1.51-6.18 2.5-8.44 3.68-2.27 1.16-3.87 2.38-4.84 3.34-.94.98-1.4 1.55-1.4 1.55-.03.03-.07.04-.1.0-.04-.02-.05-.07-.02-.1.0.0.44-.58 1.41-1.57.97-.98 2.57-2.22 4.86-3.4 2.27-1.21 5.21-2.22 8.42-3.74 3.17-1.49 6.61-3.98 8.27-8.07 1.69-4.04 1.6-8.89 1.57-13.87.0-2.52.06-5.12.73-7.72.62-2.6 2.2-5.09 4.59-6.59 2.35-1.5 5.12-2.43 8.02-2.37 2.9.0 5.71 1.05 8.23 2.46 5.08 2.83 9.29 7.08 14.6 9.38 1.32.55 2.69 1 4.06 1.2.67.19 1.44.11 2.15.14.75.06 1.37-.06 2.09-.15 2.76-.56 5.12-2.29 7.19-4.21 2.09-1.94 3.98-4.09 6.18-5.93 2.2-1.9 4.86-3.17 7.64-3.66 5.57-1.01 10.9.2 15.81-.05 2.5-.11 4.75-.52 6.83-1.61 1.96-1.06 3.58-2.63 4.87-4.31 2.52-3.45 3.98-7.2 5.15-10.52 1.16-3.34 2.03-6.31 2.8-8.76.75-2.45 1.44-4.36 1.95-5.66.54-1.26.83-1.93.83-1.93.14-.35.54-.52.89-.37s.52.55.36.9h0z" fill="#7474af"/></g></g></svg>