<svg xmlns="http://www.w3.org/2000/svg" width="905.36" height="1080" viewBox="0 0 905.36 1080"><g id="a"/><g id="b"><g id="c"><g id="d"><path d="M791.32 478.17c-19.61-18.85-44.16-35.48-72.5-33.99-28.04 1.47-52.93 17.14-74.69 33.64-25.23 19.13-48.01 42.51-75.86 57.93-1.31.73-2.26 1.63-2.95 2.62-17.37-7.91-34.3-16.62-48.12-29.57-25.66-24.04-38.96-58.04-58.81-86.48-17.93-25.69-35.54-53.04-60.11-72.98-11.95-9.7-25.58-18.29-41.03-20.72-15.24-2.4-29.65 1.84-43.59 7.71-62.19 26.2-108.5 73.24-153.17 122.4-26.46 29.12-52.23 59.17-79.71 87.31-26.08 26.7-62.65 45.87-79.49 80.42-.15.3-.11.58-.23.87H0c0 249.61 203.07 452.68 452.68 452.68s452.68-203.07 452.68-452.68c-10.41-12.91-91.46-127.44-114.04-149.15" fill="#1a262e"/><path d="M863.58 769.24h0c-18.14-7.73-39.12-10.69-58.01-14.86-13.74-3.03-27.31-6.13-41.49-5.84-16.55.33-32.77 4.25-48.68 8.48-13.68 3.64-26.77 8.47-39.49 14.02-2.88-4.25-21.13-9.64-27.83-13.31-2.59-1.43-5.08-3.02-7.59-4.58 27.47-16.11 57.29-27.75 86.2-41.09 19.78-9.13 38.62-20.04 58.11-29.74 20.23-10.08 40.68-19.83 61.5-28.63 8.92-3.77 17.95-7.43 27.19-10.36 3.09-.98 6.19-1.8 9.35-2.53.16-.03 1.06-.03 1.74-.11.87.53 1.78.87 2.76 1.06-1.49 44.53-9.79 87.32-23.77 127.49" fill="#233525"/><path d="M833.19 837.45h0c-18.22-9.14-42.57-6.19-62.1-7.36-22.69-1.35-40.7 4.61-59.74 16.62-11.84 7.47-23.88 14.52-35.96 21.51-1.3-.9-2.82-1.58-4.82-1.58-35.16-.1-69.54-6.85-103.61-14.89 47.87-26.4 92.4-60.58 145.49-75.58 15.02-4.25 30.46-8.6 46.09-9.67 14.13-.96 27.35 1.64 41.04 4.66 18.58 4.11 40.19 6.68 57.88 14.71-7.01 17.77-15.08 35.02-24.27 51.58" fill="#3e563e"/><path d="M705.95 980.63c-1.87-3.03-33.07-7.55-38.98-9.45-13.05-4.2-25.84-9.18-38.67-14.03-13.83-5.23-27.71-8.97-41.75-11.94 16.23-8.2 30.18-20.58 45.35-30.6 23.35-15.42 48.68-27.54 72.39-42.36 18.04-11.28 34.55-24.42 56.7-24.76 11.21-.17 22.5 1.09 33.72 1.36 9.72.23 20.63-.14 29.72 3.91-30.55 50.15-70.92 93.69-118.48 127.88" fill="#7993a0"/><path d="M452.68 1062.3h0c-73.83.0-143.39-18.52-204.34-51.11 26.56-10.99 51.44-25.61 76.69-39.29 29.35-15.9 61.46-33.57 95.14-37.52 34.9-4.09 69.31 13.89 103.47 18.68 32.92 4.62 64.97 8.04 96.33 19.79 14.05 5.26 28.01 10.8 42.29 15.4 7.28 2.34 15.23 4.98 23.19 6.25-67.36 42.86-147.18 67.8-232.77 67.8" fill="#a1b6af"/><path d="M229.63 1000.6h0c-27.71-16.63-53.27-36.4-76.54-58.57 25.04-10.88 44.97-30.48 67.69-45.2 29.71-19.26 63.7-23.83 97.97-29.89 38.55-6.81 77.15-19.43 116.39-20.84 38.08-1.37 75.1 10.08 111.74 19.04 33.66 8.23 67.7 15.86 102.28 18.32-4.7 2.74-9.4 5.48-14.06 8.3-7.35 4.43-72.87 46.59-73.25 48.96-9.28-1.46-18.64-2.74-28.14-3.99-34.16-4.48-67.05-19.88-101.59-20.56-33.58-.66-67.02 15.15-96.3 30.06-34.13 17.37-66.63 38.76-102.7 52.05-1.48.54-2.59 1.38-3.5 2.34" fill="#93a889"/><path d="M140.31 929.45h0c-21.24-21.96-40.11-46.21-56.4-72.22 85.12-27.8 168.55-60.43 252.99-90.21 70.48-24.85 151.71-55.58 227.16-36.3 29.44 7.52 58.36 36.16 91.94 49.72-38.63 19.56-74.51 44.72-113.47 64.24-.45.23-.67.56-1.05.83-32.16-8.21-64.8-17.16-98.01-17.26-39.12-.12-76.49 12.06-114.65 18.99-35.08 6.37-72.79 9.61-104.6 26.88-28.34 15.38-50.92 40.22-80.74 52.94-1.43.61-2.43 1.44-3.18 2.38" fill="#2c4530"/><path d="M74.78 841.95h0c-15.68-27.48-28.28-56.89-37.75-87.67 18.41-21.17 45.68-30.04 71.04-40.11 26.64-10.58 52.44-29.95 81.13-34.08 17.38-2.5 33.44 3.52 49.81 8.55 18.07 5.55 36.12 11.14 54.16 16.75 29.5 9.18 58.97 18.46 88.44 27.74-5.17 1.66-10.34 3.35-15.48 5.08-44.83 15.04-89.16 31.57-133.55 47.86-51.92 19.06-103.88 38.04-156.48 55.14-.53.17-.85.5-1.31.74" fill="#2c453f"/><path d="M17.85 633.19h0c14.95-28.38 44.49-44.62 67.06-66.31 24.84-23.87 47.13-50.66 70.34-76.09 42.36-46.43 84.41-97.04 140.9-126.85 10.06-5.31 21.21-11.25 32.61-14.94-12.85 21.46-31 39.83-44.37 60.93-11.35 17.91-21.61 39.77-16.79 61.49 6.88 31.02 41.69 43.76 68.37 52.62 15.25 5.07 30.97 9.16 45.79 15.42 8.75 3.7 21.03 9.3 24.02 18.64 4.21 13.12-8.55 27.95-18.81 34.74-17.33 11.47-38.51 17.55-53.61 32.31-17.89 17.47-16.09 44.84.45 62.74 10.7 11.57 25.46 17.27 39.4 24.08-27.19-8.55-54.37-17.12-81.58-25.57-19.42-6.04-38.85-12.04-58.29-17.99-16.47-5.04-32.03-8.24-49.25-5.33-30.21 5.11-56.9 24.75-85.14 35.78-23.67 9.25-48.68 18.28-67.49 35.68-8.32-32.5-13.13-66.38-13.6-101.33" fill="#154352"/><path d="M348.68 349.62h0c.7-1.39.96-2.74.98-4.05 14.52.77 27.77 9.16 38.7 18.43 23.77 20.17 41.55 47.4 58.79 73.1 17.96 26.77 30.95 57.02 53.69 80.39 21.78 22.39 50.97 33.23 78.64 46.24 33.68 15.84 68.88 34.8 94.48 62.33 11.83 12.73 20.66 28.18 34.11 39.39 10.91 9.09 23.76 13.29 36.47 18.27-9.42 4.76-18.89 9.42-28.49 13.83-30.98 14.2-62.94 26.64-91.84 44.82-7.19-5.01-14.36-10.07-21.9-14.57-33.78-20.15-75.14-22.73-113.48-18.87-25.39 2.55-50.33 7.87-74.91 14.6.08-2.08-.5-4.25-2.25-6.2-15.39-17.23-38.7-22.11-57.12-34.95-17.89-12.48-22.6-34.52-4.27-48.53 26.6-20.34 73.61-28.94 73.87-70.91.18-28.57-33.12-39.61-55.24-46.94-25.09-8.31-61-14.14-78.25-36.34-12.8-16.46-4.32-38.03 4.89-54.02 15.43-26.81 39.16-48.46 53.14-76.04" fill="#226880"/><path d="M708.51 463.36h0c2.52-.57 4.97-.77 7.43-1-10.64 13.78 14.64 39.52 19.23 51.03 3.95 9.9 2.82 20.56-4.98 27.79-7.35 6.81-14.9 12.2-19.62 21.4-4.67 9.12-7.18 20.23-1.58 29.55 4.92 8.2 14.22 12.18 22.64 15.72 9.2 3.87 19.89 7.24 24.56 16.83 6.73 13.82 3.22 31-5.68 42.9-11.08-4.1-22.26-8.03-31.27-15.75-12.36-10.59-20.7-24.98-31.54-36.97-22.87-25.28-53.5-43.01-83.46-58.54-6.48-3.36-13.21-6.44-20.01-9.48 41.81-26.13 74.82-72.39 124.29-83.49" fill="#154352"/><path d="M832.97 561.38h0c13.84 21.31 27.51 43.07 43.82 62.65-2.36.54-4.59 1.2-6.5 1.78-17.08 5.19-33.58 12.7-49.82 20.03-17.36 7.83-34.28 16.52-51.18 25.24 11.77-20.65 11.71-51.47-7.47-67.24-7.43-6.11-16.53-9.1-25.21-12.94-8.37-3.71-15.72-6.72-11.85-16.9 3.71-9.77 12.13-14.45 19.18-21.45 6.82-6.77 10.37-15.09 10.87-24.66.66-12.52-3.44-22.88-9.77-33.38-2.92-4.85-6.1-9.55-9-14.42-1.33-2.25-2.37-5.37-3.99-7.37-.28-.34-.46-.62-.6-.86 2.79-2.59 3-5.76 1.67-8.44 17.19 3.68 32.46 14.58 45.67 27.27 21.5 20.67 38.02 45.81 54.17 70.69" fill="#226880"/><path d="M622.49.0c104.62.0 189.43 84.81 189.43 189.43s-84.81 189.43-189.43 189.43-189.43-84.81-189.43-189.43S517.87.0 622.49.0" fill="#a1b6af" fill-rule="evenodd"/></g></g></g></svg>