<svg xmlns="http://www.w3.org/2000/svg" width="1080" height="982.67" viewBox="0 0 1080 982.67"><g id="a"/><g id="b"><g id="c"><g id="d"><path d="M405.98 619.68s230.49-20.95 204.3-34.05c-26.19-13.1-256.69-10.48-306.45-10.48-31.13.0-145.26-1.02-226.39-1.79l397.9 397.9c15.21 15.21 39.87 15.21 55.09.0l364.18-364.18-488.63 12.59z" fill="#c9de56"/><path d="M0 572.53s191.2-70.72 201.68-68.1c10.48 2.62 44.53 23.57 60.24 20.95 15.72-2.62 243.59-178.11 259.3-178.11s70.72 23.57 60.24 28.81c-10.48 5.24-57.62 70.72-57.62 70.72.0.0 204.3-214.78 225.25-206.92 20.95 7.86 314.31 282.88 314.31 282.88L0 572.53z" fill="#1c98a0"/><path d="M958.21 424.9l-24.89 13.18S774.5 358.75 758.7 359.5c-36.67 1.75-201.82 109.64-247.95 132.71-10.48 5.24 21.68-20.95 20.95-20.95-5.24.0-29.68-19.21-38.42-17.46-6.17 1.23-20.95 8.73-26.19 10.48-5.24 1.75-22.7-17.46-38.42-13.97-15.72 3.49-188.59 101.28-188.59 101.28l12.22-13.97s-31.43-8.73-38.42-8.73-41.91 20.95-47.15 22.7c-5.24 1.75-17.46-8.73-22.7-8.73s-90.8 26.19-90.8 26.19l99.31-3.65 927.43-31.28s-63.86-55.66-121.79-109.21z" fill="#0f7f82"/><path d="M664.41 834.46c-1.75-40.16-190.33-33.18-190.33-33.18.0.0 321.29-76.83 314.31-118.74-6.98-41.91-497.66-47.15-497.66-47.15.0.0 69.85-12.22 82.07-24.45 10.58-10.58-218.2-19.85-279.92-22.15l30.27 30.27c42.87 1.39 150.12-1.13 150.12-1.13.0.0-91.98 8.27-135.19 16.06l124.47 124.47c63.75 1.04 246.45-4.34 246.45-4.34l-219.62 31.16 185.97 185.97c15.21 15.21 39.87 15.21 55.09.0l133.79-133.79c.11-1.04.22-2.09.18-3.01z" fill="#aabc2b"/><path d="M530.44 11.41c-15.21-15.21-39.87-15.21-55.09.0l-168.07 168.07c33.08 11.83 56.79 43.35 56.79 80.5.0 47.25-38.31 85.56-85.56 85.56-37.14.0-68.67-23.71-80.5-56.79L22.97 463.79c-15.21 15.21-15.21 39.87.0 55.09l25.1 25.1c37.04-13.14 135.65-47.9 148.38-50.02 15.72-2.62 39.29 20.95 60.24 20.95s240.97-175.49 259.31-180.73c18.33-5.24 46.01 20.95 70.72 20.95 7.86.0 110.14-118.68 146.61-140.84L530.44 11.41z" fill="#43dcd0"/><circle cx="283.75" cy="261.72" r="62.86" transform="translate(-20.04 499.88) rotate(-80.78)" fill="#f9d006"/></g></g></g></svg>