<svg xmlns="http://www.w3.org/2000/svg" width="1080" height="713.55" viewBox="0 0 1080 713.55"><g id="a"/><g id="b"><g id="c"><g id="d"><path d="M776.94 134.03c-145.36-51.9-312.17-38.19-456.72 9.14-24.31 7.96-48.68 17.23-72.54 27.87-31.77 13.49-61.82 29.81-89.04 49.12-32.36 22.01-61.95 47.67-86.71 77.7C23.09 357.09-9.85 478.09 2.67 546.85c16.18 204.26 308.73 176.21 476.72 144.22 168.25-32.05 493.79 133.33 588.89-128.19 64.1-176.27-148.94-377.99-291.33-428.84z" fill="#8aab29"/><path d="M195.8 505.68c50.6 78.76 151.14 16.64 211.7-7.97 47.03-19.13 95.61-37.33 145.33-34.22 119.13 7.47 166.29 87.37 228.83 96.92 67.98 10.37 121.9-35.18 117.73-116.72-10.06-197.68-259-234.3-389.11-225.31-88.74 6.14-175.06 40.09-247.73 99.34-49.17 40.09-111.77 117.89-66.74 187.96z" fill="#b4dbef"/><path d="M240.49 422.15c-9.84.5-17.9 2.92-25.42 9.4-1.37 1.21-2.61 2.68-3.74 4.26-2.04 2.34-3.82 4.98-5.36 7.57-4.48 7.37-4.52 15.77-2.7 23.9 2.59 11.54 16 18.7 27.07 15.38 7.82-2.34 15.56-5.2 21.41-11.15 7.43-7.58 9.46-17.51 10.44-27.67 1.09-11.37-10.71-22.25-21.71-21.69zm112.18-56.66c-.28 3.72-.66 7.53-1.62 11.14-1.67 6.19-4.72 12.26-9.26 16.86-7.38 7.43-19.95 11.88-30.16 7.85-6.33-2.49-11.31-5.69-15.08-11.52-3.59-5.58-4.08-12.16-2.83-18.5 2.5-12.6 15.63-20.67 27.1-23.58.62-.16 1.27-.21 1.89-.31 1.86-.96 3.78-1.82 5.8-2.4 6.13-1.82 12.91.16 17.4 4.6 4.38 4.33 7.28 9.46 6.76 15.86zm63.82-35.2c0 9.71-8.55 19.45-18.76 18.77-10.5-.72-20.5-7.38-20.5-18.97.0-7.45 5.32-15.6 12.96-17.18.34-.14.68-.27 1.02-.44 2.07-.77 4.32-.83 6.52-.94 10.22-.55 18.76 8.94 18.76 18.76zm107.95-37.78c-7.19-13.5-23.28-17.58-37.06-13.81-6.95-.85-14.21.53-19.96 4.56-9.05 6.35-13.88 14.67-15.03 25.61-1.07 10.19 6.07 20.11 14.49 24.96 10.34 5.95 23.26 5.56 34.6 3.43 20.76-3.94 33.12-25.67 22.96-44.75zm121.06 29.71c-5.45 10.7-19.7 15.82-31.03 15.66-15.22-.21-30.26-9.51-30.44-26.22-.11-10.33 5.42-22.04 15.29-26.24 6.06-2.6 11.72-3.89 18.3-1.98 10.29-1.63 21.13 7.1 26.84 14.72 5.23 7 4.85 16.61 1.05 24.05zm130.98 15.82c-1.73-7.19-7.24-13.03-13.36-16.77-6.71-4.1-17.98-7.01-25.44-4.36-.87.32-1.63.76-2.46 1.13-1.36.11-2.71.3-4.04.58-10.31 2.36-19.35 12.12-18.81 23.04.58 11.08 8.3 19.93 18.23 24.19 6.46 2.76 13.52 5.41 20.73 4.49 7.05-.89 14.36-2.75 19.21-8.5 5.81-6.91 8.11-14.88 5.95-23.8zm84.26 54.56c-6.09-12.55-22.67-16.25-34.79-11-2.59.38-5.11 1.22-7.37 2.54-3.74 2.19-5.59 4.64-8.04 8.15-2.47 3.53-2.73 7.63-3.15 11.72-.52 4.98 2.39 10.73 4.49 14.94 1.41 2.85 3.57 5.37 5.61 7.72 9.64 11.11 28.48 11.22 38.41.55 9.01-9.7 10.53-22.85 4.84-34.62z" fill="#dbdbdb"/><path d="M711.97 560.67c-15.72-5.67-33.07-5.62-48.87-.73-6.4.71-12.72 2.06-18.83 4.13-22.46 7.57-47.52 27.72-41.96 54.29 6 28.61 41.45 37.86 66.28 40.8 27.44 3.24 62.62-4.1 76.41-30.61 15.44-29.72-5.14-57.8-33.04-67.87z" fill="#b4dbef"/><path d="M406.01 96.15c-10.89 3.01-21.85 2.45-31.39-6.1-9.93-8.89-14.9-20.96-16.25-33.45-2.85-26.51 14.54-54.96 45.96-56.52 65.9-3.28 64.72 105.17 1.68 96.07zm467.54-33.08c-14.18-14.57-36.12-11.98-52.65-4.43-37.27 17.02-22.49 79.13 13.8 81.34 8.05 3.75 17.17 3.77 26.61-1.08 11.6-5.94 19.28-21.21 21.96-34.11 3.07-14.68.74-31-9.72-41.73zm153.16 102.62c-14.37-22.92-52.02-27.97-75.48-17.3-45.4 20.63-47.02 115.59 14.24 111.56 2.18-.26 4.38-.56 6.55-.92 2.3-.36 4.09-1.13 5.54-2.15 18.23.91 35.39-15.67 44.44-28.99 12.18-17.91 16.6-43.21 4.7-62.2zM223.65 204.97c-9.95 12.74-25.69 22.83-41.56 22.45h-.01c-6.5.87-12.5 1.37-19.03.3-58.09-9.38-44.68-100.73.03-118.91 23.73-9.63 61.77-.57 72.71 24.85 10.62 24.71 4.07 50.58-12.14 71.31zm-109.16 83.35c-14.73-33.66-58.75-19.78-69.55 8.86-5.71 15.21-1.84 35.94 8.89 48.05 5.69 6.43 13.05 10.55 21.77 10.58.31.0.61-.03.93-.04 4.7 1.7 10.38 2.21 17.11 1.07 30.17-5.12 30.23-47.12 20.86-68.53z" fill="#6a8222"/><g><path d="M982.15 613.43c-4.89.0-9.2 3.99-9.47 8.87-3.17 5.27-.25 13.21 7.46 13.64 7.6.41 11.31-6.33 11.53-12.98.17-5.2-4.46-9.53-9.53-9.53z" fill="#5c711b"/><path d="M606.59 511.12c-4.72.46-7.76 4.34-7.65 8.25-2.23 3.11-1.08 8 1.43 10.52 3.22 3.19 9.3 3.62 12.45.0 2.91-3.37 4.6-7.32 3.08-11.78-1.33-3.89-4.91-7.41-9.31-6.99z" fill="#5c711b"/><path d="M664.21 171.81c.06 2.67.11 5.33.16 7.99.09 5.12 4.2 9.41 9.4 9.41s9.3-4.29 9.39-9.41c.06-2.66.11-5.32.16-7.99.23-12.31-19.34-12.31-19.1.0z" fill="#5c711b"/><path d="M581.23 120.86c-2.93 2.93-3.7 8.04-2.46 11.75 2.86 8.51 14.39 8.51 17.25.0 1.24-3.71.47-8.81-2.47-11.75-2.29-5.01-10.04-5.01-12.33.0z" fill="#5c711b"/><path d="M762.4 686.38c-1.29 3.59-1.44 6.85-.43 10.54 2.11 7.69 13.4 7.69 15.51.0 1.01-3.69.86-6.95-.44-10.54-2.58-7.23-12.08-7.23-14.65.0z" fill="#5c711b"/><path d="M936.79 368.93c.37 1.16.6 1.98.63 3.06.07 1.02.19 2.01.36 3.01-.11-.86-.12-.88-.03-.06.95 10.13 14.89 10.18 15.79.0.37-4.23-.89-8.15-3.01-11.8-4.21-7.28-16.43-2.44-13.74 5.79z" fill="#5c711b"/><path d="M997.4 409.08c5.33-4.3 4.96-14.15-.38-18.36-5.8-4.6-13.15.15-11.63 6.76-.01.12-.01.34.0.66-.11.96-.08 1.03.07.24-.13.5-.24 1-.28 1.5-.16.98-.24 1.5-.26 1.8-1.8 7.14 6.27 12.42 12.48 7.4z" fill="#5c711b"/><path d="M856.43 607.96c-2.86-4.54-10.89-5.62-13.49.0-1.89 4.13-1.71 8.43 1.07 12.18 2.73 3.68 7.23 5.53 11.53 3.02 4.59-2.68 5.35-8.84 2.03-12.79-.25-.86-.63-1.68-1.14-2.41z" fill="#5c711b"/><path d="M781.14 171.4c-1.82 2.69-2.31 6.84-2.03 10.02.95 10.54 15.45 10.54 16.4.0.28-3.18-.21-7.33-2.02-10.02-3.13-4.59-9.23-4.59-12.35.0z" fill="#5c711b"/><path d="M884.73 267.63c-3.39 3.39-3.32 8.23-.83 11.94.08.58.14 1.19.28 1.78 1.74 8.56 15.76 8.74 17.38.0 1.02-5.43-.31-9.5-3.75-13.72-3.19-3.93-9.79-3.31-13.08.0z" fill="#5c711b"/><path d="M1005.09 498.06c-.6-10.64-15.92-10.64-16.53.0-.16 2.65-.5 5.37-.22 8 1.14 10.93 15.85 10.93 16.99.0.27-2.63-.07-5.36-.24-8z" fill="#5c711b"/><path d="M157.16 405.3c1.69-2.16 3.1-4.03 3.09-6.91.0-1.79-.04-3.56-.06-5.34-.16-11.42-17.58-11.42-17.74.0-.03 1.43-.03 2.86-.06 4.28-.05 3.36 1.07 5.4 3.08 7.98 2.55 3.27 9.14 3.27 11.69.0z" fill="#5c711b"/><path d="M175.2 583.92c-1.56 5.3-2.07 9.73.28 14.92 2.5 5.56 12.16 5.56 14.67.0 2.34-5.18 1.83-9.62.28-14.92-2.22-7.55-13.03-7.55-15.23.0z" fill="#5c711b"/><path d="M239.55 250.18c.03 3.47.04 6.82.53 10.27 1.13 8.23 15.4 8.23 16.53.0.48-3.44.49-6.8.53-10.27.11-11.35-17.71-11.35-17.59.0z" fill="#5c711b"/><path d="M45.63 483.67c.41 4.89.68 8.45 1.75 12.87 1.85 7.66 14.49 8.18 15.97.0 1.13-6.28-.71-11.98-3.56-16.68-3.69-6.1-14.8-4.03-14.15 3.82z" fill="#5c711b"/><path d="M532.5 621.88c-3.63 2.13-5.75 7.28-4.06 11.29-.48 2.8.22 5.67 2.4 7.82 3.77 3.77 8.8 2.98 12.65.0 6-4.64 5.05-12.64.21-17.66-2.87-2.97-7.66-3.52-11.19-1.44z" fill="#5c711b"/><path d="M267.72 673.04c-.52 3.21-.89 6.31-.89 9.57.0 11.05 17.14 11.05 17.14.0.0-3.26-.37-6.36-.88-9.57-1.21-7.66-14.17-7.66-15.36.0z" fill="#5c711b"/><path d="M140.55 541.22c-.03 4.05-.32 7.74.25 11.78 1.09 7.84 14.73 7.87 15.8.0.76-5.58.28-10.53-2.87-15.35-3.78-5.78-13.12-3.69-13.18 3.57z" fill="#5c711b"/><path d="M478.65 135.6c-5.13.0-8.74 4.12-9.02 9.02-.26 4.75-1.86 9.43-1.37 14.39.39 3.94 2.4 7.37 6.45 8.49 4.21 1.14 10.11-1.41 10.82-6.15.86-5.62 2.16-10.96 2.14-16.73-.01-4.92-4.1-9.02-9.01-9.02z" fill="#5c711b"/><path d="M432.86 539.19c-1.58 2.01-3.03 3.48-3.73 6.09-.94 3.51-.32 6.89 1.47 9.97 1.54 2.66 4.47 4.31 7.53 4.31 4.21.0 6.94-2.73 8.4-6.4 1.48-3.67.53-7.19-1.23-10.22-1.27-5.16-8.59-8.64-12.44-3.75z" fill="#5c711b"/><path d="M330.83 176.61c-.3 2.71-.6 5.27-.45 8 .55 9.68 14.49 9.68 15.05.0.15-2.73-.16-5.3-.45-8-1.02-9.09-13.13-9.09-14.15.0z" fill="#5c711b"/><path d="M365.25 622.28c-.28 3.56-.77 7.11-.44 10.68.85 9.29 13.59 9.29 14.44.0.33-3.57-.15-7.12-.45-10.68-.73-8.71-12.83-8.71-13.55.0z" fill="#5c711b"/><path d="M324.89 598.82c.48 1.82.45 2.31.14 4.33-.5 3.54.29 6.9 3.6 8.83 3.43 2.03 8.87 1.04 10.7-2.8 2.31-4.9 2.7-9.42.93-14.59-3.3-9.66-18-5.79-15.38 4.24z" fill="#5c711b"/><path d="M894.13 660.31c-1.69-1.69-3.91-2.51-6.13-2.5-2.22-.01-4.44.81-6.13 2.5-2.79 2.71-3.46 7.01-3.19 10.73.36 5.06 3.95 9.31 9.32 9.31s8.94-4.25 9.32-9.31c.27-3.72-.4-8.02-3.19-10.73z" fill="#5c711b"/><path d="M116.02 636.85c-2.1-1.62-4.94-1.34-7.28-.26-.08.02-.14.05-.21.07h-.01c-2.03.73-3.65 2.18-4.29 4.51-.25.88-.22 1.85-.08 2.81.31 2.1.34 2.41.04.81-.08 1.02.0 2.01.28 3.02.68 3.58 2.02 6.33 4.67 8.89 4.79 4.61 14.19 1.59 13.74-5.69-.35-5.95-2.05-10.49-6.86-14.16z" fill="#5c711b"/></g><path d="M852.71 223.36c-.37 10.03-15.09 10.01-15.54.0-1.68-37.19-2.85-74.99-.67-112.17.49-8.3 12.31-8.27 12.86.0 2.48 37.14 4.73 74.95 3.34 112.17zm145.42-21.07c-7.38 7.61-13.87 15.52-22.09 21.76.29-8.56.8-17.14 1.8-25.73.88-7.49-12.05-9.23-13.19-1.79-6.28 41.24-5.22 84.44-2.31 125.98.61 8.7 13.06 8.78 13.57.0 1.57-27.46-.17-54.83-.16-82.25 14.29-5.13 26-16.26 33.58-29.32 4.06-7-5.51-14.52-11.2-8.65zM418 60.11c.69-8.7-12.54-8.47-13.43.0-.6 5.73-.85 11.45-.96 17.15-.19-.12-.42-.22-.62-.35-3.49-2.27-6.82-4.84-10.04-7.47-2.8-2.3-6.64-2.76-9.39.0-2.39 2.39-2.78 7.06.0 9.39 3.7 3.09 7.5 6.08 11.44 8.86 2.64 1.88 5.64 4.02 8.77 5.43.61 16.01 2.23 31.98 3.09 48.1.44 8.24 13.16 8.33 12.86.0-.97-27.04-3.87-54.07-1.72-81.12zM206.39 187.72c-5.64 4.95-11.12 10.02-17.22 14.3-.04-10.23-.01-20.47.06-30.74.06-8.23-11.85-7.93-12.58.0-.65 7.07-1.06 14.17-1.37 21.27-2.58-1.76-5.01-3.52-7.36-5.85-3.57-3.57-6.79-7.47-10.37-11.04-6.01-6-15.16 3.19-9.3 9.29 7.32 7.62 14.26 18.64 24.92 21.8.6.17 1.13.15 1.68.17-.42 26.2.96 52.48 2.97 78.55.7 9.11 15 9.17 14.27.0-1.81-22.71-2.5-45.38-2.76-68.08 9.8-5.38 17.92-13.09 26.26-20.47 6.3-5.57-2.92-14.69-9.19-9.19zm-116.88 130.79c-.19-8.65-13.42-8.66-13.43.0-.03 34.11 3.44 68.02 2.87 102.15-.14 8.93 13.1 8.73 13.71.0 2.41-34.05-2.39-68.12-3.15-102.15z" fill="#f0e0cc"/><path d="M352.74 426.2c-18.52 17.09-44.43 15.46-63.28.1-6.57-5.36 2.79-14.58 9.3-9.3 15.01 12.19 31.34 9.71 46.19-.89 5.98-4.29 13.1 5.2 7.79 10.09zm-100.75 80.12c-.96-3.49-4.5-5.27-7.91-4.49-2.01.46-4.24 1.98-6.39 1.63-3.37-.53-6.74.82-7.73 4.4-.89 3.23 1.06 6.92 4.39 7.74 4.56 1.09 10.8.92 14.69-2.03 2.34-1.77 3.79-4.23 2.96-7.26zM396.02 379.1c-2.35.0-4.23-.39-5.9-2.65-2.01-2.72-5.34-4.09-8.51-2.24-2.78 1.63-4.13 5.69-2.23 8.51 4.01 5.94 9.47 9.06 16.64 9.37 8.35.36 8.4-13 0-13zm91.42-14.73c-13.75 4.48-27.47-.21-35.1-12.64-4.1-6.66-14.44-.66-10.5 6.14 9.96 17.2 30.01 25.68 49.03 18.91 7.73-2.75 4.54-14.99-3.42-12.41zm6.79 78.19c-3.46.92-6.97 1.69-10.47 2.46-3.26.72-5.14 4.46-4.29 7.57.95 3.44 4.28 4.89 7.57 4.29 3.54-.63 7.07-1.27 10.58-2.05 7.97-1.78 4.57-14.38-3.38-12.27zm81.25-90.7c-6.37-5.27-8.38-13.4-9.79-21.22-1.41-7.83-13.17-4.48-11.87 3.27 1.68 9.83 4.89 20.2 12.76 26.85 6.17 5.22 15.13-3.73 8.89-8.9zm56.9 7.16c-11.2 6.71-22.58 7.71-34.86 3.11-7.79-2.92-11.06 9.47-3.41 12.41 14.31 5.47 32.19 5.2 44.76-4.41 6.39-4.86.83-15.49-6.49-11.1zm58.83-43.33c-9.82 15.39-15.43 43.36-4.98 59.75 4 6.28 14.16 2.31 12.14-5.12-4.31-15.8-4.84-33.65 3.35-48.49 3.8-6.9-6.3-12.73-10.51-6.14zm27.83 71.37c-1.55-1.44-3.1-2.9-4.65-4.35-5.87-5.49-14.3 2.93-8.8 8.8 1.45 1.54 2.91 3.09 4.35 4.65 5.68 6.07 15.16-3.42 9.1-9.1zm142.41 69.5c-22.58 3.98-54.71 5.41-65.09-20.02-2.98-7.31-14.96-4.19-11.99 3.31 13.11 33.19 50.01 34.68 80.62 29.53 8.42-1.42 4.86-14.28-3.54-12.82zm-142.7 41.98c-22.82-17.84-48.07-30.43-74.76-41.43-7.26-3-10.32 8.75-3.23 11.73 24.97 10.48 49.12 22.64 70.69 39.13 5.41 4.14 12.64-5.25 7.29-9.43zm42.55 24.98c-4.06-2.42-7.87-5.22-12.13-7.33-7.12-3.56-13.39 6.92-6.28 10.74 4.19 2.25 7.91 5.16 11.92 7.69 7.02 4.45 13.62-6.87 6.49-11.1zm-86 106.28c-12.59 2.35-25.63-3.12-33.83-12.69-5.16-6.03-13.82 2.71-8.69 8.7 11.17 13.05 29.01 18.98 45.8 15.86 7.79-1.45 4.48-13.31-3.28-11.87zm35.29-3.07c-2.18.72-4.32 1.27-6.61 1.35-7.9.3-7.96 12.47.0 12.29 3.37-.06 6.69-.66 9.92-1.65 7.65-2.38 4.32-14.49-3.31-12zm-272.76-167.09c-39.61 9.7-82.99 26.22-118 47.24-7.28 4.36-.81 15.39 6.63 11.35 35.25-19.13 76.2-34.98 114.87-45.91 8.16-2.31 4.73-14.71-3.5-12.68z" fill="#fcfcfc"/><path d="M271.78 449.7c-2.93 33.32-36.13 62.41-66.25 36.5-5.5-4.74 1.58-13.45 7.63-9.88 10.09 5.98 22.09 9.46 31.58.2 8.02-7.84 11.83-17.73 13.85-28.59 1.39-7.42 13.85-5.74 13.19 1.78zm74.8-68.38c-9.93 14.1-25.08 17.15-40.11 8.57-7.48-4.26-13.9 6.89-6.7 11.47 19.61 12.49 47.58 9.41 58.04-13.47 3.49-7.62-6.36-13.46-11.23-6.56zm60.21-41.28c-5.25 4.56-12.65 7.52-18.7 2.66-6.78-5.44-16.54 4.02-9.7 9.7 12.24 10.16 26.67 7.74 37.4-3.34 5.75-5.97-2.87-14.33-9.01-9.01zm107.97-19.22c-15.82 12.29-38.06 18.81-52.9 1.19-5.32-6.31-14.11 2.72-8.99 9 17.42 21.38 53.36 19.24 71.27-.81 5.86-6.54-2.75-14.54-9.38-9.38zm124.46 1.84c-13.93 7.25-41.35 24.15-47.27-.92-1.99-8.46-14.21-4.75-12.82 3.54 5.67 33.52 49.92 28.18 68.3 8.03 5.25-5.75-1.33-14.23-8.22-10.65zm126.06 37.37c-17.66 15-35.38 1.89-43.98-15.72-3.2-6.55-14.08-1.93-11.76 4.96 9.46 27.96 41.89 42.84 64.84 19.86 5.95-5.95-2.85-14.39-9.1-9.1zm85.36 68.97c-17.89 8.23-29.32-4.75-37.56-19.39-3.82-6.78-13.93-.78-10.38 6.07 5.38 10.33 12.02 20.06 22.34 25.94 10.29 5.87 22.11 3.39 32.24-1.27 7.7-3.53 1.01-14.85-6.63-11.35zm-287.54-223.93c-160.79-7.11-335.15 66.89-386.67 229.67-2.84 8.97 11.21 12.79 14.04 3.88 49.49-156.37 222.26-218.6 372.63-215.25 123.23 2.75 292.77 53.02 325.81 188.09 2.13 8.69 14.81 4.92 13.22-3.64-27.36-146.64-210.8-197.09-339.03-202.75zm36.05 399.87c-.58 7.26 11.07 8.74 12.63 1.7 11.65-52.61 123.98-55.8 130.37 1.3.86 7.69 12.68 8.07 12.3.0-3.49-73.6-149.47-76.77-155.3-3.01z" fill="#529bbf"/></g></g></g></svg>