<svg xmlns="http://www.w3.org/2000/svg" width="1080" height="1080" viewBox="0 0 1080 1080"><g id="a"/><g id="b"><g id="c"><g id="d"><path d="M563.27 498.1c-12.59-9.46-21.3-23.99-22.74-40.93-.77-9.07.67-17.8 3.78-25.73-17.96-8.4-31.08-25.86-32.89-47.04-2.68-31.54 20.71-59.29 52.25-61.97.1.0.2.0.29.0-.35-1.89-.62-3.82-.79-5.78-2.69-31.54 20.71-59.28 52.25-61.97 11.83-1.01 23.12 1.65 32.76 7.03-.23-1.51-.49-3-.62-4.54-3.19-37.51 24.63-70.5 62.13-73.69 37.15-3.16 69.82 24.11 73.55 61.07.58.16 1.15.34 1.73.5 12.8-10.79 28.94-17.88 46.89-19.4 46.19-3.93 86.82 30.33 90.75 76.52 1.03 12.11-.59 23.84-4.33 34.62 2.35-.5 4.73-.91 7.19-1.12 31.54-2.68 59.28 20.71 61.97 52.25.89 10.49-1.15 20.53-5.37 29.4 36.57-1.21 65.28-.57 83.98.29C1010.61 178.33 796.13.0 540 0 241.77.0.0 241.76.0 540c0 102.64 28.64 198.6 78.36 280.31 151.66-165.71 325.02-264.13 484.91-322.21zM293.31 195.84c74.72.0 135.3 60.57 135.3 135.3s-60.58 135.3-135.3 135.3-135.3-60.58-135.3-135.3 60.58-135.3 135.3-135.3z" fill="#38b3c8"/><circle cx="293.31" cy="331.14" r="135.3" transform="translate(-148.24 304.39) rotate(-45)" fill="#ffe051"/><path d="M699.76 558.33c-2.66 1.69-5.46 3.17-8.4 4.41 9.83 20.99 18.02 42.74 24.37 65.03-5.03-23.21-10.38-46.36-15.97-69.45z" fill="#96c269"/><path d="M982.08 417.31c-8.46 17.8-25.83 30.78-46.88 32.57-6.13.52-12.1.03-17.79-1.28 3.07 6.23 5.1 13.1 5.73 20.45 2.68 31.54-20.71 59.28-52.25 61.97-9.68.82-18.97-.85-27.31-4.44-41.03 87.35-64.3 183.03-67.7 279.48-13.04-.63-26.12-.26-39.11 1-6.44 15.83-15.28 30.12-26.55 29.71-18.04-.65-37.75-48.4-38.12-63.18-.21-8.41 5.56-19.12 13.62-16.72 2.83.84 4.95 3.18 6.78 5.5 10.35 13.07 17.05 29 19.15 45.53.98-9.08 2.78-18.06 5.32-26.83-3.76-27.72-8-55.37-13.18-82.86-8.5-45.07-20.32-88.38-35.46-130.92-29.14-.36-53.8-22.8-56.33-52.44-.2-2.39-.21-4.74-.12-7.08-3.03.77-6.14 1.37-9.36 1.65-14.61 1.24-28.36-3.16-39.23-11.32-159.89 58.08-333.24 156.5-484.91 322.21 94.75 155.7 266.05 259.69 461.64 259.69 298.23.0 540-241.76 540-540 0-42.1-4.82-83.07-13.94-122.4-18.71-.86-47.42-1.5-83.98-.29zM279.99 904.95c-4 14.98-16.67 67.49-38.12 66.71-18.04-.65-37.75-48.4-38.12-63.18-.21-8.41 5.56-19.12 13.62-16.72 2.83.84 4.95 3.18 6.78 5.5 10.35 13.07 17.05 29 19.15 45.53 1.77-16.34 6.1-32.41 12.8-47.42 3.22-7.21 9.42-15.37 17.07-13.4 8.63 2.22 8.96 14.32 6.82 22.97zm12.22-147.4c-4 14.98-16.67 67.49-38.12 66.71-18.04-.65-37.75-48.4-38.12-63.17-.21-8.41 5.56-19.12 13.62-16.72 2.83.84 4.95 3.18 6.78 5.5 10.35 13.07 17.05 29 19.15 45.54 1.77-16.34 6.11-32.41 12.8-47.42 3.22-7.21 9.42-15.37 17.07-13.41 8.63 2.22 8.96 14.32 6.82 22.97zm52.12-92.47c-.21-8.41 5.56-19.12 13.62-16.72 2.84.84 4.95 3.18 6.78 5.5 10.35 13.07 17.05 29 19.15 45.54 1.77-16.34 6.1-32.4 12.8-47.41 3.22-7.21 9.42-15.37 17.07-13.41 8.63 2.22 8.96 14.32 6.82 22.97-4 14.98-16.67 67.49-38.12 66.71-18.04-.65-37.75-48.4-38.12-63.18zm121.24 239.86c-4 14.98-16.67 67.49-38.12 66.71-18.04-.65-37.75-48.4-38.12-63.18-.21-8.41 5.56-19.12 13.62-16.72 2.84.84 4.95 3.18 6.78 5.5 10.35 13.07 17.05 29 19.15 45.53 1.77-16.34 6.1-32.41 12.8-47.42 3.22-7.21 9.42-15.37 17.07-13.4 8.63 2.22 8.96 14.32 6.82 22.97zm77.36-162.6c-3.99 14.98-16.67 67.49-38.12 66.71-18.04-.65-37.75-48.4-38.12-63.18-.21-8.41 5.56-19.12 13.62-16.72 2.83.84 4.94 3.18 6.78 5.5 10.35 13.07 17.05 29 19.15 45.53 1.77-16.34 6.1-32.4 12.8-47.41 3.22-7.21 9.42-15.37 17.07-13.41 8.63 2.22 8.96 14.32 6.82 22.97zm42.41-148.23c2.84.85 4.94 3.18 6.78 5.5 10.35 13.07 17.05 29 19.15 45.53 1.77-16.34 6.1-32.41 12.8-47.42 3.22-7.21 9.42-15.37 17.07-13.41 8.63 2.22 8.96 14.32 6.82 22.97-4 14.98-16.67 67.49-38.12 66.71-18.04-.65-37.74-48.4-38.12-63.18-.21-8.41 5.56-19.12 13.62-16.72zm74.51 300.53c-4 14.98-16.67 67.49-38.12 66.71-18.04-.65-37.75-48.4-38.12-63.18-.21-8.41 5.56-19.12 13.62-16.72 2.83.84 4.94 3.18 6.78 5.5 10.35 13.07 17.05 29 19.15 45.53 1.77-16.34 6.1-32.4 12.8-47.41 3.22-7.21 9.42-15.37 17.07-13.41 8.63 2.22 8.96 14.32 6.82 22.97zm139.08 44.99c-4 14.98-16.67 67.49-38.12 66.71-18.04-.65-37.75-48.4-38.12-63.18-.21-8.41 5.56-19.12 13.62-16.72 2.83.84 4.95 3.18 6.78 5.5 10.35 13.07 17.05 29 19.14 45.54 1.77-16.34 6.11-32.4 12.8-47.41 3.22-7.21 9.42-15.37 17.07-13.41 8.63 2.22 8.96 14.32 6.82 22.97zm89.47-148.49c-4 14.98-16.67 67.49-38.12 66.71-18.04-.65-37.75-48.4-38.12-63.18-.21-8.41 5.56-19.12 13.62-16.72 2.83.84 4.95 3.18 6.78 5.5 10.35 13.07 17.05 29 19.14 45.54 1.77-16.34 6.11-32.41 12.8-47.42 3.22-7.21 9.42-15.37 17.07-13.41 8.63 2.22 8.96 14.32 6.82 22.97zm73.87-138.85c-4 14.98-16.67 67.49-38.12 66.71-18.04-.65-37.75-48.4-38.12-63.18-.21-8.41 5.56-19.12 13.62-16.72 2.83.84 4.95 3.18 6.78 5.5 10.35 13.07 17.05 29 19.15 45.53 1.77-16.34 6.1-32.4 12.8-47.41 3.22-7.21 9.42-15.37 17.07-13.41 8.63 2.22 8.96 14.32 6.82 22.97z" fill="#96c269"/><path d="M774.98 578.48c-.65.07-1.28.19-1.93.24-11.65.99-22.87-.94-32.97-5.15 10.08 29.95 17.26 60.88 21.32 92.23 3.23-29.1 6.71-58.84 13.58-87.32z" fill="#96c269"/><path d="M602.5 509.42c3.22-.27 6.33-.87 9.36-1.65-.09 2.34-.08 4.69.12 7.08 2.52 29.64 27.18 52.08 56.33 52.44-6.9-19.36-14.42-38.58-22.74-57.69-5.2-11.94-5.37-27.45 8.07-12.13 10.18 11.61 17.89 27.18 25.27 40.67 4.42 8.06 8.55 16.28 12.44 24.6 2.94-1.25 5.74-2.72 8.4-4.41-4.81-19.82-9.8-39.59-15.02-59.3 6.96-.51 13.81-2.51 19.95-5.83 14.22 25.64 26.05 52.59 35.4 80.38 10.1 4.2 21.32 6.14 32.97 5.15.65-.06 1.28-.17 1.93-.24 6.63-27.51 16.4-53.85 32.22-77.29 2.18-3.24 4.65-6.55 8.23-8.1 3.95-1.71 8.49-.95 12.69.0 9.4 2.15 18.61 5.16 27.46 9-4.18 8.07-8.14 16.25-12 24.47 8.34 3.59 17.63 5.26 27.31 4.44 31.54-2.68 54.93-30.43 52.25-61.97-.63-7.34-2.66-14.21-5.73-20.45 5.69 1.32 11.66 1.8 17.79 1.28 21.05-1.79 38.42-14.77 46.88-32.57 4.22-8.87 6.26-18.91 5.37-29.4-2.68-31.54-30.43-54.93-61.97-52.25-2.46.21-4.84.62-7.19 1.12 3.75-10.79 5.37-22.51 4.33-34.62-3.93-46.19-44.56-80.45-90.75-76.52-17.95 1.53-34.09 8.62-46.89 19.4-.58-.16-1.15-.34-1.73-.5-3.72-36.96-36.4-64.24-73.55-61.07-37.51 3.19-65.33 36.18-62.13 73.69.13 1.54.39 3.04.62 4.54-9.64-5.38-20.93-8.04-32.76-7.03-31.54 2.68-54.93 30.43-52.25 61.97.17 1.96.43 3.89.79 5.78-.1.0-.19.0-.29.0-31.54 2.68-54.93 30.43-52.25 61.97 1.8 21.18 14.93 38.63 32.89 47.04-3.11 7.94-4.56 16.66-3.78 25.73 1.44 16.93 10.14 31.47 22.74 40.93 10.87 8.16 24.62 12.56 39.23 11.32z" fill="#43ab6c"/><path d="M828.12 493.1c-4.2-.96-8.74-1.72-12.69.0-3.58 1.55-6.05 4.86-8.23 8.1-15.82 23.44-25.59 49.78-32.22 77.29-6.86 28.49-10.34 58.23-13.58 87.32-4.06-31.34-11.24-62.27-21.32-92.23-9.35-27.79-21.18-54.74-35.4-80.38-6.14 3.32-12.98 5.33-19.95 5.83 5.22 19.71 10.21 39.48 15.02 59.3 5.6 23.09 10.94 46.23 15.97 69.45-6.36-22.29-14.54-44.04-24.37-65.03-3.9-8.33-8.03-16.54-12.44-24.6-7.39-13.49-15.09-29.06-25.27-40.67-13.44-15.32-13.28.18-8.07 12.13 8.33 19.12 15.85 38.33 22.74 57.69 15.15 42.53 26.97 85.85 35.46 130.92 5.18 27.49 9.42 55.14 13.18 82.86 2.03-7.02 4.51-13.91 7.49-20.58 3.22-7.21 9.42-15.37 17.07-13.41 8.63 2.22 8.96 14.32 6.82 22.97-1.9 7.11-5.76 22.69-11.58 37 12.99-1.26 26.07-1.63 39.11-1 3.4-96.46 26.67-192.13 67.7-279.48 3.86-8.23 7.83-16.4 12-24.47-8.85-3.83-18.06-6.85-27.46-9z" fill="#411000"/><path d="M458.75 881.98c-7.65-1.97-13.85 6.19-17.07 13.4-6.7 15.01-11.04 31.07-12.8 47.42-2.09-16.54-8.79-32.47-19.15-45.53-1.84-2.32-3.95-4.65-6.78-5.5-8.06-2.4-13.83 8.31-13.62 16.72.37 14.78 20.08 62.52 38.12 63.18 21.46.78 34.13-51.73 38.12-66.71 2.15-8.64 1.81-20.75-6.82-22.97z" fill="#43ab6c"/><path d="M285.39 734.59c-7.65-1.97-13.85 6.2-17.07 13.41-6.7 15.01-11.04 31.07-12.8 47.42-2.09-16.54-8.79-32.47-19.15-45.54-1.84-2.32-3.95-4.66-6.78-5.5-8.06-2.4-13.84 8.31-13.62 16.72.37 14.78 20.08 62.52 38.12 63.17 21.46.77 34.13-51.73 38.12-66.71 2.15-8.64 1.81-20.75-6.82-22.97z" fill="#43ab6c"/><path d="M536.11 719.38c-7.65-1.97-13.85 6.19-17.07 13.41-6.7 15.01-11.04 31.07-12.8 47.41-2.09-16.54-8.79-32.47-19.15-45.53-1.84-2.32-3.95-4.66-6.78-5.5-8.06-2.4-13.84 8.31-13.62 16.72.37 14.78 20.08 62.53 38.12 63.18 21.45.77 34.13-51.73 38.12-66.71 2.15-8.65 1.81-20.75-6.82-22.97z" fill="#43ab6c"/><path d="M420.57 661.55c2.15-8.64 1.81-20.75-6.82-22.97-7.65-1.97-13.85 6.19-17.07 13.41-6.7 15.01-11.04 31.07-12.8 47.41-2.09-16.54-8.79-32.47-19.15-45.54-1.84-2.32-3.95-4.65-6.78-5.5-8.06-2.4-13.83 8.31-13.62 16.72.37 14.78 20.08 62.53 38.12 63.18 21.46.77 34.13-51.73 38.12-66.71z" fill="#43ab6c"/><path d="M609.83 674.01c21.46.77 34.13-51.73 38.12-66.71 2.15-8.64 1.81-20.75-6.82-22.97-7.65-1.97-13.85 6.2-17.07 13.41-6.7 15.01-11.04 31.07-12.8 47.42-2.09-16.54-8.79-32.47-19.15-45.53-1.84-2.32-3.95-4.65-6.78-5.5-8.06-2.4-13.84 8.31-13.62 16.72.37 14.78 20.08 62.52 38.12 63.18z" fill="#43ab6c"/><path d="M741.52 747.08c-7.65-1.97-13.85 6.19-17.07 13.41-2.98 6.67-5.46 13.56-7.49 20.58-2.53 8.77-4.33 17.76-5.32 26.83-2.09-16.54-8.79-32.47-19.15-45.53-1.84-2.32-3.95-4.66-6.78-5.5-8.06-2.4-13.83 8.31-13.62 16.72.37 14.78 20.08 62.53 38.12 63.18 11.27.41 20.11-13.88 26.55-29.71 5.82-14.32 9.68-29.89 11.58-37 2.15-8.64 1.81-20.75-6.82-22.97z" fill="#43ab6c"/><path d="M881.56 768.18c-7.65-1.97-13.85 6.2-17.07 13.41-6.7 15.01-11.04 31.07-12.8 47.42-2.09-16.54-8.79-32.47-19.14-45.54-1.84-2.32-3.95-4.65-6.78-5.5-8.06-2.4-13.84 8.31-13.62 16.72.37 14.78 20.08 62.52 38.12 63.18 21.46.78 34.13-51.73 38.12-66.71 2.15-8.64 1.81-20.75-6.82-22.97z" fill="#43ab6c"/><path d="M653.02 871.68c-7.65-1.97-13.85 6.19-17.07 13.41-6.7 15.01-11.04 31.07-12.8 47.41-2.09-16.54-8.79-32.47-19.15-45.53-1.84-2.32-3.95-4.66-6.78-5.5-8.06-2.4-13.84 8.31-13.62 16.72.37 14.78 20.08 62.53 38.12 63.18 21.46.77 34.13-51.73 38.12-66.71 2.15-8.65 1.81-20.75-6.82-22.97z" fill="#43ab6c"/><path d="M792.1 916.67c-7.65-1.97-13.85 6.19-17.07 13.41-6.7 15.01-11.04 31.07-12.8 47.41-2.09-16.54-8.79-32.47-19.14-45.54-1.84-2.32-3.95-4.65-6.78-5.5-8.06-2.4-13.84 8.31-13.62 16.72.37 14.78 20.08 62.53 38.12 63.18 21.46.77 34.13-51.73 38.12-66.71 2.15-8.64 1.81-20.75-6.82-22.97z" fill="#43ab6c"/><path d="M273.17 881.98c-7.65-1.97-13.85 6.19-17.07 13.4-6.7 15.01-11.04 31.07-12.8 47.42-2.09-16.54-8.79-32.47-19.15-45.53-1.84-2.32-3.95-4.65-6.78-5.5-8.06-2.4-13.84 8.31-13.62 16.72.37 14.78 20.08 62.52 38.12 63.18 21.46.78 34.13-51.73 38.12-66.71 2.15-8.64 1.81-20.75-6.82-22.97z" fill="#43ab6c"/><path d="M955.43 629.33c-7.65-1.97-13.85 6.2-17.07 13.41-6.7 15.01-11.04 31.07-12.8 47.41-2.09-16.54-8.79-32.47-19.15-45.53-1.84-2.32-3.95-4.66-6.78-5.5-8.06-2.4-13.83 8.31-13.62 16.72.37 14.78 20.08 62.52 38.12 63.18 21.46.77 34.13-51.73 38.12-66.71 2.15-8.65 1.81-20.75-6.82-22.97z" fill="#43ab6c"/></g></g></g></svg>