<svg xmlns="http://www.w3.org/2000/svg" width="1080" height="1051.3" viewBox="0 0 1080 1051.3"><g id="a"/><g id="b"><g id="c"><g id="d"><path d="M518.68 1050.98c-25.85 2.16-56.04-7.12-86.61-13.49-21.36-4.45-42.59-9.54-63.84-14.51-7.38-1.73-15.21-2.82-21.86-6.14-15.36-7.67-30.76-14.67-47.7-18.4-6.22-1.37-11.76-6.02-17.51-9.35-20.49-11.88-39.49-26.06-60.09-37.92-17.06-9.83-32.09-23.56-46.9-36.8-14.15-12.65-26.94-26.84-40.2-40.49-18.57-19.12-35.47-39.28-46.71-64-8.62-18.95-19.78-36.73-29.24-55.32-19.98-39.26-31.88-81.33-40.81-124.19-6.01-28.84-10.56-58-15.01-87.13-4.66-30.52-1.38-60.73 5.01-90.78 12.51-58.8 31.3-115.5 57.18-169.71 11.83-24.79 24.5-49.24 44.13-69.32 7.23-7.4 11.79-17.41 19.05-24.77 35.32-35.83 68.8-74.08 112.46-100.18 31.76-18.99 65.07-35.43 98-52.38 7.46-3.84 16.19-5.36 24.45-7.49 26.7-6.88 53.14-15.71 80.27-19.8C484.03 2.57 525.8-1.33 567.71.42c19.93.83 39.77 3.95 59.69 4.64 16.5.57 31.81 4.41 46.93 10.63 18.46 7.59 36.85 15.8 55.98 21.18 21.42 6.02 40.51 16.23 59.59 26.92 7.46 4.18 14.66 9.24 22.62 12.05 36.41 12.83 68.58 32.37 96.91 58.55 9.74 9 20.4 17.01 30.59 25.53 20.53 17.16 37.97 37.13 53.39 58.92 3.29 4.65 5.59 10.3 9.69 14.02 23.05 20.92 31.65 49.23 40.04 77.5 7.57 25.5 14.26 51.26 20.9 77.02 4.02 15.61 8.47 31.27 10.52 47.2 4.83 37.51 8.15 75.06 2.28 113.02-3.92 25.33-4.85 51.11-7.41 76.66-.75 7.52-1.32 15.42-4.04 22.33-10.06 25.51-19.08 51.41-31.62 75.97-17.78 34.83-38.44 67.78-61.62 99.13-31.15 42.14-66.24 80.23-108.6 111.96-25.23 18.9-51.8 35.31-78.8 50.92-31.22 18.04-63.9 33.84-100.44 38.9-3.73.52-7.39 1.79-11 2.94-31.79 10.19-64.4 16.2-97.47 20.54-17.05 2.24-34.06 3.62-57.19 4.02z" fill="#070707"/><path d="M536.18 10.08c32.66-1.55 62 1.2 90.92 7.3 10.88 2.3 22.07 3.94 31.31 12.38 5.21 4.76 13.77 6.12 21.03 8.32 20.91 6.34 41.94 12.27 62.88 18.49 3.62 1.07 7.18 2.51 10.57 4.16 34.11 16.67 68.43 32.97 99.79 54.7 3.89 2.7 8.14 4.93 12.41 7.01 30.69 14.9 54.63 37.2 72.99 65.8 2.55 3.97 5.35 7.96 8.74 11.18 26.45 25.16 43.57 57.41 65.59 85.92 5.93 7.67 8.28 16.93 11.83 25.74 9.6 23.8 21.31 46.8 23.37 73.06.36 4.58 2.96 9 4.63 13.46 7.72 20.67 12.08 41.88 12.48 64.07.21 11.3 2.93 22.54 3.92 33.86.49 5.62.0 11.4-.75 17.01-.5 3.8-4.01 3.58-6.5 2.33-3.36-1.68-6.21-4.36-9.51-6.21-3.91-2.2-7.56-.73-10.01 2.44-4.05 5.24-7.5 10.94-11.37 16.33-1.63 2.28-4.21 6.39-5.44 6.07-18.46-4.76-20.18 13.57-29.67 21-1.43 1.12-3.14 1.97-4.84 2.65-.71.28-1.88.05-2.55-.39-.65-.43-1.48-1.58-1.31-2.13 2.47-8.09 8.53-14.81 8.25-24.04-.23-7.8.12-15.23-8.57-19.26-12-5.57-15.62-15.75-14.93-28.25.37-6.65.21-13.32.32-19.98.08-4.99-1.13-9.32-5.59-12.28-12.12-8.02-16.73-19.95-18.37-33.86-.69-5.86-5.73-6.92-10.9-5.47-2.72.77-5.19 2.45-7.92 3.18-4.41 1.18-7.3-.67-7.94-5.28-.52-3.77-.17-7.74-1.22-11.33-2.37-8.15 3.49-17.66-3.43-24.71-5.86-5.98-14.69-2.32-21.71-5.09-2.66-1.04-5.56-1.72-7.9-3.26-35.98-23.67-65.17-52.22-69.67-98.25-.09-.95.01-1.91-.1-2.85-1.46-12.33-5.64-16.4-15.94-12.34-13.84 5.47-27.96 4.53-42.15 5.22-17.45.85-33.86-4.76-50.44-8.36-10.92-2.37-20.81-9.37-27.56-19.23-3.75-5.47-7.07-11.24-10.77-16.75-4.18-6.21-8.44-7.64-14.07-3.03-22.71 18.61-44.44 8.88-66.13-1.75-3.3-1.61-6.15-4.57-8.57-7.45-5.02-5.98-10.36-6.71-17.69-3.98-10.65 3.96-21.82 6.48-32.71 9.82-15.92 4.89-31.84 4.67-47.9.76-7.39-1.8-14.93-2.94-22.34-4.67-12.1-2.82-23.78-6.27-32.11-16.77-2.84-3.58-7.34-5.97-11.39-8.4-5.09-3.06-10.55-4.07-16.27-1.22-21.82 10.87-44.01 9.51-66.45 2.1-3.53-1.17-7.47-1.68-11.18-1.56-3.87.13-7.39 2-8.36 6.29-.62 2.75-.45 5.67-.92 8.46-4.74 27.59-26.29 39.95-52.35 29.94-3.53-1.35-6.67-3.66-10.11-5.27-11.66-5.46-23.86-6.15-36.27-3.44-8.35 1.82-16.99 3.13-24.82 6.33-22.02 9.02-42.99 2.03-64.19-2.91-2.45-.57-3.28-2.49-1.82-4.51 7.22-9.96 13.47-20.95 22.15-29.44 15.55-15.23 31.13-30.52 46.97-45.35 23.49-22 50.26-40.46 79-55.49 18.44-9.64 37-19.06 55.8-27.97 22.39-10.61 45.23-19.86 70.5-21.45 7.49-.47 15.07-2.59 22.21-5.1 38.28-13.45 77.86-17.16 115.04-16.3z" fill="#f783c0"/><path d="M800.03 587.67c-.9 8.4 4.27 14.48 8.5 20.62 14.13 20.51 17.9 43.59 17.12 67.7-.22 6.81-1.81 14.19 3.92 18.66 12.8 9.97 13.59 24.96 16 38.46 4.12 23.04 1.06 45.6-13.6 65.18-1.01 1.35-3.01 2.54-4.62 2.65-.96.06-2.81-2.03-3-3.33-.96-6.57-.68-13.43-2.4-19.76-2.63-9.64-8.55-17.27-19.07-19.09-10.03-1.73-18.75 1.71-25.77 9.13-1.29 1.37-2.22 3.08-3.29 4.66-3.14 4.6-4.52 12.73-10.48 12.43-8.25-.4-12-8.29-15.09-15.45-6.08-14.04-11.56-28.2-9.96-44 .53-5.2 5.91-11.03-.59-15.46-5.06-3.45-11.07-1.45-16.62-.39-7.53 1.44-14.88 1.04-22.56.46-19.27-1.46-34.73-8.91-46.55-24.17-1.7-2.2-3.82-4.11-5.95-5.92-2.46-2.1-8.6-.52-9.76 2.68-1.59 4.4-2.07 9.29-4.11 13.42-3.67 7.43-14.13 7.95-19.09 1.49-5.6-7.29-7.19-15.57-5.43-24.28.93-4.56 3.43-8.81 5.26-13.19 4.87-11.7 3.16-14.28-10.21-15.1-4.74-.29-9.64.36-14.2-.64-16.94-3.71-33.34-7.96-40.43-27.18-2.69-7.3-10.84-7.5-15.94-1.62-3.09 3.56-5.45 7.8-8.81 11.05-7.75 7.5-16.83 12.29-28.07 11.97-18.87-.54-38 2.88-56.38-4.75-5.22-2.17-9.47 2.01-8.54 7.6.62 3.73 2.34 7.28 2.82 11.01.49 3.79-.23 7.63-3.47 10.35-3.56 2.98-6.94.9-10.47-.31-7.6-2.61-11.83-9.37-17.84-13.92-4.47-3.39-9.4-6.21-14.34-8.9-2.78-1.52-8.63 1.61-9.16 4.58-.33 1.86-.65 3.83-.38 5.67 1.7 11.62-4.85 19.46-11.25 28.07-8.06 10.84-21.77 10.96-31.23 18.86-10.05 8.39-21.45 5.38-32.61 2.46-6.48-1.7-11.94.26-13.55 6.65-2.59 10.24-7.61 16.64-18.44 19.07-6.18 1.39-7.82 6.1-5.04 10.55 5.02 8.03 11.66 15.42 9.46 25.92-2.62 12.46-8.92 22.72-18.38 31.41-11.52 10.58-10.95 14.84.63 23.49 8.13 6.07 17.08 8.63 26.8 7.13 7.42-1.15 14.59-3.88 21.9-5.8 3.58-.94 7.19 3.4 6.28 7.14-1.85 7.69-5.37 14.42-12.14 18.68-8.01 5.04-16.06 10.23-24.69 13.98-8.8 3.82-14.82 8.16-12.66 18.97 1.32 6.64 1.06 13.32-2.69 19.33-3.86 6.18-1.06 10.73 3.43 14.93 6.73 6.29 6.2 13.48 2.18 20.76-3.2 5.79-6.59 11.53-10.52 16.83-3.9 5.26-9.1 5.4-14.84 1.11-6.86-5.11-13.32-10.83-20.53-15.36-15.48-9.74-23.28-25.71-28.16-41.33-5.68-18.2-4.05-38.02 10.04-53.66 5.62-6.23 5.69-11.85.82-17.63-19.33-22.9-14.51-45.42.51-67.97 1.05-1.58 1.64-3.54 2.89-4.91 8.87-9.7 11.75-19.73 7.41-33.27-5.28-16.49-2.81-34.03-.39-51.02 1.9-13.38 6.57-26.3 16.19-35.85 7.82-7.77 12.05-15.07 12.35-26.76.66-25.75 12.24-47.46 30.3-65.66 3.33-3.36 6.63-8.16 10.7-9.13 15.68-3.71 21.76-15.55 29.51-27.99 10.97-17.62 24.09-34.13 39.5-48.54 7.14-6.68 15.01-11.93 24.29-14.39 11.93-3.17 24.12-5.34 36.21-7.93.93-.2 1.93-.1 2.83-.36 9.71-2.82 17.79 9.01 27.24 3.69 8.2-4.61 15.2-11.31 23.2-16.33 6.52-4.09 14.22-5.83 21.88-5.63 12.04.31 24.84-6.85 36.01 1.92 13.69 10.74 20.47-10.6 33.59-6.22 8.12 2.71 16.33 4.4 23.16 9.82 10.02 7.95 19.4 11.96 33.79 8.07 16.58-4.49 32.87.88 47.96 12.04 13.65 10.1 24.5 21.02 28.83 37.2 2.44 9.1 7.75 11.86 16.17 12.83 15.52 1.78 29.87 7.32 40.25 19.29 13.7 15.79 28.01 32.15 29.36 54.14 1.05 17.06 8.81 26.14 24.64 29.73l-.63-.65z" fill="#ebcd97"/><path d="M645.82 930.81c2.64 3.88 4.44 9 8.06 11.42 22.78 15.25 42.7 35.14 69.86 43.45 3.36 1.03 6.27 4.07 8.9 6.68.85.84.77 3.78-.06 4.84-1.02 1.31-3.27 1.63-4.97 2.43-28.96 13.56-51.08-2.36-73.24-17.3-6.26-4.22-11.54-9.89-17.53-14.56-1.11-.87-3.46-.34-5.22-.16-2.16.22-2.8 5.32-.93 7.44 12.11 13.67 26.06 24.88 42.85 32.42 1.38.62 2.59 3.02 2.67 4.65.06 1.3-1.44 3.41-2.73 3.92-17.88 6.97-37.15 7.63-55.62 11.99-7.02 1.66-13.03-1.68-18.37-5.98-16.24-13.06-34.48-23.72-47.76-40.36-2.89-3.62-6.99-6.44-10.96-8.97-2.18-1.39-5.65-2.36-7.34 1.06-.69 1.4-.38 3.69.26 5.25.68 1.68 2.07 3.23 3.49 4.43 16.71 14.03 30.63 31.23 49.02 43.39 1.4.93 2.13 2.89 3.17 4.37-1.49.79-2.92 2.11-4.48 2.28-13.22 1.45-26.48 2.65-39.71 4.02-8.91.92-16.94-1.3-24.34-6.26-14.28-9.58-27.38-20.6-39.49-32.75-11.42-11.45-22.33-23.41-33.56-35.06-3.9-4.05-7.23-8.98-13.48-9.85-1.28-.45-2.56-.9-3.84-1.35-27.69-26.47-39.37-60.76-47.28-96.89.1-1.35.2-2.7.29-4.05 1.26-17.92-8.14-32.93-14.39-48.45-11.11-27.58-14.53-56.56-19.18-85.4-1.36-8.43 1.96-14.07 9.01-19.03 10-7.03 19.89-14.49 26.31-25.46.62-1.06 3.45-1.73 4.75-1.24 1.32.5 2.68 2.58 2.86 4.1.66 5.63.91 11.3 1.2 16.97 1.96 38.22 13.33 74.24 26.15 109.83 2.71 7.54 5.23 16.47 14.67 19.51 3.48 6.7 3.96 15.04 10.38 19.42-.46-.47-.09-.11-.47-.49-6.8-4.73-5.91-13.11-10.39-18.53 1.66-13.03-5.56-23.83-9.04-35.55-2.97-9.99-6.34-19.9-10.23-29.57-10.21-25.4-9.41-52.13-9.87-78.7-.04-2.21 1.84-5.72 3.65-6.39 2.97-1.11 4.87 2.03 6.28 4.52 1.4 2.47 2.28 5.3 4 7.51 3.15 4.04 10.07 4.05 12.13-.17 4.95-10.18 12.18-19.32 14.06-30.94.69-4.25 3.71-6.6 8.05-5.94 3.84.59 7.57 2.46 8.72 6.38 2.13 7.27 3.99 14.66 5.25 22.13 4.57 27.16 9.06 54.33 13.16 81.56 2.44 16.23 7.76 31.27 15.76 45.53 4.18 7.45 8.01 15.14 11.5 22.94 5.11 11.44 11.43 22.05 21.15 30.03 3.62 2.97 5.2 12.54 11.83 7.1 2.99-2.45-3.24-7.82-5.65-11.7-4.01-6.45-7.95-12.94-11.98-19.38-32.82-52.49-44.75-110.34-43.81-171.44.08-5.27 3.1-8.78 8.53-9.62 5.95-.92 10.77 2.8 11.81 9.45 1.32 8.42 1.96 16.96 3.48 25.34 3.92 21.52 8.39 42.85 17.69 62.96 4.36 9.43 7.08 19.65 10.09 29.65 7.75 25.7 20.12 48.76 35.11 71.16 18.15 27.12 39.85 50.52 63.44 72.59 4.96 4.64 9.86 8.95 17.01 9.43l-.69-.61z" fill="#2570b1"/><path d="M800.66 588.32c.06-.95.5-2.12.11-2.82-9.67-17.38-15.37-36.48-23.43-54.45-12.04-26.86-32.72-46.63-61.34-56.16-8.76-2.92-15.24-6.71-18.63-15.73-1.96-5.19-4.93-10.46-8.78-14.39-8.87-9.08-9.93-19.98-9.81-31.7.48-47.04 17.81-86.13 51.65-119.23 15.93-15.57 32.47-25.5 54.74-26.29 8.6-.31 14.21 1.55 17.94 10.12 6.44 14.82 14.13 29.09 21.11 43.68 5.45 11.4 12.78 20.82 23.65 27.85 14.99 9.7 26.49 23.97 44.93 29.54 8.47 2.56 11.8 14.37 11.63 24.43-.12 6.64-1.35 13.26-1.63 19.91-.26 6.01 5.13 10.43 11.44 9.57 2.77-.38 5.42-1.59 8.17-2.21 11.74-2.67 12.2-2.62 17.83 7.78 7.68 14.2 14.82 28.4 16.23 45.18 1.03 12.25 5.7 23.41 14.67 33.24 11.56 12.66 10.41 19.27-1.48 31.79-2.58 2.72-6.08 4.65-8.29 7.59-1.71 2.27-.9 5.3 1.28 7.6 5.69 6 12.72 7.78 20.76 7.12 8.83-.72 17.43-3.76 23.67-9.09 10.86-9.28 23.06-16.4 34.39-24.83 11.41-8.49 10.72-8.5 18.04 1.61 5.43 7.5 7.08 14.82 5.38 23.98-1.9 10.23-1.44 20.9-3.13 31.19-1.37 8.34-2.05 18.71-7.27 24.02-6.87 7-15.1-3.26-23.11-4.44-17.81-2.64-35.52-7.01-53.41-7.89-41.74-2.03-83.6-3.91-125.07 4.17-4.67.91-9.58.83-14.09 2.17-9.41 2.79-16.31 1.82-20.3-8.68-3.11-8.19-8.24-15.13-18.47-15.27l.63.65z" fill="#fcfcfc"/><path d="M114.8 444.69c-5.05.01-9.66 2-12.73 5.57-11.77 13.71-27.48 19.59-44.31 23.54-.93.22-1.89.29-2.79.59-9.47 3.16-12.71 7.24-10.17 16.81 5.06 19.07 1.46 35.59-11.67 50.22-2.84 3.16-3.28 6.95.04 10.03 20.05 18.62 8.1 38.67 1.86 57.85-2.21 6.8-4.35 11.13 1.02 17.58 12.61 15.12 11.51 33.49 9.86 51.66-.08.85-.95 1.62-1.46 2.43-1.32-.89-3.49-1.54-3.83-2.71-10.24-35.47-23.93-70.02-25.17-107.78-.52-16.02-5.06-31.89-4.77-48.16.63-35.3 5.78-70.04 13.61-104.37 1.67-7.32 5.27-14.22 8.09-21.26 1.77-4.41 4.88-8.58 5.45-13.11 3.77-29.87 19.49-55.47 29.77-82.93 9.72-25.98 27.76-47.39 46.65-67.67 3.5-3.76 8.1-4.57 12.97-4.79 11.99-.56 22.45 3.4 31.64 10.84 4.52 3.66 9.01 3.01 12.9-.24 19.93-16.58 43.53-17.4 67.58-15.88 10.72.68 18.79 4.88 26.21 14.24 7.05 8.89 10.3 21.53 19.25 26.96 8.06 4.89 20.27 2.39 30.17 4.96 9.01 2.34 18.73 3.78 26.16 10.6 11.54 10.58 21.42 21.84 19.11 39.18-.37 2.8-.06 5.7-.05 8.55.02 6.27 2.82 11.04 8.32 13.87 5.9 3.04 12.49 5.11 16.13 11.19 1.38 2.31 2.96 5.43 2.46 7.76-1.05 4.91-5.4 4.63-8.83 2.89-9.93-5.04-18.15-1.58-26.55 3.92-4.76 3.12-1.51 13.33-9.35 11.83-5.02-.96-8.99-6.58-13.87-9.31-6.61-3.7-13.4-7.35-20.55-9.73-9.87-3.3-16.81.99-21.87 12.05-4.01 8.79-3.79 8.48-11.05 3.18-7.16-5.23-12.49-11.24-14.54-20.21-.84-3.69-4.09-6.19-8.64-5.59-4.78.63-5.65 4.47-6.68 8.06-.52 1.79-.27 3.79-.62 5.66-1.64 8.84-7.73 12.81-16 13.56-15.38 1.39-30.1-.18-44.25-7.71-10.86-5.78-15.45-2.76-16.4 9.33-.29 3.75 1.04 7.78-2.99 9.91-3.27 1.73-7 3.58-10.52 3.58-4.62.0-9.22-2.35-13.88-2.51-2.28-.08-6.71 2.58-6.67 3.88.7 19.4-11.86 33.44-19.32 49.51-.38.82-.27 1.87-.39 2.82l.64-.66z" fill="#ef4792"/><path d="M418.02 338.07c-1.59-38.94 9.9-74.53 17.05-110.79.54-2.75 2.04-5.32 3.17-7.94 2.9-6.75 6.46-8.95 13.22-7.6 13.04 2.6 25.93 6.28 39.08 7.96 18.74 2.4 23.4 6.05 13.08 23.34-16.58 27.78-21.4 58.7-27.99 89.3-.55 2.57-.05 6.31 2.95 6.18 1.9-.08 4.65-3.39 5.33-5.73 5.03-17.32 9.22-34.9 14.51-52.13 3.62-11.79 8.52-23.19 12.96-34.72 9.51-24.69 30.85-31.56 53.98-35.43 4.88-.81 9.11 1.67 13.23 4.31 6.31 4.04 15.63 6.12 18.7 11.74 3.81 6.97-5.19 13.33-8.6 19.84-13.78 26.26-23.37 54.09-32.09 82.28-.55 1.77-.79 3.84-.43 5.62.31 1.53 1.66 3.96 2.61 3.99 1.6.04 3.85-1.09 4.77-2.44 7.13-10.4 10.79-22.5 13.03-34.48 4.7-25.16 19.87-45.02 31.27-66.79 2.37-4.53 6.9-6.19 11.95-6.48 7.58-.42 15.56.37 22.63-1.8 9.53-2.91 16.27-1.03 22.96 5.95 13.67 14.26 21.23 15.47 4.1 39.98-17.82 25.5-32.94 53.22-41.23 84.04-4.43 16.45-11.14 32.3-17.04 48.33-2.09 5.68-8.21 8.63-13.95 6.3-6.09-2.47-12.14-5.45-17.51-9.2-5.58-3.89-11.44-6.61-17.85-8.61-2.81-.88-3.99-3.39-3.99-6.64.02-7.97 4.93-17.18-5.33-22.76-7.63 4.67-5.86 13.14-7.86 20-3.29 11.28-6.9 14.86-17.95 12.74-10.45-2-20.82-1.65-31.26-2.03-11.1-.41-11.16-.63-14.8-12.79-.8-2.66-1.77-5.28-2.9-7.82-.27-.6-1.57-1.22-2.22-1.06-1.68.4-3.68.82-4.76 1.98-1.18 1.26-2.25 3.46-2.04 5.07 2.94 22.82-15.58 27.73-29.97 35.83-4.47 2.52-11.66-1.88-12.8-8.17-3.04-16.83-5.66-33.75-7.87-50.71-.85-6.56-.14-13.32-.14-18.65z" fill="#7b65d2"/><path d="M646.51 931.43c-4.7-12.16-15.6-18.97-24.58-27.03-24.39-21.89-41.22-49.59-60.43-75.48-9.37-26.91-23.53-51.92-31.02-79.6-5.21-19.27-11.15-38.34-16.69-57.52-1.32-4.57-2.68-9.17-3.4-13.85-3.07-19.81 1.8-29.93 19.04-40.43 6.66-4.05 11.24-2.93 13.14 3.96 4.3 15.57 9.67 31.06 11.77 46.96 2.16 16.32 6.95 31.57 12.91 46.55 4.23 10.63 8.56 21.1 11.05 32.33 1.22 5.49 3.2 11.08 6.06 15.9 28.26 47.64 59.46 92.91 104.41 126.84 6 4.53 11.62 9.56 17.52 14.23.53.42 1.91.14 2.72-.21 2.31-1.02 2.73-2.73 1.19-4.69-2.34-2.98-4.44-6.26-7.22-8.76-13.31-11.95-27.73-22.82-40.02-35.73-13.03-13.7-24.23-29.16-35.96-44.07-4.1-5.22-7.97-10.79-10.86-16.74-2.66-5.47-12.67-9.52-6.93-16.31 3.24-3.83 9.9 2.66 14.98 4.45 9.12 3.22 16.77.34 24.36-4.11 3.69-2.16 7.19-2.09 10.27 1.08 13.22 13.56 26.67 26.91 39.44 40.89 2.95 3.23 4.11 8.49 5.1 13.03 2.24 10.25 8.1 17.93 17.83 20.44 14.74 3.8 26.07 11.05 33.02 24.73 20.17 14.7 33.32 36.23 51.39 52.98 3.61 3.34 2.99 6.27-1.33 8.82-3.26 1.93-6.15 4.47-9.24 6.68-4.24 3.03-8.4 3.42-13.11.5-14.51-8.99-29.18-17.71-43.82-26.5-2.02-1.21-4.15-.75-4.82 1.44-.47 1.53-.31 4.24.69 5.08 10.86 9.12 22.05 17.87 32.93 26.98 3.73 3.12 2.6 6.3-2.32 8.48-5.28 2.33-10.38 4.83-16.07.81-3.09-2.19-6.36-4.76-9.91-5.56-31.52-7.12-56.5-26.15-82.09-44.21-2.85-2.01-7.08-2.04-10.68-2.99l.69.61z" fill="#7b65d2"/><path d="M114.17 445.35c11.35-.57 16.08-9.15 20.48-17.59 3.04-5.84 4.71-12.37 7.48-18.38 1.18-2.56 3.88-4.53 7-3.41 2.52.9 5.16 2.3 6.96 4.22 3.51 3.75 4.11 8.83 2.6 13.4-8.94 27.06-6.52 55.23-3.21 82.08 3.9 31.66 8.7 64.03 23.2 93.49 7.94 16.12 12.25 33.94 22.97 48.8 2.77 3.84 3.73 8.51 2.04 13.52-5.9 17.56-4.12 35.66-3.5 53.68.23 6.6.06 13.23-.37 19.82-.1 1.45-1.83 3.44-3.27 3.98-1.46.55-4.17.27-5.14-.77-22.19-23.73-40.04-50.5-52.65-80.37-4.04-9.57-7.79-19.32-11.9-28.92-20.96-48.96-28.13-100.08-23.53-153.03.6-6.93 2.19-12.96 7.01-18.11 3.38-3.61 4.92-8.04 4.47-13.06l-.64.66z" fill="#2570b1"/><path d="M434.31 953.62c-.84 6.12 1.47 11.16 5.61 15.41 19 19.49 38.09 38.91 57.03 58.46 1.03 1.06 1.83 3.78 1.21 4.65-.92 1.29-3.34 2.46-4.86 2.2-18.55-3.19-37.16-6.16-55.49-10.37-5.06-1.16-9.72-5.71-13.7-9.58-8.13-7.9-15.49-16.6-23.55-24.58-5.24-5.2-9.28-12.22-17.66-13.36l.64.66c1.22-7.37-3.47-12.62-6.88-18.15-17.96-29.1-32.65-59.89-47.75-90.49-6.97-14.11-11.16-27.84-5.32-43.64 2.19-5.94 1.17-13.09 1.5-19.69.3-6.05-1.44-11.48-6.76-14.72-6.24-3.81-8.73-9.25-9.87-16.23-2.44-14.96-5.72-29.77-8.27-44.71-1.38-8.05 1.71-13.06 8.91-15.45 4.49-1.49 9.11-2.73 13.76-3.59 12.46-2.3 18.64 1.62 18.96 14.16.9 34.81 13.29 66.75 23.95 99.07 3.41 10.35 6.22 22.07 17.74 27.65l-.57-.74c13.72 36.38 29.96 71.5 51.98 103.71l-.59-.69z" fill="#7b65d2"/><path d="M927 611.82c34.92-1.69 68.6 2.5 101.07 14.81 5.32 2.02 10.74 3.89 15.78 6.48 7.85 4.05 9.89 13.71 4.57 22.05-1.3 2.04-4.44 3.96-6.78 4.03-3.68.11-7.42-1.32-11.1-2.26-7.34-1.88-14.56-4.8-22-5.58-8.66-.91-18.1-6.14-26.09 2.25 6.61 6.24 15.18 7.16 23.49 7.77 9.66.71 18.65 3.29 27.43 7.04 6.44 2.75 8.72 7.4 6.79 13.51-9.01 28.48-13.67 30.86-43.54 21.84-23.75-7.17-47.55-11.73-72.77-8.85-19.74 2.26-39.81 1.67-59.73 2.36-14.09.48-21.13-4.98-23.84-18.52-1.67-8.36 3.07-15.44 11.53-16.2 26.43-2.4 52.89-4.49 79.33-6.77 2.46-.21 3.7-1.73 2.9-3.39-.76-1.58-1.92-3.76-3.31-4.13-17.74-4.66-35.65-3.97-53.47-.68-10.23 1.89-20.27 4.78-30.45 7.02-6.67 1.47-10.05-.88-12.42-8.14-.59-1.8-1.04-3.66-1.52-5.49-2.86-10.8-1.57-14.28 7.69-17.88 17.83-6.93 36.39-10.59 55.49-11.2 10.44-.33 20.89-.06 30.95-.06z" fill="#7b65d2"/><path d="M88.1 477.32c1.04 1.42 2.84 2.76 2.97 4.25.49 5.67.98 11.43.51 17.08-2.62 31.96 5.23 62.24 14.19 92.39 8.41 28.28 18.07 56.14 32.01 82.16 12.06 22.5 22.9 45.84 39.46 65.65 8.55 10.23 11.83 20.95 6.87 34.22-3.3 8.83-4.37 18.47-6.67 27.69-.85 3.41-7.07 4.86-9.51 2.23-18-19.41-34.98-39.64-50.26-61.29-21.6-30.59-33.63-65.87-47.42-100.06-7.33-18.18-9.33-38.64-12.68-58.26-2.08-12.15-3.9-24.04-7.75-35.98-3.85-11.95 8.21-22.71 8.15-35.27.0-1.9.23-3.8.4-5.69 1.86-20.75 5.35-24.52 26.88-29.09.91-.19 1.9-.02 2.85-.02z" fill="#5d9df5"/><path d="M163.25 477.75c-2.97-20.38 2.98-39.96 3.06-59.8.0-1.88.48-3.76.75-5.64 1.8-12.33 10.94-19.47 19.23-27.21 7.25 1.62 14.54 3.07 21.73 4.93 5.27 1.36 8.24 5.25 7.08 10.58-4.68 21.61-2.88 43.49-3.46 65.29-.86 32.01 5.3 62.46 20.03 90.8 4.31 8.3 4.59 15.49 2.78 24.24-3.53 17.07-10.47 32.43-20.1 46.74-2.52 3.74-5.85 3.59-8.98-.32-9.51-11.9-17.63-24.39-21.74-39.46-3.23-11.83-9.01-22.96-12.23-34.8-6.73-24.74-10.52-49.94-8.15-75.34z" fill="#5d9df5"/><path d="M849.39 928.57c-.68 1.5-.83 2.66-1.49 3.18-5.95 4.67-11.82 9.48-18.08 13.7-3.3 2.22-7.16 1.69-10.64-.7-25.28-17.41-45.76-39.82-65.53-62.97-3.83-4.49-5.99-9.64-5.64-15.67.21-3.78.87-7.62.49-11.34-1.07-10.63-7.28-19.54-17.77-18.99-25.82 1.34-39.35-15.92-53.94-32.01-6.36-7.01-11.63-15-17.39-22.55.33-16.77-10.66-27.33-20.82-38.46-2.5-2.74-4.03-6.44-5.74-9.83-6.67-13.24-2.32-24.03 11.87-29.35 1.68-.63 4.04-1.15 5.47-.45 6.68 3.28 14.14 5.13 18.76 12.01 18.51 27.58 38.83 53.85 56.72 81.95 20.96 32.91 48.27 60.84 77.99 86.28 14.44 12.36 28.23 25.49 42.12 38.48 1.86 1.74 2.57 4.7 3.62 6.71z" fill="#2570b1"/><path d="M894.97 736.09c-8.55.0-17.12-.25-25.66.07-8.28.31-11.54-4.71-14.09-11.42-3.91-10.33-1.85-15.31 8.13-15.8 37.06-1.81 74.11-3.69 111.24-.38 14.75 1.31 27.14 8.08 39.89 14.21 3.76 1.81 3.94 6.38 2.19 10.05-1.62 3.4-3.97 6.47-6.11 9.61-7.85 11.5-7.9 11.63-20.53 8.59-5.52-1.33-10.84-3.93-16.67-2.3-1.67.47-4 1.6-4.4 2.93-.9 2.96.78 5.56 3.76 6.39 3.64 1.02 7.58 1.05 11.18 2.17 10.8 3.38 13 11.21 5.56 19.14-3.92 4.18-7.97 8.8-14.34 7.97-11.12-1.45-22.11 1.31-33.66-2.45-11.36-3.7-24.4-2.51-36.71-2.87-11.4-.33-22.83.43-34.24.13-7.24-.2-11.88-5.39-12.8-12.84-.96-7.8 2.01-13.77 8.34-16.16 18.23-6.88 37.14-7.41 56.29-6 13.7 1 18.42-.41 16-4.53-3.48-5.91-9.3-6.13-14.83-6.36-9.49-.4-19.02-.11-28.53-.14z" fill="#2570b1"/><path d="M874.42 856.48c2.62 11.23 13.22 15.58 20.04 23.19 4.36 4.86 4.52 10.29.0 15.04-1.96 2.06-3.87 4.29-6.2 5.86-24.15 16.24-17.97 17.37-41.88 2.89-17.21-10.42-32.26-23.15-46.19-37.53-6.57-6.78-14.39-12.33-21.06-19.01-22.17-22.21-41.09-47.04-58.13-73.36-9.26-14.3-18.82-28.42-28.02-42.75-.83-1.29-.68-4.02.17-5.34.79-1.24 3.14-2.14 4.75-2.07 3.77.17 7.51 1.05 11.27 1.57 14.7 2.04 15.07 1.98 17.38 16.66 4.92 31.24 23.79 53.09 47.5 71.76 3.24 2.55 7.05 2.81 10.1-.72 1.96-2.28 2.67-4.85.4-7.48-.62-.72-1.28-1.43-1.76-2.24-5.11-8.67-5.5-16.63-1.11-17.41 7.04-1.25 9.71 4.44 13.02 8.97 2.24 3.07 4.1 6.62 6.93 9.01 8.31 7.04 11.22 14.63 5.19 24.75-1.01 1.7.19 5.5 1.52 7.6 1.66 2.64 4.77 2.24 7.57 1.12 5.98-2.41 10.09-9.55 17.66-7.74 7.69 1.83 12.98 7.32 18.37 12.85 6.5 6.67 12.31 14.87 23.16 15.01l-.69-.63z" fill="#6a99f5"/><path d="M217.07 458.01c.69-17.49 2.29-30.53 4.97-43.68 3.61-17.7 13.94-28.35 29.11-35.88 3.59-1.78 7.28-2.86 10.46.18 2.75 2.63 4.42 5.96 3.81 10.18-2.86 19.84-2.37 39.79-2.52 59.77-.14 19.26 3.01 37.83 8.39 56.1 2.1 7.11.91 12.5-3.35 18.49-6.03 8.49-11.07 17.65-19.03 24.68-3.53 3.12-6.4 3.43-8.95-.87-17.03-28.74-20.55-60.79-22.9-88.97z" fill="#2570b1"/><path d="M382.9 976.45c-.31 6.87.66 13.24 6.4 18.03 4.37 3.65 8.88 7.22 12.67 11.42 1.65 1.83 2.8 5.57 2.04 7.68-.64 1.81-4.57 3.88-6.62 3.51-11.17-2.05-22.23-4.69-33.26-7.42-4.91-1.22-7.57-5.45-10.46-9.24-12.69-16.62-25.47-33.19-38.37-49.63-10.33-13.16-16.36-29.74-23.95-44.98-2.53-5.08-4.07-10.66-5.85-16.08-1.95-5.94-11.21-10.35-6.2-17.38 6.15-8.63 15.7-13.72 26.23-15.7 3.7-.7 7.01 1.85 8.94 5.68 6.84 13.59 13.74 27.16 20.83 40.63 11.48 21.82 23.04 43.61 34.78 65.29 2.78 5.13 6.84 9.18 13.48 8.87l-.64-.66z" fill="#5d9df5"/><path d="M365.52 277.45c-.28-11.62 1.81-21.58 5.18-31.7 4.48-13.47 11.05-26.09 14.06-40.24 3.39-15.93 19.23-20.57 33.4-11.28 12.05 7.9 13.72 11.87 9.21 26.11-8.61 27.17-15.7 54.73-18.64 83.07-1.96 18.85-1.98 37.91-2.92 56.87-.14 2.83-.46 5.66-.84 8.47-.1.77-.75 1.46-1.14 2.19-.66-.68-1.83-1.32-1.9-2.06-1.82-19.41-17.78-30.57-26.16-45.98-7.47-13.74-11.58-29.96-10.25-45.45z" fill="#2570b1"/><path d="M629.18 395.94c.48-3.63.4-9.54 2.1-14.89 12.08-38.13 26.53-75.24 49.11-108.62 2.63-3.89 5.89-7.43 9.21-10.78 4.26-4.31 9.66-5.81 15.66-4.96.94.13 1.92.26 2.77.65 8.54 3.88 22.01 2.16 25.34 10.49 3.75 9.37-8.69 14.93-14.71 21.28-18.61 19.64-31.99 42.08-40.17 67.8-6.04 18.99-14.05 37.38-16.56 57.41-.55 4.41-4.02 6.09-8.4 5-3.69-.91-7.36-1.91-10.98-3.05-11.39-3.59-13.9-7.04-13.38-20.32z" fill="#2570b1"/><path d="M57.68 670.56c0-7.59-.13-15.19.13-22.77.04-1.27 1.79-2.48 2.75-3.72 1.32 1.22 2.72 2.37 3.92 3.7.61.68.99 1.64 1.25 2.54 13.22 45.14 36.25 84.86 64.49 122.28 15.5 20.53 31.5 40.17 51.01 56.88 5.89 5.04 6.68 10.77 3.62 17.79-2.98 6.83-7.47 9.09-12.99 5.17-31.16-22.06-57.71-48.76-79.83-79.88-9.29-13.08-18.75-25.98-19.3-43.11-.12-3.57-2.45-7.14-4.03-10.58q-10.81-23.55-11.02-48.3z" fill="#6a99f5"/><path d="M622.05 740.85c-.08 4.28-2.98 6.81-5.89 9.22-5.77 4.78-12.58 8.3-15.67 15.97-1.52 3.78 1.54 10.57-4 10.79-2.36.09-5.05-7.17-7.49-11.15-.99-1.61-2.01-3.31-2.47-5.11-8.7-33.86-23.17-66.03-29.51-100.58-.68-3.69-2.22-7.56.69-10.74 3.35-3.65 6.8-.84 10.14.57 9.52 4.02 20.4 6.28 28.23 12.44 9.1 7.16 3.02 19.7 5.07 29.67 1.35 6.58 3.03 12.9 7.69 18.04 6.55 7.24 9.46 16.32 12.47 25.31.58 1.74.52 3.7.74 5.55z" fill="#2570b1"/><path d="M875.11 857.11c-1.28-8.44-8.63-12.13-13.81-17.47-4.62-4.77-9.81-9.02-14.26-13.95-8.12-9.02-8.93-14.51-.34-24.78 8.45-10.1 7.99-10.83 19.85-2.89 22.15 14.83 44.03 30.04 69.62 38.75 5.57 1.9 6.45 7.02 2.7 11.17-6.35 7.03-12.7 14.06-19.08 21.06-4.4 4.84-9.23 5.61-15.23 2.21-9.76-5.52-17.64-14.84-30.14-14.74l.69.63z" fill="#5d9df5"/><path d="M341.36 193.63c7.06.71 13.66 1.16 20.18 2.1 6.64.96 9.4 5.49 6.49 12.32-5.63 13.23-7.4 27.13-9.35 41.17-.99 7.14-.87 15.18-7.01 20.8-5.78-3.01-11.32-6.73-17.41-8.88-10.6-3.75-21.54-6.53-32.34-9.71-3.58-1.05-7.23-1.88-10.73-3.13-2.64-.94-4.47-7.88-2.64-10.01 2.43-2.82 4.8-5.98 7.88-7.9 11.47-7.12 21.15-15.96 27.1-28.15 4-8.21 9.86-10.74 17.83-8.62z" fill="#2570b1"/><path d="M273.37 434.62c.37-5.97.74-15.46 1.59-24.9.72-7.91 2.55-8.79 13.28-7.64 6.57.7 9.64-1.2 9.54-6.4-.1-4.72-.98-9.42-1.12-14.13-.11-3.94 1.19-7.69 5.18-9.17 4.7-1.74 9.29-1.04 13.14 2.56 3.08 2.87 4.23 6.49 2.57 10.24-3.81 8.62-7.08 17.53-10.8 26.08-10.88 25-17.49 49.92-10.12 77.16.9 3.34-.12 7.63-1.47 10.99-.92 2.29-3.9 5.05-6.08 5.15-1.99.09-5.46-2.76-6-4.89-3.68-14.66-9.15-28.98-8.86-44.46.11-5.68-.44-11.38-.85-20.6z" fill="#7b65d2"/><path d="M333.14 390.63c5.3.54 14.1 8.96 14.82 13.73 1.54 10.19 2.87 20.44 3.68 30.71.18 2.35-1.45 6.19-3.35 7.13-8.13 4.03-11.31 12.51-17.49 18.08-6.02 5.43-10.34 13.53-19.77 14.34-3.96-8-2.86-16.63-2.45-24.95.93-19.08 5.97-37.1 16.99-52.98 1.97-2.84 5.59-4.52 7.58-6.06z" fill="#5d9df5"/><path d="M334.14 994.85c-2.24 1.2-4.18 3.05-5.14 2.63-19.92-8.61-39.89-17.18-58.3-28.85-6.99-4.43-7.52-7.04-3.6-13.74 4.28-7.33 8.54-14.68 12.82-22.02 4.23-7.25 8.6-7.73 12.33-1.24 10.32 17.96 19.55 36.6 35.15 51.01 3.24 2.99 4.54 8.08 6.74 12.2z" fill="#7b65d2"/><path d="M410.69 400.16c1.31 12.52-1.96 16.37-8.26 18.05-9.06 2.41-18.09 4.92-27.17 7.25-7.66 1.97-13.09-1.58-13.95-9.03-.32-2.78-1.36-6.17-.23-8.3 4.81-9.1 2.56-17.71-.12-26.69-.63-2.11.85-5.55 2.46-7.46 2.72-3.24 6.77-2.51 10.4-1.4 6.85 2.09 10.34 7.77 13.81 13.41 1.99 3.24 4.17 6.22 8.5 6.43 4.27.21 9.19-5.47 12.56.03 2.28 3.72 2.26 8.86 2 7.71z" fill="#7b65d2"/><path d="M904 790.12c17.35 1.04 31.48 1.55 45.53 2.86 6.63.62 12.61 3.92 17.61 8.41 1.18 1.06 2.13 3.47 1.8 4.95-3.07 13.69-17.16 22.3-29.65 17.32-14.89-5.93-29.37-12.9-43.93-19.64-3.33-1.54-7-4.33-6-8.25 1.04-4.06 5.93-4.1 9.5-4.97 2.73-.66 5.6-.73 5.14-.68z" fill="#5d9df5"/><path d="M177.86 885.3c-.14 4.88-.62 7.83-3.59 8.64-1.44.39-3.85-.61-5.02-1.78-15.43-15.33-30.78-30.75-46-46.29-2.62-2.67-4.73-5.9-6.8-9.05-7.29-11.05-14.46-22.18-21.68-33.28-2.5-3.85-2.68-11.35-.67-10.27 2.22 1.19 4.12 3.13 5.89 5 21.43 22.64 41.42 46.8 67.71 64.31 9 5.99 11.48 14.59 10.16 22.71z" fill="#5d9df5"/><path d="M298.59 790.81c.68 6.46 3.02 12.43-3.86 15.9-8.7 4.4-17.52 7.9-26.46.78-2.16-1.72-3.86-4.34-1.79-7.35 1.6-2.33 3.36-4.56 5.14-6.75 12.59-15.44 19.78-32.2 13.13-52.48-.18-.55.98-1.54 1.51-2.32 1.4.96 3.82 1.73 4.03 2.9 3 16.73 5.69 33.52 8.3 49.32z" fill="#5d9df5"/><path d="M635.95 758.89c5.9.24 11.3 9.11 6.66 21.3-4.62 12.15-11.34 14.69-21.47 8.11-.79-.51-1.58-1.05-2.35-1.59-8.92-6.32-11.85-10.92-9.54-15.4 4.22-8.19 10.55-13.17 26.7-12.41z" fill="#5d9df5"/><path d="M735.37 854.53c.03 3.18-1.31 5.6-4.13 6.67-5.31 2.01-14.51-2.56-13.29-6.64.65-2.18 3.74-4.29 6.18-5.12 5.39-1.83 10.46.86 11.24 5.09z" fill="#5d9df5"/><path d="M798.77 772.78c.94.08 2.05-.13 2.8.29 5.29 2.94 7.71 7.91 9.06 13.5.19.78-.15 1.79-.51 2.58-.98 2.14-2.6 2.4-4.55.74-4.24-3.63-9.33-6.76-9.69-13.07-.07-1.29 1.88-2.69 2.9-4.04z" fill="#070707"/><path d="M50.34 614.36c4.17 1.17 7.85 10.22 5.49 13.65-.37.54-1.27 1.23-1.74 1.11-3.2-.83-7.32-10.78-5.68-13.72.3-.54 1.27-.7 1.93-1.04z" fill="#070707"/><path d="M62.07 730.26c-.28.71-.56 1.43-.83 2.14-.73-.99-1.46-1.99-2.19-2.98.61-.4 1.21-.8 1.82-1.2.4.68.8 1.36 1.2 2.04z" fill="#070707"/><path d="M434.9 954.3c-12.79-6.37-17.02-19.71-23.93-30.57-7.57-11.89-12.9-25.19-19.44-37.76-5.79-11.13-9.25-22.74-8.62-35.39 5.36 2.64 8.44 7.2 10.53 12.58 4.74 12.2 8.87 24.68 14.4 36.5 4.74 10.12 10.44 19.97 16.94 29.05 5.64 7.88 10.15 15.69 10.11 25.58z" fill="#070707"/><path d="M485.65 909.88c.87-.19 2.01-.84 2.69-.52 14.13 6.61 19.39 19.82 24.32 33.2.19.52-.82 1.89-1.55 2.19-.58.24-1.83-.31-2.38-.88-8.45-8.9-19.11-15.75-25.31-26.69-1.39-2.45-.53-5.44 2.22-7.3z" fill="#070707"/><path d="M589.04 930.9c-2.64-.69-6.11-.55-7.77-2.22-6.58-6.58-12.6-13.71-18.8-20.66-2.29-2.57-1.52-5.31.56-7.29 2.2-2.1 5.19-1.98 7.59-.14 2.18 1.67 4.59 3.5 5.83 5.83 4.35 8.14 8.24 16.52 12.31 24.81l.29-.32z" fill="#070707"/><path d="M434.39 822.55c8.4 6.79 14.59 15.42 20.33 24.42 3.09 4.85 3.02 10.23 2.43 15.67l.54-.5c-6.04-7.15-12.27-14.15-18.06-21.5-4.21-5.34-6.38-11.51-4.76-18.5l-.48.4z" fill="#070707"/><path d="M588.75 931.23c4.75-.84 8.97.16 11.96 4.11.86 1.13.81 2.95 1.18 4.46-1.59.35-3.54 1.47-4.7.92-4.12-1.94-7.55-4.79-8.15-9.81l-.29.32z" fill="#070707"/><path d="M457.15 862.65c4.95.61 7.82 3.88 9.59 8.08.53 1.26-.43 3.15-.71 4.75-1.43-.36-3.24-.29-4.24-1.16-3.65-3.18-3.92-7.7-4.11-12.17l-.54.5z" fill="#070707"/><path d="M775.59 341.59c21.31.39 40.68 15.98 44.92 35.74 1.05 4.91.53 9.3-1.55 13.64-8.27 17.23-25.57 25.29-44.43 20.69-4.57-1.12-9.24-2.05-13.58-3.8-12.4-5-23.92-22.53-22.24-33.26 2.87-18.42 19.54-33.33 36.88-33.01z" fill="#070707"/><path d="M871.62 549.23c-1.88-.14-3.76-.2-5.63-.43-14.31-1.75-24.09-9.7-24.05-19.51.06-11.91 11.84-24.74 24.85-27.06 12.44-2.22 23.97 5.43 27.79 18.44 3.98 13.55-8.2 28.69-22.96 28.56z" fill="#070707"/><path d="M909.76 587.74c-9.53.4-17.55-6-17.87-14.24-.27-6.96 8.4-16.67 15.79-17.68 6.96-.95 16.97 7.71 17.76 15.37.85 8.2-6.7 16.17-15.67 16.55z" fill="#070707"/><path d="M779.98 358.85c8.04-.32 15.63 2.41 21.33 9.82 5.1 6.62 6.31 13.75 2.52 21.11-3.21 6.24-8.72 9.95-15.92 10.04-4.68.06-9.44-.29-14.03-1.14-10.99-2.04-18.44-10.35-17.34-18.81 1.69-13 10.04-20.81 23.44-21.02z" fill="#7b65d2"/><path d="M877.23 528.44c-.61 5.08-6.77 9.24-12.54 8.45-7.29-1-12.62-7.47-10.98-13.32 1.38-4.91 7.52-9.24 12.72-8.99 5.95.29 11.55 7.48 10.79 13.86z" fill="#2570b1"/></g></g></g></svg>