<svg id="_лой_2" xmlns="http://www.w3.org/2000/svg" width="987.01" height="1080" viewBox="0 0 987.01 1080"><g id="Girl_vintage_505198351"><g id="Girl_vintage_505198351-2"><path d="M542.02 1080c-61.5.0-120.61-26.11-152.03-42.75-18.8 9.35-47.13 19.12-83.39 19.12-32.56.0-65.9-7.93-99.09-23.56-117.97-55.56-168.5-149.11-128.72-238.33 13.77-30.88 39.39-88.34 31.44-107.51-.32-.77-1.07-2.57-6.79-4.75-72.35-27.61-82.26-39.46-88.36-53.19l-3.56-8.01v-8.77c0-1.86.03-46.1 2.87-93.8 2.92-49.04 7.39-79.82 13.34-100.18-16.74-27.04-37.36-75.36-22.78-135.14 18.77-76.94 87.11-147.01 143.39-147.01 9.24.0 18.15 1.79 26.27 5.24 26.33-45.06 77.3-97.61 175.66-124.17C391.95 5.94 438.14.0 483.87.0 592.36.0 684.2 31.55 735.84 86.55c25.95 27.64 41.37 60.85 45.44 97.33 28.9 15.52 69.87 50.28 115.41 127.69 51.21 87.06 68.35 144.83 55.57 187.3-6.96 23.14-22.7 41.25-45.5 52.39l-14.02 6.85-.21 28.05 64.67 89.8c22.76 31.6 33.04 69.5 28.94 106.71-4.11 37.32-21.45 71.93-51.54 102.86-67.75 69.64-124.73 99.35-190.51 99.35.0.0.0.0.0.0-4.72.0-9.5-.15-14.37-.46-27.41 29.35-88.13 84.89-162.23 94.05-8.23 1.02-16.79 1.54-25.45 1.54z" fill="#fcfcfc"/><path d="M851.11 599.35l72.56 100.75c16.28 22.6 24.45 50.36 21.4 78.04-2.58 23.41-13.08 50.82-40.09 78.57-76.41 78.54-128.91 93.82-192.28 84.35.0.0-66.81 86.07-150.3 96.4-83.49 10.33-173.01-48.2-173.01-48.2.0.0-63.43 53.67-164.27 6.18-100.84-47.49-137.85-118.5-108.59-184.13 29.27-65.64 63.54-144.06 1.65-167.68-61.9-23.62-65.34-31.37-65.34-31.37.0.0.0-177.31 22.38-198.83.0.0-47.34-49.92-30.13-120.5 17.21-70.58 86.93-131.84 117.06-111.54.0.0 13.77 2.16 25.82 42.65.0.0 10.46-123.05 173.07-166.95 162.62-43.9 389.36 2.58 379.71 155.79.0.0 51.46 2.58 120.32 119.64 68.86 117.06 64.56 163.54 27.54 181.62l-37.01 18.08-.5 67.14z" fill="#1d527f"/><path d="M257.27 722s71.24 45.11 141.5 10.73c27.8-13.6 49.12-37.61 61.02-66.18 4.21-10.1 8.83-21.64 12.23-31.34l53.08-5.45s37.66 75.51 118.5 68c64.84-6.03 86.91-35.04 107.59-57.1.0.0 18.22 128.37-36.44 219.49-46.59 77.67-90.32 122.15-165.84 134.58-63.55 10.46-182.39-56.97-236.42-140.89-46.37-72.02-55.23-131.84-55.23-131.84z" fill="#ffbdde"/><path d="M416.36 862.44s23.99-10.1 47.05-56.24c24.96-49.92 59.68-16.93 59.68-16.93.0.0 24.1-35.58 48.66-12.42 10.81 10.2 10.95 10.05 16.41 15.23 11.25 10.68 28.32 33.06 55.44 29.61.0.0-27.84 17.36-40.17 56.24-14.92 47.05-78.9 61.97-111.32 36.15-33.36-26.57-37.87-52.79-75.75-51.64z" fill="#1d527f"/><path d="M474.64 849.38s7.66-15.31 34.25-27.27c18.77-8.45 40.47-8.79 59.04.09 6.72 3.21 13.89 7.69 21.06 13.91l-114.35 13.27z" fill="#fcfcfc"/><path d="M499.56 881.37s44.18 37.88 76.36-11.18l-76.36 11.18z" fill="#ff1b48"/><path d="M466.72 735.64s41.73-75.47 94.95-8.91c0 0-24.52 11.19-94.95 8.91z" fill="#1d527f"/><path d="M211.41 667.89c5.45 8.84 8.79 18.81 9.9 29.12 2.12 19.62 9.4 57.91 13.64 72.57 6.1 21.05-42.69 7.64-48.19-86.37.0.0-7.25-67.08 24.64-15.33z" fill="#ffbdde"/><path d="M230.72 867.46c2.1 8.18 12.61 11.27 18.4 5.13 21.19-22.48 19.16-39.05 12.15-48.48-1.22-1.64-2.65-3.02-4.23-4.14-10.67-7.55-25.58-.52-27.87 12.34-1.39 7.81-2.27 20.27 1.54 35.14z" fill="#f29f05"/><path d="M215.32 811.31s-16.12 14.89-7.26 52.29c0 0-17.21-35-1.59-61.28l8.86 8.99z" fill="#f29f05"/><path d="M281.51 862.44s20.11 11.54 17.13 33.43c-1.64 12.06-10.14 22.07-21.42 26.67-12.34 5.03-32.7 8.56-61.9-.99.0.0 34.05 34.41 93.16 4.87.0.0 19.51-10.32 31.56 11.98 13.13 24.3.57 38.43-44.76 37.67l-10.84-.87c-44.04-3.52-85.6-23.2-114.81-56.35-13.86-15.73-19.05-34.03-19.82-53.54-2.3-58.53 39.31-98.12 39.31-98.12.0.0-46.73 65.49-9.47 118.21 35.29 49.92 101.85-22.95 101.85-22.95z" fill="#f29f05"/><path d="M172.43 474.15c5.66 4.69 9.08 11.53 10.22 18.8 1.71 10.92 7.6 37.02 26.55 59.06 24.67 28.69-16.07 51.07-36.72 27.54-20.66-23.53-33.28-79.76-22.38-100.42 6.54-12.39 15.48-10.66 22.33-4.98z" fill="#ff1b48"/><path d="M133.18 473.1c-14.77 13.91-23.24 56.77 15.21 116.3 13 20.13-18.72 17.14-41.5 12.55-9.32-1.88-16.47-9.37-17.96-18.76-5.2-32.92-15.52-110.56 8.38-125.87 19.71-12.62 35.86-.75 43.53 9.5.0.0-3.28 2.15-7.67 6.28z" fill="#ff1b48"/><path d="M282.66 347.72s52.79-74.02 139.44-35.58c0 0-76.32-105.58-139.44 35.58z" fill="#f29f05"/><path d="M269.46 304.11s67.42-93.39 133.7-41.89c58.27 45.28 37.3 59.1 37.3 59.1l23.53 10.9s22.38-58.53-58.53-99.27c-80.91-40.74-136 71.15-136 71.15z" fill="#f29f05"/><path d="M362.99 212.3s69.43-6.89 99.85 32.13c30.41 39.02 16.07 77.47 16.07 77.47.0.0 45.33-35.58 47.05-51.64 1.72-16.07-27.54-54.3-44.76-58.43.0.0 49.95 5.05 60.19 48.45 4.11 17.44 28.61 19.79 35.49 3.25 1.85-4.45 3.31-10.15 4.17-17.38 5.74-48.2-79.19-71.15-126.24-64.84-47.05 6.31-91.81 30.99-91.81 30.99z" fill="#f29f05"/><path d="M594.25 247.3s-2.87 24.1 22.38 24.1 24.67-46.48 9.18-67.71c-12.35-16.92-56.76-75.38-173.6-71.71-56.88 1.78-112.27 18.47-161.58 46.88-28.52 16.43-59.35 36.75-71.09 53.53.0.0 10.9 94.68 5.74 123.37-5.16 28.69-59.1 69.43-100.42 27.54-41.32-41.89-4.59-101.57 7.46-100.42.0.0-31.76 74.15 5.74 86.65 36.15 12.05 59.68-7.46 59.68-7.46.0.0-70.21 17.79-44-60.25.0.0-6.14 43.75 22.7 44.61 7.28.22 14.25-2.83 19.65-7.73 8.97-8.15 19.94-23.42 1.94-39.93-4.07-3.73-8.89-6.52-14-8.63-13.7-5.64-50.13-24.03-48.26-59.48.0.0-58.53 28.12-49.35 110.17s101.57 119.93 101.57 119.93c0 0 51.64 15.49 81.48-5.16 20.25-14.02 19.09-28.43 10.34-37.06-8.3-8.18-21.71-8.63-30.91-1.49-3.6 2.8-7.44 6.85-11 12.72-11.48 18.94-65.42.0-67.71-6.31.0.0 59.1 11.48 80.34-35.58.0.0 6.32-37.76.57-88.34-7.6-66.88 123.37-136.6 212.32-135.46 88.94 1.15 130.26 35.58 130.83 83.2z" fill="#f29f05"/><path d="M651.05 231.24s-5.74 53.37 26.97 55.09c32.71 1.72 55.66-68.29 26.97-111.9-28.69-43.61-76.32-83.2-163.54-94.68-87.22-11.48-204.86 4.02-278.31 87.8.0.0 105.01-79.19 222.64-59.1 117.63 20.08 150.87 71.85 150.87 71.85.0.0 11.38 12.79 14.39 50.95z" fill="#f29f05"/><path d="M528.72 309.62l54.45-15.88c2.12-.65 52.89-16.91 44.59-84.23l-4.92-36.43 21.03 14.62c16.16 11.23 28.81 27.02 35.38 45.57 8.03 22.68 11.27 55.9-4.7 100.82l-5.09 14.33-140.74-38.79z" fill="#1d527f"/><path d="M326.42 407.7c-75.85-76.56-68.06-133.18-56.42-146.19l28.46-35.49 13.29 39.37c23.69 70.19 80.51 62.74 82.92 62.39l2.86-.42 12.81 27.5-72.86 63.98-11.04-11.15z" fill="#1d527f"/><path d="M224.7 527.9s51.29-52.89 114.19-54.51c66.85-1.72 97.26 25.54 124.26 69.5l45.11-3.84s13.1-89.18 105.49-112.13c0 0 69.43-12.05 111.32 21.81.0.0 2.21-139.15-97.55-148.62-96.69-9.18-132.7 54.51-146.47 76.32l-19.15 1.94s-59.13-73.52-131.77-35.74c-23.32 12.13-32.8 40.85-21.03 64.35.17.34.34.68.52 1.02 15.21 29.27-7.56 61.7-42.26 76.79-13.24 5.76-28.01 7.22-42.25 4.81-3.07-.52-5.58-1.14-6.45-1.83l6.03 40.17z" fill="#ffbdde"/><path d="M731.59 315.35c12.05 27.6 35.97 93.62 25.05 162.63.0.0 12.34 22.81 31.56 22.38 13.9-.31 2.99-99.6.49-121.52-.43-3.78.82-7.62 3.65-10.16 4.42-3.97 11.68-3.5 18.24 28.96 10.33 51.07 3.16 103.15 3.16 103.15.0.0 54.23-20.33 52.51-42.55-1.72-22.22-5.16-95.6-74.45-149.83-42.03-32.89-57.53-45.62-57.53-45.62.0.0-2.9 8.54-5.43 18.5-2.88 11.35-1.93 23.33 2.75 34.06z" fill="#ff1b48"/><path d="M802.67 557.98s-4.84 3.91-10.02 11.85c-7.49 11.47-10.99 25.07-10.72 38.76.35 17.62.84 51.82-.28 69.55-.27 4.28 4.36 7.25 8.06 5.1 2.6-1.51 5.55-3.7 8.57-6.91 6.68-7.08 10.53-16.34 11.59-26.02 3.18-28.95 11.62-101.56-7.2-92.34z" fill="#ffbdde"/><path d="M823.78 703.49s22.67 5.16 24.08 55.84c0 0-3.25-30.25-24.65-40.92l.57-14.92z" fill="#f29f05"/><ellipse cx="808" cy="755.67" rx="19.58" ry="35.29" transform="translate(-297.68 792.67) rotate(-45)" fill="#f29f05"/><path d="M844.16 677.65c-.54 3.91.52 7.87 2.97 10.96 11.08 13.94 41.22 56.51 23.7 87.76-21.23 37.87-39.59 35.58-58.53 31.56-18.94-4.02-40.17-50.82-46.48 5-6.31 55.82 74.02 17.95 88.37 8.77.0.0-33.86 54.51-75.75 35-30.17-14.05-40.4 11.4-43.76 26.74-2.84 12.99 6.85 25.78 20.14 25.97 11.68.16 29.57-5.08 56.9-22.3 72.88-45.91 92.18-108.53 96.98-125.67 5.74-20.51-63.12-94.11-63.12-94.11l-1.42 10.31z" fill="#f29f05"/><g><path d="M636.67 491.78c-38.96.0-70.55 31.59-70.55 70.55.0 6.75.97 13.26 2.74 19.44l42.99-51.45c2.71-3.25 7.55-3.68 10.8-.97 3.25 2.72 3.68 7.55.97 10.8l-48.02 57.47c2.87 4.95 6.32 9.52 10.26 13.62l66.89-80.05c2.72-3.25 7.55-3.68 10.8-.97 3.25 2.72 3.68 7.55.97 10.8l-66.89 80.06c4.71 3.14 9.82 5.72 15.24 7.67l48.01-57.46c2.71-3.25 7.55-3.68 10.8-.97 3.25 2.71 3.68 7.55.97 10.8l-42.96 51.41c2.3.23 4.63.35 6.98.35 38.96.0 70.55-31.59 70.55-70.55s-31.59-70.55-70.55-70.55z" fill="#62ccdf"/><path d="M636.67 666.43c-57.4.0-104.09-46.7-104.09-104.09s46.7-104.09 104.09-104.09 104.09 46.7 104.09 104.09-46.7 104.09-104.09 104.09zm0-189.94c-47.34.0-85.85 38.51-85.85 85.85s38.51 85.84 85.85 85.84 85.85-38.51 85.85-85.84-38.51-85.85-85.85-85.85z" fill="#fff144"/></g><g><path d="M346.35 536.54c-38.96.0-70.55 31.59-70.55 70.55.0 6.75.97 13.26 2.74 19.44l42.99-51.45c2.71-3.25 7.55-3.68 10.8-.97 3.25 2.72 3.68 7.55.97 10.8l-48.02 57.47c2.87 4.95 6.32 9.52 10.26 13.62l66.89-80.05c2.72-3.25 7.55-3.68 10.8-.97 3.25 2.72 3.68 7.55.97 10.8l-66.89 80.06c4.71 3.14 9.82 5.72 15.24 7.67l48.01-57.46c2.71-3.25 7.55-3.68 10.8-.97 3.25 2.71 3.68 7.55.97 10.8l-42.96 51.41c2.3.23 4.63.35 6.98.35 38.96.0 70.55-31.59 70.55-70.55s-31.59-70.55-70.55-70.55z" fill="#62ccdf"/><path d="M346.35 711.18c-57.4.0-104.09-46.7-104.09-104.09s46.7-104.09 104.09-104.09 104.09 46.7 104.09 104.09-46.7 104.09-104.09 104.09zm0-189.94c-47.34.0-85.85 38.51-85.85 85.85s38.51 85.84 85.85 85.84 85.85-38.51 85.85-85.84-38.51-85.85-85.85-85.85z" fill="#fff144"/></g><path d="M473.82 599.55c-4.94.12-9.2-3.61-9.65-8.61-.47-5.21 3.36-9.81 8.57-10.29l35.4-3.22c5.25-.45 9.82 3.36 10.29 8.57.47 5.21-3.36 9.82-8.57 10.29l-35.41 3.22c-.21.02-.42.03-.64.04z" fill="#fff144"/><path d="M590.19 310.52s62.72-17.83 54.12-97.05c0 0 42.06 35.41 12.65 116.75l-66.77-19.7z" fill="#ffbdde"/><path d="M373.94 348.67s-65.16 2.48-81.52-75.5c0 0-29.02 46.7 24.15 114.92l57.38-39.42z" fill="#ffbdde"/></g></g></svg>