<svg xmlns="http://www.w3.org/2000/svg" width="452.1" height="1080" viewBox="0 0 452.1 1080"><g id="a"/><g id="b"><g id="c"><g id="d"><path d="M352.22 715.18c16.79-5.84 33.87-13.52 49.61-23.36 5.57-11.63 11.13-23.45 15.75-35.67 3.68-9.38 7.34-18.85 10.28-28.56 2.99-9.7 6.23-19.43 8.49-29.4 19.74-76.85 21.07-160.97 3.08-240.82-8.07 7.34-17.05 13.24-26.89 18.07 9.32-10.27 16.79-22.92 22.26-37.16-7.74-27.88-17.14-55.18-29.42-81.1-3.03-6.44-6.06-13.04-9.26-19.16-3.22-6.16-6.47-11.96-9.75-17.58-6.56-11.19-13.14-21.25-19.61-30.52-4.84-6.94-9.7-13.51-14.38-19.6-10.24 9.69-19.09 20.92-26.46 33.21 1.5-16.44 11.01-27.61 23.5-37.06-13.11-16.74-25.43-31.01-36.89-44.38-11.33-12.92-22.31-27.46-31.48-43.63-4.59-8.12-6.88-17.3-8.68-26.71-1.8-9.46-3.15-19.26-6.03-30.27-2.12-8.69-4.95-14.87-9.18-18.24-4.19-3.39-9.72-4-16.37-2.48-6.48 1.61-13.77 5.53-20.74 10.68-3.51 2.56-6.76 5.47-10.15 8.35-3.18 2.99-6.29 5.91-9.26 8.72-7.39 7.26-15.02 14.72-21.95 22.77 6.49 10.8 12.01 22.36 16.88 36.94-5.78-11.56-12.03-23.21-18.58-34.97-8.15 9.5-15.72 19.81-21.86 31.29-12.03 22.24-20.04 47.21-24.2 73.33-4.26 25.24-5.16 50.51-4.51 73.98 17.75 14.43 33.07 30.57 42.25 47.7-10.84-11.44-25.47-20.4-41.27-25.64.84 13.24 2.03 25.75 3.16 37.42 16.11 1.94 31.58 8.41 44.36 18.86-13.35-6.03-28.28-9.92-43.69-11.68 1.26 13.34 2.68 25.43 3.19 36.26.46 5.5.93 10.98 1.39 16.45.33 5.52.77 10.99 1.32 16.41 12.67 2.43 23.95 6.84 36.04 15.14-11.41-5.88-23.3-10.41-35.85-13.52 1.28 19.56 3.48 38.78 4.83 58.26l.73 7.26.51 7.3c.36 4.87.8 9.72 1.33 14.57.29 4.88.63 9.76 1.08 14.64l.7 7.31.46 7.34c16.08 6.24 31.55 14.45 44.27 24.59-13.97-5.65-28.32-9.97-43.34-13.19.48 4.1.49 8.23.84 12.35 1.82 21.94 3.63 43.7 5.45 65.59 2.17 22.09 3.57 44.35 5.19 67.19.44 10.76 1.34 21.77 1.49 32.73.13 5.49.47 11.09.49 16.63l.06 16.73c6.11 7.53 11.22 15.54 15.55 23.96 4.27 8.39 8.06 17.33 10.32 26.12-4.93-15.33-14.35-29.35-25.94-40.81-.87 44.04-4.95 89.92-16.6 135.22-10.02 39.37-22.07 79.83-42.6 117.42-21.47 39.49-53.6 70.44-89.43 98.11-.91.7-1.92 1.63-1.76 2.77.14 1.11 1.41 1.77 2.53 1.66 1.12-.11 2.1-.78 3.01-1.43 11.26-7.55 21.36-16.44 31.51-25.1 10.49-9.97 24.04-16.48 34.39-26.65 31.19-23.84 62.66-46.57 94.15-70.78 31.44-24.19 62.87-49.88 92.59-79.13 11.81-11.32 22.84-23.31 34.22-35.45 10.84-12.38 21.98-24.96 32.18-38.25 20.8-26.41 40.1-54.79 56.44-85.4-13.16 3.49-26.64 4.73-39.79 4.32z" fill="#ffdc01"/><path d="M257.09 12.08c.89-1.29-3.02-4.35-4.11-3.07-5.69 7.12-10.62 14.93-14.57 23.28-3.86 8.39-6.87 17.21-9.11 26.26-4.28 18.17-5.38 37.12-4.03 55.87 2.73 37.6 15.47 73.89 28.45 109.9 6.52 18.07 13.35 36.18 19.48 54.67 2.95 9.28 5.7 18.66 8.55 27.98l7.28 28.34c8.8 38.01 14.04 76.81 15.94 115.72 7.46 155.23-38.37 311.1-124.23 438.52-26.17 39.21-56.61 75.44-90.11 108.33-4.16 4.26-8.5 8.32-12.93 12.29l-13.16 12.03-13.65 11.46c-4.53 3.84-9.08 7.65-13.85 11.19l-14.12 10.85c-4.73 3.58-9.68 6.86-14.53 10.28-3.47 2.41-10.27 5.08-7.88 10.4 1.57 3.52 7.41 4.09 10.61 3.34 4.09-.96 7.61-3.61 10.97-6.18l7.35-5.63 7.11-5.94 14.2-11.88 13.68-12.46c4.59-4.11 9.1-8.31 13.41-12.72 22.58-21.85 43.84-44.98 63.73-69.22 19.92-24.21 38.6-49.47 55.66-75.84 33.69-52.93 61.8-109.97 80.04-170.38 24.25-74.21 36.88-152.49 36.23-230.97-.33-39.23-3.96-78.49-11.15-117.15l-6.07-28.86c-2.46-9.52-4.75-19.09-7.38-28.57-2.88-9.4-5.63-18.87-8.66-28.2-3.08-9.31-6.36-18.47-9.65-27.56-14.79-40.77-29.68-80.78-34.69-121.21-4.83-40.09-.18-81.89 21.19-114.87z" fill="#bfa501"/><g><path d="M412.27 409.78c-14.52 31.03-27.74 62.77-43.97 91.26-3.99 7.16-8.42 14.18-12.6 21.12-4.21 6.93-8.45 13.76-13.01 20.46-4.44 6.64-8.88 13.27-13.3 19.89-4.61 6.47-9.2 12.92-13.78 19.35-.68.95.68 2 1.41 1.1 20.2-24.24 37.74-51.14 54.51-79.78 16.14-28.48 32.92-58.47 44.03-91.56.89-2.56-2.17-4.2-3.3-1.84z" fill="#bfa501"/><path d="M421.25 437.58c-3.54 7.4-7.08 14.93-10.45 22.38-3.39 7.45-6.76 14.83-10.74 21.91-3.89 7.09-7.85 14.04-11.89 20.83-4.13 6.78-8.59 13.4-12.96 19.87-8.83 13.27-18.88 25.94-28.74 37.98-4.97 6.02-10.38 11.83-15.63 17.48-5.36 5.64-10.47 11.13-16.18 16.35-.57.54.11 1.53.71.99 11.24-10 21.67-20.65 32.18-31.94 5.01-5.68 9.96-11.53 14.85-17.57 4.92-6.04 9.72-12.27 14.13-18.75 4.55-6.53 9.15-13.23 13.72-20.12 4.47-6.9 8.65-14.01 12.83-21.31 8.54-14.59 15.34-30.04 21.34-46.2.81-2.45-2.1-4.19-3.17-1.89z" fill="#bfa501"/><path d="M425.59 468.3c-14.77 29.77-31.2 57.37-50.89 81.86-19.78 25.17-42.96 46.39-65.51 66.6-.61.55.06 1.55.75 1.08 12.03-8.38 23.89-18.02 34.83-28.66 10.77-10.67 21.58-22.21 31.2-34.41 20.58-24.93 38.35-53.08 53.11-84.2 1.18-2.64-2.25-4.85-3.49-2.27z" fill="#bfa501"/><path d="M419.04 521.45c-28.81 52.29-68.59 93.41-113.13 123.18-.94.64.0 2.09.96 1.51 46.4-27.56 86.32-69.55 115.48-122.23 1.39-2.52-1.92-4.97-3.3-2.46z" fill="#bfa501"/><path d="M420.73 552.52c-4.28 5.97-8.6 11.82-12.99 17.51-4.58 5.67-9.2 11.2-13.88 16.57-9.21 10.78-19.25 20.84-29.5 30.24-9.79 9.16-20.58 17.34-31.12 25.19-10.43 7.87-21.47 15.23-32.02 22.71-.38.27-.13 1.02.34.8 23.87-10.97 45.72-27.81 66.02-46.31 10.13-9.35 20.38-19.28 29.6-30 4.7-5.35 9.33-10.85 13.88-16.52 4.52-5.68 8.67-11.55 12.88-17.57 1.64-2.37-1.58-4.89-3.22-2.6z" fill="#bfa501"/><path d="M413.3 588.53c-8.38 11.33-17.15 22.21-26.15 32.47-8.81 10.3-18.7 19.81-28.98 28.44-9.85 8.36-20.81 15.38-31.48 21.91-10.63 6.54-21.85 12.37-32.88 18.2-.67.35-.23 1.48.49 1.25 24.05-7.44 46.61-22.01 67.03-38.6 20.18-16.47 40.72-36.85 55.02-61 1.45-2.45-1.38-4.87-3.05-2.66z" fill="#bfa501"/><path d="M427.44 580.09c-4.89 5.45-8.4 12.6-12.41 18.79-4.46 6.96-9.52 13.65-14.41 20.18-9.71 13.07-20.7 25.15-31.75 36.42-11.5 11.44-23.63 22.04-36.11 31.69-12.82 9.56-25.38 18.37-38.95 25.91-1.15.65-.26 2.43.91 1.82 26.99-14.13 51.89-32.1 75.18-54.47 5.58-5.57 11.08-11.37 16.5-17.38 5.46-6 10.75-12.22 15.66-18.71 5.29-6.85 10.5-13.93 15.53-21.24 4.26-6.51 9.46-13.26 12.25-20.94.6-1.65-1.2-3.42-2.4-2.08z" fill="#bfa501"/><path d="M240.43 780.31c.8-9.85-4.93-22.1-8.24-31.05-3.92-10.79-9.34-21.35-15.15-31.16-5.77-9.77-12.54-18.91-20.02-27.45-7.45-8.52-15.46-16.39-24.13-23.75-1.03-.86-2.47.35-1.49 1.23 16.43 14.62 31.45 32.18 42.54 51.34 5.39 9.18 10.39 18.94 14.14 28.92 2.01 5.2 3.84 10.52 5.47 15.95 1.65 5.31 2.31 11.33 4.78 16.22.45.87 2.02.95 2.11-.25z" fill="#bfa501"/><path d="M236.72 741.59c1.6-8.84-2.89-20.25-5.8-28.41-3.87-10.25-9.03-19.88-15.29-28.63-12.38-17.12-28.39-29.35-47.32-39.08-.93-.48-1.71.7-.78 1.2 9.09 4.87 17.75 10.97 25.61 17.98 7.9 7.01 14.96 14.92 20.56 23.19 5.26 7.69 9.79 16.04 13.2 24.83 1.94 5.22 3.5 10.63 4.71 16.15.94 4.33 1.04 9 2.85 13.14.52 1.19 2.06.7 2.26-.37z" fill="#bfa501"/><path d="M250.16 741.11c.2-11.58-2.09-23.6-6.54-35.13-4.27-11.49-9.95-22.24-16.24-31.54-6.66-9.94-14.07-18.76-22.81-26.64-8.74-7.88-18.36-14.72-28.84-20.59-.97-.54-1.67.72-.77 1.28 9.94 6.18 19.34 13.39 27.9 21.54 8.35 8.09 15.81 17.11 22.17 26.88 6.53 9.85 11.24 20.3 15.13 31.49 3.8 10.76 4.49 21.66 6.94 32.85.35 1.66 3.01 1.67 3.05-.14z" fill="#bfa501"/><path d="M254.17 717.6c-7.21-24.83-17.62-48.01-31.3-68.95-7.06-10.6-14.32-20.49-22.86-29.84-8.05-8.92-16.49-18.5-26.85-24.85-.63-.38-1.48.17-1.01.76 7.29 8.87 16.89 16.8 24.91 25.79 8.02 9.06 15.15 18.67 21.96 28.89 6.99 10.5 12.71 21.45 18.15 33.03 5.3 11.54 9.43 23.48 13.2 35.96.7 2.4 4.51 1.64 3.79-.79z" fill="#bfa501"/><path d="M291.51 577.91c-9.76-31.36-29.65-59.38-52.46-80.8-11.48-10.55-23.48-19.74-37.01-27.47-13.23-7.67-27.68-15.52-43.38-18.41-.97-.18-1.28.88-.54 1.24 13.49 6.53 27.9 11.71 41.25 19.34 13.89 7.94 26.1 17.49 37.89 28.42 22.5 21.76 39.31 48.73 50.9 79.11.89 2.23 4.08.78 3.36-1.44z" fill="#bfa501"/><path d="M295.37 561.14c-1.54-7.37-6.85-14.49-10.62-20.79-2.01-3.33-4.06-6.59-6.17-9.8-2.19-3.21-4.5-6.36-6.82-9.44-5.05-6.68-10.29-13.05-15.8-19.1-5.73-6.05-11.65-11.77-17.77-17.16-11.26-10.12-24.22-18.96-37.13-26.63-13.42-7.94-28.23-15.26-43.79-18.91-.43-.1-.77.47-.4.66 12.65 6.47 26.94 11.97 39.48 19.3 13.77 7.97 27.28 17.31 39.18 28.02 5.66 5.01 11.22 10.31 16.49 15.89 5.11 5.58 10.05 11.43 14.79 17.54 5.36 6.78 10.11 13.87 14.54 21.26 3.83 6.42 7.03 14.37 11.8 20.16.77.93 2.48.26 2.23-1z" fill="#bfa501"/><path d="M301.17 536.46c-3.15-7.34-8.17-14.4-13.21-21.03-5.15-6.63-10.55-12.84-15.99-18.65-5.76-6.26-11.7-12.19-17.83-17.78-6.14-5.59-12.84-10.84-19.47-15.74-12.69-9.47-26.83-18.13-41.48-25.18-14.46-7.09-30.22-12.45-46-15.69-1.16-.23-1.95 1.01-.81 1.41 7.6 2.67 15.2 5.44 22.77 8.39 7.43 2.98 14.74 6.14 22.03 9.57 7.27 3.43 14.49 7.13 21.58 11.21 6.9 4.09 13.69 8.55 20.33 13.49 12.89 9.42 24.34 20.13 35.35 32 5.72 6.09 10.31 12.74 15.22 19.53 4.83 6.79 9.73 13.71 14.73 20.32 1.19 1.54 3.54-.16 2.78-1.85z" fill="#bfa501"/><path d="M292.86 507.3c-3.16-6.49-8.01-12.57-12.88-18.27-5-5.7-10.08-11.04-15.18-16.12-11.29-11.26-22.64-21.54-35.36-30.68-5.89-4.32-11.91-8.56-18.05-12.61-6.23-4.03-12.79-7.83-19.33-11.34-6.58-3.49-13.21-6.69-20.03-9.44-6.95-2.73-13.97-5.04-21.07-6.87-1.05-.27-2.07 1.02-1.04 1.48 13 5.7 26.4 10.92 39.15 17.61 13.35 6.86 25.73 14.83 37.89 23.77 2.95 2.18 5.9 4.41 8.8 6.71 2.8 2.3 5.59 4.67 8.34 7.09 5.52 4.84 10.94 9.91 16.26 15.21 5.36 5.38 10.03 11.4 14.99 17.44 4.89 6.04 10 12.12 15.25 17.64 1.1 1.14 2.95-.21 2.25-1.62z" fill="#bfa501"/><path d="M374.86 247.58c-17.95 53.97-40.11 105.61-58.17 155.13-.22.6.59.95.88.39 24.25-47.04 42.65-98.87 61.01-153.19.97-2.78-2.79-5.01-3.72-2.33z" fill="#bfa501"/><path d="M371.1 220.52c-4.82 11.54-9.1 23.66-13.28 35.96-4.3 12.45-8.11 24.7-12.03 36.9-4.19 12.27-7.76 24.33-11.68 36.41-1.93 6.06-3.86 12.08-5.77 18.07-1.8 5.99-3.65 11.97-5.67 17.98-.4 1.22 1.38 1.93 1.79.71 7.8-23.48 15.81-47.4 24.21-71.74 8.23-24.06 16.62-49.71 25.94-72.46.98-2.37-2.54-4.22-3.52-1.85z" fill="#bfa501"/><path d="M362.23 201.71c-8.4 21.57-15.53 44.87-23.47 68.64-7.3 22.39-17.39 44.48-23.57 66.44-.32 1.1 1.19 1.93 1.78.9 5.89-10.12 10.11-20.97 14.33-32.28 4.33-11.33 7.66-22.86 11.55-34.33 7.94-23.32 14.89-46.38 23.12-67.61.95-2.48-2.79-4.26-3.74-1.77z" fill="#bfa501"/><path d="M354.8 198.9c-11.48 19.26-20.98 41.68-29.08 64.95-4.21 11.81-8.05 23.56-11.38 35.12-3.75 11.67-6.92 23.15-9.64 34.43-.35 1.28 1.4 1.85 1.88.63 4.13-11.26 7.84-22.71 11.92-34.36 3.77-11.57 7.51-23.26 11.84-35.06 8.11-22.75 17.54-43.94 28.1-64.06 1.23-2.3-2.34-3.83-3.64-1.65z" fill="#bfa501"/><path d="M267.89 80.29c-3.77 1.71-6.98 4.38-10.11 7.35-2.89 3.04-5.85 6.37-8.49 9.51-5.25 5.87-13.17 13.42-14.46 21.7-.05.28.29.51.56.34 6.93-4.7 11.4-13.6 16.47-19.24 5.6-6.6 13.83-12.36 18.17-18.37.72-.94-1.13-1.73-2.14-1.28z" fill="#bfa501"/><path d="M272.28 88.19c-10.05 11.6-21.36 23.98-30.69 39.37-.69 1.1 1.09 1.84 1.89 1.01 12.38-12.81 22.63-27.67 32.01-38.71 1.19-1.49-1.82-3.13-3.21-1.67z" fill="#bfa501"/><path d="M280.95 101.79c-12.5 13.68-25.49 29.4-37.18 48.06-.22.35.28.81.59.47 7.44-8.3 14.44-16.86 20.95-24.73 6.67-7.95 12.91-15.56 18.95-22.45 1.31-1.48-1.91-2.79-3.31-1.35z" fill="#bfa501"/><path d="M290.18 106.26c-5.52 9.23-11.22 18.78-17.27 28.9-3.33 5.66-6.73 11.5-10.38 17.41-3.1 5.07-7.1 10.1-9.07 15.83-.34.96.98 1.57 1.69.9 8.92-8.45 14.64-21.82 20.24-31.22 6.58-11.39 12.62-21.23 18.18-30.61.97-1.54-2.42-2.79-3.39-1.21z" fill="#bfa501"/><path d="M266.28 288.69c-6.68-8.77-17.57-15.46-26.68-21.44-8.91-5.84-18.23-11.13-27.87-15.95-10.22-5.12-20.83-9.68-31.7-13.89-10.14-3.89-20.97-8.45-31.81-9.66-.7-.07-.83 1.1-.22 1.42 10.56 5.71 22 8.53 32.72 12.8 10.04 3.98 19.83 8.28 29.3 13.01 10.05 4.99 19.75 10.51 28.97 16.67 8.7 5.89 16.57 13.5 25.14 19.38 1.33.9 3.11-1.09 2.15-2.35z" fill="#bfa501"/><path d="M264.68 265.61c-6.92-7.87-17.6-13.55-26.51-18.89-9.76-5.86-19.9-11.17-30.34-16.12-9.86-4.63-19.99-8.94-30.32-13.05-10.78-4.23-22.47-9.52-33.92-11.31-1.02-.16-1.34 1.72-.39 2.23 10.12 5.41 20.96 8.25 31.22 12.25 10.81 4.26 21.39 8.73 31.67 13.63 9.69 4.58 19.12 9.49 28.22 14.84 9.69 5.71 18.45 13.6 28.34 18.78 1.34.7 3.1-1.12 2.02-2.36z" fill="#bfa501"/><path d="M256.17 243.91l-1.42-2.14c-.37-.56-1.02-.67-1.58-.5-14.82-12.68-31.34-23.61-48.41-34.08-9.37-5.74-18.99-11.35-28.85-16.87-8.91-4.95-18.72-11.53-28.44-14.49-1.06-.34-1.76 1.29-.74 2.11 8.51 6.9 18.38 11.02 27.34 16.13 9.49 5.32 18.74 10.74 27.79 16.21 18.4 11.23 35.18 23.14 51.3 36.4 1.82 1.5 4.29-.83 3-2.78z" fill="#bfa501"/><path d="M242.09 226.42c-5.59-7.79-13.77-14.39-20.81-21.1-7.49-6.98-15.12-14.1-22.9-21.35-7.21-6.73-14.58-13.55-21.93-20.71-3.68-3.44-7.35-7.72-11.35-11.64-3.93-4.03-8.01-7.96-12.4-10.46-.52-.3-.85.45-.56.98 5.05 9.54 13.51 16 20.32 22.57 8.16 8.01 16.39 15.55 24.36 23.04 7.44 6.96 14.75 13.78 21.93 20.49 7.08 6.7 13.52 14.47 21.13 20.21 1.33 1 3.25-.58 2.21-2.03z" fill="#bfa501"/><path d="M252.45 217.09c-15.19-16.95-31.56-32.7-48.77-49.3-8.11-7.85-16.51-16.26-25.03-25.18-8.63-8.87-17.18-17.9-26.33-25.89-.62-.54-1.05.64-.63 1.24 7.51 10.86 15.91 20.23 24.49 28.98 8.64 8.55 17.26 16.45 25.71 24.57 16.61 16.14 32.6 31.44 47.28 47.86 1.69 1.89 5-.38 3.29-2.28z" fill="#bfa501"/><path d="M307.53 812.24c-12.7 6.26-24.71 12.18-38.12 15.78-7.23 2-14.48 3.52-21.73 4.69-5.8.91-11.82.87-17.48 2.6-.59.18-.52.99.03 1.13 11.94 3.17 27.2-1.05 39.17-4.16 13.72-3.48 27.41-8.8 39.85-16.51 1.98-1.22.32-4.55-1.72-3.53z" fill="#bfa501"/><path d="M283.19 835.74c-10.34 4.74-20.39 8.27-30.75 10.95-10.42 2.64-20.86 4.58-31.47 6.35-1.75.29-1.8 2.84.07 2.88 20.88.49 43.91-6.3 63.35-16.19 2.41-1.2 1.29-5.15-1.19-4z" fill="#bfa501"/><path d="M262.66 856.52c-8.38 1.74-16.37 5.38-24.68 6.93-8.97 1.73-18.2 1.44-27.26 2.18-1.34.1-1.82 2.18-.35 2.48 8.96 1.85 18.77.97 27.9-.61 8.16-1.44 17.79-3.25 25.19-8 1.29-.83.83-3.33-.8-2.99z" fill="#bfa501"/><path d="M231.34 373.27c-4.25-3.5-9.59-5.7-14.53-8.09-5.53-2.69-11.09-5.18-16.71-7.46-1.15-.46-2.32.99-1.19 1.59 5.27 2.8 10.63 5.54 16.1 8.3 4.9 2.47 9.78 5.51 15.28 7.09.85.24 1.8-.81 1.05-1.42z" fill="#bfa501"/><path d="M235.95 366.55c-6-4.69-12.68-8.93-19.58-12.65-7.01-3.69-14.45-6.8-21.52-9.4-1-.36-1.83.79-.93 1.34 12.8 7.67 26.84 15.97 41.31 22.06.91.38 1.35-.85.72-1.35z" fill="#bfa501"/><path d="M254.59 371.35c-8.8-8.17-19.73-14.19-29.56-20.31-11.02-6.54-22.12-12.46-33.13-17.92-1.12-.52-2.04.97-1.05 1.56 10.14 5.87 20.59 12 31.02 18.41 10 6.37 20.18 14.14 31.28 19.76.95.49 2.33-.63 1.44-1.5z" fill="#bfa501"/><path d="M179.85 853.32c1.01-11.1-6.28-23.22-13.22-31.69-1.31-1.61-4.01-.12-2.7 1.54 3.88 4.89 7.12 10.14 9.37 15.79 1.93 4.82 2.92 9.91 4.94 14.77.37.89 1.55.35 1.61-.39z" fill="#bfa501"/><path d="M186.7 841.64c-.94-5.23-3.88-10.35-6.1-15.14-2.08-4.46-4.27-8.83-6.46-13.17-.6-1.18-2.65-.33-2.12.87 2.14 4.93 4.27 9.87 6.43 14.84 1.94 4.41 3.62 9.4 6.38 13.33.68.97 2.06.39 1.87-.74z" fill="#bfa501"/><path d="M194.14 831.02c-.67-16.88-10.91-34.23-22.62-46.2-1-1.02-2.73.4-1.83 1.5 5.58 6.89 10.69 13.98 14.58 22.04 3.43 7.35 5.46 15.14 8.06 22.94.33.98 1.86.79 1.81-.27z" fill="#bfa501"/><path d="M207.43 915.59c-9-.32-18.5 1.59-27.47 2.35-.93.07-.89 1.7.06 1.66 9-.41 18.52.22 27.52-1.97 1.1-.28 1.03-1.99-.12-2.04z" fill="#bfa501"/><path d="M189.87 930.02c-6.15-.34-12.44 1.29-18.52 2.07-1.54.19-1.19 2.42.31 2.32 6.1-.4 12.42-.52 18.26-2.44.98-.32 1.14-1.89-.05-1.95z" fill="#bfa501"/><path d="M321.66 747.56c-13.32 2.45-26.35 8.77-38.9 13.08-1.17.39-.64 2.45.57 2.12 12.83-3.69 26.67-6.56 38.85-13.38.96-.54.51-2.01-.52-1.82z" fill="#bfa501"/><path d="M334.58 749.66c-7.66 4.22-14.74 9.4-22.45 13.13-7.65 3.74-15.66 6.15-23.76 8.73-.98.32-.46 1.75.43 1.66 15.85-1.44 34.82-9.4 46.85-21.69.88-.89.06-2.46-1.07-1.83z" fill="#bfa501"/><path d="M398.03 330.6c-2.43 4.45-4.68 9.02-6.81 13.65-2.22 4.64-4.43 9.35-6.53 14.06-4.32 9.43-8.02 18.82-12.65 27.81-.6 1.19 1.23 2.41 1.89 1.24 5.03-8.75 9.65-17.6 14.24-26.85 4.56-9.25 8.74-18.85 11.53-28.94.32-1.13-1.13-1.96-1.66-.98z" fill="#bfa501"/><path d="M305.02 166.32c-8.45 9.15-14.97 20.86-20.39 32.32-.63 1.35 1.27 2.15 2.05.94 6.98-10.58 14.27-21.93 19.47-32.58.29-.62-.56-1.31-1.13-.69z" fill="#bfa501"/><path d="M311.85 173.85c-6.72 8.75-11.38 19.67-15.77 30.05-.45 1.1 1.12 1.84 1.69.77 5.43-10.04 11.44-20.44 15.46-30.42.32-.8-.93-1-1.38-.4z" fill="#bfa501"/><path d="M258.59 633.66c-5.77-13.09-11.82-25.18-20.09-36.66-7.79-11.1-16.31-22.59-27.54-30.71-.64-.47-1.39.3-.95.86 8.14 10.25 17.28 19.74 25.13 30.59 4.17 5.71 7.98 11.63 11.49 17.71 3.56 6.09 6.94 12.37 10.1 18.81.54 1.1 2.36.58 1.86-.59z" fill="#bfa501"/><path d="M261.95 609.83c-4.78-16.71-14.72-31.92-25.43-45.16-5.43-6.85-11.15-13.28-17.62-19.3-5.95-5.62-12.3-12.15-19.9-15.69-1-.47-2.05.46-1.33 1.28 5.39 6.19 13.2 11.29 19.45 17.21 6.12 5.76 11.47 11.9 16.73 18.43 10.91 13.41 18.11 28.6 27.31 43.62.27.45.9.05.78-.39z" fill="#bfa501"/><path d="M233.78 575.44c-5.81-7.53-12.02-15.37-18.79-22.5-6.89-7.15-14.61-13.6-22.84-18.45-.78-.46-1.69.4-1.09 1.03 6.44 6.75 14.63 12.78 21.22 19.61 6.45 6.58 12.59 13.6 18.39 21.01 11.9 15.73 21.57 33.4 30.72 51.48.08.17.34.09.28-.09-5.7-19.16-16.2-36.52-27.89-52.09z" fill="#bfa501"/></g></g></g></g></svg>