<svg xmlns="http://www.w3.org/2000/svg" width="1076.1" height="1080" viewBox="0 0 1076.1 1080"><g id="a"/><g id="b"><g id="c"><g id="d"><circle cx="566.06" cy="569.95" r="510.05" fill="#ede5d6"/><circle cx="510.05" cy="510.05" r="510.05" fill="#fff9e9"/><g><g><path d="M306.31 474.49 243.68 172.04 258.96 135.38H804.28L822.61 176.63 755.4 474.49H306.31z" fill="#fcb293"/><path d="M330.75 460.74 271.18 175.1H790.53L735.54 460.74H330.75z" fill="#e1573e"/><path d="M312.42 460.74 210.08 706.67 217.71 813.6H837.89L856.22 697.51 758.5 460.74H312.42z" fill="#fcb293"/><ellipse cx="478.92" cy="574.54" rx="263.75" ry="119.91" fill="#0e2125"/><ellipse cx="479.68" cy="549.34" rx="112.27" ry="51.94" fill="#de9c5a"/><path d="M479.68 550.25c-2.75.0-4.99-2.23-4.99-4.99v-20.37c0-2.75 2.23-4.99 4.99-4.99s4.99 2.23 4.99 4.99v20.37c0 2.75-2.23 4.99-4.99 4.99z" fill="#ddddcb"/><rect x="654.08" y="446.49" width="79.43" height="33.61" rx="9.08" ry="9.08" fill="#0e2125"/><circle cx="307.07" cy="781.78" r="24.69" fill="#de9c5a"/><circle cx="781.93" cy="781.78" r="24.57" transform="translate(-323.78 781.89) rotate(-45)" fill="#de9c5a"/><rect x="490.56" y="717.73" width="76.38" height="40.73" rx="10.13" ry="10.13" fill="#0e2125"/><path d="M713.97 798.06H365.06c-7.98.0-14.45-6.47-14.45-14.45h0c0-7.98 6.47-14.45 14.45-14.45h348.91c7.98.0 14.45 6.47 14.45 14.45h0c0 7.98-6.47 14.45-14.45 14.45z" fill="#0e2125"/><path d="M660.18 568.56c-1.04.0-2.09-.27-3.05-.84-2.84-1.69-3.78-5.36-2.09-8.2l58.05-97.76c1.69-2.84 5.36-3.78 8.2-2.09 2.84 1.69 3.78 5.36 2.09 8.2l-58.05 97.76c-1.12 1.88-3.11 2.93-5.15 2.93z" fill="#ddddcb"/></g><path d="M395.03 711.39H214.27c-2.61.0-4.72-2.11-4.72-4.72s2.11-4.72 4.72-4.72h180.76c2.61.0 4.72 2.11 4.72 4.72s-2.11 4.72-4.72 4.72z" fill="#070707"/><path d="M846.51 707.39h-192.43c-2.61.0-4.72-2.11-4.72-4.72s2.11-4.72 4.72-4.72h192.43c2.61.0 4.72 2.11 4.72 4.72s-2.11 4.72-4.72 4.72z" fill="#070707"/><g><g><path d="M253.62 711.92c3.78.53 4.71-5.99.94-6.51-3.76-.54-4.72 5.97-.94 6.51z" fill="#fcfcfc"/><path d="M309.33 689.07c3.73.44 4.48-6.1.77-6.54-3.71-.44-4.5 6.09-.77 6.54z" fill="#fcfcfc"/><path d="M320.9 700.01c3.75.4 4.46-6.14.72-6.54-3.73-.4-4.48 6.14-.72 6.54z" fill="#fcfcfc"/><path d="M310.87 712.71c3.77.45 4.51-6.09.75-6.54-3.76-.44-4.53 6.09-.75 6.54z" fill="#fcfcfc"/><path d="M303.45 791.85c3.93.46 4.66-6.08.75-6.54-3.91-.46-4.68 6.07-.75 6.54z" fill="#fcfcfc"/><path d="M322.76 773.52c3.89.42 4.57-6.13.69-6.54-3.87-.42-4.59 6.13-.69 6.54z" fill="#fcfcfc"/><path d="M342.54 692.08c3.74.36 4.38-6.19.65-6.55-3.72-.36-4.4 6.19-.65 6.55z" fill="#fcfcfc"/><path d="M303.64 684.85l5.81 11.54c.37.74 1.36 1.32 2.02 1.62.87.39 2.01.66 2.96.57.66-.07 1.61-.18 2.04-.84.4-.6.33-1.16.01-1.79l-5.84-11.54c-.37-.74-1.35-1.32-2-1.61-.86-.39-1.99-.66-2.94-.56-.65.07-1.6.18-2.04.84-.4.6-.34 1.16-.03 1.79z" fill="#fcfcfc"/><path d="M313.36 716.33c1.35.16 1.49-.39.35-1.14-1.51-.99-3.52-1.68-5.27-1.89-1.35-.16-1.49.39-.35 1.14 1.51.99 3.52 1.68 5.28 1.89z" fill="#fcfcfc"/><path d="M249.58 712.22c1.76.27 4.07-.51 5.36-1.95 1.12-1.25.85-2.57-.76-2.79-1.76-.24-4.06.51-5.35 1.94-1.13 1.24-.86 2.56.76 2.8z" fill="#fcfcfc"/><path d="M307.86 786.07c1.38.15 3.15-.31 2.58-2.18-.55-1.79-3.11-3.04-4.7-3.24-1.38-.16-3.14.28-2.58 2.16.54 1.79 3.1 3.1 4.7 3.27z" fill="#fcfcfc"/><path d="M324.32 773.29l5.3 2.71 5.32 2.66c.44.22.15-.55.12-.64-.28-.78-.78-1.58-1.22-2.26-.58-.92-1.2-1.83-1.88-2.66-.39-.48-.82-1.11-1.37-1.38l-10.57-5.42c-.44-.23-.15.55-.12.64.27.79.77 1.59 1.19 2.27.58.93 1.18 1.84 1.87 2.68.39.48.82 1.12 1.36 1.4z" fill="#fcfcfc"/><path d="M387.3 707.57c.05 4.84 1.25 9.61 3.24 13.88.46.99 1.04 1.94 1.72 2.76.46.56 1.19 1.42 1.88 1.68.37.14.9.3 1.01-.31.13-.68-.23-1.54-.49-2.11-.23-.5-.45-1-.66-1.51-.29-.69.28.77.02.06-.09-.26-.19-.53-.28-.78-.15-.46-.3-.92-.43-1.39-.07-.27-.14-.54-.22-.81l-.1-.41c.08.34.1.41.05.21-.4-2.03-.67-4.06-.7-6.15-.01-.77-.61-1.87-.94-2.47-.51-.92-1.17-1.88-1.91-2.59-.43-.42-1.06-1.11-1.67-1.08-.53.02-.54.53-.54 1.01z" fill="#fcfcfc"/><path d="M392.72 639.98c1.8.14 3.89-1.08 4.1-3.38.2-2.25-1.61-3.99-3.4-4.12-1.79-.13-3.88 1.09-4.1 3.38-.21 2.25 1.6 3.99 3.4 4.12z" fill="#fcfcfc"/><path d="M344.66 643.02l.28.22-.57-.47c1.69 1.39 3.19 3.06 4.46 4.95l-.36-.54c.5.76.97 1.56 1.39 2.38.37.71 1.02 1.12 1.69 1.38.87.34 2 .45 2.92.29.77-.13 1.72-.33 2.31-.98.4-.43.78-1.08.45-1.72-.87-1.69-1.92-3.28-3.08-4.72-1.2-1.48-2.56-2.71-4-3.85-.67-.53-1.86-.7-2.65-.71-.83-.02-1.94.12-2.7.6-.49.31-1.2.81-1.18 1.56.02.79.52 1.2 1.04 1.61z" fill="#fcfcfc"/><path d="M323.83 636.64c1.71.18 3.51-.16 5.17-.78.41-.15 2.76-1.39 1.17-1.56-1.71-.18-3.51.16-5.16.78-.41.16-2.77 1.38-1.18 1.56z" fill="#fcfcfc"/><path d="M306.37 630.15l.84 2.8c.14.26.32.46.55.61.29.26.6.46.94.62.42.22.86.4 1.32.54.47.18.96.31 1.46.4l.9.13c.47.06.94.04 1.41-.06l.44-.19c.23-.17.28-.39.16-.65l-.85-2.8c-.14-.26-.32-.46-.55-.61-.29-.26-.6-.46-.94-.62-.42-.22-.86-.4-1.31-.54-.47-.18-.96-.31-1.45-.4l-.9-.13c-.47-.06-.94-.04-1.41.06l-.44.19c-.23.17-.28.39-.16.65z" fill="#fcfcfc"/><path d="M306.47 627.39l1.31-1.2c.36-.28.62-.64.78-1.09.23-.4.34-.85.32-1.34.0-.5-.1-.94-.31-1.35-.16-.47-.41-.87-.75-1.2l-.75-.63c-.59-.38-1.22-.59-1.89-.66l-.95.03c-.59.09-1.13.33-1.62.73l-1.31 1.19c-.36.27-.62.63-.78 1.08-.23.4-.34.85-.32 1.34.0.5.09.95.31 1.35.16.48.41.88.75 1.21l.76.64c.59.38 1.22.61 1.9.68l.95-.03c.59-.09 1.13-.34 1.63-.75z" fill="#fcfcfc"/><path d="M301.22 590.48l-.17 1.33c-.07.42-.04.81.09 1.19.09.46.26.88.51 1.25.27.45.59.84.97 1.15.36.38.77.69 1.23.91l.86.34c.51.16 1.03.17 1.56.05l.62-.3c.38-.28.61-.68.69-1.19l.17-1.33c.07-.42.03-.81-.1-1.19-.09-.46-.26-.88-.51-1.25-.27-.45-.59-.84-.97-1.15-.36-.38-.77-.69-1.23-.91l-.85-.34c-.51-.16-1.03-.17-1.55-.05l-.62.3c-.38.28-.61.68-.7 1.19z" fill="#fcfcfc"/><path d="M255.53 710.26l4.16-3.49c.23-.21.33-.46.3-.76.05-.32-.03-.62-.23-.88-.21-.35-.48-.65-.8-.88-.35-.33-.74-.59-1.17-.78-.91-.43-1.93-.78-2.94-.77-.73.01-1.46.09-2.07.6l-4.16 3.45c-.24.21-.34.46-.31.76-.05.32.02.62.22.88.21.36.48.65.8.89.35.33.74.59 1.17.79.91.44 1.93.81 2.95.79.73.0 1.46-.09 2.08-.6z" fill="#fcfcfc"/><path d="M385.64 802.17c.24.02-1.69-3.66-1.87-3.94-.57-.86-1.71-3.11-2.84-3.19-.24-.02 1.68 3.66 1.86 3.94.57.86 1.71 3.11 2.85 3.19z" fill="#fcfcfc"/></g><g><path d="M438.01 729.74c3.81.18 4.12-6.39.32-6.57-3.79-.2-4.14 6.37-.32 6.57z" fill="#fcfcfc"/><path d="M409.81 758.67c3.86.25 4.26-6.32.41-6.57-3.85-.25-4.28 6.32-.41 6.57z" fill="#fcfcfc"/><path d="M399.05 763.96c3.87.25 4.31-6.32.45-6.57-3.86-.25-4.33 6.32-.45 6.57z" fill="#fcfcfc"/><path d="M423.95 779.84c3.91.21 4.25-6.36.36-6.57-3.89-.21-4.27 6.36-.36 6.57z" fill="#fcfcfc"/><path d="M491.31 701.73c3.75.08 3.89-6.5.15-6.58-3.74-.08-3.91 6.5-.15 6.58z" fill="#fcfcfc"/><path d="M503.86 711.55c3.77.04 3.86-6.54.1-6.58-1.88-.02-2.85 1.6-2.88 3.25-.03 1.65.88 3.32 2.77 3.33z" fill="#fcfcfc"/><path d="M497.43 719.77c-1.77.89-3.47 1.79-5.09 2.68-.26-1.84.72-3.96 2.87-3.91 1.03.02 1.76.52 2.22 1.23z" fill="#fcfcfc"/><path d="M524.66 701.61c3.75.0 3.77-6.58.03-6.58-1.87.0-2.81 1.64-2.83 3.28-.01 1.65.92 3.3 2.79 3.3z" fill="#fcfcfc"/><path d="M485.25 698.08l6.87 10.93c.44.7 1.48 1.18 2.16 1.41.9.31 2.06.47 3 .28.65-.13 1.59-.33 1.95-1.03.34-.64.22-1.18-.16-1.78l-6.91-10.93c-.44-.7-1.47-1.18-2.15-1.41-.89-.31-2.05-.47-2.98-.28-.65.13-1.58.33-1.95 1.03-.34.64-.23 1.18.14 1.78z" fill="#fcfcfc"/><path d="M434.02 730.41c1.78.1 4-.89 5.15-2.43 1-1.35.61-2.63-1.02-2.72-1.77-.1-3.99.89-5.15 2.43-1 1.34-.62 2.63 1.02 2.72z" fill="#fcfcfc"/><path d="M429.7 780.19c-1.47 1.9-2.93 3.85-4.36 5.83-1.32-2.58-.6-6.49 2.8-6.31.58.03 1.1.2 1.56.48z" fill="#fcfcfc"/><path d="M570.6 712.72c.54 4.81 2.22 9.43 4.63 13.46.56.94 1.24 1.82 2 2.57.52.51 1.34 1.28 2.05 1.48.38.1.92.2.98-.41.06-.69-.39-1.51-.71-2.04-.28-.47-.55-.95-.81-1.43-.36-.66.36.74.03.06-.12-.25-.24-.5-.36-.75-.2-.44-.39-.89-.57-1.34-.1-.26-.2-.52-.3-.78l-.14-.39c.11.33.14.4.07.2-.61-1.98-1.08-3.97-1.33-6.04-.09-.76-.8-1.79-1.19-2.36-.6-.86-1.36-1.75-2.15-2.38-.47-.37-1.16-.99-1.77-.9-.53.07-.48.58-.43 1.06z" fill="#fcfcfc"/><path d="M569.11 644.93c1.75-.05 3.65-1.48 3.62-3.79-.03-2.26-1.95-3.8-3.69-3.75-1.74.06-3.64 1.47-3.63 3.77.01 2.26 1.95 3.82 3.7 3.76z" fill="#fcfcfc"/><path d="M522.14 652.56l.3.2-.61-.42c1.81 1.24 3.46 2.74 4.9 4.52l-.41-.51c.57.71 1.11 1.46 1.61 2.24.43.68 1.12 1.02 1.81 1.21.9.25 2.03.26 2.94.01.76-.2 1.68-.49 2.21-1.19.35-.47.67-1.15.29-1.75-1.03-1.6-2.22-3.09-3.51-4.4-1.33-1.36-2.8-2.46-4.34-3.45-.71-.46-1.92-.52-2.7-.46-.83.06-1.92.3-2.64.84-.46.35-1.12.91-1.03 1.65.1.79.63 1.15 1.18 1.51z" fill="#fcfcfc"/><path d="M500.8 648.16c1.72.05 3.48-.47 5.07-1.25.39-.19 2.62-1.65 1.02-1.67-1.72-.03-3.48.51-5.06 1.26-.39.19-2.62 1.62-1.02 1.65z" fill="#fcfcfc"/><path d="M482.81 643.37l1.1 2.71c.16.24.36.43.6.55.31.23.64.4.99.52.44.18.9.32 1.36.41.49.13.99.22 1.49.26l.91.04c.48.01.94-.05 1.4-.19l.42-.23c.21-.19.24-.41.1-.67l-1.11-2.7c-.16-.24-.36-.43-.6-.55-.31-.23-.64-.4-.99-.52-.44-.18-.9-.32-1.36-.41-.49-.13-.98-.22-1.48-.26l-.91-.04c-.47-.01-.94.05-1.4.19l-.42.22c-.21.19-.24.41-.1.67z" fill="#fcfcfc"/><path d="M482.64 640.61l1.19-1.31c.33-.31.56-.69.67-1.16.19-.42.26-.88.19-1.37-.04-.49-.19-.93-.44-1.31-.2-.46-.49-.83-.86-1.12l-.81-.56c-.62-.33-1.27-.49-1.95-.49l-.94.12c-.58.14-1.09.44-1.55.88l-1.19 1.31c-.34.31-.56.69-.68 1.15-.2.42-.26.88-.19 1.37.04.49.18.93.43 1.32.2.46.49.84.86 1.13l.81.56c.62.33 1.27.49 1.95.49l.94-.12c.58-.14 1.1-.44 1.55-.88z" fill="#fcfcfc"/><path d="M473.94 604.35l-.04 1.34c-.03.42.04.81.21 1.18.13.45.34.85.63 1.19.31.43.67.78 1.07 1.05.4.35.84.61 1.31.79l.89.26c.52.11 1.04.07 1.56-.1l.59-.35c.35-.32.54-.74.58-1.26l.04-1.34c.03-.42-.04-.81-.21-1.18-.13-.45-.34-.85-.63-1.19-.31-.43-.67-.78-1.07-1.05-.4-.35-.83-.61-1.31-.79l-.88-.26c-.52-.11-1.04-.07-1.55.1l-.59.35c-.35.32-.54.74-.58 1.26z" fill="#fcfcfc"/><path d="M439.76 727.92l3.81-3.87c.21-.23.29-.49.23-.79.02-.33-.08-.61-.31-.86-.25-.33-.54-.6-.88-.8-.38-.29-.79-.51-1.23-.66-.95-.35-1.99-.59-3-.49-.72.07-1.44.21-2 .78l-3.82 3.83c-.21.23-.29.49-.23.79-.02.33.08.61.3.86.24.33.54.6.88.8.38.3.79.52 1.24.68.95.36 2 .61 3.01.51.73-.07 1.45-.21 2.01-.78z" fill="#fcfcfc"/><path d="M422.48 779.24c3.85.21.3-7.33-2.35-7.47-3.84-.21-.33 7.32 2.35 7.47z" fill="#fcfcfc"/><path d="M408.19 755.41c1.49.1 4.16.46 5.47-.49 1.2-.87-.72-1-1.46-1.05-1.48-.1-4.15-.46-5.47.49-1.2.87.72 1 1.46 1.05z" fill="#fcfcfc"/><path d="M397.61 761.22c1.73.11 2.77-1.33 2.19-3.13-.62-1.9-2.62-3.6-4.48-3.72-1.73-.13-2.77 1.3-2.19 3.11.61 1.91 2.61 3.63 4.48 3.74z" fill="#fcfcfc"/></g><g><path d="M623.45 729.06c3.82-.3 3.29-6.86-.5-6.56-3.78.3-3.33 6.86.5 6.56z" fill="#fcfcfc"/><path d="M671.97 693.87c3.65-.53 2.7-7.04-.91-6.52-3.6.52-2.74 7.05.91 6.52z" fill="#fcfcfc"/><path d="M685.78 701.48c3.68-.6 2.61-7.09-1.03-6.5-3.63.59-2.66 7.1 1.03 6.5z" fill="#fcfcfc"/><path d="M679.44 716.34c3.77-.54 2.78-7.05-.95-6.51-3.72.54-2.83 7.06.95 6.51z" fill="#fcfcfc"/><path d="M707.52 771.79c4.09-.74 2.92-7.22-1.12-6.49-4.03.66-2.97 7.15 1.12 6.49z" fill="#fcfcfc"/><path d="M704.06 688c1.81-.32 2.38-2.14 2.07-3.75-.32-1.62-1.51-3.03-3.3-2.72-3.56.65-2.38 7.13 1.23 6.47z" fill="#fcfcfc"/><path d="M665.53 691.2c2.77 3.29 5.57 6.51 8.4 9.73.54.62 1.63.93 2.34 1.04.93.16 2.09.13 2.98-.21.61-.23 1.49-.59 1.73-1.33.22-.69.02-1.2-.45-1.73-2.86-3.22-5.68-6.44-8.47-9.67-.54-.62-1.6-.93-2.29-1.05-.91-.16-2.04-.13-2.92.18-.6.22-1.47.56-1.72 1.3-.23.68-.04 1.2.41 1.74z" fill="#fcfcfc"/><path d="M682.79 719.19c1.36-.2 1.34-.77.04-1.19-1.72-.57-3.84-.71-5.59-.46-1.35.19-1.34.77-.05 1.19 1.71.57 3.84.71 5.6.46z" fill="#fcfcfc"/><path d="M619.56 730.23c1.78-.1 3.88-1.41 4.83-3.08.83-1.46.27-2.69-1.36-2.56-1.77.15-3.86 1.4-4.82 3.06-.84 1.45-.3 2.69 1.35 2.58z" fill="#fcfcfc"/><path d="M695.68 787.97c1.47-.23 3.16-1.17 2.07-2.81-.52-.78-1.53-1.31-2.61-1.6-1.08-.31-2.24-.39-3.08-.27-1.45.21-3.14 1.11-2.07 2.77 1.02 1.59 4 2.15 5.69 1.91z" fill="#fcfcfc"/><path d="M709.04 771.1l12.38 2.08c.52.09-.01-.57-.07-.65-.51-.67-1.26-1.29-1.9-1.82-.86-.71-1.75-1.41-2.69-2.01-.54-.34-1.16-.83-1.79-.94-4.1-.71-8.19-1.36-12.24-2.17-.51-.1.0.57.05.65.49.68 1.22 1.32 1.84 1.86.84.73 1.71 1.45 2.64 2.06.53.35 1.15.83 1.78.94z" fill="#fcfcfc"/><path d="M752.55 688.39c.86.4 1.76 1.03 2.52 1.68-1.28.24-2.58.48-3.89.71-.25-.57-.48-1.14-.69-1.72-.17-.45-.33-.93.15-1.13.56-.22 1.37.22 1.91.47z" fill="#fcfcfc"/><path d="M732.68 623.63c1.54-.42 2.86-2.21 2.26-4.44-.59-2.18-2.66-3.27-4.16-2.85-1.51.42-2.82 2.2-2.26 4.44.55 2.19 2.62 3.27 4.16 2.85z" fill="#fcfcfc"/><path d="M692.38 640.29l.31.14-.63-.3c1.87.89 3.67 2.12 5.32 3.6l-.47-.42c.66.59 1.28 1.22 1.89 1.9.52.58 1.22.79 1.88.85.87.08 1.89-.13 2.66-.53.64-.34 1.43-.79 1.76-1.58.22-.53.37-1.25-.1-1.77-1.26-1.38-2.62-2.61-4.05-3.66-1.47-1.08-3-1.89-4.57-2.59-.72-.31-1.83-.17-2.52.01-.74.2-1.68.61-2.22 1.27-.35.42-.84 1.09-.62 1.81.24.76.79 1.02 1.36 1.28z" fill="#fcfcfc"/><path d="M672.18 639.52c1.59-.22 3.1-1.04 4.41-2.05.33-.25 2.1-2.04.64-1.8-1.56.26-3.07 1.04-4.39 2.06-.33.25-2.14 2-.66 1.79z" fill="#fcfcfc"/><path d="M654.87 637.47l1.43 2.52c.19.22.4.37.64.46.32.18.65.31 1 .38.44.12.88.19 1.33.22.47.06.95.08 1.42.05l.85-.08c.44-.06.86-.2 1.26-.41l.35-.29c.16-.22.16-.44-.01-.67l-1.44-2.5c-.19-.21-.4-.37-.64-.45-.32-.18-.65-.31-1-.38-.44-.12-.88-.19-1.32-.22-.47-.06-.94-.08-1.41-.05l-.84.08c-.44.06-.86.18-1.26.39l-.35.28c-.17.22-.16.44.0.67z" fill="#fcfcfc"/><path d="M654.3 634.76l.9-1.47c.26-.35.41-.76.44-1.24.11-.45.1-.91-.03-1.38-.11-.48-.31-.89-.6-1.24-.26-.42-.58-.75-.96-.99l-.83-.44c-.61-.23-1.23-.3-1.85-.2l-.84.26c-.51.23-.93.6-1.28 1.1l-.9 1.46c-.27.35-.42.76-.46 1.23-.12.44-.11.9.02 1.38.11.48.31.9.59 1.25.25.42.58.76.96 1l.83.44c.62.23 1.24.29 1.87.2l.85-.26c.51-.23.94-.6 1.29-1.1z" fill="#fcfcfc"/><path d="M641.1 600.13l.15 1.34c.03.42.15.8.35 1.14.18.43.43.8.73 1.1.34.38.71.68 1.12.9.41.29.84.49 1.3.61l.84.14c.49.03.94-.08 1.38-.33l.47-.44c.26-.37.37-.81.33-1.33l-.16-1.33c-.04-.42-.16-.8-.36-1.13-.18-.43-.43-.79-.73-1.09-.34-.38-.71-.67-1.11-.88-.4-.28-.83-.48-1.28-.6l-.83-.14c-.48-.04-.94.06-1.38.3l-.48.43c-.27.36-.38.8-.34 1.32z" fill="#fcfcfc"/><path d="M624.96 727.03l3.3-4.31c.18-.26.22-.53.13-.81-.02-.33-.16-.6-.41-.81-.29-.3-.61-.53-.97-.68-.41-.24-.85-.41-1.31-.51-.98-.23-2.05-.34-3.03-.11-.71.17-1.4.4-1.89 1.04l-3.32 4.27c-.19.25-.23.52-.14.81.02.33.15.6.41.82.28.3.61.53.97.69.41.25.85.42 1.31.52.99.25 2.06.35 3.06.12.72-.17 1.41-.4 1.9-1.04z" fill="#fcfcfc"/><path d="M785.31 808c1.25-.35-1.86-2.37-2.13-2.54-1.07-.68-3.75-2.6-5.26-2.18-1.24.34 1.83 2.38 2.1 2.55 1.06.69 3.76 2.6 5.29 2.18z" fill="#fcfcfc"/><path d="M781.52 778.48c.25-.07-3.06-2.81-3.34-3-.9-.6-2.87-2.29-4.07-1.96-.26.07 3.02 2.82 3.31 3.01.89.6 2.88 2.28 4.1 1.95z" fill="#fcfcfc"/></g><g><path d="M832.88 637.56c-.17.11-.34.23-.48.36-.45.42-1.1 1.03-1.06 1.81.04.72.4 1.13 1.01 1.47.67.38 1.35.75 2.03 1.13-.54-1.58-1.05-3.17-1.5-4.77z" fill="#fcfcfc"/><path d="M803.45 594.75l2.09 1.9c.23.14.46.22.69.23.33.07.65.08.96.04.4-.03.79-.1 1.17-.21.41-.09.81-.22 1.18-.39l.66-.34c.34-.19.64-.44.89-.75l.18-.37c.05-.25-.04-.45-.27-.62l-2.15-1.87c-.24-.14-.47-.22-.7-.23-.33-.07-.65-.09-.96-.05-.4.02-.78.09-1.15.2-.41.09-.79.21-1.16.38l-.65.33c-.33.19-.63.43-.88.75l-.18.37c-.05.25.03.46.25.62z" fill="#fcfcfc"/><path d="M801.98 592.41l.17-1.64c.08-.41.04-.83-.11-1.28-.08-.45-.26-.87-.54-1.27-.27-.41-.59-.73-.94-.96-.36-.31-.74-.52-1.14-.63-.28-.05-.54-.1-.82-.16-.59-.05-1.12.06-1.59.32l-.59.47c-.33.35-.55.81-.65 1.37l-.21 1.61c-.09.4-.06.83.07 1.28.06.45.23.88.51 1.28.26.42.57.75.93.99.36.32.74.54 1.15.65l.85.17c.6.04 1.14-.07 1.63-.34l.61-.48c.34-.36.57-.81.67-1.38z" fill="#fcfcfc"/><path d="M778.86 563.84l.6 1.2c.18.38.4.71.68.96.29.35.61.63.95.83.4.26.79.44 1.18.54.42.16.82.23 1.21.22l.69-.09c.39-.1.71-.31.95-.65l.21-.52c.07-.41.0-.84-.23-1.31l-.62-1.19c-.19-.38-.42-.7-.7-.96-.3-.35-.62-.62-.97-.82-.4-.26-.79-.45-1.18-.54-.42-.16-.81-.24-1.2-.23l-.67.09c-.38.09-.68.31-.92.64l-.2.52c-.07.41.0.85.22 1.32z" fill="#fcfcfc"/></g></g><path d="M529.34 293.05s49.88-80.77 68.31-61.71c18.43 19.06 27.21 21.41 10.74 82.89-16.47 61.48-65.41 86.02-65.41 86.02.0.0-46.58 15.76-86.88-79.76-40.3-95.52 35.57-115.2 73.25-27.44z" fill="#fcb293"/></g></g></g></g></svg>