<svg id="_лой_2" xmlns="http://www.w3.org/2000/svg" width="1029.17" height="1080" viewBox="0 0 1029.17 1080"><g id="Comics03_506007158"><g id="Comics03_506007158-2"><path d="M869.14 77.05 789.7 446.7 1029.17 717.62 715.08 788.5 660.56 1080 453.53 813.38 152.76 894.13 270.01 614.89.0 439.13 298.09 346.37 342.08.0 542.65 236.66 869.14 77.05z" fill="#ff2f18"/><path d="M740.61 232.06 707.59 476.09 887.89 672.92 652.14 702.46 619.11 915.03 478.07 744.85 237.18 810.7 314.38 597.49 111.75 447.87 347.08 401.82 398.91 166.79 538.94 331.61 740.61 232.06z" fill="#2baff0"/><path d="M646.97 373.06 621.21 508.08 735.29 614.46 580.66 623.48 577.27 730.67 486.45 647.81 342.43 706.72 425.46 564.71 316.86 498.47 431.66 476.03 450.7 353.67 514.94 436.46 646.97 373.06z" fill="#ffd724"/></g></g></svg>