<svg id="_лой_2" xmlns="http://www.w3.org/2000/svg" width="1080" height="849.06" viewBox="0 0 1080 849.06"><g id="Figure03_380829402"><g id="Figure03_380829402-2"><g><g><path d="M453.16 157.19c.39-.21.78-.45 1.22-.69-.61.35-1.22.67-1.84.99.15-.09.3-.15.45-.22.06.0.11-.06.17-.08z" fill="#ffe8dc"/><path d="M271.04 323.21c.39-.62.86-1.32 1.36-2.09-.79 1.18-1.59 2.36-2.36 3.54.3-.44.59-.85.84-1.23.05-.07.11-.15.16-.22z" fill="#ffe8dc"/><path d="M607.46 434.87c.28.07.55.15.83.22.26.05.52.1.79.13-.54-.11-1.08-.23-1.61-.36z" fill="#ffe8dc"/><path d="M298.19 849.06c.3-1.12.6-2.24.91-3.37 2.16-7.74 4.42-15.45 6.8-23.13 1.1-3.56 2.22-7.09 3.36-10.62.75-2.35 1.52-4.71 2.29-7.06.14-.42.96-2.83 1.4-4.18.22-.63.41-1.18.45-1.32.62-1.76 1.23-3.51 1.84-5.25 1.25-3.51 2.5-7 3.76-10.51 2.95-8.15 5.98-16.27 9.06-24.37 20.59-54.16 41.53-108.72 66.84-160.87 5.86-12.13 12.05-24.12 18.65-35.87 1.55-2.77 18.94-34.88 20.89-34.19-.13-.04-4.65 6.66-.81 1.29.9-1.24 1.77-2.5 2.65-3.74 1.78-2.48 3.6-4.95 5.44-7.39 4.27-5.7 8.7-11.28 13.3-16.71 8.53-10.12 17.63-19.75 27.34-28.76.1-.1.63-.63 1.23-1.23 2.75-2.27 5.45-4.58 8.24-6.8 5.16-4.1 10.49-8.01 15.96-11.71 5.48-3.69 11.12-7.17 16.89-10.35.61-.33 1.21-.65 1.82-.98 1.92-.79 8.48-3.78 9.2-4.06 6.12-2.48 12.33-4.34 18.68-6.11.31-.09.55-.16.8-.23.1-.02.22-.03.34-.05 3.93-.58 7.83-1.15 11.79-1.48 5.06-.42 10.54.27 15.54-.28.57.05 1.14.11 1.71.18 3.12.38 6.23.87 9.31 1.48 3.82.73 7.57 1.99 11.34 2.96-2.44-.48-3.35-.4 3.08.76-.28-.07-.55-.15-.83-.22.54.12 1.07.25 1.61.36-.26-.03-.53-.08-.79-.13.53.16 1.04.32 1.47.5 2.92 1.17 5.8 2.41 8.65 3.75 5.32 2.49 10.5 5.29 15.53 8.33.54.32 1.86 1.16 3.08 1.94 1.6 1.14 3.72 2.66 4.41 3.17 10.07 7.65 19.4 16.25 28 25.49.5.52.97 1.1 1.44 1.66 1.32 1.57 2.63 3.15 3.9 4.77 4.17 5.27 8.12 10.69 11.89 16.27 3.51 5.22 6.82 10.53 9.97 15.95 1.44 2.51 2.86 5.05 4.24 7.61.28.54.58 1.1.86 1.66 4.95 11.09 9.74 22.16 13.49 33.75 2.08 6.48 3.91 13.04 5.57 19.64.86 3.4 1.64 6.83 2.44 10.23.14.57.47 2.32.64 3.15-.07-.44-.21-1.22-.45-2.45-.28-1.43-.4-2.19-.46-2.49.19.91 1.08 5.63 1.28 6.62 2.92 14.9 5.13 29.9 6.86 44.95 7.32 63.33 8.77 127.47 12.28 191.1.34 6.13.67 12.25 1.01 18.38h318.48c.02-.31.03-.63.05-.94 5.69-89.49 15.36-178.77 16.91-268.47 1.31-77.36-5.54-154.4-25.49-229.34-18.29-68.87-48.57-137.33-93.05-193.39-23.68-29.86-50.29-57.59-81.4-79.8-35.82-25.57-72.65-43.98-114.4-57.66-67.96-22.29-143-24.45-213.03-11.41-76.17 14.15-148.89 42.1-212.53 86.91C205.71 189.45 122.85 336.19 71.9 489.01 32.99 605.71 15.22 727.26.0 849.06H298.19z" fill="#ffe8dc"/><path d="M454.38 156.5c-.44.24-.83.48-1.22.69-.06.03-.11.07-.17.08-.15.07-.3.14-.45.22.62-.32 1.23-.65 1.84-.99z" fill="#ffe8dc"/><path d="M272.4 321.12c-.5.77-.97 1.48-1.36 2.09-.05.07-.11.15-.16.22-.25.38-.54.78-.84 1.23.77-1.18 1.57-2.36 2.36-3.54z" fill="#ffe8dc"/></g><g><path d="M510.65 528.74s.01-.02.03-.02c.01-.04.04-.09.05-.13-.01.04-.05.1-.08.15z" fill="#ff9500"/><path d="M510.65 528.74c-.29.23-.58.46-.87.69-1.08.86-1.38 1.34-1.24 1.45.93-.73 1.77-1.48 2.11-2.15z" fill="#ff9500"/><path d="M508.54 530.89c.2.18 1.44-.56 2.14-2.16-.01.0-.03.02-.03.02-.35.67-1.19 1.42-2.11 2.15z" fill="#ff9500"/><path d="M368.77 849.06c.54-2.03 1.07-4.07 1.61-6.1 13.5-51.2 25.84-102.92 42.32-153.27 2.02-6.18 4.12-12.33 6.3-18.45.37-1.06.76-2.11 1.14-3.16.04-.1.06-.18.1-.28 1.24-3.23 2.47-6.45 3.75-9.66 4.65-11.64 9.67-23.11 15.19-34.35 5.47-11.14 11.42-22.07 17.96-32.63 2.37-3.84 4.88-7.59 7.38-11.34.63-.55 2.01-2.9 2.44-3.5 1.78-2.42 3.58-4.8 5.42-7.15 6.65-8.55 13.77-16.75 21.31-24.51 3.89-4 7.9-7.89 12.04-11.64.6-.55 1.74-1.31 2.8-2.13-.14-.11.16-.59 1.24-1.45.3-.23.58-.46.87-.69.03-.04.07-.1.08-.15-.01.04-.04.09-.05.13 1.15-.92 2.29-1.85 3.44-2.76 8.41-6.58 17.26-12.6 26.49-17.95 4.12-2.38 9.16-4.18 13.08-6.87.76-.33 1.5-.66 2.25-.97 3.05-1.3 6.11-2.52 9.21-3.66 4.85-1.78 9.76-3.37 14.73-4.74 2.38-.66 4.78-1.28 7.19-1.84.95-.22 1.9-.41 2.87-.62 9.12-1.3 18.22-2.12 27.46-2.04 2.34.0 4.67.09 7 .21.45.02.92.05 1.37.08 4.95 1 10.12 1.24 15.09 2.22 4.56.9 9.06 2.03 13.53 3.36 1.92.58 3.79 1.24 5.7 1.84.86.32 1.72.65 2.55.99 8.82 3.66 17.08 8.2 25.16 13.26.11.07.19.12.28.19.08.05.15.1.23.16 1.82 1.36 3.6 2.75 5.35 4.19 3.97 3.3 7.77 6.83 11.34 10.58.27.29.99 1.09 1.73 1.9.8 1.01 2.43 3.02 2.91 3.68 2.91 3.94 5.57 8.05 7.97 12.32.65 1.15 1.47 2.54 1.91 3.23.89 1.95 1.61 4.01 2.37 5.99 2.21 5.75 4.02 11.62 5.45 17.59.09.36.38 1.26.64 2.2.04.32.09.66.15 1.08.34 2.43.7 4.85.97 7.3.73 6.57 1.08 13.17 1.14 19.77.06 5.86-.05 11.71-.38 17.55-.07 1.27-.16 2.52-.25 3.79-.02.48-.09 1.62-.15 2.54.0-.2.0-.44.03-.71.05-.87.07-1.43.08-1.75-.05.61-.13 1.88-.19 2.32-.25 2.11-.48 4.22-.75 6.33-3.2 25.11-8.97 49.77-14.67 74.4-11.16 48.2-21.48 96.6-30.8 145.2h284.3c1.02-11.96 2.04-23.93 3.06-35.89 6.69-78.5 14.76-157.19 13.89-236.07-.82-76.56-11.24-155.7-40.82-226.77-30.67-73.68-80.91-143.7-155.37-177.65-70.23-32.02-150.43-33.96-224.46-14.81-68.04 17.58-129.79 54.25-182.79 99.72-112.91 96.85-177.69 236.04-214.03 377.75-18.01 70.27-29.68 141.94-39.79 213.71h241.62z" fill="#ff9500"/></g><g><path d="M597.44 495.24c.55.43 1.36.44 1.81.34-.5-.08-1.17-.18-1.62-.34-.06.0-.13.0-.19.0z" fill="#ae4823"/><path d="M596.97 495.23c.16.0.31.0.47.0-.06-.05-.12-.1-.18-.17-.1.06-.2.11-.3.16z" fill="#ae4823"/><path d="M595.65 495.59c.32.0.78-.1 1.32-.36h-.08c-.36.14-.79.26-1.24.36z" fill="#ae4823"/><path d="M322.82 840.72s0-.03.0-.04" fill="#ae4823"/><path d="M420.43 849.06c20.67-50.98 41.14-102.06 61.66-153.1 5.59-13.91 11.16-27.83 16.87-41.69 1.43-3.48 2.89-6.95 4.33-10.42.02-.04.05-.11.08-.19.22-.5.51-1.21.62-1.45.82-1.95 1.65-3.89 2.49-5.84 2.88-6.69 5.82-13.36 8.84-20 12.11-26.6 25.53-52.67 41.54-77.15 3.96-6.05 8.08-12 12.36-17.82.97-1.32 1.94-2.63 2.93-3.93.4-.54.81-1.07 1.22-1.61.11-.14.22-.28.3-.38 2.21-2.75 4.38-5.52 6.71-8.17 2.08-2.36 4.25-4.64 6.58-6.76.57-.51 1.17-1 1.73-1.52 1.34-.9 2.67-1.81 4.1-2.59.28-.16.57-.3.86-.44.53-.12 1.27-.25 1.99-.42-.69.0-.71-.38.59-.37.21.0.43.0.65.0.14-.05.26-.1.38-.17h.02c.08.06.2.13.35.18.34.0.69.0 1.02.0.33.0.55.0.71.03.02.04.09.1.2.18-.06.05-.16.1-.31.13.24.04.43.07.54.1.06.02.12.03.18.05.89.56 2.02 1.44 3.04 1.98.26.22.5.43.74.66 1.16 1.12 2.22 2.31 3.27 3.52.11.17.26.38.45.66.87 1.27 1.68 2.57 2.42 3.92.65 1.18 1.26 2.37 1.85 3.59.27.58.54 1.16.81 1.73 5.15 14.07 8.92 28.47 11.53 43.24.14.77 1.05 7.08 1.43 9.28-.12-.93-.21-2.13.04.03.02.19.05.38.07.57-.03-.13-.06-.34-.11-.6.04.3.08.58.12.7v-.03s.02.06.02.07c0 0 0-.02-.02-.04.09.74.18 1.49.26 2.23.25 2.17.47 4.34.68 6.51.7 7.52 1.16 15.06 1.45 22.6.57 15.13.44 30.27.18 45.39-.57 33.11-1.53 66.21-2.88 99.3-1.48 36.05-3.59 72.06-6.18 108.03h135.17c3.77-55.57 6.01-111.24 5.12-166.93-.76-47.53-3.85-95.07-10.53-142.14-5.95-41.88-14.75-83.43-32.74-121.96-8.97-19.23-20.52-37.57-34.7-53.39-14.23-15.89-33.21-28.85-54.55-32.47-23.24-3.95-45.83.1-67.25 9.57-18.88 8.34-35.45 22.04-49.33 37.15-14.26 15.53-26.48 32.96-38.05 50.54-11.16 16.96-21.55 34.43-31.23 52.27-20.12 37.11-37.15 75.9-51.96 115.4-28.76 76.67-49.25 156.42-65.07 236.69-.27 1.37-.58 2.73-.82 4.11-.14 1.01-.27 2.03-.41 3.04.02-.11.02-.18.02-.22-.02.14-.09.59-.2 1.35-.36 2.3-.68 4.62-1.02 6.94v.05h98.83zm156.8-473.1c.24-.12.48-.23.73-.34.31-.14.58-.24.8-.28-.46.18-1.02.48-1.53.62-.02.0-.06.02-.08.03-.06.0-.11.02-.18.03.08-.02.17-.05.26-.06z" fill="#ae4823"/><path d="M615.24 370.5c-.22.0-.41.0-.6.0-.09-.02-.18-.03-.26-.05-.12-.02-.25-.04-.38-.06.42.05.83.1 1.24.11z" fill="#ae4823"/></g></g><path d="M726.55 419.12c-.29.66-.57 1.33-.87 1.99-.03.07-.06.14-.09.2-.59 1.48-1.18 2.97-1.74 4.47-1.46 3.88-2.78 7.81-3.99 11.77 1.71 1.02 3.43 2.04 5.14 3.07 5.18 3.12 10.28 6.44 15.55 9.41 8.23 4.63 16.64 8.91 24.9 13.48 4.77-4.52 9.17-9.38 13.46-14.37-.37-.27-.73-.54-1.1-.81-.61-.45-1.22-.9-1.84-1.35 1.6 1.15-.71-.57-.83-.66-2.45-1.95-4.9-3.89-7.36-5.83-5.62-4.42-11.41-8.8-17.42-12.67-5.35-3.44-10.73-6.85-16.12-10.23-1.79-1.12-3.56-2.33-5.39-3.4-.79 1.63-1.55 3.27-2.29 4.93z" fill="#243f3e"/><g><path d="M614.08 821.26c.5 1.41 1.21 2.74 2.01 4 .51 1.11 1.08 2.18 1.71 3.24.88 1.13 1.83 2.2 2.85 3.2.67.5 1.36.97 2.07 1.42.54.48 1.09.96 1.65 1.42 1.91 2.36 4.04 4.55 6.32 6.58 3.27 2.92 6.75 5.53 10.38 7.93h78.37c-.15-.81-.16-1.65-.04-2.47 9.08.59 18.19.74 27.29.54 16.62-.36 33.27-1.93 49.64-4.9.66-.12 1.27-.36 1.81-.7 4.08-.53 8.11-1.28 12.11-2.22-.29-1.48-.58-2.96-.84-4.45-1.83-10.55-2.82-21.3-3.02-31.99-.19-9.63.27-19.28 1.65-28.81 1.52-10.47 3.61-21.07 7.48-30.96 3.67-9.38 8.3-18.55 14.31-26.66 5.67-7.66 12.37-14.79 19.68-20.92 7.27-6.1 15.2-11.55 23.29-16.5.86-.53 1.81-.76 2.77-.76 1.08.0 2.16.31 3.12.83.64-.45 1.28-.89 1.91-1.35.05-.04.11-.06.17-.09 4.44-3.97 9.12-7.83 13.99-11.49 8-4.57 15.51-8.35 22.97-11.55 7.85-3.24 15.12-5.59 22.22-7.2 2.8-.63 5.45-1.12 8.09-1.49l.69-.08c.06.0.12-.01.18-.03l.58-.05.31-.04.24-.03.26-.03c.11.0.22-.02.34-.03l.26-.02.24-.02.36-.03.25-.02.25-.02c.12-.01.24-.02.37-.03l.44-.02.24-.04h.18l.23-.03h.23l.19-.03h.19c.13-.02.26-.03.39-.03h.24l.22-.03h.19l.19-.02h.24l.28-.03c.1.0.2-.01.31-.01.18-.01.36-.02.54-.03h.3l.81-.04c1.22-.04 2.46-.07 3.72-.08h.69c5.79.0 11.78.37 18.32 1.13.56.22 1.13.45 1.68.68.74.16 1.47.34 2.19.54 1.01.3 2 .65 2.94 1.02-1.3-1.73-2.85-3.34-4.72-4.8-4.13-3.24-9.34-4.24-14.31-5.01-3.8-.59-7.7-.63-11.15-.68l-1.89-.03-1.76-.04c-2.72-.04-5.51-.08-8.18-.45-1.26-.17-2.56-.3-3.89-.41-.14.28-.27.56-.43.82-1.03 1.75-2.42 3.15-4.17 4.17-.92.39-1.84.77-2.77 1.18-4.54.61-9.82 1.29-15.02 1.6-4.4.24-8.86.39-13.65.43-1.07.01-2.13.01-3.2.01-.91.0-1.83.0-2.77.0-.56.14-1.13.26-1.69.42-.3.09-.6.19-.9.28-6.21 4.33-12.37 8.72-18.5 13.16-10.71 7.74-21.5 15.38-32.07 23.31-10.53 7.9-20.85 16.14-30.34 25.27-.82.79-1.63 1.58-2.43 2.38-4.22 3.39-8.44 6.77-12.68 10.14-5.67 4.49-11.79 9.29-18.09 13.94-1.21.9-2.43 1.77-3.65 2.65-1.61 1.16-3.22 2.31-4.8 3.51-2.84 2.22-5.65 4.5-8.45 6.78-2 1.62-4 3.24-6.01 4.84-13.76 10.95-26.27 20.68-40.13 28.71-3.92 2.28-6.97 3.88-9.91 5.2-3.41 1.53-6.95 3.11-10.64 4.14-3.99 1.11-7.37 1.65-10.38 1.65h-.29c-1.84-.02-3.84-.24-5.93-.66-1.77-.34-3.33-1.03-4.97-1.76l-.34-.15c-3.3-1.45-6.52-4.39-8.63-7.87-2.47-4.08-3.85-9.23-3.88-14.52-.03-4.86.72-10.27 2.21-16.07 1.08-4.18 2.43-8.46 4-12.71.32-.87.64-1.73.96-2.62.13-.36.27-.73.4-1.1-.94.59-1.95 1.06-3.05 1.37l-3.06.41c-2.59.0-5.13-.9-7.16-2.5-7.45 7.3-14.95 14.95-22 22.96-2.31 2.67-4.25 4.98-5.93 7.06-.84 1.04-1.67 2.09-2.5 3.14l-.6.76-.12.15c-.68.86-1.36 1.71-2.05 2.55-.77.94-1.55 1.86-2.33 2.78-1.62 2.56-3.21 5.12-4.78 7.7.62-.77 1.25-1.54 1.86-2.33 2.15-2.75 4.17-5.59 6.21-8.43.2-.27.47-.39.73-.39.66.0 1.3.72.81 1.42-2.19 3.13-4.21 6.29-5.91 9.7-2.86 6.02-5.13 12.35-6.58 18.85-.61 1.16-1.16 2.35-1.65 3.58-.8 2.02-1.24 4.15-1.59 6.29-.34 2.12-.21 4.28.02 6.41.21 1.94.85 3.75 1.5 5.58z" fill="#ff9380"/><path d="M828.34 849.06c-.49-2.45-.96-4.83-1.4-7.14-2.02-10.64-3.6-21.92-4.72-33.54-1.02-10.58-1.31-20.48-.88-30.26.47-10.86 1.98-21.33 4.48-31.12 1.36-5.29 3.17-10.51 5.39-15.53.9-2.02 1.82-4.12 2.84-6.12l.67-1.34c.77-1.56 1.58-3.17 2.58-4.65l.42-.63c1.36-2.02 2.72-4.05 4.11-6.04l.74-1.07c1.16-1.67 2.36-3.41 3.72-4.94 1.68-1.92 3.24-3.55 4.75-4.99.56-.54 1.12-1.09 1.67-1.64 1.11-1.11 2.25-2.25 3.46-3.26 1.58-1.32 3.14-2.67 4.69-4.03 2.47-2.14 5.01-4.36 7.64-6.4 2.38-1.85 4.9-3.59 7.33-5.29.95-.66 1.89-1.33 2.84-2-.97-.52-2.04-.83-3.12-.83-.96.0-1.91.24-2.77.76-8.09 4.95-16.02 10.4-23.29 16.5-7.3 6.13-14 13.25-19.68 20.92-6 8.11-10.64 17.28-14.31 26.66-3.86 9.89-5.96 20.48-7.48 30.96-1.38 9.53-1.83 19.18-1.65 28.81.21 10.7 1.19 21.45 3.02 31.99.26 1.49.55 2.97.84 4.45-4 .94-8.03 1.69-12.11 2.22-.54.34-1.15.59-1.81.7-16.36 2.98-33.02 4.54-49.64 4.9-9.1.2-18.21.05-27.29-.54-.12.82-.11 1.65.04 2.47h108.91z" fill="#ff716b"/><path d="M596.93 849.06h44.14c-3.63-2.39-7.11-5.01-10.38-7.93-2.28-2.04-4.41-4.22-6.32-6.58-.56-.47-1.11-.94-1.65-1.42-.71-.45-1.39-.91-2.07-1.42-1.02-1-1.97-2.07-2.85-3.2-.63-1.06-1.2-2.13-1.71-3.24-.8-1.26-1.5-2.59-2.01-4-.66-1.83-1.3-3.64-1.5-5.58-.23-2.13-.37-4.29-.02-6.41.35-2.13.79-4.27 1.59-6.29.49-1.23 1.04-2.42 1.65-3.58 1.45-6.5 3.72-12.83 6.58-18.85 1.71-3.41 3.72-6.58 5.91-9.7.49-.7-.15-1.42-.81-1.42-.26.0-.53.12-.73.39-2.04 2.84-4.06 5.67-6.21 8.43-.61.78-1.24 1.55-1.86 2.33-1.45 1.81-2.92 3.61-4.34 5.44-3.82 4.92-7.55 9.97-10.84 15.26-2.85 4.57-5.25 9.6-7.04 14.67-.74 2.11-1.28 4.28-1.72 6.47-.61 3.08-1.13 6.09-1.25 9.23-.11 2.97.23 6 .72 8.93.48 2.92 1.58 5.76 2.72 8.48z" fill="#ff716b"/><path d="M673.11 595.16c1.93 1.4 3.96 2.59 6.21 3.63 2.72 1.06 5.34 1.78 8 2.23 2.08.24 3.96.35 5.76.35 1.16.0 2.3-.05 3.4-.15 4.32-.72 8.62-1.91 12.76-3.54 5.01-2.25 9.8-5.01 13.41-7.15 5.68-3.38 10.56-6.52 14.92-9.61 2.35-1.66 4.69-3.35 7.02-5.04-.41-.35-.82-.72-1.21-1.14-2.38-2.59-3.84-4.98-4.95-8.3-.57-1.72-.69-3.65-.89-5.4-.06-.53-.12-1.06-.09-1.6.23-4.94 1.4-10.05 4.17-14.23 2.71-4.09 5.85-7.44 9.99-10.1 2.89-1.85 6.05-3.44 9.24-4.67.29-.11.59-.2.88-.3.22-1.02.43-2.03.6-3 .53-5.93.08-11.8-.45-16.53-2.08.21-4.18.29-6.25.1-3.72-.34-7.52-.77-11.17-1.68-6.48-1.62-12.67-4.23-18.65-7.17-4.92-2.41-9.71-5.18-14.21-8.3-5.54-3.85-10.64-8.17-15.44-12.9-4.85-4.77-9.18-10.03-13.4-15.36-.23-.29-.45-.58-.67-.87.1 2.05.11 4.11.0 6.16-.36 6.38-1.54 13.11-3.84 21.81-.37 1.41-.76 2.82-1.15 4.23-.53 1.93-1.06 3.85-1.55 5.79l-.28 1.13c-.4 1.59-.81 3.23-1.01 4.85 1.11.1 2.28.14 3.69.14.81.0 1.63-.01 2.45-.05.9-.03 1.79-.09 2.69-.14v.02l.21-.03c1.36-.09 2.77-.18 4.25-.18h4.14l3.31-.02c2.21.0 4.42.17 6.96.55.6.09 1.17.39 1.65.86 1.14.64 1.9 1.91 1.9 3.18.0 1.15-.52 2.16-1.47 2.83l-1.58.53-.18.06-.49.17c-.94.33-1.89.67-2.82 1.02-1.83.69-3.65 1.39-5.46 2.11l-.41.16-.2.08c-2.96 1.16-6.03 2.36-9.21 3.45l-.47.17-.34.1-.19.08-.43.14-.5.17-.21.07c-.52.16-1.04.32-1.56.48l-1.1.33-.2.04-.21.08-2.1.62c-4.96 1.46-10.08 2.97-14.96 4.94-.96.39-1.93.8-2.92 1.23-2.19-1.44-3.8-3.56-4.41-5.82-.44-1.66-.44-3.34.0-4.99.14-1.14.53-2.2 1.17-3.16.37-.54.75-1.08 1.15-1.58-.21-.48-.39-.97-.53-1.47-.35-1.23-.5-2.54-.66-3.93-.25-2.34.12-4.72.54-7.16.11-.6.23-1.21.37-1.8l.1-.32c-2.09 2.61-4.08 4.83-6.08 6.79-3.79 3.73-7.93 7.13-12.31 10.12-1.52 1.04-3.13 1.97-4.81 2.94l-1.07.62-1.12.65-.18.1c-.91.53-1.84 1.06-2.79 1.58-.12.57-.25 1.15-.34 1.71-.28 2.62-.29 5.24-.04 7.81.44 2.47 1.09 4.8 1.99 7.11 1.28 2.78 2.87 5.44 4.85 8.15 3.28 4.03 7.33 7.92 12.75 12.27l.19.16c4.11 3.3 8.35 6.7 12.49 10.18.4 1.21.81 2.41 1.24 3.61 1.3 3.65 2.77 7.27 4.42 10.8.83 1.44 1.69 2.8 2.6 4.08 1.56 1.92 3.23 3.6 5.1 5.13zm44.42-35.92c.14-.12.29-.25.43-.38-.14.12-.29.25-.43.38zm-51.28 2.25c-1-1.95-2.28-4.04-2.77-6.23-.38-1.76-1.02-3.72-.92-5.56.21-3.47.39-5.33 1.77-8.5.7-1.6 1.75-3.16 2.9-4.44 2.72-3.01 6.17-5.16 9.95-6.58 1.33-.5 2.68-.87 4.06-1.16 2.06-.44 4.38-.97 6.53-1.09h.11c5.78-.29 11.68.62 17.28 2.24 4.99 2.47 9.88 5.17 14.77 7.86 1.04.57 2.07 1.14 3.1 1.71h0c2.87 1.6 5.73 3.22 8.55 4.89.04.06.08.13.11.19-4.22 4.82-8.6 9.5-13.39 13.73-4.56 3.82-9.46 7.11-14.75 9.81-6.01 2.84-12.39 5.27-18.9 6.65-2.19.36-4.38.56-6.59.48-.71-.08-1.41-.2-2.1-.36-2.74-2.14-4.6-5.37-4.71-9.02.0-.08.0-.16.0-.23-2.08-.98-4.04-2.5-5.02-4.38z" fill="#ae4823"/><path d="M877.65 654.25c-1.93 1.18-3.97 2.18-5.98 3.2-4.74 2.42-9.54 4.68-14.5 6.64-9.41 3.71-18.89 7.16-28.55 10.19-5.07 1.6-10.17 3.04-15.37 4.17-4.63 1-9.28 2.02-13.89 3.15-4.63 1.14-9.36 1.98-13.93 3.32-4.39 1.3-8.8 2.53-13.22 3.7-.95.26-1.98-.15-2.47-1-.54-.92-.29-1.89.34-2.66 4.39-5.38 9.82-9.56 15.21-13.87 5.74-4.59 11.97-8.54 17.99-12.75 3.14-2.2 6.27-4.48 9.6-6.37 2.97-1.67 6-3.25 9.09-4.68.73-.34 1.47-.65 2.21-.99-.55-.53-1.09-1.09-1.59-1.69-1.51-1.81-3.07-3.75-4.15-5.66-4.54-8-6.37-16.67-7.56-24.1-1.16-7.35-2.38-14.94-5.02-22.04-.47-1-.99-1.94-1.51-2.89-.33-.28-.66-.54-.98-.82-2.31-2.03-4.2-4.46-5.83-7.07-.25.0-.51.0-.76.03-.06.0-.11.02-.17.02.27 1.96.53 3.99.78 6.13.4 3.38.76 6.99.46 10.61-.05.69-.1 1.38-.15 2.07-.19 2.7-.39 5.48-1 8.15-1.45 6.28-3.78 12.78-6.95 19.32-3.18 6.56-6.2 11.7-9.5 16.18-3.38 4.61-7.2 9.37-12.39 15.45l-2.79 3.28c-2.57 3.02-5.22 6.14-7.9 9.15-6.69 7.5-15.67 17.16-25.8 25.38-5.67 4.6-10.54 8.28-15.85 11.34-2.06 1.18-4.19 2.41-6.45 3.41l-1.26.56c-1.82.81-3.7 1.66-5.62 2.22-2.61.76-4.97 1.15-7.12 1.15h0c-.13.0-.29.0-.43.0-6.6 5.52-13.41 10.8-20.34 16.11-.62.62-1.31 1.14-2.04 1.59-.13.37-.27.74-.4 1.1-.32.88-.63 1.75-.96 2.62-1.58 4.25-2.93 8.53-4 12.71-1.49 5.8-2.24 11.21-2.21 16.07.03 5.28 1.4 10.44 3.88 14.52 2.11 3.48 5.33 6.42 8.63 7.87l.34.15c1.64.73 3.2 1.42 4.97 1.76 2.1.41 4.1.63 5.93.65h.29c3 0 6.39-.53 10.38-1.64 3.69-1.03 7.23-2.61 10.64-4.14 2.94-1.32 6-2.92 9.91-5.2 13.87-8.04 26.38-17.76 40.13-28.71 2.01-1.6 4.01-3.22 6.01-4.84 2.8-2.28 5.6-4.55 8.45-6.78 1.58-1.2 3.19-2.36 4.8-3.51 1.22-.88 2.44-1.76 3.65-2.65 6.3-4.65 12.42-9.45 18.09-13.94 4.24-3.36 8.46-6.75 12.68-10.14.8-.8 1.62-1.6 2.43-2.38 9.49-9.14 19.81-17.37 30.34-25.27 10.58-7.93 21.37-15.56 32.07-23.31 6.13-4.43 12.29-8.83 18.5-13.16-4.24 1.28-8.36 2.94-12.45 4.62-2.32 1.07-4.52 2.33-6.71 3.68z" fill="#ae4823"/><path d="M847.63 772.3c.11 3.88.23 7.89.64 11.81.39 3.7.81 7.37 1.27 10.91 1.48 10.21 3.69 20.77 6.99 33.44 2.32-1.37 4.63-2.75 6.92-4.17 3.84-2.37 7.55-4.89 11.24-7.48 1.81-1.27 3.64-2.54 5.4-3.9 1-.77 1.98-1.56 3.08-2.18.82-.45 1.61-.93 2.39-1.45.5-.33 1.08-.49 1.68-.49.94.0 1.9.38 2.54 1.03.95.95 1.1 2.13.89 3.39-.21 1.27-.26 2.66-.67 3.88-.46 1.38-1.03 2.75-1.68 4.05-.86 1.72-1.78 3.41-2.89 4.99-.59 1.23-1.18 2.45-1.8 3.66-1.81 3.52-3.81 6.97-6.21 10.14-2.41 3.18-4.86 6.32-7.69 9.12h38.72c.16-1.39.33-2.79.52-4.22.63-4.76 1.32-9.82 2.18-14.81.77-4.49 1.73-8.93 2.81-13.86l.35-1.58c1.85-8.39 3.76-17.07 5.12-25.69.05-.42.1-.83.15-1.25-.61-1.93-1.28-3.99-2.09-5.98-.7-1.61-1.54-3.48-2.62-5.25-.94-1.53-1.98-2.98-2.94-4.32-.16-.22-.25-.49-.25-.78 10.79 10.74 22.3 20.84 31.75 32.8 5.13 6.76 9.45 14.06 13.14 21.69 1.7 5.72 2.91 11.61 3.67 17.88.22 1.78.37 3.58.46 5.38h106.87c.13-1.46.26-2.91.39-4.37.56-6.33 1.05-12.67 1.61-19 .51-5.8 1.09-11.59 1.43-17.41.02-.37.15-.66.34-.89.6 3.31 1.15 6.63 1.68 9.95-.1-3.84-.27-7.72-.54-11.64-.43-5.31-1-10.73-1.69-16.11l-.18-1.38-.16-1.25c-1.84-9.16-4.29-18.67-7.28-28.26-3.76-12.09-8.45-23.77-12.54-33.59-4.01-9.62-8.03-18.08-12.31-25.88-3.98-7.25-9.43-16.6-16.25-24.74-2.52-3-5.41-5.65-7.9-7.84-3.05-2.7-5.99-4.98-8.98-6.97-2.25-1.48-4.63-2.87-7.08-4.12-.5-.53-1.01-1.07-1.54-1.59-1.16-1.12-2.54-2.07-3.96-3.03-.89-.59-1.89-1.03-2.78-1.43-.79-.35-1.65-.71-2.54-1.07-.94-.37-1.93-.72-2.94-1.02-.72-.21-1.45-.39-2.19-.54-.56-.23-1.12-.46-1.68-.68-6.54-.76-12.53-1.13-18.32-1.13h-.69c-1.26.0-2.49.04-3.72.08l-.81.03h-.3c-.19.02-.37.03-.54.04-.1.0-.2.0-.31.01l-.28.02h-.24l-.19.02h-.19l-.22.03h-.24c-.13.02-.26.03-.39.04h-.19l-.19.02h-.23l-.23.04h-.18l-.24.05-.44.02c-.13.0-.25.01-.37.03l-.25.02-.25.02-.36.03-.24.02-.26.02c-.11.01-.22.03-.34.03l-.26.03-.24.03-.31.04-.58.05c-.06.01-.12.02-.18.03l-.69.08c-2.64.38-5.28.86-8.09 1.49-7.1 1.61-14.37 3.96-22.22 7.2-7.46 3.2-14.97 6.98-22.97 11.55-4.87 3.67-9.56 7.53-13.99 11.49.12-.06.24-.1.37-.1.36.0.71.28.85.7.12.36.08.87-.37 1.21l-1.09.81c-2.87 2.26-5.37 4.82-7.44 7.04-2.58 2.74-4.63 5.12-6.48 7.46-2.75 3.68-5.23 8.01-7.37 12.89l-.59 1.43-.3.72-.96 2.37c-.96 2.32-1.94 4.72-2.81 7.12-.63 1.76-1.07 3.57-1.49 5.34-.27 1.14-.55 2.29-.88 3.44-1.72 5.89-2.66 12.07-3.42 17.4-1.02 8.25-1.4 16.83-1.15 25.5l.04 1.33z" fill="#ae4823"/><path d="M630.81 522.48l1.12-.65 1.07-.62c1.68-.97 3.29-1.9 4.81-2.94 4.38-2.99 8.52-6.39 12.31-10.12 2-1.97 3.99-4.19 6.08-6.79l-.1.32c-.15.59-.27 1.19-.37 1.8-.43 2.44-.79 4.83-.54 7.16.16 1.4.31 2.71.66 3.93.14.5.32.99.53 1.47-.41.5-.78 1.04-1.15 1.58-.64.96-1.03 2.02-1.17 3.16-.44 1.66-.43 3.33.0 4.99.62 2.26 2.23 4.38 4.41 5.82.99-.43 1.95-.84 2.92-1.23 4.88-1.97 10-3.48 14.96-4.94l2.1-.62.21-.08.2-.04 1.1-.33c.52-.15 1.04-.31 1.56-.48l.21-.07.5-.17.43-.14.19-.08.34-.1.47-.17c3.19-1.09 6.25-2.29 9.21-3.45l.2-.08.41-.16c1.82-.71 3.63-1.42 5.46-2.11.94-.34 1.88-.69 2.82-1.02l.49-.17.18-.06 1.58-.53c.95-.68 1.47-1.68 1.47-2.83.0-1.27-.76-2.55-1.9-3.18-.48-.47-1.05-.77-1.65-.86-2.54-.38-4.75-.55-6.96-.55h-3.31l-3.32.03h-.82c-1.47.0-2.88.08-4.25.17l-.21.03v-.02c-.9.05-1.79.11-2.69.14-.82.03-1.64.05-2.45.05-1.41.0-2.58-.05-3.69-.14.2-1.62.61-3.26 1.01-4.85l.28-1.13c.5-1.94 1.03-3.87 1.55-5.79.39-1.41.78-2.82 1.15-4.23 2.3-8.7 3.48-15.43 3.84-21.81.12-2.05.1-4.11.0-6.16.23.29.44.58.67.87 4.21 5.34 8.54 10.59 13.4 15.36 4.81 4.73 9.9 9.05 15.44 12.9 4.5 3.13 9.29 5.89 14.21 8.3 5.98 2.94 12.17 5.55 18.65 7.17 3.64.91 7.44 1.34 11.17 1.68 2.07.19 4.17.1 6.25-.1-.06-.53-.12-1.06-.18-1.56-1.27-9.29-2.57-17.62-5.5-25.52-1.08-2.27-2.26-4.32-3.62-6.26-1.3-1.49-2.71-2.89-4.32-4.28-.35-.25-.72-.48-1.08-.72-5.08 1.82-10.33 3.1-15.65 3.92-5.48.65-10.99.81-16.48.21-2.8-.47-5.52-1.14-8.17-2.13-1.47-.69-2.86-1.48-4.2-2.4-.36-.31-.71-.63-1.05-.96.45-.39 1.09-.52 1.73-.42.21.03.43.06.65.1 2.24.27 4.43.28 6.66.04 3.44-.59 6.8-1.65 10.03-2.93 2.53-1.16 4.93-2.62 7.27-4.11-2.94-.85-6.13-1.68-9.75-2.51l-3.23-.72-.33-.08c-5.6-1.25-11.39-2.53-16.83-4.79-6.52-2.69-12.94-6.41-19.08-11.04-1.45-1.1-2.88-2.24-4.26-3.37-.29-.03-.59-.09-.83-.16-2.04 3.84-4.46 7.54-6.89 11.25l-.14.21c-1.82 2.79-3.74 5.57-5.6 8.25l-2.16 3.12-2.28 3.3c-4.32 6.25-8.78 12.72-12.39 19.55-.74 1.4-1.44 2.84-2.12 4.26.92-.23 1.84-.48 2.75-.77 2.6-.82 5.14-1.78 7.66-2.8 2.24-.99 4.39-2.14 6.37-3.57h0c-.13.32-.26.65-.39.97-2.04 4.55-4.43 8.88-7.35 12.92-2.02 2.42-4.21 4.65-6.62 6.67-2.49 1.78-5.12 3.31-7.9 4.62-1.34.51-2.71.94-4.07 1.34-.37.81-.74 1.62-1.1 2.43-1.75 4.31-2.89 8-3.6 11.48.94-.52 1.88-1.05 2.79-1.58l.18-.1z" fill="#793219"/><path d="M695.06 716.49c2.15.0 4.52-.39 7.12-1.15 1.92-.56 3.8-1.4 5.62-2.22l1.26-.56c2.26-1 4.39-2.22 6.45-3.41 5.31-3.05 10.18-6.74 15.85-11.34 10.13-8.22 19.11-17.88 25.8-25.38 2.68-3.01 5.33-6.13 7.9-9.15l2.79-3.28c5.19-6.07 9.01-10.84 12.39-15.45 3.3-4.48 6.32-9.63 9.5-16.18 3.16-6.53 5.5-13.03 6.95-19.32.62-2.67.81-5.46 1-8.15.05-.69.1-1.38.15-2.07.3-3.63-.07-7.23-.46-10.61-.25-2.14-.51-4.17-.78-6.13-1.23.19-2.47.38-3.72.55-.63.08-1.21.12-1.79.12-.98.0-1.98-.12-3.47-.39-1.49-.27-3.1-.93-4.92-2.02-1.54-.91-3.01-1.83-4.14-3-1.74-1.83-2.76-3.5-3.39-5.73-.48.07-.94.15-1.59.26l-.3.05c-1.77.3-3.77.65-5.73.73h-.46c-1.34.0-2.54-.21-3.93-.45-.98-.18-1.89-.63-2.72-1.04l-.31-.14-.62-.29c-.73-.32-1.53-.96-2.29-1.69-.02.0-.03.0-.05.0-2.97.0-5.72-1.61-7.24-4.15-.76-1.27-1.31-2.62-1.56-4.08-.19-1.1-.47-2.68-.38-3.9.14-1.98.34-4.12 1.01-6.01 1.12-3.21 2.58-6.22 4.61-8.96 1.08-1.45 2.16-2.9 3.43-4.21.97-.99 1.98-1.95 2.98-2.93.27-.27.52-.56.78-.84.35-1.35.66-2.62.92-3.85-.29.1-.59.18-.88.3-3.19 1.23-6.35 2.82-9.24 4.67-4.15 2.66-7.28 6.01-9.99 10.1-2.77 4.19-3.94 9.29-4.17 14.23-.03.54.03 1.07.09 1.6.2 1.75.32 3.68.89 5.4 1.12 3.32 2.57 5.71 4.95 8.3.39.42.79.79 1.21 1.14-2.32 1.69-4.67 3.38-7.02 5.04-4.36 3.09-9.24 6.23-14.92 9.61-3.61 2.15-8.4 4.9-13.41 7.15-4.15 1.64-8.44 2.83-12.76 3.54-1.1.1-2.24.15-3.4.15-1.8.0-3.68-.11-5.76-.35-2.67-.45-5.28-1.17-8-2.23-2.25-1.04-4.28-2.23-6.21-3.63-1.87-1.53-3.54-3.21-5.1-5.13-.92-1.28-1.78-2.64-2.6-4.08 1.05 2.24 2.16 4.46 3.41 6.59.99 1.68 2.07 3.33 3.27 4.88.2 1.87.99 3.66 2.39 4.95 3.17 2.93 6.92 5.17 11.19 6.01 4.64.92 9.33.49 13.85-.85 2.28-.67 4.51-1.58 6.67-2.64.84-.19 1.68-.39 2.55-.59 2.82-.69 7.07-1.74 11.32-3.02 6.55-1.99 12.59-4.1 18.51-6.43l-.23.04c3.53-1.49 7.6-3.37 11.09-6.01l.48-.39c.27-.22.59-.34.91-.34s.59.12.82.34c.24.24.38.61.36.96-.01.32-.14.59-.36.77-1.54 1.26-3.02 2.57-4.51 3.88l-.4.35c-1.03.9-2.05 1.81-3.09 2.68l-1.17.99c-1.95 1.67-3.97 3.39-6.15 4.86-4.84 3.31-10.26 5.71-14.92 7.61-3.02 1.25-5.96 2.31-8.72 3.12 2.79 3.02 5.4 6.03 7.77 8.96 4.2 5.21 7.46 10.39 9.67 15.39 3.14 7.06 5.96 14.03 6.01 21.47.04 6.49-1.5 12.67-4.46 17.85-2.94 5.18-7.06 9.61-11.06 13.94l-.32.34-1.73 1.87c-3.84 4.14-7.8 8.43-11.99 12.38-3.88 3.65-7.87 7.15-11.94 10.56.14.0.29.0.43.0h0z" fill="#793219"/><path d="M897.78 645.24h-.24c-1.42.0-2.84-.01-4.26-.01-4.19.0-9.12.05-13.97.44-2.25.42-4.56 1.07-7.06 1.99-.78.36-1.57.73-2.35 1.1l-.45.21c-3.17 1.51-6.78 3.22-10.45 4.28-4.58 1.34-8.63 1.98-12.36 1.98-.8.0-1.6-.03-2.39-.1-6.31-.51-11.58-2.27-15.66-5.23-1.47-1.07-2.99-2.22-4.41-3.58-.74.33-1.48.65-2.21.99-3.09 1.43-6.12 3.01-9.09 4.68-3.34 1.89-6.47 4.17-9.6 6.37-6.02 4.21-12.25 8.16-17.99 12.75-5.39 4.31-10.82 8.49-15.21 13.87-.63.77-.87 1.74-.34 2.66.5.85 1.52 1.26 2.47 1 4.42-1.17 8.83-2.41 13.22-3.7 4.57-1.34 9.3-2.19 13.93-3.32 4.61-1.14 9.25-2.15 13.89-3.15 5.2-1.12 10.3-2.57 15.37-4.17 9.66-3.03 19.14-6.48 28.55-10.19 4.96-1.96 9.76-4.23 14.5-6.64 2.02-1.03 4.06-2.02 5.98-3.2 2.19-1.34 4.39-2.61 6.71-3.68 4.09-1.68 8.21-3.34 12.45-4.62.3-.09.6-.2.9-.28.56-.16 1.13-.28 1.69-.42-.53.0-1.06.0-1.62.0z" fill="#793219"/><path d="M960.71 849.06c-.09-1.8-.24-3.6-.46-5.38-.76-6.27-1.97-12.16-3.67-17.88-3.69-7.62-8.01-14.92-13.14-21.69-9.46-11.96-20.96-22.06-31.75-32.8.0.29.08.56.25.78.96 1.34 2 2.8 2.94 4.32 1.07 1.77 1.91 3.64 2.62 5.25.81 1.99 1.49 4.05 2.09 5.98-.05.41-.1.83-.15 1.25-1.36 8.62-3.27 17.3-5.12 25.69l-.35 1.58c-1.08 4.93-2.04 9.37-2.81 13.86-.86 4.99-1.54 10.05-2.18 14.81-.19 1.43-.36 2.83-.52 4.22h52.26z" fill="#793219"/><path d="M826.94 841.91c.44 2.31.9 4.69 1.4 7.14h41.39c2.83-2.81 5.28-5.95 7.69-9.12 2.4-3.17 4.4-6.62 6.21-10.14.62-1.21 1.22-2.43 1.8-3.66 1.1-1.58 2.03-3.27 2.89-4.99.65-1.3 1.22-2.67 1.68-4.05.41-1.23.46-2.61.67-3.88.21-1.26.06-2.44-.89-3.39-.65-.65-1.61-1.03-2.54-1.03-.59.0-1.18.15-1.68.49-.78.52-1.57 1-2.39 1.45-1.1.62-2.08 1.42-3.08 2.18-1.76 1.36-3.59 2.62-5.4 3.9-3.69 2.59-7.39 5.11-11.24 7.48-2.29 1.41-4.6 2.8-6.92 4.17-3.3-12.67-5.51-23.23-6.99-33.44-.45-3.54-.88-7.21-1.27-10.91-.41-3.92-.53-7.93-.64-11.81l-.04-1.33c-.25-8.67.13-17.25 1.15-25.5.76-5.33 1.71-11.51 3.42-17.4.33-1.15.61-2.3.88-3.44.43-1.76.86-3.58 1.49-5.34.87-2.4 1.85-4.8 2.81-7.12l.96-2.37.3-.72.59-1.43c2.15-4.88 4.63-9.21 7.37-12.89 1.85-2.35 3.91-4.72 6.48-7.46 2.07-2.22 4.57-4.79 7.44-7.04l1.09-.81c.45-.34.49-.84.37-1.21-.14-.42-.48-.7-.85-.7-.13.0-.25.04-.37.1-.06.03-.11.05-.17.09-.63.46-1.27.9-1.91 1.35-.95.67-1.89 1.34-2.84 2-2.43 1.69-4.94 3.44-7.33 5.29-2.62 2.04-5.17 4.25-7.64 6.4-1.55 1.36-3.1 2.71-4.69 4.03-1.21 1-2.35 2.15-3.46 3.26-.55.55-1.11 1.1-1.67 1.64-1.51 1.44-3.07 3.07-4.75 4.99-1.36 1.54-2.55 3.27-3.72 4.94l-.74 1.07c-1.39 1.99-2.75 4.02-4.11 6.04l-.42.63c-1 1.47-1.8 3.08-2.58 4.65l-.67 1.34c-1.03 2-1.95 4.1-2.84 6.12-2.22 5.01-4.03 10.23-5.39 15.53-2.5 9.79-4.01 20.26-4.48 31.12-.43 9.78-.14 19.68.88 30.26 1.12 11.62 2.71 22.91 4.72 33.54z" fill="#793219"/><path d="M1074.97 849.06c-.44-5.84-.81-11.68-.99-17.53-.1-3.27-.2-6.55-.26-9.82-.22-1.45-.46-2.91-.69-4.36-.53-3.32-1.08-6.64-1.68-9.95-.19.23-.32.52-.34.89-.34 5.81-.92 11.6-1.43 17.41-.56 6.33-1.05 12.66-1.61 19-.13 1.46-.26 2.91-.39 4.37h7.39z" fill="#793219"/><path d="M673.39 555.71c1.75-2.97 3.58-5.15 6.36-7.21 3.78-2.8 8.37-4.3 12.93-5.21 5.33-1.08 10.65-1.69 16.07-2.11 3.63-.29 7.32-.45 10.94-.99.83-.25 1.68-.4 2.52-.45.28-.02.55-.02.82-.02-1.03-.57-2.07-1.15-3.1-1.71-4.89-2.68-9.77-5.38-14.77-7.86-5.6-1.62-11.5-2.53-17.28-2.25h-.11c-2.15.12-4.48.66-6.53 1.1-1.39.3-2.74.67-4.06 1.16-3.79 1.42-7.23 3.56-9.95 6.58-1.15 1.28-2.2 2.84-2.9 4.44-1.37 3.17-1.55 5.02-1.77 8.5-.11 1.85.53 3.81.92 5.56.49 2.18 1.76 4.28 2.77 6.23.98 1.89 2.94 3.41 5.02 4.38-.07-3.36.4-7.2 2.13-10.16z" fill="#ff9380"/><path d="M719.69 540.2c-3.61.54-7.31.7-10.94.99-5.41.42-10.73 1.03-16.07 2.11-4.56.91-9.15 2.41-12.93 5.21-2.77 2.06-4.61 4.24-6.36 7.21-1.73 2.96-2.21 6.8-2.13 10.16.0.08.0.16.0.23.11 3.65 1.97 6.88 4.71 9.02.69.16 1.39.28 2.1.36 2.21.07 4.4-.13 6.59-.48 6.5-1.38 12.88-3.81 18.9-6.65 5.29-2.7 10.19-5.99 14.75-9.81 4.79-4.24 9.17-8.92 13.39-13.73-.04-.06-.08-.12-.11-.19-2.83-1.67-5.68-3.3-8.55-4.89h0c-.27.0-.55.0-.82.02-.84.05-1.68.19-2.52.45z" fill="#ff716b"/><path d="M717.96 558.87c-.14.12-.29.25-.43.38" fill="none" stroke="#ff716b" stroke-linecap="round" stroke-linejoin="round" stroke-width="0"/><path d="M669.2 735.55c1.1-.31 2.11-.78 3.05-1.37.73-.45 1.41-.98 2.04-1.59 6.93-5.31 13.74-10.59 20.34-16.11 4.07-3.41 8.06-6.9 11.94-10.56 4.19-3.94 8.15-8.23 11.99-12.38l1.73-1.87.32-.34c4.01-4.32 8.12-8.76 11.06-13.94 2.95-5.18 4.5-11.35 4.46-17.85-.05-7.44-2.87-14.4-6.01-21.47-2.22-5-5.47-10.18-9.67-15.39-2.37-2.93-4.98-5.95-7.77-8.96 2.75-.81 5.69-1.87 8.72-3.12 4.66-1.91 10.08-4.3 14.92-7.61 2.18-1.47 4.19-3.2 6.15-4.86l1.17-.99c1.04-.87 2.07-1.78 3.09-2.68l.4-.35c1.49-1.31 2.97-2.62 4.51-3.88.21-.18.34-.45.36-.77.02-.35-.12-.72-.36-.96-.23-.22-.51-.34-.82-.34s-.64.12-.91.34l-.48.39c-3.48 2.64-7.56 4.52-11.09 6.01l.23-.04c-5.91 2.33-11.96 4.44-18.51 6.43-4.25 1.28-8.5 2.33-11.32 3.02-.87.21-1.71.41-2.55.59-2.16 1.05-4.39 1.96-6.67 2.64-4.52 1.34-9.21 1.76-13.85.85-4.27-.84-8.01-3.08-11.19-6.01-1.4-1.29-2.19-3.08-2.39-4.95-1.21-1.55-2.29-3.2-3.27-4.88-1.24-2.13-2.36-4.35-3.41-6.59-1.65-3.53-3.12-7.15-4.42-10.8-.43-1.2-.84-2.4-1.24-3.61-4.14-3.48-8.38-6.88-12.49-10.18l-.19-.16c-5.42-4.34-9.47-8.24-12.75-12.27-1.98-2.7-3.57-5.36-4.85-8.15-.9-2.31-1.55-4.64-1.99-7.11-.25-2.58-.23-5.2.04-7.81.09-.56.22-1.14.34-1.71.71-3.49 1.85-7.18 3.6-11.48.36-.82.73-1.62 1.1-2.43 1.37-.4 2.73-.84 4.07-1.34 2.78-1.31 5.41-2.84 7.9-4.62 2.41-2.02 4.6-4.25 6.62-6.67 2.92-4.04 5.32-8.37 7.35-12.92.13-.32.26-.65.39-.98h0c-1.98 1.44-4.13 2.59-6.37 3.58-2.53 1.02-5.07 1.97-7.66 2.8-.91.29-1.83.54-2.75.77.69-1.43 1.38-2.86 2.12-4.26 3.61-6.83 8.07-13.3 12.39-19.55l2.28-3.3 2.16-3.12c1.86-2.68 3.78-5.46 5.6-8.25l.14-.21c2.43-3.71 4.85-7.41 6.89-11.25.25.08.54.13.83.16 1.38 1.13 2.8 2.27 4.26 3.37 6.14 4.63 12.56 8.35 19.08 11.04 5.44 2.25 11.23 3.54 16.83 4.79l.33.08 3.23.72c3.62.83 6.81 1.66 9.75 2.51-2.34 1.49-4.75 2.95-7.27 4.11-3.24 1.28-6.6 2.35-10.03 2.93-2.24.25-4.43.23-6.66-.04-.21-.03-.43-.06-.65-.1-.64-.1-1.28.03-1.73.42.34.33.69.65 1.05.96 1.34.91 2.73 1.7 4.2 2.4 2.65.99 5.37 1.67 8.17 2.13 5.49.6 11 .45 16.48-.21 5.33-.82 10.58-2.1 15.65-3.92.36.24.73.47 1.08.72 1.62 1.38 3.03 2.78 4.32 4.28 1.36 1.95 2.54 4 3.62 6.26 2.93 7.91 4.23 16.24 5.5 25.52.06.5.12 1.03.18 1.56.54 4.73.98 10.6.45 16.53-.17.97-.37 1.98-.6 3-.27 1.23-.57 2.5-.92 3.85-.27.27-.51.57-.78.84-.99.98-2 1.93-2.98 2.93-1.27 1.3-2.35 2.75-3.43 4.21-2.02 2.75-3.48 5.75-4.61 8.96-.67 1.89-.87 4.03-1.01 6.01-.09 1.22.19 2.79.38 3.9.26 1.45.81 2.8 1.56 4.08 1.51 2.54 4.27 4.15 7.24 4.15.02.0.03.0.05.0.75.73 1.55 1.37 2.29 1.69l.62.29.31.14c.83.41 1.74.86 2.72 1.04 1.38.24 2.59.46 3.93.46h.46c1.96-.09 3.97-.43 5.73-.74l.3-.05c.65-.11 1.12-.19 1.59-.26.63 2.24 1.65 3.9 3.39 5.73 1.13 1.17 2.6 2.09 4.14 3 1.82 1.09 3.44 1.74 4.92 2.02 1.49.27 2.49.39 3.47.39.58.0 1.16-.04 1.79-.12 1.25-.17 2.48-.36 3.72-.55.06.0.11-.02.17-.02.25-.02.5-.02.76-.03-.04-.07-.09-.13-.13-.2-1.74-2.82-3-5.87-4.07-9-1.01-2.98-1.73-6.06-2.2-9.17-1.09-7.28-1.19-14.74-.72-22.08.5-7.88 1.67-15.7 3.31-23.42.9-4.24 1.96-8.45 3.14-12.62.11 3.31.34 6.62.65 9.93.49 5.31 1.4 10.59 2.71 15.76-.4 6.01-.44 12.04.0 18.04.57 6.27 1.72 12.51 3.77 18.45 1.12 2.97 2.51 5.8 4.24 8.46 1.25 1.69 2.63 3.28 4.18 4.7 1.36 1.09 2.8 2.04 4.33 2.84 1.83.81 3.74 1.43 5.69 1.85 3.11.49 6.24.56 9.38.34 4.43-.44 8.8-1.34 13.1-2.52 4.04.9 8.16 1.36 12.3 1.25 2.41-.06 4.82-.28 7.2-.62-.12.09-.24.17-.37.25-1.38.87-2.77 1.73-4.19 2.54-4.42 2.52-9 4.75-13.77 6.52-4.15 1.53-8.4 2.82-12.79 3.44-3.72.52-7.57.81-11.32.37-3.28-.38-6.66-1.04-9.69-2.38-1.67-.74-3.35-1.54-4.88-2.53-1.08-.7-2.08-1.49-3.06-2.32.53.95 1.04 1.89 1.51 2.89 2.64 7.1 3.86 14.69 5.02 22.04 1.19 7.43 3.02 16.1 7.56 24.1 1.08 1.91 2.64 3.85 4.15 5.66.51.6 1.04 1.16 1.59 1.69 1.42 1.36 2.94 2.52 4.41 3.58 4.08 2.96 9.34 4.72 15.66 5.23.79.06 1.59.1 2.39.1 3.73.0 7.77-.65 12.36-1.98 3.66-1.06 7.27-2.77 10.45-4.28l.45-.21c.78-.37 1.57-.74 2.35-1.1 2.51-.91 4.82-1.57 7.06-1.99 4.85-.39 9.78-.44 13.97-.44 1.42.0 2.84.0 4.26.01h.24c.56.0 1.09.0 1.62.0.94.0 1.86.0 2.77.0 1.07.0 2.13.0 3.2-.01 4.79-.05 9.25-.19 13.65-.43 5.2-.3 10.48-.98 15.02-1.6.93-.41 1.85-.79 2.77-1.18 1.74-1.02 3.14-2.42 4.17-4.17.16-.27.29-.55.43-.82 1.24-2.56 1.54-5.59.75-8.11-1.25-3.99-2.85-8.24-5.19-13.8-1.95-4.61-4.29-10.02-6.88-15.17-1.27-2.51-2.56-5.01-3.85-7.51l-.32-.63c-3.22-6.22-6.48-12.53-9.29-18.96-.92-2.3-1.78-4.63-2.64-6.96-1.17-3.17-2.08-5.6-3.11-8.12-1.29-3.12-2.64-6.22-3.97-9.32l-.26-.59c-.75-1.73-1.5-3.47-2.24-5.21l-.12-.27c-1.98-4.71-4.01-9.76-5.4-14.73 1.29.87 2.8 1.48 4.12 2.02l.99.41c1.65.7 3.5.85 5.29 1l.7.06h.28c.41.0.81-.03 1.2-.1l.48-.05c1.64-.21 2.93-.38 4.44-.91 2.85-1 4.98-2.33 6.91-4.26 2.01-2.01 3.54-4.98 3.9-7.58.27-1.25.42-2.51.42-3.75.01-1.23-.22-2.48-.43-3.58l-.18-1.01c-.3-1.81-1.16-3.71-1.85-5.23l-.43-.96c-1.14-2.57-2.55-5.03-3.91-7.42l-1.03-1.81c-1.68-2.95-3.27-6.11-4.68-8.89l-.17-.34-1.4-2.78c-2.62-5.14-4.84-9.79-6.77-14.2-2.24-5.48-4.84-12.03-7.06-19.06-.63-1.98-1.41-3.99-2.41-6.16 1.14.35 2.26.51 3.39.51s2.21-.15 3.3-.44c3.1-.85 5.8-2.94 7.42-5.72 1.69-2.89 2.11-6.48 1.14-9.87-.9-3.17-2.89-5.7-5.6-7.13-1.8-.96-3.73-1.78-6.06-2.61-1.76-.64-3.83-.88-5.65-1.1l-.91-.1c-1.04-.12-2.13-.19-3.33-.19-1.83.0-3.68.15-5.47.3l-2.25.17c-1.27.08-2.54.14-3.81.19l.91-2.05c.69-1.58 1.37-3.17 2.05-4.76h0l.35-.84-.16.32.68-1.54c.84-1.96 1.68-3.93 2.49-5.91.86-2.11 1.34-4.43 1.49-7.3.17-3.26-.76-7-2.5-9.99-1.93-3.33-4.34-5.45-7.85-7.99-3.53-2.55-7.61-4.9-12.49-7.16-.71-.33-1.43-.64-2.15-.95-1.06-.45-2.15-.91-3.19-1.45l-.14-.26h.01c-1.02-2.81-1.78-5.62-2.31-8.6-.85-4.63-2.1-10.02-4.99-14.86-3.76-6.32-10.63-10.4-17.5-10.4-1.58.0-3.14.21-4.66.63-.77.21-1.47.45-2.12.73-2.52-3.08-4.65-5.28-6.88-7.13-3.29-2.71-6.89-5.12-11.72-7.82-2.75-1.54-5.69-3.24-8.54-5.21-.76-.65-1.45-1.3-2.13-2-.14-.23-.28-.48-.41-.73-.34-1.05-.65-2.1-.96-3.16-.52-1.78-1.05-3.63-1.79-5.38-2.13-5.14-4.82-9.67-8.44-14.27-2.32-2.94-6.56-4.84-10.81-4.84-1.38.0-2.67.2-3.86.59-1.9.62-3.08 1.2-4.36 2.13-.49.36-1 .7-1.52 1-.97.28-1.96.49-2.95.71-.59.12-1.18.25-1.77.4l-.19.05c-1.48.36-2.94.72-4.43 1.01-.48.03-.97.05-1.46.05-.22.0-.44.0-.66-.01-.99-.23-1.92-.5-2.86-.82-1.78-.89-3.39-1.85-4.94-2.93-.92-.76-1.84-1.54-2.75-2.31-3.29-2.8-6.69-5.67-10.58-7.74-5.38-2.86-11.87-4.4-18.8-4.52-1.14-2.93-2.27-5.86-3.53-8.75-1.94-4.45-4.64-8.26-7.88-11.9-3.61-4.06-9.06-7.14-14.3-8.42-2.2-.54-4.01-.74-5.78-.74-2.18.0-4.3.31-6.99.69-3.83.55-7.44 3.3-10.27 5.7-3.74 3.15-6.42 8.44-7.37 13.18-.87 4.38-1.09 8.72-.76 13.15.02.22.04.43.06.65-1.92-.83-4.05-1.67-6.26-2.34-2.78-.85-5.69-1.13-8.67-1.36-.52-.04-1.04-.05-1.58-.05-2.59.0-5.25.43-7.55.83-3.02.53-5.93 1.5-9.45 3.14-2.23 1.05-4.36 2.34-6.42 3.59-1.71 1.03-3.48 2.11-5.29 3.03-.98.3-2.03.57-3.23.8-1.25.1-2.53.14-3.92.14-3.59.0-7.23-.31-10.75-.61-2.7-.23-5.49-.47-8.25-.57-.32.0-.63-.01-.95-.01-1.53.0-3.14.12-5.24.39-2.96.39-6.02.8-9.12 1.62-3.7.97-7.28 2.62-10.75 4.2l-1.35.62c-1.18.43-2.27.76-3.33 1.03h-.65c-.23-.24-.47-.49-.69-.74-1.23-1.82-2.34-3.75-3.41-5.88-.39-.79-.76-1.58-1.14-2.38-1-2.14-2.04-4.36-3.5-6.31l-.65-.87c-1.38-1.87-2.81-3.8-4.59-5.34-2.33-2.02-4.86-4.05-7.64-5.22l-1.47-.63c-1.82-.79-3.55-1.54-5.47-2.1-2.07-.6-6.35-1-7.31-1.07-.27-.01-.53-.02-.78-.02-1.59.0-3.02.23-4.66.5-.53.09-1.08.18-1.65.26-.68.1-1.19.23-1.75.47-4.13 1.68-7.39 3.01-10.58 6.41-3.06 3.28-5.09 6.88-6.36 11.32-1.78 6.16-.78 12.73.43 18.36.63 2.9 1.66 5.75 2.66 8.51.91 2.49 1.55 4.65 2 6.74v.27l.02.28c-.52.12-1.07.25-1.62.36-.78.05-1.58.07-2.36.07-.94.0-1.88-.03-2.82-.09-2.76-.58-5.5-1.39-8.15-2.18-1.91-.57-3.82-1.13-5.76-1.62-4.06-1.03-8.49-1.7-13.53-2.07-.43-.03-.87-.04-1.3-.04-.89.0-1.83.06-2.95.18l-.89.1c-2.65.29-5.38.59-7.91 1.54l-.36.13c-2.16.81-4.61 1.73-6.53 3.17-3.69 2.75-5.45 4.26-8 8.06-2.99 4.44-4.56 10.68-4.12 16.26.35 4.35 1 6.79 2.91 10.88.85 1.83 2.17 3.41 3.44 4.94l.43.52c-1.64 1.14-3.31 2.29-4.99 3.43-5.74 3.91-11.67 7.95-16.24 13.3-3.15 3.71-5.8 8.05-8.59 14.08-1.97 4.27-4.37 9.97-5.48 16.24-.85 4.88-1.87 10.73-.11 15.3 1.09 2.82 1.54 3.98 3.64 6.25.95 1.02 2.1 1.8 3.3 2.59 1.97 1.29 4.41 1.95 7.27 1.95 1.38.0 2.81-.16 4.25-.46 5.02-1.07 9.44-4.6 13.34-7.7l.79-.63c2.58-2.04 4.67-4.64 6.56-7.14.52.52 1.04 1.05 1.55 1.62.35.54.67 1.09.98 1.65.16.51.3 1.02.42 1.54.04.96.03 1.94-.04 2.9-.51 2.45-1.27 4.97-2.32 7.7-1.18 2.59-2.51 5.16-3.79 7.64-1.05 2.03-2.09 4.06-3.08 6.13-3.08 6.45-4.75 12.78-5.11 19.35-.21 3.88.63 7.88 1.27 10.54.78 3.22 2.33 6.07 4.88 8.98.74.85 1.73 1.63 2.94 2.35l-.92 1.94c-1.3 2.78-2.64 5.65-3.75 8.59-1.89 5.03-2 10.96-.28 16.27.99 3.08 2.53 5.8 4.84 8.56 2.02 2.41 4.61 3.63 7.1 4.6 1.29.51 2.7.76 4.3.76-.35 1.18-.72 2.38-1.1 3.58-.56 1.81-1.14 3.69-1.59 5.58-1.06 4.52.09 8.88 3.15 11.95 2.29 2.28 5.5 3.59 8.81 3.59 2.18.0 4.28-.58 6.06-1.67.55-.33 1.09-.65 1.65-.96l.64 1.16c.35.64.71 1.27 1.09 1.9.59 1 1.25 2 1.97 2.97-3.12 1.05-6.36 2.36-10.2 4.1-3.23 1.47-6.04 3.74-8.59 5.98-1.49 1.3-2.69 3.02-3.74 4.54l-.79 1.11c-1.03 1.41-1.66 3.13-2.26 4.79l-.18.48c-.14.38-.28.75-.42 1.11-.94 2.29-1.2 4.86-1.47 7.35l-.06.62c-.3 2.75.26 5.63.77 7.83.54 2.22 1.54 4.48 2.83 6.35 1.31 1.88 2.49 3.36 3.5 4.4.95.96 2.05 1.76 3.11 2.52.46.34.92.66 1.36 1 1.06.81 2.31 1.38 3.16 1.72l.65.28c2.44 1.04 4.75 2.02 7.32 2.66 4.44 1.14 9.11 1.63 13.63 2.11l.54.06c3.42.36 6.86.59 10.68.85 3.52.23 7.51.5 11.42.94.23.03.45.07.68.11l-1.34 3.39c-.68 1.78-1.36 3.55-2.02 5.33-3.22 8.6-7.04 20.05-8.08 32.38-.14 1.8-.12 3.6.08 5.36l.03.25c.21 1.93.47 4.32.98 6.44.37 1.48 1.01 2.91 1.65 4.3.28.6.52 1.12.74 1.63.24.59.6 1.18 1.15 1.91.27.34.53.71.79 1.07.95 1.3 1.9 2.6 3.1 3.57 3.53 2.87 6.72 4.94 10.78 5.75 2.51.49 4.66.74 6.58.74 1.78.0 3.54-.29 5.24-.57.59-.1 1.1-.18 1.62-.26 1.14-.18 2.22-.52 3.52-.94 3.77-1.25 6.49-2.81 9.4-5.37 3.21-2.84 5.71-7.09 7.42-12.65.32-1.07.59-2.21.81-3.51 1.02-.08 2.08-.22 3.13-.38 1.32-.48 2.56-.99 3.71-1.53 2.23-1.1 4.28-2.59 6.25-4.03l1.14-.83c.72-.52 1.45-1 2.2-1.45 1.07 2.43 2.55 4.76 4.53 7.13 2.94 3.52 7.3 6.42 12.61 8.37 2.45.91 4.97 1.25 8.01 1.48.0 1.78-.09 3.66-.18 5.31-.1 2-.22 4.28-.1 6.48.2 3.68.79 6.74 1.82 9.34.72 1.8 1.4 3.42 2.49 5.11.87 1.35 2.06 2.79 3.63 4.42 1.73 1.77 4.12 3.5 7.13 5.14 2.17 1.2 4.58 2.05 6.69 2.81l.31.1c-.3.23-.59.52-.87.82-3.63 3.84-4.34 9.38-1.77 13.78 2.03 3.48 5.75 5.57 9.93 5.57.97.0 1.95-.12 2.91-.33 4.81-1.12 9.26-2.71 13.36-4.28 2.63-.99 5.56-1.76 8.96-2.34 1.25-.11 2.58-.17 3.95-.17 2.57.0 5.32.18 8.67.57l.25.04.25.04c-.72 1.4-1.07 2.91-1.07 4.58.0 3.03 1.23 6 3.38 8.16.32.32.65.61 1 .88 2.02 1.6 4.57 2.5 7.16 2.5l3.06-.41zm-22.77-92.82c-4.94 1.02-9.97 1.66-15.02 1.82-4.1.14-8.29.09-12.35-.58-3.11-.51-6.27-1.08-9.28-2.07-2.65-.86-5.23-1.99-7.68-3.32-2.11-1.16-4.08-2.5-5.91-4.06-1.98-1.68-3.89-3.41-5.51-5.45-1.69-2.13-3.28-4.41-4.57-6.82-1.21-2.28-2.16-4.66-3-7.09-1.68-4.8-2.42-9.78-2.77-14.84-.76-10.65 1.05-21.47 4.17-31.64 1.66-5.43 3.64-10.76 5.87-15.99.6-1.4 1.21-2.8 1.82-4.19-.63 4.43-.99 8.9-1.03 13.35-.05 5.6.4 11.22 1.37 16.75-.45 5.12-.55 10.26-.2 15.39.46 4.75 1.37 9.42 2.89 13.96 1.19 3.06 2.65 5.98 4.44 8.73 1.6 2.17 3.4 4.16 5.39 5.98 2.55 2.07 5.32 3.83 8.24 5.33 4.1 1.86 8.37 3.12 12.78 4.02.68.48 1.37.96 2.06 1.42 3.89 2.59 8.08 4.65 12.3 6.62 2.09.97 4.21 1.82 6.36 2.58-.13.04-.26.07-.39.1z" fill="#2c2c2c"/><path d="M628.16 633.43c-.7-.46-1.39-.94-2.06-1.42-4.41-.9-8.68-2.17-12.78-4.02-2.93-1.5-5.7-3.26-8.24-5.33-1.99-1.82-3.79-3.81-5.39-5.98-1.79-2.75-3.25-5.67-4.44-8.73-1.52-4.53-2.43-9.21-2.89-13.96-.35-5.13-.26-10.27.2-15.39-.97-5.53-1.43-11.15-1.37-16.75.04-4.45.39-8.92 1.03-13.35-.61 1.39-1.22 2.79-1.82 4.19-2.22 5.23-4.21 10.55-5.87 15.99-3.12 10.17-4.93 20.99-4.17 31.64.36 5.06 1.09 10.03 2.77 14.84.85 2.44 1.79 4.81 3 7.09 1.28 2.41 2.87 4.68 4.57 6.82 1.62 2.04 3.53 3.77 5.51 5.45 1.83 1.56 3.8 2.9 5.91 4.06 2.45 1.33 5.03 2.46 7.68 3.32 3.01.99 6.17 1.56 9.28 2.07 4.06.67 8.26.72 12.35.58 5.05-.16 10.07-.81 15.02-1.82.13-.03.26-.06.39-.1-2.15-.75-4.28-1.61-6.36-2.58-4.22-1.97-8.41-4.03-12.3-6.62z" fill="#ffe5cf"/><path d="M803.37 589.12c.32.28.65.55.98.82.98.83 1.98 1.62 3.06 2.32 1.53.99 3.21 1.79 4.88 2.53 3.04 1.34 6.41 2 9.69 2.38 3.75.44 7.6.15 11.32-.37 4.39-.62 8.65-1.91 12.79-3.44 4.77-1.77 9.35-4 13.77-6.52 1.42-.81 2.81-1.67 4.19-2.54.13-.08.25-.16.37-.25-2.38.35-4.79.56-7.2.62-4.14.11-8.26-.35-12.3-1.25-4.3 1.18-8.67 2.09-13.1 2.52-3.14.21-6.27.14-9.38-.34-1.95-.43-3.86-1.04-5.69-1.85-1.53-.81-2.98-1.76-4.33-2.84-1.55-1.43-2.93-3.01-4.18-4.7-1.73-2.66-3.12-5.49-4.24-8.46-2.05-5.94-3.2-12.19-3.77-18.45-.43-5.99-.39-12.02.0-18.04-1.3-5.18-2.22-10.45-2.71-15.76-.31-3.31-.54-6.62-.65-9.93-1.18 4.17-2.24 8.37-3.14 12.62-1.64 7.72-2.81 15.54-3.31 23.42-.47 7.34-.37 14.8.72 22.08.47 3.11 1.19 6.19 2.2 9.17 1.07 3.13 2.33 6.18 4.07 9 .04.07.09.13.13.2 1.63 2.6 3.52 5.04 5.83 7.07z" fill="#ffe5cf"/></g></g></g></svg>