<svg xmlns="http://www.w3.org/2000/svg" width="1080" height="888.1" viewBox="0 0 1080 888.1"><g id="a"/><g id="b"><g id="c"><g id="d"><g><path d="M19.24 590.51c462.07-523.83 773.58-260.7 1041.52-3.93.0.0-153.97 252.59-491.38 280.48C231.96 894.95 19.24 590.51 19.24 590.51z" fill="#fcfcfc"/><path d="M525.76 888.1C207.34 888.1 11.64 613.23 3.47 601.53c-5.09-7.27-4.53-17.09 1.34-23.74 183.33-207.84 356.08-308.87 528.09-308.87 207.04.0 374.13 143.68 541.17 303.77 6.52 6.25 7.82 16.19 3.12 23.91-6.5 10.65-163.01 261.27-506.23 289.64-15.02 1.24-30.23 1.87-45.2 1.87zM44.12 591.5c41.32 52.4 220.25 258.13 481.64 258.13 13.92.0 28.06-.59 42.03-1.74 280.74-23.21 431.69-208.16 467.91-258.64-157.24-149.87-314.72-281.84-502.8-281.84-157.15.0-317.14 92.95-488.78 284.1z" fill="#070707"/></g><circle cx="723.06" cy="591.77" r="229.38" transform="translate(-206.67 684.61) rotate(-45)" fill="#070707"/><path d="M818.16 299.07h278.7v38.48H818.16z" transform="translate(162.68 939.92) rotate(-56.42)" fill="#070707"/><path d="M529.47 135.84h310.66v38.48H529.47z" transform="translate(359.52 777.32) rotate(-75.16)" fill="#070707"/><path d="M364.91 18.91h38.48v297.27H364.91z" transform="translate(-22.37 65.63) rotate(-9.49)" fill="#070707"/><path d="M93.82 201.01h38.48v245.06H93.82z" transform="translate(-173.22 135.12) rotate(-37.39)" fill="#070707"/></g></g></g></svg>