<svg xmlns="http://www.w3.org/2000/svg" width="1080" height="1080" viewBox="0 0 1080 1080"><g id="a"/><g id="b"><g id="c"><g id="d"><path d="M540 792.6c-139.28.0-252.6-113.31-252.6-252.6S400.71 287.4 540 287.4s252.6 113.32 252.6 252.6S679.28 792.6 540 792.6zm0-430.24c-97.95.0-177.64 79.69-177.64 177.64S442.05 717.64 540 717.64 717.64 637.95 717.64 540 637.95 362.36 540 362.36z" fill="#070707"/><path d="M717.64.0h74.96v540H717.64z" fill="#070707"/><path d="M0 287.4h540v74.96H0z" fill="#070707"/><path d="M287.4 540h74.96v540H287.4z" fill="#070707"/><path d="M540 717.64h540v74.96H540z" fill="#070707"/></g></g></g></svg>