<svg xmlns="http://www.w3.org/2000/svg" width="408.06" height="1080" viewBox="0 0 408.06 1080"><g id="Layer_2" data-name="Layer 2"><g id="China01_521240546"><g id="China01_521240546-2" data-name="China01_521240546"><path d="M279.31 606.53l-151.17.21C53 631.61.0 692.32.0 763.26c0 70.45 52.3 130.8 126.58 156h154.9c74.27-25.19 126.58-85.55 126.58-156C408.06 692.13 354.73 631.29 279.31 606.53z" fill="#fbca8b"/><path d="M204.03 549.25 201.64 480.6V411.94 274.63 137.31 68.66L204.03.0 206.42 68.66v68.65V274.63 411.94 480.6L204.03 549.25z" fill="#fbca8b"/><path d="M129.49 543.16h149.07v35.73H129.49z" fill="#fbca8b"/><path d="M161.46 549.25h19.41v23.55H161.46z" fill="#070707"/><path d="M194.32 549.25h19.41v23.55H194.32z" fill="#070707"/><path d="M227.18 549.25h19.41v23.55H227.18z" fill="#070707"/><path d="M259.15 549.25h19.41v23.55H259.15z" fill="#070707"/><path d="M129.49 549.25h19.41v23.55H129.49z" fill="#070707"/><path d="M129.49 947.12h149.07v35.73H129.49z" fill="#fbca8b"/><path d="M161.46 953.21h19.41v23.55H161.46z" fill="#070707"/><path d="M194.32 953.21h19.41v23.55H194.32z" fill="#070707"/><path d="M227.18 953.21h19.41v23.55H227.18z" fill="#070707"/><path d="M259.15 953.21h19.41v23.55H259.15z" fill="#070707"/><path d="M129.49 953.21h19.41v23.55H129.49z" fill="#070707"/><path d="M174.44 919.26C136 881.93 115.79 823 115.79 761.91c0-64.46 22.94-117.86 65.08-155.17h-27C111.71 644.05 70.72 701.52 70.72 766c0 61.12 38.26 115.95 76.71 153.28z" fill="#070707"/><path d="M233.61 919.26C272.06 881.93 290 833.44 290 772.32c0-64.47-20.67-128.27-62.82-165.58h27.13c42.14 37.31 82.78 94.78 82.78 159.24.0 61.12-37.91 115.95-76.35 153.28z" fill="#070707"/><path d="M203.63 1080 201.64 1071.49 201.65 1062.99v-17V1028.98v-8.5L203.63 1011.97 205.61 1020.48v8.5V1045.99v17L205.62 1071.49 203.63 1080z" fill="#fbca8b"/><path d="M244.88 1080 242.9 1071.49v-8.5-17V1028.98v-8.5L244.88 1011.97 246.87 1020.48v8.5V1045.99v17 8.5L244.88 1080z" fill="#fbca8b"/><path d="M163.17 1080 161.18 1071.49 161.19 1062.99v-17V1028.98v-8.5L163.17 1011.97 165.15 1020.48v8.5V1045.99v17L165.16 1071.49 163.17 1080z" fill="#fbca8b"/></g></g></g></svg>