<svg xmlns="http://www.w3.org/2000/svg" width="1080" height="1080" viewBox="0 0 1080 1080"><g id="a"/><g id="b"><g id="c"><g id="d"><circle cx="540" cy="540" r="540" fill="#e2cfc5"/><g><circle cx="477.19" cy="535.78" r="238.89" transform="translate(-239.09 494.35) rotate(-45)" fill="#f7f3f0"/><path d="M667.58 467.16c.29.0.57.0.86.02.2.01.4.02.61.03.27.05.54.1.81.14.68.11 1.36.21 2.05.32.68.11 1.35.27 2.02.44.75.19 1.5.37 2.25.54.68.15 1.36.26 2.04.39 1.31.23 2.62.49 3.93.73 1.41.26 2.82.53 4.22.82 1.41.29 2.83.58 4.24.92.78.2 1.55.43 2.32.66 1.04.32 2.1.58 3.15.84 1.09.27 2.18.5 3.27.74 1.03.22 2.06.43 3.09.61 2.83.49 5.68.91 8.5 1.49.96.2 1.92.41 2.88.62.98.21 1.95.41 2.92.64.76.2 1.5.43 2.25.64.92.26 1.86.47 2.8.64.82.15 1.64.3 2.45.45.7.22 1.4.42 2.1.65.83.28 1.67.56 2.49.87 1.59.6 3.17 1.25 4.77 1.81 1.19.39 2.42.6 3.62.94 1.11.31 2.21.64 3.29 1.04.48.18.96.36 1.43.57.45.2.89.41 1.34.6.91.39 1.83.74 2.75 1.11.5.07.99.15 1.46.24 1.19.24 2.33.53 3.4.8 1.21.32 2.54.67 3.78 1.06 1.94.65 3.92 1.45 5.87 2.36 1.26.6 2.41 1.23 3.51 1.91.59.38 1.14.79 1.66 1.21.28.24.56.51.88.83.34.39.66.8.99 1.25.4.59.78 1.23 1.15 1.94.53 1.04 1.02 2.2 1.51 3.56 1.17 3.39 1.97 6.82 2.67 10.02.29 1.37.55 2.76.79 3.98l.03.14.02.12.02.11.07.38c.2 1.04.4 2.08.61 3.12.55 2.69 1.09 5 1.67 7.05.37 1.3.75 2.6 1.12 3.86l.05.16c.28.95.55 1.87.81 2.79.85 2.96 1.81 5.94 2.85 8.85.8 2.23 1.73 4.45 2.85 6.79.87 1.81 1.85 3.65 2.64 5.12.03.06.58 1.1.58 1.1l.21.39.05.1.07.12.05.09.05.1c.56 1.04 1.25 2.34 1.93 3.5.49.85 1.02 1.63 1.57 2.31.13.18.3.34.49.48.18.14.38.23.59.29.35.11.73.11 1.1.0.5-.14.89-.46 1.11-.89.22-.44.3-.89.27-1.49-.08-1.39-.09-2.77-.04-4.09.02-.3.04-.59.06-.89.11-1.32.27-2.66.49-3.98.36-1.79.63-3.42.82-4.96.08-.63.16-1.25.24-1.88.08-.63.16-1.26.24-1.88.25-1.93.45-3.98.6-5.55.53-5.41.98-10.78 1.34-15.95.14-2 .29-4.65.22-7.35-.07-2.65-.39-5.57-.97-8.93-.68-3.86-1.73-7.74-2.67-11.08-1.22-4.35-2.97-8.79-5.35-13.59-.76-1.55-1.7-3.11-2.93-4.93-.79-1.18-1.73-2.34-2.94-3.66-1.45-1.58-3.28-2.96-5.92-4.47-.88-.5-1.78-.92-2.64-1.32-.1-.05-.36-.17-.36-.17-1.16-.54-2.44-1.1-4.13-1.79-1.39-.56-2.83-1.08-4.11-1.53-.07-.03-.56-.2-.56-.2l-1.62-.57-.68-.24s-.1-.03-.1-.03c-.05-.02-.26-.09-.26-.09-1.14-.4-2.32-.81-3.47-1.23-1.85-.67-3.26-1.16-4.58-1.59-1.77-.58-3.57-1.09-5.25-1.55-1.69-.47-3.38-.91-4.81-1.27l-.2-.05c-3-.78-6.03-1.56-8.99-2.49-1.98-.68-3.96-1.44-5.7-2.1-.05-.02-.25-.09-.25-.09-.98-.37-1.99-.76-3.01-1.13-2.22-.82-4.6-1.58-6.52-2.19l-.09-.03c-.68-.21-1.35-.43-2.03-.65-1.16-.4-2.29-.81-3.35-1.21-1.56-.59-3.03-1.26-4.65-2.01-.3-.14-.61-.28-.91-.42l-.18-.08-.33-.15-.29-.13c-.57-.27-1.14-.53-1.7-.79-1.53-.7-3.04-1.36-5.01-2.21-3.12-1.35-6.44-2.63-10.14-3.92-.91-.31-1.83-.62-2.73-.91l-.12-.04-.5-.16c-.41-.14-.81-.27-1.22-.4-1.15-.39-2.34-.81-3.35-1.17l-.43-.15c-.62-.22-1.23-.43-1.84-.64-4.05-1.4-8.5-2.45-14.43-3.41-.78-.13-1.56-.25-2.33-.37l-.18-.03-.37-.06c-1.72-.27-3.2-.5-4.71-.76-.89-.16-1.68-.28-2.41-.37-.72-.1-1.48-.12-2.08-.14h-.12c-1.16-.04-2.44.04-3.8.24-.68.11-1.39.27-2.23.51-.25.07-.51.15-.76.23-.82.26-1.63.56-2.42.9-.97.24-1.92.55-2.8 1.01-.68.35-1.35.75-1.99 1.17-.9.57-1.72 1.23-2.44 2.01-.31.34-.59.7-.88 1.06-.26.32-.52.63-.78.94-.57.68-1.13 1.36-1.63 2.09-.36.54-.68 1.11-1.02 1.66-.3.48-.6.97-.86 1.48-.26.52-.46 1.09-.66 1.64-.23.64-.46 1.29-.63 1.95-.26 1-.37 2.02-.48 3.05-.14 1.22-.3 2.43-.49 3.64-.11.73-.2 1.45-.3 2.18-.37 1.77-.81 3.73-1.34 5.68-.41 1.48-.84 2.97-1.26 4.42-.03.1-.07.23-.07.23l-.04.15c-.35 1.19-.78 2.67-1.17 4.13-.24.87-.47 1.8-.65 2.49-.01.04-.05.2-.05.2l-.02.09-.03.12-.03.11c-.02.07-.04.14-.05.21-.31.65-.65 1.29-.96 1.95-.42.88-.75 1.81-1.11 2.72-.35.91-.68 1.83-.98 2.76-.42 1.28-.81 2.56-1.2 3.84-.2.65-.43 1.29-.67 1.93-.22.61-.44 1.23-.68 1.84-.22.55-.47 1.09-.72 1.63-.25.55-.47 1.11-.69 1.68.03-.07.06-.14.08-.21-.15.38-.31.75-.47 1.11l-.09-.61-.12-.78c-.5-3.41-1.02-6.94-1.34-10.57-.14-2.48-.16-4.99-.06-7.65.06-.9.12-1.79.18-2.69.0-.04.02-.32.02-.32.01-.14.02-.28.02-.28l.02-.27c.08-1.17.16-2.41.22-3.6.05-.95.1-1.89.14-2.83l.02-.36v-.2l.04-.62c.06-1.32.13-2.63.2-3.95.2-3.05.53-6.29 1.04-10.2.36-2.73.66-5.64.87-7.77v-.11l.2-1.83c.32-3.08.74-6.06 1.15-8.94.02-.13.04-.27.04-.27l.1-.71v-.09l.03-.09.09-.18c.29-.57.58-1.15.87-1.73.67-.75 1.37-1.49 2.15-2.31l.1-.11.94-.99c1.35-1.42 2.5-2.63 3.5-3.71.89-.95 1.77-1.92 2.65-2.88.52-.56 1.02-1.11 1.52-1.66 1.37-1.48 2.87-2.99 4.45-4.48.92-.83 1.9-1.68 2.77-2.42.12-.1.21-.18.21-.18.51-.43.98-.84 1.45-1.25.95-.82 1.89-1.69 2.69-2.44l.07-.06c.35-.33.66-.62.97-.91 1.25-1.13 2.39-2.06 3.47-2.84 1.27-.87 2.55-1.65 3.81-2.32.89-.46 1.76-.92 2.7-1.27.57-.2 1.16-.39 1.76-.56.59-.17 1.13-.31 1.6-.41 1.45-.3 3.02-.52 4.81-.68.96-.07 2.01-.11 3.11-.12.56.0 1.12.0 1.68.0h.65c.39.01.7.02 1 .01 1.01.0 2.11.0 3.56-.03h.2c1.2-.02 2.45-.03 3.68-.03.52.0 1.05.0 1.57.0.8.0 1.59.01 2.39.01.85.0 1.71.0 2.56-.02h.09c.74.0 1.39-.02 2.05-.02h.17c2.98-.01 5.85-.03 8.78.1 3.63.22 7.45.69 11.35 1.41 2.84.58 5.46 1.26 8.01 2.07 1.87.65 3.79 1.39 6.21 2.41 3.03 1.26 5.85 2.51 8.63 3.8.83.4 1.65.81 2.44 1.24.83.45 1.63.93 2.38 1.42.2.13.4.27.59.4.68.47 1.34.96 1.96 1.44.8.62 1.64 1.3 2.5 2.03.42.36.83.72 1.24 1.09 2.07 1.83 4.11 3.69 5.75 5.18.1.09.23.21.23.21l.55.5.38.34c.32.29.64.58.95.86 2.71 2.47 5.15 4.59 7.44 6.49 1.25 1.05 2.54 2.09 3.66 3l.33.27c1.37 1.12 2.52 2.05 3.7 3.03 2.18 1.82 4.21 3.47 7.06 5.78l.12.09 1.63 1.32c1.72 1.4 3.49 2.87 5.05 4.16l.32.26.22.18.08.07.13.11.14.12c1.4 1.16 2.79 2.32 4.2 3.47 2.21 1.81 4.44 3.48 7.11 5.42 1.29.92 2.58 1.84 3.87 2.77 1.18.85 2.48 1.82 3.87 2.87 1.21.92 2.48 1.87 3.79 2.83 1.14.84 2.37 1.69 3.66 2.55 1.67 1.13 3.44 2.13 5.25 3.14 1.35.75 2.76 1.41 4.12 2.05l.1.05s.12.06.12.06l.52.24c1.08.51 2.15.99 3.44 1.57.91.41 1.79.8 2.67 1.21 1.38.66 2.65 1.3 3.9 1.95 1.16.61 2.33 1.31 3.27 1.87 1.1.65 2.04 1.26 2.92 1.82.14.09.23.15.23.15.03.02.14.09.14.09.81.51 1.73 1.1 2.63 1.64.92.54 1.84 1.01 2.75 1.38.32.13.66.23 1.12.34.73.18 1.37.19 1.91.03.11-.03.21-.07.32-.11.85-.38 1.4-1.34 1.29-2.23-.01-.43-.11-.85-.2-1.26l-.03-.14c-.21-.93-.51-1.86-.81-2.75-.02-.06-.06-.18-.06-.18l-.1-.3c-.51-1.53-1.12-3.15-1.88-4.97-.83-1.99-1.85-3.94-3.1-5.97-1.03-1.69-2.17-3.32-3.48-4.98l-.58-.75-.58-.75-.08-.1c-.77-1-1.54-1.99-2.33-2.98-1.65-2.09-3.59-4.53-5.68-6.96-.04-.05-.08-.1-.08-.1-1.99-2.32-4.24-4.95-6.26-7.76-1.02-1.47-2.02-3.03-3.08-4.78-.39-.66-.79-1.34-1.37-2.34l-.47-.81c-.79-1.35-1.57-2.61-2.16-3.56-1.49-2.4-3.11-4.64-4.63-6.73-2.4-3.29-5.02-6.38-7.51-9.27-1.95-2.27-3.92-4.48-5.86-6.57-1.7-1.84-3.47-3.51-5.25-4.95-2.08-1.7-4.17-3.28-6.22-4.7-2.2-1.53-4.73-2.97-7.74-4.4-2.33-1.11-4.77-1.94-7.48-2.83-2.14-.71-4.45-1.41-7.27-2.22-2.66-.77-5.32-1.33-7.89-1.87-.07-.01-.23-.05-.23-.05-.64-.14-1.28-.27-1.92-.41l-.44-.09-.19-.04c-2.84-.6-5.91-1.25-8.88-1.93-.97-.23-1.96-.47-3.17-.77l-.27-.06c-.07-.02-.18-.05-.18-.05-.47-.12-.92-.23-1.37-.34-1.35-.34-2.84-.68-4.69-1.08-2.89-.63-5.78-1.06-8.22-1.41-1.2-.17-2.46-.33-3.64-.47-.16-.02-1.43-.17-1.43-.17-1.48-.18-3.09-.39-4.94-.64-3.44-.47-7-1.01-10.03-1.47l-2.15-.34-.13-.02-.23-.04-.12-.02c-1.92-.3-4.32-.68-6.61-1-1.27-.19-2.65-.35-4.2-.51-.78-.08-1.58-.12-2.33-.14-.05.0-.36-.01-.36-.01-2.1-.09-4.25.17-6.08.43-.94.15-1.85.35-2.8.62-.88.25-1.87.59-3.2 1.08-2.04.78-3.95 1.82-5.79 2.82-2.01 1.09-3.91 2.31-6.02 3.67-4.43 2.87-8.93 6.25-13.37 10.05-1.54 1.31-3.07 2.74-4.42 4-.03.03-.08.08-.08.08l-.85.79c-2.45 2.27-4.42 4.15-6.19 5.92-2.08 2.07-3.7 3.81-5.08 5.48-.88 1.07-1.78 2.2-2.66 3.36-1 1.34-1.92 2.74-2.93 4.31-.45.7-.9 1.44-1.39 2.26.0-.04.02-.07.02-.1.02-.08.03-.15.05-.22.09-.46.17-.91.26-1.37.39-2.08.65-3.67.85-5.17.35-.87.69-1.75 1.03-2.63l.11-.29c.41-1.06.82-2.11 1.23-3.16 1.75-4.41 3.19-8.81 4.76-13.69.59-1.78 1.15-3.23 1.77-4.57.03-.09.05-.18.08-.27.58-1.88 1.27-3.73 2.08-5.51 1.11-2.44 2.48-4.73 3.81-7.05.97-1.69 1.9-3.4 2.83-5.11.81-1.49 1.56-3.01 2.34-4.51.89-1.71 1.85-3.38 2.86-5.01 1.42-2.29 2.98-4.5 4.77-6.52 1.89-2.12 4.01-4.03 6.11-5.94 1.02-.93 2.04-1.86 3.1-2.75 1.01-.84 2.05-1.64 3.1-2.43 1.05-.79 2.1-1.58 3.17-2.35 1.09-.78 2.18-1.57 3.31-2.31 1.22-.79 2.5-1.51 3.77-2.23 1.25-.71 2.52-1.39 3.8-2.05.79-.41 1.59-.81 2.41-1.17.86-.37 1.73-.72 2.59-1.09 1.97-.84 3.94-1.68 5.93-2.48.99-.4 1.98-.78 2.97-1.17.94-.37 1.88-.75 2.83-1.09 1.03-.38 2.08-.72 3.13-1.06.77-.25 1.55-.51 2.33-.75.74-.22 1.49-.44 2.25-.59.75-.15 1.51-.24 2.27-.32 1.51-.15 3.03-.26 4.55-.3 1.27-.03 2.54-.04 3.81.01 1.26.05 2.51.12 3.76.17 1.57.06 3.12.2 4.67.43 1.65.25 3.29.56 4.94.81 1.19.17 2.37.34 3.56.53 1.35.21 2.69.44 4.03.68 1.65.29 3.3.55 4.95.83 1.95.32 3.89.72 5.82 1.15 1.74.38 3.49.71 5.26.98 1.72.27 3.44.57 5.14.95 1.49.33 2.98.66 4.48.91 1.56.26 3.11.55 4.65.9 1.71.39 3.4.87 5.12 1.22 1.63.33 3.26.61 4.91.86 1.3.19 2.59.38 3.89.58 1.14.16 2.28.29 3.43.44 1.46.19 2.91.41 4.35.7-.03-.26-.12-.52-.27-.76-.45-.83-.98-1.68-1.59-2.53-.42-.6-.83-1.12-1.24-1.59-.48-.55-.98-1.09-1.46-1.61l-.46-.5c-1-1.09-2.13-2.33-3.1-3.67-.83-1.25-1.63-2.62-2.58-4.46-1.12-2.18-2.16-4.44-3.05-6.38-.46-1.01-.94-2.09-1.45-3.29-.38-.89-.84-1.95-1.39-2.99-1.07-2.06-2.4-3.98-3.95-5.68-.91-1-1.92-1.96-2.8-2.77-.82-.76-1.75-1.48-2.75-2.13-.67-.43-1.43-.87-2.33-1.33-.4-.21-.81-.4-1.22-.6-.47-.23-.95-.46-1.42-.71-.33-.17-.66-.35-.98-.53-.52-.28-1.05-.57-1.59-.83-.77-.36-1.56-.63-2.32-.87-.98-.31-2-.55-2.98-.77l-.62-.14c-.32-.08-.64-.15-.96-.23-.64-.16-1.3-.32-1.96-.45-.15-.03-.3-.06-.46-.08-3.08-.87-6.05-1.46-8.29-1.87-1.65-.31-3.59-.64-5.52-.74-1-.05-1.98-.07-2.99-.04-.93.02-1.88.12-2.64.2l-.36.03c-1.71.18-3.41.46-5.06.83-.99.23-2 .49-2.99.77-1.03.3-2.08.63-3.23 1.01-3.78 1.28-7.75 3.01-12.15 5.29-3.75 1.95-7.46 4.04-11.03 6.2-1.75 1.05-3.55 2.2-5.52 3.51-2.37 1.57-4.54 3.27-6.36 4.74-2.06 1.65-4.12 3.4-5.78 4.82l-.1.08-1.35 1.15-.2.17c-1.9 1.6-4.47 3.77-6.85 5.89-1.99 1.77-4.03 3.79-6.44 6.38-2.67 2.85-5.04 6-7.25 8.97-2.12 2.87-4.16 5.69-6.06 8.34-1.13 1.58-2.2 3.11-3.12 4.42-.83 1.2-1.52 2.22-2.15 3.27l-.44.73-.46.77c-.52.9-1.02 1.85-1.49 2.81-.36.71-.69 1.47-.99 2.13-.09.21-.36.79-.36.79-1.25 2.8-2.35 5.64-3.41 8.38-.05.12-.64 1.65-.64 1.65-.93 2.39-1.8 4.86-2.6 7.35-1.09 3.38-1.78 6.9-2.45 10.31l-.09.46c-.16.81-.32 1.62-.49 2.43-.02-.24-.04-.41-.06-.58-.18-1.64-.37-3.04-.52-4.17-.45-3.27-1.08-6.6-1.69-9.71-.59-2.96-1.32-5.91-2.02-8.75l-.16-.68-.28-1.13c-.22-.9-.44-1.81-.65-2.72l-.13-.53s-.14-.6-.14-.6c-.23-.96-.45-1.89-.67-2.81-.01-.63-.02-1.28-.02-1.92.13-.3.17-.64.12-.97l-.11-.68c0-.08.0-.13.0-.13.0-1.93.03-3.43.09-4.87.07-.99.16-1.81.29-2.6.11-.49.23-.95.36-1.41.22-.63.49-1.28.8-1.96 1.58-3.26 3.49-6.31 5.35-9.26l.39-.63 1.18-1.9.25-.39c.31-.5.63-1 .94-1.51.88-1.87 1.82-3.71 2.82-5.52 1.47-2.66 3.05-5.27 4.57-7.91 2.27-3.96 4.38-7.87 6.77-11.63 1.25-1.97 2.54-3.93 3.9-5.83 1.44-2.02 2.96-3.99 4.47-5.96 2.46-3.2 4.87-6.47 7.48-9.59 1.69-2.02 3.43-3.99 5.15-5.99 1.75-2.03 3.44-4.1 5.08-6.22 3.08-4.02 6.05-8.11 8.58-12.5.55-.98 1.08-1.98 1.56-3 .38-.83.75-1.67 1.1-2.51.96-2.38 1.81-4.8 2.59-7.25.76-2.36 1.48-4.73 2.11-7.14.79-3.14 1.44-6.31 1.86-9.53.2-1.78.31-3.57.3-5.36-.05-2.15-.28-4.29-.57-6.42-.26-1.79-.54-3.57-.9-5.34-.31-1.52-.65-3.04-.99-4.55-.72-3.23-1.43-6.46-2.02-9.72-.51-2.84-.95-5.68-1.43-8.52-.41-2.42-.83-4.83-1.24-7.25-.59-3.54-1.2-7.07-1.73-10.62-.21-.04-.43-.06-.65-.06-.28.0-.56.04-.82.11-.62.18-1.17.55-1.55 1.06-.62.72-1.18 1.47-1.85 2.38-.38.52-.76 1.07-1.08 1.53l-.07.1-.09.12-.42.61c-1 1.45-2.01 2.81-3.09 4.16-.79.93-1.63 1.87-2.57 2.86-.92.97-1.9 1.89-2.85 2.77-.2.18-.56.52-.56.52l-1.11 1.01-.07.07-.14.12-.14.12c-1.74 1.59-3.69 3.36-5.55 5.15-.81.77-1.63 1.57-2.32 2.26-.52.52-.97.96-1.42 1.4-1.25 1.22-2.64 2.51-3.55 3.37l-.16.15-.11.1c-.95.87-1.79 1.63-2.64 2.41l-.19.18c-1.04.94-2.06 1.86-3.07 2.8-1.44 1.33-2.68 2.5-3.79 3.59-.95.92-1.9 1.93-2.6 2.67l-.54.57c-1.83 1.91-3.43 3.66-4.88 5.34-.54.62-1.04 1.22-1.51 1.81-.15.3-.31.61-.47.91-.19.37-.39.74-.59 1.1-.2.36-.41.71-.62 1.07-.23.39-.46.78-.68 1.17-.25.44-.47.9-.68 1.36-.43.94-.82 1.91-1.19 2.88-.35.94-.69 1.88-1 2.84-.37 1.18-.7 2.37-1.03 3.55-.15.54-.3 1.08-.44 1.62-.2.8-.37 1.62-.52 2.43-.19 1.04-.34 2.06-.51 3.08-.18 1.1-.38 2.21-.57 3.31-.21 1.2-.39 2.41-.56 3.62-.18 1.28-.38 2.57-.53 3.85-.12 1.04-.2 2.08-.3 3.12-.09.95-.19 1.9-.29 2.84-.19 1.71-.37 3.42-.47 5.14-.05.94-.07 1.87-.14 2.81-.07.95-.18 1.9-.33 2.84.0.06-.02.11-.03.17-.1 1.88-.2 3.75-.36 5.62-.1 1.1-.21 2.19-.32 3.28-.09.99-.18 1.98-.27 2.96-.04.41-.07.82-.11 1.24-.01.32-.04.63-.09.94-.14 1.48-.28 2.95-.44 4.43-.12 1.14-.24 2.27-.38 3.41-.13 1-.28 1.99-.44 2.98-.25 1.45-.53 2.9-.79 4.35-.25 1.39-.5 2.79-.67 4.19-.24 1.94-.39 3.89-.51 5.85-.13 2.29-.21 4.53-.27 6.77-.05 1.79-.1 3.59-.11 5.38-.02 2.25.01 4.5.17 6.74.06.82.14 1.63.22 2.44.01.14.03.27.04.41.04.16.07.32.07.48.0.11-.02.21-.05.31-.02.07-.04.1-.06.13-.01.08-.03.16-.06.23-.1.25-.29.47-.56.55-.13.03-.27.06-.38.02-.16-.04-.3-.15-.36-.3-.02-.05-.03-.1-.04-.15-.03-.04-.06-.08-.08-.13-.05-.09-.07-.21-.1-.31-.03-.12-.06-.23-.1-.35-.08-.31-.16-.63-.24-.95-.12-.52-.23-1.05-.33-1.57-.15-.73-.3-1.47-.45-2.2-.38-1.81-.82-3.6-1.31-5.39-.37-1.37-.76-2.74-1.13-4.11-.2-.75-.41-1.5-.6-2.26-.17-.67-.34-1.35-.49-2.03-.32-1.48-.6-2.97-.87-4.45-.38-2.07-.74-4.14-1.01-6.23-.13-1.02-.24-2.03-.33-3.05-.08-.94-.15-1.87-.18-2.81-.04-1.56.0-3.12.06-4.68-.24-2.56-.51-5.32-.85-8.2-.19-1.66-.4-3.33-.61-4.99l-.07-.61c-.11-.85-.21-1.7-.31-2.55-.07-.55-.13-1.11-.2-1.66.0-.04-.02-.17-.02-.17l-.11-.91-.06-.53-.06-.5c-.16-1.32-.31-2.64-.48-3.96-.2-1.54-.43-3.12-.65-4.61l-.03-.19-.02-.16v-.09l-.04-.18c-.45-2.97-.89-5.94-1.14-9.04-.05-.72-.07-1.43-.08-2.12-.02-1.02.04-2.06.09-2.97.17-2.41.39-4.69.66-7.05.21-1.76.49-3.61.71-5.09v-.09l.03-.1.02-.14.2-1.31c.25-1.66.43-3.35.53-5.01.11-1.66.09-3.02-.05-4.3-.16-1.36-.42-2.8-.8-4.4-.42-1.72-1.05-3.43-1.61-4.86-.65-1.63-1.39-3.22-2.05-4.62l-.06-.14c-.67-1.41-1.4-2.8-2.16-4.14-.54-.93-1.16-1.87-1.88-2.86-.75-1.05-1.47-1.95-2.2-2.74-1.18-1.29-2.45-2.37-3.69-3.42-.03-.03-.3-.25-.3-.25l-.18-.16-.46-.39c-1.39-1.21-2.87-2.42-4.17-3.49-.05-.04-.16-.13-.16-.13l-.28-.23c-.46-.38-.92-.76-1.39-1.14l-.7-.57-.24-.19c-.24-.2-.64-.54-1.03-.8-.39-.3-.88-.47-1.4-.48-.22.0-.44.02-.66.08-.22.06-.45.17-.67.31-.08.05-.14.09-.19.14-.32.26-.51.45-.69.67-.29.36-.46.79-.61 1.2-.17.46-.27.95-.37 1.42-.23 1.11-.34 2.23-.41 2.98-.08.74-.14 1.5-.19 2.15v.19c-.06.56-.1 1.04-.14 1.52-.12 1.23-.28 2.45-.44 3.63-.02.15-.03.23-.03.23l-.04.31c-.35 2.57-.78 5.14-1.28 7.99-.41 2.34-.85 5.11-.97 7.87-.07 1.47-.08 2.98-.04 4.5.04 1.52.2 2.95.34 4.14.18 1.53.51 3.02.82 4.46.37 1.7.83 3.35 1.23 4.81.06.22.23.84.23.84 1.25 4.51 2.3 8.16 3.3 11.5.47 1.54.94 3.07 1.42 4.61.02.05.18.57.18.57.02.06.13.43.13.43.12.38.23.74.34 1.1.71 2.28 1.44 4.47 2.16 6.51 2.08 5.88 4.93 11.52 7.68 16.97.04.07.39.76.39.76l.35.7.35.7c.62 1.24 1.25 2.47 1.87 3.7.03.07.51 1 .51 1l.11.22 1.24 2.46c1.01 2 2 4.1 3.11 6.62l.09.2.12.28.07.17.11.24c.13.29.25.58.38.88-.02-.03-.06-.09-.06-.09-.04-.05-.18-.25-.18-.25l-.08-.11c-.43-.58-.88-1.17-1.38-1.81-1.82-2.36-3.75-4.72-5.73-6.99-1.91-2.19-3.97-4.23-5.98-6.2-2.11-2.08-4.44-4.33-7.39-7.11-2.36-2.23-4.88-4.54-7.94-7.26-1.16-1.04-2.16-1.89-3.03-2.59-.93-.77-1.89-1.52-2.84-2.23-.89-.65-1.82-1.3-2.76-1.93-1.74-1.17-3.56-2.22-5.32-3.24-.57-.33-1.04-.6-1.5-.87-2.52-1.47-5.08-2.99-8.07-4.79-.72-.43-1.43-.86-2.15-1.3l-.17-.1-.24-.15c-.07-.04-.15-.09-.15-.09-1.47-.89-3.14-1.9-4.77-2.86-2.35-1.38-4.92-2.75-8.34-4.43-1.33-.65-2.76-1.34-4.1-1.98l-.15-.07c-.08-.04-.3-.15-.3-.15l-1.22-.58c-1.45-.69-2.99-1.37-4.55-2.02-1.5-.62-2.97-1.15-4.37-1.58-1.64-.51-3.58-1.09-5.57-1.44-1.81-.33-3.47-.52-5.05-.58-1.69-.08-3.5-.1-5.71-.08-3.5.03-6.95.33-10.29.62-2.75.24-5.49.79-8.14 1.33l-.1.02c-2.54.52-4.95 1.11-6.77 1.56-.64.16-1.27.33-1.91.49-.06.02-.4.1-.4.1-.73.19-1.42.37-2.1.54l-.4.1s-.11.03-.11.03c-.59.15-.73.18-.86.22-.21.06-.44.14-.72.24-.32.13-.61.33-.84.59-.63.65-.71 1.65-.2 2.43.19.3.45.58.76.8.05.04.11.08.16.12l.08.06.09.07c.16.12.33.24.49.35.49.32 1.03.63 1.42.85l.09.05.33.18.65.37.08.05c1.64.94 3.25 1.86 4.91 2.69 1.8.9 3.75 1.69 5.81 2.33 1.89.59 3.78 1.09 5.62 1.48 1.41.3 2.97.52 4 .67.06.0.79.11.79.11 1.13.17 2.37.38 3.2.52.16.03.25.04.25.04l.15.03c.66.12 1.53.26 2.35.39 1.1.17 2.2.32 3.24.46l1.1.15c1.37.2 2.94.45 4.93.79 1.72.34 3.52.72 5.34 1.15 1.96.46 3.9 1.04 5.54 1.55 2.4.81 4.96 1.73 6.83 2.4l.1.04c.97.35 1.89.68 2.81 1.01 3.09 1.1 5.59 2.09 7.87 3.12.88.42 1.77.86 2.62 1.32.82.43 1.65.94 2.43 1.42 1.25.82 2.41 1.67 3.55 2.6.68.61 1.34 1.23 2.02 1.91.48.52.84.93 1.18 1.34.38.46.78.98 1.19 1.55.56.82 1.12 1.67 1.66 2.53.55.89 1.09 1.89 1.46 2.56l.21.38c.4.72.8 1.48 1.18 2.21l.04.08.46.87c.74 1.39 1.55 2.85 2.46 4.45 1.54 2.67 2.9 4.83 4.3 6.8 1.33 1.89 2.84 3.86 4.63 6.03 1.56 1.92 3.2 3.79 4.78 5.59.12.13.18.2.18.2l.12.13.11.13.19.22.07.08c.83.95 1.71 1.96 2.55 2.95.55.64 1.09 1.28 1.63 1.93 1.07 1.28 1.7 2.01 2.31 2.71.98 1.14 2.11 2.36 3.44 3.72.82.85 1.65 1.64 2.58 2.52l.25.23c.92.88 1.88 1.83 3.03 2.99 1.2 1.21 2.43 2.41 3.87 3.74-.04-.04-.09-.08-.14-.12l-.3-.27-.32-.29c-1.45-1.3-2.86-2.55-4.06-3.61-1.1-.97-2.2-1.95-3.3-2.92l-.88-.79-.4-.36-.56-.5c-.08-.07-.27-.25-.27-.25l-.4-.36c-1.69-1.53-3.96-3.59-6.16-5.42-2.65-2.21-5.49-4.47-8.43-6.73-2.67-2.03-5.08-3.73-7.38-5.19-1.36-.85-2.64-1.62-3.94-2.36-1.36-.77-2.76-1.38-4.31-2.05-1.27-.54-2.52-.94-3.74-1.33-.03.0-.39-.12-.39-.12-1.52-.5-3.01-.87-4.54-1.24-4.05-.99-8.44-1.59-13.83-1.87-1.08-.06-2.16-.08-3.08-.1-.03.0-.81-.02-.81-.02-1.43-.03-2.86-.06-4.29-.09h-.5c-.46-.02-.91-.03-1.37-.04h-.67c-.1-.01-.89-.03-.89-.03-.72-.01-1.45-.03-2.17-.04-1.84-.04-3.69-.14-5.48-.24h-.29c-.07-.02-.27-.03-.27-.03-5.62-.33-10.2-.67-14.41-1.06-2.08-.2-4.22-.42-6.12-.63l-.17-.02s-.12-.01-.12-.01l-.37-.04-1.29-.14c-.31-.03-.63-.07-.94-.1-.11.02-.21.04-.32.06-.78.15-1.57.24-2.36.34-.81.09-1.62.22-2.44.26-.28.01-.57.01-.85.01-.04.0-.08.0-.12.01-1.16.12-2.32.22-3.48.31-1.13.08-2.26.16-3.4.27-.82.08-1.64.17-2.45.3-.79.12-1.57.27-2.35.44-1.61.37-3.19.84-4.77 1.35-1.43.46-2.84.96-4.25 1.48-1.89.71-3.76 1.45-5.61 2.22-.39.16-.78.32-1.18.49-.52.25-1.05.5-1.57.74-.55.26-1.1.53-1.64.8-.49.29-.97.6-1.44.93-.57.41-1.12.84-1.65 1.3-.51.44-1 .89-1.48 1.35-.46.44-.91.87-1.35 1.31-.07.13-.18.25-.31.34-.08.07-.15.12-.22.18-.37.37-.73.73-1.1 1.1-1.12 1.13-2.26 2.24-3.38 3.37-.62.63-1.23 1.25-1.84 1.89-.49.52-.99 1.04-1.48 1.55 1.75.17 3.47.29 4.94.38.12.0.22.01.22.01 3.29.22 6.93.38 9.35.49 1.88.08 3.69.17 5.5.26 4.45.26 9.16.62 14.4 1.11 1.94.19 4.04.38 6.22.47 1.33.06 2.83.1 3.63.13h.17c.12.0.28.01.28.01h.41l.29.02c1.17.04 2.29.07 3.38.12 1.22.08 2.48.18 3.75.3 1.23.12 2.5.32 3.43.46 1.17.18 2.09.34 2.95.5.04.0.2.04.2.04.39.07.76.14 1.13.21 1.89.34 3.8.65 5.84.95 2.04.3 4.21.55 5.96.75.07.0.12.01.12.01l.13.02.31.04c1.35.16 2.51.29 3.68.44 2.85.37 5.56.86 8.81 1.47 1.26.25 2.41.48 3.52.7 1.39.29 2.92.69 4.79 1.26 1.09.37 2.09.73 2.98 1.08 1.19.46 2.33.98 3.58 1.57 1.47.71 2.97 1.46 4.49 2.23.07.04.18.09.18.09l.11.06c1.82.92 3.7 1.87 5.6 2.76 1.42.67 2.97 1.27 4.73 1.84 1.83.59 3.53 1.07 5.2 1.45 1.33.31 2.83.56 3.83.73.03.0.09.01.09.01.06.0.19.03.19.03.54.09 1.07.18 1.61.28 1.54.28 2.6.47 3.67.64 1.4.23 2.78.38 4.2.53.98.11 1.97.19 2.93.27h.1l.15.02.2.02c.48.04.96.08 1.43.12 1.52.13 3.01.25 4.5.37.84.07 2.29.19 3.69.33 1.26.14 2.46.34 3.57.53 1.43.28 2.62.56 3.73.9.71.25 1.39.52 2.1.84.57.27 1.13.56 1.69.84l.1.05c.62.31 1.42.72 2.12 1.05.63.3 1.31.59 1.86.82.13.06.44.19.44.19l.45.2c.79.34 1.62.71 2.46 1.11 1.08.52 2.06 1.05 2.97 1.62.77.5 1.48 1.01 2.17 1.56.63.55 1.23 1.12 1.82 1.75 2.2 2.45 4.2 5.13 6.15 7.72l.06.07c.52.69 1.01 1.35 1.5 2 .4.52.79 1.05 1.19 1.57.85 4.03 1.67 7.98 2.4 11.87.79 4.19 1.39 8.7 1.83 13.77.2 2.75.29 5.12.28 7.27-.02-.06-.06-.11-.06-.11l-.12-.19c-.48-.74-.95-1.44-1.44-2.12-1.75-2.46-3.63-4.78-5.61-6.9-1.5-1.62-3.02-3.11-4.49-4.55-.6-.59-1.16-1.14-1.72-1.69-.32-.32-.65-.64-.97-.95-2.7-3.41-5.85-6.99-9.63-10.96-2.72-2.86-5.8-5.7-9.7-8.95-1.41-1.19-2.95-2.37-4.18-3.32-1.78-1.37-3.38-2.56-4.95-3.69-1.71-1.22-3.6-2.38-5.59-3.44-.87-.46-1.76-.88-2.54-1.26-.04-.02-.13-.06-.13-.06-.03-.01-.51-.24-.51-.24-1.12-.54-2.25-1.06-3.44-1.6-2.19-.98-4.37-1.68-6.03-2.18-2.1-.64-4.59-1.36-7.14-1.81-1.22-.22-2.52-.42-3.97-.58-1.36-.16-2.8-.22-3.57-.26h-.26c-3.41-.19-6.85.09-10.19.37-.06.0-.29.02-.29.02-1.5.11-3.07.2-4.82.27-.74.03-1.48.06-2.22.08h-.33l-.15.02c-1.03.04-2.45.09-3.78.16-3.34.21-6.82.76-10.36 1.64-.22.05-.43.11-.65.17-1.17.33-2.42.82-3.72 1.33-1.24.5-2.52 1.1-4.03 1.89-1.6.84-3.21 1.76-4.78 2.72-1.58.96-3.13 2.03-4.72 3.15-.7.49-1.44 1.03-2.28 1.68-.26.15-.52.31-.77.47-.87.55-1.7 1.19-2.5 1.83-.94.76-1.8 1.6-2.75 2.35-.69.53-1.4 1.03-2.08 1.57-.67.54-1.27 1.17-1.83 1.82-.63.74-1.18 1.54-1.72 2.34-.74 1.1-1.47 2.21-2.28 3.27-.56.69-1.14 1.37-1.68 2.07-.57.72-1.1 1.48-1.61 2.24-.96 1.42-1.82 2.89-2.69 4.37-.72 1.21-1.47 2.4-2.19 3.61-.4.67-.78 1.35-1.15 2.03-.41.76-.77 1.56-1.11 2.35-.69 1.6-1.32 3.23-1.91 4.88-.7 1.96-1.41 3.92-2.11 5.88-.69 1.92-1.36 3.85-2.05 5.77-.64 1.78-1.16 3.59-1.72 5.4-1.05 3.36-2.21 6.68-3.23 10.04-.66 2.19-1.24 4.4-1.62 6.66-.24 1.43-.48 2.86-.73 4.29-.29.83-.58 1.72-.87 2.68-.64 2.11-1.02 3.82-1.21 5.38-.28 2.17-.19 4.44.25 6.57.06.27.13.57.24.86.05-.04.1-.08.15-.12.07-.05.09-.08.12-.1-.03.02-.05.04-.08.06 2.19-1.78 4.25-3.7 6.35-5.58 1.43-1.28 2.9-2.51 4.31-3.8 1.34-1.23 2.63-2.51 3.88-3.83.94-.99 1.83-1.91 2.68-2.87.83-.94 1.63-1.91 2.42-2.88 1.46-1.8 2.9-3.62 4.28-5.49 1.4-1.94 2.74-3.92 4.06-5.91 1.37-2.06 2.72-4.14 3.92-6.3.94-1.76 1.74-3.58 2.59-5.39.63-1.34 1.28-2.66 1.9-4.01.87-1.9 1.69-3.82 2.61-5.7.88-1.8 1.84-3.57 2.88-5.29 1.03-1.71 2.15-3.38 3.34-4.98 1.11-1.48 2.29-2.94 3.66-4.18 1.15-1.05 2.41-1.95 3.73-2.78 1.19-.74 2.41-1.44 3.65-2.1.05-.03.1-.05.16-.08.64-.38 1.32-.77 2.06-1.16.45-.22.88-.44 1.31-.64.04-.03.09-.05.13-.08.09-.05.18-.09.27-.11 1.34-.62 2.61-1.16 3.85-1.63 1.84-.65 3.86-1.26 5.19-1.67.07-.02.53-.16.53-.16l.49-.15.46-.14c2.01-.63 4.04-1.37 5.83-2.02.03-.01.11-.04.11-.04l.13-.05.63-.23 1.43-.51c1.99-.72 3.99-1.44 5.98-2.16 1.37-.49 2.58-.89 3.71-1.22.15-.05.3-.09.46-.13 1.32-.38 2.55-.66 3.71-.92 1.39-.29 2.69-.5 3.97-.63 1.63-.1 3.28-.12 5.03-.05 1.42.09 2.8.25 4.11.48 1.47.3 3 .69 4.68 1.22 2.78.95 5.69 2.14 9.16 3.74 1.55.75 3.12 1.58 4.25 2.18.06.03.15.08.15.08 1.32.69 2.72 1.43 4.12 2.11 1.09.53 2.19 1.02 3.41 1.57.98.44 1.81.82 2.52 1.15 1.64.79 2.95 1.5 4.13 2.23 1.21.8 2.48 1.74 3.99 2.97 2.87 2.43 5.59 5.09 8 7.43.5.49.95.93 1.39 1.38l.16.16.1.1c.56.56 1.08 1.08 1.61 1.59 1.24 1.22 2.22 2.21 3.09 3.12 1.05 1.44 2.11 2.9 3.06 4.21l.09.12.05.08c.05.06.31.43.31.43.55.79 1.08 1.56 1.57 2.3 1.11 1.64 2.06 3.28 2.75 4.54l.74 1.46c.52 1.08.99 2.17 1.39 3.25l.06.15.08.22c-.14 1.02-.3 2.06-.47 3.09-.42 2.11-.94 4.3-1.36 6.06-.35 1.46-.8 3.36-1.17 5.16-.83 3.99-1.54 7.9-2.22 11.69l-.02.13-.08.47c-.34 1.87-.65 3.83-.89 5.43-.33-.58-.68-1.14-1.04-1.69-.77-2.08-1.66-4.11-2.63-6.1-1.41-2.9-3.04-5.69-4.83-8.38-.73-1.09-1.52-2.14-2.34-3.16-.94-1.18-1.99-2.27-2.99-3.39-1.72-1.92-3.32-3.94-5.01-5.9-1.08-1.25-2.23-2.48-3.53-3.51-1.54-1.23-3.24-2.26-4.92-3.28-2.21-1.35-4.54-2.51-6.88-3.6-3.06-1.44-6.13-2.91-9.3-4.09-1.34-.49-2.7-.94-4.05-1.41-1.18-.41-2.35-.8-3.56-1.12-.93-.24-1.89-.36-2.84-.46-1.02-.11-2.05-.13-3.07-.09-.81.03-1.62.16-2.42.29-.66.11-1.32.26-1.97.4-.73.15-1.47.29-2.2.43-1.3.24-2.61.4-3.92.54-1.73.19-3.47.33-5.21.47-1.77.13-3.54.22-5.32.29-1.61.06-3.22.12-4.83.07-1.2-.07-2.4-.19-3.6-.28-1.09-.09-2.19-.13-3.29-.17-1.74-.06-3.49-.11-5.23-.13-1.79-.01-3.59.13-5.39.05-.05.0-.11.0-.16-.02-.18-.04-.24-.05-.3-.06-.62-.08-1.26.15-1.68.59-.44.46-.65 1.17-.49 1.8.12.46.35.87.75 1.16.22.17.46.32.69.48.81.54 1.65 1.03 2.48 1.55 1.17.76 2.35 1.52 3.51 2.3.67.45 1.34.93 2.02 1.37.74.49 1.5.94 2.25 1.42 1.89 1.24 3.66 2.62 5.45 4 .81.63 1.64 1.24 2.5 1.79 1 .63 2.03 1.16 3.12 1.63.82.35 1.69.61 2.55.84.89.23 1.83.38 2.75.42 1.34.06 2.66-.08 3.99-.23.8-.09 1.59-.2 2.39-.3 1.04-.13 2.07-.23 3.11-.31 2.22-.15 4.43-.23 6.65-.17 1.27.03 2.54.12 3.82.18 1.18.06 2.36.1 3.54.16 1.94.12 3.87.31 5.8.52 1.65.18 3.3.38 4.93.68 1.49.31 2.94.7 4.38 1.15 1.12.37 2.23.77 3.31 1.26.59.31 1.17.64 1.74.99.9.59 1.77 1.2 2.64 1.82.89.64 1.74 1.34 2.67 1.93 1 .63 2.05 1.16 3.09 1.72 1.09.59 2.16 1.21 3.21 1.88.77.51 1.5 1.06 2.21 1.64 1.27 1.09 2.49 2.24 3.74 3.36 1.04.94 2.13 1.81 3.2 2.7.96.82 1.89 1.68 2.76 2.59.97 1.07 1.89 2.17 2.73 3.35 1.06 1.55 1.96 3.21 2.83 4.87.17.32.33.65.48.97.17.57.34 1.13.51 1.7-.03.15-.05.31-.08.46-.01.05-.03.17-.03.17l-.02.1c-.32 1.82-.72 4.1-1.03 6.28-.32 2.21-.54 4.5-.73 6.53.0.1-.02.19-.02.19.0.05-.06.69-.06.69l-.13 1.32v.12l-.03.23c-.14 1.49-.28 2.92-.43 4.35-.08.71-.16 1.41-.24 2.12l-.03.27v.1s-.03.12-.03.12c-.16 1.44-.34 2.97-.46 4.43-.3 3.45-.31 7.03-.05 10.94-.01-.02-.07-.09-.07-.09l-.1-.1-.17-.16c-.64-.6-1.31-1.2-2.05-1.83-2.96-2.57-6.18-4.76-8.95-6.55-1.07-.69-2.19-1.38-3.18-1.99l-.11-.07-.12-.08c-.06-.04-.97-.6-.97-.6-1.79-1.1-3.64-2.23-5.83-3.55-1.76-1.05-3.65-2.13-6.13-3.49-1.67-.91-3.41-1.78-5.08-2.62l-.13-.06-.11-.06c-.18-.09-.29-.14-.29-.14l-.86-.43-.62-.31c-.06-.03-.23-.11-.23-.11-1.99-.99-5.32-2.65-8.23-4.2-3.03-1.6-5.45-2.86-7.62-3.96-1.6-.81-3.25-1.68-4.67-2.43l-.43-.23c-.06-.03-1.3-.68-1.3-.68-1.75-.92-3.57-1.79-5.18-2.56-.06-.03-.14-.07-.14-.07-.48-.23-.94-.45-1.39-.67-.73-.35-1.44-.7-2.35-1.16l-.19-.09c-1.35-.68-2.73-1.37-4.06-1.98-2.94-1.34-6.1-2.07-8.52-2.56-2.7-.55-5.62-.8-9.48-.8-2.35-.01-4.71.19-6.99.38h-.11l-.18.03c-.24.02-.49.04-.72.06l-.46.04-.49.03c-2.82.21-6.22.47-9.46.84-.61.06-1.22.14-1.83.21l-.25.03-.23.03-.26.03-.31.04-.32.04-.39.05-.55.06-.28.03-.32.04c-.58.07-1.16.14-1.74.2l-.59.06-.62.07-.61.07-.21.02-.24.02c-1.64.17-3 .33-4.17.48-1.35.16-2.82.4-4.49.72-1.59.31-3.08.71-4.72 1.16-.23.06-.45.13-.68.19-2.5.72-5.11 1.64-8.26 2.77l-.15.06-.15.05-.35.12c-1.17.41-2.35.82-3.5 1.21l-.1.03-.17.06-.1.04c-1.59.55-3.56 1.24-5.42 1.91-1.55.58-3.14 1.28-4.85 2.15-1.77.89-3.2 1.66-4.48 2.4-1.22.7-2.53 1.56-4.01 2.62-.18.13-.35.25-.53.38-.05.0-.1.02-.15.03-.13.04-.26.1-.37.19-.15.12-.3.24-.45.36-.24.2-.49.4-.75.59-.45.3-.92.56-1.39.81-.2.11-.41.22-.61.33-.65.37-1.24.81-1.79 1.23-.61.47-1.2.98-1.64 1.37-.36.32-.71.66-1.05.98-.18.18-.37.36-.55.53-.5.47-1 .93-1.46 1.42-.55.58-1.09 1.25-1.7 2.11-.6.84-1.18 1.72-1.74 2.57-.72 1.08-1.46 2.2-2.24 3.26l-.33.45c-.25.34-.51.68-.76 1.03-.38.54-.74 1.13-1.09 1.72-.3.51-.58 1.03-.83 1.55-.25.52-.47 1.1-.7 1.82-.49 1.56-.29 3.22-.03 4.65.35 1.94 1.1 3.79 1.83 5.58.21.52.42 1.03.62 1.55.64 1.74 1.1 3.2 1.46 4.61.16.73.28 1.43.37 2.13.12 1.46.12 2.92.07 4.66-.06 1.52-.16 3.04-.29 4.52-.04.45-.09.9-.13 1.35-.06.62-.12 1.24-.17 1.87l-.04.39c-.06.66-.12 1.34-.09 2-.03.55.22 1.15.62 1.48.55.47 1.23.63 1.86.45.1-.03.19-.06.28-.11.12-.06.27-.15.41-.24.64-.45 1.08-1.15 1.51-1.83.09-.14.18-.29.27-.43.31-.47.63-.95.95-1.41.14-.2.27-.4.41-.6.61-.89 1.16-1.83 1.62-2.62.5-.86.96-1.75 1.39-2.65.29-.6.55-1.23.81-1.83.18-.43.37-.86.56-1.28.42-.86.87-1.72 1.3-2.51.37-.69.75-1.45 1.19-2.41.37-.82.7-1.68 1.01-2.51.32-.85.62-1.61.97-2.51.26-.67.5-1.35.73-2.02.23-.66.46-1.33.72-1.99.18-.46.39-.93.59-1.38.08-.17.15-.34.23-.51.33-.75.62-1.41.9-2.02.4-.84.87-1.73 1.49-2.79.2-.35.4-.7.6-1.06.4-.7.81-1.43 1.24-2.12.68-1.02 1.48-1.98 2.25-2.91l.17-.21c.41-.48.83-.92 1.26-1.34.51-.46.99-.86 1.49-1.23.42-.29.85-.55 1.32-.81l.35-.18c.52-.27 1.05-.56 1.58-.85l.62-.35c.43-.24.86-.49 1.29-.72.28-.15.52-.26.73-.35.13-.05.26-.09.4-.12.23-.07.46-.12.69-.18.4-.1.8-.2 1.2-.29l.26-.06c.82-.19 1.59-.32 2.35-.41 1.15-.1 2.31-.12 3.41-.14 2.22.45 4.45 1 6.81 1.69 1.19.34 2.39.73 3.45 1.07l.14.04s.18.06.18.06l.81.26 1.77.56.35.11.55.18c1.19.38 2.38.76 3.57 1.14l.54.18.52.17.35.12c.48.16.96.32 1.44.48 1.51.49 3.11.98 4.91 1.5l1.05.3c.13.04.29.09.29.09l.19.05c2.18.63 4.43 1.28 6.64 1.99.64.21 1.27.43 1.91.64l.26.09c.77.26 1.47.49 2.17.72 1.83.6 3.58 1.11 4.75 1.44.73.22 1.48.42 2.23.62 1.06.28 2.1.49 3.06.66 2.23.41 4.43.57 7.05.67 2.39.1 5.07.07 8.43-.09 2.34-.12 4.71-.33 7.26-.63 2.18-.27 4.44-.62 6.44-.94l.13-.02c1.5-.24 2.8-.44 4.11-.63.31-.07.61-.13.92-.2.83-.17 1.65-.34 2.48-.47.64-.1 1.28-.19 1.93-.28 1.25-.16 2.5-.28 3.75-.39.52-.05 1.03-.09 1.55-.11.43-.01.86-.02 1.29-.01 1.22.02 2.44.07 3.65.19 1.53.15 3.05.35 4.58.57 1.01.14 2.03.28 3.04.43 1.09.15 2.18.35 3.27.53.57.1 1.14.19 1.7.29.46.08.91.17 1.36.27.76.15 1.52.29 2.28.44.75.14 1.5.3 2.24.48.62.15 1.25.31 1.87.46.63.15 1.27.3 1.9.45.56.13 1.11.28 1.66.44.64.18 1.29.35 1.93.52.54.14 1.07.28 1.6.44.83.24 1.65.52 2.48.77.69.21 1.37.4 2.06.6.74.21 1.47.44 2.19.69.6.21 1.2.41 1.8.62.24.06.48.11.71.19.04.01.08.03.13.05.12.02.24.04.36.06.45.09.87.2 1.28.32.39.14.77.29 1.13.46.29.15.58.3.86.45.09.97.19 1.95.28 2.87-.11-.06-.14-.08-.18-.09-.09-.04-.17-.08-.25-.11-.9-.38-1.75-.67-2.6-.91l-.09-.05c-.6-.3-1.23-.57-1.73-.78-.07-.03-.13-.05-.13-.05l-.34-.14c-.87-.37-1.78-.69-2.44-.93-.05-.02-.4-.15-.4-.15l-.35-.13c-.8-.29-1.6-.58-2.4-.87l-.56-.2c-1.22-.44-2.23-.8-3.2-1.12-.63-.18-1.27-.35-1.91-.51-.77-.18-1.55-.33-2.33-.49-.69-.14-1.38-.27-2.06-.41-.77-.16-1.53-.31-2.31-.45-.63-.11-1.26-.23-1.89-.35-.62-.12-1.24-.26-1.87-.36-.62-.1-1.24-.16-1.86-.23-.54-.06-1.07-.13-1.61-.21-.45-.06-.89-.13-1.34-.18-.61-.06-1.22-.12-1.83-.17-.21.0-.46-.01-.7-.02-1.62-.05-3.07-.06-4.52-.02-2.21.04-4.32.19-6.27.44-1.26.15-2.54.42-3.91.81-.78.22-1.61.49-2.51.82-2.51.92-4.64 1.93-6.5 3.1-1.12.7-2.13 1.54-2.89 2.19-1.01.86-2.02 1.9-3 3.08-2.08 2.48-4.05 5.35-5.85 8.52-.88 1.56-1.68 3.24-2.38 4.72-.03.07-.06.11-.06.11l-.04.09c-1 2.11-1.93 4.28-2.78 6.49-2.34 6.05-3.03 12.56-3.7 18.86l-.04.4c-.3 2.75-.56 5.74-.83 9.68-.28 3.86-.45 7.36-.54 10.68-.09 3.11.02 6.43.33 9.88.12 1.28.28 2.49.51 4.18.22 1.58.47 3.19.72 4.78l.03.18c.35 2.17.68 4.22 1.12 6.25.21.94.42 1.87.8 2.67.29.74.99 1.27 1.77 1.36.29.04.59.02.88-.07.48-.14.91-.43 1.21-.82.97-1.12 1.32-2.63 1.63-3.96.24-1.03.42-2.14.53-2.81l.05-.32c.14-.84.27-1.68.4-2.52l.04-.24.03-.24.02-.14c.07-.48.15-.97.22-1.45.18-1.1.33-2.16.55-3.72l.03-.21s.02-.11.02-.11c.31-2.13.63-4.34 1.02-6.51.23-1.17.5-2.42.78-3.7.38-1.65.84-3.33 1.42-5.15 1.27-3.66 2.78-7.23 4.22-10.56.44-1.03.87-2.07 1.28-3.07l.09-.22c.03-.08.1-.23.1-.23.72-1.76 1.46-3.58 2.26-5.32 1.12-2.3 2.47-4.52 3.64-6.4.64-.99 1.31-1.93 2.05-2.88.77-.9 1.6-1.79 2.53-2.73.79-.79 1.65-1.59 2.29-2.17.05-.05.38-.35.38-.35 2.39-2.18 4.7-4.2 6.83-6.05l.67-.58s.17-.15.17-.15c.64-.56 1.39-1.21 2.13-1.83 1.42-1.19 2.98-2.3 4.44-3.35 1.85-1.28 3.87-2.6 6.37-4.15 1.75-1.08 3.21-1.97 4.74-2.8.91-.47 1.79-.86 2.68-1.2.3-.11.67-.22 1.1-.35.42-.12.83-.23 1.24-.32 1.67-.34 3.52-.58 5.82-.77 1.26-.09 2.38-.12 3.43-.08.8.06 1.6.15 2.37.27.56.12 1.11.26 1.66.43.82.28 1.62.61 2.46 1 .52.25 1.09.54 1.74.88.13 1.26.27 2.56.4 3.7l.02.22.05.47v.1s.03.17.03.17c.34 2.9.71 6.14.97 9.34.33 4.28.59 7.58.92 11.1.19 1.96.41 3.87.72 6.58v.13c.3 2.47.6 5.12.83 7.77.21 2.89.35 5.95.44 9.35.1 4.35.09 7.68-.03 10.79-.28 3.74-.76 7.41-1.23 10.96.0.08-.03.21-.03.21-.06.46-.11.83-.16 1.21-.18-.18-.36-.35-.55-.53-.6-.88-1.2-1.76-1.81-2.63-.98-1.42-1.99-2.83-2.97-4.25-1.08-1.57-2.09-3.19-3.1-4.8-1.2-1.92-2.39-3.83-3.98-5.46-1.16-1.19-2.61-2.15-4.13-2.81-1.6-.7-3.34-.74-5.05-.74-2.31.0-4.65.18-6.92.62-.91.18-1.8.45-2.68.75-.88.3-1.77.69-2.57 1.16-1.87 1.11-3.37 2.7-4.89 4.24-.53.52-1.08 1.02-1.65 1.5-1.03.78-2.1 1.47-3.21 2.13-.87.5-1.75.96-2.65 1.41-1.3.65-2.65 1.22-3.96 1.85-2.04.98-3.94 2.26-5.84 3.48-1.38.89-2.83 1.73-4.11 2.77-.76.62-1.45 1.31-2.06 2.07-.58.72-1.07 1.49-1.57 2.26-.54.55-1.06 1.12-1.57 1.69-.84.94-1.7 1.86-2.5 2.85-.22.28-.44.55-.65.84-.13.18-.27.36-.37.57-.03.05-.06.11-.08.17-.5.31-.81.78-.86 1.31-.07.72.34 1.36.97 1.67.4.16.72.18 1.02.12.05.0.12-.03.18-.05.51-.15.99-.37 1.47-.59.09-.03.18-.07.27-.1.12-.04.24-.09.37-.13.32-.06.63-.12.95-.2.34-.08.68-.19 1.01-.3.34-.11.68-.22 1.02-.3.23-.05.45-.11.67-.17 1.16-.17 2.31-.45 3.44-.78 1.52-.44 3.01-.95 4.48-1.54 1.68-.67 3.34-1.4 5-2.12 1.74-.76 3.46-1.59 5.21-2.35 1.41-.58 2.84-1.11 4.3-1.58.57-.18 1.13-.35 1.7-.53.6-.19 1.18-.43 1.76-.69 1.05-.46 2.04-1.1 3.02-1.69 1.22-.73 2.43-1.47 3.65-2.19.68-.4 1.37-.79 2.09-1.12.71-.29 1.43-.53 2.17-.74.74-.18 1.48-.33 2.24-.44.65-.07 1.3-.11 1.95-.13.44.01.88.04 1.31.1.56.1 1.11.22 1.67.36.79.24 1.56.51 2.33.82 1.57.69 3.13 1.44 4.63 2.26 1.42.78 2.89 1.48 4.31 2.29.46.27.91.56 1.34.88.53.43 1.03.9 1.52 1.37.47.46.95.91 1.41 1.36.4.42.77.86 1.13 1.32.12.16.24.32.36.48.0.49-.06.95-.12 1.45l-.04.36c-.02.2-.03.29-.03.29-.39 3.36-.8 6.8-1.29 10.16-.39 2.65-.83 5.26-1.21 7.56l-.05.3c-.27 1.62-.53 3.21-.79 4.81-.21 1.3-.41 2.61-.62 3.91l-.12.77-.03.17-.02.14-.04.28-.06.36c-.33 2.09-.68 4.31-1.03 6.46-.02-.03-.08-.06-.08-.06-.43-.2-.88-.39-1.35-.57-.56-.21-1.05-.37-1.51-.5-.48-.14-1.03-.25-1.69-.34-.32-.05-.64-.08-1.11-.12-.34-.03-.62-.06-.9-.09-.95-.11-1.9-.28-2.87-.45-.62-.12-1.24-.25-1.86-.39-.87-.19-1.73-.37-2.6-.52-.88-.16-1.87-.31-3.05-.45-.68-.08-1.36-.16-2.04-.24l-.29-.03-.36-.04-.33-.04c-.3-.03-.59-.07-.88-.1-.53-.06-1.11-.14-1.87-.25-1.14-.38-2.44-.83-3.84-1.33-.51-.18-1.02-.37-1.53-.55-1.38-.5-2.96-1.07-4.49-1.57-1.59-.53-3.36-1.02-5.72-1.58l-1.12-.27-.19-.05-.28-.07-.3-.07c-.41-.1-.81-.19-1.21-.29-1.35-.33-2.65-.74-3.77-1.09-1.51-.52-3.04-1.1-4.68-1.8-1.74-.73-3.37-1.47-4.94-2.18l-.2-.09c-1.49-.67-2.96-1.36-4.34-2l-.15-.07c-.07-.04-.16-.07-.16-.07l-1.02-.48c-1.23-.57-2.49-1.13-3.78-1.71-.05-.02-.19-.09-.19-.09l-.13-.06-.11-.05-.33-.15-.4-.18c-.57-.25-1.14-.51-1.7-.76-1.01-.48-2.04-1.01-3.15-1.62-.96-.52-1.88-1.12-2.7-1.64-.05-.03-.19-.12-.19-.12-.7-.46-1.4-.92-2.1-1.39-.06-.04-.17-.11-.17-.11-1.05-.69-2.02-1.34-2.98-1.96-.68-.43-1.37-.86-2.06-1.3l-.43-.27-.2-.12-.21-.13-.2-.12c-.85-.53-1.68-1.05-2.51-1.59l-.2-.13s-.14-.09-.14-.09c-1.24-.79-3.02-1.94-4.67-2.94-2.05-1.24-4.27-2.29-5.96-3.07-.81-.36-1.7-.76-2.73-1.2-1.19-.5-2.43-.91-3.38-1.22-1.87-.6-3.94-1.06-6.16-1.35-1.4-.19-2.9-.2-4.58-.05-.78.06-1.6.16-2.51.3-.88.15-1.88.38-2.47.52-.03.0-.1.02-.1.02-.06.01-.16.04-.16.04-1.17.28-2.35.62-3.49.94-1.35.39-2.61.75-3.88 1.03l-.31.06c-1.92.39-3.9.8-5.98.99h-.22l-.26.03h-.13c-.13.01-.26.02-.39.03-.06.0-.12.0-.16.01-.18.02-.26.03-.33.06-.32.09-.6.26-.83.5-.06.07-.11.12-.15.17-.21.27-.33.6-.35.95-.03.45.08.86.33 1.23.42.55 1.08.84 1.72 1.12.15.06.27.11.38.17.81.39 1.6.85 2.35 1.29.19.11.44.26.44.26.41.24.81.49 1.21.73.72.44 1.45.89 2.17 1.27.83.43 1.73.77 2.94 1.11.55.16 1.1.29 1.61.4l.39.09c.8.19 1.64.42 2.51.69 1.16.42 2.36.92 3.67 1.54 1.2.58 2.26 1.16 3.25 1.76 1.58 1.02 3.17 2.19 4.74 3.47.74.63 1.47 1.27 2.2 1.91l.1.09.13.11.07.06c1.02.89 1.87 1.64 2.76 2.38 1.04.88 1.94 1.55 2.82 2.1 1.21.76 2.48 1.41 3.79 2.07.88.44 1.79.88 2.87 1.38 1.13.52 2.28.99 3.36 1.43.89.35 1.75.71 2.94 1.21 1.4.58 2.9 1.21 4.41 1.78 1.44.55 3.06 1.08 5.1 1.67.47.14.94.27 1.41.4l.12.03.37.1c.83.24 1.71.4 2.49.54l.12.02c.69.13 1.47.22 2.51.27 1.13.07 2.34.09 3.15.1h.47c2.79.06 5.03.13 7.08.24 1.19.08 2.23.16 3.18.26.81.09 1.61.22 2.38.34.27.04.87.14.87.14 2.82.45 5.75.55 8.34.64 2.3.08 4.49.09 6.56.02.48-.02.96-.04 1.44-.06.07.0.27-.01.27-.01.39-.02.78-.04 1.17-.05.92-.04 1.94-.03 3.03.02 2.03.14 4.04.44 5.98.74l.26.04c.97.15 2.01.3 3 .43.75.1 1.5.18 2.25.27 1.51.17 3.09.36 4.59.61.7.14 1.4.28 2.1.43.95.2 2.71.57 4.31.82.67.11 1.36.19 2.13.26.36.04.91.09 1.43.18.32.07.64.16.96.25.76.26 1.44.54 2.1.84.3.15.59.29.86.45l-.1.45-.26 1.47c-.18-.02-.38.0-.59.06-.11.03-.22.08-.32.13-.29.13-.54.28-.79.45-1.31-.33-2.74-.54-4.64-.69-1.42-.12-2.93-.18-3.83-.21l-.49-.02-.61-.03c-.77-.03-1.54-.07-2.31-.11-1.14-.05-2.27-.11-3.41-.15-1.85-.08-3.8-.07-5.79.02-1.95.08-3.86.33-5.71.56-.04.0-.09.01-.09.01-3.28.41-6.54.97-9.89 1.57-2.32.41-4.59.9-6.75 1.45-.28.07-.55.15-.82.22-2.5.72-4.83 1.76-6.78 2.69-1.25.58-2.56 1.29-4.12 2.21-1.49.87-2.87 1.86-4.22 2.81-3.01 2.14-5.86 4.41-8.51 6.57-1.07.87-2.14 1.74-3.22 2.6l-.95.77-.29.24c-1.58 1.28-2.91 2.48-4.05 3.68-1.79 1.86-3.44 4.13-5.21 7.17-.76 1.33-1.41 2.75-2 4.09-.61 1.41-1.15 2.86-1.6 4.31-.29.92-.65 2.14-.89 3.43-.3 1.6-.47 3.07-.51 4.49-.13 4.08.26 8.21.68 12.08.42 3.84.92 7.25 1.54 10.43.64 3.26 1.64 6.48 2.61 9.6l.06.21.41 1.31c.33 1.06.66 2.12.98 3.18.29.97.58 1.95.87 2.93l.21.71.19.64.19.64c.59 1.98 1.21 4 1.84 6.06.53 1.73 1.06 3.45 1.58 5.18l.38 1.27c.86 2.86 1.75 5.82 2.53 8.77.21.79.44 1.67.69 2.69l.09.35.06.26.12.47.19.77c.35 1.36.72 2.7 1.08 3.98 1.22 4.26 2.5 7.64 4.03 10.64.4.78.89 1.69 1.46 2.51.23.34.52.73.95 1.07.3.23.63.37.99.41.3.04.61.02.89-.06.14-.04.31-.11.5-.22.73-.46 1.14-1.28 1.41-1.96.4-.99.6-2.01.8-3l.08-.39c.19-.93.38-1.86.57-2.79l.02-.11.07-.33c.22-1.09.48-2.36.74-3.56.4-1.82.87-3.72 1.25-5.25.02-.06.04-.17.04-.17l.3-1.2c.51-2.05.96-4.1 1.4-6.09.05-.22.07-.32.07-.32.26-1.19.53-2.37.8-3.56.65-2.85 1.23-5.66 1.73-8.36.34-1.8.61-3.75.82-5.16.02-.12.03-.22.03-.22v-.09c.11-.66.2-1.31.3-1.97.15-.99.31-1.98.46-2.96l.02-.16c.15-.95.3-1.89.45-2.84.35-2.32.64-4.71.87-7.3.32-3.53.38-7.33.16-11.29-.07-1.37-.21-2.75-.34-4.04-.18-1.85-.32-3.29-.44-4.77-.1-1.31-.19-2.72-.13-4.13.05-.58.12-1.09.2-1.57.06-.26.13-.54.21-.82.17-.48.37-.96.6-1.47.25-.48.53-.96.84-1.48.28-.41.61-.85 1-1.34.68-.77 1.43-1.53 2.29-2.34 1.27-1.12 2.65-2.13 4.07-3.14l.97-.68.2-.14c1.03-.71 1.93-1.35 2.67-1.89.5-.36 1-.73 1.5-1.1l.1-.07.21-.15.09-.07c.83-.61 1.76-1.3 2.68-1.95l.55-.38c2.16-1.51 4.31-3.01 6.32-4.66 1.41-1.15 2.74-2.4 3.92-3.51.45-.42.87-.82 1.3-1.22.35-.32.7-.63 1.05-.95l.15-.14.11-.1.12-.11c1.42-1.27 2.89-2.58 4.23-4.05l.79-.87c1.65-1.82 3.32-3.66 5.11-5.33 1.28-1.15 2.36-2.03 3.39-2.76.9-.62 1.81-1.21 2.9-1.92l.17-.11.15-.1c.53-.34.99-.64 1.45-.94.06-.04.23-.15.23-.15l.19-.13.2-.13.24-.16.19-.13.47-.31c-.32 1.9-.55 3.78-.71 5.15l-.02.13-.06.48-.07.57-.07.57c-.24 1.91-.46 3.82-.68 5.72l-.23 1.97c-.41 3.41-.88 6.92-1.3 10.03l-.02.14-.03.22-.04.27c-.17 1.24-.33 2.43-.49 3.61-.27 1.99-.52 3.98-.78 5.96l-.03.24-.02.14-.04.28-.07.51c0 .05-.03.24-.03.24-.29 2.22-.65 4.99-1.01 7.61-.58 4.15-1.14 8.22-1.54 12.31-.36 3.61-.53 7.46-.53 11.78.0 2.14.04 4.28.09 6.3v.15c.02.62.03 1.24.04 1.87.04 2.16.04 4.34.04 6.26.0.05.0.19.0.19v.38c0 2.35.0 5.45.13 8.63.02.33.04.67.06 1.01v.23c.04.26.07.67.09 1.12-.06.68-.12 1.36-.18 2.04-.43 4.94-.77 9.88-1.02 14.83-.24 4.78-.31 9.56-.4 14.34-.08 3.96-.29 7.92-.39 11.89-.1 4.05-.05 8.09.09 12.14.16 4.64.52 9.27.74 13.91.21 4.46.22 8.93.28 13.39.11 7.81.96 15.58 1.58 23.36.52 6.86 2.72 70.3 3.23 77.15.1 1.38.01 7.21 1.76 8.86 1.6 1.51 15.29 1.18 17.87-1.16 1.62-1.47 2.51-3.87 2.4-6.08-.08-1.81-.31-3.62-.47-5.42-.21-2.27-2.11-61.12-2.29-63.39.0-.8-.01-1.59-.01-2.39.0-4.49.0-8.97-.1-13.46-.14-7.18-.45-14.35-.52-21.53-.03-3.66.0-7.31-.05-10.97-.04-4.1-.19-8.19-.32-12.28-.22-6.71-.49-13.42-.72-20.13-.3-8.74-1.29-17.43-2.04-26.14-.11-1.3-.22-2.59-.32-3.89-.62-8.14-.9-16.29-1.74-24.41-.08-.79-.19-1.58-.29-2.37-.1-3.68-.17-7.44-.02-11.16.36-5.64 1.08-11.28 1.78-16.73.33-2.51.65-5.05.93-7.53.12-1.01.24-2.05.36-3.08.44-.44.86-.9 1.26-1.38.77-.91 1.52-1.83 2.31-2.72.47-.51.96-1 1.45-1.49.64-.65 1.28-1.28 1.97-1.88.51-.42 1.04-.83 1.59-1.2.21-.13.42-.25.64-.36.24-.1.47-.19.72-.28.26-.07.52-.14.78-.19.22-.03.43-.05.65-.07.32.0.64.0.96.03.23.03.45.06.68.1.16.04.32.09.47.14.33.13.64.28.95.43 1.24.66 2.46 1.39 3.63 2.17.83.58 1.63 1.2 2.38 1.87.83.77 1.61 1.6 2.35 2.46 1.06 1.27 2 2.62 2.92 3.99.55.83 1.1 1.67 1.66 2.49.72 1.05 1.46 2.09 2.21 3.13 1.5 2.06 3.1 4.03 4.94 5.79.84.81 1.74 1.57 2.65 2.3.99.79 2.07 1.44 3.12 2.14.55.39 1.08.8 1.6 1.24.56.52 1.09 1.06 1.59 1.63.82 1.01 1.59 2.06 2.3 3.15 1.16 1.86 2.15 3.81 3.08 5.79.64 1.41 1.22 2.85 1.78 4.3.73 1.88 1.55 3.71 2.43 5.51 1.68 3.44 3.59 6.75 5.69 9.95.63.97 1.34 1.87 2.13 2.72.71.77 1.53 1.45 2.37 2.06.78.57 1.6 1.11 2.41 1.65.95.63 1.94 1.2 2.89 1.83 1.85 1.31 3.52 2.87 5.5 3.99.79.44 1.62.8 2.43 1.19.36.17.72.31 1.09.41.38.13.78.11 1.16.0.14-.04.28-.09.4-.15.37-.2.65-.45.84-.77.27-.45.32-.95.24-1.45-.09-.42-.26-.78-.41-1.15-.51-1.25-1.01-2.5-1.5-3.76-1.2-3.04-2.37-6.1-3.65-9.12-.74-1.75-1.55-3.47-2.37-5.18-1.1-2.3-2.31-4.54-3.52-6.79-1.22-2.26-2.39-4.55-3.63-6.81-1.19-2.17-2.48-4.3-3.77-6.41-1.12-1.83-2.27-3.65-3.41-5.47-.98-1.56-1.94-3.13-3-4.62-.75-1.05-1.6-2.03-2.51-2.94-.95-.96-2.04-1.8-3.15-2.59-.98-.69-2.01-1.32-3.05-1.92-1.24-.71-2.54-1.31-3.81-1.96-.84-.44-1.63-.93-2.42-1.46-2.33-1.63-4.59-3.37-6.71-5.27-1.25-1.15-2.47-2.32-3.74-3.45-1.18-1.05-2.39-2.05-3.56-3.1-.98-.87-1.96-1.74-3.05-2.48-.9-.61-1.83-1.15-2.81-1.63-.87-.42-1.78-.74-2.69-1.05-1.01-.34-2.04-.6-3.08-.82-1.02-.21-2.11-.29-3.15-.22-.82.06-1.62.2-2.38.54-1.38.63-2.52 1.73-3.57 2.8-.84.87-1.63 1.8-2.36 2.76-.69.91-1.28 1.89-1.89 2.86l.27-2.18c.44-3.6.83-7.29 1.12-9.98l.02-.2.03-.29.1-.93.05-.48.07-.61.08-.74c.08-.77.16-1.51.24-2.25l.02-.21c.16-1.43.38-3.38.61-5.18.22-1.67.54-3.55.73-4.67.03-.18.07-.42.07-.42l.05-.3.05-.32c.04-.26.08-.5.12-.75.39-2.36.74-4.67 1.06-6.81.54-.14 1.08-.27 1.61-.4.85-.21 1.7-.43 2.56-.56.31-.03.62-.05.93-.06.43.01.85.05 1.28.1 1.19.19 2.38.43 3.54.75 1.08.33 2.15.7 3.24 1.03 1.04.31 2.09.58 3.15.79 1.99.4 4.03.31 6.03.56.47.08.94.16 1.41.28.64.03 1.28.09 1.9.25.24.06.48.15.72.24.13.05.27.09.4.15.2.09.4.18.6.28.12.06.23.11.35.17.22.12.44.25.65.38.08.05.17.1.25.15.3.19.59.38.87.57.63.42 1.23.88 1.75 1.43.31.34.59.71.86 1.08.43.6.82 1.23 1.21 1.86.67 1.09 1.34 2.19 1.98 3.31.61 1.07 1.17 2.16 1.77 3.23 1.12 2.04 2.34 4.04 3.66 5.96.69.99 1.48 1.92 2.26 2.84.54.62 1.07 1.25 1.62 1.86.75.83 1.57 1.61 2.42 2.34.46.39.94.77 1.44 1.1.87.55 1.78 1.04 2.71 1.49 1.08.51 2.18.95 3.26 1.45 1.18.55 2.34 1.17 3.48 1.81.42.24.83.48 1.25.73.16.09.31.18.47.27.21.12.42.24.63.35.47-.43.73-1.14.56-1.75-.04-.13-.07-.21-.11-.31-.06-.14-.11-.26-.16-.37-.05-.13-.08-.22-.11-.32-.09-.32-.16-.64-.23-.96-.15-.7-.37-1.38-.64-2.05-.6-1.46-1.32-2.88-1.99-4.31-.23-.49-.47-.97-.7-1.46-.02-.05-.03-.1-.05-.14-.44-1.23-.91-2.46-1.38-3.68-.61-1.58-1.41-3.07-2.11-4.61-.72-1.63-1.36-3.3-2.05-4.95-.36-.86-.76-1.7-1.2-2.51-.48-.89-.99-1.75-1.41-2.67-.51-1.17-.94-2.38-1.35-3.59-.3-.89-.61-1.77-.97-2.64-.32-.78-.66-1.56-1.05-2.31-.43-.84-.91-1.66-1.3-2.52-.25-.56-.49-1.12-.76-1.67-.26-.53-.56-1.03-.87-1.53-.55-.89-1.2-1.71-1.96-2.42-.53-.5-1.12-.95-1.77-1.29-.5-.26-1.05-.41-1.6-.55-.37-.2-.77-.31-1.19-.39-.48-.09-.97-.14-1.46-.2-.67-.08-1.34-.19-2.01-.29-.85-.13-1.71-.24-2.57-.31-1.07-.08-2.14-.06-3.21-.02-2.65.09-5.28.38-7.91.73-1.09.14-2.19.22-3.27.39-.53.08-1.05.18-1.57.28-.57.1-1.14.19-1.7.29-1.04.19-2.06.47-3.07.75-1.04.28-2.06.62-3.08.99-.04.01-.08.03-.12.05-.33.09-.63.23-.92.38-.54.24-1.08.5-1.6.78-.71.38-1.39.82-2.08 1.25-.06.04-.12.08-.19.11.43-3.12.91-6.51 1.38-9.85.79-5.43 1.39-10.35 1.83-15.04.45-4.71.96-9.66 1.37-13.63l.02-.19.03-.3v-.14l.05-.38.03-.31c.23-2.26.41-4.74.53-7.57.11-2.43.02-4.86-.07-7.2.0-.04-.03-.91-.03-.91-.04-1.28-.1-2.59-.17-3.88.28.08.49.13.75.2.12.05.2.08.29.12.09.05.18.1.27.15.17.11.34.24.57.42.57.49 1.13 1.03 1.63 1.5.63.6 1 .95 1.36 1.29.56.52 1.16 1.03 1.59 1.4.04.03.14.12.14.12l.3.25.29.25c1.07.93 1.98 1.78 2.78 2.61.51.57.99 1.16 1.45 1.79.63.95 1.25 2.01 1.94 3.34.13.26.27.52.4.79l.13.26c.81 1.6 1.58 3.12 2.52 4.56 1.18 1.83 2.63 3.48 4.04 5.06l.17.19.24.27s.55.63.55.63c2.61 3.01 5.02 6.2 7.34 9.3l.07.1c1.16 1.55 2.4 3.15 3.8 4.92l.63.81.33.43.33.42c.98 1.26 1.71 2.19 2.48 3.13 1.87 2.32 3.81 4.73 6.04 6.97 1.69 1.71 3.62 3.41 5.89 5.2.99.78 2.06 1.56 2.83 2.14.03.03.08.06.08.06l.46.35c.9.66 1.78 1.29 2.64 1.85.03.02.24.22.24.22.92.85 1.83 1.7 2.74 2.5.64.57 1.32 1.15 1.93 1.67.06.05.16.14.16.14.65.55 1.34 1.14 1.99 1.71 1.54 1.37 3.08 2.88 4.7 4.62 1.38 1.52 2.77 3.16 3.9 4.48l.06.07c.54.64 1.09 1.28 1.63 1.91.58.68 1.17 1.35 1.77 2.02l.16.19.24.28c.46.52.91 1.04 1.36 1.56 1.18 1.38 2.33 2.85 3.53 4.51 1.24 1.8 2.34 3.47 3.35 5.12 1.06 1.75 2.03 3.56 2.76 4.95.34.65.67 1.31 1 1.96l.11.22.17.32c.41.8.82 1.6 1.23 2.4.91 1.74 1.92 3.58 3 5.48 1.47 2.58 3.12 5.08 4.72 7.5.03.04.54.82.54.82.81 1.23 1.75 2.66 2.62 4.06.38.61.75 1.23 1.11 1.83l.09.14.08.13.07.11.07.13c.35.57.69 1.15 1.05 1.72.7 1.13 1.45 2.32 2.32 3.43.22.28.46.56.69.83.11.13.31.35.31.35.09.11.2.22.33.33.76.64 1.54 1.13 2.28 1.58 1 .6 2.12 1.16 3.65 1.81 1.56.67 3.3 1.27 5.49 1.92.86.26 1.84.55 2.81.72.81.15 1.64.24 2.46.26.25.0.4-.03.54-.07.45-.17.71-.33.89-.55.28-.32.45-.68.51-1.1.06-.33.03-.66.0-1.01-.03-.22-.06-.44-.09-.66v-.11l-.03-.09c-.03-.19-.05-.37-.07-.56-.05-.45-.1-.99-.15-1.64l-.03-.3-.04-.47c-.14-1.51-.33-2.98-.58-4.37-.13-.69-.29-1.43-.4-1.93l-.04-.18-.07-.33c-.17-.71-.36-1.42-.62-2.32-.42-1.37-.91-2.85-1.46-4.4-.45-1.23-.92-2.41-1.36-3.5-.06-.9-.35-1.64-.64-2.36l-.13-.34-.45-1.14c-.58-1.46-1.18-2.97-1.75-4.58l-.05-.13-.05-.14-.15-.45c-.08-.23-.15-.45-.22-.67-.65-1.96-1.24-3.94-1.81-5.86-.7-2.36-1.35-4.55-2.12-6.75-.79-2.27-1.78-4.48-2.63-6.33-1.9-4.12-3.89-8.16-5.89-12.01-1.13-2.16-2.35-4.3-3.49-6.3-1.2-2.09-2.34-4.09-3.69-6.5-1.46-2.6-3-5.19-4.36-7.48l-.07-.12-.06-.1-.15-.25c-.8-1.36-1.96-3.32-3.01-5.14-1.33-2.3-2.63-4.62-3.87-6.88l-.43-.79c-.41-.75-.95-1.74-1.48-2.69-.79-1.39-1.61-2.64-2.32-3.68-1.2-1.8-2.64-3.6-4.67-5.85-1.65-1.83-3.54-3.66-5.95-5.77-2.57-2.25-5.31-4.29-8.11-6.35-3.24-2.38-6.68-4.57-10.01-6.69l-.15-.09-.34-.22-.43-.27-.26-.17-.8-.51c-1.38-.9-2.74-1.82-4.01-2.68l-.08-.05c-2.4-1.62-4.77-3.21-7.14-4.65-2.41-1.45-4.83-2.52-7.21-3.18-.6-.17-1.23-.28-1.74-.37l-.23-.04c-.7-.13-1.42-.22-2.04-.3-1.38-.18-2.84-.31-3.91-.41-.12-.01-1.1-.1-1.1-.1-2.2-.21-4.01-.34-5.69-.41-2.22-.1-4.53-.08-7.06.08-2.02.11-4.1.39-5.78.62l-.53.07c-.9.11-1.69.23-2.48.38.0-.05.0-.11.0-.11-.07-.84-.13-1.62-.21-2.4-.35-3.74-.91-7.57-1.41-10.96v-.11c-.02-.06-.26-1.66-.26-1.66-.25-1.69-.52-3.7-.82-6.15l.06-.07.1-.14c.14-.16.29-.31.44-.46.34-.31.75-.64 1.26-1.04l.68-.52.09-.07c.75-.57 1.64-1.26 2.49-1.88.79-.54 1.53-1 2.27-1.39.68-.36 1.38-.67 2.13-.95.32-.12.71-.24 1.21-.38.38-.11.76-.21 1.14-.3 1.17-.24 2.43-.42 3.85-.53 3.45-.24 6.99-.27 10.52-.11 1.25.08 2.34.2 3.34.37 1.27.26 2.56.6 3.95 1.04 1.21.42 2.49.94 4.03 1.66 2.53 1.21 4.83 2.43 7.04 3.74 1.69 1 3.2 1.87 4.6 2.68l1.01.57c1.51.85 3.28 1.86 4.89 2.89 2.07 1.36 4.32 2.94 5.52 3.79l.14.1c1.68 1.17 3.32 2.45 4.91 3.68.04.03.38.29.38.29l.81.63c.62.48 1.24.96 1.86 1.45l.19.15s.1.08.1.08c1.76 1.38 3.58 2.81 5.48 4.13 1.43.99 2.95 1.97 4.06 2.69.03.02.09.06.09.06l.09.06.86.55c1.09.7 2.18 1.39 3.28 2.09l1.02.65c1.35.86 2.49 1.63 3.59 2.41 1.05.74 2.16 1.59 3.5 2.68 1.2 1.03 2.38 2.15 3.49 3.34.84.94 1.67 1.99 2.54 3.2 1.03 1.51 1.97 3.05 3.02 4.76.87 1.44 1.77 2.94 2.56 4.27l.05.08c.06.09.13.21.13.21l.15.26.31.52c.99 1.67 1.91 3.39 2.79 5.05.03.06.25.48.25.48l.16.3.28.52c1.2 2.24 2.5 4.63 3.89 6.87 1.26 2.05 2.78 3.96 4.09 5.55 1.56 1.89 2.94 3.49 4.23 4.87 2.2 2.38 4.51 4.76 6.2 6.5l.18.19.14.14c1.56 1.62 3.45 3.57 5.22 5.46.9.99 1.76 1.96 2.56 2.88 1.13 1.33 2.23 2.73 3.19 3.97.06.08.13.16.13.16 1 1.29 2.14 2.75 3.33 4.22.74.92 1.51 1.86 2.19 2.68l.94 1.14c1.06 1.29 2.13 2.57 3.19 3.85l.31.37c.6.72 1.19 1.43 1.78 2.15 1.2 1.46 2.45 3.1 3.92 5.17.45.67.81 1.22 1.13 1.73.21.35.42.74.74 1.35l.06.12c.09.17.16.31.23.44l1.43 2.85c.15.29.34.62.62.88.39.38.93.58 1.55.6.27.0.52-.02.74-.09.16-.05.31-.11.46-.2.6-.37.93-1.09.83-1.78-.02-.1-.02-.14-.03-.17-.62-3.03-1.07-6.37-1.38-10.2-.03-.36-.05-.75-.08-1.14-.09-1.58-.15-3.2-.17-4.81-.02-1.97.05-4.01.12-5.8.0-.12.0-.22.0-.22v-.18c.05-1.13.09-2.15.1-3.2.07-3.1-.15-6.51-.7-10.71-.26-1.93-.59-3.81-.99-5.59-.69-3.01-1.4-5.61-2.19-7.92-.6-1.74-1.3-3.35-2.08-4.8-.49-.92-1-1.8-1.55-2.69-.32-.53-.67-1.04-1-1.52l-.31-.46c-1.86-2.76-3.88-5.7-6.09-8.57-2.49-3.25-4.51-5.66-6.57-7.83-2.45-2.6-5.34-4.67-8.59-6.92-1.72-1.18-3.4-2.27-4.95-3.27-1.98-1.27-3.76-2.47-5.45-3.68-.9-.64-1.78-1.29-2.67-1.93l-.18-.13-.11-.08c-.07-.05-.33-.24-.33-.24-.95-.69-1.88-1.37-2.78-2-1.99-1.4-4.09-2.74-6.07-3.99-1.88-1.18-3.79-2.34-5.85-3.55-1.21-.7-2.47-1.39-3.69-2.05l-.1-.05-.1-.05-.09-.05-.09-.05-.1-.06c-.51-.27-1-.54-1.49-.81-2.01-1.09-4.06-2.31-5.71-3.29-2.23-1.32-4.22-2.43-6.61-3.75l-1.38-.76-.24-.13c-1.42-.78-2.84-1.56-4.26-2.33-1.32-.71-2.7-1.44-3.92-2.09l-.37-.19-.29-.15c-.65-.34-1.28-.67-1.91-1.02-1.92-1.02-3.81-2.08-5.47-3.01l-.08-.05c-.9-.51-1.67-.93-2.44-1.36-1.39-.77-2.71-1.43-3.93-2.04-1.35-.66-2.72-1.22-4.01-1.73-2.24-.88-4.58-1.45-6.79-1.96-2.06-.48-4.25-.93-5.71-1.22-.07-.01-.27-.05-.27-.05-.77-.16-1.53-.31-2.28-.47l-1.1-.23-.56-.12s-.14-.03-.14-.03l-.09-.02c-1.62-.35-3.21-.69-4.81-.96-2.37-.42-4.6-.72-6.82-.92-1.86-.18-3.75-.19-5.63-.06-1.57.11-3.08.43-4.22.69-.47.11-.8.2-1.07.28-1.26.36-2.51.84-3.73 1.44-1.4.66-2.68 1.59-3.87 2.48-1.59 1.18-3.07 2.54-4.31 3.7.05-.06.15-.23.15-.23l.21-.37c.28-.49.57-.98.85-1.47l.17-.3.16-.27c.03-.06.08-.14.08-.14l.06-.1c.7-1.19 1.62-2.78 2.43-4.25.2-.37.4-.73.6-1.1.75-.85 1.4-1.53 2.03-2.13.33-.29.72-.6 1.17-.93.5-.34 1.02-.65 1.54-.92.87-.45 1.79-.85 2.71-1.19.47-.17 1.04-.35 1.74-.55 1.56-.45 3.03-.77 4.44-1.08 2.14-.46 4.67-.99 7.29-1.41 2.36-.39 4.68-.75 7.02-.95 1.14-.08 2.23-.1 3.34-.05 1.4.09 2.88.27 4.53.56 1.14.24 2.2.51 3.24.83 1.1.39 2.19.84 3.32 1.37 1.96.96 3.94 2.07 5.89 3.3 1.72 1.12 3.39 2.29 5 3.43.04.03.21.15.21.15 1.1.77 2.53 1.78 3.9 2.7 1.34.89 2.75 1.74 3.89 2.42l.23.14c2.38 1.43 4.77 2.82 7.1 4.15 3.48 1.98 7.26 3.64 11.22 4.92.75.26 1.58.52 2.46.77 1.25.39 2.64.74 3.47.95.05.01.42.11.42.11.58.15 1.17.3 1.75.44l.28.07c.66.16 1.32.33 1.98.5 1.34.35 2.6.74 4.11 1.23 1.79.63 3.55 1.29 5.35 1.97 2.33.88 4.65 1.66 6.64 2.33 2.02.69 3.9 1.29 5.74 1.86.95.29 1.96.57 2.99.82 1.09.29 2.24.53 3.33.7.99.18 2.03.32 3.06.43.79.1 1.75.18 2.92.23 1.61.07 3.33.13 5.09.04.71-.05 1.39-.16 2.02-.34.99-.28 1.84-.97 2.27-1.83.1-.21.19-.43.28-.73.04-.13.07-.26.1-.4.01-.07.07-.32.07-.32.07-.27.07-.57.06-.8.0-.13-.01-.24-.04-.33l-.02-.11c-.04-.16-.06-.28-.12-.38-.07-.14-.13-.28-.19-.42-.06-.14-.1-.22-.14-.31-.23-.47-.49-.94-.74-1.4l-.04-.08c-.77-1.39-1.68-2.67-2.39-3.63-1.24-1.7-2.57-3.27-3.85-4.78l-.14-.16c-1.4-1.67-2.95-3.41-5-5.65-1.51-1.65-3.06-3.16-4.24-4.29-1.71-1.64-3.27-3.05-4.78-4.3-1.18-.98-2.4-1.94-3.62-2.86-1.05-.78-2.18-1.54-3.16-2.22-.23-.16-1.07-.73-1.07-.73-1.11-.75-2.15-1.45-3.18-2.14-.26-.12-.52-.24-.78-.36-.66-.3-1.32-.6-1.98-.89-.92-.41-1.83-.81-2.76-1.18-.31-.06-.61-.13-.91-.23-.29-.09-.57-.19-.86-.28-.29-.1-.58-.2-.86-.32-.24-.1-.48-.22-.72-.33-.82-.25-1.64-.5-2.45-.75-.29-.12-.59-.24-.89-.35-1.17-.45-2.39-.78-3.61-1.1-1.16-.3-2.33-.53-3.49-.77-.32-.08-.65-.15-.97-.21-.18-.03-.35-.07-.53-.1-1.07-.23-2.14-.46-3.2-.72-1.23-.33-2.43-.76-3.65-1.13-1.16-.36-2.35-.63-3.53-.9-2.19-.5-4.39-.99-6.57-1.53-.59-.15-1.17-.3-1.76-.45-.69-.17-1.38-.32-2.07-.48-.56-.14-1.12-.3-1.68-.44-.71-.18-1.43-.3-2.15-.45-1.41-.31-2.83-.51-4.25-.75-2.4-.4-4.79-.79-7.21-1.08-2.44-.29-4.89-.53-7.34-.53-2.7.0-5.36.44-8.02.88-.67.11-1.35.21-2.02.32-.66.11-1.3.26-1.95.42-.6.15-1.19.31-1.8.43-.62.12-1.25.24-1.87.36-.55.11-1.1.25-1.65.38-.5.12-1 .24-1.5.39-.96.28-1.88.67-2.77 1.13-.81.41-1.58.89-2.34 1.39-.93.61-1.89 1.2-2.75 1.89-.94.75-1.73 1.68-2.62 2.49-.5.46-1 .91-1.47 1.4-.5.51-.97 1.05-1.46 1.58-.71.72-1.47 1.37-2.19 2.08-.68.67-1.27 1.43-1.91 2.14-.59.65-1.15 1.33-1.7 2.01-.61.76-1.2 1.54-1.86 2.27-.51.57-1.01 1.14-1.48 1.75-.3.39-.59.79-.88 1.17-.39.51-.73 1.04-1.06 1.59-.59 1-1.17 2-1.74 3.01-.29.5-.56 1.01-.84 1.52l-.02-.12-.03-.2c.42-2.04.92-4.12 1.41-6.06.3-.58.6-1.15.91-1.72.41-.74.84-1.47 1.23-2.23.05-.09.09-.18.14-.27.62-.72 1.25-1.46 1.87-2.2 1.27-1.52 2.52-3.26 3.85-5.34.8-1.26 1.51-2.56 2.2-3.82.06-.1.51-.93.51-.93.65-1.19 1.52-2.76 2.48-4.27.71-1.1 1.53-2.19 2.49-3.35 1.08-1.27 2.02-2.27 2.95-3.16.46-.4.88-.76 1.3-1.08.39-.26.76-.49 1.14-.69.07-.04.15-.07.22-.1.11-.09.23-.17.34-.25.44-.28.93-.51 1.42-.68.58-.2 1.19-.28 1.77-.44.42-.12.83-.24 1.26-.33.3-.06.6-.1.9-.14.39-.05.79-.08 1.18-.14.3-.04.59-.08.89-.11.34-.03.69.0 1.03.0.43.0.85-.05 1.28-.06.17.0.35.0.52.0.31-.06.61-.11.92-.14.79-.09 1.58-.17 2.37-.22.66-.05 1.31-.1 1.97-.06.49.03.98.09 1.47.13.44.04.89.08 1.32.15l5.51.66z" fill="#616034"/></g></g></g></g></svg>