<svg id="_лой_2" xmlns="http://www.w3.org/2000/svg" width="1080" height="811.88" viewBox="0 0 1080 811.88"><g id="Autumn03_588155734"><g id="Autumn03_588155734-2"><path d="M12.79 541.03c-.21 1.36-.42 2.72-.63 4.08l-5.41 34.84c-4.6 29.6-22.96 114.79 30.82 111.5 138.43-8.46 277.31-9.79 415.89-3.99 3.46.15 6.11 3.03 5.96 6.42-.79 17.46 4.47 27.19 21.43 33.41 24.27 8.9 50.57 13.66 76.37 15.5 4.34.31 8.69.52 13.04.65 3.92.11 7.82.58 11.5-.79 6.54-2.42 11.21-6.07 14.6-12.18 5.56-10.06-2.63-14.98 7.49-23.37 3.41-2.83 7.89-4.14 12.33-3.63 76.48 8.83 152.93 17.91 229.4 26.82 63.02 7.34 129.73 20.97 194.1 24.37 17.23.91 31.57-12.81 31.09-29.67-2.2-76.8-1.69-273.99-1.17-295.89 1.33-55.64 3.93-111.26 8.23-166.76 3.72-47.99 7.78-96.59-35.08-130.36-29.41-23.17-70.1-25.43-107.86-26.57-132.45-3.99-264.97-6.7-397.48-5.74-69.03.5-136.32-.54-203.8-16.32-45.66-10.68-94.12-8.2-141.14-15.42-24.97-3.84-72.3-15.28-94.16 4.06-8.36 7.39-6.95 19.4-8.34 29.6-1.85 13.55-3.78 27.09-5.78 40.62-4.01 27.06-8.34 54.07-12.99 81.02-9.29 53.95-20.48 107.56-31.42 161.21-10.59 51.9-18.82 104.13-26.98 156.6z" fill="#b77439"/><path d="M1054.03 246.86c-1.59 69.48-3.19 138.98-4.78 208.48-1.13 49.34-1.06 98.66-1.7 148.04-.34 25.32-.67 50.61-1 75.93-.19 14.73-.61 30.71-1.76 46.06-.87 11.46-13 18.77-23.83 14.28-18.63-7.69-37.48-18.96-55.36-24.06-70.45-20.11-143.05-34.21-216.44-37.92-37.52-1.91-75.23-1.06-112.56 3.24-28.41 3.28-57.65 13.96-85.93 18.82-.94.17-1.86.22-2.77.23-1.87.64-3.85.98-5.87.95-.74.0-1.49-.04-2.23-.17-.96-.12-1.91-.32-2.87-.63-2.9-.9-5.8-1.86-8.69-2.87-3.28-1.14-6.55-2.34-9.81-3.59-21.28-8.11-42.64-17.94-64.13-23.31-36.42-9.1-73.67-14.81-111.12-17.77-73.24-5.81-147.12-1.24-219.67 9.58-18.41 2.76-38.63 11.48-58.13 16.69-11.35 3.04-22.39-5.77-21.68-17.25.93-15.35 2.69-31.23 4.49-45.86 3.1-25.13 6.21-50.27 9.31-75.4 6.03-49.02 12.8-97.91 18.36-146.95 7.84-69.09 15.68-138.19 23.52-207.27 7.1-62.68 1.21-125.33 63.61-161.05C223.91-9.82 314.75-1.84 381.76 10.61c47 8.73 92.75 23.96 135.33 45.26 19.89 9.94 43.73 20.25 59.61 35.71 2.73 2.62 5.21 5.4 7.39 8.36l.03-.03c1.99-2.17 4.18-4.18 6.49-6.09 9.43-7.79 21.28-13.57 33.65-18.41 11.18-4.4 22.79-8.02 33.38-11.7 45.09-15.61 92.51-24.78 140.27-27.36 68.11-3.68 159.23.18 214.91 42.64 56.99 43.47 42.67 104.8 41.22 167.86z" fill="#efefed"/><g><g><path d="M694.31 506.79h0c-2.35 3.14-1.21 8.07 2.1 10.23 3.3 2.17 8.08 1.54 11-1.1 10.46-9.48-6.35-18.12-13.09-9.14z" fill="#2e3761"/><path d="M693.31 503.38c-3.25 4.34-2.99 11.25.38 15.48 3.4 4.26 9.93 4.33 14.04 1.03 6.89-5.52 6.98-17.8-2.67-20.39-4.42-1.18-8.95.32-11.75 3.88-1.14 1.45-1.27 3.67-.76 5.38.32 1.06 1.59 2.9 2.75 1.43 1.98-2.52 4.93-3.59 8.14-3.15 1.33.18 2.66.69 3.75 1.46.5.35.88.76 1.27 1.22.59.68-.32-.14.29.49-.21-.22.0.33-.02-.19.0-.13.0-.26.0-.39.0.46.0.45.0-.02.17-.06.11-.14-.05.07-.46.62-.76 1.26-1.31 1.85-1.46 1.6-3.38 2.64-5.59 2.82-2.13.17-4.49-.38-5.87-2.09-.59-.74-1.08-1.45-.62-2.08 1.11-1.49 1.28-3.64.76-5.38-.31-1.03-1.62-2.94-2.75-1.43z" fill="#2e3761"/></g><path d="M765.52 544.04h0c3.63-1.11 5.61-5.53 4.33-9.03-1.28-3.49-5.32-5.67-9.09-5.25-13.54 1.49-5.64 17.45 4.76 14.28z" fill="#2e3761"/><path d="M647.05 306.87c5.64-13.52 20.89-22.64 35.67-21.33 1.06.09 2.12.24 3.17.45 14.02 2.71 23.54 14.82 26.77 28.33 21.96.66 43.86 2.78 65.57 6.2 1 .16 2.01.32 3.01.48-5.2-8.56-10.27-17.2-15.18-25.93-4.15-7.37-8.19-14.79-12.12-22.27-7.47.41-15.18-1.98-21.02-6.63-10.21-8.12-14.42-22.92-9.45-34.83 4.64-11.11 17.17-18.61 29.32-17.53.87.08 1.74.2 2.61.37 21.41 4.14 30.03 34.91 16.53 50.28 3.44 6.51 6.97 12.99 10.57 19.42 1.41-8.44 2.85-16.88 4.34-25.32.82-4.68 1.66-9.35 2.51-14.03.08-.46.24-.92.46-1.38-1.55-1.27-2.98-2.68-4.27-4.23-8.69-10.51-9.43-26.66-1.74-37.77.55-.8 1.15-1.57 1.79-2.31 18.14-21.05 62.43-6.9 61.37 21.6-.46 12.35-9.42 23.7-21.15 28.33-5.52 2.17-11.59 2.83-17.49 2.11-2.93 16.21-5.72 32.45-8.37 48.7-.6 3.71-1.2 7.43-1.79 11.15 6.37 10.5 12.96 20.87 19.76 31.11 3.39 5.09 6.83 10.15 10.32 15.18 1.45-1.63 2.92-3.24 4.41-4.83 3.68-3.92 7.5-7.71 11.39-11.44v-.03c2.62-16.62 5.39-33.21 8.3-49.78.06-.33.12-.66.18-.99-10.42-4.2-17.87-14.98-17.35-26 .5-10.66 8.73-20.58 19.24-23.21.75-.19 1.52-.34 2.29-.45 22.01-3.15 40.6 27.9 24.68 44.19-2.46 2.52-5.49 4.4-8.79 5.65-1.73 9.68-3.4 19.37-5.03 29.06 8.48-7.69 16.85-15.48 24.63-23.85.23-.24.45-.49.67-.73-2.73-5.1-4.18-10.81-3.91-16.58.64-13.51 11.06-26.08 24.37-29.41.96-.24 1.93-.43 2.91-.57 27.89-3.99 51.44 35.35 31.28 56-8.74 8.95-23.16 11.64-35.09 7.49-2.06-.72-4.03-1.63-5.9-2.73-17.18 18.54-37.27 34.26-55.06 52.23-5.17 5.22-10.13 10.65-14.75 16.35-2.97 3.78-5.77 7.7-7.86 12.01-1 2.56-1.67 5.19-2.14 7.89-.59 4.81-.79 9.68-1.07 14.51-.23 4.03-.44 8.06-.64 12.09 10.43-7.26 20.81-14.59 31.13-21.99-2.83-9.13-1.62-19.51 3.83-27.38.55-.8 1.15-1.57 1.79-2.31 18.14-21.05 62.43-6.9 61.37 21.6-.46 12.35-9.42 23.7-21.15 28.33-11.24 4.43-24.79 2.57-34.45-4.41-10.29 7.38-20.64 14.7-31.03 21.94-3.96 2.76-7.93 5.51-11.91 8.26-.17.12-.36.23-.55.33-.13 4.13-.25 8.27-.35 12.41-.54 21.68-.69 43.36-.71 65.04.0 12.25.02 24.5.06 36.76.01 5.09-4.67 9.94-10.01 9.67-5.43-.27-9.88-4.33-9.9-9.78-.06-20.8-.12-41.61.04-62.41.08-10.43.21-20.85.42-31.27-.01-.02-.03-.04-.05-.06-5.29-7.88-10.86-15.59-16.68-23.11-7.17-9.12-14.72-17.95-22.63-26.47-12.91 3.24-27.74-1-36.13-11.17-8.69-10.51-9.43-26.66-1.74-37.77.55-.8 1.15-1.57 1.79-2.31 18.14-21.05 62.43-6.9 61.37 21.6-.27 7.1-3.34 13.87-8.14 19.22 8.11 8.91 15.83 18.17 23.16 27.71.39-9.97.88-19.94 1.5-29.9.35-5.69.73-11.43 2-17 1.15-5.08 3.39-9.99 6.15-14.42.4-.64.81-1.27 1.23-1.9-.03-.04-.06-.08-.08-.11-6.89-9.75-13.59-19.64-20.09-29.65-10.28-2.11-20.64-3.89-31.04-5.34-17.05-2.28-34.22-3.69-51.42-4.21-2.07 8.5-7.16 15.99-15.78 20.24-12.2 6.02-27.87 3.67-38.47-4.76-12.42-9.88-17.55-27.88-11.5-42.38z" fill="#8c5923"/></g><path d="M279.12 406.42c-19.21 26.5-45.31 57.48-4.9 81.76 19.18 11.53 43.62 14.92 65.29 8.86 27.58-7.71 38.83-28.01 37.27-55.68-1.59-28.29-10.18-53.48-8.07-82.62 1.58-21.79 11.35-60.58-9.45-75.71-17.43-12.67-38.99-5.72-45.61 14.66-11.38 35.02-10 74.16-32.14 105.4-.78 1.1-1.58 2.21-2.39 3.33z" fill="#cdcac7"/><path d="M275.82 223.59c16.57-8.2 34.77-13.23 53.31-14.4 29.34-1.84 59.1 6.04 83.81 21.51 27.93 17.49 38.58 43.13 45.98 73.94 3.12 12.99 4.27 29.51-7.18 36.78-4.41 2.8-9.86 3.49-15.11 3.71-34.86 1.44-67.99-14.92-102.75-17.81-29.53-2.46-59.12 4.89-88.73 3.64-9.92-.42-20.41-2.06-27.95-8.38-19.25-16.14 9.27-60.36 22.28-73.2 10.58-10.43 22.92-19.15 36.34-25.8z" fill="#cc8332"/><g><path d="M369.68 252.38h0c-.57.89-.15 2.19.78 2.71.93.52 2.21.25 2.94-.52 2.61-2.76-2.09-4.75-3.71-2.19z" fill="#6d4127"/><path d="M397.85 314.59h0c-.27-2.32-2.83-4.05-5.2-3.69-2.36.36-4.22 2.54-4.4 4.86-.67 8.36 10.37 5.48 9.6-1.17z" fill="#6d4127"/><path d="M341.37 308.05h0c-.09-.8-.98-1.4-1.79-1.27-.82.12-1.46.88-1.52 1.68-.23 2.88 3.58 1.89 3.31-.41z" fill="#6d4127"/><path d="M434.92 289.06h0c.43-2.19-1.41-4.48-3.67-4.81-2.26-.33-4.59 1.14-5.43 3.21-3.04 7.44 7.86 7.88 9.1 1.59z" fill="#6d4127"/><path d="M389.69 276.29h0c-.64-.45-1.64-.21-2.07.43-.43.64-.29 1.57.25 2.13 1.95 2 3.66-1.27 1.82-2.56z" fill="#6d4127"/><path d="M410.04 273.85h0c.61-.03 1.09-.63 1.04-1.22-.05-.59-.59-1.08-1.19-1.17-2.15-.3-1.59 2.48.15 2.39z" fill="#6d4127"/><path d="M275.85 309.73h0c-.42-.96-1.75-1.38-2.72-.93-.97.45-1.48 1.62-1.25 2.65.82 3.68 5.18 1.05 3.97-1.71z" fill="#6d4127"/><path d="M238.7 273.19h0c-1.01.36-1.51 1.64-1.1 2.6.41.97 1.58 1.53 2.64 1.36 3.8-.6 1.35-5-1.54-3.97z" fill="#6d4127"/><path d="M241.13 296.04h0c2.37.28 4.68-1.76 4.87-4.09.19-2.33-1.55-4.6-3.83-5.31-8.17-2.57-7.86 8.59-1.05 9.4z" fill="#6d4127"/><path d="M302.54 271.16h0c1.25-1.99.32-4.89-1.76-6.04-2.09-1.14-4.92-.54-6.54 1.18-5.8 6.18 4.71 10.56 8.3 4.86z" fill="#6d4127"/><path d="M371.04 293.39h0c.43-.69.11-1.69-.61-2.08-.72-.39-1.7-.19-2.26.41-2 2.13 1.62 3.65 2.86 1.68z" fill="#6d4127"/><path d="M337.17 290.35h0c1.72-1.47 1.72-4.37.15-5.99-1.57-1.62-4.33-1.86-6.31-.74-7.08 4.03 1.22 10.94 6.16 6.73z" fill="#6d4127"/><path d="M309.6 253.06h0c-.22-.74-1.16-1.16-1.9-.91-.75.25-1.22 1.06-1.15 1.83.27 2.75 3.69 1.2 3.05-.92z" fill="#6d4127"/><path d="M327.17 263.39h0c.5.34 1.26.16 1.59-.34.33-.5.22-1.21-.2-1.64-1.51-1.53-2.81.99-1.39 1.97z" fill="#6d4127"/><path d="M334.29 249.34h0c2.1 1.12 5.02.06 6.07-2.04 1.06-2.1.29-4.83-1.55-6.32-6.62-5.33-10.55 5.16-4.52 8.36z" fill="#6d4127"/></g><path d="M624.25 75.42c-.18 3.91-.65 7.81-1.12 11.68-9.18 75.78-18.13 151.58-27.01 227.4-.77 6.53-1.52 13.06-2.29 19.61 3.71 24.32-6.78 57.88-9.66 82.45-3.37 28.73-6.73 57.47-10.08 86.19-6.33 54.02-11.8 106.51-25.53 158.85-3.38 12.87-7.22 25.99-8.77 39.14-1.01 8.54-1.06 17.09.63 25.57 5.14 25.86 25.25 46 44.43 64.52-11.16 4.03-24.29 2.31-33.97-4.43-4.16 8.49-8.29 16.99-12.43 25.48-10.62-21.05-21.42-42.7-23.7-66.07-1.39-14.25.47-28.58 2.39-42.78.42-3.12.84-6.25 1.28-9.38 14.74-106.06 37.8-210.36 50.9-316.77 11.3-91.85 16.26-184.46 14.79-276.96 1.99-2.17 4.18-4.18 6.49-6.09 9.43-7.79 21.28-13.57 33.65-18.41z" fill="#607147"/><g><path d="M318.83 471.31h0c-1.32-1.47-3.92-1.45-5.36-.1-1.44 1.35-1.65 3.71-.64 5.39 3.63 6.04 9.79-1.08 6-5.29z" fill="#2e3761"/><path d="M279.88 490.84h0c1.1 4.22 6.28 6.76 10.54 5.51 4.26-1.25 7.12-5.73 6.85-10.07-.95-15.58-20.56-7.53-17.4 4.56z" fill="#2e3761"/><path d="M302.22 551.42h0c4.38.78 8.91-2.75 9.53-7.06.62-4.31-2.35-8.71-6.5-10.29-14.88-5.67-15.59 15.1-3.03 17.35z" fill="#2e3761"/><path d="M192.69 496.8h0c.7 2.22 3.53 3.45 5.78 2.67 2.24-.78 3.64-3.24 3.39-5.55-.93-8.29-11.18-3.49-9.16 2.88z" fill="#2e3761"/><path d="M244.77 494.14h0c.91-5.11-3.45-10.34-8.71-11.02-5.26-.68-10.6 2.83-12.48 7.68-6.75 17.38 18.58 17.98 21.18 3.34z" fill="#2e3761"/><path d="M250.74 417.66h0c-4.37-2.94-11.05-1.26-13.88 3.13-2.83 4.38-1.79 10.59 1.93 14.28 13.34 13.25 24.48-8.98 11.95-17.41z" fill="#2e3761"/></g></g></g></svg>