<svg id="_лой_2" xmlns="http://www.w3.org/2000/svg" width="982.72" height="1080" viewBox="0 0 982.72 1080"><g id="Leaves_set07_3555721"><g id="Leaves_set07_3555721-2"><path d="M295.97 286.12s-1.77-10.52-10.75-19.48C276.23 257.68 196.33 85.11 180.48.06c0 0-16.41-1.61-27.92 11.65.0.0 10.76 19.51 17.89 33.43 7.15 13.94 109.58 227.9 113.36 243.23 3.79 15.35 13.94 8.3 12.16-2.25z" fill="#e75b49"/><path d="M751.14 1074.94c-4.85-2.2-48.01-49.06-59.1-59.94-11.1-10.87-10.67 5.85-15.02 4.85-4.35-1.01-15.78-31.49-31.61-47.44-15.83-15.95-13.39 5.6-17.24 5.78-3.85.2-5.25-6.27-24.22-26.57-18.94-20.3-23.54-56.45-41.8-53.06-18.25 3.39-29.78 44.87-39.78 61.74-10 16.87-15.89 68.71-21.36 68.15-5.48-.53-43.95-54.99-48.88-82.54-4.95-27.56 1.47-37.29-2.38-37.1-3.86.2-20.2 11.26-20.2 11.26.0.0-.81-49.03-.24-63.38.56-14.34.35-36.83-3.49-36.63-3.84.2-16.97 12.73-16.97 12.73.0.0-8.92-24.48-5.01-40.23 3.93-15.74.09-43.76.09-43.76l-12.45-4.68s-3.11-4.34-5.48-41.44c-2.39-37.08-13.68-139.55-44.23-131.04-30.53 8.52-31.54 34.35-31.13 79.31.41 44.96 16.67 134.08 13.01 156.76-3.64 22.68-4.2 37.02-6.83 33.88-2.61-3.14-19.46-21.49-25.54-20.36-6.09 1.13-21.06 18.67-17.77 32.81 3.28 14.15 3.1 32.57 3.1 32.57.0.0-16.96-15.51-18.8-10.49-1.85 5 11.7 37.41 8.4 51.49-3.31 14.07-27.19 7.13-27.19 7.13.0.0-.52 27.01.02 40.88.54 13.88-13.34 18.26-14.08 22.81-.72 4.53 8.1 72.78 1.41 75.59-6.69 2.79-2.43 19.34-13-18.55-10.59-37.91-14-90.08-18.75-95.15-4.72-5.08-15.28-2.09-16.06-10.22-.78-8.13-1.49-31.84-.19-50.69 1.3-18.89-10.82-3.94-13.44-7.09-2.61-3.14-8.51-48.63-9.61-76.37-1.1-27.76 3.44-45.17-1.69-54.32-5.12-9.14-44.71 5.98-47.33 2.84-2.61-3.15-7.84-37.64-5.2-62.7 2.64-25.09 15.53-31.89 11.63-44.37-3.9-12.46-15.06-7.81-16.56-11.41-1.51-3.61 2.92-18.14 18-38.54 15.08-20.42 66.06-74.13 61.51-97.63-4.57-23.47-100.46 13.72-126.06 8.91-25.61-4.83-47.05 9.76-49.46.91-2.39-8.89 22.63-30.62 28.43-38.68 5.82-8.08-24.03-16.76-13.37-22.64 10.67-5.86 70.78-40.83 67.05-43.49-3.73-2.68-20.68-18.15-16.72-21.22 3.96-3.07 69.15-13.35 65.26-25.84-3.9-12.47-32.54-24.5-32.54-24.5.0.0 47.19-40.87 61.6-44.06 14.39-3.19 28.51-13.31 35.12-13.25 6.56.09 46.14-15.03 69.68.54.0.0 32.53-3.72 37.75-38.33 4.07-27.07 97.21-84.33 114.57-92.98 17.36-8.66 46-24.83 46.28-17.91.26 6.96-4.37 27.22 4.94 27.56 9.32.35 49.08-33.17 59.02-34.49 9.94-1.33 12.72 11.6 12.72 11.6 10.81 3.96 82.94-14.87 97.98-7.05 15.07 7.81-3.89 15.73-23.93 36.8-20.05 21.06-68.31 75.06-68.39 90.61-.06 15.54 34.25 22.37 48.14 17.97 13.9-4.39 92.11-24.33 107.28-19.4 15.19 4.96-11.24 20.21-11.24 20.21.0.0 37.63-7.23 56.43 3.26 18.79 10.47 60.56 50.87 60.56 50.87.0.0-40.64 28.26-42.71 39-2.07 10.73 77.7 47.95 93.44 66.77 15.72 18.81-2.99 33.67-2.99 33.67.0.0 37.63 33.67 44.89 44.74 7.25 11.07 3.84 28 3.84 28 6.58.08 90.65 53.84 78.23 61.85-12.38 7.98-108.94-34.9-124.23-36.99-15.3-2.07-5.15 19.07-8.88 16.41-3.75-2.66-47.31-25.4-74.49-46.49-27.15-21.1-19.81 15.33-19.81 15.33.0.0-107.18-24.37-138.08-48.13-30.89-23.79-77.77-32.41-83.79-18.62-6.05 13.8 19.05 45.64 51.57 70.15 32.5 24.5 107.75 79.13 111.76 88.73 4.01 9.6-12.73 16.6-12.73 16.6.0.0 63.31 51.16 74.88 63.24 11.61 12.08-10.94 27.15-10.94 27.15.0.0 49.12 48.59 49.56 65.35.44 16.72-10.6 18.54-10.6 18.54.0.0-43.74-32.54-53.68-31.21-9.93 1.34-42.68-17.44-49.22-4.85-6.52 12.62 29.46 32.85 41.43 49.01 12 16.14 5.58 25.88 7.09 29.48 1.48 3.59 17.45 16.69 12.35 20.22-5.06 3.53-29.08-.57-30.03 9.71-.94 10.28 22.64 38.5 24.2 54.78 1.54 16.28-13.41 5.6-15.87 12.26-2.46 6.67 46.76 108.84 30.69 98.62l-1.51-3.62z" fill="#e75b49"/><path d="M163.93 671.75c20.27-19.33 44.58-32.4 56.31-39.09l2.27-1.29-.3 2.59c-.3 2.66-.59 5.3-.87 7.95-7.76 85.49-20.9 170.32-19.57 235.24h0v.02c.04 21.62.42 40.8.91 56.79-.02-15.56.08-34.13.46-55-.09-63.9 14.19-147.19 22.81-231.8h0v-.02c.54-4.5 1.1-8.99 1.65-13.48l.52-4.33 1.97 3.89c2.75 5.42 7.1 14.15 12.12 25.04 7.47 16.17 16.44 37.08 23.91 58.95 11.32 30.75 21.5 61.85 27.39 79.15-1-4.32-2.23-9.45-3.7-15.22-4.47-17.66-10.98-41.09-18.51-64.42v-.02h0c-6.51-21.89-15.07-43.45-22.81-60.2-3.64-7.87-7.09-14.68-10.06-19.96-2.95-5.27-5.47-9.04-7.04-10.68-.36-.38-.63-.59-.8-.71l-2.04.89.3-2.32c5.21-41.21 10.98-82.03 16.83-120.02l.51-3.32 1.89 2.78c5.97 8.79 18.1 26.3 28.19 48.13 3.2 6.94 6.2 14.31 8.73 21.98 10.15 27.3 15.58 55.76 18.35 71.7-.23-4.02-.61-8.79-1.21-14.18-1.76-16.01-5.35-37.18-11.96-58.04v-.05c-2.84-10.25-6.64-20.14-10.84-29.22-9.07-19.66-20.01-35.61-26.67-43.58-2.21-2.65-3.99-4.43-4.88-5.05l-.66-.47.13-.81c7.86-50.26 15.82-94.93 22.7-128.06l.91-4.41 1.62 4.2c6.18 16.04 17 45.82 24.63 77.22 8.16 30.37 15.28 60.98 19.45 77.99-.56-4.23-1.3-9.26-2.2-14.91-2.73-17.23-6.89-40.13-12.03-63.04h0v-.03c-6.46-32.38-17.43-64.58-24.93-80.83-1.71-3.69-3.24-6.56-4.44-8.36l-.32-.47.13-.55c3.82-17.3 13.68-33.98 21.61-44.78l1.13-1.53 1.04 1.58c20.68 31.18 68.43 107.1 116.95 191.89-1.43 2.82-5.22 10.69-6.17 13.43-2.28 6.58-4.92 15.87-7.3 27-4.76 22.25-8.47 51.87-6.19 82.11v.05c1.49 41.03 9.83 81.12 15.66 103.24-.97-5.43-2.07-11.89-3.19-19.15-3.46-22.37-7.07-52.22-7.29-82.38-2.46-53.55 12.25-103.45 16.14-116.85l1.14-2.56 1.29 2.27c24.23 42.38 50.44 88.38 76.88 134.86-1.89 3.41-6.13 11.83-7.79 15.18-3.78 7.64-8.35 18.71-12.05 32.63h0v.02c-8 28.33-12.45 67.71-12.87 107.03h0c-.51 35.91 1.99 71.69 4.99 99.97 1.38 13.06 2.88 24.5 4.22 33.64-.58-7.1-1.24-15.53-1.88-25.04-1.93-28.95-3.65-67.49-2.22-106.13h0c1.21-38.68 6.02-77.14 13.49-105.16 2.87-11.48 6.24-21.06 9.22-28.53 2.98-7.47 5.58-12.85 6.85-15.85l1.04-2.46 1.32 2.32c28.47 50.02 57.06 100.34 83.63 147.13l-1.21 4.88c-.17.29-.4.78-.65 1.41-.5 1.27-1.06 3.13-1.61 5.46-1.12 4.67-2.21 11.24-2.88 19.01-1.32 15.55-.88 35.96 4.61 55.93v.03l.02.04c5.08 22.95 13.58 44.62 20.29 59.13 1.26 2.72 2.44 5.17 3.54 7.35-1.26-3.48-2.72-7.6-4.28-12.23-4.89-14.49-10.78-33.96-14.31-54.07-7.65-33.64-2.46-65.96-.81-77.36l.51-3.55.12-.16.13.23h-.02l1.72 3.02c36.44 64.12 68.7 120.89 90.99 159.97-2.57-4.78-5.28-9.79-8.13-15.07-20.51-37.91-47.96-88.19-78.69-144.06l-1.47-2.67 2.96.75c12.49 3.16 37.89 10.39 59.98 28.71 20.55 15.38 37.83 34.83 47.31 45.93-2.62-4.02-6.09-8.99-10.3-14.42-8.5-11.01-19.99-24.01-33.43-35.28l-.03-.02-.03-.03c-19-17.95-43.04-26.92-57.87-30.17-4.92-1.09-8.85-1.52-11.09-1.48l-.82.02-.38-.71c-28.88-52.47-60.41-109.41-91.64-165.4l-1.11-1.98h2.27c8.5.05 23.15 1.02 41.42 7.94.0.0.0.0.0.0.0.0.0.0.02.01 29.02 10.27 64.93 32.55 98.45 58.16h0c30.73 23.4 59.66 49.18 82.1 70.21 10.38 9.72 19.36 18.41 26.5 25.41-5.61-6.19-12.49-13.58-20.43-21.77-21.82-22.53-51.5-51.08-83.73-77.01h0c-32.87-26.51-68.85-49.87-99.17-60.87h-.03c-22.35-8.81-40.79-8.6-49.37-7.34l-.9.13-.45-.8c-22.92-41.05-45.59-81.44-66.87-118.99l-1.6-2.82 3.11.89c6.38 1.82 18.55 4.83 33.23 9.64 14.7 4.8 31.94 11.41 48.59 20.45 18.98 9.41 36.68 21.12 50.43 31.08 6.57 4.75 12.25 9.11 16.71 12.62-3.53-3.46-7.98-7.58-13.18-12.06-13.18-11.38-31.13-25.05-50.94-36.04l-.02-.02h-.03c-17.14-10.37-35.43-17.93-51.01-23.05-15.56-5.13-28.46-7.82-34.66-8.48-.86-.1-3.51-.55-5.57-.89-49.5-87.29-93.02-169.12-111.69-199.52l-1.18-1.91 2.25-.11c16.88-.77 47.16 5.6 87.54 20.48l.91.34-.04.96c-.02.36.1 1.29.4 2.54.3 1.24.77 2.83 1.4 4.68 1.26 3.72 3.18 8.55 5.73 14.07 7.56 16.39 20.71 38.87 38.81 57.16l.03.03.02.02c19.68 22.05 42.09 40.46 55.67 50.43-2.97-2.68-6.42-5.84-10.22-9.4-12.04-11.28-27.5-26.56-41.5-43.49-20.17-22.14-33.58-48.12-40.84-63.82-1.6-3.46-2.89-6.41-3.89-8.72l-1.25-2.87 2.92 1.1c49.28 18.51 109.94 44.37 172.08 72.75l.54.25.18.58c1.19 3.92 3.35 9.59 6.44 16.28 7.56 16.38 20.7 38.84 38.8 57.15l.02.02.02.03c19.65 22.03 42.05 40.42 55.62 50.41-2.96-2.68-6.41-5.82-10.19-9.37-12.05-11.28-27.49-26.55-41.49-43.48-20.07-22.05-33.47-47.9-40.73-63.64-.28-.62-.57-1.22-.83-1.81l-1.48-3.24 3.23 1.49c48.23 22.2 97.01 45.78 141.79 68.51l1.08.54-.44 1.1h0v.18c-.01.16.0.41.04.71.08.61.26 1.46.57 2.47.6 2.03 1.62 4.75 3.07 7.88 5.55 12.01 17.25 30.24 34.44 42.31l.04.03.04.03c14.83 12.2 31.08 21.58 42.15 27.14-1.57-1.01-3.23-2.07-5.02-3.24-9.94-6.53-22.78-15.54-34.63-26.16-19.88-15.72-31.31-37.07-35.98-47.15l-.28-.61-1.58-3.46 3.39 1.73c42.44 21.67 80.96 42.47 111.56 60.47 8.94 5.26 17.19 10.27 24.68 15-4.18-2.8-8.57-5.69-13.23-8.68-31.76-20.36-74.4-44.76-122.11-70.2l-3.09-1.64 3.41-.82c10.5-2.5 29.27-7.58 48.69-9.22 12.29-1.89 24.17-.54 33.85 1.78 6.09 1.47 11.3 3.3 15.22 4.97-3.01-1.95-7-4.1-11.74-6.06-10.05-4.16-23.32-7.43-37.14-6.28h-.1c-12.53.12-24.81 1.94-34.88 4.16-10.06 2.21-17.95 4.85-21.56 6.52-.84.39-1.45.73-1.73.94l-.67.48-.73-.38c-43.79-23.15-91.42-46.99-138.57-69.31l-2.29-1.08 2.19-1.27c6.35-3.67 16.19-9.16 28.34-14.77 14.68-6.79 32.74-13.75 52.16-17.92 31.79-8.26 64.56-11.82 82.28-13.59.09.0.2-.02.3-.03-4.78-.07-10.67-.03-17.39.21-18 .65-41.85 2.72-65.44 7.7h-.07c-20.46 3.35-40 10.33-55.64 17.56-15.36 7.09-27.02 14.47-32.04 18.75l-.65.56-.78-.36c-64.37-30.29-127.36-57.45-177.99-75.88l-1.59-.58.94-1.41c9.6-14.32 37.83-55.36 80.84-80.43 12.07-7.86 24.69-14.55 36.88-20.18 17.56-8.11 34.27-14.05 47.31-18.17 3.95-1.25 7.55-2.33 10.74-3.26-3.46.67-7.39 1.49-11.71 2.51-16.42 3.89-38.39 10.53-60.8 20.88-8 3.69-16.08 7.87-23.96 12.56h-.02l-.04.03c-23.19 12.25-42.64 29.69-57.15 45.94-14.5 16.23-24.09 31.31-27.5 38.62l-.51 1.09-1.13-.4c-21.74-7.72-40.94-13.68-56.66-17.4-15.71-3.73-27.98-5.2-35.62-4.05l-.52.08-.19-.13c-.37.1-.78.22-1.27.37h-.04l-.04.02c-1 .25-1.87.56-2.64.92-.39.18-.76.37-1.11.58l-.05.03-.06.02c-1.56.73-3.14 1.64-4.43 2.66-1.3 1.02-4.14 4.04-4.14 4.04h-.01c-.12.06-.56.48-1.05 1.24-.54.82-1.16 2-1.82 3.47-1.31 2.93-2.79 7-4.33 11.78-3.09 9.58-6.45 22.01-9.46 34.26l-.23.92-.95.08c-4.2.35-12.1 2.07-22.16 5.24-10.08 3.17-22.37 7.77-35.56 13.86-18.11 8.37-37.9 19.54-55.98 33.64l-.03.02h-.02c-35.85 25.33-67.66 55.61-84.05 72.72-.11.12-.23.23-.35.36 4.92-4.33 11.04-9.67 18.11-15.66 18.01-15.24 42.13-34.61 68-51.76 18.08-13.16 37.32-23.65 54.87-31.76 23.53-10.87 44.03-17.47 54.6-20.46l2.16-.62-.51 2.19c-7.7 33.11-16.43 80.65-24.81 135.06l-.14.92-.92.18c-2.47.48-8.61 2.5-16.46 6.13-14.5 6.7-35.08 18.92-51.31 37.35l-.03.02-.02.02c-19.73 20.4-30.66 46.8-35.03 61.97-.05.19-.1.35-.15.54 1.56-3.69 3.54-8.08 6-12.92 6.92-13.66 17.47-30.78 32.22-44.71l.03-.02s0-.02.02-.03c22.06-22.97 50.75-35.64 62.46-41.45l2.28-1.13-.38 2.52c-6 39.81-11.78 82.97-16.78 126.6l-.1.84-.79.27c-1.64.56-3.94 1.5-6.74 2.78-12.88 5.94-36.04 19.43-54.7 39.05l-.02.02-.02.02c-11.61 11.27-21.08 24.29-28.07 35.76-4.55 7.47-8.03 14.26-10.38 19.48 2-3.2 4.49-7.02 7.43-11.28 8.15-11.75 19.72-26.56 33.94-39.04z" fill="#d7c963"/></g></g></svg>