<svg id="_Слой_2" xmlns="http://www.w3.org/2000/svg" width="1080" height="560.16" viewBox="0 0 1080 560.16"><g id="Halloween_ribbons03_13637364"><g id="Halloween_ribbons03_13637364-2"><path d="M1079.97 277.93l.03-.06h-.06c-48.21-9.94-61.02-42.1-67.73-74.64-9.16-44.48-24.29-100.26-71.51-81.34 11.78-28.86 11.71-60.21-7.78-88.15-32.8-47.02-99.15-36.76-138.8-17.89-41.45 19.73-112.42 55.45-254.14 57.13-141.71-1.68-212.7-37.4-254.14-57.13C246.22-3.02 179.87-13.29 147.06 33.74c-19.48 27.94-19.56 59.29-7.84 88.15-47.18-18.92-62.29 36.86-71.48 81.34C61.02 235.77 48.24 267.93.03 277.87H0l.03.06h0c48.21 9.95 60.99 42.11 67.72 74.59 9.35 45.24 24.78 102.1 73.89 80.37-14.05 30.37-15.3 63.89 5.43 93.56 32.81 46.97 99.15 36.75 138.8 17.89 41.43-19.78 112.42-55.46 254.14-57.13 141.72 1.67 212.68 37.35 254.14 57.13 39.64 18.86 105.99 29.08 138.8-17.89 20.7-29.68 19.43-63.19 5.43-93.56 49.1 21.73 64.53-35.13 73.85-80.37 6.7-32.48 19.51-64.64 67.73-74.59h.03z" fill="#442921"/><g><path d="M421.74 108.21c-.11 2.32-2.51 4.11-7.19 5.51-4.68 1.3-10.35 1.78-17.02 1.41-6.7-.38-14.97-1.84-24.78-4.32-5.43 2.38-10.51 6-15.26 11.02-4.79 4.97-10.06 12.16-15.89 21.4-5.84 9.35-10.11 15.51-12.73 18.54-2.68 3.03-6.19 5.89-10.59 8.54-11.68 6.92-23.48 9.73-35.32 8.54-6.33-.6-11.35-2.49-15.08-5.46-3.7-3.02-5.32-6.54-4.89-10.64.24-2.05 1.06-3.79 2.49-5.14 1.43-1.3 3-1.89 4.73-1.68 2.81.33 4.08 1.84 3.76 4.76-.14 1.3-.68 2.43-1.65 3.35-.97.81-2.11 1.19-3.38 1.03-2.03-.22-2.95-1.25-2.76-3.19.1-1.02.0-1.57-.33-1.57-.76-.11-1.25.92-1.49 2.97-.38 3.41 1.14 6.49 4.54 9.24 3.4 2.76 7.78 4.43 13.13 4.98 11.73 1.18 22.78-2.92 32.97-12.33 4.81-4.38 11.11-11.73 18.86-22.16 12.62-16.91 25-27.78 37.35-32.54-2.27-.54-5.65-1.51-10.19-2.81-10.65-3.13-18.81-4.97-24.56-5.46-.6-.06-2.38-.11-5.35-.22 1.65 3.89 2.32 8.21 1.92 13.03-.79 9.29-5.11 17.67-13.03 25.24-7.91 7.52-16.05 10.81-24.29 10-3.44-.33-6.11-1.73-8.03-4.11-1.91-2.44-2.7-5.41-2.32-8.92.49-4.75 2.92-9.89 7.22-15.4 4.27-5.46 9.57-10.11 15.83-13.94 6.27-3.79 12.95-6.27 20.05-7.36-2.94-4.81-7.51-7.51-13.7-8.05-5.19-.49-10.59.49-16.19 2.97-5.62 2.49-10.73 6.17-15.32 10.92-.68.76-1.14 1.08-1.33 1.08-.27.0-.4-.16-.49-.43.08-.7 2.05-2.59 5.89-5.78 9.22-7.41 18.32-10.64 27.43-9.78 7.05.59 12.19 3.56 15.46 8.81 5.27-1.03 11.21-1.3 17.89-.76 3.43.27 6.54.76 9.38 1.35 2.97.7 10.27 2.65 21.89 5.89 10.11-3.62 19.65-5.19 28.67-4.75 9.33.54 13.86 2.6 13.7 6.22zm-90.97 3.46c.27-3.35-.24-6.54-1.57-9.56-9.65.75-18.94 4.81-27.99 12.21-9.03 7.35-14 14.97-14.81 22.91-.33 3.03.38 5.68 2.11 7.89 1.7 2.27 3.97 3.57 6.81 3.84 7.3.7 14.92-2.97 22.68-11.19 7.78-8.16 12-16.86 12.78-26.11zm89.96-3.4c.06-1.19-1.11-2.32-3.46-3.24-2.35-.97-5.37-1.57-9.05-1.73-9.05-.54-18 .81-26.81 4.11 1.08.22 3.86.92 8.4 2.05 6.76 1.67 12.78 2.7 18.08 2.97 3.43.22 6.4-.11 8.94-.92 2.51-.81 3.81-1.89 3.89-3.24z" fill="#eee5d4"/><path d="M381.53 164.1c-.03.38-1.43 1.84-4.24 4.43-3.54 3.35-6.79 4.91-9.73 4.7-3.33-.22-4.87-2.16-4.62-5.89.11-1.19.46-2.71 1.13-4.49-2.92 2.16-5.32 4.27-7.22 6.43-1.89 2.16-5.21 6.6-10 13.3-2.32-.33-3.68-.54-4.06-.54-.19-.06-1.54-.06-4.02-.11 4.02-5.35 8.05-10.64 12.05-15.99 6-8.11 9.03-13.08 9.19-15.14.08-1.18-.38-1.84-1.38-1.89-2.44-.22-7.16 4-14.27 12.65-.43.54-.81.86-1.13.81-.16-.06-.24-.22-.22-.38.06-.22.17-.38.3-.54.43-.49.86-.97 1.29-1.46 7.38-8.16 12.24-12.21 14.62-12 3.43.27 5.03 2.59 4.73 6.92-.22 3.24-2.3 7.46-6.27 12.54 2.46-2.37 4.75-4.27 6.92-5.73 1.91-3.67 4.19-6.7 6.78-9.08 2.62-2.32 4.92-3.46 6.87-3.35 1.32.11 1.97.7 1.92 1.89-.16 2-3.35 4.7-9.65 8.05-.97.54-2.49 1.35-4.46 2.32-.29.16-.56.38-.86.59-.7 1.89-1.13 3.46-1.22 4.7-.24 3.56 1 5.46 3.76 5.62 3.4.27 7.32-2.27 11.67-7.46.95-.86 1.52-1.3 1.73-1.3.27.0.38.17.38.38z" fill="#eee5d4"/><path d="M403.8 165.45c-.06.11-.27.43-.7 1.02-1 1.19-2 2.38-3.03 3.51-8.84 10.65-15.49 15.78-19.86 15.51-2.05-.16-3.73-.97-5.03-2.49-1.27-1.46-1.86-3.3-1.73-5.46.19-2.43 1.92-6.05 5.25-10.81 3.78-5.4 7.51-10.81 11.24-16.21 1.3.38 2.35.59 3.16.65 1.16.06 2.81.0 4.95-.17-5.38 7.62-10.79 15.19-16.24 22.76-2.35 3.35-3.59 5.89-3.73 7.73-.1 1.95.87 2.92 2.92 3.08 3.89.22 11.24-6.05 21.75-18.97.24-.38.46-.59.7-.59.24.06.38.16.35.43zm.51-26.32c-.08 1.51-.81 2.87-2.16 4.05-1.32 1.25-2.76 1.84-4.27 1.73-1.97-.11-2.86-1.13-2.76-3.03.08-1.41.84-2.7 2.25-3.89 1.41-1.25 2.83-1.84 4.29-1.73 1.87.11 2.76 1.09 2.65 2.87z" fill="#eee5d4"/><path d="M436.36 166.96c-.03.65-3.24 4-9.73 10.33-7.06 6.81-13 10.11-17.75 9.83-3.08-.16-5.65-1.41-7.73-3.84-2.08-2.38-3-5.14-2.83-8.22.22-3.56 1.89-7.19 5.05-10.81 3.19-3.67 7.32-6.7 12.46-9.24 4.32-2.16 7.81-3.19 10.46-3.08 3.19.17 4.73 2.11 4.54 5.84-.11 2.92-1.25 5.78-3.41 8.59-2.16 2.86-4.27 4.22-6.27 4.16-1.98-.11-2.89-1.13-2.78-3.03.1-2.27 2.19-4.22 6.29-5.94 3.14-1.3 4.79-3.19 4.89-5.62.08-1.89-.95-2.92-3.08-3.03-3.59-.16-8.16 3.14-13.78 9.84-5.62 6.7-8.6 12.48-8.83 17.18-.22 3.95 1.59 6.11 5.46 6.27 6.05.32 14.64-5.84 25.51-18.59.6-.7 1.03-1.03 1.3-1.03.16.11.24.22.24.38z" fill="#eee5d4"/><path d="M472.3 123.19c-.38.6-.92 1.41-1.68 2.54-1.16 1.78-2.92 4.38-5.27 7.84-1.11 1.78-2.89 4.43-5.24 8.05-3.9 5.73-7.81 11.51-11.78 17.24-3.95 5.78-7.35 10.92-10.16 15.62-3.14 5.24-5.71 9.29-7.62 12.1-.3.43-.6.81-.92 1.25-1.16-.33-2.32-.49-3.46-.54-.97-.06-2.41.0-4.3.17 1.09-1.57 2.3-3.41 3.63-5.41 2.7-4.16 5.43-8.32 8.16-12.49 1.22-1.84 3.03-4.7 5.46-8.43 8.51-12.7 16.89-25.4 25.13-38.16 1.75.33 3.05.6 3.92.6.84.05 2.24-.11 4.13-.38zm4.41 45.13c-.06.17-.27.49-.67 1.08-.97 1.19-1.95 2.43-2.92 3.62-8.57 10.86-15.05 16.22-19.29 16.05-1.89-.05-3.51-.7-4.95-2-1.41-1.29-2.05-2.7-2-4.32.06-1.35 1.41-4.27 4-8.97.03-.06.05-.16.08-.22.89-1.52 1.35-2.71 1.38-3.46.03-.92-.68-1.84-2.08-2.65-1.67.6-3.08.86-4.16.86-1.51-.05-2.27-.54-2.24-1.4.06-.7.76-1.03 2.19-.97 1.41.06 2.7.32 3.86.76 2.19-.81 5.81-3.84 10.75-9.08 2.65-2.81 5.3-4.16 8-4.06 3.29.06 4.89 1.68 4.81 4.76-.06 2-.95 4-2.68 5.94-1.73 1.95-3.43 2.92-5.08 2.87-1.87-.06-2.78-.92-2.76-2.54.06-1.52 1.54-3.14 4.43-4.76 1.16-.7 1.78-1.67 1.84-3.03.0-1.02-.62-1.51-1.97-1.57-1.89-.06-4.25 1.46-7.19 4.59-3.76 3.89-6.76 6.27-9.08 7.13 4.46 2.22 6.67 4.7 6.6 7.35-.06 1.52-1.22 4.33-3.51 8.43-1 1.78-1.49 2.97-1.52 3.67-.05 1.13.65 1.68 2.11 1.73 4.11.17 11.11-6.38 20.75-19.57.33-.43.63-.59.89-.59.24.0.41.11.41.32z" fill="#eee5d4"/><path d="M539.02 169.13c0 .7-1.27 2.27-3.86 4.75-3.86 3.67-7.41 5.57-10.68 5.51-1.35.0-2.54-.27-3.59-.75-5.84 7.84-11.35 11.78-16.46 11.67-2.65-.06-4.89-1.13-6.72-3.24-1.84-2.11-2.71-4.7-2.65-7.62.11-6.49 4.65-12.7 13.49-18.65 6.24-4.22 11.35-6.27 15.32-6.27 3.73.0 5.6 2 5.57 5.89-.03 4.91-2.67 10.7-8.03 17.57.86.48 1.87.75 2.94.75 1.97.0 4.29-.81 6.89-2.6 2.65-1.78 4.81-3.89 6.49-6.38.49-.59.81-.92 1.03-.92.19.0.27.11.27.27zm-10.57-8.54c0-3.46-1.57-5.24-4.73-5.24-3.95.0-8.78 3.62-14.57 10.97-5.81 7.3-8.81 13.46-8.89 18.49-.02 2.92 1.38 4.38 4.27 4.43 4.75.06 10-3.67 15.67-11.14-1.25-1.35-1.87-2.81-1.87-4.22.03-2.05.89-4.16 2.62-6.38 1.7-2.16 3.38-3.3 4.97-3.3.7.0 1.16.43 1.43 1.25.7-1.46 1.05-3.08 1.08-4.86z" fill="#eee5d4"/><path d="M576.48 168.97c-.03.32-1.3 1.89-3.89 4.65-3.27 3.67-6.4 5.46-9.35 5.51-3.32.0-5-1.84-5.03-5.57.0-1.19.24-2.71.76-4.54-2.73 2.32-4.98 4.7-6.67 6.97-1.73 2.32-4.68 6.97-8.94 14.05-2.35-.16-3.7-.27-4.08-.27-.19.0-1.51.11-4.02.22 3.62-5.62 7.19-11.24 10.78-16.91 5.35-8.48 8-13.73 7.97-15.78.0-1.19-.48-1.78-1.51-1.78-2.43.0-6.81 4.59-13.24 13.73-.38.6-.73.92-1.05.92-.16-.06-.24-.17-.24-.38.03-.22.11-.38.24-.54.4-.48.81-1.02 1.19-1.57 6.73-8.7 11.24-13.08 13.65-13.08 3.46-.06 5.19 2.16 5.24 6.49.0 3.3-1.73 7.62-5.3 13.02 2.27-2.59 4.41-4.64 6.46-6.27 1.62-3.79 3.62-6.97 6.08-9.51 2.43-2.6 4.62-3.89 6.56-3.89 1.32-.06 2 .54 2.03 1.67.03 2.06-2.94 4.98-8.97 8.81-.95.6-2.38 1.52-4.27 2.65-.27.22-.51.43-.79.65-.59 1.95-.89 3.56-.86 4.81.0 3.57 1.38 5.35 4.13 5.35 3.46-.06 7.16-2.87 11.11-8.38.86-.97 1.41-1.41 1.62-1.41.24.0.38.11.4.38z" fill="#eee5d4"/><path d="M748.38 102.43c.22 2.27-1.95 4.38-6.41 6.38-4.46 1.94-10.02 3.19-16.7 3.68-6.7.48-15.08.16-25.13-1.03-5.08 3.08-9.65 7.35-13.68 12.92-4.08 5.57-8.35 13.35-12.89 23.35-4.57 10.05-8 16.7-10.19 20.05-2.24 3.35-5.35 6.65-9.38 9.83-10.65 8.43-21.97 12.81-33.86 13.19-6.33.16-11.54-.97-15.62-3.46-4.08-2.49-6.16-5.84-6.24-9.95-.05-2.05.54-3.84 1.79-5.35 1.21-1.51 2.7-2.27 4.43-2.32 2.87-.11 4.3 1.3 4.38 4.22.03 1.35-.35 2.49-1.21 3.51-.84 1.02-1.92 1.51-3.17 1.57-2.08.0-3.13-.92-3.19-2.87-.03-1.02-.19-1.57-.54-1.57-.76.06-1.11 1.08-1.06 3.19.08 3.41 1.98 6.27 5.7 8.54 3.73 2.32 8.3 3.35 13.65 3.19 11.78-.33 22.19-5.84 31.05-16.54 4.16-4.91 9.43-13.08 15.72-24.43 10.3-18.43 21.11-30.81 32.73-37.24-2.3-.22-5.81-.7-10.48-1.41-10.95-1.68-19.29-2.44-25.03-2.16-.59.06-2.37.22-5.35.54 2.16 3.56 3.4 7.78 3.62 12.54.46 9.35-2.7 18.27-9.57 26.75-6.86 8.54-14.48 12.92-22.72 13.19-3.46.11-6.3-.86-8.48-3.08-2.24-2.11-3.4-4.98-3.51-8.49-.13-4.81 1.57-10.21 5.14-16.21 3.51-6 8.14-11.3 13.84-15.89 5.73-4.59 12-7.89 18.89-9.95-3.57-4.38-8.43-6.43-14.62-6.22-5.21.22-10.43 1.94-15.65 5.13-5.24 3.19-9.81 7.52-13.73 12.81-.57.81-.97 1.29-1.16 1.29-.27.0-.46-.16-.54-.38-.03-.76 1.68-2.87 5.08-6.49 8.14-8.54 16.73-13.02 25.84-13.4 7.08-.27 12.54 1.95 16.48 6.76 5.08-1.73 10.95-2.76 17.62-3.14 3.43-.16 6.59-.16 9.49.11 3.06.27 10.51 1.3 22.46 2.92 9.54-4.91 18.78-7.73 27.83-8.43 9.3-.76 14.08.65 14.38 4.32zm-89.7 15.46c-.19-3.4-1.13-6.49-2.81-9.3-9.49 2-18.14 7.25-26.11 15.78-7.98 8.48-11.92 16.7-11.68 24.65.11 3.08 1.14 5.57 3.14 7.62 2 2 4.41 2.97 7.24 2.87 7.33-.22 14.38-4.92 20.98-14.05 6.62-9.14 9.67-18.38 9.24-27.57zm88.7-15.3c-.11-1.18-1.38-2.1-3.84-2.76-2.49-.7-5.53-.86-9.19-.54-9.08.7-17.75 3.24-26.05 7.62 1.08.11 3.95.43 8.6.92 6.92.81 13.03 1.02 18.32.59 3.43-.27 6.35-.97 8.76-2.11 2.37-1.13 3.51-2.37 3.4-3.73z" fill="#eee5d4"/><path d="M715.87 163.13c.03.38-1.16 2-3.59 4.92-3.08 3.84-6.1 5.83-9.05 6-3.32.22-5.08-1.57-5.32-5.25-.08-1.18.08-2.7.52-4.59-2.6 2.49-4.7 4.98-6.29 7.3-1.57 2.43-4.3 7.24-8.16 14.54-2.32-.06-3.7-.11-4.08-.06-.17.0-1.52.16-4 .49 3.3-5.84 6.56-11.68 9.83-17.51 4.86-8.76 7.22-14.16 7.08-16.16-.06-1.25-.6-1.79-1.6-1.73-2.43.11-6.56 4.98-12.48 14.43-.35.65-.68.97-1 .97-.16-.05-.27-.16-.27-.38.03-.22.11-.38.22-.54.38-.54.76-1.08 1.11-1.62 6.24-9.08 10.52-13.73 12.89-13.84 3.46-.22 5.35 1.84 5.6 6.22.22 3.24-1.3 7.67-4.57 13.29 2.11-2.7 4.16-4.92 6.11-6.65 1.4-3.84 3.27-7.13 5.54-9.84 2.3-2.7 4.4-4.11 6.35-4.27 1.35-.11 2.05.43 2.14 1.62.13 2-2.68 5.08-8.46 9.24-.92.7-2.3 1.67-4.16 2.92-.22.22-.48.43-.73.65-.49 2-.7 3.63-.63 4.92.22 3.51 1.73 5.24 4.46 5.03 3.43-.22 7-3.13 10.62-8.92.81-.97 1.32-1.52 1.54-1.52.27-.05.4.11.4.33z" fill="#eee5d4"/><path d="M748.73 160.7c0 .16-.33.75-1.05 1.78-.81 1.24-1.68 2.43-2.52 3.67-8.16 11.46-15.59 17.46-22.11 17.94-3.05.22-5.7-.7-7.94-2.65-2.22-2-3.46-4.65-3.65-7.84-.54-7.62 4.51-14.65 14.94-21.24 5.51-3.46 10.02-5.35 13.65-5.62 1.54-.16 2.92.22 4.08 1.03 1.19.86 1.81 1.89 1.92 3.19.27 3.03-1.59 5.83-5.49 8.27-3.92 2.48-10.59 4.97-20.05 7.51-2.67 4.54-3.89 8.32-3.7 11.25.27 3.62 2.44 5.3 6.51 5.03 6.95-.54 14.97-7.68 23.89-21.51.46-.7.86-1.08 1.21-1.13.19.06.27.16.3.33zm-6.43-11.25c-.14-1.35-.95-2-2.46-1.89-2.3.17-5.19 2-8.71 5.35-3.51 3.41-6.89 7.73-10.16 12.92 6.17-2 11.3-4.65 15.43-7.84 4.11-3.13 6.08-6.05 5.89-8.54z" fill="#eee5d4"/><path d="M794.57 156.48c.08.92-2.65 5.3-8.32 13.24-4.59 6.49-8.37 9.89-11.37 10.11-2.03.22-3.73-.38-5.14-1.68-1.41-1.35-2.21-3.14-2.41-5.35-.19-2.27.27-4.75 1.43-7.57-3.84 6.27-6.81 10.59-8.97 12.86-2.14 2.27-4.32 3.46-6.51 3.62-2.3.22-4.35-.54-6.08-2.32-1.73-1.84-2.73-4.16-2.95-7.08-.65-8.16 4.68-15.78 15.9-23.08 4.89-3.19 8.92-4.97 12.05-5.3 2.71-.22 4.16.92 4.41 3.46.06.7-.03 1.68-.27 2.87.92-2.11 1.84-4.27 2.73-6.43 1.35.16 2.49.22 3.48.11 1.16-.11 2.68-.38 4.52-.86-3.22 6.54-6.49 13.08-9.76 19.68-3.4 6.86-5.03 11.3-4.84 13.35s1.11 2.92 2.84 2.76c1.75-.17 4.38-2.32 7.86-6.6 3.51-4.21 6.95-9.35 10.32-15.46.24-.38.43-.65.65-.7.27.0.4.11.43.38zm-18.92-8.76c-.22-2.05-1.27-3.03-3.22-2.81-3.97.38-8.86 4.65-14.7 12.81-5.84 8.16-8.62 14.54-8.24 19.24.24 2.76 1.62 4 4.19 3.79 3-.22 7.86-5.52 14.4-15.84 5.32-8.48 7.84-14.21 7.57-17.18z" fill="#eee5d4"/><path d="M817.11 139.4c-.14.32-.27.7-.41 1.02-2.83.27-5.67.6-8.51.92-3.95 8.54-7.94 17.08-12 25.62-1.48 3.08-2.16 5.46-2 7.19.19 1.95 1.32 2.76 3.38 2.6 4-.43 10.08-7.78 18-22.22.27-.49.49-.7.73-.75.24.0.4.11.43.38-.03.11-.22.49-.54 1.08-.81 1.35-1.59 2.7-2.4 4.06-7.03 11.89-12.67 18-16.84 18.43-2.05.22-3.84-.33-5.35-1.62-1.57-1.3-2.4-3.03-2.62-5.19-.24-2.48.59-5.78 2.53-9.83 3.06-6.27 6.11-12.6 9.11-18.92-2.21.22-4.41.43-6.62.65.19-.32.38-.65.56-.97 2.16-.22 4.3-.43 6.49-.7 2.08-4.32 4.16-8.7 6.24-13.02 1.35.22 2.6.22 3.73.11 1.22-.11 2.43-.43 3.67-.92-2 4.33-4.05 8.71-6.08 13.03 2.84-.27 5.68-.6 8.49-.92z" fill="#eee5d4"/></g><g><path d="M279.92 392.29c3.3-1.13 8.57-2.32 13.97-2.92 7.76-.92 12.89-.22 16.92 2.32 3.38 1.84 5.6 5.08 6.11 9.67.59 5.62-2.68 10.92-8.62 13.84.0.1.0.16.03.16 5.76.76 12.83 4.59 13.75 13.24.54 5.03-1.05 8.97-3.67 12.16-3.67 4.16-10.05 6.59-19.54 7.73-5.16.65-9.19.81-11.76.76-2.38-19.02-4.78-37.94-7.19-56.97zm10.65 22.76c2.3-.27 4.62-.54 6.92-.81 8.08-.97 12.38-5.67 11.76-11.19-.79-6.87-6.4-8.92-14.22-8-3.54.43-5.54.92-6.75 1.35.75 6.22 1.54 12.44 2.3 18.65zm3.4 27.78c1.49.11 3.67-.06 6.35-.38 7.79-.92 14.65-4.59 13.73-13.03-.89-7.94-8.19-10.43-16.49-9.46-2.1.27-4.18.54-6.32.76.92 7.41 1.81 14.76 2.73 22.11z" fill="#e8dbc8"/><path d="M336.45 424.13c1.22 10.27 8.21 13.84 15.83 13.08 5.48-.48 8.7-1.73 11.46-3.19.6 1.79 1.19 3.57 1.79 5.35-2.6 1.46-7.06 3.19-13.73 3.84-12.86 1.25-21.43-6.38-22.78-18.97-1.32-12.6 5.24-23.3 17.73-24.48 13.97-1.3 18.73 10.43 19.38 18.05.14 1.57.06 2.81.03 3.56-9.89.86-19.81 1.78-29.7 2.76zm22.05-7.57c-.32-4.81-3.1-12.16-11.86-11.35-7.84.76-10.57 8.22-10.68 13.52 7.51-.76 15.03-1.46 22.54-2.16z" fill="#e8dbc8"/><path d="M375.96 432.4c2.38 1.25 6.51 2.54 10.33 2.22 5.57-.43 7.97-3.35 7.7-6.81-.27-3.67-2.57-5.46-8.4-7.13-7.84-2.05-11.76-5.89-12.16-10.97-.56-6.7 4.54-12.7 13.79-13.35 4.32-.38 8.21.59 10.67 1.78-.51 1.89-1.02 3.79-1.54 5.67-1.73-.92-4.94-2.11-8.92-1.78-4.57.38-6.92 3.13-6.67 6.27.27 3.46 2.94 4.75 8.62 6.43 7.57 2.21 11.57 5.62 12 11.84.49 7.35-4.86 12.92-14.8 13.67-4.6.38-8.92-.43-12.03-1.89.49-2 .95-4 1.43-5.95z" fill="#e8dbc8"/><path d="M418.04 383.11c.24 4 .49 8 .73 12.05 3.7-.22 7.41-.43 11.14-.65.11 1.94.19 3.89.32 5.78-3.73.22-7.41.43-11.14.65.46 7.51.92 15.03 1.36 22.59.32 5.19 1.94 8.05 6.22 7.78 2-.11 3.46-.43 4.41-.76.22 1.89.43 3.79.65 5.68-1.43.7-3.76 1.3-6.7 1.41-3.57.27-6.46-.76-8.41-2.71-2.32-2.11-3.35-5.78-3.67-10.7-.49-7.62-.97-15.19-1.43-22.86-2.21.16-4.41.32-6.62.49-.11-2-.24-3.89-.38-5.84 2.21-.16 4.41-.27 6.65-.43-.24-3.35-.43-6.65-.65-10 2.51-.81 5.03-1.62 7.54-2.49z" fill="#e8dbc8"/><path d="M504.03 431.16c-3.38 1.3-10.02 3.4-17.92 3.62-8.87.22-16.22-1.73-22.16-6.97-5.27-4.65-8.73-12.27-9.11-21.4-.7-17.35 11.05-30.7 31.33-31.24 6.97-.22 12.46 1.13 15.05 2.32-.56 2.11-1.16 4.11-1.73 6.22-3.24-1.35-7.3-2.37-13.35-2.21-14.62.38-23.81 9.62-23.22 24.21.57 14.87 9.87 23.19 23.54 22.81 4.98-.11 8.35-.86 10.06-1.78-.14-5.78-.24-11.57-.41-17.41-4 .11-8.03.22-12.02.33-.06-2.05-.14-4.11-.17-6.11 6.51-.16 13.06-.32 19.57-.43.19 9.35.35 18.7.54 28.05z" fill="#e8dbc8"/><path d="M523.49 379.81c.13 2.6-1.81 4.65-4.95 4.7-2.73.06-4.73-2-4.75-4.65-.06-2.65 2-4.75 4.87-4.81 2.94.0 4.81 2.05 4.84 4.75zm-8.03 53.78c-.19-14-.35-27.94-.54-41.94 2.6.0 5.19-.06 7.78-.06.16 13.95.27 27.94.4 41.89-2.54.05-5.08.11-7.64.11z" fill="#e8dbc8"/><path d="M536.62 433.43c-.03-12.05-.08-24.11-.11-36.16-2 .05-4 .05-6.03.05.0-1.94.0-3.84-.02-5.83h6.05v-2c-.03-5.89 1.3-11.3 4.95-14.64 2.94-2.76 6.89-3.89 10.57-3.89 2.76.0 5.19.65 6.67 1.3-.35 1.95-.73 3.95-1.11 5.89-1.13-.54-2.73-1.03-4.98-1.03-6.7-.06-8.4 5.73-8.4 12.11v2.27h10.38c-.03 2-.03 3.89-.03 5.83-3.46.0-6.92-.05-10.35-.05.0 12.05-.03 24.1-.06 36.16h-7.54z" fill="#e8dbc8"/><path d="M572.19 379.65c-.06 4-.11 8.05-.19 12.05 3.76.06 7.46.11 11.19.16-.03 1.95-.06 3.89-.11 5.84-3.7-.06-7.43-.17-11.13-.22-.11 7.57-.24 15.08-.35 22.65-.08 5.19 1.38 8.16 5.65 8.21 2 .06 3.49-.22 4.43-.43.08 1.89.17 3.78.24 5.73-1.48.59-3.84.97-6.78.92-3.54-.06-6.4-1.19-8.22-3.3-2.13-2.32-2.86-6.05-2.83-10.97.11-7.62.19-15.24.27-22.92-2.22.0-4.43.0-6.65-.06.03-1.89.03-3.84.03-5.78 2.25.05 4.46.05 6.67.05.03-3.35.06-6.7.11-10.05 2.57-.6 5.11-1.25 7.68-1.89z" fill="#e8dbc8"/><path d="M590.16 426.18c2.21 1.52 6.19 3.19 10.02 3.3 5.57.16 8.24-2.54 8.35-5.94.13-3.67-1.97-5.73-7.59-8-7.57-2.86-11.05-7.13-10.95-12.16.17-6.76 5.84-12.16 15.08-11.89 4.35.16 8.11 1.46 10.46 2.97-.73 1.78-1.43 3.62-2.14 5.4-1.65-1.08-4.7-2.54-8.68-2.7-4.62-.11-7.21 2.44-7.29 5.57-.11 3.46 2.41 5.08 7.89 7.29 7.29 3.03 10.92 6.81 10.68 13.08-.27 7.29-6.19 12.26-16.16 12-4.59-.11-8.81-1.36-11.73-3.14.68-1.94 1.35-3.89 2.05-5.78z" fill="#e8dbc8"/><path d="M646.99 374.57c2.65.11 5.24.22 7.86.38-.46 8.71-.92 17.41-1.41 26.11.06.06.11.06.11.06 1.43-2.11 3.46-3.95 5.94-5.08 2.38-1.19 5.16-1.89 8.08-1.68 5.78.33 14.76 4.43 13.75 18.81-.56 8.32-1.11 16.65-1.67 24.92-2.54-.17-5.11-.33-7.62-.49.48-8 1.02-16 1.51-24 .43-6.81-1.75-12.65-9.08-13.08-5.05-.33-9.22 2.92-10.84 7.02-.51.97-.65 2.11-.73 3.57-.44 8.43-.9 16.86-1.36 25.29-2.54-.16-5.08-.33-7.62-.43 1.03-20.48 2.03-40.97 3.06-61.4z" fill="#e8dbc8"/><path d="M697.88 419.75c-.6 10.32 5.67 15.03 13.32 15.62 5.48.49 8.83-.16 11.83-1.13.24 1.89.51 3.73.79 5.57-2.78 1.03-7.48 1.95-14.16 1.41-12.86-1.02-20-10.05-19.08-22.7.89-12.6 9.22-22 21.73-20.98 14 1.14 16.59 13.52 15.89 21.19-.16 1.57-.4 2.76-.56 3.51-9.92-.92-19.84-1.73-29.75-2.48zm23.05-3.62c.51-4.81-.97-12.49-9.7-13.24-7.86-.65-11.84 6.22-12.84 11.41 7.52.59 15.03 1.19 22.54 1.84z" fill="#e8dbc8"/><path d="M738.38 413.91c.46-4.86.78-9.13.89-13.02 2.27.22 4.51.43 6.79.65-.19 2.76-.35 5.46-.51 8.22.11.0.22.0.32.05 2.49-5.4 7.52-8.48 12.73-7.94.92.11 1.52.27 2.19.49-.24 2.37-.49 4.75-.76 7.13-.79-.22-1.54-.43-2.6-.54-5.48-.54-9.75 3.13-11.37 8.7-.27 1.03-.57 2.22-.68 3.46-.76 7.41-1.49 14.87-2.22 22.33-2.51-.27-5.03-.54-7.51-.76.89-9.62 1.81-19.19 2.73-28.76z" fill="#e8dbc8"/><path d="M769.52 426.45c-.97 10.32 5.16 15.19 12.78 16.11 5.46.7 8.84.17 11.84-.7.22 1.84.43 3.73.62 5.57-2.81.86-7.57 1.73-14.21.92-12.83-1.51-19.65-10.75-18.3-23.35 1.36-12.59 10-21.72 22.46-20.21 13.97 1.62 16.13 14.05 15.16 21.73-.19 1.57-.51 2.76-.7 3.46-9.86-1.25-19.75-2.44-29.64-3.51zm23.16-2.76c.68-4.81-.51-12.54-9.22-13.62-7.86-.92-12.05 5.84-13.24 10.98 7.48.81 14.97 1.73 22.45 2.65z" fill="#e8dbc8"/></g><g><path d="M230.92 219.28v120.48h-27.7v-49.67h-37.59v49.67h-27.7v-120.48h27.7v46.97h37.59v-46.97h27.7z" fill="#e8dbc8"/><path d="M331.64 339.76h-25.51c-.84-3.51-1.24-8.16-1.24-13.94-4.46 6.38-8.92 10.59-13.35 12.65-4.43 2.11-9.46 3.19-15.11 3.19-8.35.0-15.08-2.27-20.21-6.81-5.16-4.54-7.73-10.64-7.73-18.26.0-5.62 1.52-10.76 4.52-15.46 3-4.7 7.81-8.38 14.46-11.08 6.62-2.65 18.73-4.65 36.3-5.95v-5.13c0-8.65-4.3-12.97-12.95-12.97-9.19.0-14.32 4.32-15.38 12.97l-24.29-2.27c1.59-10.11 6.4-17.3 14.4-21.57 8-4.22 17.05-6.33 27.19-6.33 6.05.0 11.76.7 17.11 2.11 5.38 1.41 9.54 3.51 12.54 6.38 3 2.81 5.03 5.78 6.08 8.92 1.06 3.13 1.6 8.65 1.6 16.49v40.42c0 7.73.51 13.3 1.59 16.65zm-27.89-42.7c-18.35 1.84-27.54 7.41-27.54 16.7.0 3.08.97 5.78 2.92 8.05 1.92 2.27 4.68 3.4 8.27 3.4 4.62.0 8.48-1.94 11.64-5.78 3.13-3.84 4.7-8.6 4.7-14.27v-8.11z" fill="#e8dbc8"/><path d="M351.74 339.76v-120.48h26.32v120.48h-26.32z" fill="#e8dbc8"/><path d="M399.69 339.76v-120.48h26.29v120.48h-26.29z" fill="#e8dbc8"/><path d="M484.55 248.79c13.59.0 24.16 4.43 31.78 13.3 7.59 8.92 11.4 20 11.4 33.4s-3.95 24.16-11.83 32.91c-7.92 8.81-18.43 13.24-31.51 13.24s-22.86-4.38-30.48-13.08c-7.6-8.71-11.41-19.89-11.41-33.57.0-9.46 1.7-17.51 5.16-24.1 3.43-6.6 8.13-12 14.13-16.06 6-4.05 13.59-6.05 22.76-6.05zm.7 17.19c-4.98.0-8.73 1.95-11.27 5.78-2.51 3.84-3.78 11.51-3.78 22.97.0 10.59 1.22 18.11 3.59 22.7 2.44 4.59 6.17 6.92 11.27 6.92 4.46.0 8.08-2 10.84-5.89 2.76-3.95 4.13-11.35 4.13-22.38.0-11.73-1.21-19.62-3.65-23.83-2.43-4.16-6.16-6.27-11.13-6.27z" fill="#e8dbc8"/><path d="M660.75 250.64l-26.95 89.12h-23.16l-14.11-57.34-14.11 57.34h-21.94l-27.62-89.12h27.43l14.54 54.43 13.65-54.43h23.75l13.08 54.8 15.14-54.8h20.3z" fill="#e8dbc8"/><path d="M751.38 299.6H694c-.05 1.62-.08 2.97-.08 4.16.0 6.38 1.7 11.14 5.08 14.38 3.38 3.24 7.43 4.86 12.13 4.86 8.76.0 14.02-4.7 15.81-14.05l23.81 1.78c-6.65 20.59-20.13 30.92-40.51 30.92-8.87.0-16.43-1.84-22.62-5.35-6.22-3.56-11.32-8.76-15.38-15.56-4.03-6.87-6.05-15.03-6.05-24.6.0-14.16 4.05-25.56 12.13-34.26 8.11-8.76 18.51-13.08 31.21-13.08 11.46.0 21.32 4 29.54 12.11 8.19 8.11 12.3 20.97 12.3 38.7zm-57.45-15.24h31.67c-.81-12.27-5.83-18.37-15.08-18.37-9.89.0-15.41 6.1-16.59 18.37z" fill="#e8dbc8"/><path d="M848.02 299.6h-57.37c-.06 1.62-.08 2.97-.08 4.16.0 6.38 1.7 11.14 5.05 14.38 3.4 3.24 7.43 4.86 12.16 4.86 8.76.0 14.02-4.7 15.78-14.05l23.83 1.78c-6.65 20.59-20.16 30.92-40.51 30.92-8.89.0-16.43-1.84-22.65-5.35-6.19-3.56-11.32-8.76-15.35-15.56-4.03-6.87-6.05-15.03-6.05-24.6.0-14.16 4.05-25.56 12.13-34.26 8.11-8.76 18.49-13.08 31.21-13.08 11.46.0 21.32 4 29.51 12.11 8.21 8.11 12.32 20.97 12.32 38.7zm-57.45-15.24h31.67c-.81-12.27-5.83-18.37-15.1-18.37-9.86.0-15.4 6.1-16.56 18.37z" fill="#e8dbc8"/><path d="M942.1 339.76h-26.32v-49.99c0-6.11-.22-10.22-.68-12.49-.49-2.21-1.62-4.11-3.46-5.67-1.84-1.57-4.11-2.32-6.9-2.32-9.22.0-13.84 6.81-13.84 20.48v49.99h-26.32v-89.12h24.46v15.08c4.05-7.19 8.08-11.78 12-13.84 3.94-2.05 8.21-3.08 12.81-3.08 8.46.0 15.3 2.27 20.48 6.81 5.16 4.59 7.76 13.51 7.76 26.86v57.29z" fill="#e8dbc8"/></g></g></g></svg>