<svg xmlns="http://www.w3.org/2000/svg" width="813.44" height="1080" viewBox="0 0 813.44 1080"><g id="a"/><g id="b"><g id="c"><g id="d"><path d="M808.48 576.24C787.23 377.24 655.67-58.59 379.58 6.58 114.31 69.18 11.29 418.78.48 656.78c-10.59 233.39 154.62 440.92 446.11 422.02 130.26-12.32 202.09-47.18 277.07-127.93 89.69-96.65 98-251.52 84.83-374.64h0z" fill="#ffc23d"/><path d="M697.87 614.37c-13.63-15.99-35.11-22.12-56.42-18.87-18.29 2.82-61.01 20.62-55.06 79.44 4.48 44.73 50.91 71.09 95.65 49.17 41.44-20.22 41.94-79.17 15.83-109.75h0zm-25.73 90.75h0c-40.41 27.61-81.83-25.32-57.95-70.96 5.87-11.17 20.46-16.03 33.32-18.03 15.18-2.35 27.52 4.72 35.87 15.81 16.41 21.81 12.02 57.29-11.24 73.19h0z" fill="#fcfcfc"/><path d="M561.36 310.86c-.42-.45-.85-.96-1.3-1.43-7.23-7.9-17.86-9.29-25.59-.94-.4.43-.81.89-1.23 1.3-9.18 9.97-2.09 26.53 10.5 28.8 13.99 2.57 28.63-15.69 17.62-27.74h0z" fill="#fcfcfc"/><path d="M578.27 447.53c-13.64-15.99-35.15-22.16-56.44-18.88-18.27 2.8-61.01 20.64-55.12 79.46 4.52 44.71 50.91 71.06 95.65 49.19 41.44-20.26 42-79.17 15.9-109.77h0zm-25.75 90.75h0c-40.41 27.59-81.84-25.32-57.99-70.98 5.89-11.17 20.47-16.03 33.36-18.02 15.18-2.37 27.5 4.7 35.85 15.81 16.43 21.78 12.04 57.27-11.22 73.19h0z" fill="#fcfcfc"/><path d="M625.28 839.83c.9 11.08 10.28 17.64 20.75 17.64s18.47-10.93 17.69-20.75c-.9-11.1-10.28-17.66-20.73-17.66s-18.49 10.93-17.71 20.76h0z" fill="#fcfcfc"/><path d="M707.28 273.83c-13.64-15.98-35.15-22.14-56.45-18.87-18.23 2.78-60.97 20.62-55.08 79.48 4.48 44.67 50.91 71.06 95.67 49.17 41.4-20.24 41.96-79.19 15.87-109.78h0zm-25.71 90.74h0c-40.43 27.63-81.88-25.3-57.96-70.93 5.82-11.2 20.4-16.05 33.27-18.05 15.2-2.37 27.5 4.72 35.91 15.79 16.39 21.83 12 57.29-11.22 73.19h0z" fill="#fcfcfc"/><path d="M519.14 662.46c.89 10.43 9.67 16.59 19.52 16.59s17.35-10.23 16.61-19.5c-.83-10.41-9.65-16.57-19.5-16.57s-17.31 10.25-16.63 19.48h0z" fill="#fcfcfc"/><path d="M639.88 470.72c-23.46.0-20.31 36.22 2.91 36.22s20.31-36.22-2.91-36.22h0z" fill="#fcfcfc"/><path d="M419.01 506.75c19.17.0 16.61-29.57-2.35-29.57s-16.61 29.57 2.35 29.57h0z" fill="#fcfcfc"/><path d="M357.28 446.61c-25.93-38.2-123.54-39.5-127.71 47.47-2.31 49.06 43.68 87.1 90.23 68 42.02-17.28 63.34-77.42 37.48-115.48h0zm-107.58 48.47h0c-.49-18 6.69-33.31 18.36-43.35 6.47-4.7 13.97-8.01 23.91-9.52 18.98-2.95 39.57 3.8 50.47 19.88 17.98 26.44-4.95 67.88-29.85 80.33-34.46 17.24-62.04-15.45-62.89-47.33h0z" fill="#fcfcfc"/><path d="M652.73 134.29c-9.72 15.47 5.82 31.44 21.32 31.73-6.81-11-13.9-21.58-21.25-31.84-.04.02-.07.09-.07.11h0z" fill="#fcfcfc"/><path d="M53.36 886.2c3.98 6.94 8.13 13.77 12.49 20.44 21.6-2.62 42.69-14.55 54.12-33.99 25.88-43.86-1.21-101.36-51.59-106.59-21.04-2.2-40.54 6.31-54.94 20.44 2.12 8.48 4.57 16.79 7.23 24.99 11.73-18.11 31.97-26.75 53.73-22.93 34.81 6.16 39.76 48.94 26.62 75.2-9.4 18.74-29.17 25.46-47.65 22.44h0z" fill="#fcfcfc"/><path d="M476.91 613.43c-25.93-38.2-123.5-39.49-127.67 47.49-2.35 49.06 43.64 87.12 90.16 68.04 42.03-17.31 63.39-77.42 37.52-115.53h0zm-44.69 95.81h0c-34.48 17.22-62.06-15.43-62.89-47.35-.51-17.96 6.72-33.29 18.34-43.34 6.49-4.72 14.01-7.97 23.95-9.52 18.96-2.94 39.56 3.8 50.51 19.92 17.96 26.44-4.97 67.88-29.91 80.29h0z" fill="#fcfcfc"/><path d="M421.52 820.78c-22.68.0-19.62 34.97 2.82 34.97s19.59-34.97-2.82-34.97h0z" fill="#fcfcfc"/><path d="M691.51 972.87c-13.66-15.96-35.15-22.14-56.44-18.87-18.31 2.78-61.01 20.64-55.12 79.46.56 5.8 2.08 11.1 4.05 16.19 7.01-2.69 13.93-5.55 20.62-8.62-5.38-14.31-5.53-31.79 3.14-48.38 5.89-11.17 20.46-16.03 33.34-18.02 15.14-2.4 27.52 4.68 35.89 15.81.76.98 1.25 2.11 1.9 3.2 5.58-4.68 11.17-9.5 16.7-14.64-1.28-2.1-2.55-4.28-4.08-6.14h0z" fill="#fcfcfc"/><path d="M232.1 1045.62c18.87-42.61-7.7-94.01-55.23-98.96-22.62-2.37-43.5 7.81-58.1 24.03 5.1 4.93 10.37 9.7 15.79 14.37 12.02-13.23 29.62-19.17 48.32-15.87 31.61 5.57 38.24 41.11 29.38 67.32 6.47 3.2 13.08 6.25 19.82 9.11h0z" fill="#fcfcfc"/><path d="M717.06 467.7c10.83-22.27 33.23-33.05 57.29-28.81 3.65.63 6.81 1.84 9.81 3.27-1.92-7.86-3.96-15.76-6.11-23.78-3.11-.83-6.31-1.68-9.7-2.02-30.36-3.18-57.76 15.76-70.82 42.2-7.55 15.24-8.55 46.84 3.96 62.78 17.46 43.28 70.53 45.16 102.39 19.66-1.23-8.19-2.58-16.55-4.08-25.25-18.09 32.04-68.06 26.8-82.67-5.44-5.57-12.43-5.8-24.87-2.68-36.43.8-2.11 1.68-4.19 2.62-6.18h0z" fill="#fcfcfc"/><path d="M773.06 761.11c-30.31-3.2-57.77 15.76-70.82 42.2-7.52 15.25-8.55 46.84 3.97 62.74 9.78 24.32 30.88 35.46 53.11 36.22 3.94-6.72 7.64-13.55 11.08-20.55-19.35 1.63-40.05-7.84-48.54-26.67-5.6-12.42-5.84-24.87-2.73-36.45.85-2.1 1.66-4.19 2.66-6.16 10.84-22.3 33.21-33.07 57.29-28.81 9.16 1.59 15.94 6.02 21.11 11.8 1.65-7.39 3.18-14.82 4.48-22.32-8.93-6.36-19.53-10.75-31.61-12h0z" fill="#fcfcfc"/><path d="M358.65 320.38c-2.37 49.05 43.64 87.1 90.14 68.02 42.03-17.28 63.36-77.42 37.52-115.49-25.93-38.2-123.52-39.5-127.65 47.47h0zm38.42-42.36h0c6.51-4.7 13.99-7.97 23.96-9.52 18.96-2.93 39.54 3.81 50.49 19.9 17.96 26.44-4.97 67.89-29.91 80.35-34.45 17.19-62.04-15.45-62.89-47.35-.43-18.02 6.72-33.29 18.34-43.37h0z" fill="#fcfcfc"/><path d="M429.13 126.41c-20.91.0-18.11 32.2 2.58 32.2s18.07-32.2-2.58-32.2h0z" fill="#fcfcfc"/><path d="M115.25 527.9c25.88-43.84-1.21-101.33-51.59-106.59-9.4-.98-18.43.33-26.95 3.18-2.51 9.45-4.9 18.83-7.14 28.3 11.2-8.06 25.19-11.55 40.08-8.95 34.82 6.11 39.79 48.94 26.62 75.2-16.16 32.29-62.92 29.17-80.58 1.01-1.61 9.14-3.07 18.18-4.37 27.18 29.38 27.27 82.82 16.41 103.93-19.34h0z" fill="#fcfcfc"/><path d="M275.62 669.81c.9 11.26 10.35 17.89 21 17.89s18.65-11.04 17.86-21c-.9-11.2-10.37-17.86-21.02-17.86s-18.65 11.02-17.84 20.96h0z" fill="#fcfcfc"/><path d="M476.66 165.69c4.48 44.73 50.94 71.06 95.65 49.19 41.44-20.24 41.98-79.19 15.85-109.76-13.63-15.98-35.13-22.16-56.4-18.88-18.29 2.8-60.99 20.62-55.1 79.46h0zm27.85-40.77h0c5.82-11.19 20.4-16.06 33.29-18.07 15.18-2.35 27.51 4.72 35.91 15.83 16.41 21.8 11.98 57.29-11.28 73.17-40.39 27.61-81.85-25.32-57.92-70.93h0z" fill="#fcfcfc"/><path d="M239.55 151.67c-2.35 49.05 43.66 87.1 90.16 68 42.02-17.28 63.36-77.4 37.48-115.48-25.91-38.22-123.48-39.5-127.64 47.47h0zm82.98 48.32h0c-34.46 17.22-62.08-15.43-62.91-47.35-.45-17.98 6.72-33.31 18.34-43.35 6.49-4.7 14.01-7.99 23.98-9.51 18.94-2.95 39.5 3.81 50.47 19.9 17.96 26.44-4.97 67.86-29.89 80.31h0z" fill="#fcfcfc"/><path d="M793.92 631.36c-27.49.0-23.8 42.38 3.4 42.38 8.2.0 13.28-3.99 16.03-9.32-.04-7.17-.11-14.31-.34-21.41-3.42-6.56-9.74-11.64-19.08-11.64h0z" fill="#fcfcfc"/><path d="M532.46 1036.98c20.91.0 18.03-32.22-2.59-32.22s-18.09 32.22 2.59 32.22h0z" fill="#fcfcfc"/><path d="M374.05 19.21c20.93 51.85 93.14 44.53 118.49 1.59 2.13-3.61 3.74-7.37 5.1-11.11-6.89-2.15-13.97-4.03-21.14-5.49-.9 2.67-1.75 5.35-2.93 7.75-17.09 34.14-68.96 29.1-83.85-3.76-.51-1.07-.78-2.17-1.12-3.23-3.03.56-5.96.9-9.02 1.63-3.63.85-7.12 1.97-10.66 2.93 1.34 3.58 2.96 6.94 5.13 9.7h0z" fill="#fcfcfc"/><path d="M312.82 1008.3c-.78-10.3-9.49-16.37-19.23-16.37s-17.12 10.12-16.39 19.25c.81 10.3 9.52 16.39 19.25 16.39s17.13-10.12 16.37-19.26h0z" fill="#fcfcfc"/><path d="M161.37 167.09c18.22.0 22.48-18.21 15.78-30.86-7.97 9.47-15.58 19.34-22.97 29.46 2.17.79 4.5 1.41 7.19 1.41h0z" fill="#fcfcfc"/><path d="M567.12 902.03c41.44-20.22 41.92-79.19 15.85-109.77-13.63-15.96-35.13-22.14-56.42-18.88-18.27 2.8-61.03 20.62-55.1 79.48 4.5 44.67 50.92 71.06 95.67 49.17h0zm-67.82-90h0c5.84-11.15 20.4-16.03 33.31-18.03 15.16-2.37 27.5 4.72 35.87 15.81 16.41 21.81 12.02 57.3-11.24 73.19-40.41 27.63-81.84-25.32-57.94-70.96h0z" fill="#fcfcfc"/><path d="M17.81 633.98c-.16.04-.29.13-.51.16-9.63 3.09-15.79 13.52-14.98 23.37.9 11.26 8.8 17.56 18.74 20.71l.56.18c14.51 4.63 28.23-11.1 27.14-24.58-1.23-15.41-16.73-24.42-30.96-19.84h0z" fill="#fcfcfc"/><path d="M300.03 311.93c-21.18.0-18.36 32.65 2.6 32.65s18.31-32.65-2.6-32.65h0z" fill="#fcfcfc"/><path d="M162.35 838.35c.81 10.14 9.36 16.15 18.96 16.15s16.86-9.99 16.12-18.98c-.8-10.14-9.36-16.1-18.96-16.1s-16.86 9.94-16.12 18.92h0z" fill="#fcfcfc"/><path d="M158.89 496.69c.92 11.37 10.5 18.05 21.21 18.05s18.9-11.17 18.09-21.18c-.94-11.37-10.5-18.09-21.22-18.09s-18.88 11.15-18.09 21.22h0z" fill="#fcfcfc"/><path d="M448.2 1078.62c31.55-23.76 44.8-73.55 22.34-106.67-25.93-38.19-123.52-39.49-127.73 47.47-1.16 24.16 9.47 45.63 26.08 58.95 24.79 1.97 50.73 2.19 77.71.43.56-.04 1.08-.09 1.61-.18h0zm-22.37-10.84h0c-34.48 17.2-62.04-15.45-62.89-47.35-.49-18 6.67-33.29 18.36-43.35 6.47-4.72 13.97-7.99 23.95-9.54 18.96-2.93 39.52 3.81 50.51 19.9 17.95 26.49-4.99 67.89-29.92 80.35h0z" fill="#fcfcfc"/><path d="M234.88 694.75c25.88-43.86-1.23-101.33-51.61-106.59-30.32-3.16-57.77 15.78-70.82 42.2-7.54 15.29-8.57 46.88 3.97 62.8 20.87 51.85 93.1 44.53 118.46 1.59h0zm-18.99-8.85h0c-17.08 34.14-68.92 29.11-83.8-3.78-5.67-12.42-5.87-24.87-2.75-36.43.85-2.11 1.68-4.19 2.66-6.18 10.81-22.26 33.22-33.05 57.29-28.8 34.81 6.14 39.79 48.94 26.6 75.2h0z" fill="#fcfcfc"/><path d="M362 791.34c-25.91-38.22-123.5-39.52-127.67 47.46-2.37 49.08 43.64 87.1 90.2 68.02 42.02-17.27 63.34-77.42 37.48-115.47h0zm-44.71 95.81h0c-34.42 17.22-62.04-15.49-62.87-47.35-.45-18 6.7-33.31 18.36-43.37 6.47-4.68 13.99-7.99 23.91-9.54 19.01-2.89 39.58 3.81 50.53 19.93 17.94 26.44-4.99 67.86-29.93 80.33h0z" fill="#fcfcfc"/><path d="M244.28 354.2c25.86-43.81-1.23-101.31-51.61-106.57-30.34-3.18-57.77 15.79-70.82 42.23-7.54 15.25-8.55 46.82 3.99 62.73 20.91 51.86 93.09 44.55 118.44 1.61h0zm-18.99-8.84h0c-17.08 34.14-68.92 29.1-83.8-3.78-5.62-12.42-5.87-24.87-2.75-36.45.85-2.12 1.68-4.17 2.66-6.18 10.83-22.24 33.22-33.05 57.27-28.8 34.84 6.16 39.81 48.94 26.62 75.21h0z" fill="#fcfcfc"/></g></g></g></svg>