<svg xmlns="http://www.w3.org/2000/svg" width="665.5" height="1080" viewBox="0 0 665.5 1080"><g id="a"/><g id="b"><g id="c"><g id="d"><g><path d="M324.64.0h16.22v129.75H324.64z" fill="#fbb040"/><path d="M296.11 32.44h73.28v16.22H296.11z" fill="#fbb040"/></g><path d="M466.31 421.35H332.75 199.19V287.8 217.31L332.75 120.85 466.31 217.31V287.8 421.35z" fill="#46ccbf"/><path d="M469.9 240.8 332.75 149.38 195.61 240.8 188.19 233.57 332.75 116.68 477.31 233.57 469.9 240.8z" fill="#3c2415"/><path d="M477.31 233.57 332.75 137.2 188.19 233.57 180.52 205.99 332.75 104.5 484.98 205.99 477.31 233.57z" fill="#603913"/><path d="M399.66 255.22c0 36.96-29.96 66.92-66.91 66.92s-66.91-29.96-66.91-66.92 29.96-66.91 66.91-66.91 66.91 29.96 66.91 66.91z" fill="#d2fcff"/><path d="M399.66 255.22h-4.06c0 17.37-7.03 33.06-18.41 44.45-11.39 11.38-27.08 18.41-44.45 18.41-17.37.0-33.06-7.03-44.45-18.41-11.38-11.38-18.41-27.07-18.41-44.45.0-17.37 7.03-33.06 18.41-44.44 11.39-11.38 27.08-18.41 44.45-18.41s33.06 7.03 44.45 18.41c11.38 11.39 18.4 27.08 18.41 44.44h8.12c0-39.19-31.78-70.96-70.97-70.96s-70.96 31.77-70.96 70.96 31.77 70.97 70.96 70.97 70.96-31.77 70.97-70.97h-4.06z" fill="#fbb040"/><path d="M280.26 250.78c.41-.78.99-1.45 1.73-2.01 6.44-4.98 24.87-1.77 43.97 8.11 19.3 9.98 32.64 23.34 32.02 31.44-.06.84-.27 1.61-.64 2.33-3.95 7.64-24.41 4.91-45.69-6.1-21.28-11.01-35.34-26.13-31.38-33.77z" fill="#d37c09"/><path d="M330.93 264.75c0 8.37 2.27 15.15 5.07 15.15s5.06-6.78 5.06-15.15-2.27-15.15-5.06-15.15-5.07 6.78-5.07 15.15z" fill="#f9ed32"/><path d="M325.96 256.88c-19.11-9.88-37.54-13.09-43.97-8.11 2.74-5.44 12.96-5.44 20.91-14.68 14.38-16.71 29.86-39.91 48.39-32.06 16.81 7.13 10.63 34.74 6.78 57.3-2.51 14.78 2.79 23.42-.09 28.98.63-8.1-12.72-21.46-32.02-31.44z" fill="#fbb040"/><path d="M346.88 197.16h-2.03c0 4.2 3.4 7.6 7.6 7.6s7.6-3.4 7.6-7.6-3.4-7.6-7.6-7.6-7.6 3.4-7.6 7.6h4.05c0-1.96 1.59-3.54 3.55-3.54 1.96.0 3.54 1.58 3.54 3.54s-1.59 3.54-3.54 3.54c-1.96.0-3.54-1.59-3.55-3.54h-2.03z" fill="#fbb040"/><path d="M624.68 974.58H332.75 40.82V709.68 555.6L332.75 344.77 624.68 555.6V709.68 974.58z" fill="#46ccbf"/><path d="M624.41 606.96 332.75 407.12 41.09 606.96 16.77 591.16 332.75 335.65 648.74 591.16 624.41 606.96z" fill="#3c2415"/><path d="M648.74 591.16 332.75 380.5 16.77 591.16.0 530.87 332.75 309.03 665.5 530.87 648.74 591.16z" fill="#603913"/><path d="M212.61 503.48h60.07v123.14H212.61z" fill="#603913"/><path d="M392.82 503.48h60.07v123.14H392.82z" fill="#603913"/><path d="M80.32 755.63V816 876.37H140.69 201.05V816 755.63H140.69 80.32z" fill="#fbb040"/><path d="M531.13 755.63H470.76V816 876.37H531.13 591.49V816 755.63H531.13z" fill="#fbb040"/><path d="M83.47 758.77h54.06v54.06H83.47z" fill="#d2fcff"/><path d="M134.53 761.77v48.06H86.48v-48.06h48.05m6.01-6H80.47v60.07h60.07v-60.07z" fill="#fbb040"/><path d="M143.54 758.77h54.06v54.06H143.54z" fill="#d2fcff"/><path d="M194.59 761.77v48.06h-48.05v-48.06h48.05m6.01-6h-60.07v60.07h60.07v-60.07z" fill="#fbb040"/><path d="M83.47 818.84h54.06v54.06H83.47z" fill="#d2fcff"/><path d="M134.53 821.84v48.05H86.48v-48.05h48.05m6.01-6.01H80.47v60.07h60.07v-60.07z" fill="#fbb040"/><path d="M143.54 818.84h54.06v54.06H143.54z" fill="#d2fcff"/><path d="M194.59 821.84v48.05h-48.05v-48.05h48.05m6.01-6.01h-60.07v60.07h60.07v-60.07z" fill="#fbb040"/><path d="M473.91 758.77h54.06v54.06H473.91z" fill="#d2fcff"/><path d="M524.97 761.77v48.06h-48.06v-48.06h48.06m6.01-6h-60.07v60.07h60.07v-60.07z" fill="#fbb040"/><path d="M533.98 758.77h54.06v54.06H533.98z" fill="#d2fcff"/><path d="M585.04 761.77v48.06h-48.06v-48.06h48.06m6-6h-60.07v60.07h60.07v-60.07z" fill="#fbb040"/><path d="M473.91 818.84h54.06v54.06H473.91z" fill="#d2fcff"/><path d="M524.97 821.84v48.05h-48.06v-48.05h48.06m6.01-6.01h-60.07v60.07h60.07v-60.07z" fill="#fbb040"/><path d="M533.98 818.84h54.06v54.06H533.98z" fill="#d2fcff"/><path d="M585.04 821.84v48.05h-48.06v-48.05h48.06m6-6.01h-60.07v60.07h60.07v-60.07z" fill="#fbb040"/><g><path d="M597.52 999.04h3.89c-.36-.73-.7-1.47-1.01-2.22-.93.78-1.89 1.52-2.88 2.22z" fill="#7ac943"/><path d="M656.25 999.04c2.06-4.12 3.24-8.75 3.24-13.67.0-16.94-10.72-30.67-27.65-30.67-4.47.0-11.71.98-15.54 2.7-2.43-22.59-27.55-40.18-50.78-40.18-24.88.0-39.05 20.17-39.05 45.05.0 15.2 7.55 28.61 19.08 36.77h110.7z" fill="#7ac943"/></g><path d="M275.68 507.98h54.06v54.07H275.68z" fill="#d2fcff"/><path d="M326.74 510.99v48.05h-48.05v-48.05h48.05m6.01-6.01h-60.07v60.07h60.07v-60.07z" fill="#fbb040"/><path d="M335.75 507.98h54.07v54.07H335.75z" fill="#d2fcff"/><path d="M386.81 510.99v48.05h-48.05v-48.05h48.05m6.01-6.01h-60.07v60.07h60.07v-60.07z" fill="#fbb040"/><path d="M275.68 568.05h54.06v54.07H275.68z" fill="#d2fcff"/><path d="M326.74 571.06v48.05h-48.05v-48.05h48.05m6.01-6.01h-60.07v60.06h60.07v-60.06z" fill="#fbb040"/><path d="M335.75 568.05h54.07v54.07H335.75z" fill="#d2fcff"/><path d="M386.81 571.06v48.05h-48.05v-48.05h48.05m6.01-6.01h-60.07v60.06h60.07v-60.06z" fill="#fbb040"/><g><path d="M68.86 999.04h-3.89c.36-.73.7-1.47 1-2.22.93.78 1.9 1.52 2.89 2.22z" fill="#7ac943"/><path d="M10.13 999.04c-2.06-4.12-3.25-8.75-3.25-13.67.0-16.94 10.72-30.67 27.66-30.67 4.47.0 11.71.98 15.54 2.7 2.43-22.59 27.55-40.18 50.79-40.18 24.88.0 39.04 20.17 39.04 45.05.0 15.2-7.55 28.61-19.08 36.77H10.13z" fill="#7ac943"/></g><path d="M576.03 1055.67H89.48L113.8 1007.01H551.7L576.03 1055.67z" fill="#ebcea7"/><path d="M89.48 1055.67h486.55V1080H89.48z" fill="#e5b57c"/><path d="M551.7 1009.72H113.8L138.13 961.07H527.37L551.7 1009.72z" fill="#ebcea7"/><path d="M113.8 1009.72h437.9v24.33H113.8z" fill="#e5b57c"/><g><path d="M235.44 962.56V827.41c0-59.47 43.79-108.12 97.31-108.12s97.31 48.65 97.31 108.12v135.15" fill="#603913"/><path d="M239.49 962.56V827.41c0-28.73 10.58-54.8 27.54-73.65 16.98-18.84 40.2-30.41 65.71-30.41s48.74 11.57 65.71 30.41c16.96 18.85 27.55 44.92 27.54 73.65v135.15c0 2.24 1.81 4.06 4.06 4.06s4.05-1.81 4.05-4.06V827.41c0-30.73-11.31-58.72-29.63-79.07-18.3-20.35-43.72-33.1-71.74-33.1-28.01.0-53.44 12.75-71.74 33.1-18.32 20.36-29.62 48.34-29.63 79.07v135.15c0 2.24 1.82 4.06 4.06 4.06s4.05-1.81 4.05-4.06z" fill="#fbb040"/><path d="M430.06 958.51H235.44c-2.24.0-4.06 1.81-4.06 4.05s1.82 4.06 4.06 4.06h194.62c2.24.0 4.05-1.81 4.05-4.06s-1.81-4.05-4.05-4.05" fill="#fbb040"/><path d="M336.81 962.56V719.29c0-2.24-1.82-4.05-4.06-4.05s-4.06 1.81-4.06 4.05v243.27c0 2.24 1.81 4.06 4.06 4.06s4.06-1.81 4.06-4.06" fill="#fbb040"/></g></g></g></g></svg>