<svg xmlns="http://www.w3.org/2000/svg" width="1058.31" height="1080" viewBox="0 0 1058.31 1080"><g id="a"/><g id="b"><g id="c"><g id="d"><path d="M526.87 1080h-24.3c-.49.0-.95-.22-1.26-.61-.31-.38-.42-.88-.31-1.36l24.3-107.36c.2-.87 1.06-1.41 1.93-1.22.87.2 1.41 1.06 1.22 1.93l-23.85 105.39h21.19l42.38-106.34c.33-.83 1.27-1.23 2.09-.9.83.33 1.23 1.27.9 2.1l-42.78 107.36c-.25.61-.84 1.01-1.5 1.01z" fill="#131a21"/><path d="M835.89 1080h-24.3c-.66.0-1.25-.4-1.5-1.01l-42.79-107.36c-.33-.83.07-1.77.9-2.1s1.77.07 2.09.9l42.38 106.34h21.19l-23.85-105.39c-.2-.87.35-1.73 1.22-1.93.86-.2 1.73.35 1.93 1.22l24.3 107.36c.11.48.0.98-.31 1.36-.31.38-.77.61-1.26.61z" fill="#131a21"/><path d="M433.24 971.03 457.53 1078.39H433.24L390.45 971.03H433.24z" fill="#131a21"/><path d="M510.93 971.11H159.33s-72.41-246.23-76.43-312.61c-4.02-66.38 35.88-76.89 165.61-77.44 129.72-.55 383.17 73.92 383.17 73.92l-120.74 316.12z" fill="#ff9000"/><path d="M523.22 851.3h-61.01c-1.22.0-2.21-.99-2.21-2.21s.99-2.21 2.21-2.21h59.11c6.57-44.66 19.36-92.22 19.49-92.7.32-1.18 1.54-1.88 2.71-1.56 1.18.32 1.87 1.53 1.56 2.71-.13.49-13.22 49.14-19.66 94.07-.16 1.09-1.09 1.89-2.19 1.89z" fill="#fcfcfc"/><path d="M108.48 975.05 95.9 1032.88 129.09 1044.95 162.03 1028.35 183.4 971.03 108.48 975.05z" fill="#fcfcfc"/><path d="M129.09 1046.56c-.19.0-.37-.03-.55-.1l-33.19-12.07c-.76-.28-1.19-1.07-1.02-1.86l12.57-57.83c.16-.71.77-1.23 1.49-1.27l74.92-4.02c.53-.04 1.06.22 1.39.66.32.44.4 1.01.21 1.52l-21.37 57.32c-.14.38-.42.69-.79.88l-32.94 16.59c-.23.11-.47.17-.72.17zm-31.31-14.71 31.21 11.35 31.75-16 20.29-54.43-71.24 3.82-12.01 55.25z" fill="#131a21"/><path d="M169.07 1021.82l-13.91 56.57H1.62s-1.26-19.11 18.86-26.9c20.11-7.79 40.98-9.81 58.08-22.13 17.1-12.32 20.11-28.91 20.11-28.91.0.0 31.18 10.06 33.94 29.92 20.87-15.84 36.46-8.55 36.46-8.55z" fill="#fcfcfc"/><path d="M155.16 1080H1.62c-.85.0-1.55-.66-1.61-1.51-.01-.2-1.09-20.38 19.88-28.51 7.01-2.72 14.15-4.75 21.05-6.71 13.22-3.76 25.7-7.31 36.67-15.22 16.38-11.8 19.44-27.74 19.47-27.9.08-.46.36-.86.76-1.09.39-.24.88-.3 1.32-.15 1.26.41 29.61 9.76 34.53 28.67 20.35-14.28 35.4-7.53 36.05-7.22.7.33 1.06 1.1.88 1.84l-13.91 56.57c-.18.72-.82 1.23-1.56 1.23zm-151.93-3.22H153.89l13.27-53.95c-3.94-1.27-16.85-3.86-33.57 8.83-.46.34-1.06.42-1.59.2-.53-.22-.9-.7-.98-1.27-2.24-16.08-24.86-25.64-31.2-28.02-1.32 4.77-6.05 17.82-20.32 28.1-11.42 8.23-24.18 11.86-37.67 15.7-6.83 1.94-13.89 3.95-20.77 6.61-15.73 6.1-17.65 19.3-17.83 23.79z" fill="#131a21"/><path d="M201.82 975.05 189.25 1032.88 222.43 1044.95 255.37 1028.35 276.74 971.03 201.82 975.05z" fill="#fcfcfc"/><path d="M222.43 1046.56c-.19.0-.37-.03-.55-.1l-33.19-12.07c-.76-.28-1.19-1.07-1.02-1.86l12.57-57.83c.16-.71.77-1.23 1.49-1.27l74.92-4.02c.53-.04 1.06.22 1.39.66.32.44.4 1.01.21 1.52l-21.37 57.32c-.14.38-.42.69-.79.88l-32.94 16.59c-.23.11-.47.17-.72.17zm-31.31-14.71 31.21 11.35 31.75-16 20.29-54.43-71.24 3.82-12.01 55.25z" fill="#131a21"/><path d="M527.52 968.07 502.6 1078.39H527.52L570.25 969.53H768.21L811.97 1078.39H835.81L811.06 967.16 527.52 968.07z" fill="#fcfcfc"/><path d="M484.17 79.23l-9.31 9.93s2.95 42.67 9.31 71.1c6.37 28.43 15.78 34.58 29.14 34.17 13.35-.41 27.85-6.57 27.85-6.57.0.0 3.61 15.13 5.68 28.06 2.07 12.93-.07 13.81-5.1 19.09s-12.99 40.52 37.97 31.47c50.96-9.05 51.96-62.69 51.96-62.69l-81.13-160.91-66.38 36.37z" fill="#fcfcfc"/><path d="M363.48 541.34s-106.6 29.17-141.8 44.59c-35.2 15.42-58.33 43.25-71.4 85.48-13.07 42.24-83.47 312.44-83.47 312.44h216.9l122.02-204.32 128.73-259.81h-106.1l-64.87 21.62z" fill="#476ea6"/><path d="M545.81 230.89s-7.67 23.49 18.98 24.33c26.65.84 51.24-22.01 51.24-22.01.0.0-83.09 308.64-84.6 308.13-1.51-.5-116.81-17.05-116.81-17.05.0.0 47.51-266.45 131.19-293.41z" fill="#99bfed"/><path d="M547.53 229.85h-.03c-.89-.02-1.6-.75-1.58-1.64.28-14.46-4.34-32.74-5.84-38.26-5.32 1.87-22.03 7.32-31.67 5.86-11.95-1.81-21.18-9.74-27.32-42.53-5.98-31.91-8.38-71.88-8.41-72.28-.05-.89.63-1.65 1.52-1.7.86-.06 1.65.62 1.7 1.51.02.4 2.41 40.16 8.35 71.87 5.8 30.93 14.04 38.33 24.64 39.94 10.52 1.58 31.5-6.21 31.71-6.29.42-.16.89-.13 1.29.07.4.2.7.56.83.99.28.94 6.77 23.24 6.44 40.88-.02.88-.73 1.58-1.61 1.58z" fill="#131a21"/><path d="M409.41 478.32c-9.05 46.26-45.93 63.02-45.93 63.02.0.0 72.75-12.07 77.77-22.8 5.03-10.73 16.76-96.88 43.25-165.94 26.48-69.06 63.02-124.37 63.02-124.37.0.0-38.72-3.44-74.92 16.68-36.21 20.11-127.47 124.9-141.05 139.76-13.58 14.86-20.37 15.87-37.46 7.32-17.1-8.55-115.66-84.73-115.66-84.73l-68.89 79.2s103.42 89.17 142.31 113.98c38.89 24.81 80.79 14.41 106.94-5.7 26.15-20.11 57-49.24 57-49.24l-6.38 32.82z" fill="#fcfcfc"/><path d="M618.76 228.24s-29.67 52.3-49.45 113.31c-19.78 61.01-45.13 160.58-58.77 192.42-13.64 31.85-52.86 60.01-99.12 92.52-46.26 32.52-84.81 63.36-115.99 120.68-31.18 57.32-46.93 143.14-46.93 143.14h203.49s11.6-62.02 34.63-101.24c23.03-39.22 73.32-42.24 73.32-42.24l152.53-232.65-49.61-241.37s24.14-40.9-44.08-44.59z" fill="#fcfcfc"/><path d="M451.99 891.94H248.5c-.48.0-.93-.21-1.24-.58-.31-.37-.43-.85-.35-1.32.16-.86 16.16-86.73 47.1-143.62 32.05-58.92 71.71-89.77 116.48-121.23 43.58-30.63 84.75-59.57 98.57-91.84 7.93-18.52 19.82-59.95 32.4-103.82 8.9-31.01 18.1-63.08 26.32-88.47 19.6-60.47 49.28-113.08 49.58-113.61.44-.78 1.42-1.05 2.2-.61.77.44 1.05 1.42.61 2.2-.3.52-29.82 52.86-49.32 113.01-8.21 25.33-17.4 57.37-26.29 88.36-12.61 43.97-24.52 85.49-32.54 104.2-14.18 33.11-55.71 62.3-99.68 93.21-44.43 31.23-83.79 61.83-115.5 120.13-28.15 51.75-43.86 127.81-46.4 140.76h200.21c1.84-9.21 13.51-64.59 34.57-100.45 23.2-39.51 74.1-43 74.61-43.03.89-.01 1.65.63 1.7 1.51.05.89-.62 1.65-1.51 1.71-.49.03-49.71 3.44-72.02 41.45-22.62 38.52-34.32 100.1-34.44 100.72-.14.76-.81 1.31-1.58 1.31z" fill="#131a21"/><path d="M655.2 176.49 703.97 156.98 760.68 142.9 823.89 137.48H878.07L919.6 141.45 951.75 147.23 992.21 169.27 1004.85 203.22 1003.04 232.84 953.56 288.46 884.21 341.92 839.78 414.88 781.99 485.68 672.36 244.03 626.67 235.37V218.75L655.2 176.49z" fill="#fcfcfc"/><path d="M449.98 118.31 452.87 115.45 460.39 113.94H466.11L469.12 115.02 470.39 128.09 471.05 142.05 470.87 149.86 469.51 153.73 466.72 154.94 462.92 154.57 458.23 147.59l-8.25-29.28z" fill="#fcfcfc"/><path d="M630.33 620.12s-67.37 13.5-91.01 153.58c-23.64 140.08-28.39 197.41-28.39 197.41h151.92l73.42-383.17-105.93 32.18z" fill="#ff9000"/><path d="M728.55 605.37s-49.53 15.84-70.69 44.8c-21.16 28.95-33.77 85.14-33.77 85.14l-24.39 113.78-19.99 122.02h237.68s177.67-524.64 203.15-595.71c25.48-71.07 52.97-111.13 27.82-172.98-25.14-61.85-129.74-78.44-237.68-69.73-107.95 8.72-162.59 45.26-162.59 45.26l2.01 6.03s64.25-37.55 168.9-42.24c104.65-4.69 151.25 13.07 170.69 40.56 19.44 27.49.67 48.61-37.21 75.43-37.88 26.82-132.42 117.67-179.35 261.82-27.15 74.09-44.59 85.82-44.59 85.82z" fill="#ff9000"/><path d="M579.71 964.94c-.11.0-.23.0-.35-.03-1.2-.19-2.03-1.32-1.83-2.52 1.62-10.24 40.11-251.38 68.16-298.96 28.26-47.93 96.7-70.93 99.6-71.89 1.16-.38 2.41.25 2.79 1.41.38 1.16-.25 2.41-1.4 2.79-.7.23-69.78 23.45-97.18 69.93-27.63 46.86-67.21 294.91-67.61 297.41-.17 1.09-1.11 1.86-2.18 1.86z" fill="#fcfcfc"/><path d="M640.05 347.24s37.71 156.89 36.71 162.42c-1.01 5.53-132.25 42.74-132.25 42.74l25.65 102.58s129.23-35.2 175.49-51.29c46.26-16.09 60.84-40.73 49.28-110.12-11.57-69.39-41.9-187.23-69.06-224.44-27.15-37.21-101.91-40.9-101.91-40.9l16.09 119.01z" fill="#fcfcfc"/><path d="M570.15 656.6c-.28.0-.56-.08-.81-.22-.37-.22-.64-.58-.75-1L542.95 552.8c-.21-.84.29-1.7 1.13-1.94 48.07-13.63 125.46-36.81 131.11-41.73-.22-7.36-21.94-100.1-36.69-161.5-.21-.87.33-1.74 1.19-1.94.87-.2 1.74.32 1.94 1.19 6.31 26.25 37.74 157.5 36.73 163.09-.32 1.76-.81 4.42-67.62 24.7-28.62 8.68-57.46 16.94-64.28 18.88l24.87 99.47c14.97-4.09 130.89-35.9 173.8-50.82 47.42-16.49 59.14-42.82 48.22-108.34-11.73-70.37-42.15-187.28-68.77-223.75-26.4-36.17-99.95-40.2-100.69-40.24-.89-.04-1.57-.8-1.53-1.69.05-.89.8-1.63 1.69-1.53 3.08.15 75.84 4.16 103.13 41.56 26.91 36.88 57.57 154.44 69.35 225.12 11.26 67.55-.98 94.74-50.34 111.91-45.79 15.93-174.31 50.97-175.6 51.32-.14.04-.28.06-.42.06z" fill="#131a21"/><path d="M534.45 73.69s.17 20.11 16.93 50.28 39.56 45.42 39.56 45.42c0 0-11.57 18.94-3.02 38.72 8.55 19.78 34.86 29.33 61.18 17.77 26.32-11.57 29.5-47.27 13.58-64.03-15.92-16.76-34.7-10.04-34.7-10.04.0.0 20.87-36.39 4.27-82.15-16.59-45.76-54.81-48.27-54.81-48.27.0.0-18.86-25.65-49.87-20.78-31.01 4.86-36.54 20.45-36.54 20.45.0.0-40.4.84-42.91 31.85-2.51 31.01 13.91 52.3 86.32 20.78z" fill="#ff9000"/><path d="M466.1 156.75c-1.27.0-2.55-.49-3.81-1.47-6.9-5.38-12.42-25.26-13.76-37.55-.05-.45.09-.9.4-1.24.24-.27 5.98-6.54 20.15-3.52.69.15 1.2.72 1.27 1.42.25 2.62.53 5.22.79 7.75 2.03 19.43 3.49 33.48-4.35 34.57-.23.03-.46.05-.69.05zm-14.27-38.56c1.57 13.11 7.11 30.4 12.44 34.55.77.6 1.46.85 2.07.77 4.75-.66 3.14-16.11 1.59-31.04-.22-2.15-.45-4.35-.67-6.58-9.34-1.69-13.98 1.14-15.42 2.3z" fill="#131a21"/><path d="M506.13 149.86c-11.67.0-22.32-34.55-23.51-38.54-.17-.57-.01-1.19.41-1.61.45-.45 11.33-10.89 33.62-9 .76.06 1.38.66 1.47 1.42 2.89 24.34 1.95 37.36-3.12 43.53-2.06 2.51-4.89 3.92-8.41 4.19-.15.01-.3.02-.45.02zm-20.12-38.46c4.34 14.14 13.28 35.24 20.08 35.24.08.0.16.0.25.0 2.64-.2 4.66-1.19 6.17-3.02 4.32-5.25 5.12-17.55 2.56-39.79-16.81-1.07-26.46 5.5-29.06 7.58z" fill="#131a21"/><path d="M469.9 122.02c-.36.0-.73-.12-1.03-.37-.68-.57-.77-1.58-.21-2.26.26-.31 6.48-7.63 18.17-3.57.84.29 1.29 1.21 1 2.05-.29.84-1.2 1.28-2.05.99-9.51-3.3-14.43 2.34-14.64 2.58-.32.38-.78.57-1.23.57z" fill="#131a21"/><path d="M575.18 122.02c-.87.0-1.58-.69-1.61-1.56-.03-.89.67-1.63 1.55-1.67.1.0 9.71-.43 15.19-7.74 2.52-3.36 2.77-7.81.65-11.35-2.5-4.17-7.56-6-13.86-5.03-15.01 2.31-59.3 13.16-59.75 13.27-.87.21-1.74-.32-1.95-1.18-.21-.86.32-1.74 1.18-1.95.45-.11 44.88-11 60.02-13.33 7.56-1.16 13.96 1.29 17.12 6.56 2.8 4.67 2.47 10.53-.84 14.94-6.42 8.57-17.21 9.01-17.66 9.03-.02.0-.03.0-.05.0z" fill="#131a21"/><path d="M490.91 695.67c-2.41.0-4.51-1.44-5.54-3.84-2.6-6.05 9.85-55.73 21.86-77.35 12.63-22.74 40.91-40.07 42.11-40.79.76-.47 1.75-.22 2.21.54.46.76.22 1.75-.54 2.21-.29.17-28.75 17.62-40.96 39.6-12.28 22.11-23.32 70.2-21.71 74.52.54 1.26 1.52 1.94 2.76 1.87 1.66-.11 4.04-1.75 5.27-6.04l12.4-43.41 3.1.88-12.4 43.41c-1.69 5.9-5.32 8.19-8.17 8.38-.13.0-.26.01-.39.01z" fill="#131a21"/><path d="M503.27 698.53c-.21.0-.42.0-.64-.03-5.77-.51-6.69-7.66-6.32-11.8.08-.89.87-1.55 1.74-1.47.89.08 1.54.86 1.47 1.74.0.08-.57 7.96 3.4 8.31 4.54.4 7-8.54 8.84-17.33 2.17-10.38 9.63-31.65 9.94-32.55.3-.84 1.21-1.27 2.06-.99.84.3 1.28 1.22.99 2.06-.08.22-7.7 21.98-9.83 32.15-2.03 9.67-4.77 19.91-11.64 19.91z" fill="#131a21"/><path d="M515.97 699.87c-1.58.0-2.97-.56-4.04-1.64-3.22-3.24-2.6-10.17-2.52-10.94.09-.88.9-1.53 1.77-1.43.89.09 1.53.88 1.44 1.77-.16 1.58-.22 6.52 1.6 8.34.54.55 1.22.75 2.14.67 3.51-.35 5.54-9.56 7.33-17.69.91-4.11 1.84-8.36 3.03-12.04 3.8-11.74 6.17-19.82 6.19-19.9.25-.86 1.15-1.34 2-1.1.86.25 1.35 1.14 1.1 2-.02.08-2.4 8.2-6.22 19.99-1.14 3.53-2.06 7.7-2.95 11.74-2.32 10.53-4.32 19.62-10.16 20.21-.24.02-.47.04-.7.04z" fill="#131a21"/><path d="M528.88 699.94c-1.61.0-3.04-.54-4.17-1.58-3.43-3.15-3.14-9.84-3.09-10.59.05-.89.8-1.59 1.7-1.51.89.05 1.57.81 1.52 1.7-.09 1.62.1 6.23 2.06 8.03.68.63 1.51.83 2.64.68 3.07-.44 3.59-2.25 5.32-9.86 1.19-5.27 2.83-12.48 6.47-22.64 8.95-24.98 21.31-34.3 21.83-34.69.72-.52 1.72-.37 2.25.34.53.72.38 1.72-.33 2.25-.12.09-12.13 9.22-20.71 33.18-3.57 9.98-5.19 17.08-6.36 22.27-1.75 7.7-2.62 11.56-8 12.33-.38.05-.75.08-1.11.08z" fill="#131a21"/><path d="M167.76 325.49 116.56 261.28 111.83 263.18V268.42L114.3 278.35 125.5 298.03 79.45 284.13 52.72 278.35 45.49 280.34 46.76 285.75 52.17 289.19 58.86 293.88 45.49 292.8 41.34 296.23 43.14 300.38 50.01 303.63 65.54 309.77 63.91 311.04 49.29 309.95 41.34 310.68 38.81 315.01 42.42 318.8 72.76 325.49 63.19 327.65 44.59 326.39 40.98 329.28V333.07L44.59 336.68 56.87 338.13 68.43 339.03 80.35 341.92 95.34 346.62 133.63 365.25 167.76 325.49z" fill="#fcfcfc"/><path d="M129.4 365.25c-.3.0-.59-.08-.86-.25-.19-.12-19.31-12.22-40.11-19.12-13.74-4.55-25.18-5.63-33.52-6.42-4.42-.42-7.9-.75-10.32-1.49-4.58-1.41-6.25-5.02-5.86-7.77.42-3.01 2.99-4.99 6.55-5.06 3.02-.04 12.84.43 22.65.98-9.02-1.84-18.23-3.78-22.55-4.89-6.42-1.65-7.86-4.38-7.93-6.38-.09-2.62 2.25-5.11 5.98-6.35 2.53-.84 11.27.14 20.76 1.6-10.98-3.47-20.98-7-22.58-8.8-1.82-2.04-2.3-4.52-1.26-6.48.89-1.67 3.63-4.28 11.99-3.11 1.23.17 2.72.46 4.39.83-9.7-3.47-13.37-7-12.56-11.88.17-1.03.77-1.89 1.72-2.5 1.27-.81 5.11-3.27 27.52 2.91 12.7 3.5 38.86 11.29 48.85 14.28-3.46-5.86-10.03-17.41-11.73-23.48-1.58-5.6-.33-8.72 1-10.36 1.36-1.68 3.13-2.22 4.3-2.12 1.77.12 3.39 2.31 8.23 9.24 2.49 3.56 5.3 7.58 8.25 11.22 6.96 8.58 33.52 41.72 33.79 42.05.56.7.44 1.71-.25 2.27-.69.55-1.71.45-2.27-.25-.27-.33-26.82-33.47-33.78-42.04-3.02-3.72-5.88-7.8-8.39-11.4-2.33-3.33-4.95-7.09-5.98-7.85-.31.05-.88.27-1.41.92-.69.85-1.67 2.96-.4 7.45 2.18 7.74 13.41 26.06 13.52 26.24.35.57.31 1.3-.09 1.83-.41.53-1.1.76-1.74.56-.37-.11-37-11.11-52.76-15.45-19.52-5.38-24.01-3.89-24.93-3.3-.25.16-.26.26-.27.32-.37 2.21.79 5.26 13.17 9.23 12 3.84 34.35 13.13 34.57 13.22.8.33 1.19 1.24.89 2.05-.3.81-1.2 1.24-2.01.97-.32-.1-31.67-10.28-42.09-11.75-5.44-.78-8.08.29-8.69 1.43-.39.74-.09 1.79.82 2.81 2.11 2.13 27.03 9.96 49.39 16.24.84.23 1.33 1.09 1.13 1.93-.2.84-1.06 1.37-1.89 1.2-16.6-3.37-44.37-8.24-48.2-6.96-2.49.83-3.81 2.26-3.77 3.17.03.91 1.49 2.34 5.51 3.37 9.65 2.47 45.1 9.38 45.46 9.45.83.16 1.4.94 1.29 1.79-.11.84-.8 1.47-1.7 1.4-.39-.02-39.36-2.52-45.88-2.38-1.95.04-3.23.89-3.42 2.28-.2 1.45.84 3.39 3.62 4.24 2.1.65 5.44.96 9.67 1.36 8.5.8 20.14 1.9 34.23 6.57 21.19 7.02 40.64 19.33 40.83 19.46.75.48.97 1.47.49 2.23-.31.48-.83.75-1.36.75z" fill="#131a21"/><path d="M363.48 542.96c-.7.0-1.33-.45-1.54-1.14-.24-.77.14-1.6.87-1.94.36-.16 36.24-17.01 45.01-61.87.75-3.81 1.51-7.8 2.31-11.93.99-5.14 2.02-10.49 3.1-16-8.96 8.3-32.8 30.05-53.46 45.94-24.65 18.96-67.93 31.85-108.79 5.78-38.54-24.58-141.46-113.22-142.49-114.12-.33-.28-.53-.68-.56-1.1-.03-.43.11-.85.39-1.17l68.89-79.2c.56-.65 1.53-.74 2.2-.22.98.76 98.63 76.19 115.39 84.56 16.67 8.33 22.65 7.16 35.55-6.96 1.54-1.69 4.08-4.53 7.43-8.28 27.81-31.14 101.7-113.85 134.03-131.81 36.22-20.12 75.47-16.91 75.85-16.87.57.05 1.06.39 1.31.91.25.51.2 1.11-.11 1.59-.36.55-36.75 55.97-62.86 124.06-17.86 46.57-29.15 101.72-35.9 134.68-3.42 16.69-5.68 27.72-7.39 31.37-5.24 11.17-71.44 22.45-78.97 23.7-.09.01-.18.02-.27.02zm53.87-97.09c-1.44 7.23-2.78 14.2-4.05 20.82-.8 4.13-1.56 8.12-2.31 11.94-6.53 33.37-27.58 51.79-39.12 59.61 27.67-5.05 64.86-13.84 67.92-20.38 1.55-3.3 3.9-14.77 7.15-30.65 6.77-33.05 18.1-88.36 36.05-135.18 23.2-60.49 54.47-111.03 61.67-122.33-9.36-.32-41.38.01-71.28 16.62-31.85 17.7-108.13 103.08-133.19 131.14-3.36 3.76-5.91 6.61-7.45 8.3-13.95 15.27-21.31 16.7-39.37 7.67-16.22-8.11-102.89-74.84-114.72-83.97l-66.83 76.83c11.79 10.13 104.83 89.78 140.89 112.79 39.46 25.17 81.27 12.7 105.09-5.62 24.24-18.64 52.9-45.41 56.5-48.79 8.97-44.93 21.91-99.97 47.66-147.48.42-.78 1.4-1.08 2.19-.65.78.42 1.07 1.4.65 2.19-25.62 47.27-38.49 102.23-47.43 147.03.0.04-.01.07-.02.11z" fill="#131a21"/><path d="M141.56 979.76c-.13.0-.27-.02-.41-.05-.86-.22-1.38-1.1-1.16-1.96.59-2.29 59.21-229.54 75.14-272.7 16.37-44.34 30.36-73.03 86.35-97.47 54.78-23.9 135.16-47.11 135.97-47.34.86-.25 1.75.25 2 1.1.25.86-.25 1.75-1.1 2-.8.23-80.99 23.38-135.57 47.2-54.82 23.92-68.54 52.09-84.62 95.63-15.88 43.01-74.45 270.1-75.04 272.39-.19.73-.84 1.21-1.56 1.21z" fill="#131a21"/><path d="M262.41 1021.82l-13.91 56.57H94.96s-1.26-19.11 18.86-26.9c20.11-7.79 40.98-9.81 58.08-22.13 17.1-12.32 20.11-28.91 20.11-28.91.0.0 31.18 10.06 33.94 29.92 20.87-15.84 36.46-8.55 36.46-8.55z" fill="#fcfcfc"/><path d="M248.5 1080H94.96c-.85.0-1.55-.66-1.61-1.51-.01-.2-1.09-20.38 19.88-28.51 7.01-2.72 14.15-4.75 21.05-6.71 13.22-3.76 25.7-7.31 36.67-15.22 16.38-11.8 19.44-27.74 19.47-27.9.08-.46.36-.86.76-1.09.4-.24.88-.3 1.32-.15 1.26.41 29.61 9.76 34.53 28.67 20.36-14.28 35.4-7.53 36.05-7.22.7.33 1.06 1.1.88 1.84l-13.91 56.57c-.18.72-.82 1.23-1.56 1.23zm-151.93-3.22H247.24l13.27-53.95c-3.94-1.27-16.86-3.86-33.58 8.83-.45.34-1.06.42-1.59.2-.53-.22-.9-.7-.98-1.27-2.24-16.08-24.85-25.64-31.19-28.02-1.32 4.77-6.05 17.82-20.32 28.1-11.42 8.23-24.18 11.86-37.67 15.7-6.83 1.94-13.89 3.95-20.77 6.62-15.73 6.1-17.65 19.3-17.83 23.79z" fill="#131a21"/><path d="M526.87 828.96c-.16.0-.31-.02-.47-.05-1.19-.26-1.94-1.44-1.68-2.63.13-.59 13-59.28 16.23-72.74.28-1.19 1.48-1.92 2.66-1.63 1.19.28 1.92 1.48 1.63 2.66-3.22 13.42-16.08 72.07-16.21 72.66-.23 1.03-1.14 1.73-2.15 1.73z" fill="#fcfcfc"/></g></g></g></svg>