<svg xmlns="http://www.w3.org/2000/svg" width="1080" height="1080" viewBox="0 0 1080 1080"><g id="a"/><g id="b"><g id="c"><path id="d" d="M1073.16 562.67c4.6-7.35 6.84-15.08 6.84-22.68s-2.24-15.32-6.84-22.66c1.97-6.39 2.54-12.65 1.76-18.53-1.3-9.79-6.03-18.31-13.52-25.19.2-4.82-.28-9.29-1.36-13.29-3.05-11.34-10.49-20.15-21.2-25.8-.6-2.68-1.39-5.2-2.35-7.52-5.29-12.75-15.81-21.26-29.65-24.43-.28-.53-.52-1.09-.81-1.61-7.85-13.58-20.82-21.06-36.51-21.06-.59.0-1.18.03-1.78.05-4.52-4.84-9.71-8.47-15.35-10.79.68-1.64 1.3-3.32 1.78-5.09 1.07-4 1.56-8.46 1.36-13.28 7.49-6.89 12.22-15.41 13.52-25.19.78-5.88.21-12.13-1.76-18.52 4.6-7.34 6.84-15.08 6.84-22.67s-2.24-15.32-6.84-22.66c1.97-6.39 2.54-12.65 1.76-18.53-1.3-9.79-6.03-18.31-13.52-25.19.2-4.82-.28-9.29-1.36-13.29-3.05-11.34-10.49-20.15-21.2-25.8-.6-2.68-1.39-5.2-2.35-7.52-5.29-12.75-15.81-21.26-29.65-24.43-.28-.53-.52-1.09-.81-1.61-7.85-13.58-20.82-21.06-36.51-21.06-.59.0-1.18.03-1.78.05-8.33-8.92-18.97-13.78-30.42-13.78-4.13.0-8.57.69-13.17 2.13-7.36-4.61-15.11-6.87-22.71-6.87s-15.36 2.25-22.71 6.87c-4.6-1.44-9.03-2.13-13.17-2.13-11.45.0-22.08 4.86-30.41 13.78-.59-.02-1.19-.05-1.78-.05-5.99.0-11.57 1.1-16.63 3.2-2.35-5.75-6.05-10.9-10.91-15.37.2-4.82-.28-9.29-1.36-13.29-3.05-11.34-10.49-20.15-21.2-25.8-.6-2.68-1.39-5.2-2.35-7.52-5.29-12.75-15.81-21.26-29.65-24.43-.28-.53-.52-1.09-.81-1.61-7.85-13.58-20.82-21.06-36.51-21.06-.59.0-1.18.03-1.78.05-8.33-8.92-18.97-13.78-30.42-13.78-4.13.0-8.57.69-13.17 2.13-7.36-4.61-15.11-6.87-22.72-6.87s-15.36 2.25-22.72 6.87c-4.6-1.44-9.03-2.13-13.17-2.13-11.45.0-22.08 4.86-30.41 13.78-.59-.02-1.19-.05-1.78-.05-15.69.0-28.65 7.48-36.5 21.06-.3.51-.53 1.08-.81 1.61-13.85 3.17-24.36 11.68-29.65 24.43-.96 2.32-1.75 4.83-2.35 7.51-10.71 5.65-18.15 14.46-21.2 25.8-1.07 4-1.56 8.46-1.36 13.29-4.86 4.47-8.56 9.62-10.91 15.37-5.06-2.1-10.65-3.2-16.64-3.2-.59.0-1.18.03-1.78.05-8.33-8.92-18.97-13.78-30.42-13.78-4.13.0-8.57.69-13.17 2.13-7.36-4.61-15.11-6.87-22.71-6.87s-15.36 2.25-22.72 6.87c-4.6-1.44-9.03-2.13-13.17-2.13-11.44.0-22.08 4.86-30.41 13.78-.59-.02-1.19-.05-1.78-.05-15.69.0-28.65 7.48-36.5 21.06-.3.51-.53 1.08-.81 1.61-13.85 3.18-24.36 11.68-29.65 24.43-.96 2.32-1.75 4.83-2.35 7.52-10.71 5.65-18.15 14.46-21.2 25.8-1.07 4-1.56 8.46-1.36 13.29-7.49 6.89-12.22 15.41-13.52 25.19-.78 5.88-.21 12.13 1.76 18.52-4.6 7.34-6.84 15.08-6.84 22.67.0 7.59 2.24 15.32 6.83 22.66-.76 2.47-1.34 4.93-1.68 7.34-.1.72-.17 1.44-.23 2.16-.02.23-.06.46-.07.69-.21 2.84-.14 5.63.22 8.34 1.3 9.79 6.03 18.31 13.52 25.19-.2 4.82.28 9.29 1.36 13.28.47 1.76 1.09 3.44 1.78 5.09-5.63 2.32-10.82 5.95-15.34 10.78-.59-.02-1.19-.05-1.78-.05-15.69.0-28.65 7.48-36.5 21.06-.3.52-.53 1.08-.81 1.61-13.84 3.18-24.36 11.68-29.65 24.43-.96 2.32-1.75 4.83-2.35 7.51-10.71 5.65-18.15 14.46-21.2 25.8-1.07 4-1.56 8.46-1.36 13.29-7.49 6.89-12.22 15.41-13.52 25.2-.78 5.88-.21 12.13 1.76 18.52C2.24 524.67.0 532.41.0 540c0 7.59 2.24 15.32 6.83 22.66-1.37 4.43-2.07 8.8-2.1 13.03-.01 1.87.1 3.71.34 5.51 1.3 9.79 6.03 18.31 13.52 25.19-.05 1.14-.07 2.28-.04 3.38.1 3.54.58 6.86 1.4 9.91 3.05 11.34 10.49 20.15 21.2 25.8.6 2.68 1.39 5.2 2.35 7.51 5.29 12.75 15.81 21.26 29.65 24.43.28.53.52 1.09.82 1.61 7.85 13.58 20.82 21.05 36.51 21.05.59.0 1.18-.03 1.78-.05 4.52 4.84 9.71 8.46 15.35 10.79-.68 1.64-1.3 3.32-1.77 5.08-1.07 4-1.56 8.46-1.36 13.29-7.49 6.89-12.22 15.41-13.52 25.19-.78 5.88-.21 12.13 1.76 18.52-4.6 7.34-6.84 15.08-6.84 22.67s2.24 15.32 6.83 22.66c-1.97 6.39-2.54 12.65-1.76 18.54 1.3 9.79 6.03 18.31 13.52 25.19-.05 1.14-.07 2.28-.04 3.38.1 3.54.58 6.86 1.4 9.91 3.05 11.34 10.49 20.15 21.2 25.8.6 2.68 1.39 5.2 2.35 7.52 5.29 12.75 15.81 21.26 29.65 24.43.28.53.52 1.09.81 1.61 7.85 13.58 20.82 21.05 36.51 21.05.59.0 1.18-.03 1.77-.05 8.33 8.92 18.97 13.78 30.41 13.78h0c4.13.0 8.57-.69 13.17-2.13 7.36 4.61 15.11 6.87 22.72 6.87s15.36-2.25 22.71-6.87c4.6 1.44 9.03 2.13 13.17 2.13.81.0 1.62-.02 2.42-.07 8.22-.5 15.95-3.53 22.63-8.78 1.87-1.47 3.67-3.11 5.36-4.93.59.02 1.18.05 1.77.05h0c5.99.0 11.57-1.1 16.63-3.2 2.35 5.75 6.05 10.9 10.91 15.37-.2 4.82.28 9.29 1.36 13.28 3.05 11.34 10.49 20.15 21.2 25.8.6 2.69 1.39 5.2 2.35 7.52 5.29 12.75 15.81 21.25 29.65 24.43.28.53.52 1.09.81 1.61 7.85 13.58 20.82 21.05 36.51 21.05.59.0 1.18-.03 1.77-.05 8.33 8.92 18.97 13.78 30.41 13.78h0c4.13.0 8.57-.69 13.17-2.13 7.36 4.62 15.11 6.87 22.72 6.87s15.36-2.25 22.72-6.87c4.6 1.44 9.03 2.13 13.17 2.13.81.0 1.62-.02 2.42-.07 10.52-.64 20.25-5.42 27.99-13.71.59.02 1.18.05 1.77.05h0c15.69.0 28.65-7.48 36.5-21.06.3-.51.53-1.08.81-1.6 13.85-3.18 24.36-11.68 29.65-24.43.96-2.32 1.75-4.83 2.35-7.52 9.5-5.01 16.42-12.5 19.99-22.03.46-1.22.86-2.48 1.21-3.77 1.07-4 1.56-8.46 1.36-13.28 4.86-4.47 8.56-9.62 10.91-15.37 5.06 2.1 10.65 3.2 16.65 3.2.59.0 1.18-.03 1.77-.05 8.33 8.92 18.97 13.78 30.41 13.78h0c4.13.0 8.56-.69 13.16-2.13 7.36 4.62 15.11 6.87 22.72 6.87s15.36-2.25 22.71-6.87c4.6 1.44 9.04 2.13 13.17 2.13 11.45.0 22.08-4.86 30.41-13.78.59.02 1.18.05 1.77.05h0c15.69.0 28.65-7.48 36.5-21.06.3-.51.53-1.08.81-1.6 13.85-3.18 24.36-11.68 29.65-24.43.96-2.32 1.75-4.83 2.35-7.51 9.5-5.01 16.42-12.5 19.99-22.03.46-1.22.86-2.48 1.21-3.77 1.07-4 1.56-8.46 1.36-13.28 7.49-6.89 12.22-15.41 13.52-25.19.78-5.88.21-12.13-1.76-18.52 4.6-7.34 6.84-15.08 6.84-22.67s-2.24-15.32-6.83-22.66c1.97-6.39 2.54-12.65 1.76-18.53-1.29-9.79-6.02-18.31-13.52-25.19.2-4.82-.28-9.29-1.36-13.29-.47-1.77-1.09-3.45-1.78-5.09 5.63-2.32 10.82-5.95 15.34-10.78.59.02 1.18.05 1.77.05h0c15.69.0 28.65-7.48 36.5-21.06.3-.51.53-1.07.81-1.6 13.85-3.18 24.36-11.68 29.66-24.43.96-2.32 1.75-4.83 2.35-7.52 10.71-5.65 18.15-14.46 21.2-25.8 1.07-4 1.56-8.46 1.36-13.28.28-.26.56-.51.83-.77.13-.13.28-.25.41-.38.91-.9 1.76-1.83 2.59-2.78.34-.39.68-.78 1-1.18.99-1.23 1.91-2.49 2.74-3.8.02-.03.03-.05.05-.07.1-.15.18-.31.27-.46.78-1.25 1.49-2.54 2.12-3.86.45-.94.84-1.9 1.22-2.88 1.1-2.87 1.88-5.87 2.29-9 .24-1.8.35-3.64.34-5.51-.03-4.22-.73-8.58-2.1-13.01zm-104 132.16c-.78 1.01-1.58 1.96-2.4 2.88-5.52-.31-11.16-1.54-16.85-3.61 2.93-7.8 5.67-15.69 8.17-23.69 6.99 3.07 13.85 5.34 20.51 6.73-2.43 6.67-5.54 12.64-9.43 17.69zm-241.29 255.59c-2.67-3.47-4.95-7.39-6.93-11.63 7.59-3.45 15.05-7.12 22.39-10.98 2.87 7.35 6.17 13.8 9.82 19.35-7.73 3.63-15.42 5.72-22.89 6.13-.82-.92-1.62-1.86-2.39-2.87zM43.17 436.05c6.48-3.25 14.21-5.29 22.87-6.04-.41 7.78.26 16.19 1.87 25.03-9 .77-17.27 2.41-24.67 4.82-1.59-8.97-1.47-16.97-.08-23.82zm42.71-32.59c4.05.0 8.21.42 12.46 1.17-2.43 7.43-4.01 15.71-4.75 24.67-6.96-1.26-13.68-1.92-20.08-1.92-1.69.0-3.35.05-4.98.14.73-8.53 2.77-16.24 6.16-22.93 3.52-.73 7.25-1.13 11.18-1.13zm24.95-18.29c.78-1.01 1.58-1.96 2.4-2.88 5.52.31 11.16 1.54 16.85 3.62-2.93 7.8-5.67 15.69-8.17 23.69-6.99-3.07-13.85-5.34-20.51-6.73 2.43-6.67 5.55-12.64 9.43-17.7zm38.2-204.69c6.48-3.25 14.21-5.29 22.88-6.04-.41 7.78.26 16.19 1.87 25.03-9 .77-17.28 2.41-24.67 4.82-1.59-8.97-1.47-16.97-.08-23.82zm42.71-32.59c4.05.0 8.21.42 12.46 1.17-2.43 7.43-4.01 15.71-4.75 24.67-6.96-1.26-13.68-1.92-20.08-1.92-1.69.0-3.35.05-4.98.14.73-8.53 2.77-16.24 6.16-22.93 3.52-.73 7.25-1.13 11.18-1.13zm24.96-18.29c.78-1.01 1.58-1.96 2.4-2.88 7.47.42 15.15 2.51 22.88 6.13-4.17 6.36-7.9 13.87-11.03 22.58-8.09-3.81-16.02-6.53-23.68-8.13 2.43-6.67 5.55-12.64 9.43-17.7zm135.43.0c2.66 3.47 4.94 7.38 6.92 11.62-7.59 3.45-15.04 7.12-22.39 10.98-2.87-7.35-6.18-13.8-9.82-19.35 7.73-3.63 15.42-5.72 22.89-6.13.82.92 1.62 1.87 2.4 2.88zm52.48-54.98c6.48-3.25 14.21-5.29 22.88-6.04-.41 7.78.26 16.19 1.87 25.03-9 .77-17.28 2.41-24.67 4.82-1.59-8.97-1.47-16.97-.08-23.82zm42.71-32.59c4.05.0 8.21.42 12.46 1.17-2.43 7.43-4.01 15.71-4.75 24.67-6.96-1.26-13.68-1.92-20.08-1.92-1.69.0-3.34.05-4.97.14.73-8.53 2.77-16.24 6.16-22.93 3.52-.73 7.25-1.13 11.18-1.13zm24.96-18.29c.78-1.01 1.58-1.96 2.4-2.88 7.47.42 15.15 2.51 22.88 6.13-4.17 6.36-7.9 13.87-11.03 22.58-8.09-3.81-16.02-6.53-23.68-8.13 2.43-6.67 5.55-12.64 9.43-17.7zm135.43.0c3.89 5.06 7.01 11.02 9.43 17.7-7.67 1.6-15.6 4.32-23.69 8.13-3.13-8.71-6.87-16.22-11.03-22.57 7.73-3.63 15.42-5.72 22.89-6.13.82.92 1.62 1.87 2.4 2.88zm36.13 19.42c3.39 6.69 5.43 14.4 6.16 22.93-1.63-.09-3.29-.14-4.98-.14-6.4.0-13.12.66-20.08 1.92-.74-8.96-2.31-17.23-4.75-24.67 4.25-.74 8.41-1.16 12.46-1.16s7.66.4 11.18 1.13zm31.46 55.28c-7.39-2.42-15.67-4.06-24.67-4.82 1.61-8.84 2.28-17.25 1.87-25.03 8.67.75 16.4 2.79 22.88 6.04 1.39 6.85 1.51 14.85-.08 23.82zm52.56 31.16c.78-1.01 1.58-1.96 2.4-2.88 7.47.42 15.15 2.51 22.88 6.13-3.64 5.56-6.95 12-9.82 19.35-7.35-3.86-14.8-7.54-22.39-10.98 1.98-4.24 4.26-8.16 6.92-11.62zm135.43.0c3.89 5.06 7.01 11.02 9.43 17.7-7.67 1.6-15.6 4.32-23.69 8.13-3.13-8.71-6.87-16.22-11.03-22.58 7.73-3.63 15.42-5.72 22.89-6.13.82.92 1.62 1.87 2.4 2.88zm36.13 19.42c3.39 6.69 5.43 14.4 6.16 22.93-1.63-.09-3.29-.14-4.98-.14-6.4.0-13.12.66-20.08 1.92-.74-8.96-2.31-17.23-4.74-24.67 4.25-.74 8.41-1.16 12.46-1.16s7.66.4 11.18 1.13zm31.46 55.28c-7.39-2.42-15.67-4.06-24.67-4.82 1.61-8.84 2.28-17.25 1.87-25.03 8.67.75 16.39 2.79 22.88 6.04 1.39 6.85 1.51 14.85-.08 23.82zm38.27 180.88c3.89 5.06 7.01 11.03 9.43 17.7-6.66 1.39-13.52 3.66-20.52 6.73-2.49-8-5.23-15.89-8.17-23.69 5.69-2.08 11.33-3.31 16.85-3.62.82.92 1.62 1.87 2.4 2.88zm36.13 19.42c3.39 6.69 5.43 14.4 6.16 22.93-1.63-.09-3.29-.14-4.98-.14-6.4.0-13.12.66-20.08 1.92-.74-8.96-2.31-17.23-4.74-24.67 4.25-.74 8.41-1.16 12.46-1.16s7.66.4 11.18 1.13zm31.46 55.29c-7.39-2.42-15.67-4.06-24.67-4.83 1.61-8.84 2.28-17.25 1.87-25.03 8.67.75 16.4 2.79 22.88 6.04 1.39 6.85 1.51 14.85-.08 23.82zm-22.81 190.12c.41-7.78-.26-16.19-1.87-25.03 9.01-.77 17.28-2.41 24.67-4.83.16.92.32 1.83.44 2.73.11.77.19 1.53.28 2.28.03.28.07.57.1.85.08.84.14 1.67.2 2.49.01.18.03.37.04.55.31 5.44-.07 10.42-.98 14.92-6.48 3.25-14.21 5.29-22.88 6.04zm22.22-3.22c-.5 1.88-1.09 3.66-1.79 5.34-4.75 11.45-13.98 19.28-26.17 22.62 3.06-6.63 4.88-14.17 5.54-22.42 8.4-.69 15.94-2.57 22.42-5.53zM404.61 1005.4c-.75-3.67-1.14-7.66-1.09-11.97.05-3.73.43-7.69 1.17-11.85 7.39 2.41 15.67 4.06 24.67 4.82-1.61 8.84-2.28 17.25-1.87 25.03-8.67-.75-16.4-2.79-22.88-6.04zm23.08 8.35c.66 8.25 2.48 15.79 5.54 22.42-12.19-3.34-21.42-11.17-26.17-22.61-.7-1.67-1.29-3.46-1.79-5.34 6.48 2.96 14.02 4.84 22.42 5.53zM110.84 694.84c-3.89-5.06-7.01-11.02-9.43-17.7 6.66-1.39 13.53-3.66 20.52-6.73 2.49 8 5.23 15.89 8.17 23.68-5.69 2.08-11.33 3.31-16.85 3.62-.82-.92-1.62-1.87-2.4-2.88zm-15.16-262.83c6.06 1.21 12.3 2.9 18.7 5.03-1.6 6.64-3.05 13.34-4.34 20.09-4.77-.77-9.45-1.37-14.02-1.79-.68-8.18-.79-15.99-.33-23.32zm17.33-114.79c.05-.63.14-1.27.22-1.91.04-.29.05-.57.1-.86.24-1.62.59-3.26 1.03-4.91 4.06 5.75 9.62 11.21 16.71 16.12-3.69 7.89-5.73 15.37-6.39 22.19-6.33-6.3-10.32-13.9-11.46-22.53-.35-2.63-.42-5.33-.2-8.09zm88.54-140.79c7.22 1.45 14.71 3.55 22.41 6.31-1.05 6.2-1.85 12.81-2.38 19.81-6.75-1.27-13.33-2.2-19.7-2.79-.68-8.18-.79-15.99-.33-23.32zm255.58-105.86c7.22 1.45 14.71 3.55 22.41 6.31-1.05 6.2-1.85 12.81-2.38 19.81-6.75-1.27-13.33-2.2-19.7-2.79-.68-8.18-.79-15.99-.33-23.32zm165.41 23.32c-6.37.59-12.95 1.52-19.7 2.79-.53-7-1.33-13.6-2.38-19.81 7.7-2.76 15.19-4.86 22.41-6.31.46 7.34.34 15.14-.33 23.32zm255.58 105.86c-6.37.59-12.95 1.52-19.7 2.79-.53-7-1.33-13.6-2.38-19.81 7.7-2.76 15.19-4.86 22.41-6.31.46 7.34.34 15.14-.33 23.33zm105.86 255.58c-4.57.42-9.25 1.02-14.02 1.79-1.29-6.75-2.74-13.45-4.34-20.09 6.4-2.13 12.64-3.82 18.7-5.03.46 7.34.34 15.14-.33 23.32zM937.7 822.28c.16.23.31.45.47.68 3.17 4.45 5.78 8.82 7.9 13.08-6.31 4.16-13.8 7.89-22.53 10.99-3.19-6.53-7.16-13.35-12.01-20.39 7.63-3.63 14.48-7.5 20.53-11.55 1.71 2.02 3.29 4.03 4.77 6.03.29.39.6.78.88 1.17zm-49.46 109.84c-4.05.0-8.21-.42-12.46-1.17 2.43-7.43 4.01-15.71 4.75-24.67 6.96 1.26 13.67 1.91 20.07 1.91h.01c1.69.0 3.35-.05 4.97-.14-.73 8.53-2.77 16.24-6.16 22.93-3.52.73-7.25 1.13-11.18 1.13zm-255.58 105.86c-4.05.0-8.21-.42-12.46-1.17 2.43-7.43 4.01-15.71 4.75-24.67 6.96 1.26 13.67 1.91 20.07 1.91h.01c1.69.0 3.34-.05 4.97-.14-.73 8.53-2.77 16.24-6.16 22.93-3.52.73-7.25 1.13-11.18 1.13zm-27.35 21.17c-7.47-.42-15.15-2.51-22.88-6.13 4.17-6.36 7.9-13.87 11.03-22.57 8.09 3.81 16.02 6.53 23.68 8.13-2.43 6.67-5.54 12.64-9.43 17.7-.78 1.01-1.58 1.96-2.4 2.88zm-424.74-128.16c-3.39-6.69-5.43-14.4-6.16-22.93 1.63.09 3.29.14 4.98.14 6.4.0 13.12-.66 20.08-1.92.03.4.08.78.12 1.17.15 1.63.29 3.27.5 4.86.87 6.67 2.25 12.9 4.13 18.64-4.25.74-8.41 1.17-12.46 1.17s-7.66-.39-11.18-1.13zm-112.22-280.81c-.44-7.77.2-16.18 1.83-25.06 3.16.21 6.39.34 9.71.34h.01c4.48.0 9.09-.21 13.81-.59-.66 8.25-.76 16.13-.28 23.54-6.91 1.26-13.57 1.92-19.91 1.92-1.68.0-3.33-.05-4.95-.14-.07.0-.14-.01-.22-.02zm3.93-143.09c2.26-.94 4.61-1.85 7-2.75 1.62-.61 3.27-1.21 4.95-1.8 2.3 4.69 4.75 9.41 7.47 14.18-4.81 2.81-9.32 5.66-13.58 8.51-4.51-5.24-8.53-10.38-12.1-15.4 1.55-.71 3.14-1.4 4.75-2.09.51-.22 1-.44 1.51-.65zm30.9-11.54c-1.48-5.54-2.72-10.97-3.78-16.29 2.3-.15 4.64-.27 7.02-.35-2.79 19.97-4.26 40.36-4.26 61.09s1.48 41.12 4.26 61.09c-2.38-.09-4.72-.21-7.02-.35 1.06-5.33 2.3-10.76 3.78-16.29l.29-1.1-1.1-.3c-5.6-1.51-10.9-3.14-15.97-4.86 2.4-4.88 4.98-9.8 7.84-14.76l.57-.99-.99-.57c-5.05-2.92-9.76-5.88-14.2-8.84 3.52-4.02 7.32-8.09 11.43-12.21l.8-.81-.8-.81c-4.11-4.13-7.91-8.2-11.43-12.21.97-.65 1.93-1.3 2.93-1.95 3.57-2.31 7.33-4.61 11.27-6.9l.99-.57-.57-.99c-2.86-4.97-5.44-9.89-7.84-14.76 5.07-1.72 10.37-3.35 15.97-4.86l1.1-.3-.29-1.1zm62.76-238.45c1.26-.63 2.54-1.25 3.84-1.87 3.62 5.13 7.69 10.37 12.27 15.71-5.82 3.97-11.12 7.97-15.94 11.98-6.45-5.46-11.98-10.92-16.69-16.3 4.96-3.31 10.47-6.49 16.51-9.52zm19.2-8.34c1.62-.61 3.27-1.21 4.95-1.8 2.3 4.69 4.75 9.41 7.47 14.18-4.82 2.82-9.32 5.66-13.59 8.51-4.51-5.24-8.53-10.38-12.1-15.4 3.71-1.7 7.6-3.34 11.69-4.91.51-.2 1.05-.39 1.57-.58zm23.09-7.39 1.1-.3-.29-1.1c-1.48-5.54-2.72-10.97-3.78-16.29 5.34-.34 10.89-.55 16.7-.55h1.14v-1.14c.01-5.81.21-11.36.56-16.71 5.33 1.06 10.76 2.3 16.3 3.78l1.1.29.3-1.1c1.52-5.63 3.15-10.94 4.86-16 4.87 2.4 9.79 5.01 14.76 7.87l.99.57.57-.99c2.87-4.96 5.83-9.68 8.85-14.2 1.74 1.53 3.48 3.11 5.22 4.73-32.66 24.63-61.76 53.74-86.4 86.4-1.63-1.75-3.21-3.5-4.73-5.23 4.45-2.97 9.15-5.92 14.2-8.84l.99-.57-.57-.99c-2.86-4.97-5.44-9.89-7.84-14.76 2.83-.96 5.73-1.9 8.73-2.79 2.36-.71 4.77-1.4 7.23-2.06zm648.63-19.39v1.14h1.14c5.81.0 11.36.21 16.7.56-1.06 5.33-2.3 10.76-3.78 16.3l-.29 1.1 1.1.3c5.6 1.51 10.9 3.14 15.96 4.86-2.4 4.88-4.98 9.8-7.84 14.76l-.57.99.99.57c5.05 2.92 9.76 5.88 14.2 8.84-1.52 1.73-3.1 3.48-4.73 5.23-24.63-32.66-53.74-61.77-86.4-86.4 1.74-1.61 3.48-3.2 5.22-4.73 3.02 4.51 5.98 9.24 8.86 14.2l.57.99.99-.57c4.97-2.86 9.89-5.47 14.76-7.87 1.71 5.06 3.35 10.37 4.86 16l.3 1.1 1.1-.29c5.54-1.48 10.96-2.72 16.29-3.78.34 5.35.55 10.9.56 16.71zm120.74 274.97c5.6 1.51 10.9 3.14 15.97 4.86-2.4 4.88-4.98 9.8-7.84 14.76l-.57.99.99.57c5.05 2.92 9.76 5.88 14.2 8.84-3.53 4.02-7.32 8.09-11.43 12.21l-.8.81.8.81c1.71 1.71 3.35 3.42 4.96 5.11 2.26 2.39 4.41 4.75 6.47 7.1-4.45 2.97-9.15 5.92-14.2 8.84l-.99.57.57.99c2.86 4.97 5.44 9.89 7.84 14.76-5.07 1.72-10.37 3.35-15.97 4.86l-1.1.3.29 1.1c1.48 5.54 2.72 10.97 3.78 16.29-2.3.15-4.64.27-7.02.35 2.79-19.97 4.26-40.36 4.26-61.09s-1.47-41.13-4.26-61.09c2.38.09 4.72.2 7.02.35-1.06 5.33-2.3 10.76-3.78 16.29l-.29 1.1 1.1.3zm58.81 25.26c-4.71 5.38-10.25 10.84-16.69 16.3-4.82-4.01-10.13-8.01-15.94-11.98 4.59-5.34 8.65-10.58 12.27-15.71 5.68 2.68 10.92 5.48 15.7 8.41 1.61.98 3.15 1.98 4.66 2.99zm-39.65 57.3c6.62-2.33 12.8-4.81 18.53-7.45 4.82 6.96 8.76 13.68 11.93 20.12-6.83 2.3-14.37 4.24-22.66 5.72-2.22-6.02-4.82-12.16-7.79-18.39zm5.5 18.79c-6.08 1.01-12.55 1.78-19.41 2.29-1.01-5.12-2.17-10.32-3.56-15.63 5.36-1.47 10.44-3.05 15.31-4.71 2.93 6.12 5.47 12.14 7.67 18.05zm-6.53-20.85c-2.3-4.69-4.75-9.41-7.47-14.18 4.82-2.82 9.32-5.66 13.59-8.51 4.51 5.24 8.53 10.38 12.1 15.4-5.64 2.58-11.7 5.02-18.22 7.3zm-4.4-37.45c3.92-3.96 7.54-7.88 10.92-11.75 5.72 3.9 10.93 7.82 15.68 11.75-4.75 3.92-9.95 7.85-15.68 11.74-3.38-3.87-7-7.78-10.92-11.75zm10.52-14.76c-4.27-2.86-8.77-5.7-13.59-8.51 2.72-4.77 5.17-9.49 7.47-14.18 6.52 2.28 12.58 4.72 18.22 7.3-3.57 5.02-7.59 10.16-12.1 15.4zm-73.49 348.88c-6.82 2.07-14.4 3.48-22.59 4.16-1.45-7.27-3.57-14.83-6.33-22.61 8.37-1.52 15.98-3.5 22.89-5.85 3.96 8.42 6.57 16.33 8.08 23.65-.68.22-1.36.45-2.05.66zm-255.58 105.86c-6.82 2.07-14.4 3.48-22.59 4.16-1.23-6.16-2.93-12.52-5.09-19.05 7.76-1.91 15.45-4.02 23.04-6.35 3.19 7.28 5.37 14.16 6.69 20.58-.68.22-1.36.45-2.05.66zM96.01 624.66c4.57-.42 9.25-1.02 14.02-1.79 1.29 6.75 2.74 13.45 4.34 20.09-6.4 2.14-12.64 3.82-18.7 5.03-.46-7.34-.34-15.14.33-23.32zm-25.4-1.8c1.45-7.19 3.57-14.68 6.33-22.39 6.18 1.05 12.76 1.84 19.72 2.37-1.27 6.78-2.16 13.35-2.75 19.72-4.79.4-9.47.61-14.01.61-3.18.0-6.28-.11-9.3-.31zm-36.78-52.41c.67-1.02 1.38-2.04 2.11-3.07.16-.23.3-.45.47-.67.28-.39.59-.78.88-1.17 1.48-2 3.06-4.01 4.77-6.03 6.05 4.06 12.9 7.93 20.53 11.56-4.85 7.04-8.82 13.85-12.01 20.39-8.74-3.11-16.22-6.84-22.53-11 1.62-3.27 3.54-6.61 5.78-10zm38.54-38.46c1.73-1.25 3.51-2.5 5.34-3.74 3.38 3.87 7 7.78 10.92 11.75-3.92 3.96-7.54 7.88-10.92 11.75-5.73-3.9-10.93-7.82-15.68-11.75 3.23-2.67 6.66-5.34 10.34-8zm-12.12 6.52c-6.45-5.46-11.98-10.92-16.69-16.3 5.99-3.99 12.78-7.81 20.36-11.39 3.62 5.13 7.69 10.37 12.27 15.71-5.82 3.97-11.12 7.98-15.94 11.98zm-8.91 11.05s.05-.05.07-.07c2.73-2.66 5.68-5.33 8.84-8 4.82 4.01 10.13 8.01 15.94 11.98-4.59 5.34-8.65 10.58-12.28 15.71-7.58-3.58-14.37-7.4-20.36-11.39.68-.77 1.37-1.55 2.08-2.33 1.8-1.96 3.68-3.93 5.7-5.9zm34.03 30.69c4.87 1.66 9.95 3.24 15.31 4.71-1.39 5.31-2.56 10.51-3.57 15.63-6.86-.51-13.33-1.27-19.41-2.29 2.19-5.91 4.73-11.93 7.67-18.05zm-1.14-2.8c-6.52-2.28-12.58-4.72-18.22-7.3 3.57-5.02 7.59-10.16 12.1-15.4 4.27 2.86 8.77 5.7 13.58 8.51-2.72 4.77-5.17 9.49-7.47 14.18zm-19.55-5.39c5.73 2.64 11.91 5.13 18.53 7.45-2.98 6.23-5.58 12.37-7.8 18.39-8.29-1.48-15.83-3.42-22.66-5.72 3.17-6.44 7.11-13.16 11.93-20.12zm9.97 28.03c-2.76 7.78-4.88 15.34-6.33 22.61-9.03-.75-17.29-2.39-24.64-4.82 1.5-7.32 4.12-15.23 8.08-23.65 6.91 2.35 14.52 4.33 22.89 5.85zm803.79 303.49c-7.22-1.45-14.71-3.55-22.41-6.31 1.05-6.2 1.85-12.81 2.38-19.81 6.75 1.27 13.33 2.2 19.7 2.79.68 8.18.79 15.99.33 23.33zm11.32-100.2c1.63 1.75 3.21 3.5 4.73 5.23-4.45 2.97-9.15 5.92-14.2 8.84l-.99.57.57.99c2.86 4.97 5.44 9.89 7.84 14.77-5.07 1.72-10.37 3.35-15.97 4.86l-1.1.3.29 1.1c1.48 5.54 2.72 10.97 3.78 16.3-5.35.34-10.89.55-16.7.55h-1.14v1.14c-.01 5.81-.21 11.36-.56 16.71-5.33-1.06-10.76-2.3-16.29-3.78l-1.1-.29-.3 1.1c-1.52 5.63-3.15 10.94-4.86 16-4.87-2.4-9.8-5.01-14.76-7.87l-.99-.57-.57.99c-2.87 4.96-5.83 9.68-8.86 14.2-1.74-1.53-3.48-3.11-5.22-4.73 32.66-24.63 61.76-53.74 86.4-86.4zm-.82 32.86c1.31 2.74 2.54 5.45 3.7 8.15 1.37 3.2 2.61 6.36 3.78 9.5-6.08 1.01-12.55 1.78-19.41 2.29-1.01-5.12-2.17-10.32-3.57-15.63 5.35-1.47 10.44-3.05 15.31-4.71.03.07.07.13.1.2.03.07.06.13.09.2zm-6.52-17.38c4.82-2.81 9.32-5.66 13.58-8.51 4.51 5.24 8.53 10.38 12.1 15.4-5.64 2.58-11.7 5.02-18.22 7.3-2.3-4.69-4.75-9.41-7.47-14.18zm-46.6 69.92c1.65-4.86 3.23-9.94 4.71-15.32 5.31 1.39 10.51 2.57 15.63 3.58-.51 6.87-1.28 13.34-2.29 19.43-5.91-2.2-11.93-4.75-18.04-7.69zm39.33-30.18c1.25 6.65 2.15 13.09 2.74 19.34-6.25-.59-12.69-1.52-19.31-2.77.34-5.13.54-10.45.57-16 5.55-.03 10.87-.24 16-.57zm-320.4 143.27c2.9-4.32 5.75-8.84 8.51-13.56 4.77 2.72 9.49 5.2 14.18 7.5-2.29 6.54-4.73 12.58-7.29 18.19-5.12-3.64-10.26-7.71-15.4-12.13zm-270.34-89.85c-4-4.83-7.91-10.03-11.72-15.6 1.93-1.69 3.87-3.43 5.8-5.23 4.66 3.47 9.4 6.84 14.19 10.13-.52.72-1.04 1.43-1.56 2.13-2.21 2.98-4.45 5.83-6.71 8.56zm-93.18-76.17c4.87 1.66 9.95 3.24 15.31 4.71-1.39 5.31-2.56 10.51-3.57 15.63-6.86-.51-13.33-1.27-19.41-2.29 2.19-5.91 4.73-11.93 7.67-18.05zm13.6 22.75c5.13.34 10.45.54 16 .57.03 5.55.24 10.87.57 16-6.62 1.25-13.06 2.17-19.31 2.77.59-6.25 1.49-12.69 2.74-19.34zm-2.96 21.66c6.37-.59 12.95-1.52 19.7-2.79.53 7 1.33 13.6 2.38 19.81-7.7 2.76-15.19 4.86-22.41 6.31-.46-7.34-.34-15.14.33-23.33zM269.65 896c-5.14 4.42-10.28 8.49-15.4 12.13-2.56-5.6-5-11.65-7.29-18.19 4.68-2.3 9.41-4.79 14.18-7.5 2.76 4.72 5.6 9.24 8.51 13.56zm-25.49-7.22c-6.11 2.94-12.13 5.49-18.04 7.69-1.01-6.09-1.78-12.56-2.29-19.43 5.12-1.01 10.32-2.19 15.63-3.58 1.47 5.38 3.05 10.46 4.71 15.32zm.75 2.18c2.33 6.64 4.82 12.8 7.44 18.49-6.77 4.7-13.49 8.69-20.11 11.97-2.3-6.83-4.24-14.37-5.72-22.65 6.03-2.23 12.16-4.82 18.39-7.8zm375.7 79.45c.74 4.57 1.29 9.03 1.7 13.39-6.25-.59-12.69-1.52-19.31-2.77.17-2.55.3-5.13.4-7.78 5.77-.84 11.51-1.79 17.21-2.85zm-20.03 12.5c-.51 6.86-1.28 13.34-2.29 19.43-5.91-2.2-11.93-4.75-18.04-7.69 1.65-4.86 3.23-9.94 4.71-15.32 5.31 1.39 10.51 2.57 15.63 3.58zm-21.08 13.92c6.23 2.99 12.37 5.58 18.39 7.8-1.49 8.29-3.42 15.83-5.72 22.65-6.62-3.27-13.34-7.27-20.11-11.97 2.62-5.69 5.11-11.85 7.44-18.49zm20.95 6.31c1.05-6.2 1.85-12.81 2.38-19.81 6.75 1.27 13.33 2.2 19.7 2.79.68 8.18.79 15.99.33 23.33-7.22-1.45-14.71-3.55-22.41-6.31zm-323.83-113.36c-1.74 1.61-3.48 3.2-5.22 4.73-3.02-4.51-5.98-9.24-8.86-14.2l-.57-.99-.99.57c-4.97 2.86-9.89 5.47-14.76 7.87-1.71-5.06-3.35-10.37-4.86-15.99l-.3-1.1-1.1.29c-5.54 1.48-10.96 2.72-16.3 3.78-.34-5.35-.55-10.89-.55-16.71v-1.14h-1.14c-5.81-.01-11.36-.21-16.7-.56 1.06-5.33 2.3-10.76 3.78-16.3l.29-1.1-1.1-.3c-5.6-1.51-10.9-3.14-15.97-4.86 2.4-4.88 4.98-9.8 7.84-14.77l.57-.99-.99-.57c-5.05-2.92-9.76-5.88-14.2-8.84 1.52-1.73 3.1-3.48 4.73-5.23 24.63 32.66 53.74 61.77 86.4 86.4zm-92.65-79.43c4.27 2.86 8.77 5.7 13.59 8.52-1.65 2.89-3.21 5.76-4.71 8.62-.97 1.86-1.86 3.71-2.76 5.56-6.52-2.28-12.58-4.72-18.22-7.3 3.57-5.02 7.59-10.16 12.1-15.4zm5.1 24.75c-2.98 6.23-5.58 12.37-7.8 18.39-8.29-1.48-15.83-3.42-22.66-5.72 3.17-6.44 7.11-13.17 11.93-20.12 5.73 2.64 11.91 5.13 18.53 7.45zm-6.27 20.96c6.18 1.05 12.76 1.84 19.73 2.37-1.27 6.78-2.16 13.35-2.75 19.72-4.79.4-9.47.61-14.01.61h-.02c-3.17.0-6.26-.11-9.28-.31 1.45-7.19 3.57-14.68 6.33-22.39zm41.54 43.5c1.52 8.36 3.51 15.97 5.86 22.88-8.12 3.85-16.07 6.55-23.74 8.11-2.46-7.4-4.03-15.69-4.75-24.67 7.3-1.45 14.86-3.56 22.63-6.32zm30.89 10.67c5.23-3.7 10.47-7.82 15.72-12.32 1.24 1.8 2.48 3.57 3.74 5.29 2.7 3.71 5.45 7.24 8.24 10.59-5.32 6.27-10.78 11.87-16.3 16.74-3.97-5.93-7.8-12.68-11.4-20.3zm284.76 67.61c20.74.0 41.13-1.48 61.09-4.26-.09 2.38-.21 4.72-.35 7.02-5.33-1.06-10.76-2.3-16.3-3.78l-1.1-.29-.29 1.1c-1.52 5.63-3.15 10.94-4.86 16-4.87-2.4-9.79-5.01-14.76-7.87l-.99-.57-.57.99c-2.87 4.96-5.83 9.68-8.86 14.2-2.08-1.83-4.16-3.71-6.25-5.66-1.99-1.87-3.97-3.79-5.96-5.76l-.81-.8-.81.8c-4.06 4.05-8.13 7.85-12.2 11.42-3.02-4.51-5.98-9.24-8.86-14.2l-.57-.99-.99.57c-4.97 2.86-9.89 5.47-14.76 7.87-1.71-5.06-3.35-10.37-4.86-15.99l-.29-1.1-1.1.29c-5.54 1.48-10.96 2.72-16.3 3.78-.15-2.3-.27-4.64-.35-7.02 19.97 2.79 40.36 4.26 61.09 4.26zm-37.45 17.97c4.68-2.3 9.41-4.79 14.18-7.5 2.76 4.72 5.6 9.24 8.51 13.56-5.14 4.42-10.28 8.49-15.4 12.13-2.56-5.6-5-11.65-7.29-18.19zm25.72 6.48c3.91-3.43 7.83-7.06 11.72-10.92 3.9 3.86 7.81 7.49 11.72 10.92-3.81 5.57-7.73 10.77-11.72 15.59-4-4.83-7.91-10.03-11.72-15.6zm65.94 26.02c2.35-6.91 4.34-14.52 5.86-22.88 7.77 2.76 15.33 4.87 22.63 6.32-.72 8.99-2.3 17.27-4.75 24.67-7.67-1.56-15.61-4.27-23.74-8.11zm28.64-58.33c6.75-1.29 13.44-2.74 20.08-4.34 2.14 6.41 3.79 12.64 5.01 18.68-3.02.2-6.12.31-9.3.31-4.54.0-9.22-.22-14.01-.61-.42-4.57-1.01-9.25-1.78-14.04zm187.49-73.98c2.9-4.32 5.75-8.84 8.51-13.56 4.77 2.72 9.49 5.21 14.18 7.51-2.29 6.54-4.73 12.58-7.29 18.19-5.12-3.64-10.26-7.71-15.4-12.13zm24.74-5.04c6.23 2.99 12.37 5.58 18.39 7.8-1.49 8.29-3.42 15.83-5.72 22.65-6.62-3.27-13.34-7.27-20.11-11.97 2.62-5.69 5.11-11.85 7.44-18.49zm42.38-32.53c6.97-.53 13.54-1.32 19.73-2.37 2.76 7.71 4.87 15.2 6.33 22.39-3.02.2-6.12.31-9.3.31-4.54.0-9.22-.22-14.01-.61-.59-6.37-1.48-12.94-2.75-19.72zm13.45-23.33c6.62-2.33 12.8-4.81 18.53-7.45 4.82 6.96 8.76 13.68 11.93 20.12-6.83 2.3-14.37 4.24-22.66 5.72-2.22-6.02-4.82-12.16-7.8-18.39zm.25-33.57c3.48-4.67 6.86-9.43 10.16-14.24 3.84 2.76 7.41 5.53 10.76 8.3-4.75 3.92-9.95 7.85-15.68 11.75-1.68-1.92-3.43-3.86-5.25-5.81zM178.66 292.72c-3.84-2.76-7.41-5.53-10.76-8.3 4.75-3.92 9.95-7.85 15.68-11.74 1.68 1.92 3.43 3.86 5.25 5.81-3.48 4.67-6.86 9.43-10.16 14.24zm-69.06 327.9c-4.55.74-9.01 1.31-13.37 1.72.59-6.25 1.49-12.69 2.74-19.34 2.55.17 5.13.3 7.78.4.84 5.78 1.79 11.52 2.85 17.22zm79.22 180.9c-1.81 1.95-3.56 3.89-5.25 5.81-5.72-3.9-10.93-7.82-15.68-11.75 3.35-2.77 6.93-5.54 10.76-8.3 3.3 4.81 6.68 9.57 10.16 14.24zm-31.19 48.3c6.91 2.35 14.53 4.33 22.9 5.85-2.76 7.78-4.88 15.34-6.33 22.61-9.03-.75-17.29-2.39-24.65-4.82 1.5-7.32 4.12-15.23 8.08-23.65zm18.42 30.89c3.16.21 6.39.34 9.71.34h.02c4.48.0 9.09-.21 13.8-.59-.66 8.25-.76 16.13-.28 23.54-6.91 1.26-13.58 1.92-19.92 1.92-1.76.0-3.48-.06-5.17-.15-.44-7.77.2-16.18 1.83-25.06zm77.3 30.83c3.45 7.26 7.1 13.76 10.9 19.51.22.33.45.65.67.98-6.91 5.89-13.91 10.63-20.89 14.15-4.17-6.32-7.92-13.82-11.04-22.58 6.71-3.3 13.51-7.31 20.37-12.05zm32.56 2.25c2.93-3.53 5.83-7.25 8.67-11.17 5.67 3.85 11.45 7.56 17.31 11.15-3.09 6.19-6.33 11.76-9.68 16.76-5.52-4.87-10.98-10.46-16.3-16.74zm173.48 56.61c5.7 1.06 11.44 2.01 17.21 2.85.09 2.65.23 5.24.4 7.78-6.62 1.25-13.07 2.17-19.32 2.77.41-4.37.97-8.83 1.71-13.39zm17.78 12.93c.53 7 1.33 13.6 2.38 19.81-7.7 2.76-15.19 4.86-22.42 6.31-.13-2.07-.23-4.16-.27-6.31-.1-5.45.12-11.14.61-17.02 6.38-.59 12.95-1.52 19.7-2.79zm2.25-.43c5.12-1.01 10.32-2.19 15.63-3.58 1.47 5.38 3.05 10.46 4.71 15.32-6.11 2.94-12.13 5.49-18.04 7.69-1.01-6.09-1.78-12.56-2.29-19.43zm21.08 13.92c2.33 6.64 4.82 12.8 7.44 18.49-6.77 4.7-13.49 8.69-20.11 11.97-2.3-6.83-4.24-14.37-5.72-22.65 6.03-2.23 12.16-4.82 18.39-7.8zm26.04 6.95c1.24 1.8 2.48 3.57 3.74 5.29 2.7 3.71 5.45 7.24 8.24 10.59-5.32 6.27-10.78 11.87-16.3 16.74-3.97-5.93-7.8-12.68-11.4-20.3 5.23-3.7 10.47-7.82 15.72-12.32zm14.96 15.89c4.09-4.91 8.09-10.22 11.98-15.89 5.24 4.5 10.49 8.62 15.72 12.32-3.6 7.62-7.43 14.37-11.4 20.3-5.52-4.87-10.98-10.46-16.3-16.74zm83.63-9.79c.13-1.95.24-3.9.29-5.91.14-5.64-.08-11.55-.56-17.63 4.71.38 9.32.59 13.8.59 3.33.0 6.57-.12 9.73-.34 1.64 8.88 2.27 17.29 1.83 25.06-1.69.1-3.41.16-5.17.16-6.34.0-13-.66-19.92-1.92zm176.39-118.68c1.93 1.8 3.86 3.54 5.8 5.23-3.81 5.57-7.73 10.77-11.72 15.59-2.8-3.38-5.56-6.95-8.27-10.69 4.8-3.29 9.54-6.66 14.19-10.13zm48.29 31.25c2.35-6.91 4.34-14.52 5.86-22.88 7.77 2.76 15.33 4.87 22.63 6.32-.72 8.99-2.29 17.27-4.75 24.67-7.67-1.56-15.61-4.27-23.74-8.11zm30.9-18.43c.48-7.42.39-15.29-.27-23.54 4.71.38 9.32.59 13.8.59 3.33.0 6.56-.12 9.73-.34 1.64 8.88 2.27 17.29 1.83 25.06-1.69.1-3.41.16-5.17.16-6.34.0-13-.66-19.92-1.92zm17.24-94.95c5.82-3.97 11.12-7.98 15.94-11.98 6.45 5.46 11.98 10.92 16.69 16.3-5.99 3.99-12.78 7.81-20.36 11.39-3.62-5.13-7.69-10.36-12.27-15.71zm75.31-205.65c2.65-.09 5.24-.23 7.78-.4 1.25 6.65 2.15 13.09 2.74 19.34-4.36-.41-8.82-.99-13.37-1.72 1.06-5.7 2.01-11.44 2.85-17.22zM540 102.17c-20.74.0-41.12 1.48-61.09 4.26.09-2.38.21-4.73.35-7.02 5.33 1.06 10.76 2.3 16.3 3.78l1.1.29.29-1.1c1.52-5.63 3.15-10.94 4.86-16 4.87 2.4 9.79 5.01 14.76 7.87l.99.57.57-.99c2.87-4.96 5.83-9.68 8.86-14.2 4.07 3.57 8.14 7.38 12.2 11.42l.81.81.81-.81c4.06-4.05 8.13-7.85 12.2-11.42 3.02 4.51 5.98 9.24 8.86 14.2l.57.99.99-.57c4.97-2.86 9.89-5.47 14.76-7.87 1.71 5.06 3.35 10.37 4.86 16l.29 1.1 1.1-.29c5.54-1.48 10.97-2.72 16.3-3.78.15 2.3.27 4.64.35 7.02-19.97-2.79-40.36-4.26-61.09-4.26zM164.37 284.42c-6.48 5.52-12.07 11.04-16.81 16.5-7.63-5.28-13.93-10.84-18.96-16.5 5.03-5.67 11.33-11.22 18.96-16.5 4.75 5.46 10.33 10.98 16.81 16.5zm1.76 1.49c3.49 2.9 7.24 5.8 11.24 8.68-3.84 5.67-7.55 11.43-11.13 17.29-6.16-3.07-11.77-6.31-16.8-9.67 4.71-5.38 10.25-10.84 16.69-16.3zm-1.08 27.92c-4.12 6.82-8.05 13.77-11.81 20.83-7.37-2.85-13.8-6.15-19.32-9.79 3.35-6.74 7.95-13.77 14.01-20.95 5.13 3.44 10.84 6.76 17.11 9.9zm-12.86 22.84c-3.86 7.34-7.53 14.79-10.97 22.37-5.54-2.56-10.39-5.64-14.43-9.19.42-6.97 2.35-14.7 6.16-22.92 5.53 3.61 11.94 6.9 19.24 9.74zm-93.68 203.33c-6.48 5.52-12.07 11.04-16.82 16.5-7.63-5.28-13.93-10.83-18.96-16.5 5.03-5.67 11.33-11.22 18.96-16.5 4.75 5.46 10.33 10.98 16.81 16.5zm-31.42 42.5c6.35 4.15 13.86 7.87 22.55 10.99-3.92 8.39-6.56 16.31-8.09 23.65-8.18-2.94-15.13-6.89-20.61-11.71.42-6.97 2.35-14.7 6.16-22.92zm87.84 62.69c1.91 7.76 4.02 15.44 6.34 23.03-7.05 3.11-13.97 5.38-20.66 6.75-2.46-7.4-4.03-15.69-4.75-24.68 6.18-1.22 12.55-2.93 19.07-5.1zm51.21 151.88c4.82 4.01 10.13 8.01 15.94 11.98-4.59 5.34-8.65 10.58-12.28 15.71-7.58-3.58-14.37-7.4-20.36-11.39 4.71-5.38 10.25-10.84 16.69-16.3zm2.34 29.58c-4.85 7.04-8.82 13.85-12.01 20.39-8.74-3.11-16.22-6.84-22.53-11 3.35-6.74 7.95-13.77 14.01-20.95 6.04 4.06 12.9 7.93 20.53 11.55zm-19.35 49.07c7.39 2.41 15.67 4.06 24.67 4.82-1.61 8.84-2.28 17.25-1.87 25.03-.74-.06-1.51-.11-2.24-.19-7.77-.89-14.72-2.88-20.64-5.85-.75-3.67-1.14-7.66-1.09-11.96.05-3.73.43-7.69 1.17-11.85zm67.6 74.7c-3.89-5.06-7.01-11.02-9.43-17.7 7.67-1.6 15.6-4.32 23.69-8.13 3.13 8.71 6.87 16.22 11.03 22.57-7.73 3.63-15.42 5.72-22.89 6.13-.82-.92-1.62-1.87-2.4-2.88zm51.21-18c5.6-4.91 11.12-10.55 16.51-16.87 5.39 6.32 10.91 11.96 16.51 16.87-5.33 7.68-10.9 13.92-16.51 18.89-5.61-4.97-11.17-11.21-16.51-18.89zm45.92-17.46c6.82 4.12 13.77 8.05 20.83 11.81-2.87 7.41-6.19 13.87-9.85 19.41-6.98-3.51-13.98-8.25-20.89-14.15 3.43-5.09 6.74-10.77 9.9-17.07zm22.84 12.86c7.35 3.86 14.8 7.53 22.39 10.98-1.98 4.24-4.26 8.16-6.92 11.62-.78 1.01-1.58 1.96-2.4 2.88-7.47-.42-15.15-2.51-22.88-6.13 3.64-5.56 6.95-12 9.82-19.35zm120.49 42.15c-.77 4.79-1.36 9.46-1.78 14.04-4.79.4-9.47.61-14.01.61h-.02c-3.17.0-6.26-.11-9.28-.31 1.22-6.03 2.87-12.27 5.01-18.68 6.63 1.6 13.33 3.04 20.08 4.34zm.15 41.76c7.3-1.45 14.86-3.56 22.63-6.32 1.52 8.36 3.51 15.97 5.86 22.88-8.12 3.85-16.07 6.55-23.74 8.11-2.46-7.4-4.03-15.69-4.75-24.68zm66.19 26.55c5.6-4.91 11.12-10.55 16.51-16.87 5.39 6.32 10.91 11.96 16.51 16.87-5.33 7.68-10.9 13.92-16.51 18.89-5.61-4.97-11.18-11.21-16.51-18.89zm47.58-20.88c6.85 4.73 13.66 8.75 20.37 12.05-3.12 8.76-6.87 16.26-11.04 22.58-6.98-3.51-13.98-8.26-20.89-14.15 4.03-5.99 7.92-12.8 11.57-20.48zm79.56-31c9-.77 17.28-2.41 24.67-4.82 1.59 8.96 1.47 16.97.08 23.81-6.48 3.25-14.21 5.29-22.87 6.04.41-7.78-.26-16.19-1.87-25.03zm19.72-28.31c7.97-2.48 15.83-5.21 23.6-8.13 2.18 5.99 3.35 11.66 3.67 16.9-5.47 4.82-12.43 8.77-20.6 11.71-1.34-6.41-3.53-13.26-6.67-20.48zm126.71-44.31c4.09-4.91 8.09-10.22 11.98-15.89 5.24 4.5 10.49 8.62 15.72 12.32-3.6 7.62-7.43 14.37-11.4 20.3-5.52-4.87-10.98-10.46-16.3-16.74zm29.59-2.25c6.85 4.73 13.66 8.75 20.37 12.05-3.12 8.76-6.87 16.26-11.04 22.58-6.98-3.51-13.98-8.26-20.89-14.15 4.03-5.99 7.92-12.8 11.57-20.48zm79.56-31c9-.77 17.28-2.41 24.67-4.82.16.92.32 1.83.44 2.73.11.77.19 1.53.28 2.28.03.28.07.57.1.85.08.84.14 1.67.2 2.49.01.18.03.37.04.55.31 5.44-.07 10.42-.98 14.92-6.48 3.25-14.2 5.29-22.87 6.04.41-7.78-.26-16.19-1.87-25.03zm20.73-25.93c-.75-1.82-1.57-3.67-2.44-5.54 8.69-3.12 16.19-6.83 22.55-10.99 3.8 8.22 5.73 15.95 6.15 22.92-5.47 4.82-12.43 8.77-20.61 11.72-1.19-5.71-3.04-11.76-5.65-18.11zm-24.32-69.2c3.84-5.67 7.55-11.43 11.13-17.28 6.16 3.07 11.77 6.31 16.81 9.67-4.71 5.38-10.25 10.84-16.69 16.3-3.49-2.9-7.24-5.8-11.25-8.68zm80.7-182.57c6.97-.52 13.54-1.32 19.73-2.37 2.76 7.71 4.87 15.2 6.33 22.39-3.02.2-6.12.31-9.3.31-4.54.0-9.22-.22-14.01-.61-.59-6.37-1.48-12.94-2.75-19.72zm50.92 15.7c-6.82 2.07-14.4 3.48-22.59 4.16-1.45-7.27-3.57-14.83-6.33-22.61 8.37-1.52 15.98-3.5 22.89-5.85 3.96 8.42 6.57 16.33 8.08 23.65-.68.22-1.36.45-2.06.66zm-30.46-65.07c5.82-3.97 11.12-7.98 15.94-11.98 6.45 5.46 11.98 10.92 16.69 16.3-5.99 3.99-12.78 7.81-20.36 11.39-3.62-5.13-7.69-10.37-12.27-15.71zm17.7-13.47c6.48-5.52 12.07-11.04 16.81-16.5.48.34.99.67 1.46 1 1.26.9 2.48 1.8 3.66 2.71 5.39 4.15 9.97 8.44 13.84 12.79-5.03 5.67-11.33 11.22-18.96 16.5-4.75-5.46-10.33-10.98-16.81-16.5zm-23.25-39.01c-.48-.17-.98-.33-1.46-.5 2.98-6.23 5.58-12.37 7.8-18.39 8.29 1.48 15.83 3.42 22.66 5.72-3.17 6.44-7.11 13.16-11.93 20.12-5.31-2.44-10.99-4.77-17.07-6.95zm-3.62-1.24c-4.87-1.66-9.95-3.24-15.31-4.71 1.39-5.31 2.56-10.51 3.57-15.63 6.86.51 13.33 1.27 19.41 2.29-2.19 5.91-4.73 11.93-7.67 18.05zm-11.29-22.59c1.27-6.78 2.16-13.35 2.75-19.72 4.79-.4 9.47-.61 14.01-.61 3.18.0 6.28.11 9.3.31-1.45 7.19-3.57 14.68-6.33 22.39-6.18-1.05-12.76-1.84-19.72-2.37zm-2.31-.17c-2.55-.17-5.13-.3-7.78-.4-.84-5.78-1.79-11.52-2.85-17.22 4.55-.74 9.01-1.31 13.37-1.72-.59 6.25-1.49 12.69-2.74 19.34zm-78.39-182.4c4.01-2.89 7.76-5.78 11.25-8.68 6.45 5.46 11.98 10.92 16.69 16.3-5.04 3.36-10.64 6.59-16.81 9.67-3.58-5.85-7.29-11.62-11.13-17.29zm-1.29-1.87c-3.3-4.81-6.68-9.57-10.16-14.24 1.81-1.95 3.56-3.89 5.25-5.81 5.73 3.9 10.93 7.82 15.68 11.75-3.35 2.77-6.93 5.54-10.76 8.3zm-3.4-21.77c4.59-5.34 8.65-10.58 12.27-15.71 7.58 3.58 14.37 7.4 20.36 11.39-4.71 5.38-10.25 10.84-16.69 16.3-4.82-4.01-10.13-8.01-15.94-11.98zm-1.92-1.29c-4.27-2.86-8.77-5.7-13.58-8.51 2.72-4.77 5.17-9.49 7.47-14.18 6.52 2.28 12.58 4.72 18.22 7.3-3.57 5.02-7.59 10.16-12.1 15.4zm-5.1-24.75c2.98-6.23 5.58-12.37 7.8-18.39 8.29 1.48 15.83 3.42 22.66 5.72-3.17 6.44-7.11 13.16-11.93 20.12-5.73-2.64-11.91-5.13-18.53-7.45zm-2.16-.74c-4.87-1.66-9.95-3.24-15.31-4.71 1.39-5.31 2.56-10.51 3.57-15.63 6.86.51 13.33 1.27 19.41 2.29-2.19 5.91-4.73 11.93-7.67 18.05zm-11.29-22.59c1.27-6.78 2.16-13.35 2.75-19.72 4.79-.4 9.47-.61 14.01-.61 3.18.0 6.28.11 9.3.31-1.45 7.19-3.57 14.68-6.33 22.39-6.18-1.05-12.76-1.84-19.73-2.37zm-2.31-.17c-5.13-.34-10.45-.54-16-.57-.03-5.55-.24-10.87-.57-16 6.62-1.25 13.07-2.17 19.32-2.77-.59 6.25-1.49 12.69-2.74 19.34zm-19-18.45c-5.12 1.01-10.32 2.19-15.63 3.58-1.47-5.38-3.05-10.46-4.71-15.32 6.11-2.94 12.13-5.49 18.04-7.69 1.01 6.09 1.78 12.57 2.29 19.43zm-21.08-13.92c-2.33-6.64-4.82-12.8-7.44-18.49 6.77-4.7 13.49-8.69 20.11-11.97 2.3 6.83 4.24 14.37 5.72 22.65-6.02 2.23-12.16 4.82-18.39 7.8zm-2.06 1.02c-4.68 2.3-9.41 4.79-14.18 7.5-2.76-4.72-5.61-9.24-8.51-13.56 5.14-4.42 10.28-8.49 15.4-12.13 2.56 5.6 5 11.65 7.29 18.19zm-23.98-7.96c-3.89-5.67-7.89-10.98-11.98-15.89 5.32-6.27 10.78-11.87 16.3-16.74 3.97 5.93 7.8 12.68 11.4 20.3-5.23 3.7-10.47 7.82-15.72 12.32zm-1.74 1.49c-1.93 1.69-3.87 3.43-5.8 5.23-4.66-3.47-9.4-6.84-14.19-10.13 2.71-3.75 5.47-7.32 8.27-10.7 4 4.83 7.91 10.03 11.72 15.6zm-21.88-6.2c-5.68-3.85-11.45-7.56-17.31-11.15 3.09-6.19 6.33-11.76 9.67-16.76 5.52 4.87 10.98 10.46 16.3 16.74-2.94 3.53-5.83 7.25-8.67 11.17zm-162.58-67.35c.77-4.79 1.36-9.47 1.78-14.04 4.79-.4 9.47-.61 14.01-.61 3.18.0 6.28.11 9.3.31-1.22 6.03-2.87 12.27-5.01 18.68-6.63-1.6-13.33-3.04-20.08-4.34zm-2.23-.43c-5.7-1.06-11.44-2.01-17.21-2.85-.09-2.65-.23-5.24-.4-7.78 6.62-1.25 13.07-2.17 19.31-2.76-.41 4.37-.97 8.83-1.71 13.39zm-20.03-12.5c-5.12 1.01-10.32 2.19-15.63 3.58-1.47-5.38-3.05-10.46-4.71-15.32 6.11-2.94 12.13-5.49 18.04-7.69 1.01 6.09 1.78 12.56 2.29 19.43zm-21.08-13.92c-2.33-6.64-4.82-12.8-7.44-18.49 6.77-4.7 13.49-8.69 20.11-11.97 2.3 6.83 4.24 14.37 5.72 22.66-6.03 2.23-12.16 4.82-18.39 7.8zm-2.06 1.02c-4.68 2.3-9.41 4.79-14.18 7.5-2.76-4.72-5.61-9.24-8.51-13.56 5.14-4.42 10.28-8.49 15.4-12.13 2.56 5.6 5 11.65 7.29 18.19zm-23.98-7.96c-3.89-5.67-7.89-10.97-11.98-15.89 5.32-6.27 10.78-11.87 16.3-16.74 3.97 5.93 7.8 12.68 11.4 20.3-5.23 3.7-10.47 7.82-15.72 12.32zm-1.74 1.49c-3.92 3.43-7.83 7.06-11.73 10.92-3.9-3.86-7.81-7.49-11.72-10.92 3.81-5.57 7.73-10.77 11.73-15.6 4 4.83 7.91 10.03 11.72 15.6zm-25.19-1.49c-5.24-4.5-10.49-8.62-15.72-12.32 3.6-7.62 7.43-14.37 11.4-20.31 5.52 4.87 10.98 10.46 16.3 16.74-4.09 4.91-8.09 10.22-11.98 15.89zm-1.29 1.91c-2.9 4.32-5.75 8.84-8.51 13.56-4.77-2.72-9.49-5.2-14.18-7.5 2.28-6.54 4.73-12.58 7.29-18.19 5.12 3.64 10.26 7.71 15.4 12.13zm-24.74 5.04c-6.23-2.99-12.37-5.58-18.39-7.8 1.49-8.29 3.42-15.83 5.72-22.65 6.62 3.27 13.34 7.27 20.11 11.97-2.62 5.69-5.11 11.85-7.44 18.49zm-.75 2.18c-1.65 4.86-3.23 9.94-4.71 15.32-5.31-1.39-10.51-2.57-15.63-3.58.51-6.86 1.28-13.34 2.29-19.43 5.91 2.2 11.93 4.75 18.04 7.69zm-22.75 13.61c-.17 2.55-.3 5.13-.4 7.78-5.77.84-11.51 1.79-17.21 2.85-.74-4.57-1.29-9.03-1.71-13.39 6.25.59 12.69 1.52 19.31 2.76zm-19.84 11.06c-6.75 1.29-13.44 2.74-20.08 4.34-2.14-6.41-3.79-12.64-5.01-18.68 3.02-.2 6.12-.31 9.3-.31 4.54.0 9.22.22 14.01.61.42 4.57 1.01 9.25 1.78 14.04zm-162.58 67.35c-2.84-3.92-5.73-7.64-8.67-11.17 5.32-6.27 10.78-11.87 16.3-16.74 3.34 5 6.58 10.57 9.67 16.76-5.86 3.58-11.63 7.3-17.31 11.15zm-1.88 1.31c-4.8 3.29-9.54 6.66-14.2 10.13-1.93-1.8-3.86-3.54-5.8-5.23 3.81-5.57 7.73-10.77 11.73-15.6 2.8 3.38 5.56 6.95 8.27 10.7zm-21.74 3.41c-5.24-4.5-10.49-8.62-15.72-12.32 3.6-7.62 7.43-14.37 11.4-20.31 5.52 4.87 10.98 10.46 16.3 16.74-4.09 4.91-8.09 10.22-11.98 15.89zm-1.29 1.91c-2.9 4.32-5.75 8.83-8.51 13.56-4.77-2.72-9.49-5.2-14.18-7.5 2.28-6.54 4.73-12.58 7.29-18.19 5.12 3.64 10.26 7.71 15.4 12.13zm-24.74 5.04c-6.23-2.99-12.37-5.58-18.39-7.8 1.49-8.29 3.42-15.83 5.72-22.65 6.62 3.27 13.34 7.27 20.11 11.97-2.62 5.69-5.11 11.85-7.44 18.49zm-.75 2.18c-1.65 4.86-3.23 9.94-4.71 15.32-5.31-1.39-10.51-2.57-15.63-3.58.51-6.86 1.28-13.34 2.29-19.43 5.91 2.2 11.93 4.75 18.04 7.69zm-22.75 13.61c-.34 5.13-.54 10.45-.57 16-5.55.03-10.87.24-16 .57-1.25-6.65-2.15-13.09-2.74-19.34 6.25.59 12.69 1.52 19.31 2.77zm-18.88 16.74c-6.97.52-13.54 1.32-19.73 2.37-2.76-7.71-4.87-15.2-6.33-22.39 3.02-.2 6.12-.31 9.3-.31 4.54.0 9.22.22 14.01.61.59 6.37 1.48 12.94 2.75 19.72zm.45 2.25c1.01 5.12 2.17 10.32 3.56 15.63-5.36 1.47-10.44 3.05-15.31 4.71-2.93-6.12-5.47-12.14-7.67-18.05 6.08-1.01 12.55-1.78 19.41-2.29zm-13.91 21.08c-6.62 2.33-12.8 4.82-18.53 7.45-4.82-6.96-8.76-13.68-11.93-20.12 6.83-2.3 14.37-4.24 22.66-5.72 2.22 6.02 4.82 12.16 7.79 18.39zm-43 57.73c-6.03 7.17-10.66 14.21-14.04 20.98-7.34-5.13-12.94-10.86-16.86-16.87 2.25-6.82 6.18-13.79 11.93-20.63 5.08 5.68 11.38 11.24 18.98 16.52zm-36.48 156.74c-1.06 5.7-2.01 11.44-2.85 17.22-2.65.09-5.24.23-7.78.4-1.25-6.65-2.15-13.09-2.74-19.34 4.36.41 8.82.99 13.37 1.72zm-12.94 17.78c-6.97.52-13.54 1.32-19.73 2.37-2.76-7.71-4.87-15.2-6.33-22.39 3.02-.2 6.12-.31 9.3-.31 4.54.0 9.22.22 14.01.61.59 6.37 1.48 12.94 2.75 19.72zm.45 2.25c1.01 5.12 2.17 10.32 3.56 15.63-5.36 1.47-10.44 3.05-15.31 4.71-2.93-6.12-5.47-12.14-7.67-18.05 6.08-1.01 12.55-1.78 19.41-2.29zm-13.91 21.08c-4.68 1.64-9.14 3.37-13.37 5.17-1.76.75-3.47 1.51-5.15 2.28-4.82-6.96-8.76-13.68-11.93-20.12 6.83-2.3 14.37-4.24 22.66-5.72 2.22 6.02 4.82 12.16 7.79 18.39zm-43 57.73c-6.03 7.17-10.65 14.21-14.04 20.98-7.34-5.13-12.94-10.86-16.86-16.87 2.25-6.81 6.18-13.79 11.93-20.63 5.08 5.68 11.38 11.24 18.97 16.52zm-15.02 23.01c-3.7 7.89-5.73 15.37-6.39 22.2-6.33-6.3-10.32-13.9-11.46-22.54-.23-1.75-.34-3.54-.32-5.35.03-3.39.53-6.88 1.46-10.43 4.06 5.75 9.62 11.21 16.71 16.12zm15.89 38.17c-1.56 8.6-1.61 16.36-.5 23.12-9.27-5.38-15.71-13.35-18.42-23.44-.88-3.27-1.34-6.88-1.33-10.74 5.53 4.53 12.35 8.26 20.25 11.07zm32.44 33.22c6.4.0 13.12-.66 20.08-1.92.74 8.96 2.31 17.23 4.75 24.67-4.25.74-8.41 1.16-12.46 1.16s-7.66-.4-11.18-1.13c-3.39-6.69-5.43-14.4-6.16-22.93 1.63.09 3.29.14 4.98.14zm12.37 26.21c4.3.0 8.73-.46 13.24-1.27 2.52 7.05 5.8 13.34 9.9 18.67.41.53.84 1.05 1.26 1.56-14.71-.06-26.86-7.08-34.26-19.79 3.14.54 6.43.83 9.87.83zm91.48 106.58c-4.01 2.89-7.76 5.78-11.25 8.68-6.45-5.46-11.98-10.92-16.69-16.3 5.04-3.36 10.64-6.59 16.8-9.67 3.58 5.85 7.29 11.62 11.13 17.29zm-44.42 52.67c6.35 4.15 13.86 7.87 22.54 10.99-3.92 8.39-6.56 16.31-8.09 23.65-8.17-2.94-15.13-6.89-20.61-11.71.42-6.97 2.35-14.7 6.16-22.93zm14 36.91c-.83 4.58-1.25 8.94-1.27 13.02-.02 3.58.26 6.94.78 10.1-9.27-5.38-15.71-13.35-18.42-23.44-.8-2.97-1.26-6.2-1.34-9.65.0-.36.0-.73.0-1.1 5.53 4.53 12.35 8.26 20.25 11.07zm13.01 30.97h.03c.93.24 1.91.43 2.87.62.56.12 1.1.26 1.67.36 2.44.44 4.99.73 7.59.95.63 7.9 2.29 15.17 5.12 21.59.13.29.29.54.42.83-12.19-3.34-21.42-11.17-26.17-22.61-.69-1.67-1.29-3.46-1.79-5.34 3.18 1.45 6.59 2.68 10.27 3.6zm31.79 28.46h0c4.3.0 8.73-.46 13.24-1.27 2.52 7.05 5.8 13.35 9.9 18.68.41.53.83 1.04 1.25 1.55-14.7-.06-26.86-7.08-34.26-19.79 3.14.54 6.43.83 9.86.83zm74.46-.51c5.32 7.62 10.88 13.87 16.49 18.87-7 5.87-14.02 9.77-20.68 11.99-5.96-3.9-11.63-9.45-16.72-16.7 6.99-3.55 14-8.3 20.91-14.17zm87.74 17.91c2.77-3.6 5.14-7.68 7.19-12.08 1.77.79 3.55 1.56 5.33 2.33.02.19.03.39.06.58.35 2.65.96 5.2 1.8 7.66-4.76 1.99-10.01 3.04-15.64 3.06.43-.51.85-1.02 1.26-1.56zm14.98-8.68c2.32.98 4.65 1.93 6.99 2.87-1.74 1.27-3.57 2.4-5.49 3.35-.67-2.01-1.16-4.09-1.49-6.23zm42.9 15.61c7.59 2.32 15.28 4.43 23.05 6.35-2.17 6.53-3.87 12.89-5.09 19.05-9.03-.75-17.29-2.39-24.64-4.82 1.32-6.42 3.5-13.3 6.69-20.58zm19.81 27.82c3.16.21 6.39.34 9.71.34h.02c4.48.0 9.09-.21 13.8-.59-.66 8.25-.76 16.13-.28 23.54-6.91 1.26-13.58 1.92-19.92 1.92-1.76.0-3.48-.06-5.17-.15-.44-7.77.2-16.18 1.83-25.06zm40.66 69.71c-3.89-5.06-7.01-11.02-9.43-17.7 7.67-1.6 15.6-4.32 23.69-8.13 3.13 8.71 6.87 16.22 11.03 22.57-7.73 3.62-15.42 5.72-22.89 6.13-.82-.92-1.62-1.87-2.4-2.88zm16.28-26.84c6.71-3.3 13.51-7.31 20.37-12.05 3.45 7.26 7.1 13.76 10.9 19.51.22.34.45.65.67.98-6.91 5.89-13.91 10.63-20.89 14.15-4.17-6.32-7.92-13.82-11.04-22.58zm33.23 10.32c5.32 7.62 10.88 13.87 16.49 18.87-7 5.87-14.02 9.77-20.68 11.99-5.96-3.9-11.63-9.45-16.72-16.7 6.99-3.55 14-8.3 20.91-14.17zm87.74 17.91c4.1-5.33 7.37-11.62 9.9-18.67 4.51.81 8.94 1.27 13.23 1.27h0c3.43.0 6.72-.3 9.86-.83-7.4 12.71-19.56 19.73-34.26 19.79.42-.51.85-1.02 1.26-1.56zm42.77-43.93c8.4-.69 15.94-2.57 22.42-5.53-.5 1.87-1.09 3.66-1.79 5.33-4.75 11.45-13.98 19.28-26.17 22.62 3.06-6.63 4.88-14.17 5.54-22.42zm133.13-111.13c.14.2.28.38.43.58 2.7 3.71 5.45 7.24 8.24 10.59-5.32 6.27-10.78 11.87-16.3 16.74-3.34-5-6.58-10.57-9.67-16.76 5.86-3.58 11.63-7.3 17.31-11.15zm63.61 21.98c8.09 3.81 16.02 6.53 23.68 8.13-2.43 6.67-5.55 12.63-9.43 17.69-.78 1.01-1.58 1.96-2.4 2.88-7.47-.42-15.15-2.51-22.88-6.13 4.17-6.36 7.9-13.87 11.03-22.57zm16.07 27.22c4.1-5.33 7.37-11.62 9.9-18.67 4.51.81 8.94 1.27 13.23 1.27h0c3.43.0 6.72-.3 9.86-.83-7.4 12.71-19.56 19.73-34.26 19.79.43-.51.85-1.03 1.26-1.56zm42.77-43.93c8.4-.69 15.94-2.57 22.42-5.53-.5 1.87-1.09 3.66-1.79 5.33-4.75 11.44-13.98 19.28-26.17 22.61 3.06-6.63 4.88-14.17 5.54-22.42zm7.75-112.3c6.48-5.52 12.06-11.04 16.81-16.5 7.63 5.28 13.93 10.84 18.96 16.5-5.03 5.67-11.33 11.22-18.96 16.5-4.75-5.46-10.33-10.98-16.81-16.5zm43.1-127.36c2.32-7.59 4.43-15.27 6.34-23.03 6.52 2.17 12.89 3.88 19.06 5.1-.72 8.99-2.29 17.27-4.75 24.67-6.69-1.36-13.6-3.63-20.66-6.74zm6.89-25.26c1.6-6.64 3.05-13.34 4.34-20.09 4.77.77 9.45 1.37 14.02 1.79.68 8.18.79 15.99.33 23.33-6.05-1.21-12.3-2.9-18.69-5.03zm20.66-18.08c4.71.38 9.32.59 13.8.59 1.42.0 2.82-.02 4.21-.06 1.87-.05 3.71-.15 5.52-.27 1.64 8.88 2.27 17.29 1.83 25.06-1.69.1-3.41.15-5.17.16h-.01c-6.34.0-13-.66-19.91-1.92.48-7.42.39-15.29-.27-23.55zm42.87-33.97c-.18-.37-.39-.75-.57-1.12-.47-.94-.94-1.87-1.45-2.82-.07-.13-.15-.27-.22-.4-.64-1.19-1.3-2.39-1.99-3.6-2.23-3.89-4.73-7.86-7.52-11.91 7.63-3.63 14.48-7.5 20.53-11.55 6.06 7.18 10.67 14.21 14.01 20.94-6.31 4.16-13.79 7.88-22.53 10.99-.09-.18-.17-.36-.26-.54zm10.63-32.69c7.59-5.28 13.9-10.84 18.98-16.51 5.75 6.84 9.68 13.81 11.92 20.63-3.93 6.01-9.52 11.74-16.86 16.86-3.39-6.76-8.01-13.81-14.04-20.98zm0-36.44c6.03-7.17 10.65-14.21 14.04-20.98 7.34 5.13 12.94 10.85 16.86 16.87-2.24 6.82-6.17 13.79-11.93 20.63-5.08-5.68-11.38-11.24-18.98-16.52zm-1.85-1.29c-6.04-4.06-12.9-7.93-20.53-11.55 4.85-7.04 8.82-13.85 12.01-20.39 8.74 3.11 16.22 6.84 22.53 11-3.35 6.74-7.95 13.77-14.01 20.95zm-7.55-33.98c3.92-8.39 6.56-16.31 8.09-23.65 8.17 2.94 15.13 6.89 20.61 11.71-.42 6.97-2.35 14.7-6.16 22.92-6.35-4.15-13.86-7.87-22.55-10.99zm-2.14-.74c-6.91-2.35-14.53-4.33-22.9-5.85 2.76-7.78 4.88-15.34 6.33-22.61 9.03.75 17.3 2.39 24.65 4.82-1.5 7.32-4.12 15.23-8.08 23.65zm-18.42-30.89c-3.16-.22-6.4-.34-9.73-.34-4.48.0-9.09.21-13.8.59.66-8.25.76-16.13.28-23.54 6.91-1.26 13.58-1.92 19.92-1.92 1.76.0 3.48.06 5.17.15.44 7.77-.2 16.18-1.83 25.06zm-25.67-25.16c-6.18 1.22-12.54 2.93-19.06 5.1-1.91-7.76-4.02-15.44-6.34-23.03 7.05-3.11 13.96-5.38 20.66-6.75 2.46 7.4 4.03 15.69 4.75 24.68zm-41.01-60.79c2.13.32 4.21.83 6.22 1.51-.95 1.94-2.09 3.75-3.35 5.48-.94-2.33-1.89-4.67-2.87-6.98zm-15.32-32.26c7.3-2.85 13.71-6.13 19.24-9.74 3.81 8.22 5.73 15.95 6.15 22.92-4.04 3.55-8.88 6.63-14.42 9.19-3.44-7.58-7.12-15.03-10.97-22.36zm-1.06-2c-3.75-7.06-7.68-14.01-11.8-20.83 6.27-3.14 11.98-6.45 17.11-9.9 6.06 7.18 10.66 14.21 14.01 20.94-5.52 3.63-11.95 6.93-19.32 9.78zm7.16-32.02c7.59-5.28 13.9-10.84 18.98-16.52 5.75 6.84 9.68 13.81 11.92 20.63-3.93 6.01-9.52 11.74-16.86 16.86-3.39-6.76-8.01-13.81-14.04-20.98zm-1.47-1.72c-4.75-5.46-10.33-10.98-16.81-16.5 6.48-5.52 12.06-11.04 16.81-16.5 7.63 5.28 13.93 10.84 18.96 16.5-5.03 5.67-11.33 11.22-18.96 16.5zm1.47-34.72c6.03-7.17 10.65-14.21 14.04-20.98 7.34 5.13 12.94 10.86 16.86 16.87-2.24 6.81-6.17 13.79-11.93 20.63-5.08-5.68-11.39-11.24-18.98-16.52zm-1.85-1.29c-6.05-4.06-12.9-7.93-20.53-11.55 4.85-7.04 8.82-13.85 12.01-20.39 8.74 3.11 16.22 6.84 22.53 11-3.35 6.74-7.95 13.77-14.01 20.94zm-7.56-33.98c3.92-8.39 6.56-16.31 8.09-23.65 8.17 2.94 15.13 6.89 20.61 11.71-.42 6.97-2.35 14.7-6.16 22.92-6.35-4.15-13.86-7.87-22.55-10.99zm-2.14-.74c-6.91-2.35-14.52-4.33-22.89-5.85 2.76-7.78 4.88-15.34 6.33-22.61 9.03.75 17.29 2.39 24.64 4.82-1.5 7.32-4.12 15.23-8.08 23.65zm-18.42-30.89c-3.16-.22-6.4-.34-9.73-.34-4.48.0-9.09.21-13.8.59.66-8.25.76-16.13.28-23.54 6.91-1.26 13.58-1.92 19.92-1.92 1.76.0 3.48.06 5.17.15.44 7.77-.2 16.17-1.83 25.06zm-25.67-25.16c-7.3 1.45-14.86 3.56-22.63 6.32-1.52-8.36-3.51-15.97-5.86-22.88 8.13-3.85 16.07-6.55 23.74-8.11 2.45 7.4 4.03 15.69 4.75 24.68zm-31.26-17.72c-6.71 3.3-13.51 7.31-20.37 12.05-3.65-7.68-7.53-14.49-11.57-20.48 6.91-5.89 13.91-10.63 20.89-14.14 4.17 6.32 7.92 13.82 11.04 22.58zm-33.23-10.32c-5.32-7.62-10.88-13.87-16.5-18.88 7-5.87 14.02-9.77 20.68-11.99 5.96 3.9 11.63 9.45 16.72 16.7-6.99 3.55-14 8.3-20.9 14.17zm-1.7 1.49c-5.6 4.91-11.12 10.55-16.51 16.87-5.39-6.32-10.91-11.96-16.51-16.87 5.33-7.68 10.9-13.93 16.51-18.89 5.61 4.97 11.18 11.21 16.51 18.89zm-34.72-1.49c-6.9-5.86-13.91-10.61-20.9-14.17 5.09-7.26 10.76-12.8 16.72-16.7 6.66 2.23 13.68 6.13 20.68 11.99-5.61 5-11.17 11.25-16.5 18.88zm-1.29 1.88c-3.43 5.09-6.74 10.77-9.9 17.07-6.82-4.12-13.77-8.05-20.83-11.81 2.87-7.41 6.19-13.87 9.85-19.41 6.98 3.51 13.98 8.25 20.89 14.15zm-71.99-13.99c1.74-1.27 3.57-2.4 5.49-3.35.67 2.01 1.16 4.09 1.49 6.23-2.32-.98-4.65-1.93-6.99-2.87zm-33.74-12.08c3.14-7.22 5.32-14.07 6.67-20.48 8.17 2.94 15.13 6.89 20.61 11.71-.32 5.24-1.49 10.92-3.67 16.9-7.77-2.92-15.63-5.65-23.61-8.13zm-2.18-.65c-7.6-2.32-15.28-4.43-23.05-6.35 2.17-6.53 3.87-12.89 5.09-19.05 9.03.75 17.29 2.39 24.65 4.82-1.32 6.42-3.5 13.3-6.69 20.58zm-19.81-27.82c-3.16-.22-6.4-.34-9.73-.34-4.48.0-9.09.21-13.8.59.66-8.25.76-16.13.28-23.54 6.91-1.26 13.58-1.92 19.92-1.92 1.76.0 3.48.06 5.17.15.44 7.77-.2 16.17-1.83 25.06zm-25.67-25.16c-7.3 1.45-14.86 3.56-22.63 6.32-1.52-8.36-3.51-15.98-5.86-22.88 8.13-3.85 16.07-6.55 23.74-8.11 2.45 7.4 4.03 15.69 4.75 24.68zm-31.26-17.72c-6.71 3.3-13.51 7.31-20.37 12.05-3.65-7.68-7.53-14.49-11.57-20.48 6.91-5.89 13.91-10.63 20.89-14.15 4.17 6.32 7.92 13.82 11.04 22.58zm-33.23-10.32c-5.32-7.62-10.88-13.87-16.5-18.88 7-5.87 14.02-9.77 20.68-11.99 5.96 3.9 11.63 9.45 16.72 16.7-6.99 3.55-14 8.3-20.91 14.17zm-1.7 1.49c-5.6 4.91-11.12 10.55-16.51 16.87-5.39-6.32-10.91-11.96-16.51-16.87 5.33-7.68 10.9-13.92 16.51-18.89 5.61 4.97 11.18 11.21 16.51 18.89zm-34.72-1.49c-6.9-5.86-13.91-10.61-20.91-14.17 5.09-7.25 10.76-12.8 16.72-16.7 6.66 2.23 13.68 6.13 20.68 11.99-5.61 5-11.17 11.25-16.5 18.88zm-1.29 1.88c-4.04 5.99-7.92 12.81-11.57 20.49-6.85-4.73-13.66-8.75-20.37-12.05 3.12-8.76 6.87-16.26 11.04-22.58 6.98 3.51 13.98 8.25 20.89 14.15zm-34.71 9.59c-2.35 6.91-4.34 14.52-5.86 22.88-7.77-2.76-15.33-4.87-22.63-6.32.72-8.99 2.3-17.27 4.75-24.68 7.67 1.56 15.61 4.27 23.74 8.11zm-50.82 16.51c6.34.0 13.01.66 19.92 1.92-.48 7.42-.39 15.29.28 23.54-4.71-.38-9.32-.59-13.8-.59-3.33.0-6.57.12-9.73.34-1.64-8.88-2.27-17.29-1.83-25.06 1.69-.1 3.41-.15 5.17-.15zm-5.19 27.64c1.23 6.16 2.93 12.52 5.09 19.05-7.76 1.91-15.45 4.02-23.05 6.35-3.19-7.28-5.37-14.16-6.69-20.58 7.35-2.43 15.62-4.07 24.64-4.82zm-20.13 26.05c-7.97 2.48-15.83 5.21-23.6 8.13-2.18-5.99-3.35-11.66-3.67-16.9 5.47-4.82 12.43-8.77 20.61-11.71 1.34 6.41 3.53 13.26 6.67 20.48zm-40.71 14.95c.33-2.14.82-4.22 1.49-6.22 1.93.95 3.75 2.08 5.49 3.35-2.33.94-4.67 1.89-6.98 2.87zm-34.27 16.38c-7.06 3.76-14.01 7.68-20.83 11.81-3.16-6.3-6.48-11.98-9.9-17.07 6.91-5.89 13.91-10.63 20.89-14.15 3.66 5.54 6.98 12 9.85 19.41zm-32.03-7.15c-5.32-7.62-10.88-13.87-16.5-18.88 7-5.87 14.02-9.77 20.68-11.99 5.96 3.9 11.63 9.45 16.72 16.7-6.99 3.55-14 8.3-20.91 14.17zm-1.7 1.49c-5.6 4.91-11.12 10.55-16.51 16.87-5.39-6.32-10.91-11.96-16.51-16.87 5.33-7.68 10.9-13.93 16.51-18.89 5.61 4.97 11.18 11.21 16.51 18.89zm-34.72-1.49c-6.9-5.86-13.91-10.61-20.91-14.17 5.09-7.26 10.76-12.8 16.72-16.7 6.66 2.23 13.68 6.13 20.68 11.99-5.61 5-11.17 11.25-16.5 18.88zm-1.29 1.88c-4.04 5.99-7.92 12.81-11.57 20.49-6.85-4.73-13.66-8.75-20.37-12.05 3.12-8.76 6.87-16.26 11.04-22.59 6.98 3.51 13.98 8.25 20.89 14.15zm-34.71 9.59c-2.35 6.91-4.34 14.52-5.86 22.88-7.77-2.76-15.33-4.87-22.63-6.32.72-8.99 2.29-17.27 4.75-24.67 7.67 1.56 15.61 4.27 23.74 8.11zm-50.82 16.51c6.34.0 13 .66 19.92 1.92-.48 7.42-.39 15.29.28 23.54-4.71-.38-9.32-.59-13.8-.59-3.33.0-6.57.12-9.73.34-1.64-8.88-2.27-17.29-1.83-25.06 1.69-.1 3.41-.15 5.17-.15zm-5.19 27.64c1.45 7.27 3.57 14.83 6.33 22.61-8.37 1.52-15.98 3.5-22.89 5.85-3.96-8.42-6.57-16.33-8.08-23.65 7.35-2.43 15.62-4.07 24.64-4.82zm-18.71 29.21c-8.69 3.12-16.19 6.83-22.54 10.99-3.8-8.22-5.73-15.95-6.15-22.92 5.47-4.82 12.43-8.77 20.61-11.72 1.54 7.34 4.17 15.26 8.09 23.65zm.97 2.04c3.19 6.53 7.16 13.34 12.01 20.39-7.63 3.63-14.48 7.5-20.53 11.55-6.06-7.18-10.67-14.21-14.01-20.94 6.31-4.16 13.79-7.89 22.53-10.99zm-10.38 33.23c-3.12 2.17-6.04 4.39-8.73 6.65-.18.15-.37.3-.54.44-.51.43-.98.87-1.47 1.3-.59.52-1.19 1.03-1.76 1.56-.15.13-.28.27-.42.4-2.18 2.03-4.19 4.09-6.04 6.16-5.75-6.84-9.68-13.81-11.92-20.63 3.93-6.01 9.52-11.74 16.86-16.86 3.39 6.76 8.01 13.81 14.04 20.98zm-12.1 109.72c-1.27-1.73-2.4-3.55-3.36-5.48 2.02-.68 4.1-1.19 6.23-1.51-.99 2.32-1.93 4.66-2.88 6.99zm-12.72 35.87c-2.32 7.59-4.43 15.27-6.34 23.03-6.52-2.17-12.89-3.88-19.06-5.1.72-8.99 2.29-17.27 4.75-24.68 6.7 1.36 13.61 3.63 20.66 6.74zm-47.74 17.88c6.34.0 13 .66 19.92 1.92-.48 7.42-.39 15.29.28 23.54-4.71-.38-9.32-.59-13.8-.59-3.33.0-6.57.12-9.73.34-1.64-8.88-2.27-17.29-1.83-25.06 1.69-.1 3.41-.15 5.17-.15zm-5.19 27.64c1.45 7.27 3.57 14.83 6.33 22.61-8.37 1.52-15.98 3.5-22.89 5.85-3.96-8.42-6.57-16.33-8.08-23.65 7.35-2.43 15.62-4.07 24.64-4.82zm-18.7 29.21c-8.69 3.12-16.19 6.84-22.54 10.99-3.81-8.22-5.73-15.95-6.15-22.92 5.47-4.82 12.43-8.77 20.61-11.72 1.54 7.34 4.17 15.26 8.09 23.65zm.97 2.04c3.19 6.53 7.16 13.34 12.01 20.39-7.63 3.63-14.48 7.5-20.53 11.55-6.06-7.18-10.66-14.21-14.01-20.94 6.31-4.16 13.8-7.89 22.53-10.99zm-10.38 33.23c-7.59 5.28-13.9 10.84-18.98 16.51-5.75-6.84-9.68-13.81-11.92-20.63 3.93-6.01 9.52-11.74 16.86-16.86 3.39 6.76 8.01 13.81 14.04 20.98zm2.95 122.18c-1.39-6.85-1.51-14.85.08-23.81 7.39 2.41 15.67 4.06 24.67 4.82-1.61 8.84-2.28 17.25-1.87 25.03-1.02-.09-2.03-.18-3.02-.3-7.45-.94-14.14-2.87-19.86-5.73zm93.69 67.13c-2.13-.32-4.21-.83-6.23-1.51.95-1.94 2.09-3.75 3.35-5.48.94 2.34 1.89 4.67 2.87 6.99zm15.32 32.26c-7.3 2.85-13.71 6.13-19.24 9.74-3.81-8.22-5.73-15.95-6.15-22.92 4.04-3.55 8.88-6.63 14.42-9.19 3.44 7.58 7.12 15.03 10.97 22.36zm1.06 2c3.76 7.06 7.68 14.01 11.81 20.83-6.27 3.14-11.98 6.45-17.11 9.9-6.06-7.18-10.67-14.21-14.01-20.94 5.52-3.63 11.95-6.93 19.31-9.78zm-7.16 32.02c-7.59 5.28-13.9 10.84-18.98 16.51-5.75-6.84-9.68-13.81-11.92-20.63 3.93-6.01 9.52-11.74 16.86-16.86 3.39 6.76 8.01 13.81 14.04 20.98zm1.47 1.72c4.75 5.46 10.33 10.98 16.81 16.5-6.48 5.52-12.07 11.04-16.81 16.5-7.63-5.28-13.93-10.83-18.96-16.5 5.03-5.67 11.33-11.22 18.96-16.5zm-1.47 34.72c-6.03 7.17-10.65 14.21-14.04 20.98-7.34-5.13-12.94-10.86-16.86-16.87 2.25-6.81 6.18-13.79 11.93-20.63 5.08 5.68 11.38 11.24 18.97 16.52zm75.03 141.63c7.26-.66 14.69-2.82 22.16-6.37 4.87 7.01 10.28 12.51 15.97 16.55-3.72 1-7.32 1.5-10.7 1.5-10.36.0-19.73-4.02-27.42-11.68zm65.02-2.65c5.61-5 11.17-11.25 16.49-18.87 6.9 5.86 13.91 10.61 20.91 14.17-5.09 7.25-10.76 12.8-16.72 16.7-6.66-2.23-13.68-6.13-20.68-11.99zm123.51 5.32c-2.49 5.72-4.39 11.22-5.73 16.44-.07.29-.13.57-.2.86-.21.86-.43 1.73-.61 2.57-.01.07-.02.13-.04.2-.03.14-.05.28-.08.42-8.17-2.94-15.13-6.89-20.61-11.71.32-5.24 1.49-10.92 3.67-16.91 7.77 2.92 15.64 5.65 23.61 8.13zm26.5 78.77c-3.39-6.69-5.43-14.4-6.16-22.93 1.63.09 3.29.14 4.98.14 6.4.0 13.12-.66 20.08-1.92.74 8.96 2.31 17.23 4.74 24.67-4.25.74-8.41 1.16-12.46 1.17-3.93.0-7.66-.4-11.18-1.13zm40.54 24.43c7.26-.66 14.69-2.82 22.16-6.36 4.87 7.01 10.28 12.51 15.97 16.55-3.72 1-7.32 1.5-10.7 1.5-10.36.0-19.73-4.02-27.42-11.68zm65.03-2.65c5.61-5 11.17-11.25 16.49-18.87 6.9 5.86 13.91 10.61 20.91 14.17-5.09 7.25-10.76 12.8-16.72 16.7-6.66-2.23-13.68-6.13-20.68-11.99zm136.24-54.68c1.11-6.76 1.07-14.52-.5-23.12 7.9-2.81 14.72-6.54 20.25-11.07.0 3.87-.45 7.48-1.33 10.75-.07.27-.18.52-.25.79-2.83 9.71-9.15 17.42-18.17 22.65zm18.1-54.8c1.85-.71 3.71-1.41 5.55-2.14 2.23 1.76 4.62 3.27 7.17 4.51-2 4.92-5.06 9.38-9.03 13.34-.48-4.93-1.67-10.19-3.69-15.7zm8.03-3.15c2.33-.94 4.67-1.89 6.98-2.87-.33 2.14-.82 4.22-1.49 6.22-1.93-.95-3.75-2.08-5.49-3.35zm41.25-19.25c7.06-3.76 14.01-7.68 20.83-11.81 3.16 6.3 6.48 11.98 9.9 17.07-6.91 5.89-13.91 10.63-20.89 14.14-3.66-5.54-6.98-12-9.85-19.41zm32.03 7.15c5.32 7.62 10.88 13.87 16.49 18.87-7 5.87-14.02 9.77-20.68 11.99-5.96-3.9-11.63-9.45-16.72-16.7 6.99-3.55 14-8.3 20.9-14.16zm1.7-1.49c5.6-4.92 11.12-10.55 16.51-16.87 5.39 6.32 10.91 11.96 16.51 16.87-5.33 7.68-10.9 13.92-16.51 18.89-5.61-4.97-11.17-11.21-16.51-18.89zm34.72 1.49c6.9 5.86 13.91 10.61 20.91 14.17-5.09 7.25-10.76 12.8-16.72 16.7-6.66-2.23-13.68-6.13-20.68-11.99 5.61-5 11.17-11.25 16.5-18.87zm119.75-35.8c1.11-6.76 1.07-14.52-.5-23.12 7.9-2.81 14.72-6.54 20.25-11.07.0 3.87-.45 7.48-1.33 10.75-.07.27-.18.52-.25.79-2.83 9.71-9.15 17.42-18.17 22.65zm15.39-61.28c7.09-4.91 12.65-10.36 16.71-16.11.93 3.54 1.42 7.02 1.46 10.41.02 1.81-.09 3.6-.32 5.35-1.14 8.64-5.13 16.24-11.46 22.53-.66-6.82-2.7-14.3-6.39-22.19zm-.98-2.04c-3.39-6.76-8.01-13.81-14.04-20.98 7.59-5.28 13.9-10.84 18.98-16.51 5.75 6.84 9.68 13.81 11.92 20.63-3.93 6.01-9.52 11.74-16.86 16.86zm-14.04-57.42c6.03-7.17 10.65-14.21 14.04-20.98 7.34 5.13 12.94 10.86 16.86 16.87-2.25 6.81-6.18 13.79-11.93 20.63-5.08-5.68-11.38-11.24-18.98-16.52zm-1.85-1.29c-5.13-3.44-10.84-6.76-17.11-9.9 4.12-6.82 8.05-13.77 11.81-20.83 7.37 2.85 13.8 6.15 19.32 9.79-3.35 6.74-7.95 13.77-14.01 20.94zm-4.25-32.73c3.86-7.34 7.53-14.79 10.97-22.37 5.54 2.56 10.39 5.63 14.42 9.19-.42 6.97-2.35 14.7-6.16 22.92-5.53-3.61-11.94-6.9-19.24-9.74zm18.2-39.25c1.27 1.73 2.4 3.55 3.36 5.48-2.02.68-4.1 1.19-6.23 1.51.99-2.32 1.93-4.66 2.88-6.99zm35.63-28.7c2.43-7.43 4.01-15.71 4.75-24.67 6.96 1.26 13.67 1.91 20.07 1.91h.01c1.69.0 3.34-.05 4.97-.14-.73 8.53-2.77 16.24-6.16 22.93-3.52.73-7.25 1.13-11.17 1.13-4.05.0-8.21-.42-12.46-1.17zm56.81-58.25c-1.54-7.34-4.17-15.26-8.09-23.65 8.69-3.12 16.19-6.83 22.54-10.99 3.8 8.22 5.73 15.95 6.15 22.92-5.47 4.82-12.43 8.77-20.61 11.71zm34.18-36.24c-1.14 8.64-5.13 16.24-11.46 22.53-.66-6.82-2.7-14.3-6.39-22.19 7.09-4.91 12.65-10.36 16.71-16.11.93 3.54 1.42 7.02 1.46 10.41.02 1.81-.09 3.6-.32 5.35zm5.07-40.89c0 6.63-1.82 13.37-5.51 19.85-2.44-6.59-6.39-13.28-11.95-19.84 5.56-6.56 9.51-13.26 11.95-19.84 3.69 6.47 5.51 13.21 5.51 19.84zm-5.06-40.89c.67 5.02.29 10.33-1.14 15.77-4.06-5.75-9.62-11.21-16.71-16.11 3.69-7.89 5.73-15.37 6.39-22.19 6.33 6.3 10.32 13.9 11.46 22.53zm-14.82-38.19c.88 3.28 1.34 6.89 1.33 10.75-5.53-4.53-12.35-8.26-20.26-11.07 1.56-8.6 1.61-16.36.5-23.12 9.27 5.38 15.71 13.35 18.42 23.44zm-23.45-33.03c.7 1.67 1.29 3.46 1.79 5.34-6.48-2.96-14.02-4.84-22.42-5.53-.66-8.25-2.48-15.79-5.54-22.42 12.19 3.34 21.42 11.17 26.17 22.61zm-30.41-25.89c-3.14-.54-6.43-.83-9.86-.83-4.3.0-8.73.46-13.24 1.27-2.52-7.05-5.8-13.34-9.9-18.68-.41-.53-.84-1.05-1.26-1.56 14.71.06 26.86 7.08 34.26 19.79zm-39.23-21.85c-5.15.47-10.38 1.68-15.65 3.61-.69-1.79-1.37-3.59-2.07-5.38 1.74-2.22 3.25-4.6 4.49-7.16 4.8 1.96 9.24 4.95 13.24 8.92zm-12.79-16.66c-.45 1.69-1.05 3.3-1.71 4.87-2.65-.92-5.39-1.57-8.19-1.9-.77-1.79-1.55-3.58-2.35-5.36 5.12-2.36 9.67-5.16 13.58-8.36.0 3.86-.45 7.47-1.33 10.74zm14.82-38.18c-1.14 8.64-5.13 16.24-11.46 22.53-.67-6.82-2.7-14.3-6.39-22.19 7.09-4.91 12.65-10.36 16.71-16.11 1.43 5.43 1.8 10.74 1.14 15.76zm5.07-40.89c0 6.63-1.82 13.37-5.51 19.85-2.45-6.59-6.39-13.28-11.95-19.84 5.56-6.56 9.51-13.25 11.95-19.84 3.69 6.47 5.51 13.21 5.51 19.84zm-5.06-40.89c.66 5.03.29 10.34-1.14 15.77-4.06-5.75-9.62-11.21-16.71-16.12 3.69-7.89 5.73-15.37 6.39-22.19 6.33 6.3 10.32 13.9 11.46 22.54zm-14.82-38.19c.88 3.28 1.34 6.88 1.33 10.75-5.53-4.53-12.35-8.26-20.26-11.07 1.56-8.6 1.61-16.36.5-23.12 9.27 5.38 15.71 13.35 18.42 23.44zm-23.45-33.03c.7 1.67 1.29 3.46 1.79 5.34-6.48-2.96-14.02-4.84-22.42-5.53-.66-8.25-2.48-15.79-5.54-22.42 12.19 3.34 21.42 11.17 26.17 22.61zm-30.4-25.89c-3.14-.54-6.43-.83-9.87-.83-4.3.0-8.73.46-13.24 1.27-2.52-7.05-5.8-13.34-9.9-18.67-.41-.54-.84-1.05-1.26-1.56 14.7.06 26.86 7.08 34.26 19.79zm-66.65-33.53c10.36.0 19.73 4.02 27.42 11.68-7.26.66-14.69 2.82-22.16 6.37-4.87-7.01-10.28-12.51-15.97-16.55 3.73-1 7.32-1.5 10.71-1.5zm-35.88-4.74c6.65.0 13.41 1.84 19.91 5.55-6.46 2.43-13.2 6.36-19.91 12.03-6.7-5.67-13.44-9.61-19.91-12.03 6.49-3.71 13.26-5.55 19.91-5.55zm-35.88 4.74c3.38.0 6.98.49 10.71 1.5-5.69 4.04-11.1 9.54-15.97 16.55-7.46-3.54-14.89-5.7-22.15-6.36 7.69-7.66 17.06-11.68 27.42-11.68zm-32.38 13.74c-.42.51-.85 1.02-1.26 1.56-2.77 3.6-5.14 7.68-7.19 12.08-1.77-.79-3.55-1.56-5.33-2.33-.02-.19-.03-.39-.06-.58-.35-2.65-.96-5.21-1.8-7.67 4.76-1.99 10.01-3.04 15.64-3.06zm-18.53 1.84c-2.55 1.24-4.94 2.75-7.17 4.51-1.84-.73-3.7-1.43-5.55-2.14 2.01-5.52 3.21-10.78 3.69-15.71 3.97 3.95 7.03 8.42 9.03 13.34zm-12.39-28.99c.88 3.28 1.34 6.88 1.33 10.75-5.53-4.53-12.35-8.26-20.25-11.07 1.56-8.6 1.61-16.36.5-23.12 9.27 5.38 15.71 13.35 18.42 23.44zm-23.45-33.03c.7 1.67 1.29 3.46 1.79 5.34-6.48-2.96-14.02-4.84-22.42-5.53-.66-8.25-2.48-15.79-5.54-22.42 12.19 3.34 21.42 11.17 26.17 22.61zm-30.41-25.89c-3.14-.54-6.43-.83-9.87-.83-4.3.0-8.73.46-13.24 1.27-2.52-7.05-5.8-13.34-9.9-18.67-.41-.53-.84-1.05-1.26-1.56 14.71.06 26.86 7.08 34.26 19.79zM575.88 7.02c10.36.0 19.73 4.02 27.42 11.68-7.26.66-14.69 2.82-22.15 6.36-4.87-7.01-10.28-12.51-15.97-16.55 3.73-1 7.32-1.5 10.71-1.5zm-35.88-4.74c6.65.0 13.41 1.84 19.91 5.55-6.46 2.43-13.2 6.36-19.91 12.03-6.7-5.67-13.44-9.61-19.91-12.03 6.49-3.71 13.26-5.55 19.91-5.55zm-35.88 4.74c3.38.0 6.98.49 10.71 1.5-5.69 4.04-11.1 9.54-15.97 16.55-7.46-3.54-14.89-5.7-22.15-6.36 7.69-7.66 17.06-11.68 27.42-11.68zm-32.38 13.74c-.43.51-.85 1.02-1.26 1.56-4.1 5.33-7.38 11.63-9.9 18.68-4.51-.81-8.94-1.28-13.24-1.28-3.43.0-6.72.3-9.86.83 7.4-12.71 19.56-19.73 34.26-19.79zm-64.67 45.68c4.75-11.45 13.98-19.28 26.17-22.61-3.06 6.63-4.88 14.17-5.54 22.42-8.4.69-15.94 2.57-22.42 5.53.5-1.88 1.09-3.67 1.79-5.34zm-23.45 33.03c2.71-10.09 9.15-18.07 18.42-23.44-1.11 6.76-1.07 14.53.5 23.12-7.9 2.81-14.72 6.54-20.25 11.07.0-3.87.45-7.48 1.33-10.75zm-3.36 15.65c.48 4.93 1.67 10.19 3.69 15.71-1.85.71-3.71 1.41-5.55 2.14-2.23-1.76-4.62-3.27-7.17-4.5 2-4.92 5.06-9.39 9.03-13.34zm-11.92 14.57c-.84 2.46-1.45 5.02-1.8 7.67-.02.19-.03.38-.06.57-1.78.77-3.57 1.54-5.34 2.33-2.05-4.41-4.42-8.48-7.19-12.08-.41-.54-.84-1.05-1.26-1.56 5.63.02 10.89 1.07 15.65 3.07zm-48.03-16.8c10.36.0 19.73 4.02 27.42 11.68-7.26.66-14.69 2.82-22.15 6.37-4.87-7.01-10.28-12.51-15.97-16.55 3.73-1 7.32-1.5 10.71-1.5zm-35.88-4.74c6.65.0 13.41 1.84 19.91 5.55-6.46 2.43-13.2 6.36-19.91 12.03-6.7-5.67-13.44-9.61-19.91-12.03 6.49-3.71 13.26-5.55 19.91-5.55zm-35.88 4.74c3.38.0 6.98.49 10.71 1.5-5.69 4.04-11.1 9.54-15.97 16.55-7.46-3.54-14.89-5.7-22.15-6.36 7.69-7.66 17.06-11.68 27.42-11.68zm-32.38 13.74c-.43.51-.85 1.02-1.26 1.56-4.1 5.33-7.38 11.63-9.9 18.68-4.51-.81-8.94-1.28-13.24-1.28-3.43.0-6.72.3-9.86.83 7.4-12.71 19.56-19.73 34.26-19.79zm-64.67 45.68c4.75-11.44 13.98-19.28 26.17-22.61-3.06 6.63-4.88 14.17-5.54 22.42-8.4.69-15.94 2.57-22.42 5.53.5-1.88 1.09-3.67 1.79-5.34zm-23.45 33.03c2.71-10.09 9.15-18.07 18.42-23.44-1.11 6.76-1.07 14.52.5 23.12-7.9 2.81-14.72 6.54-20.25 11.07.0-3.87.45-7.48 1.33-10.75zm-14.82 38.19c1.14-8.64 5.13-16.24 11.46-22.53.67 6.83 2.7 14.3 6.39 22.19-7.09 4.91-12.65 10.36-16.71 16.11-1.43-5.43-1.8-10.74-1.14-15.76zm-5.07 40.89c0-6.63 1.82-13.37 5.51-19.85 2.44 6.59 6.39 13.28 11.95 19.84-5.56 6.56-9.51 13.25-11.95 19.84-3.69-6.47-5.51-13.21-5.51-19.84zm19.87 79.08c-.88-3.27-1.34-6.88-1.33-10.75 3.91 3.2 8.46 6 13.58 8.36-.8 1.78-1.57 3.57-2.34 5.35-2.81.34-5.55.98-8.2 1.9-.66-1.57-1.25-3.18-1.71-4.87zm.45 7.73c1.24 2.56 2.75 4.95 4.49 7.17-.71 1.78-1.39 3.57-2.07 5.37-5.27-1.94-10.5-3.14-15.65-3.61 3.99-3.97 8.43-6.96 13.22-8.92zm-18.19 10.97c-.43.51-.85 1.02-1.26 1.56-4.1 5.33-7.38 11.63-9.9 18.68-4.51-.81-8.94-1.28-13.24-1.28-3.43.0-6.72.3-9.86.83 7.4-12.71 19.56-19.73 34.26-19.79zm-64.66 45.68c4.75-11.44 13.98-19.28 26.17-22.61-3.06 6.63-4.88 14.17-5.54 22.42-8.4.69-15.94 2.57-22.42 5.53.5-1.88 1.09-3.67 1.79-5.34zm-23.45 33.03c2.71-10.09 9.15-18.07 18.42-23.44-1.11 6.76-1.07 14.53.5 23.12-7.9 2.81-14.72 6.54-20.25 11.07.0-3.87.45-7.48 1.33-10.75zm-14.82 38.19c1.14-8.64 5.13-16.24 11.46-22.53.67 6.83 2.7 14.3 6.39 22.19-7.09 4.91-12.65 10.36-16.71 16.11-1.43-5.43-1.8-10.74-1.14-15.76zm-5.07 40.89c0-6.63 1.82-13.37 5.51-19.84 2.45 6.59 6.39 13.28 11.95 19.84-5.56 6.56-9.51 13.25-11.95 19.84-3.69-6.47-5.51-13.21-5.51-19.84zm43.33 112.11c-.7-1.67-1.29-3.46-1.79-5.34 3.19 1.46 6.61 2.69 10.29 3.61 3.8.95 7.87 1.57 12.13 1.92.66 8.25 2.48 15.79 5.54 22.42-12.19-3.34-21.42-11.17-26.17-22.61zm69.63 47.74c5.15-.47 10.38-1.68 15.65-3.62.68 1.79 1.36 3.59 2.07 5.37-1.74 2.22-3.25 4.6-4.49 7.16-4.8-1.96-9.24-4.95-13.24-8.92zm12.79 16.65c.45-1.69 1.05-3.3 1.71-4.87 2.65.92 5.39 1.57 8.19 1.9.77 1.79 1.55 3.58 2.35 5.36-5.12 2.36-9.67 5.16-13.58 8.36.0-3.87.45-7.48 1.33-10.75zm-14.82 38.19c1.14-8.64 5.13-16.24 11.46-22.53.67 6.83 2.7 14.3 6.39 22.19-7.09 4.91-12.65 10.36-16.71 16.11-1.43-5.43-1.8-10.74-1.14-15.76zm-5.07 40.89c0-6.63 1.82-13.37 5.51-19.85 2.45 6.59 6.39 13.28 11.95 19.84-5.56 6.56-9.51 13.25-11.95 19.84-3.69-6.47-5.51-13.21-5.51-19.84zm5.05 40.9c-.67-5.03-.29-10.34 1.14-15.78 4.06 5.75 9.62 11.21 16.71 16.12-3.7 7.89-5.73 15.37-6.39 22.2-6.33-6.29-10.32-13.9-11.46-22.53zm171.21 135.36c-6.65.0-13.41-1.84-19.91-5.55 6.46-2.43 13.2-6.36 19.91-12.03 6.7 5.67 13.45 9.61 19.91 12.03-6.49 3.71-13.26 5.55-19.9 5.55zm35.88-4.74c-3.38.0-6.98-.49-10.71-1.5 5.69-4.04 11.1-9.54 15.97-16.55 7.46 3.54 14.89 5.7 22.15 6.36-6.49 6.46-14.18 10.34-22.66 11.39-.81.1-1.62.18-2.45.23-.77.05-1.54.07-2.31.07zm50.91-15.57c2.55-1.24 4.94-2.75 7.18-4.51 1.84.73 3.69 1.43 5.55 2.14-2.01 5.52-3.21 10.78-3.69 15.71-3.97-3.96-7.03-8.42-9.03-13.34zm12.39 28.99c-.88-3.27-1.34-6.88-1.33-10.75 5.53 4.53 12.35 8.26 20.25 11.07-.23 1.26-.43 2.51-.6 3.73-.12.88-.21 1.75-.3 2.62-.02.19-.05.38-.07.57-.55 5.89-.34 11.3.47 16.2-9.27-5.38-15.71-13.35-18.42-23.44zm53.86 58.92c3.14.54 6.43.83 9.86.83h0c4.3.0 8.73-.46 13.24-1.27 2.52 7.05 5.8 13.35 9.9 18.68.41.53.83 1.04 1.25 1.55-14.7-.06-26.86-7.08-34.26-19.79zm102.53 38.26c-6.65.0-13.41-1.84-19.91-5.55 6.46-2.43 13.2-6.36 19.91-12.03 6.7 5.67 13.45 9.61 19.91 12.03-6.49 3.71-13.26 5.55-19.91 5.55zm35.88-4.74c-3.38.0-6.98-.49-10.7-1.5 5.69-4.04 11.1-9.54 15.97-16.55 7.46 3.54 14.89 5.7 22.15 6.36-.19.19-.38.4-.58.59-7 6.72-15.34 10.49-24.53 11.03-.77.05-1.54.07-2.31.07zm135.78-122.67c.84-2.46 1.45-5.02 1.8-7.67.02-.19.03-.38.05-.57 1.78-.77 3.57-1.54 5.34-2.33 2.05 4.41 4.42 8.48 7.19 12.09.41.53.83 1.04 1.25 1.55-5.63-.02-10.88-1.07-15.64-3.07zm48.03 16.8h0c-10.36.0-19.73-4.02-27.42-11.68 7.26-.66 14.7-2.82 22.16-6.37 4.87 7.01 10.28 12.51 15.97 16.55-3.72 1-7.32 1.5-10.7 1.5zm35.88 4.74c-6.65.0-13.41-1.84-19.91-5.55 6.46-2.43 13.2-6.36 19.91-12.03 6.7 5.67 13.45 9.61 19.91 12.03-6.49 3.71-13.26 5.55-19.91 5.55zm35.88-4.74c-3.39.0-6.98-.49-10.71-1.5 5.69-4.03 11.1-9.54 15.97-16.55 7.46 3.54 14.89 5.7 22.15 6.36-7.69 7.66-17.05 11.68-27.42 11.68zm140.38-171.53c0 6.63-1.82 13.37-5.51 19.85-2.44-6.59-6.39-13.28-11.95-19.84 5.56-6.56 9.51-13.25 11.95-19.84 3.69 6.47 5.51 13.21 5.51 19.84zm-5.05-40.9c.66 5.03.29 10.34-1.14 15.78-4.06-5.75-9.62-11.21-16.71-16.12 3.69-7.89 5.73-15.37 6.39-22.19 6.33 6.3 10.32 13.9 11.46 22.53zm-14.82-38.19c.88 3.27 1.34 6.88 1.33 10.75-3.91-3.2-8.46-6-13.58-8.36.8-1.78 1.57-3.57 2.34-5.36 2.81-.34 5.54-.98 8.2-1.9.66 1.57 1.25 3.18 1.71 4.87zm-.45-7.73c-1.24-2.56-2.75-4.95-4.49-7.16.71-1.78 1.39-3.57 2.07-5.36 5.27 1.93 10.5 3.14 15.65 3.61-3.99 3.97-8.43 6.96-13.22 8.92zm18.19-10.97c.43-.51.85-1.02 1.26-1.56 4.1-5.33 7.37-11.62 9.9-18.67 4.51.81 8.94 1.27 13.24 1.27h0c3.43.0 6.71-.3 9.86-.83-7.4 12.71-19.56 19.73-34.26 19.79zm88.12-78.72c-2.71 10.09-9.15 18.07-18.42 23.45 1.11-6.76 1.07-14.52-.5-23.12.37-.13.72-.27 1.08-.4 1.38-.51 2.75-1.05 4.06-1.62 5.35-2.32 10.11-5.12 14.2-8.33.14-.11.29-.21.43-.33.16-.13.31-.27.48-.4.0 3.86-.45 7.47-1.33 10.74z" fill="#cff0ec"/></g></g></svg>