<svg id="_Слой_2" xmlns="http://www.w3.org/2000/svg" width="1080" height="1059.51" viewBox="0 0 1080 1059.51"><g id="Coral06_536017620"><g id="Coral06_536017620-2"><path d="M13.44 666.05c-4.74-21.82-8.32-44.64-10.55-68.32-8.25-86.4.79-185 31.72-295.88C168.81-178.59 1029.02-53.94 1076.67 452.85 1144.92 1178.44 141.54 1257.73 13.44 666.05z" fill="#4a59ad"/><path d="M712.41 514.63c-38.82 110.01-129.03 189.6-238.47 226.19-118.55 39.54-258.34 34.02-372.45-17.73-31.72-14.35-61.86-33.73-88.05-57.05-4.74-21.82-8.32-44.64-10.55-68.32 34.3 45.43 85.4 80.23 139.72 100.11 102.55 37.53 222.82 40.83 326.09 3.8 87.91-31.57 162.47-93.58 199.36-180.55 35.09-82.81 34.95-180.34-17.73-255.91-113.46-162.61-387.3-180.7-502.98-11.55-54.04 79.01-64.3 189.6-2.08 267.46 68.1 85.18 190.96 70.76 277.79 24.11 42.27-22.75 83.6-56.55 108.43-98.17 28.63-48.3 5.88-98.67-48.58-110.87-26.48-5.89-54.75-.65-80.23 7.03-19.52 5.88-59.56 16.86-66.09 39.54-7.25 25.33 26.62 38.18 45.86 36.67 19.16-1.51 34.02-11.7 42.84-28.42 11.7-22.17 43.7.29 32.08 22.25-25.12 47.43-94.87 60.35-135.7 25.47-21.89-18.73-31.79-48.44-19.02-75.28 13.42-28.2 45.21-42.27 72.98-52.1 59.71-21.1 131.04-27.2 179.48 21.46 51.02 51.24 26.19 120.85-15.57 168.57-77.22 88.2-212.49 146.25-328.96 110.73-116.97-35.67-165.99-170.36-139.65-281.6 27.92-118.05 127.74-205.96 245.28-228.71 118.12-22.89 246.5 14.78 331.83 100.11 82.81 82.81 102.76 203.95 64.37 312.74z" fill="#b7b7d2"/></g></g></svg>