<svg xmlns="http://www.w3.org/2000/svg" width="1080" height="650.12" viewBox="0 0 1080 650.12"><g id="a"/><g id="b"><g id="c"><g id="d"><path d="M555.24 107.32c.87-5.86-11.02-11.16-13.32-17.27-4.65-12.35 2.3-11.91 11.77-12.55 1.29-10.72-11.58-23.16 6.66-23.13 2.55-3.5 3.92-16.29 7.53-15.76 5.45.76 6.62 13.87 10.07 16.29 1.15-2.3 2.19-4.92 4.1-6.56-.14.13 5.99 28.08 5.93 31.39-.11 5.77-4.08 52.26-14.08 52.26-4.76-10.24-16.26-17.46-25.5-23.35 2-1.29 4.27-1.29 6.82-1.32z" fill="#bdd9a1"/><path d="M588.76 115.86c1.04-2.52 2.22-4.98 3.1-7.18 4.33-10.72 6.24-23.83 7.03-35.33.6-8.73-1.24-33.28 9.85-37.67 6.13-2.46 8.04 6.78 11.35 10.62 2.69-4.35 4.54-21.56 10.64-22.72 6.29-1.2 6.11 17.31 5.94 21.59 6.88-7.57 8.08-25.47 19.98-28.72 1.15 2.33 1.73 10.59 4.14 11.47 2.22.79 9.82-6.46 11.79-7.94 6.9-5.14 14.69-8.26 23.54-7.63 1.36 12.07-6.11 19.29-15.9 24.8-4.4 2.46-8.32 2.9-3.56 6.65 2.44 1.89 9.64 3.37 12.78 4.03 1.69 9.05-22.53 17.71-28.02 22.57 7.8.6 17.32 3.78 16.56 13.37-.66 8.19-10.31 14.94-16.78 18.63-8.49 4.85-17.13 4.54-26.55 5.33-9.06.76-17.86 3.21-26.22 6.74-5.63 2.37-16.31 11.79-22.19 10.34.2-2.81 1.27-5.93 2.52-8.95z" fill="#bdd9a1"/><path d="M697.16 87.43c-.73.1-.43 9.99-.24 11.13 6.35-3.97 12.95-4.48 20.3-4.95.13 6.96-3.26 15.88-6.56 21.93 9.51-.28 17.29-6.15 27.64-3.94 1.13 5.89-3.72 10.12-6.56 14.75 6.36.35 17.95 1.29 19.38 9.27-7.63 4.38-12.89 4.29-21.97 4.79 3.58 3.53 7.41 7.25 7.59 12.67-6.43.28-10.16-.38-15.7-2.93 3.23 4.66 4.48 11.28 2.84 16.83-9.23.54-15.7 1.01-22.47-6.21-5.89-6.3-11.25-8.39-18.5-12.83-.28-2.65-.25-5.45.88-7.53-4.85-1.67-10.32-2.56-12.4-6.43-2.47-4.6-.43-7.97-5.2-11.85-3.55-2.9-13.44-3.18-11.58-10.21 1.48-5.58 10.01-3.31 14.17-4.76 10.56-3.72 17.44-18.47 28.37-19.73z" fill="#bdd9a1"/><path d="M642.17 117.28c-.96 2.27-1.55 4.79-1.94 7.03 3.61-.09 17.49-4.25 20.09-1.01 2.5 3.09-5.76 11.22-8.67 12.92 6.49 1.17 18.06 1.86 22.36 7.56-2.54 2.46-5.34 4.42-7.98 6.84 5.44.47 25.09 5.64 20.49 14.37-4.03 7.63-22.84 2.49-28.65.13-11.06-4.48-21.35-8.26-32.94-11.28-4.13-1.07-41.91-15.32-41.24-17.43.62-1.95 12.23-1.64 14.55-2.24 8.84-2.33 15.93-8.79 24.49-11.85 1.81-.66 18.94-5.99 19.43-5.04z" fill="#bdd9a1"/><path d="M288.75 412.17c4 22.6 10.52 69.81 42.55 66.25 15.76-1.73 31.13-14.62 43.5-23.45 20.06-14.34 46.11-19.38 66.63-33.09 41.37-27.64 79.74-57.18 123.26-80.85 23.07-12.55 45.12-21.18 35.69-50.68-8.71-27.33-30.05-58.72-47.02-81.16-11.85-15.63-26.16-43.31-46.38-49.45-20.79-6.34-44.49 12.67-61.02 22.63-47.12 28.3-109.21 52.82-155.4 82.96-25.06 16.36-14.97 28.21-12.02 56.58 3.12 30.16 4.92 60.36 10.23 90.27z" fill="#ffd98c"/><path d="M342.89 418.85c22.54 11.57 50.57-12.35 67.85-24.17 32.64-22.38 65.1-44.28 100.75-61.65 17.02-8.32 53-17.18 60.55-37.19 7.11-18.79-12.01-44.03-21.75-58.44-11.8-17.46-27.56-41.01-49.42-46.42-21.7-5.42-45.83 8.6-65.1 16.73-38.52 16.23-78.64 24.68-111.06 52.73-36.91 31.96-23.84 64.8-11.93 107 4.9 17.37 12.34 42.27 30.12 51.41z" fill="#e8b35e"/><path d="M332.5 490.46c.32 1.86 19.61 7.44 23.11 9.71 17 11.06 40.62 38.2 56.78 31.43 32.62-13.62 65.56-75.93 94.3-96.01 25.47-17.78 52.09-32.56 79-47.88 16.48-9.4 36.61-21.43 42.66-40.79 3.85-12.23-.08-33.72-15.05-33.19-23.04.88-28.63 9.36-45.2 23.42-13.76 11.69-46.66 29.82-61.32 40.34-30.45 21.84-62.15 43.53-95.2 62.94-7.56 4.42-80.47 41.92-79.08 50.02z" fill="#ffd98c"/><path d="M563.53 204.27c43.53-.88 86.46-3.41 129.56-9.58 31.57-4.51 67.72-11.54 94.73 10.28 26.13 21.05 30.86 55.44 39.96 85.6 4.03 13.3 11.51 26.51 18.72 38.29 4.16 6.84 19.98 22.25 19.73 30.54-.31 12.39-23.98 14.4-33.82 16.86-17.24 4.29-34.42 7.75-51.8 12.83-34.28 9.96-65.45 18.76-100.92 22.98-18.66 2.21-41.31-1.38-58.97 4.42 7.31 8.41 33.25 4.44 43.77 4 19.62-.82 40.09-7.41 59.35-9.93 40.68-5.3 75.49-18 115.14-27.55 15.92-3.81 40.34-2.87 34.95 27.55-5.86 32.94-43.31 34.29-64.55 37.13-49.72 6.62-120.2 11.06-169.46 20.99-27.34 5.49-57.29 3.22-66.86-39.24-3.66-16.26 41.85-42.26 74.13-64.04 6.35-4.29-7.31-41.92-26.98-66.41-18.42-22.98-37.19-43.34-46.46-71.93-1.84-5.74-3.36-11.57-4.82-17.4l-5.39-5.39z" fill="#ffd98c"/><path d="M678.01 209c25.7-1.64 67.85-9.3 88.03 11.66 18.61 19.29 23.01 59.57 33.69 83.9 5.04 11.57 13.71 26.51 8.16 39.33-6.96 16.2-31.94 21.34-46.93 25-51.19 12.48-82.3 14.43-134.76 10.21.95-15.48 11.03-3.88 19.37-14.53 9-11.51-6.62-32.72-14.67-44.32-15.91-22.88-27.75-47.15-41.92-71.23-3.48-5.89-18.99-21.56-15.33-29.38 3.37-7.18 13.58-3.78 20.39-4 27.92-.79 56.04-4.92 83.96-6.65z" fill="#e8b35e"/><path d="M568.95 420.84c-6.19 1.26-7.72 4.07-7.46 5.23 2.02 8.95 4.22 18.03 7.36 27.52.8 2.39 1.67 4.79 2.71 7.28 1.16 2.55 2.05 4.95 4.52 8.22 4.89 5.8 10.67 8.35 16.22 10.22 5.58 1.86 11.06 2.65 16.52 3.15 5.45.57 10.84.57 16.25.57 10.79-.22 21.57-1.2 32.42-2.55 10.87-1.36 21.62-3.12 32.56-4.73 10.93-1.64 22.02-3.31 33.2-5.01 22.39-3.34 45.26-6.75 68.38-10.18 11.57-1.67 23.2-3.34 34.89-5.04 5.8-.79 11.66-1.61 17.49-2.42l8.76-1.14c2.93-.38 5.92-.82 8.57-1.04l4.1-.41 2.05-.22 1.07-.09 1.61-.13c4.26-.28 8.39-1.92 11.63-4.19 3.28-2.27 5.86-5.04 7.97-8.04 2.08-3.06 3.72-6.18 4.85-10.15.25-1.07.51-2.17.57-3.62l.09-2.3.13-4.41.28-8.98c.16-6.02.22-12.04.0-18.12-.09-3.06-.28-6.18-.56-9.3-.19-1.64-.35-3.18-.66-4.89l-.5-2.55-.88-2.9c-.35-1.01-1.2-2.49-1.92-3.62.54.76.09.09.16.19l-.13-.22-.28-.47-.57-.95c-.72-1.26-1.54-2.55-2.24-3.78l-3.78-7.35c-5.17-10.21-10.34-20.8-15.38-31.17-5.11-10.4-10.15-20.74-15.13-30.98-2.58-5.11-5.01-10.18-7.69-15.26-2.59-4.98-5.14-9.93-7.69-14.81-9.71-19.73-18.03-39.87-28.74-58.53-1.45-2.3-2.9-4.57-4.32-6.87-1.7-2.39-3.81-4.88-6.21-6.74-4.76-3.81-10.21-5.99-15.48-7.38-10.67-2.58-20.93-2.52-30.7-2.02-38.23 4.01-72.57 7.57-101.37 10.59-28.68 3.15-51.96 5.13-67.97 6.93-16.03 1.73-24.84 2.96-24.81 3.5.05.54 8.95.38 25.07-.32 16.12-.79 39.44-1.79 68.33-4 14.45-1.07 30.3-2.24 47.32-3.5 8.49-.69 17.35-1.17 26.37-2.14 9-1.01 18.22-1.92 27.59-2.24 9.35-.28 19.01.0 27.9 2.39 4.37 1.26 8.46 3.12 11.64 5.83 1.67 1.36 2.81 2.87 4.13 4.76 1.26 2.14 2.55 4.29 3.84 6.43 9.83 17.9 17.78 38.07 27.42 58.44 2.49 5.01 5.01 10.05 7.53 15.13 2.49 4.92 4.89 10.12 7.35 15.19 4.85 10.31 9.74 20.68 14.69 31.17 4.95 10.52 9.83 20.96 15.16 31.77l4.25 8.35 2.21 3.85.54.95.28.5c-1.92.95 2.87-1.14 1.98-.57-.28.22-.57.47-.88.69l-.75.54v.03l.03.03c0-.1.06.15.13.41.57 1.58.91 4.54 1.17 7.13.22 2.74.35 5.58.38 8.45.1 5.7.0 11.54-.22 17.4l-.38 8.79-.22 4.51c-.06 2.14-.03 1.7-.31 2.74-.54 1.8-1.7 4-3.03 5.8-1.32 1.83-2.93 3.37-4.54 4.41-1.64 1.04-3.25 1.58-4.92 1.64l-9.14.76c-3.28.25-6.08.66-9.08 1.01l-8.89 1.07c-5.89.76-11.75 1.51-17.65 2.27-11.72 1.58-23.42 3.15-35.02 4.73-46.3 6.52-91.53 12.89-134.02 18.88-10.48 1.23-20.79 2.11-30.73 2.21-9.83.03-19.7-.5-27.49-3.15-1.04-.25-1.86-.69-2.74-1.07l-1.29-.56-1.07-.69c-.74-.41-1.48-.85-1.94-1.39l-.84-.69c-.32-.22-.24-.38-.43-.54-.63-.88-1.61-2.87-2.38-4.79-.79-1.96-1.53-4.03-2.24-6.15-2.77-8.54-4.93-17.4-6.82-25.94-.2-.97-2.03-2.58-8.21-1.32z" fill="#884712"/><path d="M520.67 143.5l-2.71 4.35c.49.44 1.04.85 1.7 1.64.63.66 1.24 1.42 1.86 2.24 1.26 1.55 2.47 3.28 3.7 4.95 2.43 3.47 4.87 7.12 7.31 10.87 4.9 7.53 9.88 15.54 15.07 23.89 5.11 8.35 10.8 17.02 16.5 25.75 5.74 8.76 11.51 17.93 17.43 27.26 5.95 9.33 11.88 18.97 17.93 28.71 1.51 2.46 3.03 4.92 4.55 7.37 1.4 2.43 2.82 4.85 4.24 7.31l2.14 3.66c.72 1.32 1.42 2.24 1.58 2.93.19.69.0 1.42-.27 2.05-.27.66-.95 1.89-1.66 2.84-2.95 4.16-7.28 8.04-11.75 11.41-2.25 1.73-4.63 3.31-7.03 4.82-2.44 1.51-4.84 2.65-7.63 4.41-5.52 3.21-10.45 6.62-15.52 9.99-5.09 3.34-10.01 6.81-15.02 10.24-19.86 13.74-39.71 27.51-59.18 41.01-9.77 6.65-19.4 13.3-29.01 19.45-2.39 1.55-4.74 3.15-7.17 4.6-2.44 1.42-4.87 2.84-7.28 4.22-4.84 2.84-9.61 5.61-14.36 8.38-19.42 10.72-38.04 20.58-55.49 30.76-4.37 2.68-8.64 5.26-12.83 7.85-4.19 2.74-7.87 5.64-11.49 8.23-7.17 5.23-14.04 9.93-20.39 12.61-3.14 1.36-6.37 2.21-8.78 2.11-2.38-.16-3.78-.76-5.59-2.84-.41-.6-.88-1.1-1.28-1.86l-.61-1.07-.61-1.42c-.85-1.83-1.72-3.69-2.46-5.89-1.62-4.19-3.03-8.79-4.49-13.4-5.61-18.75-10.68-39.59-15.65-61.4-4.95-21.84-9.87-44.85-14.22-68.21-1.06-5.89-2.13-11.79-3.2-17.71-.95-5.8-1.77-11.6-1.53-16.86.16-5.36 1.55-9.8 4.63-13.02.84-.79 1.62-1.64 2.68-2.27.85-.63 2.22-1.48 3.51-2.3l7.75-4.89c10.34-6.49 20.68-12.98 30.92-19.45 5.14-3.25 10.24-6.46 15.32-9.64l1.91-1.2.73-.44.84-.44 4-2.02c2.66-1.32 5.33-2.68 7.98-4 21.19-10.69 41.81-21.18 61.35-31.3 9.76-5.14 19.29-9.96 28.42-15 2.27-1.26 4.54-2.49 6.79-3.69 2.25-1.32 4.51-2.74 6.71-4.1 2.36-1.36 4.02-2.74 6.08-4.07 2-1.29 4.03-2.55 6.07-3.75 8.15-4.82 16.23-9.08 24-12.67 3.89-1.8 7.72-3.44 11.46-4.76 1.88-.66 3.72-1.23 5.48-1.61.88-.22 1.75-.35 2.52-.41.35.0.73.0.98.03l.32.06s-.13.16.28-.41l2.44-3.91c-1.91-1.04-3.15-.82-4.4-.82-1.2.06-2.3.25-3.36.51-2.13.47-4.18 1.1-6.19 1.79-4.03 1.45-8.05 3.12-12.09 4.95-8.08 3.69-16.34 7.91-24.77 12.74-2.09 1.23-4.21 2.49-6.32 3.81-1.07.69-2.13 1.39-3.2 2.15-1.06.79-2.07 1.26-3.1 1.89-2.08 1.2-4.07 2.43-6.29 3.6-2.24 1.17-4.49 2.33-6.76 3.53-9.06 4.76-18.66 9.36-28.37 14.18-19.54 9.52-40.12 19.32-61.27 29.28-2.65 1.23-5.3 2.49-7.96 3.72l-3.99 1.89-1.01.47c-.25.13-.77.32-1.31.63l-1.99 1.2c-5.09 3-10.2 5.99-15.32 9.01-10.24 6.05-20.57 12.17-30.9 18.25l-7.75 4.57-3.88 2.3c-1.48 1.01-3.1 1.86-4.49 3.15-2.96 2.3-5.28 5.55-7 8.92-1.68 3.43-2.41 7-2.93 10.46-.73 6.87-.11 13.27.65 19.38.79 6.15 1.8 12.04 2.66 17.84 3.67 23.7 7.99 46.71 12.42 68.96 4.52 22.19 9.16 43.5 14.73 63.51.66 2.49 1.44 4.98 2.21 7.44.76 2.46 1.5 4.92 2.41 7.37.86 2.46 1.67 4.85 2.85 7.37.56 1.26 1.04 2.46 1.68 3.75.76 1.36 1.48 2.68 2.48 4.01 1.86 2.61 4.33 5.17 7.45 7.03 3.11 1.89 6.73 2.87 10.02 3.12 6.66.38 12.04-1.42 16.62-3.31 9.17-3.97 16.91-9.65 24.66-15.35 3.92-2.87 7.48-5.89 11.55-8.32 4.03-2.52 8.16-5.11 12.34-7.76 17.34-10.27 36.44-20.89 56.07-32.53 9.76-6.05 19.89-11.98 29.47-18.85 4.92-3.34 9.68-6.81 14.51-10.24 4.84-3.47 9.68-6.94 14.5-10.5 19.23-14.15 38.77-28.52 58.2-42.8 4.85-3.59 9.72-7.09 14.59-10.5 2.43-1.7 4.89-3.56 7.27-5.01l3.59-2.33c1.17-.76 2.39-1.55 3.83-2.33 5.47-3.21 10.46-6.94 15.13-11.1 2.33-2.08 4.54-4.35 6.62-6.81 1.04-1.23 2.03-2.55 2.96-3.97.95-1.55 1.68-2.81 2.49-5.11.54-2.11 1.03-4.44.14-6.52-.22-1.07-.86-1.73-1.26-2.62l-1.2-1.98c-1.58-2.55-3.14-5.11-4.7-7.63-3.09-5.17-6.29-9.74-9.4-14.53-6.21-9.52-12.34-18.82-18.39-27.83-6-9.05-11.9-17.84-17.7-26.32-2.85-4.22-5.67-8.39-8.43-12.48-2.69-4.13-5.33-8.19-7.91-12.16-5.13-7.98-10.07-15.67-14.89-22.92-2.39-3.62-4.81-7.09-7.2-10.46-1.25-1.67-2.43-3.34-3.74-4.95-.61-.79-1.31-1.61-2.03-2.39-.62-.76-1.64-1.61-2.63-2.39z" fill="#884712"/><path d="M319.41 484.88c-3.99 4.92-4.18 7.41-3.62 7.85 11.98 9.14 25.1 18.09 39.57 27.26 7.24 4.57 14.77 9.11 22.85 13.43 4.06 2.14 8.22 4.22 12.86 6.12 2.35.91 4.74 1.79 7.69 2.49.35.09.8.16 1.2.22l1.68.22c1.12.13 2.22.06 3.33.0 1.06-.22 2.22-.22 3.15-.82.5-.22.93-.63 1.51-.69l1.39-.88c2.63-1.99 5.26-3.97 7.93-5.96 2.54-1.86 5.09-3.69 7.66-5.55 5.15-3.69 10.35-7.44 15.59-11.19 10.52-7.44 21.2-14.97 31.88-22.53 10.73-7.53 21.51-15 32.3-22.38 5.36-3.75 10.8-7.22 16.15-10.84 5.47-3.78 10.5-6.52 16.04-10.09 2.87-1.83 5.72-3.66 8.56-5.45 2.63-1.89 5.25-3.75 7.85-5.61 2.59-1.89 5.17-3.72 7.72-5.58 2.5-1.89 5.01-3.78 7.48-5.64 9.96-7.44 19.48-14.91 28.71-22.06 9.17-7.25 18.01-14.25 26.45-20.93 8.54-6.81 16.66-13.33 24.28-19.41 4.1-2.49 3.53-8.32 2.66-11.6-.79-3.21-1.86-6.05-2.99-8.76-1.17-2.68-2.4-5.23-3.75-7.69l-1.07-1.83c-.41-.63-.79-1.23-1.07-1.77-.63-1.13-1.24-2.21-1.84-3.28-4.92-8.63-9.19-16.14-12.7-22.32-7.03-12.48-11.3-19.45-11.93-19.13-.63.31 2.44 7.88 8.32 20.96 2.99 6.56 6.84 14.47 11.25 23.57.57 1.14 1.13 2.3 1.7 3.47.28.63.57 1.17.85 1.64l.84 1.64c1.09 2.27 2.13 4.73 3.04 7.25.91 2.52 1.77 5.17 2.24 7.76l.17.91.05.63c.05.41.03.79.0 1.2-.05.41-.16.79-.38 1.14-.27.32-.63.54-.96.76-15.32 11.25-32.66 23.95-51.3 37.63-9.44 6.84-19.16 13.97-29.25 21.06-2.51 1.8-5.03 3.59-7.57 5.39-2.57 1.73-5.14 3.5-7.72 5.26-2.58 1.73-5.18 3.5-7.78 5.26-2.58 1.54-5.17 3.12-7.75 4.7-5.34 3.24-11.74 6.59-17.05 10.12-5.52 3.53-11.14 7-16.61 10.62-11.02 7.16-22 14.47-32.9 21.81-10.91 7.35-21.75 14.69-32.4 22.06-5.31 3.69-10.61 7.35-15.85 11-2.62 1.83-5.22 3.66-7.82 5.49l-3.96 2.9-3.23 2.36c-.06.03-.11.06-.17.06l-.08-.03h0c-.17-.03-.28-.03-.49-.09-1.51-.38-3.39-1.07-5.23-1.83-3.75-1.54-7.58-3.53-11.33-5.54-7.52-4.13-14.8-8.6-21.8-13.11-13.93-8.98-27.08-18.09-38.23-26.66-.41-.32-2.14.15-6.11 5.04z" fill="#884712"/><path d="M621.12 382.38c.22 3.78 1.94 4.89 2.78 4.82 6.3-.54 12.81-1.07 19.48-1.64 6.68-.54 13.55-1.07 20.49-2.05 13.93-1.7 28.48-3.5 43.39-5.61 14.96-2.17 30.34-3.84 46.06-5.8 7.88-.82 15.87-1.48 23.91-2.24 8.1-.79 16.28-1.58 24.51-2.39 7.41-.95 15.95.03 24.84-1.29 2.24-.32 4.54-.82 6.9-1.67 2.33-.85 4.89-2.27 7-4.63 2.08-2.52 2.9-5.99 2.62-8.92-.25-2.9-1.17-5.07-2.05-7.25-3.72-8.32-8.86-15.07-12.55-22-.47-.88-.82-1.7-1.2-2.52l-.44-1.17-.44-1.45-1.83-5.99-3.59-11.91c-2.43-7.94-4.82-15.85-7.22-23.74-2.68-8.41-6.81-15.73-10.37-22.91-.91-1.8-1.73-3.56-2.59-5.36-.76-1.79-1.55-3.56-2.21-5.36-1.1-3.4-2.58-7.63-4.1-11.63-1.07-1.89-2.14-3.85-3.28-5.67l-3.66-4.95-3.47-4.63-.86-1.17c-.24-.35-.38-.63-.58-.98-.41-.57-.69-1.45-1.04-2.18-1.31-3.21-2.02-7.66-5.39-11.57-.95-.85-1.78-1.83-2.93-2.39l-1.64-.91c-.55-.22-1.12-.41-1.67-.6-2.24-.76-4.4-.95-6.48-1.07-4.14-.19-8 .28-11.6.47-3.74.25-7.44.54-11.11.79-14.69 1.14-28.85 1.92-42.28 3.21-13.41 1.36-26.15 2.65-38.06 3.84-11.88 1.36-22.93 2.59-33.02 3.72-20.16 2.39-36.44 4.29-47.67 5.61-5.61.69-9.96 1.26-12.91 1.73-2.95.44-4.49.76-4.48.91.02.16 1.59.16 4.57.03s7.36-.38 13.02-.79c11.3-.79 27.67-2.02 47.89-3.81 10.12-.88 21.21-1.86 33.13-2.9 11.91-.98 24.65-1.98 38.07-3.06 13.43-1.04 27.55-1.61 42.2-2.49 3.66-.19 7.36-.41 11.08-.6 3.88-.16 7.53-.51 10.99-.28 3.48.22 6.4 1.07 8.08 3.02 1.75 2.11 2.52 5.61 3.99 9.68.68 1.99 2.14 4.48 3.26 5.86l3.53 4.88 3.37 4.63 2.6 4.73 1.8 5.29c.63 1.67 1.29 3.94 1.92 5.9 1.48 3.97 3.19 7.81 4.98 11.54 3.62 7.41 7.44 14.5 9.68 21.87 2.3 7.91 4.6 15.89 6.94 23.89l3.5 12.01 1.77 5.99c.22.95.69 2.17 1.13 3.34.47 1.04.95 2.14 1.48 3.09 4.1 7.78 9.08 14.53 12.04 21.53.63 1.67 1.23 3.4 1.26 4.66.06 1.14-.31 1.92-.85 2.68-.69.73-1.99 1.45-3.5 1.98-1.61.51-3.37.92-5.23 1.14-3.78.5-7.79.57-11.85.57l-6.27.03c-1.1.03-2.2.06-3.4.19l-3.12.28c-16.37 1.45-32.54 2.87-48.38 4.29-15.86 1.83-31.44 3.47-46.37 5.58-14.97 2.02-29.42 3.75-43.23 5.42-6.92.95-13.67 1.42-20.25 1.96-6.59.54-13 1.07-19.21 1.58-.71.06-2.08 1.04-1.88 4.82z" fill="#884712"/><path d="M449.81 188.26l1.51 2.68c11.41-6.62 23.51-15.16 38.14-20.87 3.64-1.36 7.46-2.46 11.32-2.8 3.89-.35 7.63.19 10.53 2.77 2.96 2.43 5.18 6.02 7.16 9.77 2 3.81 3.65 7.91 5.96 12.01 8.98 15.51 17.74 32.21 28.92 48.13 1.42 1.99 2.68 4.01 4.24 5.99 1.53 1.98 3.12 3.81 4.71 5.67 3.17 3.69 6.35 7.31 9.34 11.06 2.98 3.75 5.82 7.6 8.12 11.63 2.2 3.97 4.14 8.35 3.83 12.1-.13 3.59-2.85 7.12-6.18 10.24-3.31 3.15-7.18 5.93-11.16 8.54-7.97 5.26-16.45 9.68-24.98 14.4-16.47 9.71-33.55 17.05-49.72 25.75-8.17 4.29-15.7 8.98-22.99 13.55-7.24 4.6-14.26 9.05-21.04 13.36-13.52 8.6-26.03 16.52-37.32 23.26-5.66 3.34-11.63 7.03-18.08 10.47-6.4 3.72-13.13 6.84-20.41 10.18-7.31 3.15-14.94 6.27-22.62 7.22-3.8.51-7.52.19-10.12-1.29-.74-.28-1.2-.88-1.84-1.29-.21-.25-.33-.51-.54-.73-.19-.19-.41-.44-.52-.85l-.49-1.01c-.15-.38-.24-.88-.38-1.29-.28-.82-.41-1.86-.58-2.87-.32-2.02-.51-4.26-.74-6.62-.2-2.3-.73-5.33-1.5-7.57-1.43-4.85-3.5-9.46-5.8-13.74-2.29-4.29-4.68-8.38-6.84-12.54-2.16-4.03-3.94-8.64-5.94-12.99l-2.93-6.62c-1.02-2.2-1.97-4.44-2.77-6.71-1.69-4.57-3.39-9.11-5.09-13.71l-1.29-3.4c-.36-1.17-.61-2.3-.93-3.44-.54-2.3-1.42-4.48-1.67-6.87-.33-2.39-.76-4.66-1.03-7.12-.27-2.49-.49-4.92-.8-7.41l-1.1-7.53-.52-3.47c-.09-1.14-.19-2.27-.22-3.37.0-2.2.22-4.35.85-6.34.66-1.95 1.68-3.78 3.02-5.48 2.82-3.37 6.62-6.27 10.51-9.11 3.92-2.84 7.83-5.67 11.73-8.48 7.8-5.45 15.76-10.62 23.67-15.48 7.93-4.82 15.77-9.49 23.67-13.4 1.95-1.01 3.92-1.98 5.89-2.74 1.97-.79 3.91-1.61 6-2.39 2.05-.76 4.1-1.55 6.12-2.3 2-.79 3.92-1.7 5.88-2.55 7.77-3.37 14.99-7.19 21.87-10.84 13.73-7.44 25.89-14.78 36.66-20.89l-1.51-2.65c-11.06 6.27-23.39 13.62-37.13 20.8-6.89 3.56-14.09 7.22-21.73 10.4-3.78 1.7-7.74 3.12-11.74 4.51-3.96 1.48-8.39 3.09-12.29 5.11-8.07 3.84-15.96 8.32-23.95 12.98-7.98 4.67-15.97 9.61-23.94 14.94-3.91 2.71-7.83 5.42-11.79 8.17-3.94 2.77-8.05 5.58-11.66 9.52-3.71 3.84-6.07 9.61-6.15 14.97-.17 2.71.11 5.33.46 7.88l.9 7.16c.6 4.76.74 9.61 1.53 14.69.19 1.23.28 2.49.54 3.75l.91 3.72c.65 2.46 1.14 5.04 2.03 7.28 3.33 9.27 6.23 18.72 10.24 27.58 1.92 4.51 3.69 8.95 5.72 13.43 2.08 4.51 4.46 8.7 6.59 12.8 2.13 4.13 4.03 8.16 5.39 12.26.56 2.05 1.23 4.16 1.43 5.95.2 2.27.39 4.54.6 6.78.21 2.36.6 4.92 1.37 7.59.49 1.33 1.01 2.74 1.88 4.07.96 1.39 2 2.71 3.19 3.56 2.29 1.98 5.09 3.09 7.75 3.78 2.66.56 5.33.79 7.8.63 9.94-.57 18.28-3.97 26.08-7.09 15.59-6.56 29.31-14.4 41.35-21.65 12.09-7.28 25.17-15.67 39.07-24.74 6.93-4.54 14.1-9.2 21.46-14.03 3.69-2.33 7.42-4.7 11.19-7.09 3.85-2.21 7.74-4.42 11.66-6.65 7.98-4.35 16.31-8.48 24.79-12.92 2.11-1.1 4.25-2.18 6.37-3.34 2.11-1.2 4.22-2.39 6.34-3.62l6.35-3.66 6.15-3.59c8.38-4.82 17.02-9.71 25.15-15.7 4.05-3.03 8.05-6.24 11.49-10.43 1.62-2.2 3.33-4.48 4.16-7.53.57-1.48.55-3 .66-4.54-.05-1.45-.22-2.93-.52-4.32-1.34-5.48-4.03-9.99-6.86-14.18-2.88-4.16-6.04-8.01-9.25-11.7-3.23-3.62-6.43-7.22-9.63-10.81-3.1-3.44-5.66-7.47-8.46-11.22-2.82-3.75-5.31-7.72-7.8-11.66-2.54-3.88-4.95-7.82-7.28-11.79-4.63-7.82-9.47-15.73-13.67-23.17-2-3.81-3.78-7.85-6.07-11.63-1.13-1.92-2.38-3.78-3.89-5.48-1.45-1.7-3.2-3.31-5.26-4.41-2-1.17-4.41-1.89-6.62-1.95-2.24-.19-4.4.06-6.48.38-4.18.66-7.99 2.08-11.63 3.56-14.48 6.15-26.11 14.5-36.8 20.65z" fill="#884712"/><path d="M880.96 357.61c-2.3-2.99-2.62-4.32-2.39-4.51 13.3-10.02 29.91-22.47 47.43-35.43 8.76-6.46 17.74-13.08 26.6-19.6 2.21-1.64 4.44-3.25 6.62-4.85l1.67-1.2.76-.57c.09-.06.03.0.32-.28.82-.88 1.64-1.83 2.36-2.8 3.03-3.84 5.26-8.29 5.55-12.35.25-4.07-1.8-7.63-5.2-10.27-3.72-2.55-7.56-5.11-11.5-7.06-7.69-4.19-15.1-7.22-21.21-9.87-12.39-5.11-20.17-7.91-19.99-8.54.16-.63 8.35.98 21.28 5.07 6.43 2.18 14.09 4.7 22.35 8.6 4.19 1.8 8.35 4.22 12.73 7 2.21 1.64 4.41 3.62 5.93 6.34 1.7 2.59 2.33 5.89 2.33 9.01-.22 6.34-3.03 11.82-6.4 16.55-.85 1.2-1.76 2.33-2.77 3.47-.22.25-.73.82-1.2 1.14l-.82.63-1.61 1.26c-2.14 1.7-4.32 3.4-6.46 5.11-8.7 6.77-17.49 13.62-26.07 20.33-17.21 13.36-33.66 26.03-46.93 36.12-.19.16-1.1-.25-3.37-3.28z" fill="#884712"/><path d="M741.61 463.61c-2.3-3.02-3.77-3.43-4.13-3.18-21.89 16.93-49.17 37.98-77.77 60.07-13.87 10.53-30.71 17.62-48.14 20.65-17.41 2.93-35.46 2.27-51.47-2.11-32.26-11.66-61.26-22.16-82.2-29.72-10.53-3.75-19.04-6.71-24.96-8.63-5.93-1.96-9.24-2.9-9.36-2.59-.13.31 2.98 1.83 8.69 4.35 5.7 2.52 14.04 6.05 24.38 10.34 10.37 4.22 22.74 9.27 36.5 14.88 6.9 2.77 14.15 5.71 21.67 8.73 3.77 1.48 7.6 3.03 11.49 4.6 1.95.76 3.92 1.54 5.89 2.33 1.95.82 3.94 1.61 6.13 2.21 17.07 5.07 35.98 6.18 54.67 3.41 18.66-2.87 36.97-10.28 52.1-21.43 29.14-21.78 56.4-42.68 78.42-59.48.32-.22.41-1.42-1.89-4.41z" fill="#884712"/><path d="M298.89 438.8c-.03.09-.99-.19-2.79-.76-1.77-.6-4.38-1.51-7.72-2.65-6.63-2.43-16.15-5.89-27.75-10.09-11.55-4.29-25.15-9.33-39.98-14.85-7.42-2.71-15.1-5.67-22.96-8.82-7.87-3.12-15.93-6.3-24.1-9.55-8.15-3.28-16.48-6.27-24.57-10.37-8.05-4.03-16.01-8.54-22.96-14.81-3.42-3.21-6.67-6.9-8.58-11.79-2.11-4.79-1.67-11.03.84-15.54 2.43-4.57 6-7.81 9.71-10.37.93-.66 1.89-1.26 2.91-1.83.76-.38 1.7-.95 2.54-1.42 1.72-1.01 3.44-1.98 5.12-2.93 27.04-15.41 49.3-28.11 60.56-34.52 22.62-12.64 89.78-49.36 151.38-82.67 30.86-16.58 60.28-32.4 81.99-44.06 10.92-5.74 19.9-10.47 26.15-13.74 6.29-3.21 9.87-4.92 9.98-4.73s-3.23 2.33-9.27 6.02c-6.07 3.59-14.78 8.79-25.37 15.1-21.32 12.42-50.19 29.22-80.48 46.84-60.66 35.05-127.07 73.06-149.65 85.7-11.33 6.24-33.77 18.56-61.05 33.57-1.7.91-3.44 1.86-5.19 2.8-.9.5-1.67.95-2.69 1.48-.74.38-1.51.82-2.25 1.32-2.98 1.92-5.71 4.41-7.25 7.22-1.53 2.81-1.92 5.83-.69 8.99 1.1 3.18 3.51 6.3 6.4 9.11 5.86 5.58 13.28 10.15 20.93 14.21 7.59 4.1 15.87 7.37 23.86 10.87 8.02 3.44 15.95 6.87 23.69 10.21 7.72 3.37 15.29 6.59 22.63 9.55 14.61 6.05 28.02 11.6 39.41 16.33 11.35 4.82 20.69 8.76 27.19 11.5 3.23 1.45 5.75 2.55 7.47 3.31 1.7.79 2.6 1.26 2.55 1.36z" fill="#884712"/><g><path d="M582.57 91.18 584.27 87.18 582.57 91.18v0z" fill="#884712"/><path d="M1075.93 262.96c-2.52-4.03-5.77-7.18-9.08-9.64-1.64-1.36-3.41-2.36-5.08-3.47l-4.79-2.71-9.55-5.42c-3.18-1.77-6.55-3.28-9.8-4.88-6.56-3.34-13.17-5.96-19.73-8.86-6.49-2.8-12.99-5.61-19.48-8.38l-4.82-2.05-5.04-1.86c-3.37-1.23-6.71-2.43-10.05-3.66-6.71-2.43-13.4-4.89-19.98-6.96-13.21-4.38-26.32-8.73-39.3-13.02-26-8.39-51.53-16.61-76.37-24.65-31.08-9.9-61.15-19.51-89.91-28.72-3.67.92-7.36 3.66-11.03 5.8 31.41 10.5 64.28 21.47 98.36 32.84 24.46 8.29 49.51 16.83 75.01 25.5 12.73 4.44 25.53 8.92 38.45 13.43 3.21 1.13 6.43 2.3 9.68 3.43 3.15 1.2 6.3 2.39 9.49 3.62l9.49 3.59c3.18 1.2 6.36 2.4 9.52 3.91 12.7 5.74 25.59 11.28 37.92 17.33l9.17 4.67c3 1.64 5.93 3.47 8.89 5.2l4.44 2.62 2.2 1.32 1.89 1.29c2.46 1.73 4.7 3.66 6.21 5.71 3.06 4.1 3.56 8 1.7 13.14-1.92 5.07-5.89 10.31-10.31 15.13-9.08 9.74-20.23 18.31-31.46 27.2-89.45 71.23-179.85 142.69-264.05 208.97-21.15 16.33-41.9 32.34-62.14 47.97-5.06 3.91-10.09 7.81-15.08 11.66-2.51 2.05-4.95 3.59-7.38 5.26-2.46 1.64-4.82 3.4-7.33 4.88-9.99 6.05-20.33 11.06-30.92 14.81-10.64 3.6-21.42 6.05-32.18 7.31-10.76 1.17-21.43 1.1-31.78.03-10.32-1.07-20.36-3.21-29.63-6.34-2.33-.76-4.57-1.61-6.75-2.52l-1.66-.66-1.83-.79-3.67-1.61c-4.85-2.08-9.64-4.13-14.39-6.15-75.55-32.12-167.29-70.51-266-113.21-49.31-21.47-100.45-43.84-151.54-67.99-6.32-3.09-12.67-6.21-19.02-9.3-3.15-1.58-6.38-3.06-9.51-4.7l-9.31-4.92-9.33-4.89c-3.07-1.67-5.8-3.53-8.73-5.26-6.01-3.4-11.19-7.18-15.33-11.57-4.07-4.38-7.12-9.17-7.82-14.12-.93-4.95.28-10.31 2.9-15.66 5.5-10.72 15.73-20.3 26.56-28.49 5.47-4.13 11.22-7.94 17.14-11.54 5.8-3.6 12.25-6.71 18.56-10.02 12.67-6.49 25.29-12.98 37.87-19.48 25.07-12.98 50.35-25.62 75.11-38.2 49.61-25.15 97.95-49.64 143.93-72.94 23.01-11.66 45.42-23.04 67.14-34.04 21.64-11.25 42.55-22.1 62.64-32.53 5.01-2.58 9.98-5.17 14.89-7.72 2.39-1.23 4.78-2.49 7.14-3.72 2.39-1.17 4.84-2.17 7.23-3.28 9.68-4.13 19.53-7.19 29.31-8.86 4.01-.66 8.01-1.04 11.96-1.26-1.07-2.36-2.72-4.66-3.12-7.59-4.29.31-8.59.79-12.89 1.58-10.87 2.02-21.67 5.61-32.12 10.34-2.66 1.1-5.22 2.43-7.79 3.75-2.57 1.29-5.14 2.62-7.72 3.94-5.09 2.55-10.24 5.17-15.45 7.82-20.8 10.46-42.39 21.37-64.66 32.59-22.42 10.97-45.53 22.25-69.17 33.82-47.31 23.01-96.78 47.06-147.32 71.61-25.29 12.23-50.84 24.62-76.54 37.35-12.86 6.33-25.75 12.67-38.64 19.04-13.05 6.93-25.64 14.88-37.23 24.71-5.77 4.92-11.27 10.4-16.07 16.83-4.79 6.37-8.92 14.03-10.4 23.01-.79 4.44-.55 9.17.28 13.71.6 2.24 1.09 4.51 2.05 6.56.44 1.01.84 2.11 1.34 3.09l1.62 2.87c4.51 7.57 10.59 13.27 16.83 17.96 3.12 2.4 6.34 4.16 9.49 6.24 3.19 1.98 6.37 4.22 9.53 5.83 6.34 3.5 12.67 6.96 18.99 10.43 12.75 6.43 25.37 13.14 38.11 19.23 50.78 24.81 101.02 47.72 149.22 69.47 96.43 43.34 184.98 81.41 256.36 111.79 4.44 1.89 8.95 3.81 13.54 5.77 2.3 1.01 4.64 1.99 6.98 3 2.62 1.01 5.25 2.18 7.91 3.03 10.67 3.69 21.84 6.18 33.44 7.59 11.6 1.42 23.64 1.58 35.8.38 12.15-1.2 24.54-3.47 36.59-7.56 1.51-.51 3.06-.92 4.55-1.45l4.46-1.77c2.96-1.23 6.02-2.27 8.92-3.69 5.82-2.84 11.74-5.58 17.29-9.08 5.75-3.18 11.06-7.09 16.5-10.87 2.84-1.89 5.04-3.88 7.59-5.83 2.48-1.99 4.96-3.94 7.46-5.93 19.97-15.82 40.52-32.12 61.52-48.76 41.53-33.79 84.96-68.96 129.02-105.15 44-36.22 88.88-73.15 133.64-110 11.06-9.14 22.76-18.19 33.29-29.25 5.2-5.64 10.34-11.66 13.99-19.54 1.76-3.94 3.18-8.45 3.18-13.43.06-4.95-1.51-10.06-4.07-14.06z" fill="#884712"/></g><path d="M592.7 408.57c-2.14 3.12-2.02 4.63-1.59 4.85 1.55.85 3.12 1.73 4.73 2.62 1.67.6 3.37 1.23 5.09 1.86 1.7.73 3.48.91 5.28 1.39 1.78.41 3.59.82 5.41.95 7.33 1.13 14.83 1.01 22.47.79 15.22-.63 31.3-3.06 47.4-5.93 32.21-6.08 65.46-13.96 95.53-21.72 3.77-.95 7.47-1.98 11.11-2.83 3.66-.82 7.25-1.64 10.78-2.43 7.09-1.55 13.87-3.22 20.39-4.51 13.11-2.43 24.9-4.6 34.77-6.43 9.93-1.7 17.94-3.18 23.45-4.22 5.52-1.04 8.54-1.73 8.51-2.08-.09-.66-12.48.31-32.53 2.65-10.02 1.17-21.91 2.96-35.17 4.85-6.65 1.07-13.56 2.52-20.77 3.84-3.62.69-7.28 1.42-11.02 2.14-3.72.76-7.41 1.67-11.19 2.52-30.19 6.87-63.56 14.02-95.53 19.54-16.01 2.59-31.54 4.73-46.25 5.17-14.5.5-28.34-.69-37.45-6.46-.27-.13-1.29.32-3.42 3.43z" fill="#884712"/><g><path d="M666.77 106.56c-.02-.06.33-.19.95-.41.61-.25 1.57-.44 2.65-1.1 2.24-1.07 5.12-3.28 8.15-6.59 3.09-3.28 6.37-7.53 10.61-11.95 2.17-2.14 4.52-4.47 7.63-6.15.71-.47 1.59-.76 2.43-1.1.43-.19.8-.38 1.29-.5l1.75-.28c1.18-.19 2.38-.41 3.66-.32l1.89.03h.96c.25.06.31.19.49.25-.68 1.39-1.53 3.12-2.07 4.6l-.56 2.08-.32 1.51-.43 1.89c-.13.41-.25.79-.44 1.14l-.13.25c.08.0.22-.06.32-.09l.65-.19 1.25-.44 2.66-.85c1.07-.32 2.18-.63 3.3-.92 1.12-.28 2.25-.54 3.43-.76.65-.09 1.12-.19 1.94-.25.93.0 1.89-.06 2.77.09.96.06 1.62.51 2.48.79 1.2.13.71 1.26.72 2.11-.13 1.7-.22 3.81-.39 4.6-.28 2.2-.84 4.44-1.23 6.62-.17 1.1-.58 2.18-.86 3.28-.44 1.48-.27 1.01-.35 1.32l-.15.44-.06.19s.16-.06.22-.06c.33-.16.55-.28.8-.44 3.33-1.45 7.39-3.12 11.41-3.5 4.05-.5 8.37.38 11.47 2.49.99.76 1.96 1.51 2.89 2.2.14.13.31.22.41.35l.03.54.05 1.04c.05.69.08 1.36.11 2.02-.13.91-.22 1.8-.42 2.61-.25.76-.47 1.55-.77 2.18-.58 1.32-1.2 2.39-1.77 3.34-.14.22-.28.47-.42.66v.03h-.02v.03s0 0 0 0h.03l.28.03c4.02.72 8.64 2.24 13 5.55.54.44 1.09.85 1.64 1.29.51.5.98 1.07 1.48 1.64.46.57 1.03 1.04 1.39 1.77l.3.5.43.79.88 1.67.44.82c-.06.28-.27.54-.39.82l-.88 1.64c-.3.51-.79 1.17-1.06 1.51s-.58.63-.9.91c-1.23 1.23-2.63 2.05-4.03 2.84-2.84 1.42-5.83 2.3-8.89 2.87-2.03.35-1.92.28-2.24.31-.25.0-.69-.03-.88-.03.17.16.36.31.54.54.11.09.19.25.28.38l.49.79c.24.35.46.69.61 1.07l.5 1.17c.17.35.3 1.07.46 1.58.33 1.1.52 2.27.69 3.43l.14.88c-.03.09.14.35-.05.35l-.43.13-1.72.5-3.2.91c-1.44.38-2.85.79-4.44.76-1.56.09-3.12.19-4.51-.06l-1.56-.22-.8-.06-.22-.03s.06.09.1.13l.2.28c.27.41.62.76.84 1.36.0.06.58 1.1.69 1.67.2.73.35 1.26.61 2.08.46 1.83 2.71 4.32-.38 4.66l-2.73 1.2c-.65.22-1.24.63-1.94.69-1.34.28-2.66.57-3.97.85-1.29.25-2.61.15-3.89.22-2.59.25-5-.38-7.34-.63-9.36-1.77-16.22-5.99-21.04-8.64-4.62-3.12-7.23-5.01-7.12-5.17s2.98 1.36 7.74 4.07c4.96 2.24 11.96 5.93 20.83 7.16 2.2.09 4.51.57 6.82.22 1.15-.13 2.36-.06 3.5-.35 1.15-.32 2.3-.6 3.47-.91.62-.06 1.1-.47 1.67-.69l.84-.41c.83-.13.13-.85-.02-1.32l-.6-1.77c-.24-.76-.35-.85-1.09-2.02-1.24-2.05-2.49-3.6-3.77-5.36l-.95-1.29c-.14-.22-.38-.47-.42-.63l.82.03 3.3.19c2.22.1 4.51.22 6.71.38 1.37.19 2.6.06 3.81-.06 1.21.0 2.47-.41 3.73-.82 1.37-.38 1.25-.25.33-2.21-.11-.25-.27-.47-.42-.69l-.24-.35c-.09-.13-.06-.16-.44-.57-1.03-.95-1.67-1.86-3.06-2.8-2.5-1.86-5-3.69-7.45-5.55 3.12.03 6.24.06 9.33.06s5.9-.57 6.78-.76c2.66-.57 5.18-1.42 7.3-2.55 1.01-.6 1.98-1.23 2.63-1.92.17-.19.36-.35.47-.54l.09-.13s.06-.13.02-.13l-.05-.03s.02.03-.03-.03l-.19-.35c-.19-.44-.66-.76-.98-1.14-.36-.38-.68-.76-1.04-1.13l-1.25-.92c-3.31-2.42-7.16-3.59-10.34-4.1-3.51-.25-6.73-.47-9.6-.66l-.54-.03c-.14-.03-.47.03-.27-.19l.57-.88c.36-.6.73-1.17 1.06-1.73.69-1.1 1.32-2.11 1.92-3.06.76-1.17 1.59-2.46 2.54-3.91.49-.79.96-1.61 1.37-2.49.2-.44.3-.85.47-1.29.13-.44.14-.85.25-1.29.02-.03.02-.06.02-.06h.02l-.6-.5c-1.94-1.36-4.44-1.99-7.46-1.73-1.5.09-3.1.47-4.76.95-.84.28-1.69.54-2.54.88l-1.31.47-1.5.63c-1.7.72-3.4 1.42-5.06 1.95-1.61.54-2.96.69-4.41 1.01l-1.18.25-.61.09-.3.06s.05-.16.06-.25l.76-2.21c.5-1.48 1.01-2.96 1.51-4.44l1.13-2.87c.16-.41.46-1.13.51-1.26l.22-.73c.28-1.01.69-1.92.9-2.96.44-2.08 1.01-4.1 1.37-6.24.25-1.42.25-1.33.33-1.67.2-.35-.21-.41-.47-.47-.16-.03-.3-.03-.46-.03l-1.39.16c-1.01.13-2.05.31-3.1.56-1.04.22-2.09.47-3.15.76l-3.72 1.01c-1.66.47-3.45.98-5.06 1.36l-2.46.6-1.21.25-.61-.09c.93-1.64 2.13-3.75 2.95-5.52.33-.85.72-1.7 1.02-2.52l.47-1.77c.63-2.52.76-2.9 1.29-3.91-.66-.69-2.84-.32-5.86 1.07-2.74 1.29-5.08 3.34-7.27 5.29-4.3 4.03-7.85 8.16-11.21 11.32-3.32 3.15-6.53 5.26-8.98 6.15-1.17.57-2.21.63-2.87.76-.66.09-1.02.13-1.02.06z" fill="#884712"/><g><path d="M582.6 115.8c-.17-.1 1.08-2.55 2.41-7.03 1.4-4.48 2.54-11.1 3.31-18.97.84-7.91.91-17.15.8-26.85-.05-4.85-.47-9.71-1.51-14.5-1.04-4.66-2.74-9.68-5.44-12.61l3.56-.22-.77 1.13-.39.54-.19.28c-.08.13-.17.38-.27.54l-1.09 2.39-.54 1.2c-.17.44-.33 1.07-.49 1.61-1.2 4.32-2.39 8.57-3.58 12.79-.62-3.09-1.23-6.18-1.83-9.23-.33-1.54-.65-3.06-.96-4.6-.39-1.29-.77-2.55-1.2-3.78l-.63-1.58c-.13-.28-.24-.57-.38-.82-.3-.56-.54-1.13-.85-1.64-.6-1.07-1.25-2.08-1.94-2.96-1.39-1.83-3-3.34-4.71-4.35-.44-.25-.87-.5-1.31-.69l-1.18-.5c-.14.0-.17-.03-.2.06l-.03.06s0 .03-.14.25c-.25.35-.43.76-.6 1.17-.39.76-.65 1.61-.91 2.43-.49 1.67-.72 3.37-.93 4.92-.33 3.18-.33 5.95-.35 8.07v2.43c.02 1.07.0 2.2-.06 3.34-.13 2.14-.25 4.51-.39 7.09-1.91-1.58-5.52-5.2-7.2-5.8l-.79-.44-.33-.06-.69-.16c-.52-.03-1.02-.09-1.61-.06l-.88.03c-.28.0-.76.06-.62.03.0.0-.05-.03-.08.0l-.1.44c0 .16-.05-.03-.01.41l.03 1.04c-.05 2.77.68 5.93 1.64 9.11.49 1.58 1.1 3.19 1.78 4.82l.13.28.28.57.6 1.2 1.2 2.33c.81 1.58 1.7 3.12 2.54 4.66-1.89-.06-3.8-.16-5.71-.22l-2.85-.13c-1.29-.06-1.54.06-2.02.06-.9.13-1.86.1-2.74.32-.87.28-1.75.47-2.63.76-1.16.57-.86.38-1.21.54-.06.06.0.22-.02.35l.02.19.1.66c.28 2.08.63 4.1 1.08 6.12.93 4 2.27 7.91 4.29 11.28 1.02 1.7 2.16 3.28 3.54 4.6 2.21 2.14 6.16 4.16 8.24 5.74-3.06.6-7.11 1.17-9.19 2.33-.68.41-.84.57-1.18.88-.27.32-.57.69-.71 1.07.57.69 1.17.95 2.55 1.64 1.45.69 2.87 1.36 4.27 1.98 5.64 2.55 10.72 5.23 14.47 8.26 3.81 2.93 6.1 6.43 6.7 9.11.47 1.26.36 2.37.38 3.06-.02.73-.05 1.07-.11 1.07-.08.0-.17-.38-.3-1.04-.15-.66-.19-1.67-.76-2.84-.85-2.39-3.17-5.39-6.95-7.97-3.75-2.62-8.78-4.92-14.5-7.16-1.44-.6-2.92-1.2-4.43-1.8-.65-.22-1.81-.88-2.77-1.36-.91-.63-1.78-1.36-2.54-2.27.19-.98.77-2.05 1.48-3.06.68-.95 1.81-1.98 2.6-2.46.79-.54 1.43-.72 2.14-.91.17.0.06-.06-.06-.13l-.32-.16c-.2-.13-.42-.22-.6-.35-.41-.32-.66-.44-1.1-.85-1.7-1.51-3.12-3.31-4.36-5.2-2.48-3.81-4.1-8.07-5.26-12.35-.57-2.18-1.03-4.35-1.4-6.49l-.35-2.3-.21-1.39-.09-.69c-.05-.22-.14-.5.17-.56l4.49-2.24c1.1-.41 2.26-.72 3.39-1.07 1.14-.35 2.3-.35 3.44-.54.56-.06 1.32-.16 1.07-.13l.25-.03c.16.0.33.0.43-.03l-.27-.41-.11-.19-.06-.06-.03-.06-.14-.35c-.8-1.77-1.53-3.5-2.13-5.3-1.18-3.56-2.13-7.09-2.21-10.75l-.06-1.36c-.02-.19.0-.5.06-.88l.14-1.04c.19-1.38.36-2.74.54-4.1 1.21-.44 2.78-.51 4.16-.76.85-.09 1.09-.16 1.53-.19l1.21-.06c.8-.03 1.66.03 2.48.09l1.24.22.62.09.14.03c.44.16.25.09.3.09v-.03h-.03c.02-.22.02-.41.02-.6.0-2.18.03-5.14.47-8.79.27-1.83.58-3.81 1.26-5.95.38-1.07.72-2.21 1.32-3.31.25-.57.54-1.13.93-1.67.14-.22.41-.66.73-1.1.3-.41.66-.82 1.01-1.23l1.04-1.23c.21-.16.32-.5.57-.5l.79.22c1.06.28 2.11.6 3.19.88.95.35 1.37.56 2.08.88.63.28 1.23.69 1.84 1.04 2.41 1.55 4.51 3.62 6.18 5.99.85 1.17 1.61 2.43 2.27 3.72.36.63.63 1.29.95 1.96.15.35.28.69.42 1.01l.11.32.03.06c.11.41.22.98.32 1.64.09-.28.2-.6.39-.95.08-.16.32-.54.47-.79l1.79-2.39 1.72-2.3 1.86 2.08c2.08 2.37 3.24 4.92 4.16 7.47.93 2.55 1.53 5.14 2.02 7.72.93 5.13 1.15 10.37.99 15.32-.31 9.83-.84 19.16-2.09 27.1-1.21 7.98-2.79 14.62-4.6 19.07-.9 2.21-1.64 3.94-2.33 5.04-.65 1.1-1.02 1.67-1.1 1.64z" fill="#884712"/><path d="M587.36 128.06s.79-.88 2.41-2.36c.82-.76 1.83-1.67 3.01-2.74 1.2-1.07 2.68-2.14 4.29-3.43.82-.63 1.68-1.29 2.58-1.98.96-.6 1.97-1.23 3.01-1.89 1.06-.69 2.14-1.39 3.26-2.08 1.17-.69 2.46-1.23 3.73-1.86 5.01-2.84 11.47-4.48 18.38-5.45 6.93-.98 14.45-1.17 22.12-2.24 3.81-.54 7.67-1.32 11.41-2.65 3.72-1.36 7.22-3.34 10.37-5.83 3.12-2.55 5.71-5.74 7.68-9.36.54-.88.96-1.83 1.39-2.78.44-.94.86-1.89 1.2-2.9.35-1.01.77-1.98 1.06-3l.52-1.83c.16-.22-.25-.22-.35-.35l-.69-.41c-.93-.57-1.89-1.04-2.82-1.58-1.91-1.01-3.83-1.95-5.78-2.74-3.91-1.64-7.94-2.74-11.96-2.87l-7.52-.25 6.29-4.13c3.64-2.37 7.52-3.72 11.17-5.01 3.66-1.26 7.2-2.43 10.4-3.97 3.18-1.54 5.96-3.5 8-5.99.58-.57.98-1.26 1.42-1.92.46-.6.88-1.45 1.1-1.98.1-.16.19-.47.16-.6-.17.03-.43.06-.72.06-1.36-.09-3.09-.22-4.56-.5-.93-.1-2.44-.54-3.64-.82-1.35-.28-2.35-.79-3.45-1.2-1.12-.41-2.05-.88-3.06-1.32-.96-.47-2.27-1.01-2.98-1.42 2.21-1.36 4.38-2.71 6.53-4.03 1.76-1.1 3.51-2.21 5.23-3.28 2.05-1.38 4.03-2.71 5.72-4.19 3.5-2.81 5.8-6.02 7.14-9.3 1.26-3.31 1.59-6.68 1.48-9.71.02-1.01.0-.85-.02-1.07l-.05-.41v.03h0l-.41-.03c-.3-.03-.58-.06-.86-.09-4.62-.22-11.49-.38-18.2 3.65-.9.41-1.65 1.07-2.47 1.74-.8.66-1.69 1.23-2.48 2.02-.76.79-1.54 1.61-2.35 2.46l-.3.32-.58.69-1.2 1.42c-.73.85-1.45 1.7-2.18 2.55-1.46 1.7-2.93 3.44-4.43 5.2-.25.44-.24-.13-.32-.35l-.19-.88-.41-1.86c-.25-1.17-.52-2.33-.79-3.53-.28-1.1-.47-2.27-.69-3.44-.16-1.2-.11-2.55-.16-3.84l.08-.88v.15l.06-.19c-.06-.03-.28-.03-.35.0l-.66.16c-.35.03-.63.22-.95.35-.62.25-1.29.44-1.83.82-2.38 1.29-4.36 3.34-6.02 5.93-3.42 5.17-5.15 12.04-9.35 18.63l-7 10.94 2.26-12.86c.74-4.13.85-8.7.24-12.99-.33-2.11-.88-4.19-1.78-5.89-.22-.41-.49-.76-.74-1.14l-.22-.22-.06-.09c-.03-.06-.09-.09-.16-.16-.13-.16-.25-.13-.39-.06l-.33.06c-.25.09-.5.13-.74.22-3.89 1.36-6.85 4.29-8.34 8.35-1.58 4.03-1.86 8.48-2.51 13.3l-1.07 8.23-2.8-7.78c-1.2-3.31-2.61-6.34-4.77-8.35-.57-.38-1.23-.98-1.46-1.01-.16-.06-.35-.19-.51-.19l-.42.28c-.08.06-.58.28-.8.5l-.8.82c-.57.47-1.03 1.1-1.47 1.73-3.58 5.2-4.93 11.95-5.95 18.12-1.01 6.27-1.37 12.39-1.84 18.22-.54 5.86-1.44 11.22-2.44 16.17-2.02 9.86-5.11 17.62-7.82 22.66-1.28 2.59-2.54 4.44-3.37 5.71-.85 1.26-1.32 1.92-1.39 1.86-.06-.03.28-.76.99-2.11.69-1.32 1.81-3.25 2.91-5.86 2.38-5.14 5.07-12.86 6.73-22.63.8-4.85 1.53-10.28 1.88-15.98.3-5.77.49-11.98 1.34-18.44.38-3.24.99-6.56 1.86-9.9.85-3.31 2.11-6.71 4.19-9.83.5-.82 1.06-1.58 1.8-2.27.71-.73 1.26-1.36 2.38-1.98l1.78-1.14c.61-.06 1.27.41 1.91.6 1.47.5 2.09 1.17 3.01 1.77 3.12 2.77 4.74 6.43 6.07 9.8-1.31.13-2.6.28-3.91.44.49-4.38.66-9.46 2.43-14.28.87-2.43 2.21-4.82 4.1-6.78 1.88-1.98 4.24-3.5 6.75-4.41.61-.25 1.18-.38 2.31-.66l1.5-.38c.47-.03.84.5 1.25.72.41.32.82.6 1.18.98l.55.54.39.44c.44.57.88 1.17 1.21 1.77 1.37 2.46 2.03 4.98 2.48 7.47.8 4.98.79 9.8.03 14.72-1.59-.63-3.18-1.29-4.74-1.89 3.43-5.49 5.11-12.48 8.98-18.76 1.91-3.12 4.57-6.05 7.91-7.94.79-.54 1.69-.82 2.54-1.2.44-.16.87-.41 1.31-.5.46-.13.79-.22 1.64-.38 2.93-.69 5.9-.85 8.67-1.17-.33 1.39-.68 2.74-1.01 4.1l-.45 2.3-.22 1.13v.16c-.01.09.0.19.03.25.02.1.05.16.08.19l.14-.22.04-.09s0 0-.03.0c.03.0-.06.09.03-.03l.35-.35c.9-.98 1.78-1.92 2.66-2.87.9-.91 1.97-1.64 2.91-2.46.98-.79 1.89-1.58 3.01-2.14 1.06-.6 2.09-1.17 3.12-1.74 1.02-.54 2.14-.82 3.17-1.2 2.07-.88 4.1-1.13 5.99-1.45 1.91-.44 3.63-.32 5.25-.41.8-.03 1.58-.03 2.3-.06.71.06 1.4.09 2.05.15 1.96.16 4.13.32 6.49.51.49-.1.43.31.46.63l.06 1.01c.06.66.11 1.32.16 2.02.09 1.32.27 3.09.22 3.72.09 3.53-.31 7.78-2.05 12.16-1.76 4.35-5.04 8.54-9.08 11.69-2 1.67-4.16 3.09-6.37 4.54l-.84.5-.39.25-.03.03-.13.06-.32.16c-.09.06.11.1.19.16l.17.06c.16.03-.06.0.43.09 1.37.25 2.48.41 4.07.47 1.37-.06 2.76-.13 4.14-.22 1.42-.13 2.85-.25 4.29-.41-.99 2.93-1.92 6.18-3.32 9.14-.5 1.1-.91 1.86-1.56 2.74-.6.82-1.13 1.73-1.88 2.46-2.71 3.15-6.25 5.45-9.9 7.12-7.25 3.41-15.19 4.57-21.18 8.26-.41-1.45-.8-2.9-1.21-4.38 4.78.28 9.35 1.67 13.54 3.53 2.11.92 4.13 1.96 6.1 3.09.98.57 1.97 1.1 2.92 1.7l2.14 1.32 1.17.69c.19.13.39.25.57.38l-.21.63-1.42 4.51c-.32 1.07-.8 2.11-1.2 3.18-.38 1.04-.85 2.08-1.37 3.09-.47 1.04-.98 2.08-1.58 3.03-2.27 3.97-5.3 7.5-8.84 10.24-3.55 2.68-7.49 4.76-11.54 6.12-4.05 1.32-8.15 2.05-12.12 2.49-7.94.88-15.41.85-22.21 1.61-6.79.76-12.96 2.08-17.95 4.7-1.27.56-2.55 1.04-3.7 1.64-1.14.66-2.24 1.29-3.3 1.92-1.06.6-2.07 1.2-3.02 1.73-.93.66-1.8 1.26-2.63 1.86-1.65 1.17-3.18 2.18-4.44 3.15-1.24.98-2.3 1.83-3.17 2.52-1.73 1.36-2.68 2.05-2.74 1.98z" fill="#884712"/><path d="M584.43 138.27c0-.15 1.89-.31 5.23-.5 3.34-.16 8.15-.35 14.03-.31 5.89.13 12.83.38 20.38 2.14 3.73.97 7.5 2.43 11.19 4.19 3.69 1.8 7.3 3.91 10.86 6.08 7.12 4.38 14.12 9.14 21.45 12.26 3.69 1.58 7.3 2.77 11.08 3.53 3.77.79 7.49 1.32 10.94 1.48 3.34.16 6.87-.25 8.23-1.32.58-.51.61-.92.57-1.23.03-.38-.71-1.29-1.42-2.05-1.62-1.58-3.69-2.9-5.52-3.91-1.81-1.07-3.47-1.89-4.81-2.52-.87-.41-1.86-.88-2.98-1.42-1.78-.79-3.73-1.67-5.88-2.61-1.36-.63-2.77-1.26-4.24-1.96l-1.1-.5c.14-.22.58-.5.85-.76.65-.51 1.29-1.04 1.96-1.55 1.26-1.01 2.55-2.05 3.88-3.12.49-.38.98-.79 1.48-1.2l.11-.09c.05-.06.13-.09.06-.13l-.05-.06c-.13-.09.09.03-.49-.28-.8-.47-1.72-.88-2.68-1.26-.93-.44-1.97-.76-3.01-1.07-1.01-.38-2.11-.63-3.21-.91-.35-.16-1.51-.35-2.51-.54-1.02-.16-2.03-.35-3.06-.54-2.46-.22-4.95-.47-7.45-.73l-1.77-.19-.27-.09c.14.0-.71-.13-1.21-.22l-.85-.13-2.08-.22 6.81-2.58 2.69-1.04 1.31-.5.66-.35 1.34-.69.65-.35.28-.41.25-.35.06-.13c.06-.09.09-.19.13-.28.32-.76.41-1.73.32-2.74-.1-1.04-.38-2.14-.82-3.21l-.41-.91c0-.09-.16-.09-.25-.13l-.54-.19c-1.18-.35-2.35-.79-3.64-.88-1.28-.13-2.52-.5-3.82-.44h-3.37l-.74.1c-2.05.31-4.21.79-6.07.91l.24-2.87-.09-2.46c-.09-.56-.28-1.13-.36-1.45l-.11-.6c-.03-.22-.33-.13-.49-.22l-.95-.16c-.95-.22-1.94-.03-2.91-.09-3.91.09-7.8.91-11.49 2.05-3.7 1.1-7.23 2.36-10.65 3.53-3.28 1.07-6.29 2.52-9.11 3.78-5.59 2.55-10.42 4.54-13.99 5.2-1.78.35-3.21.38-4.18.32-.96-.13-1.45-.22-1.45-.32.03-.19 2.05.09 5.39-.98 3.36-.98 7.88-3.21 13.32-6.11 2.73-1.42 5.69-3.06 9.12-4.42 3.3-1.29 6.81-2.74 10.57-4.06 3.77-1.32 7.9-2.43 12.33-2.74 1.12.0 2.24-.19 3.39.0l2.2.25 1.29.16c.42.06.96.0.93.57l.63 2.52.52 1.64.17.88v.51c.43.06 1.26-.22 1.84-.32.08.0.13-.03.25-.06h.55l1.12-.03 2.2-.1c1.48-.13 2.93.25 4.42.35 1.46.06 2.93.5 4.38.91l1.42.41.84.22c.14.06.3.06.41.13l.22.41.9 1.55.57 1.17c.65 1.42 1.12 2.96 1.34 4.6.2 1.64.14 3.43-.49 5.17-.06.22-.14.44-.25.66l-.19.38-.08.13c-.06.09-.13.19-.2.22-.06.06-.13.09-.21.16l-.09.03h.16l.58.03.6.06c.2.03.27.03 1.06.22 1.21.32 2.43.54 3.61.92 1.18.35 2.35.69 3.48 1.17 1.14.41 2.26.88 3.34 1.48.24.13.54.25 1.01.57.43.25.87.44 1.25.79.79.6 1.56 1.2 2.32 1.77l1.15.88c.32.13.13.35.0.57l-.35.6c-.49.82-.88 1.7-1.45 2.4-.55.76-1.09 1.45-1.62 2.17l-.39.54-.08.06-.17.16-.3.31c-.08.06-.03.03-.05.06-.03.03.06.03.08.03h.03c.63.25 1.25.54 1.81.79 1.2.54 2.26 1.04 3.17 1.45 1.42.73 3.18 1.61 5.22 2.8 2.02 1.23 4.33 2.65 6.75 5.04 1.1 1.32 2.54 2.71 3.01 5.45.49 2.71-.9 5.64-3.03 7.09-2.09 1.51-4.19 1.83-6.21 2.14-2 .25-3.97.19-5.94.06-3.91-.28-7.83-.98-11.8-1.95-3.97-.92-8.08-2.43-11.93-4.26-7.78-3.66-14.73-8.82-21.58-13.39-6.82-4.63-13.73-8.64-20.69-10.81-6.98-1.98-13.88-2.61-19.64-3.12-5.82-.38-10.62-.54-13.96-.66-3.34-.15-5.23-.28-5.23-.41z" fill="#884712"/><path d="M588.32 141.58c.02-.22 2.6-.32 6.6-.03 3.99.44 9.41 1.36 14.86 3 11.02 3.15 22.33 8.1 26.13 9.71 3.81 1.61 14.59 7.41 24.96 11.13 5.15 2.02 10.26 3.21 14.09 4.07 3.83.66 6.36 1.04 6.38 1.36.0.28-2.55.6-6.6.66-4-.16-9.52-.69-15.07-2.11-11.22-2.65-22.61-7.59-26.41-9.2-3.83-1.64-14.61-7.5-24.81-11.79-5.09-2.24-10.12-3.81-13.88-4.95-3.77-.95-6.27-1.54-6.26-1.83z" fill="#884712"/></g></g></g></g></g></svg>