<svg id="_Слой_2" xmlns="http://www.w3.org/2000/svg" width="1080" height="687.5" viewBox="0 0 1080 687.5"><g id="China04_532456802"><g id="China04_532456802-2"><path d="M99.6 480.17s-68.21 60.19 32.1 96.3c100.31 36.11 132.41 24.07 132.41 24.07.0.0 24.07 60.19 64.2 68.21 40.12 8.02 140.43 8.02 156.48 16.05 16.05 8.02 112.35-4.01 156.48-8.02 44.14-4.01 136.42-44.14 136.42-44.14.0.0 264.82-32.1 196.61-104.32s-654.01-124.38-874.69-48.15z" fill="#d36644"/><g><path d="M398.13 165.43c92.2 133.84 105.47 299.19 63.55 328.07-150.91 103.95-305.85 75.87-398.05-57.97C-28.56 301.69-31.48 118.54 127.82 8.81c46.11-31.76 178.12 22.78 270.31 156.62z" fill="#e0c165"/><path d="M681.87 165.43c-92.2 133.84-105.48 299.19-63.55 328.07 150.91 103.95 305.85 75.87 398.05-57.97 92.19-133.84 95.11-316.99-64.18-426.72-46.11-31.76-178.12 22.78-270.31 156.62z" fill="#e0c165"/><path d="M226.12 490.95c-8.69-4.48-61.59-36.11 13.54-94.17 31.88-24.63 64.71-10.17 64.71-10.17.0.0-20.31-39.5 20.79-65.19 46.37-28.98 70.51-9.8 70.51-9.8.0.0 10.65-29.32 57.02-36.57.0.0 71.01-15.94 81.15 8.69.0.0 76.8-21.74 79.7 14.49.0.0 73.91 4.35 81.15 37.68.0.0 68.11-2.9 81.15 43.47.0.0 66.66 28.98 53.62 69.56-13.04 40.58-153.61 57.97-217.37 42.03.0.0-139.12-5.8-156.51 2.9-17.39 8.69-215.47 4.29-229.46-2.93z" fill="#ffe230"/><g><path d="M559.14 389.3c-5.91-6.69-16.47-9.35-25.25-6.82-13.91-.99-32.86.77-42.81 10.46-2.21 2.15-4.03 4.54-5.41 7.04-3.12 1.54-4.99 5.61-4.03 8.95.27.94.61 1.81.98 2.65.15 6.98 4.13 13.4 13.07 16.68 11.1 4.08 24.51 2.8 35.72-.16 2.46-.65 5.14-1.42 7.86-2.35 11.74-1.89 22.88-7.07 26.82-19.04 2.7-8.22-1.01-13.75-6.93-17.42z" fill="#ff0"/><path d="M590.85 284.51c-18.65-4.63-62.65-3.88-67.91 20.47-1.25 5.78.79 11.29 5.89 14.47 4.2 2.61 8.92 3.46 13.58 2.15 6.14.16 12.69-1.23 18.77-2.11 1.57-.02 3.09-.09 4.55-.18 13.79-.87 28.87-4.9 34.02-19.13 2.32-6.42-2.55-14.09-8.9-15.67z" fill="#ff0"/><path d="M675.87 325.76c-19.66-17.81-66.12-20.69-81.72 3.9-3.57 5.62-1.29 13.76 4.45 16.96 9.82 5.48 22.2 4.96 33.06 4.28 5.01-.31 10.08-.83 15.08-1.71 9.14.84 18.85.87 26.64-4.09 6.41-4.08 8.59-13.82 2.49-19.34z" fill="#ff0"/><path d="M736.93 356.41c-11.37-10.06-29.47-6.98-44.21-4.25-3.1.34-6.16.88-9.14 1.63-10.55 1.88-22.57 4.95-28.66 14.27-9.96 15.25 11.47 25.78 23 27.15 8.37.99 18.14-.63 27.22-3.57 5.77-.51 11.47-1.81 16.81-3.94 10.34-4.13 28.11-19.67 14.97-31.3z" fill="#ff0"/><path d="M387.45 324.62c-1.71-5.02-5.92-9.04-12.81-10.07-2.74-.41-5.9-.49-9.14-.19-17.39-.85-37.6 8.39-38.68 24.92-.87 13.39 15.19 16.62 25.14 16.15 3.29-.16 6.7-.55 10.07-1.21 3.96-.22 7.82-.96 11.32-2.3 10.47-4.01 20.67-16.91 14.09-27.3z" fill="#ff0"/><path d="M485.73 299.55c-1.52-5.47-4.54-9.49-8.41-12.35-.5-.67-1.01-1.34-1.61-1.99-10.41-11.37-30.25-6.73-42.26-1.28-12.38 5.62-18.42 18.14-12.12 30.69.28.56.64 1.1 1 1.63 1.99 3.8 5.62 6.84 9.73 8.46.98.39 1.99.68 3.02.93 6.84 2.68 14.63 3.35 20.37.66 14.95-.41 35.46-8.12 30.28-26.75z" fill="#ff0"/><path d="M349.47 411.61c-13.14-15.89-44.27-25.07-63.75-17.82-5.83 2.17-10.82 8.28-8.47 14.91 5.26 14.82 19.71 18.39 34.02 19.34 10.81 2.96 23.16 3.6 29.84 3.75 11.13.25 14.56-12.7 8.36-20.18z" fill="#ff0"/><path d="M756.4 385.13c-6.7-.48-13.96 1.89-19.98 4.59-7.3 3.27-10.74 8.98-13.86 15.75-5.66 2.12-10.87 5.14-15.33 9.63-5.51 5.55-5.1 16.83 2.64 20.46 19.43 9.12 55.32-3.1 66.72-20.76 9.82-15.2-6.09-28.65-20.19-29.67z" fill="#ff0"/><path d="M500.32 437.97c-18.5-6.23-58.42-5.39-54.01 22.5 3.67 23.27 46.35 19.02 60.8 9.64 3.49-1.52 6.49-3.81 8.24-7.26 6.05-11.95-4.54-21.36-15.02-24.89z" fill="#ff0"/><path d="M436.89 372.32c-12.17-3.49-25.54-1.53-38-.95-11.96.55-25.25-3.95-36.63.09-1.17.42-1.82 1.48-1.54 2.72 2.87 12.63 16.8 14.66 27.79 16.02 15.32 1.9 33.2 1.04 48.39-1.5 8.67-1.45 7.54-14.21.0-16.38z" fill="#ff0"/></g><path d="M794.61 224.68c25.45 9.07 35.14 46.68 35.14 46.68h-.08s9.69-37.6 35.14-46.68c-25.45-9.08-35.14-46.68-35.14-46.68h.08s-9.69 37.6-35.14 46.68z" fill="#fcfcfc"/><path d="M280.16 236.28c25.45 9.07 35.14 46.68 35.14 46.68h-.09s9.69-37.6 35.14-46.68c-25.45-9.08-35.14-46.68-35.14-46.68h.09s-9.69 37.6-35.14 46.68z" fill="#fcfcfc"/><path d="M197.56 170.34c19.52 6.96 26.96 35.81 26.96 35.81h-.06s7.43-28.85 26.96-35.81c-19.52-6.96-26.96-35.81-26.96-35.81h.06s-7.44 28.85-26.96 35.81z" fill="#fcfcfc"/><path d="M691.72 265.99c19.52 6.96 26.96 35.81 26.96 35.81h-.06s7.43-28.85 26.96-35.81c-19.52-6.96-26.96-35.81-26.96-35.81h.06s-7.44 28.85-26.96 35.81z" fill="#fcfcfc"/><path d="M758.38 125.42c19.52 6.96 26.96 35.81 26.96 35.81h-.07s7.44-28.85 26.96-35.81c-19.52-6.96-26.96-35.81-26.96-35.81h.07s-7.44 28.85-26.96 35.81z" fill="#fcfcfc"/><path d="M649.97 351.04c-7.41.0-13.21-.54-15.01-1.13-.53-.18-.81-.74-.63-1.27.18-.53.75-.81 1.27-.63 3.7 1.23 41.18 2.99 55.62-7.12.45-.32 1.08-.21 1.4.24.32.45.21 1.08-.24 1.4-9.54 6.68-28.72 8.51-42.4 8.51z" fill="#0e0e0e"/><path d="M364.11 360.86c-32.97.0-45.5-24.23-45.64-24.5-.25-.5-.05-1.1.45-1.35.5-.24 1.1-.05 1.35.45.14.28 14.69 28.26 54.03 22.64.55-.07 1.06.3 1.14.85.08.55-.3 1.06-.85 1.13-3.7.53-7.19.77-10.47.77z" fill="#0e0e0e"/><path d="M598.93 390.71c-3.14.0-6.38-.04-9.71-.13-.84-.02-1.44-.04-1.76-.04-.55.0-1-.45-1-1s.45-1 1-1c.33.0.94.02 1.81.04 38.48 1.01 64.32-4.03 72.77-14.17.36-.43.99-.48 1.41-.13.43.35.48.99.13 1.41-8.23 9.87-30.49 15.02-64.66 15.02z" fill="#0e0e0e"/><path d="M525.57 441.36c-14.17.0-27.88-3.84-35.65-6.02-2.53-.71-4.72-1.32-5.36-1.32-.55.0-1-.45-1-1s.45-1 1-1c.88.0 2.53.45 5.9 1.4 13.37 3.75 44.67 12.53 64.5-2.64.44-.34 1.07-.25 1.41.19.34.44.25 1.07-.19 1.41-8.89 6.8-19.89 9-30.61 9z" fill="#0e0e0e"/><path d="M715.4 376.79c-8.02.0-14.12-.43-15.23-.8-.53-.18-.81-.74-.63-1.27.18-.53.75-.81 1.27-.63 3.56 1.19 51.73 2.12 59.8-8.05 1.46-1.83 1.42-3.93-.11-6.41-.29-.47-.14-1.09.33-1.38.46-.29 1.09-.14 1.38.33 2.48 4.04 1.35 6.96-.03 8.71-6.13 7.72-30.43 9.51-46.78 9.51z" fill="#0e0e0e"/><path d="M414.47 395.61c-27.79.0-60.44-11.76-62.12-12.38-.52-.19-.79-.77-.6-1.29.19-.52.77-.79 1.29-.6.5.18 50.64 18.25 79.08 10.12 10.84-3.1 16.69-6.94 16.93-11.12.38-6.66-13.22-13.79-18.49-15.97-.51-.21-.75-.8-.54-1.31s.8-.76 1.31-.54c.83.34 20.26 8.49 19.72 17.94-.3 5.26-6.31 9.49-18.38 12.94-5.5 1.57-11.72 2.21-18.2 2.21z" fill="#0e0e0e"/><path d="M697.36 422.64c-18.41.0-38.47-8.91-40.9-10.53-.46-.31-.59-.93-.28-1.39s.93-.58 1.39-.28c3.48 2.32 48.3 21.45 63.85.24.33-.45.96-.54 1.4-.22.45.33.54.96.22 1.4-5.92 8.08-15.55 10.77-25.67 10.77z" fill="#0e0e0e"/><path d="M499.32 358.27c-18.85.0-31.15-9.84-31.33-9.99-.43-.35-.49-.98-.14-1.41.35-.43.98-.49 1.41-.14.25.2 25.34 20.21 58.69 1.65.48-.27 1.09-.1 1.36.39.27.48.1 1.1-.39 1.36-10.89 6.06-20.94 8.14-29.61 8.14z" fill="#0e0e0e"/><g><g><path d="M567.57 310.13c22.33-8.09 45.03-1.97 50.71 13.69 5.67 15.65-7.83 34.91-30.16 43-22.33 8.09-45.03 1.96-50.71-13.69-5.67-15.65 7.83-34.9 30.16-43z" fill="#ffd100"/><path d="M568.5 371.37c-15.16.0-27.92-6.54-32.04-17.9-2.86-7.89-1.19-16.86 4.7-25.25 5.81-8.29 15.07-15.05 26.06-19.03 10.99-3.98 22.43-4.72 32.2-2.09 9.9 2.67 16.93 8.49 19.79 16.38 5.85 16.15-7.95 36.01-30.76 44.28-6.76 2.45-13.57 3.61-19.95 3.61zm18.74-63.82c-6.29.0-12.89 1.19-19.34 3.52h0c-10.61 3.85-19.52 10.34-25.1 18.3-5.5 7.84-7.09 16.16-4.46 23.42 5.48 15.11 27.65 20.97 49.42 13.09 21.78-7.9 35.04-26.61 29.56-41.72-2.63-7.25-9.17-12.62-18.43-15.12-3.68-.99-7.6-1.49-11.66-1.49zm-19.68 2.58h0z" fill="#0e0e0e"/></g><path d="M570.94 363.9c-3.22.0-6.34-.39-9.27-1.18-7.68-2.07-13.14-6.62-15.39-12.81-4.53-12.51 5.94-27.82 23.34-34.12h0c8.31-3.01 16.98-3.57 24.4-1.56 7.68 2.07 13.14 6.62 15.38 12.81 2.24 6.19.96 13.18-3.6 19.69-4.42 6.29-11.42 11.42-19.73 14.43-5.03 1.82-10.19 2.74-15.12 2.74zm13.8-46.86c-4.47.0-9.16.84-13.76 2.51h0c-15.32 5.55-24.71 18.56-20.93 28.98 1.78 4.92 6.28 8.58 12.66 10.3 6.64 1.79 14.44 1.27 21.98-1.46 7.54-2.73 13.87-7.34 17.81-12.96 3.79-5.41 4.9-11.1 3.12-16.02-1.78-4.93-6.28-8.59-12.65-10.31-2.59-.7-5.36-1.05-8.23-1.05z" fill="#ff0"/></g><g><g><path d="M528.44 349.25c22.33-8.09 45.03-1.97 50.71 13.69 5.68 15.65-7.83 34.91-30.16 43-22.33 8.09-45.03 1.96-50.71-13.69-5.67-15.65 7.83-34.9 30.16-43z" fill="#ffd100"/><path d="M529.38 410.49c-15.15.0-27.92-6.54-32.04-17.9-2.86-7.89-1.19-16.85 4.7-25.25 5.81-8.29 15.07-15.04 26.06-19.03 10.99-3.99 22.43-4.73 32.2-2.09 9.9 2.67 16.93 8.49 19.79 16.38 2.86 7.89 1.19 16.85-4.7 25.25-5.81 8.29-15.07 15.05-26.06 19.03-6.76 2.45-13.57 3.61-19.95 3.61zm18.74-63.82c-6.29.0-12.89 1.18-19.34 3.52h0c-10.61 3.84-19.52 10.34-25.1 18.3-5.5 7.84-7.09 16.16-4.46 23.42 5.48 15.11 27.64 20.98 49.42 13.09 10.61-3.85 19.52-10.34 25.1-18.3 5.51-7.85 7.09-16.16 4.46-23.41-2.63-7.25-9.17-12.63-18.43-15.12-3.68-.99-7.6-1.49-11.66-1.49zm-19.68 2.58h0z" fill="#0e0e0e"/></g><path d="M531.81 403.03c-3.22.0-6.34-.39-9.27-1.18-7.68-2.07-13.14-6.62-15.39-12.81-4.53-12.51 5.94-27.82 23.34-34.12h0c17.4-6.31 35.25-1.26 39.78 11.25 2.24 6.19.96 13.18-3.6 19.69-4.42 6.29-11.42 11.42-19.73 14.43-5.03 1.82-10.19 2.75-15.12 2.75zm.05-44.35c-15.32 5.55-24.71 18.56-20.93 28.98 1.78 4.92 6.28 8.58 12.66 10.31 6.64 1.79 14.44 1.27 21.98-1.46 7.54-2.73 13.87-7.34 17.82-12.96 3.79-5.41 4.9-11.1 3.12-16.02-3.78-10.43-19.32-14.4-34.64-8.84h0z" fill="#ff0"/></g><g><g><path d="M426.82 309.27c23.28 4.74 39.45 21.8 36.13 38.12-3.32 16.31-24.88 25.7-48.16 20.97-23.28-4.74-39.45-21.81-36.13-38.12 3.32-16.32 24.88-25.7 48.16-20.96z" fill="#ffd100"/><path d="M426.73 370.58c-3.94.0-8.01-.4-12.14-1.24-23.78-4.84-40.34-22.47-36.91-39.31 1.67-8.22 7.77-15 17.18-19.1 9.28-4.04 20.71-4.98 32.16-2.65 11.46 2.33 21.6 7.66 28.57 15.01 7.06 7.44 10.02 16.07 8.35 24.29-2.83 13.91-18.45 22.99-37.2 22.99zm-11.97-61.54c-6.87.0-13.41 1.26-19.1 3.74-8.79 3.83-14.47 10.1-16.01 17.66-3.21 15.75 12.65 32.32 35.35 36.94 22.69 4.62 43.77-4.44 46.97-20.18 1.54-7.56-1.25-15.56-7.84-22.51-6.68-7.05-16.45-12.17-27.51-14.42h0c-3.99-.81-7.98-1.22-11.86-1.22z" fill="#0e0e0e"/></g><path d="M425.12 363.39c-2.97.0-6.03-.3-9.13-.93-18.14-3.69-30.73-17.3-28.08-30.34 2.65-13.03 19.57-20.65 37.71-16.95h0c18.13 3.69 30.73 17.3 28.08 30.34-2.2 10.81-14.2 17.88-28.58 17.88zm-8.75-45.15c-12.44.0-22.71 5.77-24.52 14.68-2.21 10.87 8.98 22.36 24.95 25.61 15.96 3.24 30.76-2.95 32.97-13.82 2.21-10.87-8.98-22.36-24.95-25.61h0c-2.88-.58-5.72-.86-8.45-.86z" fill="#ff0"/></g><g><g><path d="M418.13 403.47c23.28 4.74 39.45 21.8 36.13 38.12-3.32 16.32-24.88 25.7-48.16 20.97-23.28-4.74-39.45-21.81-36.13-38.12 3.32-16.32 24.88-25.7 48.16-20.96z" fill="#ffd100"/><path d="M418.04 464.77c-3.94.0-8.01-.4-12.14-1.24-23.78-4.84-40.34-22.47-36.91-39.3 1.67-8.22 7.77-15 17.18-19.1 9.28-4.04 20.71-4.98 32.16-2.65 11.46 2.33 21.6 7.66 28.57 15.01 7.06 7.44 10.02 16.07 8.35 24.29-2.83 13.91-18.44 22.99-37.2 22.99zm-11.97-61.54c-6.87.0-13.41 1.26-19.1 3.74-8.79 3.83-14.47 10.1-16.01 17.66-3.21 15.75 12.65 32.32 35.35 36.94 22.7 4.62 43.77-4.44 46.98-20.18 1.54-7.56-1.25-15.56-7.84-22.51-6.68-7.05-16.45-12.17-27.51-14.42h0c-3.99-.81-7.98-1.22-11.86-1.22z" fill="#0e0e0e"/></g><path d="M416.54 457.6c-3.03.0-6.13-.31-9.24-.94-8.66-1.76-16.34-5.81-21.63-11.39-5.47-5.77-7.76-12.5-6.45-18.95 2.65-13.04 19.57-20.64 37.71-16.95h0c18.13 3.69 30.73 17.3 28.08 30.34-1.31 6.45-6.05 11.75-13.34 14.92-4.52 1.97-9.71 2.97-15.13 2.97zm-8.86-45.16c-12.44.0-22.71 5.77-24.53 14.68-1.04 5.13.88 10.6 5.43 15.39 4.73 4.99 11.66 8.62 19.52 10.22 7.86 1.59 15.66.97 21.96-1.77 6.06-2.64 9.97-6.91 11.01-12.04 2.21-10.87-8.98-22.36-24.95-25.61-2.88-.58-5.71-.86-8.45-.86z" fill="#ff0"/></g><g><g><path d="M616.76 404.23c21.54-10.02 44.69-5.91 51.71 9.18 7.02 15.1-4.74 35.46-26.27 45.48-21.54 10.02-44.69 5.91-51.71-9.19-7.03-15.09 4.73-35.46 26.27-45.48z" fill="#ffd100"/><path d="M618.61 465.35c-13.21.0-24.44-5.36-29.03-15.22-3.54-7.61-2.66-16.68 2.46-25.57 5.06-8.77 13.69-16.31 24.29-21.24 10.6-4.94 21.93-6.67 31.9-4.91 10.1 1.79 17.61 6.97 21.15 14.58 7.24 15.57-4.76 36.57-26.75 46.81-8.06 3.75-16.37 5.55-24.02 5.55zm21.76-65.6c-7.55.0-15.56 1.84-23.19 5.39h0c-10.23 4.76-18.54 12.02-23.4 20.43-4.79 8.3-5.64 16.72-2.38 23.72 6.78 14.57 29.38 18.48 50.38 8.7 20.99-9.77 32.56-29.58 25.78-44.15-3.26-7-10.25-11.77-19.68-13.45-2.43-.43-4.94-.64-7.51-.64zm-23.62 4.48h0z" fill="#0e0e0e"/></g><path d="M621.48 457.65c-2.04.0-4.05-.17-5.98-.51-7.83-1.39-13.67-5.44-16.45-11.41-5.61-12.06 3.47-28.23 20.25-36.04h0c8.01-3.73 16.59-5.05 24.16-3.7 7.83 1.39 13.67 5.44 16.45 11.41 2.78 5.96 2.12 13.04-1.86 19.93-3.85 6.66-10.38 12.38-18.39 16.11-5.96 2.78-12.24 4.21-18.18 4.21zm-.49-44.33h0c-14.77 6.88-22.99 20.66-18.31 30.71 2.21 4.75 7.01 8 13.52 9.15 6.76 1.2 14.5.0 21.77-3.39 7.27-3.39 13.17-8.53 16.61-14.48 3.31-5.72 3.91-11.48 1.7-16.23-2.21-4.75-7.01-8-13.51-9.16-6.76-1.2-14.5.0-21.77 3.39z" fill="#ff0"/></g><g><g><path d="M492.61 269.61c23.7-1.66 43.85 10.46 45.01 27.07 1.16 16.61-17.1 31.42-40.79 33.08-23.7 1.66-43.85-10.46-45.01-27.07-1.16-16.61 17.1-31.42 40.79-33.08z" fill="#ffd100"/><path d="M492.47 330.92c-10.05.0-19.55-2.43-27.12-6.98-8.79-5.29-13.95-12.81-14.54-21.17-.59-8.37 3.48-16.54 11.44-22.99 7.86-6.38 18.62-10.34 30.28-11.15 11.67-.82 22.87 1.6 31.54 6.82 8.79 5.29 13.95 12.81 14.54 21.17.59 8.37-3.48 16.54-11.45 23-7.86 6.38-18.62 10.34-30.28 11.16-1.48.1-2.96.15-4.42.15zm.21-60.3c-11.26.79-21.61 4.59-29.16 10.71-7.44 6.04-11.25 13.6-10.71 21.3s5.36 14.66 13.57 19.6c8.33 5.01 19.12 7.34 30.37 6.54 11.26-.79 21.61-4.59 29.16-10.71 7.44-6.04 11.25-13.6 10.71-21.3-.54-7.7-5.36-14.66-13.57-19.6-8.33-5.01-19.12-7.34-30.37-6.54h0zm-.07-1h0z" fill="#0e0e0e"/></g><path d="M493.12 323.87c-17.02.0-31.02-9.36-31.89-21.84-.46-6.57 2.69-12.94 8.87-17.95 5.97-4.84 14.12-7.85 22.93-8.47h0c8.82-.61 17.3 1.22 23.89 5.19 6.81 4.1 10.82 9.97 11.28 16.54.46 6.56-2.69 12.94-8.87 17.95-5.97 4.84-14.12 7.85-22.93 8.47-1.1.08-2.2.12-3.28.12zm.19-44.26c-8 .56-15.35 3.25-20.69 7.58-5.13 4.16-7.76 9.33-7.39 14.55.77 11.07 14.65 19.13 30.89 18.01 8-.56 15.35-3.26 20.69-7.58 5.13-4.16 7.76-9.33 7.39-14.55-.37-5.23-3.69-9.98-9.35-13.38-5.89-3.54-13.54-5.18-21.54-4.62h0z" fill="#ff0"/></g><path d="M468.68 486.02s-112.03 52-249.07-125.53C83.12 183.69 103.45 89.34 123.17 37.21 133.73 9.3 151.94 1.82 158.29.06c-12.24.43-22.61 3.33-30.47 8.75C-31.48 118.54-28.56 301.69 63.63 435.53c92.2 133.84 247.14 161.93 398.05 57.97 2.64-1.81 5.05-4.17 7.24-7.02-.16-.3-.25-.46-.25-.46z" fill="#fff2a8"/><path d="M611.32 486.02s112.02 52 249.07-125.53c136.49-176.81 116.16-271.15 96.44-323.28C946.28 9.3 928.06 1.82 921.71.06c12.24.43 22.61 3.33 30.47 8.75 159.3 109.73 156.38 292.88 64.18 426.72-92.2 133.84-247.14 161.93-398.05 57.97-2.64-1.81-5.05-4.17-7.24-7.02.16-.3.25-.46.25-.46z" fill="#fff2a8"/><g><path d="M470.02 491.37s-88.45-5.19-78.31 33.93c0 0-111.58 21.74-95.64 52.17.0.0-30.43 24.64-8.7 47.82 21.74 23.19 126.08 23.19 152.16 21.74 1.45 4.35 62.31 27.53 115.93 14.49.0.0 173.9 1.45 163.76-28.98.0.0 89.85-20.29 72.46-55.07-17.39-34.78-73.91-44.92-73.91-44.92l-42.03-13.04s-2.9-27.53-36.23-36.23c-33.33-8.69-169.5 8.09-169.5 8.09z" fill="#ffe230"/><path d="M426.71 527.85c-25.44.0-36.33-6.7-36.87-7.05-.47-.3-.6-.91-.31-1.38.3-.47.91-.61 1.38-.31.16.1 16.2 9.89 54.42 5.64.55-.05 1.05.34 1.11.89.06.55-.34 1.05-.89 1.11-7.01.78-13.28 1.1-18.84 1.1z" fill="#0e0e0e"/><path d="M603.02 528.35c-23.65.0-48.84-7.32-49.21-7.44-.53-.18-.81-.74-.63-1.27.18-.53.75-.81 1.27-.63.54.18 56.53 16.47 78.79.14.44-.33 1.08-.24 1.4.22.33.45.23 1.08-.22 1.4-7.76 5.69-19.39 7.58-31.41 7.58z" fill="#0e0e0e"/><path d="M659.75 600.15c-12.68.0-23.55-.86-24.55-.94-.55-.05-.96-.53-.92-1.08.05-.55.5-.96 1.08-.92.55.04 55.3 4.38 63.55-6.13.95-1.21 1.16-2.57.63-4.15-.17-.53.11-1.09.63-1.27.53-.17 1.09.11 1.27.63.74 2.24.43 4.26-.96 6.02-5.02 6.39-24.38 7.83-40.74 7.83z" fill="#0e0e0e"/><path d="M452.2 613.55c-21.59.0-37.46-8.54-37.67-8.66-.49-.27-.66-.88-.4-1.36.27-.48.88-.66 1.36-.4.29.16 29 15.59 61.5 4.28.52-.18 1.09.09 1.28.62.18.52-.09 1.1-.62 1.28-8.92 3.1-17.57 4.24-25.46 4.24z" fill="#0e0e0e"/><path d="M406.32 555.74s-.06.0-.1.0c-46.34-4.35-55.47-18.71-55.83-19.32-.29-.47-.13-1.09.34-1.38.47-.28 1.09-.13 1.37.34.12.19 9.29 14.14 54.3 18.36.55.05.96.54.91 1.09-.05.52-.49.91-1 .91z" fill="#0e0e0e"/><path d="M651.22 558.64c-.42.0-.81-.27-.95-.69-.17-.53.11-1.09.63-1.27 1.04-.34 4.28-.45 10.92-.63 18.64-.51 62.3-1.71 62.3-14.36.0-.55.45-1 1-1s1 .45 1 1c0 14.6-41.8 15.75-64.25 16.36-5.12.14-9.54.26-10.34.53-.11.04-.21.05-.32.05z" fill="#0e0e0e"/><g><g><path d="M739.16 565.12c21.24 10.64 32.4 31.34 24.94 46.22-7.46 14.89-30.73 18.32-51.96 7.68-21.24-10.65-32.4-31.34-24.94-46.23 7.46-14.89 30.72-18.32 51.96-7.68z" fill="#ffd100"/><path d="M736.94 626.18c-8.03.0-16.8-2.03-25.24-6.26-21.69-10.88-33.08-32.21-25.39-47.57 7.7-15.36 31.61-19 53.3-8.13 21.69 10.88 33.08 32.21 25.39 47.57-4.7 9.38-15.46 14.39-28.06 14.39zm-22.63-66.24c-11.82.0-21.85 4.62-26.2 13.31-7.2 14.37 3.79 34.5 24.49 44.88 20.7 10.38 43.41 7.14 50.61-7.23 7.2-14.37-3.79-34.5-24.49-44.88-8.18-4.1-16.68-6.08-24.41-6.08z" fill="#0e0e0e"/></g><path d="M733.95 618.39c-6.25.0-12.88-1.63-19.11-4.76-7.9-3.96-14.26-9.86-17.91-16.63-3.78-7-4.23-14.1-1.28-19.98 2.95-5.88 8.9-9.76 16.77-10.93 7.6-1.12 16.15.44 24.05 4.4h0c7.9 3.96 14.26 9.87 17.91 16.64 3.78 7 4.23 14.09 1.28 19.98-2.95 5.88-8.9 9.77-16.77 10.93-1.61.24-3.26.36-4.94.36zm-16.57-48.64c-1.49.0-2.95.1-4.37.31-6.54.97-11.43 4.08-13.77 8.76-2.35 4.68-1.91 10.46 1.23 16.27 3.26 6.05 9.01 11.36 16.18 14.95 7.17 3.6 14.87 5.02 21.67 4.02 6.54-.97 11.43-4.08 13.77-8.76 2.35-4.68 1.91-10.46-1.22-16.27-3.26-6.05-9.01-11.36-16.18-14.95-5.67-2.84-11.67-4.33-17.29-4.33z" fill="#ff0"/></g><g><g><path d="M338.08 580.01c22.33-8.09 45.03-1.97 50.71 13.69 5.67 15.65-7.83 34.91-30.16 43-22.33 8.09-45.03 1.96-50.71-13.69-5.67-15.65 7.83-34.9 30.16-43z" fill="#ffd100"/><path d="M339.01 641.25c-15.15.0-27.92-6.54-32.04-17.9-5.85-16.15 7.95-36.02 30.76-44.28 22.82-8.27 46.14-1.86 51.99 14.29 5.85 16.15-7.95 36.01-30.76 44.28-6.76 2.45-13.57 3.61-19.95 3.61zm18.75-63.81c-6.17.0-12.78 1.13-19.35 3.51-21.78 7.89-35.03 26.61-29.56 41.72 5.48 15.11 27.65 20.98 49.42 13.09 21.78-7.9 35.04-26.61 29.56-41.72-3.82-10.55-15.79-16.59-30.08-16.59z" fill="#0e0e0e"/></g><path d="M341.53 633.76c-11.66.0-21.54-5.11-24.74-13.96-4.53-12.51 5.94-27.82 23.34-34.12h0c17.4-6.3 35.25-1.26 39.78 11.25 2.24 6.19.96 13.18-3.6 19.69-4.41 6.29-11.42 11.42-19.73 14.43-5.09 1.84-10.22 2.72-15.04 2.72zm-.04-44.32c-15.32 5.55-24.71 18.56-20.93 28.98 3.78 10.43 19.32 14.4 34.64 8.84 7.54-2.73 13.87-7.34 17.82-12.96 3.79-5.41 4.9-11.1 3.12-16.02-3.78-10.43-19.32-14.4-34.64-8.84h0z" fill="#ff0"/></g><g><g><path d="M579.08 549.14c21.54-10.02 44.69-5.91 51.72 9.18 7.02 15.1-4.74 35.46-26.27 45.48-21.54 10.02-44.69 5.91-51.71-9.19-7.03-15.09 4.74-35.46 26.27-45.48z" fill="#ffd100"/><path d="M580.94 610.26c-13.21.0-24.44-5.36-29.03-15.22-3.54-7.61-2.66-16.69 2.46-25.57 5.06-8.77 13.69-16.31 24.29-21.24 22-10.24 45.8-5.9 53.05 9.67 7.24 15.57-4.76 36.57-26.76 46.81-8.06 3.75-16.37 5.55-24.02 5.55zm21.81-65.6c-7.37.0-15.41 1.74-23.24 5.38h0c-10.23 4.76-18.54 12.02-23.4 20.43-4.79 8.3-5.64 16.72-2.38 23.72 6.78 14.57 29.38 18.47 50.38 8.7 20.99-9.77 32.56-29.58 25.79-44.15-4.26-9.14-14.74-14.08-27.14-14.08zm-23.66 4.47h0z" fill="#0e0e0e"/></g><path d="M583.87 602.53c-10.2.0-18.91-4.19-22.49-11.89-5.61-12.06 3.47-28.23 20.25-36.04h0c16.78-7.81 35-4.35 40.61 7.71 2.78 5.97 2.12 13.04-1.86 19.93-3.85 6.66-10.38 12.38-18.39 16.11-6.07 2.83-12.34 4.18-18.12 4.18zm-.55-44.29c-14.77 6.88-22.99 20.66-18.31 30.71 4.68 10.05 20.51 12.64 35.28 5.77 7.27-3.39 13.17-8.53 16.61-14.48 3.31-5.72 3.91-11.49 1.7-16.23-4.68-10.06-20.51-12.64-35.28-5.77h0z" fill="#ff0"/></g><g><g><path d="M475.22 530.46c23.7-1.66 43.85 10.46 45.01 27.07 1.16 16.61-17.1 31.42-40.79 33.08-23.7 1.66-43.85-10.46-45.01-27.07-1.17-16.61 17.1-31.42 40.79-33.08z" fill="#ffd100"/><path d="M475.14 591.76c-22.29.0-40.59-12.06-41.72-28.15-.59-8.37 3.48-16.54 11.44-22.99 7.86-6.38 18.62-10.34 30.28-11.16 24.22-1.67 44.88 10.87 46.08 28 1.2 17.13-17.52 32.46-41.73 34.15-1.47.1-2.93.15-4.36.15zm4.4-60.45c-1.4.0-2.82.05-4.25.15-11.26.79-21.61 4.59-29.16 10.71-7.44 6.04-11.24 13.6-10.7 21.3 1.12 16.03 20.82 27.76 43.94 26.14 23.1-1.62 40.99-15.98 39.86-32.01-1.05-15.04-18.46-26.28-39.69-26.28z" fill="#0e0e0e"/></g><path d="M475.68 584.72c-7.6.0-14.8-1.84-20.56-5.3-6.82-4.1-10.82-9.97-11.28-16.54-.46-6.57 2.69-12.94 8.87-17.95 5.97-4.84 14.12-7.85 22.93-8.47h0c8.82-.62 17.3 1.22 23.89 5.18 6.81 4.1 10.82 9.97 11.28 16.54.46 6.56-2.69 12.94-8.87 17.95-5.97 4.84-14.12 7.85-22.93 8.47-1.12.08-2.23.12-3.33.12zm.24-44.26h0c-8 .56-15.35 3.25-20.69 7.58-5.13 4.16-7.76 9.33-7.39 14.55.37 5.23 3.69 9.98 9.35 13.38 5.89 3.54 13.53 5.17 21.54 4.62 8-.56 15.35-3.26 20.69-7.58 5.13-4.16 7.76-9.33 7.39-14.55-.37-5.23-3.68-9.98-9.34-13.38-5.89-3.54-13.53-5.18-21.54-4.62z" fill="#ff0"/></g><g><g><path d="M533.88 616.72c20.81 11.45 31.18 32.55 23.16 47.14-8.02 14.59-31.4 17.14-52.21 5.7-20.82-11.45-31.18-32.55-23.16-47.14 8.02-14.59 31.4-17.14 52.21-5.69z" fill="#ffd100"/><path d="M531.11 677.68c-8.5.0-17.88-2.37-26.77-7.25-21.26-11.7-31.83-33.45-23.55-48.51 8.28-15.05 32.31-17.78 53.57-6.09 10.24 5.63 18.35 13.74 22.81 22.83 4.52 9.2 4.79 18.32.75 25.67-4.82 8.76-14.97 13.35-26.81 13.35zm-23.57-67.12c-11.09.0-20.54 4.23-24.99 12.33-7.74 14.08 2.47 34.62 22.76 45.78 20.3 11.16 43.11 8.78 50.85-5.3 3.72-6.76 3.44-15.22-.79-23.82-4.28-8.72-12.09-16.52-21.98-21.95-8.61-4.74-17.68-7.04-25.85-7.04z" fill="#0e0e0e"/></g><path d="M527.98 669.78c-6.65.0-13.71-1.9-20.26-5.5-16.22-8.92-24.2-25.66-17.79-37.32 6.41-11.66 24.82-13.89 41.04-4.97h0c16.22 8.92 24.2 25.66 17.79 37.32-3.17 5.77-9.27 9.42-17.17 10.28-1.18.13-2.39.19-3.6.19zm-17.34-49.3c-7.66.0-14.15 2.87-17.19 8.41-5.35 9.72 1.92 24.02 16.21 31.87 7.03 3.86 14.67 5.58 21.49 4.84 6.57-.72 11.57-3.64 14.09-8.22 5.34-9.72-1.93-24.02-16.2-31.87h0c-6.15-3.38-12.61-5.02-18.4-5.02z" fill="#ff0"/></g><path d="M631.27 471.6c-10.07-1.33-22.29 2.81-31.67 6.18-10.56 3.78-24.78 10.9-23.65 24.25.21 2.43.8 4.58 1.68 6.5.87 3.49 3.05 6.67 6.12 8.25 19.26 9.9 60.77 2.96 66.94-20.79 3.64-13.99-6.85-22.72-19.43-24.38z" fill="#ff0"/><path d="M561.82 486.12c-6.32-7.62-17.73-8.71-26.82-8.16-10.13.62-21.57 2.6-30.17 8.32-4.7 3.13-7.73 7.41-8.92 12.06-.39-5.23-4.45-10.38-9.44-12.31-6.94-2.69-15.26-4.16-22.29-1.83-17.21-2.58-39.38-.37-46.09 10.58-.33.28-.65.58-.97.9-3.99 2.83-3.9 9.03-.85 12.86.5.62 1.07 1.17 1.69 1.69 5.59 11.61 21.81 10.86 33.03 9.53 13.39-1.59 30.33-3.62 41.05-12.6 1.68-1.41 2.73-3.02 3.32-4.72-.07 4.32 1.41 8.74 4.67 12.71 6.8 8.26 21.66 7.57 31.01 6.11 5.69-.89 11.78-3 16.5-6.6 3.19-.92 6.15-1.98 8.69-3.13 10.78-4.9 12.97-16.51 5.59-25.41z" fill="#ff0"/><path d="M708.1 529.9c-4.91-1.93-8.98-1.74-12.92.09-13.13.56-26.3.5-39.43.89-4.17.12-28.19 2.69-23.02 12.31 4.75 8.86 18.51 8.26 27.12 8.85 15.07 1.03 29.88 2.37 45.01 1.88 14.5-.47 15.75-19.11 3.25-24.03z" fill="#ff0"/><path d="M683.31 614.84c-6.15-7.37-17.21-5.62-25.5-3.94-11.89 2.4-24.61 2.22-36.75 2.62-8.08.26-48.65-.76-47.54 13.1 1.43 17.9 31.4 13.87 43.59 14.12 20.74.42 40.75-.98 60.89-5.79 9.48-2.26 10.8-13.54 5.31-20.11z" fill="#ff0"/><path d="M456.89 589.66c-8.1-6.86-18.36-8.02-28.44-10.49-10.39-2.54-20.13-6.09-30.84-5.83-3.52.09-7.38 3.87-5.81 7.63 4.62 11.08 12.7 15.01 23.5 19.53 10.88 4.55 25.18 8.89 36.87 7.02 7.74-1.24 10.51-12.95 4.72-17.86z" fill="#ff0"/><g><g><path d="M571.1 450.21c23.55 3.09 40.88 18.99 38.71 35.49-2.17 16.51-23.02 27.38-46.57 24.29-23.55-3.1-40.88-18.99-38.71-35.5 2.17-16.51 23.01-27.38 46.57-24.29z" fill="#ffd100"/><path d="M571.16 511.52c-2.63.0-5.32-.17-8.04-.53-24.06-3.16-41.81-19.59-39.58-36.62 1.09-8.32 6.7-15.51 15.79-20.25 8.97-4.68 20.3-6.42 31.9-4.9h0c24.06 3.16 41.82 19.59 39.58 36.62-1.99 15.1-19.04 25.68-39.65 25.68zm-8.08-60.83c-8.34.0-16.25 1.78-22.82 5.21-8.5 4.43-13.73 11.09-14.73 18.74-2.09 15.93 14.88 31.35 37.85 34.37 22.96 3.03 43.35-7.5 45.44-23.43 2.09-15.93-14.89-31.35-37.85-34.37-2.65-.35-5.29-.52-7.89-.52z" fill="#0e0e0e"/></g><path d="M570.16 504.43c-2.02.0-4.08-.13-6.14-.41-18.35-2.41-31.87-15.11-30.14-28.3 1.74-13.19 18.08-21.96 36.43-19.55h0c18.35 2.41 31.87 15.11 30.13 28.3-.85 6.52-5.21 12.14-12.26 15.82-5.21 2.72-11.46 4.13-18.02 4.13zm-5.98-44.64c-13.74.0-25.04 6.76-26.32 16.46-1.44 11 10.53 21.67 26.68 23.8 7.96 1.05 15.69-.13 21.78-3.31 5.86-3.06 9.46-7.6 10.14-12.79 1.45-10.99-10.52-21.67-26.68-23.8h0c-1.9-.25-3.78-.37-5.61-.37z" fill="#ff0"/></g><g><g><path d="M477.08 454.35c23.15-5.33 44.94 3.5 48.68 19.73 3.73 16.22-12 33.7-35.15 39.03-23.15 5.33-44.94-3.51-48.68-19.73-3.74-16.22 12-33.7 35.15-39.03z" fill="#ffd100"/><path d="M477.15 515.67c-6.61.0-12.94-1.15-18.54-3.42-9.5-3.85-15.78-10.48-17.66-18.65-1.88-8.18.86-16.87 7.72-24.5 6.78-7.52 16.78-13.11 28.18-15.73h0c23.65-5.45 46.03 3.74 49.88 20.48 3.85 16.74-12.25 34.79-35.9 40.23-4.6 1.06-9.21 1.58-13.68 1.58zm13.35-61.87c-4.26.0-8.7.49-13.19 1.53h0c-11 2.53-20.63 7.9-27.14 15.12-6.41 7.12-8.99 15.18-7.26 22.7 1.73 7.52 7.57 13.64 16.45 17.24 9.01 3.65 20.02 4.27 31.02 1.74 22.57-5.2 38-22.17 34.4-37.83-2.89-12.54-17.13-20.5-34.28-20.5zm-13.42.55h0z" fill="#0e0e0e"/></g><path d="M478.93 508.44c-5.02.0-9.83-.87-14.08-2.6-7.37-2.99-12.24-8.16-13.72-14.58-2.98-12.97 9.26-26.89 27.3-31.05h0c8.61-1.98 17.28-1.48 24.41 1.4 7.37 2.99 12.24 8.17 13.72 14.58 1.48 6.41-.64 13.2-5.96 19.11-5.15 5.71-12.72 9.95-21.34 11.94-3.47.8-6.94 1.2-10.32 1.2zm.4-44.31c-15.88 3.66-26.78 15.43-24.29 26.24 1.17 5.1 5.19 9.28 11.32 11.76 6.37 2.58 14.18 3.01 22 1.21 7.82-1.8 14.66-5.6 19.26-10.71 4.42-4.91 6.21-10.42 5.03-15.52-1.18-5.11-5.19-9.28-11.31-11.76-6.37-2.58-14.18-3.01-22-1.21h0z" fill="#ff0"/></g></g></g></g></g></svg>