<svg xmlns="http://www.w3.org/2000/svg" width="1080" height="648" viewBox="0 0 1080 648"><g id="a"/><g id="b"><g id="c"><g id="d"><g><path d="M432 216h216V0H432V216zm54-162c14.91.0 28.41 6.04 38.18 15.82.0-13.82 5.27-27.64 15.82-38.18 10.54 10.54 15.82 24.36 15.82 38.18 9.77-9.77 23.27-15.82 38.18-15.82.0 14.91-6.04 28.41-15.82 38.18 13.82.0 27.64 5.27 38.18 15.82-10.54 10.54-24.36 15.82-38.18 15.82 9.77 9.77 15.82 23.27 15.82 38.18-14.91.0-28.41-6.04-38.18-15.82.0 13.82-5.27 27.64-15.82 38.18-10.54-10.54-15.82-24.36-15.82-38.18-9.77 9.77-23.27 15.82-38.18 15.82.0-14.91 6.04-28.41 15.82-38.18-13.82.0-27.64-5.27-38.18-15.82 10.54-10.54 24.36-15.82 38.18-15.82-9.77-9.77-15.82-23.27-15.82-38.18z" fill="#28593d"/><path d="M540 108c-10.54-10.54-15.82-24.36-15.82-38.18-9.77-9.77-23.27-15.82-38.18-15.82.0 14.91 6.04 28.41 15.82 38.18 13.82.0 27.64 5.27 38.18 15.82z" fill="#fcfcfc"/><path d="M540 108c10.54-10.54 24.36-15.82 38.18-15.82 9.77-9.77 15.82-23.27 15.82-38.18-14.91.0-28.41 6.04-38.18 15.82.0 13.82-5.27 27.64-15.82 38.18z" fill="#fcfcfc"/><path d="M540 108c-10.54 10.54-24.36 15.82-38.18 15.82C492.05 133.59 486 147.09 486 162c14.91.0 28.41-6.04 38.18-15.82.0-13.82 5.27-27.64 15.82-38.18z" fill="#fcfcfc"/><path d="M555.82 146.18c9.77 9.77 23.27 15.82 38.18 15.82.0-14.91-6.04-28.41-15.82-38.18-13.82.0-27.64-5.27-38.18-15.82 10.54 10.54 15.82 24.36 15.82 38.18z" fill="#fcfcfc"/><path d="M501.82 123.82c13.82.0 27.64-5.27 38.18-15.82-10.54-10.54-24.36-15.82-38.18-15.82-13.82.0-27.64 5.27-38.18 15.82 10.54 10.54 24.36 15.82 38.18 15.82z" fill="#378a7a"/><path d="M555.82 69.82c0-13.82-5.27-27.64-15.82-38.18-10.54 10.54-15.82 24.36-15.82 38.18s5.27 27.64 15.82 38.18c10.54-10.54 15.82-24.36 15.82-38.18z" fill="#378a7a"/><path d="M540 108c-10.54 10.54-15.82 24.36-15.82 38.18s5.27 27.64 15.82 38.18c10.54-10.54 15.82-24.36 15.82-38.18s-5.27-27.64-15.82-38.18z" fill="#378a7a"/><path d="M540 108c10.54 10.54 24.36 15.82 38.18 15.82s27.64-5.27 38.18-15.82c-10.54-10.54-24.36-15.82-38.18-15.82-13.82.0-27.64 5.27-38.18 15.82z" fill="#378a7a"/><path d="M324 216c-59.65.0-108-48.35-108-108h0v108h108z" fill="#fcfcfc"/><path d="M324 108C324 48.35 372.35.0 432 0H216c59.65.0 108 48.35 108 108z" fill="#fcfcfc"/><path d="M324 216c0-59.65 48.35-108 108-108V0c0 59.65-48.35 108-108 108S216 59.65 216 0h0V108c59.65.0 108 48.35 108 108z" fill="#fcfcfc"/><path d="M324 216h108V108c0 59.65-48.35 108-108 108z" fill="#fcfcfc"/><path d="M324 216 216 108c0 59.65 48.35 108 108 108z" fill="#28593d"/><path d="M216 108l108 108c0-59.65-48.35-108-108-108z" fill="#2d734b"/><path d="M432 108 324 216c59.65.0 108-48.35 108-108z" fill="#28593d"/><path d="M324 216l108-108c-59.65.0-108 48.35-108 108z" fill="#2d734b"/><path d="M324 108 216 0c0 59.65 48.35 108 108 108z" fill="#28593d"/><path d="M216 0l108 108C324 48.35 275.65.0 216 0z" fill="#308c58"/><path d="M432 0 324 108c59.65.0 108-48.35 108-108z" fill="#28593d"/><path d="M324 108 432 0c-59.65.0-108 48.35-108 108z" fill="#308c58"/><path d="M0 0V108H108C48.35 108 0 59.65.0.0z" fill="#fcfcfc"/><path d="M216 216V108c0 59.65-48.35 108-108 108h108z" fill="#fcfcfc"/><path d="M108 108h108V0c0 59.65-48.35 108-108 108z" fill="#fcfcfc"/><path d="M108 216C48.35 216 0 167.65.0 108v108H108z" fill="#fcfcfc"/><path d="M108 108h0c59.65.0 108-48.35 108-108H0C0 59.65 48.35 108 108 108z" fill="#2d734b"/><path d="M108 216h0c59.65.0 108-48.35 108-108H0c0 59.65 48.35 108 108 108z" fill="#28593d"/><path d="M756 216c-59.65.0-108-48.35-108-108v108h108z" fill="#fcfcfc"/><path d="M864 108V0H756c59.65.0 108 48.35 108 108z" fill="#fcfcfc"/><path d="M756 216h108V108c0 59.65-48.35 108-108 108z" fill="#fcfcfc"/><path d="M756 0H648V108C648 48.35 696.35.0 756 0z" fill="#fcfcfc"/><path d="M756 0c-59.65.0-108 48.35-108 108s48.35 108 108 108 108-48.35 108-108S815.65.0 756 0zm0 162c-29.82.0-54-24.18-54-54s24.18-54 54-54 54 24.18 54 54-24.18 54-54 54z" fill="#308c58"/><circle cx="756" cy="108" r="54" transform="translate(145.06 566.21) rotate(-45)" fill="#2d734b"/><path d="M864 108v108h216V0H864V108zM1058.4 8.1c7.46.0 13.5 6.04 13.5 13.5s-6.04 13.5-13.5 13.5-13.5-6.04-13.5-13.5 6.04-13.5 13.5-13.5zm0 43.2c7.46.0 13.5 6.04 13.5 13.5s-6.04 13.5-13.5 13.5-13.5-6.04-13.5-13.5 6.04-13.5 13.5-13.5zm0 43.2c7.46.0 13.5 6.04 13.5 13.5s-6.04 13.5-13.5 13.5-13.5-6.04-13.5-13.5 6.04-13.5 13.5-13.5zm0 43.2c7.46.0 13.5 6.04 13.5 13.5s-6.04 13.5-13.5 13.5-13.5-6.04-13.5-13.5 6.04-13.5 13.5-13.5zm0 43.2c7.46.0 13.5 6.04 13.5 13.5s-6.04 13.5-13.5 13.5-13.5-6.04-13.5-13.5 6.04-13.5 13.5-13.5zM1015.2 8.1c7.46.0 13.5 6.04 13.5 13.5s-6.04 13.5-13.5 13.5-13.5-6.04-13.5-13.5 6.04-13.5 13.5-13.5zm0 43.2c7.46.0 13.5 6.04 13.5 13.5s-6.04 13.5-13.5 13.5-13.5-6.04-13.5-13.5 6.04-13.5 13.5-13.5zm0 43.2c7.46.0 13.5 6.04 13.5 13.5s-6.04 13.5-13.5 13.5-13.5-6.04-13.5-13.5 6.04-13.5 13.5-13.5zm0 43.2c7.46.0 13.5 6.04 13.5 13.5s-6.04 13.5-13.5 13.5-13.5-6.04-13.5-13.5 6.04-13.5 13.5-13.5zm0 43.2c7.46.0 13.5 6.04 13.5 13.5s-6.04 13.5-13.5 13.5-13.5-6.04-13.5-13.5 6.04-13.5 13.5-13.5zM972 8.1c7.46.0 13.5 6.04 13.5 13.5s-6.04 13.5-13.5 13.5-13.5-6.04-13.5-13.5 6.04-13.5 13.5-13.5zm0 43.2c7.46.0 13.5 6.04 13.5 13.5s-6.04 13.5-13.5 13.5-13.5-6.04-13.5-13.5 6.04-13.5 13.5-13.5zm0 43.2c7.46.0 13.5 6.04 13.5 13.5s-6.04 13.5-13.5 13.5-13.5-6.04-13.5-13.5 6.04-13.5 13.5-13.5zm0 43.2c7.46.0 13.5 6.04 13.5 13.5s-6.04 13.5-13.5 13.5-13.5-6.04-13.5-13.5 6.04-13.5 13.5-13.5zm0 43.2c7.46.0 13.5 6.04 13.5 13.5s-6.04 13.5-13.5 13.5-13.5-6.04-13.5-13.5 6.04-13.5 13.5-13.5zM928.8 8.1c7.46.0 13.5 6.04 13.5 13.5s-6.04 13.5-13.5 13.5-13.5-6.04-13.5-13.5 6.04-13.5 13.5-13.5zm0 43.2c7.46.0 13.5 6.04 13.5 13.5s-6.04 13.5-13.5 13.5-13.5-6.04-13.5-13.5 6.04-13.5 13.5-13.5zm0 43.2c7.46.0 13.5 6.04 13.5 13.5s-6.04 13.5-13.5 13.5-13.5-6.04-13.5-13.5 6.04-13.5 13.5-13.5zm0 43.2c7.46.0 13.5 6.04 13.5 13.5s-6.04 13.5-13.5 13.5-13.5-6.04-13.5-13.5 6.04-13.5 13.5-13.5zm0 43.2c7.46.0 13.5 6.04 13.5 13.5s-6.04 13.5-13.5 13.5-13.5-6.04-13.5-13.5 6.04-13.5 13.5-13.5zM885.6 8.1c7.46.0 13.5 6.04 13.5 13.5s-6.04 13.5-13.5 13.5-13.5-6.04-13.5-13.5 6.04-13.5 13.5-13.5zm0 43.2c7.46.0 13.5 6.04 13.5 13.5s-6.04 13.5-13.5 13.5-13.5-6.04-13.5-13.5 6.04-13.5 13.5-13.5zm0 43.2c7.46.0 13.5 6.04 13.5 13.5s-6.04 13.5-13.5 13.5-13.5-6.04-13.5-13.5 6.04-13.5 13.5-13.5zm0 43.2c7.46.0 13.5 6.04 13.5 13.5s-6.04 13.5-13.5 13.5-13.5-6.04-13.5-13.5 6.04-13.5 13.5-13.5zm0 43.2c7.46.0 13.5 6.04 13.5 13.5s-6.04 13.5-13.5 13.5-13.5-6.04-13.5-13.5 6.04-13.5 13.5-13.5z" fill="#fcfcfc"/><circle cx="1058.4" cy="21.6" r="13.5" fill="#378a7a"/><circle cx="1058.4" cy="64.8" r="13.5" fill="#308c58"/><circle cx="1058.4" cy="108" r="13.5" fill="#2d734b"/><circle cx="1058.4" cy="151.2" r="13.5" fill="#28593d"/><circle cx="1058.4" cy="194.4" r="13.5" fill="#308c58"/><circle cx="1015.2" cy="21.6" r="13.5" fill="#378a7a"/><circle cx="1015.2" cy="64.8" r="13.5" fill="#308c58"/><circle cx="1015.2" cy="108" r="13.5" fill="#2d734b"/><circle cx="1015.2" cy="151.2" r="13.5" fill="#28593d"/><circle cx="1015.2" cy="194.4" r="13.5" fill="#308c58"/><circle cx="972" cy="21.6" r="13.5" fill="#378a7a"/><circle cx="972" cy="64.8" r="13.5" fill="#308c58"/><circle cx="972" cy="108" r="13.5" fill="#2d734b"/><circle cx="972" cy="151.2" r="13.5" fill="#28593d"/><circle cx="972" cy="194.4" r="13.5" fill="#308c58"/><circle cx="928.8" cy="21.6" r="13.5" transform="translate(19.88 213.97) rotate(-13.28)" fill="#378a7a"/><circle cx="928.8" cy="64.8" r="13.5" transform="translate(513.5 898.1) rotate(-67.5)" fill="#308c58"/><circle cx="928.8" cy="108" r="13.5" transform="translate(473.59 924.77) rotate(-67.5)" fill="#2d734b"/><circle cx="928.8" cy="151.2" r="13.5" transform="translate(433.67 951.44) rotate(-67.5)" fill="#28593d"/><circle cx="928.8" cy="194.4" r="13.5" transform="translate(-19.82 218.59) rotate(-13.28)" fill="#308c58"/><circle cx="885.6" cy="21.6" r="13.5" fill="#378a7a"/><circle cx="885.6" cy="64.8" r="13.5" fill="#308c58"/><circle cx="885.6" cy="108" r="13.5" fill="#2d734b"/><circle cx="885.6" cy="151.2" r="13.5" fill="#28593d"/><circle cx="885.6" cy="194.4" r="13.5" fill="#308c58"/><path d="M432 432V216H216v216h216zM324 222.91c14.91.0 27 12.09 27 27s-12.09 27-27 27-27-12.09-27-27 12.09-27 27-27zm0 97.83c0-29.82 24.18-54 54-54 0 29.82-24.18 54-54 54s-54-24.18-54-54c29.82.0 54 24.18 54 54zm-76.85 27.5v-15.58h153.7v15.58c0 42.44-34.41 76.85-76.85 76.85h0c-42.44.0-76.85-34.41-76.85-76.85z" fill="#fcfcfc"/><path d="M400.85 348.24v-15.58H247.15v15.58c0 42.44 34.41 76.85 76.85 76.85h0c42.44.0 76.85-34.41 76.85-76.85z" fill="#2d734b"/><circle cx="324" cy="249.91" r="27" fill="#2d734b"/><path d="M324 320.74c0-29.82-24.18-54-54-54 0 29.82 24.18 54 54 54z" fill="#28593d"/><path d="M378 266.74c-29.82.0-54 24.18-54 54 29.82.0 54-24.18 54-54z" fill="#28593d"/><path d="M972 324c0 59.65-48.35 108-108 108h216V216H864c59.65.0 108 48.35 108 108z" fill="#28593d"/><path d="M972 324c0-59.65-48.35-108-108-108v216c59.65.0 108-48.35 108-108z" fill="#308c58"/><path d="M432 432h216c-59.65.0-108-48.35-108-108s48.35-108 108-108H432v216z" fill="#28593d"/><path d="M540 324c0 59.65 48.35 108 108 108-29.82.0-54-24.18-54-54 29.82.0 54 24.18 54 54V216c-59.65.0-108 48.35-108 108z" fill="#fcfcfc"/><path d="M648 432l-54-54c0 29.82 24.18 54 54 54z" fill="#2d734b"/><path d="M594 378l54 54c0-29.82-24.18-54-54-54z" fill="#28593d"/><path d="M648 216v216c0-59.65 48.35-108 108-108 0 59.65-48.35 108-108 108h216V216H648z" fill="#378a7a"/><path d="M756 324 648 432c59.65.0 108-48.35 108-108z" fill="#2d734b"/><path d="M648 432l108-108c-59.65.0-108 48.35-108 108z" fill="#28593d"/><path d="M0 378v54H54c-29.82.0-54-24.18-54-54z" fill="#308c58"/><path d="M162 378c0-29.82 24.18-54 54-54v-54c0 29.82-24.18 54-54 54 0 29.82-24.18 54-54 54 29.82.0 54 24.18 54 54h54c-29.82.0-54-24.18-54-54z" fill="#308c58"/><path d="M108 378c0-29.82 24.18-54 54-54 0-29.82 24.18-54 54-54-29.82.0-54-24.18-54-54h-54c29.82.0 54 24.18 54 54s-24.18 54-54 54c0 29.82-24.18 54-54 54 29.82.0 54 24.18 54 54h54c-29.82.0-54-24.18-54-54z" fill="#308c58"/><path d="M216 270v-54h-54c29.82.0 54 24.18 54 54z" fill="#308c58"/><path d="M54 432h54c-29.82.0-54-24.18-54-54s24.18-54 54-54c0-29.82 24.18-54 54-54-29.82.0-54-24.18-54-54H54c29.82.0 54 24.18 54 54s-24.18 54-54 54c0 29.82-24.18 54-54 54 29.82.0 54 24.18 54 54z" fill="#308c58"/><path d="M162 378c29.82.0 54 24.18 54 54V324c0 29.82-24.18 54-54 54z" fill="#308c58"/><path d="M54 324c0-29.82 24.18-54 54-54-29.82.0-54-24.18-54-54H0c29.82.0 54 24.18 54 54S29.82 324 0 324v54c0-29.82 24.18-54 54-54z" fill="#308c58"/><path d="M54 270c-29.82.0-54-24.18-54-54v108c0-29.82 24.18-54 54-54z" fill="#308c58"/><path d="M162 378c0 29.82 24.18 54 54 54 0-29.82-24.18-54-54-54z" fill="#fcfcfc"/><path d="M162 378c29.82.0 54-24.18 54-54-29.82.0-54 24.18-54 54z" fill="#fcfcfc"/><path d="M108 378c0 29.82 24.18 54 54 54 0-29.82-24.18-54-54-54z" fill="#fcfcfc"/><path d="M108 378c29.82.0 54-24.18 54-54-29.82.0-54 24.18-54 54z" fill="#fcfcfc"/><path d="M54 378c0 29.82 24.18 54 54 54 0-29.82-24.18-54-54-54z" fill="#fcfcfc"/><path d="M108 324c-29.82.0-54 24.18-54 54 29.82.0 54-24.18 54-54z" fill="#fcfcfc"/><path d="M54 432c0-29.82-24.18-54-54-54 0 29.82 24.18 54 54 54z" fill="#fcfcfc"/><path d="M54 324c-29.82.0-54 24.18-54 54 29.82.0 54-24.18 54-54z" fill="#fcfcfc"/><path d="M54 270c-29.82.0-54 24.18-54 54 29.82.0 54-24.18 54-54z" fill="#fcfcfc"/><path d="M54 270c0-29.82-24.18-54-54-54 0 29.82 24.18 54 54 54z" fill="#fcfcfc"/><path d="M54 324c29.82.0 54-24.18 54-54-29.82.0-54 24.18-54 54z" fill="#fcfcfc"/><path d="M108 270c0-29.82-24.18-54-54-54 0 29.82 24.18 54 54 54z" fill="#fcfcfc"/><path d="M162 270c-29.82.0-54 24.18-54 54 29.82.0 54-24.18 54-54z" fill="#fcfcfc"/><path d="M108 216c0 29.82 24.18 54 54 54 0-29.82-24.18-54-54-54z" fill="#fcfcfc"/><path d="M162 324c29.82.0 54-24.18 54-54-29.82.0-54 24.18-54 54z" fill="#fcfcfc"/><path d="M162 216c0 29.82 24.18 54 54 54 0-29.82-24.18-54-54-54z" fill="#fcfcfc"/><path d="M432 648h216V540h0V432H432v216zm171.02-188.69c14.91.0 27 12.09 27 27s-12.09 27-27 27-27-12.09-27-27 12.09-27 27-27zm-62.33.0c14.91.0 27 12.09 27 27s-12.09 27-27 27-27-12.09-27-27 12.09-27 27-27zm-62.33-.6c14.91.0 27 12.09 27 27s-12.09 27-27 27-27-12.09-27-27 12.09-27 27-27z" fill="#308c58"/><circle cx="478.36" cy="485.71" r="27" fill="#fcfcfc"/><circle cx="540.69" cy="486.31" r="27" transform="translate(-97.27 137.23) rotate(-13.28)" fill="#fcfcfc"/><circle cx="603.02" cy="486.31" r="27" transform="translate(-95.6 151.56) rotate(-13.28)" fill="#fcfcfc"/><path d="M648 540v108h108c-59.65.0-108-48.35-108-108z" fill="#fcfcfc"/><path d="M756 648h108V540c0 59.65-48.35 108-108 108z" fill="#fcfcfc"/><path d="M864 540V432H756c59.65.0 108 48.35 108 108z" fill="#fcfcfc"/><path d="M756 432H648v108c0-59.65 48.35-108 108-108z" fill="#fcfcfc"/><path d="M648 540h0c0 59.65 48.35 108 108 108h0V432h0c-59.65.0-108 48.35-108 108z" fill="#378a7a"/><path d="M756 648c59.65.0 108-48.35 108-108h0c0-59.65-48.35-108-108-108h0v216h0z" fill="#28593d"/><path d="M216 648V432H0v216H216zM108 459c29.82.0 54 24.18 54 54s-24.18 54-54 54-54-24.18-54-54 24.18-54 54-54zM54 567c29.82.0 54 24.18 54 54 0-29.82 24.18-54 54-54 0 29.82-24.18 54-54 54s-54-24.18-54-54z" fill="#378a7a"/><path d="M54 567c0 29.82 24.18 54 54 54l-54-54z" fill="#2d734b"/><path d="M54 567l54 54c0-29.82-24.18-54-54-54z" fill="#28593d"/><path d="M162 567l-54 54c29.82.0 54-24.18 54-54z" fill="#2d734b"/><path d="M108 621l54-54c-29.82.0-54 24.18-54 54z" fill="#28593d"/><path d="M108 567c29.82.0 54-24.18 54-54s-24.18-54-54-54-54 24.18-54 54 24.18 54 54 54zm0-81c14.91.0 27 12.09 27 27s-12.09 27-27 27-27-12.09-27-27 12.09-27 27-27z" fill="#fcfcfc"/><circle cx="108" cy="513" r="27" fill="#2d734b"/><path d="M1050.43 643.9c-1.71-.49-3.4-1.01-5.07-1.58-2.51-.85-4.98-1.79-7.4-2.81-2.42-1.02-4.8-2.14-7.13-3.33-9.31-4.77-17.84-10.85-25.35-18.01 7.06 7.93 11.36 18.37 11.36 29.82h63.15c-6.52.0-12.91-.58-19.12-1.69-3.55-.63-7.03-1.44-10.45-2.41z" fill="#fcfcfc"/><path d="M999 459c0 6.01-1.97 11.56-5.29 16.05.96-1.27 1.94-2.52 2.95-3.74 1.1-1.33 2.23-2.64 3.39-3.92.58-.64 1.17-1.27 1.77-1.9 1.19-1.25 2.41-2.47 3.66-3.66.63-.6 1.26-1.18 1.9-1.77 7.03-6.39 14.91-11.87 23.45-16.24 2.33-1.19 4.71-2.3 7.13-3.33 2.42-1.02 4.89-1.96 7.4-2.81 1.67-.57 3.36-1.09 5.07-1.58 3.42-.97 6.9-1.78 10.45-2.41 6.2-1.11 12.59-1.69 19.12-1.69H972c14.91.0 27 12.09 27 27z" fill="#fcfcfc"/><path d="M950.29 475.05c-3.32-4.49-5.29-10.04-5.29-16.05.0-14.91 12.09-27 27-27H864c35.26.0 66.58 16.9 86.29 43.05z" fill="#fcfcfc"/><path d="M864 648c0-35.26 16.9-66.58 43.05-86.29-4.49 3.32-10.04 5.29-16.05 5.29-14.91.0-27-12.09-27-27h0v108z" fill="#fcfcfc"/><path d="M864 540c0-14.91 12.09-27 27-27 6.01.0 11.56 1.97 16.05 5.29-26.14-19.71-43.05-51.02-43.05-86.29v108h0z" fill="#fcfcfc"/><path d="M918 540c0 8.74-4.15 16.5-10.59 21.43 18.01-13.46 40.37-21.43 64.59-21.43-24.22.0-46.58-7.97-64.59-21.43 6.44 4.93 10.59 12.7 10.59 21.43z" fill="#fcfcfc"/><path d="M938.51 618.18C919.13 636.66 892.89 648 864 648h63.15c0-11.45 4.3-21.9 11.36-29.82z" fill="#fcfcfc"/><path d="M972 603.15c11.45.0 21.9 4.3 29.82 11.36-2.38-2.5-4.65-5.12-6.79-7.84-.53-.68-1.06-1.37-1.58-2.06-1.04-1.39-2.04-2.8-3.01-4.23-2.91-4.31-5.52-8.84-7.79-13.56-.76-1.57-1.48-3.17-2.16-4.78-.68-1.62-1.33-3.25-1.93-4.9-.61-1.65-1.17-3.33-1.7-5.02-.53-1.69-1.01-3.4-1.46-5.12-.67-2.59-1.24-5.21-1.71-7.87-1.11-6.21-1.69-12.59-1.69-19.12.0 28.89-11.34 55.13-29.82 74.51 7.93-7.06 18.37-11.36 29.82-11.36z" fill="#fcfcfc"/><path d="M972 486c-8.74.0-16.5-4.15-21.43-10.59 13.46 18.01 21.43 40.37 21.43 64.59.0-6.52.58-12.91 1.69-19.12.48-2.66 1.05-5.29 1.71-7.87 3.55-13.79 9.75-26.52 18.03-37.6-4.94 6.44-12.7 10.59-21.43 10.59z" fill="#fcfcfc"/><path d="M972 540c59.65.0 108 48.35 108 108V432c0 59.65-48.35 108-108 108z" fill="#378a7a"/><path d="M950.57 475.41c-.09-.12-.19-.24-.28-.36-19.71-26.14-51.02-43.05-86.29-43.05l108 108c0-24.22-7.97-46.58-21.43-64.59z" fill="#28593d"/><path d="M907.05 518.29c.12.09.24.18.36.28 18.01 13.46 40.37 21.43 64.59 21.43l-108-108c0 35.26 16.9 66.58 43.05 86.29z" fill="#2d734b"/><path d="M1050.43 436.1c-1.71.49-3.4 1.01-5.07 1.58-2.51.85-4.98 1.79-7.4 2.81-2.42 1.02-4.8 2.14-7.13 3.33-8.54 4.37-16.42 9.85-23.45 16.24-.64.58-1.27 1.17-1.9 1.77-1.25 1.19-2.47 2.41-3.66 3.66-.6.63-1.18 1.26-1.77 1.9-1.16 1.28-2.29 2.59-3.39 3.92-1.01 1.22-1.99 2.48-2.95 3.74-.09.12-.19.24-.28.36-8.28 11.08-14.49 23.81-18.03 37.6-.67 2.59-1.24 5.21-1.71 7.87-1.11 6.21-1.69 12.59-1.69 19.12l108-108c-6.52.0-12.91.58-19.12 1.69-3.55.63-7.03 1.44-10.45 2.41z" fill="#2d734b"/><path d="M1080 432 972 540c59.65.0 108-48.35 108-108z" fill="#28593d"/><path d="M938.51 618.18c1.15-1.29 2.37-2.51 3.67-3.67C960.66 595.13 972 568.89 972 540L864 648c28.89.0 55.13-11.34 74.51-29.82z" fill="#2d734b"/><path d="M907.05 561.71c-26.14 19.71-43.05 51.02-43.05 86.29l108-108c-24.22.0-46.58 7.97-64.59 21.43-.12.09-.24.19-.36.28z" fill="#28593d"/><path d="M973.69 559.12c.48 2.66 1.05 5.29 1.71 7.87.44 1.73.93 3.43 1.46 5.12.53 1.69 1.09 3.36 1.7 5.02.61 1.65 1.25 3.29 1.93 4.9.68 1.62 1.4 3.21 2.16 4.78 2.27 4.72 4.88 9.25 7.79 13.56.97 1.44 1.97 2.85 3.01 4.23.52.69 1.04 1.38 1.58 2.06 2.14 2.72 4.4 5.33 6.79 7.84 1.29 1.15 2.51 2.37 3.67 3.67 7.5 7.15 16.03 13.24 25.35 18.01 2.33 1.19 4.71 2.3 7.13 3.33 2.42 1.02 4.89 1.96 7.4 2.81 1.67.57 3.36 1.09 5.07 1.58 3.42.97 6.9 1.78 10.45 2.41 6.2 1.11 12.59 1.69 19.12 1.69l-108-108c0 6.52.58 12.91 1.69 19.12z" fill="#28593d"/><path d="M972 540l108 108c0-59.65-48.35-108-108-108z" fill="#2d734b"/><path d="M891 567c6.01.0 11.56-1.97 16.05-5.29.12-.09.24-.18.36-.28 6.44-4.94 10.59-12.7 10.59-21.43s-4.15-16.5-10.59-21.43c-.12-.09-.24-.19-.36-.28-4.49-3.32-10.04-5.29-16.05-5.29-14.91.0-27 12.09-27 27s12.09 27 27 27z" fill="#378a7a"/><path d="M945 459c0 6.01 1.97 11.56 5.29 16.05.09.12.18.24.28.36 4.93 6.44 12.7 10.59 21.43 10.59s16.5-4.15 21.43-10.59c.09-.12.19-.24.28-.36 3.32-4.49 5.29-10.04 5.29-16.05.0-14.91-12.09-27-27-27s-27 12.09-27 27z" fill="#378a7a"/><path d="M942.18 614.51c-1.29 1.15-2.51 2.37-3.67 3.67-7.06 7.93-11.36 18.37-11.36 29.82h89.7c0-11.45-4.3-21.9-11.36-29.82-1.15-1.29-2.37-2.51-3.67-3.67-7.93-7.06-18.37-11.36-29.82-11.36s-21.9 4.3-29.82 11.36z" fill="#378a7a"/><path d="M432 432c0 59.65-48.35 108-108 108s-108-48.35-108-108v216h216V432z" fill="#28593d"/><path d="M324 540V432H216c0 59.65 48.36 108 108 108z" fill="#2d734b"/><path d="M324 540c59.65.0 108-48.35 108-108H324v108z" fill="#378a7a"/></g></g></g></g></svg>