<svg xmlns="http://www.w3.org/2000/svg" width="1026.45" height="1080" viewBox="0 0 1026.45 1080"><g id="a"/><g id="b"><g id="c"><g id="d"><g><path d="M1026.45 801.17l-91.56 91.57-105.82-20.81V1080H197.37V848.44l-105.8 44.3L0 801.17l84.32-84.32c72.39-72.39 170.58-113.06 272.96-113.06h311.89c102.38.0 200.56 40.67 272.96 113.06l84.32 84.32z" fill="#ffd163"/><path d="M816.07 293.3c0 29.55-23.95 53.5-53.5 53.5s-53.5-23.95-53.5-53.5 23.95-53.5 53.5-53.5 53.5 23.95 53.5 53.5z" fill="#f2946b"/><path d="M317.37 293.3c0 29.55-23.95 53.5-53.5 53.5s-53.5-23.95-53.5-53.5 23.95-53.5 53.5-53.5 53.5 23.95 53.5 53.5z" fill="#f2946b"/><path d="M513.22 664.93h0c-31.66.0-57.32-25.66-57.32-57.32v-128.02h114.64v128.02c0 31.66-25.66 57.32-57.32 57.32z" fill="#f2946b"/><circle cx="513.22" cy="293.3" r="249.35" transform="translate(-57.07 448.81) rotate(-45)" fill="#ffa77a"/><path d="M263.87 239.8v38.83c0 8.1 6.57 14.67 14.67 14.67h0c8.1.0 14.67-6.57 14.67-14.67v-33.77c0-32.8 31.81-56.24 63.12-46.45 52.53 16.42 123.85 36.61 156.89 36.61s104.11-20.26 156.84-36.69c31.34-9.76 63.16 13.62 63.16 46.44v33.15c0 8.49 6.88 15.38 15.38 15.38h0c8.07.0 14.79-6.23 15.34-14.28 4.03-58.79 2.66-279.01-244.03-279.01C235.21.0 263.87 239.8 263.87 239.8z" fill="#070707"/></g></g></g></g></svg>