<svg id="_Слой_2" xmlns="http://www.w3.org/2000/svg" width="873.35" height="1080" viewBox="0 0 873.35 1080"><g id="Leaf_274644418"><g id="Leaf_274644418-2"><path d="M564.62 477.74c0 .09-.01.18-.02.26-.04-.09-.09-.18-.13-.27.0.0.04.0.07.0h-.07c-.01-.13-.02-.26-.03-.39.06.13.12.26.18.4h0z" fill="#fcfcfc"/><path d="M345.05 569.68c-.71 1.32-1.33 2.7-2.14 3.96-1.85 2.88-3.94 5.6-5.66 8.55-9.15 15.65-20.24 29.76-33.01 42.6-2.41 2.42-4.51 5.16-6.61 7.86-5.48 7.03-11.8 13.05-19.47 17.73-5.69 3.47-10.8 7.89-16.54 11.27-15.61 9.17-32.09 16.56-49.55 21.42-4.57 1.27-9.61.86-14.58 1.24-4.49 6.3-2.14 12.51.93 18.55 4.1 8.06 9.28 15.34 15.31 22.16 8.7 9.84 17.35 19.8 23.68 31.48.94 1.73 2.43 3.17 3.32 4.92 2.52 4.95 4.76 10.04 7.29 14.97 2.22 4.32 4.82 8.44 7.01 12.77 4.43 8.76 12.46 11.67 21.28 12.77 4.2.52 8.59-.33 12.88-.62 8.27-.55 16.53-1.52 24.8-1.63 14.46-.19 28.44-2.45 41.2-9.43 9.81-5.38 18.66-12.24 26.8-20 9.29-8.85 18.22-17.94 25.43-28.67 5.42-8.06 8.91-16.84 11.78-26.01 3.77-12.04 7.78-24.01 11.72-36 .22-.66.66-1.25.98-1.83 9.48 1.57 16.87 8.72 18.19 17.96.79 5.5.99 11.09 1.5 16.64.04.49.38.95.58 1.42-.35 1.94-.7 3.89-1.06 5.83-1.77 1.93-2.61 4.13-2.06 6.75-.56.81-1.26 1.56-1.62 2.45-4.43 10.96-10.53 20.85-18.34 29.75-5.7 6.49-10.94 13.39-16.76 19.77-10.9 11.95-23.2 22.31-38.27 28.51-7.58 3.12-15.83 4.74-23.88 6.57-6.32 1.43-12.79 2.21-19.21 3.11-4.71.66-8.7 2.12-10.68 6.98-.59 1.46-1.77 2.7-2.71 4.01-3.48 4.85-3.33 7.24 1.16 11.13 3.25 2.82 6.68 5.44 10.17 7.97 11.08 8.01 21.68 16.79 34.12 22.7 6.49 3.08 13.15 5.85 19.89 8.35 9.59 3.57 19.27 6.9 29 10.06 5.46 1.77 11.11 2.94 16.63 4.52 2.06.59 4.41 1.13 5.91 2.49 2.98 2.7 5.86 2.54 9.34 1.35 6.98-2.38 14.17-4.15 21.08-6.69 8.74-3.22 15.93-9.14 23.06-14.89 11.2-9.04 22.27-18.28 32.89-27.97 8.01-7.31 14.15-16.38 19.36-25.84 6.85-12.45 13.06-25.25 19.51-37.92.39-.77.49-1.7.73-2.55 1.34-3.14 2.68-6.28 4.01-9.42 8.54-17.82 12.89-36.68 13.39-56.38.32-12.8.31-25.61.16-38.41-.05-4.1-.84-8.24-1.66-12.28-2.39-11.83-4.96-23.62-7.47-35.43-.41-1.94-.68-3.92-1.31-5.79-3.33-9.83-4.84-20.05-5.32-30.29-.63-13.62-.43-27.3 2.27-41.29 2.91 1.95 3.15 4.7 3.7 7.2 1.58 7.22 2.76 14.54 4.6 21.7 4.6 17.98 9.66 35.82 18.16 52.47 4.83 9.47 9.07 19.25 12.05 29.46 1.5 5.16 2.32 10.56 2.96 15.91 1.97 16.54 2.31 33.16-.29 49.62-1.6 10.12-4.3 20.07-9.14 29.31-7.42 14.16-11.57 29.47-15.26 44.92-1.51 6.31-3.23 12.57-4.97 18.82-2.35 8.43-8 14.79-13.57 21.17-1.4 1.6-2.93 3.08-4.17 4.37.55 2.72 2.14 2.61 3.85 2.71 9.13.57 17.98-1.05 26.7-3.45 10.28-2.83 20.04-6.88 29.38-12.17 6.11-3.46 11.14-7.98 15.66-13.11 8.33-9.45 16.54-19.02 24.55-28.74 7.12-8.65 16.31-14 26.55-17.97 4.36-1.69 8.75-3.46 12.78-5.79 3.7-2.14 7.16-4.83 10.34-7.71 4.94-4.47 7.59-9.98 6.23-16.94-.27-1.35.14-2.87.37-4.29 2.25-14.01 1.87-28.04.34-42.08-.21-1.91-.29-3.83.59-5.95.5 1.45 1.11 2.88 1.48 4.37 3.85 15.18 7.7 30.37 11.49 45.57 3.44 13.79 6.6 27.64 10.25 41.37 5.27 19.82 10.72 39.6 16.37 59.31 3.77 13.13 8.13 26.09 12.03 39.18 2.37 7.95 4.43 15.99 6.52 24.01 4.69 17.95 9.06 35.98 14.08 53.84 2.67 9.52 5.99 18.91 9.77 28.04 7.29 17.61 15.28 34.94 22.66 52.51 5.15 12.25 9.76 24.73 14.63 37.1.57 1.44 1.3 2.82 3.13 4.29.64-1.56 1.44-3.08 1.87-4.69.8-2.96 1.51-5.95 2.02-8.97.67-4.03.62-7.74-.87-11.98-3.18-9.07-7.59-17.45-11.79-26.01-4.57-9.32-8.31-19.06-12.43-28.6-4.42-10.23-8.86-20.45-13.29-30.68-5.04-11.65-7.44-24.03-10.2-36.32-2.09-9.31-4.3-18.61-7.01-27.75-2.92-9.82-6.57-19.42-9.74-29.17-3.16-9.74-6.08-19.57-9.16-29.34-3.04-9.62-6.42-19.14-9.18-28.84-2.86-10.03-5.63-20.14-7.59-30.37-3.93-20.54-8.36-40.93-14.67-60.88-2.82-8.92-5.28-17.95-7.98-26.9-1.16-3.85-2.53-7.63-3.18-11.63 3.77 6.32 7.54 12.64 11.31 18.96 1.84 3.08 9.81 5.57 14.22 4.58 11.95-2.67 22.02-8.25 30.14-17.7 6.8-7.92 14.14-15.41 21.64-22.69 4.64-4.5 9.92-8.37 15.09-12.3 10.93-8.29 19.46-18.64 26.42-30.35 1.18-1.98 2.1-4.28 2.47-6.54 1.27-7.83 2.4-15.64 1.03-23.66-1.94-11.33-.48-22.68.76-33.98.84-7.68 1.69-15.36 2.6-23.62-1.72.32-3.26.42-4.67.9-6.3 2.13-12.58 4.33-18.84 6.59-15.69 5.65-31.7 9.87-48.49 9.84-7.54-.02-15.16-.41-22.58-1.64-13.14-2.18-23.48-9.75-32.76-18.89-6.65-6.55-12.91-13.42-17.94-22.69 2.66.22 4.56.09 6.29.58 5.72 1.63 11.39 3.45 17.05 5.26 13.71 4.39 27.32 9.09 41.13 13.13 10.12 2.96 20.46 4.08 30.93.81 4.08-1.27 8.56-1.18 12.71-2.28 10.9-2.9 20.16-8.66 27.78-16.99 5.22-5.7 10.44-11.4 15.57-17.17 3.44-3.87 6.74-7.87 10.1-11.81 3-3.51 3.59-7.64 3.63-12.12.09-11.88.43-23.77.74-35.65.62-23.26 1.41-46.52 1.91-69.78.34-15.66-4.95-30.12-10.36-44.48-2.6-6.91-5.35-13.76-8.13-20.59-.78-1.92-1.93-3.69-3.22-6.13-.99 1.41-1.98 2.21-1.85 2.74 1.65 7.05-1.55 13.16-3.83 19.35-2.94 8.01-7.51 15.02-13.39 21.37-5.86 6.32-10.79 13.49-16.3 20.15-12.88 15.55-25.74 31.14-40.25 45.21-8.84 8.58-18.68 15.83-30.24 20.58-8.56 3.52-16.16 2.39-23.41-3.62 1.84-6.81 4.65-13.26 8.52-19.1 6.06-9.15 12.68-17.92 18.89-26.97 4.78-6.96 11.15-12.32 17.56-17.54 12.99-10.58 26.44-20.59 39.41-31.19 10.83-8.85 20.66-18.82 25.3-32.43 4.2-12.32 7.3-24.96 6.3-38.2-.15-1.98-.62-4.03-.26-5.93.98-5.25-1.72-8.77-4.79-12.49-8.48-10.28-16.95-20.59-24.95-31.23-4.21-5.6-7.43-11.94-11.15-17.91-3.52-5.66-7.11-11.27-10.68-16.9-.48-.76-1.13-1.46-1.43-2.29-3.93-10.84-12.92-15.35-23-18.57-6.02-1.92-12.01-3.92-17.97-6.03-9.44-3.34-18.12-7.96-25.23-15.23-2.55-2.61-4.91-2-5.86 1.55-.5 1.87-.61 3.95-.43 5.9 1.07 11.3 2.1 22.62 3.5 33.88 1.2 9.65-.44 19.03-1.91 28.45-1.67 10.71-4.02 21.27-9.48 30.76-4.58 7.96-9.28 15.89-14.58 23.37-6.13 8.64-12.55 17.15-19.63 24.99-6.48 7.18-13.43 14-21.22 19.92-8.16 6.21-16.27 12.58-23.73 19.6-6.26 5.89-11.5 12.87-17.3 19.26-7.6 8.37-12.68 18.34-17.93 28.17-2.27 4.25-4.21 8.79-5.55 13.41-3.7 12.8-7.47 25.62-10.26 38.64-1.25 5.85-.32 12.19-.18 18.3.02.81.53 4.03 1.02 6.41-1.76-1.49-3.53-2.96-5.31-4.42-1.19-4.4-8.35-32.9.37-49.36.74-.26 1.59-1.03 2.71-2.35 5.01-5.87 9.88-11.84 12.44-19.42 5.84-17.3 13.65-33.78 21.87-50.05 6.65-13.17 16.28-24.2 26.48-34.67 8.3-8.52 17.09-16.56 25.54-24.95 9.09-9.02 15.56-19.64 20.01-31.74 2.46-6.7 6.23-12.98 9.91-19.14 4.7-7.89 10.64-15.11 14.68-23.3 3.47-7.02 5.01-14.99 7.41-22.53-.73-12.91-.19-25.9-3.55-38.62-2.55-9.63-8.3-16.98-14.97-23.97-7.12-7.47-16.48-10.97-25.58-14.78-16.53-6.92-32.26-15.27-47.45-24.73-12.84-8-25.77-15.85-38.69-23.72-15.96-9.72-33.17-15.82-51.82-17.74-15.24-1.57-30.49-3.1-45.71-4.9-20.3-2.4-40.11-7.17-59.77-12.66-1.04-.29-2.07-.64-3.13-.82-.5-.09-1.06.15-1.59.25-1.48 1.54-.87 2.91.25 4.3 3.28 4.07 6.33 8.35 9.84 12.21 12.1 13.3 25.03 25.89 34.85 41.14 4.27 6.63 9.02 12.96 13.62 19.39 4.6 6.43 7.04 13.86 8.67 21.36 3.47 16.02 6.77 32.12 9.09 48.35 1.36 9.55 1.26 19.42.8 29.1-.76 16-2.05 31.98-3.72 47.91-.78 7.46-2.95 14.77-4.63 22.83-4.43-3.33-7.12-6.75-7.3-11.53-.2-5.59.13-11.19-.09-16.77-.59-15.67-.74-31.39-2.19-46.99-1.77-18.93-9.97-35.58-20.81-50.99-10.44-14.84-24.09-26.16-39.05-36.15-11.35-7.58-23.42-13.53-36.46-17.53-5.85-1.8-11.8-3.32-17.63-5.19-8.4-2.69-16.78-5.5-25.09-8.46-2.17-.77-4.35-1.99-6.04-3.53-3.18-2.89-6.6-2.5-10.15-1.42-6.49 1.98-12.95 4.07-19.41 6.16-8.9 2.88-17.73 5.98-26.69 8.65-12.09 3.6-24.27 6.86-36.4 10.31-4.33 1.23-8.61 2.68-12.96 3.85-2.32.63-3.24 1.98-3.16 4.8 4.95 2.52 9.89 5.45 15.14 7.63 8.49 3.51 17.24 6.41 25.78 9.81 4.5 1.79 8.82 4.06 13.2 6.18 10.57 5.11 20.57 11.1 29.6 18.69 13.47 11.31 17.68 25.77 14.42 42.57-1.67 8.61-2.23 17.2-1.35 25.84.35 3.47 1.5 7.14 3.29 10.11 2.77 4.6 6.39 8.69 9.67 12.98 1.81 2.37 3.65 4.7 5.13 7.35-8.89-6.75-17.62-13.61-23.71-23.15-4.56-7.14-8.84-14.46-13.58-21.48-11.06-16.4-25.26-29.48-42.4-39.39-4.52-2.61-8.82-5.62-13.3-8.3-11.37-6.78-23.39-12.33-36.3-15.18-9.83-2.17-19.97-3.24-30.03-3.93-3.69-.26-7.71 1.6-11.3 3.15-5.95 2.57-11.64 5.75-17.52 8.49-1.93.9-4.11 1.3-6.2 1.82-1.92.47-3.99.52-5.77 1.27-1.32.56-2.71 1.78-3.23 3.04-.23.57 1.4 2.33 2.51 2.95 5.03 2.8 10.12 5.51 15.29 8.03 15.44 7.5 27.91 18.4 37.5 32.59 6.26 9.25 12.95 18.27 18.46 27.96 9 15.83 16.82 32.26 20.87 50.2.24 1.05.57 2.11.62 3.18.36 6.61-2.19 8.93-8.47 6.9-8.05-2.61-16.18-5.29-23.74-9.03-4.16-2.06-7.6-6.03-10.65-9.73-2.96-3.58-5.43-7.71-7.39-11.94-4.37-9.39-10.15-17.88-16.2-26.18-4.54-6.23-10.92-9.93-18.63-10.86-5.62-.68-10.67-2.28-15.76-5.06-4.21-2.3-9.77-3.48-14.55-3.07-10.02.87-19.97 3.04-28.99 7.89-3 1.62-5.96 3.52-8.49 5.78-12.62 11.26-26.97 19.78-41.72 27.9-10.57 5.82-21.2 10.74-33.3 11.99-1.62.17-3.26.53-3.42 3.14 6.61 2.95 11.88 7.78 15.61 14.06 1.81 3.04 3.31 6.44 4.09 9.87.62 2.72 1.91 4.27 4.26 5 6.19 1.9 12.41 3.75 18.68 5.35 1.84.47 3.93.13 5.89-.02 9.99-.78 19.28 1.46 28.15 6.02 3.99 2.05 8.24 3.61 12.71 5.55-.92.43-1.72 1.02-2.6 1.18-13.1 2.5-26.21 4.9-39.3 7.43-5.82 1.12-11.45 1.17-16.86-1.71-.91-.49-2.03-.58-3.17-.89-2.34 2.21-2.3 4.74-1.86 7.52 1.48 9.32 5.97 16.96 12.89 23.17 6.39 5.74 11.9 11.98 14.64 20.37.82 2.52 2.39 4.86 3.94 7.05.88 1.26 2.25 2.56 3.66 3 11.15 3.5 22.15 7.68 34.22 6.71 9.02-.73 17.74-2.23 26.34-5.39 12.17-4.48 24.68-8.05 37.05-12 .86-.28 1.8-.39 2.58-.81 10.23-5.43 21.35-4.63 32.25-4.16 8.73.38 16.7 4.26 24.68 7.62.43.18.68.78 1.47 1.75-2.74 1.04-5.13 2.34-7.68 2.83-9.72 1.88-17.86 6.73-24.96 13.31-10.7 9.91-22.53 17.4-37.34 19.17-10.73 1.29-21.46 2.57-32.21 3.7-7.54.79-14.74-1.11-21.74-3.56-10.26-3.6-19.87-8.52-28.72-14.91-3.21-2.32-6.67-4.29-10.09-6.3-1.22-.72-2.62-1.32-4.01-1.57-3.3-.59-5.1 1.06-5.15 4.47-.01.72-.06 1.47.12 2.16 2.15 8.14 3.76 16.49 6.67 24.35 3.91 10.55 6.38 21.4 8.74 32.33.3 1.41.56 2.85 1.08 4.18 4.84 12.22 9.32 24.62 15.93 36.04.81 1.39 2.4 2.59 3.91 3.26 6.26 2.76 12.57 5.4 18.96 7.84 3.86 1.48 7.81 2.96 11.86 3.66 15.32 2.65 30.7 4.47 46.19.96 10.64-2.41 21.18-5.57 30.02-11.87 8.88-6.33 17.72-13.09 23.6-22.77 1.39-2.28 3.5-4.11 5.05-6.31 6.93-9.87 13.75-19.82 20.69-29.68 1.55-2.19 3.2-4.43 5.23-6.14 7.38-6.17 12.29-14.05 16.3-22.6 2.79-5.94 4.22-6.53 9.71-3.05 1.65 1.05 3.17 3.01 3.8 4.87 3.48 10.28 4.91 21.02 6.72 31.67.75 4.44 1.52 8.88 2.44 13.28 2.08 10.03.67 19.74-2.39 29.34-.18.57-3.19 7.53-5.15 12.18-.66 1.1-1.31 2.21-1.97 3.31-8.48 14.18-18.26 27.25-32.05 36.79-5.92 4.09-11.58 8.82-18.03 11.84-19.99 9.36-40.97 15.92-62.81 19.39-9.79 1.55-19.65 2.7-29.51 3.77-2.43.26-4.98-.46-7.47-.82-2.49-.35-4.96-1.04-7.45-1.17-3.82-.19-5.46 1.79-4.3 5.31 2.42 7.32 5.08 14.56 7.65 21.82.72 2.04 1.6 4.02 2.2 6.09 2.8 9.65 7.71 18.16 13.73 26.13 6.77 8.96 11.81 18.82 14.9 29.66 1.83 6.39 3.85 12.73 5.91 19.05 1.32 4.04 4.4 6.47 8.14 8.19 12.95 5.95 26.48 7.33 40.65 6.49 10.01-.59 18.39-4.88 26.91-9.03 9.24-4.49 18.26-9.45 27.13-14.64 5.57-3.26 11.06-6.87 15.92-11.09 11.3-9.79 22.18-20.06 33.25-30.12 9.46-8.59 18.95-17.14 28.41-25.73 2.1-1.91 4.09-3.93 6.95-5.3zm-193.5-18.72c11.15-.04 22.29-.7 33.43-1.02 13.95-.4 27.63-2.34 40.71-7.35 11.92-4.57 21.99-12.18 31.61-20.34 8.28-7.02 15.11-15.4 22.15-23.64 8.18-9.58 14.32-20.23 19.3-31.65.63-1.44.44-3.24.57-4.9 3.4-4.15 4.16-9.33 5.48-14.28 2.87-10.77 4.18-21.95 8.53-32.33.94-2.24 1.26-4.87 3.77-6.02 6.15 3.77 5.21 11.44 3.09 17.22-.86 2.35-1.99 4.66-2.47 7.09-1.32 6.71-2.58 13.45-3.48 20.24-1.49 11.2-4.91 21.82-10.23 31.66-4.08 7.57-9.29 14.52-13.94 21.79-8.09 12.66-18.89 22.61-30.96 31.35-12.74 9.23-27.1 14.18-42.57 15.78-10.92 1.13-21.91 1.8-32.88 1.97-11.14.17-22.3-.48-33.44-.86-1.79-.06-3.59-.46-5.32-.92-3.99-1.05-7.96-2.19-11.91-3.4-.79-.24-1.44-.91-3.19-2.06 2.05.15 2.75.2 3.45.26 6.1.5 12.2 1.44 18.3 1.42zm-47.62-77.29c.91-.63 1.17-.97 1.43-.97 7.18.21 14.38.96 21.52.58 12.39-.66 24.84-1.37 37.07-3.33 8.12-1.3 15.78-5.09 22.3-10.46 11.36-9.36 20.95-20.29 28.47-32.98 3.3-5.58 6.19-11.45 9.93-16.71 5.64-7.91 11.73-15.52 17.89-23.04 8.26-10.11 17-19.63 29.66-24.6 5.48-2.15 10.91-3.97 16.93-3.97-6.79 3.32-12.62 7.71-17.43 13.47-.72.87-2.35 1.85-3.21 1.6-5.01-1.5-6.28 1.97-7.78 5.36-4.07 9.15-9.27 17.48-17.06 24-1.09.91-2.04 2.06-2.85 3.24-4.43 6.37-9.16 12.57-13.11 19.23-6.03 10.15-13.35 19.3-21.17 28.01-9.55 10.63-21.22 18.15-34.99 22.65-19.78 6.46-39.52 5.11-59.36.89-2.69-.57-5.22-1.86-8.24-2.97zm106.48-119.42c-1.4 1.91-1.99 3.04-2.86 3.85-7.13 6.59-14.33 13.12-21.49 19.68-2.65 2.43-5.14 5.07-7.94 7.31-8.1 6.46-17.78 9.22-27.59 11.82-15.99 4.23-31.43 3.2-46.35-4.05-2.5-1.22-4.8-2.85-7.2-4.29.13-.33.26-.66.39-.99 9.1 3.33 18.43 3.25 27.8 2.1 6.25-.76 12.46-1.88 18.72-2.52 11.3-1.16 21.98-3.98 31.23-10.9 3.72-2.78 7.52-5.49 11.05-8.51 6.9-5.89 14.54-10.31 24.24-13.5zm-136.02 1.27c.82.08 1.63.21 2.45.23 9.55.23 19.17.55 28.33-2.66 10.34-3.62 20.64-7.43 30.74-11.67 15.12-6.34 30.26-11.82 47.08-8.24 3.89.83 7.83 1.43 11.75 2.13-7.45 1.27-14.75 1.44-22.04 1.94-2.64.18-5.3.94-7.82 1.82-3.55 1.24-6.9 3.07-10.47 4.26-9.75 3.23-19.7 5.87-29.32 9.44-11.8 4.39-23.74 7.16-36.41 6.52-5.04-.25-9.79-1.28-14.31-3.78zm82.68-155.78c-1.69 2.34-3.75-.47-6.07.41 2.18 1.74 4.18 3.18 5.99 4.82 9.77 8.86 16.76 19.75 22.23 31.59 3.31 7.17 5.86 14.69 8.67 22.08 3.08 8.1 6.53 15.91 11.77 22.98 9.25 12.47 18.97 24.49 30.13 35.32 2.53 2.45 4.86 5.12 7.9 8.35-2.06-.54-3.27-.78-4.43-1.17-15.79-5.36-30.46-13.14-44.41-22.05-16.52-10.55-32.33-22.19-48.57-33.18-6.83-4.62-13.77-9.17-21.05-13-7.42-3.9-15.22-7.19-23.07-10.17-6.21-2.35-12.64-4.53-19.17-5.54-13.02-2.01-26.17-1.81-39.3-.43-7.48.78-15 1.76-23.24.29 4.91-1.97 9.31-3.44 13.43-5.46 4.84-2.37 9.39-5.33 14.17-7.84 12.82-6.73 24.71-14.82 35.79-24.12 5.45-4.57 11.28-8.38 18.28-10.12 4.36-1.08 8.8-1.95 13.07-3.34 7.21-2.35 13.95-.68 20.4 2.3 4.59 2.12 8.9 4.42 14.22 4.46 2.94.02 5.87 1.49 8.79 2.34 1.51.44 2.99.96 4.47 1.48.0.0.0.0.0.0zm-112.61 41.65c23.19-2.28 45.07 2.55 66.11 12.24 15.32 7.06 29.12 16.58 42.59 26.48 14.22 10.46 28.59 20.62 43.78 29.6 13.52 7.99 27.34 15.45 42.69 19.42 4.88 1.26 9.26 3.35 13.16 6.5-1.37.0-2.8.22-4.06-.15-17.4-4.97-33.88-12.39-50.32-19.76-24.02-10.76-47.66-22.39-71.66-33.19-17.26-7.76-34.63-15.41-52.39-21.91-15.71-5.75-32.02-9.85-48.06-14.71-1.01-.31-1.94-.87-3.71-1.68 8.02-1.06 14.93-2.17 21.88-2.85zm112.67-41.6c1.76 1.79 3.52 3.57 5.29 5.36-1.95-1.61-5.42-2-5.29-5.36zm73.81 65.82c-1.27 11.59-1.8 23.85 2.3 35.99 4.13 12.22 12.4 21.29 21.42 30-7.2-2.19-12.93-6.52-17.96-11.62-8.06-8.18-15.93-16.56-23.52-25.18-11.87-13.49-20.95-28.66-26.19-45.96-.36-1.2-.46-2.48-.69-3.73 5.6 7.03 12.53 11.22 20.73 13.68 3.43 1.03 6.7 2.65 10.15 3.62 4.43 1.25 8.97 2.11 13.76 3.21zm26.08 71.25c-.2.39-.41.77-.61 1.16-.95-.69-1.91-1.38-2.86-2.07 1.16.3 2.32.61 3.48.91zm-110.7-205.1c5.86 3.09 11.96 5.79 17.54 9.34 17.49 11.12 33.39 24.29 47.43 39.51 9.04 9.8 16.71 20.57 20.9 33.65 3.77 11.74 2.9 23.32.49 35.21-.42-1.67-.82-3.34-1.27-5.01-.7-2.6-1.19-5.3-2.19-7.78-9.37-23.3-20.55-45.63-36.3-65.37-4.81-6.02-9.95-11.83-15.4-17.27-8.12-8.11-18.29-13.31-28.22-18.8-1.26-.7-2.43-1.56-3.65-2.34.23-.37.45-.75.68-1.12zm52.16-8.93c8.52 4.28 17.13 8.41 25.43 13.09 8.61 4.85 16.88 10.29 25.3 15.48.46.28.86.68 1.35.89.48.21 1.02.25 2.37.56-10.4-9.8-22.66-15.13-33.12-23.13 8.07 3.61 15.85 7.68 23.51 11.99 11.03 6.21 21.21 13.76 30.26 22.51 8.4 8.11 16.13 16.97 23.64 25.93 8.21 9.79 15.88 20.04 23.68 30.17 8.01 10.4 16.01 20.81 23.76 31.4 4.01 5.48 7.46 11.38 11.2 17.07 4.75 7.21 9.76 14.26 14.27 21.62 7.62 12.43 14.92 25.05 22.41 37.56 1.94 3.24 4.09 6.37 6.18 9.53 5.98 9.04 13.38 16.88 21.14 24.36 3.84 3.7 8.04 7.02 12.07 10.5-1.66-.14-2.97-.71-4.21-1.42-11.03-6.33-20.44-14.77-29.67-23.34-12.68-11.77-24.2-24.64-35.66-37.63-13.38-15.17-22.99-32.7-33.33-49.76-5.46-9.02-9.3-19.08-13.34-28.89-9.73-23.59-22.4-45.18-41.28-62.71-3.52-3.27-7.04-6.54-11.49-8.48-.2.3-.4.6-.61.9.94 1.06 1.8 2.19 2.82 3.15 3.81 3.57 7.85 6.91 11.48 10.66 5.51 5.68 11.56 11.07 15.91 17.57 5.77 8.64 10.46 18.06 15.01 27.44 5.5 11.32 10.14 23.07 15.58 34.42 7.17 14.94 16.25 28.84 25.78 42.3 7.88 11.13 16.89 21.54 26.08 31.65 7.97 8.78 16.92 16.67 25.39 25.01 8.78 8.65 18.39 16.15 29.32 21.91 4.53 2.39 8.99 4.93 13.48 7.4-2.06.25-3.89.2-5.62-.26-12.37-3.3-24.77-6.56-37.08-10.08-13.52-3.87-26.82-8.64-40.48-11.9-19.82-4.73-39.89-8.43-59.85-12.6-12.33-2.58-24.83-4.77-35.16-12.82-4.39-3.42-8.88-6.77-12.94-10.55-5.69-5.3-10.53-11.29-13.95-18.43-5.65-11.81-6.9-24.2-5.51-36.96.68-6.27 2.17-12.45 2.85-18.72 1.07-9.99 2.3-19.87.26-30.06-2.87-14.32-9.98-26.2-19.26-36.87-6.6-7.59-13.95-14.55-21.32-21.41-5.52-5.14-11.29-10.14-17.53-14.35-10.19-6.87-20.86-13.03-30.81-19.16 6.58-3.21 13.75-6.82 21.03-10.21 2.37-1.1 5.11-2.54 7.5-2.26 8.05.96 15.83 3.28 23.12 6.94zm233.54-2.97c5.82 8.55 11.06 17.45 13.61 27.44 3.38 13.24 6.07 26.67 8.55 40.12 3.23 17.59 7.99 34.42 20.28 48.15.93 1.04 1.66 2.38 2.16 3.7 3.62 9.62 10.03 17.58 16.25 25.42 9.13 11.5 17.52 23.2 22.91 37.04 4.09 10.51 7.25 21.11 7.8 32.37.24 5.01.5 10.09-1.39 14.95-1.57 4.03-3.18 8.05-4.51 12.16-2.08 6.47-4.85 12.73-5.01 19.77-.2 8.46.53 16.7 4.26 25.64-22.64-10.28-45.62-16.02-68.77-21.66.64-.94 1.04-1.53 1.77-2.6-3.46-2.63-6.57-5.06-9.76-7.39-12.56-9.17-24.76-18.86-33.88-31.56-8.4-11.7-15.99-23.99-23.65-36.2-7.45-11.88-14.27-24.16-21.87-35.93-7.62-11.79-15.77-23.24-23.89-34.7-4.98-7.02-10.25-13.83-15.55-20.61-4.21-5.38-8.66-10.56-13-15.83-7.76-9.44-15.42-18.96-23.3-28.3-5.95-7.04-13.25-12.59-20.42-18.36-11.87-9.56-25.03-16.78-38.39-23.82-7.04-3.71-14.59-6.01-22.03-8.66-4.05-1.45-8.03-3.09-12.04-4.65 14.08-1.28 26.71 3.6 38.63 9.31 16.99 8.13 33.55 17.31 48 29.77 11.05 9.53 20 20.71 27.38 33.19 6.05 10.23 11.98 20.43 21.37 28.18 6.61 5.46 12.77 11.47 19.51 17.59.24-1.29.85-2.43.53-3.16-1.31-2.95-2.59-6.01-4.47-8.59-3.19-4.35-6.68-8.51-10.31-12.5-5.65-6.21-9.6-13.12-9.57-21.74.02-5.39.3-10.78.66-16.15.46-6.82 1.72-13.64 1.55-20.43-.22-8.66-3.43-16.46-9.46-22.98-11.64-12.58-26.2-20.85-41.55-27.73-10.85-4.86-22.15-8.72-33.16-13.26-4.22-1.74-8.42-3.75-12.06-7.8 2.46-1.05 4.34-2.09 6.34-2.67 8.3-2.42 16.66-4.62 24.94-7.06 5.86-1.73 11.64-3.72 17.47-5.58 8.22-2.63 16.38-5.48 24.68-7.82 7.43-2.1 14.99-3.78 22.55-5.33 1.74-.36 3.88.24 5.58.98 3.61 1.57 6.96 3.74 10.59 5.27 8.77 3.69 17.8 6.8 26.42 10.79 7.82 3.62 15.52 7.66 22.78 12.3 16.21 10.36 30.53 22.85 41.48 38.93zm43.7 109.95c-2.17-7.56-6.11-14.5-6.79-22.62-.73-8.77-2.66-17.44-3.75-26.19-2.93-23.45-10-45.18-24.33-64.44-9.95-13.38-22.3-23.91-35.7-33.44-4.2-2.99-8.58-5.75-12.87-8.61.2-.33.4-.65.59-.98 10.43 3.56 19.83 9.09 28.78 15.45 12.68 9.01 24.16 19.12 33.51 31.82 13.9 18.87 21.43 39.84 22.8 63.03.71 12.04.58 24.13.68 36.19.04 4.35-.35 8.71-.54 13.06-1.3-1.04-2.05-2.1-2.39-3.27zm-6.77-6.99c-3.44-6.11-6.88-12.28-8.43-19.18-2.76-12.29-5.76-24.57-7.62-37.02-3.71-24.79-14.88-45.71-31.45-64.06-2.97-3.28-6.16-6.36-9.25-9.54 2.47 1.2 4.54 2.86 6.6 4.52 6.36 5.1 11.44 11.35 16.73 17.51 12.06 14.04 19.1 30.39 23.4 48.04 1.91 7.84 2.61 15.97 3.94 23.95 1.98 11.87 4.04 23.72 6.09 35.77zm16.15-137.99c2.4 4.62 4.69 9.3 6.39 14.17 3.98 11.39 7.97 22.79 11.42 34.35 4.54 15.21 8.29 30.66 9.88 46.48 2.35 23.42.41 46.84-.58 70.25-.47 10.98-.86 21.94 1.63 32.78.5 2.19.52 4.49.89 7.91-1.74-2.51-2.78-3.93-3.73-5.41-3.01-4.68-5.61-9.69-9.09-13.99-4.04-5-6.73-10.65-9.21-16.4-1.97-4.56-2.83-9.3-1.16-14.46 1.54-4.78 2.35-9.84 3.03-14.83 3.3-24.36 4.28-48.85 3.49-73.4-.14-4.31-.62-8.64-1.38-12.88-3.28-18.29-5.88-36.73-11.56-54.57zm35.64 88.51c.06 1.07.09 2.13.2 3.19 1.47 15.02 4.19 29.89 3.82 45.14-.25 9.99-2.17 19.66-3.29 29.47-.61 5.34-1.59 10.64-2.54 15.93-.68 3.77-1.58 7.51-2.38 11.26-1.02-4.11-1.76-8.34-1.68-12.55.37-17.12.98-34.23 1.52-51.35.19-6.12.86-12.26.52-18.34-.66-11.66-1.34-23.34-4-34.8-1.63-7.01-2.62-14.17-4.51-21.1-2.47-9.02-5.51-17.88-8.38-26.79-1.03-3.2-2.26-6.34-3.41-9.51-1.95-5.37-3.49-10.95-5.98-16.06-3.98-8.19-8.28-16.26-13.03-24.01-4.4-7.18-9.59-13.88-14.41-20.8-2.34-3.35-4.65-6.71-6.97-10.07 3.37 2.87 6.53 5.86 9.12 9.28 7.29 9.62 14.96 19.04 21.33 29.26 5.88 9.43 10.67 19.61 15.19 29.8 3.56 8.03 6.3 16.47 8.82 24.91 2.2 7.35 3.59 14.95 5.36 22.44.86 3.63 1.74 7.25 2.63 10.87.59 3.93 1.46 9.42 2.22 14.33-.05-.16-.1-.32-.15-.49zm-40.32-98.36c-15.84-22.21-32.31-43.91-51.61-63.3 22.02 17.18 37.08 40.03 51.61 63.3zm78.6 282.67c1.27-5 3.11-10.14 5.92-14.41 6.01-9.15 12.3-18.23 19.43-26.51 9.38-10.9 19.55-21.13 29.63-31.41 13.86-14.15 27.71-28.29 39.49-44.27 4.59-6.23 9.06-12.54 13.62-18.79 3.6-4.93 7.46-9.69 10.83-14.78 4.86-7.33 11.15-12.96 19.38-16.61-2.25 3.66-4.2 7.56-6.82 10.95-7.47 9.67-12.86 20.42-16.76 31.89-2.94 8.65-8.69 15.4-14.67 21.71-12.6 13.31-26.52 25.35-38.22 39.55-6.07 7.36-11.83 14.91-15.93 23.61-2.52 5.36-5.46 10.52-7.85 15.93-4.94 11.19-9.9 22.39-14.34 33.79-2.75 7.05-7.42 12.44-12.84 18.55-2.47-3.21-4.28-6.1-6.61-8.49-5.88-6.06-6.11-13.33-4.25-20.7zm90.2-115.6c-10.63 14.4-23.08 27.13-35.64 39.8-8.75 8.83-17.73 17.48-25.83 26.88-8.33 9.66-15.71 20.14-23.52 30.25-.4.51-.92.93-1.38 1.39-.07-1.11.18-1.97.65-2.69 4.88-7.33 9.45-14.9 14.78-21.89 6.87-9.01 14.04-17.84 21.68-26.2 7.29-7.97 15.68-14.93 23-22.86 11.49-12.44 22.47-25.35 33.7-38.03 1.77-2 3.72-3.84 5.58-5.76.33.26.65.53.98.79-4.68 6.1-9.45 12.14-14.02 18.32zm-82.34 194.8c-10.5-8.43-21.45-16.25-33.44-22.62-1.27-.68-2.53-1.45-3.88-1.91-6.87-2.33-10.35-7.75-12.16-14.17-2.89-10.26-3.08-20.63.54-30.86 2.23-6.29 4.57-12.55 6.61-18.9 1.98-6.15 1.27-12.49.84-18.8-.26-3.83-1.47-7.51-.11-11.58.75-2.24-.54-5.29-1.29-7.87-4.31-14.85-4.54-29.89-2.37-45.06 1.58-11.05 3.29-22.08 4.76-33.15 1.82-13.69.94-27.3-1.78-40.82-.69-3.43-1.04-6.94-1.73-10.37-.36-4.78-1.84-12.33-3.08-18.17-.61-4.95-1.13-9.92-2.11-14.8-1.56-7.75-3.42-15.47-5.61-23.07-3.32-11.55-6.9-23.05-12.58-33.71-7.87-14.78-15.96-29.4-26.22-42.79-8.57-11.19-18.14-21.34-28.32-30.99-2.34-2.22-5.14-3.94-7.64-5.99-1.57-1.28-2.99-2.73-3.99-4.88 8.05 1.77 16.08 3.68 24.17 5.27 13.98 2.73 28.01 4.99 42.26 6.05 12.75.95 25.49 2.29 38.13 4.2 13.27 2.01 25.8 6.68 37.38 13.52 13.95 8.25 27.71 16.83 41.64 25.1 14.25 8.46 28.46 16.99 43.81 23.41 6.65 2.78 13.51 5.38 19.55 9.2 8.67 5.48 16.18 12.26 21.32 21.65 5.51 10.08 6.18 20.9 7.26 31.83 1.11 11.28-2.26 21.75-5.27 32.32-1.15 4.04-4.36 6.05-7.77 7.79-7.09 3.63-14.14 7.3-19.23 13.72-3.47 4.37-6.7 8.94-10.31 13.2-9.32 11-18.65 22.01-28.25 32.77-9.7 10.87-19.22 22-29.78 32-9.19 8.7-17.67 17.95-25.45 27.82-7.21 9.15-14.67 18.16-20.33 28.5-5.82 10.62-7.75 22.03-7.71 33.8.01 2.72 2.71 5.51 4.42 8.11 2.38 3.62 5.06 7.04 7.5 10.62.55.81 1.03 1.45 1.47 1.92-7.82 15.08-3.45 38.51-1.27 47.7zm209.96-270.14c.01 3.46 2.12 6.86 2.47 10.38.81 8 1.32 16.05 1.57 24.09.28 8.82.41 17.65.12 26.46-.64 19.84-4.91 38.89-13.32 56.93-3.42 7.34-6.65 14.84-10.87 21.71-5.83 9.48-12.23 18.66-18.91 27.57-10.95 14.61-20.08 30.33-29.35 45.99-9.04 15.26-20.46 28.65-32.13 41.94-11.34 12.91-25.29 21.95-40.23 29.64-10.06 5.18-20.58 9.58-31.93 11.42-1.57.25-3.06 1.01-5.06 1.69-5.83-5.08-11.75-10.28-17.72-15.43-1.49-1.29-2.99-2.57-4.49-3.85-.03-2.23-.11-7.39-.24-8.54-1.72-15.69 3-30.32 7.27-45.05 8-27.58 23.47-50.63 43.69-70.49 8.58-8.43 18.72-15.26 28.03-22.97 11.14-9.23 21.14-19.49 28.8-31.92 3.86-6.26 8.29-12.17 12.41-18.27 2.51-3.72 4.92-7.5 7.37-11.25 6.43-9.85 9.44-20.89 11.96-32.26 3.17-14.31 2.88-28.56 1.43-42.97-.7-6.96-.76-13.98-.96-20.98-.05-1.75.47-3.51.78-5.69 2.5 1.66 4.83 2.95 6.87 4.61 5.3 4.32 11.58 6.5 17.88 8.74 8.16 2.9 16.29 5.89 24.38 8.97 2.17.83 4.18 2.12 6.23 3.23 2.49 1.35 3.91 2.94 3.92 6.31zm-80.54 343.03c-3.21-.3-6.45-.16-9.66-.47-17.95-1.72-34.35-8.43-49.81-17.07-8.72-4.87-16.28-11.84-24.31-17.92-1.62-1.22-3-2.75-5.35-4.93 12.21-.7 23.14-1.35 34.11.0 2.84.35 5.74.66 8.59.49 18.56-1.1 36.78-3.95 54.76-8.98 18.55-5.18 36.05-12.72 52.82-21.87 12.95-7.07 24.82-15.85 36.13-25.53 10.74-9.19 20.61-19.03 29.33-30.04 2.98-3.76 7.05-6.94 8.12-12.04 3.62-3.03 6.25-6.65 6.83-11.49-2.27 3.82-4.55 7.64-6.82 11.46.01-.07.04-.14.05-.21-1.12 1.15-2.37 2.2-3.35 3.46-12.97 16.73-27.19 32.13-44.3 44.86-14.25 10.6-29.14 19.95-45.37 27.11-16.85 7.43-34.21 13.24-52.39 16.61-16.18 3-32.3 5.39-48.77 2.83-2.98-.46-6.04-.42-9.07-.61 1.56-1.22 3.18-2.12 4.87-2.27 8.41-.76 16.05-4.03 23.73-7.12 9.42-3.79 18.26-8.6 25.5-15.95 11.57-11.74 21.54-24.72 29.75-39 7.48-13 15.27-25.82 25.82-36.55 8.41-8.54 12.73-19.53 19.11-29.28.4-.61.33-1.52.42-2.32 2.5-1.72 4.3-3.87 4.45-7.04 2.49-1.7 4.42-3.75 4.4-7.01 3.49-2.82 5.07-6.64 5.7-10.96-1.9 3.62-3.8 7.23-5.7 10.85.0-.02.0-.04.0-.06-1.46 2.36-2.93 4.72-4.39 7.08.0-.03.0-.06.0-.09-1.48 2.4-2.97 4.8-4.45 7.2.0-.06.01-.12.02-.19-1.66 2.32-3.36 4.61-4.99 6.95-4.81 6.94-8.99 14.42-14.5 20.74-9.96 11.44-19.41 23.16-26.73 36.48-1.82 3.31-3.45 6.8-5.71 9.79-6.94 9.18-13.99 18.29-21.3 27.18-6.36 7.73-14.3 13.54-23.41 17.77-10.52 4.87-21.41 8.49-32.89 10.28-3.49.54-6.95 1.22-10.43 1.83.66-1.33 1.52-1.85 2.44-2.24 9.26-4 18.67-7.59 27.28-13.05 10.52-6.68 21.02-13.34 29.34-22.78 6.18-7.02 11.9-14.46 18.08-21.48 9.96-11.31 17.01-24.51 24.87-37.2 3.79-6.12 7.53-12.29 11.54-18.26 10.02-14.92 21.99-28.5 30.1-44.75 5.55-11.11 11.18-22.16 15.14-33.95 6.27-18.71 7.6-38.09 7.54-57.64-.02-5.79.06-11.59.09-17.38 4.92 12.72 6.14 25.85 5.99 39.17.44-1.16 1.26-2.32 1.25-3.47-.02-5.76.47-11.65-.55-17.25-2.41-13.26-5.58-26.39-8.42-39.57-.21-.98-.28-2-.57-4.17 1.26 2.5 1.87 3.98 2.7 5.32 5.41 8.73 10.68 17.56 16.35 26.12 5.26 7.93 10.77 15.72 16.52 23.3 4.68 6.16 9.96 11.86 14.8 17.89 1.41 1.76 2.88 3.88 3.22 6.01.76 4.78 1.09 9.67 1.12 14.52.08 11.31-2.4 22.23-6.37 32.72-2.67 7.04-6.03 13.82-11.65 19.27-5.55 5.37-10.49 11.38-17.23 15.44-1.67 1.01-3 2.58-4.53 3.83-8.39 6.82-16.54 13.97-25.25 20.34-8.64 6.32-16.78 13.05-23.12 21.72-5.41 7.39-10.68 14.89-15.89 22.42-5.77 8.32-9.85 17.48-13.24 27.12 3.35 1.48 6.46 2.87 9.59 4.24 5.07 2.23 10.14 2.06 15.27.08 13.02-5.02 24.13-13.02 33.96-22.66 16.35-16.03 31.04-33.59 45.66-51.19 4.26-5.12 8.38-10.35 12.42-15.65 3.26-4.28 6.52-8.58 9.35-13.14 2.01-3.23 3.31-6.91 4.92-10.38.47 2.32.41 4.47.06 6.56-1.95 11.67-5.86 22.68-11.18 33.22-.51 1.01-.6 2.24-.88 3.37 2.13-3.51 4.78-6.82 6.3-10.58 4.32-10.73 7.4-21.85 9.06-33.33.2-1.36.65-2.68 1.28-5.2 3.23 7.68 6.09 14.21 8.7 20.83 1.25 3.16 2.11 6.49 3.03 9.78 1.31 4.65 2.94 9.27 3.7 14.02 2.13 13.26 1.42 26.63.94 39.97-.43 11.89-1.1 23.77-1.56 35.65-.3 7.71-.34 15.44-.62 23.15-.21 5.76-1.2 11.56-.78 17.26.67 9.19-3.49 15.9-9.44 22.04-1.75 1.81-3.55 3.57-5.22 5.45-3.84 4.3-7.5 8.77-11.45 12.97-10.05 10.69-21.91 18.04-36.92 19.34-1.25.11-2.54.26-3.73.65-9.67 3.19-19.31 2.18-28.78-.58-13.67-3.98-27.24-8.33-40.82-12.61-5.85-1.84-11.57-4.09-17.45-5.83-3.58-1.06-7.35-1.48-11.03-2.19-2.25-.43-4.48-1.04-6.75-1.25zm148.17 100.64c-2.34-1.63-4.46-3.26-6.74-4.64-4-2.42-7.85-5.54-12.21-6.83-13.27-3.94-26.33-8.76-40.14-10.7-3.08-.43-6.19-.67-9.29-.99-4.38-2.66-9.25-3.23-14.23-3.36-4.64-1.46-9.27-2.93-13.91-4.38-6.48-2.02-12.96-4.02-19.46-5.99-.42-.13-.93.05-1.41.11-2.22-1.34-4.37-2.81-6.68-3.96-4.98-2.48-10.03-4.8-15.08-7.13-.51-.23-1.14-.19-1.75-.22-.45-.51-.84-1.12-1.39-1.49-4.61-3.12-9.33-6.06-13.85-9.3-5.41-3.88-10.73-7.89-15.93-12.04-7.44-5.94-14.76-12.04-22.08-18.13-1.86-1.55-3.52-3.36-5.27-5.05 5.27 2.2 9.98 5.11 14.79 7.82 5 2.82 10.02 5.65 15.2 8.13 4.81 2.3 9.84 4.15 14.77 6.2-.48-1.49-1.33-2.14-2.28-2.54-13.54-5.62-26.14-12.95-38.21-21.21-4.13-2.83-8.96-5.01-12.27-8.59-6.21-6.7-11.55-14.2-17.34-21.49 33.49 21.27 52.41 27.01 79.23 27.77 11.03 15.14 22.81 30.04 39.11 40.82-4.27-.97-8.55-1.93-12.82-2.9-.1.39-.21.79-.31 1.18 4.73 1.54 9.49 2.98 14.17 4.64 4.26 1.51 8.79 1.1 13.04 1.98 17.29 3.58 34.49 2.64 51.52-.88 9.47-1.96 18.61-5.51 27.91-8.32 5.08-1.54 10.16-3.03 16.11-4.81-.59 6.74-.97 12.61-1.65 18.44-1.55 13.28-2.89 26.55-.54 39.89.45 2.55.87 5.24-1.03 7.97zm-169.4-59.84c-5.64-5.08-10.39-11.15-15.53-16.78.28-.29.56-.57.84-.86 3.71 2.73 7.52 5.33 11.12 8.2 9.01 7.21 18.24 14.08 28.3 19.78 1.11.63 2.4.96 3.63 1.4-.02.0-.05.0-.08.0 3.18 1.93 6.21 4.17 9.56 5.73 4.58 2.13 9.39 3.77 14.11 5.61.0.0-.01.0-.02.0 3.4 1.5 6.71 3.28 10.23 4.42 6.47 2.09 13.05 3.88 19.62 5.62 1.58.42 3.32.2 5 .24 4.41 2.55 9.28 3.19 14.26 3.37 1.22.52 2.41 1.19 3.68 1.48 5.96 1.38 12.02 2.38 17.9 4.01 8.3 2.29 16.56 4.81 24.69 7.63 3.29 1.14 6.81 2.3 9.59 5.04-7.66-1.12-14.93-2.26-22.22-3.2-1.45-.19-2.99.33-4.49.54-1.58-.47-3.13-1.07-4.75-1.33-13.47-2.23-27.04-3.97-40.41-6.7-16.82-3.44-32.83-9.5-48.2-17.12-4.17-2.07-8.41-4.2-12.09-7-8.45-6.43-16.85-12.98-24.73-20.09zm14.68 18.16c-1.86-2.14-3.73-4.29-6.21-7.14 3.47 2.06 5.94 3.74 6.21 7.14zm41.44 123.42c-3.49-6.63-8.01-12.89-9.04-20.63-.07-.51-.36-1.06-.7-1.45-3.78-4.24-5.33-9.23-5.18-14.84.02-.88-.29-1.77-.47-2.66-2.94-14.53-7.4-28.56-13.74-41.98-7.54-15.97-15.72-31.59-24.89-46.68-3.38-5.55-6.82-11.06-10.88-17.64 8.44 8.84 16.17 16.58 23.48 24.7 7.93 8.81 17.57 14.72 28.59 18.73 1.61.58 2.25.35 2.86-.88-7.64-2.44-14.8-5.87-21.11-10.83-3.6-2.83-6.89-6.06-10.29-9.16 2.34-2.63 3.8.39 5.26 1.19 4.71 2.59 8.99 5.99 13.78 8.4 11.07 5.56 22.25 10.96 34.43 13.77 10.82 2.5 21.65 4.99 32.53 7.2 7.2 1.46 14.49 2.52 21.77 3.53 2.56.35 5.22.0 7.83-.05 4.5.96 8.99 1.93 13.49 2.89-.02.26-.05.51-.07.77-8.45.11-16.91.22-25.36.33 1.47 1.16 2.97 1.42 4.47 1.48 8.81.35 17.63.49 26.43 1.01 7.21.42 14.26 1.66 20.22 5.78.52 5.62-1.36 10.29-4.08 14.63-6.85 10.93-15.23 20.46-25.57 28.3-5.44 4.12-10.79 8.45-15.66 13.22-8.35 8.17-16.33 16.71-24.38 25.18-5.52 5.8-12.33 9.45-19.87 11.51-4.86 1.33-10.42 1.9-14.25-2.25-3.73-4.05-7.04-8.68-9.6-13.55zm-44.41 77.93c-.48-3.61-1.16-6.81-1.29-10.03-.59-14.6-1.11-29.2-1.48-43.8-.38-14.96-.04-29.95-.99-44.87-.98-15.43-2.8-30.83-4.9-46.15-1.24-9.05-3.84-17.9-5.65-26.88-2.65-13.13-6.94-25.73-12.69-37.77-4.72-9.88-10.13-19.44-15.23-29.14 3.23 4.27 5.85 8.92 8.68 13.44 9.74 15.57 19.65 31.05 27.37 47.78 3.61 7.84 7.64 15.58 10.32 23.75 6.3 19.24 14.08 38 19.08 57.66 1.05 4.14 1.44 8.46 1.95 12.73.38 3.21.52 6.45.69 9.68.52 9.89 1.35 19.78 1.37 29.67.01 7.34-.84 14.72-1.75 22.02-.31 2.53-1.54 5.19-3.04 7.29-5.48 7.7-13.93 10.95-22.44 14.61zm-5.85 2.45c-.45-1.58-.8-2.42-.91-3.29-1.13-8.92-2.43-17.82-3.27-26.76-1.33-14.17-2.59-28.35-3.44-42.55-.83-13.83-.92-27.7-1.67-41.54-.54-9.89-1.38-19.78-2.56-29.61-1.35-11.25-4.42-22.16-7.01-33.19-2.53-10.75-5.87-21.19-10.29-31.13-5.28-11.89-11.98-23.16-18.08-34.68-1.17-2.21-2.23-4.51-3.67-6.53-5.49-7.71-10.93-15.48-16.74-22.95-7.49-9.63-15.31-19-23-28.47-1.5-1.85-3.03-3.69-4.54-5.53 2.47 1.64 4.59 3.55 6.54 5.62 8.54 9 16.69 18.41 25.63 26.98 7.74 7.42 13.55 16.21 19.04 25.1 6.29 10.19 12.76 20.31 18.19 31.09 5.62 11.16 9.54 22.87 13.23 34.66 2.56 8.2 3.94 16.78 5.66 25.23.89 4.4 1.46 8.86 2.02 13.32 1.25 9.98 2.8 19.95 3.52 29.97 1.37 19.02 1.7 38.07 1.24 57.17-.36 14.76.75 29.56 1.44 44.33.17 3.74.45 7.58 2.03 11.21-.93.44-1.87.87-3.36 1.57zm-119.21-222.97c3.22-31.82 2.63-63.04-7.5-93.62 1.12 1.15 1.7 2.42 2.27 3.69 2.65 5.9 5.3 11.81 7.95 17.71-.07-1.26.03-2.58-.4-3.7-3.78-9.73-7.79-19.34-13.51-28.16-1.99-3.06-3.67-6.32-5.49-9.48 1.62.09 2.71.64 3.65 1.38 15.99 12.65 30.17 27.1 42.41 43.39 5.22 6.95 9.82 14.36 14.56 21.66 3.61 5.57 7.12 11.22 10.44 16.97 2.76 4.78 5.46 9.64 7.69 14.68 2.98 6.72 5.46 13.66 8.18 20.5 1.1 2.76 2.27 5.49 3.41 8.23-2.75-13.07-8.18-25.13-13.81-37.02-5.76-12.16-12.76-23.63-20.63-34.69-7.58-10.65-16.2-20.4-24.17-30.7.87.15 1.55.45 1.98.96 9.98 11.77 20.37 23.23 29.76 35.46 9.5 12.39 18.38 25.25 26.36 38.76 7.53 12.76 14.09 25.9 18.88 39.85 3.26 9.5 5.6 19.31 8.29 29 1.11 3.98 2.58 7.95 2.98 12.02 1.26 13.06 4.84 25.84 4.18 39.14-.29 5.9.69 11.86.93 17.8.59 14.74.65 29.51 1.72 44.2 1.28 17.59 3.32 35.13 5.18 52.67.3 2.83-.73 4.09-3.08 5.48-3.68 2.18-7.44 4.58-10.32 7.68-9.19 9.9-18.05 20.11-26.92 30.29-6.41 7.37-13.02 14.16-22.12 18.62-12.77 6.26-25.93 10.84-39.94 12.92-3.43.51-7 .09-11.73.1 2.79-3.55 4.65-6.14 6.74-8.52 4.34-4.95 7.82-10.32 9.37-16.82 1.92-8.06 3.98-16.08 5.94-24.13 3.6-14.77 9.01-28.81 15.49-42.58 4.83-10.26 7.77-21.39 8.32-32.85.44-8.99.5-18.02.32-27.03-.35-17.27-3.07-34.07-10.48-49.9-7.49-15.99-15.21-31.9-19.38-49.2-2.36-9.79-4.81-19.55-7.11-29.36-1.62-6.91-1.83-14.3-7.17-20.32-1.13 1.72-2.17 3.31-3.22 4.91zm-113.99 341.72c1.37-1.43 2.93-2.54 4.51-3.59 15.44-10.29 30.34-21.21 43.06-34.91 6.64-7.16 12.72-14.7 17.48-23.17 3.69-6.56 6.59-13.57 9.82-20.39 6.94-14.67 12.02-29.94 15.15-45.89 2.83-14.4 3.43-29 3.18-43.56-.31-18.2.2-36.34 1.32-54.48.95-15.5 2.88-30.86 5.98-46.11 3.34-16.43 6.22-32.96 9.29-49.44 1.03-5.54 2.04-11.08 3.06-16.62.93.84 1.09 1.66 1.03 2.47-.43 5.57-.92 11.13-1.35 16.7-1.31 16.88.17 33.48 5.02 49.75 1.02 3.44 1.51 7.03 2.25 10.55 1.99 9.52 4.09 19.01 5.95 28.55 1.06 5.46 2.3 10.98 2.45 16.5.35 12.79.49 25.62-.03 38.4-.63 15.55-3.07 30.86-8.94 45.45-1.2 2.98-2.07 6.09-3.09 9.15-1.36 3.13-2.73 6.26-4.09 9.38-6.71 12.75-13.36 25.54-20.17 38.24-4.87 9.09-10.94 17.43-18 24.9-5.06 5.35-10.74 10.17-16.51 14.77-10.28 8.21-20.65 16.34-31.34 23.99-7.65 5.48-16.59 8.18-26.02 9.35zm-98.54-330.6c-3.32 3.39-5.94 6.32-8.81 8.96-11.66 10.72-23.41 21.36-35.11 32.04-1.86 1.7-3.64 3.49-5.48 5.22-7.74 7.28-15.41 14.64-23.26 21.79-7.82 7.11-17.22 11.86-26.44 16.77-9.55 5.08-19.34 9.7-29.02 14.53-6.35 3.17-13.34 3.23-20.11 3.46-10.49.36-20.77-1.04-30.74-5.02-6.63-2.65-10.82-6.83-12.79-13.51-.92-3.11-2.02-6.18-2.65-9.35-2.7-13.54-8.86-25.5-16.78-36.61-5.8-8.13-10.75-16.52-13.46-26.32-2.29-8.29-5.86-16.22-9.09-24.91 1.46.14 2.63.06 3.66.4 2.23.73 4.38 1.67 6.56 2.53 8.73 3.43 17.63 5.95 27.07 6.89 17.66 1.76 35.31 1.3 52.96.5 14.5-.65 28.6-3.39 41.89-9.56 6.24-2.9 11.84-6.72 17.36-10.85 7.86-5.88 14.31-13.14 20.82-20.25 5.4-5.9 9.46-13.06 13.97-19.74 1.8-2.67 3.24-5.59 4.86-8.39 8.35-14.49 11.76-30.43 14.05-46.77.69-4.93 2.6-9.68 3.84-14.55.96-3.77 1.73-7.58 2.71-11.9 1.34 1.69 2.84 3.18 3.84 4.95 2.53 4.47 6.32 7.49 10.94 9.24 8.35 3.17 16.97 4.93 25.96 3.01 4.86-1.04 5.36-1.67 4.72-6.58-.68-5.24-.6-10.38.85-15.53.52-1.85.63-4.01.25-5.89-.93-4.59-2.02-9.16-3.47-13.61-1.78-5.46-6.32-8.42-11.95-8.08-5.86.35-11.47-.68-17.05-2.33-7.44-2.21-14.94-4.18-22.38-6.39-2-.59-3.86-1.67-6.14-2.69-.49.63-1.6 1.4-1.67 2.25-.36 4.76-1.61 9.5.86 14.24 2.64 5.07 4.73 10.43 6.81 15.1-1.52 2.82-3.07 5.31-4.24 7.96-1.17 2.63-2.15 5.37-2.88 8.15-1.84 6.94-3.47 13.94-5.23 20.91-1.54 6.11-3.16 12.2-4.71 18.3-.23.91-.29 1.87-.41 2.81-1.36 2.89-2.83 5.74-4.06 8.69-3.87 9.24-9.46 17.37-15.78 25.07-7.67 9.34-15.56 18.43-24.88 26.22-10.9 9.1-22.74 16.76-36.32 20.87-8.71 2.64-17.91 4.22-27 4.93-12.91 1.02-25.92.91-38.9 1.09-4.62.06-9.24-.43-13.93-1.61.79-.21 1.57-.5 2.37-.62 6.23-.95 12.48-1.84 18.71-2.81 14.8-2.33 29.33-6.04 43.4-10.94 10.44-3.64 21.49-6.64 30.49-13.47 8.72-6.61 18.32-12.22 25.39-20.86 7.2-8.79 14.26-17.67 19.3-27.94.59-1.21 1.07-2.47 1.51-3.75 2.53-5.38 5.03-12.06 5.4-13.6 2.48-10.32 2.79-20.61.26-31.07-1.69-6.99-2.31-14.23-3.6-21.32-.94-5.13-2.03-10.25-3.38-15.29-1.34-5-.25-9.1 3.3-12.83 4.83-5.08 10.69-8.56 17.04-11.25 4.96-2.1 10.01-2.1 15.29-.62 16.66 4.69 33.37 9.17 50.1 13.61 6.27 1.66 12.65 2.93 18.95 4.48 13.27 3.27 26.59 6.34 39.75 9.98 16.5 4.56 32.83 9.75 49.31 14.38 9.01 2.53 18.16 4.53 27.28 6.66.89.21 1.98-.38 2.97-.6.02-.48.04-.97.06-1.45-3.51-1.07-6.96-2.42-10.54-3.17-14.99-3.15-29.71-7.23-44.32-11.84-13.4-4.23-27.06-7.7-40.7-11.16-21.15-5.36-42.39-10.34-63.55-15.66-11.72-2.95-23.49-5.8-34.97-9.51-17.83-5.76-36.19-9.35-54.22-14.23-9.7-2.63-19.16-6.16-28.7-9.37-5.3-1.78-10.53-3.74-16.5-5.88.55 1.29.67 2.51 1.26 2.81 2.74 1.38 5.52 2.74 8.43 3.67 14.94 4.79 29.87 9.61 44.9 14.08 7.39 2.2 15.01 3.67 23.07 5.61-1.91 2.17-4.03 1.56-5.73 2.15-13.82 4.77-25.84 11.92-35.49 23.4-7.78 9.25-15.39 18.61-22.37 28.44-4.05 5.71-6.87 12.27-10.61 18.21-8.02 12.76-17.45 24.33-29.83 33.16-9.36 6.67-19.95 9.91-31.38 10.46-11.33.54-22.66 1.15-33.99 1.42-8.14.19-16.23-.65-23.9-3.7-2.65-1.05-5.2-2.37-7.9-3.62-.63.59-1.35 1.25-2.4 2.23-3.12-6.03-6.43-11.62-8.99-17.53-5.17-11.91-9.54-24.04-11.89-36.95-1.34-7.38-4.66-14.38-6.87-21.62-1.04-3.42-1.53-7-2.35-10.49-.94-4.01-1.97-7.99-2.98-12.07 8.21-1.4 13.25 4.49 19.26 8.16 11.67 7.14 23.09 14.76 35.19 21.09 13.72 7.17 28.68 7.91 43.69 4.7 8.98-1.92 18.13-3.99 25.75-9.42 6.43-4.59 12.34-9.94 18.3-15.15 7.18-6.28 14.18-12.76 21.26-19.16 3.56-3.22 7.65-5.29 12.42-6.1.86-.15 2.24-1.17 2.21-1.72-.05-1.04-.7-2.43-1.55-3-11.09-7.37-23.34-11.89-36.27-14.91-17.6-4.12-34.25-1.5-50.7 5.53-11.75 5.02-23.71 9.86-36 13.24-11.6 3.19-23.72 4.62-35.71.39-2.77-.98-5.92-.88-9.8-1.39-1.11-2.18-2.87-5.12-4.13-8.25-2.21-5.48-5.53-10.08-9.89-14.01-2.14-1.93-4.13-4.04-6.16-6.1-6.06-6.15-9.09-11.36-9.78-22.79 1.6.33 3.11.48 4.49.97 3.68 1.28 7.29 1.46 11.15.58 4.37-1 8.9-1.26 13.32-2.07 11.84-2.18 23.67-4.48 35.49-6.77 1.87-.36 4.16-.36 4.11-3.67-2.95-.87-6.08-1.55-9.02-2.71-6.21-2.45-12.36-5.06-18.46-7.77-4.39-1.96-8.92-2.92-13.69-2.46-8.07.78-15.58-1.36-23.35-3.23-7.19-1.73-10.54-5.23-12.13-12.12-.72-3.12-3.59-5.75-5.5-8.59-.87-1.29-1.77-2.57-3.42-4.95 5.67 1.88 10.29 3.14 14.69 4.93 10.19 4.13 20.31 8.44 30.4 12.81 10.41 4.51 20.75 9.16 31.11 13.78 11.21 4.99 22.43 9.94 33.59 15.02 11 5.01 21.91 10.2 32.9 15.23 9.34 4.28 18.73 8.47 28.11 12.67 2.73 1.22 5.52 2.31 8.79 2.78-.56-.72-.99-1.69-1.72-2.1-2.2-1.24-4.5-2.29-6.79-3.36-9.97-4.62-19.92-9.27-29.92-13.79-11.98-5.42-24.01-10.74-36.03-16.07-22.57-10.02-45.15-20.02-67.71-30.04-1.41-.63-2.74-1.41-4.11-2.12l.47-1.1c13.74 4.69 27.75 8.74 41.17 14.21 19.87 8.11 39.33 17.22 58.94 25.94 10.36 4.61 20.71 9.23 31.01 13.97 11.41 5.26 22.61 11 34.15 15.94 15.9 6.81 32.11 12.85 48.93 17.04 12.56 3.13 25.13 6.25 37.79 8.97 12.15 2.62 24.42 4.63 36.61 7.09 8.43 1.7 16.91 3.33 25.17 5.68 13.67 3.89 27.13 8.55 40.79 12.48 11.91 3.43 23.96 6.4 35.98 9.42 9.94 2.5 19.92 4.81 29.89 7.15 17.76 4.17 34.99 9.97 51.67 17.32 11.53 5.08 22.91 10.65 33.13 18 10.06 7.23 19.45 15.42 29.03 23.32 14.32 11.81 27.9 24.45 40.4 38.15 6.76 7.4 12.66 15.61 18.66 23.68 8.27 11.13 16.65 22.21 24.28 33.78 7.9 11.99 15.11 24.44 22.33 36.86 4.61 7.93 9.01 16.02 12.9 24.32 6.73 14.37 12.92 28.98 15.18 44.88.43 3.02.19 6.18.92 9.1 2.05 8.2 3.95 16.48 6.79 24.41 6.33 17.66 11.25 35.71 16.57 53.67 5.91 19.93 8.97 40.46 13.63 60.65 2.67 11.57 6.67 22.83 10.14 34.21 2.52 8.25 5.07 16.5 7.73 24.7 3.61 11.12 7.08 22.3 11.09 33.28 5.33 14.6 8.93 29.64 12.09 44.78 2.88 13.83 7.19 27.12 12.66 40.09 5.81 13.76 11.45 27.6 17.41 41.29 2.58 5.94 5.4 11.84 8.77 17.35 4.3 7.04 6.37 14.85 8.74 22.54 1.77 5.74-.79 11.3-2.68 17.08-.5-1.17-1.02-2.33-1.5-3.51-5.26-13-10.46-26.01-15.77-38.99-5.86-14.31-11.87-28.57-17.71-42.88-2.92-7.15-5.74-14.34-8.39-21.59-1.36-3.71-2.38-7.56-3.33-11.41-3.53-14.32-6.73-28.72-10.52-42.97-3.79-14.24-8.09-28.35-12.25-42.5-4.16-14.13-8.55-28.19-12.6-42.35-4.65-16.23-9.18-32.5-13.48-48.83-3.99-15.14-7.7-30.36-11.38-45.59-3-12.4-5.73-24.86-8.67-37.27-.7-2.97-1.79-5.85-2.65-8.78-2.5-8.61-4.8-17.29-7.54-25.82-1.53-4.77-3.93-9.26-5.64-13.99-5.32-14.71-10.24-29.57-15.82-44.18-2.55-6.67-6.29-12.88-9.46-19.32-1.75-3.54-3.24-7.23-5.21-10.64-3.78-6.52-8-12.79-11.71-19.34-7.58-13.37-16.32-25.96-25.18-38.49-9.08-12.85-19.88-24.22-30.66-35.6-5.94-6.27-11.76-12.7-18.13-18.51-15.06-13.72-31.45-25.69-49.18-35.8-6.09-3.48-11.96-7.35-18.09-10.75-3.02-1.68-6.41-2.7-9.63-4.02-.21.36-.43.71-.64 1.07.6.69 1.09 1.52 1.81 2.03 4.95 3.49 9.96 6.91 14.93 10.37 3.39 2.36 6.77 4.73 10.09 7.17.69.5 1.24 1.3 1.63 2.08 2.41 4.81 4.99 9.56 7.07 14.52 4.67 11.17 7.78 22.82 10.1 34.68 3.46 17.7 3.22 35.54 1.8 53.39-1.56 19.63-5.05 38.99-8.77 58.31-1.88 9.74-4.4 19.38-5.87 29.18-1.74 11.57-2.95 23.23-3.85 34.9-1.12 14.54-1.69 29.13-2.47 43.7-.09 1.62.0 3.25.14 4.87 1.35 15.33.45 30.66-1.03 45.87-.88 9.08-3.63 18.01-5.91 26.91-3.65 14.2-9.49 27.63-16.06 40.64-6.27 12.41-14.19 23.94-24.79 33.16-9.51 8.27-19.28 16.27-29.34 23.85-6.41 4.83-13.57 8.67-21.02 13.34-.01.1-.11.88-.16 1.31-11.23-3.31-22.33-6.3-33.23-9.89-9.41-3.1-18.55-7.03-27.89-10.37-21.95-7.85-40.25-21.48-57.8-36.3-4.21-3.55-3.72-3.9-1.16-8.48 3.73-6.68 9.06-9.36 16.58-9.84 12.28-.78 24.07-4.43 35.74-8.1 10.82-3.41 19.56-10.43 28.24-17.54 10.13-8.3 18.08-18.52 26.44-28.45 7.23-8.59 13.85-17.58 19.04-27.52 1.64-3.15 2.33-6.79 3.43-10.22.0.0.0.01.0.02.67-2.25 1.35-4.51 2.02-6.76.0.04-.01.08-.02.11 1.48-1.89 2.35-3.89 1.14-6.27.0.02.0.04-.01.06.34-3.98 1.19-8.01.85-11.93-.75-8.59-3.18-16.66-10.03-22.66-.81-.71-1.54-1.62-2.48-2.04-3.11-1.38-6.3-2.57-9.66-3.91-.48.61-1.11 1.08-1.3 1.68-3.51 11.17-7.02 22.35-10.42 33.55-1.62 5.34-2.78 10.84-4.6 16.11-4.51 13.08-13.08 23.54-22.41 33.43-10.18 10.79-21.3 20.49-33.99 28.3-10.39 6.39-21.84 9.35-33.79 10.46-6.63.62-13.35.25-20 .7-6.47.43-12.94 1.1-19.34 2.1-7.49 1.17-14.31-.7-20.92-3.83-1.4-.66-2.69-1.85-3.64-3.1-4.38-5.74-8.59-11.61-11.11-18.47-5.17-14.1-14.05-25.94-23.14-37.6-5.64-7.24-12.34-13.69-17.57-21.19-4.49-6.44-7.87-13.73-11.16-20.91-2.24-4.89-.11-7.68 5.27-7.29 6.37.46 12.05-2.03 17.86-3.72 9.31-2.71 18.49-5.92 27.59-9.29 4.54-1.68 8.91-3.95 13.12-6.37 10.47-6 21.02-11.93 31.15-18.48 10.43-6.74 20.67-13.88 28.83-23.43 8.54-9.99 17.31-19.83 25.12-30.36 11.26-15.18 21.76-30.93 30.79-47.59 2.84-5.25 6.07-10.02 11.54-13.14 5.24-2.99 8.99-7.74 12.32-12.74 7.69-11.54 15.54-22.95 20.5-36.08 2.84-7.51 3.44-15.04 2.21-22.83-.67-4.26-1.49-8.45-3.81-12.29-2.51-4.14-3.27-8.72-1.9-13.53.18-.62-.02-1.35-.08-2.83-.8.09-1.58.0-2.21.28-8.58 3.68-17.4 6.88-24.8 12.86-4.79 3.87-7.18 8.75-7.62 14.9-.63 8.81-1.65 17.6-2.44 26.4-.07.77-.5 1.55-.33 2.34-.84 2.04-1.2 4.06-1.62 6.19-3.6 18.43-11.1 34.93-23.9 48.83-1.79 1.94-1.85 1.88-.74 5.13 7.1-2.82 14.2-5.63 22.23-8.81-2.2 5.47-4.51 10.08-7.15 14.45-3.9 6.46-7.97 12.84-12.35 18.98-8.05 11.26-16.38 22.32-24.58 33.46-5.89 8.01-12.66 15.19-20.08 21.82-10.15 9.07-21.45 16.44-33.19 23.19-3.21 1.85-6.43 3.67-9.65 5.5-.23-.36-.46-.71-.7-1.07 4.18-2.89 8.22-6.02 12.58-8.62 7.12-4.24 12.29-10.43 17.55-16.58 3.04-3.55 6.08-7.12 9.29-10.51 10.67-11.27 20.33-23.3 28.3-36.68 2.48-4.16 5.36-8.11 8.32-11.96 2.97-3.87 4.25-8.11 4.27-13.77zm72.72-90.77c.04 6.12-1.72 11.53-3.87 16.94-4.7 11.81-11.87 22.15-18.65 32.77-7.05 11.05-17.68 17.14-29.03 22.44-1.08.5-2.35.59-3.8.93 7.81-7.48 15.38-14.34 22.48-21.64 7.28-7.48 14.44-15.22 19.54-24.39 4.84-8.71 8.85-17.87 13.33-27.06zm-4.2-3.02c-2.42 9.41-4.85 18.93-10.29 27.18-8.34 12.67-17.95 24.31-29.09 34.64-4.55 4.22-9.2 8.33-13.81 12.48-.28-.23-.57-.46-.85-.7.36-.72.69-1.46 1.08-2.17 2.53-4.53 5.18-8.98 7.56-13.59 1.15-2.22 1.87-4.68 2.64-7.08 2.79-8.69 5.47-17.2 6.81-25.94.3-.98.4-2.54.53-3.54 1.13-8.94 2.05-17.92 3.4-26.83.41-2.74 1.49-5.65 3.07-7.9 6.13-8.71 15.89-11.67 24.78-15.59 1.55 5.27 2.95 10.01 4.43 15.02-.15 1.33-.52 3.12-.51 4.9.0 3.05.97 6.28.24 9.11zm-59.87-36.09c-5.24.55-9.97-.77-14.72-2.38-4.44-1.51-7.83-4.12-10.65-7.82-6.19-8.12-12.61-16.07-16.54-25.84 9.81 16.78 24.18 28.3 41.91 36.05zm-5.69-6.24c-15.29-7.04-26.45-18.57-34.99-32.76-2.47-4.1-4.47-8.62-3-14.31 1.85.21 3.62.23 5.28.63 4.7 1.15 9.44 2.25 14.03 3.75 7.73 2.53 15.38 5.12 23.71 4.8 3.65-.14 7.38 1.61 8.62 4.7 2.45 6.1 4.78 12.47 3.79 19.36-.79 5.46-1.52 10.93-2.36 16.96-4.95.48-10.09-.84-15.07-3.14z" fill="#fcfcfc"/><path d="M692.45 343.26c-.49-5.22-2.31-9.48-5.98-12.88-5.86-5.42-12.91-8.53-20.91-9.02-3.51-.22-6.81.76-8.96 4-1.29 1.95-3 3.72-3.9 5.83-4.54 10.58-12.29 18.47-20.92 25.66-6.89 5.73-13.7 11.57-20.73 17.12-7.54 5.96-10.62 13.8-10.59 23.14.0.53-.03 1.15.22 1.57 3 4.93 4.64 10.36 9.91 14.27 6.48 4.81 12.88 9.7 19.6 14.19 3.94 2.63 7.86 3.3 12.27 1.58 7.03-2.74 14.51-4.5 20.17-9.63 11.47-6.08 15.26-17.04 18.63-28.22 2.43-8.08 5.12-16.12 6.87-24.35 1.64-7.68 5.1-14.99 4.32-23.26zm-15.02 46.4c-3.46 5.16-6.99 10.27-10.5 15.39-.21-.59-.79-1.43-.58-1.72 3.68-5.25 7.46-10.43 11.21-15.63.62-1.8 1.24-3.6 1.87-5.41.45.22.9.43 1.36.65-1.02 1.6-2.03 3.2-3.05 4.8-.09.65.03 1.43-.3 1.92zm-49 32.68c1.78.28 3.43 1.1 5.16 1.39 2.79.47 5.78 1.28 8.44.73 7.16-1.45 13.76-4.47 18.81-9.96 5.07-5.5 9.88-11.22 14.8-16.85-1.8 6.07-4.62 11.67-9.57 15.84-7.25 6.1-15.44 10.38-24.57 13.17-5.73 1.75-9.56-.37-13.08-4.32zm38.49-17.27c-2.45 2.4-4.9 4.79-7.35 7.19 1.5-3.47 3.87-5.98 7.35-7.2.0.0.0.0.0.0zm-32.43 16.52c7.68-.49 14.32-4.05 21.23-6.75-6.48 4.24-12.83 8.88-21.23 6.75zm-13.01-6.74c18.35 1.61 32.09-6.3 45.35-18.16-9.92 18.43-31 26.79-45.35 18.16zm-10.33-4.89c2.79-.12 4.45 1.34 5.77 3.22-.24.3-.48.6-.73.91-1.68-1.37-3.36-2.75-5.04-4.12zm76.81-64.59c-3.35 6.36-4.53 13.86-6.69 20.85-5.98 19.29-18.08 33.32-36.14 42.34-5.81 2.91-11.96 3.77-18.3 4.15-6.14.37-10.43-3.57-15.19-6.34-2.1-1.22-3.76-3.18-5.62-4.81-2.99-5.79-2.8-5.79-2.79-9.82.02-6.56 3.6-11.33 8.01-15.33 7.32-6.62 15.11-12.71 22.64-19.1 5.49-4.67 11.09-9.28 14.99-15.5 2.87-4.58 5.81-9.12 8.53-13.79 1.74-3 4.33-4.25 7.56-4.38 8.51-.36 15.46 3.13 20.97 9.3 3.11 3.49 4.93 6.93 2.04 12.42z" fill="#fcfcfc"/><path d="M460.17 463c-5 7.74-6.87 16.54-9.95 24.95-2.6 7.08-5.51 14.08-8.78 20.87-2.71 5.63-5.74 11.2-9.36 16.28-3.63 5.1-8.21 9.51-12.3 14.3-6.3 7.38-13.02 14.47-18.64 22.33-4.14 5.8-6.85 12.63-10.12 19.05-.88 1.73-.23 3.05 1.52 3.96 1.24.65 2.59 1.35 3.45 2.39 7.28 8.84 17.01 12.24 28.01 12.94 5.91.38 11.83.74 18.42 1.15-2.23 9.18-4.2 18.09-6.58 26.89-4.05 14.98-9.37 29.52-15.58 43.76-7.91 18.14-17.8 35.06-30.71 50.04-10.33 11.98-20.39 24.22-32.05 35.04-10.14 9.41-21.15 17.4-33.87 22.84-10.1 4.32-20.29 8.5-30.61 12.25-5.67 2.06-11.7 3.08-17.57 4.57.0.44.0.88.01 1.32 1.83-.1 3.67-.07 5.48-.33 10.85-1.55 20.71-6.04 30.6-10.43 7.57-3.36 15.35-6.32 22.63-10.23 6.15-3.3 11.94-7.38 17.45-11.68 5.67-4.42 11.04-9.3 16.11-14.41 4.42-4.45 8.24-9.51 12.33-14.29 6.31-7.36 13.09-14.37 18.83-22.15 9.84-13.36 18.03-27.77 24.42-43.13 6.94-16.66 12.8-33.69 17.26-51.2 1.02-3.99 2.78-7.78 4.09-11.7.43-1.3.57-2.71.79-4.07.56-3.53 1.48-4.22 5.07-5.19 8.34-2.24 16.89-3.99 24.86-7.18 17.98-7.21 32.59-18.97 44.11-34.66 7.02-9.55 11.56-20.33 16.54-30.92 3.6-7.65 7.25-15.31 10.33-23.18 2.63-6.7 4.57-13.68 6.61-20.59.49-1.67.56-3.65.19-5.35-2.22-10.13-7.06-18.88-14.83-25.77-6.67-5.91-14.25-7.72-22.42-3.06-7.37 4.2-15.37 4.69-23.53 4.45-6.12-.18-12.23-.65-18.35-.76-1.52-.03-3.31.47-4.54 1.35-3.65 2.61-6.79 5.6-9.34 9.54zm81.55 17.02c-4.07-10.1-7.83-20.38-15.95-28.32 10.24 6.61 16.36 15.65 15.95 28.32zm1.24 20.78c4.83-17.98 4.1-34.86-9.17-49.48 2.77 1.67 5.1 3.54 6.94 5.8 2.26 2.78 4.59 5.67 6.03 8.9 2.16 4.85 5.05 9.89 3.78 15.39-1.52 6.59-3.91 12.98-5.92 19.46-.55-.03-1.11-.05-1.66-.08zm-101.53 96.36c11.26-3.52 22.57-6.78 33.19-12.17 10.56-5.37 19.22-13.27 28.71-20.05 9.78-6.99 16.5-16.81 23.31-26.5-14.51 35.26-51.3 56.84-85.21 58.72zm13.89-118.14c2.8-7.88 6.47-15.25 12.62-21.14 2.03-1.94 4.32-3.33 7.19-3.3 4.31.05 8.63.2 12.94.41 10.84.53 21.62.72 31.15-4.73 1.66 1.99 2.91 3.62 4.3 5.12 1.47 1.58 3.48 2.79 4.54 4.59 3 5.11 5.49 10.51 8.46 15.64 3.07 5.3 1.91 11.42 3.65 17.1 1.77 5.79.21 12.62-2.84 18.36-4.9 9.2-9.77 18.43-15.24 27.29-12.38 20.03-29.99 34.3-50.76 44.97-11.37 5.84-23.7 8.67-35.97 11.6-4.33 1.03-8.97 1.18-13.45 1.03-10.43-.35-19.17-4.29-25.6-12.91-1.5-2.01-2.01-3.76-.92-5.91 2.3-4.49 4.09-9.38 7.12-13.32 8.2-10.68 17.02-20.89 25.43-31.42 4.26-5.33 8.79-10.6 12.13-16.49 6.58-11.62 10.79-24.33 15.25-36.9z" fill="#fcfcfc"/><path d="M425.4 637c.43-2.6-.69-4.05-3.23-3.54-5.8 1.16-10.15-1.38-14.16-4.96-2.95-2.63-5.69-5.49-8.71-8.02-.98-.82-2.57-1.38-3.83-1.29-2.3.17-4.57.88-6.84 1.41-2.28.54-4.51 1.44-6.81 1.64-6.64.58-12.52 3.15-18.23 6.32-1.4.78-2.87 1.41-4.43 2.16-1.78 4.92.09 9.59 1.5 14.16 2.94 9.5 8.13 17.35 17.08 22.43 4.21 2.39 8.69 3.54 13.33 4.12 1.84.23 3.93-.31 5.72-1 7.76-3 14.11-7.85 18.47-15.04 3.08-5.08 6.05-10.23 9.02-15.37.53-.92.94-1.98 1.12-3.02zm-41.37 30.03c9.94.71 17.97-3.73 25.56-9.37-6.27 9.47-15.78 13-25.56 9.37zm-5.1-10.09c5.61-.2 10.52.13 15.23-.7 4.68-.82 9.16-2.81 13.73-4.29-8.8 7.61-18.75 9.82-28.96 4.98zm-6.23.15c7.03 3.26 13.97 5.84 21.78 4.82-8.14 4.68-17.73 2.53-21.78-4.82zm48.25-20.41c-3.36 6.22-8.23 9.22-13.44 11.74-8.7 4.21-17.67 7.45-27.58 5.59-3.71-.7-7.39-1.7-10.95-2.94-6.2-2.17-6.65-7.99-7.8-13.22-.67-3.04.11-5.29 3.08-7.23 9.75-6.35 21-7.04 31.92-8.99.86-.15 2.09.52 2.83 1.17 6.41 5.64 11.97 12.53 21.94 13.89z" fill="#fcfcfc"/><path d="M330.03 454.11c.47 4.66 7.16 9.91 12.41 10.66 4.6.65 9.74-2.24 12.31-6.91 1.12-2.05 2.31-4.07 3.35-6.15 2.2-4.42 1.56-6.4-3.02-8.56-4.39-2.07-8.87-3.94-13.33-5.84-2.94-1.26-5.93-2.42-9.89-4.04-.65 2.41-1.54 4.38-1.66 6.4-.29 4.81-.65 9.68-.16 14.44zm9.09-14.35c5.99 2.54 11.84 5.02 18.46 7.83-1.9 3.84-3.29 6.63-4.61 9.29-8.81-1.92-14.28-8.73-13.85-17.12zm-7 12.04c-.02-2.49-.23-4.99-.12-7.48.08-1.81.54-3.6 1.03-6.57 4.18 4.34 3.39 9.5 6.1 12.9 2.73 3.43 5.74 6.64 9.2 10.59-1.79.32-3.17.79-4.55.77-5.11-.07-11.61-5.86-11.65-10.2z" fill="#fcfcfc"/><path d="M511.54 321.48c-4.81-6.25-10.26-12.06-15.85-17.64-12.63-12.61-25.57-24.95-35.45-39.96-3.36-5.1-6.03-10.66-9.36-15.79-4.58-7.05-14.31-9.43-22.01-6.07-5.44 2.37-10.98 5.49-16.68 6.02-7.83.73-9.29 6.53-11.18 11.56-3.09 8.21-4.89 16.9-7.42 25.33-1.45 4.85-1.03 9.56-.07 14.4 2.29 11.51 7.33 21.77 11.32 27.94 10.61 15.73 21.21 25.1 34.3 31.92 7.16 3.73 14.63 5.83 22.41 7.58 13.31 2.99 24.18-1.32 33.53-10.38 5.42-5.26 10.49-10.89 15.51-16.54 5.24-5.9 5.83-12.03.94-18.38zm-90.69 2.34c-5.5-9.84-9.11-20.33-12.87-30.82-.27-.76-.05-1.7-.06-3.16 10.77 26.46 27.08 48.24 45.73 68.96-.63-.23-1.26-.45-1.88-.7-6.03-2.44-10.24-7.28-14.82-11.53-6.92-6.43-11.5-14.53-16.09-22.75zm-22.81-45.52c-1.43 11.5.94 22.53 4.9 33.19 3.89 10.43 9.34 20.12 16.19 28.98-3.42-3.76-7.05-7.37-9.71-11.59-3.53-5.61-6.55-11.58-9.35-17.6-4.94-10.59-6.67-21.56-2.03-32.98zm6.86-18.46c-1.77 18.03-1.25 34.86 6.08 50.8 7.09 15.43 14.4 30.73 27.43 42.35-29.57-18.14-46.39-65.46-33.51-93.15zm103.85 62.84c4.77 6.51 4.16 12.05-1.32 17.8-4.59 4.81-9.22 9.59-13.87 14.34-5.47 5.58-11.99 9.16-19.81 10.16-1.04.13-2.32.42-3.12-.02-3.74-2.11-7.58-4.15-10.98-6.75-11.3-8.63-19.73-19.98-27.94-31.34-5.68-7.85-10.58-16.36-14.99-25-7.58-14.83-12.57-30.23-6.73-47.15.74-2.14 1.51-3.34 3.62-4.08 4.75-1.66 9.63-3.16 14.06-5.46 8.27-4.3 19.76.02 23.67 7.98 2.61 5.3 5.81 10.31 9.18 16.21 3.65 4.35 7.61 9.48 12.01 14.21 8.31 8.94 16.93 17.6 25.3 26.49 3.81 4.05 7.66 8.14 10.93 12.62z" fill="#fcfcfc"/><path d="M403.77 216.65c-3.22-7.34-8.28-13.42-14.29-18.66-4.28-3.73-9.62-4.79-15.06-5.36-2.64-.28-5.07 1.5-6.21 4.28-.27.66-.48 1.39-.49 2.09-.11 8.83-.05 17.66 3.22 26.06.78 1.99 1.9 3.85 2.87 5.77.11-.06.22-.12.33-.17.72 1.04 1.34 2.16 2.17 3.1 5.68 6.37 9.66 6.88 16.73 2.27 1.66-1.08 3.38-2.07 5.09-3.08 5.62-3.29 8.24-10.33 5.63-16.29zm-27.65-9.36c.82 3.46 1.38 6.99 2.35 10.4 1.6 5.61 3.46 11.15 5.37 17.24-6.69-2.71-9.58-8.19-11.1-14-1.99-7.6-3.76-15.46-1.66-24.16 4.06 3.1 4.2 6.98 5.04 10.52zm25.87 13.58c1.08 2.81.32 6.12-1.99 7.95-3.3 2.6-7.21 4.44-10.79 6.57-5.9-7.98-9.53-19.58-12.41-39.37 2.6.78 5.12 1.13 7.22 2.25 9.2 4.92 14.37 13.23 17.97 22.6z" fill="#fcfcfc"/><path d="M644.54 595.11c1.68.95 2.79 2 3.23 3.28 1.63 4.75 3.31 9.5 4.49 14.37 2.05 8.51 3.31 17.23 5.68 25.64 3.13 11.11 3.16 22.45 3.45 33.77.19 7.36-.5 14.76-1 22.13-1 14.92-2.51 29.83-.27 44.78 1.18 7.83 2.37 15.66 3.34 23.52.72 5.85 1.09 11.74 1.72 18.72-1.77-.8-3.06-.98-3.5-1.68-.51-.81-.4-2.11-.32-3.17.67-8.7-.96-17.23-2.09-25.77-2.08-15.78-3.17-31.54-1.92-47.46.87-11.07 1.58-22.18 1.73-33.28.1-7.53-.39-15.15-1.54-22.59-2.53-16.35-6.63-32.36-12.23-47.96-.48-1.35-.52-2.86-.76-4.3z" fill="#fcfcfc"/><path d="M568.21 485.61s-.02-.06-.02-.09h.08s-.04.06-.06.09z" fill="#fcfcfc"/><path d="M567.37 487.17c-.11-.42.51-1.02.84-1.56.83 3.12 1.65 6.25 2.48 9.37-1.75-2.43-2.63-5.1-3.32-7.81z" fill="#fcfcfc"/><path d="M568.19 485.53s-.02-.04-.03-.06c.03.02.05.04.08.05.03.0-.05.0-.05.0z" fill="#fcfcfc"/><path d="M564.6 478c1.19 2.49 2.37 4.98 3.56 7.47-2.73-1.79-3.78-4.33-3.56-7.47z" fill="#fcfcfc"/><path d="M333.09 319.71c-.4-2.82-2.12-4.94-4.94-5.89-10.28-3.46-19.81-8.52-29.55-13.21-10.17-4.89-20.74-9.26-32.46-10.77-3.51 4.19-2.96 8.99-1.69 13.68 1.17 4.33 2.47 8.74 4.5 12.71 2.99 5.86 8.1 10.01 13.24 14 9.74 7.58 21.24 9.34 33.07 10.01 4.52.26 8.93.06 13.13-1.99 4.44-2.17 5.61-4.02 5.26-8.91-.22-3.21-.12-6.46-.57-9.63zm-21.71 18.04c0-.34.02-.69.03-1.03 1.28.02 2.57.03 3.85.05.01.28.02.56.03.84-1.3.05-2.6.09-3.91.14zm-40.64-27.91c6.03 11.26 14.87 18.81 25.88 24.11-11.66-2.5-25.69-15.52-25.88-24.11zm.18-6.25c8.53 11.3 17.85 21.71 30.89 27.97-14.63-4.48-24.7-14.06-30.89-27.97zm59.59 20.54c-.22 1.33.67 2.81.69 4.23.04 2.04-.25 4.08-.4 6.06-13.65-.51-25.93-3.43-36.62-11.1-10.54-7.57-19.85-16.28-24.68-29.95 4.48.99 8.15 1.32 11.43 2.63 7.49 3.01 14.79 6.5 22.15 9.82 7.05 3.17 14.1 6.34 21.12 9.58 3.7 1.7 7.18 3.56 6.3 8.74z" fill="#fcfcfc"/><path d="M788.7 248.91c.28-4.69.56-9.38.83-14.07 1.09 4.79 1.26 9.53-.79 14.14.23.8.73 1.66.58 2.38-1.28 6.15-2.65 12.28-4.12 18.39-.23.95-1.08 1.76-1.64 2.64 1.46-7.61 2.92-15.21 4.42-22.81.05-.26.47-.45.73-.67z" fill="#fcfcfc"/><path d="M778.2 291.82c-1.27 3.11-2.53 6.22-3.8 9.33.17-3.56 1.29-6.73 3.8-9.33z" fill="#fcfcfc"/><path d="M779.68 285.48c.6-3.75 1.16-7.51 3.8-10.53-.97 3.68-1.13 7.65-3.82 10.71-.46 1.85-.91 3.7-1.37 5.56-1.05-2.29.28-3.99 1.39-5.74z" fill="#fcfcfc"/><path d="M734.61 596.03c-.97-.29-1.79-1.1-2.68-1.66.05-.22.09-.44.14-.66 9.69 2.19 12.09 3.08 14.76 5.67-4.27-1.15-8.27-2.17-12.21-3.35z" fill="#fcfcfc"/><path d="M731.93 594.37c-2.95-.91-5.97-1.67-8.82-2.84-.8-.33-1.19-1.67-1.73-2.62 3.56 1.62 7.12 3.21 10.69 4.8-.05.22-.09.44-.14.66z" fill="#fcfcfc"/><path d="M721.28 588.72c.04.06.07.12.1.18-.05-.02-.1-.04-.15-.07.0-.01.02-.04.03-.07l-.03.05h0s.02-.03.03-.05c0-.01.01-.03.02-.04z" fill="#fcfcfc"/><path d="M788.95 606.62c-.06.27-.12.55-.18.82-1.53-.34-3.05-.68-4.58-1.03.06-.25.13-.5.19-.75 1.52.32 3.05.63 4.57.95z" fill="#fcfcfc"/></g></g></svg>