<svg xmlns="http://www.w3.org/2000/svg" width="548.69" height="1080" viewBox="0 0 548.69 1080"><g id="a"/><g id="b"><g id="c"><g id="d"><g><path d="M214.05 174.97l33.68-23.73 60.64-5.63 8.72 9.91 23.51 11.55 58.9 20.91 5.31-6.74s59.58 30.56 82.23 61.85c7.21 9.95 2.63 32.05 1.65 37.61-4.05 23.03-100.07-7.31-100.07-7.31l-9.25 68.35v27.75l14.15 103.63-4.92 8.89s11.95 43.95 29.31 80.77c17.36 36.82 40.13 66.49 40.13 66.49.0.0-3.94 9.58-14.89 14.22-11.28 4.77-29.75 4.67-41.64 8.33-23.45 7.23-37.27 6.35-37.27 6.35.0.0-108.27 3.64-168.36-2.25-60.08-5.89-71.99-21.32-71.99-21.32l16.96-54.3 11.68-53.46 23.59-74.69-3.25-10.14 18.43-32.88 10.17-32.79 2.69-81.98-53.5 78.56-24.44 49.52-52.23 77.58s-10.8-3.1-19.87-8.44c-9.07-5.33-16.41-12.89-16.41-12.89.0.0 43.53-83.75 80.63-160.45 18.36-37.94 30.49-71.95 44.15-97.6 14.35-26.95 51.55-45.69 51.55-45.69z" fill="#618a86" fill-rule="evenodd"/><path d="M178.94 447.7s30.05-21.67 81.38-16.13c29.38 3.18 65.47 11.48 91.2 21.23 19.22 7.29 32.76 17.06 32.76 17.06l18.39 60.72s25.86 56.52 31.7 66.31c5.84 9.78 20.69 27.29 21.21 34.72 1.08 15.8-42.89 16.21-42.89 16.21l-25.37 8.8-19.7.86-101.21-3.91-91.88-3.22s-21.93-3.79-34.62-8.91c-12.69-5.12-16.13-11.59-16.13-11.59.0.0 5.64-14.14 10.88-34.39 6.27-24.22 12.85-56.96 20.36-81.76 13.79-45.54 23.94-66.01 23.94-66.01z" fill="#ffa291" fill-rule="evenodd"/><path d="M167.13 618.77l31.64-2.8 10.16-8.64 49.83 2.79 8.55 64.27 7.47-67.42s16.62 12.13 29.34 18.74c12.72 6.6 21.55 7.68 21.55 7.68l7.21-5.77 18.06 8.64 20.43 4.72s-7.49 19.03-17.77 44.37c-8.48 20.89-19.08 44.76-26.96 77.2-5.44 22.4-2.14 66.81-6.74 87.02-12.36 54.34-20.68 80.94-24.21 101.7-1.99 11.71-1.64 29.71-1.64 29.71.0.0-8.48-12.33-18.19-12.45-9.71-.11-20.66 12-20.66 12l-1.12-17.26 3.07-23.94-4.36-107.24 3.64-54.9s-8.88 12.93-20.72 15.87c-11.83 2.93-26.61-4.12-26.61-4.12.0.0 9.28-40.56 5.43-59.6-3.85-19.03-20.83-16.53-20.83-16.53l-26.58-94.04z" fill="#ffd7b4" fill-rule="evenodd"/><path d="M40.86 485.38l26.79 13.31s-1.29 4.22.0 18.14c.74 7.89 6.81 23.19 2.33 28.45-11.91 13.96-24.54 10.59-24.54 10.59l-6.48 9.04-8.5.38-10.72 3.45-15.19-25.32 21.57-39 14.76-19.04z" fill="#ffd7b4" fill-rule="evenodd"/><path d="M224.75 112.29s-9.41-1.79-12.85-12.7c-2.11-6.7 5.23-14.35 5.23-14.35l115.66-8.07 8.7 7.81s-2.53 9.09-6.61 13.71-9.7 4.78-9.7 4.78l-15.06 26.26-1.69 15.87-59.32 3.29-1.28-13.44-23.07-23.17z" fill="#ffd7b4" fill-rule="evenodd"/><path d="M372.08 161.75c6.26 1.81 12.89 7.87 18.47 12.62 5.01 4.28 9.32 7.4 9.32 7.4l-4.93 7.91-28.54-15.54-14.14-6.15s7.91-9.69 19.82-6.25z" fill="#ffd7b4" fill-rule="evenodd"/><path d="M219.48 34.5s20.24-29.32 47.01-30.56c15.81-.73 33.36 1.27 45.52 8.81 8.44 5.23 14.55 16.79 14.55 16.79.0.0 22.44 10.36 43.49 26.2 19.03 14.32 35.65 33.57 56.58 45.51 35.19 20.08 83.98 13.85 83.98 13.85l-27.51 13.61s35.17 22.01 50.23 49.24c15.07 27.23 10.02 59.67 10.02 59.67.0.0-13.45-23.19-26.04-36.67-12.59-13.47-24.31-17.22-24.31-17.22l4.33 21.7s-17.26-20.69-37.02-34.29c-16.38-11.27-27.45-16-43.44-25.11-15.32-8.73-35.8-21.99-40.77-26.51-16.42-14.91-42.08-41.92-42.08-41.92l-5.89 5.22s-1.11 31.99-18.28 44.66c-17.17 12.67-50.41 6.01-50.41 6.01l-17.76-2.87c-12.09-7.96-16.77-24.39-20.2-34.16-2.88-8.2-5.44-10.55-5.44-10.55.0.0-35.26 59.82-70.33 87.06-35.07 27.23-66.5 25.58-66.5 25.58.0.0-20.48 16.47-31.05 39.64-10.57 23.16-11.24 53.01-11.24 53.01l-11.64-29.52-7.14-1.27s4.05-25.65 15.59-46.82c11.54-21.17 29.59-34.06 29.59-34.06l-17.9-6.97s19.79 2.99 63.3-31.52c23.36-18.53 46.14-47.68 69.1-70.87 19.81-20.02 41.65-35.65 41.65-35.65z" fill="#d7a067" fill-rule="evenodd"/><path d="M204.7 44.68l9.82-10.04 9.94 3.64s12.17-4.99 18.75 7.17c2.48 4.59-.67 11.08.46 18.06 1.87 11.51-11.02 14.84-11.02 14.84l-8.37 7.37-6.83-3.65s8.7-16.93 5.51-26.28c-3.19-9.35-18.26-11.11-18.26-11.11z" fill="#fffbf0" fill-rule="evenodd"/><path d="M305.1 42.07c9.8-15.83 19.42-5.49 19.42-5.49.0.0-6.4 7.89-4.58 17.4 1.82 9.51 11.87 20.64 11.87 20.64.0.0-4.41 6.91-8.66 6.74-4.25-.17-8.33-7.42-8.33-7.42.0.0-18.51 2.48-10.51-16.4 1.59-3.75-.81-12.85.8-15.47z" fill="#fffbf0" fill-rule="evenodd"/><path d="M172.21 729.45s18.95-21.8 30.06-14.34c8.27 5.55 8.85 10.64 10.31 21.39.5 3.68-5.01 48.73-5.01 48.73l-.79 40.86s-32.36 72.96-50.28 50.48c-5.7-7.14-11.89-33.38-13.66-49.78-2.06-19.02 14.63-37.2 15.78-49.89.98-10.8 13.59-47.45 13.59-47.45z" fill="#747579" fill-rule="evenodd"/><path d="M259.56 976.34c7.79-5.74 15.74-9.5 21.58-7.67 7.85 2.46 12.38 12.04 12.38 12.04l8.66 47.46 10.57 24.12s7.07 16.84-3.49 21.55c-11.28 5.04-44.09-.07-53.43 1.6-18.07 3.25-18.96-8.29-18.96-8.29.0.0 4.44-26.84 9.17-47.16 3.64-15.62 5.58-37.8 13.51-43.65z" fill="#747579" fill-rule="evenodd"/><path d="M316.58 154.96l-6.36 10.32s-6.68-7.65-22.36-7.57c-15.68.07-40.42 7.74-40.42 7.74l-5.67 5.5-7.06-9.46-18.06 8.26-4.3 27.87-8.1 31.13-1.97 50.35 3.7 21.68s-1.74 16.71-4.72 34.93c-2.88 17.62-7.22 36.67 5.4 42.77 17.67 8.53 59.71 16.75 100.67 11.31 18.54-2.47 42.8-8.24 54.1-17.16 4.97-3.92 5.8-23.94 5.8-23.94.0.0 15.66-14.11 21-32.35 5.34-18.23.37-40.6.37-40.6.0.0-5.15 26.55-10.96 41.15-5.82 14.61-12.3 17.26-12.3 17.26-2.75-21.94-8.78-44.76-8.78-44.76l5.54-14.77-8.02-25.18-5.56-51.12-8.37-15.67-4.47-23.22-19.09-4.47zm-41.31 13.47c1.24-.89 21.31 1.8 22.6 2.6 5.53 3.42 3.84 16.51 2.6 17.4-1.07.76-19.01 3.56-19.67 4.23-1.08 1.07-25.1.26-26.18-.81s-1.3-15.79.0-16.58c5.85-3.58 19.35-5.9 20.65-6.82z" fill="#ec6d3a" fill-rule="evenodd"/><path d="M263.66 971.07c12.22-7.46 26.55.64 26.55.64l5.61 28.49s-9.77-8.42-21.15-8.64c-11.39-.21-24.39 7.77-24.39 7.77.0.0 1.16-20.82 13.39-28.27z" fill="#d1ccd0" fill-rule="evenodd"/><path d="M71.51 502.29c-9.88.0-25-7.88-32.1-14.69-4.4-4.22-5.95-8.18-4.59-11.77 5.82-15.29 32.12-66.75 54.09-108.09 1.9-3.59 3.83-7.16 5.88-10.95 6.08-11.27 12.98-24.04 23.11-44.29 4.75-9.5 10.27-22.98 16.1-37.26 10.7-26.17 22.82-55.82 34.16-70.13 12.9-16.29 30-25.39 45.08-33.42 2-1.07 4.51-.31 5.58 1.7 1.07 2.01.31 4.52-1.7 5.58-15.07 8.02-30.66 16.32-42.49 31.26-10.61 13.39-22.5 42.47-32.99 68.13-5.9 14.42-11.47 28.04-16.36 37.83-10.19 20.37-17.12 33.2-23.23 44.52-2.03 3.77-3.96 7.33-5.85 10.9-21.85 41.13-47.97 92.2-53.66 107.16.24.69 3.46 4.75 11.87 9.42 9.47 5.26 16.76 6.49 18.69 5.65 4.56-3.46 37.01-51.26 51.43-80.09 15.84-31.67 53.35-93.07 74.56-119.58 1.42-1.77 4.02-2.07 5.8-.65 1.78 1.42 2.07 4.03.64 5.81-20.91 26.14-57.96 86.8-73.62 118.11-12.85 25.7-48.79 81.09-55.56 83.99-1.38.59-3.03.86-4.86.86z" fill="#070707"/><path d="M164.4 883.89c-4.83.0-9-2.14-11.88-6.15-9.05-12.61-14-33.3-14.77-47.2-.83-14.79 4.84-27.19 10.84-40.31 2.03-4.44 4.13-9.04 6.06-13.88 2.67-6.73 4.66-14.71 6.58-22.42 3.67-14.72 7.13-28.63 15.33-36.68 6.91-6.78 16.22-9.29 24.32-6.55 7.68 2.6 12.82 9.27 14.12 18.3 1.61 11.31-.07 22.35-1.7 33.03-.9 5.87-1.74 11.42-1.98 16.67-.41 9.13-.14 16.03.11 22.11.58 14.56.95 24.17-8.72 44.86-10.62 22.73-24.35 36.98-36.73 38.14-.53.05-1.05.07-1.57.07zm29.78-166.03c-4.08.0-8.35 1.85-11.84 5.27-6.54 6.42-9.88 19.82-13.11 32.78-1.99 7.98-4.04 16.23-6.93 23.48h0c-2 5.04-4.15 9.73-6.22 14.26-5.8 12.7-10.81 23.67-10.1 36.42.85 15.33 6.42 33.35 13.23 42.84 1.46 2.04 3.44 2.92 5.98 2.68 6.95-.65 18.98-9.78 30.02-33.41 8.83-18.88 8.5-27.22 7.95-41.04-.25-6.25-.53-13.33-.1-22.81.25-5.69 1.13-11.45 2.06-17.55 1.54-10.09 3.13-20.52 1.69-30.62-.85-5.92-3.9-10.06-8.59-11.65-1.3-.44-2.67-.66-4.05-.66zm-35.71 60.01h0z" fill="#070707"/><path d="M207.85 813.36h-.1c-2.28-.05-4.08-1.95-4.03-4.22.48-20.01 4.29-35.41 7.35-47.79 2.97-12.02 5.32-21.51 3.63-30.46-1.23-6.54-4.12-10.99-8.6-13.2-4.94-2.46-10.84-1.71-14.5.12-2.03 1.02-4.52.2-5.54-1.84-1.02-2.04-.19-4.52 1.85-5.54 5.09-2.54 13.86-4.11 21.86-.13 4.75 2.36 10.88 7.58 13.04 19.07 2.02 10.71-.64 21.49-3.73 33.97-3.12 12.61-6.65 26.9-7.1 46-.05 2.25-1.89 4.03-4.13 4.03z" fill="#070707"/><path d="M239.63 721.72c-1.15.0-2.3-.48-3.11-1.41-11.55-13.25-22.56-9.2-33.19-5.26l-1.73.63c-2.16.77-4.51-.33-5.29-2.47-.78-2.14.33-4.51 2.47-5.29l1.69-.62c10.75-3.96 26.98-9.96 42.28 7.58 1.5 1.72 1.32 4.33-.4 5.83-.78.68-1.75 1.02-2.71 1.02z" fill="#070707"/><path d="M193 714.54c-1.6.0-3.13-.94-3.8-2.5-4.31-10.05-20.09-65.36-24.83-87.04-.49-2.23.92-4.43 3.15-4.91 2.23-.49 4.42.92 4.92 3.15 4.91 22.44 20.59 76.77 24.35 85.55.9 2.1-.07 4.53-2.17 5.42-.53.23-1.08.33-1.62.33z" fill="#070707"/><path d="M228.51 798.69c-6.74.0-14.21-1.79-22.16-5.43-2.07-.95-2.98-3.4-2.03-5.47.95-2.07 3.4-2.99 5.47-2.03 10.7 4.9 30.04 10.33 39.34-8.35 9.55-19.22 10.37-54.84 10.68-68.25l.04-1.87c.86-33.82-1.71-61.47-4.2-88.22l-.56-6.03c-.21-2.27 1.46-4.28 3.73-4.49 2.28-.2 4.28 1.46 4.49 3.74l.56 6.02c2.51 26.98 5.1 54.88 4.23 89.19l-.05 1.85c-.32 13.92-1.17 50.87-11.54 71.73-5.77 11.6-15.66 17.61-28.02 17.61z" fill="#070707"/><path d="M251.99 995.88c-.27.0-.54-.03-.81-.08-2.24-.45-3.69-2.62-3.24-4.86 2.11-10.58 1.85-15.8 1.61-20.41-.21-4.11-.41-8 1.05-14.2 2.17-9.16 2.12-15.37 1.99-31.94-.04-4.69-.08-10.19-.08-16.76.0-12.02-1.11-23.78-2.29-36.22-1.82-19.27-3.71-39.2-1.5-61.7 1.64-16.72 4.23-25.62 6.73-34.23 2.78-9.55 5.4-18.57 6.87-38.14 1.39-18.29 4.61-91.35 5.82-118.86.64-14.49.65-14.46 4.68-14.39l-.09 4.13 4.12.29c-.02.4-.19 4.23-.46 10.35-1.21 27.54-4.44 100.69-5.83 119.11-1.54 20.43-4.41 30.28-7.18 39.82-2.51 8.63-4.88 16.78-6.44 32.73-2.13 21.71-.28 41.23 1.5 60.11 1.2 12.64 2.33 24.58 2.33 37 0 6.55.04 12.02.08 16.7.13 16.82.19 23.78-2.21 33.91-1.2 5.05-1.04 8.06-.84 11.87.25 4.84.56 10.86-1.76 22.46-.39 1.96-2.12 3.32-4.04 3.32z" fill="#070707"/><path d="M275.47 789.14c-2.28.0-4.13-1.85-4.13-4.13.0-6.77.63-20.12.66-20.68.11-2.28 1.92-4.14 4.32-3.93 2.28.11 4.03 2.04 3.93 4.32.0.14-.65 13.73-.65 20.3.0 2.28-1.85 4.13-4.13 4.13z" fill="#070707"/><path d="M302.46 777.11c-.48.0-.96-.08-1.44-.26-2.14-.8-3.22-3.18-2.43-5.31.16-.42 3.9-10.45 5.7-14.07 1.02-2.04 3.5-2.87 5.54-1.85 2.04 1.02 2.87 3.5 1.85 5.54-1.34 2.68-4.32 10.48-5.35 13.26-.62 1.66-2.19 2.69-3.87 2.69z" fill="#070707"/><path d="M293.62 986.55c-2.15.0-3.96-1.67-4.11-3.84-.91-13.05.24-26.7 3.42-40.59 2.9-12.67 6.17-25.89 9.47-39.19 4.5-18.16 9.14-36.94 12.85-54.44 3.38-15.9 3.86-31.89 4.34-47.35.48-15.64.93-30.41 4.22-44.38 4.54-19.31 13.64-42.12 23.27-66.27 6.22-15.59 12.65-31.71 17.81-46.96.73-2.16 3.07-3.32 5.24-2.58 2.16.73 3.32 3.07 2.59 5.24-5.24 15.44-11.71 31.67-17.96 47.36-9.52 23.86-18.5 46.39-22.91 65.1-3.1 13.16-3.54 27.53-4 42.74-.48 15.82-.99 32.19-4.51 48.81-3.74 17.64-8.41 36.49-12.92 54.71-3.28 13.26-6.54 26.42-9.43 39.06-3 13.09-4.09 25.93-3.24 38.17.16 2.27-1.56 4.25-3.83 4.4-.1.0-.2.01-.29.01z" fill="#070707"/><path d="M172.39 655.45c-.27.0-.55-.03-.83-.08-24.46-4.97-48.94-15.13-50.39-20.91-.94-3.75.85-8.42 2.43-12.53.41-1.08.8-2.06 1.03-2.84l.94-3.11c2.87-9.43 7.67-25.21 12.57-50.08 9.23-46.85 22.49-87.42 39.39-120.58 1.03-2.03 3.52-2.83 5.55-1.8 2.03 1.03 2.84 3.52 1.8 5.55-16.55 32.47-29.56 72.32-38.64 118.42-4.98 25.28-9.85 41.31-12.77 50.89l-.94 3.08c-.28.94-.73 2.12-1.23 3.42-.61 1.59-1.91 4.98-2.13 6.79 3.72 2.67 19.2 10.57 44.02 15.61 2.23.46 3.68 2.63 3.22 4.87-.4 1.96-2.12 3.31-4.04 3.31zm-43.21-22.98h0z" fill="#070707"/><path d="M390.11 645.94c-14.13.0-30.85-2.55-38.35-5.19-6.28-2.2-11.27-5.39-14.92-7.71-1.08-.69-2.34-1.49-3.21-1.97-.41.37-.88.83-1.26 1.21-2.02 2.01-4.7 4.87-8.86 4.48-13.29-.9-28.45-11.1-38.48-17.85l-1.26-.84c-1.97-1.32-3.77-2.6-5.42-3.76-3.48-2.46-7.88-5.74-9.14-5.39-1.46.25-3.37 1.13-5.21 1.98-3.46 1.59-7.06 3.23-10.7 2.48-16.14-3.28-36.96-2.98-44.78-.52-.37.21-1.43 1.51-2.14 2.37-1.79 2.18-4.03 4.89-7.32 5.76-3.23.87-8.62.96-14.88 1.08-6.47.12-18.52.34-20.64 2.24-5.76 6.54-19.61 13.17-36.29 12.25-2.28-.13-4.02-2.08-3.89-4.35.13-2.27 2.05-4.04 4.36-3.89 14.77.87 26.03-5.39 29.66-9.5 3.77-4.27 12.58-4.74 26.65-5 5.23-.1 10.64-.2 12.91-.8.73-.19 2.2-1.97 3.07-3.03 1.69-2.05 3.43-4.17 6.03-4.99 10.1-3.19 32.49-3.04 48.92.3 1.03.25 3.78-1.05 5.61-1.89 2.32-1.06 4.72-2.17 7.25-2.61 4.56-.76 9.08 2.38 15.31 6.78 1.61 1.13 3.35 2.37 5.27 3.65l1.26.85c8.73 5.87 23.35 15.72 34.43 16.46.47-.11 1.73-1.36 2.48-2.11 1.25-1.24 2.66-2.64 4.46-3.47 3.12-1.43 5.97.39 10.27 3.13 3.31 2.11 7.84 5 13.22 6.89 6.55 2.31 25.28 5.22 39.75 4.63 1.17-.05 1.43-.29 2.75-1.7 1.51-1.62 3.57-3.83 7.73-5.36 4.75-1.76 8.82-1.18 13.13-.57 6.94.98 16.46 2.33 36.71-4.66 2.15-.76 4.5.4 5.25 2.55.74 2.16-.4 4.5-2.56 5.25-22.12 7.64-33.21 6.07-40.56 5.03-3.93-.55-6.32-.9-9.1.13-2.32.86-3.36 1.97-4.56 3.26-1.62 1.74-3.84 4.12-8.42 4.31-1.46.06-2.96.1-4.49.1z" fill="#070707"/><path d="M370.96 662.22c-1.71.0-3.51-.05-5.41-.15-2.28-.12-4.02-2.07-3.9-4.34.12-2.28 1.99-4.08 4.34-3.9 14.23.75 22.1-1.76 31.23-4.68 6.98-2.23 14.19-4.54 24.77-5.63 18.5-1.9 29.8-9.05 32.42-12.15-4.72-4.97-13.48-16.32-13.58-16.45-10.45-13.59-24.04-42.06-34.71-65.35-12.03-26.27-22.36-65.89-25.24-77.41-.55-2.21.79-4.45 3-5 2.21-.57 4.45.79 5.01 3 2.84 11.34 13 50.34 24.74 75.97 10.49 22.89 23.8 50.83 33.75 63.76 3.24 4.2 10.88 13.81 13.85 16.62 1.8 1.71 2.38 4.22 1.53 6.71-2.46 7.21-19.08 16.37-39.92 18.51-9.72 1-16.52 3.18-23.09 5.28-8.35 2.67-16.29 5.21-28.78 5.21zm84.58-29.72h0z" fill="#070707"/><path d="M159.86 623.56c-2.12.0-3.93-1.63-4.11-3.78-3.03-36.34 22.78-145.13 36.01-178.21.85-2.12 3.26-3.13 5.36-2.3 2.12.84 3.15 3.25 2.3 5.36-13 32.51-38.39 139.08-35.44 174.45.19 2.27-1.5 4.27-3.77 4.46-.12.01-.23.02-.35.02z" fill="#070707"/><path d="M205.9 612.13h-.08c-2.28-.04-4.09-1.93-4.05-4.21 1.57-81.96 8.53-145.38 19.1-173.99.79-2.14 3.18-3.24 5.3-2.44 2.14.79 3.23 3.16 2.44 5.3-10.26 27.79-17.04 90.22-18.59 171.29-.04 2.25-1.88 4.05-4.13 4.05z" fill="#070707"/><path d="M267.56 607.11c-2.08.0-3.87-1.56-4.1-3.68-9.55-87.43-3.37-141.76 1.16-166.37.41-2.24 2.57-3.75 4.81-3.31 2.24.41 3.72 2.56 3.31 4.8-4.45 24.16-10.5 77.59-1.07 163.98.25 2.26-1.39 4.3-3.66 4.55-.15.02-.3.03-.45.03z" fill="#070707"/><path d="M331.73 629.14c-1.94.0-3.67-1.38-4.05-3.35-3.78-19.73-8.36-35.07-12.4-48.61-5.14-17.21-9.58-32.07-10.27-49.37-.39-9.68-.04-37.47.23-59.79.13-10.54.24-19.55.24-24.18.0-2.28 1.85-4.13 4.13-4.13s4.13 1.85 4.13 4.13c0 4.65-.11 13.7-.24 24.28-.26 21.05-.62 49.89-.24 59.36.65 16.27 4.74 29.98 9.93 47.34 4.1 13.72 8.74 29.27 12.6 49.42.43 2.24-1.04 4.4-3.28 4.83-.26.05-.52.08-.78.08z" fill="#070707"/><path d="M404.83 636.96c-1.69.0-3.28-1.05-3.88-2.73-6.62-18.38-14.68-35.6-21.8-50.79-9.29-19.82-17.31-36.95-20.22-51.94-2.23-11.5-8.79-62.02-8.79-73.63.0-2.28 1.85-4.13 4.13-4.13s4.13 1.85 4.13 4.13c0 11.15 6.58 61.41 8.64 72.06 2.71 13.99 10.53 30.68 19.59 50.01 7.19 15.35 15.35 32.75 22.09 51.49.77 2.14-.34 4.51-2.49 5.28-.46.17-.93.24-1.4.24z" fill="#070707"/><path d="M178.48 457.08c-.9.0-1.81-.29-2.56-.9-8.13-4.74-7.51-11.76-5.57-16.82.99-2.59 3.02-5.9 5.83-10.48 7.48-12.21 20.01-32.63 21.74-56.61.16-2.28 2.2-3.96 4.42-3.82 2.27.17 3.98 2.14 3.82 4.41-1.88 25.98-15.06 47.49-22.93 60.33-2.38 3.89-4.44 7.25-5.16 9.12-1.74 4.56.23 5.71 1.96 6.73.47.27.83.51 1.03.68 1.79 1.41 2.08 4.02.67 5.8-.81 1.03-2.02 1.56-3.24 1.56z" fill="#070707"/><path d="M384.77 295.21c-.33.0-.65-.04-.98-.12-2.21-.54-3.57-2.78-3.03-4.99 3.45-14.08 4.86-33.63 4.87-33.82.16-2.28 2.14-3.95 4.41-3.83 2.27.16 3.99 2.13 3.83 4.41-.06.83-1.47 20.44-5.09 35.21-.46 1.88-2.15 3.14-4.01 3.14z" fill="#070707"/><path d="M388.2 485.24c-1.64.0-3.19-.98-3.83-2.6-.85-2.12.18-4.52 2.3-5.36 3.49-1.4 3.94-1.58 1.32-18.05-.8-5.02-1.79-11.21-2.77-18.93-1.08-8.41-2.36-17.22-3.71-26.47-2.01-13.77-4.08-28.01-5.88-43.54-1-8.68-.88-20.39.38-35.82.18-2.27 2.15-3.97 4.45-3.78 2.27.18 3.96 2.18 3.78 4.45-1.21 14.89-1.35 26.08-.41 34.21 1.78 15.4 3.85 29.58 5.85 43.3 1.36 9.29 2.65 18.15 3.73 26.61.97 7.61 1.94 13.73 2.73 18.67 2.51 15.79 3.66 22.99-6.41 27.01-.5.2-1.02.3-1.53.3z" fill="#070707"/><path d="M391.16 478.23c-.82.0-1.64-.24-2.36-.74-49.02-34.21-134.62-43.4-144.88-42.49-13.23 1.14-37.11 6.7-48.06 10.54-1.39.48-3.02.95-4.75 1.44-4.02 1.14-9.01 2.55-11.04 4.58-1.61 1.61-4.22 1.61-5.84.0-1.61-1.61-1.61-4.22.0-5.84 3.55-3.55 9.43-5.22 14.63-6.69 1.55-.44 3.02-.85 4.27-1.29 11.39-3.99 36.28-9.77 50.08-10.96 11.06-.94 98.65 7.89 150.32 43.94 1.87 1.31 2.33 3.88 1.02 5.75-.8 1.14-2.09 1.76-3.39 1.76z" fill="#070707"/><path d="M269.77 1080c-11.61.0-22.69-.58-28.08-2.21-12.47-3.8-8.4-19.12-5.7-29.26.66-2.49 1.29-4.82 1.63-6.76.51-2.88 1.18-6.15 1.92-9.79 1.74-8.43 3.89-18.94 5.22-30.88.64-5.78 4.08-25.43 21.42-35.42 5.07-2.92 10.1-3.61 14.95-2.02 8.55 2.8 14.21 12.13 17.45 19.47 1.56 3.52 1.97 8.23 2.5 14.2.28 3.24.6 6.86 1.16 10.83 2.01 14.24 4.54 30.32 4.54 30.32l-8.15 1.28s-2.54-16.15-4.56-30.45c-.58-4.11-.91-7.88-1.21-11.24-.44-5-.83-9.32-1.83-11.6-3.62-8.2-8.05-13.52-12.47-14.96-2.56-.85-5.26-.4-8.26 1.32-13.98 8.06-16.8 24.37-17.34 29.18-1.37 12.32-3.57 23.03-5.34 31.64-.73 3.55-1.39 6.75-1.88 9.55-.37 2.14-1.05 4.71-1.78 7.46-2.59 9.71-4.36 17.87.12 19.23 10.13 3.09 50.9 1.69 60.84.11 4.03-.64 5.04-2.59 5.38-3.23 1.85-3.56.61-10.35-3.42-18.65-.99-2.05-.14-4.52 1.91-5.51 2.06-.98 4.52-.14 5.52 1.91 5.41 11.14 6.52 19.9 3.31 26.06-1.49 2.86-4.68 6.5-11.4 7.57-5.58.89-21.46 1.85-36.47 1.85z" fill="#070707"/><path d="M244.82 1032.01c-.27.0-.54-.03-.81-.08-2.24-.45-3.68-2.62-3.24-4.85 4.07-20.36 10.05-29.85 12.64-32.03 7.03-5.91 19.4-11.12 31.12-6.3 7.96 3.27 17.91 12.31 20.16 36.85.21 2.27-1.46 4.28-3.74 4.49-2.29.16-4.28-1.46-4.49-3.74-1.48-16.16-6.69-26.53-15.07-29.97-7.77-3.18-16.98.21-22.67 4.99-1.05 1.02-6.23 9.19-9.86 27.32-.39 1.97-2.11 3.32-4.04 3.32z" fill="#070707"/><path d="M218.6 304.17c-5.68.0-9.92-.84-12.59-2.89-9.26-7.11-7.78-25.01-6.9-35.71l.1-1.16c.36-4.41.61-9.48.88-14.81 1.38-27.53 3.04-47.54 11.95-54.16 8.39-6.23 23.62-6.13 41.25-6.06 6.54.03 13.31.06 20.01-.21 10.06-.44 21.28-2.82 32.12-5.13 15.18-3.23 28.28-6.03 36.1-2.89 11.3 4.52 13.39 26.66 15.41 48.07.54 5.69 1.04 11.05 1.69 15.43 1.13 7.58 2.78 13.46 4.11 18.19 2.07 7.37 3.71 13.19 1.36 19.25-4.33 11.19-16.9 12.26-32.88 12.51-3.65.05-7.53.07-11.59.08-14.8.05-31.58.11-48.5 2.23-5.04.63-11.2 1.7-17.72 2.84-14.57 2.54-26.31 4.42-34.81 4.42zm28.51-106.55c-13.1.0-24.81.47-30.15 4.44-6.47 4.82-7.77 30.77-8.63 47.95-.27 5.42-.53 10.58-.89 15.06h0l-.1 1.18c-.65 7.83-2 24.11 3.69 28.48 4.29 3.28 27.24-.72 40.95-3.12 6.62-1.16 12.88-2.25 18.12-2.9 17.42-2.18 34.46-2.24 49.5-2.29 4.02-.01 7.87-.03 11.49-.08 17.14-.26 23.29-2.02 25.3-7.23 1.3-3.34.39-6.91-1.61-14.03-1.39-4.95-3.13-11.12-4.33-19.21-.69-4.6-1.2-10.07-1.75-15.87-1.36-14.41-3.63-38.53-10.25-41.18-5.49-2.19-18.62.6-31.31 3.3-10.66 2.27-22.73 4.84-33.49 5.3-6.91.3-13.77.27-20.41.23-2.06-.01-4.11-.02-6.12-.02zm-43.79 67.12h0z" fill="#070707"/><path d="M273.83 394.67c-6.36.0-12.71-.26-18.93-.85-32.48-3.07-50.25-9-55.92-18.65-7.12-12.15-3-33.86.63-53.01 1.79-9.43 3.48-18.34 3.48-24.43.0-2.28 1.85-4.13 4.13-4.13s4.13 1.85 4.13 4.13c0 6.87-1.76 16.15-3.63 25.98-3.2 16.84-7.18 37.81-1.62 47.28 2.3 3.92 11.8 11.03 49.57 14.6 37.55 3.59 81.88-5.5 95.11-11.35 16.49-7.29 11.63-32.6 6.01-61.91-1.6-8.34-3.25-16.96-4.53-25.69-.33-2.26 1.23-4.35 3.49-4.68 2.24-.3 4.35 1.23 4.68 3.49 1.24 8.55 2.88 17.08 4.46 25.33 6.03 31.41 11.72 61.07-10.78 71.01-12.06 5.34-46.21 12.88-80.3 12.88z" fill="#070707"/><g><path d="M234.95 289.61c-.32 4.37 1.13 12.52 1.13 17.31.0 4.79 10.62 3.8 11.97 1.78 1.27-1.9-.16-15.04-.48-20.06-.32-5.02-12.3-3.4-12.62.97z" fill="#cacbcd" fill-rule="evenodd"/><path d="M242.17 314.5c-1.66.0-3.24-.21-4.5-.59-3.58-1.09-5.72-3.7-5.72-6.99.0-1.92-.28-4.68-.55-7.34-.38-3.68-.77-7.48-.56-10.27.38-5.15 6.41-7.98 11.71-7.89 5.28.02 8.87 2.75 9.14 6.96.06.98.17 2.28.29 3.75 1.08 13.13.98 16.66-.49 18.87-1.65 2.48-5.67 3.5-9.32 3.5zm-1.97-8.44c1.04.28 2.97.22 4.22-.06.16-3-.41-9.98-.67-13.2-.09-1.14-.18-2.18-.24-3.06-1.2-.25-3.52.13-4.47.75-.06 2.09.26 5.21.57 8.24.27 2.64.53 5.17.59 7.33zm-5.24-16.45h0z" fill="#070707"/></g><g><path d="M309.86 283.57c-.32 4.37 1.14 12.52 1.13 17.31.0 4.79 10.62 3.8 11.97 1.78 1.27-1.91-.16-15.05-.48-20.06-.32-5.01-12.3-3.4-12.62.97z" fill="#cacbcd" fill-rule="evenodd"/><path d="M317.08 308.46c-1.66.0-3.25-.21-4.5-.59-3.58-1.09-5.72-3.7-5.71-6.99.0-1.92-.28-4.68-.56-7.35-.38-3.68-.77-7.47-.57-10.26h0c.38-5.14 6.28-7.9 11.66-7.9h.08c5.27.03 8.85 2.76 9.12 6.95.06.97.17 2.26.29 3.7 1.07 13.01.97 16.73-.49 18.92-1.66 2.48-5.66 3.5-9.31 3.5zm-1.97-8.44c1.04.29 2.97.22 4.22-.05.16-3.02-.41-10.02-.68-13.26-.09-1.12-.17-2.14-.24-3.01-1.21-.25-3.53.13-4.47.76-.06 2.09.26 5.2.57 8.22.27 2.66.53 5.18.59 7.34z" fill="#070707"/></g><path d="M246.5 196.66c-1.73.0-3.34-1.09-3.92-2.82-.06-.19-5.9-18.91-1.91-26.22 5.06-9.3 42.82-16.7 61.19-11.99 13.22 3.38 13.18 17.24 13.16 26.42.0 1.16.0 2.28.01 3.35.04 2.28-1.77 4.16-4.05 4.2-2.32.12-4.16-1.77-4.2-4.05-.02-1.13-.02-2.31-.01-3.53.03-10.03-.44-16.74-6.94-18.4-17.83-4.55-48.87 3.75-51.93 8.01-1.21 2.23.44 13.3 2.53 19.59.72 2.17-.45 4.5-2.61 5.22-.43.14-.87.21-1.3.21z" fill="#070707"/><path d="M255.54 197.32c-1.73.0-3.34-1.1-3.92-2.83-1.41-4.25-4.41-14.67-1.71-19.62 3.99-7.33 32.2-13.04 46.42-9.39 10.05 2.56 9.5 11.77 9.13 17.86-.08 1.38-.17 2.75-.15 4.05.04 2.28-1.77 4.16-4.05 4.2-2.16-.04-4.16-1.77-4.2-4.05-.03-1.5.06-3.1.16-4.69.43-7.14-.04-8.63-2.93-9.37-12.33-3.13-34.59 2.56-37.26 5.55-.36 1.11.49 7.03 2.43 12.87.72 2.16-.45 4.5-2.62 5.22-.43.15-.87.21-1.3.21z" fill="#070707"/><path d="M215.41 200.41c-2.28.0-4.13-1.85-4.13-4.13v-2.12c-.03-9.32.06-18.82 1.5-23.56 1.07-3.56 5.18-5.4 12.95-8.62 1.88-.78 3.79-1.57 5.56-2.38 1.88-.88 3.91-.78 5.72.24 6.18 3.49 8.96 20.59 10.06 30.48.26 2.26-1.38 4.31-3.64 4.56-2.28.23-4.31-1.38-4.56-3.64-1.14-10.14-3.56-20.39-5.46-23.54-1.47.65-3 1.28-4.52 1.91-2.84 1.18-7.04 2.91-8.36 3.94-1.05 4.36-1.02 14.85-1 20.59v2.14c0 2.28-1.84 4.13-4.12 4.13z" fill="#070707"/><path d="M313.29 188.34c-2.15.0-3.97-1.67-4.11-3.85-.66-9.92-.96-27.24 4.5-31.77 1.6-1.32 3.58-1.77 5.59-1.25 1.87.48 3.89.92 5.87 1.35 8.23 1.79 12.6 2.88 14.3 6.2 2.05 3.99 3.05 11.48 3.94 18.08.32 2.39.62 4.6.92 6.32.41 2.25-1.08 4.39-3.33 4.8-2.23.39-4.39-1.08-4.79-3.33-.33-1.82-.65-4.17-.99-6.7-.68-5.05-1.59-11.86-2.88-14.9-1.49-.78-5.93-1.74-8.94-2.4-1.59-.34-3.21-.7-4.77-1.07-1.31 3.44-1.88 13.95-1.2 24.13.15 2.27-1.57 4.24-3.85 4.39-.09.0-.19.01-.28.01z" fill="#070707"/><path d="M235.27 166.6c-1.06.0-2.12-.4-2.92-1.21-1.61-1.61-1.61-4.23.0-5.84.6-.6 1.38-1.52 2.25-2.53 3-3.48 5.48-6.25 7.94-7.57 9.96-5.36 41.01-8.77 59.43-7.81 10.41.54 13.18 6.17 14.84 9.54.33.66.63 1.31 1.02 1.87 1.32 1.86.88 4.43-.97 5.76-1.86 1.32-4.43.89-5.76-.97-.64-.9-1.17-1.92-1.7-3-1.38-2.81-2.3-4.65-7.87-4.95-18.42-.98-47.23 2.61-55.09 6.84-1.31.7-3.99 3.82-5.59 5.68-1.03 1.2-1.96 2.27-2.67 2.98-.8.81-1.86 1.21-2.92 1.21z" fill="#070707"/><path d="M466.7 241.66c-1.17.0-2.34-.5-3.16-1.47-8.9-10.55-22.02-17.79-37.22-26.19-8.97-4.95-18.24-10.07-27.98-16.54-3.61-2.4-6.81-4.56-9.73-6.54-18.3-12.39-24.46-16.57-50.16-21.12-2.24-.4-3.74-2.54-3.34-4.78.39-2.24 2.54-3.75 4.78-3.34 27.44 4.85 34.49 9.64 53.35 22.41 2.89 1.96 6.07 4.11 9.66 6.49 9.47 6.28 18.59 11.32 27.42 16.19 15.91 8.79 29.65 16.38 39.54 28.09 1.47 1.74 1.25 4.34-.49 5.82-.78.66-1.72.97-2.66.97z" fill="#070707"/><path d="M468.64 294.08c-1.53.0-3.12-.07-4.76-.22-26.17-2.38-56.21-12.62-75.61-21.41-2.08-.95-3-3.39-2.06-5.47.94-2.07 3.38-2.99 5.46-2.06 18.78 8.51 47.81 18.42 72.95 20.71 8.68.8 15.16-.88 19.24-4.97 5.94-5.95 5.74-15.92 5.37-19.92-.52-5.74-5.73-19.02-17.51-30.29-8.62-8.26-33.03-23.47-49.18-33.53-7.22-4.5-12.93-8.06-15.42-9.86-2.21-1.6-3.06-1.44-3.07-1.45-.67.13-1.98 2.34-2.69 3.53-.41.69-.83 1.39-1.26 2.04-1.25 1.91-3.82 2.43-5.72 1.17-1.91-1.25-2.43-3.82-1.17-5.72.36-.55.71-1.13 1.06-1.72 1.73-2.91 3.88-6.52 8.11-7.4 2.96-.61 6.09.33 9.58 2.85 2.26 1.63 8.14 5.3 14.95 9.54 17.42 10.86 41.28 25.73 50.52 34.58 13.5 12.92 19.37 28.32 20.02 35.51.58 6.41.35 18.39-7.76 26.5-5.03 5.04-12.1 7.57-21.06 7.57z" fill="#070707"/><path d="M400.15 186.62c-.64.0-1.3-.15-1.91-.47-7.26-3.8-11.79-8.2-15.79-12.08-2.86-2.78-5.34-5.18-8.34-6.87-3.99-2.25-15.2-3.56-22.41 1.89-1.81 1.37-4.4 1.02-5.78-.8-1.38-1.82-1.02-4.41.8-5.78 9.98-7.56 24.67-6.32 31.45-2.5 3.93 2.21 6.9 5.1 10.04 8.14 3.77 3.66 7.66 7.44 13.87 10.68 2.02 1.06 2.8 3.55 1.74 5.57-.74 1.41-2.17 2.21-3.66 2.21z" fill="#070707"/><path d="M249.08 155.32c-2.21.0-4.03-1.74-4.12-3.97-.21-5.45-1.13-15.64-1.14-15.74-.2-2.27 1.47-4.28 3.74-4.48 2.26-.15 4.28 1.47 4.48 3.74.04.42.95 10.5 1.17 16.16.09 2.28-1.69 4.2-3.96 4.28-.05.0-.11.0-.16.0z" fill="#070707"/><path d="M308.87 151.7c-2.24.0-4.08-1.8-4.13-4.05-.1-5.76.43-17.29.45-17.78.11-2.27 2.02-4.11 4.32-3.93 2.28.11 4.04 2.04 3.93 4.32.0.12-.54 11.75-.44 17.24.04 2.28-1.77 4.16-4.05 4.2h-.08z" fill="#070707"/><path d="M20.98 571.43c-2.71.0-4.43-1.1-5.43-2.1-5.64-5.63-14.09-16.51-15.29-22.26-1.18-5.7 1.92-10.83 3.77-13.89.29-.48.55-.9.75-1.26 2.7-5.06 13.43-22.07 17.24-27.9 2.52-3.85 5.14-7.14 7.67-10.33 2.77-3.48 5.38-6.77 7.31-10.16 1.13-1.98 3.65-2.67 5.63-1.55 1.98 1.13 2.68 3.65 1.55 5.63-2.24 3.95-5.05 7.48-8.02 11.21-2.42 3.04-4.92 6.19-7.22 9.71-3.64 5.57-14.32 22.49-16.87 27.27-.26.47-.59 1.03-.96 1.65-1.3 2.16-3.28 5.41-2.75 7.93.58 2.77 6.65 11.62 12.75 17.8h.02c2.02.0 7.98-3.33 10.63-7.55 1.63-2.59 1.13-4.97-2.15-10.17-1.21-1.93-.63-4.48 1.29-5.69 1.94-1.21 4.48-.64 5.69 1.3 2.46 3.91 7.04 11.18 2.15 18.96-3.53 5.62-10.94 10.7-16.53 11.32-.43.05-.83.07-1.21.07zm.41-7.94h0z" fill="#070707"/><path d="M22.01 550.41c-1.48.0-2.91-.8-3.65-2.19-1.07-2.02-.3-4.51 1.71-5.58 8.67-4.6 14.57-13.33 20.27-21.77l.55-.82c1.28-1.89 3.84-2.39 5.73-1.11 1.89 1.27 2.39 3.84 1.11 5.73l-.55.82c-5.98 8.85-12.75 18.89-23.25 24.45-.62.32-1.28.48-1.93.48z" fill="#070707"/><path d="M24.95 554.65c-1.74.0-3.35-1.1-3.92-2.84-.16-.36-1.08-1.63-1.89-2.6-1.47-1.74-1.25-4.34.49-5.82 1.74-1.46 4.35-1.24 5.81.49 1.02 1.21 2.82 3.51 3.43 5.36.71 2.17-.47 4.5-2.63 5.21-.43.14-.86.2-1.29.2z" fill="#070707"/><path d="M33.07 569.33c-1.94.0-3.84-.37-5.56-1.11-2.09-.91-3.06-3.34-2.15-5.43.91-2.09 3.33-3.06 5.43-2.15 2.02.88 5.07.37 7.09-1.19 1.8-1.38 3.23-3.38 4.02-5.63.76-2.15 3.11-3.27 5.26-2.53 2.15.76 3.28 3.11 2.53 5.26-1.31 3.75-3.72 7.11-6.78 9.45-2.83 2.17-6.39 3.32-9.84 3.32z" fill="#070707"/><path d="M44.35 545.42c-1.19.0-2.36-.51-3.17-1.49-.09-.11-2.08-2.34-6.58-4.65-2.03-1.04-2.83-3.53-1.78-5.56 1.04-2.03 3.53-2.83 5.56-1.78 6.15 3.16 8.88 6.39 9.18 6.75 1.44 1.76 1.17 4.36-.59 5.81-.77.62-1.69.93-2.61.93z" fill="#070707"/><path d="M51.21 539.71c-1.27.0-2.53-.59-3.34-1.69-3.39-4.65-4.05-4.23-4.82-3.78-1.94 1.19-4.48.59-5.68-1.35-1.19-1.94-.59-4.48 1.36-5.68 7.92-4.86 13.45 2.71 15.81 5.94 1.34 1.84.94 4.42-.9 5.77-.73.54-1.59.8-2.43.8z" fill="#070707"/><path d="M50.76 559.96c-3.68.0-6.47-.95-8.32-2.82-3.97-4.02-4.5-7.72-4.25-10.13.33-3.12 2.14-5.9 5.09-7.83 4.88-3.19 10.39-6.02 10.63-6.14 2.03-1.03 4.51-.24 5.56 1.8 1.04 2.03.24 4.51-1.79 5.56-.05.03-5.37 2.76-9.87 5.7-.48.32-1.32.98-1.4 1.8-.09.88.6 2.13 1.9 3.45 2.21 1.54 13.25-1.12 15.67-4.46 2.74-3.8 2.16-11.55 1.4-18.51-.32-2.95-.88-5.77-1.42-8.5-1.47-7.43-2.86-14.45.89-21.74 1.04-2.03 3.53-2.82 5.56-1.78 2.03 1.05 2.82 3.54 1.78 5.56-2.43 4.72-1.42 9.85-.13 16.35.58 2.9 1.17 5.91 1.53 9.21.97 8.87 1.54 18.06-2.91 24.24-3.37 4.66-11.81 7.69-18.04 8.18-.64.05-1.27.07-1.86.07z" fill="#070707"/><path d="M53.75 539.78c-2.23.0-4.07-1.78-4.13-4.03-.08-3.35-.23-11.37.04-13.29.32-2.25 2.43-3.86 4.67-3.49 2.26.32 3.82 2.42 3.5 4.68-.12 1.04-.08 7 .04 11.92.05 2.28-1.75 4.17-4.03 4.22h-.1z" fill="#070707"/><path d="M253.63 138.61c-7.29.0-16.3-3.18-21.38-9.3-9.35-11.27-16.33-31.25-16.33-41.6.0-2.28 1.85-4.13 4.13-4.13s4.13 1.85 4.13 4.13c0 8.58 6.44 26.69 14.43 36.33 5.13 6.19 16.57 7.41 18.87 5.64 1.81-1.38 4.4-1.05 5.79.76 1.39 1.81 1.05 4.4-.75 5.79-2.07 1.6-5.27 2.38-8.88 2.38z" fill="#070707"/><path d="M270.52 139.47h-.06c-15.24-.2-29.46-18.47-32.69-34.74-.44-2.24 1.01-4.41 3.25-4.85 2.26-.42 4.41 1.01 4.85 3.25 2.5 12.6 14.08 27.94 24.7 28.08 2.28.03 4.1 1.9 4.07 4.18-.03 2.26-1.87 4.07-4.13 4.07z" fill="#070707"/><path d="M283.94 139.11c-2.2.0-4.03-1.74-4.12-3.96-.09-2.27 1.67-4.19 3.94-4.29h0c.66-.03 16.3-1.03 21.09-17.98.62-2.2 2.9-3.47 5.09-2.85 2.19.62 3.47 2.9 2.85 5.09-5.15 18.27-21.01 23.68-28.68 23.99-.06.0-.11.0-.17.0z" fill="#070707"/><path d="M300.02 136.95c-1.87.0-3.75-.29-5.63-.87-2.18-.67-3.4-2.98-2.73-5.17.67-2.17 2.97-3.4 5.16-2.72 3.45 1.08 6.7.44 9.93-1.9 10.63-7.73 17.96-31.88 18.14-44.47.03-2.27 1.95-3.83 4.19-4.07 2.28.03 4.1 1.91 4.07 4.19-.19 12.82-7.54 40.85-21.55 51.02-3.64 2.64-7.57 3.99-11.59 3.99z" fill="#070707"/><path d="M218.8 39.57c-.6.0-1.22-.13-1.8-.42-2.05-.99-2.9-3.47-1.91-5.52 13.6-27.97 46.18-40.92 74.21-29.48 2.11.86 3.12 3.27 2.26 5.38-.86 2.11-3.27 3.13-5.38 2.26-21.04-8.58-50.61-1.42-63.66 25.45-.71 1.47-2.18 2.32-3.71 2.32z" fill="#070707"/><path d="M326.5 33.91c-1.91.0-3.63-1.34-4.04-3.29-1.02-4.89-5.08-16.43-20.79-17.88-2.27-.21-3.94-2.22-3.73-4.49.21-2.27 2.26-3.95 4.49-3.73 14.71 1.36 25.22 10.48 28.12 24.42.47 2.23-.97 4.42-3.2 4.88-.28.06-.57.09-.85.09z" fill="#070707"/><path d="M276.27 84.8c-2.11.0-3.91-1.61-4.11-3.76-.01-.13-1.15-12.89-1.55-22.45-.12-2.84.48-5.49 1-7.83.5-2.22.97-4.32.78-6.25-.06-.54-.47-1.05-1.47-2.16-1.06-1.17-2.38-2.64-3.15-4.77-2.14-5.88 1.07-12.06 3.41-16.58l.74-1.44c1.02-2.04 3.5-2.86 5.54-1.85 2.04 1.02 2.87 3.5 1.85 5.54l-.79 1.55c-1.54 2.98-3.88 7.48-2.98 9.96.23.62.83 1.29 1.53 2.07 1.36 1.51 3.22 3.57 3.55 6.86.33 3.25-.35 6.24-.94 8.87-.45 2.02-.88 3.93-.81 5.69.39 9.36 1.52 21.92 1.53 22.05.2 2.27-1.47 4.28-3.74 4.48-.12.01-.25.02-.37.02z" fill="#070707"/><path d="M224.45 89.21c-4.68.0-8.86-2.7-9.4-3.07-1.89-1.27-2.39-3.84-1.12-5.73 1.27-1.89 3.83-2.39 5.72-1.12 1.35.89 4.04 2.02 5.53 1.58.65-.19 1.14-.85 2.09-2.33.63-.97 1.34-2.06 2.32-3.05 2.05-2.04 4.56-2.23 6.21-2.35.51-.04 1.27-.09 1.48-.2 1.52-2.05 2.38-4.8 2.16-6.99-.01.13-.1-.04-.19-.22-.53-1.08-1.42-2.89-.85-5.11 1.71-6.84 1.38-11.71-.97-14.46-3.2-3.73-5.31-3.63-9.15-3.44-1.22.06-2.46.11-3.75.06-4.17-.17-7.15-1.97-9.13-3.16-.17-.1-.33-.2-.48-.3-2.39 1.48-7.01 5.51-7.95 10.14-.46 2.23-2.65 3.65-4.87 3.21-2.23-.46-3.67-2.64-3.21-4.87 1.75-8.51 9.94-15.05 13.94-16.66 2.72-1.08 5.01.3 6.84 1.4 1.55.93 3.15 1.9 5.21 1.98 1.03.05 2.03-.01 3.01-.06 4.44-.23 9.98-.49 15.82 6.32 4.09 4.78 5.06 11.88 2.88 21.14.03.05.06.11.08.17.37.74.87 1.76.99 3.05.42 4.25-.99 9.02-3.79 12.76-2.33 3.1-5.54 3.34-7.45 3.48-.43.03-1.07.08-1.27.15-.08.17-.5.82-.95 1.51-1.29 1.99-3.06 4.72-6.75 5.78-1 .29-2.01.41-3 .41zm21.96-26.61s0 .02.0.02c0 0 0-.02.0-.02z" fill="#070707"/><path d="M323.16 84.76c-1.15.0-2.26-.13-3.3-.43-3.69-1.05-5.46-3.78-6.75-5.77-.45-.69-.87-1.34-1.24-1.71.09.13-.56.08-.98.05-1.92-.14-5.13-.38-7.45-3.48-2.8-3.73-4.21-8.5-3.79-12.77.13-1.28.63-2.3.99-3.04.03-.05.05-.11.08-.17-2.18-9.25-1.21-16.35 2.88-21.13 5.83-6.79 11.35-6.54 15.81-6.32.98.05 1.98.11 3.02.06 2.06-.09 3.66-1.05 5.21-1.98 1.84-1.11 4.14-2.49 6.84-1.4 4.15 1.66 8.73 7.85 9.24 8.55 1.34 1.84.93 4.42-.91 5.76-1.84 1.35-4.43.94-5.76-.91-1.65-2.27-3.57-4.21-4.76-5.17-.12.08-.25.15-.38.23-1.98 1.19-4.96 2.98-9.12 3.16-1.29.05-2.53.0-3.76-.06-3.82-.19-5.94-.28-9.14 3.45-2.35 2.75-2.68 7.62-.97 14.47.56 2.22-.33 4.03-.86 5.11-.09.17-.18.34-.24.52-.16 1.88.7 4.63 2.24 6.68.19.1.95.16 1.46.2 1.66.12 4.17.31 6.21 2.35.99.99 1.7 2.09 2.33 3.06.96 1.47 1.44 2.14 2.09 2.33 1.92.53 6.59-.77 9.61-2.72 1.91-1.24 4.47-.69 5.7 1.24 1.23 1.92.68 4.47-1.24 5.7-2.92 1.88-8.27 4.14-13.04 4.14zm-22.26-26.61h0z" fill="#070707"/><path d="M81.36 204.34c-.65.0-1.28-.01-1.91-.04-2.28-.11-4.04-2.04-3.93-4.32.11-2.28 2.05-4.15 4.32-3.93 21.55.88 58.58-19.03 82.62-44.67 21.84-23.29 41.36-53.31 45.45-61.34 1.08-2.12 2.44-4.46 3.86-6.92 4.64-8 10.41-17.95 8.77-25.31-.47-2.1-1.78-5.77-5.36-6.78-3.1-.88-12.35-.84-31.13 18.51-3.8 3.91-8.8 9.23-14.58 15.36-21.3 22.63-53.5 56.84-74.99 73.44-8.51 6.57-17.99 10.84-26.62 13.6 4.14-.83 8.64-2.3 13.4-4.69 2.03-1.01 4.52-.19 5.54 1.84 1.02 2.04.19 4.52-1.85 5.54-26.18 13.09-46.14 2.36-46.97 1.9-1.63-.9-2.45-2.78-2.01-4.59.44-1.81 2.04-3.1 3.9-3.15.28.0 28.74-.92 49.55-17 20.98-16.2 52.9-50.12 74.03-72.56 5.81-6.18 10.84-11.52 14.67-15.46 16.08-16.57 29.32-23.54 39.3-20.7 5.63 1.59 9.7 6.3 11.17 12.93 2.34 10.51-4.33 22.01-9.69 31.25-1.35 2.33-2.63 4.53-3.65 6.53-4.38 8.6-24.07 39.01-46.78 63.23-25.24 26.92-62.99 47.32-87.13 47.32z" fill="#070707"/><path d="M17.81 280.82c-.08.0-.16.0-.24.0-2.02-.12-3.66-1.68-3.87-3.7-.09-.92-2.24-22.91 6.66-47.06 7.93-21.51 23.33-40.32 47.08-57.52 1.85-1.35 4.43-.93 5.76.92 1.34 1.84.92 4.42-.92 5.76-22.38 16.21-36.83 33.77-44.18 53.69-1.3 3.52-2.34 6.99-3.17 10.36 4.96-10.68 11.66-21.53 20.27-28.28 1.8-1.4 4.39-1.08 5.79.7 1.41 1.8 1.09 4.39-.7 5.8-19.11 14.96-28.37 55.67-28.46 56.08-.42 1.9-2.1 3.23-4.03 3.23z" fill="#070707"/><path d="M39.64 300.94c-1.07.0-2.13-.42-2.93-1.22-.89-.89-21.68-22.37-10.81-58.36.66-2.18 2.98-3.43 5.14-2.76 2.18.66 3.42 2.96 2.76 5.14-4.28 14.19-2.93 25.77-.15 34.22.14-12.82 2.87-30.27 13.59-47.52 20.14-32.42 46.34-46.97 69.32-58.07 2.04-.99 4.52-.13 5.51 1.92.99 2.05.13 4.52-1.92 5.51-21.93 10.59-46.93 24.45-65.9 54.99-18.37 29.56-10.7 60.67-10.62 60.98.46 1.81-.34 3.7-1.96 4.62-.64.37-1.34.54-2.04.54z" fill="#070707"/><path d="M184.99 85.17c-.84.0-1.69-.26-2.43-.79-1.84-1.34-2.25-3.92-.91-5.77 6.09-8.37 27.12-35.15 42.04-28.45 2.08.93 3.01 3.38 2.07 5.46-.94 2.07-3.37 2.99-5.46 2.07-4.85-2.19-17.68 6.12-31.98 25.77-.81 1.11-2.07 1.7-3.34 1.7z" fill="#070707"/><path d="M497 213.94c-1.41.0-2.75-.73-3.51-1.97-.22-.35-22.03-35.45-45.77-45.68-25.06-10.82-36.15-16.04-53.27-28.11-27.18-19.15-52.59-44.93-58.61-52.45-1.41-1.76-3.11-3.66-4.9-5.66-7.12-7.97-15.97-17.87-15.82-28.63.1-6.79 3.13-12.23 8.32-14.93 9.22-4.79 23.58-.66 42.68 12.31 7.64 5.18 15.69 12.25 24.22 19.72 15.49 13.58 33.05 28.97 52.88 37.24 33.02 13.79 71.86 2.54 72.24 2.43 1.76-.55 3.67.18 4.66 1.74.99 1.55.83 3.57-.39 4.96-1.18 1.34-29.65 32.5-87.96 9.45-2.12-.84-3.16-3.24-2.32-5.35.84-2.12 3.24-3.17 5.36-2.32 28.73 11.35 49.23 8.51 62.1 3.39-15.31 1.71-36.79 1.71-56.87-6.66-21.08-8.8-39.18-24.66-55.14-38.66-8.33-7.3-16.2-14.2-23.42-19.1-22.3-15.13-31.35-13.3-34.23-11.82-3.3 1.72-3.85 5.58-3.88 7.72-.11 7.54 7.55 16.12 13.71 23.01 1.9 2.13 3.7 4.14 5.19 6 5.61 7.02 30.79 32.45 56.92 50.86 16.48 11.62 27.29 16.71 51.78 27.28 16.03 6.91 30.66 23.16 39.81 35.06-1.56-5.24-4.25-11.11-8.84-16.52-1.48-1.74-1.26-4.34.48-5.82 1.74-1.48 4.34-1.26 5.82.47 14.49 17.07 12.94 37.39 12.87 38.25-.15 1.78-1.42 3.25-3.16 3.67-.32.08-.64.11-.95.11z" fill="#070707"/><path d="M355.28 63.55c-.91.0-1.83-.3-2.59-.92-4.5-3.63-16.24-11.95-27.97-10.7-2.29.24-4.3-1.4-4.54-3.67-.24-2.27 1.4-4.3 3.67-4.54 14.27-1.55 27.45 7.17 34.03 12.49 1.77 1.43 2.05 4.03.62 5.81-.82 1-2.01 1.53-3.21 1.53z" fill="#070707"/><path d="M543.1 248.7h-.01c-1.95.0-3.64-1.38-4.03-3.3-.09-.42-9.34-43.07-51.52-62-2.08-.94-3.01-3.38-2.07-5.46.93-2.08 3.37-3 5.46-2.08 27.76 12.46 42.33 33.81 49.62 49.25-.33-24.31-9.01-66.65-60.36-91.93-2.05-1-2.89-3.48-1.88-5.53 1.01-2.05 3.49-2.89 5.53-1.88 41.5 20.43 56.53 51.86 61.83 74.63 5.73 24.62 1.67 44.21 1.5 45.03-.41 1.91-2.09 3.26-4.04 3.26z" fill="#070707"/><path d="M224.35 115.28c-11.02.0-17.34-7.64-17.34-20.97.0-2.28 1.85-4.13 4.13-4.13s4.13 1.85 4.13 4.13c0 12.72 6.6 12.72 9.08 12.72 2.28.0 4.13 1.85 4.13 4.13s-1.85 4.13-4.13 4.13z" fill="#070707"/><path d="M326.69 107.51c-2.28.0-4.13-1.85-4.13-4.13s1.85-4.13 4.13-4.13c6.17.0 8.88-7.12 9.36-13.79.16-2.27 2.19-3.89 4.41-3.82 2.27.16 3.99 2.14 3.82 4.41-.94 13.03-7.84 21.45-17.59 21.45z" fill="#070707"/><path d="M365.95 340.98c-1 0-2-.36-2.79-1.09-1.68-1.54-1.79-4.15-.24-5.83 8.77-9.53 17.09-38.11 19.09-50.76.35-2.25 2.5-3.77 4.72-3.43 2.25.36 3.79 2.47 3.43 4.72-2.07 13.07-10.66 43.64-21.16 55.06-.81.89-1.93 1.33-3.04 1.33z" fill="#070707"/><path d="M367.57 350.71c-1.13.0-2.25-.46-3.07-1.37-1.52-1.69-1.39-4.31.31-5.83 1.31-1.17 2.59-2.26 3.85-3.33 10.6-8.98 18.96-16.07 19.34-66.9.02-2.27 1.86-4.1 4.13-4.1h.03c2.28.02 4.11 1.88 4.1 4.16-.41 54.63-10.54 63.2-22.26 73.14-1.2 1.02-2.42 2.05-3.67 3.17-.79.71-1.78 1.06-2.76 1.06z" fill="#070707"/><path d="M151.99 627.23l14.21-7.56 8.81 31.84-46.23-15.11 23.21-9.18z" fill="#070707" fill-rule="evenodd"/><path d="M266.22 658.17l-6.66-47.71 11.7-4.28-.18 42.28-4.86 9.71z" fill="#070707" fill-rule="evenodd"/><path d="M369.92 641.27h26.07l9.18-5.84 11.13-2.26s37.69-3.09 37.29.68c-.39 3.76-38.85 14.39-38.85 14.39l-27.08 8.65-22.28.45 4.55-16.07z" fill="#070707" fill-rule="evenodd"/><path d="M222.23 385.67s31.8 4.46 58.2 3.98c26.4-.47 47.4-5.86 47.4-5.86.0.0-37.9 21.35-64.3 21.82-26.4.47-41.3-19.94-41.3-19.94z" fill="#070707" fill-rule="evenodd"/></g></g></g></g></svg>