<svg id="_Слой_2" xmlns="http://www.w3.org/2000/svg" width="1080" height="581.61" viewBox="0 0 1080 581.61"><g id="Smile07_549034944"><g id="Smile07_549034944-2"><g><path d="M1041.79 274.92c0-42.03-34.16-76.1-76.31-76.1-.95.0-1.9.02-2.85.06.0-.02.0-.04.0-.06.0-42.03-34.16-76.1-76.31-76.1-11.58.0-22.56 2.58-32.39 7.18-9.57-31.12-38.62-53.75-72.96-53.75-7.58.0-14.89 1.11-21.8 3.16-33.29-37.79-82.11-61.65-136.51-61.65-33.09.0-64.11 8.83-90.83 24.24-26.72-15.41-57.74-24.24-90.83-24.24-73.52.0-136.84 43.56-165.43 106.21-.48.0-.95-.02-1.42-.02-46.37.0-88.67 17.33-120.77 45.84-8-2.84-16.61-4.39-25.58-4.39-42.14.0-76.31 34.07-76.31 76.1.0 1.82.07 3.62.19 5.4-28.14 11.21-48.03 38.63-48.03 70.7.0 24.95 12.04 47.09 30.64 60.97-1.78 6.45-2.73 13.23-2.73 20.24.0 42.03 34.16 76.1 76.31 76.1 22.55.0 42.81-9.75 56.78-25.26 4.91 3.71 10.02 7.18 15.31 10.38 8.73 32.44 38.42 56.33 73.7 56.33 3.99.0 7.91-.31 11.74-.9 13.51 21.35 37.38 35.54 64.57 35.54 22.14.0 42.08-9.41 56.02-24.43 29.99 21.79 66.91 34.65 106.85 34.65 49.04.0 93.54-19.39 126.22-50.88 25.51 13.62 54.66 21.35 85.62 21.35 61.59.0 116.01-30.57 148.87-77.32 1.24.06 2.49.09 3.75.09 24.02.0 45.45-11.07 59.44-28.38 12.78 9.61 28.68 15.32 45.92 15.32 42.14.0 76.31-34.07 76.31-76.1.0-16.05-4.99-30.94-13.5-43.22 10.24-12.95 16.35-29.3 16.35-47.07z" fill="#fcfcfc"/><path d="M492.82 564.78c-38.41.0-75.14-11.57-106.41-33.5-14.93 14.84-35.33 23.28-56.46 23.28-26.82.0-51.45-13.13-66.36-35.25-3.29.41-6.62.61-9.95.61-35.63.0-67.01-23.61-76.83-57.61-3.97-2.45-7.9-5.09-11.74-7.88-15.01 15.32-35.67 24.04-57.21 24.04-44.09.0-79.96-35.77-79.96-79.74.0-6.36.75-12.68 2.25-18.82C10.96 364.67.0 342.07.0 317.51c0-16.26 4.88-31.91 14.11-45.25 8.51-12.3 20.15-21.87 33.78-27.82-.04-1.02-.06-2.03-.06-3.02.0-43.97 35.87-79.75 79.96-79.75 8.46.0 16.78 1.31 24.76 3.9 33.5-29.07 76.24-45.14 120.69-45.36 14.59-30.92 37.43-57.16 66.19-75.99 30.18-19.76 65.3-30.21 101.57-30.21 31.87.0 63.22 8.19 90.83 23.69 27.61-15.51 58.96-23.69 90.83-23.69 52.52.0 102.58 22.26 137.72 61.17 6.7-1.78 13.61-2.68 20.59-2.68 17.45.0 34.04 5.51 47.96 15.93 12.37 9.26 21.91 22.12 27.19 36.53 9.58-3.91 19.72-5.89 30.2-5.89 42.86.0 77.96 33.81 79.87 76.1 43.76.39 79.24 36.01 79.24 79.74.0 17.2-5.35 33.47-15.51 47.21 8.29 12.85 12.67 27.69 12.67 43.08.0 43.97-35.87 79.74-79.96 79.74-16.36.0-31.95-4.84-45.31-14.03-15.21 17.26-36.9 27.09-60.05 27.09-.63.0-1.27.0-1.92-.02-16.63 23.13-38.64 42.36-63.78 55.7-26.57 14.1-56.63 21.56-86.92 21.56s-58.89-7.1-85-20.56c-34.49 32.32-79.42 50.09-126.84 50.09zM385.5 521.63l2.62 1.9c30.57 22.21 66.78 33.95 104.71 33.95 46.4.0 90.32-17.71 123.69-49.86l1.91-1.84 2.34 1.25c25.64 13.69 54.65 20.93 83.9 20.93 58.01.0 112.54-28.33 145.88-75.77l1.16-1.64 2.01.1c1.2.06 2.4.09 3.57.09 22.09.0 42.72-9.85 56.6-27.02l2.22-2.74 2.82 2.12c12.68 9.54 27.8 14.58 43.72 14.58 40.06.0 72.66-32.5 72.66-72.45.0-14.79-4.44-29.02-12.85-41.14l-1.54-2.22 1.68-2.12c10.18-12.88 15.56-28.37 15.56-44.81.0-39.95-32.59-72.45-72.66-72.45-.81.0-1.7.02-2.71.06l-3.78.14v-3.88c0-39.92-32.59-72.41-72.66-72.41-10.78.0-21.15 2.3-30.84 6.84l-3.8 1.78-1.23-4.01c-9.42-30.61-37.34-51.17-69.47-51.17-7.06.0-14.04 1.01-20.76 3.01l-2.23.66-1.54-1.75c-33.82-38.39-82.58-60.41-133.77-60.41-31.29.0-62.07 8.21-89.01 23.75l-1.82 1.05-1.82-1.05c-26.94-15.54-57.72-23.75-89.01-23.75-69.63.0-133.26 40.85-162.11 104.08l-.98 2.15-2.36-.02c-.22.0-.44.0-.66.0-.25.0-.49.0-.74.0-43.7.0-85.73 15.95-118.35 44.92l-1.61 1.43-2.03-.72c-7.81-2.77-16.01-4.18-24.36-4.18-40.06.0-72.66 32.5-72.66 72.45.0 1.67.06 3.4.18 5.14l.19 2.66-2.48.99c-27.78 11.06-45.73 37.48-45.73 67.31.0 23.05 10.63 44.21 29.17 58.04l2 1.49-.66 2.4c-1.73 6.26-2.6 12.74-2.6 19.27.0 39.95 32.6 72.45 72.66 72.45 20.59.0 40.29-8.77 54.06-24.05l2.24-2.48 2.67 2.01c4.86 3.67 9.91 7.09 15 10.18l1.25.76.38 1.41c8.5 31.57 37.35 53.63 70.18 53.63 3.74.0 7.51-.29 11.18-.85l2.36-.36 1.28 2.02c13.41 21.19 36.4 33.84 61.49 33.84 20.18.0 39.62-8.48 53.34-23.26l2.2-2.37z" fill="#070707"/></g><path d="M979.56 175.31c-.17.0-.33-.01-.5-.03-2-.27-3.39-2.11-3.12-4.11 2.87-20.88-3.15-43.28-16.1-59.91-12.95-16.63-33.19-27.96-54.13-30.3-2-.22-3.44-2.03-3.22-4.03.22-2 2.03-3.45 4.03-3.22 23.2 2.59 44.74 14.65 59.08 33.07 14.34 18.42 20.75 42.26 17.57 65.39-.25 1.83-1.82 3.15-3.61 3.15z" fill="#070707"/><path d="M1056.66 177.98c-.15.0-.31.0-.46-.03-2-.25-3.42-2.08-3.16-4.08 4.18-33.12-7.91-68.33-31.55-91.9-23.65-23.56-58.9-35.53-92.01-31.24-2 .26-3.83-1.15-4.09-3.15-.26-2 1.15-3.83 3.15-4.09 35.3-4.58 72.89 8.18 98.1 33.3 25.21 25.12 38.1 62.67 33.64 97.98-.23 1.84-1.8 3.19-3.62 3.19z" fill="#070707"/><path d="M1076.35 119.19c-1.67.0-3.18-1.16-3.56-2.86-11.73-53.03-55.17-96.88-108.08-109.12-1.96-.45-3.19-2.41-2.73-4.38.45-1.96 2.41-3.19 4.38-2.73 27.14 6.28 52.36 20.57 72.93 41.33 20.57 20.76 34.62 46.12 40.64 73.32.44 1.97-.81 3.92-2.77 4.35-.27.06-.53.09-.79.09z" fill="#070707"/><path d="M249.24 530.62c-.06.0-.11.0-.17.0-30.97-1.44-60.82-18.41-77.9-44.28-1.11-1.68-.65-3.95 1.03-5.06 1.68-1.11 3.95-.65 5.06 1.03 15.82 23.96 43.47 39.68 72.15 41.01 2.01.09 3.57 1.8 3.47 3.81-.09 1.96-1.71 3.48-3.64 3.48z" fill="#070707"/><path d="M208.7 562.59c-.61.0-1.23-.15-1.8-.48-20.5-11.63-37.59-29.65-48.14-50.72-.9-1.8-.17-3.99 1.63-4.9 1.8-.9 3.99-.17 4.9 1.63 9.91 19.79 25.97 36.72 45.22 47.64 1.75 1 2.37 3.22 1.37 4.97-.67 1.18-1.91 1.85-3.18 1.85z" fill="#070707"/><path d="M167.08 581.61c-1.22.0-2.41-.61-3.1-1.72l-31.26-50.13c-1.07-1.71-.54-3.96 1.16-5.03 1.71-1.07 3.96-.54 5.03 1.16l31.26 50.13c1.07 1.71.54 3.96-1.16 5.03-.6.37-1.27.55-1.93.55z" fill="#070707"/></g></g></svg>