<svg id="_Слой_2" xmlns="http://www.w3.org/2000/svg" width="1080" height="764.41" viewBox="0 0 1080 764.41"><g id="Smile06_549034944"><g id="Smile06_549034944-2"><g><path d="M912.9 414.53s-4.17-36.8-10.11-43.47c-5.58-6.27-28.35-24.48-28.35-24.48l-22.01-11.84s34.83-62.52 38.68-79.19c3.85-16.67 14.1-43.59 12.82-50-1.28-6.41-15.38-24.36-20.51-26.92-5.13-2.56-24.12-12.82-36.42-4.49-12.3 8.33-54.61 35.26-80.25 73.72-25.64 38.46-98.72 130.77-102.56 138.46-3.85 7.69-11.54 24.36-15.38 24.36s-16.67-2.56-24.36 6.41c-7.69 8.97-51.28 51.28-57.69 82.05s-12.82 50-11.54 62.82c1.28 12.82-3.85 28.21 3.85 41.03 7.69 12.82 16.67 39.74 25.64 52.56 8.97 12.82 103.85 88.46 108.97 89.74s37.18 12.82 50 12.82 57.69 7.69 73.08-2.56c15.38-10.26 96.77-70.54 95.82-78.22-.95-7.68 52.9-82.04 59.31-91.01 6.41-8.97 80.77-96.15 84.62-105.13 3.85-8.97 26.41-27.09 22.82-37.9-3.59-10.81-8.72-33.89-8.72-33.89.0.0-15.38-11.54-19.23-12.82s-17.94-2.63-21.79.0c-3.85 2.63-25.64 11.54-25.64 11.54l-14.87 12.91-27.44-19.32-24.5-8.86-24.07 5.56-.14 16.12z" fill="#ffcfae"/><path d="M999.14 491.75c-6.28 22.73-19.25 43.06-33.88 61.55-7.52 9.5-15.55 18.65-22.07 28.87-6.52 10.21-11.54 21.71-12.28 33.8-.46 7.57.77 15.23-.43 22.72-1.2 7.49-5.71 15.24-13.1 16.96-1.47-26.01-6.56-51.81-15.08-76.43 36.19-16.54 67.11-44.41 87.3-78.7 6.37-10.82 11.84-22.98 10.6-35.47-.92-9.32-5.37-17.73-8.05-26.59-.68-2.25-3.64-9.61-.96-11.11 3.68-2.06 5.61 4.64 6.4 6.69 7.02 18.32 6.73 38.96 1.55 57.7z" fill="#f7a872"/><path d="M928.05 455.95c-3.47 20.08-12.79 38.58-20.38 57.49-7.59 18.91-13.58 39.44-9.93 59.49-21.21 11.33-44.61 8.32-56.36-5.2-8.01-9.22-8.47-20.87-8.34-25.81 20.53-19.84 41.25-39.91 56.79-63.86 10.58-16.3 18.64-34.56 21.8-53.81.8-4.88 1.28-9.8 1.39-14.75.07-3.28-1.52-8.52 3.17-6.82 6.21 2.25 10.09 17.26 11.36 22.82 2.26 9.95 2.23 20.41.5 30.44z" fill="#f7a872"/><path d="M744.38 375.95c10.24.02 20.41 4.08 27.86 11.11 7.44 7.03 12.08 16.96 12.68 27.18 3.7-4.52 9.37-6.81 14.42-9.74s10.04-7.32 10.49-13.14c.25-3.21-.96-6.38-.86-9.6.16-5.4 3.86-9.97 7.5-13.97 10.48-11.51 21.99-22.08 32.11-33.91 10.12-11.84 18.93-25.21 22.85-40.28-.3 1.16-3.94 3.56-4.8 4.78-1.56 2.18-2.06 4.27-2.92 6.7-1.56 4.43-4.03 7.35-7.23 10.93-6.95 7.76-14.58 14.91-22.75 21.38-16.45 13.03-35.09 23.3-54.91 30.2-11.17 3.89-22.72 6.71-34.43 8.36z" fill="#f7a872"/><path d="M747.84 599.86c-4.16 8.6-5.01 18.4-5.43 27.95-.96 22.35.11 44.89-3.45 66.98-3.57 22.09-12.43 44.31-29.64 58.61 7.61-32.57 9.93-59.8 10.54-79.24 1.19-37.47-3.13-70.77-7.28-102.79-1.47-11.36-2.9-20.73-3.9-27.09 10.81-4.14 21.62-8.28 32.43-12.42 17.08 16.94 38.11 31.04 60.94 29.04 19.33-1.69 35.81-14.56 37.18-12.39 1.07 1.71-7.87 11.64-20.94 18.8-25.07 13.74-42.64 4.86-60.78 20.74-5.72 5.01-8.78 9.96-9.68 11.81z" fill="#f7a872"/><path d="M550.65 552.7c1.38-23.66 8.07-46.85 18.17-68.23 9.47-20.05 21.6-39.72 36.68-56.08 6.38-6.92 14.07-13.49 22.66-17.75 4.3.31 8.45-.36 12.48-2.02 1.62-.94 3.23-1.88 4.85-2.81 1.01-.06 2.04-.08 3.06-.06 1.02-1.44 2.04-2.89 3.05-4.33-.12-.21-.24-.42-.36-.63.64-.81 1.23-1.65 1.77-2.53.11.23.23.46.34.69 23.43-33.24 46.82-66.45 70.96-99.2 24.26-32.92 47.57-67.96 77.69-95.92 13.05-12.11 27.92-23.9 44.99-29.68 15.71-5.32 34.52-4.64 47.7 6.44 26.87 22.6 7.94 64.66-3.69 90.06-10.4 22.71-23.23 44.4-38.57 64.09 21.43 2 40.92 17.55 51.54 35.62 4.74 8.07 7.85 16.87 9.58 25.97 21.79-9.81 47.3-2.75 64.82 12.59 4.16 3.65 7.71 7.72 10.69 12.1 15.72-16.88 35.89-36.15 61.13-30.31 22.61 5.22 32.67 31.53 29.13 52.58-4.56 27.18-25.01 48.98-41.35 69.95-18.93 24.29-37.77 48.66-56.84 72.84-14.76 18.71-29.29 37.72-44.53 56.1.22-2.54.34-5.08.33-7.62.12-1.07.18-2.13.18-3.18 8.98-12.01 18.2-23.85 27.32-35.72 17.18-22.36 34.48-44.63 51.79-66.89 8.48-10.91 16.95-21.82 25.44-32.71 7.63-9.79 15.42-19.58 21.49-30.45 10.62-19.03 14.89-46.85-3.79-62.81-9.52-8.13-22.47-8.11-33.62-3.59-13.28 5.38-23.25 16.2-32.83 26.44-.21.22-.43.39-.65.52 9.04 16.34 10.99 36.16 7.28 54.9-6.05 30.56-25.97 55.7-50.42 74.12-13.64 10.28-28.53 18.79-43.8 26.37-1.7.85-3.42 1.68-5.14 2.51-.26-.99-.64-1.97-1.11-2.94-.7-1.47-1.58-2.86-2.57-4.18 13.29-6.34 26.37-13.33 38.58-21.57 23.4-15.78 44.12-36.68 53.44-63.85 7.93-23.13 7.44-50.62-8.25-70.47-15.12-19.13-42.76-29.87-65.79-19.08 1.76 13.85.5 28.19-2.98 41.55-7.73 29.59-26.36 55.08-46.86 77.19-7.85 8.47-16.44 17.02-25.9 24.27-.41-.08-.82-.15-1.24-.22-3.55-.56-7.22-.88-10.9-.91 10.05-6.54 19.1-14.9 27.18-23.19 19.3-19.8 37.52-42.26 47.14-68.49 7.87-21.44 10.2-46.21 1.98-67.92-4.61-12.16-12.46-22.9-22.75-30.88-9.7-7.52-20.36-11.43-32.21-12.96-11.74 14.32-24.87 27.49-39.41 39.11-1.83 1.46-3.97-1.06-2.37-2.72 26.85-27.79 51.03-58.64 69.13-92.89 8.45-15.99 16.23-32.83 21.36-50.21 3.85-13.05 6.33-28.73-1.37-40.92-9.18-14.54-28.69-17.04-43.97-12.54-17.02 5.02-31.8 17.09-44.59 28.95-28.22 26.16-50.13 58.77-72.89 89.57-13.37 18.1-26.67 36.24-39.91 54.43-12.51 17.19-25.52 34.01-38.11 51.14.2.48.41.97.6 1.46.14.36.05.68-.16.92 10.39 2.36 19.34 8.64 27.55 15.23 10.54 8.47 20.9 17.17 31.37 25.73 9.33 7.63 18.9 15.05 28.09 22.86 1.21-3.42 3.07-6.81 4.49-9.82 2.26-4.78 4.74-9.47 7.5-13.98 5.72-9.38 12.55-18.17 20.18-26.08 2.67-2.76 5.44-5.44 8.32-8.01-.88-2.25-2.39-4.42-3.47-6.61-1.01-2.04-2.05-4.06-3.22-6.01-2.84-4.76-6.09-8.83-10.38-12.38-4.06-3.36-8.38-5.81-13.43-7.37-2.58-.8-5.24-1.31-7.93-1.57-2.4-.23-4.89.14-7.13-.83-.98-.43-1.45-1.75-.51-2.52 3.87-3.19 11.52-2.33 16.11-1.6 6.11.96 12.48 3.26 17.58 6.82 4.98 3.48 9.32 8.63 12.04 14.05 1.37 2.73 2.29 5.68 2.8 8.69.48 2.83.1 4.97-.32 7.47 4.5-3.87 9.24-7.47 14.21-10.67 9.08-5.84 19.28-11.54 29.89-13.96.96-.22 1.27 1.07.52 1.53-9.18 5.69-18.69 10.5-27.37 17.01-8.22 6.17-16.01 12.76-23.04 20.27-7.14 7.64-13.52 15.9-19.02 24.8-2.86 4.61-5.52 9.35-7.86 14.25-1.67 3.49-2.81 7.68-4.65 11.2 6.85 6.45 12.43 14.19 13.35 23.88 1.26 13.31-5.27 25.99-15.32 34.38 9.15 15.53 27.49 23.79 45.45 22.79-2.13 2.19-4.01 4.71-5.59 7.6-18.33-1.1-37.39-10.17-44.24-27.15-2.72 1.77-5.61 3.24-8.62 4.36-6.81 2.53-14 3.72-21.27 3.82 2.36 4.39 2.97 10.66 3.81 15.09 1.24 6.5 1.82 13.15 1.57 19.77-.24 6.46-1.25 12.9-2.91 19.18-.34 4.1-3.55 6.46-5.85 5.98-1.58-.33-2.88-2.02-3.36-4.08 2.06-7 3.28-14.24 3.8-21.55.42-5.95.47-11.96-.13-17.9-.31-3.12-.88-6.25-1.6-9.3-.58-2.45-1.56-4.84-1.57-7.35-13.77-.93-27.53-5.46-39.26-11.86-3.12-1.7-6.18-3.6-9.12-5.69-4.67 7.11-13.13 11.69-21.17 13.59-7.96 1.88-22.04 3.06-28.12-3.81-.69-.78-.04-1.96.95-1.94 4.12.09 8.13 1.8 12.29 2.05 4.63.27 9.19-.54 13.48-2.25 6.83-2.72 11.76-7.23 16.52-12.35-11.72-10.07-20.29-23.48-20.19-39.54.0-1.34 1.89-1.33 2.22-.16 4.91 17.56 17.7 31.76 33.27 40.77 15.51 8.97 35.09 14.69 53.07 12.12 16.76-2.4 32.91-14.55 33.64-32.69.4-9.94-5.77-17.5-12.74-23.87-8.75-8-18.15-15.36-27.25-22.95-9.69-8.08-19.4-16.14-29.11-24.19-8.07-6.69-16.44-13.99-26.55-17.36-17.65-5.87-33.89 4.59-45.78 16.87-14.06 14.53-25.32 32.72-34.34 50.71-9.51 18.99-16.35 39.57-18.9 60.7-3.48 28.84 1.5 58.27 14.99 83.39-2.32 2.07-3.53 5.13-3.59 8.23-14.89-24.15-21.36-53.73-19.72-81.8z" fill="#070707"/><path d="M867.2 590.43c-1.63.0-3.27-.11-5.03-.37-4.1-.6-18.19-3.55-27.29-16.31-1.89-2.64-6.89-9.66-6.81-19.57.04-4.42 1.05-8.75 3-12.87.91-1.92 3.2-2.74 5.12-1.83 1.92.91 2.74 3.2 1.83 5.12-1.47 3.1-2.23 6.35-2.26 9.64-.06 7.42 3.75 12.76 5.38 15.04 7.34 10.28 18.81 12.68 22.15 13.17 4.42.65 7.63.19 15.09-1 7.93-1.26 15.72-3.35 23.16-6.19 1.98-.76 4.21.23 4.97 2.22.76 1.98-.24 4.21-2.22 4.97-7.93 3.03-16.24 5.26-24.7 6.6-5.04.8-8.7 1.39-12.39 1.39z" fill="#070707"/><path d="M790.48 564.46c-4.55.0-9.23-.5-13.99-1.51-2.08-.44-3.41-2.48-2.97-4.56.44-2.08 2.48-3.41 4.56-2.97 9.03 1.91 17.62 1.78 25.54-.38 10.15-2.77 18.77-8.64 27.9-14.85 1.99-1.35 3.95-2.76 5.84-4.17 1.7-1.27 4.11-.93 5.38.77 1.27 1.7.93 4.11-.77 5.38-1.98 1.49-4.04 2.96-6.12 4.37-9.25 6.3-18.82 12.81-30.21 15.91-4.87 1.33-9.94 1.99-15.16 1.99z" fill="#070707"/><path d="M772.25 764.41c-18 0-36.73-3.44-56.01-10.32-26.34-9.39-48.09-23.17-61.09-31.41-39.13-24.79-72.1-60.45-95.33-103.11-1.02-1.87-.33-4.2 1.54-5.22 1.87-1.02 4.2-.33 5.22 1.54 22.61 41.52 54.66 76.2 92.69 100.29 25.01 15.85 83.59 52.96 145.65 36.28 24.1-6.48 40.3-18.51 55.96-30.14 31.1-23.1 56.02-53.12 74.06-89.22.95-1.9 3.26-2.67 5.16-1.72 1.9.95 2.67 3.26 1.72 5.16-18.59 37.2-44.28 68.13-76.35 91.96-15.49 11.5-33.04 24.54-58.56 31.39-11.19 3.01-22.77 4.51-34.66 4.51z" fill="#070707"/></g><g><path d="M167.1 243.61s4.17-36.8 10.11-43.47c5.58-6.27 28.35-24.48 28.35-24.48l22.01-11.84s-34.83-62.52-38.68-79.19c-3.85-16.67-14.1-43.59-12.82-50 1.28-6.41 15.38-24.36 20.51-26.92 5.13-2.56 24.12-12.82 36.42-4.49 12.3 8.33 54.61 35.26 80.25 73.72 25.64 38.46 98.72 130.77 102.56 138.46 3.85 7.69 11.54 24.36 15.38 24.36s16.67-2.56 24.36 6.41c7.69 8.97 51.28 51.28 57.69 82.05 6.41 30.77 12.82 50 11.54 62.82-1.28 12.82 3.85 28.21-3.85 41.03-7.69 12.82-16.67 39.74-25.64 52.56-8.97 12.82-103.85 88.46-108.97 89.74s-37.18 12.82-50 12.82-57.69 7.69-73.08-2.56c-15.38-10.26-96.77-70.54-95.82-78.22.95-7.68-52.9-82.04-59.31-91.01-6.41-8.97-80.77-96.15-84.62-105.13-3.85-8.97-26.41-27.09-22.82-37.9 3.59-10.81 8.72-33.89 8.72-33.89.0.0 15.38-11.54 19.23-12.82 3.85-1.28 17.94-2.63 21.79.0 3.85 2.63 25.64 11.54 25.64 11.54l14.87 12.91 27.44-19.32 24.5-8.86 24.07 5.56.14 16.12z" fill="#ffcfae"/><path d="M80.86 320.82c6.28 22.73 19.25 43.06 33.88 61.55 7.52 9.5 15.55 18.65 22.07 28.87 6.52 10.21 11.54 21.71 12.28 33.8.46 7.57-.77 15.23.43 22.72 1.2 7.49 5.71 15.24 13.1 16.96 1.47-26.01 6.56-51.81 15.08-76.43-36.19-16.54-67.11-44.41-87.3-78.7-6.37-10.82-11.84-22.98-10.6-35.47.92-9.32 5.37-17.73 8.05-26.59.68-2.25 3.64-9.61.96-11.11-3.68-2.06-5.61 4.64-6.4 6.69-7.02 18.32-6.73 38.96-1.55 57.7z" fill="#f7a872"/><path d="M151.95 285.03c3.47 20.08 12.79 38.58 20.38 57.49 7.59 18.91 13.58 39.44 9.93 59.49 21.21 11.33 44.61 8.32 56.36-5.2 8.01-9.22 8.47-20.87 8.34-25.81-20.53-19.84-41.25-39.91-56.79-63.86-10.58-16.3-18.64-34.56-21.8-53.81-.8-4.88-1.28-9.8-1.39-14.75-.07-3.28 1.52-8.52-3.17-6.82-6.21 2.25-10.09 17.26-11.36 22.82-2.26 9.95-2.23 20.41-.5 30.44z" fill="#f7a872"/><path d="M335.62 205.03c-10.24.02-20.41 4.08-27.86 11.11-7.44 7.03-12.08 16.96-12.68 27.18-3.7-4.52-9.37-6.81-14.42-9.74s-10.04-7.32-10.49-13.14c-.25-3.21.96-6.38.86-9.6-.16-5.4-3.86-9.97-7.5-13.97-10.48-11.51-21.99-22.08-32.11-33.91-10.12-11.84-18.93-25.21-22.85-40.28.3 1.16 3.94 3.56 4.8 4.78 1.56 2.18 2.06 4.27 2.92 6.7 1.56 4.43 4.03 7.35 7.23 10.93 6.95 7.76 14.58 14.91 22.75 21.38 16.45 13.03 35.09 23.3 54.91 30.2 11.17 3.89 22.72 6.71 34.43 8.36z" fill="#f7a872"/><path d="M332.16 428.94c4.16 8.6 5.01 18.4 5.43 27.95.96 22.35-.11 44.89 3.45 66.98 3.57 22.09 12.43 44.31 29.64 58.61-7.61-32.57-9.93-59.8-10.54-79.24-1.19-37.47 3.13-70.77 7.28-102.79 1.47-11.36 2.9-20.73 3.9-27.09-10.81-4.14-21.62-8.28-32.43-12.42-17.08 16.94-38.11 31.04-60.94 29.04-19.33-1.69-35.81-14.56-37.18-12.39-1.07 1.71 7.87 11.64 20.94 18.8 25.07 13.74 42.64 4.86 60.78 20.74 5.72 5.01 8.78 9.96 9.68 11.81z" fill="#f7a872"/><path d="M529.35 381.78c-1.38-23.66-8.07-46.85-18.17-68.23-9.47-20.05-21.6-39.72-36.68-56.08-6.38-6.92-14.07-13.49-22.66-17.75-4.3.31-8.45-.36-12.48-2.02-1.62-.94-3.23-1.88-4.85-2.81-1.01-.06-2.04-.08-3.06-.06-1.02-1.44-2.04-2.89-3.05-4.33.12-.21.24-.42.36-.63-.64-.81-1.23-1.65-1.77-2.53-.11.23-.23.46-.34.69-23.43-33.24-46.82-66.45-70.96-99.2-24.26-32.92-47.57-67.96-77.69-95.92-13.05-12.11-27.92-23.9-44.99-29.68-15.71-5.32-34.52-4.64-47.7 6.44-26.87 22.6-7.94 64.66 3.69 90.06 10.4 22.71 23.23 44.4 38.57 64.09-21.43 2-40.92 17.55-51.54 35.62-4.74 8.07-7.85 16.87-9.58 25.97-21.79-9.81-47.3-2.75-64.82 12.59-4.16 3.65-7.71 7.72-10.69 12.1-15.72-16.88-35.89-36.15-61.13-30.31C7.21 225.02-2.84 251.32.69 272.37c4.56 27.18 25.01 48.98 41.35 69.95 18.93 24.29 37.77 48.66 56.84 72.84 14.76 18.71 29.29 37.72 44.53 56.1-.22-2.54-.34-5.08-.33-7.62-.12-1.07-.18-2.13-.18-3.18-8.98-12.01-18.2-23.85-27.32-35.72-17.18-22.36-34.48-44.63-51.79-66.89-8.48-10.91-16.95-21.82-25.44-32.71-7.63-9.79-15.42-19.58-21.49-30.45-10.62-19.03-14.89-46.85 3.79-62.81 9.52-8.13 22.47-8.11 33.62-3.59 13.28 5.38 23.25 16.2 32.83 26.44.21.22.43.39.65.52-9.04 16.34-10.99 36.16-7.28 54.9 6.05 30.56 25.97 55.7 50.42 74.12 13.64 10.28 28.53 18.79 43.8 26.37 1.7.85 3.42 1.68 5.14 2.51.26-.99.64-1.97 1.11-2.94.7-1.47 1.58-2.86 2.57-4.18-13.29-6.34-26.37-13.33-38.58-21.57-23.4-15.78-44.12-36.68-53.44-63.85-7.93-23.13-7.44-50.62 8.25-70.47 15.12-19.13 42.76-29.87 65.79-19.08-1.76 13.85-.5 28.19 2.98 41.55 7.73 29.59 26.36 55.08 46.86 77.19 7.85 8.47 16.44 17.02 25.9 24.27.41-.08.82-.15 1.24-.22 3.55-.56 7.22-.88 10.9-.91-10.05-6.54-19.1-14.9-27.18-23.19-19.3-19.8-37.52-42.26-47.14-68.49-7.87-21.44-10.2-46.21-1.98-67.92 4.61-12.16 12.46-22.9 22.75-30.88 9.7-7.52 20.36-11.43 32.21-12.96 11.74 14.32 24.87 27.49 39.41 39.11 1.83 1.46 3.97-1.06 2.37-2.72-26.85-27.79-51.03-58.64-69.13-92.89-8.45-15.99-16.23-32.83-21.36-50.21-3.85-13.05-6.33-28.73 1.37-40.92 9.18-14.54 28.69-17.04 43.97-12.54 17.02 5.02 31.8 17.09 44.59 28.95 28.22 26.16 50.13 58.77 72.89 89.57 13.37 18.1 26.67 36.24 39.91 54.43 12.51 17.19 25.52 34.01 38.11 51.14-.2.48-.41.97-.6 1.46-.14.36-.05.68.16.92-10.39 2.36-19.34 8.64-27.55 15.23-10.54 8.47-20.9 17.17-31.37 25.73-9.33 7.63-18.9 15.05-28.09 22.86-1.21-3.42-3.07-6.81-4.49-9.82-2.26-4.78-4.74-9.47-7.5-13.98-5.72-9.38-12.55-18.17-20.18-26.08-2.67-2.76-5.44-5.44-8.32-8.01.88-2.25 2.39-4.42 3.47-6.61 1.01-2.04 2.05-4.06 3.22-6.01 2.84-4.76 6.09-8.83 10.38-12.38 4.06-3.36 8.38-5.81 13.43-7.37 2.58-.8 5.24-1.31 7.93-1.57 2.4-.23 4.89.14 7.13-.83.98-.43 1.45-1.75.51-2.52-3.87-3.19-11.52-2.33-16.11-1.6-6.11.96-12.48 3.26-17.58 6.82-4.98 3.48-9.32 8.63-12.04 14.05-1.37 2.73-2.29 5.68-2.8 8.69-.48 2.83-.1 4.97.32 7.47-4.5-3.87-9.24-7.47-14.21-10.67-9.08-5.84-19.28-11.54-29.89-13.96-.96-.22-1.27 1.07-.52 1.53 9.18 5.69 18.69 10.5 27.37 17.01 8.22 6.17 16.01 12.76 23.04 20.27 7.14 7.64 13.52 15.9 19.02 24.8 2.86 4.61 5.52 9.35 7.86 14.25 1.67 3.49 2.81 7.68 4.65 11.2-6.85 6.45-12.43 14.19-13.35 23.88-1.26 13.31 5.27 25.99 15.32 34.38-9.15 15.53-27.49 23.79-45.45 22.79 2.13 2.19 4.01 4.71 5.59 7.6 18.33-1.1 37.39-10.17 44.24-27.15 2.72 1.77 5.61 3.24 8.62 4.36 6.81 2.53 14 3.72 21.27 3.82-2.36 4.39-2.97 10.66-3.81 15.09-1.24 6.5-1.82 13.15-1.57 19.77.24 6.46 1.25 12.9 2.91 19.18.34 4.1 3.55 6.46 5.85 5.98 1.58-.33 2.88-2.02 3.36-4.08-2.06-7-3.28-14.24-3.8-21.55-.42-5.95-.47-11.96.13-17.9.31-3.12.88-6.25 1.6-9.3.58-2.45 1.56-4.84 1.57-7.35 13.77-.93 27.53-5.46 39.26-11.86 3.12-1.7 6.18-3.6 9.12-5.69 4.67 7.11 13.13 11.69 21.17 13.59 7.96 1.88 22.04 3.06 28.12-3.81.69-.78.04-1.96-.95-1.94-4.12.09-8.13 1.8-12.29 2.05-4.63.27-9.19-.54-13.48-2.25-6.83-2.72-11.76-7.23-16.52-12.35 11.72-10.07 20.29-23.48 20.19-39.54.0-1.34-1.89-1.33-2.22-.16-4.91 17.56-17.7 31.76-33.27 40.77-15.51 8.97-35.09 14.69-53.07 12.12-16.76-2.4-32.91-14.55-33.64-32.69-.4-9.94 5.77-17.5 12.74-23.87 8.75-8 18.15-15.36 27.25-22.95 9.69-8.08 19.4-16.14 29.11-24.19 8.07-6.69 16.44-13.99 26.55-17.36 17.65-5.87 33.89 4.59 45.78 16.87 14.06 14.53 25.32 32.72 34.34 50.71 9.51 18.99 16.35 39.57 18.9 60.7 3.48 28.84-1.5 58.27-14.99 83.39 2.32 2.07 3.53 5.13 3.59 8.23 14.89-24.15 21.36-53.73 19.72-81.8z" fill="#070707"/><path d="M212.8 419.51c-3.69.0-7.35-.58-12.39-1.39-8.45-1.35-16.76-3.57-24.7-6.6-1.98-.76-2.98-2.98-2.22-4.97.76-1.98 2.98-2.98 4.97-2.22 7.44 2.84 15.23 4.93 23.16 6.19 7.47 1.19 10.67 1.65 15.09 1 3.34-.49 14.81-2.89 22.15-13.17 1.63-2.28 5.44-7.62 5.38-15.04-.03-3.29-.79-6.53-2.26-9.64-.91-1.92-.09-4.21 1.83-5.12 1.92-.91 4.21-.09 5.12 1.83 1.95 4.12 2.96 8.45 3 12.87.08 9.92-4.93 16.93-6.81 19.57-9.1 12.76-23.19 15.71-27.29 16.31-1.76.26-3.4.37-5.03.37z" fill="#070707"/><path d="M289.52 393.54c-5.23.0-10.29-.66-15.16-1.99-11.4-3.1-20.96-9.62-30.21-15.91-2.07-1.41-4.13-2.88-6.12-4.37-1.7-1.27-2.05-3.68-.77-5.38 1.27-1.7 3.68-2.04 5.38-.77 1.9 1.42 3.86 2.83 5.84 4.17 9.13 6.21 17.75 12.09 27.9 14.85 7.92 2.16 16.51 2.28 25.54.38 2.08-.44 4.12.89 4.56 2.97.44 2.08-.89 4.12-2.97 4.56-4.76 1.01-9.44 1.51-13.99 1.51z" fill="#070707"/><path d="M307.75 593.48c-11.89.0-23.46-1.5-34.66-4.51-25.52-6.86-43.07-19.89-58.55-31.39-32.08-23.82-57.77-54.76-76.35-91.96-.95-1.9-.18-4.21 1.72-5.16 1.9-.95 4.21-.18 5.16 1.72 18.04 36.11 42.96 66.12 74.06 89.22 15.66 11.63 31.86 23.66 55.96 30.14 62.06 16.68 120.63-20.44 145.65-36.28 38.03-24.09 70.08-58.77 92.69-100.29 1.02-1.87 3.35-2.56 5.22-1.54 1.87 1.02 2.55 3.35 1.54 5.22-23.23 42.66-56.19 78.32-95.33 103.11-13 8.23-34.75 22.02-61.09 31.41-19.28 6.87-38.01 10.32-56.01 10.32z" fill="#070707"/></g></g></g></svg>