<svg id="_Слой_2" xmlns="http://www.w3.org/2000/svg" width="1080" height="737.58" viewBox="0 0 1080 737.58"><g id="Shape01_4259671"><g id="Shape01_4259671-2"><path d="M2.19 685.39c-.73-2.04 1.17-3.93.87-5.97.29-2.62-1.46-4.66-2.04-7.14.29-1.89 1.75-3.35 2.48-5.1 2.04-3.35.44-7.43 1.6-10.92 1.46-7.43-.15-15 .73-22.29 1.89-7.14-1.89-13.98-1.17-20.97 1.31-6.99 1.6-14.28-.87-21.12.44-5.83 1.02-11.65 2.48-17.33.15-3.79.44-7.43 1.46-11.07 1.31-3.2-.73-6.55-.44-9.76.15-4.81.15-9.47.15-14.13 1.31-7.43.58-14.86.87-22.29-.58-6.26.73-12.53-.87-18.64-.58-5.97.44-11.94-.73-17.92-1.02-7.43 1.75-15 0-22.43-.44-2.48-.29-5.1-.29-7.57.44-13.98.0-27.97.0-41.95-1.46-15.59-.29-31.32-.73-47.05-.15-2.48.87-4.95.73-7.57-.15-13.4.0-26.8.0-40.2.15-7.87.44-15.73-.58-23.6.29-8.88-.44-17.62-.15-26.51.87-8.74 1.17-17.62.0-26.36-.44-3.64 1.17-7.28.44-10.92-.87-4.81-.44-9.76-.44-14.57.0-3.06-2.62-5.24-2.77-8.3.0-3.93-.44-8.01.58-11.94.73-2.91-1.31-5.97.0-8.74.73-2.48 2.19-4.81 2.04-7.43-.15-10.05.0-20.1.0-30.15.15-3.2-1.17-6.12-1.02-9.18-.29-4.37 1.89-8.45 1.89-12.67-1.31-8.45-1.02-17.04-.73-25.64 1.02-4.22-.29-8.45-.29-12.67-1.17-5.24-.29-10.63-1.46-15.88-.15-5.1-1.17-10.05-1.02-15-.15-5.97-1.31-11.8-2.91-17.48 1.6-1.89 4.52-3.35 3.79-6.26-1.31-.44-2.62-1.02-3.79-1.6.0-.73.15-2.19.29-2.91 2.62-2.33 4.95-5.1 7.87-7.28 5.83-3.79 11.51-8.16 18.35-10.05 10.2-2.33 20.54-3.79 30.88-5.24 3.2-.44 6.26-1.31 9.18-2.33 6.12-1.46 12.09.73 18.21.87 8.3 1.17 16.75.73 25.2.87 9.32-.15 18.79.58 28.26-.73 2.91-.29 6.12.15 9.03-1.16 3.79-1.6 8.01-.73 11.94-1.02 4.52-.44 8.45 2.04 12.82 2.62 3.06.44 5.97 1.16 9.03 1.89 12.82.0 25.49 2.77 38.16 3.79 20.98.0 41.95.0 62.93.15 13.11 1.31 26.22.44 39.18.73 10.63-.29 21.41.58 31.9-.58 9.18-.15 18.21-.15 27.38-.29 20.39.44 40.78-.15 61.18.15 6.56-.44 13.4-.73 19.96.44 2.77.44 5.54.44 8.16-.15 3.35-1.17 6.7 1.02 10.05-.15 5.54-1.6 10.93 1.46 16.46-.15 7.57-1.02 15.44.87 22.87-1.02 9.61-.58 19.37.0 28.84-.15 2.77-.15 5.39 1.17 8.16.87 4.81-.15 9.61.29 14.27-.15 4.66-1.17 9.32-.29 14.13-.73 5.39.0 10.93-.44 16.31.73 3.93.15 8.01.29 11.94.0 5.1-1.31 10.34-.44 15.44-1.6 2.77-.58 5.1.87 7.57 1.6 6.41 1.16 12.53-1.6 18.79-2.33 4.22.87 8.45 2.19 12.82 2.48 2.77-.29 5.39-1.17 8.16-.87 5.24.15 10.49-.58 15.59.73 5.83 1.16 11.65-1.89 17.33.0 5.68.15 11.51.58 17.33-.15 3.79-1.31 8.01-2.48 11.8-.15 4.37 2.77 9.32.44 13.84-.87 4.08-1.31 8.16.44 12.38.44 2.77-.15 5.53 1.31 8.3.58 3.2-.58 6.41-2.04 9.61-.87 6.99 2.04 14.27.87 21.41 1.31 6.41 1.31 12.82.29 19.23.73 3.35.29 6.56-1.17 10.05-.87 5.97-.29 11.94 1.89 17.92 1.02 4.66-.87 9.18.15 13.84.0 2.33-.15 4.66-1.31 7.14-.87 6.26 1.6 12.96.44 19.37.73 11.22.44 22.58.29 33.65-1.75 6.12-.15 12.24.0 18.21-.15 4.37.29 8.74-.29 12.96.87 3.5.44 7.14.44 10.49-.44 2.91-.87 5.68.87 8.45.58 7.72.73 15.15-2.04 22.72-2.62 12.09-.15 24.18 1.02 36.12-1.31 4.95-1.46 10.92-2.77 15.29.87 4.37 3.5 10.2 4.22 14.42 8.01 2.91 4.08 5.39 8.45 6.85 13.25.87 3.06 2.77 5.68 3.5 8.74.29 2.91-1.89 5.39-1.89 8.3-.29 4.08 2.48 7.57 2.77 11.65.15 3.64-.15 7.28.87 10.78 2.48 7.43-.15 15.44 1.89 23.01.0 6.12.29 12.09.0 18.21-.15 4.81.58 9.76-.29 14.57-.58 3.5-.87 6.99-.58 10.34.58 7.57-.73 15.29.44 22.72.73 4.08.58 8.3.44 12.53.0 8.89.15 17.62.0 26.51.15 3.2-2.33 5.83-2.48 8.89 2.19 6.7 3.79 13.84 1.89 20.83-1.02 3.2 1.17 6.12.58 9.32.0 2.04-1.17 4.08-.58 6.12.73 2.77.58 5.68.58 8.59.44 3.35-1.31 6.56-.87 9.9-.29 4.08 2.04 7.72 1.89 11.8-.15 9.47.29 18.94-2.62 27.97-1.17 3.06 2.62 5.39 1.75 8.59-.58 2.91.29 5.68 1.75 8.3.15 3.93.15 7.87.0 11.8-2.19 4.37-4.37 9.18-3.35 14.13.87 2.33 2.48 4.52 3.35 6.85.44 3.2-.15 6.41-1.46 9.47-.87 3.93-.44 8.45 1.46 12.09 1.31 2.19.87 4.81.87 7.28-1.46-1.6-2.91-3.06-4.37-4.52-.15 1.89-.58 3.93.44 5.68 2.62 4.52.15 9.76 1.6 14.57 2.19 8.16-1.31 16.31-.15 24.33 1.75 4.66.0 9.32-.29 13.98.15 6.99-.58 14.13.87 20.97-1.6 11.8-.29 23.74-.87 35.54-.44 7.87.87 15.88-.73 23.74-.15 9.32-.15 18.79.0 28.26-.44 49.09.29 98.32.15 147.55-.29 4.95.87 10.05-1.02 14.57-1.02 2.62-.87 5.54-1.02 8.3-2.04 1.6-3.93 3.35-5.83 4.81-3.06 2.48-3.2 7.14-6.56 9.18-8.74.15-17.77 1.02-26.36-.87-2.48-.58-4.66-2.48-7.28-2.62-5.54.0-11.36-2.04-16.9.0-.29.58-.87 1.75-1.17 2.33 2.62 4.52 8.3 3.93 12.53 5.83 3.93.15 7.72-.29 11.65.0-.15.44-.29 1.31-.44 1.75-4.08.29-8.01.0-12.09.0-2.91 1.31-4.95 4.37-8.16 4.81-4.37 1.46-8.3-2.48-12.67-1.17-5.24 1.46-9.91 5.83-15.59 4.66-6.99-1.75-13.84-4.22-20.39-7.43-2.62-1.75-5.53.29-8.3.73-4.81 1.75-10.05 1.17-15 1.17-3.79-.15-5.53-4.37-9.32-4.52-3.2-.58-5.68-3.2-9.03-2.77-2.91-.58-5.1 1.89-7.72 2.77-2.04.15-4.08.0-6.12.0 1.02-.87 2.04-1.6 3.06-2.48-4.37-3.35-10.34-3.2-15.73-3.2-6.85.29-13.84.15-20.83.29-5.97 1.02-12.24 1.31-18.35.15-1.6-.29-3.2.44-4.81.58-4.81.58-9.61-.87-14.27.87-3.64-.73-7.28-2.19-10.92-2.62-1.6-.15-2.62 1.31-3.93 1.89-3.06-1.17-6.99-2.04-9.61.58-4.08-1.31-8.3.0-12.24-1.6-2.62-1.02-5.39-1.31-8.01-1.02-1.75 1.02-3.2 2.33-4.81 3.5-3.64-1.89-7.87-2.33-11.8-2.48-4.81.0-9.61-.44-14.28.73-3.35.73-6.7-.87-10.05-.73-3.35.0-6.7-.15-10.05.29-4.52 1.31-9.03.15-13.69.44-6.56-.73-13.26-1.02-19.96-.58-5.24.29-9.47-3.5-14.57-2.91-3.2-.44-5.54 1.75-8.3 2.77-4.66-.15-8.74-3.5-13.69-2.62-6.41 1.46-13.26.87-19.81.87-4.52-.15-8.89-2.48-13.55-1.75-5.68 1.31-11.94 1.31-17.62-.15-3.2 1.31-6.26 3.79-10.05 3.64-3.64-.58-7.28-1.6-10.93-2.48-2.48-.73-4.81.73-7.28.73-7.72-1.89-15.59-.58-23.45-1.17-2.48-.73-5.1-1.31-7.43-.15-4.08 1.75-7.87-1.75-11.94-1.46-4.95.29-9.9-.73-14.57.58-4.95 1.17-9.61-2.18-14.42-1.31-6.12 1.17-12.24.73-18.35.73-3.93.29-7.72-1.17-11.65-.87-11.07.44-22-.44-32.92-.15-3.5.15-6.7-1.17-9.9-1.6-2.62-.29-5.1.87-7.72.87-2.04.15-4.08-.73-6.12-.87-2.18.15-4.22 1.31-6.41 1.6-2.33-.29-4.66-1.02-7.14-.87-5.83.29-11.65-.15-17.33.87-4.37.44-8.59-.87-12.82-.73-8.89.0-17.62.0-26.51-.15-7.28-1.89-14.86 1.75-22.14-.58-7.72-.58-15.58.0-23.31-.29-4.66.44-9.18-1.6-13.69-.44-6.99 1.46-13.98 1.46-20.98 1.17-4.22-.58-8.45-1.75-12.82-1.6-12.38.15-24.91.15-37.43.15-3.2.58-6.56.73-9.9 1.17-7.57 1.31-15.29-.15-22.72 1.17-6.85.29-13.69-.15-20.54.44-2.48.87-4.66 2.62-6.85 4.08 7.57 1.89 15.59 1.17 23.45 1.02 4.37-1.17 8.59.87 12.96 1.02h34.67c6.26-.29 12.67.58 18.94-.15 3.06-.58 6.26-1.02 9.32-.29 3.35.87 6.85.0 10.2 1.02 3.64 1.17 7.14-.44 10.78-.58 14.86-.15 29.71.29 44.57.15 2.48-.15 4.95-.15 7.43.29 3.93.87 8.16.15 12.24.73-1.75 2.18-4.37 3.2-6.99 2.48-4.95-1.75-10.2-.44-15.29-.73-6.56.15-13.11-.44-19.52.73-4.81.73-9.47-1.17-14.27-.73-10.05.29-19.96-.44-30.01.0-8.89.15-17.77.0-26.51.15-4.52.87-9.18.58-13.69.73-6.12.15-12.09-1.46-18.21-1.02-4.08-.29-7.57 2.62-11.65 1.89-2.19-.58-4.22-2.04-6.41-1.89-11.65.29-23.31.44-34.81.15-3.5-.15-6.56 1.6-9.76 2.04-4.37 1.02-8.74.73-12.96-.29-6.41-.29-12.82-.15-19.08.73-7.57.58-15.44-.87-22.87 1.02-4.66.0-9.32.15-13.84.15-2.77-.15-5.24 1.31-8.01 1.6-3.64.29-7.28.29-10.92-.29-5.83-1.46-11.51 2.04-17.33 1.31-4.95.44-9.61-2.62-14.57-1.75-2.18.29-4.08 1.31-6.26 1.6-2.19-.29-4.08-1.17-5.97-1.89.0-.73.15-1.31.15-2.04 2.48-1.31 5.1-2.48 7.14-4.52 1.02-3.2-1.89-5.24-4.08-7.14-1.75 1.02-3.35 2.91-5.39 2.91-3.5-2.04-5.97-5.24-9.03-7.87-2.04-1.6-3.79-3.5-5.1-5.68-.44-2.62-.29-5.24-.73-7.72-.73-4.08.58-8.45-1.02-12.38h0zm18.79 16.02c0 3.2 2.48 5.68 5.68 5.68H1058.81c3.06.0 5.68-2.48 5.68-5.68V30.49c0-3.2-2.62-5.83-5.68-5.83H26.66c-3.2.0-5.68 2.62-5.68 5.83V701.41h0zM371 725.15c5.54 2.04 11.51 1.46 16.9.0-.73-1.89-2.91-1.46-4.52-1.6-4.22.0-8.3-.15-12.53.15.0.29.15 1.02.15 1.46h0zm18.35.15c3.5.44 6.99.29 10.34.15 5.24-.29 10.63.29 15.88-.15v-1.46c-6.41.0-12.96.15-19.52-.29-2.33.15-5.24-.58-6.7 1.75h0zm35.4.87c4.52.58 9.03-.44 13.25-1.89-2.04-1.31-4.22.58-6.41.29-3.5.58-6.7-1.17-10.2-.73 1.02.87 2.04 1.89 3.35 2.33h0zm51.56 4.95h2.91c1.17-1.31 1.31-2.91 1.46-4.52-3.35-1.6-6.99-2.62-10.78-2.19.29 3.5 4.37 4.37 6.41 6.7h0zm27.09-1.89c-.15-.87-.29-1.75-.44-2.48-2.91-2.04-6.41-1.17-9.76-1.17 2.62 2.77 6.55 3.5 10.2 3.64h0zm19.08-.29c1.75.44 3.35 1.46 5.1 1.02 1.31-.73 2.18-1.89 2.48-3.35-3.5-.44-7.28.44-10.63-.87-1.89-.58-4.22-2.04-5.83.15 2.04 3.2 5.97 1.89 8.89 3.06h0zm26.66 3.06c.44-.44 1.31-1.02 1.75-1.46-3.64-2.19-7.57-4.37-11.65-4.95-.73.29-2.33 1.02-3.06 1.31 3.79 2.62 8.16 4.81 12.96 5.1h0zm12.24-2.77c2.33-1.02 4.66-1.17 6.99-1.31 1.46 1.31 3.06 2.62 4.52 4.08.29-.87.73-1.75 1.31-2.62-4.08-1.89-8.45-2.33-12.67-1.89.0.44.0 1.31-.15 1.75h0zm37.87-.87c4.08 1.31 8.45 1.17 12.24-.87-6.12-.29-12.24-1.46-18.5-.87.0 3.06 4.22 1.02 6.26 1.75h0zm25.49 2.33c-1.02-2.77-3.5-3.93-6.26-3.64-.73 3.5 3.64 6.7 6.26 3.64h0zm247.48-2.48c5.24 1.6 10.78 2.77 16.17 1.02 4.52-1.46 9.18-.73 13.69-1.17.15-.29.58-1.17.73-1.6-10.34-.29-20.68.44-31.03-.15.15.44.29 1.46.44 1.89h0zm171.3 2.33c6.12 2.18 12.53.87 18.79 1.17 3.2.29 6.55-.73 9.47-2.33 1.75-.58 2.33-2.18 1.89-3.93-3.93-.58-7.57 1.46-11.51 1.02-2.33-.29-4.52.44-6.7 1.31-3.93 1.75-8.16-1.89-11.94.73v2.04z" fill="#fcfcfc" fill-rule="evenodd"/><path d="M15.52 17.15H1064.9v691.54H15.52z" fill="#fcfcfc"/></g></g></svg>