<svg id="_Слой_2" xmlns="http://www.w3.org/2000/svg" width="673.91" height="1080" viewBox="0 0 673.91 1080"><g id="Brain01_50338735"><g id="Brain01_50338735-2"><g><g><path d="M178.41 683.56c-48.87.0-88.68-39.5-89.17-88.27v-14.05s-12.53-3.22-12.53-3.22c-27.5-7.08-46.69-31.78-46.69-60.07.0-14.24 4.75-27.65 13.73-38.84l12.85-16-18.3-9.33c-19.6-9.97-31.79-29.74-31.79-51.57s11.91-40.52 31.05-51.37l18.5-10.47-14.56-15.49c-11.94-12.7-18.52-29.21-18.52-46.51.0-31.42 21.38-58.56 51.98-65.98l22.31-5.42-12.03-19.55c-5.85-9.49-8.93-20.35-8.93-31.35.0-30.85 24.07-57.16 54.81-59.89l13.02-1.17 1.99-12.93C152.75 38.99 190.58 6.51 234.11 6.51c49.17.0 89.17 40 89.17 89.16v498.74c0 49.17-40 89.16-89.17 89.16h-55.7z" fill="#cceef5"/><path d="M234.11 690.07h-55.7c-52.23.0-95.15-42.49-95.68-94.71v-9.08s-7.64-1.96-7.64-1.96c-30.37-7.82-51.58-35.11-51.58-66.38.0-15.72 5.24-30.55 15.16-42.91l7.84-9.76-11.17-5.7C13.54 448.49.0 426.51.0 402.2s13.16-45.02 34.35-57.03l11.3-6.39-8.89-9.45c-13.08-13.92-20.29-32.02-20.29-50.97.0-34.43 23.42-64.16 56.95-72.3l13.61-3.31-7.34-11.94c-6.47-10.51-9.9-22.53-9.9-34.75.0-34.19 26.68-63.34 60.74-66.37l7.95-.71 1.22-7.9C146.8 34.86 187.39.0 234.11.0c52.75.0 95.68 42.91 95.68 95.66V594.4c0 52.75-42.92 95.67-95.68 95.67zm0-677.06c-40.35.0-75.41 30.12-81.55 70.05l-2.77 17.97-18.09 1.63c-27.42 2.44-48.89 25.89-48.89 53.41.0 9.81 2.76 19.47 7.97 27.93l16.72 27.18-31 7.53c-27.68 6.72-47.01 31.25-47.01 59.66.0 15.62 5.95 30.56 16.75 42.05l20.23 21.53-25.71 14.55c-17.11 9.7-27.75 27.22-27.75 45.71s10.82 36.92 28.23 45.77l25.44 12.97-17.86 22.24c-8.04 10.02-12.29 22.04-12.29 34.76.0 25.33 17.19 47.44 41.81 53.77l17.42 4.48v19.1c.44 45.05 37.53 81.77 82.66 81.77h55.7c45.58.0 82.66-37.08 82.66-82.66V95.66c0-45.57-37.08-82.65-82.66-82.65z" fill="#2c5871"/></g><g><path d="M250.94 162.34c-3.6.0-6.51-2.91-6.51-6.51.0-28.41-23.11-51.52-51.52-51.52h-56.45c-3.6.0-6.51-2.91-6.51-6.51s2.91-6.51 6.51-6.51h56.45c35.58.0 64.53 28.95 64.53 64.53.0 3.59-2.91 6.51-6.51 6.51z" fill="#2c5871"/><path d="M234.11 687.93h-55.7c-53.33.0-93.55-43.75-93.55-101.75.0-3.59 2.91-6.51 6.51-6.51s6.51 2.91 6.51 6.51c0 50.59 34.62 88.74 80.54 88.74h55.7c44.41.0 80.54-36.12 80.54-80.52V95.66c0-44.41-36.13-80.54-80.54-80.54s-80.53 36.13-80.53 80.54c0 3.59-2.91 6.51-6.51 6.51s-6.51-2.91-6.51-6.51c0-51.58 41.96-93.55 93.54-93.55s93.55 41.96 93.55 93.55V594.4c0 51.58-41.97 93.53-93.55 93.53z" fill="#2c5871"/><path d="M136.46 220.58c-35.59.0-64.55-28.94-64.55-64.51s28.96-64.55 64.55-64.55h12.15c3.6.0 6.51 2.91 6.51 6.51s-2.91 6.51-6.51 6.51h-12.15c-28.42.0-51.54 23.12-51.54 51.54s23.12 51.5 51.54 51.5c3.6.0 6.51 2.91 6.51 6.51s-2.91 6.51-6.51 6.51z" fill="#2c5871"/><path d="M90.95 350.75h-1.07c-.15.0-.31.0-.46-.02-39.2-.81-70.84-32.97-70.84-72.37s32.46-72.35 72.36-72.35h28.25c3.6.0 6.51 2.91 6.51 6.51s-2.91 6.51-6.51 6.51h-28.25c-32.72.0-59.35 26.62-59.35 59.34s26.63 59.37 59.35 59.37c3.6.0 6.51 2.91 6.51 6.51s-2.91 6.51-6.51 6.51z" fill="#2c5871"/><path d="M190.94 584.44H92.14c-36.67.0-66.5-29.83-66.5-66.5s29.83-66.5 66.5-66.5c3.6.0 6.51 2.91 6.51 6.51s-2.91 6.51-6.51 6.51c-29.49.0-53.49 23.99-53.49 53.49s24 53.49 53.49 53.49h98.8c3.6.0 6.51 2.91 6.51 6.51s-2.91 6.51-6.51 6.51z" fill="#2c5871"/><path d="M122.26 464.45H64.4c-34.34.0-62.27-27.92-62.27-62.25s30.36-63.67 64.96-63.67h28.59c3.6.0 6.51 2.91 6.51 6.51s-2.91 6.51-6.51 6.51H67.09c-27.68.0-51.95 23.67-51.95 50.66s22.1 49.24 49.26 49.24h57.86c3.6.0 6.51 2.91 6.51 6.51s-2.91 6.51-6.51 6.51z" fill="#2c5871"/><path d="M217.99 524.82H95.69c-3.6.0-6.51-2.91-6.51-6.51s2.91-6.51 6.51-6.51H218c17.17.0 31.13-13.96 31.13-31.12v-116.84c0-17.17-13.96-31.14-31.13-31.14-3.6.0-6.51-2.91-6.51-6.51s2.91-6.51 6.51-6.51c24.34.0 44.14 19.81 44.14 44.15v116.84c0 24.33-19.8 44.13-44.14 44.13z" fill="#2c5871"/><path d="M219.18 631.47c-3.6.0-6.51-2.91-6.51-6.51s2.91-6.51 6.51-6.51c16.51.0 29.95-13.44 29.95-29.96V463.82c0-3.59 2.91-6.51 6.51-6.51s6.51 2.91 6.51 6.51v124.67c0 23.69-19.27 42.97-42.96 42.97z" fill="#2c5871"/><path d="M164.68 288.04H87.85c-3.6.0-6.51-2.91-6.51-6.51s2.91-6.51 6.51-6.51h76.83c11.98.0 21.73-9.75 21.73-21.73v-75.28c0-11.98-9.75-21.72-21.73-21.72H144.3c-3.6.0-6.51-2.91-6.51-6.51s2.91-6.51 6.51-6.51h20.38c19.15.0 34.74 15.58 34.74 34.73v75.28c0 19.16-15.58 34.74-34.74 34.74z" fill="#2c5871"/><path d="M255.07 251.02c-3.6.0-6.51-2.91-6.51-6.51.0-11.99-9.75-21.75-21.74-21.75h-29.05c-3.6.0-6.51-2.91-6.51-6.51s2.91-6.51 6.51-6.51h29.05c19.16.0 34.75 15.59 34.75 34.76.0 3.59-2.91 6.51-6.51 6.51z" fill="#2c5871"/><path d="M227.41 411.92H87.85c-3.6.0-6.51-2.91-6.51-6.51s2.91-6.51 6.51-6.51H227.41c11.99.0 21.74-9.75 21.74-21.74v-9.4c0-3.59 2.91-6.51 6.51-6.51s6.51 2.91 6.51 6.51v9.4c0 19.16-15.59 34.75-34.75 34.75z" fill="#2c5871"/><path d="M200.75 520.71c-3.6.0-6.51-2.91-6.51-6.51v-29.01c0-11.98-9.75-21.73-21.73-21.73-3.6.0-6.51-2.91-6.51-6.51s2.91-6.51 6.51-6.51c19.15.0 34.74 15.58 34.74 34.74v29.01c0 3.59-2.91 6.51-6.51 6.51z" fill="#2c5871"/><path d="M175.68 409.36c-3.6.0-6.51-2.91-6.51-6.51v-28.99c0-11.99-9.76-21.74-21.75-21.74-3.6.0-6.51-2.91-6.51-6.51s2.91-6.51 6.51-6.51c19.17.0 34.76 15.59 34.76 34.75v28.99c0 3.59-2.91 6.51-6.51 6.51z" fill="#2c5871"/><path d="M138.04 668.96c-3.6.0-6.51-2.91-6.51-6.51.0-19.15 15.58-34.74 34.74-34.74 3.6.0 6.51 2.91 6.51 6.51s-2.91 6.51-6.51 6.51c-11.98.0-21.73 9.75-21.73 21.73.0 3.59-2.91 6.51-6.51 6.51z" fill="#2c5871"/></g><g><path d="M495.5 683.56c48.88.0 88.69-39.5 89.17-88.27v-14.05l12.53-3.22c27.5-7.08 46.7-31.78 46.7-60.07.0-14.24-4.75-27.65-13.72-38.84l-12.86-16 18.3-9.33c19.61-9.97 31.78-29.74 31.78-51.57s-11.89-40.52-31.05-51.37l-18.49-10.47 14.57-15.49c11.94-12.7 18.52-29.21 18.52-46.51.0-31.42-21.38-58.56-51.99-65.98l-22.3-5.42 12.02-19.55c5.85-9.49 8.93-20.35 8.93-31.35.0-30.85-24.06-57.16-54.8-59.89l-13.02-1.17-1.99-12.93c-6.62-43.09-44.46-75.57-87.99-75.57-49.16.0-89.16 40-89.16 89.16v498.74c0 49.17 40 89.16 89.16 89.16h55.7z" fill="#cceef5"/><path d="M495.5 690.07h-55.7c-52.75.0-95.66-42.92-95.66-95.67V95.66C344.14 42.91 387.05.0 439.8.0c46.73.0 87.31 34.86 94.42 81.09l1.22 7.9 7.95.71c34.05 3.03 60.72 32.18 60.72 66.37.0 12.22-3.42 24.24-9.9 34.76l-7.34 11.93 13.61 3.31c33.54 8.14 56.96 37.87 56.96 72.3.0 18.95-7.2 37.05-20.29 50.97l-8.89 9.45 11.28 6.39c21.19 12 34.36 33.85 34.36 57.03s-13.54 46.29-35.33 57.37l-11.17 5.69 7.85 9.76c9.92 12.37 15.16 27.21 15.16 42.91.0 31.26-21.21 58.56-51.59 66.37l-7.64 1.97v9.01c-.51 52.29-43.43 94.78-95.68 94.78zM439.8 13.01c-45.58.0-82.65 37.08-82.65 82.65V594.4c0 45.58 37.08 82.66 82.65 82.66h55.7c45.14.0 82.22-36.71 82.66-81.83v-19.03l17.41-4.48c24.62-6.33 41.81-28.45 41.81-53.77.0-12.72-4.25-24.73-12.29-34.77l-17.86-22.23 25.43-12.97c17.41-8.85 28.23-26.39 28.23-45.78s-10.64-36.01-27.76-45.71l-25.7-14.55 20.25-21.52c10.81-11.49 16.76-26.42 16.76-42.05.0-28.41-19.34-52.94-47.02-59.66l-30.99-7.53 16.7-27.17c5.21-8.47 7.97-18.13 7.97-27.94.0-27.51-21.47-50.97-48.87-53.41l-18.1-1.63-2.77-17.97c-6.14-39.94-41.2-70.05-81.56-70.05z" fill="#2c5871"/></g><g><path d="M422.97 163.34c-3.6.0-6.51-2.91-6.51-6.51.0-35.58 28.95-64.53 64.53-64.53h56.45c3.6.0 6.51 2.91 6.51 6.51s-2.91 6.51-6.51 6.51h-56.45c-28.41.0-51.52 23.11-51.52 51.52.0 3.59-2.91 6.51-6.51 6.51z" fill="#2c5871"/><path d="M495.5 687.93h-55.7c-51.59.0-93.55-41.96-93.55-93.53V95.66c0-51.58 41.97-93.55 93.55-93.55s93.55 41.96 93.55 93.55c0 3.59-2.91 6.51-6.51 6.51s-6.51-2.91-6.51-6.51c0-44.41-36.13-80.54-80.54-80.54s-80.54 36.13-80.54 80.54V594.4c0 44.4 36.13 80.52 80.54 80.52h55.7c45.91.0 80.54-38.15 80.54-88.74.0-3.59 2.91-6.51 6.51-6.51s6.51 2.91 6.51 6.51c0 58.01-40.21 101.75-93.55 101.75z" fill="#2c5871"/><path d="M537.45 220.58c-3.6.0-6.51-2.91-6.51-6.51s2.91-6.51 6.51-6.51c28.42.0 51.54-23.11 51.54-51.5s-23.12-51.54-51.54-51.54h-12.14c-3.6.0-6.51-2.91-6.51-6.51s2.91-6.51 6.51-6.51h12.14c35.6.0 64.55 28.96 64.55 64.55s-28.96 64.51-64.55 64.51z" fill="#2c5871"/><path d="M584.04 350.75h-1.08c-3.6.0-6.51-2.91-6.51-6.51s2.91-6.51 6.51-6.51c32.73.0 59.36-26.63 59.36-59.37s-26.63-59.34-59.36-59.34h-28.23c-3.6.0-6.51-2.91-6.51-6.51s2.91-6.51 6.51-6.51h28.23c39.91.0 72.37 32.46 72.37 72.35s-31.63 71.54-70.83 72.37c-.15.0-.3.02-.46.02z" fill="#2c5871"/><path d="M581.77 584.44h-98.79c-3.6.0-6.51-2.91-6.51-6.51s2.91-6.51 6.51-6.51h98.79c29.49.0 53.49-23.99 53.49-53.49s-24-53.49-53.49-53.49c-3.6.0-6.51-2.91-6.51-6.51s2.91-6.51 6.51-6.51c36.67.0 66.5 29.83 66.5 66.5s-29.83 66.5-66.5 66.5z" fill="#2c5871"/><path d="M609.53 464.45h-57.87c-3.6.0-6.51-2.91-6.51-6.51s2.91-6.51 6.51-6.51h57.87c27.17.0 49.26-22.09 49.26-49.24s-24.27-50.66-51.95-50.66h-28.59c-3.6.0-6.51-2.91-6.51-6.51s2.91-6.51 6.51-6.51h28.59c34.6.0 64.96 29.75 64.96 63.67s-27.93 62.25-62.27 62.25z" fill="#2c5871"/><path d="M578.23 524.82h-122.3c-24.34.0-44.15-19.8-44.15-44.13V363.85c0-24.34 19.81-44.15 44.15-44.15 3.6.0 6.51 2.91 6.51 6.51s-2.91 6.51-6.51 6.51c-17.17.0-31.14 13.97-31.14 31.14v116.84c0 17.16 13.97 31.12 31.14 31.12h122.3c3.6.0 6.51 2.91 6.51 6.51s-2.91 6.51-6.51 6.51z" fill="#2c5871"/><path d="M454.73 631.47c-23.69.0-42.96-19.28-42.96-42.97V463.83c0-3.59 2.91-6.51 6.51-6.51s6.51 2.91 6.51 6.51V588.5c0 16.52 13.44 29.96 29.95 29.96 3.6.0 6.51 2.91 6.51 6.51s-2.91 6.51-6.51 6.51z" fill="#2c5871"/><path d="M586.07 288.04h-76.83c-19.16.0-34.74-15.59-34.74-34.74v-75.28c0-19.15 15.58-34.73 34.74-34.73h20.37c3.6.0 6.51 2.91 6.51 6.51s-2.91 6.51-6.51 6.51h-20.37c-11.98.0-21.73 9.75-21.73 21.72v75.28c0 11.98 9.75 21.73 21.73 21.73h76.83c3.6.0 6.51 2.91 6.51 6.51s-2.91 6.51-6.51 6.51z" fill="#2c5871"/><path d="M418.85 251.02c-3.6.0-6.51-2.91-6.51-6.51.0-19.16 15.58-34.76 34.74-34.76h29.05c3.6.0 6.51 2.91 6.51 6.51s-2.91 6.51-6.51 6.51h-29.05c-11.98.0-21.73 9.75-21.73 21.75.0 3.59-2.91 6.51-6.51 6.51z" fill="#2c5871"/><path d="M586.07 411.92h-139.57c-19.15.0-34.74-15.59-34.74-34.75v-9.4c0-3.59 2.91-6.51 6.51-6.51s6.51 2.91 6.51 6.51v9.4c0 11.99 9.75 21.74 21.73 21.74h139.57c3.6.0 6.51 2.91 6.51 6.51s-2.91 6.51-6.51 6.51z" fill="#2c5871"/><path d="M473.15 520.71c-3.6.0-6.51-2.91-6.51-6.51v-29.01c0-19.15 15.58-34.74 34.74-34.74 3.6.0 6.51 2.91 6.51 6.51s-2.91 6.51-6.51 6.51c-11.98.0-21.73 9.75-21.73 21.73v29.01c0 3.59-2.91 6.51-6.51 6.51z" fill="#2c5871"/><path d="M498.24 409.36c-3.6.0-6.51-2.91-6.51-6.51v-28.99c0-19.16 15.6-34.75 34.76-34.75 3.6.0 6.51 2.91 6.51 6.51s-2.91 6.51-6.51 6.51c-11.99.0-21.75 9.75-21.75 21.74v28.99c0 3.59-2.91 6.51-6.51 6.51z" fill="#2c5871"/><path d="M535.88 668.96c-3.6.0-6.51-2.91-6.51-6.51.0-11.98-9.75-21.73-21.73-21.73-3.6.0-6.51-2.91-6.51-6.51s2.91-6.51 6.51-6.51c19.16.0 34.74 15.58 34.74 34.74.0 3.59-2.91 6.51-6.51 6.51z" fill="#2c5871"/></g></g><g><path d="M10.91 404.61c-.65 8.46-1.09 16.97-1.09 25.6.0 10.71 7.83 162.07 131.16 320.9 36.14 47.95 30.2 144.34 29.87 144.34H504.47c-.34.0-6.93-96.39 29.05-144.34 123.53-159.02 131.19-310.19 131.19-320.9.0-8.63-.43-17.14-1.09-25.6H10.91z" fill="#f0edda"/><path d="M504.47 901.95H170.86v-6.51l-6.42-.96c.1-.88 6.01-93.48-28.65-139.46C6.93 589.07 3.32 431.75 3.32 430.21c0-7.89.36-16.43 1.11-26.1l.46-6H669.65l.46 6c.74 9.62 1.11 18.16 1.11 26.1.0 1.54-3.61 158.88-132.56 324.89-31.39 41.85-29.19 127.81-27.77 139.33l-6.42 1.02v6.51zm-326.88-13.01H497.7c-1.39-26.23-.29-100.54 30.61-141.74 126.36-162.67 129.89-315.5 129.89-317 0-5.92-.21-12.22-.64-19.1H16.98c-.44 6.93-.65 13.12-.65 19.1.0 1.5 3.53 154.31 129.8 316.91 31.22 41.44 32.72 115.63 31.47 141.82z" fill="#2c5871"/></g><path d="M510.71 945.6H163.82c-3.6.0-6.51-2.91-6.51-6.51s2.91-6.51 6.51-6.51H510.71c3.6.0 6.51 2.91 6.51 6.51s-2.91 6.51-6.51 6.51z" fill="#2c5871"/><path d="M510.71 988.52H163.82c-3.6.0-6.51-2.91-6.51-6.51s2.91-6.51 6.51-6.51H510.71c3.6.0 6.51 2.91 6.51 6.51s-2.91 6.51-6.51 6.51z" fill="#2c5871"/><path d="M510.71 1031.48H163.82c-3.6.0-6.51-2.91-6.51-6.51s2.91-6.51 6.51-6.51H510.71c3.6.0 6.51 2.91 6.51 6.51s-2.91 6.51-6.51 6.51z" fill="#2c5871"/><path d="M468.75 1080H205.77c-3.6.0-6.51-2.91-6.51-6.51s2.91-6.51 6.51-6.51H468.75c3.6.0 6.51 2.91 6.51 6.51s-2.91 6.51-6.51 6.51z" fill="#2c5871"/><g><path d="M245.45 546.02h13.01v343.1H245.45z" transform="translate(-113.68 50.71) rotate(-9.39)" fill="#2c5871"/><path d="M251.05 711.06h343.1v13.01H251.05z" transform="translate(-354.29 1017.47) rotate(-80.61)" fill="#2c5871"/></g><path d="M416.09 616.05c-11.03.0-15.77-10.62-19.57-19.14-2.15-4.83-5.1-11.43-7.69-11.43s-5.5 6.6-7.64 11.42c-3.8 8.54-8.52 19.16-19.55 19.16s-15.75-10.62-19.55-19.16c-2.14-4.82-5.08-11.42-7.64-11.42s-5.5 6.6-7.64 11.43c-3.79 8.53-8.51 19.15-19.54 19.15s-15.74-10.62-19.54-19.16c-2.14-4.82-5.07-11.42-7.63-11.42s-5.48 6.6-7.61 11.42c-3.79 8.54-8.49 19.16-19.5 19.16s-15.74-10.62-19.53-19.15c-2.14-4.82-5.08-11.42-7.64-11.42v-13.01c11.02.0 15.74 10.62 19.53 19.15 2.14 4.82 5.08 11.42 7.64 11.42s5.48-6.6 7.61-11.42c3.79-8.54 8.49-19.16 19.5-19.16s15.73 10.62 19.52 19.15c2.14 4.82 5.08 11.43 7.64 11.43s5.5-6.6 7.64-11.43c3.79-8.53 8.51-19.15 19.54-19.15s15.74 10.62 19.54 19.14c2.14 4.83 5.08 11.43 7.66 11.43s5.51-6.61 7.66-11.43c3.79-8.53 8.51-19.14 19.54-19.14s15.77 10.62 19.57 19.14c2.15 4.83 5.1 11.43 7.69 11.43s5.53-6.61 7.68-11.43c3.8-8.53 8.53-19.14 19.55-19.14v13.01c-2.58.0-5.52 6.6-7.67 11.43-3.8 8.53-8.53 19.15-19.56 19.15z" fill="#2c5871"/></g></g></svg>