<svg id="_Слой_2" xmlns="http://www.w3.org/2000/svg" width="1080" height="193.76" viewBox="0 0 1080 193.76"><g id="Cloud02_90604570"><path id="Cloud02_90604570-2" d="M208.14.0c46.04.0 85.4 28.68 101.13 69.11 20.32-19.46 47.86-31.46 78.25-31.46 35.27.0 66.75 16.13 87.49 41.47 15.11-20.5 39.46-33.84 66.91-33.84 37.93.0 69.93 25.42 79.86 60.14 11.3-11.75 27.17-19.06 44.78-19.06 14.54.0 27.89 5 38.47 13.35h327.95c25.86.0 47.03 21.21 47.03 47.03h0c0 25.9-21.17 47.03-47.03 47.03H6.6c-4.23-9.06-6.6-19.23-6.6-29.87.0-39.16 31.7-70.86 70.86-70.86 10.39.0 20.26 2.22 29.18 6.28C104.73 43.69 151.33.0 208.14.0z" fill="#e4d5c6" fill-rule="evenodd"/></g></svg>