<svg xmlns="http://www.w3.org/2000/svg" width="1080" height="1077.09" viewBox="0 0 1080 1077.09"><g id="a"/><g id="b"><g id="c"><g id="d"><g><path d="M222.79 474.79c-2.23-3.8-.33.56-7.7 6.14-1.56 1.12-9.04.56-.11-6.81 11.5-9.49-9.94-2.34-12.73-5.14-1.67-1.67-.11-3.68 3.01-3.91 8.04-.45-1.34-4.69-5.14-.89-4.35 4.35-16.08 4.91-6.03 1.79 4.02-1.34 11.95-7.48 4.02-4.24-9.04 3.68-5.58-2.9-1.67-4.35 2.9-1.12 4.47-4.24 2.34-4.8-2.01-.45-15.63 7.15-12.73 10.05 1.45 1.45-.56 3.24-1.01 1.67-.78-3.24-6.59 5.47 2.12-9.71-1.34 1.12-6.92 6.03-7.15 4.47-.33-1.67-2.34.11-1.12 1.56 1.67 1.67-2.46-.22-5.47 2.12-9.27 6.81-.89-4.91-12.17 4.35-10.5 8.49-12.51 15.86-11.72 10.38.67-5.36-4.58-3.24-8.82 3.46-8.04 12.95 19.09-13.51.22 8.49-9.27 10.83-7.93 5.25-7.15 3.8 1.56-2.46-2.57 3.68-3.8 2.46-.45-.45-1-.33-1.23.56-.34 1.23-41.43-31.15-42.21-31.93-7.03-6.81-16.41-10.61-14.4-5.69 1.23 3.01-11.28-1.45-18.65-6.81-5.14-3.8-6.92-4.24-6.36-1.67.67 3.8-9.27-3.24 3.24 8.15 6.14 5.69 6.81 6.59 5.58 7.82s-.78 1.9 1.9 3.91c7.03 5.02-1.79 4.69-6.7 2.23-8.82-4.58-11.72-.56-9.94 2.34 1.56 2.68-.89 2.9-1.79 1.56-.89-1.34-8.82-2.34-3.46 5.02 7.26 9.94-1.34 6.25-2.46 5.14-1.23-1.23-1.79-1.12-2.9.67-1.34 2.46-6.81 3.01-9.04.78-2.68-2.68-7.15 1.12-2.79 5.69 5.14 5.14-3.8-1.56 3.01 6.81 2.79 3.46 38.41 36.62 39.42 37.85 15.41 20.1 20.88 15.97 12.17 24.68-4.24 4.24-6.7.89-4.8 4.13 2.57 4.35-14.18 14.63-15.97 22-.33 1.23-.89 1.79-1.79 1.34-1.67-.78-4.91 2.23-3.68 3.46.45.45 1.12.45 1.45.11 3.57-4.91-.45 2.9 4.91-.45 4.91-3.13 9.16.89 7.03-3.91-.67-1.34-1.12-1.34-1.67-.11-.45.89-1.12 1.34-1.56.89-1.45-1.45 25.01-19.43 4.69 3.13-13.18 14.52 1 2.12-2.23 9.16-1.79 3.8 4.8 2.12 5.02.78.22-2.01.11 3.24 2.12 4.58 2.57 1.67-3.68 3.91-.89 8.71 2.23 3.57 1.67 5.25-2.23 9.16-13.06 13.06 25.57-17.08 15.97-7.48-4.69 4.69 10.27.45 9.49 3.91-.89 3.8 10.5.89 5.47 6.81-2.34 2.79 1 1 .45 4.91-2.12 13.51 35.28-22.56 39.3-29.26 3.8-6.25 23.9 19.65 40.42 24.12 7.82 2.01 12.06 9.6 15.86 5.81 2.23-2.23-9.16-5.81-2.01-7.37 3.46-.78 3.68-1 3.91-3.91.22-4.47 3.57-7.82 6.36-6.14 1.79 1.12 2.79.78 4.91-1.79 1.56-1.79 3.01-2.79 3.46-2.34 1.67 1.67.45-3.57 5.36-.22 8.15 7.03.89-15.41-8.15-13.96-1.34.22-5.36-8.04-7.03-9.27-1.67-1.23 4.47-3.35 4.02.0-1.23 7.48 4.47-4.91 8.6 4.58.67 1.56 4.35 8.37 4.13 1.45-.45-12.06-2.9 1.56-3.57-7.59-.33-5.25 3.24-2.12 2.57-.56-.67 1.34 6.03.45 8.6 2.79 3.35 3.13-4.47-6.25-1.9-7.93 5.92-4.13-9.71-2.34-3.35-8.71 2.34-2.34-1.9.78-6.36-2.79-2.12-1.67-2.34-2.57-1.12-3.57 6.48-5.58-26.69-20.88-19.54-30.93 32.38-45.78 34.73-45.22 34.73-48.57.0-1.12 1.12-3.13 2.46-4.47 6.25-6.7-2.23-5.58-4.02-8.49zm-92.45 24.79c.33-.78 1.12-1.56 1.67-1.45h0c1.12-.22-2.68 3.57-1.67 1.45z" fill="#070707"/><path d="M232.84 594.04c.45 1.79 3.24-1 2.12-2.12-1.12-.89-2.57.33-2.12 2.12z" fill="#070707"/><path d="M224.92 588.35c-3.35.0 2.68 2.68 3.35 2.01.45-.45 1.34-.22 2.12.56 1.79 1.79 2.12-.56.56-3.24-1.9-3.46-2.46.67-6.03.67z" fill="#070707"/><path d="M222.24 584.55c-1.12 1.12.56 2.34 2.34 1.67h0c3.24-1.45-1.45-2.57-2.34-1.67z" fill="#070707"/><path d="M222.35 493.99c1.12 1.12 2.79-.56 2.23-1.12-.78-.78-3.35.0-2.23 1.12z" fill="#070707"/><path d="M42.35 586.67c-2.68.0-.78 1.67.89 1.79 1.45-.11 1.56-1.79-.89-1.79z" fill="#070707"/><path d="M175.45 453.8c-2.79.56-7.82 5.58-6.7 6.7.89.89 10.27-7.37 6.7-6.7z" fill="#070707"/><path d="M165.4 455.58h0c4.13-.78 1.23-3.01-.56-1.01-1.23 1.23-1.12 1.34.56 1.01z" fill="#070707"/><path d="M36.1 465.63c-.89-.45-.89.0.0 1.12h0c2.01 2.23 2.01-.22.0-1.12z" fill="#070707"/></g><g><path d="M37.67 1038.35c2.23 3.8.33-.56 7.7-6.14 1.56-1.12 9.04-.56.11 6.81-11.5 9.49 9.94 2.34 12.73 5.14 1.67 1.67.11 3.68-3.01 3.91-8.04.45 1.34 4.69 5.14.89 4.35-4.35 16.08-4.91 6.03-1.79-4.02 1.34-11.95 7.48-4.02 4.24 9.04-3.68 5.58 2.9 1.67 4.35-2.9 1.12-4.47 4.24-2.34 4.8 2.01.45 15.63-7.15 12.73-10.05-1.45-1.45.56-3.24 1-1.67.78 3.24 6.59-5.47-2.12 9.71 1.34-1.12 6.92-6.03 7.15-4.47.33 1.67 2.34-.11 1.12-1.56-1.67-1.67 2.46.22 5.47-2.12 9.27-6.81.89 4.91 12.17-4.35 10.5-8.49 12.51-15.86 11.72-10.38-.67 5.36 4.58 3.24 8.82-3.46 8.04-12.95-19.09 13.51-.22-8.49 9.27-10.83 7.93-5.25 7.15-3.8-1.56 2.46 2.57-3.68 3.8-2.46.45.45 1 .33 1.23-.56.33-1.23 41.43 31.15 42.21 31.93 7.03 6.81 16.41 10.61 14.4 5.69-1.23-3.01 11.28 1.45 18.65 6.81 5.14 3.8 6.92 4.24 6.36 1.67-.67-3.8 9.27 3.24-3.24-8.15-6.14-5.69-6.81-6.59-5.58-7.82s.78-1.9-1.9-3.91c-7.03-5.02 1.79-4.69 6.7-2.23 8.82 4.58 11.72.56 9.94-2.34-1.56-2.68.89-2.9 1.79-1.56s8.82 2.34 3.46-5.02c-7.26-9.94 1.34-6.25 2.46-5.14 1.23 1.23 1.79 1.12 2.9-.67 1.34-2.46 6.81-3.01 9.04-.78 2.68 2.68 7.15-1.12 2.79-5.69-5.14-5.14 3.8 1.56-3.01-6.81-2.79-3.46-38.41-36.62-39.42-37.85-15.41-20.1-20.88-15.97-12.17-24.68 4.24-4.24 6.7-.89 4.8-4.13-2.57-4.35 14.18-14.63 15.97-22 .33-1.23.89-1.79 1.79-1.34 1.67.78 4.91-2.23 3.68-3.46-.45-.45-1.12-.45-1.45-.11-3.57 4.91.45-2.9-4.91.45-4.91 3.13-9.16-.89-7.03 3.91.67 1.34 1.12 1.34 1.67.11.45-.89 1.12-1.34 1.56-.89 1.45 1.45-25.01 19.43-4.69-3.13 13.18-14.52-1.01-2.12 2.23-9.16 1.79-3.8-4.8-2.12-5.02-.78-.22 2.01-.11-3.24-2.12-4.58-2.57-1.67 3.68-3.91.89-8.71-2.23-3.57-1.67-5.25 2.23-9.16 13.06-13.06-25.57 17.08-15.97 7.48 4.69-4.69-10.27-.45-9.49-3.91.89-3.8-10.5-.89-5.47-6.81 2.34-2.79-1-1-.45-4.91 2.12-13.51-35.28 22.56-39.3 29.26-3.8 6.25-23.9-19.65-40.42-24.12-7.82-2.01-12.06-9.6-15.86-5.81-2.23 2.23 9.16 5.81 2.01 7.37-3.46.78-3.68 1-3.91 3.91-.22 4.47-3.57 7.82-6.36 6.14-1.79-1.12-2.79-.78-4.91 1.79-1.56 1.79-3.01 2.79-3.46 2.34-1.67-1.67-.45 3.57-5.36.22-8.15-7.03-.89 15.41 8.15 13.96 1.34-.22 5.36 8.04 7.03 9.27 1.67 1.23-4.47 3.35-4.02.0 1.23-7.48-4.47 4.91-8.6-4.58-.67-1.56-4.35-8.37-4.13-1.45.45 12.06 2.9-1.56 3.57 7.59.33 5.25-3.24 2.12-2.57.56.67-1.34-6.03-.45-8.6-2.79-3.35-3.13 4.47 6.25 1.9 7.93-5.92 4.13 9.71 2.34 3.35 8.71-2.34 2.34 1.9-.78 6.36 2.79 2.12 1.67 2.34 2.57 1.12 3.57-6.48 5.58 26.69 20.88 19.54 30.93-32.38 45.78-34.73 45.22-34.73 48.57.0 1.12-1.12 3.13-2.46 4.47-6.25 6.7 2.23 5.58 4.02 8.49zm92.45-24.79c-.33.78-1.12 1.56-1.67 1.45h0c-1.12.22 2.68-3.57 1.67-1.45z" fill="#070707"/><path d="M27.62 919.1c-.45-1.79-3.24 1-2.12 2.12 1.12.89 2.57-.33 2.12-2.12z" fill="#070707"/><path d="M35.55 924.79c3.35.0-2.68-2.68-3.35-2.01-.45.45-1.34.22-2.12-.56-1.79-1.79-2.12.56-.56 3.24 1.9 3.46 2.46-.67 6.03-.67z" fill="#070707"/><path d="M38.23 928.59c1.12-1.12-.56-2.34-2.34-1.67h0c-3.24 1.45 1.45 2.57 2.34 1.67z" fill="#070707"/><path d="M38.12 1019.14c-1.12-1.12-2.79.56-2.23 1.12.78.78 3.35.0 2.23-1.12z" fill="#070707"/><path d="M218.11 926.46c2.68.0.78-1.67-.89-1.79-1.45.11-1.56 1.79.89 1.79z" fill="#070707"/><path d="M85.01 1059.34c2.79-.56 7.82-5.58 6.7-6.7-.89-.89-10.27 7.37-6.7 6.7z" fill="#070707"/><path d="M95.06 1057.55h0c-4.13.78-1.23 3.01.56 1.01 1.23-1.23 1.12-1.34-.56-1.01z" fill="#070707"/><path d="M224.37 1047.5c.89.45.89.0.0-1.12h0c-2.01-2.23-2.01.22.0 1.12z" fill="#070707"/></g><g><path d="M466.8 609.51c3.71-5.07 6.05-2.73 4.1 3.9-.49 1.46-.2 2.73.78 3.12 3.22 1.46-4.68 5.07-3.12 6.63.39.39 1.37.2 2.15-.39 2.83-2.44 3.32-2.73 8.09-3.8 4.29-.98 16.58-.78 12.39.29-3.32.78 4.68 7.02 4.88 9.75.29 2.83 6.73 2.24 5.07.59s9.75-10.14 2.34 2.73c-2.05 3.61-1.07 4.97 2.83 4 3.8-.88 8.29-10.63 10.63-13.17 1.07-1.07-.98-1.95-2.05-.88-.59.59-1.17.98-1.37.78-1.37-1.37-4.58-.68-.68-3.8 3.41-2.83 4.68-4.29 5.07-2.73.49 2.05-4.39 2.83-2.44 3.8 1.85.88 8.09-6.53 11.12-6.83 4.78-.49-5.17-3.22 2.63-5.56 3.12-.98.1-.88 2.34-4.29 2.44-3.61 7.61 1.95 5.46-2.93-.59-1.37 5.66-13.85 15.6-5.27 25.45 21.94 4 9.07 44.37 34.43 4.19 2.63 3.12-2.15 4.58-.68.98.98-1.07 3.8.88 2.05.68-.68 2.24-.49 3.8.49 4.88 3.12 6.92-6.14 10.24-4.78 4.78 2.05.78-8.39 7.31-1.85 4.97 4.97 1.37-.2 4.88-2.73 2.93-2.15-2.83-3.22-2.15-7.8.49-2.83-3.12-7.61 2.63-3.8 8.29 5.56-5.46-15.21 3.61-9.66 1.56.98 2.34 1.95 1.85-1.07-1.07-7.7 1.37 9.75 9.27 6.14 6.44-2.93-1.85-4.58-2.34-8.97-1.46-15.9-50.62-41.64-43.5-47.4 8.97-7.41-2.15-3.51 6.44-10.53 2.83-2.24 4.19-4 3.8-4.58-.29-.68.39-1.56 1.56-2.15 4.1-2.15 1.27 2.63 6.24-2.54 3.12-3.32-2.05-.49-2.34.39-.2.98-4.19-1.27-2.83-1.66 1.46-.29-.1-2.63 1.37-2.93 1.56-.39 1.27-4.39-3.71-.2-5.27 4.49 1.56-7.61 3.41-6.14 1.37 1.17 2.24 1.46 3.51 2.34 1.56 1.17 10.24-4.58 8.87-5.95-.39-.39.0-.98.98-1.37 1.37-.59 1.17-.98-.39-1.76-1.27-.68-1.76-1.37-1.27-1.85.39-.39.29-1.27-.29-1.85-1.27-1.27.59-5.27 2.34-4.88.68.1 9.85-7.51 12.68-8.39 4.29-1.37 5.07-3.51.78-2.34-1.95.59-3.02.49-2.44-.29 1.17-1.56 2.93-3.71 3.61-4.78 1.07-1.46-1.56-4.49-.49-5.56.78-.78.59-4.88-.29-5.75-.29-.29-2.44 1.85-4.88 4.68-8.58 9.95-4.88.2-2.54-3.51 1.17-1.95 1.17-2.73-.49-3.8-5.56-3.8 8.09-3.02-2.24-10.63-.29-.29-1.17.0-1.66.49-1.37 1.37-4.49-.2-4.1-1.95.49-2.24-7.31 3.8-8.09 1.85-3.12-7.02-9.36 2.93-9.85-2.24-.29-3.02-4.19 2.24-6.92 1.07-2.54-1.17-5.07 5.27-8 6.05-2.05.49-2.54-1.95-.68-2.83.98-.39 1.07-1.07.29-1.85-1.37-1.37.2-2.73-.49-3.41-.88-.88-5.07 2.54-2.83 3.61 2.24 1.07-.49 3.41.98 4.88 1.07 1.07-.68 3.61-2.05 1.27-1.46-2.44-3.41 2.05-2.54 2.93.39.39-.98.98-3.02 1.27-2.34.39-4.78 1.66-6.73 3.61-4.49 4.49-3.12.59-6.14 3.61.0.0-.1 2.63-8 11.31-5.56 6.14-8.68 8.87-9.46 8.68-.78-.2-2.44 1.07-3.8 2.63-2.05 2.44-2.63 2.63-3.22 1.27-.39-.98-1.07-1.27-1.46-.88-2.93 2.93 8.09 2.83-3.8 5.95l-5.07 1.37c6.83 4.1 3.71 5.46-.1 1.07-1.76-1.95-3.32-3.32-3.51-3.12-.88.88-4.88-2.73-.88 1.66l2.83 3.02c-1.85-.88-6.73-3.41-8.09-2.24-3.02 2.63-3.12 2.54-4.1.0-.78-2.15-.59-2.73 1.07-3.22 3.12-.98.1-1.46 3.02-1.85 2.34-.2 4.88-3.9-.98-8.39-6.14-4.78-10.24-2.44-11.02-5.95-.68-3.22 1.66 1.07 4.39 1.07 2.73.0-7.51-4-3.12-5.27 5.36-1.66-2.54-2.93-2.54-.78.0 1.56-2.05-1.85-3.22-.68-.49.49-.1 1.07.68 1.46.98.39.88 1.46.1 2.83-1.56 2.54-.59 4.29 1.46 2.44q1.17-.98.49.29c-1.46 2.44 5.75 5.95 2.63 5.36-3.51-.78-12.29-10.53-13.46-8-.68 1.66-1.76.98-1.76-1.37.0-1.17-.78-1.56-2.34-1.56-5.85.0 4.1-.2-5.07-6.24-4.78-3.22.1 1.07-3.12 1.76-3.41.68.39-4.68-2.34-1.95-1.95 1.95-2.83-1.66-4.78.29-2.34 2.34 1.27-.88 3.12 2.73 1.85 3.61.68-1.66 3.22 2.24 2.44 3.8-1.07-.1-2.15.98-.39.39-.98.0-1.37-.78-.39-.78-1.85-1.46-3.41-1.66-2.73-.2-3.9-.78-7.61-3.9-.98-.78-2.05-1.27-2.44-.88-.39.39-2.63-1.85-3.9-.59-1.76 1.76 1.56 2.15-1.37 3.9-1.85 1.07-1.27 8.87-8.09 4.39h0c-4.58-3.02-.59.39-2.24 2.05-1.56 1.56 2.15 2.73 1.27 4.19-.88 1.27-4.1-4.29-5.27-3.12-.39.39-.1 1.07.88 1.46 1.66.68 2.05 5.95.59 7.41-.98.98 1.17 3.9 2.54 1.17 1.76-3.32 2.63 1.27 2.83-1.85.2-2.34 6.24-2.73 3.61-1.46-5.36 2.63 10.63 2.24 3.32 4.49-3.32.98-1.56-.78-4.39-1.46-2.54-.59.49 2.44 1.66 3.22s-3.61 6.73 3.02 6.92c.39.0 25.36 19.7 25.45 19.6.88-.88 1.46 1.66.39 1.95-1.07.29.49 1.27 1.85 4 1.95 3.71 6.83.59 6.92 4 .2 3.51.29-2.44 4-.68 5.66 2.54-.1 2.63 1.37 4.1 1.85 1.85-3.8-.1-1.95 2.73 1.85 2.83-12.39 14.14-13.17 17.07-.1.68-.78.98-1.56.59-1.56-.78-25.84 22.33-28.09 29.45-.78 2.54-1.95 4.68-2.54 4.68-1.85.1 2.24.29.88 1.85-3.12 3.12 1.76 11.51 1.95 13.26.68 4.58 5.46-1.56 8.39-5.66zm40.86 21.36c-.39-1.56.88-2.83 1.85-1.85s-1.46 3.41-1.85 1.85zM620.4 464.88c.49.49-.68 4.78-1.95 3.51-1.07-1.07 1.37-4.1 1.95-3.51zm-13.65 66.9c1.95-1.95.39 2.54-.78 3.71-1.85 1.85-.29-2.63.78-3.71zm-107.47 2.15c-1.37-.39-2.44-.88-2.34-1.17.2-1.56 3.32-6.63 3.51-5.66.2.59.49.88.88.49.68-.68 6.73 3.61 3.61 3.8-3.22.29-1.95 3.71-5.66 2.54zm12.87 2.54c-.78.2-.88.68-.49 1.07 1.46 1.46-1.17 1.37-3.51-.2h0c-2.83-1.85-2.63-1.07 1.37-2.93 4.58-2.05 4.29 1.76 2.63 2.05zm-8.87-10.44c-1.17-1.37-1.27-2.24-.49-2.05 4.68.98 5.27 8.19.49 2.05zm3.02-11.8c.68.29.59 1.17-.2 1.95-3.32 3.32-2.15-2.93.2-1.95zm3.8 8.09c-1.37-1.37-.1-2.63.88-1.66.88 1.07.49 3.02-.88 1.66zm5.36-5.75c.98.98 2.44 7.9-4 2.24-2.73-2.34-2.73.0-4.68.0h0c-1.95.0.49-2.63 4.97-1.66 5.66 1.56 1.17-2.73 3.71-.59zm-10.63-7.31c-1.95 2.15.98 1.95-2.15 4.1-3.12 2.15-5.36-1.27-3.61-1.66.78-.2.88-.49.39-.59h0c-3.8-1.07-1.85-6.53 2.15-2.54 1.95 1.95 5.66-2.15 3.22.68zm-22.43-13.26h0c-1.66-2.83-.98-3.71 2.24-2.63 9.75 3.32 3.61 3.61 7.22 5.85 4.58 2.63-3.71.39-5.95.49-4.88.2-1.46-.29-3.51-3.71zm16.09 18.24c.88.88-1.37 3.12-1.85 2.63-.29-.49.98-3.51 1.85-2.63zm-.49 3.41c1.37-1.37 5.75 1.66 4.88 2.54-1.07 1.07-2.24-2.24-2.54 1.95-.29 5.17.2-3.12-5.17 3.61-2.24 2.83-5.85 1.37-5.27-1.95.2-1.56.0-2.15-1.07-1.85-2.05.49-1.27-1.85-3.02-1.46-3.61.88-2.15-4.1 1.27-2.05 3.22 1.85 2.44-3.02 4.1-1.37.49.49 1.46.1 2.34-.78 2.73-2.73 2.34 3.51 4.49 1.37zm-35.11-21.46c.49.49.1.68-.98.78-3.32.0-1.07-2.83.98-.78zm3.02 3.8c.39 1.76-.2 1.95-1.07 1.07-.98-.98.78-2.73 1.07-1.07zm5.85 6.44h0c-2.83-2.44-1.46-3.61 2.24-1.85 4.1 1.95 6.24.39 7.9-.29l-1.66 1.66c-3.12 3.32 7.51 11.22 1.95 10.34-1.37-.2-2.34-.98-2.34-1.56.0-1.56-3.41-3.61-3.8-2.24-.2.59-.59.78-1.07.29-3.71-3.9 3.32-.78-3.22-6.34zm22.33 26.82c.98-.2 1.66.1 1.66.68.1 2.24-6.34.49-1.66-.68z" fill="#070707"/><path d="M448.85 498.14c-.98-.98-2.44.49-1.46 1.46.98.98 2.44-.49 1.46-1.46z" fill="#070707"/><path d="M477.72 471.61h0c-1.76-1.95-1.85.1.0.98.78.2.78-.2.0-.98z" fill="#070707"/><path d="M486.79 467.42c-1.95-1.95-3.41-.49-1.46 1.46 1.95 1.95 3.41.49 1.46-1.46z" fill="#070707"/><path d="M482.11 471.51h0c-1.76-1.95-1.85.1.0.98.78.39.78.0.0-.98z" fill="#070707"/><path d="M491.96 463.22h0c-3.12-1.37-4.1 1.56 3.02 3.41 2.83.88-1.56-2.73-3.02-3.41z" fill="#070707"/><path d="M484.45 479.51c.88-1.66 4.1.0 8.09 4 2.34 2.34 6.34 2.24 8.58 2.34-4.58-3.22-12.87-8.19-12.87-8.19.68-1.27-3.02-4.97-3.41-3.41-.2.59-1.46.49-2.73-.39h0c-4.19-2.44-.68 2.44.68 3.02.78.39 1.17 1.37 1.07 2.44q-.1 1.46.59.2z" fill="#070707"/><path d="M456.36 505.06h0c-1.56-.39-1.85.29-.59 1.56 1.46 1.46 2.15-1.17.59-1.56z" fill="#070707"/><path d="M494.49 474.34c1.46-1.46-.1-3.02-.98-.98-.98 2.15-.39 2.34.98.98z" fill="#070707"/><path d="M505.51 479.51c-1.56-.39-3.02 1.07-1.46 1.46 1.56.39 2.93-1.17 1.46-1.46z" fill="#070707"/><path d="M501.81 489.65c4.49 3.51 4.58 1.07 3.51-.2h0c-.49-.49-.59-.39-.2.39.98 1.76-.1 1.07-3.32-.2z" fill="#070707"/><path d="M516.63 481.46h0c-3.02-1.46-4.39-.29-2.15 1.95 3.41 3.22 7.8.78 2.15-1.95z" fill="#070707"/><path d="M522.97 486.04c.1-.68-.2-1.37-.88-1.46-3.32-.78.49 3.41.88 1.46z" fill="#070707"/><path d="M520.83 491.89c1.27-1.27 1.17-1.37-1.27-2.44-2.63-1.27-.98 4.68 1.27 2.44z" fill="#070707"/><path d="M523.26 494.53c.39-.78.59-1.76.49-1.85-1.56-1.56-1.95 5.07-.49 1.85z" fill="#070707"/><path d="M528.34 496.09c-1.27-.29-2.05-.1-1.85.49 1.95 3.9 6.53.68 1.85-.49z" fill="#070707"/><path d="M530.38 508.08c1.37 1.37 3.12.2.98-1.95-2.05-2.05-2.34.59-.98 1.95z" fill="#070707"/><path d="M536.63 503.4c-.98-.39-1.95-.39-2.24-.1-3.02 3.02 9.85 3.61 2.24.1z" fill="#070707"/><path d="M594.46 461.37c-1.66-4-2.15-4.29.59-2.73 4.39 2.44-.59-.39 1.37-6.24 2.63-7.31-8.78 5.85-1.95 8.97z" fill="#070707"/><path d="M600.8 454.64c.98.2.78.59-.29 1.07-2.34.98.2 3.12 1.17 2.15 1.27-1.27 2.44 5.17 3.71-.78.68-3.22-.68 1.46-2.83-2.24-.88-1.46-1.66-2.05-2.24-1.46s-.29 1.07.49 1.27z" fill="#070707"/><path d="M615.92 448.69c-1.17-1.17-4.1 3.32-3.71 3.71.49.49 4.88-2.54 3.71-3.71z" fill="#070707"/><path d="M468.45 617.41c-.98.98.49 2.44 1.95.98s-.98-1.95-1.95-.98z" fill="#070707"/><path d="M482.4 622c-1.37.0-3.02 1.85-2.24 2.63 1.07 1.07 6.34-2.63 2.24-2.63z" fill="#070707"/><path d="M635.52 474.54c1.66.49 1.66.29.0-1.37-2.73-2.73-2.63.68.0 1.37z" fill="#070707"/><path d="M489.23 623.36h0c-.59-.59-1.85.1-3.41 1.66q-2.93 2.93 1.56 4.49c7.12 2.24 4.68 7.22 3.41 5.56-2.93-4.1-5.36-2.24-3.61-.49 1.76 1.76 3.22-1.85 2.63.88-.49 2.44 3.51 1.37 3.32.0-.49-2.05 5.66-4.1 1.66-3.22-4 .88-2.83-6.14-5.56-8.87z" fill="#070707"/><path d="M651.71 480.97h0c-.1-.68-.88-.68-1.46-.1-2.34 2.54 1.95 2.15 1.46.1z" fill="#070707"/><path d="M644 489.65c.39.0 1.17-.59 1.46-1.27h0c.88-2.05-2.44 1.27-1.46 1.27z" fill="#070707"/><path d="M629.57 505.84c.49.1 2.15-1.17 3.61-2.63 9.56-10.53-7.02 1.76-3.61 2.63z" fill="#070707"/><path d="M625.86 511.3c.98.98 2.44-.49.98-1.95s-1.95.98-.98 1.95z" fill="#070707"/><path d="M630.15 511.3c.98.98 3.41-1.46 1.85-1.85-1.56-.39-2.73.98-1.85 1.85z" fill="#070707"/></g><g><path d="M888.26 623.05c2.38.0 11.98-10.79 10.6-7.63-1.29 2.87 1.88 1.68 2.28.1.4-1.58 13.96-7.63 9.11-.79-2.18 3.17-.1 4.26 2.77 1.39 1.49-1.49 2.77-2.18 2.97-1.58.3 1.49 7.13 1.98 7.53.59.2-.59.69-.5 1.19.0 1.39 1.39-1.98 5.15-4.75 5.15-2.97.0-9.8 7.63-8.42 9.61 2.18 3.17 38.62-24.16 25.35-22.18-6.93.99 16.24-10.1 17.63-8.91 64.17 56.64 57.14 16.34 76.94 15.55 6.14-.2 3.47-4.85 2.18-6.14-5.55-5.55 1.09-4.26.0-9.51-3.07-14.76 50.9 18.62-21.49-51.99 1.09-2.48 22.97-29.11 23.57-28.32 3.96 5.35 11.09-9.31 6.63-4.85-3.07 3.07-5.15-5.94-1.49-10.6 2.08-2.67 1.29-6.24-1.39-2.38-5.15 7.72 7.33-17.63 12.18-18.12 2.38-.2 2.08-1.29-.59-2.77-5.15-2.77-10.2 6.44-12.38 4.26-1.09-1.09.69-7.23 2.48-9.21 1.78-1.78-6.83-.69-7.63.89-.3.69-.79.79-.89.1-.5-2.08 4.16-3.76-2.28-9.8-4.56-4.16 1.49-3.66-1.09-4.26-.69-.1-2.57.59-4.16 1.58-4.85 3.07-.99-2.77.3-3.47 2.38-1.39-10-2.28-10.89-6.14-.69-2.67-4.26-.1-1.58-2.77s-1.29-1.68.3-3.27c1.78-1.78-3.56.59-1.78-1.19 1.19-1.19-1.39-3.17-.69-3.86.4-.4-1.29-.69-3.76-.79-12.48-.4-33.57 31-54.07 45.95-1.78-1.58-19.01-18.02-32.68-22.38-3.17-.99-3.27-.5-.5 1.88 1.78 1.39.4 2.97-1.68 2.08-2.57-1.19-3.07 2.67-4.85-.3-1.58-2.77-7.92-2.18-10.4 1.29-.79 1.19-8.71-1.78-14.66-5.55h0c-2.77-1.78-3.86.1-2.18.79 2.18.99 2.38 3.76.3 6.24-5.45 6.44-51.89 6.34 8.42 65.66 11.98 11.78 5.94 8.12-12.28 32.48-3.07 4.06-19.01 19.61-13.57 18.12 6.63-1.88-.4 12.28 5.45 13.76 2.28.5 2.48.89 2.08 3.27-1.68 9.21 8.02-7.63 9.8 4.65.5 3.47 4.26 3.66 2.28 4.06-1.29.3.3 3.07-1.39 4.75-2.08 2.08-1.19 4.55 1.19 4.55zm156.46-140.42c-.3.69-.99 1.39-1.49 1.29h0c-1.09.1 2.28-3.27 1.49-1.29zm-116.16-7.43c1.49 1.49-1.78 2.77-2.67 1.88-.89-1.09 1.29-3.27 2.67-1.88zm-2.18 139.83h0c-.59-2.18 6.44-4.85 7.13-4.16 2.28 2.28-6.04 2.48-6.54 4.36-.2.59-.4.59-.59-.2z" fill="#070707"/><path d="M920.04 461.34l2.18 2.77c3.66 4.46 7.82 3.27-2.18-2.77z" fill="#070707"/><path d="M1047.69 476.69h0c.3-.69-.3-.5-1.29.5-2.48 2.48.59 1.19 1.29-.5z" fill="#070707"/><path d="M910.04 622.85c-.59 1.98-.4 2.57.59 2.18 5.55-2.57 2.08-11.78-.59-2.18z" fill="#070707"/><path d="M1055.32 490.25c-2.67 2.67 1.09 6.24 1.98 5.35.99-.99.79-8.12-.2-9.11-1.58-1.39 1.09.89-1.78 3.76z" fill="#070707"/></g><g><path d="M478.99 189.33c2.38.0 11.98-10.79 10.6-7.63-1.29 2.87 1.88 1.68 2.28.1.4-1.58 13.96-7.63 9.11-.79-2.18 3.17-.1 4.26 2.77 1.39 1.49-1.49 2.77-2.18 2.97-1.58.3 1.49 7.13 1.98 7.53.59.2-.59.69-.5 1.19.0 1.39 1.39-1.98 5.15-4.75 5.15-2.97.0-9.8 7.63-8.42 9.61 2.18 3.17 38.62-24.16 25.35-22.18-6.93.99 16.24-10.1 17.63-8.91 64.17 56.64 57.14 16.34 76.94 15.55 6.14-.2 3.47-4.85 2.18-6.14-5.55-5.55 1.09-4.26.0-9.51-3.07-14.76 50.9 18.62-21.49-51.99 1.09-2.48 22.97-29.11 23.57-28.32 3.96 5.35 11.09-9.31 6.63-4.85-3.07 3.07-5.15-5.94-1.49-10.6 2.08-2.67 1.29-6.24-1.39-2.38-5.15 7.72 7.33-17.63 12.18-18.12 2.38-.2 2.08-1.29-.59-2.77-5.15-2.77-10.2 6.44-12.38 4.26-1.09-1.09.69-7.23 2.48-9.21 1.78-1.78-6.83-.69-7.63.89-.3.69-.79.79-.89.1-.5-2.08 4.16-3.76-2.28-9.8-4.56-4.16 1.49-3.66-1.09-4.26-.69-.1-2.57.59-4.16 1.58-4.85 3.07-.99-2.77.3-3.47 2.38-1.39-10-2.28-10.89-6.14-.69-2.67-4.26-.1-1.58-2.77s-1.29-1.68.3-3.27c1.78-1.78-3.56.59-1.78-1.19 1.19-1.19-1.39-3.17-.69-3.86.4-.4-1.29-.69-3.76-.79-12.48-.4-33.57 31-54.07 45.95-1.78-1.58-19.01-18.02-32.68-22.38-3.17-.99-3.27-.5-.5 1.88 1.78 1.39.4 2.97-1.68 2.08-2.57-1.19-3.07 2.67-4.85-.3-1.58-2.77-7.92-2.18-10.4 1.29-.79 1.19-8.71-1.78-14.66-5.55h0c-2.77-1.78-3.86.1-2.18.79 2.18.99 2.38 3.76.3 6.24-5.45 6.44-51.89 6.34 8.42 65.66 11.98 11.78 5.94 8.12-12.28 32.48-3.07 4.06-19.01 19.61-13.57 18.12 6.63-1.88-.4 12.28 5.45 13.76 2.28.5 2.48.89 2.08 3.27-1.68 9.21 8.02-7.63 9.8 4.65.5 3.47 4.26 3.66 2.28 4.06-1.29.3.3 3.07-1.39 4.75-2.08 2.08-1.19 4.55 1.19 4.55zM635.46 48.9c-.3.69-.99 1.39-1.49 1.29h0c-1.09.1 2.28-3.27 1.49-1.29zm-116.16-7.43c1.49 1.49-1.78 2.77-2.67 1.88-.89-1.09 1.29-3.27 2.67-1.88zm-2.18 139.83h0c-.59-2.18 6.44-4.85 7.13-4.16 2.28 2.28-6.04 2.48-6.54 4.36-.2.59-.4.59-.59-.2z" fill="#070707"/><path d="M510.78 27.61l2.18 2.77c3.66 4.46 7.82 3.27-2.18-2.77z" fill="#070707"/><path d="M638.43 42.96h0c.3-.69-.3-.5-1.29.5-2.48 2.48.59 1.19 1.29-.5z" fill="#070707"/><path d="M500.78 189.13c-.59 1.98-.4 2.57.59 2.18 5.55-2.57 2.08-11.78-.59-2.18z" fill="#070707"/><path d="M646.05 56.53c-2.67 2.67 1.09 6.24 1.98 5.35.99-.99.79-8.12-.2-9.11-1.58-1.39 1.09.89-1.78 3.76z" fill="#070707"/></g><g><path d="M467.96 892.13c0 1.65.47 2.12 2.12 2.12 3.06.0-2.24-5.3-2.12-2.12z" fill="#070707"/><path d="M495.3 882.47c-1.53-.82-3.77-2.59-5.18-4.01-3.77-3.77-4.59-.35-.94 3.77 4.12 4.83 10.13 2.59 6.13.24z" fill="#070707"/><path d="M481.28 901.43c-2.59-.24-2.71-2.95-.24-3.53 1.65-.47-2.36-5.66-2.71-1.77-.35 3.18-2.95 3.42-2.36-.24.71-4.24-5.77-2.24 1.77 5.77 4.12 4.12 6.6.0 3.53-.24z" fill="#070707"/><path d="M500.6 878.34c-2.71-2.71-3.42-2.47-1.65.71 1.77 2.95 4.71 2.36 1.65-.71z" fill="#070707"/><path d="M478.45 906.15c-2.12.94-2.47.35.47 2.83 5.54 5.07 3.77-4.71-.47-2.83z" fill="#070707"/><path d="M483.87 903.08c-.71.71.12 3.42 1.18 2.36 1.18-1.18-.59-2.95-1.18-2.36z" fill="#070707"/><path d="M508.73 895.43c.12.12.82-.35 1.53-1.06 2-2 .12-4.12-4.95-5.18h0c-3.65-.82-10.37-2.83 3.42 6.24z" fill="#070707"/><path d="M491.17 900.96h0c-2.47.59-2.95 2.95-.71 3.06 2-.12 3.65-3.89.71-3.06z" fill="#070707"/><path d="M487.87 905.68h0c-.94-.24-1.41.24-1.53 1.53.12 4.83 4.95-.71 1.53-1.53z" fill="#070707"/><path d="M493.53 910.15c-1.3-.12-2.71.59-3.06 1.41-1.18 2.59 4.24 2.36 5.77-.35.82-1.3 1.89-1.65 3.3-.94 1.89 1.18 4.83.12 3.42-1.3-3.65-3.18-7.3 1.41-9.43 1.18z" fill="#070707"/><path d="M515.56 890.01h0c-2.12-2.36-2.24.12.0 1.18 1.06.35 1.06-.12.0-1.18z" fill="#070707"/><path d="M504.72 912.63c-1.3 1.06-2.95 1.77-3.53 1.41-1.65-.71-2.83 2.83-1.41 4.24 1.89 1.89-2.24 3.65 1.18 3.06 3.06-.71.82 1.53 4.59 2.71 4.83 1.53-3.65 2 .35 3.18 5.77 1.53-11.9-3.89-5.89 2.12.94.94 1.41 2.12.82 2.71-2.71 2.71 14.96 10.49 10.49 3.18-2.95-4.83 4.95-6.83-.24-7.3-3.42-.35-2.71-2.71-1.41-1.41.59.59 1.65.47 2.36-.24 3.42-3.42-7.66-5.54-6.6-8.01.47-.94 1.53-.82 2.59.24 5.07 4.59 8.13 6.72 8.48 5.66.12-.59.71-.71 1.3-.12 1.41 1.41 2.24-3.42 1.89.24-.24 3.53 4.12 2.95 4.01 1.41.0-3.06 7.66-5.3 3.06-7.78-3.53-1.89-7.19-4.83-10.72-7.19-2.83-1.89-4.48-3.53-3.06-.47.82 2-.24 1.65-5.18-1.41h0c-6.95-4.36-8.72-4.71-3.89-.59 2.95 2.24 3.06 2.59.82 4.36z" fill="#070707"/><path d="M492.59 921.7c7.66 7.66 6.95-2.47 2.59-.47-3.3 1.41 1.3-3.42-3.42-3.65h0q-3.65-.35.82 4.12z" fill="#070707"/><path d="M520.39 901.2c.82-1.53-3.3-4.95-6.13-5.18-2.36-.24-3.89 1.06-2.83 2.12 2.12 2.12 8.48 4.24 8.95 3.06z" fill="#070707"/><path d="M473.03 941.26h0c-3.06-.24-3.18-.12-1.53 1.53 1.53 1.77 5.3-1.3 1.53-1.53z" fill="#070707"/><path d="M522.63 895.19c-1.77-1.77-3.53.0-1.77 1.77s3.53.0 1.77-1.77z" fill="#070707"/><path d="M498.83 929.59c-1.77-1.77-3.65.12-1.18 1.18 2.36 1.18 2.83.47 1.18-1.18z" fill="#070707"/><path d="M490.47 941.96h0c-1.53-1.06-3.3-1.65-3.65-1.3-.82.82 3.3 2.12 2 3.42-3.77 3.77 10.72 4.12 1.65-2.12z" fill="#070707"/><path d="M535.59 909.56c-2 2-6.01-2.71-8.72-2.83h0c-2.36-.24-3.77 2.12-1.53 2.71 2.12.47 1.41-2.83 2.95-1.3 1.77 1.77-5.3 2.95-2.24 4.36 2.71 1.3 2.47-3.18 4.48.47 1.53 2.95 2.12 1.65 7.3-2.83 7.54-6.36-2-3.18-3.06-4.71-1.3-1.77-3.06-2.59-3.77-1.89-1.3 1.3 6.01 4.59 4.59 6.01z" fill="#070707"/><path d="M484.22 953.86c1.18 1.18 4.12.59 2.36-1.18-1.89-1.89-3.53.0-2.36 1.18z" fill="#070707"/><path d="M498.83 951.74c.94-.94.47-1.41-2-2.24h0c-5.66-2.12-1.41 5.66 2 2.24z" fill="#070707"/><path d="M515.09 933.6c1.18-1.18-.59-2.95-1.18-2.36-.82.82.0 3.53 1.18 2.36z" fill="#070707"/><path d="M501.9 945.14c-2.83.71-3.77 1.65-2.71 2.71.94.71 6.6-3.53 2.71-2.71z" fill="#070707"/><path d="M491.41 957.04c4.48.24 2.47 3.18 4.48 1.18 1.18-1.18.82-1.53-1.89-2.59h0c-4.12-1.53-7.07 1.18-2.59 1.41z" fill="#070707"/><path d="M463.37 1026.08c1.41-1.41 7.78 5.18 7.19 7.42-.71 3.53 2.12 4.48 4.95 1.65 4.48-4.48-4.83-5.3 2.71-5.3 3.3.0 3.89 2.24 1.18 4.95-2.59 2.59-2.36 2.83 2.47 3.89 3.53.71 3.53.94 3.42 4.36-.12 2-.59 4.36-.82 5.07-1.41 3.3 7.66-2.71 1.53 5.3-7.89 10.01.35 14.73-.71 8.25-.59-3.89 8.13-15.91 8.72-15.32.47.47 2.71 7.66 2.95 8.13 1.3 4.12 2.24.59 5.77 4.12 5.66 5.66 2.83-6.6-.59-5.77-4.01.94-4.71-12.96 2.24-9.31 1.41.71 2.59.47 3.06-.71.94-2.36 4.95-1.65 4.36.82-.47 1.89-9.78 12.14-4.24 12.25.71.0.82-.35.35-.82s.24-2.12 1.65-3.77c4.01-4.71 3.3 1.18 5.42-1.89 3.3-4.71 8.25 8.25 8.72-3.77.59-17.08 28.87-48.66 27.22-41.59-.35 1.77 5.89 6.6 6.95 5.54.94-.94-.24-6.83-2.24-4.83-2 2-5.54-6.24-3.06-5.66 3.3.71-2.83-5.66 1.41-1.89 4.71 4.24 5.07-7.89 7.78-.94.94 2.59.82 2.95-.94 2.59-3.06-.94-4.95 1.65-2.83 3.77 7.66 7.66 7.89-2.71 11.66 1.06 2.12 2.12 7.54 4.01 4.59 1.06-3.53-3.53 7.07.0 2-5.07-3.18-3.18 3.42-2 4.71 1.89 2.12 5.89-4.83-.59-2.71 4.36 2 4.59-6.13.24-1.41 4.95 3.65 3.65-1.89 2.36 3.06 4.24 8.72 3.3 4.12-13.08 16.61 2.71 6.83 8.48 2.24 9.78 1.18 7.54-.82-1.77-5.89-7.3-9.43-10.13-.59-.59-2.83.24-4.95 1.65-5.18 3.53-2.83.47-8.95-1.89-8.01-2.83 11.55 10.37 12.61 14.96.35 1.77.0 1.65-2-.12-8.13-8.13 2.47 6.72 2.95 8.6 1.65 5.42-6.13-1.41-2.47 2.47 2.47 2.71-2.83 1.65.35 3.65 3.42 2.24 4.36-4.59 5.54 2.95.35 2.47 4.01 7.54 5.18 1.65 1.53-6.95 4.01 3.06 8.13 1.3 2.71-1.3 2.71 1.53 6.6 1.18 5.42-.47-12.72-8.72-13.31-7.89-1.06 1.3-3.89-.12-1.3-1.3 3.3-1.41-2.12-2.59.82-5.54 2.83-2.83 7.3 4.95 9.66-2.36 1.06-3.42 3.89-2.95 2.71-5.07-2-3.89 9.07 17.32 12.25 5.42 1.65-5.66 4.95-8.01 4.95-3.53.0 2.36 7.89 3.42 3.89.82-2.24-1.53-3.89-7.42-4.71-7.3-2-.12 11.07-3.77 11.19-6.01.0-.47-.94-.94-2-.82-2.83.0-3.77-1.18-2.12-2.83 2.24-2.24-2.12-1.65-1.89-5.18.35-4.12-6.01-2.71-3.89-5.07.94-.94.82-1.06-.47-.47-.82.35-2.71-.59-4.48-2.12-3.18-3.18-8.37-4.36-8.95-2.12-.12.82-.94.94-1.65.24-2.71-2.71-6.36 3.06-4.83-1.77 1.06-3.65-2.47-4.36-.59-6.24 1.65-1.65 4.12 1.3 4.95.47 1.06-1.06-2.95-3.65.35-3.65 9.66.0 3.42 7.66 11.9 10.01 1.65.47 1.89.71.71.94-2.12.47.0 2.59 1.18 1.41.47-.47 2.24.35 3.77 1.89 2.36 2.12 11.43 8.6 6.13 2.83-1.53-1.53-2.36-3.3-1.77-3.89.47-.47.24-1.18-.71-1.41-4.24-.94 6.72-1.06 3.18 2.47-2.71 2.71 5.18-.47.12-5.54-2.59-2.59-5.07.35-8.13-3.89-7.54-10.13-40.88-37.58-36.52-43.83 5.18-7.54 12.02.94 12.61-8.13.47-5.42.47 2.59 5.54-2.47.24-.24 1.18-9.9 2.71-11.66 2.71-2.71-2.83.47-2.12-1.89.47-1.89 6.48-1.06 7.42 1.06.71 1.41 1.41 1.18 3.3-.71 8.37-8.37-4.83-11.19.24-11.31 9.54-.12-6.95-1.77 3.06-5.18 10.13-3.53 9.19-8.95 4.59-5.07-8.95 7.78-12.72 3.3-10.84 1.41 1.3-1.3-.82-10.96 3.42-6.72 1.3 1.3-2.36 1.18-1.06 2.47 1.41 1.41 2.47-1.77 3.65.59 1.06 2.47 6.6-3.53 5.18-3.53-.47.0-.82-1.06-.59-2.47.59-3.89-3.18-4.83-6.36-1.65-4.01 4.01-4.59-.82-4.83 3.89-.35 8.6-12.84 6.01-10.01 4.12 5.77-3.89 4.48-17.2 2.83-9.66-1.18 5.18-9.66 4.48-5.66 6.13 4.12 1.77-3.42 3.89-2.47-.35.82-3.65-6.72 5.54-3.42.59.94-1.41 2.59-2.59 3.77-2.59 1.06-.12 2.12-.71 2.12-1.41.0-2.83 9.43-10.84 5.66-12.49-2.95-1.3 1.77-2.95-1.65-2.83-1.41.0-2.24.82-2.83 3.06-1.65 5.42-17.67 22.86-12.84 10.25 3.3-8.95-5.42 2.36-3.3-2.83 2.36-5.89-4.71 4.95-7.42 2.24-.71-.71 5.18-4.71 3.77-4.71-3.18-.12 2-10.25-3.89-2.95-1.65 2.12-3.77 5.18-4.48 6.83-2.47 5.3-11.43 8.37-3.77 2.12 2.95-2.47-2-.59 1.77-4.83 1.3-1.53 3.3-5.42 4.24-8.48 2.95-9.31-4.24-3.06-4.83-.59-2.95 12.61-16.02 10.84-19.2 21.09-.47 1.41-1.41 2.59-2.12 2.59-.94.0 6.72 1.77 6.24 2.24-4.48 4.48-6.24-2-7.89 1.53-.47 1.18-2.36 2.12-4.12 2.47-6.01 1.06 2.24-3.89-8.25 1.18h0c-2.47 1.3-4.59 2.71-4.71 3.3-.47 1.65 2.47 2 3.18.35.35-.82 2.12-1.65 3.77-1.89 2.83-.47 2.83-.24-.82 2.24-2.47 1.77-3.53 3.06-2.95 3.65 1.41 1.41-3.42 4.36-1.3 4.83 2.71.59-9.43 9.19-7.07 11.55 3.89 3.89 6.36-8.01 10.49-7.89 3.3.24-1.77 1.53-1.77 3.18.0.71-.47 1.65-1.06 2.24-2 2 1.3 4.59 3.77 2.83 5.77-3.89-8.13 8.84-4.95 2.12.94-1.89-2.12-2.36-2.12.47.0 6.36-10.37.71-4.95 1.89 4.01.94-3.18-6.01-5.42-4.95-1.89.94.47-2.83-2-3.42-1.89-.47-4.48 1.89-3.3 3.06.47.47.35 1.53-.35 2.24-1.77 1.77-.59 5.07-.24 3.06.59-2.47 7.66 1.06.47 2.59-3.06.71-3.18.82-2 2.95.71 1.18 1.41 1.65 1.65.94.59-2.24 1.3 2 4.36-2 3.06-3.77 7.3-.71 3.53 1.41-3.53 2.12-6.48 6.95-3.77 6.36 1.18-.24 1.53-.12 1.06.59-1.18 1.18-7.07 1.89-3.42-2l2.47-2.71c-1.41.47-8.01 3.06-6.95 2 .47-.47-.12-.82-1.18-.47-4.83 1.06-10.37 15.79-12.25 11.55-2.71-6.01 8.13-2.95 4.01-5.18-2-1.06-16.02 10.84-10.37 10.37 5.54-.35-.82 6.01-2.83 4.71-1.89-1.18-6.36 1.89-4.95 3.3.47.47.35 1.06-.47 1.18-5.89 1.41-13.31 16.14-17.55 20.85-9.9 11.07-14.96 19.44-13.67 22.39 1.41 3.3 1.18 7.54-.47 8.01-1.89.47-1.06 6.48 1.06 7.42 4.01 3.3 4.01-6.13 6.6-8.72zm128.3 17.55c-1.53-1.53-1.18-2.36.71-1.89 1.77.59 1.06 3.65-.71 1.89zm5.42-12.25c1.18 1.18-8.48 1.89-4.12-2.47 2.71-2.71 2.59.94 4.12 2.47zm-7.07-9.43c10.72 12.84-11.78 2.36-6.95-2.47 2.36-2.36 3.3-2.12 6.95 2.47zm12.96 7.54c-.59.59-4.24-1.18-2.71-2.71 1.77-1.53 3.42 2 2.71 2.71zm-36.99-113.1c2.47.59 1.77 1.77-1.53 2.24h0c-4.71.71-.12-2.71 1.53-2.24zm16.73 18.62c-1.65 1.65-2.36 1.41-1.18-1.18 1.06-2.47 2.95-.59 1.18 1.18zm5.54 8.13h0c-1.65-1.65-1.65-1.89 1.77-3.89 5.18-2.83 3.18 8.84-1.77 3.89zm-3.06-10.84c-2.71-.59 2.12-.71.71-2.12h0c-.47-.47-.59-1.3-.12-1.77 1.41-1.41 4.12 4.83-.59 3.89zm11.66 2.71c-.47-1.89 2.83-5.18 4.01-4.01s-3.53 5.89-4.01 4.01zm10.25-8.13h0c-2.83.0-2.95-2.24.0-.94 1.77.82 1.89.94.0.94zm.35-2.47h0c-1.77-.35-1.41-.71 1.3-1.3 3.18-.82.47 1.65-1.3 1.3zm-6.24-6.95c7.07.47-2.24 2.71-3.18 4.59-1.89 4.24-3.65-5.07 3.18-4.59zm-6.48 6.72c-1.65.0-1.06 4.36-2.71 4.36-4.48.0-4.12-5.3-1.41-2.83h0c.71.71 1.06.59.82-.59-1.06-4.59 6.36-.94 3.3-.94zm-30.16-20.74c1.06 1.06-2.59 2.83-3.18 2.24s2.12-3.3 3.18-2.24zm5.18 6.6c2.36.71 3.42-3.18 4.48-2.12 1.3 1.3-1.41 2.83-3.53 6.6-2.59 4.48-3.53-1.89-6.48-.35-3.3 1.65 1.3-5.3 5.54-4.12zm-8.72 5.89c2.83-.71 1.18 1.18-1.77 1.77-2.71.59-1.18-1.18 1.77-1.77zm26.39 31.34c-.35.82-1.18 1.65-1.77 1.53h0c-1.18.24 2.83-3.77 1.77-1.53zm-8.6-6.48c1.18 1.18-1.65 1.89-2.36 1.18-.71-.71 1.18-2.36 2.36-1.18zm27.8 43.83c1.06 1.06 1.06 1.53.0 1.18h0c-2.24-1.06-2.24-3.65.0-1.18zm10.37 44.3h0c-2.12-.94-2-1.77.35-1.3 2 .59 2.12 2.36-.35 1.3zm-10.25-16.38c0-1.18 2.12-1.18 3.3.0 1.3 1.3-3.3 1.18-3.3.0zm-.47-2.12h0c-2.71.59-1.65-2.59.35-2.24 2.12.71 2 1.77-.35 2.24zm-11.19-18.97c-.47-2.12.24-2.36 1.3-1.3 1.18 1.18-.82 3.18-1.3 1.3zm-46.3-61.38c1.18 1.18-.59 2.95-1.77 1.77-1.18-1.18.59-2.95 1.77-1.77zm26.16 29.45c-.47.0-.94-.94-.94-2.12.0-4.01 1.89 2.12.94 2.12zm11.31 9.9c-.24.71-1.18.47-2.12-.47-4.24-4.24 2.59-1.65 2.12.47zm2.71 3.42c.59-.59 4.12 2.95 3.06 4.01-.94.94-3.65-3.42-3.06-4.01zm6.01 6.95h0c-4.95-3.77 6.83 1.18 7.19 5.54.35 2.95 2.95 1.53 1.41 3.06-1.65 1.65-4.59-1.3-5.07 1.06s-1.41-1.89-2.59-3.06c-.24-.24.24-.94.94-1.65 1.3-1.53.71-3.06-1.89-4.95zm-51.13-44.06c-1.65-1.65.94-4.71 2.12-2.12.47.94.47 2.12.0 2.59s-1.3.35-2.12-.47h0zm35.35 36.29c.71-.71 2.36 1.18 1.18 2.36-1.06 1.06-1.89-1.65-1.18-2.36zm-7.3 8.48c.94-.47 1.18-1.18.71-1.65-1.3-1.3 1.41-4.01 2.71-2.71.47.47 1.06.35 1.3-.59q.35-1.77 2.83 2.59c5.42 9.9 9.9-2.83 10.37 2.12.47 4.48-5.07 3.42-.35 8.37 4.48 4.71 6.36 8.72 9.31 9.07 3.89.35-.82 1.53 2 2.95 2.24 1.06 1.53 4.36-.59 2.24-3.18-3.18.59 2.47-1.18 4.24-3.65 3.65-12.96-24.03-17.32-19.68-1.41 1.41-4.95-2.12-3.89-3.18 1.06-1.06-1.53-5.54-2.59-4.48-.47.47-.47 1.18.12 1.77 3.42 3.18-7.07.71-3.42-1.06zm37.82 37.11c6.72 6.72-1.77 5.3-.24 3.77.94-.94-2.47-5.07-2.83-3.3-1.06 4.36-4.01-7.54 3.06-.47zm-46.07-31.46c4.48.0 12.25 10.84 4.12 6.72-4.36-2.24-7.19-6.72-4.12-6.72zm-41-4.48c-.71-.71 1.18-2.36 2.36-1.18 1.06 1.06-1.65 1.89-2.36 1.18zm12.37 4.83h0c-.82-.35-1.65-1.18-1.53-1.77.0-1.18 3.89 2.71 1.53 1.77zm2.47-1.06c-1.06-.82-1.41-1.89-.94-2.36 2-2.24 5.07 6.01.94 2.36zm-23.33-23.56c-2-1.3-2.47-2-1.41-3.06h0c.71-.71 1.06-2 .71-2.59-1.06-2.24 5.18-1.65 1.53 2-2.36 2.36.12 3.65 4.01 2.36l2.95-1.06c-4.48 7.3-10.49 9.54-8.37 6.95.82-1.06 2-2.24 2.36-2.59.71.0-.24-.94-1.77-2zm-12.37 6.01c1.06 1.06 7.66-4.36 7.78-6.36.0-2.36 3.65 2.24 2.24 2.47-.59.12-.71.71-.24 1.18 1.41 1.41-3.06 5.18-6.13 5.18-1.41.0-3.42-.59-4.12-1.3h0c-1.65-1.41-.59-2.24.47-1.18zm16.97 16.97c1.18 1.18-.59 2.95-1.77 1.77-1.18-1.18.59-2.95 1.77-1.77zm-18.85-6.83c2-2 1.89-4.48.0-2.59-.82.82-2 1.3-2.71 1.06h0c-3.3-.71 2.24-5.54 4.24-3.53 3.53 3.53-2.24 6.01-.94 8.48 1.65 3.06-2.71-1.3-.59-3.42zm2.36 8.01c-3.3-3.3 8.95-3.3 3.42-.12-1.3.82-2.71.82-3.42.12h0zm-8.37-1.3c1.77-.35 1.77-.12.12 1.3-2.71 2.47-3.89-.35-.12-1.3zm13.78 44.89c1.41-3.06 8.37-8.6 9.43-7.54 1.06 1.06 2.47-4.59.94-4.95-1.53-.35-.12-2.24 2.36-1.18 4.59 2-6.13 15.32-10.49 18.5-1.65 1.18-3.3-2.59-2.24-4.83zm-36.17-10.49c-6.01-1.77 5.54-4.12 4.24.71-.47 2.36 6.36 6.36-.12 8.13-3.77.94.47-1.41-2.83-.71-4.48.94 3.3-6.83-1.3-8.13z" fill="#070707"/><path d="M514.15 1025.97h0c.94-2.36-3.06 1.65-1.77 1.53.59.12 1.41-.71 1.77-1.53z" fill="#070707"/><path d="M477.98 974.25c-1.18-1.18-2.95.59-1.77 1.77 1.18 1.18 2.95-.59 1.77-1.77z" fill="#070707"/><path d="M527.81 930.06c0-.94-.82-2-1.65-2.12h0c-4.12-1.06 1.77 6.95 1.65 2.12z" fill="#070707"/><path d="M472.32 981.79c-.47-1.89-2.47.12-1.3 1.3.94.94 1.77.82 1.3-1.3z" fill="#070707"/><path d="M470.91 984.85c-1.18-1.18-3.89 1.53-4.36 4.36-.82 3.89 5.18-3.53 4.36-4.36z" fill="#070707"/><path d="M464.78 992.86c-1.18-1.18-2.71.35-2.24 2.24.47 1.89 3.42-1.06 2.24-2.24z" fill="#070707"/><path d="M467.37 1043.76c-1.65 3.3-5.66 6.13-4.36 7.42 3.06 3.06 7.42-13.78 4.36-7.42z" fill="#070707"/><path d="M548.31 1015.36c1.3-1.3.47-3.77-1.77-4.83-5.3-2.47-2.47 9.07 1.77 4.83z" fill="#070707"/><path d="M552.09 1017.48h0c-2.47-3.18-6.36 3.77-.35 3.18q2.83-.24.35-3.18z" fill="#070707"/><path d="M567.28 1007c-1.06-1.06-1.89-.71-1.3 1.3.47 1.89 2.47-.12 1.3-1.3z" fill="#070707"/><path d="M561.75 1015.36c2.83.24 3.06-1.18.35-2.47h0c-2.47-1.06-3.77 2.12-.35 2.47z" fill="#070707"/><path d="M557.74 1026.67c2.95 2 4.71 4.48 5.89 3.3 2.95-2.95-12.14-7.66-5.89-3.3z" fill="#070707"/><path d="M571.64 1022.67c-.35-2.71-.12-2.71 2.71.12 6.6 6.13-1.53-6.95-3.65-3.89-.47.71-1.41.71-2.12.0-2.47-2.47-3.77 1.18-1.41 4.24 2.71 3.65 4.95 3.53 4.48-.47z" fill="#070707"/><path d="M580.13 1031.62c.94.47.94.0.0-1.18h0c-2.24-2.24-2.24.12.0 1.18z" fill="#070707"/><path d="M593.79 1055.19c4.83 3.18 5.3 2.95 1.53-.82-4.36-4.36-6.24-2.24-1.53.82z" fill="#070707"/><path d="M638.56 1021.96c-1.53-1.3 1.3 4.12 3.18 6.48 4.24 4.71 1.77-5.54.94-2.36-.12.82-.71.94-1.18.47-.94-.94 2.12-3.3.35-5.07-2-2-1.3 2-3.3.47z" fill="#070707"/><path d="M601.33 1061.55c.94.47.94.0.0-1.18h0c-2.24-2.24-2.24.35.0 1.18z" fill="#070707"/><path d="M606.52 1056.84c-3.89-.35-1.53 2.71.71 2.12 2.71-.59 2.24-1.77-.71-2.12h0z" fill="#070707"/></g><g><path d="M213.89 122.07c-.07.24-.13.46-.19.68.6-.41.96-.86.19-.68z" fill="#5158e5"/><path d="M216.13 105.2c.44-8.35-2.86-26.38-4.95-26.38.11.11 2.86 34.3 1.54 35.73-3.41 3.63-.55 6.93-2.64 9.45-2.86 3.41.11 2.31.11 4.29.0.77-3.41 9.12-4.62 9.12-1.54.0-1.43 1.65-.33 1.65.44.0.88 1.32.88 2.97.0 4.62-2.42.88-1.32 2.75.33.66-1.87 7.7-2.75 7.15-1.54-.88.11 5.28-1.87 3.96-.55-.33-.77-.22-.33.44.99 1.54-1.76 2.97-.44 3.74 4.51 2.75 16.49-34.96 13.85-34.96-.21.0.02-.96.42-2.35-.55.37-1.29.71-1.52.48-.22-.22.22-.66.88-.88.37-.14.64-.23.83-.28 1.13-3.89 3.07-10.17 1.25-10.17-.77.0-.77-.33-.11-1.1.66-.77 1.1-4.51 1.1-5.61z" fill="#5158e5"/><path d="M210.19 77.72c1.1.66 1.1-2.86.0-2.86-.99-.11-1.1 2.09.0 2.86z" fill="#5158e5"/><path d="M208.43 115.2c.33.0.55-.77.55-1.65.11-3.19-3.19 1.65-.55 1.65z" fill="#5158e5"/><path d="M206.79 70.9c2.86 2.86 3.3 2.2 1.32-1.76-2.2-4.51-5.39-2.31-1.32 1.76z" fill="#5158e5"/><path d="M208.65 98.82c-.11-.88-2.53-3.41-2.53-1.54.0 1.65 2.53 2.42 2.53 1.54z" fill="#5158e5"/><path d="M205.47 134.44c.88-.55.88-2.75.0-2.75s-.88 3.3.0 2.75z" fill="#5158e5"/><path d="M204.81 125.87c2.09.11.99-1.1-.55-.55-.77.33-.33.55.55.55z" fill="#5158e5"/><path d="M195.02 157.09c-2.09-.33-.11.88-1.32 1.65-2.31 1.43-1.43-6.16 1.98-6.16 2.09.0-.88-2.31 1.43-1.43 1.76.66 4.95-3.19 4.29-5.28-.33-.88.22-2.2 1.21-3.19 1.65-1.65 1.65-3.85.0-2.86-.44.22-.77.11-.77-.44.0-1.21-1.87-1.1-1.32-.11.66.99-3.41 1.32-1.65-1.21.66-.88 1.54-1.54 2.09-1.43.44.11.88-.11.88-.66.0-1.21-2.53-.44-2.53-1.76.0-.99 1.87.11 3.41-.77 2.09-1.32-2.09.0-2.86-1.98-.66-1.76 1.98-1.43 1.98-.33.0 1.21 1.43.44.0-1.43-1.21-1.43-1.65-4.07-2.42-4.29-1.21-.44-.99-2.2-.33-1.54 1.1 1.1 4.84-3.08 1.21-2.2-4.51 1.21-1.1-6.38.0-6.38.44.0.77-.55.77-1.1s.88-1.54 1.87-2.09c2.31-1.21-.66.99-1.21-2.86s1.1-2.2 1.1-4.73 3.52-1.43 1.87-2.09c-1.65-.66-1.32-5.83.44-6.38 2.64-.99-1.65-1.32.11-2.42.88-.55.44-2.97-.66-3.74-.77-.66-2.53-6.93-2.53-9.12.0-6.71-4.51-2.42-2.64-2.42 2.2.0-2.31 6.27-1.21-.77 1.32-8.35-1.76-7.48-2.2-8.68-.66-1.76 1.1-1.43 1.1-3.63-.11-3.08-1.54 4.51-1.32-1.43.11-2.42-.22-3.3-1.1-3.3-1.21.0-3.19-1.32-3.08-2.09.33-1.65-4.95-6.82-1.87-7.7 2.42-.66.0 1.1 1.87 1.1 3.85.0-2.75-5.39-2.75-6.49.0-.11-7.04-4.07-7.58-7.26-.33-2.2-2.31-2.75-.88-2.75 1.76.0 2.31 4.07 3.74 2.64 2.09-2.09-12.09-10-13.19-8.9-.66.66 3.41.99 2.64 2.2-.22.44.22.55.99.22 1.32-.44 1.32-.33.33.77-1.65 1.98 1.21 4.84-3.19 1.43-1.1-.88-2.64-1.65-3.19-1.65s-1.1-.44-1.1-.88c0-2.53-3.96-3.08-4.62-4.18-1.21-1.87 5.06 1.43 2.97-1.1-1.32-1.54-5.39-1.76-4.51-.22.33.55.33.77-.11.33-1.54-1.43-.66-4.29-1.87-2.31-1.32 2.2-4.07-2.2-5.17-1.1-.22.22-.88-.11-1.43-.77-.77-.88-1.32-.99-2.42-.33-2.64 1.65-8.14-4.73-13.41-5.39-15.17-1.98-6.82-4.07-2.97-2.97 8.36 2.42 1.32-4.07-7.8-1.21-1.32.44-1.54.22-.99-1.21 1.54-4.84-3.3 1.98-7.15-1.87-.88-.88-2.2-1.43-2.86-1.21-1.76.66.0-1.32-2.42-1.76-3.74-.88 2.75 1.21-1.76 1.21-2.86.0-9.01-1.54-9.89-.88-.11.11-14.73 1.32-18.14 3.08-1.76.99-8.14 3.3-14.07 5.17-1.98.66-29.68 10.88-29.02 12.86.33.88-.99 2.75-3.85 5.61-18.69 18.25-3.85.22-4.84-.33-1.98-1.32 3.74.11 2.09-1.65-1.32-1.32-3.63.99-3.08 1.76.0.0-7.92 11.21-10.55 16.93-4.29 9.23-6.93 14.07-7.7 13.85-.88-.22-2.64 3.08-2.75 4.95.0 1.65 3.19 1.43-3.08 7.92-1.1 1.21-1.43 2.97-.44 2.31 1.32-.88.22 10.88-1.98 20.01-4.4 18.03 9.45 68.38 66.95 95.42 5.17 2.42.0 1.32.66 2.97.44 1.21 8.24 4.18 8.79 3.3.88-1.43 7.92.22 5.72 1.65-.88.55 5.17 1.21 7.7.88 3.63-.55 19.13 5.06 11.98 3.85-3.08-.55-2.64.99-.88.99 5.06.0 9.23 1.87 6.49-.33-2.64-2.09 8.57-1.65 8.57-.11.0 1.76 3.85 1.54 4.4.0.88-2.2 3.08-.11 2.53-3.08-.22-1.54.11-1.87 1.65-1.98 1.76-.11 1.87.0.77 1.1-1.21 1.21-.88 3.19.44 2.31.33-.22 1.76-.77 2.97-1.32 4.07-1.54-1.43-2.42.99-2.42 1.65.0-.44-.99 1.32-2.42 2.86-2.42-1.87 5.17 4.18 5.61 2.53.22 3.52-.11 4.29-1.43.99-1.65.77-1.76-2.97-.77-1.1.33-4.07-2.2-1.65-4.51.88-.77 1.54-1.1 1.54-.55s.44.66.99.33c.66-.44.77-.11.44.77-.77 2.09.66 2.42 2.86.66 3.08-2.42 5.39-.66 4.95-2.42-.22-.99.0-.99 1.1-.11.77.55 1.54.88 1.87.55.44-.44-1.43-.33-1.43-1.87.0-.99-.66-1.21-2.86-.99-1.54.22-2.86.0-2.86-.33.0-.99 1.98-.33 1.21-1.43-.66-1.1.66-.99 1.87.11 2.09 2.09 3.85-3.41 4.95-3.41 4.62.0-3.96 7.7-.11 6.27.99-.44 1.21-.11.88 1.1-.22.88-.11 1.65.44 1.65 1.21.0-.44 2.2.66 2.86 1.98 1.21 2.75-7.81 4.18-7.81s-.66 4.95.44 5.06c2.97.33 4.73 1.65 2.31-2.53-1.32-2.31-1.54-3.41-.66-3.08 1.98.55 10.55-7.59 4.84-3.85-2.09 1.32-3.63.44-2.53-1.32 1.1-1.87.88 1.98 2.75-.33 1.76-2.2-2.31-.88.88-2.31 1.98-.88 3.3-.77 3.3-1.43.0-1.21 3.08-.99 3.63.22.22.55.44.22.44-.77.11-4.4-2.2-1.1-4.4-1.1-2.97.0-4.62 3.3-3.08.22 1.54-2.97 4.4-3.41 2.75-4.07-1.32-.55.77-2.75 2.64-2.75.77.0 1.76-.88 2.2-2.09 2.09-4.51 6.71 1.21 5.28-1.21-.55-.88 4.51-2.64 4.51-5.28.0-1.32-5.72 5.17-5.72 3.08.0-.99 12.42-12.97 12.97-12.53.77.77.44 6.05.33 7.37 4.73-4.4 5.06-7.7 2.97-8.03zm4.51-30.34c.99.0.99.11.0 1.65-1.43 2.2-.77-1.65.0-1.65zm1.76-32.98c.99.0.88 3.74.22 2.97-.99-.88-1.1-2.97-.22-2.97zm-34.74-61.34c0 .66-1.65.55-1.65-.55s1.65-.11 1.65.55zm-127.74 5.61c1.43-.88 1.54-.11.33 1.65-1.98 2.64-1.32-.99-.33-1.65zm-13.63 4.62c.66.0.55 1.65-.55 1.65-.99.0-.11-1.65.55-1.65zm-6.71 16.05c-2.31 2.75-.33-.33-.33-2.09.0-.44.33-.77.88-.77 1.21.0.99.99-.55 2.86zm4.07-9.23c-.44 2.09-2.75 5.83-3.3 5.28s3.85-9.56 4.84-9.56c2.09.0-.99 1.1-1.54 4.29zm29.68-17.48c-.99.0-1.21.22-.66.66.66.44-.44 1.98-3.08 4.73-5.72 5.72-3.41 6.49-5.72 5.94-1.54-.44-2.09.22-1.76 2.09.0.33-.22.66-.66.66-1.1.0-3.52 5.72-2.86 6.71.33.55.22.77-.33.33-1.54-.99-.33 2.42-1.87 1.54-.66-.33-.77-.22-.33.44.33.55.11 2.09-.44 3.41-1.76 4.18-4.07.22-4.07 2.75.0 2.31-3.52 1.76-1.54 3.08 1.54.99-6.16.99-2.53-2.86 4.51-4.73-.88-3.96-.88-.77.0.66-.22 1.1-.44.77-.66-.66 1.21-7.26 2.2-7.26 1.54.0-.66 4.29 2.86.44 2.09-2.31 1.98-4.29-.11-3.41-2.53.99 7.48-13.74 6.49-9.01-1.54 7.81 7.04-8.68 7.26-3.41.11 1.87 1.32-4.4 4.29-4.07 1.43.11 1.87-.22 1.65-1.21-.11-.77.44-1.65 1.54-1.98 2.31-.77 3.08.33.99.44zm96.96 158.19c0-.44.44-.66.88-.33 2.2 1.32-.88 1.76-.88.33zm6.82-53.1c.55 2.97-4.07-.44-.22-1.65 2.53-.88.0-2.75 1.54-1.76 2.75 1.76-1.76 1.43-1.32 3.41zm5.39 54.53c-1.43 1.1-5.39.99-4.07.44 1.65-.66 2.09-4.4 3.52-4.4 1.54.11-1.98 3.3-.33 2.31 1.32-.77 2.09.77.88 1.65zm4.73-81.57c-2.2 3.19 1.32.55-.44 4.62-1.76 3.96-4.18-1.65-2.97 1.87 1.21 3.63-.88-2.2-2.86-.22-.66.66-1.76 1.32-2.53 1.65-2.2.77-1.76 2.42.44 1.87 3.08-.88-.55 1.98-2.97 1.43-3.96-.99 2.64 2.09 1.43 3.96-.77 1.21-1.76-1.1-2.86-2.97.77 5.94 3.74 5.72 4.84 2.86 2.31-6.6 2.64 1.65-.11 3.41-.44.22-.22 1.1.55 1.76 1.1 1.1 1.1 1.32.0 1.76-1.54.55-.22-1.1-1.21-1.1-1.43.0.55-1.65-.88-1.65-1.21.0.99-4.18-3.3.44-3.41 3.63 1.76.66-1.54 3.74-3.63 3.41-1.43 7.81-3.74 6.93-1.54-.55-3.08 1.87-.99 1.1 2.31-.88.88 3.08 1.98 1.43.77-1.1 7.04-2.64 3.74-.99-2.86 1.43-.99 2.53-4.18 2.31-8.57-.55-2.86.77-3.85 2.31-1.32 2.2-4.62-1.65-4.62.22.0.88-2.09-.22-2.09 1.54.0 2.2 4.18.55 1.1 1.76-3.96 1.54-.44 3.19-5.17 3.19-5.28.0-1.1-4.4-4.73-.99-3.3 3.08-5.39-.88-8.35-.55-6.16.77 1.54-3.41-6.71-.99-6.49 1.87-1.87-1.54-6.05-1.54-3.74.0-8.35-5.39-8.35-2.53.0 1.1-1.65 1.43-1.1-.88.77-2.75-1.98-.66-3.85-2.86-1.65-1.98-1.1.44-3.74-2.09-9.34-8.79-6.6 1.54-12.2-4.4-2.97-3.19-5.94-2.42-5.17-4.4.88-2.31-5.83-6.27-3.85-7.48 1.87-1.21-.99-.77-1.87-5.5-1.76-9.56-.77 4.95-6.05-5.39-2.75-5.39-.55-4.84-1.76-12.2-1.21-7.59 7.92-28.14 15.61-32.21 3.52-1.87-2.53 5.5 4.07-.22 1.98-1.65 5.06-3.52 6.93-4.07 11.98-3.74 51.23.55 56.18 13.41.44 1.1 10.55 6.93 10.55 7.37.0.55.33.22.77-.66q.66-1.54.77.22c.11 2.75 1.43 1.21 1.43 3.08.0.66-.22 1.1-.55.88-.77-.44-2.75 4.51-2.2 5.17 1.21 1.21 1.54-3.41 2.53.44.99 4.07 2.09-.44 3.19.66 1.54 1.54-.22 9.01.33 9.34 1.32.77 1.1 3.19-.22 2.64-.77-.33-.99.0-.77 1.1.88 3.52 1.87-.11 4.4-.11 2.09.0 2.2-1.65-.11-.99-2.64.66-1.43-1.87.66-1.54 2.86.44 3.74 2.09 2.42 4.07zm-.66-74.42c.22-.66.77-.99 1.21-.77 1.87 1.1-1.87 2.53-1.21.77zm1.87 143.02c0-1.1 1.65-.11 1.65.55s-1.65.55-1.65-.55zm9.89-144.67c0-.66 1.65-.55 1.65.55.0.99-1.65.11-1.65-.55z" fill="#5158e5"/><path d="M136.87 72.33c-.99.0-1.21.44.0 1.21 1.1.66 1.1-1.21.0-1.21z" fill="#5158e5"/><path d="M74.65 73.98c-.66 1.1 1.21 1.1 1.21.0.0-.99-.55-1.21-1.21.0z" fill="#5158e5"/><path d="M72.12 81.35c.66-.55 1.21-1.87 1.21-2.75.0-4.18-4.62 5.61-1.21 2.75z" fill="#5158e5"/><path d="M69.15 86.73c.88-1.32 1.32-2.64 1.21-2.86-1.43-1.54-4.51 8.24-1.21 2.86z" fill="#5158e5"/><path d="M66.84 92.12c-.88.0-2.53 7.15-2.53 11.21.0 11.21 5.06-11.21 2.53-11.21z" fill="#5158e5"/><path d="M35.4 44.63c-1.21-.66-2.31 3.74-3.41 3.74s-1.32 5.28 2.53.22c1.98-2.64 2.09-3.19.88-3.96z" fill="#5158e5"/><path d="M205.03 64.42c-.22-.22-.99-.33-1.54-.11-1.54.66 2.09.66 1.54.11z" fill="#5158e5"/><path d="M203.93 105.09c-.22.55-.22 1.54.0 2.09.55 1.32.55-3.41.0-2.09z" fill="#5158e5"/><path d="M197.11 57.27c2.42-.66 1.54 2.75 3.19 2.75 1.43.0.77-.99-.11-2.2-9.56-11.76-6.38.33-3.08-.55z" fill="#5158e5"/><path d="M196.34 154.23c-.22.99.11 1.21 1.1.88 2.75-1.1-.55-3.74-1.1-.88z" fill="#5158e5"/><path d="M198.21 61.01c-.33.22-.33.99-.11 1.54.66 1.54.66-2.2.11-1.54z" fill="#5158e5"/><path d="M196.01 165.33c-1.21 1.32.44 1.32 1.32.44.77-.77.0-1.65-1.32-.44z" fill="#5158e5"/><path d="M185.02 169.29c-2.86 1.21 5.72 5.06 2.42 1.21-.77-.88-1.87-1.43-2.42-1.21z" fill="#5158e5"/><path d="M187.55 165.44c0 2.09 1.32 1.1 1.32-.44-.11-1.54-1.32-1.76-1.32.44z" fill="#5158e5"/><path d="M185.57 41c.99.0.99-2.53.44-2.53-.55.0-1.54 2.53-.44 2.53z" fill="#5158e5"/><path d="M182.82 172.7c-1.21 1.32.44 1.32 1.32.44.77-.77.0-1.65-1.32-.44z" fill="#5158e5"/><path d="M180.73 174.57c-.44.0-1.43 6.82-.22 3.74.88-2.09.99-3.74.22-3.74z" fill="#5158e5"/><path d="M170.73 185.23c-1.1.0-1.98 1.43-.44 1.43s1.54-1.43.44-1.43z" fill="#5158e5"/><path d="M169.52 196.01c-.77.0-1.65 1.65-.55 1.65s1.1-1.65.55-1.65z" fill="#5158e5"/><path d="M164.46 197.65c.33.44.88.66 1.32.33 2.31-1.43-2.09-1.65-1.32-.33z" fill="#5158e5"/><path d="M153.14 20.22c7.81 3.96-.77-2.75-2.42-2.2-.55.33.44 1.21 2.42 2.2z" fill="#5158e5"/><path d="M148.08 206.56c-.99-.55-1.76-.55-2.2.0-.88.77 4.73 1.43 2.2.0z" fill="#5158e5"/><path d="M145.88 203.81c.44-.33.88-.11.88.33.0 1.65 1.54.88 1.87-.99 1.65-8.46-6.05 2.75-2.75.66z" fill="#5158e5"/><path d="M140.94 207.11c0 .66 1.65 1.54 1.65.55.0-1.21-1.65-1.21-1.65-.55z" fill="#5158e5"/><path d="M139.07 206.67c-2.42.22-4.95-.33-3.08.88 4.07 2.53 4.95-1.1 3.08-.88z" fill="#5158e5"/><path d="M133.13 206.67c-1.65.0-1.65 1.65.0 1.65s1.65-1.65.0-1.65z" fill="#5158e5"/><path d="M128.73 207.55c.44 1.43 2.64 2.2 2.2.77-.44-1.43-2.64-2.2-2.2-.77z" fill="#5158e5"/><path d="M126.1 207.55c0 1.1 1.65 1.1 1.65.0s-1.65-1.1-1.65.0z" fill="#5158e5"/><path d="M104.11 3.84c1.1.0 1.1-1.65-1.21-1.65-2.64.11.11 1.65 1.21 1.65z" fill="#5158e5"/><path d="M97.73 205.9c-.33.44.11.88.77.88 2.75-.11.11-2.31-.77-.88z" fill="#5158e5"/><path d="M94.65 206.12c-.66.22-.44.44.55.55 2.09.11.88-1.1-.55-.55z" fill="#5158e5"/><path d="M93.34 1.31c1.21.0 2.31-.33 2.31-.77.0-1.54-6.27.66-2.31.77z" fill="#5158e5"/><path d="M90.7 206.12c0 .66.33.55.77-.22 1.87-2.97-.88-1.1-.77.22z" fill="#5158e5"/><path d="M89.38 1.42c2.09.0.99-1.1-.55-.55-.66.22-.44.44.55.55z" fill="#5158e5"/><path d="M87.07 204.25c-2.53.0-5.28-1.87-2.64.33.88.77 2.09 1.32 2.64 1.32 1.43.0 1.54-1.65.0-1.65z" fill="#5158e5"/><path d="M79.15 3.84c0-.99-1.65-.99-1.65.0.0 1.1 1.65 1.1 1.65.0z" fill="#5158e5"/><path d="M65.08 202.6c-1.21.0-.88 1.43.44 1.98 1.65.66.44-1.98-.44-1.98z" fill="#5158e5"/><path d="M52.99 7.69c.99.0 2.53.33 3.41.77 3.85 1.65-1.76-4.29-4.51-1.54-.33.33.11.77 1.1.77z" fill="#5158e5"/><path d="M44.31 17.47c1.43-1.21 2.53-2.53 2.2-2.86-.22-.44-1.43.22-2.64 1.32-2.2 2.09-3.52 2.64-3.41 1.43.55-3.19-2.86-.11-1.43.77 1.65 1.1-1.1-.11-1.1 1.87.0 1.54-4.18 2.86-4.18 3.63.0 2.42 9.45-5.28 10.55-6.16z" fill="#5158e5"/><path d="M45.73 22.09c-.22-.22-.99.22-1.87 1.1-2.97 3.08 2.09-.88 1.87-1.1z" fill="#5158e5"/><path d="M37.6 190.29c.77.88 1.65 1.32 2.09 1.1 2.09-1.32-6.05-5.5-2.09-1.1z" fill="#5158e5"/><path d="M27.49 33.08c.77-.77.0-1.76-1.32-.44-1.32 1.32.44 1.21 1.32.44z" fill="#5158e5"/><path d="M16.6 49.35c.99-.11 9.13-10.66 8.69-12.53-.22-.88.0-1.54.44-1.54s.66-.22.44-.44c-.66-.66-4.62 2.31-4.73 3.41.0.44-.66 1.76-1.43 2.86-2.2 3.19-.66 5.06-3.08 6.93-1.32.99-1.43 1.21-.33 1.32z" fill="#5158e5"/><path d="M18.91 158.08c-1.1.0-1.1 1.65.0 1.65s1.1-1.65.0-1.65z" fill="#5158e5"/><path d="M7.7 150.82c-.22.22-.33.99-.11 1.54.66 1.65.66-2.09.11-1.54z" fill="#5158e5"/><path d="M3.52 137.3c-.22.55-.22 1.54.0 2.09.55 1.32.55-3.52.0-2.09z" fill="#5158e5"/><path d="M.77 104.43c-.99.0-.99 4.95-.22 4.95.88.0 1.21-4.95.22-4.95z" fill="#5158e5"/></g><g><path d="M1036.34 981c-.06.03-.12.06-.18.09.06.0.12-.02.18-.09z" fill="#5158e5"/><path d="M1079.22 983.54c-.72-1.14-.72-1.86.1-3.41 1.14-2.17.52-7.43-.93-7.43-1.96.0 1.86-1.03-.41-2.89-.72-.62-.93-.83-.31-.62 1.14.62 1.34-.83.21-1.55-1.34-.83.72-2.99-1.14-3.72-3.61-1.34 1.65-3.41-.93-3.51s-1.55 1.34-4.34 1.24c-2.48-.1-2.27-2.37.21-2.37 2.68.0 3.41-2.17 1.86-5.68-3.2-7.12-7.02-18.38-6.92-17.97-1.45-6.09-3.2-4.65-4.65-3.41-2.07 1.76.41-.21.41 1.03.0 2.99-3.72-2.37-4.34-.93-.41 1.03-4.75 2.58-4.23-2.99.21-1.76-4.03-4.54-1.45-4.54 1.03.0 3.82 6.81 6.3 5.37 2.17-1.34 4.03 3.92 3.2-2.48-.21-1.76-.72-2.68-1.14-2.37-.41.31-.62.1-.31-.31.62-.93-1.65-5.68-2.69-5.68-.41.0-.72-.41-.72-1.03.0-1.24-3.51-4.44-4.23-3.82-1.03 1.03.72 2.99-2.68 2.89-3.82.0-1.14-4.75-2.58-3.82-.83.52-5.06-4.34-3.82-6.61 1.24-2.37-1.65-4.65-2.69-4.65-1.65.0 1.65.52-.1 2.07-1.45 1.34-5.58-4.03-3.92-2.79 3.3 2.37-1.65-2.37-2.07-2.37-.1.0-14.87-8.78-14.87-8.78-.1.1-6.5-2.89-7.64-2.89-1.86.0-.72-.83-2.58-2.68-.72-.72-.83-1.24-.31-1.24s.62-.31.41-.83c-.21-.52.1-1.03.72-1.24 1.86-.72-.1-2.58-2.79-2.58-3.72.0-.83-1.96-4.54-1.14-1.44.31-2.79.1-3.41-.41-1.03-.83-10.43.21-10.43-1.86.0-2.37-11.26-4.54-12.18-2.37-.21 1.65-1.03 1.34-1.14-.52-.21-2.37-.52-2.48-3.41-1.24l-2.58 1.14c1.45.62 2.48 1.03 3.92 1.65-1.55.1-3.51.31-5.99.1-3.51-.21-1.65 3.41-4.85.21-2.79-2.79-6.61 3.3-6.61-.31.0-4.75-4.34 3.82-5.89-.41-.62-1.65-2.37-.41-3.92-1.34-.52-.31-.93-.31-.93.1s-2.17.93-4.85 1.24c-23.23 2.17-23.54 4.23-25.71 5.99 3.92-1.14 3.3-1.14 13.32-1.86 4.65-.31 3.41 1.55 2.37 1.96-.72.31-.72.52.1 1.14 1.03.72.83 1.14-1.65 1.96-3.41 1.24 3.3-4.23-1.96-2.99-2.48.62-4.96 2.68-4.44 3.61.83 1.34-3.51.62-4.34-.72-2.27-3.51 2.58 3.41-4.03 3.2-5.16-.21-7.02 8.16-8.67 3.82-.72-1.76-2.99.21-2.48 2.17.31 1.14.21 1.24-.62.62-1.24-1.03-4.34.52-3.82 1.86.21.41-.52 1.45-1.55 2.17-3.51 2.58.0-1.76-1.86-1.76-1.34.0-.41 1.55-1.86 1.55-3.82.0-6.71 7.12-1.55 2.27 3.2-2.99 2.58.83 1.55.83-1.65.0-4.65 4.54-6.4 3.1-2.69-2.17-8.57 4.23-6.61 5.37 1.34.83-1.76 1.76-1.14.83.62-1.03-.83-2.27-2.07.31-.52 1.03-12.39 11.25-12.91 18.79-.41 6.92-1.96 1.86-2.99 4.54-1.03 2.58 2.68 1.24-.31 4.23-2.48 2.48-1.45 5.06-2.58 6.81-1.34 2.17 2.48 1.03-.52 3.82-2.07 1.96-6.09 26.74-2.69 25.4.72-.31 1.14.21 1.14 1.45.0 4.03-1.96-1.65-4.34 1.45-.62.83-1.14 1.14-1.14.83.0-.41-.31-.31-.62.21-.31.52-.31 4.23-.1 8.26.72 9.81 2.17 10.22 5.99 19.31.83 2.07 3.2 2.99 3.2 1.24.0-.52.21-.72.52-.41.52.52-1.96 3.3-.72 2.58 2.79-1.65 6.2 9.71 15.69 20.34 5.16 5.78-2.48-.1 19.52 19.82 1.14 1.03 8.57 5.58 7.95 6.71-.31.52-.21.62.31.31 1.24-.72 4.54 1.55 5.06 3.51.41 1.76 17.04 8.05 17.97 8.78 3.92 2.99 4.13-1.03 1.14-2.48-2.58-1.24-.41-1.34 1.65-.21 1.03.52 1.96.52 2.89.0 2.58-1.55-2.17-.93-2.17-2.48.0-.72-1.55.52-1.65-.83-.1-1.76-.21 1.03-1.96.41-1.76-.72.62-1.86-2.07-1.86-3.72.0-5.27-4.13-.83-2.89 5.16 1.45.21 1.86 13.94 4.54 8.78 1.76.52 3.82 9.5 3.82 4.03.0 4.13 1.55 3.1 1.55s-.1 2.37.93.52c1.03-1.86 4.23-.83 4.75-2.27.52-1.14.52 1.86.52 2.89 6.61-8.05-1.65 1.34 4.13-.83 2.79-1.03-1.44-2.58 5.58-3.3 1.34-.1 1.34-3.61 2.58-2.79 1.24.83-1.65 5.06.93 5.06.93.0.0-1.55.0-1.55 1.03-.21 12.18-1.86 13.53-.1.93 1.14 1.03 1.14 1.76.0.41-.72 2.68-1.65 5.06-2.17 7.02-1.45 2.17-3.1 4.13-3.1 1.14.0 1.03 2.68 2.79 2.07s.83 2.07 1.96.1c.41-.72 1.14-1.14 1.55-.93 1.03.62 5.37-1.14 5.37-2.17.0-1.24.62.72 1.86-.83 1.14-1.34 6.3-2.58 2.58-1.03-4.13 1.76-2.58 6.4 4.75-1.65 2.37-2.68.31-.41 2.17.21 1.65.62-.1-.72 1.14-1.45 1.24-.72.62 2.37 1.65-.21.41-1.03 1.03-1.55 1.45-1.34 1.45.93 6.2-1.76 6.2-3.41.0-2.79 4.13-.83 1.03-2.58-1.76-1.03-1.65-2.89.1-2.89 1.45.0 2.27 2.89 1.24 4.23-1.86 2.27 4.23.62 1.76 3.51-.72.83-1.65 1.24-2.07 1.03-.41-.31-.52-.1-.21.41.83 1.34-3.41 2.27-3.41 3.41.0.41-.31.52-.72.31-.93-.62-3.3.31-2.79 1.14.52.83-3.61-.1-2.99.93.72 1.24-3.41-.93-2.48.41.72 1.14-2.07 2.48-4.03 1.96-1.03-.31-2.07.1-2.99 1.24-4.13 4.85-7.85 1.65-9.09 2.07-.93.41-1.14.72-.41 1.14 1.34.83-15.39 5.16-13.53 2.17.31-.62.21-.72-.41-.31-3.1 1.96 5.58 2.27-11.67 4.03-18.79 1.86 10.74 2.58 13.84-.31 3.41-3.3 1.76 2.17 3.1.0.0.0 38.31-10.22 46.57-21.48 2.17-2.99-.83.83-1.96-.21-.31-.31-.41-.21-.21.21.21.41-.31 1.24-1.24 1.86-3.72 2.27 2.58-1.55-2.07-3.3-1.65-.62 1.75-.41 1.14-1.34-.62-1.03 2.07-.1 1.45.83-.52.93 1.24.93 1.24-.1.0-.41.72-.83 1.55-.83 2.38.0.72-1.65 3.2-.93 3.82 1.03-1.76-3.72 2.99-3.1 4.65.72.52-1.96 1.14-2.99.72-1.14 2.27.83 1.75-.83-.52-1.55-3.72-.52-2.37-1.14 1.24-.52.1-1.86.83-1.86 1.14.0 1.24 2.68 2.58 1.86 1.55-.93-1.14 2.58 1.45-.31 2.48-2.79 3.61-.72 5.78-3.2q1.45-1.65-.21-.83c-5.68 2.99.93-1.76.93-3.61.0-.72.41-1.24.93-1.03.83.21.72-1.55 2.37-1.03 2.38.72.31-5.16 1.45-2.37.52 1.24.72 1.34 1.65.31.83-.93.72-1.24-.62-1.65-2.07-.62-1.03-2.17.0-1.55.83.52-.72-2.48.62-1.65 1.14.72.83-1.24 1.55-.72 1.03.62 4.65-1.76 4.54-5.68-.21-4.13 5.47-9.5 4.54-6.2-5.16 17.97 3.41 2.07 2.37 1.03-.31-.31.0-1.03.62-1.65 1.34-1.55 1.55-5.06 3.1-12.49 1.34-6.4 1.45-8.98.31-10.84zm-7.95-26.33c0 1.03-1.55 1.03-1.55-.52.0-1.45 1.55-.52 1.55.52zm-208.37 33.66c-1.03.62-1.03-1.14.0-1.14.93.0 1.14.52.0 1.14zm.31-25.4c.21-.52.41.1.31 1.34.0 3.2-.83.0-.31-1.34zm-.21-14.35c.83 1.34.83 2.17.0 2.17-.52.0-.83 5.47-1.65 6.81-2.17 3.72.31-11.05 1.65-8.98zm-1.65 16.21c0 1.03-1.55.1-1.55-.93s1.55-.1 1.55.93zm-.31 15.8c-2.89-5.89.0-14.77.21-4.96.1 5.47 1.14 7.85-.21 4.96zm1.86 8.88c.41.0.83.52.83 1.24.0 2.48-2.99-1.24-.83-1.24zm2.38 6.61c.41.31.72 1.03.72 1.76.0 2.58-2.79-2.99-.72-1.76zm20.13-93.03c-2.58 2.37-.83-1.86.41-1.86 1.45.0 1.34.31-.41 1.86zm152.4 2.07c1.03.0 1.96 1.55.93 1.55s-1.96-1.55-.93-1.55zm0 62.37c1.45-.83 1.45 2.37.1 4.03-2.99 3.72-.21-3.92-.1-4.03zm-2.27-64.22c2.99-1.86-2.27 3.51-2.27-.72.0-1.55.93 1.45 2.27.72zm-8.26 36.35c.62.93.41-1.96 1.34-1.96 1.03.0.83 1.45-.31 3.61-1.34 2.37-3.1.62-2.48-.41.72-1.14-1.55-2.37-.62-.83.52.93.41.93-.62.1-2.17-1.76-.52-4.85 2.68-.52zm-48.43-67.01c3.41.0 2.79 2.89-.52.72-1.03-.62-.93-.72.52-.72zm-26.12 4.65c1.03.0 1.03 1.76.0 1.14-1.14-.72-.93-1.14.0-1.14zm-19-2.17c1.24-.93 1.96-2.37 1.96-.72.0 1.76-2.99 1.45-1.96.72zm-15.69 180.28c-1.65.0-4.23-1.55-2.68-1.55 4.03.0-5.47-2.99-2.17-.83 2.17 1.34-2.07 1.03-2.07-1.65.1-3.1 11.67 4.03 6.92 4.03zm3.72-32.22c-1.03.72-1.03-1.14.0-1.14.93.0 1.14.52.0 1.14zm.72-1.86c-1.03.0-.1-1.55.52-1.55s.52 1.55-.52 1.55zm10.43 8.67c.31-2.37-.41 2.79-3.61-.41-4.03-3.92-4.85 1.24-4.96-3.2.0-2.89 1.86-3.41 2.79-.83.41 1.24.62 1.14.93-.62.52-2.68-.21-.72-2.48-2.37-5.89-4.13 13.22 2.07 13.22 3.82.0.52.62 1.14 1.34 1.24 2.37.41-3.82 1.76-3.51 3.3.41 1.86-4.03 1.24-3.72-.93zm12.08-1.34c0-.62 1.55-.52 1.55.52.0.93-1.55.1-1.55-.52zm1.55 5.78c0 .41-.41.83-.83.83-1.44.0.83-2.89.83-.83zm-1.86-9.29c-3.41.0-7.43-2.27-6.4-2.27.41.0.31-.52-.21-1.03-3.61-4.54 14.35 3.3 6.61 3.3zm-3.72 8.05c.52-.21 1.24-.21 1.44.1.62.41-2.89.41-1.44-.1zm-3.41 23.13c-1.45.83-5.58-3.51-1.34-2.68 1.24.21 1.65.62 1.03.93-1.34.83 1.24 1.24.31 1.76zm.83-.93h2.89c4.13.0 4.85 4.44-2.89.0zm5.89-2.68c.41-.41 3.72 1.65 4.23 1.96-1.86-.52-5.06-1.03-4.23-1.96zm5.06-17.45c-.52.0-.41-.31.1-.93 1.86-1.76 2.17.93-.1.93zm1.45 10.53c.72-.31 1.14.0 1.14.72.1 2.48-3.41.21-1.14-.72zm-.62-15.69c-.83-2.17-3.1.72-2.68-1.65.31-1.65 1.45-1.24 4.13-1.03 4.03.21.0 6.5-1.45 2.68zm3.82 14.46c.21.0.31.52.31 1.24.0 2.48-2.48-1.24-.31-1.24zm8.05-14.35c0-.62 1.55-.52 1.55.52.0.93-1.55.1-1.55-.52zm11.98-.93c1.65 1.65 1.55 1.86-1.96 2.48-9.91 1.65-1.14-5.58 1.96-2.48zm-1.55 30.67c-.93.0-1.14-.21-.52-.52 1.34-.52 2.48.62.52.52zm2.37-1.55c.21-.41.93-.72 1.55-.72 4.65.0-2.58 2.48-1.55.72zm4.23-.62c0-.41.31-.83.83-.83 1.96.0-.83 2.17-.83.83zm10.53-14.35c-1.55.1-.62-1.34.41-.83 1.03.62.93.83-.41.83zm3.41-1.24c-.72.0.21 1.34-.62 2.89-1.14 2.07-.52-3.41.0-4.03.62-.62 1.76 1.14.62 1.14zm4.65-9.71c-1.14-.62-.93-1.14.0-1.14 1.03.0 1.03 1.76.0 1.14zm33.56 8.98c-.31.0.21-.52 1.24-1.24 4.13-2.99.93 1.24-1.24 1.24zm1.76-4.03c.21-.41.72-.41 1.14-.21 2.07 1.24-1.55.93-1.14.21zm3.72-50.59c-2.38 2.58-.31 5.16-.72 6.92-.1.41-7.85 11.15-7.64 11.56.41 1.14-2.68 4.23-3.72 3.82-1.34-.52-9.29 12.39-11.56 9.29-2.17-2.79-.21 1.24-1.96 1.24-.41.0-.62.31-.41.72.21.41-.1 1.24-.72 1.86-1.65 1.65.31 2.07-1.14 2.07-1.76.0-1.55 4.34-3.72 3.51-2.38-.93 1.75 2.68-.1 1.55-1.76-1.03.0 2.07-2.17.31-1.24-1.03-4.23-.41-4.23-.83.0-1.55 3.1.0 3.1-1.45.0-.62 2.58-1.86 4.23-1.96.41.0.83-.93 1.03-1.96.52-3.3-.21.21-3.72 1.03-3.61.83-3.41 3.1-5.58 1.86-2.27-1.24-.93 1.65-4.03 1.65-3.92.0-.62 2.89-6.2 1.34-4.44-1.14-10.02.62-10.12 3.3-.21 4.03 2.07-3.1 1.86.62-.1 1.76-1.34.93-1.34 1.86.0 1.76-.93-2.37-2.79-.83-1.96 1.65-.1-1.65.62-1.65.41.0.62-1.24.41-2.68-.93-6.92 19.62-4.03 24.26-9.91.83-1.03 12.08-8.05 12.6-6.09.72 2.79-1.14-2.37 3.92-1.45 2.07.41 3.2-4.44 1.65-6.92-.52-.93 1.75-.21 3.3 1.03 1.34 1.03 2.17-.21 1.14-.21s-.62-3.3 1.34-2.68c1.86.62 2.89-2.27 1.14-1.65-2.99 1.14 2.69-7.33 3.61-8.36 8.88-10.02 1.45-4.03 2.38-10.43.52-3.82-1.76-.1-1.76.93.0 1.76-9.29 12.18-9.29 7.64.0-2.79-5.78 9.19-4.75 10.84 1.45 2.27-.72-.1-.72 1.65.0 1.14-2.27 4.03-2.38 1.55.0-2.99-1.44 2.27-1.55-.31-.1-1.45-.83.62-1.44 1.96-.31-5.27-1.86-.21-1.03.31 4.75 2.99-3.82 10.53-2.69 4.75.41-2.17-.52-3.41-1.24-1.55-.31.83-34.8 8.78-33.97 8.47-25.5 6.71-58.24-12.39-56.89-13.73.52-.52-1.45-2.58-2.48-2.58-2.27.0-15.69-18.48-12.39-19.62.52-.21.1-.21-.83.0-2.48.41.0-.31-2.79-3.2-1.03-1.03-1.96-2.58-1.96-3.41s-.41-1.65-.93-1.86c-1.86-.72.21-13.22.21-15.38.0-6.61 1.55-4.03 1.55-7.74.0-5.58 4.03 1.65 2.89-1.65-.41-1.03 2.37-4.96-.1-2.99-1.34 1.14 3.2-8.05 5.68-11.36 10.53-14.15 44.71-22.1 46.67-19.21.41.52.62.52.62-.21.0-1.45 10.01-1.96 10.12-.72.0.72 2.37.83 2.37.0.0-.41 4.54-.52 6.4-1.14 2.17-.62 6.3.93 6.92 2.89.52 1.55 6.82 4.85 7.23 3.72.31-.83 3.51-1.14 1.86-.1-.83.52-.83.83.0 1.45 2.69 2.07 3.1 2.07 2.58-.41-.72-3.41 1.65-2.58 2.38-1.55.31.41 1.03.62 1.65.41s2.07.1 3.2.62c1.03.52 16.93 7.43 18.17 11.98.72 2.79-2.58-.31-1.45 1.55.83 1.45 3.2.52 2.37 1.86-1.14 1.86 1.96-1.55 2.07 2.07.0 6.81 2.69 5.78 1.86 3.2-.72-2.17 1.34-.83.72-2.68-1.44-3.82 8.78 6.81 7.64 7.23-1.14.41-1.34 2.07.31 1.45 2.48-.93-1.03 2.68 1.86 1.03 3.61-1.96-.31-2.07.41-3.1.31-.41-.1-1.03-.83-1.34q-1.24-.52.1-1.14c2.38-.93 3.51-1.96 4.54 6.71.21 1.34 3.1-.52 2.27 1.55-.83 2.17 1.96.1.31 2.68q-.93 1.45-2.17-.21c-9.09-12.91.83 3.3-1.76 4.34-.62.21-.52.41.31.41 7.43.31-5.27 17.04.1 15.38 1.03-.31 4.54-9.71 3.82-2.27-.41 4.23 2.38 1.96 1.55 4.96-.16.62-.31.94-.45 1.07.98-.49 2.17-1.26 3.54-2.42-.52 1.76-1.34 3.82-.31 3.1.83-.52 1.45 4.23.0 1.65-2.89-4.96-1.76 4.75-2.89 5.99zm-34.38 27.47c1.03-.83 1.86-1.55 1.96-1.55.31.0.1 2.37-.21 2.68-.31.31-1.14.41-1.96.41-1.45.0-1.45-.1.21-1.55zm38.72 23.23c-.41.0-.93-.31-1.24-.72-.72-1.34 3.61.72 1.24.72zm10.84-7.74c-.93.0-.93-2.37-.41-2.37.52.1 1.34 2.37.41 2.37zm-1.14-3.72c-.83-1.34-2.99.52-.41-1.55 1.03-.93 2.17-1.65 2.48-1.65 1.76-.1-1.14 4.65-2.07 3.2zm9.6-23.75c-2.07 1.96-2.58 1.03-.72-1.34.83-1.03 1.45-2.07 1.34-2.27-.62-1.03 2.27 1.03-.62 3.61zm-1.14-39.44c2.58 1.03.1 1.65-.72.31-.31-.41.0-.52.72-.31zm1.76 51.11c.31.93-2.27 3.82-1.55 1.14.72-2.79-6.09-.72-3.72-4.65.62-1.03 6.71-1.86 5.89-3.1-.83-1.34 2.68-1.14 2.68 1.76.0.93-3.82 3.3-3.3 4.85zm5.78-67.73c1.76-1.14 1.76-.41.72.31-.72.41.31 3.2-.93 3.92-1.34.72.31-.1-.62-1.96-.52-.93-.31-1.55.83-2.27zm-.1 18.59c-1.03-.1-1.03-2.68.0-1.96 1.03.62 1.03 1.96.0 1.96zm1.14 27.36c-1.03 3.92-4.75-.52-1.45-3.2 2.58-2.17-3.1 1.86.83-3.2 2.17-2.68 2.89-.21 1.86.83-.62.62-.52 1.24.41 2.27 2.38 2.58-.72-.1-1.65 3.3zm8.36-24.88c1.96 7.23-4.44 4.54-2.48.31 1.14-2.58 1.86-2.68 2.48-.31zm-2.99-7.23c.52.0 1.34 2.37.41 2.37s-.93-2.37-.41-2.37zm-1.55 3.92c-.31-.41-.21-1.03.1-1.34.83-.83.93 1.55 1.96.93 1.76-1.14-.31 3.2-2.07.41zm2.48 35.73c-.62-.93.21-3.2 1.14-3.2 1.65.0-.21 4.85-1.14 3.2zm-.1-20.44c1.03-1.14 1.96-1.86 2.17-1.55 3.61 6.09-6.92 7.12-2.17 1.55zm3.51 2.58c0-.83.1-1.55.31-1.55 1.96-.1-.31 5.16-.31 1.55zm.93-5.16c-.93-1.14-2.17-1.55-.62-2.17 1.76-.62 1.34 3.1.62 2.17z" fill="#5158e5"/><path d="M1033.48 980.13c-1.04 1.27.02 2.2 2.67.95-.57-.06-1.14-2.8-2.67-.95z" fill="#5158e5"/><path d="M1058.88 1013.17c-1.86.1-1.65 1.45-2.48.83-1.14-.72-.62 1.14 2.07.62 2.37-.41 2.58-1.45.41-1.45z" fill="#5158e5"/><path d="M1020.98 962.58c0 .72.31.62.72-.41 1.96-4.65-.83-1.76-.72.41z" fill="#5158e5"/><path d="M1019.33 973.11c.83-.52.21-8.16-.83-9.29-.72-.83-.41 10.02.83 9.29z" fill="#5158e5"/><path d="M1018.61 985.5c.41.21.72-.41.72-1.55.0-4.75-1.86.83-.72 1.55z" fill="#5158e5"/><path d="M1016.23 991.7c-1.03.62-1.03 2.68.0 2.68s1.03-3.3.0-2.68z" fill="#5158e5"/><path d="M998.37 930.05c-1.03.0-1.03 1.55.52 1.55s.52-1.55-.52-1.55z" fill="#5158e5"/><path d="M991.66 927.99c-1.44-.62.41-1.96-1.34-1.34-4.34 1.76 3.41 2.17 1.34 1.34z" fill="#5158e5"/><path d="M971.32 917.77c-.93-.1-1.14.41.0 1.14 1.03.62 1.03-1.14.0-1.14z" fill="#5158e5"/><path d="M898.32 984.88c.62.21.72-.31.52-1.34-1.45-5.27-2.79.62-.52 1.34z" fill="#5158e5"/><path d="M1069.31 1012.97c.21.41.83.52 1.14.31 2.27-1.34-2.37-2.37-1.14-.31z" fill="#5158e5"/><path d="M1066.42 1026.6c2.58-2.27 3.82-6.4 3.61-6.61-.41-.41-6.61 9.29-3.61 6.61z" fill="#5158e5"/><path d="M1055.68 1042.39c-.72.0-1.34 3.61.0 1.55.93-1.45.93-1.55.0-1.55z" fill="#5158e5"/><path d="M1046.49 909.51c1.75-1.03-.41 3.1.83 2.27 1.03-.62 2.99 2.79 4.03 2.79 2.17.0-5.16-11.36-6.71-7.43-.62 1.55.62 3.1 1.86 2.37z" fill="#5158e5"/><path d="M1040.19 1056.33c-4.75 2.58 2.37 1.76 2.37-.1.0-.83-.52-.83-2.37.1z" fill="#5158e5"/><path d="M1036.16 1059.33c-.72.72-.62.83.41.41 1.86-.72.83-1.76-.41-.41z" fill="#5158e5"/><path d="M1028.62 1062.53c-5.27 2.48-3.51 2.37 2.27-.1 4.23-1.86 4.54-3.2-2.27.1z" fill="#5158e5"/><path d="M1019.74 886.27c-.72-.72-1.45-1.03-1.76-.72-.83.72 4.54 3.51 1.76.72z" fill="#5158e5"/><path d="M1013.14 1067.48c-1.03.72-.1 2.58.83 1.14.72-1.24.31-1.86-.83-1.14z" fill="#5158e5"/><path d="M1002.19 1072.96c1.76-.62 1.76-.52 1.14-2.27-.62-1.86-5.58 3.72-1.14 2.27z" fill="#5158e5"/><path d="M992.9 1073.99c-4.75 1.34 1.65.83 3.2.31 2.89-.83.0-1.24-3.2-.31z" fill="#5158e5"/><path d="M987.12 1075.64c1.96.0 2.79-.21 2.27-.72-.52-.62-8.26.52-2.27.72z" fill="#5158e5"/><path d="M961.51 1074.92c-4.54-1.24-6.3.93-8.05-1.24-.93-1.14-.93-1.24.41-1.14 2.89.31 5.99.0 5.47-.62-.21-.21-10.53-1.76-14.35-2.58-10.12-2.37-.31-3.82-6.4-3.51-1.45.1-2.48.41-2.38.72.21.31-.1.62-.62.62-1.45.0 1.76 2.07 1.14 2.58-1.03 1.03 2.89-.52 3.41 1.03.62 1.65-5.06.62.93 2.27 9.5 2.58.52-2.07 5.99-1.45 4.54.52 3.61 2.17.93 1.76-1.44-.21-.41 1.45 1.14 1.86 6.3 1.45 27.77 2.48 29.43 1.45 2.17-1.34-11.67-.21-17.04-1.76z" fill="#5158e5"/><path d="M966.98 872.33c.83.62 1.75.93 2.17.72 2.37-1.45-5.37-3.1-2.17-.72z" fill="#5158e5"/><path d="M966.47 1068.93c-.52.31-.41.41.52.52 1.96.1.93-1.03-.52-.52z" fill="#5158e5"/><path d="M952.73 874.3c1.14.0.83-.52-.52-1.03-1.55-.62-.41 1.03.52 1.03z" fill="#5158e5"/><path d="M931.67 1062.01c-.62.21-.41.41.52.52 1.96.0.83-1.14-.52-.52z" fill="#5158e5"/><path d="M921.76 880.18c-1.03-.72-1.03 2.68.0 2.68s1.03-2.07.0-2.68z" fill="#5158e5"/><path d="M909.78 881.32c.31-.41 1.14-.83 1.96-.83 3.82.0-.52-3.51-4.44.41-1.86 1.86 1.96 1.24 2.48.41z" fill="#5158e5"/><path d="M904 888.24c1.14.0 2.27-.21 2.58-.52 2.07-2.07-7.54.52-2.58.52z" fill="#5158e5"/><path d="M905.03 883.07c2.68-2.68-3.41-1.03-3.41-.21s2.58 1.03 3.41.21z" fill="#5158e5"/><path d="M899.35 884.41c.93.0.93-1.55.0-1.55-1.03.0-1.03 1.55.0 1.55z" fill="#5158e5"/><path d="M890.88 1051.27c-.21.21.0.83.52 1.34 1.76 1.76-.1-1.76-.52-1.34z" fill="#5158e5"/><path d="M880.35 894.43c1.86.0.83-1.03-.52-.52-.62.21-.41.41.52.52z" fill="#5158e5"/><path d="M871.16 1027.22c.21.62.62 1.24.72 1.24 1.65.0-1.76-3.72-.72-1.24z" fill="#5158e5"/><path d="M864.45 1017.92c0 2.07 1.65 4.96 3.2 5.37 2.37.62-3.2-8.98-3.2-5.37z" fill="#5158e5"/><path d="M862.9 930.88c1.03.0 1.03-1.55.0-1.55s-1.03 1.55.0 1.55z" fill="#5158e5"/><path d="M859.8 1012.14c.41.62.72.83.72.41.0-2.37-2.89-3.72-.72-.41z" fill="#5158e5"/></g><g><path d="M1054.48 114.17c-6.38.0 4.62-29.9-1.1-19.9-2.97 5.28-3.96-.22-2.31.44 2.64.99.55-4.4-2.75-4.4-5.83.0-2.42-8.03-5.5-16.93-.28-.84-.68-1.72-1.12-2.55.19.72.07 2.48-.42 1.34-.22-.55-.22-1.32.11-1.54.06-.08.12-.09.17-.06-1.44-2.61-3.28-4.6-3.36-3.13.0 1.54-4.51-3.96-.99-3.3 1.32.22 1.43-.44 1.21-5.61-.44-12.53-2.75-8.79-4.73-11.65-1.98-2.64 3.85-4.4-.22-5.72-3.3-1.21-4.95-4.73-3.96-1.1.44 1.76.11 1.65-2.42-1.21-1.76-1.98-3.19-2.97-3.52-2.53-.77 1.1-4.4 2.2-1.43-.66 1.76-1.76-.88-2.97-10.44-15.39 5.5.0 7.92.55 15.39 6.27 5.17 3.96.99-1.43 4.29-.11 8.68 3.74 15.94-1.76 3.08-5.28-5.61-1.54-2.2-2.64-6.49-2.64-5.06.0-5.5-4.95-17.48-4.95-6.82.0.99-2.31-3.63-1.32.0.0-27.15-7.81-45.18-7.59-3.85.0-7.7-.22-8.47-.55-5.28-2.42-12.2 5.61-10.55 1.54.77-1.87-6.16-1.32-6.71-.33-.33.55-.88.55-1.65.0-.77-.66-2.42-.33-6.27 1.1-11.21 4.29-22.1 10.88-22.1 11.98l-23.31 20.89c-5.61 2.09-8.13 12.97-8.13 12.97-1.21.0-5.5 8.14-5.94 11.43-1.32 10.22 2.64-2.42 3.74-1.76.44.33.55.11.22-.44-2.86-4.62 27.59-34.41 28.91-37.6.99-2.64 2.2 1.98 3.19-1.21.99-3.19 7.7-1.65 6.71-3.19-.55-.88 3.41-5.83 4.51-4.29 1.43 2.31 18.47-5.72 20.45-5.72l-34.3 24.3c-22.54 14.95-33.64 36.94-33.64 36.94-1.21-.44-2.09 3.19-.99 2.53.99-.66-3.41 7.81-4.29 8.35-.44.33-5.5 12.75-4.18 12.75.55.0 1.65-3.96 2.2-2.64.44 1.1-4.18 30.67-.77 34.08 1.54 1.54.88-4.4.22-5.5-1.54-2.86.33-19.24 3.63 6.82.33 2.2.99 4.29 1.54 4.73.55.44.88 1.32.66 1.87-.77 2.31 7.26 19.9 7.59 21.55.77 4.29 2.53 5.61-.22 4.18-5.83-3.08 12.2 14.51 12.2 14.51.0 2.53 25.18 19.46 39.69 20.45 5.5.33 6.6 2.2 8.02 2.53 22.21 5.61 22.87 8.46 36.72 3.96 12.86-4.18 14.29-.33 22.65-4.84 1.1-.55 14.51-9.67 18.03-8.9 7.15 1.43 10.66-13.85 19.24-17.59 2.53-1.1 17.92-18.25 17.92-18.58.0-2.53-13.74 16.27-3.08-5.06 5.06-10.11 4.95-7.15 7.36-16.05 2.64-9.78-1.87-9.56 1.1-12.97.44-.55 1.1-.77 1.43-.55.88.55.99-2.2-.55-2.2zM908.27 20.07c-1.1.0-.22-1.65.55-1.65.55.0.55 1.65-.55 1.65zm109.05 13.08c2.31 1.87 1.54 2.64-.33.33-.99-1.32-.88-1.32.33-.33zm-5.61-7.48c1.43-.99 2.2-.77 2.2.55.0 1.43 1.65 1.43 1.65 1.98.0 1.32-6.6-.88-3.85-2.53zm-56.07-11.98c1.1.22 1.98.11 1.98-.11.22-3.08 39.25 2.31 40.35 2.42 4.18.55 7.58 1.21 7.58 1.54.0.99-1.65 2.86-1.65 1.98.0-2.09-12.42 1.21-12.42-2.53.0-.88-.22-.99-1.1-.33-2.97 2.53-10.33-2.53-12.53-.66-2.31 1.87-6.93-1.43-5.94 1.21.66 1.76-1.1 1.65-1.1.66.0-.33-.55-1.32-1.1-2.09-1.65-2.2-22.76 2.86-22.76.22.0-.33 7.15-2.64 8.69-2.31zm44.19 35.18c0 1.1-1.43 1.1-2.09.0-.66-.99 2.09-1.1 2.09.0zm-103.01 84.54c-2.53 1.54-6.93-16.6-.99-4.73 1.98 3.96 1.98 4.07.99 4.73zm1.65 2.09c-1.1.0-1.1-1.87.0-1.21 1.21.77.99 1.21.0 1.21zm24.51 32.65c-7.15-3.52 1.1-1.32 2.2-.44.44.33 1.54.77 2.53.99 2.2.44 1.1 2.31-4.73-.55zm101.47-53.98c-3.52 6.49-2.97 10.44-4.73 11.1-2.42.88 2.2 1.98.0 2.09-2.31.0-.77-3.52-3.52-.77-1.87 1.87-1.98 2.53-.44 1.98 1.43-.55 2.53 2.09 1.32 3.3-1.54 1.54.77-1.98-.66-1.98-.55.0-.88.55-.88 1.21.0 2.86-20.56 21.44-20.56 19.68-.11-1.98-3.19.55-5.5.55-1.54.0-1.87.44-1.76 1.87.44 4.4-17.04 6.38-22.87 6.71-8.24.44-4.18-1.87-11.1-1.87-4.51.0-7.92-1.32-10-3.74-1.32-1.54-1.43-1.54-1.43-.11-.11 3.41-11.21-2.75-14.29-2.75-1.98.0 2.97-2.2-.33-1.21-1.54.44-21.44-11.76-23.09-18.14-.33-1.1-.99-1.98-1.54-1.98-1.43.0-1.76-3.63-2.75-5.61-1.21-2.31-2.97-2.42-2.31-.11 1.76 6.93-12.86-15.17-4.95-35.51 7.04-18.03 7.92-9.67 5.83-7.37-1.43 1.65-.44 5.61.55 3.96.88-1.43-.33-4.18.44-3.74.77.44 1.54-.99 7.7-13.74 7.8-16.16 27.7-20.56 29.35-20.01 1.65.66-.11-1.32 2.31-1.87 1.43-.33 1.43-.22.55.99-.66.77-.77 1.32-.22 1.32 1.87.0-1.87 5.17 1.1 4.29 2.31-.66.0-2.09 1.98-1.32.77.33 1.32.0 1.32-.77.0-1.32 4.29-2.75 5.61-1.87.44.22 1.21-.11 1.76-.77.55-.77 1.87-1.1 3.19-.88 12.2 1.98 13.19-4.29 21.44-1.32 4.07 1.43 3.08-1.76 4.4.44 1.1 1.87 2.2.66 5.17 2.64.0.0-.88-.99 17.48 9.45 18.47 10.22 7.26-.88 17.37 18.58 1.87 3.52 3.08 7.7 1.76 5.83-.77-.99-.88-.99-.88.55-.11 7.7 3.96 3.41 4.51 13.52.77 11.76 1.87 11.43-1.32 17.37zm-.11-76.29c.66-.33 8.79 11.54 8.24 12.97-.22.66-.22 1.43.11 1.76.33.33.55 1.54.55 2.64.11 6.93-9.12-17.15-8.9-17.37z" fill="#5158e5"/><path d="M1041.57 70.57c.05.09.09.18.14.26-.04-.13-.08-.23-.14-.26z" fill="#5158e5"/><path d="M936.63 48.54c-1.1-.44-9.67 5.17-9.01 5.83.44.55 7.36-2.31 8.13-3.3.44-.55.88-.44 1.43.33 1.21 1.98.77-2.31-.55-2.86z" fill="#5158e5"/><path d="M916.07 66.02c.66-.99 1.32-2.2 1.32-2.53.0-4.73-17.7 26.05-1.32 2.53z" fill="#5158e5"/><path d="M900.13 90.97c-1.1.0-1.1 1.87.0 1.21 1.1-.77.88-1.21.0-1.21z" fill="#5158e5"/><path d="M897.6 113.62c-1.32.88-.22 3.52-2.09 4.29-1.98.77 1.54 2.64 2.31 2.2.88-.55.88-7.15-.22-6.49z" fill="#5158e5"/><path d="M897.71 89.98c.66-1.1 1.43-4.07-.55-1.98-1.65 1.65-.44 3.63.55 1.98z" fill="#5158e5"/><path d="M896.17 111.09c.77-.44.99-12.97-.22-12.2-1.21.66-.66 12.64.22 12.2z" fill="#5158e5"/><path d="M1044.8 40.84c.22.77.99 1.43 1.65 1.43 4.29.0-4.18-6.71-7.59-7.92-7.26-2.53 5.17 4.18 5.94 6.49z" fill="#5158e5"/><path d="M1045.13 48.54c0-.88-.11-1.32-.44-1.1-.55.66.33 3.41.44 1.1z" fill="#5158e5"/><path d="M1020.07 25.12c1.32.44 3.85 1.32 5.39 1.43 1.76.11.22-1.54-5.39-1.43z" fill="#5158e5"/><path d="M985.77 211.9c-2.2.66-1.21 1.43.44.77 1.87-.66 1.54-1.32-.44-.77z" fill="#5158e5"/><path d="M975.76 214.87c-.77.33.22.44.99.44 2.75.0.33-.99-.99-.44z" fill="#5158e5"/><path d="M970.82 209.15c-.55.22-.11.44.99.44 2.75.0.33-.99-.99-.44z" fill="#5158e5"/><path d="M965.87 213.66c-1.32 1.32-.77 1.65 3.41 2.31 7.92 1.21-1.65-4.07-3.41-2.31z" fill="#5158e5"/><path d="M959.71 214.54c1.98.0 1.43-.22.11-.77-4.4-1.87-2.75.88-.11.77z" fill="#5158e5"/><path d="M947.51 211.24c.99-1.65-4.62-.66-8.02-2.53-1.76-.88-4.51-.88-5.17.11-1.43 2.42 14.73 5.28 16.93 4.51 5.83-1.87-5.28.44-3.74-2.09z" fill="#5158e5"/><path d="M924.43 205.19c-18.14-5.17 1.43 7.48 3.74 3.52.66-1.1 4.29.0 3.52 1.1-.33.55-.11.66.55.22 1.65-.99-1.65-3.08-7.8-4.84z" fill="#5158e5"/><path d="M913.32 203.54c-5.06-2.42-1.21 1.98 2.09 1.98.99.0.11-.88-2.09-1.98z" fill="#5158e5"/><path d="M914.53 17.54c1.43-1.21 1.76-1.65.0-1.65-1.54.0-1.87 3.19.0 1.65z" fill="#5158e5"/><path d="M894.85 192.66c-5.28-4.4-7.91.33 9.56 8.13 14.84 6.82-8.47-7.26-9.56-8.13z" fill="#5158e5"/><path d="M863.3 134.95c-.22.22-.33.99-.11 1.54.66 1.54.66-2.2.11-1.54z" fill="#5158e5"/><path d="M861.32 130.55c1.43 2.2.77-1.21.0-2.53-1.43-2.2-.77 1.21.0 2.53z" fill="#5158e5"/><path d="M856.6 113.84c.22.77.44.33.44-.99.11-3.41-.88-.99-.44.99z" fill="#5158e5"/></g></g></g></g></svg>