<svg xmlns="http://www.w3.org/2000/svg" width="539.14" height="1080" viewBox="0 0 539.14 1080"><g id="a"/><g id="b"><g id="c"><g id="d"><g><path d="M105.6 2.67C72.02-.06 43.09 26.01 42.42 59.7c-.85 42.47 46.41 90.67 43.83 143.36-3.88 79.51-44.45 102.07-61.05 180.95C-6.02 532.4-4.18 622.07 8.99 773.13c1.73 19.79 5.89 120.38 5.02 150.03-.94 31.84 16.88 50.05 26.83 46.41 18.08-6.61 18.07-30.66 19.06-48.4 2.62-47.19 13.47-167.92 26.52-162.3 14.65 6.31 12.32 39.6 13.64 47.1 12.18 69.21-27.64 202.57 22.36 216.79 16.44 4.94 30.86-22.7 32.17-39.82 5.01-65.23 3.29-142.39 7.49-209.06.64-10.14 13.51-14.07 19.73-6.03 8.58 11.09 9.36 32.35 8.59 48.44-2.74 57.76 1.9 120.32 3.68 183.5 1.56 55.68 15.1 78.22 35 80.1 25.88 2.45 38.24-45.01 33.87-93.44-6.47-71.78-19.2-152.02-4.19-222.61 3.14-14.79 24.3-15.25 27.62-.5 2.07 9.19 2.76 19.1 2.81 26.8.44 63.81 12.91 157.68 32.16 218.51 8.26 26.08 50.99 20.7 51.25-29.64.37-73.26-35.91-267.99-29.38-418.41.88-20.3 24.04-31.87 40.47-19.91 40.26 29.29 70.96 83.53 117.42 98.46 15.27 4.91 35.91 3 37.9-18.87.36-3.98-.1-8-1.12-11.86-22.95-86.65-101.42-134.11-157.59-203.89-23.23-28.85-23.91-93.23-23.68-109.99.14-10.24 25.79-65.56 20.51-123.52C367.23 62.32 329.85 15.94 305.27 7.86c-53.23-17.5-129.46.53-199.67-5.19z" fill="#ee829b"/><path d="M331.64 730.9c-11.55 7.79-27.01 9.1-39.5 2.66-1.94-1-4.35-.65-5.57 1.3-1.08 1.74-.65 4.57 1.3 5.57 14.94 7.7 33.62 7.02 47.66-2.44 1.81-1.22 2.72-3.46 1.6-5.49-.98-1.78-3.67-2.82-5.49-1.6h0z" fill="#222"/><path d="M237.35 740.75c-10.18 5.22-22.75 4.86-32.63-.91-4.5-2.63-8.77 4.24-4.27 6.87 12.41 7.25 28 7.68 40.79 1.13 4.63-2.38.74-9.47-3.9-7.09h0z" fill="#222"/><path d="M151.15 743.27c-11.05 3.64-22.81 3.03-33.46-1.62-2-.88-4.47.78-5.05 2.69-.7 2.3.68 4.17 2.69 5.05 11.8 5.16 25.53 5.76 37.76 1.73 2.07-.68 3.51-2.66 2.96-4.9-.49-2-2.81-3.64-4.9-2.96h0z" fill="#222"/><path d="M63.64 739.83c-8.77 3.9-19.28 2.56-27.16-3.12-1.77-1.28-4.47-.46-5.57 1.3-1.22 1.97-.47 4.29 1.3 5.57 10.21 7.36 23.93 8.41 35.32 3.33 2-.89 2.59-3.69 1.6-5.49-1.13-2.05-3.49-2.49-5.49-1.6h0z" fill="#222"/></g><g><path d="M308.9 611.27c-29.5 32.18-72.7 51.38-116.36 51.71-43.66.33-87.14-18.21-117.13-49.94 44.35-44.64 96.5-48.83 161.64-39.71 24.75 3.46 60.19 15.84 71.84 37.94" fill="#fde7de"/><path d="M205.02 660.14c11.25 1.07 22.42-5.25 28.97-14.46 6.55-9.21 8.94-20.88 8.65-32.18-.12-4.92-.73-9.86-2.24-14.55-5.37-16.61-22.64-28.15-40.1-28.12-17.46.03-34.12 10.84-42.57 26.11-2.85 5.15-4.86 10.81-5.5 16.66-1.5 13.72 5 27.79 15.76 36.44 10.76 8.65 25.33 12 38.99 10.05" fill="#070707"/><path d="M323.24 642.6c-6.31-5.72-12.66-11.38-19.06-17-1.28-1.13-3.32-1.47-4.62-.12-1.14 1.18-1.49 3.41-.12 4.62 6.4 5.62 12.75 11.29 19.06 17 1.27 1.15 3.33 1.46 4.62.12 1.15-1.19 1.47-3.39.12-4.62h0z" fill="#070707"/><path d="M301.22 663.16c-.96-1.92-2.47-3.56-3.82-5.22-1.46-1.79-2.92-3.58-4.38-5.37-2.88-3.53-5.76-7.05-8.63-10.58-1.08-1.33-3.45-1.33-4.62-.12-1.31 1.35-1.28 3.2-.12 4.62 2.79 3.43 5.59 6.85 8.38 10.28 1.38 1.69 2.75 3.37 4.13 5.06.65.8 1.31 1.6 1.96 2.41.18.22.35.43.52.65.34.44-.21-.32.1.13.28.42.53.84.76 1.29.77 1.53 2.97 2.18 4.44 1.29 1.56-.95 2.11-2.8 1.29-4.44h0z" fill="#070707"/><path d="M270.86 681.97c-3.69-8.37-7.65-16.62-11.88-24.73-.82-1.56-2.92-2.13-4.44-1.29-1.58.87-2.11 2.87-1.29 4.44 4.23 8.11 8.19 16.36 11.88 24.73.71 1.61 2.99 2.09 4.44 1.29 1.66-.91 2-2.82 1.29-4.44h0z" fill="#070707"/><path d="M233.65 692.86c-2.53-8.19-5.06-16.39-7.59-24.58-.52-1.69-2.17-2.83-3.96-2.39-1.64.4-2.91 2.26-2.39 3.96 2.53 8.19 5.06 16.39 7.59 24.58.52 1.69 2.17 2.83 3.96 2.39 1.64-.4 2.91-2.26 2.39-3.96h0z" fill="#070707"/><path d="M196.39 699.78c.34-8.72.29-17.45-.15-26.17-.09-1.76-1.32-3.3-3.18-3.35-1.66-.04-3.44 1.41-3.35 3.18.44 8.72.49 17.45.15 26.17-.17 4.2 6.37 4.38 6.53.17h0z" fill="#070707"/><path d="M157.64 695.51c1.06-7.5 2.27-14.97 3.64-22.42.32-1.73-.35-3.53-2.18-4.08-1.54-.47-3.76.43-4.08 2.18-1.48 8.02-2.79 16.07-3.92 24.15-.25 1.75 1.56 3.31 3.18 3.35 1.93.05 3.11-1.42 3.35-3.18h0z" fill="#070707"/><path d="M118.8 691.28c3.84-7.49 7.16-15.23 9.9-23.18.58-1.67-.53-3.58-2.18-4.08-1.75-.53-3.5.5-4.08 2.18-2.56 7.42-5.62 14.65-9.2 21.64-.8 1.57-.53 3.52 1.05 4.5 1.41.87 3.69.52 4.5-1.05h0z" fill="#070707"/><path d="M81.93 665.57c4.54-6.46 9.09-12.92 13.63-19.38.99-1.4.42-3.67-1.05-4.5-1.62-.91-3.45-.44-4.5 1.05-4.54 6.46-9.09 12.92-13.63 19.38-.99 1.4-.42 3.67 1.05 4.5 1.62.91 3.45.44 4.5-1.05h0z" fill="#070707"/><path d="M59.88 643.44c2.92-2.18 5.84-4.35 8.76-6.53 1.42-1.06 2.85-2.12 4.27-3.18.74-.56 1.42-1.19 1.93-1.98.79-1.21.93-2.49.73-3.89-.23-1.7-2.39-2.85-3.96-2.39-1.84.54-2.64 2.14-2.39 3.96-.04-.31-.1-.61.0-.92.05-.18.32-.55.06-.21.52-.68-.11.08-.32.25-.58.49-1.21.92-1.82 1.38-1.31.97-2.61 1.95-3.92 2.92-2.61 1.95-5.23 3.9-7.84 5.84-.62.47-1 1.55-1.02 2.28-.02.8.31 1.77.9 2.33 1.4 1.35 3.15 1.22 4.62.12h0z" fill="#070707"/><path d="M308.21 573.48c-4.32 2.77-8.9 5.11-13.67 6.99-.71.28-1.34 1.22-1.55 1.91-.24.78-.17 1.82.26 2.53.43.71 1.08 1.34 1.91 1.55.91.23 1.66.08 2.53-.26 4.77-1.88 9.35-4.22 13.67-6.99 1.44-.92 2.25-2.86 1.29-4.44-.87-1.43-2.9-2.28-4.44-1.29h0z" fill="#070707"/><path d="M279.7 572.82c4.17-6.09 7.43-12.8 9.7-19.82.53-1.63-.49-3.65-2.18-4.08-1.74-.45-3.52.43-4.08 2.18-.54 1.66-1.13 3.3-1.78 4.92-.71 1.77-1.13 2.71-1.93 4.33-1.55 3.13-3.32 6.14-5.29 9.03-.97 1.41-.44 3.66 1.05 4.5 1.6.9 3.47.45 4.5-1.05h0z" fill="#070707"/><path d="M249.21 562.12c.44-7.33 1.71-14.46 3.82-21.51.5-1.69-.48-3.56-2.18-4.08-1.69-.51-3.57.48-4.08 2.18-2.25 7.55-3.62 15.37-4.1 23.24-.11 1.76 1.46 3.31 3.18 3.35 1.82.05 3.25-1.41 3.35-3.18h0z" fill="#070707"/><path d="M206.27 557.28c-.51-5.33-1.02-10.65-1.53-15.98-.12-1.29-.25-2.59-.37-3.88-.13-1.33-.1-2.81-.43-4.11-.54-2.14-3.02-3.54-5.07-2.42-1.85 1.01-2.14 3-1.39 4.8.56 1.35 2.34 1.88 3.65 1.6l.11-.02c1.73-.37 2.8-2.29 2.39-3.96-.44-1.76-2.23-2.75-3.96-2.39l-.11.02c1.22.53 2.43 1.07 3.65 1.6l-.06-.13c.13.55.27 1.11.4 1.66l.03-.16c-.56.93-1.13 1.85-1.69 2.78l.13-.07c-1.1-.03-2.2-.06-3.3-.09l.2.11-1.14-1.2c-.19-.86-.24-.94-.15-.25l.04.46c.05.53.1 1.07.15 1.6.09.91.17 1.83.26 2.74.18 1.9.36 3.8.55 5.71.36 3.8.73 7.61 1.09 11.41.17 1.76 1.26 3.3 3.18 3.35 1.6.04 3.52-1.41 3.35-3.18h0z" fill="#070707"/><path d="M168.49 556.21c-2.31-7.9-5.36-15.6-9.08-22.94-.8-1.57-2.93-2.12-4.44-1.29-1.59.88-2.09 2.86-1.29 4.44 3.51 6.93 6.29 13.92 8.46 21.37.5 1.69 2.19 2.82 3.96 2.39 1.66-.41 2.89-2.26 2.39-3.96h0z" fill="#070707"/><path d="M124.63 561.61c-2.21-3.94-4.99-7.53-7.66-11.17-1.31-1.78-2.61-3.57-3.92-5.35-.65-.89-1.31-1.78-1.96-2.68-.83-1.13-1.57-2.41-3.05-2.73-1.09-.23-2.4-.15-3.2.76-1.38 1.56-1.38 3.32-.12 4.94.67.85 2.14 1.24 3.16.92l.09-.03c1.63-.51 2.91-2.19 2.39-3.96-.48-1.61-2.21-2.93-3.96-2.39l-.09.03c1.05.31 2.1.62 3.16.92l-.07-.09c.3.78.6 1.56.9 2.33v-.13c-.35.76-.69 1.52-1.03 2.28l.08-.09c-1.07.25-2.13.5-3.2.76l.27.06c-.47-.29-.95-.59-1.42-.88 1.39 1.45 2.48 3.32 3.67 4.94 1.23 1.68 2.46 3.36 3.69 5.04 2.24 3.05 4.6 6.18 6.55 9.66.84 1.49 2.92 2.21 4.44 1.29 1.5-.91 2.19-2.84 1.29-4.44h0z" fill="#070707"/><path d="M92.5 580.88c-4.73-7.34-10.98-13.59-18.39-18.23-1.45-.91-3.64-.48-4.5 1.05-.87 1.55-.49 3.53 1.05 4.5 1.66 1.04 3.27 2.16 4.82 3.38.23.18.46.36.69.55-.26-.21-.16-.13.03.03.37.32.75.63 1.12.96.77.68 1.53 1.39 2.26 2.11 1.4 1.38 2.72 2.83 3.96 4.35.31.38.62.76.92 1.15.15.19.3.39.45.58.04.06.51.69.28.37-.23-.32.23.32.27.38.14.2.28.4.42.6.3.45.6.9.89 1.35.92 1.43 2.86 2.25 4.44 1.29 1.43-.87 2.28-2.9 1.29-4.44h0z" fill="#070707"/></g><path d="M73.09 104.24c7.47 19.68 21.52 35.17 26.89 55.98 5.4 20.96 4.4 42.7-2.22 63.24-2.62 8.11 10.14 11.59 12.74 3.51 6.68-20.71 7.92-42.63 3.66-63.98-2-10.04-5.37-19.82-9.81-29.04-5.5-11.44-14-21.32-18.52-33.23-2.99-7.87-15.77-4.46-12.74 3.51h0z" fill="#fde7de"/><path d="M85.52 265.06c-2.73 8.58-5.45 17.15-8.18 25.73-2.58 8.12 10.17 11.6 12.74 3.51 2.73-8.58 5.45-17.15 8.18-25.73 2.58-8.12-10.17-11.6-12.74-3.51h0z" fill="#fde7de"/></g></g></g></svg>