<svg xmlns="http://www.w3.org/2000/svg" width="1080" height="1014.42" viewBox="0 0 1080 1014.42"><g id="a"/><g id="b"><g id="c"><g id="d"><g><path d="M827.04 901.64l-7.39-30.46c-18.74 15.02-38.6 28.61-59.41 40.59l23.02 48.02c26.46-14.94 51.59-32.2 75.04-51.51l-31.26-6.63z" fill="#7592d3"/><path d="M415.32 1014.42l8.12-52.6c-24.65-5.64-48.82-13.31-72.22-22.89l2.22 29.66-29 16.68c29.31 12.49 59.77 22.26 90.88 29.15z" fill="#7592d3"/></g><g><g><path d="M207.86 722.46c2.09.07 4.17.1 6.31.09 9 0 18.36-.58 28.02-1.62 15.34-2 37.12-5.99 51.1-9.15 13.02-3.11 26.4-6.82 40.08-11.02-3.81-3.35-6.83-6.07-8.84-7.91-5.77-57.98 3.08-126.25 5.93-145.78 54.94-27.39 109.39-49.7 126.36-56.52 32.17 22.31 113.67 79.01 134.11 93.26-.02 4.76-.08 9.43-.16 14.03 7.35-3.13 14.69-6.22 22.01-9.28.01-1.46.03-2.9.03-4.37 54.4-34.01 107.75-77.28 124.51-91.17 20.6 9.92 41.55 22.24 58.49 32.87 10.88-2.32 21.49-4.22 31.76-5.57-18.87-12.57-50.71-32.72-82.32-47.78-.04-.12-.07-.27-.09-.4-4.11-18.46-19.05-76.92-56.33-147.86-.19-.34-.34-.67-.53-1.02l42.7-58.58c13.5 4.05 48.78 18.02 96.32 62.44 4.27 5.92 33.85 48.59 50.97 110.96-8.45 38.98-24.33 65.69-35.38 80.63 6.83-.56 13.52-.88 20.01-.88 21.42.0 40.46 3.23 57 9.46-.13-53.96-10.83-91.4-11.77-94.57-19.51-72.94-54.26-120.51-56.88-124.02-81.14-123.57-211.54-152.58-219.89-154.31-75.02-20.09-134.7-10.44-138.87-9.72.14-.02.29-.02.44-.05-158.5 18.72-238.45 112.42-243.1 118.05-58.97 62.55-84.58 134.17-95.66 183.29-9.12 40.45-9.2 68.36-9.2 70.35-4.17 84.83 25.01 157.21 52.41 205.49 3.46.3 6.95.54 10.45.64zm506.11-281.28c-10.37-27.69-25.85-64.04-46.12-101.56-19.24-2.86-82.85-12.65-145.12-4.27-5.79 16.93-35.12 86.78-50.61 139.21-.48-.34-1-.69-1.45-1.01.01.0.03-.04.05-.04 13.71-52.8 37.27-123.08 44.45-144.2 63.17-8.89 133.69.18 153.18 3.05 22.7 42.85 37.06 81.51 45.62 108.83zm-219.05-120.27c.27-.8.52-1.54.74-2.16-.22.62-.46 1.36-.74 2.16zm3.37-146.59c8.72-1.29 61.19-7.79 124.74 9.1 6.73 3.18 57.53 28.04 89.83 68.99l-.02.02-42.32 58.1c-21.95-3.25-93.01-12.19-158.66-2.88-.28.04-.57.09-.86.12-10.98-11.41-42.59-42.99-78.97-67.08 8.53-15.8 30.52-50.41 66.26-66.38zm-82.94 81.7c35.35 22.43 67.66 54.32 79.14 66.18-7.32 21.53-31.63 94.08-45.48 147.92-16.79 6.71-71.37 29.06-126.83 56.6-15.35-13.59-59.21-53.27-80.5-81.05.82-6.3 2.73-19.34 6.42-35.66 5.69-25.2 16.32-61.33 34.77-91.6 11.66-8.2 80-54.94 132.47-62.39zm-239.88 253.79c.53-10.12 2.29-30.87 8.24-57.25 9.27-41.09 29.49-99.23 73.56-152.61 1.54 4.07 3.27 7.74 4.76 10.66-18.66 31.98-29.44 68.74-35.26 94.59-3.98 17.62-6.01 31.51-6.85 38.17-.08.06-.17.15-.25.25-8 7.64-27.36 28.57-43.66 65.04v-.02c-.18.4-.36.79-.54 1.17zm66.1-64.29c-.83-1.09-1.64-2.16-2.4-3.21.76 1.06 1.57 2.12 2.4 3.21zm-12.31 19.68c24.39 29.6 65.69 66.7 79.5 78.89-.05.36-.12.76-.16 1.14.02-.19.06-.32.07-.5-2.99 20.54-11.15 84.06-6.63 142.23.04.63.08 1.27.15 1.9-.05.0-.08.02-.1.02-.13-.75-.2-1.18-.2-1.24-5.09-55.68 2.81-138.32 2.86-138.66-13.92-11.78-53.03-45.6-77.66-74.16-10.36 11.04-28.64 34.35-41.34 71.6-.05-.46-.12-.94-.16-1.4 13.14-41.77 32.78-67.75 43.67-79.82z" fill="#7592d3"/><path d="M843.83 760.14c-4.25-.41-8.68-.65-13.35-.65-37.66.0-85.03 13.38-137.42 32.62.1.04.22.08.32.11-.09.17-.2.36-.3.52-.3-.09-.62-.2-.92-.3-34.97 12.87-72.17 28.32-110.21 44.12-54.04 22.44-108.96 45.24-161.95 62.71 47.46 13.15 152.9 33.99 246.79-6.05-.14.03-.33.1-.44.13 4.96-1.62 106.06-35.6 177.48-133.22z" fill="#7592d3"/></g><g><path d="M581.93 836.56c-53.38 22.17-107.62 44.69-160.02 62.07 5.31 1.56 10.72 3.04 16.23 4.42 48.54-16.77 98.33-37.44 147.39-57.82 94.53-39.27 183.82-76.36 244.94-76.36 2.28.0 4.49.07 6.66.16 2.28-3.01 4.41-5.98 6.39-8.91-4.16-.4-8.48-.63-13.05-.63-62.99.0-153.12 37.44-248.54 77.07z" fill="#7592d3"/><path d="M920.05 517.31c-16.84-5.86-35.94-8.86-57.13-8.86-89.11.0-210.01 52.21-326.94 102.71-116.13 50.15-236.2 102-321.82 102.01-2.14.0-4.08-.03-6.02-.09-5.47-.16-10.74-.59-15.81-1.21 1.85 3.32 3.76 6.66 5.75 10 3.25.28 6.51.5 9.78.59 2.04.06 4.07.09 6.15.09h.15c87.56.0 208.54-52.25 325.54-102.78 116.04-50.11 236.05-101.94 323.21-101.94 21.5.0 40.61 3.25 57.21 9.55.02-3.41-.01-6.76-.08-10.08z" fill="#7592d3"/></g><g><path d="M183.37 893.3c-1.16-3.15-2.32-6.29-3.47-9.44-.56-1.52-1.12-3.05-1.68-4.57-20.54-55.82-41.08-111.64-61.61-167.46-.56-1.53-1.13-3.06-1.69-4.59-1.14-3.09-2.28-6.18-3.41-9.27-34.41 14.95-72.65 36.46-111.49 67.49 37.76 15.55 72.35 32 91.19 52.65-17 42.97-27.04 88.61-26.56 138.14 33.75-28.46 75.13-48.76 118.74-62.94z" fill="#7592d3"/><path d="M1005.54 705.41c27.56-37.14 49.05-78.58 61.42-126.56-31.95 14.73-65.58 23.83-99.83 28.2l-2.57 10.35-1.26 5.06-45.6 182.96-1.24 4.95-2.51 10.06c45.22-2.62 102.7-12.86 166.05-40.55-32.44-24.84-61.6-49.63-74.46-74.47z" fill="#7592d3"/><path d="M880.6 770.55c-10.19-6.76-22.33-9.55-36.78-10.41-13.91 18.05-26.31 32.2-41.45 47.42 23.8 4.15 46.18 11.93 58.87 14.99 11.88 2.89 34.05 6.68 40.14-7.49 3.93-15.62-2.27-32.23-20.78-44.51z" fill="#7592d3" fill-rule="evenodd"/><path d="M173.6 673.01c-25.08 1.25-47.36 6.03-48.78 18.9l.45 2.17c1.58 2.93 3.98 5.72 7.07 8.32 13.44 11.37 38.49 17.2 65.07 19.42-8.47-14.74-15.95-29.75-23.81-48.8z" fill="#7592d3" fill-rule="evenodd"/><path d="M937.01 544.41c-145.28-93.24-524.31 191.93-729.37 185.87-37.28-1.1-76.88-13.71-86.62-31.96l76.18 207.05c3.27 9.85 19.22 15.2 56.14 16.62 201.4 7.83 521.84-230.25 632.92-155.92 18.9 12.65 24.36 30.15 20.34 46.23 8.22-20.26 37.22-149.26 55.78-223.8 3.51-17.9-11.63-35.27-25.37-44.09z" fill="#7592d3" fill-rule="evenodd"/></g></g><g><path d="M471.6.0c-3.48 10.37-6.69 20.79-9.62 31.22-10.75 2.61-21.38 5.64-31.87 8.97 9.59 5.22 18.86 10.71 27.8 16.47-.53 10.78-.9 21.52-1.12 32.27 7.34-6.91 15.05-13.6 23.1-20.1 9.36 4.4 18.43 9.06 27.2 14.02-2.78-10.38-5.71-20.73-8.79-31.07 7.33-7.73 15.03-15.28 23.1-22.63-10.98-.72-22.04-1.13-33.12-1.11-5.3-9.44-10.87-18.8-16.69-28.04z" fill="#7592d3" fill-rule="evenodd"/><path d="M320.05 45.94c-.11 10.14.0 20.22.36 30.26-8.75 5.34-17.3 10.95-25.64 16.79 9.92 1.97 19.65 4.25 29.18 6.83 2.53 9.65 5.21 19.29 8 28.84 4.62-8.16 9.58-16.27 14.89-24.28 9.53 1.22 18.9 2.75 28.09 4.58-5.42-8.35-10.97-16.65-16.63-24.88 4.27-8.9 8.9-17.76 13.89-26.56-9.88 2.51-19.73 5.31-29.49 8.46-7.35-6.82-14.9-13.5-22.64-20.04z" fill="#7592d3" fill-rule="evenodd"/><path d="M195.81 130.49c2.62 8.95 5.41 17.8 8.38 26.54-6.29 7.01-12.35 14.2-18.18 21.53 9.26-.82 18.45-1.36 27.55-1.61 4.79 7.87 9.67 15.67 14.63 23.39 1.98-8.46 4.25-16.96 6.81-25.48 8.76-1.49 17.46-2.68 26.1-3.59-7.06-5.89-14.17-11.68-21.4-17.4 1.37-9 3.03-18.06 5.01-27.16-8 4.9-15.88 10.04-23.63 15.41-8.29-4.03-16.72-7.92-25.26-11.63z" fill="#7592d3" fill-rule="evenodd"/><path d="M105.62 240.59c4.57 7.19 9.25 14.27 14.05 21.22-3.78 7.72-7.31 15.54-10.64 23.41 7.95-3 15.91-5.74 23.85-8.23 6.18 5.73 12.4 11.39 18.68 16.96-.35-7.99-.45-16.06-.32-24.21 7.34-3.53 14.71-6.82 22.09-9.85-7.69-3.35-15.46-6.64-23.24-9.81-1.08-8.26-1.94-16.64-2.57-25.12-5.75 6.34-11.34 12.85-16.76 19.52-8.32-1.46-16.69-2.75-25.13-3.89z" fill="#7592d3" fill-rule="evenodd"/><path d="M51.74 363.91c5.73 5.18 11.5 10.23 17.37 15.16-1.45 7.64-2.71 15.3-3.79 22.96 6.25-4.48 12.57-8.75 18.94-12.81 6.75 3.55 13.53 7.03 20.35 10.44-2.17-6.94-4.18-14.01-6.02-21.19 5.58-4.87 11.24-9.54 16.95-14.03-7.56-1.05-15.11-2.02-22.69-2.91-2.95-6.97-5.74-14.08-8.35-21.32-3.46 6.93-6.76 13.97-9.89 21.1-7.63.73-15.23 1.6-22.89 2.6z" fill="#7592d3" fill-rule="evenodd"/><path d="M32.83 489.29c6.14 3.19 12.27 6.26 18.46 9.24.45 6.94 1.01 13.87 1.76 20.75 4.49-5.24 9.02-10.33 13.68-15.29 6.66 1.6 13.3 3.13 19.98 4.6-3.39-5.6-6.74-11.34-9.93-17.19 3.77-5.5 7.58-10.88 11.54-16.12-6.78.83-13.56 1.72-20.35 2.67-4.11-5.38-8.2-10.9-12.13-16.56-1.39 6.79-2.67 13.63-3.76 20.51-6.43 2.35-12.86 4.82-19.26 7.38z" fill="#7592d3" fill-rule="evenodd"/><path d="M44.22 607.77c5.92 1.46 11.84 2.83 17.78 4.12 1.78 5.88 3.74 11.7 5.73 17.48 2.81-5.42 5.69-10.74 8.66-15.95l18.16-.12c-4.09-4.15-8.13-8.42-12.09-12.82 2.07-5.53 4.26-10.98 6.53-16.34l-16.91 6.59c-4.69-3.75-9.33-7.65-13.93-11.66.26 6.12.6 12.25 1.1 18.38-5.04 3.36-10.07 6.8-15.03 10.32z" fill="#7592d3" fill-rule="evenodd"/><path d="M629.57 8.2c2.57 9.81 4.89 19.63 6.98 29.45 9.78 3.05 19.42 6.45 28.94 10.09-9.15 4.31-18.04 8.88-26.66 13.67-.13 10-.39 19.98-.79 29.92-6.45-6.81-13.22-13.46-20.31-19.95-8.95 3.48-17.67 7.24-26.15 11.24 3.24-9.41 6.62-18.82 10.12-28.16-6.3-7.61-12.93-15.09-19.89-22.42 10.2.02 20.42.4 30.65 1.08 5.49-8.4 11.2-16.71 17.12-24.93z" fill="#7592d3" fill-rule="evenodd"/><path d="M770.59 60.33c-.4 9.31-.98 18.56-1.76 27.78 7.78 5.3 15.39 10.82 22.81 16.54-9.19 1.42-18.23 3.1-27.12 5.05-2.76 8.77-5.65 17.52-8.61 26.2-3.94-7.74-8.18-15.45-12.71-23.1-8.85.66-17.59 1.6-26.18 2.79 5.43-7.41 10.97-14.75 16.59-22.03-3.49-8.41-7.28-16.81-11.38-25.16 8.94 2.83 17.82 5.92 26.63 9.28 7.09-5.91 14.34-11.71 21.73-17.35z" fill="#7592d3" fill-rule="evenodd"/><path d="M884.52 145.65c-2.72 8.08-5.57 16.06-8.57 23.97 5.5 6.6 10.83 13.32 15.95 20.18-8.44-1-16.83-1.76-25.15-2.27-4.6 7.03-9.31 14.02-14.07 20.94-1.58-7.83-3.41-15.7-5.49-23.59-7.97-1.68-15.91-3.11-23.81-4.29 6.67-5.08 13.42-10.12 20.22-15.08-.93-8.28-2.1-16.62-3.52-25.01 7.1 4.78 14.09 9.76 20.96 14.95 7.73-3.4 15.55-6.66 23.47-9.79z" fill="#7592d3" fill-rule="evenodd"/><path d="M966.42 252.36c-4.31 6.4-8.7 12.69-13.19 18.9 3.25 7.06 6.33 14.19 9.23 21.36-7.15-2.83-14.33-5.44-21.49-7.85-5.69 5.07-11.44 10.1-17.22 15.05.43-7.26.67-14.61.72-22.02-6.59-3.38-13.21-6.56-19.85-9.54 7.08-2.83 14.18-5.6 21.32-8.28 1.18-7.49 2.17-15.05 2.96-22.7 5.03 5.89 9.93 11.92 14.69 18.08 7.58-1.13 15.17-2.12 22.84-2.99z" fill="#7592d3" fill-rule="evenodd"/><path d="M1015.09 369.45c-5.18 4.57-10.41 9.04-15.7 13.42 1.25 6.84 2.34 13.71 3.27 20.58-5.59-4.02-11.27-7.87-16.94-11.56-6.08 3.14-12.19 6.24-18.3 9.26 1.98-6.25 3.8-12.6 5.51-19.05-4.95-4.44-10.01-8.72-15.08-12.85 6.79-.84 13.57-1.61 20.38-2.32 2.73-6.22 5.3-12.55 7.78-19 2.99 6.26 5.86 12.6 8.59 19 6.83.73 13.64 1.58 20.48 2.53z" fill="#7592d3" fill-rule="evenodd"/><path d="M1032.34 487.3c-5.41 2.83-10.85 5.57-16.29 8.23-.35 6.13-.83 12.25-1.39 18.35-4.03-4.59-8.09-9.08-12.23-13.43-5.87 1.45-11.76 2.86-17.66 4.23 2.99-5.02 5.87-10.13 8.69-15.34-3.35-4.89-6.75-9.66-10.24-14.33l18 2.37c3.64-4.77 7.24-9.66 10.74-14.65 1.21 6.01 2.34 12.05 3.31 18.12 5.73 2.06 11.38 4.22 17.07 6.45z" fill="#7592d3" fill-rule="evenodd"/></g></g></g></g></svg>