<svg xmlns="http://www.w3.org/2000/svg" width="768.57" height="1080" viewBox="0 0 768.57 1080"><g id="a"/><g id="b"><g id="c"><path id="d" d="M89.66 683.11c8.46 1.07 16.81 3.03 25.17 5.87 8.16 2.76 16.33 6.36 24.63 10.74-4.91 12.02-9.11 26.52-12.39 41.23-3.72 16.72-6.26 33.7-7.3 47.58-13.13 4.48-24.71 9.12-35.94 14.49-11.08 5.3-21.87 11.34-33.56 18.67-5.76-9.3-10.58-18.69-14.13-28.45-3.69-10.14-6-20.71-6.58-31.97 6.49-14.64 14.97-28.43 25.13-41.46 10.11-12.97 21.88-25.17 34.98-36.7h0zm40.4-66.04L442.33 221.45 147.83 609.07c-6.06 2.45-11.98 5.13-17.77 8.01h0zm359.41 196.36 211.59-415.21-213.61 400.56c.82 4.89 1.48 9.77 2.02 14.65h0zm-14.76-61.61 238.55-453.5-243.04 442.42c1.58 3.64 3.08 7.34 4.49 11.09h0zm-23.78-47.18L735.47 182.67 444.46 695.1c2.23 3.12 4.38 6.29 6.47 9.53h0zm-30.06-37.84L747.4 95.08 411.94 658.04c3.04 2.84 6.02 5.76 8.93 8.76h0zm-216.28-73.29L527.67 168.11 217.77 591.88c-4.38.42-8.78.96-13.18 1.63h0zm55.9-2.07L623.06 99.05l-350.41 493.63c-4.03-.51-8.08-.93-12.16-1.23h0zm49.14 8.78L697.37 51.16 322 604.1c-4.08-1.39-8.21-2.7-12.37-3.88h0zm50.28 20.45L768.57.0 371.84 627.55c-3.92-2.4-7.89-4.69-11.93-6.87h0zM22.64 755.46c12.88-38.78 35.15-67.88 64.51-89.69 3.68-5.1 7.37-10.21 11.05-15.31l-2.6 1.49c2.55-1.98 5.14-3.9 7.78-5.77-2.25 3.42-4.37 7.04-6.35 10.82-3.72 7.1-6.99 14.85-9.77 23.31-13.29 11.69-25.22 24.07-35.49 37.23-10.42 13.37-19.12 27.56-25.77 42.63-3.17 2.25-6.51 5.01-9.81 8.34-.81.82-1.61 1.66-2.41 2.54.82-2.7 1.69-5.39 2.6-8.06l6.26-7.53h0zm243.91-146.15c-5.9-2.2-11.79-4.4-17.67-6.61.69-.05 1.39-.09 2.09-.13-2.42-.1-4.85-.17-7.28-.2 3.66 1.24 7.34 2.69 10.98 4.36 6.87 3.16 13.63 7.13 20.05 12.08 17.29 1.69 33.23 4.22 48.27 8.47 14.72 4.16 28.58 9.98 41.97 18.28 3.73.11 7.92.69 12.35 1.71 1.06.25 2.12.51 3.2.81-8.94-6.53-18.32-12.42-28.06-17.64-8.52-4.56-17.32-8.6-26.35-12.1-24.71-6.98-41.62-9.19-59.54-9.03h0zm-54.2 455.49c-.71-.07-1.42-.13-2.12-.2 8.61-5.54 19.46-11.24 32.13-16.99 15-6.82 32.53-13.7 51.9-20.49l.47 1.36c-29.69 10.36-58.39 21.49-82.37 36.33h0zm-7.67-.93c-8.22-1.29-15.92-3.56-23.23-6.56 7.11-19.44-19.5-56.23-29.16-71.33 6.17-2.42 12.28-5.3 18-8.59 32.38 35.31 71.82 46.37 118.3 33.18l4.47 13.06c-19.47 6.82-37.12 13.75-52.22 20.62-14.61 6.64-26.88 13.23-36.16 19.63h0zm-26.62-8.01c-1.1-.49-2.18-1-3.25-1.52 4.22-14.29-11.28-42.52-28.62-66.12.85-.29 1.7-.59 2.55-.89 8.84 13.78 35.59 50.61 29.32 68.54h0zm-4.55-80.4c.63-.4 1.27-.8 1.9-1.2 31.41 32.04 68.54 43.12 111.31 30.85l.67 1.97c-44.69 12.61-82.65 2.08-113.88-31.63h0zm231.34 24.92c-9.99.73-21.69 2.54-34.75 5.3-16.14 3.41-34.33 8.25-53.93 14.26l.47 1.36c29.63-9.13 58.98-17.1 86.88-19.51-6.42 6.73-13.56 13.05-21.62 18.94-11.39 6.02-23.06 10.08-34.97 12.17-12.22 2.14-24.71 2.22-37.48.22h0l-18.86-56.06c11.58-10.59 22.23-21.85 31.87-33.81 10.01-12.4 18.95-25.56 26.77-39.51 14.08.79 27.51-.62 40.69-3.85 12.74-3.11 25.23-7.91 37.89-14.03 4.35 7.85 7.43 16.52 9.42 25.43 2.45 10.88 3.28 22.1 2.84 32.53l-.07 1.47c-3.94 8.74-8.18 17.11-12.92 25.09-11.43-9.88-16.17-40.69-16.84-69.02-.86.27-1.72.53-2.58.79 1.38 15.85 2.67 59.28 17.57 71.29-.64 1.03-1.29 2.06-1.94 3.08-16.38-12.7-17.73-56.01-19.26-73.35-6.41 1.72-13.04 3.01-19.62 3.76-4.12 47.38-28.74 79.52-73.89 96.43l4.46 13.08c19.7-6.05 38.01-10.92 54.26-14.35 14.92-3.16 28.12-5.09 39.09-5.59-1.14 1.31-2.3 2.6-3.49 3.87h0zm-24.21-93.08c-.75.07-1.5.12-2.25.16-5.34 44.18-28.12 74.98-69.73 90.43l.68 1.97c43.35-16.3 67.11-47.15 71.3-92.56h0zm54.55-133.59-2.53-3.61c-6.5 16.56-11.54 33.9-15.2 52.04-3.79 18.83-6.1 38.55-7 59.18l2.43-.46c2.97-40.64 9.47-77.38 22.3-107.15h0zm-5.14-7.34c-4.15-7.01-8.93-13.83-14.32-20.45-9.76 10.4-22.72 16.67-38.65 19.06-16.69 2.51-36.66.77-59.61-4.94l-4.95 23.99c20.85 9.26 38.23 22.3 51.16 39.79 12.18 16.5 20.37 36.93 23.74 61.86 6.82.0 13.24-1.21 19.26-3.65.88-21.2 3.23-41.46 7.13-60.82 3.85-19.15 9.24-37.42 16.24-54.85h0zm-16.57-23.67-2.44-3.49c-23.99 21.71-55.76 22.96-91.9 12.74l-.92 4.44c22.46 5.57 41.92 7.29 58.12 4.85 15.43-2.31 27.88-8.42 37.14-18.54h0zm-101.73 45.03-.8 3.87c40.93 17.58 63.52 49.83 69.39 95.43l3.42-.65c-3.25-24.41-11.2-44.35-23.05-60.39-12.36-16.75-29-29.29-48.96-38.26h0zm-134.98 35.69-3.19-2.62c17.55-17.73 36.2-30.18 56.08-36.65 19.44-6.33 40.12-6.96 62.18-1.25l-.48 2.21c-44.67-7.3-83.07 4.83-114.58 38.3h0zm-6.05-4.96-18.94-15.53c12.17-18.04 21.04-36.53 26.07-55.55 5.08-19.13 6.4-39 3.2-59.18 8.47-3.45 16.92-6.07 25.34-7.86 8.65 18.62 21.46 33.37 37.37 45.27 15.66 11.72 34.19 20.91 54.29 29.02l-5.41 24.68c-22.71-5.86-44.03-5.19-64.11 1.35-20.55 6.69-39.76 19.54-57.8 37.81h0zm-21.81-17.88-2.84-2.33c23.89-37.95 33.66-73.88 27.66-107.58l3.61-1.12c3.02 19.49 1.84 38.43-3.05 56.89-4.9 18.48-13.53 36.51-25.39 54.14h0zm60.9-121.11 3.92-1.22c17.13 32.47 45.78 55.47 85.93 68.98l-.81 3.72c-19.62-7.95-37.67-16.92-52.89-28.31-15.3-11.45-27.77-25.37-36.15-43.17h0zM51.71 899.36l-.15-4.22c15.26 9.02 29.82 19.47 43.75 31.32 14.46 12.31 28.25 26.15 41.47 41.49l-2.24 1.03c-26.99-29.55-54.48-54.07-82.82-69.62h0zm-.31-8.58-.84-23.9c14.16 2.41 28.4-.19 42.69-7.44 14.97-7.62 29.99-20.36 45.05-37.87l18.5 15.61c-11.19 19.03-17.3 39-17.12 59.84.17 19.64 5.94 40.04 18.32 61.12l-17.74 8.21c-13.53-15.79-27.69-30.02-42.56-42.68-14.71-12.52-30.1-23.49-46.3-32.88h0zm-.97-27.68-.15-4.07c32.47 2.97 58.83-14.24 81.77-42.75l3.43 2.89c-14.73 17.12-29.36 29.57-43.89 36.96-13.83 7.03-27.56 9.47-41.16 6.97h0zm109.22-23.53 2.99 2.51c-22.34 36.92-21.01 74.62 1.86 113.03l-3.15 1.45c-12.16-20.62-17.82-40.5-17.99-59.61-.18-19.95 5.64-39.09 16.29-57.4h0zm-121.7 55.77c-.17-1.26-.32-2.52-.46-3.77-9.09-5.58-21.83-1.24-25.64 8.24l-1.53-5.81c5.14-8.49 18.03-9.56 26.79-6.37-.71-8.08-.83-15.72-.6-23.09-12.4-6.73-20.8-19.06-25.07-33.69-4.06-13.89-2.67-31.31.9-46.49-.63.8-2.04 2.48-3.09 4.11.62-2.82 1.3-5.62 2.02-8.42 2.4-3.35 4.96-6.32 7.54-8.92 2.43-2.46 4.88-4.59 7.26-6.42.84 10.43 3.14 20.27 6.59 29.78 3.65 10.03 8.58 19.65 14.47 29.15-3.27 17.61-4.97 34.75-4.94 51.33.04 16.95 1.88 33.36 5.7 49.2h.03c-5.05 3.71-9.19 7.16-12.7 10.61-2.86 2.83-5.29 5.65-7.44 8.61-5.47-11.24-10.13-23.05-13.87-35.4h0c2.97-16.57 12.5-17.89 24.02-12.65h0zm-1.29-34.82c.05-1.07-.31-3.53-.24-4.59-19.98-12.94-26.3-37.27-19.79-75.8l-.68.64c-7.97 24.53-6.46 63.71 20.72 79.74h0zm68.03-203.27c.48-.94.99-1.87 1.54-2.83 16.44-6.13 30.19-7.3 41.19-3.96 11.29 3.42 19.75 11.65 25.33 24.16-1.32.53-2.63 1.07-3.95 1.63-10.53-23.49-30.33-32.63-64.11-19.01h0zm4.71-7.85c1-1.47 2.07-2.95 3.23-4.46 18.08-10.13 37.46-18.13 57.42-24.26 21.91-6.72 44.55-11.18 66.98-13.69.53.14 1.07.3 1.6.46-14.25 4.35-24.38 11.08-30.74 19.62-7.87 10.57-9.9 23.82-6.8 38.7-8.47 1.96-16.76 4.47-24.9 7.52-6.02-13.6-15.28-22.59-27.71-26.36-10.75-3.26-23.8-2.56-39.09 2.47h0zm6.03-7.98c.37-.45.75-.89 1.12-1.33 35.38-20 73.34-31.49 113.87-34.49.51.07 1.01.15 1.52.24-20.92 2.62-41.96 6.92-62.39 13.18-18.75 5.76-36.98 13.16-54.12 22.4h0zm129.27-31.82c.89.36 1.78.74 2.68 1.14-32.09 6.33-44.39 24.49-38.68 53.42-1.34.25-2.67.52-4.01.81-2.87-13.83-1.03-26.05 6.16-35.7 6.59-8.87 17.71-15.65 33.85-19.66h0zm196.57 151.48c-.65-1.12-1.31-2.23-1.97-3.32 3.41-5.26 6.86-8.65 10.33-10.14 3.16-1.36 6.42-1.12 9.79.7-.66-1.6-1.36-3.2-2.05-4.79-3.1-.84-6.17-.61-9.19.69-3.81 1.65-7.49 5.02-11.03 10.13-4.45-6.94-9.1-13.22-13.87-19.09 5.88-12.25 5.03-26.88-.6-41.09-2.26-5.7-5.29-11.33-8.96-16.72-7.6-8.1-15.73-15.64-24.32-22.55-4.43-1.72-8.8-3.08-12.93-4.03-2.71-.63-5.31-1.08-7.75-1.35 6.29 9.81 12.33 21.02 17.11 32.47 4.19 10.08 7.41 20.36 8.95 30.05 12.07 10.84 23.12 22.85 32.92 36.31 9.6 13.2 17.99 27.79 24.94 44.02 4.29.27 8.5.9 12.39 1.69 3.09.62 5.99 1.33 8.58 2.04-1.59-8.5-3.65-16.98-6.21-25.45-1.99-6.57-4.24-12.98-6.74-19.25-7.06-1.99-13.69-.22-19.4 9.68h0zM310.39 1069.6c26.02-7.88 49.72-19.78 70.63-34.79l.26.16c.12-.2.24-.4.36-.6 29.91-21.63 54.1-49.67 71.14-81.53 4.67-8.73 8.8-17.73 12.37-26.98.2-.26.4-.53.59-.8l-.22-.16c18.33-48.05 21.47-102.31 5.41-155.32-19.25-63.58-62.47-113.34-116.77-142.39-37.21-19.92-79.64-30.11-123.13-28.33l-.67-.15-.04.17c-19.72.86-39.66 4.18-59.41 10.16-22.17 6.72-42.65 16.34-61.17 28.34l-.05-.05-.13.16c-34.51 22.39-62.16 53.01-81.06 88.32-8.9 16.63-15.85 34.31-20.67 52.66l-.33.47.17.12c-10.74 41.36-10.6 86.12 2.69 130 19.25 63.58 62.47 113.34 116.76 142.4 54.3 29.06 119.68 37.41 183.26 18.15h0zm139.14-118.51c-15.81 29.56-37.86 55.77-64.99 76.52.46-1.63.78-3.28.95-4.95 14.05-10.49 25.33-22.27 34.77-35.21 9.59-13.14 17.29-27.47 24.11-42.89 3.84-2.39 7.68-5.24 11.26-8.42.72-.65 1.42-1.29 2.11-1.96-2.51 5.75-5.25 11.4-8.21 16.92h0zm-70.68 80.74c-20.59 14.78-43.92 26.48-69.53 34.24-20.48 6.2-41.16 9.49-61.58 10.11-2.58-1.5-4.58-3.16-6-4.96 12.16-1.88 23.81-5.43 34.9-10.85 11.71-5.71 22.78-13.48 33.15-23.48 12.86 1.92 25.45 1.8 37.79-.36 11.49-2.02 22.75-5.81 33.79-11.39-.17.79-.39 1.58-.64 2.35-.48 1.46-1.11 2.91-1.88 4.33h0zm-137.33 44.47c-39.8.15-78.45-9.8-112.64-28.09-1.44-.77-2.87-1.56-4.29-2.36 1.72-.01 3.42-.07 5.09-.17 3.76-.2 7.39-.6 11.04-1.22 14.9 9.2 30.43 16.27 46.81 20.91 15.86 4.48 32.49 6.7 50.09 6.37.98 1.63 2.28 3.16 3.9 4.57h0zm-123.38-34.21c-37.01-22.34-68.04-54.81-88.49-94.95 2.3-3.38 4.94-6.55 8.17-9.73 3.26-3.21 7.13-6.46 11.87-9.95 7.73 11.34 17.34 22.51 29.21 32.77 10.75 9.28 23.35 17.82 38.13 25.08.63 9.78 3.02 19.53 6.58 28.79 3.76 9.73 8.8 18.94 14.44 27.07-2.84.41-5.68.7-8.57.86-3.6.19-7.33.21-11.34.09h0zm-6.08-401.82c18.15-11.72 38.23-21.12 59.92-27.7 19.54-5.92 39.26-9.19 58.76-10.02 7.39 1.68 14.95 4.11 22.37 7.52 6.07 2.79 12.04 6.24 17.75 10.45-6.29 5.65-11.87 12.37-16.88 19.94-5.32 8.02-10.02 16.99-14.27 26.62-17.74.56-34.81 3.37-51.2 8.44-16.11 4.98-31.55 12.15-46.33 21.48-8.81-4.72-17.5-8.58-26.19-11.53-8.18-2.76-16.35-4.74-24.63-5.87 2.56-7.53 5.54-14.48 8.91-20.9 3.53-6.73 7.47-12.85 11.78-18.44h0zm362.27 159.85c7.22 42.75 2.36 85.39-12.45 123.95-2.53 3.32-5.51 6.45-8.71 9.3-2.98 2.66-6.15 5.06-9.34 7.15.15-9.75-.77-20.04-3.01-30.05-2.17-9.68-5.59-19.11-10.49-27.6 8.82-15.23 14.48-30.54 17.87-45.4 3.28-14.4 4.44-28.37 4.28-41.4 4.13.26 8.12.86 11.83 1.6 3.66.73 7.05 1.61 10.02 2.45h0zm-125.02 99.92c-6.82-13.92-14.69-27.11-23.66-39.56-9.08-12.57-19.29-24.38-30.7-35.39 6.26-14.67 10.81-30.09 13.9-45.8 3.37-17.12 5.03-34.63 5.33-51.93 13.31-3.53 25.84-6.09 38.54-7.87 13.03-1.81 26.24-2.8 40.61-3.14l.7-.02c11.22 10.26 21.52 21.59 30.69 34.19 9.2 12.66 17.28 26.62 24.02 42.11l.04 1.52c.3 13.31-.78 27.67-4.16 42.49-3.38 14.8-9.07 30.09-18 45.28l-.34.57c-12.45 6.04-24.75 10.76-37.25 13.82-12.87 3.14-25.97 4.51-39.71 3.73h0zm-58.05-75.72c-16.08 2.3-31.83 5.75-47.23 10.39-15.27 4.61-30.19 10.38-44.72 17.38-13.73-8.94-26.89-18.68-39.48-29.22-12.73-10.68-24.87-22.15-36.39-34.42 1.05-13.68 3.55-30.33 7.19-46.7 3.26-14.62 7.43-29 12.31-40.86 14.87-9.53 30.42-16.82 46.65-21.83 16.61-5.14 33.95-7.92 52.01-8.33v-.22c11.47 5.32 24.3 13.81 36.3 23.48 12.7 10.24 24.44 21.78 32.66 32.25h-.05c-.25 17.39-1.88 35.04-5.29 52.34-3.1 15.73-7.65 31.13-13.95 45.74h0zm-94.87 30.27c-3.33 15.58-5.35 31.19-5.98 46.82-.62 15.45.11 30.89 2.27 46.32l-.44-.58c-11.35 8.71-23.08 16.13-35.29 21.98-12.18 5.84-24.85 10.1-38.06 12.5l.1.51c-14.63-7.15-27.09-15.56-37.68-24.71-12.16-10.5-21.89-21.98-29.63-33.63l-.32-.49.11-.02c-3.75-15.53-5.56-31.66-5.6-48.35-.03-15.88 1.53-32.23 4.56-49.02l.21-.13c12.11-7.67 23.26-13.93 34.73-19.42 11.34-5.42 22.97-10.07 36.17-14.55 11.41 12.09 23.38 23.38 35.92 33.89 12.41 10.38 25.38 20.02 38.93 28.89h0zm-2.12 95.65c14.43 7.3 29.31 13.41 44.67 18.28 15.53 4.91 31.55 8.55 48.08 10.87l.46.06 18.76 55.73c-9.82 9.29-20.24 16.53-31.22 21.89-11.59 5.66-23.81 9.22-36.61 10.91l-.44.05c-17.39.37-33.81-1.79-49.44-6.21-16.01-4.54-31.23-11.45-45.83-20.47-6.13-8.43-11.66-18.19-15.65-28.58-3.44-8.94-5.75-18.33-6.36-27.71 13.13-2.49 25.72-6.78 37.83-12.58 12.37-5.92 24.25-13.43 35.74-22.23h0zm125.3-9.32c-9.93 12.32-20.92 23.87-32.89 34.68-16.02-2.28-31.57-5.83-46.64-10.61-15.03-4.76-29.6-10.73-43.72-17.84-2.13-15.23-2.85-30.43-2.25-45.6.61-15.22 2.57-30.44 5.8-45.65 14.69-7.15 29.78-13.03 45.21-17.68 15.44-4.65 31.25-8.09 47.4-10.37 11.19 10.82 21.23 22.43 30.15 34.79 8.91 12.34 16.71 25.41 23.43 39.17-7.74 13.8-16.59 26.83-26.5 39.11h0zm-62.52-298.42c5.1-7.68 10.78-14.46 17.19-20.04 17.1 1.68 32.86 4.16 47.71 8.36 14.9 4.22 28.87 10.15 42.37 18.7 6.65 10.13 13.09 21.87 18.09 33.87 4.11 9.88 7.25 19.91 8.74 29.32-13.69.4-26.39 1.39-38.96 3.14-12.81 1.79-25.47 4.37-38.88 7.93-8.39-10.65-20.27-22.33-33.1-32.67-12.04-9.7-24.94-18.26-36.59-23.73 4.03-8.99 8.46-17.36 13.44-24.88h0zm163.59 89.61c-.7-.84-1.41-1.67-2.13-2.49 8.74-22.04-1.77-46.64-31.59-73.75l.96.14c21.37 15.65 44.48 48.26 32.76 76.1h0z" fill="#4ace6f" fill-rule="evenodd"/></g></g></svg>