<svg xmlns="http://www.w3.org/2000/svg" width="1034.96" height="1080" viewBox="0 0 1034.96 1080"><g id="a"/><g id="b"><g id="c"><g id="d"><path d="M213.09 34.82s-49.02 504.47 276.14 558.56C814.39 647.48 864.11 39.22 864.11 39.22l-651.02-4.4z" fill="#ffbd52"/><ellipse cx="538.6" cy="37.02" rx="36.96" ry="325.52" transform="translate(497.93 575.36) rotate(-89.61)" fill="#ea6060"/><path d="M653.23 925.72c-5.16-4.04-10.2-8.56-15.09-13.38-42.57-42.02-66.77-108.25-66.3-177.77.13-19.34 3.36-38.43 9.36-56.16 2.58-7.63 5.79-17.64 9.71-30.75 13.93-46.6-17.86-92.24-17.86-92.24l-56.09-.38-56.09-.38s-32.41 45.21-19.1 91.99c3.74 13.16 6.81 23.22 9.29 30.88 5.76 17.81 8.73 36.94 8.6 56.28-.47 69.51-25.57 135.41-68.7 176.85-4.95 4.76-10.05 9.2-15.27 13.18-45.95 35.02-114.21 59.8-104.79 105.3 9.42 45.49 242.51 50.86 242.51 50.86.0.0 233.14-2.21 243.18-47.57 10.03-45.36-57.88-71.06-103.36-106.71z" fill="#ffbd52"/><path d="M716.5 457.39c-8.25-.06-16.37-3.86-21.65-11-8.91-12.05-6.36-29.03 5.68-37.94 32.9-24.33 72.78-34.6 111.34-44.54 38.19-9.84 77.68-20.01 110.76-43.87 40.55-29.25 61.49-91.72 57.64-132.82-1.52-16.24-6.37-21.86-7.48-22.39-18.68-8.75-32.78.32-55.47 22.62-2.2 2.16-4.25 4.17-6.16 5.96-22.57 21.15-80.91 25.16-104.95 25.89-14.96.52-27.49-11.3-27.95-26.28-.46-14.97 11.3-27.48 26.27-27.95h0c29.13-.92 62.21-6.4 69.83-11.54 1.54-1.45 3.18-3.07 4.93-4.79 19.6-19.26 60.39-59.32 116.5-33.05 21.76 10.19 35.43 33.79 38.49 66.46 5.29 56.41-20.92 139.33-79.91 181.89-41.37 29.84-87.91 41.83-128.97 52.41-35.08 9.03-68.21 17.57-92.62 35.62-4.9 3.62-10.63 5.36-16.29 5.32z" fill="#ffbd52"/><path d="M298.7 449.13c-24.16-18.38-57.18-27.36-92.13-36.87-40.91-11.13-87.28-23.75-128.24-54.15C19.91 314.77-5.17 231.5.88 175.17c3.5-32.62 17.49-56.04 39.39-65.93 56.46-25.51 96.7 15.1 116.04 34.62 1.73 1.75 3.35 3.39 4.87 4.86 7.55 5.24 40.56 11.17 69.67 12.48h0c14.96.67 26.55 13.34 25.89 28.3-.66 14.97-13.35 26.62-28.3 25.9-24.02-1.06-82.3-5.85-104.59-27.31-1.88-1.81-3.91-3.86-6.08-6.04-22.39-22.6-36.37-31.86-55.16-23.37-1.12.51-6.04 6.07-7.79 22.28C50.41 222 70.5 284.75 110.66 314.55c32.75 24.3 72.1 35.01 110.15 45.36 38.42 10.45 78.16 21.26 110.73 46.04 11.92 9.07 14.24 26.09 5.17 38.01-5.38 7.07-13.55 10.76-21.8 10.7-5.66-.04-11.36-1.85-16.22-5.54z" fill="#ffbd52"/><g><path d="M557.82 398.95c-18.66-2.19-37.17-2.58-54.44-1.95 10.11-76.44 27.81-172.12 28-173.13 1.37-7.41-2.44-14.81-9.28-17.99-6.83-3.18-14.95-1.33-19.73 4.51-25.91 31.6-81.26 43.81-82.2 44.02-8.91 1.89-14.62 10.64-12.74 19.56 1.88 8.92 10.63 14.64 19.56 12.75 1.9-.4 33.67-7.29 64.11-25.1-6.44 37.19-15.44 91.7-21.37 137.93-33.83 3.83-57.72 10.25-59.43 10.72-8.79 2.41-13.97 11.48-11.57 20.27 1.99 7.31 8.59 12.12 15.81 12.17 1.47.0 2.97-.18 4.46-.59.67-.18 68.04-18.22 134.94-10.37 9.06 1.04 17.26-5.42 18.32-14.48 1.06-9.06-5.42-17.26-14.47-18.32z" fill="#fcfcfc"/><path d="M730.37 238.74c9.08-.87 15.74-8.93 14.87-18-.86-9.08-8.92-15.72-18-14.87l-24.62 2.35 3.68-23.14c1.43-9.01-4.71-17.47-13.72-18.9-9-1.43-17.47 4.71-18.9 13.72l-5.01 31.55-26.88 2.56 3.28-20.66c1.43-9.01-4.71-17.47-13.72-18.9-9-1.43-17.47 4.71-18.9 13.72l-4.62 29.08-34.62 3.3c-9.08.87-15.74 8.93-14.87 18 .81 8.51 7.94 14.89 16.31 14.95.56.0 1.13-.02 1.7-.07l26.13-2.49-3.53 22.2-36.13 3.44c-9.08.87-15.74 8.93-14.87 18 .81 8.51 7.94 14.89 16.31 14.95.56.0 1.13-.02 1.7-.08l27.64-2.64-4.55 28.62c-1.43 9.01 4.71 17.47 13.72 18.9.84.13 1.67.2 2.5.21 8.02.05 15.1-5.76 16.4-13.92l5.89-37.04 26.88-2.56-4.16 26.15c-1.43 9.01 4.71 17.47 13.72 18.9.84.13 1.67.2 2.5.21 8.02.05 15.1-5.76 16.4-13.92l5.49-34.57 31.59-3.01c9.08-.87 15.74-8.93 14.87-18-.86-9.08-8.93-15.71-18-14.87l-23.11 2.2 3.53-22.2 33.11-3.16zm-70.59 28.6-26.88 2.56 3.53-22.2 26.88-2.56-3.53 22.2z" fill="#fcfcfc"/></g></g></g></g></svg>