<svg xmlns="http://www.w3.org/2000/svg" width="390.49" height="1080" viewBox="0 0 390.49 1080"><g id="a"/><g id="b"><g id="c"><g id="d"><path d="M95.5 1068.7c-2.04 1.88-4.21 4.74-2.83 7.15 1.04 1.81 3.49 2.13 5.58 2.19 15.15.47 30.47-1.29 44.74-6.39 3.9-1.39 7.71-3.03 11.51-4.66 6-2.58 11.99-5.15 17.99-7.73 3.12-1.34 6.38-2.79 8.4-5.52 2.45-3.32 2.52-7.77 2.48-11.9-.02-2.27-.1-4.73-1.5-6.51-1.19-1.52-3.11-2.24-4.96-2.8-6.4-1.94-13.15-2.69-19.82-2.25-6.15.41-8.39 1.94-12.97 5.34-4.89 3.64-11.15 5.91-16.41 9.05-5.49 3.27-10.82 6.82-15.96 10.62-5.66 4.18-11.09 8.66-16.25 13.43z" fill="#070707"/><path d="M324.1 1070.74c1.99 1.94 4.08 4.85 2.62 7.22-1.09 1.78-3.55 2.03-5.64 2.03-15.15.04-30.42-2.15-44.55-7.65-3.86-1.5-7.62-3.25-11.38-4.99-5.92-2.74-11.84-5.49-17.76-8.23-3.08-1.43-6.3-2.97-8.24-5.76-2.36-3.39-2.3-7.84-2.15-11.97.08-2.27.23-4.72 1.69-6.47 1.23-1.48 3.17-2.15 5.04-2.66 6.45-1.76 13.22-2.32 19.88-1.69 6.14.58 8.33 2.17 12.81 5.71 4.79 3.77 10.98 6.22 16.15 9.51 5.39 3.43 10.62 7.12 15.65 11.06 5.54 4.34 10.84 8.97 15.87 13.88z" fill="#070707"/><path d="M30 719.84c1.25 5.04 3.73 9.69 6.27 14.22 5.74 10.21 11.95 20.17 18.61 29.81 1.15 1.67 2.38 3.39 4.18 4.32 1.8.93 4.33.78 5.49-.88.83-1.18.76-2.75.65-4.19-.93-11.83-2.86-23.57-5.77-35.07 1.46-.7 1.77 2.01 2.61 3.39 1.2 1.95 4.55.83 5.37-1.31.82-2.14.05-4.51-.51-6.73-2.41-9.61-.65-19.75-1.58-29.62-.51-5.45-1.85-10.81-3.96-15.86-2.16-5.17-5.36-10.23-10.34-12.81-4.63-2.39-10.41-1.93-14.89.61-6.69 3.8-4.56 7.3-4.36 13.86.41 13.44-5.1 26.89-1.79 40.26z" fill="#fb9"/><path d="M116.94 289.14c-5.97 18.64-2.37 38.83 1.28 58.06 8.82 46.5 17.64 93 26.45 139.49 1.81 9.52 3.91 19.63 10.66 26.58 7.68 7.9 19.48 9.82 30.41 11.22 9.99 1.29 20.46 2.45 29.89-1.1 19.07-7.18 26.31-29.94 30.39-49.9 10.4-50.85 16.19-102.64 17.29-154.53.25-11.91.15-24.3-5-35.03-14.99-31.21-52.23-27.64-80.94-28.98-25.63-1.2-51.56 6.48-60.43 34.19z" fill="#fb9"/><path d="M135.86 534.83c-1.64 16.87 5.74 33.24 13.91 48.09 1.68 3.06 3.49 6.19 6.31 8.24 2.77 2.01 6.23 2.77 9.61 3.34 13.28 2.26 26.92 2.38 40.24.36 16.34-2.48 33.64-9.41 41.12-24.14 5.19-10.21 4.71-22.3 3.31-33.66-1.59-12.95-5-27.05-15.64-34.61-5.31-3.77-11.83-5.42-18.28-6.37-28.76-4.25-77.03 2.26-80.58 38.76z" fill="#fb9"/><path d="M149.88 832.36c1.5 4.75 4.1 10.33 8.96 10.64 4.09.26 7.31-3.52 9.23-7.23 3.9-7.53 5.37-16.1 6.7-24.52 6.79-42.82 11.41-86 13.84-129.31 1.25-22.15 1.92-44.32 2.03-66.51.08-16.53 3.88-41.86-6.2-56.28-17.7-25.32-56.53-13.6-64.95 13.16-5.25 16.68-1.69 36.88-.88 54.03 1 21.04 2.32 42.06 4.27 63.03 4.51 48.4 12.34 96.67 27 142.99z" fill="#fb9"/><path d="M211.12 831.86c1.11 4.87 3.24 10.65 8.06 11.38 4.05.61 7.57-2.88 9.79-6.41 4.5-7.17 6.67-15.58 8.69-23.85 10.27-42.09 18.42-84.72 24.4-127.67 3.06-21.96 5.55-44.01 7.47-66.1 1.43-16.46 7.3-41.38-1.57-56.62-15.56-26.76-55.21-18.43-65.79 7.51-6.6 16.17-4.71 36.6-5.31 53.77-.73 21.05-1.14 42.12-.91 63.18.52 48.62 4.37 97.4 15.18 144.82z" fill="#fb9"/><path d="M160.37 263.58c20.1 6.36 41.47 9.69 62.67 9.76.87.0 1.86-.05 2.38-.6.38-.41.38-.98.37-1.51-.36-16.22-.73-32.44-1.09-48.66-.12-5.51-.25-11.02-.37-16.54-.07-3.1-.33-6.57-3.12-8.76-1.63-1.28-3.85-1.87-5.98-2.41-17.02-4.25-43.93-5.71-47.74 12.4-.94 4.45-1.1 58.22-7.12 56.31z" fill="#fb9"/><path d="M166.68 221.45c.01.37.03.76.2 1.11.3.63 1.03 1.05 1.73 1.42 16.15 8.55 35.84 10.72 54.64 10.72.47.0.98-.02 1.31-.28.32-.27.34-.69.34-1.07l.03-19.04c0-1.33.0-2.71-.67-3.94-.73-1.36-2.17-2.4-3.61-3.31-8.67-5.53-19.17-8.89-29.84-10.22-4.57-.57-9.21-.78-13.74-.3-1.99.21-4.01.57-5.67 1.45-7.9 4.18-4.96 16.86-4.71 23.48z" fill="#d89c82"/><path d="M142.65 115.88c-4.32 16.86-1.97 34.71 2.06 51.64 3.68 15.5 9.04 31.19 19.89 42.84 10.86 11.65 28.39 18.3 43.21 12.46 14.22-5.6 22.27-20.61 27.24-35.06 7.12-20.73 10.42-42.77 9.66-64.68-.32-9.24-1.53-18.92-6.91-26.44-2.89-4.03-6.83-7.21-11.04-9.83-31.77-19.81-74.34-9-84.1 29.07z" fill="#fb9"/><path d="M140.14 151.98c-2.51-10.09-5.04-20.31-5.08-30.71-.03-10.4 2.68-21.17 9.53-29 4.74-5.41 11.15-9.11 17.8-11.85 8.57-3.54 17.77-5.68 27.05-5.72 4.15-.02 8.81.64 11.36 3.92 1.78 2.29 2.12 5.36 2.38 8.25.33 3.6.67 7.2 1 10.8.08.88.16 1.79-.12 2.63-.77 2.3-3.67 2.93-6.08 3.25-11.92 1.57-23.94 4.76-33.74 11.73-9.8 6.97-17.11 18.23-16.97 30.26l-4.55-.44c-.53-.05 4.82 32.67 5.57 35.46-3.6-4.48-6.56-22.19-8.15-28.57z" fill="#070707"/><path d="M140.68 145.17c-2.4.15-5.01.86-6.3 2.88-1.38 2.15-.76 5.01.25 7.36 1.68 3.89 4.28 7.3 6.2 11.07 1.63 3.21 2.75 6.65 4.2 9.94 1.45 3.29 3.28 6.52 6.02 8.84.39.34 1 .65 1.39.31.22-.2.26-.52.27-.82.18-3.23.0-6.46-.25-9.69-.52-6.75-1.35-13.48-2.73-20.11-.51-2.47-.73-6.29-2.29-8.36-1.4-1.87-4.73-1.56-6.76-1.43z" fill="#fb9"/><path d="M246 154.81c2.9-9.99 5.81-20.1 6.25-30.49s-1.86-21.26-8.41-29.34c-4.53-5.59-10.8-9.53-17.33-12.53-8.43-3.87-17.54-6.36-26.81-6.75-4.15-.18-8.83.3-11.5 3.48-1.87 2.22-2.32 5.27-2.7 8.15-.47 3.59-.94 7.17-1.41 10.76-.12.88-.23 1.79.02 2.63.68 2.33 3.55 3.07 5.95 3.48 11.86 2.03 23.74 5.67 33.27 13.01 9.53 7.34 16.4 18.88 15.8 30.89 1.52-.09 3.04-.18 4.57-.27.53-.03-6.07 32.46-6.92 35.22 3.77-4.33 7.41-21.92 9.24-28.24z" fill="#070707"/><path d="M245.72 147.98c2.39.25 4.97 1.05 6.19 3.12 1.29 2.21.57 5.04-.53 7.34-1.82 3.82-4.56 7.13-6.62 10.83-1.75 3.14-3 6.54-4.58 9.77-1.57 3.24-3.53 6.39-6.36 8.61-.41.32-1.02.61-1.4.25-.21-.2-.23-.53-.24-.83-.05-3.23.25-6.46.62-9.67.78-6.72 1.87-13.42 3.49-20 .6-2.44.97-6.25 2.61-8.27 1.47-1.81 4.78-1.38 6.81-1.17z" fill="#fb9"/><path d="M181.76 153.59c-2.26.24-4.52.48-6.78.73-.45.05-.91.1-1.29.34-.34.22-.58.56-.83.88-2.31 2.83-7.2 2.94-9.64.22-.32-.36-.62-.76-1.05-.99-.41-.21-.88-.22-1.34-.23-2.14-.01-4.27.16-6.38.51.31-.05 2-1.92 2.44-2.25.95-.72 1.79-1.26 2.97-1.7 2.38-.9 4.9-1.4 7.44-1.51 5.08-.22 10.25 1.12 14.46 4.01z" fill="#7a5041"/><path d="M204.32 154.48c2.27.1 4.54.2 6.82.3.45.02.91.04 1.31.26.35.2.61.53.89.82 2.48 2.68 7.37 2.48 9.64-.38.3-.38.57-.8.98-1.05.39-.23.87-.28 1.32-.31 2.13-.14 4.27-.11 6.4.1-.32-.03-2.12-1.79-2.58-2.09-1-.65-1.86-1.14-3.07-1.51-2.43-.75-4.98-1.09-7.52-1.05-5.08.1-10.16 1.76-14.18 4.9z" fill="#7a5041"/><path d="M206.22 196.91c-1.28 1.7-2.63 3.34-4.12 4.85-1.31 1.32-2.76 2.57-4.5 3.22-2.89 1.08-6.21.35-8.89-1.2-2.6-1.51-4.92-3.76-6.85-6.05 3.83.37 7.65.98 11.53.95 2.16-.02 4.33-.18 6.47-.47 1.17-.16 5.64-.35 6.36-1.3z" fill="#d89c82"/><path d="M153.57 141.95c.68.11 1.37-.14 2.02-.36 6.56-2.24 13.69-2.78 20.52-1.58.53.09 1.1.19 1.57-.06.6-.32.8-1.13.6-1.77-.2-.65-.72-1.15-1.27-1.53-2.32-1.62-5.38-1.65-8.2-1.41-4.71.39-9.37 1.33-13.87 2.79-1.41.46-4.69 3.4-1.37 3.93z" fill="#7a5041"/><path d="M232.88 141.4c-.68.13-1.37-.1-2.03-.31-6.62-2.07-13.76-2.43-20.55-1.05-.52.11-1.1.22-1.57-.02-.6-.31-.83-1.11-.64-1.76.19-.65.69-1.16 1.23-1.57 2.28-1.68 5.33-1.78 8.16-1.62 4.72.27 9.41 1.09 13.94 2.44 1.42.42 4.78 3.28 1.47 3.89z" fill="#7a5041"/><path d="M99.12 281.89C87.81 298 85.5 318.62 84.54 338.28c-4.53 92.66 13.04 184.79 21.21 277.21 11.21 126.76 4.76 254.32 2.21 381.55-.35 17.44 3.1 39.92 20.15 43.64 9.48 2.07 20.35-3.04 28.64 2.02 3.19 1.95 5.47 5.18 8.73 7.02 8.27 4.67 18.21-1.25 27.52-3.12 8.97-1.8 18.2.33 27.24 1.73 30.11 4.67 61.66 1 89.37-11.69-12.65-30.21-15.01-63.59-16.95-96.28-11.41-192.37-13.7-385.29-6.85-577.87 1.27-35.62.77-76.38-25.99-99.92-39.34-34.61-130.59-23.55-160.7 19.34z" fill="#dce5ef"/><path d="M116.43 101.95c-5.99-14.24-8.31-28.75-10.37-44.09-1.32-9.79-.87-20.2 3.71-28.93 4.12-7.86 11.31-13.75 19.23-17.61 7.92-3.86 16.59-5.85 25.25-7.4 29.08-5.21 59.28-5.76 87.9 1.57 9.01 2.31 17.92 5.43 25.71 10.56 7.78 5.13 14.4 12.44 17.49 21.31 2.13 6.11 2.52 12.72 2.2 19.2-1.64 32.73-20.54 61.65-38.8 88.72-2.37-11.75-9.34-22.34-18.63-29.77-9.3-7.43-20.8-11.8-32.57-13.27-13.08-1.63-26.91.39-38.06 7.51-11.53 7.41-20.21 20.41-21.36 33.97-9.27-12.13-15.73-27.55-21.71-41.76z" fill="#dce5ef"/><path d="M285.36 37.36c-3.09-8.87-9.71-16.17-17.49-21.31-3.93-2.59-8.14-4.66-12.51-6.38 1.33 1.1 2.62 2.26 3.81 3.53 6.2 6.61 10.01 16.04 7.93 24.86-22.17-4.86-39.72-25-62.4-25.74 12.66 6.21 25.3 12.98 35.43 22.81 10.12 9.82 17.56 23.18 17.44 37.28-5.61-.21-11.08-2.93-14.64-7.28 2.43 3.98 4.87 7.96 7.3 11.94.96 1.58 1.96 3.27 1.93 5.12-.06 3.37-3.7 5.79-7.07 5.74-3.37-.06-6.43-1.89-9.23-3.77-19.66-13.24-36.17-32.2-58.76-39.37 11.89 8.04 23.81 16.1 34.88 25.24 4.78 3.94 9.67 8.57 10.72 14.67 2.12 12.36-6.24 16.48-15.77 19.36 8.41 2.22 16.4 6.01 23.21 11.46 9.3 7.43 16.26 18.02 18.63 29.77 18.26-27.07 37.16-55.99 38.8-88.72.32-6.48-.07-13.08-2.2-19.2z" fill="#d5dce2"/><path d="M178.08 44.47c-8.44 16.06-11.36 35.03-7.74 52.81-.26-18.79 5.18-37.63 15.42-53.39 10.24-15.76 25.24-28.39 42.51-35.79-2 .86-6.71-.05-9.08.22-2.26.26-4.51.42-6.6 1.26-4.86 1.94-9.62 5.96-13.61 9.27-8.54 7.08-15.74 15.8-20.9 25.62z" fill="#d5dce2"/><g><path d="M102.66 296.07l.16 6.97c2.73-5.18 5.4-10.4 7.92-15.69-2.69 2.91-5.38 5.81-8.07 8.72z" fill="#c9cfd3"/><path d="M156.75 1042.68c3.19 1.95 5.47 5.18 8.73 7.02 8.27 4.67 18.21-1.25 27.52-3.12 1.64-.33 3.28-.52 4.93-.62-6.77-118.78-13.92-237.58-26.72-355.86-15.48-143.02-39.26-286.85-24.47-429.95-19.4 50.16-23.69 104.69-27.77 158.32-3.64 47.83-7.28 95.77-10.36 143.76l-5.78-259.2c-5.67 10.74-11.74 21.26-18.08 31.64-.07 1.2-.13 2.4-.19 3.59-4.53 92.66 13.04 184.79 21.21 277.21 11.21 126.76 4.76 254.32 2.21 381.55-.35 17.44 3.1 39.92 20.15 43.64 9.48 2.07 20.35-3.04 28.64 2.02z" fill="#c9cfd3"/><path d="M250.71 1050.15c-9.94-44.72-15.4-90.43-17.75-136.21.84 45.33 1.67 90.66 2.51 135.99 5.07.31 10.16.38 15.24.22z" fill="#c9cfd3"/><path d="M204.02 1046.02c5.41.37 10.85 1.45 16.22 2.29 3.31.51 6.63.91 9.96 1.22-19.63-146.55-31.35-294.16-35.03-441.97 3.42 124.65 6.84 249.3 10.26 373.95.59 21.5 1.13 43.24-1.41 64.52z" fill="#c9cfd3"/><path d="M292.66 940.34c-11.41-192.37-13.7-385.29-6.85-577.87.51-14.22.73-29.26-.89-43.69-4.36-13.3-8.39-26.7-12.03-40.24-.94-1.61-1.94-3.18-3.01-4.71-44.78 255.43-30.45 517.01-13.75 776.05 18.45-1.21 36.67-5.57 53.48-13.26-12.65-30.21-15.01-63.59-16.95-96.28z" fill="#c9cfd3"/></g><path d="M82.98 278.77c-10.4 14.64-10.23 36.18-12.02 54.04-3.18 31.77-2.26 63.79-1.48 95.71 4.88 197.97 4.83 396.06-.17 594.03-.1 3.82-.13 7.89 1.89 11.13 1.95 3.14 5.47 4.9 8.89 6.31 23 9.47 49.76 9.41 72.71-.18 13.76-235.79-25.11-471.95-16.93-708 .5-14.57 1.35-29.31 4.61-43.56 1.57-6.86 31.79-37.02 28.81-42.02-9.13-15.3-79.39 22.79-86.31 32.54z" fill="#616572"/><path d="M304.82 276.78c10.93 14.24 14.97 32.52 17.42 50.31 4.36 31.63 4.64 63.66 5.04 95.59 2.49 198.01 9.93 395.97 22.3 593.61.24 3.81.42 7.88-1.47 11.19-1.84 3.21-5.29 5.1-8.65 6.64-22.63 10.32-35.37 7.93-64.64 13.46-22.53-235.11-.51-483.49-17.48-719.07-1.05-14.54-2.44-29.24-6.23-43.36-1.82-6.79-29.22-35.15-26.42-40.26 8.56-15.63 72.86 22.41 80.14 31.89z" fill="#616572"/><path d="M81.24 275.35c-12.9 7.84-25.03 17-32.4 28.63-7.31 11.54-9.47 24.72-11.53 37.62C20.43 447.56 3.53 553.73.05 660.62c-.15 4.66-.13 9.73 3.36 13.46 3.17 3.4 8.5 4.91 13.57 6.02 23.42 5.16 48.29 5.84 72 1.96.51-45.03-6.86-89.99-6.24-135.02.75-54.71 13.29-108.83 16.24-163.48 1.23-22.84.8-45.83 5.22-68.39 1.78-9.08 4.38-18.07 8.13-26.74 4.04-9.35 12.55-17.46 16.43-26.47 5.06-11.76-5.82-7.05-14.72-3.31-11.48 4.82-22.46 10.4-32.8 16.68z" fill="#616572"/><path d="M169.8 279.1c3.55 6.34 7.78 12.44 13.47 16.97 5.68 4.53 12.98 7.37 20.21 6.57 7.31-.81 13.86-5.27 18.48-10.99 4.62-5.72 7.52-12.63 9.86-19.6 10.32-30.74 10.67-63.89 8.82-96.27-7.18 13.41-14.61 27.13-26.14 37.06-2.4 2.07-5.09 4.01-8.22 4.47-3.13.46-6.75-1.01-7.77-4-.74-2.16-.02-4.54-.21-6.81-.19-2.28-2.2-4.82-4.33-4-1.54.59-2.02 2.57-1.89 4.22.13 1.65.63 3.34.15 4.93-.62 2.06-2.79 3.35-4.94 3.56-2.14.21-4.27-.46-6.29-1.19-7.08-2.57-13.94-6.16-19.15-11.59-7.94-8.25-10.87-19.34-14.21-29.93.65 35.27 4.71 75.37 22.17 106.62z" fill="#070707"/><path d="M74.36 558.3c2.36-70.7 5.61-141.91 22.31-210.65-12.96 71.02-12.96 143.68-12.92 215.88.0 14.19.02 28.43 1.7 42.52 1.18 9.85 3.17 19.63 3.53 29.55.57 15.55-1.96 33.49-7.31 48.05-17.98 4.58-62.08-2.55-61.01-2.76 15.07-3.04 38.69-17.05 44.61-41.96 6.28-26.43 8.18-53.64 9.08-80.63z" fill="#535660"/><g><path d="M204.46 499.26c.84.59 1.95.64 2.98.6 1.03-.04 2.1-.13 3.06.24.19.07.38.17.5.34.27.41-.04.95-.35 1.33-5.48 6.86-12.56 12.32-20.12 16.8-7.56 4.48-15.62 8.03-23.66 11.56-1.28.56-2.57 1.13-3.95 1.38-1.77.32-3.63.11-5.27-.62-2.41-1.07-4.4-3.57-3.98-6.17.31-1.95 1.82-3.46 3.34-4.71 8.72-7.19 19.88-10.53 30.17-15.21 5.81-2.65 11.21-6.12 16.97-8.82-.46 1.14-1 2.36.32 3.28z" fill="#fcfcfc"/><path d="M192.28 614.56c.55 1.14 1.14 2.34 2.19 3.04 1.06.71 2.41.79 3.69.76 8.73-.23 16.64-4.89 24.11-9.41 11.87-7.19 23.75-14.38 35.62-21.56-14.43-30.36-29.53-60.4-45.3-90.08-16.02 13.93-34.9 24.55-55.13 31-1.5-.93-2-2.31-1.08-3.81.92-1.5 2.94-3.32 4.49-4.16 14.46-7.85 28.91-15.71 43.37-23.56-.62-.98-1.23-1.95-1.85-2.93-13.72 6.52-24.45 13.05-39.44 21.24-3.51 1.92-7.22 4.27-9.4 7.62-2.11 3.25-1.69 9.15.52 12.5.0-.11.0-.23.01-.34 12.67 26.6 25.46 53.14 38.19 79.7z" fill="#070707"/></g><path d="M307.23 622.56c3.13 16.26 4.07 32.86 5 49.39 6.03 107.35 12.07 214.81 10.15 322.31-.12 6.84-.29 13.75-1.97 20.38-3.18 12.47-14.39 24.08-25.87 29.88 19.02-1.86 39.31-5.72 55.32-14.89 2.21-1.27 4.48-2.72 5.69-4.96 1.16-2.16 1.17-4.74 1.13-7.19-.32-23.35-1.63-46.67-2.94-69.98-5.84-103.79-11.68-207.58-19.61-311.23-1.42-18.5-2.9-37.06-1.93-55.59.78-14.87 3.12-29.93.21-44.53-11.36 8.3-40.2 20.75-42.58 36.3-1.26 8.22 5.5 15.31 8.79 22.27 4.17 8.8 6.77 18.32 8.61 27.86z" fill="#535660"/><path d="M179.36 561.52c-5.17 2-11.36 5.15-11.32 10.69.01 1.81.75 3.53 1.71 5.07 4.75 7.66 14.24 10.84 23.14 12.27 15.25 2.45 31.06 1.36 45.83-3.14 11.52-3.51 23.23-9.93 27.93-21.01 3.2-7.53 2.6-16.44-1.06-23.75-3.35-6.7-9.36-12.2-16.59-14.21-13.04-3.62-22.44 4.82-31.3 12.61-11.09 9.75-24.68 16.19-38.36 21.47z" fill="#fb9"/><path d="M358.47 354.04c14.9 37.54 22.87 77.41 30.76 117.02.89 4.48 1.78 9.09.9 13.57-1 5.03-4.14 9.34-7.29 13.39-37.53 48.14-88.24 84.02-138.47 118.7-18.73-22.39-33.38-48.18-43.01-75.73-1.21-3.46-2.35-7.05-2.07-10.7.51-6.57 5.46-11.84 10.33-16.26 28.42-25.81 64.56-43.01 102.52-48.77 2.32-.35 4.95-.85 6.18-2.84.9-1.45.78-3.29.62-5-3.29-36.19-7.75-72.27-13.38-108.18-5.55-35.43-57.89-58.37-56.11-104.51 13.44.96 40.04 12.29 47.73 18.53 9.22 7.48 17.36 16.63 24.71 25.91 15.48 19.53 27.4 41.76 36.58 64.88z" fill="#616572"/><path d="M311.98 448.42c1.08 2.81 2.19 5.63 3.83 8.15 1.85 2.84 4.31 5.21 6.67 7.64 10.79 11.12 19.76 24 26.44 37.98-4.65-14.99-12.21-29.06-22.14-41.21 6.55 2.59 13.1 5.17 19.65 7.76-5.93-6.15-13.39-10.82-21.51-13.47-2.2-.72-4.55-1.35-6.15-3.02-1.48-1.55-2.06-3.73-2.57-5.81-9.12-36.53-17.22-73.53-27.49-109.74-3.5 36.92 10.23 77.88 23.27 111.71z" fill="#535660"/><path d="M254.62 480.09c-14.71 8.97-28.29 18.93-41.09 30.46 19.29-15.63 42.71-24.55 65.41-34.6 14.37-6.36 28.71-11.34 43.62-16.09-4.05-4.73-5.58-6.61-11.63-4.65-6.6 2.14-13.11 4.72-19.57 7.24-12.66 4.95-25.12 10.54-36.74 17.63z" fill="#535660"/></g></g></g></svg>