<svg id="_Слой_2" xmlns="http://www.w3.org/2000/svg" width="1081.01" height="1047.04" viewBox="0 0 1081.01 1047.04"><g id="Hanukkah05_90758028"><g id="Hanukkah05_90758028-2"><path d="M950.21 866.94c-169.85 199.31-521.16 251.06-740.69 63.98C-10.01 743.84-50.28 430.61 119.57 231.3 289.42 31.99 635.18-87.7 897.46 144.85c219.53 187.08 222.6 522.78 52.75 722.09z" fill="#f9c33d"/><path d="M1035.65 545.49c31.04-245.65-207.72-469.04-430.46-521.69C359.04-34.4 181.12 133.71 96.41 349.31 49.65 468.32 13.89 610.3 64.53 733.8c55.49 135.32 216.25 251.85 354.06 286 240.58 59.61 521.59-113.29 604.98-339.89 14.43-39.21 37.85-99.3 26.64-141.8-2.29-8.68-33.97-14.69-35.26-4.08-7.65 63.1-11.5 116.59-38.57 175.51-29.75 64.76-79.8 118.19-135.06 161.99-95.64 75.81-219.89 115.59-341.45 109.66-155.14-7.57-288.28-118.87-375.5-239.47-84.2-116.43-39.67-278.84 10.67-399.91 46.8-112.56 116.71-213.96 233.61-260.44 93.25-37.08 195.81-25.62 288.63 6.04 196.05 66.88 338.91 248.35 372.98 450.22.17 1.03 4.68 13.4 5.38 7.87z" fill="#ffe49f"/><path d="M445.63 333.05c-45.79 66.06 19.27 179.33 100.91 170.05 34.46-3.92 60.51-19.41 83.88-44.63 25.73-27.77 18.34-62.59 22.44-96.6 1.93-16.03-39.77-3.06-41.12 12.97 1.19-14.19-1.62 19.36-.91 10.87-.73 8.75-.31 17.67-.31 26.43.0 10.75-1.94 20.47-5.7 30.48-19.68 52.43-70.86 36.41-99.89 13.45-37.21-29.42-25.67-79.41-48.99-114.59-.58-.87-8.32-11.27-10.3-8.43h0z" fill="#ffe49f"/><path d="M393.58 361.62c-81.34 113.75 39.2 210.39 149.86 214.31 51.74 1.83 125.93-8.57 163.26-48.96 45.92-49.68 28.63-104.2 28.49-166.49.0-3.89-.22-7.53-4.31-9.43-2.61-1.21-5.23-2.43-7.84-3.64-2.89-1.34-20.65-8.78-22.1-1.64-9 44.23.03 84.97-.71 129.49-1.05 63.04-110.24 62.46-151.18 61.12-44.97-1.47-89.09-18.83-119.4-52.56-27.8-30.94-16.06-66.74-19.97-103.89-.32-3.06-12.78-22.98-16.11-18.32h0z" fill="#ffe49f"/><path d="M328.95 352.58c-60.53 60.16-15.48 174.91 35.61 226.4 53.37 53.78 147.45 63.98 219 64.29 60.09.26 135.14-15.74 179.56-59.12 51.21-50 49.45-127.58 45.54-193.51-1.04-17.46-41.92-5.37-40.86 8.39 6.12 79.81 10.5 162.55-82.56 193.31-64.99 21.48-141.64 12.89-206.3-3.87-59.49-15.42-107.03-55.63-127.78-113.55-12.67-35.35-7.51-71.64-14.69-107.48-.21-1.05-5.24-17.14-7.52-14.87h0z" fill="#ffe49f"/><path d="M828.18 410.57c-16.02 45.22-15.33 93.06-29.27 139.09-19.69 65.01-76.86 93.76-138.04 106.31-62.78 12.88-131.09 4.11-193.58-6.48-140.75-23.87-239.36-117.55-188.78-267.33 6.41-18.98-37.23-7.6-40.43 11.14-13.65 80.07-25.73 152.61 34.33 216.87 58.29 62.37 161.03 76.53 241.2 84.02 88.66 8.28 177.57-1.53 252-53.11 66.28-45.94 110.14-148.89 71.59-222.17-.43-.81-7.49-12.66-9.03-8.33h0z" fill="#ffe49f"/><path d="M543.73 585.85c-13.45 58.01-9.72 119.17-5.47 178.22 4.29 59.69-16.63 82.39-61.63 118.73-14.18 11.45-21.36 43.9 6.12 31.64 45.6-20.35 96.74 3.61 143.21-16.38 10.91-4.69 33.13-26.62 19.45-39.17-21.13-19.39-45.64-33.5-64.87-54.97-12.13-13.54-44.72 19.77-35.34 33.35 11.97 17.32 23.52 29.85 39.33 43.62 8.73-12.7 17.46-25.4 26.19-38.1-37.26-2.36-65.61-1.39-99.22 14.19-10.05 4.66-25.19 21.9-5.71 24.5 28.4 3.78 57.4-.25 86.26 1.92 13.02.98 39.84-26.06 26.19-38.1-13.57-11.97-25.19-23.22-35.44-38.15-11.78 11.11-23.56 22.23-35.34 33.35 19.54 21.95 44.42 36.58 65.88 56.46 6.48-13.06 12.97-26.11 19.45-39.17-48.73 20.14-101.76-1.16-151.09 21.73 2.04 10.55 4.08 21.09 6.12 31.64 36.61-30.34 72.83-58.88 88.05-105.47 10.06-30.78 2.42-67.05.91-98.54-1.73-36.07 1.55-72.69-9.84-107.32-1.45-4.4-21.13-22.88-23.2-13.97h0z" fill="#ffe49f"/><path d="M565.44 825.37c30.49 17.39 62.36 55.31 73.2 88.72 11.05-9.01 22.1-18.01 33.16-27.02-42.78-5.2-86.57 2.75-129.49 3.37-20.39.29-40.76-4.12-60.97-2.23-11.86 1.11-45.67-9.28-35.51 8.38 1.73 3.01 3.97 5.77 6.46 8.19 1.44 1.44 3.03 2.7 4.75 3.79 4.48 1.38 3.72 4.44-2.27 9.17 15.05 12.23 45.94 8.32 63.68 8.15 43.23-.42 87.27-4.26 130.35-7.79 11.74-.96 34.09-12.5 28.84-27.32-17.12-48.37-83.11-56.47-119.33-84.66-9.17-7.14 1.17 15.84 7.14 19.25h0z" fill="#ffe49f"/><path d="M785.87 759.7c4.69-.24 9.33-.25 14.02-.03 9.71.46 17.88 16.64 22.21 21.79-1.84-4.63-3.67-9.26-5.51-13.89 2.63 16.13 3.36 17.7 6.06 5.81.36-1.58.79-3.37.49-5 5.56 8.58 8.66 10.34 9.3 5.3-.71-2.5-1.42-4.74-2.47-7.12-3.7-8.33-15.7-15.64-23.36-19.39-10.24-5.02-21.01-9.75-32.63-9.05-5.29.32 5.54 21.9 11.88 21.57h0z" fill="#1f3349"/><path d="M717.62 837.55c-8.96-7.11-7.98-7.8-4.53-2.01.86 1.43 1.38 2.86 1.92 4.42 3.7 10.74 6.2 14.69 13.38 27.05.1.11.19.23.29.34 4.03-1.47 14.89-1.15 16.75-6.81.78-2.38 1.02-4.38.81-6.88-.35-4.37-2.79-7.91-5.81-10.92-6.13-6.12-13.33-10.59-20.29-15.73-2.63-1.94-6.36-5.97-10.14-5.71-6.64.45 6.26 15.18 7.62 16.26h0z" fill="#1f3349"/><path d="M627.45 884.44c.23 5.56.34 11.08-.02 16.64-.77 11.84 6.03 19.94 9.39 31.3.1.35.57 2.74 1.46 2.61 3.97.62 7.05-.61 9.24-3.69 2.17-1.56 3.65-3.59 4.45-6.09 1.42-3.07 1.93-7.27 2.16-10.61.35-5.17-.54-10.56-1.15-15.69-.73-6.1-8.19-11.15-13-13.88-1.73-.98-12.77-6.42-12.53-.59h0z" fill="#1f3349"/><g><g><path d="M442.22 375.16c10.53-2.3 19.46.44 26.78 8.22-1.71-5.99-3.42-11.99-5.13-17.98-8.46 28.98-1.38 77.95 13.27 104.66 14.45 26.35 51.56 36.82 78.79 39.95 29.69 3.41 77.36-7.22 92.78-35.95 17.61-32.81 5.61-71.91 3.3-107.23-.47-7.21-26.71-20.82-28.36-13.38-6.16 27.69 2.87 54.01 2.24 81.91-1.16 51.32-86.44 79.36-119.6 39.35-13.68-16.51-21.46-138.19-59.93-111.85-1.49 1.02-5.12 12.27-4.12 12.3h0z" fill="#1f3349"/><path d="M456.67 359.57c-26.83 23.27-15.01 65.36 1.12 91.51 16.21 26.27 45.22 43.78 73.85 53.31 29.21 9.72 61.1 10.41 89.6-1.79 15.06-6.45 26.54-18.98 34.53-32.9 13.14-22.88 9.57-34.64-4.88-54.41-.33-.45-4.06-5.41-5.29-3.95-16.78 19.92-14.27 46.58-35.96 65.27-16.98 14.64-40.99 18.05-62.53 16.46-74.01-5.46-84.78-70.11-88.63-129.48-.03-.5-.32-5.32-1.81-4.02h0z" fill="#1f3349"/><path d="M400.9 360.7c-51.28 49.81-44.75 143.53 3.18 193.19 41.37 42.88 129.75 42.05 184.11 37.98 39.24-2.94 97.2-13.71 124.86-44.91 42.65-48.11 31.07-122.61 30.33-182.3-.15-11.97-36.25-15.23-36.44-4.56-.62 35.18.88 70.19-1.35 105.35-5.75 90.47-96.19 108.39-176.15 100.72-60.45-5.8-108.47-30.7-121.69-93.06-6.82-32.19 1.49-65.84-1.18-98.34-.12-1.47-2.71-16.94-5.65-14.08h0z" fill="#1f3349"/><path d="M799.81 392.81c-1.55-5.11-3.09-10.22-4.64-15.33-.85-2.8-2.06.27-2.33 1.39-13.16 55.58-4.6 107.12-34.62 158.88-35.24 60.76-105.23 69.97-168.84 77.47-94.13 11.11-201.65 1.55-240.61-97.81-19.95-50.87 3.02-106.07-10.46-157.87-3.64-13.97-43.9-3.84-40.32 10.03 17.61 68.39-11.28 127.66 30.03 192.47 37.68 59.11 132.65 70.51 195.72 73.17 66.78 2.81 141.43-4.03 203.73-28.89 77.36-30.87 79.08-136.93 66.83-206.8-.21-1.19 6.2-4.49 5.53-6.71h0z" fill="#1f3349"/><path d="M248.47 373.51c3.33 3.11-13.11 84.48-15.56 101.51-5.95 41.4 7.55 81.59 27.69 117.34 33.93 60.21 119.38 78.74 182.16 83.99 112.79 9.44 204.18 34.74 312.72-13.42 99.18-44.01 112.62-154.08 91.6-248.62-2.07-9.31-33.53-17.73-31.92-7.62 13.07 82.1 11.22 161.85-53.87 221.5-82.13 75.26-207.53 47.76-304.83 33.83-78.51-11.24-144.59-19.51-180.48-100.14-12.69-28.5-14.32-57.43-10.81-87.84 5.53-47.99 9.01-79.65-19.34-119.18-2.29-3.2-1.69 14.59 2.66 18.66h0z" fill="#1f3349"/><path d="M255.52 297.84c-3.94-14.39-6.5-18.19-7.67-11.39-.55 2.3-1.25 4.47-1.64 6.81-.69 4.22-1.69 8.39-2.71 12.55-1.6 6.53 20.03 22.77 22.29 17.68 1.32-2.97 2.14-4.23 4.43-6.9 1.45-1.69 1.86-6.47 2.44-8.62 1.49-5.5 2.98-10.99 4.76-16.4-10.01-4.45-20.02-8.9-30.03-13.35-1.73 5.45-3.01 10.88-3.24 16.6-.09 2.28-.14 4.56-.14 6.84-.01 7.65 13.65 20.95 15.15 23.03.26.65.71 1.04 1.37 1.15 7.01-3.58 13.3-4.24 13.87-12.17.2-2.8.51-5.58.86-8.37.58-4.63 1.07-9.2 2.17-13.75 2.38-9.87-28.07-21.14-30.03-13.35-1.41 5.6-2.43 11.28-3.47 16.96-.4 2.15-1.7 5.3-1.45 7.47.44 3.84 4.83 6.95 7.33 9.39-1.89-3.09-3.79-6.19-5.68-9.28-.13 1.03-.33 2.04-.61 3.04 7.59 5.45 15.18 10.89 22.77 16.34.15-4.61.88-10.47-.33-14.97-2.5-9.3-7.04-16.63-10.36-25.77-1.89-5.21-3.32-.55-3.33 2.43-.02 3.4.08 11.67 3.26 14h0z" fill="#1f3349"/><path d="M327.22 285.35c.21 10.82.19 21.64 1.25 32.41.43 4.33 2.33 21.17 3.48 21.47 1.38.35 2.85-6.01 3.03-6.71.3-1.19.54-2.38.72-3.59.05-.49.11-.98.16-1.47.03-4.28.43-1.57 1.21 8.12 1.01-4.44-.72-10.06-1.37-14.46-2.28-15.53-5.48-30.33-3.6-46.13.32-2.72-1.99 1.3-2.19 1.73-1.16 2.46-2.75 5.83-2.69 8.63h0z" fill="#1f3349"/><path d="M384.8 286.06c.68-5.96.55-7.49-.39-4.61-.43 1.57-.84 3.14-1.23 4.72-.61 2.4-1.56 4.99-1.61 7.48-.16 7.15 1.06 14.22 3.38 20.98 1.69 4.93 5.47 9.62 9.32 13.03 2.26 2 7.64 5.75 7.44.21-.38-10.88.47-21.61 3.89-32-7.01-5.76-14.01-11.53-21.02-17.29.2 7.05-.05 14.07-.48 21.11-.22 3.63-.67 7.2-.52 10.84.26 6.66 7.01 13.58 10.31 18.11-1.94-3.62-3.87-7.24-5.81-10.86 1.82 5.24 3.64 10.48 5.45 15.72.03.55.27.95.72 1.2.78.08 1.29-1.92 1.4-2.28.57-1.85.87-3.81 1.06-5.73-.22-5.51 2.81-4.14 9.1 4.11.61-1.45 1.08-2.94 1.41-4.48 1.32-4.63.09-10.9-.16-15.65-.29-5.56-.93-11.09-1.67-16.6-.65-4.81-19.09-22.9-20.81-15.49-2.61 11.2-1.79 22.59-.23 33.89 5.21 3.58 10.42 7.16 15.63 10.73-7.37-13.54-12.5-32.18-10.57-47.54.47-3.73-1.31-1.08-2.12.74-1.24 2.79-2.82 6.51-2.49 9.64h0z" fill="#1f3349"/><path d="M328.27 276.93c-7.69 11.12-11.05 23.83-10.71 37.34.11 4.51 4.78 9.89 7.62 12.96.87.93 8.83 8.77 9.73 4.12 2.74-14.18 3.15-29.1 9.74-42.21-7.07-6.07-14.14-12.14-21.2-18.22 1.28 15.65 1.5 31.12-2.05 46.5-1.78 7.71 22.77 23.01 24.16 15.46-2.26 2.33-2.4 2.81-.45 1.42 1.05-1.34 1-4.51 1.25-6.1.73-4.61.93-9.3.99-13.96.14-9.45-1.15-18.88-2.44-28.21-.55-4-18.37-22.11-20.95-16.39-6.17 13.62-5.08 28.41-6.43 42.97 5.78 5.69 11.57 11.39 17.35 17.08-1.55-12.6-2.88-26.29-2.33-38.96.06-1.39-2.56-16.3-4.29-13.79h0z" fill="#1f3349"/><path d="M443.06 301.21c4.83 1.3 7.54 4.61 10.56 8.47-.6-1.41-1.2-2.82-1.79-4.23.25 1.19.51 2.37.76 3.56-.26-3-.51-6.01-.77-9.01-.66 6.17-2.2 12.23-3.89 18.19-1.39 4.92 9.54 23.85 11.73 19.74 6.28-11.76 8.79-25.47 11.57-38.4-5.7-6.27-11.4-12.55-17.11-18.82-1.05 9.47-2.58 18.86-2.8 28.4-.1 4.25-.43 9.57 1.65 13.42 2.55 4.69 10.52 22.02 12.34 16.47 1.27-3.85.84-8.67.14-12.58-1.7-9.47 7.79 16.98 8.34 8.77.13-1.9-.91-4.22-1.33-6.05-2.28-10.01-1.13-21.06-1.26-31.26-.06-4.48-4.69-9.9-7.47-12.96-.6-.67-9.19-8.9-9.62-4.21-1.17 12.76-2.96 25.07-6.19 37.48 3.98 6.1 7.96 12.21 11.93 18.31.35-10.86-.77-21.28-2.8-31.94-1.12-5.88-1.77-16.25-9.53-15.77-2.18.14-5.62 12.12-4.47 12.43h0z" fill="#1f3349"/><path d="M637.55 311.75c2.34-3.03 7.08-4.16 10.34-5.99-4.26-6.82-8.52-13.64-12.77-20.46-2.29 10.23-5.1 20.21-7.68 30.37 6.5 5.39 13 10.78 19.5 16.17-2.29-11.58.17-22.89 8.29-31.59-7.66-5.77-15.31-11.54-22.97-17.31-.14 5.39-.3 10.77-.62 16.15-.19 3.21-.5 6.4-.85 9.59-.55 5.04 3.29 8.91 5.93 12.69 1.18 1.68 11.29 14.01 14.38 10.22q-1.6.53.0.0c1.69-1.26 2.77-2.85 3.24-4.79.74-3.25.91-6.44 1.09-9.76.33-6.05.28-12.12.26-18.17-.01-4.66-5.24-9.25-8.44-11.91-2.31-1.92-11.2-9.06-14.53-5.4-10.42 11.45-9.77 24.35-4.38 38.08 1.95 4.98 6.49 9.62 10.7 12.76 1.06.79 7.74 5.28 8.03 1.21.77-10.76 2.95-21.46 1.27-32.23-.83-5.33-4.77-11.4-8.59-15.07-3.18-3.05-5.6-1.87-4.46 2.54 1.35 5.24.77 9.52.42 14.58-.04.55.5 10.07 1.84 8.34h0z" fill="#1f3349"/><path d="M714.9 307.39c.98 4.63 3.83 11.07 3.08 15.76-.72 4.51.26 9.5 1.74 13.76.57 1.64 2.69 6.85 4.02 2.92 1.62-4.76 1.66-10.35 2.33-15.34.85-6.37 1.41-12.74 1.39-19.17-1.96-.63-3.93-1.27-5.89-1.9-1.75-4.38-2.52-4.96-2.3-1.76-.17 1.76-.7 3.47-1.2 5.16-1.21 4.07-3.55 7.66-6.04 11.04-4.7 6.38 15 25.36 17.98 19.46-.59.5-1.18 1-1.77 1.5 1.01-.01 1.6-.51 1.77-1.5 8.11-16.05 1.11-33.04-8.22-47.04-2.25-3.38-6.64-6.41-5.72.04 1.85 12.96.24 26.05 1.95 38.99 1.91 1.46 3.81 2.92 5.72 4.38-1.23-13.4-3.6-26.58-5.5-39.89-.49-3.41-2.36 1.95-2.52 2.6-.83 3.39-1.53 7.52-.8 11h0z" fill="#1f3349"/><path d="M794.67 340.6c5.11 11.16 2.84 11.67 6.81 5.84 1.65-2.42 2.55-5.56 4.08-8.12 2.42-4.05 5.05-7.39 8.78-10.3-8.81-5.01-17.62-10.01-26.43-15.02-1.63 8.09-2.87 17-6.51 24.49 9.5 3.47 19 6.93 28.51 10.4-2.65-4.49.34-.92-2.3-.55 7.35-1.02 1.25-8.12-1.63-10.36-4.92-3.83-14.58-9.2-21.19-7.37 13.78-1.83 17.09-2.72 9.94-2.67-1.14-.02-2.27.08-3.39.3-2.93.35-7.7 1.93-10.41 3.58-5.41 3.31.41 9.65 2.79 12.72 2.81 3.64 23.48 16.17 26.79 8.15 3.19-7.72 3.35-17.04 4.19-25.26.46-4.5-7.32-9.63-10.32-11.54-3.99-2.54-11.62-7.06-16.11-3.47-3.51 2.8-5.96 5.9-6.93 10.34-.51 2.35.33 5.23.91 7.47.48 1.69 1.21 3.27 2.18 4.74 3.75 6.48 6.48 13.41 7.8 20.8.84 4.69 2.43 1.02 2.88-1.58.67-3.83 1.25-8.92-.43-12.58h0z" fill="#1f3349"/><path d="M853.8 363.97c3.71 9.37 4.86-3.4 5.6-6.3.91-3.55 1.93-6.96 2.2-10.63.58-7.76-25.63-20.73-26.94-14.62-1.62 7.61-3.21 15.68-3.36 23.47-.15 8.14 28.35 19.43 29.51 12.26-1.36 1.68-2.72 3.37-4.09 5.05 1.98-1.06 3.34-2.75 4.09-5.05.84-1.26.58-4.85.59-6.34.02-4.94-.13-9.84.19-14.78-9.09-4.34-18.18-8.67-27.27-13.01.41 4.75 2.76 8.49 4.9 12.72 5.03 9.91 9.91 20.11 11.26 31.31.4 3.34 2.32-1.86 2.49-2.49.88-3.27 2.13-8.28.82-11.6h0z" fill="#1f3349"/><path d="M549.16 231.69c1.37 6.88 1.85 15.66-2.3 21.71 4.09 6.57 8.17 13.14 12.26 19.71 5.86-7.89 3.83-17.29 3.97-26.64.16-10.74 1.52-21.4 7.29-30.66-6.79-3.39-13.58-6.77-20.37-10.16 8.44 10.17 4.08 25.17-1.76 35.37 8.74 5.06 17.48 10.12 26.22 15.18-.03-7.18.69-14.32.66-21.5-.04-8.78-27.45-21.08-27.42-12.87.02 4.09-.17 8.15-.41 12.23-.38 6.34 3.34 8.65 7.69 13.38 1.6 1.73 14.42 13.03 17.19 8.22 3.88-6.74 3.29-13.29 2.95-20.96-.39-8.9-27.77-20.78-27.42-12.87.31 6.92-.13 13.84.18 20.76.28 6.3 22.2 22.59 26.22 15.18 9.55-17.62 6.82-35.41-6.71-50.06-1.96-2.12-17-16.08-20.37-10.16-4.69 8.23-6.03 17.22-6.18 26.59-.09 5.63.44 11.28.91 16.88.83 10 3.27 13.91 8.15 23.83 2.61 5.3 12.32 14.53 8.53 2.41-1.87-5.96-2.07-11.97-2.67-18.14-.94-9.84-2.33-19.74-2.22-29.64.03-2.96-2.11 1.47-2.32 1.99-1.14 2.9-2.71 7.04-2.08 10.23h0z" fill="#1f3349"/><path d="M548.24 314.6c-33.01 73.29-9.75 172.73-2.36 250.3 8.72 91.55-1.99 183.48 8.26 274.96 1.55 13.87 31.9-1.87 30.51-14.29-9.34-83.36 1.28-167-6.58-250.32-7.6-80.53-2.15-174.54-23.8-251.91-.2-.72-4.72-11.66-6.03-8.73h0z" fill="#1f3349"/><path d="M552.12 797.96c-39.13 48.98-86.77 77.7-138.8 111.56-11.93 7.76 12.81 12.98 16.52 13.19 10.32.59 84.32 18.64 93.21 8.17 1.71-2.02 2.43-17.57-.93-17.7-27.94-1.06-55.19 1.65-82.57-6.74 2.28 3.99 4.56 7.98 6.85 11.97 27.98-17.91 57.01-34.08 84.15-53.29 14.79-10.46 44.09-29.01 36.53-50.78-.71-2.05-11.49-20.71-14.95-16.38h0z" fill="#1f3349"/><path d="M597.35 921.14c9.03 1.39 17.79 2.21 26.92 2.65 1.45.07 4.15-4.4 4.89-4.2-8.76-2.35-17.28-4.17-26.24-5.55-2.03-.31-4.87 7.21-5.56 7.1h0z" fill="#1f3349"/><path d="M576.99 830.23c17.59 28.27 51.02 43.75 71.35 70.16-.16-2.3-.32-4.61-.48-6.91-58.23 23.16-122.21-5.29-180.62 17.58-12.61 4.94 11.9 14.95 15.7 15.6 34.78 6.02 68.09 2.46 102.9-1.58 13.77-1.6 27.56-3.07 41.35-4.53 11.59-1.22 32.03 4.36 40.01-4.29.76-.82 5.8-9.19 4.5-9.83-58.3-28.51-131.48 15.29-193.62 4.45 5.23 5.2 10.46 10.4 15.7 15.6 57.27-22.65 120.48 8.85 178.14-14.71 3.33-1.36.68-5.14-.48-6.91-17.73-27.2-44.77-45.37-69.59-65.53-7.55-6.12-25.71-37.03-27.14-24.11-.49 4.48-.17 11.06 2.29 15.01h0z" fill="#1f3349"/><path d="M972.98 428.35c-45.63-205.48-241.63-343.56-448.64-340.52C251.3 91.85 51.27 342.2 87.99 607.24c32.22 232.57 262.53 412.51 494.63 379.83 109.1-15.36 237.96-62.15 310.8-148.94 85.9-102.34 131.86-268.39 91.59-398.76-2.16-6.98-29.32-21.64-29.21-11.07 1.13 103.1 1.85 200.8-33.61 298.89-45.08 124.7-155.63 191.37-277.63 225.56-200.42 56.18-397.65-68.41-485.48-248.66-89.07-182.79-11.47-426.77 156.52-532.86 240.13-151.65 601.56-22.72 652.24 268.09-.15-.85 5.89-7.57 5.14-10.98z" fill="#1f3349"/></g><path d="M658.64 1032.47c162.23 1.82 320.31-139.78 382.91-281.79 59.01-133.87 46.92-291.71-3.9-425.6C935.61 56.22 629.01-65.4 363.37 34.93 106.71 131.86-48.7 402.95 13.82 673.12c68.62 296.55 384.25 399.78 654.85 365.5 5.59-.71-7.59-22.78-14.56-21.4-308.96 61.12-612.04-120.33-621.44-448.83C25.67 323.82 197.88 104.96 428.66 36.77c158.59-46.87 332.81-9.62 453.19 103.73 95.22 89.66 144.12 218.97 160.69 346.09 14.8 113.6-7.49 227.62-68.1 324.76-31.09 49.83-75.84 91.19-121.99 126.8-57.34 44.24-125.94 53.46-188.6 85.28-1.56.79-5.09 9.04-5.22 9.04z" fill="#1f3349"/><path d="M917.21 167.13c-8.33 10.72-17.63 20.85-26.9 30.77-10.77 11.53-23 20.05-31.71 33.31-.17.26-2.39 4.52-2.26 4.5 14.28-1.91 25.8-18.2 34.97-28.4 9.24-10.28 16.49-21.87 23.78-33.57.63-1.01 5.04-10.36 2.13-6.61h0z" fill="#1f3349"/><path d="M972.29 262.23c-14.51 19.03-34.59 32.98-48.16 52.57-.4.57-3.29 6-2.7 5.79 20.66-7.12 36.76-31.53 47.99-49.12 1.02-1.6 4.05-10.78 2.88-9.24h0z" fill="#1f3349"/><path d="M1020.34 399.72c-10.48 4.52-20.16 10.43-29.94 16.29-12.2 7.32-22.39 11.59-29.33 24.38-.23.42-3.34 7.02-2.46 7.18 22.45 4.12 45.36-19.46 65.11-28.17 4.3-1.9-1.32-20.57-3.38-19.68h0z" fill="#1f3349"/><path d="M1051.93 524.5c-13 .77-25.87 2.23-38.69 4.53-7.05 1.26-14.01 3-20.92 4.9-11.77 3.24-12.5 4.72-18.98 15.79-.04.07-1.3 2.22-.92 2.36 11.2 4.2 26.9-4.63 38.55-7.36 12.38-2.9 25.04-4.58 37.69-5.77 3.11-.29 4.01-14.5 3.27-14.45h0z" fill="#1f3349"/><path d="M1000.38 638.4c3.26 7.59 7.61 13.81 14.2 18.83 5.84 4.45 11.42 4.17 18.15 2.33.88-.24 5.2-5.14 5.09-5.2-12.88-6.92-25.75-12.91-32.32-26.84.51 1.09-6.35 8.01-5.12 10.88h0z" fill="#1f3349"/><path d="M955.44 726.81c10.72 12.2 28.13 33.91 45.02 36.58 1.17.19 6.26-7.15 5.58-7.89-14.68-15.96-33.33-27.48-47.83-43.99-.52-.59-5.36 12.35-2.76 15.31h0z" fill="#1f3349"/><path d="M926.69 825.52c8.84 4.09 16.51 11.13 18.82 20.97.79 3.35 2.35-1.86 2.54-2.67.63-2.75 2.25-9.47.31-12.03-7.95-10.54-18.22-21.34-30.57-26.73-4.97-2.17-2.94 4.37-1.91 6.75 2.04 4.69 5.91 11.45 10.81 13.71h0z" fill="#1f3349"/><path d="M816.09 869.51c11.48 10.47 20.25 25.64 29.94 37.82 4.5 5.66 21.53 28.81 18.11 12.6-.92-4.38-2.68-8.95-5.34-12.58-2.02-2.25-1.57-1.94 1.36.92-2.91-3.38-5.74-6.82-8.58-10.26-12.64-15.28-26.3-30.13-37.92-46.16-2.32-3.2-4.3-2.67-3.98 1.42.41 5.09 2.5 12.66 6.42 16.24h0z" fill="#1f3349"/><path d="M428.83 948.81c-12.06 6.68-21.96 15.11-30.78 25.72-4.3 5.17-8.38 10.74-11.51 16.68-4.61 8.76-1.18 18.71-1.16 28.37.0.05-.01 2.53.63 2.41 23.56-4.21 37.33-33.87 48.46-53.39 1.62-2.85-2.63-21.46-5.65-19.79h0z" fill="#1f3349"/><path d="M289.56 902.43c-12.48 13.21-26.92 22.92-42.97 31.29-4.39 2.29 4.81 22.96 8.79 21.15 13.05-5.92 29.85-19.69 41.03-33.06 3.14-3.76-4.51-21.84-6.84-19.38h0z" fill="#1f3349"/><path d="M183.05 817.41c-13.71 5.64-27.42 11.28-41.12 16.93-6.74 2.77-13.48 5.53-20.19 8.38-9.88 4.2-7.53 7.07-8.56 18.59-.05.61-.56 5.99.79 6.06 16.65.87 30-6.09 45.15-12.39 13.38-5.57 26.77-11.14 40.15-16.71 3.97-1.65-9.33-23.68-16.22-20.85h0z" fill="#1f3349"/><path d="M117.65 751.34c-15.29-6.08-37.06-1.71-48.15 10.37-2.76 3.01 4.73 21.99 7.85 20.27q-1.16-.15.0.0c2.46-1.35 4.91-2.67 7.42-3.92 4.03-2 7.89-4.04 12.16-5.53 6.83-2.4 16.13-4.01 23.2-1.73 3.01.97 1.7-17.79-2.48-19.45h0z" fill="#1f3349"/><path d="M79.14 625.01c-12.9-2.45-25.71-3.33-38.79-1.99-6.09.62-12.09 1.96-17.98 3.57-8.82 2.41-10.4 5.03-12.82 13.64-.22.79-2.63 8.88-1.03 9.2 13.26 2.64 27.54-4.54 40.96-6.07 11.59-1.32 23.31-.15 34.72 1.97 1.32.24.62-19.24-5.05-20.32h0z" fill="#1f3349"/><path d="M40.61 522.06c6.07-2.56 12.13-5.08 18.69-6.04 4.94-.73 8.68.91 13.37 1.24 1.8.13 6.04-10.24 4.83-11.6-5.55-6.23-12.54-10.13-21.1-9.95-7.19.15-14.29 3.38-20.84 6.03-4.34 1.75 2.25 21.5 5.05 20.32h0z" fill="#1f3349"/><path d="M45.07 408.22c15.12-10.42 42.33-8.84 56.82 1.79 1.24.91 4.01-15.76-.2-18.07-14.72-8.08-49.41-21.84-61.13-3.15-1.87 2.99 2.53 20.79 4.51 19.43h0z" fill="#1f3349"/><path d="M79.05 295.22c3.99-4.02 13.8.18 18.01 1.71 7.22 2.63 13.77 6.77 20.74 9.92.51.39.94.31 1.29-.24.31-.49.61-.98.91-1.47 1.03-1.65 5.18-11.45 2.94-12.89-9.66-6.2-20.29-10.95-30.84-15.57-7.01-3.07-12.9-5.27-13.97 3.89.36-1.4.72-2.8 1.07-4.2-.71 1.46-1.14 2.72-1.56 4.27-.47 1.74-.2 16.2 1.42 14.58h0z" fill="#1f3349"/><path d="M155.49 175.13c9.76 6.77 18.7 14.26 27.23 22.54 5.86 5.69 11.3 16.55 18.82 19.68 1.07.45 6.24-8.3 5.41-9.52-13.33-19.67-32.58-37.53-52.06-51.05-1.41-.98-3.29 15.65.6 18.35h0z" fill="#1f3349"/><path d="M285.06 94.64l-.16-.49c.69 3.98 1.38 7.97 2.07 11.95-.5 2.62-.94 1.33 1.67 3.66 2.7 2.4 5.22 4.89 7.54 7.67 6.45 7.75 10.37 15.77 15.22 24.5.06.11.12.21.19.32.04.0.08-.02.11-.03 1.97-.48 6.02-8.03 5.33-9.93-3.03-8.35-9.52-13.5-14.84-20.31-4.79-6.14-9.81-12.08-14.67-18.16-.26-.32-5.85-7.96-7.25-6.86-3.28 2.57.23 11.69 1.2 14.53.2.59 3.68 9.19 5.21 6.27 1.86-3.53-.53-9.73-1.62-13.11h0z" fill="#1f3349"/><path d="M388.25 55.74c13.68 16.06 26.87 37.63 30.81 58.65-.18-.97 6.8-9.47 4.3-12.99-13.9-19.57-19.12-43.94-34.45-63.08-.19-.24-3.9 13.6-.66 17.41h0z" fill="#1f3349"/><path d="M530.43 39.41c2.07 5.39.46 13.62.11 19.3-.47 7.64-1.65 15.26-2.9 22.8-1.41 8.54-2.89 36.35 3.49 17.48 2.54-7.52.88 6.82 2.95 4.13 1.33-1.73 1.26-6.1 1.54-8.15 1.02-7.56 1.58-15.19 1.97-22.8.8-15.3-.36-31.84-5.37-46.43-1.09-3.18-2.65-3.07-3.09.3-.55 4.21-.24 9.38 1.3 13.38h0z" fill="#1f3349"/><path d="M674.35 47.1c-.85-2.25-.38 5.38-.39 6.8-.01 4.1-.14 8.2-.28 12.29-.31 9.42-.98 18.82-1.93 28.2-1.05 10.35-3.72 25.3-1.22 34.67.29 1.1 3.66-6.87 3.88-7.72.28-2.91 1.1-2.25 2.47 1.98.56-1.9 1.1-3.8 1.62-5.71.96-3.46.7-7.68.92-11.25.55-8.9.86-17.81.96-26.73.18-15.37.28-32.17-3.49-47.16-.9-3.56-2.46 2.17-2.59 2.94-.6 3.46-1.24 8.3.05 11.7h0z" fill="#1f3349"/><path d="M776.86 71.35c.98 15.91-.92 31.54-3.48 47.21-.7 4.29-8.29 46.1-.66 31.6.77-1.47 2.73-4.49 2.52-6.25 1.45 12 3.73-2.87 4-4.25.83-4.22 1.57-8.46 2.3-12.7 2.39-13.92 3.69-28.03 3.04-42.15-.23-4.93-1.52-10.19-3.99-14.49-1.83-3.19-3.97-2.91-3.73 1.03h0z" fill="#1f3349"/><path d="M859.69 139.2c-5.87 6.61-12.1 12.89-17.95 19.52-3.23 3.65-6.15 7.52-8.95 11.49-6.31 8.92-6.08 16.21-7.2 27.35-.29 2.9 2.45-1.55 2.2-1.73 5.16 3.57 15.66-15.01 18.5-18.35 5.72-6.74 12.09-12.91 17.95-19.52 3.29-3.71-3.08-20.39-4.53-18.76h0z" fill="#1f3349"/><path d="M906.43 190.82c-24.24 9.84-36.28 26.84-47.04 49.92-.05.11-.91 1.74-.16 1.47 8.73-3.17 13.98-13.74 20-20.46 6.69-7.46 15.05-12.82 24.05-17.05 3.22-1.51 2.46-13.61 3.15-13.89h0z" fill="#1f3349"/><path d="M530.82 96.84c142.31-12.79 261.73 44.89 344.38 161.79 29 41.01 49.91 87.43 66.71 134.55 18.05 50.62 15.34 104.93 36.82 153.3.28.63 2 3.82 3.02 2.04 26.93-46.67-8.7-129.42-27.05-176.17-21.49-54.75-55.25-107.74-94.36-151.56-82.18-92.09-196.42-168.78-324.55-135.12-2.72.71-4.58 11.15-4.98 11.18h0z" fill="#1f3349"/></g></g></g></svg>