<svg id="_Слой_2" xmlns="http://www.w3.org/2000/svg" width="1080" height="883.37" viewBox="0 0 1080 883.37"><g id="Religion_christianity07_506582340"><g id="Religion_christianity07_506582340-2"><g><path d="M12.14 704.27c-7.99-32.1 11.59-60.98 55.14-81.3 24.75-11.55 56.45-16.12 92.59-16.12 34.07.0 72.11 4.08 111.95 10.21l3.38-10.01c-84.53-13.1-161.6-17.19-212.33 6.47-47.85 22.34-70.03 56.33-60.84 93.26 10.23 41.09 57.29 80.27 129.13 107.49 15.2 5.76 33.45 11.7 54.79 17.17-2.77-3.72-4.71-7.98-5.68-12.52-96.34-26.02-156.91-69.52-168.14-114.66z" fill="#6f657f"/><path d="M755.61 644.76c29.65-25.3 43.2-52.79 40.24-81.74-7.79-76.28-125.7-155.58-313.42-258.81-17.51-9.63-31.87-19.31-43.16-29.01-4.27-3.66-8.13-7.34-11.5-11-.56-.61-1.07-1.22-1.61-1.83-.69-.38-.93-.41-1.18-.41-1.91.0-3.97 1.91-4.7 4.5-.74 2.64.13 5.31 1.81 6.24 2.17 3.03 4.81 5.61 7.68 8.17 4.55 2.32 8.21 5.45 11.06 9.05 10.3 7.84 22.45 15.63 36.59 23.42 151.44 83.27 299.96 171.22 308.08 250.74 2.62 25.7-9.37 49.5-36.65 72.77-59.69 50.9-203.77 22.15-343.13-5.65-20.84-4.17-41.8-8.34-62.62-12.3l-3.42 9.94c21.26 4.03 42.69 8.31 64.01 12.56 148.3 29.59 288.39 57.55 351.92 3.36z" fill="#6f657f"/><path d="M234.59 508.1c-7.2 13.44-23.26 20.17-38.18 15.24 3.67 4.56 8.55 8.19 14.44 10.18 14.97 5.06 25.06 2.41 32.29-11.09l54 19.69 3.91-11.57-66.45-22.44z" fill="#a3a3c6"/><path d="M449.71 614.17c12.71 4.3 26.5-.02 34.74-9.95 14.83 1.98 29.52-6.75 34.47-21.44 4.97-14.7-1.42-30.55-14.42-37.96-.53-12.88-6.47-33.92-36.23-39.2 12.72 4.3 21.07 16.09 21.6 28.97 12.99 7.41 19.38 23.26 14.42 37.96-4.96 14.7-19.65 23.42-34.47 21.43-8.23 9.94-22.02 14.26-34.74 9.96-1.88-.63-3.65-1.43-5.33-2.36 3.98 5.74 11.17 9.62 19.96 12.59z" fill="#a3a3c6"/><path d="M250.74 460.28l14.82 5.01c-.83-15.8-14.17-39.44-36.14-40.34 14.98 5.06 23.76 20.21 21.32 35.33z" fill="#a3a3c6"/><path d="M227.01 424.35c.8.2 1.61.33 2.4.61-.86-.29-1.66-.48-2.4-.61z" fill="#a3a3c6"/><path d="M295.53 839.29c1.57-12.98-5-25.78-16.6-31.99l.49-1.45 33.17-98.23 27.09-78.78 3.42-9.94 18.74-54.48 52.7 17.79c-1.22-4.35-1.53-8.97-.79-13.6l-64.91-21.91-50.89 150.69-33.17 98.23-.49 1.46c13.5 7.22 20.23 23.39 15.17 38.37-4.29 12.72-16.09 21.07-28.97 21.59-7.41 12.99-23.23 19.37-37.93 14.43 3.69 4.58 8.64 8.21 14.6 10.22 14.7 4.96 30.54-1.43 37.96-14.43 11.47-.47 22.05-7.16 27.26-17.59.64-1.29 1.24-2.6 1.71-4 .72-2.12 1.17-4.26 1.43-6.39z" fill="#a3a3c6"/><path d="M434.8 311.27c9.92 8.23 14.24 22.02 9.95 34.73-5.06 14.98-20.22 23.76-35.33 21.32l-44.43 131.55 16.23 5.48 42.82-126.8c15.12 2.44 30.27-6.34 35.33-21.32 4.29-12.72-.02-26.51-9.95-34.75 1.15-8.56-.82-21.72-8.6-31.57-2.85-3.6-6.5-6.73-11.06-9.05-2.87-2.56-5.51-5.13-7.98-7.71-1.38-1.4-2.25-4.06-1.5-6.7.73-2.59 2.8-4.5 4.7-4.5.24.0.49.03.72.1 1.15.68 1.69 1.31 2.06 2.14 3.37 3.66 7.23 7.34 11.5 11 .45-.97.84-2 1.14-3.07 2.6-9.25-1.72-18.6-9.67-21.8-.52-.21-1-.47-1.55-.63-3.96-1.12-8.01-.5-11.57 1.31-3.16 1.6-5.88 4.18-7.76 7.48-.79 1.39-1.49 2.86-1.95 4.49-1.24 4.4-.9 8.84.64 12.62 1.61.27 3.21.65 4.8 1.19 14.69 4.96 23.42 19.65 21.44 34.48z" fill="#a3a3c6"/><path d="M250.5 857.04c12.89-.53 24.68-8.87 28.97-21.59 5.06-14.98-1.67-31.15-15.17-38.37l.49-1.46 33.17-98.23 50.89-150.69 64.91 21.91c-.74 4.63-.43 9.26.79 13.6 2.25 8.07 7.62 15.15 15.2 19.37 1.67.93 3.45 1.72 5.33 2.36 12.72 4.3 26.51-.02 34.74-9.96 14.83 1.99 29.52-6.73 34.47-21.43 4.97-14.69-1.43-30.54-14.42-37.96-.53-12.89-8.88-24.68-21.6-28.97-14.97-5.06-31.14 1.68-38.37 15.17l-48.68-16.44-16.23-5.48 44.43-131.55c15.11 2.43 30.27-6.34 35.33-21.32 4.29-12.71-.03-26.5-9.95-34.73 1.98-14.83-6.75-29.52-21.44-34.48-1.59-.54-3.19-.92-4.8-1.19-13.23-2.3-26.54 4.02-33.16 15.61-12.88.53-24.67 8.88-28.97 21.6-5.06 14.98 1.67 31.14 15.17 38.37l-44.43 131.54-51.62-17.42-14.82-5.01c2.43-15.12-6.34-30.27-21.32-35.33-.79-.27-1.6-.4-2.4-.61-12.03-3.03-24.62 1.24-32.34 10.55-14.83-1.98-29.52 6.75-34.47 21.45-4.97 14.69 1.42 30.54 14.42 37.95.53 12.89 8.88 24.68 21.59 28.98 15.12 4.99 31.18-1.74 38.38-15.18l66.45 22.44-3.91 11.57-21.93 64.94-3.38 10.01-21.67 64.18-33.17 98.23-.49 1.45c-15.12-2.43-30.27 6.34-35.33 21.32-1.87 5.55-2.02 11.28-.87 16.68.97 4.53 2.91 8.8 5.68 12.52 1.5 2.01 3.18 3.91 5.14 5.53-1.98 14.83 6.75 29.52 21.44 34.47 14.72 4.95 30.55-1.43 37.95-14.42zm-34.68 4.72c-11.36-3.83-17.46-16.15-13.62-27.51.22-.66.57-1.24.85-1.87-10.4-4.37-15.87-16.01-12.2-26.87 3.83-11.36 16.15-17.46 27.5-13.62 1.63.55 3.1 1.3 4.49 2.16l37-109.56L314 524.1l-86.02-29.04c-.16 1.63-.45 3.26-1 4.88-3.83 11.36-16.15 17.46-27.5 13.62-10.86-3.67-16.8-15.07-13.97-25.99-.67-.16-1.34-.23-2-.46-11.36-3.84-17.46-16.15-13.62-27.5 3.83-11.36 16.15-17.46 27.51-13.62.67.23 1.24.56 1.87.86 4.37-10.4 16.01-15.87 26.87-12.2 11.36 3.83 17.45 16.15 13.62 27.5-.55 1.61-1.31 3.1-2.17 4.49l86.02 29.04 51.03-151.11c-1.63-.16-3.26-.44-4.88-.99-11.36-3.84-17.46-16.15-13.62-27.51 3.66-10.85 15.08-16.8 26-13.97.15-.67.23-1.34.46-2 3.83-11.36 16.15-17.46 27.51-13.62 11.36 3.84 17.46 16.16 13.62 27.51-.22.67-.57 1.25-.85 1.88 10.4 4.36 15.87 16 12.2 26.87-3.84 11.36-16.16 17.45-27.51 13.62-1.61-.55-3.1-1.31-4.49-2.16l-51.03 151.1 84.47 28.53c.16-1.63.45-3.28.99-4.89 3.84-11.35 16.16-17.45 27.51-13.62 10.86 3.66 16.8 15.08 13.97 25.99.67.15 1.34.23 2.01.45 11.36 3.84 17.45 16.16 13.62 27.51-3.83 11.36-16.16 17.45-27.51 13.62-.67-.22-1.25-.56-1.88-.85-4.37 10.4-16.01 15.86-26.86 12.2-11.36-3.84-17.46-16.15-13.62-27.51.55-1.61 1.3-3.1 2.17-4.49l-84.47-28.53-54.16 160.39-36.99 109.56c1.63.15 3.27.44 4.88.99 11.36 3.83 17.45 16.15 13.62 27.5-3.66 10.86-15.07 16.81-25.98 13.97-.16.67-.24 1.33-.46 2-3.84 11.36-16.16 17.46-27.51 13.62z" fill="#c7c6e0"/><path d="M243.34 848.14c.22-.67.3-1.33.46-2 10.91 2.84 22.32-3.12 25.98-13.97 3.84-11.36-2.26-23.67-13.62-27.5-1.61-.56-3.26-.84-4.88-.99l36.99-109.56 54.16-160.39 84.47 28.53c-.87 1.39-1.62 2.87-2.17 4.49-3.83 11.36 2.26 23.67 13.62 27.51 10.85 3.66 22.49-1.8 26.86-12.2.63.28 1.21.63 1.88.85 11.35 3.83 23.67-2.26 27.51-13.62 3.83-11.36-2.26-23.67-13.62-27.51-.67-.22-1.34-.31-2.01-.45 2.84-10.92-3.11-22.33-13.97-25.99-11.36-3.83-23.67 2.27-27.51 13.62-.54 1.61-.83 3.26-.99 4.89l-84.47-28.53 51.03-151.1c1.39.85 2.87 1.61 4.49 2.16 11.36 3.83 23.67-2.26 27.51-13.62 3.66-10.86-1.81-22.51-12.2-26.87.28-.63.63-1.21.85-1.88 3.84-11.35-2.26-23.67-13.62-27.51-11.36-3.84-23.67 2.26-27.51 13.62-.23.66-.3 1.33-.46 2-10.92-2.84-22.33 3.12-26 13.97-3.83 11.36 2.27 23.67 13.62 27.51 1.62.55 3.25.83 4.88.99l-51.03 151.11-86.02-29.04c.86-1.39 1.62-2.88 2.17-4.49 3.83-11.35-2.27-23.67-13.62-27.5-10.86-3.67-22.5 1.8-26.87 12.2-.63-.29-1.2-.63-1.87-.86-11.36-3.83-23.67 2.27-27.51 13.62-3.84 11.35 2.26 23.67 13.62 27.5.67.23 1.33.3 2 .46-2.83 10.92 3.11 22.32 13.97 25.99 11.36 3.84 23.67-2.26 27.5-13.62.55-1.62.84-3.25 1-4.88l86.02 29.04-54.16 160.39-37 109.56c-1.39-.86-2.87-1.61-4.49-2.16-11.35-3.85-23.67 2.25-27.5 13.62-3.67 10.86 1.79 22.5 12.2 26.87-.28.63-.63 1.21-.85 1.87-3.84 11.36 2.26 23.67 13.62 27.51 11.36 3.84 23.67-2.25 27.51-13.62z" fill="#dddaf2"/><path d="M1076.03 481.12c-2.82-.68-5.62 1.04-6.29 3.84-1.81 7.45-14.15 19.57-47.89 12.05-25.17-5.61-42.14.28-51.49 5.64-.6-1.66-2-2.98-3.87-3.35-1.14-.24-2.31-.19-3.45.06-2.95-8.39-5.08-22.58 2.05-42.13 4.51-12.39 6.48-23.58 5.86-33.27-.19-2.87-2.66-5.06-5.53-4.85-2.87.19-5.04 2.66-4.86 5.53.53 8.23-1.24 18-5.24 29.04-6.7 18.39-6.2 32.92-3.78 43.23-87.61-66.3-228.7-141.29-358.06-210.04-62.57-33.25-123.66-65.71-174.2-94.88 24.41-37.76 87.22-72.84 139.9-102.26 39.81-22.23 74.18-41.43 91.05-59.65 7.27-7.86 3.91-14.11 2.13-16.44-21.8-28.37-247.56-10.34-332.77 34.71-36.73 19.42-39.22 39.37-34.84 52.7 7.41 22.54 49.51 53.26 120.41 94.65-4.35 8.99-6.73 18.23-6.7 27.76.04 11.93 3.85 23.59 11.44 35.06 1.88-3.3 4.6-5.88 7.76-7.48-5.77-9.23-8.76-18.44-8.79-27.62-.02-7.55 1.89-15.04 5.39-22.43 46.93 27.07 105.56 58.54 174.34 95.1 130.68 69.45 273.4 145.3 359.51 211.02-.35.74-.54 1.58-.49 2.46.19 3.55 2.7 6.66 6.56 8.34.39 1.3.93 2.59 1.74 3.83 1 1.53 2.67 2.36 4.37 2.36.97.0 1.96-.28 2.84-.86 1-.65 1.63-1.61 1.99-2.66 29.28 24.13 49.91 46.65 58.22 66.72 11.91 28.7 9.61 56.46-6.83 82.49-57.4 90.91-279.1 156.94-578.6 172.34-51.14 2.63-98.78 1.42-142.36-2.81-.26 2.13-.71 4.27-1.43 6.39-.47 1.4-1.07 2.71-1.71 4 27.29 2.68 57.2 4.29 90.04 4.28 17.82.0 36.49-.46 55.99-1.46 302.82-15.56 527.7-83.46 586.87-177.18 18.35-29.06 20.92-60.02 7.65-92.03-8.79-21.19-30.18-44.73-60.38-69.76 6.26-4.42 21.48-12.05 47.01-6.36 41.55 9.28 57.43-8.05 60.27-19.77.68-2.78-1.04-5.6-3.82-6.28zM410.16 186.7c-63.81-37.28-108.92-68.75-115.54-88.91-4.56-13.85 5.48-27.4 29.81-40.25 61.04-32.26 180.23-47.01 254.8-47.01 34.94.0 60.09 3.23 64.84 9.43.49.64-.56 2-1.5 3.03-15.76 17.01-51.09 36.74-88.49 57.63-56.38 31.49-118.56 66.22-143.92 106.08z" fill="#6f657f"/></g></g></g></svg>