<svg id="_Слой_2" xmlns="http://www.w3.org/2000/svg" width="1059.22" height="1080" viewBox="0 0 1059.22 1080"><g id="Islam03_90073952"><g id="Islam03_90073952-2"><path d="M540.01 1080c122.92.0 236.36-41.14 327.08-110.38 90.73-69.23 158.87-166.56 191.49-279.07 2.28-7.86-1.66-16.2-9.18-19.44-7.52-3.24-16.28-.36-20.43 6.7-68.08 115.86-193.8 193.66-337.86 193.66-108.19.0-205.99-43.81-276.9-114.7-70.9-70.92-114.69-168.72-114.7-276.91.0-108.2 43.81-206 114.7-276.91 70.91-70.89 168.71-114.69 276.9-114.69 37.92.0 74.51 5.48 109.19 15.54 7.86 2.28 16.21-1.65 19.45-9.17 3.24-7.52.37-16.29-6.69-20.44C732.95 27.11 639.6.0 540.01.0 241.76.0.01 241.76.0 540c.01 298.24 241.76 539.99 540.01 540zM181.14 181.14C273.04 89.27 399.81 32.5 540.01 32.49c53.03.0 104.1 8.17 152.1 23.28-.34.0-.67-.02-1.01-.02-234.23.0-424.08 189.86-424.09 424.1.01 234.23 189.87 424.1 424.09 424.1 113.12.0 215.87-44.37 291.87-116.56-34.11 60.98-80.36 114.26-135.6 156.4-85.31 65.08-191.73 103.71-307.37 103.72-140.2.0-266.97-56.78-358.87-148.65-91.87-91.89-148.64-218.67-148.65-358.86.0-140.2 56.78-266.97 148.65-358.86z" fill="#e5ef7f"/><path d="M765.09 316.68c-2.39-6.23-8.33-10.37-15-10.43-6.67-.07-12.7 3.95-15.22 10.13l-29.68 73.02-75.13-23.84c-6.36-2.02-13.3.06-17.51 5.23-4.21 5.17-4.84 12.39-1.57 18.21l38.59 68.73-65.47 43.89c-5.54 3.71-8.25 10.43-6.83 16.95 1.41 6.52 6.68 11.5 13.26 12.58l77.78 12.68-6.51 78.56c-.55 6.65 3.01 12.96 8.99 15.91 5.98 2.95 13.16 1.95 18.1-2.53l58.42-52.92 57.35 54.07c4.85 4.58 12.01 5.72 18.05 2.89 6.03-2.83 9.73-9.07 9.31-15.73l-4.95-78.66 78.03-11.12c6.61-.94 11.96-5.82 13.51-12.31 1.55-6.49-1.02-13.26-6.49-17.08l-64.58-45.18 39.95-67.94c3.38-5.75 2.9-12.98-1.21-18.24-4.11-5.25-11-7.47-17.4-5.58l-75.59 22.32-28.21-73.6zm51.53 161.05 43.17 30.2-52.16 7.44c-8.4 1.2-14.46 8.64-13.92 17.11l3.31 52.58-38.33-36.14c-6.17-5.82-15.76-5.91-22.05-.22l-39.05 35.38 4.35-52.51c.7-8.45-5.2-16.01-13.57-17.37l-51.99-8.48 43.76-29.33c7.04-4.72 9.27-14.05 5.12-21.45l-25.79-45.94 50.21 15.93c8.08 2.56 16.77-1.51 19.96-9.37l19.84-48.82 18.86 49.2c3.03 7.92 11.63 12.17 19.77 9.77l50.53-14.92-26.7 45.41c-4.3 7.31-2.26 16.68 4.69 21.54z" fill="#e5ef7f"/></g></g></svg>