<svg id="_Слой_2" xmlns="http://www.w3.org/2000/svg" width="297.88" height="1080" viewBox="0 0 297.88 1080"><g id="Jew01_169534876"><g id="Jew01_169534876-2"><g><path d="M123.77 1024.23 120.46 1048.98H147.18L146.56 1025.16 123.77 1024.23z" fill="#454545"/><path d="M115.33 1042.25l39.62 1.55 2.49 35.27h-26.88l-2.95-5.75-8.86 5.75-67.43.93s1.55-38.06 61.21-32.63l2.8-5.13z" fill="#262626"/></g><g><path d="M220.04 1024.23 223.36 1048.98H196.64L197.26 1025.16 220.04 1024.23z" fill="#454545"/><path d="M228.49 1042.25l-39.62 1.55-2.49 35.27h26.88l2.95-5.75 8.86 5.75 67.43.93s-1.55-38.06-61.21-32.63l-2.8-5.13z" fill="#262626"/></g><path d="M88.45 914.54s20.82 108.75 22.06 111.55c1.24 2.8 46.61 5.28 47.54 4.97s3.42-108.75 3.42-108.75l18.89-.96s5.66 106.61 7.52 107.85c1.86 1.24 41.02.31 42.57-3.11 1.55-3.42 14.91-108.75 13.67-114.66-1.24-5.9-155.67 3.11-155.67 3.11z" fill="#262626"/><path d="M27.24 726.01s.08 15.61 3.03 19.26c2.95 3.65 4.35-3.5 4.35-3.5.0.0.78 8.86 3.5 9.55 2.72.7 4.19-6.84 4.19-6.84.0.0 2.02 10.33 5.52 9.63 3.5-.7 5.05-9.24 5.05-9.24.0.0 2.1 8.23 5.2 6.76 3.11-1.48 5.83-14.22 5.59-18.1-.23-3.88-36.43-7.53-36.43-7.53z" fill="#ffc085"/><path d="M289.69 717.72s-.08 15.61-3.03 19.26c-2.95 3.65-4.35-3.5-4.35-3.5.0.0-.78 8.86-3.5 9.55-2.72.7-4.19-6.84-4.19-6.84.0.0-2.02 10.33-5.52 9.63-3.5-.7-5.05-9.24-5.05-9.24.0.0-2.1 8.23-5.2 6.76-3.11-1.48-5.83-14.22-5.59-18.1.23-3.88 36.43-7.54 36.43-7.54z" fill="#ffc085"/><path d="M95.7 281.55s-46.4 111.49-62.97 207.6c-16.57 96.12-24.03 226.21-21.54 232.01 2.49 5.8 50.54 13.26 50.54 13.26.0.0 2.49 170.69 5.8 176.49 3.31 5.8 125.95 43.09 189.75 4.14V726.13s40.6-7.46 40.6-9.94-40.6-363.73-91.15-440.39c-36.46-24.46-111.03 5.75-111.03 5.75z" fill="#454545"/><path d="M89.9 310.6s-2.9 140.45-1.66 140.45h24.86s-.83 36.04.0 37.7c.83 1.66 38.12-11.19 38.12-11.19l-48.47-129.68-12.84-37.29z" fill="#363636"/><path d="M151.22 477.56 200.93 572.43 176.08 932.58H179.5L207.15 572.43 152.86 474.76 151.22 477.56z" fill="#363636"/><path d="M151.22 477.56s35.22 10.65 37.7 11.33c2.49.68.0-43.23.0-43.23.0.0 27.2-6.21 25.61-9.94s-6.33-116.88-6.33-116.88l-56.99 158.72z" fill="#363636"/><path d="M120.15 403.81s29.42 73.74 31.07 73.74 30.24-71.26 28.17-73.74c-2.07-2.49-59.24.0-59.24.0z" fill="#fcfcfc"/><g><path d="M85.66 165.7s-8.39 13.36-6.21 18.02c2.18 4.66 3.68 14.6 2.93 19.58-.75 4.97-2.04 12.74.0 17.4 2.04 4.66 7.33 11.62 3.29 16.22-4.04 4.6-6.57 7.71-3.29 13.92 3.29 6.21 9.05 8.7 4.77 14.6-4.28 5.9-7.23 8.7-3.27 17.71 3.96 9.01 3.19 13.05.0 18.02-3.19 4.97.65 12.12 4.79 16.47 4.14 4.35 3.62 15.23.0 26.1-3.62 10.88 2.93 9.63 2.92 18.95-.02 9.32-3.71 9.63.0 16.16 3.71 6.53 8.68 7.15 8.68 13.98s-.31 15.85 7.46 16.47c7.77.62 10.25-3.42 16.47 2.49 6.21 5.9 11.5 8.08 19.26 5.9 7.77-2.18 15.23-11.81 22.99-7.46 7.77 4.35 24.55 4.66 25.17-3.11.62-7.77 1.86-17.09 5.28-17.71s15.23-1.24 10.25-15.23-6.21-20.51-1.55-26.41c4.66-5.9 10.88-9.32 7.15-18.95-3.73-9.63-8.7-14.29-4.04-20.82 4.66-6.53 8.08-9.94 4.04-18.64-4.04-8.7-3.11-10.56-1.55-18.33s-3.42-13.05-3.73-17.4 10.25-18.95 5.28-27.65c-4.97-8.7-5.59-18.95-4.35-24.55s-.93-17.4-2.8-21.13c-1.86-3.73-119.94-14.6-119.94-14.6z" fill="#262626"/><path d="M64.53 111.94S54.9 128.72 58 139.59c3.11 10.88 14.6 23.3 11.19 31.69-3.42 8.39-13.04 11.81-11.8 20.2 1.24 8.39 12.33 18.33 6.16 28.28s-7.87 14.34-5.54 21.54c2.33 7.2-15.54 9.07-19.42 3.32-2.95 7.61 20.37 25.32 31.23 10.25 10.87-15.07-1.09-19.11 3.26-25.17 4.35-6.06 9.17-21.6 3.57-29.83-5.59-8.23-.93-15.07 5.13-23.15 6.06-8.08 4.97-25.17 5.59-29.83s115.65 10.1 115.65 10.1c0 0 13 13.05 11.52 22.37-1.48 9.32-3.03 17.56 2.25 27.42 5.28 9.86 8.08 11.11 7.77 17.63s-10.21 11.81.02 23.93c10.23 12.12 22.66 4.97 22.66 2.49s-18.33 1.24-14.91-11.19c3.42-12.43 9.94-22.99 5.28-31.07s-13.67-8.08-10.56-16.47c3.11-8.39 10.25-14.64 6.53-24.88-3.73-10.24-10.25-8.99-9.63-19.25.62-10.25 8.08-14.55 4.66-20.17-3.42-5.62-7.15-3.52-7.46-9.39-.31-5.86 2.49-10.22-2.18-14.25-4.66-4.04-151.89 2.65-154.43 7.77z" fill="#262626"/><path d="M79.44 114.74s7.46 113.85 18.95 122.18c11.5 8.33 54.38-23.06 54.38-23.06.0.0 36.35 32 45.37 18.64 9.01-13.36 14.6-123.64 14.6-123.64l-133.3 5.88z" fill="#ffc085"/><path d="M116.67 235.02s-19.73 36.22-6.06 45.12c8.29 6.42 29.83-11.19 29.83-11.19.0.0 12.27 6.23 16.36-1.86 6.42 8.71 18.7 16.99 26.34 6.42 7.63-10.56-2.38-38.07-8.14-43.58-5.76-5.51-58.33 5.09-58.33 5.09z" fill="#070707"/><path d="M143.76 208.26s-18 6.84-29.72 31.9c-7.54 16.14-4.67 36.25 1.54 35.63 6.21-.62 25.69-18.44 25.69-18.44.0.0 2.69 6.21 8.91 4.97 6.21-1.24 8.08-7.04 8.08-7.04.0.0 15.12 22.99 22.17 15.54 7.04-7.46.83-44.74-23.41-62.56-5.59-3.31-13.26.0-13.26.0z" fill="#262626"/><path d="M132.58 113.18s6.21 120.35 21.13 123.67c14.91 3.31 17.4-127.19 16.36-127.81-1.04-.62-37.71.24-37.49 4.14z" fill="#ff7b54"/><path d="M120.15 165.38s-.93-8.91-7.35-7.46c-6.42 1.45-5.9 7.46-5.9 7.46.04.74-2.18 4.01-3.13-.47-.88-4.13 1.71-10.49 9.63-10.88 7.92-.39 10.95 6.37 11.11 10.88.0 2.8-4.19 3.03-4.35.47z" fill="#090909"/><path d="M189.44 165.38s-.93-8.91-7.35-7.46c-6.42 1.45-5.9 7.46-5.9 7.46.04.74-2.18 4.01-3.13-.47-.88-4.13 1.71-10.49 9.63-10.88 7.92-.39 10.95 6.37 11.11 10.88.0 2.8-4.19 3.03-4.35.47z" fill="#090909"/><path d="M94.74 124.6s-.31 9.48 3.19 11.65c3.5 2.18 25.4.16 27.03-3.5 1.63-3.65.54-12.27-1.4-13.9-1.94-1.63-29.44 2.41-28.82 5.75z" fill="#292929"/><path d="M174.06 119.24s-3.03 12.2 1.09 15.07c4.12 2.87 26.26 2.72 27.11.78.85-1.94 1.4-11.89-.7-14.06-2.1-2.18-26.72-3.57-27.5-1.79z" fill="#292929"/><path d="M123.46 200.08c0 9.32-4.78 16.88-10.67 16.88s-10.67-7.56-10.67-16.88 4.78-16.88 10.67-16.88 10.67 7.56 10.67 16.88z" fill="#ffa270"/><path d="M195.34 201.64c0 8.47-5.01 15.33-11.18 15.33s-11.18-6.86-11.18-15.33 5.01-15.33 11.18-15.33 11.18 6.86 11.18 15.33z" fill="#ffa270"/><path d="M0 118.43s278.41-10.84 280.89-11.25c2.49-.41-70.02-10.36-70.02-10.36.0.0-22.59-94.46-24.97-96.12-2.38-1.66-98.08-.41-101.39 4.14-3.31 4.56-15.74 92.8-15.74 92.8L0 118.43z" fill="#454545"/><path d="M68.77 97.65s95.5 5.49 142.1-.83l-6.23-25.74h-132l-3.87 26.57z" fill="#262626"/></g><circle cx="185.09" cy="581.13" r="5.9" fill="#262626"/><circle cx="140.34" cy="581.13" r="5.9" fill="#262626"/><circle cx="177.94" cy="679.32" r="5.9" fill="#262626"/><circle cx="134.44" cy="679.32" r="5.9" fill="#262626"/><path d="M61.73 734.42s8.08-237.77 17.35-287.52c-25.64 42-35.58 256.04-17.35 287.52z" fill="#363636"/><path d="M257.28 726.14s-19.89-255.21-29.83-279.24c40.6 33.97 37.29 272.61 29.83 279.24z" fill="#363636"/></g></g></svg>