<svg xmlns="http://www.w3.org/2000/svg" width="1080" height="500.45" viewBox="0 0 1080 500.45"><g id="a"/><g id="b"><g id="c"><path id="d" d="M885.22 63.09c36.76 11.68 65.3 29.79 66.86 57.41 37.51 1.38 71.94 8.39 87.05 26.64 32.5 9.89 51.1 29.99 34.94 67.47-13.64 31.61-46.86 63.85-108.16 80.57-189.33 65.13-481.38 144.92-711.48 194.09-78.78 21.33-118.59 11.52-125.5-24.34-4.17-21.58 3.84-42.2 18.92-61.21-6.11 12.63-8.56 25.82-5.95 39.43 6.59 34.16 44.51 43.51 119.57 23.19 219.26-46.86 497.52-122.87 677.91-184.93 58.42-15.94 90.08-46.66 103.05-76.77 5.56-12.9 6.81-23.64 4.65-32.54-.17 3.45-.72 7.12-1.75 11.02-12.9-38.69-91.66-41.22-153.63-35.97-.48.52-.93 1.04-1.37 1.58-10.1 12.28-15.71 42.96-29.71 71.43-14 28.43-67.56 65.4-67.82 65.59h-.02c-.17-.18-18.95-19.13.58-65.17 11.39-26.85 36.67-52.02 55.88-68.42-9.11 1.39-16.88 2.81-22.73 4.05-17.99 3.82-36.4 7.89-55.18 12.18-2.28 2.6-4.58 5.26-6.74 7.89-11.06 13.45-17.19 47.06-32.54 78.26-15.32 31.14-74.03 71.68-74.29 71.86h-.02c-.26-.28-20.72-21.06.62-71.4 12.16-28.63 39.14-55.9 60.34-74.21-27.55 6.68-55.64 13.75-84.01 21.19-1.92 2.21-3.84 4.5-5.73 6.8-11.49 13.99-17.89 48.96-33.84 81.42-15.92 32.39-77.03 74.55-77.29 74.73h0c-.22-.23-21.61-21.81.65-74.26 12.33-29.07 37.87-55.37 58.32-73.14-31.61 8.69-63.34 17.77-94.85 27.13l-1.97 2.37c-11.51 14-17.89 48.95-33.84 81.42-15.97 32.46-77.29 74.74-77.29 74.74.0.0-21.73-21.55.65-74.27 11.27-26.63 32.83-49.52 51.39-65.65-24.1 7.53-47.96 15.22-71.39 23l-2.11 2.57c-11.51 13.99-17.89 48.95-33.86 81.41-15.97 32.46-77.29 74.75-77.29 74.75.0.0-21.7-21.55.65-74.28 10.29-24.28 29.11-45.42 46.43-61.19-60.41 24.02-156.26 72.99-168.52 131.73l-.26-1.21c-15.04-77.94 131.68-143.22 192.47-164.23 11.54-3.99 23.24-7.96 35.01-11.91-74.37 5.43-147.58 9.58-215.4 12.01-78.8 7.31-118.59-9.56-125.52-46.64-4.15-22.33 3.84-41.51 18.94-57.86-6.11 11.53-8.59 24.31-5.97 38.37 6.59 35.34 44.53 51.43 119.6 44.45 92.3-3.32 195.09-9.95 296.63-18.75 133.91-41.52 275.02-78.36 396.22-104.13 18.06-3.84 54.17-9.29 92.06-10.74 6.91-25.85-8.18-44.37-33.36-57.52h0zm-758.05 2.47 1.77 4.41C220.76 25.7 728.14-10.66 817.42 21.65l1.99-4.53C690.46-21.78 264.86 10.39 127.16 65.56h0zm537.81 102.52h0c.26-.13 53.84-27.59 67.82-53.53 14.03-25.98 19.62-55.67 29.71-66.16 10.1-10.48 29.23-14.57 29.23-14.57l-28.25-2.63.34-.48-17.77-.95s-60.91 30.47-80.53 73.24c-19.52 42.57-.74 64.85-.55 65.07h0zm-24.56-136.96-.14.08-20.19 1.04s-68.06 34.32-89.55 81.19c-21.51 46.85-.62 71.29-.62 71.29.0.0 58.95-30.17 74.29-58.66 15.37-28.47 21.49-60.97 32.54-72.47 11.06-11.49 25.73-23.56 25.73-23.56l-22.06 1.09h0zm-250.44 167.25h0c.24-.12 61.34-31.43 77.29-61 15.97-29.63 22.35-63.44 33.84-75.39 11.51-11.96 24.53-23.2 24.53-23.2l-22.81 2.72-23.96 2.01s-65.9 31.94-88.25 80.71c-22.18 48.38-.98 73.74-.65 74.14h0zm-40.96-141.64-.05.02-22.4 3.59s-62.57 26.91-84.92 75.66c-22.38 48.74-.65 74.15-.65 74.15.0.0 61.32-31.39 77.29-61.01 15.97-29.62 22.35-63.43 33.84-75.39 11.51-11.96 21.7-20.84 21.7-20.84l-24.82 3.81h0zm-132.59 18.23-.05.02-22.42 3.57s-62.54 26.92-84.89 75.65c-22.37 48.78-.65 74.16-.65 74.16.0.0 61.32-31.37 77.29-61 15.97-29.62 22.35-63.43 33.84-75.39 11.49-11.95 21.7-20.84 21.7-20.84l-21.78 3.34h-.12l-2.93.47z" fill="#e0934d" fill-rule="evenodd"/></g></g></svg>