<svg id="_Слой_2" xmlns="http://www.w3.org/2000/svg" width="1080" height="910.86" viewBox="0 0 1080 910.86"><g id="All_food12_79007962"><g id="All_food12_79007962-2"><g><path d="M752.77 130.86c-55.7-35.88-238.92-97.17-347.03-104.64-108.11-7.47-132.6 18.57-133.21 51.32-.61 32.75 71.29 240.44 198.06 273.19 126.77 32.75 257.69-66.45 298.54-115.08 40.86-48.64-.61-94.63-16.37-104.79z" fill="#de4b14"/><path d="M307.06 66.72s58.33 64.09 230.18 118.09c171.85 54 281.8 55.71 300.39 17.59 18.01-36.93-114.61-121.89-284.91-167.82C382.42-11.34 249.71-12.42 241.06 36.73c-6.4 36.37 80.62 300.41 236.72 339.39 183.67 45.87 358.59-175.98 358.59-175.98l-57.81-4.79s-164.97 186.48-303.71 143.69c-123.01-37.94-195.79-234.38-182.98-286.13 14.13-57.1 272.94 1.84 389.39 54.04 125.43 56.22 80.48 85.16-33.25 70.81-160.34-20.23-340.94-111.04-340.94-111.04z" fill="#5f352d"/><path d="M344.7 75.39s120.4 60.54 240.12 82.72c119.72 22.18 162.27 15.27 122.86-9.38-94.14-58.89-399.31-127.43-362.98-73.34z" fill="#5f352d"/><g><path d="M464.46 236.51c2.75-32.08 8.88-62.01 8.88-62.01l-51.85-26.02c-51.85-26.02-100.44-56.84-100.44-56.84 2.71 25.76 7.88 49.02 14.65 70.04l128.77 74.83z" fill="#ed7b1d"/><path d="M463.15 265.14c-.01-3.25.06-6.58.17-9.93l-113.2-56.75c43.37 92.76 116.59 128.75 116.59 128.75.0.0-3.38-21.94-3.56-62.07z" fill="#ed7b1d"/></g><path d="M672.57 141.25s-63.56-33.6-165.12-59.27c-101.57-25.67-154.91-19.18-143.51-8.82 11.4 10.36 87.06 41.63 141.45 56.91l54.39 15.28s-88.72-30.65-119.85-52.27c-31.14-21.63 129.5 7.75 232.64 48.18z" fill="#973d30"/><path d="M829.1 185.22c-2-23.46-73.98-78.75-208.38-124.37C449.55 2.74 355.5 6.38 355.5 6.38c0 0 167.55 9.85 348.15 100.66 122.45 61.57 49.61 88.36-27.08 81.13-76.69-7.23-185.1-39.11-231.73-56.51-46.64-17.4-63.14-24.89-63.14-24.89.0.0 105.68 56.88 255.75 93.31 60.25 14.63 103.3 18.88 133.17 17.23-23.32 26.81-79.99 83.51-168.9 120.15-93.3 38.45-169.49 22.52-241.27-73.5-56.44-75.5-112.24-211.87-112.24-211.87.0.0 78.62 273.99 223.61 314.72 136.64 38.38 265.18-82.95 287.44-101.03 15.8-12.84 40.48-41.92 53.48-57.71 12.41-6.3 17.07-14.83 16.38-22.85z" fill="#973d30"/></g><g><g><path d="M845.67 255.91c-55.12-14.7-159.84 9.19-271.91 51.44-112.07 42.26-297.63 143.3-345.4 176.38-47.77 33.07-72.42 65.27-72.42 65.27l48.53-10.16s51.44-29.4 90.02-36.74c38.58-7.35 225.98 12.86 225.98 12.86.0.0-20.21 123.1-40.42 189.24-20.21 66.14-34.91 115.75-34.91 115.75.0.0 181.89-55.12 352.75-178.21 170.86-123.09 251.7-200.26 248.03-238.84-3.67-38.58-200.26-146.98-200.26-146.98z" fill="#f7ae4c"/><path d="M322.98 514.96s-7.35-14.7-20.21-12.86c-12.86 1.84-117.58 44.09-154.33 52.36-36.75 8.27-93.7 14.7-107.48 33.07-13.78 18.37-7.35 81.76 1.84 98.29 9.19 16.54 21.13 22.05 21.13 22.05.0.0-57.87 56.04-56.04 103.8 1.84 47.77 33.99 88.19 72.57 87.27 38.58-.92 81.76-45.01 81.76-45.01.0.0 48.69 34.91 106.56 12.86 57.87-22.05 180.05-84.51 180.05-84.51l81.76-273.75-207.61 6.43z" fill="#ed7b1d"/><path d="M1079.92 411.16c-5.51-55.12-198.42-184.64-259.05-184.64s-309.97 87.93-446.45 154.33c-161.52 78.58-214.3 160.41-219.14 168.34-15.83 4.44-35.33 8.85-55.53 10.79-47.77 4.59-87.2 9.78-86.35 71.65.77 55.99 31.61 72.91 41.78 76.97C-12 779.8-7.79 832.42 15.24 871.38c23.88 40.42 75.33 47.77 102.89 31.23 21.87-13.12 39.06-30.82 45.25-37.6 1.4 1.51 2.85 3.02 4.35 4.52 41.31 41.3 180.08-16.28 241.84-52.82-13.27 31.6-21.37 49.14-21.37 49.14.0.0 146.06-46.85 283.85-124.01 137.79-77.16 413.38-275.59 407.87-330.7zm-586.87 184.27c-1.64 2.34-4.08 5.83-5.72 8.17-15.5 12.38-41.11 30.47-82.6 54.67-88.19 51.44-180.05 101.05-211.28 99.21-31.23-1.84-22.05-22.05 31.23-44.09 53.28-22.05 170.86-86.35 220.47-112.07 27.81-14.42 45.8-24.8 56.24-31.13-2.64 8.16-5.4 16.54-8.35 25.25zm-43.29-13.17c-35.76 23.41-80.45 50.39-124.02 70.5-19.31 8.91-37.76 16.91-55.07 24.24 33.26-27.65 90.13-72.71 134.07-95.9 49.43-26.09 51.65-12.16 45.02 1.15zm62.46-223.46c26.93 6.21 33.61 45.14 11.86 133.13-43.77-2.44-163.24-7.91-224.07.99-47.9 7.01-78.66 22.91-94.74 33.58-8.97 5.31-13.65 10.51-13.65 10.51.0.0-14.42 6-35.67 12 97.02-79.91 320.57-198.45 356.27-190.21zM70.35 579.26c20.21-11.02 84.51-17.45 143.3-38.58 40.66-14.61 70.76-28.33 92.15-32.98 5.33 2.72 6.73 10.89.73 14.69-14.78 9.37-34.73 22.2-57.12 37.04-29.47 11.47-78.96 29.19-120.27 36.37-63.38 11.02-79-5.51-58.79-16.54zm-7.35 40.42c7.28-8.32 53.5-9.73 80.84-13.78 18.61-2.76 32.57-2.93 37.21.26-13.35 9.45-26.68 19.11-39.55 28.75-12.14 5.19-29.95 10.85-50.94 11.4-34.91.92-33.99-19.29-27.56-26.64zm21.13 38.58c13.72-.6 24.7-1.97 30.73-2.85-14.94 11.83-28.73 23.39-40.52 34.26-5.6.89-12.85.21-15.01-8.44-3.67-14.7 3.67-22.05 24.8-22.97zm-63.38 150.65c-11.02-9.19 3.67-56.96 60.63-110.23 56.95-53.28 156.17-121.26 165.35-117.58.0.0-95.54 79-158 146.98-62.47 67.98-56.95 90.02-67.98 80.84zm39.5 69.81c-5.1 7.64-40.42-4.59-14.7-67.06 25.72-62.47 138.71-160.76 203.02-208.53 64.3-47.77 128.61-88.19 161.68-79 33.07 9.19-36.74 58.79-79 88.19-29.39 20.44-83.63 63.08-113.96 87.17-40.21 17.27-67.93 31.22-75.28 46.95-4.66 9.99-8.83 22.65-9.98 37-9.27 9.75-21.36 23.39-35.03 41.08-22.47 29.08-29.4 43.17-36.74 54.2zm43.17-1.84c-14.6-10.62 12.97-49.98 29.42-71.02 2.16 13.9 7.66 28.74 18.2 43.87-10.32 13.32-32.54 38.12-47.62 27.16zm62.47-79c3.67-20.21 34.91-16.54 108.4-45.93 73.49-29.4 152.49-79 174.54-91.86 8.51-4.97 15.1-1.7 19.67 5.33-2.14 5.92-4.26 11.71-6.36 17.41-1.2 3.26-3.11 6.15-5.58 8.59-27.51 27.02-76.9 67.99-145.52 95.44-110.23 44.09-148.82 31.23-145.14 11.02zm135.96 49.61c-99.21 29.4-115.75 5.51-93.7-1.84 22.05-7.35 134.12-56.95 174.54-75.33 16.65-7.57 32.03-13.22 45.28-14.85 3.08-.38 5.43 2.72 4.28 5.61-1.88 4.76-3.73 9.37-5.52 13.84-21.44 21.42-62.12 53.97-124.88 72.57zM947.64 510.37c-82.68 85.43-349.99 242.52-402.36 261.81-52.36 19.29-63.38-2.76-22.05-135.04 41.34-132.28 41.34-258.96 41.34-300.39.0-11.02 46.85-38.58 132.28-60.63 85.43-22.05 140.55-24.8 225.98 33.07 85.43 57.87 107.48 115.75 24.8 201.18z" fill="#5f352d"/><path d="M296.34 514.04s-78.08 33.07-139.63 46.85c-61.55 13.78-84.51 19.29-85.43 25.72-.92 6.43 38.69 5.53 87.27-7.35 76.25-20.21 137.79-65.22 137.79-65.22z" fill="#f7ae4c"/><path d="M164.97 608.66s-67.98 4.59-86.35 9.19c-18.37 4.59-16.54 17.45 6.43 17.45s51.27-4.86 56.95-8.27c9.19-5.51 22.97-18.37 22.97-18.37z" fill="#f7ae4c"/><path d="M208.15 607.74s-93.7 64.3-137.79 106.56c-44.09 42.26-52.36 86.35-45.01 83.6 7.35-2.76 16.54-25.72 72.57-85.43 56.04-59.71 110.23-104.72 110.23-104.72z" fill="#f7ae4c"/><path d="M406.57 530.58s-41.34-13.78-184.64 100.13c-78.9 62.71-151.57 140.55-169.03 177.29-17.45 36.74-5.51 62.47-.92 60.63 4.59-1.84 16.54-23.88 33.07-47.77 16.54-23.88 39.5-47.77 39.5-47.77.0.0 5.51-37.66 23.88-50.52 18.37-12.86 68.9-33.07 79-41.34 10.11-8.27 107.48-113.91 179.13-150.65z" fill="#f7ae4c"/><path d="M475.47 591.21s-129.53 70.73-192.91 99.21c-63.38 28.48-95.54 46.85-98.29 54.2-2.76 7.35 18.37 9.19 77.16-17.45 58.79-26.64 134.12-69.81 160.76-89.11 26.64-19.29 53.28-46.85 53.28-46.85z" fill="#f7ae4c"/><path d="M436.88 672.96s-87.27 54.2-162.6 83.59c-75.33 29.4-99.21 28.48-101.05 39.5-1.84 11.02 19.65 20.28 75.33 3.67 104.72-31.23 188.32-126.77 188.32-126.77z" fill="#f7ae4c"/><path d="M581.11 350.53c-8.02 32.08-19.29 173.62-30.31 237-11.02 63.38 349.99-146.06 391.33-195.67 41.34-49.61-104.72-115.75-159.84-115.75s-192.91 41.34-201.18 74.41z" fill="#fcdb81"/><path d="M302.77 477.3s110.23-5.51 162.6-2.76c52.36 2.76 55.12-22.05 57.87-52.36 2.76-30.31-5.51-44.09-46.85-35.83-41.34 8.27-173.62 90.94-173.62 90.94z" fill="#fcdb81"/><path d="M975.2 424.94s41.34 16.54-137.79 154.33c-179.13 137.79-283.85 173.62-283.85 173.62.0.0 363.77-245.27 421.65-327.95z" fill="#fcdb81"/></g><path d="M260.05 458.01s53.74-49.61 243.89-128.15c190.16-78.54 301.77-100.59 334.84-95.08 33.07 5.51 132.28 67.52 177.75 107.48 45.47 39.96 66.14 60.63 41.34 97.83-24.8 37.2-86.81 85.43-86.81 85.43.0.0 44.09-57.87 42.72-110.23-1.38-52.36-59.25-100.59-114.37-130.9-55.12-30.31-111.61-35.83-173.62-23.43-62.01 12.4-150.19 48.23-161.22 62.01-11.02 13.78-6.89 35.83-6.89 70.27s-8.27 140.55-38.58 232.87c-30.31 92.32-37.2 132.28-28.94 148.82 8.27 16.54 16.54 19.29 66.14.0 49.61-19.29 140.55-75.79 140.55-75.79.0.0-38.58 48.23-163.97 100.59-80.31 33.54-118.5 46.85-117.12 37.2 1.38-9.65 40.63-86.58 66.14-170.86 31.69-104.72 37.2-141.47 28.94-147.44-8.27-5.97-77.16-16.54-108.86-17.91-31.69-1.38-52.36-2.76-52.36-2.76.0.0 70.27-4.13 122.64-1.38 52.36 2.76 56.5 4.13 56.5 4.13.0.0 11.02-37.2 13.78-97.83 2.77-60.96-33.07-55.12-71.65-44.09-38.58 11.02-210.82 99.21-210.82 99.21z" fill="#973d30"/><path d="M167.73 549.87s-41.34 9.19-77.16 13.78c-35.83 4.59-62.47 12.86-70.73 47.77-8.27 34.91 9.19 65.22 19.29 61.55 10.1-3.67 16.44-18.05 36.97-18.6 25.49-.69 34.68-3.45 34.68-3.45.0.0-40.42 1.84-50.52-4.59-10.1-6.43-10.91-26.38 1.84-32.15 14.7-6.66 56.04-9.19 56.04-9.19.0.0-48.92.0-57.18-9.19-8.27-9.19-6.2-14.47 4.13-19.29 10.33-4.82 102.66-26.64 102.66-26.64z" fill="#973d30"/><path d="M134.66 644.72s-81.99 61.32-104.03 97.14c-22.05 35.83-35.83 72.34-22.05 108.17 13.78 35.83 55.81 57.18 69.59 47.54 13.78-9.65 7.58-22.05 22.05-50.29 14.47-28.25 27.56-42.72 27.56-42.72v-11.02s-33.07 37.89-47.54 62.01c-14.47 24.11-22.74 32.38-30.31 30.31-7.58-2.07-20.67-12.4-17.91-44.09 2.76-31.69 31.63-71.88 48.92-93.01 18.6-22.74 37.89-48.23 37.89-48.23.0.0-35.83 35.83-56.5 63.38-20.67 27.56-32.38 52.36-35.83 53.74-3.44 1.38-13.78-2.76-13.09-15.85.69-13.09 14.47-79.23 121.26-157.08z" fill="#973d30"/><path d="M390.95 622.67s-58.56 31.69-124.7 59.94c-66.14 28.25-110.23 44.09-123.32 70.96-10.26 21.07-8.27 57.87 4.13 80.61 12.4 22.74 45.47 44.78 44.78 31-.69-13.78.69-20.67 28.25-31.69 27.56-11.02 96.46-37.2 115.06-47.54 18.6-10.33 31.69-20.67 31.69-20.67.0.0-63.38 31.69-112.3 46.16-48.92 14.47-79.92 16.54-90.94-.69-11.02-17.22 4.24-32.4 20.67-35.83 33.07-6.89 68.21-17.22 117.12-42.03 48.67-24.68 69.59-48.92 69.59-48.92.0.0-75.1 41.34-105.41 55.12-30.31 13.78-68.21 29.63-84.74 22.05-16.54-7.58-14.7-24.14 2.76-32.38 86.12-40.65 166.04-77.16 207.38-106.1z" fill="#973d30"/></g></g></g></svg>