<svg id="_Слой_2" xmlns="http://www.w3.org/2000/svg" width="1080" height="702.01" viewBox="0 0 1080 702.01"><g id="All_food20_79007962"><g id="All_food20_79007962-2"><path d="M743.19 199.72s39.06-12.51 74.48-35.29c35.41-22.77 46.28-41.9 46.28-41.9.0.0-35.43-19.3-32.31-55.09 3.12-35.79 31.37-63.42 68.63-51.71 37.27 11.71 51.15 50.7 51.15 50.7.0.0 31.24-11.58 68.46 8.93 37.22 20.51 55.08 92.31 7.16 123.23-47.92 30.93-95.68 1.21-95.68 1.21l-57.07 43.43-131.1-43.52z" fill="#ad9570"/><path d="M943.13 75.63s-5.75-38.42-45.49-48.17c-33.34-8.18-57.22 22.21-48.82 50.05 8.4 27.84 33.34 37.62 33.34 37.62.0.0-13.12 24.71-53.09 50.8-36.29 23.69 18.77 38.49 46.64 31.03 27.87-7.45 56.43-42.05 56.43-42.05.0.0 36.58 34.61 74.92 18.58 32.58-13.62 39.14-63.13 11.66-85.23-33.88-27.25-75.6-12.64-75.6-12.64z" fill="#c4ad81"/><path d="M724.25 205.08s-130.72 12.3-180.53-7.9c-49.81-20.2-141.65-94.8-208.57-117.23-66.92-22.43-211.53-23.69-270.39 86.04-58.85 109.73-26.38 315.51 171.9 370.74 198.28 55.22 378.71-54.3 478.8-119.51 100.09-65.21 169.39-148.14 169.39-148.14l-160.61-64z" fill="#cf753d"/><path d="M701.88 226.29s-97.05 16.04-170.48-17.02c-46.71-21.03-141.15-109.69-271.82-109.82-120.94-.13-195.16 142.82-75.83 247.1 119.34 104.28 311.6 82.53 421.03 31.45 122.32-57.09 173.46-144.35 97.1-151.7z" fill="#e58d47"/><path d="M747.29 206.13s53.61-25.78 85.22-49.05c31.61-23.27 37.54-37.17 37.54-37.17.0.0-35.07-18.27-34.87-49.56.19-31.28 22.68-59.17 60.44-51.8 37.76 7.37 51.62 50.76 51.62 50.76l17.12-10.49s-19.77-46.61-64.91-56.9c-45.15-10.29-76.39 22.32-80.98 58.41-4.71 37.05 27.88 64.3 27.88 64.3.0.0-25.52 30.86-63.02 49.01-34.22 16.57-64.07 24.42-62.64 24.6 1.43.19 26.86 9.86 26.86 9.86l-.26-1.99z" fill="#5f352d"/><path d="M918.75 130.01s.34-59.31 54.47-60.08c54.13-.76 74.77 32.58 70.37 71.15-4.4 38.56-34.09 56.32-67.97 54.4-24.29-1.38-45.88-15.12-45.88-15.12l-82.51 57.72 37.13 18.54 54.95-41.75s54.33 36.61 101.53 6.72c48.89-30.96 52.93-108.55 7-145.85-45.92-37.3-99.52-29.94-120.23-.68-20.71 29.26-8.85 54.94-8.85 54.94z" fill="#5f352d"/><g><path d="M726.86 187.81c-12.82-.37-108.42 36.73-183.5-4.37-54.13-29.63-182.06-125.59-291.71-138.51C148.81 32.81 20.58 85.22 1.45 264.06c-19.13 178.83 153.73 321.4 361.96 312.04 208.23-9.36 451.69-203.28 475.74-222.32 24.05-19.04 72.11-79.3 73.87-94.72 1.76-15.42-173.33-70.88-186.16-71.25zm-185.66 15.9c-3.22 1.35-6.75 3.15-10.51 5.43-3.78 2.29-8.77.84-10.86-3.15-5.59-10.67-10.27-16.94-13.39-20.44 12.47 7.09 24.2 13.33 34.76 18.16zm-170.92-85.43c10.3.7 20.83 2.23 31.56 4.73 11.66 6.7 23.61 13.86 35.58 21.12-9.34 1.05-22.87 5.38-41.59 17.35-3.77 2.41-8.82.56-10.23-3.78-5.8-17.79-11.33-30.91-15.31-39.43zm-52.6-32.94c-16.11.79-36.22 4.91-57.22 15.03-6.07 2.93-13.41-.18-15.88-6.6-2.84-7.37-5.39-12.95-7.59-17.14 28.78-1.47 56.72 2.51 80.69 8.7zm304.08 369.23c-110.38 65.17-308.64 93.36-439.58 18.31C34.86 388.43 33.31 232.99 98.39 147.56c22.38-29.38 49.3-47.82 77.61-58.56 10.22-3.88 21.84-.92 29.06 7.54 5.41 6.34 11.07 14.95 16.59 26.63-.28 1.43-.48 2.44-.76 3.87-3.6 3.21-7.16 6.63-10.67 10.33-54.1 56.86-60.89 93.81-60.89 93.81.0.0 31.14-40.99 82.42-73.68 1.33-.85 3.14-.17 3.63 1.36 12.76 40.23 18.5 80.74 18.5 80.74.0.0 8.48-46.2 4.62-89.73-.4-4.47 2.12-8.61 6.11-10.47 13.68-6.38 28.33-11.78 43.81-15.58 11.61-2.85 23.88 2.16 30.32 12.5 6.12 9.81 12.79 22.11 19.69 37.42 3.16 7.01 1.7 15.21-3.7 20.51-51.01 50.09-75.52 116.5-75.52 116.5.0.0 36.21-49.22 93.55-86.9 2.11-1.39 5.01-.33 5.85 2.1 25.62 74.12 28.77 108.12 28.77 108.12.0.0 9.35-35.52-5.54-112.68-.43-2.26-.88-4.48-1.33-6.67-.79-3.82.99-7.71 4.42-9.4 13.68-6.74 28.21-12.48 43.42-16.62 9.65-2.63 19.97.62 26.96 8 6.26 6.6 13.74 15.56 21.71 27.33 3.25 4.81 2.79 11.19-.93 15.54-5.69 6.64-11.43 14.23-17.07 22.91-32.79 50.51-44.56 97.24-44.56 97.24.0.0 34.29-51.56 82.85-93.55 1.18-1.02 3.02-.62 3.69.82 1.04 2.25 2.08 4.55 3.12 6.91 25.62 58.71 28.97 72.91 29.38 76.01-.42-6.6-3.65-52.88-14.11-92.83-1.14-4.37.61-8.92 4.25-11.46 13.39-9.33 27.47-17.35 41.93-23.1 6.22-2.47 12.98-3.34 19.66-2.63 58.62 6.22 113.83-4.62 121.11-4.72 9.02-.13 121.69 46.18 126.33 54.31 3.22 5.64-120.5 119.95-230.88 185.12z" fill="#5f352d"/><path d="M553.48 349.88c.03.52.05.8.05.8.0.0.03-.19-.05-.8z" fill="#5f352d"/></g><path d="M715.46 417.22l107.94-72.01s33.36-21.74 88.8-.16c55.44 21.58 80.74 36.63 107.22 41.38 26.48 4.76 40.33-3.87 40.33-3.87.0.0-46.36 152.45-163.72 171.71-82.95 13.61-122.32-21.83-122.32-21.83.0.0 28.03 19.31 50.84 56.21 22.81 36.89 22.43 57.06 37.01 75.93 14.57 18.86 33 26.48 33 26.48.0.0-119.46 28.3-216.76-6.1-128.63-45.48-132.73-167.34-132.73-167.34l170.37-100.4z" fill="#5f352d"/><path d="M756.63 400.42s55.82-63.49 116.57-54.58c60.75 8.9 111.24 39.95 137.32 48.25 26.07 8.29 39.43 1.23 39.43 1.23.0.0-24.3 20.82-51.14 16.81-51.24-7.66-91.58-31.84-148.34-33.38-56.76-1.54-93.83 21.67-93.83 21.67z" fill="#973d30"/><path d="M1038.12 414.31s-29.65 56.79-55.55 80.81c-25.9 24.02-82.93 58.65-151.18 47.78-68.24-10.86-152.59-83.5-152.59-83.5.0.0 35.23-29.65 53.05-42 17.82-12.35 54.14-26.2 92.42-6.53 33.02 16.97 67.93 55.83 67.93 55.83.0.0-7.49-27.39-20.1-43.71-12.61-16.32 28.61-13.88 57.31-3.28 28.71 10.59 44.68 31.27 44.68 31.27.0.0-11.84-23.07-21.64-30.22-9.8-7.15 55.66 11.18 85.66-6.44z" fill="#973d30"/><path d="M662.37 468.02s66.55 34.12 114.23 81.43c47.67 47.31 49.75 79.87 62.43 104.03 12.68 24.16 23.54 30.47 23.54 30.47.0.0-115.15 28.03-193.18-15.42-78.03-43.45-110.07-134.7-109.08-143.38.99-8.68 39.7-34.94 56.81-32.7 17.12 2.23 46.91 28.62 56.99 67.12 10.08 38.5 5.79 76.09 5.79 76.09.0.0 5.68-15.89 8.21-38.06 2.53-22.17 30.11-18.58 52.7 11.77 22.59 30.34 26.39 56.28 26.39 56.28.0.0-1.6-19.78-7.01-40.05-5.41-20.27 28.89 17.47 51.12 34.06 22.23 16.6 33.53 19.05 33.53 19.05.0.0-32.87-24.84-56.23-48.43-23.36-23.59-50.71-54.56-51.11-59.5-.4-4.94 10.39-6.47 22.75-4.86 12.36 1.61 21.43 6.71 21.43 6.71.0.0-19.71-13.33-40.85-14.13-21.14-.8-47.06-18.86-62.53-35.55-15.47-16.69-34.36-45.58-34.36-45.58l18.44-9.34z" fill="#973d30"/><path d="M219.46 56.38s26.17 41.25 31.47 84.99c5.3 43.74 2.12 60.28 2.12 60.28.0.0-5.39-54.19-28.35-89.8-22.95-35.61-47.87-42.77-47.87-42.77l42.63-12.7z" fill="#973d30"/><path d="M345.6 89.8s-61.59-1.51-106.56 31.76c-44.97 33.27-64.44 68.56-64.44 68.56.0.0 38.98-48.4 113.65-71.27 74.67-22.87 107.87-9.41 107.87-9.41l-50.51-19.64z" fill="#973d30"/><path d="M319.9 100.79s30.76 23.58 53.17 86.51c22.41 62.93 30.88 90.13 30.88 90.13.0.0-13.96-91.83-32.38-133.37l-18.42-41.54-33.26-1.73z" fill="#973d30"/><path d="M453.74 145.65s-53.21 15.23-98.09 58.95c-44.88 43.72-54.15 68.6-54.15 68.6.0.0 54.39-59.43 105.95-82.71 51.55-23.28 93.83-21.68 93.83-21.68l-47.54-23.16z" fill="#973d30"/><path d="M448.71 167.17s29.55 11.68 59.76 62.59c30.21 50.91 33.23 69.56 33.23 69.56.0.0-5.05-51.54-25.03-90.67-19.98-39.13-34.26-43.61-34.26-43.61l-33.7 2.13z" fill="#973d30"/><path d="M555.25 203.25s-14.65-1.26-52.75 39.43c-38.1 40.69-49.26 76.41-49.26 76.41.0.0 58.4-71.96 93.71-88.22 35.31-16.26 52.23-17.97 52.23-17.97l-43.93-9.65z" fill="#973d30"/><path d="M683.94 203.08s-49.16 24.89-122.65 3.57c-42.74-12.4-123.01-72.14-194.87-107.61-71.87-35.47-158.08-46.72-225.63-7.26C73.23 131.23 31.63 232 50.68 317.44c21.27 95.4 98.73 172.03 207.27 201.85 108.54 29.82 257.14-9.5 281.14-16.8 23.99-7.31 43.07-16.56 43.07-16.56.0.0-139.22 114.9-341.14 68.99C39.1 509-12.56 307.89 16.88 219.11 51.71 114.06 116.23 36.39 256.96 54.75c140.73 18.36 226.72 110.46 307.75 144.51 48.84 20.52 119.23 3.82 119.23 3.82z" fill="#973d30"/><path d="M763.28 206.91s139.65 39.09 140.57 53.56-27.92 55.26-116.16 127.04c-107.8 87.69-142.62 88.36-142.62 88.36.0.0 75.41-63.21 136.54-113.94 61.12-50.73 95.13-89.34 94.74-97.22-.39-7.88-113.06-57.8-113.06-57.8z" fill="#973d30"/><path d="M957.23 52.19S940.29 11.82 896.1 4.43c-44.19-7.4-76.1 26.92-74.78 63.3 1.32 36.37 28.81 57.57 28.81 57.57.0.0-19.94 22.51-43.2 37.41-23.25 14.9-32.08 18.97-32.08 18.97.0.0 27.1-9.18 53.19-26.32 26.08-17.14 35.92-32.82 35.92-32.82.0.0-34.35-17.53-32.31-55.09 2.04-37.57 24.07-55.89 59.66-54.83 35.59 1.06 65.93 39.58 65.93 39.58z" fill="#973d30"/><path d="M918.55 103.56s4.12-38.92 43.42-47.82c39.3-8.9 86.7 12.62 106.29 52.35 15.86 32.17 6.5 104.95-50.7 118.62-46.79 11.18-80.25-19.77-80.25-19.77.0.0-34.57 23.86-49.17 24.89-14.59 1.03-21.67-.38-21.67-.38l63.64-46s27.03 15.23 59.19 14.08c41.18-1.48 75.67-45.78 52.92-95.83-21.98-48.36-106.01-51.99-123.67-.15z" fill="#973d30"/></g></g></svg>