<svg xmlns="http://www.w3.org/2000/svg" width="1080" height="1026.35" viewBox="0 0 1080 1026.35"><g id="a"/><g id="b"><g id="c"><g id="d"><path d="M36.36 659.03c-4.39.0-8.52-2.67-10.19-7.01C8.81 606.7.0 551 0 486.45c0-93.64 24.35-185.9 70.42-266.79C115.09 141.21 179.3 74.62 256.1 27.07c5.12-3.17 11.84-1.59 15.02 3.53 3.17 5.12 1.59 11.84-3.53 15.02-73.71 45.63-135.34 109.55-178.21 184.84C45.18 308.07 21.82 396.59 21.82 486.45c0 61.87 8.32 114.95 24.73 157.77 2.16 5.62-.66 11.93-6.28 14.09-1.28.49-2.6.73-3.9.73z" fill="#e93d43"/><path d="M1068.9 510.17c-.11.0-.21.0-.32.0-6.02-.17-10.76-5.2-10.59-11.22 2.72-93.76-23.51-183.94-75.86-260.81-48.8-71.65-118.25-129.82-200.86-168.21-83.82-38.95-174.82-54.72-263.18-45.59-94.38 9.75-181.46 48.16-251.82 111.1-4.49 4.02-11.38 3.63-15.4-.86-4.02-4.49-3.63-11.39.86-15.4C325.55 53.15 416.88 12.85 515.86 2.63c92.27-9.53 187.23 6.9 274.61 47.51 86.17 40.05 158.69 100.81 209.7 175.71 54.95 80.69 82.48 175.34 79.63 273.72-.17 5.91-5.02 10.59-10.9 10.59z" fill="#e93d43"/><path d="M11.22 509.9c-5.91.0-10.76-4.72-10.9-10.65-.03-1.46-.08-2.92-.13-4.38-.09-2.72-.19-5.53-.19-8.41.0-93.63 24.36-185.87 70.44-266.76C115.12 141.28 179.34 74.7 256.15 27.14c3.33-2.06 7.5-2.18 10.94-.32s5.62 5.43 5.71 9.34c.03 1.46.08 2.92.13 4.38.09 2.72.19 5.53.19 8.41.0 134.44-49.75 263.26-140.09 362.72-4.05 4.46-10.95 4.79-15.41.74-4.46-4.05-4.79-10.95-.74-15.41C201.92 303.38 249.48 182.62 251.25 56.27c-66.48 44.72-122.19 104.61-161.85 174.22C45.19 308.09 21.82 396.6 21.82 486.45c0 2.51.09 5.02.17 7.67.05 1.54.1 3.07.14 4.62.14 6.02-4.63 11.02-10.65 11.16-.09.0-.17.0-.26.0z" fill="#e93d43"/><path d="M212 775.45c-81.17.0-154.06-48.31-185.68-123.08-2.35-5.55.25-11.95 5.8-14.3 5.55-2.35 11.95.25 14.3 5.8 28.2 66.68 93.2 109.76 165.59 109.76 99.09.0 179.71-80.62 179.71-179.71.0-44.81-16.59-87.73-46.71-120.86-4.05-4.46-3.72-11.36.73-15.41 4.46-4.05 11.36-3.73 15.41.73 33.78 37.15 52.38 85.28 52.38 135.53.0 111.12-90.4 201.53-201.52 201.53z" fill="#e93d43"/><path d="M124.93 415.23c-3.96.0-7.77-2.16-9.71-5.92-2.76-5.36-.65-11.93 4.71-14.69 28.25-14.53 60.09-22.22 92.07-22.22 29.48.0 57.89 6.22 84.46 18.5 5.47 2.53 7.85 9.01 5.33 14.48-2.53 5.47-9.01 7.85-14.48 5.33-23.67-10.94-49.01-16.49-75.31-16.49-28.93.0-56.55 6.66-82.09 19.8-1.6.82-3.3 1.21-4.98 1.21z" fill="#e93d43"/><path d="M104.05 624.03c0 8.5-6.89 15.4-15.4 15.4s-15.4-6.89-15.4-15.4 6.89-15.4 15.4-15.4 15.4 6.89 15.4 15.4z" fill="#e93d43"/><path d="M329.87 624.03c0 8.5-6.89 15.4-15.4 15.4s-15.4-6.89-15.4-15.4 6.89-15.4 15.4-15.4 15.4 6.89 15.4 15.4z" fill="#e93d43"/><path d="M171.16 701.01 197.05 726.67 222.93 701.01H171.16z" fill="#e93d43"/><path d="M976.8 443.17c-3.47.0-6.88-1.65-9-4.72-15.86-23.04-32.25-46.86-41.02-74.9-10.26-32.81-6.98-65.15 9-88.72 14.22-20.97 40.08-33.41 64.36-30.96 5.99.61 10.36 5.95 9.76 11.95-.61 5.99-5.96 10.35-11.95 9.76-16.28-1.66-34.42 7.2-44.12 21.5-12.05 17.77-14.38 43.93-6.23 69.97 7.79 24.9 23.24 47.34 38.17 69.05 3.42 4.96 2.16 11.75-2.8 15.17-1.89 1.3-4.04 1.92-6.17 1.92z" fill="#e93d43"/><path d="M522.62 917.63c-2.44.0-4.9-.82-6.94-2.49-64.05-52.86-100.78-130.75-100.78-213.7.0-73.98 28.81-143.52 81.12-195.83 52.31-52.31 121.86-81.12 195.83-81.12 6.02.0 10.91 4.88 10.91 10.91s-4.88 10.91-10.91 10.91c-68.15.0-132.22 26.54-180.41 74.73-48.19 48.19-74.73 112.26-74.73 180.41.0 76.42 33.84 148.18 92.85 196.88 4.65 3.84 5.3 10.71 1.47 15.36-2.16 2.61-5.28 3.96-8.42 3.96z" fill="#e93d43"/><path d="M539.9 1026.35c-66.25.0-130.95-11.86-192.31-35.26l-1.84-.71c-25.53-9.5-44.04-43.3-38.85-70.97 1.11-5.92 6.81-9.82 12.73-8.71 5.92 1.11 9.82 6.81 8.71 12.73-3.24 17.25 9.41 40.72 25.05 46.51.05.02.1.04.15.05l1.86.72c58.82 22.43 120.91 33.81 184.49 33.81 69.95.0 137.79-13.7 201.66-40.71 61.69-26.09 117.1-63.45 164.68-111.04 47.58-47.58 84.94-102.99 111.03-164.68 27.01-63.87 40.71-131.71 40.71-201.66.0-6.02 4.88-10.91 10.91-10.91s10.91 4.88 10.91 10.91c0 72.88-14.28 143.59-42.43 210.16-27.19 64.29-66.12 122.03-115.7 171.61-49.58 49.58-107.32 88.51-171.61 115.7-66.57 28.16-137.28 42.43-210.16 42.43z" fill="#e93d43"/><path d="M317.64 932.34c-.67.0-1.34-.06-2.02-.19-5.92-1.11-9.82-6.81-8.71-12.73 4.27-22.75 20.75-44.08 45.2-58.52 23.81-14.06 53.85-18.97 84.6-13.85 29.29 4.88 56.9 18.28 77.73 37.73 4.4 4.11 4.64 11.01.53 15.42-4.11 4.4-11.01 4.64-15.42.53-17.73-16.55-41.32-27.97-66.43-32.16-25.7-4.28-50.53-.33-69.93 11.12-19.04 11.24-31.74 27.19-34.86 43.76-.98 5.24-5.56 8.9-10.71 8.9z" fill="#e93d43"/><path d="M276.25 928.68c-9.83.0-19.34-1.08-28.35-3.24-23.36-5.62-41.7-18.15-53.03-36.24-12.03-19.22-14.95-42.59-8.46-67.59 6.11-23.53 20.04-46.43 40.27-66.22 4.31-4.21 11.21-4.14 15.42.17 4.21 4.31 4.14 11.21-.17 15.43-34.81 34.05-46.56 77.9-28.57 106.63 16.84 26.89 57.16 36.35 100.35 23.52 5.78-1.71 11.85 1.58 13.56 7.35 1.72 5.78-1.58 11.85-7.35 13.56-14.84 4.41-29.58 6.62-43.67 6.62z" fill="#e93d43"/><path d="M353.07 456.64c-3.18.0-6.34-1.39-8.49-4.06-3.78-4.69-3.05-11.55 1.64-15.34 110.38-89.11 171.97-223.41 173.95-378.81-56.13 37.57-103.11 84.17-139.83 138.73-41.7 61.98-67.83 130.98-77.64 205.07-.79 5.97-6.27 10.16-12.25 9.38-5.97-.79-10.17-6.27-9.38-12.25 10.26-77.46 37.57-149.58 81.17-214.38 41.97-62.38 96.76-114.75 162.83-155.66 3.33-2.06 7.5-2.18 10.94-.32 3.44 1.86 5.62 5.43 5.71 9.34.03 1.41.08 2.82.13 4.22.09 2.63.18 5.36.18 8.15.0 165.39-64.67 308.69-182.11 403.49-2.02 1.63-4.44 2.42-6.84 2.42z" fill="#e93d43"/></g></g></g></svg>