<svg id="_Слой_2" xmlns="http://www.w3.org/2000/svg" width="1080" height="782.97" viewBox="0 0 1080 782.97"><g id="Cyber_monday08_509857552"><g id="Cyber_monday08_509857552-2"><g id="BUTTON"><path d="M721.34 722.03c-1.16-5.85-1.61-11.47-3.94-16.15-2.56-5.15-8.4-9.85-13.55-10.79-78.61-2.99-237.17-32.83-321.49 9.09-13.37 14.24-19.72 28.5-22.33 43.23 5.39-2.09 9.36-2.32 13.81-.44l-14.99 7.45c-.49 9.59-.04 18.72 1.34 28.55 8.2-7 29.98-13.74 56.65-15.31 39.55-2.72 75.36-10.59 111.15-7.94 1.87.24 9.82 2.13 4.22-3.27-27.59-7.32-68.09 2.89-97.81 4.22-1.64.23-13.11 1.84-13.34.2-1.15-7.02 9.37-4.66 13.82-5.12 31.83-2.97 68.11-11.07 103.43-5.85l19.39 13.15 4.69-4.67c22.42 15.73 58.94 6.92 83.03 10.72l2.56 5.15c15.22-4.64 33.01-11.15 45.66-17.44 10.31-5.12 17.35-17.98 16.44-29.21l11.24-5.59zm-309.86 39.54-19.66 1.59c-6.08-.48-2.1-4.22-.46-4.45l15.21-1.13c1.64-.23 8.2-5.83 4.9 3.99z" fill="#006400"/><g id="SHOP_NOW"><path d="M427.54 739.38v4.45h-13.34v-4.45h-4.39v-4.55h4.5v4.5h8.74v-8.72h-8.84v-4.44h-4.39v-13.26h4.39v-4.5h13.34v4.5h4.39v4.5h-4.5v-4.45h-8.74v8.72h8.84v4.44h4.39v13.26h-4.39z" fill="#212326"/><path d="M458.3 743.82v-17.68h-8.74v17.68h-8.9v-35.42h8.9v13.24h8.74v-13.24h8.9v35.42h-8.9z" fill="#212326"/><path d="M498.12 739.38v4.45h-17.74v-4.45h-4.39v-26.47h4.39v-4.5h17.74v4.5h4.39v26.47h-4.39zm-4.5-26.42h-8.74v26.37h8.74v-26.37z" fill="#212326"/><path d="M533.43 726.14v4.45h-8.9v-4.5h4.39v-13.18h-8.74v30.92h-8.9v-35.42h22.13v4.45h4.39v13.29h-4.39z" fill="#212326"/><path d="M573.09 743.82v-8.84h-4.45v-8.84h-4.29v17.68h-4.5V708.4h8.9v8.84h4.39v8.84h4.34v-17.68h4.5v35.42h-8.9z" fill="#212326"/><path d="M612.86 739.38v4.45h-17.74v-4.45h-4.4v-26.47h4.4v-4.5h17.74v4.5h4.39v26.47h-4.39zm-4.5-26.42h-8.74v26.37h8.74v-26.37z" fill="#212326"/><path d="M665.78 721.74v13.18h-4.37v8.9h-8.9v-8.9l-8.74.05v8.84h-8.95v-8.9l-4.39.05v-13.24h-4.4v-13.34h8.9v13.24h4.39v13.18l4.34.05v-4.4h4.39v-8.74h-4.39v-13.34h8.87v13.24h4.42v13.18l4.34.05v-26.47h8.9v13.34h-4.42z" fill="#212326"/></g></g><g id="CYBER_MONDAY_SALE"><g id="SALE"><path d="M189.38 195.48c20.1 4.71 34 21.45 37.76 41.33 3.18 2.09 4.92 4.71 5.62 7.32 2.94 10.99-10.92 25.64-29.68 29.82-14.77-14.13 2.35-14.65-4.42-20.4-52.84.0-76.72 10.46-113.54 42.9l2.1 7.85 26.18 15.7c26.7 15.69 50.64 23.02 70.96 40.28l4.77-3.66c19.52 16.22 33.74 36.1 36.34 49.7l8.08 41.85-9.45-2.09c-9.56 20.93-34.86 39.76-62.08 53.36-18.04-6.8-26.23-4.19-21.93 9.94-22.59 9.42-43.82 14.13-53.24 14.13-7.32.0-22.12-8.37-37.9-20.4-22.05-4.18-30.12-16.74-30.03-26.16-9.32-9.42-16.42-18.31-17.96-24.07-3.5-13.08 3.29-20.93 9.98-27.2 10.86 7.32 29.36 25.64 38.78 25.64 24.59.0 69.46-14.13 95.09-43.42l-1.4-5.23c-16.44-12.56-33.07-35.57-40.81-29.3-19.17-18.83-27.55-26.68-35.15-19.88-9.01-6.28-26.5-18.83-33.04-33.48-7.63-16.74-19.09-36.1-21.51-47.09-8.36-42.9 64.9-85.8 131.34-85.8 13.08.0 30.48.52 43.98 2.09l1.16 6.28zm-73.96 69.58c-17.29 5.75-34.55 13.6-32.83 21.97l32.97-21.45-.14-.52zm15.86 234.9-16.21 7.85 3.6 3.66 14.29-5.23-1.68-6.28zm88.4-226.53 10.7-8.89c1.68 6.28.25 6.8-5.01 12.56l-5.69-3.66z" fill="#006400"/><path d="M490.98 399.51c-1.8 8.89 5.94 31.91-2.25 42.38 8.45 4.19 7.76 17.26 2.65 23.54 5.24 7.85 8.88 13.6 1.81 28.25.04 2.09 4.57-.52 5.33-1.57 3.72 17.79 3.32 31.91 2.29 47.61-16.22.0-35.07-15.69-42.6-12.56-2.28-10.46-4.97-14.65-12.3-14.65l-1.44-7.32c2.62.0 4.29-1.57 3.83-5.23-2.62.0-5.13-1.57-6.11-5.23-2.18-12.03.03-27.2-1.03-42.9 3.66.0 5.48 6.8 7.06 14.65 3.66.0 3.67-21.45 1.49-33.48l-6.98-2.62c1.72 8.37 4.8 19.88-2.18 17.26-.39-7.32-3.73-25.64-3.84-31.91l11.84 10.99c-2.21-6.28-.01-7.85-3.16-15.69-30.1-1.05-97.74 41.33-116.94 57.55l-.79 6.8 3.77 6.28c-3.99 18.31-6.09 39.76-11.51 50.75l-36.74-14.13c-5.92-16.22-30.23-23.02-28.12-36.62h-8.37c-9.66-79 55-163.75 86.52-229.67 15.9-32.44 34.6-54.41 50.66-70.63 2.82-3.14 18.87 2.09 17.25-7.85 7.36 2.09 23.69 8.37 33.22 14.65l-8.58 3.14c1.86 8.89 12.28-1.05 15.45 1.05 23.84 16.74 20.43 44.99 34.43 60.16 1.22 2.62 12.23 47.61 5.65 52.32 1.33 1.05 1.85 1.05 3.7 2.09-.05 11.51-.17 26.68 2.7 41.33 1.16 6.28 25.81 24.06 30.4 47.08-9.14 1.05-18.52 3.14-27.13 4.19zm-154.63 41.85c-1.63 3.66-2.12 5.76-3.23 9.42l34.15-20.93c-8.2-5.23-22.38 6.28-30.92 11.51zm16.61-21.97c-3.76 1.57-6.76 2.09-10.01 3.66l-3.9 8.89c1.81-1.05 12.72-5.23 13.9-12.56zm79.71-178.92c-9.8.52-26.01 29.82-40.52 59.64l-3.32-2.62c.45-4.18 1.18-7.32-1.48-9.42-5.85 9.42-8.25 14.13-.88 24.07-5.04 10.46-9.84 19.88-14.4 28.25-6.19 12.03-14.29 34.53-21.7 51.79 8.78-6.28 13.68-17.26 32.23-26.16 16.21-7.85 26.63-9.94 44.07-15.17-2.07-13.6.49-23.54.62-30.87l11 7.85c1.93-16.22-2.1-58.59-2.65-82.14l-2.97-5.23zM388.5 417.3l-.14-.52c-11.37.52-15.8 1.57-15.65 9.94 4.01-2.62 11.01-5.75 15.79-9.42zm43.03-145.96h-4.71l.4-14.13 4.15-2.09.16 16.22zm2.07 64.35-2.23-.52-.55 5.76h4.71l-1.93-5.23zm-2.47 8.37c-.41 6.28 3.25 6.28 6.77 5.76l-1.02-5.76h-5.75zm17.57 126.08-.27 6.8h3.14l-.15-8.37-2.72 1.57z" fill="#006400"/><path d="M808.47 403.18c-9.02 7.32-16.83 9.42-22.21 8.89-6.28.0-8.13-1.05-9.59-2.62-6.89 9.42 10.38 17.26 42.17 3.14 2.48-.52 7.08 1.05 5.27 2.09-8.68 4.71-27.57 16.22-34.89 16.22-12.03.0-20.08 3.14-30.09 6.8-29.88 11.51-76.86 31.39-110.47 46.56-6.1 2.62-14.28 13.08-20.42 13.6-6 1.05-18.8 2.09-25.6 2.09-4.19.0-8.03-2.62-10.44-5.75h-12.03c-9.95-7.85-23.19-24.07-29.99-24.07h-6.28c-15.78-92.08 40.54-233.33 71.75-294.54l-2.24-8.37c29.3.0 50.78 23.54 57.51 48.65 1.68 6.28-9.02 65.92-13.81 83.18-3.33 10.99-15.87 26.68-21.4 39.24-2.89 6.8-2.38 20.4-4.6 27.73-2.95 10.46-18.36 19.36-8.01 34.53 32.63-10.99 39.15-12.03 43.06-13.08 5.33-1.57 11.71-3.14 18.52-3.14 8.37.0 16.92 2.62 23.07 9.94 1.92-2.62 20.6-10.99 23.21-10.99 7.32.0 8.55 2.62 15.87 2.62 6.8.0 31.62-8.89 48.01-14.13.8 1.05 3.18 2.09 6.98 2.62l.14.52c-14.82 5.23-34.86 10.46-46.22 18.83l6.07 3.14c14.68-5.75 43.71-20.4 60.9-24.59 6.84 2.09 15.42 6.8 16.23 7.85 7.01-3.14 18.65-10.46 20.15-6.8 3.53 7.32-25.75 23.02-50.6 29.82zm-199.96-35.57c-1.14 9.42-5.03 18.31 2.61 21.45l4.09-19.88-6.7-1.57zm19.55-40.28c-5.23.0-5.64 6.28-4.8 9.42h7.32l-2.52-9.42zm132.24 95.22c-26.33 5.23-78.65 26.68-109.98 44.47l1.08 2.09 118.25-42.9-9.35-3.66zm-45.09-19.88 9.83-6.28c-3.04-1.57-8.93-2.09-14.09 2.09l4.26 4.18zm92.18-30.87c-1.43.52-6.32-2.09-4.89-2.62l9.62-3.14c5.33-1.57 5.65 1.57 3.32 2.62l-8.05 3.14zm24.12 39.24c-3.24 1.57-5.61.52-7.74-1.57l-.14-.52c27.22-13.6 30.32-15.69 35.35-12.56l-27.46 14.65zm9.79-37.67c-3.18-2.09-6.21-3.66-9.11-4.71 1.67-1.57 18.3-7.85 19-5.23.84 3.14-6.93 7.32-9.89 9.94z" fill="#006400"/><path d="M1053.88 253.03c-41.86 21.45-90.09 23.02-132.63 36.1-3.23 9.42-7.33 21.45-12.44 35.58 20.37-2.09 59.02-19.88 74.19-19.88s21.28 5.23 37.32 24.07c-.55 5.75 3.47 10.99 9.4 13.6l-.58 11.51c-30.51 5.23-105.1 17.79-128.17 29.3-12.06 5.76-8.67 63.3-5.97 75.34 19.44 12.03 42.63 6.8 56.82 3.14l4.54 5.23c3.66.0 7.53-3.14 6.69-6.28 7.57-1.05 13.55 11.51 20.31 9.42 31.48-9.42 68.12-23.02 92.04-31.39 1.43-.52 3.38-1.05 4.32.52 1.75 2.62-5.12 6.28-8.74 8.37l-32.07 13.08c3.7 2.09 10.44 5.75 14.66 7.85 1.71.52.94 1.57-.49 2.09-23.77 8.89-53.83 17.79-81.16 25.11 8.83 3.66 20.34 3.66 29.58 1.05 19.38-5.76 45.49-15.69 68.75-24.59 1.43-.52 4.67-2.09 3.46 3.14-1.74 5.23-4.94 8.89-11.56 11.51-30.5 13.08-70.24 28.77-102.15 28.77-61.21.0-112.06-27.73-130.44-104.11-9.33-38.71 9.83-86.32 26.57-166.37-6.12-13.08-8.96-25.63-3.33-39.76 27 3.14 31.38-37.14 49.69-37.14 9.94.0 39.77 7.85 47.13 9.94 3.61 11.51 4.22 23.54.68 37.67 9.45 2.09 35.27 4.71 46.78 4.71l7.37 9.94c2.62.0 6.48-3.14 12.24-3.14s19.71 5.23 27.32 6.28c1.05.0 2.37 1.05 1.61 2.09-15.88 18.83-33.61 7.32-25.75 23.02 14.01-6.28 26.11-9.94 38.94-16.74 1.81-1.05 3.97-4.71 5.33-1.57 2.45 5.23-6.13 8.37-10.24 12.56zm-171.93 149.1h.52c2.02-4.19 5.08-8.37 5.77-13.6-6.94-.52-8.19 2.62-7.84 7.85l1.54 5.75zm-.06 3.66-.57 19.36 4.92 4.71.74-24.59-5.09.52zm-.38 29.82c.43 9.42 1.73 16.22 6.76 19.36l-1.17-14.13-5.59-5.23zm9.94-109.34 6.52-1.05 2.01-12.03c-3.66.0-8.5 7.32-8.53 13.08zm14.67-35.05-4.97 14.65 6.38-1.57 4.97-14.65-6.38 1.57zm110.07 156.95c-11.71 10.99-28.05 18.31-36.99 8.37 22.66-5.23 44.63-13.08 61.88-20.93 1.81-1.05 2.76.52 2.13 2.09-4.32 7.32-16.94 10.99-27.02 10.46zm-7.46-211.36 3.25 6.28 8.29-4.19c-1.22-2.62-8.69-3.14-11.55-2.09z" fill="#006400"/></g><g id="MONDAY"><path d="M121.39 618.2c-.94-.94-1.41-2.08-1.41-3.41V513.45c0-1.22.47-2.33 1.41-3.33.94-1 2.08-1.5 3.41-1.5h27.29c1.33.0 2.47.5 3.41 1.5.94 1 1.41 2.11 1.41 3.33v8.99c0 1.22.5 2.3 1.49 3.24.99.94 2.1 1.42 3.32 1.42h8.94c1.21.0 2.29.5 3.23 1.48.94.99 1.41 2.09 1.41 3.3v8.91c0 1.21.5 2.31 1.49 3.3.99.99 2.1 1.48 3.32 1.48h8.94c1.21.0 2.32-.49 3.31-1.48.99-.99 1.49-2.09 1.49-3.3v-8.91c0-1.21.48-2.31 1.43-3.3.95-.99 2.04-1.48 3.27-1.48h9.07c1.23.0 2.35-.47 3.36-1.42 1.01-.94 1.51-2.02 1.51-3.24v-8.99c0-1.22.47-2.33 1.41-3.33.94-1 2.08-1.5 3.41-1.5h27.29c1.33.0 2.47.5 3.41 1.5.94 1 1.41 2.11 1.41 3.33v101.34c0 1.33-.47 2.47-1.41 3.41-.94.94-2.08 1.41-3.41 1.41h-27.29c-1.33.0-2.47-.47-3.41-1.42-.94-.94-1.41-2.08-1.41-3.42v-64.55c0-1.22-.5-2.31-1.51-3.25-1.01-.94-2.13-1.42-3.36-1.42h-9.07c-1.23.0-2.32.47-3.27 1.41-.95.94-1.43 2.03-1.43 3.25v27.46c0 1.22-.5 2.33-1.49 3.33-.99 1-2.1 1.5-3.31 1.5h-27.33c-1.22.0-2.32-.5-3.32-1.5-.99-1-1.49-2.11-1.49-3.33v-8.82c0-1.33-.47-2.47-1.41-3.41-.94-.94-2.08-1.41-3.41-1.41h-8.82c-1.22.0-2.33.47-3.33 1.41-1 .94-1.5 2.08-1.5 3.41v45.91c0 1.34-.47 2.48-1.41 3.43-.94.95-2.08 1.42-3.41 1.42h-8.82c-1.33.0-2.47-.47-3.41-1.41z" fill="#f28500"/><path d="M306.35 618.2c-1-.94-1.5-2.08-1.5-3.41v-8.82c0-1.33-.47-2.47-1.41-3.41-.94-.94-2.08-1.41-3.41-1.41h-8.82c-1.33.0-2.47-.47-3.41-1.41-.94-.94-1.41-2.08-1.41-3.41v-64.4c0-1.22.47-2.33 1.41-3.33.94-1 2.08-1.5 3.41-1.5h8.82c1.33.0 2.47-.47 3.41-1.42.94-.94 1.41-2.02 1.41-3.24v-8.99c0-1.22.5-2.33 1.5-3.33 1-1 2.11-1.5 3.33-1.5h64.4c1.22.0 2.33.5 3.33 1.5 1 1 1.5 2.11 1.5 3.33v8.99c0 1.22.47 2.3 1.41 3.24.94.94 2.08 1.42 3.41 1.42h8.82c1.22.0 2.33.5 3.33 1.5 1 1 1.5 2.11 1.5 3.33v64.4c0 1.33-.5 2.47-1.5 3.41-1 .94-2.11 1.41-3.33 1.41h-8.82c-1.33.0-2.47.47-3.41 1.41-.94.94-1.41 2.08-1.41 3.41v8.82c0 1.33-.5 2.47-1.5 3.41-1 .94-2.11 1.41-3.33 1.41h-64.4c-1.22.0-2.33-.47-3.33-1.41zm49.26-17.06c1.22.0 2.33-.47 3.33-1.41 1-.94 1.5-2.08 1.5-3.41v-64.4c0-1.22-.5-2.33-1.5-3.33-1-1-2.11-1.5-3.33-1.5h-27.46c-1.22.0-2.33.5-3.33 1.5-1 1-1.5 2.11-1.5 3.33v64.4c0 1.33.5 2.47 1.5 3.41 1 .94 2.11 1.41 3.33 1.41h27.46z" fill="#f28500"/><path d="M435.74 618.2c-.94-.94-1.41-2.08-1.41-3.41V513.45c0-1.22.47-2.33 1.41-3.33.94-1 2.07-1.5 3.4-1.5h45.83c1.22.0 2.3.5 3.24 1.49.94.99 1.41 2.1 1.41 3.31v27.33c0 1.22.5 2.32 1.5 3.32 1 .99 2.1 1.49 3.32 1.49h8.97c1.22.0 2.32.48 3.32 1.42 1 .95 1.5 2.03 1.5 3.26v27.58c0 1.23.48 2.34 1.43 3.34.95 1 2.04 1.5 3.27 1.5h9.07c1.23.0 2.35-.5 3.36-1.5 1.01-1 1.51-2.11 1.51-3.33v-64.4c0-1.22.47-2.33 1.41-3.33.94-1 2.08-1.5 3.41-1.5h8.82c1.22.0 2.33.5 3.33 1.5 1 1 1.5 2.11 1.5 3.33v101.34c0 1.33-.5 2.47-1.5 3.41-1 .94-2.11 1.41-3.33 1.41h-45.93c-1.22.0-2.33-.47-3.33-1.41-1-.94-1.5-2.08-1.5-3.41v-27.29c0-1.33-.47-2.47-1.41-3.41-.94-.94-2.03-1.41-3.25-1.41h-8.99c-1.22.0-2.33-.5-3.33-1.5-1-1-1.5-2.12-1.5-3.34v-27.58c0-1.22-.47-2.31-1.41-3.26-.94-.95-2.08-1.42-3.41-1.42h-8.82c-1.22.0-2.33.47-3.33 1.42-1 .95-1.5 2.03-1.5 3.25v64.55c0 1.34-.47 2.48-1.41 3.42-.94.95-2.08 1.42-3.41 1.42h-8.82c-1.33.0-2.47-.47-3.41-1.41z" fill="#f28500"/><path d="M583.67 618.2c-.94-.94-1.41-2.08-1.41-3.41V513.45c0-1.22.47-2.33 1.41-3.33.94-1 2.08-1.5 3.41-1.5h82.87c1.22.0 2.33.5 3.33 1.5 1 1 1.5 2.11 1.5 3.33v8.99c0 1.22.47 2.3 1.41 3.24.94.94 2.08 1.42 3.41 1.42h8.82c1.22.0 2.33.5 3.33 1.5 1 1 1.5 2.11 1.5 3.33v64.4c0 1.33-.5 2.47-1.5 3.41-1 .94-2.11 1.41-3.33 1.41h-8.82c-1.33.0-2.47.47-3.41 1.41-.94.94-1.41 2.08-1.41 3.41v8.82c0 1.33-.5 2.47-1.5 3.41-1 .94-2.11 1.41-3.33 1.41h-82.87c-1.33.0-2.47-.47-3.41-1.41zm67.81-17.06c1.22.0 2.33-.47 3.33-1.41 1-.94 1.5-2.08 1.5-3.41v-64.4c0-1.22-.5-2.33-1.5-3.33-1-1-2.11-1.5-3.33-1.5h-27.46c-1.22.0-2.33.5-3.33 1.5-1 1-1.5 2.11-1.5 3.33v64.4c0 1.33.5 2.47 1.5 3.41 1 .94 2.11 1.41 3.33 1.41h27.46z" fill="#f28500"/><path d="M731.61 618.2c-.94-.94-1.41-2.08-1.41-3.41v-82.87c0-1.22.47-2.33 1.41-3.33.94-1 2.08-1.5 3.41-1.5h8.82c1.33.0 2.47-.47 3.41-1.42.94-.94 1.41-2.02 1.41-3.24v-8.99c0-1.22.5-2.33 1.5-3.33 1-1 2.11-1.5 3.33-1.5h64.4c1.22.0 2.33.5 3.33 1.5 1 1 1.5 2.11 1.5 3.33v8.99c0 1.22.47 2.3 1.41 3.24.94.94 2.08 1.42 3.41 1.42h8.82c1.22.0 2.33.5 3.33 1.5 1 1 1.5 2.11 1.5 3.33v82.87c0 1.33-.5 2.47-1.5 3.41-1 .94-2.11 1.41-3.33 1.41H808.9c-1.22.0-2.3-.47-3.25-1.41-.94-.94-1.41-2.08-1.41-3.41v-27.29c0-1.33-.5-2.47-1.5-3.41-1-.94-2.11-1.41-3.33-1.41h-27.46c-1.22.0-2.33.47-3.33 1.41-1 .94-1.5 2.08-1.5 3.41v27.29c0 1.33-.47 2.47-1.41 3.41-.94.94-2.08 1.41-3.41 1.41h-27.29c-1.33.0-2.47-.47-3.41-1.41zm67.81-54c1.22.0 2.33-.5 3.33-1.5 1-1 1.5-2.11 1.5-3.33v-27.46c0-1.22-.5-2.33-1.5-3.33-1-1-2.11-1.5-3.33-1.5h-27.46c-1.22.0-2.33.5-3.33 1.5-1 1-1.5 2.11-1.5 3.33v27.46c0 1.22.5 2.33 1.5 3.33 1 1 2.11 1.5 3.33 1.5h27.46z" fill="#f28500"/><path d="M898.1 618.2c-1-.94-1.5-2.08-1.5-3.41v-45.76c0-1.33-.47-2.47-1.41-3.41-.94-.94-2.08-1.41-3.41-1.41h-8.82c-1.33.0-2.47-.5-3.41-1.5-.94-1-1.41-2.11-1.41-3.33v-8.99c0-1.22-.47-2.3-1.41-3.24-.94-.94-2.08-1.42-3.41-1.42h-8.82c-1.33.0-2.47-.5-3.41-1.5-.94-1-1.41-2.11-1.41-3.33v-27.46c0-1.22.47-2.33 1.41-3.33.94-1 2.08-1.5 3.41-1.5h27.29c1.33.0 2.47.5 3.41 1.5.94 1 1.41 2.11 1.41 3.33v8.99c0 1.22.5 2.3 1.5 3.24 1 .94 2.11 1.42 3.33 1.42h8.82c1.33.0 2.47.5 3.41 1.5.94 1 1.41 2.11 1.41 3.33v8.99c0 1.22.5 2.33 1.5 3.33 1 1 2.11 1.5 3.33 1.5h8.99c1.22.0 2.3-.5 3.25-1.5.94-1 1.41-2.11 1.41-3.33v-27.46c0-1.22.5-2.33 1.49-3.33.99-1 2.1-1.5 3.32-1.5h27.33c1.21.0 2.32.5 3.31 1.5.99 1 1.49 2.11 1.49 3.33v8.99c0 1.22-.5 2.3-1.49 3.24-.99.94-2.1 1.42-3.31 1.42h-8.94c-1.22.0-2.29.5-3.23 1.5-.94 1-1.41 2.11-1.41 3.33v8.99c0 1.22-.5 2.33-1.49 3.33-.99 1-2.1 1.5-3.31 1.5h-8.94c-1.22.0-2.32.47-3.32 1.42-.99.94-1.49 2.03-1.49 3.24v64.4c0 1.33-.47 2.47-1.41 3.41-.94.94-2.03 1.41-3.25 1.41h-27.46c-1.22.0-2.33-.47-3.33-1.41z" fill="#f28500"/></g><g id="CYBER"><path d="M232.38 206.5c-1-.94-1.5-2.08-1.5-3.41v-8.82c0-1.33-.47-2.47-1.41-3.41-.94-.94-2.08-1.41-3.41-1.41h-8.82c-1.33.0-2.47-.47-3.41-1.41-.94-.94-1.41-2.08-1.41-3.41V120.21c0-1.22.47-2.33 1.41-3.33.94-1 2.08-1.5 3.41-1.5h8.82c1.33.0 2.47-.47 3.41-1.41.94-.94 1.41-2.02 1.41-3.25v-8.99c0-1.22.5-2.33 1.5-3.33 1-1 2.11-1.5 3.33-1.5h82.87c1.22.0 2.33.5 3.33 1.5 1 1 1.5 2.11 1.5 3.33v27.46c0 1.22-.5 2.33-1.5 3.33-1 1-2.11 1.5-3.33 1.5h-8.82c-1.33.0-2.47-.5-3.41-1.5-.94-1-1.41-2.11-1.41-3.33v-8.99c0-1.22-.5-2.33-1.5-3.33-1-1-2.11-1.5-3.33-1.5h-45.93c-1.22.0-2.33.5-3.33 1.5-1 1-1.5 2.11-1.5 3.33v64.4c0 1.33.5 2.47 1.5 3.41 1 .94 2.11 1.41 3.33 1.41h45.93c1.22.0 2.33-.47 3.33-1.41 1-.94 1.5-2.08 1.5-3.41v-8.82c0-1.33.47-2.47 1.41-3.41.94-.94 2.08-1.41 3.41-1.41h8.82c1.22.0 2.33.47 3.33 1.41 1 .94 1.5 2.08 1.5 3.41v8.82c0 1.33-.5 2.47-1.5 3.41-1 .94-2.11 1.41-3.33 1.41h-8.82c-1.33.0-2.47.47-3.41 1.41-.94.94-1.41 2.08-1.41 3.41v8.82c0 1.33-.5 2.47-1.5 3.41-1 .94-2.11 1.41-3.33 1.41h-64.4c-1.22.0-2.33-.47-3.33-1.41z" fill="#f28500"/><path d="M380.32 206.5c-1-.94-1.5-2.08-1.5-3.41v-45.76c0-1.33-.47-2.47-1.41-3.41-.94-.94-2.08-1.41-3.41-1.41h-8.82c-1.33.0-2.47-.5-3.41-1.5-.94-1-1.41-2.11-1.41-3.33v-8.99c0-1.22-.47-2.3-1.41-3.25-.94-.94-2.08-1.41-3.41-1.41h-8.82c-1.33.0-2.47-.5-3.41-1.5-.94-1-1.41-2.11-1.41-3.33v-27.46c0-1.22.47-2.33 1.41-3.33.94-1 2.08-1.5 3.41-1.5h27.29c1.33.0 2.47.5 3.41 1.5.94 1 1.41 2.11 1.41 3.33v8.99c0 1.22.5 2.3 1.5 3.25 1 .94 2.11 1.41 3.33 1.41h8.82c1.33.0 2.47.5 3.41 1.5.94 1 1.41 2.11 1.41 3.33v8.99c0 1.22.5 2.33 1.5 3.33 1 1 2.11 1.5 3.33 1.5h8.99c1.22.0 2.3-.5 3.25-1.5.94-1 1.41-2.11 1.41-3.33v-27.46c0-1.22.5-2.33 1.49-3.33.99-1 2.1-1.5 3.32-1.5h27.33c1.21.0 2.32.5 3.31 1.5.99 1 1.49 2.11 1.49 3.33v8.99c0 1.22-.5 2.3-1.49 3.25-.99.94-2.1 1.41-3.31 1.41h-8.94c-1.22.0-2.29.5-3.23 1.5-.94 1-1.41 2.11-1.41 3.33v8.99c0 1.22-.5 2.33-1.49 3.33-.99 1-2.1 1.5-3.31 1.5h-8.94c-1.22.0-2.32.47-3.32 1.41-.99.94-1.49 2.03-1.49 3.25v64.4c0 1.33-.47 2.47-1.41 3.41-.94.94-2.03 1.41-3.25 1.41h-27.46c-1.22.0-2.33-.47-3.33-1.41z" fill="#f28500"/><path d="M472.76 206.5c-.94-.94-1.41-2.08-1.41-3.41V101.74c0-1.22.47-2.33 1.41-3.33.94-1 2.08-1.5 3.41-1.5h82.87c1.22.0 2.33.5 3.33 1.5 1 1 1.5 2.11 1.5 3.33v8.99c0 1.22.47 2.3 1.41 3.25.94.94 2.08 1.41 3.41 1.41h8.82c1.22.0 2.33.5 3.33 1.48 1 .99 1.5 2.09 1.5 3.3v8.91c0 1.21-.5 2.31-1.5 3.3-1 .99-2.11 1.48-3.33 1.48h-8.82c-1.33.0-2.47.48-3.41 1.43-.94.95-1.41 2.04-1.41 3.27v9.07c0 1.23.47 2.35 1.41 3.36.94 1.01 2.08 1.51 3.41 1.51h8.82c1.22.0 2.33.47 3.33 1.41 1 .94 1.5 2.08 1.5 3.41v27.29c0 1.33-.5 2.47-1.5 3.41-1 .94-2.11 1.41-3.33 1.41h-8.82c-1.33.0-2.47.47-3.41 1.41-.94.94-1.41 2.08-1.41 3.41v8.82c0 1.33-.5 2.47-1.5 3.41-1 .94-2.11 1.41-3.33 1.41h-82.87c-1.33.0-2.47-.47-3.41-1.41zm67.81-72.64c1.22.0 2.33-.49 3.33-1.48 1-.99 1.5-2.09 1.5-3.3v-8.91c0-1.21-.5-2.31-1.5-3.3-1-.99-2.11-1.48-3.33-1.48h-27.46c-1.22.0-2.33.5-3.33 1.48-1 .99-1.5 2.09-1.5 3.3v8.91c0 1.21.5 2.31 1.5 3.3 1 .99 2.11 1.48 3.33 1.48h27.46zm0 55.58c1.22.0 2.33-.47 3.33-1.41 1-.94 1.5-2.08 1.5-3.41v-27.29c0-1.33-.5-2.47-1.5-3.41-1-.94-2.11-1.41-3.33-1.41h-27.46c-1.22.0-2.33.47-3.33 1.41-1 .94-1.5 2.08-1.5 3.41v27.29c0 1.33.5 2.47 1.5 3.41 1 .94 2.11 1.41 3.33 1.41h27.46z" fill="#f28500"/><path d="M620.7 206.5c-.94-.94-1.41-2.08-1.41-3.41V101.74c0-1.22.47-2.33 1.41-3.33.94-1 2.08-1.5 3.41-1.5h82.87c1.22.0 2.33.5 3.33 1.5 1 1 1.5 2.11 1.5 3.33v8.99c0 1.22-.5 2.3-1.5 3.25-1 .94-2.11 1.41-3.33 1.41h-45.93c-1.22.0-2.33.5-3.33 1.5-1 1-1.5 2.11-1.5 3.33v8.99c0 1.22.5 2.33 1.5 3.33 1 1 2.11 1.5 3.33 1.5h27.46c1.22.0 2.33.47 3.33 1.41 1 .94 1.5 2.03 1.5 3.25v8.99c0 1.22-.5 2.33-1.5 3.33-1 1-2.11 1.5-3.33 1.5h-27.46c-1.22.0-2.33.47-3.33 1.41-1 .94-1.5 2.08-1.5 3.41v27.29c0 1.33.5 2.47 1.5 3.41 1 .94 2.11 1.41 3.33 1.41h45.93c1.22.0 2.33.47 3.33 1.41 1 .94 1.5 2.08 1.5 3.41v8.82c0 1.33-.5 2.47-1.5 3.41-1 .94-2.11 1.41-3.33 1.41h-82.87c-1.33.0-2.47-.47-3.41-1.41z" fill="#f28500"/><path d="M750.17 206.5c-.94-.94-1.41-2.08-1.41-3.41V101.74c0-1.22.47-2.33 1.41-3.33.94-1 2.08-1.5 3.41-1.5h82.87c1.22.0 2.33.5 3.33 1.5 1 1 1.5 2.11 1.5 3.33v8.99c0 1.22.47 2.3 1.41 3.25.94.94 2.08 1.41 3.41 1.41h8.82c1.22.0 2.33.5 3.33 1.49s1.5 2.1 1.5 3.31v27.33c0 1.22-.5 2.32-1.5 3.32-1 .99-2.11 1.49-3.33 1.49h-8.82c-1.33.0-2.47.48-3.41 1.42-.94.95-1.41 2.09-1.41 3.42v27.42c0 1.34.47 2.48 1.41 3.43.94.95 2.08 1.42 3.41 1.42h8.82c1.22.0 2.33.47 3.33 1.41 1 .94 1.5 2.08 1.5 3.41v8.82c0 1.33-.5 2.47-1.5 3.41-1 .94-2.11 1.41-3.33 1.41h-27.39c-1.22.0-2.29-.47-3.23-1.41-.94-.94-1.41-2.08-1.41-3.41v-8.82c0-1.33-.5-2.47-1.49-3.41-.99-.94-2.1-1.41-3.31-1.41h-8.94c-1.22.0-2.32-.47-3.32-1.41-.99-.94-1.49-2.08-1.49-3.41v-8.82c0-1.33-.48-2.47-1.43-3.41-.95-.94-2.04-1.41-3.27-1.41h-9.07c-1.23.0-2.35.47-3.36 1.41-1.01.94-1.51 2.08-1.51 3.41v27.29c0 1.33-.47 2.47-1.41 3.41-.94.94-2.08 1.41-3.41 1.41h-27.29c-1.33.0-2.47-.47-3.41-1.41zm67.81-54.17c1.22.0 2.33-.5 3.33-1.49 1-.99 1.5-2.1 1.5-3.32v-27.33c0-1.21-.5-2.32-1.5-3.31-1-.99-2.11-1.49-3.33-1.49h-27.46c-1.22.0-2.33.5-3.33 1.5-1 1-1.5 2.11-1.5 3.33v27.46c0 1.22.5 2.33 1.5 3.33 1 1 2.11 1.5 3.33 1.5l27.46-.17z" fill="#f28500"/></g></g><g id="SUPER_OFFER"><path d="M367.97 30.98v4.45h-13.34v-4.45h-4.39v-4.55h4.5v4.5h8.74v-8.72h-8.84v-4.44h-4.39V4.5h4.39V0h13.34V4.5h4.39V9h-4.5V4.55h-8.74V13.27h8.84v4.44h4.39v13.26h-4.39z" fill="#006400"/><path d="M408.53 30.98v4.45h-17.74v-4.45h-4.39V0h8.9V30.92h8.74V0h8.9V30.98h-4.39z" fill="#006400"/><path d="M449.14 17.74v4.45h-8.9v-4.5h4.39V4.5h-8.74v30.92h-8.9V0h22.13V4.45h4.39v13.29h-4.39z" fill="#006400"/><path d="M467.62 35.42V0h22.13V4.5h-13.24v8.74h8.84v4.5h-8.84v13.18h13.24v4.5h-22.13z" fill="#006400"/><path d="M521.42 35.42V22.18h-4.39v-4.5h4.39V4.5h-8.74v30.92h-8.9V0h22.13V4.45h4.39v13.29h-4.39v4.34h4.39v13.34h-8.89z" fill="#006400"/><path d="M585.06 30.98v4.45h-17.74v-4.45h-4.4V4.5h4.4V0h17.74V4.5h4.39V30.98h-4.39zm-4.5-26.42h-8.74V30.92h8.74V4.55z" fill="#006400"/><path d="M612.43 4.5v8.74h8.84v4.5h-8.84v17.68h-8.9V0h22.13V4.5h-13.24z" fill="#006400"/><path d="M644.2 4.5v8.74h8.84v4.5h-8.84v17.68h-8.9V0h22.13V4.5h-13.24z" fill="#006400"/><path d="M667.08 35.42V0h22.13V4.5h-13.24v8.74h8.84v4.5h-8.84v13.18h13.24v4.5h-22.13z" fill="#006400"/><path d="M720.87 35.42V22.18h-4.4v-4.5h4.4V4.5h-8.74v30.92h-8.9V0h22.13V4.45h4.39v13.29h-4.39v4.34h4.39v13.34h-8.9z" fill="#006400"/></g></g></g></svg>