<svg id="_Слой_2" xmlns="http://www.w3.org/2000/svg" width="1075.9" height="1080" viewBox="0 0 1075.9 1080"><g id="Shop_small02_473512050"><g id="Shop_small02_473512050-2"><path d="M204.64 1012.91c1.7-14.76 12.49-69.12 16.33-85.36 3.65.1 14.72.36 17.92.87-.02.34-7.65 50.78-8.3 59.07-.98 12.36 1.68 10.04 18.12 13.88-.57 4.64-1.1 11.6-1.6 16.25l-20.3-2.8c-3.84-.53-14.74-.61-22.17-1.91z" fill="#f7dfd8"/><path d="M387.98 1036.11c-19.2 5.89-32.85-8.32-36.69-26.1-3.68-17.07.62-32.9 10.73-45.38 7.01-8.65 18.52-9.69 26.4-8.42 20.6 3.32 25.84 19.49 26.63 37.19.9 20.1-7.24 36.63-27.08 42.72z" fill="#f7dfd8"/><path d="M551.66 1031.61c.44 3.1-2.1 9.83-3.71 11.34-8.7 8.16-20.93 6.01-27.98 3.12-16.88-6.93-21.27-23.54-21.27-42.1.0-24.21 8.4-38.95 23.05-48.8 12.85-8.64 32.26-8.65 32.27 3.72.0 8.24-7.8 8.32-13.33 7.57-9.47-1.28-15.51 6.73-19.01 12.44-7.87 12.8-7.57 25.93-2.59 36.09 6.85 13.94 18.14 14.57 32.57 16.62z" fill="#f7dfd8"/><path d="M677.86 1044.57c-3.73.45-17.41 1.89-21.05 1.49-2.06-4.82-8.86-72.72-2.88-88.9 5.08-13.74 25.43-13.92 31.24-14.82 15.95-2.47 26.37-1.14 31.02 7.28 4.52 8.17 6.8 16.61 10.19 32.57 3.52 16.58 4.71 34.64 8.2 51.22-4.81 1.1-16.11 4.11-19.17 4.6-3.17-8.41-8.8-29.24-22.36-27.02-11.9 1.94-13.33 15.46-15.19 33.57z" fill="#f7dfd8"/><path d="M831.69 1010.45c-2.18-8.09-5.71-27.26-6.83-35.57-1.19-8.85-7.07-31.18-4.43-41.66 1.11-4.4 9.76-5.3 12.41-5.32 7.31-.05 9.44 31.27 10.86 39.44 1.77 10.19 5.98 15.51 16.84 13.29 7.73-1.58 14.79-2.51 21.86-2.99 1.16 7 1.67 13.94 1.69 20.99-9.12 2.06-51.07 11.51-52.39 11.8z" fill="#f7dfd8"/><path d="M792.76 522.13c1.13-3.61.87-7.7-1.67-11.88-33.17-54.63-30.66-118.26 1.39-169.19 3.84 60.95 16.53 120.23 60.29 165.77 1.57 1.63-38.21 10.38-60.01 15.3z" fill="#87deb5"/><path d="M334.68 523.66c-32.49-4.13-75.4-3.4-80.36-7.1-95.62-71.23 20.68-176.82 43-232.2 25.08-62.25-13.93-158.11 47.58-196.3-4.96 23.46-4.22 47.27.1 72.77 5.25 31 17.32 62.53 17.11 94.25-.27 41.52-20.41 63.52-44.01 94.47-41.55 54.47-23.84 124.68 16.58 174.11z" fill="#87deb5"/><path d="M126.13 268.26c-3.63-.09-6.57.88-8.89 2.49-53.04-24.75-7.75-116.6 13.56-143.97 21.32-27.39 48.22-49.04 75.84-69.71 27.54 81.46 39.65 214.11-80.51 211.19z" fill="#c4e3d9"/><path d="M794.27 122.28c.14-26.88 1.87-53.81 4.1-80.64 72.6 44.42 164.39 117.88 77.61 196.03-1.02.92-1.8 1.95-2.46 3.01-69.86 27.27-79.46-77.94-79.26-118.4z" fill="#c4e3d9"/><path d="M912.45 829.86c-120.93 35.03-254.14 43.4-379.51 43.01-121.38-.38-248.6-9.7-365.99-42.09-73.79-20.36-110-63.55-128.98-137.23-15.73-61.08-22.53-123.26-22.9-186.1.0.0 56.78 9.55 94.11 15.56 311.79 50.15 629.74 37.18 939.12-28.22 23.88 137.28 24.55 288.6-135.85 335.06z" fill="#f7dfd8"/><path d="M1059.87 477.87c-1.63-8.75-11.73-12.79-19.53-11.09-319.89 69.85-642.13 71.65-972.27 20.41-9.51-1.47-39.9-6.17-52.07-6.88-8.63-.51-15.74 7.76-15.84 15.84-1.47 113.52 4.54 287.82 123.12 343.54 57.72 27.13 125.84 34.66 188.36 43.21 80.05 10.95 160.83 16.33 241.63 15.55 75.49-.73 150.85-6.64 225.56-17.49 65.54-9.53 138.83-17.95 196.86-52.45 124.1-73.78 106.79-229.45 84.17-350.64zm-159.48 347.3c-117.04 33.9-245.97 42.01-367.31 41.63-117.48-.36-240.61-9.38-354.23-40.74-71.42-19.71-106.46-61.5-124.83-132.81-15.23-59.12-21.8-119.3-22.17-180.12.0.0 54.95 9.25 91.08 15.06 301.77 48.54 609.5 35.98 908.93-27.31 23.12 132.87 23.76 279.32-131.48 324.29z" fill="#141314"/><g><path d="M329.31 681.03c-11.33-5.83-46.48-22.16-23.05-34.27 13.36-6.9 21.69-.8 33.44-13.72 4.53-4.98 6.06-12.64 3.76-18.98-.47-1.3-.95-2.6-1.42-3.9-2.83-7.76-10.59-16.53-19.49-17.18-42.02-3.05-78.6 20.58-78.15 67.01.22 22.7 14.31 41.06 32.07 53.58 7.65 5.39 27.7 10.81 32.72 17.92 14.78 20.94-18.48 5.32-24.71 2.38-26.56-12.53-54.09 24.37-29.63 43.86 40.08 31.94 115.18 22.3 116.58-39.93.62-27.65-19.33-45.06-42.09-56.78z" fill="#141314"/><path d="M400.72 624.12c-.09 50.48-3.58 100.88-3.01 151.41.38 33.7 51.48 29.9 51.94-3.28.67-47.93-.74-96.59 3.45-144.38 3.35-38.24-52.32-42.35-52.38-3.75z" fill="#141314"/><path d="M484.97 672.99c-8.44.46-16.88.92-25.32 1.38-6.95.38-15.7 2.51-22.47 1.92-16.85-1.47-33.03 9.07-31.86 27.61 1.16 18.39 18.54 26.96 35.08 23.38 6.68-1.44 15.47-.41 22.53-.92 8.43-.61 16.87-1.21 25.3-1.81 33.16-2.38 29.99-53.38-3.26-51.56z" fill="#141314"/><path d="M490.13 623.85c.68 52.44-3.37 105.93-4.59 158.45-.76 32.67 52.12 30.04 51.19-3.23-1.37-49.18-1.81-102.81 5.79-151.47 5.92-37.92-52.89-42.6-52.38-3.75z" fill="#141314"/><path d="M701.34 634.97c-16.68-39.29-53.74-43.14-83.56-25.73-3.73 1.25-7.49 3.4-11.14 6.66-4.62 4.11-8.75 8.79-12.48 13.83-.59.74-1.25 1.41-1.82 2.16-.73.96-1.22 1.96-1.8 2.94-.04.07-.08.14-.13.21-.41.71-.93 1.41-1.26 2.12-18.7 30.46-23.41 72.14-14.22 105.15 13.14 47.16 64.67 65.95 101.75 32.83 39.44-35.23 45.02-92.24 24.67-140.17zM640.2 737.75c-24.13 8.78-17.16-54.84-3.72-76.57 16.18-16.85 20.77 5.48 22.3 24.84 1.3 16.39.8 44.67-18.59 51.72z" fill="#141314"/><path d="M827.8 593.43c-26.96-11.46-76.61-10.17-89 22.17-7.28 18.99-2.67 45.86-2.68 65.86-.01 27.7.44 55.75-1.96 83.34-3.34 38.31 52.66 42.29 52.38 3.75-.1-13.24.55-26.68 1.24-40.16 31.51-6.01 59.11-25.65 72.54-55.9 14.17-31.93-.87-65.61-32.52-79.06zm-38.73 78.86c-.2-5.6-.51-11.18-1.08-16.71.02.24-1.54-18.96-4.74-15.26 4.19-4.83 22.71.02 25.82 4.35 8.43 11.73-5.89 21.88-19.99 27.63z" fill="#141314"/></g><path d="M265.48 974.18c-2.01-.23-4.04-.35-6.06-.54 4.31-19.94 18.46-41.86 10.04-60.41-8.64-19.04-36.55-16.13-53.46-17.37-9.37-.68-15.82 5.39-19.64 20.09-7 26.92-27.19 94.14-23.99 108.18 2.28 9.98 9.99 14.04 19 16.6 20.39 5.78 44.48 6.13 65.43 9.01 7.38 1.02 17.53-2.3 18.57-11.19 1.94-16.59 4.55-33.18 5.37-49.87.43-8.76-7.77-13.72-15.27-14.5zm-60.84 38.73c1.7-14.76 12.49-69.12 16.33-85.36 3.65.1 14.72.36 17.92.87-.02.34-7.65 50.78-8.3 59.07-.98 12.36 1.68 10.04 18.12 13.88-.57 4.64-1.1 11.6-1.6 16.25l-20.3-2.8c-3.84-.53-14.74-.61-22.17-1.91z" fill="#141314"/><path d="M437.51 964.58c-11.19-27.43-31.18-37.98-59.34-38.01-12.3-.01-24.47 5.67-35.24 16.11-17.15 16.61-30.72 55.75-13.95 92.26 15.69 34.16 49.53 43.49 82.65 24.53 34.69-19.87 40.14-59.92 25.89-94.88zm-49.53 71.53c-19.2 5.89-32.85-8.32-36.69-26.1-3.68-17.07.62-32.9 10.73-45.38 7.01-8.65 18.52-9.69 26.4-8.42 20.6 3.32 25.84 19.49 26.63 37.19.9 20.1-7.24 36.63-27.08 42.72z" fill="#141314"/><path d="M396.73 989.32c-2.16-5.43-7.41-9.67-13.26-10.3-10.32-1.12-16.66 6.56-17.6 16.07.21-2.13-.81 2.88-.79 2.75-2.49 11.51 8.11 22.53 19.84 18.83 11.67-3.68 16.92-17.11 11.8-27.36z" fill="#141314"/><path d="M583.83 981.17c6.83-15.25 1.5-34.68-9.77-46.36-32.01-33.15-80.91-6.59-95.06 29.85-13.07 33.67-11.61 96.7 29.17 111.16 41.47 14.71 77.39-10.9 73.78-54.39-.67-8.15-6.14-14.2-15.82-15.02-8.99-.77-27.44-1.42-23.22-11 16.04 1.63 33.13 3.14 40.92-14.25zm-32.17 50.44c.44 3.1-2.1 9.83-3.71 11.34-8.7 8.16-20.93 6.01-27.98 3.12-16.88-6.93-21.27-23.54-21.27-42.1.0-24.21 8.4-38.95 23.05-48.8 12.85-8.64 32.26-8.65 32.27 3.72.0 8.24-7.8 8.32-13.33 7.57-9.47-1.28-15.51 6.73-19.01 12.44-7.87 12.8-7.57 25.93-2.59 36.09 6.85 13.94 18.14 14.57 32.57 16.62z" fill="#141314"/><path d="M764.14 1041.61c-7.42-35.33-10.85-75.4-23.24-109.29-8.84-24.18-28.69-24.34-50.91-20.43-20.41 3.59-55.82 4.68-63.45 28.44-3.93 12.24-1.76 28.62-1.33 41.17.82 23.98 3.46 72.2 3.91 75.15 1.33 8.61.8 14.48 11.58 17.02 16.72 3.94 100.47-10.74 113.15-12.79 8.72-1.41 11.81-12.04 10.29-19.27zm-86.27 2.96c-3.73.45-17.41 1.89-21.05 1.49-2.06-4.82-8.86-72.72-2.88-88.9 5.08-13.74 25.43-13.92 31.24-14.82 15.95-2.47 26.37-1.14 31.02 7.28 4.52 8.17 6.8 16.61 10.19 32.57 3.52 16.58 4.71 34.64 8.2 51.22-4.81 1.1-16.11 4.11-19.17 4.6-3.17-8.41-8.8-29.24-22.36-27.02-11.9 1.94-13.33 15.46-15.19 33.57z" fill="#141314"/><path d="M690.28 960.15c-7.92.56-16.56 7.46-15.48 16.3.07.59.14 1.18.22 1.77 1.03 8.43 7.05 15.55 16.13 15.31 9.18-.24 14.72-7.62 15.31-16.13.04-.59.08-1.18.12-1.78.58-8.32-8.3-16.04-16.3-15.48z" fill="#141314"/><path d="M909.59 957.92c-1.85-7.13-8.49-10.29-15.13-10.91-8.6-.8-16.66-.36-24.62 1.07-2.18-16.74-5.6-38.79-16.17-48.31-8.86-7.98-41.43 1.25-56.56 4.82-6.68 1.58-10.08 6.96-10.6 12.83-1.52 16.91 9.78 107.75 20.75 121.43 7.34 9.15 19.25 4.68 29.08 2.56 22.49-4.87 44.86-10.32 67.29-15.48 7.1-1.63 10.5-8.7 10.99-15.23 1.37-18.24-.45-35.14-5.01-52.79zm-77.9 52.54c-2.18-8.09-5.71-27.26-6.83-35.57-1.19-8.85-7.07-31.18-4.43-41.66 1.11-4.4 9.76-5.3 12.41-5.32 7.31-.05 9.44 31.27 10.86 39.44 1.77 10.19 5.98 15.51 16.84 13.29 7.73-1.58 14.79-2.51 21.86-2.99 1.16 7 1.67 13.94 1.69 20.99-9.12 2.06-51.07 11.51-52.39 11.8z" fill="#141314"/><path d="M158.78 126.56c-57.21 122.98-67.82 257.67-29.19 387.81 5.81 19.57 36.55 11.22 30.66-8.45-36.46-121.62-28.21-248.45 25.1-363.83 8.25-17.85-18.21-33.51-26.57-15.53z" fill="#141314"/><path d="M229.03 28.13c-3.43-8.25-13.9-16-22.94-9.33-56.48 41.7-116.24 87.15-136.56 157.74-14.21 49.38-6.29 108.32 46.72 127.77 7.06 2.59 12.75-.15 16.12-4.9 52.39-1.11 95.34-32.18 115.18-81.52 25.27-62.84 6.21-130.19-18.53-189.76zM126.12 268.26c-3.63-.09-6.57.88-8.89 2.49-53.04-24.75-7.75-116.6 13.56-143.97 21.32-27.39 48.22-49.04 75.84-69.71 27.54 81.46 39.65 214.11-80.51 211.19z" fill="#141314"/><path d="M860.02 151.78c-9.67-17.03-36.55-3.22-27.09 14.13 56.6 103.77 79.27 217.41 61.47 334.71-3.05 20.08 29.13 21.84 31.76 1.53 15.72-121.76-5.3-243.21-66.13-350.37z" fill="#141314"/><path d="M939 135.44c-19.32-62.81-92.68-102.9-145.51-133.11-10.51-6.01-23.14.17-24.24 12.4-7.26 80.12-25.33 307.26 123.53 252.3 5.86-2.16 8.47-6.58 8.71-11.36 35.48-28.04 51.06-76.12 37.5-120.22zm-144.73-13.16c.14-26.88 1.87-53.81 4.1-80.64 72.6 44.42 164.39 117.88 77.61 196.03-1.02.92-1.8 1.95-2.46 3.01-69.86 27.27-79.46-77.94-79.26-118.4z" fill="#141314"/><path d="M388.02 299.02c21.99-77.04-40.86-154.84-5.2-229.67 5.67-11.9-3.66-25.81-17.28-22.47-39.4 9.65-69.37 36.56-82.91 75.3-8.03 22.96-7.3 45.43-6.15 69.37 2.11 44.06-2.14 78.34-26.58 116.35-41.93 65.22-109.14 158.14-22.58 219.48 6.39 4.53 88 14.56 125.49 15.61 1.9 1.77 3.76 3.6 5.71 5.27 15.13 12.97 37.24-8.96 22-22-46.78-40.02-76.09-105.96-35.66-161.1 16.47-22.46 35.13-38 43.17-66.16zm-53.34 224.64c-32.49-4.13-75.4-3.4-80.36-7.1-95.62-71.23 20.68-176.82 43-232.2 25.08-62.25-13.93-158.11 47.58-196.3-4.96 23.46-4.22 47.27.1 72.77 5.25 31 17.32 62.53 17.11 94.25-.27 41.52-20.41 63.52-44.01 94.47-41.55 54.47-23.84 124.68 16.58 174.11z" fill="#141314"/><path d="M455.06 208.49c-5.57-18.1-33.98-10.42-28.47 7.85 26.42 87.58 54.69 220.15 13.73 307.16-8.74 18.57 19.35 34.59 27.45 16.05 42.97-98.42 17.73-232.18-12.71-331.05z" fill="#141314"/><path d="M451.5 151.78c-19.94-11.53-46.1-2.13-52.36 19.97-7.42 16.64-3.85 37.05 12.16 47.97 17.82 12.15 44.05 5.64 54.92-12.72 11.02-18.61 3.81-44.5-14.72-55.22zm-12.34 39.71c-2.22 3.18-6.89 4.18-10.24 2.57-2.97-1.43-4.49-4.69-4.05-7.69-.08-3.44 1.21-7.7 6.66-8.91 3.81-.84 5.59 1.38 6.9 3.08 2.18 2.81 2.83 7.94.73 10.96z" fill="#141314"/><path d="M412.8 349.06c-17.97-.51-39.78 8.36-42.11 30.01-1.05 9.78-.09 18.09 5.01 27.21 4.94 8.86 13.82 14.8 23.69 16.71 21.1 4.09 40.85-10.92 45.16-31.46 4.69-22.36-8.42-41.81-31.76-42.47zm1.97 34.26c-1.09 10.28-9.57 13.89-14.02 6.58-1.57-2.58-.47-8.68 1.22-10.34 4.95-4.86 13.38-1.7 12.8 3.76z" fill="#141314"/><path d="M477.39 427.88c-5.81-6.04-11.82-11.87-18.12-17.41-6.26-5.5-13.33-10.24-19.3-16.02-6.84-6.62-17.89-5.95-23.72 1.61-5.63 7.3-3.94 18.71 4.46 23.36 13.05 7.22 24.52 19.72 34.77 30.38 13.85 14.41 35.75-7.53 21.92-21.92z" fill="#141314"/><path d="M553.52 251.47c-17.85-8.65-35.87-3.31-46.8 13.96-.98 1.55-2.23 3.06-3.02 5.07-6.48 16.54 3.03 36.63 18.55 44.55 17.73 9.05 38.29.61 47.47-16.23 9.35-17.16 1.02-38.99-16.21-47.34zm-20.27 26.37c4.38-4.18 12.67 2.66 8.32 8.51-6.3 4.34-13.15-3.9-8.32-8.51z" fill="#141314"/><path d="M509.46 287.34c-17.38 14.94-26.17 39.26-44.03 53.61-17.93 14.41 14.55 40.84 24.97 19.26 9.95-20.62 31.68-34.62 42.34-54.92 8-15.24-10.55-28.9-23.28-17.96z" fill="#141314"/><path d="M584.27 429.22c-9.82-9-20.43-9.63-32.11-9.31-2.35.06-6.17.88-8.97 1.81-23.09 7.74-32.71 34-18.34 54.41 13.27 18.84 42.14 23.87 59.58 7.62 15.22-14.18 15.18-40.48-.15-54.54zm-20.56 32.11c-5.27 5.16-15.03-1.08-14.38-5.54.67-4.64 4.84-7.95 8.3-7.96 9.65-.04 10.74 8.94 6.08 13.5z" fill="#141314"/><path d="M530.29 471.82c-7.42 16.39-14.53 32.93-23.08 48.77-9.43 17.47 18.44 32.81 26.18 15.3 7.27-16.43 15.96-32.15 24.35-48.03 9.68-18.32-19.13-34.41-27.45-16.05z" fill="#141314"/><path d="M881.21 491.99c-54.06-50.89-58.53-122.69-59.59-192.67-.19-12.89-16.86-20.73-26.17-10.84-63.86 67.87-72.6 155.54-31.81 237.82 6.14 12.38 21.57 8.66 27.45-.55 87.27 1.1 103.85-20.84 90.12-33.77zm-88.45 30.14c1.13-3.61.87-7.7-1.67-11.88-33.17-54.63-30.66-118.26 1.39-169.19 3.84 60.95 16.53 120.23 60.29 165.77 1.57 1.63-38.21 10.38-60.01 15.3z" fill="#141314"/><path d="M607.05 50.85c-6.6-4.41-18.12-1.76-21.55 5.65-19.73 42.62-24.17 127.9 38.54 135.51 3.58.43 6.5-.24 8.81-1.61 3.72-.72 7.16-3.1 9.42-7.72 23.61-48.32 9.56-101.94-35.21-131.84zm-.9 40.8c15.71 18.38 20.55 43.06 12.42 66.72-11.09-6.4-14.25-27.05-15.04-37.34-.77-10 .3-19.83 2.63-29.39z" fill="#141314"/><path d="M644.88 175.39c-5.92-19.64-37.36-10.82-30.66 8.45 37.43 107.58 54.51 228.85 40.02 342.3-2.5 19.58 30.71 20.67 31.45.0 4.4-122.2-5.38-233.28-40.82-350.76z" fill="#141314"/><path d="M740.48 229.54c-1.71-10.62-14.24-12.43-22.12-9-2.27.99-15.43 5.57-24.1 11.88-15.83 11.53-28.05 27.74-33.7 46.75-6.05 20.35-6.39 53.21 13.96 65.9 22.62 14.11 46.02-7.93 55.82-27.21 13.71-26.98 14.85-59.06 10.14-88.33zm-30.61 57.07c-1.77 6.89-3.67 15.58-8.35 21.14-5.53 6.56-9.51 11.92-13.29 1.22-6.65-18.82 8.97-39.42 24.91-50.68.06 9.5-.87 18.98-3.26 28.33z" fill="#141314"/><path d="M638.53 341.08c-21.36-6.12-67.77-7.39-57.81 27.83.53 1.87 17.03 50.98 45.85 63.34 27.11 11.63 45.2-11.46 47.85-35.87 2.86-26.47-9.77-47.82-35.88-55.3zm4.9 58.08c-1.95 6.33-1.3 5.76-6.81 3.59-4.47-1.76-9.41-9.54-12.04-13.32-4.75-6.83-8.02-14.17-10.38-21.91 2.58.2 5.15.42 7.72.68 5.36.76 11.23 1.69 15.89 4.64 8.83 5.58 8.44 17.18 5.63 26.31z" fill="#141314"/><path d="M606.15 91.65c15.71 18.38 20.55 43.06 12.42 66.72-11.09-6.4-14.25-27.05-15.04-37.34-.77-10 .3-19.83 2.63-29.39z" fill="#f7a900"/><path d="M709.87 286.61c-1.77 6.89-3.67 15.58-8.35 21.14-5.53 6.56-9.51 11.92-13.29 1.22-6.65-18.82 8.97-39.42 24.91-50.68.06 9.5-.87 18.98-3.26 28.33z" fill="#f7a900"/><path d="M643.43 399.16c-1.95 6.33-1.3 5.76-6.81 3.59-4.47-1.76-9.41-9.54-12.04-13.32-4.75-6.83-8.02-14.17-10.38-21.91 2.58.2 5.15.42 7.72.68 5.36.76 11.23 1.69 15.89 4.64 8.83 5.58 8.44 17.18 5.63 26.31z" fill="#f7a900"/><path d="M439.16 191.5c-2.22 3.18-6.89 4.18-10.24 2.57-2.97-1.43-4.49-4.69-4.05-7.69-.08-3.44 1.21-7.7 6.66-8.91 3.81-.84 5.59 1.38 6.9 3.08 2.18 2.81 2.83 7.94.73 10.96z" fill="#ff693b"/><path d="M414.77 383.32c-1.09 10.28-9.57 13.89-14.02 6.58-1.57-2.58-.47-8.68 1.22-10.34 4.95-4.86 13.38-1.7 12.8 3.76z" fill="#ff693b"/><path d="M533.25 277.85c4.38-4.18 12.67 2.66 8.32 8.51-6.3 4.34-13.15-3.9-8.32-8.51z" fill="#ff693b"/><path d="M563.71 461.32c-5.27 5.16-15.03-1.08-14.38-5.54.67-4.64 4.84-7.95 8.3-7.96 9.65-.04 10.74 8.94 6.08 13.5z" fill="#ff693b"/></g></g></svg>