<svg id="_Слой_2" xmlns="http://www.w3.org/2000/svg" width="1080" height="1040.6" xmlns:xlink="http://www.w3.org/1999/xlink" viewBox="0 0 1080 1040.6"><defs><linearGradient id="_Новый_образец_градиентной_за_15" x1="292.34" y1="73.9" x2="796.88" y2="947.8" gradientUnits="userSpaceOnUse"><stop offset="0" stop-color="#3dd876"/><stop offset=".3" stop-color="#fff"/><stop offset=".68" stop-color="#623686"/><stop offset=".95" stop-color="#f9fe61"/></linearGradient></defs><g id="Brush10_000000"><path id="Brush10_000000-2" d="M1077.09 333.73c-2.87-8.52-7.5-19.22-12.76-29.58-7.58-15.83-17.66-30.62-27-45.53-30.24-43.98-66.12-83.57-106.51-118.09-10.55-9.46-21.91-18.06-33.45-26.39-11.26-8.65-23.05-16.57-34.94-24.23-44.9-29.66-94.41-52.31-147.15-67.67-38.54-11.51-79.34-18.04-119.78-21.36-37.18-1.97-73.36-.75-108.64 5.5-22.88 3.36-45.04 9.28-67.26 15.05-21.78 6.97-43.66 13.78-64.7 22.68-89.71 35.81-163.88 93.84-222.22 164.2-8.71 11.31-17.56 22.49-25.96 34.03-7.94 11.95-15.98 23.83-23.62 35.98l-21.25 38.19c-8.83 17.33-15.33 34.25-20.33 49.72-9.9 31.06-14.52 56.29-18.95 75l-3.11 12.85-4.49 16.81c-3.82 14.62-6.96 29.58-9.35 44.88-4.92 31.43-7.18 64.05-4.49 98.76 1.36 17.36 3.92 35.21 8.54 53.93 2.4 9.45 5.23 18.94 8.8 28.91l5.89 14.79 5.36 11.46c9.84 20.56 21.72 42.42 34.26 61.35 25.65 38.85 54.84 67.5 78.03 90.49l21.95 21.75 9.96 10.15 16.12 15.7c22.6 22.03 48.17 40.38 74.42 56.61 39.99 24.01 82.72 40.39 125.85 49.78 61.12 12.97 122.57 14.46 182.13 5.43 70.09-10.08 138.77-36.1 197.88-71.86 38.89-23.7 74.9-51.64 106.18-85.19 33.86-35.81 63.09-77.03 85.27-122.7 22.15-45.11 38.29-96.25 44.52-147.51 10.27-87.35-1.43-177.98-46.69-260.33-10.19-18.95-22.34-37.52-36.05-55.09-36.48-53.83-76.04-96.21-121.04-133.11-14.21-11.23-17.01-18.13-4.34-15.29 7.85 1.6 16.38 4.99 27.25 10.15 5.01 2.53 10.15 5.11 15.38 7.75 5 3 10.08 6.06 15.22 9.14 10.36 6.15 20.74 12.8 30.51 20.22 8.69 6.3 19.42 13.92 27.19 22.37 35.08 35.65 63.52 67.81 88.25 100.93 1.58 2.02 3.5 5.07 5.25 7.55 5.35 8.47 14.06 26.46 15.56 32.05 3.18 12.48 4.37 23.8 7.48 37.27 2.78 12.49 7.8 29.93 14.92 49.05 5.17 16.24 11.7 29.91 15.25 31.51 4.82 2.13 8.38-1.27 4.93-24-1.85-13.21-3.05-22.46-3.55-28.95-.33-6.56.47-10.53 2.1-13.02 1.24-1.86.26-9.01-2.23-18.62-2.98-9.36-7.73-21.08-13.14-32.3-7.04-14.41-16.16-28.24-23.56-39.53-8.12-11.09-15.51-18.36-23.34-27.56-4.55-5.58-10.04-11.18-15.37-16.94-12.21-14.03-30.05-38.18-29.71-43.25.5-5.33 9.24-.17 24.49 14.84 8.61 9.48 17.42 19.67 26.27 30.12 8.37 10.81 16.5 22.12 24.63 33.18 10.2 15.35 18.31 27.23 25.05 35.24 6.33 8.26 11.04 12.84 14.58 13.48 3.52.65 5.98-1.24 7.97-4.06 1.08-1.52.03-7.93-2.49-16.68zM928.43 478.64c-.35-.15-1.22-2.88-1.85-4.47-.31-2.21-.99-5.75-.86-6.35.57-2.35 1.8.64 2.99 7.4.29 1.63.09 3.57-.28 3.41zM549.05 901.02c-7.9 4.18-27.79 7.88-43.9 6.08-5.86-.42-9.16-1.87-13.78-3.3 2.93-1.47 4.17-2.68 8.11-3.91 9.66-2.9 25.92-3.93 38.92-4.08 10.98.41 15.88 2.03 10.65 5.22zm240.09-620.47c15.31 11.54 24.16 22.32 26.86 28.24 2.75 5.92-.61 7.17-10.55 2.42-23.53-11.23-50.68-21.01-78.14-26.89-12.33-2.85-30.59-9.09-49.26-14.78-46.48-14.56-95.11-20.17-139.98-24.64-11.88-1.24-24.73-1.81-37.9-1.25-28.96 1.15-50.05 2.93-63.7.9-10.21-1.34-26.91-.27-46.15 4.35-21.2 4.97-41.87 11.41-62.75 20.72-9.57 4.18-21.39 11.58-29.16 18.43-29.86 26.94-61.9 61.47-80.1 99.23-24.25 48.67-39.14 105.32-31.03 161.76 5.19 37.04 16.24 69.04 27.98 96.76 2.32 5.11 3.55 8.89 3.95 11.48-.98-1.03-1.9-1.84-2.46-2.04-2.7-1.01-5.01-1.41-6.79-.78-1.56-1.83-3.26-3.98-5.17-6.62-9.32-13.74-17.98-29.37-24.47-46.73-3.51-9.55-6.34-19.27-8.74-29.06-.21-20.98 2.24-42.66 7.62-64.13 8.27-31.7 12.97-62.61 21.92-87.96 2.11-5.98 4.33-11.71 6.84-17.01 1.18-2.74 2.57-5.22 3.84-7.81l5.09-8.62 10.05-17.36 11.27-16.56c6.99-11.4 16.09-21.22 23.78-32.04 8.94-9.76 16.9-20.44 26.28-29.66 8.28-8.61 16.92-17.24 26.81-24.63 9.43-7.98 19.91-14.79 30.63-21.31 11.58-7.52 23.93-13.43 35.55-20.34 12.23-5.71 23.78-12.74 36.12-17.85 8.66-3.92 17.6-8.2 27.04-11.03 17.76-6.57 34.26-8.47 45.61-7.98 12.09.91 21.27 3.73 32.86 5.1 32.57 6.02 73.4 9.49 122.76 23.41 9.63 2.63 19.33 5.12 28.77 8.79l14.33 4.9 13.93 6.11c-.95-1.35-2.09-2.57-3.08-3.9 32.15 11.73 62.7 27.76 89.52 48.38zm-59.28-53.22 1.24-.53 4.08 2.39-5.32-1.85zm-433.21 437.82c.32.74.85 1.68 1.48 2.68-9.32-9.71-17.09-18.45-22.96-26.39-3.9-4.98-6.76-9.95-9.83-14.87-1.27-2.41-2.52-4.78-3.74-7.09-.91-2.19-2.45-5.42-2.69-6.35-.36-1.08-.53-3.32-.57-6.03.02-5.5 1.7-12.05 5.3-16.35 6.32 17.57 19.21 35.34 28.23 50.51 10.59 16.91-.06 13.28 4.78 23.89zM579 524.5c-3.54-9.49-8.49-17.47-13.57-22.99-5.5-5.82-12.06-10.71-18.47-13.49-10.57-4.72-16.75-1.04-18.21 2.67-1.11 2.86.48 6.37.93 8.02.65 2.12 2.9 4.15 6.35 8.64 3.33 4.29 6.61 10.3 7.69 15.52 4.4 13.66 5.37 37.5-.78 66.4-2.54 20.48-9.9 34.16-18.09 44.3-5.46 7.09-11.6 13.43-17.33 17.53-4.21 3.53-6.99 4.21-9.68 6.18-3.01 1.56-5.56 3.71-8.63 5.72-5.77 4.19-12.87 6.34-19.86 6.17-3.85.0-6.13-.42-11.04-1.61-5.36-1.29-11.3-3.15-17.6-5.82-5.48-2.42-11.8-4.76-18.06-7.69-14.22-6.62-28.87-16.24-40.05-26.97-10.15-9.57-20.28-19.11-29.25-29.06-7.73-8.56-14.29-17.6-18.79-26.57-7.97-15.61-11.43-30.07-12.71-44.56-.4-2.38-.36-4.99-.1-7.59.06-2.56.3-5.12 1.03-7.54.85-4.66 3.19-8.89 5.01-12.6 2.06-3.4 4.75-1.15 5.01 2.7.07 3.5.21 6.88.39 10.27-.07 10.87 1.39 19.76 3.89 29.02 2.49 9.38 7.01 19.22 13.23 29.88 10.72 18.21 29.24 36.8 51.68 51.2 22.56 14.93 47.84 24.08 61.25 24.72 4.04.07 6.89-2.1 7.81-5.78.28-1.69.08-3.35-.42-5.32-.45-1.58-2.07-4.1-2.37-4.23-.12-.02-.33-.39-.41-.33-.59.15-1.37-.38-1.81-1.21.23-.17-3.38-1.32-5.97-2.42-2.96-1.34-6.17-2.7-9.63-4.72-5.42-2.91-11.4-6.13-17.15-9.22-18.57-10.14-36.66-23.77-49.21-37.51-4.5-5.24-9.03-8.77-12.88-11.55-1.49-1.06-3.31-1.98-4.52-2.59-10.74-4.63-19.83-16.85-22.02-30.04-4.43-18.87 1.07-48.35 18.06-74.75 11.34-17.92 26.26-28.98 41.11-32.33 15.35-4.12 33.13-11.63 55.9-18.14 18.7-5.59 39.87-8.94 62.07-10.34 16.67-.95 34.35-.21 51.42.65 42.04 1.93 80.37 11.08 108.45 25.12 11.75 5.83 21.65 12.47 28.53 21.55 6.88 9.52 14.1 19.07 21.57 30.45 6.57 10.12 11.48 22.58 14.01 36.09 4.43 23.84 6.05 49.78 2.54 74.37-.99 9.28-3.26 18.16-5.67 26.79-2.61 8.87-6.24 18.02-10.36 26.85-7.18 15.02-17.01 28.56-28.65 38.51-3.28 2.9-6.9 5.62-10.27 8.78-5.43 4.3-9.49 9.56-12.65 14.32-4.77 7.9-9.85 16.3-20.24 24.4-5.7 4.58-11.76 8.98-17.99 13.15 2.52-4.71 4.84-9.43 6.97-14.14 20.25-44.63 24.08-87.01 20.72-114.87-2.05-15.91-3.78-35.87-8.31-58.69-6.92-34.1-21.78-59.42-39.24-76.44-8.19-7.84-15.96-12.04-22.19-13.96-6.79-1.93-5.37 3.64.58 15.92 2.19 4.91 4.27 10.07 5.95 15.52 5.78 18.51 10.17 37.97 14.09 60.35 1.9 10.9 2.84 22.15 3.04 33.64.26 19.05-2.61 39.81-9.91 59.92-13.27 36.81-32.81 71.72-62.57 96.32-20.52 16.93-45.38 24.65-68.63 24.1-25.06-.19-47.8-7.56-64.01-17.03-8.89-5.25-13.35-6.92-19.5-6.01-7.38 1-19.45-1.49-35.47-9.05l-1.32-1.13-4.47-4.52c-12.19-12.43-24.11-23.97-34.82-34.36-2.64-2.55-4.92-4.83-7.39-7.25 2.62 1.79 5.11 3.28 6.7 4 8.17 3.37 14.48 4.79 21.63 6.54 5.84 1.63 11.43 2.29 17.88 4.11 12.12 3.27 35.17 14.32 51.56 22.13 9 4.57 17.14 8.62 26.45 11.71 9.49 3.12 18.31 5.65 28.17 6.13 20.66.9 40.53-2.93 58.74-12.13 11.81-6.06 20.47-15.86 24.07-23.92 2.92-5.95 4.01-11.31 5.58-17.09 2.49-9.83 8.37-23.15 14.57-40.48 5.95-16.5 9.89-34.15 12.56-51.79 4.21-26.8 2.29-51.68-4.91-70.51zm-229.26-70.15c-.35-.48 1.14-3.45 1.8-5.39 1.35-.87 3.4-2.76 3.84-2.2.22.42-1.09 3.52-1.78 5.37-1.33.84-3.49 2.73-3.86 2.23zm188.79-73.21c1.55-1.61 5.85-2.54 11.92-2.3 8.53.05 16.51 3.1 11.95 3.99-3.25.58-9.09 1.04-13.96 1.01-5.96-.08-10.54-1.4-9.91-2.7zm92.9 14.34 2.86.19.22 1.03-3.09-1.22zm-296.09-49.2c-23.15 21.71-43.18 45.89-59.33 72.03l-5.73 9.01c-1.03 1.7-2.1 3.68-3.19 5.98-2.19 4.57-4.49 10.43-6.83 17.58-4.75 14.3-9.35 33.69-15.94 57.03-3.4 11.16-6.81 22.36-10.18 33.43-2.41 8.86-4.36 17.56-5.96 25.9-.47 2.39-.66 4.76-.99 7.14-1.41-4.93-2.87-9.85-3.9-14.91-1.04-7.51-2.26-15.02-2.39-22.66-.37-6.35-.7-12.75-.29-19.15.0-6.4.54-12.74 1.13-18.99 2.97-36.19 17.07-70.04 36.6-99.78 25.47-38.32 60.32-70.06 100.49-92.75 38.91-22.55 82.84-33.99 127.43-38.65-3.38.53-6.88 1.35-9.64 2.39-30.43 11.25-59.05 22.13-87.36 37.08-18.76 10.08-37.57 24.11-53.91 39.32zm231.02 482.96c3.32-2.02 7.62-4.02 12.78-5.98 5.05-2.33 10.97-4.58 17.76-6.57 3.96-1.44 7.94-2.89 11.85-4.32 18.23-6.03 30.13-14.4 34.04-21.24 1.25-2.2 2.66-4.69 4.49-7.22 5.17-7.19 15.05-15.71 27.68-26.15 10.53-8.72 21.41-18.48 31.29-27.59 21.14-18.65 38.52-40.33 50.52-64.37 2.9-6.63 7.24-13.42 10.15-20.37 5.44-11.12 9.17-22.73 12.67-33.81 2.79-11.54 5.61-23.25 6.62-35.39 2.39-22.07 4.78-45.18-1.18-66.44-7.16-24.57-12.05-44.62-21.5-64.33-4.52-8.32-11.33-17.08-18.25-23.77-11.57-11.84-24.01-22.94-38.41-33.54-33.9-25.44-84.32-40.92-137.09-45.7-42.25-3.99-83.29-2.14-120.51 4.62-19.87 3.7-38.7 9.98-55.82 20.55-6.46 3.97-13.33 8.42-19.5 12.48-23.53 14.31-43.49 35.11-59.31 57.47-12.62 18.05-22.32 37.93-26.43 59.22-2.43 12.03-6.17 20.07-9.87 18.7-.23-.08-.43-.29-.66-.41.23-1.2.45-2.36.63-3.43 1.88-10.26 3.06-19.09 3.94-26.98 1.43-13.09 1.85-22.88 2.47-30.91.37-4.97.96-8.95 1.61-12.37 4.32-9.96 9.17-19.64 14.57-29.19.15-.27.35-.52.5-.79 9.94-14.17 20.51-28.18 33.23-40.16 6.28-6.43 13.14-12.35 20.03-18.23 5.82-4.35 11.86-8.55 17.96-12.51 5.4-3.11 10.27-7.03 14.27-9.9 2.29-1.68 3.14-3.5 2.07-3.94.0.0-.02.0-.03.0 18.93-13.29 39.79-23.74 61.01-32.47 7.19-2.51 14.17-6.33 21.25-8.53 6.4-2.28 11.97-4.97 16.92-7.3 4.99-2.05 9.24-4.29 12.78-6.67 4-2.7 1.98-4.71-3.42-5.1 11.14-.89 22.29-1.51 33.4-1.66 43.98-.38 88.23 6.18 130.37 18.2 29.94 8.39 57.57 21.82 77.38 37.54 4.08 3.32 5.87 6.36 6.18 8.14.28 2.26-10.11-1.85-17.85-5.62-8.53-4.48-17.88-8.48-26.28-12.36-29.99-14.18-60.54-19.81-91.43-22.13-34.89-2.28-71.54-1.82-105.86 3.62-9 1.45-17.2 3.34-25.35 5.61-5.29 1.43-8.31 4.42-4.72 4.72 3.07.26 6.86.67 10.66.18 42.3-4.53 86.44-1.82 128.82 5.44 34.25 5.96 67.2 15.99 96.26 31 29 14.96 53.93 35.14 72.29 59.07 10.25 13.53 19.32 28.43 28 42.33 20.02 32.62 28.66 73.84 26.72 114.6-.82 8.83-1.1 17.93-2.36 26.84-8.42 82.67-60.44 158.58-130.02 207.36-16.94 11.83-34.85 23.04-53.59 32.04-23.45 11.35-46.47 17.33-67.93 20.06-12.1.89-20.59.73-23.11-2.29-2.14-2.45.74-5.9 7.34-10.05zM867.53 375.7c2.68-1.76 13.2 10.57 21.41 27.88 8.41 17.74 10.9 33.13 8.55 34.69-2.63 1.63-9.49-12.44-17.99-29.92-8.3-17.16-14.33-31.11-11.98-32.66zM302.82 189.98c-11.69 6.6-23.14 14.09-34.39 22.06.0.0.0.0.01-.01 11.91-10.91 25.69-18.98 34.38-22.05zm628.48 467.09c-3.38 14.76-8.52 30.23-14.43 44.67-15.06 35.72-32.63 67.3-51.52 96.11-13.01 19.7-28.78 38.32-48.17 54.65-17.05 14.68-32.86 28.3-47.58 40.98-25.25 21.86-56.89 41.07-92.17 56.15-49.79 20.84-102.54 34.02-157.09 35.12-28.5.84-57.11-1.82-84.93-6.41-27.74-5.62-54.76-13.15-79.44-24.71-27.21-12.68-56.12-27.4-83.03-46.91-26.31-18.47-51.88-45.75-67.35-61.59-14.89-14.89-30.59-30.24-45.79-47.44-15.17-17.25-29.66-36.49-40.92-57.25-8.58-15.71-19.18-33.15-27.58-46.72-4.38-6.75-9.45-15.54-13.33-23.99-4.1-8.49-7.44-17.02-10.49-26.37-4.45-13.81-7.03-32.22-6.69-49.11.25-16.04 1.92-31.6 4.46-45.4 3.8-20.05 8.76-40.3 15.03-60.58 3.51-11.4 5.58-16.98 7.99-25.54 2.34-8.16 4.58-16.98 6.98-26.46 2.72-10.71 5.74-22.15 9.34-34.19 4.5-14.93 10.19-30.08 17.88-44.7 4.05-7.83 7.79-13.28 11.57-19.07 3.83-5.72 7.61-11.36 11.35-16.94 7.83-10.88 16.5-20.75 24.64-30.66 8.67-9.5 17.76-18.34 26.54-27.26 6.77-6.22 13.17-9.55 16.8-10.83 3.04-1.05 4.86-.68 6.66-.27-8.09 8.27-15.46 16.67-22.17 24.88-15.09 19.29-28.84 39.89-40.74 61.89.15-.57.2-.96.04-1-.69-.18-4.51 4.37-6.97 8.11-5.02 7.54-7.95 16.76-4.26 12.57.94-1.01 2.19-2.75 3.52-4.69-9.12 18.71-16.94 38.36-22.99 59.11-14.69 49.47-18.83 104.56-7.66 158.79 2.68 13.16 6.26 25.99 10.56 38.48 2.37 17 6.68 33.5 13.77 48.81 6.74 13.78 14.37 28.64 21.56 42.09 18.26 33.78 41.35 53.52 62.91 68.28 7.61 5.12 16.2 11.48 24.86 18.09 10.66 7.85 21.82 17.92 32.64 27.05 10.54 9.41 22.19 18.66 34.93 28.4 18.52 14.08 39.19 23.09 60.2 31.5 9.22 2.79 18.26 7.5 27.7 10.17 1.91.59 4.49 1.89 4.44 2.26-.14.92-.12 2.4-2.82 2.03-10.75-1.05-21.92-4.62-33.33-7.31-8.87-3.18-19.25-6.89-26.72-9.56-4.78-1.76-7.39-1.17-8.87-.42-.94.46 1.13 2.87 3.56 5.05 18.19 15.3 40.25 30.9 76.23 41.88 7.4 2 15.21 4.11 21.27 6.21 22.37 6.55 48.21 10.38 78.12 7.6 23.14-2.06 45.48-3.94 63.71-5.04 22.72-1.16 48.15-6.42 73.79-14.45 25.42-8.26 50.66-19.59 73.91-31.88 11.25-5.79 25.06-14.78 35.52-23.56 27.05-22.31 52.19-46.2 74.36-73.69 14.05-17.32 22.35-33.83 25.03-44.84 2.78-10.2 2.59-17.21 4.13-26.92 1.29-6.77 2.56-15.04 4.81-24.43 3.71-16.59 10.05-36.98 16.24-59.32 5.34-17.65 8.89-35.34 12-52.17 3.24-21.04 6.09-32.62 10.54-29.5 5.56 3.93 11.19 9.1 16.18 16.19 7.78 10.58 12.01 46.16 1.27 94.04z" fill="url(#_Новый_образец_градиентной_за_15)"/></g></svg>