<svg id="_Слой_2" xmlns="http://www.w3.org/2000/svg" width="1080" height="1080" xmlns:xlink="http://www.w3.org/1999/xlink" viewBox="0 0 1080 1080"><defs><linearGradient id="_Новый_образец_градиентной_за_10" x1="139.7" y1="776.46" x2="1069.55" y2="227.12" gradientUnits="userSpaceOnUse"><stop offset=".17" stop-color="#fd3dac"/><stop offset=".41" stop-color="#d35ee2"/><stop offset=".68" stop-color="#fef0b1"/><stop offset=".87" stop-color="#3469ef"/></linearGradient></defs><g id="Contour13_000000"><g id="Contour13_000000-2"><path d="M535.47 1080c-.25-3.61-26.08-361.81-99.88-435.62C361.78 570.59 3.61 544.74.0 544.49v-8.97c3.61-.25 361.5-25.77 435.59-99.86C509.68 361.57 535.22 3.68 535.47.07l8.97-.07c.31 3.67 31.75 367.5 99.88 435.66 68.14 68.16 432.01 99.56 435.68 99.87l-.14 8.97c-.89.05-89.97 4.84-187.94 19.63-128.93 19.46-214.56 47.22-247.6 80.25-80.34 80.35-99.69 432-99.87 435.54l-8.98.08zM51.94 540.03c35.87 3.54 86.7 9.3 139.86 17.69 133.84 21.14 218.01 48.16 250.15 80.3 32.14 32.15 59.16 116.32 80.3 250.17 8.09 51.25 13.73 100.34 17.3 135.95 3.05-35.01 8.02-83.04 15.62-133.42 20.03-132.76 47.89-217.78 82.79-252.69h0c34.91-34.9 119.93-62.76 252.69-82.8 52.06-7.86 101.63-12.9 136.89-15.92-36.35-4-87.91-10.35-141.6-19.15-134.8-22.09-218.23-48.38-247.98-78.14-29.75-29.76-56.03-113.19-78.13-247.97-9.09-55.46-15.57-108.65-19.55-145.14-3.49 35.98-9.3 88.18-17.91 142.85-21.09 133.8-48.14 218-80.41 250.26-32.27 32.27-116.47 59.32-250.26 80.4-53.12 8.37-103.9 14.09-139.75 17.61z" fill="url(#_Новый_образец_градиентной_за_10)"/></g></g></svg>