<svg id="_Слой_2" xmlns="http://www.w3.org/2000/svg" width="1080" height="1075.3" xmlns:xlink="http://www.w3.org/1999/xlink" viewBox="0 0 1080 1075.3"><defs><linearGradient id="_Безымянный_градиент_283" x1="0" y1="537.65" x2="1080" y2="537.65" gradientUnits="userSpaceOnUse"><stop offset="0" stop-color="#3dd876"/><stop offset=".38" stop-color="#623686"/><stop offset=".77" stop-color="#fff"/><stop offset=".95" stop-color="#f9fe61"/></linearGradient></defs><g id="Figure12_000000"><path id="Figure12_000000-2" d="M1078.41 375.8c-4.54-62.61-19.63-126.32-56.7-176.97-47.82-65.33-125.69-100.97-202.02-127.96-72.37-25.59-146.59-45.93-221.9-60.8-45.27-8.94-95.38-14.33-140.01-5.74-3.65-1.29-7.5-2.02-11.01-1.96C303.63 4.71 186.65 115.51 100.08 229.53 27.43 325.23-36.49 456.34 24.24 560.01c76.75 131.01 282.77 106.42 394.38 209.36 56.27 51.89 80.38 128.91 119.56 194.66 39.18 65.75 110.52 126.45 184.77 107.87 49.79-12.46 84.18-56.56 114.59-97.9 90.54-123.05 182.96-249.94 222.09-397.61 17.28-65.21 23.65-133.31 18.77-200.6z" fill="url(#_Безымянный_градиент_283)"/></g></svg>