<svg id="_Слой_2" xmlns="http://www.w3.org/2000/svg" width="1067.08" height="472.46" viewBox="0 0 1067.08 472.46"><g id="Followers500_308661220"><g id="Followers500_308661220-2"><g><path d="M1032.78 114.06c-5.85-7.19-18.57-23.41-30.27-35.09-27.86-27.83-65.78-45.81-103.56-50.69-48.47-6.26-96.7.83-138.55 30.85-13.22 9.49-24.44 20.74-33.55 33.61-8.7 12.3-17.67 13.04-25.34 1.32-4.63-7.08-9.91-13.85-15.86-20.22-3.77-4.04-7.75-7.89-11.89-11.54-6.93-6.1-22.1-19.96-35.52-29.52C606.29 10.01 566.04-1.38 528.13.13c-48.74 1.94-95.04 17.04-131.18 53.57-12.71 12.85-22.64 27.42-29.67 43.51-6 13.74-9.54 13.74-10.84-.7-1.31-14.66-1.97-21.99-3.28-36.65-1.3-14.44-7.91-25.66-14.77-25-6.87.66-12.86-2.99-13.39-8.18-.52-5.19-15.34-7.97-33.06-5.92C202.7 31.67 114.68 47.36 27.16 67.92 9.73 72.13-2.27 87.36.36 101.64c8.93 48.35 18.06 96.66 27.36 144.94 2.76 14.24 10.61 26.03 17.48 26.38 6.87.36 12.85 2.98 13.37 5.8.52 2.82-8.31 8-19.7 11.7-11.38 3.7-17.4 12.78-13.51 20.15 2.81 5.34 4.21 8.01 7.01 13.35 10.05 19.21 24.28 34.41 42.23 45.72 12.64 7.96 31.21 16.91 40.57 21.48 5.56 2.71 11.38 5.12 17.43 7.18 34.65 11.79 72.4 11.6 108.04 5.6 39.82-6.71 80.18-21.55 108.79-51.11 13.7-14.16 23.7-29.74 29.79-46.51 5.01-13.78 11.25-17.45 18.96-8.29 4.67 5.53 9.67 10.77 15.03 15.69 3.84 3.54 7.79 6.89 11.83 10.04 6.77 5.28 21.37 17.44 33.57 25.89 28.83 19.95 60.35 27.38 93.57 28.69 41.15 1.62 82.76-16.2 114.5-44.08 11.46-10.07 21.5-21.68 29.86-34.87 7.87-12.42 16.24-13.22 22.89-1.51 4.02 7.08 8.55 13.86 13.56 20.33 3.2 4.13 6.54 8.09 10 11.87 5.79 6.33 18.17 20.77 28.8 31.14 25.16 24.53 55.09 37.1 87.7 43.96 40.44 8.5 84.65-2.06 120.79-24.18 41.7-25.52 69.5-69.95 80.17-115.77 10.9-46.81 10.54-95.08-17.81-137.78-3.07-4.62-6.37-9.09-9.86-13.39zM193.15 273.6c-1.89 1.18-2.25.45-.28-.94 1.97-1.38 3.71-2.05 3.62-1.86-.1.19-1.45 1.62-3.34 2.8z" fill="#854097"/><g><path d="M111.32 306.97c10.61-3.07 15.92-4.57 26.57-7.5 15.31-4.2 34.24 3.28 48.16 7.72 7.62 2.43 16.42 2.74 26.49.98 12.32-2.16 22.35-6.96 29.81-14.53 7.29-7.39 9.99-17.87 7.98-31.15-1.97-12.99-7.69-22.04-17.11-26.62-9.47-4.6-20.26-5.85-31.8-3.85-8.85 1.54-16.72 4.46-23.59 8.71-11.73 7.27-30.41 15.32-46.4 13.76-7.21-.7-10.82-1.03-18.06-1.66-16.05-1.41-31.09-13.92-33.46-28.24-5.56-33.87-11.04-67.74-16.44-101.63-2.27-14.33 9.84-29.18 27.07-32.88 66.27-13.75 132.74-24.8 199.9-33.2 17.43-2.07 32.8 8.19 34.29 22.61 1.05 10.14 1.58 15.21 2.63 25.35 1.5 14.42-10.37 27.45-26.5 29.35-16.12 1.9-31.54-.15-34.48-4.83-2.93-4.68-19.06-6.63-35.97-4.07-20.99 3.17-41.93 6.66-62.81 10.46-16.83 3.06-28.77 17.41-26.68 31.77.38 2.65.58 3.97.96 6.62 2.1 14.35 13.74 17.3 28.48 9.87 14.49-7.31 31.64-13.22 49.68-15.47 32.09-4.02 64.42-3.27 94.66 13.24 24.98 13.63 40.22 39.12 42.75 67.04 2.58 28.44-8.16 56.45-28.19 76.87-24.63 25.11-59.86 38.14-93.45 42.85-31.5 4.42-63.16 6.13-94.34-4.46-17.48-5.94-31.85-14.94-42.91-27.02-9.97-10.88-2.52-25.66 12.73-30.08z" fill="#d59029"/><path d="M409.73 193.8c-2.88-41.6 6.7-85.36 37.44-115.45 28.63-28.01 67.61-42.74 107.46-42.57 40.59.17 80.31 14.89 108.59 44.75 29.11 30.74 38.47 73.32 35.35 114.38-3.11 40.95-17.52 82.73-49.02 110.63-26.54 23.51-60.54 37.19-96.07 37.08-36.25-.11-70.88-14.25-97-39.47-29.63-28.61-43.93-69.01-46.73-109.35zm109.3-4.43c.3 23.41-.49 51.61 10.06 72.96 5.6 11.33 14.46 17.26 25.07 17.3 10.77.04 19.48-6.07 24.99-17.95 9.8-21.18 10.03-48.73 10.14-72.04.11-23.83 2.63-52.68-8.2-73.66-5.68-11-15.44-16.95-26.71-16.99-11.1-.04-20.55 5.77-26.34 16.78-11.13 21.15-9.32 50.18-9.01 73.6z" fill="#d59029"/><path d="M749.6 199.39c4.11-41.53 20.88-83.05 56.26-107.56 33.01-22.87 73.98-30.8 113.34-23.97 40.13 6.97 77.02 28.21 100.07 62.39 23.68 35.13 25.92 78.74 15.95 118.74-9.95 39.92-31.29 78.63-67.12 100.79-30.26 18.71-66.22 26.46-101.36 20.4-35.81-6.18-67.67-25.89-89.28-55.17-24.47-33.15-31.83-75.35-27.85-115.63zm108.7 13.93c-3.61 23.14-9.11 50.81-2.25 73.62 3.64 12.11 11.41 19.44 21.91 21.26 10.64 1.85 20.31-2.72 27.74-13.51 13.23-19.21 18.08-46.36 22.09-69.31 4.1-23.48 11.42-51.52 4.2-74-3.79-11.81-12.46-19.3-23.59-21.24-10.98-1.9-21.28 2.24-28.85 12.13-14.54 18.98-17.61 47.91-21.23 71.05z" fill="#d59029"/></g><g><path d="M85.06 293.69c10.68-3.22 16.04-4.79 26.76-7.87 15.42-4.41 34.6 2.81 48.71 7.07 7.72 2.33 16.62 2.52 26.77.62 12.42-2.32 22.5-7.26 29.97-14.92 7.29-7.48 9.91-18.02 7.74-31.27-2.12-12.97-7.98-21.94-17.54-26.4-9.61-4.48-20.51-5.59-32.14-3.43-8.92 1.66-16.85 4.68-23.74 9.03-11.77 7.43-30.55 15.73-46.71 14.39-7.29-.6-10.93-.89-18.25-1.42-16.21-1.18-31.51-13.5-34.03-27.79-5.93-33.8-11.78-67.62-17.54-101.45-2.43-14.31 9.66-29.33 27-33.26 66.72-14.65 133.66-26.55 201.34-35.81 17.57-2.29 33.17 7.77 34.84 22.17 1.17 10.13 1.75 15.19 2.92 25.32 1.66 14.4-10.18 27.58-26.43 29.68-16.25 2.1-31.83.25-34.84-4.4-3.01-4.64-19.3-6.38-36.33-3.61-21.15 3.44-42.24 7.2-63.27 11.28-16.96 3.29-28.87 17.8-26.63 32.13.42 2.65.63 3.97 1.04 6.61 2.25 14.33 14.03 17.12 28.84 9.49 14.56-7.5 31.79-13.64 49.98-16.13 32.31-4.43 64.94-4.1 95.67 12.03 25.25 13.25 40.99 38.53 43.85 66.51 2.92 28.5-7.72 56.64-27.67 77.23-24.7 25.49-60.12 38.92-93.97 44.07-31.76 4.83-63.7 6.99-95.33-3.18-17.72-5.7-32.31-14.5-43.6-26.43-10.17-10.74-2.78-25.65 12.58-30.28z" fill="#ffdd15"/><path d="M385.2 176.64c-3.36-41.67 5.93-85.53 36.53-115.89 28.63-28.41 67.79-43.52 107.91-43.82 40.84-.3 81.13 13.95 110.05 43.52 29.63 30.3 39.68 72.85 37.03 113.99-2.65 41.05-16.8 83.02-48.16 111.16-26.58 23.85-60.8 37.87-96.58 38.16-36.53.3-71.66-13.34-98.41-38.33-30.16-28.18-45.1-68.39-48.36-108.79zm110.28-5.73c.57 23.41.1 51.64 10.99 72.84 5.79 11.27 14.78 17.09 25.5 17.01 10.86-.08 19.6-6.29 25.02-18.24 9.64-21.25 9.56-48.85 9.4-72.14-.16-23.82 2.03-52.75-9.12-73.56-5.86-10.94-15.78-16.77-27.14-16.68-11.2.09-20.65 6-26.37 17.08-10.97 21.25-8.84 50.28-8.27 73.7z" fill="#ffdd15"/><path d="M728.27 178.37c3.66-41.66 20.13-83.34 55.42-108.16 33.07-23.26 74.27-31.56 113.95-25.13 40.47 6.56 77.93 27.33 101.67 61.41 24.28 34.84 27.18 78.42 17.66 118.63-9.49 40.08-30.61 79.07-66.34 101.47-30.35 19.03-66.55 27.09-102 21.39-36.11-5.8-68.57-25.14-90.83-54.27-25.04-32.78-33.08-74.99-29.54-115.34zm109.83 12.8c-3.35 23.18-8.53 50.94-1.33 73.65 3.83 12.08 11.77 19.32 22.38 21.04 10.77 1.75 20.44-2.91 27.8-13.78 13.08-19.32 17.63-46.57 21.37-69.55 3.83-23.53 10.82-51.69 3.28-74.06-3.97-11.77-12.82-19.18-24.07-21-11.09-1.79-21.43 2.45-28.94 12.42-14.39 19.1-17.14 48.09-20.49 71.28z" fill="#ffdd15"/></g></g><g><path d="M870.42 302.88l-.21-.45c-3.24-6.63-10.17-10.92-17.67-10.92-.76.0-1.52.05-2.28.14-1.25.11-2.41.31-3.5.58-.76-5.89-3.87-11.3-9.38-16.48-2.26-2.13-4.77-3.86-7.65-5.3-2.56-1.52-5.49-2.39-8.49-2.51-1.02-.05-2.06-.08-3.1-.08-4.2.0-8.21.49-11.66 1.39-7.72 1.85-13.9 5.98-18.38 12.27-1.89 2.41-3.18 4.89-4.09 7.32-1.73-9.43-5.36-14.49-13.61-19.15-4.53-2.49-9.55-3.81-14.5-3.81-11.99.0-22.62 7.59-27.14 19.45-2.19 5.92-2.7 11.5-2.7 16.45-2.08-.37-4.1-.56-6.1-.56-6.54.0-12.53 1.95-17.78 5.78-6.02 4.36-10.67 9.82-13.94 16.1-.84.03-1.68.06-2.58.17-.77-1.25-.84-1.37-1.17-2.17-3.1-8.34-12-14.36-21.32-14.36-1.96.0-3.87.28-5.61.81-10.23 3.07-15.91 12.81-14.12 24.25.0.03.0.07.01.1.0.05-.02.09-.03.14-.46-.44-.95-.86-1.46-1.27l-.31-.24-.32-.23c-3.92-2.74-8.38-4.19-12.92-4.19-5.85.0-11.14 2.4-14.95 6.42-.34-.66-.72-1.3-1.14-1.93-3.58-5.39-9.41-8.82-16.11-9.42-.62-.05-1.24-.07-1.84-.07-5.82.0-11.1 2.24-14.87 6.3-3.57 3.86-5.38 8.95-5.18 14.42-.21.14-.47.28-.68.43-5.32-10.57-15.77-17.46-27.92-17.46-4.12.0-8.22.78-12.21 2.32-.8-.1-1.6-.15-2.38-.15-4.73.0-9.02 1.74-12.42 4.86 1.01-5.59 1.45-11.41 1.29-17.45-.14-11.05-6.56-20.03-16.66-23.41-3.42-1.18-6.87-1.77-10.26-1.77-7.25.0-14.25 2.77-20.12 7.92-4.32 3.7-8 8.31-11.26 14.09-1.47 2.63-2.8 5.27-4.03 7.92-1.7-8.74-7.56-15.63-16.11-18.49-3.42-1.18-6.87-1.77-10.26-1.77-7.25.0-14.25 2.77-20.12 7.92-4.32 3.71-8 8.31-11.25 14.09-6.02 10.73-9.73 21.68-13.3 32.88l-.53 1.64c-1.16 3.6-2.35 7.32-3.24 11.5l-.1.54c-.21 1.24-.4 2.48-.59 3.72-.02.14-.04.28-.07.42-.46.29-.94.57-1.35.86-5.31-10.57-15.77-17.46-27.92-17.46-4.12.0-8.22.78-12.21 2.32-.79-.1-1.59-.15-2.38-.15-7.03.0-13.11 3.76-16.72 10.35-1.5 2.76-2.82 5.5-4.11 8.14l-.63 1.3c-2.87-2.82-6.5-4.71-10.55-5.4.39-1.86.8-3.75 1.22-5.67 1.32-6.1 2.69-12.39 3.7-18.8 3.89-.59 7.57-1.44 11.15-2.27 4.25-.99 8.27-1.92 11.98-2.23 2.92-.08 5.83-.87 8.68-2.34l.61-.31.58-.38c6-3.95 9.16-10.17 8.68-16.92-.63-10.53-9.7-19.1-20.21-19.1-1.13.0-2.25.1-3.36.3h-.06c-6.88 1.09-14 2.2-20.78 3.45-7.9 1.39-15.73 2.91-23.37 4.41l-16.28 2.54-.5.09c-7.49 1.47-11.42 5.6-13.39 8.81-1.99 3.24-3.92 8.67-1.8 16.17l.17.58c2.56 7.7 8.69 13.08 16.19 14.49-1.55 7.4-3.08 14.87-4.61 22.35-.59.05-1.14.09-1.64.1-7.12.13-13.37 3.23-17.14 8.52-3.43 4.81-4.38 10.87-2.6 16.66 1.84 6.41 6.86 11.53 13.07 13.88-.01.04-.02.09-.03.14-2.14 8.99-4.35 18.28-5.91 27.73-.66 3.49-1.59 8.63.37 14.42 2.48 8.28 9.47 13.74 18.36 14.3l.28.02h.73c8.8.01 16.04-5.07 18.8-13.03.62-1.7 1-3.19 1.3-4.4.11-.44.22-.87.34-1.28 1.05-3.3 1.29-6.29 1.45-8.48.07-.94.14-1.82.25-2.35 2.18-10.67 4.23-21.45 6.24-32.04.41-.04.81-.09 1.22-.15.55-.08 1.09-.15 1.63-.22 1.8-.22 4.08-.51 6.62-1.27-.06.84-.12 1.68-.16 2.53-.48 13.14 7.5 24.06 19.98 27.18 3.35.81 6.74 1.21 10.05 1.21 10.52.0 20.46-4.07 28.75-11.76l.21-.19c2.89-2.81 5.34-5.79 7.54-8.57 3.48-.92 6.71-2.15 9.69-3.39 3.61 5.08 8.78 9.02 14.87 10.88l.41.12c3.96 1.06 7.36 1.56 10.73 1.56 2.13.0 4.23-.21 6.25-.63l.42-.1c5.92-1.44 10.46-2.91 14.73-4.77l.27-.12c4.13-1.91 7.28-4.43 9.81-6.45.73-.58 1.46-1.17 2.22-1.74l.53-.42c1.57-1.29 3.13-2.74 4.68-4.26 3.24 3.26 7.23 5.76 11.72 7.14l.43.12c3.95 1.06 7.36 1.56 10.72 1.56 2.13.0 4.24-.21 6.25-.63l.42-.1c5.92-1.44 10.47-2.91 14.73-4.77l.27-.12c4.13-1.91 7.28-4.43 9.81-6.45.73-.58 1.46-1.17 2.22-1.74l.53-.42c.95-.79 1.9-1.64 2.86-2.53 3.18 3 7.17 5.23 11.79 6.38 3.35.8 6.73 1.21 10.05 1.21 10.52.0 20.46-4.06 28.75-11.75l.21-.2c2.9-2.81 5.35-5.81 7.54-8.57 4.42-1.17 8.42-2.84 12.04-4.39 4.42 8.19 13.84 13.64 23.94 13.64 3.2.0 6.28-.55 9.19-1.63l.97-.33c3.09-1.05 6.98-2.37 10.7-5.23l.44.16c3.18 1.17 6.47 1.76 9.78 1.76 5.34.0 10.62-1.5 16.12-4.57 10.35-5.75 18.23-14.22 24.2-26.11.13-.28.26-.55.38-.82.74.18 1.47.35 2.18.5 2.53.6 5.1.91 7.66.91.74.0 1.47-.09 2.21-.14 7.05 11.19 18.44 17.54 31.79 17.54 1.65.0 3.33-.1 5-.3 4.7-.49 8.42-2.1 11.41-3.39l1.39-.6.31-.15c5.39-2.62 9.44-6.09 13.03-9.26 1.4 1.1 2.92 2.07 4.61 2.88l.35.17.36.15c4.18 1.69 8.39 2.56 12.52 2.55 3.07.0 6.1-.5 9.05-1.43 2.13 9.82 9.08 18.29 19.02 22.32 2.65 1.12 5.51 1.69 8.52 1.69 1.89.0 3.5-.21 4.79-.38.41-.05.81-.11 1.23-.15l.99-.09.97-.24c.42-.1.85-.18 1.27-.26 1.99-.39 5-.97 8.41-2.74 15.35-8.35 19.93-22.71 21.99-32.94.62-2.62.38-4.77.22-5.82l-.21-1.75c-.32-2.8-.67-5.81-1.29-8.94.73-.53 1.43-1.06 2.09-1.57.92-.7 1.84-1.4 2.61-1.93 5.82-3.83 12.01-8.1 17.94-13.37l.31-.29c6.17-5.87 7.88-14.32 4.47-22.04z" fill="#3d2971"/><g><path d="M862.28 293.11l-.21-.45c-3.23-6.63-10.17-10.92-17.67-10.92-.76.0-1.52.05-2.28.14-1.25.11-2.41.31-3.5.58-.76-5.89-3.87-11.3-9.38-16.48-2.26-2.13-4.77-3.86-7.66-5.3-2.55-1.52-5.49-2.39-8.49-2.51-1.02-.05-2.06-.08-3.1-.08-4.2.0-8.21.49-11.65 1.39-7.73 1.85-13.91 5.98-18.38 12.27-1.89 2.4-3.18 4.89-4.1 7.32-1.73-9.43-5.36-14.49-13.61-19.15-4.53-2.49-9.55-3.81-14.5-3.81-11.99.0-22.62 7.59-27.14 19.45-2.2 5.92-2.71 11.5-2.7 16.45-2.08-.37-4.11-.56-6.1-.56-6.54.0-12.53 1.95-17.78 5.78-6.01 4.36-10.67 9.82-13.93 16.1-.85.03-1.68.06-2.59.17-.76-1.25-.84-1.37-1.16-2.17-3.11-8.34-12-14.35-21.32-14.35-1.96.0-3.87.28-5.6.81-10.24 3.07-15.91 12.81-14.12 24.25.0.03.0.06.01.1.0.05-.02.09-.03.13-.46-.44-.95-.86-1.46-1.27l-.31-.24-.32-.23c-3.92-2.74-8.39-4.19-12.91-4.19-5.85.0-11.14 2.4-14.96 6.42-.34-.66-.72-1.3-1.14-1.93-3.58-5.39-9.41-8.82-16.12-9.42-.63-.05-1.24-.07-1.84-.07-5.82.0-11.1 2.24-14.87 6.3-3.57 3.86-5.38 8.95-5.18 14.42-.22.14-.48.29-.68.43-5.32-10.57-15.77-17.46-27.92-17.46-4.13.0-8.22.78-12.21 2.32-.8-.1-1.6-.15-2.38-.15-4.73.0-9.02 1.74-12.42 4.86 1.01-5.59 1.45-11.41 1.29-17.45-.14-11.05-6.55-20.03-16.66-23.41-3.42-1.18-6.87-1.77-10.25-1.77-7.25.0-14.25 2.77-20.12 7.92-4.32 3.7-8 8.31-11.26 14.1-1.47 2.63-2.81 5.26-4.04 7.92-1.7-8.74-7.56-15.63-16.11-18.49-3.42-1.18-6.87-1.77-10.26-1.77-7.25.0-14.25 2.77-20.12 7.92-4.32 3.71-8 8.31-11.26 14.09-6.02 10.73-9.73 21.68-13.3 32.88l-.53 1.64c-1.16 3.6-2.35 7.32-3.24 11.5l-.1.54c-.21 1.24-.4 2.48-.59 3.72-.02.15-.04.28-.07.42-.45.29-.94.57-1.35.86-5.32-10.57-15.77-17.46-27.93-17.46-4.12.0-8.22.78-12.21 2.32-.79-.1-1.59-.15-2.38-.15-7.03.0-13.11 3.76-16.72 10.35-1.5 2.76-2.82 5.5-4.11 8.14l-.63 1.3c-2.87-2.82-6.5-4.71-10.55-5.4.39-1.86.81-3.75 1.22-5.67 1.32-6.1 2.69-12.39 3.7-18.8 3.89-.59 7.57-1.44 11.15-2.27 4.25-.99 8.28-1.92 11.98-2.23 2.92-.09 5.83-.87 8.68-2.34l.62-.31.58-.38c6-3.95 9.16-10.17 8.68-16.92-.63-10.53-9.7-19.1-20.21-19.1-1.12.0-2.25.1-3.35.31h-.06c-6.88 1.09-14 2.2-20.78 3.45-7.89 1.39-15.73 2.91-23.38 4.41l-16.28 2.54-.5.09c-7.5 1.47-11.42 5.6-13.39 8.81-1.99 3.24-3.92 8.67-1.8 16.17l.17.57c2.55 7.7 8.69 13.08 16.18 14.49-1.54 7.4-3.07 14.87-4.61 22.35-.59.05-1.14.09-1.64.11-7.13.13-13.37 3.23-17.14 8.52-3.44 4.81-4.37 10.87-2.6 16.66 1.83 6.41 6.85 11.53 13.07 13.88-.01.05-.02.1-.03.14-2.14 8.98-4.35 18.28-5.91 27.73-.66 3.49-1.59 8.63.38 14.42 2.48 8.28 9.47 13.74 18.35 14.3l.29.02h.72c8.8.0 16.04-5.07 18.8-13.04.63-1.7 1-3.19 1.31-4.4.11-.44.21-.88.34-1.29 1.05-3.3 1.28-6.29 1.45-8.48.07-.94.15-1.82.25-2.35 2.18-10.67 4.23-21.45 6.23-32.04.41-.04.82-.09 1.22-.15.55-.08 1.09-.15 1.63-.21 1.8-.22 4.08-.51 6.62-1.27-.05.84-.12 1.68-.16 2.53-.49 13.15 7.49 24.06 19.98 27.18 3.35.81 6.74 1.22 10.05 1.22 10.52.0 20.46-4.07 28.75-11.76l.21-.19c2.89-2.81 5.35-5.8 7.54-8.57 3.48-.92 6.7-2.15 9.69-3.39 3.6 5.08 8.78 9.02 14.87 10.88l.42.12c3.95 1.06 7.36 1.56 10.73 1.56 2.13.0 4.23-.21 6.25-.63l.42-.1c5.91-1.44 10.46-2.91 14.73-4.77l.27-.12c4.13-1.91 7.28-4.43 9.81-6.45.72-.58 1.46-1.17 2.22-1.74l.53-.42c1.56-1.29 3.13-2.74 4.68-4.26 3.23 3.26 7.23 5.76 11.72 7.14l.43.12c3.95 1.06 7.36 1.56 10.71 1.56 2.13.0 4.24-.21 6.25-.63l.42-.1c5.92-1.44 10.47-2.91 14.73-4.77l.27-.12c4.13-1.91 7.28-4.43 9.81-6.45.73-.58 1.46-1.17 2.22-1.74l.53-.42c.95-.79 1.91-1.64 2.86-2.53 3.18 3 7.17 5.23 11.78 6.38 3.35.8 6.74 1.21 10.05 1.21 10.51.0 20.46-4.06 28.75-11.76l.2-.19c2.9-2.81 5.36-5.81 7.54-8.57 4.42-1.17 8.42-2.84 12.04-4.39 4.42 8.19 13.84 13.64 23.94 13.64 3.2.0 6.29-.55 9.19-1.63l.96-.33c3.09-1.05 6.98-2.37 10.7-5.23l.44.16c3.18 1.17 6.47 1.76 9.78 1.76 5.34.0 10.63-1.5 16.12-4.57 10.35-5.75 18.23-14.22 24.2-26.11.13-.28.26-.55.39-.82.74.18 1.46.35 2.17.51 2.53.6 5.11.91 7.66.91.74.0 1.47-.09 2.21-.14 7.05 11.19 18.44 17.54 31.79 17.54 1.65.0 3.33-.1 5-.3 4.7-.49 8.42-2.1 11.41-3.39l1.39-.59.31-.15c5.39-2.62 9.45-6.09 13.03-9.26 1.4 1.1 2.92 2.07 4.61 2.88l.35.17.36.15c4.17 1.69 8.39 2.56 12.52 2.55 3.07.0 6.09-.5 9.04-1.43 2.13 9.82 9.08 18.3 19.02 22.32 2.65 1.12 5.51 1.7 8.52 1.7 1.89.0 3.5-.21 4.79-.38.41-.05.82-.11 1.23-.15l.99-.09.97-.24c.42-.1.85-.18 1.27-.26 1.99-.39 5-.97 8.41-2.74 15.35-8.35 19.93-22.71 21.99-32.94.63-2.62.38-4.77.22-5.82l-.2-1.75c-.32-2.8-.67-5.81-1.29-8.94.73-.53 1.43-1.06 2.09-1.57.92-.7 1.84-1.4 2.61-1.93 5.82-3.83 12.01-8.09 17.94-13.37l.31-.29c6.17-5.87 7.88-14.31 4.47-22.04z" fill="#854097"/><path d="M302.56 310.41c6.79-1.25 13.8-2.35 20.81-3.45 3.84-.79 7.98 2.72 8.22 6.65.16 2.24-.9 3.92-2.78 5.16-1.05.54-2.13.9-3.26.89-8.97.65-17.71 3.9-26.63 4.92-7.59 1-7.74 1.21-8.62 8.91-1.81 12.56-5.34 25.02-7.34 37.61-.63 4.44-.66 4.26 3.64 3.96 2.58-.4 5.22-.44 7.86-.47 2.64-.04 4.9 1.12 6.23 3.56 1.84 3.3.64 6.51-2.88 8.2-2.65 1.17-5.29 1.2-8.06 1.64-.92.14-1.87.1-2.82.06-6.88.7-7.35 1.34-8.76 7.98-2.17 11.49-4.34 22.97-6.7 34.48-.64 3.12-.34 6.29-1.36 9.47-.5 1.59-.8 3.34-1.46 5.14-1.04 3-3.45 4.51-6.67 4.44-3.43-.22-5.78-1.93-6.67-5.19-.98-2.68-.46-5.41.05-8.13 2.12-12.99 5.6-25.81 8.48-38.73q1.12-4.9-3.79-3.75c-1.29.2-2.58.41-3.69.58-3.74.21-7.55-2.41-8.47-5.85-1.46-4.5 1.92-8.24 7.39-8.33 3.01-.09 5.96-.55 8.94-.83 2.4-.38 3.73-1.53 4.12-3.86 2.35-11.52 4.71-23.03 7.09-34.36.52-2.72 1.22-5.48 1.56-8.18.2-2.3-.49-3.14-2.89-2.76-2.4.38-4.73 1.12-7.32 1.52-4.24.66-7.78-1.43-9.21-5.74-1.27-4.52.32-7.6 5.09-8.54 3.87-.61 7.93-1.24 11.8-1.85l.02.19c9.35-1.84 18.7-3.69 28.07-5.34z" fill="#fcfcfc"/><path d="M363.37 379.11c.46 2.95.89 3.26 3.72 2.06 3.92-1.56 7.37-3.61 10.77-6.03 1.18-.94 2.35-1.87 3.74-2.66 3.49-1.87 6.98-1.28 9.4 2.12 1.94 2.72 1.51 6-1.28 8.7-3.6 3.58-7.7 6.31-12.3 8.35-5.15 2.13-10.24 4.62-15.71 5.86-1.82.47-3.2 1.26-4.48 2.78-2.36 3.01-4.73 6.03-7.51 8.73-7.59 7.04-16.79 9.81-26.8 7.4-6.49-1.62-10.18-7.09-9.92-13.94.37-9.69 2.49-19.09 6.6-27.86 1.72-3.48 3.41-7.14 5.32-10.66 1.47-2.69 3.72-3.98 6.66-3.31 1.56.32 2.7.34 4.12-.26 12.86-5.98 25.73 1.45 27.37 15.56.14.92.13 2.06.3 3.16zm-36.44 20.62c-.13 3.99 1.57 5.23 5.57 4.23 3.62-.94 6.32-3.07 8.74-5.71.93-1.28.6-2.17-.59-2.55-4.22-1.61-7.47-4.31-11.03-7.72-1.79 4.25-2.56 7.77-2.7 11.76zm20.33-29.44c-2.17-.6-3.9.42-5.36 1.97-2.11 2.22-2.6 5.13-1.27 7.57 1.11 2.28 5.45 4.63 7.48 4.31 1.29-.2 1.91-1.06 2.11-2.22.39-2.33.6-4.63.47-6.68-.4-2.58-1.65-4.47-3.42-4.94z" fill="#fcfcfc"/><path d="M394.79 404.8c-6.55-2-10.78-8.52-10.96-14.53.1-6.63.56-13.31 1.98-19.96.77-3.52 1.17-6.98 1.76-10.47.87-4.1 2.16-7.9 3.43-11.87 3.29-10.34 6.77-20.71 12.24-30.44 2.22-3.94 4.86-7.56 8.36-10.56 4.98-4.37 10.77-6.03 17.56-3.69 5.38 1.8 7.76 6.15 7.8 11.25.29 10.34-1.34 20.42-5.88 30.01-3.22 5.98-6.9 11.47-11.21 16.49-1.59 1.95-3.17 3.9-4.78 5.66-4.16 4.81-9.29 8.25-14.45 11.51-1.72 1.03-2.66 2.3-2.68 4.58-.05 2.09.3 4.3.61 6.33.63 4.06 2.1 4.96 5.94 4.17 6.74-1.62 12.39-5.34 17.1-10.23 4.53-4.86 9.7-9.26 13.34-14.93 1.4-1.92 6.88-9.2 9.52-9.23 4.75.2 6.17 5.64 4.41 10.07-1.11 2.63-3.39 7.33-5.16 9.31-4.5 5.05-10.4 12.02-15.75 16.44-3.21 2.39-6 5.1-9.7 6.81-4.07 1.77-8.22 2.99-12.59 4.05-3.66.76-7.34.2-10.88-.75zm7.58-43.31c.34-.24.9-.33 1.02-.72 7.73-8.58 15.91-16.66 19.19-28.32 1.52-4.77 3.07-9.36 3.06-14.27.11-1.72.56-3.68-1.46-4.49-1.41-.54-2.71.8-3.85 1.92-4.7 3.76-7.49 8.92-9.63 14.54-2.17 5.44-4.13 11.04-5.9 16.6-1.52 4.77-3.41 9.61-3.68 15.12.74-.11 1.11-.17 1.26-.39z" fill="#fcfcfc"/><path d="M456.56 395.14c-6.55-2-10.78-8.52-10.97-14.53.1-6.63.57-13.31 1.98-19.96.77-3.52 1.17-6.98 1.76-10.47.87-4.11 2.17-7.9 3.43-11.87 3.3-10.34 6.77-20.71 12.24-30.44 2.22-3.93 4.86-7.56 8.36-10.56 4.98-4.37 10.76-6.03 17.56-3.69 5.38 1.8 7.77 6.15 7.81 11.25.3 10.34-1.34 20.42-5.88 30.01-3.22 5.98-6.9 11.47-11.21 16.49-1.58 1.95-3.17 3.9-4.78 5.66-4.16 4.81-9.29 8.25-14.44 11.51-1.73 1.03-2.66 2.31-2.69 4.58-.05 2.08.29 4.3.61 6.33.64 4.06 2.1 4.96 5.94 4.17 6.74-1.62 12.39-5.34 17.1-10.23 4.53-4.86 9.69-9.26 13.34-14.94 1.4-1.92 6.88-9.2 9.52-9.23 4.75.2 6.17 5.65 4.41 10.08-1.1 2.63-3.39 7.33-5.16 9.31-4.5 5.05-10.4 12.02-15.75 16.44-3.21 2.39-6.01 5.09-9.7 6.8-4.07 1.77-8.22 2.99-12.59 4.05-3.66.76-7.34.2-10.89-.75zm7.59-43.31c.34-.25.89-.33 1.02-.73 7.72-8.58 15.9-16.66 19.18-28.32 1.52-4.77 3.07-9.36 3.06-14.27.11-1.72.56-3.68-1.46-4.5-1.4-.54-2.71.8-3.85 1.92-4.7 3.76-7.48 8.92-9.62 14.54-2.17 5.44-4.13 11.04-5.91 16.6-1.52 4.77-3.41 9.6-3.68 15.12.74-.12 1.11-.17 1.26-.38z" fill="#fcfcfc"/><path d="M556.26 348.94c.46 2.95.89 3.26 3.73 2.06 3.91-1.56 7.37-3.61 10.77-6.03 1.18-.94 2.35-1.88 3.74-2.66 3.49-1.87 6.98-1.28 9.4 2.12 1.94 2.72 1.51 6-1.28 8.7-3.6 3.58-7.7 6.3-12.3 8.35-5.14 2.12-10.23 4.62-15.7 5.86-1.82.47-3.2 1.25-4.48 2.78-2.36 3.01-4.73 6.03-7.52 8.73-7.58 7.04-16.79 9.8-26.8 7.4-6.49-1.63-10.18-7.09-9.93-13.94.37-9.69 2.49-19.09 6.6-27.86 1.73-3.48 3.41-7.15 5.32-10.66 1.47-2.69 3.72-3.98 6.67-3.31 1.56.32 2.7.34 4.11-.26 12.86-5.98 25.73 1.45 27.37 15.55.15.92.14 2.06.31 3.16zm-36.44 20.62c-.13 3.99 1.57 5.23 5.57 4.23 3.63-.95 6.32-3.07 8.74-5.71.93-1.28.61-2.17-.58-2.55-4.22-1.6-7.48-4.31-11.03-7.72-1.79 4.25-2.56 7.77-2.7 11.76zm20.33-29.44c-2.17-.6-3.9.42-5.36 1.97-2.11 2.22-2.59 5.13-1.27 7.57 1.11 2.28 5.45 4.63 7.47 4.31 1.29-.2 1.91-1.06 2.11-2.22.39-2.33.6-4.63.46-6.68-.4-2.58-1.64-4.47-3.42-4.95z" fill="#fcfcfc"/><path d="M579.48 351.16c-.79-3.84-.05-7.55.08-11.54.0-2.46.15-5.12-.26-7.7-.35-4.67 2.93-7.83 7.72-7.44 5.37.48 8.78 5.42 7.13 10.6-2.25 7.34-1.07 14.9-.65 22.39-.16.21.08.55.11.74.5 2 .69 4.43 2.86 5.03 2.21.79 3.15-1.62 4.45-2.96 6.11-6.82 9.75-14.94 11.59-23.73 1.23-6.61 7.64-9.13 13.15-5.27 2.58 2.05 3.63 5.1 2.06 8.37-1.51 3.64-1.85 7.47-2.38 11.33-.07.77-.14 1.53.0 2.45.43 2.77 1.52 3.73 4.15 2.37 3.15-1.63 6.26-3.44 8.41-6.61 4.73-7.16 8-15.23 10.09-23.68.58-2.36.65-3.12.27-5.52-.78-4.98.94-8.46 4.92-9.65 3.78-1.16 9.53 1.72 10.9 5.66.93 2.31 1.41 2.99 2.69 5.06 2.62 4.69 6.47 6.35 11.63 5.55 3.14-.49 6.36-.43 8.82 2.02 3.31 3.07 3.03 7.27-1.17 9.44-4.35 2.38-9.17 2.95-13.89 1.79-3.52-.77-7.07-1.73-10.18-3.51-1.28-.93-2.02-.82-2.7.8-1.36 3.42-2.9 6.87-4.46 10.14-4.32 8.61-10.22 15.58-18.74 20.31-4.69 2.62-9.59 3.95-14.99 1.96-1.83-.84-3.32-1.93-4.84-3.21-2.17-1.74-2.35-1.71-4.27.48-.65.67-1.09 1.49-1.71 2.34-2.67 3.44-6.3 4.39-10.24 5.76-6.59 2.54-14.87-.88-17.43-6.34-.57-1.24-.99-2.68-2.29-3.8-.55-3.5-1.1-7.01-1.64-10.51.59-1.04 1-2.05.83-3.15z" fill="#fcfcfc"/><path d="M688.92 344.25c-1.92-3.86-1.45-8.09-.95-12.14 1.08-9.99 5.46-18.23 13.77-24.25 5.94-4.33 12.43-3.84 18.83-1.62 4 1.45 6.13 6.6 5.5 11.04-.88 8.83-6.52 13.87-13.94 17.11-2.99 1.41-5.86 2.43-8.99 2.91-2.24.16-2.5.96-1.97 3.14.92 3.45 4.54 6.09 8.84 5.8 4.11-.27 7.87-1.61 11.21-4.4 6.35-5.34 12.77-12.57 16.47-20.34 1.67-3.85 5.2-7.8 8.93-6.87 3.37.99 4.88 3.39 4.1 6.91-.35 1.38-1.4 5.51-1.97 6.73-3.59 6.04-8.35 13.02-13.68 17.63-3.65 3.21-7.28 6.62-11.84 8.84-2.84 1.2-5.64 2.58-8.8 2.89-10.93 1.33-20.37-3.43-25.52-13.39zm14.95-19.16c6-1.5 9.1-4.63 8.9-9.52-6.52 4.23-8.62 6.45-8.9 9.52z" fill="#fcfcfc"/><path d="M760.64 300.34q-1.17 3.4 1.91 4.99c5.56 2.91 6.44 6.17 3.75 11.88-1.82 4.06-3.43 8.28-4.85 12.47-.41 1.01-.45 1.96-.68 2.94-.18 2.49.49 3.13 2.77 2.02 4.41-2.02 8.12-4.86 11.07-8.91 1.81-2.93 4.71-7.35 5.91-10.56.97-2.23 3.3-5.43 5.37-6.7 2.75-1.75 5.89-2.24 8.26-.35 2.16 1.74 1.81 6.71.55 9.55-5.56 12.77-14.67 24.59-27.52 30.56-4.93 2.28-9.87 2.11-14.91.07-3.88-1.85-5.69-4.96-6.14-9.05-.4-2.58-.47-5.41.23-8.16 1.08-3.95 1.18-8.12 2.88-11.79 1.01-2.05.22-3.43-1.8-4.25-4.3-2.16-7.99-5.17-11.51-8.4-3.34-3.25-4.53-7.22-4.82-11.53-.23-5.07-.05-10 1.81-15.02 3.75-9.84 13.92-13.7 23.01-8.7 4.97 2.81 6.4 4.67 7.39 12.26.45 4.08-.84 10.33-2.68 16.66zm-9.83-14.52c.32-1.56 1.11-3.76-1.03-4.18-1.8-.66-3.05 1.05-4.17 2.35-.31.43-.59 1.04-.72 1.43-1.02 4.32-.39 8.37 1.46 13 3.3-4.29 4.17-8.4 4.45-12.6z" fill="#fcfcfc"/><path d="M792.98 371.8c-7.86-3.12-12.63-10.68-11.47-18.99.71-6.34 3.22-12.02 7.2-16.8 2.73-3.07 5.49-5.96 8.5-8.51 1.17-.94 2.29-2.25 3.62-3.4 1.17-.94 1.03-1.86-.1-3.01-2.3-2.66-4.39-5.17-6.67-7.64-5.86-6.08-8.31-13.25-7.52-21.5.44-4.41.91-8.64 3.93-12.33 2.77-4.02 6.38-6.29 10.93-7.38 3.63-.95 7.38-1.15 11-.96.95.04 1.93.26 2.78.89 1.83.85 3.51 1.91 5.06 3.36 6.2 5.83 6.86 10.07 3.32 17.62-2.54 5.5-6.45 9.51-11.42 12.74-.68.48-1.36.97-1.86 1.43-.99.91-1.22 1.89-.3 2.88 4.4 5.17 2.43 5.86 8.82 2.03 6.86-4.48 13.68-9.13 19.39-14.94 1.46-1.55 3.24-2.21 5.3-2.34 2.76-.43 5.66 1.19 6.77 3.48 1.17 2.65.63 5.19-1.52 7.23-5.14 4.58-10.76 8.49-16.41 12.2-3.24 2.21-6.22 4.94-9.89 6.83-2.46 1.14-2.66 2.31-1.86 5.02 1.7 4.83 2.11 9.87 2.73 15.06.06.37.11.73.0 1.14-2.01 10.13-5.71 19.03-15.46 24.33-2.1 1.09-4.34 1.25-6.52 1.78-2.8.25-5.51 1.05-8.35-.21zm7.02-11.87c8.3-4.89 9.49-13.01 8.62-20.99-.19-2.43-1.57-2.78-3.48-1.72-5.52 3.32-9.47 8.28-11.95 14.15-.66 1.8-.77 3.52-.36 4.97.69 4.42 3.72 5.65 7.18 3.6zm-.07-64.41c.2 1.29.56 2.36 2.13 1.55 4.75-2.25 8.77-5.53 10.57-10.91.91-2.6-.93-4.76-3.52-4.36-6.45 1.01-10.56 7.32-9.19 13.72z" fill="#fcfcfc"/></g></g></g></g></svg>