<svg id="_Слой_2" xmlns="http://www.w3.org/2000/svg" width="1061.35" height="1080" viewBox="0 0 1061.35 1080"><g id="Num02_211705100"><g id="Num02_211705100-2"><path d="M973.25 839.52h88.1V1080H973.25z" fill="#08e0f1"/><path d="M453.53 237.59c-22.93 22.7-38.56 62.26-47.05 118.28l86.98 7.04c8.2-59.87 24.27-101.65 48.17-125.31 1.2-1.19 2.5-2.22 3.74-3.35-12.91-11.74-27.57-20.23-43.95-25.52-18.19 5.79-34.21 15.33-47.89 28.87z" fill="#08e0f1"/><path d="M916.39 144.51c33.07 49.02 49.62 103.94 49.62 164.79.0 64.72-18.96 126.52-56.86 185.43-37.92 58.92-106.84 123.63-206.8 194.13-59.4 41.05-99.12 69.79-119.15 86.2-20.04 16.42-43.59 37.92-70.62 64.47h88.1c27.04-26.55 50.58-48.05 70.62-64.47 20.03-16.41 59.76-45.15 119.15-86.2 99.96-70.5 168.89-135.2 206.8-194.13 37.9-58.91 56.86-120.72 56.86-185.43.0-60.85-16.55-115.77-49.62-164.79-33.08-49.01-78.48-85.35-136.18-109.02C810.61 11.84 729.84.0 626.02.0c-14.69.0-28.86.3-42.61.85 82.18 3.04 147.83 14.57 196.8 34.64 57.7 23.67 103.1 60.01 136.18 109.02z" fill="#08e0f1"/><path d="M469.83 560.64c86.44-64.22 141.72-113 165.88-146.32 24.14-33.32 36.22-64.94 36.22-94.89.0-32.35-11.95-60-35.85-82.94-13.52-12.97-29.08-22.14-46.55-27.78-16.59 5.28-31.31 13.79-44.15 25.52.85.78 1.76 1.46 2.59 2.26 23.9 22.94 35.86 50.59 35.86 82.94.0 29.95-12.08 61.57-36.22 94.89-24.15 33.32-79.44 82.1-165.88 146.32-141.5 104.79-237.95 195.7-289.38 272.72C40.93 910.39 10.14 992.6.0 1080H88.1c10.14-87.4 40.93-169.61 92.35-246.64 51.43-77.02 147.88-167.92 289.38-272.72z" fill="#e8fd03"/><path d="M173.57 144.51c30.9-46.6 74.48-82.33 130.74-107.2C352.26 16.11 415.96 3.98 495.31.85c-14.66-.54-29.78-.85-45.49-.85-99.48.0-177.35 12.44-233.6 37.3-56.26 24.88-99.85 60.61-130.74 107.2-30.91 46.61-52.15 111.44-63.74 194.49l295.53 23.9c.33-2.44.76-4.66 1.12-7.04l-208.55-16.87c11.59-83.05 32.83-147.88 63.74-194.49z" fill="#e8fd03"/><path d="M545.89 202.09c-16.11.0-30.88 2.3-44.47 6.63 16.38 5.29 31.04 13.78 43.95 25.52 12.84-11.73 27.56-20.23 44.15-25.52-13.41-4.33-27.91-6.63-43.64-6.63z" fill="#07f105"/><path d="M318.39 355.86l86.98 7.04c.33-2.44.76-4.66 1.12-7.04l-86.98-7.04c-.39 2.32-.76 4.66-1.12 7.04z" fill="#ff01c5"/><path d="M583.41.85c-14.66-.54-29.78-.85-45.49-.85-14.69.0-28.86.3-42.61.85 15.76.58 30.96 1.45 45.5 2.66 13.65-1.2 27.87-2.08 42.6-2.66z" fill="#ff01c5"/><path d="M692.11 35.49c57.7 23.67 103.1 60.01 136.18 109.02 33.07 49.02 49.62 103.94 49.62 164.79.0 64.72-18.96 126.52-56.86 185.43-37.92 58.92-106.84 123.63-206.8 194.13-59.4 41.05-99.12 69.79-119.15 86.2-20.04 16.42-43.59 37.92-70.62 64.47h88.1c27.04-26.55 50.58-48.05 70.62-64.47 20.03-16.41 59.76-45.15 119.15-86.2 99.96-70.5 168.89-135.2 206.8-194.13 37.9-58.91 56.86-120.72 56.86-185.43.0-60.85-16.55-115.77-49.62-164.79-33.08-49.01-78.48-85.35-136.18-109.02C731.24 15.42 665.6 3.89 583.41.85c-14.73.58-28.95 1.45-42.6 2.66 61.28 5.1 111.72 15.76 151.3 31.99z" fill="#0706c7"/><path d="M885.15 839.52h88.1V1080H885.15z" fill="#0706c7"/><path d="M501.42 208.72c-13.41-4.33-27.91-6.63-43.64-6.63-37.67.0-68.45 11.84-92.35 35.49-21.96 21.74-37.21 58.95-45.92 111.24l86.98 7.04c8.48-56.02 24.12-95.57 47.05-118.28 13.68-13.54 29.7-23.07 47.89-28.87z" fill="#0706c7"/><path d="M557.93 560.64c86.44-64.22 141.72-113 165.88-146.32 24.14-33.32 36.22-64.94 36.22-94.89.0-32.35-11.95-60-35.85-82.94-23.9-22.93-53.96-34.41-90.18-34.41-16.11.0-30.88 2.3-44.47 6.63 17.46 5.64 33.03 14.81 46.55 27.78 23.9 22.94 35.85 50.59 35.85 82.94.0 29.95-12.08 61.57-36.22 94.89-24.15 33.32-79.44 82.1-165.88 146.32-141.5 104.79-237.95 195.7-289.38 272.72-51.43 77.03-82.21 159.24-92.35 246.64h88.1c10.14-87.4 40.93-169.61 92.35-246.64 51.43-77.02 147.88-167.92 289.38-272.72z" fill="#ff3508"/><path d="M197.93 338.99c11.59-83.05 32.83-147.88 63.74-194.49 30.9-46.6 74.48-82.33 130.74-107.2 39.04-17.26 88.52-28.52 148.39-33.8-14.54-1.21-29.74-2.08-45.5-2.66-79.35 3.13-143.05 15.26-190.99 36.46-56.26 24.88-99.85 60.61-130.74 107.2-30.91 46.61-52.15 111.44-63.74 194.49l208.55 16.87c.36-2.38.74-4.72 1.12-7.04l-121.57-9.83z" fill="#ff3508"/><path d="M600.67 839.52h-176.2c27.04-26.55 50.58-48.05 70.62-64.47 20.03-16.41 59.76-45.15 119.15-86.2 99.96-70.5 168.89-135.2 206.8-194.13 37.9-58.91 56.86-120.72 56.86-185.43.0-60.85-16.55-115.77-49.62-164.79-33.08-49.01-78.48-85.35-136.18-109.02-39.58-16.22-90.02-26.89-151.3-31.99-59.87 5.28-109.35 16.54-148.39 33.8-56.26 24.88-99.85 60.61-130.74 107.2-30.91 46.61-52.15 111.44-63.74 194.49l121.57 9.83c8.71-52.29 23.97-89.5 45.92-111.24 23.9-23.65 54.69-35.49 92.35-35.49 15.73.0 30.23 2.3 43.64 6.63 13.59-4.33 28.36-6.63 44.47-6.63s30.23 2.3 43.64 6.63c13.59-4.33 28.36-6.63 44.47-6.63 36.22.0 66.28 11.48 90.18 34.41 23.9 22.94 35.85 50.59 35.85 82.94.0 29.95-12.08 61.57-36.22 94.89-24.15 33.32-79.44 82.1-165.88 146.32-141.5 104.79-237.95 195.7-289.38 272.72-51.43 77.03-82.21 159.24-92.35 246.64H885.15V839.52H600.67z" fill="#070707"/></g></g></svg>