<svg xmlns="http://www.w3.org/2000/svg" width="1080" height="1034.78" viewBox="0 0 1080 1034.78"><g id="a"/><g id="b"><g id="c"><g id="d"><g><path d="M516.74 927.03c19.6 7.52 42.18-39.99 58.22-59.92 21.31-26.5 39.27-58.01 39.27-58.01.0.0-22.26 1.25-31.85-22.35-9.59-23.6 50.19-74.51 50.19-74.51.0.0-17.54 5.61-36.19-28.09-18.65-33.71-9.58-87.69-9.58-87.69.0.0-33.32 68.96-57.54 72.84-24.23 3.88-32.73-6.28-32.73-6.28.0.0 24.45 68.36 8.81 80.63-15.64 12.28-35.04 9.96-35.04 9.96.0.0 10.33 159.56 46.45 173.42z" fill="#569e5a"/><path d="M601.26 815.04c-3.19.88-6.34 1.53-9.45 2.71-3.26 1.25-6.45 2.7-9.66 4.08-6.42 2.76-12.84 5.51-19.23 8.35-11.76 5.23-23.5 10.52-35.23 15.83 1.25-15.2 3.21-30.34 5.82-45.37 2.65-15.29 5.93-30.43 9.58-45.48.39-.02.78-.11 1.14-.29 12.52-6.49 25.04-12.97 37.56-19.46 6.19-3.21 12.32-6.53 18.45-9.85 3.07-1.66 6.14-3.3 9.2-4.98 2.24-1.24 5.96-2.81 6.78-5.44.11-.36-.07-.77-.44-.9-2.61-.87-5.97 1.17-8.28 2.27-2.99 1.42-5.97 2.89-8.95 4.34-6.42 3.11-12.83 6.21-19.19 9.44-11.48 5.82-22.95 11.64-34.43 17.47 4.48-17.85 9.43-35.58 14.47-53.29 2.82-9.93 5.82-19.81 8.65-29.73 2.75-9.63 6.06-19.28 7.56-29.2.05-.35-.51-.56-.68-.23-4.05 8.05-6.71 16.77-9.61 25.29-2.95 8.66-5.74 17.37-8.5 26.1-2.72 8.62-5.33 17.27-7.83 25.95-.7-.65-1.47-1.25-2.13-1.88-1.94-1.84-3.85-3.72-5.77-5.59-3.72-3.61-7.43-7.23-11.15-10.84-3.72-3.62-7.46-7.21-11.19-10.81-3.61-3.47-7.3-7.55-11.57-10.21-.83-.52-2.23.4-1.6 1.38 2.71 4.22 6.7 7.8 10.21 11.36 3.75 3.8 7.5 7.61 11.27 11.39l11.32 11.35c1.89 1.89 3.78 3.78 5.64 5.7 1.17 1.21 2.14 2.55 3.52 3.27-2.07 7.36-4.07 14.73-5.97 22.14-6.1 23.77-11.34 47.83-15.12 72.1-1.01-1.05-2.07-2.05-3.04-3.08-2.17-2.28-4.35-4.56-6.52-6.84-4.46-4.68-8.87-9.42-13.39-14.04-4.41-4.51-8.8-9.03-13.16-13.59-2.18-2.28-4.34-4.57-6.54-6.83-1.96-2.01-3.93-4.36-6.53-5.54-.83-.38-1.45.64-1.19 1.34 1.02 2.68 3.37 4.85 5.28 6.93 2.13 2.32 4.27 4.63 6.41 6.94 4.27 4.63 8.48 9.3 12.72 13.96 4.12 4.54 8.34 9 12.51 13.49 2.14 2.31 4.28 4.62 6.42 6.93 1.95 2.1 3.83 4.63 6.13 6.39-1.41 9.72-2.59 19.48-3.48 29.26-.92 10.15-1.5 20.33-1.69 30.53-.1 5.18-.1 10.36.0 15.53.09 5.05-.29 10.49 1.23 15.33.79 2.52 4.01 2.32 4.51-.27.87-4.5.18-9.22.07-13.8-.11-4.46-.14-8.92-.1-13.38.08-9.05.45-18.09 1.04-27.12.03-.4.06-.79.09-1.19.05-.02.11-.04.16-.06 12.71-5.78 25.41-11.59 38.09-17.46 6.18-2.87 12.33-5.82 18.48-8.76 3.15-1.5 6.34-2.95 9.43-4.56 3.1-1.62 5.75-3.65 8.65-5.55.72-.47.08-1.73-.72-1.51z" fill="#6ec470"/></g><g><path d="M337.04 791.11c-34.18 27.37-19.29 123.04-19.29 123.04.0.0 12.79-13.59 29.18 1.47 16.39 15.06 9.47 47.43 9.47 47.43.0.0 28.61-9.17 41.88.52 13.26 9.69 13.21 42.23 13.21 42.23.0.0 29.95-25.91 49.67-17.97 19.73 7.94 37.11 46.95 37.11 46.95.0.0 25.98-35.19 58.02-20.17 32.04 15.02 34.77 18.47 34.77 18.47.0.0-36.9-53.77-24.01-72.91 12.88-19.15 27.3-19.34 27.3-19.34.0.0-65.13-15.76-54.57-36.43 10.56-20.67 21.41-22.53 21.41-22.53.0.0-68.35-4.25-61.39-20.96 6.96-16.71 21.27-21.3 21.27-21.3.0.0-77-5.26-68.51-24.29l8.49-19.04s-65.66-51.88-124-5.17z" fill="#296d58"/><path d="M535.26 886.28c-17.29-.14-34.42 2.49-51.8 1.78-8.44-.34-16.86-1.02-25.24-2.12-6.46-.85-14.14-3.69-20.84-3.32-7.47-7.13-14.95-14.26-22.45-21.38 6.55.97 13.97-.24 19.51-1.3 17.28-3.32 34.55-7.76 51.59-12.12 3.28-.84 2.67-6.04-.75-5.31-15.22 3.29-30.33 7.11-45.49 10.64-5.7 1.33-11.46 2.71-17.33 3-5.33.26-10.12-1.16-15.17-2.14-15.04-14.21-30.19-28.3-45.61-42.03 13.54-2.7 27.08-5.4 40.62-8.12 12.84-2.58 27.35-2.8 39.64-7.11.84-.3.9-1.79-.03-2.02-12.23-3.1-26.78.75-38.95 2.83-15.51 2.64-30.95 5.78-46.41 8.71-.36.07-.68.19-.97.34-4.34-3.82-8.7-7.61-13.09-11.36-.59-.51-1.51.42-.96 1 3.87 4.07 7.79 8.1 11.73 12.11-6.91 12.52-11.6 26.86-16.29 40.34-4.73 13.59-10.37 27.7-12.78 41.91-.3 1.76 2.26 2.27 2.93.73 5.79-13.12 9.42-27.38 14.51-40.82 4.74-12.51 10.64-24.93 14.86-37.64.31.03.63.03.99-.04l.16-.03c14.59 14.73 29.54 29.16 44.61 43.46-5.27 13.53-7.76 28.4-13.09 42.04-5.6 14.32-14.03 27.6-19.14 42.02-.31.88.78 1.39 1.36.75 10.21-11.23 16.61-27.12 22.29-41 4.96-12.13 11.09-26.23 12.94-39.67 8.79 8.31 17.6 16.59 26.4 24.87.01.03.03.06.04.09-.4.34-.72.84-.86 1.54-3.46 16.46-6.91 32.85-8.97 49.56-1.9 15.42-4.37 31.94-2.39 47.43.1.77 1.18.7 1.31-.02 2.86-15.4 2.81-31.41 5.01-46.95 2.29-16.17 5.17-32.39 9.6-48.12 6.1 5.74 12.2 11.49 18.26 17.25 12.12 11.51 24.25 23.01 36.37 34.52-.03.08-.07.15-.08.23-1.91 11.55.96 24.98 1.81 36.63.96 13.1 1.29 26.48 3.26 39.47.26 1.69 3.07 1.8 3.11-.04.26-12.75-1.09-25.61-1.81-38.34-.61-10.76.17-23.07-2.06-33.87.05.02.1.04.14.06 5.88 5.58 11.76 11.16 17.64 16.74 19.4 18.4 38.24 37.8 58.5 55.25 2.05 1.77 5.25-1.48 3.35-3.47-17.89-18.6-37.56-35.73-56.32-53.46-4.34-4.1-8.68-8.2-13.02-12.3 9.45 1.49 19.99.87 28.61.42 12.07-.63 28.39-1.21 38.52-8.54.47-.34.24-1.17-.34-1.21-12.22-.81-25.11 3.88-37.48 4.4-7.49.31-14.99.05-22.45-.66-4.92-.47-9.82-1.65-14.74-1.85-12.53-11.84-25.06-23.68-37.6-35.51-5.04-4.76-10.08-9.53-15.11-14.32 3.71.57 7.5.81 10.76 1.25 9.35 1.27 18.78 2.07 28.22 2.29 16.77.38 35.27.39 51.31-4.99 1.17-.39.92-2.44-.35-2.45z" fill="#569e5a"/></g><g><path d="M537.97 854.14s7.8-12.74 38.82-28.08c31.02-15.33 125.84-12.03 125.84-12.03.0.0-20.17 24.86-.23 54.45 19.94 29.59 107.73 40.92 107.73 40.92.0.0-13.14 16.84-6.54 34.07 6.6 17.24 39.06 37.77 39.06 37.77.0.0-55.98-4.99-64.74 11.61-8.76 16.6-9.27 34.15-9.27 34.15.0.0-99.07-102.49-120.99-80.04-21.91 22.45-25.38 44.02-25.38 44.02.0.0-96.61-73.76-84.32-136.85z" fill="#296d58"/><path d="M603.55 884.84c2.78 8.7 4.71 17.77 6.58 26.7 1.88 8.99 3.7 17.98 5.04 27.08.66 4.45 1.24 8.91 1.75 13.38.48 4.23.41 9.05 1.95 13.05.29.76 1.43.8 1.63-.06.95-4.18.1-8.89-.27-13.11-.41-4.66-.9-9.31-1.47-13.95-1.09-8.9-2.3-17.82-4-26.63-1.75-9.02-4.01-17.89-6.11-26.83-1.93-8.18-3.78-16.31-6.3-24.32 12.28 1.99 25.88 6.5 38.87 15.61 40.29 28.24 68.16 49.34 84.81 61.95 2.24 1.7 4.87 3.38 7.79 5.04-.14 1.01.57 1.88 1.56 2.15 4.75 10.94 9.61 21.83 14.21 32.83 2.37 5.66 4.84 11.27 7.26 16.91 1.13 2.63 2.23 5.27 3.35 7.9 1.03 2.43 1.82 4.99 3.57 6.99.46.52 1.36.02 1.32-.61-.17-2.91-1.67-5.62-2.74-8.3-1.06-2.65-2.14-5.3-3.17-7.96-2.15-5.51-4.3-11.02-6.52-16.5-3.99-9.81-7.75-19.71-11.59-29.58 11.73 5.78 26.06 11.2 38.38 15.86 9.69 3.66 26.86 9.5 27.74 7.76.88-1.74-15.37-10.63-25.24-14.36-11.83-4.47-25.55-9.66-36.74-15.08 2.11-1.14 4.22-2.26 6.35-3.34 5.37-2.74 10.82-5.3 16.33-7.72 5.36-2.35 10.78-4.56 16.27-6.61 2.92-1.09 5.87-2.12 8.81-3.18 2.46-.88 4.81-1.58 6.72-3.42.42-.41.15-1.2-.41-1.3-2.61-.48-4.93.27-7.44.99-2.99.87-5.95 1.86-8.9 2.87-5.89 2.03-11.73 4.23-17.48 6.63-5.59 2.33-11.12 4.86-16.56 7.52-2.8 1.37-5.59 2.79-8.35 4.24-.3.16-.61.31-.92.47-3.58-1.93-6.76-3.88-9.33-5.83-16.69-12.64-44.62-33.78-85.02-62.1-4.14-2.91-8.33-5.37-12.52-7.47 3.52-1.75 6.94-3.79 10.28-5.67 5.42-3.05 10.74-6.27 15.95-9.67 5.04-3.29 9.9-6.87 14.66-10.55 4.45-3.44 9.54-6.99 12.14-12.09.44-.86-.39-1.87-1.32-1.59-5.42 1.64-9.93 5.73-14.48 9-4.73 3.39-9.58 6.59-14.45 9.76-4.87 3.18-9.84 6.21-14.9 9.08-5.08 2.88-10.58 5.22-15.53 8.29-34.13-13.65-65.82-4.43-67.4-3.95-1.87.56-2.92 2.53-2.36 4.4.12.39.29.74.52 1.05.86 1.19 2.4 1.76 3.88 1.31.25-.08 15.07-4.39 34.91-2.67.02.06.03.11.05.17 2.94 8.49 6.14 16.91 8.87 25.47z" fill="#569e5a"/></g><g><path d="M111.84 639s12.33-14.5 54.39-27.69c42.06-13.19 160.75 9.65 160.75 9.65.0.0-30.28 27.31-11.01 68.49 19.27 41.17 127.54 72.72 127.54 72.72.0.0-19.85 18.61-14.94 41.6 4.91 22.99 41.72 55.23 41.72 55.23.0.0-69.47-17.31-83.76 1.86-14.29 19.17-18.39 41.15-18.39 41.15.0.0-104.51-148.51-136.51-124.57-32 23.93-40.61 50.41-40.61 50.41.0.0-107.07-111.86-79.17-188.85z" fill="#569e5a"/><path d="M188.33 690.55c1.78 11.5 2.43 23.29 3.02 34.9.6 11.69 1.11 23.36 1.01 35.07-.05 5.73-.2 11.46-.43 17.18-.22 5.42-1.26 11.47-.12 16.81.22 1.01 1.64 1.29 2.06.25 2.02-5.07 1.87-11.17 2.24-16.55.4-5.94.7-11.89.9-17.84.38-11.42.62-22.88.21-34.3-.43-11.7-1.52-23.31-2.41-34.98-.81-10.68-1.54-21.27-3.14-31.85 15.07 4.93 31.3 13.28 45.85 27.3 45.15 43.48 76.07 75.53 94.54 94.67 2.49 2.58 5.47 5.21 8.81 7.88-.38 1.24.35 2.48 1.54 3.01 3.82 14.7 7.79 29.37 11.41 44.12 1.86 7.59 3.87 15.14 5.81 22.72.91 3.53 1.77 7.07 2.66 10.61.82 3.26 1.3 6.63 3.12 9.5.47.75 1.71.3 1.79-.51.35-3.7-1-7.41-1.82-10.99-.81-3.55-1.64-7.09-2.43-10.64-1.62-7.36-3.24-14.71-4.96-22.05-3.08-13.13-5.88-26.34-8.76-39.52 13.62 9.59 30.59 19.23 45.18 27.52 11.47 6.52 31.94 17.24 33.39 15.23 1.45-2.02-17.25-16.4-28.95-23.05-14.01-7.96-30.26-17.19-43.28-26.22 2.87-1.02 5.76-2.01 8.65-2.96 7.29-2.39 14.66-4.54 22.08-6.5 7.21-1.9 14.47-3.62 21.78-5.11 3.9-.8 7.81-1.51 11.71-2.26 3.27-.63 6.36-1.04 9.13-2.99.61-.43.43-1.48-.26-1.72-3.19-1.12-6.26-.64-9.56-.21-3.94.51-7.86 1.17-11.77 1.86-7.81 1.39-15.59 3.01-23.3 4.9-7.5 1.84-14.95 3.92-22.33 6.2-3.8 1.17-7.58 2.41-11.34 3.69-.41.14-.83.27-1.26.4-4.13-3.13-7.74-6.21-10.59-9.17-18.52-19.19-49.51-51.31-94.78-94.91-4.64-4.47-9.43-8.4-14.28-11.87 4.77-1.5 9.48-3.4 14.06-5.11 7.42-2.77 14.75-5.78 21.98-9.03 6.99-3.15 13.81-6.7 20.53-10.4 6.28-3.46 13.38-6.92 17.66-12.83.72-.99-.13-2.43-1.35-2.26-7.15 1-13.63 5.26-20 8.47-6.61 3.34-13.35 6.4-20.11 9.44-6.76 3.04-13.61 5.87-20.54 8.49-6.96 2.63-14.35 4.49-21.18 7.38-40.27-23.9-81.97-18.53-84.06-18.25-2.46.34-4.18 2.61-3.84 5.07.07.51.23.99.45 1.42.85 1.66 2.68 2.68 4.63 2.41.33-.05 19.84-2.56 44.47 3.51.01.07.01.14.03.22 2.03 11.26 4.39 22.49 6.14 33.8z" fill="#6ec470"/></g><g><path d="M147.51 877.61s37.5-32.76 38.59-55.67c1.09-22.91 41.89-28.27 41.89-28.27.0.0-17.6-48.16-15.1-67.97 2.5-19.81 27.11-34.14 27.11-34.14.0.0-17.26-33.97-15.74-48.08 1.52-14.11 27.93-22.81 27.93-22.81.0.0-50.35-110.63-120.2-101.72-69.85 8.92-89.83 119.29-89.83 119.29.0.0 27.46 16.12 22.67 27.03-4.79 10.91-18.59 47.41-18.59 47.41.0.0 52.19 32.51 37.74 58.79-14.45 26.28-11.67 32.32-11.67 32.32.0.0 22.22-11.87 33.43 12.82 11.21 24.69 41.78 60.99 41.78 60.99z" fill="#296d58"/><path d="M59.42 711.12c3.34.74 8.18-1.91 11.28-3.06 4.22-1.55 8.4-3.19 12.54-4.93 8.1-3.42 16.07-7.15 23.89-11.19 7.61-3.93 15.06-8.17 22.34-12.67 3.82-2.36 7.6-4.79 11.32-7.3 2.16-1.46 5.35-3.02 7.48-5.05-1.79 29.02-3.99 57.97-4.67 86.99-10.35 6.88-20.7 13.76-31.03 20.67-5.06 3.39-10.13 6.77-15.2 10.15-4.93 3.29-11 6.3-14.91 10.81-.54.62.28 1.32.9 1.12 5.7-1.86 10.9-6.36 15.87-9.63 5.09-3.35 10.18-6.7 15.28-10.05 9.68-6.36 19.35-12.75 29.01-19.13-.23 12.56-.17 25.13.36 37.73.53 12.52 1.38 25.03 2.26 37.53.88 12.56 1.29 25.69 3.93 38.02.06.27.53.31.53.0-.18-10.94-1.87-21.94-2.7-32.86-.85-11.31-1.34-22.58-1.57-33.92-.32-16.22-.26-32.43.19-48.64.26-.41.24-.89.03-1.31.17-5.98.39-11.97.67-17.95.05-1.18.11-2.35.17-3.53 1.72 1.77 4.09 3.19 5.86 4.63 3.12 2.54 6.24 5.08 9.38 7.6 6.11 4.92 12.22 9.85 18.32 14.78 12.36 9.99 24.7 19.98 37.49 29.41.73.54 1.48-.54.82-1.12-11.86-10.63-24.17-20.7-36.49-30.78-6.07-4.97-12.14-9.95-18.2-14.94-3.11-2.56-6.23-5.09-9.35-7.64-2.33-1.9-4.75-4.66-7.64-5.68 1.48-27.58 4.01-55.12 5.23-82.71 11.92 9.94 24.75 18.92 38 26.99 13.26 8.08 27.04 15.53 41.62 20.93.64.24.95-.65.38-.96-13.9-7.33-27.87-14.52-41.18-22.91-13.09-8.26-25.47-17.43-37.49-27.17-.4-.32-.81-.41-1.18-.34.51-12.76.73-25.52.41-38.31-.26-10.3-.9-20.59-2.02-30.83 2.41 1.58 5.45 2.64 7.87 3.84 3.81 1.89 7.64 3.74 11.45 5.63 7.81 3.87 15.59 7.77 23.39 11.66 15.59 7.77 31.2 15.44 46.98 22.8.49.23.75-.52.3-.76-15.13-8.32-30.42-16.31-45.77-24.22-7.57-3.9-15.15-7.8-22.72-11.71-3.79-1.95-7.56-3.94-11.34-5.91-3.17-1.65-7-4.45-10.61-5.1-1.59-13.09-4-26.08-7.46-38.84-.57-2.09-3.94-1.6-3.37.52 2.2 8.12 3.96 16.3 5.35 24.53-.11.01-.23.03-.34.06-4.16 1.28-8.11 3.96-11.76 6.3-3.78 2.43-7.4 5.09-10.92 7.88-7.52 5.95-14.68 12.36-21.93 18.64-15.45 13.39-31.1 26.58-46.03 40.56-1.04.98.27 2.66 1.42 1.75 15.85-12.58 31.03-25.99 46.38-39.17 7.15-6.14 14.21-12.43 21.59-18.3 3.51-2.8 7.12-5.49 10.88-7.94 3.63-2.37 7.57-4.15 11.27-6.36 5.36 34.11 4.59 68.99 2.5 103.45-1.71.31-2.83 1.37-4.27 2.39-1.84 1.29-3.68 2.57-5.55 3.82-3.41 2.3-6.87 4.54-10.36 6.72-7.66 4.77-15.53 9.21-23.55 13.35-7.65 3.95-15.45 7.61-23.38 10.96-3.96 1.68-7.94 3.31-11.96 4.86-2.09.81-4.2 1.59-6.28 2.41-1.64.65-3.07 1-4.2 2.37-.36.43.0.97.47 1.07z" fill="#569e5a"/></g><g><path d="M133.44 479.11s11.49-9.55 45.79-14.09c34.3-4.53 123.01 29.13 123.01 29.13.0.0-27.1 17.04-17.75 51.48 9.35 34.44 88.82 73.42 88.82 73.42.0.0-17.86 11.71-17.16 30.15.7 18.44 24.82 48.34 24.82 48.34.0.0-51.39-22.75-65.03-9.85-13.63 12.9-19.77 29.34-19.77 29.34.0.0-60.8-128.93-88.77-114.73-27.97 14.2-38.2 33.51-38.2 33.51.0.0-67.72-100.94-35.77-156.71z" fill="#296d58"/><path d="M185.64 529.29c-.17 9.13-1.26 18.34-2.37 27.39-1.11 9.12-2.29 18.22-3.95 27.26-.81 4.42-1.7 8.83-2.65 13.23-.9 4.16-2.52 8.7-2.36 12.99.03.81 1.1 1.22 1.56.47 2.25-3.65 2.95-8.38 3.96-12.5 1.11-4.54 2.14-9.1 3.1-13.68 1.83-8.78 3.56-17.61 4.78-26.5 1.25-9.11 1.97-18.23 2.85-27.37.81-8.37 1.67-16.66 1.86-25.05 10.99 5.84 22.41 14.49 31.78 27.29 29.06 39.71 48.65 68.66 60.35 85.95 1.58 2.33 3.53 4.77 5.75 7.28-.46.91-.07 1.97.79 2.54.97 11.88 2.07 23.76 2.88 35.66.42 6.12.95 12.23 1.43 18.35.22 2.85.42 5.71.63 8.56.19 2.63.11 5.3 1.13 7.76.27.64 1.28.46 1.45-.15.77-2.81.23-5.86.08-8.74-.15-2.85-.32-5.7-.44-8.56-.26-5.91-.52-11.81-.86-17.72-.61-10.57-.99-21.16-1.45-31.74 9.24 9.25 21.06 18.99 31.23 27.37 7.99 6.59 22.38 17.64 23.77 16.27 1.39-1.37-11.13-15.01-19.28-21.72-9.76-8.04-21.08-17.37-29.93-26.11 2.36-.4 4.72-.78 7.09-1.12 5.96-.86 11.95-1.53 17.95-2.05 5.83-.5 11.68-.85 17.53-1.02 3.12-.09 6.24-.12 9.36-.17 2.62-.04 5.06.05 7.46-1.08.53-.25.53-1.09.03-1.37-2.31-1.3-4.75-1.34-7.36-1.45-3.11-.14-6.23-.16-9.35-.14-6.23.03-12.46.23-18.68.65-6.05.41-12.09 1.02-18.1 1.79-3.1.4-6.19.84-9.27 1.33-.34.05-.68.1-1.03.14-2.77-2.98-5.15-5.85-6.96-8.52-11.73-17.34-31.37-46.35-60.5-86.17-2.99-4.08-6.16-7.77-9.45-11.1 3.89-.52 7.79-1.35 11.56-2.06 6.11-1.14 12.19-2.48 18.21-4.02 5.83-1.49 11.58-3.32 17.27-5.27 5.32-1.83 11.28-3.54 15.38-7.54.69-.67.23-1.9-.74-1.93-5.66-.19-11.25 2.23-16.61 3.86-5.56 1.69-11.19 3.15-16.82 4.59-5.64 1.44-11.31 2.71-17.03 3.8-5.74 1.09-11.7 1.54-17.38 2.85-27.92-23.91-60.89-25.38-62.54-25.44-1.95-.07-3.58 1.46-3.65 3.41-.01.4.04.8.15 1.16.43 1.4 1.71 2.44 3.25 2.49.26.0 15.68.7 33.92 8.71.0.06.0.11.0.17.05 8.98.37 17.99.2 26.97z" fill="#569e5a"/></g><g><path d="M181.7 308.4c-19.56-13.24-56.42 33.05-79.07 50.8-30.11 23.6-57.83 53.54-57.83 53.54.0.0 24.7 4.31 29.19 32.62C78.49 473.67.0 514.19.0 514.19c0 0 20.65-1.68 32.49 40.01 11.84 41.69-11.87 98.53-11.87 98.53.0.0 54.1-67.06 81.63-65.13 27.53 1.93 34.26 15.23 34.26 15.23.0.0-9.35-81.14 10.92-90.6 20.26-9.46 40.93-1.97 40.93-1.97.0.0 29.38-177.46-6.66-201.87z" fill="#569e5a"/><path d="M60.52 409.55c3.72-.15 7.33-.06 11.04-.56 3.89-.53 7.76-1.31 11.62-2 7.74-1.39 15.48-2.76 23.2-4.25 14.22-2.73 28.43-5.54 42.64-8.36-5.25 16.34-11.25 32.43-17.95 48.23-6.81 16.08-14.26 31.83-22.1 47.39-.43-.08-.88-.08-1.32.03-15.37 3.91-30.74 7.83-46.12 11.74-7.6 1.94-15.16 4.01-22.73 6.08-3.78 1.04-7.57 2.05-11.35 3.11-2.77.78-7.25 1.56-8.82 4.23-.22.37-.12.86.26 1.09 2.64 1.62 6.84.24 9.65-.37 3.64-.8 7.28-1.65 10.92-2.47 7.83-1.77 15.65-3.54 23.44-5.45 14.06-3.45 28.12-6.9 42.18-10.36-9.46 18.41-19.41 36.58-29.45 54.7-5.63 10.16-11.43 20.22-17.06 30.37-5.47 9.85-11.56 19.57-15.73 30.06-.15.37.42.75.68.43 6.49-7.79 11.63-16.66 16.98-25.25 5.44-8.74 10.72-17.57 15.97-26.43 5.18-8.75 10.25-17.56 15.2-26.44.6.89 1.29 1.74 1.86 2.6 1.66 2.51 3.27 5.06 4.89 7.59 3.15 4.91 6.3 9.82 9.45 14.73 3.15 4.91 6.33 9.8 9.51 14.69 3.06 4.73 6.07 10.14 10.07 14.14.78.78 2.55.13 2.11-1.1-1.9-5.31-5.35-10.26-8.29-15.05-3.14-5.12-6.28-10.25-9.45-15.36-3.17-5.11-6.34-10.22-9.51-15.33-1.58-2.55-3.17-5.1-4.72-7.68-.97-1.62-1.69-3.34-3.02-4.48 4.15-7.53 8.21-15.11 12.18-22.73 12.75-24.48 24.63-49.51 34.96-75.14.84 1.41 1.74 2.78 2.55 4.15 1.8 3.05 3.6 6.11 5.4 9.16 3.69 6.27 7.32 12.58 11.09 18.8 3.68 6.07 7.34 12.14 10.96 18.24 1.81 3.05 3.59 6.12 5.42 9.15 1.63 2.71 3.2 5.78 5.74 7.73.82.63 1.76-.33 1.64-1.16-.43-3.2-2.45-6.17-4.01-8.94-1.74-3.09-3.5-6.16-5.25-9.24-3.5-6.16-6.92-12.36-10.38-18.55-3.36-6.02-6.84-11.98-10.26-17.97-1.76-3.08-3.51-6.15-5.27-9.23-1.6-2.8-3.02-6.05-5.08-8.57 4.03-10.29 7.81-20.68 11.28-31.17 3.6-10.89 6.83-21.9 9.64-33.02 1.43-5.65 2.75-11.32 3.97-17.02 1.18-5.55 2.99-11.42 2.56-17.11-.22-2.96-3.8-3.56-5.01-.85-2.1 4.71-2.55 10.06-3.59 15.1-1.02 4.91-2.12 9.81-3.3 14.69-2.39 9.89-5.11 19.71-8.06 29.45-.13.43-.27.85-.4 1.28-.06.0-.13.02-.19.03-15.41 3.09-30.8 6.22-46.19 9.42-7.51 1.56-14.99 3.23-22.48 4.88-3.83.84-7.7 1.61-11.5 2.59-3.8.98-7.23 2.53-10.89 3.88-.91.34-.53 1.88.41 1.84z" fill="#6ec470"/></g><g><path d="M388.63 156.43c-20.34-39.13-117.78-43.17-117.78-43.17.0.0 10.92 15.3-7.17 28.54-18.09 13.24-48.71.07-48.71.07.0.0 3.45 30.06-8.72 41.27-12.17 11.2-44.31 4.78-44.31 4.78.0.0 19.73 34.66 8.02 52.59-11.71 17.93-53.66 27.47-53.66 27.47.0.0 29.67 32.56 8.56 61.27-21.11 28.71-25.05 30.73-25.05 30.73.0.0 60.35-25.92 76.74-9.44 16.39 16.48 13.76 30.76 13.76 30.76.0.0 28.33-61.26 46.68-46.78 18.35 14.48 18.06 25.57 18.06 25.57.0.0 17.58-66.7 32.73-56.54 15.14 10.15 16.87 25.19 16.87 25.19.0.0 20.28-75.04 37.42-62.93l17.14 12.11s64.12-54.71 29.4-121.49z" fill="#569e5a"/><path d="M255.78 333.62c3.53-17.06 4.29-34.49 8.39-51.52 1.99-8.27 4.31-16.46 7.04-24.52 2.11-6.22 6.41-13.24 7.36-19.93 8.5-5.99 17.02-11.98 25.52-17.99-2.24 6.28-2.5 13.85-2.54 19.53-.1 17.72.9 35.65 1.86 53.34.19 3.4 5.45 3.82 5.39.3-.27-15.68-1.09-31.36-1.6-47.03-.19-5.89-.43-11.85.43-17.7.79-5.31 3.13-9.77 5.08-14.56 16.99-12.07 33.88-24.28 50.46-36.83.02 13.91.03 27.81.07 41.72.04 13.19-2.6 27.57-.74 40.55.13.89 1.59 1.24 2 .37 5.46-11.48 4.5-26.6 4.84-39.03.43-15.84.35-31.71.49-47.56.0-.37-.06-.71-.15-1.02 4.62-3.54 9.22-7.1 13.78-10.71.62-.49-.12-1.58-.8-1.15-4.78 3.03-9.53 6.11-14.26 9.21-11.01-9.28-24.27-16.72-36.66-23.99-12.5-7.33-25.34-15.67-38.9-20.84-1.68-.64-2.68 1.79-1.3 2.76 11.83 8.29 25.2 14.67 37.48 22.33 11.43 7.14 22.55 15.4 34.28 22.05-.09.3-.15.62-.15.99v.16c-17.41 11.53-34.59 23.47-51.67 35.55-12.33-7.86-26.54-13.23-38.96-21.17-13.05-8.34-24.52-19.26-37.76-27.14-.8-.48-1.52.5-1.01 1.2 9.09 12.28 23.54 21.73 36.14 30.05 11.01 7.28 23.74 16.1 36.66 20.55-9.93 7.05-19.84 14.14-29.74 21.21-.03.0-.06.02-.1.03-.26-.46-.69-.87-1.35-1.15-15.58-6.64-31.1-13.26-47.21-18.57-14.86-4.9-30.7-10.57-46.39-11.65-.78-.05-.92 1.02-.24 1.3 14.65 5.84 30.48 8.93 45.41 14.15 15.52 5.43 30.99 11.46 45.66 18.91-6.87 4.9-13.74 9.8-20.62 14.66-13.75 9.72-27.49 19.45-41.23 29.17-.07-.04-.13-.1-.21-.13-11.04-4.15-24.86-3.95-36.54-5.39-13.13-1.62-26.41-3.92-39.63-4.51-1.72-.08-2.38 2.68-.57 3.08 12.54 2.75 25.52 3.95 38.23 5.72 10.75 1.5 22.76 4.68 33.87 4.61-.03.04-.06.09-.09.13-6.67 4.72-13.33 9.43-20 14.15-21.98 15.56-44.84 30.37-66.05 46.97-2.15 1.68.44 5.48 2.77 3.99 21.88-14.03 42.66-30.11 63.84-45.17 4.9-3.48 9.8-6.97 14.7-10.46-3.33 9.04-4.77 19.58-6.02 28.18-1.74 12.05-4.37 28.28.89 39.73.24.53 1.11.47 1.26-.1 3.19-11.91 1.08-25.56 2.99-37.89 1.16-7.46 2.89-14.82 5.05-22.05 1.43-4.77 3.55-9.38 4.72-14.2 14.15-10.06 28.31-20.12 42.45-30.19 5.69-4.05 11.39-8.09 17.11-12.12-1.29 3.55-2.27 7.25-3.34 10.39-3.09 8.99-5.73 18.15-7.79 27.43-3.66 16.5-7.29 34.77-5.12 51.67.16 1.24 2.23 1.39 2.48.13z" fill="#6ec470"/></g><g><path d="M833.63 699.11c-10.77-21.15-65.68 1.68-94.22 6.29-37.95 6.14-76.87 19.02-76.87 19.02.0.0 19.64 15.79 9.84 42.87-9.8 27.08-98.52 24.61-98.52 24.61.0.0 18.98 8.55 9.15 50.97-9.83 42.42-58.29 80.91-58.29 80.91.0.0 80.15-32.72 103.44-17.65 23.28 15.07 22.74 30.04 22.74 30.04.0.0 31.18-75.91 53.6-74.39 22.42 1.52 36.96 18.14 36.96 18.14.0.0 112.02-141.84 92.17-180.8z" fill="#569e5a"/><path d="M677.91 729.24c3.35 1.67 6.48 3.51 9.99 4.87 3.68 1.42 7.46 2.62 11.2 3.88 7.48 2.53 14.95 5.09 22.46 7.53 13.84 4.5 27.7 8.94 41.57 13.35-12.55 11.82-25.65 23.06-39.21 33.71-13.8 10.84-28 21.08-42.45 30.96-.34-.28-.74-.5-1.18-.61-15.42-4.02-30.85-8.04-46.27-12.06-7.63-1.99-15.28-3.84-22.94-5.68-3.83-.92-7.66-1.87-11.49-2.77-2.82-.66-7.14-2.15-9.81-.56-.37.22-.52.7-.31 1.09 1.53 2.7 5.9 3.54 8.67 4.36 3.59 1.07 7.2 2.09 10.8 3.13 7.74 2.24 15.48 4.49 23.26 6.59 14.04 3.79 28.09 7.58 42.13 11.37-17.26 11.6-34.83 22.75-52.46 33.81-9.88 6.2-19.87 12.24-29.76 18.43-9.6 6.01-19.67 11.61-28.43 18.81-.31.25.0.86.39.71 9.49-3.7 18.32-9.01 27.2-13.97 9.03-5.05 17.96-10.25 26.88-15.49 8.8-5.18 17.54-10.47 26.21-15.88.1 1.07.29 2.16.37 3.19.24 3.01.42 6.04.62 9.05.39 5.85.77 11.69 1.16 17.54.39 5.85.81 11.7 1.23 17.54.4 5.65.42 11.86 1.99 17.33.31 1.07 2.18 1.35 2.39.06.91-5.59.28-11.62.02-17.26-.28-6.03-.54-12.07-.85-18.1-.31-6.03-.61-12.07-.92-18.1-.15-3.02-.31-6.03-.42-9.05-.07-1.9.13-3.76-.48-5.4 7.31-4.61 14.56-9.3 21.76-14.08 23.11-15.35 45.71-31.59 67.24-49.12.05 1.64.18 3.29.23 4.89l.3 10.68c.21 7.31.33 14.62.63 21.93.29 7.12.56 14.24.78 21.37.11 3.56.18 7.12.32 10.68.12 3.17.0 6.64 1.29 9.59.41.95 1.7.56 2.01-.22 1.17-3.03.84-6.62.81-9.81-.03-3.56-.09-7.12-.13-10.68-.09-7.12-.09-14.23-.12-21.35-.03-6.93-.2-13.86-.3-20.79l-.15-10.68c-.05-3.24.28-6.79-.31-10.01 8.54-7.1 16.91-14.4 25.06-21.94 8.46-7.83 16.64-15.94 24.51-24.36 4-4.27 7.92-8.62 11.75-13.04 3.74-4.31 8.18-8.59 10.56-13.8 1.24-2.72-1.62-4.98-3.99-3.18-4.13 3.12-7.12 7.61-10.49 11.54-3.28 3.83-6.63 7.6-10.04 11.32-6.91 7.54-14.07 14.85-21.39 21.99-.32.31-.65.62-.97.93-.06-.02-.12-.05-.18-.07-15.05-4.76-30.11-9.49-45.2-14.14-7.36-2.27-14.76-4.44-22.15-6.62-3.78-1.12-7.55-2.32-11.37-3.31-3.82-.98-7.59-1.29-11.47-1.88-.96-.15-1.38 1.39-.53 1.81z" fill="#6ec470"/></g><g><path d="M883.14 554.6c-42.15-12.96-113.4 53.62-113.4 53.62.0.0 18.56 2.95 15.3 25.13-3.26 22.18-34.13 34.75-34.13 34.75.0.0 23.84 18.64 23.28 35.17-.56 16.53-27.69 34.92-27.69 34.92.0.0 38.54 10.27 43.1 31.19 4.56 20.93-18.08 57.5-18.08 57.5.0.0 44.02 1.71 49.66 36.9 5.64 35.19 4.31 39.41 4.31 39.41.0.0 23.88-61.18 47.12-61.3 23.24-.12 31.57 11.78 31.57 11.78.0.0-23.76-63.17-.57-66.08s30.89 5.07 30.89 5.07c0 0-35.18-59.33-17.32-63 17.86-3.67 29.78 5.65 29.78 5.65.0.0-39.23-67.1-18.57-70.82l20.66-3.71s6.02-84.07-65.92-106.2z" fill="#569e5a"/><path d="M916.15 773.59c-9.68-14.48-21.56-27.26-30.82-42.13-4.5-7.22-8.7-14.62-12.53-22.22-2.95-5.87-4.94-13.86-9.04-19.23 1.7-10.26 3.41-20.53 5.09-30.8 2.91 6 8.11 11.5 12.14 15.51 12.55 12.51 26.03 24.38 39.31 36.1 2.55 2.26 6.54-1.2 4-3.63-11.36-10.81-23.1-21.23-34.63-31.86-4.33-4-8.74-8.01-12.31-12.73-3.24-4.29-4.77-9.09-6.81-13.84 3.32-20.57 6.47-41.17 9.17-61.79 9.92 9.74 19.84 19.5 29.77 29.23 9.42 9.23 17.82 21.2 28.37 28.98.72.53 2-.26 1.67-1.17-4.34-11.95-15.8-21.88-24.41-30.84-10.98-11.42-22.35-22.5-33.54-33.72-.26-.26-.55-.45-.83-.61.72-5.78 1.41-11.55 2.04-17.33.09-.78-1.21-1.02-1.38-.24-1.19 5.53-2.33 11.07-3.44 16.63-14.34 1.33-28.94 5.55-42.82 9.28-13.99 3.76-28.94 7.06-42.14 13.09-1.64.75-.61 3.16 1.05 2.86 14.21-2.61 28.14-7.66 42.21-11.04 13.11-3.14 26.79-5.26 39.77-8.95.15.27.33.54.6.8.04.04.08.07.11.11-4.01 20.49-7.55 41.11-10.93 61.76-14.25 3.27-28.04 9.62-42.42 12.9-15.1 3.45-30.93 3.95-45.84 7.86-.9.24-.72 1.43.15 1.56 15.13 2.14 32-1.53 46.77-4.66 12.91-2.74 28.13-5.62 40.37-11.7-1.95 12.03-3.85 24.06-5.76 36.07-.02.03-.03.06-.05.09-.51-.14-1.1-.12-1.77.15-15.67 6.44-31.27 12.85-46.36 20.6-13.92 7.15-29.07 14.45-40.85 24.88-.59.52.08 1.37.75 1.08 14.44-6.34 27.75-15.45 41.94-22.42 14.76-7.25 29.91-14.04 45.51-19.26-1.33 8.34-2.66 16.67-4.02 24.98-2.73 16.61-5.43 33.23-8.15 49.84-.08.02-.16.03-.24.06-10.7 4.95-20.26 14.94-29.48 22.25-10.37 8.22-21.32 16.07-31.02 25.07-1.27 1.17.24 3.57 1.79 2.57 10.76-7.01 20.72-15.41 30.9-23.22 8.61-6.6 19.31-12.93 27.05-20.9.01.05.02.1.03.15-1.32 8.06-2.64 16.12-3.95 24.18-4.34 26.58-9.83 53.26-12.88 80.02-.31 2.71 4.21 3.54 4.78.82 5.36-25.43 8.49-51.52 12.62-77.18.96-5.94 1.91-11.88 2.87-17.81 4.11 8.72 10.6 17.14 15.86 24.06 7.37 9.7 17.08 22.96 28.93 27.25.55.2 1.11-.46.81-.97-6.25-10.63-17.45-18.71-24.89-28.72-4.5-6.06-8.53-12.45-12.16-19.07-2.39-4.36-4.19-9.11-6.81-13.33 2.76-17.14 5.53-34.28 8.28-51.43 1.1-6.89 2.23-13.79 3.37-20.7 1.63 3.41 3.58 6.7 5.05 9.67 4.24 8.51 8.91 16.81 14.07 24.8 9.18 14.19 19.65 29.6 33.22 39.91.99.75 2.55-.61 1.84-1.68z" fill="#6ec470"/></g><g><path d="M877.8 406.73c-19.66 8.42-2.44 59.17.0 85.12 3.24 34.5 12.48 70.27 12.48 70.27.0.0 15.38-16.71 39.14-6.28 23.77 10.44 16.21 90.08 16.21 90.08.0.0 8.83-16.56 46.39-5.17 37.56 11.39 69.26 57.28 69.26 57.28.0.0-24.61-74.05-9.66-94.08 14.95-20.03 28.38-18.65 28.38-18.65.0.0-66.39-32.6-63.68-52.67 2.71-20.07 18.54-32.15 18.54-32.15.0.0-120.82-109.26-157.06-93.75z" fill="#569e5a"/><path d="M895.54 548.58c1.71-2.91 3.55-5.61 4.98-8.69 1.5-3.22 2.8-6.55 4.16-9.84 2.73-6.58 5.47-13.14 8.12-19.75 4.88-12.18 9.7-24.37 14.5-36.58 9.88 12 19.2 24.45 27.96 37.28 8.92 13.06 17.27 26.45 25.29 40.04-.28.29-.49.63-.62 1.02-4.54 13.63-9.09 27.26-13.63 40.88-2.25 6.74-4.37 13.51-6.49 20.29-1.06 3.39-2.15 6.77-3.18 10.17-.76 2.5-2.36 6.29-1.09 8.79.18.34.6.51.96.34 2.52-1.22 3.54-5.09 4.44-7.54 1.18-3.17 2.31-6.35 3.46-9.52 2.48-6.83 4.97-13.65 7.32-20.52 4.25-12.4 8.5-24.8 12.76-37.2 9.4 16.22 18.37 32.69 27.26 49.21 4.98 9.26 9.81 18.6 14.79 27.87 4.83 8.99 9.26 18.39 15.2 26.7.21.29.77.05.66-.31-2.76-8.76-7-17.02-10.93-25.3-4-8.42-8.14-16.77-12.32-25.1-4.13-8.23-8.36-16.4-12.7-24.52.97-.02 1.96-.13 2.89-.14 2.73-.04 5.45-.01 8.18-.01 5.28.0 10.56.0 15.84.01 5.28.0 10.57-.03 15.85-.05 5.1-.02 10.69.34 15.7-.75.98-.21 1.35-1.88.19-2.14-4.98-1.16-10.43-.95-15.52-1.05-5.44-.11-10.88-.23-16.33-.32l-16.33-.26c-2.72-.04-5.44-.08-8.16-.16-1.71-.05-3.37-.34-4.89.11-3.71-6.85-7.49-13.65-11.35-20.41-12.41-21.7-25.67-43-40.14-63.42 1.48.05 2.97.04 4.41.09 3.21.12 6.42.25 9.62.37 6.58.25 13.17.58 19.76.75 6.42.16 12.84.35 19.26.58 3.21.12 6.42.26 9.63.35 2.86.08 5.97.39 8.7-.59.88-.32.61-1.5-.08-1.82-2.65-1.24-5.9-1.15-8.77-1.32-3.2-.18-6.41-.35-9.61-.52-6.41-.35-12.81-.78-19.21-1.17-6.23-.39-12.48-.65-18.72-.98-3.2-.17-6.41-.34-9.61-.5-2.92-.15-6.09-.66-9.02-.32-5.87-8.11-11.93-16.07-18.23-23.86-6.53-8.08-13.34-15.92-20.44-23.51-3.6-3.85-7.28-7.64-11.02-11.35-3.65-3.62-7.24-7.87-11.78-10.33-2.37-1.28-4.57 1.16-3.1 3.4 2.56 3.9 6.42 6.86 9.75 10.13 3.25 3.18 6.44 6.42 9.58 9.7 6.37 6.66 12.51 13.54 18.49 20.56.26.31.52.62.78.93-.02.05-.05.1-.07.16-5.18 13.25-10.34 26.51-15.43 39.8-2.49 6.48-4.88 13-7.28 19.52-1.23 3.33-2.54 6.65-3.66 10.03-1.12 3.38-1.61 6.75-2.38 10.2-.19.86 1.17 1.32 1.6.59z" fill="#6ec470"/></g><g><path d="M894.71 344.98s15.44 5.73 38.6 36.02c23.16 30.28 39.7 133.52 39.7 133.52.0.0-31.16-16.53-58.93 11.3s-21.39 125.17-21.39 125.17c0 0-20.99-10.63-38.23.16-17.24 10.79-32.56 50.25-32.56 50.25.0.0-6.48-61.59-26.29-67.53-19.81-5.94-38.89-2.78-38.89-2.78.0.0 89.8-128.87 60.88-147.8-28.92-18.93-52.99-18.1-52.99-18.1.0.0 59.26-120.11 130.08-120.2z" fill="#296d58"/><path d="M875.43 422.39c-8.82 4.85-18.21 8.86-27.47 12.78-9.32 3.95-18.66 7.82-28.21 11.19-4.67 1.65-9.37 3.23-14.09 4.73-4.47 1.42-9.7 2.36-13.7 4.88-.76.48-.57 1.72.41 1.75 4.72.14 9.63-1.78 14.12-3.08 4.95-1.43 9.87-2.95 14.77-4.55 9.39-3.07 18.78-6.26 27.94-9.98 9.38-3.81 18.5-8.13 27.72-12.3 8.44-3.82 16.83-7.55 24.96-11.97.45 13.71-1.54 29.37-8.63 45.34-21.99 49.56-38.89 84.17-48.99 104.85-1.36 2.78-2.62 5.99-3.8 9.49-1.12.06-1.92 1.02-1.99 2.14-10.82 7.45-21.57 15.02-32.49 22.33-5.62 3.76-11.16 7.62-16.74 11.44-2.6 1.78-5.22 3.53-7.84 5.3-2.41 1.63-5.01 3.02-6.8 5.34-.47.61.26 1.48.94 1.3 3.11-.8 5.73-3 8.39-4.73 2.64-1.71 5.27-3.43 7.93-5.12 5.5-3.49 11-6.98 16.46-10.55 9.76-6.39 19.67-12.57 29.53-18.81-3.76 13.91-6.58 30.55-9.01 44.86-1.9 11.25-4.57 31.06-2.5 31.64 2.07.58 8.23-18.87 10.17-30.34 2.33-13.74 5.03-29.68 8.51-42.93 1.68 2.04 3.33 4.09 4.96 6.16 4.1 5.22 8.02 10.57 11.81 16.02 3.68 5.3 7.22 10.69 10.6 16.19 1.8 2.93 3.54 5.9 5.3 8.85 1.48 2.47 2.73 4.87 5.13 6.54.53.37 1.33-.09 1.32-.72-.03-2.92-1.33-5.27-2.65-7.83-1.58-3.05-3.27-6.04-5-9.01-3.44-5.94-7.06-11.78-10.88-17.49-3.71-5.55-7.61-10.99-11.65-16.31-2.08-2.74-4.2-5.45-6.36-8.13-.24-.29-.47-.59-.7-.9 1.33-4.28 2.76-8.13 4.32-11.32 10.12-20.73 27.06-55.41 49.11-105.1 2.26-5.1 4.04-10.15 5.42-15.12 2.63 3.43 5.57 6.7 8.31 9.92 4.44 5.21 9.06 10.28 13.84 15.19 4.63 4.75 9.53 9.24 14.52 13.61 4.67 4.08 9.58 8.83 15.65 10.56 1.02.29 1.94-.82 1.44-1.77-2.92-5.52-8.31-9.52-12.8-13.75-4.67-4.39-9.15-8.96-13.62-13.55-4.47-4.59-8.8-9.32-12.98-14.18-4.2-4.88-7.89-10.33-12.26-15.04 7.52-39.8-9.18-72.11-10.03-73.72-1-1.9-3.36-2.62-5.26-1.62-.39.21-.74.48-1.03.78-1.1 1.18-1.39 2.97-.59 4.47.14.26 7.95 15.37 10.3 37.18-.06.03-.11.05-.17.09-8.56 4.98-16.98 10.22-25.66 14.99z" fill="#569e5a"/></g><g><path d="M1022.42 420.61s1.62-45.08-12.83-60.01c-14.45-14.93 7.31-45.2 7.31-45.2.0.0-42.72-18.24-54.25-32.18-11.53-13.93-5.73-39.08-5.73-39.08.0.0-33.14-9.67-41.51-19.43-8.37-9.76 2.26-32.59 2.26-32.59.0.0-104.29-35.36-141.72 16.3-37.43 51.66 23.07 133.31 23.07 133.31.0.0 27.67-8.14 31.91 1.79s19.78 41.68 19.78 41.68c0 0 53.83-14.3 62.23 11.54 8.39 25.84 14.11 27.75 14.11 27.75.0.0 5.94-22.03 29.2-14.12 23.26 7.91 66.18 10.23 66.18 10.23z" fill="#296d58"/><path d="M857.84 375.53c2.56-1.74 3.81-6.58 4.98-9.34 1.59-3.75 3.11-7.52 4.52-11.34 2.77-7.47 5.25-15.05 7.42-22.71 2.12-7.46 3.94-15.01 5.49-22.61.81-3.99 1.55-7.99 2.2-12.01.38-2.33 1.32-5.41 1.3-8.07 18.05 19.18 35.81 38.59 54.55 57.03-1.87 11.1-3.75 22.21-5.6 33.31-.9 5.44-1.81 10.89-2.72 16.33-.89 5.29-2.66 11.17-2.11 16.55.08.74 1.04.64 1.3.1 2.31-4.92 2.56-11.14 3.48-16.45.94-5.44 1.89-10.88 2.84-16.32 1.8-10.34 3.58-20.68 5.36-31.02 8.15 7.94 16.49 15.7 25.14 23.16 8.59 7.41 17.39 14.61 26.19 21.78 8.84 7.21 17.76 15.08 27.55 20.98.22.13.53-.16.32-.36-7.34-6.67-15.65-12.37-23.37-18.6-8-6.45-15.75-13.12-23.37-20-10.91-9.85-21.58-19.94-32.01-30.29-.11-.43-.44-.71-.85-.84-3.85-3.82-7.66-7.68-11.44-11.58-.74-.77-1.48-1.53-2.22-2.3 2.23-.04 4.64-.72 6.7-1 3.61-.49 7.23-.97 10.84-1.48 7.04-.98 14.08-1.96 21.12-2.93 14.26-1.96 28.51-3.92 42.67-6.52.81-.15.56-1.31-.23-1.24-14.37 1.24-28.65 3.12-42.96 5-7.05.93-14.1 1.84-21.15 2.76-3.62.47-7.23.96-10.84 1.44-2.7.36-6.02.25-8.49 1.52-17.3-18.08-33.92-36.83-51.38-54.75 13.96-1.71 27.84-4.61 41.39-8.36 13.56-3.75 27.02-8.22 39.63-14.5.55-.27.16-1.03-.4-.84-13.46 4.63-26.87 9.4-40.67 12.98-13.58 3.53-27.31 6.01-41.2 7.91-.46.06-.77.28-.96.57-8.11-8.25-16.4-16.31-25.04-24.02-6.96-6.22-14.16-12.18-21.61-17.78 2.54-.61 5.13-1.96 7.42-2.82 3.61-1.34 7.21-2.72 10.82-4.07 7.4-2.76 14.8-5.48 22.21-8.21 14.8-5.47 29.55-11.02 44.19-16.89.45-.18.12-.81-.32-.67-14.88 4.84-29.64 9.97-44.38 15.2-7.27 2.58-14.55 5.16-21.82 7.74-3.64 1.29-7.29 2.55-10.93 3.82-3.06 1.07-7.28 1.86-9.95 3.84-9.63-7.07-19.7-13.53-30.28-19.16-1.73-.92-3.5 1.61-1.75 2.55 6.72 3.58 13.22 7.49 19.52 11.68-.06.08-.12.17-.17.26-1.73 3.55-2.42 7.81-3.13 11.68-.74 4-1.22 8.04-1.57 12.1-.74 8.66-.94 17.36-1.29 26.04-.74 18.51-1.74 37.02-1.76 55.55.0 1.3 1.92 1.47 2.03.15 1.52-18.27 2.08-36.61 2.89-54.92.38-8.53.6-17.09 1.3-25.61.33-4.06.79-8.1 1.5-12.11.68-3.87 1.96-7.57 2.79-11.39 25.85 17.61 48.41 39.76 69.87 62.5-.85 1.32-.85 2.72-1.07 4.3-.28 2.01-.59 4.03-.91 6.03-.6 3.68-1.26 7.35-1.99 11.01-1.6 8.02-3.55 15.97-5.79 23.83-2.14 7.5-4.56 14.92-7.26 22.24-1.35 3.66-2.74 7.3-4.21 10.91-.77 1.88-1.55 3.76-2.3 5.65-.59 1.49-1.24 2.65-1.04 4.25.06.5.65.6 1 .36z" fill="#569e5a"/></g><g><path d="M752.84 141.05c-21.38.61-24 54.14-31.27 79.16-9.66 33.27-14.2 69.94-14.2 69.94.0.0 20.44-9.89 38.71 8.54 18.27 18.44-18 89.74-18 89.74.0.0 14.3-12.15 45.04 12.23 30.75 24.39 43.38 78.72 43.38 78.72.0.0 4.31-77.91 25.57-91.05 21.26-13.14 33.24-6.92 33.24-6.92.0.0-49.78-54.71-39.88-72.38 9.89-17.67 29.05-23.1 29.05-23.1.0.0-72.24-146.01-111.64-144.89z" fill="#569e5a"/><path d="M717.24 279.5c2.66-2.08 5.36-3.92 7.82-6.26 2.58-2.45 5.01-5.07 7.49-7.62 4.95-5.11 9.92-10.21 14.81-15.39 9.01-9.53 17.98-19.11 26.92-28.7 4.78 14.79 8.87 29.79 12.31 44.95 3.5 15.42 6.35 30.94 8.82 46.53-.36.17-.69.41-.96.72-9.23 11.01-18.46 22.01-27.69 33.02-4.56 5.44-9.03 10.96-13.49 16.49-2.23 2.76-4.48 5.51-6.7 8.29-1.63 2.04-4.51 4.98-4.25 7.77.04.39.37.7.77.67 2.79-.2 5.16-3.44 6.9-5.38 2.26-2.51 4.48-5.06 6.72-7.59 4.82-5.44 9.63-10.87 14.35-16.4 8.51-9.97 17.02-19.95 25.53-29.92 2.78 18.54 5.07 37.15 7.28 55.78 1.23 10.44 2.29 20.91 3.52 31.35 1.19 10.14 1.86 20.5 4.33 30.42.09.35.7.33.73-.05.65-9.16-.26-18.4-.87-27.55-.62-9.3-1.41-18.59-2.23-27.87-.82-9.17-1.75-18.33-2.81-27.47.91.33 1.87.6 2.74.93 2.55.97 5.08 1.99 7.61 2.99 4.91 1.94 9.82 3.89 14.73 5.83 4.91 1.94 9.84 3.85 14.76 5.78 4.75 1.85 9.82 4.24 14.88 5.07.99.16 1.94-1.25.97-1.92-4.2-2.9-9.36-4.72-14.05-6.68-5.02-2.1-10.04-4.22-15.07-6.3-5.03-2.08-10.06-4.16-15.09-6.24-2.52-1.04-5.03-2.07-7.53-3.15-1.57-.68-3.01-1.56-4.59-1.69-.93-7.73-1.95-15.45-3.06-23.15-3.57-24.74-8.08-49.42-14.03-73.73 1.36.59 2.75 1.12 4.07 1.71 2.94 1.29 5.88 2.59 8.82 3.88 6.03 2.65 12.04 5.38 18.1 7.96 5.91 2.51 11.82 5.04 17.7 7.62 2.94 1.29 5.87 2.6 8.82 3.86 2.63 1.13 5.41 2.56 8.31 2.65.93.03 1.12-1.17.59-1.72-2.01-2.13-5.06-3.24-7.68-4.45-2.91-1.35-5.83-2.68-8.75-4.01-5.83-2.68-11.62-5.43-17.43-8.15-5.66-2.65-11.37-5.19-17.05-7.79-2.92-1.33-5.84-2.67-8.76-4-2.66-1.21-5.42-2.85-8.27-3.61-2.48-9.7-5.19-19.33-8.19-28.88-3.11-9.91-6.56-19.71-10.37-29.37-1.94-4.91-3.96-9.78-6.08-14.61-2.07-4.71-3.84-9.98-7.16-13.93-1.73-2.06-4.68-.61-4.13 2.02.95 4.57 3.45 8.74 5.35 13 1.85 4.15 3.63 8.33 5.34 12.54 3.47 8.54 6.66 17.19 9.65 25.91.13.38.25.77.38 1.15-.04.04-.09.08-.13.12-9.69 10.42-19.36 20.86-28.97 31.35-4.69 5.12-9.31 10.3-13.94 15.48-2.37 2.65-4.81 5.25-7.08 7.98-2.28 2.73-3.98 5.69-5.96 8.61-.49.73.6 1.66 1.27 1.14z" fill="#6ec470"/></g><g><path d="M925.29 148.63s-21.73-30.2-38.69-32.63c-16.96-2.43-18.07-33.15-18.07-33.15.0.0-37.06 9.7-51.62 6.44-14.56-3.25-23.49-22.57-23.49-22.57.0.0-26.49 10.44-36.88 8.32-10.39-2.13-14.99-22.39-14.99-22.39.0.0-85.84 29.65-84.14 82.24 1.71 52.58 82.4 75.23 82.4 75.23.0.0 13.92-19.29 21.7-14.95 7.78 4.33 33.95 17.17 33.95 17.17.0.0 27.86-36.52 46.39-23.92 18.53 12.6 23.22 10.96 23.22 10.96.0.0-7.26-17.36 11.9-23.96 19.16-6.59 48.31-26.77 48.31-26.77z" fill="#569e5a"/><path d="M795.23 202.41c.79-2.43-.85-6.22-1.48-8.6-.86-3.25-1.78-6.47-2.78-9.68-1.97-6.27-4.19-12.46-6.64-18.56-2.39-5.94-5.02-11.78-7.85-17.51-1.49-3.01-3.03-5.99-4.63-8.94-.93-1.71-1.87-4.19-3.23-5.92 21.46 3.38 42.84 7.06 64.38 9.61 4.39 8.18 8.78 16.37 13.19 24.54 2.16 4.01 4.32 8.01 6.48 12.02 2.1 3.9 3.91 8.63 6.99 11.85.42.44 1-.11.89-.59-.98-4.37-3.96-8.56-6.04-12.48-2.14-4.02-4.27-8.05-6.4-12.07-4.05-7.65-8.12-15.29-12.18-22.93 9.33 1.06 18.68 1.9 28.09 2.39 9.35.49 18.72.74 28.08.96 9.41.23 19.2.85 28.56-.24.21-.02.27-.38.03-.39-8.15-.64-16.45-.15-24.63-.31-8.47-.16-16.89-.59-25.34-1.23-12.09-.9-24.14-2.09-36.17-3.57-.29-.23-.65-.24-.97-.12-4.44-.55-8.88-1.14-13.31-1.76-.87-.12-1.74-.25-2.61-.38 1.44-1.15 2.66-2.82 3.86-4.04 2.11-2.14 4.22-4.29 6.32-6.44 4.09-4.2 8.19-8.39 12.29-12.58 8.31-8.49 16.61-16.96 24.52-25.81.45-.51-.29-1.14-.78-.69-8.74 8.07-17.1 16.52-25.47 24.97-4.13 4.17-8.26 8.33-12.39 12.49-2.12 2.13-4.23 4.28-6.34 6.42-1.58 1.6-3.8 3.2-4.76 5.28-20.41-3.04-40.72-6.87-61.16-9.72 8.24-8.17 15.82-17.08 22.76-26.36 6.95-9.3 13.46-19.02 18.51-29.48.22-.46-.42-.75-.69-.35-6.44 9.82-12.76 19.71-19.95 29.01-7.07 9.16-14.76 17.72-22.86 25.97-.27.27-.36.57-.34.85-9.45-1.28-18.93-2.34-28.46-3-7.68-.53-15.38-.78-23.07-.67 1.35-1.68 2.35-3.87 3.41-5.58 1.68-2.7 3.32-5.42 5-8.12 3.43-5.53 6.88-11.05 10.32-16.57 6.88-11.05 13.69-22.12 20.27-33.34.2-.35-.33-.59-.55-.28-7.25 10.67-14.28 21.48-21.25 32.34-3.44 5.36-6.87 10.72-10.31 16.07-1.72 2.68-3.47 5.34-5.2 8.02-1.45 2.24-3.8 4.89-4.54 7.53-9.85.26-19.68 1.13-29.42 2.81-1.6.28-1.47 2.82.15 2.54 6.19-1.06 12.4-1.8 18.62-2.25.0.08.0.17.02.26.66 3.19 2.37 6.31 3.86 9.19 1.54 2.98 3.27 5.86 5.09 8.68 3.89 6.02 8.16 11.79 12.32 17.63 8.87 12.44 17.58 25.01 26.92 37.1.65.85 1.99-.01 1.4-.93-8.24-12.68-17.14-24.91-25.87-37.26-4.07-5.75-8.24-11.45-12.09-17.35-1.83-2.81-3.58-5.68-5.14-8.65-1.51-2.87-2.55-5.93-3.94-8.83 25.75-1.58 51.64 1.45 77.13 5.43.11 1.29.82 2.2 1.47 3.35.83 1.46 1.65 2.92 2.45 4.4 1.47 2.7 2.9 5.43 4.27 8.18 3.01 6.04 5.76 12.2 8.27 18.46 2.4 5.97 4.57 12.03 6.51 18.16.97 3.07 1.9 6.14 2.77 9.24.45 1.61.89 3.23 1.35 4.84.37 1.27.53 2.36 1.47 3.29.29.29.72.06.83-.27z" fill="#6ec470"/></g><g><path d="M518.08 83.94s-.82 14.82-20.73 42.83c-19.91 28.01-104.4 69.76-104.4 69.76.0.0 5.94-31.24-25.43-47.73-31.37-16.5-113.49 14.93-113.49 14.93.0.0 3.56-20.91-10.32-32.88-13.88-11.97-51.94-14.65-51.94-14.65.0.0 51.31-21.99 51.15-40.63-.16-18.64-7.97-34.23-7.97-34.23.0.0 134.9 43 143.5 13.05 8.6-29.95 1.47-50.45 1.47-50.45.0.0 119.22 19.03 138.17 80z" fill="#296d58"/><path d="M446.27 87.96c-6.52-6.3-12.48-13.32-18.32-20.25-5.88-6.98-11.7-13.99-17.15-21.31-2.67-3.58-5.28-7.21-7.83-10.88-2.41-3.47-4.62-7.72-7.85-10.5-.61-.53-1.63-.03-1.4.82 1.13 4.1 4.1 7.82 6.41 11.34 2.55 3.88 5.17 7.72 7.85 11.51 5.14 7.27 10.4 14.51 16.04 21.4 5.78 7.07 11.93 13.76 17.98 20.59 5.54 6.25 10.98 12.49 16.96 18.3-11.68 4.04-25.7 6.5-41.35 4.65-48.54-5.73-82.84-11.07-103.34-14.26-2.76-.43-5.85-.66-9.18-.74-.35-.95-1.39-1.38-2.38-1.15-9.3-7.33-18.68-14.57-27.88-22.03-4.74-3.84-9.54-7.58-14.32-11.37-2.23-1.77-4.43-3.56-6.65-5.34-2.04-1.64-3.94-3.51-6.41-4.43-.65-.24-1.2.62-.87 1.16 1.52 2.46 4.11 4.13 6.31 5.97 2.18 1.82 4.36 3.63 6.52 5.47 4.48 3.81 8.95 7.61 13.47 11.36 8.1 6.71 16.06 13.59 24.06 20.42-12.98.46-28.06 2.47-41.03 4.2-10.2 1.36-27.97 4.34-27.91 6.28.05 1.94 18.44 2.06 28.84.68 12.45-1.66 26.9-3.58 39.24-4.11-1.31 1.99-2.63 3.96-3.98 5.91-3.41 4.92-6.97 9.73-10.65 14.44-3.58 4.58-7.29 9.07-11.12 13.44-2.04 2.33-4.14 4.62-6.21 6.92-1.74 1.93-3.46 3.65-4.26 6.16-.18.56.43 1.12.97.95 2.51-.81 4.19-2.55 6.04-4.37 2.21-2.17 4.33-4.43 6.43-6.7 4.2-4.55 8.27-9.22 12.17-14.03 3.79-4.68 7.44-9.48 10.94-14.37 1.81-2.52 3.57-5.07 5.3-7.64.19-.28.39-.56.59-.84 4.04.0 7.74.21 10.9.7 20.54 3.19 54.93 8.54 103.6 14.29 4.99.59 9.82.78 14.47.64-2.25 3.18-4.28 6.58-6.33 9.8-3.31 5.22-6.44 10.54-9.4 15.96-2.86 5.25-5.42 10.67-7.85 16.13-2.27 5.11-5.05 10.6-4.92 16.29.02.96 1.22 1.45 1.91.77 3.97-3.99 5.99-9.69 8.43-14.69 2.54-5.19 5.28-10.27 8.04-15.34 2.77-5.07 5.69-10.06 8.76-14.95 3.08-4.91 6.79-9.55 9.68-14.57 36.28-4.13 59.65-27.11 60.81-28.28 1.37-1.37 1.36-3.59.0-4.96-.28-.28-.61-.51-.95-.67-1.31-.63-2.93-.41-4.01.68-.18.19-11.12 10.94-29.28 18.77-.04-.04-.08-.08-.12-.12-6.57-6.04-13.33-11.9-19.75-18.1z" fill="#569e5a"/></g><g><path d="M520.11 85.71c-14.33-7.35-35.45 27.03-49.31 40.91-18.43 18.46-34.71 41.01-34.71 41.01.0.0 17.07.88 22.45 19.66 5.38 18.78-44.39 52.69-44.39 52.69.0.0 13.84-2.84 25.29 24.39 11.45 27.23.1 67.66.1 67.66.0.0 31.07-49.85 49.86-50.82 18.79-.97 24.44 7.48 24.44 7.48.0.0-13.03-54.13-.1-62.21 12.93-8.08 27.54-4.71 27.54-4.71.0.0 5.23-122.52-21.18-136.05z" fill="#569e5a"/><path d="M446.46 164.16c2.51-.41 4.96-.64 7.43-1.29 2.59-.68 5.14-1.53 7.7-2.32 5.12-1.58 10.24-3.15 15.35-4.79 9.4-3.02 18.78-6.09 28.16-9.18-2.2 11.49-4.94 22.87-8.16 34.12-3.28 11.44-7.02 22.72-11.04 33.9-.3-.02-.61.02-.89.13-10.08 3.92-20.16 7.84-30.24 11.76-4.98 1.94-9.93 3.96-14.88 5.99-2.47 1.01-4.95 2.01-7.42 3.04-1.81.76-4.78 1.66-5.62 3.59-.12.27.0.59.26.72 1.92.88 4.65-.4 6.5-1.05 2.4-.84 4.79-1.71 7.18-2.57 5.15-1.84 10.3-3.68 15.41-5.62 9.23-3.5 18.46-6.99 27.69-10.49-4.88 13.24-10.11 26.35-15.41 39.44-2.97 7.34-6.06 14.63-9.04 21.96-2.89 7.12-6.2 14.2-8.16 21.64-.07.26.34.47.5.23 3.75-5.81 6.5-12.23 9.4-18.49 2.96-6.36 5.81-12.77 8.62-19.2 2.78-6.35 5.48-12.73 8.1-19.15.48.55 1.02 1.07 1.47 1.61 1.33 1.56 2.63 3.15 3.94 4.73 2.54 3.06 5.07 6.12 7.61 9.18 2.54 3.06 5.1 6.11 7.65 9.16 2.46 2.95 4.94 6.36 7.98 8.74.59.46 1.74-.12 1.34-.92-1.72-3.44-4.47-6.5-6.85-9.5-2.55-3.21-5.1-6.42-7.66-9.61-2.57-3.2-5.13-6.39-7.7-9.59-1.28-1.6-2.57-3.19-3.83-4.81-.79-1.02-1.42-2.12-2.41-2.78 2.18-5.44 4.31-10.9 6.37-16.39 6.61-17.62 12.58-35.54 17.45-53.74.68.88 1.41 1.74 2.07 2.6 1.47 1.92 2.94 3.84 4.41 5.75 3.02 3.94 5.99 7.91 9.06 11.81 2.99 3.8 5.97 7.61 8.92 11.44 1.47 1.92 2.93 3.84 4.42 5.75 1.33 1.7 2.64 3.65 4.52 4.76.6.36 1.16-.37 1.02-.92-.56-2.13-2.17-3.97-3.45-5.72-1.43-1.94-2.88-3.88-4.32-5.82-2.88-3.88-5.7-7.79-8.55-11.69-2.77-3.8-5.62-7.54-8.43-11.31-1.44-1.94-2.89-3.87-4.33-5.81-1.31-1.76-2.54-3.84-4.15-5.38 1.88-7.3 3.58-14.64 5.06-22.03 1.54-7.67 2.81-15.38 3.8-23.14.5-3.94.93-7.89 1.28-11.84.34-3.86 1.08-7.98.32-11.79-.4-1.99-2.87-2.09-3.46-.16-1.03 3.36-.89 7.02-1.18 10.51-.28 3.41-.62 6.81-1.02 10.21-.8 6.89-1.83 13.76-3.02 20.59-.05.3-.11.6-.16.9-.04.01-.08.02-.13.04-10.17 3.37-20.33 6.75-30.48 10.19-4.95 1.68-9.88 3.43-14.81 5.16-2.52.89-5.08 1.73-7.56 2.7-2.49.98-4.69 2.31-7.05 3.53-.59.3-.2 1.31.43 1.21z" fill="#6ec470"/></g><g><path d="M748.93 253.41s-2.9-36.97-16.09-47.8c-13.2-10.84 1.74-37.59 1.74-37.59.0.0-36.59-10.9-47.32-21.2-10.72-10.3-8.34-31.37-8.34-31.37.0.0-27.97-4.79-35.72-11.98-7.75-7.18-1.2-26.83-1.2-26.83.0.0-88.47-19.11-114.2 26.58-25.73 45.69 31.32 106.7 31.32 106.7.0.0 21.84-9.24 26.22-1.52 4.39 7.72 20.05 32.18 20.05 32.18.0.0 42.62-16.72 51.9 3.6 9.27 20.31 14.12 21.34 14.12 21.34.0.0 2.79-18.55 22.52-14.26 19.73 4.29 55 2.16 55 2.16z" fill="#296d58"/><path d="M610.31 232c1.93-1.66 2.49-5.73 3.19-8.1.95-3.21 1.83-6.44 2.63-9.68 1.56-6.36 2.87-12.78 3.94-19.24 1.03-6.29 1.82-12.63 2.37-18.98.29-3.33.52-6.67.67-10.01.09-1.94.57-4.54.31-6.71 16.54 13.98 32.85 28.16 49.89 41.47-.49 9.24-.98 18.48-1.45 27.73-.23 4.53-.46 9.06-.7 13.59-.23 4.4-1.13 9.37-.17 13.71.13.6.91.42 1.07-.04 1.43-4.23 1.05-9.34 1.3-13.76.26-4.53.52-9.06.79-13.6.51-8.61.99-17.22 1.47-25.84 7.4 5.72 14.94 11.28 22.7 16.56 7.71 5.25 15.57 10.3 23.43 15.34 7.9 5.06 15.92 10.65 24.46 14.56.19.09.42-.18.23-.32-6.61-4.76-13.94-8.64-20.83-13-7.13-4.52-14.09-9.24-20.96-14.15-9.83-7.02-19.49-14.27-28.97-21.74-.13-.34-.43-.54-.77-.6-3.5-2.76-6.98-5.56-10.43-8.38-.68-.56-1.35-1.11-2.03-1.67 1.82-.24 3.72-1.02 5.38-1.44 2.9-.74 5.81-1.47 8.71-2.22 5.66-1.46 11.31-2.92 16.97-4.37 11.46-2.94 22.92-5.87 34.24-9.31.65-.2.34-1.12-.3-.99-11.62 2.36-23.11 5.23-34.61 8.11-5.67 1.42-11.34 2.82-17.02 4.23-2.91.72-5.81 1.46-8.72 2.19-2.17.55-4.9.76-6.79 2.04-15.82-13.14-31.15-26.9-47.08-39.9 11.24-2.7 22.3-6.37 33.02-10.7 10.72-4.33 21.3-9.24 31.01-15.55.42-.27.03-.86-.4-.65-10.56 5.04-21.06 10.19-31.99 14.41-10.76 4.15-21.74 7.47-32.9 10.31-.37.09-.6.3-.73.55-7.39-5.98-14.92-11.78-22.7-17.28-6.27-4.43-12.7-8.62-19.31-12.5 2.02-.74 4-2.08 5.79-2.99 2.82-1.43 5.63-2.9 8.45-4.33 5.78-2.94 11.58-5.86 17.36-8.79 11.57-5.86 23.1-11.77 34.51-17.93.35-.19.02-.68-.32-.52-11.7 5.34-23.27 10.92-34.82 16.57-5.7 2.79-11.4 5.58-17.1 8.36-2.85 1.39-5.72 2.76-8.57 4.14-2.4 1.16-5.77 2.2-7.76 4.07-8.53-4.87-17.35-9.21-26.52-12.81-1.5-.59-2.71 1.64-1.19 2.24 5.83 2.3 11.5 4.88 17.03 7.71-.04.07-.08.15-.11.23-1.08 3.06-1.24 6.61-1.46 9.83-.23 3.34-.25 6.68-.15 10.03.21 7.14.86 14.27 1.39 21.39 1.13 15.18 2.05 30.4 3.76 45.53.12 1.06 1.71 1.02 1.67-.07-.47-15.06-1.73-30.09-2.78-45.12-.49-7-1.11-14.01-1.33-21.03-.11-3.34-.11-6.69.09-10.03.2-3.22.89-6.37 1.21-9.56 22.76 11.96 43.25 27.94 62.91 44.5-.57 1.16-.44 2.3-.47 3.61-.04 1.67-.1 3.34-.18 5.01-.14 3.06-.34 6.12-.59 9.18-.56 6.7-1.4 13.37-2.49 20-1.04 6.33-2.32 12.61-3.85 18.84-.76 3.11-1.56 6.22-2.42 9.3-.45 1.61-.92 3.21-1.35 4.83-.34 1.27-.77 2.28-.45 3.57.1.4.58.43.85.2z" fill="#569e5a"/></g><g><g><circle cx="454.36" cy="52.64" r="39.37" transform="translate(274.01 472.99) rotate(-73.39)" fill="#f26849"/><path d="M428.57 51.55c4.43 2.39 9.96.73 12.35-3.71 2.39-4.43.73-9.96-3.71-12.35-4.43-2.39-9.96-.73-12.35 3.71s-.73 9.96 3.71 12.35z" fill="#344973"/></g><path d="M435.23 21.61c11.84-8 36.9-4.66 43.05 9.77.66 1.55-.98 2.76-2.36 2.02-5.76-3.11-9.98-7.49-16.62-9.13-7.82-1.93-14.33.25-21.87 1.98-2.44.56-4.42-3.15-2.21-4.64z" fill="#ffe7d2"/></g><g><g><circle cx="730.78" cy="113.26" r="39.37" transform="translate(455.84 799.76) rotate(-76.98)" fill="#f26849"/><path d="M738.93 92.77c-.25 5.03 3.62 9.31 8.65 9.56 5.03.25 9.31-3.62 9.56-8.65.25-5.03-3.62-9.31-8.65-9.56-5.03-.25-9.31 3.62-9.56 8.65z" fill="#344973"/></g><path d="M722.13 77.7c-13.96 3.05-28.84 23.49-22.64 37.9.67 1.55 2.68 1.2 3.09-.31 1.73-6.31 1.47-12.39 4.86-18.33 4-6.99 10.07-10.19 16.52-14.46 2.09-1.38.77-5.37-1.83-4.8z" fill="#ffe7d2"/></g><g><g><circle cx="820.8" cy="231.33" r="32.98" transform="translate(480.86 1013.43) rotate(-82.25)" fill="#f26849"/><path d="M836.47 221.55c-2.67 3.27-2.18 8.08 1.09 10.75 3.27 2.67 8.08 2.18 10.75-1.09 2.67-3.27 2.18-8.08-1.09-10.75-3.27-2.67-8.08-2.18-10.75 1.09z" fill="#344973"/></g><path d="M832.61 203.04c-10.93-4.87-31.12 1.55-34.08 14.34-.32 1.37 1.21 2.14 2.24 1.32 4.3-3.4 7.13-7.63 12.37-9.95 6.17-2.73 11.85-1.88 18.32-1.56 2.1.1 3.18-3.24 1.14-4.15z" fill="#ffe7d2"/></g><g><g><circle cx="914.12" cy="542.43" r="32.98" transform="translate(-23.68 42.06) rotate(-2.6)" fill="#f26849"/><path d="M924.25 526.99c-1.05 4.09 1.41 8.25 5.49 9.3 4.09 1.05 8.25-1.41 9.3-5.49 1.05-4.09-1.41-8.25-5.49-9.3-4.09-1.05-8.25 1.41-9.3 5.49z" fill="#344973"/></g><path d="M912.99 511.8c-11.97.15-27.61 14.43-24.94 27.3.29 1.38 2 1.43 2.59.26 2.48-4.89 3.28-9.92 7.07-14.22 4.46-5.07 9.98-6.67 15.99-9.09 1.95-.78 1.54-4.28-.7-4.25z" fill="#ffe7d2"/></g><g><g><circle cx="182.66" cy="405.52" r="42.38" transform="translate(-245.58 525.62) rotate(-81.42)" fill="#f26849"/><path d="M195.67 385.68c-1.35 5.25 1.81 10.6 7.06 11.95 5.25 1.35 10.6-1.81 11.95-7.06 1.35-5.25-1.81-10.6-7.06-11.95-5.25-1.35-10.6 1.81-11.95 7.06z" fill="#344973"/></g><path d="M181.21 366.16c-15.38.2-35.48 18.55-32.05 35.08.37 1.77 2.56 1.84 3.32.34 3.18-6.28 4.22-12.74 9.08-18.27 5.73-6.51 12.82-8.57 20.54-11.68 2.5-1.01 1.97-5.49-.9-5.46z" fill="#ffe7d2"/></g><g><g><circle cx="807.55" cy="152.64" r="32.98" transform="translate(18.33 381.93) rotate(-26.9)" fill="#f26849"/><path d="M818.53 137.79c-1.28 4.02.94 8.32 4.96 9.6 4.02 1.28 8.32-.94 9.6-4.96 1.28-4.02-.94-8.32-4.96-9.6-4.02-1.28-8.32.94-9.6 4.96z" fill="#344973"/></g><path d="M808.15 121.99c-11.96-.52-28.38 12.85-26.44 25.85.21 1.39 1.91 1.54 2.57.41 2.75-4.74 3.84-9.72 7.86-13.8 4.74-4.81 10.34-6.1 16.47-8.18 1.99-.67 1.77-4.18-.46-4.28z" fill="#ffe7d2"/></g><g><g><circle cx="781.55" cy="293.4" r="34.72" transform="translate(442.86 1056.41) rotate(-86.64)" fill="#f26849"/><path d="M777.66 291.03c.5 4.41 4.49 7.58 8.9 7.08 4.41-.5 7.58-4.49 7.08-8.9-.5-4.41-4.49-7.58-8.9-7.08-4.41.5-7.58 4.49-7.08 8.9z" fill="#344973"/></g><path d="M768.93 263.7c-11.71 4.65-21.72 24.57-14.26 36.22.8 1.25 2.5.66 2.64-.71.6-5.74-.5-10.99 1.61-16.64 2.48-6.66 7.3-10.31 12.3-14.95 1.62-1.5-.1-4.78-2.28-3.91z" fill="#ffe7d2"/></g><g><g><circle cx="988.6" cy="563.57" r="31.01" transform="translate(-108.95 864.12) rotate(-45)" fill="#f26849"/><path d="M985.13 561.46c.45 3.94 4.01 6.77 7.95 6.33 3.94-.45 6.77-4.01 6.33-7.95-.45-3.94-4.01-6.77-7.95-6.33-3.94.45-6.77 4.01-6.33 7.95z" fill="#344973"/></g><path d="M977.33 537.04c-10.46 4.15-19.41 21.95-12.74 32.35.71 1.12 2.23.59 2.36-.64.53-5.13-.45-9.81 1.43-14.87 2.21-5.95 6.52-9.21 10.99-13.36 1.45-1.34-.09-4.27-2.04-3.5z" fill="#ffe7d2"/></g><g><g><circle cx="732.04" cy="212.17" r="51.69" transform="translate(482.43 932.31) rotate(-87.05)" fill="#f26849"/><circle cx="742.85" cy="245.16" r="11.97" transform="translate(-17.29 60.44) rotate(-4.61)" fill="#344973"/></g><path d="M745.89 172.5c-17.45-6.88-48.62 4.53-52.39 24.78-.4 2.17 2.04 3.26 3.6 1.92 6.5-5.62 10.65-12.43 18.7-16.43 9.47-4.7 18.43-3.75 28.59-3.69 3.29.02 4.77-5.29 1.51-6.58z" fill="#ffe7d2"/></g><g><g><circle cx="719.73" cy="690.06" r="51.22" transform="translate(-277.15 711.04) rotate(-45)" fill="#f26849"/><path d="M730.33 663.41c-.33 6.54 4.71 12.11 11.26 12.44 6.54.33 12.11-4.71 12.44-11.26.33-6.54-4.71-12.11-11.26-12.44-6.54-.33-12.11 4.71-12.44 11.26z" fill="#344973"/></g><path d="M708.47 643.8c-18.16 3.96-37.51 30.56-29.45 49.3.87 2.01 3.48 1.56 4.02-.4 2.24-8.21 1.91-16.11 6.33-23.84 5.2-9.1 13.1-13.26 21.49-18.81 2.72-1.8 1-6.98-2.39-6.25z" fill="#ffe7d2"/></g><g><g><circle cx="353.12" cy="805.05" r="51.22" transform="translate(-511.17 644.4) rotate(-55.79)" fill="#f26849"/><path d="M348.19 776.79c3.15 5.75 10.36 7.85 16.1 4.71 5.75-3.15 7.85-10.36 4.71-16.1-3.15-5.75-10.36-7.85-16.1-4.71-5.75 3.15-7.85 10.36-4.71 16.1z" fill="#344973"/></g><path d="M319.31 771.53c-13.4 12.88-15.96 45.68.72 57.43 1.79 1.26 3.78-.5 3.21-2.45-2.39-8.17-6.81-14.73-7.09-23.62-.33-10.47 4.22-18.16 8.46-27.28 1.37-2.96-2.8-6.48-5.3-4.07z" fill="#ffe7d2"/></g><g><g><circle cx="150.81" cy="511.8" r="51.22" transform="translate(-275.4 190.83) rotate(-36.6)" fill="#f26849"/><path d="M161.41 485.14c-.33 6.54 4.71 12.11 11.26 12.44 6.54.33 12.11-4.71 12.44-11.26.33-6.54-4.71-12.11-11.26-12.44-6.54-.33-12.11 4.71-12.44 11.26z" fill="#344973"/></g><path d="M139.56 465.54c-18.16 3.96-37.51 30.56-29.45 49.3.87 2.01 3.48 1.56 4.02-.4 2.24-8.21 1.91-16.11 6.33-23.84 5.2-9.1 13.1-13.26 21.49-18.81 2.72-1.8 1-6.98-2.39-6.25z" fill="#ffe7d2"/></g><g><g><circle cx="781.59" cy="762.15" r="42.9" transform="translate(-90.22 1419.18) rotate(-81.28)" fill="#f26849"/><path d="M801.97 749.42c-3.47 4.25-2.83 10.51 1.42 13.98 4.25 3.47 10.51 2.83 13.98-1.42 3.47-4.25 2.83-10.51-1.42-13.98-4.25-3.47-10.51-2.83-13.98 1.42z" fill="#344973"/></g><path d="M796.95 725.34c-14.22-6.34-40.48 2.01-44.34 18.66-.41 1.79 1.58 2.78 2.91 1.72 5.59-4.43 9.28-9.93 16.1-12.95 8.02-3.56 15.42-2.45 23.84-2.03 2.73.13 4.14-4.22 1.49-5.4z" fill="#ffe7d2"/></g><g><g><ellipse cx="451.85" cy="768.08" rx="42.9" ry="36.97" fill="#f26849"/><path d="M451.67 747.37c1.81 4.46 7.48 6.82 12.66 5.26 5.18-1.56 7.91-6.44 6.1-10.91-1.81-4.46-7.48-6.82-12.66-5.26-5.18 1.56-7.91 6.44-6.1 10.91z" fill="#344973"/></g><path d="M428.52 740.21c-12.84 7.59-19.46 30.64-7.29 40.98 1.31 1.11 3.19.09 2.99-1.36-.85-6.1-3.61-11.29-2.61-17.66 1.17-7.5 5.98-12.43 10.74-18.42 1.54-1.94-1.42-4.94-3.82-3.53z" fill="#ffe7d2"/></g><g><g><ellipse cx="447.19" cy="913.2" rx="36.97" ry="42.9" transform="translate(-510.31 1255.41) rotate(-83.58)" fill="#f26849"/><path d="M445.06 933.8c-1.3-4.64-6.67-7.61-11.99-6.64-5.32.97-8.58 5.52-7.28 10.16 1.3 4.64 6.67 7.61 11.99 6.64 5.32-.97 8.58-5.52 7.28-10.16z" fill="#344973"/></g><path d="M467.26 943.51c13.61-6.1 22.77-28.27 11.83-39.9-1.17-1.25-3.16-.45-3.12 1.02.16 6.16 2.32 11.62.62 17.84-2 7.32-7.33 11.68-12.73 17.11-1.75 1.76.86 5.07 3.4 3.93z" fill="#ffe7d2"/></g><g><g><circle cx="875.31" cy="738.41" r="42.9" transform="translate(37.31 1518.92) rotate(-83.12)" fill="#f26849"/><path d="M889.6 719.1c-1.67 5.23 1.22 10.82 6.45 12.48 5.23 1.67 10.82-1.22 12.48-6.45 1.67-5.23-1.22-10.82-6.45-12.48-5.23-1.67-10.82 1.22-12.48 6.45z" fill="#344973"/></g><path d="M876.1 698.54c-15.55-.68-36.92 16.72-34.4 33.62.27 1.81 2.49 2.01 3.34.53 3.58-6.17 4.99-12.64 10.23-17.95 6.16-6.25 13.45-7.93 21.43-10.64 2.59-.88 2.31-5.44-.6-5.57z" fill="#ffe7d2"/></g><g><g><circle cx="711.52" cy="826.49" r="45.16" transform="translate(-376.02 745.19) rotate(-45)" fill="#f26849"/><path d="M706.46 823.41c.65 5.74 5.83 9.86 11.57 9.21 5.74-.65 9.86-5.83 9.21-11.57-.65-5.74-5.83-9.86-11.57-9.21-5.74.65-9.86 5.83-9.21 11.57z" fill="#344973"/></g><path d="M695.1 787.86c-15.23 6.05-28.26 31.96-18.56 47.11 1.04 1.63 3.25.86 3.44-.93.78-7.47-.65-14.29 2.09-21.65 3.22-8.66 9.5-13.41 16-19.45 2.11-1.95-.13-6.22-2.97-5.09z" fill="#ffe7d2"/></g><g><g><circle cx="230.29" cy="832.69" r="45.16" transform="translate(-160.32 62.09) rotate(-11.42)" fill="#f26849"/><path d="M225.23 829.61c.65 5.74 5.83 9.86 11.57 9.21 5.74-.65 9.86-5.83 9.21-11.57-.65-5.74-5.83-9.86-11.57-9.21-5.74.65-9.86 5.83-9.21 11.57z" fill="#344973"/></g><path d="M213.87 794.06c-15.23 6.05-28.26 31.96-18.56 47.11 1.04 1.63 3.25.86 3.44-.93.78-7.47-.65-14.29 2.09-21.65 3.22-8.66 9.5-13.41 16-19.45 2.11-1.95-.13-6.22-2.97-5.09z" fill="#ffe7d2"/></g><g><g><circle cx="434.65" cy="141.05" r="45.17" transform="translate(-15.63 63.18) rotate(-8.17)" fill="#f26849"/><path d="M408.33 154.62c3.46-4.62 10.02-5.57 14.64-2.1 4.62 3.46 5.57 10.02 2.1 14.64-3.46 4.62-10.02 5.57-14.64 2.1-4.62-3.46-5.57-10.02-2.1-14.64z" fill="#344973"/></g><path d="M472.77 138.2c.5-10.77-6.91-22.02-15.79-27.67-5.49-3.49-21.01-9.99-25.87-2.9-.25.36-.28.82.08 1.14 2.25 2.02 3.66 1.55 6.73 1.88 4.91.53 9.55 1.89 13.77 4.5 9.32 5.76 12.16 14.22 14.77 24.22.99 3.8 6.15 2.24 6.3-1.17z" fill="#ffe7d2"/></g><g><path d="M515.27 93.24c1.37 32.09 64.42 64.77 64.42 64.77.0.0-2.49-13.46 13.52-16.62 16.02-3.16 32.16 14.96 32.16 14.96.0.0 6.98-20.9 18.47-24.55 11.48-3.64 30.71 10.5 30.71 10.5.0.0-2.34-28.95 10.91-37.18 13.25-8.22 43.87-1.59 43.87-1.59.0.0-9.55-30.63 13.23-43.07 22.78-12.44 26-12.56 26-12.56.0.0-47.8-1.49-53.54-17.41-5.74-15.92.4-24.53.4-24.53.0.0-37.56 31.69-45.21 16.48-7.65-15.21-4.04-22.44-4.04-22.44.0.0-32.15 38.59-39.02 27.23-6.87-11.37-3.37-21.82-3.37-21.82.0.0-36.5 43.27-44.08 29.99l-7.58-13.28s-59.16 16.35-56.83 71.11z" fill="#569e5a"/><path d="M657.52 17.25c-7.58 10.17-13.45 21.44-21.41 31.41-3.86 4.85-7.91 9.53-12.2 14.01-3.31 3.45-8.31 6.76-11 10.89-7.46 1.33-14.92 2.66-22.38 4.01 3.41-3.46 5.92-8.37 7.69-12.11 5.53-11.66 10.39-23.8 15.2-35.77.93-2.3-2.42-4.2-3.46-1.86-4.65 10.43-8.94 21.03-13.43 31.53-1.69 3.95-3.37 7.95-5.74 11.55-2.16 3.26-5.08 5.49-7.84 8.04-14.93 2.73-29.83 5.58-44.64 8.76 4.27-9.18 8.55-18.36 12.81-27.55 4.04-8.71 10.21-17.39 12.98-26.53.19-.63-.67-1.31-1.21-.86-7.14 5.89-11.17 16.17-15.22 24.26-5.16 10.32-10 20.82-14.98 31.23-.12.25-.18.49-.22.72-4.14.91-8.27 1.85-12.39 2.82-.56.13-.4 1.08.17 1 4.08-.53 8.17-1.1 12.25-1.69 4.41 9.52 10.86 18.51 16.8 27.13 5.99 8.69 11.89 18.14 19.25 25.73.91.94 2.32-.35 1.71-1.42-5.25-9.12-12.11-17.44-17.85-26.28-5.35-8.23-10.13-17.11-15.83-25.11.15-.17.29-.36.4-.6l.05-.11c15.04-2.24 30.05-4.83 45.05-7.54 5.72 8.99 13.43 16.9 19.19 25.97 6.04 9.52 10.24 20.26 16.56 29.54.38.56 1.16.14 1.03-.48-2.21-10.91-8.84-21.59-14.59-30.96-5.03-8.19-10.71-17.94-17.86-24.86 8.73-1.59 17.45-3.22 26.16-4.83.02.0.05.0.07.01.03.38.18.79.53 1.18 8.24 9.19 16.44 18.33 25.43 26.8 8.3 7.81 17 16.43 27.02 21.98.5.28.92-.39.56-.78-7.87-8.37-17.36-15.28-25.6-23.33-8.57-8.37-16.92-17.11-24.3-26.55 6.04-1.12 12.09-2.23 18.12-3.32 12.07-2.17 24.13-4.36 36.19-6.55.03.05.06.11.1.15 6 6.14 15.19 10.26 22.45 14.81 8.17 5.11 16.22 10.72 24.76 15.18 1.11.58 2.39-1.04 1.33-1.85-7.43-5.68-15.62-10.46-23.46-15.55-6.63-4.3-13.57-10.1-20.93-13.47.03-.02.07-.04.1-.06 5.85-1.06 11.7-2.12 17.56-3.18 19.3-3.5 38.95-6.23 58.05-10.65 1.93-.45 1.4-3.75-.6-3.48-18.76 2.52-37.42 6.72-56.04 10.13-4.31.79-8.62 1.58-12.92 2.37 4.98-4.94 9.18-11.45 12.65-16.74 4.86-7.42 11.6-17.31 11.65-26.49.0-.42-.59-.65-.86-.32-5.77 6.88-8.59 16.53-13.65 24.08-3.06 4.57-6.47 8.89-10.13 12.99-2.41 2.7-5.23 5.1-7.49 7.92-12.44 2.28-24.88 4.55-37.31 6.84-5 .92-10.01 1.83-15.02 2.73 1.94-1.95 3.73-4.09 5.41-5.82 4.81-4.98 9.37-10.21 13.59-15.7 7.5-9.76 15.52-20.7 19.3-32.52.28-.87-1.04-1.6-1.6-.85z" fill="#6ec470"/></g><g><g><circle cx="533.65" cy="106.29" r="52.69" transform="translate(-1.7 203.66) rotate(-21.57)" fill="#f26849"/><path d="M556.17 132.48c-6.18-2.68-9.03-9.87-6.35-16.05 2.68-6.18 9.87-9.03 16.05-6.35 6.18 2.68 9.03 9.87 6.35 16.05-2.68 6.18-9.87 9.03-16.05 6.35z" fill="#344973"/></g><path d="M565.97 76.01c-7.3-10.25-22.2-15.24-34.41-14.03-7.56.75-26.47 5.96-25.83 15.96.03.51.33.95.89.99 3.52.24 4.47-1.21 7.54-3.12 4.88-3.05 10.13-5.14 15.88-5.78 12.7-1.42 21.4 4.3 31 11.6 3.64 2.77 7.25-2.37 4.94-5.62z" fill="#ffe7d2"/></g><g><g><circle cx="841.75" cy="581.82" r="39.37" transform="translate(-131.67 266.37) rotate(-16.7)" fill="#f26849"/><path d="M815.96 580.72c4.43 2.39 9.96.73 12.35-3.71 2.39-4.43.73-9.96-3.71-12.35-4.43-2.39-9.96-.73-12.35 3.71-2.39 4.43-.73 9.96 3.71 12.35z" fill="#344973"/></g><path d="M822.63 550.78c11.84-8 36.9-4.66 43.05 9.77.66 1.55-.98 2.76-2.36 2.02-5.76-3.11-9.98-7.49-16.62-9.13-7.82-1.93-14.33.25-21.87 1.98-2.44.56-4.42-3.15-2.21-4.64z" fill="#ffe7d2"/></g><g><g><circle cx="124.87" cy="280.06" r="39.37" transform="translate(-180.92 302.84) rotate(-70.23)" fill="#f26849"/><path d="M100.64 271.17c3.5 3.62 9.27 3.73 12.89.23s3.73-9.27.23-12.89c-3.5-3.62-9.27-3.73-12.89-.23-3.62 3.5-3.73 9.27-.23 12.89z" fill="#344973"/></g><path d="M116.11 244.68c13.71-4.02 36.57 6.8 38.03 22.41.16 1.68-1.78 2.33-2.86 1.21-4.54-4.71-7.22-10.17-13.05-13.75-6.86-4.22-13.72-4.12-21.43-4.78-2.5-.21-3.25-4.34-.69-5.09z" fill="#ffe7d2"/></g><g><g><circle cx="258.81" cy="336.65" r="39.37" transform="translate(-160.58 403.2) rotate(-61.46)" fill="#f26849"/><path d="M272.61 358.46c-.57-5-5.08-8.6-10.09-8.04-5 .57-8.6 5.08-8.04 10.09.57 5 5.08 8.6 10.09 8.04 5-.57 8.6-5.08 8.04-10.09z" fill="#344973"/></g><path d="M244.21 370.05c-13.32-5.16-24.86-27.66-16.51-40.94.9-1.42 2.83-.77 3 .78.73 6.5-.46 12.46 1.98 18.86 2.87 7.53 8.38 11.63 14.09 16.84 1.85 1.69-.07 5.42-2.55 4.46z" fill="#ffe7d2"/></g><g><g><circle cx="822.04" cy="670.22" r="45.17" transform="translate(-50.96 1272.56) rotate(-73.79)" fill="#a05858"/><path d="M795.73 683.79c3.46-4.62 10.02-5.57 14.64-2.1 4.62 3.46 5.57 10.02 2.1 14.64-3.46 4.62-10.02 5.57-14.64 2.1-4.62-3.46-5.57-10.02-2.1-14.64z" fill="#344973"/></g><path d="M860.16 667.37c.5-10.77-6.91-22.02-15.79-27.67-5.49-3.49-21.01-9.99-25.87-2.9-.25.36-.28.82.08 1.14 2.25 2.03 3.66 1.55 6.73 1.88 4.91.53 9.55 1.89 13.77 4.5 9.32 5.76 12.16 14.22 14.77 24.22.99 3.8 6.15 2.24 6.3-1.17z" fill="#ffe7d2"/></g><g><g><circle cx="921.05" cy="635.46" r="52.69" transform="translate(-169.13 383.17) rotate(-21.57)" fill="#f26849"/><path d="M943.57 661.65c-6.18-2.68-9.03-9.87-6.35-16.05 2.68-6.18 9.87-9.03 16.05-6.35 6.18 2.68 9.03 9.87 6.35 16.05-2.68 6.18-9.87 9.03-16.05 6.35z" fill="#344973"/></g><path d="M953.36 605.18c-7.3-10.25-22.2-15.24-34.41-14.03-7.56.75-26.47 5.96-25.83 15.96.03.51.33.95.89.99 3.52.24 4.47-1.21 7.54-3.12 4.88-3.05 10.13-5.14 15.88-5.78 12.7-1.42 21.4 4.3 31 11.6 3.64 2.77 7.25-2.37 4.94-5.62z" fill="#ffe7d2"/></g><g><g><circle cx="80.25" cy="423.14" r="52.69" transform="translate(-340.09 329.3) rotate(-66.68)" fill="#f26849"/><path d="M47.45 428.93c-6.18-2.68-9.03-9.87-6.35-16.05 2.68-6.18 9.87-9.03 16.05-6.35 6.18 2.68 9.03 9.87 6.35 16.05-2.68 6.18-9.87 9.03-16.05 6.35z" fill="#344973"/></g><path d="M112.56 392.86c-7.3-10.25-22.2-15.24-34.41-14.03-7.56.75-26.47 5.96-25.83 15.96.03.51.33.95.89.99 3.52.24 4.47-1.21 7.54-3.12 4.88-3.05 10.13-5.14 15.88-5.78 12.7-1.42 21.4 4.3 31 11.6 3.64 2.77 7.25-2.37 4.94-5.62z" fill="#ffe7d2"/></g></g></g></g></svg>