<svg xmlns="http://www.w3.org/2000/svg" width="1080" height="595.24" viewBox="0 0 1080 595.24"><g id="a"/><g id="b"><g id="c"><g id="d"><path d="M892.18 293.51h-99.63c-.12-.52-.23-1.04-.35-1.55 3.72-1.17 7.37-2.63 11.17-3.46 10.09-2.2 16.6-7.93 17.47-18.43 1.24-15.02 1.39-30.15 2.92-45.13 1.9-18.58-3.05-34.69-12.79-50.56-13.64-22.21-25.44-45.55-38.16-68.33-5.99-10.73-11.99-21.54-24.57-27.41 10.62-3.25 68.74-3.92 87.86-.86-7.19 1.96-11.85 3.01-16.37 4.5-9.28 3.07-11.43 7.51-8.4 16.7.43 1.3.85 2.63 1.49 3.84 15.44 29.07 30.91 58.12 47.18 88.71 2.28-3.9 4.02-6.26 5.14-8.9 8.25-19.36 16.57-38.7 24.45-58.21 2.72-6.75 4.9-13.86 6.18-21.01 2.03-11.33-1.95-17.38-12.83-20.75-5.18-1.61-10.56-2.55-16.31-3.9 9.09-3.44 53.46-4.18 71.49-.99-23.49 12.6-32.9 34.6-43.76 55.45-9.72 18.67-19.2 37.47-28.54 56.34-1.98 4.01-4.05 8.56-4.05 12.86.0 19.68.55 39.37 1.24 59.05.54 15.41 6.37 26.66 23.77 28.09 2.06.17 4.02 1.59 6.02 2.43-.21.51-.43 1.03-.64 1.54z" fill="#da5c57"/><path d="M637.13 226.69c22.75-12.41 20.94-15.27 21.29-36.6.8-48.99.2-98.01.17-147.02.0-.46-.05-.92-.07-1.37-1.31-21.12-2.28-22.54-23.15-31.57 4.68-.73 7.44-1.52 10.21-1.53 26.12-.07 52.26-.71 78.35.29 14.51.56 29.34 2.38 43.25 6.35 22.37 6.4 37.12 21.04 40.05 45.45 2.86 23.81-6.3 42.15-25.62 55.43-20.2 13.89-43.29 18.65-68.01 18.27 3.45-1.33 6.86-2.76 10.34-3.98 38.42-13.48 53.98-58.58 32.08-93.24-6.99-11.07-17.25-17.64-29.98-19.98-8.01-1.47-16.19-2.03-25.96-3.2-.66 5.65-1.6 9.99-1.6 14.33.05 54.05-.19 108.1.61 162.13.33 22.16 4.85 26.17 26.57 31.38 2.58.62 5.04 1.73 7.46 4.85h-95.99z" fill="#fda14d"/><path d="M600.9 290.96h-98.3c3.41-2.26 4.95-4.03 6.75-4.36 11.41-2.13 15.91-9.79 16.83-20.4.63-7.29 1.48-14.6 1.5-21.9.14-41.67.09-83.33.03-125 0-5.03-.24-10.08-.7-15.09-1.73-18.66-3.35-20.82-22.65-29.21 4.54-.84 7.25-1.76 9.95-1.77 26.1-.09 52.23-.79 78.29.29 14.94.62 30.2 2.67 44.51 6.84 21.35 6.22 35.33 20.99 38.57 43.75 3.26 22.88-5.04 41.46-23.55 55.09-20.61 15.18-44.56 19.92-70.04 19.68 4.07-1.5 8.14-2.99 12.21-4.5 37.77-13.98 52.44-61.24 28.85-94.29-13.22-18.53-32.83-21.23-55.11-20.45-.6 5.59-1.55 10.43-1.56 15.27-.1 50.37-.12 100.73.07 151.1.02 6.36 1.41 12.7 2.12 19.06 1.36 12.28 8.71 18.54 20.42 20.62 3.97.7 7.86 1.87 11.78 2.82.01.81.03 1.63.04 2.44z" fill="#9f3d63"/><path d="M461.46.0h40.67c.96 1.57 2.33 2.97 2.73 4.61 15.21 62.8 39.17 122.78 59.57 183.9 4.75 14.23 8.15 17.45 21.12 27.8-9.12 2.82-63.87 3.66-86.45.0 4.64-1.14 9.28-2.28 13.92-3.42 11.88-2.92 15.42-7.21 12.15-18.41-6.65-22.76-14.3-45.22-21.85-68.76h-65.94c-7.23 18.54-14.7 37.68-17.28 58.21-2.27 18.11 3.02 24.83 21.09 28.94 4.41 1 8.8 2.07 13.12 4.67h-74.94c2.08-1.98 3.99-3.42 5.43-5.24 6.46-8.15 14.47-15.61 18.83-24.79 11.17-23.52 21-47.69 30.82-71.83 10.5-25.84 20.03-52.08 30.69-77.84 3.75-9.07 4.82-17.18.04-25.97-1.66-3.05-2.16-6.73-3.72-11.88zm11.88 34.56c-.88.08-1.76.16-2.65.25-10.16 27.64-20.31 55.27-30.47 82.91h60.32c-9.5-29.03-18.35-56.09-27.2-83.15z" fill="#838196"/><path d="M214.68 47.45h84.56c.16.66.32 1.32.48 1.98-1.86.85-3.65 1.96-5.6 2.5-9.31 2.58-13.47 9.33-14.01 18.25-1.48 24.61-2.56 49.25-3.9 75.88 33.15.95 64.41-.05 96.39-.91.51-4.1 1.24-7.12 1.21-10.14-.22-18.32.13-36.68-1.14-54.93-1.46-21.04-3.06-22.44-20.7-31.11 9.43-3.12 68.16-3.6 84.78.05-22.21 3.79-24.29 18.91-24.4 34.31-.35 48.09-.16 96.18-.05 144.26.0 4.08 1.19 8.14 1.53 12.24.9 10.87 6.07 17.93 17.13 20.22 1.57.32 2.93 1.67 6.54 3.83h-87.39c.34-1.05.4-1.73.6-1.78 16.97-3.93 21.82-16.54 22.02-31.79.33-25.11.09-50.22.09-76.9h-93.85c-.1.19-1.26 1.37-1.24 2.52.54 26.98 1.15 53.96 1.87 80.93.33 12.4 5.75 20.94 18.62 23.61 1.07.22 1.9 1.59 3.98 3.43h-85.22c.71-1.36.97-2.61 1.49-2.73 15.48-3.48 19.92-14.89 19.97-28.73.2-51.28.11-102.56.03-153.85.0-3.17-.77-6.35-1.25-9.52-1.25-8.32-4.95-14.62-13.64-17.12-2.27-.65-4.29-2.13-8.91-4.51z" fill="#f8d8a0"/><g><path d="M62.88 471.61c-12.56.0-23.58-1.83-32.73-5.55-12.29-5-20.58-13.15-24.62-24.23-14.56-39.85-.4-87.74 43.28-146.41 27.48-36.91 62.28-56.55 86.64-66.53 28.47-11.66 56.99-15.88 74.45-11.01 15.93 4.44 21.27 14.02 22.95 21.27 3.6 15.55-6.15 35.41-26.06 53.11-32.29 28.7-70.67 30.05-87.28 24.16-1.54-.55-2.35-2.24-1.8-3.78.55-1.54 2.24-2.34 3.78-1.8 15.33 5.44 50.97 4 81.36-23 18-16 27.28-34.14 24.23-47.34-1.89-8.15-8.37-14-18.77-16.9-28.5-7.97-106.76 10.92-154.74 75.37C11.16 355.9-2.73 401.97 11.09 439.79c3.45 9.44 10.61 16.43 21.29 20.77 29.94 12.18 84.3 1.93 145.42-27.43 9.92-4.77 20.31-9.96 30.97-15.47 13.06-29.75 38.84-73.89 89.59-129.62 70.63-77.56 137.56-85.12 156.11-71.87 5.06 3.62 7.88 8.48 8.37 14.46 1.12 13.52-9.75 31.81-32.29 54.35-27.52 27.52-131.1 92.3-217.21 136.98-3.95 9.22-6.62 16.93-8.42 23.06 11.22-8.83 33.44-25.44 48.85-31.28 6.42-2.43 10.99-2.37 13.99.19 4.84 4.13 3.06 12.64 1.62 19.47-.45 2.17-.88 4.22-.88 5.26.0 1.67.72 3.02 2.15 4 1.91 1.31 7.92 3.77 22.41-1.77 23.47-8.97 55.17-38.4 55.49-38.7 1.2-1.12 3.07-1.05 4.19.14 1.12 1.2 1.05 3.07-.14 4.19-1.33 1.24-32.86 30.51-57.41 39.9-12.23 4.68-22.14 5.07-27.89 1.11-3.04-2.09-4.72-5.25-4.72-8.88.0-1.66.47-3.89 1.01-6.47.87-4.16 2.49-11.9.33-13.75-.54-.46-2.39-1.3-8.04.85-20.02 7.59-53.84 35.66-54.17 35.95-.97.81-2.36.91-3.44.25-1.08-.66-1.63-1.94-1.35-3.17 1.31-5.89 3.76-14.68 8.31-26.16-8.53 4.35-16.84 8.48-24.86 12.33-45.33 21.77-86.2 33.13-117.49 33.13zM432.8 216.85c-27.21.0-76.96 16.9-130.05 75.19-46.57 51.14-71.81 92.23-85.47 121.2 84.25-44.23 182.57-105.92 209.09-132.44 20.66-20.66 31.52-38.3 30.58-49.68-.35-4.22-2.28-7.54-5.91-10.13-3.53-2.52-9.8-4.15-18.24-4.15z" fill="#fcfcfc"/><path d="M323.49 467.66c-.37.0-.78-.08-1.22-.27-1.43-.6-2.14-2.24-1.65-3.71.19-.56 1.5-3.43 8.79-19.15 7.6-16.39 20.3-43.77 21.15-46.37.38-1.53 1.9-2.49 3.46-2.19 1.6.32 2.65 1.88 2.33 3.49-.23 1.14-3.03 7.47-11.92 26.73 5.58-6.68 11.69-12.49 18.03-16.08 19.64-11.11 28.01-.68 33.54 6.21 1.29 1.61 2.52 3.14 3.67 4.12 5.15 4.41 23.45 6.64 42.46-8.18 1.29-1.01 3.15-.78 4.16.51 1.01 1.29.78 3.15-.51 4.16-20.25 15.81-42.03 14.81-49.96 8.01-1.57-1.34-2.96-3.08-4.43-4.91-5.28-6.58-10.75-13.39-26-4.76-12.02 6.79-25.78 24.42-38.74 49.64-.49.95-1.41 2.74-3.15 2.74z" fill="#fcfcfc"/><path d="M549.2 595.24c-1.13.0-2.21-.65-2.69-1.75-.45-1.02-10.6-25.95 26.23-103.93 10.6-22.45 27.28-50.59 45.93-79.22-19.84 11.94-56.02 30.82-87.51 47.07-1.15 29.56-18.03 59.34-54.16 61.63-15.03.95-23.77-2.04-25.98-8.89-2.92-9.05 7.38-20.44 15.64-25.64 4.89-3.08 22.92-12.36 45.75-24.11 4.15-2.14 8.46-4.36 12.89-6.64-.02-10.58-.91-21.11-1.7-30.42-.11-1.28-.21-2.54-.32-3.78-24.66 15.83-62.8 35.77-81.09 33.72-6.81-.76-9.72-4.12-10.97-6.82-4.47-9.67 5.29-25.9 9.69-32.42l.09-.13c.91-1.36 2.75-1.73 4.11-.82 1.36.91 1.73 2.75.82 4.11l-.11.16c-5.89 8.73-11.85 20.95-9.23 26.62.33.71 1.33 2.87 6.24 3.41 16.03 1.78 55.01-18.13 79.92-34.5-.66-9.46-.82-17.63.72-23.77 2.02-8.09 8.95-15.77 17.65-19.56 6.34-2.77 12.59-2.92 17.14-.42 4.17 2.3 5.29 5.52 5.49 7.82.65 7.41-6.93 17.36-23.16 30.43-2.95 2.38-6.95 5.28-11.67 8.46.18 2.26.37 4.6.58 6.99.72 8.54 1.53 18.1 1.69 27.87 34.25-17.69 73.22-38.1 90.26-49.08 1.75-1.13 3.49-2.28 5.22-3.44 42.62-63.89 92.2-126.61 103.51-130.72 8.14-2.96 12.08-.75 13.96 1.62 4.13 5.23 1.64 15.89-6.66 28.52-10.35 15.75-51.42 67.54-106.66 104.93-21.14 31.74-40.61 63.91-52.72 89.54-35.28 74.68-26.25 98.81-26.15 99.05.61 1.5-.09 3.23-1.58 3.86-.38.16-.78.24-1.17.24zm-24.21-134.65c-3.37 1.74-6.67 3.44-9.87 5.08-21.8 11.22-40.63 20.91-45.3 23.85-7.39 4.65-14.75 13.88-13.16 18.8 1.22 3.77 8.5 5.52 19.96 4.8 34.68-2.19 46.41-31.56 48.36-52.53zm25.85-87.31c-2.22.0-4.73.57-7.34 1.71-6.97 3.04-12.7 9.3-14.27 15.57-1.17 4.66-1.2 11.03-.78 18.48 3.19-2.22 6.03-4.34 8.43-6.26 19.55-15.74 21.18-22.93 20.97-25.29-.08-.88-.42-2.04-2.44-3.15-1.28-.7-2.84-1.06-4.57-1.06zm186.31-101.29c-1.29.0-2.98.36-4.95 1.07-8.83 3.21-51.83 56.83-91.96 115.53 47.94-35.68 82.92-79.97 92.28-94.22 7.08-10.78 8.87-19.17 6.96-21.58-.42-.53-1.23-.8-2.34-.8z" fill="#fcfcfc"/><path d="M726.43 462.83c-.64.0-1.29-.21-1.82-.63-1.14-.89-1.47-2.47-.78-3.74.16-.3 16.18-30 18.97-36.04 2.63-5.7 4.73-15.16 2.17-17.6-.64-.61-3.5-2.21-13.36 2.9-25.97 13.45-61.8 48.66-62.16 49.02-1.05 1.04-2.71 1.14-3.88.25-1.17-.9-1.51-2.52-.79-3.81 10.13-18.06 20.75-38.72 21.06-42.2-.09-1.58 1.08-2.96 2.66-3.12 1.62-.18 3.08 1.02 3.24 2.65.34 3.4-6.11 16.57-12.9 29.31 13.07-11.76 33.24-28.67 50.03-37.37 9.69-5.01 16.29-5.64 20.19-1.92 7.11 6.79-.56 23.66-.89 24.37-1.52 3.3-6.63 13-11.2 21.56 12.32-10.84 30.33-26.15 38.1-30.19 8.73-4.54 16.12-5.59 20.8-2.94 2.09 1.18 4.64 3.65 4.96 8.72.22 3.47-1.3 8.41-2.9 13.63-1.56 5.08-4.45 14.53-2.45 16.19 3.07 2.55 16.61.8 41.32-14.53 13.57-8.42 35.34-24.03 35.56-24.18 1.33-.95 3.18-.65 4.14.68.95 1.33.65 3.18-.68 4.14-.22.16-22.15 15.88-35.89 24.4-11.22 6.96-38.38 22.27-48.24 14.05-5.03-4.19-2.18-13.49.58-22.48 1.38-4.49 2.8-9.13 2.65-11.52-.18-2.92-1.52-3.68-1.96-3.93-2.16-1.22-7.27-1.06-15.15 3.03-11.43 5.95-49.01 40.18-49.39 40.53-.56.51-1.28.77-2 .77zm-40.59-51.8s0 .04.0.06c0-.02.0-.04.0-.06z" fill="#fcfcfc"/><path d="M791.22 360.41c-.09.0-.18.0-.27-.01-1.63-.15-2.83-1.59-2.68-3.22.35-3.89-5.89-10.43-24.53-12.51-23.09-2.56-182.77-.67-199.2 14.03-1.22 1.09-3.09.99-4.19-.23-1.09-1.22-.99-3.09.23-4.19 19.97-17.87 186.21-17.47 203.81-15.5 23.02 2.56 30.43 11.8 29.78 18.93-.14 1.54-1.43 2.7-2.95 2.7z" fill="#fcfcfc"/><path d="M457.91 390.92c-2.25.0-3.15-1.51-3.38-2.01-.82-1.74-.12-3.84 1.92-5.77 1.96-1.86 4.06-2.41 5.75-1.49.92.5 2.37 1.8 1.81 4.91-.27 1.47-1.58 2.49-3.03 2.43-.37.99-1.25 1.74-2.37 1.88-.24.03-.47.04-.69.04z" fill="#fcfcfc"/><path d="M957.47 522.85c-12.49.0-16.66-4.74-17.96-8.72-3.15-9.64 7.86-23.06 16.69-29.5 9.53-6.96 30.37-17.87 56.28-25.47.37-11.26-1.03-23.88-2.31-35.47-.08-.7-.15-1.4-.23-2.1-2.1 1.48-4.27 2.98-6.49 4.51-22.41 15.41-59.69 35.81-79.99 35.82-2.45.0-4.64-.3-6.54-.93-3.74-1.25-6.34-3.79-7.52-7.33-2.64-7.93-.97-16.82 2.33-24.94-14.94 6.83-32.49 11.45-38.46 9.7-3.55-1.05-5.92-3.62-6.67-7.24-1.28-6.2 2.4-14.34 8.95-19.8 6.5-5.42 18.93-7.98 28.31-5.84 5.66 1.3 9.65 4.17 11.54 8.31.68 1.49.02 3.25-1.47 3.92-1.49.68-3.25.02-3.92-1.47-1.38-3.03-4.82-4.38-7.46-4.99-7.51-1.71-18.13.39-23.19 4.61-5.26 4.38-7.66 10.58-6.94 14.04.3 1.46 1.11 2.33 2.54 2.75 4.61 1.36 26.23-4.86 40.99-12.64 5.04-8.93 11.02-15.76 13.05-17.34 3.43-2.67 6.14-4.78 8.56-2.67 2.47 2.15.92 5.52-3.22 12.69-2.23 3.87-7.46 7.9-14.01 11.61-4.63 8.59-8.1 18.94-5.27 27.41.59 1.78 1.79 2.92 3.78 3.59 13.3 4.45 51.78-13.86 81.29-34.15 2.31-1.59 5.5-3.78 9.13-6.36-1.26-12.45-1.81-23.01.73-29.86 4.27-11.5 15.31-17.4 24.34-18.14 7.13-.58 13.03 1.94 15.78 6.75 6.07 10.63-8.79 25.38-34.6 44.05.19 1.78.39 3.58.59 5.39 1.23 11.17 2.57 23.27 2.38 34.45 18.11-4.8 38.34-7.83 58.74-6.78 1.63.08 2.89 1.48 2.81 3.11-.08 1.63-1.47 2.89-3.11 2.81-20.94-1.06-41.12 2.16-58.72 7.02-.34 4.51-1 8.8-2.11 12.73-8.05 28.66-30.5 46.47-58.59 46.47zm54.59-57.41c-26.52 8.14-46.26 19.51-52.36 23.97-9.47 6.92-16.27 17.61-14.55 22.88 1.25 3.83 7.39 4.63 12.32 4.63 25.32.0 45.59-16.15 52.88-42.14.81-2.89 1.36-6.03 1.71-9.35zm24.26-92.74c-.5.0-1.01.02-1.54.06-7.17.59-15.91 5.24-19.27 14.3-1.89 5.1-1.63 13.78-.72 23.77 15.44-11.37 34.26-27.08 30.14-34.28-1.4-2.45-4.56-3.84-8.61-3.84z" fill="#fcfcfc"/></g></g></g></g></svg>