<svg xmlns="http://www.w3.org/2000/svg" width="565.66" height="1080" viewBox="0 0 565.66 1080"><g id="a"/><g id="b"><g id="c"><g id="d"><path d="M404.67 1079.97c-14.39.01-28.78.02-43.17.03-86.38-9.27-164.95-39.99-237.6-86.81-16.38-10.56-31.28-22.97-44.37-37.48-18.19-20.15-30.83-43.19-36.18-69.97-2.62-13.1-3.59-26.32-2.6-39.69 1.6-21.54 4.78-42.85 8.76-64.06 10.62-56.52 24.9-112.16 40.07-167.59 1.7-6.23 3.72-12.37 5.59-18.52-1.4-2.43-3.91-3.05-6.14-4.14-3.55-1.73-7.08-3.5-10.51-5.46-7.76-4.44-11.99-11.26-12.66-20.11-.75-10.04-1.49-20.09-1.7-30.14-.4-18.69-.44-37.39-.58-56.09-.02-3.23.01-6.49.39-9.69.82-6.97 3.54-13.11 8.56-18.17 12.77-12.87 27.77-21.58 45.91-24 4.03-.54 6.38-2.17 8.45-5.51 5.49-8.85 11.31-17.5 16.99-26.23.75-1.15 1.97-2.18.87-4.48-2.65-.65-5.81-.28-8.89-.34-63.29-1.3-119.27-47.85-132.65-109.74C-11.39 214.17 23.96 139.41 104.73 117.84c55.58-14.85 103.56 1.02 142.57 43.45 2.15 2.33 4.19 4.76 6.09 6.94 2.55-.43 2.13-2.12 2.25-3.4.93-10.08 3.54-19.78 6.53-29.39 13-41.7 36.12-76.42 71.03-103.01 19.71-15 41.24-26.35 65.86-30.47 22.77-3.81 45.1-2.69 66 8.9 15.15 8.4 26.69 20.48 36.67 34.34 19.48 27.07 25.14 60.05 21.59 87.75-1.16 9.01-4.06 17.47-8.79 25.26-3.81 6.27-8.81 11.36-15.22 14.95-10.83 6.08-21.78 6.49-32.92.67-10.66-5.57-18.01-14.07-22.76-24.98-3.63-8.32-5.21-17.16-6.51-26.06-.83-5.7-1.92-11.32-3.89-16.76-5.5-15.19-15.25-21.71-31.32-20.64-9.13.61-17.58 3.44-25.15 8.69-10.51 7.3-18.92 16.54-25.18 27.68-5.29 9.41-9.78 19.22-13.31 29.41-5.41 15.59-10.58 31.26-15.89 47.02 1.05 2.57 3.63 1.27 5.49 1.77 10.34 2.77 16.69 9.29 19.32 19.65 1.99 7.84 1.58 15.7.48 23.55-.84 5.95-2.1 11.84-3.33 18.62 4.14-2.7 7.37-4.95 10.74-6.98 6.82-4.11 13.98-7.46 22.08-7.96 16.9-1.04 26.06 12.57 18.67 27.89-5.01 10.38-13.88 16.18-24.57 19.57-2.62.83-5.81.26-7.86 3.39 2.32 1.09 4.57 2.15 6.82 3.2 11.71 5.47 23.37 11.06 35.15 16.37 6.42 2.89 9.03 7.66 8.83 14.53-.4 13.38-3.11 26.39-6.15 39.33-1.88 8.04-4.17 15.98-6.21 23.98-.88 3.43-.36 4.31 3.11 5.39 1.71.53 3.46 1.07 5.22 1.24 8.74.83 14.45 5.97 18.56 13.15 2.31 4.03 4.39 8.28 5.96 12.64 2.43 6.75 4.83 13.57 6.39 20.55 4.48 19.97 8.95 39.95 12.11 60.2 1.62 10.37 1.83 20.8.96 31.19-1.1 13.04-5.96 24.43-16.8 32.47-3.14 2.33-4.55 5.01-5.14 8.85-5.12 33.45-8.75 67-7.97 100.91.53 23.05 2.39 45.93 8.38 68.31 5.61 20.99 15.86 39.26 31.95 53.97 9.02 8.24 18.36 16.13 27.68 24.04 15.93 13.51 31.36 27.49 44.52 43.82 5.19 6.45 10.26 13 14.22 20.28 19.14 35.22 19.94 70.62.29 105.88-10.68 19.16-25.46 34.71-43.59 47.05-25.72 17.5-54.3 27.57-84.83 32.46-6.03.97-12.11 1.63-18.16 2.44zM91.61 173.29l-.06.07c1.65.07 2.26-.79 2.11-2.34l-.07.09c2.76-.38 4.01-2.19 4.47-4.74 14.48-14.02 29.41-27.43 47.81-36.28 4.19-.78 8.02-2.34 12.36-5.17-4.01-1.79-7.07-1.12-10.12-.69-25.94-2.68-50.06 3.03-72.13 16.64C34.41 166.49 7.81 217.65 18.14 272.75c9.47 50.5 50.89 95.47 111.64 100.99 37.43 3.41 70.37-8.66 97.27-34.99 42.27-41.37 49.69-106.43 18.63-156.54-14.91-24.06-36-40.68-62.18-51.15-5.65-2.26-10.91-2.37-16.61-.28-9.84 3.6-19.29 7.88-27.87 13.94-15.14 10.7-27.63 24.02-38.32 39.07-11.87 16.72-17.18 35.27-16 55.84 1.19 20.74 9.09 38.44 23.93 52.66 16.24 15.55 35.7 21.24 57.62 14.71 17.28-5.15 30.78-15.41 38.03-32.51 5.25-12.39 5.23-24.58-3.21-35.71-11.23-14.8-33.1-20.8-52.21-8.79-5.59 3.52-9.02 8.18-7.57 15.23-1.47 2.81-1.95 5.81-1.74 8.96.28 4.1.51 8.21.76 12.32-.35.62-.63 1.3-1.06 1.86-2.28 2.99-5.04 3.16-6.5.34-.81-1.58-1.58-3.26-1.95-4.99-1.26-5.96-2.59-11.92-3.43-17.95-1.67-12 2.11-21.98 11.84-29.43 16.28-12.47 34.47-16.03 53.9-9.79 27.43 8.83 42.81 35.92 37.68 62.4-3.89 20.06-14.24 35.79-30.8 47.54-31.29 22.2-69.52 20.98-97.31-3.88-28.01-25.06-37.21-57.01-31.1-93.68 1.79-10.72 5.8-20.68 11.19-30.13 1.49-2.61 4.36-5.01 2.68-8.69l-.03.03c3.61-.27 3.75-.43 4.13-4.55l-.04.05c1.76.17 2.29-.76 2.09-2.34zM324.4 300.47c-2.19.81-2.95 2.69-3.52 4.7-1.72 2.69-4 5.06-4.59 8.37-1.3 2.17-4.17 3.86-2.53 6.99.93 1.77 2.73-.04 5.38-5.73.15-.31.25-.64.37-.97 2.23-2.47 3.18-5.52 4.03-8.64 1.55-1.07 1.6-2.63 1.42-4.28.47-.51 1.06-.94 1.39-1.53.42-.76.11-1.45-.71-1.74-.12-.04-.54.45-.66.76-.25.66-.4 1.36-.58 2.05zm-188.34 162.69c4.41 1.95 9.16 1.35 13.76 1.58 4.85.24 9.75 1.8 15.19.43-5.75-19.19-9.03-38.53-15.55-58.73-5.96 10.81-11.57 19.91-16.04 29.66-5.59 7.3-9.87 15.36-14.07 23.59 5.47 2.4 11 3.35 16.71 3.47zm122.08-60.49c-6.19 7.12-11.49 14.83-15.62 23.33-5.9 8.1-11.61 16.33-17.77 24.22-2.7 3.46-3.63 6.83-2.46 10.95.48 1.7.78 3.45 1.3 5.81 6.91.32 13.68-.3 20.43-.23 3.45.03 4.94-1.79 6.18-4.77 9.66-23.2 21.16-45.53 32.17-68.11 10.69-21.92 20.75-44.15 31.01-66.28.84-1.81 2.29-3.75.71-5.94-.87-1.2-3.46.3-5.54 3.45-16.59 25.18-33.14 50.38-49.69 75.59-.38.58-.49 1.32-.73 1.99zm-54.5-12.85c1.88 9.01 4.86 17.68 8.28 26.2 1.96 8.57 3.79 17.18 7.83 26.67 31.05-51.6 63.6-100.52 96.31-149.26-1.34-2.11-3.46-2.61-5.44-3.39-9.33-3.68-18.68-7.29-27.94-11.14-2.25-.93-4.14-.65-4.7 2.24-2.51 12.77-7.62 24.59-13.01 36.31-4.71 7.27-9.41 14.54-14.11 21.82-1.96 2.03-3.97 4.01-5.87 6.09-10.68 11.63-22.87 21.31-36.72 28.92-9.86 5.42-11.01 3.13-4.62 15.53zm-108.29 253.08c-3.18 7.08-4.51 14.6-5.35 22.24-.63 2.05-1.41 4.07-1.87 6.16-4.41 19.89-8.78 39.79-13.09 59.7-.3 1.36-.07 2.84-.08 4.26-3.81 12.25-6.36 24.73-6.91 37.58-2.1 7.55-2.19 7.79 4.57 10.19 8.9 3.17 16.89 7.9 24.52 13.33 15.32 10.91 28.74 23.85 40.3 38.64 27.68 35.41 43.01 75.05 41.19 120.63-.49 12.16-3.21 23.4-9.93 33.58-.99 1.5-1.9 3.04-2.77 4.61-.82 1.49-.38 2.94.95 3.71 5.28 3.05 10.57 6.13 16.01 8.87 50.65 25.47 103.51 44.39 159.74 52.95 15.25 2.32 30.66 3.65 46.14 2.95 4.94-.22 5.95-1.09 5.55-5.68-2.23-25.76 1.7-50.82 8.25-75.6 10.14-38.34 28.77-71.78 57.24-99.59 9.03-8.82 18.86-16.58 29.42-23.46 2.39-1.56 2.62-3.46.55-5.25-6.51-5.63-13.18-11.1-19.76-16.65-10.7-9.02-21.63-17.76-30.5-28.77-5.21-6.47-9.39-13.57-13.95-20.44-2.74-6.92-5.48-13.85-8.21-20.77-1.38-5.84-2.93-11.65-4.11-17.53-3.16-15.69-4.62-31.56-4.66-47.55.11-9.27.75-18.58.2-27.82-.56-9.3 1.58-18.28 1.92-27.45.08-2.13.0-4.26.0-6.4.76-6.04 1.47-12.1 2.31-18.13.89-6.4 1.84-12.78 2.9-19.15.96-5.76 3.65-11.25 3.24-17.92-2.38 1.03-4.05 1.66-5.63 2.46-14.77 7.54-30.29 13.07-46.2 17.66-18.33 5.29-37.09 8.48-55.9 11.15-17.04 2.41-34.13 4.67-51.41 4.91-26.24.37-52.38-.08-78.41-4.22-24.12-3.85-48.13-7.98-71.45-15.48-1.97-.63-3.9-2.05-6.68-.61-2.51 14.07-6.42 28.25-8.11 42.87zm19.2-203.38c-3.54 1.16-7.1 2.55-10.78 3.5-9.09 2.36-15.92 7.97-22.11 14.67-4.33 4.68-6.89 10.01-7.01 16.43-.05 2.51-.13 5.03-.12 7.54.1 23.73 1.34 47.42 2.62 71.11.16 2.87.89 5.71.92 8.57.09 7.87 4.22 12.55 11.21 15.44 12.62 5.21 25.31 10.16 38.69 13.12 38.4 8.48 77.36 11.9 116.58 12.72 8.25.17 16.54-.16 24.77-.73 16.85-1.16 33.64-2.96 50.35-5.47 22.06-3.31 43.82-7.85 64.91-15.21 13.25-4.62 25.94-10.47 38.1-17.5 10.46-6.05 16.31-14.7 17.1-26.9.37-5.76.47-11.46.11-17.22-1.09-17.3-5.79-33.95-9-50.87-2.41-12.72-5.42-25.25-10.32-37.29-3.89-9.56-8.93-18.01-18.9-22.41-.95-.42-1.73-1.23-3.06-2.21-2.8 7.5-5.52 14.76-8.18 21.89 1.02 1.3 2.06.72 3.09.54 4.89-.84 7.68-.14 8.23 2.23.81 3.51-1.77 5.24-4.1 6.87-14.16 9.89-28.72 18.92-45.25 24.6-26.67 9.17-54.08 14.69-82.12 16.62-43.49 3-86.93 1.9-130.15-4.16-9.59-1.35-19.13-3.11-28.44-5.93-3.12-.94-6.11-2.02-8.88-3.75-1.62-1.01-2.89-2.39-2.77-4.3.13-2.03 1.61-2.96 3.66-3.14 1-.09 2.47-.33 2.86-1 2.33-4.03 4.46-8.19 6.55-12.35.74-1.47 2.49-2.64 1.4-5.43zM409 1059.98c7.1 1.18 12.98-.69 18.88-1.8 23.84-4.52 46.22-12.82 66.71-25.99 17.86-11.47 32.06-26.39 42.31-45 5.23-9.5 8.96-19.53 10.2-30.39 2.74-23.96-3.24-45.5-17.94-64.62-7.02-9.12-14.81-17.55-23.12-25.49-1.72-1.65-3.17-3.87-6.14-3.97-1.71 1.11-3.61 2.16-5.29 3.48-32.53 25.69-56.97 57.24-71 96.63-11.12 31.22-13.25 63.65-14.62 97.14zM64.49 791.05c-3.6 22.84-6.02 45.28-5.27 67.99 1.03 31.36 11.83 58.82 32.43 82.46 16.97 19.47 37.67 34.14 59.81 47.18.88-1.05 1.89-1.76 2.19-2.7 8.68-27.4 9.81-54.99 1.75-82.74-13.42-46.23-42.33-80.86-81.18-107.97-2.58-1.8-5.21-3.78-9.73-4.22zm198.21-326.25c1.58.0 3.36.14 5.12-.02 13.95-1.25 27.75-3.4 41.42-6.45 20.37-4.54 39.93-11.49 59.09-19.68 2.82-1.21 4.6-2.72 4.7-6.27.16-5.79 2.42-11.16 4.58-16.49 7.29-17.97 13.24-36.38 17.91-55.19 2.07-8.34 4.2-16.68 5.09-25.29.41-3.97-.33-6.67-4.28-8.67-18.89-9.58-38.51-17.48-58.06-25.55-2.66-1.09-3.91-.45-5.03 2.14-.71 1.64-1.24 3.37-1.94 5.02-13.11 31.04-25.93 62.2-40.6 92.56-9.51 19.69-18.54 39.61-27.8 59.42-.63 1.35-.97 2.66-.19 4.47zM444.42 92.37c2.34-.92 3.03-2.63 3.91-4.17 7.27-12.82 13.56-26.14 17.97-40.18 5.28-16.81 6.03-15.99-10.52-24.62-18.29-9.54-38.08-9.76-57.78-6.15-23.05 4.23-43.02 15.44-61.33 29.76-1.12.87-2.47 1.8-2.3 3.33.19 1.81 1.94 1.86 3.31 1.96 3.99.27 7.75 1.39 11.46 2.77 10.1 3.78 19.97 8.15 28.89 14.2 3.98 2.7 7.62 3.73 12.02 2.27 6.63-2.2 13.48-2.09 20.26-1.58 12 .9 22.1 5.72 29.33 15.7 1.64 2.26 3.25 4.54 4.8 6.7zm-101.45 13.95c-.58-.31-1.19-.92-1.75-.87-16.77 1.33-33.5 3.06-50.16 5.51-4.67.69-7.84 2.37-9.95 6.84-7.21 15.31-12.83 31.15-16.12 47.73-1.11 5.57-1.09 11.42-1.08 17.14.01 4.85 2.19 6.26 6.93 4.91 10.69-3.03 21.47-6.02 32.5-7.03 12.13-1.12 10.4.37 14.28-11.81 6.75-21.2 14.14-42.1 25.49-61.37.14-.24-.09-.69-.15-1.05zM211.71 466.85c-.78-3.86-1.18-6.67-1.93-9.39-5.1-18.66-10.26-37.29-15.41-55.93-1.33-4.83-2.62-9.68-4.03-14.49-.83-2.82-2.07-3.58-4.57-2.83-7.9 2.36-15.8 4.66-24.02 5.74-2.79.37-3.68 1.88-2.91 4.53 2.01 6.88 4.45 13.64 6.13 20.59 3.96 16.33 9.81 32.22 11.49 49.09.23 2.33 2.16 2.66 3.96 2.67 10.01.06 20.03.03 31.27.03zM510.13 115.72c-.25-9.33-1.32-18.56-4.04-27.56-.87-2.86-2.67-3.34-4.48-1.22-3.51 4.08-6.8 8.36-10.47 12.28-10.1 10.78-20.92 20.74-33.6 28.47-2.3 1.4-4.12 2.99-3.59 5.96 2.32 12.85 8.63 22.67 21.18 27.74 4.22 1.71 8.34 1.63 12.55-.08 6.61-2.67 11.49-7.16 14.92-13.37 5.55-10.03 7.09-20.96 7.54-32.22zm-220.24-13.86c1.97-.19 3.38-.18 4.72-.48 13.71-3.07 27.61-4.13 41.62-4.19 3.58-.02 7.17-.06 10.75.04 2.27.06 4.33-.41 5.87-2.07 6.3-6.78 13.42-12.6 21.41-17.77-1.2-1.26-1.78-2.25-2.65-2.72-9.16-4.92-18.66-9.12-28.48-12.5-4.71-1.62-9.65-2.55-14.75-2.67-4.2-.1-7.44.91-10.5 4.06-10.04 10.34-19 21.45-26.3 33.87-.69 1.17-.99 2.56-1.69 4.42zm188.45-61.53c-2.07 6.44-3.59 12.31-5.82 17.9-5.71 14.31-12.43 28.12-21.82 40.48-1.07 1.4-2.87 2.89-2.28 4.65 1.86 5.58.75 11.97 4.48 17.65 15.85-11.6 29.45-24.68 41.15-39.73 1.53-1.97 2.87-4.1 4.33-6.13 1.36-1.88 1.82-3.87.73-6.01-5.3-10.49-11.46-20.34-20.77-28.8zm-149.4 234.49c8.3-17.46 10.36-33.84 8.66-50.83-.36-3.63-2.02-6.84-4.61-9.48-5.51-5.61-11.69-5.28-16.39 1-3.07 4.11-4.55 8.84-4.88 13.97-1.08 17.1 5.63 31.21 17.22 45.33zm-17.62-87.25c-11.87.57-21.39 3.91-31.17 5.79-12.39 2.38-10.92 1.12-7.01 12.58 1.94 5.7 3.61 11.48 5.44 17.37 6.91-.26 12.74-3.25 18.88-4.94 1.14-.31 2.31-1.78 2.8-2.99 3.64-8.88 7.11-17.83 11.05-27.81zm29.29 95.34c9.44 1.11 16.88-.18 24.25-1.64 6.11-1.21 11.45-4.08 15.57-8.89 3.5-4.09 4.64-8.48 2.6-10.62-2.95-3.1-6.73-2.08-10.08-1.13-12.73 3.6-22.81 11.15-32.35 22.28zm-46.64-54.8c-3.36.9-6.45 1.58-9.44 2.57-4.29 1.42-5 2.29-4.39 7.16 1.12 8.91 1.83 17.77.2 26.69-.12.64.18 1.39.39 2.06.38 1.18 1.45 1.54 2.51 1.58.64.03 1.63-.2 1.88-.64.85-1.52 1.66-3.13 2.1-4.81 2.36-8.98 4.63-17.99 6.86-27 .5-2.04 1.18-4.13-.11-7.6zm10.66 24.69c-2.88 2.88-3.25 6.05-3.88 9.1-.7 3.42-3.04 6.4-2.81 10.45 6.11 2.76 12.36 4.95 20.06 6.78-5.66-8.98-10.42-16.91-13.37-26.33z" fill="#1a1713" fill-rule="evenodd"/><path d="M425.57 786.87c4.56 6.87 8.74 13.97 13.95 20.44 8.87 11.01 19.8 19.75 30.5 28.77 6.58 5.56 13.25 11.02 19.76 16.65 2.07 1.79 1.83 3.69-.55 5.25-10.56 6.88-20.39 14.64-29.42 23.46-28.47 27.81-47.1 61.25-57.24 99.59-6.55 24.78-10.48 49.84-8.25 75.6.4 4.58-.61 5.46-5.55 5.68-15.49.7-30.89-.63-46.14-2.95-56.24-8.56-109.09-27.49-159.74-52.95-5.45-2.74-10.73-5.82-16.01-8.87-1.33-.77-1.78-2.22-.95-3.71.87-1.57 1.78-3.11 2.77-4.61 6.73-10.19 9.45-21.42 9.93-33.58 1.82-45.58-13.5-85.22-41.19-120.63-11.56-14.79-24.98-27.73-40.3-38.64-7.62-5.43-15.61-10.16-24.52-13.33-6.76-2.41-6.67-2.64-4.57-10.19 2.44.6 4.89 1.13 7.3 1.79 19.71 5.39 39.41 10.79 59.5 14.7 15.16 2.95 30.47 4.7 45.8 6.39 22.83 2.52 45.69 4.79 68.65 5.3 24.04.53 48.1.71 72.14.26 35.24-.66 70.16-4.25 104.13-14.41z" fill="#cb2228" fill-rule="evenodd"/><path d="M114.56 439.52c1.09 2.79-.66 3.95-1.4 5.43-2.1 4.16-4.22 8.32-6.55 12.35-.39.67-1.86.91-2.86 1-2.05.19-3.53 1.11-3.66 3.14-.12 1.91 1.15 3.28 2.77 4.3 2.77 1.73 5.76 2.81 8.88 3.75 9.31 2.82 18.86 4.59 28.44 5.93 43.22 6.06 86.66 7.16 130.15 4.16 28.03-1.94 55.44-7.45 82.12-16.62 16.53-5.68 31.09-14.71 45.25-24.6 2.33-1.63 4.91-3.36 4.1-6.87-.55-2.37-3.34-3.08-8.23-2.23-1.03.18-2.07.76-3.09-.54 2.67-7.13 5.38-14.4 8.18-21.89 1.33.97 2.11 1.79 3.06 2.21 9.96 4.4 15.01 12.85 18.9 22.41 4.9 12.04 7.9 24.57 10.32 37.29 3.21 16.92 7.91 33.57 9 50.87.36 5.76.26 11.46-.11 17.22-.79 12.2-6.64 20.84-17.1 26.9-12.17 7.04-24.85 12.88-38.1 17.5-21.1 7.36-42.86 11.9-64.91 15.21-16.71 2.51-33.5 4.3-50.35 5.47-8.24.57-16.53.9-24.77.73-39.23-.82-78.19-4.24-116.58-12.72-13.38-2.96-26.07-7.91-38.69-13.12-6.99-2.89-11.12-7.57-11.21-15.44-.03-2.86-.77-5.7-.92-8.57-1.28-23.68-2.52-47.37-2.62-71.11-.01-2.51.07-5.03.12-7.54.12-6.42 2.68-11.75 7.01-16.43 6.2-6.7 13.02-12.32 22.11-14.67 3.68-.95 7.24-2.34 10.78-3.5z" fill="#fcfcfc" fill-rule="evenodd"/><path d="M425.57 786.87c-33.97 10.16-68.89 13.75-104.13 14.41-24.04.45-48.1.27-72.14-.26-22.96-.51-45.82-2.78-68.65-5.3-15.33-1.69-30.64-3.44-45.8-6.39-20.08-3.9-39.78-9.31-59.5-14.7-2.42-.66-4.87-1.2-7.3-1.79.54-12.85 3.1-25.33 6.91-37.59 1.6-1.41 3.3-2.71 4.76-4.23 16.84-17.63 32.41-36.46 49.94-53.45.4-.39.31-1.29.6-2.69-13.4-3.24-26.83-6.5-40.26-9.75.84-7.64 2.17-15.16 5.36-22.24 44.73 13.34 90.68 18.39 137.1 20.04 28.4 1.01 56.72-.57 84.98-3.62 27.92-3.01 55.55-7.19 81.73-17.98 3.74-1.54 7.48-2.48 11.52-1.99.0 2.13.09 4.27.0 6.4-.34 9.16-2.47 18.15-1.92 27.45.55 9.24-.09 18.54-.2 27.8-4.15.04-6.45-2.71-8.58-5.68-2.29-3.2-4.48-6.48-6.84-9.64-.78-1.05-2.17-.72-2.68.19-1.21 2.18-2.16 4.52-3.11 6.83-6.41 15.61-12.69 31.26-19.24 46.81-2.64 6.28-5.65 12.42-8.83 18.43-3.39 6.4-7.73 12.1-13.89 16.19-1.06.71-2.49 1.48-.9 3.75 10.36-1.1 21.06-2.17 31.74-3.39 13.94-1.61 27.44-5.41 41.1-8.41 2.74 6.92 5.47 13.85 8.21 20.77zm-215.68-11.91c17.54 3.95 96.52 5.94 113.38 2.85-.02-.31.07-.82-.08-.91-9.71-5.41-16.19-13.9-22.17-22.95-8.72-13.19-17.58-26.29-26.51-39.34-3.02-4.41-5.96-9.01-10.76-11.72-2.4.6-3.87 2.21-5.14 3.9-4.73 6.33-9.43 12.69-14.01 19.13-11.24 15.81-21.55 32.29-34.28 47.02-.39.46-.3 1.33-.43 2.01zm159.86-99.66c-1.65-.44-2.01-.66-2.32-.61-27.48 5.34-55.23 8.5-83.17 10.1-1.4.08-2.87.09-3.05 2.43 6.16 6.18 11.24 13.56 16.25 20.99 8.02 11.89 15.99 23.81 24.03 35.69 2.41 3.56 4.73 7.21 8.24 9.84 1.59 1.19 3.32 1.39 4.82-.08 1.26-1.24 2.6-2.54 3.43-4.07 2.91-5.35 5.96-10.65 8.32-16.24 7.25-17.17 14.22-34.45 21.26-51.7.8-1.96 1.39-4.02 2.19-6.34zm-281.15 79.42c21.45 6.16 41.17 11.23 61.35 14.36 6.37.99 12.79 1.67 19.21 2.33 2.23.23 3.19-1.2 2.63-3.39-.27-1.04-.57-2.08-.94-3.08-6.38-17.52-12.72-35.06-19.21-52.54-1.62-4.36-3.6-8.6-5.62-12.8-1.45-3.01-3.38-3.33-5.82-.71-16.83 18.1-33.56 36.29-51.6 55.84zm75.04-73.89c-.9 1.73-.35 3.02.36 4.31 5.21 9.48 8.85 19.61 12.49 29.76 4.6 12.84 9.51 25.56 14.08 38.41 1.26 3.55 3.29 4.17 6.01.7 3.99-5.09 8.03-10.14 11.77-15.41 11.66-16.38 22.5-33.35 35.1-49.06.58-.72.97-1.9.87-2.8-.15-1.3-1.52-1.33-2.55-1.33-24.82.0-49.51-1.98-74.15-4.74-1.39-.16-2.83.1-3.99.15z" fill="#fcfcfc" fill-rule="evenodd"/><path d="M141.3 245.23c-1.45-7.05 1.97-11.72 7.57-15.23 19.11-12 40.98-6 52.21 8.79 8.45 11.13 8.47 23.31 3.21 35.71-7.25 17.1-20.75 27.36-38.03 32.51-21.92 6.53-41.39.84-57.62-14.71-14.84-14.21-22.73-31.92-23.93-52.66-1.18-20.57 4.12-39.13 16-55.84 10.69-15.05 23.18-28.37 38.32-39.07 8.58-6.06 18.03-10.34 27.87-13.94 5.69-2.09 10.96-1.98 16.61.28 26.17 10.47 47.26 27.09 62.18 51.15 31.06 50.11 23.64 115.18-18.63 156.54-26.9 26.33-59.84 38.39-97.27 34.99-60.75-5.53-102.17-50.49-111.64-100.99-10.33-55.1 16.27-106.27 57.82-131.89 22.07-13.61 46.19-19.31 72.13-16.64-1.6 1.15-3.2 2.3-4.8 3.46-32.52 9.95-57.91 29.87-77.67 56.97-16.79 23.02-25.96 48.91-23.29 77.76 2.71 29.25 14.89 53.82 39.36 71.17 25.07 17.78 53.01 25.1 83.57 21.29 36.76-4.59 62.28-24.08 75.79-58.72 6.52-16.7 8.1-34.06 6.39-51.87-1.7-17.71-7.66-33.61-19.41-46.98-18.82-21.42-42.93-30.34-70.7-25.27-38.34 7-58.94 41.95-51.66 79.03 2.04 10.39 7.04 19.58 14.68 27.1 20.52 20.19 52.84 10.92 64.41-8.6 1.09-1.84 2.07-3.81 2.75-5.83 5.54-16.43-4.81-29.05-21.05-29.35-2.12-.04-4.24.66-6.36.93-7.52.94-12.8 6.11-18.81 9.91z" fill="#63a830" fill-rule="evenodd"/><path d="M409.01 1059.98c1.36-33.49 3.5-65.92 14.62-97.14 14.03-39.39 38.47-70.94 71-96.63 1.68-1.33 3.58-2.37 5.29-3.48 2.97.1 4.41 2.33 6.14 3.97 8.32 7.94 16.11 16.36 23.12 25.49 14.71 19.12 20.68 40.66 17.94 64.62-1.24 10.85-4.97 20.89-10.2 30.39-10.25 18.61-24.45 33.53-42.31 45-20.49 13.16-42.88 21.46-66.71 25.99-5.9 1.12-11.77 2.98-18.88 1.8z" fill="#fcfcfc" fill-rule="evenodd"/><path d="M410.69 639.36c-4.04-.49-7.78.45-11.52 1.99-26.18 10.79-53.81 14.98-81.73 17.98-28.26 3.04-56.58 4.63-84.98 3.62-46.42-1.65-92.37-6.7-137.1-20.04 1.69-14.62 5.59-28.79 8.11-42.86 2.78-1.44 4.71-.02 6.68.61 23.31 7.5 47.33 11.63 71.45 15.48 26.02 4.15 52.17 4.59 78.41 4.22 17.28-.24 34.38-2.5 51.41-4.91 18.81-2.67 37.57-5.86 55.9-11.15 15.91-4.59 31.42-10.13 46.2-17.66 1.58-.8 3.25-1.43 5.63-2.46.41 6.67-2.28 12.16-3.24 17.92-1.05 6.37-2.01 12.76-2.9 19.15-.84 6.03-1.55 12.09-2.31 18.13z" fill="#cb2228" fill-rule="evenodd"/><path d="M64.49 791.05c4.52.44 7.15 2.41 9.73 4.22 38.85 27.11 67.76 61.74 81.18 107.97 8.05 27.75 6.92 55.34-1.75 82.74-.29.93-1.31 1.64-2.19 2.7-22.14-13.04-42.84-27.71-59.81-47.18-20.6-23.64-31.4-51.1-32.43-82.46-.75-22.71 1.67-45.15 5.27-67.99z" fill="#fcfcfc" fill-rule="evenodd"/><path d="M262.7 464.8c-.79-1.81-.44-3.12.19-4.47 9.26-19.81 18.29-39.73 27.8-59.42 14.67-30.36 27.49-61.52 40.6-92.56.7-1.65 1.23-3.37 1.94-5.02 1.12-2.59 2.37-3.23 5.03-2.14 19.55 8.07 39.17 15.97 58.06 25.55 3.95 2.01 4.69 4.7 4.28 8.67-.89 8.6-3.02 16.95-5.09 25.29-4.67 18.81-10.62 37.22-17.91 55.19-2.16 5.33-4.42 10.7-4.58 16.49-.1 3.55-1.87 5.06-4.7 6.27-19.15 8.19-38.72 15.14-59.09 19.68-13.67 3.05-27.48 5.19-41.42 6.45-1.75.16-3.54.02-5.12.02zm122.76-120.59c.13-7.66-5.47-13.86-12.97-14.33-8.15-.51-15.51 6.24-15.51 14.23.0 7.67 5.65 13.23 13.59 13.39 8.61.17 14.75-5.31 14.89-13.29zm-82.24 73.67c-.39 6.86 6.89 13.73 13.96 13.51 7.44-.24 13.74-6.64 13.89-13.83.17-7.89-6.33-13.92-14.65-13.61-7.79.29-13.39 6.21-13.2 13.93z" fill="#ffce00" fill-rule="evenodd"/><path d="M141.3 245.23c6-3.81 11.28-8.98 18.81-9.91 2.13-.27 4.25-.97 6.36-.93 16.24.3 26.6 12.92 21.05 29.35-.68 2.02-1.66 3.99-2.75 5.83-11.57 19.52-43.9 28.79-64.41 8.6-7.65-7.52-12.64-16.7-14.68-27.1-7.28-37.08 13.32-72.03 51.66-79.03 27.76-5.07 51.87 3.85 70.7 25.27 11.75 13.37 17.71 29.27 19.41 46.98 1.71 17.81.13 35.17-6.39 51.87-13.51 34.64-39.03 54.13-75.79 58.72-30.55 3.81-58.5-3.51-83.57-21.29-24.47-17.35-36.65-41.92-39.36-71.17-2.67-28.85 6.5-54.74 23.29-77.76 19.76-27.1 45.15-47.02 77.67-56.97.85.8 1.71 1.6 2.56 2.41-18.39 8.86-33.33 22.27-47.81 36.29-2.51.61-4.37 1.85-4.47 4.73l.07-.09c-1.57.0-2.37.69-2.11 2.34l.06-.07c-1.65-.07-2.45.61-2.09 2.34l.04-.05c-3.62.65-3.96 1.03-4.13 4.55l.03-.03c-2.19-.54-3.21 1.13-4.35 2.42-11.36 12.86-19.28 27.6-24.22 44.03-4.77 15.86-5.54 31.83-1.71 47.9 5.69 23.83 18.45 42.61 39.91 55.12 20.19 11.77 41.85 16.56 65.15 14.89 35.18-2.53 61.47-23.13 72.35-56.76 4.41-13.63 4.84-27.53 4-41.58-.98-16.36-6.76-30.9-17.83-42.97-16.37-17.83-37.1-25.02-60.56-20.2-33.21 6.82-47.82 37.39-41.78 66.13 1.57 7.49 5.01 14.23 10.19 19.96 14.91 16.5 39.75 9.47 48.56-4.57.57-.91 1.04-1.89 1.48-2.87 1.84-4.16 2.5-8.41-.57-12.22-2.98-3.69-7.25-4.55-11.71-3.86-6.25.97-11.6 3.65-15.38 9-2.5 3.55-4.49 7.32-5.84 11.47-.46 1.43-1.94-.03-2.82.52-.25-4.11-.48-8.21-.76-12.32-.22-3.15.26-6.15 1.74-8.96z" fill="#fcfcfc" fill-rule="evenodd"/><path d="M140.32 266.51c.89-.55 2.36.91 2.82-.52 1.35-4.15 3.33-7.92 5.84-11.47 3.77-5.35 9.13-8.03 15.38-9 4.46-.69 8.73.17 11.71 3.86 3.08 3.81 2.41 8.05.57 12.22-.43.98-.91 1.96-1.48 2.87-8.82 14.03-33.66 21.07-48.56 4.57-5.17-5.72-8.62-12.46-10.19-19.96-6.04-28.74 8.57-59.31 41.78-66.13 23.47-4.82 44.2 2.38 60.56 20.2 11.08 12.06 16.85 26.61 17.83 42.97.84 14.05.41 27.95-4 41.58-10.88 33.63-37.17 54.23-72.35 56.76-23.3 1.67-44.96-3.11-65.15-14.89-21.46-12.51-34.23-31.29-39.91-55.12-3.83-16.07-3.07-32.04 1.71-47.9 4.94-16.43 12.86-31.17 24.22-44.03 1.14-1.29 2.15-2.96 4.35-2.42 1.68 3.67-1.19 6.08-2.68 8.69-5.39 9.45-9.4 19.41-11.19 30.13-6.12 36.67 3.09 68.63 31.1 93.68 27.79 24.86 66.02 26.08 97.31 3.88 16.56-11.75 26.91-27.48 30.8-47.54 5.13-26.48-10.24-53.57-37.68-62.4-19.42-6.25-37.62-2.68-53.9 9.79-9.73 7.45-13.51 17.44-11.84 29.43.84 6.02 2.17 11.99 3.43 17.95.37 1.73 1.14 3.41 1.95 4.99 1.46 2.82 4.22 2.65 6.5-.34.43-.56.71-1.24 1.06-1.86z" fill="#63a830" fill-rule="evenodd"/><path d="M444.42 92.37c-1.55-2.16-3.16-4.44-4.8-6.7-7.23-9.98-17.33-14.8-29.33-15.7-6.78-.51-13.63-.62-20.26 1.58-4.39 1.46-8.03.43-12.02-2.27-8.92-6.05-18.79-10.42-28.89-14.2-3.71-1.38-7.47-2.5-11.46-2.77-1.37-.09-3.12-.15-3.31-1.96-.16-1.53 1.19-2.46 2.3-3.33 18.31-14.32 38.28-25.54 61.33-29.76 19.69-3.62 39.48-3.4 57.78 6.15 16.55 8.63 15.8 7.81 10.52 24.62-4.41 14.05-10.7 27.36-17.97 40.18-.88 1.55-1.57 3.26-3.91 4.17z" fill="#cb2228" fill-rule="evenodd"/><path d="M264.98 317.46c5.39-11.72 10.5-23.55 13.01-36.31.57-2.89 2.45-3.17 4.7-2.24 9.25 3.85 18.61 7.47 27.94 11.14 1.98.78 4.1 1.28 5.44 3.39-32.71 48.74-65.26 97.66-96.31 149.26-4.04-9.49-5.87-18.1-7.83-26.67 2.82-.61 5.52-1.53 7.66-3.54 4.38-4.12 5.17-9.31 3.52-14.73-1.59-5.22-5.47-8.32-11.01-8.63-2.8-.16-5.64.44-8.46.7-6.39-12.4-5.23-10.11 4.62-15.53 13.84-7.62 26.04-17.3 36.72-28.92 1.91-2.08 3.91-4.06 5.87-6.09 2.05 1.42 3.92 3.27 6.18 4.18 5.5 2.22 12.26.66 15.82-3.51 3.53-4.15 4.26-8.91 2.39-14.07-1.76-4.87-5.34-7.44-10.27-8.41z" fill="#ffce00" fill-rule="evenodd"/><path d="M342.97 106.32c.06.35.29.81.15 1.05-11.36 19.27-18.74 40.17-25.49 61.37-3.88 12.18-2.15 10.69-14.28 11.81-11.03 1.02-21.81 4-32.5 7.03-4.74 1.35-6.92-.07-6.93-4.91-.01-5.72-.03-11.57 1.08-17.14 3.29-16.58 8.9-32.42 16.12-47.73 2.11-4.47 5.29-6.15 9.95-6.84 16.66-2.46 33.39-4.18 50.16-5.51.56-.04 1.16.57 1.75.88z" fill="#cb2228" fill-rule="evenodd"/><path d="M417.35 766.1c-13.66 2.99-27.16 6.8-41.1 8.41-10.68 1.23-21.38 2.29-31.74 3.39-1.59-2.27-.16-3.05.9-3.75 6.16-4.09 10.51-9.79 13.89-16.19 3.18-6.02 6.19-12.16 8.83-18.43 6.54-15.55 12.83-31.2 19.24-46.81.95-2.32 1.9-4.65 3.11-6.83.51-.92 1.9-1.24 2.68-.19 2.36 3.15 4.55 6.43 6.84 9.64 2.13 2.98 4.43 5.73 8.58 5.68.04 16.01 1.51 31.88 4.66 47.57 1.18 5.88 2.73 11.69 4.11 17.53z" fill="#cb2228" fill-rule="evenodd"/><path d="M211.71 466.85c-11.24.0-21.26.03-31.27-.03-1.8-.01-3.73-.34-3.96-2.67-1.68-16.87-7.53-32.76-11.49-49.09-1.68-6.95-4.13-13.71-6.13-20.59-.77-2.65.12-4.16 2.91-4.53 8.21-1.08 16.11-3.38 24.02-5.74 2.5-.75 3.74.02 4.57 2.83 1.41 4.81 2.69 9.66 4.03 14.49 5.15 18.64 10.32 37.27 15.41 55.93.74 2.72 1.15 5.54 1.93 9.39z" fill="#dfdbd1" fill-rule="evenodd"/><path d="M510.13 115.72c-.45 11.26-1.98 22.19-7.54 32.22-3.44 6.21-8.32 10.7-14.92 13.37-4.21 1.71-8.33 1.78-12.55.08-12.55-5.07-18.86-14.89-21.18-27.74-.54-2.97 1.28-4.56 3.59-5.96 12.68-7.73 23.51-17.69 33.6-28.47 3.67-3.92 6.97-8.2 10.47-12.28 1.81-2.11 3.61-1.64 4.48 1.22 2.73 9 3.79 18.23 4.04 27.56z" fill="#cb2228" fill-rule="evenodd"/><path d="M258.15 402.68c.23-.67.35-1.41.73-1.99 16.54-25.21 33.1-50.41 49.69-75.59 2.08-3.15 4.67-4.66 5.54-3.45 1.58 2.19.13 4.13-.71 5.94-10.26 22.13-20.33 44.36-31.01 66.28-11 22.58-22.51 44.9-32.17 68.11-1.24 2.98-2.73 4.8-6.18 4.77-6.76-.06-13.52.55-20.43.23-.52-2.36-.82-4.11-1.3-5.81-1.17-4.12-.24-7.48 2.46-10.95 6.16-7.89 11.87-16.13 17.77-24.22 1.19.74 2.37 1.51 3.57 2.24 5.78 3.52 13.84-.4 16.9-4.69 3.86-5.4 3.95-10.96-.21-16.62-1.22-1.66-3.08-2.85-4.65-4.26z" fill="#ffce00" fill-rule="evenodd"/><path d="M289.9 101.86c.7-1.86 1-3.26 1.69-4.42 7.3-12.43 16.27-23.54 26.3-33.87 3.06-3.15 6.3-4.16 10.5-4.06 5.1.12 10.04 1.05 14.75 2.67 9.82 3.38 19.32 7.58 28.48 12.5.87.47 1.46 1.47 2.65 2.72-7.99 5.16-15.11 10.99-21.41 17.77-1.54 1.66-3.6 2.13-5.87 2.07-3.58-.1-7.17-.06-10.75-.04-14.01.06-27.91 1.12-41.62 4.19-1.34.3-2.75.29-4.72.48z" fill="#fcfcfc" fill-rule="evenodd"/><path d="M478.34 40.34c9.31 8.46 15.47 18.31 20.77 28.8 1.09 2.15.63 4.13-.73 6.01-1.46 2.03-2.8 4.16-4.33 6.13-11.7 15.05-25.3 28.13-41.15 39.73-3.73-5.68-2.62-12.08-4.48-17.65-.59-1.77 1.21-3.25 2.28-4.65 9.38-12.36 16.1-26.17 21.82-40.48 2.23-5.59 3.75-11.45 5.82-17.9z" fill="#fcfcfc" fill-rule="evenodd"/><path d="M90.01 665.15c13.43 3.25 26.86 6.51 40.26 9.75-.29 1.39-.2 2.3-.6 2.69-17.53 16.99-33.1 35.82-49.94 53.45-1.46 1.53-3.17 2.83-4.76 4.23.02-1.42-.21-2.89.08-4.26 4.31-19.91 8.69-39.81 13.09-59.7.46-2.09 1.24-4.11 1.87-6.16z" fill="#cb2228" fill-rule="evenodd"/><path d="M311.32 187.58c-3.94 9.99-7.41 18.94-11.05 27.81-.49 1.21-1.66 2.67-2.8 2.99-6.14 1.69-11.97 4.68-18.88 4.94-1.84-5.89-3.5-11.67-5.44-17.37-3.91-11.46-5.37-10.2 7.01-12.58 9.78-1.88 19.29-5.22 31.17-5.79z" fill="#fcfcfc" fill-rule="evenodd"/><path d="M133.43 436.11c4.47-9.75 10.08-18.85 16.04-29.66 6.51 20.2 9.8 39.54 15.55 58.73-5.45 1.37-10.34-.18-15.19-.43-4.59-.23-9.34.37-13.77-1.58 3.33-.81 7.03.03 9.91-2.81 7.37-7.27 4.61-20.15-5.21-23.26-2.31-.73-4.87-.68-7.32-.99z" fill="#ffce00" fill-rule="evenodd"/><path d="M133.43 436.11c2.45.31 5.01.25 7.32.99 9.82 3.11 12.59 15.99 5.21 23.26-2.88 2.84-6.58 2.01-9.91 2.81-5.7-.12-11.23-1.07-16.7-3.47 4.2-8.22 8.48-16.29 14.07-23.59z" fill="#fcfcfc" fill-rule="evenodd"/><path d="M264.98 317.46c4.93.97 8.51 3.54 10.27 8.41 1.87 5.16 1.14 9.93-2.39 14.07-3.55 4.17-10.32 5.73-15.82 3.51-2.25-.91-4.13-2.76-6.18-4.18 4.71-7.27 9.41-14.54 14.11-21.82z" fill="#fcfcfc" fill-rule="evenodd"/><path d="M258.15 402.68c1.57 1.41 3.43 2.6 4.65 4.26 4.15 5.66 4.07 11.22.21 16.62-3.06 4.28-11.13 8.2-16.9 4.69-1.2-.73-2.38-1.49-3.57-2.24 4.13-8.5 9.43-16.21 15.62-23.33z" fill="#fcfcfc" fill-rule="evenodd"/><path d="M293.96 228.12c1.3 3.46.62 5.55.11 7.6-2.23 9.02-4.5 18.02-6.86 27-.44 1.68-1.25 3.29-2.1 4.81-.25.44-1.24.67-1.88.64-1.06-.04-2.12-.4-2.51-1.58-.22-.66-.51-1.41-.39-2.06 1.63-8.92.91-17.78-.2-26.69-.61-4.87.1-5.73 4.39-7.16 2.99-1 6.08-1.67 9.44-2.57z" fill="#cb2228" fill-rule="evenodd"/><path d="M203.65 389.82c2.82-.26 5.66-.86 8.46-.7 5.54.31 9.42 3.41 11.01 8.63 1.65 5.42.86 10.62-3.52 14.73-2.14 2.01-4.84 2.93-7.66 3.54-3.42-8.52-6.41-17.19-8.28-26.2z" fill="#fcfcfc" fill-rule="evenodd"/><path d="M145.86 130.1c-.85-.8-1.71-1.6-2.56-2.41 1.6-1.15 3.2-2.31 4.8-3.46 3.05-.42 6.11-1.09 10.12.69-4.33 2.83-8.16 4.4-12.36 5.17z" fill="#c8dda0" fill-rule="evenodd"/><path d="M323.54 305.21c-.84 3.12-1.8 6.17-4.03 8.64-1.08-.1-2.15-.2-3.22-.3.58-3.31 2.87-5.69 4.58-8.37.89.01 1.78.02 2.67.03z" fill="#da9053" fill-rule="evenodd"/><path d="M316.29 313.55c1.07.1 2.15.2 3.22.3-.12.32-.22.65-.37.97-2.65 5.69-4.46 7.5-5.38 5.73-1.64-3.13 1.22-4.82 2.53-6.99z" fill="#ffce00" fill-rule="evenodd"/><path d="M85.44 180.13c.17-3.53.51-3.91 4.13-4.55-.38 4.13-.52 4.28-4.13 4.55z" fill="#63a830" fill-rule="evenodd"/><path d="M93.58 171.11c.1-2.89 1.95-4.12 4.47-4.73-.46 2.55-1.71 4.35-4.47 4.73z" fill="#63a830" fill-rule="evenodd"/><path d="M323.54 305.21c-.89.0-1.78-.02-2.67-.03.58-2.02 1.34-3.9 3.53-4.71l.56.46c.18 1.64.13 3.21-1.42 4.28z" fill="#b35530" fill-rule="evenodd"/><path d="M324.4 300.47c.19-.69.33-1.39.58-2.05.12-.31.54-.8.66-.76.81.29 1.13.98.71 1.74-.33.59-.92 1.03-1.39 1.53l-.56-.46z" fill="#b35530" fill-rule="evenodd"/><path d="M91.55 173.36c-.26-1.65.54-2.34 2.11-2.34.15 1.55-.46 2.41-2.11 2.34z" fill="#63a830" fill-rule="evenodd"/><path d="M89.52 175.63c-.36-1.72.44-2.41 2.09-2.34.2 1.58-.32 2.51-2.09 2.34z" fill="#63a830" fill-rule="evenodd"/><path d="M209.88 774.96c.13-.68.04-1.55.43-2.01 12.73-14.72 23.04-31.21 34.28-47.02 4.58-6.44 9.28-12.8 14.01-19.13 1.27-1.69 2.74-3.3 5.14-3.9 4.8 2.71 7.74 7.31 10.76 11.72 8.93 13.05 17.79 26.15 26.51 39.34 5.98 9.05 12.46 17.53 22.17 22.95.15.08.06.59.08.91-16.87 3.08-95.85 1.1-113.38-2.85z" fill="#cb2228" fill-rule="evenodd"/><path d="M369.75 675.3c-.8 2.33-1.39 4.38-2.19 6.34-7.04 17.25-14.01 34.54-21.26 51.7-2.36 5.59-5.41 10.9-8.32 16.24-.83 1.53-2.17 2.83-3.43 4.07-1.5 1.47-3.23 1.27-4.82.08-3.51-2.63-5.84-6.29-8.24-9.84-8.04-11.88-16.01-23.8-24.03-35.69-5.01-7.43-10.08-14.81-16.25-20.99.18-2.34 1.66-2.35 3.05-2.43 27.94-1.6 55.68-4.76 83.17-10.1.31-.06.66.16 2.32.61z" fill="#cb2228" fill-rule="evenodd"/><path d="M88.59 754.72c18.04-19.55 34.77-37.74 51.6-55.84 2.44-2.62 4.36-2.31 5.82.71 2.02 4.19 4 8.44 5.62 12.8 6.48 17.48 12.82 35.02 19.21 52.54.37 1.01.67 2.04.94 3.08.56 2.19-.4 3.62-2.63 3.39-6.42-.66-12.84-1.34-19.21-2.33-20.17-3.13-39.89-8.2-61.35-14.36z" fill="#cb2228" fill-rule="evenodd"/><path d="M163.64 680.83c1.16-.05 2.59-.31 3.99-.15 24.64 2.76 49.33 4.73 74.15 4.74 1.03.0 2.4.03 2.55 1.33.1.9-.28 2.08-.87 2.8-12.6 15.71-23.44 32.68-35.1 49.06-3.74 5.26-7.78 10.32-11.77 15.41-2.72 3.47-4.75 2.84-6.01-.7-4.57-12.85-9.49-25.57-14.08-38.41-3.63-10.15-7.27-20.28-12.49-29.76-.71-1.29-1.26-2.58-.36-4.31z" fill="#cb2228" fill-rule="evenodd"/><path d="M385.46 344.21c-.14 7.98-6.28 13.46-14.89 13.29-7.93-.15-13.58-5.72-13.59-13.39.0-7.99 7.35-14.74 15.51-14.23 7.5.47 13.1 6.66 12.97 14.33z" fill="#fcfcfc" fill-rule="evenodd"/><path d="M303.22 417.88c-.19-7.73 5.41-13.64 13.2-13.93 8.32-.31 14.82 5.72 14.65 13.61-.15 7.19-6.46 13.59-13.89 13.83-7.06.23-14.35-6.65-13.96-13.51z" fill="#fcfcfc" fill-rule="evenodd"/></g></g></g></svg>