<svg xmlns="http://www.w3.org/2000/svg" width="1046.87" height="1080" viewBox="0 0 1046.87 1080"><g id="a"/><g id="b"><g id="c"><g id="d"><path d="M344.2 387.11c-1.8-.65-3.63-1.18-5.89-1.91-.56-4.75-1.44-9.41-1.6-14.09-.87-26.57-1.6-53.14-2.31-79.71h0l-1.01-35.36c0-.17-.03-.34-.03-.51-.54-40.4-4.52-80.58-7.68-120.82-.15-1.86.07-3.75.13-6.03 4.16-.69 8.01-1.17 11.79-2.01 3.23-.72 6.48-1.59 9.5-2.91 3.12-1.37 3.61-4.09 1.76-6.89-2.65-4-6.54-6.07-11.16-6.52-19.8-1.95-39.5-1.11-59.03 2.69-2.67.52-5.21 1.85-7.69 3.06-1.56.76-2.14 2.96-1.06 4.33 1.51 1.91 3.18 3.92 5.23 5.14 2.08 1.24 4.66 1.76 7.09 2.26 3.49.72 7.05 1.14 10.59 1.69 1.59 3.19 1.03 6.3 1.07 9.28.3 20.04.37 40.08.78 60.12.42 20.32 1.26 40.62 1.71 60.94.35 15.58.28 31.18.57 46.76.45 23.93 1.06 47.86 1.58 71.79.03 1.35-.22 2.72-.35 4.26-1.17.39-2.17.87-3.22 1.06-2.47.43-4.99.56-7.43 1.1-4.1.9-5.34 3.78-3.35 7.52 1.77 3.32 4.4 5.84 8.02 6.91 3.72 1.11 7.52 2.21 11.35 2.63 11.37 1.25 22.79 1.37 34.19.27 3.59-.35 7.15-1.12 10.68-1.9 2.08-.46 3.22-2.46 2.78-4.47-.87-4.04-2.91-7.2-6.98-8.67z" fill="#e8eae8"/><path d="M552.94 199.28c-4.88-9.53-18-22.04-34.79-23.91-29.08-3.25-50.22 27.53-51.41 29.31-.79-1.99-15.1-36.48-44.22-39.33-16.81-1.64-32.24 7.88-38.99 16.19-34.11 42.02 60.12 168.41 67.05 177.57 8.68-7.53 127.04-111.67 102.37-159.84z" fill="#dd2638"/><path d="M199.94 498.09c1.5-2.23 1.97-3.93 2.56-5.58 3.96-10.95 8.97-21.38 15.26-31.19 3.75-5.85 7.98-11.31 12.87-16.25 4.07-4.12 8.8-7.18 14.44-8.77 4.85-1.36 9.65-1.29 14.45.11 7.12 2.08 12.11 6.49 14.65 13.52 1.6 4.44 2.37 9.03 2.54 13.75.32 8.58-.31 17.13-1.85 25.54-3.43 18.81-7.05 37.59-10.86 56.32-2.93 14.36-5.79 28.73-7.59 43.27-1.18 9.49-2.22 19.02-1.73 28.61.19 3.64.7 7.29 1.29 10.89.21 1.27 1.12 2.43 1.84 3.91 3.49-1.48 5.46-4.04 7.32-6.68 4.34-6.18 7.81-12.86 11.13-19.63 3.77-7.67 7.61-15.3 11.58-22.86 2.08-3.96 4.41-7.79 6.81-11.57 1.36-2.13 2.04-4.29 2.21-6.83.48-7.31 1.07-14.61 1.87-21.89 1.25-11.43 4.54-22.34 9.66-32.6 2.25-4.52 5.04-8.87 8.13-12.86 9.14-11.79 21.61-17.6 36.24-18.95 6.59-.61 13.05.4 18.98 3.5 8.02 4.19 11.96 10.87 11.23 19.94-.21 2.57-1.07 5.19-2.13 7.55-2.8 6.19-6.89 11.48-12 16-9.31 8.25-20.06 13.81-31.94 17.31-1.56.46-3.13.87-4.66 1.29-1.51 2-1.38 4.31-1.61 6.5-2 18.51-.81 37 .63 55.47.42 5.37 2.22 10.27 5.06 14.87 4.08 6.61 11.65 7.43 17.59 3.94 3.39-1.99 6.19-4.65 8.12-8.11 2.81-5.03 4.7-10.39 5.21-16.15.58-6.51.68-13-.79-19.44-.53-2.33.13-3.34 2.29-4.29 10.03-4.4 22.88 3.8 22.87 14.72.0 2.6-.35 5.38-1.32 7.75-4.37 10.74-10.4 20.37-20.6 26.54-10.66 6.45-22.43 9.15-34.59 6.49-16.74-3.66-28.19-14.07-33.7-30.42-1.88-5.56-2.81-11.43-4.17-17.17-.27-1.15-.51-2.31-.93-4.2-1.07 1.26-1.76 1.88-2.23 2.65-3.93 6.44-7.19 13.22-9.98 20.23-2.33 5.86-4.76 11.68-7.2 17.5-.78 1.87-1.63 3.73-2.58 5.53-5.57 10.53-14.63 13.57-25.76 11.11-5.8-1.28-10.34-4.49-13.58-9.61-2.77-4.38-4.56-9.12-5.49-14.14-1.38-7.43-1.7-14.92-1.01-22.49 1.65-18.09 5.43-35.77 9.73-53.38 4.34-17.78 8.38-35.64 12.18-53.55 1.73-8.14 2.55-16.48 3.8-24.73.62-4.09.12-8.14-.68-12.13-.47-2.38-1.18-4.74-3.76-6.21-3.18.71-6 2.36-8.39 4.53-3.15 2.86-6.23 5.87-8.92 9.16-6.22 7.6-11 16.13-15.01 25.07-5.6 12.48-9.73 25.46-12.7 38.8-2.08 9.33-3.96 18.71-5.78 28.09-.5 2.58-.68 5.26-.64 7.89.21 12.41.56 24.82.83 37.24.23 10.18.46 20.35.59 30.53.03 2.63-.23 5.29-.53 7.91-.33 2.89-1.99 4.92-4.78 5.75-4.39 1.31-8.84 1.33-13.23-.02-3-.92-4.6-3.2-5.5-6.07-2.07-6.63-3.39-13.4-4.09-20.31-2.22-22.11-2.73-44.28-2.45-66.48.11-8.34.08-16.69.12-25.04.07-13.67 1.34-27.24 3.62-40.7.64-3.79 1.66-7.55 2.8-11.23 1.09-3.52 3.64-5.73 7.18-6.93 3.55-1.2 7.16-1.54 10.84-1.07 5.18.67 7.3 2.74 7.3 7.98.0 6.51-.45 13.01-.78 19.51-.15 3.05-.5 6.09-.7 9.13-.05.72.17 1.46.38 3.12zm133.32 38.48c.91-.19 1.72-.25 2.44-.53 6.08-2.38 11.81-5.42 17.06-9.31 4.77-3.53 8.81-7.8 12.16-12.71 3.3-4.84 4.84-10.24 4.88-16.07.03-4.32-1.7-7.89-4.93-10.71-4.37-3.81-9.49-3.92-13.73.0-1.91 1.76-3.56 3.93-4.85 6.2-2.3 4.05-4.38 8.24-6.29 12.5-3.33 7.45-5.54 15.25-6.71 23.33-.34 2.33-1.02 4.73-.02 7.31z" fill="#d64545"/><path d="M448.84 623.84c1.06-.65 2.38-1.21 3.4-2.12 3.06-2.72 5.64-5.85 7.71-9.41 3.92-6.72 6.86-13.84 9.02-21.3 2.84-9.78 5.01-19.71 7.05-29.68 1.64-8.01 2.62-16.02 2.35-24.23-.25-7.53.03-15.07 1.35-22.52.71-4.01 1.5-8 3.51-11.63 2.04-3.69 5.17-5.66 9.33-5.99 4.06-.32 6.79 1.14 8.02 5.07 1.09 3.46 1.67 7.12 2.09 10.74.52 4.44.77 8.93.91 13.4.41 12.86 2.73 25.48 4.67 38.16.61 4.02 1.41 8.02 2.07 12.03 1.89 11.51 5.57 22.5 9.72 33.35 1.62 4.23 3.86 8.09 7.23 11.19 1.77 1.63 3.02 1.87 4.89.42 2.24-1.73 4.47-3.58 6.3-5.72 6.16-7.21 10.4-15.56 13.5-24.45 5.38-15.41 9.11-31.22 11.1-47.45 1.96-15.98 2.97-32.02 3.61-48.09.28-6.91.44-13.83.61-20.75.03-1.4-.13-2.8-.2-4.1-.68-.53-1.09-1.04-1.63-1.23-8.33-3-15.7-7.72-22.87-12.77-11.59-8.16-20.45-18.59-25.6-31.93-4.48-11.58-5.11-23.39-1.54-35.31 1.3-4.34 3.29-8.32 7.23-11.01 6.62-4.51 13.52-5.29 20.78-1.73 4.29 2.11 7.67 5.34 10.66 8.99 6.38 7.79 11.05 16.59 14.8 25.87 4.92 12.17 7.62 24.87 8.76 37.92.14 1.6.35 3.2.51 4.73 2.46 1.14 4.6.32 6.74-.25 9.64-2.55 18.07-7.4 25.59-13.81 10.59-9.03 20.02-19.12 27.24-31.12.63-1.05 1.23-2.12 1.94-3.11 1.63-2.25 3.56-2.47 5.68-.61 2.52 2.2 4.27 4.97 5.12 8.17.67 2.54 1.24 5.18 1.31 7.79.34 12.83-3.77 23.98-12.98 33.1-9.43 9.34-20.99 14.49-33.76 17.3-6.63 1.46-13.33 1.61-20.06 1.35-2.23-.08-4.46-.19-6.97-.3-.25 1.36-.64 2.5-.65 3.65-.05 7.33.14 14.66-.03 21.99-.61 26.76-3.88 53.19-10.91 79.04-2.5 9.21-5.77 18.23-9.12 27.18-1.56 4.15-4.03 7.98-6.28 11.85-6.67 11.45-17.12 15.13-29.66 13.66-10.23-1.2-18.36-6.31-24.37-14.69-5.89-8.21-9.58-17.44-12.47-27.04-.58-1.93-1.13-3.87-1.97-6.74-.82 1.81-1.49 2.77-1.68 3.81-1.5 8.04-3.87 15.77-7.12 23.29-3.18 7.33-8.21 13.07-14.42 17.86-6.15 4.74-13.24 4.89-20.41 3.34-9.75-2.11-17.76-7.11-23.24-15.56-2.53-3.91-4.77-8.07-6.6-12.35-4.74-11.09-7.78-22.67-9.32-34.67-2.85-22.24-4.85-44.53-4.19-66.98.42-14.46 1.3-28.89 4.62-43.03.97-4.15 2.21-8.26 3.63-12.28.87-2.47 2.14-4.85 3.54-7.07 4.21-6.64 9.68-7.58 16.42-6.27 3.59.7 6.28 3.07 7.76 6.36 1.24 2.75 2.41 5.7 2.74 8.66.95 8.49 1.86 17.02 2.04 25.54.26 12.61.04 25.24-.3 37.86-.52 19.75-1.13 39.49-.4 59.24.45 12.01 1.62 23.96 3.55 35.83.79 4.86 2.1 9.54 4.67 13.79q1.41 2.33 4.96 4.77zm116.95-170.11c0-1.78.13-2.79-.02-3.75-.94-6.02-1.65-12.11-2.99-18.04-2.39-10.55-6.15-20.66-11.26-30.23-2.51-4.7-5.55-9.03-9.44-12.69-2.68-2.53-5.63-4.73-9.44-5.28-3.32-.48-4.92.28-6.53 3.21-1.71 3.1-2.35 6.48-2.48 9.98-.59 16.36 5.69 30.15 16.04 42.35 5.83 6.87 13.3 11.27 21.88 13.85 1.12.34 2.35.34 4.24.6z" fill="#d64545"/><g><path d="M141.49 857.58c4.29-1.76 6.39-5.09 8.49-8.26 4.14-6.25 8.2-12.56 12.03-19 10.31-17.37 21.42-34.17 34.66-49.48 1.81-2.1 2.65-4.35 2.74-7.03.14-4.13.26-8.27.53-12.4.91-13.93 1.57-27.88 2.91-41.77 1.27-13.16 4.83-25.89 9.1-38.38 2.8-8.18 7.41-15.34 13.32-21.64 4.53-4.83 10.09-7 16.73-6.48 6 .47 9.17 2.5 10.78 8.26 1.38 4.95 2.42 10.08 2.88 15.19 1.64 18.04 1.87 36.06.58 54.2-1.79 25.26-2.54 50.6-3.6 75.92-1.19 28.41-2.15 56.84-3.38 85.25-1.42 33.04-10.34 64.18-24.67 93.81-8.42 17.41-19.76 32.71-34.57 45.31-12.85 10.93-27.35 18.54-44.03 21.65-17.35 3.23-34.72 2.82-51.29-3.25-30.7-11.26-47.94-33.81-52.62-66.07-.85-21.77 6.61-39.41 25.41-51.53 12.14-7.82 25.67-10.81 39.8-11.3 16.98-.59 33.5 2.24 49.38 8.3 9.43 3.6 18.54 7.9 27.2 13.13 1.71 1.03 3.53 1.87 5.37 2.83 3.77-11.66 10.44-125.53 8.54-143.78-2.07-.46-2.56 1.35-3.36 2.5-8.74 12.53-16.43 25.69-23.64 39.14-2.93 5.46-5.8 10.98-9.12 16.21-8.13 12.79-21.49 17-35.72 11.61-4.91-1.86-9.17-4.74-12.99-8.29-6.17-5.73-10.71-12.58-13.86-20.35-4.5-11.1-7.25-22.6-7.99-34.59-.99-16.05-.36-32.04 1.32-48.01 1.57-14.91 3.32-29.81 4.57-44.74 1.4-16.77 1.66-33.56-.44-50.33-.84-6.67-1.1-13.41-2.17-20.04-.82-5.06-2.26-10.06-3.84-14.95-1.2-3.71-3.56-6.87-6.39-9.61-7.08-6.86-15.53-8.04-24.14-3.2-5.02 2.82-9.2 6.65-12.7 11.23-4.27 5.58-7.66 11.67-10.31 18.16-12.42 30.36-12.29 60.94-1.25 91.59 3.44 9.55 8.76 18.16 14.91 26.2 7.08 9.25 14.65 18.06 24.15 25.02 3.01 2.21 2.99 4.97-.07 6.87-2.16 1.35-4.56 2.58-7.02 3.16-23.55 5.59-49.02-5.06-58.91-27.57-5.49-12.49-8.43-25.59-8.78-39.1-.79-31.09 6.12-60.53 20.47-88.15 3.59-6.91 8.15-13.21 13.38-18.97 6.18-6.82 13.46-12.18 22.35-14.84 11.6-3.46 22.98-2.53 34 2.6 21.06 9.79 35.22 25.81 42.96 47.58 8.27 23.27 10.93 47.23 8.62 71.79-1.8 19.04-3.84 38.07-5.15 57.15-1.24 18.06-1.48 36.18 1.06 54.19.68 4.8 1.59 9.55 3.75 14.28zm45.21 108.52c-10.72-9.9-21.94-17.63-34.32-23.63-12.43-6.02-25.54-9.71-39.41-10.36-26.13-1.23-47.2 17.67-48.39 43.76-1.08 23.55 9.32 41.77 27.21 56.24 4.87 3.95 10.46 6.57 16.42 8.46 13.33 4.23 25.93 2.9 37.85-4.63 7.51-4.74 14.11-10.42 19.44-17.53 11.59-15.45 16.98-33.38 21.21-52.3z" fill="#e8eae8"/><path d="M485.08 867.9c4.8-1.83 7.61-4.87 9.82-8.38 3.16-5.03 6.34-10.08 8.98-15.39 7.03-14.11 13.77-28.37 20.62-42.57 9.1-18.86 18.43-37.62 29.64-55.34 3.72-5.88 8.06-11.39 12.35-16.88 1.64-2.09 3.02-4.04 3.29-6.79.3-3.08 1.03-6.11 1.47-9.18.77-5.31 3.88-8.01 9.07-9.13 16.68-3.6 32.37 6.17 35.65 22.79 1.04 5.28 1.34 10.77 1.42 16.18.22 16.05-1.24 32.03-2.36 48.02-1.18 16.75-3.01 33.49-2.09 50.34.37 6.79 1.84 13.31 4.16 19.64 2.48 6.79 7.49 10.91 14.39 12.95 2.88.85 5.14.07 6.96-2.03 1.17-1.35 2.26-2.89 2.92-4.53 1.15-2.86 2.26-5.8 2.83-8.82 2.97-15.6 2.33-30.86-4.69-45.46-.86-1.79-2.49-3.44-1.55-5.92 3.48-1.77 6.97-.81 10.32.6 5.89 2.48 10.67 6.41 13.74 12.05 3.79 6.97 5.68 14.55 4.67 22.44-1.41 11.05-5.98 20.8-13.62 29-6.9 7.41-15.7 11.04-25.55 11.46-26.24 1.12-44.38-10.63-54.94-33.74-4.34-9.5-6.86-19.54-7.69-29.9-.68-8.49-.99-17.05-.76-25.56.3-11.1 1.34-22.18 1.96-33.28.15-2.73 1.02-5.53.08-8.12-1.65-.57-2.22.5-2.74 1.26-2.17 3.21-4.55 6.33-6.29 9.77-5.98 11.75-11.87 23.54-17.52 35.45-9.3 19.61-18.34 39.35-27.61 58.98-1.76 3.73-3.81 7.37-6.16 10.75-8.78 12.63-17.25 17.22-35.6 13.76-8.75-1.65-16.5-5.87-23.25-11.82-17.54-15.46-26.11-35.09-26.33-58.22-.18-19.49 2.52-38.79 8.49-57.33 10.09-31.34 28.16-57.44 54.55-77.38 17.39-13.15 37.37-17.18 58.71-14.64 8.83 1.05 16.94 4.59 24.09 10.03 3.56 2.7 6.48 5.94 7.99 10.25 1.59 4.56-.92 7.87-5.75 7.24-1.96-.26-4.01-1.1-5.67-2.2-2.57-1.71-4.84-3.86-7.22-5.85-4.2-3.51-8.74-6.35-14.03-8.02-4.47-1.41-8.79-1.31-12.76.96-3.55 2.04-7.03 4.4-10.04 7.16-7.3 6.71-12.89 14.8-17.64 23.46-5.24 9.55-9.45 19.56-12.5 30.01-5.01 17.12-9.7 34.34-11.98 52.08-.85 6.66-1.45 13.37-1.75 20.08-.38 8.52-.65 17.07-.4 25.59.21 7.21 1.2 14.41 1.85 21.61.51 5.62 3.64 9.43 8.47 12.58z" fill="#e8eae8"/><path d="M703.79 665.82c-6.8.41-13.61 1.58-20.85 2.28-.84 2.27-1.57 4.42-2.41 6.52-2.39 5.99-4.55 12.08-7.3 17.9-2.28 4.82-6.07 8.24-12.2 9.34-.43-1.62-1.31-3.08-1.06-4.31 1.3-6.58 2.92-13.1 4.36-19.66.6-2.74 1.02-5.52 1.55-8.47-3.02-1.94-6.18-1.74-9.17-2.12-16.52-2.11-30.95-8.8-42-21.23-17.53-19.73-24.17-42.9-19.42-69.03 1.46-8 4.83-15.25 9.9-21.65 11.02-13.93 29.41-18.98 46.07-12.72 6.47 2.43 11.7 6.48 15.98 11.86 5.4 6.78 8.88 14.55 11.61 22.65 3.55 10.56 5.96 21.39 6.63 32.56.63 10.57 2.17 21.11 1.24 31.73-.45 5.13-1.17 10.24-1.82 15.84 1.73.23 3.19.74 4.57.57 7.45-.9 14.77-2.36 21.93-4.72 7.32-2.41 14.79-2.39 22.12-.08 9.86 3.11 14.44 9.55 13.54 19.83-.59 6.66-1.8 13.33-3.42 19.83-5.19 20.82-9.38 41.86-12.76 63.03-3.92 24.54-5.72 49.29-5 74.16.26 9.11 2.02 17.97 5.72 26.35 2.47 5.6 5.91 10.31 12.08 12.18 3.17-.35 5.36-2.18 7.03-4.54 2.08-2.94 4.23-5.92 5.73-9.16 5.16-11.13 8.14-22.85 8.41-35.17.22-10.12-2.36-19.42-8.42-27.65-.73-.99-1.24-2.15-2.1-3.67 1.49-.63 2.57-1.39 3.73-1.53 9.28-1.08 17.38 1.78 24.31 7.86 4.27 3.75 6.32 8.78 6.91 14.34 2.13 19.83-2.6 37.91-13.85 54.38-9.59 14.03-23.17 19.96-39.74 20.12-13.77.13-25.26-5.2-34.37-15.23-12.16-13.39-19.35-29.07-20.74-47.34-1.74-22.85.96-45.38 3.94-67.96 3.62-27.53 11.65-54 18.66-80.72.39-1.5.81-2.99 1.11-4.51.08-.42-.22-.92-.47-1.86zm-37.14-6.87c.45-1.98 1.07-3.65 1.17-5.35.35-5.68.51-11.36.75-17.05.78-17.93-.89-35.63-4.92-53.11-2.23-9.69-5.97-18.69-12.37-26.44-2.83-3.42-6.09-6.31-10.1-8.32-2.98-1.49-5.94-1.55-8.98-.29-4.16 1.73-7.53 4.51-10.42 7.89-6.78 7.95-10.41 17.24-11.03 27.59-1.35 22.65 6.24 42.12 21.51 58.71 5.33 5.79 11.72 10.14 19.03 13.06 4.78 1.91 9.72 3.2 15.35 3.29z" fill="#e8eae8"/><path d="M368.09 811.63c-2.75 1.21-3.59 2.48-2.91 5.45 1.86 8.18 1.74 16.43 1 24.69-.65 7.32-3.05 14.13-6.62 20.51-2.45 4.39-6.01 7.76-10.32 10.3-7.55 4.44-17.17 3.39-22.35-5.01-3.6-5.84-5.9-12.07-6.43-18.89-1.84-23.47-3.35-46.95-.8-70.47.3-2.78.13-5.71 2.05-8.25 1.94-.53 3.94-1.05 5.91-1.63 15.09-4.44 28.75-11.51 40.57-21.98 6.48-5.74 11.69-12.46 15.24-20.33 1.36-3.01 2.45-6.34 2.71-9.59.94-11.52-4.08-20.02-14.26-25.33-7.54-3.94-15.74-5.21-24.11-4.44-18.58 1.72-34.43 9.09-46.04 24.07-3.93 5.08-7.47 10.6-10.33 16.34-6.51 13.04-10.68 26.89-12.27 41.42-.09.81-.17 1.62-.25 2.44-.76 5.8-1.34 11.99-1.65 18.53-.7 14.97.18 28.49 1.74 40.17 1 4.69 2.03 9.37 3.56 13.88 7 20.76 21.55 33.98 42.81 38.64 15.45 3.38 30.4-.05 43.94-8.25 12.96-7.84 20.62-20.07 26.17-33.71 1.23-3.02 1.68-6.55 1.68-9.85.02-13.88-16.3-24.29-29.05-18.7zm-45.07-60.31c1.49-10.26 4.29-20.18 8.53-29.64 2.42-5.4 5.07-10.73 7.99-15.88 1.63-2.87 3.73-5.63 6.16-7.87 5.38-4.96 11.89-4.82 17.44.01 4.1 3.58 6.3 8.12 6.27 13.6-.05 7.4-2.01 14.26-6.2 20.41-4.25 6.24-9.38 11.66-15.44 16.14-6.67 4.94-13.95 8.8-21.67 11.83-.92.36-1.94.43-3.1.67-1.26-3.28-.4-6.32.03-9.29z" fill="#e8eae8"/></g><g><path d="M498.25 956.92c-1.3 4.07-2.5 6.76-3.01 9.58-5.32 29.35-3.99 58.51 2.92 87.45 2.55 10.71 1.09 13.93-8.89 18.08-2.25.93-4.61 1.67-6.99 2.18-17.27 3.76-34.69 6.25-52.44 5.71-5.46-.17-10.73-.89-15.18-4.51-2.37-1.93-2.47-5.87.04-7.63 5.38-3.78 11.57-4.98 17.97-5.6 9.65-.94 19.29-2.08 28.28-3.06.94-1.95 1.7-2.8 1.72-3.68 1.01-33.75 1.97-67.51 2.87-101.27.04-1.39-.56-2.8-.92-4.48-16.57-8.4-35.2-11.17-51.93-18.32.58-11.14 2.74-13.92 11.37-13.12 9.24.86 18.36 2.99 27.59 4.05 34.64 3.99 67.98 14.3 102.1 20.83 71.03 13.59 142.48 21.22 214.8 16.01 71.83-5.17 141.42-20.3 207.31-50.25 7.98-3.62 15.64-7.94 24.39-12.43-3.19-3.19-5.37-5.73-7.9-7.86-12.75-10.72-25.66-21.24-38.38-31.99-25.9-21.89-49.42-46.13-70.34-72.82-34.25-43.69-64.53-89.91-88.24-140.21-4.16-8.83-7.35-18.13-10.65-27.33-1.31-3.64-1.93-7.59-2.42-11.45-.38-2.96.19-5.98 3.16-7.65 3.07-1.73 5.89-.28 8.04 1.67 3.25 2.94 6.37 6.14 8.98 9.64 6.44 8.63 12.78 17.36 18.78 26.3 13.37 19.93 26.46 40.04 39.76 60.02 39.95 59.98 87.6 112.92 144.29 157.59 8.46 6.67 16.89 13.41 25.01 20.48 6.59 5.73 13.8 11.14 16.52 21.05-2.17 2.11-4.37 4.68-6.98 6.7-14.84 11.49-31.59 19.58-48.68 27.04-26.03 11.36-52.37 21.92-79.5 30.41-34.22 10.72-69.24 17.48-104.77 21.99-32.63 4.15-65.35 5.81-98.24 5.3-36.82-.56-73.38-4.16-109.66-10.02-31.4-5.07-62.58-11.49-93.87-17.3-1.87-.35-3.75-.61-6.93-1.12z" fill="#4db242"/><path d="M751.47 515.12c5.83 19.17 14.91 34.26 22.12 49.42-1.76 5.32-5.3 6.68-9.42 6.83-3.92.14-6.26-2.52-8.04-5.55-5.69-9.71-11.3-19.47-16.86-29.26-4.35-7.64-8.58-15.35-13.05-23.35-9.04-2.29-18.07-4.35-26.97-6.9-5.14-1.47-10.29-3.3-15.01-5.77-2.85-1.49-5.57-4.16-7.12-6.98-3.43-6.22.0-13.92 7.76-13.04 10.21 1.15 20.4 2.41 30.56 3.91 26.72 3.95 53.56 5.7 80.55 4.53 14.53-.63 28.96-2.22 42.81-6.64-.39-4.49-3.64-5.22-6.12-6.44-45.1-22.26-82.01-54.93-115.75-91.47-39.33-42.6-72.56-89.88-104.08-138.35-39.9-61.36-71.16-127.22-99.85-194.36-3.44-8.06-6.09-16.57-8.06-25.11-1.29-5.59-1.13-11.65-.76-17.44.26-4.06 3.09-7.13 7.09-8.6 4.36-1.61 7.58.52 10.34 3.57 1.97 2.17 3.96 4.36 5.63 6.77 2.79 4.02 5.61 8.05 7.91 12.35 17.33 32.34 33.91 65.11 51.97 97.03 16.14 28.52 33.79 56.19 50.97 84.11 6.92 11.25 14.49 22.11 21.57 33.27 23.92 37.73 51.12 73.03 81.01 106.13 20.33 22.51 41.8 44.07 63.68 65.09 21.18 20.35 43.37 39.62 69.51 53.77 11.56 6.26 12.25 15.58 2.87 24.75-7.15 6.97-15.64 11.68-24.82 15.33-19.79 7.86-40.46 11.48-61.62 12.31-12.19.48-24.42.09-38.83.09z" fill="#4db242"/></g></g></g></g></svg>