<svg id="_Слой_2" xmlns="http://www.w3.org/2000/svg" width="1080" height="1079.53" viewBox="0 0 1080 1079.53"><g id="Sport02_307407108"><g id="Sport02_307407108-2"><g><path d="M636.8 183.05c5.33-36.65 16.68-101.57 13.12-130.18.0.0 17.25-16.47 20.86-2.65 4.37 16.74 59.15 185.1-12.31 184.13-13.92-.19-27.01-14.66-21.68-51.3z" fill="#f9b5a5"/><path d="M519.66 234.34c11.06-10.49 88.3-59.14 119.88-64.03.0.0 40.46 28.23 42.77 58.48.0.0-45.09 72.43-125.15 84.47-36.83 5.54-66.78-51.17-37.49-78.92z" fill="#32177c"/><path d="M643.07 41c-8.05-5.33-1.89-16.91 1.94-20.48 1.73-1.61 3.4 4.42.32 11.82.0.0 8.63-9.38 7.52-21.1-.87-9.18 10.7-5.25 16.98-10.26 2.53-2.02 6.25-.75 7.08 2.38 1.51 5.7 3.18 9.51-1.81 17.38-9.12 14.36-5.48 20.43-4.31 29.48 1.57 12.08-20.59 5.81-20.59 5.81.0.0-1.54-11.33-7.13-15.03z" fill="#f9b5a5"/></g><path d="M845.6 1038.05c8.64 5.12-9.61 21.69-15.81 20.6l-19.89-23.11 25.66-14.44s2.63 12.55 10.04 16.95z" fill="#eaaa9d"/><path d="M890.96 1026.26s5.16-1.45 4.71 5.82c-.45 7.27-11.74 20.27-15.98 23.89s-12.75 3.11-16.01 5.6c-3.27 2.49-4.32 8.63-4.32 8.63.0.0-14.23 10.7-19.29 9.18-5.06-1.52-1.56-7.77-1.56-7.77l52.44-45.35z" fill="#d3e7ec"/><path d="M840.87 1048.73c3.85-7.15 2.7-12.5 2.7-12.5.0.0 23.01 2 35.01-7.22 12-9.21 14.61-1.08 14.61-1.08-2.6 12.87-22.17 26.33-28.01 31.1-5.84 4.76-26.67 12.59-26.67 12.59-11.93-5.05-11.64-16.16-11.64-16.16.0.0 10.14.41 13.99-6.73z" fill="#32177c"/><path d="M770.08 779.72c32.86 68.27 60.72 229.45 66.9 246.21l-20.29 17.5c-29.81-29.5-145.46-188.45-139.93-236.78 3.6-31.51 72.16-70.9 93.33-26.93z" fill="#eaaa9d"/><path d="M477.35 560.68c25.48-19.34 92.01-43.48 132.84-12.76 25.04 18.84 110.02 132.04 163.05 228.86.0.0-8.41 18.73-34.61 42.12-23.93 21.37-57.08 34.03-57.08 34.03-94.46-47.7-200.58-165.35-215.1-189.63-30.04-50.25-7.84-88.4 10.89-102.62z" fill="#ff8e0b"/><path d="M35.11 724.47c-9.35 3.67-11.2-20.91-6.53-25.14l30.45-1.48-4.38 29.12s-11.51-5.64-19.54-2.5z" fill="#eaaa9d"/><path d="M16.51 767.5s-2.03 4.96-7.49.13c-5.46-4.82-8.77-21.72-9.02-27.28-.25-5.56 5.38-11.97 5.43-16.07.04-4.11-4.15-8.71-4.15-8.71.0.0.31-17.81 4.62-20.86 4.3-3.06 7.08 3.54 7.08 3.54l3.53 69.25z" fill="#d3e7ec"/><path d="M29.59 714.17c3.27 7.43 8.2 9.82 8.2 9.82.0.0-15.73 16.92-15.84 32.05-.11 15.13-8.12 12.19-8.12 12.19-8.56-9.96-7.14-33.67-7.31-41.2-.17-7.53 6.46-28.78 6.46-28.78 11.31-6.31 19.9.75 19.9.75.0.0-6.56 7.75-3.29 15.17z" fill="#32177c"/><path d="M285.28 823.72c-74.05-16.05-218.3-93.16-235.32-98.59l-1.32-26.76c41.6-5.38 238.05 1.13 272.78 35.19 22.64 22.21 11.56 100.5-36.13 90.16z" fill="#eaaa9d"/><path d="M528.77 523.42c23.13 16.2 47.8 38.34 34.4 87.65-14.34 52.75-125.63 168.55-255.01 223.82.0.0-17.36-4.89-38.27-33.11-27.09-36.55-15.98-92.07-15.98-92.07 69.28-83.92 158.06-180.18 183.67-192.19 53-24.87 71.93-7.59 91.19 5.89z" fill="#feba2f"/><path d="M432.65 540.17c-7.85 9.56-116.6 117.26-180.92 199.64.27 13.78 2.37 30.43 9.02 45.85 65.05-107.58 196.86-218.42 198.93-220.82-13.95-13.06-20.53-18.44-27.03-24.67z" fill="#32177c"/><path d="M446.05 161.1s42.13 1.93 27.23 14.81c-14.9 12.87-29.77 6.94-29.77 6.94 5.87-7.66 2.54-21.75 2.54-21.75z" fill="#feba2f"/><path d="M407.03 246.69c43.28-12.91 106.94-17.09 139.38-5.66 54.9 19.35 57.62 87.13 59.48 101.22 7.3 55.04 38.78 233.98 38.78 233.98-108.79 64.82-290.86 19.34-290.86 19.34 10.2-82.97-37.17-321.92 53.22-348.88z" fill="#5f40d4"/><path d="M605.89 342.25s-4.87 10.44-21.21 22.48c26.38 24.08 47.4 146.27 50.02 154.15-9.88-57.31-24.19-141.79-28.81-176.63z" fill="#32177c"/><path d="M583.31 499.4c-3.15 37.69-32.47 44.92-32.47 44.92 16.12-17.33 32.47-44.92 32.47-44.92z" fill="#32177c"/><path d="M402.09 294.09s-1.14.44-3.35 1.2c-3.37 1.15-6.68 2.45-9.93 3.92-.64.32-1.15.56-1.69.83-5.87 5.29-10.26 6.64-15.76 12.3-1 1.04 8.35 76.26 11.38 149.74 2.29 55.47-2.44 107.55 1.4 139.57 9.57 1.65 20.99 3.4 33.84 4.94-4.18-20.87-.63-76.53-3.74-144.34-2.58-56.08-12.23-122.25-12.16-168.17z" fill="#fcfcfc"/><path d="M449.78 223.71c11.26-18.4 10.32-46.58 10.32-46.58l21.35 7.44s-6.49 37.53 37.29 50.49c0 0-14.26 11.1-24.95 13.88-28.98 7.53-64.49-7.44-64.49-7.44.0.0 11.77-3.58 20.47-17.79z" fill="#f9b5a5"/><path d="M452.04 163.03c3.07-1.96 4.83.3 4.83.3.0.0-1.27-6.42.41-17.62 1.68-11.19 28.78-16.19 37.52-9.76 8.74 6.44 15.12 30.98 8.79 56.64-1.29 5.25-22.1 3.23-31.85-3.33-9.74-6.56-11.64-12.12-11.64-12.12.0.0-4.2 2.84-8.32-.48-4.13-3.31-2.82-11.67.25-13.63z" fill="#f9b5a5"/><g><path d="M1078.44 720.79c-9.15 48.54-55.92 80.47-104.46 71.31-48.54-9.15-80.47-55.92-71.31-104.46 9.15-48.53 55.92-80.46 104.46-71.31 48.54 9.15 80.46 55.92 71.31 104.46z" fill="#d8d8d8"/><path d="M938.31 726.51h39.08v2.71H938.31z" transform="translate(-226.25 940.41) rotate(-47.41)" fill="#bbb"/><path d="M917.5 733.81c-10.88-24.19-4.77-46.58-4.5-47.52l2.61.73c-.06.22-6.09 22.42 4.37 45.67l-2.47 1.12z" fill="#bbb"/><path d="M949.53 658.98h2.71v31.32H949.53z" transform="translate(-73.71 1231) rotate(-63.86)" fill="#bbb"/><path d="M937.59 643.35l-1.91-1.92c21.04-20.81 42.95-19.54 43.88-19.48l-.19 2.71c-.21-.02-21.66-1.21-41.79 18.69z" fill="#bbb"/><path d="M984.74 649.42h31.77v2.71H984.74z" transform="translate(175.09 1512.89) rotate(-79.28)" fill="#bbb"/><path d="M990.28 781.54c-17.81.0-32.4-7.32-33.08-7.67l1.23-2.41c.18.09 17.94 8.99 37.54 7.1l.26 2.69c-2.01.2-4 .28-5.95.28z" fill="#bbb"/><path d="M1011.94 722.51h2.71v35.98H1011.94z" transform="translate(-199.36 417.11) rotate(-21.23)" fill="#bbb"/><path d="M1050.05 756.59l-1.93-1.91c14.23-14.35 18.47-36.07 18.51-36.29l2.66.5c-.17.92-4.42 22.75-19.25 37.69z" fill="#bbb"/><path d="M1021.23 690.32h35.88v2.71H1021.23z" transform="translate(-53.95 88.87) rotate(-4.77)" fill="#bbb"/><path d="M1060.83 665.18c-12.45-24.63-30.3-30.93-30.47-30.99l.86-2.57c.77.26 19.04 6.64 32.03 32.33l-2.42 1.22z" fill="#bbb"/><path d="M938.86 669.41l1.43-30s-10 1.01-14.46 4.48c0 0-13.04 10.76-19.3 34.91l6.81 12.2 25.51-21.58z" fill="#32177c"/><path d="M947.24 739.4l-29.72-10.02s-6.04 9.47-2.79 20.9c0 0 9.37 17.99 25.3 26.7l17.78-4.31-10.58-33.27z" fill="#32177c"/><path d="M1007.13 724.62l16.78-31.67-25.9-28.32v-.02s-34.43 16.93-34.43 16.93l4.1 35.61c13.64 9.94 39.44 7.47 39.44 7.47z" fill="#32177c"/><path d="M1002.53 640.69l31.1-6.18s.05-5.6-4.95-9.84c0 0-5.54-3.55-21.88-6.63v-.03c-16.33-3.08-22.79-1.79-22.79-1.79-6.21 2.14-8.2 7.36-8.2 7.36l26.71 17.11z" fill="#32177c"/><path d="M1072.79 671.63c-2.89-4.85-11.84-9.44-11.84-9.44l-10.74 28.56 17.05 29.3 10.79-8.88c2.97-24.77-5.26-39.54-5.26-39.54z" fill="#32177c"/><path d="M1049.8 754.24l-30.34 2.14-23.36 23.53 14.99 10.49c18.01-2.32 33.29-15.66 33.29-15.66 7.19-9.45 5.7-20.7 5.7-20.7l-.28.19z" fill="#32177c"/></g><path d="M502.23 116.84c-.91 5.19-7.98 7.51-13.19 7.16-4.29-.29-.26-6.34-.26-6.34-4.84 2.85-14.78 3.02-22.18 3.55-35.3 2.51-17.87 50.7-17.87 50.7.0.0 2-13.55 8.14-8.57 1.79 1.45 4.27 3.56 5.32 4.6.64.62 2.9.44 3.57-.15 3.39-2.98-3.37-24.11-3.37-24.11.0.0 17.04 3.04 30.43-2.43 18.34-7.49 9.42-24.4 9.42-24.4z" fill="#feba2f"/><g><path d="M318.2 380.34c-23.7 28.46-68.62 78.28-76.62 100.19.0.0-25.94 8.96-21.79-4.71 5.02-16.56 46.33-188.72 106.74-150.54 11.77 7.44 15.36 26.61-8.33 55.06z" fill="#f9b5a5"/><path d="M449.89 322.14c-11.37 10.15-85.86 52.13-117.58 56.06.0.0-39.59-29.44-40.98-59.75.0.0 52.37-64.56 132.76-74.17 36.98-4.42 55.91 51 25.79 77.86z" fill="#5f40d4"/><path d="M352.29 307.82s-36.54 28.76-48.37 41.48c-5.85-8.05-10.43-16.19-11.94-25.48 11.15-10.87 46.42-35.96 46.42-35.96.0.0 5.64 11.63 13.9 19.96z" fill="#fcfcfc"/><path d="M239.09 498.18c4.44 8.57-7.07 12.3-11.52 15.77-1.86 1.46-3.72-4.76 2.77-9.45.0.0-10.47 3.35-15.65 13.92-4.05 8.28-13.37 3.53-21.34 4.53-3.22.4-5.72-2.63-4.79-5.73 1.69-5.64 5.46-12.82 13.83-16.92 15.28-7.47 15.56-25.02 21.56-33.18 6.1-8.3 19.5 3.96 18.98 9.21-.51 5.12-8.3 13.28-3.85 21.85z" fill="#f9b5a5"/></g></g></g></svg>